0, 0, Header, 0, 1, 96
1, 0, Start_track
1, 0, Tempo, 1000000
1, 0, Note_on_c, 0, 67, 64
1, 0, Note_on_c, 1, 59, 64
1, 0, Note_on_c, 1, 55, 64
1, 67, Note_on_c, 0, 67, 0
1, 72, Note_on_c, 0, 69, 64
1, 80, Note_on_c, 0, 69, 0
1, 80, Note_on_c, 0, 67, 64
1, 88, Note_on_c, 0, 67, 0
1, 88, Note_on_c, 0, 66, 64
1, 96, Note_on_c, 0, 66, 0
1, 96, Note_on_c, 0, 67, 64
1, 116, Note_on_c, 0, 67, 0
1, 144, Note_on_c, 0, 71, 64
1, 164, Note_on_c, 0, 71, 0
1, 192, Note_on_c, 0, 74, 64
1, 212, Note_on_c, 0, 74, 0
1, 240, Note_on_c, 0, 67, 64
1, 260, Note_on_c, 0, 67, 0
1, 265, Note_on_c, 1, 59, 0
1, 265, Note_on_c, 1, 55, 0
1, 288, Note_on_c, 0, 66, 80
1, 288, Note_on_c, 1, 60, 64
1, 288, Note_on_c, 1, 57, 64
1, 288, Note_on_c, 1, 50, 64
1, 360, Note_on_c, 0, 66, 0
1, 360, Note_on_c, 0, 67, 64
1, 368, Note_on_c, 0, 67, 0
1, 368, Note_on_c, 0, 66, 64
1, 376, Note_on_c, 0, 66, 0
1, 376, Note_on_c, 0, 64, 64
1, 384, Note_on_c, 0, 64, 0
1, 384, Note_on_c, 0, 66, 64
1, 396, Note_on_c, 0, 66, 0
1, 396, Note_on_c, 0, 69, 64
1, 408, Note_on_c, 0, 69, 0
1, 408, Note_on_c, 0, 67, 64
1, 420, Note_on_c, 0, 67, 0
1, 420, Note_on_c, 0, 71, 64
1, 432, Note_on_c, 0, 71, 0
1, 432, Note_on_c, 0, 69, 64
1, 444, Note_on_c, 0, 69, 0
1, 444, Note_on_c, 0, 72, 64
1, 456, Note_on_c, 0, 72, 0
1, 456, Note_on_c, 0, 71, 64
1, 468, Note_on_c, 0, 71, 0
1, 468, Note_on_c, 0, 74, 64
1, 480, Note_on_c, 0, 74, 0
1, 480, Note_on_c, 0, 72, 64
1, 500, Note_on_c, 0, 72, 0
1, 525, Note_on_c, 1, 60, 0
1, 525, Note_on_c, 1, 57, 0
1, 525, Note_on_c, 1, 50, 0
1, 576, Note_on_c, 0, 69, 64
1, 576, Note_on_c, 1, 60, 64
1, 576, Note_on_c, 1, 57, 64
1, 576, Note_on_c, 1, 50, 64
1, 643, Note_on_c, 0, 69, 0
1, 648, Note_on_c, 0, 71, 64
1, 656, Note_on_c, 0, 71, 0
1, 656, Note_on_c, 0, 69, 64
1, 664, Note_on_c, 0, 69, 0
1, 664, Note_on_c, 0, 68, 64
1, 672, Note_on_c, 0, 68, 0
1, 672, Note_on_c, 0, 69, 75
1, 682, Note_on_c, 0, 69, 0
1, 696, Note_on_c, 0, 71, 76
1, 706, Note_on_c, 0, 71, 0
1, 720, Note_on_c, 0, 72, 77
1, 730, Note_on_c, 0, 72, 0
1, 744, Note_on_c, 0, 74, 78
1, 754, Note_on_c, 0, 74, 0
1, 768, Note_on_c, 0, 76, 80
1, 778, Note_on_c, 0, 76, 0
1, 792, Note_on_c, 0, 72, 78
1, 815, Note_on_c, 0, 72, 0
1, 816, Note_on_c, 0, 71, 77
1, 839, Note_on_c, 0, 71, 0
1, 840, Note_on_c, 0, 69, 76
1, 841, Note_on_c, 1, 60, 0
1, 841, Note_on_c, 1, 57, 0
1, 841, Note_on_c, 1, 50, 0
1, 863, Note_on_c, 0, 69, 0
1, 864, Note_on_c, 0, 71, 75
1, 864, Note_on_c, 1, 59, 64
1, 864, Note_on_c, 1, 55, 64
1, 931, Note_on_c, 0, 71, 0
1, 936, Note_on_c, 0, 72, 75
1, 944, Note_on_c, 0, 72, 0
1, 944, Note_on_c, 0, 71, 75
1, 952, Note_on_c, 0, 71, 0
1, 952, Note_on_c, 0, 69, 75
1, 958, Note_on_c, 1, 59, 0
1, 958, Note_on_c, 1, 55, 0
1, 960, Note_on_c, 0, 69, 0
1, 960, Note_on_c, 0, 71, 75
1, 960, Note_on_c, 1, 47, 64
1, 960, Note_on_c, 1, 43, 64
1, 972, Note_on_c, 0, 71, 0
1, 972, Note_on_c, 0, 67, 75
1, 984, Note_on_c, 0, 67, 0
1, 984, Note_on_c, 0, 72, 75
1, 996, Note_on_c, 0, 72, 0
1, 996, Note_on_c, 0, 69, 75
1, 1008, Note_on_c, 0, 69, 0
1, 1008, Note_on_c, 0, 74, 75
1, 1020, Note_on_c, 0, 74, 0
1, 1020, Note_on_c, 0, 71, 75
1, 1032, Note_on_c, 0, 71, 0
1, 1032, Note_on_c, 0, 76, 75
1, 1044, Note_on_c, 0, 76, 0
1, 1044, Note_on_c, 0, 72, 75
1, 1054, Note_on_c, 1, 47, 0
1, 1054, Note_on_c, 1, 43, 0
1, 1056, Note_on_c, 0, 72, 0
1, 1056, Note_on_c, 0, 74, 75
1, 1076, Note_on_c, 0, 74, 0
1, 1152, Note_on_c, 0, 79, 75
1, 1152, Note_on_c, 1, 67, 64
1, 1152, Note_on_c, 1, 62, 64
1, 1152, Note_on_c, 1, 59, 64
1, 1219, Note_on_c, 0, 79, 0
1, 1224, Note_on_c, 0, 81, 75
1, 1232, Note_on_c, 0, 81, 0
1, 1232, Note_on_c, 0, 79, 75
1, 1240, Note_on_c, 0, 79, 0
1, 1240, Note_on_c, 0, 78, 75
1, 1248, Note_on_c, 0, 78, 0
1, 1248, Note_on_c, 0, 79, 75
1, 1258, Note_on_c, 0, 79, 0
1, 1272, Note_on_c, 0, 83, 76
1, 1282, Note_on_c, 0, 83, 0
1, 1296, Note_on_c, 0, 86, 77
1, 1306, Note_on_c, 0, 86, 0
1, 1320, Note_on_c, 0, 83, 78
1, 1330, Note_on_c, 0, 83, 0
1, 1344, Note_on_c, 0, 79, 80
1, 1354, Note_on_c, 0, 79, 0
1, 1368, Note_on_c, 0, 74, 78
1, 1391, Note_on_c, 0, 74, 0
1, 1392, Note_on_c, 0, 72, 77
1, 1415, Note_on_c, 0, 72, 0
1, 1416, Note_on_c, 0, 71, 76
1, 1417, Note_on_c, 1, 67, 0
1, 1417, Note_on_c, 1, 62, 0
1, 1417, Note_on_c, 1, 59, 0
1, 1439, Note_on_c, 0, 71, 0
1, 1440, Note_on_c, 0, 69, 75
1, 1440, Note_on_c, 1, 64, 64
1, 1440, Note_on_c, 1, 60, 64
1, 1507, Note_on_c, 0, 69, 0
1, 1512, Note_on_c, 0, 71, 75
1, 1520, Note_on_c, 0, 71, 0
1, 1520, Note_on_c, 0, 69, 75
1, 1528, Note_on_c, 0, 69, 0
1, 1528, Note_on_c, 0, 68, 75
1, 1529, Note_on_c, 1, 64, 0
1, 1529, Note_on_c, 1, 60, 0
1, 1536, Note_on_c, 0, 68, 0
1, 1536, Note_on_c, 0, 69, 75
1, 1536, Note_on_c, 1, 52, 64
1, 1536, Note_on_c, 1, 48, 64
1, 1559, Note_on_c, 0, 69, 0
1, 1560, Note_on_c, 0, 71, 75
1, 1583, Note_on_c, 0, 71, 0
1, 1584, Note_on_c, 0, 72, 76
1, 1607, Note_on_c, 0, 72, 0
1, 1608, Note_on_c, 0, 74, 76
1, 1630, Note_on_c, 1, 52, 0
1, 1630, Note_on_c, 1, 48, 0
1, 1631, Note_on_c, 0, 74, 0
1, 1632, Note_on_c, 0, 75, 77
1, 1656, Note_on_c, 0, 75, 0
1, 1656, Note_on_c, 0, 76, 78
1, 1679, Note_on_c, 0, 76, 0
1, 1680, Note_on_c, 0, 72, 78
1, 1703, Note_on_c, 0, 72, 0
1, 1704, Note_on_c, 0, 69, 79
1, 1727, Note_on_c, 0, 69, 0
1, 1728, Note_on_c, 0, 74, 80
1, 1728, Note_on_c, 1, 50, 80
1, 1824, Note_on_c, 1, 59, 70
1, 1824, Note_on_c, 1, 55, 70
1, 1905, Note_on_c, 1, 50, 0
1, 1920, Note_on_c, 1, 59, 0
1, 1920, Note_on_c, 1, 55, 0
1, 1920, Note_on_c, 1, 60, 64
1, 1920, Note_on_c, 1, 57, 64
1, 1935, Note_on_c, 0, 74, 0
1, 1936, Note_on_c, 0, 73, 77
1, 1951, Note_on_c, 0, 73, 0
1, 1952, Note_on_c, 0, 72, 74
1, 1965, Note_on_c, 1, 60, 0
1, 1965, Note_on_c, 1, 57, 0
1, 1967, Note_on_c, 0, 72, 0
1, 1968, Note_on_c, 0, 71, 71
1, 1983, Note_on_c, 0, 71, 0
1, 1984, Note_on_c, 0, 70, 69
1, 1999, Note_on_c, 0, 70, 0
1, 2000, Note_on_c, 0, 69, 66
1, 2015, Note_on_c, 0, 69, 0
1, 2016, Note_on_c, 0, 67, 58
1, 2016, Note_on_c, 1, 55, 64
1, 2055, Note_on_c, 1, 55, 0
1, 2105, Note_on_c, 0, 67, 0
1, 2112, Note_on_c, 1, 43, 64
1, 2201, Note_on_c, 1, 43, 0
1, 2208, Note_on_c, 1, 55, 75
1, 2220, Note_on_c, 1, 55, 0
1, 2220, Note_on_c, 1, 59, 75
1, 2232, Note_on_c, 1, 59, 0
1, 2232, Note_on_c, 1, 62, 75
1, 2244, Note_on_c, 1, 62, 0
1, 2244, Note_on_c, 1, 67, 75
1, 2256, Note_on_c, 0, 71, 75
1, 2256, Note_on_c, 1, 67, 0
1, 2268, Note_on_c, 0, 71, 0
1, 2268, Note_on_c, 0, 74, 75
1, 2280, Note_on_c, 0, 74, 0
1, 2280, Note_on_c, 0, 79, 75
1, 2292, Note_on_c, 0, 79, 0
1, 2292, Note_on_c, 0, 83, 75
1, 2304, Note_on_c, 0, 83, 0
1, 2304, Note_on_c, 0, 86, 91
1, 2400, Note_on_c, 1, 59, 64
1, 2400, Note_on_c, 1, 55, 64
1, 2423, Note_on_c, 0, 86, 0
1, 2424, Note_on_c, 0, 84, 75
1, 2436, Note_on_c, 0, 84, 0
1, 2436, Note_on_c, 0, 83, 75
1, 2447, Note_on_c, 1, 59, 0
1, 2447, Note_on_c, 1, 55, 0
1, 2448, Note_on_c, 0, 83, 0
1, 2448, Note_on_c, 0, 81, 75
1, 2460, Note_on_c, 0, 81, 0
1, 2460, Note_on_c, 0, 79, 75
1, 2472, Note_on_c, 0, 79, 0
1, 2472, Note_on_c, 0, 78, 76
1, 2484, Note_on_c, 0, 78, 0
1, 2484, Note_on_c, 0, 79, 77
1, 2496, Note_on_c, 0, 79, 0
1, 2496, Note_on_c, 0, 81, 77
1, 2496, Note_on_c, 1, 71, 64
1, 2496, Note_on_c, 1, 67, 64
1, 2508, Note_on_c, 0, 81, 0
1, 2508, Note_on_c, 0, 79, 78
1, 2520, Note_on_c, 0, 79, 0
1, 2520, Note_on_c, 0, 83, 79
1, 2532, Note_on_c, 0, 83, 0
1, 2532, Note_on_c, 0, 81, 80
1, 2543, Note_on_c, 1, 71, 0
1, 2543, Note_on_c, 1, 67, 0
1, 2544, Note_on_c, 0, 81, 0
1, 2544, Note_on_c, 0, 84, 79
1, 2556, Note_on_c, 0, 84, 0
1, 2556, Note_on_c, 0, 83, 79
1, 2568, Note_on_c, 0, 83, 0
1, 2568, Note_on_c, 0, 81, 78
1, 2580, Note_on_c, 0, 81, 0
1, 2580, Note_on_c, 0, 79, 78
1, 2592, Note_on_c, 0, 79, 0
1, 2592, Note_on_c, 0, 80, 93
1, 2664, Note_on_c, 0, 80, 0
1, 2664, Note_on_c, 0, 83, 75
1, 2687, Note_on_c, 0, 83, 0
1, 2688, Note_on_c, 0, 81, 75
1, 2688, Note_on_c, 1, 62, 64
1, 2688, Note_on_c, 1, 54, 64
1, 2733, Note_on_c, 0, 81, 0
1, 2735, Note_on_c, 1, 62, 0
1, 2735, Note_on_c, 1, 54, 0
1, 2784, Note_on_c, 1, 62, 64
1, 2784, Note_on_c, 1, 54, 64
1, 2796, Note_on_c, 0, 74, 75
1, 2808, Note_on_c, 0, 74, 0
1, 2808, Note_on_c, 0, 76, 75
1, 2820, Note_on_c, 0, 76, 0
1, 2820, Note_on_c, 0, 78, 75
1, 2831, Note_on_c, 1, 62, 0
1, 2831, Note_on_c, 1, 54, 0
1, 2832, Note_on_c, 0, 78, 0
1, 2832, Note_on_c, 0, 80, 75
1, 2844, Note_on_c, 0, 80, 0
1, 2844, Note_on_c, 0, 81, 75
1, 2856, Note_on_c, 0, 81, 0
1, 2856, Note_on_c, 0, 83, 75
1, 2868, Note_on_c, 0, 83, 0
1, 2868, Note_on_c, 0, 85, 75
1, 2880, Note_on_c, 0, 85, 0
1, 2880, Note_on_c, 0, 86, 91
1, 2976, Note_on_c, 1, 62, 64
1, 2976, Note_on_c, 1, 54, 64
1, 2988, Note_on_c, 0, 86, 0
1, 2988, Note_on_c, 0, 81, 75
1, 3000, Note_on_c, 0, 81, 0
1, 3000, Note_on_c, 0, 79, 75
1, 3012, Note_on_c, 0, 79, 0
1, 3012, Note_on_c, 0, 81, 75
1, 3023, Note_on_c, 1, 62, 0
1, 3023, Note_on_c, 1, 54, 0
1, 3024, Note_on_c, 0, 81, 0
1, 3024, Note_on_c, 0, 78, 75
1, 3036, Note_on_c, 0, 78, 0
1, 3036, Note_on_c, 0, 79, 75
1, 3048, Note_on_c, 0, 79, 0
1, 3048, Note_on_c, 0, 76, 75
1, 3060, Note_on_c, 0, 76, 0
1, 3060, Note_on_c, 0, 78, 75
1, 3072, Note_on_c, 0, 78, 0
1, 3072, Note_on_c, 0, 74, 75
1, 3072, Note_on_c, 1, 62, 64
1, 3072, Note_on_c, 1, 54, 64
1, 3084, Note_on_c, 0, 74, 0
1, 3084, Note_on_c, 0, 76, 75
1, 3096, Note_on_c, 0, 76, 0
1, 3096, Note_on_c, 0, 73, 75
1, 3108, Note_on_c, 0, 73, 0
1, 3108, Note_on_c, 0, 76, 75
1, 3119, Note_on_c, 1, 62, 0
1, 3119, Note_on_c, 1, 54, 0
1, 3120, Note_on_c, 0, 76, 0
1, 3120, Note_on_c, 0, 74, 75
1, 3143, Note_on_c, 0, 74, 0
1, 3156, Note_on_c, 0, 81, 75
1, 3168, Note_on_c, 0, 81, 0
1, 3168, Note_on_c, 0, 81, 75
1, 3213, Note_on_c, 0, 81, 0
1, 3216, Note_on_c, 0, 80, 74
1, 3255, Note_on_c, 0, 80, 0
1, 3264, Note_on_c, 1, 64, 64
1, 3264, Note_on_c, 1, 71, 64
1, 3312, Note_on_c, 0, 80, 72
1, 3351, Note_on_c, 0, 80, 0
1, 3358, Note_on_c, 1, 71, 0
1, 3360, Note_on_c, 1, 64, 0
1, 3360, Note_on_c, 1, 62, 64
1, 3360, Note_on_c, 1, 71, 64
1, 3408, Note_on_c, 0, 79, 70
1, 3454, Note_on_c, 1, 62, 0
1, 3454, Note_on_c, 1, 71, 0
1, 3456, Note_on_c, 1, 69, 64
1, 3456, Note_on_c, 1, 61, 64
1, 3468, Note_on_c, 0, 79, 0
1, 3468, Note_on_c, 0, 76, 70
1, 3480, Note_on_c, 0, 76, 0
1, 3480, Note_on_c, 0, 78, 70
1, 3492, Note_on_c, 0, 78, 0
1, 3492, Note_on_c, 0, 79, 71
1, 3504, Note_on_c, 0, 79, 0
1, 3504, Note_on_c, 0, 81, 71
1, 3516, Note_on_c, 0, 81, 0
1, 3516, Note_on_c, 0, 83, 72
1, 3528, Note_on_c, 0, 83, 0
1, 3528, Note_on_c, 0, 85, 73
1, 3540, Note_on_c, 0, 85, 0
1, 3540, Note_on_c, 0, 86, 73
1, 3552, Note_on_c, 0, 86, 0
1, 3552, Note_on_c, 0, 88, 74
1, 3564, Note_on_c, 0, 88, 0
1, 3564, Note_on_c, 0, 86, 75
1, 3576, Note_on_c, 0, 86, 0
1, 3576, Note_on_c, 0, 85, 75
1, 3588, Note_on_c, 0, 85, 0
1, 3588, Note_on_c, 0, 83, 75
1, 3600, Note_on_c, 0, 83, 0
1, 3600, Note_on_c, 0, 81, 75
1, 3612, Note_on_c, 0, 81, 0
1, 3612, Note_on_c, 0, 80, 75
1, 3624, Note_on_c, 0, 80, 0
1, 3624, Note_on_c, 0, 81, 75
1, 3636, Note_on_c, 0, 81, 0
1, 3636, Note_on_c, 0, 80, 75
1, 3648, Note_on_c, 0, 80, 0
1, 3648, Note_on_c, 0, 81, 75
1, 3660, Note_on_c, 0, 81, 0
1, 3660, Note_on_c, 0, 82, 75
1, 3672, Note_on_c, 0, 82, 0
1, 3672, Note_on_c, 0, 83, 75
1, 3684, Note_on_c, 0, 83, 0
1, 3684, Note_on_c, 0, 82, 75
1, 3696, Note_on_c, 0, 82, 0
1, 3696, Note_on_c, 0, 83, 75
1, 3708, Note_on_c, 0, 83, 0
1, 3708, Note_on_c, 0, 79, 75
1, 3720, Note_on_c, 0, 79, 0
1, 3720, Note_on_c, 0, 78, 75
1, 3732, Note_on_c, 0, 78, 0
1, 3732, Note_on_c, 0, 76, 75
1, 3736, Note_on_c, 1, 69, 0
1, 3736, Note_on_c, 1, 61, 0
1, 3744, Note_on_c, 0, 76, 0
1, 3744, Note_on_c, 0, 78, 75
1, 3744, Note_on_c, 1, 69, 64
1, 3744, Note_on_c, 1, 62, 64
1, 3756, Note_on_c, 0, 78, 0
1, 3756, Note_on_c, 0, 74, 75
1, 3768, Note_on_c, 0, 74, 0
1, 3768, Note_on_c, 0, 76, 75
1, 3780, Note_on_c, 0, 76, 0
1, 3780, Note_on_c, 0, 78, 75
1, 3792, Note_on_c, 0, 78, 0
1, 3792, Note_on_c, 0, 79, 75
1, 3804, Note_on_c, 0, 79, 0
1, 3804, Note_on_c, 0, 81, 76
1, 3816, Note_on_c, 0, 81, 0
1, 3816, Note_on_c, 0, 83, 77
1, 3828, Note_on_c, 0, 83, 0
1, 3828, Note_on_c, 0, 85, 78
1, 3838, Note_on_c, 1, 69, 0
1, 3838, Note_on_c, 1, 62, 0
1, 3840, Note_on_c, 0, 85, 0
1, 3840, Note_on_c, 0, 86, 79
1, 3852, Note_on_c, 0, 86, 0
1, 3852, Note_on_c, 0, 85, 80
1, 3864, Note_on_c, 0, 85, 0
1, 3864, Note_on_c, 0, 86, 80
1, 3876, Note_on_c, 0, 86, 0
1, 3876, Note_on_c, 0, 85, 80
1, 3888, Note_on_c, 0, 85, 0
1, 3888, Note_on_c, 0, 86, 80
1, 3900, Note_on_c, 0, 86, 0
1, 3900, Note_on_c, 0, 85, 80
1, 3912, Note_on_c, 0, 85, 0
1, 3912, Note_on_c, 0, 86, 80
1, 3924, Note_on_c, 0, 86, 0
1, 3924, Note_on_c, 0, 85, 80
1, 3936, Note_on_c, 0, 85, 0
1, 3936, Note_on_c, 0, 86, 80
1, 3936, Note_on_c, 1, 62, 64
1, 3936, Note_on_c, 1, 54, 64
1, 3948, Note_on_c, 0, 86, 0
1, 3948, Note_on_c, 0, 85, 79
1, 3960, Note_on_c, 0, 85, 0
1, 3960, Note_on_c, 0, 83, 78
1, 3972, Note_on_c, 0, 83, 0
1, 3972, Note_on_c, 0, 81, 78
1, 3984, Note_on_c, 0, 81, 0
1, 3984, Note_on_c, 0, 79, 77
1, 3996, Note_on_c, 0, 79, 0
1, 3996, Note_on_c, 0, 78, 76
1, 4008, Note_on_c, 0, 78, 0
1, 4008, Note_on_c, 0, 76, 76
1, 4020, Note_on_c, 0, 76, 0
1, 4020, Note_on_c, 0, 74, 75
1, 4030, Note_on_c, 1, 62, 0
1, 4030, Note_on_c, 1, 54, 0
1, 4032, Note_on_c, 0, 74, 0
1, 4032, Note_on_c, 0, 76, 75
1, 4032, Note_on_c, 1, 59, 64
1, 4032, Note_on_c, 1, 55, 64
1, 4044, Note_on_c, 0, 76, 0
1, 4044, Note_on_c, 0, 75, 75
1, 4056, Note_on_c, 0, 75, 0
1, 4056, Note_on_c, 0, 78, 76
1, 4068, Note_on_c, 0, 78, 0
1, 4068, Note_on_c, 0, 76, 76
1, 4080, Note_on_c, 0, 76, 0
1, 4080, Note_on_c, 0, 79, 77
1, 4092, Note_on_c, 0, 79, 0
1, 4092, Note_on_c, 0, 78, 78
1, 4104, Note_on_c, 0, 78, 0
1, 4104, Note_on_c, 0, 81, 78
1, 4116, Note_on_c, 0, 81, 0
1, 4116, Note_on_c, 0, 79, 79
1, 4126, Note_on_c, 1, 59, 0
1, 4126, Note_on_c, 1, 55, 0
1, 4128, Note_on_c, 0, 79, 0
1, 4128, Note_on_c, 0, 83, 80
1, 4140, Note_on_c, 0, 83, 0
1, 4140, Note_on_c, 0, 79, 80
1, 4152, Note_on_c, 0, 79, 0
1, 4152, Note_on_c, 0, 78, 80
1, 4164, Note_on_c, 0, 78, 0
1, 4164, Note_on_c, 0, 76, 80
1, 4176, Note_on_c, 0, 76, 0
1, 4176, Note_on_c, 0, 75, 80
1, 4188, Note_on_c, 0, 75, 0
1, 4188, Note_on_c, 0, 76, 80
1, 4200, Note_on_c, 0, 76, 0
1, 4200, Note_on_c, 0, 78, 80
1, 4212, Note_on_c, 0, 78, 0
1, 4212, Note_on_c, 0, 76, 80
1, 4224, Note_on_c, 0, 76, 0
1, 4224, Note_on_c, 0, 79, 80
1, 4236, Note_on_c, 0, 79, 0
1, 4236, Note_on_c, 0, 78, 80
1, 4248, Note_on_c, 0, 78, 0
1, 4248, Note_on_c, 0, 81, 80
1, 4260, Note_on_c, 0, 81, 0
1, 4260, Note_on_c, 0, 79, 79
1, 4272, Note_on_c, 0, 79, 0
1, 4272, Note_on_c, 0, 83, 78
1, 4284, Note_on_c, 0, 83, 0
1, 4284, Note_on_c, 0, 79, 77
1, 4296, Note_on_c, 0, 79, 0
1, 4296, Note_on_c, 0, 78, 76
1, 4308, Note_on_c, 0, 78, 0
1, 4308, Note_on_c, 0, 76, 75
1, 4320, Note_on_c, 0, 76, 0
1, 4320, Note_on_c, 0, 81, 75
1, 4320, Note_on_c, 1, 66, 64
1, 4320, Note_on_c, 1, 62, 64
1, 4320, Note_on_c, 1, 57, 64
1, 4332, Note_on_c, 0, 81, 0
1, 4332, Note_on_c, 0, 83, 75
1, 4344, Note_on_c, 0, 83, 0
1, 4344, Note_on_c, 0, 80, 75
1, 4356, Note_on_c, 0, 80, 0
1, 4356, Note_on_c, 0, 83, 75
1, 4368, Note_on_c, 0, 83, 0
1, 4368, Note_on_c, 0, 81, 75
1, 4380, Note_on_c, 0, 81, 0
1, 4380, Note_on_c, 0, 83, 75
1, 4392, Note_on_c, 0, 83, 0
1, 4392, Note_on_c, 0, 80, 75
1, 4404, Note_on_c, 0, 80, 0
1, 4404, Note_on_c, 0, 83, 75
1, 4416, Note_on_c, 0, 83, 0
1, 4416, Note_on_c, 0, 81, 75
1, 4428, Note_on_c, 0, 81, 0
1, 4428, Note_on_c, 0, 83, 75
1, 4440, Note_on_c, 0, 83, 0
1, 4440, Note_on_c, 0, 80, 75
1, 4452, Note_on_c, 0, 80, 0
1, 4452, Note_on_c, 0, 83, 75
1, 4464, Note_on_c, 0, 83, 0
1, 4464, Note_on_c, 0, 81, 75
1, 4476, Note_on_c, 0, 81, 0
1, 4476, Note_on_c, 0, 83, 75
1, 4488, Note_on_c, 0, 83, 0
1, 4488, Note_on_c, 0, 80, 75
1, 4500, Note_on_c, 0, 80, 0
1, 4500, Note_on_c, 0, 83, 75
1, 4507, Note_on_c, 1, 66, 0
1, 4507, Note_on_c, 1, 62, 0
1, 4507, Note_on_c, 1, 57, 0
1, 4512, Note_on_c, 0, 83, 0
1, 4512, Note_on_c, 0, 81, 75
1, 4522, Note_on_c, 0, 81, 0
1, 4536, Note_on_c, 0, 82, 76
1, 4546, Note_on_c, 0, 82, 0
1, 4560, Note_on_c, 0, 83, 78
1, 4570, Note_on_c, 0, 83, 0
1, 4584, Note_on_c, 0, 86, 80
1, 4594, Note_on_c, 0, 86, 0
1, 4608, Note_on_c, 0, 74, 80
1, 4626, Note_on_c, 0, 74, 0
1, 4626, Note_on_c, 0, 76, 80
1, 4635, Note_on_c, 0, 76, 0
1, 4635, Note_on_c, 0, 78, 80
1, 4644, Note_on_c, 0, 78, 0
1, 4644, Note_on_c, 0, 76, 80
1, 4653, Note_on_c, 0, 76, 0
1, 4653, Note_on_c, 0, 78, 80
1, 4662, Note_on_c, 0, 78, 0
1, 4662, Note_on_c, 0, 76, 80
1, 4671, Note_on_c, 0, 76, 0
1, 4671, Note_on_c, 0, 78, 80
1, 4680, Note_on_c, 0, 78, 0
1, 4680, Note_on_c, 0, 76, 80
1, 4688, Note_on_c, 0, 76, 0
1, 4688, Note_on_c, 0, 78, 80
1, 4696, Note_on_c, 0, 78, 0
1, 4696, Note_on_c, 0, 76, 80
1, 4704, Note_on_c, 0, 76, 0
1, 4704, Note_on_c, 0, 78, 80
1, 4704, Note_on_c, 1, 45, 75
1, 4704, Note_on_c, 1, 33, 75
1, 4712, Note_on_c, 0, 78, 0
1, 4712, Note_on_c, 0, 76, 80
1, 4720, Note_on_c, 0, 76, 0
1, 4720, Note_on_c, 0, 78, 80
1, 4728, Note_on_c, 0, 78, 0
1, 4728, Note_on_c, 0, 76, 80
1, 4736, Note_on_c, 0, 76, 0
1, 4736, Note_on_c, 0, 78, 80
1, 4744, Note_on_c, 0, 78, 0
1, 4744, Note_on_c, 0, 76, 80
1, 4752, Note_on_c, 0, 76, 0
1, 4752, Note_on_c, 0, 78, 80
1, 4760, Note_on_c, 0, 78, 0
1, 4760, Note_on_c, 0, 76, 80
1, 4768, Note_on_c, 0, 76, 0
1, 4768, Note_on_c, 0, 78, 80
1, 4776, Note_on_c, 0, 78, 0
1, 4776, Note_on_c, 0, 76, 80
1, 4784, Note_on_c, 0, 76, 0
1, 4784, Note_on_c, 0, 78, 80
1, 4792, Note_on_c, 0, 78, 0
1, 4792, Note_on_c, 0, 76, 80
1, 4798, Note_on_c, 1, 45, 0
1, 4798, Note_on_c, 1, 33, 0
1, 4800, Note_on_c, 0, 76, 0
1, 4800, Note_on_c, 0, 78, 80
1, 4800, Note_on_c, 1, 67, 64
1, 4800, Note_on_c, 1, 61, 64
1, 4800, Note_on_c, 1, 57, 64
1, 4808, Note_on_c, 0, 78, 0
1, 4808, Note_on_c, 0, 76, 80
1, 4816, Note_on_c, 0, 76, 0
1, 4816, Note_on_c, 0, 78, 80
1, 4824, Note_on_c, 0, 78, 0
1, 4824, Note_on_c, 0, 76, 80
1, 4832, Note_on_c, 0, 76, 0
1, 4832, Note_on_c, 0, 78, 80
1, 4840, Note_on_c, 0, 78, 0
1, 4840, Note_on_c, 0, 76, 80
1, 4848, Note_on_c, 0, 76, 0
1, 4848, Note_on_c, 0, 78, 80
1, 4856, Note_on_c, 0, 78, 0
1, 4856, Note_on_c, 0, 76, 80
1, 4864, Note_on_c, 0, 76, 0
1, 4864, Note_on_c, 0, 78, 80
1, 4872, Note_on_c, 0, 78, 0
1, 4872, Note_on_c, 0, 76, 80
1, 4880, Note_on_c, 0, 76, 0
1, 4880, Note_on_c, 0, 74, 80
1, 4888, Note_on_c, 0, 74, 0
1, 4888, Note_on_c, 0, 76, 80
1, 4894, Note_on_c, 1, 67, 0
1, 4894, Note_on_c, 1, 61, 0
1, 4894, Note_on_c, 1, 57, 0
1, 4896, Note_on_c, 0, 76, 0
1, 4896, Note_on_c, 0, 74, 80
1, 4896, Note_on_c, 1, 66, 64
1, 4896, Note_on_c, 1, 62, 64
1, 4943, Note_on_c, 1, 66, 0
1, 4943, Note_on_c, 1, 62, 0
1, 4985, Note_on_c, 0, 74, 0
1, 4992, Note_on_c, 1, 42, 70
1, 5004, Note_on_c, 0, 81, 80
1, 5016, Note_on_c, 0, 81, 0
1, 5016, Note_on_c, 0, 79, 79
1, 5028, Note_on_c, 0, 79, 0
1, 5028, Note_on_c, 0, 78, 79
1, 5039, Note_on_c, 1, 42, 0
1, 5040, Note_on_c, 0, 78, 0
1, 5040, Note_on_c, 0, 76, 79
1, 5052, Note_on_c, 0, 76, 0
1, 5052, Note_on_c, 0, 74, 78
1, 5064, Note_on_c, 0, 74, 0
1, 5064, Note_on_c, 0, 73, 78
1, 5076, Note_on_c, 0, 73, 0
1, 5076, Note_on_c, 0, 71, 78
1, 5088, Note_on_c, 0, 71, 0
1, 5088, Note_on_c, 0, 69, 77
1, 5100, Note_on_c, 0, 69, 0
1, 5100, Note_on_c, 0, 67, 77
1, 5112, Note_on_c, 0, 67, 0
1, 5112, Note_on_c, 0, 66, 77
1, 5124, Note_on_c, 0, 66, 0
1, 5124, Note_on_c, 0, 64, 76
1, 5136, Note_on_c, 0, 64, 0
1, 5136, Note_on_c, 0, 62, 76
1, 5148, Note_on_c, 0, 62, 0
1, 5148, Note_on_c, 0, 61, 76
1, 5160, Note_on_c, 0, 61, 0
1, 5160, Note_on_c, 0, 59, 75
1, 5172, Note_on_c, 0, 59, 0
1, 5172, Note_on_c, 0, 57, 75
1, 5184, Note_on_c, 0, 57, 0
1, 5184, Note_on_c, 1, 58, 91
1, 5280, Note_on_c, 1, 31, 64
1, 5303, Note_on_c, 1, 58, 0
1, 5304, Note_on_c, 1, 59, 75
1, 5325, Note_on_c, 1, 31, 0
1, 5327, Note_on_c, 1, 59, 0
1, 5328, Note_on_c, 1, 61, 75
1, 5351, Note_on_c, 1, 61, 0
1, 5352, Note_on_c, 1, 62, 75
1, 5375, Note_on_c, 1, 62, 0
1, 5376, Note_on_c, 1, 52, 75
1, 5376, Note_on_c, 1, 34, 64
1, 5399, Note_on_c, 1, 52, 0
1, 5400, Note_on_c, 1, 54, 75
1, 5421, Note_on_c, 1, 34, 0
1, 5423, Note_on_c, 1, 54, 0
1, 5424, Note_on_c, 1, 55, 75
1, 5447, Note_on_c, 1, 55, 0
1, 5448, Note_on_c, 1, 49, 75
1, 5471, Note_on_c, 1, 49, 0
1, 5472, Note_on_c, 1, 49, 91
1, 5544, Note_on_c, 1, 49, 0
1, 5544, Note_on_c, 1, 50, 75
1, 5567, Note_on_c, 1, 50, 0
1, 5568, Note_on_c, 1, 38, 64
1, 5657, Note_on_c, 1, 38, 0
1, 5760, Note_on_c, 0, 67, 64
1, 5760, Note_on_c, 1, 59, 64
1, 5760, Note_on_c, 1, 55, 64
1, 5827, Note_on_c, 0, 67, 0
1, 5832, Note_on_c, 0, 69, 64
1, 5840, Note_on_c, 0, 69, 0
1, 5840, Note_on_c, 0, 67, 64
1, 5848, Note_on_c, 0, 67, 0
1, 5848, Note_on_c, 0, 66, 64
1, 5856, Note_on_c, 0, 66, 0
1, 5856, Note_on_c, 0, 67, 64
1, 5876, Note_on_c, 0, 67, 0
1, 5904, Note_on_c, 0, 71, 64
1, 5924, Note_on_c, 0, 71, 0
1, 5952, Note_on_c, 0, 74, 64
1, 5972, Note_on_c, 0, 74, 0
1, 6000, Note_on_c, 0, 67, 64
1, 6020, Note_on_c, 0, 67, 0
1, 6025, Note_on_c, 1, 59, 0
1, 6025, Note_on_c, 1, 55, 0
1, 6048, Note_on_c, 0, 66, 80
1, 6048, Note_on_c, 1, 60, 64
1, 6048, Note_on_c, 1, 57, 64
1, 6048, Note_on_c, 1, 50, 64
1, 6120, Note_on_c, 0, 66, 0
1, 6120, Note_on_c, 0, 67, 64
1, 6128, Note_on_c, 0, 67, 0
1, 6128, Note_on_c, 0, 66, 64
1, 6136, Note_on_c, 0, 66, 0
1, 6136, Note_on_c, 0, 64, 64
1, 6144, Note_on_c, 0, 64, 0
1, 6144, Note_on_c, 0, 66, 64
1, 6156, Note_on_c, 0, 66, 0
1, 6156, Note_on_c, 0, 69, 64
1, 6168, Note_on_c, 0, 69, 0
1, 6168, Note_on_c, 0, 67, 64
1, 6180, Note_on_c, 0, 67, 0
1, 6180, Note_on_c, 0, 71, 64
1, 6192, Note_on_c, 0, 71, 0
1, 6192, Note_on_c, 0, 69, 64
1, 6204, Note_on_c, 0, 69, 0
1, 6204, Note_on_c, 0, 72, 64
1, 6216, Note_on_c, 0, 72, 0
1, 6216, Note_on_c, 0, 71, 64
1, 6228, Note_on_c, 0, 71, 0
1, 6228, Note_on_c, 0, 74, 64
1, 6240, Note_on_c, 0, 74, 0
1, 6240, Note_on_c, 0, 72, 64
1, 6260, Note_on_c, 0, 72, 0
1, 6285, Note_on_c, 1, 60, 0
1, 6285, Note_on_c, 1, 57, 0
1, 6285, Note_on_c, 1, 50, 0
1, 6336, Note_on_c, 0, 69, 64
1, 6336, Note_on_c, 1, 60, 64
1, 6336, Note_on_c, 1, 57, 64
1, 6336, Note_on_c, 1, 50, 64
1, 6403, Note_on_c, 0, 69, 0
1, 6408, Note_on_c, 0, 71, 64
1, 6416, Note_on_c, 0, 71, 0
1, 6416, Note_on_c, 0, 69, 64
1, 6424, Note_on_c, 0, 69, 0
1, 6424, Note_on_c, 0, 68, 64
1, 6432, Note_on_c, 0, 68, 0
1, 6432, Note_on_c, 0, 69, 75
1, 6442, Note_on_c, 0, 69, 0
1, 6456, Note_on_c, 0, 71, 76
1, 6466, Note_on_c, 0, 71, 0
1, 6480, Note_on_c, 0, 72, 77
1, 6490, Note_on_c, 0, 72, 0
1, 6504, Note_on_c, 0, 74, 78
1, 6514, Note_on_c, 0, 74, 0
1, 6528, Note_on_c, 0, 76, 80
1, 6538, Note_on_c, 0, 76, 0
1, 6552, Note_on_c, 0, 72, 78
1, 6575, Note_on_c, 0, 72, 0
1, 6576, Note_on_c, 0, 71, 77
1, 6599, Note_on_c, 0, 71, 0
1, 6600, Note_on_c, 0, 69, 76
1, 6601, Note_on_c, 1, 60, 0
1, 6601, Note_on_c, 1, 57, 0
1, 6601, Note_on_c, 1, 50, 0
1, 6623, Note_on_c, 0, 69, 0
1, 6624, Note_on_c, 0, 71, 75
1, 6624, Note_on_c, 1, 59, 64
1, 6624, Note_on_c, 1, 55, 64
1, 6691, Note_on_c, 0, 71, 0
1, 6696, Note_on_c, 0, 72, 75
1, 6704, Note_on_c, 0, 72, 0
1, 6704, Note_on_c, 0, 71, 75
1, 6712, Note_on_c, 0, 71, 0
1, 6712, Note_on_c, 0, 69, 75
1, 6718, Note_on_c, 1, 59, 0
1, 6718, Note_on_c, 1, 55, 0
1, 6720, Note_on_c, 0, 69, 0
1, 6720, Note_on_c, 0, 71, 75
1, 6720, Note_on_c, 1, 47, 64
1, 6720, Note_on_c, 1, 43, 64
1, 6732, Note_on_c, 0, 71, 0
1, 6732, Note_on_c, 0, 67, 75
1, 6744, Note_on_c, 0, 67, 0
1, 6744, Note_on_c, 0, 72, 75
1, 6756, Note_on_c, 0, 72, 0
1, 6756, Note_on_c, 0, 69, 75
1, 6768, Note_on_c, 0, 69, 0
1, 6768, Note_on_c, 0, 74, 75
1, 6780, Note_on_c, 0, 74, 0
1, 6780, Note_on_c, 0, 71, 75
1, 6792, Note_on_c, 0, 71, 0
1, 6792, Note_on_c, 0, 76, 75
1, 6804, Note_on_c, 0, 76, 0
1, 6804, Note_on_c, 0, 72, 75
1, 6814, Note_on_c, 1, 47, 0
1, 6814, Note_on_c, 1, 43, 0
1, 6816, Note_on_c, 0, 72, 0
1, 6816, Note_on_c, 0, 74, 75
1, 6836, Note_on_c, 0, 74, 0
1, 6912, Note_on_c, 0, 79, 75
1, 6912, Note_on_c, 1, 67, 64
1, 6912, Note_on_c, 1, 62, 64
1, 6912, Note_on_c, 1, 59, 64
1, 6979, Note_on_c, 0, 79, 0
1, 6984, Note_on_c, 0, 81, 75
1, 6992, Note_on_c, 0, 81, 0
1, 6992, Note_on_c, 0, 79, 75
1, 7000, Note_on_c, 0, 79, 0
1, 7000, Note_on_c, 0, 78, 75
1, 7008, Note_on_c, 0, 78, 0
1, 7008, Note_on_c, 0, 79, 75
1, 7018, Note_on_c, 0, 79, 0
1, 7032, Note_on_c, 0, 83, 76
1, 7042, Note_on_c, 0, 83, 0
1, 7056, Note_on_c, 0, 86, 77
1, 7066, Note_on_c, 0, 86, 0
1, 7080, Note_on_c, 0, 83, 78
1, 7090, Note_on_c, 0, 83, 0
1, 7104, Note_on_c, 0, 79, 80
1, 7114, Note_on_c, 0, 79, 0
1, 7128, Note_on_c, 0, 74, 78
1, 7151, Note_on_c, 0, 74, 0
1, 7152, Note_on_c, 0, 72, 77
1, 7175, Note_on_c, 0, 72, 0
1, 7176, Note_on_c, 0, 71, 76
1, 7177, Note_on_c, 1, 67, 0
1, 7177, Note_on_c, 1, 62, 0
1, 7177, Note_on_c, 1, 59, 0
1, 7199, Note_on_c, 0, 71, 0
1, 7200, Note_on_c, 0, 69, 75
1, 7200, Note_on_c, 1, 64, 64
1, 7200, Note_on_c, 1, 60, 64
1, 7267, Note_on_c, 0, 69, 0
1, 7272, Note_on_c, 0, 71, 75
1, 7280, Note_on_c, 0, 71, 0
1, 7280, Note_on_c, 0, 69, 75
1, 7288, Note_on_c, 0, 69, 0
1, 7288, Note_on_c, 0, 68, 75
1, 7289, Note_on_c, 1, 64, 0
1, 7289, Note_on_c, 1, 60, 0
1, 7296, Note_on_c, 0, 68, 0
1, 7296, Note_on_c, 0, 69, 75
1, 7296, Note_on_c, 1, 52, 64
1, 7296, Note_on_c, 1, 48, 64
1, 7319, Note_on_c, 0, 69, 0
1, 7320, Note_on_c, 0, 71, 75
1, 7343, Note_on_c, 0, 71, 0
1, 7344, Note_on_c, 0, 72, 76
1, 7367, Note_on_c, 0, 72, 0
1, 7368, Note_on_c, 0, 74, 76
1, 7390, Note_on_c, 1, 52, 0
1, 7390, Note_on_c, 1, 48, 0
1, 7391, Note_on_c, 0, 74, 0
1, 7392, Note_on_c, 0, 75, 77
1, 7416, Note_on_c, 0, 75, 0
1, 7416, Note_on_c, 0, 76, 78
1, 7439, Note_on_c, 0, 76, 0
1, 7440, Note_on_c, 0, 72, 78
1, 7463, Note_on_c, 0, 72, 0
1, 7464, Note_on_c, 0, 69, 79
1, 7487, Note_on_c, 0, 69, 0
1, 7488, Note_on_c, 0, 74, 80
1, 7488, Note_on_c, 1, 50, 80
1, 7584, Note_on_c, 1, 59, 70
1, 7584, Note_on_c, 1, 55, 70
1, 7665, Note_on_c, 1, 50, 0
1, 7680, Note_on_c, 1, 59, 0
1, 7680, Note_on_c, 1, 55, 0
1, 7680, Note_on_c, 1, 60, 64
1, 7680, Note_on_c, 1, 57, 64
1, 7695, Note_on_c, 0, 74, 0
1, 7696, Note_on_c, 0, 73, 77
1, 7711, Note_on_c, 0, 73, 0
1, 7712, Note_on_c, 0, 72, 74
1, 7725, Note_on_c, 1, 60, 0
1, 7725, Note_on_c, 1, 57, 0
1, 7727, Note_on_c, 0, 72, 0
1, 7728, Note_on_c, 0, 71, 71
1, 7743, Note_on_c, 0, 71, 0
1, 7744, Note_on_c, 0, 70, 69
1, 7759, Note_on_c, 0, 70, 0
1, 7760, Note_on_c, 0, 69, 66
1, 7775, Note_on_c, 0, 69, 0
1, 7776, Note_on_c, 0, 67, 58
1, 7776, Note_on_c, 1, 55, 64
1, 7815, Note_on_c, 1, 55, 0
1, 7865, Note_on_c, 0, 67, 0
1, 7872, Note_on_c, 1, 43, 64
1, 7961, Note_on_c, 1, 43, 0
1, 7968, Note_on_c, 1, 55, 75
1, 7980, Note_on_c, 1, 55, 0
1, 7980, Note_on_c, 1, 59, 75
1, 7992, Note_on_c, 1, 59, 0
1, 7992, Note_on_c, 1, 62, 75
1, 8004, Note_on_c, 1, 62, 0
1, 8004, Note_on_c, 1, 67, 75
1, 8016, Note_on_c, 0, 71, 75
1, 8016, Note_on_c, 1, 67, 0
1, 8028, Note_on_c, 0, 71, 0
1, 8028, Note_on_c, 0, 74, 75
1, 8040, Note_on_c, 0, 74, 0
1, 8040, Note_on_c, 0, 79, 75
1, 8052, Note_on_c, 0, 79, 0
1, 8052, Note_on_c, 0, 83, 75
1, 8064, Note_on_c, 0, 83, 0
1, 8064, Note_on_c, 0, 86, 91
1, 8160, Note_on_c, 1, 59, 64
1, 8160, Note_on_c, 1, 55, 64
1, 8183, Note_on_c, 0, 86, 0
1, 8184, Note_on_c, 0, 84, 75
1, 8196, Note_on_c, 0, 84, 0
1, 8196, Note_on_c, 0, 83, 75
1, 8207, Note_on_c, 1, 59, 0
1, 8207, Note_on_c, 1, 55, 0
1, 8208, Note_on_c, 0, 83, 0
1, 8208, Note_on_c, 0, 81, 75
1, 8220, Note_on_c, 0, 81, 0
1, 8220, Note_on_c, 0, 79, 75
1, 8232, Note_on_c, 0, 79, 0
1, 8232, Note_on_c, 0, 78, 76
1, 8244, Note_on_c, 0, 78, 0
1, 8244, Note_on_c, 0, 79, 77
1, 8256, Note_on_c, 0, 79, 0
1, 8256, Note_on_c, 0, 81, 77
1, 8256, Note_on_c, 1, 71, 64
1, 8256, Note_on_c, 1, 67, 64
1, 8268, Note_on_c, 0, 81, 0
1, 8268, Note_on_c, 0, 79, 78
1, 8280, Note_on_c, 0, 79, 0
1, 8280, Note_on_c, 0, 83, 79
1, 8292, Note_on_c, 0, 83, 0
1, 8292, Note_on_c, 0, 81, 80
1, 8303, Note_on_c, 1, 71, 0
1, 8303, Note_on_c, 1, 67, 0
1, 8304, Note_on_c, 0, 81, 0
1, 8304, Note_on_c, 0, 84, 79
1, 8316, Note_on_c, 0, 84, 0
1, 8316, Note_on_c, 0, 83, 79
1, 8328, Note_on_c, 0, 83, 0
1, 8328, Note_on_c, 0, 81, 78
1, 8340, Note_on_c, 0, 81, 0
1, 8340, Note_on_c, 0, 79, 78
1, 8352, Note_on_c, 0, 79, 0
1, 8352, Note_on_c, 0, 80, 93
1, 8424, Note_on_c, 0, 80, 0
1, 8424, Note_on_c, 0, 83, 75
1, 8447, Note_on_c, 0, 83, 0
1, 8448, Note_on_c, 0, 81, 75
1, 8448, Note_on_c, 1, 62, 64
1, 8448, Note_on_c, 1, 54, 64
1, 8493, Note_on_c, 0, 81, 0
1, 8495, Note_on_c, 1, 62, 0
1, 8495, Note_on_c, 1, 54, 0
1, 8544, Note_on_c, 1, 62, 64
1, 8544, Note_on_c, 1, 54, 64
1, 8556, Note_on_c, 0, 74, 75
1, 8568, Note_on_c, 0, 74, 0
1, 8568, Note_on_c, 0, 76, 75
1, 8580, Note_on_c, 0, 76, 0
1, 8580, Note_on_c, 0, 78, 75
1, 8591, Note_on_c, 1, 62, 0
1, 8591, Note_on_c, 1, 54, 0
1, 8592, Note_on_c, 0, 78, 0
1, 8592, Note_on_c, 0, 80, 75
1, 8604, Note_on_c, 0, 80, 0
1, 8604, Note_on_c, 0, 81, 75
1, 8616, Note_on_c, 0, 81, 0
1, 8616, Note_on_c, 0, 83, 75
1, 8628, Note_on_c, 0, 83, 0
1, 8628, Note_on_c, 0, 85, 75
1, 8640, Note_on_c, 0, 85, 0
1, 8640, Note_on_c, 0, 86, 91
1, 8736, Note_on_c, 1, 62, 64
1, 8736, Note_on_c, 1, 54, 64
1, 8748, Note_on_c, 0, 86, 0
1, 8748, Note_on_c, 0, 81, 75
1, 8760, Note_on_c, 0, 81, 0
1, 8760, Note_on_c, 0, 79, 75
1, 8772, Note_on_c, 0, 79, 0
1, 8772, Note_on_c, 0, 81, 75
1, 8783, Note_on_c, 1, 62, 0
1, 8783, Note_on_c, 1, 54, 0
1, 8784, Note_on_c, 0, 81, 0
1, 8784, Note_on_c, 0, 78, 75
1, 8796, Note_on_c, 0, 78, 0
1, 8796, Note_on_c, 0, 79, 75
1, 8808, Note_on_c, 0, 79, 0
1, 8808, Note_on_c, 0, 76, 75
1, 8820, Note_on_c, 0, 76, 0
1, 8820, Note_on_c, 0, 78, 75
1, 8832, Note_on_c, 0, 78, 0
1, 8832, Note_on_c, 0, 74, 75
1, 8832, Note_on_c, 1, 62, 64
1, 8832, Note_on_c, 1, 54, 64
1, 8844, Note_on_c, 0, 74, 0
1, 8844, Note_on_c, 0, 76, 75
1, 8856, Note_on_c, 0, 76, 0
1, 8856, Note_on_c, 0, 73, 75
1, 8868, Note_on_c, 0, 73, 0
1, 8868, Note_on_c, 0, 76, 75
1, 8879, Note_on_c, 1, 62, 0
1, 8879, Note_on_c, 1, 54, 0
1, 8880, Note_on_c, 0, 76, 0
1, 8880, Note_on_c, 0, 74, 75
1, 8903, Note_on_c, 0, 74, 0
1, 8916, Note_on_c, 0, 81, 75
1, 8928, Note_on_c, 0, 81, 0
1, 8928, Note_on_c, 0, 81, 75
1, 8973, Note_on_c, 0, 81, 0
1, 8976, Note_on_c, 0, 80, 74
1, 9015, Note_on_c, 0, 80, 0
1, 9024, Note_on_c, 1, 64, 64
1, 9024, Note_on_c, 1, 71, 64
1, 9072, Note_on_c, 0, 80, 72
1, 9111, Note_on_c, 0, 80, 0
1, 9118, Note_on_c, 1, 71, 0
1, 9120, Note_on_c, 1, 64, 0
1, 9120, Note_on_c, 1, 62, 64
1, 9120, Note_on_c, 1, 71, 64
1, 9168, Note_on_c, 0, 79, 70
1, 9214, Note_on_c, 1, 62, 0
1, 9214, Note_on_c, 1, 71, 0
1, 9216, Note_on_c, 1, 69, 64
1, 9216, Note_on_c, 1, 61, 64
1, 9228, Note_on_c, 0, 79, 0
1, 9228, Note_on_c, 0, 76, 70
1, 9240, Note_on_c, 0, 76, 0
1, 9240, Note_on_c, 0, 78, 70
1, 9252, Note_on_c, 0, 78, 0
1, 9252, Note_on_c, 0, 79, 71
1, 9264, Note_on_c, 0, 79, 0
1, 9264, Note_on_c, 0, 81, 71
1, 9276, Note_on_c, 0, 81, 0
1, 9276, Note_on_c, 0, 83, 72
1, 9288, Note_on_c, 0, 83, 0
1, 9288, Note_on_c, 0, 85, 73
1, 9300, Note_on_c, 0, 85, 0
1, 9300, Note_on_c, 0, 86, 73
1, 9312, Note_on_c, 0, 86, 0
1, 9312, Note_on_c, 0, 88, 74
1, 9324, Note_on_c, 0, 88, 0
1, 9324, Note_on_c, 0, 86, 75
1, 9336, Note_on_c, 0, 86, 0
1, 9336, Note_on_c, 0, 85, 75
1, 9348, Note_on_c, 0, 85, 0
1, 9348, Note_on_c, 0, 83, 75
1, 9360, Note_on_c, 0, 83, 0
1, 9360, Note_on_c, 0, 81, 75
1, 9372, Note_on_c, 0, 81, 0
1, 9372, Note_on_c, 0, 80, 75
1, 9384, Note_on_c, 0, 80, 0
1, 9384, Note_on_c, 0, 81, 75
1, 9396, Note_on_c, 0, 81, 0
1, 9396, Note_on_c, 0, 80, 75
1, 9408, Note_on_c, 0, 80, 0
1, 9408, Note_on_c, 0, 81, 75
1, 9420, Note_on_c, 0, 81, 0
1, 9420, Note_on_c, 0, 82, 75
1, 9432, Note_on_c, 0, 82, 0
1, 9432, Note_on_c, 0, 83, 75
1, 9444, Note_on_c, 0, 83, 0
1, 9444, Note_on_c, 0, 82, 75
1, 9456, Note_on_c, 0, 82, 0
1, 9456, Note_on_c, 0, 83, 75
1, 9468, Note_on_c, 0, 83, 0
1, 9468, Note_on_c, 0, 79, 75
1, 9480, Note_on_c, 0, 79, 0
1, 9480, Note_on_c, 0, 78, 75
1, 9492, Note_on_c, 0, 78, 0
1, 9492, Note_on_c, 0, 76, 75
1, 9496, Note_on_c, 1, 69, 0
1, 9496, Note_on_c, 1, 61, 0
1, 9504, Note_on_c, 0, 76, 0
1, 9504, Note_on_c, 0, 78, 75
1, 9504, Note_on_c, 1, 69, 64
1, 9504, Note_on_c, 1, 62, 64
1, 9516, Note_on_c, 0, 78, 0
1, 9516, Note_on_c, 0, 74, 75
1, 9528, Note_on_c, 0, 74, 0
1, 9528, Note_on_c, 0, 76, 75
1, 9540, Note_on_c, 0, 76, 0
1, 9540, Note_on_c, 0, 78, 75
1, 9552, Note_on_c, 0, 78, 0
1, 9552, Note_on_c, 0, 79, 75
1, 9564, Note_on_c, 0, 79, 0
1, 9564, Note_on_c, 0, 81, 76
1, 9576, Note_on_c, 0, 81, 0
1, 9576, Note_on_c, 0, 83, 77
1, 9588, Note_on_c, 0, 83, 0
1, 9588, Note_on_c, 0, 85, 78
1, 9598, Note_on_c, 1, 69, 0
1, 9598, Note_on_c, 1, 62, 0
1, 9600, Note_on_c, 0, 85, 0
1, 9600, Note_on_c, 0, 86, 79
1, 9612, Note_on_c, 0, 86, 0
1, 9612, Note_on_c, 0, 85, 80
1, 9624, Note_on_c, 0, 85, 0
1, 9624, Note_on_c, 0, 86, 80
1, 9636, Note_on_c, 0, 86, 0
1, 9636, Note_on_c, 0, 85, 80
1, 9648, Note_on_c, 0, 85, 0
1, 9648, Note_on_c, 0, 86, 80
1, 9660, Note_on_c, 0, 86, 0
1, 9660, Note_on_c, 0, 85, 80
1, 9672, Note_on_c, 0, 85, 0
1, 9672, Note_on_c, 0, 86, 80
1, 9684, Note_on_c, 0, 86, 0
1, 9684, Note_on_c, 0, 85, 80
1, 9696, Note_on_c, 0, 85, 0
1, 9696, Note_on_c, 0, 86, 80
1, 9696, Note_on_c, 1, 62, 64
1, 9696, Note_on_c, 1, 54, 64
1, 9708, Note_on_c, 0, 86, 0
1, 9708, Note_on_c, 0, 85, 79
1, 9720, Note_on_c, 0, 85, 0
1, 9720, Note_on_c, 0, 83, 78
1, 9732, Note_on_c, 0, 83, 0
1, 9732, Note_on_c, 0, 81, 78
1, 9744, Note_on_c, 0, 81, 0
1, 9744, Note_on_c, 0, 79, 77
1, 9756, Note_on_c, 0, 79, 0
1, 9756, Note_on_c, 0, 78, 76
1, 9768, Note_on_c, 0, 78, 0
1, 9768, Note_on_c, 0, 76, 76
1, 9780, Note_on_c, 0, 76, 0
1, 9780, Note_on_c, 0, 74, 75
1, 9790, Note_on_c, 1, 62, 0
1, 9790, Note_on_c, 1, 54, 0
1, 9792, Note_on_c, 0, 74, 0
1, 9792, Note_on_c, 0, 76, 75
1, 9792, Note_on_c, 1, 59, 64
1, 9792, Note_on_c, 1, 55, 64
1, 9804, Note_on_c, 0, 76, 0
1, 9804, Note_on_c, 0, 75, 75
1, 9816, Note_on_c, 0, 75, 0
1, 9816, Note_on_c, 0, 78, 76
1, 9828, Note_on_c, 0, 78, 0
1, 9828, Note_on_c, 0, 76, 76
1, 9840, Note_on_c, 0, 76, 0
1, 9840, Note_on_c, 0, 79, 77
1, 9852, Note_on_c, 0, 79, 0
1, 9852, Note_on_c, 0, 78, 78
1, 9864, Note_on_c, 0, 78, 0
1, 9864, Note_on_c, 0, 81, 78
1, 9876, Note_on_c, 0, 81, 0
1, 9876, Note_on_c, 0, 79, 79
1, 9886, Note_on_c, 1, 59, 0
1, 9886, Note_on_c, 1, 55, 0
1, 9888, Note_on_c, 0, 79, 0
1, 9888, Note_on_c, 0, 83, 80
1, 9900, Note_on_c, 0, 83, 0
1, 9900, Note_on_c, 0, 79, 80
1, 9912, Note_on_c, 0, 79, 0
1, 9912, Note_on_c, 0, 78, 80
1, 9924, Note_on_c, 0, 78, 0
1, 9924, Note_on_c, 0, 76, 80
1, 9936, Note_on_c, 0, 76, 0
1, 9936, Note_on_c, 0, 75, 80
1, 9948, Note_on_c, 0, 75, 0
1, 9948, Note_on_c, 0, 76, 80
1, 9960, Note_on_c, 0, 76, 0
1, 9960, Note_on_c, 0, 78, 80
1, 9972, Note_on_c, 0, 78, 0
1, 9972, Note_on_c, 0, 76, 80
1, 9984, Note_on_c, 0, 76, 0
1, 9984, Note_on_c, 0, 79, 80
1, 9996, Note_on_c, 0, 79, 0
1, 9996, Note_on_c, 0, 78, 80
1, 10008, Note_on_c, 0, 78, 0
1, 10008, Note_on_c, 0, 81, 80
1, 10020, Note_on_c, 0, 81, 0
1, 10020, Note_on_c, 0, 79, 79
1, 10032, Note_on_c, 0, 79, 0
1, 10032, Note_on_c, 0, 83, 78
1, 10044, Note_on_c, 0, 83, 0
1, 10044, Note_on_c, 0, 79, 77
1, 10056, Note_on_c, 0, 79, 0
1, 10056, Note_on_c, 0, 78, 76
1, 10068, Note_on_c, 0, 78, 0
1, 10068, Note_on_c, 0, 76, 75
1, 10080, Note_on_c, 0, 76, 0
1, 10080, Note_on_c, 0, 81, 75
1, 10080, Note_on_c, 1, 66, 64
1, 10080, Note_on_c, 1, 62, 64
1, 10080, Note_on_c, 1, 57, 64
1, 10092, Note_on_c, 0, 81, 0
1, 10092, Note_on_c, 0, 83, 75
1, 10104, Note_on_c, 0, 83, 0
1, 10104, Note_on_c, 0, 80, 75
1, 10116, Note_on_c, 0, 80, 0
1, 10116, Note_on_c, 0, 83, 75
1, 10128, Note_on_c, 0, 83, 0
1, 10128, Note_on_c, 0, 81, 75
1, 10140, Note_on_c, 0, 81, 0
1, 10140, Note_on_c, 0, 83, 75
1, 10152, Note_on_c, 0, 83, 0
1, 10152, Note_on_c, 0, 80, 75
1, 10164, Note_on_c, 0, 80, 0
1, 10164, Note_on_c, 0, 83, 75
1, 10176, Note_on_c, 0, 83, 0
1, 10176, Note_on_c, 0, 81, 75
1, 10188, Note_on_c, 0, 81, 0
1, 10188, Note_on_c, 0, 83, 75
1, 10200, Note_on_c, 0, 83, 0
1, 10200, Note_on_c, 0, 80, 75
1, 10212, Note_on_c, 0, 80, 0
1, 10212, Note_on_c, 0, 83, 75
1, 10224, Note_on_c, 0, 83, 0
1, 10224, Note_on_c, 0, 81, 75
1, 10236, Note_on_c, 0, 81, 0
1, 10236, Note_on_c, 0, 83, 75
1, 10248, Note_on_c, 0, 83, 0
1, 10248, Note_on_c, 0, 80, 75
1, 10260, Note_on_c, 0, 80, 0
1, 10260, Note_on_c, 0, 83, 75
1, 10267, Note_on_c, 1, 66, 0
1, 10267, Note_on_c, 1, 62, 0
1, 10267, Note_on_c, 1, 57, 0
1, 10272, Note_on_c, 0, 83, 0
1, 10272, Note_on_c, 0, 81, 75
1, 10282, Note_on_c, 0, 81, 0
1, 10296, Note_on_c, 0, 82, 76
1, 10306, Note_on_c, 0, 82, 0
1, 10320, Note_on_c, 0, 83, 78
1, 10330, Note_on_c, 0, 83, 0
1, 10344, Note_on_c, 0, 86, 80
1, 10354, Note_on_c, 0, 86, 0
1, 10368, Note_on_c, 0, 74, 80
1, 10386, Note_on_c, 0, 74, 0
1, 10386, Note_on_c, 0, 76, 80
1, 10395, Note_on_c, 0, 76, 0
1, 10395, Note_on_c, 0, 78, 80
1, 10404, Note_on_c, 0, 78, 0
1, 10404, Note_on_c, 0, 76, 80
1, 10413, Note_on_c, 0, 76, 0
1, 10413, Note_on_c, 0, 78, 80
1, 10422, Note_on_c, 0, 78, 0
1, 10422, Note_on_c, 0, 76, 80
1, 10431, Note_on_c, 0, 76, 0
1, 10431, Note_on_c, 0, 78, 80
1, 10440, Note_on_c, 0, 78, 0
1, 10440, Note_on_c, 0, 76, 80
1, 10448, Note_on_c, 0, 76, 0
1, 10448, Note_on_c, 0, 78, 80
1, 10456, Note_on_c, 0, 78, 0
1, 10456, Note_on_c, 0, 76, 80
1, 10464, Note_on_c, 0, 76, 0
1, 10464, Note_on_c, 0, 78, 80
1, 10464, Note_on_c, 1, 45, 75
1, 10464, Note_on_c, 1, 33, 75
1, 10472, Note_on_c, 0, 78, 0
1, 10472, Note_on_c, 0, 76, 80
1, 10480, Note_on_c, 0, 76, 0
1, 10480, Note_on_c, 0, 78, 80
1, 10488, Note_on_c, 0, 78, 0
1, 10488, Note_on_c, 0, 76, 80
1, 10496, Note_on_c, 0, 76, 0
1, 10496, Note_on_c, 0, 78, 80
1, 10504, Note_on_c, 0, 78, 0
1, 10504, Note_on_c, 0, 76, 80
1, 10512, Note_on_c, 0, 76, 0
1, 10512, Note_on_c, 0, 78, 80
1, 10520, Note_on_c, 0, 78, 0
1, 10520, Note_on_c, 0, 76, 80
1, 10528, Note_on_c, 0, 76, 0
1, 10528, Note_on_c, 0, 78, 80
1, 10536, Note_on_c, 0, 78, 0
1, 10536, Note_on_c, 0, 76, 80
1, 10544, Note_on_c, 0, 76, 0
1, 10544, Note_on_c, 0, 78, 80
1, 10552, Note_on_c, 0, 78, 0
1, 10552, Note_on_c, 0, 76, 80
1, 10558, Note_on_c, 1, 45, 0
1, 10558, Note_on_c, 1, 33, 0
1, 10560, Note_on_c, 0, 76, 0
1, 10560, Note_on_c, 0, 78, 80
1, 10560, Note_on_c, 1, 67, 64
1, 10560, Note_on_c, 1, 61, 64
1, 10560, Note_on_c, 1, 57, 64
1, 10568, Note_on_c, 0, 78, 0
1, 10568, Note_on_c, 0, 76, 80
1, 10576, Note_on_c, 0, 76, 0
1, 10576, Note_on_c, 0, 78, 80
1, 10584, Note_on_c, 0, 78, 0
1, 10584, Note_on_c, 0, 76, 80
1, 10592, Note_on_c, 0, 76, 0
1, 10592, Note_on_c, 0, 78, 80
1, 10600, Note_on_c, 0, 78, 0
1, 10600, Note_on_c, 0, 76, 80
1, 10608, Note_on_c, 0, 76, 0
1, 10608, Note_on_c, 0, 78, 80
1, 10616, Note_on_c, 0, 78, 0
1, 10616, Note_on_c, 0, 76, 80
1, 10624, Note_on_c, 0, 76, 0
1, 10624, Note_on_c, 0, 78, 80
1, 10632, Note_on_c, 0, 78, 0
1, 10632, Note_on_c, 0, 76, 80
1, 10640, Note_on_c, 0, 76, 0
1, 10640, Note_on_c, 0, 74, 80
1, 10648, Note_on_c, 0, 74, 0
1, 10648, Note_on_c, 0, 76, 80
1, 10654, Note_on_c, 1, 67, 0
1, 10654, Note_on_c, 1, 61, 0
1, 10654, Note_on_c, 1, 57, 0
1, 10656, Note_on_c, 0, 76, 0
1, 10656, Note_on_c, 0, 74, 80
1, 10656, Note_on_c, 1, 66, 64
1, 10656, Note_on_c, 1, 62, 64
1, 10703, Note_on_c, 1, 66, 0
1, 10703, Note_on_c, 1, 62, 0
1, 10745, Note_on_c, 0, 74, 0
1, 10752, Note_on_c, 1, 42, 70
1, 10764, Note_on_c, 0, 81, 80
1, 10776, Note_on_c, 0, 81, 0
1, 10776, Note_on_c, 0, 79, 79
1, 10788, Note_on_c, 0, 79, 0
1, 10788, Note_on_c, 0, 78, 79
1, 10799, Note_on_c, 1, 42, 0
1, 10800, Note_on_c, 0, 78, 0
1, 10800, Note_on_c, 0, 76, 79
1, 10812, Note_on_c, 0, 76, 0
1, 10812, Note_on_c, 0, 74, 78
1, 10824, Note_on_c, 0, 74, 0
1, 10824, Note_on_c, 0, 73, 78
1, 10836, Note_on_c, 0, 73, 0
1, 10836, Note_on_c, 0, 71, 78
1, 10848, Note_on_c, 0, 71, 0
1, 10848, Note_on_c, 0, 69, 77
1, 10860, Note_on_c, 0, 69, 0
1, 10860, Note_on_c, 0, 67, 77
1, 10872, Note_on_c, 0, 67, 0
1, 10872, Note_on_c, 0, 66, 77
1, 10884, Note_on_c, 0, 66, 0
1, 10884, Note_on_c, 0, 64, 76
1, 10896, Note_on_c, 0, 64, 0
1, 10896, Note_on_c, 0, 62, 76
1, 10908, Note_on_c, 0, 62, 0
1, 10908, Note_on_c, 0, 61, 76
1, 10920, Note_on_c, 0, 61, 0
1, 10920, Note_on_c, 0, 59, 75
1, 10932, Note_on_c, 0, 59, 0
1, 10932, Note_on_c, 0, 57, 75
1, 10944, Note_on_c, 0, 57, 0
1, 10944, Note_on_c, 1, 58, 91
1, 11040, Note_on_c, 1, 31, 64
1, 11063, Note_on_c, 1, 58, 0
1, 11064, Note_on_c, 1, 59, 75
1, 11085, Note_on_c, 1, 31, 0
1, 11087, Note_on_c, 1, 59, 0
1, 11088, Note_on_c, 1, 61, 75
1, 11111, Note_on_c, 1, 61, 0
1, 11112, Note_on_c, 1, 62, 75
1, 11135, Note_on_c, 1, 62, 0
1, 11136, Note_on_c, 1, 52, 75
1, 11136, Note_on_c, 1, 34, 64
1, 11159, Note_on_c, 1, 52, 0
1, 11160, Note_on_c, 1, 54, 75
1, 11181, Note_on_c, 1, 34, 0
1, 11183, Note_on_c, 1, 54, 0
1, 11184, Note_on_c, 1, 55, 75
1, 11207, Note_on_c, 1, 55, 0
1, 11208, Note_on_c, 1, 49, 75
1, 11231, Note_on_c, 1, 49, 0
1, 11232, Note_on_c, 1, 49, 91
1, 11304, Note_on_c, 1, 49, 0
1, 11304, Note_on_c, 1, 50, 75
1, 11327, Note_on_c, 1, 50, 0
1, 11328, Note_on_c, 1, 38, 64
1, 11417, Note_on_c, 1, 38, 0
1, 11520, Note_on_c, 0, 71, 75
1, 11520, Note_on_c, 1, 59, 75
1, 11520, Note_on_c, 1, 54, 75
1, 11520, Note_on_c, 1, 51, 75
1, 11587, Note_on_c, 0, 71, 0
1, 11592, Note_on_c, 0, 73, 75
1, 11600, Note_on_c, 0, 73, 0
1, 11600, Note_on_c, 0, 71, 75
1, 11608, Note_on_c, 0, 71, 0
1, 11608, Note_on_c, 0, 70, 75
1, 11616, Note_on_c, 0, 70, 0
1, 11616, Note_on_c, 0, 71, 75
1, 11636, Note_on_c, 0, 71, 0
1, 11664, Note_on_c, 0, 75, 75
1, 11684, Note_on_c, 0, 75, 0
1, 11712, Note_on_c, 0, 78, 75
1, 11732, Note_on_c, 0, 78, 0
1, 11760, Note_on_c, 0, 69, 75
1, 11760, Note_on_c, 0, 66, 75
1, 11785, Note_on_c, 1, 59, 0
1, 11785, Note_on_c, 1, 54, 0
1, 11785, Note_on_c, 1, 51, 0
1, 11805, Note_on_c, 0, 69, 0
1, 11805, Note_on_c, 0, 66, 0
1, 11808, Note_on_c, 0, 69, 75
1, 11808, Note_on_c, 0, 66, 64
1, 11808, Note_on_c, 1, 52, 64
1, 11853, Note_on_c, 0, 69, 0
1, 11853, Note_on_c, 0, 66, 0
1, 11856, Note_on_c, 0, 67, 72
1, 11856, Note_on_c, 0, 64, 64
1, 11856, Note_on_c, 1, 61, 70
1, 11856, Note_on_c, 1, 58, 70
1, 11863, Note_on_c, 0, 67, 0
1, 11863, Note_on_c, 0, 69, 72
1, 11870, Note_on_c, 0, 69, 0
1, 11870, Note_on_c, 0, 67, 71
1, 11877, Note_on_c, 0, 67, 0
1, 11877, Note_on_c, 0, 69, 71
1, 11884, Note_on_c, 0, 69, 0
1, 11884, Note_on_c, 0, 67, 71
1, 11891, Note_on_c, 0, 67, 0
1, 11891, Note_on_c, 0, 66, 70
1, 11897, Note_on_c, 1, 52, 0
1, 11898, Note_on_c, 0, 66, 0
1, 11898, Note_on_c, 0, 67, 70
1, 11901, Note_on_c, 0, 64, 0
1, 11901, Note_on_c, 1, 61, 0
1, 11901, Note_on_c, 1, 58, 0
1, 11904, Note_on_c, 0, 67, 0
1, 11904, Note_on_c, 0, 66, 70
1, 11904, Note_on_c, 0, 63, 64
1, 11904, Note_on_c, 1, 59, 70
1, 11904, Note_on_c, 1, 59, 64
1, 11949, Note_on_c, 0, 63, 0
1, 11949, Note_on_c, 1, 59, 0
1, 11971, Note_on_c, 0, 66, 0
1, 11971, Note_on_c, 1, 59, 0
1, 12096, Note_on_c, 0, 76, 75
1, 12096, Note_on_c, 1, 67, 75
1, 12096, Note_on_c, 1, 64, 75
1, 12163, Note_on_c, 0, 76, 0
1, 12168, Note_on_c, 0, 78, 75
1, 12176, Note_on_c, 0, 78, 0
1, 12176, Note_on_c, 0, 76, 75
1, 12184, Note_on_c, 0, 76, 0
1, 12184, Note_on_c, 0, 75, 75
1, 12192, Note_on_c, 0, 75, 0
1, 12192, Note_on_c, 0, 76, 75
1, 12212, Note_on_c, 0, 76, 0
1, 12240, Note_on_c, 0, 79, 75
1, 12260, Note_on_c, 0, 79, 0
1, 12288, Note_on_c, 0, 83, 75
1, 12308, Note_on_c, 0, 83, 0
1, 12336, Note_on_c, 0, 76, 75
1, 12356, Note_on_c, 0, 76, 0
1, 12361, Note_on_c, 1, 67, 0
1, 12361, Note_on_c, 1, 64, 0
1, 12384, Note_on_c, 0, 75, 75
1, 12384, Note_on_c, 1, 69, 75
1, 12384, Note_on_c, 1, 66, 75
1, 12384, Note_on_c, 1, 59, 75
1, 12396, Note_on_c, 0, 75, 0
1, 12396, Note_on_c, 0, 76, 75
1, 12408, Note_on_c, 0, 76, 0
1, 12408, Note_on_c, 0, 78, 76
1, 12420, Note_on_c, 0, 78, 0
1, 12420, Note_on_c, 0, 76, 76
1, 12432, Note_on_c, 0, 76, 0
1, 12432, Note_on_c, 0, 79, 77
1, 12444, Note_on_c, 0, 79, 0
1, 12444, Note_on_c, 0, 78, 77
1, 12456, Note_on_c, 0, 78, 0
1, 12456, Note_on_c, 0, 81, 78
1, 12468, Note_on_c, 0, 81, 0
1, 12468, Note_on_c, 0, 79, 78
1, 12480, Note_on_c, 0, 79, 0
1, 12480, Note_on_c, 0, 83, 79
1, 12492, Note_on_c, 0, 83, 0
1, 12492, Note_on_c, 0, 81, 79
1, 12504, Note_on_c, 0, 81, 0
1, 12504, Note_on_c, 0, 84, 80
1, 12516, Note_on_c, 0, 84, 0
1, 12516, Note_on_c, 0, 83, 79
1, 12528, Note_on_c, 0, 83, 0
1, 12528, Note_on_c, 0, 81, 78
1, 12540, Note_on_c, 0, 81, 0
1, 12540, Note_on_c, 0, 79, 77
1, 12552, Note_on_c, 0, 79, 0
1, 12552, Note_on_c, 0, 78, 76
1, 12564, Note_on_c, 0, 78, 0
1, 12564, Note_on_c, 0, 76, 75
1, 12576, Note_on_c, 0, 76, 0
1, 12576, Note_on_c, 0, 75, 75
1, 12596, Note_on_c, 0, 75, 0
1, 12621, Note_on_c, 1, 69, 0
1, 12621, Note_on_c, 1, 66, 0
1, 12621, Note_on_c, 1, 59, 0
1, 12672, Note_on_c, 1, 52, 75
1, 12684, Note_on_c, 1, 52, 0
1, 12684, Note_on_c, 1, 56, 75
1, 12696, Note_on_c, 1, 56, 0
1, 12696, Note_on_c, 1, 59, 75
1, 12708, Note_on_c, 1, 59, 0
1, 12708, Note_on_c, 1, 62, 75
1, 12720, Note_on_c, 0, 64, 75
1, 12720, Note_on_c, 1, 62, 0
1, 12732, Note_on_c, 0, 64, 0
1, 12732, Note_on_c, 0, 68, 75
1, 12744, Note_on_c, 0, 68, 0
1, 12744, Note_on_c, 0, 71, 75
1, 12756, Note_on_c, 0, 71, 0
1, 12756, Note_on_c, 0, 74, 75
1, 12768, Note_on_c, 0, 74, 0
1, 12768, Note_on_c, 1, 64, 75
1, 12780, Note_on_c, 1, 64, 0
1, 12780, Note_on_c, 1, 68, 75
1, 12792, Note_on_c, 1, 68, 0
1, 12792, Note_on_c, 1, 71, 75
1, 12804, Note_on_c, 1, 71, 0
1, 12804, Note_on_c, 1, 74, 75
1, 12816, Note_on_c, 0, 76, 75
1, 12816, Note_on_c, 1, 74, 0
1, 12828, Note_on_c, 0, 76, 0
1, 12828, Note_on_c, 0, 80, 75
1, 12840, Note_on_c, 0, 80, 0
1, 12840, Note_on_c, 0, 83, 75
1, 12852, Note_on_c, 0, 83, 0
1, 12852, Note_on_c, 0, 84, 75
1, 12864, Note_on_c, 0, 84, 0
1, 12864, Note_on_c, 0, 86, 75
1, 12876, Note_on_c, 0, 86, 0
1, 12876, Note_on_c, 0, 84, 75
1, 12888, Note_on_c, 0, 84, 0
1, 12888, Note_on_c, 0, 83, 75
1, 12900, Note_on_c, 0, 83, 0
1, 12900, Note_on_c, 0, 81, 75
1, 12912, Note_on_c, 0, 81, 0
1, 12912, Note_on_c, 0, 80, 75
1, 12924, Note_on_c, 0, 80, 0
1, 12924, Note_on_c, 1, 77, 75
1, 12936, Note_on_c, 1, 77, 0
1, 12936, Note_on_c, 1, 76, 75
1, 12948, Note_on_c, 1, 76, 0
1, 12948, Note_on_c, 1, 74, 75
1, 12960, Note_on_c, 1, 74, 0
1, 12960, Note_on_c, 1, 72, 75
1, 12972, Note_on_c, 0, 76, 75
1, 12972, Note_on_c, 1, 72, 0
1, 12984, Note_on_c, 0, 76, 0
1, 12984, Note_on_c, 0, 78, 75
1, 12996, Note_on_c, 0, 78, 0
1, 12996, Note_on_c, 0, 80, 75
1, 13008, Note_on_c, 0, 80, 0
1, 13008, Note_on_c, 0, 81, 76
1, 13020, Note_on_c, 0, 81, 0
1, 13020, Note_on_c, 0, 76, 76
1, 13032, Note_on_c, 0, 76, 0
1, 13032, Note_on_c, 0, 78, 77
1, 13044, Note_on_c, 0, 78, 0
1, 13044, Note_on_c, 0, 80, 77
1, 13056, Note_on_c, 0, 80, 0
1, 13056, Note_on_c, 0, 81, 78
1, 13068, Note_on_c, 0, 81, 0
1, 13068, Note_on_c, 0, 83, 78
1, 13080, Note_on_c, 0, 83, 0
1, 13080, Note_on_c, 0, 84, 79
1, 13092, Note_on_c, 0, 84, 0
1, 13092, Note_on_c, 0, 86, 79
1, 13104, Note_on_c, 0, 86, 0
1, 13104, Note_on_c, 0, 88, 80
1, 13116, Note_on_c, 0, 88, 0
1, 13116, Note_on_c, 0, 86, 79
1, 13128, Note_on_c, 0, 86, 0
1, 13128, Note_on_c, 0, 84, 79
1, 13140, Note_on_c, 0, 84, 0
1, 13140, Note_on_c, 0, 83, 78
1, 13152, Note_on_c, 0, 83, 0
1, 13152, Note_on_c, 0, 81, 78
1, 13164, Note_on_c, 0, 81, 0
1, 13164, Note_on_c, 0, 83, 77
1, 13176, Note_on_c, 0, 83, 0
1, 13176, Note_on_c, 0, 84, 77
1, 13188, Note_on_c, 0, 84, 0
1, 13188, Note_on_c, 0, 83, 77
1, 13200, Note_on_c, 0, 83, 0
1, 13200, Note_on_c, 0, 81, 76
1, 13212, Note_on_c, 0, 81, 0
1, 13212, Note_on_c, 0, 79, 76
1, 13224, Note_on_c, 0, 79, 0
1, 13224, Note_on_c, 0, 78, 75
1, 13236, Note_on_c, 0, 78, 0
1, 13236, Note_on_c, 0, 76, 75
1, 13248, Note_on_c, 0, 76, 0
1, 13248, Note_on_c, 0, 74, 75
1, 13260, Note_on_c, 0, 74, 0
1, 13260, Note_on_c, 1, 50, 75
1, 13272, Note_on_c, 1, 50, 0
1, 13272, Note_on_c, 1, 54, 75
1, 13284, Note_on_c, 1, 54, 0
1, 13284, Note_on_c, 1, 57, 75
1, 13296, Note_on_c, 1, 57, 0
1, 13296, Note_on_c, 1, 60, 75
1, 13308, Note_on_c, 1, 60, 0
1, 13308, Note_on_c, 1, 62, 75
1, 13320, Note_on_c, 1, 62, 0
1, 13320, Note_on_c, 1, 66, 75
1, 13332, Note_on_c, 1, 66, 0
1, 13332, Note_on_c, 1, 69, 75
1, 13344, Note_on_c, 1, 69, 0
1, 13344, Note_on_c, 1, 72, 75
1, 13356, Note_on_c, 0, 74, 75
1, 13356, Note_on_c, 1, 72, 0
1, 13368, Note_on_c, 0, 74, 0
1, 13368, Note_on_c, 0, 78, 75
1, 13380, Note_on_c, 0, 78, 0
1, 13380, Note_on_c, 0, 81, 75
1, 13392, Note_on_c, 0, 81, 0
1, 13392, Note_on_c, 0, 84, 75
1, 13404, Note_on_c, 0, 84, 0
1, 13404, Note_on_c, 0, 83, 75
1, 13416, Note_on_c, 0, 83, 0
1, 13416, Note_on_c, 0, 81, 75
1, 13428, Note_on_c, 0, 81, 0
1, 13428, Note_on_c, 0, 79, 75
1, 13440, Note_on_c, 0, 79, 0
1, 13440, Note_on_c, 0, 78, 75
1, 13452, Note_on_c, 0, 78, 0
1, 13452, Note_on_c, 0, 79, 75
1, 13464, Note_on_c, 0, 79, 0
1, 13464, Note_on_c, 0, 81, 75
1, 13476, Note_on_c, 0, 81, 0
1, 13476, Note_on_c, 0, 79, 75
1, 13488, Note_on_c, 0, 79, 0
1, 13488, Note_on_c, 0, 78, 75
1, 13500, Note_on_c, 0, 78, 0
1, 13500, Note_on_c, 0, 76, 75
1, 13512, Note_on_c, 0, 76, 0
1, 13512, Note_on_c, 0, 74, 75
1, 13524, Note_on_c, 0, 74, 0
1, 13524, Note_on_c, 0, 72, 75
1, 13536, Note_on_c, 0, 72, 0
1, 13536, Note_on_c, 0, 71, 75
1, 13548, Note_on_c, 0, 71, 0
1, 13548, Note_on_c, 1, 55, 75
1, 13560, Note_on_c, 1, 55, 0
1, 13560, Note_on_c, 1, 59, 75
1, 13572, Note_on_c, 1, 59, 0
1, 13572, Note_on_c, 1, 62, 75
1, 13584, Note_on_c, 1, 62, 0
1, 13584, Note_on_c, 1, 67, 75
1, 13596, Note_on_c, 0, 71, 75
1, 13596, Note_on_c, 1, 67, 0
1, 13608, Note_on_c, 0, 71, 0
1, 13608, Note_on_c, 0, 74, 75
1, 13620, Note_on_c, 0, 74, 0
1, 13620, Note_on_c, 0, 79, 75
1, 13632, Note_on_c, 0, 79, 0
1, 13632, Note_on_c, 0, 83, 75
1, 13644, Note_on_c, 0, 83, 0
1, 13644, Note_on_c, 0, 74, 75
1, 13656, Note_on_c, 0, 74, 0
1, 13656, Note_on_c, 0, 79, 75
1, 13668, Note_on_c, 0, 79, 0
1, 13668, Note_on_c, 0, 83, 75
1, 13680, Note_on_c, 0, 83, 0
1, 13680, Note_on_c, 0, 86, 75
1, 13692, Note_on_c, 0, 86, 0
1, 13692, Note_on_c, 0, 83, 75
1, 13704, Note_on_c, 0, 83, 0
1, 13704, Note_on_c, 0, 81, 75
1, 13716, Note_on_c, 0, 81, 0
1, 13716, Note_on_c, 0, 79, 75
1, 13728, Note_on_c, 0, 79, 0
1, 13728, Note_on_c, 0, 78, 75
1, 13740, Note_on_c, 0, 78, 0
1, 13740, Note_on_c, 0, 79, 75
1, 13752, Note_on_c, 0, 79, 0
1, 13752, Note_on_c, 0, 81, 75
1, 13764, Note_on_c, 0, 81, 0
1, 13764, Note_on_c, 0, 79, 75
1, 13776, Note_on_c, 0, 79, 0
1, 13776, Note_on_c, 0, 83, 75
1, 13788, Note_on_c, 0, 83, 0
1, 13788, Note_on_c, 1, 67, 75
1, 13800, Note_on_c, 1, 67, 0
1, 13800, Note_on_c, 1, 71, 75
1, 13812, Note_on_c, 1, 71, 0
1, 13812, Note_on_c, 1, 74, 75
1, 13824, Note_on_c, 1, 74, 0
1, 13824, Note_on_c, 1, 66, 75
1, 13836, Note_on_c, 0, 74, 75
1, 13836, Note_on_c, 1, 66, 0
1, 13848, Note_on_c, 0, 74, 0
1, 13848, Note_on_c, 0, 78, 75
1, 13860, Note_on_c, 0, 78, 0
1, 13860, Note_on_c, 0, 81, 75
1, 13872, Note_on_c, 0, 81, 0
1, 13872, Note_on_c, 0, 86, 75
1, 13884, Note_on_c, 0, 86, 0
1, 13884, Note_on_c, 0, 85, 75
1, 13896, Note_on_c, 0, 85, 0
1, 13896, Note_on_c, 0, 83, 75
1, 13908, Note_on_c, 0, 83, 0
1, 13908, Note_on_c, 0, 81, 75
1, 13920, Note_on_c, 0, 81, 0
1, 13920, Note_on_c, 0, 79, 75
1, 13932, Note_on_c, 0, 79, 0
1, 13932, Note_on_c, 0, 78, 75
1, 13944, Note_on_c, 0, 78, 0
1, 13944, Note_on_c, 0, 76, 75
1, 13956, Note_on_c, 0, 76, 0
1, 13956, Note_on_c, 0, 74, 75
1, 13968, Note_on_c, 0, 74, 0
1, 13968, Note_on_c, 0, 73, 75
1, 13980, Note_on_c, 0, 73, 0
1, 13980, Note_on_c, 0, 74, 75
1, 13992, Note_on_c, 0, 74, 0
1, 13992, Note_on_c, 0, 76, 75
1, 14004, Note_on_c, 0, 76, 0
1, 14004, Note_on_c, 0, 74, 75
1, 14016, Note_on_c, 0, 74, 0
1, 14016, Note_on_c, 0, 79, 75
1, 14016, Note_on_c, 1, 64, 75
1, 14028, Note_on_c, 0, 79, 0
1, 14028, Note_on_c, 0, 78, 75
1, 14040, Note_on_c, 0, 78, 0
1, 14040, Note_on_c, 0, 76, 75
1, 14052, Note_on_c, 0, 76, 0
1, 14052, Note_on_c, 0, 74, 75
1, 14061, Note_on_c, 1, 64, 0
1, 14064, Note_on_c, 0, 74, 0
1, 14064, Note_on_c, 0, 73, 75
1, 14076, Note_on_c, 0, 73, 0
1, 14076, Note_on_c, 0, 71, 75
1, 14088, Note_on_c, 0, 71, 0
1, 14088, Note_on_c, 0, 69, 75
1, 14100, Note_on_c, 0, 69, 0
1, 14100, Note_on_c, 0, 67, 75
1, 14112, Note_on_c, 0, 67, 0
1, 14112, Note_on_c, 0, 66, 75
1, 14112, Note_on_c, 1, 62, 75
1, 14124, Note_on_c, 0, 66, 0
1, 14124, Note_on_c, 0, 69, 75
1, 14136, Note_on_c, 0, 69, 0
1, 14136, Note_on_c, 0, 67, 75
1, 14148, Note_on_c, 0, 67, 0
1, 14148, Note_on_c, 0, 66, 75
1, 14157, Note_on_c, 1, 62, 0
1, 14160, Note_on_c, 0, 66, 0
1, 14160, Note_on_c, 0, 64, 75
1, 14172, Note_on_c, 0, 64, 0
1, 14172, Note_on_c, 0, 62, 75
1, 14184, Note_on_c, 0, 62, 0
1, 14184, Note_on_c, 0, 61, 75
1, 14196, Note_on_c, 0, 61, 0
1, 14196, Note_on_c, 0, 62, 75
1, 14208, Note_on_c, 0, 62, 0
1, 14208, Note_on_c, 0, 61, 75
1, 14220, Note_on_c, 0, 61, 0
1, 14220, Note_on_c, 0, 62, 75
1, 14232, Note_on_c, 0, 62, 0
1, 14232, Note_on_c, 0, 64, 75
1, 14244, Note_on_c, 0, 64, 0
1, 14244, Note_on_c, 0, 62, 75
1, 14256, Note_on_c, 0, 62, 0
1, 14256, Note_on_c, 0, 66, 75
1, 14268, Note_on_c, 0, 66, 0
1, 14268, Note_on_c, 0, 64, 75
1, 14280, Note_on_c, 0, 64, 0
1, 14280, Note_on_c, 0, 67, 75
1, 14292, Note_on_c, 0, 67, 0
1, 14292, Note_on_c, 0, 66, 75
1, 14304, Note_on_c, 0, 66, 0
1, 14304, Note_on_c, 0, 69, 91
1, 14519, Note_on_c, 0, 69, 0
1, 14520, Note_on_c, 0, 67, 75
1, 14543, Note_on_c, 0, 67, 0
1, 14544, Note_on_c, 0, 71, 75
1, 14578, Note_on_c, 0, 71, 0
1, 14580, Note_on_c, 0, 61, 75
1, 14592, Note_on_c, 0, 61, 0
1, 14592, Note_on_c, 0, 61, 75
1, 14711, Note_on_c, 0, 61, 0
1, 14712, Note_on_c, 0, 64, 75
1, 14746, Note_on_c, 0, 64, 0
1, 14748, Note_on_c, 0, 62, 75
1, 14760, Note_on_c, 0, 62, 0
1, 14760, Note_on_c, 1, 38, 75
1, 14893, Note_on_c, 1, 38, 0
1, 14976, Note_on_c, 0, 67, 75
1, 14976, Note_on_c, 1, 59, 75
1, 14976, Note_on_c, 1, 55, 75
1, 15043, Note_on_c, 0, 67, 0
1, 15048, Note_on_c, 0, 69, 75
1, 15056, Note_on_c, 0, 69, 0
1, 15056, Note_on_c, 0, 67, 75
1, 15064, Note_on_c, 0, 67, 0
1, 15064, Note_on_c, 0, 66, 75
1, 15072, Note_on_c, 0, 66, 0
1, 15072, Note_on_c, 0, 67, 75
1, 15092, Note_on_c, 0, 67, 0
1, 15120, Note_on_c, 0, 71, 75
1, 15140, Note_on_c, 0, 71, 0
1, 15168, Note_on_c, 0, 74, 75
1, 15188, Note_on_c, 0, 74, 0
1, 15216, Note_on_c, 0, 67, 75
1, 15236, Note_on_c, 0, 67, 0
1, 15241, Note_on_c, 1, 59, 0
1, 15241, Note_on_c, 1, 55, 0
1, 15264, Note_on_c, 0, 66, 91
1, 15264, Note_on_c, 1, 60, 75
1, 15264, Note_on_c, 1, 57, 75
1, 15264, Note_on_c, 1, 50, 75
1, 15336, Note_on_c, 0, 66, 0
1, 15336, Note_on_c, 0, 67, 75
1, 15344, Note_on_c, 0, 67, 0
1, 15344, Note_on_c, 0, 66, 75
1, 15352, Note_on_c, 0, 66, 0
1, 15352, Note_on_c, 0, 64, 75
1, 15360, Note_on_c, 0, 64, 0
1, 15360, Note_on_c, 0, 66, 75
1, 15375, Note_on_c, 0, 66, 0
1, 15376, Note_on_c, 0, 67, 75
1, 15391, Note_on_c, 0, 67, 0
1, 15392, Note_on_c, 0, 68, 75
1, 15407, Note_on_c, 0, 68, 0
1, 15408, Note_on_c, 0, 69, 75
1, 15423, Note_on_c, 0, 69, 0
1, 15424, Note_on_c, 0, 70, 75
1, 15439, Note_on_c, 0, 70, 0
1, 15440, Note_on_c, 0, 71, 75
1, 15455, Note_on_c, 0, 71, 0
1, 15456, Note_on_c, 0, 72, 75
1, 15476, Note_on_c, 0, 72, 0
1, 15501, Note_on_c, 1, 60, 0
1, 15501, Note_on_c, 1, 57, 0
1, 15501, Note_on_c, 1, 50, 0
1, 15552, Note_on_c, 0, 69, 75
1, 15552, Note_on_c, 1, 60, 75
1, 15552, Note_on_c, 1, 57, 75
1, 15552, Note_on_c, 1, 50, 75
1, 15619, Note_on_c, 0, 69, 0
1, 15624, Note_on_c, 0, 71, 75
1, 15632, Note_on_c, 0, 71, 0
1, 15632, Note_on_c, 0, 69, 75
1, 15640, Note_on_c, 0, 69, 0
1, 15640, Note_on_c, 0, 68, 75
1, 15648, Note_on_c, 0, 68, 0
1, 15648, Note_on_c, 0, 69, 75
1, 15658, Note_on_c, 0, 69, 0
1, 15672, Note_on_c, 0, 71, 76
1, 15682, Note_on_c, 0, 71, 0
1, 15696, Note_on_c, 0, 72, 77
1, 15706, Note_on_c, 0, 72, 0
1, 15720, Note_on_c, 0, 74, 78
1, 15730, Note_on_c, 0, 74, 0
1, 15744, Note_on_c, 0, 75, 80
1, 15768, Note_on_c, 0, 75, 0
1, 15768, Note_on_c, 0, 76, 78
1, 15791, Note_on_c, 0, 76, 0
1, 15792, Note_on_c, 0, 72, 77
1, 15815, Note_on_c, 0, 72, 0
1, 15816, Note_on_c, 0, 69, 76
1, 15817, Note_on_c, 1, 60, 0
1, 15817, Note_on_c, 1, 57, 0
1, 15817, Note_on_c, 1, 50, 0
1, 15839, Note_on_c, 0, 69, 0
1, 15840, Note_on_c, 0, 71, 75
1, 15840, Note_on_c, 0, 67, 75
1, 15840, Note_on_c, 1, 59, 64
1, 15840, Note_on_c, 1, 55, 64
1, 15907, Note_on_c, 0, 71, 0
1, 15907, Note_on_c, 0, 67, 0
1, 15912, Note_on_c, 0, 72, 75
1, 15920, Note_on_c, 0, 72, 0
1, 15920, Note_on_c, 0, 71, 75
1, 15928, Note_on_c, 0, 71, 0
1, 15928, Note_on_c, 0, 69, 75
1, 15934, Note_on_c, 1, 59, 0
1, 15934, Note_on_c, 1, 55, 0
1, 15936, Note_on_c, 0, 69, 0
1, 15936, Note_on_c, 0, 71, 75
1, 15936, Note_on_c, 1, 47, 64
1, 15936, Note_on_c, 1, 43, 64
1, 15948, Note_on_c, 0, 71, 0
1, 15948, Note_on_c, 0, 67, 75
1, 15960, Note_on_c, 0, 67, 0
1, 15960, Note_on_c, 0, 72, 75
1, 15972, Note_on_c, 0, 72, 0
1, 15972, Note_on_c, 0, 69, 75
1, 15984, Note_on_c, 0, 69, 0
1, 15984, Note_on_c, 0, 74, 75
1, 15996, Note_on_c, 0, 74, 0
1, 15996, Note_on_c, 0, 71, 75
1, 16008, Note_on_c, 0, 71, 0
1, 16008, Note_on_c, 0, 76, 75
1, 16020, Note_on_c, 0, 76, 0
1, 16020, Note_on_c, 0, 72, 75
1, 16030, Note_on_c, 1, 47, 0
1, 16030, Note_on_c, 1, 43, 0
1, 16032, Note_on_c, 0, 72, 0
1, 16032, Note_on_c, 0, 74, 75
1, 16052, Note_on_c, 0, 74, 0
1, 16128, Note_on_c, 0, 79, 75
1, 16128, Note_on_c, 1, 67, 75
1, 16128, Note_on_c, 1, 62, 75
1, 16128, Note_on_c, 1, 59, 75
1, 16195, Note_on_c, 0, 79, 0
1, 16200, Note_on_c, 0, 81, 75
1, 16208, Note_on_c, 0, 81, 0
1, 16208, Note_on_c, 0, 79, 75
1, 16216, Note_on_c, 0, 79, 0
1, 16216, Note_on_c, 0, 78, 75
1, 16224, Note_on_c, 0, 78, 0
1, 16224, Note_on_c, 0, 79, 75
1, 16234, Note_on_c, 0, 79, 0
1, 16248, Note_on_c, 0, 83, 76
1, 16258, Note_on_c, 0, 83, 0
1, 16272, Note_on_c, 0, 86, 77
1, 16282, Note_on_c, 0, 86, 0
1, 16296, Note_on_c, 0, 83, 78
1, 16306, Note_on_c, 0, 83, 0
1, 16320, Note_on_c, 0, 79, 80
1, 16330, Note_on_c, 0, 79, 0
1, 16344, Note_on_c, 0, 74, 78
1, 16367, Note_on_c, 0, 74, 0
1, 16368, Note_on_c, 0, 72, 77
1, 16391, Note_on_c, 0, 72, 0
1, 16392, Note_on_c, 0, 71, 76
1, 16393, Note_on_c, 1, 67, 0
1, 16393, Note_on_c, 1, 62, 0
1, 16393, Note_on_c, 1, 59, 0
1, 16415, Note_on_c, 0, 71, 0
1, 16416, Note_on_c, 0, 69, 75
1, 16416, Note_on_c, 1, 64, 75
1, 16416, Note_on_c, 1, 60, 75
1, 16483, Note_on_c, 0, 69, 0
1, 16488, Note_on_c, 0, 71, 75
1, 16496, Note_on_c, 0, 71, 0
1, 16496, Note_on_c, 0, 69, 75
1, 16504, Note_on_c, 0, 69, 0
1, 16504, Note_on_c, 0, 67, 75
1, 16512, Note_on_c, 0, 67, 0
1, 16512, Note_on_c, 0, 69, 75
1, 16522, Note_on_c, 0, 69, 0
1, 16536, Note_on_c, 0, 71, 76
1, 16546, Note_on_c, 0, 71, 0
1, 16560, Note_on_c, 0, 72, 77
1, 16570, Note_on_c, 0, 72, 0
1, 16584, Note_on_c, 0, 74, 78
1, 16594, Note_on_c, 0, 74, 0
1, 16608, Note_on_c, 0, 76, 80
1, 16608, Note_on_c, 1, 64, 0
1, 16618, Note_on_c, 0, 76, 0
1, 16632, Note_on_c, 0, 72, 78
1, 16655, Note_on_c, 0, 72, 0
1, 16655, Note_on_c, 1, 60, 0
1, 16656, Note_on_c, 0, 69, 77
1, 16656, Note_on_c, 1, 61, 75
1, 16679, Note_on_c, 0, 69, 0
1, 16680, Note_on_c, 0, 67, 76
1, 16701, Note_on_c, 1, 61, 0
1, 16703, Note_on_c, 0, 67, 0
1, 16704, Note_on_c, 0, 66, 75
1, 16704, Note_on_c, 1, 62, 75
1, 16716, Note_on_c, 0, 66, 0
1, 16716, Note_on_c, 0, 64, 75
1, 16728, Note_on_c, 0, 64, 0
1, 16728, Note_on_c, 0, 62, 75
1, 16740, Note_on_c, 0, 62, 0
1, 16740, Note_on_c, 0, 61, 75
1, 16749, Note_on_c, 1, 62, 0
1, 16752, Note_on_c, 0, 61, 0
1, 16752, Note_on_c, 0, 62, 75
1, 16764, Note_on_c, 0, 62, 0
1, 16764, Note_on_c, 0, 64, 75
1, 16776, Note_on_c, 0, 64, 0
1, 16776, Note_on_c, 0, 66, 76
1, 16788, Note_on_c, 0, 66, 0
1, 16788, Note_on_c, 0, 67, 76
1, 16800, Note_on_c, 0, 67, 0
1, 16800, Note_on_c, 0, 69, 76
1, 16812, Note_on_c, 0, 69, 0
1, 16812, Note_on_c, 0, 67, 77
1, 16824, Note_on_c, 0, 67, 0
1, 16824, Note_on_c, 0, 66, 77
1, 16836, Note_on_c, 0, 66, 0
1, 16836, Note_on_c, 0, 64, 78
1, 16848, Note_on_c, 0, 64, 0
1, 16848, Note_on_c, 0, 66, 78
1, 16860, Note_on_c, 0, 66, 0
1, 16860, Note_on_c, 0, 67, 78
1, 16872, Note_on_c, 0, 67, 0
1, 16872, Note_on_c, 0, 69, 79
1, 16884, Note_on_c, 0, 69, 0
1, 16884, Note_on_c, 0, 71, 79
1, 16896, Note_on_c, 0, 71, 0
1, 16896, Note_on_c, 0, 72, 80
1, 16896, Note_on_c, 1, 62, 70
1, 16896, Note_on_c, 1, 54, 70
1, 16908, Note_on_c, 0, 72, 0
1, 16908, Note_on_c, 0, 69, 79
1, 16920, Note_on_c, 0, 69, 0
1, 16920, Note_on_c, 0, 74, 78
1, 16932, Note_on_c, 0, 74, 0
1, 16932, Note_on_c, 0, 71, 77
1, 16941, Note_on_c, 1, 62, 0
1, 16941, Note_on_c, 1, 54, 0
1, 16944, Note_on_c, 0, 71, 0
1, 16944, Note_on_c, 0, 76, 77
1, 16956, Note_on_c, 0, 76, 0
1, 16956, Note_on_c, 0, 72, 76
1, 16968, Note_on_c, 0, 72, 0
1, 16968, Note_on_c, 0, 71, 75
1, 16980, Note_on_c, 0, 71, 0
1, 16980, Note_on_c, 0, 69, 75
1, 16992, Note_on_c, 0, 69, 0
1, 16992, Note_on_c, 0, 71, 75
1, 16992, Note_on_c, 1, 62, 64
1, 16992, Note_on_c, 1, 55, 64
1, 17004, Note_on_c, 0, 71, 0
1, 17004, Note_on_c, 0, 67, 75
1, 17016, Note_on_c, 0, 67, 0
1, 17016, Note_on_c, 0, 69, 75
1, 17028, Note_on_c, 0, 69, 0
1, 17028, Note_on_c, 0, 71, 76
1, 17040, Note_on_c, 0, 71, 0
1, 17040, Note_on_c, 0, 72, 77
1, 17052, Note_on_c, 0, 72, 0
1, 17052, Note_on_c, 0, 74, 77
1, 17064, Note_on_c, 0, 74, 0
1, 17064, Note_on_c, 0, 76, 78
1, 17076, Note_on_c, 0, 76, 0
1, 17076, Note_on_c, 0, 78, 79
1, 17081, Note_on_c, 1, 62, 0
1, 17081, Note_on_c, 1, 55, 0
1, 17088, Note_on_c, 0, 78, 0
1, 17088, Note_on_c, 0, 79, 80
1, 17100, Note_on_c, 0, 79, 0
1, 17100, Note_on_c, 0, 78, 80
1, 17112, Note_on_c, 0, 78, 0
1, 17112, Note_on_c, 0, 79, 80
1, 17124, Note_on_c, 0, 79, 0
1, 17124, Note_on_c, 0, 78, 80
1, 17136, Note_on_c, 0, 78, 0
1, 17136, Note_on_c, 0, 79, 80
1, 17148, Note_on_c, 0, 79, 0
1, 17148, Note_on_c, 0, 78, 80
1, 17160, Note_on_c, 0, 78, 0
1, 17160, Note_on_c, 0, 79, 80
1, 17172, Note_on_c, 0, 79, 0
1, 17172, Note_on_c, 0, 78, 80
1, 17184, Note_on_c, 0, 78, 0
1, 17184, Note_on_c, 0, 79, 80
1, 17184, Note_on_c, 1, 55, 70
1, 17184, Note_on_c, 1, 47, 70
1, 17196, Note_on_c, 0, 79, 0
1, 17196, Note_on_c, 0, 78, 79
1, 17208, Note_on_c, 0, 78, 0
1, 17208, Note_on_c, 0, 76, 78
1, 17220, Note_on_c, 0, 76, 0
1, 17220, Note_on_c, 0, 74, 78
1, 17232, Note_on_c, 0, 74, 0
1, 17232, Note_on_c, 0, 72, 77
1, 17244, Note_on_c, 0, 72, 0
1, 17244, Note_on_c, 0, 71, 76
1, 17256, Note_on_c, 0, 71, 0
1, 17256, Note_on_c, 0, 69, 76
1, 17268, Note_on_c, 0, 69, 0
1, 17268, Note_on_c, 0, 67, 75
1, 17273, Note_on_c, 1, 55, 0
1, 17273, Note_on_c, 1, 47, 0
1, 17280, Note_on_c, 0, 67, 0
1, 17280, Note_on_c, 0, 69, 75
1, 17280, Note_on_c, 1, 52, 70
1, 17280, Note_on_c, 1, 48, 70
1, 17292, Note_on_c, 0, 69, 0
1, 17292, Note_on_c, 0, 68, 75
1, 17304, Note_on_c, 0, 68, 0
1, 17304, Note_on_c, 0, 71, 75
1, 17316, Note_on_c, 0, 71, 0
1, 17316, Note_on_c, 0, 69, 76
1, 17328, Note_on_c, 0, 69, 0
1, 17328, Note_on_c, 0, 72, 77
1, 17340, Note_on_c, 0, 72, 0
1, 17340, Note_on_c, 0, 71, 77
1, 17352, Note_on_c, 0, 71, 0
1, 17352, Note_on_c, 0, 74, 78
1, 17364, Note_on_c, 0, 74, 0
1, 17364, Note_on_c, 0, 72, 79
1, 17369, Note_on_c, 1, 52, 0
1, 17369, Note_on_c, 1, 48, 0
1, 17376, Note_on_c, 0, 72, 0
1, 17376, Note_on_c, 0, 76, 80
1, 17388, Note_on_c, 0, 76, 0
1, 17388, Note_on_c, 0, 72, 80
1, 17400, Note_on_c, 0, 72, 0
1, 17400, Note_on_c, 0, 71, 80
1, 17412, Note_on_c, 0, 71, 0
1, 17412, Note_on_c, 0, 69, 80
1, 17424, Note_on_c, 0, 69, 0
1, 17424, Note_on_c, 0, 68, 80
1, 17436, Note_on_c, 0, 68, 0
1, 17436, Note_on_c, 0, 69, 80
1, 17448, Note_on_c, 0, 69, 0
1, 17448, Note_on_c, 0, 71, 80
1, 17460, Note_on_c, 0, 71, 0
1, 17460, Note_on_c, 0, 69, 80
1, 17472, Note_on_c, 0, 69, 0
1, 17472, Note_on_c, 0, 72, 80
1, 17484, Note_on_c, 0, 72, 0
1, 17484, Note_on_c, 0, 71, 80
1, 17496, Note_on_c, 0, 71, 0
1, 17496, Note_on_c, 0, 74, 80
1, 17508, Note_on_c, 0, 74, 0
1, 17508, Note_on_c, 0, 72, 79
1, 17520, Note_on_c, 0, 72, 0
1, 17520, Note_on_c, 0, 76, 78
1, 17532, Note_on_c, 0, 76, 0
1, 17532, Note_on_c, 0, 72, 77
1, 17544, Note_on_c, 0, 72, 0
1, 17544, Note_on_c, 0, 71, 76
1, 17556, Note_on_c, 0, 71, 0
1, 17556, Note_on_c, 0, 69, 75
1, 17568, Note_on_c, 0, 69, 0
1, 17568, Note_on_c, 0, 74, 75
1, 17568, Note_on_c, 1, 59, 75
1, 17568, Note_on_c, 1, 55, 75
1, 17568, Note_on_c, 1, 50, 75
1, 17580, Note_on_c, 0, 74, 0
1, 17580, Note_on_c, 0, 76, 75
1, 17592, Note_on_c, 0, 76, 0
1, 17592, Note_on_c, 0, 73, 75
1, 17604, Note_on_c, 0, 73, 0
1, 17604, Note_on_c, 0, 76, 75
1, 17616, Note_on_c, 0, 76, 0
1, 17616, Note_on_c, 0, 74, 76
1, 17628, Note_on_c, 0, 74, 0
1, 17628, Note_on_c, 0, 76, 76
1, 17640, Note_on_c, 0, 76, 0
1, 17640, Note_on_c, 0, 73, 76
1, 17652, Note_on_c, 0, 73, 0
1, 17652, Note_on_c, 0, 76, 77
1, 17657, Note_on_c, 1, 59, 0
1, 17657, Note_on_c, 1, 55, 0
1, 17657, Note_on_c, 1, 50, 0
1, 17664, Note_on_c, 0, 76, 0
1, 17664, Note_on_c, 0, 74, 77
1, 17676, Note_on_c, 0, 74, 0
1, 17676, Note_on_c, 0, 79, 77
1, 17688, Note_on_c, 0, 79, 0
1, 17688, Note_on_c, 0, 78, 78
1, 17700, Note_on_c, 0, 78, 0
1, 17700, Note_on_c, 0, 81, 78
1, 17712, Note_on_c, 0, 81, 0
1, 17712, Note_on_c, 0, 79, 78
1, 17724, Note_on_c, 0, 79, 0
1, 17724, Note_on_c, 0, 81, 79
1, 17736, Note_on_c, 0, 81, 0
1, 17736, Note_on_c, 0, 78, 79
1, 17748, Note_on_c, 0, 78, 0
1, 17748, Note_on_c, 0, 81, 79
1, 17760, Note_on_c, 0, 81, 0
1, 17760, Note_on_c, 0, 79, 80
1, 17772, Note_on_c, 0, 79, 0
1, 17772, Note_on_c, 0, 83, 80
1, 17784, Note_on_c, 0, 83, 0
1, 17784, Note_on_c, 0, 81, 80
1, 17796, Note_on_c, 0, 81, 0
1, 17796, Note_on_c, 0, 84, 80
1, 17808, Note_on_c, 0, 84, 0
1, 17808, Note_on_c, 0, 83, 80
1, 17820, Note_on_c, 0, 83, 0
1, 17820, Note_on_c, 0, 86, 80
1, 17832, Note_on_c, 0, 86, 0
1, 17832, Note_on_c, 0, 78, 80
1, 17844, Note_on_c, 0, 78, 0
1, 17844, Note_on_c, 0, 81, 80
1, 17856, Note_on_c, 0, 81, 0
1, 17856, Note_on_c, 0, 79, 80
1, 17868, Note_on_c, 0, 79, 0
1, 17868, Note_on_c, 0, 83, 79
1, 17880, Note_on_c, 0, 83, 0
1, 17880, Note_on_c, 0, 75, 79
1, 17892, Note_on_c, 0, 75, 0
1, 17892, Note_on_c, 0, 78, 79
1, 17904, Note_on_c, 0, 78, 0
1, 17904, Note_on_c, 0, 76, 79
1, 17916, Note_on_c, 0, 76, 0
1, 17916, Note_on_c, 0, 79, 78
1, 17928, Note_on_c, 0, 79, 0
1, 17928, Note_on_c, 0, 71, 78
1, 17940, Note_on_c, 0, 71, 0
1, 17940, Note_on_c, 0, 74, 78
1, 17952, Note_on_c, 0, 74, 0
1, 17952, Note_on_c, 0, 72, 78
1, 17964, Note_on_c, 0, 72, 0
1, 17964, Note_on_c, 0, 76, 77
1, 17976, Note_on_c, 0, 76, 0
1, 17976, Note_on_c, 0, 69, 77
1, 17988, Note_on_c, 0, 69, 0
1, 17988, Note_on_c, 0, 72, 77
1, 18000, Note_on_c, 0, 72, 0
1, 18000, Note_on_c, 0, 71, 77
1, 18012, Note_on_c, 0, 71, 0
1, 18012, Note_on_c, 0, 74, 77
1, 18024, Note_on_c, 0, 74, 0
1, 18024, Note_on_c, 0, 67, 76
1, 18036, Note_on_c, 0, 67, 0
1, 18036, Note_on_c, 0, 71, 76
1, 18048, Note_on_c, 0, 71, 0
1, 18048, Note_on_c, 0, 69, 76
1, 18060, Note_on_c, 0, 69, 0
1, 18060, Note_on_c, 0, 72, 76
1, 18072, Note_on_c, 0, 72, 0
1, 18072, Note_on_c, 0, 66, 75
1, 18084, Note_on_c, 0, 66, 0
1, 18084, Note_on_c, 0, 69, 75
1, 18096, Note_on_c, 0, 69, 0
1, 18096, Note_on_c, 0, 67, 75
1, 18108, Note_on_c, 0, 67, 0
1, 18108, Note_on_c, 0, 71, 75
1, 18120, Note_on_c, 0, 71, 0
1, 18120, Note_on_c, 0, 59, 75
1, 18120, Note_on_c, 1, 47, 75
1, 18132, Note_on_c, 0, 59, 0
1, 18132, Note_on_c, 0, 71, 75
1, 18143, Note_on_c, 1, 47, 0
1, 18144, Note_on_c, 0, 71, 0
1, 18144, Note_on_c, 0, 60, 75
1, 18144, Note_on_c, 1, 48, 75
1, 18156, Note_on_c, 0, 60, 0
1, 18156, Note_on_c, 0, 71, 75
1, 18167, Note_on_c, 1, 48, 0
1, 18168, Note_on_c, 0, 71, 0
1, 18168, Note_on_c, 0, 61, 75
1, 18168, Note_on_c, 1, 49, 75
1, 18180, Note_on_c, 0, 61, 0
1, 18180, Note_on_c, 0, 71, 76
1, 18191, Note_on_c, 1, 49, 0
1, 18192, Note_on_c, 0, 71, 0
1, 18192, Note_on_c, 0, 62, 76
1, 18192, Note_on_c, 1, 50, 75
1, 18204, Note_on_c, 0, 62, 0
1, 18204, Note_on_c, 0, 71, 77
1, 18215, Note_on_c, 1, 50, 0
1, 18216, Note_on_c, 0, 71, 0
1, 18216, Note_on_c, 0, 63, 77
1, 18216, Note_on_c, 1, 51, 75
1, 18228, Note_on_c, 0, 63, 0
1, 18228, Note_on_c, 0, 71, 77
1, 18239, Note_on_c, 1, 51, 0
1, 18240, Note_on_c, 0, 71, 0
1, 18240, Note_on_c, 0, 64, 78
1, 18240, Note_on_c, 1, 52, 75
1, 18252, Note_on_c, 0, 64, 0
1, 18252, Note_on_c, 0, 71, 78
1, 18263, Note_on_c, 1, 52, 0
1, 18264, Note_on_c, 0, 71, 0
1, 18264, Note_on_c, 0, 66, 79
1, 18264, Note_on_c, 1, 54, 75
1, 18276, Note_on_c, 0, 66, 0
1, 18276, Note_on_c, 0, 71, 79
1, 18287, Note_on_c, 1, 54, 0
1, 18288, Note_on_c, 0, 71, 0
1, 18288, Note_on_c, 0, 67, 80
1, 18288, Note_on_c, 1, 55, 75
1, 18300, Note_on_c, 0, 67, 0
1, 18300, Note_on_c, 0, 71, 79
1, 18311, Note_on_c, 1, 55, 0
1, 18312, Note_on_c, 0, 71, 0
1, 18312, Note_on_c, 0, 66, 79
1, 18312, Note_on_c, 1, 54, 75
1, 18324, Note_on_c, 0, 66, 0
1, 18324, Note_on_c, 0, 71, 78
1, 18335, Note_on_c, 1, 54, 0
1, 18336, Note_on_c, 0, 71, 0
1, 18336, Note_on_c, 0, 64, 78
1, 18336, Note_on_c, 1, 52, 75
1, 18348, Note_on_c, 0, 64, 0
1, 18348, Note_on_c, 0, 71, 77
1, 18359, Note_on_c, 1, 52, 0
1, 18360, Note_on_c, 0, 71, 0
1, 18360, Note_on_c, 0, 62, 77
1, 18360, Note_on_c, 1, 50, 75
1, 18372, Note_on_c, 0, 62, 0
1, 18372, Note_on_c, 0, 71, 77
1, 18383, Note_on_c, 1, 50, 0
1, 18384, Note_on_c, 0, 71, 0
1, 18384, Note_on_c, 0, 60, 76
1, 18384, Note_on_c, 1, 48, 75
1, 18396, Note_on_c, 0, 60, 0
1, 18396, Note_on_c, 0, 71, 76
1, 18407, Note_on_c, 1, 48, 0
1, 18408, Note_on_c, 0, 71, 0
1, 18408, Note_on_c, 0, 61, 75
1, 18408, Note_on_c, 1, 49, 75
1, 18420, Note_on_c, 0, 61, 0
1, 18420, Note_on_c, 0, 71, 75
1, 18431, Note_on_c, 1, 49, 0
1, 18432, Note_on_c, 0, 71, 0
1, 18432, Note_on_c, 1, 50, 75
1, 18444, Note_on_c, 1, 50, 0
1, 18444, Note_on_c, 1, 55, 75
1, 18456, Note_on_c, 1, 55, 0
1, 18456, Note_on_c, 1, 59, 75
1, 18468, Note_on_c, 0, 62, 75
1, 18468, Note_on_c, 1, 59, 0
1, 18480, Note_on_c, 0, 62, 0
1, 18480, Note_on_c, 0, 67, 75
1, 18488, Note_on_c, 0, 67, 0
1, 18488, Note_on_c, 0, 71, 75
1, 18496, Note_on_c, 0, 71, 0
1, 18496, Note_on_c, 0, 74, 75
1, 18504, Note_on_c, 0, 74, 0
1, 18504, Note_on_c, 0, 71, 75
1, 18512, Note_on_c, 0, 71, 0
1, 18512, Note_on_c, 0, 67, 75
1, 18520, Note_on_c, 0, 67, 0
1, 18520, Note_on_c, 0, 62, 75
1, 18528, Note_on_c, 0, 62, 0
1, 18528, Note_on_c, 0, 79, 75
1, 18528, Note_on_c, 1, 38, 75
1, 18544, Note_on_c, 0, 79, 0
1, 18544, Note_on_c, 0, 83, 75
1, 18552, Note_on_c, 0, 83, 0
1, 18552, Note_on_c, 0, 81, 75
1, 18560, Note_on_c, 0, 81, 0
1, 18560, Note_on_c, 0, 83, 75
1, 18568, Note_on_c, 0, 83, 0
1, 18568, Note_on_c, 0, 81, 75
1, 18573, Note_on_c, 1, 38, 0
1, 18576, Note_on_c, 0, 81, 0
1, 18576, Note_on_c, 0, 83, 75
1, 18584, Note_on_c, 0, 83, 0
1, 18584, Note_on_c, 0, 81, 75
1, 18592, Note_on_c, 0, 81, 0
1, 18592, Note_on_c, 0, 83, 75
1, 18600, Note_on_c, 0, 83, 0
1, 18600, Note_on_c, 0, 81, 75
1, 18608, Note_on_c, 0, 81, 0
1, 18608, Note_on_c, 0, 83, 75
1, 18616, Note_on_c, 0, 83, 0
1, 18616, Note_on_c, 0, 81, 75
1, 18624, Note_on_c, 0, 81, 0
1, 18624, Note_on_c, 0, 83, 75
1, 18624, Note_on_c, 1, 72, 70
1, 18624, Note_on_c, 1, 66, 70
1, 18624, Note_on_c, 1, 62, 70
1, 18632, Note_on_c, 0, 83, 0
1, 18632, Note_on_c, 0, 81, 75
1, 18640, Note_on_c, 0, 81, 0
1, 18640, Note_on_c, 0, 83, 75
1, 18648, Note_on_c, 0, 83, 0
1, 18648, Note_on_c, 0, 81, 75
1, 18656, Note_on_c, 0, 81, 0
1, 18656, Note_on_c, 0, 83, 75
1, 18664, Note_on_c, 0, 83, 0
1, 18664, Note_on_c, 0, 81, 75
1, 18672, Note_on_c, 0, 81, 0
1, 18672, Note_on_c, 0, 83, 75
1, 18680, Note_on_c, 0, 83, 0
1, 18680, Note_on_c, 0, 81, 75
1, 18688, Note_on_c, 0, 81, 0
1, 18688, Note_on_c, 0, 83, 75
1, 18696, Note_on_c, 0, 83, 0
1, 18696, Note_on_c, 0, 81, 75
1, 18704, Note_on_c, 0, 81, 0
1, 18704, Note_on_c, 0, 79, 75
1, 18712, Note_on_c, 0, 79, 0
1, 18712, Note_on_c, 0, 81, 75
1, 18713, Note_on_c, 1, 72, 0
1, 18713, Note_on_c, 1, 66, 0
1, 18713, Note_on_c, 1, 62, 0
1, 18720, Note_on_c, 0, 81, 0
1, 18720, Note_on_c, 0, 79, 75
1, 18720, Note_on_c, 1, 71, 64
1, 18720, Note_on_c, 1, 67, 64
1, 18720, Note_on_c, 1, 64, 64
1, 18765, Note_on_c, 0, 79, 0
1, 18767, Note_on_c, 1, 71, 0
1, 18767, Note_on_c, 1, 67, 0
1, 18767, Note_on_c, 1, 64, 0
1, 18816, Note_on_c, 0, 72, 80
1, 18816, Note_on_c, 1, 64, 80
1, 18816, Note_on_c, 1, 52, 80
1, 18822, Note_on_c, 0, 76, 80
1, 18828, Note_on_c, 0, 79, 80
1, 18834, Note_on_c, 0, 84, 80
1, 18861, Note_on_c, 0, 84, 0
1, 18861, Note_on_c, 0, 79, 0
1, 18861, Note_on_c, 0, 76, 0
1, 18861, Note_on_c, 0, 72, 0
1, 18861, Note_on_c, 1, 64, 0
1, 18861, Note_on_c, 1, 52, 0
1, 18984, Note_on_c, 0, 72, 80
1, 18984, Note_on_c, 0, 67, 80
1, 18984, Note_on_c, 1, 64, 80
1, 18984, Note_on_c, 1, 52, 80
1, 19007, Note_on_c, 0, 72, 0
1, 19007, Note_on_c, 0, 67, 0
1, 19007, Note_on_c, 1, 64, 0
1, 19007, Note_on_c, 1, 52, 0
1, 19008, Note_on_c, 0, 71, 80
1, 19008, Note_on_c, 0, 66, 80
1, 19008, Note_on_c, 1, 63, 80
1, 19008, Note_on_c, 1, 51, 80
1, 19053, Note_on_c, 0, 71, 0
1, 19053, Note_on_c, 0, 66, 0
1, 19053, Note_on_c, 1, 63, 0
1, 19053, Note_on_c, 1, 51, 0
1, 19104, Note_on_c, 0, 71, 80
1, 19104, Note_on_c, 1, 51, 80
1, 19104, Note_on_c, 1, 54, 80
1, 19104, Note_on_c, 1, 59, 80
1, 19110, Note_on_c, 0, 75, 80
1, 19116, Note_on_c, 0, 78, 80
1, 19122, Note_on_c, 0, 83, 80
1, 19175, Note_on_c, 0, 83, 0
1, 19175, Note_on_c, 0, 78, 0
1, 19175, Note_on_c, 0, 75, 0
1, 19175, Note_on_c, 0, 71, 0
1, 19175, Note_on_c, 1, 59, 0
1, 19175, Note_on_c, 1, 54, 0
1, 19175, Note_on_c, 1, 51, 0
1, 19272, Note_on_c, 0, 69, 64
1, 19272, Note_on_c, 0, 66, 64
1, 19295, Note_on_c, 0, 69, 0
1, 19295, Note_on_c, 0, 66, 0
1, 19296, Note_on_c, 0, 69, 80
1, 19296, Note_on_c, 0, 66, 80
1, 19392, Note_on_c, 1, 52, 64
1, 19481, Note_on_c, 1, 52, 0
1, 19488, Note_on_c, 0, 69, 0
1, 19488, Note_on_c, 0, 66, 0
1, 19488, Note_on_c, 0, 69, 64
1, 19488, Note_on_c, 0, 66, 64
1, 19488, Note_on_c, 1, 46, 64
1, 19511, Note_on_c, 0, 69, 0
1, 19511, Note_on_c, 0, 66, 0
1, 19512, Note_on_c, 0, 67, 64
1, 19512, Note_on_c, 0, 64, 64
1, 19535, Note_on_c, 0, 67, 0
1, 19535, Note_on_c, 0, 64, 0
1, 19536, Note_on_c, 0, 66, 64
1, 19536, Note_on_c, 0, 63, 64
1, 19559, Note_on_c, 0, 66, 0
1, 19559, Note_on_c, 0, 63, 0
1, 19560, Note_on_c, 0, 67, 64
1, 19560, Note_on_c, 0, 64, 64
1, 19577, Note_on_c, 1, 46, 0
1, 19583, Note_on_c, 0, 67, 0
1, 19583, Note_on_c, 0, 64, 0
1, 19584, Note_on_c, 0, 66, 64
1, 19584, Note_on_c, 0, 63, 64
1, 19584, Note_on_c, 1, 47, 64
1, 19629, Note_on_c, 0, 66, 0
1, 19629, Note_on_c, 0, 63, 0
1, 19629, Note_on_c, 1, 47, 0
1, 19680, Note_on_c, 0, 59, 64
1, 19680, Note_on_c, 0, 51, 64
1, 19680, Note_on_c, 1, 47, 64
1, 19680, Note_on_c, 1, 35, 64
1, 19725, Note_on_c, 0, 59, 0
1, 19725, Note_on_c, 0, 51, 0
1, 19725, Note_on_c, 1, 47, 0
1, 19725, Note_on_c, 1, 35, 0
1, 19776, Note_on_c, 0, 59, 61
1, 19776, Note_on_c, 0, 51, 61
1, 19776, Note_on_c, 1, 47, 61
1, 19776, Note_on_c, 1, 35, 61
1, 19821, Note_on_c, 0, 59, 0
1, 19821, Note_on_c, 0, 51, 0
1, 19821, Note_on_c, 1, 47, 0
1, 19821, Note_on_c, 1, 35, 0
1, 19872, Note_on_c, 0, 59, 58
1, 19872, Note_on_c, 0, 51, 58
1, 19872, Note_on_c, 1, 47, 58
1, 19872, Note_on_c, 1, 35, 58
1, 19961, Note_on_c, 0, 59, 0
1, 19961, Note_on_c, 0, 51, 0
1, 19961, Note_on_c, 1, 47, 0
1, 19961, Note_on_c, 1, 35, 0
1, 20064, Tempo, 300000
1, 20208, Tempo, 480000
1, 20208, Note_on_c, 0, 67, 75
1, 20253, Note_on_c, 0, 67, 0
1, 20256, Note_on_c, 0, 67, 75
1, 20256, Note_on_c, 1, 52, 70
1, 20279, Note_on_c, 1, 52, 0
1, 20280, Note_on_c, 1, 59, 70
1, 20303, Note_on_c, 1, 59, 0
1, 20304, Note_on_c, 1, 55, 70
1, 20323, Note_on_c, 0, 67, 0
1, 20327, Note_on_c, 1, 55, 0
1, 20328, Note_on_c, 0, 69, 75
1, 20328, Note_on_c, 1, 59, 70
1, 20351, Note_on_c, 0, 69, 0
1, 20351, Note_on_c, 1, 59, 0
1, 20352, Note_on_c, 0, 71, 75
1, 20352, Note_on_c, 1, 52, 70
1, 20375, Note_on_c, 1, 52, 0
1, 20376, Note_on_c, 1, 59, 70
1, 20397, Note_on_c, 0, 71, 0
1, 20399, Note_on_c, 1, 59, 0
1, 20400, Note_on_c, 0, 76, 75
1, 20400, Note_on_c, 1, 55, 70
1, 20420, Note_on_c, 0, 76, 0
1, 20423, Note_on_c, 1, 55, 0
1, 20424, Note_on_c, 1, 59, 70
1, 20447, Note_on_c, 1, 59, 0
1, 20448, Note_on_c, 0, 75, 75
1, 20448, Note_on_c, 1, 54, 70
1, 20471, Note_on_c, 1, 54, 0
1, 20472, Note_on_c, 1, 59, 70
1, 20495, Note_on_c, 1, 59, 0
1, 20496, Note_on_c, 0, 75, 0
1, 20496, Note_on_c, 0, 78, 75
1, 20496, Note_on_c, 1, 57, 70
1, 20519, Note_on_c, 1, 57, 0
1, 20520, Note_on_c, 1, 59, 70
1, 20541, Note_on_c, 0, 78, 0
1, 20543, Note_on_c, 1, 59, 0
1, 20544, Note_on_c, 1, 54, 70
1, 20567, Note_on_c, 1, 54, 0
1, 20568, Note_on_c, 1, 59, 70
1, 20591, Note_on_c, 1, 59, 0
1, 20592, Note_on_c, 0, 71, 75
1, 20592, Note_on_c, 1, 57, 70
1, 20615, Note_on_c, 1, 57, 0
1, 20616, Note_on_c, 1, 59, 70
1, 20639, Note_on_c, 1, 59, 0
1, 20640, Note_on_c, 0, 71, 0
1, 20640, Note_on_c, 0, 76, 75
1, 20640, Note_on_c, 1, 52, 70
1, 20660, Note_on_c, 0, 76, 0
1, 20663, Note_on_c, 1, 52, 0
1, 20664, Note_on_c, 1, 59, 70
1, 20687, Note_on_c, 1, 59, 0
1, 20688, Note_on_c, 0, 76, 75
1, 20688, Note_on_c, 1, 55, 70
1, 20711, Note_on_c, 1, 55, 0
1, 20712, Note_on_c, 1, 59, 70
1, 20735, Note_on_c, 1, 59, 0
1, 20736, Note_on_c, 0, 76, 0
1, 20736, Note_on_c, 0, 78, 76
1, 20736, Note_on_c, 1, 51, 70
1, 20759, Note_on_c, 1, 51, 0
1, 20760, Note_on_c, 1, 59, 70
1, 20781, Note_on_c, 0, 78, 0
1, 20783, Note_on_c, 1, 59, 0
1, 20784, Note_on_c, 0, 78, 78
1, 20784, Note_on_c, 1, 54, 70
1, 20804, Note_on_c, 0, 78, 0
1, 20807, Note_on_c, 1, 54, 0
1, 20808, Note_on_c, 1, 59, 70
1, 20831, Note_on_c, 1, 59, 0
1, 20832, Note_on_c, 0, 81, 80
1, 20832, Note_on_c, 1, 52, 70
1, 20855, Note_on_c, 1, 52, 0
1, 20856, Note_on_c, 1, 59, 70
1, 20877, Note_on_c, 0, 81, 0
1, 20879, Note_on_c, 1, 59, 0
1, 20880, Note_on_c, 0, 79, 78
1, 20880, Note_on_c, 1, 55, 70
1, 20892, Note_on_c, 0, 79, 0
1, 20892, Note_on_c, 0, 81, 78
1, 20903, Note_on_c, 1, 55, 0
1, 20904, Note_on_c, 0, 81, 0
1, 20904, Note_on_c, 0, 79, 78
1, 20904, Note_on_c, 1, 59, 70
1, 20916, Note_on_c, 0, 79, 0
1, 20916, Note_on_c, 0, 81, 78
1, 20925, Note_on_c, 0, 81, 0
1, 20927, Note_on_c, 1, 59, 0
1, 20928, Note_on_c, 0, 78, 76
1, 20928, Note_on_c, 1, 47, 70
1, 20951, Note_on_c, 1, 47, 0
1, 20952, Note_on_c, 1, 59, 70
1, 20973, Note_on_c, 0, 78, 0
1, 20975, Note_on_c, 1, 59, 0
1, 20976, Note_on_c, 0, 78, 75
1, 20976, Note_on_c, 1, 51, 70
1, 20999, Note_on_c, 1, 51, 0
1, 21000, Note_on_c, 1, 59, 70
1, 21021, Note_on_c, 0, 78, 0
1, 21023, Note_on_c, 1, 59, 0
1, 21024, Note_on_c, 0, 79, 75
1, 21024, Note_on_c, 1, 52, 70
1, 21047, Note_on_c, 1, 52, 0
1, 21048, Note_on_c, 1, 59, 70
1, 21071, Note_on_c, 1, 59, 0
1, 21072, Note_on_c, 1, 55, 70
1, 21091, Note_on_c, 0, 79, 0
1, 21095, Note_on_c, 1, 55, 0
1, 21096, Note_on_c, 0, 81, 76
1, 21096, Note_on_c, 1, 59, 70
1, 21119, Note_on_c, 0, 81, 0
1, 21119, Note_on_c, 1, 59, 0
1, 21120, Note_on_c, 0, 83, 77
1, 21120, Note_on_c, 1, 52, 70
1, 21143, Note_on_c, 1, 52, 0
1, 21144, Note_on_c, 1, 59, 70
1, 21165, Note_on_c, 0, 83, 0
1, 21167, Note_on_c, 1, 59, 0
1, 21168, Note_on_c, 0, 83, 78
1, 21168, Note_on_c, 1, 55, 70
1, 21188, Note_on_c, 0, 83, 0
1, 21191, Note_on_c, 1, 55, 0
1, 21192, Note_on_c, 1, 59, 70
1, 21215, Note_on_c, 1, 59, 0
1, 21216, Note_on_c, 0, 81, 80
1, 21216, Note_on_c, 1, 48, 70
1, 21239, Note_on_c, 1, 48, 0
1, 21240, Note_on_c, 1, 57, 70
1, 21263, Note_on_c, 1, 57, 0
1, 21264, Note_on_c, 0, 81, 0
1, 21264, Note_on_c, 0, 84, 80
1, 21264, Note_on_c, 1, 52, 70
1, 21287, Note_on_c, 1, 52, 0
1, 21288, Note_on_c, 1, 57, 70
1, 21309, Note_on_c, 0, 84, 0
1, 21311, Note_on_c, 1, 57, 0
1, 21312, Note_on_c, 1, 48, 70
1, 21335, Note_on_c, 1, 48, 0
1, 21336, Note_on_c, 1, 57, 70
1, 21359, Note_on_c, 1, 57, 0
1, 21360, Note_on_c, 0, 81, 80
1, 21360, Note_on_c, 1, 52, 70
1, 21383, Note_on_c, 1, 52, 0
1, 21384, Note_on_c, 1, 57, 70
1, 21407, Note_on_c, 1, 57, 0
1, 21408, Note_on_c, 0, 81, 0
1, 21408, Note_on_c, 0, 78, 80
1, 21408, Note_on_c, 1, 50, 70
1, 21431, Note_on_c, 1, 50, 0
1, 21432, Note_on_c, 1, 60, 70
1, 21453, Note_on_c, 0, 78, 0
1, 21455, Note_on_c, 1, 60, 0
1, 21456, Note_on_c, 0, 78, 80
1, 21456, Note_on_c, 1, 57, 70
1, 21476, Note_on_c, 0, 78, 0
1, 21479, Note_on_c, 1, 57, 0
1, 21480, Note_on_c, 1, 60, 70
1, 21503, Note_on_c, 1, 60, 0
1, 21504, Note_on_c, 0, 79, 80
1, 21504, Note_on_c, 1, 50, 70
1, 21527, Note_on_c, 0, 79, 0
1, 21527, Note_on_c, 1, 50, 0
1, 21528, Note_on_c, 0, 78, 80
1, 21528, Note_on_c, 1, 60, 70
1, 21551, Note_on_c, 0, 78, 0
1, 21551, Note_on_c, 1, 60, 0
1, 21552, Note_on_c, 0, 76, 80
1, 21552, Note_on_c, 1, 57, 70
1, 21575, Note_on_c, 0, 76, 0
1, 21575, Note_on_c, 1, 57, 0
1, 21576, Note_on_c, 0, 74, 80
1, 21576, Note_on_c, 1, 60, 70
1, 21599, Note_on_c, 0, 74, 0
1, 21599, Note_on_c, 1, 60, 0
1, 21600, Note_on_c, 0, 79, 80
1, 21600, Note_on_c, 1, 59, 70
1, 21600, Note_on_c, 1, 55, 70
1, 21689, Note_on_c, 0, 79, 0
1, 21689, Note_on_c, 1, 59, 0
1, 21689, Note_on_c, 1, 55, 0
1, 21696, Note_on_c, 1, 43, 70
1, 21741, Note_on_c, 1, 43, 0
1, 21744, Tempo, 480000
1, 21744, Note_on_c, 0, 67, 75
1, 21789, Note_on_c, 0, 67, 0
1, 21792, Note_on_c, 0, 67, 75
1, 21792, Note_on_c, 1, 52, 70
1, 21815, Note_on_c, 1, 52, 0
1, 21816, Note_on_c, 1, 59, 70
1, 21839, Note_on_c, 1, 59, 0
1, 21840, Note_on_c, 1, 55, 70
1, 21859, Note_on_c, 0, 67, 0
1, 21863, Note_on_c, 1, 55, 0
1, 21864, Note_on_c, 0, 69, 75
1, 21864, Note_on_c, 1, 59, 70
1, 21887, Note_on_c, 0, 69, 0
1, 21887, Note_on_c, 1, 59, 0
1, 21888, Note_on_c, 0, 71, 75
1, 21888, Note_on_c, 1, 52, 70
1, 21911, Note_on_c, 1, 52, 0
1, 21912, Note_on_c, 1, 59, 70
1, 21933, Note_on_c, 0, 71, 0
1, 21935, Note_on_c, 1, 59, 0
1, 21936, Note_on_c, 0, 76, 75
1, 21936, Note_on_c, 1, 55, 70
1, 21956, Note_on_c, 0, 76, 0
1, 21959, Note_on_c, 1, 55, 0
1, 21960, Note_on_c, 1, 59, 70
1, 21983, Note_on_c, 1, 59, 0
1, 21984, Note_on_c, 0, 75, 75
1, 21984, Note_on_c, 1, 54, 70
1, 22007, Note_on_c, 1, 54, 0
1, 22008, Note_on_c, 1, 59, 70
1, 22031, Note_on_c, 1, 59, 0
1, 22032, Note_on_c, 0, 75, 0
1, 22032, Note_on_c, 0, 78, 75
1, 22032, Note_on_c, 1, 57, 70
1, 22055, Note_on_c, 1, 57, 0
1, 22056, Note_on_c, 1, 59, 70
1, 22077, Note_on_c, 0, 78, 0
1, 22079, Note_on_c, 1, 59, 0
1, 22080, Note_on_c, 1, 54, 70
1, 22103, Note_on_c, 1, 54, 0
1, 22104, Note_on_c, 1, 59, 70
1, 22127, Note_on_c, 1, 59, 0
1, 22128, Note_on_c, 0, 71, 75
1, 22128, Note_on_c, 1, 57, 70
1, 22151, Note_on_c, 1, 57, 0
1, 22152, Note_on_c, 1, 59, 70
1, 22175, Note_on_c, 1, 59, 0
1, 22176, Note_on_c, 0, 71, 0
1, 22176, Note_on_c, 0, 76, 75
1, 22176, Note_on_c, 1, 52, 70
1, 22196, Note_on_c, 0, 76, 0
1, 22199, Note_on_c, 1, 52, 0
1, 22200, Note_on_c, 1, 59, 70
1, 22223, Note_on_c, 1, 59, 0
1, 22224, Note_on_c, 0, 76, 75
1, 22224, Note_on_c, 1, 55, 70
1, 22247, Note_on_c, 1, 55, 0
1, 22248, Note_on_c, 1, 59, 70
1, 22271, Note_on_c, 1, 59, 0
1, 22272, Note_on_c, 0, 76, 0
1, 22272, Note_on_c, 0, 78, 76
1, 22272, Note_on_c, 1, 51, 70
1, 22295, Note_on_c, 1, 51, 0
1, 22296, Note_on_c, 1, 59, 70
1, 22317, Note_on_c, 0, 78, 0
1, 22319, Note_on_c, 1, 59, 0
1, 22320, Note_on_c, 0, 78, 78
1, 22320, Note_on_c, 1, 54, 70
1, 22340, Note_on_c, 0, 78, 0
1, 22343, Note_on_c, 1, 54, 0
1, 22344, Note_on_c, 1, 59, 70
1, 22367, Note_on_c, 1, 59, 0
1, 22368, Note_on_c, 0, 81, 80
1, 22368, Note_on_c, 1, 52, 70
1, 22391, Note_on_c, 1, 52, 0
1, 22392, Note_on_c, 1, 59, 70
1, 22413, Note_on_c, 0, 81, 0
1, 22415, Note_on_c, 1, 59, 0
1, 22416, Note_on_c, 0, 79, 78
1, 22416, Note_on_c, 1, 55, 70
1, 22428, Note_on_c, 0, 79, 0
1, 22428, Note_on_c, 0, 81, 78
1, 22439, Note_on_c, 1, 55, 0
1, 22440, Note_on_c, 0, 81, 0
1, 22440, Note_on_c, 0, 79, 78
1, 22440, Note_on_c, 1, 59, 70
1, 22452, Note_on_c, 0, 79, 0
1, 22452, Note_on_c, 0, 81, 78
1, 22461, Note_on_c, 0, 81, 0
1, 22463, Note_on_c, 1, 59, 0
1, 22464, Note_on_c, 0, 78, 76
1, 22464, Note_on_c, 1, 47, 70
1, 22487, Note_on_c, 1, 47, 0
1, 22488, Note_on_c, 1, 59, 70
1, 22509, Note_on_c, 0, 78, 0
1, 22511, Note_on_c, 1, 59, 0
1, 22512, Note_on_c, 0, 78, 75
1, 22512, Note_on_c, 1, 51, 70
1, 22535, Note_on_c, 1, 51, 0
1, 22536, Note_on_c, 1, 59, 70
1, 22557, Note_on_c, 0, 78, 0
1, 22559, Note_on_c, 1, 59, 0
1, 22560, Note_on_c, 0, 79, 75
1, 22560, Note_on_c, 1, 52, 70
1, 22583, Note_on_c, 1, 52, 0
1, 22584, Note_on_c, 1, 59, 70
1, 22607, Note_on_c, 1, 59, 0
1, 22608, Note_on_c, 1, 55, 70
1, 22627, Note_on_c, 0, 79, 0
1, 22631, Note_on_c, 1, 55, 0
1, 22632, Note_on_c, 0, 81, 76
1, 22632, Note_on_c, 1, 59, 70
1, 22655, Note_on_c, 0, 81, 0
1, 22655, Note_on_c, 1, 59, 0
1, 22656, Note_on_c, 0, 83, 77
1, 22656, Note_on_c, 1, 52, 70
1, 22679, Note_on_c, 1, 52, 0
1, 22680, Note_on_c, 1, 59, 70
1, 22701, Note_on_c, 0, 83, 0
1, 22703, Note_on_c, 1, 59, 0
1, 22704, Note_on_c, 0, 83, 78
1, 22704, Note_on_c, 1, 55, 70
1, 22724, Note_on_c, 0, 83, 0
1, 22727, Note_on_c, 1, 55, 0
1, 22728, Note_on_c, 1, 59, 70
1, 22751, Note_on_c, 1, 59, 0
1, 22752, Note_on_c, 0, 81, 80
1, 22752, Note_on_c, 1, 48, 70
1, 22775, Note_on_c, 1, 48, 0
1, 22776, Note_on_c, 1, 57, 70
1, 22799, Note_on_c, 1, 57, 0
1, 22800, Note_on_c, 0, 81, 0
1, 22800, Note_on_c, 0, 84, 80
1, 22800, Note_on_c, 1, 52, 70
1, 22823, Note_on_c, 1, 52, 0
1, 22824, Note_on_c, 1, 57, 70
1, 22845, Note_on_c, 0, 84, 0
1, 22847, Note_on_c, 1, 57, 0
1, 22848, Note_on_c, 1, 48, 70
1, 22871, Note_on_c, 1, 48, 0
1, 22872, Note_on_c, 1, 57, 70
1, 22895, Note_on_c, 1, 57, 0
1, 22896, Note_on_c, 0, 81, 80
1, 22896, Note_on_c, 1, 52, 70
1, 22919, Note_on_c, 1, 52, 0
1, 22920, Note_on_c, 1, 57, 70
1, 22943, Note_on_c, 1, 57, 0
1, 22944, Note_on_c, 0, 81, 0
1, 22944, Note_on_c, 0, 78, 80
1, 22944, Note_on_c, 1, 50, 70
1, 22967, Note_on_c, 1, 50, 0
1, 22968, Note_on_c, 1, 60, 70
1, 22989, Note_on_c, 0, 78, 0
1, 22991, Note_on_c, 1, 60, 0
1, 22992, Note_on_c, 0, 78, 80
1, 22992, Note_on_c, 1, 57, 70
1, 23012, Note_on_c, 0, 78, 0
1, 23015, Note_on_c, 1, 57, 0
1, 23016, Note_on_c, 1, 60, 70
1, 23039, Note_on_c, 1, 60, 0
1, 23040, Note_on_c, 0, 79, 80
1, 23040, Note_on_c, 1, 50, 70
1, 23063, Note_on_c, 0, 79, 0
1, 23063, Note_on_c, 1, 50, 0
1, 23064, Note_on_c, 0, 78, 80
1, 23064, Note_on_c, 1, 60, 70
1, 23087, Note_on_c, 0, 78, 0
1, 23087, Note_on_c, 1, 60, 0
1, 23088, Note_on_c, 0, 76, 80
1, 23088, Note_on_c, 1, 57, 70
1, 23111, Note_on_c, 0, 76, 0
1, 23111, Note_on_c, 1, 57, 0
1, 23112, Note_on_c, 0, 74, 80
1, 23112, Note_on_c, 1, 60, 70
1, 23135, Note_on_c, 0, 74, 0
1, 23135, Note_on_c, 1, 60, 0
1, 23136, Note_on_c, 0, 79, 80
1, 23136, Note_on_c, 1, 59, 70
1, 23136, Note_on_c, 1, 55, 70
1, 23225, Note_on_c, 0, 79, 0
1, 23225, Note_on_c, 1, 59, 0
1, 23225, Note_on_c, 1, 55, 0
1, 23232, Note_on_c, 1, 43, 70
1, 23277, Note_on_c, 1, 43, 0
1, 23280, Note_on_c, 0, 83, 80
1, 23325, Note_on_c, 0, 83, 0
1, 23328, Note_on_c, 0, 83, 80
1, 23328, Note_on_c, 1, 59, 70
1, 23351, Note_on_c, 1, 59, 0
1, 23352, Note_on_c, 1, 67, 70
1, 23375, Note_on_c, 1, 67, 0
1, 23376, Note_on_c, 1, 62, 70
1, 23395, Note_on_c, 0, 83, 0
1, 23399, Note_on_c, 1, 62, 0
1, 23400, Note_on_c, 0, 84, 80
1, 23400, Note_on_c, 1, 67, 70
1, 23423, Note_on_c, 0, 84, 0
1, 23423, Note_on_c, 1, 67, 0
1, 23424, Note_on_c, 0, 86, 80
1, 23424, Note_on_c, 1, 59, 70
1, 23447, Note_on_c, 1, 59, 0
1, 23448, Note_on_c, 1, 67, 70
1, 23469, Note_on_c, 0, 86, 0
1, 23471, Note_on_c, 1, 67, 0
1, 23472, Note_on_c, 0, 86, 80
1, 23472, Note_on_c, 1, 62, 70
1, 23492, Note_on_c, 0, 86, 0
1, 23495, Note_on_c, 1, 62, 0
1, 23496, Note_on_c, 1, 67, 70
1, 23519, Note_on_c, 1, 67, 0
1, 23520, Note_on_c, 0, 86, 80
1, 23520, Note_on_c, 1, 60, 70
1, 23543, Note_on_c, 1, 60, 0
1, 23544, Note_on_c, 1, 67, 70
1, 23567, Note_on_c, 1, 67, 0
1, 23568, Note_on_c, 0, 86, 0
1, 23568, Note_on_c, 0, 76, 80
1, 23568, Note_on_c, 1, 64, 70
1, 23591, Note_on_c, 1, 64, 0
1, 23592, Note_on_c, 1, 67, 70
1, 23613, Note_on_c, 0, 76, 0
1, 23615, Note_on_c, 1, 67, 0
1, 23616, Note_on_c, 1, 60, 70
1, 23639, Note_on_c, 1, 60, 0
1, 23640, Note_on_c, 1, 67, 70
1, 23663, Note_on_c, 1, 67, 0
1, 23664, Note_on_c, 0, 76, 80
1, 23664, Note_on_c, 1, 64, 70
1, 23687, Note_on_c, 1, 64, 0
1, 23688, Note_on_c, 1, 67, 70
1, 23709, Note_on_c, 0, 76, 0
1, 23711, Note_on_c, 1, 67, 0
1, 23712, Note_on_c, 0, 81, 80
1, 23712, Note_on_c, 1, 57, 70
1, 23735, Note_on_c, 1, 57, 0
1, 23736, Note_on_c, 1, 66, 70
1, 23759, Note_on_c, 1, 66, 0
1, 23760, Note_on_c, 1, 60, 70
1, 23779, Note_on_c, 0, 81, 0
1, 23783, Note_on_c, 1, 60, 0
1, 23784, Note_on_c, 0, 83, 80
1, 23784, Note_on_c, 1, 66, 70
1, 23807, Note_on_c, 0, 83, 0
1, 23807, Note_on_c, 1, 66, 0
1, 23808, Note_on_c, 0, 84, 80
1, 23808, Note_on_c, 1, 57, 70
1, 23831, Note_on_c, 1, 57, 0
1, 23832, Note_on_c, 1, 66, 70
1, 23853, Note_on_c, 0, 84, 0
1, 23855, Note_on_c, 1, 66, 0
1, 23856, Note_on_c, 0, 84, 80
1, 23856, Note_on_c, 1, 60, 70
1, 23876, Note_on_c, 0, 84, 0
1, 23879, Note_on_c, 1, 60, 0
1, 23880, Note_on_c, 1, 66, 70
1, 23903, Note_on_c, 1, 66, 0
1, 23904, Note_on_c, 0, 84, 80
1, 23904, Note_on_c, 1, 59, 70
1, 23927, Note_on_c, 1, 59, 0
1, 23928, Note_on_c, 1, 66, 70
1, 23951, Note_on_c, 1, 66, 0
1, 23952, Note_on_c, 0, 84, 0
1, 23952, Note_on_c, 0, 75, 80
1, 23952, Note_on_c, 1, 63, 70
1, 23975, Note_on_c, 1, 63, 0
1, 23976, Note_on_c, 1, 66, 70
1, 23997, Note_on_c, 0, 75, 0
1, 23999, Note_on_c, 1, 66, 0
1, 24000, Note_on_c, 1, 57, 70
1, 24023, Note_on_c, 1, 57, 0
1, 24024, Note_on_c, 1, 63, 70
1, 24047, Note_on_c, 1, 63, 0
1, 24048, Note_on_c, 0, 71, 75
1, 24048, Note_on_c, 1, 59, 70
1, 24071, Note_on_c, 1, 59, 0
1, 24072, Note_on_c, 1, 63, 70
1, 24095, Note_on_c, 1, 63, 0
1, 24096, Note_on_c, 0, 71, 0
1, 24096, Note_on_c, 0, 76, 75
1, 24096, Note_on_c, 1, 55, 70
1, 24119, Note_on_c, 1, 55, 0
1, 24120, Note_on_c, 1, 64, 70
1, 24141, Note_on_c, 0, 76, 0
1, 24143, Note_on_c, 1, 64, 0
1, 24144, Note_on_c, 0, 76, 75
1, 24144, Note_on_c, 1, 59, 70
1, 24167, Note_on_c, 1, 59, 0
1, 24168, Note_on_c, 1, 64, 70
1, 24191, Note_on_c, 1, 64, 0
1, 24192, Note_on_c, 0, 76, 0
1, 24192, Note_on_c, 0, 78, 75
1, 24192, Note_on_c, 1, 51, 70
1, 24212, Note_on_c, 0, 78, 0
1, 24215, Note_on_c, 1, 51, 0
1, 24216, Note_on_c, 1, 59, 70
1, 24239, Note_on_c, 1, 59, 0
1, 24240, Note_on_c, 0, 78, 75
1, 24240, Note_on_c, 1, 54, 70
1, 24263, Note_on_c, 1, 54, 0
1, 24264, Note_on_c, 1, 59, 70
1, 24285, Note_on_c, 0, 78, 0
1, 24287, Note_on_c, 1, 59, 0
1, 24288, Note_on_c, 0, 81, 75
1, 24288, Note_on_c, 1, 52, 70
1, 24311, Note_on_c, 1, 52, 0
1, 24312, Note_on_c, 1, 59, 70
1, 24333, Note_on_c, 0, 81, 0
1, 24335, Note_on_c, 1, 59, 0
1, 24336, Note_on_c, 0, 79, 75
1, 24336, Note_on_c, 1, 55, 70
1, 24348, Note_on_c, 0, 79, 0
1, 24348, Note_on_c, 0, 81, 75
1, 24359, Note_on_c, 1, 55, 0
1, 24360, Note_on_c, 0, 81, 0
1, 24360, Note_on_c, 0, 79, 75
1, 24360, Note_on_c, 1, 59, 70
1, 24372, Note_on_c, 0, 79, 0
1, 24372, Note_on_c, 0, 81, 75
1, 24381, Note_on_c, 0, 81, 0
1, 24383, Note_on_c, 1, 59, 0
1, 24384, Note_on_c, 0, 78, 75
1, 24384, Note_on_c, 1, 47, 70
1, 24407, Note_on_c, 1, 47, 0
1, 24408, Note_on_c, 1, 59, 70
1, 24429, Note_on_c, 0, 78, 0
1, 24431, Note_on_c, 1, 59, 0
1, 24432, Note_on_c, 0, 83, 75
1, 24432, Note_on_c, 1, 51, 70
1, 24455, Note_on_c, 1, 51, 0
1, 24456, Note_on_c, 1, 59, 70
1, 24479, Note_on_c, 1, 59, 0
1, 24480, Note_on_c, 0, 83, 0
1, 24480, Note_on_c, 0, 76, 75
1, 24480, Note_on_c, 1, 48, 70
1, 24500, Note_on_c, 0, 76, 0
1, 24503, Note_on_c, 1, 48, 0
1, 24504, Note_on_c, 1, 59, 70
1, 24527, Note_on_c, 1, 59, 0
1, 24528, Note_on_c, 0, 76, 75
1, 24528, Note_on_c, 1, 55, 70
1, 24551, Note_on_c, 1, 55, 0
1, 24552, Note_on_c, 1, 59, 70
1, 24575, Note_on_c, 1, 59, 0
1, 24576, Note_on_c, 0, 76, 0
1, 24576, Note_on_c, 0, 84, 75
1, 24576, Note_on_c, 1, 48, 70
1, 24596, Note_on_c, 0, 84, 0
1, 24599, Note_on_c, 1, 48, 0
1, 24600, Note_on_c, 1, 57, 70
1, 24623, Note_on_c, 1, 57, 0
1, 24624, Note_on_c, 0, 84, 75
1, 24624, Note_on_c, 1, 55, 70
1, 24647, Note_on_c, 1, 55, 0
1, 24648, Note_on_c, 1, 57, 70
1, 24671, Note_on_c, 1, 57, 0
1, 24672, Note_on_c, 0, 84, 0
1, 24672, Note_on_c, 0, 75, 75
1, 24672, Note_on_c, 1, 47, 70
1, 24695, Note_on_c, 1, 47, 0
1, 24696, Note_on_c, 1, 57, 70
1, 24719, Note_on_c, 1, 57, 0
1, 24720, Note_on_c, 1, 54, 70
1, 24743, Note_on_c, 1, 54, 0
1, 24744, Note_on_c, 1, 57, 70
1, 24767, Note_on_c, 1, 57, 0
1, 24768, Note_on_c, 0, 75, 0
1, 24768, Note_on_c, 0, 76, 75
1, 24768, Note_on_c, 1, 48, 70
1, 24791, Note_on_c, 1, 48, 0
1, 24792, Note_on_c, 1, 55, 70
1, 24813, Note_on_c, 0, 76, 0
1, 24815, Note_on_c, 1, 55, 0
1, 24816, Note_on_c, 0, 76, 75
1, 24816, Note_on_c, 1, 52, 70
1, 24839, Note_on_c, 1, 52, 0
1, 24840, Note_on_c, 1, 55, 70
1, 24863, Note_on_c, 1, 55, 0
1, 24864, Note_on_c, 0, 76, 0
1, 24864, Note_on_c, 0, 78, 75
1, 24864, Note_on_c, 1, 45, 70
1, 24887, Note_on_c, 1, 45, 0
1, 24888, Note_on_c, 1, 54, 70
1, 24909, Note_on_c, 0, 78, 0
1, 24911, Note_on_c, 1, 54, 0
1, 24912, Note_on_c, 0, 78, 75
1, 24912, Note_on_c, 1, 48, 70
1, 24932, Note_on_c, 0, 78, 0
1, 24935, Note_on_c, 1, 48, 0
1, 24936, Note_on_c, 1, 54, 70
1, 24959, Note_on_c, 1, 54, 0
1, 24960, Note_on_c, 0, 76, 75
1, 24960, Note_on_c, 1, 47, 70
1, 24983, Note_on_c, 0, 76, 0
1, 24983, Note_on_c, 1, 47, 0
1, 24984, Note_on_c, 0, 75, 75
1, 24984, Note_on_c, 1, 57, 70
1, 25007, Note_on_c, 0, 75, 0
1, 25007, Note_on_c, 1, 57, 0
1, 25008, Note_on_c, 0, 73, 75
1, 25008, Note_on_c, 1, 54, 70
1, 25031, Note_on_c, 0, 73, 0
1, 25031, Note_on_c, 1, 54, 0
1, 25032, Note_on_c, 0, 71, 75
1, 25032, Note_on_c, 1, 57, 70
1, 25055, Note_on_c, 0, 71, 0
1, 25055, Note_on_c, 1, 57, 0
1, 25056, Note_on_c, 0, 76, 75
1, 25056, Note_on_c, 1, 55, 70
1, 25056, Note_on_c, 1, 52, 70
1, 25145, Note_on_c, 0, 76, 0
1, 25145, Note_on_c, 1, 55, 0
1, 25145, Note_on_c, 1, 52, 0
1, 25152, Note_on_c, 1, 40, 70
1, 25197, Note_on_c, 1, 40, 0
1, 25200, Note_on_c, 0, 83, 80
1, 25245, Note_on_c, 0, 83, 0
1, 25248, Note_on_c, 0, 83, 80
1, 25248, Note_on_c, 1, 59, 70
1, 25271, Note_on_c, 1, 59, 0
1, 25272, Note_on_c, 1, 67, 70
1, 25295, Note_on_c, 1, 67, 0
1, 25296, Note_on_c, 1, 62, 70
1, 25315, Note_on_c, 0, 83, 0
1, 25319, Note_on_c, 1, 62, 0
1, 25320, Note_on_c, 0, 84, 80
1, 25320, Note_on_c, 1, 67, 70
1, 25343, Note_on_c, 0, 84, 0
1, 25343, Note_on_c, 1, 67, 0
1, 25344, Note_on_c, 0, 86, 80
1, 25344, Note_on_c, 1, 59, 70
1, 25367, Note_on_c, 1, 59, 0
1, 25368, Note_on_c, 1, 67, 70
1, 25389, Note_on_c, 0, 86, 0
1, 25391, Note_on_c, 1, 67, 0
1, 25392, Note_on_c, 0, 86, 80
1, 25392, Note_on_c, 1, 62, 70
1, 25412, Note_on_c, 0, 86, 0
1, 25415, Note_on_c, 1, 62, 0
1, 25416, Note_on_c, 1, 67, 70
1, 25439, Note_on_c, 1, 67, 0
1, 25440, Note_on_c, 0, 86, 80
1, 25440, Note_on_c, 1, 60, 70
1, 25463, Note_on_c, 1, 60, 0
1, 25464, Note_on_c, 1, 67, 70
1, 25487, Note_on_c, 1, 67, 0
1, 25488, Note_on_c, 0, 86, 0
1, 25488, Note_on_c, 0, 76, 80
1, 25488, Note_on_c, 1, 64, 70
1, 25511, Note_on_c, 1, 64, 0
1, 25512, Note_on_c, 1, 67, 70
1, 25533, Note_on_c, 0, 76, 0
1, 25535, Note_on_c, 1, 67, 0
1, 25536, Note_on_c, 1, 60, 70
1, 25559, Note_on_c, 1, 60, 0
1, 25560, Note_on_c, 1, 67, 70
1, 25583, Note_on_c, 1, 67, 0
1, 25584, Note_on_c, 0, 76, 80
1, 25584, Note_on_c, 1, 64, 70
1, 25607, Note_on_c, 1, 64, 0
1, 25608, Note_on_c, 1, 67, 70
1, 25629, Note_on_c, 0, 76, 0
1, 25631, Note_on_c, 1, 67, 0
1, 25632, Note_on_c, 0, 81, 80
1, 25632, Note_on_c, 1, 57, 70
1, 25655, Note_on_c, 1, 57, 0
1, 25656, Note_on_c, 1, 66, 70
1, 25679, Note_on_c, 1, 66, 0
1, 25680, Note_on_c, 1, 60, 70
1, 25699, Note_on_c, 0, 81, 0
1, 25703, Note_on_c, 1, 60, 0
1, 25704, Note_on_c, 0, 83, 80
1, 25704, Note_on_c, 1, 66, 70
1, 25727, Note_on_c, 0, 83, 0
1, 25727, Note_on_c, 1, 66, 0
1, 25728, Note_on_c, 0, 84, 80
1, 25728, Note_on_c, 1, 57, 70
1, 25751, Note_on_c, 1, 57, 0
1, 25752, Note_on_c, 1, 66, 70
1, 25773, Note_on_c, 0, 84, 0
1, 25775, Note_on_c, 1, 66, 0
1, 25776, Note_on_c, 0, 84, 80
1, 25776, Note_on_c, 1, 60, 70
1, 25796, Note_on_c, 0, 84, 0
1, 25799, Note_on_c, 1, 60, 0
1, 25800, Note_on_c, 1, 66, 70
1, 25823, Note_on_c, 1, 66, 0
1, 25824, Note_on_c, 0, 84, 80
1, 25824, Note_on_c, 1, 59, 70
1, 25847, Note_on_c, 1, 59, 0
1, 25848, Note_on_c, 1, 66, 70
1, 25871, Note_on_c, 1, 66, 0
1, 25872, Note_on_c, 0, 84, 0
1, 25872, Note_on_c, 0, 75, 80
1, 25872, Note_on_c, 1, 63, 70
1, 25895, Note_on_c, 1, 63, 0
1, 25896, Note_on_c, 1, 66, 70
1, 25917, Note_on_c, 0, 75, 0
1, 25919, Note_on_c, 1, 66, 0
1, 25920, Note_on_c, 1, 57, 70
1, 25943, Note_on_c, 1, 57, 0
1, 25944, Note_on_c, 1, 63, 70
1, 25967, Note_on_c, 1, 63, 0
1, 25968, Note_on_c, 0, 71, 75
1, 25968, Note_on_c, 1, 59, 70
1, 25991, Note_on_c, 1, 59, 0
1, 25992, Note_on_c, 1, 63, 70
1, 26015, Note_on_c, 1, 63, 0
1, 26016, Note_on_c, 0, 71, 0
1, 26016, Note_on_c, 0, 76, 75
1, 26016, Note_on_c, 1, 55, 70
1, 26039, Note_on_c, 1, 55, 0
1, 26040, Note_on_c, 1, 64, 70
1, 26061, Note_on_c, 0, 76, 0
1, 26063, Note_on_c, 1, 64, 0
1, 26064, Note_on_c, 0, 76, 75
1, 26064, Note_on_c, 1, 59, 70
1, 26087, Note_on_c, 1, 59, 0
1, 26088, Note_on_c, 1, 64, 70
1, 26111, Note_on_c, 1, 64, 0
1, 26112, Note_on_c, 0, 76, 0
1, 26112, Note_on_c, 0, 78, 75
1, 26112, Note_on_c, 1, 51, 70
1, 26132, Note_on_c, 0, 78, 0
1, 26135, Note_on_c, 1, 51, 0
1, 26136, Note_on_c, 1, 59, 70
1, 26159, Note_on_c, 1, 59, 0
1, 26160, Note_on_c, 0, 78, 75
1, 26160, Note_on_c, 1, 54, 70
1, 26183, Note_on_c, 1, 54, 0
1, 26184, Note_on_c, 1, 59, 70
1, 26205, Note_on_c, 0, 78, 0
1, 26207, Note_on_c, 1, 59, 0
1, 26208, Note_on_c, 0, 81, 75
1, 26208, Note_on_c, 1, 52, 70
1, 26231, Note_on_c, 1, 52, 0
1, 26232, Note_on_c, 1, 59, 70
1, 26253, Note_on_c, 0, 81, 0
1, 26255, Note_on_c, 1, 59, 0
1, 26256, Note_on_c, 0, 79, 75
1, 26256, Note_on_c, 1, 55, 70
1, 26268, Note_on_c, 0, 79, 0
1, 26268, Note_on_c, 0, 81, 75
1, 26279, Note_on_c, 1, 55, 0
1, 26280, Note_on_c, 0, 81, 0
1, 26280, Note_on_c, 0, 79, 75
1, 26280, Note_on_c, 1, 59, 70
1, 26292, Note_on_c, 0, 79, 0
1, 26292, Note_on_c, 0, 81, 75
1, 26301, Note_on_c, 0, 81, 0
1, 26303, Note_on_c, 1, 59, 0
1, 26304, Note_on_c, 0, 78, 75
1, 26304, Note_on_c, 1, 47, 70
1, 26327, Note_on_c, 1, 47, 0
1, 26328, Note_on_c, 1, 59, 70
1, 26349, Note_on_c, 0, 78, 0
1, 26351, Note_on_c, 1, 59, 0
1, 26352, Note_on_c, 0, 83, 75
1, 26352, Note_on_c, 1, 51, 70
1, 26375, Note_on_c, 1, 51, 0
1, 26376, Note_on_c, 1, 59, 70
1, 26399, Note_on_c, 1, 59, 0
1, 26400, Note_on_c, 0, 83, 0
1, 26400, Note_on_c, 0, 76, 75
1, 26400, Note_on_c, 1, 48, 70
1, 26420, Note_on_c, 0, 76, 0
1, 26423, Note_on_c, 1, 48, 0
1, 26424, Note_on_c, 1, 59, 70
1, 26447, Note_on_c, 1, 59, 0
1, 26448, Note_on_c, 0, 76, 75
1, 26448, Note_on_c, 1, 55, 70
1, 26471, Note_on_c, 1, 55, 0
1, 26472, Note_on_c, 1, 59, 70
1, 26495, Note_on_c, 1, 59, 0
1, 26496, Note_on_c, 0, 76, 0
1, 26496, Note_on_c, 0, 84, 75
1, 26496, Note_on_c, 1, 48, 70
1, 26516, Note_on_c, 0, 84, 0
1, 26519, Note_on_c, 1, 48, 0
1, 26520, Note_on_c, 1, 57, 70
1, 26543, Note_on_c, 1, 57, 0
1, 26544, Note_on_c, 0, 84, 75
1, 26544, Note_on_c, 1, 55, 70
1, 26567, Note_on_c, 1, 55, 0
1, 26568, Note_on_c, 1, 57, 70
1, 26591, Note_on_c, 1, 57, 0
1, 26592, Note_on_c, 0, 84, 0
1, 26592, Note_on_c, 0, 75, 75
1, 26592, Note_on_c, 1, 47, 70
1, 26615, Note_on_c, 1, 47, 0
1, 26616, Note_on_c, 1, 57, 70
1, 26639, Note_on_c, 1, 57, 0
1, 26640, Note_on_c, 1, 54, 70
1, 26663, Note_on_c, 1, 54, 0
1, 26664, Note_on_c, 1, 57, 70
1, 26687, Note_on_c, 1, 57, 0
1, 26688, Note_on_c, 0, 75, 0
1, 26688, Note_on_c, 0, 76, 75
1, 26688, Note_on_c, 1, 48, 70
1, 26711, Note_on_c, 1, 48, 0
1, 26712, Note_on_c, 1, 55, 70
1, 26733, Note_on_c, 0, 76, 0
1, 26735, Note_on_c, 1, 55, 0
1, 26736, Note_on_c, 0, 76, 75
1, 26736, Note_on_c, 1, 52, 70
1, 26759, Note_on_c, 1, 52, 0
1, 26760, Note_on_c, 1, 55, 70
1, 26783, Note_on_c, 1, 55, 0
1, 26784, Note_on_c, 0, 76, 0
1, 26784, Note_on_c, 0, 78, 75
1, 26784, Note_on_c, 1, 45, 70
1, 26807, Note_on_c, 1, 45, 0
1, 26808, Note_on_c, 1, 54, 70
1, 26829, Note_on_c, 0, 78, 0
1, 26831, Note_on_c, 1, 54, 0
1, 26832, Note_on_c, 0, 78, 75
1, 26832, Note_on_c, 1, 48, 70
1, 26852, Note_on_c, 0, 78, 0
1, 26855, Note_on_c, 1, 48, 0
1, 26856, Note_on_c, 1, 54, 70
1, 26879, Note_on_c, 1, 54, 0
1, 26880, Note_on_c, 0, 76, 75
1, 26880, Note_on_c, 1, 47, 70
1, 26903, Note_on_c, 0, 76, 0
1, 26903, Note_on_c, 1, 47, 0
1, 26904, Note_on_c, 0, 75, 75
1, 26904, Note_on_c, 1, 57, 70
1, 26927, Note_on_c, 0, 75, 0
1, 26927, Note_on_c, 1, 57, 0
1, 26928, Note_on_c, 0, 73, 75
1, 26928, Note_on_c, 1, 54, 70
1, 26951, Note_on_c, 0, 73, 0
1, 26951, Note_on_c, 1, 54, 0
1, 26952, Note_on_c, 0, 71, 75
1, 26952, Note_on_c, 1, 57, 70
1, 26975, Note_on_c, 0, 71, 0
1, 26975, Note_on_c, 1, 57, 0
1, 26976, Note_on_c, 0, 76, 75
1, 26976, Note_on_c, 1, 55, 70
1, 26976, Note_on_c, 1, 52, 70
1, 27065, Note_on_c, 0, 76, 0
1, 27065, Note_on_c, 1, 55, 0
1, 27065, Note_on_c, 1, 52, 0
1, 27072, Note_on_c, 1, 40, 70
1, 27117, Note_on_c, 1, 40, 0
1, 27120, Note_on_c, 0, 80, 75
1, 27165, Note_on_c, 0, 80, 0
1, 27168, Note_on_c, 0, 80, 75
1, 27168, Note_on_c, 1, 68, 70
1, 27168, Note_on_c, 1, 64, 70
1, 27235, Note_on_c, 0, 80, 0
1, 27240, Note_on_c, 0, 81, 75
1, 27257, Note_on_c, 1, 68, 0
1, 27257, Note_on_c, 1, 64, 0
1, 27263, Note_on_c, 0, 81, 0
1, 27264, Note_on_c, 0, 83, 75
1, 27309, Note_on_c, 0, 83, 0
1, 27312, Note_on_c, 0, 76, 75
1, 27312, Note_on_c, 1, 71, 70
1, 27312, Note_on_c, 1, 68, 70
1, 27332, Note_on_c, 0, 76, 0
1, 27357, Note_on_c, 1, 71, 0
1, 27357, Note_on_c, 1, 68, 0
1, 27360, Note_on_c, 0, 75, 75
1, 27360, Note_on_c, 1, 69, 70
1, 27360, Note_on_c, 1, 66, 70
1, 27405, Note_on_c, 0, 75, 0
1, 27405, Note_on_c, 1, 69, 0
1, 27405, Note_on_c, 1, 66, 0
1, 27408, Note_on_c, 0, 78, 75
1, 27453, Note_on_c, 0, 78, 0
1, 27456, Note_on_c, 1, 57, 70
1, 27480, Note_on_c, 0, 59, 75
1, 27501, Note_on_c, 1, 57, 0
1, 27503, Note_on_c, 0, 59, 0
1, 27504, Note_on_c, 0, 61, 75
1, 27527, Note_on_c, 0, 61, 0
1, 27528, Note_on_c, 0, 63, 75
1, 27551, Note_on_c, 0, 63, 0
1, 27552, Note_on_c, 0, 64, 75
1, 27552, Note_on_c, 1, 56, 70
1, 27575, Note_on_c, 0, 64, 0
1, 27576, Note_on_c, 0, 66, 75
1, 27599, Note_on_c, 0, 66, 0
1, 27600, Note_on_c, 0, 68, 76
1, 27623, Note_on_c, 0, 68, 0
1, 27624, Note_on_c, 0, 69, 76
1, 27641, Note_on_c, 1, 56, 0
1, 27647, Note_on_c, 0, 69, 0
1, 27648, Note_on_c, 0, 71, 77
1, 27671, Note_on_c, 0, 71, 0
1, 27672, Note_on_c, 0, 73, 78
1, 27695, Note_on_c, 0, 73, 0
1, 27696, Note_on_c, 0, 75, 78
1, 27696, Note_on_c, 1, 68, 70
1, 27719, Note_on_c, 0, 75, 0
1, 27720, Note_on_c, 0, 76, 79
1, 27741, Note_on_c, 1, 68, 0
1, 27743, Note_on_c, 0, 76, 0
1, 27744, Note_on_c, 0, 71, 80
1, 27744, Note_on_c, 1, 66, 70
1, 27789, Note_on_c, 0, 71, 0
1, 27789, Note_on_c, 1, 66, 0
1, 27792, Note_on_c, 0, 69, 78
1, 27792, Note_on_c, 1, 59, 70
1, 27804, Note_on_c, 0, 69, 0
1, 27804, Note_on_c, 0, 71, 78
1, 27816, Note_on_c, 0, 71, 0
1, 27816, Note_on_c, 0, 69, 78
1, 27828, Note_on_c, 0, 69, 0
1, 27828, Note_on_c, 0, 71, 78
1, 27837, Note_on_c, 0, 71, 0
1, 27837, Note_on_c, 1, 59, 0
1, 27840, Note_on_c, 0, 68, 76
1, 27840, Note_on_c, 1, 64, 70
1, 27885, Note_on_c, 0, 68, 0
1, 27885, Note_on_c, 1, 64, 0
1, 27888, Note_on_c, 0, 80, 75
1, 27933, Note_on_c, 0, 80, 0
1, 27936, Tempo, 500000
1, 27936, Note_on_c, 0, 81, 75
1, 27936, Note_on_c, 1, 68, 70
1, 27936, Note_on_c, 1, 64, 70
1, 27948, Note_on_c, 0, 81, 0
1, 27948, Note_on_c, 0, 80, 75
1, 27960, Note_on_c, 0, 80, 0
1, 27960, Note_on_c, 0, 78, 75
1, 27972, Note_on_c, 0, 78, 0
1, 27972, Note_on_c, 0, 80, 75
1, 28003, Note_on_c, 0, 80, 0
1, 28008, Note_on_c, 0, 82, 75
1, 28025, Note_on_c, 1, 68, 0
1, 28025, Note_on_c, 1, 64, 0
1, 28031, Note_on_c, 0, 82, 0
1, 28032, Tempo, 480000
1, 28032, Note_on_c, 0, 83, 75
1, 28077, Note_on_c, 0, 83, 0
1, 28080, Note_on_c, 0, 72, 75
1, 28080, Note_on_c, 1, 66, 70
1, 28080, Note_on_c, 1, 63, 70
1, 28125, Note_on_c, 0, 72, 0
1, 28125, Note_on_c, 1, 66, 0
1, 28125, Note_on_c, 1, 63, 0
1, 28128, Tempo, 500000
1, 28128, Note_on_c, 0, 75, 75
1, 28128, Note_on_c, 1, 68, 70
1, 28128, Note_on_c, 1, 64, 70
1, 28140, Note_on_c, 0, 75, 0
1, 28140, Note_on_c, 0, 73, 75
1, 28152, Note_on_c, 0, 73, 0
1, 28152, Note_on_c, 0, 72, 75
1, 28164, Note_on_c, 0, 72, 0
1, 28164, Note_on_c, 0, 73, 75
1, 28195, Note_on_c, 0, 73, 0
1, 28200, Note_on_c, 0, 76, 75
1, 28217, Note_on_c, 1, 68, 0
1, 28217, Note_on_c, 1, 64, 0
1, 28223, Note_on_c, 0, 76, 0
1, 28224, Tempo, 480000
1, 28224, Note_on_c, 0, 80, 75
1, 28269, Note_on_c, 0, 80, 0
1, 28272, Note_on_c, 0, 70, 75
1, 28272, Note_on_c, 1, 66, 70
1, 28272, Note_on_c, 1, 64, 70
1, 28317, Note_on_c, 0, 70, 0
1, 28317, Note_on_c, 1, 66, 0
1, 28317, Note_on_c, 1, 64, 0
1, 28320, Note_on_c, 0, 71, 75
1, 28320, Note_on_c, 1, 66, 70
1, 28320, Note_on_c, 1, 63, 70
1, 28365, Note_on_c, 0, 71, 0
1, 28365, Note_on_c, 1, 66, 0
1, 28365, Note_on_c, 1, 63, 0
1, 28368, Note_on_c, 0, 76, 75
1, 28368, Note_on_c, 1, 64, 70
1, 28391, Note_on_c, 0, 76, 0
1, 28392, Note_on_c, 0, 73, 75
1, 28413, Note_on_c, 1, 64, 0
1, 28415, Note_on_c, 0, 73, 0
1, 28416, Note_on_c, 0, 75, 75
1, 28416, Note_on_c, 1, 66, 70
1, 28439, Note_on_c, 0, 75, 0
1, 28440, Note_on_c, 0, 71, 75
1, 28461, Note_on_c, 1, 66, 0
1, 28463, Note_on_c, 0, 71, 0
1, 28464, Note_on_c, 0, 73, 75
1, 28464, Note_on_c, 1, 54, 70
1, 28487, Note_on_c, 0, 73, 0
1, 28488, Note_on_c, 0, 70, 75
1, 28509, Note_on_c, 1, 54, 0
1, 28511, Note_on_c, 0, 70, 0
1, 28512, Note_on_c, 0, 71, 75
1, 28512, Note_on_c, 1, 59, 70
1, 28601, Note_on_c, 0, 71, 0
1, 28601, Note_on_c, 1, 59, 0
1, 28608, Note_on_c, 1, 47, 70
1, 28653, Note_on_c, 1, 47, 0
1, 28656, Note_on_c, 0, 80, 75
1, 28701, Note_on_c, 0, 80, 0
1, 28704, Note_on_c, 0, 80, 75
1, 28704, Note_on_c, 1, 68, 70
1, 28704, Note_on_c, 1, 64, 70
1, 28771, Note_on_c, 0, 80, 0
1, 28776, Note_on_c, 0, 81, 75
1, 28793, Note_on_c, 1, 68, 0
1, 28793, Note_on_c, 1, 64, 0
1, 28799, Note_on_c, 0, 81, 0
1, 28800, Note_on_c, 0, 83, 75
1, 28845, Note_on_c, 0, 83, 0
1, 28848, Note_on_c, 0, 76, 75
1, 28848, Note_on_c, 1, 71, 70
1, 28848, Note_on_c, 1, 68, 70
1, 28868, Note_on_c, 0, 76, 0
1, 28893, Note_on_c, 1, 71, 0
1, 28893, Note_on_c, 1, 68, 0
1, 28896, Note_on_c, 0, 75, 75
1, 28896, Note_on_c, 1, 69, 70
1, 28896, Note_on_c, 1, 66, 70
1, 28941, Note_on_c, 0, 75, 0
1, 28941, Note_on_c, 1, 69, 0
1, 28941, Note_on_c, 1, 66, 0
1, 28944, Note_on_c, 0, 78, 75
1, 28989, Note_on_c, 0, 78, 0
1, 28992, Note_on_c, 1, 57, 70
1, 29016, Note_on_c, 0, 59, 75
1, 29037, Note_on_c, 1, 57, 0
1, 29039, Note_on_c, 0, 59, 0
1, 29040, Note_on_c, 0, 61, 75
1, 29063, Note_on_c, 0, 61, 0
1, 29064, Note_on_c, 0, 63, 75
1, 29087, Note_on_c, 0, 63, 0
1, 29088, Note_on_c, 0, 64, 75
1, 29088, Note_on_c, 1, 56, 70
1, 29111, Note_on_c, 0, 64, 0
1, 29112, Note_on_c, 0, 66, 75
1, 29135, Note_on_c, 0, 66, 0
1, 29136, Note_on_c, 0, 68, 76
1, 29159, Note_on_c, 0, 68, 0
1, 29160, Note_on_c, 0, 69, 76
1, 29177, Note_on_c, 1, 56, 0
1, 29183, Note_on_c, 0, 69, 0
1, 29184, Note_on_c, 0, 71, 77
1, 29207, Note_on_c, 0, 71, 0
1, 29208, Note_on_c, 0, 73, 78
1, 29231, Note_on_c, 0, 73, 0
1, 29232, Note_on_c, 0, 75, 78
1, 29232, Note_on_c, 1, 68, 70
1, 29255, Note_on_c, 0, 75, 0
1, 29256, Note_on_c, 0, 76, 79
1, 29277, Note_on_c, 1, 68, 0
1, 29279, Note_on_c, 0, 76, 0
1, 29280, Note_on_c, 0, 71, 80
1, 29280, Note_on_c, 1, 66, 70
1, 29325, Note_on_c, 0, 71, 0
1, 29325, Note_on_c, 1, 66, 0
1, 29328, Note_on_c, 0, 69, 78
1, 29328, Note_on_c, 1, 59, 70
1, 29340, Note_on_c, 0, 69, 0
1, 29340, Note_on_c, 0, 71, 78
1, 29352, Note_on_c, 0, 71, 0
1, 29352, Note_on_c, 0, 69, 78
1, 29364, Note_on_c, 0, 69, 0
1, 29364, Note_on_c, 0, 71, 78
1, 29373, Note_on_c, 0, 71, 0
1, 29373, Note_on_c, 1, 59, 0
1, 29376, Note_on_c, 0, 68, 76
1, 29376, Note_on_c, 1, 64, 70
1, 29421, Note_on_c, 0, 68, 0
1, 29421, Note_on_c, 1, 64, 0
1, 29424, Note_on_c, 0, 80, 75
1, 29469, Note_on_c, 0, 80, 0
1, 29472, Tempo, 500000
1, 29472, Note_on_c, 0, 81, 75
1, 29472, Note_on_c, 1, 68, 70
1, 29472, Note_on_c, 1, 64, 70
1, 29484, Note_on_c, 0, 81, 0
1, 29484, Note_on_c, 0, 80, 75
1, 29496, Note_on_c, 0, 80, 0
1, 29496, Note_on_c, 0, 78, 75
1, 29508, Note_on_c, 0, 78, 0
1, 29508, Note_on_c, 0, 80, 75
1, 29539, Note_on_c, 0, 80, 0
1, 29544, Note_on_c, 0, 82, 75
1, 29561, Note_on_c, 1, 68, 0
1, 29561, Note_on_c, 1, 64, 0
1, 29567, Note_on_c, 0, 82, 0
1, 29568, Tempo, 480000
1, 29568, Note_on_c, 0, 83, 75
1, 29613, Note_on_c, 0, 83, 0
1, 29616, Note_on_c, 0, 72, 75
1, 29616, Note_on_c, 1, 66, 70
1, 29616, Note_on_c, 1, 63, 70
1, 29661, Note_on_c, 0, 72, 0
1, 29661, Note_on_c, 1, 66, 0
1, 29661, Note_on_c, 1, 63, 0
1, 29664, Tempo, 500000
1, 29664, Note_on_c, 0, 75, 75
1, 29664, Note_on_c, 1, 68, 70
1, 29664, Note_on_c, 1, 64, 70
1, 29676, Note_on_c, 0, 75, 0
1, 29676, Note_on_c, 0, 73, 75
1, 29688, Note_on_c, 0, 73, 0
1, 29688, Note_on_c, 0, 72, 75
1, 29700, Note_on_c, 0, 72, 0
1, 29700, Note_on_c, 0, 73, 75
1, 29731, Note_on_c, 0, 73, 0
1, 29736, Note_on_c, 0, 76, 75
1, 29753, Note_on_c, 1, 68, 0
1, 29753, Note_on_c, 1, 64, 0
1, 29759, Note_on_c, 0, 76, 0
1, 29760, Tempo, 480000
1, 29760, Note_on_c, 0, 80, 75
1, 29805, Note_on_c, 0, 80, 0
1, 29808, Note_on_c, 0, 70, 75
1, 29808, Note_on_c, 1, 66, 70
1, 29808, Note_on_c, 1, 64, 70
1, 29853, Note_on_c, 0, 70, 0
1, 29853, Note_on_c, 1, 66, 0
1, 29853, Note_on_c, 1, 64, 0
1, 29856, Note_on_c, 0, 71, 75
1, 29856, Note_on_c, 1, 66, 70
1, 29856, Note_on_c, 1, 63, 70
1, 29901, Note_on_c, 0, 71, 0
1, 29901, Note_on_c, 1, 66, 0
1, 29901, Note_on_c, 1, 63, 0
1, 29904, Note_on_c, 0, 76, 75
1, 29904, Note_on_c, 1, 64, 70
1, 29927, Note_on_c, 0, 76, 0
1, 29928, Note_on_c, 0, 73, 75
1, 29949, Note_on_c, 1, 64, 0
1, 29951, Note_on_c, 0, 73, 0
1, 29952, Note_on_c, 0, 75, 75
1, 29952, Note_on_c, 1, 66, 70
1, 29975, Note_on_c, 0, 75, 0
1, 29976, Note_on_c, 0, 71, 75
1, 29997, Note_on_c, 1, 66, 0
1, 29999, Note_on_c, 0, 71, 0
1, 30000, Note_on_c, 0, 73, 75
1, 30000, Note_on_c, 1, 54, 70
1, 30023, Note_on_c, 0, 73, 0
1, 30024, Note_on_c, 0, 70, 75
1, 30045, Note_on_c, 1, 54, 0
1, 30047, Note_on_c, 0, 70, 0
1, 30048, Note_on_c, 0, 71, 75
1, 30048, Note_on_c, 1, 59, 70
1, 30137, Note_on_c, 0, 71, 0
1, 30137, Note_on_c, 1, 59, 0
1, 30144, Note_on_c, 1, 47, 70
1, 30189, Note_on_c, 1, 47, 0
1, 30192, Note_on_c, 0, 78, 75
1, 30237, Note_on_c, 0, 78, 0
1, 30240, Note_on_c, 0, 78, 75
1, 30240, Note_on_c, 1, 63, 70
1, 30240, Note_on_c, 1, 59, 70
1, 30307, Note_on_c, 0, 78, 0
1, 30312, Note_on_c, 0, 80, 75
1, 30329, Note_on_c, 1, 63, 0
1, 30329, Note_on_c, 1, 59, 0
1, 30335, Note_on_c, 0, 80, 0
1, 30336, Note_on_c, 0, 81, 75
1, 30359, Note_on_c, 0, 81, 0
1, 30360, Note_on_c, 0, 78, 75
1, 30383, Note_on_c, 0, 78, 0
1, 30384, Note_on_c, 0, 76, 75
1, 30384, Note_on_c, 1, 59, 70
1, 30384, Note_on_c, 1, 57, 70
1, 30407, Note_on_c, 0, 76, 0
1, 30408, Note_on_c, 0, 75, 75
1, 30429, Note_on_c, 1, 59, 0
1, 30429, Note_on_c, 1, 57, 0
1, 30431, Note_on_c, 0, 75, 0
1, 30432, Note_on_c, 0, 76, 75
1, 30432, Note_on_c, 1, 59, 70
1, 30432, Note_on_c, 1, 56, 70
1, 30455, Note_on_c, 0, 76, 0
1, 30456, Note_on_c, 0, 75, 75
1, 30479, Note_on_c, 0, 75, 0
1, 30480, Note_on_c, 0, 76, 75
1, 30503, Note_on_c, 0, 76, 0
1, 30504, Note_on_c, 0, 75, 75
1, 30521, Note_on_c, 1, 59, 0
1, 30521, Note_on_c, 1, 56, 0
1, 30527, Note_on_c, 0, 75, 0
1, 30528, Note_on_c, 0, 76, 75
1, 30551, Note_on_c, 0, 76, 0
1, 30552, Note_on_c, 0, 83, 75
1, 30575, Note_on_c, 0, 83, 0
1, 30576, Note_on_c, 0, 81, 75
1, 30576, Note_on_c, 1, 71, 70
1, 30576, Note_on_c, 1, 68, 70
1, 30599, Note_on_c, 0, 81, 0
1, 30600, Note_on_c, 0, 80, 75
1, 30621, Note_on_c, 1, 71, 0
1, 30621, Note_on_c, 1, 68, 0
1, 30623, Note_on_c, 0, 80, 0
1, 30624, Note_on_c, 0, 78, 75
1, 30624, Note_on_c, 1, 73, 70
1, 30624, Note_on_c, 1, 69, 70
1, 30691, Note_on_c, 0, 78, 0
1, 30696, Note_on_c, 0, 80, 75
1, 30713, Note_on_c, 1, 73, 0
1, 30713, Note_on_c, 1, 69, 0
1, 30719, Note_on_c, 0, 80, 0
1, 30720, Note_on_c, 0, 81, 75
1, 30743, Note_on_c, 0, 81, 0
1, 30744, Note_on_c, 0, 78, 75
1, 30767, Note_on_c, 0, 78, 0
1, 30768, Note_on_c, 0, 76, 75
1, 30768, Note_on_c, 1, 59, 70
1, 30768, Note_on_c, 1, 57, 70
1, 30791, Note_on_c, 0, 76, 0
1, 30792, Note_on_c, 0, 75, 75
1, 30813, Note_on_c, 1, 59, 0
1, 30813, Note_on_c, 1, 57, 0
1, 30815, Note_on_c, 0, 75, 0
1, 30816, Note_on_c, 0, 76, 75
1, 30816, Note_on_c, 1, 59, 70
1, 30816, Note_on_c, 1, 56, 70
1, 30839, Note_on_c, 0, 76, 0
1, 30840, Note_on_c, 0, 75, 75
1, 30863, Note_on_c, 0, 75, 0
1, 30864, Note_on_c, 0, 76, 75
1, 30887, Note_on_c, 0, 76, 0
1, 30888, Note_on_c, 0, 75, 75
1, 30905, Note_on_c, 1, 59, 0
1, 30905, Note_on_c, 1, 56, 0
1, 30911, Note_on_c, 0, 75, 0
1, 30912, Note_on_c, 0, 76, 75
1, 30935, Note_on_c, 0, 76, 0
1, 30936, Note_on_c, 0, 83, 75
1, 30959, Note_on_c, 0, 83, 0
1, 30960, Note_on_c, 0, 81, 75
1, 30960, Note_on_c, 1, 71, 70
1, 30960, Note_on_c, 1, 68, 70
1, 30983, Note_on_c, 0, 81, 0
1, 30984, Note_on_c, 0, 80, 75
1, 31005, Note_on_c, 1, 71, 0
1, 31005, Note_on_c, 1, 68, 0
1, 31007, Note_on_c, 0, 80, 0
1, 31008, Note_on_c, 0, 78, 75
1, 31008, Note_on_c, 1, 73, 70
1, 31008, Note_on_c, 1, 69, 70
1, 31031, Note_on_c, 0, 78, 0
1, 31032, Note_on_c, 0, 80, 75
1, 31055, Note_on_c, 0, 80, 0
1, 31056, Note_on_c, 0, 81, 75
1, 31079, Note_on_c, 0, 81, 0
1, 31080, Note_on_c, 0, 80, 75
1, 31097, Note_on_c, 1, 73, 0
1, 31097, Note_on_c, 1, 69, 0
1, 31103, Note_on_c, 0, 80, 0
1, 31104, Note_on_c, 0, 78, 75
1, 31127, Note_on_c, 0, 78, 0
1, 31128, Note_on_c, 0, 76, 75
1, 31151, Note_on_c, 0, 76, 0
1, 31152, Note_on_c, 0, 75, 75
1, 31152, Note_on_c, 1, 61, 70
1, 31152, Note_on_c, 1, 58, 70
1, 31175, Note_on_c, 0, 75, 0
1, 31176, Note_on_c, 0, 73, 75
1, 31197, Note_on_c, 1, 61, 0
1, 31197, Note_on_c, 1, 58, 0
1, 31199, Note_on_c, 0, 73, 0
1, 31200, Note_on_c, 0, 71, 75
1, 31200, Note_on_c, 1, 59, 70
1, 31223, Note_on_c, 0, 71, 0
1, 31224, Note_on_c, 0, 70, 75
1, 31247, Note_on_c, 0, 70, 0
1, 31248, Note_on_c, 0, 71, 75
1, 31271, Note_on_c, 0, 71, 0
1, 31272, Note_on_c, 0, 73, 75
1, 31289, Note_on_c, 1, 59, 0
1, 31295, Note_on_c, 0, 73, 0
1, 31296, Note_on_c, 0, 71, 75
1, 31319, Note_on_c, 0, 71, 0
1, 31320, Note_on_c, 0, 69, 75
1, 31343, Note_on_c, 0, 69, 0
1, 31344, Note_on_c, 0, 68, 75
1, 31367, Note_on_c, 0, 68, 0
1, 31368, Note_on_c, 0, 66, 75
1, 31391, Note_on_c, 0, 66, 0
1, 31392, Note_on_c, 0, 69, 75
1, 31392, Note_on_c, 1, 59, 70
1, 31392, Note_on_c, 1, 52, 70
1, 31404, Note_on_c, 0, 69, 0
1, 31404, Note_on_c, 0, 68, 75
1, 31416, Note_on_c, 0, 68, 0
1, 31416, Note_on_c, 0, 66, 75
1, 31428, Note_on_c, 0, 66, 0
1, 31428, Note_on_c, 0, 68, 75
1, 31459, Note_on_c, 0, 68, 0
1, 31464, Note_on_c, 0, 69, 75
1, 31481, Note_on_c, 1, 59, 0
1, 31481, Note_on_c, 1, 52, 0
1, 31487, Note_on_c, 0, 69, 0
1, 31488, Note_on_c, 0, 71, 75
1, 31533, Note_on_c, 0, 71, 0
1, 31536, Note_on_c, 0, 64, 75
1, 31536, Note_on_c, 1, 59, 70
1, 31536, Note_on_c, 1, 56, 70
1, 31581, Note_on_c, 0, 64, 0
1, 31581, Note_on_c, 1, 59, 0
1, 31581, Note_on_c, 1, 56, 0
1, 31584, Note_on_c, 0, 63, 75
1, 31584, Note_on_c, 1, 57, 70
1, 31584, Note_on_c, 1, 54, 70
1, 31629, Note_on_c, 0, 63, 0
1, 31629, Note_on_c, 1, 57, 0
1, 31629, Note_on_c, 1, 54, 0
1, 31632, Note_on_c, 0, 66, 75
1, 31677, Note_on_c, 0, 66, 0
1, 31680, Note_on_c, 1, 45, 70
1, 31704, Note_on_c, 0, 59, 75
1, 31725, Note_on_c, 1, 45, 0
1, 31727, Note_on_c, 0, 59, 0
1, 31728, Note_on_c, 0, 61, 75
1, 31751, Note_on_c, 0, 61, 0
1, 31752, Note_on_c, 0, 63, 75
1, 31775, Note_on_c, 0, 63, 0
1, 31776, Note_on_c, 0, 64, 76
1, 31776, Note_on_c, 1, 44, 70
1, 31799, Note_on_c, 0, 64, 0
1, 31800, Note_on_c, 0, 66, 76
1, 31823, Note_on_c, 0, 66, 0
1, 31824, Note_on_c, 0, 68, 77
1, 31847, Note_on_c, 0, 68, 0
1, 31848, Note_on_c, 0, 69, 77
1, 31865, Note_on_c, 1, 44, 0
1, 31871, Note_on_c, 0, 69, 0
1, 31872, Note_on_c, 0, 71, 78
1, 31895, Note_on_c, 0, 71, 0
1, 31896, Note_on_c, 0, 73, 78
1, 31919, Note_on_c, 0, 73, 0
1, 31920, Note_on_c, 0, 75, 79
1, 31920, Note_on_c, 1, 68, 70
1, 31943, Note_on_c, 0, 75, 0
1, 31944, Note_on_c, 0, 76, 79
1, 31965, Note_on_c, 1, 68, 0
1, 31967, Note_on_c, 0, 76, 0
1, 31968, Note_on_c, 0, 71, 80
1, 31968, Note_on_c, 1, 66, 70
1, 32013, Note_on_c, 0, 71, 0
1, 32013, Note_on_c, 1, 66, 0
1, 32016, Note_on_c, 0, 69, 78
1, 32016, Note_on_c, 1, 59, 70
1, 32028, Note_on_c, 0, 69, 0
1, 32028, Note_on_c, 0, 71, 78
1, 32040, Note_on_c, 0, 71, 0
1, 32040, Note_on_c, 0, 69, 78
1, 32052, Note_on_c, 0, 69, 0
1, 32052, Note_on_c, 0, 71, 78
1, 32061, Note_on_c, 0, 71, 0
1, 32061, Note_on_c, 1, 59, 0
1, 32064, Note_on_c, 0, 68, 76
1, 32064, Note_on_c, 1, 64, 70
1, 32087, Note_on_c, 0, 68, 0
1, 32088, Note_on_c, 0, 71, 75
1, 32109, Note_on_c, 1, 64, 0
1, 32111, Note_on_c, 0, 71, 0
1, 32112, Note_on_c, 0, 73, 75
1, 32135, Note_on_c, 0, 73, 0
1, 32136, Note_on_c, 0, 75, 75
1, 32159, Note_on_c, 0, 75, 0
1, 32160, Note_on_c, 0, 76, 75
1, 32183, Note_on_c, 0, 76, 0
1, 32184, Note_on_c, 0, 78, 75
1, 32207, Note_on_c, 0, 78, 0
1, 32208, Note_on_c, 0, 80, 75
1, 32231, Note_on_c, 0, 80, 0
1, 32232, Note_on_c, 0, 81, 75
1, 32255, Note_on_c, 0, 81, 0
1, 32256, Note_on_c, 0, 83, 75
1, 32279, Note_on_c, 0, 83, 0
1, 32280, Note_on_c, 0, 80, 75
1, 32303, Note_on_c, 0, 80, 0
1, 32304, Note_on_c, 0, 78, 75
1, 32327, Note_on_c, 0, 78, 0
1, 32328, Note_on_c, 0, 76, 75
1, 32351, Note_on_c, 0, 76, 0
1, 32352, Note_on_c, 1, 57, 70
1, 32397, Note_on_c, 1, 57, 0
1, 32400, Note_on_c, 0, 85, 75
1, 32445, Note_on_c, 0, 85, 0
1, 32448, Note_on_c, 1, 69, 70
1, 32493, Note_on_c, 1, 69, 0
1, 32496, Note_on_c, 0, 87, 75
1, 32541, Note_on_c, 0, 87, 0
1, 32544, Note_on_c, 0, 88, 75
1, 32544, Note_on_c, 1, 68, 70
1, 32567, Note_on_c, 0, 88, 0
1, 32568, Note_on_c, 0, 83, 75
1, 32589, Note_on_c, 1, 68, 0
1, 32591, Note_on_c, 0, 83, 0
1, 32592, Note_on_c, 0, 85, 75
1, 32592, Note_on_c, 1, 69, 70
1, 32615, Note_on_c, 0, 85, 0
1, 32616, Note_on_c, 0, 81, 75
1, 32637, Note_on_c, 1, 69, 0
1, 32639, Note_on_c, 0, 81, 0
1, 32640, Note_on_c, 0, 80, 75
1, 32640, Note_on_c, 1, 71, 70
1, 32663, Note_on_c, 0, 80, 0
1, 32664, Note_on_c, 0, 76, 75
1, 32685, Note_on_c, 1, 71, 0
1, 32687, Note_on_c, 0, 76, 0
1, 32688, Note_on_c, 0, 78, 75
1, 32688, Note_on_c, 1, 59, 70
1, 32711, Note_on_c, 0, 78, 0
1, 32712, Note_on_c, 0, 75, 75
1, 32733, Note_on_c, 1, 59, 0
1, 32735, Note_on_c, 0, 75, 0
1, 32736, Note_on_c, 0, 76, 75
1, 32736, Note_on_c, 1, 64, 70
1, 32825, Note_on_c, 0, 76, 0
1, 32825, Note_on_c, 1, 64, 0
1, 32832, Note_on_c, 1, 52, 70
1, 32877, Note_on_c, 1, 52, 0
1, 32880, Note_on_c, 0, 78, 75
1, 32925, Note_on_c, 0, 78, 0
1, 32928, Note_on_c, 0, 78, 75
1, 32928, Note_on_c, 1, 63, 70
1, 32928, Note_on_c, 1, 59, 70
1, 32995, Note_on_c, 0, 78, 0
1, 33000, Note_on_c, 0, 80, 75
1, 33017, Note_on_c, 1, 63, 0
1, 33017, Note_on_c, 1, 59, 0
1, 33023, Note_on_c, 0, 80, 0
1, 33024, Note_on_c, 0, 81, 75
1, 33047, Note_on_c, 0, 81, 0
1, 33048, Note_on_c, 0, 78, 75
1, 33071, Note_on_c, 0, 78, 0
1, 33072, Note_on_c, 0, 76, 75
1, 33072, Note_on_c, 1, 59, 70
1, 33072, Note_on_c, 1, 57, 70
1, 33095, Note_on_c, 0, 76, 0
1, 33096, Note_on_c, 0, 75, 75
1, 33117, Note_on_c, 1, 59, 0
1, 33117, Note_on_c, 1, 57, 0
1, 33119, Note_on_c, 0, 75, 0
1, 33120, Note_on_c, 0, 76, 75
1, 33120, Note_on_c, 1, 59, 70
1, 33120, Note_on_c, 1, 56, 70
1, 33143, Note_on_c, 0, 76, 0
1, 33144, Note_on_c, 0, 75, 75
1, 33167, Note_on_c, 0, 75, 0
1, 33168, Note_on_c, 0, 76, 75
1, 33191, Note_on_c, 0, 76, 0
1, 33192, Note_on_c, 0, 75, 75
1, 33209, Note_on_c, 1, 59, 0
1, 33209, Note_on_c, 1, 56, 0
1, 33215, Note_on_c, 0, 75, 0
1, 33216, Note_on_c, 0, 76, 75
1, 33239, Note_on_c, 0, 76, 0
1, 33240, Note_on_c, 0, 83, 75
1, 33263, Note_on_c, 0, 83, 0
1, 33264, Note_on_c, 0, 81, 75
1, 33264, Note_on_c, 1, 71, 70
1, 33264, Note_on_c, 1, 68, 70
1, 33287, Note_on_c, 0, 81, 0
1, 33288, Note_on_c, 0, 80, 75
1, 33309, Note_on_c, 1, 71, 0
1, 33309, Note_on_c, 1, 68, 0
1, 33311, Note_on_c, 0, 80, 0
1, 33312, Note_on_c, 0, 78, 75
1, 33312, Note_on_c, 1, 73, 70
1, 33312, Note_on_c, 1, 69, 70
1, 33379, Note_on_c, 0, 78, 0
1, 33384, Note_on_c, 0, 80, 75
1, 33401, Note_on_c, 1, 73, 0
1, 33401, Note_on_c, 1, 69, 0
1, 33407, Note_on_c, 0, 80, 0
1, 33408, Note_on_c, 0, 81, 75
1, 33431, Note_on_c, 0, 81, 0
1, 33432, Note_on_c, 0, 78, 75
1, 33455, Note_on_c, 0, 78, 0
1, 33456, Note_on_c, 0, 76, 75
1, 33456, Note_on_c, 1, 59, 70
1, 33456, Note_on_c, 1, 57, 70
1, 33479, Note_on_c, 0, 76, 0
1, 33480, Note_on_c, 0, 75, 75
1, 33501, Note_on_c, 1, 59, 0
1, 33501, Note_on_c, 1, 57, 0
1, 33503, Note_on_c, 0, 75, 0
1, 33504, Note_on_c, 0, 76, 75
1, 33504, Note_on_c, 1, 59, 70
1, 33504, Note_on_c, 1, 56, 70
1, 33527, Note_on_c, 0, 76, 0
1, 33528, Note_on_c, 0, 75, 75
1, 33551, Note_on_c, 0, 75, 0
1, 33552, Note_on_c, 0, 76, 75
1, 33575, Note_on_c, 0, 76, 0
1, 33576, Note_on_c, 0, 75, 75
1, 33593, Note_on_c, 1, 59, 0
1, 33593, Note_on_c, 1, 56, 0
1, 33599, Note_on_c, 0, 75, 0
1, 33600, Note_on_c, 0, 76, 75
1, 33623, Note_on_c, 0, 76, 0
1, 33624, Note_on_c, 0, 83, 75
1, 33647, Note_on_c, 0, 83, 0
1, 33648, Note_on_c, 0, 81, 75
1, 33648, Note_on_c, 1, 71, 70
1, 33648, Note_on_c, 1, 68, 70
1, 33671, Note_on_c, 0, 81, 0
1, 33672, Note_on_c, 0, 80, 75
1, 33693, Note_on_c, 1, 71, 0
1, 33693, Note_on_c, 1, 68, 0
1, 33695, Note_on_c, 0, 80, 0
1, 33696, Note_on_c, 0, 78, 75
1, 33696, Note_on_c, 1, 73, 70
1, 33696, Note_on_c, 1, 69, 70
1, 33719, Note_on_c, 0, 78, 0
1, 33720, Note_on_c, 0, 80, 75
1, 33743, Note_on_c, 0, 80, 0
1, 33744, Note_on_c, 0, 81, 75
1, 33767, Note_on_c, 0, 81, 0
1, 33768, Note_on_c, 0, 80, 75
1, 33785, Note_on_c, 1, 73, 0
1, 33785, Note_on_c, 1, 69, 0
1, 33791, Note_on_c, 0, 80, 0
1, 33792, Note_on_c, 0, 78, 75
1, 33815, Note_on_c, 0, 78, 0
1, 33816, Note_on_c, 0, 76, 75
1, 33839, Note_on_c, 0, 76, 0
1, 33840, Note_on_c, 0, 75, 75
1, 33840, Note_on_c, 1, 61, 70
1, 33840, Note_on_c, 1, 58, 70
1, 33863, Note_on_c, 0, 75, 0
1, 33864, Note_on_c, 0, 73, 75
1, 33885, Note_on_c, 1, 61, 0
1, 33885, Note_on_c, 1, 58, 0
1, 33887, Note_on_c, 0, 73, 0
1, 33888, Note_on_c, 0, 71, 75
1, 33888, Note_on_c, 1, 59, 70
1, 33911, Note_on_c, 0, 71, 0
1, 33912, Note_on_c, 0, 70, 75
1, 33935, Note_on_c, 0, 70, 0
1, 33936, Note_on_c, 0, 71, 75
1, 33959, Note_on_c, 0, 71, 0
1, 33960, Note_on_c, 0, 73, 75
1, 33977, Note_on_c, 1, 59, 0
1, 33983, Note_on_c, 0, 73, 0
1, 33984, Note_on_c, 0, 71, 75
1, 34007, Note_on_c, 0, 71, 0
1, 34008, Note_on_c, 0, 69, 75
1, 34031, Note_on_c, 0, 69, 0
1, 34032, Note_on_c, 0, 68, 75
1, 34055, Note_on_c, 0, 68, 0
1, 34056, Note_on_c, 0, 66, 75
1, 34079, Note_on_c, 0, 66, 0
1, 34080, Note_on_c, 0, 69, 75
1, 34080, Note_on_c, 1, 59, 70
1, 34080, Note_on_c, 1, 52, 70
1, 34092, Note_on_c, 0, 69, 0
1, 34092, Note_on_c, 0, 68, 75
1, 34104, Note_on_c, 0, 68, 0
1, 34104, Note_on_c, 0, 66, 75
1, 34116, Note_on_c, 0, 66, 0
1, 34116, Note_on_c, 0, 68, 75
1, 34147, Note_on_c, 0, 68, 0
1, 34152, Note_on_c, 0, 69, 75
1, 34169, Note_on_c, 1, 59, 0
1, 34169, Note_on_c, 1, 52, 0
1, 34175, Note_on_c, 0, 69, 0
1, 34176, Note_on_c, 0, 71, 75
1, 34221, Note_on_c, 0, 71, 0
1, 34224, Note_on_c, 0, 64, 75
1, 34224, Note_on_c, 1, 59, 70
1, 34224, Note_on_c, 1, 56, 70
1, 34269, Note_on_c, 0, 64, 0
1, 34269, Note_on_c, 1, 59, 0
1, 34269, Note_on_c, 1, 56, 0
1, 34272, Note_on_c, 0, 63, 75
1, 34272, Note_on_c, 1, 57, 70
1, 34272, Note_on_c, 1, 54, 70
1, 34317, Note_on_c, 0, 63, 0
1, 34317, Note_on_c, 1, 57, 0
1, 34317, Note_on_c, 1, 54, 0
1, 34320, Note_on_c, 0, 66, 75
1, 34365, Note_on_c, 0, 66, 0
1, 34368, Note_on_c, 1, 45, 70
1, 34392, Note_on_c, 0, 59, 75
1, 34413, Note_on_c, 1, 45, 0
1, 34415, Note_on_c, 0, 59, 0
1, 34416, Note_on_c, 0, 61, 75
1, 34439, Note_on_c, 0, 61, 0
1, 34440, Note_on_c, 0, 63, 75
1, 34463, Note_on_c, 0, 63, 0
1, 34464, Note_on_c, 0, 64, 76
1, 34464, Note_on_c, 1, 44, 70
1, 34487, Note_on_c, 0, 64, 0
1, 34488, Note_on_c, 0, 66, 76
1, 34511, Note_on_c, 0, 66, 0
1, 34512, Note_on_c, 0, 68, 77
1, 34535, Note_on_c, 0, 68, 0
1, 34536, Note_on_c, 0, 69, 77
1, 34553, Note_on_c, 1, 44, 0
1, 34559, Note_on_c, 0, 69, 0
1, 34560, Note_on_c, 0, 71, 78
1, 34583, Note_on_c, 0, 71, 0
1, 34584, Note_on_c, 0, 73, 78
1, 34607, Note_on_c, 0, 73, 0
1, 34608, Note_on_c, 0, 75, 79
1, 34608, Note_on_c, 1, 68, 70
1, 34631, Note_on_c, 0, 75, 0
1, 34632, Note_on_c, 0, 76, 79
1, 34653, Note_on_c, 1, 68, 0
1, 34655, Note_on_c, 0, 76, 0
1, 34656, Note_on_c, 0, 71, 80
1, 34656, Note_on_c, 1, 66, 70
1, 34701, Note_on_c, 0, 71, 0
1, 34701, Note_on_c, 1, 66, 0
1, 34704, Note_on_c, 0, 69, 78
1, 34704, Note_on_c, 1, 59, 70
1, 34716, Note_on_c, 0, 69, 0
1, 34716, Note_on_c, 0, 71, 78
1, 34728, Note_on_c, 0, 71, 0
1, 34728, Note_on_c, 0, 69, 78
1, 34740, Note_on_c, 0, 69, 0
1, 34740, Note_on_c, 0, 71, 78
1, 34749, Note_on_c, 0, 71, 0
1, 34749, Note_on_c, 1, 59, 0
1, 34752, Note_on_c, 0, 68, 76
1, 34752, Note_on_c, 1, 64, 70
1, 34775, Note_on_c, 0, 68, 0
1, 34776, Note_on_c, 0, 71, 75
1, 34797, Note_on_c, 1, 64, 0
1, 34799, Note_on_c, 0, 71, 0
1, 34800, Note_on_c, 0, 73, 75
1, 34823, Note_on_c, 0, 73, 0
1, 34824, Note_on_c, 0, 75, 75
1, 34847, Note_on_c, 0, 75, 0
1, 34848, Note_on_c, 0, 76, 75
1, 34871, Note_on_c, 0, 76, 0
1, 34872, Note_on_c, 0, 78, 75
1, 34895, Note_on_c, 0, 78, 0
1, 34896, Note_on_c, 0, 80, 75
1, 34919, Note_on_c, 0, 80, 0
1, 34920, Note_on_c, 0, 81, 75
1, 34943, Note_on_c, 0, 81, 0
1, 34944, Note_on_c, 0, 83, 75
1, 34967, Note_on_c, 0, 83, 0
1, 34968, Note_on_c, 0, 80, 75
1, 34991, Note_on_c, 0, 80, 0
1, 34992, Note_on_c, 0, 78, 75
1, 35015, Note_on_c, 0, 78, 0
1, 35016, Note_on_c, 0, 76, 75
1, 35039, Note_on_c, 0, 76, 0
1, 35040, Note_on_c, 1, 57, 70
1, 35085, Note_on_c, 1, 57, 0
1, 35088, Note_on_c, 0, 85, 75
1, 35133, Note_on_c, 0, 85, 0
1, 35136, Note_on_c, 1, 69, 70
1, 35181, Note_on_c, 1, 69, 0
1, 35184, Note_on_c, 0, 87, 75
1, 35229, Note_on_c, 0, 87, 0
1, 35232, Note_on_c, 0, 88, 75
1, 35232, Note_on_c, 1, 68, 70
1, 35255, Note_on_c, 0, 88, 0
1, 35256, Note_on_c, 0, 83, 75
1, 35277, Note_on_c, 1, 68, 0
1, 35279, Note_on_c, 0, 83, 0
1, 35280, Note_on_c, 0, 85, 75
1, 35280, Note_on_c, 1, 69, 70
1, 35303, Note_on_c, 0, 85, 0
1, 35304, Note_on_c, 0, 81, 75
1, 35325, Note_on_c, 1, 69, 0
1, 35327, Note_on_c, 0, 81, 0
1, 35328, Note_on_c, 0, 80, 75
1, 35328, Note_on_c, 1, 71, 70
1, 35351, Note_on_c, 0, 80, 0
1, 35352, Note_on_c, 0, 76, 75
1, 35373, Note_on_c, 1, 71, 0
1, 35375, Note_on_c, 0, 76, 0
1, 35376, Note_on_c, 0, 78, 75
1, 35376, Note_on_c, 1, 59, 70
1, 35399, Note_on_c, 0, 78, 0
1, 35400, Note_on_c, 0, 75, 75
1, 35421, Note_on_c, 1, 59, 0
1, 35423, Note_on_c, 0, 75, 0
1, 35424, Note_on_c, 0, 76, 75
1, 35424, Note_on_c, 1, 64, 70
1, 35513, Note_on_c, 0, 76, 0
1, 35513, Note_on_c, 1, 64, 0
1, 35520, Note_on_c, 1, 52, 70
1, 35565, Note_on_c, 1, 52, 0
1, 35568, Note_on_c, 0, 67, 75
1, 35613, Note_on_c, 0, 67, 0
1, 35616, Note_on_c, 0, 67, 75
1, 35616, Note_on_c, 1, 52, 70
1, 35639, Note_on_c, 1, 52, 0
1, 35640, Note_on_c, 1, 59, 70
1, 35663, Note_on_c, 1, 59, 0
1, 35664, Note_on_c, 1, 55, 70
1, 35683, Note_on_c, 0, 67, 0
1, 35687, Note_on_c, 1, 55, 0
1, 35688, Note_on_c, 0, 69, 75
1, 35688, Note_on_c, 1, 59, 70
1, 35711, Note_on_c, 0, 69, 0
1, 35711, Note_on_c, 1, 59, 0
1, 35712, Note_on_c, 0, 71, 75
1, 35712, Note_on_c, 1, 52, 70
1, 35735, Note_on_c, 1, 52, 0
1, 35736, Note_on_c, 1, 59, 70
1, 35757, Note_on_c, 0, 71, 0
1, 35759, Note_on_c, 1, 59, 0
1, 35760, Note_on_c, 0, 76, 75
1, 35760, Note_on_c, 1, 55, 70
1, 35780, Note_on_c, 0, 76, 0
1, 35783, Note_on_c, 1, 55, 0
1, 35784, Note_on_c, 1, 59, 70
1, 35807, Note_on_c, 1, 59, 0
1, 35808, Note_on_c, 0, 75, 75
1, 35808, Note_on_c, 1, 54, 70
1, 35831, Note_on_c, 1, 54, 0
1, 35832, Note_on_c, 1, 59, 70
1, 35855, Note_on_c, 1, 59, 0
1, 35856, Note_on_c, 0, 75, 0
1, 35856, Note_on_c, 0, 78, 75
1, 35856, Note_on_c, 1, 57, 70
1, 35879, Note_on_c, 1, 57, 0
1, 35880, Note_on_c, 1, 59, 70
1, 35901, Note_on_c, 0, 78, 0
1, 35903, Note_on_c, 1, 59, 0
1, 35904, Note_on_c, 1, 54, 70
1, 35927, Note_on_c, 1, 54, 0
1, 35928, Note_on_c, 1, 59, 70
1, 35951, Note_on_c, 1, 59, 0
1, 35952, Note_on_c, 0, 71, 75
1, 35952, Note_on_c, 1, 57, 70
1, 35975, Note_on_c, 1, 57, 0
1, 35976, Note_on_c, 1, 59, 70
1, 35999, Note_on_c, 1, 59, 0
1, 36000, Note_on_c, 0, 71, 0
1, 36000, Note_on_c, 0, 76, 75
1, 36000, Note_on_c, 1, 52, 70
1, 36020, Note_on_c, 0, 76, 0
1, 36023, Note_on_c, 1, 52, 0
1, 36024, Note_on_c, 1, 59, 70
1, 36047, Note_on_c, 1, 59, 0
1, 36048, Note_on_c, 0, 76, 76
1, 36048, Note_on_c, 1, 55, 70
1, 36071, Note_on_c, 1, 55, 0
1, 36072, Note_on_c, 1, 59, 70
1, 36095, Note_on_c, 1, 59, 0
1, 36096, Note_on_c, 0, 76, 0
1, 36096, Note_on_c, 0, 78, 77
1, 36096, Note_on_c, 1, 51, 70
1, 36119, Note_on_c, 1, 51, 0
1, 36120, Note_on_c, 1, 59, 70
1, 36141, Note_on_c, 0, 78, 0
1, 36143, Note_on_c, 1, 59, 0
1, 36144, Note_on_c, 0, 78, 78
1, 36144, Note_on_c, 1, 54, 70
1, 36164, Note_on_c, 0, 78, 0
1, 36167, Note_on_c, 1, 54, 0
1, 36168, Note_on_c, 1, 59, 70
1, 36191, Note_on_c, 1, 59, 0
1, 36192, Note_on_c, 0, 81, 80
1, 36192, Note_on_c, 1, 52, 70
1, 36215, Note_on_c, 1, 52, 0
1, 36216, Note_on_c, 1, 59, 70
1, 36237, Note_on_c, 0, 81, 0
1, 36239, Note_on_c, 1, 59, 0
1, 36240, Note_on_c, 0, 79, 78
1, 36240, Note_on_c, 1, 55, 70
1, 36252, Note_on_c, 0, 79, 0
1, 36252, Note_on_c, 0, 81, 78
1, 36263, Note_on_c, 1, 55, 0
1, 36264, Note_on_c, 0, 81, 0
1, 36264, Note_on_c, 0, 79, 78
1, 36264, Note_on_c, 1, 59, 70
1, 36276, Note_on_c, 0, 79, 0
1, 36276, Note_on_c, 0, 81, 78
1, 36285, Note_on_c, 0, 81, 0
1, 36287, Note_on_c, 1, 59, 0
1, 36288, Note_on_c, 0, 78, 76
1, 36288, Note_on_c, 1, 47, 70
1, 36311, Note_on_c, 1, 47, 0
1, 36312, Note_on_c, 1, 59, 70
1, 36333, Note_on_c, 0, 78, 0
1, 36335, Note_on_c, 1, 59, 0
1, 36336, Note_on_c, 0, 78, 75
1, 36336, Note_on_c, 1, 51, 70
1, 36359, Note_on_c, 1, 51, 0
1, 36360, Note_on_c, 1, 59, 70
1, 36381, Note_on_c, 0, 78, 0
1, 36383, Note_on_c, 1, 59, 0
1, 36384, Note_on_c, 0, 79, 75
1, 36384, Note_on_c, 1, 52, 70
1, 36407, Note_on_c, 1, 52, 0
1, 36408, Note_on_c, 1, 59, 70
1, 36431, Note_on_c, 1, 59, 0
1, 36432, Note_on_c, 1, 55, 70
1, 36451, Note_on_c, 0, 79, 0
1, 36455, Note_on_c, 1, 55, 0
1, 36456, Note_on_c, 0, 81, 76
1, 36456, Note_on_c, 1, 59, 70
1, 36479, Note_on_c, 0, 81, 0
1, 36479, Note_on_c, 1, 59, 0
1, 36480, Note_on_c, 0, 83, 77
1, 36480, Note_on_c, 1, 52, 70
1, 36503, Note_on_c, 1, 52, 0
1, 36504, Note_on_c, 1, 59, 70
1, 36525, Note_on_c, 0, 83, 0
1, 36527, Note_on_c, 1, 59, 0
1, 36528, Note_on_c, 0, 83, 78
1, 36528, Note_on_c, 1, 55, 70
1, 36548, Note_on_c, 0, 83, 0
1, 36551, Note_on_c, 1, 55, 0
1, 36552, Note_on_c, 1, 59, 70
1, 36575, Note_on_c, 1, 59, 0
1, 36576, Note_on_c, 0, 81, 79
1, 36576, Note_on_c, 1, 48, 70
1, 36599, Note_on_c, 1, 48, 0
1, 36600, Note_on_c, 1, 57, 70
1, 36623, Note_on_c, 1, 57, 0
1, 36624, Note_on_c, 0, 81, 0
1, 36624, Note_on_c, 0, 84, 127
1, 36624, Note_on_c, 1, 52, 70
1, 36647, Note_on_c, 1, 52, 0
1, 36648, Note_on_c, 1, 57, 70
1, 36671, Note_on_c, 1, 57, 0
1, 36672, Note_on_c, 1, 48, 70
1, 36695, Note_on_c, 1, 48, 0
1, 36696, Note_on_c, 1, 57, 70
1, 36719, Note_on_c, 1, 57, 0
1, 36720, Note_on_c, 0, 84, 0
1, 36720, Note_on_c, 0, 81, 80
1, 36720, Note_on_c, 1, 52, 70
1, 36743, Note_on_c, 1, 52, 0
1, 36744, Note_on_c, 1, 57, 70
1, 36767, Note_on_c, 1, 57, 0
1, 36768, Note_on_c, 0, 81, 0
1, 36768, Note_on_c, 0, 78, 80
1, 36768, Note_on_c, 1, 50, 70
1, 36791, Note_on_c, 1, 50, 0
1, 36792, Note_on_c, 1, 60, 70
1, 36813, Note_on_c, 0, 78, 0
1, 36815, Note_on_c, 1, 60, 0
1, 36816, Note_on_c, 0, 78, 80
1, 36816, Note_on_c, 1, 57, 70
1, 36836, Note_on_c, 0, 78, 0
1, 36839, Note_on_c, 1, 57, 0
1, 36840, Note_on_c, 1, 60, 70
1, 36863, Note_on_c, 1, 60, 0
1, 36864, Note_on_c, 0, 79, 80
1, 36864, Note_on_c, 1, 50, 70
1, 36887, Note_on_c, 0, 79, 0
1, 36887, Note_on_c, 1, 50, 0
1, 36888, Note_on_c, 0, 78, 80
1, 36888, Note_on_c, 1, 60, 70
1, 36911, Note_on_c, 0, 78, 0
1, 36911, Note_on_c, 1, 60, 0
1, 36912, Note_on_c, 0, 76, 80
1, 36912, Note_on_c, 1, 57, 70
1, 36935, Note_on_c, 0, 76, 0
1, 36935, Note_on_c, 1, 57, 0
1, 36936, Note_on_c, 0, 74, 80
1, 36936, Note_on_c, 1, 60, 70
1, 36959, Note_on_c, 0, 74, 0
1, 36959, Note_on_c, 1, 60, 0
1, 36960, Note_on_c, 0, 79, 80
1, 36960, Note_on_c, 1, 59, 70
1, 36960, Note_on_c, 1, 55, 70
1, 37049, Note_on_c, 0, 79, 0
1, 37049, Note_on_c, 1, 59, 0
1, 37049, Note_on_c, 1, 55, 0
1, 37056, Note_on_c, 1, 43, 70
1, 37101, Note_on_c, 1, 43, 0
1, 37104, Note_on_c, 0, 83, 80
1, 37149, Note_on_c, 0, 83, 0
1, 37152, Note_on_c, 0, 83, 80
1, 37152, Note_on_c, 1, 59, 70
1, 37175, Note_on_c, 1, 59, 0
1, 37176, Note_on_c, 1, 67, 70
1, 37199, Note_on_c, 1, 67, 0
1, 37200, Note_on_c, 1, 62, 70
1, 37219, Note_on_c, 0, 83, 0
1, 37223, Note_on_c, 1, 62, 0
1, 37224, Note_on_c, 0, 84, 80
1, 37224, Note_on_c, 1, 67, 70
1, 37247, Note_on_c, 0, 84, 0
1, 37247, Note_on_c, 1, 67, 0
1, 37248, Note_on_c, 0, 86, 80
1, 37248, Note_on_c, 1, 59, 70
1, 37271, Note_on_c, 1, 59, 0
1, 37272, Note_on_c, 1, 67, 70
1, 37293, Note_on_c, 0, 86, 0
1, 37295, Note_on_c, 1, 67, 0
1, 37296, Note_on_c, 0, 86, 80
1, 37296, Note_on_c, 1, 62, 70
1, 37316, Note_on_c, 0, 86, 0
1, 37319, Note_on_c, 1, 62, 0
1, 37320, Note_on_c, 1, 67, 70
1, 37343, Note_on_c, 1, 67, 0
1, 37344, Note_on_c, 0, 86, 80
1, 37344, Note_on_c, 1, 60, 70
1, 37367, Note_on_c, 1, 60, 0
1, 37368, Note_on_c, 1, 67, 70
1, 37391, Note_on_c, 1, 67, 0
1, 37392, Note_on_c, 0, 86, 0
1, 37392, Note_on_c, 0, 76, 80
1, 37392, Note_on_c, 1, 64, 70
1, 37415, Note_on_c, 1, 64, 0
1, 37416, Note_on_c, 1, 67, 70
1, 37437, Note_on_c, 0, 76, 0
1, 37439, Note_on_c, 1, 67, 0
1, 37440, Note_on_c, 1, 60, 70
1, 37463, Note_on_c, 1, 60, 0
1, 37464, Note_on_c, 1, 67, 70
1, 37487, Note_on_c, 1, 67, 0
1, 37488, Note_on_c, 0, 76, 80
1, 37488, Note_on_c, 1, 64, 70
1, 37511, Note_on_c, 1, 64, 0
1, 37512, Note_on_c, 1, 67, 70
1, 37533, Note_on_c, 0, 76, 0
1, 37535, Note_on_c, 1, 67, 0
1, 37536, Note_on_c, 0, 81, 80
1, 37536, Note_on_c, 1, 57, 70
1, 37559, Note_on_c, 1, 57, 0
1, 37560, Note_on_c, 1, 66, 70
1, 37583, Note_on_c, 1, 66, 0
1, 37584, Note_on_c, 1, 60, 70
1, 37603, Note_on_c, 0, 81, 0
1, 37607, Note_on_c, 1, 60, 0
1, 37608, Note_on_c, 0, 83, 80
1, 37608, Note_on_c, 1, 66, 70
1, 37631, Note_on_c, 0, 83, 0
1, 37631, Note_on_c, 1, 66, 0
1, 37632, Note_on_c, 0, 84, 80
1, 37632, Note_on_c, 1, 57, 70
1, 37655, Note_on_c, 1, 57, 0
1, 37656, Note_on_c, 1, 66, 70
1, 37677, Note_on_c, 0, 84, 0
1, 37679, Note_on_c, 1, 66, 0
1, 37680, Note_on_c, 0, 84, 80
1, 37680, Note_on_c, 1, 60, 70
1, 37700, Note_on_c, 0, 84, 0
1, 37703, Note_on_c, 1, 60, 0
1, 37704, Note_on_c, 1, 66, 70
1, 37727, Note_on_c, 1, 66, 0
1, 37728, Note_on_c, 0, 84, 80
1, 37728, Note_on_c, 1, 59, 70
1, 37751, Note_on_c, 1, 59, 0
1, 37752, Note_on_c, 1, 66, 70
1, 37775, Note_on_c, 1, 66, 0
1, 37776, Note_on_c, 0, 84, 0
1, 37776, Note_on_c, 0, 75, 80
1, 37776, Note_on_c, 1, 63, 70
1, 37799, Note_on_c, 1, 63, 0
1, 37800, Note_on_c, 1, 66, 70
1, 37821, Note_on_c, 0, 75, 0
1, 37823, Note_on_c, 1, 66, 0
1, 37824, Note_on_c, 1, 57, 70
1, 37847, Note_on_c, 1, 57, 0
1, 37848, Note_on_c, 1, 63, 70
1, 37871, Note_on_c, 1, 63, 0
1, 37872, Note_on_c, 0, 71, 75
1, 37872, Note_on_c, 1, 59, 70
1, 37895, Note_on_c, 1, 59, 0
1, 37896, Note_on_c, 1, 63, 70
1, 37919, Note_on_c, 1, 63, 0
1, 37920, Note_on_c, 0, 71, 0
1, 37920, Note_on_c, 0, 76, 75
1, 37920, Note_on_c, 1, 55, 70
1, 37943, Note_on_c, 1, 55, 0
1, 37944, Note_on_c, 1, 64, 70
1, 37965, Note_on_c, 0, 76, 0
1, 37967, Note_on_c, 1, 64, 0
1, 37968, Note_on_c, 0, 76, 75
1, 37968, Note_on_c, 1, 59, 70
1, 37991, Note_on_c, 1, 59, 0
1, 37992, Note_on_c, 1, 64, 70
1, 38015, Note_on_c, 1, 64, 0
1, 38016, Note_on_c, 0, 76, 0
1, 38016, Note_on_c, 0, 78, 75
1, 38016, Note_on_c, 1, 51, 70
1, 38036, Note_on_c, 0, 78, 0
1, 38039, Note_on_c, 1, 51, 0
1, 38040, Note_on_c, 1, 59, 70
1, 38063, Note_on_c, 1, 59, 0
1, 38064, Note_on_c, 0, 78, 75
1, 38064, Note_on_c, 1, 54, 70
1, 38087, Note_on_c, 1, 54, 0
1, 38088, Note_on_c, 1, 59, 70
1, 38109, Note_on_c, 0, 78, 0
1, 38111, Note_on_c, 1, 59, 0
1, 38112, Note_on_c, 0, 81, 75
1, 38112, Note_on_c, 1, 52, 70
1, 38135, Note_on_c, 1, 52, 0
1, 38136, Note_on_c, 1, 59, 70
1, 38157, Note_on_c, 0, 81, 0
1, 38159, Note_on_c, 1, 59, 0
1, 38160, Note_on_c, 0, 79, 75
1, 38160, Note_on_c, 1, 55, 70
1, 38172, Note_on_c, 0, 79, 0
1, 38172, Note_on_c, 0, 81, 75
1, 38183, Note_on_c, 1, 55, 0
1, 38184, Note_on_c, 0, 81, 0
1, 38184, Note_on_c, 0, 79, 75
1, 38184, Note_on_c, 1, 59, 70
1, 38196, Note_on_c, 0, 79, 0
1, 38196, Note_on_c, 0, 81, 75
1, 38205, Note_on_c, 0, 81, 0
1, 38207, Note_on_c, 1, 59, 0
1, 38208, Note_on_c, 0, 78, 75
1, 38208, Note_on_c, 1, 47, 70
1, 38231, Note_on_c, 1, 47, 0
1, 38232, Note_on_c, 1, 59, 70
1, 38253, Note_on_c, 0, 78, 0
1, 38255, Note_on_c, 1, 59, 0
1, 38256, Note_on_c, 0, 83, 75
1, 38256, Note_on_c, 1, 51, 70
1, 38279, Note_on_c, 1, 51, 0
1, 38280, Note_on_c, 1, 59, 70
1, 38303, Note_on_c, 1, 59, 0
1, 38304, Note_on_c, 0, 83, 0
1, 38304, Note_on_c, 0, 76, 75
1, 38304, Note_on_c, 1, 48, 70
1, 38324, Note_on_c, 0, 76, 0
1, 38327, Note_on_c, 1, 48, 0
1, 38328, Note_on_c, 1, 59, 70
1, 38351, Note_on_c, 1, 59, 0
1, 38352, Note_on_c, 0, 76, 75
1, 38352, Note_on_c, 1, 55, 70
1, 38375, Note_on_c, 1, 55, 0
1, 38376, Note_on_c, 1, 59, 70
1, 38399, Note_on_c, 1, 59, 0
1, 38400, Note_on_c, 0, 76, 0
1, 38400, Note_on_c, 0, 84, 75
1, 38400, Note_on_c, 1, 48, 70
1, 38420, Note_on_c, 0, 84, 0
1, 38423, Note_on_c, 1, 48, 0
1, 38424, Note_on_c, 1, 57, 70
1, 38447, Note_on_c, 1, 57, 0
1, 38448, Note_on_c, 0, 84, 75
1, 38448, Note_on_c, 1, 55, 70
1, 38471, Note_on_c, 1, 55, 0
1, 38472, Note_on_c, 1, 57, 70
1, 38495, Note_on_c, 1, 57, 0
1, 38496, Note_on_c, 0, 84, 0
1, 38496, Note_on_c, 0, 75, 75
1, 38496, Note_on_c, 1, 47, 70
1, 38519, Note_on_c, 1, 47, 0
1, 38520, Note_on_c, 1, 57, 70
1, 38543, Note_on_c, 1, 57, 0
1, 38544, Note_on_c, 1, 54, 70
1, 38567, Note_on_c, 1, 54, 0
1, 38568, Note_on_c, 1, 57, 70
1, 38591, Note_on_c, 1, 57, 0
1, 38592, Note_on_c, 0, 75, 0
1, 38592, Note_on_c, 0, 76, 75
1, 38592, Note_on_c, 1, 48, 70
1, 38615, Note_on_c, 1, 48, 0
1, 38616, Note_on_c, 1, 55, 70
1, 38637, Note_on_c, 0, 76, 0
1, 38639, Note_on_c, 1, 55, 0
1, 38640, Note_on_c, 0, 76, 75
1, 38640, Note_on_c, 1, 52, 70
1, 38663, Note_on_c, 1, 52, 0
1, 38664, Note_on_c, 1, 55, 70
1, 38687, Note_on_c, 1, 55, 0
1, 38688, Note_on_c, 0, 76, 0
1, 38688, Note_on_c, 0, 78, 75
1, 38688, Note_on_c, 1, 45, 70
1, 38711, Note_on_c, 1, 45, 0
1, 38712, Note_on_c, 1, 54, 70
1, 38733, Note_on_c, 0, 78, 0
1, 38735, Note_on_c, 1, 54, 0
1, 38736, Note_on_c, 0, 78, 75
1, 38736, Note_on_c, 1, 48, 70
1, 38756, Note_on_c, 0, 78, 0
1, 38759, Note_on_c, 1, 48, 0
1, 38760, Note_on_c, 1, 54, 70
1, 38783, Note_on_c, 1, 54, 0
1, 38784, Note_on_c, 0, 76, 75
1, 38784, Note_on_c, 1, 47, 70
1, 38807, Note_on_c, 0, 76, 0
1, 38807, Note_on_c, 1, 47, 0
1, 38808, Note_on_c, 0, 75, 75
1, 38808, Note_on_c, 1, 57, 70
1, 38831, Note_on_c, 0, 75, 0
1, 38831, Note_on_c, 1, 57, 0
1, 38832, Note_on_c, 0, 73, 75
1, 38832, Note_on_c, 1, 54, 70
1, 38855, Note_on_c, 0, 73, 0
1, 38855, Note_on_c, 1, 54, 0
1, 38856, Note_on_c, 0, 71, 75
1, 38856, Note_on_c, 1, 57, 70
1, 38879, Note_on_c, 0, 71, 0
1, 38879, Note_on_c, 1, 57, 0
1, 38880, Note_on_c, 0, 76, 75
1, 38880, Note_on_c, 1, 55, 70
1, 38880, Note_on_c, 1, 52, 70
1, 38969, Note_on_c, 0, 76, 0
1, 38969, Note_on_c, 1, 55, 0
1, 38969, Note_on_c, 1, 52, 0
1, 38976, Note_on_c, 1, 40, 70
1, 39021, Note_on_c, 1, 40, 0
1, 39024, Note_on_c, 0, 83, 80
1, 39069, Note_on_c, 0, 83, 0
1, 39072, Note_on_c, 0, 83, 80
1, 39072, Note_on_c, 1, 59, 70
1, 39095, Note_on_c, 0, 83, 0
1, 39095, Note_on_c, 1, 59, 0
1, 39096, Note_on_c, 0, 86, 80
1, 39096, Note_on_c, 1, 67, 70
1, 39119, Note_on_c, 0, 86, 0
1, 39119, Note_on_c, 1, 67, 0
1, 39120, Note_on_c, 0, 84, 80
1, 39120, Note_on_c, 1, 62, 70
1, 39143, Note_on_c, 0, 84, 0
1, 39143, Note_on_c, 1, 62, 0
1, 39144, Note_on_c, 0, 88, 80
1, 39144, Note_on_c, 1, 67, 70
1, 39167, Note_on_c, 0, 88, 0
1, 39167, Note_on_c, 1, 67, 0
1, 39168, Note_on_c, 0, 86, 80
1, 39168, Note_on_c, 1, 59, 70
1, 39191, Note_on_c, 1, 59, 0
1, 39192, Note_on_c, 1, 67, 70
1, 39213, Note_on_c, 0, 86, 0
1, 39215, Note_on_c, 1, 67, 0
1, 39216, Note_on_c, 0, 86, 80
1, 39216, Note_on_c, 1, 62, 70
1, 39239, Note_on_c, 1, 62, 0
1, 39240, Note_on_c, 1, 67, 70
1, 39261, Note_on_c, 0, 86, 0
1, 39263, Note_on_c, 1, 67, 0
1, 39264, Note_on_c, 0, 86, 80
1, 39264, Note_on_c, 1, 60, 70
1, 39287, Note_on_c, 0, 86, 0
1, 39287, Note_on_c, 1, 60, 0
1, 39288, Note_on_c, 0, 76, 80
1, 39288, Note_on_c, 1, 67, 70
1, 39311, Note_on_c, 0, 76, 0
1, 39311, Note_on_c, 1, 67, 0
1, 39312, Note_on_c, 0, 75, 80
1, 39312, Note_on_c, 1, 64, 70
1, 39335, Note_on_c, 0, 75, 0
1, 39335, Note_on_c, 1, 64, 0
1, 39336, Note_on_c, 0, 76, 80
1, 39336, Note_on_c, 1, 67, 70
1, 39359, Note_on_c, 0, 76, 0
1, 39359, Note_on_c, 1, 67, 0
1, 39360, Note_on_c, 0, 75, 80
1, 39360, Note_on_c, 1, 60, 70
1, 39383, Note_on_c, 0, 75, 0
1, 39383, Note_on_c, 1, 60, 0
1, 39384, Note_on_c, 0, 76, 80
1, 39384, Note_on_c, 1, 67, 70
1, 39407, Note_on_c, 0, 76, 0
1, 39407, Note_on_c, 1, 67, 0
1, 39408, Note_on_c, 0, 75, 80
1, 39408, Note_on_c, 1, 64, 70
1, 39431, Note_on_c, 0, 75, 0
1, 39431, Note_on_c, 1, 64, 0
1, 39432, Note_on_c, 0, 76, 80
1, 39432, Note_on_c, 1, 67, 70
1, 39455, Note_on_c, 0, 76, 0
1, 39455, Note_on_c, 1, 67, 0
1, 39456, Note_on_c, 0, 83, 80
1, 39456, Note_on_c, 1, 57, 70
1, 39468, Note_on_c, 0, 83, 0
1, 39468, Note_on_c, 0, 81, 80
1, 39479, Note_on_c, 1, 57, 0
1, 39480, Note_on_c, 0, 81, 0
1, 39480, Note_on_c, 0, 79, 80
1, 39480, Note_on_c, 1, 66, 70
1, 39492, Note_on_c, 0, 79, 0
1, 39492, Note_on_c, 0, 81, 80
1, 39503, Note_on_c, 1, 66, 0
1, 39504, Note_on_c, 1, 60, 70
1, 39523, Note_on_c, 0, 81, 0
1, 39527, Note_on_c, 1, 60, 0
1, 39528, Note_on_c, 0, 83, 80
1, 39528, Note_on_c, 1, 66, 70
1, 39551, Note_on_c, 0, 83, 0
1, 39551, Note_on_c, 1, 66, 0
1, 39552, Note_on_c, 0, 84, 80
1, 39552, Note_on_c, 1, 57, 70
1, 39575, Note_on_c, 1, 57, 0
1, 39576, Note_on_c, 1, 66, 70
1, 39597, Note_on_c, 0, 84, 0
1, 39599, Note_on_c, 1, 66, 0
1, 39600, Note_on_c, 0, 84, 80
1, 39600, Note_on_c, 1, 60, 70
1, 39623, Note_on_c, 1, 60, 0
1, 39624, Note_on_c, 1, 66, 70
1, 39645, Note_on_c, 0, 84, 0
1, 39647, Note_on_c, 1, 66, 0
1, 39648, Note_on_c, 0, 84, 80
1, 39648, Note_on_c, 1, 59, 70
1, 39671, Note_on_c, 1, 59, 0
1, 39672, Note_on_c, 1, 66, 70
1, 39695, Note_on_c, 1, 66, 0
1, 39696, Note_on_c, 1, 62, 70
1, 39719, Note_on_c, 1, 62, 0
1, 39720, Note_on_c, 1, 66, 70
1, 39743, Note_on_c, 1, 66, 0
1, 39744, Note_on_c, 0, 84, 0
1, 39744, Note_on_c, 0, 74, 80
1, 39744, Note_on_c, 1, 59, 70
1, 39767, Note_on_c, 1, 59, 0
1, 39768, Note_on_c, 1, 66, 70
1, 39789, Note_on_c, 0, 74, 0
1, 39791, Note_on_c, 1, 66, 0
1, 39792, Note_on_c, 0, 74, 75
1, 39792, Note_on_c, 1, 62, 70
1, 39812, Note_on_c, 0, 74, 0
1, 39815, Note_on_c, 1, 62, 0
1, 39816, Note_on_c, 1, 66, 70
1, 39839, Note_on_c, 1, 66, 0
1, 39840, Note_on_c, 0, 79, 75
1, 39840, Note_on_c, 1, 55, 70
1, 39863, Note_on_c, 0, 79, 0
1, 39863, Note_on_c, 1, 55, 0
1, 39864, Note_on_c, 0, 78, 75
1, 39864, Note_on_c, 1, 64, 70
1, 39887, Note_on_c, 0, 78, 0
1, 39887, Note_on_c, 1, 64, 0
1, 39888, Note_on_c, 0, 81, 75
1, 39888, Note_on_c, 1, 59, 70
1, 39911, Note_on_c, 0, 81, 0
1, 39911, Note_on_c, 1, 59, 0
1, 39912, Note_on_c, 0, 79, 75
1, 39912, Note_on_c, 1, 64, 70
1, 39935, Note_on_c, 0, 79, 0
1, 39935, Note_on_c, 1, 64, 0
1, 39936, Note_on_c, 0, 83, 75
1, 39936, Note_on_c, 1, 55, 70
1, 39959, Note_on_c, 1, 55, 0
1, 39960, Note_on_c, 1, 64, 70
1, 39981, Note_on_c, 0, 83, 0
1, 39983, Note_on_c, 1, 64, 0
1, 39984, Note_on_c, 0, 83, 75
1, 39984, Note_on_c, 1, 59, 70
1, 40007, Note_on_c, 1, 59, 0
1, 40008, Note_on_c, 1, 64, 70
1, 40029, Note_on_c, 0, 83, 0
1, 40031, Note_on_c, 1, 64, 0
1, 40032, Note_on_c, 0, 83, 75
1, 40032, Note_on_c, 1, 57, 70
1, 40055, Note_on_c, 0, 83, 0
1, 40055, Note_on_c, 1, 57, 0
1, 40056, Note_on_c, 0, 72, 75
1, 40056, Note_on_c, 1, 64, 70
1, 40079, Note_on_c, 0, 72, 0
1, 40079, Note_on_c, 1, 64, 0
1, 40080, Note_on_c, 0, 71, 75
1, 40080, Note_on_c, 1, 60, 70
1, 40103, Note_on_c, 0, 71, 0
1, 40103, Note_on_c, 1, 60, 0
1, 40104, Note_on_c, 0, 72, 75
1, 40104, Note_on_c, 1, 64, 70
1, 40127, Note_on_c, 0, 72, 0
1, 40127, Note_on_c, 1, 64, 0
1, 40128, Note_on_c, 0, 74, 75
1, 40128, Note_on_c, 1, 57, 70
1, 40151, Note_on_c, 0, 74, 0
1, 40151, Note_on_c, 1, 57, 0
1, 40152, Note_on_c, 0, 72, 75
1, 40152, Note_on_c, 1, 64, 70
1, 40175, Note_on_c, 0, 72, 0
1, 40175, Note_on_c, 1, 64, 0
1, 40176, Note_on_c, 0, 71, 75
1, 40176, Note_on_c, 1, 60, 70
1, 40199, Note_on_c, 0, 71, 0
1, 40199, Note_on_c, 1, 60, 0
1, 40200, Note_on_c, 0, 72, 75
1, 40200, Note_on_c, 1, 64, 70
1, 40223, Note_on_c, 0, 72, 0
1, 40223, Note_on_c, 1, 64, 0
1, 40224, Note_on_c, 0, 78, 75
1, 40224, Note_on_c, 1, 54, 70
1, 40247, Note_on_c, 1, 54, 0
1, 40248, Note_on_c, 1, 62, 70
1, 40271, Note_on_c, 1, 62, 0
1, 40272, Note_on_c, 1, 57, 70
1, 40291, Note_on_c, 0, 78, 0
1, 40295, Note_on_c, 1, 57, 0
1, 40296, Note_on_c, 0, 79, 75
1, 40296, Note_on_c, 1, 62, 70
1, 40319, Note_on_c, 0, 79, 0
1, 40319, Note_on_c, 1, 62, 0
1, 40320, Note_on_c, 0, 81, 75
1, 40320, Note_on_c, 1, 54, 70
1, 40343, Note_on_c, 1, 54, 0
1, 40344, Note_on_c, 1, 62, 70
1, 40365, Note_on_c, 0, 81, 0
1, 40367, Note_on_c, 1, 62, 0
1, 40368, Note_on_c, 0, 81, 75
1, 40368, Note_on_c, 1, 57, 70
1, 40391, Note_on_c, 1, 57, 0
1, 40392, Note_on_c, 1, 62, 70
1, 40413, Note_on_c, 0, 81, 0
1, 40415, Note_on_c, 1, 62, 0
1, 40416, Note_on_c, 0, 81, 75
1, 40416, Note_on_c, 1, 55, 70
1, 40439, Note_on_c, 1, 55, 0
1, 40440, Note_on_c, 1, 62, 70
1, 40461, Note_on_c, 0, 81, 0
1, 40463, Note_on_c, 1, 62, 0
1, 40464, Note_on_c, 0, 71, 75
1, 40464, Note_on_c, 1, 59, 70
1, 40487, Note_on_c, 1, 59, 0
1, 40488, Note_on_c, 1, 62, 70
1, 40509, Note_on_c, 0, 71, 0
1, 40511, Note_on_c, 1, 62, 0
1, 40512, Note_on_c, 0, 79, 75
1, 40512, Note_on_c, 1, 47, 70
1, 40535, Note_on_c, 1, 47, 0
1, 40536, Note_on_c, 1, 55, 70
1, 40557, Note_on_c, 0, 79, 0
1, 40559, Note_on_c, 1, 55, 0
1, 40560, Note_on_c, 0, 74, 75
1, 40560, Note_on_c, 1, 50, 70
1, 40583, Note_on_c, 1, 50, 0
1, 40584, Note_on_c, 1, 55, 70
1, 40605, Note_on_c, 0, 74, 0
1, 40607, Note_on_c, 1, 55, 0
1, 40608, Note_on_c, 0, 76, 75
1, 40608, Note_on_c, 1, 48, 70
1, 40631, Note_on_c, 1, 48, 0
1, 40632, Note_on_c, 1, 55, 70
1, 40653, Note_on_c, 0, 76, 0
1, 40655, Note_on_c, 1, 55, 0
1, 40656, Note_on_c, 0, 69, 75
1, 40656, Note_on_c, 1, 52, 70
1, 40679, Note_on_c, 1, 52, 0
1, 40680, Note_on_c, 1, 55, 70
1, 40701, Note_on_c, 0, 69, 0
1, 40703, Note_on_c, 1, 55, 0
1, 40704, Note_on_c, 0, 72, 75
1, 40704, Note_on_c, 1, 50, 70
1, 40727, Note_on_c, 1, 50, 0
1, 40728, Note_on_c, 1, 60, 70
1, 40749, Note_on_c, 0, 72, 0
1, 40751, Note_on_c, 1, 60, 0
1, 40752, Note_on_c, 0, 66, 75
1, 40752, Note_on_c, 1, 57, 70
1, 40775, Note_on_c, 1, 57, 0
1, 40776, Note_on_c, 1, 60, 70
1, 40797, Note_on_c, 0, 66, 0
1, 40799, Note_on_c, 1, 60, 0
1, 40800, Tempo, 500000
1, 40800, Note_on_c, 0, 69, 75
1, 40800, Note_on_c, 1, 60, 70
1, 40800, Note_on_c, 1, 55, 70
1, 40896, Note_on_c, 0, 69, 0
1, 40896, Note_on_c, 0, 67, 75
1, 40896, Note_on_c, 1, 60, 0
1, 40896, Note_on_c, 1, 59, 70
1, 40941, Note_on_c, 0, 67, 0
1, 40941, Note_on_c, 1, 59, 0
1, 40941, Note_on_c, 1, 55, 0
1, 40944, Tempo, 480000
1, 40944, Note_on_c, 0, 67, 75
1, 40989, Note_on_c, 0, 67, 0
1, 40992, Note_on_c, 0, 67, 75
1, 40992, Note_on_c, 1, 52, 70
1, 41015, Note_on_c, 1, 52, 0
1, 41016, Note_on_c, 1, 59, 70
1, 41039, Note_on_c, 1, 59, 0
1, 41040, Note_on_c, 1, 55, 70
1, 41059, Note_on_c, 0, 67, 0
1, 41063, Note_on_c, 1, 55, 0
1, 41064, Note_on_c, 0, 69, 75
1, 41064, Note_on_c, 1, 59, 70
1, 41087, Note_on_c, 0, 69, 0
1, 41087, Note_on_c, 1, 59, 0
1, 41088, Note_on_c, 0, 71, 75
1, 41088, Note_on_c, 1, 52, 70
1, 41111, Note_on_c, 1, 52, 0
1, 41112, Note_on_c, 1, 59, 70
1, 41133, Note_on_c, 0, 71, 0
1, 41135, Note_on_c, 1, 59, 0
1, 41136, Note_on_c, 0, 76, 75
1, 41136, Note_on_c, 1, 55, 70
1, 41156, Note_on_c, 0, 76, 0
1, 41159, Note_on_c, 1, 55, 0
1, 41160, Note_on_c, 1, 59, 70
1, 41183, Note_on_c, 1, 59, 0
1, 41184, Note_on_c, 0, 75, 75
1, 41184, Note_on_c, 1, 54, 70
1, 41207, Note_on_c, 1, 54, 0
1, 41208, Note_on_c, 1, 59, 70
1, 41231, Note_on_c, 1, 59, 0
1, 41232, Note_on_c, 0, 75, 0
1, 41232, Note_on_c, 0, 78, 75
1, 41232, Note_on_c, 1, 57, 70
1, 41255, Note_on_c, 1, 57, 0
1, 41256, Note_on_c, 1, 59, 70
1, 41277, Note_on_c, 0, 78, 0
1, 41279, Note_on_c, 1, 59, 0
1, 41280, Note_on_c, 1, 54, 70
1, 41303, Note_on_c, 1, 54, 0
1, 41304, Note_on_c, 1, 59, 70
1, 41327, Note_on_c, 1, 59, 0
1, 41328, Note_on_c, 0, 71, 75
1, 41328, Note_on_c, 1, 57, 70
1, 41351, Note_on_c, 1, 57, 0
1, 41352, Note_on_c, 1, 59, 70
1, 41373, Note_on_c, 0, 71, 0
1, 41375, Note_on_c, 1, 59, 0
1, 41376, Note_on_c, 1, 52, 70
1, 41399, Note_on_c, 1, 52, 0
1, 41400, Note_on_c, 1, 59, 70
1, 41423, Note_on_c, 1, 59, 0
1, 41424, Note_on_c, 0, 76, 75
1, 41424, Note_on_c, 1, 55, 70
1, 41447, Note_on_c, 1, 55, 0
1, 41448, Note_on_c, 1, 59, 70
1, 41469, Note_on_c, 0, 76, 0
1, 41471, Note_on_c, 1, 59, 0
1, 41472, Note_on_c, 1, 51, 70
1, 41495, Note_on_c, 1, 51, 0
1, 41496, Note_on_c, 1, 59, 70
1, 41519, Note_on_c, 1, 59, 0
1, 41520, Note_on_c, 0, 78, 75
1, 41520, Note_on_c, 1, 54, 70
1, 41540, Note_on_c, 0, 78, 0
1, 41543, Note_on_c, 1, 54, 0
1, 41544, Note_on_c, 1, 59, 70
1, 41567, Note_on_c, 1, 59, 0
1, 41568, Note_on_c, 0, 81, 75
1, 41568, Note_on_c, 1, 52, 70
1, 41591, Note_on_c, 1, 52, 0
1, 41592, Note_on_c, 1, 59, 70
1, 41613, Note_on_c, 0, 81, 0
1, 41615, Note_on_c, 1, 59, 0
1, 41616, Note_on_c, 0, 79, 75
1, 41616, Note_on_c, 1, 55, 70
1, 41628, Note_on_c, 0, 79, 0
1, 41628, Note_on_c, 0, 81, 75
1, 41639, Note_on_c, 1, 55, 0
1, 41640, Note_on_c, 0, 81, 0
1, 41640, Note_on_c, 0, 79, 75
1, 41640, Note_on_c, 1, 59, 70
1, 41652, Note_on_c, 0, 79, 0
1, 41652, Note_on_c, 0, 81, 75
1, 41661, Note_on_c, 0, 81, 0
1, 41663, Note_on_c, 1, 59, 0
1, 41664, Note_on_c, 0, 78, 75
1, 41664, Note_on_c, 1, 47, 70
1, 41687, Note_on_c, 1, 47, 0
1, 41688, Note_on_c, 1, 59, 70
1, 41709, Note_on_c, 0, 78, 0
1, 41711, Note_on_c, 1, 59, 0
1, 41712, Note_on_c, 0, 83, 75
1, 41712, Note_on_c, 1, 51, 70
1, 41735, Note_on_c, 1, 51, 0
1, 41736, Note_on_c, 1, 59, 70
1, 41759, Note_on_c, 1, 59, 0
1, 41760, Note_on_c, 0, 83, 0
1, 41760, Note_on_c, 0, 76, 75
1, 41760, Note_on_c, 1, 48, 70
1, 41780, Note_on_c, 0, 76, 0
1, 41783, Note_on_c, 1, 48, 0
1, 41784, Note_on_c, 1, 59, 70
1, 41807, Note_on_c, 1, 59, 0
1, 41808, Note_on_c, 0, 76, 75
1, 41808, Note_on_c, 1, 55, 70
1, 41831, Note_on_c, 1, 55, 0
1, 41832, Note_on_c, 1, 59, 70
1, 41855, Note_on_c, 1, 59, 0
1, 41856, Note_on_c, 0, 76, 0
1, 41856, Note_on_c, 0, 84, 75
1, 41856, Note_on_c, 1, 48, 70
1, 41876, Note_on_c, 0, 84, 0
1, 41879, Note_on_c, 1, 48, 0
1, 41880, Note_on_c, 1, 57, 70
1, 41903, Note_on_c, 1, 57, 0
1, 41904, Note_on_c, 0, 84, 75
1, 41904, Note_on_c, 1, 55, 70
1, 41927, Note_on_c, 1, 55, 0
1, 41928, Note_on_c, 1, 57, 70
1, 41951, Note_on_c, 1, 57, 0
1, 41952, Note_on_c, 0, 84, 0
1, 41952, Note_on_c, 0, 75, 75
1, 41952, Note_on_c, 1, 47, 70
1, 41975, Note_on_c, 1, 47, 0
1, 41976, Note_on_c, 1, 57, 70
1, 41999, Note_on_c, 1, 57, 0
1, 42000, Note_on_c, 1, 54, 70
1, 42023, Note_on_c, 1, 54, 0
1, 42024, Note_on_c, 1, 57, 70
1, 42047, Note_on_c, 1, 57, 0
1, 42048, Note_on_c, 0, 75, 0
1, 42048, Note_on_c, 0, 76, 75
1, 42048, Note_on_c, 1, 48, 70
1, 42071, Note_on_c, 1, 48, 0
1, 42072, Note_on_c, 1, 55, 70
1, 42093, Note_on_c, 0, 76, 0
1, 42095, Note_on_c, 1, 55, 0
1, 42096, Note_on_c, 0, 76, 75
1, 42096, Note_on_c, 1, 52, 70
1, 42119, Note_on_c, 1, 52, 0
1, 42120, Note_on_c, 1, 55, 70
1, 42143, Note_on_c, 1, 55, 0
1, 42144, Note_on_c, 0, 76, 0
1, 42144, Note_on_c, 0, 78, 75
1, 42144, Note_on_c, 1, 45, 70
1, 42167, Note_on_c, 1, 45, 0
1, 42168, Note_on_c, 1, 54, 70
1, 42189, Note_on_c, 0, 78, 0
1, 42191, Note_on_c, 1, 54, 0
1, 42192, Note_on_c, 0, 78, 75
1, 42192, Note_on_c, 1, 48, 70
1, 42212, Note_on_c, 0, 78, 0
1, 42215, Note_on_c, 1, 48, 0
1, 42216, Note_on_c, 1, 54, 70
1, 42239, Note_on_c, 1, 54, 0
1, 42240, Note_on_c, 0, 76, 75
1, 42240, Note_on_c, 1, 47, 70
1, 42263, Note_on_c, 0, 76, 0
1, 42263, Note_on_c, 1, 47, 0
1, 42264, Note_on_c, 0, 75, 75
1, 42264, Note_on_c, 1, 57, 70
1, 42287, Note_on_c, 0, 75, 0
1, 42287, Note_on_c, 1, 57, 0
1, 42288, Note_on_c, 0, 73, 75
1, 42288, Note_on_c, 1, 54, 70
1, 42311, Note_on_c, 0, 73, 0
1, 42311, Note_on_c, 1, 54, 0
1, 42312, Note_on_c, 0, 71, 75
1, 42312, Note_on_c, 1, 57, 70
1, 42335, Note_on_c, 0, 71, 0
1, 42335, Note_on_c, 1, 57, 0
1, 42336, Note_on_c, 0, 76, 75
1, 42336, Note_on_c, 1, 55, 70
1, 42336, Note_on_c, 1, 52, 70
1, 42425, Note_on_c, 0, 76, 0
1, 42425, Note_on_c, 1, 55, 0
1, 42425, Note_on_c, 1, 52, 0
1, 42432, Note_on_c, 1, 40, 70
1, 42477, Note_on_c, 1, 40, 0
1, 42480, Note_on_c, 0, 80, 75
1, 42525, Note_on_c, 0, 80, 0
1, 42528, Note_on_c, 0, 80, 75
1, 42528, Note_on_c, 1, 64, 70
1, 42551, Note_on_c, 1, 64, 0
1, 42552, Note_on_c, 1, 71, 70
1, 42575, Note_on_c, 1, 71, 0
1, 42576, Note_on_c, 1, 68, 70
1, 42595, Note_on_c, 0, 80, 0
1, 42599, Note_on_c, 1, 68, 0
1, 42600, Note_on_c, 0, 81, 75
1, 42600, Note_on_c, 1, 71, 70
1, 42623, Note_on_c, 0, 81, 0
1, 42623, Note_on_c, 1, 71, 0
1, 42624, Note_on_c, 0, 83, 75
1, 42624, Note_on_c, 1, 64, 70
1, 42647, Note_on_c, 1, 64, 0
1, 42648, Note_on_c, 1, 71, 70
1, 42669, Note_on_c, 0, 83, 0
1, 42671, Note_on_c, 1, 71, 0
1, 42672, Note_on_c, 0, 76, 75
1, 42672, Note_on_c, 1, 68, 70
1, 42692, Note_on_c, 0, 76, 0
1, 42695, Note_on_c, 1, 68, 0
1, 42696, Note_on_c, 1, 71, 70
1, 42719, Note_on_c, 1, 71, 0
1, 42720, Note_on_c, 0, 75, 75
1, 42720, Note_on_c, 1, 59, 70
1, 42743, Note_on_c, 1, 59, 0
1, 42744, Note_on_c, 1, 69, 70
1, 42767, Note_on_c, 1, 69, 0
1, 42768, Note_on_c, 0, 75, 0
1, 42768, Note_on_c, 0, 78, 75
1, 42768, Note_on_c, 1, 66, 70
1, 42791, Note_on_c, 1, 66, 0
1, 42792, Note_on_c, 1, 69, 70
1, 42813, Note_on_c, 0, 78, 0
1, 42815, Note_on_c, 1, 69, 0
1, 42816, Note_on_c, 1, 59, 70
1, 42839, Note_on_c, 1, 59, 0
1, 42840, Note_on_c, 1, 69, 70
1, 42863, Note_on_c, 1, 69, 0
1, 42864, Note_on_c, 0, 71, 75
1, 42864, Note_on_c, 1, 66, 70
1, 42887, Note_on_c, 1, 66, 0
1, 42888, Note_on_c, 1, 69, 70
1, 42909, Note_on_c, 0, 71, 0
1, 42911, Note_on_c, 1, 69, 0
1, 42912, Note_on_c, 0, 75, 75
1, 42912, Note_on_c, 1, 64, 70
1, 42935, Note_on_c, 0, 75, 0
1, 42935, Note_on_c, 1, 64, 0
1, 42936, Note_on_c, 0, 76, 75
1, 42936, Note_on_c, 1, 71, 70
1, 42959, Note_on_c, 0, 76, 0
1, 42959, Note_on_c, 1, 71, 0
1, 42960, Note_on_c, 0, 75, 76
1, 42960, Note_on_c, 1, 68, 70
1, 42983, Note_on_c, 0, 75, 0
1, 42983, Note_on_c, 1, 68, 0
1, 42984, Note_on_c, 0, 76, 76
1, 42984, Note_on_c, 1, 71, 70
1, 43007, Note_on_c, 0, 76, 0
1, 43007, Note_on_c, 1, 71, 0
1, 43008, Note_on_c, 0, 77, 77
1, 43008, Note_on_c, 1, 63, 70
1, 43031, Note_on_c, 0, 77, 0
1, 43031, Note_on_c, 1, 63, 0
1, 43032, Note_on_c, 0, 78, 78
1, 43032, Note_on_c, 1, 71, 70
1, 43055, Note_on_c, 0, 78, 0
1, 43055, Note_on_c, 1, 71, 0
1, 43056, Note_on_c, 0, 77, 78
1, 43056, Note_on_c, 1, 66, 70
1, 43079, Note_on_c, 0, 77, 0
1, 43079, Note_on_c, 1, 66, 0
1, 43080, Note_on_c, 0, 78, 79
1, 43080, Note_on_c, 1, 71, 70
1, 43103, Note_on_c, 0, 78, 0
1, 43103, Note_on_c, 1, 71, 0
1, 43104, Note_on_c, 0, 81, 80
1, 43104, Note_on_c, 1, 64, 70
1, 43127, Note_on_c, 1, 64, 0
1, 43128, Note_on_c, 1, 71, 70
1, 43149, Note_on_c, 0, 81, 0
1, 43151, Note_on_c, 1, 71, 0
1, 43152, Note_on_c, 0, 80, 78
1, 43152, Note_on_c, 1, 68, 70
1, 43164, Note_on_c, 0, 80, 0
1, 43164, Note_on_c, 0, 81, 78
1, 43175, Note_on_c, 1, 68, 0
1, 43176, Note_on_c, 0, 81, 0
1, 43176, Note_on_c, 0, 80, 78
1, 43176, Note_on_c, 1, 71, 70
1, 43188, Note_on_c, 0, 80, 0
1, 43188, Note_on_c, 0, 81, 78
1, 43197, Note_on_c, 0, 81, 0
1, 43199, Note_on_c, 1, 71, 0
1, 43200, Note_on_c, 0, 78, 76
1, 43200, Note_on_c, 1, 59, 70
1, 43223, Note_on_c, 1, 59, 0
1, 43224, Note_on_c, 1, 71, 70
1, 43245, Note_on_c, 0, 78, 0
1, 43247, Note_on_c, 1, 71, 0
1, 43248, Note_on_c, 0, 78, 75
1, 43248, Note_on_c, 1, 63, 70
1, 43271, Note_on_c, 1, 63, 0
1, 43272, Note_on_c, 1, 71, 70
1, 43293, Note_on_c, 0, 78, 0
1, 43295, Note_on_c, 1, 71, 0
1, 43296, Note_on_c, 0, 79, 75
1, 43296, Note_on_c, 1, 64, 70
1, 43319, Note_on_c, 0, 79, 0
1, 43319, Note_on_c, 1, 64, 0
1, 43320, Note_on_c, 0, 80, 75
1, 43320, Note_on_c, 1, 71, 70
1, 43343, Note_on_c, 0, 80, 0
1, 43343, Note_on_c, 1, 71, 0
1, 43344, Note_on_c, 0, 79, 76
1, 43344, Note_on_c, 1, 68, 70
1, 43367, Note_on_c, 0, 79, 0
1, 43367, Note_on_c, 1, 68, 0
1, 43368, Note_on_c, 0, 80, 76
1, 43368, Note_on_c, 1, 71, 70
1, 43391, Note_on_c, 0, 80, 0
1, 43391, Note_on_c, 1, 71, 0
1, 43392, Note_on_c, 0, 82, 77
1, 43392, Note_on_c, 1, 64, 70
1, 43415, Note_on_c, 1, 64, 0
1, 43416, Note_on_c, 1, 70, 70
1, 43437, Note_on_c, 0, 82, 0
1, 43439, Note_on_c, 1, 70, 0
1, 43440, Note_on_c, 0, 82, 78
1, 43440, Note_on_c, 1, 66, 70
1, 43463, Note_on_c, 1, 66, 0
1, 43464, Note_on_c, 1, 70, 70
1, 43485, Note_on_c, 0, 82, 0
1, 43487, Note_on_c, 1, 70, 0
1, 43488, Note_on_c, 0, 83, 80
1, 43488, Note_on_c, 1, 63, 70
1, 43511, Note_on_c, 1, 63, 0
1, 43512, Note_on_c, 1, 71, 70
1, 43535, Note_on_c, 1, 71, 0
1, 43536, Note_on_c, 1, 66, 70
1, 43559, Note_on_c, 1, 66, 0
1, 43560, Note_on_c, 1, 71, 70
1, 43583, Note_on_c, 1, 71, 0
1, 43584, Note_on_c, 1, 63, 70
1, 43607, Note_on_c, 1, 63, 0
1, 43608, Note_on_c, 1, 71, 70
1, 43621, Note_on_c, 0, 83, 0
1, 43631, Note_on_c, 1, 71, 0
1, 43632, Note_on_c, 0, 78, 80
1, 43632, Note_on_c, 1, 66, 70
1, 43655, Note_on_c, 1, 66, 0
1, 43656, Note_on_c, 1, 71, 70
1, 43677, Note_on_c, 0, 78, 0
1, 43679, Note_on_c, 1, 71, 0
1, 43680, Note_on_c, 0, 78, 80
1, 43680, Note_on_c, 1, 64, 70
1, 43703, Note_on_c, 0, 78, 0
1, 43704, Note_on_c, 0, 76, 79
1, 43727, Note_on_c, 0, 76, 0
1, 43728, Note_on_c, 0, 80, 78
1, 43751, Note_on_c, 0, 80, 0
1, 43752, Note_on_c, 0, 76, 78
1, 43769, Note_on_c, 1, 64, 0
1, 43775, Note_on_c, 0, 76, 0
1, 43776, Note_on_c, 0, 75, 77
1, 43799, Note_on_c, 0, 75, 0
1, 43800, Note_on_c, 0, 73, 76
1, 43823, Note_on_c, 0, 73, 0
1, 43824, Note_on_c, 0, 71, 76
1, 43824, Note_on_c, 1, 66, 70
1, 43847, Note_on_c, 0, 71, 0
1, 43848, Note_on_c, 0, 70, 75
1, 43869, Note_on_c, 1, 66, 0
1, 43871, Note_on_c, 0, 70, 0
1, 43872, Note_on_c, 0, 71, 75
1, 43872, Note_on_c, 1, 59, 70
1, 43961, Note_on_c, 0, 71, 0
1, 43961, Note_on_c, 1, 59, 0
1, 43968, Note_on_c, 1, 47, 70
1, 44013, Note_on_c, 1, 47, 0
1, 44016, Note_on_c, 0, 80, 75
1, 44061, Note_on_c, 0, 80, 0
1, 44064, Note_on_c, 0, 80, 75
1, 44064, Note_on_c, 1, 64, 70
1, 44087, Note_on_c, 1, 64, 0
1, 44088, Note_on_c, 1, 71, 70
1, 44111, Note_on_c, 1, 71, 0
1, 44112, Note_on_c, 1, 68, 70
1, 44131, Note_on_c, 0, 80, 0
1, 44135, Note_on_c, 1, 68, 0
1, 44136, Note_on_c, 0, 81, 75
1, 44136, Note_on_c, 1, 71, 70
1, 44159, Note_on_c, 0, 81, 0
1, 44159, Note_on_c, 1, 71, 0
1, 44160, Note_on_c, 0, 83, 75
1, 44160, Note_on_c, 1, 64, 70
1, 44183, Note_on_c, 1, 64, 0
1, 44184, Note_on_c, 1, 71, 70
1, 44205, Note_on_c, 0, 83, 0
1, 44207, Note_on_c, 1, 71, 0
1, 44208, Note_on_c, 0, 76, 75
1, 44208, Note_on_c, 1, 68, 70
1, 44228, Note_on_c, 0, 76, 0
1, 44231, Note_on_c, 1, 68, 0
1, 44232, Note_on_c, 1, 71, 70
1, 44255, Note_on_c, 1, 71, 0
1, 44256, Note_on_c, 0, 75, 75
1, 44256, Note_on_c, 1, 59, 70
1, 44279, Note_on_c, 1, 59, 0
1, 44280, Note_on_c, 1, 69, 70
1, 44303, Note_on_c, 1, 69, 0
1, 44304, Note_on_c, 0, 75, 0
1, 44304, Note_on_c, 0, 78, 75
1, 44304, Note_on_c, 1, 66, 70
1, 44327, Note_on_c, 1, 66, 0
1, 44328, Note_on_c, 1, 69, 70
1, 44349, Note_on_c, 0, 78, 0
1, 44351, Note_on_c, 1, 69, 0
1, 44352, Note_on_c, 1, 59, 70
1, 44375, Note_on_c, 1, 59, 0
1, 44376, Note_on_c, 1, 69, 70
1, 44399, Note_on_c, 1, 69, 0
1, 44400, Note_on_c, 0, 71, 75
1, 44400, Note_on_c, 1, 66, 70
1, 44423, Note_on_c, 1, 66, 0
1, 44424, Note_on_c, 1, 69, 70
1, 44445, Note_on_c, 0, 71, 0
1, 44447, Note_on_c, 1, 69, 0
1, 44448, Note_on_c, 0, 75, 75
1, 44448, Note_on_c, 1, 64, 70
1, 44471, Note_on_c, 0, 75, 0
1, 44471, Note_on_c, 1, 64, 0
1, 44472, Note_on_c, 0, 76, 75
1, 44472, Note_on_c, 1, 71, 70
1, 44495, Note_on_c, 0, 76, 0
1, 44495, Note_on_c, 1, 71, 0
1, 44496, Note_on_c, 0, 75, 76
1, 44496, Note_on_c, 1, 68, 70
1, 44519, Note_on_c, 0, 75, 0
1, 44519, Note_on_c, 1, 68, 0
1, 44520, Note_on_c, 0, 76, 76
1, 44520, Note_on_c, 1, 71, 70
1, 44543, Note_on_c, 0, 76, 0
1, 44543, Note_on_c, 1, 71, 0
1, 44544, Note_on_c, 0, 77, 77
1, 44544, Note_on_c, 1, 63, 70
1, 44567, Note_on_c, 0, 77, 0
1, 44567, Note_on_c, 1, 63, 0
1, 44568, Note_on_c, 0, 78, 78
1, 44568, Note_on_c, 1, 71, 70
1, 44591, Note_on_c, 0, 78, 0
1, 44591, Note_on_c, 1, 71, 0
1, 44592, Note_on_c, 0, 77, 78
1, 44592, Note_on_c, 1, 66, 70
1, 44615, Note_on_c, 0, 77, 0
1, 44615, Note_on_c, 1, 66, 0
1, 44616, Note_on_c, 0, 78, 79
1, 44616, Note_on_c, 1, 71, 70
1, 44639, Note_on_c, 0, 78, 0
1, 44639, Note_on_c, 1, 71, 0
1, 44640, Note_on_c, 0, 81, 80
1, 44640, Note_on_c, 1, 64, 70
1, 44663, Note_on_c, 1, 64, 0
1, 44664, Note_on_c, 1, 71, 70
1, 44685, Note_on_c, 0, 81, 0
1, 44687, Note_on_c, 1, 71, 0
1, 44688, Note_on_c, 0, 80, 78
1, 44688, Note_on_c, 1, 68, 70
1, 44700, Note_on_c, 0, 80, 0
1, 44700, Note_on_c, 0, 81, 78
1, 44711, Note_on_c, 1, 68, 0
1, 44712, Note_on_c, 0, 81, 0
1, 44712, Note_on_c, 0, 80, 78
1, 44712, Note_on_c, 1, 71, 70
1, 44724, Note_on_c, 0, 80, 0
1, 44724, Note_on_c, 0, 81, 78
1, 44733, Note_on_c, 0, 81, 0
1, 44735, Note_on_c, 1, 71, 0
1, 44736, Note_on_c, 0, 78, 76
1, 44736, Note_on_c, 1, 59, 70
1, 44759, Note_on_c, 1, 59, 0
1, 44760, Note_on_c, 1, 71, 70
1, 44781, Note_on_c, 0, 78, 0
1, 44783, Note_on_c, 1, 71, 0
1, 44784, Note_on_c, 0, 78, 75
1, 44784, Note_on_c, 1, 63, 70
1, 44807, Note_on_c, 1, 63, 0
1, 44808, Note_on_c, 1, 71, 70
1, 44829, Note_on_c, 0, 78, 0
1, 44831, Note_on_c, 1, 71, 0
1, 44832, Note_on_c, 0, 79, 75
1, 44832, Note_on_c, 1, 64, 70
1, 44855, Note_on_c, 0, 79, 0
1, 44855, Note_on_c, 1, 64, 0
1, 44856, Note_on_c, 0, 80, 75
1, 44856, Note_on_c, 1, 71, 70
1, 44879, Note_on_c, 0, 80, 0
1, 44879, Note_on_c, 1, 71, 0
1, 44880, Note_on_c, 0, 79, 76
1, 44880, Note_on_c, 1, 68, 70
1, 44903, Note_on_c, 0, 79, 0
1, 44903, Note_on_c, 1, 68, 0
1, 44904, Note_on_c, 0, 80, 76
1, 44904, Note_on_c, 1, 71, 70
1, 44927, Note_on_c, 0, 80, 0
1, 44927, Note_on_c, 1, 71, 0
1, 44928, Note_on_c, 0, 82, 77
1, 44928, Note_on_c, 1, 64, 70
1, 44951, Note_on_c, 1, 64, 0
1, 44952, Note_on_c, 1, 70, 70
1, 44973, Note_on_c, 0, 82, 0
1, 44975, Note_on_c, 1, 70, 0
1, 44976, Note_on_c, 0, 82, 78
1, 44976, Note_on_c, 1, 66, 70
1, 44999, Note_on_c, 1, 66, 0
1, 45000, Note_on_c, 1, 70, 70
1, 45021, Note_on_c, 0, 82, 0
1, 45023, Note_on_c, 1, 70, 0
1, 45024, Note_on_c, 0, 83, 80
1, 45024, Note_on_c, 1, 63, 70
1, 45047, Note_on_c, 1, 63, 0
1, 45048, Note_on_c, 1, 71, 70
1, 45071, Note_on_c, 1, 71, 0
1, 45072, Note_on_c, 1, 66, 70
1, 45095, Note_on_c, 1, 66, 0
1, 45096, Note_on_c, 1, 71, 70
1, 45119, Note_on_c, 1, 71, 0
1, 45120, Note_on_c, 1, 63, 70
1, 45143, Note_on_c, 1, 63, 0
1, 45144, Note_on_c, 1, 71, 70
1, 45157, Note_on_c, 0, 83, 0
1, 45167, Note_on_c, 1, 71, 0
1, 45168, Note_on_c, 0, 78, 80
1, 45168, Note_on_c, 1, 66, 70
1, 45191, Note_on_c, 1, 66, 0
1, 45192, Note_on_c, 1, 71, 70
1, 45213, Note_on_c, 0, 78, 0
1, 45215, Note_on_c, 1, 71, 0
1, 45216, Note_on_c, 0, 78, 80
1, 45216, Note_on_c, 1, 64, 70
1, 45239, Note_on_c, 0, 78, 0
1, 45240, Note_on_c, 0, 76, 79
1, 45263, Note_on_c, 0, 76, 0
1, 45264, Note_on_c, 0, 80, 78
1, 45287, Note_on_c, 0, 80, 0
1, 45288, Note_on_c, 0, 76, 78
1, 45305, Note_on_c, 1, 64, 0
1, 45311, Note_on_c, 0, 76, 0
1, 45312, Note_on_c, 0, 75, 77
1, 45335, Note_on_c, 0, 75, 0
1, 45336, Note_on_c, 0, 73, 76
1, 45359, Note_on_c, 0, 73, 0
1, 45360, Note_on_c, 0, 71, 76
1, 45360, Note_on_c, 1, 66, 70
1, 45383, Note_on_c, 0, 71, 0
1, 45384, Note_on_c, 0, 70, 75
1, 45405, Note_on_c, 1, 66, 0
1, 45407, Note_on_c, 0, 70, 0
1, 45408, Note_on_c, 0, 71, 75
1, 45408, Note_on_c, 1, 59, 70
1, 45497, Note_on_c, 0, 71, 0
1, 45497, Note_on_c, 1, 59, 0
1, 45504, Note_on_c, 1, 47, 70
1, 45549, Note_on_c, 1, 47, 0
1, 45552, Note_on_c, 0, 78, 75
1, 45597, Note_on_c, 0, 78, 0
1, 45600, Note_on_c, 0, 77, 75
1, 45600, Note_on_c, 1, 59, 70
1, 45623, Note_on_c, 0, 77, 0
1, 45623, Note_on_c, 1, 59, 0
1, 45624, Note_on_c, 0, 78, 75
1, 45624, Note_on_c, 1, 69, 70
1, 45647, Note_on_c, 0, 78, 0
1, 45647, Note_on_c, 1, 69, 0
1, 45648, Note_on_c, 0, 77, 75
1, 45648, Note_on_c, 1, 66, 70
1, 45671, Note_on_c, 0, 77, 0
1, 45671, Note_on_c, 1, 66, 0
1, 45672, Note_on_c, 0, 78, 75
1, 45672, Note_on_c, 1, 69, 70
1, 45695, Note_on_c, 0, 78, 0
1, 45695, Note_on_c, 1, 69, 0
1, 45696, Note_on_c, 0, 81, 75
1, 45696, Note_on_c, 1, 59, 70
1, 45716, Note_on_c, 0, 81, 0
1, 45719, Note_on_c, 1, 59, 0
1, 45720, Note_on_c, 1, 69, 70
1, 45743, Note_on_c, 1, 69, 0
1, 45744, Note_on_c, 0, 75, 75
1, 45744, Note_on_c, 1, 66, 70
1, 45764, Note_on_c, 0, 75, 0
1, 45767, Note_on_c, 1, 66, 0
1, 45768, Note_on_c, 1, 69, 70
1, 45791, Note_on_c, 1, 69, 0
1, 45792, Note_on_c, 0, 76, 75
1, 45792, Note_on_c, 1, 59, 70
1, 45815, Note_on_c, 1, 59, 0
1, 45816, Note_on_c, 1, 68, 70
1, 45839, Note_on_c, 1, 68, 0
1, 45840, Note_on_c, 1, 64, 70
1, 45859, Note_on_c, 0, 76, 0
1, 45863, Note_on_c, 1, 64, 0
1, 45864, Note_on_c, 0, 80, 75
1, 45864, Note_on_c, 1, 68, 70
1, 45887, Note_on_c, 0, 80, 0
1, 45887, Note_on_c, 1, 68, 0
1, 45888, Note_on_c, 0, 83, 75
1, 45888, Note_on_c, 1, 59, 70
1, 45911, Note_on_c, 1, 59, 0
1, 45912, Note_on_c, 1, 68, 70
1, 45933, Note_on_c, 0, 83, 0
1, 45935, Note_on_c, 1, 68, 0
1, 45936, Note_on_c, 0, 83, 75
1, 45936, Note_on_c, 1, 64, 70
1, 45956, Note_on_c, 0, 83, 0
1, 45959, Note_on_c, 1, 64, 0
1, 45960, Note_on_c, 1, 68, 70
1, 45983, Note_on_c, 1, 68, 0
1, 45984, Note_on_c, 0, 77, 75
1, 45984, Note_on_c, 1, 59, 70
1, 46007, Note_on_c, 0, 77, 0
1, 46007, Note_on_c, 1, 59, 0
1, 46008, Note_on_c, 0, 78, 75
1, 46008, Note_on_c, 1, 69, 70
1, 46031, Note_on_c, 0, 78, 0
1, 46031, Note_on_c, 1, 69, 0
1, 46032, Note_on_c, 0, 77, 75
1, 46032, Note_on_c, 1, 66, 70
1, 46055, Note_on_c, 0, 77, 0
1, 46055, Note_on_c, 1, 66, 0
1, 46056, Note_on_c, 0, 78, 75
1, 46056, Note_on_c, 1, 69, 70
1, 46079, Note_on_c, 0, 78, 0
1, 46079, Note_on_c, 1, 69, 0
1, 46080, Note_on_c, 0, 81, 75
1, 46080, Note_on_c, 1, 59, 70
1, 46100, Note_on_c, 0, 81, 0
1, 46103, Note_on_c, 1, 59, 0
1, 46104, Note_on_c, 1, 69, 70
1, 46127, Note_on_c, 1, 69, 0
1, 46128, Note_on_c, 0, 75, 75
1, 46128, Note_on_c, 1, 66, 70
1, 46148, Note_on_c, 0, 75, 0
1, 46151, Note_on_c, 1, 66, 0
1, 46152, Note_on_c, 1, 69, 70
1, 46175, Note_on_c, 1, 69, 0
1, 46176, Note_on_c, 0, 76, 75
1, 46176, Note_on_c, 1, 59, 70
1, 46199, Note_on_c, 1, 59, 0
1, 46200, Note_on_c, 1, 68, 70
1, 46223, Note_on_c, 1, 68, 0
1, 46224, Note_on_c, 1, 64, 70
1, 46243, Note_on_c, 0, 76, 0
1, 46247, Note_on_c, 1, 64, 0
1, 46248, Note_on_c, 0, 80, 75
1, 46248, Note_on_c, 1, 68, 70
1, 46271, Note_on_c, 0, 80, 0
1, 46271, Note_on_c, 1, 68, 0
1, 46272, Note_on_c, 0, 83, 75
1, 46272, Note_on_c, 1, 59, 70
1, 46292, Note_on_c, 0, 83, 0
1, 46295, Note_on_c, 1, 59, 0
1, 46296, Note_on_c, 1, 68, 70
1, 46319, Note_on_c, 1, 68, 0
1, 46320, Note_on_c, 0, 83, 75
1, 46320, Note_on_c, 1, 64, 70
1, 46343, Note_on_c, 1, 64, 0
1, 46344, Note_on_c, 1, 68, 70
1, 46367, Note_on_c, 1, 68, 0
1, 46368, Note_on_c, 0, 83, 0
1, 46368, Note_on_c, 0, 81, 75
1, 46368, Note_on_c, 1, 59, 70
1, 46388, Note_on_c, 0, 81, 0
1, 46391, Note_on_c, 1, 59, 0
1, 46392, Note_on_c, 1, 66, 70
1, 46415, Note_on_c, 1, 66, 0
1, 46416, Note_on_c, 0, 81, 75
1, 46416, Note_on_c, 1, 63, 70
1, 46439, Note_on_c, 1, 63, 0
1, 46440, Note_on_c, 1, 66, 70
1, 46463, Note_on_c, 1, 66, 0
1, 46464, Note_on_c, 0, 81, 0
1, 46464, Note_on_c, 0, 80, 75
1, 46464, Note_on_c, 1, 59, 70
1, 46484, Note_on_c, 0, 80, 0
1, 46487, Note_on_c, 1, 59, 0
1, 46488, Note_on_c, 1, 68, 70
1, 46511, Note_on_c, 1, 68, 0
1, 46512, Note_on_c, 0, 80, 75
1, 46512, Note_on_c, 1, 64, 70
1, 46535, Note_on_c, 1, 64, 0
1, 46536, Note_on_c, 1, 68, 70
1, 46559, Note_on_c, 1, 68, 0
1, 46560, Note_on_c, 0, 80, 0
1, 46560, Note_on_c, 0, 78, 75
1, 46560, Note_on_c, 1, 59, 70
1, 46583, Note_on_c, 0, 78, 0
1, 46584, Note_on_c, 0, 83, 75
1, 46607, Note_on_c, 0, 83, 0
1, 46608, Note_on_c, 0, 82, 75
1, 46631, Note_on_c, 0, 82, 0
1, 46632, Note_on_c, 0, 80, 75
1, 46649, Note_on_c, 1, 59, 0
1, 46655, Note_on_c, 0, 80, 0
1, 46656, Note_on_c, 0, 78, 75
1, 46679, Note_on_c, 0, 78, 0
1, 46680, Note_on_c, 0, 76, 75
1, 46703, Note_on_c, 0, 76, 0
1, 46704, Note_on_c, 0, 75, 75
1, 46727, Note_on_c, 0, 75, 0
1, 46728, Note_on_c, 0, 73, 75
1, 46751, Note_on_c, 0, 73, 0
1, 46752, Note_on_c, 0, 71, 75
1, 46752, Note_on_c, 1, 47, 70
1, 46775, Note_on_c, 0, 71, 0
1, 46776, Note_on_c, 0, 71, 75
1, 46799, Note_on_c, 0, 71, 0
1, 46800, Note_on_c, 0, 70, 75
1, 46823, Note_on_c, 0, 70, 0
1, 46824, Note_on_c, 0, 68, 75
1, 46841, Note_on_c, 1, 47, 0
1, 46847, Note_on_c, 0, 68, 0
1, 46848, Note_on_c, 0, 66, 75
1, 46871, Note_on_c, 0, 66, 0
1, 46872, Note_on_c, 0, 64, 75
1, 46895, Note_on_c, 0, 64, 0
1, 46896, Note_on_c, 0, 63, 75
1, 46919, Note_on_c, 0, 63, 0
1, 46920, Note_on_c, 0, 61, 75
1, 46943, Note_on_c, 0, 61, 0
1, 46944, Tempo, 1000000
1, 46944, Note_on_c, 0, 59, 75
1, 46944, Note_on_c, 1, 35, 70
1, 47077, Note_on_c, 0, 59, 0
1, 47077, Note_on_c, 1, 35, 0
1, 47088, Tempo, 480000
1, 47088, Note_on_c, 0, 80, 75
1, 47133, Note_on_c, 0, 80, 0
1, 47136, Note_on_c, 0, 80, 75
1, 47136, Note_on_c, 1, 64, 70
1, 47159, Note_on_c, 1, 64, 0
1, 47160, Note_on_c, 1, 71, 70
1, 47183, Note_on_c, 1, 71, 0
1, 47184, Note_on_c, 1, 68, 70
1, 47203, Note_on_c, 0, 80, 0
1, 47207, Note_on_c, 1, 68, 0
1, 47208, Note_on_c, 0, 81, 75
1, 47208, Note_on_c, 1, 71, 70
1, 47231, Note_on_c, 0, 81, 0
1, 47231, Note_on_c, 1, 71, 0
1, 47232, Note_on_c, 0, 83, 75
1, 47232, Note_on_c, 1, 64, 70
1, 47255, Note_on_c, 1, 64, 0
1, 47256, Note_on_c, 1, 71, 70
1, 47277, Note_on_c, 0, 83, 0
1, 47279, Note_on_c, 1, 71, 0
1, 47280, Note_on_c, 0, 76, 75
1, 47280, Note_on_c, 1, 68, 70
1, 47300, Note_on_c, 0, 76, 0
1, 47303, Note_on_c, 1, 68, 0
1, 47304, Note_on_c, 1, 71, 70
1, 47327, Note_on_c, 1, 71, 0
1, 47328, Note_on_c, 0, 75, 75
1, 47328, Note_on_c, 1, 59, 70
1, 47351, Note_on_c, 1, 59, 0
1, 47352, Note_on_c, 1, 69, 70
1, 47375, Note_on_c, 1, 69, 0
1, 47376, Note_on_c, 0, 75, 0
1, 47376, Note_on_c, 0, 78, 75
1, 47376, Note_on_c, 1, 66, 70
1, 47399, Note_on_c, 1, 66, 0
1, 47400, Note_on_c, 1, 69, 70
1, 47421, Note_on_c, 0, 78, 0
1, 47423, Note_on_c, 1, 69, 0
1, 47424, Note_on_c, 1, 59, 70
1, 47447, Note_on_c, 1, 59, 0
1, 47448, Note_on_c, 1, 69, 70
1, 47471, Note_on_c, 1, 69, 0
1, 47472, Note_on_c, 0, 71, 75
1, 47472, Note_on_c, 1, 66, 70
1, 47495, Note_on_c, 1, 66, 0
1, 47496, Note_on_c, 1, 69, 70
1, 47517, Note_on_c, 0, 71, 0
1, 47519, Note_on_c, 1, 69, 0
1, 47520, Note_on_c, 0, 75, 75
1, 47520, Note_on_c, 1, 64, 70
1, 47543, Note_on_c, 0, 75, 0
1, 47543, Note_on_c, 1, 64, 0
1, 47544, Note_on_c, 0, 76, 75
1, 47544, Note_on_c, 1, 71, 70
1, 47567, Note_on_c, 0, 76, 0
1, 47567, Note_on_c, 1, 71, 0
1, 47568, Note_on_c, 0, 75, 76
1, 47568, Note_on_c, 1, 68, 70
1, 47591, Note_on_c, 0, 75, 0
1, 47591, Note_on_c, 1, 68, 0
1, 47592, Note_on_c, 0, 76, 76
1, 47592, Note_on_c, 1, 71, 70
1, 47615, Note_on_c, 0, 76, 0
1, 47615, Note_on_c, 1, 71, 0
1, 47616, Note_on_c, 0, 77, 77
1, 47616, Note_on_c, 1, 63, 70
1, 47639, Note_on_c, 0, 77, 0
1, 47639, Note_on_c, 1, 63, 0
1, 47640, Note_on_c, 0, 78, 78
1, 47640, Note_on_c, 1, 71, 70
1, 47663, Note_on_c, 0, 78, 0
1, 47663, Note_on_c, 1, 71, 0
1, 47664, Note_on_c, 0, 77, 78
1, 47664, Note_on_c, 1, 66, 70
1, 47687, Note_on_c, 0, 77, 0
1, 47687, Note_on_c, 1, 66, 0
1, 47688, Note_on_c, 0, 78, 79
1, 47688, Note_on_c, 1, 71, 70
1, 47711, Note_on_c, 0, 78, 0
1, 47711, Note_on_c, 1, 71, 0
1, 47712, Note_on_c, 0, 81, 80
1, 47712, Note_on_c, 1, 64, 70
1, 47735, Note_on_c, 1, 64, 0
1, 47736, Note_on_c, 1, 71, 70
1, 47757, Note_on_c, 0, 81, 0
1, 47759, Note_on_c, 1, 71, 0
1, 47760, Note_on_c, 0, 80, 78
1, 47760, Note_on_c, 1, 68, 70
1, 47772, Note_on_c, 0, 80, 0
1, 47772, Note_on_c, 0, 81, 78
1, 47783, Note_on_c, 1, 68, 0
1, 47784, Note_on_c, 0, 81, 0
1, 47784, Note_on_c, 0, 80, 78
1, 47784, Note_on_c, 1, 71, 70
1, 47796, Note_on_c, 0, 80, 0
1, 47796, Note_on_c, 0, 81, 78
1, 47805, Note_on_c, 0, 81, 0
1, 47807, Note_on_c, 1, 71, 0
1, 47808, Note_on_c, 0, 78, 76
1, 47808, Note_on_c, 1, 59, 70
1, 47831, Note_on_c, 1, 59, 0
1, 47832, Note_on_c, 1, 71, 70
1, 47853, Note_on_c, 0, 78, 0
1, 47855, Note_on_c, 1, 71, 0
1, 47856, Note_on_c, 0, 78, 75
1, 47856, Note_on_c, 1, 63, 70
1, 47879, Note_on_c, 1, 63, 0
1, 47880, Note_on_c, 1, 71, 70
1, 47903, Note_on_c, 1, 71, 0
1, 47904, Note_on_c, 0, 78, 0
1, 47904, Note_on_c, 0, 80, 76
1, 47904, Note_on_c, 1, 64, 70
1, 47924, Note_on_c, 0, 80, 0
1, 47927, Note_on_c, 1, 64, 0
1, 47928, Note_on_c, 1, 71, 70
1, 47951, Note_on_c, 1, 71, 0
1, 47952, Note_on_c, 0, 80, 77
1, 47952, Note_on_c, 1, 68, 70
1, 47975, Note_on_c, 1, 68, 0
1, 47976, Note_on_c, 1, 71, 70
1, 47999, Note_on_c, 1, 71, 0
1, 48000, Note_on_c, 0, 80, 0
1, 48000, Note_on_c, 0, 81, 78
1, 48000, Note_on_c, 1, 61, 70
1, 48020, Note_on_c, 0, 81, 0
1, 48023, Note_on_c, 1, 61, 0
1, 48024, Note_on_c, 1, 69, 70
1, 48047, Note_on_c, 1, 69, 0
1, 48048, Note_on_c, 0, 81, 79
1, 48048, Note_on_c, 1, 64, 70
1, 48071, Note_on_c, 1, 64, 0
1, 48072, Note_on_c, 1, 69, 70
1, 48095, Note_on_c, 1, 69, 0
1, 48096, Note_on_c, 0, 81, 0
1, 48096, Note_on_c, 0, 83, 80
1, 48096, Note_on_c, 1, 56, 70
1, 48119, Note_on_c, 1, 56, 0
1, 48120, Note_on_c, 1, 64, 70
1, 48143, Note_on_c, 1, 64, 0
1, 48144, Note_on_c, 1, 59, 70
1, 48167, Note_on_c, 1, 59, 0
1, 48168, Note_on_c, 1, 64, 70
1, 48185, Note_on_c, 0, 83, 0
1, 48191, Note_on_c, 1, 64, 0
1, 48192, Note_on_c, 0, 85, 80
1, 48192, Note_on_c, 1, 56, 70
1, 48215, Note_on_c, 0, 85, 0
1, 48215, Note_on_c, 1, 56, 0
1, 48216, Note_on_c, 0, 83, 80
1, 48216, Note_on_c, 1, 64, 70
1, 48239, Note_on_c, 0, 83, 0
1, 48239, Note_on_c, 1, 64, 0
1, 48240, Note_on_c, 0, 81, 80
1, 48240, Note_on_c, 1, 59, 70
1, 48263, Note_on_c, 0, 81, 0
1, 48263, Note_on_c, 1, 59, 0
1, 48264, Note_on_c, 0, 80, 80
1, 48264, Note_on_c, 1, 64, 70
1, 48287, Note_on_c, 0, 80, 0
1, 48287, Note_on_c, 1, 64, 0
1, 48288, Note_on_c, 0, 78, 80
1, 48288, Note_on_c, 1, 57, 70
1, 48311, Note_on_c, 1, 57, 0
1, 48312, Note_on_c, 1, 66, 70
1, 48333, Note_on_c, 0, 78, 0
1, 48335, Note_on_c, 1, 66, 0
1, 48336, Note_on_c, 0, 78, 80
1, 48336, Note_on_c, 1, 61, 70
1, 48359, Note_on_c, 1, 61, 0
1, 48360, Note_on_c, 1, 66, 70
1, 48381, Note_on_c, 0, 78, 0
1, 48383, Note_on_c, 1, 66, 0
1, 48384, Note_on_c, 0, 76, 78
1, 48384, Note_on_c, 1, 59, 70
1, 48407, Note_on_c, 0, 76, 0
1, 48407, Note_on_c, 1, 59, 0
1, 48408, Note_on_c, 0, 75, 77
1, 48408, Note_on_c, 1, 69, 70
1, 48431, Note_on_c, 0, 75, 0
1, 48431, Note_on_c, 1, 69, 0
1, 48432, Note_on_c, 0, 73, 76
1, 48432, Note_on_c, 1, 66, 70
1, 48455, Note_on_c, 0, 73, 0
1, 48455, Note_on_c, 1, 66, 0
1, 48456, Note_on_c, 0, 71, 75
1, 48456, Note_on_c, 1, 69, 70
1, 48479, Note_on_c, 0, 71, 0
1, 48479, Note_on_c, 1, 69, 0
1, 48480, Note_on_c, 0, 76, 75
1, 48480, Note_on_c, 1, 68, 70
1, 48480, Note_on_c, 1, 64, 70
1, 48569, Note_on_c, 0, 76, 0
1, 48569, Note_on_c, 1, 68, 0
1, 48569, Note_on_c, 1, 64, 0
1, 48576, Note_on_c, 1, 52, 70
1, 48621, Note_on_c, 1, 52, 0
1, 48624, Note_on_c, 0, 78, 75
1, 48669, Note_on_c, 0, 78, 0
1, 48672, Note_on_c, 0, 77, 75
1, 48672, Note_on_c, 1, 59, 70
1, 48695, Note_on_c, 0, 77, 0
1, 48695, Note_on_c, 1, 59, 0
1, 48696, Note_on_c, 0, 78, 75
1, 48696, Note_on_c, 1, 69, 70
1, 48719, Note_on_c, 0, 78, 0
1, 48719, Note_on_c, 1, 69, 0
1, 48720, Note_on_c, 0, 77, 75
1, 48720, Note_on_c, 1, 66, 70
1, 48743, Note_on_c, 0, 77, 0
1, 48743, Note_on_c, 1, 66, 0
1, 48744, Note_on_c, 0, 78, 75
1, 48744, Note_on_c, 1, 69, 70
1, 48767, Note_on_c, 0, 78, 0
1, 48767, Note_on_c, 1, 69, 0
1, 48768, Note_on_c, 0, 81, 75
1, 48768, Note_on_c, 1, 59, 70
1, 48788, Note_on_c, 0, 81, 0
1, 48791, Note_on_c, 1, 59, 0
1, 48792, Note_on_c, 1, 69, 70
1, 48815, Note_on_c, 1, 69, 0
1, 48816, Note_on_c, 0, 75, 75
1, 48816, Note_on_c, 1, 66, 70
1, 48836, Note_on_c, 0, 75, 0
1, 48839, Note_on_c, 1, 66, 0
1, 48840, Note_on_c, 1, 69, 70
1, 48863, Note_on_c, 1, 69, 0
1, 48864, Note_on_c, 0, 76, 75
1, 48864, Note_on_c, 1, 59, 70
1, 48887, Note_on_c, 1, 59, 0
1, 48888, Note_on_c, 1, 68, 70
1, 48911, Note_on_c, 1, 68, 0
1, 48912, Note_on_c, 1, 64, 70
1, 48931, Note_on_c, 0, 76, 0
1, 48935, Note_on_c, 1, 64, 0
1, 48936, Note_on_c, 0, 80, 75
1, 48936, Note_on_c, 1, 68, 70
1, 48959, Note_on_c, 0, 80, 0
1, 48959, Note_on_c, 1, 68, 0
1, 48960, Note_on_c, 0, 83, 75
1, 48960, Note_on_c, 1, 59, 70
1, 48983, Note_on_c, 1, 59, 0
1, 48984, Note_on_c, 1, 68, 70
1, 49005, Note_on_c, 0, 83, 0
1, 49007, Note_on_c, 1, 68, 0
1, 49008, Note_on_c, 0, 83, 75
1, 49008, Note_on_c, 1, 64, 70
1, 49028, Note_on_c, 0, 83, 0
1, 49031, Note_on_c, 1, 64, 0
1, 49032, Note_on_c, 1, 68, 70
1, 49055, Note_on_c, 1, 68, 0
1, 49056, Note_on_c, 0, 77, 75
1, 49056, Note_on_c, 1, 59, 70
1, 49079, Note_on_c, 0, 77, 0
1, 49079, Note_on_c, 1, 59, 0
1, 49080, Note_on_c, 0, 78, 75
1, 49080, Note_on_c, 1, 69, 70
1, 49103, Note_on_c, 0, 78, 0
1, 49103, Note_on_c, 1, 69, 0
1, 49104, Note_on_c, 0, 77, 75
1, 49104, Note_on_c, 1, 66, 70
1, 49127, Note_on_c, 0, 77, 0
1, 49127, Note_on_c, 1, 66, 0
1, 49128, Note_on_c, 0, 78, 75
1, 49128, Note_on_c, 1, 69, 70
1, 49151, Note_on_c, 0, 78, 0
1, 49151, Note_on_c, 1, 69, 0
1, 49152, Note_on_c, 0, 81, 75
1, 49152, Note_on_c, 1, 59, 70
1, 49172, Note_on_c, 0, 81, 0
1, 49175, Note_on_c, 1, 59, 0
1, 49176, Note_on_c, 1, 69, 70
1, 49199, Note_on_c, 1, 69, 0
1, 49200, Note_on_c, 0, 75, 75
1, 49200, Note_on_c, 1, 66, 70
1, 49220, Note_on_c, 0, 75, 0
1, 49223, Note_on_c, 1, 66, 0
1, 49224, Note_on_c, 1, 69, 70
1, 49247, Note_on_c, 1, 69, 0
1, 49248, Note_on_c, 0, 76, 75
1, 49248, Note_on_c, 1, 59, 70
1, 49271, Note_on_c, 1, 59, 0
1, 49272, Note_on_c, 1, 68, 70
1, 49295, Note_on_c, 1, 68, 0
1, 49296, Note_on_c, 1, 64, 70
1, 49315, Note_on_c, 0, 76, 0
1, 49319, Note_on_c, 1, 64, 0
1, 49320, Note_on_c, 0, 80, 75
1, 49320, Note_on_c, 1, 68, 70
1, 49343, Note_on_c, 0, 80, 0
1, 49343, Note_on_c, 1, 68, 0
1, 49344, Note_on_c, 0, 83, 75
1, 49344, Note_on_c, 1, 59, 70
1, 49364, Note_on_c, 0, 83, 0
1, 49367, Note_on_c, 1, 59, 0
1, 49368, Note_on_c, 1, 68, 70
1, 49391, Note_on_c, 1, 68, 0
1, 49392, Note_on_c, 0, 83, 75
1, 49392, Note_on_c, 1, 64, 70
1, 49415, Note_on_c, 1, 64, 0
1, 49416, Note_on_c, 1, 68, 70
1, 49439, Note_on_c, 1, 68, 0
1, 49440, Note_on_c, 0, 83, 0
1, 49440, Note_on_c, 0, 81, 75
1, 49440, Note_on_c, 1, 59, 70
1, 49460, Note_on_c, 0, 81, 0
1, 49463, Note_on_c, 1, 59, 0
1, 49464, Note_on_c, 1, 66, 70
1, 49487, Note_on_c, 1, 66, 0
1, 49488, Note_on_c, 0, 81, 75
1, 49488, Note_on_c, 1, 63, 70
1, 49511, Note_on_c, 1, 63, 0
1, 49512, Note_on_c, 1, 66, 70
1, 49535, Note_on_c, 1, 66, 0
1, 49536, Note_on_c, 0, 81, 0
1, 49536, Note_on_c, 0, 80, 75
1, 49536, Note_on_c, 1, 59, 70
1, 49556, Note_on_c, 0, 80, 0
1, 49559, Note_on_c, 1, 59, 0
1, 49560, Note_on_c, 1, 68, 70
1, 49583, Note_on_c, 1, 68, 0
1, 49584, Note_on_c, 0, 80, 75
1, 49584, Note_on_c, 1, 64, 70
1, 49607, Note_on_c, 1, 64, 0
1, 49608, Note_on_c, 1, 68, 70
1, 49631, Note_on_c, 1, 68, 0
1, 49632, Note_on_c, 0, 80, 0
1, 49632, Note_on_c, 0, 78, 75
1, 49632, Note_on_c, 1, 59, 70
1, 49655, Note_on_c, 0, 78, 0
1, 49656, Note_on_c, 0, 83, 75
1, 49679, Note_on_c, 0, 83, 0
1, 49680, Note_on_c, 0, 82, 75
1, 49703, Note_on_c, 0, 82, 0
1, 49704, Note_on_c, 0, 80, 75
1, 49721, Note_on_c, 1, 59, 0
1, 49727, Note_on_c, 0, 80, 0
1, 49728, Note_on_c, 0, 78, 75
1, 49751, Note_on_c, 0, 78, 0
1, 49752, Note_on_c, 0, 76, 75
1, 49775, Note_on_c, 0, 76, 0
1, 49776, Note_on_c, 0, 75, 75
1, 49799, Note_on_c, 0, 75, 0
1, 49800, Note_on_c, 0, 73, 75
1, 49823, Note_on_c, 0, 73, 0
1, 49824, Note_on_c, 0, 71, 75
1, 49824, Note_on_c, 1, 47, 70
1, 49847, Note_on_c, 0, 71, 0
1, 49848, Note_on_c, 0, 71, 75
1, 49871, Note_on_c, 0, 71, 0
1, 49872, Note_on_c, 0, 70, 75
1, 49895, Note_on_c, 0, 70, 0
1, 49896, Note_on_c, 0, 68, 75
1, 49913, Note_on_c, 1, 47, 0
1, 49919, Note_on_c, 0, 68, 0
1, 49920, Note_on_c, 0, 66, 75
1, 49943, Note_on_c, 0, 66, 0
1, 49944, Note_on_c, 0, 64, 75
1, 49967, Note_on_c, 0, 64, 0
1, 49968, Note_on_c, 0, 63, 75
1, 49991, Note_on_c, 0, 63, 0
1, 49992, Note_on_c, 0, 61, 75
1, 50015, Note_on_c, 0, 61, 0
1, 50016, Tempo, 1000000
1, 50016, Note_on_c, 0, 59, 75
1, 50016, Note_on_c, 1, 35, 70
1, 50149, Note_on_c, 0, 59, 0
1, 50149, Note_on_c, 1, 35, 0
1, 50160, Tempo, 480000
1, 50160, Note_on_c, 0, 80, 75
1, 50205, Note_on_c, 0, 80, 0
1, 50208, Note_on_c, 0, 80, 75
1, 50208, Note_on_c, 1, 64, 70
1, 50231, Note_on_c, 1, 64, 0
1, 50232, Note_on_c, 1, 71, 70
1, 50255, Note_on_c, 1, 71, 0
1, 50256, Note_on_c, 1, 68, 70
1, 50275, Note_on_c, 0, 80, 0
1, 50279, Note_on_c, 1, 68, 0
1, 50280, Note_on_c, 0, 81, 75
1, 50280, Note_on_c, 1, 71, 70
1, 50303, Note_on_c, 0, 81, 0
1, 50303, Note_on_c, 1, 71, 0
1, 50304, Note_on_c, 0, 83, 75
1, 50304, Note_on_c, 1, 64, 70
1, 50327, Note_on_c, 1, 64, 0
1, 50328, Note_on_c, 1, 71, 70
1, 50349, Note_on_c, 0, 83, 0
1, 50351, Note_on_c, 1, 71, 0
1, 50352, Note_on_c, 0, 76, 75
1, 50352, Note_on_c, 1, 68, 70
1, 50372, Note_on_c, 0, 76, 0
1, 50375, Note_on_c, 1, 68, 0
1, 50376, Note_on_c, 1, 71, 70
1, 50399, Note_on_c, 1, 71, 0
1, 50400, Note_on_c, 0, 75, 75
1, 50400, Note_on_c, 1, 59, 70
1, 50423, Note_on_c, 1, 59, 0
1, 50424, Note_on_c, 1, 69, 70
1, 50447, Note_on_c, 1, 69, 0
1, 50448, Note_on_c, 0, 75, 0
1, 50448, Note_on_c, 0, 78, 75
1, 50448, Note_on_c, 1, 66, 70
1, 50471, Note_on_c, 1, 66, 0
1, 50472, Note_on_c, 1, 69, 70
1, 50493, Note_on_c, 0, 78, 0
1, 50495, Note_on_c, 1, 69, 0
1, 50496, Note_on_c, 1, 59, 70
1, 50519, Note_on_c, 1, 59, 0
1, 50520, Note_on_c, 1, 69, 70
1, 50543, Note_on_c, 1, 69, 0
1, 50544, Note_on_c, 0, 71, 75
1, 50544, Note_on_c, 1, 66, 70
1, 50567, Note_on_c, 1, 66, 0
1, 50568, Note_on_c, 1, 69, 70
1, 50589, Note_on_c, 0, 71, 0
1, 50591, Note_on_c, 1, 69, 0
1, 50592, Note_on_c, 0, 75, 75
1, 50592, Note_on_c, 1, 64, 70
1, 50615, Note_on_c, 0, 75, 0
1, 50615, Note_on_c, 1, 64, 0
1, 50616, Note_on_c, 0, 76, 75
1, 50616, Note_on_c, 1, 71, 70
1, 50639, Note_on_c, 0, 76, 0
1, 50639, Note_on_c, 1, 71, 0
1, 50640, Note_on_c, 0, 75, 76
1, 50640, Note_on_c, 1, 68, 70
1, 50663, Note_on_c, 0, 75, 0
1, 50663, Note_on_c, 1, 68, 0
1, 50664, Note_on_c, 0, 76, 76
1, 50664, Note_on_c, 1, 71, 70
1, 50687, Note_on_c, 0, 76, 0
1, 50687, Note_on_c, 1, 71, 0
1, 50688, Note_on_c, 0, 77, 77
1, 50688, Note_on_c, 1, 63, 70
1, 50711, Note_on_c, 0, 77, 0
1, 50711, Note_on_c, 1, 63, 0
1, 50712, Note_on_c, 0, 78, 78
1, 50712, Note_on_c, 1, 71, 70
1, 50735, Note_on_c, 0, 78, 0
1, 50735, Note_on_c, 1, 71, 0
1, 50736, Note_on_c, 0, 77, 78
1, 50736, Note_on_c, 1, 66, 70
1, 50759, Note_on_c, 0, 77, 0
1, 50759, Note_on_c, 1, 66, 0
1, 50760, Note_on_c, 0, 78, 79
1, 50760, Note_on_c, 1, 71, 70
1, 50783, Note_on_c, 0, 78, 0
1, 50783, Note_on_c, 1, 71, 0
1, 50784, Note_on_c, 0, 81, 80
1, 50784, Note_on_c, 1, 64, 70
1, 50807, Note_on_c, 1, 64, 0
1, 50808, Note_on_c, 1, 71, 70
1, 50829, Note_on_c, 0, 81, 0
1, 50831, Note_on_c, 1, 71, 0
1, 50832, Note_on_c, 0, 80, 78
1, 50832, Note_on_c, 1, 68, 70
1, 50844, Note_on_c, 0, 80, 0
1, 50844, Note_on_c, 0, 81, 78
1, 50855, Note_on_c, 1, 68, 0
1, 50856, Note_on_c, 0, 81, 0
1, 50856, Note_on_c, 0, 80, 78
1, 50856, Note_on_c, 1, 71, 70
1, 50868, Note_on_c, 0, 80, 0
1, 50868, Note_on_c, 0, 81, 78
1, 50877, Note_on_c, 0, 81, 0
1, 50879, Note_on_c, 1, 71, 0
1, 50880, Note_on_c, 0, 78, 76
1, 50880, Note_on_c, 1, 59, 70
1, 50903, Note_on_c, 1, 59, 0
1, 50904, Note_on_c, 1, 71, 70
1, 50925, Note_on_c, 0, 78, 0
1, 50927, Note_on_c, 1, 71, 0
1, 50928, Note_on_c, 0, 78, 75
1, 50928, Note_on_c, 1, 63, 70
1, 50951, Note_on_c, 1, 63, 0
1, 50952, Note_on_c, 1, 71, 70
1, 50975, Note_on_c, 1, 71, 0
1, 50976, Note_on_c, 0, 78, 0
1, 50976, Note_on_c, 0, 80, 76
1, 50976, Note_on_c, 1, 64, 70
1, 50996, Note_on_c, 0, 80, 0
1, 50999, Note_on_c, 1, 64, 0
1, 51000, Note_on_c, 1, 71, 70
1, 51023, Note_on_c, 1, 71, 0
1, 51024, Note_on_c, 0, 80, 77
1, 51024, Note_on_c, 1, 68, 70
1, 51047, Note_on_c, 1, 68, 0
1, 51048, Note_on_c, 1, 71, 70
1, 51071, Note_on_c, 1, 71, 0
1, 51072, Note_on_c, 0, 80, 0
1, 51072, Note_on_c, 0, 81, 78
1, 51072, Note_on_c, 1, 61, 70
1, 51092, Note_on_c, 0, 81, 0
1, 51095, Note_on_c, 1, 61, 0
1, 51096, Note_on_c, 1, 69, 70
1, 51119, Note_on_c, 1, 69, 0
1, 51120, Note_on_c, 0, 81, 79
1, 51120, Note_on_c, 1, 64, 70
1, 51143, Note_on_c, 1, 64, 0
1, 51144, Note_on_c, 1, 69, 70
1, 51167, Note_on_c, 1, 69, 0
1, 51168, Note_on_c, 0, 81, 0
1, 51168, Note_on_c, 0, 83, 80
1, 51168, Note_on_c, 1, 56, 70
1, 51191, Note_on_c, 1, 56, 0
1, 51192, Note_on_c, 1, 64, 70
1, 51215, Note_on_c, 1, 64, 0
1, 51216, Note_on_c, 1, 59, 70
1, 51239, Note_on_c, 1, 59, 0
1, 51240, Note_on_c, 1, 64, 70
1, 51257, Note_on_c, 0, 83, 0
1, 51263, Note_on_c, 1, 64, 0
1, 51264, Note_on_c, 0, 85, 80
1, 51264, Note_on_c, 1, 56, 70
1, 51287, Note_on_c, 0, 85, 0
1, 51287, Note_on_c, 1, 56, 0
1, 51288, Note_on_c, 0, 83, 80
1, 51288, Note_on_c, 1, 64, 70
1, 51311, Note_on_c, 0, 83, 0
1, 51311, Note_on_c, 1, 64, 0
1, 51312, Note_on_c, 0, 81, 80
1, 51312, Note_on_c, 1, 59, 70
1, 51335, Note_on_c, 0, 81, 0
1, 51335, Note_on_c, 1, 59, 0
1, 51336, Note_on_c, 0, 80, 80
1, 51336, Note_on_c, 1, 64, 70
1, 51359, Note_on_c, 0, 80, 0
1, 51359, Note_on_c, 1, 64, 0
1, 51360, Note_on_c, 0, 78, 80
1, 51360, Note_on_c, 1, 57, 70
1, 51383, Note_on_c, 1, 57, 0
1, 51384, Note_on_c, 1, 66, 70
1, 51405, Note_on_c, 0, 78, 0
1, 51407, Note_on_c, 1, 66, 0
1, 51408, Note_on_c, 0, 78, 80
1, 51408, Note_on_c, 1, 61, 70
1, 51431, Note_on_c, 1, 61, 0
1, 51432, Note_on_c, 1, 66, 70
1, 51453, Note_on_c, 0, 78, 0
1, 51455, Note_on_c, 1, 66, 0
1, 51456, Note_on_c, 0, 76, 78
1, 51456, Note_on_c, 1, 59, 70
1, 51479, Note_on_c, 0, 76, 0
1, 51479, Note_on_c, 1, 59, 0
1, 51480, Note_on_c, 0, 75, 77
1, 51480, Note_on_c, 1, 69, 70
1, 51503, Note_on_c, 0, 75, 0
1, 51503, Note_on_c, 1, 69, 0
1, 51504, Note_on_c, 0, 73, 76
1, 51504, Note_on_c, 1, 66, 70
1, 51527, Note_on_c, 0, 73, 0
1, 51527, Note_on_c, 1, 66, 0
1, 51528, Note_on_c, 0, 71, 75
1, 51528, Note_on_c, 1, 69, 70
1, 51551, Note_on_c, 0, 71, 0
1, 51551, Note_on_c, 1, 69, 0
1, 51552, Note_on_c, 0, 76, 75
1, 51552, Note_on_c, 1, 68, 70
1, 51552, Note_on_c, 1, 64, 70
1, 51641, Note_on_c, 0, 76, 0
1, 51641, Note_on_c, 1, 68, 0
1, 51641, Note_on_c, 1, 64, 0
1, 51648, Note_on_c, 1, 52, 70
1, 51693, Note_on_c, 1, 52, 0
1, 51696, Note_on_c, 0, 67, 75
1, 51741, Note_on_c, 0, 67, 0
1, 51744, Note_on_c, 0, 67, 75
1, 51744, Note_on_c, 1, 52, 70
1, 51767, Note_on_c, 1, 52, 0
1, 51768, Note_on_c, 1, 59, 70
1, 51791, Note_on_c, 1, 59, 0
1, 51792, Note_on_c, 1, 55, 70
1, 51811, Note_on_c, 0, 67, 0
1, 51815, Note_on_c, 1, 55, 0
1, 51816, Note_on_c, 0, 69, 75
1, 51816, Note_on_c, 1, 59, 70
1, 51839, Note_on_c, 0, 69, 0
1, 51839, Note_on_c, 1, 59, 0
1, 51840, Note_on_c, 0, 71, 75
1, 51840, Note_on_c, 1, 52, 70
1, 51863, Note_on_c, 1, 52, 0
1, 51864, Note_on_c, 1, 59, 70
1, 51885, Note_on_c, 0, 71, 0
1, 51887, Note_on_c, 1, 59, 0
1, 51888, Note_on_c, 0, 76, 75
1, 51888, Note_on_c, 1, 55, 70
1, 51908, Note_on_c, 0, 76, 0
1, 51911, Note_on_c, 1, 55, 0
1, 51912, Note_on_c, 1, 59, 70
1, 51935, Note_on_c, 1, 59, 0
1, 51936, Note_on_c, 0, 75, 75
1, 51936, Note_on_c, 1, 54, 70
1, 51959, Note_on_c, 1, 54, 0
1, 51960, Note_on_c, 1, 59, 70
1, 51983, Note_on_c, 1, 59, 0
1, 51984, Note_on_c, 0, 75, 0
1, 51984, Note_on_c, 0, 78, 75
1, 51984, Note_on_c, 1, 57, 70
1, 52007, Note_on_c, 1, 57, 0
1, 52008, Note_on_c, 1, 59, 70
1, 52029, Note_on_c, 0, 78, 0
1, 52031, Note_on_c, 1, 59, 0
1, 52032, Note_on_c, 1, 54, 70
1, 52055, Note_on_c, 1, 54, 0
1, 52056, Note_on_c, 1, 59, 70
1, 52079, Note_on_c, 1, 59, 0
1, 52080, Note_on_c, 0, 71, 75
1, 52080, Note_on_c, 1, 57, 70
1, 52103, Note_on_c, 1, 57, 0
1, 52104, Note_on_c, 1, 59, 70
1, 52127, Note_on_c, 1, 59, 0
1, 52128, Note_on_c, 0, 71, 0
1, 52128, Note_on_c, 0, 76, 76
1, 52128, Note_on_c, 1, 52, 70
1, 52148, Note_on_c, 0, 76, 0
1, 52151, Note_on_c, 1, 52, 0
1, 52152, Note_on_c, 1, 59, 70
1, 52175, Note_on_c, 1, 59, 0
1, 52176, Note_on_c, 0, 76, 77
1, 52176, Note_on_c, 1, 55, 70
1, 52199, Note_on_c, 1, 55, 0
1, 52200, Note_on_c, 1, 59, 70
1, 52223, Note_on_c, 1, 59, 0
1, 52224, Note_on_c, 0, 76, 0
1, 52224, Note_on_c, 0, 78, 78
1, 52224, Note_on_c, 1, 51, 70
1, 52247, Note_on_c, 1, 51, 0
1, 52248, Note_on_c, 1, 59, 70
1, 52269, Note_on_c, 0, 78, 0
1, 52271, Note_on_c, 1, 59, 0
1, 52272, Note_on_c, 0, 78, 79
1, 52272, Note_on_c, 1, 54, 70
1, 52292, Note_on_c, 0, 78, 0
1, 52295, Note_on_c, 1, 54, 0
1, 52296, Note_on_c, 1, 59, 70
1, 52319, Note_on_c, 1, 59, 0
1, 52320, Note_on_c, 0, 81, 80
1, 52320, Note_on_c, 1, 52, 70
1, 52343, Note_on_c, 1, 52, 0
1, 52344, Note_on_c, 1, 59, 70
1, 52365, Note_on_c, 0, 81, 0
1, 52367, Note_on_c, 1, 59, 0
1, 52368, Note_on_c, 0, 79, 78
1, 52368, Note_on_c, 1, 55, 70
1, 52380, Note_on_c, 0, 79, 0
1, 52380, Note_on_c, 0, 81, 78
1, 52391, Note_on_c, 1, 55, 0
1, 52392, Note_on_c, 0, 81, 0
1, 52392, Note_on_c, 0, 79, 78
1, 52392, Note_on_c, 1, 59, 70
1, 52404, Note_on_c, 0, 79, 0
1, 52404, Note_on_c, 0, 81, 78
1, 52413, Note_on_c, 0, 81, 0
1, 52415, Note_on_c, 1, 59, 0
1, 52416, Note_on_c, 0, 78, 76
1, 52416, Note_on_c, 1, 47, 70
1, 52439, Note_on_c, 1, 47, 0
1, 52440, Note_on_c, 1, 59, 70
1, 52461, Note_on_c, 0, 78, 0
1, 52463, Note_on_c, 1, 59, 0
1, 52464, Note_on_c, 0, 78, 75
1, 52464, Note_on_c, 1, 51, 70
1, 52487, Note_on_c, 1, 51, 0
1, 52488, Note_on_c, 1, 59, 70
1, 52509, Note_on_c, 0, 78, 0
1, 52511, Note_on_c, 1, 59, 0
1, 52512, Note_on_c, 0, 79, 80
1, 52512, Note_on_c, 1, 52, 70
1, 52535, Note_on_c, 1, 52, 0
1, 52536, Note_on_c, 1, 59, 70
1, 52559, Note_on_c, 1, 59, 0
1, 52560, Note_on_c, 1, 55, 70
1, 52579, Note_on_c, 0, 79, 0
1, 52583, Note_on_c, 1, 55, 0
1, 52584, Note_on_c, 0, 81, 80
1, 52584, Note_on_c, 1, 59, 70
1, 52607, Note_on_c, 0, 81, 0
1, 52607, Note_on_c, 1, 59, 0
1, 52608, Note_on_c, 0, 83, 80
1, 52608, Note_on_c, 1, 52, 70
1, 52631, Note_on_c, 1, 52, 0
1, 52632, Note_on_c, 1, 59, 70
1, 52653, Note_on_c, 0, 83, 0
1, 52655, Note_on_c, 1, 59, 0
1, 52656, Note_on_c, 0, 83, 80
1, 52656, Note_on_c, 1, 55, 70
1, 52676, Note_on_c, 0, 83, 0
1, 52679, Note_on_c, 1, 55, 0
1, 52680, Note_on_c, 1, 59, 70
1, 52703, Note_on_c, 1, 59, 0
1, 52704, Note_on_c, 0, 81, 80
1, 52704, Note_on_c, 1, 48, 70
1, 52727, Note_on_c, 1, 48, 0
1, 52728, Note_on_c, 1, 57, 70
1, 52751, Note_on_c, 1, 57, 0
1, 52752, Note_on_c, 0, 81, 0
1, 52752, Note_on_c, 0, 84, 80
1, 52752, Note_on_c, 1, 52, 70
1, 52775, Note_on_c, 1, 52, 0
1, 52776, Note_on_c, 1, 57, 70
1, 52797, Note_on_c, 0, 84, 0
1, 52799, Note_on_c, 1, 57, 0
1, 52800, Note_on_c, 1, 48, 70
1, 52823, Note_on_c, 1, 48, 0
1, 52824, Note_on_c, 1, 57, 70
1, 52847, Note_on_c, 1, 57, 0
1, 52848, Note_on_c, 0, 81, 80
1, 52848, Note_on_c, 1, 52, 70
1, 52871, Note_on_c, 1, 52, 0
1, 52872, Note_on_c, 1, 57, 70
1, 52895, Note_on_c, 1, 57, 0
1, 52896, Note_on_c, 0, 81, 0
1, 52896, Note_on_c, 0, 78, 80
1, 52896, Note_on_c, 1, 50, 70
1, 52919, Note_on_c, 1, 50, 0
1, 52920, Note_on_c, 1, 60, 70
1, 52941, Note_on_c, 0, 78, 0
1, 52943, Note_on_c, 1, 60, 0
1, 52944, Note_on_c, 0, 78, 80
1, 52944, Note_on_c, 1, 57, 70
1, 52964, Note_on_c, 0, 78, 0
1, 52967, Note_on_c, 1, 57, 0
1, 52968, Note_on_c, 1, 60, 70
1, 52991, Note_on_c, 1, 60, 0
1, 52992, Note_on_c, 0, 79, 80
1, 52992, Note_on_c, 1, 50, 70
1, 53015, Note_on_c, 0, 79, 0
1, 53015, Note_on_c, 1, 50, 0
1, 53016, Note_on_c, 0, 78, 80
1, 53016, Note_on_c, 1, 60, 70
1, 53039, Note_on_c, 0, 78, 0
1, 53039, Note_on_c, 1, 60, 0
1, 53040, Note_on_c, 0, 76, 80
1, 53040, Note_on_c, 1, 57, 70
1, 53063, Note_on_c, 0, 76, 0
1, 53063, Note_on_c, 1, 57, 0
1, 53064, Note_on_c, 0, 74, 80
1, 53064, Note_on_c, 1, 60, 70
1, 53087, Note_on_c, 0, 74, 0
1, 53087, Note_on_c, 1, 60, 0
1, 53088, Note_on_c, 0, 79, 80
1, 53088, Note_on_c, 1, 59, 70
1, 53088, Note_on_c, 1, 55, 70
1, 53177, Note_on_c, 0, 79, 0
1, 53177, Note_on_c, 1, 59, 0
1, 53177, Note_on_c, 1, 55, 0
1, 53184, Note_on_c, 1, 43, 70
1, 53229, Note_on_c, 1, 43, 0
1, 53232, Note_on_c, 0, 67, 75
1, 53277, Note_on_c, 0, 67, 0
1, 53280, Note_on_c, 0, 69, 75
1, 53280, Note_on_c, 1, 52, 70
1, 53292, Note_on_c, 0, 69, 0
1, 53292, Note_on_c, 0, 67, 75
1, 53303, Note_on_c, 1, 52, 0
1, 53304, Note_on_c, 0, 67, 0
1, 53304, Note_on_c, 0, 66, 75
1, 53304, Note_on_c, 1, 59, 70
1, 53316, Note_on_c, 0, 66, 0
1, 53316, Note_on_c, 0, 67, 75
1, 53327, Note_on_c, 1, 59, 0
1, 53328, Note_on_c, 1, 55, 70
1, 53347, Note_on_c, 0, 67, 0
1, 53351, Note_on_c, 1, 55, 0
1, 53352, Note_on_c, 0, 69, 75
1, 53352, Note_on_c, 1, 59, 70
1, 53375, Note_on_c, 0, 69, 0
1, 53375, Note_on_c, 1, 59, 0
1, 53376, Note_on_c, 0, 71, 75
1, 53376, Note_on_c, 1, 52, 70
1, 53399, Note_on_c, 1, 52, 0
1, 53400, Note_on_c, 1, 59, 70
1, 53421, Note_on_c, 0, 71, 0
1, 53423, Note_on_c, 1, 59, 0
1, 53424, Note_on_c, 0, 76, 75
1, 53424, Note_on_c, 1, 55, 70
1, 53444, Note_on_c, 0, 76, 0
1, 53447, Note_on_c, 1, 55, 0
1, 53448, Note_on_c, 1, 59, 70
1, 53471, Note_on_c, 1, 59, 0
1, 53472, Note_on_c, 0, 75, 75
1, 53472, Note_on_c, 1, 54, 70
1, 53495, Note_on_c, 1, 54, 0
1, 53496, Note_on_c, 1, 59, 70
1, 53517, Note_on_c, 0, 75, 0
1, 53519, Note_on_c, 1, 59, 0
1, 53520, Note_on_c, 0, 83, 127
1, 53520, Note_on_c, 1, 57, 70
1, 53543, Note_on_c, 1, 57, 0
1, 53544, Note_on_c, 1, 59, 70
1, 53567, Note_on_c, 1, 59, 0
1, 53568, Note_on_c, 1, 54, 70
1, 53591, Note_on_c, 1, 54, 0
1, 53592, Note_on_c, 1, 59, 70
1, 53615, Note_on_c, 1, 59, 0
1, 53616, Note_on_c, 0, 83, 0
1, 53616, Note_on_c, 0, 78, 75
1, 53616, Note_on_c, 1, 57, 70
1, 53639, Note_on_c, 0, 78, 0
1, 53639, Note_on_c, 1, 57, 0
1, 53640, Note_on_c, 0, 75, 75
1, 53640, Note_on_c, 1, 59, 70
1, 53663, Note_on_c, 0, 75, 0
1, 53663, Note_on_c, 1, 59, 0
1, 53664, Note_on_c, 0, 83, 127
1, 53664, Note_on_c, 1, 52, 70
1, 53687, Note_on_c, 1, 52, 0
1, 53688, Note_on_c, 1, 59, 70
1, 53711, Note_on_c, 1, 59, 0
1, 53712, Note_on_c, 0, 83, 0
1, 53712, Note_on_c, 0, 79, 78
1, 53712, Note_on_c, 1, 55, 70
1, 53735, Note_on_c, 0, 79, 0
1, 53735, Note_on_c, 1, 55, 0
1, 53736, Note_on_c, 0, 76, 79
1, 53736, Note_on_c, 1, 59, 70
1, 53759, Note_on_c, 0, 76, 0
1, 53759, Note_on_c, 1, 59, 0
1, 53760, Note_on_c, 0, 84, 80
1, 53760, Note_on_c, 1, 51, 70
1, 53783, Note_on_c, 1, 51, 0
1, 53784, Note_on_c, 1, 59, 70
1, 53805, Note_on_c, 0, 84, 0
1, 53807, Note_on_c, 1, 59, 0
1, 53808, Note_on_c, 0, 81, 80
1, 53808, Note_on_c, 1, 54, 70
1, 53831, Note_on_c, 0, 81, 0
1, 53831, Note_on_c, 1, 54, 0
1, 53832, Note_on_c, 0, 78, 79
1, 53832, Note_on_c, 1, 59, 70
1, 53855, Note_on_c, 0, 78, 0
1, 53855, Note_on_c, 1, 59, 0
1, 53856, Note_on_c, 0, 81, 78
1, 53856, Note_on_c, 1, 52, 70
1, 53879, Note_on_c, 1, 52, 0
1, 53880, Note_on_c, 1, 59, 70
1, 53901, Note_on_c, 0, 81, 0
1, 53903, Note_on_c, 1, 59, 0
1, 53904, Note_on_c, 0, 79, 76
1, 53904, Note_on_c, 1, 55, 70
1, 53916, Note_on_c, 0, 79, 0
1, 53916, Note_on_c, 0, 81, 76
1, 53927, Note_on_c, 1, 55, 0
1, 53928, Note_on_c, 0, 81, 0
1, 53928, Note_on_c, 0, 79, 76
1, 53928, Note_on_c, 1, 59, 70
1, 53940, Note_on_c, 0, 79, 0
1, 53940, Note_on_c, 0, 81, 76
1, 53949, Note_on_c, 0, 81, 0
1, 53951, Note_on_c, 1, 59, 0
1, 53952, Note_on_c, 0, 78, 75
1, 53952, Note_on_c, 1, 47, 70
1, 53975, Note_on_c, 1, 47, 0
1, 53976, Note_on_c, 1, 59, 70
1, 53997, Note_on_c, 0, 78, 0
1, 53999, Note_on_c, 1, 59, 0
1, 54000, Note_on_c, 0, 78, 75
1, 54000, Note_on_c, 1, 51, 70
1, 54023, Note_on_c, 1, 51, 0
1, 54024, Note_on_c, 1, 59, 70
1, 54045, Note_on_c, 0, 78, 0
1, 54047, Note_on_c, 1, 59, 0
1, 54048, Note_on_c, 0, 81, 75
1, 54048, Note_on_c, 1, 52, 70
1, 54060, Note_on_c, 0, 81, 0
1, 54060, Note_on_c, 0, 79, 75
1, 54071, Note_on_c, 1, 52, 0
1, 54072, Note_on_c, 0, 79, 0
1, 54072, Note_on_c, 0, 78, 75
1, 54072, Note_on_c, 1, 59, 70
1, 54084, Note_on_c, 0, 78, 0
1, 54084, Note_on_c, 0, 79, 75
1, 54095, Note_on_c, 1, 59, 0
1, 54096, Note_on_c, 1, 55, 70
1, 54115, Note_on_c, 0, 79, 0
1, 54119, Note_on_c, 1, 55, 0
1, 54120, Note_on_c, 0, 81, 75
1, 54120, Note_on_c, 1, 59, 70
1, 54143, Note_on_c, 0, 81, 0
1, 54143, Note_on_c, 1, 59, 0
1, 54144, Note_on_c, 0, 83, 75
1, 54144, Note_on_c, 1, 52, 70
1, 54167, Note_on_c, 1, 52, 0
1, 54168, Note_on_c, 1, 59, 70
1, 54189, Note_on_c, 0, 83, 0
1, 54191, Note_on_c, 1, 59, 0
1, 54192, Note_on_c, 0, 83, 75
1, 54192, Note_on_c, 1, 55, 70
1, 54212, Note_on_c, 0, 83, 0
1, 54215, Note_on_c, 1, 55, 0
1, 54216, Note_on_c, 1, 59, 70
1, 54239, Note_on_c, 1, 59, 0
1, 54240, Note_on_c, 0, 81, 75
1, 54240, Note_on_c, 1, 48, 70
1, 54263, Note_on_c, 0, 81, 0
1, 54263, Note_on_c, 1, 48, 0
1, 54264, Note_on_c, 0, 84, 75
1, 54264, Note_on_c, 1, 57, 70
1, 54287, Note_on_c, 0, 84, 0
1, 54287, Note_on_c, 1, 57, 0
1, 54288, Note_on_c, 0, 88, 75
1, 54288, Note_on_c, 1, 52, 70
1, 54311, Note_on_c, 0, 88, 0
1, 54311, Note_on_c, 1, 52, 0
1, 54312, Note_on_c, 0, 86, 75
1, 54312, Note_on_c, 1, 57, 70
1, 54335, Note_on_c, 0, 86, 0
1, 54335, Note_on_c, 1, 57, 0
1, 54336, Note_on_c, 0, 84, 75
1, 54336, Note_on_c, 1, 48, 70
1, 54359, Note_on_c, 0, 84, 0
1, 54359, Note_on_c, 1, 48, 0
1, 54360, Note_on_c, 0, 83, 75
1, 54360, Note_on_c, 1, 57, 70
1, 54383, Note_on_c, 0, 83, 0
1, 54383, Note_on_c, 1, 57, 0
1, 54384, Note_on_c, 0, 81, 75
1, 54384, Note_on_c, 1, 52, 70
1, 54407, Note_on_c, 0, 81, 0
1, 54407, Note_on_c, 1, 52, 0
1, 54408, Note_on_c, 0, 79, 75
1, 54408, Note_on_c, 1, 57, 70
1, 54431, Note_on_c, 0, 79, 0
1, 54431, Note_on_c, 1, 57, 0
1, 54432, Note_on_c, 0, 78, 75
1, 54432, Note_on_c, 1, 50, 70
1, 54452, Note_on_c, 0, 78, 0
1, 54455, Note_on_c, 1, 50, 0
1, 54456, Note_on_c, 1, 60, 70
1, 54479, Note_on_c, 1, 60, 0
1, 54480, Note_on_c, 0, 81, 75
1, 54480, Note_on_c, 1, 57, 70
1, 54500, Note_on_c, 0, 81, 0
1, 54503, Note_on_c, 1, 57, 0
1, 54504, Note_on_c, 1, 60, 70
1, 54527, Note_on_c, 1, 60, 0
1, 54528, Note_on_c, 0, 84, 75
1, 54528, Note_on_c, 1, 50, 70
1, 54551, Note_on_c, 1, 50, 0
1, 54552, Note_on_c, 1, 60, 70
1, 54573, Note_on_c, 0, 84, 0
1, 54575, Note_on_c, 1, 60, 0
1, 54576, Note_on_c, 0, 81, 75
1, 54576, Note_on_c, 1, 57, 70
1, 54599, Note_on_c, 0, 81, 0
1, 54599, Note_on_c, 1, 57, 0
1, 54600, Note_on_c, 0, 78, 75
1, 54600, Note_on_c, 1, 60, 70
1, 54623, Note_on_c, 0, 78, 0
1, 54623, Note_on_c, 1, 60, 0
1, 54624, Note_on_c, 0, 79, 75
1, 54624, Note_on_c, 1, 59, 70
1, 54624, Note_on_c, 1, 55, 70
1, 54713, Note_on_c, 0, 79, 0
1, 54713, Note_on_c, 1, 59, 0
1, 54713, Note_on_c, 1, 55, 0
1, 54720, Note_on_c, 1, 43, 70
1, 54765, Note_on_c, 1, 43, 0
1, 54768, Note_on_c, 0, 83, 75
1, 54813, Note_on_c, 0, 83, 0
1, 54816, Note_on_c, 0, 83, 75
1, 54816, Note_on_c, 1, 59, 70
1, 54839, Note_on_c, 1, 59, 0
1, 54840, Note_on_c, 1, 67, 70
1, 54861, Note_on_c, 0, 83, 0
1, 54863, Note_on_c, 1, 67, 0
1, 54864, Note_on_c, 0, 84, 75
1, 54864, Note_on_c, 1, 62, 70
1, 54887, Note_on_c, 1, 62, 0
1, 54888, Note_on_c, 1, 67, 70
1, 54909, Note_on_c, 0, 84, 0
1, 54911, Note_on_c, 1, 67, 0
1, 54912, Note_on_c, 0, 85, 75
1, 54912, Note_on_c, 1, 59, 70
1, 54935, Note_on_c, 1, 59, 0
1, 54936, Note_on_c, 1, 67, 70
1, 54957, Note_on_c, 0, 85, 0
1, 54959, Note_on_c, 1, 67, 0
1, 54960, Note_on_c, 0, 86, 75
1, 54960, Note_on_c, 1, 62, 70
1, 54983, Note_on_c, 1, 62, 0
1, 54984, Note_on_c, 1, 67, 70
1, 55005, Note_on_c, 0, 86, 0
1, 55007, Note_on_c, 1, 67, 0
1, 55008, Note_on_c, 0, 86, 75
1, 55008, Note_on_c, 1, 60, 70
1, 55031, Note_on_c, 1, 60, 0
1, 55032, Note_on_c, 1, 67, 70
1, 55055, Note_on_c, 1, 67, 0
1, 55056, Note_on_c, 0, 86, 0
1, 55056, Note_on_c, 0, 76, 75
1, 55056, Note_on_c, 1, 64, 70
1, 55079, Note_on_c, 1, 64, 0
1, 55080, Note_on_c, 1, 67, 70
1, 55101, Note_on_c, 0, 76, 0
1, 55103, Note_on_c, 1, 67, 0
1, 55104, Note_on_c, 0, 77, 75
1, 55104, Note_on_c, 1, 60, 70
1, 55127, Note_on_c, 0, 77, 0
1, 55127, Note_on_c, 1, 60, 0
1, 55128, Note_on_c, 0, 78, 76
1, 55128, Note_on_c, 1, 67, 70
1, 55151, Note_on_c, 0, 78, 0
1, 55151, Note_on_c, 1, 67, 0
1, 55152, Note_on_c, 0, 79, 77
1, 55152, Note_on_c, 1, 64, 70
1, 55175, Note_on_c, 0, 79, 0
1, 55175, Note_on_c, 1, 64, 0
1, 55176, Note_on_c, 0, 80, 78
1, 55176, Note_on_c, 1, 67, 70
1, 55199, Note_on_c, 0, 80, 0
1, 55199, Note_on_c, 1, 67, 0
1, 55200, Note_on_c, 0, 83, 80
1, 55200, Note_on_c, 1, 57, 70
1, 55212, Note_on_c, 0, 83, 0
1, 55212, Note_on_c, 0, 81, 80
1, 55223, Note_on_c, 1, 57, 0
1, 55224, Note_on_c, 0, 81, 0
1, 55224, Note_on_c, 0, 79, 80
1, 55224, Note_on_c, 1, 66, 70
1, 55236, Note_on_c, 0, 79, 0
1, 55236, Note_on_c, 0, 81, 80
1, 55247, Note_on_c, 1, 66, 0
1, 55248, Note_on_c, 1, 60, 70
1, 55267, Note_on_c, 0, 81, 0
1, 55271, Note_on_c, 1, 60, 0
1, 55272, Note_on_c, 0, 83, 80
1, 55272, Note_on_c, 1, 66, 70
1, 55295, Note_on_c, 0, 83, 0
1, 55295, Note_on_c, 1, 66, 0
1, 55296, Note_on_c, 0, 84, 80
1, 55296, Note_on_c, 1, 57, 70
1, 55319, Note_on_c, 1, 57, 0
1, 55320, Note_on_c, 1, 66, 70
1, 55341, Note_on_c, 0, 84, 0
1, 55343, Note_on_c, 1, 66, 0
1, 55344, Note_on_c, 0, 84, 80
1, 55344, Note_on_c, 1, 60, 70
1, 55367, Note_on_c, 1, 60, 0
1, 55368, Note_on_c, 1, 66, 70
1, 55389, Note_on_c, 0, 84, 0
1, 55391, Note_on_c, 1, 66, 0
1, 55392, Note_on_c, 0, 84, 78
1, 55392, Note_on_c, 1, 59, 70
1, 55415, Note_on_c, 1, 59, 0
1, 55416, Note_on_c, 1, 66, 70
1, 55439, Note_on_c, 1, 66, 0
1, 55440, Note_on_c, 1, 63, 70
1, 55463, Note_on_c, 1, 63, 0
1, 55464, Note_on_c, 1, 66, 70
1, 55487, Note_on_c, 1, 66, 0
1, 55488, Note_on_c, 0, 84, 0
1, 55488, Note_on_c, 0, 75, 76
1, 55488, Note_on_c, 1, 57, 70
1, 55511, Note_on_c, 1, 57, 0
1, 55512, Note_on_c, 1, 63, 70
1, 55533, Note_on_c, 0, 75, 0
1, 55535, Note_on_c, 1, 63, 0
1, 55536, Note_on_c, 0, 71, 75
1, 55536, Note_on_c, 1, 59, 70
1, 55559, Note_on_c, 1, 59, 0
1, 55560, Note_on_c, 1, 63, 70
1, 55583, Note_on_c, 1, 63, 0
1, 55584, Note_on_c, 0, 71, 0
1, 55584, Note_on_c, 0, 76, 75
1, 55584, Note_on_c, 1, 55, 70
1, 55604, Note_on_c, 0, 76, 0
1, 55607, Note_on_c, 1, 55, 0
1, 55608, Note_on_c, 1, 64, 70
1, 55631, Note_on_c, 1, 64, 0
1, 55632, Note_on_c, 0, 76, 75
1, 55632, Note_on_c, 1, 59, 70
1, 55655, Note_on_c, 1, 59, 0
1, 55656, Note_on_c, 1, 64, 70
1, 55679, Note_on_c, 1, 64, 0
1, 55680, Note_on_c, 0, 76, 0
1, 55680, Note_on_c, 0, 78, 75
1, 55680, Note_on_c, 1, 51, 70
1, 55700, Note_on_c, 0, 78, 0
1, 55703, Note_on_c, 1, 51, 0
1, 55704, Note_on_c, 1, 59, 70
1, 55727, Note_on_c, 1, 59, 0
1, 55728, Note_on_c, 0, 78, 75
1, 55728, Note_on_c, 1, 54, 70
1, 55751, Note_on_c, 1, 54, 0
1, 55752, Note_on_c, 1, 59, 70
1, 55773, Note_on_c, 0, 78, 0
1, 55775, Note_on_c, 1, 59, 0
1, 55776, Note_on_c, 0, 81, 75
1, 55776, Note_on_c, 1, 52, 70
1, 55799, Note_on_c, 1, 52, 0
1, 55800, Note_on_c, 1, 59, 70
1, 55821, Note_on_c, 0, 81, 0
1, 55823, Note_on_c, 1, 59, 0
1, 55824, Note_on_c, 0, 79, 75
1, 55824, Note_on_c, 1, 55, 70
1, 55836, Note_on_c, 0, 79, 0
1, 55836, Note_on_c, 0, 81, 75
1, 55847, Note_on_c, 1, 55, 0
1, 55848, Note_on_c, 0, 81, 0
1, 55848, Note_on_c, 0, 79, 75
1, 55848, Note_on_c, 1, 59, 70
1, 55860, Note_on_c, 0, 79, 0
1, 55860, Note_on_c, 0, 81, 75
1, 55869, Note_on_c, 0, 81, 0
1, 55871, Note_on_c, 1, 59, 0
1, 55872, Note_on_c, 0, 78, 75
1, 55872, Note_on_c, 1, 47, 70
1, 55895, Note_on_c, 1, 47, 0
1, 55896, Note_on_c, 1, 59, 70
1, 55917, Note_on_c, 0, 78, 0
1, 55919, Note_on_c, 1, 59, 0
1, 55920, Note_on_c, 0, 83, 75
1, 55920, Note_on_c, 1, 51, 70
1, 55943, Note_on_c, 1, 51, 0
1, 55944, Note_on_c, 1, 59, 70
1, 55967, Note_on_c, 1, 59, 0
1, 55968, Note_on_c, 0, 83, 0
1, 55968, Note_on_c, 0, 76, 75
1, 55968, Note_on_c, 1, 48, 70
1, 55988, Note_on_c, 0, 76, 0
1, 55991, Note_on_c, 1, 48, 0
1, 55992, Note_on_c, 1, 59, 70
1, 56015, Note_on_c, 1, 59, 0
1, 56016, Note_on_c, 0, 76, 75
1, 56016, Note_on_c, 1, 55, 70
1, 56039, Note_on_c, 1, 55, 0
1, 56040, Note_on_c, 1, 59, 70
1, 56063, Note_on_c, 1, 59, 0
1, 56064, Note_on_c, 0, 76, 0
1, 56064, Note_on_c, 0, 84, 75
1, 56064, Note_on_c, 1, 48, 70
1, 56084, Note_on_c, 0, 84, 0
1, 56087, Note_on_c, 1, 48, 0
1, 56088, Note_on_c, 1, 57, 70
1, 56111, Note_on_c, 1, 57, 0
1, 56112, Note_on_c, 0, 84, 75
1, 56112, Note_on_c, 1, 55, 70
1, 56135, Note_on_c, 1, 55, 0
1, 56136, Note_on_c, 1, 57, 70
1, 56159, Note_on_c, 1, 57, 0
1, 56160, Note_on_c, 0, 84, 0
1, 56160, Note_on_c, 0, 75, 75
1, 56160, Note_on_c, 1, 47, 70
1, 56183, Note_on_c, 1, 47, 0
1, 56184, Note_on_c, 1, 57, 70
1, 56207, Note_on_c, 1, 57, 0
1, 56208, Note_on_c, 1, 54, 70
1, 56231, Note_on_c, 1, 54, 0
1, 56232, Note_on_c, 1, 57, 70
1, 56255, Note_on_c, 1, 57, 0
1, 56256, Note_on_c, 0, 75, 0
1, 56256, Note_on_c, 0, 76, 75
1, 56256, Note_on_c, 1, 48, 70
1, 56279, Note_on_c, 1, 48, 0
1, 56280, Note_on_c, 1, 55, 70
1, 56301, Note_on_c, 0, 76, 0
1, 56303, Note_on_c, 1, 55, 0
1, 56304, Note_on_c, 0, 76, 75
1, 56304, Note_on_c, 1, 52, 70
1, 56327, Note_on_c, 1, 52, 0
1, 56328, Note_on_c, 1, 55, 70
1, 56351, Note_on_c, 1, 55, 0
1, 56352, Note_on_c, 0, 76, 0
1, 56352, Note_on_c, 0, 78, 75
1, 56352, Note_on_c, 1, 45, 70
1, 56375, Note_on_c, 1, 45, 0
1, 56376, Note_on_c, 1, 54, 70
1, 56397, Note_on_c, 0, 78, 0
1, 56399, Note_on_c, 1, 54, 0
1, 56400, Note_on_c, 0, 78, 75
1, 56400, Note_on_c, 1, 48, 70
1, 56420, Note_on_c, 0, 78, 0
1, 56423, Note_on_c, 1, 48, 0
1, 56424, Note_on_c, 1, 54, 70
1, 56447, Note_on_c, 1, 54, 0
1, 56448, Note_on_c, 0, 76, 75
1, 56448, Note_on_c, 1, 47, 70
1, 56471, Note_on_c, 0, 76, 0
1, 56471, Note_on_c, 1, 47, 0
1, 56472, Note_on_c, 0, 75, 75
1, 56472, Note_on_c, 1, 57, 70
1, 56495, Note_on_c, 0, 75, 0
1, 56495, Note_on_c, 1, 57, 0
1, 56496, Note_on_c, 0, 73, 75
1, 56496, Note_on_c, 1, 54, 70
1, 56519, Note_on_c, 0, 73, 0
1, 56519, Note_on_c, 1, 54, 0
1, 56520, Note_on_c, 0, 71, 75
1, 56520, Note_on_c, 1, 57, 70
1, 56543, Note_on_c, 0, 71, 0
1, 56543, Note_on_c, 1, 57, 0
1, 56544, Note_on_c, 0, 76, 75
1, 56544, Note_on_c, 1, 55, 70
1, 56544, Note_on_c, 1, 52, 70
1, 56633, Note_on_c, 0, 76, 0
1, 56633, Note_on_c, 1, 55, 0
1, 56633, Note_on_c, 1, 52, 0
1, 56640, Note_on_c, 1, 40, 70
1, 56685, Note_on_c, 1, 40, 0
1, 56688, Note_on_c, 0, 83, 80
1, 56733, Note_on_c, 0, 83, 0
1, 56736, Note_on_c, 0, 83, 80
1, 56736, Note_on_c, 1, 59, 70
1, 56759, Note_on_c, 0, 83, 0
1, 56759, Note_on_c, 1, 59, 0
1, 56760, Note_on_c, 0, 84, 80
1, 56760, Note_on_c, 1, 67, 70
1, 56783, Note_on_c, 0, 84, 0
1, 56783, Note_on_c, 1, 67, 0
1, 56784, Note_on_c, 0, 86, 80
1, 56784, Note_on_c, 1, 62, 70
1, 56794, Note_on_c, 0, 86, 0
1, 56807, Note_on_c, 1, 62, 0
1, 56808, Note_on_c, 0, 86, 80
1, 56808, Note_on_c, 1, 67, 70
1, 56818, Note_on_c, 0, 86, 0
1, 56831, Note_on_c, 1, 67, 0
1, 56832, Note_on_c, 0, 86, 80
1, 56832, Note_on_c, 1, 59, 70
1, 56842, Note_on_c, 0, 86, 0
1, 56855, Note_on_c, 1, 59, 0
1, 56856, Note_on_c, 0, 86, 80
1, 56856, Note_on_c, 1, 67, 70
1, 56866, Note_on_c, 0, 86, 0
1, 56879, Note_on_c, 1, 67, 0
1, 56880, Note_on_c, 0, 86, 80
1, 56880, Note_on_c, 1, 62, 70
1, 56890, Note_on_c, 0, 86, 0
1, 56903, Note_on_c, 1, 62, 0
1, 56904, Note_on_c, 0, 86, 80
1, 56904, Note_on_c, 1, 67, 70
1, 56914, Note_on_c, 0, 86, 0
1, 56927, Note_on_c, 1, 67, 0
1, 56928, Note_on_c, 0, 86, 80
1, 56928, Note_on_c, 1, 60, 70
1, 56951, Note_on_c, 1, 60, 0
1, 56952, Note_on_c, 1, 67, 70
1, 56975, Note_on_c, 1, 67, 0
1, 56976, Note_on_c, 0, 86, 0
1, 56976, Note_on_c, 0, 76, 80
1, 56976, Note_on_c, 1, 64, 70
1, 56999, Note_on_c, 1, 64, 0
1, 57000, Note_on_c, 1, 67, 70
1, 57021, Note_on_c, 0, 76, 0
1, 57023, Note_on_c, 1, 67, 0
1, 57024, Note_on_c, 1, 60, 70
1, 57047, Note_on_c, 1, 60, 0
1, 57048, Note_on_c, 1, 67, 70
1, 57071, Note_on_c, 1, 67, 0
1, 57072, Note_on_c, 0, 76, 80
1, 57072, Note_on_c, 1, 64, 70
1, 57095, Note_on_c, 1, 64, 0
1, 57096, Note_on_c, 1, 67, 70
1, 57117, Note_on_c, 0, 76, 0
1, 57119, Note_on_c, 1, 67, 0
1, 57120, Note_on_c, 0, 81, 80
1, 57120, Note_on_c, 1, 57, 70
1, 57143, Note_on_c, 0, 81, 0
1, 57143, Note_on_c, 1, 57, 0
1, 57144, Note_on_c, 0, 83, 80
1, 57144, Note_on_c, 1, 66, 70
1, 57167, Note_on_c, 0, 83, 0
1, 57167, Note_on_c, 1, 66, 0
1, 57168, Note_on_c, 0, 84, 80
1, 57168, Note_on_c, 1, 60, 70
1, 57178, Note_on_c, 0, 84, 0
1, 57191, Note_on_c, 1, 60, 0
1, 57192, Note_on_c, 0, 84, 80
1, 57192, Note_on_c, 1, 66, 70
1, 57202, Note_on_c, 0, 84, 0
1, 57215, Note_on_c, 1, 66, 0
1, 57216, Note_on_c, 0, 84, 80
1, 57216, Note_on_c, 1, 57, 70
1, 57226, Note_on_c, 0, 84, 0
1, 57239, Note_on_c, 1, 57, 0
1, 57240, Note_on_c, 0, 84, 80
1, 57240, Note_on_c, 1, 66, 70
1, 57250, Note_on_c, 0, 84, 0
1, 57263, Note_on_c, 1, 66, 0
1, 57264, Note_on_c, 0, 84, 80
1, 57264, Note_on_c, 1, 60, 70
1, 57274, Note_on_c, 0, 84, 0
1, 57287, Note_on_c, 1, 60, 0
1, 57288, Note_on_c, 0, 84, 80
1, 57288, Note_on_c, 1, 66, 70
1, 57298, Note_on_c, 0, 84, 0
1, 57311, Note_on_c, 1, 66, 0
1, 57312, Note_on_c, 0, 84, 80
1, 57312, Note_on_c, 1, 59, 70
1, 57335, Note_on_c, 1, 59, 0
1, 57336, Note_on_c, 1, 66, 70
1, 57359, Note_on_c, 1, 66, 0
1, 57360, Note_on_c, 0, 84, 0
1, 57360, Note_on_c, 0, 75, 80
1, 57360, Note_on_c, 1, 63, 70
1, 57383, Note_on_c, 1, 63, 0
1, 57384, Note_on_c, 1, 66, 70
1, 57405, Note_on_c, 0, 75, 0
1, 57407, Note_on_c, 1, 66, 0
1, 57408, Note_on_c, 1, 57, 70
1, 57431, Note_on_c, 1, 57, 0
1, 57432, Note_on_c, 1, 63, 70
1, 57455, Note_on_c, 1, 63, 0
1, 57456, Note_on_c, 0, 71, 75
1, 57456, Note_on_c, 1, 59, 70
1, 57479, Note_on_c, 1, 59, 0
1, 57480, Note_on_c, 1, 63, 70
1, 57501, Note_on_c, 0, 71, 0
1, 57503, Note_on_c, 1, 63, 0
1, 57504, Note_on_c, 0, 75, 75
1, 57504, Note_on_c, 1, 55, 70
1, 57527, Note_on_c, 0, 75, 0
1, 57527, Note_on_c, 1, 55, 0
1, 57528, Note_on_c, 0, 76, 75
1, 57528, Note_on_c, 1, 64, 70
1, 57551, Note_on_c, 0, 76, 0
1, 57551, Note_on_c, 1, 64, 0
1, 57552, Note_on_c, 0, 75, 75
1, 57552, Note_on_c, 1, 59, 70
1, 57575, Note_on_c, 0, 75, 0
1, 57575, Note_on_c, 1, 59, 0
1, 57576, Note_on_c, 0, 76, 75
1, 57576, Note_on_c, 1, 64, 70
1, 57599, Note_on_c, 0, 76, 0
1, 57599, Note_on_c, 1, 64, 0
1, 57600, Note_on_c, 0, 78, 75
1, 57600, Note_on_c, 1, 51, 70
1, 57623, Note_on_c, 1, 51, 0
1, 57624, Note_on_c, 1, 59, 70
1, 57645, Note_on_c, 0, 78, 0
1, 57647, Note_on_c, 1, 59, 0
1, 57648, Note_on_c, 0, 78, 75
1, 57648, Note_on_c, 1, 54, 70
1, 57671, Note_on_c, 1, 54, 0
1, 57672, Note_on_c, 1, 59, 70
1, 57693, Note_on_c, 0, 78, 0
1, 57695, Note_on_c, 1, 59, 0
1, 57696, Note_on_c, 0, 81, 75
1, 57696, Note_on_c, 1, 52, 70
1, 57719, Note_on_c, 1, 52, 0
1, 57720, Note_on_c, 1, 59, 70
1, 57741, Note_on_c, 0, 81, 0
1, 57743, Note_on_c, 1, 59, 0
1, 57744, Note_on_c, 0, 79, 75
1, 57744, Note_on_c, 1, 55, 70
1, 57756, Note_on_c, 0, 79, 0
1, 57756, Note_on_c, 0, 81, 75
1, 57767, Note_on_c, 1, 55, 0
1, 57768, Note_on_c, 0, 81, 0
1, 57768, Note_on_c, 0, 79, 75
1, 57768, Note_on_c, 1, 59, 70
1, 57780, Note_on_c, 0, 79, 0
1, 57780, Note_on_c, 0, 81, 75
1, 57789, Note_on_c, 0, 81, 0
1, 57791, Note_on_c, 1, 59, 0
1, 57792, Note_on_c, 0, 78, 75
1, 57792, Note_on_c, 1, 47, 70
1, 57815, Note_on_c, 1, 47, 0
1, 57816, Note_on_c, 1, 59, 70
1, 57837, Note_on_c, 0, 78, 0
1, 57839, Note_on_c, 1, 59, 0
1, 57840, Note_on_c, 0, 83, 75
1, 57840, Note_on_c, 1, 51, 70
1, 57863, Note_on_c, 1, 51, 0
1, 57864, Note_on_c, 1, 59, 70
1, 57887, Note_on_c, 1, 59, 0
1, 57888, Note_on_c, 1, 48, 70
1, 57911, Note_on_c, 1, 48, 0
1, 57912, Note_on_c, 1, 59, 70
1, 57933, Note_on_c, 0, 83, 0
1, 57935, Note_on_c, 1, 59, 0
1, 57936, Note_on_c, 0, 76, 75
1, 57936, Note_on_c, 1, 55, 70
1, 57959, Note_on_c, 1, 55, 0
1, 57960, Note_on_c, 1, 59, 70
1, 57983, Note_on_c, 1, 59, 0
1, 57984, Note_on_c, 1, 48, 70
1, 58007, Note_on_c, 1, 48, 0
1, 58008, Note_on_c, 1, 57, 70
1, 58025, Note_on_c, 0, 76, 0
1, 58031, Note_on_c, 1, 57, 0
1, 58032, Note_on_c, 0, 84, 75
1, 58032, Note_on_c, 1, 55, 70
1, 58055, Note_on_c, 1, 55, 0
1, 58056, Note_on_c, 1, 57, 70
1, 58077, Note_on_c, 0, 84, 0
1, 58079, Note_on_c, 1, 57, 0
1, 58080, Note_on_c, 0, 75, 75
1, 58080, Note_on_c, 1, 47, 70
1, 58103, Note_on_c, 1, 47, 0
1, 58104, Note_on_c, 1, 57, 70
1, 58125, Note_on_c, 0, 75, 0
1, 58127, Note_on_c, 1, 57, 0
1, 58128, Note_on_c, 0, 75, 75
1, 58128, Note_on_c, 1, 54, 70
1, 58151, Note_on_c, 1, 54, 0
1, 58152, Note_on_c, 1, 57, 70
1, 58173, Note_on_c, 0, 75, 0
1, 58175, Note_on_c, 1, 57, 0
1, 58176, Note_on_c, 0, 76, 75
1, 58176, Note_on_c, 1, 48, 70
1, 58199, Note_on_c, 1, 48, 0
1, 58200, Note_on_c, 1, 55, 70
1, 58221, Note_on_c, 0, 76, 0
1, 58223, Note_on_c, 1, 55, 0
1, 58224, Note_on_c, 0, 76, 75
1, 58224, Note_on_c, 1, 52, 70
1, 58247, Note_on_c, 1, 52, 0
1, 58248, Note_on_c, 1, 55, 70
1, 58269, Note_on_c, 0, 76, 0
1, 58271, Note_on_c, 1, 55, 0
1, 58272, Tempo, 500000
1, 58272, Note_on_c, 1, 57, 70
1, 58272, Note_on_c, 1, 45, 70
1, 58317, Note_on_c, 1, 57, 0
1, 58317, Note_on_c, 1, 45, 0
1, 58320, Note_on_c, 0, 78, 75
1, 58320, Note_on_c, 0, 69, 75
1, 58365, Note_on_c, 0, 78, 0
1, 58365, Note_on_c, 0, 69, 0
1, 58368, Note_on_c, 1, 59, 70
1, 58368, Note_on_c, 1, 47, 70
1, 58413, Note_on_c, 1, 59, 0
1, 58413, Note_on_c, 1, 47, 0
1, 58416, Note_on_c, 0, 75, 75
1, 58416, Note_on_c, 0, 66, 75
1, 58461, Note_on_c, 0, 75, 0
1, 58461, Note_on_c, 0, 66, 0
1, 58464, Note_on_c, 0, 76, 75
1, 58464, Note_on_c, 0, 64, 75
1, 58464, Note_on_c, 1, 52, 70
1, 58464, Note_on_c, 1, 40, 70
1, 58597, Note_on_c, 0, 76, 0
1, 58597, Note_on_c, 0, 64, 0
1, 58597, Note_on_c, 1, 52, 0
1, 58597, Note_on_c, 1, 40, 0
1, 58656, Note_on_c, 1, 52, 4
1, 58656, Note_on_c, 1, 40, 4
1, 58745, Note_on_c, 1, 52, 0
1, 58745, Note_on_c, 1, 40, 0
1, 58755, End_track
0, 0, End_of_file