0, 0, Header, 0, 1, 96
1, 0, Start_track
1, 0, Tempo, 1578947
1, 0, Note_on_c, 1, 38, 76
1, 5, Note_on_c, 1, 41, 76
1, 10, Note_on_c, 1, 45, 76
1, 15, Note_on_c, 1, 50, 76
1, 20, Note_on_c, 1, 53, 76
1, 25, Note_on_c, 1, 57, 76
1, 30, Note_on_c, 1, 62, 76
1, 95, Note_on_c, 1, 62, 0
1, 95, Note_on_c, 1, 57, 0
1, 95, Note_on_c, 1, 53, 0
1, 95, Note_on_c, 1, 50, 0
1, 95, Note_on_c, 1, 45, 0
1, 95, Note_on_c, 1, 41, 0
1, 95, Note_on_c, 1, 38, 0
1, 96, Note_on_c, 0, 65, 76
1, 96, Note_on_c, 0, 57, 76
1, 96, Note_on_c, 1, 53, 76
1, 96, Note_on_c, 1, 50, 76
1, 163, Note_on_c, 0, 57, 0
1, 163, Note_on_c, 1, 53, 0
1, 168, Note_on_c, 0, 59, 76
1, 168, Note_on_c, 1, 55, 76
1, 185, Note_on_c, 1, 50, 0
1, 191, Note_on_c, 0, 59, 0
1, 191, Note_on_c, 1, 55, 0
1, 192, Note_on_c, 0, 61, 76
1, 192, Note_on_c, 1, 57, 76
1, 192, Note_on_c, 1, 45, 76
1, 236, Note_on_c, 0, 65, 0
1, 240, Note_on_c, 0, 64, 76
1, 281, Note_on_c, 0, 61, 0
1, 281, Note_on_c, 1, 45, 0
1, 285, Note_on_c, 0, 64, 0
1, 288, Note_on_c, 0, 62, 76
1, 288, Note_on_c, 0, 62, 76
1, 288, Note_on_c, 1, 46, 76
1, 355, Note_on_c, 1, 57, 0
1, 360, Note_on_c, 1, 50, 76
1, 368, Note_on_c, 1, 50, 0
1, 368, Note_on_c, 1, 52, 76
1, 376, Note_on_c, 1, 52, 0
1, 376, Note_on_c, 1, 54, 76
1, 384, Note_on_c, 1, 54, 0
1, 384, Note_on_c, 1, 55, 76
1, 407, Note_on_c, 0, 62, 0
1, 408, Note_on_c, 0, 62, 76
1, 416, Note_on_c, 0, 62, 0
1, 416, Note_on_c, 0, 64, 76
1, 424, Note_on_c, 0, 64, 0
1, 424, Note_on_c, 0, 66, 76
1, 432, Note_on_c, 0, 66, 0
1, 432, Note_on_c, 0, 67, 76
1, 465, Note_on_c, 1, 46, 0
1, 466, Note_on_c, 0, 67, 0
1, 468, Note_on_c, 0, 69, 76
1, 480, Note_on_c, 0, 69, 0
1, 480, Note_on_c, 0, 70, 76
1, 480, Note_on_c, 1, 43, 76
1, 503, Note_on_c, 0, 62, 0
1, 504, Note_on_c, 0, 64, 76
1, 516, Note_on_c, 0, 64, 0
1, 516, Note_on_c, 0, 65, 76
1, 528, Note_on_c, 0, 65, 0
1, 528, Note_on_c, 0, 64, 76
1, 551, Note_on_c, 0, 64, 0
1, 552, Note_on_c, 0, 62, 76
1, 569, Note_on_c, 1, 43, 0
1, 575, Note_on_c, 0, 62, 0
1, 576, Note_on_c, 0, 61, 76
1, 576, Note_on_c, 1, 45, 76
1, 643, Note_on_c, 1, 55, 0
1, 648, Note_on_c, 1, 52, 76
1, 656, Note_on_c, 1, 52, 0
1, 656, Note_on_c, 1, 53, 76
1, 664, Note_on_c, 1, 53, 0
1, 664, Note_on_c, 1, 55, 76
1, 665, Note_on_c, 0, 70, 0
1, 665, Note_on_c, 0, 61, 0
1, 672, Note_on_c, 0, 69, 76
1, 672, Note_on_c, 0, 62, 76
1, 672, Note_on_c, 1, 55, 0
1, 672, Note_on_c, 1, 53, 76
1, 717, Note_on_c, 0, 62, 0
1, 717, Note_on_c, 1, 53, 0
1, 720, Note_on_c, 0, 64, 76
1, 720, Note_on_c, 1, 49, 76
1, 739, Note_on_c, 0, 69, 0
1, 744, Note_on_c, 0, 67, 76
1, 752, Note_on_c, 0, 67, 0
1, 752, Note_on_c, 0, 65, 76
1, 760, Note_on_c, 0, 65, 0
1, 760, Note_on_c, 0, 64, 76
1, 765, Note_on_c, 1, 49, 0
1, 768, Note_on_c, 0, 64, 0
1, 768, Note_on_c, 0, 65, 76
1, 768, Note_on_c, 1, 50, 76
1, 813, Note_on_c, 0, 64, 0
1, 813, Note_on_c, 1, 45, 0
1, 816, Note_on_c, 0, 62, 76
1, 816, Note_on_c, 1, 46, 76
1, 846, Note_on_c, 0, 65, 0
1, 850, Note_on_c, 1, 46, 0
1, 852, Note_on_c, 0, 64, 76
1, 852, Note_on_c, 1, 44, 76
1, 856, Note_on_c, 0, 64, 0
1, 856, Note_on_c, 0, 65, 76
1, 857, Note_on_c, 1, 50, 0
1, 860, Note_on_c, 0, 65, 0
1, 860, Note_on_c, 0, 67, 76
1, 861, Note_on_c, 0, 62, 0
1, 864, Note_on_c, 0, 67, 0
1, 864, Note_on_c, 0, 65, 76
1, 864, Note_on_c, 0, 62, 76
1, 864, Note_on_c, 1, 45, 76
1, 864, Note_on_c, 1, 44, 0
1, 953, Note_on_c, 1, 45, 0
1, 960, Note_on_c, 0, 65, 0
1, 960, Note_on_c, 0, 64, 74
1, 960, Note_on_c, 0, 62, 0
1, 960, Note_on_c, 0, 61, 74
1, 960, Note_on_c, 1, 33, 74
1, 1147, Note_on_c, 0, 64, 0
1, 1147, Note_on_c, 0, 61, 0
1, 1147, Note_on_c, 1, 33, 0
1, 1152, Note_on_c, 0, 65, 76
1, 1152, Note_on_c, 0, 62, 76
1, 1152, Note_on_c, 1, 57, 76
1, 1152, Note_on_c, 1, 50, 76
1, 1241, Note_on_c, 0, 65, 0
1, 1241, Note_on_c, 0, 62, 0
1, 1241, Note_on_c, 1, 57, 0
1, 1241, Note_on_c, 1, 50, 0
1, 1248, Note_on_c, 0, 67, 76
1, 1248, Note_on_c, 0, 64, 76
1, 1248, Note_on_c, 1, 58, 76
1, 1248, Note_on_c, 1, 48, 76
1, 1315, Note_on_c, 0, 64, 0
1, 1320, Note_on_c, 0, 65, 76
1, 1328, Note_on_c, 0, 65, 0
1, 1328, Note_on_c, 0, 64, 76
1, 1336, Note_on_c, 0, 64, 0
1, 1336, Note_on_c, 0, 62, 76
1, 1337, Note_on_c, 1, 48, 0
1, 1344, Note_on_c, 0, 62, 0
1, 1344, Note_on_c, 0, 60, 76
1, 1344, Note_on_c, 1, 52, 76
1, 1381, Note_on_c, 0, 67, 0
1, 1392, Note_on_c, 0, 67, 76
1, 1425, Note_on_c, 1, 58, 0
1, 1433, Note_on_c, 0, 60, 0
1, 1433, Note_on_c, 1, 52, 0
1, 1437, Note_on_c, 0, 67, 0
1, 1440, Note_on_c, 0, 67, 76
1, 1440, Note_on_c, 0, 60, 76
1, 1440, Note_on_c, 1, 58, 76
1, 1440, Note_on_c, 1, 53, 76
1, 1507, Note_on_c, 0, 67, 0
1, 1512, Note_on_c, 0, 60, 76
1, 1520, Note_on_c, 0, 60, 0
1, 1520, Note_on_c, 0, 62, 76
1, 1528, Note_on_c, 0, 62, 0
1, 1528, Note_on_c, 0, 64, 76
1, 1529, Note_on_c, 1, 58, 0
1, 1536, Note_on_c, 0, 64, 0
1, 1536, Note_on_c, 0, 65, 76
1, 1536, Note_on_c, 1, 57, 76
1, 1570, Note_on_c, 0, 65, 0
1, 1570, Note_on_c, 1, 57, 0
1, 1572, Note_on_c, 0, 64, 76
1, 1572, Note_on_c, 1, 55, 76
1, 1584, Note_on_c, 0, 64, 0
1, 1584, Note_on_c, 0, 65, 76
1, 1584, Note_on_c, 1, 55, 0
1, 1584, Note_on_c, 1, 57, 76
1, 1617, Note_on_c, 0, 60, 0
1, 1617, Note_on_c, 1, 53, 0
1, 1618, Note_on_c, 0, 65, 0
1, 1618, Note_on_c, 1, 57, 0
1, 1620, Note_on_c, 0, 67, 76
1, 1620, Note_on_c, 1, 58, 76
1, 1632, Note_on_c, 0, 67, 0
1, 1632, Note_on_c, 0, 69, 76
1, 1632, Note_on_c, 0, 65, 76
1, 1632, Note_on_c, 1, 58, 0
1, 1632, Note_on_c, 1, 57, 76
1, 1632, Note_on_c, 1, 53, 76
1, 1666, Note_on_c, 1, 57, 0
1, 1666, Note_on_c, 1, 53, 0
1, 1668, Note_on_c, 1, 55, 78
1, 1668, Note_on_c, 1, 52, 76
1, 1680, Note_on_c, 1, 55, 0
1, 1680, Note_on_c, 1, 53, 79
1, 1680, Note_on_c, 1, 52, 0
1, 1680, Note_on_c, 1, 50, 76
1, 1714, Note_on_c, 1, 53, 0
1, 1714, Note_on_c, 1, 50, 0
1, 1716, Note_on_c, 1, 52, 81
1, 1716, Note_on_c, 1, 48, 76
1, 1721, Note_on_c, 0, 69, 0
1, 1721, Note_on_c, 0, 65, 0
1, 1728, Note_on_c, 0, 69, 76
1, 1728, Note_on_c, 0, 65, 76
1, 1728, Note_on_c, 1, 52, 0
1, 1728, Note_on_c, 1, 50, 82
1, 1728, Note_on_c, 1, 46, 82
1, 1728, Note_on_c, 1, 48, 0
1, 1776, Note_on_c, 0, 69, 0
1, 1776, Note_on_c, 0, 67, 79
1, 1817, Note_on_c, 0, 65, 0
1, 1817, Note_on_c, 1, 50, 0
1, 1817, Note_on_c, 1, 46, 0
1, 1821, Note_on_c, 0, 67, 0
1, 1824, Note_on_c, 0, 64, 82
1, 1824, Note_on_c, 1, 46, 82
1, 1829, Note_on_c, 0, 67, 82
1, 1830, Note_on_c, 1, 48, 82
1, 1834, Note_on_c, 0, 70, 82
1, 1836, Note_on_c, 1, 52, 82
1, 1839, Note_on_c, 0, 74, 82
1, 1842, Note_on_c, 1, 55, 82
1, 1917, Note_on_c, 0, 74, 0
1, 1917, Note_on_c, 0, 70, 0
1, 1917, Note_on_c, 0, 67, 0
1, 1917, Note_on_c, 0, 64, 0
1, 1917, Note_on_c, 1, 55, 0
1, 1917, Note_on_c, 1, 52, 0
1, 1917, Note_on_c, 1, 48, 0
1, 1917, Note_on_c, 1, 46, 0
1, 1920, Note_on_c, 0, 65, 82
1, 1920, Note_on_c, 0, 65, 76
1, 1920, Note_on_c, 1, 45, 82
1, 1923, Note_on_c, 1, 48, 82
1, 1924, Note_on_c, 0, 70, 82
1, 1926, Note_on_c, 1, 53, 82
1, 1928, Note_on_c, 0, 74, 82
1, 1929, Note_on_c, 1, 57, 82
1, 1968, Note_on_c, 0, 74, 0
1, 1968, Note_on_c, 0, 70, 0
1, 1968, Note_on_c, 0, 65, 0
1, 1968, Note_on_c, 0, 72, 82
1, 1968, Note_on_c, 0, 69, 82
1, 2009, Note_on_c, 0, 65, 0
1, 2011, Note_on_c, 1, 57, 0
1, 2011, Note_on_c, 1, 53, 0
1, 2011, Note_on_c, 1, 48, 0
1, 2011, Note_on_c, 1, 45, 0
1, 2015, Note_on_c, 0, 72, 0
1, 2015, Note_on_c, 0, 69, 0
1, 2016, Note_on_c, 0, 62, 82
1, 2016, Note_on_c, 0, 62, 76
1, 2016, Note_on_c, 1, 46, 82
1, 2019, Note_on_c, 1, 50, 82
1, 2020, Note_on_c, 0, 69, 82
1, 2022, Note_on_c, 1, 55, 82
1, 2024, Note_on_c, 0, 72, 82
1, 2025, Note_on_c, 1, 58, 82
1, 2064, Note_on_c, 0, 72, 0
1, 2064, Note_on_c, 0, 69, 0
1, 2064, Note_on_c, 0, 62, 0
1, 2064, Note_on_c, 0, 70, 80
1, 2064, Note_on_c, 0, 67, 80
1, 2105, Note_on_c, 0, 62, 0
1, 2107, Note_on_c, 1, 58, 0
1, 2107, Note_on_c, 1, 55, 0
1, 2107, Note_on_c, 1, 50, 0
1, 2107, Note_on_c, 1, 46, 0
1, 2111, Note_on_c, 0, 70, 0
1, 2111, Note_on_c, 0, 67, 0
1, 2112, Note_on_c, 0, 60, 78
1, 2112, Note_on_c, 0, 60, 76
1, 2112, Note_on_c, 1, 48, 78
1, 2115, Note_on_c, 1, 53, 78
1, 2116, Note_on_c, 0, 67, 78
1, 2118, Note_on_c, 1, 57, 78
1, 2120, Note_on_c, 0, 70, 78
1, 2121, Note_on_c, 1, 60, 78
1, 2160, Note_on_c, 0, 70, 0
1, 2160, Note_on_c, 0, 67, 0
1, 2160, Note_on_c, 0, 60, 0
1, 2160, Note_on_c, 0, 69, 76
1, 2160, Note_on_c, 0, 65, 76
1, 2201, Note_on_c, 0, 60, 0
1, 2203, Note_on_c, 1, 60, 0
1, 2203, Note_on_c, 1, 57, 0
1, 2203, Note_on_c, 1, 53, 0
1, 2203, Note_on_c, 1, 48, 0
1, 2207, Note_on_c, 0, 69, 0
1, 2207, Note_on_c, 0, 65, 0
1, 2208, Note_on_c, 0, 60, 74
1, 2208, Note_on_c, 0, 60, 76
1, 2208, Note_on_c, 1, 48, 74
1, 2211, Note_on_c, 1, 52, 74
1, 2212, Note_on_c, 0, 65, 74
1, 2214, Note_on_c, 1, 55, 74
1, 2216, Note_on_c, 0, 69, 74
1, 2217, Note_on_c, 1, 58, 74
1, 2256, Note_on_c, 0, 69, 0
1, 2256, Note_on_c, 0, 65, 0
1, 2256, Note_on_c, 0, 60, 0
1, 2256, Note_on_c, 0, 67, 72
1, 2256, Note_on_c, 0, 64, 72
1, 2297, Note_on_c, 0, 60, 0
1, 2299, Note_on_c, 1, 58, 0
1, 2299, Note_on_c, 1, 55, 0
1, 2299, Note_on_c, 1, 52, 0
1, 2299, Note_on_c, 1, 48, 0
1, 2303, Note_on_c, 0, 67, 0
1, 2303, Note_on_c, 0, 64, 0
1, 2304, Note_on_c, 0, 58, 70
1, 2304, Note_on_c, 1, 60, 70
1, 2304, Note_on_c, 1, 53, 70
1, 2311, Note_on_c, 0, 64, 70
1, 2318, Note_on_c, 0, 67, 70
1, 2400, Note_on_c, 0, 67, 0
1, 2400, Note_on_c, 0, 64, 0
1, 2400, Note_on_c, 0, 58, 0
1, 2400, Note_on_c, 0, 69, 66
1, 2400, Note_on_c, 0, 65, 66
1, 2400, Note_on_c, 0, 57, 66
1, 2569, Note_on_c, 1, 60, 0
1, 2569, Note_on_c, 1, 53, 0
1, 2587, Note_on_c, 0, 69, 0
1, 2587, Note_on_c, 0, 65, 0
1, 2587, Note_on_c, 0, 57, 0
1, 2592, Note_on_c, 1, 38, 76
1, 2597, Note_on_c, 1, 41, 76
1, 2602, Note_on_c, 1, 45, 76
1, 2607, Note_on_c, 1, 50, 76
1, 2612, Note_on_c, 1, 53, 76
1, 2617, Note_on_c, 1, 57, 76
1, 2622, Note_on_c, 1, 62, 76
1, 2687, Note_on_c, 1, 62, 0
1, 2687, Note_on_c, 1, 57, 0
1, 2687, Note_on_c, 1, 53, 0
1, 2687, Note_on_c, 1, 50, 0
1, 2687, Note_on_c, 1, 45, 0
1, 2687, Note_on_c, 1, 41, 0
1, 2687, Note_on_c, 1, 38, 0
1, 2688, Note_on_c, 0, 65, 76
1, 2688, Note_on_c, 0, 57, 76
1, 2688, Note_on_c, 1, 53, 76
1, 2688, Note_on_c, 1, 50, 76
1, 2755, Note_on_c, 0, 57, 0
1, 2755, Note_on_c, 1, 53, 0
1, 2760, Note_on_c, 0, 59, 76
1, 2760, Note_on_c, 1, 55, 76
1, 2777, Note_on_c, 1, 50, 0
1, 2783, Note_on_c, 0, 59, 0
1, 2783, Note_on_c, 1, 55, 0
1, 2784, Note_on_c, 0, 61, 76
1, 2784, Note_on_c, 1, 57, 76
1, 2784, Note_on_c, 1, 45, 76
1, 2828, Note_on_c, 0, 65, 0
1, 2832, Note_on_c, 0, 64, 76
1, 2873, Note_on_c, 0, 61, 0
1, 2873, Note_on_c, 1, 45, 0
1, 2877, Note_on_c, 0, 64, 0
1, 2880, Note_on_c, 0, 62, 76
1, 2880, Note_on_c, 0, 62, 76
1, 2880, Note_on_c, 1, 46, 76
1, 2947, Note_on_c, 1, 57, 0
1, 2952, Note_on_c, 1, 50, 76
1, 2960, Note_on_c, 1, 50, 0
1, 2960, Note_on_c, 1, 52, 76
1, 2968, Note_on_c, 1, 52, 0
1, 2968, Note_on_c, 1, 54, 76
1, 2976, Note_on_c, 1, 54, 0
1, 2976, Note_on_c, 1, 55, 76
1, 2999, Note_on_c, 0, 62, 0
1, 3000, Note_on_c, 0, 62, 76
1, 3008, Note_on_c, 0, 62, 0
1, 3008, Note_on_c, 0, 64, 76
1, 3016, Note_on_c, 0, 64, 0
1, 3016, Note_on_c, 0, 66, 76
1, 3024, Note_on_c, 0, 66, 0
1, 3024, Note_on_c, 0, 67, 76
1, 3057, Note_on_c, 1, 46, 0
1, 3058, Note_on_c, 0, 67, 0
1, 3060, Note_on_c, 0, 69, 76
1, 3072, Note_on_c, 0, 69, 0
1, 3072, Note_on_c, 0, 70, 76
1, 3072, Note_on_c, 1, 43, 76
1, 3095, Note_on_c, 0, 62, 0
1, 3096, Note_on_c, 0, 64, 76
1, 3108, Note_on_c, 0, 64, 0
1, 3108, Note_on_c, 0, 65, 76
1, 3120, Note_on_c, 0, 65, 0
1, 3120, Note_on_c, 0, 64, 76
1, 3143, Note_on_c, 0, 64, 0
1, 3144, Note_on_c, 0, 62, 76
1, 3161, Note_on_c, 1, 43, 0
1, 3167, Note_on_c, 0, 62, 0
1, 3168, Note_on_c, 0, 61, 76
1, 3168, Note_on_c, 1, 45, 76
1, 3235, Note_on_c, 1, 55, 0
1, 3240, Note_on_c, 1, 52, 76
1, 3248, Note_on_c, 1, 52, 0
1, 3248, Note_on_c, 1, 53, 76
1, 3256, Note_on_c, 1, 53, 0
1, 3256, Note_on_c, 1, 55, 76
1, 3257, Note_on_c, 0, 70, 0
1, 3257, Note_on_c, 0, 61, 0
1, 3264, Note_on_c, 0, 69, 76
1, 3264, Note_on_c, 0, 62, 76
1, 3264, Note_on_c, 1, 55, 0
1, 3264, Note_on_c, 1, 53, 76
1, 3309, Note_on_c, 0, 62, 0
1, 3309, Note_on_c, 1, 53, 0
1, 3312, Note_on_c, 0, 64, 76
1, 3312, Note_on_c, 1, 49, 76
1, 3331, Note_on_c, 0, 69, 0
1, 3336, Note_on_c, 0, 67, 76
1, 3344, Note_on_c, 0, 67, 0
1, 3344, Note_on_c, 0, 65, 76
1, 3352, Note_on_c, 0, 65, 0
1, 3352, Note_on_c, 0, 64, 76
1, 3357, Note_on_c, 1, 49, 0
1, 3360, Note_on_c, 0, 64, 0
1, 3360, Note_on_c, 0, 65, 76
1, 3360, Note_on_c, 1, 50, 76
1, 3405, Note_on_c, 0, 64, 0
1, 3405, Note_on_c, 1, 45, 0
1, 3408, Note_on_c, 0, 62, 76
1, 3408, Note_on_c, 1, 46, 76
1, 3438, Note_on_c, 0, 65, 0
1, 3442, Note_on_c, 1, 46, 0
1, 3444, Note_on_c, 0, 64, 76
1, 3444, Note_on_c, 1, 44, 76
1, 3448, Note_on_c, 0, 64, 0
1, 3448, Note_on_c, 0, 65, 76
1, 3449, Note_on_c, 1, 50, 0
1, 3452, Note_on_c, 0, 65, 0
1, 3452, Note_on_c, 0, 67, 76
1, 3453, Note_on_c, 0, 62, 0
1, 3456, Note_on_c, 0, 67, 0
1, 3456, Note_on_c, 0, 65, 76
1, 3456, Note_on_c, 0, 62, 76
1, 3456, Note_on_c, 1, 45, 76
1, 3456, Note_on_c, 1, 44, 0
1, 3545, Note_on_c, 1, 45, 0
1, 3552, Note_on_c, 0, 65, 0
1, 3552, Note_on_c, 0, 64, 74
1, 3552, Note_on_c, 0, 62, 0
1, 3552, Note_on_c, 0, 61, 74
1, 3552, Note_on_c, 1, 33, 74
1, 3739, Note_on_c, 0, 64, 0
1, 3739, Note_on_c, 0, 61, 0
1, 3739, Note_on_c, 1, 33, 0
1, 3744, Note_on_c, 0, 65, 76
1, 3744, Note_on_c, 0, 62, 76
1, 3744, Note_on_c, 1, 57, 76
1, 3744, Note_on_c, 1, 50, 76
1, 3833, Note_on_c, 0, 65, 0
1, 3833, Note_on_c, 0, 62, 0
1, 3833, Note_on_c, 1, 57, 0
1, 3833, Note_on_c, 1, 50, 0
1, 3840, Note_on_c, 0, 67, 76
1, 3840, Note_on_c, 0, 64, 76
1, 3840, Note_on_c, 1, 58, 76
1, 3840, Note_on_c, 1, 48, 76
1, 3907, Note_on_c, 0, 64, 0
1, 3912, Note_on_c, 0, 65, 76
1, 3920, Note_on_c, 0, 65, 0
1, 3920, Note_on_c, 0, 64, 76
1, 3928, Note_on_c, 0, 64, 0
1, 3928, Note_on_c, 0, 62, 76
1, 3929, Note_on_c, 1, 48, 0
1, 3936, Note_on_c, 0, 62, 0
1, 3936, Note_on_c, 0, 60, 76
1, 3936, Note_on_c, 1, 52, 76
1, 3973, Note_on_c, 0, 67, 0
1, 3984, Note_on_c, 0, 67, 76
1, 4017, Note_on_c, 1, 58, 0
1, 4025, Note_on_c, 0, 60, 0
1, 4025, Note_on_c, 1, 52, 0
1, 4029, Note_on_c, 0, 67, 0
1, 4032, Note_on_c, 0, 67, 76
1, 4032, Note_on_c, 0, 60, 76
1, 4032, Note_on_c, 1, 58, 76
1, 4032, Note_on_c, 1, 53, 76
1, 4099, Note_on_c, 0, 67, 0
1, 4104, Note_on_c, 0, 60, 76
1, 4112, Note_on_c, 0, 60, 0
1, 4112, Note_on_c, 0, 62, 76
1, 4120, Note_on_c, 0, 62, 0
1, 4120, Note_on_c, 0, 64, 76
1, 4121, Note_on_c, 1, 58, 0
1, 4128, Note_on_c, 0, 64, 0
1, 4128, Note_on_c, 0, 65, 76
1, 4128, Note_on_c, 1, 57, 76
1, 4162, Note_on_c, 0, 65, 0
1, 4162, Note_on_c, 1, 57, 0
1, 4164, Note_on_c, 0, 64, 76
1, 4164, Note_on_c, 1, 55, 76
1, 4176, Note_on_c, 0, 64, 0
1, 4176, Note_on_c, 0, 65, 76
1, 4176, Note_on_c, 1, 55, 0
1, 4176, Note_on_c, 1, 57, 76
1, 4209, Note_on_c, 0, 60, 0
1, 4209, Note_on_c, 1, 53, 0
1, 4210, Note_on_c, 0, 65, 0
1, 4210, Note_on_c, 1, 57, 0
1, 4212, Note_on_c, 0, 67, 76
1, 4212, Note_on_c, 1, 58, 76
1, 4224, Note_on_c, 0, 67, 0
1, 4224, Note_on_c, 0, 69, 76
1, 4224, Note_on_c, 0, 65, 76
1, 4224, Note_on_c, 1, 58, 0
1, 4224, Note_on_c, 1, 57, 76
1, 4224, Note_on_c, 1, 53, 76
1, 4258, Note_on_c, 1, 57, 0
1, 4258, Note_on_c, 1, 53, 0
1, 4260, Note_on_c, 1, 55, 78
1, 4260, Note_on_c, 1, 52, 76
1, 4272, Note_on_c, 1, 55, 0
1, 4272, Note_on_c, 1, 53, 79
1, 4272, Note_on_c, 1, 52, 0
1, 4272, Note_on_c, 1, 50, 76
1, 4306, Note_on_c, 1, 53, 0
1, 4306, Note_on_c, 1, 50, 0
1, 4308, Note_on_c, 1, 52, 81
1, 4308, Note_on_c, 1, 48, 76
1, 4313, Note_on_c, 0, 69, 0
1, 4313, Note_on_c, 0, 65, 0
1, 4320, Note_on_c, 0, 69, 76
1, 4320, Note_on_c, 0, 65, 76
1, 4320, Note_on_c, 1, 52, 0
1, 4320, Note_on_c, 1, 50, 82
1, 4320, Note_on_c, 1, 46, 82
1, 4320, Note_on_c, 1, 48, 0
1, 4368, Note_on_c, 0, 69, 0
1, 4368, Note_on_c, 0, 67, 79
1, 4409, Note_on_c, 0, 65, 0
1, 4409, Note_on_c, 1, 50, 0
1, 4409, Note_on_c, 1, 46, 0
1, 4413, Note_on_c, 0, 67, 0
1, 4416, Note_on_c, 0, 64, 82
1, 4416, Note_on_c, 1, 46, 82
1, 4421, Note_on_c, 0, 67, 82
1, 4422, Note_on_c, 1, 48, 82
1, 4426, Note_on_c, 0, 70, 82
1, 4428, Note_on_c, 1, 52, 82
1, 4431, Note_on_c, 0, 74, 82
1, 4434, Note_on_c, 1, 55, 82
1, 4509, Note_on_c, 0, 74, 0
1, 4509, Note_on_c, 0, 70, 0
1, 4509, Note_on_c, 0, 67, 0
1, 4509, Note_on_c, 0, 64, 0
1, 4509, Note_on_c, 1, 55, 0
1, 4509, Note_on_c, 1, 52, 0
1, 4509, Note_on_c, 1, 48, 0
1, 4509, Note_on_c, 1, 46, 0
1, 4512, Note_on_c, 0, 65, 82
1, 4512, Note_on_c, 0, 65, 76
1, 4512, Note_on_c, 1, 45, 82
1, 4515, Note_on_c, 1, 48, 82
1, 4516, Note_on_c, 0, 70, 82
1, 4518, Note_on_c, 1, 53, 82
1, 4520, Note_on_c, 0, 74, 82
1, 4521, Note_on_c, 1, 57, 82
1, 4560, Note_on_c, 0, 74, 0
1, 4560, Note_on_c, 0, 70, 0
1, 4560, Note_on_c, 0, 65, 0
1, 4560, Note_on_c, 0, 72, 82
1, 4560, Note_on_c, 0, 69, 82
1, 4601, Note_on_c, 0, 65, 0
1, 4603, Note_on_c, 1, 57, 0
1, 4603, Note_on_c, 1, 53, 0
1, 4603, Note_on_c, 1, 48, 0
1, 4603, Note_on_c, 1, 45, 0
1, 4607, Note_on_c, 0, 72, 0
1, 4607, Note_on_c, 0, 69, 0
1, 4608, Note_on_c, 0, 62, 82
1, 4608, Note_on_c, 0, 62, 76
1, 4608, Note_on_c, 1, 46, 82
1, 4611, Note_on_c, 1, 50, 82
1, 4612, Note_on_c, 0, 69, 82
1, 4614, Note_on_c, 1, 55, 82
1, 4616, Note_on_c, 0, 72, 82
1, 4617, Note_on_c, 1, 58, 82
1, 4656, Note_on_c, 0, 72, 0
1, 4656, Note_on_c, 0, 69, 0
1, 4656, Note_on_c, 0, 62, 0
1, 4656, Note_on_c, 0, 70, 80
1, 4656, Note_on_c, 0, 67, 80
1, 4697, Note_on_c, 0, 62, 0
1, 4699, Note_on_c, 1, 58, 0
1, 4699, Note_on_c, 1, 55, 0
1, 4699, Note_on_c, 1, 50, 0
1, 4699, Note_on_c, 1, 46, 0
1, 4703, Note_on_c, 0, 70, 0
1, 4703, Note_on_c, 0, 67, 0
1, 4704, Note_on_c, 0, 60, 78
1, 4704, Note_on_c, 0, 60, 76
1, 4704, Note_on_c, 1, 48, 78
1, 4707, Note_on_c, 1, 53, 78
1, 4708, Note_on_c, 0, 67, 78
1, 4710, Note_on_c, 1, 57, 78
1, 4712, Note_on_c, 0, 70, 78
1, 4713, Note_on_c, 1, 60, 78
1, 4752, Note_on_c, 0, 70, 0
1, 4752, Note_on_c, 0, 67, 0
1, 4752, Note_on_c, 0, 60, 0
1, 4752, Note_on_c, 0, 69, 76
1, 4752, Note_on_c, 0, 65, 76
1, 4793, Note_on_c, 0, 60, 0
1, 4795, Note_on_c, 1, 60, 0
1, 4795, Note_on_c, 1, 57, 0
1, 4795, Note_on_c, 1, 53, 0
1, 4795, Note_on_c, 1, 48, 0
1, 4799, Note_on_c, 0, 69, 0
1, 4799, Note_on_c, 0, 65, 0
1, 4800, Note_on_c, 0, 60, 74
1, 4800, Note_on_c, 0, 60, 76
1, 4800, Note_on_c, 1, 48, 74
1, 4803, Note_on_c, 1, 52, 74
1, 4804, Note_on_c, 0, 65, 74
1, 4806, Note_on_c, 1, 55, 74
1, 4808, Note_on_c, 0, 69, 74
1, 4809, Note_on_c, 1, 58, 74
1, 4848, Note_on_c, 0, 69, 0
1, 4848, Note_on_c, 0, 65, 0
1, 4848, Note_on_c, 0, 60, 0
1, 4848, Note_on_c, 0, 67, 72
1, 4848, Note_on_c, 0, 64, 72
1, 4889, Note_on_c, 0, 60, 0
1, 4891, Note_on_c, 1, 58, 0
1, 4891, Note_on_c, 1, 55, 0
1, 4891, Note_on_c, 1, 52, 0
1, 4891, Note_on_c, 1, 48, 0
1, 4895, Note_on_c, 0, 67, 0
1, 4895, Note_on_c, 0, 64, 0
1, 4896, Note_on_c, 0, 58, 70
1, 4896, Note_on_c, 1, 60, 70
1, 4896, Note_on_c, 1, 53, 70
1, 4903, Note_on_c, 0, 64, 70
1, 4910, Note_on_c, 0, 67, 70
1, 4992, Note_on_c, 0, 67, 0
1, 4992, Note_on_c, 0, 64, 0
1, 4992, Note_on_c, 0, 58, 0
1, 4992, Note_on_c, 0, 69, 66
1, 4992, Note_on_c, 0, 65, 66
1, 4992, Note_on_c, 0, 57, 66
1, 5161, Note_on_c, 1, 60, 0
1, 5161, Note_on_c, 1, 53, 0
1, 5179, Note_on_c, 0, 69, 0
1, 5179, Note_on_c, 0, 65, 0
1, 5179, Note_on_c, 0, 57, 0
1, 5184, Note_on_c, 1, 50, 70
1, 5187, Note_on_c, 1, 54, 70
1, 5190, Note_on_c, 1, 57, 70
1, 5193, Note_on_c, 1, 62, 70
1, 5196, Note_on_c, 1, 66, 70
1, 5199, Note_on_c, 1, 69, 70
1, 5277, Note_on_c, 1, 69, 0
1, 5277, Note_on_c, 1, 66, 0
1, 5277, Note_on_c, 1, 62, 0
1, 5277, Note_on_c, 1, 57, 0
1, 5277, Note_on_c, 1, 54, 0
1, 5277, Note_on_c, 1, 50, 0
1, 5280, Note_on_c, 1, 43, 76
1, 5283, Note_on_c, 1, 46, 76
1, 5286, Note_on_c, 1, 50, 76
1, 5289, Note_on_c, 1, 55, 76
1, 5292, Note_on_c, 1, 62, 76
1, 5295, Note_on_c, 1, 67, 76
1, 5298, Note_on_c, 1, 70, 76
1, 5352, Note_on_c, 0, 69, 76
1, 5364, Note_on_c, 0, 69, 0
1, 5364, Note_on_c, 0, 67, 76
1, 5373, Note_on_c, 1, 70, 0
1, 5373, Note_on_c, 1, 67, 0
1, 5373, Note_on_c, 1, 62, 0
1, 5373, Note_on_c, 1, 55, 0
1, 5373, Note_on_c, 1, 50, 0
1, 5373, Note_on_c, 1, 46, 0
1, 5373, Note_on_c, 1, 43, 0
1, 5376, Note_on_c, 0, 67, 0
1, 5376, Note_on_c, 0, 66, 76
1, 5376, Note_on_c, 0, 62, 76
1, 5376, Note_on_c, 1, 60, 76
1, 5376, Note_on_c, 1, 50, 76
1, 5421, Note_on_c, 0, 66, 0
1, 5424, Note_on_c, 0, 69, 76
1, 5443, Note_on_c, 1, 60, 0
1, 5448, Note_on_c, 1, 57, 76
1, 5456, Note_on_c, 1, 57, 0
1, 5456, Note_on_c, 1, 58, 76
1, 5464, Note_on_c, 1, 58, 0
1, 5464, Note_on_c, 1, 60, 76
1, 5465, Note_on_c, 0, 62, 0
1, 5465, Note_on_c, 1, 50, 0
1, 5469, Note_on_c, 0, 69, 0
1, 5472, Note_on_c, 0, 69, 76
1, 5472, Note_on_c, 0, 62, 76
1, 5472, Note_on_c, 1, 60, 0
1, 5472, Note_on_c, 1, 60, 76
1, 5472, Note_on_c, 1, 55, 76
1, 5539, Note_on_c, 0, 69, 0
1, 5544, Note_on_c, 0, 62, 76
1, 5552, Note_on_c, 0, 62, 0
1, 5552, Note_on_c, 0, 64, 76
1, 5560, Note_on_c, 0, 64, 0
1, 5560, Note_on_c, 0, 66, 76
1, 5561, Note_on_c, 1, 60, 0
1, 5568, Note_on_c, 0, 66, 0
1, 5568, Note_on_c, 0, 67, 76
1, 5568, Note_on_c, 1, 58, 76
1, 5602, Note_on_c, 0, 67, 0
1, 5602, Note_on_c, 1, 58, 0
1, 5604, Note_on_c, 0, 66, 76
1, 5604, Note_on_c, 1, 57, 76
1, 5616, Note_on_c, 0, 66, 0
1, 5616, Note_on_c, 0, 67, 76
1, 5616, Note_on_c, 1, 57, 0
1, 5616, Note_on_c, 1, 58, 76
1, 5649, Note_on_c, 0, 62, 0
1, 5649, Note_on_c, 1, 55, 0
1, 5650, Note_on_c, 0, 67, 0
1, 5650, Note_on_c, 1, 58, 0
1, 5652, Note_on_c, 0, 69, 76
1, 5652, Note_on_c, 1, 60, 76
1, 5664, Note_on_c, 0, 69, 0
1, 5664, Note_on_c, 0, 70, 76
1, 5664, Note_on_c, 0, 67, 76
1, 5664, Note_on_c, 1, 60, 0
1, 5664, Note_on_c, 1, 58, 76
1, 5664, Note_on_c, 1, 55, 76
1, 5698, Note_on_c, 1, 58, 0
1, 5698, Note_on_c, 1, 55, 0
1, 5700, Note_on_c, 1, 57, 76
1, 5700, Note_on_c, 1, 53, 76
1, 5712, Note_on_c, 1, 57, 0
1, 5712, Note_on_c, 1, 55, 76
1, 5712, Note_on_c, 1, 53, 0
1, 5712, Note_on_c, 1, 52, 76
1, 5746, Note_on_c, 1, 55, 0
1, 5746, Note_on_c, 1, 52, 0
1, 5748, Note_on_c, 1, 53, 76
1, 5748, Note_on_c, 1, 50, 76
1, 5753, Note_on_c, 0, 70, 0
1, 5753, Note_on_c, 0, 67, 0
1, 5760, Note_on_c, 0, 70, 76
1, 5760, Note_on_c, 0, 67, 76
1, 5760, Note_on_c, 1, 53, 0
1, 5760, Note_on_c, 1, 52, 76
1, 5760, Note_on_c, 1, 50, 0
1, 5760, Note_on_c, 1, 49, 76
1, 5808, Note_on_c, 0, 70, 0
1, 5808, Note_on_c, 0, 69, 76
1, 5808, Note_on_c, 1, 52, 0
1, 5808, Note_on_c, 1, 57, 77
1, 5849, Note_on_c, 0, 67, 0
1, 5849, Note_on_c, 1, 49, 0
1, 5853, Note_on_c, 0, 69, 0
1, 5853, Note_on_c, 1, 57, 0
1, 5856, Note_on_c, 0, 69, 76
1, 5856, Note_on_c, 0, 67, 78
1, 5856, Note_on_c, 1, 57, 78
1, 5856, Note_on_c, 1, 50, 78
1, 5904, Note_on_c, 0, 67, 0
1, 5904, Note_on_c, 0, 65, 79
1, 5904, Note_on_c, 1, 57, 0
1, 5904, Note_on_c, 1, 59, 79
1, 5945, Note_on_c, 0, 69, 0
1, 5945, Note_on_c, 1, 50, 0
1, 5949, Note_on_c, 0, 65, 0
1, 5949, Note_on_c, 1, 59, 0
1, 5952, Note_on_c, 0, 67, 76
1, 5952, Note_on_c, 0, 65, 80
1, 5952, Note_on_c, 1, 59, 80
1, 5952, Note_on_c, 1, 52, 80
1, 6000, Note_on_c, 0, 65, 0
1, 6000, Note_on_c, 0, 64, 81
1, 6000, Note_on_c, 1, 59, 0
1, 6000, Note_on_c, 1, 61, 81
1, 6041, Note_on_c, 0, 67, 0
1, 6041, Note_on_c, 1, 52, 0
1, 6045, Note_on_c, 0, 64, 0
1, 6045, Note_on_c, 1, 61, 0
1, 6048, Note_on_c, 0, 69, 76
1, 6048, Note_on_c, 0, 64, 82
1, 6048, Note_on_c, 1, 61, 82
1, 6048, Note_on_c, 1, 53, 82
1, 6115, Note_on_c, 0, 64, 0
1, 6115, Note_on_c, 1, 61, 0
1, 6120, Note_on_c, 0, 65, 82
1, 6120, Note_on_c, 1, 62, 82
1, 6143, Note_on_c, 0, 65, 0
1, 6143, Note_on_c, 1, 62, 0
1, 6144, Note_on_c, 0, 65, 82
1, 6144, Note_on_c, 1, 62, 82
1, 6225, Note_on_c, 0, 69, 0
1, 6225, Note_on_c, 1, 53, 0
1, 6233, Note_on_c, 0, 65, 0
1, 6233, Note_on_c, 1, 62, 0
1, 6288, Note_on_c, 0, 70, 76
1, 6288, Note_on_c, 0, 67, 70
1, 6288, Note_on_c, 1, 61, 70
1, 6288, Note_on_c, 1, 52, 70
1, 6333, Note_on_c, 0, 70, 0
1, 6333, Note_on_c, 0, 67, 0
1, 6333, Note_on_c, 1, 61, 0
1, 6333, Note_on_c, 1, 52, 0
1, 6336, Note_on_c, 0, 70, 76
1, 6336, Note_on_c, 0, 67, 70
1, 6336, Note_on_c, 1, 61, 70
1, 6336, Note_on_c, 1, 53, 70
1, 6403, Note_on_c, 0, 70, 0
1, 6403, Note_on_c, 0, 67, 0
1, 6403, Note_on_c, 1, 61, 0
1, 6408, Note_on_c, 0, 69, 76
1, 6408, Note_on_c, 0, 65, 70
1, 6408, Note_on_c, 1, 62, 70
1, 6431, Note_on_c, 0, 69, 0
1, 6431, Note_on_c, 0, 65, 0
1, 6431, Note_on_c, 1, 62, 0
1, 6432, Note_on_c, 0, 69, 76
1, 6432, Note_on_c, 0, 65, 70
1, 6432, Note_on_c, 1, 62, 70
1, 6513, Note_on_c, 1, 53, 0
1, 6521, Note_on_c, 0, 69, 0
1, 6521, Note_on_c, 0, 65, 0
1, 6521, Note_on_c, 1, 62, 0
1, 6576, Note_on_c, 0, 70, 66
1, 6576, Note_on_c, 0, 67, 58
1, 6576, Note_on_c, 1, 61, 70
1, 6576, Note_on_c, 1, 52, 58
1, 6621, Note_on_c, 0, 70, 0
1, 6621, Note_on_c, 0, 67, 0
1, 6621, Note_on_c, 1, 61, 0
1, 6621, Note_on_c, 1, 52, 0
1, 6624, Note_on_c, 0, 70, 66
1, 6624, Note_on_c, 0, 67, 58
1, 6624, Note_on_c, 1, 61, 70
1, 6624, Note_on_c, 1, 53, 58
1, 6691, Note_on_c, 0, 70, 0
1, 6691, Note_on_c, 0, 67, 0
1, 6691, Note_on_c, 1, 61, 0
1, 6696, Note_on_c, 0, 69, 66
1, 6696, Note_on_c, 0, 65, 58
1, 6696, Note_on_c, 1, 62, 70
1, 6719, Note_on_c, 0, 69, 0
1, 6719, Note_on_c, 0, 65, 0
1, 6719, Note_on_c, 1, 62, 0
1, 6720, Note_on_c, 0, 69, 66
1, 6720, Note_on_c, 0, 65, 58
1, 6720, Note_on_c, 1, 62, 70
1, 6801, Note_on_c, 1, 53, 0
1, 6809, Note_on_c, 0, 69, 0
1, 6809, Note_on_c, 0, 65, 0
1, 6809, Note_on_c, 1, 62, 0
1, 6816, Note_on_c, 0, 69, 76
1, 6816, Note_on_c, 0, 66, 76
1, 6816, Note_on_c, 0, 62, 76
1, 6816, Note_on_c, 1, 60, 76
1, 6816, Note_on_c, 1, 57, 58
1, 6816, Note_on_c, 1, 54, 58
1, 6905, Note_on_c, 0, 69, 0
1, 6905, Note_on_c, 0, 66, 0
1, 6905, Note_on_c, 0, 62, 0
1, 6905, Note_on_c, 1, 60, 0
1, 6905, Note_on_c, 1, 57, 0
1, 6905, Note_on_c, 1, 54, 0
1, 6912, Note_on_c, 0, 58, 89
1, 6912, Note_on_c, 1, 43, 89
1, 6917, Note_on_c, 0, 63, 89
1, 6918, Note_on_c, 1, 46, 89
1, 6922, Note_on_c, 0, 67, 89
1, 6924, Note_on_c, 1, 51, 89
1, 6927, Note_on_c, 0, 70, 89
1, 6930, Note_on_c, 1, 55, 89
1, 7075, Note_on_c, 0, 70, 0
1, 7075, Note_on_c, 0, 67, 0
1, 7075, Note_on_c, 0, 63, 0
1, 7075, Note_on_c, 0, 58, 0
1, 7080, Note_on_c, 0, 69, 76
1, 7088, Note_on_c, 0, 69, 0
1, 7088, Note_on_c, 0, 67, 76
1, 7096, Note_on_c, 0, 67, 0
1, 7096, Note_on_c, 0, 65, 76
1, 7104, Note_on_c, 0, 65, 0
1, 7104, Note_on_c, 0, 63, 76
1, 7149, Note_on_c, 0, 63, 0
1, 7149, Note_on_c, 1, 55, 0
1, 7149, Note_on_c, 1, 51, 0
1, 7149, Note_on_c, 1, 46, 0
1, 7149, Note_on_c, 1, 43, 0
1, 7152, Note_on_c, 0, 62, 76
1, 7152, Note_on_c, 1, 53, 76
1, 7152, Note_on_c, 1, 44, 76
1, 7197, Note_on_c, 0, 62, 0
1, 7197, Note_on_c, 1, 53, 0
1, 7197, Note_on_c, 1, 44, 0
1, 7200, Note_on_c, 0, 62, 76
1, 7200, Note_on_c, 1, 53, 74
1, 7200, Note_on_c, 1, 45, 76
1, 7200, Note_on_c, 1, 33, 76
1, 7296, Note_on_c, 0, 62, 0
1, 7296, Note_on_c, 0, 61, 76
1, 7296, Note_on_c, 1, 53, 0
1, 7296, Note_on_c, 1, 52, 71
1, 7341, Note_on_c, 0, 61, 0
1, 7341, Note_on_c, 1, 52, 0
1, 7344, Note_on_c, 1, 57, 70
1, 7344, Note_on_c, 1, 53, 70
1, 7389, Note_on_c, 1, 57, 0
1, 7389, Note_on_c, 1, 53, 0
1, 7392, Note_on_c, 1, 57, 72
1, 7392, Note_on_c, 1, 55, 72
1, 7392, Note_on_c, 1, 52, 72
1, 7437, Note_on_c, 1, 57, 0
1, 7437, Note_on_c, 1, 55, 0
1, 7437, Note_on_c, 1, 52, 0
1, 7440, Note_on_c, 1, 57, 74
1, 7440, Note_on_c, 1, 53, 74
1, 7440, Note_on_c, 1, 50, 74
1, 7465, Note_on_c, 1, 45, 0
1, 7465, Note_on_c, 1, 33, 0
1, 7485, Note_on_c, 1, 57, 0
1, 7485, Note_on_c, 1, 53, 0
1, 7485, Note_on_c, 1, 50, 0
1, 7488, Note_on_c, 1, 57, 76
1, 7488, Note_on_c, 1, 52, 76
1, 7488, Note_on_c, 1, 49, 76
1, 7488, Note_on_c, 1, 45, 76
1, 7488, Note_on_c, 1, 33, 76
1, 7577, Note_on_c, 1, 57, 0
1, 7577, Note_on_c, 1, 52, 0
1, 7577, Note_on_c, 1, 49, 0
1, 7577, Note_on_c, 1, 45, 0
1, 7577, Note_on_c, 1, 33, 0
1, 7584, Note_on_c, 1, 57, 76
1, 7584, Note_on_c, 1, 52, 76
1, 7584, Note_on_c, 1, 49, 76
1, 7584, Note_on_c, 1, 45, 76
1, 7584, Note_on_c, 1, 33, 76
1, 7673, Note_on_c, 1, 57, 0
1, 7673, Note_on_c, 1, 52, 0
1, 7673, Note_on_c, 1, 49, 0
1, 7673, Note_on_c, 1, 45, 0
1, 7673, Note_on_c, 1, 33, 0
1, 7680, Note_on_c, 1, 57, 76
1, 7680, Note_on_c, 1, 52, 76
1, 7680, Note_on_c, 1, 49, 76
1, 7680, Note_on_c, 1, 45, 76
1, 7680, Note_on_c, 1, 33, 76
1, 7769, Note_on_c, 1, 57, 0
1, 7769, Note_on_c, 1, 52, 0
1, 7769, Note_on_c, 1, 49, 0
1, 7769, Note_on_c, 1, 45, 0
1, 7769, Note_on_c, 1, 33, 0
1, 7776, Note_on_c, 1, 57, 76
1, 7776, Note_on_c, 1, 52, 76
1, 7776, Note_on_c, 1, 49, 76
1, 7776, Note_on_c, 1, 45, 76
1, 7776, Note_on_c, 1, 33, 76
1, 7872, Note_on_c, 1, 45, 58
1, 7902, Note_on_c, 1, 45, 0
1, 7904, Note_on_c, 1, 49, 58
1, 7934, Note_on_c, 1, 49, 0
1, 7936, Note_on_c, 1, 52, 58
1, 7966, Note_on_c, 1, 52, 0
1, 7968, Note_on_c, 1, 57, 58
1, 7998, Note_on_c, 1, 57, 0
1, 8000, Note_on_c, 1, 52, 58
1, 8030, Note_on_c, 1, 52, 0
1, 8032, Note_on_c, 1, 49, 58
1, 8041, Note_on_c, 1, 57, 0
1, 8041, Note_on_c, 1, 52, 0
1, 8041, Note_on_c, 1, 49, 0
1, 8041, Note_on_c, 1, 45, 0
1, 8041, Note_on_c, 1, 33, 0
1, 8062, Note_on_c, 1, 49, 0
1, 8064, Note_on_c, 1, 45, 58
1, 8153, Note_on_c, 1, 45, 0
1, 8208, Note_on_c, 0, 69, 70
1, 8228, Note_on_c, 0, 69, 0
1, 8256, Note_on_c, 0, 69, 86
1, 8304, Note_on_c, 1, 54, 66
1, 8304, Note_on_c, 1, 50, 66
1, 8324, Note_on_c, 1, 54, 0
1, 8324, Note_on_c, 1, 50, 0
1, 8352, Note_on_c, 0, 69, 0
1, 8352, Note_on_c, 0, 66, 70
1, 8352, Note_on_c, 1, 54, 66
1, 8352, Note_on_c, 1, 50, 66
1, 8372, Note_on_c, 0, 66, 0
1, 8397, Note_on_c, 1, 54, 0
1, 8397, Note_on_c, 1, 50, 0
1, 8400, Note_on_c, 0, 74, 70
1, 8420, Note_on_c, 0, 74, 0
1, 8448, Note_on_c, 0, 74, 86
1, 8496, Note_on_c, 1, 55, 66
1, 8496, Note_on_c, 1, 52, 66
1, 8516, Note_on_c, 1, 55, 0
1, 8516, Note_on_c, 1, 52, 0
1, 8544, Note_on_c, 0, 74, 0
1, 8544, Note_on_c, 0, 73, 70
1, 8544, Note_on_c, 1, 55, 66
1, 8544, Note_on_c, 1, 52, 66
1, 8564, Note_on_c, 0, 73, 0
1, 8589, Note_on_c, 1, 55, 0
1, 8589, Note_on_c, 1, 52, 0
1, 8592, Note_on_c, 0, 76, 70
1, 8612, Note_on_c, 0, 76, 0
1, 8640, Note_on_c, 0, 76, 86
1, 8688, Note_on_c, 1, 61, 66
1, 8688, Note_on_c, 1, 57, 66
1, 8708, Note_on_c, 1, 61, 0
1, 8708, Note_on_c, 1, 57, 0
1, 8712, Note_on_c, 0, 76, 0
1, 8712, Note_on_c, 0, 78, 73
1, 8735, Note_on_c, 0, 78, 0
1, 8736, Note_on_c, 0, 79, 74
1, 8736, Note_on_c, 1, 61, 66
1, 8736, Note_on_c, 1, 57, 66
1, 8781, Note_on_c, 0, 79, 0
1, 8781, Note_on_c, 1, 61, 0
1, 8781, Note_on_c, 1, 57, 0
1, 8784, Note_on_c, 0, 79, 76
1, 8804, Note_on_c, 0, 79, 0
1, 8832, Note_on_c, 0, 79, 92
1, 8880, Note_on_c, 1, 66, 66
1, 8880, Note_on_c, 1, 62, 66
1, 8900, Note_on_c, 1, 66, 0
1, 8900, Note_on_c, 1, 62, 0
1, 8928, Note_on_c, 0, 79, 0
1, 8928, Note_on_c, 0, 78, 72
1, 8928, Note_on_c, 1, 66, 66
1, 8928, Note_on_c, 1, 62, 66
1, 8973, Note_on_c, 0, 78, 0
1, 8973, Note_on_c, 1, 66, 0
1, 8973, Note_on_c, 1, 62, 0
1, 8976, Note_on_c, 0, 81, 70
1, 8996, Note_on_c, 0, 81, 0
1, 9024, Note_on_c, 0, 81, 86
1, 9072, Note_on_c, 1, 64, 66
1, 9072, Note_on_c, 1, 61, 66
1, 9092, Note_on_c, 1, 64, 0
1, 9092, Note_on_c, 1, 61, 0
1, 9120, Note_on_c, 1, 64, 66
1, 9120, Note_on_c, 1, 61, 66
1, 9165, Note_on_c, 1, 64, 0
1, 9165, Note_on_c, 1, 61, 0
1, 9168, Note_on_c, 0, 81, 0
1, 9168, Note_on_c, 0, 82, 70
1, 9213, Note_on_c, 0, 82, 0
1, 9216, Note_on_c, 0, 83, 86
1, 9264, Note_on_c, 1, 66, 66
1, 9264, Note_on_c, 1, 62, 66
1, 9284, Note_on_c, 1, 66, 0
1, 9284, Note_on_c, 1, 62, 0
1, 9288, Note_on_c, 0, 83, 0
1, 9288, Note_on_c, 0, 85, 72
1, 9311, Note_on_c, 0, 85, 0
1, 9312, Note_on_c, 0, 88, 73
1, 9312, Note_on_c, 1, 66, 66
1, 9312, Note_on_c, 1, 62, 66
1, 9335, Note_on_c, 0, 88, 0
1, 9336, Note_on_c, 0, 86, 73
1, 9357, Note_on_c, 1, 66, 0
1, 9357, Note_on_c, 1, 62, 0
1, 9359, Note_on_c, 0, 86, 0
1, 9360, Note_on_c, 0, 85, 74
1, 9360, Note_on_c, 1, 66, 66
1, 9360, Note_on_c, 1, 62, 66
1, 9383, Note_on_c, 0, 85, 0
1, 9384, Note_on_c, 0, 83, 75
1, 9405, Note_on_c, 1, 66, 0
1, 9405, Note_on_c, 1, 62, 0
1, 9407, Note_on_c, 0, 83, 0
1, 9408, Note_on_c, 0, 81, 76
1, 9408, Note_on_c, 1, 61, 66
1, 9408, Note_on_c, 1, 52, 66
1, 9453, Note_on_c, 1, 61, 0
1, 9453, Note_on_c, 1, 52, 0
1, 9456, Note_on_c, 1, 61, 66
1, 9456, Note_on_c, 1, 52, 66
1, 9497, Note_on_c, 0, 81, 0
1, 9501, Note_on_c, 1, 61, 0
1, 9501, Note_on_c, 1, 52, 0
1, 9504, Note_on_c, 0, 80, 76
1, 9504, Note_on_c, 1, 59, 66
1, 9504, Note_on_c, 1, 52, 66
1, 9516, Note_on_c, 0, 80, 0
1, 9516, Note_on_c, 0, 81, 76
1, 9528, Note_on_c, 0, 81, 0
1, 9528, Note_on_c, 0, 80, 76
1, 9549, Note_on_c, 1, 59, 0
1, 9549, Note_on_c, 1, 52, 0
1, 9552, Note_on_c, 1, 59, 66
1, 9552, Note_on_c, 1, 52, 66
1, 9571, Note_on_c, 0, 80, 0
1, 9576, Note_on_c, 0, 81, 76
1, 9597, Note_on_c, 1, 59, 0
1, 9597, Note_on_c, 1, 52, 0
1, 9599, Note_on_c, 0, 81, 0
1, 9600, Note_on_c, 0, 81, 92
1, 9600, Note_on_c, 1, 57, 66
1, 9600, Note_on_c, 1, 45, 66
1, 9689, Note_on_c, 1, 57, 0
1, 9689, Note_on_c, 1, 45, 0
1, 9696, Note_on_c, 0, 81, 0
1, 9744, Note_on_c, 0, 69, 70
1, 9789, Note_on_c, 0, 69, 0
1, 9792, Note_on_c, 0, 69, 86
1, 9840, Note_on_c, 1, 54, 66
1, 9840, Note_on_c, 1, 50, 66
1, 9860, Note_on_c, 1, 54, 0
1, 9860, Note_on_c, 1, 50, 0
1, 9888, Note_on_c, 0, 69, 0
1, 9888, Note_on_c, 0, 66, 70
1, 9888, Note_on_c, 1, 54, 66
1, 9888, Note_on_c, 1, 50, 66
1, 9908, Note_on_c, 0, 66, 0
1, 9933, Note_on_c, 1, 54, 0
1, 9933, Note_on_c, 1, 50, 0
1, 9936, Note_on_c, 0, 74, 70
1, 9956, Note_on_c, 0, 74, 0
1, 9984, Note_on_c, 0, 74, 86
1, 10032, Note_on_c, 1, 55, 66
1, 10032, Note_on_c, 1, 52, 66
1, 10052, Note_on_c, 1, 55, 0
1, 10052, Note_on_c, 1, 52, 0
1, 10080, Note_on_c, 0, 74, 0
1, 10080, Note_on_c, 0, 73, 70
1, 10080, Note_on_c, 1, 55, 66
1, 10080, Note_on_c, 1, 52, 66
1, 10100, Note_on_c, 0, 73, 0
1, 10125, Note_on_c, 1, 55, 0
1, 10125, Note_on_c, 1, 52, 0
1, 10128, Note_on_c, 0, 76, 70
1, 10148, Note_on_c, 0, 76, 0
1, 10176, Note_on_c, 0, 76, 86
1, 10224, Note_on_c, 1, 61, 66
1, 10224, Note_on_c, 1, 57, 66
1, 10244, Note_on_c, 1, 61, 0
1, 10244, Note_on_c, 1, 57, 0
1, 10248, Note_on_c, 0, 76, 0
1, 10248, Note_on_c, 0, 78, 73
1, 10271, Note_on_c, 0, 78, 0
1, 10272, Note_on_c, 0, 79, 74
1, 10272, Note_on_c, 1, 61, 66
1, 10272, Note_on_c, 1, 57, 66
1, 10317, Note_on_c, 0, 79, 0
1, 10317, Note_on_c, 1, 61, 0
1, 10317, Note_on_c, 1, 57, 0
1, 10320, Note_on_c, 0, 79, 76
1, 10340, Note_on_c, 0, 79, 0
1, 10368, Note_on_c, 0, 79, 92
1, 10416, Note_on_c, 1, 66, 66
1, 10416, Note_on_c, 1, 62, 66
1, 10436, Note_on_c, 1, 66, 0
1, 10436, Note_on_c, 1, 62, 0
1, 10464, Note_on_c, 0, 79, 0
1, 10464, Note_on_c, 0, 78, 72
1, 10464, Note_on_c, 1, 66, 66
1, 10464, Note_on_c, 1, 62, 66
1, 10509, Note_on_c, 0, 78, 0
1, 10509, Note_on_c, 1, 66, 0
1, 10509, Note_on_c, 1, 62, 0
1, 10512, Note_on_c, 0, 81, 70
1, 10532, Note_on_c, 0, 81, 0
1, 10560, Note_on_c, 0, 81, 86
1, 10608, Note_on_c, 1, 64, 66
1, 10608, Note_on_c, 1, 61, 66
1, 10628, Note_on_c, 1, 64, 0
1, 10628, Note_on_c, 1, 61, 0
1, 10656, Note_on_c, 1, 64, 66
1, 10656, Note_on_c, 1, 61, 66
1, 10701, Note_on_c, 1, 64, 0
1, 10701, Note_on_c, 1, 61, 0
1, 10704, Note_on_c, 0, 81, 0
1, 10704, Note_on_c, 0, 82, 70
1, 10749, Note_on_c, 0, 82, 0
1, 10752, Note_on_c, 0, 83, 86
1, 10800, Note_on_c, 1, 66, 66
1, 10800, Note_on_c, 1, 62, 66
1, 10820, Note_on_c, 1, 66, 0
1, 10820, Note_on_c, 1, 62, 0
1, 10824, Note_on_c, 0, 83, 0
1, 10824, Note_on_c, 0, 85, 72
1, 10847, Note_on_c, 0, 85, 0
1, 10848, Note_on_c, 0, 88, 73
1, 10848, Note_on_c, 1, 66, 66
1, 10848, Note_on_c, 1, 62, 66
1, 10871, Note_on_c, 0, 88, 0
1, 10872, Note_on_c, 0, 86, 73
1, 10893, Note_on_c, 1, 66, 0
1, 10893, Note_on_c, 1, 62, 0
1, 10895, Note_on_c, 0, 86, 0
1, 10896, Note_on_c, 0, 85, 74
1, 10896, Note_on_c, 1, 66, 66
1, 10896, Note_on_c, 1, 62, 66
1, 10919, Note_on_c, 0, 85, 0
1, 10920, Note_on_c, 0, 83, 75
1, 10941, Note_on_c, 1, 66, 0
1, 10941, Note_on_c, 1, 62, 0
1, 10943, Note_on_c, 0, 83, 0
1, 10944, Note_on_c, 0, 81, 76
1, 10944, Note_on_c, 1, 61, 66
1, 10944, Note_on_c, 1, 52, 66
1, 10989, Note_on_c, 1, 61, 0
1, 10989, Note_on_c, 1, 52, 0
1, 10992, Note_on_c, 1, 61, 66
1, 10992, Note_on_c, 1, 52, 66
1, 11033, Note_on_c, 0, 81, 0
1, 11037, Note_on_c, 1, 61, 0
1, 11037, Note_on_c, 1, 52, 0
1, 11040, Note_on_c, 0, 80, 76
1, 11040, Note_on_c, 1, 59, 66
1, 11040, Note_on_c, 1, 52, 66
1, 11052, Note_on_c, 0, 80, 0
1, 11052, Note_on_c, 0, 81, 76
1, 11064, Note_on_c, 0, 81, 0
1, 11064, Note_on_c, 0, 80, 76
1, 11085, Note_on_c, 1, 59, 0
1, 11085, Note_on_c, 1, 52, 0
1, 11088, Note_on_c, 1, 59, 66
1, 11088, Note_on_c, 1, 52, 66
1, 11107, Note_on_c, 0, 80, 0
1, 11112, Note_on_c, 0, 81, 76
1, 11133, Note_on_c, 1, 59, 0
1, 11133, Note_on_c, 1, 52, 0
1, 11135, Note_on_c, 0, 81, 0
1, 11136, Note_on_c, 0, 81, 92
1, 11136, Note_on_c, 1, 57, 66
1, 11136, Note_on_c, 1, 45, 66
1, 11225, Note_on_c, 1, 57, 0
1, 11225, Note_on_c, 1, 45, 0
1, 11232, Note_on_c, 0, 81, 0
1, 11280, Note_on_c, 0, 81, 76
1, 11325, Note_on_c, 0, 81, 0
1, 11328, Note_on_c, 0, 81, 92
1, 11376, Note_on_c, 1, 69, 66
1, 11376, Note_on_c, 1, 66, 66
1, 11396, Note_on_c, 1, 69, 0
1, 11396, Note_on_c, 1, 66, 0
1, 11424, Note_on_c, 0, 81, 0
1, 11424, Note_on_c, 0, 75, 76
1, 11424, Note_on_c, 1, 69, 66
1, 11424, Note_on_c, 1, 66, 66
1, 11444, Note_on_c, 0, 75, 0
1, 11469, Note_on_c, 1, 69, 0
1, 11469, Note_on_c, 1, 66, 0
1, 11472, Note_on_c, 0, 83, 76
1, 11492, Note_on_c, 0, 83, 0
1, 11520, Note_on_c, 0, 83, 92
1, 11568, Note_on_c, 1, 71, 66
1, 11568, Note_on_c, 1, 67, 66
1, 11588, Note_on_c, 1, 71, 0
1, 11588, Note_on_c, 1, 67, 0
1, 11616, Note_on_c, 0, 83, 0
1, 11616, Note_on_c, 0, 76, 76
1, 11616, Note_on_c, 1, 71, 66
1, 11616, Note_on_c, 1, 67, 66
1, 11636, Note_on_c, 0, 76, 0
1, 11661, Note_on_c, 1, 71, 0
1, 11661, Note_on_c, 1, 67, 0
1, 11664, Note_on_c, 0, 79, 76
1, 11684, Note_on_c, 0, 79, 0
1, 11712, Note_on_c, 0, 79, 86
1, 11712, Note_on_c, 1, 69, 66
1, 11712, Note_on_c, 1, 61, 66
1, 11757, Note_on_c, 1, 69, 0
1, 11757, Note_on_c, 1, 61, 0
1, 11760, Note_on_c, 1, 69, 66
1, 11760, Note_on_c, 1, 61, 66
1, 11784, Note_on_c, 0, 79, 0
1, 11784, Note_on_c, 0, 81, 73
1, 11796, Note_on_c, 0, 81, 0
1, 11796, Note_on_c, 0, 79, 73
1, 11805, Note_on_c, 1, 69, 0
1, 11805, Note_on_c, 1, 61, 0
1, 11808, Note_on_c, 0, 79, 0
1, 11808, Note_on_c, 0, 78, 74
1, 11808, Note_on_c, 1, 69, 66
1, 11808, Note_on_c, 1, 62, 66
1, 11853, Note_on_c, 0, 78, 0
1, 11853, Note_on_c, 1, 69, 0
1, 11853, Note_on_c, 1, 62, 0
1, 11856, Note_on_c, 0, 78, 76
1, 11856, Note_on_c, 1, 69, 66
1, 11856, Note_on_c, 1, 62, 66
1, 11901, Note_on_c, 0, 78, 0
1, 11901, Note_on_c, 1, 69, 0
1, 11901, Note_on_c, 1, 62, 0
1, 11904, Note_on_c, 0, 76, 76
1, 11904, Note_on_c, 1, 69, 66
1, 11949, Note_on_c, 0, 76, 0
1, 11952, Note_on_c, 0, 73, 74
1, 11993, Note_on_c, 1, 69, 0
1, 11997, Note_on_c, 0, 73, 0
1, 12000, Note_on_c, 0, 69, 72
1, 12045, Note_on_c, 0, 69, 0
1, 12048, Note_on_c, 0, 69, 70
1, 12048, Note_on_c, 0, 66, 70
1, 12093, Note_on_c, 0, 69, 0
1, 12093, Note_on_c, 0, 66, 0
1, 12096, Note_on_c, 0, 69, 86
1, 12096, Note_on_c, 0, 66, 86
1, 12144, Note_on_c, 1, 50, 82
1, 12144, Note_on_c, 1, 38, 82
1, 12164, Note_on_c, 1, 50, 0
1, 12164, Note_on_c, 1, 38, 0
1, 12192, Note_on_c, 0, 69, 0
1, 12192, Note_on_c, 0, 62, 70
1, 12192, Note_on_c, 1, 50, 82
1, 12192, Note_on_c, 1, 38, 82
1, 12212, Note_on_c, 0, 66, 0
1, 12212, Note_on_c, 0, 62, 0
1, 12237, Note_on_c, 1, 50, 0
1, 12237, Note_on_c, 1, 38, 0
1, 12240, Note_on_c, 0, 74, 70
1, 12240, Note_on_c, 0, 66, 70
1, 12260, Note_on_c, 0, 74, 0
1, 12260, Note_on_c, 0, 66, 0
1, 12288, Note_on_c, 0, 74, 86
1, 12288, Note_on_c, 0, 66, 86
1, 12336, Note_on_c, 1, 57, 82
1, 12336, Note_on_c, 1, 45, 82
1, 12356, Note_on_c, 1, 57, 0
1, 12356, Note_on_c, 1, 45, 0
1, 12384, Note_on_c, 0, 74, 0
1, 12384, Note_on_c, 0, 66, 0
1, 12384, Note_on_c, 0, 73, 70
1, 12384, Note_on_c, 0, 64, 70
1, 12384, Note_on_c, 1, 57, 82
1, 12384, Note_on_c, 1, 45, 82
1, 12404, Note_on_c, 0, 73, 0
1, 12404, Note_on_c, 0, 64, 0
1, 12429, Note_on_c, 1, 57, 0
1, 12429, Note_on_c, 1, 45, 0
1, 12432, Note_on_c, 0, 76, 70
1, 12432, Note_on_c, 0, 73, 70
1, 12452, Note_on_c, 0, 76, 0
1, 12452, Note_on_c, 0, 73, 0
1, 12480, Note_on_c, 0, 76, 86
1, 12480, Note_on_c, 0, 73, 86
1, 12528, Note_on_c, 1, 57, 82
1, 12528, Note_on_c, 1, 45, 82
1, 12548, Note_on_c, 1, 57, 0
1, 12548, Note_on_c, 1, 45, 0
1, 12552, Note_on_c, 0, 76, 0
1, 12552, Note_on_c, 0, 73, 0
1, 12552, Note_on_c, 0, 78, 70
1, 12552, Note_on_c, 0, 74, 70
1, 12575, Note_on_c, 0, 78, 0
1, 12575, Note_on_c, 0, 74, 0
1, 12576, Note_on_c, 0, 79, 70
1, 12576, Note_on_c, 0, 76, 70
1, 12576, Note_on_c, 1, 57, 82
1, 12576, Note_on_c, 1, 45, 82
1, 12621, Note_on_c, 0, 79, 0
1, 12621, Note_on_c, 0, 76, 0
1, 12621, Note_on_c, 1, 57, 0
1, 12621, Note_on_c, 1, 45, 0
1, 12624, Note_on_c, 0, 79, 70
1, 12624, Note_on_c, 0, 76, 70
1, 12644, Note_on_c, 0, 79, 0
1, 12644, Note_on_c, 0, 76, 0
1, 12672, Note_on_c, 0, 79, 86
1, 12672, Note_on_c, 0, 76, 86
1, 12720, Note_on_c, 1, 62, 82
1, 12720, Note_on_c, 1, 50, 82
1, 12740, Note_on_c, 1, 62, 0
1, 12740, Note_on_c, 1, 50, 0
1, 12768, Note_on_c, 0, 79, 0
1, 12768, Note_on_c, 0, 76, 0
1, 12768, Note_on_c, 0, 78, 70
1, 12768, Note_on_c, 0, 74, 70
1, 12768, Note_on_c, 1, 62, 82
1, 12768, Note_on_c, 1, 50, 82
1, 12813, Note_on_c, 0, 78, 0
1, 12813, Note_on_c, 0, 74, 0
1, 12813, Note_on_c, 1, 62, 0
1, 12813, Note_on_c, 1, 50, 0
1, 12816, Note_on_c, 0, 81, 76
1, 12836, Note_on_c, 0, 81, 0
1, 12864, Note_on_c, 0, 81, 92
1, 12912, Note_on_c, 1, 66, 76
1, 12912, Note_on_c, 1, 62, 76
1, 12912, Note_on_c, 1, 60, 76
1, 12932, Note_on_c, 1, 66, 0
1, 12932, Note_on_c, 1, 62, 0
1, 12932, Note_on_c, 1, 60, 0
1, 12960, Note_on_c, 0, 81, 0
1, 12960, Note_on_c, 0, 74, 76
1, 12960, Note_on_c, 1, 66, 76
1, 12960, Note_on_c, 1, 62, 76
1, 12960, Note_on_c, 1, 60, 76
1, 12980, Note_on_c, 0, 74, 0
1, 13005, Note_on_c, 1, 66, 0
1, 13005, Note_on_c, 1, 62, 0
1, 13005, Note_on_c, 1, 60, 0
1, 13008, Note_on_c, 0, 86, 76
1, 13028, Note_on_c, 0, 86, 0
1, 13056, Note_on_c, 0, 86, 92
1, 13104, Note_on_c, 1, 67, 76
1, 13104, Note_on_c, 1, 62, 76
1, 13104, Note_on_c, 1, 59, 76
1, 13128, Note_on_c, 0, 86, 0
1, 13128, Note_on_c, 0, 83, 76
1, 13149, Note_on_c, 1, 67, 0
1, 13149, Note_on_c, 1, 62, 0
1, 13149, Note_on_c, 1, 59, 0
1, 13151, Note_on_c, 0, 83, 0
1, 13152, Note_on_c, 0, 79, 76
1, 13152, Note_on_c, 1, 67, 76
1, 13152, Note_on_c, 1, 62, 76
1, 13152, Note_on_c, 1, 59, 76
1, 13197, Note_on_c, 0, 79, 0
1, 13197, Note_on_c, 1, 67, 0
1, 13197, Note_on_c, 1, 62, 0
1, 13197, Note_on_c, 1, 59, 0
1, 13200, Note_on_c, 0, 83, 76
1, 13220, Note_on_c, 0, 83, 0
1, 13248, Note_on_c, 0, 81, 92
1, 13296, Note_on_c, 1, 66, 76
1, 13296, Note_on_c, 1, 57, 76
1, 13320, Note_on_c, 0, 81, 0
1, 13320, Note_on_c, 0, 78, 76
1, 13341, Note_on_c, 1, 66, 0
1, 13341, Note_on_c, 1, 57, 0
1, 13343, Note_on_c, 0, 78, 0
1, 13344, Note_on_c, 0, 74, 76
1, 13344, Note_on_c, 1, 66, 74
1, 13344, Note_on_c, 1, 57, 74
1, 13389, Note_on_c, 0, 74, 0
1, 13389, Note_on_c, 1, 66, 0
1, 13389, Note_on_c, 1, 57, 0
1, 13392, Note_on_c, 0, 73, 76
1, 13392, Note_on_c, 1, 64, 72
1, 13392, Note_on_c, 1, 57, 72
1, 13437, Note_on_c, 0, 73, 0
1, 13437, Note_on_c, 1, 64, 0
1, 13437, Note_on_c, 1, 57, 0
1, 13440, Note_on_c, 0, 74, 76
1, 13440, Note_on_c, 1, 62, 70
1, 13440, Note_on_c, 1, 50, 70
1, 13529, Note_on_c, 0, 74, 0
1, 13529, Note_on_c, 1, 62, 0
1, 13529, Note_on_c, 1, 50, 0
1, 13584, Note_on_c, 0, 81, 70
1, 13604, Note_on_c, 0, 81, 0
1, 13632, Note_on_c, 0, 81, 86
1, 13680, Note_on_c, 1, 69, 66
1, 13680, Note_on_c, 1, 66, 66
1, 13700, Note_on_c, 1, 69, 0
1, 13700, Note_on_c, 1, 66, 0
1, 13728, Note_on_c, 0, 81, 0
1, 13728, Note_on_c, 0, 75, 70
1, 13728, Note_on_c, 1, 69, 66
1, 13728, Note_on_c, 1, 66, 66
1, 13748, Note_on_c, 0, 75, 0
1, 13773, Note_on_c, 1, 69, 0
1, 13773, Note_on_c, 1, 66, 0
1, 13776, Note_on_c, 0, 83, 70
1, 13796, Note_on_c, 0, 83, 0
1, 13824, Note_on_c, 0, 83, 86
1, 13872, Note_on_c, 1, 71, 66
1, 13872, Note_on_c, 1, 67, 66
1, 13892, Note_on_c, 1, 71, 0
1, 13892, Note_on_c, 1, 67, 0
1, 13920, Note_on_c, 0, 83, 0
1, 13920, Note_on_c, 0, 76, 70
1, 13920, Note_on_c, 1, 71, 66
1, 13920, Note_on_c, 1, 67, 66
1, 13940, Note_on_c, 0, 76, 0
1, 13965, Note_on_c, 1, 71, 0
1, 13965, Note_on_c, 1, 67, 0
1, 13968, Note_on_c, 0, 79, 70
1, 13988, Note_on_c, 0, 79, 0
1, 14016, Note_on_c, 0, 79, 86
1, 14016, Note_on_c, 1, 69, 66
1, 14016, Note_on_c, 1, 61, 66
1, 14061, Note_on_c, 1, 69, 0
1, 14061, Note_on_c, 1, 61, 0
1, 14064, Note_on_c, 1, 69, 66
1, 14064, Note_on_c, 1, 61, 66
1, 14088, Note_on_c, 0, 79, 0
1, 14088, Note_on_c, 0, 81, 73
1, 14100, Note_on_c, 0, 81, 0
1, 14100, Note_on_c, 0, 79, 73
1, 14109, Note_on_c, 1, 69, 0
1, 14109, Note_on_c, 1, 61, 0
1, 14112, Note_on_c, 0, 79, 0
1, 14112, Note_on_c, 0, 78, 74
1, 14112, Note_on_c, 1, 69, 66
1, 14112, Note_on_c, 1, 62, 66
1, 14157, Note_on_c, 0, 78, 0
1, 14157, Note_on_c, 1, 69, 0
1, 14157, Note_on_c, 1, 62, 0
1, 14160, Note_on_c, 0, 78, 76
1, 14160, Note_on_c, 1, 69, 66
1, 14160, Note_on_c, 1, 62, 66
1, 14205, Note_on_c, 0, 78, 0
1, 14205, Note_on_c, 1, 69, 0
1, 14205, Note_on_c, 1, 62, 0
1, 14208, Note_on_c, 0, 76, 76
1, 14208, Note_on_c, 1, 69, 66
1, 14253, Note_on_c, 0, 76, 0
1, 14256, Note_on_c, 0, 73, 74
1, 14297, Note_on_c, 1, 69, 0
1, 14301, Note_on_c, 0, 73, 0
1, 14304, Note_on_c, 0, 69, 72
1, 14349, Note_on_c, 0, 69, 0
1, 14352, Note_on_c, 0, 69, 70
1, 14352, Note_on_c, 0, 66, 70
1, 14397, Note_on_c, 0, 69, 0
1, 14397, Note_on_c, 0, 66, 0
1, 14400, Note_on_c, 0, 69, 86
1, 14400, Note_on_c, 0, 66, 86
1, 14448, Note_on_c, 1, 50, 82
1, 14448, Note_on_c, 1, 38, 82
1, 14468, Note_on_c, 1, 50, 0
1, 14468, Note_on_c, 1, 38, 0
1, 14496, Note_on_c, 0, 69, 0
1, 14496, Note_on_c, 0, 62, 70
1, 14496, Note_on_c, 1, 50, 82
1, 14496, Note_on_c, 1, 38, 82
1, 14516, Note_on_c, 0, 66, 0
1, 14516, Note_on_c, 0, 62, 0
1, 14541, Note_on_c, 1, 50, 0
1, 14541, Note_on_c, 1, 38, 0
1, 14544, Note_on_c, 0, 74, 70
1, 14544, Note_on_c, 0, 66, 70
1, 14564, Note_on_c, 0, 74, 0
1, 14564, Note_on_c, 0, 66, 0
1, 14592, Note_on_c, 0, 74, 86
1, 14592, Note_on_c, 0, 66, 86
1, 14640, Note_on_c, 1, 57, 82
1, 14640, Note_on_c, 1, 45, 82
1, 14660, Note_on_c, 1, 57, 0
1, 14660, Note_on_c, 1, 45, 0
1, 14688, Note_on_c, 0, 74, 0
1, 14688, Note_on_c, 0, 66, 0
1, 14688, Note_on_c, 0, 73, 70
1, 14688, Note_on_c, 0, 64, 70
1, 14688, Note_on_c, 1, 57, 82
1, 14688, Note_on_c, 1, 45, 82
1, 14708, Note_on_c, 0, 73, 0
1, 14708, Note_on_c, 0, 64, 0
1, 14733, Note_on_c, 1, 57, 0
1, 14733, Note_on_c, 1, 45, 0
1, 14736, Note_on_c, 0, 76, 70
1, 14736, Note_on_c, 0, 73, 70
1, 14756, Note_on_c, 0, 76, 0
1, 14756, Note_on_c, 0, 73, 0
1, 14784, Note_on_c, 0, 76, 86
1, 14784, Note_on_c, 0, 73, 86
1, 14832, Note_on_c, 1, 57, 82
1, 14832, Note_on_c, 1, 45, 82
1, 14852, Note_on_c, 1, 57, 0
1, 14852, Note_on_c, 1, 45, 0
1, 14856, Note_on_c, 0, 76, 0
1, 14856, Note_on_c, 0, 73, 0
1, 14856, Note_on_c, 0, 78, 70
1, 14856, Note_on_c, 0, 74, 70
1, 14879, Note_on_c, 0, 78, 0
1, 14879, Note_on_c, 0, 74, 0
1, 14880, Note_on_c, 0, 79, 70
1, 14880, Note_on_c, 0, 76, 70
1, 14880, Note_on_c, 1, 57, 82
1, 14880, Note_on_c, 1, 45, 82
1, 14925, Note_on_c, 0, 79, 0
1, 14925, Note_on_c, 0, 76, 0
1, 14925, Note_on_c, 1, 57, 0
1, 14925, Note_on_c, 1, 45, 0
1, 14928, Note_on_c, 0, 79, 70
1, 14928, Note_on_c, 0, 76, 70
1, 14948, Note_on_c, 0, 79, 0
1, 14948, Note_on_c, 0, 76, 0
1, 14976, Note_on_c, 0, 79, 86
1, 14976, Note_on_c, 0, 76, 86
1, 15024, Note_on_c, 1, 62, 82
1, 15024, Note_on_c, 1, 50, 82
1, 15044, Note_on_c, 1, 62, 0
1, 15044, Note_on_c, 1, 50, 0
1, 15072, Note_on_c, 0, 79, 0
1, 15072, Note_on_c, 0, 76, 0
1, 15072, Note_on_c, 0, 78, 70
1, 15072, Note_on_c, 0, 74, 70
1, 15072, Note_on_c, 1, 62, 82
1, 15072, Note_on_c, 1, 50, 82
1, 15117, Note_on_c, 0, 78, 0
1, 15117, Note_on_c, 0, 74, 0
1, 15117, Note_on_c, 1, 62, 0
1, 15117, Note_on_c, 1, 50, 0
1, 15120, Note_on_c, 0, 81, 76
1, 15140, Note_on_c, 0, 81, 0
1, 15168, Note_on_c, 0, 81, 92
1, 15216, Note_on_c, 1, 66, 76
1, 15216, Note_on_c, 1, 62, 76
1, 15216, Note_on_c, 1, 60, 76
1, 15236, Note_on_c, 1, 66, 0
1, 15236, Note_on_c, 1, 62, 0
1, 15236, Note_on_c, 1, 60, 0
1, 15264, Note_on_c, 0, 81, 0
1, 15264, Note_on_c, 0, 74, 76
1, 15264, Note_on_c, 1, 66, 76
1, 15264, Note_on_c, 1, 62, 76
1, 15264, Note_on_c, 1, 60, 76
1, 15284, Note_on_c, 0, 74, 0
1, 15309, Note_on_c, 1, 66, 0
1, 15309, Note_on_c, 1, 62, 0
1, 15309, Note_on_c, 1, 60, 0
1, 15312, Note_on_c, 0, 86, 76
1, 15332, Note_on_c, 0, 86, 0
1, 15360, Note_on_c, 0, 86, 92
1, 15408, Note_on_c, 1, 67, 76
1, 15408, Note_on_c, 1, 62, 76
1, 15408, Note_on_c, 1, 59, 76
1, 15432, Note_on_c, 0, 86, 0
1, 15432, Note_on_c, 0, 83, 76
1, 15453, Note_on_c, 1, 67, 0
1, 15453, Note_on_c, 1, 62, 0
1, 15453, Note_on_c, 1, 59, 0
1, 15455, Note_on_c, 0, 83, 0
1, 15456, Note_on_c, 0, 79, 76
1, 15456, Note_on_c, 1, 67, 76
1, 15456, Note_on_c, 1, 62, 76
1, 15456, Note_on_c, 1, 59, 76
1, 15501, Note_on_c, 0, 79, 0
1, 15501, Note_on_c, 1, 67, 0
1, 15501, Note_on_c, 1, 62, 0
1, 15501, Note_on_c, 1, 59, 0
1, 15504, Note_on_c, 0, 83, 76
1, 15524, Note_on_c, 0, 83, 0
1, 15552, Note_on_c, 0, 81, 92
1, 15600, Note_on_c, 1, 66, 76
1, 15600, Note_on_c, 1, 57, 76
1, 15624, Note_on_c, 0, 81, 0
1, 15624, Note_on_c, 0, 78, 76
1, 15645, Note_on_c, 1, 66, 0
1, 15645, Note_on_c, 1, 57, 0
1, 15647, Note_on_c, 0, 78, 0
1, 15648, Note_on_c, 0, 74, 76
1, 15648, Note_on_c, 1, 66, 74
1, 15648, Note_on_c, 1, 57, 74
1, 15693, Note_on_c, 0, 74, 0
1, 15693, Note_on_c, 1, 66, 0
1, 15693, Note_on_c, 1, 57, 0
1, 15696, Note_on_c, 0, 73, 76
1, 15696, Note_on_c, 1, 64, 72
1, 15696, Note_on_c, 1, 57, 72
1, 15741, Note_on_c, 0, 73, 0
1, 15741, Note_on_c, 1, 64, 0
1, 15741, Note_on_c, 1, 57, 0
1, 15744, Note_on_c, 0, 74, 76
1, 15744, Note_on_c, 1, 62, 70
1, 15744, Note_on_c, 1, 50, 70
1, 15833, Note_on_c, 0, 74, 0
1, 15833, Note_on_c, 1, 62, 0
1, 15833, Note_on_c, 1, 50, 0
1, 15888, Note_on_c, 0, 69, 82
1, 15911, Note_on_c, 0, 69, 0
1, 15912, Note_on_c, 0, 67, 82
1, 15935, Note_on_c, 0, 67, 0
1, 15936, Note_on_c, 0, 65, 82
1, 15936, Note_on_c, 1, 57, 70
1, 15936, Note_on_c, 1, 53, 70
1, 15936, Note_on_c, 1, 50, 70
1, 15975, Note_on_c, 0, 65, 0
1, 15975, Note_on_c, 1, 57, 0
1, 15975, Note_on_c, 1, 53, 0
1, 15975, Note_on_c, 1, 50, 0
1, 16032, Note_on_c, 0, 64, 82
1, 16032, Note_on_c, 0, 61, 82
1, 16032, Note_on_c, 0, 55, 82
1, 16032, Note_on_c, 1, 49, 70
1, 16032, Note_on_c, 1, 45, 70
1, 16071, Note_on_c, 0, 64, 0
1, 16071, Note_on_c, 0, 61, 0
1, 16071, Note_on_c, 0, 55, 0
1, 16071, Note_on_c, 1, 49, 0
1, 16071, Note_on_c, 1, 45, 0
1, 16128, Note_on_c, 0, 62, 82
1, 16128, Note_on_c, 0, 58, 82
1, 16128, Note_on_c, 1, 53, 70
1, 16128, Note_on_c, 1, 50, 70
1, 16128, Note_on_c, 1, 46, 70
1, 16167, Note_on_c, 0, 62, 0
1, 16167, Note_on_c, 0, 58, 0
1, 16167, Note_on_c, 1, 53, 0
1, 16167, Note_on_c, 1, 50, 0
1, 16167, Note_on_c, 1, 46, 0
1, 16272, Note_on_c, 0, 74, 70
1, 16272, Note_on_c, 1, 65, 70
1, 16317, Note_on_c, 0, 74, 0
1, 16317, Note_on_c, 1, 65, 0
1, 16320, Note_on_c, 0, 76, 70
1, 16320, Note_on_c, 1, 67, 70
1, 16365, Note_on_c, 0, 76, 0
1, 16368, Note_on_c, 0, 79, 70
1, 16391, Note_on_c, 0, 79, 0
1, 16392, Note_on_c, 0, 77, 70
1, 16415, Note_on_c, 0, 77, 0
1, 16416, Note_on_c, 0, 76, 70
1, 16461, Note_on_c, 0, 76, 0
1, 16464, Note_on_c, 0, 74, 70
1, 16464, Note_on_c, 1, 67, 0
1, 16464, Note_on_c, 1, 68, 70
1, 16509, Note_on_c, 0, 74, 0
1, 16509, Note_on_c, 1, 68, 0
1, 16512, Note_on_c, 0, 73, 70
1, 16512, Note_on_c, 1, 69, 70
1, 16557, Note_on_c, 0, 73, 0
1, 16560, Note_on_c, 0, 81, 70
1, 16601, Note_on_c, 1, 69, 0
1, 16605, Note_on_c, 0, 81, 0
1, 16608, Note_on_c, 0, 69, 82
1, 16653, Note_on_c, 0, 69, 0
1, 16656, Note_on_c, 0, 72, 82
1, 16679, Note_on_c, 0, 72, 0
1, 16680, Note_on_c, 0, 70, 82
1, 16703, Note_on_c, 0, 70, 0
1, 16704, Note_on_c, 0, 69, 82
1, 16704, Note_on_c, 1, 60, 70
1, 16704, Note_on_c, 1, 57, 70
1, 16704, Note_on_c, 1, 53, 70
1, 16743, Note_on_c, 0, 69, 0
1, 16743, Note_on_c, 1, 60, 0
1, 16743, Note_on_c, 1, 57, 0
1, 16743, Note_on_c, 1, 53, 0
1, 16800, Note_on_c, 0, 67, 82
1, 16800, Note_on_c, 0, 64, 82
1, 16800, Note_on_c, 0, 58, 82
1, 16800, Note_on_c, 1, 52, 70
1, 16800, Note_on_c, 1, 48, 70
1, 16839, Note_on_c, 0, 67, 0
1, 16839, Note_on_c, 0, 64, 0
1, 16839, Note_on_c, 0, 58, 0
1, 16839, Note_on_c, 1, 52, 0
1, 16839, Note_on_c, 1, 48, 0
1, 16896, Note_on_c, 0, 65, 82
1, 16896, Note_on_c, 0, 62, 82
1, 16896, Note_on_c, 0, 57, 82
1, 16896, Note_on_c, 1, 53, 70
1, 16896, Note_on_c, 1, 50, 70
1, 16935, Note_on_c, 0, 65, 0
1, 16935, Note_on_c, 0, 62, 0
1, 16935, Note_on_c, 0, 57, 0
1, 16935, Note_on_c, 1, 53, 0
1, 16935, Note_on_c, 1, 50, 0
1, 17040, Note_on_c, 0, 77, 70
1, 17040, Note_on_c, 1, 57, 70
1, 17085, Note_on_c, 0, 77, 0
1, 17085, Note_on_c, 1, 57, 0
1, 17088, Note_on_c, 0, 67, 70
1, 17088, Note_on_c, 1, 58, 70
1, 17136, Note_on_c, 0, 67, 0
1, 17136, Note_on_c, 0, 74, 70
1, 17177, Note_on_c, 1, 58, 0
1, 17181, Note_on_c, 0, 74, 0
1, 17184, Note_on_c, 0, 72, 70
1, 17232, Note_on_c, 0, 72, 0
1, 17232, Note_on_c, 0, 64, 70
1, 17232, Note_on_c, 1, 60, 70
1, 17277, Note_on_c, 0, 64, 0
1, 17277, Note_on_c, 1, 60, 0
1, 17280, Note_on_c, 0, 65, 70
1, 17280, Note_on_c, 1, 53, 70
1, 17369, Note_on_c, 0, 65, 0
1, 17369, Note_on_c, 1, 53, 0
1, 17424, Note_on_c, 0, 69, 82
1, 17447, Note_on_c, 0, 69, 0
1, 17448, Note_on_c, 0, 67, 82
1, 17471, Note_on_c, 0, 67, 0
1, 17472, Note_on_c, 0, 65, 82
1, 17472, Note_on_c, 1, 57, 76
1, 17472, Note_on_c, 1, 53, 76
1, 17472, Note_on_c, 1, 50, 76
1, 17511, Note_on_c, 0, 65, 0
1, 17511, Note_on_c, 1, 57, 0
1, 17511, Note_on_c, 1, 53, 0
1, 17511, Note_on_c, 1, 50, 0
1, 17568, Note_on_c, 0, 64, 82
1, 17568, Note_on_c, 0, 61, 82
1, 17568, Note_on_c, 0, 55, 82
1, 17568, Note_on_c, 1, 49, 76
1, 17568, Note_on_c, 1, 45, 76
1, 17607, Note_on_c, 0, 64, 0
1, 17607, Note_on_c, 0, 61, 0
1, 17607, Note_on_c, 0, 55, 0
1, 17607, Note_on_c, 1, 49, 0
1, 17607, Note_on_c, 1, 45, 0
1, 17664, Note_on_c, 0, 62, 82
1, 17664, Note_on_c, 0, 58, 82
1, 17664, Note_on_c, 1, 53, 76
1, 17664, Note_on_c, 1, 50, 76
1, 17664, Note_on_c, 1, 46, 76
1, 17703, Note_on_c, 0, 62, 0
1, 17703, Note_on_c, 0, 58, 0
1, 17703, Note_on_c, 1, 53, 0
1, 17703, Note_on_c, 1, 50, 0
1, 17703, Note_on_c, 1, 46, 0
1, 17808, Note_on_c, 0, 74, 70
1, 17808, Note_on_c, 1, 65, 66
1, 17853, Note_on_c, 0, 74, 0
1, 17853, Note_on_c, 1, 65, 0
1, 17856, Note_on_c, 0, 76, 70
1, 17856, Note_on_c, 1, 67, 66
1, 17901, Note_on_c, 0, 76, 0
1, 17904, Note_on_c, 0, 79, 70
1, 17927, Note_on_c, 0, 79, 0
1, 17928, Note_on_c, 0, 77, 70
1, 17951, Note_on_c, 0, 77, 0
1, 17952, Note_on_c, 0, 76, 70
1, 17997, Note_on_c, 0, 76, 0
1, 18000, Note_on_c, 0, 74, 70
1, 18000, Note_on_c, 1, 67, 0
1, 18000, Note_on_c, 1, 68, 66
1, 18045, Note_on_c, 0, 74, 0
1, 18045, Note_on_c, 1, 68, 0
1, 18048, Note_on_c, 0, 73, 70
1, 18048, Note_on_c, 1, 69, 66
1, 18093, Note_on_c, 0, 73, 0
1, 18096, Note_on_c, 0, 81, 70
1, 18137, Note_on_c, 1, 69, 0
1, 18141, Note_on_c, 0, 81, 0
1, 18144, Note_on_c, 0, 69, 82
1, 18189, Note_on_c, 0, 69, 0
1, 18192, Note_on_c, 0, 72, 82
1, 18215, Note_on_c, 0, 72, 0
1, 18216, Note_on_c, 0, 70, 82
1, 18239, Note_on_c, 0, 70, 0
1, 18240, Note_on_c, 0, 69, 82
1, 18240, Note_on_c, 1, 60, 76
1, 18240, Note_on_c, 1, 57, 76
1, 18240, Note_on_c, 1, 53, 76
1, 18279, Note_on_c, 0, 69, 0
1, 18279, Note_on_c, 1, 60, 0
1, 18279, Note_on_c, 1, 57, 0
1, 18279, Note_on_c, 1, 53, 0
1, 18336, Note_on_c, 0, 67, 82
1, 18336, Note_on_c, 0, 64, 82
1, 18336, Note_on_c, 0, 58, 82
1, 18336, Note_on_c, 1, 52, 76
1, 18336, Note_on_c, 1, 48, 76
1, 18375, Note_on_c, 0, 67, 0
1, 18375, Note_on_c, 0, 64, 0
1, 18375, Note_on_c, 0, 58, 0
1, 18375, Note_on_c, 1, 52, 0
1, 18375, Note_on_c, 1, 48, 0
1, 18432, Note_on_c, 0, 65, 82
1, 18432, Note_on_c, 0, 62, 82
1, 18432, Note_on_c, 0, 57, 82
1, 18432, Note_on_c, 1, 53, 76
1, 18432, Note_on_c, 1, 50, 76
1, 18471, Note_on_c, 0, 65, 0
1, 18471, Note_on_c, 0, 62, 0
1, 18471, Note_on_c, 0, 57, 0
1, 18471, Note_on_c, 1, 53, 0
1, 18471, Note_on_c, 1, 50, 0
1, 18576, Note_on_c, 0, 77, 70
1, 18576, Note_on_c, 1, 57, 66
1, 18621, Note_on_c, 0, 77, 0
1, 18621, Note_on_c, 1, 57, 0
1, 18624, Note_on_c, 0, 67, 70
1, 18624, Note_on_c, 1, 58, 66
1, 18672, Note_on_c, 0, 67, 0
1, 18672, Note_on_c, 0, 74, 70
1, 18713, Note_on_c, 1, 58, 0
1, 18717, Note_on_c, 0, 74, 0
1, 18720, Note_on_c, 0, 72, 70
1, 18768, Note_on_c, 0, 72, 0
1, 18768, Note_on_c, 0, 64, 70
1, 18768, Note_on_c, 1, 60, 66
1, 18813, Note_on_c, 0, 64, 0
1, 18813, Note_on_c, 1, 60, 0
1, 18816, Note_on_c, 0, 65, 70
1, 18816, Note_on_c, 1, 53, 66
1, 18905, Note_on_c, 0, 65, 0
1, 18905, Note_on_c, 1, 53, 0
1, 18960, Note_on_c, 0, 81, 82
1, 18983, Note_on_c, 0, 81, 0
1, 18984, Note_on_c, 0, 82, 82
1, 19007, Note_on_c, 0, 82, 0
1, 19008, Note_on_c, 0, 84, 82
1, 19008, Note_on_c, 1, 65, 76
1, 19008, Note_on_c, 1, 60, 76
1, 19008, Note_on_c, 1, 57, 76
1, 19047, Note_on_c, 0, 84, 0
1, 19047, Note_on_c, 1, 65, 0
1, 19047, Note_on_c, 1, 60, 0
1, 19047, Note_on_c, 1, 57, 0
1, 19104, Note_on_c, 0, 75, 82
1, 19104, Note_on_c, 0, 70, 82
1, 19104, Note_on_c, 0, 67, 82
1, 19104, Note_on_c, 1, 63, 76
1, 19104, Note_on_c, 1, 58, 76
1, 19104, Note_on_c, 1, 55, 76
1, 19143, Note_on_c, 0, 75, 0
1, 19143, Note_on_c, 0, 70, 0
1, 19143, Note_on_c, 0, 67, 0
1, 19143, Note_on_c, 1, 63, 0
1, 19143, Note_on_c, 1, 58, 0
1, 19143, Note_on_c, 1, 55, 0
1, 19200, Note_on_c, 0, 74, 82
1, 19200, Note_on_c, 0, 69, 82
1, 19200, Note_on_c, 0, 66, 82
1, 19200, Note_on_c, 1, 62, 76
1, 19200, Note_on_c, 1, 57, 76
1, 19200, Note_on_c, 1, 54, 76
1, 19239, Note_on_c, 0, 74, 0
1, 19239, Note_on_c, 0, 69, 0
1, 19239, Note_on_c, 0, 66, 0
1, 19239, Note_on_c, 1, 62, 0
1, 19239, Note_on_c, 1, 57, 0
1, 19239, Note_on_c, 1, 54, 0
1, 19344, Note_on_c, 0, 84, 70
1, 19344, Note_on_c, 1, 66, 66
1, 19392, Note_on_c, 0, 84, 0
1, 19392, Note_on_c, 0, 82, 70
1, 19392, Note_on_c, 1, 66, 0
1, 19392, Note_on_c, 1, 67, 66
1, 19437, Note_on_c, 0, 82, 0
1, 19437, Note_on_c, 1, 67, 0
1, 19440, Note_on_c, 0, 78, 71
1, 19440, Note_on_c, 1, 69, 67
1, 19488, Note_on_c, 0, 78, 0
1, 19488, Note_on_c, 0, 79, 72
1, 19488, Note_on_c, 1, 69, 0
1, 19488, Note_on_c, 1, 70, 68
1, 19533, Note_on_c, 0, 79, 0
1, 19533, Note_on_c, 1, 70, 0
1, 19536, Note_on_c, 0, 82, 73
1, 19536, Note_on_c, 1, 64, 70
1, 19584, Note_on_c, 0, 82, 0
1, 19584, Note_on_c, 0, 81, 74
1, 19584, Note_on_c, 1, 64, 0
1, 19584, Note_on_c, 1, 65, 71
1, 19629, Note_on_c, 0, 81, 0
1, 19629, Note_on_c, 1, 65, 0
1, 19632, Note_on_c, 0, 76, 75
1, 19632, Note_on_c, 1, 67, 72
1, 19680, Note_on_c, 0, 76, 0
1, 19680, Note_on_c, 0, 77, 76
1, 19680, Note_on_c, 1, 67, 0
1, 19680, Note_on_c, 1, 69, 74
1, 19725, Note_on_c, 0, 77, 0
1, 19725, Note_on_c, 1, 69, 0
1, 19728, Note_on_c, 0, 81, 77
1, 19728, Note_on_c, 1, 65, 75
1, 19776, Note_on_c, 0, 81, 0
1, 19776, Note_on_c, 0, 79, 78
1, 19776, Note_on_c, 1, 65, 0
1, 19776, Note_on_c, 1, 70, 76
1, 19821, Note_on_c, 0, 79, 0
1, 19821, Note_on_c, 1, 70, 0
1, 19824, Note_on_c, 0, 77, 79
1, 19824, Note_on_c, 1, 69, 78
1, 19872, Note_on_c, 0, 77, 0
1, 19872, Note_on_c, 0, 76, 80
1, 19872, Note_on_c, 1, 69, 0
1, 19872, Note_on_c, 1, 67, 79
1, 19917, Note_on_c, 0, 76, 0
1, 19917, Note_on_c, 1, 67, 0
1, 19920, Note_on_c, 0, 74, 81
1, 19920, Note_on_c, 1, 68, 80
1, 19968, Note_on_c, 1, 68, 0
1, 19968, Note_on_c, 1, 69, 82
1, 20057, Note_on_c, 1, 69, 0
1, 20064, Note_on_c, 0, 74, 0
1, 20064, Note_on_c, 0, 73, 82
1, 20109, Note_on_c, 0, 73, 0
1, 20112, Note_on_c, 0, 69, 82
1, 20112, Note_on_c, 0, 65, 82
1, 20135, Note_on_c, 0, 69, 0
1, 20135, Note_on_c, 0, 65, 0
1, 20136, Note_on_c, 0, 67, 82
1, 20136, Note_on_c, 0, 64, 82
1, 20159, Note_on_c, 0, 67, 0
1, 20159, Note_on_c, 0, 64, 0
1, 20160, Note_on_c, 0, 65, 82
1, 20160, Note_on_c, 0, 62, 82
1, 20205, Note_on_c, 0, 65, 0
1, 20205, Note_on_c, 0, 62, 0
1, 20256, Note_on_c, 0, 64, 82
1, 20256, Note_on_c, 0, 61, 82
1, 20301, Note_on_c, 0, 64, 0
1, 20301, Note_on_c, 0, 61, 0
1, 20304, Note_on_c, 1, 57, 82
1, 20328, Note_on_c, 1, 57, 0
1, 20328, Note_on_c, 1, 55, 82
1, 20351, Note_on_c, 1, 55, 0
1, 20352, Note_on_c, 0, 65, 82
1, 20352, Note_on_c, 0, 62, 82
1, 20352, Note_on_c, 1, 53, 82
1, 20372, Note_on_c, 1, 53, 0
1, 20397, Note_on_c, 0, 65, 0
1, 20397, Note_on_c, 0, 62, 0
1, 20400, Note_on_c, 1, 53, 82
1, 20424, Note_on_c, 1, 53, 0
1, 20424, Note_on_c, 1, 52, 82
1, 20447, Note_on_c, 1, 52, 0
1, 20448, Note_on_c, 0, 74, 82
1, 20448, Note_on_c, 0, 65, 82
1, 20448, Note_on_c, 1, 50, 82
1, 20468, Note_on_c, 1, 50, 0
1, 20493, Note_on_c, 0, 74, 0
1, 20493, Note_on_c, 0, 65, 0
1, 20496, Note_on_c, 1, 50, 82
1, 20520, Note_on_c, 1, 50, 0
1, 20520, Note_on_c, 1, 48, 82
1, 20543, Note_on_c, 1, 48, 0
1, 20544, Note_on_c, 0, 77, 82
1, 20544, Note_on_c, 0, 74, 82
1, 20544, Note_on_c, 1, 46, 82
1, 20583, Note_on_c, 1, 46, 0
1, 20589, Note_on_c, 0, 77, 0
1, 20589, Note_on_c, 0, 74, 0
1, 20592, Note_on_c, 0, 86, 82
1, 20616, Note_on_c, 0, 86, 0
1, 20616, Note_on_c, 0, 88, 82
1, 20639, Note_on_c, 0, 88, 0
1, 20640, Note_on_c, 0, 89, 82
1, 20660, Note_on_c, 0, 89, 0
1, 20688, Note_on_c, 0, 86, 82
1, 20712, Note_on_c, 0, 86, 0
1, 20712, Note_on_c, 0, 88, 82
1, 20735, Note_on_c, 0, 88, 0
1, 20736, Note_on_c, 0, 89, 82
1, 20781, Note_on_c, 0, 89, 0
1, 20928, Note_on_c, 1, 45, 82
1, 20976, Note_on_c, 0, 77, 82
1, 20976, Note_on_c, 0, 74, 82
1, 20996, Note_on_c, 0, 77, 0
1, 20996, Note_on_c, 0, 74, 0
1, 21017, Note_on_c, 1, 45, 0
1, 21024, Note_on_c, 0, 79, 82
1, 21024, Note_on_c, 0, 76, 82
1, 21069, Note_on_c, 0, 79, 0
1, 21069, Note_on_c, 0, 76, 0
1, 21072, Note_on_c, 0, 76, 82
1, 21072, Note_on_c, 0, 73, 82
1, 21117, Note_on_c, 0, 76, 0
1, 21117, Note_on_c, 0, 73, 0
1, 21120, Note_on_c, 0, 74, 82
1, 21120, Note_on_c, 1, 38, 82
1, 21209, Note_on_c, 0, 74, 0
1, 21209, Note_on_c, 1, 38, 0
1, 21264, Note_on_c, 0, 81, 82
1, 21287, Note_on_c, 0, 81, 0
1, 21288, Note_on_c, 0, 82, 82
1, 21311, Note_on_c, 0, 82, 0
1, 21312, Note_on_c, 0, 84, 82
1, 21312, Note_on_c, 1, 65, 76
1, 21312, Note_on_c, 1, 60, 76
1, 21312, Note_on_c, 1, 57, 76
1, 21351, Note_on_c, 0, 84, 0
1, 21351, Note_on_c, 1, 65, 0
1, 21351, Note_on_c, 1, 60, 0
1, 21351, Note_on_c, 1, 57, 0
1, 21408, Note_on_c, 0, 75, 82
1, 21408, Note_on_c, 0, 70, 82
1, 21408, Note_on_c, 0, 67, 82
1, 21408, Note_on_c, 1, 63, 76
1, 21408, Note_on_c, 1, 58, 76
1, 21408, Note_on_c, 1, 55, 76
1, 21447, Note_on_c, 0, 75, 0
1, 21447, Note_on_c, 0, 70, 0
1, 21447, Note_on_c, 0, 67, 0
1, 21447, Note_on_c, 1, 63, 0
1, 21447, Note_on_c, 1, 58, 0
1, 21447, Note_on_c, 1, 55, 0
1, 21504, Note_on_c, 0, 74, 82
1, 21504, Note_on_c, 0, 69, 82
1, 21504, Note_on_c, 0, 66, 82
1, 21504, Note_on_c, 1, 62, 76
1, 21504, Note_on_c, 1, 57, 76
1, 21504, Note_on_c, 1, 54, 76
1, 21543, Note_on_c, 0, 74, 0
1, 21543, Note_on_c, 0, 69, 0
1, 21543, Note_on_c, 0, 66, 0
1, 21543, Note_on_c, 1, 62, 0
1, 21543, Note_on_c, 1, 57, 0
1, 21543, Note_on_c, 1, 54, 0
1, 21648, Note_on_c, 0, 84, 70
1, 21648, Note_on_c, 1, 66, 66
1, 21696, Note_on_c, 0, 84, 0
1, 21696, Note_on_c, 0, 82, 70
1, 21696, Note_on_c, 1, 66, 0
1, 21696, Note_on_c, 1, 67, 66
1, 21741, Note_on_c, 0, 82, 0
1, 21741, Note_on_c, 1, 67, 0
1, 21744, Note_on_c, 0, 78, 71
1, 21744, Note_on_c, 1, 69, 67
1, 21792, Note_on_c, 0, 78, 0
1, 21792, Note_on_c, 0, 79, 72
1, 21792, Note_on_c, 1, 69, 0
1, 21792, Note_on_c, 1, 70, 68
1, 21837, Note_on_c, 0, 79, 0
1, 21837, Note_on_c, 1, 70, 0
1, 21840, Note_on_c, 0, 82, 73
1, 21840, Note_on_c, 1, 64, 70
1, 21888, Note_on_c, 0, 82, 0
1, 21888, Note_on_c, 0, 81, 74
1, 21888, Note_on_c, 1, 64, 0
1, 21888, Note_on_c, 1, 65, 71
1, 21933, Note_on_c, 0, 81, 0
1, 21933, Note_on_c, 1, 65, 0
1, 21936, Note_on_c, 0, 76, 75
1, 21936, Note_on_c, 1, 67, 72
1, 21984, Note_on_c, 0, 76, 0
1, 21984, Note_on_c, 0, 77, 76
1, 21984, Note_on_c, 1, 67, 0
1, 21984, Note_on_c, 1, 69, 74
1, 22029, Note_on_c, 0, 77, 0
1, 22029, Note_on_c, 1, 69, 0
1, 22032, Note_on_c, 0, 81, 77
1, 22032, Note_on_c, 1, 65, 75
1, 22080, Note_on_c, 0, 81, 0
1, 22080, Note_on_c, 0, 79, 78
1, 22080, Note_on_c, 1, 65, 0
1, 22080, Note_on_c, 1, 70, 76
1, 22125, Note_on_c, 0, 79, 0
1, 22125, Note_on_c, 1, 70, 0
1, 22128, Note_on_c, 0, 77, 79
1, 22128, Note_on_c, 1, 69, 78
1, 22176, Note_on_c, 0, 77, 0
1, 22176, Note_on_c, 0, 76, 80
1, 22176, Note_on_c, 1, 69, 0
1, 22176, Note_on_c, 1, 67, 79
1, 22221, Note_on_c, 0, 76, 0
1, 22221, Note_on_c, 1, 67, 0
1, 22224, Note_on_c, 0, 74, 81
1, 22224, Note_on_c, 1, 68, 80
1, 22272, Note_on_c, 1, 68, 0
1, 22272, Note_on_c, 1, 69, 82
1, 22361, Note_on_c, 1, 69, 0
1, 22368, Note_on_c, 0, 74, 0
1, 22368, Note_on_c, 0, 73, 82
1, 22413, Note_on_c, 0, 73, 0
1, 22416, Note_on_c, 0, 69, 82
1, 22416, Note_on_c, 0, 65, 82
1, 22439, Note_on_c, 0, 69, 0
1, 22439, Note_on_c, 0, 65, 0
1, 22440, Note_on_c, 0, 67, 82
1, 22440, Note_on_c, 0, 64, 82
1, 22463, Note_on_c, 0, 67, 0
1, 22463, Note_on_c, 0, 64, 0
1, 22464, Note_on_c, 0, 65, 82
1, 22464, Note_on_c, 0, 62, 82
1, 22509, Note_on_c, 0, 65, 0
1, 22509, Note_on_c, 0, 62, 0
1, 22560, Note_on_c, 0, 64, 82
1, 22560, Note_on_c, 0, 61, 82
1, 22605, Note_on_c, 0, 64, 0
1, 22605, Note_on_c, 0, 61, 0
1, 22608, Note_on_c, 1, 57, 82
1, 22632, Note_on_c, 1, 57, 0
1, 22632, Note_on_c, 1, 55, 82
1, 22655, Note_on_c, 1, 55, 0
1, 22656, Note_on_c, 0, 65, 82
1, 22656, Note_on_c, 0, 62, 82
1, 22656, Note_on_c, 1, 53, 82
1, 22676, Note_on_c, 1, 53, 0
1, 22701, Note_on_c, 0, 65, 0
1, 22701, Note_on_c, 0, 62, 0
1, 22704, Note_on_c, 1, 53, 82
1, 22728, Note_on_c, 1, 53, 0
1, 22728, Note_on_c, 1, 52, 82
1, 22751, Note_on_c, 1, 52, 0
1, 22752, Note_on_c, 0, 74, 82
1, 22752, Note_on_c, 0, 65, 82
1, 22752, Note_on_c, 1, 50, 82
1, 22772, Note_on_c, 1, 50, 0
1, 22797, Note_on_c, 0, 74, 0
1, 22797, Note_on_c, 0, 65, 0
1, 22800, Note_on_c, 1, 50, 82
1, 22824, Note_on_c, 1, 50, 0
1, 22824, Note_on_c, 1, 48, 82
1, 22847, Note_on_c, 1, 48, 0
1, 22848, Note_on_c, 0, 77, 82
1, 22848, Note_on_c, 0, 74, 82
1, 22848, Note_on_c, 1, 46, 82
1, 22887, Note_on_c, 1, 46, 0
1, 22893, Note_on_c, 0, 77, 0
1, 22893, Note_on_c, 0, 74, 0
1, 22896, Note_on_c, 0, 86, 82
1, 22920, Note_on_c, 0, 86, 0
1, 22920, Note_on_c, 0, 88, 82
1, 22943, Note_on_c, 0, 88, 0
1, 22944, Note_on_c, 0, 89, 82
1, 22964, Note_on_c, 0, 89, 0
1, 22992, Note_on_c, 0, 86, 82
1, 23016, Note_on_c, 0, 86, 0
1, 23016, Note_on_c, 0, 88, 82
1, 23039, Note_on_c, 0, 88, 0
1, 23040, Note_on_c, 0, 89, 82
1, 23085, Note_on_c, 0, 89, 0
1, 23232, Note_on_c, 1, 45, 82
1, 23280, Note_on_c, 0, 77, 82
1, 23280, Note_on_c, 0, 74, 82
1, 23300, Note_on_c, 0, 77, 0
1, 23300, Note_on_c, 0, 74, 0
1, 23321, Note_on_c, 1, 45, 0
1, 23328, Note_on_c, 0, 79, 82
1, 23328, Note_on_c, 0, 76, 82
1, 23373, Note_on_c, 0, 79, 0
1, 23373, Note_on_c, 0, 76, 0
1, 23376, Note_on_c, 0, 76, 82
1, 23376, Note_on_c, 0, 73, 82
1, 23421, Note_on_c, 0, 76, 0
1, 23421, Note_on_c, 0, 73, 0
1, 23424, Note_on_c, 0, 74, 82
1, 23424, Note_on_c, 1, 38, 82
1, 23513, Note_on_c, 0, 74, 0
1, 23513, Note_on_c, 1, 38, 0
1, 23568, Note_on_c, 0, 69, 76
1, 23588, Note_on_c, 0, 69, 0
1, 23616, Note_on_c, 0, 69, 92
1, 23664, Note_on_c, 1, 54, 66
1, 23664, Note_on_c, 1, 50, 66
1, 23684, Note_on_c, 1, 54, 0
1, 23684, Note_on_c, 1, 50, 0
1, 23712, Note_on_c, 0, 69, 0
1, 23712, Note_on_c, 0, 66, 76
1, 23712, Note_on_c, 1, 54, 66
1, 23712, Note_on_c, 1, 50, 66
1, 23732, Note_on_c, 0, 66, 0
1, 23757, Note_on_c, 1, 54, 0
1, 23757, Note_on_c, 1, 50, 0
1, 23760, Note_on_c, 0, 74, 76
1, 23780, Note_on_c, 0, 74, 0
1, 23808, Note_on_c, 0, 74, 92
1, 23856, Note_on_c, 1, 55, 66
1, 23856, Note_on_c, 1, 52, 66
1, 23876, Note_on_c, 1, 55, 0
1, 23876, Note_on_c, 1, 52, 0
1, 23904, Note_on_c, 0, 74, 0
1, 23904, Note_on_c, 0, 73, 76
1, 23904, Note_on_c, 1, 55, 66
1, 23904, Note_on_c, 1, 52, 66
1, 23924, Note_on_c, 0, 73, 0
1, 23949, Note_on_c, 1, 55, 0
1, 23949, Note_on_c, 1, 52, 0
1, 23952, Note_on_c, 0, 76, 76
1, 23972, Note_on_c, 0, 76, 0
1, 24000, Note_on_c, 0, 76, 92
1, 24048, Note_on_c, 1, 61, 66
1, 24048, Note_on_c, 1, 57, 66
1, 24068, Note_on_c, 1, 61, 0
1, 24068, Note_on_c, 1, 57, 0
1, 24072, Note_on_c, 0, 76, 0
1, 24072, Note_on_c, 0, 78, 79
1, 24095, Note_on_c, 0, 78, 0
1, 24096, Note_on_c, 0, 79, 80
1, 24096, Note_on_c, 1, 61, 66
1, 24096, Note_on_c, 1, 57, 66
1, 24141, Note_on_c, 0, 79, 0
1, 24141, Note_on_c, 1, 61, 0
1, 24141, Note_on_c, 1, 57, 0
1, 24144, Note_on_c, 0, 79, 82
1, 24164, Note_on_c, 0, 79, 0
1, 24192, Note_on_c, 0, 79, 98
1, 24240, Note_on_c, 1, 66, 66
1, 24240, Note_on_c, 1, 62, 66
1, 24260, Note_on_c, 1, 66, 0
1, 24260, Note_on_c, 1, 62, 0
1, 24288, Note_on_c, 0, 79, 0
1, 24288, Note_on_c, 0, 78, 78
1, 24288, Note_on_c, 1, 66, 66
1, 24288, Note_on_c, 1, 62, 66
1, 24333, Note_on_c, 0, 78, 0
1, 24333, Note_on_c, 1, 66, 0
1, 24333, Note_on_c, 1, 62, 0
1, 24336, Note_on_c, 0, 81, 76
1, 24356, Note_on_c, 0, 81, 0
1, 24384, Note_on_c, 0, 81, 92
1, 24432, Note_on_c, 1, 64, 66
1, 24432, Note_on_c, 1, 61, 66
1, 24452, Note_on_c, 1, 64, 0
1, 24452, Note_on_c, 1, 61, 0
1, 24480, Note_on_c, 1, 64, 66
1, 24480, Note_on_c, 1, 61, 66
1, 24525, Note_on_c, 1, 64, 0
1, 24525, Note_on_c, 1, 61, 0
1, 24528, Note_on_c, 0, 81, 0
1, 24528, Note_on_c, 0, 82, 76
1, 24573, Note_on_c, 0, 82, 0
1, 24576, Note_on_c, 0, 83, 76
1, 24624, Note_on_c, 1, 66, 66
1, 24624, Note_on_c, 1, 62, 66
1, 24643, Note_on_c, 0, 83, 0
1, 24648, Note_on_c, 0, 85, 78
1, 24669, Note_on_c, 1, 66, 0
1, 24669, Note_on_c, 1, 62, 0
1, 24671, Note_on_c, 0, 85, 0
1, 24672, Note_on_c, 0, 88, 79
1, 24672, Note_on_c, 1, 66, 66
1, 24672, Note_on_c, 1, 62, 66
1, 24695, Note_on_c, 0, 88, 0
1, 24696, Note_on_c, 0, 86, 79
1, 24717, Note_on_c, 1, 66, 0
1, 24717, Note_on_c, 1, 62, 0
1, 24719, Note_on_c, 0, 86, 0
1, 24720, Note_on_c, 0, 85, 80
1, 24720, Note_on_c, 1, 66, 66
1, 24720, Note_on_c, 1, 62, 66
1, 24743, Note_on_c, 0, 85, 0
1, 24744, Note_on_c, 0, 83, 81
1, 24765, Note_on_c, 1, 66, 0
1, 24765, Note_on_c, 1, 62, 0
1, 24767, Note_on_c, 0, 83, 0
1, 24768, Note_on_c, 0, 81, 82
1, 24768, Note_on_c, 1, 61, 66
1, 24768, Note_on_c, 1, 52, 66
1, 24813, Note_on_c, 1, 61, 0
1, 24813, Note_on_c, 1, 52, 0
1, 24816, Note_on_c, 1, 61, 66
1, 24816, Note_on_c, 1, 52, 66
1, 24857, Note_on_c, 0, 81, 0
1, 24861, Note_on_c, 1, 61, 0
1, 24861, Note_on_c, 1, 52, 0
1, 24864, Note_on_c, 0, 80, 82
1, 24864, Note_on_c, 1, 59, 66
1, 24864, Note_on_c, 1, 52, 66
1, 24876, Note_on_c, 0, 80, 0
1, 24876, Note_on_c, 0, 81, 82
1, 24888, Note_on_c, 0, 81, 0
1, 24888, Note_on_c, 0, 80, 82
1, 24909, Note_on_c, 1, 59, 0
1, 24909, Note_on_c, 1, 52, 0
1, 24912, Note_on_c, 1, 59, 66
1, 24912, Note_on_c, 1, 52, 66
1, 24931, Note_on_c, 0, 80, 0
1, 24936, Note_on_c, 0, 81, 82
1, 24957, Note_on_c, 1, 59, 0
1, 24957, Note_on_c, 1, 52, 0
1, 24959, Note_on_c, 0, 81, 0
1, 24960, Note_on_c, 0, 81, 98
1, 24960, Note_on_c, 1, 57, 66
1, 24960, Note_on_c, 1, 45, 66
1, 25049, Note_on_c, 1, 57, 0
1, 25049, Note_on_c, 1, 45, 0
1, 25056, Note_on_c, 0, 81, 0
1, 25104, Note_on_c, 0, 69, 76
1, 25124, Note_on_c, 0, 69, 0
1, 25152, Note_on_c, 0, 69, 92
1, 25200, Note_on_c, 1, 54, 66
1, 25200, Note_on_c, 1, 50, 66
1, 25220, Note_on_c, 1, 54, 0
1, 25220, Note_on_c, 1, 50, 0
1, 25248, Note_on_c, 0, 69, 0
1, 25248, Note_on_c, 0, 66, 76
1, 25248, Note_on_c, 1, 54, 66
1, 25248, Note_on_c, 1, 50, 66
1, 25268, Note_on_c, 0, 66, 0
1, 25293, Note_on_c, 1, 54, 0
1, 25293, Note_on_c, 1, 50, 0
1, 25296, Note_on_c, 0, 74, 76
1, 25316, Note_on_c, 0, 74, 0
1, 25344, Note_on_c, 0, 74, 92
1, 25392, Note_on_c, 1, 55, 66
1, 25392, Note_on_c, 1, 52, 66
1, 25412, Note_on_c, 1, 55, 0
1, 25412, Note_on_c, 1, 52, 0
1, 25440, Note_on_c, 0, 74, 0
1, 25440, Note_on_c, 0, 73, 76
1, 25440, Note_on_c, 1, 55, 66
1, 25440, Note_on_c, 1, 52, 66
1, 25460, Note_on_c, 0, 73, 0
1, 25485, Note_on_c, 1, 55, 0
1, 25485, Note_on_c, 1, 52, 0
1, 25488, Note_on_c, 0, 76, 76
1, 25508, Note_on_c, 0, 76, 0
1, 25536, Note_on_c, 0, 76, 92
1, 25584, Note_on_c, 1, 61, 66
1, 25584, Note_on_c, 1, 57, 66
1, 25604, Note_on_c, 1, 61, 0
1, 25604, Note_on_c, 1, 57, 0
1, 25608, Note_on_c, 0, 76, 0
1, 25608, Note_on_c, 0, 78, 79
1, 25631, Note_on_c, 0, 78, 0
1, 25632, Note_on_c, 0, 79, 80
1, 25632, Note_on_c, 1, 61, 66
1, 25632, Note_on_c, 1, 57, 66
1, 25677, Note_on_c, 0, 79, 0
1, 25677, Note_on_c, 1, 61, 0
1, 25677, Note_on_c, 1, 57, 0
1, 25680, Note_on_c, 0, 79, 82
1, 25700, Note_on_c, 0, 79, 0
1, 25728, Note_on_c, 0, 79, 98
1, 25776, Note_on_c, 1, 66, 66
1, 25776, Note_on_c, 1, 62, 66
1, 25796, Note_on_c, 1, 66, 0
1, 25796, Note_on_c, 1, 62, 0
1, 25824, Note_on_c, 0, 79, 0
1, 25824, Note_on_c, 0, 78, 78
1, 25824, Note_on_c, 1, 66, 66
1, 25824, Note_on_c, 1, 62, 66
1, 25869, Note_on_c, 0, 78, 0
1, 25869, Note_on_c, 1, 66, 0
1, 25869, Note_on_c, 1, 62, 0
1, 25872, Note_on_c, 0, 81, 76
1, 25892, Note_on_c, 0, 81, 0
1, 25920, Note_on_c, 0, 81, 92
1, 25968, Note_on_c, 1, 64, 66
1, 25968, Note_on_c, 1, 61, 66
1, 25988, Note_on_c, 1, 64, 0
1, 25988, Note_on_c, 1, 61, 0
1, 26016, Note_on_c, 1, 64, 66
1, 26016, Note_on_c, 1, 61, 66
1, 26061, Note_on_c, 1, 64, 0
1, 26061, Note_on_c, 1, 61, 0
1, 26064, Note_on_c, 0, 81, 0
1, 26064, Note_on_c, 0, 82, 76
1, 26109, Note_on_c, 0, 82, 0
1, 26112, Note_on_c, 0, 83, 76
1, 26160, Note_on_c, 1, 66, 66
1, 26160, Note_on_c, 1, 62, 66
1, 26179, Note_on_c, 0, 83, 0
1, 26184, Note_on_c, 0, 85, 78
1, 26205, Note_on_c, 1, 66, 0
1, 26205, Note_on_c, 1, 62, 0
1, 26207, Note_on_c, 0, 85, 0
1, 26208, Note_on_c, 0, 88, 79
1, 26208, Note_on_c, 1, 66, 66
1, 26208, Note_on_c, 1, 62, 66
1, 26231, Note_on_c, 0, 88, 0
1, 26232, Note_on_c, 0, 86, 79
1, 26253, Note_on_c, 1, 66, 0
1, 26253, Note_on_c, 1, 62, 0
1, 26255, Note_on_c, 0, 86, 0
1, 26256, Note_on_c, 0, 85, 80
1, 26256, Note_on_c, 1, 66, 66
1, 26256, Note_on_c, 1, 62, 66
1, 26279, Note_on_c, 0, 85, 0
1, 26280, Note_on_c, 0, 83, 81
1, 26301, Note_on_c, 1, 66, 0
1, 26301, Note_on_c, 1, 62, 0
1, 26303, Note_on_c, 0, 83, 0
1, 26304, Note_on_c, 0, 81, 82
1, 26304, Note_on_c, 1, 61, 66
1, 26304, Note_on_c, 1, 52, 66
1, 26349, Note_on_c, 1, 61, 0
1, 26349, Note_on_c, 1, 52, 0
1, 26352, Note_on_c, 1, 61, 66
1, 26352, Note_on_c, 1, 52, 66
1, 26393, Note_on_c, 0, 81, 0
1, 26397, Note_on_c, 1, 61, 0
1, 26397, Note_on_c, 1, 52, 0
1, 26400, Note_on_c, 0, 80, 82
1, 26400, Note_on_c, 1, 59, 66
1, 26400, Note_on_c, 1, 52, 66
1, 26412, Note_on_c, 0, 80, 0
1, 26412, Note_on_c, 0, 81, 82
1, 26424, Note_on_c, 0, 81, 0
1, 26424, Note_on_c, 0, 80, 82
1, 26445, Note_on_c, 1, 59, 0
1, 26445, Note_on_c, 1, 52, 0
1, 26448, Note_on_c, 1, 59, 66
1, 26448, Note_on_c, 1, 52, 66
1, 26467, Note_on_c, 0, 80, 0
1, 26472, Note_on_c, 0, 81, 82
1, 26493, Note_on_c, 1, 59, 0
1, 26493, Note_on_c, 1, 52, 0
1, 26495, Note_on_c, 0, 81, 0
1, 26496, Note_on_c, 0, 81, 98
1, 26496, Note_on_c, 1, 57, 66
1, 26496, Note_on_c, 1, 45, 66
1, 26585, Note_on_c, 1, 57, 0
1, 26585, Note_on_c, 1, 45, 0
1, 26592, Note_on_c, 0, 81, 0
1, 26640, Note_on_c, 0, 81, 76
1, 26660, Note_on_c, 0, 81, 0
1, 26688, Note_on_c, 0, 81, 92
1, 26736, Note_on_c, 1, 69, 66
1, 26736, Note_on_c, 1, 66, 66
1, 26756, Note_on_c, 1, 69, 0
1, 26756, Note_on_c, 1, 66, 0
1, 26784, Note_on_c, 0, 81, 0
1, 26784, Note_on_c, 0, 75, 76
1, 26784, Note_on_c, 1, 69, 66
1, 26784, Note_on_c, 1, 66, 66
1, 26829, Note_on_c, 1, 69, 0
1, 26829, Note_on_c, 1, 66, 0
1, 26832, Note_on_c, 0, 75, 0
1, 26832, Note_on_c, 0, 83, 76
1, 26852, Note_on_c, 0, 83, 0
1, 26880, Note_on_c, 0, 83, 92
1, 26928, Note_on_c, 1, 71, 66
1, 26928, Note_on_c, 1, 67, 66
1, 26948, Note_on_c, 1, 71, 0
1, 26948, Note_on_c, 1, 67, 0
1, 26976, Note_on_c, 0, 83, 0
1, 26976, Note_on_c, 0, 76, 76
1, 26976, Note_on_c, 1, 71, 66
1, 26976, Note_on_c, 1, 67, 66
1, 26996, Note_on_c, 0, 76, 0
1, 27021, Note_on_c, 1, 71, 0
1, 27021, Note_on_c, 1, 67, 0
1, 27024, Note_on_c, 0, 79, 76
1, 27044, Note_on_c, 0, 79, 0
1, 27072, Note_on_c, 0, 79, 92
1, 27072, Note_on_c, 1, 69, 66
1, 27072, Note_on_c, 1, 61, 66
1, 27117, Note_on_c, 1, 69, 0
1, 27117, Note_on_c, 1, 61, 0
1, 27120, Note_on_c, 1, 69, 66
1, 27120, Note_on_c, 1, 61, 66
1, 27144, Note_on_c, 0, 79, 0
1, 27144, Note_on_c, 0, 81, 79
1, 27156, Note_on_c, 0, 81, 0
1, 27156, Note_on_c, 0, 79, 79
1, 27165, Note_on_c, 1, 69, 0
1, 27165, Note_on_c, 1, 61, 0
1, 27168, Note_on_c, 0, 79, 0
1, 27168, Note_on_c, 0, 78, 80
1, 27168, Note_on_c, 1, 69, 66
1, 27168, Note_on_c, 1, 62, 66
1, 27213, Note_on_c, 0, 78, 0
1, 27213, Note_on_c, 1, 69, 0
1, 27213, Note_on_c, 1, 62, 0
1, 27216, Note_on_c, 0, 78, 82
1, 27216, Note_on_c, 1, 69, 66
1, 27216, Note_on_c, 1, 62, 66
1, 27236, Note_on_c, 0, 78, 0
1, 27261, Note_on_c, 1, 69, 0
1, 27261, Note_on_c, 1, 62, 0
1, 27264, Note_on_c, 0, 76, 82
1, 27264, Note_on_c, 1, 69, 66
1, 27309, Note_on_c, 0, 76, 0
1, 27312, Note_on_c, 0, 73, 80
1, 27353, Note_on_c, 1, 69, 0
1, 27357, Note_on_c, 0, 73, 0
1, 27360, Note_on_c, 0, 69, 78
1, 27405, Note_on_c, 0, 69, 0
1, 27408, Note_on_c, 0, 69, 76
1, 27408, Note_on_c, 0, 66, 76
1, 27428, Note_on_c, 0, 69, 0
1, 27428, Note_on_c, 0, 66, 0
1, 27456, Note_on_c, 0, 69, 92
1, 27456, Note_on_c, 0, 66, 92
1, 27504, Note_on_c, 1, 50, 82
1, 27504, Note_on_c, 1, 38, 82
1, 27524, Note_on_c, 1, 50, 0
1, 27524, Note_on_c, 1, 38, 0
1, 27552, Note_on_c, 0, 69, 0
1, 27552, Note_on_c, 0, 62, 76
1, 27552, Note_on_c, 1, 50, 82
1, 27552, Note_on_c, 1, 38, 82
1, 27572, Note_on_c, 0, 66, 0
1, 27572, Note_on_c, 0, 62, 0
1, 27597, Note_on_c, 1, 50, 0
1, 27597, Note_on_c, 1, 38, 0
1, 27600, Note_on_c, 0, 74, 76
1, 27600, Note_on_c, 0, 66, 76
1, 27620, Note_on_c, 0, 74, 0
1, 27620, Note_on_c, 0, 66, 0
1, 27648, Note_on_c, 0, 74, 92
1, 27648, Note_on_c, 0, 66, 92
1, 27696, Note_on_c, 1, 57, 82
1, 27696, Note_on_c, 1, 45, 82
1, 27716, Note_on_c, 1, 57, 0
1, 27716, Note_on_c, 1, 45, 0
1, 27744, Note_on_c, 0, 74, 0
1, 27744, Note_on_c, 0, 66, 0
1, 27744, Note_on_c, 0, 73, 76
1, 27744, Note_on_c, 0, 64, 76
1, 27744, Note_on_c, 1, 57, 82
1, 27744, Note_on_c, 1, 45, 82
1, 27764, Note_on_c, 0, 73, 0
1, 27764, Note_on_c, 0, 64, 0
1, 27789, Note_on_c, 1, 57, 0
1, 27789, Note_on_c, 1, 45, 0
1, 27792, Note_on_c, 0, 76, 76
1, 27792, Note_on_c, 0, 73, 76
1, 27812, Note_on_c, 0, 76, 0
1, 27812, Note_on_c, 0, 73, 0
1, 27840, Note_on_c, 0, 76, 92
1, 27840, Note_on_c, 0, 73, 92
1, 27888, Note_on_c, 1, 57, 82
1, 27888, Note_on_c, 1, 45, 82
1, 27908, Note_on_c, 1, 57, 0
1, 27908, Note_on_c, 1, 45, 0
1, 27912, Note_on_c, 0, 76, 0
1, 27912, Note_on_c, 0, 73, 0
1, 27912, Note_on_c, 0, 78, 76
1, 27912, Note_on_c, 0, 74, 76
1, 27935, Note_on_c, 0, 78, 0
1, 27935, Note_on_c, 0, 74, 0
1, 27936, Note_on_c, 0, 79, 76
1, 27936, Note_on_c, 0, 76, 76
1, 27936, Note_on_c, 1, 57, 82
1, 27936, Note_on_c, 1, 45, 82
1, 27981, Note_on_c, 0, 79, 0
1, 27981, Note_on_c, 0, 76, 0
1, 27981, Note_on_c, 1, 57, 0
1, 27981, Note_on_c, 1, 45, 0
1, 27984, Note_on_c, 0, 79, 76
1, 27984, Note_on_c, 0, 76, 76
1, 28004, Note_on_c, 0, 79, 0
1, 28004, Note_on_c, 0, 76, 0
1, 28032, Note_on_c, 0, 79, 92
1, 28032, Note_on_c, 0, 76, 92
1, 28080, Note_on_c, 1, 62, 82
1, 28080, Note_on_c, 1, 50, 82
1, 28100, Note_on_c, 1, 62, 0
1, 28100, Note_on_c, 1, 50, 0
1, 28128, Note_on_c, 0, 79, 0
1, 28128, Note_on_c, 0, 76, 0
1, 28128, Note_on_c, 0, 78, 76
1, 28128, Note_on_c, 0, 74, 76
1, 28128, Note_on_c, 1, 62, 82
1, 28128, Note_on_c, 1, 50, 82
1, 28148, Note_on_c, 0, 78, 0
1, 28148, Note_on_c, 0, 74, 0
1, 28173, Note_on_c, 1, 62, 0
1, 28173, Note_on_c, 1, 50, 0
1, 28176, Note_on_c, 0, 81, 76
1, 28196, Note_on_c, 0, 81, 0
1, 28224, Note_on_c, 0, 81, 92
1, 28272, Note_on_c, 1, 66, 76
1, 28272, Note_on_c, 1, 62, 76
1, 28272, Note_on_c, 1, 60, 76
1, 28292, Note_on_c, 1, 66, 0
1, 28292, Note_on_c, 1, 62, 0
1, 28292, Note_on_c, 1, 60, 0
1, 28320, Note_on_c, 0, 81, 0
1, 28320, Note_on_c, 0, 74, 76
1, 28320, Note_on_c, 1, 66, 76
1, 28320, Note_on_c, 1, 62, 76
1, 28320, Note_on_c, 1, 60, 76
1, 28340, Note_on_c, 0, 74, 0
1, 28365, Note_on_c, 1, 66, 0
1, 28365, Note_on_c, 1, 62, 0
1, 28365, Note_on_c, 1, 60, 0
1, 28368, Note_on_c, 0, 86, 76
1, 28388, Note_on_c, 0, 86, 0
1, 28416, Note_on_c, 0, 86, 92
1, 28464, Note_on_c, 1, 67, 76
1, 28464, Note_on_c, 1, 62, 76
1, 28464, Note_on_c, 1, 59, 76
1, 28488, Note_on_c, 0, 86, 0
1, 28488, Note_on_c, 0, 83, 76
1, 28509, Note_on_c, 1, 67, 0
1, 28509, Note_on_c, 1, 62, 0
1, 28509, Note_on_c, 1, 59, 0
1, 28511, Note_on_c, 0, 83, 0
1, 28512, Note_on_c, 0, 79, 76
1, 28512, Note_on_c, 1, 67, 76
1, 28512, Note_on_c, 1, 62, 76
1, 28512, Note_on_c, 1, 59, 76
1, 28557, Note_on_c, 0, 79, 0
1, 28557, Note_on_c, 1, 67, 0
1, 28557, Note_on_c, 1, 62, 0
1, 28557, Note_on_c, 1, 59, 0
1, 28560, Note_on_c, 0, 83, 76
1, 28605, Note_on_c, 0, 83, 0
1, 28608, Note_on_c, 0, 81, 76
1, 28656, Note_on_c, 1, 66, 76
1, 28656, Note_on_c, 1, 57, 76
1, 28675, Note_on_c, 0, 81, 0
1, 28680, Note_on_c, 0, 78, 76
1, 28701, Note_on_c, 1, 66, 0
1, 28701, Note_on_c, 1, 57, 0
1, 28703, Note_on_c, 0, 78, 0
1, 28704, Note_on_c, 0, 74, 76
1, 28704, Note_on_c, 1, 66, 76
1, 28704, Note_on_c, 1, 57, 76
1, 28749, Note_on_c, 0, 74, 0
1, 28749, Note_on_c, 1, 66, 0
1, 28749, Note_on_c, 1, 57, 0
1, 28752, Note_on_c, 0, 73, 76
1, 28752, Note_on_c, 1, 64, 76
1, 28752, Note_on_c, 1, 57, 76
1, 28797, Note_on_c, 0, 73, 0
1, 28797, Note_on_c, 1, 64, 0
1, 28797, Note_on_c, 1, 57, 0
1, 28800, Note_on_c, 0, 74, 76
1, 28800, Note_on_c, 1, 62, 76
1, 28800, Note_on_c, 1, 50, 76
1, 28889, Note_on_c, 0, 74, 0
1, 28889, Note_on_c, 1, 62, 0
1, 28889, Note_on_c, 1, 50, 0
1, 28944, Note_on_c, 0, 81, 76
1, 28989, Note_on_c, 0, 81, 0
1, 28992, Note_on_c, 0, 81, 92
1, 29040, Note_on_c, 1, 69, 66
1, 29040, Note_on_c, 1, 66, 66
1, 29060, Note_on_c, 1, 69, 0
1, 29060, Note_on_c, 1, 66, 0
1, 29088, Note_on_c, 0, 81, 0
1, 29088, Note_on_c, 0, 75, 76
1, 29088, Note_on_c, 1, 69, 66
1, 29088, Note_on_c, 1, 66, 66
1, 29133, Note_on_c, 1, 69, 0
1, 29133, Note_on_c, 1, 66, 0
1, 29136, Note_on_c, 0, 75, 0
1, 29136, Note_on_c, 0, 83, 76
1, 29156, Note_on_c, 0, 83, 0
1, 29184, Note_on_c, 0, 83, 92
1, 29232, Note_on_c, 1, 71, 66
1, 29232, Note_on_c, 1, 67, 66
1, 29252, Note_on_c, 1, 71, 0
1, 29252, Note_on_c, 1, 67, 0
1, 29280, Note_on_c, 0, 83, 0
1, 29280, Note_on_c, 0, 76, 76
1, 29280, Note_on_c, 1, 71, 66
1, 29280, Note_on_c, 1, 67, 66
1, 29300, Note_on_c, 0, 76, 0
1, 29325, Note_on_c, 1, 71, 0
1, 29325, Note_on_c, 1, 67, 0
1, 29328, Note_on_c, 0, 79, 76
1, 29348, Note_on_c, 0, 79, 0
1, 29376, Note_on_c, 0, 79, 92
1, 29376, Note_on_c, 1, 69, 66
1, 29376, Note_on_c, 1, 61, 66
1, 29421, Note_on_c, 1, 69, 0
1, 29421, Note_on_c, 1, 61, 0
1, 29424, Note_on_c, 1, 69, 66
1, 29424, Note_on_c, 1, 61, 66
1, 29448, Note_on_c, 0, 79, 0
1, 29448, Note_on_c, 0, 81, 79
1, 29460, Note_on_c, 0, 81, 0
1, 29460, Note_on_c, 0, 79, 79
1, 29469, Note_on_c, 1, 69, 0
1, 29469, Note_on_c, 1, 61, 0
1, 29472, Note_on_c, 0, 79, 0
1, 29472, Note_on_c, 0, 78, 80
1, 29472, Note_on_c, 1, 69, 66
1, 29472, Note_on_c, 1, 62, 66
1, 29517, Note_on_c, 0, 78, 0
1, 29517, Note_on_c, 1, 69, 0
1, 29517, Note_on_c, 1, 62, 0
1, 29520, Note_on_c, 0, 78, 82
1, 29520, Note_on_c, 1, 69, 66
1, 29520, Note_on_c, 1, 62, 66
1, 29540, Note_on_c, 0, 78, 0
1, 29565, Note_on_c, 1, 69, 0
1, 29565, Note_on_c, 1, 62, 0
1, 29568, Note_on_c, 0, 76, 82
1, 29568, Note_on_c, 1, 69, 66
1, 29613, Note_on_c, 0, 76, 0
1, 29616, Note_on_c, 0, 73, 80
1, 29657, Note_on_c, 1, 69, 0
1, 29661, Note_on_c, 0, 73, 0
1, 29664, Note_on_c, 0, 69, 78
1, 29709, Note_on_c, 0, 69, 0
1, 29712, Note_on_c, 0, 69, 76
1, 29712, Note_on_c, 0, 66, 76
1, 29732, Note_on_c, 0, 69, 0
1, 29732, Note_on_c, 0, 66, 0
1, 29760, Note_on_c, 0, 69, 92
1, 29760, Note_on_c, 0, 66, 92
1, 29808, Note_on_c, 1, 50, 82
1, 29808, Note_on_c, 1, 38, 82
1, 29828, Note_on_c, 1, 50, 0
1, 29828, Note_on_c, 1, 38, 0
1, 29856, Note_on_c, 0, 69, 0
1, 29856, Note_on_c, 0, 62, 76
1, 29856, Note_on_c, 1, 50, 82
1, 29856, Note_on_c, 1, 38, 82
1, 29876, Note_on_c, 0, 66, 0
1, 29876, Note_on_c, 0, 62, 0
1, 29901, Note_on_c, 1, 50, 0
1, 29901, Note_on_c, 1, 38, 0
1, 29904, Note_on_c, 0, 74, 76
1, 29904, Note_on_c, 0, 66, 76
1, 29924, Note_on_c, 0, 74, 0
1, 29924, Note_on_c, 0, 66, 0
1, 29952, Note_on_c, 0, 74, 92
1, 29952, Note_on_c, 0, 66, 92
1, 30000, Note_on_c, 1, 57, 82
1, 30000, Note_on_c, 1, 45, 82
1, 30020, Note_on_c, 1, 57, 0
1, 30020, Note_on_c, 1, 45, 0
1, 30048, Note_on_c, 0, 74, 0
1, 30048, Note_on_c, 0, 66, 0
1, 30048, Note_on_c, 0, 73, 76
1, 30048, Note_on_c, 0, 64, 76
1, 30048, Note_on_c, 1, 57, 82
1, 30048, Note_on_c, 1, 45, 82
1, 30068, Note_on_c, 0, 73, 0
1, 30068, Note_on_c, 0, 64, 0
1, 30093, Note_on_c, 1, 57, 0
1, 30093, Note_on_c, 1, 45, 0
1, 30096, Note_on_c, 0, 76, 76
1, 30096, Note_on_c, 0, 73, 76
1, 30116, Note_on_c, 0, 76, 0
1, 30116, Note_on_c, 0, 73, 0
1, 30144, Note_on_c, 0, 76, 92
1, 30144, Note_on_c, 0, 73, 92
1, 30192, Note_on_c, 1, 57, 82
1, 30192, Note_on_c, 1, 45, 82
1, 30212, Note_on_c, 1, 57, 0
1, 30212, Note_on_c, 1, 45, 0
1, 30216, Note_on_c, 0, 76, 0
1, 30216, Note_on_c, 0, 73, 0
1, 30216, Note_on_c, 0, 78, 76
1, 30216, Note_on_c, 0, 74, 76
1, 30239, Note_on_c, 0, 78, 0
1, 30239, Note_on_c, 0, 74, 0
1, 30240, Note_on_c, 0, 79, 76
1, 30240, Note_on_c, 0, 76, 76
1, 30240, Note_on_c, 1, 57, 82
1, 30240, Note_on_c, 1, 45, 82
1, 30285, Note_on_c, 0, 79, 0
1, 30285, Note_on_c, 0, 76, 0
1, 30285, Note_on_c, 1, 57, 0
1, 30285, Note_on_c, 1, 45, 0
1, 30288, Note_on_c, 0, 79, 76
1, 30288, Note_on_c, 0, 76, 76
1, 30308, Note_on_c, 0, 79, 0
1, 30308, Note_on_c, 0, 76, 0
1, 30336, Note_on_c, 0, 79, 92
1, 30336, Note_on_c, 0, 76, 92
1, 30384, Note_on_c, 1, 62, 82
1, 30384, Note_on_c, 1, 50, 82
1, 30404, Note_on_c, 1, 62, 0
1, 30404, Note_on_c, 1, 50, 0
1, 30432, Note_on_c, 0, 79, 0
1, 30432, Note_on_c, 0, 76, 0
1, 30432, Note_on_c, 0, 78, 76
1, 30432, Note_on_c, 0, 74, 76
1, 30432, Note_on_c, 1, 62, 82
1, 30432, Note_on_c, 1, 50, 82
1, 30452, Note_on_c, 0, 78, 0
1, 30452, Note_on_c, 0, 74, 0
1, 30477, Note_on_c, 1, 62, 0
1, 30477, Note_on_c, 1, 50, 0
1, 30480, Note_on_c, 0, 81, 76
1, 30500, Note_on_c, 0, 81, 0
1, 30528, Note_on_c, 0, 81, 92
1, 30576, Note_on_c, 1, 66, 76
1, 30576, Note_on_c, 1, 62, 76
1, 30576, Note_on_c, 1, 60, 76
1, 30596, Note_on_c, 1, 66, 0
1, 30596, Note_on_c, 1, 62, 0
1, 30596, Note_on_c, 1, 60, 0
1, 30624, Note_on_c, 0, 81, 0
1, 30624, Note_on_c, 0, 74, 76
1, 30624, Note_on_c, 1, 66, 76
1, 30624, Note_on_c, 1, 62, 76
1, 30624, Note_on_c, 1, 60, 76
1, 30644, Note_on_c, 0, 74, 0
1, 30669, Note_on_c, 1, 66, 0
1, 30669, Note_on_c, 1, 62, 0
1, 30669, Note_on_c, 1, 60, 0
1, 30672, Note_on_c, 0, 86, 76
1, 30692, Note_on_c, 0, 86, 0
1, 30720, Note_on_c, 0, 86, 92
1, 30768, Note_on_c, 1, 67, 76
1, 30768, Note_on_c, 1, 62, 76
1, 30768, Note_on_c, 1, 59, 76
1, 30792, Note_on_c, 0, 86, 0
1, 30792, Note_on_c, 0, 83, 76
1, 30813, Note_on_c, 1, 67, 0
1, 30813, Note_on_c, 1, 62, 0
1, 30813, Note_on_c, 1, 59, 0
1, 30815, Note_on_c, 0, 83, 0
1, 30816, Note_on_c, 0, 79, 76
1, 30816, Note_on_c, 1, 67, 76
1, 30816, Note_on_c, 1, 62, 76
1, 30816, Note_on_c, 1, 59, 76
1, 30861, Note_on_c, 0, 79, 0
1, 30861, Note_on_c, 1, 67, 0
1, 30861, Note_on_c, 1, 62, 0
1, 30861, Note_on_c, 1, 59, 0
1, 30864, Note_on_c, 0, 83, 76
1, 30909, Note_on_c, 0, 83, 0
1, 30912, Note_on_c, 0, 81, 76
1, 30960, Note_on_c, 1, 66, 76
1, 30960, Note_on_c, 1, 57, 76
1, 30979, Note_on_c, 0, 81, 0
1, 30984, Note_on_c, 0, 78, 76
1, 31005, Note_on_c, 1, 66, 0
1, 31005, Note_on_c, 1, 57, 0
1, 31007, Note_on_c, 0, 78, 0
1, 31008, Note_on_c, 0, 74, 76
1, 31008, Note_on_c, 1, 66, 76
1, 31008, Note_on_c, 1, 57, 76
1, 31053, Note_on_c, 0, 74, 0
1, 31053, Note_on_c, 1, 66, 0
1, 31053, Note_on_c, 1, 57, 0
1, 31056, Note_on_c, 0, 73, 76
1, 31056, Note_on_c, 1, 64, 76
1, 31056, Note_on_c, 1, 57, 76
1, 31101, Note_on_c, 0, 73, 0
1, 31101, Note_on_c, 1, 64, 0
1, 31101, Note_on_c, 1, 57, 0
1, 31104, Note_on_c, 0, 74, 76
1, 31104, Note_on_c, 1, 62, 76
1, 31104, Note_on_c, 1, 50, 76
1, 31193, Note_on_c, 0, 74, 0
1, 31193, Note_on_c, 1, 62, 0
1, 31193, Note_on_c, 1, 50, 0
1, 31248, Note_on_c, 0, 74, 76
1, 31293, Note_on_c, 0, 74, 0
1, 31296, Note_on_c, 0, 79, 76
1, 31296, Note_on_c, 1, 71, 70
1, 31296, Note_on_c, 1, 67, 70
1, 31319, Note_on_c, 0, 79, 0
1, 31320, Note_on_c, 0, 78, 76
1, 31343, Note_on_c, 0, 78, 0
1, 31344, Note_on_c, 0, 81, 76
1, 31367, Note_on_c, 0, 81, 0
1, 31368, Note_on_c, 0, 79, 76
1, 31385, Note_on_c, 1, 71, 0
1, 31385, Note_on_c, 1, 67, 0
1, 31391, Note_on_c, 0, 79, 0
1, 31392, Note_on_c, 0, 83, 76
1, 31437, Note_on_c, 0, 83, 0
1, 31440, Note_on_c, 0, 79, 76
1, 31440, Note_on_c, 1, 71, 70
1, 31440, Note_on_c, 1, 67, 70
1, 31485, Note_on_c, 0, 79, 0
1, 31485, Note_on_c, 1, 71, 0
1, 31485, Note_on_c, 1, 67, 0
1, 31488, Note_on_c, 0, 78, 76
1, 31488, Note_on_c, 1, 69, 70
1, 31488, Note_on_c, 1, 62, 70
1, 31533, Note_on_c, 0, 78, 0
1, 31536, Note_on_c, 0, 81, 76
1, 31577, Note_on_c, 1, 69, 0
1, 31577, Note_on_c, 1, 62, 0
1, 31581, Note_on_c, 0, 81, 0
1, 31584, Note_on_c, 0, 74, 76
1, 31629, Note_on_c, 0, 74, 0
1, 31632, Note_on_c, 0, 86, 76
1, 31632, Note_on_c, 1, 69, 70
1, 31632, Note_on_c, 1, 62, 70
1, 31677, Note_on_c, 0, 86, 0
1, 31677, Note_on_c, 1, 69, 0
1, 31677, Note_on_c, 1, 62, 0
1, 31680, Note_on_c, 1, 71, 70
1, 31680, Note_on_c, 1, 67, 70
1, 31725, Note_on_c, 1, 71, 0
1, 31725, Note_on_c, 1, 67, 0
1, 31728, Note_on_c, 0, 83, 76
1, 31728, Note_on_c, 0, 79, 76
1, 31773, Note_on_c, 0, 83, 0
1, 31773, Note_on_c, 0, 79, 0
1, 31776, Note_on_c, 1, 60, 70
1, 31821, Note_on_c, 1, 60, 0
1, 31824, Note_on_c, 0, 84, 80
1, 31824, Note_on_c, 0, 81, 80
1, 31869, Note_on_c, 0, 84, 0
1, 31869, Note_on_c, 0, 81, 0
1, 31872, Note_on_c, 1, 62, 70
1, 31920, Note_on_c, 0, 83, 82
1, 31920, Note_on_c, 0, 79, 82
1, 31961, Note_on_c, 1, 62, 0
1, 31968, Note_on_c, 0, 83, 0
1, 31968, Note_on_c, 0, 79, 0
1, 31968, Note_on_c, 0, 81, 80
1, 31968, Note_on_c, 0, 78, 80
1, 32013, Note_on_c, 0, 81, 0
1, 32013, Note_on_c, 0, 78, 0
1, 32016, Note_on_c, 0, 74, 78
1, 32061, Note_on_c, 0, 74, 0
1, 32064, Note_on_c, 0, 79, 76
1, 32064, Note_on_c, 1, 71, 70
1, 32064, Note_on_c, 1, 67, 70
1, 32087, Note_on_c, 0, 79, 0
1, 32088, Note_on_c, 0, 78, 76
1, 32111, Note_on_c, 0, 78, 0
1, 32112, Note_on_c, 0, 81, 76
1, 32135, Note_on_c, 0, 81, 0
1, 32136, Note_on_c, 0, 79, 76
1, 32153, Note_on_c, 1, 71, 0
1, 32153, Note_on_c, 1, 67, 0
1, 32159, Note_on_c, 0, 79, 0
1, 32160, Note_on_c, 0, 83, 76
1, 32205, Note_on_c, 0, 83, 0
1, 32208, Note_on_c, 0, 79, 76
1, 32208, Note_on_c, 1, 71, 70
1, 32208, Note_on_c, 1, 67, 70
1, 32253, Note_on_c, 0, 79, 0
1, 32253, Note_on_c, 1, 71, 0
1, 32253, Note_on_c, 1, 67, 0
1, 32256, Note_on_c, 0, 78, 76
1, 32256, Note_on_c, 1, 69, 70
1, 32256, Note_on_c, 1, 62, 70
1, 32301, Note_on_c, 0, 78, 0
1, 32304, Note_on_c, 0, 81, 76
1, 32345, Note_on_c, 1, 69, 0
1, 32345, Note_on_c, 1, 62, 0
1, 32349, Note_on_c, 0, 81, 0
1, 32352, Note_on_c, 0, 74, 76
1, 32397, Note_on_c, 0, 74, 0
1, 32400, Note_on_c, 0, 86, 76
1, 32400, Note_on_c, 1, 69, 70
1, 32400, Note_on_c, 1, 62, 70
1, 32445, Note_on_c, 0, 86, 0
1, 32445, Note_on_c, 1, 69, 0
1, 32445, Note_on_c, 1, 62, 0
1, 32448, Note_on_c, 1, 71, 70
1, 32448, Note_on_c, 1, 67, 70
1, 32493, Note_on_c, 1, 71, 0
1, 32493, Note_on_c, 1, 67, 0
1, 32496, Note_on_c, 0, 83, 76
1, 32496, Note_on_c, 0, 79, 76
1, 32541, Note_on_c, 0, 83, 0
1, 32541, Note_on_c, 0, 79, 0
1, 32544, Note_on_c, 1, 62, 70
1, 32589, Note_on_c, 1, 62, 0
1, 32592, Note_on_c, 0, 81, 76
1, 32592, Note_on_c, 0, 72, 76
1, 32637, Note_on_c, 0, 81, 0
1, 32637, Note_on_c, 0, 72, 0
1, 32640, Note_on_c, 1, 55, 70
1, 32688, Note_on_c, 0, 79, 76
1, 32688, Note_on_c, 0, 71, 76
1, 32729, Note_on_c, 1, 55, 0
1, 32733, Note_on_c, 0, 79, 0
1, 32733, Note_on_c, 0, 71, 0
1, 32784, Note_on_c, 0, 74, 76
1, 32829, Note_on_c, 0, 74, 0
1, 32832, Note_on_c, 0, 79, 76
1, 32832, Note_on_c, 1, 71, 70
1, 32832, Note_on_c, 1, 67, 70
1, 32855, Note_on_c, 0, 79, 0
1, 32856, Note_on_c, 0, 78, 76
1, 32879, Note_on_c, 0, 78, 0
1, 32880, Note_on_c, 0, 81, 76
1, 32903, Note_on_c, 0, 81, 0
1, 32904, Note_on_c, 0, 79, 76
1, 32921, Note_on_c, 1, 71, 0
1, 32921, Note_on_c, 1, 67, 0
1, 32927, Note_on_c, 0, 79, 0
1, 32928, Note_on_c, 0, 83, 76
1, 32973, Note_on_c, 0, 83, 0
1, 32976, Note_on_c, 0, 79, 76
1, 32976, Note_on_c, 1, 71, 70
1, 32976, Note_on_c, 1, 67, 70
1, 33021, Note_on_c, 0, 79, 0
1, 33021, Note_on_c, 1, 71, 0
1, 33021, Note_on_c, 1, 67, 0
1, 33024, Note_on_c, 0, 78, 76
1, 33024, Note_on_c, 1, 69, 70
1, 33024, Note_on_c, 1, 62, 70
1, 33069, Note_on_c, 0, 78, 0
1, 33072, Note_on_c, 0, 81, 76
1, 33113, Note_on_c, 1, 69, 0
1, 33113, Note_on_c, 1, 62, 0
1, 33117, Note_on_c, 0, 81, 0
1, 33120, Note_on_c, 0, 74, 76
1, 33165, Note_on_c, 0, 74, 0
1, 33168, Note_on_c, 0, 86, 76
1, 33168, Note_on_c, 1, 69, 70
1, 33168, Note_on_c, 1, 62, 70
1, 33213, Note_on_c, 0, 86, 0
1, 33213, Note_on_c, 1, 69, 0
1, 33213, Note_on_c, 1, 62, 0
1, 33216, Note_on_c, 1, 71, 70
1, 33216, Note_on_c, 1, 67, 70
1, 33261, Note_on_c, 1, 71, 0
1, 33261, Note_on_c, 1, 67, 0
1, 33264, Note_on_c, 0, 83, 76
1, 33264, Note_on_c, 0, 79, 76
1, 33309, Note_on_c, 0, 83, 0
1, 33309, Note_on_c, 0, 79, 0
1, 33312, Note_on_c, 1, 60, 70
1, 33357, Note_on_c, 1, 60, 0
1, 33360, Note_on_c, 0, 84, 80
1, 33360, Note_on_c, 0, 81, 80
1, 33405, Note_on_c, 0, 84, 0
1, 33405, Note_on_c, 0, 81, 0
1, 33408, Note_on_c, 1, 62, 70
1, 33456, Note_on_c, 0, 83, 82
1, 33456, Note_on_c, 0, 79, 82
1, 33497, Note_on_c, 1, 62, 0
1, 33504, Note_on_c, 0, 83, 0
1, 33504, Note_on_c, 0, 79, 0
1, 33504, Note_on_c, 0, 81, 80
1, 33504, Note_on_c, 0, 78, 80
1, 33549, Note_on_c, 0, 81, 0
1, 33549, Note_on_c, 0, 78, 0
1, 33552, Note_on_c, 0, 74, 78
1, 33597, Note_on_c, 0, 74, 0
1, 33600, Note_on_c, 0, 79, 76
1, 33600, Note_on_c, 1, 71, 70
1, 33600, Note_on_c, 1, 67, 70
1, 33623, Note_on_c, 0, 79, 0
1, 33624, Note_on_c, 0, 78, 76
1, 33647, Note_on_c, 0, 78, 0
1, 33648, Note_on_c, 0, 81, 76
1, 33671, Note_on_c, 0, 81, 0
1, 33672, Note_on_c, 0, 79, 76
1, 33689, Note_on_c, 1, 71, 0
1, 33689, Note_on_c, 1, 67, 0
1, 33695, Note_on_c, 0, 79, 0
1, 33696, Note_on_c, 0, 83, 76
1, 33741, Note_on_c, 0, 83, 0
1, 33744, Note_on_c, 0, 79, 76
1, 33744, Note_on_c, 1, 71, 70
1, 33744, Note_on_c, 1, 67, 70
1, 33789, Note_on_c, 0, 79, 0
1, 33789, Note_on_c, 1, 71, 0
1, 33789, Note_on_c, 1, 67, 0
1, 33792, Note_on_c, 0, 78, 76
1, 33792, Note_on_c, 1, 69, 70
1, 33792, Note_on_c, 1, 62, 70
1, 33837, Note_on_c, 0, 78, 0
1, 33840, Note_on_c, 0, 81, 76
1, 33881, Note_on_c, 1, 69, 0
1, 33881, Note_on_c, 1, 62, 0
1, 33885, Note_on_c, 0, 81, 0
1, 33888, Note_on_c, 0, 74, 76
1, 33933, Note_on_c, 0, 74, 0
1, 33936, Note_on_c, 0, 86, 76
1, 33936, Note_on_c, 1, 69, 70
1, 33936, Note_on_c, 1, 62, 70
1, 33981, Note_on_c, 0, 86, 0
1, 33981, Note_on_c, 1, 69, 0
1, 33981, Note_on_c, 1, 62, 0
1, 33984, Note_on_c, 1, 71, 70
1, 33984, Note_on_c, 1, 67, 70
1, 34029, Note_on_c, 1, 71, 0
1, 34029, Note_on_c, 1, 67, 0
1, 34032, Note_on_c, 0, 83, 76
1, 34032, Note_on_c, 0, 79, 76
1, 34077, Note_on_c, 0, 83, 0
1, 34077, Note_on_c, 0, 79, 0
1, 34080, Note_on_c, 1, 62, 70
1, 34125, Note_on_c, 1, 62, 0
1, 34128, Note_on_c, 0, 81, 76
1, 34128, Note_on_c, 0, 72, 76
1, 34173, Note_on_c, 0, 81, 0
1, 34173, Note_on_c, 0, 72, 0
1, 34176, Note_on_c, 1, 55, 70
1, 34224, Note_on_c, 0, 79, 76
1, 34224, Note_on_c, 0, 71, 76
1, 34265, Note_on_c, 1, 55, 0
1, 34269, Note_on_c, 0, 79, 0
1, 34269, Note_on_c, 0, 71, 0
1, 34320, Note_on_c, 0, 83, 76
1, 34320, Note_on_c, 1, 74, 70
1, 34320, Note_on_c, 1, 67, 70
1, 34365, Note_on_c, 0, 83, 0
1, 34365, Note_on_c, 1, 74, 0
1, 34365, Note_on_c, 1, 67, 0
1, 34368, Note_on_c, 0, 84, 76
1, 34368, Note_on_c, 1, 74, 70
1, 34368, Note_on_c, 1, 66, 70
1, 34391, Note_on_c, 0, 84, 0
1, 34392, Note_on_c, 0, 86, 76
1, 34415, Note_on_c, 0, 86, 0
1, 34416, Note_on_c, 0, 83, 76
1, 34439, Note_on_c, 0, 83, 0
1, 34440, Note_on_c, 0, 84, 76
1, 34457, Note_on_c, 1, 74, 0
1, 34457, Note_on_c, 1, 66, 0
1, 34463, Note_on_c, 0, 84, 0
1, 34464, Note_on_c, 0, 81, 76
1, 34509, Note_on_c, 0, 81, 0
1, 34512, Note_on_c, 0, 84, 76
1, 34512, Note_on_c, 1, 74, 70
1, 34512, Note_on_c, 1, 66, 70
1, 34557, Note_on_c, 0, 84, 0
1, 34557, Note_on_c, 1, 74, 0
1, 34557, Note_on_c, 1, 66, 0
1, 34560, Note_on_c, 0, 83, 76
1, 34560, Note_on_c, 1, 74, 70
1, 34560, Note_on_c, 1, 67, 70
1, 34583, Note_on_c, 0, 83, 0
1, 34584, Note_on_c, 0, 84, 76
1, 34607, Note_on_c, 0, 84, 0
1, 34608, Note_on_c, 0, 81, 76
1, 34631, Note_on_c, 0, 81, 0
1, 34632, Note_on_c, 0, 83, 76
1, 34649, Note_on_c, 1, 74, 0
1, 34649, Note_on_c, 1, 67, 0
1, 34655, Note_on_c, 0, 83, 0
1, 34656, Note_on_c, 0, 79, 76
1, 34701, Note_on_c, 0, 79, 0
1, 34704, Note_on_c, 0, 83, 76
1, 34704, Note_on_c, 1, 67, 70
1, 34749, Note_on_c, 0, 83, 0
1, 34749, Note_on_c, 1, 67, 0
1, 34752, Note_on_c, 0, 81, 76
1, 34752, Note_on_c, 1, 64, 70
1, 34752, Note_on_c, 1, 60, 70
1, 34775, Note_on_c, 0, 81, 0
1, 34776, Note_on_c, 0, 83, 76
1, 34797, Note_on_c, 1, 64, 0
1, 34797, Note_on_c, 1, 60, 0
1, 34799, Note_on_c, 0, 83, 0
1, 34800, Note_on_c, 0, 81, 77
1, 34800, Note_on_c, 1, 64, 71
1, 34800, Note_on_c, 1, 60, 71
1, 34823, Note_on_c, 0, 81, 0
1, 34824, Note_on_c, 0, 83, 78
1, 34845, Note_on_c, 1, 64, 0
1, 34845, Note_on_c, 1, 60, 0
1, 34847, Note_on_c, 0, 83, 0
1, 34848, Note_on_c, 0, 79, 79
1, 34848, Note_on_c, 1, 64, 73
1, 34848, Note_on_c, 1, 61, 73
1, 34871, Note_on_c, 0, 79, 0
1, 34872, Note_on_c, 0, 81, 79
1, 34893, Note_on_c, 1, 64, 0
1, 34893, Note_on_c, 1, 61, 0
1, 34895, Note_on_c, 0, 81, 0
1, 34896, Note_on_c, 0, 79, 80
1, 34896, Note_on_c, 1, 64, 74
1, 34896, Note_on_c, 1, 61, 74
1, 34919, Note_on_c, 0, 79, 0
1, 34920, Note_on_c, 0, 81, 81
1, 34941, Note_on_c, 1, 64, 0
1, 34941, Note_on_c, 1, 61, 0
1, 34943, Note_on_c, 0, 81, 0
1, 34944, Note_on_c, 0, 78, 82
1, 34944, Note_on_c, 1, 62, 76
1, 34967, Note_on_c, 0, 78, 0
1, 34968, Note_on_c, 0, 79, 82
1, 34991, Note_on_c, 0, 79, 0
1, 34992, Note_on_c, 0, 76, 82
1, 35015, Note_on_c, 0, 76, 0
1, 35016, Note_on_c, 0, 78, 82
1, 35033, Note_on_c, 1, 62, 0
1, 35039, Note_on_c, 0, 78, 0
1, 35040, Note_on_c, 0, 74, 82
1, 35085, Note_on_c, 0, 74, 0
1, 35088, Note_on_c, 0, 74, 76
1, 35133, Note_on_c, 0, 74, 0
1, 35136, Note_on_c, 0, 79, 76
1, 35136, Note_on_c, 1, 71, 70
1, 35136, Note_on_c, 1, 67, 70
1, 35159, Note_on_c, 0, 79, 0
1, 35160, Note_on_c, 0, 78, 76
1, 35183, Note_on_c, 0, 78, 0
1, 35184, Note_on_c, 0, 81, 76
1, 35207, Note_on_c, 0, 81, 0
1, 35208, Note_on_c, 0, 79, 76
1, 35225, Note_on_c, 1, 71, 0
1, 35225, Note_on_c, 1, 67, 0
1, 35231, Note_on_c, 0, 79, 0
1, 35232, Note_on_c, 0, 83, 76
1, 35277, Note_on_c, 0, 83, 0
1, 35280, Note_on_c, 0, 79, 76
1, 35280, Note_on_c, 1, 71, 70
1, 35280, Note_on_c, 1, 67, 70
1, 35325, Note_on_c, 0, 79, 0
1, 35325, Note_on_c, 1, 71, 0
1, 35325, Note_on_c, 1, 67, 0
1, 35328, Note_on_c, 0, 78, 76
1, 35328, Note_on_c, 1, 69, 70
1, 35328, Note_on_c, 1, 62, 70
1, 35373, Note_on_c, 0, 78, 0
1, 35376, Note_on_c, 0, 81, 76
1, 35417, Note_on_c, 1, 69, 0
1, 35417, Note_on_c, 1, 62, 0
1, 35421, Note_on_c, 0, 81, 0
1, 35424, Note_on_c, 0, 74, 76
1, 35469, Note_on_c, 0, 74, 0
1, 35472, Note_on_c, 0, 86, 76
1, 35472, Note_on_c, 1, 69, 70
1, 35472, Note_on_c, 1, 62, 70
1, 35517, Note_on_c, 0, 86, 0
1, 35517, Note_on_c, 1, 69, 0
1, 35517, Note_on_c, 1, 62, 0
1, 35520, Note_on_c, 1, 71, 70
1, 35520, Note_on_c, 1, 67, 70
1, 35565, Note_on_c, 1, 71, 0
1, 35565, Note_on_c, 1, 67, 0
1, 35568, Note_on_c, 0, 83, 76
1, 35568, Note_on_c, 0, 79, 76
1, 35613, Note_on_c, 0, 83, 0
1, 35613, Note_on_c, 0, 79, 0
1, 35616, Note_on_c, 1, 60, 70
1, 35661, Note_on_c, 1, 60, 0
1, 35664, Note_on_c, 0, 84, 80
1, 35664, Note_on_c, 0, 81, 80
1, 35709, Note_on_c, 0, 84, 0
1, 35709, Note_on_c, 0, 81, 0
1, 35712, Note_on_c, 1, 62, 70
1, 35760, Note_on_c, 0, 83, 82
1, 35760, Note_on_c, 0, 79, 82
1, 35801, Note_on_c, 1, 62, 0
1, 35808, Note_on_c, 0, 83, 0
1, 35808, Note_on_c, 0, 79, 0
1, 35808, Note_on_c, 0, 81, 80
1, 35808, Note_on_c, 0, 78, 80
1, 35853, Note_on_c, 0, 81, 0
1, 35853, Note_on_c, 0, 78, 0
1, 35856, Note_on_c, 0, 74, 78
1, 35901, Note_on_c, 0, 74, 0
1, 35904, Note_on_c, 0, 79, 76
1, 35904, Note_on_c, 1, 71, 70
1, 35904, Note_on_c, 1, 67, 70
1, 35927, Note_on_c, 0, 79, 0
1, 35928, Note_on_c, 0, 78, 76
1, 35951, Note_on_c, 0, 78, 0
1, 35952, Note_on_c, 0, 81, 76
1, 35975, Note_on_c, 0, 81, 0
1, 35976, Note_on_c, 0, 79, 76
1, 35993, Note_on_c, 1, 71, 0
1, 35993, Note_on_c, 1, 67, 0
1, 35999, Note_on_c, 0, 79, 0
1, 36000, Note_on_c, 0, 83, 76
1, 36045, Note_on_c, 0, 83, 0
1, 36048, Note_on_c, 0, 79, 76
1, 36048, Note_on_c, 1, 71, 70
1, 36048, Note_on_c, 1, 67, 70
1, 36093, Note_on_c, 0, 79, 0
1, 36093, Note_on_c, 1, 71, 0
1, 36093, Note_on_c, 1, 67, 0
1, 36096, Note_on_c, 0, 78, 76
1, 36096, Note_on_c, 1, 69, 70
1, 36096, Note_on_c, 1, 62, 70
1, 36141, Note_on_c, 0, 78, 0
1, 36144, Note_on_c, 0, 81, 76
1, 36185, Note_on_c, 1, 69, 0
1, 36185, Note_on_c, 1, 62, 0
1, 36189, Note_on_c, 0, 81, 0
1, 36192, Note_on_c, 0, 74, 76
1, 36237, Note_on_c, 0, 74, 0
1, 36240, Note_on_c, 0, 86, 76
1, 36240, Note_on_c, 1, 69, 70
1, 36240, Note_on_c, 1, 62, 70
1, 36285, Note_on_c, 0, 86, 0
1, 36285, Note_on_c, 1, 69, 0
1, 36285, Note_on_c, 1, 62, 0
1, 36288, Note_on_c, 1, 71, 70
1, 36288, Note_on_c, 1, 67, 70
1, 36333, Note_on_c, 1, 71, 0
1, 36333, Note_on_c, 1, 67, 0
1, 36336, Note_on_c, 0, 83, 76
1, 36336, Note_on_c, 0, 79, 76
1, 36381, Note_on_c, 0, 83, 0
1, 36381, Note_on_c, 0, 79, 0
1, 36384, Note_on_c, 1, 62, 70
1, 36429, Note_on_c, 1, 62, 0
1, 36432, Note_on_c, 0, 81, 76
1, 36432, Note_on_c, 0, 72, 76
1, 36477, Note_on_c, 0, 81, 0
1, 36477, Note_on_c, 0, 72, 0
1, 36480, Note_on_c, 1, 55, 70
1, 36528, Note_on_c, 0, 79, 76
1, 36528, Note_on_c, 0, 71, 76
1, 36569, Note_on_c, 1, 55, 0
1, 36573, Note_on_c, 0, 79, 0
1, 36573, Note_on_c, 0, 71, 0
1, 36624, Note_on_c, 0, 83, 76
1, 36624, Note_on_c, 1, 74, 70
1, 36624, Note_on_c, 1, 67, 70
1, 36669, Note_on_c, 0, 83, 0
1, 36669, Note_on_c, 1, 74, 0
1, 36669, Note_on_c, 1, 67, 0
1, 36672, Note_on_c, 0, 84, 76
1, 36672, Note_on_c, 1, 74, 70
1, 36672, Note_on_c, 1, 66, 70
1, 36695, Note_on_c, 0, 84, 0
1, 36696, Note_on_c, 0, 86, 76
1, 36719, Note_on_c, 0, 86, 0
1, 36720, Note_on_c, 0, 83, 76
1, 36743, Note_on_c, 0, 83, 0
1, 36744, Note_on_c, 0, 84, 76
1, 36761, Note_on_c, 1, 74, 0
1, 36761, Note_on_c, 1, 66, 0
1, 36767, Note_on_c, 0, 84, 0
1, 36768, Note_on_c, 0, 81, 76
1, 36813, Note_on_c, 0, 81, 0
1, 36816, Note_on_c, 0, 84, 76
1, 36816, Note_on_c, 1, 74, 70
1, 36816, Note_on_c, 1, 66, 70
1, 36861, Note_on_c, 0, 84, 0
1, 36861, Note_on_c, 1, 74, 0
1, 36861, Note_on_c, 1, 66, 0
1, 36864, Note_on_c, 0, 83, 76
1, 36864, Note_on_c, 1, 74, 70
1, 36864, Note_on_c, 1, 67, 70
1, 36887, Note_on_c, 0, 83, 0
1, 36888, Note_on_c, 0, 84, 76
1, 36911, Note_on_c, 0, 84, 0
1, 36912, Note_on_c, 0, 81, 76
1, 36935, Note_on_c, 0, 81, 0
1, 36936, Note_on_c, 0, 83, 76
1, 36953, Note_on_c, 1, 74, 0
1, 36953, Note_on_c, 1, 67, 0
1, 36959, Note_on_c, 0, 83, 0
1, 36960, Note_on_c, 0, 79, 76
1, 37005, Note_on_c, 0, 79, 0
1, 37008, Note_on_c, 0, 83, 76
1, 37008, Note_on_c, 1, 67, 70
1, 37053, Note_on_c, 0, 83, 0
1, 37053, Note_on_c, 1, 67, 0
1, 37056, Note_on_c, 0, 81, 76
1, 37056, Note_on_c, 1, 64, 70
1, 37056, Note_on_c, 1, 60, 70
1, 37079, Note_on_c, 0, 81, 0
1, 37080, Note_on_c, 0, 83, 76
1, 37101, Note_on_c, 1, 64, 0
1, 37101, Note_on_c, 1, 60, 0
1, 37103, Note_on_c, 0, 83, 0
1, 37104, Note_on_c, 0, 81, 77
1, 37104, Note_on_c, 1, 64, 71
1, 37104, Note_on_c, 1, 60, 71
1, 37127, Note_on_c, 0, 81, 0
1, 37128, Note_on_c, 0, 83, 78
1, 37149, Note_on_c, 1, 64, 0
1, 37149, Note_on_c, 1, 60, 0
1, 37151, Note_on_c, 0, 83, 0
1, 37152, Note_on_c, 0, 79, 79
1, 37152, Note_on_c, 1, 64, 73
1, 37152, Note_on_c, 1, 61, 73
1, 37175, Note_on_c, 0, 79, 0
1, 37176, Note_on_c, 0, 81, 79
1, 37197, Note_on_c, 1, 64, 0
1, 37197, Note_on_c, 1, 61, 0
1, 37199, Note_on_c, 0, 81, 0
1, 37200, Note_on_c, 0, 79, 80
1, 37200, Note_on_c, 1, 64, 74
1, 37200, Note_on_c, 1, 61, 74
1, 37223, Note_on_c, 0, 79, 0
1, 37224, Note_on_c, 0, 81, 81
1, 37245, Note_on_c, 1, 64, 0
1, 37245, Note_on_c, 1, 61, 0
1, 37247, Note_on_c, 0, 81, 0
1, 37248, Note_on_c, 0, 78, 82
1, 37248, Note_on_c, 1, 62, 76
1, 37271, Note_on_c, 0, 78, 0
1, 37272, Note_on_c, 0, 79, 82
1, 37295, Note_on_c, 0, 79, 0
1, 37296, Note_on_c, 0, 76, 82
1, 37319, Note_on_c, 0, 76, 0
1, 37320, Note_on_c, 0, 78, 82
1, 37337, Note_on_c, 1, 62, 0
1, 37343, Note_on_c, 0, 78, 0
1, 37344, Note_on_c, 0, 74, 82
1, 37389, Note_on_c, 0, 74, 0
1, 37392, Note_on_c, 0, 74, 76
1, 37437, Note_on_c, 0, 74, 0
1, 37440, Note_on_c, 0, 79, 76
1, 37440, Note_on_c, 1, 71, 70
1, 37440, Note_on_c, 1, 67, 70
1, 37463, Note_on_c, 0, 79, 0
1, 37464, Note_on_c, 0, 78, 76
1, 37487, Note_on_c, 0, 78, 0
1, 37488, Note_on_c, 0, 81, 76
1, 37511, Note_on_c, 0, 81, 0
1, 37512, Note_on_c, 0, 79, 76
1, 37529, Note_on_c, 1, 71, 0
1, 37529, Note_on_c, 1, 67, 0
1, 37535, Note_on_c, 0, 79, 0
1, 37536, Note_on_c, 0, 83, 76
1, 37581, Note_on_c, 0, 83, 0
1, 37584, Note_on_c, 0, 79, 76
1, 37584, Note_on_c, 1, 71, 70
1, 37584, Note_on_c, 1, 67, 70
1, 37629, Note_on_c, 0, 79, 0
1, 37629, Note_on_c, 1, 71, 0
1, 37629, Note_on_c, 1, 67, 0
1, 37632, Note_on_c, 0, 78, 76
1, 37632, Note_on_c, 1, 69, 70
1, 37632, Note_on_c, 1, 62, 70
1, 37677, Note_on_c, 0, 78, 0
1, 37680, Note_on_c, 0, 81, 76
1, 37721, Note_on_c, 1, 69, 0
1, 37721, Note_on_c, 1, 62, 0
1, 37725, Note_on_c, 0, 81, 0
1, 37728, Note_on_c, 0, 74, 76
1, 37773, Note_on_c, 0, 74, 0
1, 37776, Note_on_c, 0, 86, 76
1, 37776, Note_on_c, 1, 69, 70
1, 37776, Note_on_c, 1, 62, 70
1, 37821, Note_on_c, 0, 86, 0
1, 37821, Note_on_c, 1, 69, 0
1, 37821, Note_on_c, 1, 62, 0
1, 37824, Note_on_c, 1, 71, 70
1, 37824, Note_on_c, 1, 67, 70
1, 37869, Note_on_c, 1, 71, 0
1, 37869, Note_on_c, 1, 67, 0
1, 37872, Note_on_c, 0, 83, 76
1, 37872, Note_on_c, 0, 79, 76
1, 37917, Note_on_c, 0, 83, 0
1, 37917, Note_on_c, 0, 79, 0
1, 37920, Note_on_c, 1, 60, 70
1, 37965, Note_on_c, 1, 60, 0
1, 37968, Note_on_c, 0, 84, 80
1, 37968, Note_on_c, 0, 81, 80
1, 38013, Note_on_c, 0, 84, 0
1, 38013, Note_on_c, 0, 81, 0
1, 38016, Note_on_c, 1, 62, 70
1, 38064, Note_on_c, 0, 83, 82
1, 38064, Note_on_c, 0, 79, 82
1, 38105, Note_on_c, 1, 62, 0
1, 38112, Note_on_c, 0, 83, 0
1, 38112, Note_on_c, 0, 79, 0
1, 38112, Note_on_c, 0, 81, 80
1, 38112, Note_on_c, 0, 78, 80
1, 38157, Note_on_c, 0, 81, 0
1, 38157, Note_on_c, 0, 78, 0
1, 38160, Note_on_c, 0, 74, 78
1, 38205, Note_on_c, 0, 74, 0
1, 38208, Note_on_c, 0, 79, 76
1, 38208, Note_on_c, 1, 71, 70
1, 38208, Note_on_c, 1, 67, 70
1, 38231, Note_on_c, 0, 79, 0
1, 38232, Note_on_c, 0, 78, 76
1, 38255, Note_on_c, 0, 78, 0
1, 38256, Note_on_c, 0, 81, 76
1, 38279, Note_on_c, 0, 81, 0
1, 38280, Note_on_c, 0, 79, 76
1, 38297, Note_on_c, 1, 71, 0
1, 38297, Note_on_c, 1, 67, 0
1, 38303, Note_on_c, 0, 79, 0
1, 38304, Note_on_c, 0, 83, 76
1, 38349, Note_on_c, 0, 83, 0
1, 38352, Note_on_c, 0, 79, 76
1, 38352, Note_on_c, 1, 71, 70
1, 38352, Note_on_c, 1, 67, 70
1, 38397, Note_on_c, 0, 79, 0
1, 38397, Note_on_c, 1, 71, 0
1, 38397, Note_on_c, 1, 67, 0
1, 38400, Note_on_c, 0, 78, 76
1, 38400, Note_on_c, 1, 69, 70
1, 38400, Note_on_c, 1, 62, 70
1, 38445, Note_on_c, 0, 78, 0
1, 38448, Note_on_c, 0, 81, 76
1, 38489, Note_on_c, 1, 69, 0
1, 38489, Note_on_c, 1, 62, 0
1, 38493, Note_on_c, 0, 81, 0
1, 38496, Note_on_c, 0, 74, 76
1, 38541, Note_on_c, 0, 74, 0
1, 38544, Note_on_c, 0, 86, 76
1, 38544, Note_on_c, 1, 69, 70
1, 38544, Note_on_c, 1, 62, 70
1, 38589, Note_on_c, 0, 86, 0
1, 38589, Note_on_c, 1, 69, 0
1, 38589, Note_on_c, 1, 62, 0
1, 38592, Note_on_c, 1, 71, 70
1, 38592, Note_on_c, 1, 67, 70
1, 38637, Note_on_c, 1, 71, 0
1, 38637, Note_on_c, 1, 67, 0
1, 38640, Note_on_c, 0, 83, 76
1, 38640, Note_on_c, 0, 79, 76
1, 38685, Note_on_c, 0, 83, 0
1, 38685, Note_on_c, 0, 79, 0
1, 38688, Note_on_c, 1, 62, 70
1, 38733, Note_on_c, 1, 62, 0
1, 38736, Note_on_c, 0, 81, 76
1, 38736, Note_on_c, 0, 72, 76
1, 38781, Note_on_c, 0, 81, 0
1, 38781, Note_on_c, 0, 72, 0
1, 38784, Note_on_c, 1, 55, 70
1, 38832, Note_on_c, 0, 79, 76
1, 38873, Note_on_c, 1, 55, 0
1, 38877, Note_on_c, 0, 79, 0
1, 38928, Note_on_c, 0, 86, 76
1, 38928, Note_on_c, 0, 83, 76
1, 38948, Note_on_c, 0, 86, 0
1, 38948, Note_on_c, 0, 83, 0
1, 38976, Note_on_c, 0, 83, 76
1, 38976, Note_on_c, 0, 79, 76
1, 38996, Note_on_c, 0, 83, 0
1, 38996, Note_on_c, 0, 79, 0
1, 39024, Note_on_c, 1, 67, 70
1, 39044, Note_on_c, 1, 67, 0
1, 39072, Note_on_c, 0, 81, 76
1, 39072, Note_on_c, 0, 78, 76
1, 39092, Note_on_c, 0, 81, 0
1, 39092, Note_on_c, 0, 78, 0
1, 39120, Note_on_c, 1, 63, 70
1, 39140, Note_on_c, 1, 63, 0
1, 39168, Note_on_c, 0, 81, 76
1, 39168, Note_on_c, 0, 78, 76
1, 39216, Note_on_c, 0, 81, 0
1, 39216, Note_on_c, 0, 78, 0
1, 39216, Note_on_c, 0, 79, 76
1, 39216, Note_on_c, 0, 76, 76
1, 39216, Note_on_c, 1, 64, 70
1, 39261, Note_on_c, 0, 79, 0
1, 39261, Note_on_c, 0, 76, 0
1, 39261, Note_on_c, 1, 64, 0
1, 39264, Note_on_c, 1, 52, 70
1, 39309, Note_on_c, 1, 52, 0
1, 39312, Note_on_c, 0, 83, 76
1, 39312, Note_on_c, 0, 79, 76
1, 39332, Note_on_c, 0, 83, 0
1, 39332, Note_on_c, 0, 79, 0
1, 39360, Note_on_c, 0, 81, 76
1, 39360, Note_on_c, 0, 78, 76
1, 39380, Note_on_c, 0, 81, 0
1, 39380, Note_on_c, 0, 78, 0
1, 39408, Note_on_c, 1, 57, 70
1, 39428, Note_on_c, 1, 57, 0
1, 39456, Note_on_c, 0, 79, 76
1, 39456, Note_on_c, 0, 76, 76
1, 39476, Note_on_c, 0, 79, 0
1, 39476, Note_on_c, 0, 76, 0
1, 39504, Note_on_c, 1, 61, 70
1, 39524, Note_on_c, 1, 61, 0
1, 39552, Note_on_c, 0, 79, 76
1, 39552, Note_on_c, 0, 76, 76
1, 39600, Note_on_c, 0, 79, 0
1, 39600, Note_on_c, 0, 76, 0
1, 39600, Note_on_c, 0, 78, 76
1, 39600, Note_on_c, 0, 74, 76
1, 39600, Note_on_c, 1, 62, 70
1, 39645, Note_on_c, 0, 78, 0
1, 39645, Note_on_c, 0, 74, 0
1, 39645, Note_on_c, 1, 62, 0
1, 39648, Note_on_c, 1, 50, 70
1, 39693, Note_on_c, 1, 50, 0
1, 39696, Note_on_c, 0, 81, 76
1, 39716, Note_on_c, 0, 81, 0
1, 39744, Note_on_c, 0, 86, 76
1, 39764, Note_on_c, 0, 86, 0
1, 39792, Note_on_c, 1, 68, 70
1, 39792, Note_on_c, 1, 62, 70
1, 39792, Note_on_c, 1, 59, 70
1, 39812, Note_on_c, 1, 68, 0
1, 39812, Note_on_c, 1, 62, 0
1, 39812, Note_on_c, 1, 59, 0
1, 39840, Note_on_c, 0, 83, 76
1, 39860, Note_on_c, 0, 83, 0
1, 39888, Note_on_c, 1, 68, 70
1, 39888, Note_on_c, 1, 62, 70
1, 39888, Note_on_c, 1, 59, 70
1, 39908, Note_on_c, 1, 68, 0
1, 39908, Note_on_c, 1, 62, 0
1, 39908, Note_on_c, 1, 59, 0
1, 39936, Note_on_c, 0, 80, 76
1, 39956, Note_on_c, 0, 80, 0
1, 39984, Note_on_c, 1, 68, 70
1, 39984, Note_on_c, 1, 62, 70
1, 39984, Note_on_c, 1, 59, 70
1, 40004, Note_on_c, 1, 68, 0
1, 40004, Note_on_c, 1, 62, 0
1, 40004, Note_on_c, 1, 59, 0
1, 40032, Note_on_c, 0, 74, 76
1, 40052, Note_on_c, 0, 74, 0
1, 40080, Note_on_c, 1, 68, 70
1, 40080, Note_on_c, 1, 62, 70
1, 40080, Note_on_c, 1, 59, 70
1, 40100, Note_on_c, 1, 68, 0
1, 40100, Note_on_c, 1, 62, 0
1, 40100, Note_on_c, 1, 59, 0
1, 40128, Note_on_c, 0, 73, 76
1, 40148, Note_on_c, 0, 73, 0
1, 40176, Note_on_c, 1, 69, 70
1, 40176, Note_on_c, 1, 64, 70
1, 40176, Note_on_c, 1, 61, 70
1, 40176, Note_on_c, 1, 57, 70
1, 40196, Note_on_c, 1, 69, 0
1, 40196, Note_on_c, 1, 64, 0
1, 40196, Note_on_c, 1, 61, 0
1, 40196, Note_on_c, 1, 57, 0
1, 40224, Note_on_c, 0, 69, 76
1, 40269, Note_on_c, 0, 69, 0
1, 40272, Note_on_c, 1, 69, 75
1, 40317, Note_on_c, 1, 69, 0
1, 40320, Note_on_c, 0, 69, 75
1, 40365, Note_on_c, 0, 69, 0
1, 40368, Note_on_c, 1, 69, 74
1, 40413, Note_on_c, 1, 69, 0
1, 40416, Note_on_c, 0, 69, 74
1, 40461, Note_on_c, 0, 69, 0
1, 40464, Note_on_c, 1, 69, 74
1, 40509, Note_on_c, 1, 69, 0
1, 40512, Note_on_c, 0, 69, 73
1, 40557, Note_on_c, 0, 69, 0
1, 40560, Note_on_c, 1, 69, 73
1, 40605, Note_on_c, 1, 69, 0
1, 40608, Note_on_c, 0, 69, 72
1, 40653, Note_on_c, 0, 69, 0
1, 40656, Note_on_c, 1, 69, 72
1, 40701, Note_on_c, 1, 69, 0
1, 40704, Note_on_c, 0, 69, 71
1, 40749, Note_on_c, 0, 69, 0
1, 40752, Note_on_c, 1, 69, 71
1, 40797, Note_on_c, 1, 69, 0
1, 40800, Note_on_c, 0, 69, 71
1, 40845, Note_on_c, 0, 69, 0
1, 40848, Note_on_c, 1, 69, 71
1, 40893, Note_on_c, 1, 69, 0
1, 40896, Note_on_c, 0, 69, 70
1, 40985, Note_on_c, 0, 69, 0
1, 41040, Note_on_c, 1, 69, 69
1, 41085, Note_on_c, 1, 69, 0
1, 41088, Note_on_c, 0, 69, 68
1, 41177, Note_on_c, 0, 69, 0
1, 41232, Note_on_c, 1, 69, 67
1, 41277, Note_on_c, 1, 69, 0
1, 41280, Note_on_c, 0, 69, 66
1, 41369, Note_on_c, 0, 69, 0
1, 41424, Note_on_c, 0, 69, 66
1, 41444, Note_on_c, 0, 69, 0
1, 41472, Note_on_c, 0, 69, 92
1, 41520, Note_on_c, 1, 54, 66
1, 41520, Note_on_c, 1, 50, 66
1, 41540, Note_on_c, 1, 54, 0
1, 41540, Note_on_c, 1, 50, 0
1, 41568, Note_on_c, 0, 69, 0
1, 41568, Note_on_c, 0, 66, 76
1, 41568, Note_on_c, 1, 54, 66
1, 41568, Note_on_c, 1, 50, 66
1, 41588, Note_on_c, 0, 66, 0
1, 41613, Note_on_c, 1, 54, 0
1, 41613, Note_on_c, 1, 50, 0
1, 41616, Note_on_c, 0, 74, 76
1, 41636, Note_on_c, 0, 74, 0
1, 41664, Note_on_c, 0, 74, 92
1, 41712, Note_on_c, 1, 55, 66
1, 41712, Note_on_c, 1, 52, 66
1, 41732, Note_on_c, 1, 55, 0
1, 41732, Note_on_c, 1, 52, 0
1, 41760, Note_on_c, 0, 74, 0
1, 41760, Note_on_c, 0, 73, 76
1, 41760, Note_on_c, 1, 55, 66
1, 41760, Note_on_c, 1, 52, 66
1, 41780, Note_on_c, 0, 73, 0
1, 41805, Note_on_c, 1, 55, 0
1, 41805, Note_on_c, 1, 52, 0
1, 41808, Note_on_c, 0, 76, 76
1, 41828, Note_on_c, 0, 76, 0
1, 41856, Note_on_c, 0, 76, 92
1, 41904, Note_on_c, 1, 61, 66
1, 41904, Note_on_c, 1, 57, 66
1, 41924, Note_on_c, 1, 61, 0
1, 41924, Note_on_c, 1, 57, 0
1, 41928, Note_on_c, 0, 76, 0
1, 41928, Note_on_c, 0, 78, 76
1, 41951, Note_on_c, 0, 78, 0
1, 41952, Note_on_c, 0, 79, 76
1, 41952, Note_on_c, 1, 61, 66
1, 41952, Note_on_c, 1, 57, 66
1, 41997, Note_on_c, 0, 79, 0
1, 41997, Note_on_c, 1, 61, 0
1, 41997, Note_on_c, 1, 57, 0
1, 42000, Note_on_c, 0, 79, 76
1, 42020, Note_on_c, 0, 79, 0
1, 42048, Note_on_c, 0, 79, 92
1, 42096, Note_on_c, 1, 66, 66
1, 42096, Note_on_c, 1, 62, 66
1, 42116, Note_on_c, 1, 66, 0
1, 42116, Note_on_c, 1, 62, 0
1, 42144, Note_on_c, 0, 79, 0
1, 42144, Note_on_c, 0, 78, 72
1, 42144, Note_on_c, 1, 66, 66
1, 42144, Note_on_c, 1, 62, 66
1, 42189, Note_on_c, 0, 78, 0
1, 42189, Note_on_c, 1, 66, 0
1, 42189, Note_on_c, 1, 62, 0
1, 42192, Note_on_c, 0, 81, 70
1, 42212, Note_on_c, 0, 81, 0
1, 42240, Note_on_c, 0, 81, 86
1, 42288, Note_on_c, 1, 64, 66
1, 42288, Note_on_c, 1, 61, 66
1, 42308, Note_on_c, 1, 64, 0
1, 42308, Note_on_c, 1, 61, 0
1, 42336, Note_on_c, 1, 64, 66
1, 42336, Note_on_c, 1, 61, 66
1, 42381, Note_on_c, 1, 64, 0
1, 42381, Note_on_c, 1, 61, 0
1, 42384, Note_on_c, 0, 81, 0
1, 42384, Note_on_c, 0, 82, 73
1, 42429, Note_on_c, 0, 82, 0
1, 42432, Note_on_c, 0, 83, 90
1, 42480, Note_on_c, 1, 66, 66
1, 42480, Note_on_c, 1, 62, 66
1, 42504, Note_on_c, 0, 83, 0
1, 42504, Note_on_c, 0, 85, 76
1, 42525, Note_on_c, 1, 66, 0
1, 42525, Note_on_c, 1, 62, 0
1, 42527, Note_on_c, 0, 85, 0
1, 42528, Note_on_c, 0, 88, 76
1, 42528, Note_on_c, 1, 66, 66
1, 42528, Note_on_c, 1, 62, 66
1, 42551, Note_on_c, 0, 88, 0
1, 42552, Note_on_c, 0, 86, 76
1, 42573, Note_on_c, 1, 66, 0
1, 42573, Note_on_c, 1, 62, 0
1, 42575, Note_on_c, 0, 86, 0
1, 42576, Note_on_c, 0, 85, 76
1, 42576, Note_on_c, 1, 66, 66
1, 42576, Note_on_c, 1, 62, 66
1, 42599, Note_on_c, 0, 85, 0
1, 42600, Note_on_c, 0, 83, 76
1, 42621, Note_on_c, 1, 66, 0
1, 42621, Note_on_c, 1, 62, 0
1, 42623, Note_on_c, 0, 83, 0
1, 42624, Note_on_c, 0, 81, 76
1, 42624, Note_on_c, 1, 61, 66
1, 42624, Note_on_c, 1, 52, 66
1, 42669, Note_on_c, 1, 61, 0
1, 42669, Note_on_c, 1, 52, 0
1, 42672, Note_on_c, 1, 61, 66
1, 42672, Note_on_c, 1, 52, 66
1, 42713, Note_on_c, 0, 81, 0
1, 42717, Note_on_c, 1, 61, 0
1, 42717, Note_on_c, 1, 52, 0
1, 42720, Note_on_c, 0, 80, 73
1, 42720, Note_on_c, 1, 59, 66
1, 42720, Note_on_c, 1, 52, 66
1, 42732, Note_on_c, 0, 80, 0
1, 42732, Note_on_c, 0, 81, 73
1, 42744, Note_on_c, 0, 81, 0
1, 42744, Note_on_c, 0, 80, 73
1, 42765, Note_on_c, 1, 59, 0
1, 42765, Note_on_c, 1, 52, 0
1, 42768, Note_on_c, 1, 59, 66
1, 42768, Note_on_c, 1, 52, 66
1, 42787, Note_on_c, 0, 80, 0
1, 42792, Note_on_c, 0, 81, 70
1, 42813, Note_on_c, 1, 59, 0
1, 42813, Note_on_c, 1, 52, 0
1, 42815, Note_on_c, 0, 81, 0
1, 42816, Note_on_c, 0, 81, 86
1, 42816, Note_on_c, 1, 57, 66
1, 42816, Note_on_c, 1, 45, 66
1, 42905, Note_on_c, 1, 57, 0
1, 42905, Note_on_c, 1, 45, 0
1, 42912, Note_on_c, 0, 81, 0
1, 42960, Note_on_c, 0, 69, 82
1, 43005, Note_on_c, 0, 69, 0
1, 43008, Note_on_c, 0, 69, 98
1, 43008, Note_on_c, 1, 50, 70
1, 43031, Note_on_c, 1, 50, 0
1, 43032, Note_on_c, 1, 57, 70
1, 43055, Note_on_c, 1, 57, 0
1, 43056, Note_on_c, 1, 54, 70
1, 43079, Note_on_c, 1, 54, 0
1, 43080, Note_on_c, 1, 57, 70
1, 43103, Note_on_c, 1, 57, 0
1, 43104, Note_on_c, 0, 69, 0
1, 43104, Note_on_c, 0, 66, 82
1, 43104, Note_on_c, 1, 50, 70
1, 43124, Note_on_c, 0, 66, 0
1, 43127, Note_on_c, 1, 50, 0
1, 43128, Note_on_c, 1, 57, 70
1, 43151, Note_on_c, 1, 57, 0
1, 43152, Note_on_c, 0, 74, 82
1, 43152, Note_on_c, 1, 54, 70
1, 43172, Note_on_c, 0, 74, 0
1, 43175, Note_on_c, 1, 54, 0
1, 43176, Note_on_c, 1, 57, 70
1, 43199, Note_on_c, 1, 57, 0
1, 43200, Note_on_c, 0, 74, 98
1, 43200, Note_on_c, 1, 52, 70
1, 43223, Note_on_c, 1, 52, 0
1, 43224, Note_on_c, 1, 57, 70
1, 43247, Note_on_c, 1, 57, 0
1, 43248, Note_on_c, 1, 55, 70
1, 43271, Note_on_c, 1, 55, 0
1, 43272, Note_on_c, 1, 57, 70
1, 43295, Note_on_c, 1, 57, 0
1, 43296, Note_on_c, 0, 74, 0
1, 43296, Note_on_c, 0, 73, 82
1, 43296, Note_on_c, 1, 52, 70
1, 43316, Note_on_c, 0, 73, 0
1, 43319, Note_on_c, 1, 52, 0
1, 43320, Note_on_c, 1, 57, 70
1, 43343, Note_on_c, 1, 57, 0
1, 43344, Note_on_c, 0, 76, 82
1, 43344, Note_on_c, 1, 55, 70
1, 43364, Note_on_c, 0, 76, 0
1, 43367, Note_on_c, 1, 55, 0
1, 43368, Note_on_c, 1, 57, 70
1, 43391, Note_on_c, 1, 57, 0
1, 43392, Note_on_c, 0, 76, 98
1, 43392, Note_on_c, 1, 49, 70
1, 43415, Note_on_c, 1, 49, 0
1, 43416, Note_on_c, 1, 57, 70
1, 43439, Note_on_c, 1, 57, 0
1, 43440, Note_on_c, 1, 52, 70
1, 43463, Note_on_c, 1, 52, 0
1, 43464, Note_on_c, 0, 76, 0
1, 43464, Note_on_c, 0, 78, 85
1, 43464, Note_on_c, 1, 57, 70
1, 43487, Note_on_c, 0, 78, 0
1, 43487, Note_on_c, 1, 57, 0
1, 43488, Note_on_c, 0, 79, 86
1, 43488, Note_on_c, 1, 49, 70
1, 43511, Note_on_c, 1, 49, 0
1, 43512, Note_on_c, 1, 57, 70
1, 43533, Note_on_c, 0, 79, 0
1, 43535, Note_on_c, 1, 57, 0
1, 43536, Note_on_c, 0, 79, 89
1, 43536, Note_on_c, 1, 52, 70
1, 43556, Note_on_c, 0, 79, 0
1, 43559, Note_on_c, 1, 52, 0
1, 43560, Note_on_c, 1, 57, 70
1, 43583, Note_on_c, 1, 57, 0
1, 43584, Note_on_c, 0, 79, 103
1, 43584, Note_on_c, 1, 50, 70
1, 43607, Note_on_c, 1, 50, 0
1, 43608, Note_on_c, 1, 57, 70
1, 43631, Note_on_c, 1, 57, 0
1, 43632, Note_on_c, 1, 54, 70
1, 43655, Note_on_c, 1, 54, 0
1, 43656, Note_on_c, 1, 57, 70
1, 43679, Note_on_c, 1, 57, 0
1, 43680, Note_on_c, 0, 79, 0
1, 43680, Note_on_c, 0, 78, 83
1, 43680, Note_on_c, 1, 50, 70
1, 43703, Note_on_c, 1, 50, 0
1, 43704, Note_on_c, 1, 57, 70
1, 43725, Note_on_c, 0, 78, 0
1, 43727, Note_on_c, 1, 57, 0
1, 43728, Note_on_c, 0, 81, 82
1, 43728, Note_on_c, 1, 54, 70
1, 43748, Note_on_c, 0, 81, 0
1, 43751, Note_on_c, 1, 54, 0
1, 43752, Note_on_c, 1, 57, 70
1, 43775, Note_on_c, 1, 57, 0
1, 43776, Note_on_c, 0, 81, 98
1, 43776, Note_on_c, 1, 49, 70
1, 43799, Note_on_c, 1, 49, 0
1, 43800, Note_on_c, 1, 57, 70
1, 43823, Note_on_c, 1, 57, 0
1, 43824, Note_on_c, 1, 52, 70
1, 43847, Note_on_c, 1, 52, 0
1, 43848, Note_on_c, 1, 57, 70
1, 43871, Note_on_c, 1, 57, 0
1, 43872, Note_on_c, 1, 49, 70
1, 43895, Note_on_c, 1, 49, 0
1, 43896, Note_on_c, 1, 58, 70
1, 43919, Note_on_c, 1, 58, 0
1, 43920, Note_on_c, 0, 81, 0
1, 43920, Note_on_c, 0, 82, 85
1, 43920, Note_on_c, 1, 52, 70
1, 43943, Note_on_c, 1, 52, 0
1, 43944, Note_on_c, 1, 58, 70
1, 43965, Note_on_c, 0, 82, 0
1, 43967, Note_on_c, 1, 58, 0
1, 43968, Note_on_c, 0, 83, 87
1, 43968, Note_on_c, 1, 50, 70
1, 43991, Note_on_c, 1, 50, 0
1, 43992, Note_on_c, 1, 59, 70
1, 44015, Note_on_c, 1, 59, 0
1, 44016, Note_on_c, 1, 54, 70
1, 44035, Note_on_c, 0, 83, 0
1, 44039, Note_on_c, 1, 54, 0
1, 44040, Note_on_c, 0, 85, 89
1, 44040, Note_on_c, 1, 59, 70
1, 44063, Note_on_c, 0, 85, 0
1, 44063, Note_on_c, 1, 59, 0
1, 44064, Note_on_c, 0, 88, 89
1, 44064, Note_on_c, 1, 50, 70
1, 44087, Note_on_c, 0, 88, 0
1, 44087, Note_on_c, 1, 50, 0
1, 44088, Note_on_c, 0, 86, 89
1, 44088, Note_on_c, 1, 59, 70
1, 44111, Note_on_c, 0, 86, 0
1, 44111, Note_on_c, 1, 59, 0
1, 44112, Note_on_c, 0, 85, 89
1, 44112, Note_on_c, 1, 54, 70
1, 44135, Note_on_c, 0, 85, 0
1, 44135, Note_on_c, 1, 54, 0
1, 44136, Note_on_c, 0, 83, 89
1, 44136, Note_on_c, 1, 59, 70
1, 44159, Note_on_c, 0, 83, 0
1, 44159, Note_on_c, 1, 59, 0
1, 44160, Note_on_c, 0, 81, 89
1, 44160, Note_on_c, 1, 52, 70
1, 44183, Note_on_c, 1, 52, 0
1, 44184, Note_on_c, 1, 61, 70
1, 44207, Note_on_c, 1, 61, 0
1, 44208, Note_on_c, 1, 57, 70
1, 44231, Note_on_c, 1, 57, 0
1, 44232, Note_on_c, 1, 61, 70
1, 44249, Note_on_c, 0, 81, 0
1, 44255, Note_on_c, 1, 61, 0
1, 44256, Note_on_c, 0, 80, 85
1, 44256, Note_on_c, 1, 52, 70
1, 44268, Note_on_c, 0, 80, 0
1, 44268, Note_on_c, 0, 81, 85
1, 44279, Note_on_c, 1, 52, 0
1, 44280, Note_on_c, 0, 81, 0
1, 44280, Note_on_c, 0, 80, 85
1, 44280, Note_on_c, 1, 62, 70
1, 44303, Note_on_c, 1, 62, 0
1, 44304, Note_on_c, 1, 59, 70
1, 44323, Note_on_c, 0, 80, 0
1, 44327, Note_on_c, 1, 59, 0
1, 44328, Note_on_c, 0, 81, 82
1, 44328, Note_on_c, 1, 62, 70
1, 44351, Note_on_c, 0, 81, 0
1, 44351, Note_on_c, 1, 62, 0
1, 44352, Note_on_c, 0, 81, 98
1, 44352, Note_on_c, 1, 61, 70
1, 44352, Note_on_c, 1, 57, 70
1, 44441, Note_on_c, 1, 61, 0
1, 44441, Note_on_c, 1, 57, 0
1, 44448, Note_on_c, 0, 81, 0
1, 44496, Note_on_c, 0, 81, 82
1, 44516, Note_on_c, 0, 81, 0
1, 44544, Note_on_c, 0, 81, 98
1, 44544, Note_on_c, 1, 66, 70
1, 44567, Note_on_c, 1, 66, 0
1, 44568, Note_on_c, 1, 72, 70
1, 44591, Note_on_c, 1, 72, 0
1, 44592, Note_on_c, 1, 66, 70
1, 44615, Note_on_c, 1, 66, 0
1, 44616, Note_on_c, 1, 72, 70
1, 44639, Note_on_c, 1, 72, 0
1, 44640, Note_on_c, 0, 81, 0
1, 44640, Note_on_c, 0, 75, 82
1, 44640, Note_on_c, 1, 66, 70
1, 44685, Note_on_c, 1, 66, 0
1, 44688, Note_on_c, 0, 75, 0
1, 44688, Note_on_c, 0, 83, 82
1, 44708, Note_on_c, 0, 83, 0
1, 44736, Note_on_c, 0, 83, 98
1, 44736, Note_on_c, 1, 67, 70
1, 44759, Note_on_c, 1, 67, 0
1, 44760, Note_on_c, 1, 71, 70
1, 44783, Note_on_c, 1, 71, 0
1, 44784, Note_on_c, 1, 67, 70
1, 44807, Note_on_c, 1, 67, 0
1, 44808, Note_on_c, 1, 71, 70
1, 44831, Note_on_c, 1, 71, 0
1, 44832, Note_on_c, 0, 83, 0
1, 44832, Note_on_c, 0, 76, 82
1, 44832, Note_on_c, 1, 67, 70
1, 44852, Note_on_c, 0, 76, 0
1, 44877, Note_on_c, 1, 67, 0
1, 44880, Note_on_c, 0, 79, 82
1, 44900, Note_on_c, 0, 79, 0
1, 44928, Note_on_c, 0, 79, 98
1, 44928, Note_on_c, 1, 69, 70
1, 44928, Note_on_c, 1, 61, 70
1, 44973, Note_on_c, 1, 69, 0
1, 44973, Note_on_c, 1, 61, 0
1, 44976, Note_on_c, 1, 69, 70
1, 44976, Note_on_c, 1, 61, 70
1, 45000, Note_on_c, 0, 79, 0
1, 45000, Note_on_c, 0, 81, 85
1, 45012, Note_on_c, 0, 81, 0
1, 45012, Note_on_c, 0, 79, 86
1, 45021, Note_on_c, 1, 69, 0
1, 45021, Note_on_c, 1, 61, 0
1, 45024, Note_on_c, 0, 79, 0
1, 45024, Note_on_c, 0, 78, 86
1, 45024, Note_on_c, 1, 69, 70
1, 45024, Note_on_c, 1, 62, 70
1, 45069, Note_on_c, 0, 78, 0
1, 45069, Note_on_c, 1, 69, 0
1, 45069, Note_on_c, 1, 62, 0
1, 45072, Note_on_c, 0, 78, 89
1, 45072, Note_on_c, 1, 69, 70
1, 45072, Note_on_c, 1, 62, 70
1, 45092, Note_on_c, 0, 78, 0
1, 45117, Note_on_c, 1, 69, 0
1, 45117, Note_on_c, 1, 62, 0
1, 45120, Note_on_c, 0, 76, 89
1, 45120, Note_on_c, 1, 69, 70
1, 45165, Note_on_c, 0, 76, 0
1, 45168, Note_on_c, 0, 73, 86
1, 45209, Note_on_c, 1, 69, 0
1, 45213, Note_on_c, 0, 73, 0
1, 45216, Note_on_c, 0, 69, 84
1, 45261, Note_on_c, 0, 69, 0
1, 45264, Note_on_c, 0, 69, 82
1, 45264, Note_on_c, 0, 66, 82
1, 45309, Note_on_c, 0, 69, 0
1, 45309, Note_on_c, 0, 66, 0
1, 45312, Note_on_c, 0, 69, 98
1, 45312, Note_on_c, 0, 66, 98
1, 45312, Note_on_c, 1, 38, 76
1, 45335, Note_on_c, 1, 38, 0
1, 45336, Note_on_c, 1, 50, 76
1, 45359, Note_on_c, 1, 50, 0
1, 45360, Note_on_c, 1, 49, 76
1, 45383, Note_on_c, 1, 49, 0
1, 45384, Note_on_c, 1, 50, 76
1, 45407, Note_on_c, 1, 50, 0
1, 45408, Note_on_c, 0, 69, 0
1, 45408, Note_on_c, 0, 62, 82
1, 45408, Note_on_c, 1, 49, 76
1, 45428, Note_on_c, 0, 66, 0
1, 45428, Note_on_c, 0, 62, 0
1, 45431, Note_on_c, 1, 49, 0
1, 45432, Note_on_c, 1, 50, 76
1, 45455, Note_on_c, 1, 50, 0
1, 45456, Note_on_c, 0, 74, 82
1, 45456, Note_on_c, 0, 66, 82
1, 45456, Note_on_c, 1, 49, 76
1, 45476, Note_on_c, 0, 74, 0
1, 45476, Note_on_c, 0, 66, 0
1, 45479, Note_on_c, 1, 49, 0
1, 45480, Note_on_c, 1, 50, 76
1, 45503, Note_on_c, 1, 50, 0
1, 45504, Note_on_c, 0, 74, 98
1, 45504, Note_on_c, 0, 66, 98
1, 45504, Note_on_c, 1, 45, 76
1, 45527, Note_on_c, 1, 45, 0
1, 45528, Note_on_c, 1, 57, 76
1, 45551, Note_on_c, 1, 57, 0
1, 45552, Note_on_c, 1, 56, 76
1, 45575, Note_on_c, 1, 56, 0
1, 45576, Note_on_c, 1, 57, 76
1, 45599, Note_on_c, 1, 57, 0
1, 45600, Note_on_c, 0, 74, 0
1, 45600, Note_on_c, 0, 66, 0
1, 45600, Note_on_c, 0, 73, 82
1, 45600, Note_on_c, 0, 64, 82
1, 45600, Note_on_c, 1, 56, 76
1, 45620, Note_on_c, 0, 73, 0
1, 45620, Note_on_c, 0, 64, 0
1, 45623, Note_on_c, 1, 56, 0
1, 45624, Note_on_c, 1, 57, 76
1, 45647, Note_on_c, 1, 57, 0
1, 45648, Note_on_c, 0, 76, 82
1, 45648, Note_on_c, 0, 73, 82
1, 45648, Note_on_c, 1, 56, 76
1, 45668, Note_on_c, 0, 76, 0
1, 45668, Note_on_c, 0, 73, 0
1, 45671, Note_on_c, 1, 56, 0
1, 45672, Note_on_c, 1, 57, 76
1, 45695, Note_on_c, 1, 57, 0
1, 45696, Note_on_c, 0, 76, 98
1, 45696, Note_on_c, 0, 73, 98
1, 45696, Note_on_c, 1, 45, 76
1, 45719, Note_on_c, 1, 45, 0
1, 45720, Note_on_c, 1, 57, 76
1, 45743, Note_on_c, 1, 57, 0
1, 45744, Note_on_c, 1, 56, 76
1, 45767, Note_on_c, 1, 56, 0
1, 45768, Note_on_c, 0, 76, 0
1, 45768, Note_on_c, 0, 73, 0
1, 45768, Note_on_c, 0, 78, 82
1, 45768, Note_on_c, 0, 74, 82
1, 45768, Note_on_c, 1, 57, 76
1, 45791, Note_on_c, 0, 78, 0
1, 45791, Note_on_c, 0, 74, 0
1, 45791, Note_on_c, 1, 57, 0
1, 45792, Note_on_c, 0, 79, 82
1, 45792, Note_on_c, 0, 76, 82
1, 45792, Note_on_c, 1, 56, 76
1, 45815, Note_on_c, 1, 56, 0
1, 45816, Note_on_c, 1, 57, 76
1, 45837, Note_on_c, 0, 79, 0
1, 45837, Note_on_c, 0, 76, 0
1, 45839, Note_on_c, 1, 57, 0
1, 45840, Note_on_c, 0, 79, 82
1, 45840, Note_on_c, 0, 76, 82
1, 45840, Note_on_c, 1, 56, 76
1, 45860, Note_on_c, 0, 79, 0
1, 45860, Note_on_c, 0, 76, 0
1, 45863, Note_on_c, 1, 56, 0
1, 45864, Note_on_c, 1, 57, 76
1, 45887, Note_on_c, 1, 57, 0
1, 45888, Note_on_c, 0, 79, 98
1, 45888, Note_on_c, 0, 76, 98
1, 45888, Note_on_c, 1, 50, 76
1, 45911, Note_on_c, 1, 50, 0
1, 45912, Note_on_c, 1, 62, 76
1, 45935, Note_on_c, 1, 62, 0
1, 45936, Note_on_c, 1, 61, 76
1, 45959, Note_on_c, 1, 61, 0
1, 45960, Note_on_c, 1, 62, 76
1, 45983, Note_on_c, 1, 62, 0
1, 45984, Note_on_c, 0, 79, 0
1, 45984, Note_on_c, 0, 76, 0
1, 45984, Note_on_c, 0, 78, 82
1, 45984, Note_on_c, 0, 74, 82
1, 45984, Note_on_c, 1, 61, 76
1, 46007, Note_on_c, 1, 61, 0
1, 46008, Note_on_c, 1, 62, 76
1, 46029, Note_on_c, 0, 78, 0
1, 46029, Note_on_c, 0, 74, 0
1, 46031, Note_on_c, 1, 62, 0
1, 46032, Note_on_c, 0, 81, 82
1, 46032, Note_on_c, 1, 61, 76
1, 46052, Note_on_c, 0, 81, 0
1, 46055, Note_on_c, 1, 61, 0
1, 46056, Note_on_c, 1, 62, 76
1, 46079, Note_on_c, 1, 62, 0
1, 46080, Note_on_c, 0, 81, 98
1, 46080, Note_on_c, 1, 54, 76
1, 46080, Note_on_c, 1, 54, 58
1, 46103, Note_on_c, 1, 54, 0
1, 46104, Note_on_c, 1, 62, 76
1, 46127, Note_on_c, 1, 62, 0
1, 46128, Note_on_c, 1, 61, 76
1, 46151, Note_on_c, 1, 61, 0
1, 46152, Note_on_c, 1, 62, 76
1, 46175, Note_on_c, 1, 62, 0
1, 46176, Note_on_c, 0, 81, 0
1, 46176, Note_on_c, 0, 74, 82
1, 46176, Note_on_c, 1, 61, 76
1, 46196, Note_on_c, 0, 74, 0
1, 46199, Note_on_c, 1, 61, 0
1, 46200, Note_on_c, 1, 62, 76
1, 46223, Note_on_c, 1, 62, 0
1, 46224, Note_on_c, 0, 86, 82
1, 46224, Note_on_c, 1, 61, 76
1, 46244, Note_on_c, 0, 86, 0
1, 46247, Note_on_c, 1, 61, 0
1, 46248, Note_on_c, 1, 62, 76
1, 46257, Note_on_c, 1, 54, 0
1, 46271, Note_on_c, 1, 62, 0
1, 46272, Note_on_c, 0, 86, 98
1, 46272, Note_on_c, 1, 55, 76
1, 46272, Note_on_c, 1, 55, 58
1, 46295, Note_on_c, 1, 55, 0
1, 46296, Note_on_c, 1, 62, 76
1, 46319, Note_on_c, 1, 62, 0
1, 46320, Note_on_c, 1, 61, 76
1, 46343, Note_on_c, 1, 61, 0
1, 46344, Note_on_c, 0, 86, 0
1, 46344, Note_on_c, 0, 83, 82
1, 46344, Note_on_c, 1, 62, 76
1, 46367, Note_on_c, 0, 83, 0
1, 46367, Note_on_c, 1, 62, 0
1, 46368, Note_on_c, 0, 79, 82
1, 46368, Note_on_c, 1, 61, 76
1, 46391, Note_on_c, 1, 61, 0
1, 46392, Note_on_c, 1, 62, 76
1, 46413, Note_on_c, 0, 79, 0
1, 46415, Note_on_c, 1, 62, 0
1, 46416, Note_on_c, 0, 83, 82
1, 46416, Note_on_c, 1, 61, 76
1, 46436, Note_on_c, 0, 83, 0
1, 46439, Note_on_c, 1, 61, 0
1, 46440, Note_on_c, 1, 62, 76
1, 46449, Note_on_c, 1, 55, 0
1, 46463, Note_on_c, 1, 62, 0
1, 46464, Note_on_c, 0, 81, 98
1, 46464, Note_on_c, 1, 57, 58
1, 46536, Note_on_c, 0, 81, 0
1, 46536, Note_on_c, 0, 78, 82
1, 46559, Note_on_c, 0, 78, 0
1, 46560, Note_on_c, 0, 74, 82
1, 46560, Note_on_c, 1, 66, 76
1, 46605, Note_on_c, 0, 74, 0
1, 46605, Note_on_c, 1, 66, 0
1, 46608, Note_on_c, 0, 73, 82
1, 46608, Note_on_c, 1, 64, 76
1, 46641, Note_on_c, 1, 57, 0
1, 46653, Note_on_c, 0, 73, 0
1, 46653, Note_on_c, 1, 64, 0
1, 46656, Note_on_c, 0, 74, 82
1, 46656, Note_on_c, 1, 62, 82
1, 46656, Note_on_c, 1, 50, 82
1, 46745, Note_on_c, 0, 74, 0
1, 46745, Note_on_c, 1, 62, 0
1, 46745, Note_on_c, 1, 50, 0
1, 46800, Note_on_c, 0, 81, 82
1, 46820, Note_on_c, 0, 81, 0
1, 46848, Note_on_c, 0, 81, 98
1, 46848, Note_on_c, 1, 66, 70
1, 46871, Note_on_c, 1, 66, 0
1, 46872, Note_on_c, 1, 72, 70
1, 46895, Note_on_c, 1, 72, 0
1, 46896, Note_on_c, 1, 66, 70
1, 46919, Note_on_c, 1, 66, 0
1, 46920, Note_on_c, 1, 72, 70
1, 46943, Note_on_c, 1, 72, 0
1, 46944, Note_on_c, 0, 81, 0
1, 46944, Note_on_c, 0, 75, 82
1, 46944, Note_on_c, 1, 66, 70
1, 46989, Note_on_c, 1, 66, 0
1, 46992, Note_on_c, 0, 75, 0
1, 46992, Note_on_c, 0, 83, 82
1, 47012, Note_on_c, 0, 83, 0
1, 47040, Note_on_c, 0, 83, 98
1, 47040, Note_on_c, 1, 67, 70
1, 47063, Note_on_c, 1, 67, 0
1, 47064, Note_on_c, 1, 71, 70
1, 47087, Note_on_c, 1, 71, 0
1, 47088, Note_on_c, 1, 67, 70
1, 47111, Note_on_c, 1, 67, 0
1, 47112, Note_on_c, 1, 71, 70
1, 47135, Note_on_c, 1, 71, 0
1, 47136, Note_on_c, 0, 83, 0
1, 47136, Note_on_c, 0, 76, 82
1, 47136, Note_on_c, 1, 67, 70
1, 47156, Note_on_c, 0, 76, 0
1, 47181, Note_on_c, 1, 67, 0
1, 47184, Note_on_c, 0, 79, 82
1, 47204, Note_on_c, 0, 79, 0
1, 47232, Note_on_c, 0, 79, 98
1, 47232, Note_on_c, 1, 69, 70
1, 47232, Note_on_c, 1, 61, 70
1, 47277, Note_on_c, 1, 69, 0
1, 47277, Note_on_c, 1, 61, 0
1, 47280, Note_on_c, 1, 69, 70
1, 47280, Note_on_c, 1, 61, 70
1, 47304, Note_on_c, 0, 79, 0
1, 47304, Note_on_c, 0, 81, 85
1, 47316, Note_on_c, 0, 81, 0
1, 47316, Note_on_c, 0, 79, 86
1, 47325, Note_on_c, 1, 69, 0
1, 47325, Note_on_c, 1, 61, 0
1, 47328, Note_on_c, 0, 79, 0
1, 47328, Note_on_c, 0, 78, 86
1, 47328, Note_on_c, 1, 69, 70
1, 47328, Note_on_c, 1, 62, 70
1, 47373, Note_on_c, 0, 78, 0
1, 47373, Note_on_c, 1, 69, 0
1, 47373, Note_on_c, 1, 62, 0
1, 47376, Note_on_c, 0, 78, 89
1, 47376, Note_on_c, 1, 69, 70
1, 47376, Note_on_c, 1, 62, 70
1, 47396, Note_on_c, 0, 78, 0
1, 47421, Note_on_c, 1, 69, 0
1, 47421, Note_on_c, 1, 62, 0
1, 47424, Note_on_c, 0, 76, 89
1, 47424, Note_on_c, 1, 69, 70
1, 47469, Note_on_c, 0, 76, 0
1, 47472, Note_on_c, 0, 73, 86
1, 47513, Note_on_c, 1, 69, 0
1, 47517, Note_on_c, 0, 73, 0
1, 47520, Note_on_c, 0, 69, 84
1, 47565, Note_on_c, 0, 69, 0
1, 47568, Note_on_c, 0, 69, 82
1, 47568, Note_on_c, 0, 66, 82
1, 47613, Note_on_c, 0, 69, 0
1, 47613, Note_on_c, 0, 66, 0
1, 47616, Note_on_c, 0, 69, 98
1, 47616, Note_on_c, 0, 66, 98
1, 47616, Note_on_c, 1, 38, 76
1, 47639, Note_on_c, 1, 38, 0
1, 47640, Note_on_c, 1, 50, 76
1, 47663, Note_on_c, 1, 50, 0
1, 47664, Note_on_c, 1, 49, 76
1, 47687, Note_on_c, 1, 49, 0
1, 47688, Note_on_c, 1, 50, 76
1, 47711, Note_on_c, 1, 50, 0
1, 47712, Note_on_c, 0, 69, 0
1, 47712, Note_on_c, 0, 62, 82
1, 47712, Note_on_c, 1, 49, 76
1, 47732, Note_on_c, 0, 66, 0
1, 47732, Note_on_c, 0, 62, 0
1, 47735, Note_on_c, 1, 49, 0
1, 47736, Note_on_c, 1, 50, 76
1, 47759, Note_on_c, 1, 50, 0
1, 47760, Note_on_c, 0, 74, 82
1, 47760, Note_on_c, 0, 66, 82
1, 47760, Note_on_c, 1, 49, 76
1, 47780, Note_on_c, 0, 74, 0
1, 47780, Note_on_c, 0, 66, 0
1, 47783, Note_on_c, 1, 49, 0
1, 47784, Note_on_c, 1, 50, 76
1, 47807, Note_on_c, 1, 50, 0
1, 47808, Note_on_c, 0, 74, 98
1, 47808, Note_on_c, 0, 66, 98
1, 47808, Note_on_c, 1, 45, 76
1, 47831, Note_on_c, 1, 45, 0
1, 47832, Note_on_c, 1, 57, 76
1, 47855, Note_on_c, 1, 57, 0
1, 47856, Note_on_c, 1, 56, 76
1, 47879, Note_on_c, 1, 56, 0
1, 47880, Note_on_c, 1, 57, 76
1, 47903, Note_on_c, 1, 57, 0
1, 47904, Note_on_c, 0, 74, 0
1, 47904, Note_on_c, 0, 66, 0
1, 47904, Note_on_c, 0, 73, 82
1, 47904, Note_on_c, 0, 64, 82
1, 47904, Note_on_c, 1, 56, 76
1, 47924, Note_on_c, 0, 73, 0
1, 47924, Note_on_c, 0, 64, 0
1, 47927, Note_on_c, 1, 56, 0
1, 47928, Note_on_c, 1, 57, 76
1, 47951, Note_on_c, 1, 57, 0
1, 47952, Note_on_c, 0, 76, 82
1, 47952, Note_on_c, 0, 73, 82
1, 47952, Note_on_c, 1, 56, 76
1, 47972, Note_on_c, 0, 76, 0
1, 47972, Note_on_c, 0, 73, 0
1, 47975, Note_on_c, 1, 56, 0
1, 47976, Note_on_c, 1, 57, 76
1, 47999, Note_on_c, 1, 57, 0
1, 48000, Note_on_c, 0, 76, 98
1, 48000, Note_on_c, 0, 73, 98
1, 48000, Note_on_c, 1, 45, 76
1, 48023, Note_on_c, 1, 45, 0
1, 48024, Note_on_c, 1, 57, 76
1, 48047, Note_on_c, 1, 57, 0
1, 48048, Note_on_c, 1, 56, 76
1, 48071, Note_on_c, 1, 56, 0
1, 48072, Note_on_c, 0, 76, 0
1, 48072, Note_on_c, 0, 73, 0
1, 48072, Note_on_c, 0, 78, 82
1, 48072, Note_on_c, 0, 74, 82
1, 48072, Note_on_c, 1, 57, 76
1, 48095, Note_on_c, 0, 78, 0
1, 48095, Note_on_c, 0, 74, 0
1, 48095, Note_on_c, 1, 57, 0
1, 48096, Note_on_c, 0, 79, 82
1, 48096, Note_on_c, 0, 76, 82
1, 48096, Note_on_c, 1, 56, 76
1, 48119, Note_on_c, 1, 56, 0
1, 48120, Note_on_c, 1, 57, 76
1, 48141, Note_on_c, 0, 79, 0
1, 48141, Note_on_c, 0, 76, 0
1, 48143, Note_on_c, 1, 57, 0
1, 48144, Note_on_c, 0, 79, 82
1, 48144, Note_on_c, 0, 76, 82
1, 48144, Note_on_c, 1, 56, 76
1, 48164, Note_on_c, 0, 79, 0
1, 48164, Note_on_c, 0, 76, 0
1, 48167, Note_on_c, 1, 56, 0
1, 48168, Note_on_c, 1, 57, 76
1, 48191, Note_on_c, 1, 57, 0
1, 48192, Note_on_c, 0, 79, 98
1, 48192, Note_on_c, 0, 76, 98
1, 48192, Note_on_c, 1, 50, 76
1, 48215, Note_on_c, 1, 50, 0
1, 48216, Note_on_c, 1, 62, 76
1, 48239, Note_on_c, 1, 62, 0
1, 48240, Note_on_c, 1, 61, 76
1, 48263, Note_on_c, 1, 61, 0
1, 48264, Note_on_c, 1, 62, 76
1, 48287, Note_on_c, 1, 62, 0
1, 48288, Note_on_c, 0, 79, 0
1, 48288, Note_on_c, 0, 76, 0
1, 48288, Note_on_c, 0, 78, 82
1, 48288, Note_on_c, 0, 74, 82
1, 48288, Note_on_c, 1, 61, 76
1, 48311, Note_on_c, 1, 61, 0
1, 48312, Note_on_c, 1, 62, 76
1, 48333, Note_on_c, 0, 78, 0
1, 48333, Note_on_c, 0, 74, 0
1, 48335, Note_on_c, 1, 62, 0
1, 48336, Note_on_c, 0, 81, 82
1, 48336, Note_on_c, 1, 61, 76
1, 48356, Note_on_c, 0, 81, 0
1, 48359, Note_on_c, 1, 61, 0
1, 48360, Note_on_c, 1, 62, 76
1, 48383, Note_on_c, 1, 62, 0
1, 48384, Note_on_c, 0, 81, 98
1, 48384, Note_on_c, 1, 54, 76
1, 48384, Note_on_c, 1, 54, 58
1, 48407, Note_on_c, 1, 54, 0
1, 48408, Note_on_c, 1, 62, 76
1, 48431, Note_on_c, 1, 62, 0
1, 48432, Note_on_c, 1, 61, 76
1, 48455, Note_on_c, 1, 61, 0
1, 48456, Note_on_c, 1, 62, 76
1, 48479, Note_on_c, 1, 62, 0
1, 48480, Note_on_c, 0, 81, 0
1, 48480, Note_on_c, 0, 74, 82
1, 48480, Note_on_c, 1, 61, 76
1, 48500, Note_on_c, 0, 74, 0
1, 48503, Note_on_c, 1, 61, 0
1, 48504, Note_on_c, 1, 62, 76
1, 48527, Note_on_c, 1, 62, 0
1, 48528, Note_on_c, 0, 86, 82
1, 48528, Note_on_c, 1, 61, 76
1, 48548, Note_on_c, 0, 86, 0
1, 48551, Note_on_c, 1, 61, 0
1, 48552, Note_on_c, 1, 62, 76
1, 48561, Note_on_c, 1, 54, 0
1, 48575, Note_on_c, 1, 62, 0
1, 48576, Note_on_c, 0, 86, 98
1, 48576, Note_on_c, 1, 55, 76
1, 48576, Note_on_c, 1, 55, 58
1, 48599, Note_on_c, 1, 55, 0
1, 48600, Note_on_c, 1, 62, 76
1, 48623, Note_on_c, 1, 62, 0
1, 48624, Note_on_c, 1, 61, 76
1, 48647, Note_on_c, 1, 61, 0
1, 48648, Note_on_c, 0, 86, 0
1, 48648, Note_on_c, 0, 83, 82
1, 48648, Note_on_c, 1, 62, 76
1, 48671, Note_on_c, 0, 83, 0
1, 48671, Note_on_c, 1, 62, 0
1, 48672, Note_on_c, 0, 79, 82
1, 48672, Note_on_c, 1, 61, 76
1, 48695, Note_on_c, 1, 61, 0
1, 48696, Note_on_c, 1, 62, 76
1, 48717, Note_on_c, 0, 79, 0
1, 48719, Note_on_c, 1, 62, 0
1, 48720, Note_on_c, 0, 83, 82
1, 48720, Note_on_c, 1, 61, 76
1, 48740, Note_on_c, 0, 83, 0
1, 48743, Note_on_c, 1, 61, 0
1, 48744, Note_on_c, 1, 62, 76
1, 48753, Note_on_c, 1, 55, 0
1, 48767, Note_on_c, 1, 62, 0
1, 48768, Note_on_c, 0, 81, 98
1, 48768, Note_on_c, 1, 57, 58
1, 48840, Note_on_c, 0, 81, 0
1, 48840, Note_on_c, 0, 78, 82
1, 48863, Note_on_c, 0, 78, 0
1, 48864, Note_on_c, 0, 74, 82
1, 48864, Note_on_c, 1, 66, 76
1, 48909, Note_on_c, 0, 74, 0
1, 48909, Note_on_c, 1, 66, 0
1, 48912, Note_on_c, 0, 73, 82
1, 48912, Note_on_c, 1, 64, 76
1, 48945, Note_on_c, 1, 57, 0
1, 48957, Note_on_c, 0, 73, 0
1, 48957, Note_on_c, 1, 64, 0
1, 48960, Note_on_c, 0, 74, 82
1, 48960, Note_on_c, 1, 62, 82
1, 48960, Note_on_c, 1, 50, 82
1, 49049, Note_on_c, 0, 74, 0
1, 49049, Note_on_c, 1, 62, 0
1, 49049, Note_on_c, 1, 50, 0
1, 49056, Note_on_c, 0, 86, 82
1, 49056, Note_on_c, 0, 78, 82
1, 49056, Note_on_c, 0, 74, 82
1, 49056, Note_on_c, 1, 62, 82
1, 49056, Note_on_c, 1, 57, 82
1, 49056, Note_on_c, 1, 54, 82
1, 49056, Note_on_c, 1, 50, 82
1, 49145, Note_on_c, 0, 86, 0
1, 49145, Note_on_c, 0, 78, 0
1, 49145, Note_on_c, 0, 74, 0
1, 49145, Note_on_c, 1, 62, 0
1, 49145, Note_on_c, 1, 57, 0
1, 49145, Note_on_c, 1, 54, 0
1, 49145, Note_on_c, 1, 50, 0
1, 49152, Note_on_c, 0, 86, 82
1, 49152, Note_on_c, 0, 78, 82
1, 49152, Note_on_c, 0, 74, 82
1, 49152, Note_on_c, 1, 62, 82
1, 49152, Note_on_c, 1, 57, 82
1, 49152, Note_on_c, 1, 54, 82
1, 49152, Note_on_c, 1, 50, 82
1, 49285, Note_on_c, 0, 86, 0
1, 49285, Note_on_c, 0, 78, 0
1, 49285, Note_on_c, 0, 74, 0
1, 49285, Note_on_c, 1, 62, 0
1, 49285, Note_on_c, 1, 57, 0
1, 49285, Note_on_c, 1, 54, 0
1, 49285, Note_on_c, 1, 50, 0
1, 49344, Note_on_c, 1, 50, 0
1, 49433, Note_on_c, 1, 50, 0
1, 49443, End_track
0, 0, End_of_file