0, 0, Header, 0, 1, 96
1, 0, Start_track
1, 0, Tempo, 731707
1, 0, Note_on_c, 0, 75, 64
1, 48, Note_on_c, 1, 51, 64
1, 89, Note_on_c, 0, 75, 0
1, 93, Note_on_c, 1, 51, 0
1, 96, Note_on_c, 0, 70, 64
1, 96, Note_on_c, 1, 50, 64
1, 141, Note_on_c, 1, 50, 0
1, 144, Note_on_c, 1, 46, 64
1, 163, Note_on_c, 0, 70, 0
1, 168, Note_on_c, 0, 68, 64
1, 189, Note_on_c, 1, 46, 0
1, 191, Note_on_c, 0, 68, 0
1, 192, Note_on_c, 0, 68, 64
1, 240, Note_on_c, 1, 51, 64
1, 285, Note_on_c, 1, 51, 0
1, 288, Note_on_c, 0, 68, 0
1, 288, Note_on_c, 0, 67, 64
1, 288, Note_on_c, 1, 55, 64
1, 300, Note_on_c, 0, 67, 0
1, 300, Note_on_c, 0, 68, 64
1, 312, Note_on_c, 0, 68, 0
1, 312, Note_on_c, 0, 67, 64
1, 333, Note_on_c, 0, 67, 0
1, 333, Note_on_c, 1, 55, 0
1, 336, Note_on_c, 0, 65, 64
1, 336, Note_on_c, 1, 58, 64
1, 381, Note_on_c, 0, 65, 0
1, 381, Note_on_c, 1, 58, 0
1, 384, Note_on_c, 0, 63, 64
1, 384, Note_on_c, 1, 60, 64
1, 432, Note_on_c, 0, 63, 0
1, 432, Note_on_c, 0, 68, 64
1, 477, Note_on_c, 0, 68, 0
1, 480, Note_on_c, 0, 65, 64
1, 480, Note_on_c, 1, 60, 0
1, 480, Note_on_c, 1, 62, 64
1, 528, Note_on_c, 0, 65, 0
1, 528, Note_on_c, 0, 70, 64
1, 569, Note_on_c, 1, 62, 0
1, 573, Note_on_c, 0, 70, 0
1, 576, Note_on_c, 0, 68, 64
1, 624, Note_on_c, 1, 63, 64
1, 669, Note_on_c, 1, 63, 0
1, 672, Note_on_c, 0, 68, 0
1, 672, Note_on_c, 0, 67, 64
1, 672, Note_on_c, 1, 51, 64
1, 684, Note_on_c, 0, 67, 0
1, 684, Note_on_c, 0, 68, 64
1, 696, Note_on_c, 0, 68, 0
1, 696, Note_on_c, 0, 67, 64
1, 717, Note_on_c, 0, 67, 0
1, 717, Note_on_c, 1, 51, 0
1, 720, Note_on_c, 0, 65, 64
1, 720, Note_on_c, 1, 58, 64
1, 765, Note_on_c, 0, 65, 0
1, 765, Note_on_c, 1, 58, 0
1, 768, Note_on_c, 0, 63, 64
1, 768, Note_on_c, 1, 60, 64
1, 802, Note_on_c, 0, 63, 0
1, 804, Note_on_c, 0, 68, 64
1, 816, Note_on_c, 0, 68, 0
1, 816, Note_on_c, 0, 68, 64
1, 828, Note_on_c, 0, 68, 0
1, 828, Note_on_c, 0, 70, 64
1, 840, Note_on_c, 0, 70, 0
1, 840, Note_on_c, 0, 68, 64
1, 861, Note_on_c, 0, 68, 0
1, 864, Note_on_c, 0, 65, 64
1, 864, Note_on_c, 1, 60, 0
1, 864, Note_on_c, 1, 62, 64
1, 898, Note_on_c, 0, 65, 0
1, 900, Note_on_c, 0, 70, 64
1, 912, Note_on_c, 0, 70, 0
1, 912, Note_on_c, 0, 70, 64
1, 924, Note_on_c, 0, 70, 0
1, 924, Note_on_c, 0, 72, 64
1, 936, Note_on_c, 0, 72, 0
1, 936, Note_on_c, 0, 70, 64
1, 953, Note_on_c, 1, 62, 0
1, 957, Note_on_c, 0, 70, 0
1, 960, Note_on_c, 0, 68, 64
1, 960, Note_on_c, 1, 63, 64
1, 1008, Note_on_c, 0, 68, 0
1, 1008, Note_on_c, 0, 67, 64
1, 1042, Note_on_c, 0, 67, 0
1, 1044, Note_on_c, 0, 79, 64
1, 1049, Note_on_c, 1, 63, 0
1, 1056, Note_on_c, 0, 79, 0
1, 1056, Note_on_c, 0, 75, 64
1, 1076, Note_on_c, 0, 75, 0
1, 1104, Note_on_c, 1, 58, 64
1, 1104, Note_on_c, 1, 55, 64
1, 1140, Note_on_c, 0, 75, 64
1, 1149, Note_on_c, 1, 58, 0
1, 1149, Note_on_c, 1, 55, 0
1, 1152, Note_on_c, 0, 75, 0
1, 1152, Note_on_c, 0, 72, 64
1, 1197, Note_on_c, 0, 72, 0
1, 1200, Note_on_c, 1, 60, 64
1, 1200, Note_on_c, 1, 56, 64
1, 1236, Note_on_c, 0, 72, 64
1, 1245, Note_on_c, 1, 60, 0
1, 1245, Note_on_c, 1, 56, 0
1, 1248, Note_on_c, 0, 72, 0
1, 1248, Note_on_c, 0, 70, 64
1, 1282, Note_on_c, 0, 70, 0
1, 1284, Note_on_c, 0, 68, 64
1, 1296, Note_on_c, 0, 68, 0
1, 1296, Note_on_c, 0, 65, 64
1, 1296, Note_on_c, 1, 56, 64
1, 1296, Note_on_c, 1, 46, 64
1, 1330, Note_on_c, 0, 65, 0
1, 1332, Note_on_c, 0, 62, 64
1, 1341, Note_on_c, 1, 56, 0
1, 1341, Note_on_c, 1, 46, 0
1, 1344, Note_on_c, 0, 62, 0
1, 1344, Note_on_c, 0, 63, 64
1, 1389, Note_on_c, 0, 63, 0
1, 1392, Note_on_c, 1, 39, 64
1, 1437, Note_on_c, 1, 39, 0
1, 1440, Note_on_c, 1, 43, 64
1, 1485, Note_on_c, 1, 43, 0
1, 1488, Note_on_c, 1, 46, 64
1, 1533, Note_on_c, 1, 46, 0
1, 1536, Note_on_c, 0, 75, 64
1, 1584, Note_on_c, 1, 67, 64
1, 1603, Note_on_c, 0, 75, 0
1, 1608, Note_on_c, 0, 79, 64
1, 1620, Note_on_c, 0, 79, 0
1, 1620, Note_on_c, 0, 82, 64
1, 1629, Note_on_c, 1, 67, 0
1, 1632, Note_on_c, 0, 82, 0
1, 1632, Note_on_c, 0, 70, 64
1, 1632, Note_on_c, 1, 65, 64
1, 1677, Note_on_c, 0, 70, 0
1, 1677, Note_on_c, 1, 65, 0
1, 1680, Note_on_c, 0, 68, 64
1, 1680, Note_on_c, 1, 62, 64
1, 1725, Note_on_c, 0, 68, 0
1, 1725, Note_on_c, 1, 62, 0
1, 1728, Note_on_c, 0, 67, 64
1, 1736, Note_on_c, 0, 67, 0
1, 1736, Note_on_c, 0, 68, 64
1, 1744, Note_on_c, 0, 68, 0
1, 1744, Note_on_c, 0, 70, 64
1, 1752, Note_on_c, 0, 70, 0
1, 1752, Note_on_c, 0, 68, 64
1, 1776, Note_on_c, 1, 51, 64
1, 1819, Note_on_c, 0, 68, 0
1, 1821, Note_on_c, 1, 51, 0
1, 1824, Note_on_c, 0, 67, 64
1, 1824, Note_on_c, 1, 55, 64
1, 1836, Note_on_c, 0, 67, 0
1, 1836, Note_on_c, 0, 68, 64
1, 1848, Note_on_c, 0, 68, 0
1, 1848, Note_on_c, 0, 67, 64
1, 1869, Note_on_c, 0, 67, 0
1, 1869, Note_on_c, 1, 55, 0
1, 1872, Note_on_c, 0, 65, 64
1, 1872, Note_on_c, 1, 58, 64
1, 1917, Note_on_c, 0, 65, 0
1, 1917, Note_on_c, 1, 58, 0
1, 1920, Note_on_c, 0, 63, 64
1, 1920, Note_on_c, 1, 60, 64
1, 1968, Note_on_c, 0, 63, 0
1, 1968, Note_on_c, 0, 68, 64
1, 2013, Note_on_c, 0, 68, 0
1, 2016, Note_on_c, 0, 65, 64
1, 2016, Note_on_c, 1, 60, 0
1, 2016, Note_on_c, 1, 62, 64
1, 2064, Note_on_c, 0, 65, 0
1, 2064, Note_on_c, 0, 70, 64
1, 2105, Note_on_c, 1, 62, 0
1, 2109, Note_on_c, 0, 70, 0
1, 2112, Note_on_c, 0, 68, 64
1, 2160, Note_on_c, 1, 63, 64
1, 2205, Note_on_c, 1, 63, 0
1, 2208, Note_on_c, 0, 68, 0
1, 2208, Note_on_c, 0, 67, 64
1, 2208, Note_on_c, 1, 51, 64
1, 2220, Note_on_c, 0, 67, 0
1, 2220, Note_on_c, 0, 68, 64
1, 2232, Note_on_c, 0, 68, 0
1, 2232, Note_on_c, 0, 67, 64
1, 2253, Note_on_c, 0, 67, 0
1, 2253, Note_on_c, 1, 51, 0
1, 2256, Note_on_c, 0, 65, 64
1, 2256, Note_on_c, 1, 58, 64
1, 2301, Note_on_c, 0, 65, 0
1, 2301, Note_on_c, 1, 58, 0
1, 2304, Note_on_c, 0, 63, 64
1, 2304, Note_on_c, 1, 60, 64
1, 2327, Note_on_c, 0, 63, 0
1, 2328, Note_on_c, 0, 70, 64
1, 2351, Note_on_c, 0, 70, 0
1, 2352, Note_on_c, 0, 68, 64
1, 2375, Note_on_c, 0, 68, 0
1, 2376, Note_on_c, 0, 67, 64
1, 2399, Note_on_c, 0, 67, 0
1, 2400, Note_on_c, 0, 65, 64
1, 2400, Note_on_c, 1, 60, 0
1, 2400, Note_on_c, 1, 62, 64
1, 2423, Note_on_c, 0, 65, 0
1, 2424, Note_on_c, 0, 72, 64
1, 2447, Note_on_c, 0, 72, 0
1, 2448, Note_on_c, 0, 70, 64
1, 2471, Note_on_c, 0, 70, 0
1, 2472, Note_on_c, 0, 68, 64
1, 2489, Note_on_c, 1, 62, 0
1, 2495, Note_on_c, 0, 68, 0
1, 2496, Note_on_c, 0, 67, 64
1, 2496, Note_on_c, 1, 63, 64
1, 2508, Note_on_c, 0, 67, 0
1, 2508, Note_on_c, 0, 70, 64
1, 2520, Note_on_c, 0, 70, 0
1, 2520, Note_on_c, 0, 68, 64
1, 2543, Note_on_c, 0, 68, 0
1, 2544, Note_on_c, 0, 67, 64
1, 2567, Note_on_c, 0, 67, 0
1, 2568, Note_on_c, 0, 79, 64
1, 2585, Note_on_c, 1, 63, 0
1, 2591, Note_on_c, 0, 79, 0
1, 2592, Note_on_c, 0, 74, 64
1, 2604, Note_on_c, 0, 74, 0
1, 2604, Note_on_c, 0, 77, 64
1, 2616, Note_on_c, 0, 77, 0
1, 2616, Note_on_c, 0, 75, 64
1, 2639, Note_on_c, 0, 75, 0
1, 2640, Note_on_c, 1, 63, 64
1, 2640, Note_on_c, 1, 58, 64
1, 2640, Note_on_c, 1, 55, 64
1, 2664, Note_on_c, 0, 75, 64
1, 2685, Note_on_c, 1, 63, 0
1, 2685, Note_on_c, 1, 58, 0
1, 2685, Note_on_c, 1, 55, 0
1, 2687, Note_on_c, 0, 75, 0
1, 2688, Note_on_c, 0, 71, 64
1, 2700, Note_on_c, 0, 71, 0
1, 2700, Note_on_c, 0, 74, 64
1, 2712, Note_on_c, 0, 74, 0
1, 2712, Note_on_c, 0, 72, 64
1, 2735, Note_on_c, 0, 72, 0
1, 2736, Note_on_c, 1, 63, 64
1, 2736, Note_on_c, 1, 60, 64
1, 2736, Note_on_c, 1, 56, 64
1, 2760, Note_on_c, 0, 72, 64
1, 2781, Note_on_c, 1, 63, 0
1, 2781, Note_on_c, 1, 60, 0
1, 2781, Note_on_c, 1, 56, 0
1, 2783, Note_on_c, 0, 72, 0
1, 2784, Note_on_c, 0, 67, 64
1, 2796, Note_on_c, 0, 67, 0
1, 2796, Note_on_c, 0, 70, 64
1, 2808, Note_on_c, 0, 70, 0
1, 2808, Note_on_c, 0, 68, 64
1, 2832, Note_on_c, 1, 56, 64
1, 2832, Note_on_c, 1, 46, 64
1, 2853, Note_on_c, 0, 68, 0
1, 2856, Note_on_c, 0, 65, 64
1, 2868, Note_on_c, 0, 65, 0
1, 2868, Note_on_c, 0, 62, 64
1, 2877, Note_on_c, 1, 56, 0
1, 2877, Note_on_c, 1, 46, 0
1, 2880, Note_on_c, 0, 62, 0
1, 2880, Note_on_c, 0, 63, 64
1, 2880, Note_on_c, 1, 55, 64
1, 2880, Note_on_c, 1, 51, 64
1, 2925, Note_on_c, 0, 63, 0
1, 2925, Note_on_c, 1, 55, 0
1, 2925, Note_on_c, 1, 51, 0
1, 2928, Note_on_c, 0, 63, 64
1, 2928, Note_on_c, 1, 60, 64
1, 2928, Note_on_c, 1, 56, 64
1, 2973, Note_on_c, 0, 63, 0
1, 2973, Note_on_c, 1, 60, 0
1, 2973, Note_on_c, 1, 56, 0
1, 2976, Note_on_c, 0, 63, 64
1, 2976, Note_on_c, 1, 58, 64
1, 2976, Note_on_c, 1, 55, 64
1, 3021, Note_on_c, 0, 63, 0
1, 3021, Note_on_c, 1, 58, 0
1, 3021, Note_on_c, 1, 55, 0
1, 3024, Note_on_c, 0, 63, 64
1, 3024, Note_on_c, 1, 56, 64
1, 3024, Note_on_c, 1, 53, 64
1, 3069, Note_on_c, 0, 63, 0
1, 3069, Note_on_c, 1, 56, 0
1, 3069, Note_on_c, 1, 53, 0
1, 3072, Note_on_c, 0, 63, 64
1, 3072, Note_on_c, 1, 55, 64
1, 3072, Note_on_c, 1, 51, 64
1, 3117, Note_on_c, 0, 63, 0
1, 3117, Note_on_c, 1, 55, 0
1, 3117, Note_on_c, 1, 51, 0
1, 3120, Note_on_c, 0, 63, 64
1, 3120, Note_on_c, 1, 60, 64
1, 3120, Note_on_c, 1, 56, 64
1, 3154, Note_on_c, 0, 63, 0
1, 3156, Note_on_c, 0, 63, 64
1, 3165, Note_on_c, 1, 60, 0
1, 3165, Note_on_c, 1, 56, 0
1, 3168, Note_on_c, 0, 63, 0
1, 3168, Note_on_c, 0, 63, 64
1, 3168, Note_on_c, 1, 58, 64
1, 3168, Note_on_c, 1, 55, 64
1, 3202, Note_on_c, 0, 63, 0
1, 3204, Note_on_c, 0, 63, 64
1, 3213, Note_on_c, 1, 58, 0
1, 3213, Note_on_c, 1, 55, 0
1, 3216, Note_on_c, 0, 63, 0
1, 3216, Note_on_c, 0, 63, 64
1, 3216, Note_on_c, 1, 56, 64
1, 3216, Note_on_c, 1, 53, 64
1, 3250, Note_on_c, 0, 63, 0
1, 3252, Note_on_c, 0, 63, 64
1, 3261, Note_on_c, 1, 56, 0
1, 3261, Note_on_c, 1, 53, 0
1, 3264, Note_on_c, 0, 63, 0
1, 3264, Note_on_c, 0, 63, 64
1, 3264, Note_on_c, 1, 55, 64
1, 3264, Note_on_c, 1, 51, 64
1, 3309, Note_on_c, 0, 63, 0
1, 3309, Note_on_c, 1, 55, 0
1, 3309, Note_on_c, 1, 51, 0
1, 3312, Note_on_c, 0, 62, 64
1, 3312, Note_on_c, 1, 60, 64
1, 3312, Note_on_c, 1, 56, 64
1, 3324, Note_on_c, 0, 62, 0
1, 3324, Note_on_c, 0, 63, 64
1, 3336, Note_on_c, 0, 63, 0
1, 3336, Note_on_c, 0, 65, 64
1, 3348, Note_on_c, 0, 65, 0
1, 3348, Note_on_c, 0, 63, 64
1, 3357, Note_on_c, 1, 60, 0
1, 3357, Note_on_c, 1, 56, 0
1, 3360, Note_on_c, 0, 63, 0
1, 3360, Note_on_c, 0, 62, 64
1, 3360, Note_on_c, 1, 58, 64
1, 3360, Note_on_c, 1, 55, 64
1, 3372, Note_on_c, 0, 62, 0
1, 3372, Note_on_c, 0, 63, 64
1, 3384, Note_on_c, 0, 63, 0
1, 3384, Note_on_c, 0, 65, 64
1, 3396, Note_on_c, 0, 65, 0
1, 3396, Note_on_c, 0, 63, 64
1, 3405, Note_on_c, 1, 58, 0
1, 3405, Note_on_c, 1, 55, 0
1, 3408, Note_on_c, 0, 63, 0
1, 3408, Note_on_c, 0, 62, 64
1, 3408, Note_on_c, 1, 56, 64
1, 3408, Note_on_c, 1, 53, 64
1, 3420, Note_on_c, 0, 62, 0
1, 3420, Note_on_c, 0, 63, 64
1, 3432, Note_on_c, 0, 63, 0
1, 3432, Note_on_c, 0, 65, 64
1, 3444, Note_on_c, 0, 65, 0
1, 3444, Note_on_c, 0, 63, 64
1, 3453, Note_on_c, 1, 56, 0
1, 3453, Note_on_c, 1, 53, 0
1, 3456, Note_on_c, 0, 63, 0
1, 3456, Note_on_c, 0, 62, 64
1, 3456, Note_on_c, 1, 55, 64
1, 3456, Note_on_c, 1, 51, 64
1, 3468, Note_on_c, 0, 62, 0
1, 3468, Note_on_c, 0, 63, 64
1, 3480, Note_on_c, 0, 63, 0
1, 3480, Note_on_c, 0, 65, 64
1, 3492, Note_on_c, 0, 65, 0
1, 3492, Note_on_c, 0, 67, 64
1, 3504, Note_on_c, 0, 67, 0
1, 3504, Note_on_c, 0, 68, 64
1, 3516, Note_on_c, 0, 68, 0
1, 3516, Note_on_c, 0, 70, 64
1, 3528, Note_on_c, 0, 70, 0
1, 3528, Note_on_c, 0, 72, 64
1, 3540, Note_on_c, 0, 72, 0
1, 3540, Note_on_c, 0, 74, 64
1, 3545, Note_on_c, 1, 55, 0
1, 3545, Note_on_c, 1, 51, 0
1, 3552, Note_on_c, 0, 74, 0
1, 3552, Note_on_c, 0, 75, 64
1, 3564, Note_on_c, 0, 75, 0
1, 3564, Note_on_c, 0, 77, 64
1, 3576, Note_on_c, 0, 77, 0
1, 3576, Note_on_c, 0, 79, 64
1, 3588, Note_on_c, 0, 79, 0
1, 3588, Note_on_c, 0, 80, 64
1, 3600, Note_on_c, 0, 80, 0
1, 3600, Note_on_c, 0, 82, 64
1, 3612, Note_on_c, 0, 82, 0
1, 3612, Note_on_c, 0, 80, 64
1, 3624, Note_on_c, 0, 80, 0
1, 3624, Note_on_c, 0, 79, 64
1, 3636, Note_on_c, 0, 79, 0
1, 3636, Note_on_c, 0, 77, 64
1, 3648, Note_on_c, 0, 77, 0
1, 3648, Note_on_c, 0, 75, 64
1, 3648, Note_on_c, 1, 58, 64
1, 3648, Note_on_c, 1, 55, 64
1, 3648, Note_on_c, 1, 51, 64
1, 3660, Note_on_c, 0, 75, 0
1, 3660, Note_on_c, 0, 74, 64
1, 3672, Note_on_c, 0, 74, 0
1, 3672, Note_on_c, 0, 72, 64
1, 3684, Note_on_c, 0, 72, 0
1, 3684, Note_on_c, 0, 70, 64
1, 3696, Note_on_c, 0, 70, 0
1, 3696, Note_on_c, 0, 72, 64
1, 3708, Note_on_c, 0, 72, 0
1, 3708, Note_on_c, 0, 74, 64
1, 3720, Note_on_c, 0, 74, 0
1, 3720, Note_on_c, 0, 75, 64
1, 3732, Note_on_c, 0, 75, 0
1, 3732, Note_on_c, 0, 77, 64
1, 3737, Note_on_c, 1, 58, 0
1, 3737, Note_on_c, 1, 55, 0
1, 3737, Note_on_c, 1, 51, 0
1, 3744, Note_on_c, 0, 77, 0
1, 3744, Note_on_c, 0, 79, 64
1, 3756, Note_on_c, 0, 79, 0
1, 3756, Note_on_c, 0, 77, 64
1, 3768, Note_on_c, 0, 77, 0
1, 3768, Note_on_c, 0, 75, 64
1, 3780, Note_on_c, 0, 75, 0
1, 3780, Note_on_c, 0, 74, 64
1, 3792, Note_on_c, 0, 74, 0
1, 3792, Note_on_c, 0, 72, 64
1, 3804, Note_on_c, 0, 72, 0
1, 3804, Note_on_c, 0, 70, 64
1, 3816, Note_on_c, 0, 70, 0
1, 3816, Note_on_c, 0, 68, 64
1, 3828, Note_on_c, 0, 68, 0
1, 3828, Note_on_c, 0, 67, 64
1, 3840, Note_on_c, 0, 67, 0
1, 3840, Note_on_c, 0, 65, 64
1, 3840, Note_on_c, 1, 53, 64
1, 3840, Note_on_c, 1, 48, 64
1, 3840, Note_on_c, 1, 44, 64
1, 3852, Note_on_c, 0, 65, 0
1, 3852, Note_on_c, 0, 67, 64
1, 3864, Note_on_c, 0, 67, 0
1, 3864, Note_on_c, 0, 68, 64
1, 3876, Note_on_c, 0, 68, 0
1, 3876, Note_on_c, 0, 70, 64
1, 3888, Note_on_c, 0, 70, 0
1, 3888, Note_on_c, 0, 72, 64
1, 3900, Note_on_c, 0, 72, 0
1, 3900, Note_on_c, 0, 70, 64
1, 3912, Note_on_c, 0, 70, 0
1, 3912, Note_on_c, 0, 68, 64
1, 3924, Note_on_c, 0, 68, 0
1, 3924, Note_on_c, 0, 67, 64
1, 3929, Note_on_c, 1, 53, 0
1, 3929, Note_on_c, 1, 48, 0
1, 3929, Note_on_c, 1, 44, 0
1, 3936, Note_on_c, 0, 67, 0
1, 3936, Note_on_c, 0, 65, 64
1, 3948, Note_on_c, 0, 65, 0
1, 3948, Note_on_c, 0, 67, 64
1, 3960, Note_on_c, 0, 67, 0
1, 3960, Note_on_c, 0, 65, 64
1, 3972, Note_on_c, 0, 65, 0
1, 3972, Note_on_c, 0, 63, 64
1, 3984, Note_on_c, 0, 63, 0
1, 3984, Note_on_c, 0, 62, 64
1, 3984, Note_on_c, 1, 53, 64
1, 3984, Note_on_c, 1, 48, 64
1, 3984, Note_on_c, 1, 45, 64
1, 3996, Note_on_c, 0, 62, 0
1, 3996, Note_on_c, 0, 63, 64
1, 4008, Note_on_c, 0, 63, 0
1, 4008, Note_on_c, 0, 62, 64
1, 4020, Note_on_c, 0, 62, 0
1, 4020, Note_on_c, 0, 60, 64
1, 4029, Note_on_c, 1, 53, 0
1, 4029, Note_on_c, 1, 48, 0
1, 4029, Note_on_c, 1, 45, 0
1, 4032, Note_on_c, 0, 60, 0
1, 4032, Note_on_c, 0, 58, 64
1, 4032, Note_on_c, 1, 53, 64
1, 4032, Note_on_c, 1, 50, 64
1, 4032, Note_on_c, 1, 46, 64
1, 4055, Note_on_c, 0, 58, 0
1, 4056, Note_on_c, 0, 60, 64
1, 4068, Note_on_c, 0, 60, 0
1, 4068, Note_on_c, 0, 62, 64
1, 4080, Note_on_c, 0, 62, 0
1, 4080, Note_on_c, 0, 63, 64
1, 4092, Note_on_c, 0, 63, 0
1, 4092, Note_on_c, 0, 65, 64
1, 4104, Note_on_c, 0, 65, 0
1, 4104, Note_on_c, 0, 67, 64
1, 4116, Note_on_c, 0, 67, 0
1, 4116, Note_on_c, 0, 69, 64
1, 4121, Note_on_c, 1, 53, 0
1, 4121, Note_on_c, 1, 50, 0
1, 4121, Note_on_c, 1, 46, 0
1, 4128, Note_on_c, 0, 69, 0
1, 4128, Note_on_c, 0, 70, 64
1, 4128, Note_on_c, 1, 58, 64
1, 4143, Note_on_c, 0, 70, 0
1, 4143, Note_on_c, 1, 58, 0
1, 4164, Note_on_c, 0, 70, 64
1, 4164, Note_on_c, 1, 58, 64
1, 4176, Note_on_c, 0, 70, 0
1, 4176, Note_on_c, 0, 65, 64
1, 4176, Note_on_c, 1, 58, 0
1, 4176, Note_on_c, 1, 53, 64
1, 4191, Note_on_c, 0, 65, 0
1, 4191, Note_on_c, 1, 53, 0
1, 4212, Note_on_c, 0, 62, 64
1, 4212, Note_on_c, 1, 50, 64
1, 4224, Note_on_c, 0, 62, 0
1, 4224, Note_on_c, 0, 58, 64
1, 4224, Note_on_c, 1, 50, 0
1, 4224, Note_on_c, 1, 46, 64
1, 4269, Note_on_c, 0, 58, 0
1, 4269, Note_on_c, 1, 46, 0
1, 4320, Note_on_c, 1, 58, 64
1, 4320, Note_on_c, 1, 46, 64
1, 4335, Note_on_c, 1, 58, 0
1, 4335, Note_on_c, 1, 46, 0
1, 4356, Note_on_c, 1, 58, 64
1, 4356, Note_on_c, 1, 46, 64
1, 4368, Note_on_c, 1, 58, 0
1, 4368, Note_on_c, 1, 53, 64
1, 4368, Note_on_c, 1, 46, 0
1, 4368, Note_on_c, 1, 41, 64
1, 4383, Note_on_c, 1, 53, 0
1, 4383, Note_on_c, 1, 41, 0
1, 4404, Note_on_c, 1, 50, 64
1, 4404, Note_on_c, 1, 38, 64
1, 4416, Note_on_c, 1, 50, 0
1, 4416, Note_on_c, 1, 46, 64
1, 4416, Note_on_c, 1, 38, 0
1, 4416, Note_on_c, 1, 34, 64
1, 4461, Note_on_c, 1, 46, 0
1, 4461, Note_on_c, 1, 34, 0
1, 4608, Note_on_c, 0, 82, 64
1, 4656, Note_on_c, 1, 62, 64
1, 4656, Note_on_c, 1, 58, 64
1, 4697, Note_on_c, 0, 82, 0
1, 4701, Note_on_c, 1, 62, 0
1, 4701, Note_on_c, 1, 58, 0
1, 4704, Note_on_c, 0, 77, 64
1, 4704, Note_on_c, 1, 60, 64
1, 4704, Note_on_c, 1, 57, 64
1, 4749, Note_on_c, 1, 60, 0
1, 4749, Note_on_c, 1, 57, 0
1, 4752, Note_on_c, 1, 57, 64
1, 4752, Note_on_c, 1, 53, 64
1, 4771, Note_on_c, 0, 77, 0
1, 4776, Note_on_c, 0, 75, 64
1, 4797, Note_on_c, 1, 57, 0
1, 4797, Note_on_c, 1, 53, 0
1, 4799, Note_on_c, 0, 75, 0
1, 4800, Note_on_c, 0, 75, 64
1, 4848, Note_on_c, 1, 58, 64
1, 4848, Note_on_c, 1, 55, 64
1, 4893, Note_on_c, 1, 58, 0
1, 4893, Note_on_c, 1, 55, 0
1, 4896, Note_on_c, 0, 75, 0
1, 4896, Note_on_c, 0, 74, 64
1, 4896, Note_on_c, 1, 57, 64
1, 4896, Note_on_c, 1, 53, 64
1, 4908, Note_on_c, 0, 74, 0
1, 4908, Note_on_c, 0, 75, 64
1, 4920, Note_on_c, 0, 75, 0
1, 4920, Note_on_c, 0, 74, 64
1, 4941, Note_on_c, 0, 74, 0
1, 4941, Note_on_c, 1, 57, 0
1, 4941, Note_on_c, 1, 53, 0
1, 4944, Note_on_c, 0, 72, 64
1, 4944, Note_on_c, 1, 55, 64
1, 4944, Note_on_c, 1, 51, 64
1, 4989, Note_on_c, 0, 72, 0
1, 4989, Note_on_c, 1, 55, 0
1, 4989, Note_on_c, 1, 51, 0
1, 4992, Note_on_c, 0, 70, 64
1, 4992, Note_on_c, 1, 53, 64
1, 4992, Note_on_c, 1, 50, 64
1, 4992, Note_on_c, 1, 50, 64
1, 5012, Note_on_c, 0, 70, 0
1, 5040, Note_on_c, 0, 70, 64
1, 5060, Note_on_c, 0, 70, 0
1, 5081, Note_on_c, 1, 53, 0
1, 5081, Note_on_c, 1, 50, 0
1, 5081, Note_on_c, 1, 50, 0
1, 5088, Note_on_c, 0, 70, 64
1, 5108, Note_on_c, 0, 70, 0
1, 5136, Note_on_c, 0, 70, 64
1, 5136, Note_on_c, 1, 65, 64
1, 5136, Note_on_c, 1, 62, 64
1, 5156, Note_on_c, 0, 70, 0
1, 5181, Note_on_c, 1, 65, 0
1, 5181, Note_on_c, 1, 62, 0
1, 5184, Note_on_c, 0, 72, 64
1, 5184, Note_on_c, 1, 65, 64
1, 5184, Note_on_c, 1, 63, 64
1, 5207, Note_on_c, 0, 72, 0
1, 5208, Note_on_c, 0, 74, 64
1, 5229, Note_on_c, 1, 65, 0
1, 5229, Note_on_c, 1, 63, 0
1, 5231, Note_on_c, 0, 74, 0
1, 5232, Note_on_c, 0, 75, 64
1, 5232, Note_on_c, 1, 65, 64
1, 5232, Note_on_c, 1, 63, 64
1, 5255, Note_on_c, 0, 75, 0
1, 5256, Note_on_c, 0, 69, 64
1, 5277, Note_on_c, 1, 65, 0
1, 5277, Note_on_c, 1, 63, 0
1, 5279, Note_on_c, 0, 69, 0
1, 5280, Note_on_c, 0, 70, 64
1, 5280, Note_on_c, 1, 62, 64
1, 5303, Note_on_c, 1, 62, 0
1, 5304, Note_on_c, 1, 65, 64
1, 5325, Note_on_c, 0, 70, 0
1, 5327, Note_on_c, 1, 65, 0
1, 5328, Note_on_c, 0, 70, 64
1, 5328, Note_on_c, 1, 62, 64
1, 5351, Note_on_c, 1, 62, 0
1, 5352, Note_on_c, 1, 65, 64
1, 5373, Note_on_c, 0, 70, 0
1, 5375, Note_on_c, 1, 65, 0
1, 5376, Note_on_c, 0, 72, 64
1, 5376, Note_on_c, 1, 63, 64
1, 5399, Note_on_c, 0, 72, 0
1, 5399, Note_on_c, 1, 63, 0
1, 5400, Note_on_c, 0, 74, 65
1, 5400, Note_on_c, 1, 65, 65
1, 5423, Note_on_c, 0, 74, 0
1, 5423, Note_on_c, 1, 65, 0
1, 5424, Note_on_c, 0, 75, 66
1, 5424, Note_on_c, 1, 63, 66
1, 5447, Note_on_c, 0, 75, 0
1, 5447, Note_on_c, 1, 63, 0
1, 5448, Note_on_c, 0, 69, 67
1, 5448, Note_on_c, 1, 65, 67
1, 5471, Note_on_c, 0, 69, 0
1, 5471, Note_on_c, 1, 65, 0
1, 5472, Note_on_c, 0, 70, 68
1, 5472, Note_on_c, 1, 62, 68
1, 5495, Note_on_c, 0, 70, 0
1, 5495, Note_on_c, 1, 62, 0
1, 5496, Note_on_c, 0, 72, 70
1, 5496, Note_on_c, 1, 65, 70
1, 5519, Note_on_c, 0, 72, 0
1, 5519, Note_on_c, 1, 65, 0
1, 5520, Note_on_c, 0, 74, 71
1, 5520, Note_on_c, 1, 62, 71
1, 5543, Note_on_c, 0, 74, 0
1, 5543, Note_on_c, 1, 62, 0
1, 5544, Note_on_c, 0, 70, 72
1, 5544, Note_on_c, 1, 65, 72
1, 5567, Note_on_c, 0, 70, 0
1, 5567, Note_on_c, 1, 65, 0
1, 5568, Note_on_c, 0, 72, 73
1, 5568, Note_on_c, 1, 63, 73
1, 5591, Note_on_c, 0, 72, 0
1, 5591, Note_on_c, 1, 63, 0
1, 5592, Note_on_c, 0, 74, 75
1, 5592, Note_on_c, 1, 65, 75
1, 5615, Note_on_c, 0, 74, 0
1, 5615, Note_on_c, 1, 65, 0
1, 5616, Note_on_c, 0, 75, 76
1, 5616, Note_on_c, 1, 63, 76
1, 5639, Note_on_c, 0, 75, 0
1, 5639, Note_on_c, 1, 63, 0
1, 5640, Note_on_c, 0, 69, 77
1, 5640, Note_on_c, 1, 65, 77
1, 5663, Note_on_c, 0, 69, 0
1, 5663, Note_on_c, 1, 65, 0
1, 5664, Note_on_c, 0, 70, 78
1, 5664, Note_on_c, 1, 62, 78
1, 5687, Note_on_c, 0, 70, 0
1, 5687, Note_on_c, 1, 62, 0
1, 5688, Note_on_c, 0, 72, 80
1, 5688, Note_on_c, 1, 65, 80
1, 5711, Note_on_c, 0, 72, 0
1, 5711, Note_on_c, 1, 65, 0
1, 5712, Note_on_c, 0, 74, 81
1, 5712, Note_on_c, 1, 62, 81
1, 5735, Note_on_c, 0, 74, 0
1, 5735, Note_on_c, 1, 62, 0
1, 5736, Note_on_c, 0, 70, 82
1, 5736, Note_on_c, 1, 65, 82
1, 5759, Note_on_c, 0, 70, 0
1, 5759, Note_on_c, 1, 65, 0
1, 5760, Note_on_c, 0, 72, 83
1, 5760, Note_on_c, 1, 63, 83
1, 5783, Note_on_c, 0, 72, 0
1, 5783, Note_on_c, 1, 63, 0
1, 5784, Note_on_c, 0, 74, 85
1, 5784, Note_on_c, 1, 65, 85
1, 5807, Note_on_c, 0, 74, 0
1, 5807, Note_on_c, 1, 65, 0
1, 5808, Note_on_c, 0, 75, 85
1, 5808, Note_on_c, 1, 63, 85
1, 5831, Note_on_c, 0, 75, 0
1, 5831, Note_on_c, 1, 63, 0
1, 5832, Note_on_c, 0, 69, 85
1, 5832, Note_on_c, 1, 65, 85
1, 5855, Note_on_c, 0, 69, 0
1, 5855, Note_on_c, 1, 65, 0
1, 5856, Note_on_c, 0, 70, 85
1, 5856, Note_on_c, 1, 62, 85
1, 5879, Note_on_c, 1, 62, 0
1, 5880, Note_on_c, 1, 65, 85
1, 5901, Note_on_c, 0, 70, 0
1, 5903, Note_on_c, 1, 65, 0
1, 5904, Note_on_c, 0, 77, 85
1, 5904, Note_on_c, 1, 62, 85
1, 5927, Note_on_c, 1, 62, 0
1, 5928, Note_on_c, 1, 65, 85
1, 5949, Note_on_c, 0, 77, 0
1, 5951, Note_on_c, 1, 65, 0
1, 5952, Note_on_c, 0, 77, 85
1, 5952, Note_on_c, 0, 70, 64
1, 5952, Note_on_c, 1, 67, 85
1, 5952, Note_on_c, 1, 60, 64
1, 5975, Note_on_c, 0, 70, 0
1, 5976, Note_on_c, 0, 72, 64
1, 5999, Note_on_c, 0, 72, 0
1, 6000, Note_on_c, 0, 73, 64
1, 6023, Note_on_c, 0, 73, 0
1, 6024, Note_on_c, 0, 69, 64
1, 6041, Note_on_c, 0, 77, 0
1, 6047, Note_on_c, 0, 69, 0
1, 6048, Note_on_c, 0, 76, 85
1, 6048, Note_on_c, 0, 70, 64
1, 6071, Note_on_c, 0, 70, 0
1, 6072, Note_on_c, 0, 73, 64
1, 6095, Note_on_c, 0, 73, 0
1, 6096, Note_on_c, 0, 72, 64
1, 6119, Note_on_c, 0, 72, 0
1, 6120, Note_on_c, 0, 70, 64
1, 6129, Note_on_c, 1, 67, 0
1, 6129, Note_on_c, 1, 60, 0
1, 6137, Note_on_c, 0, 76, 0
1, 6143, Note_on_c, 0, 70, 0
1, 6144, Note_on_c, 0, 75, 85
1, 6144, Note_on_c, 1, 70, 85
1, 6144, Note_on_c, 1, 65, 64
1, 6167, Note_on_c, 0, 75, 0
1, 6168, Note_on_c, 0, 77, 85
1, 6191, Note_on_c, 0, 77, 0
1, 6192, Note_on_c, 0, 79, 85
1, 6215, Note_on_c, 0, 79, 0
1, 6216, Note_on_c, 0, 74, 85
1, 6233, Note_on_c, 1, 70, 0
1, 6239, Note_on_c, 0, 74, 0
1, 6240, Note_on_c, 0, 75, 85
1, 6240, Note_on_c, 1, 69, 85
1, 6263, Note_on_c, 0, 75, 0
1, 6264, Note_on_c, 0, 84, 85
1, 6287, Note_on_c, 0, 84, 0
1, 6288, Note_on_c, 0, 81, 85
1, 6311, Note_on_c, 0, 81, 0
1, 6312, Note_on_c, 0, 75, 85
1, 6321, Note_on_c, 1, 65, 0
1, 6329, Note_on_c, 1, 69, 0
1, 6335, Note_on_c, 0, 75, 0
1, 6336, Note_on_c, 0, 74, 85
1, 6336, Note_on_c, 1, 70, 85
1, 6336, Note_on_c, 1, 65, 64
1, 6359, Note_on_c, 0, 74, 0
1, 6360, Note_on_c, 0, 75, 82
1, 6383, Note_on_c, 0, 75, 0
1, 6384, Note_on_c, 0, 77, 80
1, 6407, Note_on_c, 0, 77, 0
1, 6408, Note_on_c, 0, 73, 78
1, 6431, Note_on_c, 0, 73, 0
1, 6432, Note_on_c, 0, 74, 75
1, 6455, Note_on_c, 0, 74, 0
1, 6456, Note_on_c, 0, 82, 73
1, 6479, Note_on_c, 0, 82, 0
1, 6480, Note_on_c, 0, 81, 71
1, 6503, Note_on_c, 0, 81, 0
1, 6504, Note_on_c, 0, 84, 68
1, 6513, Note_on_c, 1, 70, 0
1, 6513, Note_on_c, 1, 65, 0
1, 6527, Note_on_c, 0, 84, 0
1, 6528, Note_on_c, 0, 82, 66
1, 6528, Note_on_c, 1, 70, 74
1, 6528, Note_on_c, 1, 64, 64
1, 6551, Note_on_c, 0, 82, 0
1, 6552, Note_on_c, 0, 85, 64
1, 6575, Note_on_c, 0, 85, 0
1, 6576, Note_on_c, 0, 84, 64
1, 6599, Note_on_c, 0, 84, 0
1, 6600, Note_on_c, 0, 87, 64
1, 6623, Note_on_c, 0, 87, 0
1, 6624, Note_on_c, 0, 85, 64
1, 6669, Note_on_c, 0, 85, 0
1, 6672, Note_on_c, 0, 73, 64
1, 6705, Note_on_c, 1, 70, 0
1, 6705, Note_on_c, 1, 64, 0
1, 6717, Note_on_c, 0, 73, 0
1, 6720, Note_on_c, 0, 75, 64
1, 6720, Note_on_c, 1, 70, 64
1, 6720, Note_on_c, 1, 65, 64
1, 6728, Note_on_c, 0, 75, 0
1, 6728, Note_on_c, 0, 73, 64
1, 6736, Note_on_c, 0, 73, 0
1, 6736, Note_on_c, 0, 75, 64
1, 6744, Note_on_c, 0, 75, 0
1, 6744, Note_on_c, 0, 73, 64
1, 6752, Note_on_c, 0, 73, 0
1, 6752, Note_on_c, 0, 75, 64
1, 6760, Note_on_c, 0, 75, 0
1, 6760, Note_on_c, 0, 73, 64
1, 6765, Note_on_c, 1, 70, 0
1, 6768, Note_on_c, 0, 73, 0
1, 6768, Note_on_c, 0, 72, 64
1, 6768, Note_on_c, 1, 69, 64
1, 6809, Note_on_c, 1, 65, 0
1, 6813, Note_on_c, 0, 72, 0
1, 6813, Note_on_c, 1, 69, 0
1, 6888, Note_on_c, 0, 62, 85
1, 6900, Note_on_c, 0, 62, 0
1, 6900, Note_on_c, 0, 65, 85
1, 6912, Note_on_c, 0, 65, 0
1, 6912, Note_on_c, 0, 70, 85
1, 6912, Note_on_c, 1, 58, 85
1, 6912, Note_on_c, 1, 53, 85
1, 6912, Note_on_c, 1, 50, 85
1, 6912, Note_on_c, 1, 46, 85
1, 6957, Note_on_c, 1, 58, 0
1, 6957, Note_on_c, 1, 53, 0
1, 6957, Note_on_c, 1, 50, 0
1, 6957, Note_on_c, 1, 46, 0
1, 6979, Note_on_c, 0, 70, 0
1, 6984, Note_on_c, 0, 65, 85
1, 6996, Note_on_c, 0, 65, 0
1, 6996, Note_on_c, 0, 70, 85
1, 7008, Note_on_c, 0, 70, 0
1, 7008, Note_on_c, 0, 74, 85
1, 7008, Note_on_c, 1, 58, 85
1, 7008, Note_on_c, 1, 53, 85
1, 7008, Note_on_c, 1, 50, 85
1, 7008, Note_on_c, 1, 46, 85
1, 7053, Note_on_c, 1, 58, 0
1, 7053, Note_on_c, 1, 53, 0
1, 7053, Note_on_c, 1, 50, 0
1, 7053, Note_on_c, 1, 46, 0
1, 7075, Note_on_c, 0, 74, 0
1, 7080, Note_on_c, 0, 70, 85
1, 7092, Note_on_c, 0, 70, 0
1, 7092, Note_on_c, 0, 74, 85
1, 7104, Note_on_c, 0, 74, 0
1, 7104, Note_on_c, 0, 77, 85
1, 7104, Note_on_c, 1, 58, 85
1, 7104, Note_on_c, 1, 53, 85
1, 7104, Note_on_c, 1, 50, 85
1, 7104, Note_on_c, 1, 46, 85
1, 7149, Note_on_c, 0, 77, 0
1, 7149, Note_on_c, 1, 58, 0
1, 7149, Note_on_c, 1, 53, 0
1, 7149, Note_on_c, 1, 50, 0
1, 7149, Note_on_c, 1, 46, 0
1, 7248, Note_on_c, 0, 82, 64
1, 7282, Note_on_c, 0, 82, 0
1, 7284, Note_on_c, 0, 84, 64
1, 7290, Note_on_c, 0, 84, 0
1, 7290, Note_on_c, 0, 86, 64
1, 7296, Note_on_c, 0, 86, 0
1, 7296, Note_on_c, 0, 77, 64
1, 7296, Note_on_c, 1, 74, 64
1, 7296, Note_on_c, 1, 70, 64
1, 7316, Note_on_c, 0, 77, 0
1, 7341, Note_on_c, 1, 74, 0
1, 7341, Note_on_c, 1, 70, 0
1, 7344, Note_on_c, 0, 82, 64
1, 7378, Note_on_c, 0, 82, 0
1, 7380, Note_on_c, 0, 84, 64
1, 7386, Note_on_c, 0, 84, 0
1, 7386, Note_on_c, 0, 86, 64
1, 7392, Note_on_c, 0, 86, 0
1, 7392, Note_on_c, 0, 76, 64
1, 7392, Note_on_c, 1, 72, 64
1, 7392, Note_on_c, 1, 70, 64
1, 7412, Note_on_c, 0, 76, 0
1, 7437, Note_on_c, 1, 72, 0
1, 7437, Note_on_c, 1, 70, 0
1, 7440, Note_on_c, 0, 81, 64
1, 7474, Note_on_c, 0, 81, 0
1, 7476, Note_on_c, 0, 82, 64
1, 7482, Note_on_c, 0, 82, 0
1, 7482, Note_on_c, 0, 84, 64
1, 7488, Note_on_c, 0, 84, 0
1, 7488, Note_on_c, 0, 75, 64
1, 7488, Note_on_c, 1, 72, 64
1, 7488, Note_on_c, 1, 69, 64
1, 7536, Note_on_c, 1, 66, 64
1, 7581, Note_on_c, 1, 66, 0
1, 7584, Note_on_c, 1, 65, 64
1, 7621, Note_on_c, 1, 72, 0
1, 7621, Note_on_c, 1, 69, 0
1, 7629, Note_on_c, 1, 65, 0
1, 7632, Note_on_c, 0, 75, 0
1, 7632, Note_on_c, 0, 74, 64
1, 7632, Note_on_c, 1, 70, 64
1, 7632, Note_on_c, 1, 70, 64
1, 7677, Note_on_c, 0, 74, 0
1, 7677, Note_on_c, 1, 70, 0
1, 7677, Note_on_c, 1, 70, 0
1, 7680, Note_on_c, 0, 74, 64
1, 7680, Note_on_c, 1, 70, 64
1, 7680, Note_on_c, 1, 63, 64
1, 7714, Note_on_c, 0, 74, 0
1, 7716, Note_on_c, 0, 72, 64
1, 7728, Note_on_c, 0, 72, 0
1, 7728, Note_on_c, 0, 75, 64
1, 7762, Note_on_c, 0, 75, 0
1, 7764, Note_on_c, 0, 79, 64
1, 7769, Note_on_c, 1, 70, 0
1, 7769, Note_on_c, 1, 63, 0
1, 7776, Note_on_c, 0, 79, 0
1, 7776, Note_on_c, 0, 77, 64
1, 7776, Note_on_c, 1, 69, 64
1, 7821, Note_on_c, 0, 77, 0
1, 7821, Note_on_c, 1, 69, 0
1, 7824, Note_on_c, 0, 75, 64
1, 7824, Note_on_c, 0, 72, 64
1, 7824, Note_on_c, 1, 66, 64
1, 7869, Note_on_c, 0, 75, 0
1, 7869, Note_on_c, 0, 72, 0
1, 7869, Note_on_c, 1, 66, 0
1, 7872, Tempo, 1714285
1, 7872, Note_on_c, 0, 74, 64
1, 7872, Note_on_c, 0, 72, 64
1, 7872, Note_on_c, 1, 67, 64
1, 7876, Note_on_c, 0, 74, 0
1, 7876, Note_on_c, 0, 75, 64
1, 7880, Note_on_c, 0, 75, 0
1, 7880, Note_on_c, 0, 77, 64
1, 7884, Note_on_c, 0, 77, 0
1, 7884, Note_on_c, 0, 75, 64
1, 7884, Note_on_c, 0, 72, 0
1, 7884, Note_on_c, 0, 72, 64
1, 7918, Note_on_c, 0, 75, 0
1, 7918, Note_on_c, 0, 72, 0
1, 7920, Note_on_c, 0, 74, 64
1, 7920, Note_on_c, 0, 70, 64
1, 7961, Note_on_c, 1, 67, 0
1, 7965, Note_on_c, 0, 74, 0
1, 7965, Note_on_c, 0, 70, 0
1, 8016, Tempo, 731707
1, 8016, Note_on_c, 0, 82, 64
1, 8050, Note_on_c, 0, 82, 0
1, 8052, Note_on_c, 0, 84, 64
1, 8058, Note_on_c, 0, 84, 0
1, 8058, Note_on_c, 0, 86, 64
1, 8064, Note_on_c, 0, 86, 0
1, 8064, Note_on_c, 0, 77, 64
1, 8064, Note_on_c, 1, 74, 64
1, 8064, Note_on_c, 1, 70, 64
1, 8084, Note_on_c, 0, 77, 0
1, 8109, Note_on_c, 1, 74, 0
1, 8109, Note_on_c, 1, 70, 0
1, 8112, Note_on_c, 0, 82, 64
1, 8146, Note_on_c, 0, 82, 0
1, 8148, Note_on_c, 0, 84, 64
1, 8154, Note_on_c, 0, 84, 0
1, 8154, Note_on_c, 0, 86, 64
1, 8160, Note_on_c, 0, 86, 0
1, 8160, Note_on_c, 0, 76, 64
1, 8160, Note_on_c, 1, 72, 64
1, 8160, Note_on_c, 1, 70, 64
1, 8180, Note_on_c, 0, 76, 0
1, 8205, Note_on_c, 1, 72, 0
1, 8205, Note_on_c, 1, 70, 0
1, 8208, Note_on_c, 0, 81, 64
1, 8242, Note_on_c, 0, 81, 0
1, 8244, Note_on_c, 0, 82, 64
1, 8250, Note_on_c, 0, 82, 0
1, 8250, Note_on_c, 0, 84, 64
1, 8256, Note_on_c, 0, 84, 0
1, 8256, Note_on_c, 0, 75, 64
1, 8256, Note_on_c, 1, 72, 64
1, 8256, Note_on_c, 1, 69, 64
1, 8304, Note_on_c, 1, 66, 64
1, 8349, Note_on_c, 1, 66, 0
1, 8352, Note_on_c, 1, 65, 64
1, 8389, Note_on_c, 1, 72, 0
1, 8389, Note_on_c, 1, 69, 0
1, 8397, Note_on_c, 1, 65, 0
1, 8400, Note_on_c, 0, 75, 0
1, 8400, Note_on_c, 0, 74, 64
1, 8400, Note_on_c, 1, 70, 64
1, 8400, Note_on_c, 1, 70, 64
1, 8445, Note_on_c, 0, 74, 0
1, 8445, Note_on_c, 1, 70, 0
1, 8445, Note_on_c, 1, 70, 0
1, 8448, Note_on_c, 0, 79, 64
1, 8448, Note_on_c, 1, 70, 64
1, 8448, Note_on_c, 1, 63, 64
1, 8493, Note_on_c, 1, 70, 0
1, 8496, Note_on_c, 1, 71, 64
1, 8544, Note_on_c, 1, 71, 0
1, 8544, Note_on_c, 1, 72, 64
1, 8592, Note_on_c, 0, 79, 0
1, 8592, Note_on_c, 0, 84, 64
1, 8625, Note_on_c, 1, 63, 0
1, 8637, Note_on_c, 0, 84, 0
1, 8640, Note_on_c, 0, 82, 58
1, 8640, Note_on_c, 1, 65, 64
1, 8677, Note_on_c, 1, 72, 0
1, 8688, Note_on_c, 1, 72, 58
1, 8736, Note_on_c, 1, 75, 58
1, 8781, Note_on_c, 0, 82, 0
1, 8784, Note_on_c, 0, 81, 58
1, 8796, Note_on_c, 0, 81, 0
1, 8796, Note_on_c, 0, 82, 58
1, 8808, Note_on_c, 0, 82, 0
1, 8808, Note_on_c, 0, 84, 58
1, 8820, Note_on_c, 0, 84, 0
1, 8820, Note_on_c, 0, 86, 58
1, 8832, Note_on_c, 0, 86, 0
1, 8832, Note_on_c, 0, 87, 58
1, 8852, Note_on_c, 0, 87, 0
1, 8880, Note_on_c, 0, 87, 58
1, 8892, Note_on_c, 0, 87, 0
1, 8892, Note_on_c, 0, 86, 58
1, 8904, Note_on_c, 0, 86, 0
1, 8904, Note_on_c, 0, 84, 58
1, 8916, Note_on_c, 0, 84, 0
1, 8916, Note_on_c, 0, 82, 58
1, 8928, Note_on_c, 0, 82, 0
1, 8928, Note_on_c, 0, 81, 58
1, 8948, Note_on_c, 0, 81, 0
1, 8976, Note_on_c, 0, 81, 58
1, 8988, Note_on_c, 0, 81, 0
1, 8988, Note_on_c, 0, 82, 58
1, 9000, Note_on_c, 0, 82, 0
1, 9000, Note_on_c, 0, 84, 58
1, 9012, Note_on_c, 0, 84, 0
1, 9012, Note_on_c, 0, 86, 58
1, 9024, Note_on_c, 0, 86, 0
1, 9024, Note_on_c, 0, 87, 58
1, 9044, Note_on_c, 0, 87, 0
1, 9069, Note_on_c, 1, 75, 0
1, 9069, Note_on_c, 1, 72, 0
1, 9069, Note_on_c, 1, 65, 0
1, 9216, Note_on_c, 0, 86, 85
1, 9216, Note_on_c, 1, 58, 85
1, 9216, Note_on_c, 1, 53, 85
1, 9216, Note_on_c, 1, 50, 85
1, 9216, Note_on_c, 1, 46, 85
1, 9228, Note_on_c, 0, 86, 0
1, 9228, Note_on_c, 0, 84, 85
1, 9240, Note_on_c, 0, 84, 0
1, 9240, Note_on_c, 0, 82, 85
1, 9252, Note_on_c, 0, 82, 0
1, 9252, Note_on_c, 0, 81, 85
1, 9264, Note_on_c, 0, 81, 0
1, 9264, Note_on_c, 0, 82, 85
1, 9276, Note_on_c, 0, 82, 0
1, 9276, Note_on_c, 0, 81, 85
1, 9288, Note_on_c, 0, 81, 0
1, 9288, Note_on_c, 0, 79, 85
1, 9300, Note_on_c, 0, 79, 0
1, 9300, Note_on_c, 0, 77, 85
1, 9305, Note_on_c, 1, 58, 0
1, 9305, Note_on_c, 1, 53, 0
1, 9305, Note_on_c, 1, 50, 0
1, 9305, Note_on_c, 1, 46, 0
1, 9312, Note_on_c, 0, 77, 0
1, 9312, Note_on_c, 0, 75, 85
1, 9324, Note_on_c, 0, 75, 0
1, 9324, Note_on_c, 0, 74, 85
1, 9336, Note_on_c, 0, 74, 0
1, 9336, Note_on_c, 0, 72, 85
1, 9348, Note_on_c, 0, 72, 0
1, 9348, Note_on_c, 0, 70, 85
1, 9360, Note_on_c, 0, 70, 0
1, 9360, Note_on_c, 0, 69, 85
1, 9372, Note_on_c, 0, 69, 0
1, 9372, Note_on_c, 0, 70, 85
1, 9384, Note_on_c, 0, 70, 0
1, 9384, Note_on_c, 0, 69, 85
1, 9396, Note_on_c, 0, 69, 0
1, 9396, Note_on_c, 0, 70, 85
1, 9408, Note_on_c, 0, 70, 0
1, 9408, Note_on_c, 0, 86, 85
1, 9408, Note_on_c, 1, 55, 85
1, 9408, Note_on_c, 1, 50, 85
1, 9408, Note_on_c, 1, 46, 85
1, 9408, Note_on_c, 1, 43, 85
1, 9420, Note_on_c, 0, 86, 0
1, 9420, Note_on_c, 0, 84, 85
1, 9432, Note_on_c, 0, 84, 0
1, 9432, Note_on_c, 0, 82, 85
1, 9444, Note_on_c, 0, 82, 0
1, 9444, Note_on_c, 0, 81, 85
1, 9456, Note_on_c, 0, 81, 0
1, 9456, Note_on_c, 0, 82, 85
1, 9468, Note_on_c, 0, 82, 0
1, 9468, Note_on_c, 0, 81, 85
1, 9480, Note_on_c, 0, 81, 0
1, 9480, Note_on_c, 0, 79, 85
1, 9492, Note_on_c, 0, 79, 0
1, 9492, Note_on_c, 0, 77, 85
1, 9497, Note_on_c, 1, 55, 0
1, 9497, Note_on_c, 1, 50, 0
1, 9497, Note_on_c, 1, 46, 0
1, 9497, Note_on_c, 1, 43, 0
1, 9504, Note_on_c, 0, 77, 0
1, 9504, Note_on_c, 0, 75, 85
1, 9516, Note_on_c, 0, 75, 0
1, 9516, Note_on_c, 0, 74, 85
1, 9528, Note_on_c, 0, 74, 0
1, 9528, Note_on_c, 0, 72, 85
1, 9540, Note_on_c, 0, 72, 0
1, 9540, Note_on_c, 0, 70, 85
1, 9552, Note_on_c, 0, 70, 0
1, 9552, Note_on_c, 0, 69, 85
1, 9564, Note_on_c, 0, 69, 0
1, 9564, Note_on_c, 0, 70, 85
1, 9576, Note_on_c, 0, 70, 0
1, 9576, Note_on_c, 0, 69, 85
1, 9588, Note_on_c, 0, 69, 0
1, 9588, Note_on_c, 0, 70, 85
1, 9600, Note_on_c, 0, 70, 0
1, 9600, Note_on_c, 0, 79, 85
1, 9600, Note_on_c, 1, 51, 85
1, 9600, Note_on_c, 1, 48, 85
1, 9600, Note_on_c, 1, 43, 85
1, 9600, Note_on_c, 1, 39, 85
1, 9612, Note_on_c, 0, 79, 0
1, 9612, Note_on_c, 0, 77, 85
1, 9624, Note_on_c, 0, 77, 0
1, 9624, Note_on_c, 0, 75, 85
1, 9636, Note_on_c, 0, 75, 0
1, 9636, Note_on_c, 0, 74, 85
1, 9648, Note_on_c, 0, 74, 0
1, 9648, Note_on_c, 0, 75, 85
1, 9660, Note_on_c, 0, 75, 0
1, 9660, Note_on_c, 0, 74, 85
1, 9672, Note_on_c, 0, 74, 0
1, 9672, Note_on_c, 0, 72, 85
1, 9684, Note_on_c, 0, 72, 0
1, 9684, Note_on_c, 0, 71, 85
1, 9689, Note_on_c, 1, 51, 0
1, 9689, Note_on_c, 1, 48, 0
1, 9689, Note_on_c, 1, 43, 0
1, 9689, Note_on_c, 1, 39, 0
1, 9696, Note_on_c, 0, 71, 0
1, 9696, Note_on_c, 0, 72, 85
1, 9708, Note_on_c, 0, 72, 0
1, 9708, Note_on_c, 0, 74, 85
1, 9720, Note_on_c, 0, 74, 0
1, 9720, Note_on_c, 0, 75, 85
1, 9732, Note_on_c, 0, 75, 0
1, 9732, Note_on_c, 0, 74, 85
1, 9744, Note_on_c, 0, 74, 0
1, 9744, Note_on_c, 0, 72, 85
1, 9756, Note_on_c, 0, 72, 0
1, 9756, Note_on_c, 0, 70, 85
1, 9768, Note_on_c, 0, 70, 0
1, 9768, Note_on_c, 0, 69, 85
1, 9780, Note_on_c, 0, 69, 0
1, 9780, Note_on_c, 0, 67, 85
1, 9792, Note_on_c, 0, 67, 0
1, 9792, Note_on_c, 0, 65, 85
1, 9792, Note_on_c, 1, 62, 85
1, 9792, Note_on_c, 1, 58, 85
1, 9792, Note_on_c, 1, 53, 85
1, 9815, Note_on_c, 0, 65, 0
1, 9816, Note_on_c, 0, 82, 85
1, 9839, Note_on_c, 0, 82, 0
1, 9840, Note_on_c, 0, 82, 85
1, 9863, Note_on_c, 0, 82, 0
1, 9864, Note_on_c, 0, 82, 85
1, 9881, Note_on_c, 1, 62, 0
1, 9881, Note_on_c, 1, 58, 0
1, 9881, Note_on_c, 1, 53, 0
1, 9887, Note_on_c, 0, 82, 0
1, 9888, Note_on_c, 0, 82, 85
1, 9900, Note_on_c, 0, 82, 0
1, 9900, Note_on_c, 0, 84, 85
1, 9912, Note_on_c, 0, 84, 0
1, 9912, Note_on_c, 0, 86, 85
1, 9924, Note_on_c, 0, 86, 0
1, 9924, Note_on_c, 0, 87, 85
1, 9936, Note_on_c, 0, 87, 0
1, 9936, Note_on_c, 0, 89, 85
1, 9946, Note_on_c, 0, 89, 0
1, 9984, Note_on_c, 0, 82, 85
1, 9984, Note_on_c, 1, 74, 85
1, 9984, Note_on_c, 1, 65, 64
1, 9993, Note_on_c, 0, 82, 0
1, 9993, Note_on_c, 0, 81, 85
1, 9993, Note_on_c, 1, 74, 0
1, 9993, Note_on_c, 1, 72, 85
1, 10002, Note_on_c, 0, 81, 0
1, 10002, Note_on_c, 0, 82, 85
1, 10002, Note_on_c, 1, 72, 0
1, 10002, Note_on_c, 1, 74, 85
1, 10011, Note_on_c, 0, 82, 0
1, 10011, Note_on_c, 0, 81, 85
1, 10011, Note_on_c, 1, 74, 0
1, 10011, Note_on_c, 1, 72, 85
1, 10020, Note_on_c, 0, 81, 0
1, 10020, Note_on_c, 0, 82, 85
1, 10020, Note_on_c, 1, 72, 0
1, 10020, Note_on_c, 1, 74, 85
1, 10029, Note_on_c, 0, 82, 0
1, 10029, Note_on_c, 0, 81, 85
1, 10029, Note_on_c, 1, 74, 0
1, 10029, Note_on_c, 1, 72, 85
1, 10038, Note_on_c, 0, 81, 0
1, 10038, Note_on_c, 0, 82, 85
1, 10038, Note_on_c, 1, 72, 0
1, 10038, Note_on_c, 1, 74, 85
1, 10047, Note_on_c, 0, 82, 0
1, 10047, Note_on_c, 0, 81, 85
1, 10047, Note_on_c, 1, 74, 0
1, 10047, Note_on_c, 1, 72, 85
1, 10056, Note_on_c, 0, 81, 0
1, 10056, Note_on_c, 0, 82, 85
1, 10056, Note_on_c, 1, 72, 0
1, 10056, Note_on_c, 1, 74, 85
1, 10065, Note_on_c, 0, 82, 0
1, 10065, Note_on_c, 0, 81, 85
1, 10065, Note_on_c, 1, 74, 0
1, 10065, Note_on_c, 1, 72, 85
1, 10074, Note_on_c, 0, 81, 0
1, 10074, Note_on_c, 0, 82, 85
1, 10074, Note_on_c, 1, 72, 0
1, 10074, Note_on_c, 1, 74, 85
1, 10083, Note_on_c, 0, 82, 0
1, 10083, Note_on_c, 0, 81, 85
1, 10083, Note_on_c, 1, 74, 0
1, 10083, Note_on_c, 1, 72, 85
1, 10092, Note_on_c, 0, 81, 0
1, 10092, Note_on_c, 0, 82, 85
1, 10092, Note_on_c, 1, 72, 0
1, 10092, Note_on_c, 1, 74, 85
1, 10101, Note_on_c, 0, 82, 0
1, 10101, Note_on_c, 0, 81, 85
1, 10101, Note_on_c, 1, 74, 0
1, 10101, Note_on_c, 1, 72, 85
1, 10110, Note_on_c, 0, 81, 0
1, 10110, Note_on_c, 0, 82, 85
1, 10110, Note_on_c, 1, 72, 0
1, 10110, Note_on_c, 1, 74, 85
1, 10119, Note_on_c, 0, 82, 0
1, 10119, Note_on_c, 0, 81, 85
1, 10119, Note_on_c, 1, 74, 0
1, 10119, Note_on_c, 1, 72, 85
1, 10128, Note_on_c, 0, 81, 0
1, 10128, Note_on_c, 0, 82, 85
1, 10128, Note_on_c, 1, 72, 0
1, 10128, Note_on_c, 1, 74, 85
1, 10136, Note_on_c, 0, 82, 0
1, 10136, Note_on_c, 0, 81, 85
1, 10136, Note_on_c, 1, 74, 0
1, 10136, Note_on_c, 1, 72, 85
1, 10144, Note_on_c, 0, 81, 0
1, 10144, Note_on_c, 0, 82, 85
1, 10144, Note_on_c, 1, 72, 0
1, 10144, Note_on_c, 1, 74, 85
1, 10152, Note_on_c, 0, 82, 0
1, 10152, Note_on_c, 0, 81, 85
1, 10152, Note_on_c, 1, 74, 0
1, 10152, Note_on_c, 1, 72, 85
1, 10160, Note_on_c, 0, 81, 0
1, 10160, Note_on_c, 0, 79, 85
1, 10160, Note_on_c, 1, 72, 0
1, 10160, Note_on_c, 1, 70, 85
1, 10161, Note_on_c, 1, 65, 0
1, 10168, Note_on_c, 0, 79, 0
1, 10168, Note_on_c, 0, 81, 85
1, 10168, Note_on_c, 1, 70, 0
1, 10168, Note_on_c, 1, 72, 85
1, 10176, Note_on_c, 0, 81, 0
1, 10176, Note_on_c, 0, 82, 85
1, 10176, Note_on_c, 1, 72, 0
1, 10176, Note_on_c, 1, 74, 85
1, 10176, Note_on_c, 1, 70, 85
1, 10176, Note_on_c, 1, 74, 64
1, 10221, Note_on_c, 0, 82, 0
1, 10221, Note_on_c, 1, 74, 0
1, 10221, Note_on_c, 1, 70, 0
1, 10221, Note_on_c, 1, 74, 0
1, 10224, Note_on_c, 0, 77, 85
1, 10224, Note_on_c, 0, 74, 85
1, 10224, Note_on_c, 0, 70, 85
1, 10224, Note_on_c, 1, 58, 64
1, 10224, Note_on_c, 1, 53, 64
1, 10224, Note_on_c, 1, 50, 64
1, 10244, Note_on_c, 0, 77, 0
1, 10244, Note_on_c, 0, 74, 0
1, 10244, Note_on_c, 0, 70, 0
1, 10244, Note_on_c, 1, 58, 0
1, 10244, Note_on_c, 1, 53, 0
1, 10244, Note_on_c, 1, 50, 0
1, 10272, Note_on_c, 0, 79, 85
1, 10272, Note_on_c, 0, 75, 85
1, 10272, Note_on_c, 0, 70, 85
1, 10272, Note_on_c, 1, 58, 64
1, 10272, Note_on_c, 1, 55, 64
1, 10272, Note_on_c, 1, 51, 64
1, 10292, Note_on_c, 0, 79, 0
1, 10292, Note_on_c, 0, 75, 0
1, 10292, Note_on_c, 0, 70, 0
1, 10292, Note_on_c, 1, 58, 0
1, 10292, Note_on_c, 1, 55, 0
1, 10292, Note_on_c, 1, 51, 0
1, 10320, Note_on_c, 0, 77, 85
1, 10320, Note_on_c, 1, 69, 64
1, 10332, Note_on_c, 0, 77, 0
1, 10332, Note_on_c, 0, 75, 85
1, 10344, Note_on_c, 0, 75, 0
1, 10344, Note_on_c, 0, 74, 85
1, 10356, Note_on_c, 0, 74, 0
1, 10356, Note_on_c, 0, 75, 85
1, 10365, Note_on_c, 1, 69, 0
1, 10368, Note_on_c, 0, 75, 0
1, 10368, Note_on_c, 0, 74, 85
1, 10368, Note_on_c, 1, 70, 85
1, 10368, Note_on_c, 1, 70, 64
1, 10413, Note_on_c, 0, 74, 0
1, 10413, Note_on_c, 1, 70, 0
1, 10413, Note_on_c, 1, 70, 0
1, 10416, Note_on_c, 0, 82, 85
1, 10416, Note_on_c, 0, 77, 85
1, 10416, Note_on_c, 0, 74, 85
1, 10416, Note_on_c, 1, 58, 85
1, 10416, Note_on_c, 1, 53, 85
1, 10416, Note_on_c, 1, 50, 85
1, 10461, Note_on_c, 0, 82, 0
1, 10461, Note_on_c, 0, 77, 0
1, 10461, Note_on_c, 0, 74, 0
1, 10461, Note_on_c, 1, 58, 0
1, 10461, Note_on_c, 1, 53, 0
1, 10461, Note_on_c, 1, 50, 0
1, 10464, Note_on_c, 0, 79, 85
1, 10464, Note_on_c, 0, 75, 85
1, 10464, Note_on_c, 0, 70, 85
1, 10464, Note_on_c, 1, 58, 85
1, 10464, Note_on_c, 1, 55, 85
1, 10464, Note_on_c, 1, 51, 85
1, 10484, Note_on_c, 0, 79, 0
1, 10484, Note_on_c, 0, 75, 0
1, 10484, Note_on_c, 0, 70, 0
1, 10509, Note_on_c, 1, 58, 0
1, 10509, Note_on_c, 1, 55, 0
1, 10509, Note_on_c, 1, 51, 0
1, 10512, Note_on_c, 0, 69, 85
1, 10512, Note_on_c, 0, 65, 85
1, 10512, Note_on_c, 0, 63, 85
1, 10512, Note_on_c, 0, 60, 85
1, 10512, Note_on_c, 1, 57, 85
1, 10512, Note_on_c, 1, 53, 85
1, 10532, Note_on_c, 0, 69, 0
1, 10532, Note_on_c, 0, 65, 0
1, 10532, Note_on_c, 0, 63, 0
1, 10532, Note_on_c, 0, 60, 0
1, 10557, Note_on_c, 1, 57, 0
1, 10557, Note_on_c, 1, 53, 0
1, 10560, Note_on_c, 0, 70, 85
1, 10560, Note_on_c, 0, 65, 85
1, 10560, Note_on_c, 0, 62, 85
1, 10560, Note_on_c, 1, 58, 85
1, 10560, Note_on_c, 1, 53, 85
1, 10560, Note_on_c, 1, 50, 85
1, 10560, Note_on_c, 1, 46, 85
1, 10649, Note_on_c, 0, 70, 0
1, 10649, Note_on_c, 0, 65, 0
1, 10649, Note_on_c, 0, 62, 0
1, 10649, Note_on_c, 1, 58, 0
1, 10649, Note_on_c, 1, 53, 0
1, 10649, Note_on_c, 1, 50, 0
1, 10649, Note_on_c, 1, 46, 0
1, 10752, Note_on_c, 0, 75, 64
1, 10800, Note_on_c, 1, 51, 64
1, 10841, Note_on_c, 0, 75, 0
1, 10845, Note_on_c, 1, 51, 0
1, 10848, Note_on_c, 0, 70, 64
1, 10848, Note_on_c, 1, 50, 64
1, 10893, Note_on_c, 1, 50, 0
1, 10896, Note_on_c, 1, 46, 64
1, 10915, Note_on_c, 0, 70, 0
1, 10920, Note_on_c, 0, 68, 64
1, 10941, Note_on_c, 1, 46, 0
1, 10943, Note_on_c, 0, 68, 0
1, 10944, Note_on_c, 0, 68, 64
1, 10992, Note_on_c, 1, 51, 64
1, 11037, Note_on_c, 1, 51, 0
1, 11040, Note_on_c, 0, 68, 0
1, 11040, Note_on_c, 0, 67, 64
1, 11040, Note_on_c, 1, 55, 64
1, 11052, Note_on_c, 0, 67, 0
1, 11052, Note_on_c, 0, 68, 64
1, 11064, Note_on_c, 0, 68, 0
1, 11064, Note_on_c, 0, 67, 64
1, 11085, Note_on_c, 0, 67, 0
1, 11085, Note_on_c, 1, 55, 0
1, 11088, Note_on_c, 0, 65, 64
1, 11088, Note_on_c, 1, 58, 64
1, 11133, Note_on_c, 0, 65, 0
1, 11133, Note_on_c, 1, 58, 0
1, 11136, Note_on_c, 0, 63, 64
1, 11136, Note_on_c, 1, 60, 64
1, 11184, Note_on_c, 0, 63, 0
1, 11184, Note_on_c, 0, 68, 64
1, 11229, Note_on_c, 0, 68, 0
1, 11232, Note_on_c, 0, 65, 64
1, 11232, Note_on_c, 1, 60, 0
1, 11232, Note_on_c, 1, 62, 64
1, 11280, Note_on_c, 0, 65, 0
1, 11280, Note_on_c, 0, 70, 64
1, 11321, Note_on_c, 1, 62, 0
1, 11325, Note_on_c, 0, 70, 0
1, 11328, Note_on_c, 0, 68, 64
1, 11376, Note_on_c, 1, 63, 64
1, 11421, Note_on_c, 1, 63, 0
1, 11424, Note_on_c, 0, 68, 0
1, 11424, Note_on_c, 0, 67, 64
1, 11424, Note_on_c, 1, 51, 64
1, 11436, Note_on_c, 0, 67, 0
1, 11436, Note_on_c, 0, 68, 64
1, 11448, Note_on_c, 0, 68, 0
1, 11448, Note_on_c, 0, 67, 64
1, 11469, Note_on_c, 0, 67, 0
1, 11469, Note_on_c, 1, 51, 0
1, 11472, Note_on_c, 0, 65, 64
1, 11472, Note_on_c, 1, 58, 64
1, 11517, Note_on_c, 0, 65, 0
1, 11517, Note_on_c, 1, 58, 0
1, 11520, Note_on_c, 0, 63, 64
1, 11520, Note_on_c, 1, 60, 64
1, 11554, Note_on_c, 0, 63, 0
1, 11556, Note_on_c, 0, 68, 64
1, 11568, Note_on_c, 0, 68, 0
1, 11568, Note_on_c, 0, 68, 64
1, 11580, Note_on_c, 0, 68, 0
1, 11580, Note_on_c, 0, 70, 64
1, 11592, Note_on_c, 0, 70, 0
1, 11592, Note_on_c, 0, 68, 64
1, 11613, Note_on_c, 0, 68, 0
1, 11616, Note_on_c, 0, 65, 64
1, 11616, Note_on_c, 1, 60, 0
1, 11616, Note_on_c, 1, 62, 64
1, 11650, Note_on_c, 0, 65, 0
1, 11652, Note_on_c, 0, 70, 64
1, 11664, Note_on_c, 0, 70, 0
1, 11664, Note_on_c, 0, 70, 64
1, 11676, Note_on_c, 0, 70, 0
1, 11676, Note_on_c, 0, 72, 64
1, 11688, Note_on_c, 0, 72, 0
1, 11688, Note_on_c, 0, 70, 64
1, 11705, Note_on_c, 1, 62, 0
1, 11709, Note_on_c, 0, 70, 0
1, 11712, Note_on_c, 0, 68, 64
1, 11712, Note_on_c, 1, 63, 64
1, 11760, Note_on_c, 0, 68, 0
1, 11760, Note_on_c, 0, 67, 64
1, 11794, Note_on_c, 0, 67, 0
1, 11796, Note_on_c, 0, 79, 64
1, 11801, Note_on_c, 1, 63, 0
1, 11808, Note_on_c, 0, 79, 0
1, 11808, Note_on_c, 0, 75, 64
1, 11828, Note_on_c, 0, 75, 0
1, 11856, Note_on_c, 1, 58, 64
1, 11856, Note_on_c, 1, 55, 64
1, 11892, Note_on_c, 0, 75, 64
1, 11901, Note_on_c, 1, 58, 0
1, 11901, Note_on_c, 1, 55, 0
1, 11904, Note_on_c, 0, 75, 0
1, 11904, Note_on_c, 0, 72, 64
1, 11949, Note_on_c, 0, 72, 0
1, 11952, Note_on_c, 1, 60, 64
1, 11952, Note_on_c, 1, 56, 64
1, 11988, Note_on_c, 0, 72, 64
1, 11997, Note_on_c, 1, 60, 0
1, 11997, Note_on_c, 1, 56, 0
1, 12000, Note_on_c, 0, 72, 0
1, 12000, Note_on_c, 0, 70, 64
1, 12034, Note_on_c, 0, 70, 0
1, 12036, Note_on_c, 0, 68, 64
1, 12048, Note_on_c, 0, 68, 0
1, 12048, Note_on_c, 0, 65, 64
1, 12048, Note_on_c, 1, 56, 64
1, 12048, Note_on_c, 1, 46, 64
1, 12082, Note_on_c, 0, 65, 0
1, 12084, Note_on_c, 0, 62, 64
1, 12093, Note_on_c, 1, 56, 0
1, 12093, Note_on_c, 1, 46, 0
1, 12096, Note_on_c, 0, 62, 0
1, 12096, Note_on_c, 0, 63, 64
1, 12141, Note_on_c, 0, 63, 0
1, 12144, Note_on_c, 1, 39, 64
1, 12189, Note_on_c, 1, 39, 0
1, 12192, Note_on_c, 1, 43, 64
1, 12237, Note_on_c, 1, 43, 0
1, 12240, Note_on_c, 1, 46, 64
1, 12285, Note_on_c, 1, 46, 0
1, 12288, Note_on_c, 0, 75, 64
1, 12336, Note_on_c, 1, 67, 64
1, 12355, Note_on_c, 0, 75, 0
1, 12360, Note_on_c, 0, 79, 64
1, 12372, Note_on_c, 0, 79, 0
1, 12372, Note_on_c, 0, 82, 64
1, 12381, Note_on_c, 1, 67, 0
1, 12384, Note_on_c, 0, 82, 0
1, 12384, Note_on_c, 0, 70, 64
1, 12384, Note_on_c, 1, 65, 64
1, 12429, Note_on_c, 0, 70, 0
1, 12429, Note_on_c, 1, 65, 0
1, 12432, Note_on_c, 0, 68, 64
1, 12432, Note_on_c, 1, 62, 64
1, 12477, Note_on_c, 0, 68, 0
1, 12477, Note_on_c, 1, 62, 0
1, 12480, Note_on_c, 0, 67, 64
1, 12488, Note_on_c, 0, 67, 0
1, 12488, Note_on_c, 0, 68, 64
1, 12496, Note_on_c, 0, 68, 0
1, 12496, Note_on_c, 0, 70, 64
1, 12504, Note_on_c, 0, 70, 0
1, 12504, Note_on_c, 0, 68, 64
1, 12528, Note_on_c, 1, 51, 64
1, 12571, Note_on_c, 0, 68, 0
1, 12573, Note_on_c, 1, 51, 0
1, 12576, Note_on_c, 0, 67, 64
1, 12576, Note_on_c, 1, 55, 64
1, 12588, Note_on_c, 0, 67, 0
1, 12588, Note_on_c, 0, 68, 64
1, 12600, Note_on_c, 0, 68, 0
1, 12600, Note_on_c, 0, 67, 64
1, 12621, Note_on_c, 0, 67, 0
1, 12621, Note_on_c, 1, 55, 0
1, 12624, Note_on_c, 0, 65, 64
1, 12624, Note_on_c, 1, 58, 64
1, 12669, Note_on_c, 0, 65, 0
1, 12669, Note_on_c, 1, 58, 0
1, 12672, Note_on_c, 0, 63, 64
1, 12672, Note_on_c, 1, 60, 64
1, 12720, Note_on_c, 0, 63, 0
1, 12720, Note_on_c, 0, 68, 64
1, 12765, Note_on_c, 0, 68, 0
1, 12768, Note_on_c, 0, 65, 64
1, 12768, Note_on_c, 1, 60, 0
1, 12768, Note_on_c, 1, 62, 64
1, 12816, Note_on_c, 0, 65, 0
1, 12816, Note_on_c, 0, 70, 64
1, 12857, Note_on_c, 1, 62, 0
1, 12861, Note_on_c, 0, 70, 0
1, 12864, Note_on_c, 0, 68, 64
1, 12912, Note_on_c, 1, 63, 64
1, 12957, Note_on_c, 1, 63, 0
1, 12960, Note_on_c, 0, 68, 0
1, 12960, Note_on_c, 0, 67, 64
1, 12960, Note_on_c, 1, 51, 64
1, 12972, Note_on_c, 0, 67, 0
1, 12972, Note_on_c, 0, 68, 64
1, 12984, Note_on_c, 0, 68, 0
1, 12984, Note_on_c, 0, 67, 64
1, 13005, Note_on_c, 0, 67, 0
1, 13005, Note_on_c, 1, 51, 0
1, 13008, Note_on_c, 0, 65, 64
1, 13008, Note_on_c, 1, 58, 64
1, 13053, Note_on_c, 0, 65, 0
1, 13053, Note_on_c, 1, 58, 0
1, 13056, Note_on_c, 0, 63, 64
1, 13056, Note_on_c, 1, 60, 64
1, 13079, Note_on_c, 0, 63, 0
1, 13080, Note_on_c, 0, 70, 64
1, 13103, Note_on_c, 0, 70, 0
1, 13104, Note_on_c, 0, 68, 64
1, 13127, Note_on_c, 0, 68, 0
1, 13128, Note_on_c, 0, 67, 64
1, 13151, Note_on_c, 0, 67, 0
1, 13152, Note_on_c, 0, 65, 64
1, 13152, Note_on_c, 1, 60, 0
1, 13152, Note_on_c, 1, 62, 64
1, 13175, Note_on_c, 0, 65, 0
1, 13176, Note_on_c, 0, 72, 64
1, 13199, Note_on_c, 0, 72, 0
1, 13200, Note_on_c, 0, 70, 64
1, 13223, Note_on_c, 0, 70, 0
1, 13224, Note_on_c, 0, 68, 64
1, 13241, Note_on_c, 1, 62, 0
1, 13247, Note_on_c, 0, 68, 0
1, 13248, Note_on_c, 0, 67, 64
1, 13248, Note_on_c, 1, 63, 64
1, 13260, Note_on_c, 0, 67, 0
1, 13260, Note_on_c, 0, 70, 64
1, 13272, Note_on_c, 0, 70, 0
1, 13272, Note_on_c, 0, 68, 64
1, 13295, Note_on_c, 0, 68, 0
1, 13296, Note_on_c, 0, 67, 64
1, 13319, Note_on_c, 0, 67, 0
1, 13320, Note_on_c, 0, 79, 64
1, 13337, Note_on_c, 1, 63, 0
1, 13343, Note_on_c, 0, 79, 0
1, 13344, Note_on_c, 0, 74, 64
1, 13356, Note_on_c, 0, 74, 0
1, 13356, Note_on_c, 0, 77, 64
1, 13368, Note_on_c, 0, 77, 0
1, 13368, Note_on_c, 0, 75, 64
1, 13391, Note_on_c, 0, 75, 0
1, 13392, Note_on_c, 1, 63, 64
1, 13392, Note_on_c, 1, 58, 64
1, 13392, Note_on_c, 1, 55, 64
1, 13416, Note_on_c, 0, 75, 64
1, 13437, Note_on_c, 1, 63, 0
1, 13437, Note_on_c, 1, 58, 0
1, 13437, Note_on_c, 1, 55, 0
1, 13439, Note_on_c, 0, 75, 0
1, 13440, Note_on_c, 0, 71, 64
1, 13452, Note_on_c, 0, 71, 0
1, 13452, Note_on_c, 0, 74, 64
1, 13464, Note_on_c, 0, 74, 0
1, 13464, Note_on_c, 0, 72, 64
1, 13487, Note_on_c, 0, 72, 0
1, 13488, Note_on_c, 1, 63, 64
1, 13488, Note_on_c, 1, 60, 64
1, 13488, Note_on_c, 1, 56, 64
1, 13512, Note_on_c, 0, 72, 64
1, 13533, Note_on_c, 1, 63, 0
1, 13533, Note_on_c, 1, 60, 0
1, 13533, Note_on_c, 1, 56, 0
1, 13535, Note_on_c, 0, 72, 0
1, 13536, Note_on_c, 0, 67, 64
1, 13548, Note_on_c, 0, 67, 0
1, 13548, Note_on_c, 0, 70, 64
1, 13560, Note_on_c, 0, 70, 0
1, 13560, Note_on_c, 0, 68, 64
1, 13584, Note_on_c, 1, 56, 64
1, 13584, Note_on_c, 1, 46, 64
1, 13605, Note_on_c, 0, 68, 0
1, 13608, Note_on_c, 0, 65, 64
1, 13620, Note_on_c, 0, 65, 0
1, 13620, Note_on_c, 0, 62, 64
1, 13629, Note_on_c, 1, 56, 0
1, 13629, Note_on_c, 1, 46, 0
1, 13632, Note_on_c, 0, 62, 0
1, 13632, Note_on_c, 0, 63, 64
1, 13632, Note_on_c, 1, 55, 64
1, 13632, Note_on_c, 1, 51, 64
1, 13677, Note_on_c, 0, 63, 0
1, 13677, Note_on_c, 1, 55, 0
1, 13677, Note_on_c, 1, 51, 0
1, 13680, Note_on_c, 0, 63, 64
1, 13680, Note_on_c, 1, 60, 64
1, 13680, Note_on_c, 1, 56, 64
1, 13725, Note_on_c, 0, 63, 0
1, 13725, Note_on_c, 1, 60, 0
1, 13725, Note_on_c, 1, 56, 0
1, 13728, Note_on_c, 0, 63, 64
1, 13728, Note_on_c, 1, 58, 64
1, 13728, Note_on_c, 1, 55, 64
1, 13773, Note_on_c, 0, 63, 0
1, 13773, Note_on_c, 1, 58, 0
1, 13773, Note_on_c, 1, 55, 0
1, 13776, Note_on_c, 0, 63, 64
1, 13776, Note_on_c, 1, 56, 64
1, 13776, Note_on_c, 1, 53, 64
1, 13821, Note_on_c, 0, 63, 0
1, 13821, Note_on_c, 1, 56, 0
1, 13821, Note_on_c, 1, 53, 0
1, 13824, Note_on_c, 0, 63, 64
1, 13824, Note_on_c, 1, 55, 64
1, 13824, Note_on_c, 1, 51, 64
1, 13869, Note_on_c, 0, 63, 0
1, 13869, Note_on_c, 1, 55, 0
1, 13869, Note_on_c, 1, 51, 0
1, 13872, Note_on_c, 0, 63, 64
1, 13872, Note_on_c, 1, 60, 64
1, 13872, Note_on_c, 1, 56, 64
1, 13906, Note_on_c, 0, 63, 0
1, 13908, Note_on_c, 0, 63, 64
1, 13917, Note_on_c, 1, 60, 0
1, 13917, Note_on_c, 1, 56, 0
1, 13920, Note_on_c, 0, 63, 0
1, 13920, Note_on_c, 0, 63, 64
1, 13920, Note_on_c, 1, 58, 64
1, 13920, Note_on_c, 1, 55, 64
1, 13954, Note_on_c, 0, 63, 0
1, 13956, Note_on_c, 0, 63, 64
1, 13965, Note_on_c, 1, 58, 0
1, 13965, Note_on_c, 1, 55, 0
1, 13968, Note_on_c, 0, 63, 0
1, 13968, Note_on_c, 0, 63, 64
1, 13968, Note_on_c, 1, 56, 64
1, 13968, Note_on_c, 1, 53, 64
1, 14002, Note_on_c, 0, 63, 0
1, 14004, Note_on_c, 0, 63, 64
1, 14013, Note_on_c, 1, 56, 0
1, 14013, Note_on_c, 1, 53, 0
1, 14016, Note_on_c, 0, 63, 0
1, 14016, Note_on_c, 0, 63, 64
1, 14016, Note_on_c, 1, 55, 64
1, 14016, Note_on_c, 1, 51, 64
1, 14061, Note_on_c, 0, 63, 0
1, 14061, Note_on_c, 1, 55, 0
1, 14061, Note_on_c, 1, 51, 0
1, 14064, Note_on_c, 0, 62, 64
1, 14064, Note_on_c, 1, 60, 64
1, 14064, Note_on_c, 1, 56, 64
1, 14076, Note_on_c, 0, 62, 0
1, 14076, Note_on_c, 0, 63, 64
1, 14088, Note_on_c, 0, 63, 0
1, 14088, Note_on_c, 0, 65, 64
1, 14100, Note_on_c, 0, 65, 0
1, 14100, Note_on_c, 0, 63, 64
1, 14109, Note_on_c, 1, 60, 0
1, 14109, Note_on_c, 1, 56, 0
1, 14112, Note_on_c, 0, 63, 0
1, 14112, Note_on_c, 0, 62, 64
1, 14112, Note_on_c, 1, 58, 64
1, 14112, Note_on_c, 1, 55, 64
1, 14124, Note_on_c, 0, 62, 0
1, 14124, Note_on_c, 0, 63, 64
1, 14136, Note_on_c, 0, 63, 0
1, 14136, Note_on_c, 0, 65, 64
1, 14148, Note_on_c, 0, 65, 0
1, 14148, Note_on_c, 0, 63, 64
1, 14157, Note_on_c, 1, 58, 0
1, 14157, Note_on_c, 1, 55, 0
1, 14160, Note_on_c, 0, 63, 0
1, 14160, Note_on_c, 0, 62, 64
1, 14160, Note_on_c, 1, 56, 64
1, 14160, Note_on_c, 1, 53, 64
1, 14172, Note_on_c, 0, 62, 0
1, 14172, Note_on_c, 0, 63, 64
1, 14184, Note_on_c, 0, 63, 0
1, 14184, Note_on_c, 0, 65, 64
1, 14196, Note_on_c, 0, 65, 0
1, 14196, Note_on_c, 0, 63, 64
1, 14205, Note_on_c, 1, 56, 0
1, 14205, Note_on_c, 1, 53, 0
1, 14208, Note_on_c, 0, 63, 0
1, 14208, Note_on_c, 0, 62, 64
1, 14208, Note_on_c, 1, 55, 64
1, 14208, Note_on_c, 1, 51, 64
1, 14220, Note_on_c, 0, 62, 0
1, 14220, Note_on_c, 0, 63, 64
1, 14232, Note_on_c, 0, 63, 0
1, 14232, Note_on_c, 0, 65, 64
1, 14244, Note_on_c, 0, 65, 0
1, 14244, Note_on_c, 0, 67, 64
1, 14256, Note_on_c, 0, 67, 0
1, 14256, Note_on_c, 0, 68, 64
1, 14268, Note_on_c, 0, 68, 0
1, 14268, Note_on_c, 0, 70, 64
1, 14280, Note_on_c, 0, 70, 0
1, 14280, Note_on_c, 0, 72, 64
1, 14292, Note_on_c, 0, 72, 0
1, 14292, Note_on_c, 0, 74, 64
1, 14297, Note_on_c, 1, 55, 0
1, 14297, Note_on_c, 1, 51, 0
1, 14304, Note_on_c, 0, 74, 0
1, 14304, Note_on_c, 0, 75, 64
1, 14316, Note_on_c, 0, 75, 0
1, 14316, Note_on_c, 0, 77, 64
1, 14328, Note_on_c, 0, 77, 0
1, 14328, Note_on_c, 0, 79, 64
1, 14340, Note_on_c, 0, 79, 0
1, 14340, Note_on_c, 0, 80, 64
1, 14352, Note_on_c, 0, 80, 0
1, 14352, Note_on_c, 0, 82, 64
1, 14364, Note_on_c, 0, 82, 0
1, 14364, Note_on_c, 0, 80, 64
1, 14376, Note_on_c, 0, 80, 0
1, 14376, Note_on_c, 0, 79, 64
1, 14388, Note_on_c, 0, 79, 0
1, 14388, Note_on_c, 0, 77, 64
1, 14400, Note_on_c, 0, 77, 0
1, 14400, Note_on_c, 0, 75, 64
1, 14400, Note_on_c, 1, 58, 64
1, 14400, Note_on_c, 1, 55, 64
1, 14400, Note_on_c, 1, 51, 64
1, 14412, Note_on_c, 0, 75, 0
1, 14412, Note_on_c, 0, 74, 64
1, 14424, Note_on_c, 0, 74, 0
1, 14424, Note_on_c, 0, 72, 64
1, 14436, Note_on_c, 0, 72, 0
1, 14436, Note_on_c, 0, 70, 64
1, 14448, Note_on_c, 0, 70, 0
1, 14448, Note_on_c, 0, 72, 64
1, 14460, Note_on_c, 0, 72, 0
1, 14460, Note_on_c, 0, 74, 64
1, 14472, Note_on_c, 0, 74, 0
1, 14472, Note_on_c, 0, 75, 64
1, 14484, Note_on_c, 0, 75, 0
1, 14484, Note_on_c, 0, 77, 64
1, 14489, Note_on_c, 1, 58, 0
1, 14489, Note_on_c, 1, 55, 0
1, 14489, Note_on_c, 1, 51, 0
1, 14496, Note_on_c, 0, 77, 0
1, 14496, Note_on_c, 0, 79, 64
1, 14508, Note_on_c, 0, 79, 0
1, 14508, Note_on_c, 0, 77, 64
1, 14520, Note_on_c, 0, 77, 0
1, 14520, Note_on_c, 0, 75, 64
1, 14532, Note_on_c, 0, 75, 0
1, 14532, Note_on_c, 0, 74, 64
1, 14544, Note_on_c, 0, 74, 0
1, 14544, Note_on_c, 0, 72, 64
1, 14556, Note_on_c, 0, 72, 0
1, 14556, Note_on_c, 0, 70, 64
1, 14568, Note_on_c, 0, 70, 0
1, 14568, Note_on_c, 0, 68, 64
1, 14580, Note_on_c, 0, 68, 0
1, 14580, Note_on_c, 0, 67, 64
1, 14592, Note_on_c, 0, 67, 0
1, 14592, Note_on_c, 0, 65, 64
1, 14592, Note_on_c, 1, 53, 64
1, 14592, Note_on_c, 1, 48, 64
1, 14592, Note_on_c, 1, 44, 64
1, 14604, Note_on_c, 0, 65, 0
1, 14604, Note_on_c, 0, 67, 64
1, 14616, Note_on_c, 0, 67, 0
1, 14616, Note_on_c, 0, 68, 64
1, 14628, Note_on_c, 0, 68, 0
1, 14628, Note_on_c, 0, 70, 64
1, 14640, Note_on_c, 0, 70, 0
1, 14640, Note_on_c, 0, 72, 64
1, 14652, Note_on_c, 0, 72, 0
1, 14652, Note_on_c, 0, 70, 64
1, 14664, Note_on_c, 0, 70, 0
1, 14664, Note_on_c, 0, 68, 64
1, 14676, Note_on_c, 0, 68, 0
1, 14676, Note_on_c, 0, 67, 64
1, 14681, Note_on_c, 1, 53, 0
1, 14681, Note_on_c, 1, 48, 0
1, 14681, Note_on_c, 1, 44, 0
1, 14688, Note_on_c, 0, 67, 0
1, 14688, Note_on_c, 0, 65, 64
1, 14700, Note_on_c, 0, 65, 0
1, 14700, Note_on_c, 0, 67, 64
1, 14712, Note_on_c, 0, 67, 0
1, 14712, Note_on_c, 0, 65, 64
1, 14724, Note_on_c, 0, 65, 0
1, 14724, Note_on_c, 0, 63, 64
1, 14736, Note_on_c, 0, 63, 0
1, 14736, Note_on_c, 0, 62, 64
1, 14736, Note_on_c, 1, 53, 64
1, 14736, Note_on_c, 1, 48, 64
1, 14736, Note_on_c, 1, 45, 64
1, 14748, Note_on_c, 0, 62, 0
1, 14748, Note_on_c, 0, 63, 64
1, 14760, Note_on_c, 0, 63, 0
1, 14760, Note_on_c, 0, 62, 64
1, 14772, Note_on_c, 0, 62, 0
1, 14772, Note_on_c, 0, 60, 64
1, 14781, Note_on_c, 1, 53, 0
1, 14781, Note_on_c, 1, 48, 0
1, 14781, Note_on_c, 1, 45, 0
1, 14784, Note_on_c, 0, 60, 0
1, 14784, Note_on_c, 0, 58, 64
1, 14784, Note_on_c, 1, 53, 64
1, 14784, Note_on_c, 1, 50, 64
1, 14784, Note_on_c, 1, 46, 64
1, 14807, Note_on_c, 0, 58, 0
1, 14808, Note_on_c, 0, 60, 64
1, 14820, Note_on_c, 0, 60, 0
1, 14820, Note_on_c, 0, 62, 64
1, 14832, Note_on_c, 0, 62, 0
1, 14832, Note_on_c, 0, 63, 64
1, 14844, Note_on_c, 0, 63, 0
1, 14844, Note_on_c, 0, 65, 64
1, 14856, Note_on_c, 0, 65, 0
1, 14856, Note_on_c, 0, 67, 64
1, 14868, Note_on_c, 0, 67, 0
1, 14868, Note_on_c, 0, 69, 64
1, 14873, Note_on_c, 1, 53, 0
1, 14873, Note_on_c, 1, 50, 0
1, 14873, Note_on_c, 1, 46, 0
1, 14880, Note_on_c, 0, 69, 0
1, 14880, Note_on_c, 0, 70, 64
1, 14880, Note_on_c, 1, 58, 64
1, 14895, Note_on_c, 0, 70, 0
1, 14895, Note_on_c, 1, 58, 0
1, 14916, Note_on_c, 0, 70, 64
1, 14916, Note_on_c, 1, 58, 64
1, 14928, Note_on_c, 0, 70, 0
1, 14928, Note_on_c, 0, 65, 64
1, 14928, Note_on_c, 1, 58, 0
1, 14928, Note_on_c, 1, 53, 64
1, 14943, Note_on_c, 0, 65, 0
1, 14943, Note_on_c, 1, 53, 0
1, 14964, Note_on_c, 0, 62, 64
1, 14964, Note_on_c, 1, 50, 64
1, 14976, Note_on_c, 0, 62, 0
1, 14976, Note_on_c, 0, 58, 64
1, 14976, Note_on_c, 1, 50, 0
1, 14976, Note_on_c, 1, 46, 64
1, 15021, Note_on_c, 0, 58, 0
1, 15021, Note_on_c, 1, 46, 0
1, 15072, Note_on_c, 1, 58, 64
1, 15072, Note_on_c, 1, 46, 64
1, 15087, Note_on_c, 1, 58, 0
1, 15087, Note_on_c, 1, 46, 0
1, 15108, Note_on_c, 1, 58, 64
1, 15108, Note_on_c, 1, 46, 64
1, 15120, Note_on_c, 1, 58, 0
1, 15120, Note_on_c, 1, 53, 64
1, 15120, Note_on_c, 1, 46, 0
1, 15120, Note_on_c, 1, 41, 64
1, 15135, Note_on_c, 1, 53, 0
1, 15135, Note_on_c, 1, 41, 0
1, 15156, Note_on_c, 1, 50, 64
1, 15156, Note_on_c, 1, 38, 64
1, 15168, Note_on_c, 1, 50, 0
1, 15168, Note_on_c, 1, 46, 64
1, 15168, Note_on_c, 1, 38, 0
1, 15168, Note_on_c, 1, 34, 64
1, 15213, Note_on_c, 1, 46, 0
1, 15213, Note_on_c, 1, 34, 0
1, 15360, Note_on_c, 0, 82, 64
1, 15408, Note_on_c, 1, 62, 64
1, 15408, Note_on_c, 1, 58, 64
1, 15449, Note_on_c, 0, 82, 0
1, 15453, Note_on_c, 1, 62, 0
1, 15453, Note_on_c, 1, 58, 0
1, 15456, Note_on_c, 0, 77, 64
1, 15456, Note_on_c, 1, 60, 64
1, 15456, Note_on_c, 1, 57, 64
1, 15501, Note_on_c, 1, 60, 0
1, 15501, Note_on_c, 1, 57, 0
1, 15504, Note_on_c, 1, 57, 64
1, 15504, Note_on_c, 1, 53, 64
1, 15523, Note_on_c, 0, 77, 0
1, 15528, Note_on_c, 0, 75, 64
1, 15549, Note_on_c, 1, 57, 0
1, 15549, Note_on_c, 1, 53, 0
1, 15551, Note_on_c, 0, 75, 0
1, 15552, Note_on_c, 0, 75, 64
1, 15600, Note_on_c, 1, 58, 64
1, 15600, Note_on_c, 1, 55, 64
1, 15645, Note_on_c, 1, 58, 0
1, 15645, Note_on_c, 1, 55, 0
1, 15648, Note_on_c, 0, 75, 0
1, 15648, Note_on_c, 0, 74, 64
1, 15648, Note_on_c, 1, 57, 64
1, 15648, Note_on_c, 1, 53, 64
1, 15660, Note_on_c, 0, 74, 0
1, 15660, Note_on_c, 0, 75, 64
1, 15672, Note_on_c, 0, 75, 0
1, 15672, Note_on_c, 0, 74, 64
1, 15693, Note_on_c, 0, 74, 0
1, 15693, Note_on_c, 1, 57, 0
1, 15693, Note_on_c, 1, 53, 0
1, 15696, Note_on_c, 0, 72, 64
1, 15696, Note_on_c, 1, 55, 64
1, 15696, Note_on_c, 1, 51, 64
1, 15741, Note_on_c, 0, 72, 0
1, 15741, Note_on_c, 1, 55, 0
1, 15741, Note_on_c, 1, 51, 0
1, 15744, Note_on_c, 0, 70, 64
1, 15744, Note_on_c, 1, 53, 64
1, 15744, Note_on_c, 1, 50, 64
1, 15744, Note_on_c, 1, 50, 64
1, 15764, Note_on_c, 0, 70, 0
1, 15792, Note_on_c, 0, 70, 64
1, 15812, Note_on_c, 0, 70, 0
1, 15833, Note_on_c, 1, 53, 0
1, 15833, Note_on_c, 1, 50, 0
1, 15833, Note_on_c, 1, 50, 0
1, 15840, Note_on_c, 0, 70, 64
1, 15860, Note_on_c, 0, 70, 0
1, 15888, Note_on_c, 0, 70, 64
1, 15888, Note_on_c, 1, 65, 64
1, 15888, Note_on_c, 1, 62, 64
1, 15908, Note_on_c, 0, 70, 0
1, 15933, Note_on_c, 1, 65, 0
1, 15933, Note_on_c, 1, 62, 0
1, 15936, Note_on_c, 0, 72, 64
1, 15936, Note_on_c, 1, 65, 64
1, 15936, Note_on_c, 1, 63, 64
1, 15959, Note_on_c, 0, 72, 0
1, 15960, Note_on_c, 0, 74, 64
1, 15981, Note_on_c, 1, 65, 0
1, 15981, Note_on_c, 1, 63, 0
1, 15983, Note_on_c, 0, 74, 0
1, 15984, Note_on_c, 0, 75, 64
1, 15984, Note_on_c, 1, 65, 64
1, 15984, Note_on_c, 1, 63, 64
1, 16007, Note_on_c, 0, 75, 0
1, 16008, Note_on_c, 0, 69, 64
1, 16029, Note_on_c, 1, 65, 0
1, 16029, Note_on_c, 1, 63, 0
1, 16031, Note_on_c, 0, 69, 0
1, 16032, Note_on_c, 0, 70, 64
1, 16032, Note_on_c, 1, 62, 64
1, 16055, Note_on_c, 1, 62, 0
1, 16056, Note_on_c, 1, 65, 64
1, 16077, Note_on_c, 0, 70, 0
1, 16079, Note_on_c, 1, 65, 0
1, 16080, Note_on_c, 0, 70, 64
1, 16080, Note_on_c, 1, 62, 64
1, 16103, Note_on_c, 1, 62, 0
1, 16104, Note_on_c, 1, 65, 64
1, 16125, Note_on_c, 0, 70, 0
1, 16127, Note_on_c, 1, 65, 0
1, 16128, Note_on_c, 0, 72, 64
1, 16128, Note_on_c, 1, 63, 64
1, 16151, Note_on_c, 0, 72, 0
1, 16151, Note_on_c, 1, 63, 0
1, 16152, Note_on_c, 0, 74, 65
1, 16152, Note_on_c, 1, 65, 65
1, 16175, Note_on_c, 0, 74, 0
1, 16175, Note_on_c, 1, 65, 0
1, 16176, Note_on_c, 0, 75, 66
1, 16176, Note_on_c, 1, 63, 66
1, 16199, Note_on_c, 0, 75, 0
1, 16199, Note_on_c, 1, 63, 0
1, 16200, Note_on_c, 0, 69, 67
1, 16200, Note_on_c, 1, 65, 67
1, 16223, Note_on_c, 0, 69, 0
1, 16223, Note_on_c, 1, 65, 0
1, 16224, Note_on_c, 0, 70, 68
1, 16224, Note_on_c, 1, 62, 68
1, 16247, Note_on_c, 0, 70, 0
1, 16247, Note_on_c, 1, 62, 0
1, 16248, Note_on_c, 0, 72, 70
1, 16248, Note_on_c, 1, 65, 70
1, 16271, Note_on_c, 0, 72, 0
1, 16271, Note_on_c, 1, 65, 0
1, 16272, Note_on_c, 0, 74, 71
1, 16272, Note_on_c, 1, 62, 71
1, 16295, Note_on_c, 0, 74, 0
1, 16295, Note_on_c, 1, 62, 0
1, 16296, Note_on_c, 0, 70, 72
1, 16296, Note_on_c, 1, 65, 72
1, 16319, Note_on_c, 0, 70, 0
1, 16319, Note_on_c, 1, 65, 0
1, 16320, Note_on_c, 0, 72, 73
1, 16320, Note_on_c, 1, 63, 73
1, 16343, Note_on_c, 0, 72, 0
1, 16343, Note_on_c, 1, 63, 0
1, 16344, Note_on_c, 0, 74, 75
1, 16344, Note_on_c, 1, 65, 75
1, 16367, Note_on_c, 0, 74, 0
1, 16367, Note_on_c, 1, 65, 0
1, 16368, Note_on_c, 0, 75, 76
1, 16368, Note_on_c, 1, 63, 76
1, 16391, Note_on_c, 0, 75, 0
1, 16391, Note_on_c, 1, 63, 0
1, 16392, Note_on_c, 0, 69, 77
1, 16392, Note_on_c, 1, 65, 77
1, 16415, Note_on_c, 0, 69, 0
1, 16415, Note_on_c, 1, 65, 0
1, 16416, Note_on_c, 0, 70, 78
1, 16416, Note_on_c, 1, 62, 78
1, 16439, Note_on_c, 0, 70, 0
1, 16439, Note_on_c, 1, 62, 0
1, 16440, Note_on_c, 0, 72, 80
1, 16440, Note_on_c, 1, 65, 80
1, 16463, Note_on_c, 0, 72, 0
1, 16463, Note_on_c, 1, 65, 0
1, 16464, Note_on_c, 0, 74, 81
1, 16464, Note_on_c, 1, 62, 81
1, 16487, Note_on_c, 0, 74, 0
1, 16487, Note_on_c, 1, 62, 0
1, 16488, Note_on_c, 0, 70, 82
1, 16488, Note_on_c, 1, 65, 82
1, 16511, Note_on_c, 0, 70, 0
1, 16511, Note_on_c, 1, 65, 0
1, 16512, Note_on_c, 0, 72, 83
1, 16512, Note_on_c, 1, 63, 83
1, 16535, Note_on_c, 0, 72, 0
1, 16535, Note_on_c, 1, 63, 0
1, 16536, Note_on_c, 0, 74, 85
1, 16536, Note_on_c, 1, 65, 85
1, 16559, Note_on_c, 0, 74, 0
1, 16559, Note_on_c, 1, 65, 0
1, 16560, Note_on_c, 0, 75, 85
1, 16560, Note_on_c, 1, 63, 85
1, 16583, Note_on_c, 0, 75, 0
1, 16583, Note_on_c, 1, 63, 0
1, 16584, Note_on_c, 0, 69, 85
1, 16584, Note_on_c, 1, 65, 85
1, 16607, Note_on_c, 0, 69, 0
1, 16607, Note_on_c, 1, 65, 0
1, 16608, Note_on_c, 0, 70, 85
1, 16608, Note_on_c, 1, 62, 85
1, 16631, Note_on_c, 1, 62, 0
1, 16632, Note_on_c, 1, 65, 85
1, 16653, Note_on_c, 0, 70, 0
1, 16655, Note_on_c, 1, 65, 0
1, 16656, Note_on_c, 0, 77, 85
1, 16656, Note_on_c, 1, 62, 85
1, 16679, Note_on_c, 1, 62, 0
1, 16680, Note_on_c, 1, 65, 85
1, 16701, Note_on_c, 0, 77, 0
1, 16703, Note_on_c, 1, 65, 0
1, 16704, Note_on_c, 0, 77, 85
1, 16704, Note_on_c, 0, 70, 64
1, 16704, Note_on_c, 1, 67, 85
1, 16704, Note_on_c, 1, 60, 64
1, 16727, Note_on_c, 0, 70, 0
1, 16728, Note_on_c, 0, 72, 64
1, 16751, Note_on_c, 0, 72, 0
1, 16752, Note_on_c, 0, 73, 64
1, 16775, Note_on_c, 0, 73, 0
1, 16776, Note_on_c, 0, 69, 64
1, 16793, Note_on_c, 0, 77, 0
1, 16799, Note_on_c, 0, 69, 0
1, 16800, Note_on_c, 0, 76, 85
1, 16800, Note_on_c, 0, 70, 64
1, 16823, Note_on_c, 0, 70, 0
1, 16824, Note_on_c, 0, 73, 64
1, 16847, Note_on_c, 0, 73, 0
1, 16848, Note_on_c, 0, 72, 64
1, 16871, Note_on_c, 0, 72, 0
1, 16872, Note_on_c, 0, 70, 64
1, 16881, Note_on_c, 1, 67, 0
1, 16881, Note_on_c, 1, 60, 0
1, 16889, Note_on_c, 0, 76, 0
1, 16895, Note_on_c, 0, 70, 0
1, 16896, Note_on_c, 0, 75, 85
1, 16896, Note_on_c, 1, 70, 85
1, 16896, Note_on_c, 1, 65, 64
1, 16919, Note_on_c, 0, 75, 0
1, 16920, Note_on_c, 0, 77, 85
1, 16943, Note_on_c, 0, 77, 0
1, 16944, Note_on_c, 0, 79, 85
1, 16967, Note_on_c, 0, 79, 0
1, 16968, Note_on_c, 0, 74, 85
1, 16985, Note_on_c, 1, 70, 0
1, 16991, Note_on_c, 0, 74, 0
1, 16992, Note_on_c, 0, 75, 85
1, 16992, Note_on_c, 1, 69, 85
1, 17015, Note_on_c, 0, 75, 0
1, 17016, Note_on_c, 0, 84, 85
1, 17039, Note_on_c, 0, 84, 0
1, 17040, Note_on_c, 0, 81, 85
1, 17063, Note_on_c, 0, 81, 0
1, 17064, Note_on_c, 0, 75, 85
1, 17073, Note_on_c, 1, 65, 0
1, 17081, Note_on_c, 1, 69, 0
1, 17087, Note_on_c, 0, 75, 0
1, 17088, Note_on_c, 0, 74, 85
1, 17088, Note_on_c, 1, 70, 85
1, 17088, Note_on_c, 1, 65, 64
1, 17111, Note_on_c, 0, 74, 0
1, 17112, Note_on_c, 0, 75, 82
1, 17135, Note_on_c, 0, 75, 0
1, 17136, Note_on_c, 0, 77, 80
1, 17159, Note_on_c, 0, 77, 0
1, 17160, Note_on_c, 0, 73, 78
1, 17183, Note_on_c, 0, 73, 0
1, 17184, Note_on_c, 0, 74, 75
1, 17207, Note_on_c, 0, 74, 0
1, 17208, Note_on_c, 0, 82, 73
1, 17231, Note_on_c, 0, 82, 0
1, 17232, Note_on_c, 0, 81, 71
1, 17255, Note_on_c, 0, 81, 0
1, 17256, Note_on_c, 0, 84, 68
1, 17265, Note_on_c, 1, 70, 0
1, 17265, Note_on_c, 1, 65, 0
1, 17279, Note_on_c, 0, 84, 0
1, 17280, Note_on_c, 0, 82, 66
1, 17280, Note_on_c, 1, 70, 74
1, 17280, Note_on_c, 1, 64, 64
1, 17303, Note_on_c, 0, 82, 0
1, 17304, Note_on_c, 0, 85, 64
1, 17327, Note_on_c, 0, 85, 0
1, 17328, Note_on_c, 0, 84, 64
1, 17351, Note_on_c, 0, 84, 0
1, 17352, Note_on_c, 0, 87, 64
1, 17375, Note_on_c, 0, 87, 0
1, 17376, Note_on_c, 0, 85, 64
1, 17421, Note_on_c, 0, 85, 0
1, 17424, Note_on_c, 0, 73, 64
1, 17457, Note_on_c, 1, 70, 0
1, 17457, Note_on_c, 1, 64, 0
1, 17469, Note_on_c, 0, 73, 0
1, 17472, Note_on_c, 0, 75, 64
1, 17472, Note_on_c, 1, 70, 64
1, 17472, Note_on_c, 1, 65, 64
1, 17480, Note_on_c, 0, 75, 0
1, 17480, Note_on_c, 0, 73, 64
1, 17488, Note_on_c, 0, 73, 0
1, 17488, Note_on_c, 0, 75, 64
1, 17496, Note_on_c, 0, 75, 0
1, 17496, Note_on_c, 0, 73, 64
1, 17504, Note_on_c, 0, 73, 0
1, 17504, Note_on_c, 0, 75, 64
1, 17512, Note_on_c, 0, 75, 0
1, 17512, Note_on_c, 0, 73, 64
1, 17517, Note_on_c, 1, 70, 0
1, 17520, Note_on_c, 0, 73, 0
1, 17520, Note_on_c, 0, 72, 64
1, 17520, Note_on_c, 1, 69, 64
1, 17561, Note_on_c, 1, 65, 0
1, 17565, Note_on_c, 0, 72, 0
1, 17565, Note_on_c, 1, 69, 0
1, 17640, Note_on_c, 0, 62, 85
1, 17652, Note_on_c, 0, 62, 0
1, 17652, Note_on_c, 0, 65, 85
1, 17664, Note_on_c, 0, 65, 0
1, 17664, Note_on_c, 0, 70, 85
1, 17664, Note_on_c, 1, 58, 85
1, 17664, Note_on_c, 1, 53, 85
1, 17664, Note_on_c, 1, 50, 85
1, 17664, Note_on_c, 1, 46, 85
1, 17709, Note_on_c, 1, 58, 0
1, 17709, Note_on_c, 1, 53, 0
1, 17709, Note_on_c, 1, 50, 0
1, 17709, Note_on_c, 1, 46, 0
1, 17731, Note_on_c, 0, 70, 0
1, 17736, Note_on_c, 0, 65, 85
1, 17748, Note_on_c, 0, 65, 0
1, 17748, Note_on_c, 0, 70, 85
1, 17760, Note_on_c, 0, 70, 0
1, 17760, Note_on_c, 0, 74, 85
1, 17760, Note_on_c, 1, 58, 85
1, 17760, Note_on_c, 1, 53, 85
1, 17760, Note_on_c, 1, 50, 85
1, 17760, Note_on_c, 1, 46, 85
1, 17805, Note_on_c, 1, 58, 0
1, 17805, Note_on_c, 1, 53, 0
1, 17805, Note_on_c, 1, 50, 0
1, 17805, Note_on_c, 1, 46, 0
1, 17827, Note_on_c, 0, 74, 0
1, 17832, Note_on_c, 0, 70, 85
1, 17844, Note_on_c, 0, 70, 0
1, 17844, Note_on_c, 0, 74, 85
1, 17856, Note_on_c, 0, 74, 0
1, 17856, Note_on_c, 0, 77, 85
1, 17856, Note_on_c, 1, 58, 85
1, 17856, Note_on_c, 1, 53, 85
1, 17856, Note_on_c, 1, 50, 85
1, 17856, Note_on_c, 1, 46, 85
1, 17901, Note_on_c, 0, 77, 0
1, 17901, Note_on_c, 1, 58, 0
1, 17901, Note_on_c, 1, 53, 0
1, 17901, Note_on_c, 1, 50, 0
1, 17901, Note_on_c, 1, 46, 0
1, 18000, Note_on_c, 0, 82, 64
1, 18034, Note_on_c, 0, 82, 0
1, 18036, Note_on_c, 0, 84, 64
1, 18042, Note_on_c, 0, 84, 0
1, 18042, Note_on_c, 0, 86, 64
1, 18048, Note_on_c, 0, 86, 0
1, 18048, Note_on_c, 0, 77, 64
1, 18048, Note_on_c, 1, 74, 64
1, 18048, Note_on_c, 1, 70, 64
1, 18068, Note_on_c, 0, 77, 0
1, 18093, Note_on_c, 1, 74, 0
1, 18093, Note_on_c, 1, 70, 0
1, 18096, Note_on_c, 0, 82, 64
1, 18130, Note_on_c, 0, 82, 0
1, 18132, Note_on_c, 0, 84, 64
1, 18138, Note_on_c, 0, 84, 0
1, 18138, Note_on_c, 0, 86, 64
1, 18144, Note_on_c, 0, 86, 0
1, 18144, Note_on_c, 0, 76, 64
1, 18144, Note_on_c, 1, 72, 64
1, 18144, Note_on_c, 1, 70, 64
1, 18164, Note_on_c, 0, 76, 0
1, 18189, Note_on_c, 1, 72, 0
1, 18189, Note_on_c, 1, 70, 0
1, 18192, Note_on_c, 0, 81, 64
1, 18226, Note_on_c, 0, 81, 0
1, 18228, Note_on_c, 0, 82, 64
1, 18234, Note_on_c, 0, 82, 0
1, 18234, Note_on_c, 0, 84, 64
1, 18240, Note_on_c, 0, 84, 0
1, 18240, Note_on_c, 0, 75, 64
1, 18240, Note_on_c, 1, 72, 64
1, 18240, Note_on_c, 1, 69, 64
1, 18288, Note_on_c, 1, 66, 64
1, 18333, Note_on_c, 1, 66, 0
1, 18336, Note_on_c, 1, 65, 64
1, 18373, Note_on_c, 1, 72, 0
1, 18373, Note_on_c, 1, 69, 0
1, 18381, Note_on_c, 1, 65, 0
1, 18384, Note_on_c, 0, 75, 0
1, 18384, Note_on_c, 0, 74, 64
1, 18384, Note_on_c, 1, 70, 64
1, 18384, Note_on_c, 1, 70, 64
1, 18429, Note_on_c, 0, 74, 0
1, 18429, Note_on_c, 1, 70, 0
1, 18429, Note_on_c, 1, 70, 0
1, 18432, Note_on_c, 0, 74, 64
1, 18432, Note_on_c, 1, 70, 64
1, 18432, Note_on_c, 1, 63, 64
1, 18466, Note_on_c, 0, 74, 0
1, 18468, Note_on_c, 0, 72, 64
1, 18480, Note_on_c, 0, 72, 0
1, 18480, Note_on_c, 0, 75, 64
1, 18514, Note_on_c, 0, 75, 0
1, 18516, Note_on_c, 0, 79, 64
1, 18521, Note_on_c, 1, 70, 0
1, 18521, Note_on_c, 1, 63, 0
1, 18528, Note_on_c, 0, 79, 0
1, 18528, Note_on_c, 0, 77, 64
1, 18528, Note_on_c, 1, 69, 64
1, 18573, Note_on_c, 0, 77, 0
1, 18573, Note_on_c, 1, 69, 0
1, 18576, Note_on_c, 0, 75, 64
1, 18576, Note_on_c, 0, 72, 64
1, 18576, Note_on_c, 1, 66, 64
1, 18621, Note_on_c, 0, 75, 0
1, 18621, Note_on_c, 0, 72, 0
1, 18621, Note_on_c, 1, 66, 0
1, 18624, Tempo, 1714285
1, 18624, Note_on_c, 0, 74, 64
1, 18624, Note_on_c, 0, 72, 64
1, 18624, Note_on_c, 1, 67, 64
1, 18628, Note_on_c, 0, 74, 0
1, 18628, Note_on_c, 0, 75, 64
1, 18632, Note_on_c, 0, 75, 0
1, 18632, Note_on_c, 0, 77, 64
1, 18636, Note_on_c, 0, 77, 0
1, 18636, Note_on_c, 0, 75, 64
1, 18636, Note_on_c, 0, 72, 0
1, 18636, Note_on_c, 0, 72, 64
1, 18670, Note_on_c, 0, 75, 0
1, 18670, Note_on_c, 0, 72, 0
1, 18672, Note_on_c, 0, 74, 64
1, 18672, Note_on_c, 0, 70, 64
1, 18713, Note_on_c, 1, 67, 0
1, 18717, Note_on_c, 0, 74, 0
1, 18717, Note_on_c, 0, 70, 0
1, 18768, Tempo, 731707
1, 18768, Note_on_c, 0, 82, 64
1, 18802, Note_on_c, 0, 82, 0
1, 18804, Note_on_c, 0, 84, 64
1, 18810, Note_on_c, 0, 84, 0
1, 18810, Note_on_c, 0, 86, 64
1, 18816, Note_on_c, 0, 86, 0
1, 18816, Note_on_c, 0, 77, 64
1, 18816, Note_on_c, 1, 74, 64
1, 18816, Note_on_c, 1, 70, 64
1, 18836, Note_on_c, 0, 77, 0
1, 18861, Note_on_c, 1, 74, 0
1, 18861, Note_on_c, 1, 70, 0
1, 18864, Note_on_c, 0, 82, 64
1, 18898, Note_on_c, 0, 82, 0
1, 18900, Note_on_c, 0, 84, 64
1, 18906, Note_on_c, 0, 84, 0
1, 18906, Note_on_c, 0, 86, 64
1, 18912, Note_on_c, 0, 86, 0
1, 18912, Note_on_c, 0, 76, 64
1, 18912, Note_on_c, 1, 72, 64
1, 18912, Note_on_c, 1, 70, 64
1, 18932, Note_on_c, 0, 76, 0
1, 18957, Note_on_c, 1, 72, 0
1, 18957, Note_on_c, 1, 70, 0
1, 18960, Note_on_c, 0, 81, 64
1, 18994, Note_on_c, 0, 81, 0
1, 18996, Note_on_c, 0, 82, 64
1, 19002, Note_on_c, 0, 82, 0
1, 19002, Note_on_c, 0, 84, 64
1, 19008, Note_on_c, 0, 84, 0
1, 19008, Note_on_c, 0, 75, 64
1, 19008, Note_on_c, 1, 72, 64
1, 19008, Note_on_c, 1, 69, 64
1, 19056, Note_on_c, 1, 66, 64
1, 19101, Note_on_c, 1, 66, 0
1, 19104, Note_on_c, 1, 65, 64
1, 19141, Note_on_c, 1, 72, 0
1, 19141, Note_on_c, 1, 69, 0
1, 19149, Note_on_c, 1, 65, 0
1, 19152, Note_on_c, 0, 75, 0
1, 19152, Note_on_c, 0, 74, 64
1, 19152, Note_on_c, 1, 70, 64
1, 19152, Note_on_c, 1, 70, 64
1, 19197, Note_on_c, 0, 74, 0
1, 19197, Note_on_c, 1, 70, 0
1, 19197, Note_on_c, 1, 70, 0
1, 19200, Note_on_c, 0, 79, 64
1, 19200, Note_on_c, 1, 70, 64
1, 19200, Note_on_c, 1, 63, 64
1, 19245, Note_on_c, 1, 70, 0
1, 19248, Note_on_c, 1, 71, 64
1, 19296, Note_on_c, 1, 71, 0
1, 19296, Note_on_c, 1, 72, 64
1, 19344, Note_on_c, 0, 79, 0
1, 19344, Note_on_c, 0, 84, 64
1, 19377, Note_on_c, 1, 63, 0
1, 19389, Note_on_c, 0, 84, 0
1, 19392, Note_on_c, 0, 82, 58
1, 19392, Note_on_c, 1, 65, 64
1, 19429, Note_on_c, 1, 72, 0
1, 19440, Note_on_c, 1, 72, 58
1, 19488, Note_on_c, 1, 75, 58
1, 19533, Note_on_c, 0, 82, 0
1, 19536, Note_on_c, 0, 81, 58
1, 19548, Note_on_c, 0, 81, 0
1, 19548, Note_on_c, 0, 82, 58
1, 19560, Note_on_c, 0, 82, 0
1, 19560, Note_on_c, 0, 84, 58
1, 19572, Note_on_c, 0, 84, 0
1, 19572, Note_on_c, 0, 86, 58
1, 19584, Note_on_c, 0, 86, 0
1, 19584, Note_on_c, 0, 87, 58
1, 19604, Note_on_c, 0, 87, 0
1, 19632, Note_on_c, 0, 87, 58
1, 19644, Note_on_c, 0, 87, 0
1, 19644, Note_on_c, 0, 86, 58
1, 19656, Note_on_c, 0, 86, 0
1, 19656, Note_on_c, 0, 84, 58
1, 19668, Note_on_c, 0, 84, 0
1, 19668, Note_on_c, 0, 82, 58
1, 19680, Note_on_c, 0, 82, 0
1, 19680, Note_on_c, 0, 81, 58
1, 19700, Note_on_c, 0, 81, 0
1, 19728, Note_on_c, 0, 81, 58
1, 19740, Note_on_c, 0, 81, 0
1, 19740, Note_on_c, 0, 82, 58
1, 19752, Note_on_c, 0, 82, 0
1, 19752, Note_on_c, 0, 84, 58
1, 19764, Note_on_c, 0, 84, 0
1, 19764, Note_on_c, 0, 86, 58
1, 19776, Note_on_c, 0, 86, 0
1, 19776, Note_on_c, 0, 87, 58
1, 19796, Note_on_c, 0, 87, 0
1, 19821, Note_on_c, 1, 75, 0
1, 19821, Note_on_c, 1, 72, 0
1, 19821, Note_on_c, 1, 65, 0
1, 19968, Note_on_c, 0, 86, 85
1, 19968, Note_on_c, 1, 58, 85
1, 19968, Note_on_c, 1, 53, 85
1, 19968, Note_on_c, 1, 50, 85
1, 19968, Note_on_c, 1, 46, 85
1, 19980, Note_on_c, 0, 86, 0
1, 19980, Note_on_c, 0, 84, 85
1, 19992, Note_on_c, 0, 84, 0
1, 19992, Note_on_c, 0, 82, 85
1, 20004, Note_on_c, 0, 82, 0
1, 20004, Note_on_c, 0, 81, 85
1, 20016, Note_on_c, 0, 81, 0
1, 20016, Note_on_c, 0, 82, 85
1, 20028, Note_on_c, 0, 82, 0
1, 20028, Note_on_c, 0, 81, 85
1, 20040, Note_on_c, 0, 81, 0
1, 20040, Note_on_c, 0, 79, 85
1, 20052, Note_on_c, 0, 79, 0
1, 20052, Note_on_c, 0, 77, 85
1, 20057, Note_on_c, 1, 58, 0
1, 20057, Note_on_c, 1, 53, 0
1, 20057, Note_on_c, 1, 50, 0
1, 20057, Note_on_c, 1, 46, 0
1, 20064, Note_on_c, 0, 77, 0
1, 20064, Note_on_c, 0, 75, 85
1, 20076, Note_on_c, 0, 75, 0
1, 20076, Note_on_c, 0, 74, 85
1, 20088, Note_on_c, 0, 74, 0
1, 20088, Note_on_c, 0, 72, 85
1, 20100, Note_on_c, 0, 72, 0
1, 20100, Note_on_c, 0, 70, 85
1, 20112, Note_on_c, 0, 70, 0
1, 20112, Note_on_c, 0, 69, 85
1, 20124, Note_on_c, 0, 69, 0
1, 20124, Note_on_c, 0, 70, 85
1, 20136, Note_on_c, 0, 70, 0
1, 20136, Note_on_c, 0, 69, 85
1, 20148, Note_on_c, 0, 69, 0
1, 20148, Note_on_c, 0, 70, 85
1, 20160, Note_on_c, 0, 70, 0
1, 20160, Note_on_c, 0, 86, 85
1, 20160, Note_on_c, 1, 55, 85
1, 20160, Note_on_c, 1, 50, 85
1, 20160, Note_on_c, 1, 46, 85
1, 20160, Note_on_c, 1, 43, 85
1, 20172, Note_on_c, 0, 86, 0
1, 20172, Note_on_c, 0, 84, 85
1, 20184, Note_on_c, 0, 84, 0
1, 20184, Note_on_c, 0, 82, 85
1, 20196, Note_on_c, 0, 82, 0
1, 20196, Note_on_c, 0, 81, 85
1, 20208, Note_on_c, 0, 81, 0
1, 20208, Note_on_c, 0, 82, 85
1, 20220, Note_on_c, 0, 82, 0
1, 20220, Note_on_c, 0, 81, 85
1, 20232, Note_on_c, 0, 81, 0
1, 20232, Note_on_c, 0, 79, 85
1, 20244, Note_on_c, 0, 79, 0
1, 20244, Note_on_c, 0, 77, 85
1, 20249, Note_on_c, 1, 55, 0
1, 20249, Note_on_c, 1, 50, 0
1, 20249, Note_on_c, 1, 46, 0
1, 20249, Note_on_c, 1, 43, 0
1, 20256, Note_on_c, 0, 77, 0
1, 20256, Note_on_c, 0, 75, 85
1, 20268, Note_on_c, 0, 75, 0
1, 20268, Note_on_c, 0, 74, 85
1, 20280, Note_on_c, 0, 74, 0
1, 20280, Note_on_c, 0, 72, 85
1, 20292, Note_on_c, 0, 72, 0
1, 20292, Note_on_c, 0, 70, 85
1, 20304, Note_on_c, 0, 70, 0
1, 20304, Note_on_c, 0, 69, 85
1, 20316, Note_on_c, 0, 69, 0
1, 20316, Note_on_c, 0, 70, 85
1, 20328, Note_on_c, 0, 70, 0
1, 20328, Note_on_c, 0, 69, 85
1, 20340, Note_on_c, 0, 69, 0
1, 20340, Note_on_c, 0, 70, 85
1, 20352, Note_on_c, 0, 70, 0
1, 20352, Note_on_c, 0, 79, 85
1, 20352, Note_on_c, 1, 51, 85
1, 20352, Note_on_c, 1, 48, 85
1, 20352, Note_on_c, 1, 43, 85
1, 20352, Note_on_c, 1, 39, 85
1, 20364, Note_on_c, 0, 79, 0
1, 20364, Note_on_c, 0, 77, 85
1, 20376, Note_on_c, 0, 77, 0
1, 20376, Note_on_c, 0, 75, 85
1, 20388, Note_on_c, 0, 75, 0
1, 20388, Note_on_c, 0, 74, 85
1, 20400, Note_on_c, 0, 74, 0
1, 20400, Note_on_c, 0, 75, 85
1, 20412, Note_on_c, 0, 75, 0
1, 20412, Note_on_c, 0, 74, 85
1, 20424, Note_on_c, 0, 74, 0
1, 20424, Note_on_c, 0, 72, 85
1, 20436, Note_on_c, 0, 72, 0
1, 20436, Note_on_c, 0, 71, 85
1, 20441, Note_on_c, 1, 51, 0
1, 20441, Note_on_c, 1, 48, 0
1, 20441, Note_on_c, 1, 43, 0
1, 20441, Note_on_c, 1, 39, 0
1, 20448, Note_on_c, 0, 71, 0
1, 20448, Note_on_c, 0, 72, 85
1, 20460, Note_on_c, 0, 72, 0
1, 20460, Note_on_c, 0, 74, 85
1, 20472, Note_on_c, 0, 74, 0
1, 20472, Note_on_c, 0, 75, 85
1, 20484, Note_on_c, 0, 75, 0
1, 20484, Note_on_c, 0, 74, 85
1, 20496, Note_on_c, 0, 74, 0
1, 20496, Note_on_c, 0, 72, 85
1, 20508, Note_on_c, 0, 72, 0
1, 20508, Note_on_c, 0, 70, 85
1, 20520, Note_on_c, 0, 70, 0
1, 20520, Note_on_c, 0, 69, 85
1, 20532, Note_on_c, 0, 69, 0
1, 20532, Note_on_c, 0, 67, 85
1, 20544, Note_on_c, 0, 67, 0
1, 20544, Note_on_c, 0, 65, 85
1, 20544, Note_on_c, 1, 62, 85
1, 20544, Note_on_c, 1, 58, 85
1, 20544, Note_on_c, 1, 53, 85
1, 20567, Note_on_c, 0, 65, 0
1, 20568, Note_on_c, 0, 82, 85
1, 20591, Note_on_c, 0, 82, 0
1, 20592, Note_on_c, 0, 82, 85
1, 20615, Note_on_c, 0, 82, 0
1, 20616, Note_on_c, 0, 82, 85
1, 20633, Note_on_c, 1, 62, 0
1, 20633, Note_on_c, 1, 58, 0
1, 20633, Note_on_c, 1, 53, 0
1, 20639, Note_on_c, 0, 82, 0
1, 20640, Note_on_c, 0, 82, 85
1, 20652, Note_on_c, 0, 82, 0
1, 20652, Note_on_c, 0, 84, 85
1, 20664, Note_on_c, 0, 84, 0
1, 20664, Note_on_c, 0, 86, 85
1, 20676, Note_on_c, 0, 86, 0
1, 20676, Note_on_c, 0, 87, 85
1, 20688, Note_on_c, 0, 87, 0
1, 20688, Note_on_c, 0, 89, 85
1, 20698, Note_on_c, 0, 89, 0
1, 20736, Note_on_c, 0, 82, 85
1, 20736, Note_on_c, 1, 74, 85
1, 20736, Note_on_c, 1, 65, 64
1, 20745, Note_on_c, 0, 82, 0
1, 20745, Note_on_c, 0, 81, 85
1, 20745, Note_on_c, 1, 74, 0
1, 20745, Note_on_c, 1, 72, 85
1, 20754, Note_on_c, 0, 81, 0
1, 20754, Note_on_c, 0, 82, 85
1, 20754, Note_on_c, 1, 72, 0
1, 20754, Note_on_c, 1, 74, 85
1, 20763, Note_on_c, 0, 82, 0
1, 20763, Note_on_c, 0, 81, 85
1, 20763, Note_on_c, 1, 74, 0
1, 20763, Note_on_c, 1, 72, 85
1, 20772, Note_on_c, 0, 81, 0
1, 20772, Note_on_c, 0, 82, 85
1, 20772, Note_on_c, 1, 72, 0
1, 20772, Note_on_c, 1, 74, 85
1, 20781, Note_on_c, 0, 82, 0
1, 20781, Note_on_c, 0, 81, 85
1, 20781, Note_on_c, 1, 74, 0
1, 20781, Note_on_c, 1, 72, 85
1, 20790, Note_on_c, 0, 81, 0
1, 20790, Note_on_c, 0, 82, 85
1, 20790, Note_on_c, 1, 72, 0
1, 20790, Note_on_c, 1, 74, 85
1, 20799, Note_on_c, 0, 82, 0
1, 20799, Note_on_c, 0, 81, 85
1, 20799, Note_on_c, 1, 74, 0
1, 20799, Note_on_c, 1, 72, 85
1, 20808, Note_on_c, 0, 81, 0
1, 20808, Note_on_c, 0, 82, 85
1, 20808, Note_on_c, 1, 72, 0
1, 20808, Note_on_c, 1, 74, 85
1, 20817, Note_on_c, 0, 82, 0
1, 20817, Note_on_c, 0, 81, 85
1, 20817, Note_on_c, 1, 74, 0
1, 20817, Note_on_c, 1, 72, 85
1, 20826, Note_on_c, 0, 81, 0
1, 20826, Note_on_c, 0, 82, 85
1, 20826, Note_on_c, 1, 72, 0
1, 20826, Note_on_c, 1, 74, 85
1, 20835, Note_on_c, 0, 82, 0
1, 20835, Note_on_c, 0, 81, 85
1, 20835, Note_on_c, 1, 74, 0
1, 20835, Note_on_c, 1, 72, 85
1, 20844, Note_on_c, 0, 81, 0
1, 20844, Note_on_c, 0, 82, 85
1, 20844, Note_on_c, 1, 72, 0
1, 20844, Note_on_c, 1, 74, 85
1, 20853, Note_on_c, 0, 82, 0
1, 20853, Note_on_c, 0, 81, 85
1, 20853, Note_on_c, 1, 74, 0
1, 20853, Note_on_c, 1, 72, 85
1, 20862, Note_on_c, 0, 81, 0
1, 20862, Note_on_c, 0, 82, 85
1, 20862, Note_on_c, 1, 72, 0
1, 20862, Note_on_c, 1, 74, 85
1, 20871, Note_on_c, 0, 82, 0
1, 20871, Note_on_c, 0, 81, 85
1, 20871, Note_on_c, 1, 74, 0
1, 20871, Note_on_c, 1, 72, 85
1, 20880, Note_on_c, 0, 81, 0
1, 20880, Note_on_c, 0, 82, 85
1, 20880, Note_on_c, 1, 72, 0
1, 20880, Note_on_c, 1, 74, 85
1, 20888, Note_on_c, 0, 82, 0
1, 20888, Note_on_c, 0, 81, 85
1, 20888, Note_on_c, 1, 74, 0
1, 20888, Note_on_c, 1, 72, 85
1, 20896, Note_on_c, 0, 81, 0
1, 20896, Note_on_c, 0, 82, 85
1, 20896, Note_on_c, 1, 72, 0
1, 20896, Note_on_c, 1, 74, 85
1, 20904, Note_on_c, 0, 82, 0
1, 20904, Note_on_c, 0, 81, 85
1, 20904, Note_on_c, 1, 74, 0
1, 20904, Note_on_c, 1, 72, 85
1, 20912, Note_on_c, 0, 81, 0
1, 20912, Note_on_c, 0, 79, 85
1, 20912, Note_on_c, 1, 72, 0
1, 20912, Note_on_c, 1, 70, 85
1, 20913, Note_on_c, 1, 65, 0
1, 20920, Note_on_c, 0, 79, 0
1, 20920, Note_on_c, 0, 81, 85
1, 20920, Note_on_c, 1, 70, 0
1, 20920, Note_on_c, 1, 72, 85
1, 20928, Note_on_c, 0, 81, 0
1, 20928, Note_on_c, 0, 82, 85
1, 20928, Note_on_c, 1, 72, 0
1, 20928, Note_on_c, 1, 74, 85
1, 20928, Note_on_c, 1, 70, 85
1, 20928, Note_on_c, 1, 74, 64
1, 20973, Note_on_c, 0, 82, 0
1, 20973, Note_on_c, 1, 74, 0
1, 20973, Note_on_c, 1, 70, 0
1, 20973, Note_on_c, 1, 74, 0
1, 20976, Note_on_c, 0, 77, 85
1, 20976, Note_on_c, 0, 74, 85
1, 20976, Note_on_c, 0, 70, 85
1, 20976, Note_on_c, 1, 58, 64
1, 20976, Note_on_c, 1, 53, 64
1, 20976, Note_on_c, 1, 50, 64
1, 20996, Note_on_c, 0, 77, 0
1, 20996, Note_on_c, 0, 74, 0
1, 20996, Note_on_c, 0, 70, 0
1, 20996, Note_on_c, 1, 58, 0
1, 20996, Note_on_c, 1, 53, 0
1, 20996, Note_on_c, 1, 50, 0
1, 21024, Note_on_c, 0, 79, 85
1, 21024, Note_on_c, 0, 75, 85
1, 21024, Note_on_c, 0, 70, 85
1, 21024, Note_on_c, 1, 58, 64
1, 21024, Note_on_c, 1, 55, 64
1, 21024, Note_on_c, 1, 51, 64
1, 21044, Note_on_c, 0, 79, 0
1, 21044, Note_on_c, 0, 75, 0
1, 21044, Note_on_c, 0, 70, 0
1, 21044, Note_on_c, 1, 58, 0
1, 21044, Note_on_c, 1, 55, 0
1, 21044, Note_on_c, 1, 51, 0
1, 21072, Note_on_c, 0, 77, 85
1, 21072, Note_on_c, 1, 69, 64
1, 21084, Note_on_c, 0, 77, 0
1, 21084, Note_on_c, 0, 75, 85
1, 21096, Note_on_c, 0, 75, 0
1, 21096, Note_on_c, 0, 74, 85
1, 21108, Note_on_c, 0, 74, 0
1, 21108, Note_on_c, 0, 75, 85
1, 21117, Note_on_c, 1, 69, 0
1, 21120, Note_on_c, 0, 75, 0
1, 21120, Note_on_c, 0, 74, 85
1, 21120, Note_on_c, 1, 70, 85
1, 21120, Note_on_c, 1, 70, 64
1, 21165, Note_on_c, 0, 74, 0
1, 21165, Note_on_c, 1, 70, 0
1, 21165, Note_on_c, 1, 70, 0
1, 21168, Note_on_c, 0, 82, 85
1, 21168, Note_on_c, 0, 77, 85
1, 21168, Note_on_c, 0, 74, 85
1, 21168, Note_on_c, 1, 58, 85
1, 21168, Note_on_c, 1, 53, 85
1, 21168, Note_on_c, 1, 50, 85
1, 21213, Note_on_c, 0, 82, 0
1, 21213, Note_on_c, 0, 77, 0
1, 21213, Note_on_c, 0, 74, 0
1, 21213, Note_on_c, 1, 58, 0
1, 21213, Note_on_c, 1, 53, 0
1, 21213, Note_on_c, 1, 50, 0
1, 21216, Note_on_c, 0, 79, 85
1, 21216, Note_on_c, 0, 75, 85
1, 21216, Note_on_c, 0, 70, 85
1, 21216, Note_on_c, 1, 58, 85
1, 21216, Note_on_c, 1, 55, 85
1, 21216, Note_on_c, 1, 51, 85
1, 21236, Note_on_c, 0, 79, 0
1, 21236, Note_on_c, 0, 75, 0
1, 21236, Note_on_c, 0, 70, 0
1, 21261, Note_on_c, 1, 58, 0
1, 21261, Note_on_c, 1, 55, 0
1, 21261, Note_on_c, 1, 51, 0
1, 21264, Note_on_c, 0, 69, 85
1, 21264, Note_on_c, 0, 65, 85
1, 21264, Note_on_c, 0, 63, 85
1, 21264, Note_on_c, 0, 60, 85
1, 21264, Note_on_c, 1, 57, 85
1, 21264, Note_on_c, 1, 53, 85
1, 21284, Note_on_c, 0, 69, 0
1, 21284, Note_on_c, 0, 65, 0
1, 21284, Note_on_c, 0, 63, 0
1, 21284, Note_on_c, 0, 60, 0
1, 21309, Note_on_c, 1, 57, 0
1, 21309, Note_on_c, 1, 53, 0
1, 21312, Note_on_c, 0, 70, 85
1, 21312, Note_on_c, 0, 65, 85
1, 21312, Note_on_c, 0, 62, 85
1, 21312, Note_on_c, 1, 58, 85
1, 21312, Note_on_c, 1, 53, 85
1, 21312, Note_on_c, 1, 50, 85
1, 21312, Note_on_c, 1, 46, 85
1, 21401, Note_on_c, 0, 70, 0
1, 21401, Note_on_c, 0, 65, 0
1, 21401, Note_on_c, 0, 62, 0
1, 21401, Note_on_c, 1, 58, 0
1, 21401, Note_on_c, 1, 53, 0
1, 21401, Note_on_c, 1, 50, 0
1, 21401, Note_on_c, 1, 46, 0
1, 21504, Note_on_c, 0, 66, 78
1, 21510, Note_on_c, 0, 66, 0
1, 21510, Note_on_c, 0, 67, 78
1, 21549, Note_on_c, 0, 67, 0
1, 21552, Note_on_c, 1, 55, 78
1, 21552, Note_on_c, 1, 51, 64
1, 21552, Note_on_c, 1, 48, 64
1, 21597, Note_on_c, 1, 55, 0
1, 21597, Note_on_c, 1, 51, 0
1, 21597, Note_on_c, 1, 48, 0
1, 21600, Note_on_c, 1, 55, 78
1, 21600, Note_on_c, 1, 50, 64
1, 21600, Note_on_c, 1, 47, 64
1, 21645, Note_on_c, 1, 55, 0
1, 21645, Note_on_c, 1, 50, 0
1, 21645, Note_on_c, 1, 47, 0
1, 21648, Note_on_c, 1, 55, 78
1, 21648, Note_on_c, 1, 48, 64
1, 21648, Note_on_c, 1, 45, 64
1, 21693, Note_on_c, 1, 55, 0
1, 21693, Note_on_c, 1, 48, 0
1, 21693, Note_on_c, 1, 45, 0
1, 21696, Note_on_c, 1, 55, 78
1, 21696, Note_on_c, 1, 47, 64
1, 21696, Note_on_c, 1, 43, 64
1, 21741, Note_on_c, 1, 55, 0
1, 21741, Note_on_c, 1, 47, 0
1, 21741, Note_on_c, 1, 43, 0
1, 21744, Note_on_c, 1, 55, 78
1, 21744, Note_on_c, 1, 51, 64
1, 21744, Note_on_c, 1, 48, 64
1, 21778, Note_on_c, 1, 55, 0
1, 21780, Note_on_c, 1, 55, 78
1, 21789, Note_on_c, 1, 51, 0
1, 21789, Note_on_c, 1, 48, 0
1, 21792, Note_on_c, 1, 55, 0
1, 21792, Note_on_c, 1, 55, 78
1, 21792, Note_on_c, 1, 50, 64
1, 21792, Note_on_c, 1, 47, 64
1, 21826, Note_on_c, 1, 55, 0
1, 21828, Note_on_c, 1, 55, 78
1, 21837, Note_on_c, 1, 50, 0
1, 21837, Note_on_c, 1, 47, 0
1, 21840, Note_on_c, 1, 55, 0
1, 21840, Note_on_c, 1, 55, 78
1, 21840, Note_on_c, 1, 48, 64
1, 21840, Note_on_c, 1, 45, 64
1, 21874, Note_on_c, 1, 55, 0
1, 21876, Note_on_c, 1, 55, 78
1, 21885, Note_on_c, 1, 48, 0
1, 21885, Note_on_c, 1, 45, 0
1, 21888, Note_on_c, 1, 55, 0
1, 21888, Note_on_c, 1, 55, 78
1, 21888, Note_on_c, 1, 47, 64
1, 21888, Note_on_c, 1, 43, 64
1, 21933, Note_on_c, 1, 55, 0
1, 21933, Note_on_c, 1, 47, 0
1, 21933, Note_on_c, 1, 43, 0
1, 21936, Note_on_c, 1, 54, 78
1, 21936, Note_on_c, 1, 51, 64
1, 21936, Note_on_c, 1, 48, 64
1, 21948, Note_on_c, 1, 54, 0
1, 21948, Note_on_c, 1, 55, 78
1, 21960, Note_on_c, 1, 55, 0
1, 21960, Note_on_c, 1, 57, 78
1, 21972, Note_on_c, 1, 57, 0
1, 21972, Note_on_c, 1, 55, 78
1, 21981, Note_on_c, 1, 51, 0
1, 21981, Note_on_c, 1, 48, 0
1, 21984, Note_on_c, 1, 55, 0
1, 21984, Note_on_c, 1, 54, 78
1, 21984, Note_on_c, 1, 50, 64
1, 21984, Note_on_c, 1, 47, 64
1, 21996, Note_on_c, 1, 54, 0
1, 21996, Note_on_c, 1, 55, 78
1, 22008, Note_on_c, 1, 55, 0
1, 22008, Note_on_c, 1, 57, 78
1, 22020, Note_on_c, 1, 57, 0
1, 22020, Note_on_c, 1, 55, 78
1, 22029, Note_on_c, 1, 50, 0
1, 22029, Note_on_c, 1, 47, 0
1, 22032, Note_on_c, 1, 55, 0
1, 22032, Note_on_c, 1, 54, 78
1, 22032, Note_on_c, 1, 48, 64
1, 22032, Note_on_c, 1, 45, 64
1, 22044, Note_on_c, 1, 54, 0
1, 22044, Note_on_c, 1, 55, 78
1, 22056, Note_on_c, 1, 55, 0
1, 22056, Note_on_c, 1, 57, 78
1, 22068, Note_on_c, 1, 57, 0
1, 22068, Note_on_c, 1, 55, 78
1, 22077, Note_on_c, 1, 48, 0
1, 22077, Note_on_c, 1, 45, 0
1, 22080, Note_on_c, 1, 55, 0
1, 22080, Note_on_c, 1, 54, 78
1, 22080, Note_on_c, 1, 47, 64
1, 22080, Note_on_c, 1, 43, 64
1, 22092, Note_on_c, 1, 54, 0
1, 22092, Note_on_c, 1, 55, 78
1, 22104, Note_on_c, 1, 55, 0
1, 22104, Note_on_c, 1, 57, 78
1, 22116, Note_on_c, 1, 57, 0
1, 22116, Note_on_c, 1, 59, 78
1, 22125, Note_on_c, 1, 47, 0
1, 22125, Note_on_c, 1, 43, 0
1, 22128, Note_on_c, 0, 60, 78
1, 22128, Note_on_c, 1, 59, 0
1, 22140, Note_on_c, 0, 60, 0
1, 22140, Note_on_c, 0, 62, 78
1, 22152, Note_on_c, 0, 62, 0
1, 22152, Note_on_c, 0, 64, 78
1, 22164, Note_on_c, 0, 64, 0
1, 22164, Note_on_c, 0, 66, 78
1, 22176, Note_on_c, 0, 66, 0
1, 22176, Note_on_c, 0, 67, 78
1, 22176, Note_on_c, 1, 55, 78
1, 22199, Note_on_c, 0, 67, 0
1, 22199, Note_on_c, 1, 55, 0
1, 22200, Note_on_c, 0, 69, 78
1, 22200, Note_on_c, 1, 57, 78
1, 22212, Note_on_c, 0, 69, 0
1, 22212, Note_on_c, 0, 71, 78
1, 22212, Note_on_c, 1, 57, 0
1, 22212, Note_on_c, 1, 59, 78
1, 22224, Note_on_c, 0, 71, 0
1, 22224, Note_on_c, 0, 72, 78
1, 22224, Note_on_c, 1, 59, 0
1, 22224, Note_on_c, 1, 60, 78
1, 22236, Note_on_c, 0, 72, 0
1, 22236, Note_on_c, 0, 74, 78
1, 22236, Note_on_c, 1, 60, 0
1, 22236, Note_on_c, 1, 62, 78
1, 22248, Note_on_c, 0, 74, 0
1, 22248, Note_on_c, 0, 76, 78
1, 22248, Note_on_c, 1, 62, 0
1, 22248, Note_on_c, 1, 64, 78
1, 22260, Note_on_c, 0, 76, 0
1, 22260, Note_on_c, 0, 78, 78
1, 22260, Note_on_c, 1, 64, 0
1, 22260, Note_on_c, 1, 66, 78
1, 22272, Note_on_c, 0, 78, 0
1, 22272, Note_on_c, 0, 79, 78
1, 22272, Note_on_c, 1, 66, 0
1, 22272, Note_on_c, 1, 67, 78
1, 22292, Note_on_c, 0, 79, 0
1, 22292, Note_on_c, 1, 67, 0
1, 22320, Note_on_c, 0, 79, 78
1, 22320, Note_on_c, 1, 67, 78
1, 22340, Note_on_c, 0, 79, 0
1, 22340, Note_on_c, 1, 67, 0
1, 22368, Note_on_c, 0, 79, 78
1, 22368, Note_on_c, 1, 67, 78
1, 22388, Note_on_c, 0, 79, 0
1, 22388, Note_on_c, 1, 67, 0
1, 22416, Note_on_c, 0, 79, 78
1, 22416, Note_on_c, 1, 67, 78
1, 22436, Note_on_c, 0, 79, 0
1, 22436, Note_on_c, 1, 67, 0
1, 22464, Note_on_c, 0, 79, 78
1, 22464, Note_on_c, 1, 67, 78
1, 22641, Note_on_c, 0, 79, 0
1, 22641, Note_on_c, 1, 67, 0
1, 22656, Note_on_c, 0, 80, 78
1, 22656, Note_on_c, 0, 68, 78
1, 22704, Note_on_c, 1, 60, 78
1, 22704, Note_on_c, 1, 56, 78
1, 22745, Note_on_c, 0, 80, 0
1, 22745, Note_on_c, 0, 68, 0
1, 22749, Note_on_c, 1, 60, 0
1, 22749, Note_on_c, 1, 56, 0
1, 22752, Note_on_c, 0, 75, 78
1, 22752, Note_on_c, 1, 58, 78
1, 22752, Note_on_c, 1, 55, 78
1, 22797, Note_on_c, 1, 58, 0
1, 22797, Note_on_c, 1, 55, 0
1, 22800, Note_on_c, 1, 55, 78
1, 22800, Note_on_c, 1, 51, 78
1, 22819, Note_on_c, 0, 75, 0
1, 22824, Note_on_c, 0, 73, 78
1, 22845, Note_on_c, 1, 55, 0
1, 22845, Note_on_c, 1, 51, 0
1, 22847, Note_on_c, 0, 73, 0
1, 22848, Note_on_c, 0, 73, 78
1, 22896, Note_on_c, 1, 56, 78
1, 22941, Note_on_c, 1, 56, 0
1, 22944, Note_on_c, 0, 73, 0
1, 22944, Note_on_c, 0, 72, 78
1, 22944, Note_on_c, 1, 60, 78
1, 22956, Note_on_c, 0, 72, 0
1, 22956, Note_on_c, 0, 73, 78
1, 22968, Note_on_c, 0, 73, 0
1, 22968, Note_on_c, 0, 72, 78
1, 22989, Note_on_c, 1, 60, 0
1, 22991, Note_on_c, 0, 72, 0
1, 22992, Note_on_c, 0, 70, 78
1, 22992, Note_on_c, 1, 63, 78
1, 23037, Note_on_c, 0, 70, 0
1, 23037, Note_on_c, 1, 63, 0
1, 23040, Note_on_c, 0, 68, 78
1, 23040, Note_on_c, 1, 65, 78
1, 23085, Note_on_c, 0, 68, 0
1, 23088, Note_on_c, 0, 73, 78
1, 23129, Note_on_c, 1, 65, 0
1, 23133, Note_on_c, 0, 73, 0
1, 23136, Note_on_c, 0, 70, 78
1, 23136, Note_on_c, 1, 67, 78
1, 23181, Note_on_c, 0, 70, 0
1, 23184, Note_on_c, 0, 75, 78
1, 23225, Note_on_c, 1, 67, 0
1, 23229, Note_on_c, 0, 75, 0
1, 23232, Note_on_c, 0, 73, 78
1, 23280, Note_on_c, 1, 68, 78
1, 23325, Note_on_c, 1, 68, 0
1, 23328, Note_on_c, 0, 73, 0
1, 23328, Note_on_c, 0, 72, 78
1, 23328, Note_on_c, 1, 56, 78
1, 23340, Note_on_c, 0, 72, 0
1, 23340, Note_on_c, 0, 73, 78
1, 23352, Note_on_c, 0, 73, 0
1, 23352, Note_on_c, 0, 72, 78
1, 23373, Note_on_c, 1, 56, 0
1, 23375, Note_on_c, 0, 72, 0
1, 23376, Note_on_c, 0, 70, 78
1, 23376, Note_on_c, 1, 63, 78
1, 23421, Note_on_c, 0, 70, 0
1, 23421, Note_on_c, 1, 63, 0
1, 23424, Note_on_c, 0, 68, 78
1, 23424, Note_on_c, 1, 65, 78
1, 23447, Note_on_c, 0, 68, 0
1, 23448, Note_on_c, 0, 75, 78
1, 23471, Note_on_c, 0, 75, 0
1, 23472, Note_on_c, 0, 73, 78
1, 23495, Note_on_c, 0, 73, 0
1, 23496, Note_on_c, 0, 72, 78
1, 23513, Note_on_c, 1, 65, 0
1, 23519, Note_on_c, 0, 72, 0
1, 23520, Note_on_c, 0, 70, 78
1, 23520, Note_on_c, 1, 67, 78
1, 23543, Note_on_c, 0, 70, 0
1, 23544, Note_on_c, 0, 77, 78
1, 23567, Note_on_c, 0, 77, 0
1, 23568, Note_on_c, 0, 75, 78
1, 23591, Note_on_c, 0, 75, 0
1, 23592, Note_on_c, 0, 73, 78
1, 23609, Note_on_c, 1, 67, 0
1, 23615, Note_on_c, 0, 73, 0
1, 23616, Note_on_c, 0, 72, 78
1, 23628, Note_on_c, 0, 72, 0
1, 23628, Note_on_c, 0, 75, 78
1, 23640, Note_on_c, 0, 75, 0
1, 23640, Note_on_c, 0, 73, 78
1, 23664, Note_on_c, 1, 56, 78
1, 23707, Note_on_c, 0, 73, 0
1, 23709, Note_on_c, 1, 56, 0
1, 23712, Note_on_c, 0, 72, 78
1, 23712, Note_on_c, 1, 68, 78
1, 23757, Note_on_c, 0, 72, 0
1, 23757, Note_on_c, 1, 68, 0
1, 23760, Note_on_c, 0, 70, 78
1, 23760, Note_on_c, 1, 66, 78
1, 23805, Note_on_c, 0, 70, 0
1, 23805, Note_on_c, 1, 66, 0
1, 23808, Note_on_c, 0, 69, 78
1, 23808, Note_on_c, 1, 65, 78
1, 23831, Note_on_c, 0, 69, 0
1, 23832, Note_on_c, 0, 75, 78
1, 23855, Note_on_c, 0, 75, 0
1, 23856, Note_on_c, 0, 73, 78
1, 23879, Note_on_c, 0, 73, 0
1, 23880, Note_on_c, 0, 72, 78
1, 23897, Note_on_c, 1, 65, 0
1, 23903, Note_on_c, 0, 72, 0
1, 23904, Note_on_c, 0, 70, 78
1, 23904, Note_on_c, 1, 53, 78
1, 23927, Note_on_c, 0, 70, 0
1, 23928, Note_on_c, 0, 78, 78
1, 23951, Note_on_c, 0, 78, 0
1, 23952, Note_on_c, 0, 77, 78
1, 23975, Note_on_c, 0, 77, 0
1, 23976, Note_on_c, 0, 75, 78
1, 23993, Note_on_c, 1, 53, 0
1, 23999, Note_on_c, 0, 75, 0
1, 24000, Note_on_c, 0, 75, 78
1, 24000, Note_on_c, 0, 65, 64
1, 24000, Note_on_c, 1, 58, 78
1, 24023, Note_on_c, 0, 65, 0
1, 24024, Note_on_c, 0, 70, 64
1, 24047, Note_on_c, 0, 70, 0
1, 24048, Note_on_c, 0, 68, 64
1, 24071, Note_on_c, 0, 68, 0
1, 24072, Note_on_c, 0, 66, 64
1, 24095, Note_on_c, 0, 66, 0
1, 24096, Note_on_c, 0, 75, 0
1, 24096, Note_on_c, 0, 74, 78
1, 24096, Note_on_c, 0, 65, 64
1, 24119, Note_on_c, 0, 65, 0
1, 24120, Note_on_c, 0, 71, 64
1, 24143, Note_on_c, 0, 71, 0
1, 24144, Note_on_c, 0, 70, 64
1, 24167, Note_on_c, 0, 70, 0
1, 24168, Note_on_c, 0, 68, 64
1, 24177, Note_on_c, 1, 58, 0
1, 24185, Note_on_c, 0, 74, 0
1, 24191, Note_on_c, 0, 68, 0
1, 24192, Note_on_c, 0, 70, 78
1, 24192, Note_on_c, 0, 68, 64
1, 24192, Note_on_c, 1, 63, 78
1, 24215, Note_on_c, 0, 70, 0
1, 24216, Note_on_c, 0, 75, 78
1, 24239, Note_on_c, 0, 75, 0
1, 24240, Note_on_c, 0, 73, 78
1, 24263, Note_on_c, 0, 73, 0
1, 24264, Note_on_c, 0, 72, 78
1, 24287, Note_on_c, 0, 72, 0
1, 24288, Note_on_c, 0, 70, 78
1, 24288, Note_on_c, 0, 68, 0
1, 24288, Note_on_c, 0, 67, 64
1, 24311, Note_on_c, 0, 70, 0
1, 24312, Note_on_c, 0, 77, 78
1, 24335, Note_on_c, 0, 77, 0
1, 24336, Note_on_c, 0, 75, 78
1, 24359, Note_on_c, 0, 75, 0
1, 24360, Note_on_c, 0, 73, 78
1, 24369, Note_on_c, 1, 63, 0
1, 24377, Note_on_c, 0, 67, 0
1, 24383, Note_on_c, 0, 73, 0
1, 24384, Note_on_c, 0, 73, 78
1, 24384, Note_on_c, 0, 63, 64
1, 24384, Note_on_c, 1, 56, 78
1, 24407, Note_on_c, 0, 63, 0
1, 24408, Note_on_c, 0, 68, 64
1, 24431, Note_on_c, 0, 68, 0
1, 24432, Note_on_c, 0, 66, 64
1, 24455, Note_on_c, 0, 66, 0
1, 24456, Note_on_c, 0, 65, 64
1, 24479, Note_on_c, 0, 65, 0
1, 24480, Note_on_c, 0, 73, 0
1, 24480, Note_on_c, 0, 72, 78
1, 24480, Note_on_c, 0, 63, 64
1, 24503, Note_on_c, 0, 63, 0
1, 24504, Note_on_c, 0, 70, 64
1, 24527, Note_on_c, 0, 70, 0
1, 24528, Note_on_c, 0, 68, 64
1, 24551, Note_on_c, 0, 68, 0
1, 24552, Note_on_c, 0, 66, 64
1, 24561, Note_on_c, 1, 56, 0
1, 24569, Note_on_c, 0, 72, 0
1, 24575, Note_on_c, 0, 66, 0
1, 24576, Note_on_c, 0, 68, 78
1, 24576, Note_on_c, 0, 66, 64
1, 24576, Note_on_c, 1, 61, 78
1, 24599, Note_on_c, 0, 68, 0
1, 24600, Note_on_c, 0, 72, 78
1, 24623, Note_on_c, 0, 72, 0
1, 24624, Note_on_c, 0, 73, 78
1, 24647, Note_on_c, 0, 73, 0
1, 24648, Note_on_c, 0, 75, 78
1, 24671, Note_on_c, 0, 75, 0
1, 24672, Note_on_c, 0, 77, 78
1, 24672, Note_on_c, 0, 66, 0
1, 24672, Note_on_c, 0, 65, 64
1, 24695, Note_on_c, 0, 77, 0
1, 24696, Note_on_c, 0, 79, 78
1, 24719, Note_on_c, 0, 79, 0
1, 24720, Note_on_c, 0, 80, 78
1, 24743, Note_on_c, 0, 80, 0
1, 24744, Note_on_c, 0, 80, 78
1, 24753, Note_on_c, 1, 61, 0
1, 24761, Note_on_c, 0, 65, 0
1, 24767, Note_on_c, 0, 80, 0
1, 24768, Note_on_c, 0, 80, 78
1, 24768, Note_on_c, 0, 63, 64
1, 24768, Note_on_c, 1, 60, 78
1, 24791, Note_on_c, 0, 63, 0
1, 24792, Note_on_c, 0, 75, 64
1, 24815, Note_on_c, 0, 75, 0
1, 24816, Note_on_c, 0, 73, 64
1, 24839, Note_on_c, 0, 73, 0
1, 24840, Note_on_c, 0, 72, 64
1, 24863, Note_on_c, 0, 72, 0
1, 24864, Note_on_c, 0, 70, 64
1, 24887, Note_on_c, 0, 80, 0
1, 24887, Note_on_c, 0, 70, 0
1, 24888, Note_on_c, 0, 80, 78
1, 24888, Note_on_c, 0, 68, 64
1, 24911, Note_on_c, 0, 80, 0
1, 24911, Note_on_c, 0, 68, 0
1, 24912, Note_on_c, 0, 82, 78
1, 24912, Note_on_c, 0, 67, 64
1, 24935, Note_on_c, 0, 82, 0
1, 24935, Note_on_c, 0, 67, 0
1, 24936, Note_on_c, 0, 84, 78
1, 24936, Note_on_c, 0, 68, 64
1, 24945, Note_on_c, 1, 60, 0
1, 24959, Note_on_c, 0, 84, 0
1, 24960, Note_on_c, 0, 85, 78
1, 24960, Note_on_c, 1, 58, 78
1, 24983, Note_on_c, 0, 85, 0
1, 24984, Note_on_c, 0, 84, 78
1, 25005, Note_on_c, 0, 68, 0
1, 25007, Note_on_c, 0, 84, 0
1, 25008, Note_on_c, 0, 82, 78
1, 25008, Note_on_c, 0, 61, 64
1, 25031, Note_on_c, 0, 82, 0
1, 25032, Note_on_c, 0, 80, 78
1, 25053, Note_on_c, 0, 61, 0
1, 25055, Note_on_c, 0, 80, 0
1, 25056, Note_on_c, 0, 79, 78
1, 25056, Note_on_c, 0, 63, 64
1, 25079, Note_on_c, 0, 79, 0
1, 25080, Note_on_c, 0, 77, 78
1, 25101, Note_on_c, 0, 63, 0
1, 25103, Note_on_c, 0, 77, 0
1, 25104, Note_on_c, 0, 75, 78
1, 25104, Note_on_c, 0, 67, 64
1, 25127, Note_on_c, 0, 75, 0
1, 25128, Note_on_c, 0, 73, 78
1, 25137, Note_on_c, 1, 58, 0
1, 25151, Note_on_c, 0, 73, 0
1, 25152, Note_on_c, 0, 75, 78
1, 25152, Note_on_c, 1, 56, 78
1, 25197, Note_on_c, 0, 75, 0
1, 25197, Note_on_c, 0, 67, 0
1, 25200, Note_on_c, 0, 73, 78
1, 25200, Note_on_c, 0, 63, 64
1, 25212, Note_on_c, 0, 73, 0
1, 25212, Note_on_c, 0, 75, 78
1, 25224, Note_on_c, 0, 75, 0
1, 25224, Note_on_c, 0, 73, 78
1, 25245, Note_on_c, 0, 73, 0
1, 25245, Note_on_c, 0, 63, 0
1, 25248, Note_on_c, 0, 72, 78
1, 25248, Note_on_c, 0, 68, 64
1, 25271, Note_on_c, 0, 72, 0
1, 25272, Note_on_c, 0, 80, 78
1, 25293, Note_on_c, 0, 68, 0
1, 25295, Note_on_c, 0, 80, 0
1, 25296, Note_on_c, 0, 82, 78
1, 25296, Note_on_c, 0, 65, 64
1, 25319, Note_on_c, 0, 82, 0
1, 25320, Note_on_c, 0, 84, 78
1, 25329, Note_on_c, 1, 56, 0
1, 25343, Note_on_c, 0, 84, 0
1, 25344, Note_on_c, 0, 82, 78
1, 25344, Note_on_c, 1, 55, 78
1, 25367, Note_on_c, 0, 82, 0
1, 25368, Note_on_c, 0, 80, 78
1, 25389, Note_on_c, 0, 65, 0
1, 25391, Note_on_c, 0, 80, 0
1, 25392, Note_on_c, 0, 79, 78
1, 25392, Note_on_c, 0, 58, 64
1, 25415, Note_on_c, 0, 79, 0
1, 25416, Note_on_c, 0, 77, 78
1, 25437, Note_on_c, 0, 58, 0
1, 25439, Note_on_c, 0, 77, 0
1, 25440, Note_on_c, 0, 76, 78
1, 25440, Note_on_c, 0, 60, 64
1, 25463, Note_on_c, 0, 76, 0
1, 25464, Note_on_c, 0, 73, 78
1, 25485, Note_on_c, 0, 60, 0
1, 25487, Note_on_c, 0, 73, 0
1, 25488, Note_on_c, 0, 72, 78
1, 25488, Note_on_c, 0, 64, 64
1, 25511, Note_on_c, 0, 72, 0
1, 25512, Note_on_c, 0, 70, 78
1, 25521, Note_on_c, 1, 55, 0
1, 25535, Note_on_c, 0, 70, 0
1, 25536, Note_on_c, 0, 72, 78
1, 25536, Note_on_c, 1, 53, 78
1, 25581, Note_on_c, 0, 72, 0
1, 25581, Note_on_c, 0, 64, 0
1, 25584, Note_on_c, 0, 70, 78
1, 25584, Note_on_c, 0, 60, 64
1, 25596, Note_on_c, 0, 70, 0
1, 25596, Note_on_c, 0, 72, 78
1, 25608, Note_on_c, 0, 72, 0
1, 25608, Note_on_c, 0, 70, 78
1, 25629, Note_on_c, 0, 70, 0
1, 25629, Note_on_c, 0, 60, 0
1, 25632, Note_on_c, 0, 68, 78
1, 25632, Note_on_c, 0, 65, 64
1, 25655, Note_on_c, 0, 68, 0
1, 25656, Note_on_c, 0, 72, 78
1, 25679, Note_on_c, 0, 72, 0
1, 25680, Note_on_c, 0, 77, 78
1, 25703, Note_on_c, 0, 77, 0
1, 25704, Note_on_c, 0, 76, 78
1, 25713, Note_on_c, 1, 53, 0
1, 25721, Note_on_c, 0, 65, 0
1, 25727, Note_on_c, 0, 76, 0
1, 25728, Note_on_c, 0, 79, 78
1, 25728, Note_on_c, 1, 56, 78
1, 25728, Note_on_c, 1, 53, 64
1, 25751, Note_on_c, 0, 79, 0
1, 25752, Note_on_c, 0, 77, 78
1, 25775, Note_on_c, 0, 77, 0
1, 25776, Note_on_c, 0, 80, 78
1, 25799, Note_on_c, 0, 80, 0
1, 25800, Note_on_c, 0, 79, 78
1, 25823, Note_on_c, 0, 79, 0
1, 25824, Note_on_c, 0, 77, 78
1, 25847, Note_on_c, 0, 77, 0
1, 25848, Note_on_c, 0, 75, 78
1, 25861, Note_on_c, 1, 56, 0
1, 25861, Note_on_c, 1, 53, 0
1, 25871, Note_on_c, 0, 75, 0
1, 25872, Note_on_c, 0, 74, 78
1, 25872, Note_on_c, 1, 57, 78
1, 25872, Note_on_c, 1, 54, 64
1, 25895, Note_on_c, 0, 74, 0
1, 25896, Note_on_c, 0, 72, 78
1, 25917, Note_on_c, 1, 57, 0
1, 25917, Note_on_c, 1, 54, 0
1, 25919, Note_on_c, 0, 72, 0
1, 25920, Note_on_c, 0, 79, 78
1, 25920, Note_on_c, 1, 59, 78
1, 25920, Note_on_c, 1, 55, 64
1, 25943, Note_on_c, 1, 59, 0
1, 25944, Note_on_c, 1, 62, 78
1, 25965, Note_on_c, 1, 55, 0
1, 25967, Note_on_c, 1, 62, 0
1, 25968, Note_on_c, 1, 59, 78
1, 25968, Note_on_c, 1, 55, 64
1, 25991, Note_on_c, 1, 59, 0
1, 25992, Note_on_c, 1, 62, 78
1, 26009, Note_on_c, 0, 79, 0
1, 26013, Note_on_c, 1, 55, 0
1, 26015, Note_on_c, 1, 62, 0
1, 26016, Note_on_c, 0, 74, 78
1, 26016, Note_on_c, 1, 59, 78
1, 26016, Note_on_c, 1, 55, 64
1, 26039, Note_on_c, 1, 59, 0
1, 26040, Note_on_c, 1, 62, 78
1, 26061, Note_on_c, 1, 55, 0
1, 26063, Note_on_c, 1, 62, 0
1, 26064, Note_on_c, 1, 59, 78
1, 26064, Note_on_c, 1, 55, 64
1, 26083, Note_on_c, 0, 74, 0
1, 26087, Note_on_c, 1, 59, 0
1, 26088, Note_on_c, 0, 72, 78
1, 26088, Note_on_c, 1, 62, 78
1, 26109, Note_on_c, 1, 55, 0
1, 26111, Note_on_c, 0, 72, 0
1, 26111, Note_on_c, 1, 62, 0
1, 26112, Note_on_c, 0, 72, 78
1, 26112, Note_on_c, 1, 59, 78
1, 26112, Note_on_c, 1, 55, 64
1, 26135, Note_on_c, 1, 59, 0
1, 26136, Note_on_c, 1, 62, 78
1, 26157, Note_on_c, 1, 55, 0
1, 26159, Note_on_c, 1, 62, 0
1, 26160, Note_on_c, 1, 59, 78
1, 26160, Note_on_c, 1, 55, 64
1, 26183, Note_on_c, 1, 59, 0
1, 26184, Note_on_c, 1, 62, 78
1, 26201, Note_on_c, 0, 72, 0
1, 26205, Note_on_c, 1, 55, 0
1, 26207, Note_on_c, 1, 62, 0
1, 26208, Note_on_c, 0, 71, 78
1, 26208, Note_on_c, 1, 59, 78
1, 26208, Note_on_c, 1, 55, 64
1, 26220, Note_on_c, 0, 71, 0
1, 26220, Note_on_c, 0, 72, 78
1, 26231, Note_on_c, 1, 59, 0
1, 26232, Note_on_c, 0, 72, 0
1, 26232, Note_on_c, 0, 71, 78
1, 26232, Note_on_c, 1, 62, 78
1, 26253, Note_on_c, 1, 55, 0
1, 26255, Note_on_c, 1, 62, 0
1, 26256, Note_on_c, 1, 59, 78
1, 26256, Note_on_c, 1, 55, 64
1, 26279, Note_on_c, 1, 59, 0
1, 26280, Note_on_c, 1, 62, 78
1, 26297, Note_on_c, 0, 71, 0
1, 26301, Note_on_c, 1, 55, 0
1, 26303, Note_on_c, 1, 62, 0
1, 26304, Note_on_c, 0, 71, 78
1, 26304, Note_on_c, 1, 59, 78
1, 26304, Note_on_c, 1, 53, 64
1, 26312, Note_on_c, 0, 71, 0
1, 26312, Note_on_c, 0, 74, 78
1, 26320, Note_on_c, 0, 74, 0
1, 26320, Note_on_c, 0, 77, 78
1, 26327, Note_on_c, 1, 59, 0
1, 26328, Note_on_c, 0, 77, 0
1, 26328, Note_on_c, 0, 80, 78
1, 26328, Note_on_c, 1, 62, 78
1, 26349, Note_on_c, 1, 53, 0
1, 26351, Note_on_c, 1, 62, 0
1, 26352, Note_on_c, 1, 59, 78
1, 26352, Note_on_c, 1, 53, 64
1, 26375, Note_on_c, 1, 59, 0
1, 26376, Note_on_c, 1, 62, 78
1, 26395, Note_on_c, 0, 80, 0
1, 26397, Note_on_c, 1, 53, 0
1, 26399, Note_on_c, 1, 62, 0
1, 26400, Note_on_c, 0, 77, 78
1, 26400, Note_on_c, 1, 59, 78
1, 26400, Note_on_c, 1, 53, 64
1, 26423, Note_on_c, 1, 59, 0
1, 26424, Note_on_c, 1, 62, 78
1, 26445, Note_on_c, 1, 53, 0
1, 26447, Note_on_c, 1, 62, 0
1, 26448, Note_on_c, 1, 59, 78
1, 26448, Note_on_c, 1, 53, 64
1, 26467, Note_on_c, 0, 77, 0
1, 26471, Note_on_c, 1, 59, 0
1, 26472, Note_on_c, 0, 74, 78
1, 26472, Note_on_c, 1, 62, 78
1, 26493, Note_on_c, 1, 53, 0
1, 26495, Note_on_c, 0, 74, 0
1, 26495, Note_on_c, 1, 62, 0
1, 26496, Note_on_c, 0, 72, 78
1, 26496, Note_on_c, 1, 59, 78
1, 26496, Note_on_c, 1, 53, 64
1, 26519, Note_on_c, 1, 59, 0
1, 26520, Note_on_c, 1, 62, 78
1, 26541, Note_on_c, 1, 53, 0
1, 26543, Note_on_c, 1, 62, 0
1, 26544, Note_on_c, 1, 59, 78
1, 26544, Note_on_c, 1, 53, 64
1, 26567, Note_on_c, 1, 59, 0
1, 26568, Note_on_c, 1, 62, 78
1, 26585, Note_on_c, 0, 72, 0
1, 26589, Note_on_c, 1, 53, 0
1, 26591, Note_on_c, 1, 62, 0
1, 26592, Note_on_c, 0, 71, 78
1, 26592, Note_on_c, 1, 59, 78
1, 26592, Note_on_c, 1, 53, 64
1, 26604, Note_on_c, 0, 71, 0
1, 26604, Note_on_c, 0, 72, 78
1, 26615, Note_on_c, 1, 59, 0
1, 26616, Note_on_c, 0, 72, 0
1, 26616, Note_on_c, 0, 71, 78
1, 26616, Note_on_c, 1, 62, 78
1, 26637, Note_on_c, 1, 53, 0
1, 26639, Note_on_c, 1, 62, 0
1, 26640, Note_on_c, 1, 59, 78
1, 26640, Note_on_c, 1, 53, 64
1, 26663, Note_on_c, 1, 59, 0
1, 26664, Note_on_c, 1, 62, 78
1, 26681, Note_on_c, 0, 71, 0
1, 26685, Note_on_c, 1, 53, 0
1, 26687, Note_on_c, 1, 62, 0
1, 26688, Note_on_c, 0, 79, 78
1, 26688, Note_on_c, 1, 51, 78
1, 26711, Note_on_c, 1, 51, 0
1, 26712, Note_on_c, 1, 60, 78
1, 26735, Note_on_c, 1, 60, 0
1, 26736, Note_on_c, 1, 63, 78
1, 26755, Note_on_c, 0, 79, 0
1, 26759, Note_on_c, 1, 63, 0
1, 26760, Note_on_c, 0, 75, 78
1, 26760, Note_on_c, 1, 67, 78
1, 26783, Note_on_c, 0, 75, 0
1, 26783, Note_on_c, 1, 67, 0
1, 26784, Note_on_c, 0, 72, 64
1, 26784, Note_on_c, 1, 63, 64
1, 26807, Note_on_c, 1, 63, 0
1, 26808, Note_on_c, 1, 67, 64
1, 26829, Note_on_c, 0, 72, 0
1, 26831, Note_on_c, 1, 67, 0
1, 26832, Note_on_c, 0, 72, 64
1, 26832, Note_on_c, 1, 63, 64
1, 26855, Note_on_c, 1, 63, 0
1, 26856, Note_on_c, 1, 67, 64
1, 26877, Note_on_c, 0, 72, 0
1, 26879, Note_on_c, 1, 67, 0
1, 26880, Note_on_c, 0, 74, 64
1, 26880, Note_on_c, 1, 65, 64
1, 26903, Note_on_c, 0, 74, 0
1, 26903, Note_on_c, 1, 65, 0
1, 26904, Note_on_c, 0, 75, 64
1, 26904, Note_on_c, 1, 67, 64
1, 26927, Note_on_c, 0, 75, 0
1, 26927, Note_on_c, 1, 67, 0
1, 26928, Note_on_c, 0, 77, 64
1, 26928, Note_on_c, 1, 65, 64
1, 26951, Note_on_c, 0, 77, 0
1, 26951, Note_on_c, 1, 65, 0
1, 26952, Note_on_c, 0, 71, 64
1, 26952, Note_on_c, 1, 67, 64
1, 26975, Note_on_c, 0, 71, 0
1, 26975, Note_on_c, 1, 67, 0
1, 26976, Note_on_c, 0, 72, 64
1, 26976, Note_on_c, 1, 63, 64
1, 26999, Note_on_c, 1, 63, 0
1, 27000, Note_on_c, 1, 67, 64
1, 27021, Note_on_c, 0, 72, 0
1, 27023, Note_on_c, 1, 67, 0
1, 27024, Note_on_c, 0, 72, 64
1, 27024, Note_on_c, 1, 63, 64
1, 27047, Note_on_c, 1, 63, 0
1, 27048, Note_on_c, 1, 67, 64
1, 27069, Note_on_c, 0, 72, 0
1, 27071, Note_on_c, 1, 67, 0
1, 27072, Note_on_c, 0, 74, 64
1, 27072, Note_on_c, 1, 65, 64
1, 27095, Note_on_c, 0, 74, 0
1, 27095, Note_on_c, 1, 65, 0
1, 27096, Note_on_c, 0, 75, 65
1, 27096, Note_on_c, 1, 67, 65
1, 27119, Note_on_c, 0, 75, 0
1, 27119, Note_on_c, 1, 67, 0
1, 27120, Note_on_c, 0, 77, 66
1, 27120, Note_on_c, 1, 65, 66
1, 27143, Note_on_c, 0, 77, 0
1, 27143, Note_on_c, 1, 65, 0
1, 27144, Note_on_c, 0, 71, 67
1, 27144, Note_on_c, 1, 67, 67
1, 27167, Note_on_c, 0, 71, 0
1, 27167, Note_on_c, 1, 67, 0
1, 27168, Note_on_c, 0, 72, 68
1, 27168, Note_on_c, 1, 63, 68
1, 27191, Note_on_c, 0, 72, 0
1, 27191, Note_on_c, 1, 63, 0
1, 27192, Note_on_c, 0, 74, 70
1, 27192, Note_on_c, 1, 67, 70
1, 27215, Note_on_c, 0, 74, 0
1, 27215, Note_on_c, 1, 67, 0
1, 27216, Note_on_c, 0, 75, 71
1, 27216, Note_on_c, 1, 63, 71
1, 27239, Note_on_c, 0, 75, 0
1, 27239, Note_on_c, 1, 63, 0
1, 27240, Note_on_c, 0, 72, 72
1, 27240, Note_on_c, 1, 67, 72
1, 27263, Note_on_c, 0, 72, 0
1, 27263, Note_on_c, 1, 67, 0
1, 27264, Note_on_c, 0, 74, 73
1, 27264, Note_on_c, 1, 65, 73
1, 27287, Note_on_c, 0, 74, 0
1, 27287, Note_on_c, 1, 65, 0
1, 27288, Note_on_c, 0, 75, 75
1, 27288, Note_on_c, 1, 67, 75
1, 27311, Note_on_c, 0, 75, 0
1, 27311, Note_on_c, 1, 67, 0
1, 27312, Note_on_c, 0, 77, 76
1, 27312, Note_on_c, 1, 65, 76
1, 27335, Note_on_c, 0, 77, 0
1, 27335, Note_on_c, 1, 65, 0
1, 27336, Note_on_c, 0, 71, 77
1, 27336, Note_on_c, 1, 67, 77
1, 27359, Note_on_c, 0, 71, 0
1, 27359, Note_on_c, 1, 67, 0
1, 27360, Note_on_c, 0, 72, 78
1, 27360, Note_on_c, 1, 63, 78
1, 27383, Note_on_c, 0, 72, 0
1, 27383, Note_on_c, 1, 63, 0
1, 27384, Note_on_c, 0, 74, 80
1, 27384, Note_on_c, 1, 67, 80
1, 27407, Note_on_c, 0, 74, 0
1, 27407, Note_on_c, 1, 67, 0
1, 27408, Note_on_c, 0, 75, 81
1, 27408, Note_on_c, 1, 63, 81
1, 27431, Note_on_c, 0, 75, 0
1, 27431, Note_on_c, 1, 63, 0
1, 27432, Note_on_c, 0, 72, 82
1, 27432, Note_on_c, 1, 67, 82
1, 27455, Note_on_c, 0, 72, 0
1, 27455, Note_on_c, 1, 67, 0
1, 27456, Note_on_c, 0, 74, 83
1, 27456, Note_on_c, 1, 65, 83
1, 27479, Note_on_c, 0, 74, 0
1, 27479, Note_on_c, 1, 65, 0
1, 27480, Note_on_c, 0, 75, 85
1, 27480, Note_on_c, 1, 67, 85
1, 27503, Note_on_c, 0, 75, 0
1, 27503, Note_on_c, 1, 67, 0
1, 27504, Note_on_c, 0, 77, 85
1, 27504, Note_on_c, 1, 65, 85
1, 27527, Note_on_c, 0, 77, 0
1, 27527, Note_on_c, 1, 65, 0
1, 27528, Note_on_c, 0, 71, 85
1, 27528, Note_on_c, 1, 67, 85
1, 27551, Note_on_c, 0, 71, 0
1, 27551, Note_on_c, 1, 67, 0
1, 27552, Note_on_c, 0, 72, 85
1, 27552, Note_on_c, 1, 63, 85
1, 27575, Note_on_c, 1, 63, 0
1, 27576, Note_on_c, 1, 67, 85
1, 27597, Note_on_c, 0, 72, 0
1, 27599, Note_on_c, 1, 67, 0
1, 27600, Note_on_c, 0, 79, 85
1, 27600, Note_on_c, 1, 63, 85
1, 27623, Note_on_c, 1, 63, 0
1, 27624, Note_on_c, 1, 67, 85
1, 27645, Note_on_c, 0, 79, 0
1, 27647, Note_on_c, 1, 67, 0
1, 27648, Note_on_c, 0, 78, 85
1, 27648, Note_on_c, 0, 72, 64
1, 27648, Note_on_c, 1, 69, 85
1, 27648, Note_on_c, 1, 62, 64
1, 27671, Note_on_c, 0, 72, 0
1, 27671, Note_on_c, 1, 69, 0
1, 27672, Note_on_c, 0, 74, 64
1, 27672, Note_on_c, 1, 70, 85
1, 27695, Note_on_c, 0, 74, 0
1, 27695, Note_on_c, 1, 70, 0
1, 27696, Note_on_c, 0, 75, 64
1, 27696, Note_on_c, 1, 72, 85
1, 27719, Note_on_c, 0, 75, 0
1, 27719, Note_on_c, 1, 72, 0
1, 27720, Note_on_c, 0, 72, 64
1, 27720, Note_on_c, 1, 69, 85
1, 27737, Note_on_c, 0, 78, 0
1, 27737, Note_on_c, 1, 62, 0
1, 27743, Note_on_c, 0, 72, 0
1, 27743, Note_on_c, 1, 69, 0
1, 27744, Note_on_c, 0, 77, 85
1, 27744, Note_on_c, 0, 74, 64
1, 27744, Note_on_c, 1, 71, 85
1, 27744, Note_on_c, 1, 67, 64
1, 27767, Note_on_c, 0, 77, 0
1, 27767, Note_on_c, 0, 74, 0
1, 27768, Note_on_c, 0, 79, 85
1, 27768, Note_on_c, 0, 75, 64
1, 27791, Note_on_c, 0, 79, 0
1, 27791, Note_on_c, 0, 75, 0
1, 27792, Note_on_c, 0, 80, 85
1, 27792, Note_on_c, 0, 77, 64
1, 27815, Note_on_c, 0, 80, 0
1, 27815, Note_on_c, 0, 77, 0
1, 27816, Note_on_c, 0, 77, 85
1, 27816, Note_on_c, 0, 74, 64
1, 27833, Note_on_c, 1, 71, 0
1, 27833, Note_on_c, 1, 67, 0
1, 27839, Note_on_c, 0, 77, 0
1, 27839, Note_on_c, 0, 74, 0
1, 27840, Note_on_c, 0, 75, 85
1, 27840, Note_on_c, 0, 72, 64
1, 27840, Note_on_c, 1, 60, 85
1, 27840, Note_on_c, 1, 60, 64
1, 27863, Note_on_c, 0, 75, 0
1, 27863, Note_on_c, 0, 72, 0
1, 27864, Note_on_c, 0, 77, 85
1, 27864, Note_on_c, 0, 74, 64
1, 27887, Note_on_c, 0, 77, 0
1, 27887, Note_on_c, 0, 74, 0
1, 27888, Note_on_c, 0, 79, 85
1, 27888, Note_on_c, 0, 75, 64
1, 27911, Note_on_c, 0, 79, 0
1, 27911, Note_on_c, 0, 75, 0
1, 27912, Note_on_c, 0, 75, 85
1, 27912, Note_on_c, 0, 72, 64
1, 27929, Note_on_c, 1, 60, 0
1, 27929, Note_on_c, 1, 60, 0
1, 27935, Note_on_c, 0, 75, 0
1, 27935, Note_on_c, 0, 72, 0
1, 27936, Note_on_c, 0, 84, 85
1, 27936, Note_on_c, 0, 75, 64
1, 27936, Note_on_c, 1, 51, 85
1, 27936, Note_on_c, 1, 48, 85
1, 27959, Note_on_c, 1, 51, 0
1, 27959, Note_on_c, 1, 48, 0
1, 27960, Note_on_c, 1, 53, 85
1, 27960, Note_on_c, 1, 50, 85
1, 27983, Note_on_c, 1, 53, 0
1, 27983, Note_on_c, 1, 50, 0
1, 27984, Note_on_c, 1, 55, 85
1, 27984, Note_on_c, 1, 51, 85
1, 28007, Note_on_c, 1, 55, 0
1, 28007, Note_on_c, 1, 51, 0
1, 28008, Note_on_c, 1, 51, 85
1, 28008, Note_on_c, 1, 48, 85
1, 28025, Note_on_c, 0, 84, 0
1, 28025, Note_on_c, 0, 75, 0
1, 28031, Note_on_c, 1, 51, 0
1, 28031, Note_on_c, 1, 48, 0
1, 28032, Note_on_c, 1, 56, 85
1, 28032, Note_on_c, 1, 53, 85
1, 28080, Note_on_c, 0, 79, 85
1, 28092, Note_on_c, 0, 79, 0
1, 28092, Note_on_c, 0, 82, 85
1, 28104, Note_on_c, 0, 82, 0
1, 28104, Note_on_c, 0, 80, 85
1, 28114, Note_on_c, 0, 80, 0
1, 28121, Note_on_c, 1, 56, 0
1, 28121, Note_on_c, 1, 53, 0
1, 28128, Note_on_c, 0, 76, 85
1, 28140, Note_on_c, 0, 76, 0
1, 28140, Note_on_c, 0, 79, 85
1, 28152, Note_on_c, 0, 79, 0
1, 28152, Note_on_c, 0, 77, 85
1, 28162, Note_on_c, 0, 77, 0
1, 28176, Note_on_c, 0, 73, 85
1, 28188, Note_on_c, 0, 73, 0
1, 28188, Note_on_c, 0, 75, 85
1, 28200, Note_on_c, 0, 75, 0
1, 28200, Note_on_c, 0, 74, 85
1, 28210, Note_on_c, 0, 74, 0
1, 28224, Note_on_c, 0, 67, 85
1, 28272, Note_on_c, 1, 60, 85
1, 28272, Note_on_c, 1, 51, 64
1, 28317, Note_on_c, 1, 51, 0
1, 28318, Note_on_c, 0, 67, 0
1, 28320, Note_on_c, 0, 75, 85
1, 28320, Note_on_c, 1, 53, 64
1, 28330, Note_on_c, 0, 75, 0
1, 28330, Note_on_c, 0, 74, 85
1, 28340, Note_on_c, 0, 74, 0
1, 28340, Note_on_c, 0, 75, 85
1, 28350, Note_on_c, 0, 75, 0
1, 28350, Note_on_c, 0, 74, 85
1, 28360, Note_on_c, 0, 74, 0
1, 28360, Note_on_c, 0, 75, 85
1, 28361, Note_on_c, 1, 60, 0
1, 28365, Note_on_c, 1, 53, 0
1, 28368, Note_on_c, 1, 59, 85
1, 28368, Note_on_c, 1, 55, 64
1, 28370, Note_on_c, 0, 75, 0
1, 28370, Note_on_c, 0, 74, 85
1, 28380, Note_on_c, 0, 74, 0
1, 28380, Note_on_c, 0, 75, 85
1, 28389, Note_on_c, 0, 75, 0
1, 28389, Note_on_c, 0, 74, 85
1, 28398, Note_on_c, 0, 74, 0
1, 28398, Note_on_c, 0, 72, 85
1, 28407, Note_on_c, 0, 72, 0
1, 28407, Note_on_c, 0, 74, 85
1, 28413, Note_on_c, 1, 59, 0
1, 28413, Note_on_c, 1, 55, 0
1, 28416, Note_on_c, 0, 74, 0
1, 28416, Note_on_c, 1, 60, 85
1, 28416, Note_on_c, 1, 51, 64
1, 28461, Note_on_c, 1, 60, 0
1, 28461, Note_on_c, 1, 51, 0
1, 28464, Note_on_c, 0, 86, 85
1, 28476, Note_on_c, 0, 86, 0
1, 28476, Note_on_c, 0, 89, 85
1, 28488, Note_on_c, 0, 89, 0
1, 28488, Note_on_c, 0, 87, 85
1, 28498, Note_on_c, 0, 87, 0
1, 28512, Note_on_c, 0, 83, 85
1, 28524, Note_on_c, 0, 83, 0
1, 28524, Note_on_c, 0, 86, 85
1, 28536, Note_on_c, 0, 86, 0
1, 28536, Note_on_c, 0, 84, 85
1, 28546, Note_on_c, 0, 84, 0
1, 28560, Note_on_c, 0, 79, 85
1, 28560, Note_on_c, 1, 60, 85
1, 28560, Note_on_c, 1, 53, 64
1, 28572, Note_on_c, 0, 79, 0
1, 28572, Note_on_c, 0, 82, 85
1, 28584, Note_on_c, 0, 82, 0
1, 28584, Note_on_c, 0, 80, 85
1, 28594, Note_on_c, 0, 80, 0
1, 28607, Note_on_c, 1, 60, 0
1, 28607, Note_on_c, 1, 53, 0
1, 28608, Note_on_c, 0, 79, 85
1, 28608, Note_on_c, 1, 60, 85
1, 28608, Note_on_c, 1, 51, 64
1, 28623, Note_on_c, 0, 79, 0
1, 28624, Note_on_c, 0, 75, 85
1, 28639, Note_on_c, 0, 75, 0
1, 28640, Note_on_c, 0, 72, 85
1, 28653, Note_on_c, 1, 60, 0
1, 28653, Note_on_c, 1, 51, 0
1, 28655, Note_on_c, 0, 72, 0
1, 28656, Note_on_c, 0, 80, 85
1, 28656, Note_on_c, 1, 60, 85
1, 28656, Note_on_c, 1, 53, 64
1, 28671, Note_on_c, 0, 80, 0
1, 28672, Note_on_c, 0, 77, 85
1, 28687, Note_on_c, 0, 77, 0
1, 28688, Note_on_c, 0, 74, 85
1, 28701, Note_on_c, 1, 60, 0
1, 28701, Note_on_c, 1, 53, 0
1, 28703, Note_on_c, 0, 74, 0
1, 28704, Note_on_c, 0, 75, 85
1, 28704, Note_on_c, 1, 60, 85
1, 28704, Note_on_c, 1, 55, 64
1, 28714, Note_on_c, 0, 75, 0
1, 28714, Note_on_c, 0, 74, 85
1, 28724, Note_on_c, 0, 74, 0
1, 28724, Note_on_c, 0, 75, 85
1, 28734, Note_on_c, 0, 75, 0
1, 28734, Note_on_c, 0, 74, 85
1, 28744, Note_on_c, 0, 74, 0
1, 28744, Note_on_c, 0, 75, 85
1, 28749, Note_on_c, 1, 60, 0
1, 28752, Note_on_c, 1, 59, 85
1, 28754, Note_on_c, 0, 75, 0
1, 28754, Note_on_c, 0, 74, 85
1, 28764, Note_on_c, 0, 74, 0
1, 28764, Note_on_c, 0, 75, 85
1, 28773, Note_on_c, 0, 75, 0
1, 28773, Note_on_c, 0, 74, 85
1, 28782, Note_on_c, 0, 74, 0
1, 28782, Note_on_c, 0, 72, 85
1, 28791, Note_on_c, 0, 72, 0
1, 28791, Note_on_c, 0, 74, 85
1, 28793, Note_on_c, 1, 55, 0
1, 28797, Note_on_c, 1, 59, 0
1, 28800, Note_on_c, 0, 74, 0
1, 28800, Note_on_c, 0, 72, 85
1, 28848, Note_on_c, 1, 63, 85
1, 28848, Note_on_c, 1, 60, 85
1, 28889, Note_on_c, 0, 72, 0
1, 28893, Note_on_c, 1, 63, 0
1, 28893, Note_on_c, 1, 60, 0
1, 28896, Note_on_c, 0, 67, 85
1, 28896, Note_on_c, 1, 62, 85
1, 28896, Note_on_c, 1, 59, 85
1, 28941, Note_on_c, 1, 62, 0
1, 28941, Note_on_c, 1, 59, 0
1, 28944, Note_on_c, 1, 59, 85
1, 28944, Note_on_c, 1, 55, 85
1, 28963, Note_on_c, 0, 67, 0
1, 28968, Note_on_c, 0, 65, 85
1, 28989, Note_on_c, 1, 59, 0
1, 28989, Note_on_c, 1, 55, 0
1, 28991, Note_on_c, 0, 65, 0
1, 28992, Note_on_c, 0, 65, 85
1, 28992, Note_on_c, 1, 60, 85
1, 29037, Note_on_c, 1, 60, 0
1, 29040, Note_on_c, 1, 48, 85
1, 29085, Note_on_c, 1, 48, 0
1, 29088, Note_on_c, 0, 65, 0
1, 29088, Note_on_c, 0, 63, 85
1, 29094, Note_on_c, 0, 63, 0
1, 29094, Note_on_c, 0, 65, 85
1, 29100, Note_on_c, 0, 65, 0
1, 29100, Note_on_c, 0, 63, 85
1, 29111, Note_on_c, 0, 63, 0
1, 29112, Note_on_c, 0, 65, 85
1, 29124, Note_on_c, 0, 65, 0
1, 29124, Note_on_c, 0, 67, 85
1, 29136, Note_on_c, 0, 67, 0
1, 29136, Note_on_c, 0, 68, 85
1, 29148, Note_on_c, 0, 68, 0
1, 29148, Note_on_c, 0, 70, 85
1, 29160, Note_on_c, 0, 70, 0
1, 29160, Note_on_c, 0, 72, 85
1, 29172, Note_on_c, 0, 72, 0
1, 29172, Note_on_c, 0, 74, 85
1, 29184, Note_on_c, 0, 74, 0
1, 29184, Note_on_c, 0, 75, 85
1, 29184, Note_on_c, 1, 51, 85
1, 29184, Note_on_c, 1, 46, 85
1, 29184, Note_on_c, 1, 43, 85
1, 29184, Note_on_c, 1, 39, 85
1, 29231, Note_on_c, 1, 51, 0
1, 29231, Note_on_c, 1, 46, 0
1, 29231, Note_on_c, 1, 43, 0
1, 29231, Note_on_c, 1, 39, 0
1, 29232, Note_on_c, 1, 67, 85
1, 29232, Note_on_c, 1, 63, 85
1, 29273, Note_on_c, 0, 75, 0
1, 29277, Note_on_c, 1, 67, 0
1, 29277, Note_on_c, 1, 63, 0
1, 29280, Note_on_c, 0, 70, 85
1, 29280, Note_on_c, 1, 65, 85
1, 29280, Note_on_c, 1, 62, 85
1, 29325, Note_on_c, 1, 65, 0
1, 29325, Note_on_c, 1, 62, 0
1, 29328, Note_on_c, 1, 62, 82
1, 29328, Note_on_c, 1, 58, 82
1, 29347, Note_on_c, 0, 70, 0
1, 29352, Note_on_c, 0, 68, 80
1, 29373, Note_on_c, 1, 62, 0
1, 29373, Note_on_c, 1, 58, 0
1, 29375, Note_on_c, 0, 68, 0
1, 29376, Note_on_c, 0, 68, 79
1, 29424, Note_on_c, 1, 51, 77
1, 29469, Note_on_c, 1, 51, 0
1, 29472, Note_on_c, 0, 68, 0
1, 29472, Note_on_c, 0, 67, 73
1, 29472, Note_on_c, 1, 55, 74
1, 29484, Note_on_c, 0, 67, 0
1, 29484, Note_on_c, 0, 68, 73
1, 29496, Note_on_c, 0, 68, 0
1, 29496, Note_on_c, 0, 67, 73
1, 29517, Note_on_c, 0, 67, 0
1, 29517, Note_on_c, 1, 55, 0
1, 29520, Note_on_c, 0, 65, 70
1, 29520, Note_on_c, 1, 58, 71
1, 29565, Note_on_c, 0, 65, 0
1, 29565, Note_on_c, 1, 58, 0
1, 29568, Note_on_c, 0, 63, 67
1, 29568, Note_on_c, 1, 60, 69
1, 29616, Note_on_c, 0, 63, 0
1, 29616, Note_on_c, 0, 68, 64
1, 29661, Note_on_c, 0, 68, 0
1, 29664, Note_on_c, 0, 65, 64
1, 29664, Note_on_c, 1, 60, 0
1, 29664, Note_on_c, 1, 62, 64
1, 29712, Note_on_c, 0, 65, 0
1, 29712, Note_on_c, 0, 70, 64
1, 29753, Note_on_c, 1, 62, 0
1, 29757, Note_on_c, 0, 70, 0
1, 29760, Note_on_c, 0, 68, 64
1, 29808, Note_on_c, 1, 63, 64
1, 29853, Note_on_c, 1, 63, 0
1, 29856, Note_on_c, 0, 68, 0
1, 29856, Note_on_c, 0, 67, 64
1, 29856, Note_on_c, 1, 51, 64
1, 29868, Note_on_c, 0, 67, 0
1, 29868, Note_on_c, 0, 68, 64
1, 29880, Note_on_c, 0, 68, 0
1, 29880, Note_on_c, 0, 67, 64
1, 29901, Note_on_c, 0, 67, 0
1, 29901, Note_on_c, 1, 51, 0
1, 29904, Note_on_c, 0, 65, 64
1, 29904, Note_on_c, 1, 58, 64
1, 29949, Note_on_c, 0, 65, 0
1, 29949, Note_on_c, 1, 58, 0
1, 29952, Note_on_c, 0, 63, 64
1, 29952, Note_on_c, 1, 60, 64
1, 29986, Note_on_c, 0, 63, 0
1, 29988, Note_on_c, 0, 68, 64
1, 30000, Note_on_c, 0, 68, 0
1, 30000, Note_on_c, 0, 68, 64
1, 30012, Note_on_c, 0, 68, 0
1, 30012, Note_on_c, 0, 70, 64
1, 30024, Note_on_c, 0, 70, 0
1, 30024, Note_on_c, 0, 68, 64
1, 30045, Note_on_c, 0, 68, 0
1, 30048, Note_on_c, 0, 65, 64
1, 30048, Note_on_c, 1, 60, 0
1, 30048, Note_on_c, 1, 62, 64
1, 30082, Note_on_c, 0, 65, 0
1, 30084, Note_on_c, 0, 70, 64
1, 30096, Note_on_c, 0, 70, 0
1, 30096, Note_on_c, 0, 70, 64
1, 30108, Note_on_c, 0, 70, 0
1, 30108, Note_on_c, 0, 72, 64
1, 30120, Note_on_c, 0, 72, 0
1, 30120, Note_on_c, 0, 70, 64
1, 30137, Note_on_c, 1, 62, 0
1, 30141, Note_on_c, 0, 70, 0
1, 30144, Note_on_c, 0, 68, 64
1, 30144, Note_on_c, 1, 63, 64
1, 30192, Note_on_c, 0, 68, 0
1, 30192, Note_on_c, 0, 67, 64
1, 30226, Note_on_c, 0, 67, 0
1, 30228, Note_on_c, 0, 79, 64
1, 30233, Note_on_c, 1, 63, 0
1, 30240, Note_on_c, 0, 79, 0
1, 30240, Note_on_c, 0, 75, 64
1, 30260, Note_on_c, 0, 75, 0
1, 30288, Note_on_c, 1, 58, 64
1, 30288, Note_on_c, 1, 55, 64
1, 30324, Note_on_c, 0, 75, 64
1, 30333, Note_on_c, 1, 58, 0
1, 30333, Note_on_c, 1, 55, 0
1, 30336, Note_on_c, 0, 75, 0
1, 30336, Note_on_c, 0, 72, 64
1, 30356, Note_on_c, 0, 72, 0
1, 30384, Note_on_c, 1, 60, 64
1, 30384, Note_on_c, 1, 56, 64
1, 30420, Note_on_c, 0, 72, 64
1, 30429, Note_on_c, 1, 60, 0
1, 30429, Note_on_c, 1, 56, 0
1, 30432, Note_on_c, 0, 72, 0
1, 30432, Note_on_c, 0, 70, 64
1, 30466, Note_on_c, 0, 70, 0
1, 30468, Note_on_c, 0, 68, 64
1, 30480, Note_on_c, 0, 68, 0
1, 30480, Note_on_c, 0, 65, 64
1, 30480, Note_on_c, 1, 56, 64
1, 30480, Note_on_c, 1, 46, 64
1, 30514, Note_on_c, 0, 65, 0
1, 30516, Note_on_c, 0, 62, 64
1, 30525, Note_on_c, 1, 56, 0
1, 30525, Note_on_c, 1, 46, 0
1, 30528, Note_on_c, 0, 62, 0
1, 30528, Note_on_c, 0, 63, 64
1, 30573, Note_on_c, 0, 63, 0
1, 30576, Note_on_c, 1, 55, 64
1, 30576, Note_on_c, 1, 51, 64
1, 30600, Note_on_c, 0, 79, 64
1, 30610, Note_on_c, 0, 79, 0
1, 30621, Note_on_c, 1, 55, 0
1, 30621, Note_on_c, 1, 51, 0
1, 30624, Note_on_c, 0, 74, 64
1, 30636, Note_on_c, 0, 74, 0
1, 30636, Note_on_c, 0, 77, 64
1, 30648, Note_on_c, 0, 77, 0
1, 30648, Note_on_c, 0, 75, 65
1, 30671, Note_on_c, 0, 75, 0
1, 30672, Note_on_c, 1, 58, 65
1, 30672, Note_on_c, 1, 55, 65
1, 30696, Note_on_c, 0, 75, 66
1, 30706, Note_on_c, 0, 75, 0
1, 30717, Note_on_c, 1, 58, 0
1, 30717, Note_on_c, 1, 55, 0
1, 30720, Note_on_c, 0, 71, 66
1, 30732, Note_on_c, 0, 71, 0
1, 30732, Note_on_c, 0, 74, 67
1, 30744, Note_on_c, 0, 74, 0
1, 30744, Note_on_c, 0, 72, 67
1, 30767, Note_on_c, 0, 72, 0
1, 30768, Note_on_c, 1, 60, 67
1, 30768, Note_on_c, 1, 56, 67
1, 30792, Note_on_c, 0, 80, 68
1, 30802, Note_on_c, 0, 80, 0
1, 30813, Note_on_c, 1, 60, 0
1, 30813, Note_on_c, 1, 56, 0
1, 30816, Note_on_c, 0, 76, 69
1, 30828, Note_on_c, 0, 76, 0
1, 30828, Note_on_c, 0, 79, 69
1, 30840, Note_on_c, 0, 79, 0
1, 30840, Note_on_c, 0, 77, 69
1, 30863, Note_on_c, 0, 77, 0
1, 30864, Note_on_c, 1, 60, 69
1, 30864, Note_on_c, 1, 57, 69
1, 30888, Note_on_c, 0, 75, 70
1, 30898, Note_on_c, 0, 75, 0
1, 30909, Note_on_c, 1, 60, 0
1, 30909, Note_on_c, 1, 57, 0
1, 30912, Note_on_c, 0, 73, 71
1, 30924, Note_on_c, 0, 73, 0
1, 30924, Note_on_c, 0, 75, 71
1, 30936, Note_on_c, 0, 75, 0
1, 30936, Note_on_c, 0, 74, 71
1, 30959, Note_on_c, 0, 74, 0
1, 30960, Note_on_c, 1, 62, 71
1, 30960, Note_on_c, 1, 58, 71
1, 30984, Note_on_c, 0, 82, 73
1, 30994, Note_on_c, 0, 82, 0
1, 31005, Note_on_c, 1, 62, 0
1, 31005, Note_on_c, 1, 58, 0
1, 31008, Note_on_c, 0, 81, 73
1, 31020, Note_on_c, 0, 81, 0
1, 31020, Note_on_c, 0, 84, 73
1, 31032, Note_on_c, 0, 84, 0
1, 31032, Note_on_c, 0, 82, 74
1, 31055, Note_on_c, 0, 82, 0
1, 31056, Note_on_c, 1, 63, 73
1, 31056, Note_on_c, 1, 60, 73
1, 31080, Note_on_c, 0, 82, 75
1, 31090, Note_on_c, 0, 82, 0
1, 31101, Note_on_c, 1, 63, 0
1, 31101, Note_on_c, 1, 60, 0
1, 31104, Note_on_c, 0, 81, 75
1, 31116, Note_on_c, 0, 81, 0
1, 31116, Note_on_c, 0, 84, 76
1, 31128, Note_on_c, 0, 84, 0
1, 31128, Note_on_c, 0, 82, 76
1, 31151, Note_on_c, 0, 82, 0
1, 31152, Note_on_c, 1, 65, 75
1, 31152, Note_on_c, 1, 62, 75
1, 31176, Note_on_c, 0, 82, 77
1, 31186, Note_on_c, 0, 82, 0
1, 31197, Note_on_c, 1, 65, 0
1, 31197, Note_on_c, 1, 62, 0
1, 31200, Note_on_c, 0, 81, 78
1, 31212, Note_on_c, 0, 81, 0
1, 31212, Note_on_c, 0, 84, 78
1, 31224, Note_on_c, 0, 84, 0
1, 31224, Note_on_c, 0, 82, 78
1, 31247, Note_on_c, 0, 82, 0
1, 31248, Note_on_c, 1, 67, 77
1, 31248, Note_on_c, 1, 63, 77
1, 31272, Note_on_c, 0, 82, 79
1, 31282, Note_on_c, 0, 82, 0
1, 31293, Note_on_c, 1, 67, 0
1, 31293, Note_on_c, 1, 63, 0
1, 31296, Note_on_c, 0, 79, 80
1, 31308, Note_on_c, 0, 79, 0
1, 31308, Note_on_c, 0, 82, 80
1, 31320, Note_on_c, 0, 82, 0
1, 31320, Note_on_c, 0, 80, 80
1, 31343, Note_on_c, 0, 80, 0
1, 31344, Note_on_c, 1, 68, 79
1, 31344, Note_on_c, 1, 65, 79
1, 31368, Note_on_c, 0, 80, 82
1, 31378, Note_on_c, 0, 80, 0
1, 31389, Note_on_c, 1, 68, 0
1, 31389, Note_on_c, 1, 65, 0
1, 31392, Note_on_c, 0, 79, 82
1, 31404, Note_on_c, 0, 79, 0
1, 31404, Note_on_c, 0, 82, 82
1, 31416, Note_on_c, 0, 82, 0
1, 31416, Note_on_c, 0, 80, 83
1, 31439, Note_on_c, 0, 80, 0
1, 31440, Note_on_c, 1, 68, 81
1, 31440, Note_on_c, 1, 65, 81
1, 31440, Note_on_c, 1, 62, 81
1, 31440, Note_on_c, 1, 58, 81
1, 31464, Note_on_c, 0, 80, 84
1, 31474, Note_on_c, 0, 80, 0
1, 31485, Note_on_c, 1, 68, 0
1, 31485, Note_on_c, 1, 65, 0
1, 31485, Note_on_c, 1, 62, 0
1, 31485, Note_on_c, 1, 58, 0
1, 31488, Note_on_c, 0, 87, 84
1, 31500, Note_on_c, 0, 87, 0
1, 31500, Note_on_c, 0, 86, 85
1, 31512, Note_on_c, 0, 86, 0
1, 31512, Note_on_c, 0, 89, 85
1, 31535, Note_on_c, 0, 89, 0
1, 31536, Note_on_c, 1, 68, 83
1, 31536, Note_on_c, 1, 65, 83
1, 31536, Note_on_c, 1, 62, 83
1, 31536, Note_on_c, 1, 58, 83
1, 31560, Note_on_c, 0, 80, 86
1, 31570, Note_on_c, 0, 80, 0
1, 31581, Note_on_c, 1, 68, 0
1, 31581, Note_on_c, 1, 65, 0
1, 31581, Note_on_c, 1, 62, 0
1, 31581, Note_on_c, 1, 58, 0
1, 31584, Note_on_c, 0, 87, 87
1, 31596, Note_on_c, 0, 87, 0
1, 31596, Note_on_c, 0, 86, 87
1, 31608, Note_on_c, 0, 86, 0
1, 31608, Note_on_c, 0, 89, 87
1, 31631, Note_on_c, 0, 89, 0
1, 31632, Note_on_c, 1, 68, 85
1, 31632, Note_on_c, 1, 65, 85
1, 31632, Note_on_c, 1, 62, 85
1, 31632, Note_on_c, 1, 58, 85
1, 31656, Note_on_c, 0, 80, 88
1, 31666, Note_on_c, 0, 80, 0
1, 31677, Note_on_c, 1, 68, 0
1, 31677, Note_on_c, 1, 65, 0
1, 31677, Note_on_c, 1, 62, 0
1, 31677, Note_on_c, 1, 58, 0
1, 31680, Note_on_c, 0, 87, 89
1, 31692, Note_on_c, 0, 87, 0
1, 31692, Note_on_c, 0, 86, 89
1, 31704, Note_on_c, 0, 86, 0
1, 31704, Note_on_c, 0, 89, 89
1, 31727, Note_on_c, 0, 89, 0
1, 31728, Note_on_c, 1, 68, 87
1, 31728, Note_on_c, 1, 65, 87
1, 31728, Note_on_c, 1, 62, 87
1, 31728, Note_on_c, 1, 58, 87
1, 31752, Note_on_c, 0, 80, 91
1, 31762, Note_on_c, 0, 80, 0
1, 31776, Note_on_c, 0, 87, 91
1, 31791, Note_on_c, 0, 87, 0
1, 31792, Note_on_c, 0, 86, 91
1, 31807, Note_on_c, 0, 86, 0
1, 31808, Note_on_c, 0, 89, 91
1, 31823, Note_on_c, 0, 89, 0
1, 31824, Note_on_c, 0, 87, 91
1, 31839, Note_on_c, 0, 87, 0
1, 31840, Note_on_c, 0, 86, 91
1, 31855, Note_on_c, 0, 86, 0
1, 31856, Note_on_c, 0, 84, 91
1, 31871, Note_on_c, 0, 84, 0
1, 31872, Note_on_c, 0, 82, 91
1, 31887, Note_on_c, 0, 82, 0
1, 31888, Note_on_c, 0, 80, 91
1, 31903, Note_on_c, 0, 80, 0
1, 31904, Note_on_c, 0, 79, 91
1, 31919, Note_on_c, 0, 79, 0
1, 31920, Note_on_c, 0, 82, 91
1, 31935, Note_on_c, 0, 82, 0
1, 31936, Note_on_c, 0, 80, 91
1, 31951, Note_on_c, 0, 80, 0
1, 31952, Note_on_c, 0, 84, 91
1, 31967, Note_on_c, 0, 84, 0
1, 31968, Note_on_c, 0, 82, 91
1, 31980, Note_on_c, 0, 82, 0
1, 31980, Note_on_c, 0, 80, 90
1, 31992, Note_on_c, 0, 80, 0
1, 31992, Note_on_c, 0, 79, 89
1, 32004, Note_on_c, 0, 79, 0
1, 32004, Note_on_c, 0, 77, 88
1, 32016, Note_on_c, 0, 77, 0
1, 32016, Note_on_c, 0, 75, 87
1, 32028, Note_on_c, 0, 75, 0
1, 32028, Note_on_c, 0, 74, 86
1, 32040, Note_on_c, 0, 74, 0
1, 32040, Note_on_c, 0, 72, 86
1, 32052, Note_on_c, 0, 72, 0
1, 32052, Note_on_c, 0, 70, 85
1, 32064, Note_on_c, 0, 70, 0
1, 32064, Note_on_c, 0, 68, 84
1, 32153, Note_on_c, 1, 68, 0
1, 32153, Note_on_c, 1, 65, 0
1, 32153, Note_on_c, 1, 62, 0
1, 32153, Note_on_c, 1, 58, 0
1, 32183, Note_on_c, 0, 68, 0
1, 32184, Note_on_c, 0, 67, 78
1, 32196, Note_on_c, 0, 67, 0
1, 32196, Note_on_c, 0, 68, 78
1, 32208, Note_on_c, 0, 68, 0
1, 32208, Note_on_c, 0, 70, 78
1, 32220, Note_on_c, 0, 70, 0
1, 32220, Note_on_c, 0, 68, 78
1, 32232, Note_on_c, 0, 68, 0
1, 32232, Note_on_c, 0, 67, 78
1, 32244, Note_on_c, 0, 67, 0
1, 32244, Note_on_c, 0, 65, 78
1, 32256, Note_on_c, 0, 65, 0
1, 32256, Note_on_c, 0, 63, 78
1, 32301, Note_on_c, 0, 63, 0
1, 32304, Note_on_c, 0, 63, 78
1, 32304, Note_on_c, 1, 60, 78
1, 32304, Note_on_c, 1, 56, 78
1, 32349, Note_on_c, 0, 63, 0
1, 32349, Note_on_c, 1, 60, 0
1, 32349, Note_on_c, 1, 56, 0
1, 32352, Note_on_c, 0, 63, 78
1, 32352, Note_on_c, 1, 58, 78
1, 32352, Note_on_c, 1, 55, 78
1, 32397, Note_on_c, 0, 63, 0
1, 32397, Note_on_c, 1, 58, 0
1, 32397, Note_on_c, 1, 55, 0
1, 32400, Note_on_c, 0, 63, 78
1, 32400, Note_on_c, 1, 56, 78
1, 32400, Note_on_c, 1, 53, 78
1, 32445, Note_on_c, 0, 63, 0
1, 32445, Note_on_c, 1, 56, 0
1, 32445, Note_on_c, 1, 53, 0
1, 32448, Note_on_c, 0, 63, 78
1, 32448, Note_on_c, 1, 55, 78
1, 32448, Note_on_c, 1, 51, 78
1, 32493, Note_on_c, 0, 63, 0
1, 32493, Note_on_c, 1, 55, 0
1, 32493, Note_on_c, 1, 51, 0
1, 32496, Note_on_c, 0, 63, 78
1, 32496, Note_on_c, 1, 60, 78
1, 32496, Note_on_c, 1, 56, 78
1, 32530, Note_on_c, 0, 63, 0
1, 32532, Note_on_c, 0, 63, 78
1, 32541, Note_on_c, 1, 60, 0
1, 32541, Note_on_c, 1, 56, 0
1, 32544, Note_on_c, 0, 63, 0
1, 32544, Note_on_c, 0, 63, 78
1, 32544, Note_on_c, 1, 58, 78
1, 32544, Note_on_c, 1, 55, 78
1, 32578, Note_on_c, 0, 63, 0
1, 32580, Note_on_c, 0, 63, 78
1, 32589, Note_on_c, 1, 58, 0
1, 32589, Note_on_c, 1, 55, 0
1, 32592, Note_on_c, 0, 63, 0
1, 32592, Note_on_c, 0, 63, 78
1, 32592, Note_on_c, 1, 56, 78
1, 32592, Note_on_c, 1, 53, 78
1, 32626, Note_on_c, 0, 63, 0
1, 32628, Note_on_c, 0, 63, 78
1, 32637, Note_on_c, 1, 56, 0
1, 32637, Note_on_c, 1, 53, 0
1, 32640, Note_on_c, 0, 63, 0
1, 32640, Note_on_c, 0, 63, 78
1, 32640, Note_on_c, 1, 55, 78
1, 32640, Note_on_c, 1, 51, 78
1, 32685, Note_on_c, 0, 63, 0
1, 32685, Note_on_c, 1, 55, 0
1, 32685, Note_on_c, 1, 51, 0
1, 32688, Note_on_c, 0, 65, 78
1, 32688, Note_on_c, 0, 63, 78
1, 32688, Note_on_c, 1, 60, 78
1, 32722, Note_on_c, 0, 65, 0
1, 32722, Note_on_c, 0, 63, 0
1, 32724, Note_on_c, 0, 65, 78
1, 32724, Note_on_c, 0, 63, 78
1, 32733, Note_on_c, 1, 60, 0
1, 32736, Note_on_c, 0, 65, 0
1, 32736, Note_on_c, 0, 63, 0
1, 32736, Note_on_c, 0, 65, 78
1, 32736, Note_on_c, 0, 63, 78
1, 32736, Note_on_c, 1, 58, 78
1, 32770, Note_on_c, 0, 65, 0
1, 32770, Note_on_c, 0, 63, 0
1, 32772, Note_on_c, 0, 65, 78
1, 32772, Note_on_c, 0, 63, 78
1, 32781, Note_on_c, 1, 58, 0
1, 32784, Note_on_c, 0, 65, 0
1, 32784, Note_on_c, 0, 63, 0
1, 32784, Note_on_c, 0, 65, 78
1, 32784, Note_on_c, 0, 63, 78
1, 32784, Note_on_c, 1, 57, 78
1, 32818, Note_on_c, 0, 65, 0
1, 32818, Note_on_c, 0, 63, 0
1, 32820, Note_on_c, 0, 65, 78
1, 32820, Note_on_c, 0, 63, 78
1, 32829, Note_on_c, 1, 57, 0
1, 32832, Note_on_c, 0, 65, 0
1, 32832, Note_on_c, 0, 63, 0
1, 32832, Note_on_c, 0, 65, 78
1, 32832, Note_on_c, 0, 62, 78
1, 32832, Note_on_c, 1, 58, 78
1, 32877, Note_on_c, 0, 65, 0
1, 32877, Note_on_c, 0, 62, 0
1, 32877, Note_on_c, 1, 58, 0
1, 32880, Note_on_c, 0, 70, 78
1, 32880, Note_on_c, 0, 62, 78
1, 32880, Note_on_c, 1, 46, 78
1, 32880, Note_on_c, 1, 34, 78
1, 32914, Note_on_c, 0, 70, 0
1, 32914, Note_on_c, 0, 62, 0
1, 32916, Note_on_c, 0, 70, 78
1, 32916, Note_on_c, 0, 62, 78
1, 32925, Note_on_c, 1, 46, 0
1, 32925, Note_on_c, 1, 34, 0
1, 32928, Note_on_c, 0, 70, 0
1, 32928, Note_on_c, 0, 62, 0
1, 32928, Note_on_c, 0, 70, 78
1, 32928, Note_on_c, 0, 63, 78
1, 32928, Note_on_c, 1, 48, 78
1, 32928, Note_on_c, 1, 36, 78
1, 32962, Note_on_c, 0, 70, 0
1, 32962, Note_on_c, 0, 63, 0
1, 32964, Note_on_c, 0, 70, 78
1, 32964, Note_on_c, 0, 63, 78
1, 32973, Note_on_c, 1, 48, 0
1, 32973, Note_on_c, 1, 36, 0
1, 32976, Note_on_c, 0, 70, 0
1, 32976, Note_on_c, 0, 63, 0
1, 32976, Note_on_c, 0, 68, 78
1, 32976, Note_on_c, 0, 65, 78
1, 32976, Note_on_c, 1, 50, 78
1, 32976, Note_on_c, 1, 38, 78
1, 33010, Note_on_c, 0, 68, 0
1, 33010, Note_on_c, 0, 65, 0
1, 33012, Note_on_c, 0, 68, 78
1, 33012, Note_on_c, 0, 65, 78
1, 33021, Note_on_c, 1, 50, 0
1, 33021, Note_on_c, 1, 38, 0
1, 33024, Note_on_c, 0, 68, 0
1, 33024, Note_on_c, 0, 65, 0
1, 33024, Note_on_c, 0, 67, 78
1, 33024, Note_on_c, 1, 51, 78
1, 33024, Note_on_c, 1, 39, 78
1, 33036, Note_on_c, 0, 67, 0
1, 33036, Note_on_c, 0, 70, 78
1, 33048, Note_on_c, 0, 70, 0
1, 33048, Note_on_c, 0, 68, 78
1, 33060, Note_on_c, 0, 68, 0
1, 33060, Note_on_c, 0, 67, 78
1, 33072, Note_on_c, 0, 67, 0
1, 33072, Note_on_c, 0, 68, 78
1, 33084, Note_on_c, 0, 68, 0
1, 33084, Note_on_c, 0, 70, 78
1, 33096, Note_on_c, 0, 70, 0
1, 33096, Note_on_c, 0, 72, 78
1, 33108, Note_on_c, 0, 72, 0
1, 33108, Note_on_c, 0, 74, 78
1, 33113, Note_on_c, 1, 51, 0
1, 33113, Note_on_c, 1, 39, 0
1, 33120, Note_on_c, 0, 74, 0
1, 33120, Note_on_c, 0, 75, 78
1, 33132, Note_on_c, 0, 75, 0
1, 33132, Note_on_c, 0, 77, 78
1, 33144, Note_on_c, 0, 77, 0
1, 33144, Note_on_c, 0, 79, 78
1, 33156, Note_on_c, 0, 79, 0
1, 33156, Note_on_c, 0, 80, 78
1, 33168, Note_on_c, 0, 80, 0
1, 33168, Note_on_c, 0, 82, 78
1, 33180, Note_on_c, 0, 82, 0
1, 33180, Note_on_c, 0, 80, 78
1, 33192, Note_on_c, 0, 80, 0
1, 33192, Note_on_c, 0, 79, 78
1, 33204, Note_on_c, 0, 79, 0
1, 33204, Note_on_c, 0, 77, 78
1, 33216, Note_on_c, 0, 77, 0
1, 33216, Note_on_c, 0, 75, 78
1, 33216, Note_on_c, 1, 58, 78
1, 33216, Note_on_c, 1, 55, 78
1, 33216, Note_on_c, 1, 51, 78
1, 33228, Note_on_c, 0, 75, 0
1, 33228, Note_on_c, 0, 74, 78
1, 33240, Note_on_c, 0, 74, 0
1, 33240, Note_on_c, 0, 72, 78
1, 33252, Note_on_c, 0, 72, 0
1, 33252, Note_on_c, 0, 70, 78
1, 33264, Note_on_c, 0, 70, 0
1, 33264, Note_on_c, 0, 72, 78
1, 33276, Note_on_c, 0, 72, 0
1, 33276, Note_on_c, 0, 74, 78
1, 33288, Note_on_c, 0, 74, 0
1, 33288, Note_on_c, 0, 75, 78
1, 33300, Note_on_c, 0, 75, 0
1, 33300, Note_on_c, 0, 77, 78
1, 33305, Note_on_c, 1, 58, 0
1, 33305, Note_on_c, 1, 55, 0
1, 33305, Note_on_c, 1, 51, 0
1, 33312, Note_on_c, 0, 77, 0
1, 33312, Note_on_c, 0, 79, 78
1, 33324, Note_on_c, 0, 79, 0
1, 33324, Note_on_c, 0, 77, 78
1, 33336, Note_on_c, 0, 77, 0
1, 33336, Note_on_c, 0, 75, 78
1, 33348, Note_on_c, 0, 75, 0
1, 33348, Note_on_c, 0, 74, 78
1, 33360, Note_on_c, 0, 74, 0
1, 33360, Note_on_c, 0, 72, 78
1, 33372, Note_on_c, 0, 72, 0
1, 33372, Note_on_c, 0, 70, 78
1, 33384, Note_on_c, 0, 70, 0
1, 33384, Note_on_c, 0, 68, 78
1, 33396, Note_on_c, 0, 68, 0
1, 33396, Note_on_c, 0, 67, 78
1, 33408, Note_on_c, 0, 67, 0
1, 33408, Note_on_c, 0, 65, 78
1, 33408, Note_on_c, 1, 53, 78
1, 33408, Note_on_c, 1, 48, 78
1, 33408, Note_on_c, 1, 44, 78
1, 33420, Note_on_c, 0, 65, 0
1, 33420, Note_on_c, 0, 67, 78
1, 33432, Note_on_c, 0, 67, 0
1, 33432, Note_on_c, 0, 68, 78
1, 33444, Note_on_c, 0, 68, 0
1, 33444, Note_on_c, 0, 70, 78
1, 33456, Note_on_c, 0, 70, 0
1, 33456, Note_on_c, 0, 72, 78
1, 33468, Note_on_c, 0, 72, 0
1, 33468, Note_on_c, 0, 70, 78
1, 33480, Note_on_c, 0, 70, 0
1, 33480, Note_on_c, 0, 68, 78
1, 33492, Note_on_c, 0, 68, 0
1, 33492, Note_on_c, 0, 67, 78
1, 33497, Note_on_c, 1, 53, 0
1, 33497, Note_on_c, 1, 48, 0
1, 33497, Note_on_c, 1, 44, 0
1, 33504, Note_on_c, 0, 67, 0
1, 33504, Note_on_c, 0, 65, 78
1, 33516, Note_on_c, 0, 65, 0
1, 33516, Note_on_c, 0, 67, 78
1, 33528, Note_on_c, 0, 67, 0
1, 33528, Note_on_c, 0, 65, 78
1, 33540, Note_on_c, 0, 65, 0
1, 33540, Note_on_c, 0, 63, 78
1, 33552, Note_on_c, 0, 63, 0
1, 33552, Note_on_c, 0, 62, 78
1, 33552, Note_on_c, 1, 53, 78
1, 33552, Note_on_c, 1, 48, 78
1, 33552, Note_on_c, 1, 45, 78
1, 33564, Note_on_c, 0, 62, 0
1, 33564, Note_on_c, 0, 63, 78
1, 33576, Note_on_c, 0, 63, 0
1, 33576, Note_on_c, 0, 62, 78
1, 33588, Note_on_c, 0, 62, 0
1, 33588, Note_on_c, 0, 60, 78
1, 33597, Note_on_c, 1, 53, 0
1, 33597, Note_on_c, 1, 48, 0
1, 33597, Note_on_c, 1, 45, 0
1, 33600, Note_on_c, 0, 60, 0
1, 33600, Note_on_c, 0, 58, 78
1, 33600, Note_on_c, 1, 53, 78
1, 33600, Note_on_c, 1, 50, 78
1, 33600, Note_on_c, 1, 46, 78
1, 33623, Note_on_c, 0, 58, 0
1, 33624, Note_on_c, 0, 60, 78
1, 33636, Note_on_c, 0, 60, 0
1, 33636, Note_on_c, 0, 62, 78
1, 33648, Note_on_c, 0, 62, 0
1, 33648, Note_on_c, 0, 63, 78
1, 33660, Note_on_c, 0, 63, 0
1, 33660, Note_on_c, 0, 65, 78
1, 33672, Note_on_c, 0, 65, 0
1, 33672, Note_on_c, 0, 67, 78
1, 33684, Note_on_c, 0, 67, 0
1, 33684, Note_on_c, 0, 69, 78
1, 33689, Note_on_c, 1, 53, 0
1, 33689, Note_on_c, 1, 50, 0
1, 33689, Note_on_c, 1, 46, 0
1, 33696, Note_on_c, 0, 69, 0
1, 33696, Note_on_c, 0, 70, 78
1, 33719, Note_on_c, 0, 70, 0
1, 33720, Note_on_c, 0, 72, 78
1, 33732, Note_on_c, 0, 72, 0
1, 33732, Note_on_c, 0, 74, 78
1, 33744, Note_on_c, 0, 74, 0
1, 33744, Note_on_c, 0, 75, 78
1, 33756, Note_on_c, 0, 75, 0
1, 33756, Note_on_c, 0, 77, 78
1, 33768, Note_on_c, 0, 77, 0
1, 33768, Note_on_c, 0, 79, 78
1, 33780, Note_on_c, 0, 79, 0
1, 33780, Note_on_c, 0, 81, 78
1, 33792, Note_on_c, 0, 81, 0
1, 33792, Note_on_c, 0, 82, 78
1, 33792, Note_on_c, 1, 46, 78
1, 33792, Note_on_c, 1, 34, 78
1, 33792, Note_on_c, 1, 46, 64
1, 33812, Note_on_c, 0, 82, 0
1, 33837, Note_on_c, 1, 46, 0
1, 33837, Note_on_c, 1, 34, 0
1, 33837, Note_on_c, 1, 46, 0
1, 33840, Note_on_c, 0, 82, 78
1, 33840, Note_on_c, 1, 65, 78
1, 33840, Note_on_c, 1, 62, 78
1, 33840, Note_on_c, 1, 58, 78
1, 33840, Note_on_c, 1, 56, 78
1, 33852, Note_on_c, 0, 82, 0
1, 33852, Note_on_c, 0, 81, 78
1, 33864, Note_on_c, 0, 81, 0
1, 33864, Note_on_c, 0, 82, 78
1, 33876, Note_on_c, 0, 82, 0
1, 33876, Note_on_c, 0, 84, 78
1, 33885, Note_on_c, 1, 65, 0
1, 33885, Note_on_c, 1, 62, 0
1, 33885, Note_on_c, 1, 58, 0
1, 33885, Note_on_c, 1, 56, 0
1, 33888, Note_on_c, 0, 84, 0
1, 33888, Note_on_c, 0, 82, 78
1, 33888, Note_on_c, 1, 65, 78
1, 33888, Note_on_c, 1, 62, 78
1, 33888, Note_on_c, 1, 58, 78
1, 33888, Note_on_c, 1, 56, 78
1, 33900, Note_on_c, 0, 82, 0
1, 33900, Note_on_c, 0, 81, 78
1, 33912, Note_on_c, 0, 81, 0
1, 33912, Note_on_c, 0, 82, 78
1, 33924, Note_on_c, 0, 82, 0
1, 33924, Note_on_c, 0, 84, 78
1, 33933, Note_on_c, 1, 65, 0
1, 33933, Note_on_c, 1, 62, 0
1, 33933, Note_on_c, 1, 58, 0
1, 33933, Note_on_c, 1, 56, 0
1, 33936, Note_on_c, 0, 84, 0
1, 33936, Note_on_c, 0, 82, 78
1, 33936, Note_on_c, 1, 65, 78
1, 33936, Note_on_c, 1, 62, 78
1, 33936, Note_on_c, 1, 58, 78
1, 33936, Note_on_c, 1, 56, 78
1, 33948, Note_on_c, 0, 82, 0
1, 33948, Note_on_c, 0, 80, 78
1, 33960, Note_on_c, 0, 80, 0
1, 33960, Note_on_c, 0, 79, 78
1, 33972, Note_on_c, 0, 79, 0
1, 33972, Note_on_c, 0, 77, 78
1, 33981, Note_on_c, 1, 65, 0
1, 33981, Note_on_c, 1, 62, 0
1, 33981, Note_on_c, 1, 58, 0
1, 33981, Note_on_c, 1, 56, 0
1, 33984, Note_on_c, 0, 77, 0
1, 33984, Note_on_c, 0, 75, 78
1, 33984, Note_on_c, 1, 63, 78
1, 33984, Note_on_c, 1, 58, 78
1, 33984, Note_on_c, 1, 55, 78
1, 34004, Note_on_c, 0, 75, 0
1, 34029, Note_on_c, 1, 63, 0
1, 34029, Note_on_c, 1, 58, 0
1, 34029, Note_on_c, 1, 55, 0
1, 34032, Note_on_c, 0, 82, 78
1, 34032, Note_on_c, 1, 65, 78
1, 34032, Note_on_c, 1, 62, 78
1, 34032, Note_on_c, 1, 58, 78
1, 34032, Note_on_c, 1, 56, 78
1, 34044, Note_on_c, 0, 82, 0
1, 34044, Note_on_c, 0, 81, 78
1, 34056, Note_on_c, 0, 81, 0
1, 34056, Note_on_c, 0, 82, 78
1, 34068, Note_on_c, 0, 82, 0
1, 34068, Note_on_c, 0, 84, 78
1, 34077, Note_on_c, 1, 65, 0
1, 34077, Note_on_c, 1, 62, 0
1, 34077, Note_on_c, 1, 58, 0
1, 34077, Note_on_c, 1, 56, 0
1, 34080, Note_on_c, 0, 84, 0
1, 34080, Note_on_c, 0, 82, 78
1, 34080, Note_on_c, 1, 65, 78
1, 34080, Note_on_c, 1, 62, 78
1, 34080, Note_on_c, 1, 58, 78
1, 34080, Note_on_c, 1, 56, 78
1, 34092, Note_on_c, 0, 82, 0
1, 34092, Note_on_c, 0, 81, 78
1, 34104, Note_on_c, 0, 81, 0
1, 34104, Note_on_c, 0, 82, 78
1, 34116, Note_on_c, 0, 82, 0
1, 34116, Note_on_c, 0, 84, 78
1, 34125, Note_on_c, 1, 65, 0
1, 34125, Note_on_c, 1, 62, 0
1, 34125, Note_on_c, 1, 58, 0
1, 34125, Note_on_c, 1, 56, 0
1, 34128, Note_on_c, 0, 84, 0
1, 34128, Note_on_c, 0, 82, 78
1, 34128, Note_on_c, 1, 65, 78
1, 34128, Note_on_c, 1, 62, 78
1, 34128, Note_on_c, 1, 58, 78
1, 34128, Note_on_c, 1, 56, 78
1, 34140, Note_on_c, 0, 82, 0
1, 34140, Note_on_c, 0, 80, 78
1, 34152, Note_on_c, 0, 80, 0
1, 34152, Note_on_c, 0, 79, 78
1, 34164, Note_on_c, 0, 79, 0
1, 34164, Note_on_c, 0, 77, 78
1, 34173, Note_on_c, 1, 65, 0
1, 34173, Note_on_c, 1, 62, 0
1, 34173, Note_on_c, 1, 58, 0
1, 34173, Note_on_c, 1, 56, 0
1, 34176, Note_on_c, 0, 77, 0
1, 34176, Note_on_c, 0, 75, 78
1, 34176, Note_on_c, 1, 63, 78
1, 34176, Note_on_c, 1, 58, 78
1, 34176, Note_on_c, 1, 55, 78
1, 34196, Note_on_c, 0, 75, 0
1, 34221, Note_on_c, 1, 63, 0
1, 34221, Note_on_c, 1, 58, 0
1, 34221, Note_on_c, 1, 55, 0
1, 34224, Note_on_c, 0, 82, 78
1, 34224, Note_on_c, 1, 65, 78
1, 34224, Note_on_c, 1, 62, 78
1, 34224, Note_on_c, 1, 58, 78
1, 34224, Note_on_c, 1, 56, 78
1, 34236, Note_on_c, 0, 82, 0
1, 34236, Note_on_c, 0, 81, 78
1, 34248, Note_on_c, 0, 81, 0
1, 34248, Note_on_c, 0, 82, 78
1, 34260, Note_on_c, 0, 82, 0
1, 34260, Note_on_c, 0, 84, 78
1, 34269, Note_on_c, 1, 65, 0
1, 34269, Note_on_c, 1, 62, 0
1, 34269, Note_on_c, 1, 58, 0
1, 34269, Note_on_c, 1, 56, 0
1, 34272, Note_on_c, 0, 84, 0
1, 34272, Note_on_c, 0, 82, 78
1, 34272, Note_on_c, 1, 65, 78
1, 34272, Note_on_c, 1, 62, 78
1, 34272, Note_on_c, 1, 58, 78
1, 34272, Note_on_c, 1, 56, 78
1, 34284, Note_on_c, 0, 82, 0
1, 34284, Note_on_c, 0, 81, 78
1, 34296, Note_on_c, 0, 81, 0
1, 34296, Note_on_c, 0, 82, 78
1, 34308, Note_on_c, 0, 82, 0
1, 34308, Note_on_c, 0, 84, 78
1, 34317, Note_on_c, 1, 65, 0
1, 34317, Note_on_c, 1, 62, 0
1, 34317, Note_on_c, 1, 58, 0
1, 34317, Note_on_c, 1, 56, 0
1, 34320, Note_on_c, 0, 84, 0
1, 34320, Note_on_c, 0, 82, 78
1, 34320, Note_on_c, 1, 65, 78
1, 34320, Note_on_c, 1, 62, 78
1, 34320, Note_on_c, 1, 58, 78
1, 34320, Note_on_c, 1, 56, 78
1, 34332, Note_on_c, 0, 82, 0
1, 34332, Note_on_c, 0, 80, 78
1, 34344, Note_on_c, 0, 80, 0
1, 34344, Note_on_c, 0, 79, 78
1, 34356, Note_on_c, 0, 79, 0
1, 34356, Note_on_c, 0, 77, 78
1, 34365, Note_on_c, 1, 65, 0
1, 34365, Note_on_c, 1, 62, 0
1, 34365, Note_on_c, 1, 58, 0
1, 34365, Note_on_c, 1, 56, 0
1, 34368, Note_on_c, 0, 77, 0
1, 34368, Note_on_c, 0, 75, 78
1, 34368, Note_on_c, 1, 63, 78
1, 34368, Note_on_c, 1, 58, 78
1, 34368, Note_on_c, 1, 55, 78
1, 34391, Note_on_c, 0, 75, 0
1, 34392, Note_on_c, 0, 77, 78
1, 34404, Note_on_c, 0, 77, 0
1, 34404, Note_on_c, 0, 79, 78
1, 34416, Note_on_c, 0, 79, 0
1, 34416, Note_on_c, 0, 80, 78
1, 34428, Note_on_c, 0, 80, 0
1, 34428, Note_on_c, 0, 82, 78
1, 34440, Note_on_c, 0, 82, 0
1, 34440, Note_on_c, 0, 84, 78
1, 34452, Note_on_c, 0, 84, 0
1, 34452, Note_on_c, 0, 86, 78
1, 34457, Note_on_c, 1, 63, 0
1, 34457, Note_on_c, 1, 58, 0
1, 34457, Note_on_c, 1, 55, 0
1, 34464, Note_on_c, 0, 86, 0
1, 34464, Note_on_c, 0, 87, 78
1, 34476, Note_on_c, 0, 87, 0
1, 34476, Note_on_c, 0, 86, 78
1, 34488, Note_on_c, 0, 86, 0
1, 34488, Note_on_c, 0, 84, 78
1, 34500, Note_on_c, 0, 84, 0
1, 34500, Note_on_c, 0, 82, 78
1, 34512, Note_on_c, 0, 82, 0
1, 34512, Note_on_c, 0, 80, 78
1, 34524, Note_on_c, 0, 80, 0
1, 34524, Note_on_c, 0, 79, 78
1, 34536, Note_on_c, 0, 79, 0
1, 34536, Note_on_c, 0, 80, 78
1, 34548, Note_on_c, 0, 80, 0
1, 34548, Note_on_c, 0, 82, 78
1, 34560, Note_on_c, 0, 82, 0
1, 34560, Note_on_c, 0, 84, 78
1, 34560, Note_on_c, 1, 63, 78
1, 34560, Note_on_c, 1, 60, 78
1, 34560, Note_on_c, 1, 56, 78
1, 34572, Note_on_c, 0, 84, 0
1, 34572, Note_on_c, 0, 82, 78
1, 34584, Note_on_c, 0, 82, 0
1, 34584, Note_on_c, 0, 80, 78
1, 34596, Note_on_c, 0, 80, 0
1, 34596, Note_on_c, 0, 79, 78
1, 34608, Note_on_c, 0, 79, 0
1, 34608, Note_on_c, 0, 77, 78
1, 34620, Note_on_c, 0, 77, 0
1, 34620, Note_on_c, 0, 76, 78
1, 34632, Note_on_c, 0, 76, 0
1, 34632, Note_on_c, 0, 77, 78
1, 34644, Note_on_c, 0, 77, 0
1, 34644, Note_on_c, 0, 79, 78
1, 34649, Note_on_c, 1, 63, 0
1, 34649, Note_on_c, 1, 60, 0
1, 34649, Note_on_c, 1, 56, 0
1, 34656, Note_on_c, 0, 79, 0
1, 34656, Note_on_c, 0, 80, 78
1, 34668, Note_on_c, 0, 80, 0
1, 34668, Note_on_c, 0, 82, 78
1, 34680, Note_on_c, 0, 82, 0
1, 34680, Note_on_c, 0, 80, 78
1, 34692, Note_on_c, 0, 80, 0
1, 34692, Note_on_c, 0, 79, 78
1, 34704, Note_on_c, 0, 79, 0
1, 34704, Note_on_c, 0, 77, 78
1, 34704, Note_on_c, 1, 65, 78
1, 34704, Note_on_c, 1, 60, 78
1, 34704, Note_on_c, 1, 57, 78
1, 34716, Note_on_c, 0, 77, 0
1, 34716, Note_on_c, 0, 75, 78
1, 34728, Note_on_c, 0, 75, 0
1, 34728, Note_on_c, 0, 74, 78
1, 34740, Note_on_c, 0, 74, 0
1, 34740, Note_on_c, 0, 72, 78
1, 34749, Note_on_c, 1, 65, 0
1, 34749, Note_on_c, 1, 60, 0
1, 34749, Note_on_c, 1, 57, 0
1, 34752, Note_on_c, 0, 72, 0
1, 34752, Note_on_c, 0, 70, 78
1, 34752, Note_on_c, 1, 65, 78
1, 34752, Note_on_c, 1, 62, 78
1, 34752, Note_on_c, 1, 58, 64
1, 34764, Note_on_c, 0, 70, 0
1, 34764, Note_on_c, 0, 72, 78
1, 34776, Note_on_c, 0, 72, 0
1, 34776, Note_on_c, 0, 74, 78
1, 34788, Note_on_c, 0, 74, 0
1, 34788, Note_on_c, 0, 75, 78
1, 34797, Note_on_c, 1, 65, 0
1, 34797, Note_on_c, 1, 62, 0
1, 34800, Note_on_c, 0, 75, 0
1, 34800, Note_on_c, 0, 77, 78
1, 34800, Note_on_c, 1, 62, 78
1, 34812, Note_on_c, 0, 77, 0
1, 34812, Note_on_c, 0, 79, 78
1, 34824, Note_on_c, 0, 79, 0
1, 34824, Note_on_c, 0, 80, 78
1, 34836, Note_on_c, 0, 80, 0
1, 34836, Note_on_c, 0, 77, 78
1, 34845, Note_on_c, 1, 62, 0
1, 34848, Note_on_c, 0, 77, 0
1, 34848, Note_on_c, 0, 79, 78
1, 34848, Note_on_c, 1, 63, 78
1, 34860, Note_on_c, 0, 79, 0
1, 34860, Note_on_c, 0, 82, 78
1, 34872, Note_on_c, 0, 82, 0
1, 34872, Note_on_c, 0, 80, 78
1, 34884, Note_on_c, 0, 80, 0
1, 34884, Note_on_c, 0, 79, 78
1, 34893, Note_on_c, 1, 63, 0
1, 34896, Note_on_c, 0, 79, 0
1, 34896, Note_on_c, 0, 77, 78
1, 34896, Note_on_c, 1, 67, 78
1, 34908, Note_on_c, 0, 77, 0
1, 34908, Note_on_c, 0, 75, 78
1, 34920, Note_on_c, 0, 75, 0
1, 34920, Note_on_c, 0, 74, 78
1, 34929, Note_on_c, 1, 58, 0
1, 34932, Note_on_c, 0, 74, 0
1, 34932, Note_on_c, 0, 72, 78
1, 34941, Note_on_c, 1, 67, 0
1, 34944, Note_on_c, 0, 72, 0
1, 34944, Note_on_c, 0, 70, 78
1, 34944, Note_on_c, 1, 58, 64
1, 34956, Note_on_c, 0, 70, 0
1, 34956, Note_on_c, 0, 72, 78
1, 34968, Note_on_c, 0, 72, 0
1, 34968, Note_on_c, 0, 74, 78
1, 34980, Note_on_c, 0, 74, 0
1, 34980, Note_on_c, 0, 75, 78
1, 34992, Note_on_c, 0, 75, 0
1, 34992, Note_on_c, 0, 77, 78
1, 34992, Note_on_c, 1, 62, 78
1, 35004, Note_on_c, 0, 77, 0
1, 35004, Note_on_c, 0, 79, 78
1, 35016, Note_on_c, 0, 79, 0
1, 35016, Note_on_c, 0, 80, 78
1, 35028, Note_on_c, 0, 80, 0
1, 35028, Note_on_c, 0, 77, 78
1, 35037, Note_on_c, 1, 62, 0
1, 35040, Note_on_c, 0, 77, 0
1, 35040, Note_on_c, 0, 79, 78
1, 35040, Note_on_c, 1, 63, 78
1, 35052, Note_on_c, 0, 79, 0
1, 35052, Note_on_c, 0, 82, 78
1, 35064, Note_on_c, 0, 82, 0
1, 35064, Note_on_c, 0, 80, 78
1, 35076, Note_on_c, 0, 80, 0
1, 35076, Note_on_c, 0, 79, 78
1, 35085, Note_on_c, 1, 63, 0
1, 35088, Note_on_c, 0, 79, 0
1, 35088, Note_on_c, 0, 77, 78
1, 35088, Note_on_c, 1, 67, 78
1, 35100, Note_on_c, 0, 77, 0
1, 35100, Note_on_c, 0, 75, 78
1, 35112, Note_on_c, 0, 75, 0
1, 35112, Note_on_c, 0, 74, 78
1, 35121, Note_on_c, 1, 58, 0
1, 35124, Note_on_c, 0, 74, 0
1, 35124, Note_on_c, 0, 72, 78
1, 35133, Note_on_c, 1, 67, 0
1, 35136, Note_on_c, 0, 72, 0
1, 35136, Note_on_c, 0, 70, 78
1, 35136, Note_on_c, 1, 58, 64
1, 35148, Note_on_c, 0, 70, 0
1, 35148, Note_on_c, 0, 72, 78
1, 35160, Note_on_c, 0, 72, 0
1, 35160, Note_on_c, 0, 74, 78
1, 35172, Note_on_c, 0, 74, 0
1, 35172, Note_on_c, 0, 75, 78
1, 35184, Note_on_c, 0, 75, 0
1, 35184, Note_on_c, 0, 77, 78
1, 35184, Note_on_c, 1, 62, 78
1, 35196, Note_on_c, 0, 77, 0
1, 35196, Note_on_c, 0, 79, 78
1, 35208, Note_on_c, 0, 79, 0
1, 35208, Note_on_c, 0, 80, 78
1, 35220, Note_on_c, 0, 80, 0
1, 35220, Note_on_c, 0, 77, 78
1, 35229, Note_on_c, 1, 62, 0
1, 35232, Note_on_c, 0, 77, 0
1, 35232, Note_on_c, 0, 79, 78
1, 35232, Note_on_c, 1, 63, 78
1, 35244, Note_on_c, 0, 79, 0
1, 35244, Note_on_c, 0, 82, 78
1, 35256, Note_on_c, 0, 82, 0
1, 35256, Note_on_c, 0, 80, 78
1, 35268, Note_on_c, 0, 80, 0
1, 35268, Note_on_c, 0, 79, 78
1, 35277, Note_on_c, 1, 63, 0
1, 35280, Note_on_c, 0, 79, 0
1, 35280, Note_on_c, 0, 77, 78
1, 35280, Note_on_c, 1, 67, 78
1, 35292, Note_on_c, 0, 77, 0
1, 35292, Note_on_c, 0, 75, 78
1, 35304, Note_on_c, 0, 75, 0
1, 35304, Note_on_c, 0, 74, 78
1, 35313, Note_on_c, 1, 58, 0
1, 35316, Note_on_c, 0, 74, 0
1, 35316, Note_on_c, 0, 72, 78
1, 35325, Note_on_c, 1, 67, 0
1, 35328, Note_on_c, 0, 72, 0
1, 35328, Note_on_c, 0, 70, 78
1, 35328, Note_on_c, 1, 62, 78
1, 35328, Note_on_c, 1, 58, 64
1, 35351, Note_on_c, 0, 70, 0
1, 35352, Note_on_c, 0, 72, 78
1, 35364, Note_on_c, 0, 72, 0
1, 35364, Note_on_c, 0, 74, 78
1, 35376, Note_on_c, 0, 74, 0
1, 35376, Note_on_c, 0, 75, 78
1, 35388, Note_on_c, 0, 75, 0
1, 35388, Note_on_c, 0, 77, 78
1, 35400, Note_on_c, 0, 77, 0
1, 35400, Note_on_c, 0, 79, 78
1, 35412, Note_on_c, 0, 79, 0
1, 35412, Note_on_c, 0, 81, 78
1, 35417, Note_on_c, 1, 62, 0
1, 35417, Note_on_c, 1, 58, 0
1, 35424, Note_on_c, 0, 81, 0
1, 35424, Note_on_c, 0, 82, 78
1, 35424, Note_on_c, 1, 46, 78
1, 35424, Note_on_c, 1, 34, 78
1, 35469, Note_on_c, 0, 82, 0
1, 35469, Note_on_c, 1, 46, 0
1, 35469, Note_on_c, 1, 34, 0
1, 35472, Note_on_c, 0, 82, 78
1, 35472, Note_on_c, 0, 74, 78
1, 35472, Note_on_c, 1, 46, 78
1, 35472, Note_on_c, 1, 34, 78
1, 35517, Note_on_c, 0, 82, 0
1, 35517, Note_on_c, 0, 74, 0
1, 35517, Note_on_c, 1, 46, 0
1, 35517, Note_on_c, 1, 34, 0
1, 35520, Note_on_c, 0, 82, 78
1, 35520, Note_on_c, 0, 74, 78
1, 35520, Note_on_c, 1, 46, 78
1, 35520, Note_on_c, 1, 34, 78
1, 35609, Note_on_c, 0, 82, 0
1, 35609, Note_on_c, 0, 74, 0
1, 35609, Note_on_c, 1, 46, 0
1, 35609, Note_on_c, 1, 34, 0
1, 35688, Note_on_c, 0, 55, 78
1, 35700, Note_on_c, 0, 55, 0
1, 35700, Note_on_c, 0, 58, 78
1, 35712, Note_on_c, 0, 58, 0
1, 35712, Note_on_c, 0, 63, 78
1, 35712, Note_on_c, 1, 51, 78
1, 35712, Note_on_c, 1, 46, 78
1, 35712, Note_on_c, 1, 43, 78
1, 35712, Note_on_c, 1, 39, 78
1, 35757, Note_on_c, 1, 51, 0
1, 35757, Note_on_c, 1, 46, 0
1, 35757, Note_on_c, 1, 43, 0
1, 35757, Note_on_c, 1, 39, 0
1, 35779, Note_on_c, 0, 63, 0
1, 35784, Note_on_c, 0, 58, 78
1, 35796, Note_on_c, 0, 58, 0
1, 35796, Note_on_c, 0, 63, 78
1, 35808, Note_on_c, 0, 63, 0
1, 35808, Note_on_c, 0, 67, 78
1, 35808, Note_on_c, 1, 51, 78
1, 35808, Note_on_c, 1, 46, 78
1, 35808, Note_on_c, 1, 43, 78
1, 35808, Note_on_c, 1, 39, 78
1, 35853, Note_on_c, 1, 51, 0
1, 35853, Note_on_c, 1, 46, 0
1, 35853, Note_on_c, 1, 43, 0
1, 35853, Note_on_c, 1, 39, 0
1, 35875, Note_on_c, 0, 67, 0
1, 35880, Note_on_c, 0, 63, 78
1, 35892, Note_on_c, 0, 63, 0
1, 35892, Note_on_c, 0, 67, 78
1, 35904, Note_on_c, 0, 67, 0
1, 35904, Note_on_c, 0, 70, 78
1, 35904, Note_on_c, 1, 51, 78
1, 35904, Note_on_c, 1, 46, 78
1, 35904, Note_on_c, 1, 43, 78
1, 35904, Note_on_c, 1, 39, 78
1, 35924, Note_on_c, 0, 70, 0
1, 35949, Note_on_c, 1, 51, 0
1, 35949, Note_on_c, 1, 46, 0
1, 35949, Note_on_c, 1, 43, 0
1, 35949, Note_on_c, 1, 39, 0
1, 36048, Note_on_c, 0, 75, 64
1, 36082, Note_on_c, 0, 75, 0
1, 36084, Note_on_c, 0, 77, 64
1, 36090, Note_on_c, 0, 77, 0
1, 36090, Note_on_c, 0, 79, 64
1, 36096, Note_on_c, 0, 79, 0
1, 36096, Note_on_c, 0, 70, 64
1, 36096, Note_on_c, 1, 67, 64
1, 36096, Note_on_c, 1, 63, 64
1, 36116, Note_on_c, 0, 70, 0
1, 36141, Note_on_c, 1, 67, 0
1, 36141, Note_on_c, 1, 63, 0
1, 36144, Note_on_c, 0, 75, 64
1, 36178, Note_on_c, 0, 75, 0
1, 36180, Note_on_c, 0, 77, 64
1, 36186, Note_on_c, 0, 77, 0
1, 36186, Note_on_c, 0, 79, 64
1, 36192, Note_on_c, 0, 79, 0
1, 36192, Note_on_c, 0, 69, 64
1, 36192, Note_on_c, 1, 65, 64
1, 36192, Note_on_c, 1, 63, 64
1, 36237, Note_on_c, 0, 69, 0
1, 36237, Note_on_c, 1, 65, 0
1, 36237, Note_on_c, 1, 63, 0
1, 36240, Note_on_c, 0, 74, 64
1, 36255, Note_on_c, 0, 74, 0
1, 36276, Note_on_c, 0, 75, 64
1, 36282, Note_on_c, 0, 75, 0
1, 36282, Note_on_c, 0, 77, 64
1, 36288, Note_on_c, 0, 77, 0
1, 36288, Note_on_c, 0, 68, 64
1, 36288, Note_on_c, 1, 65, 64
1, 36288, Note_on_c, 1, 62, 64
1, 36336, Note_on_c, 1, 59, 64
1, 36381, Note_on_c, 1, 59, 0
1, 36384, Note_on_c, 1, 58, 64
1, 36421, Note_on_c, 0, 68, 0
1, 36421, Note_on_c, 1, 65, 0
1, 36421, Note_on_c, 1, 62, 0
1, 36429, Note_on_c, 1, 58, 0
1, 36432, Note_on_c, 0, 67, 64
1, 36432, Note_on_c, 1, 63, 64
1, 36432, Note_on_c, 1, 63, 64
1, 36477, Note_on_c, 0, 67, 0
1, 36477, Note_on_c, 1, 63, 0
1, 36477, Note_on_c, 1, 63, 0
1, 36480, Note_on_c, 0, 67, 64
1, 36480, Note_on_c, 1, 63, 64
1, 36480, Note_on_c, 1, 56, 64
1, 36480, Note_on_c, 1, 63, 64
1, 36480, Note_on_c, 1, 56, 64
1, 36514, Note_on_c, 0, 67, 0
1, 36516, Note_on_c, 0, 65, 64
1, 36528, Note_on_c, 0, 65, 0
1, 36528, Note_on_c, 0, 68, 64
1, 36562, Note_on_c, 0, 68, 0
1, 36564, Note_on_c, 0, 72, 64
1, 36569, Note_on_c, 1, 63, 0
1, 36569, Note_on_c, 1, 56, 0
1, 36569, Note_on_c, 1, 63, 0
1, 36569, Note_on_c, 1, 56, 0
1, 36576, Note_on_c, 0, 72, 0
1, 36576, Note_on_c, 0, 70, 64
1, 36576, Note_on_c, 1, 62, 64
1, 36576, Note_on_c, 1, 58, 64
1, 36576, Note_on_c, 1, 62, 64
1, 36576, Note_on_c, 1, 58, 64
1, 36621, Note_on_c, 0, 70, 0
1, 36621, Note_on_c, 1, 62, 0
1, 36621, Note_on_c, 1, 58, 0
1, 36621, Note_on_c, 1, 62, 0
1, 36621, Note_on_c, 1, 58, 0
1, 36624, Note_on_c, 0, 68, 64
1, 36624, Note_on_c, 0, 65, 64
1, 36624, Note_on_c, 1, 59, 64
1, 36624, Note_on_c, 1, 59, 64
1, 36669, Note_on_c, 0, 68, 0
1, 36669, Note_on_c, 0, 65, 0
1, 36669, Note_on_c, 1, 59, 0
1, 36669, Note_on_c, 1, 59, 0
1, 36672, Tempo, 1714285
1, 36672, Note_on_c, 0, 67, 64
1, 36672, Note_on_c, 0, 65, 64
1, 36672, Note_on_c, 1, 60, 64
1, 36672, Note_on_c, 1, 60, 64
1, 36680, Note_on_c, 0, 67, 0
1, 36680, Note_on_c, 0, 68, 64
1, 36688, Note_on_c, 0, 68, 0
1, 36688, Note_on_c, 0, 70, 64
1, 36696, Note_on_c, 0, 70, 0
1, 36696, Note_on_c, 0, 68, 64
1, 36717, Note_on_c, 0, 65, 0
1, 36719, Note_on_c, 0, 68, 0
1, 36720, Note_on_c, 0, 67, 64
1, 36720, Note_on_c, 0, 63, 64
1, 36740, Note_on_c, 0, 67, 0
1, 36761, Note_on_c, 1, 60, 0
1, 36761, Note_on_c, 1, 60, 0
1, 36765, Note_on_c, 0, 63, 0
1, 36816, Tempo, 731707
1, 36816, Note_on_c, 0, 75, 64
1, 36850, Note_on_c, 0, 75, 0
1, 36852, Note_on_c, 0, 77, 64
1, 36858, Note_on_c, 0, 77, 0
1, 36858, Note_on_c, 0, 79, 64
1, 36864, Note_on_c, 0, 79, 0
1, 36864, Note_on_c, 0, 70, 64
1, 36864, Note_on_c, 1, 67, 64
1, 36864, Note_on_c, 1, 63, 64
1, 36884, Note_on_c, 0, 70, 0
1, 36909, Note_on_c, 1, 67, 0
1, 36909, Note_on_c, 1, 63, 0
1, 36912, Note_on_c, 0, 75, 64
1, 36946, Note_on_c, 0, 75, 0
1, 36948, Note_on_c, 0, 77, 64
1, 36954, Note_on_c, 0, 77, 0
1, 36954, Note_on_c, 0, 79, 64
1, 36960, Note_on_c, 0, 79, 0
1, 36960, Note_on_c, 0, 69, 64
1, 36960, Note_on_c, 1, 65, 64
1, 36960, Note_on_c, 1, 63, 64
1, 37005, Note_on_c, 0, 69, 0
1, 37005, Note_on_c, 1, 65, 0
1, 37005, Note_on_c, 1, 63, 0
1, 37008, Note_on_c, 0, 74, 64
1, 37023, Note_on_c, 0, 74, 0
1, 37044, Note_on_c, 0, 75, 64
1, 37050, Note_on_c, 0, 75, 0
1, 37050, Note_on_c, 0, 77, 64
1, 37056, Note_on_c, 0, 77, 0
1, 37056, Note_on_c, 0, 68, 64
1, 37056, Note_on_c, 1, 65, 64
1, 37056, Note_on_c, 1, 62, 64
1, 37104, Note_on_c, 1, 59, 64
1, 37149, Note_on_c, 1, 59, 0
1, 37152, Note_on_c, 1, 58, 64
1, 37189, Note_on_c, 0, 68, 0
1, 37189, Note_on_c, 1, 65, 0
1, 37189, Note_on_c, 1, 62, 0
1, 37197, Note_on_c, 1, 58, 0
1, 37200, Note_on_c, 0, 67, 64
1, 37200, Note_on_c, 1, 63, 64
1, 37200, Note_on_c, 1, 63, 64
1, 37245, Note_on_c, 0, 67, 0
1, 37245, Note_on_c, 1, 63, 0
1, 37245, Note_on_c, 1, 63, 0
1, 37248, Note_on_c, 0, 72, 64
1, 37248, Note_on_c, 1, 63, 64
1, 37248, Note_on_c, 1, 56, 64
1, 37293, Note_on_c, 1, 63, 0
1, 37296, Note_on_c, 1, 64, 64
1, 37341, Note_on_c, 1, 64, 0
1, 37344, Note_on_c, 1, 65, 64
1, 37381, Note_on_c, 0, 72, 0
1, 37392, Note_on_c, 0, 77, 64
1, 37425, Note_on_c, 1, 56, 0
1, 37437, Note_on_c, 0, 77, 0
1, 37440, Note_on_c, 0, 75, 64
1, 37440, Note_on_c, 1, 58, 64
1, 37477, Note_on_c, 1, 65, 0
1, 37488, Note_on_c, 1, 65, 64
1, 37536, Note_on_c, 1, 68, 64
1, 37581, Note_on_c, 0, 75, 0
1, 37584, Note_on_c, 0, 74, 64
1, 37596, Note_on_c, 0, 74, 0
1, 37596, Note_on_c, 0, 75, 64
1, 37608, Note_on_c, 0, 75, 0
1, 37608, Note_on_c, 0, 77, 64
1, 37620, Note_on_c, 0, 77, 0
1, 37620, Note_on_c, 0, 79, 64
1, 37632, Note_on_c, 0, 79, 0
1, 37632, Note_on_c, 0, 80, 64
1, 37652, Note_on_c, 0, 80, 0
1, 37680, Note_on_c, 0, 80, 64
1, 37692, Note_on_c, 0, 80, 0
1, 37692, Note_on_c, 0, 79, 64
1, 37704, Note_on_c, 0, 79, 0
1, 37704, Note_on_c, 0, 77, 64
1, 37716, Note_on_c, 0, 77, 0
1, 37716, Note_on_c, 0, 75, 64
1, 37721, Note_on_c, 1, 58, 0
1, 37728, Note_on_c, 0, 75, 0
1, 37728, Note_on_c, 0, 74, 58
1, 37748, Note_on_c, 0, 74, 0
1, 37765, Note_on_c, 1, 68, 0
1, 37765, Note_on_c, 1, 65, 0
1, 37776, Note_on_c, 0, 77, 58
1, 37776, Note_on_c, 1, 62, 58
1, 37788, Note_on_c, 0, 77, 0
1, 37788, Note_on_c, 0, 79, 58
1, 37788, Note_on_c, 1, 62, 0
1, 37788, Note_on_c, 1, 63, 58
1, 37800, Note_on_c, 0, 79, 0
1, 37800, Note_on_c, 0, 80, 58
1, 37800, Note_on_c, 1, 63, 0
1, 37800, Note_on_c, 1, 65, 58
1, 37812, Note_on_c, 0, 80, 0
1, 37812, Note_on_c, 0, 82, 58
1, 37812, Note_on_c, 1, 65, 0
1, 37812, Note_on_c, 1, 67, 58
1, 37824, Note_on_c, 0, 82, 0
1, 37824, Note_on_c, 0, 84, 58
1, 37824, Note_on_c, 1, 67, 0
1, 37824, Note_on_c, 1, 68, 58
1, 37844, Note_on_c, 0, 84, 0
1, 37869, Note_on_c, 1, 68, 0
1, 37872, Note_on_c, 0, 84, 58
1, 37872, Note_on_c, 1, 68, 58
1, 37884, Note_on_c, 0, 84, 0
1, 37884, Note_on_c, 0, 82, 58
1, 37884, Note_on_c, 1, 68, 0
1, 37884, Note_on_c, 1, 67, 58
1, 37896, Note_on_c, 0, 82, 0
1, 37896, Note_on_c, 0, 80, 58
1, 37896, Note_on_c, 1, 67, 0
1, 37896, Note_on_c, 1, 65, 58
1, 37908, Note_on_c, 0, 80, 0
1, 37908, Note_on_c, 0, 79, 58
1, 37908, Note_on_c, 1, 65, 0
1, 37908, Note_on_c, 1, 63, 58
1, 37920, Note_on_c, 0, 79, 0
1, 37920, Note_on_c, 0, 77, 58
1, 37920, Note_on_c, 1, 63, 0
1, 37920, Note_on_c, 1, 62, 58
1, 37940, Note_on_c, 0, 77, 0
1, 37965, Note_on_c, 1, 62, 0
1, 37968, Note_on_c, 0, 77, 58
1, 37968, Note_on_c, 1, 62, 58
1, 37980, Note_on_c, 0, 77, 0
1, 37980, Note_on_c, 0, 79, 58
1, 37980, Note_on_c, 1, 62, 0
1, 37980, Note_on_c, 1, 63, 58
1, 37992, Note_on_c, 0, 79, 0
1, 37992, Note_on_c, 0, 80, 58
1, 37992, Note_on_c, 1, 63, 0
1, 37992, Note_on_c, 1, 65, 58
1, 38004, Note_on_c, 0, 80, 0
1, 38004, Note_on_c, 0, 82, 58
1, 38004, Note_on_c, 1, 65, 0
1, 38004, Note_on_c, 1, 67, 58
1, 38016, Note_on_c, 0, 82, 0
1, 38016, Note_on_c, 0, 84, 58
1, 38016, Note_on_c, 1, 67, 0
1, 38016, Note_on_c, 1, 68, 58
1, 38061, Note_on_c, 0, 84, 0
1, 38061, Note_on_c, 1, 68, 0
1, 38400, Note_on_c, 0, 79, 85
1, 38400, Note_on_c, 1, 51, 64
1, 38400, Note_on_c, 1, 46, 64
1, 38400, Note_on_c, 1, 43, 64
1, 38400, Note_on_c, 1, 39, 64
1, 38412, Note_on_c, 0, 79, 0
1, 38412, Note_on_c, 0, 77, 85
1, 38424, Note_on_c, 0, 77, 0
1, 38424, Note_on_c, 0, 75, 85
1, 38436, Note_on_c, 0, 75, 0
1, 38436, Note_on_c, 0, 74, 85
1, 38448, Note_on_c, 0, 74, 0
1, 38448, Note_on_c, 0, 75, 85
1, 38460, Note_on_c, 0, 75, 0
1, 38460, Note_on_c, 0, 74, 85
1, 38472, Note_on_c, 0, 74, 0
1, 38472, Note_on_c, 0, 72, 85
1, 38484, Note_on_c, 0, 72, 0
1, 38484, Note_on_c, 0, 70, 85
1, 38489, Note_on_c, 1, 51, 0
1, 38489, Note_on_c, 1, 46, 0
1, 38489, Note_on_c, 1, 43, 0
1, 38489, Note_on_c, 1, 39, 0
1, 38496, Note_on_c, 0, 70, 0
1, 38496, Note_on_c, 0, 68, 85
1, 38508, Note_on_c, 0, 68, 0
1, 38508, Note_on_c, 0, 67, 85
1, 38520, Note_on_c, 0, 67, 0
1, 38520, Note_on_c, 0, 65, 85
1, 38532, Note_on_c, 0, 65, 0
1, 38532, Note_on_c, 0, 63, 85
1, 38544, Note_on_c, 0, 63, 0
1, 38544, Note_on_c, 0, 62, 85
1, 38556, Note_on_c, 0, 62, 0
1, 38556, Note_on_c, 0, 63, 85
1, 38568, Note_on_c, 0, 63, 0
1, 38568, Note_on_c, 0, 62, 85
1, 38580, Note_on_c, 0, 62, 0
1, 38580, Note_on_c, 0, 63, 85
1, 38592, Note_on_c, 0, 63, 0
1, 38592, Note_on_c, 0, 79, 85
1, 38592, Note_on_c, 1, 60, 64
1, 38592, Note_on_c, 1, 55, 64
1, 38592, Note_on_c, 1, 51, 64
1, 38592, Note_on_c, 1, 48, 64
1, 38604, Note_on_c, 0, 79, 0
1, 38604, Note_on_c, 0, 77, 85
1, 38616, Note_on_c, 0, 77, 0
1, 38616, Note_on_c, 0, 75, 85
1, 38628, Note_on_c, 0, 75, 0
1, 38628, Note_on_c, 0, 74, 85
1, 38640, Note_on_c, 0, 74, 0
1, 38640, Note_on_c, 0, 75, 85
1, 38652, Note_on_c, 0, 75, 0
1, 38652, Note_on_c, 0, 74, 85
1, 38664, Note_on_c, 0, 74, 0
1, 38664, Note_on_c, 0, 72, 85
1, 38676, Note_on_c, 0, 72, 0
1, 38676, Note_on_c, 0, 70, 85
1, 38681, Note_on_c, 1, 60, 0
1, 38681, Note_on_c, 1, 55, 0
1, 38681, Note_on_c, 1, 51, 0
1, 38681, Note_on_c, 1, 48, 0
1, 38688, Note_on_c, 0, 70, 0
1, 38688, Note_on_c, 0, 68, 85
1, 38700, Note_on_c, 0, 68, 0
1, 38700, Note_on_c, 0, 67, 85
1, 38712, Note_on_c, 0, 67, 0
1, 38712, Note_on_c, 0, 65, 85
1, 38724, Note_on_c, 0, 65, 0
1, 38724, Note_on_c, 0, 63, 85
1, 38736, Note_on_c, 0, 63, 0
1, 38736, Note_on_c, 0, 62, 85
1, 38748, Note_on_c, 0, 62, 0
1, 38748, Note_on_c, 0, 63, 85
1, 38760, Note_on_c, 0, 63, 0
1, 38760, Note_on_c, 0, 62, 85
1, 38772, Note_on_c, 0, 62, 0
1, 38772, Note_on_c, 0, 63, 85
1, 38784, Note_on_c, 0, 63, 0
1, 38784, Note_on_c, 0, 72, 85
1, 38784, Note_on_c, 1, 53, 64
1, 38784, Note_on_c, 1, 48, 64
1, 38784, Note_on_c, 1, 44, 64
1, 38796, Note_on_c, 0, 72, 0
1, 38796, Note_on_c, 0, 70, 85
1, 38808, Note_on_c, 0, 70, 0
1, 38808, Note_on_c, 0, 68, 85
1, 38820, Note_on_c, 0, 68, 0
1, 38820, Note_on_c, 0, 67, 85
1, 38832, Note_on_c, 0, 67, 0
1, 38832, Note_on_c, 0, 68, 85
1, 38844, Note_on_c, 0, 68, 0
1, 38844, Note_on_c, 0, 67, 85
1, 38856, Note_on_c, 0, 67, 0
1, 38856, Note_on_c, 0, 65, 85
1, 38868, Note_on_c, 0, 65, 0
1, 38868, Note_on_c, 0, 64, 85
1, 38873, Note_on_c, 1, 53, 0
1, 38873, Note_on_c, 1, 48, 0
1, 38873, Note_on_c, 1, 44, 0
1, 38880, Note_on_c, 0, 64, 0
1, 38880, Note_on_c, 0, 65, 85
1, 38892, Note_on_c, 0, 65, 0
1, 38892, Note_on_c, 0, 67, 85
1, 38904, Note_on_c, 0, 67, 0
1, 38904, Note_on_c, 0, 68, 85
1, 38916, Note_on_c, 0, 68, 0
1, 38916, Note_on_c, 0, 67, 85
1, 38928, Note_on_c, 0, 67, 0
1, 38928, Note_on_c, 0, 65, 85
1, 38940, Note_on_c, 0, 65, 0
1, 38940, Note_on_c, 0, 63, 85
1, 38952, Note_on_c, 0, 63, 0
1, 38952, Note_on_c, 0, 62, 85
1, 38964, Note_on_c, 0, 62, 0
1, 38964, Note_on_c, 0, 60, 85
1, 38976, Note_on_c, 0, 60, 0
1, 38976, Note_on_c, 0, 58, 85
1, 38976, Note_on_c, 1, 55, 64
1, 38976, Note_on_c, 1, 51, 64
1, 38976, Note_on_c, 1, 46, 64
1, 38999, Note_on_c, 0, 58, 0
1, 39000, Note_on_c, 0, 75, 85
1, 39023, Note_on_c, 0, 75, 0
1, 39024, Note_on_c, 0, 75, 85
1, 39047, Note_on_c, 0, 75, 0
1, 39048, Note_on_c, 0, 75, 85
1, 39065, Note_on_c, 1, 55, 0
1, 39065, Note_on_c, 1, 51, 0
1, 39065, Note_on_c, 1, 46, 0
1, 39071, Note_on_c, 0, 75, 0
1, 39072, Note_on_c, 0, 75, 85
1, 39084, Note_on_c, 0, 75, 0
1, 39084, Note_on_c, 0, 77, 85
1, 39096, Note_on_c, 0, 77, 0
1, 39096, Note_on_c, 0, 79, 85
1, 39108, Note_on_c, 0, 79, 0
1, 39108, Note_on_c, 0, 80, 85
1, 39120, Note_on_c, 0, 80, 0
1, 39120, Note_on_c, 0, 82, 85
1, 39143, Note_on_c, 0, 82, 0
1, 39168, Note_on_c, 0, 75, 85
1, 39168, Note_on_c, 1, 67, 85
1, 39168, Note_on_c, 1, 58, 64
1, 39177, Note_on_c, 0, 75, 0
1, 39177, Note_on_c, 0, 74, 85
1, 39177, Note_on_c, 1, 67, 0
1, 39177, Note_on_c, 1, 65, 85
1, 39186, Note_on_c, 0, 74, 0
1, 39186, Note_on_c, 0, 75, 85
1, 39186, Note_on_c, 1, 65, 0
1, 39186, Note_on_c, 1, 67, 85
1, 39195, Note_on_c, 0, 75, 0
1, 39195, Note_on_c, 0, 74, 85
1, 39195, Note_on_c, 1, 67, 0
1, 39195, Note_on_c, 1, 65, 85
1, 39204, Note_on_c, 0, 74, 0
1, 39204, Note_on_c, 0, 75, 85
1, 39204, Note_on_c, 1, 65, 0
1, 39204, Note_on_c, 1, 67, 85
1, 39213, Note_on_c, 0, 75, 0
1, 39213, Note_on_c, 0, 74, 85
1, 39213, Note_on_c, 1, 67, 0
1, 39213, Note_on_c, 1, 65, 85
1, 39222, Note_on_c, 0, 74, 0
1, 39222, Note_on_c, 0, 75, 85
1, 39222, Note_on_c, 1, 65, 0
1, 39222, Note_on_c, 1, 67, 85
1, 39231, Note_on_c, 0, 75, 0
1, 39231, Note_on_c, 0, 74, 85
1, 39231, Note_on_c, 1, 67, 0
1, 39231, Note_on_c, 1, 65, 85
1, 39240, Note_on_c, 0, 74, 0
1, 39240, Note_on_c, 0, 75, 85
1, 39240, Note_on_c, 1, 65, 0
1, 39240, Note_on_c, 1, 67, 85
1, 39249, Note_on_c, 0, 75, 0
1, 39249, Note_on_c, 0, 74, 85
1, 39249, Note_on_c, 1, 67, 0
1, 39249, Note_on_c, 1, 65, 85
1, 39258, Note_on_c, 0, 74, 0
1, 39258, Note_on_c, 0, 75, 85
1, 39258, Note_on_c, 1, 65, 0
1, 39258, Note_on_c, 1, 67, 85
1, 39267, Note_on_c, 0, 75, 0
1, 39267, Note_on_c, 0, 74, 85
1, 39267, Note_on_c, 1, 67, 0
1, 39267, Note_on_c, 1, 65, 85
1, 39276, Note_on_c, 0, 74, 0
1, 39276, Note_on_c, 0, 75, 85
1, 39276, Note_on_c, 1, 65, 0
1, 39276, Note_on_c, 1, 67, 85
1, 39285, Note_on_c, 0, 75, 0
1, 39285, Note_on_c, 0, 74, 85
1, 39285, Note_on_c, 1, 67, 0
1, 39285, Note_on_c, 1, 65, 85
1, 39294, Note_on_c, 0, 74, 0
1, 39294, Note_on_c, 0, 75, 85
1, 39294, Note_on_c, 1, 65, 0
1, 39294, Note_on_c, 1, 67, 85
1, 39303, Note_on_c, 0, 75, 0
1, 39303, Note_on_c, 0, 74, 85
1, 39303, Note_on_c, 1, 67, 0
1, 39303, Note_on_c, 1, 65, 85
1, 39312, Note_on_c, 0, 74, 0
1, 39312, Note_on_c, 0, 75, 85
1, 39312, Note_on_c, 1, 65, 0
1, 39312, Note_on_c, 1, 67, 85
1, 39320, Note_on_c, 0, 75, 0
1, 39320, Note_on_c, 0, 74, 85
1, 39320, Note_on_c, 1, 67, 0
1, 39320, Note_on_c, 1, 65, 85
1, 39328, Note_on_c, 0, 74, 0
1, 39328, Note_on_c, 0, 75, 85
1, 39328, Note_on_c, 1, 65, 0
1, 39328, Note_on_c, 1, 67, 85
1, 39336, Note_on_c, 0, 75, 0
1, 39336, Note_on_c, 0, 74, 85
1, 39336, Note_on_c, 1, 67, 0
1, 39336, Note_on_c, 1, 65, 85
1, 39344, Note_on_c, 0, 74, 0
1, 39344, Note_on_c, 0, 72, 85
1, 39344, Note_on_c, 1, 65, 0
1, 39344, Note_on_c, 1, 63, 85
1, 39345, Note_on_c, 1, 58, 0
1, 39352, Note_on_c, 0, 72, 0
1, 39352, Note_on_c, 0, 74, 85
1, 39352, Note_on_c, 1, 63, 0
1, 39352, Note_on_c, 1, 65, 85
1, 39360, Note_on_c, 0, 74, 0
1, 39360, Note_on_c, 0, 75, 85
1, 39360, Note_on_c, 1, 65, 0
1, 39360, Note_on_c, 1, 67, 85
1, 39360, Note_on_c, 1, 63, 85
1, 39405, Note_on_c, 0, 75, 0
1, 39405, Note_on_c, 1, 67, 0
1, 39405, Note_on_c, 1, 63, 0
1, 39408, Note_on_c, 0, 70, 85
1, 39408, Note_on_c, 0, 67, 85
1, 39408, Note_on_c, 1, 63, 85
1, 39408, Note_on_c, 1, 58, 85
1, 39408, Note_on_c, 1, 55, 85
1, 39428, Note_on_c, 0, 70, 0
1, 39428, Note_on_c, 0, 67, 0
1, 39428, Note_on_c, 1, 63, 0
1, 39428, Note_on_c, 1, 58, 0
1, 39428, Note_on_c, 1, 55, 0
1, 39456, Note_on_c, 0, 72, 85
1, 39456, Note_on_c, 0, 68, 85
1, 39456, Note_on_c, 1, 63, 85
1, 39456, Note_on_c, 1, 60, 85
1, 39456, Note_on_c, 1, 56, 85
1, 39476, Note_on_c, 0, 72, 0
1, 39476, Note_on_c, 0, 68, 0
1, 39476, Note_on_c, 1, 63, 0
1, 39476, Note_on_c, 1, 60, 0
1, 39476, Note_on_c, 1, 56, 0
1, 39504, Note_on_c, 0, 70, 85
1, 39504, Note_on_c, 1, 62, 85
1, 39516, Note_on_c, 0, 70, 0
1, 39516, Note_on_c, 0, 68, 85
1, 39528, Note_on_c, 0, 68, 0
1, 39528, Note_on_c, 0, 67, 85
1, 39540, Note_on_c, 0, 67, 0
1, 39540, Note_on_c, 0, 68, 85
1, 39549, Note_on_c, 1, 62, 0
1, 39552, Note_on_c, 0, 68, 0
1, 39552, Note_on_c, 0, 67, 85
1, 39552, Note_on_c, 1, 63, 85
1, 39597, Note_on_c, 0, 67, 0
1, 39597, Note_on_c, 1, 63, 0
1, 39600, Note_on_c, 0, 82, 85
1, 39600, Note_on_c, 0, 79, 85
1, 39600, Note_on_c, 0, 75, 85
1, 39600, Note_on_c, 1, 63, 85
1, 39600, Note_on_c, 1, 58, 85
1, 39600, Note_on_c, 1, 55, 85
1, 39620, Note_on_c, 0, 82, 0
1, 39620, Note_on_c, 0, 79, 0
1, 39620, Note_on_c, 0, 75, 0
1, 39620, Note_on_c, 1, 63, 0
1, 39620, Note_on_c, 1, 58, 0
1, 39620, Note_on_c, 1, 55, 0
1, 39648, Note_on_c, 0, 80, 85
1, 39648, Note_on_c, 0, 77, 85
1, 39648, Note_on_c, 0, 72, 85
1, 39648, Note_on_c, 1, 63, 85
1, 39648, Note_on_c, 1, 60, 85
1, 39648, Note_on_c, 1, 56, 85
1, 39668, Note_on_c, 0, 80, 0
1, 39668, Note_on_c, 0, 77, 0
1, 39668, Note_on_c, 0, 72, 0
1, 39668, Note_on_c, 1, 63, 0
1, 39668, Note_on_c, 1, 60, 0
1, 39668, Note_on_c, 1, 56, 0
1, 39696, Note_on_c, 0, 74, 85
1, 39696, Note_on_c, 0, 70, 85
1, 39696, Note_on_c, 0, 68, 85
1, 39696, Note_on_c, 0, 65, 85
1, 39696, Note_on_c, 1, 62, 85
1, 39696, Note_on_c, 1, 58, 85
1, 39716, Note_on_c, 0, 74, 0
1, 39716, Note_on_c, 0, 70, 0
1, 39716, Note_on_c, 0, 68, 0
1, 39716, Note_on_c, 0, 65, 0
1, 39716, Note_on_c, 1, 62, 0
1, 39716, Note_on_c, 1, 58, 0
1, 39744, Note_on_c, 0, 75, 85
1, 39744, Note_on_c, 0, 70, 85
1, 39744, Note_on_c, 0, 67, 85
1, 39744, Note_on_c, 1, 63, 85
1, 39744, Note_on_c, 1, 58, 85
1, 39744, Note_on_c, 1, 55, 85
1, 39744, Note_on_c, 1, 51, 85
1, 39783, Note_on_c, 0, 75, 0
1, 39783, Note_on_c, 0, 70, 0
1, 39783, Note_on_c, 0, 67, 0
1, 39783, Note_on_c, 1, 63, 0
1, 39783, Note_on_c, 1, 58, 0
1, 39783, Note_on_c, 1, 55, 0
1, 39783, Note_on_c, 1, 51, 0
1, 39936, Note_on_c, 0, 66, 78
1, 39942, Note_on_c, 0, 66, 0
1, 39942, Note_on_c, 0, 67, 78
1, 39981, Note_on_c, 0, 67, 0
1, 39984, Note_on_c, 1, 55, 78
1, 39984, Note_on_c, 1, 51, 64
1, 39984, Note_on_c, 1, 48, 64
1, 40029, Note_on_c, 1, 55, 0
1, 40029, Note_on_c, 1, 51, 0
1, 40029, Note_on_c, 1, 48, 0
1, 40032, Note_on_c, 1, 55, 78
1, 40032, Note_on_c, 1, 50, 64
1, 40032, Note_on_c, 1, 47, 64
1, 40077, Note_on_c, 1, 55, 0
1, 40077, Note_on_c, 1, 50, 0
1, 40077, Note_on_c, 1, 47, 0
1, 40080, Note_on_c, 1, 55, 78
1, 40080, Note_on_c, 1, 48, 64
1, 40080, Note_on_c, 1, 45, 64
1, 40125, Note_on_c, 1, 55, 0
1, 40125, Note_on_c, 1, 48, 0
1, 40125, Note_on_c, 1, 45, 0
1, 40128, Note_on_c, 1, 55, 78
1, 40128, Note_on_c, 1, 47, 64
1, 40128, Note_on_c, 1, 43, 64
1, 40173, Note_on_c, 1, 55, 0
1, 40173, Note_on_c, 1, 47, 0
1, 40173, Note_on_c, 1, 43, 0
1, 40176, Note_on_c, 1, 55, 78
1, 40176, Note_on_c, 1, 51, 64
1, 40176, Note_on_c, 1, 48, 64
1, 40210, Note_on_c, 1, 55, 0
1, 40212, Note_on_c, 1, 55, 78
1, 40221, Note_on_c, 1, 51, 0
1, 40221, Note_on_c, 1, 48, 0
1, 40224, Note_on_c, 1, 55, 0
1, 40224, Note_on_c, 1, 55, 78
1, 40224, Note_on_c, 1, 50, 64
1, 40224, Note_on_c, 1, 47, 64
1, 40258, Note_on_c, 1, 55, 0
1, 40260, Note_on_c, 1, 55, 78
1, 40269, Note_on_c, 1, 50, 0
1, 40269, Note_on_c, 1, 47, 0
1, 40272, Note_on_c, 1, 55, 0
1, 40272, Note_on_c, 1, 55, 78
1, 40272, Note_on_c, 1, 48, 64
1, 40272, Note_on_c, 1, 45, 64
1, 40306, Note_on_c, 1, 55, 0
1, 40308, Note_on_c, 1, 55, 78
1, 40317, Note_on_c, 1, 48, 0
1, 40317, Note_on_c, 1, 45, 0
1, 40320, Note_on_c, 1, 55, 0
1, 40320, Note_on_c, 1, 55, 78
1, 40320, Note_on_c, 1, 47, 64
1, 40320, Note_on_c, 1, 43, 64
1, 40365, Note_on_c, 1, 55, 0
1, 40365, Note_on_c, 1, 47, 0
1, 40365, Note_on_c, 1, 43, 0
1, 40368, Note_on_c, 1, 54, 78
1, 40368, Note_on_c, 1, 51, 64
1, 40368, Note_on_c, 1, 48, 64
1, 40380, Note_on_c, 1, 54, 0
1, 40380, Note_on_c, 1, 55, 78
1, 40392, Note_on_c, 1, 55, 0
1, 40392, Note_on_c, 1, 57, 78
1, 40404, Note_on_c, 1, 57, 0
1, 40404, Note_on_c, 1, 55, 78
1, 40413, Note_on_c, 1, 51, 0
1, 40413, Note_on_c, 1, 48, 0
1, 40416, Note_on_c, 1, 55, 0
1, 40416, Note_on_c, 1, 54, 78
1, 40416, Note_on_c, 1, 50, 64
1, 40416, Note_on_c, 1, 47, 64
1, 40428, Note_on_c, 1, 54, 0
1, 40428, Note_on_c, 1, 55, 78
1, 40440, Note_on_c, 1, 55, 0
1, 40440, Note_on_c, 1, 57, 78
1, 40452, Note_on_c, 1, 57, 0
1, 40452, Note_on_c, 1, 55, 78
1, 40461, Note_on_c, 1, 50, 0
1, 40461, Note_on_c, 1, 47, 0
1, 40464, Note_on_c, 1, 55, 0
1, 40464, Note_on_c, 1, 54, 78
1, 40464, Note_on_c, 1, 48, 64
1, 40464, Note_on_c, 1, 45, 64
1, 40476, Note_on_c, 1, 54, 0
1, 40476, Note_on_c, 1, 55, 78
1, 40488, Note_on_c, 1, 55, 0
1, 40488, Note_on_c, 1, 57, 78
1, 40500, Note_on_c, 1, 57, 0
1, 40500, Note_on_c, 1, 55, 78
1, 40509, Note_on_c, 1, 48, 0
1, 40509, Note_on_c, 1, 45, 0
1, 40512, Note_on_c, 1, 55, 0
1, 40512, Note_on_c, 1, 54, 78
1, 40512, Note_on_c, 1, 47, 64
1, 40512, Note_on_c, 1, 43, 64
1, 40524, Note_on_c, 1, 54, 0
1, 40524, Note_on_c, 1, 55, 78
1, 40536, Note_on_c, 1, 55, 0
1, 40536, Note_on_c, 1, 57, 78
1, 40548, Note_on_c, 1, 57, 0
1, 40548, Note_on_c, 1, 59, 78
1, 40557, Note_on_c, 1, 47, 0
1, 40557, Note_on_c, 1, 43, 0
1, 40560, Note_on_c, 0, 60, 78
1, 40560, Note_on_c, 1, 59, 0
1, 40572, Note_on_c, 0, 60, 0
1, 40572, Note_on_c, 0, 62, 78
1, 40584, Note_on_c, 0, 62, 0
1, 40584, Note_on_c, 0, 64, 78
1, 40596, Note_on_c, 0, 64, 0
1, 40596, Note_on_c, 0, 66, 78
1, 40608, Note_on_c, 0, 66, 0
1, 40608, Note_on_c, 0, 67, 78
1, 40608, Note_on_c, 1, 55, 78
1, 40631, Note_on_c, 0, 67, 0
1, 40631, Note_on_c, 1, 55, 0
1, 40632, Note_on_c, 0, 69, 78
1, 40632, Note_on_c, 1, 57, 78
1, 40644, Note_on_c, 0, 69, 0
1, 40644, Note_on_c, 0, 71, 78
1, 40644, Note_on_c, 1, 57, 0
1, 40644, Note_on_c, 1, 59, 78
1, 40656, Note_on_c, 0, 71, 0
1, 40656, Note_on_c, 0, 72, 78
1, 40656, Note_on_c, 1, 59, 0
1, 40656, Note_on_c, 1, 60, 78
1, 40668, Note_on_c, 0, 72, 0
1, 40668, Note_on_c, 0, 74, 78
1, 40668, Note_on_c, 1, 60, 0
1, 40668, Note_on_c, 1, 62, 78
1, 40680, Note_on_c, 0, 74, 0
1, 40680, Note_on_c, 0, 76, 78
1, 40680, Note_on_c, 1, 62, 0
1, 40680, Note_on_c, 1, 64, 78
1, 40692, Note_on_c, 0, 76, 0
1, 40692, Note_on_c, 0, 78, 78
1, 40692, Note_on_c, 1, 64, 0
1, 40692, Note_on_c, 1, 66, 78
1, 40704, Note_on_c, 0, 78, 0
1, 40704, Note_on_c, 0, 79, 78
1, 40704, Note_on_c, 1, 66, 0
1, 40704, Note_on_c, 1, 67, 78
1, 40724, Note_on_c, 0, 79, 0
1, 40724, Note_on_c, 1, 67, 0
1, 40752, Note_on_c, 0, 79, 78
1, 40752, Note_on_c, 1, 67, 78
1, 40772, Note_on_c, 0, 79, 0
1, 40772, Note_on_c, 1, 67, 0
1, 40800, Note_on_c, 0, 79, 78
1, 40800, Note_on_c, 1, 67, 78
1, 40820, Note_on_c, 0, 79, 0
1, 40820, Note_on_c, 1, 67, 0
1, 40848, Note_on_c, 0, 79, 78
1, 40848, Note_on_c, 1, 67, 78
1, 40868, Note_on_c, 0, 79, 0
1, 40868, Note_on_c, 1, 67, 0
1, 40896, Note_on_c, 0, 79, 78
1, 40896, Note_on_c, 1, 67, 78
1, 41073, Note_on_c, 0, 79, 0
1, 41073, Note_on_c, 1, 67, 0
1, 41088, Note_on_c, 0, 80, 78
1, 41088, Note_on_c, 0, 68, 78
1, 41136, Note_on_c, 1, 60, 78
1, 41136, Note_on_c, 1, 56, 78
1, 41177, Note_on_c, 0, 80, 0
1, 41177, Note_on_c, 0, 68, 0
1, 41181, Note_on_c, 1, 60, 0
1, 41181, Note_on_c, 1, 56, 0
1, 41184, Note_on_c, 0, 75, 78
1, 41184, Note_on_c, 1, 58, 78
1, 41184, Note_on_c, 1, 55, 78
1, 41229, Note_on_c, 1, 58, 0
1, 41229, Note_on_c, 1, 55, 0
1, 41232, Note_on_c, 1, 55, 78
1, 41232, Note_on_c, 1, 51, 78
1, 41251, Note_on_c, 0, 75, 0
1, 41256, Note_on_c, 0, 73, 78
1, 41277, Note_on_c, 1, 55, 0
1, 41277, Note_on_c, 1, 51, 0
1, 41279, Note_on_c, 0, 73, 0
1, 41280, Note_on_c, 0, 73, 78
1, 41328, Note_on_c, 1, 56, 78
1, 41373, Note_on_c, 1, 56, 0
1, 41376, Note_on_c, 0, 73, 0
1, 41376, Note_on_c, 0, 72, 78
1, 41376, Note_on_c, 1, 60, 78
1, 41388, Note_on_c, 0, 72, 0
1, 41388, Note_on_c, 0, 73, 78
1, 41400, Note_on_c, 0, 73, 0
1, 41400, Note_on_c, 0, 72, 78
1, 41421, Note_on_c, 1, 60, 0
1, 41423, Note_on_c, 0, 72, 0
1, 41424, Note_on_c, 0, 70, 78
1, 41424, Note_on_c, 1, 63, 78
1, 41469, Note_on_c, 0, 70, 0
1, 41469, Note_on_c, 1, 63, 0
1, 41472, Note_on_c, 0, 68, 78
1, 41472, Note_on_c, 1, 65, 78
1, 41517, Note_on_c, 0, 68, 0
1, 41520, Note_on_c, 0, 73, 78
1, 41561, Note_on_c, 1, 65, 0
1, 41565, Note_on_c, 0, 73, 0
1, 41568, Note_on_c, 0, 70, 78
1, 41568, Note_on_c, 1, 67, 78
1, 41613, Note_on_c, 0, 70, 0
1, 41616, Note_on_c, 0, 75, 78
1, 41657, Note_on_c, 1, 67, 0
1, 41661, Note_on_c, 0, 75, 0
1, 41664, Note_on_c, 0, 73, 78
1, 41712, Note_on_c, 1, 68, 78
1, 41757, Note_on_c, 1, 68, 0
1, 41760, Note_on_c, 0, 73, 0
1, 41760, Note_on_c, 0, 72, 78
1, 41760, Note_on_c, 1, 56, 78
1, 41772, Note_on_c, 0, 72, 0
1, 41772, Note_on_c, 0, 73, 78
1, 41784, Note_on_c, 0, 73, 0
1, 41784, Note_on_c, 0, 72, 78
1, 41805, Note_on_c, 1, 56, 0
1, 41807, Note_on_c, 0, 72, 0
1, 41808, Note_on_c, 0, 70, 78
1, 41808, Note_on_c, 1, 63, 78
1, 41853, Note_on_c, 0, 70, 0
1, 41853, Note_on_c, 1, 63, 0
1, 41856, Note_on_c, 0, 68, 78
1, 41856, Note_on_c, 1, 65, 78
1, 41879, Note_on_c, 0, 68, 0
1, 41880, Note_on_c, 0, 75, 78
1, 41903, Note_on_c, 0, 75, 0
1, 41904, Note_on_c, 0, 73, 78
1, 41927, Note_on_c, 0, 73, 0
1, 41928, Note_on_c, 0, 72, 78
1, 41945, Note_on_c, 1, 65, 0
1, 41951, Note_on_c, 0, 72, 0
1, 41952, Note_on_c, 0, 70, 78
1, 41952, Note_on_c, 1, 67, 78
1, 41975, Note_on_c, 0, 70, 0
1, 41976, Note_on_c, 0, 77, 78
1, 41999, Note_on_c, 0, 77, 0
1, 42000, Note_on_c, 0, 75, 78
1, 42023, Note_on_c, 0, 75, 0
1, 42024, Note_on_c, 0, 73, 78
1, 42041, Note_on_c, 1, 67, 0
1, 42047, Note_on_c, 0, 73, 0
1, 42048, Note_on_c, 0, 72, 78
1, 42060, Note_on_c, 0, 72, 0
1, 42060, Note_on_c, 0, 75, 78
1, 42072, Note_on_c, 0, 75, 0
1, 42072, Note_on_c, 0, 73, 78
1, 42096, Note_on_c, 1, 56, 78
1, 42139, Note_on_c, 0, 73, 0
1, 42141, Note_on_c, 1, 56, 0
1, 42144, Note_on_c, 0, 72, 78
1, 42144, Note_on_c, 1, 68, 78
1, 42189, Note_on_c, 0, 72, 0
1, 42189, Note_on_c, 1, 68, 0
1, 42192, Note_on_c, 0, 70, 78
1, 42192, Note_on_c, 1, 66, 78
1, 42237, Note_on_c, 0, 70, 0
1, 42237, Note_on_c, 1, 66, 0
1, 42240, Note_on_c, 0, 69, 78
1, 42240, Note_on_c, 1, 65, 78
1, 42263, Note_on_c, 0, 69, 0
1, 42264, Note_on_c, 0, 75, 78
1, 42287, Note_on_c, 0, 75, 0
1, 42288, Note_on_c, 0, 73, 78
1, 42311, Note_on_c, 0, 73, 0
1, 42312, Note_on_c, 0, 72, 78
1, 42329, Note_on_c, 1, 65, 0
1, 42335, Note_on_c, 0, 72, 0
1, 42336, Note_on_c, 0, 70, 78
1, 42336, Note_on_c, 1, 53, 78
1, 42359, Note_on_c, 0, 70, 0
1, 42360, Note_on_c, 0, 78, 78
1, 42383, Note_on_c, 0, 78, 0
1, 42384, Note_on_c, 0, 77, 78
1, 42407, Note_on_c, 0, 77, 0
1, 42408, Note_on_c, 0, 75, 78
1, 42425, Note_on_c, 1, 53, 0
1, 42431, Note_on_c, 0, 75, 0
1, 42432, Note_on_c, 0, 75, 78
1, 42432, Note_on_c, 0, 65, 64
1, 42432, Note_on_c, 1, 58, 78
1, 42455, Note_on_c, 0, 65, 0
1, 42456, Note_on_c, 0, 70, 64
1, 42479, Note_on_c, 0, 70, 0
1, 42480, Note_on_c, 0, 68, 64
1, 42503, Note_on_c, 0, 68, 0
1, 42504, Note_on_c, 0, 66, 64
1, 42527, Note_on_c, 0, 66, 0
1, 42528, Note_on_c, 0, 75, 0
1, 42528, Note_on_c, 0, 74, 78
1, 42528, Note_on_c, 0, 65, 64
1, 42551, Note_on_c, 0, 65, 0
1, 42552, Note_on_c, 0, 71, 64
1, 42575, Note_on_c, 0, 71, 0
1, 42576, Note_on_c, 0, 70, 64
1, 42599, Note_on_c, 0, 70, 0
1, 42600, Note_on_c, 0, 68, 64
1, 42609, Note_on_c, 1, 58, 0
1, 42617, Note_on_c, 0, 74, 0
1, 42623, Note_on_c, 0, 68, 0
1, 42624, Note_on_c, 0, 70, 78
1, 42624, Note_on_c, 0, 68, 64
1, 42624, Note_on_c, 1, 63, 78
1, 42647, Note_on_c, 0, 70, 0
1, 42648, Note_on_c, 0, 75, 78
1, 42671, Note_on_c, 0, 75, 0
1, 42672, Note_on_c, 0, 73, 78
1, 42695, Note_on_c, 0, 73, 0
1, 42696, Note_on_c, 0, 72, 78
1, 42719, Note_on_c, 0, 72, 0
1, 42720, Note_on_c, 0, 70, 78
1, 42720, Note_on_c, 0, 68, 0
1, 42720, Note_on_c, 0, 67, 64
1, 42743, Note_on_c, 0, 70, 0
1, 42744, Note_on_c, 0, 77, 78
1, 42767, Note_on_c, 0, 77, 0
1, 42768, Note_on_c, 0, 75, 78
1, 42791, Note_on_c, 0, 75, 0
1, 42792, Note_on_c, 0, 73, 78
1, 42801, Note_on_c, 1, 63, 0
1, 42809, Note_on_c, 0, 67, 0
1, 42815, Note_on_c, 0, 73, 0
1, 42816, Note_on_c, 0, 73, 78
1, 42816, Note_on_c, 0, 63, 64
1, 42816, Note_on_c, 1, 56, 78
1, 42839, Note_on_c, 0, 63, 0
1, 42840, Note_on_c, 0, 68, 64
1, 42863, Note_on_c, 0, 68, 0
1, 42864, Note_on_c, 0, 66, 64
1, 42887, Note_on_c, 0, 66, 0
1, 42888, Note_on_c, 0, 65, 64
1, 42911, Note_on_c, 0, 65, 0
1, 42912, Note_on_c, 0, 73, 0
1, 42912, Note_on_c, 0, 72, 78
1, 42912, Note_on_c, 0, 63, 64
1, 42935, Note_on_c, 0, 63, 0
1, 42936, Note_on_c, 0, 70, 64
1, 42959, Note_on_c, 0, 70, 0
1, 42960, Note_on_c, 0, 68, 64
1, 42983, Note_on_c, 0, 68, 0
1, 42984, Note_on_c, 0, 66, 64
1, 42993, Note_on_c, 1, 56, 0
1, 43001, Note_on_c, 0, 72, 0
1, 43007, Note_on_c, 0, 66, 0
1, 43008, Note_on_c, 0, 68, 78
1, 43008, Note_on_c, 0, 66, 64
1, 43008, Note_on_c, 1, 61, 78
1, 43031, Note_on_c, 0, 68, 0
1, 43032, Note_on_c, 0, 72, 78
1, 43055, Note_on_c, 0, 72, 0
1, 43056, Note_on_c, 0, 73, 78
1, 43079, Note_on_c, 0, 73, 0
1, 43080, Note_on_c, 0, 75, 78
1, 43103, Note_on_c, 0, 75, 0
1, 43104, Note_on_c, 0, 77, 78
1, 43104, Note_on_c, 0, 66, 0
1, 43104, Note_on_c, 0, 65, 64
1, 43127, Note_on_c, 0, 77, 0
1, 43128, Note_on_c, 0, 79, 78
1, 43151, Note_on_c, 0, 79, 0
1, 43152, Note_on_c, 0, 80, 78
1, 43175, Note_on_c, 0, 80, 0
1, 43176, Note_on_c, 0, 80, 78
1, 43185, Note_on_c, 1, 61, 0
1, 43193, Note_on_c, 0, 65, 0
1, 43199, Note_on_c, 0, 80, 0
1, 43200, Note_on_c, 0, 80, 78
1, 43200, Note_on_c, 0, 63, 64
1, 43200, Note_on_c, 1, 60, 78
1, 43223, Note_on_c, 0, 63, 0
1, 43224, Note_on_c, 0, 75, 64
1, 43247, Note_on_c, 0, 75, 0
1, 43248, Note_on_c, 0, 73, 64
1, 43271, Note_on_c, 0, 73, 0
1, 43272, Note_on_c, 0, 72, 64
1, 43295, Note_on_c, 0, 72, 0
1, 43296, Note_on_c, 0, 70, 64
1, 43319, Note_on_c, 0, 80, 0
1, 43319, Note_on_c, 0, 70, 0
1, 43320, Note_on_c, 0, 80, 78
1, 43320, Note_on_c, 0, 68, 64
1, 43343, Note_on_c, 0, 80, 0
1, 43343, Note_on_c, 0, 68, 0
1, 43344, Note_on_c, 0, 82, 78
1, 43344, Note_on_c, 0, 67, 64
1, 43367, Note_on_c, 0, 82, 0
1, 43367, Note_on_c, 0, 67, 0
1, 43368, Note_on_c, 0, 84, 78
1, 43368, Note_on_c, 0, 68, 64
1, 43377, Note_on_c, 1, 60, 0
1, 43391, Note_on_c, 0, 84, 0
1, 43392, Note_on_c, 0, 85, 78
1, 43392, Note_on_c, 1, 58, 78
1, 43415, Note_on_c, 0, 85, 0
1, 43416, Note_on_c, 0, 84, 78
1, 43437, Note_on_c, 0, 68, 0
1, 43439, Note_on_c, 0, 84, 0
1, 43440, Note_on_c, 0, 82, 78
1, 43440, Note_on_c, 0, 61, 64
1, 43463, Note_on_c, 0, 82, 0
1, 43464, Note_on_c, 0, 80, 78
1, 43485, Note_on_c, 0, 61, 0
1, 43487, Note_on_c, 0, 80, 0
1, 43488, Note_on_c, 0, 79, 78
1, 43488, Note_on_c, 0, 63, 64
1, 43511, Note_on_c, 0, 79, 0
1, 43512, Note_on_c, 0, 77, 78
1, 43533, Note_on_c, 0, 63, 0
1, 43535, Note_on_c, 0, 77, 0
1, 43536, Note_on_c, 0, 75, 78
1, 43536, Note_on_c, 0, 67, 64
1, 43559, Note_on_c, 0, 75, 0
1, 43560, Note_on_c, 0, 73, 78
1, 43569, Note_on_c, 1, 58, 0
1, 43583, Note_on_c, 0, 73, 0
1, 43584, Note_on_c, 0, 75, 78
1, 43584, Note_on_c, 1, 56, 78
1, 43629, Note_on_c, 0, 75, 0
1, 43629, Note_on_c, 0, 67, 0
1, 43632, Note_on_c, 0, 73, 78
1, 43632, Note_on_c, 0, 63, 64
1, 43644, Note_on_c, 0, 73, 0
1, 43644, Note_on_c, 0, 75, 78
1, 43656, Note_on_c, 0, 75, 0
1, 43656, Note_on_c, 0, 73, 78
1, 43677, Note_on_c, 0, 73, 0
1, 43677, Note_on_c, 0, 63, 0
1, 43680, Note_on_c, 0, 72, 78
1, 43680, Note_on_c, 0, 68, 64
1, 43703, Note_on_c, 0, 72, 0
1, 43704, Note_on_c, 0, 80, 78
1, 43725, Note_on_c, 0, 68, 0
1, 43727, Note_on_c, 0, 80, 0
1, 43728, Note_on_c, 0, 82, 78
1, 43728, Note_on_c, 0, 65, 64
1, 43751, Note_on_c, 0, 82, 0
1, 43752, Note_on_c, 0, 84, 78
1, 43761, Note_on_c, 1, 56, 0
1, 43775, Note_on_c, 0, 84, 0
1, 43776, Note_on_c, 0, 82, 78
1, 43776, Note_on_c, 1, 55, 78
1, 43799, Note_on_c, 0, 82, 0
1, 43800, Note_on_c, 0, 80, 78
1, 43821, Note_on_c, 0, 65, 0
1, 43823, Note_on_c, 0, 80, 0
1, 43824, Note_on_c, 0, 79, 78
1, 43824, Note_on_c, 0, 58, 64
1, 43847, Note_on_c, 0, 79, 0
1, 43848, Note_on_c, 0, 77, 78
1, 43869, Note_on_c, 0, 58, 0
1, 43871, Note_on_c, 0, 77, 0
1, 43872, Note_on_c, 0, 76, 78
1, 43872, Note_on_c, 0, 60, 64
1, 43895, Note_on_c, 0, 76, 0
1, 43896, Note_on_c, 0, 73, 78
1, 43917, Note_on_c, 0, 60, 0
1, 43919, Note_on_c, 0, 73, 0
1, 43920, Note_on_c, 0, 72, 78
1, 43920, Note_on_c, 0, 64, 64
1, 43943, Note_on_c, 0, 72, 0
1, 43944, Note_on_c, 0, 70, 78
1, 43953, Note_on_c, 1, 55, 0
1, 43967, Note_on_c, 0, 70, 0
1, 43968, Note_on_c, 0, 72, 78
1, 43968, Note_on_c, 1, 53, 78
1, 44013, Note_on_c, 0, 72, 0
1, 44013, Note_on_c, 0, 64, 0
1, 44016, Note_on_c, 0, 70, 78
1, 44016, Note_on_c, 0, 60, 64
1, 44028, Note_on_c, 0, 70, 0
1, 44028, Note_on_c, 0, 72, 78
1, 44040, Note_on_c, 0, 72, 0
1, 44040, Note_on_c, 0, 70, 78
1, 44061, Note_on_c, 0, 70, 0
1, 44061, Note_on_c, 0, 60, 0
1, 44064, Note_on_c, 0, 68, 78
1, 44064, Note_on_c, 0, 65, 64
1, 44087, Note_on_c, 0, 68, 0
1, 44088, Note_on_c, 0, 72, 78
1, 44111, Note_on_c, 0, 72, 0
1, 44112, Note_on_c, 0, 77, 78
1, 44135, Note_on_c, 0, 77, 0
1, 44136, Note_on_c, 0, 76, 78
1, 44145, Note_on_c, 1, 53, 0
1, 44153, Note_on_c, 0, 65, 0
1, 44159, Note_on_c, 0, 76, 0
1, 44160, Note_on_c, 0, 79, 78
1, 44160, Note_on_c, 1, 56, 78
1, 44160, Note_on_c, 1, 53, 64
1, 44183, Note_on_c, 0, 79, 0
1, 44184, Note_on_c, 0, 77, 78
1, 44207, Note_on_c, 0, 77, 0
1, 44208, Note_on_c, 0, 80, 78
1, 44231, Note_on_c, 0, 80, 0
1, 44232, Note_on_c, 0, 79, 78
1, 44255, Note_on_c, 0, 79, 0
1, 44256, Note_on_c, 0, 77, 78
1, 44279, Note_on_c, 0, 77, 0
1, 44280, Note_on_c, 0, 75, 78
1, 44293, Note_on_c, 1, 56, 0
1, 44293, Note_on_c, 1, 53, 0
1, 44303, Note_on_c, 0, 75, 0
1, 44304, Note_on_c, 0, 74, 78
1, 44304, Note_on_c, 1, 57, 78
1, 44304, Note_on_c, 1, 54, 64
1, 44327, Note_on_c, 0, 74, 0
1, 44328, Note_on_c, 0, 72, 78
1, 44349, Note_on_c, 1, 57, 0
1, 44349, Note_on_c, 1, 54, 0
1, 44351, Note_on_c, 0, 72, 0
1, 44352, Note_on_c, 0, 79, 78
1, 44352, Note_on_c, 1, 59, 78
1, 44352, Note_on_c, 1, 55, 64
1, 44375, Note_on_c, 1, 59, 0
1, 44376, Note_on_c, 1, 62, 78
1, 44397, Note_on_c, 1, 55, 0
1, 44399, Note_on_c, 1, 62, 0
1, 44400, Note_on_c, 1, 59, 78
1, 44400, Note_on_c, 1, 55, 64
1, 44423, Note_on_c, 1, 59, 0
1, 44424, Note_on_c, 1, 62, 78
1, 44441, Note_on_c, 0, 79, 0
1, 44445, Note_on_c, 1, 55, 0
1, 44447, Note_on_c, 1, 62, 0
1, 44448, Note_on_c, 0, 74, 78
1, 44448, Note_on_c, 1, 59, 78
1, 44448, Note_on_c, 1, 55, 64
1, 44471, Note_on_c, 1, 59, 0
1, 44472, Note_on_c, 1, 62, 78
1, 44493, Note_on_c, 1, 55, 0
1, 44495, Note_on_c, 1, 62, 0
1, 44496, Note_on_c, 1, 59, 78
1, 44496, Note_on_c, 1, 55, 64
1, 44515, Note_on_c, 0, 74, 0
1, 44519, Note_on_c, 1, 59, 0
1, 44520, Note_on_c, 0, 72, 78
1, 44520, Note_on_c, 1, 62, 78
1, 44541, Note_on_c, 1, 55, 0
1, 44543, Note_on_c, 0, 72, 0
1, 44543, Note_on_c, 1, 62, 0
1, 44544, Note_on_c, 0, 72, 78
1, 44544, Note_on_c, 1, 59, 78
1, 44544, Note_on_c, 1, 55, 64
1, 44567, Note_on_c, 1, 59, 0
1, 44568, Note_on_c, 1, 62, 78
1, 44589, Note_on_c, 1, 55, 0
1, 44591, Note_on_c, 1, 62, 0
1, 44592, Note_on_c, 1, 59, 78
1, 44592, Note_on_c, 1, 55, 64
1, 44615, Note_on_c, 1, 59, 0
1, 44616, Note_on_c, 1, 62, 78
1, 44633, Note_on_c, 0, 72, 0
1, 44637, Note_on_c, 1, 55, 0
1, 44639, Note_on_c, 1, 62, 0
1, 44640, Note_on_c, 0, 71, 78
1, 44640, Note_on_c, 1, 59, 78
1, 44640, Note_on_c, 1, 55, 64
1, 44652, Note_on_c, 0, 71, 0
1, 44652, Note_on_c, 0, 72, 78
1, 44663, Note_on_c, 1, 59, 0
1, 44664, Note_on_c, 0, 72, 0
1, 44664, Note_on_c, 0, 71, 78
1, 44664, Note_on_c, 1, 62, 78
1, 44685, Note_on_c, 1, 55, 0
1, 44687, Note_on_c, 1, 62, 0
1, 44688, Note_on_c, 1, 59, 78
1, 44688, Note_on_c, 1, 55, 64
1, 44711, Note_on_c, 1, 59, 0
1, 44712, Note_on_c, 1, 62, 78
1, 44729, Note_on_c, 0, 71, 0
1, 44733, Note_on_c, 1, 55, 0
1, 44735, Note_on_c, 1, 62, 0
1, 44736, Note_on_c, 0, 71, 78
1, 44736, Note_on_c, 1, 59, 78
1, 44736, Note_on_c, 1, 53, 64
1, 44744, Note_on_c, 0, 71, 0
1, 44744, Note_on_c, 0, 74, 78
1, 44752, Note_on_c, 0, 74, 0
1, 44752, Note_on_c, 0, 77, 78
1, 44759, Note_on_c, 1, 59, 0
1, 44760, Note_on_c, 0, 77, 0
1, 44760, Note_on_c, 0, 80, 78
1, 44760, Note_on_c, 1, 62, 78
1, 44781, Note_on_c, 1, 53, 0
1, 44783, Note_on_c, 1, 62, 0
1, 44784, Note_on_c, 1, 59, 78
1, 44784, Note_on_c, 1, 53, 64
1, 44807, Note_on_c, 1, 59, 0
1, 44808, Note_on_c, 1, 62, 78
1, 44827, Note_on_c, 0, 80, 0
1, 44829, Note_on_c, 1, 53, 0
1, 44831, Note_on_c, 1, 62, 0
1, 44832, Note_on_c, 0, 77, 78
1, 44832, Note_on_c, 1, 59, 78
1, 44832, Note_on_c, 1, 53, 64
1, 44855, Note_on_c, 1, 59, 0
1, 44856, Note_on_c, 1, 62, 78
1, 44877, Note_on_c, 1, 53, 0
1, 44879, Note_on_c, 1, 62, 0
1, 44880, Note_on_c, 1, 59, 78
1, 44880, Note_on_c, 1, 53, 64
1, 44899, Note_on_c, 0, 77, 0
1, 44903, Note_on_c, 1, 59, 0
1, 44904, Note_on_c, 0, 74, 78
1, 44904, Note_on_c, 1, 62, 78
1, 44925, Note_on_c, 1, 53, 0
1, 44927, Note_on_c, 0, 74, 0
1, 44927, Note_on_c, 1, 62, 0
1, 44928, Note_on_c, 0, 72, 78
1, 44928, Note_on_c, 1, 59, 78
1, 44928, Note_on_c, 1, 53, 64
1, 44951, Note_on_c, 1, 59, 0
1, 44952, Note_on_c, 1, 62, 78
1, 44973, Note_on_c, 1, 53, 0
1, 44975, Note_on_c, 1, 62, 0
1, 44976, Note_on_c, 1, 59, 78
1, 44976, Note_on_c, 1, 53, 64
1, 44999, Note_on_c, 1, 59, 0
1, 45000, Note_on_c, 1, 62, 78
1, 45017, Note_on_c, 0, 72, 0
1, 45021, Note_on_c, 1, 53, 0
1, 45023, Note_on_c, 1, 62, 0
1, 45024, Note_on_c, 0, 71, 78
1, 45024, Note_on_c, 1, 59, 78
1, 45024, Note_on_c, 1, 53, 64
1, 45036, Note_on_c, 0, 71, 0
1, 45036, Note_on_c, 0, 72, 78
1, 45047, Note_on_c, 1, 59, 0
1, 45048, Note_on_c, 0, 72, 0
1, 45048, Note_on_c, 0, 71, 78
1, 45048, Note_on_c, 1, 62, 78
1, 45069, Note_on_c, 1, 53, 0
1, 45071, Note_on_c, 1, 62, 0
1, 45072, Note_on_c, 1, 59, 78
1, 45072, Note_on_c, 1, 53, 64
1, 45095, Note_on_c, 1, 59, 0
1, 45096, Note_on_c, 1, 62, 78
1, 45113, Note_on_c, 0, 71, 0
1, 45117, Note_on_c, 1, 53, 0
1, 45119, Note_on_c, 1, 62, 0
1, 45120, Note_on_c, 0, 79, 78
1, 45120, Note_on_c, 1, 51, 78
1, 45143, Note_on_c, 1, 51, 0
1, 45144, Note_on_c, 1, 60, 78
1, 45167, Note_on_c, 1, 60, 0
1, 45168, Note_on_c, 1, 63, 78
1, 45187, Note_on_c, 0, 79, 0
1, 45191, Note_on_c, 1, 63, 0
1, 45192, Note_on_c, 0, 75, 78
1, 45192, Note_on_c, 1, 67, 78
1, 45215, Note_on_c, 0, 75, 0
1, 45215, Note_on_c, 1, 67, 0
1, 45216, Note_on_c, 0, 72, 64
1, 45216, Note_on_c, 1, 63, 64
1, 45239, Note_on_c, 1, 63, 0
1, 45240, Note_on_c, 1, 67, 64
1, 45261, Note_on_c, 0, 72, 0
1, 45263, Note_on_c, 1, 67, 0
1, 45264, Note_on_c, 0, 72, 64
1, 45264, Note_on_c, 1, 63, 64
1, 45287, Note_on_c, 1, 63, 0
1, 45288, Note_on_c, 1, 67, 64
1, 45309, Note_on_c, 0, 72, 0
1, 45311, Note_on_c, 1, 67, 0
1, 45312, Note_on_c, 0, 74, 64
1, 45312, Note_on_c, 1, 65, 64
1, 45335, Note_on_c, 0, 74, 0
1, 45335, Note_on_c, 1, 65, 0
1, 45336, Note_on_c, 0, 75, 64
1, 45336, Note_on_c, 1, 67, 64
1, 45359, Note_on_c, 0, 75, 0
1, 45359, Note_on_c, 1, 67, 0
1, 45360, Note_on_c, 0, 77, 64
1, 45360, Note_on_c, 1, 65, 64
1, 45383, Note_on_c, 0, 77, 0
1, 45383, Note_on_c, 1, 65, 0
1, 45384, Note_on_c, 0, 71, 64
1, 45384, Note_on_c, 1, 67, 64
1, 45407, Note_on_c, 0, 71, 0
1, 45407, Note_on_c, 1, 67, 0
1, 45408, Note_on_c, 0, 72, 64
1, 45408, Note_on_c, 1, 63, 64
1, 45431, Note_on_c, 1, 63, 0
1, 45432, Note_on_c, 1, 67, 64
1, 45453, Note_on_c, 0, 72, 0
1, 45455, Note_on_c, 1, 67, 0
1, 45456, Note_on_c, 0, 72, 64
1, 45456, Note_on_c, 1, 63, 64
1, 45479, Note_on_c, 1, 63, 0
1, 45480, Note_on_c, 1, 67, 64
1, 45501, Note_on_c, 0, 72, 0
1, 45503, Note_on_c, 1, 67, 0
1, 45504, Note_on_c, 0, 74, 64
1, 45504, Note_on_c, 1, 65, 64
1, 45527, Note_on_c, 0, 74, 0
1, 45527, Note_on_c, 1, 65, 0
1, 45528, Note_on_c, 0, 75, 65
1, 45528, Note_on_c, 1, 67, 65
1, 45551, Note_on_c, 0, 75, 0
1, 45551, Note_on_c, 1, 67, 0
1, 45552, Note_on_c, 0, 77, 66
1, 45552, Note_on_c, 1, 65, 66
1, 45575, Note_on_c, 0, 77, 0
1, 45575, Note_on_c, 1, 65, 0
1, 45576, Note_on_c, 0, 71, 67
1, 45576, Note_on_c, 1, 67, 67
1, 45599, Note_on_c, 0, 71, 0
1, 45599, Note_on_c, 1, 67, 0
1, 45600, Note_on_c, 0, 72, 68
1, 45600, Note_on_c, 1, 63, 68
1, 45623, Note_on_c, 0, 72, 0
1, 45623, Note_on_c, 1, 63, 0
1, 45624, Note_on_c, 0, 74, 70
1, 45624, Note_on_c, 1, 67, 70
1, 45647, Note_on_c, 0, 74, 0
1, 45647, Note_on_c, 1, 67, 0
1, 45648, Note_on_c, 0, 75, 71
1, 45648, Note_on_c, 1, 63, 71
1, 45671, Note_on_c, 0, 75, 0
1, 45671, Note_on_c, 1, 63, 0
1, 45672, Note_on_c, 0, 72, 72
1, 45672, Note_on_c, 1, 67, 72
1, 45695, Note_on_c, 0, 72, 0
1, 45695, Note_on_c, 1, 67, 0
1, 45696, Note_on_c, 0, 74, 73
1, 45696, Note_on_c, 1, 65, 73
1, 45719, Note_on_c, 0, 74, 0
1, 45719, Note_on_c, 1, 65, 0
1, 45720, Note_on_c, 0, 75, 75
1, 45720, Note_on_c, 1, 67, 75
1, 45743, Note_on_c, 0, 75, 0
1, 45743, Note_on_c, 1, 67, 0
1, 45744, Note_on_c, 0, 77, 76
1, 45744, Note_on_c, 1, 65, 76
1, 45767, Note_on_c, 0, 77, 0
1, 45767, Note_on_c, 1, 65, 0
1, 45768, Note_on_c, 0, 71, 77
1, 45768, Note_on_c, 1, 67, 77
1, 45791, Note_on_c, 0, 71, 0
1, 45791, Note_on_c, 1, 67, 0
1, 45792, Note_on_c, 0, 72, 78
1, 45792, Note_on_c, 1, 63, 78
1, 45815, Note_on_c, 0, 72, 0
1, 45815, Note_on_c, 1, 63, 0
1, 45816, Note_on_c, 0, 74, 80
1, 45816, Note_on_c, 1, 67, 80
1, 45839, Note_on_c, 0, 74, 0
1, 45839, Note_on_c, 1, 67, 0
1, 45840, Note_on_c, 0, 75, 81
1, 45840, Note_on_c, 1, 63, 81
1, 45863, Note_on_c, 0, 75, 0
1, 45863, Note_on_c, 1, 63, 0
1, 45864, Note_on_c, 0, 72, 82
1, 45864, Note_on_c, 1, 67, 82
1, 45887, Note_on_c, 0, 72, 0
1, 45887, Note_on_c, 1, 67, 0
1, 45888, Note_on_c, 0, 74, 83
1, 45888, Note_on_c, 1, 65, 83
1, 45911, Note_on_c, 0, 74, 0
1, 45911, Note_on_c, 1, 65, 0
1, 45912, Note_on_c, 0, 75, 85
1, 45912, Note_on_c, 1, 67, 85
1, 45935, Note_on_c, 0, 75, 0
1, 45935, Note_on_c, 1, 67, 0
1, 45936, Note_on_c, 0, 77, 85
1, 45936, Note_on_c, 1, 65, 85
1, 45959, Note_on_c, 0, 77, 0
1, 45959, Note_on_c, 1, 65, 0
1, 45960, Note_on_c, 0, 71, 85
1, 45960, Note_on_c, 1, 67, 85
1, 45983, Note_on_c, 0, 71, 0
1, 45983, Note_on_c, 1, 67, 0
1, 45984, Note_on_c, 0, 72, 85
1, 45984, Note_on_c, 1, 63, 85
1, 46007, Note_on_c, 1, 63, 0
1, 46008, Note_on_c, 1, 67, 85
1, 46029, Note_on_c, 0, 72, 0
1, 46031, Note_on_c, 1, 67, 0
1, 46032, Note_on_c, 0, 79, 85
1, 46032, Note_on_c, 1, 63, 85
1, 46055, Note_on_c, 1, 63, 0
1, 46056, Note_on_c, 1, 67, 85
1, 46077, Note_on_c, 0, 79, 0
1, 46079, Note_on_c, 1, 67, 0
1, 46080, Note_on_c, 0, 78, 85
1, 46080, Note_on_c, 0, 72, 64
1, 46080, Note_on_c, 1, 69, 85
1, 46080, Note_on_c, 1, 62, 64
1, 46103, Note_on_c, 0, 72, 0
1, 46103, Note_on_c, 1, 69, 0
1, 46104, Note_on_c, 0, 74, 64
1, 46104, Note_on_c, 1, 70, 85
1, 46127, Note_on_c, 0, 74, 0
1, 46127, Note_on_c, 1, 70, 0
1, 46128, Note_on_c, 0, 75, 64
1, 46128, Note_on_c, 1, 72, 85
1, 46151, Note_on_c, 0, 75, 0
1, 46151, Note_on_c, 1, 72, 0
1, 46152, Note_on_c, 0, 72, 64
1, 46152, Note_on_c, 1, 69, 85
1, 46169, Note_on_c, 0, 78, 0
1, 46169, Note_on_c, 1, 62, 0
1, 46175, Note_on_c, 0, 72, 0
1, 46175, Note_on_c, 1, 69, 0
1, 46176, Note_on_c, 0, 77, 85
1, 46176, Note_on_c, 0, 74, 64
1, 46176, Note_on_c, 1, 71, 85
1, 46176, Note_on_c, 1, 67, 64
1, 46199, Note_on_c, 0, 77, 0
1, 46199, Note_on_c, 0, 74, 0
1, 46200, Note_on_c, 0, 79, 85
1, 46200, Note_on_c, 0, 75, 64
1, 46223, Note_on_c, 0, 79, 0
1, 46223, Note_on_c, 0, 75, 0
1, 46224, Note_on_c, 0, 80, 85
1, 46224, Note_on_c, 0, 77, 64
1, 46247, Note_on_c, 0, 80, 0
1, 46247, Note_on_c, 0, 77, 0
1, 46248, Note_on_c, 0, 77, 85
1, 46248, Note_on_c, 0, 74, 64
1, 46265, Note_on_c, 1, 71, 0
1, 46265, Note_on_c, 1, 67, 0
1, 46271, Note_on_c, 0, 77, 0
1, 46271, Note_on_c, 0, 74, 0
1, 46272, Note_on_c, 0, 75, 85
1, 46272, Note_on_c, 0, 72, 64
1, 46272, Note_on_c, 1, 60, 85
1, 46272, Note_on_c, 1, 60, 64
1, 46295, Note_on_c, 0, 75, 0
1, 46295, Note_on_c, 0, 72, 0
1, 46296, Note_on_c, 0, 77, 85
1, 46296, Note_on_c, 0, 74, 64
1, 46319, Note_on_c, 0, 77, 0
1, 46319, Note_on_c, 0, 74, 0
1, 46320, Note_on_c, 0, 79, 85
1, 46320, Note_on_c, 0, 75, 64
1, 46343, Note_on_c, 0, 79, 0
1, 46343, Note_on_c, 0, 75, 0
1, 46344, Note_on_c, 0, 75, 85
1, 46344, Note_on_c, 0, 72, 64
1, 46361, Note_on_c, 1, 60, 0
1, 46361, Note_on_c, 1, 60, 0
1, 46367, Note_on_c, 0, 75, 0
1, 46367, Note_on_c, 0, 72, 0
1, 46368, Note_on_c, 0, 84, 85
1, 46368, Note_on_c, 0, 75, 64
1, 46368, Note_on_c, 1, 51, 85
1, 46368, Note_on_c, 1, 48, 85
1, 46391, Note_on_c, 1, 51, 0
1, 46391, Note_on_c, 1, 48, 0
1, 46392, Note_on_c, 1, 53, 85
1, 46392, Note_on_c, 1, 50, 85
1, 46415, Note_on_c, 1, 53, 0
1, 46415, Note_on_c, 1, 50, 0
1, 46416, Note_on_c, 1, 55, 85
1, 46416, Note_on_c, 1, 51, 85
1, 46439, Note_on_c, 1, 55, 0
1, 46439, Note_on_c, 1, 51, 0
1, 46440, Note_on_c, 1, 51, 85
1, 46440, Note_on_c, 1, 48, 85
1, 46457, Note_on_c, 0, 84, 0
1, 46457, Note_on_c, 0, 75, 0
1, 46463, Note_on_c, 1, 51, 0
1, 46463, Note_on_c, 1, 48, 0
1, 46464, Note_on_c, 1, 56, 85
1, 46464, Note_on_c, 1, 53, 85
1, 46512, Note_on_c, 0, 79, 85
1, 46524, Note_on_c, 0, 79, 0
1, 46524, Note_on_c, 0, 82, 85
1, 46536, Note_on_c, 0, 82, 0
1, 46536, Note_on_c, 0, 80, 85
1, 46546, Note_on_c, 0, 80, 0
1, 46553, Note_on_c, 1, 56, 0
1, 46553, Note_on_c, 1, 53, 0
1, 46560, Note_on_c, 0, 76, 85
1, 46572, Note_on_c, 0, 76, 0
1, 46572, Note_on_c, 0, 79, 85
1, 46584, Note_on_c, 0, 79, 0
1, 46584, Note_on_c, 0, 77, 85
1, 46594, Note_on_c, 0, 77, 0
1, 46608, Note_on_c, 0, 73, 85
1, 46620, Note_on_c, 0, 73, 0
1, 46620, Note_on_c, 0, 75, 85
1, 46632, Note_on_c, 0, 75, 0
1, 46632, Note_on_c, 0, 74, 85
1, 46642, Note_on_c, 0, 74, 0
1, 46656, Note_on_c, 0, 67, 85
1, 46704, Note_on_c, 1, 60, 85
1, 46704, Note_on_c, 1, 51, 64
1, 46749, Note_on_c, 1, 51, 0
1, 46750, Note_on_c, 0, 67, 0
1, 46752, Note_on_c, 0, 75, 85
1, 46752, Note_on_c, 1, 53, 64
1, 46762, Note_on_c, 0, 75, 0
1, 46762, Note_on_c, 0, 74, 85
1, 46772, Note_on_c, 0, 74, 0
1, 46772, Note_on_c, 0, 75, 85
1, 46782, Note_on_c, 0, 75, 0
1, 46782, Note_on_c, 0, 74, 85
1, 46792, Note_on_c, 0, 74, 0
1, 46792, Note_on_c, 0, 75, 85
1, 46793, Note_on_c, 1, 60, 0
1, 46797, Note_on_c, 1, 53, 0
1, 46800, Note_on_c, 1, 59, 85
1, 46800, Note_on_c, 1, 55, 64
1, 46802, Note_on_c, 0, 75, 0
1, 46802, Note_on_c, 0, 74, 85
1, 46812, Note_on_c, 0, 74, 0
1, 46812, Note_on_c, 0, 75, 85
1, 46821, Note_on_c, 0, 75, 0
1, 46821, Note_on_c, 0, 74, 85
1, 46830, Note_on_c, 0, 74, 0
1, 46830, Note_on_c, 0, 72, 85
1, 46839, Note_on_c, 0, 72, 0
1, 46839, Note_on_c, 0, 74, 85
1, 46845, Note_on_c, 1, 59, 0
1, 46845, Note_on_c, 1, 55, 0
1, 46848, Note_on_c, 0, 74, 0
1, 46848, Note_on_c, 1, 60, 85
1, 46848, Note_on_c, 1, 51, 64
1, 46893, Note_on_c, 1, 60, 0
1, 46893, Note_on_c, 1, 51, 0
1, 46896, Note_on_c, 0, 86, 85
1, 46908, Note_on_c, 0, 86, 0
1, 46908, Note_on_c, 0, 89, 85
1, 46920, Note_on_c, 0, 89, 0
1, 46920, Note_on_c, 0, 87, 85
1, 46930, Note_on_c, 0, 87, 0
1, 46944, Note_on_c, 0, 83, 85
1, 46956, Note_on_c, 0, 83, 0
1, 46956, Note_on_c, 0, 86, 85
1, 46968, Note_on_c, 0, 86, 0
1, 46968, Note_on_c, 0, 84, 85
1, 46978, Note_on_c, 0, 84, 0
1, 46992, Note_on_c, 0, 79, 85
1, 46992, Note_on_c, 1, 60, 85
1, 46992, Note_on_c, 1, 53, 64
1, 47004, Note_on_c, 0, 79, 0
1, 47004, Note_on_c, 0, 82, 85
1, 47016, Note_on_c, 0, 82, 0
1, 47016, Note_on_c, 0, 80, 85
1, 47026, Note_on_c, 0, 80, 0
1, 47039, Note_on_c, 1, 60, 0
1, 47039, Note_on_c, 1, 53, 0
1, 47040, Note_on_c, 0, 79, 85
1, 47040, Note_on_c, 1, 60, 85
1, 47040, Note_on_c, 1, 51, 64
1, 47055, Note_on_c, 0, 79, 0
1, 47056, Note_on_c, 0, 75, 85
1, 47071, Note_on_c, 0, 75, 0
1, 47072, Note_on_c, 0, 72, 85
1, 47085, Note_on_c, 1, 60, 0
1, 47085, Note_on_c, 1, 51, 0
1, 47087, Note_on_c, 0, 72, 0
1, 47088, Note_on_c, 0, 80, 85
1, 47088, Note_on_c, 1, 60, 85
1, 47088, Note_on_c, 1, 53, 64
1, 47103, Note_on_c, 0, 80, 0
1, 47104, Note_on_c, 0, 77, 85
1, 47119, Note_on_c, 0, 77, 0
1, 47120, Note_on_c, 0, 74, 85
1, 47133, Note_on_c, 1, 60, 0
1, 47133, Note_on_c, 1, 53, 0
1, 47135, Note_on_c, 0, 74, 0
1, 47136, Note_on_c, 0, 75, 85
1, 47136, Note_on_c, 1, 60, 85
1, 47136, Note_on_c, 1, 55, 64
1, 47146, Note_on_c, 0, 75, 0
1, 47146, Note_on_c, 0, 74, 85
1, 47156, Note_on_c, 0, 74, 0
1, 47156, Note_on_c, 0, 75, 85
1, 47166, Note_on_c, 0, 75, 0
1, 47166, Note_on_c, 0, 74, 85
1, 47176, Note_on_c, 0, 74, 0
1, 47176, Note_on_c, 0, 75, 85
1, 47181, Note_on_c, 1, 60, 0
1, 47184, Note_on_c, 1, 59, 85
1, 47186, Note_on_c, 0, 75, 0
1, 47186, Note_on_c, 0, 74, 85
1, 47196, Note_on_c, 0, 74, 0
1, 47196, Note_on_c, 0, 75, 85
1, 47205, Note_on_c, 0, 75, 0
1, 47205, Note_on_c, 0, 74, 85
1, 47214, Note_on_c, 0, 74, 0
1, 47214, Note_on_c, 0, 72, 85
1, 47223, Note_on_c, 0, 72, 0
1, 47223, Note_on_c, 0, 74, 85
1, 47225, Note_on_c, 1, 55, 0
1, 47229, Note_on_c, 1, 59, 0
1, 47232, Note_on_c, 0, 74, 0
1, 47232, Note_on_c, 0, 72, 85
1, 47280, Note_on_c, 1, 63, 85
1, 47280, Note_on_c, 1, 60, 85
1, 47321, Note_on_c, 0, 72, 0
1, 47325, Note_on_c, 1, 63, 0
1, 47325, Note_on_c, 1, 60, 0
1, 47328, Note_on_c, 0, 67, 85
1, 47328, Note_on_c, 1, 62, 85
1, 47328, Note_on_c, 1, 59, 85
1, 47373, Note_on_c, 1, 62, 0
1, 47373, Note_on_c, 1, 59, 0
1, 47376, Note_on_c, 1, 59, 85
1, 47376, Note_on_c, 1, 55, 85
1, 47395, Note_on_c, 0, 67, 0
1, 47400, Note_on_c, 0, 65, 85
1, 47421, Note_on_c, 1, 59, 0
1, 47421, Note_on_c, 1, 55, 0
1, 47423, Note_on_c, 0, 65, 0
1, 47424, Note_on_c, 0, 65, 85
1, 47424, Note_on_c, 1, 60, 85
1, 47469, Note_on_c, 1, 60, 0
1, 47472, Note_on_c, 1, 48, 85
1, 47517, Note_on_c, 1, 48, 0
1, 47520, Note_on_c, 0, 65, 0
1, 47520, Note_on_c, 0, 63, 85
1, 47526, Note_on_c, 0, 63, 0
1, 47526, Note_on_c, 0, 65, 85
1, 47532, Note_on_c, 0, 65, 0
1, 47532, Note_on_c, 0, 63, 85
1, 47543, Note_on_c, 0, 63, 0
1, 47544, Note_on_c, 0, 65, 85
1, 47556, Note_on_c, 0, 65, 0
1, 47556, Note_on_c, 0, 67, 85
1, 47568, Note_on_c, 0, 67, 0
1, 47568, Note_on_c, 0, 68, 85
1, 47580, Note_on_c, 0, 68, 0
1, 47580, Note_on_c, 0, 70, 85
1, 47592, Note_on_c, 0, 70, 0
1, 47592, Note_on_c, 0, 72, 85
1, 47604, Note_on_c, 0, 72, 0
1, 47604, Note_on_c, 0, 74, 85
1, 47616, Note_on_c, 0, 74, 0
1, 47616, Note_on_c, 0, 75, 85
1, 47616, Note_on_c, 1, 51, 85
1, 47616, Note_on_c, 1, 46, 85
1, 47616, Note_on_c, 1, 43, 85
1, 47616, Note_on_c, 1, 39, 85
1, 47663, Note_on_c, 1, 51, 0
1, 47663, Note_on_c, 1, 46, 0
1, 47663, Note_on_c, 1, 43, 0
1, 47663, Note_on_c, 1, 39, 0
1, 47664, Note_on_c, 1, 67, 85
1, 47664, Note_on_c, 1, 63, 85
1, 47705, Note_on_c, 0, 75, 0
1, 47709, Note_on_c, 1, 67, 0
1, 47709, Note_on_c, 1, 63, 0
1, 47712, Note_on_c, 0, 70, 85
1, 47712, Note_on_c, 1, 65, 85
1, 47712, Note_on_c, 1, 62, 85
1, 47757, Note_on_c, 1, 65, 0
1, 47757, Note_on_c, 1, 62, 0
1, 47760, Note_on_c, 1, 62, 82
1, 47760, Note_on_c, 1, 58, 82
1, 47779, Note_on_c, 0, 70, 0
1, 47784, Note_on_c, 0, 68, 80
1, 47805, Note_on_c, 1, 62, 0
1, 47805, Note_on_c, 1, 58, 0
1, 47807, Note_on_c, 0, 68, 0
1, 47808, Note_on_c, 0, 68, 79
1, 47856, Note_on_c, 1, 51, 77
1, 47901, Note_on_c, 1, 51, 0
1, 47904, Note_on_c, 0, 68, 0
1, 47904, Note_on_c, 0, 67, 73
1, 47904, Note_on_c, 1, 55, 74
1, 47916, Note_on_c, 0, 67, 0
1, 47916, Note_on_c, 0, 68, 73
1, 47928, Note_on_c, 0, 68, 0
1, 47928, Note_on_c, 0, 67, 73
1, 47949, Note_on_c, 0, 67, 0
1, 47949, Note_on_c, 1, 55, 0
1, 47952, Note_on_c, 0, 65, 70
1, 47952, Note_on_c, 1, 58, 71
1, 47997, Note_on_c, 0, 65, 0
1, 47997, Note_on_c, 1, 58, 0
1, 48000, Note_on_c, 0, 63, 67
1, 48000, Note_on_c, 1, 60, 69
1, 48048, Note_on_c, 0, 63, 0
1, 48048, Note_on_c, 0, 68, 64
1, 48093, Note_on_c, 0, 68, 0
1, 48096, Note_on_c, 0, 65, 64
1, 48096, Note_on_c, 1, 60, 0
1, 48096, Note_on_c, 1, 62, 64
1, 48144, Note_on_c, 0, 65, 0
1, 48144, Note_on_c, 0, 70, 64
1, 48185, Note_on_c, 1, 62, 0
1, 48189, Note_on_c, 0, 70, 0
1, 48192, Note_on_c, 0, 68, 64
1, 48240, Note_on_c, 1, 63, 64
1, 48285, Note_on_c, 1, 63, 0
1, 48288, Note_on_c, 0, 68, 0
1, 48288, Note_on_c, 0, 67, 64
1, 48288, Note_on_c, 1, 51, 64
1, 48300, Note_on_c, 0, 67, 0
1, 48300, Note_on_c, 0, 68, 64
1, 48312, Note_on_c, 0, 68, 0
1, 48312, Note_on_c, 0, 67, 64
1, 48333, Note_on_c, 0, 67, 0
1, 48333, Note_on_c, 1, 51, 0
1, 48336, Note_on_c, 0, 65, 64
1, 48336, Note_on_c, 1, 58, 64
1, 48381, Note_on_c, 0, 65, 0
1, 48381, Note_on_c, 1, 58, 0
1, 48384, Note_on_c, 0, 63, 64
1, 48384, Note_on_c, 1, 60, 64
1, 48418, Note_on_c, 0, 63, 0
1, 48420, Note_on_c, 0, 68, 64
1, 48432, Note_on_c, 0, 68, 0
1, 48432, Note_on_c, 0, 68, 64
1, 48444, Note_on_c, 0, 68, 0
1, 48444, Note_on_c, 0, 70, 64
1, 48456, Note_on_c, 0, 70, 0
1, 48456, Note_on_c, 0, 68, 64
1, 48477, Note_on_c, 0, 68, 0
1, 48480, Note_on_c, 0, 65, 64
1, 48480, Note_on_c, 1, 60, 0
1, 48480, Note_on_c, 1, 62, 64
1, 48514, Note_on_c, 0, 65, 0
1, 48516, Note_on_c, 0, 70, 64
1, 48528, Note_on_c, 0, 70, 0
1, 48528, Note_on_c, 0, 70, 64
1, 48540, Note_on_c, 0, 70, 0
1, 48540, Note_on_c, 0, 72, 64
1, 48552, Note_on_c, 0, 72, 0
1, 48552, Note_on_c, 0, 70, 64
1, 48569, Note_on_c, 1, 62, 0
1, 48573, Note_on_c, 0, 70, 0
1, 48576, Note_on_c, 0, 68, 64
1, 48576, Note_on_c, 1, 63, 64
1, 48624, Note_on_c, 0, 68, 0
1, 48624, Note_on_c, 0, 67, 64
1, 48658, Note_on_c, 0, 67, 0
1, 48660, Note_on_c, 0, 79, 64
1, 48665, Note_on_c, 1, 63, 0
1, 48672, Note_on_c, 0, 79, 0
1, 48672, Note_on_c, 0, 75, 64
1, 48692, Note_on_c, 0, 75, 0
1, 48720, Note_on_c, 1, 58, 64
1, 48720, Note_on_c, 1, 55, 64
1, 48756, Note_on_c, 0, 75, 64
1, 48765, Note_on_c, 1, 58, 0
1, 48765, Note_on_c, 1, 55, 0
1, 48768, Note_on_c, 0, 75, 0
1, 48768, Note_on_c, 0, 72, 64
1, 48788, Note_on_c, 0, 72, 0
1, 48816, Note_on_c, 1, 60, 64
1, 48816, Note_on_c, 1, 56, 64
1, 48852, Note_on_c, 0, 72, 64
1, 48861, Note_on_c, 1, 60, 0
1, 48861, Note_on_c, 1, 56, 0
1, 48864, Note_on_c, 0, 72, 0
1, 48864, Note_on_c, 0, 70, 64
1, 48898, Note_on_c, 0, 70, 0
1, 48900, Note_on_c, 0, 68, 64
1, 48912, Note_on_c, 0, 68, 0
1, 48912, Note_on_c, 0, 65, 64
1, 48912, Note_on_c, 1, 56, 64
1, 48912, Note_on_c, 1, 46, 64
1, 48946, Note_on_c, 0, 65, 0
1, 48948, Note_on_c, 0, 62, 64
1, 48957, Note_on_c, 1, 56, 0
1, 48957, Note_on_c, 1, 46, 0
1, 48960, Note_on_c, 0, 62, 0
1, 48960, Note_on_c, 0, 63, 64
1, 49005, Note_on_c, 0, 63, 0
1, 49008, Note_on_c, 1, 55, 64
1, 49008, Note_on_c, 1, 51, 64
1, 49032, Note_on_c, 0, 79, 64
1, 49042, Note_on_c, 0, 79, 0
1, 49053, Note_on_c, 1, 55, 0
1, 49053, Note_on_c, 1, 51, 0
1, 49056, Note_on_c, 0, 74, 64
1, 49068, Note_on_c, 0, 74, 0
1, 49068, Note_on_c, 0, 77, 64
1, 49080, Note_on_c, 0, 77, 0
1, 49080, Note_on_c, 0, 75, 65
1, 49103, Note_on_c, 0, 75, 0
1, 49104, Note_on_c, 1, 58, 65
1, 49104, Note_on_c, 1, 55, 65
1, 49128, Note_on_c, 0, 75, 66
1, 49138, Note_on_c, 0, 75, 0
1, 49149, Note_on_c, 1, 58, 0
1, 49149, Note_on_c, 1, 55, 0
1, 49152, Note_on_c, 0, 71, 66
1, 49164, Note_on_c, 0, 71, 0
1, 49164, Note_on_c, 0, 74, 67
1, 49176, Note_on_c, 0, 74, 0
1, 49176, Note_on_c, 0, 72, 67
1, 49199, Note_on_c, 0, 72, 0
1, 49200, Note_on_c, 1, 60, 67
1, 49200, Note_on_c, 1, 56, 67
1, 49224, Note_on_c, 0, 80, 68
1, 49234, Note_on_c, 0, 80, 0
1, 49245, Note_on_c, 1, 60, 0
1, 49245, Note_on_c, 1, 56, 0
1, 49248, Note_on_c, 0, 76, 69
1, 49260, Note_on_c, 0, 76, 0
1, 49260, Note_on_c, 0, 79, 69
1, 49272, Note_on_c, 0, 79, 0
1, 49272, Note_on_c, 0, 77, 69
1, 49295, Note_on_c, 0, 77, 0
1, 49296, Note_on_c, 1, 60, 69
1, 49296, Note_on_c, 1, 57, 69
1, 49320, Note_on_c, 0, 75, 70
1, 49330, Note_on_c, 0, 75, 0
1, 49341, Note_on_c, 1, 60, 0
1, 49341, Note_on_c, 1, 57, 0
1, 49344, Note_on_c, 0, 73, 71
1, 49356, Note_on_c, 0, 73, 0
1, 49356, Note_on_c, 0, 75, 71
1, 49368, Note_on_c, 0, 75, 0
1, 49368, Note_on_c, 0, 74, 71
1, 49391, Note_on_c, 0, 74, 0
1, 49392, Note_on_c, 1, 62, 71
1, 49392, Note_on_c, 1, 58, 71
1, 49416, Note_on_c, 0, 82, 73
1, 49426, Note_on_c, 0, 82, 0
1, 49437, Note_on_c, 1, 62, 0
1, 49437, Note_on_c, 1, 58, 0
1, 49440, Note_on_c, 0, 81, 73
1, 49452, Note_on_c, 0, 81, 0
1, 49452, Note_on_c, 0, 84, 73
1, 49464, Note_on_c, 0, 84, 0
1, 49464, Note_on_c, 0, 82, 74
1, 49487, Note_on_c, 0, 82, 0
1, 49488, Note_on_c, 1, 63, 73
1, 49488, Note_on_c, 1, 60, 73
1, 49512, Note_on_c, 0, 82, 75
1, 49522, Note_on_c, 0, 82, 0
1, 49533, Note_on_c, 1, 63, 0
1, 49533, Note_on_c, 1, 60, 0
1, 49536, Note_on_c, 0, 81, 75
1, 49548, Note_on_c, 0, 81, 0
1, 49548, Note_on_c, 0, 84, 76
1, 49560, Note_on_c, 0, 84, 0
1, 49560, Note_on_c, 0, 82, 76
1, 49583, Note_on_c, 0, 82, 0
1, 49584, Note_on_c, 1, 65, 75
1, 49584, Note_on_c, 1, 62, 75
1, 49608, Note_on_c, 0, 82, 77
1, 49618, Note_on_c, 0, 82, 0
1, 49629, Note_on_c, 1, 65, 0
1, 49629, Note_on_c, 1, 62, 0
1, 49632, Note_on_c, 0, 81, 78
1, 49644, Note_on_c, 0, 81, 0
1, 49644, Note_on_c, 0, 84, 78
1, 49656, Note_on_c, 0, 84, 0
1, 49656, Note_on_c, 0, 82, 78
1, 49679, Note_on_c, 0, 82, 0
1, 49680, Note_on_c, 1, 67, 77
1, 49680, Note_on_c, 1, 63, 77
1, 49704, Note_on_c, 0, 82, 79
1, 49714, Note_on_c, 0, 82, 0
1, 49725, Note_on_c, 1, 67, 0
1, 49725, Note_on_c, 1, 63, 0
1, 49728, Note_on_c, 0, 79, 80
1, 49740, Note_on_c, 0, 79, 0
1, 49740, Note_on_c, 0, 82, 80
1, 49752, Note_on_c, 0, 82, 0
1, 49752, Note_on_c, 0, 80, 80
1, 49775, Note_on_c, 0, 80, 0
1, 49776, Note_on_c, 1, 68, 79
1, 49776, Note_on_c, 1, 65, 79
1, 49800, Note_on_c, 0, 80, 82
1, 49810, Note_on_c, 0, 80, 0
1, 49821, Note_on_c, 1, 68, 0
1, 49821, Note_on_c, 1, 65, 0
1, 49824, Note_on_c, 0, 79, 82
1, 49836, Note_on_c, 0, 79, 0
1, 49836, Note_on_c, 0, 82, 82
1, 49848, Note_on_c, 0, 82, 0
1, 49848, Note_on_c, 0, 80, 83
1, 49871, Note_on_c, 0, 80, 0
1, 49872, Note_on_c, 1, 68, 81
1, 49872, Note_on_c, 1, 65, 81
1, 49872, Note_on_c, 1, 62, 81
1, 49872, Note_on_c, 1, 58, 81
1, 49896, Note_on_c, 0, 80, 84
1, 49906, Note_on_c, 0, 80, 0
1, 49917, Note_on_c, 1, 68, 0
1, 49917, Note_on_c, 1, 65, 0
1, 49917, Note_on_c, 1, 62, 0
1, 49917, Note_on_c, 1, 58, 0
1, 49920, Note_on_c, 0, 87, 84
1, 49932, Note_on_c, 0, 87, 0
1, 49932, Note_on_c, 0, 86, 85
1, 49944, Note_on_c, 0, 86, 0
1, 49944, Note_on_c, 0, 89, 85
1, 49967, Note_on_c, 0, 89, 0
1, 49968, Note_on_c, 1, 68, 83
1, 49968, Note_on_c, 1, 65, 83
1, 49968, Note_on_c, 1, 62, 83
1, 49968, Note_on_c, 1, 58, 83
1, 49992, Note_on_c, 0, 80, 86
1, 50002, Note_on_c, 0, 80, 0
1, 50013, Note_on_c, 1, 68, 0
1, 50013, Note_on_c, 1, 65, 0
1, 50013, Note_on_c, 1, 62, 0
1, 50013, Note_on_c, 1, 58, 0
1, 50016, Note_on_c, 0, 87, 87
1, 50028, Note_on_c, 0, 87, 0
1, 50028, Note_on_c, 0, 86, 87
1, 50040, Note_on_c, 0, 86, 0
1, 50040, Note_on_c, 0, 89, 87
1, 50063, Note_on_c, 0, 89, 0
1, 50064, Note_on_c, 1, 68, 85
1, 50064, Note_on_c, 1, 65, 85
1, 50064, Note_on_c, 1, 62, 85
1, 50064, Note_on_c, 1, 58, 85
1, 50088, Note_on_c, 0, 80, 88
1, 50098, Note_on_c, 0, 80, 0
1, 50109, Note_on_c, 1, 68, 0
1, 50109, Note_on_c, 1, 65, 0
1, 50109, Note_on_c, 1, 62, 0
1, 50109, Note_on_c, 1, 58, 0
1, 50112, Note_on_c, 0, 87, 89
1, 50124, Note_on_c, 0, 87, 0
1, 50124, Note_on_c, 0, 86, 89
1, 50136, Note_on_c, 0, 86, 0
1, 50136, Note_on_c, 0, 89, 89
1, 50159, Note_on_c, 0, 89, 0
1, 50160, Note_on_c, 1, 68, 87
1, 50160, Note_on_c, 1, 65, 87
1, 50160, Note_on_c, 1, 62, 87
1, 50160, Note_on_c, 1, 58, 87
1, 50184, Note_on_c, 0, 80, 91
1, 50194, Note_on_c, 0, 80, 0
1, 50208, Note_on_c, 0, 87, 91
1, 50223, Note_on_c, 0, 87, 0
1, 50224, Note_on_c, 0, 86, 91
1, 50239, Note_on_c, 0, 86, 0
1, 50240, Note_on_c, 0, 89, 91
1, 50255, Note_on_c, 0, 89, 0
1, 50256, Note_on_c, 0, 87, 91
1, 50271, Note_on_c, 0, 87, 0
1, 50272, Note_on_c, 0, 86, 91
1, 50287, Note_on_c, 0, 86, 0
1, 50288, Note_on_c, 0, 84, 91
1, 50303, Note_on_c, 0, 84, 0
1, 50304, Note_on_c, 0, 82, 91
1, 50319, Note_on_c, 0, 82, 0
1, 50320, Note_on_c, 0, 80, 91
1, 50335, Note_on_c, 0, 80, 0
1, 50336, Note_on_c, 0, 79, 91
1, 50351, Note_on_c, 0, 79, 0
1, 50352, Note_on_c, 0, 82, 91
1, 50367, Note_on_c, 0, 82, 0
1, 50368, Note_on_c, 0, 80, 91
1, 50383, Note_on_c, 0, 80, 0
1, 50384, Note_on_c, 0, 84, 91
1, 50399, Note_on_c, 0, 84, 0
1, 50400, Note_on_c, 0, 82, 91
1, 50412, Note_on_c, 0, 82, 0
1, 50412, Note_on_c, 0, 80, 90
1, 50424, Note_on_c, 0, 80, 0
1, 50424, Note_on_c, 0, 79, 89
1, 50436, Note_on_c, 0, 79, 0
1, 50436, Note_on_c, 0, 77, 88
1, 50448, Note_on_c, 0, 77, 0
1, 50448, Note_on_c, 0, 75, 87
1, 50460, Note_on_c, 0, 75, 0
1, 50460, Note_on_c, 0, 74, 86
1, 50472, Note_on_c, 0, 74, 0
1, 50472, Note_on_c, 0, 72, 86
1, 50484, Note_on_c, 0, 72, 0
1, 50484, Note_on_c, 0, 70, 85
1, 50496, Note_on_c, 0, 70, 0
1, 50496, Note_on_c, 0, 68, 84
1, 50585, Note_on_c, 1, 68, 0
1, 50585, Note_on_c, 1, 65, 0
1, 50585, Note_on_c, 1, 62, 0
1, 50585, Note_on_c, 1, 58, 0
1, 50615, Note_on_c, 0, 68, 0
1, 50616, Note_on_c, 0, 67, 78
1, 50628, Note_on_c, 0, 67, 0
1, 50628, Note_on_c, 0, 68, 78
1, 50640, Note_on_c, 0, 68, 0
1, 50640, Note_on_c, 0, 70, 78
1, 50652, Note_on_c, 0, 70, 0
1, 50652, Note_on_c, 0, 68, 78
1, 50664, Note_on_c, 0, 68, 0
1, 50664, Note_on_c, 0, 67, 78
1, 50676, Note_on_c, 0, 67, 0
1, 50676, Note_on_c, 0, 65, 78
1, 50688, Note_on_c, 0, 65, 0
1, 50688, Note_on_c, 0, 63, 78
1, 50733, Note_on_c, 0, 63, 0
1, 50736, Note_on_c, 0, 63, 78
1, 50736, Note_on_c, 1, 60, 78
1, 50736, Note_on_c, 1, 56, 78
1, 50781, Note_on_c, 0, 63, 0
1, 50781, Note_on_c, 1, 60, 0
1, 50781, Note_on_c, 1, 56, 0
1, 50784, Note_on_c, 0, 63, 78
1, 50784, Note_on_c, 1, 58, 78
1, 50784, Note_on_c, 1, 55, 78
1, 50829, Note_on_c, 0, 63, 0
1, 50829, Note_on_c, 1, 58, 0
1, 50829, Note_on_c, 1, 55, 0
1, 50832, Note_on_c, 0, 63, 78
1, 50832, Note_on_c, 1, 56, 78
1, 50832, Note_on_c, 1, 53, 78
1, 50877, Note_on_c, 0, 63, 0
1, 50877, Note_on_c, 1, 56, 0
1, 50877, Note_on_c, 1, 53, 0
1, 50880, Note_on_c, 0, 63, 78
1, 50880, Note_on_c, 1, 55, 78
1, 50880, Note_on_c, 1, 51, 78
1, 50925, Note_on_c, 0, 63, 0
1, 50925, Note_on_c, 1, 55, 0
1, 50925, Note_on_c, 1, 51, 0
1, 50928, Note_on_c, 0, 63, 78
1, 50928, Note_on_c, 1, 60, 78
1, 50928, Note_on_c, 1, 56, 78
1, 50962, Note_on_c, 0, 63, 0
1, 50964, Note_on_c, 0, 63, 78
1, 50973, Note_on_c, 1, 60, 0
1, 50973, Note_on_c, 1, 56, 0
1, 50976, Note_on_c, 0, 63, 0
1, 50976, Note_on_c, 0, 63, 78
1, 50976, Note_on_c, 1, 58, 78
1, 50976, Note_on_c, 1, 55, 78
1, 51010, Note_on_c, 0, 63, 0
1, 51012, Note_on_c, 0, 63, 78
1, 51021, Note_on_c, 1, 58, 0
1, 51021, Note_on_c, 1, 55, 0
1, 51024, Note_on_c, 0, 63, 0
1, 51024, Note_on_c, 0, 63, 78
1, 51024, Note_on_c, 1, 56, 78
1, 51024, Note_on_c, 1, 53, 78
1, 51058, Note_on_c, 0, 63, 0
1, 51060, Note_on_c, 0, 63, 78
1, 51069, Note_on_c, 1, 56, 0
1, 51069, Note_on_c, 1, 53, 0
1, 51072, Note_on_c, 0, 63, 0
1, 51072, Note_on_c, 0, 63, 78
1, 51072, Note_on_c, 1, 55, 78
1, 51072, Note_on_c, 1, 51, 78
1, 51117, Note_on_c, 0, 63, 0
1, 51117, Note_on_c, 1, 55, 0
1, 51117, Note_on_c, 1, 51, 0
1, 51120, Note_on_c, 0, 65, 78
1, 51120, Note_on_c, 0, 63, 78
1, 51120, Note_on_c, 1, 60, 78
1, 51154, Note_on_c, 0, 65, 0
1, 51154, Note_on_c, 0, 63, 0
1, 51156, Note_on_c, 0, 65, 78
1, 51156, Note_on_c, 0, 63, 78
1, 51165, Note_on_c, 1, 60, 0
1, 51168, Note_on_c, 0, 65, 0
1, 51168, Note_on_c, 0, 63, 0
1, 51168, Note_on_c, 0, 65, 78
1, 51168, Note_on_c, 0, 63, 78
1, 51168, Note_on_c, 1, 58, 78
1, 51202, Note_on_c, 0, 65, 0
1, 51202, Note_on_c, 0, 63, 0
1, 51204, Note_on_c, 0, 65, 78
1, 51204, Note_on_c, 0, 63, 78
1, 51213, Note_on_c, 1, 58, 0
1, 51216, Note_on_c, 0, 65, 0
1, 51216, Note_on_c, 0, 63, 0
1, 51216, Note_on_c, 0, 65, 78
1, 51216, Note_on_c, 0, 63, 78
1, 51216, Note_on_c, 1, 57, 78
1, 51250, Note_on_c, 0, 65, 0
1, 51250, Note_on_c, 0, 63, 0
1, 51252, Note_on_c, 0, 65, 78
1, 51252, Note_on_c, 0, 63, 78
1, 51261, Note_on_c, 1, 57, 0
1, 51264, Note_on_c, 0, 65, 0
1, 51264, Note_on_c, 0, 63, 0
1, 51264, Note_on_c, 0, 65, 78
1, 51264, Note_on_c, 0, 62, 78
1, 51264, Note_on_c, 1, 58, 78
1, 51309, Note_on_c, 0, 65, 0
1, 51309, Note_on_c, 0, 62, 0
1, 51309, Note_on_c, 1, 58, 0
1, 51312, Note_on_c, 0, 70, 78
1, 51312, Note_on_c, 0, 62, 78
1, 51312, Note_on_c, 1, 46, 78
1, 51312, Note_on_c, 1, 34, 78
1, 51346, Note_on_c, 0, 70, 0
1, 51346, Note_on_c, 0, 62, 0
1, 51348, Note_on_c, 0, 70, 78
1, 51348, Note_on_c, 0, 62, 78
1, 51357, Note_on_c, 1, 46, 0
1, 51357, Note_on_c, 1, 34, 0
1, 51360, Note_on_c, 0, 70, 0
1, 51360, Note_on_c, 0, 62, 0
1, 51360, Note_on_c, 0, 70, 78
1, 51360, Note_on_c, 0, 63, 78
1, 51360, Note_on_c, 1, 48, 78
1, 51360, Note_on_c, 1, 36, 78
1, 51394, Note_on_c, 0, 70, 0
1, 51394, Note_on_c, 0, 63, 0
1, 51396, Note_on_c, 0, 70, 78
1, 51396, Note_on_c, 0, 63, 78
1, 51405, Note_on_c, 1, 48, 0
1, 51405, Note_on_c, 1, 36, 0
1, 51408, Note_on_c, 0, 70, 0
1, 51408, Note_on_c, 0, 63, 0
1, 51408, Note_on_c, 0, 68, 78
1, 51408, Note_on_c, 0, 65, 78
1, 51408, Note_on_c, 1, 50, 78
1, 51408, Note_on_c, 1, 38, 78
1, 51442, Note_on_c, 0, 68, 0
1, 51442, Note_on_c, 0, 65, 0
1, 51444, Note_on_c, 0, 68, 78
1, 51444, Note_on_c, 0, 65, 78
1, 51453, Note_on_c, 1, 50, 0
1, 51453, Note_on_c, 1, 38, 0
1, 51456, Note_on_c, 0, 68, 0
1, 51456, Note_on_c, 0, 65, 0
1, 51456, Note_on_c, 0, 67, 78
1, 51456, Note_on_c, 1, 51, 78
1, 51456, Note_on_c, 1, 39, 78
1, 51468, Note_on_c, 0, 67, 0
1, 51468, Note_on_c, 0, 70, 78
1, 51480, Note_on_c, 0, 70, 0
1, 51480, Note_on_c, 0, 68, 78
1, 51492, Note_on_c, 0, 68, 0
1, 51492, Note_on_c, 0, 67, 78
1, 51504, Note_on_c, 0, 67, 0
1, 51504, Note_on_c, 0, 68, 78
1, 51516, Note_on_c, 0, 68, 0
1, 51516, Note_on_c, 0, 70, 78
1, 51528, Note_on_c, 0, 70, 0
1, 51528, Note_on_c, 0, 72, 78
1, 51540, Note_on_c, 0, 72, 0
1, 51540, Note_on_c, 0, 74, 78
1, 51545, Note_on_c, 1, 51, 0
1, 51545, Note_on_c, 1, 39, 0
1, 51552, Note_on_c, 0, 74, 0
1, 51552, Note_on_c, 0, 75, 78
1, 51564, Note_on_c, 0, 75, 0
1, 51564, Note_on_c, 0, 77, 78
1, 51576, Note_on_c, 0, 77, 0
1, 51576, Note_on_c, 0, 79, 78
1, 51588, Note_on_c, 0, 79, 0
1, 51588, Note_on_c, 0, 80, 78
1, 51600, Note_on_c, 0, 80, 0
1, 51600, Note_on_c, 0, 82, 78
1, 51612, Note_on_c, 0, 82, 0
1, 51612, Note_on_c, 0, 80, 78
1, 51624, Note_on_c, 0, 80, 0
1, 51624, Note_on_c, 0, 79, 78
1, 51636, Note_on_c, 0, 79, 0
1, 51636, Note_on_c, 0, 77, 78
1, 51648, Note_on_c, 0, 77, 0
1, 51648, Note_on_c, 0, 75, 78
1, 51648, Note_on_c, 1, 58, 78
1, 51648, Note_on_c, 1, 55, 78
1, 51648, Note_on_c, 1, 51, 78
1, 51660, Note_on_c, 0, 75, 0
1, 51660, Note_on_c, 0, 74, 78
1, 51672, Note_on_c, 0, 74, 0
1, 51672, Note_on_c, 0, 72, 78
1, 51684, Note_on_c, 0, 72, 0
1, 51684, Note_on_c, 0, 70, 78
1, 51696, Note_on_c, 0, 70, 0
1, 51696, Note_on_c, 0, 72, 78
1, 51708, Note_on_c, 0, 72, 0
1, 51708, Note_on_c, 0, 74, 78
1, 51720, Note_on_c, 0, 74, 0
1, 51720, Note_on_c, 0, 75, 78
1, 51732, Note_on_c, 0, 75, 0
1, 51732, Note_on_c, 0, 77, 78
1, 51737, Note_on_c, 1, 58, 0
1, 51737, Note_on_c, 1, 55, 0
1, 51737, Note_on_c, 1, 51, 0
1, 51744, Note_on_c, 0, 77, 0
1, 51744, Note_on_c, 0, 79, 78
1, 51756, Note_on_c, 0, 79, 0
1, 51756, Note_on_c, 0, 77, 78
1, 51768, Note_on_c, 0, 77, 0
1, 51768, Note_on_c, 0, 75, 78
1, 51780, Note_on_c, 0, 75, 0
1, 51780, Note_on_c, 0, 74, 78
1, 51792, Note_on_c, 0, 74, 0
1, 51792, Note_on_c, 0, 72, 78
1, 51804, Note_on_c, 0, 72, 0
1, 51804, Note_on_c, 0, 70, 78
1, 51816, Note_on_c, 0, 70, 0
1, 51816, Note_on_c, 0, 68, 78
1, 51828, Note_on_c, 0, 68, 0
1, 51828, Note_on_c, 0, 67, 78
1, 51840, Note_on_c, 0, 67, 0
1, 51840, Note_on_c, 0, 65, 78
1, 51840, Note_on_c, 1, 53, 78
1, 51840, Note_on_c, 1, 48, 78
1, 51840, Note_on_c, 1, 44, 78
1, 51852, Note_on_c, 0, 65, 0
1, 51852, Note_on_c, 0, 67, 78
1, 51864, Note_on_c, 0, 67, 0
1, 51864, Note_on_c, 0, 68, 78
1, 51876, Note_on_c, 0, 68, 0
1, 51876, Note_on_c, 0, 70, 78
1, 51888, Note_on_c, 0, 70, 0
1, 51888, Note_on_c, 0, 72, 78
1, 51900, Note_on_c, 0, 72, 0
1, 51900, Note_on_c, 0, 70, 78
1, 51912, Note_on_c, 0, 70, 0
1, 51912, Note_on_c, 0, 68, 78
1, 51924, Note_on_c, 0, 68, 0
1, 51924, Note_on_c, 0, 67, 78
1, 51929, Note_on_c, 1, 53, 0
1, 51929, Note_on_c, 1, 48, 0
1, 51929, Note_on_c, 1, 44, 0
1, 51936, Note_on_c, 0, 67, 0
1, 51936, Note_on_c, 0, 65, 78
1, 51948, Note_on_c, 0, 65, 0
1, 51948, Note_on_c, 0, 67, 78
1, 51960, Note_on_c, 0, 67, 0
1, 51960, Note_on_c, 0, 65, 78
1, 51972, Note_on_c, 0, 65, 0
1, 51972, Note_on_c, 0, 63, 78
1, 51984, Note_on_c, 0, 63, 0
1, 51984, Note_on_c, 0, 62, 78
1, 51984, Note_on_c, 1, 53, 78
1, 51984, Note_on_c, 1, 48, 78
1, 51984, Note_on_c, 1, 45, 78
1, 51996, Note_on_c, 0, 62, 0
1, 51996, Note_on_c, 0, 63, 78
1, 52008, Note_on_c, 0, 63, 0
1, 52008, Note_on_c, 0, 62, 78
1, 52020, Note_on_c, 0, 62, 0
1, 52020, Note_on_c, 0, 60, 78
1, 52029, Note_on_c, 1, 53, 0
1, 52029, Note_on_c, 1, 48, 0
1, 52029, Note_on_c, 1, 45, 0
1, 52032, Note_on_c, 0, 60, 0
1, 52032, Note_on_c, 0, 58, 78
1, 52032, Note_on_c, 1, 53, 78
1, 52032, Note_on_c, 1, 50, 78
1, 52032, Note_on_c, 1, 46, 78
1, 52055, Note_on_c, 0, 58, 0
1, 52056, Note_on_c, 0, 60, 78
1, 52068, Note_on_c, 0, 60, 0
1, 52068, Note_on_c, 0, 62, 78
1, 52080, Note_on_c, 0, 62, 0
1, 52080, Note_on_c, 0, 63, 78
1, 52092, Note_on_c, 0, 63, 0
1, 52092, Note_on_c, 0, 65, 78
1, 52104, Note_on_c, 0, 65, 0
1, 52104, Note_on_c, 0, 67, 78
1, 52116, Note_on_c, 0, 67, 0
1, 52116, Note_on_c, 0, 69, 78
1, 52121, Note_on_c, 1, 53, 0
1, 52121, Note_on_c, 1, 50, 0
1, 52121, Note_on_c, 1, 46, 0
1, 52128, Note_on_c, 0, 69, 0
1, 52128, Note_on_c, 0, 70, 78
1, 52151, Note_on_c, 0, 70, 0
1, 52152, Note_on_c, 0, 72, 78
1, 52164, Note_on_c, 0, 72, 0
1, 52164, Note_on_c, 0, 74, 78
1, 52176, Note_on_c, 0, 74, 0
1, 52176, Note_on_c, 0, 75, 78
1, 52188, Note_on_c, 0, 75, 0
1, 52188, Note_on_c, 0, 77, 78
1, 52200, Note_on_c, 0, 77, 0
1, 52200, Note_on_c, 0, 79, 78
1, 52212, Note_on_c, 0, 79, 0
1, 52212, Note_on_c, 0, 81, 78
1, 52224, Note_on_c, 0, 81, 0
1, 52224, Note_on_c, 0, 82, 78
1, 52224, Note_on_c, 1, 46, 78
1, 52224, Note_on_c, 1, 34, 78
1, 52224, Note_on_c, 1, 46, 64
1, 52244, Note_on_c, 0, 82, 0
1, 52269, Note_on_c, 1, 46, 0
1, 52269, Note_on_c, 1, 34, 0
1, 52269, Note_on_c, 1, 46, 0
1, 52272, Note_on_c, 0, 82, 78
1, 52272, Note_on_c, 1, 65, 78
1, 52272, Note_on_c, 1, 62, 78
1, 52272, Note_on_c, 1, 58, 78
1, 52272, Note_on_c, 1, 56, 78
1, 52284, Note_on_c, 0, 82, 0
1, 52284, Note_on_c, 0, 81, 78
1, 52296, Note_on_c, 0, 81, 0
1, 52296, Note_on_c, 0, 82, 78
1, 52308, Note_on_c, 0, 82, 0
1, 52308, Note_on_c, 0, 84, 78
1, 52317, Note_on_c, 1, 65, 0
1, 52317, Note_on_c, 1, 62, 0
1, 52317, Note_on_c, 1, 58, 0
1, 52317, Note_on_c, 1, 56, 0
1, 52320, Note_on_c, 0, 84, 0
1, 52320, Note_on_c, 0, 82, 78
1, 52320, Note_on_c, 1, 65, 78
1, 52320, Note_on_c, 1, 62, 78
1, 52320, Note_on_c, 1, 58, 78
1, 52320, Note_on_c, 1, 56, 78
1, 52332, Note_on_c, 0, 82, 0
1, 52332, Note_on_c, 0, 81, 78
1, 52344, Note_on_c, 0, 81, 0
1, 52344, Note_on_c, 0, 82, 78
1, 52356, Note_on_c, 0, 82, 0
1, 52356, Note_on_c, 0, 84, 78
1, 52365, Note_on_c, 1, 65, 0
1, 52365, Note_on_c, 1, 62, 0
1, 52365, Note_on_c, 1, 58, 0
1, 52365, Note_on_c, 1, 56, 0
1, 52368, Note_on_c, 0, 84, 0
1, 52368, Note_on_c, 0, 82, 78
1, 52368, Note_on_c, 1, 65, 78
1, 52368, Note_on_c, 1, 62, 78
1, 52368, Note_on_c, 1, 58, 78
1, 52368, Note_on_c, 1, 56, 78
1, 52380, Note_on_c, 0, 82, 0
1, 52380, Note_on_c, 0, 80, 78
1, 52392, Note_on_c, 0, 80, 0
1, 52392, Note_on_c, 0, 79, 78
1, 52404, Note_on_c, 0, 79, 0
1, 52404, Note_on_c, 0, 77, 78
1, 52413, Note_on_c, 1, 65, 0
1, 52413, Note_on_c, 1, 62, 0
1, 52413, Note_on_c, 1, 58, 0
1, 52413, Note_on_c, 1, 56, 0
1, 52416, Note_on_c, 0, 77, 0
1, 52416, Note_on_c, 0, 75, 78
1, 52416, Note_on_c, 1, 63, 78
1, 52416, Note_on_c, 1, 58, 78
1, 52416, Note_on_c, 1, 55, 78
1, 52436, Note_on_c, 0, 75, 0
1, 52461, Note_on_c, 1, 63, 0
1, 52461, Note_on_c, 1, 58, 0
1, 52461, Note_on_c, 1, 55, 0
1, 52464, Note_on_c, 0, 82, 78
1, 52464, Note_on_c, 1, 65, 78
1, 52464, Note_on_c, 1, 62, 78
1, 52464, Note_on_c, 1, 58, 78
1, 52464, Note_on_c, 1, 56, 78
1, 52476, Note_on_c, 0, 82, 0
1, 52476, Note_on_c, 0, 81, 78
1, 52488, Note_on_c, 0, 81, 0
1, 52488, Note_on_c, 0, 82, 78
1, 52500, Note_on_c, 0, 82, 0
1, 52500, Note_on_c, 0, 84, 78
1, 52509, Note_on_c, 1, 65, 0
1, 52509, Note_on_c, 1, 62, 0
1, 52509, Note_on_c, 1, 58, 0
1, 52509, Note_on_c, 1, 56, 0
1, 52512, Note_on_c, 0, 84, 0
1, 52512, Note_on_c, 0, 82, 78
1, 52512, Note_on_c, 1, 65, 78
1, 52512, Note_on_c, 1, 62, 78
1, 52512, Note_on_c, 1, 58, 78
1, 52512, Note_on_c, 1, 56, 78
1, 52524, Note_on_c, 0, 82, 0
1, 52524, Note_on_c, 0, 81, 78
1, 52536, Note_on_c, 0, 81, 0
1, 52536, Note_on_c, 0, 82, 78
1, 52548, Note_on_c, 0, 82, 0
1, 52548, Note_on_c, 0, 84, 78
1, 52557, Note_on_c, 1, 65, 0
1, 52557, Note_on_c, 1, 62, 0
1, 52557, Note_on_c, 1, 58, 0
1, 52557, Note_on_c, 1, 56, 0
1, 52560, Note_on_c, 0, 84, 0
1, 52560, Note_on_c, 0, 82, 78
1, 52560, Note_on_c, 1, 65, 78
1, 52560, Note_on_c, 1, 62, 78
1, 52560, Note_on_c, 1, 58, 78
1, 52560, Note_on_c, 1, 56, 78
1, 52572, Note_on_c, 0, 82, 0
1, 52572, Note_on_c, 0, 80, 78
1, 52584, Note_on_c, 0, 80, 0
1, 52584, Note_on_c, 0, 79, 78
1, 52596, Note_on_c, 0, 79, 0
1, 52596, Note_on_c, 0, 77, 78
1, 52605, Note_on_c, 1, 65, 0
1, 52605, Note_on_c, 1, 62, 0
1, 52605, Note_on_c, 1, 58, 0
1, 52605, Note_on_c, 1, 56, 0
1, 52608, Note_on_c, 0, 77, 0
1, 52608, Note_on_c, 0, 75, 78
1, 52608, Note_on_c, 1, 63, 78
1, 52608, Note_on_c, 1, 58, 78
1, 52608, Note_on_c, 1, 55, 78
1, 52628, Note_on_c, 0, 75, 0
1, 52653, Note_on_c, 1, 63, 0
1, 52653, Note_on_c, 1, 58, 0
1, 52653, Note_on_c, 1, 55, 0
1, 52656, Note_on_c, 0, 82, 78
1, 52656, Note_on_c, 1, 65, 78
1, 52656, Note_on_c, 1, 62, 78
1, 52656, Note_on_c, 1, 58, 78
1, 52656, Note_on_c, 1, 56, 78
1, 52668, Note_on_c, 0, 82, 0
1, 52668, Note_on_c, 0, 81, 78
1, 52680, Note_on_c, 0, 81, 0
1, 52680, Note_on_c, 0, 82, 78
1, 52692, Note_on_c, 0, 82, 0
1, 52692, Note_on_c, 0, 84, 78
1, 52701, Note_on_c, 1, 65, 0
1, 52701, Note_on_c, 1, 62, 0
1, 52701, Note_on_c, 1, 58, 0
1, 52701, Note_on_c, 1, 56, 0
1, 52704, Note_on_c, 0, 84, 0
1, 52704, Note_on_c, 0, 82, 78
1, 52704, Note_on_c, 1, 65, 78
1, 52704, Note_on_c, 1, 62, 78
1, 52704, Note_on_c, 1, 58, 78
1, 52704, Note_on_c, 1, 56, 78
1, 52716, Note_on_c, 0, 82, 0
1, 52716, Note_on_c, 0, 81, 78
1, 52728, Note_on_c, 0, 81, 0
1, 52728, Note_on_c, 0, 82, 78
1, 52740, Note_on_c, 0, 82, 0
1, 52740, Note_on_c, 0, 84, 78
1, 52749, Note_on_c, 1, 65, 0
1, 52749, Note_on_c, 1, 62, 0
1, 52749, Note_on_c, 1, 58, 0
1, 52749, Note_on_c, 1, 56, 0
1, 52752, Note_on_c, 0, 84, 0
1, 52752, Note_on_c, 0, 82, 78
1, 52752, Note_on_c, 1, 65, 78
1, 52752, Note_on_c, 1, 62, 78
1, 52752, Note_on_c, 1, 58, 78
1, 52752, Note_on_c, 1, 56, 78
1, 52764, Note_on_c, 0, 82, 0
1, 52764, Note_on_c, 0, 80, 78
1, 52776, Note_on_c, 0, 80, 0
1, 52776, Note_on_c, 0, 79, 78
1, 52788, Note_on_c, 0, 79, 0
1, 52788, Note_on_c, 0, 77, 78
1, 52797, Note_on_c, 1, 65, 0
1, 52797, Note_on_c, 1, 62, 0
1, 52797, Note_on_c, 1, 58, 0
1, 52797, Note_on_c, 1, 56, 0
1, 52800, Note_on_c, 0, 77, 0
1, 52800, Note_on_c, 0, 75, 78
1, 52800, Note_on_c, 1, 63, 78
1, 52800, Note_on_c, 1, 58, 78
1, 52800, Note_on_c, 1, 55, 78
1, 52823, Note_on_c, 0, 75, 0
1, 52824, Note_on_c, 0, 77, 78
1, 52836, Note_on_c, 0, 77, 0
1, 52836, Note_on_c, 0, 79, 78
1, 52848, Note_on_c, 0, 79, 0
1, 52848, Note_on_c, 0, 80, 78
1, 52860, Note_on_c, 0, 80, 0
1, 52860, Note_on_c, 0, 82, 78
1, 52872, Note_on_c, 0, 82, 0
1, 52872, Note_on_c, 0, 84, 78
1, 52884, Note_on_c, 0, 84, 0
1, 52884, Note_on_c, 0, 86, 78
1, 52889, Note_on_c, 1, 63, 0
1, 52889, Note_on_c, 1, 58, 0
1, 52889, Note_on_c, 1, 55, 0
1, 52896, Note_on_c, 0, 86, 0
1, 52896, Note_on_c, 0, 87, 78
1, 52908, Note_on_c, 0, 87, 0
1, 52908, Note_on_c, 0, 86, 78
1, 52920, Note_on_c, 0, 86, 0
1, 52920, Note_on_c, 0, 84, 78
1, 52932, Note_on_c, 0, 84, 0
1, 52932, Note_on_c, 0, 82, 78
1, 52944, Note_on_c, 0, 82, 0
1, 52944, Note_on_c, 0, 80, 78
1, 52956, Note_on_c, 0, 80, 0
1, 52956, Note_on_c, 0, 79, 78
1, 52968, Note_on_c, 0, 79, 0
1, 52968, Note_on_c, 0, 80, 78
1, 52980, Note_on_c, 0, 80, 0
1, 52980, Note_on_c, 0, 82, 78
1, 52992, Note_on_c, 0, 82, 0
1, 52992, Note_on_c, 0, 84, 78
1, 52992, Note_on_c, 1, 63, 78
1, 52992, Note_on_c, 1, 60, 78
1, 52992, Note_on_c, 1, 56, 78
1, 53004, Note_on_c, 0, 84, 0
1, 53004, Note_on_c, 0, 82, 78
1, 53016, Note_on_c, 0, 82, 0
1, 53016, Note_on_c, 0, 80, 78
1, 53028, Note_on_c, 0, 80, 0
1, 53028, Note_on_c, 0, 79, 78
1, 53040, Note_on_c, 0, 79, 0
1, 53040, Note_on_c, 0, 77, 78
1, 53052, Note_on_c, 0, 77, 0
1, 53052, Note_on_c, 0, 76, 78
1, 53064, Note_on_c, 0, 76, 0
1, 53064, Note_on_c, 0, 77, 78
1, 53076, Note_on_c, 0, 77, 0
1, 53076, Note_on_c, 0, 79, 78
1, 53081, Note_on_c, 1, 63, 0
1, 53081, Note_on_c, 1, 60, 0
1, 53081, Note_on_c, 1, 56, 0
1, 53088, Note_on_c, 0, 79, 0
1, 53088, Note_on_c, 0, 80, 78
1, 53100, Note_on_c, 0, 80, 0
1, 53100, Note_on_c, 0, 82, 78
1, 53112, Note_on_c, 0, 82, 0
1, 53112, Note_on_c, 0, 80, 78
1, 53124, Note_on_c, 0, 80, 0
1, 53124, Note_on_c, 0, 79, 78
1, 53136, Note_on_c, 0, 79, 0
1, 53136, Note_on_c, 0, 77, 78
1, 53136, Note_on_c, 1, 65, 78
1, 53136, Note_on_c, 1, 60, 78
1, 53136, Note_on_c, 1, 57, 78
1, 53148, Note_on_c, 0, 77, 0
1, 53148, Note_on_c, 0, 75, 78
1, 53160, Note_on_c, 0, 75, 0
1, 53160, Note_on_c, 0, 74, 78
1, 53172, Note_on_c, 0, 74, 0
1, 53172, Note_on_c, 0, 72, 78
1, 53181, Note_on_c, 1, 65, 0
1, 53181, Note_on_c, 1, 60, 0
1, 53181, Note_on_c, 1, 57, 0
1, 53184, Note_on_c, 0, 72, 0
1, 53184, Note_on_c, 0, 70, 78
1, 53184, Note_on_c, 1, 65, 78
1, 53184, Note_on_c, 1, 62, 78
1, 53184, Note_on_c, 1, 58, 64
1, 53196, Note_on_c, 0, 70, 0
1, 53196, Note_on_c, 0, 72, 78
1, 53208, Note_on_c, 0, 72, 0
1, 53208, Note_on_c, 0, 74, 78
1, 53220, Note_on_c, 0, 74, 0
1, 53220, Note_on_c, 0, 75, 78
1, 53229, Note_on_c, 1, 65, 0
1, 53229, Note_on_c, 1, 62, 0
1, 53232, Note_on_c, 0, 75, 0
1, 53232, Note_on_c, 0, 77, 78
1, 53232, Note_on_c, 1, 62, 78
1, 53244, Note_on_c, 0, 77, 0
1, 53244, Note_on_c, 0, 79, 78
1, 53256, Note_on_c, 0, 79, 0
1, 53256, Note_on_c, 0, 80, 78
1, 53268, Note_on_c, 0, 80, 0
1, 53268, Note_on_c, 0, 77, 78
1, 53277, Note_on_c, 1, 62, 0
1, 53280, Note_on_c, 0, 77, 0
1, 53280, Note_on_c, 0, 79, 78
1, 53280, Note_on_c, 1, 63, 78
1, 53292, Note_on_c, 0, 79, 0
1, 53292, Note_on_c, 0, 82, 78
1, 53304, Note_on_c, 0, 82, 0
1, 53304, Note_on_c, 0, 80, 78
1, 53316, Note_on_c, 0, 80, 0
1, 53316, Note_on_c, 0, 79, 78
1, 53325, Note_on_c, 1, 63, 0
1, 53328, Note_on_c, 0, 79, 0
1, 53328, Note_on_c, 0, 77, 78
1, 53328, Note_on_c, 1, 67, 78
1, 53340, Note_on_c, 0, 77, 0
1, 53340, Note_on_c, 0, 75, 78
1, 53352, Note_on_c, 0, 75, 0
1, 53352, Note_on_c, 0, 74, 78
1, 53361, Note_on_c, 1, 58, 0
1, 53364, Note_on_c, 0, 74, 0
1, 53364, Note_on_c, 0, 72, 78
1, 53373, Note_on_c, 1, 67, 0
1, 53376, Note_on_c, 0, 72, 0
1, 53376, Note_on_c, 0, 70, 78
1, 53376, Note_on_c, 1, 58, 64
1, 53388, Note_on_c, 0, 70, 0
1, 53388, Note_on_c, 0, 72, 78
1, 53400, Note_on_c, 0, 72, 0
1, 53400, Note_on_c, 0, 74, 78
1, 53412, Note_on_c, 0, 74, 0
1, 53412, Note_on_c, 0, 75, 78
1, 53424, Note_on_c, 0, 75, 0
1, 53424, Note_on_c, 0, 77, 78
1, 53424, Note_on_c, 1, 62, 78
1, 53436, Note_on_c, 0, 77, 0
1, 53436, Note_on_c, 0, 79, 78
1, 53448, Note_on_c, 0, 79, 0
1, 53448, Note_on_c, 0, 80, 78
1, 53460, Note_on_c, 0, 80, 0
1, 53460, Note_on_c, 0, 77, 78
1, 53469, Note_on_c, 1, 62, 0
1, 53472, Note_on_c, 0, 77, 0
1, 53472, Note_on_c, 0, 79, 78
1, 53472, Note_on_c, 1, 63, 78
1, 53484, Note_on_c, 0, 79, 0
1, 53484, Note_on_c, 0, 82, 78
1, 53496, Note_on_c, 0, 82, 0
1, 53496, Note_on_c, 0, 80, 78
1, 53508, Note_on_c, 0, 80, 0
1, 53508, Note_on_c, 0, 79, 78
1, 53517, Note_on_c, 1, 63, 0
1, 53520, Note_on_c, 0, 79, 0
1, 53520, Note_on_c, 0, 77, 78
1, 53520, Note_on_c, 1, 67, 78
1, 53532, Note_on_c, 0, 77, 0
1, 53532, Note_on_c, 0, 75, 78
1, 53544, Note_on_c, 0, 75, 0
1, 53544, Note_on_c, 0, 74, 78
1, 53553, Note_on_c, 1, 58, 0
1, 53556, Note_on_c, 0, 74, 0
1, 53556, Note_on_c, 0, 72, 78
1, 53565, Note_on_c, 1, 67, 0
1, 53568, Note_on_c, 0, 72, 0
1, 53568, Note_on_c, 0, 70, 78
1, 53568, Note_on_c, 1, 58, 64
1, 53580, Note_on_c, 0, 70, 0
1, 53580, Note_on_c, 0, 72, 78
1, 53592, Note_on_c, 0, 72, 0
1, 53592, Note_on_c, 0, 74, 78
1, 53604, Note_on_c, 0, 74, 0
1, 53604, Note_on_c, 0, 75, 78
1, 53616, Note_on_c, 0, 75, 0
1, 53616, Note_on_c, 0, 77, 78
1, 53616, Note_on_c, 1, 62, 78
1, 53628, Note_on_c, 0, 77, 0
1, 53628, Note_on_c, 0, 79, 78
1, 53640, Note_on_c, 0, 79, 0
1, 53640, Note_on_c, 0, 80, 78
1, 53652, Note_on_c, 0, 80, 0
1, 53652, Note_on_c, 0, 77, 78
1, 53661, Note_on_c, 1, 62, 0
1, 53664, Note_on_c, 0, 77, 0
1, 53664, Note_on_c, 0, 79, 78
1, 53664, Note_on_c, 1, 63, 78
1, 53676, Note_on_c, 0, 79, 0
1, 53676, Note_on_c, 0, 82, 78
1, 53688, Note_on_c, 0, 82, 0
1, 53688, Note_on_c, 0, 80, 78
1, 53700, Note_on_c, 0, 80, 0
1, 53700, Note_on_c, 0, 79, 78
1, 53709, Note_on_c, 1, 63, 0
1, 53712, Note_on_c, 0, 79, 0
1, 53712, Note_on_c, 0, 77, 78
1, 53712, Note_on_c, 1, 67, 78
1, 53724, Note_on_c, 0, 77, 0
1, 53724, Note_on_c, 0, 75, 78
1, 53736, Note_on_c, 0, 75, 0
1, 53736, Note_on_c, 0, 74, 78
1, 53745, Note_on_c, 1, 58, 0
1, 53748, Note_on_c, 0, 74, 0
1, 53748, Note_on_c, 0, 72, 78
1, 53757, Note_on_c, 1, 67, 0
1, 53760, Note_on_c, 0, 72, 0
1, 53760, Note_on_c, 0, 70, 78
1, 53760, Note_on_c, 1, 62, 78
1, 53760, Note_on_c, 1, 58, 64
1, 53783, Note_on_c, 0, 70, 0
1, 53784, Note_on_c, 0, 72, 78
1, 53796, Note_on_c, 0, 72, 0
1, 53796, Note_on_c, 0, 74, 78
1, 53808, Note_on_c, 0, 74, 0
1, 53808, Note_on_c, 0, 75, 78
1, 53820, Note_on_c, 0, 75, 0
1, 53820, Note_on_c, 0, 77, 78
1, 53832, Note_on_c, 0, 77, 0
1, 53832, Note_on_c, 0, 79, 78
1, 53844, Note_on_c, 0, 79, 0
1, 53844, Note_on_c, 0, 81, 78
1, 53849, Note_on_c, 1, 62, 0
1, 53849, Note_on_c, 1, 58, 0
1, 53856, Note_on_c, 0, 81, 0
1, 53856, Note_on_c, 0, 82, 78
1, 53856, Note_on_c, 1, 46, 78
1, 53856, Note_on_c, 1, 34, 78
1, 53901, Note_on_c, 0, 82, 0
1, 53901, Note_on_c, 1, 46, 0
1, 53901, Note_on_c, 1, 34, 0
1, 53904, Note_on_c, 0, 82, 78
1, 53904, Note_on_c, 0, 74, 78
1, 53904, Note_on_c, 1, 46, 78
1, 53904, Note_on_c, 1, 34, 78
1, 53949, Note_on_c, 0, 82, 0
1, 53949, Note_on_c, 0, 74, 0
1, 53949, Note_on_c, 1, 46, 0
1, 53949, Note_on_c, 1, 34, 0
1, 53952, Note_on_c, 0, 82, 78
1, 53952, Note_on_c, 0, 74, 78
1, 53952, Note_on_c, 1, 46, 78
1, 53952, Note_on_c, 1, 34, 78
1, 54041, Note_on_c, 0, 82, 0
1, 54041, Note_on_c, 0, 74, 0
1, 54041, Note_on_c, 1, 46, 0
1, 54041, Note_on_c, 1, 34, 0
1, 54120, Note_on_c, 0, 55, 78
1, 54132, Note_on_c, 0, 55, 0
1, 54132, Note_on_c, 0, 58, 78
1, 54144, Note_on_c, 0, 58, 0
1, 54144, Note_on_c, 0, 63, 78
1, 54144, Note_on_c, 1, 51, 78
1, 54144, Note_on_c, 1, 46, 78
1, 54144, Note_on_c, 1, 43, 78
1, 54144, Note_on_c, 1, 39, 78
1, 54189, Note_on_c, 1, 51, 0
1, 54189, Note_on_c, 1, 46, 0
1, 54189, Note_on_c, 1, 43, 0
1, 54189, Note_on_c, 1, 39, 0
1, 54211, Note_on_c, 0, 63, 0
1, 54216, Note_on_c, 0, 58, 78
1, 54228, Note_on_c, 0, 58, 0
1, 54228, Note_on_c, 0, 63, 78
1, 54240, Note_on_c, 0, 63, 0
1, 54240, Note_on_c, 0, 67, 78
1, 54240, Note_on_c, 1, 51, 78
1, 54240, Note_on_c, 1, 46, 78
1, 54240, Note_on_c, 1, 43, 78
1, 54240, Note_on_c, 1, 39, 78
1, 54285, Note_on_c, 1, 51, 0
1, 54285, Note_on_c, 1, 46, 0
1, 54285, Note_on_c, 1, 43, 0
1, 54285, Note_on_c, 1, 39, 0
1, 54307, Note_on_c, 0, 67, 0
1, 54312, Note_on_c, 0, 63, 78
1, 54324, Note_on_c, 0, 63, 0
1, 54324, Note_on_c, 0, 67, 78
1, 54336, Note_on_c, 0, 67, 0
1, 54336, Note_on_c, 0, 70, 78
1, 54336, Note_on_c, 1, 51, 78
1, 54336, Note_on_c, 1, 46, 78
1, 54336, Note_on_c, 1, 43, 78
1, 54336, Note_on_c, 1, 39, 78
1, 54356, Note_on_c, 0, 70, 0
1, 54381, Note_on_c, 1, 51, 0
1, 54381, Note_on_c, 1, 46, 0
1, 54381, Note_on_c, 1, 43, 0
1, 54381, Note_on_c, 1, 39, 0
1, 54480, Note_on_c, 0, 75, 64
1, 54514, Note_on_c, 0, 75, 0
1, 54516, Note_on_c, 0, 77, 64
1, 54522, Note_on_c, 0, 77, 0
1, 54522, Note_on_c, 0, 79, 64
1, 54528, Note_on_c, 0, 79, 0
1, 54528, Note_on_c, 0, 70, 64
1, 54528, Note_on_c, 1, 67, 64
1, 54528, Note_on_c, 1, 63, 64
1, 54548, Note_on_c, 0, 70, 0
1, 54573, Note_on_c, 1, 67, 0
1, 54573, Note_on_c, 1, 63, 0
1, 54576, Note_on_c, 0, 75, 64
1, 54610, Note_on_c, 0, 75, 0
1, 54612, Note_on_c, 0, 77, 64
1, 54618, Note_on_c, 0, 77, 0
1, 54618, Note_on_c, 0, 79, 64
1, 54624, Note_on_c, 0, 79, 0
1, 54624, Note_on_c, 0, 69, 64
1, 54624, Note_on_c, 1, 65, 64
1, 54624, Note_on_c, 1, 63, 64
1, 54669, Note_on_c, 0, 69, 0
1, 54669, Note_on_c, 1, 65, 0
1, 54669, Note_on_c, 1, 63, 0
1, 54672, Note_on_c, 0, 74, 64
1, 54687, Note_on_c, 0, 74, 0
1, 54708, Note_on_c, 0, 75, 64
1, 54714, Note_on_c, 0, 75, 0
1, 54714, Note_on_c, 0, 77, 64
1, 54720, Note_on_c, 0, 77, 0
1, 54720, Note_on_c, 0, 68, 64
1, 54720, Note_on_c, 1, 65, 64
1, 54720, Note_on_c, 1, 62, 64
1, 54768, Note_on_c, 1, 59, 64
1, 54813, Note_on_c, 1, 59, 0
1, 54816, Note_on_c, 1, 58, 64
1, 54853, Note_on_c, 0, 68, 0
1, 54853, Note_on_c, 1, 65, 0
1, 54853, Note_on_c, 1, 62, 0
1, 54861, Note_on_c, 1, 58, 0
1, 54864, Note_on_c, 0, 67, 64
1, 54864, Note_on_c, 1, 63, 64
1, 54864, Note_on_c, 1, 63, 64
1, 54909, Note_on_c, 0, 67, 0
1, 54909, Note_on_c, 1, 63, 0
1, 54909, Note_on_c, 1, 63, 0
1, 54912, Note_on_c, 0, 67, 64
1, 54912, Note_on_c, 1, 63, 64
1, 54912, Note_on_c, 1, 56, 64
1, 54912, Note_on_c, 1, 63, 64
1, 54912, Note_on_c, 1, 56, 64
1, 54946, Note_on_c, 0, 67, 0
1, 54948, Note_on_c, 0, 65, 64
1, 54960, Note_on_c, 0, 65, 0
1, 54960, Note_on_c, 0, 68, 64
1, 54994, Note_on_c, 0, 68, 0
1, 54996, Note_on_c, 0, 72, 64
1, 55001, Note_on_c, 1, 63, 0
1, 55001, Note_on_c, 1, 56, 0
1, 55001, Note_on_c, 1, 63, 0
1, 55001, Note_on_c, 1, 56, 0
1, 55008, Note_on_c, 0, 72, 0
1, 55008, Note_on_c, 0, 70, 64
1, 55008, Note_on_c, 1, 62, 64
1, 55008, Note_on_c, 1, 58, 64
1, 55008, Note_on_c, 1, 62, 64
1, 55008, Note_on_c, 1, 58, 64
1, 55053, Note_on_c, 0, 70, 0
1, 55053, Note_on_c, 1, 62, 0
1, 55053, Note_on_c, 1, 58, 0
1, 55053, Note_on_c, 1, 62, 0
1, 55053, Note_on_c, 1, 58, 0
1, 55056, Note_on_c, 0, 68, 64
1, 55056, Note_on_c, 0, 65, 64
1, 55056, Note_on_c, 1, 59, 64
1, 55056, Note_on_c, 1, 59, 64
1, 55101, Note_on_c, 0, 68, 0
1, 55101, Note_on_c, 0, 65, 0
1, 55101, Note_on_c, 1, 59, 0
1, 55101, Note_on_c, 1, 59, 0
1, 55104, Tempo, 1714285
1, 55104, Note_on_c, 0, 67, 64
1, 55104, Note_on_c, 0, 65, 64
1, 55104, Note_on_c, 1, 60, 64
1, 55104, Note_on_c, 1, 60, 64
1, 55112, Note_on_c, 0, 67, 0
1, 55112, Note_on_c, 0, 68, 64
1, 55120, Note_on_c, 0, 68, 0
1, 55120, Note_on_c, 0, 70, 64
1, 55128, Note_on_c, 0, 70, 0
1, 55128, Note_on_c, 0, 68, 64
1, 55149, Note_on_c, 0, 65, 0
1, 55151, Note_on_c, 0, 68, 0
1, 55152, Note_on_c, 0, 67, 64
1, 55152, Note_on_c, 0, 63, 64
1, 55172, Note_on_c, 0, 67, 0
1, 55193, Note_on_c, 1, 60, 0
1, 55193, Note_on_c, 1, 60, 0
1, 55197, Note_on_c, 0, 63, 0
1, 55248, Tempo, 731707
1, 55248, Note_on_c, 0, 75, 64
1, 55282, Note_on_c, 0, 75, 0
1, 55284, Note_on_c, 0, 77, 64
1, 55290, Note_on_c, 0, 77, 0
1, 55290, Note_on_c, 0, 79, 64
1, 55296, Note_on_c, 0, 79, 0
1, 55296, Note_on_c, 0, 70, 64
1, 55296, Note_on_c, 1, 67, 64
1, 55296, Note_on_c, 1, 63, 64
1, 55316, Note_on_c, 0, 70, 0
1, 55341, Note_on_c, 1, 67, 0
1, 55341, Note_on_c, 1, 63, 0
1, 55344, Note_on_c, 0, 75, 64
1, 55378, Note_on_c, 0, 75, 0
1, 55380, Note_on_c, 0, 77, 64
1, 55386, Note_on_c, 0, 77, 0
1, 55386, Note_on_c, 0, 79, 64
1, 55392, Note_on_c, 0, 79, 0
1, 55392, Note_on_c, 0, 69, 64
1, 55392, Note_on_c, 1, 65, 64
1, 55392, Note_on_c, 1, 63, 64
1, 55437, Note_on_c, 0, 69, 0
1, 55437, Note_on_c, 1, 65, 0
1, 55437, Note_on_c, 1, 63, 0
1, 55440, Note_on_c, 0, 74, 64
1, 55455, Note_on_c, 0, 74, 0
1, 55476, Note_on_c, 0, 75, 64
1, 55482, Note_on_c, 0, 75, 0
1, 55482, Note_on_c, 0, 77, 64
1, 55488, Note_on_c, 0, 77, 0
1, 55488, Note_on_c, 0, 68, 64
1, 55488, Note_on_c, 1, 65, 64
1, 55488, Note_on_c, 1, 62, 64
1, 55536, Note_on_c, 1, 59, 64
1, 55581, Note_on_c, 1, 59, 0
1, 55584, Note_on_c, 1, 58, 64
1, 55621, Note_on_c, 0, 68, 0
1, 55621, Note_on_c, 1, 65, 0
1, 55621, Note_on_c, 1, 62, 0
1, 55629, Note_on_c, 1, 58, 0
1, 55632, Note_on_c, 0, 67, 64
1, 55632, Note_on_c, 1, 63, 64
1, 55632, Note_on_c, 1, 63, 64
1, 55677, Note_on_c, 0, 67, 0
1, 55677, Note_on_c, 1, 63, 0
1, 55677, Note_on_c, 1, 63, 0
1, 55680, Note_on_c, 0, 72, 64
1, 55680, Note_on_c, 1, 63, 64
1, 55680, Note_on_c, 1, 56, 64
1, 55725, Note_on_c, 1, 63, 0
1, 55728, Note_on_c, 1, 64, 64
1, 55773, Note_on_c, 1, 64, 0
1, 55776, Note_on_c, 1, 65, 64
1, 55813, Note_on_c, 0, 72, 0
1, 55824, Note_on_c, 0, 77, 64
1, 55857, Note_on_c, 1, 56, 0
1, 55869, Note_on_c, 0, 77, 0
1, 55872, Note_on_c, 0, 75, 64
1, 55872, Note_on_c, 1, 58, 64
1, 55909, Note_on_c, 1, 65, 0
1, 55920, Note_on_c, 1, 65, 64
1, 55968, Note_on_c, 1, 68, 64
1, 56013, Note_on_c, 0, 75, 0
1, 56016, Note_on_c, 0, 74, 64
1, 56028, Note_on_c, 0, 74, 0
1, 56028, Note_on_c, 0, 75, 64
1, 56040, Note_on_c, 0, 75, 0
1, 56040, Note_on_c, 0, 77, 64
1, 56052, Note_on_c, 0, 77, 0
1, 56052, Note_on_c, 0, 79, 64
1, 56064, Note_on_c, 0, 79, 0
1, 56064, Note_on_c, 0, 80, 64
1, 56084, Note_on_c, 0, 80, 0
1, 56112, Note_on_c, 0, 80, 64
1, 56124, Note_on_c, 0, 80, 0
1, 56124, Note_on_c, 0, 79, 64
1, 56136, Note_on_c, 0, 79, 0
1, 56136, Note_on_c, 0, 77, 64
1, 56148, Note_on_c, 0, 77, 0
1, 56148, Note_on_c, 0, 75, 64
1, 56153, Note_on_c, 1, 58, 0
1, 56160, Note_on_c, 0, 75, 0
1, 56160, Note_on_c, 0, 74, 58
1, 56180, Note_on_c, 0, 74, 0
1, 56197, Note_on_c, 1, 68, 0
1, 56197, Note_on_c, 1, 65, 0
1, 56208, Note_on_c, 0, 77, 58
1, 56208, Note_on_c, 1, 62, 58
1, 56220, Note_on_c, 0, 77, 0
1, 56220, Note_on_c, 0, 79, 58
1, 56220, Note_on_c, 1, 62, 0
1, 56220, Note_on_c, 1, 63, 58
1, 56232, Note_on_c, 0, 79, 0
1, 56232, Note_on_c, 0, 80, 58
1, 56232, Note_on_c, 1, 63, 0
1, 56232, Note_on_c, 1, 65, 58
1, 56244, Note_on_c, 0, 80, 0
1, 56244, Note_on_c, 0, 82, 58
1, 56244, Note_on_c, 1, 65, 0
1, 56244, Note_on_c, 1, 67, 58
1, 56256, Note_on_c, 0, 82, 0
1, 56256, Note_on_c, 0, 84, 58
1, 56256, Note_on_c, 1, 67, 0
1, 56256, Note_on_c, 1, 68, 58
1, 56276, Note_on_c, 0, 84, 0
1, 56301, Note_on_c, 1, 68, 0
1, 56304, Note_on_c, 0, 84, 58
1, 56304, Note_on_c, 1, 68, 58
1, 56316, Note_on_c, 0, 84, 0
1, 56316, Note_on_c, 0, 82, 58
1, 56316, Note_on_c, 1, 68, 0
1, 56316, Note_on_c, 1, 67, 58
1, 56328, Note_on_c, 0, 82, 0
1, 56328, Note_on_c, 0, 80, 58
1, 56328, Note_on_c, 1, 67, 0
1, 56328, Note_on_c, 1, 65, 58
1, 56340, Note_on_c, 0, 80, 0
1, 56340, Note_on_c, 0, 79, 58
1, 56340, Note_on_c, 1, 65, 0
1, 56340, Note_on_c, 1, 63, 58
1, 56352, Note_on_c, 0, 79, 0
1, 56352, Note_on_c, 0, 77, 58
1, 56352, Note_on_c, 1, 63, 0
1, 56352, Note_on_c, 1, 62, 58
1, 56372, Note_on_c, 0, 77, 0
1, 56397, Note_on_c, 1, 62, 0
1, 56400, Note_on_c, 0, 77, 58
1, 56400, Note_on_c, 1, 62, 58
1, 56412, Note_on_c, 0, 77, 0
1, 56412, Note_on_c, 0, 79, 58
1, 56412, Note_on_c, 1, 62, 0
1, 56412, Note_on_c, 1, 63, 58
1, 56424, Note_on_c, 0, 79, 0
1, 56424, Note_on_c, 0, 80, 58
1, 56424, Note_on_c, 1, 63, 0
1, 56424, Note_on_c, 1, 65, 58
1, 56436, Note_on_c, 0, 80, 0
1, 56436, Note_on_c, 0, 82, 58
1, 56436, Note_on_c, 1, 65, 0
1, 56436, Note_on_c, 1, 67, 58
1, 56448, Note_on_c, 0, 82, 0
1, 56448, Note_on_c, 0, 84, 58
1, 56448, Note_on_c, 1, 67, 0
1, 56448, Note_on_c, 1, 68, 58
1, 56493, Note_on_c, 0, 84, 0
1, 56493, Note_on_c, 1, 68, 0
1, 56832, Note_on_c, 0, 79, 85
1, 56832, Note_on_c, 1, 51, 64
1, 56832, Note_on_c, 1, 46, 64
1, 56832, Note_on_c, 1, 43, 64
1, 56832, Note_on_c, 1, 39, 64
1, 56844, Note_on_c, 0, 79, 0
1, 56844, Note_on_c, 0, 77, 85
1, 56856, Note_on_c, 0, 77, 0
1, 56856, Note_on_c, 0, 75, 85
1, 56868, Note_on_c, 0, 75, 0
1, 56868, Note_on_c, 0, 74, 85
1, 56880, Note_on_c, 0, 74, 0
1, 56880, Note_on_c, 0, 75, 85
1, 56892, Note_on_c, 0, 75, 0
1, 56892, Note_on_c, 0, 74, 85
1, 56904, Note_on_c, 0, 74, 0
1, 56904, Note_on_c, 0, 72, 85
1, 56916, Note_on_c, 0, 72, 0
1, 56916, Note_on_c, 0, 70, 85
1, 56921, Note_on_c, 1, 51, 0
1, 56921, Note_on_c, 1, 46, 0
1, 56921, Note_on_c, 1, 43, 0
1, 56921, Note_on_c, 1, 39, 0
1, 56928, Note_on_c, 0, 70, 0
1, 56928, Note_on_c, 0, 68, 85
1, 56940, Note_on_c, 0, 68, 0
1, 56940, Note_on_c, 0, 67, 85
1, 56952, Note_on_c, 0, 67, 0
1, 56952, Note_on_c, 0, 65, 85
1, 56964, Note_on_c, 0, 65, 0
1, 56964, Note_on_c, 0, 63, 85
1, 56976, Note_on_c, 0, 63, 0
1, 56976, Note_on_c, 0, 62, 85
1, 56988, Note_on_c, 0, 62, 0
1, 56988, Note_on_c, 0, 63, 85
1, 57000, Note_on_c, 0, 63, 0
1, 57000, Note_on_c, 0, 62, 85
1, 57012, Note_on_c, 0, 62, 0
1, 57012, Note_on_c, 0, 63, 85
1, 57024, Note_on_c, 0, 63, 0
1, 57024, Note_on_c, 0, 79, 85
1, 57024, Note_on_c, 1, 60, 64
1, 57024, Note_on_c, 1, 55, 64
1, 57024, Note_on_c, 1, 51, 64
1, 57024, Note_on_c, 1, 48, 64
1, 57036, Note_on_c, 0, 79, 0
1, 57036, Note_on_c, 0, 77, 85
1, 57048, Note_on_c, 0, 77, 0
1, 57048, Note_on_c, 0, 75, 85
1, 57060, Note_on_c, 0, 75, 0
1, 57060, Note_on_c, 0, 74, 85
1, 57072, Note_on_c, 0, 74, 0
1, 57072, Note_on_c, 0, 75, 85
1, 57084, Note_on_c, 0, 75, 0
1, 57084, Note_on_c, 0, 74, 85
1, 57096, Note_on_c, 0, 74, 0
1, 57096, Note_on_c, 0, 72, 85
1, 57108, Note_on_c, 0, 72, 0
1, 57108, Note_on_c, 0, 70, 85
1, 57113, Note_on_c, 1, 60, 0
1, 57113, Note_on_c, 1, 55, 0
1, 57113, Note_on_c, 1, 51, 0
1, 57113, Note_on_c, 1, 48, 0
1, 57120, Note_on_c, 0, 70, 0
1, 57120, Note_on_c, 0, 68, 85
1, 57132, Note_on_c, 0, 68, 0
1, 57132, Note_on_c, 0, 67, 85
1, 57144, Note_on_c, 0, 67, 0
1, 57144, Note_on_c, 0, 65, 85
1, 57156, Note_on_c, 0, 65, 0
1, 57156, Note_on_c, 0, 63, 85
1, 57168, Note_on_c, 0, 63, 0
1, 57168, Note_on_c, 0, 62, 85
1, 57180, Note_on_c, 0, 62, 0
1, 57180, Note_on_c, 0, 63, 85
1, 57192, Note_on_c, 0, 63, 0
1, 57192, Note_on_c, 0, 62, 85
1, 57204, Note_on_c, 0, 62, 0
1, 57204, Note_on_c, 0, 63, 85
1, 57216, Note_on_c, 0, 63, 0
1, 57216, Note_on_c, 0, 72, 85
1, 57216, Note_on_c, 1, 53, 64
1, 57216, Note_on_c, 1, 48, 64
1, 57216, Note_on_c, 1, 44, 64
1, 57228, Note_on_c, 0, 72, 0
1, 57228, Note_on_c, 0, 70, 85
1, 57240, Note_on_c, 0, 70, 0
1, 57240, Note_on_c, 0, 68, 85
1, 57252, Note_on_c, 0, 68, 0
1, 57252, Note_on_c, 0, 67, 85
1, 57264, Note_on_c, 0, 67, 0
1, 57264, Note_on_c, 0, 68, 85
1, 57276, Note_on_c, 0, 68, 0
1, 57276, Note_on_c, 0, 67, 85
1, 57288, Note_on_c, 0, 67, 0
1, 57288, Note_on_c, 0, 65, 85
1, 57300, Note_on_c, 0, 65, 0
1, 57300, Note_on_c, 0, 64, 85
1, 57305, Note_on_c, 1, 53, 0
1, 57305, Note_on_c, 1, 48, 0
1, 57305, Note_on_c, 1, 44, 0
1, 57312, Note_on_c, 0, 64, 0
1, 57312, Note_on_c, 0, 65, 85
1, 57324, Note_on_c, 0, 65, 0
1, 57324, Note_on_c, 0, 67, 85
1, 57336, Note_on_c, 0, 67, 0
1, 57336, Note_on_c, 0, 68, 85
1, 57348, Note_on_c, 0, 68, 0
1, 57348, Note_on_c, 0, 67, 85
1, 57360, Note_on_c, 0, 67, 0
1, 57360, Note_on_c, 0, 65, 85
1, 57372, Note_on_c, 0, 65, 0
1, 57372, Note_on_c, 0, 63, 85
1, 57384, Note_on_c, 0, 63, 0
1, 57384, Note_on_c, 0, 62, 85
1, 57396, Note_on_c, 0, 62, 0
1, 57396, Note_on_c, 0, 60, 85
1, 57408, Note_on_c, 0, 60, 0
1, 57408, Note_on_c, 0, 58, 85
1, 57408, Note_on_c, 1, 55, 64
1, 57408, Note_on_c, 1, 51, 64
1, 57408, Note_on_c, 1, 46, 64
1, 57431, Note_on_c, 0, 58, 0
1, 57432, Note_on_c, 0, 75, 85
1, 57455, Note_on_c, 0, 75, 0
1, 57456, Note_on_c, 0, 75, 85
1, 57479, Note_on_c, 0, 75, 0
1, 57480, Note_on_c, 0, 75, 85
1, 57497, Note_on_c, 1, 55, 0
1, 57497, Note_on_c, 1, 51, 0
1, 57497, Note_on_c, 1, 46, 0
1, 57503, Note_on_c, 0, 75, 0
1, 57504, Note_on_c, 0, 75, 85
1, 57516, Note_on_c, 0, 75, 0
1, 57516, Note_on_c, 0, 77, 85
1, 57528, Note_on_c, 0, 77, 0
1, 57528, Note_on_c, 0, 79, 85
1, 57540, Note_on_c, 0, 79, 0
1, 57540, Note_on_c, 0, 80, 85
1, 57552, Note_on_c, 0, 80, 0
1, 57552, Note_on_c, 0, 82, 85
1, 57575, Note_on_c, 0, 82, 0
1, 57600, Note_on_c, 0, 75, 85
1, 57600, Note_on_c, 1, 67, 85
1, 57600, Note_on_c, 1, 58, 64
1, 57609, Note_on_c, 0, 75, 0
1, 57609, Note_on_c, 0, 74, 85
1, 57609, Note_on_c, 1, 67, 0
1, 57609, Note_on_c, 1, 65, 85
1, 57618, Note_on_c, 0, 74, 0
1, 57618, Note_on_c, 0, 75, 85
1, 57618, Note_on_c, 1, 65, 0
1, 57618, Note_on_c, 1, 67, 85
1, 57627, Note_on_c, 0, 75, 0
1, 57627, Note_on_c, 0, 74, 85
1, 57627, Note_on_c, 1, 67, 0
1, 57627, Note_on_c, 1, 65, 85
1, 57636, Note_on_c, 0, 74, 0
1, 57636, Note_on_c, 0, 75, 85
1, 57636, Note_on_c, 1, 65, 0
1, 57636, Note_on_c, 1, 67, 85
1, 57645, Note_on_c, 0, 75, 0
1, 57645, Note_on_c, 0, 74, 85
1, 57645, Note_on_c, 1, 67, 0
1, 57645, Note_on_c, 1, 65, 85
1, 57654, Note_on_c, 0, 74, 0
1, 57654, Note_on_c, 0, 75, 85
1, 57654, Note_on_c, 1, 65, 0
1, 57654, Note_on_c, 1, 67, 85
1, 57663, Note_on_c, 0, 75, 0
1, 57663, Note_on_c, 0, 74, 85
1, 57663, Note_on_c, 1, 67, 0
1, 57663, Note_on_c, 1, 65, 85
1, 57672, Note_on_c, 0, 74, 0
1, 57672, Note_on_c, 0, 75, 85
1, 57672, Note_on_c, 1, 65, 0
1, 57672, Note_on_c, 1, 67, 85
1, 57681, Note_on_c, 0, 75, 0
1, 57681, Note_on_c, 0, 74, 85
1, 57681, Note_on_c, 1, 67, 0
1, 57681, Note_on_c, 1, 65, 85
1, 57690, Note_on_c, 0, 74, 0
1, 57690, Note_on_c, 0, 75, 85
1, 57690, Note_on_c, 1, 65, 0
1, 57690, Note_on_c, 1, 67, 85
1, 57699, Note_on_c, 0, 75, 0
1, 57699, Note_on_c, 0, 74, 85
1, 57699, Note_on_c, 1, 67, 0
1, 57699, Note_on_c, 1, 65, 85
1, 57708, Note_on_c, 0, 74, 0
1, 57708, Note_on_c, 0, 75, 85
1, 57708, Note_on_c, 1, 65, 0
1, 57708, Note_on_c, 1, 67, 85
1, 57717, Note_on_c, 0, 75, 0
1, 57717, Note_on_c, 0, 74, 85
1, 57717, Note_on_c, 1, 67, 0
1, 57717, Note_on_c, 1, 65, 85
1, 57726, Note_on_c, 0, 74, 0
1, 57726, Note_on_c, 0, 75, 85
1, 57726, Note_on_c, 1, 65, 0
1, 57726, Note_on_c, 1, 67, 85
1, 57735, Note_on_c, 0, 75, 0
1, 57735, Note_on_c, 0, 74, 85
1, 57735, Note_on_c, 1, 67, 0
1, 57735, Note_on_c, 1, 65, 85
1, 57744, Note_on_c, 0, 74, 0
1, 57744, Note_on_c, 0, 75, 85
1, 57744, Note_on_c, 1, 65, 0
1, 57744, Note_on_c, 1, 67, 85
1, 57752, Note_on_c, 0, 75, 0
1, 57752, Note_on_c, 0, 74, 85
1, 57752, Note_on_c, 1, 67, 0
1, 57752, Note_on_c, 1, 65, 85
1, 57760, Note_on_c, 0, 74, 0
1, 57760, Note_on_c, 0, 75, 85
1, 57760, Note_on_c, 1, 65, 0
1, 57760, Note_on_c, 1, 67, 85
1, 57768, Note_on_c, 0, 75, 0
1, 57768, Note_on_c, 0, 74, 85
1, 57768, Note_on_c, 1, 67, 0
1, 57768, Note_on_c, 1, 65, 85
1, 57776, Note_on_c, 0, 74, 0
1, 57776, Note_on_c, 0, 72, 85
1, 57776, Note_on_c, 1, 65, 0
1, 57776, Note_on_c, 1, 63, 85
1, 57777, Note_on_c, 1, 58, 0
1, 57784, Note_on_c, 0, 72, 0
1, 57784, Note_on_c, 0, 74, 85
1, 57784, Note_on_c, 1, 63, 0
1, 57784, Note_on_c, 1, 65, 85
1, 57792, Note_on_c, 0, 74, 0
1, 57792, Note_on_c, 0, 75, 85
1, 57792, Note_on_c, 1, 65, 0
1, 57792, Note_on_c, 1, 67, 85
1, 57792, Note_on_c, 1, 63, 85
1, 57837, Note_on_c, 0, 75, 0
1, 57837, Note_on_c, 1, 67, 0
1, 57837, Note_on_c, 1, 63, 0
1, 57840, Note_on_c, 0, 70, 85
1, 57840, Note_on_c, 0, 67, 85
1, 57840, Note_on_c, 1, 63, 85
1, 57840, Note_on_c, 1, 58, 85
1, 57840, Note_on_c, 1, 55, 85
1, 57860, Note_on_c, 0, 70, 0
1, 57860, Note_on_c, 0, 67, 0
1, 57860, Note_on_c, 1, 63, 0
1, 57860, Note_on_c, 1, 58, 0
1, 57860, Note_on_c, 1, 55, 0
1, 57888, Note_on_c, 0, 72, 85
1, 57888, Note_on_c, 0, 68, 85
1, 57888, Note_on_c, 1, 63, 85
1, 57888, Note_on_c, 1, 60, 85
1, 57888, Note_on_c, 1, 56, 85
1, 57908, Note_on_c, 0, 72, 0
1, 57908, Note_on_c, 0, 68, 0
1, 57908, Note_on_c, 1, 63, 0
1, 57908, Note_on_c, 1, 60, 0
1, 57908, Note_on_c, 1, 56, 0
1, 57936, Note_on_c, 0, 70, 85
1, 57936, Note_on_c, 1, 62, 85
1, 57948, Note_on_c, 0, 70, 0
1, 57948, Note_on_c, 0, 68, 85
1, 57960, Note_on_c, 0, 68, 0
1, 57960, Note_on_c, 0, 67, 85
1, 57972, Note_on_c, 0, 67, 0
1, 57972, Note_on_c, 0, 68, 85
1, 57981, Note_on_c, 1, 62, 0
1, 57984, Note_on_c, 0, 68, 0
1, 57984, Note_on_c, 0, 67, 85
1, 57984, Note_on_c, 1, 63, 85
1, 58029, Note_on_c, 0, 67, 0
1, 58029, Note_on_c, 1, 63, 0
1, 58032, Note_on_c, 0, 82, 85
1, 58032, Note_on_c, 0, 79, 85
1, 58032, Note_on_c, 0, 75, 85
1, 58032, Note_on_c, 1, 63, 85
1, 58032, Note_on_c, 1, 58, 85
1, 58032, Note_on_c, 1, 55, 85
1, 58052, Note_on_c, 0, 82, 0
1, 58052, Note_on_c, 0, 79, 0
1, 58052, Note_on_c, 0, 75, 0
1, 58052, Note_on_c, 1, 63, 0
1, 58052, Note_on_c, 1, 58, 0
1, 58052, Note_on_c, 1, 55, 0
1, 58080, Note_on_c, 0, 80, 85
1, 58080, Note_on_c, 0, 77, 85
1, 58080, Note_on_c, 0, 72, 85
1, 58080, Note_on_c, 1, 63, 85
1, 58080, Note_on_c, 1, 60, 85
1, 58080, Note_on_c, 1, 56, 85
1, 58100, Note_on_c, 0, 80, 0
1, 58100, Note_on_c, 0, 77, 0
1, 58100, Note_on_c, 0, 72, 0
1, 58100, Note_on_c, 1, 63, 0
1, 58100, Note_on_c, 1, 60, 0
1, 58100, Note_on_c, 1, 56, 0
1, 58128, Note_on_c, 0, 74, 85
1, 58128, Note_on_c, 0, 70, 85
1, 58128, Note_on_c, 0, 68, 85
1, 58128, Note_on_c, 0, 65, 85
1, 58128, Note_on_c, 1, 62, 85
1, 58128, Note_on_c, 1, 58, 85
1, 58148, Note_on_c, 0, 74, 0
1, 58148, Note_on_c, 0, 70, 0
1, 58148, Note_on_c, 0, 68, 0
1, 58148, Note_on_c, 0, 65, 0
1, 58148, Note_on_c, 1, 62, 0
1, 58148, Note_on_c, 1, 58, 0
1, 58176, Note_on_c, 0, 75, 85
1, 58176, Note_on_c, 0, 70, 85
1, 58176, Note_on_c, 0, 67, 85
1, 58176, Note_on_c, 1, 63, 85
1, 58176, Note_on_c, 1, 58, 85
1, 58176, Note_on_c, 1, 55, 85
1, 58176, Note_on_c, 1, 51, 85
1, 58215, Note_on_c, 0, 75, 0
1, 58215, Note_on_c, 0, 70, 0
1, 58215, Note_on_c, 0, 67, 0
1, 58215, Note_on_c, 1, 63, 0
1, 58215, Note_on_c, 1, 58, 0
1, 58215, Note_on_c, 1, 55, 0
1, 58215, Note_on_c, 1, 51, 0
1, 58225, End_track
0, 0, End_of_file