0, 0, Header, 0, 1, 384
1, 0, Start_track
1, 0, Tempo, 441176
1, 576, Note_on_c, 0, 62, 100
1, 704, Note_on_c, 0, 62, 0
1, 768, Note_on_c, 0, 67, 100
1, 768, Note_on_c, 1, 59, 100
1, 768, Note_on_c, 1, 55, 100
1, 896, Note_on_c, 0, 67, 0
1, 960, Note_on_c, 0, 71, 100
1, 1024, Note_on_c, 1, 59, 0
1, 1024, Note_on_c, 1, 55, 0
1, 1088, Note_on_c, 0, 71, 0
1, 1152, Note_on_c, 0, 74, 100
1, 1280, Note_on_c, 0, 74, 0
1, 1344, Note_on_c, 0, 67, 100
1, 1344, Note_on_c, 1, 62, 100
1, 1344, Note_on_c, 1, 59, 100
1, 1472, Note_on_c, 0, 67, 0
1, 1472, Note_on_c, 1, 62, 0
1, 1472, Note_on_c, 1, 59, 0
1, 1536, Note_on_c, 0, 67, 100
1, 1536, Note_on_c, 1, 60, 100
1, 1536, Note_on_c, 1, 57, 100
1, 1792, Note_on_c, 0, 67, 0
1, 1792, Note_on_c, 1, 60, 0
1, 1792, Note_on_c, 1, 57, 0
1, 1920, Note_on_c, 0, 66, 100
1, 2048, Note_on_c, 0, 66, 0
1, 2112, Note_on_c, 0, 62, 100
1, 2240, Note_on_c, 0, 62, 0
1, 2304, Note_on_c, 0, 69, 100
1, 2432, Note_on_c, 0, 69, 0
1, 2496, Note_on_c, 0, 72, 100
1, 2624, Note_on_c, 0, 72, 0
1, 2688, Note_on_c, 0, 76, 100
1, 2816, Note_on_c, 0, 76, 0
1, 2880, Note_on_c, 0, 72, 100
1, 2880, Note_on_c, 0, 69, 100
1, 2880, Note_on_c, 1, 54, 100
1, 3008, Note_on_c, 0, 72, 0
1, 3008, Note_on_c, 0, 69, 0
1, 3008, Note_on_c, 1, 54, 0
1, 3072, Note_on_c, 0, 72, 100
1, 3072, Note_on_c, 0, 69, 100
1, 3072, Note_on_c, 1, 55, 100
1, 3328, Note_on_c, 0, 72, 0
1, 3328, Note_on_c, 0, 69, 0
1, 3328, Note_on_c, 1, 55, 0
1, 3456, Note_on_c, 0, 71, 100
1, 3456, Note_on_c, 0, 67, 100
1, 3456, Note_on_c, 1, 43, 100
1, 3584, Note_on_c, 0, 71, 0
1, 3584, Note_on_c, 0, 67, 0
1, 3584, Note_on_c, 1, 43, 0
1, 3648, Note_on_c, 0, 71, 100
1, 3648, Note_on_c, 1, 66, 100
1, 3776, Note_on_c, 0, 71, 0
1, 3776, Note_on_c, 1, 66, 0
1, 3840, Note_on_c, 0, 83, 100
1, 3840, Note_on_c, 1, 67, 100
1, 3968, Note_on_c, 0, 83, 0
1, 4032, Note_on_c, 0, 79, 100
1, 4096, Note_on_c, 1, 67, 0
1, 4160, Note_on_c, 0, 79, 0
1, 4224, Note_on_c, 0, 75, 100
1, 4352, Note_on_c, 0, 75, 0
1, 4416, Note_on_c, 0, 76, 100
1, 4416, Note_on_c, 1, 67, 100
1, 4544, Note_on_c, 0, 76, 0
1, 4544, Note_on_c, 1, 67, 0
1, 4608, Note_on_c, 0, 81, 100
1, 4608, Note_on_c, 1, 66, 100
1, 4736, Note_on_c, 0, 81, 0
1, 4800, Note_on_c, 0, 78, 100
1, 4864, Note_on_c, 1, 66, 0
1, 4928, Note_on_c, 0, 78, 0
1, 4992, Note_on_c, 0, 73, 100
1, 5120, Note_on_c, 0, 73, 0
1, 5184, Note_on_c, 0, 74, 100
1, 5184, Note_on_c, 1, 66, 100
1, 5312, Note_on_c, 0, 74, 0
1, 5312, Note_on_c, 1, 66, 0
1, 5376, Note_on_c, 0, 76, 100
1, 5376, Note_on_c, 1, 67, 100
1, 5504, Note_on_c, 0, 76, 0
1, 5568, Note_on_c, 0, 79, 100
1, 5632, Note_on_c, 1, 67, 0
1, 5760, Note_on_c, 1, 69, 100
1, 5824, Note_on_c, 0, 79, 0
1, 5952, Note_on_c, 0, 73, 100
1, 6016, Note_on_c, 1, 69, 0
1, 6080, Note_on_c, 0, 73, 0
1, 6144, Note_on_c, 0, 74, 100
1, 6144, Note_on_c, 1, 62, 100
1, 6176, Note_on_c, 0, 74, 0
1, 6192, Note_on_c, 0, 73, 100
1, 6224, Note_on_c, 0, 73, 0
1, 6240, Note_on_c, 0, 74, 100
1, 6400, Note_on_c, 1, 62, 0
1, 6496, Note_on_c, 0, 74, 0
1, 6528, Note_on_c, 1, 50, 100
1, 6656, Note_on_c, 1, 50, 0
1, 6720, Note_on_c, 0, 62, 100
1, 6848, Note_on_c, 0, 62, 0
1, 6912, Note_on_c, 0, 67, 100
1, 6912, Note_on_c, 1, 59, 100
1, 6912, Note_on_c, 1, 55, 100
1, 7040, Note_on_c, 0, 67, 0
1, 7104, Note_on_c, 0, 71, 100
1, 7168, Note_on_c, 1, 59, 0
1, 7168, Note_on_c, 1, 55, 0
1, 7232, Note_on_c, 0, 71, 0
1, 7296, Note_on_c, 0, 74, 100
1, 7424, Note_on_c, 0, 74, 0
1, 7488, Note_on_c, 0, 67, 100
1, 7488, Note_on_c, 1, 62, 100
1, 7488, Note_on_c, 1, 59, 100
1, 7616, Note_on_c, 0, 67, 0
1, 7616, Note_on_c, 1, 62, 0
1, 7616, Note_on_c, 1, 59, 0
1, 7680, Note_on_c, 0, 67, 100
1, 7680, Note_on_c, 1, 60, 100
1, 7680, Note_on_c, 1, 57, 100
1, 7936, Note_on_c, 0, 67, 0
1, 7936, Note_on_c, 1, 60, 0
1, 7936, Note_on_c, 1, 57, 0
1, 8064, Note_on_c, 0, 66, 100
1, 8192, Note_on_c, 0, 66, 0
1, 8256, Note_on_c, 0, 62, 100
1, 8384, Note_on_c, 0, 62, 0
1, 8448, Note_on_c, 0, 69, 100
1, 8576, Note_on_c, 0, 69, 0
1, 8640, Note_on_c, 0, 72, 100
1, 8768, Note_on_c, 0, 72, 0
1, 8832, Note_on_c, 0, 76, 100
1, 8960, Note_on_c, 0, 76, 0
1, 9024, Note_on_c, 0, 72, 100
1, 9024, Note_on_c, 0, 69, 100
1, 9024, Note_on_c, 1, 54, 100
1, 9152, Note_on_c, 0, 72, 0
1, 9152, Note_on_c, 0, 69, 0
1, 9152, Note_on_c, 1, 54, 0
1, 9216, Note_on_c, 0, 72, 100
1, 9216, Note_on_c, 0, 69, 100
1, 9216, Note_on_c, 1, 55, 100
1, 9472, Note_on_c, 0, 72, 0
1, 9472, Note_on_c, 0, 69, 0
1, 9472, Note_on_c, 1, 55, 0
1, 9600, Note_on_c, 0, 71, 100
1, 9600, Note_on_c, 0, 67, 100
1, 9600, Note_on_c, 1, 43, 100
1, 9728, Note_on_c, 0, 71, 0
1, 9728, Note_on_c, 0, 67, 0
1, 9728, Note_on_c, 1, 43, 0
1, 9792, Note_on_c, 0, 71, 100
1, 9792, Note_on_c, 1, 66, 100
1, 9920, Note_on_c, 0, 71, 0
1, 9920, Note_on_c, 1, 66, 0
1, 9984, Note_on_c, 0, 83, 100
1, 9984, Note_on_c, 1, 67, 100
1, 10112, Note_on_c, 0, 83, 0
1, 10176, Note_on_c, 0, 79, 100
1, 10240, Note_on_c, 1, 67, 0
1, 10304, Note_on_c, 0, 79, 0
1, 10368, Note_on_c, 0, 75, 100
1, 10496, Note_on_c, 0, 75, 0
1, 10560, Note_on_c, 0, 76, 100
1, 10560, Note_on_c, 1, 67, 100
1, 10688, Note_on_c, 0, 76, 0
1, 10688, Note_on_c, 1, 67, 0
1, 10752, Note_on_c, 0, 81, 100
1, 10752, Note_on_c, 1, 66, 100
1, 10880, Note_on_c, 0, 81, 0
1, 10944, Note_on_c, 0, 78, 100
1, 11008, Note_on_c, 1, 66, 0
1, 11072, Note_on_c, 0, 78, 0
1, 11136, Note_on_c, 0, 73, 100
1, 11264, Note_on_c, 0, 73, 0
1, 11328, Note_on_c, 0, 74, 100
1, 11328, Note_on_c, 1, 66, 100
1, 11456, Note_on_c, 0, 74, 0
1, 11456, Note_on_c, 1, 66, 0
1, 11520, Note_on_c, 0, 76, 100
1, 11520, Note_on_c, 1, 67, 100
1, 11648, Note_on_c, 0, 76, 0
1, 11712, Note_on_c, 0, 79, 100
1, 11776, Note_on_c, 1, 67, 0
1, 11904, Note_on_c, 1, 69, 100
1, 11968, Note_on_c, 0, 79, 0
1, 12096, Note_on_c, 0, 73, 100
1, 12160, Note_on_c, 1, 69, 0
1, 12224, Note_on_c, 0, 73, 0
1, 12288, Note_on_c, 0, 74, 100
1, 12288, Note_on_c, 1, 62, 100
1, 12320, Note_on_c, 0, 74, 0
1, 12336, Note_on_c, 0, 73, 100
1, 12368, Note_on_c, 0, 73, 0
1, 12384, Note_on_c, 0, 74, 100
1, 12544, Note_on_c, 1, 62, 0
1, 12640, Note_on_c, 0, 74, 0
1, 12672, Note_on_c, 1, 50, 100
1, 12800, Note_on_c, 1, 50, 0
1, 12864, Note_on_c, 0, 62, 100
1, 12992, Note_on_c, 0, 62, 0
1, 13056, Note_on_c, 0, 74, 100
1, 13184, Note_on_c, 0, 74, 0
1, 13248, Note_on_c, 0, 71, 100
1, 13376, Note_on_c, 0, 71, 0
1, 13440, Note_on_c, 0, 67, 100
1, 13568, Note_on_c, 0, 67, 0
1, 13632, Note_on_c, 0, 64, 100
1, 13760, Note_on_c, 0, 64, 0
1, 13824, Note_on_c, 0, 62, 100
1, 14016, Note_on_c, 1, 56, 100
1, 14080, Note_on_c, 0, 62, 0
1, 14144, Note_on_c, 1, 56, 0
1, 14208, Note_on_c, 0, 61, 100
1, 14208, Note_on_c, 1, 57, 100
1, 14336, Note_on_c, 0, 61, 0
1, 14336, Note_on_c, 1, 57, 0
1, 14400, Note_on_c, 0, 60, 100
1, 14400, Note_on_c, 1, 45, 100
1, 14528, Note_on_c, 0, 60, 0
1, 14528, Note_on_c, 1, 45, 0
1, 14592, Note_on_c, 0, 72, 100
1, 14720, Note_on_c, 0, 72, 0
1, 14784, Note_on_c, 0, 69, 100
1, 14912, Note_on_c, 0, 69, 0
1, 14976, Note_on_c, 0, 66, 100
1, 15104, Note_on_c, 0, 66, 0
1, 15168, Note_on_c, 0, 62, 100
1, 15296, Note_on_c, 0, 62, 0
1, 15360, Note_on_c, 0, 60, 100
1, 15552, Note_on_c, 1, 54, 100
1, 15616, Note_on_c, 0, 60, 0
1, 15680, Note_on_c, 1, 54, 0
1, 15744, Note_on_c, 0, 59, 100
1, 15744, Note_on_c, 1, 55, 100
1, 15872, Note_on_c, 0, 59, 0
1, 15872, Note_on_c, 1, 55, 0
1, 15936, Note_on_c, 0, 62, 100
1, 15936, Note_on_c, 1, 47, 100
1, 16064, Note_on_c, 0, 62, 0
1, 16064, Note_on_c, 1, 47, 0
1, 16128, Note_on_c, 0, 64, 100
1, 16128, Note_on_c, 1, 48, 100
1, 16256, Note_on_c, 0, 64, 0
1, 16320, Note_on_c, 0, 68, 100
1, 16384, Note_on_c, 1, 48, 0
1, 16448, Note_on_c, 0, 68, 0
1, 16512, Note_on_c, 0, 69, 100
1, 16640, Note_on_c, 0, 69, 0
1, 16704, Note_on_c, 0, 67, 100
1, 16704, Note_on_c, 1, 61, 100
1, 16832, Note_on_c, 0, 67, 0
1, 16832, Note_on_c, 1, 61, 0
1, 16896, Note_on_c, 0, 66, 100
1, 16896, Note_on_c, 1, 62, 100
1, 17024, Note_on_c, 0, 66, 0
1, 17088, Note_on_c, 0, 70, 100
1, 17152, Note_on_c, 1, 62, 0
1, 17216, Note_on_c, 0, 70, 0
1, 17280, Note_on_c, 0, 71, 100
1, 17408, Note_on_c, 0, 71, 0
1, 17472, Note_on_c, 0, 69, 100
1, 17472, Note_on_c, 1, 63, 100
1, 17600, Note_on_c, 0, 69, 0
1, 17600, Note_on_c, 1, 63, 0
1, 17664, Note_on_c, 0, 67, 100
1, 17664, Note_on_c, 1, 64, 100
1, 17792, Note_on_c, 0, 67, 0
1, 17792, Note_on_c, 1, 64, 0
1, 17856, Note_on_c, 0, 74, 100
1, 17856, Note_on_c, 1, 66, 100
1, 17984, Note_on_c, 0, 74, 0
1, 17984, Note_on_c, 1, 66, 0
1, 18048, Note_on_c, 0, 72, 100
1, 18048, Note_on_c, 1, 67, 100
1, 18176, Note_on_c, 0, 72, 0
1, 18240, Note_on_c, 0, 71, 100
1, 18240, Note_on_c, 1, 61, 100
1, 18368, Note_on_c, 0, 71, 0
1, 18368, Note_on_c, 1, 61, 0
1, 18432, Note_on_c, 0, 71, 100
1, 18432, Note_on_c, 1, 62, 100
1, 18560, Note_on_c, 1, 67, 0
1, 18688, Note_on_c, 0, 71, 0
1, 18688, Note_on_c, 1, 62, 0
1, 18816, Note_on_c, 0, 69, 100
1, 18816, Note_on_c, 1, 66, 100
1, 18816, Note_on_c, 1, 62, 100
1, 18944, Note_on_c, 0, 69, 0
1, 18944, Note_on_c, 1, 66, 0
1, 18944, Note_on_c, 1, 62, 0
1, 19008, Note_on_c, 0, 62, 100
1, 19136, Note_on_c, 0, 62, 0
1, 19200, Note_on_c, 0, 67, 100
1, 19200, Note_on_c, 1, 59, 100
1, 19200, Note_on_c, 1, 55, 100
1, 19328, Note_on_c, 0, 67, 0
1, 19392, Note_on_c, 0, 71, 100
1, 19456, Note_on_c, 1, 59, 0
1, 19456, Note_on_c, 1, 55, 0
1, 19520, Note_on_c, 0, 71, 0
1, 19584, Note_on_c, 0, 74, 100
1, 19712, Note_on_c, 0, 74, 0
1, 19776, Note_on_c, 0, 67, 100
1, 19776, Note_on_c, 1, 62, 100
1, 19776, Note_on_c, 1, 59, 100
1, 19904, Note_on_c, 0, 67, 0
1, 19904, Note_on_c, 1, 62, 0
1, 19904, Note_on_c, 1, 59, 0
1, 19968, Note_on_c, 0, 67, 100
1, 19968, Note_on_c, 1, 60, 100
1, 19968, Note_on_c, 1, 57, 100
1, 20224, Note_on_c, 0, 67, 0
1, 20224, Note_on_c, 1, 60, 0
1, 20224, Note_on_c, 1, 57, 0
1, 20352, Note_on_c, 0, 66, 100
1, 20480, Note_on_c, 0, 66, 0
1, 20544, Note_on_c, 0, 62, 100
1, 20672, Note_on_c, 0, 62, 0
1, 20736, Note_on_c, 0, 69, 100
1, 20864, Note_on_c, 0, 69, 0
1, 20928, Note_on_c, 0, 72, 100
1, 21056, Note_on_c, 0, 72, 0
1, 21120, Note_on_c, 0, 76, 100
1, 21248, Note_on_c, 0, 76, 0
1, 21312, Note_on_c, 0, 72, 100
1, 21312, Note_on_c, 0, 69, 100
1, 21312, Note_on_c, 1, 54, 100
1, 21440, Note_on_c, 0, 72, 0
1, 21440, Note_on_c, 0, 69, 0
1, 21440, Note_on_c, 1, 54, 0
1, 21504, Note_on_c, 0, 72, 100
1, 21504, Note_on_c, 0, 69, 100
1, 21504, Note_on_c, 1, 55, 100
1, 21760, Note_on_c, 0, 72, 0
1, 21760, Note_on_c, 0, 69, 0
1, 21760, Note_on_c, 1, 55, 0
1, 21888, Note_on_c, 0, 71, 100
1, 21888, Note_on_c, 0, 67, 100
1, 21888, Note_on_c, 1, 43, 100
1, 22016, Note_on_c, 0, 71, 0
1, 22016, Note_on_c, 0, 67, 0
1, 22016, Note_on_c, 1, 43, 0
1, 22080, Note_on_c, 0, 67, 100
1, 22208, Note_on_c, 0, 67, 0
1, 22272, Note_on_c, 0, 72, 100
1, 22400, Note_on_c, 0, 72, 0
1, 22464, Note_on_c, 0, 76, 100
1, 22592, Note_on_c, 0, 76, 0
1, 22656, Note_on_c, 0, 79, 100
1, 22784, Note_on_c, 0, 79, 0
1, 22848, Note_on_c, 0, 76, 100
1, 22848, Note_on_c, 1, 60, 100
1, 22976, Note_on_c, 0, 76, 0
1, 22976, Note_on_c, 1, 60, 0
1, 23040, Note_on_c, 0, 73, 100
1, 23040, Note_on_c, 1, 59, 100
1, 23168, Note_on_c, 0, 73, 0
1, 23232, Note_on_c, 0, 74, 100
1, 23296, Note_on_c, 1, 59, 0
1, 23360, Note_on_c, 0, 74, 0
1, 23424, Note_on_c, 0, 79, 100
1, 23552, Note_on_c, 0, 79, 0
1, 23616, Note_on_c, 0, 83, 100
1, 23616, Note_on_c, 1, 55, 100
1, 23744, Note_on_c, 0, 83, 0
1, 23744, Note_on_c, 1, 55, 0
1, 23808, Note_on_c, 0, 75, 100
1, 23808, Note_on_c, 1, 62, 100
1, 23936, Note_on_c, 0, 75, 0
1, 24000, Note_on_c, 0, 76, 100
1, 24064, Note_on_c, 1, 62, 0
1, 24128, Note_on_c, 0, 76, 0
1, 24192, Note_on_c, 0, 84, 100
1, 24320, Note_on_c, 0, 84, 0
1, 24384, Note_on_c, 0, 72, 100
1, 24384, Note_on_c, 0, 78, 100
1, 24384, Note_on_c, 1, 50, 100
1, 24512, Note_on_c, 0, 72, 0
1, 24512, Note_on_c, 0, 78, 0
1, 24512, Note_on_c, 1, 50, 0
1, 24576, Note_on_c, 0, 79, 100
1, 24576, Note_on_c, 0, 71, 100
1, 24576, Note_on_c, 1, 55, 100
1, 24832, Note_on_c, 0, 79, 0
1, 24832, Note_on_c, 0, 71, 0
1, 24832, Note_on_c, 1, 55, 0
1, 24960, Note_on_c, 1, 43, 100
1, 25088, Note_on_c, 1, 43, 0
1, 25152, Note_on_c, 0, 62, 100
1, 25280, Note_on_c, 0, 62, 0
1, 25344, Note_on_c, 0, 74, 100
1, 25472, Note_on_c, 0, 74, 0
1, 25536, Note_on_c, 0, 71, 100
1, 25664, Note_on_c, 0, 71, 0
1, 25728, Note_on_c, 0, 67, 100
1, 25856, Note_on_c, 0, 67, 0
1, 25920, Note_on_c, 0, 64, 100
1, 26048, Note_on_c, 0, 64, 0
1, 26112, Note_on_c, 0, 62, 100
1, 26304, Note_on_c, 1, 56, 100
1, 26368, Note_on_c, 0, 62, 0
1, 26432, Note_on_c, 1, 56, 0
1, 26496, Note_on_c, 0, 61, 100
1, 26496, Note_on_c, 1, 57, 100
1, 26624, Note_on_c, 0, 61, 0
1, 26624, Note_on_c, 1, 57, 0
1, 26688, Note_on_c, 0, 60, 100
1, 26688, Note_on_c, 1, 45, 100
1, 26816, Note_on_c, 0, 60, 0
1, 26816, Note_on_c, 1, 45, 0
1, 26880, Note_on_c, 0, 72, 100
1, 27008, Note_on_c, 0, 72, 0
1, 27072, Note_on_c, 0, 69, 100
1, 27200, Note_on_c, 0, 69, 0
1, 27264, Note_on_c, 0, 66, 100
1, 27392, Note_on_c, 0, 66, 0
1, 27456, Note_on_c, 0, 62, 100
1, 27584, Note_on_c, 0, 62, 0
1, 27648, Note_on_c, 0, 60, 100
1, 27840, Note_on_c, 1, 54, 100
1, 27904, Note_on_c, 0, 60, 0
1, 27968, Note_on_c, 1, 54, 0
1, 28032, Note_on_c, 0, 59, 100
1, 28032, Note_on_c, 1, 55, 100
1, 28160, Note_on_c, 0, 59, 0
1, 28160, Note_on_c, 1, 55, 0
1, 28224, Note_on_c, 0, 62, 100
1, 28224, Note_on_c, 1, 47, 100
1, 28352, Note_on_c, 0, 62, 0
1, 28352, Note_on_c, 1, 47, 0
1, 28416, Note_on_c, 0, 64, 100
1, 28416, Note_on_c, 1, 48, 100
1, 28544, Note_on_c, 0, 64, 0
1, 28608, Note_on_c, 0, 68, 100
1, 28672, Note_on_c, 1, 48, 0
1, 28736, Note_on_c, 0, 68, 0
1, 28800, Note_on_c, 0, 69, 100
1, 28928, Note_on_c, 0, 69, 0
1, 28992, Note_on_c, 0, 67, 100
1, 28992, Note_on_c, 1, 61, 100
1, 29120, Note_on_c, 0, 67, 0
1, 29120, Note_on_c, 1, 61, 0
1, 29184, Note_on_c, 0, 66, 100
1, 29184, Note_on_c, 1, 62, 100
1, 29312, Note_on_c, 0, 66, 0
1, 29376, Note_on_c, 0, 70, 100
1, 29440, Note_on_c, 1, 62, 0
1, 29504, Note_on_c, 0, 70, 0
1, 29568, Note_on_c, 0, 71, 100
1, 29696, Note_on_c, 0, 71, 0
1, 29760, Note_on_c, 0, 69, 100
1, 29760, Note_on_c, 1, 63, 100
1, 29888, Note_on_c, 0, 69, 0
1, 29888, Note_on_c, 1, 63, 0
1, 29952, Note_on_c, 0, 67, 100
1, 29952, Note_on_c, 1, 64, 100
1, 30080, Note_on_c, 0, 67, 0
1, 30080, Note_on_c, 1, 64, 0
1, 30144, Note_on_c, 0, 74, 100
1, 30144, Note_on_c, 1, 66, 100
1, 30272, Note_on_c, 0, 74, 0
1, 30272, Note_on_c, 1, 66, 0
1, 30336, Note_on_c, 0, 72, 100
1, 30336, Note_on_c, 1, 67, 100
1, 30464, Note_on_c, 0, 72, 0
1, 30528, Note_on_c, 0, 71, 100
1, 30528, Note_on_c, 1, 61, 100
1, 30656, Note_on_c, 0, 71, 0
1, 30656, Note_on_c, 1, 61, 0
1, 30720, Note_on_c, 0, 71, 100
1, 30720, Note_on_c, 1, 62, 100
1, 30848, Note_on_c, 1, 67, 0
1, 30976, Note_on_c, 0, 71, 0
1, 30976, Note_on_c, 1, 62, 0
1, 31104, Note_on_c, 0, 69, 100
1, 31104, Note_on_c, 1, 66, 100
1, 31104, Note_on_c, 1, 62, 100
1, 31232, Note_on_c, 0, 69, 0
1, 31232, Note_on_c, 1, 66, 0
1, 31232, Note_on_c, 1, 62, 0
1, 31296, Note_on_c, 0, 62, 100
1, 31424, Note_on_c, 0, 62, 0
1, 31488, Note_on_c, 0, 67, 100
1, 31488, Note_on_c, 1, 59, 100
1, 31488, Note_on_c, 1, 55, 100
1, 31616, Note_on_c, 0, 67, 0
1, 31680, Note_on_c, 0, 71, 100
1, 31744, Note_on_c, 1, 59, 0
1, 31744, Note_on_c, 1, 55, 0
1, 31808, Note_on_c, 0, 71, 0
1, 31872, Note_on_c, 0, 74, 100
1, 32000, Note_on_c, 0, 74, 0
1, 32064, Note_on_c, 0, 67, 100
1, 32064, Note_on_c, 1, 62, 100
1, 32064, Note_on_c, 1, 59, 100
1, 32192, Note_on_c, 0, 67, 0
1, 32192, Note_on_c, 1, 62, 0
1, 32192, Note_on_c, 1, 59, 0
1, 32256, Note_on_c, 0, 67, 100
1, 32256, Note_on_c, 1, 60, 100
1, 32256, Note_on_c, 1, 57, 100
1, 32512, Note_on_c, 0, 67, 0
1, 32512, Note_on_c, 1, 60, 0
1, 32512, Note_on_c, 1, 57, 0
1, 32640, Note_on_c, 0, 66, 100
1, 32768, Note_on_c, 0, 66, 0
1, 32832, Note_on_c, 0, 62, 100
1, 32960, Note_on_c, 0, 62, 0
1, 33024, Note_on_c, 0, 69, 100
1, 33152, Note_on_c, 0, 69, 0
1, 33216, Note_on_c, 0, 72, 100
1, 33344, Note_on_c, 0, 72, 0
1, 33408, Note_on_c, 0, 76, 100
1, 33536, Note_on_c, 0, 76, 0
1, 33600, Note_on_c, 0, 72, 100
1, 33600, Note_on_c, 0, 69, 100
1, 33600, Note_on_c, 1, 54, 100
1, 33728, Note_on_c, 0, 72, 0
1, 33728, Note_on_c, 0, 69, 0
1, 33728, Note_on_c, 1, 54, 0
1, 33792, Note_on_c, 0, 72, 100
1, 33792, Note_on_c, 0, 69, 100
1, 33792, Note_on_c, 1, 55, 100
1, 34048, Note_on_c, 0, 72, 0
1, 34048, Note_on_c, 0, 69, 0
1, 34048, Note_on_c, 1, 55, 0
1, 34176, Note_on_c, 0, 71, 100
1, 34176, Note_on_c, 0, 67, 100
1, 34176, Note_on_c, 1, 43, 100
1, 34304, Note_on_c, 0, 71, 0
1, 34304, Note_on_c, 0, 67, 0
1, 34304, Note_on_c, 1, 43, 0
1, 34368, Note_on_c, 0, 67, 100
1, 34496, Note_on_c, 0, 67, 0
1, 34560, Note_on_c, 0, 72, 100
1, 34688, Note_on_c, 0, 72, 0
1, 34752, Note_on_c, 0, 76, 100
1, 34880, Note_on_c, 0, 76, 0
1, 34944, Note_on_c, 0, 79, 100
1, 35072, Note_on_c, 0, 79, 0
1, 35136, Note_on_c, 0, 76, 100
1, 35136, Note_on_c, 1, 60, 100
1, 35264, Note_on_c, 0, 76, 0
1, 35264, Note_on_c, 1, 60, 0
1, 35328, Note_on_c, 0, 73, 100
1, 35328, Note_on_c, 1, 59, 100
1, 35456, Note_on_c, 0, 73, 0
1, 35520, Note_on_c, 0, 74, 100
1, 35584, Note_on_c, 1, 59, 0
1, 35648, Note_on_c, 0, 74, 0
1, 35712, Note_on_c, 0, 79, 100
1, 35840, Note_on_c, 0, 79, 0
1, 35904, Note_on_c, 0, 83, 100
1, 35904, Note_on_c, 1, 55, 100
1, 36032, Note_on_c, 0, 83, 0
1, 36032, Note_on_c, 1, 55, 0
1, 36096, Note_on_c, 0, 75, 100
1, 36096, Note_on_c, 1, 62, 100
1, 36224, Note_on_c, 0, 75, 0
1, 36288, Note_on_c, 0, 76, 100
1, 36352, Note_on_c, 1, 62, 0
1, 36416, Note_on_c, 0, 76, 0
1, 36480, Note_on_c, 0, 84, 100
1, 36608, Note_on_c, 0, 84, 0
1, 36672, Note_on_c, 0, 72, 100
1, 36672, Note_on_c, 0, 78, 100
1, 36672, Note_on_c, 1, 50, 100
1, 36800, Note_on_c, 0, 72, 0
1, 36800, Note_on_c, 0, 78, 0
1, 36800, Note_on_c, 1, 50, 0
1, 36864, Note_on_c, 0, 79, 100
1, 36864, Note_on_c, 0, 71, 100
1, 36864, Note_on_c, 1, 55, 100
1, 37120, Note_on_c, 0, 79, 0
1, 37120, Note_on_c, 0, 71, 0
1, 37120, Note_on_c, 1, 55, 0
1, 37248, Note_on_c, 1, 43, 100
1, 37376, Note_on_c, 1, 43, 0
1, 37440, Note_on_c, 0, 62, 100
1, 37568, Note_on_c, 0, 62, 0
1, 37632, Note_on_c, 0, 67, 100
1, 37632, Note_on_c, 1, 59, 100
1, 37632, Note_on_c, 1, 55, 100
1, 37696, Note_on_c, 0, 67, 0
1, 37728, Note_on_c, 0, 62, 100
1, 37792, Note_on_c, 0, 62, 0
1, 37824, Note_on_c, 0, 71, 100
1, 37888, Note_on_c, 0, 71, 0
1, 37888, Note_on_c, 1, 59, 0
1, 37888, Note_on_c, 1, 55, 0
1, 37920, Note_on_c, 0, 67, 100
1, 37984, Note_on_c, 0, 67, 0
1, 38016, Note_on_c, 0, 74, 100
1, 38144, Note_on_c, 0, 74, 0
1, 38208, Note_on_c, 0, 67, 100
1, 38208, Note_on_c, 1, 62, 100
1, 38208, Note_on_c, 1, 59, 100
1, 38336, Note_on_c, 0, 67, 0
1, 38336, Note_on_c, 1, 62, 0
1, 38336, Note_on_c, 1, 59, 0
1, 38400, Note_on_c, 0, 67, 100
1, 38400, Note_on_c, 1, 60, 100
1, 38400, Note_on_c, 1, 57, 100
1, 38656, Note_on_c, 0, 67, 0
1, 38656, Note_on_c, 1, 60, 0
1, 38656, Note_on_c, 1, 57, 0
1, 38784, Note_on_c, 0, 66, 100
1, 38912, Note_on_c, 0, 66, 0
1, 38976, Note_on_c, 0, 69, 100
1, 39104, Note_on_c, 0, 69, 0
1, 39168, Note_on_c, 0, 72, 100
1, 39296, Note_on_c, 0, 72, 0
1, 39360, Note_on_c, 0, 76, 100
1, 39360, Note_on_c, 0, 72, 100
1, 39488, Note_on_c, 0, 76, 0
1, 39488, Note_on_c, 0, 72, 0
1, 39552, Note_on_c, 0, 74, 100
1, 39552, Note_on_c, 0, 71, 100
1, 39680, Note_on_c, 0, 74, 0
1, 39680, Note_on_c, 0, 71, 0
1, 39744, Note_on_c, 0, 72, 100
1, 39744, Note_on_c, 0, 69, 100
1, 39744, Note_on_c, 1, 54, 100
1, 39872, Note_on_c, 0, 72, 0
1, 39872, Note_on_c, 0, 69, 0
1, 39872, Note_on_c, 1, 54, 0
1, 39936, Note_on_c, 0, 72, 100
1, 39936, Note_on_c, 0, 69, 100
1, 39936, Note_on_c, 1, 55, 100
1, 40192, Note_on_c, 0, 72, 0
1, 40192, Note_on_c, 0, 69, 0
1, 40192, Note_on_c, 1, 55, 0
1, 40320, Note_on_c, 0, 71, 100
1, 40320, Note_on_c, 0, 67, 100
1, 40320, Note_on_c, 1, 43, 100
1, 40448, Note_on_c, 0, 71, 0
1, 40448, Note_on_c, 0, 67, 0
1, 40448, Note_on_c, 1, 43, 0
1, 40512, Note_on_c, 0, 71, 100
1, 40640, Note_on_c, 0, 71, 0
1, 40704, Note_on_c, 0, 83, 100
1, 40704, Note_on_c, 1, 67, 100
1, 40768, Note_on_c, 0, 83, 0
1, 40800, Note_on_c, 0, 79, 100
1, 40864, Note_on_c, 0, 79, 0
1, 40896, Note_on_c, 0, 78, 100
1, 40960, Note_on_c, 0, 78, 0
1, 40960, Note_on_c, 1, 67, 0
1, 40992, Note_on_c, 0, 76, 100
1, 41056, Note_on_c, 0, 76, 0
1, 41088, Note_on_c, 0, 75, 100
1, 41152, Note_on_c, 0, 75, 0
1, 41184, Note_on_c, 0, 76, 100
1, 41248, Note_on_c, 0, 76, 0
1, 41280, Note_on_c, 0, 75, 100
1, 41344, Note_on_c, 0, 75, 0
1, 41376, Note_on_c, 0, 76, 100
1, 41440, Note_on_c, 0, 76, 0
1, 41472, Note_on_c, 0, 81, 100
1, 41472, Note_on_c, 1, 66, 100
1, 41536, Note_on_c, 0, 81, 0
1, 41568, Note_on_c, 0, 78, 100
1, 41632, Note_on_c, 0, 78, 0
1, 41664, Note_on_c, 0, 76, 100
1, 41728, Note_on_c, 0, 76, 0
1, 41728, Note_on_c, 1, 66, 0
1, 41760, Note_on_c, 0, 74, 100
1, 41824, Note_on_c, 0, 74, 0
1, 41856, Note_on_c, 0, 73, 100
1, 41920, Note_on_c, 0, 73, 0
1, 41952, Note_on_c, 0, 74, 100
1, 42016, Note_on_c, 0, 74, 0
1, 42048, Note_on_c, 0, 73, 100
1, 42112, Note_on_c, 0, 73, 0
1, 42144, Note_on_c, 0, 74, 100
1, 42208, Note_on_c, 0, 74, 0
1, 42240, Note_on_c, 0, 71, 100
1, 42240, Note_on_c, 1, 67, 100
1, 42368, Note_on_c, 0, 71, 0
1, 42368, Note_on_c, 1, 67, 0
1, 42432, Note_on_c, 0, 79, 100
1, 42560, Note_on_c, 0, 79, 0
1, 42624, Note_on_c, 1, 57, 100
1, 42752, Note_on_c, 1, 57, 0
1, 42816, Note_on_c, 0, 73, 100
1, 42816, Note_on_c, 0, 67, 100
1, 42944, Note_on_c, 0, 73, 0
1, 42944, Note_on_c, 0, 67, 0
1, 43008, Note_on_c, 0, 74, 100
1, 43008, Note_on_c, 0, 66, 100
1, 43008, Note_on_c, 1, 50, 100
1, 43072, Note_on_c, 1, 50, 0
1, 43104, Note_on_c, 1, 54, 100
1, 43168, Note_on_c, 1, 54, 0
1, 43200, Note_on_c, 1, 57, 100
1, 43264, Note_on_c, 0, 74, 0
1, 43264, Note_on_c, 0, 66, 0
1, 43264, Note_on_c, 1, 57, 0
1, 43296, Note_on_c, 1, 62, 100
1, 43360, Note_on_c, 1, 62, 0
1, 43392, Note_on_c, 1, 50, 100
1, 43520, Note_on_c, 1, 50, 0
1, 43584, Note_on_c, 0, 62, 100
1, 43712, Note_on_c, 0, 62, 0
1, 43776, Note_on_c, 0, 67, 100
1, 43776, Note_on_c, 1, 59, 100
1, 43776, Note_on_c, 1, 55, 100
1, 43840, Note_on_c, 0, 67, 0
1, 43872, Note_on_c, 0, 62, 100
1, 43936, Note_on_c, 0, 62, 0
1, 43968, Note_on_c, 0, 71, 100
1, 44032, Note_on_c, 0, 71, 0
1, 44032, Note_on_c, 1, 59, 0
1, 44032, Note_on_c, 1, 55, 0
1, 44064, Note_on_c, 0, 67, 100
1, 44128, Note_on_c, 0, 67, 0
1, 44160, Note_on_c, 0, 74, 100
1, 44288, Note_on_c, 0, 74, 0
1, 44352, Note_on_c, 0, 67, 100
1, 44352, Note_on_c, 1, 62, 100
1, 44352, Note_on_c, 1, 59, 100
1, 44480, Note_on_c, 0, 67, 0
1, 44480, Note_on_c, 1, 62, 0
1, 44480, Note_on_c, 1, 59, 0
1, 44544, Note_on_c, 0, 67, 100
1, 44544, Note_on_c, 1, 60, 100
1, 44544, Note_on_c, 1, 57, 100
1, 44800, Note_on_c, 0, 67, 0
1, 44800, Note_on_c, 1, 60, 0
1, 44800, Note_on_c, 1, 57, 0
1, 44928, Note_on_c, 0, 66, 100
1, 45056, Note_on_c, 0, 66, 0
1, 45120, Note_on_c, 0, 69, 100
1, 45248, Note_on_c, 0, 69, 0
1, 45312, Note_on_c, 0, 72, 100
1, 45440, Note_on_c, 0, 72, 0
1, 45504, Note_on_c, 0, 76, 100
1, 45504, Note_on_c, 0, 72, 100
1, 45632, Note_on_c, 0, 76, 0
1, 45632, Note_on_c, 0, 72, 0
1, 45696, Note_on_c, 0, 74, 100
1, 45696, Note_on_c, 0, 71, 100
1, 45824, Note_on_c, 0, 74, 0
1, 45824, Note_on_c, 0, 71, 0
1, 45888, Note_on_c, 0, 72, 100
1, 45888, Note_on_c, 0, 69, 100
1, 45888, Note_on_c, 1, 54, 100
1, 46016, Note_on_c, 0, 72, 0
1, 46016, Note_on_c, 0, 69, 0
1, 46016, Note_on_c, 1, 54, 0
1, 46080, Note_on_c, 0, 72, 100
1, 46080, Note_on_c, 0, 69, 100
1, 46080, Note_on_c, 1, 55, 100
1, 46336, Note_on_c, 0, 72, 0
1, 46336, Note_on_c, 0, 69, 0
1, 46336, Note_on_c, 1, 55, 0
1, 46464, Note_on_c, 0, 71, 100
1, 46464, Note_on_c, 0, 67, 100
1, 46464, Note_on_c, 1, 43, 100
1, 46592, Note_on_c, 0, 71, 0
1, 46592, Note_on_c, 0, 67, 0
1, 46592, Note_on_c, 1, 43, 0
1, 46656, Note_on_c, 0, 71, 100
1, 46784, Note_on_c, 0, 71, 0
1, 46848, Note_on_c, 0, 83, 100
1, 46848, Note_on_c, 1, 67, 100
1, 46912, Note_on_c, 0, 83, 0
1, 46944, Note_on_c, 0, 79, 100
1, 47008, Note_on_c, 0, 79, 0
1, 47040, Note_on_c, 0, 78, 100
1, 47104, Note_on_c, 0, 78, 0
1, 47104, Note_on_c, 1, 67, 0
1, 47136, Note_on_c, 0, 76, 100
1, 47200, Note_on_c, 0, 76, 0
1, 47232, Note_on_c, 0, 75, 100
1, 47296, Note_on_c, 0, 75, 0
1, 47328, Note_on_c, 0, 76, 100
1, 47392, Note_on_c, 0, 76, 0
1, 47424, Note_on_c, 0, 75, 100
1, 47488, Note_on_c, 0, 75, 0
1, 47520, Note_on_c, 0, 76, 100
1, 47584, Note_on_c, 0, 76, 0
1, 47616, Note_on_c, 0, 81, 100
1, 47616, Note_on_c, 1, 66, 100
1, 47680, Note_on_c, 0, 81, 0
1, 47712, Note_on_c, 0, 78, 100
1, 47776, Note_on_c, 0, 78, 0
1, 47808, Note_on_c, 0, 76, 100
1, 47872, Note_on_c, 0, 76, 0
1, 47872, Note_on_c, 1, 66, 0
1, 47904, Note_on_c, 0, 74, 100
1, 47968, Note_on_c, 0, 74, 0
1, 48000, Note_on_c, 0, 73, 100
1, 48064, Note_on_c, 0, 73, 0
1, 48096, Note_on_c, 0, 74, 100
1, 48160, Note_on_c, 0, 74, 0
1, 48192, Note_on_c, 0, 73, 100
1, 48256, Note_on_c, 0, 73, 0
1, 48288, Note_on_c, 0, 74, 100
1, 48352, Note_on_c, 0, 74, 0
1, 48384, Note_on_c, 0, 71, 100
1, 48384, Note_on_c, 1, 67, 100
1, 48512, Note_on_c, 0, 71, 0
1, 48512, Note_on_c, 1, 67, 0
1, 48576, Note_on_c, 0, 79, 100
1, 48704, Note_on_c, 0, 79, 0
1, 48768, Note_on_c, 1, 57, 100
1, 48896, Note_on_c, 1, 57, 0
1, 48960, Note_on_c, 0, 73, 100
1, 48960, Note_on_c, 0, 67, 100
1, 49088, Note_on_c, 0, 73, 0
1, 49088, Note_on_c, 0, 67, 0
1, 49152, Note_on_c, 0, 74, 100
1, 49152, Note_on_c, 0, 66, 100
1, 49152, Note_on_c, 1, 50, 100
1, 49216, Note_on_c, 1, 50, 0
1, 49248, Note_on_c, 1, 54, 100
1, 49312, Note_on_c, 1, 54, 0
1, 49344, Note_on_c, 1, 57, 100
1, 49408, Note_on_c, 0, 74, 0
1, 49408, Note_on_c, 0, 66, 0
1, 49408, Note_on_c, 1, 57, 0
1, 49440, Note_on_c, 1, 62, 100
1, 49504, Note_on_c, 1, 62, 0
1, 49536, Note_on_c, 1, 50, 100
1, 49664, Note_on_c, 1, 50, 0
1, 49728, Note_on_c, 0, 62, 100
1, 49856, Note_on_c, 0, 62, 0
1, 49920, Note_on_c, 0, 74, 100
1, 49984, Note_on_c, 0, 74, 0
1, 50016, Note_on_c, 0, 71, 100
1, 50080, Note_on_c, 0, 71, 0
1, 50112, Note_on_c, 0, 69, 100
1, 50176, Note_on_c, 0, 69, 0
1, 50208, Note_on_c, 0, 71, 100
1, 50272, Note_on_c, 0, 71, 0
1, 50304, Note_on_c, 0, 64, 100
1, 50432, Note_on_c, 0, 64, 0
1, 50496, Note_on_c, 0, 71, 100
1, 50496, Note_on_c, 1, 62, 100
1, 50496, Note_on_c, 1, 56, 100
1, 50624, Note_on_c, 0, 71, 0
1, 50624, Note_on_c, 1, 62, 0
1, 50624, Note_on_c, 1, 56, 0
1, 50688, Note_on_c, 0, 71, 100
1, 50688, Note_on_c, 1, 62, 100
1, 50688, Note_on_c, 1, 57, 100
1, 50944, Note_on_c, 0, 71, 0
1, 50944, Note_on_c, 1, 62, 0
1, 50944, Note_on_c, 1, 57, 0
1, 51072, Note_on_c, 0, 72, 100
1, 51072, Note_on_c, 1, 60, 100
1, 51072, Note_on_c, 1, 57, 100
1, 51200, Note_on_c, 0, 72, 0
1, 51200, Note_on_c, 1, 60, 0
1, 51200, Note_on_c, 1, 57, 0
1, 51264, Note_on_c, 0, 60, 100
1, 51392, Note_on_c, 0, 60, 0
1, 51456, Note_on_c, 0, 72, 100
1, 51520, Note_on_c, 0, 72, 0
1, 51552, Note_on_c, 0, 69, 100
1, 51616, Note_on_c, 0, 69, 0
1, 51648, Note_on_c, 0, 67, 100
1, 51712, Note_on_c, 0, 67, 0
1, 51744, Note_on_c, 0, 69, 100
1, 51808, Note_on_c, 0, 69, 0
1, 51840, Note_on_c, 0, 62, 100
1, 51968, Note_on_c, 0, 62, 0
1, 52032, Note_on_c, 0, 69, 100
1, 52032, Note_on_c, 1, 60, 100
1, 52032, Note_on_c, 1, 54, 100
1, 52160, Note_on_c, 0, 69, 0
1, 52160, Note_on_c, 1, 60, 0
1, 52160, Note_on_c, 1, 54, 0
1, 52224, Note_on_c, 0, 69, 100
1, 52224, Note_on_c, 1, 60, 100
1, 52224, Note_on_c, 1, 55, 100
1, 52480, Note_on_c, 0, 69, 0
1, 52480, Note_on_c, 1, 60, 0
1, 52480, Note_on_c, 1, 55, 0
1, 52608, Note_on_c, 0, 71, 100
1, 52608, Note_on_c, 1, 59, 100
1, 52608, Note_on_c, 1, 55, 100
1, 52736, Note_on_c, 0, 71, 0
1, 52736, Note_on_c, 1, 59, 0
1, 52736, Note_on_c, 1, 55, 0
1, 52800, Note_on_c, 0, 67, 100
1, 52800, Note_on_c, 1, 59, 100
1, 52928, Note_on_c, 0, 67, 0
1, 52928, Note_on_c, 1, 59, 0
1, 52992, Note_on_c, 0, 66, 100
1, 52992, Note_on_c, 1, 60, 100
1, 53056, Note_on_c, 0, 66, 0
1, 53088, Note_on_c, 0, 64, 100
1, 53152, Note_on_c, 0, 64, 0
1, 53184, Note_on_c, 0, 63, 100
1, 53248, Note_on_c, 0, 63, 0
1, 53248, Note_on_c, 1, 60, 0
1, 53280, Note_on_c, 0, 64, 100
1, 53344, Note_on_c, 0, 64, 0
1, 53376, Note_on_c, 0, 69, 100
1, 53568, Note_on_c, 1, 61, 100
1, 53632, Note_on_c, 0, 69, 0
1, 53696, Note_on_c, 1, 61, 0
1, 53760, Note_on_c, 0, 67, 100
1, 53760, Note_on_c, 1, 62, 100
1, 53824, Note_on_c, 0, 67, 0
1, 53856, Note_on_c, 0, 66, 100
1, 53920, Note_on_c, 0, 66, 0
1, 53952, Note_on_c, 0, 65, 100
1, 54016, Note_on_c, 0, 65, 0
1, 54016, Note_on_c, 1, 62, 0
1, 54048, Note_on_c, 0, 66, 100
1, 54112, Note_on_c, 0, 66, 0
1, 54144, Note_on_c, 0, 71, 100
1, 54336, Note_on_c, 1, 63, 100
1, 54400, Note_on_c, 0, 71, 0
1, 54464, Note_on_c, 1, 63, 0
1, 54528, Note_on_c, 0, 67, 100
1, 54528, Note_on_c, 1, 64, 100
1, 54656, Note_on_c, 0, 67, 0
1, 54656, Note_on_c, 1, 64, 0
1, 54720, Note_on_c, 0, 74, 100
1, 54720, Note_on_c, 1, 66, 100
1, 54848, Note_on_c, 0, 74, 0
1, 54848, Note_on_c, 1, 66, 0
1, 54912, Note_on_c, 0, 72, 100
1, 54912, Note_on_c, 1, 67, 100
1, 55040, Note_on_c, 0, 72, 0
1, 55104, Note_on_c, 0, 71, 100
1, 55104, Note_on_c, 1, 61, 100
1, 55232, Note_on_c, 0, 71, 0
1, 55232, Note_on_c, 1, 61, 0
1, 55296, Note_on_c, 0, 71, 100
1, 55296, Note_on_c, 1, 62, 100
1, 55424, Note_on_c, 1, 67, 0
1, 55552, Note_on_c, 0, 71, 0
1, 55552, Note_on_c, 1, 62, 0
1, 55680, Note_on_c, 0, 69, 100
1, 55680, Note_on_c, 1, 66, 100
1, 55680, Note_on_c, 1, 62, 100
1, 55808, Note_on_c, 0, 69, 0
1, 55808, Note_on_c, 1, 66, 0
1, 55808, Note_on_c, 1, 62, 0
1, 55872, Note_on_c, 0, 62, 100
1, 56000, Note_on_c, 0, 62, 0
1, 56064, Note_on_c, 0, 67, 100
1, 56064, Note_on_c, 1, 59, 100
1, 56064, Note_on_c, 1, 55, 100
1, 56128, Note_on_c, 0, 67, 0
1, 56160, Note_on_c, 0, 62, 100
1, 56224, Note_on_c, 0, 62, 0
1, 56256, Note_on_c, 0, 71, 100
1, 56320, Note_on_c, 0, 71, 0
1, 56320, Note_on_c, 1, 59, 0
1, 56320, Note_on_c, 1, 55, 0
1, 56352, Note_on_c, 0, 67, 100
1, 56416, Note_on_c, 0, 67, 0
1, 56448, Note_on_c, 0, 74, 100
1, 56576, Note_on_c, 0, 74, 0
1, 56640, Note_on_c, 0, 67, 100
1, 56640, Note_on_c, 1, 62, 100
1, 56640, Note_on_c, 1, 59, 100
1, 56768, Note_on_c, 0, 67, 0
1, 56768, Note_on_c, 1, 62, 0
1, 56768, Note_on_c, 1, 59, 0
1, 56832, Note_on_c, 0, 67, 100
1, 56832, Note_on_c, 1, 60, 100
1, 56832, Note_on_c, 1, 57, 100
1, 57088, Note_on_c, 0, 67, 0
1, 57088, Note_on_c, 1, 60, 0
1, 57088, Note_on_c, 1, 57, 0
1, 57216, Note_on_c, 0, 66, 100
1, 57344, Note_on_c, 0, 66, 0
1, 57408, Note_on_c, 0, 69, 100
1, 57536, Note_on_c, 0, 69, 0
1, 57600, Note_on_c, 0, 72, 100
1, 57728, Note_on_c, 0, 72, 0
1, 57792, Note_on_c, 0, 76, 100
1, 57792, Note_on_c, 0, 72, 100
1, 57920, Note_on_c, 0, 76, 0
1, 57920, Note_on_c, 0, 72, 0
1, 57984, Note_on_c, 0, 74, 100
1, 57984, Note_on_c, 0, 71, 100
1, 58112, Note_on_c, 0, 74, 0
1, 58112, Note_on_c, 0, 71, 0
1, 58176, Note_on_c, 0, 72, 100
1, 58176, Note_on_c, 0, 69, 100
1, 58176, Note_on_c, 1, 54, 100
1, 58304, Note_on_c, 0, 72, 0
1, 58304, Note_on_c, 0, 69, 0
1, 58304, Note_on_c, 1, 54, 0
1, 58368, Note_on_c, 0, 72, 100
1, 58368, Note_on_c, 0, 69, 100
1, 58368, Note_on_c, 1, 55, 100
1, 58624, Note_on_c, 0, 72, 0
1, 58624, Note_on_c, 0, 69, 0
1, 58624, Note_on_c, 1, 55, 0
1, 58752, Note_on_c, 0, 71, 100
1, 58752, Note_on_c, 0, 67, 100
1, 58752, Note_on_c, 1, 43, 100
1, 58880, Note_on_c, 0, 71, 0
1, 58880, Note_on_c, 0, 67, 0
1, 58880, Note_on_c, 1, 43, 0
1, 58944, Note_on_c, 0, 67, 100
1, 59072, Note_on_c, 0, 67, 0
1, 59136, Note_on_c, 0, 76, 100
1, 59136, Note_on_c, 1, 60, 100
1, 59136, Note_on_c, 1, 48, 100
1, 59200, Note_on_c, 0, 76, 0
1, 59232, Note_on_c, 0, 75, 100
1, 59296, Note_on_c, 0, 75, 0
1, 59328, Note_on_c, 0, 76, 100
1, 59392, Note_on_c, 0, 76, 0
1, 59392, Note_on_c, 1, 60, 0
1, 59392, Note_on_c, 1, 48, 0
1, 59424, Note_on_c, 0, 78, 100
1, 59488, Note_on_c, 0, 78, 0
1, 59520, Note_on_c, 0, 79, 100
1, 59584, Note_on_c, 0, 79, 0
1, 59616, Note_on_c, 0, 76, 100
1, 59680, Note_on_c, 0, 76, 0
1, 59712, Note_on_c, 0, 74, 100
1, 59776, Note_on_c, 0, 74, 0
1, 59808, Note_on_c, 0, 72, 100
1, 59872, Note_on_c, 0, 72, 0
1, 59904, Note_on_c, 0, 74, 100
1, 59904, Note_on_c, 1, 59, 100
1, 59904, Note_on_c, 1, 47, 100
1, 60032, Note_on_c, 0, 74, 0
1, 60096, Note_on_c, 0, 79, 100
1, 60160, Note_on_c, 0, 79, 0
1, 60160, Note_on_c, 1, 59, 0
1, 60160, Note_on_c, 1, 47, 0
1, 60192, Note_on_c, 0, 83, 100
1, 60256, Note_on_c, 0, 83, 0
1, 60288, Note_on_c, 0, 86, 100
1, 60416, Note_on_c, 0, 86, 0
1, 60480, Note_on_c, 0, 74, 100
1, 60480, Note_on_c, 0, 71, 100
1, 60608, Note_on_c, 0, 74, 0
1, 60608, Note_on_c, 0, 71, 0
1, 60648, Note_on_c, 0, 74, 100
1, 60648, Note_on_c, 0, 71, 100
1, 60664, Note_on_c, 0, 74, 0
1, 60664, Note_on_c, 0, 71, 0
1, 60672, Note_on_c, 0, 72, 100
1, 60672, Note_on_c, 0, 69, 100
1, 60672, Note_on_c, 1, 60, 100
1, 60800, Note_on_c, 0, 72, 0
1, 60800, Note_on_c, 0, 69, 0
1, 60864, Note_on_c, 0, 71, 100
1, 60864, Note_on_c, 0, 67, 100
1, 60928, Note_on_c, 1, 60, 0
1, 61056, Note_on_c, 1, 62, 100
1, 61120, Note_on_c, 0, 71, 0
1, 61120, Note_on_c, 0, 67, 0
1, 61248, Note_on_c, 0, 69, 100
1, 61248, Note_on_c, 0, 66, 100
1, 61312, Note_on_c, 1, 62, 0
1, 61376, Note_on_c, 0, 69, 0
1, 61376, Note_on_c, 0, 66, 0
1, 61440, Note_on_c, 0, 67, 100
1, 61440, Note_on_c, 1, 55, 100
1, 61696, Note_on_c, 0, 67, 0
1, 61696, Note_on_c, 1, 55, 0
1, 62016, Note_on_c, 0, 62, 100
1, 62144, Note_on_c, 0, 62, 0
1, 62208, Note_on_c, 0, 74, 100
1, 62272, Note_on_c, 0, 74, 0
1, 62304, Note_on_c, 0, 71, 100
1, 62368, Note_on_c, 0, 71, 0
1, 62400, Note_on_c, 0, 69, 100
1, 62464, Note_on_c, 0, 69, 0
1, 62496, Note_on_c, 0, 71, 100
1, 62560, Note_on_c, 0, 71, 0
1, 62592, Note_on_c, 0, 64, 100
1, 62720, Note_on_c, 0, 64, 0
1, 62784, Note_on_c, 0, 71, 100
1, 62784, Note_on_c, 1, 62, 100
1, 62784, Note_on_c, 1, 56, 100
1, 62912, Note_on_c, 0, 71, 0
1, 62912, Note_on_c, 1, 62, 0
1, 62912, Note_on_c, 1, 56, 0
1, 62976, Note_on_c, 0, 71, 100
1, 62976, Note_on_c, 1, 62, 100
1, 62976, Note_on_c, 1, 57, 100
1, 63232, Note_on_c, 0, 71, 0
1, 63232, Note_on_c, 1, 62, 0
1, 63232, Note_on_c, 1, 57, 0
1, 63360, Note_on_c, 0, 72, 100
1, 63360, Note_on_c, 1, 60, 100
1, 63360, Note_on_c, 1, 57, 100
1, 63488, Note_on_c, 0, 72, 0
1, 63488, Note_on_c, 1, 60, 0
1, 63488, Note_on_c, 1, 57, 0
1, 63552, Note_on_c, 0, 60, 100
1, 63680, Note_on_c, 0, 60, 0
1, 63744, Note_on_c, 0, 72, 100
1, 63808, Note_on_c, 0, 72, 0
1, 63840, Note_on_c, 0, 69, 100
1, 63904, Note_on_c, 0, 69, 0
1, 63936, Note_on_c, 0, 67, 100
1, 64000, Note_on_c, 0, 67, 0
1, 64032, Note_on_c, 0, 69, 100
1, 64096, Note_on_c, 0, 69, 0
1, 64128, Note_on_c, 0, 62, 100
1, 64256, Note_on_c, 0, 62, 0
1, 64320, Note_on_c, 0, 69, 100
1, 64320, Note_on_c, 1, 60, 100
1, 64320, Note_on_c, 1, 54, 100
1, 64448, Note_on_c, 0, 69, 0
1, 64448, Note_on_c, 1, 60, 0
1, 64448, Note_on_c, 1, 54, 0
1, 64512, Note_on_c, 0, 69, 100
1, 64512, Note_on_c, 1, 60, 100
1, 64512, Note_on_c, 1, 55, 100
1, 64768, Note_on_c, 0, 69, 0
1, 64768, Note_on_c, 1, 60, 0
1, 64768, Note_on_c, 1, 55, 0
1, 64896, Note_on_c, 0, 71, 100
1, 64896, Note_on_c, 1, 59, 100
1, 64896, Note_on_c, 1, 55, 100
1, 65024, Note_on_c, 0, 71, 0
1, 65024, Note_on_c, 1, 59, 0
1, 65024, Note_on_c, 1, 55, 0
1, 65088, Note_on_c, 0, 67, 100
1, 65088, Note_on_c, 1, 59, 100
1, 65216, Note_on_c, 0, 67, 0
1, 65216, Note_on_c, 1, 59, 0
1, 65280, Note_on_c, 0, 66, 100
1, 65280, Note_on_c, 1, 60, 100
1, 65344, Note_on_c, 0, 66, 0
1, 65376, Note_on_c, 0, 64, 100
1, 65440, Note_on_c, 0, 64, 0
1, 65472, Note_on_c, 0, 63, 100
1, 65536, Note_on_c, 0, 63, 0
1, 65536, Note_on_c, 1, 60, 0
1, 65568, Note_on_c, 0, 64, 100
1, 65632, Note_on_c, 0, 64, 0
1, 65664, Note_on_c, 0, 69, 100
1, 65856, Note_on_c, 1, 61, 100
1, 65920, Note_on_c, 0, 69, 0
1, 65984, Note_on_c, 1, 61, 0
1, 66048, Note_on_c, 0, 67, 100
1, 66048, Note_on_c, 1, 62, 100
1, 66112, Note_on_c, 0, 67, 0
1, 66144, Note_on_c, 0, 66, 100
1, 66208, Note_on_c, 0, 66, 0
1, 66240, Note_on_c, 0, 65, 100
1, 66304, Note_on_c, 0, 65, 0
1, 66304, Note_on_c, 1, 62, 0
1, 66336, Note_on_c, 0, 66, 100
1, 66400, Note_on_c, 0, 66, 0
1, 66432, Note_on_c, 0, 71, 100
1, 66624, Note_on_c, 1, 63, 100
1, 66688, Note_on_c, 0, 71, 0
1, 66752, Note_on_c, 1, 63, 0
1, 66816, Note_on_c, 0, 67, 100
1, 66816, Note_on_c, 1, 64, 100
1, 66944, Note_on_c, 0, 67, 0
1, 66944, Note_on_c, 1, 64, 0
1, 67008, Note_on_c, 0, 74, 100
1, 67008, Note_on_c, 1, 66, 100
1, 67136, Note_on_c, 0, 74, 0
1, 67136, Note_on_c, 1, 66, 0
1, 67200, Note_on_c, 0, 72, 100
1, 67200, Note_on_c, 1, 67, 100
1, 67328, Note_on_c, 0, 72, 0
1, 67392, Note_on_c, 0, 71, 100
1, 67392, Note_on_c, 1, 61, 100
1, 67520, Note_on_c, 0, 71, 0
1, 67520, Note_on_c, 1, 61, 0
1, 67584, Note_on_c, 0, 71, 100
1, 67584, Note_on_c, 1, 62, 100
1, 67712, Note_on_c, 1, 67, 0
1, 67840, Note_on_c, 0, 71, 0
1, 67840, Note_on_c, 1, 62, 0
1, 67968, Note_on_c, 0, 69, 100
1, 67968, Note_on_c, 1, 66, 100
1, 67968, Note_on_c, 1, 62, 100
1, 68096, Note_on_c, 0, 69, 0
1, 68096, Note_on_c, 1, 66, 0
1, 68096, Note_on_c, 1, 62, 0
1, 68160, Note_on_c, 0, 62, 100
1, 68288, Note_on_c, 0, 62, 0
1, 68352, Note_on_c, 0, 67, 100
1, 68352, Note_on_c, 1, 59, 100
1, 68352, Note_on_c, 1, 55, 100
1, 68416, Note_on_c, 0, 67, 0
1, 68448, Note_on_c, 0, 62, 100
1, 68512, Note_on_c, 0, 62, 0
1, 68544, Note_on_c, 0, 71, 100
1, 68608, Note_on_c, 0, 71, 0
1, 68608, Note_on_c, 1, 59, 0
1, 68608, Note_on_c, 1, 55, 0
1, 68640, Note_on_c, 0, 67, 100
1, 68704, Note_on_c, 0, 67, 0
1, 68736, Note_on_c, 0, 74, 100
1, 68864, Note_on_c, 0, 74, 0
1, 68928, Note_on_c, 0, 67, 100
1, 68928, Note_on_c, 1, 62, 100
1, 68928, Note_on_c, 1, 59, 100
1, 69056, Note_on_c, 0, 67, 0
1, 69056, Note_on_c, 1, 62, 0
1, 69056, Note_on_c, 1, 59, 0
1, 69120, Note_on_c, 0, 67, 100
1, 69120, Note_on_c, 1, 60, 100
1, 69120, Note_on_c, 1, 57, 100
1, 69376, Note_on_c, 0, 67, 0
1, 69376, Note_on_c, 1, 60, 0
1, 69376, Note_on_c, 1, 57, 0
1, 69504, Note_on_c, 0, 66, 100
1, 69632, Note_on_c, 0, 66, 0
1, 69696, Note_on_c, 0, 69, 100
1, 69824, Note_on_c, 0, 69, 0
1, 69888, Note_on_c, 0, 72, 100
1, 70016, Note_on_c, 0, 72, 0
1, 70080, Note_on_c, 0, 76, 100
1, 70080, Note_on_c, 0, 72, 100
1, 70208, Note_on_c, 0, 76, 0
1, 70208, Note_on_c, 0, 72, 0
1, 70272, Note_on_c, 0, 74, 100
1, 70272, Note_on_c, 0, 71, 100
1, 70400, Note_on_c, 0, 74, 0
1, 70400, Note_on_c, 0, 71, 0
1, 70464, Note_on_c, 0, 72, 100
1, 70464, Note_on_c, 0, 69, 100
1, 70464, Note_on_c, 1, 54, 100
1, 70592, Note_on_c, 0, 72, 0
1, 70592, Note_on_c, 0, 69, 0
1, 70592, Note_on_c, 1, 54, 0
1, 70656, Note_on_c, 0, 72, 100
1, 70656, Note_on_c, 0, 69, 100
1, 70656, Note_on_c, 1, 55, 100
1, 70912, Note_on_c, 0, 72, 0
1, 70912, Note_on_c, 0, 69, 0
1, 70912, Note_on_c, 1, 55, 0
1, 71040, Note_on_c, 0, 71, 100
1, 71040, Note_on_c, 0, 67, 100
1, 71040, Note_on_c, 1, 43, 100
1, 71168, Note_on_c, 0, 71, 0
1, 71168, Note_on_c, 0, 67, 0
1, 71168, Note_on_c, 1, 43, 0
1, 71232, Note_on_c, 0, 67, 100
1, 71360, Note_on_c, 0, 67, 0
1, 71424, Note_on_c, 0, 76, 100
1, 71424, Note_on_c, 1, 60, 100
1, 71424, Note_on_c, 1, 48, 100
1, 71488, Note_on_c, 0, 76, 0
1, 71520, Note_on_c, 0, 75, 100
1, 71584, Note_on_c, 0, 75, 0
1, 71616, Note_on_c, 0, 76, 100
1, 71680, Note_on_c, 0, 76, 0
1, 71680, Note_on_c, 1, 60, 0
1, 71680, Note_on_c, 1, 48, 0
1, 71712, Note_on_c, 0, 78, 100
1, 71776, Note_on_c, 0, 78, 0
1, 71808, Note_on_c, 0, 79, 100
1, 71872, Note_on_c, 0, 79, 0
1, 71904, Note_on_c, 0, 76, 100
1, 71968, Note_on_c, 0, 76, 0
1, 72000, Note_on_c, 0, 74, 100
1, 72064, Note_on_c, 0, 74, 0
1, 72096, Note_on_c, 0, 72, 100
1, 72160, Note_on_c, 0, 72, 0
1, 72192, Note_on_c, 0, 74, 100
1, 72192, Note_on_c, 1, 59, 100
1, 72192, Note_on_c, 1, 47, 100
1, 72320, Note_on_c, 0, 74, 0
1, 72384, Note_on_c, 0, 79, 100
1, 72448, Note_on_c, 0, 79, 0
1, 72448, Note_on_c, 1, 59, 0
1, 72448, Note_on_c, 1, 47, 0
1, 72480, Note_on_c, 0, 83, 100
1, 72544, Note_on_c, 0, 83, 0
1, 72576, Note_on_c, 0, 86, 100
1, 72704, Note_on_c, 0, 86, 0
1, 72768, Note_on_c, 0, 74, 100
1, 72768, Note_on_c, 0, 71, 100
1, 72896, Note_on_c, 0, 74, 0
1, 72896, Note_on_c, 0, 71, 0
1, 72936, Note_on_c, 0, 74, 100
1, 72936, Note_on_c, 0, 71, 100
1, 72952, Note_on_c, 0, 74, 0
1, 72952, Note_on_c, 0, 71, 0
1, 72960, Note_on_c, 0, 72, 100
1, 72960, Note_on_c, 0, 69, 100
1, 72960, Note_on_c, 1, 60, 100
1, 73088, Note_on_c, 0, 72, 0
1, 73088, Note_on_c, 0, 69, 0
1, 73152, Note_on_c, 0, 71, 100
1, 73152, Note_on_c, 0, 67, 100
1, 73216, Note_on_c, 1, 60, 0
1, 73344, Note_on_c, 1, 62, 100
1, 73408, Note_on_c, 0, 71, 0
1, 73408, Note_on_c, 0, 67, 0
1, 73536, Note_on_c, 0, 69, 100
1, 73536, Note_on_c, 0, 66, 100
1, 73600, Note_on_c, 1, 62, 0
1, 73664, Note_on_c, 0, 69, 0
1, 73664, Note_on_c, 0, 66, 0
1, 73728, Note_on_c, 0, 67, 100
1, 73728, Note_on_c, 1, 55, 100
1, 73984, Note_on_c, 0, 67, 0
1, 73984, Note_on_c, 1, 55, 0
1, 74304, Note_on_c, 0, 74, 100
1, 74432, Note_on_c, 0, 74, 0
1, 74496, Note_on_c, 0, 79, 100
1, 74496, Note_on_c, 1, 59, 100
1, 74496, Note_on_c, 1, 55, 100
1, 74560, Note_on_c, 0, 79, 0
1, 74592, Note_on_c, 0, 78, 100
1, 74656, Note_on_c, 0, 78, 0
1, 74688, Note_on_c, 0, 76, 100
1, 74752, Note_on_c, 0, 76, 0
1, 74752, Note_on_c, 1, 59, 0
1, 74752, Note_on_c, 1, 55, 0
1, 74784, Note_on_c, 0, 74, 100
1, 74848, Note_on_c, 0, 74, 0
1, 74880, Note_on_c, 0, 72, 100
1, 74944, Note_on_c, 0, 72, 0
1, 74976, Note_on_c, 0, 71, 100
1, 75040, Note_on_c, 0, 71, 0
1, 75072, Note_on_c, 0, 69, 100
1, 75136, Note_on_c, 0, 69, 0
1, 75168, Note_on_c, 0, 67, 100
1, 75232, Note_on_c, 0, 67, 0
1, 75264, Note_on_c, 0, 66, 100
1, 75264, Note_on_c, 1, 60, 100
1, 75264, Note_on_c, 1, 57, 100
1, 75328, Note_on_c, 0, 66, 0
1, 75360, Note_on_c, 0, 62, 100
1, 75392, Note_on_c, 1, 60, 0
1, 75392, Note_on_c, 1, 57, 0
1, 75424, Note_on_c, 0, 62, 0
1, 75456, Note_on_c, 0, 67, 100
1, 75456, Note_on_c, 1, 59, 100
1, 75456, Note_on_c, 1, 55, 100
1, 75520, Note_on_c, 0, 67, 0
1, 75552, Note_on_c, 0, 62, 100
1, 75584, Note_on_c, 1, 59, 0
1, 75584, Note_on_c, 1, 55, 0
1, 75616, Note_on_c, 0, 62, 0
1, 75648, Note_on_c, 0, 69, 100
1, 75648, Note_on_c, 1, 57, 100
1, 75648, Note_on_c, 1, 54, 100
1, 75712, Note_on_c, 0, 69, 0
1, 75744, Note_on_c, 0, 62, 100
1, 75776, Note_on_c, 1, 57, 0
1, 75776, Note_on_c, 1, 54, 0
1, 75808, Note_on_c, 0, 62, 0
1, 75840, Note_on_c, 0, 71, 100
1, 75840, Note_on_c, 1, 55, 100
1, 75840, Note_on_c, 1, 52, 100
1, 75904, Note_on_c, 0, 71, 0
1, 75936, Note_on_c, 0, 62, 100
1, 75968, Note_on_c, 1, 55, 0
1, 75968, Note_on_c, 1, 52, 0
1, 76000, Note_on_c, 0, 62, 0
1, 76032, Note_on_c, 0, 72, 100
1, 76032, Note_on_c, 1, 54, 100
1, 76032, Note_on_c, 1, 50, 100
1, 76096, Note_on_c, 0, 72, 0
1, 76128, Note_on_c, 0, 71, 100
1, 76192, Note_on_c, 0, 71, 0
1, 76224, Note_on_c, 0, 69, 100
1, 76288, Note_on_c, 0, 69, 0
1, 76288, Note_on_c, 1, 54, 0
1, 76288, Note_on_c, 1, 50, 0
1, 76320, Note_on_c, 0, 67, 100
1, 76384, Note_on_c, 0, 67, 0
1, 76416, Note_on_c, 0, 66, 100
1, 76480, Note_on_c, 0, 66, 0
1, 76512, Note_on_c, 0, 64, 100
1, 76576, Note_on_c, 0, 64, 0
1, 76608, Note_on_c, 0, 62, 100
1, 76672, Note_on_c, 0, 62, 0
1, 76704, Note_on_c, 0, 60, 100
1, 76768, Note_on_c, 0, 60, 0
1, 76800, Note_on_c, 0, 59, 100
1, 76896, Note_on_c, 1, 43, 100
1, 76960, Note_on_c, 1, 43, 0
1, 76992, Note_on_c, 1, 47, 100
1, 77056, Note_on_c, 0, 59, 0
1, 77056, Note_on_c, 1, 47, 0
1, 77088, Note_on_c, 1, 50, 100
1, 77152, Note_on_c, 1, 50, 0
1, 77184, Note_on_c, 1, 55, 100
1, 77376, Note_on_c, 0, 71, 100
1, 77440, Note_on_c, 1, 55, 0
1, 77504, Note_on_c, 0, 71, 0
1, 77568, Note_on_c, 0, 83, 100
1, 77568, Note_on_c, 1, 67, 100
1, 77632, Note_on_c, 0, 83, 0
1, 77664, Note_on_c, 0, 71, 100
1, 77696, Note_on_c, 1, 67, 0
1, 77728, Note_on_c, 0, 71, 0
1, 77760, Note_on_c, 0, 81, 100
1, 77760, Note_on_c, 1, 66, 100
1, 77824, Note_on_c, 0, 81, 0
1, 77856, Note_on_c, 0, 71, 100
1, 77888, Note_on_c, 1, 66, 0
1, 77920, Note_on_c, 0, 71, 0
1, 77952, Note_on_c, 0, 79, 100
1, 77952, Note_on_c, 1, 64, 100
1, 78016, Note_on_c, 0, 79, 0
1, 78048, Note_on_c, 0, 71, 100
1, 78080, Note_on_c, 1, 64, 0
1, 78112, Note_on_c, 0, 71, 0
1, 78144, Note_on_c, 0, 78, 100
1, 78144, Note_on_c, 1, 63, 100
1, 78208, Note_on_c, 0, 78, 0
1, 78240, Note_on_c, 0, 71, 100
1, 78272, Note_on_c, 1, 63, 0
1, 78304, Note_on_c, 0, 71, 0
1, 78336, Note_on_c, 0, 71, 100
1, 78336, Note_on_c, 1, 64, 100
1, 78400, Note_on_c, 0, 71, 0
1, 78432, Note_on_c, 0, 79, 100
1, 78464, Note_on_c, 1, 64, 0
1, 78496, Note_on_c, 0, 79, 0
1, 78528, Note_on_c, 0, 71, 100
1, 78528, Note_on_c, 1, 62, 100
1, 78592, Note_on_c, 0, 71, 0
1, 78624, Note_on_c, 0, 80, 100
1, 78656, Note_on_c, 1, 62, 0
1, 78688, Note_on_c, 0, 80, 0
1, 78720, Note_on_c, 0, 71, 100
1, 78720, Note_on_c, 1, 61, 100
1, 78784, Note_on_c, 0, 71, 0
1, 78816, Note_on_c, 0, 81, 100
1, 78848, Note_on_c, 1, 61, 0
1, 78880, Note_on_c, 0, 81, 0
1, 78912, Note_on_c, 0, 71, 100
1, 78912, Note_on_c, 1, 64, 100
1, 78976, Note_on_c, 0, 71, 0
1, 79008, Note_on_c, 0, 79, 100
1, 79040, Note_on_c, 1, 64, 0
1, 79072, Note_on_c, 0, 79, 0
1, 79104, Note_on_c, 0, 78, 100
1, 79104, Note_on_c, 1, 62, 100
1, 79168, Note_on_c, 0, 78, 0
1, 79200, Note_on_c, 0, 69, 100
1, 79232, Note_on_c, 1, 62, 0
1, 79264, Note_on_c, 0, 69, 0
1, 79296, Note_on_c, 0, 79, 100
1, 79296, Note_on_c, 1, 55, 100
1, 79360, Note_on_c, 0, 79, 0
1, 79392, Note_on_c, 0, 76, 100
1, 79424, Note_on_c, 1, 55, 0
1, 79456, Note_on_c, 0, 76, 0
1, 79488, Note_on_c, 0, 78, 100
1, 79488, Note_on_c, 1, 57, 100
1, 79552, Note_on_c, 0, 78, 0
1, 79584, Note_on_c, 0, 74, 100
1, 79616, Note_on_c, 1, 57, 0
1, 79648, Note_on_c, 0, 74, 0
1, 79680, Note_on_c, 0, 76, 100
1, 79680, Note_on_c, 1, 45, 100
1, 79744, Note_on_c, 0, 76, 0
1, 79776, Note_on_c, 0, 73, 100
1, 79808, Note_on_c, 1, 45, 0
1, 79840, Note_on_c, 0, 73, 0
1, 79872, Note_on_c, 0, 74, 100
1, 79872, Note_on_c, 1, 50, 100
1, 80000, Note_on_c, 1, 50, 0
1, 80064, Note_on_c, 1, 45, 100
1, 80128, Note_on_c, 0, 74, 0
1, 80192, Note_on_c, 1, 45, 0
1, 80256, Note_on_c, 1, 38, 100
1, 80384, Note_on_c, 1, 38, 0
1, 80448, Note_on_c, 0, 74, 100
1, 80576, Note_on_c, 0, 74, 0
1, 80640, Note_on_c, 0, 79, 100
1, 80640, Note_on_c, 1, 59, 100
1, 80640, Note_on_c, 1, 55, 100
1, 80704, Note_on_c, 0, 79, 0
1, 80736, Note_on_c, 0, 78, 100
1, 80800, Note_on_c, 0, 78, 0
1, 80832, Note_on_c, 0, 76, 100
1, 80896, Note_on_c, 0, 76, 0
1, 80896, Note_on_c, 1, 59, 0
1, 80896, Note_on_c, 1, 55, 0
1, 80928, Note_on_c, 0, 74, 100
1, 80992, Note_on_c, 0, 74, 0
1, 81024, Note_on_c, 0, 72, 100
1, 81088, Note_on_c, 0, 72, 0
1, 81120, Note_on_c, 0, 71, 100
1, 81184, Note_on_c, 0, 71, 0
1, 81216, Note_on_c, 0, 69, 100
1, 81280, Note_on_c, 0, 69, 0
1, 81312, Note_on_c, 0, 67, 100
1, 81376, Note_on_c, 0, 67, 0
1, 81408, Note_on_c, 0, 66, 100
1, 81408, Note_on_c, 1, 60, 100
1, 81408, Note_on_c, 1, 57, 100
1, 81472, Note_on_c, 0, 66, 0
1, 81504, Note_on_c, 0, 62, 100
1, 81536, Note_on_c, 1, 60, 0
1, 81536, Note_on_c, 1, 57, 0
1, 81568, Note_on_c, 0, 62, 0
1, 81600, Note_on_c, 0, 67, 100
1, 81600, Note_on_c, 1, 59, 100
1, 81600, Note_on_c, 1, 55, 100
1, 81664, Note_on_c, 0, 67, 0
1, 81696, Note_on_c, 0, 62, 100
1, 81728, Note_on_c, 1, 59, 0
1, 81728, Note_on_c, 1, 55, 0
1, 81760, Note_on_c, 0, 62, 0
1, 81792, Note_on_c, 0, 69, 100
1, 81792, Note_on_c, 1, 57, 100
1, 81792, Note_on_c, 1, 54, 100
1, 81856, Note_on_c, 0, 69, 0
1, 81888, Note_on_c, 0, 62, 100
1, 81920, Note_on_c, 1, 57, 0
1, 81920, Note_on_c, 1, 54, 0
1, 81952, Note_on_c, 0, 62, 0
1, 81984, Note_on_c, 0, 71, 100
1, 81984, Note_on_c, 1, 55, 100
1, 81984, Note_on_c, 1, 52, 100
1, 82048, Note_on_c, 0, 71, 0
1, 82080, Note_on_c, 0, 62, 100
1, 82112, Note_on_c, 1, 55, 0
1, 82112, Note_on_c, 1, 52, 0
1, 82144, Note_on_c, 0, 62, 0
1, 82176, Note_on_c, 0, 72, 100
1, 82176, Note_on_c, 1, 54, 100
1, 82176, Note_on_c, 1, 50, 100
1, 82240, Note_on_c, 0, 72, 0
1, 82272, Note_on_c, 0, 71, 100
1, 82336, Note_on_c, 0, 71, 0
1, 82368, Note_on_c, 0, 69, 100
1, 82432, Note_on_c, 0, 69, 0
1, 82432, Note_on_c, 1, 54, 0
1, 82432, Note_on_c, 1, 50, 0
1, 82464, Note_on_c, 0, 67, 100
1, 82528, Note_on_c, 0, 67, 0
1, 82560, Note_on_c, 0, 66, 100
1, 82624, Note_on_c, 0, 66, 0
1, 82656, Note_on_c, 0, 64, 100
1, 82720, Note_on_c, 0, 64, 0
1, 82752, Note_on_c, 0, 62, 100
1, 82816, Note_on_c, 0, 62, 0
1, 82848, Note_on_c, 0, 60, 100
1, 82912, Note_on_c, 0, 60, 0
1, 82944, Note_on_c, 0, 59, 100
1, 83040, Note_on_c, 1, 43, 100
1, 83104, Note_on_c, 1, 43, 0
1, 83136, Note_on_c, 1, 47, 100
1, 83200, Note_on_c, 0, 59, 0
1, 83200, Note_on_c, 1, 47, 0
1, 83232, Note_on_c, 1, 50, 100
1, 83296, Note_on_c, 1, 50, 0
1, 83328, Note_on_c, 1, 55, 100
1, 83520, Note_on_c, 0, 71, 100
1, 83584, Note_on_c, 1, 55, 0
1, 83648, Note_on_c, 0, 71, 0
1, 83712, Note_on_c, 0, 83, 100
1, 83712, Note_on_c, 1, 67, 100
1, 83776, Note_on_c, 0, 83, 0
1, 83808, Note_on_c, 0, 71, 100
1, 83840, Note_on_c, 1, 67, 0
1, 83872, Note_on_c, 0, 71, 0
1, 83904, Note_on_c, 0, 81, 100
1, 83904, Note_on_c, 1, 66, 100
1, 83968, Note_on_c, 0, 81, 0
1, 84000, Note_on_c, 0, 71, 100
1, 84032, Note_on_c, 1, 66, 0
1, 84064, Note_on_c, 0, 71, 0
1, 84096, Note_on_c, 0, 79, 100
1, 84096, Note_on_c, 1, 64, 100
1, 84160, Note_on_c, 0, 79, 0
1, 84192, Note_on_c, 0, 71, 100
1, 84224, Note_on_c, 1, 64, 0
1, 84256, Note_on_c, 0, 71, 0
1, 84288, Note_on_c, 0, 78, 100
1, 84288, Note_on_c, 1, 63, 100
1, 84352, Note_on_c, 0, 78, 0
1, 84384, Note_on_c, 0, 71, 100
1, 84416, Note_on_c, 1, 63, 0
1, 84448, Note_on_c, 0, 71, 0
1, 84480, Note_on_c, 0, 71, 100
1, 84480, Note_on_c, 1, 64, 100
1, 84544, Note_on_c, 0, 71, 0
1, 84576, Note_on_c, 0, 79, 100
1, 84608, Note_on_c, 1, 64, 0
1, 84640, Note_on_c, 0, 79, 0
1, 84672, Note_on_c, 0, 71, 100
1, 84672, Note_on_c, 1, 62, 100
1, 84736, Note_on_c, 0, 71, 0
1, 84768, Note_on_c, 0, 80, 100
1, 84800, Note_on_c, 1, 62, 0
1, 84832, Note_on_c, 0, 80, 0
1, 84864, Note_on_c, 0, 71, 100
1, 84864, Note_on_c, 1, 61, 100
1, 84928, Note_on_c, 0, 71, 0
1, 84960, Note_on_c, 0, 81, 100
1, 84992, Note_on_c, 1, 61, 0
1, 85024, Note_on_c, 0, 81, 0
1, 85056, Note_on_c, 0, 71, 100
1, 85056, Note_on_c, 1, 64, 100
1, 85120, Note_on_c, 0, 71, 0
1, 85152, Note_on_c, 0, 79, 100
1, 85184, Note_on_c, 1, 64, 0
1, 85216, Note_on_c, 0, 79, 0
1, 85248, Note_on_c, 0, 78, 100
1, 85248, Note_on_c, 1, 62, 100
1, 85312, Note_on_c, 0, 78, 0
1, 85344, Note_on_c, 0, 69, 100
1, 85376, Note_on_c, 1, 62, 0
1, 85408, Note_on_c, 0, 69, 0
1, 85440, Note_on_c, 0, 79, 100
1, 85440, Note_on_c, 1, 55, 100
1, 85504, Note_on_c, 0, 79, 0
1, 85536, Note_on_c, 0, 76, 100
1, 85568, Note_on_c, 1, 55, 0
1, 85600, Note_on_c, 0, 76, 0
1, 85632, Note_on_c, 0, 78, 100
1, 85632, Note_on_c, 1, 57, 100
1, 85696, Note_on_c, 0, 78, 0
1, 85728, Note_on_c, 0, 74, 100
1, 85760, Note_on_c, 1, 57, 0
1, 85792, Note_on_c, 0, 74, 0
1, 85824, Note_on_c, 0, 76, 100
1, 85824, Note_on_c, 1, 45, 100
1, 85888, Note_on_c, 0, 76, 0
1, 85920, Note_on_c, 0, 73, 100
1, 85952, Note_on_c, 1, 45, 0
1, 85984, Note_on_c, 0, 73, 0
1, 86016, Note_on_c, 0, 74, 100
1, 86016, Note_on_c, 1, 50, 100
1, 86144, Note_on_c, 1, 50, 0
1, 86208, Note_on_c, 1, 45, 100
1, 86272, Note_on_c, 0, 74, 0
1, 86336, Note_on_c, 1, 45, 0
1, 86400, Note_on_c, 1, 38, 100
1, 86528, Note_on_c, 1, 38, 0
1, 86592, Note_on_c, 0, 74, 100
1, 86720, Note_on_c, 0, 74, 0
1, 86784, Note_on_c, 0, 86, 100
1, 86784, Note_on_c, 1, 71, 100
1, 86848, Note_on_c, 0, 86, 0
1, 86880, Note_on_c, 0, 74, 100
1, 86912, Note_on_c, 1, 71, 0
1, 86944, Note_on_c, 0, 74, 0
1, 86976, Note_on_c, 0, 84, 100
1, 86976, Note_on_c, 1, 69, 100
1, 87040, Note_on_c, 0, 84, 0
1, 87072, Note_on_c, 0, 74, 100
1, 87104, Note_on_c, 1, 69, 0
1, 87136, Note_on_c, 0, 74, 0
1, 87168, Note_on_c, 0, 83, 100
1, 87168, Note_on_c, 1, 68, 100
1, 87296, Note_on_c, 0, 83, 0
1, 87296, Note_on_c, 1, 68, 0
1, 87360, Note_on_c, 0, 80, 100
1, 87360, Note_on_c, 1, 74, 100
1, 87424, Note_on_c, 0, 80, 0
1, 87456, Note_on_c, 0, 76, 100
1, 87488, Note_on_c, 1, 74, 0
1, 87520, Note_on_c, 0, 76, 0
1, 87552, Note_on_c, 0, 81, 100
1, 87552, Note_on_c, 1, 72, 100
1, 87616, Note_on_c, 0, 81, 0
1, 87648, Note_on_c, 0, 76, 100
1, 87680, Note_on_c, 1, 72, 0
1, 87712, Note_on_c, 0, 76, 0
1, 87744, Note_on_c, 0, 83, 100
1, 87744, Note_on_c, 1, 71, 100
1, 87808, Note_on_c, 0, 83, 0
1, 87840, Note_on_c, 0, 76, 100
1, 87872, Note_on_c, 1, 71, 0
1, 87904, Note_on_c, 0, 76, 0
1, 87936, Note_on_c, 0, 84, 100
1, 87936, Note_on_c, 1, 69, 100
1, 88064, Note_on_c, 0, 84, 0
1, 88064, Note_on_c, 1, 69, 0
1, 88128, Note_on_c, 0, 72, 100
1, 88256, Note_on_c, 0, 72, 0
1, 88320, Note_on_c, 0, 84, 100
1, 88320, Note_on_c, 1, 69, 100
1, 88384, Note_on_c, 0, 84, 0
1, 88416, Note_on_c, 0, 72, 100
1, 88448, Note_on_c, 1, 69, 0
1, 88480, Note_on_c, 0, 72, 0
1, 88512, Note_on_c, 0, 83, 100
1, 88512, Note_on_c, 1, 67, 100
1, 88576, Note_on_c, 0, 83, 0
1, 88608, Note_on_c, 0, 72, 100
1, 88640, Note_on_c, 1, 67, 0
1, 88672, Note_on_c, 0, 72, 0
1, 88704, Note_on_c, 0, 81, 100
1, 88704, Note_on_c, 1, 66, 100
1, 88832, Note_on_c, 0, 81, 0
1, 88832, Note_on_c, 1, 66, 0
1, 88896, Note_on_c, 0, 78, 100
1, 88896, Note_on_c, 1, 72, 100
1, 88960, Note_on_c, 0, 78, 0
1, 88992, Note_on_c, 0, 74, 100
1, 89024, Note_on_c, 1, 72, 0
1, 89056, Note_on_c, 0, 74, 0
1, 89088, Note_on_c, 0, 79, 100
1, 89088, Note_on_c, 1, 71, 100
1, 89152, Note_on_c, 0, 79, 0
1, 89184, Note_on_c, 0, 74, 100
1, 89216, Note_on_c, 1, 71, 0
1, 89248, Note_on_c, 0, 74, 0
1, 89280, Note_on_c, 0, 81, 100
1, 89280, Note_on_c, 1, 69, 100
1, 89344, Note_on_c, 0, 81, 0
1, 89376, Note_on_c, 0, 74, 100
1, 89408, Note_on_c, 1, 69, 0
1, 89440, Note_on_c, 0, 74, 0
1, 89472, Note_on_c, 0, 83, 100
1, 89472, Note_on_c, 1, 67, 100
1, 89600, Note_on_c, 0, 83, 0
1, 89600, Note_on_c, 1, 67, 0
1, 89664, Note_on_c, 0, 74, 100
1, 89664, Note_on_c, 1, 59, 100
1, 89728, Note_on_c, 0, 74, 0
1, 89760, Note_on_c, 0, 67, 100
1, 89792, Note_on_c, 1, 59, 0
1, 89824, Note_on_c, 0, 67, 0
1, 89856, Note_on_c, 0, 76, 100
1, 89856, Note_on_c, 1, 60, 100
1, 89920, Note_on_c, 0, 76, 0
1, 89952, Note_on_c, 0, 67, 100
1, 89984, Note_on_c, 1, 60, 0
1, 90016, Note_on_c, 0, 67, 0
1, 90048, Note_on_c, 0, 77, 100
1, 90048, Note_on_c, 1, 62, 100
1, 90112, Note_on_c, 0, 77, 0
1, 90144, Note_on_c, 0, 67, 100
1, 90176, Note_on_c, 1, 62, 0
1, 90208, Note_on_c, 0, 67, 0
1, 90240, Note_on_c, 0, 76, 100
1, 90240, Note_on_c, 1, 60, 100
1, 90368, Note_on_c, 0, 76, 0
1, 90368, Note_on_c, 1, 60, 0
1, 90432, Note_on_c, 0, 76, 100
1, 90432, Note_on_c, 1, 61, 100
1, 90496, Note_on_c, 0, 76, 0
1, 90528, Note_on_c, 0, 69, 100
1, 90560, Note_on_c, 1, 61, 0
1, 90592, Note_on_c, 0, 69, 0
1, 90624, Note_on_c, 0, 78, 100
1, 90624, Note_on_c, 1, 62, 100
1, 90688, Note_on_c, 0, 78, 0
1, 90720, Note_on_c, 0, 69, 100
1, 90752, Note_on_c, 1, 62, 0
1, 90784, Note_on_c, 0, 69, 0
1, 90816, Note_on_c, 0, 79, 100
1, 90816, Note_on_c, 1, 64, 100
1, 90880, Note_on_c, 0, 79, 0
1, 90912, Note_on_c, 0, 69, 100
1, 90944, Note_on_c, 1, 64, 0
1, 90976, Note_on_c, 0, 69, 0
1, 91008, Note_on_c, 0, 78, 100
1, 91008, Note_on_c, 1, 62, 100
1, 91136, Note_on_c, 0, 78, 0
1, 91136, Note_on_c, 1, 62, 0
1, 91200, Note_on_c, 0, 78, 100
1, 91200, Note_on_c, 1, 63, 100
1, 91264, Note_on_c, 0, 78, 0
1, 91296, Note_on_c, 0, 71, 100
1, 91328, Note_on_c, 1, 63, 0
1, 91360, Note_on_c, 0, 71, 0
1, 91392, Note_on_c, 0, 79, 100
1, 91392, Note_on_c, 1, 64, 100
1, 91456, Note_on_c, 0, 79, 0
1, 91488, Note_on_c, 0, 71, 100
1, 91552, Note_on_c, 0, 71, 0
1, 91584, Note_on_c, 0, 72, 100
1, 91648, Note_on_c, 0, 72, 0
1, 91680, Note_on_c, 0, 81, 100
1, 91744, Note_on_c, 0, 81, 0
1, 91776, Note_on_c, 0, 72, 100
1, 91904, Note_on_c, 0, 72, 0
1, 91904, Note_on_c, 1, 64, 0
1, 91968, Note_on_c, 0, 71, 100
1, 91968, Note_on_c, 1, 67, 100
1, 92096, Note_on_c, 0, 71, 0
1, 92096, Note_on_c, 1, 67, 0
1, 92160, Note_on_c, 0, 71, 100
1, 92160, Note_on_c, 1, 59, 100
1, 92160, Note_on_c, 1, 67, 100
1, 92176, Note_on_c, 0, 71, 0
1, 92184, Note_on_c, 0, 72, 100
1, 92200, Note_on_c, 0, 72, 0
1, 92208, Note_on_c, 0, 71, 100
1, 92224, Note_on_c, 0, 71, 0
1, 92232, Note_on_c, 0, 72, 100
1, 92248, Note_on_c, 0, 72, 0
1, 92256, Note_on_c, 0, 71, 100
1, 92272, Note_on_c, 0, 71, 0
1, 92280, Note_on_c, 0, 72, 100
1, 92296, Note_on_c, 0, 72, 0
1, 92304, Note_on_c, 0, 71, 100
1, 92320, Note_on_c, 0, 71, 0
1, 92328, Note_on_c, 0, 72, 100
1, 92344, Note_on_c, 0, 72, 0
1, 92352, Note_on_c, 0, 71, 100
1, 92368, Note_on_c, 0, 71, 0
1, 92376, Note_on_c, 0, 72, 100
1, 92392, Note_on_c, 0, 72, 0
1, 92400, Note_on_c, 0, 71, 100
1, 92416, Note_on_c, 0, 71, 0
1, 92416, Note_on_c, 1, 59, 0
1, 92416, Note_on_c, 1, 67, 0
1, 92424, Note_on_c, 0, 72, 100
1, 92440, Note_on_c, 0, 72, 0
1, 92448, Note_on_c, 0, 71, 100
1, 92464, Note_on_c, 0, 71, 0
1, 92472, Note_on_c, 0, 72, 100
1, 92488, Note_on_c, 0, 72, 0
1, 92496, Note_on_c, 0, 71, 100
1, 92512, Note_on_c, 0, 71, 0
1, 92520, Note_on_c, 0, 72, 100
1, 92536, Note_on_c, 0, 72, 0
1, 92544, Note_on_c, 0, 69, 100
1, 92544, Note_on_c, 1, 62, 100
1, 92544, Note_on_c, 1, 66, 100
1, 92672, Note_on_c, 0, 69, 0
1, 92672, Note_on_c, 1, 62, 0
1, 92672, Note_on_c, 1, 66, 0
1, 92736, Note_on_c, 0, 74, 100
1, 92864, Note_on_c, 0, 74, 0
1, 92928, Note_on_c, 0, 79, 100
1, 92928, Note_on_c, 1, 59, 100
1, 92928, Note_on_c, 1, 55, 100
1, 92992, Note_on_c, 0, 79, 0
1, 93024, Note_on_c, 0, 78, 100
1, 93088, Note_on_c, 0, 78, 0
1, 93120, Note_on_c, 0, 76, 100
1, 93184, Note_on_c, 0, 76, 0
1, 93184, Note_on_c, 1, 59, 0
1, 93184, Note_on_c, 1, 55, 0
1, 93216, Note_on_c, 0, 74, 100
1, 93280, Note_on_c, 0, 74, 0
1, 93312, Note_on_c, 0, 72, 100
1, 93376, Note_on_c, 0, 72, 0
1, 93408, Note_on_c, 0, 71, 100
1, 93472, Note_on_c, 0, 71, 0
1, 93504, Note_on_c, 0, 69, 100
1, 93568, Note_on_c, 0, 69, 0
1, 93600, Note_on_c, 0, 67, 100
1, 93664, Note_on_c, 0, 67, 0
1, 93696, Note_on_c, 0, 66, 100
1, 93696, Note_on_c, 1, 60, 100
1, 93696, Note_on_c, 1, 57, 100
1, 93760, Note_on_c, 0, 66, 0
1, 93792, Note_on_c, 0, 62, 100
1, 93824, Note_on_c, 1, 60, 0
1, 93824, Note_on_c, 1, 57, 0
1, 93856, Note_on_c, 0, 62, 0
1, 93888, Note_on_c, 0, 67, 100
1, 93888, Note_on_c, 1, 59, 100
1, 93888, Note_on_c, 1, 55, 100
1, 93952, Note_on_c, 0, 67, 0
1, 93984, Note_on_c, 0, 62, 100
1, 94016, Note_on_c, 1, 59, 0
1, 94016, Note_on_c, 1, 55, 0
1, 94048, Note_on_c, 0, 62, 0
1, 94080, Note_on_c, 0, 69, 100
1, 94080, Note_on_c, 1, 57, 100
1, 94080, Note_on_c, 1, 54, 100
1, 94144, Note_on_c, 0, 69, 0
1, 94176, Note_on_c, 0, 62, 100
1, 94208, Note_on_c, 1, 57, 0
1, 94208, Note_on_c, 1, 54, 0
1, 94240, Note_on_c, 0, 62, 0
1, 94272, Note_on_c, 0, 71, 100
1, 94272, Note_on_c, 1, 55, 100
1, 94272, Note_on_c, 1, 52, 100
1, 94336, Note_on_c, 0, 71, 0
1, 94368, Note_on_c, 0, 62, 100
1, 94400, Note_on_c, 1, 55, 0
1, 94400, Note_on_c, 1, 52, 0
1, 94432, Note_on_c, 0, 62, 0
1, 94464, Note_on_c, 0, 72, 100
1, 94464, Note_on_c, 1, 54, 100
1, 94464, Note_on_c, 1, 50, 100
1, 94528, Note_on_c, 0, 72, 0
1, 94560, Note_on_c, 0, 71, 100
1, 94624, Note_on_c, 0, 71, 0
1, 94656, Note_on_c, 0, 69, 100
1, 94720, Note_on_c, 0, 69, 0
1, 94720, Note_on_c, 1, 54, 0
1, 94720, Note_on_c, 1, 50, 0
1, 94752, Note_on_c, 0, 67, 100
1, 94816, Note_on_c, 0, 67, 0
1, 94848, Note_on_c, 0, 66, 100
1, 94912, Note_on_c, 0, 66, 0
1, 94944, Note_on_c, 0, 64, 100
1, 95008, Note_on_c, 0, 64, 0
1, 95040, Note_on_c, 0, 62, 100
1, 95104, Note_on_c, 0, 62, 0
1, 95136, Note_on_c, 0, 60, 100
1, 95200, Note_on_c, 0, 60, 0
1, 95232, Note_on_c, 0, 59, 100
1, 95232, Note_on_c, 1, 43, 100
1, 95296, Note_on_c, 0, 59, 0
1, 95328, Note_on_c, 0, 55, 100
1, 95360, Note_on_c, 1, 43, 0
1, 95392, Note_on_c, 0, 55, 0
1, 95424, Note_on_c, 0, 60, 100
1, 95424, Note_on_c, 1, 45, 100
1, 95488, Note_on_c, 0, 60, 0
1, 95520, Note_on_c, 0, 55, 100
1, 95552, Note_on_c, 1, 45, 0
1, 95584, Note_on_c, 0, 55, 0
1, 95616, Note_on_c, 0, 62, 100
1, 95616, Note_on_c, 1, 47, 100
1, 95680, Note_on_c, 0, 62, 0
1, 95712, Note_on_c, 0, 55, 100
1, 95744, Note_on_c, 1, 47, 0
1, 95776, Note_on_c, 0, 55, 0
1, 95808, Note_on_c, 0, 59, 100
1, 95808, Note_on_c, 1, 43, 100
1, 95872, Note_on_c, 0, 59, 0
1, 95904, Note_on_c, 0, 55, 100
1, 95936, Note_on_c, 1, 43, 0
1, 95968, Note_on_c, 0, 55, 0
1, 96000, Note_on_c, 0, 64, 100
1, 96000, Note_on_c, 1, 48, 100
1, 96064, Note_on_c, 0, 64, 0
1, 96096, Note_on_c, 0, 55, 100
1, 96128, Note_on_c, 1, 48, 0
1, 96160, Note_on_c, 0, 55, 0
1, 96192, Note_on_c, 0, 63, 100
1, 96192, Note_on_c, 1, 47, 100
1, 96256, Note_on_c, 0, 63, 0
1, 96288, Note_on_c, 0, 55, 100
1, 96320, Note_on_c, 1, 47, 0
1, 96352, Note_on_c, 0, 55, 0
1, 96384, Note_on_c, 0, 64, 100
1, 96384, Note_on_c, 1, 48, 100
1, 96448, Note_on_c, 0, 64, 0
1, 96480, Note_on_c, 0, 55, 100
1, 96512, Note_on_c, 1, 48, 0
1, 96544, Note_on_c, 0, 55, 0
1, 96576, Note_on_c, 0, 66, 100
1, 96576, Note_on_c, 1, 45, 100
1, 96640, Note_on_c, 0, 66, 0
1, 96672, Note_on_c, 0, 55, 100
1, 96704, Note_on_c, 1, 45, 0
1, 96736, Note_on_c, 0, 55, 0
1, 96768, Note_on_c, 0, 67, 100
1, 96768, Note_on_c, 1, 47, 100
1, 96832, Note_on_c, 0, 67, 0
1, 96864, Note_on_c, 0, 66, 100
1, 96928, Note_on_c, 0, 66, 0
1, 96960, Note_on_c, 0, 64, 100
1, 97024, Note_on_c, 0, 64, 0
1, 97024, Note_on_c, 1, 47, 0
1, 97056, Note_on_c, 0, 62, 100
1, 97120, Note_on_c, 0, 62, 0
1, 97152, Note_on_c, 0, 60, 100
1, 97216, Note_on_c, 0, 60, 0
1, 97248, Note_on_c, 0, 59, 100
1, 97312, Note_on_c, 0, 59, 0
1, 97344, Note_on_c, 0, 57, 100
1, 97408, Note_on_c, 0, 57, 0
1, 97440, Note_on_c, 0, 55, 100
1, 97504, Note_on_c, 0, 55, 0
1, 97536, Note_on_c, 0, 57, 100
1, 97664, Note_on_c, 0, 57, 0
1, 97728, Note_on_c, 0, 60, 100
1, 97728, Note_on_c, 1, 48, 100
1, 97792, Note_on_c, 0, 60, 0
1, 97824, Note_on_c, 0, 57, 100
1, 97856, Note_on_c, 1, 48, 0
1, 97888, Note_on_c, 0, 57, 0
1, 97920, Note_on_c, 0, 59, 100
1, 97920, Note_on_c, 1, 50, 100
1, 97984, Note_on_c, 0, 59, 0
1, 98016, Note_on_c, 0, 55, 100
1, 98048, Note_on_c, 1, 50, 0
1, 98080, Note_on_c, 0, 55, 0
1, 98112, Note_on_c, 0, 57, 100
1, 98112, Note_on_c, 1, 38, 100
1, 98176, Note_on_c, 0, 57, 0
1, 98208, Note_on_c, 0, 54, 100
1, 98240, Note_on_c, 1, 38, 0
1, 98272, Note_on_c, 0, 54, 0
1, 98304, Note_on_c, 0, 55, 100
1, 98304, Note_on_c, 1, 43, 100
1, 98432, Note_on_c, 1, 43, 0
1, 98496, Note_on_c, 1, 38, 100
1, 98560, Note_on_c, 0, 55, 0
1, 98624, Note_on_c, 1, 38, 0
1, 98688, Note_on_c, 1, 31, 100
1, 98816, Note_on_c, 1, 31, 0
1, 98880, Note_on_c, 0, 74, 100
1, 99008, Note_on_c, 0, 74, 0
1, 99072, Note_on_c, 0, 86, 100
1, 99072, Note_on_c, 1, 71, 100
1, 99136, Note_on_c, 0, 86, 0
1, 99168, Note_on_c, 0, 74, 100
1, 99200, Note_on_c, 1, 71, 0
1, 99232, Note_on_c, 0, 74, 0
1, 99264, Note_on_c, 0, 84, 100
1, 99264, Note_on_c, 1, 69, 100
1, 99328, Note_on_c, 0, 84, 0
1, 99360, Note_on_c, 0, 74, 100
1, 99392, Note_on_c, 1, 69, 0
1, 99424, Note_on_c, 0, 74, 0
1, 99456, Note_on_c, 0, 83, 100
1, 99456, Note_on_c, 1, 68, 100
1, 99584, Note_on_c, 0, 83, 0
1, 99584, Note_on_c, 1, 68, 0
1, 99648, Note_on_c, 0, 80, 100
1, 99648, Note_on_c, 1, 74, 100
1, 99712, Note_on_c, 0, 80, 0
1, 99744, Note_on_c, 0, 76, 100
1, 99776, Note_on_c, 1, 74, 0
1, 99808, Note_on_c, 0, 76, 0
1, 99840, Note_on_c, 0, 81, 100
1, 99840, Note_on_c, 1, 72, 100
1, 99904, Note_on_c, 0, 81, 0
1, 99936, Note_on_c, 0, 76, 100
1, 99968, Note_on_c, 1, 72, 0
1, 100000, Note_on_c, 0, 76, 0
1, 100032, Note_on_c, 0, 83, 100
1, 100032, Note_on_c, 1, 71, 100
1, 100096, Note_on_c, 0, 83, 0
1, 100128, Note_on_c, 0, 76, 100
1, 100160, Note_on_c, 1, 71, 0
1, 100192, Note_on_c, 0, 76, 0
1, 100224, Note_on_c, 0, 84, 100
1, 100224, Note_on_c, 1, 69, 100
1, 100352, Note_on_c, 0, 84, 0
1, 100352, Note_on_c, 1, 69, 0
1, 100416, Note_on_c, 0, 72, 100
1, 100544, Note_on_c, 0, 72, 0
1, 100608, Note_on_c, 0, 84, 100
1, 100608, Note_on_c, 1, 69, 100
1, 100672, Note_on_c, 0, 84, 0
1, 100704, Note_on_c, 0, 72, 100
1, 100736, Note_on_c, 1, 69, 0
1, 100768, Note_on_c, 0, 72, 0
1, 100800, Note_on_c, 0, 83, 100
1, 100800, Note_on_c, 1, 67, 100
1, 100864, Note_on_c, 0, 83, 0
1, 100896, Note_on_c, 0, 72, 100
1, 100928, Note_on_c, 1, 67, 0
1, 100960, Note_on_c, 0, 72, 0
1, 100992, Note_on_c, 0, 81, 100
1, 100992, Note_on_c, 1, 66, 100
1, 101120, Note_on_c, 0, 81, 0
1, 101120, Note_on_c, 1, 66, 0
1, 101184, Note_on_c, 0, 78, 100
1, 101184, Note_on_c, 1, 72, 100
1, 101248, Note_on_c, 0, 78, 0
1, 101280, Note_on_c, 0, 74, 100
1, 101312, Note_on_c, 1, 72, 0
1, 101344, Note_on_c, 0, 74, 0
1, 101376, Note_on_c, 0, 79, 100
1, 101376, Note_on_c, 1, 71, 100
1, 101440, Note_on_c, 0, 79, 0
1, 101472, Note_on_c, 0, 74, 100
1, 101504, Note_on_c, 1, 71, 0
1, 101536, Note_on_c, 0, 74, 0
1, 101568, Note_on_c, 0, 81, 100
1, 101568, Note_on_c, 1, 69, 100
1, 101632, Note_on_c, 0, 81, 0
1, 101664, Note_on_c, 0, 74, 100
1, 101696, Note_on_c, 1, 69, 0
1, 101728, Note_on_c, 0, 74, 0
1, 101760, Note_on_c, 0, 83, 100
1, 101760, Note_on_c, 1, 67, 100
1, 101888, Note_on_c, 0, 83, 0
1, 101888, Note_on_c, 1, 67, 0
1, 101952, Note_on_c, 0, 74, 100
1, 101952, Note_on_c, 1, 59, 100
1, 102016, Note_on_c, 0, 74, 0
1, 102048, Note_on_c, 0, 67, 100
1, 102080, Note_on_c, 1, 59, 0
1, 102112, Note_on_c, 0, 67, 0
1, 102144, Note_on_c, 0, 76, 100
1, 102144, Note_on_c, 1, 60, 100
1, 102208, Note_on_c, 0, 76, 0
1, 102240, Note_on_c, 0, 67, 100
1, 102272, Note_on_c, 1, 60, 0
1, 102304, Note_on_c, 0, 67, 0
1, 102336, Note_on_c, 0, 77, 100
1, 102336, Note_on_c, 1, 62, 100
1, 102400, Note_on_c, 0, 77, 0
1, 102432, Note_on_c, 0, 67, 100
1, 102464, Note_on_c, 1, 62, 0
1, 102496, Note_on_c, 0, 67, 0
1, 102528, Note_on_c, 0, 76, 100
1, 102528, Note_on_c, 1, 60, 100
1, 102656, Note_on_c, 0, 76, 0
1, 102656, Note_on_c, 1, 60, 0
1, 102720, Note_on_c, 0, 76, 100
1, 102720, Note_on_c, 1, 61, 100
1, 102784, Note_on_c, 0, 76, 0
1, 102816, Note_on_c, 0, 69, 100
1, 102848, Note_on_c, 1, 61, 0
1, 102880, Note_on_c, 0, 69, 0
1, 102912, Note_on_c, 0, 78, 100
1, 102912, Note_on_c, 1, 62, 100
1, 102976, Note_on_c, 0, 78, 0
1, 103008, Note_on_c, 0, 69, 100
1, 103040, Note_on_c, 1, 62, 0
1, 103072, Note_on_c, 0, 69, 0
1, 103104, Note_on_c, 0, 79, 100
1, 103104, Note_on_c, 1, 64, 100
1, 103168, Note_on_c, 0, 79, 0
1, 103200, Note_on_c, 0, 69, 100
1, 103232, Note_on_c, 1, 64, 0
1, 103264, Note_on_c, 0, 69, 0
1, 103296, Note_on_c, 0, 78, 100
1, 103296, Note_on_c, 1, 62, 100
1, 103424, Note_on_c, 0, 78, 0
1, 103424, Note_on_c, 1, 62, 0
1, 103488, Note_on_c, 0, 78, 100
1, 103488, Note_on_c, 1, 63, 100
1, 103552, Note_on_c, 0, 78, 0
1, 103584, Note_on_c, 0, 71, 100
1, 103616, Note_on_c, 1, 63, 0
1, 103648, Note_on_c, 0, 71, 0
1, 103680, Note_on_c, 0, 79, 100
1, 103680, Note_on_c, 1, 64, 100
1, 103744, Note_on_c, 0, 79, 0
1, 103776, Note_on_c, 0, 71, 100
1, 103840, Note_on_c, 0, 71, 0
1, 103872, Note_on_c, 0, 72, 100
1, 103936, Note_on_c, 0, 72, 0
1, 103968, Note_on_c, 0, 81, 100
1, 104032, Note_on_c, 0, 81, 0
1, 104064, Note_on_c, 0, 72, 100
1, 104192, Note_on_c, 0, 72, 0
1, 104192, Note_on_c, 1, 64, 0
1, 104256, Note_on_c, 0, 71, 100
1, 104256, Note_on_c, 1, 67, 100
1, 104384, Note_on_c, 0, 71, 0
1, 104384, Note_on_c, 1, 67, 0
1, 104448, Note_on_c, 0, 71, 100
1, 104448, Note_on_c, 1, 59, 100
1, 104448, Note_on_c, 1, 67, 100
1, 104464, Note_on_c, 0, 71, 0
1, 104472, Note_on_c, 0, 72, 100
1, 104488, Note_on_c, 0, 72, 0
1, 104496, Note_on_c, 0, 71, 100
1, 104512, Note_on_c, 0, 71, 0
1, 104520, Note_on_c, 0, 72, 100
1, 104536, Note_on_c, 0, 72, 0
1, 104544, Note_on_c, 0, 71, 100
1, 104560, Note_on_c, 0, 71, 0
1, 104568, Note_on_c, 0, 72, 100
1, 104584, Note_on_c, 0, 72, 0
1, 104592, Note_on_c, 0, 71, 100
1, 104608, Note_on_c, 0, 71, 0
1, 104616, Note_on_c, 0, 72, 100
1, 104632, Note_on_c, 0, 72, 0
1, 104640, Note_on_c, 0, 71, 100
1, 104656, Note_on_c, 0, 71, 0
1, 104664, Note_on_c, 0, 72, 100
1, 104680, Note_on_c, 0, 72, 0
1, 104688, Note_on_c, 0, 71, 100
1, 104704, Note_on_c, 0, 71, 0
1, 104704, Note_on_c, 1, 59, 0
1, 104704, Note_on_c, 1, 67, 0
1, 104712, Note_on_c, 0, 72, 100
1, 104728, Note_on_c, 0, 72, 0
1, 104736, Note_on_c, 0, 71, 100
1, 104752, Note_on_c, 0, 71, 0
1, 104760, Note_on_c, 0, 72, 100
1, 104776, Note_on_c, 0, 72, 0
1, 104784, Note_on_c, 0, 71, 100
1, 104800, Note_on_c, 0, 71, 0
1, 104808, Note_on_c, 0, 72, 100
1, 104824, Note_on_c, 0, 72, 0
1, 104832, Note_on_c, 0, 69, 100
1, 104832, Note_on_c, 1, 62, 100
1, 104832, Note_on_c, 1, 66, 100
1, 104960, Note_on_c, 0, 69, 0
1, 104960, Note_on_c, 1, 62, 0
1, 104960, Note_on_c, 1, 66, 0
1, 105024, Note_on_c, 0, 74, 100
1, 105152, Note_on_c, 0, 74, 0
1, 105216, Note_on_c, 0, 79, 100
1, 105216, Note_on_c, 1, 59, 100
1, 105216, Note_on_c, 1, 55, 100
1, 105280, Note_on_c, 0, 79, 0
1, 105312, Note_on_c, 0, 78, 100
1, 105376, Note_on_c, 0, 78, 0
1, 105408, Note_on_c, 0, 76, 100
1, 105472, Note_on_c, 0, 76, 0
1, 105472, Note_on_c, 1, 59, 0
1, 105472, Note_on_c, 1, 55, 0
1, 105504, Note_on_c, 0, 74, 100
1, 105568, Note_on_c, 0, 74, 0
1, 105600, Note_on_c, 0, 72, 100
1, 105664, Note_on_c, 0, 72, 0
1, 105696, Note_on_c, 0, 71, 100
1, 105760, Note_on_c, 0, 71, 0
1, 105792, Note_on_c, 0, 69, 100
1, 105856, Note_on_c, 0, 69, 0
1, 105888, Note_on_c, 0, 67, 100
1, 105952, Note_on_c, 0, 67, 0
1, 105984, Note_on_c, 0, 66, 100
1, 105984, Note_on_c, 1, 60, 100
1, 105984, Note_on_c, 1, 57, 100
1, 106048, Note_on_c, 0, 66, 0
1, 106080, Note_on_c, 0, 62, 100
1, 106112, Note_on_c, 1, 60, 0
1, 106112, Note_on_c, 1, 57, 0
1, 106144, Note_on_c, 0, 62, 0
1, 106176, Note_on_c, 0, 67, 100
1, 106176, Note_on_c, 1, 59, 100
1, 106176, Note_on_c, 1, 55, 100
1, 106240, Note_on_c, 0, 67, 0
1, 106272, Note_on_c, 0, 62, 100
1, 106304, Note_on_c, 1, 59, 0
1, 106304, Note_on_c, 1, 55, 0
1, 106336, Note_on_c, 0, 62, 0
1, 106368, Note_on_c, 0, 69, 100
1, 106368, Note_on_c, 1, 57, 100
1, 106368, Note_on_c, 1, 54, 100
1, 106432, Note_on_c, 0, 69, 0
1, 106464, Note_on_c, 0, 62, 100
1, 106496, Note_on_c, 1, 57, 0
1, 106496, Note_on_c, 1, 54, 0
1, 106528, Note_on_c, 0, 62, 0
1, 106560, Note_on_c, 0, 71, 100
1, 106560, Note_on_c, 1, 55, 100
1, 106560, Note_on_c, 1, 52, 100
1, 106624, Note_on_c, 0, 71, 0
1, 106656, Note_on_c, 0, 62, 100
1, 106688, Note_on_c, 1, 55, 0
1, 106688, Note_on_c, 1, 52, 0
1, 106720, Note_on_c, 0, 62, 0
1, 106752, Note_on_c, 0, 72, 100
1, 106752, Note_on_c, 1, 54, 100
1, 106752, Note_on_c, 1, 50, 100
1, 106816, Note_on_c, 0, 72, 0
1, 106848, Note_on_c, 0, 71, 100
1, 106912, Note_on_c, 0, 71, 0
1, 106944, Note_on_c, 0, 69, 100
1, 107008, Note_on_c, 0, 69, 0
1, 107008, Note_on_c, 1, 54, 0
1, 107008, Note_on_c, 1, 50, 0
1, 107040, Note_on_c, 0, 67, 100
1, 107104, Note_on_c, 0, 67, 0
1, 107136, Note_on_c, 0, 66, 100
1, 107200, Note_on_c, 0, 66, 0
1, 107232, Note_on_c, 0, 64, 100
1, 107296, Note_on_c, 0, 64, 0
1, 107328, Note_on_c, 0, 62, 100
1, 107392, Note_on_c, 0, 62, 0
1, 107424, Note_on_c, 0, 60, 100
1, 107488, Note_on_c, 0, 60, 0
1, 107520, Note_on_c, 0, 59, 100
1, 107520, Note_on_c, 1, 43, 100
1, 107584, Note_on_c, 0, 59, 0
1, 107616, Note_on_c, 0, 55, 100
1, 107648, Note_on_c, 1, 43, 0
1, 107680, Note_on_c, 0, 55, 0
1, 107712, Note_on_c, 0, 60, 100
1, 107712, Note_on_c, 1, 45, 100
1, 107776, Note_on_c, 0, 60, 0
1, 107808, Note_on_c, 0, 55, 100
1, 107840, Note_on_c, 1, 45, 0
1, 107872, Note_on_c, 0, 55, 0
1, 107904, Note_on_c, 0, 62, 100
1, 107904, Note_on_c, 1, 47, 100
1, 107968, Note_on_c, 0, 62, 0
1, 108000, Note_on_c, 0, 55, 100
1, 108032, Note_on_c, 1, 47, 0
1, 108064, Note_on_c, 0, 55, 0
1, 108096, Note_on_c, 0, 59, 100
1, 108096, Note_on_c, 1, 43, 100
1, 108160, Note_on_c, 0, 59, 0
1, 108192, Note_on_c, 0, 55, 100
1, 108224, Note_on_c, 1, 43, 0
1, 108256, Note_on_c, 0, 55, 0
1, 108288, Note_on_c, 0, 64, 100
1, 108288, Note_on_c, 1, 48, 100
1, 108352, Note_on_c, 0, 64, 0
1, 108384, Note_on_c, 0, 55, 100
1, 108416, Note_on_c, 1, 48, 0
1, 108448, Note_on_c, 0, 55, 0
1, 108480, Note_on_c, 0, 63, 100
1, 108480, Note_on_c, 1, 47, 100
1, 108544, Note_on_c, 0, 63, 0
1, 108576, Note_on_c, 0, 55, 100
1, 108608, Note_on_c, 1, 47, 0
1, 108640, Note_on_c, 0, 55, 0
1, 108672, Note_on_c, 0, 64, 100
1, 108672, Note_on_c, 1, 48, 100
1, 108736, Note_on_c, 0, 64, 0
1, 108768, Note_on_c, 0, 55, 100
1, 108800, Note_on_c, 1, 48, 0
1, 108832, Note_on_c, 0, 55, 0
1, 108864, Note_on_c, 0, 66, 100
1, 108864, Note_on_c, 1, 45, 100
1, 108928, Note_on_c, 0, 66, 0
1, 108960, Note_on_c, 0, 55, 100
1, 108992, Note_on_c, 1, 45, 0
1, 109024, Note_on_c, 0, 55, 0
1, 109056, Note_on_c, 0, 67, 100
1, 109056, Note_on_c, 1, 47, 100
1, 109120, Note_on_c, 0, 67, 0
1, 109152, Note_on_c, 0, 66, 100
1, 109216, Note_on_c, 0, 66, 0
1, 109248, Note_on_c, 0, 64, 100
1, 109312, Note_on_c, 0, 64, 0
1, 109312, Note_on_c, 1, 47, 0
1, 109344, Note_on_c, 0, 62, 100
1, 109408, Note_on_c, 0, 62, 0
1, 109440, Note_on_c, 0, 60, 100
1, 109504, Note_on_c, 0, 60, 0
1, 109536, Note_on_c, 0, 59, 100
1, 109600, Note_on_c, 0, 59, 0
1, 109632, Note_on_c, 0, 57, 100
1, 109696, Note_on_c, 0, 57, 0
1, 109728, Note_on_c, 0, 55, 100
1, 109792, Note_on_c, 0, 55, 0
1, 109824, Note_on_c, 0, 57, 100
1, 109952, Note_on_c, 0, 57, 0
1, 110016, Note_on_c, 0, 60, 100
1, 110016, Note_on_c, 1, 48, 100
1, 110080, Note_on_c, 0, 60, 0
1, 110112, Note_on_c, 0, 57, 100
1, 110144, Note_on_c, 1, 48, 0
1, 110176, Note_on_c, 0, 57, 0
1, 110208, Note_on_c, 0, 59, 100
1, 110208, Note_on_c, 1, 50, 100
1, 110272, Note_on_c, 0, 59, 0
1, 110304, Note_on_c, 0, 55, 100
1, 110336, Note_on_c, 1, 50, 0
1, 110368, Note_on_c, 0, 55, 0
1, 110400, Note_on_c, 0, 57, 100
1, 110400, Note_on_c, 1, 38, 100
1, 110464, Note_on_c, 0, 57, 0
1, 110496, Note_on_c, 0, 54, 100
1, 110528, Note_on_c, 1, 38, 0
1, 110560, Note_on_c, 0, 54, 0
1, 110592, Note_on_c, 0, 55, 100
1, 110592, Note_on_c, 1, 43, 100
1, 110720, Note_on_c, 1, 43, 0
1, 110784, Note_on_c, 1, 38, 100
1, 110848, Note_on_c, 0, 55, 0
1, 110912, Note_on_c, 1, 38, 0
1, 110976, Note_on_c, 1, 31, 100
1, 111104, Note_on_c, 1, 31, 0
1, 111168, Note_on_c, 0, 62, 100
1, 111296, Note_on_c, 0, 62, 0
1, 111360, Note_on_c, 0, 67, 100
1, 111488, Note_on_c, 0, 67, 0
1, 111552, Note_on_c, 0, 71, 100
1, 111680, Note_on_c, 0, 71, 0
1, 111744, Note_on_c, 0, 74, 100
1, 111872, Note_on_c, 0, 74, 0
1, 111936, Note_on_c, 0, 67, 100
1, 111936, Note_on_c, 1, 62, 100
1, 111936, Note_on_c, 1, 59, 100
1, 112064, Note_on_c, 0, 67, 0
1, 112064, Note_on_c, 1, 62, 0
1, 112064, Note_on_c, 1, 59, 0
1, 112128, Note_on_c, 0, 67, 100
1, 112128, Note_on_c, 1, 60, 100
1, 112128, Note_on_c, 1, 57, 100
1, 112384, Note_on_c, 0, 67, 0
1, 112384, Note_on_c, 1, 60, 0
1, 112384, Note_on_c, 1, 57, 0
1, 112512, Note_on_c, 0, 66, 100
1, 112640, Note_on_c, 0, 66, 0
1, 112704, Note_on_c, 0, 62, 100
1, 112832, Note_on_c, 0, 62, 0
1, 112896, Note_on_c, 0, 69, 100
1, 113024, Note_on_c, 0, 69, 0
1, 113088, Note_on_c, 0, 72, 100
1, 113216, Note_on_c, 0, 72, 0
1, 113280, Note_on_c, 0, 76, 100
1, 113408, Note_on_c, 0, 76, 0
1, 113472, Note_on_c, 0, 72, 100
1, 113472, Note_on_c, 0, 69, 100
1, 113472, Note_on_c, 1, 54, 100
1, 113600, Note_on_c, 0, 72, 0
1, 113600, Note_on_c, 0, 69, 0
1, 113600, Note_on_c, 1, 54, 0
1, 113664, Note_on_c, 0, 72, 100
1, 113664, Note_on_c, 0, 69, 100
1, 113664, Note_on_c, 1, 55, 100
1, 113920, Note_on_c, 0, 72, 0
1, 113920, Note_on_c, 0, 69, 0
1, 113920, Note_on_c, 1, 55, 0
1, 114048, Note_on_c, 0, 71, 100
1, 114048, Note_on_c, 0, 67, 100
1, 114048, Note_on_c, 1, 43, 100
1, 114176, Note_on_c, 0, 71, 0
1, 114176, Note_on_c, 0, 67, 0
1, 114176, Note_on_c, 1, 43, 0
1, 114240, Note_on_c, 0, 71, 100
1, 114368, Note_on_c, 0, 71, 0
1, 114432, Note_on_c, 0, 83, 100
1, 114432, Note_on_c, 1, 67, 100
1, 114560, Note_on_c, 0, 83, 0
1, 114624, Note_on_c, 0, 79, 100
1, 114688, Note_on_c, 1, 67, 0
1, 114752, Note_on_c, 0, 79, 0
1, 114816, Note_on_c, 0, 75, 100
1, 114944, Note_on_c, 0, 75, 0
1, 115008, Note_on_c, 0, 76, 100
1, 115008, Note_on_c, 1, 67, 100
1, 115136, Note_on_c, 0, 76, 0
1, 115136, Note_on_c, 1, 67, 0
1, 115200, Note_on_c, 0, 81, 100
1, 115200, Note_on_c, 1, 66, 100
1, 115328, Note_on_c, 0, 81, 0
1, 115392, Note_on_c, 0, 78, 100
1, 115456, Note_on_c, 1, 66, 0
1, 115520, Note_on_c, 0, 78, 0
1, 115584, Note_on_c, 0, 73, 100
1, 115712, Note_on_c, 0, 73, 0
1, 115776, Note_on_c, 0, 74, 100
1, 115776, Note_on_c, 1, 66, 100
1, 115904, Note_on_c, 0, 74, 0
1, 115904, Note_on_c, 1, 66, 0
1, 115968, Note_on_c, 0, 76, 100
1, 115968, Note_on_c, 1, 67, 100
1, 116096, Note_on_c, 0, 76, 0
1, 116160, Note_on_c, 0, 79, 100
1, 116224, Note_on_c, 1, 67, 0
1, 116352, Note_on_c, 1, 69, 100
1, 116416, Note_on_c, 0, 79, 0
1, 116544, Note_on_c, 0, 73, 100
1, 116608, Note_on_c, 1, 69, 0
1, 116672, Note_on_c, 0, 73, 0
1, 116736, Note_on_c, 0, 74, 100
1, 116736, Note_on_c, 1, 62, 100
1, 116992, Note_on_c, 0, 74, 0
1, 116992, Note_on_c, 1, 62, 0
1, 117120, Note_on_c, 1, 50, 100
1, 117248, Note_on_c, 1, 50, 0
1, 117312, Note_on_c, 0, 62, 100
1, 117440, Note_on_c, 0, 62, 0
1, 117504, Note_on_c, 0, 67, 100
1, 117632, Note_on_c, 0, 67, 0
1, 117696, Note_on_c, 0, 70, 100
1, 117824, Note_on_c, 0, 70, 0
1, 117888, Note_on_c, 0, 74, 100
1, 118016, Note_on_c, 0, 74, 0
1, 118080, Note_on_c, 0, 67, 100
1, 118080, Note_on_c, 1, 62, 100
1, 118080, Note_on_c, 1, 58, 100
1, 118208, Note_on_c, 0, 67, 0
1, 118208, Note_on_c, 1, 62, 0
1, 118208, Note_on_c, 1, 58, 0
1, 118272, Note_on_c, 0, 67, 100
1, 118272, Note_on_c, 1, 60, 100
1, 118272, Note_on_c, 1, 57, 100
1, 118528, Note_on_c, 0, 67, 0
1, 118528, Note_on_c, 1, 60, 0
1, 118528, Note_on_c, 1, 57, 0
1, 118656, Note_on_c, 0, 66, 100
1, 118784, Note_on_c, 0, 66, 0
1, 118848, Note_on_c, 0, 62, 100
1, 118976, Note_on_c, 0, 62, 0
1, 119040, Note_on_c, 0, 69, 100
1, 119168, Note_on_c, 0, 69, 0
1, 119232, Note_on_c, 0, 72, 100
1, 119360, Note_on_c, 0, 72, 0
1, 119424, Note_on_c, 0, 75, 100
1, 119552, Note_on_c, 0, 75, 0
1, 119616, Note_on_c, 0, 72, 100
1, 119616, Note_on_c, 0, 69, 100
1, 119744, Note_on_c, 0, 72, 0
1, 119744, Note_on_c, 0, 69, 0
1, 119808, Note_on_c, 0, 72, 100
1, 119808, Note_on_c, 0, 69, 100
1, 120000, Note_on_c, 1, 54, 100
1, 120064, Note_on_c, 0, 72, 0
1, 120064, Note_on_c, 0, 69, 0
1, 120128, Note_on_c, 1, 54, 0
1, 120192, Note_on_c, 0, 70, 100
1, 120192, Note_on_c, 0, 67, 100
1, 120192, Note_on_c, 1, 55, 100
1, 120320, Note_on_c, 0, 70, 0
1, 120320, Note_on_c, 0, 67, 0
1, 120384, Note_on_c, 0, 67, 100
1, 120448, Note_on_c, 1, 55, 0
1, 120512, Note_on_c, 0, 67, 0
1, 120576, Note_on_c, 0, 70, 100
1, 120576, Note_on_c, 1, 67, 100
1, 120704, Note_on_c, 0, 70, 0
1, 120768, Note_on_c, 0, 74, 100
1, 120832, Note_on_c, 1, 67, 0
1, 120896, Note_on_c, 0, 74, 0
1, 120960, Note_on_c, 0, 75, 100
1, 121088, Note_on_c, 0, 75, 0
1, 121152, Note_on_c, 0, 82, 100
1, 121152, Note_on_c, 1, 67, 100
1, 121280, Note_on_c, 0, 82, 0
1, 121280, Note_on_c, 1, 67, 0
1, 121344, Note_on_c, 0, 81, 100
1, 121344, Note_on_c, 1, 65, 100
1, 121472, Note_on_c, 0, 81, 0
1, 121536, Note_on_c, 0, 73, 100
1, 121600, Note_on_c, 1, 65, 0
1, 121664, Note_on_c, 0, 73, 0
1, 121728, Note_on_c, 0, 74, 100
1, 121856, Note_on_c, 0, 74, 0
1, 121920, Note_on_c, 0, 81, 100
1, 121920, Note_on_c, 0, 77, 100
1, 121920, Note_on_c, 1, 65, 100
1, 122048, Note_on_c, 0, 81, 0
1, 122048, Note_on_c, 0, 77, 0
1, 122048, Note_on_c, 1, 65, 0
1, 122112, Note_on_c, 0, 79, 100
1, 122112, Note_on_c, 0, 76, 100
1, 122112, Note_on_c, 1, 67, 100
1, 122240, Note_on_c, 0, 79, 0
1, 122240, Note_on_c, 0, 76, 0
1, 122304, Note_on_c, 0, 77, 100
1, 122304, Note_on_c, 0, 74, 100
1, 122368, Note_on_c, 1, 67, 0
1, 122496, Note_on_c, 1, 69, 100
1, 122560, Note_on_c, 0, 77, 0
1, 122560, Note_on_c, 0, 74, 0
1, 122688, Note_on_c, 0, 76, 100
1, 122688, Note_on_c, 0, 73, 100
1, 122752, Note_on_c, 1, 69, 0
1, 122816, Note_on_c, 0, 76, 0
1, 122816, Note_on_c, 0, 73, 0
1, 122880, Note_on_c, 0, 74, 100
1, 122880, Note_on_c, 1, 62, 100
1, 123136, Note_on_c, 0, 74, 0
1, 123136, Note_on_c, 1, 62, 0
1, 123264, Note_on_c, 1, 50, 100
1, 123392, Note_on_c, 1, 50, 0
1, 123456, Note_on_c, 0, 74, 100
1, 123584, Note_on_c, 0, 74, 0
1, 123648, Note_on_c, 0, 77, 100
1, 123776, Note_on_c, 0, 77, 0
1, 123840, Note_on_c, 0, 68, 100
1, 123968, Note_on_c, 0, 68, 0
1, 124032, Note_on_c, 0, 67, 100
1, 124160, Note_on_c, 0, 67, 0
1, 124224, Note_on_c, 0, 74, 100
1, 124352, Note_on_c, 0, 74, 0
1, 124416, Note_on_c, 0, 65, 100
1, 124608, Note_on_c, 1, 59, 100
1, 124672, Note_on_c, 0, 65, 0
1, 124736, Note_on_c, 1, 59, 0
1, 124800, Note_on_c, 0, 63, 100
1, 124800, Note_on_c, 1, 60, 100
1, 124928, Note_on_c, 0, 63, 0
1, 124928, Note_on_c, 1, 60, 0
1, 124992, Note_on_c, 0, 75, 100
1, 125120, Note_on_c, 0, 75, 0
1, 125184, Note_on_c, 0, 67, 100
1, 125376, Note_on_c, 1, 61, 100
1, 125440, Note_on_c, 0, 67, 0
1, 125504, Note_on_c, 1, 61, 0
1, 125568, Note_on_c, 0, 66, 100
1, 125568, Note_on_c, 1, 62, 100
1, 125696, Note_on_c, 0, 66, 0
1, 125696, Note_on_c, 1, 62, 0
1, 125760, Note_on_c, 0, 81, 100
1, 125888, Note_on_c, 0, 81, 0
1, 125952, Note_on_c, 0, 72, 100
1, 126144, Note_on_c, 1, 66, 100
1, 126208, Note_on_c, 0, 72, 0
1, 126272, Note_on_c, 1, 66, 0
1, 126336, Note_on_c, 0, 70, 100
1, 126336, Note_on_c, 1, 67, 100
1, 126464, Note_on_c, 0, 70, 0
1, 126464, Note_on_c, 1, 67, 0
1, 126528, Note_on_c, 0, 74, 100
1, 126656, Note_on_c, 0, 74, 0
1, 126720, Note_on_c, 0, 76, 100
1, 126848, Note_on_c, 0, 76, 0
1, 126912, Note_on_c, 0, 79, 100
1, 127040, Note_on_c, 0, 79, 0
1, 127104, Note_on_c, 0, 82, 100
1, 127232, Note_on_c, 0, 82, 0
1, 127296, Note_on_c, 0, 74, 100
1, 127424, Note_on_c, 0, 74, 0
1, 127488, Note_on_c, 0, 73, 100
1, 127680, Note_on_c, 1, 55, 100
1, 127744, Note_on_c, 0, 73, 0
1, 127808, Note_on_c, 1, 55, 0
1, 127872, Note_on_c, 0, 74, 100
1, 127872, Note_on_c, 1, 54, 100
1, 128000, Note_on_c, 0, 74, 0
1, 128000, Note_on_c, 1, 54, 0
1, 128064, Note_on_c, 0, 72, 100
1, 128064, Note_on_c, 1, 66, 100
1, 128192, Note_on_c, 0, 72, 0
1, 128192, Note_on_c, 1, 66, 0
1, 128256, Note_on_c, 0, 70, 100
1, 128256, Note_on_c, 1, 67, 100
1, 128384, Note_on_c, 0, 70, 0
1, 128384, Note_on_c, 1, 67, 0
1, 128448, Note_on_c, 0, 67, 100
1, 128448, Note_on_c, 1, 58, 100
1, 128576, Note_on_c, 0, 67, 0
1, 128576, Note_on_c, 1, 58, 0
1, 128640, Note_on_c, 0, 69, 100
1, 128640, Note_on_c, 1, 60, 100
1, 128768, Note_on_c, 0, 69, 0
1, 128768, Note_on_c, 1, 60, 0
1, 128832, Note_on_c, 0, 66, 100
1, 128832, Note_on_c, 1, 62, 100
1, 128960, Note_on_c, 0, 66, 0
1, 128960, Note_on_c, 1, 62, 0
1, 129024, Note_on_c, 0, 67, 100
1, 129024, Note_on_c, 1, 55, 100
1, 129152, Note_on_c, 1, 55, 0
1, 129216, Note_on_c, 1, 50, 100
1, 129280, Note_on_c, 0, 67, 0
1, 129344, Note_on_c, 1, 50, 0
1, 129408, Note_on_c, 1, 43, 100
1, 129536, Note_on_c, 1, 43, 0
1, 129600, Note_on_c, 0, 74, 100
1, 129728, Note_on_c, 0, 74, 0
1, 129792, Note_on_c, 0, 77, 100
1, 129920, Note_on_c, 0, 77, 0
1, 129984, Note_on_c, 0, 68, 100
1, 130112, Note_on_c, 0, 68, 0
1, 130176, Note_on_c, 0, 67, 100
1, 130304, Note_on_c, 0, 67, 0
1, 130368, Note_on_c, 0, 74, 100
1, 130496, Note_on_c, 0, 74, 0
1, 130560, Note_on_c, 0, 65, 100
1, 130752, Note_on_c, 1, 59, 100
1, 130816, Note_on_c, 0, 65, 0
1, 130880, Note_on_c, 1, 59, 0
1, 130944, Note_on_c, 0, 63, 100
1, 130944, Note_on_c, 1, 60, 100
1, 131072, Note_on_c, 0, 63, 0
1, 131072, Note_on_c, 1, 60, 0
1, 131136, Note_on_c, 0, 75, 100
1, 131264, Note_on_c, 0, 75, 0
1, 131328, Note_on_c, 0, 67, 100
1, 131520, Note_on_c, 1, 61, 100
1, 131584, Note_on_c, 0, 67, 0
1, 131648, Note_on_c, 1, 61, 0
1, 131712, Note_on_c, 0, 66, 100
1, 131712, Note_on_c, 1, 62, 100
1, 131840, Note_on_c, 0, 66, 0
1, 131840, Note_on_c, 1, 62, 0
1, 131904, Note_on_c, 0, 81, 100
1, 132032, Note_on_c, 0, 81, 0
1, 132096, Note_on_c, 0, 72, 100
1, 132288, Note_on_c, 1, 66, 100
1, 132352, Note_on_c, 0, 72, 0
1, 132416, Note_on_c, 1, 66, 0
1, 132480, Note_on_c, 0, 70, 100
1, 132480, Note_on_c, 1, 67, 100
1, 132608, Note_on_c, 0, 70, 0
1, 132608, Note_on_c, 1, 67, 0
1, 132672, Note_on_c, 0, 74, 100
1, 132800, Note_on_c, 0, 74, 0
1, 132864, Note_on_c, 0, 76, 100
1, 132992, Note_on_c, 0, 76, 0
1, 133056, Note_on_c, 0, 79, 100
1, 133184, Note_on_c, 0, 79, 0
1, 133248, Note_on_c, 0, 82, 100
1, 133376, Note_on_c, 0, 82, 0
1, 133440, Note_on_c, 0, 74, 100
1, 133568, Note_on_c, 0, 74, 0
1, 133632, Note_on_c, 0, 73, 100
1, 133824, Note_on_c, 1, 55, 100
1, 133888, Note_on_c, 0, 73, 0
1, 133952, Note_on_c, 1, 55, 0
1, 134016, Note_on_c, 0, 74, 100
1, 134016, Note_on_c, 1, 54, 100
1, 134144, Note_on_c, 0, 74, 0
1, 134144, Note_on_c, 1, 54, 0
1, 134208, Note_on_c, 0, 72, 100
1, 134208, Note_on_c, 1, 66, 100
1, 134336, Note_on_c, 0, 72, 0
1, 134336, Note_on_c, 1, 66, 0
1, 134400, Note_on_c, 0, 70, 100
1, 134400, Note_on_c, 1, 67, 100
1, 134528, Note_on_c, 0, 70, 0
1, 134528, Note_on_c, 1, 67, 0
1, 134592, Note_on_c, 0, 67, 100
1, 134592, Note_on_c, 1, 58, 100
1, 134720, Note_on_c, 0, 67, 0
1, 134720, Note_on_c, 1, 58, 0
1, 134784, Note_on_c, 0, 69, 100
1, 134784, Note_on_c, 1, 60, 100
1, 134912, Note_on_c, 0, 69, 0
1, 134912, Note_on_c, 1, 60, 0
1, 134976, Note_on_c, 0, 66, 100
1, 134976, Note_on_c, 1, 62, 100
1, 135104, Note_on_c, 0, 66, 0
1, 135104, Note_on_c, 1, 62, 0
1, 135168, Note_on_c, 0, 67, 100
1, 135168, Note_on_c, 1, 55, 100
1, 135296, Note_on_c, 1, 55, 0
1, 135360, Note_on_c, 1, 50, 100
1, 135424, Note_on_c, 0, 67, 0
1, 135488, Note_on_c, 1, 50, 0
1, 135552, Note_on_c, 1, 43, 100
1, 135680, Note_on_c, 1, 43, 0
1, 135744, Note_on_c, 0, 62, 100
1, 135872, Note_on_c, 0, 62, 0
1, 135936, Note_on_c, 0, 67, 100
1, 135936, Note_on_c, 1, 55, 100
1, 136000, Note_on_c, 1, 55, 0
1, 136032, Note_on_c, 1, 62, 100
1, 136064, Note_on_c, 0, 67, 0
1, 136096, Note_on_c, 1, 62, 0
1, 136128, Note_on_c, 0, 71, 100
1, 136128, Note_on_c, 1, 59, 100
1, 136192, Note_on_c, 1, 59, 0
1, 136224, Note_on_c, 1, 62, 100
1, 136256, Note_on_c, 0, 71, 0
1, 136288, Note_on_c, 1, 62, 0
1, 136320, Note_on_c, 0, 74, 100
1, 136320, Note_on_c, 1, 55, 100
1, 136384, Note_on_c, 1, 55, 0
1, 136416, Note_on_c, 1, 62, 100
1, 136448, Note_on_c, 0, 74, 0
1, 136480, Note_on_c, 1, 62, 0
1, 136512, Note_on_c, 0, 67, 100
1, 136512, Note_on_c, 1, 59, 100
1, 136576, Note_on_c, 1, 59, 0
1, 136608, Note_on_c, 1, 62, 100
1, 136640, Note_on_c, 0, 67, 0
1, 136672, Note_on_c, 1, 62, 0
1, 136704, Note_on_c, 0, 67, 100
1, 136704, Note_on_c, 1, 57, 100
1, 136768, Note_on_c, 1, 57, 0
1, 136800, Note_on_c, 1, 62, 100
1, 136864, Note_on_c, 1, 62, 0
1, 136896, Note_on_c, 1, 60, 100
1, 136960, Note_on_c, 0, 67, 0
1, 136960, Note_on_c, 1, 60, 0
1, 136992, Note_on_c, 1, 62, 100
1, 137056, Note_on_c, 1, 62, 0
1, 137088, Note_on_c, 0, 66, 100
1, 137088, Note_on_c, 1, 57, 100
1, 137152, Note_on_c, 1, 57, 0
1, 137184, Note_on_c, 1, 62, 100
1, 137216, Note_on_c, 0, 66, 0
1, 137248, Note_on_c, 1, 62, 0
1, 137280, Note_on_c, 0, 69, 100
1, 137280, Note_on_c, 1, 60, 100
1, 137344, Note_on_c, 1, 60, 0
1, 137376, Note_on_c, 1, 62, 100
1, 137408, Note_on_c, 0, 69, 0
1, 137440, Note_on_c, 1, 62, 0
1, 137472, Note_on_c, 0, 72, 100
1, 137472, Note_on_c, 1, 54, 100
1, 137536, Note_on_c, 1, 54, 0
1, 137568, Note_on_c, 1, 62, 100
1, 137600, Note_on_c, 0, 72, 0
1, 137632, Note_on_c, 1, 62, 0
1, 137664, Note_on_c, 0, 78, 100
1, 137664, Note_on_c, 1, 57, 100
1, 137728, Note_on_c, 1, 57, 0
1, 137760, Note_on_c, 1, 62, 100
1, 137792, Note_on_c, 0, 78, 0
1, 137824, Note_on_c, 1, 62, 0
1, 137856, Note_on_c, 0, 81, 100
1, 137856, Note_on_c, 1, 54, 100
1, 137920, Note_on_c, 1, 54, 0
1, 137952, Note_on_c, 1, 62, 100
1, 137984, Note_on_c, 0, 81, 0
1, 138016, Note_on_c, 1, 62, 0
1, 138048, Note_on_c, 0, 72, 100
1, 138048, Note_on_c, 1, 57, 100
1, 138112, Note_on_c, 1, 57, 0
1, 138144, Note_on_c, 1, 62, 100
1, 138176, Note_on_c, 0, 72, 0
1, 138208, Note_on_c, 1, 62, 0
1, 138240, Note_on_c, 0, 72, 100
1, 138240, Note_on_c, 1, 55, 100
1, 138304, Note_on_c, 1, 55, 0
1, 138336, Note_on_c, 1, 62, 100
1, 138400, Note_on_c, 1, 62, 0
1, 138432, Note_on_c, 1, 59, 100
1, 138496, Note_on_c, 0, 72, 0
1, 138496, Note_on_c, 1, 59, 0
1, 138528, Note_on_c, 1, 62, 100
1, 138592, Note_on_c, 1, 62, 0
1, 138624, Note_on_c, 0, 71, 100
1, 138624, Note_on_c, 1, 55, 100
1, 138688, Note_on_c, 1, 55, 0
1, 138720, Note_on_c, 1, 62, 100
1, 138752, Note_on_c, 0, 71, 0
1, 138784, Note_on_c, 1, 62, 0
1, 138816, Note_on_c, 0, 71, 100
1, 138816, Note_on_c, 1, 59, 100
1, 138880, Note_on_c, 1, 59, 0
1, 138912, Note_on_c, 1, 62, 100
1, 138944, Note_on_c, 0, 71, 0
1, 138976, Note_on_c, 1, 62, 0
1, 139008, Note_on_c, 0, 83, 100
1, 139008, Note_on_c, 1, 55, 100
1, 139072, Note_on_c, 1, 55, 0
1, 139104, Note_on_c, 1, 64, 100
1, 139136, Note_on_c, 0, 83, 0
1, 139168, Note_on_c, 1, 64, 0
1, 139200, Note_on_c, 0, 79, 100
1, 139200, Note_on_c, 1, 59, 100
1, 139264, Note_on_c, 1, 59, 0
1, 139296, Note_on_c, 1, 64, 100
1, 139328, Note_on_c, 0, 79, 0
1, 139360, Note_on_c, 1, 64, 0
1, 139392, Note_on_c, 0, 75, 100
1, 139392, Note_on_c, 1, 55, 100
1, 139456, Note_on_c, 1, 55, 0
1, 139488, Note_on_c, 1, 64, 100
1, 139520, Note_on_c, 0, 75, 0
1, 139552, Note_on_c, 1, 64, 0
1, 139584, Note_on_c, 0, 76, 100
1, 139584, Note_on_c, 1, 59, 100
1, 139648, Note_on_c, 1, 59, 0
1, 139680, Note_on_c, 1, 64, 100
1, 139712, Note_on_c, 0, 76, 0
1, 139744, Note_on_c, 1, 64, 0
1, 139776, Note_on_c, 0, 81, 100
1, 139776, Note_on_c, 1, 54, 100
1, 139840, Note_on_c, 1, 54, 0
1, 139872, Note_on_c, 1, 62, 100
1, 139904, Note_on_c, 0, 81, 0
1, 139936, Note_on_c, 1, 62, 0
1, 139968, Note_on_c, 0, 78, 100
1, 139968, Note_on_c, 1, 57, 100
1, 140032, Note_on_c, 1, 57, 0
1, 140064, Note_on_c, 1, 62, 100
1, 140096, Note_on_c, 0, 78, 0
1, 140128, Note_on_c, 1, 62, 0
1, 140160, Note_on_c, 0, 73, 100
1, 140160, Note_on_c, 1, 54, 100
1, 140224, Note_on_c, 1, 54, 0
1, 140256, Note_on_c, 1, 62, 100
1, 140288, Note_on_c, 0, 73, 0
1, 140320, Note_on_c, 1, 62, 0
1, 140352, Note_on_c, 0, 74, 100
1, 140352, Note_on_c, 1, 57, 100
1, 140416, Note_on_c, 1, 57, 0
1, 140448, Note_on_c, 1, 62, 100
1, 140480, Note_on_c, 0, 74, 0
1, 140512, Note_on_c, 1, 62, 0
1, 140544, Note_on_c, 0, 76, 100
1, 140544, Note_on_c, 1, 55, 100
1, 140576, Note_on_c, 0, 76, 0
1, 140592, Note_on_c, 0, 78, 100
1, 140624, Note_on_c, 0, 78, 0
1, 140640, Note_on_c, 0, 76, 100
1, 140672, Note_on_c, 0, 76, 0
1, 140688, Note_on_c, 0, 74, 100
1, 140720, Note_on_c, 0, 74, 0
1, 140736, Note_on_c, 0, 79, 100
1, 140800, Note_on_c, 1, 55, 0
1, 140864, Note_on_c, 0, 79, 0
1, 140928, Note_on_c, 1, 57, 100
1, 141120, Note_on_c, 0, 73, 100
1, 141120, Note_on_c, 0, 67, 100
1, 141184, Note_on_c, 1, 57, 0
1, 141248, Note_on_c, 0, 73, 0
1, 141248, Note_on_c, 0, 67, 0
1, 141312, Note_on_c, 0, 74, 100
1, 141312, Note_on_c, 0, 66, 100
1, 141312, Note_on_c, 1, 50, 100
1, 141376, Note_on_c, 1, 50, 0
1, 141408, Note_on_c, 1, 54, 100
1, 141472, Note_on_c, 1, 54, 0
1, 141504, Note_on_c, 1, 57, 100
1, 141568, Note_on_c, 0, 74, 0
1, 141568, Note_on_c, 0, 66, 0
1, 141568, Note_on_c, 1, 57, 0
1, 141600, Note_on_c, 1, 62, 100
1, 141664, Note_on_c, 1, 62, 0
1, 141696, Note_on_c, 1, 50, 100
1, 141824, Note_on_c, 1, 50, 0
1, 141888, Note_on_c, 0, 67, 100
1, 141952, Note_on_c, 0, 67, 0
1, 141984, Note_on_c, 0, 71, 100
1, 142048, Note_on_c, 0, 71, 0
1, 142080, Note_on_c, 0, 74, 100
1, 142144, Note_on_c, 0, 74, 0
1, 142176, Note_on_c, 0, 79, 100
1, 142240, Note_on_c, 0, 79, 0
1, 142272, Note_on_c, 0, 83, 100
1, 142336, Note_on_c, 0, 83, 0
1, 142368, Note_on_c, 0, 86, 100
1, 142432, Note_on_c, 0, 86, 0
1, 142464, Note_on_c, 0, 84, 100
1, 142528, Note_on_c, 0, 84, 0
1, 142560, Note_on_c, 0, 83, 100
1, 142624, Note_on_c, 0, 83, 0
1, 142656, Note_on_c, 0, 81, 100
1, 142720, Note_on_c, 0, 81, 0
1, 142752, Note_on_c, 0, 79, 100
1, 142816, Note_on_c, 0, 79, 0
1, 142848, Note_on_c, 0, 71, 100
1, 142848, Note_on_c, 0, 62, 100
1, 142848, Note_on_c, 0, 79, 100
1, 143104, Note_on_c, 0, 71, 0
1, 143104, Note_on_c, 0, 62, 0
1, 143104, Note_on_c, 0, 79, 0
1, 143232, Note_on_c, 0, 69, 100
1, 143232, Note_on_c, 0, 62, 100
1, 143232, Note_on_c, 0, 78, 100
1, 143360, Note_on_c, 0, 69, 0
1, 143360, Note_on_c, 0, 62, 0
1, 143360, Note_on_c, 0, 78, 0
1, 143424, Note_on_c, 0, 84, 100
1, 143488, Note_on_c, 0, 84, 0
1, 143520, Note_on_c, 0, 81, 100
1, 143584, Note_on_c, 0, 81, 0
1, 143616, Note_on_c, 0, 78, 100
1, 143680, Note_on_c, 0, 78, 0
1, 143712, Note_on_c, 0, 72, 100
1, 143776, Note_on_c, 0, 72, 0
1, 143808, Note_on_c, 0, 69, 100
1, 143872, Note_on_c, 0, 69, 0
1, 143904, Note_on_c, 0, 66, 100
1, 143968, Note_on_c, 0, 66, 0
1, 144000, Note_on_c, 0, 62, 100
1, 144128, Note_on_c, 0, 62, 0
1, 144192, Note_on_c, 0, 72, 100
1, 144192, Note_on_c, 0, 69, 100
1, 144192, Note_on_c, 0, 66, 100
1, 144320, Note_on_c, 0, 72, 0
1, 144320, Note_on_c, 0, 69, 0
1, 144320, Note_on_c, 0, 66, 0
1, 144384, Note_on_c, 0, 72, 100
1, 144384, Note_on_c, 0, 69, 100
1, 144384, Note_on_c, 0, 67, 100
1, 144640, Note_on_c, 0, 72, 0
1, 144640, Note_on_c, 0, 69, 0
1, 144640, Note_on_c, 0, 67, 0
1, 144768, Note_on_c, 0, 71, 100
1, 144768, Note_on_c, 0, 67, 100
1, 144768, Note_on_c, 1, 55, 100
1, 144896, Note_on_c, 0, 71, 0
1, 144896, Note_on_c, 0, 67, 0
1, 144896, Note_on_c, 1, 55, 0
1, 144960, Note_on_c, 0, 71, 100
1, 145088, Note_on_c, 0, 71, 0
1, 145152, Note_on_c, 0, 83, 100
1, 145152, Note_on_c, 1, 55, 100
1, 145152, Note_on_c, 1, 43, 100
1, 145216, Note_on_c, 0, 83, 0
1, 145248, Note_on_c, 0, 79, 100
1, 145312, Note_on_c, 0, 79, 0
1, 145344, Note_on_c, 0, 78, 100
1, 145408, Note_on_c, 0, 78, 0
1, 145408, Note_on_c, 1, 55, 0
1, 145408, Note_on_c, 1, 43, 0
1, 145440, Note_on_c, 0, 76, 100
1, 145504, Note_on_c, 0, 76, 0
1, 145536, Note_on_c, 0, 75, 100
1, 145600, Note_on_c, 0, 75, 0
1, 145632, Note_on_c, 0, 76, 100
1, 145696, Note_on_c, 0, 76, 0
1, 145728, Note_on_c, 0, 83, 100
1, 145728, Note_on_c, 1, 55, 100
1, 145792, Note_on_c, 0, 83, 0
1, 145824, Note_on_c, 0, 79, 100
1, 145856, Note_on_c, 1, 55, 0
1, 145888, Note_on_c, 0, 79, 0
1, 145920, Note_on_c, 0, 81, 100
1, 145920, Note_on_c, 1, 54, 100
1, 145984, Note_on_c, 0, 81, 0
1, 146016, Note_on_c, 0, 79, 100
1, 146080, Note_on_c, 0, 79, 0
1, 146112, Note_on_c, 0, 78, 100
1, 146176, Note_on_c, 0, 78, 0
1, 146176, Note_on_c, 1, 54, 0
1, 146208, Note_on_c, 0, 76, 100
1, 146272, Note_on_c, 0, 76, 0
1, 146304, Note_on_c, 0, 74, 100
1, 146304, Note_on_c, 1, 55, 100
1, 146368, Note_on_c, 0, 74, 0
1, 146400, Note_on_c, 0, 73, 100
1, 146464, Note_on_c, 0, 73, 0
1, 146496, Note_on_c, 0, 71, 100
1, 146560, Note_on_c, 0, 71, 0
1, 146560, Note_on_c, 1, 55, 0
1, 146592, Note_on_c, 0, 69, 100
1, 146656, Note_on_c, 0, 69, 0
1, 146688, Note_on_c, 0, 67, 100
1, 146688, Note_on_c, 1, 57, 100
1, 146752, Note_on_c, 0, 67, 0
1, 146784, Note_on_c, 0, 66, 100
1, 146848, Note_on_c, 0, 66, 0
1, 146880, Note_on_c, 0, 64, 100
1, 146944, Note_on_c, 0, 64, 0
1, 146944, Note_on_c, 1, 57, 0
1, 146976, Note_on_c, 0, 62, 100
1, 147040, Note_on_c, 0, 62, 0
1, 147072, Note_on_c, 0, 61, 100
1, 147072, Note_on_c, 1, 45, 100
1, 147136, Note_on_c, 0, 61, 0
1, 147168, Note_on_c, 0, 59, 100
1, 147232, Note_on_c, 0, 59, 0
1, 147264, Note_on_c, 0, 57, 100
1, 147328, Note_on_c, 0, 57, 0
1, 147328, Note_on_c, 1, 45, 0
1, 147360, Note_on_c, 0, 55, 100
1, 147424, Note_on_c, 0, 55, 0
1, 147456, Note_on_c, 0, 54, 100
1, 147456, Note_on_c, 1, 50, 100
1, 147712, Note_on_c, 0, 54, 0
1, 147712, Note_on_c, 1, 50, 0
1, 147840, Note_on_c, 1, 38, 100
1, 147968, Note_on_c, 1, 38, 0
1, 148032, Note_on_c, 0, 74, 100
1, 148160, Note_on_c, 0, 74, 0
1, 148224, Note_on_c, 0, 86, 100
1, 148224, Note_on_c, 1, 56, 100
1, 148288, Note_on_c, 1, 56, 0
1, 148320, Note_on_c, 1, 64, 100
1, 148352, Note_on_c, 0, 86, 0
1, 148384, Note_on_c, 1, 64, 0
1, 148416, Note_on_c, 0, 83, 100
1, 148416, Note_on_c, 1, 59, 100
1, 148480, Note_on_c, 1, 59, 0
1, 148512, Note_on_c, 1, 64, 100
1, 148544, Note_on_c, 0, 83, 0
1, 148576, Note_on_c, 1, 64, 0
1, 148608, Note_on_c, 0, 80, 100
1, 148608, Note_on_c, 1, 56, 100
1, 148672, Note_on_c, 1, 56, 0
1, 148704, Note_on_c, 1, 64, 100
1, 148736, Note_on_c, 0, 80, 0
1, 148768, Note_on_c, 1, 64, 0
1, 148800, Note_on_c, 0, 76, 100
1, 148800, Note_on_c, 1, 59, 100
1, 148864, Note_on_c, 1, 59, 0
1, 148896, Note_on_c, 1, 64, 100
1, 148928, Note_on_c, 0, 76, 0
1, 148960, Note_on_c, 1, 64, 0
1, 148992, Note_on_c, 0, 74, 100
1, 148992, Note_on_c, 1, 57, 100
1, 149056, Note_on_c, 1, 57, 0
1, 149088, Note_on_c, 1, 64, 100
1, 149152, Note_on_c, 1, 64, 0
1, 149184, Note_on_c, 1, 61, 100
1, 149248, Note_on_c, 0, 74, 0
1, 149248, Note_on_c, 1, 61, 0
1, 149280, Note_on_c, 1, 64, 100
1, 149344, Note_on_c, 1, 64, 0
1, 149376, Note_on_c, 0, 73, 100
1, 149376, Note_on_c, 1, 57, 100
1, 149440, Note_on_c, 1, 57, 0
1, 149472, Note_on_c, 1, 64, 100
1, 149504, Note_on_c, 0, 73, 0
1, 149536, Note_on_c, 1, 64, 0
1, 149568, Note_on_c, 0, 72, 100
1, 149568, Note_on_c, 1, 60, 100
1, 149632, Note_on_c, 1, 60, 0
1, 149664, Note_on_c, 1, 64, 100
1, 149696, Note_on_c, 0, 72, 0
1, 149728, Note_on_c, 1, 64, 0
1, 149760, Note_on_c, 0, 84, 100
1, 149760, Note_on_c, 1, 54, 100
1, 149824, Note_on_c, 1, 54, 0
1, 149856, Note_on_c, 1, 62, 100
1, 149888, Note_on_c, 0, 84, 0
1, 149920, Note_on_c, 1, 62, 0
1, 149952, Note_on_c, 0, 81, 100
1, 149952, Note_on_c, 1, 57, 100
1, 150016, Note_on_c, 1, 57, 0
1, 150048, Note_on_c, 1, 62, 100
1, 150080, Note_on_c, 0, 81, 0
1, 150112, Note_on_c, 1, 62, 0
1, 150144, Note_on_c, 0, 78, 100
1, 150144, Note_on_c, 1, 54, 100
1, 150208, Note_on_c, 1, 54, 0
1, 150240, Note_on_c, 1, 62, 100
1, 150272, Note_on_c, 0, 78, 0
1, 150304, Note_on_c, 1, 62, 0
1, 150336, Note_on_c, 0, 74, 100
1, 150336, Note_on_c, 1, 57, 100
1, 150400, Note_on_c, 1, 57, 0
1, 150432, Note_on_c, 1, 62, 100
1, 150464, Note_on_c, 0, 74, 0
1, 150496, Note_on_c, 1, 62, 0
1, 150528, Note_on_c, 0, 72, 100
1, 150528, Note_on_c, 1, 55, 100
1, 150592, Note_on_c, 1, 55, 0
1, 150624, Note_on_c, 1, 62, 100
1, 150688, Note_on_c, 1, 62, 0
1, 150720, Note_on_c, 1, 59, 100
1, 150784, Note_on_c, 0, 72, 0
1, 150784, Note_on_c, 1, 59, 0
1, 150816, Note_on_c, 1, 62, 100
1, 150880, Note_on_c, 1, 62, 0
1, 150912, Note_on_c, 0, 71, 100
1, 150912, Note_on_c, 1, 55, 100
1, 150976, Note_on_c, 1, 55, 0
1, 151008, Note_on_c, 1, 62, 100
1, 151040, Note_on_c, 0, 71, 0
1, 151072, Note_on_c, 1, 62, 0
1, 151104, Note_on_c, 0, 74, 100
1, 151104, Note_on_c, 1, 59, 100
1, 151168, Note_on_c, 1, 59, 0
1, 151200, Note_on_c, 1, 62, 100
1, 151232, Note_on_c, 0, 74, 0
1, 151264, Note_on_c, 1, 62, 0
1, 151296, Note_on_c, 0, 76, 100
1, 151296, Note_on_c, 1, 60, 100
1, 151360, Note_on_c, 0, 76, 0
1, 151392, Note_on_c, 0, 72, 100
1, 151456, Note_on_c, 0, 72, 0
1, 151488, Note_on_c, 0, 71, 100
1, 151552, Note_on_c, 0, 71, 0
1, 151552, Note_on_c, 1, 60, 0
1, 151584, Note_on_c, 0, 69, 100
1, 151648, Note_on_c, 0, 69, 0
1, 151680, Note_on_c, 0, 68, 100
1, 151744, Note_on_c, 0, 68, 0
1, 151776, Note_on_c, 0, 69, 100
1, 151840, Note_on_c, 0, 69, 0
1, 151872, Note_on_c, 0, 76, 100
1, 151872, Note_on_c, 1, 60, 100
1, 151936, Note_on_c, 0, 76, 0
1, 151968, Note_on_c, 0, 69, 100
1, 152000, Note_on_c, 1, 60, 0
1, 152032, Note_on_c, 0, 69, 0
1, 152064, Note_on_c, 0, 78, 100
1, 152064, Note_on_c, 1, 62, 100
1, 152128, Note_on_c, 0, 78, 0
1, 152160, Note_on_c, 0, 74, 100
1, 152224, Note_on_c, 0, 74, 0
1, 152256, Note_on_c, 0, 72, 100
1, 152320, Note_on_c, 0, 72, 0
1, 152320, Note_on_c, 1, 62, 0
1, 152352, Note_on_c, 0, 71, 100
1, 152416, Note_on_c, 0, 71, 0
1, 152448, Note_on_c, 0, 70, 100
1, 152512, Note_on_c, 0, 70, 0
1, 152544, Note_on_c, 0, 71, 100
1, 152608, Note_on_c, 0, 71, 0
1, 152640, Note_on_c, 0, 78, 100
1, 152640, Note_on_c, 1, 62, 100
1, 152704, Note_on_c, 0, 78, 0
1, 152736, Note_on_c, 0, 71, 100
1, 152768, Note_on_c, 1, 62, 0
1, 152800, Note_on_c, 0, 71, 0
1, 152832, Note_on_c, 0, 79, 100
1, 152832, Note_on_c, 1, 64, 100
1, 152896, Note_on_c, 0, 79, 0
1, 152928, Note_on_c, 0, 76, 100
1, 152992, Note_on_c, 0, 76, 0
1, 153024, Note_on_c, 0, 74, 100
1, 153088, Note_on_c, 0, 74, 0
1, 153088, Note_on_c, 1, 64, 0
1, 153120, Note_on_c, 0, 72, 100
1, 153184, Note_on_c, 0, 72, 0
1, 153216, Note_on_c, 0, 81, 100
1, 153216, Note_on_c, 1, 66, 100
1, 153280, Note_on_c, 0, 81, 0
1, 153312, Note_on_c, 0, 72, 100
1, 153344, Note_on_c, 1, 66, 0
1, 153376, Note_on_c, 0, 72, 0
1, 153408, Note_on_c, 0, 79, 100
1, 153408, Note_on_c, 1, 67, 100
1, 153472, Note_on_c, 0, 79, 0
1, 153504, Note_on_c, 0, 71, 100
1, 153568, Note_on_c, 0, 71, 0
1, 153600, Note_on_c, 0, 71, 100
1, 153600, Note_on_c, 1, 62, 100
1, 153616, Note_on_c, 0, 71, 0
1, 153624, Note_on_c, 0, 72, 100
1, 153640, Note_on_c, 0, 72, 0
1, 153648, Note_on_c, 0, 71, 100
1, 153664, Note_on_c, 0, 71, 0
1, 153672, Note_on_c, 0, 72, 100
1, 153688, Note_on_c, 0, 72, 0
1, 153696, Note_on_c, 0, 71, 100
1, 153712, Note_on_c, 0, 71, 0
1, 153720, Note_on_c, 0, 72, 100
1, 153736, Note_on_c, 0, 72, 0
1, 153744, Note_on_c, 0, 71, 100
1, 153760, Note_on_c, 0, 71, 0
1, 153768, Note_on_c, 0, 72, 100
1, 153784, Note_on_c, 0, 72, 0
1, 153792, Note_on_c, 0, 71, 100
1, 153808, Note_on_c, 0, 71, 0
1, 153816, Note_on_c, 0, 72, 100
1, 153832, Note_on_c, 0, 72, 0
1, 153840, Note_on_c, 0, 71, 100
1, 153856, Note_on_c, 0, 71, 0
1, 153856, Note_on_c, 1, 62, 0
1, 153864, Note_on_c, 0, 72, 100
1, 153880, Note_on_c, 0, 72, 0
1, 153888, Note_on_c, 0, 71, 100
1, 153904, Note_on_c, 0, 71, 0
1, 153912, Note_on_c, 0, 72, 100
1, 153920, Note_on_c, 1, 67, 0
1, 153928, Note_on_c, 0, 72, 0
1, 153936, Note_on_c, 0, 71, 100
1, 153952, Note_on_c, 0, 71, 0
1, 153960, Note_on_c, 0, 72, 100
1, 153976, Note_on_c, 0, 72, 0
1, 153984, Note_on_c, 0, 69, 100
1, 153984, Note_on_c, 1, 66, 100
1, 154112, Note_on_c, 0, 69, 0
1, 154112, Note_on_c, 1, 66, 0
1, 154176, Note_on_c, 0, 62, 100
1, 154304, Note_on_c, 0, 62, 0
1, 154368, Note_on_c, 0, 67, 100
1, 154368, Note_on_c, 1, 55, 100
1, 154432, Note_on_c, 1, 55, 0
1, 154464, Note_on_c, 1, 62, 100
1, 154496, Note_on_c, 0, 67, 0
1, 154528, Note_on_c, 1, 62, 0
1, 154560, Note_on_c, 0, 71, 100
1, 154560, Note_on_c, 1, 59, 100
1, 154624, Note_on_c, 1, 59, 0
1, 154656, Note_on_c, 1, 62, 100
1, 154688, Note_on_c, 0, 71, 0
1, 154720, Note_on_c, 1, 62, 0
1, 154752, Note_on_c, 0, 74, 100
1, 154752, Note_on_c, 1, 55, 100
1, 154816, Note_on_c, 1, 55, 0
1, 154848, Note_on_c, 1, 62, 100
1, 154880, Note_on_c, 0, 74, 0
1, 154912, Note_on_c, 1, 62, 0
1, 154944, Note_on_c, 0, 67, 100
1, 154944, Note_on_c, 1, 59, 100
1, 155008, Note_on_c, 1, 59, 0
1, 155040, Note_on_c, 1, 62, 100
1, 155072, Note_on_c, 0, 67, 0
1, 155104, Note_on_c, 1, 62, 0
1, 155136, Note_on_c, 0, 67, 100
1, 155136, Note_on_c, 1, 57, 100
1, 155200, Note_on_c, 1, 57, 0
1, 155232, Note_on_c, 1, 62, 100
1, 155296, Note_on_c, 1, 62, 0
1, 155328, Note_on_c, 1, 60, 100
1, 155392, Note_on_c, 0, 67, 0
1, 155392, Note_on_c, 1, 60, 0
1, 155424, Note_on_c, 1, 62, 100
1, 155488, Note_on_c, 1, 62, 0
1, 155520, Note_on_c, 0, 66, 100
1, 155520, Note_on_c, 1, 57, 100
1, 155584, Note_on_c, 1, 57, 0
1, 155616, Note_on_c, 1, 62, 100
1, 155648, Note_on_c, 0, 66, 0
1, 155680, Note_on_c, 1, 62, 0
1, 155712, Note_on_c, 0, 69, 100
1, 155712, Note_on_c, 1, 60, 100
1, 155776, Note_on_c, 1, 60, 0
1, 155808, Note_on_c, 1, 62, 100
1, 155840, Note_on_c, 0, 69, 0
1, 155872, Note_on_c, 1, 62, 0
1, 155904, Note_on_c, 0, 72, 100
1, 155904, Note_on_c, 1, 54, 100
1, 155968, Note_on_c, 1, 54, 0
1, 156000, Note_on_c, 1, 62, 100
1, 156032, Note_on_c, 0, 72, 0
1, 156064, Note_on_c, 1, 62, 0
1, 156096, Note_on_c, 0, 78, 100
1, 156096, Note_on_c, 1, 57, 100
1, 156160, Note_on_c, 1, 57, 0
1, 156192, Note_on_c, 1, 62, 100
1, 156224, Note_on_c, 0, 78, 0
1, 156256, Note_on_c, 1, 62, 0
1, 156288, Note_on_c, 0, 81, 100
1, 156288, Note_on_c, 1, 54, 100
1, 156352, Note_on_c, 1, 54, 0
1, 156384, Note_on_c, 1, 62, 100
1, 156416, Note_on_c, 0, 81, 0
1, 156448, Note_on_c, 1, 62, 0
1, 156480, Note_on_c, 0, 72, 100
1, 156480, Note_on_c, 1, 57, 100
1, 156544, Note_on_c, 1, 57, 0
1, 156576, Note_on_c, 1, 62, 100
1, 156608, Note_on_c, 0, 72, 0
1, 156640, Note_on_c, 1, 62, 0
1, 156672, Note_on_c, 0, 72, 100
1, 156672, Note_on_c, 1, 55, 100
1, 156736, Note_on_c, 1, 55, 0
1, 156768, Note_on_c, 1, 62, 100
1, 156832, Note_on_c, 1, 62, 0
1, 156864, Note_on_c, 1, 59, 100
1, 156928, Note_on_c, 0, 72, 0
1, 156928, Note_on_c, 1, 59, 0
1, 156960, Note_on_c, 1, 62, 100
1, 157024, Note_on_c, 1, 62, 0
1, 157056, Note_on_c, 0, 71, 100
1, 157056, Note_on_c, 1, 55, 100
1, 157120, Note_on_c, 1, 55, 0
1, 157152, Note_on_c, 1, 62, 100
1, 157184, Note_on_c, 0, 71, 0
1, 157216, Note_on_c, 1, 62, 0
1, 157248, Note_on_c, 0, 67, 100
1, 157248, Note_on_c, 1, 59, 100
1, 157312, Note_on_c, 1, 59, 0
1, 157344, Note_on_c, 1, 62, 100
1, 157376, Note_on_c, 0, 67, 0
1, 157408, Note_on_c, 1, 62, 0
1, 157440, Note_on_c, 0, 72, 100
1, 157440, Note_on_c, 1, 48, 100
1, 157504, Note_on_c, 1, 48, 0
1, 157536, Note_on_c, 1, 55, 100
1, 157568, Note_on_c, 0, 72, 0
1, 157600, Note_on_c, 1, 55, 0
1, 157632, Note_on_c, 0, 76, 100
1, 157632, Note_on_c, 1, 52, 100
1, 157696, Note_on_c, 1, 52, 0
1, 157728, Note_on_c, 1, 55, 100
1, 157760, Note_on_c, 0, 76, 0
1, 157792, Note_on_c, 1, 55, 0
1, 157824, Note_on_c, 0, 79, 100
1, 157824, Note_on_c, 1, 48, 100
1, 157888, Note_on_c, 1, 48, 0
1, 157920, Note_on_c, 1, 55, 100
1, 157952, Note_on_c, 0, 79, 0
1, 157984, Note_on_c, 1, 55, 0
1, 158016, Note_on_c, 0, 72, 100
1, 158016, Note_on_c, 1, 52, 100
1, 158080, Note_on_c, 1, 52, 0
1, 158112, Note_on_c, 1, 55, 100
1, 158144, Note_on_c, 0, 72, 0
1, 158176, Note_on_c, 1, 55, 0
1, 158208, Note_on_c, 0, 74, 100
1, 158208, Note_on_c, 1, 47, 100
1, 158336, Note_on_c, 0, 74, 0
1, 158400, Note_on_c, 0, 79, 100
1, 158464, Note_on_c, 0, 79, 0
1, 158464, Note_on_c, 1, 47, 0
1, 158496, Note_on_c, 0, 83, 100
1, 158560, Note_on_c, 0, 83, 0
1, 158592, Note_on_c, 0, 86, 100
1, 158720, Note_on_c, 0, 86, 0
1, 158784, Note_on_c, 0, 74, 100
1, 158784, Note_on_c, 0, 71, 100
1, 158784, Note_on_c, 1, 47, 100
1, 158912, Note_on_c, 0, 74, 0
1, 158912, Note_on_c, 0, 71, 0
1, 158912, Note_on_c, 1, 47, 0
1, 158952, Note_on_c, 0, 74, 100
1, 158952, Note_on_c, 0, 71, 100
1, 158968, Note_on_c, 0, 74, 0
1, 158968, Note_on_c, 0, 71, 0
1, 158976, Note_on_c, 0, 72, 100
1, 158976, Note_on_c, 0, 69, 100
1, 158976, Note_on_c, 1, 48, 100
1, 159104, Note_on_c, 0, 72, 0
1, 159104, Note_on_c, 0, 69, 0
1, 159168, Note_on_c, 0, 71, 100
1, 159168, Note_on_c, 0, 67, 100
1, 159232, Note_on_c, 1, 48, 0
1, 159360, Note_on_c, 1, 50, 100
1, 159424, Note_on_c, 0, 71, 0
1, 159424, Note_on_c, 0, 67, 0
1, 159552, Note_on_c, 0, 69, 100
1, 159552, Note_on_c, 0, 66, 100
1, 159616, Note_on_c, 1, 50, 0
1, 159680, Note_on_c, 0, 69, 0
1, 159680, Note_on_c, 0, 66, 0
1, 159744, Note_on_c, 0, 67, 100
1, 159744, Note_on_c, 1, 55, 100
1, 160000, Note_on_c, 0, 67, 0
1, 160000, Note_on_c, 1, 55, 0
1, 160128, Note_on_c, 1, 43, 100
1, 160256, Note_on_c, 1, 43, 0
1, 160320, Note_on_c, 0, 64, 100
1, 160384, Note_on_c, 0, 64, 0
1, 160416, Note_on_c, 0, 68, 100
1, 160480, Note_on_c, 0, 68, 0
1, 160512, Note_on_c, 0, 71, 100
1, 160576, Note_on_c, 0, 71, 0
1, 160608, Note_on_c, 0, 74, 100
1, 160672, Note_on_c, 0, 74, 0
1, 160704, Note_on_c, 0, 80, 100
1, 160768, Note_on_c, 0, 80, 0
1, 160800, Note_on_c, 0, 83, 100
1, 160864, Note_on_c, 0, 83, 0
1, 160896, Note_on_c, 0, 86, 100
1, 161024, Note_on_c, 0, 86, 0
1, 161088, Note_on_c, 0, 71, 100
1, 161088, Note_on_c, 0, 68, 100
1, 161088, Note_on_c, 0, 74, 100
1, 161216, Note_on_c, 0, 71, 0
1, 161216, Note_on_c, 0, 68, 0
1, 161216, Note_on_c, 0, 74, 0
1, 161280, Note_on_c, 0, 74, 100
1, 161280, Note_on_c, 0, 71, 100
1, 161280, Note_on_c, 0, 69, 100
1, 161536, Note_on_c, 0, 74, 0
1, 161536, Note_on_c, 0, 71, 0
1, 161536, Note_on_c, 0, 69, 0
1, 161664, Note_on_c, 0, 72, 100
1, 161664, Note_on_c, 0, 69, 100
1, 161664, Note_on_c, 1, 57, 100
1, 161792, Note_on_c, 0, 72, 0
1, 161792, Note_on_c, 0, 69, 0
1, 161792, Note_on_c, 1, 57, 0
1, 161856, Note_on_c, 0, 84, 100
1, 161920, Note_on_c, 0, 84, 0
1, 161952, Note_on_c, 0, 81, 100
1, 162016, Note_on_c, 0, 81, 0
1, 162048, Note_on_c, 0, 78, 100
1, 162112, Note_on_c, 0, 78, 0
1, 162144, Note_on_c, 0, 72, 100
1, 162208, Note_on_c, 0, 72, 0
1, 162240, Note_on_c, 0, 69, 100
1, 162304, Note_on_c, 0, 69, 0
1, 162336, Note_on_c, 0, 66, 100
1, 162400, Note_on_c, 0, 66, 0
1, 162432, Note_on_c, 0, 62, 100
1, 162560, Note_on_c, 0, 62, 0
1, 162624, Note_on_c, 0, 72, 100
1, 162624, Note_on_c, 0, 69, 100
1, 162624, Note_on_c, 0, 66, 100
1, 162752, Note_on_c, 0, 72, 0
1, 162752, Note_on_c, 0, 69, 0
1, 162752, Note_on_c, 0, 66, 0
1, 162816, Note_on_c, 0, 72, 100
1, 162816, Note_on_c, 0, 69, 100
1, 162816, Note_on_c, 0, 67, 100
1, 163072, Note_on_c, 0, 72, 0
1, 163072, Note_on_c, 0, 69, 0
1, 163072, Note_on_c, 0, 67, 0
1, 163200, Note_on_c, 0, 71, 100
1, 163200, Note_on_c, 0, 67, 100
1, 163200, Note_on_c, 1, 55, 100
1, 163328, Note_on_c, 0, 71, 0
1, 163328, Note_on_c, 0, 67, 0
1, 163328, Note_on_c, 1, 55, 0
1, 163392, Note_on_c, 0, 74, 100
1, 163392, Note_on_c, 1, 59, 100
1, 163520, Note_on_c, 0, 74, 0
1, 163520, Note_on_c, 1, 59, 0
1, 163584, Note_on_c, 0, 76, 100
1, 163584, Note_on_c, 1, 60, 100
1, 163648, Note_on_c, 0, 76, 0
1, 163680, Note_on_c, 0, 72, 100
1, 163744, Note_on_c, 0, 72, 0
1, 163776, Note_on_c, 0, 71, 100
1, 163840, Note_on_c, 0, 71, 0
1, 163840, Note_on_c, 1, 60, 0
1, 163872, Note_on_c, 0, 69, 100
1, 163936, Note_on_c, 0, 69, 0
1, 163968, Note_on_c, 0, 68, 100
1, 164032, Note_on_c, 0, 68, 0
1, 164064, Note_on_c, 0, 69, 100
1, 164128, Note_on_c, 0, 69, 0
1, 164160, Note_on_c, 0, 76, 100
1, 164160, Note_on_c, 1, 60, 100
1, 164224, Note_on_c, 0, 76, 0
1, 164256, Note_on_c, 0, 69, 100
1, 164288, Note_on_c, 1, 60, 0
1, 164320, Note_on_c, 0, 69, 0
1, 164352, Note_on_c, 0, 78, 100
1, 164352, Note_on_c, 1, 62, 100
1, 164416, Note_on_c, 0, 78, 0
1, 164448, Note_on_c, 0, 74, 100
1, 164512, Note_on_c, 0, 74, 0
1, 164544, Note_on_c, 0, 72, 100
1, 164608, Note_on_c, 0, 72, 0
1, 164608, Note_on_c, 1, 62, 0
1, 164640, Note_on_c, 0, 71, 100
1, 164704, Note_on_c, 0, 71, 0
1, 164736, Note_on_c, 0, 70, 100
1, 164800, Note_on_c, 0, 70, 0
1, 164832, Note_on_c, 0, 71, 100
1, 164896, Note_on_c, 0, 71, 0
1, 164928, Note_on_c, 0, 78, 100
1, 164928, Note_on_c, 1, 62, 100
1, 164992, Note_on_c, 0, 78, 0
1, 165024, Note_on_c, 0, 71, 100
1, 165056, Note_on_c, 1, 62, 0
1, 165088, Note_on_c, 0, 71, 0
1, 165120, Note_on_c, 0, 79, 100
1, 165120, Note_on_c, 1, 64, 100
1, 165184, Note_on_c, 0, 79, 0
1, 165216, Note_on_c, 0, 76, 100
1, 165280, Note_on_c, 0, 76, 0
1, 165312, Note_on_c, 0, 74, 100
1, 165376, Note_on_c, 0, 74, 0
1, 165376, Note_on_c, 1, 64, 0
1, 165408, Note_on_c, 0, 72, 100
1, 165472, Note_on_c, 0, 72, 0
1, 165504, Note_on_c, 0, 81, 100
1, 165504, Note_on_c, 1, 66, 100
1, 165568, Note_on_c, 0, 81, 0
1, 165600, Note_on_c, 0, 72, 100
1, 165632, Note_on_c, 1, 66, 0
1, 165664, Note_on_c, 0, 72, 0
1, 165696, Note_on_c, 0, 79, 100
1, 165696, Note_on_c, 1, 67, 100
1, 165760, Note_on_c, 0, 79, 0
1, 165792, Note_on_c, 0, 71, 100
1, 165856, Note_on_c, 0, 71, 0
1, 165888, Note_on_c, 0, 71, 100
1, 165888, Note_on_c, 1, 62, 100
1, 165904, Note_on_c, 0, 71, 0
1, 165912, Note_on_c, 0, 72, 100
1, 165928, Note_on_c, 0, 72, 0
1, 165936, Note_on_c, 0, 71, 100
1, 165952, Note_on_c, 0, 71, 0
1, 165960, Note_on_c, 0, 72, 100
1, 165976, Note_on_c, 0, 72, 0
1, 165984, Note_on_c, 0, 71, 100
1, 166000, Note_on_c, 0, 71, 0
1, 166008, Note_on_c, 0, 72, 100
1, 166024, Note_on_c, 0, 72, 0
1, 166032, Note_on_c, 0, 71, 100
1, 166048, Note_on_c, 0, 71, 0
1, 166056, Note_on_c, 0, 72, 100
1, 166072, Note_on_c, 0, 72, 0
1, 166080, Note_on_c, 0, 71, 100
1, 166096, Note_on_c, 0, 71, 0
1, 166104, Note_on_c, 0, 72, 100
1, 166120, Note_on_c, 0, 72, 0
1, 166128, Note_on_c, 0, 71, 100
1, 166144, Note_on_c, 0, 71, 0
1, 166144, Note_on_c, 1, 62, 0
1, 166152, Note_on_c, 0, 72, 100
1, 166168, Note_on_c, 0, 72, 0
1, 166176, Note_on_c, 0, 71, 100
1, 166192, Note_on_c, 0, 71, 0
1, 166200, Note_on_c, 0, 72, 100
1, 166208, Note_on_c, 1, 67, 0
1, 166216, Note_on_c, 0, 72, 0
1, 166224, Note_on_c, 0, 71, 100
1, 166240, Note_on_c, 0, 71, 0
1, 166248, Note_on_c, 0, 72, 100
1, 166264, Note_on_c, 0, 72, 0
1, 166272, Note_on_c, 0, 69, 100
1, 166272, Note_on_c, 1, 66, 100
1, 166400, Note_on_c, 0, 69, 0
1, 166400, Note_on_c, 1, 66, 0
1, 166464, Note_on_c, 0, 62, 100
1, 166592, Note_on_c, 0, 62, 0
1, 166656, Note_on_c, 0, 67, 100
1, 166656, Note_on_c, 1, 55, 100
1, 166720, Note_on_c, 1, 55, 0
1, 166752, Note_on_c, 1, 62, 100
1, 166784, Note_on_c, 0, 67, 0
1, 166816, Note_on_c, 1, 62, 0
1, 166848, Note_on_c, 0, 71, 100
1, 166848, Note_on_c, 1, 59, 100
1, 166912, Note_on_c, 1, 59, 0
1, 166944, Note_on_c, 1, 62, 100
1, 166976, Note_on_c, 0, 71, 0
1, 167008, Note_on_c, 1, 62, 0
1, 167040, Note_on_c, 0, 74, 100
1, 167040, Note_on_c, 1, 55, 100
1, 167104, Note_on_c, 1, 55, 0
1, 167136, Note_on_c, 1, 62, 100
1, 167168, Note_on_c, 0, 74, 0
1, 167200, Note_on_c, 1, 62, 0
1, 167232, Note_on_c, 0, 67, 100
1, 167232, Note_on_c, 1, 59, 100
1, 167296, Note_on_c, 1, 59, 0
1, 167328, Note_on_c, 1, 62, 100
1, 167360, Note_on_c, 0, 67, 0
1, 167392, Note_on_c, 1, 62, 0
1, 167424, Note_on_c, 0, 67, 100
1, 167424, Note_on_c, 1, 57, 100
1, 167488, Note_on_c, 1, 57, 0
1, 167520, Note_on_c, 1, 62, 100
1, 167584, Note_on_c, 1, 62, 0
1, 167616, Note_on_c, 1, 60, 100
1, 167680, Note_on_c, 0, 67, 0
1, 167680, Note_on_c, 1, 60, 0
1, 167712, Note_on_c, 1, 62, 100
1, 167776, Note_on_c, 1, 62, 0
1, 167808, Note_on_c, 0, 66, 100
1, 167808, Note_on_c, 1, 57, 100
1, 167872, Note_on_c, 1, 57, 0
1, 167904, Note_on_c, 1, 62, 100
1, 167936, Note_on_c, 0, 66, 0
1, 167968, Note_on_c, 1, 62, 0
1, 168000, Note_on_c, 0, 69, 100
1, 168000, Note_on_c, 1, 60, 100
1, 168064, Note_on_c, 1, 60, 0
1, 168096, Note_on_c, 1, 62, 100
1, 168128, Note_on_c, 0, 69, 0
1, 168160, Note_on_c, 1, 62, 0
1, 168192, Note_on_c, 0, 72, 100
1, 168192, Note_on_c, 1, 54, 100
1, 168256, Note_on_c, 1, 54, 0
1, 168288, Note_on_c, 1, 62, 100
1, 168320, Note_on_c, 0, 72, 0
1, 168352, Note_on_c, 1, 62, 0
1, 168384, Note_on_c, 0, 78, 100
1, 168384, Note_on_c, 1, 57, 100
1, 168448, Note_on_c, 1, 57, 0
1, 168480, Note_on_c, 1, 62, 100
1, 168512, Note_on_c, 0, 78, 0
1, 168544, Note_on_c, 1, 62, 0
1, 168576, Note_on_c, 0, 81, 100
1, 168576, Note_on_c, 1, 54, 100
1, 168640, Note_on_c, 1, 54, 0
1, 168672, Note_on_c, 1, 62, 100
1, 168704, Note_on_c, 0, 81, 0
1, 168736, Note_on_c, 1, 62, 0
1, 168768, Note_on_c, 0, 72, 100
1, 168768, Note_on_c, 1, 57, 100
1, 168832, Note_on_c, 1, 57, 0
1, 168864, Note_on_c, 1, 62, 100
1, 168896, Note_on_c, 0, 72, 0
1, 168928, Note_on_c, 1, 62, 0
1, 168960, Note_on_c, 0, 72, 100
1, 168960, Note_on_c, 1, 55, 100
1, 169024, Note_on_c, 1, 55, 0
1, 169056, Note_on_c, 1, 62, 100
1, 169120, Note_on_c, 1, 62, 0
1, 169152, Note_on_c, 1, 59, 100
1, 169216, Note_on_c, 0, 72, 0
1, 169216, Note_on_c, 1, 59, 0
1, 169248, Note_on_c, 1, 62, 100
1, 169312, Note_on_c, 1, 62, 0
1, 169344, Note_on_c, 0, 71, 100
1, 169344, Note_on_c, 1, 55, 100
1, 169408, Note_on_c, 1, 55, 0
1, 169440, Note_on_c, 1, 62, 100
1, 169472, Note_on_c, 0, 71, 0
1, 169504, Note_on_c, 1, 62, 0
1, 169536, Note_on_c, 0, 67, 100
1, 169536, Note_on_c, 1, 59, 100
1, 169600, Note_on_c, 1, 59, 0
1, 169632, Note_on_c, 1, 62, 100
1, 169664, Note_on_c, 0, 67, 0
1, 169696, Note_on_c, 1, 62, 0
1, 169728, Note_on_c, 0, 72, 100
1, 169728, Note_on_c, 1, 48, 100
1, 169792, Note_on_c, 1, 48, 0
1, 169824, Note_on_c, 1, 55, 100
1, 169856, Note_on_c, 0, 72, 0
1, 169888, Note_on_c, 1, 55, 0
1, 169920, Note_on_c, 0, 76, 100
1, 169920, Note_on_c, 1, 52, 100
1, 169984, Note_on_c, 1, 52, 0
1, 170016, Note_on_c, 1, 55, 100
1, 170048, Note_on_c, 0, 76, 0
1, 170080, Note_on_c, 1, 55, 0
1, 170112, Note_on_c, 0, 79, 100
1, 170112, Note_on_c, 1, 48, 100
1, 170176, Note_on_c, 1, 48, 0
1, 170208, Note_on_c, 1, 55, 100
1, 170240, Note_on_c, 0, 79, 0
1, 170272, Note_on_c, 1, 55, 0
1, 170304, Note_on_c, 0, 72, 100
1, 170304, Note_on_c, 1, 52, 100
1, 170368, Note_on_c, 1, 52, 0
1, 170400, Note_on_c, 1, 55, 100
1, 170432, Note_on_c, 0, 72, 0
1, 170464, Note_on_c, 1, 55, 0
1, 170496, Note_on_c, 0, 74, 100
1, 170496, Note_on_c, 1, 47, 100
1, 170624, Note_on_c, 0, 74, 0
1, 170688, Note_on_c, 0, 79, 100
1, 170752, Note_on_c, 0, 79, 0
1, 170752, Note_on_c, 1, 47, 0
1, 170784, Note_on_c, 0, 83, 100
1, 170848, Note_on_c, 0, 83, 0
1, 170880, Note_on_c, 0, 86, 100
1, 171008, Note_on_c, 0, 86, 0
1, 171072, Note_on_c, 0, 74, 100
1, 171072, Note_on_c, 0, 71, 100
1, 171072, Note_on_c, 1, 47, 100
1, 171200, Note_on_c, 0, 74, 0
1, 171200, Note_on_c, 0, 71, 0
1, 171200, Note_on_c, 1, 47, 0
1, 171240, Note_on_c, 0, 74, 100
1, 171240, Note_on_c, 0, 71, 100
1, 171256, Note_on_c, 0, 74, 0
1, 171256, Note_on_c, 0, 71, 0
1, 171264, Note_on_c, 0, 72, 100
1, 171264, Note_on_c, 0, 69, 100
1, 171264, Note_on_c, 1, 48, 100
1, 171392, Note_on_c, 0, 72, 0
1, 171392, Note_on_c, 0, 69, 0
1, 171456, Note_on_c, 0, 71, 100
1, 171456, Note_on_c, 0, 67, 100
1, 171520, Note_on_c, 1, 48, 0
1, 171648, Note_on_c, 1, 50, 100
1, 171712, Note_on_c, 0, 71, 0
1, 171712, Note_on_c, 0, 67, 0
1, 171840, Note_on_c, 0, 60, 100
1, 171840, Note_on_c, 0, 69, 100
1, 171840, Note_on_c, 0, 66, 100
1, 171904, Note_on_c, 1, 50, 0
1, 171968, Note_on_c, 0, 60, 0
1, 171968, Note_on_c, 0, 69, 0
1, 171968, Note_on_c, 0, 66, 0
1, 172032, Note_on_c, 0, 67, 100
1, 172032, Note_on_c, 0, 62, 100
1, 172032, Note_on_c, 0, 59, 100
1, 172032, Note_on_c, 1, 43, 100
1, 172032, Note_on_c, 1, 55, 100
1, 172288, Note_on_c, 0, 67, 0
1, 172288, Note_on_c, 0, 62, 0
1, 172288, Note_on_c, 0, 59, 0
1, 172288, Note_on_c, 1, 43, 0
1, 172288, Note_on_c, 1, 55, 0
1, 172298, End_track
0, 0, End_of_file