0, 0, Header, 0, 1, 96
1, 0, Start_track
1, 0, Tempo, 1000000
1, 0, Note_on_c, 0, 81, 80
1, 0, Note_on_c, 1, 65, 64
1, 0, Note_on_c, 1, 62, 64
1, 72, Note_on_c, 0, 81, 0
1, 72, Note_on_c, 0, 77, 64
1, 84, Note_on_c, 0, 77, 0
1, 84, Note_on_c, 0, 74, 64
1, 96, Note_on_c, 0, 74, 0
1, 96, Note_on_c, 0, 73, 64
1, 96, Note_on_c, 1, 65, 0
1, 96, Note_on_c, 1, 62, 0
1, 96, Note_on_c, 1, 67, 64
1, 96, Note_on_c, 1, 64, 64
1, 116, Note_on_c, 0, 73, 0
1, 116, Note_on_c, 1, 67, 0
1, 116, Note_on_c, 1, 64, 0
1, 288, Note_on_c, 0, 82, 80
1, 288, Note_on_c, 1, 73, 64
1, 288, Note_on_c, 1, 70, 64
1, 288, Note_on_c, 1, 67, 64
1, 288, Note_on_c, 1, 64, 64
1, 360, Note_on_c, 0, 82, 0
1, 360, Note_on_c, 0, 79, 64
1, 372, Note_on_c, 0, 79, 0
1, 372, Note_on_c, 0, 76, 64
1, 384, Note_on_c, 0, 76, 0
1, 384, Note_on_c, 0, 74, 64
1, 384, Note_on_c, 1, 73, 0
1, 384, Note_on_c, 1, 70, 0
1, 384, Note_on_c, 1, 67, 0
1, 384, Note_on_c, 1, 64, 0
1, 384, Note_on_c, 1, 74, 64
1, 384, Note_on_c, 1, 69, 64
1, 384, Note_on_c, 1, 65, 64
1, 404, Note_on_c, 0, 74, 0
1, 404, Note_on_c, 1, 74, 0
1, 404, Note_on_c, 1, 69, 0
1, 404, Note_on_c, 1, 65, 0
1, 456, Note_on_c, 0, 85, 64
1, 480, Note_on_c, 0, 85, 0
1, 480, Note_on_c, 0, 86, 64
1, 500, Note_on_c, 0, 86, 0
1, 552, Note_on_c, 0, 81, 64
1, 576, Note_on_c, 0, 81, 0
1, 576, Note_on_c, 0, 82, 64
1, 576, Note_on_c, 1, 67, 64
1, 596, Note_on_c, 0, 82, 0
1, 596, Note_on_c, 1, 67, 0
1, 648, Note_on_c, 0, 74, 64
1, 672, Note_on_c, 0, 74, 0
1, 672, Note_on_c, 0, 73, 64
1, 672, Note_on_c, 1, 69, 64
1, 692, Note_on_c, 0, 73, 0
1, 692, Note_on_c, 1, 69, 0
1, 744, Note_on_c, 0, 76, 64
1, 768, Note_on_c, 0, 76, 0
1, 768, Note_on_c, 0, 81, 64
1, 768, Note_on_c, 1, 69, 64
1, 768, Note_on_c, 1, 61, 64
1, 788, Note_on_c, 0, 81, 0
1, 788, Note_on_c, 1, 69, 0
1, 788, Note_on_c, 1, 61, 0
1, 840, Note_on_c, 0, 79, 64
1, 863, Note_on_c, 0, 79, 0
1, 864, Note_on_c, 0, 79, 80
1, 864, Note_on_c, 1, 69, 64
1, 864, Note_on_c, 1, 62, 64
1, 909, Note_on_c, 1, 69, 0
1, 909, Note_on_c, 1, 62, 0
1, 912, Note_on_c, 0, 79, 0
1, 912, Note_on_c, 0, 77, 64
1, 919, Note_on_c, 0, 77, 0
1, 919, Note_on_c, 0, 79, 64
1, 926, Note_on_c, 0, 79, 0
1, 926, Note_on_c, 0, 77, 64
1, 933, Note_on_c, 0, 77, 0
1, 933, Note_on_c, 0, 79, 64
1, 940, Note_on_c, 0, 79, 0
1, 940, Note_on_c, 0, 77, 64
1, 947, Note_on_c, 0, 77, 0
1, 947, Note_on_c, 0, 76, 64
1, 954, Note_on_c, 0, 76, 0
1, 954, Note_on_c, 0, 77, 64
1, 960, Note_on_c, 0, 77, 0
1, 960, Note_on_c, 0, 76, 64
1, 960, Note_on_c, 1, 73, 64
1, 960, Note_on_c, 1, 69, 64
1, 1005, Note_on_c, 0, 76, 0
1, 1005, Note_on_c, 1, 73, 0
1, 1005, Note_on_c, 1, 69, 0
1, 1152, Note_on_c, 0, 69, 80
1, 1152, Note_on_c, 1, 53, 64
1, 1152, Note_on_c, 1, 50, 64
1, 1200, Note_on_c, 0, 69, 0
1, 1200, Note_on_c, 0, 67, 64
1, 1212, Note_on_c, 0, 67, 0
1, 1212, Note_on_c, 0, 65, 64
1, 1224, Note_on_c, 0, 65, 0
1, 1224, Note_on_c, 0, 64, 64
1, 1236, Note_on_c, 0, 64, 0
1, 1236, Note_on_c, 0, 62, 64
1, 1248, Note_on_c, 0, 62, 0
1, 1248, Note_on_c, 0, 61, 64
1, 1248, Note_on_c, 1, 53, 0
1, 1248, Note_on_c, 1, 50, 0
1, 1248, Note_on_c, 1, 55, 64
1, 1248, Note_on_c, 1, 52, 64
1, 1268, Note_on_c, 0, 61, 0
1, 1268, Note_on_c, 1, 55, 0
1, 1268, Note_on_c, 1, 52, 0
1, 1344, Note_on_c, 0, 55, 64
1, 1351, Note_on_c, 0, 55, 0
1, 1360, Note_on_c, 0, 58, 64
1, 1367, Note_on_c, 0, 58, 0
1, 1376, Note_on_c, 0, 61, 64
1, 1383, Note_on_c, 0, 61, 0
1, 1392, Note_on_c, 0, 64, 64
1, 1399, Note_on_c, 0, 64, 0
1, 1408, Note_on_c, 0, 67, 64
1, 1415, Note_on_c, 0, 67, 0
1, 1424, Note_on_c, 0, 69, 64
1, 1431, Note_on_c, 0, 69, 0
1, 1440, Note_on_c, 0, 70, 80
1, 1440, Note_on_c, 1, 61, 64
1, 1440, Note_on_c, 1, 58, 64
1, 1440, Note_on_c, 1, 55, 64
1, 1440, Note_on_c, 1, 52, 64
1, 1488, Note_on_c, 0, 70, 0
1, 1488, Note_on_c, 0, 69, 64
1, 1500, Note_on_c, 0, 69, 0
1, 1500, Note_on_c, 0, 67, 64
1, 1512, Note_on_c, 0, 67, 0
1, 1512, Note_on_c, 0, 65, 64
1, 1524, Note_on_c, 0, 65, 0
1, 1524, Note_on_c, 0, 64, 64
1, 1536, Note_on_c, 0, 64, 0
1, 1536, Note_on_c, 0, 62, 64
1, 1536, Note_on_c, 1, 61, 0
1, 1536, Note_on_c, 1, 58, 0
1, 1536, Note_on_c, 1, 55, 0
1, 1536, Note_on_c, 1, 52, 0
1, 1536, Note_on_c, 1, 57, 64
1, 1536, Note_on_c, 1, 53, 64
1, 1556, Note_on_c, 0, 62, 0
1, 1556, Note_on_c, 1, 57, 0
1, 1556, Note_on_c, 1, 53, 0
1, 1608, Note_on_c, 0, 73, 64
1, 1631, Note_on_c, 0, 73, 0
1, 1632, Note_on_c, 0, 76, 64
1, 1638, Note_on_c, 0, 76, 0
1, 1638, Note_on_c, 0, 74, 64
1, 1644, Note_on_c, 0, 74, 0
1, 1644, Note_on_c, 0, 73, 64
1, 1650, Note_on_c, 0, 73, 0
1, 1650, Note_on_c, 0, 74, 80
1, 1680, Note_on_c, 0, 74, 0
1, 1704, Note_on_c, 0, 76, 64
1, 1727, Note_on_c, 0, 76, 0
1, 1728, Note_on_c, 0, 79, 64
1, 1728, Note_on_c, 1, 56, 64
1, 1728, Note_on_c, 1, 50, 64
1, 1728, Note_on_c, 1, 46, 64
1, 1734, Note_on_c, 0, 79, 0
1, 1734, Note_on_c, 0, 77, 64
1, 1740, Note_on_c, 0, 77, 0
1, 1740, Note_on_c, 0, 76, 64
1, 1746, Note_on_c, 0, 76, 0
1, 1746, Note_on_c, 0, 77, 80
1, 1776, Note_on_c, 0, 77, 0
1, 1800, Note_on_c, 0, 85, 64
1, 1817, Note_on_c, 1, 56, 0
1, 1817, Note_on_c, 1, 50, 0
1, 1817, Note_on_c, 1, 46, 0
1, 1824, Note_on_c, 0, 85, 0
1, 1824, Note_on_c, 0, 86, 64
1, 1844, Note_on_c, 0, 86, 0
1, 1896, Note_on_c, 0, 88, 64
1, 1920, Note_on_c, 0, 88, 0
1, 1920, Note_on_c, 0, 89, 64
1, 1920, Note_on_c, 1, 34, 64
1, 1940, Note_on_c, 0, 89, 0
1, 1965, Note_on_c, 1, 34, 0
1, 1992, Note_on_c, 0, 56, 64
1, 2015, Note_on_c, 0, 56, 0
1, 2016, Note_on_c, 0, 56, 64
1, 2016, Note_on_c, 1, 33, 64
1, 2055, Note_on_c, 1, 33, 0
1, 2105, Note_on_c, 0, 56, 0
1, 2112, Note_on_c, 0, 58, 64
1, 2118, Note_on_c, 0, 58, 0
1, 2118, Note_on_c, 0, 57, 64
1, 2124, Note_on_c, 0, 57, 0
1, 2124, Note_on_c, 0, 56, 64
1, 2130, Note_on_c, 0, 56, 0
1, 2130, Note_on_c, 0, 57, 64
1, 2201, Note_on_c, 0, 57, 0
1, 2304, Note_on_c, 1, 41, 80
1, 2304, Note_on_c, 1, 29, 80
1, 2320, Note_on_c, 0, 84, 72
1, 2335, Note_on_c, 0, 84, 0
1, 2336, Note_on_c, 0, 79, 72
1, 2351, Note_on_c, 0, 79, 0
1, 2352, Note_on_c, 0, 81, 72
1, 2367, Note_on_c, 0, 81, 0
1, 2368, Note_on_c, 0, 84, 72
1, 2383, Note_on_c, 0, 84, 0
1, 2384, Note_on_c, 0, 76, 72
1, 2398, Note_on_c, 1, 41, 0
1, 2398, Note_on_c, 1, 29, 0
1, 2399, Note_on_c, 0, 76, 0
1, 2400, Note_on_c, 0, 77, 72
1, 2415, Note_on_c, 0, 77, 0
1, 2416, Note_on_c, 0, 81, 72
1, 2431, Note_on_c, 0, 81, 0
1, 2432, Note_on_c, 0, 77, 72
1, 2447, Note_on_c, 0, 77, 0
1, 2448, Note_on_c, 0, 76, 72
1, 2463, Note_on_c, 0, 76, 0
1, 2464, Note_on_c, 0, 74, 72
1, 2479, Note_on_c, 0, 74, 0
1, 2480, Note_on_c, 0, 72, 72
1, 2495, Note_on_c, 0, 72, 0
1, 2496, Note_on_c, 0, 70, 72
1, 2511, Note_on_c, 0, 70, 0
1, 2512, Note_on_c, 0, 69, 72
1, 2527, Note_on_c, 0, 69, 0
1, 2528, Note_on_c, 0, 67, 72
1, 2543, Note_on_c, 0, 67, 0
1, 2544, Note_on_c, 0, 65, 72
1, 2559, Note_on_c, 0, 65, 0
1, 2560, Note_on_c, 0, 64, 72
1, 2575, Note_on_c, 0, 64, 0
1, 2576, Note_on_c, 0, 62, 72
1, 2591, Note_on_c, 0, 62, 0
1, 2592, Note_on_c, 0, 60, 72
1, 2640, Note_on_c, 1, 58, 54
1, 2640, Note_on_c, 1, 52, 54
1, 2685, Note_on_c, 1, 58, 0
1, 2685, Note_on_c, 1, 52, 0
1, 2688, Note_on_c, 1, 58, 54
1, 2688, Note_on_c, 1, 52, 54
1, 2733, Note_on_c, 1, 58, 0
1, 2733, Note_on_c, 1, 52, 0
1, 2736, Note_on_c, 1, 58, 54
1, 2736, Note_on_c, 1, 52, 54
1, 2769, Note_on_c, 0, 60, 0
1, 2781, Note_on_c, 1, 58, 0
1, 2781, Note_on_c, 1, 52, 0
1, 2784, Note_on_c, 0, 64, 72
1, 2784, Note_on_c, 1, 58, 54
1, 2784, Note_on_c, 1, 52, 54
1, 2790, Note_on_c, 0, 64, 0
1, 2790, Note_on_c, 0, 62, 72
1, 2829, Note_on_c, 1, 58, 0
1, 2829, Note_on_c, 1, 52, 0
1, 2832, Note_on_c, 1, 58, 54
1, 2832, Note_on_c, 1, 52, 54
1, 2856, Note_on_c, 0, 62, 0
1, 2856, Note_on_c, 0, 60, 72
1, 2877, Note_on_c, 1, 58, 0
1, 2877, Note_on_c, 1, 52, 0
1, 2879, Note_on_c, 0, 60, 0
1, 2880, Note_on_c, 0, 60, 88
1, 2880, Note_on_c, 1, 57, 54
1, 2880, Note_on_c, 1, 53, 54
1, 2896, Note_on_c, 0, 60, 0
1, 2896, Note_on_c, 0, 84, 72
1, 2911, Note_on_c, 0, 84, 0
1, 2912, Note_on_c, 0, 79, 72
1, 2927, Note_on_c, 0, 79, 0
1, 2928, Note_on_c, 0, 81, 72
1, 2943, Note_on_c, 0, 81, 0
1, 2944, Note_on_c, 0, 84, 72
1, 2959, Note_on_c, 0, 84, 0
1, 2960, Note_on_c, 0, 76, 72
1, 2969, Note_on_c, 1, 57, 0
1, 2969, Note_on_c, 1, 53, 0
1, 2975, Note_on_c, 0, 76, 0
1, 2976, Note_on_c, 0, 77, 72
1, 2991, Note_on_c, 0, 77, 0
1, 2992, Note_on_c, 0, 81, 72
1, 3007, Note_on_c, 0, 81, 0
1, 3008, Note_on_c, 0, 77, 72
1, 3023, Note_on_c, 0, 77, 0
1, 3024, Note_on_c, 0, 76, 72
1, 3039, Note_on_c, 0, 76, 0
1, 3040, Note_on_c, 0, 74, 72
1, 3055, Note_on_c, 0, 74, 0
1, 3056, Note_on_c, 0, 72, 72
1, 3071, Note_on_c, 0, 72, 0
1, 3072, Note_on_c, 0, 70, 72
1, 3087, Note_on_c, 0, 70, 0
1, 3088, Note_on_c, 0, 69, 72
1, 3103, Note_on_c, 0, 69, 0
1, 3104, Note_on_c, 0, 67, 72
1, 3119, Note_on_c, 0, 67, 0
1, 3120, Note_on_c, 0, 65, 72
1, 3135, Note_on_c, 0, 65, 0
1, 3136, Note_on_c, 0, 64, 72
1, 3151, Note_on_c, 0, 64, 0
1, 3152, Note_on_c, 0, 62, 72
1, 3167, Note_on_c, 0, 62, 0
1, 3168, Note_on_c, 0, 60, 72
1, 3216, Note_on_c, 1, 57, 54
1, 3216, Note_on_c, 1, 51, 54
1, 3261, Note_on_c, 1, 57, 0
1, 3261, Note_on_c, 1, 51, 0
1, 3264, Note_on_c, 1, 57, 54
1, 3264, Note_on_c, 1, 51, 54
1, 3309, Note_on_c, 1, 57, 0
1, 3309, Note_on_c, 1, 51, 0
1, 3312, Note_on_c, 1, 57, 54
1, 3312, Note_on_c, 1, 51, 54
1, 3345, Note_on_c, 0, 60, 0
1, 3357, Note_on_c, 1, 57, 0
1, 3357, Note_on_c, 1, 51, 0
1, 3360, Note_on_c, 0, 63, 72
1, 3360, Note_on_c, 1, 57, 54
1, 3360, Note_on_c, 1, 51, 54
1, 3366, Note_on_c, 0, 63, 0
1, 3366, Note_on_c, 0, 62, 72
1, 3405, Note_on_c, 1, 57, 0
1, 3405, Note_on_c, 1, 51, 0
1, 3408, Note_on_c, 1, 57, 54
1, 3408, Note_on_c, 1, 51, 54
1, 3427, Note_on_c, 0, 62, 0
1, 3432, Note_on_c, 0, 60, 72
1, 3453, Note_on_c, 1, 57, 0
1, 3453, Note_on_c, 1, 51, 0
1, 3455, Note_on_c, 0, 60, 0
1, 3456, Note_on_c, 0, 65, 72
1, 3504, Note_on_c, 1, 53, 54
1, 3504, Note_on_c, 1, 50, 54
1, 3523, Note_on_c, 0, 65, 0
1, 3528, Note_on_c, 0, 62, 72
1, 3549, Note_on_c, 1, 53, 0
1, 3549, Note_on_c, 1, 50, 0
1, 3551, Note_on_c, 0, 62, 0
1, 3552, Note_on_c, 0, 58, 72
1, 3552, Note_on_c, 1, 53, 54
1, 3552, Note_on_c, 1, 50, 54
1, 3597, Note_on_c, 1, 53, 0
1, 3597, Note_on_c, 1, 50, 0
1, 3600, Note_on_c, 1, 53, 54
1, 3600, Note_on_c, 1, 50, 54
1, 3645, Note_on_c, 1, 53, 0
1, 3645, Note_on_c, 1, 50, 0
1, 3648, Note_on_c, 1, 53, 54
1, 3648, Note_on_c, 1, 50, 54
1, 3663, Note_on_c, 0, 58, 0
1, 3664, Note_on_c, 0, 62, 72
1, 3671, Note_on_c, 0, 62, 0
1, 3680, Note_on_c, 0, 64, 72
1, 3687, Note_on_c, 0, 64, 0
1, 3693, Note_on_c, 1, 53, 0
1, 3693, Note_on_c, 1, 50, 0
1, 3696, Note_on_c, 0, 65, 72
1, 3703, Note_on_c, 0, 65, 0
1, 3712, Note_on_c, 0, 67, 72
1, 3719, Note_on_c, 0, 67, 0
1, 3728, Note_on_c, 0, 69, 72
1, 3735, Note_on_c, 0, 69, 0
1, 3744, Note_on_c, 0, 70, 72
1, 3744, Note_on_c, 1, 48, 54
1, 3759, Note_on_c, 1, 48, 0
1, 3760, Note_on_c, 1, 52, 54
1, 3775, Note_on_c, 1, 52, 0
1, 3776, Note_on_c, 1, 55, 54
1, 3791, Note_on_c, 1, 55, 0
1, 3792, Note_on_c, 1, 48, 54
1, 3807, Note_on_c, 1, 48, 0
1, 3808, Note_on_c, 1, 52, 54
1, 3823, Note_on_c, 1, 52, 0
1, 3824, Note_on_c, 1, 55, 54
1, 3839, Note_on_c, 1, 55, 0
1, 3840, Note_on_c, 1, 48, 54
1, 3855, Note_on_c, 1, 48, 0
1, 3856, Note_on_c, 1, 52, 54
1, 3871, Note_on_c, 1, 52, 0
1, 3872, Note_on_c, 1, 55, 54
1, 3887, Note_on_c, 1, 55, 0
1, 3888, Note_on_c, 1, 48, 54
1, 3903, Note_on_c, 1, 48, 0
1, 3904, Note_on_c, 1, 52, 54
1, 3907, Note_on_c, 0, 70, 0
1, 3912, Note_on_c, 0, 72, 72
1, 3919, Note_on_c, 1, 52, 0
1, 3920, Note_on_c, 1, 55, 54
1, 3924, Note_on_c, 0, 72, 0
1, 3924, Note_on_c, 0, 70, 72
1, 3935, Note_on_c, 1, 55, 0
1, 3936, Note_on_c, 0, 70, 0
1, 3936, Note_on_c, 0, 69, 72
1, 3936, Note_on_c, 1, 48, 54
1, 3951, Note_on_c, 1, 48, 0
1, 3952, Note_on_c, 1, 53, 54
1, 3967, Note_on_c, 1, 53, 0
1, 3968, Note_on_c, 1, 57, 54
1, 3983, Note_on_c, 1, 57, 0
1, 3984, Note_on_c, 1, 48, 54
1, 3999, Note_on_c, 1, 48, 0
1, 4000, Note_on_c, 1, 53, 54
1, 4015, Note_on_c, 1, 53, 0
1, 4016, Note_on_c, 1, 57, 54
1, 4025, Note_on_c, 0, 69, 0
1, 4031, Note_on_c, 1, 57, 0
1, 4032, Note_on_c, 0, 74, 72
1, 4032, Note_on_c, 1, 46, 54
1, 4047, Note_on_c, 1, 46, 0
1, 4048, Note_on_c, 1, 53, 54
1, 4063, Note_on_c, 1, 53, 0
1, 4064, Note_on_c, 1, 57, 55
1, 4079, Note_on_c, 1, 57, 0
1, 4080, Note_on_c, 1, 46, 55
1, 4095, Note_on_c, 1, 46, 0
1, 4096, Note_on_c, 1, 53, 56
1, 4111, Note_on_c, 1, 53, 0
1, 4112, Note_on_c, 1, 57, 56
1, 4121, Note_on_c, 0, 74, 0
1, 4127, Note_on_c, 1, 57, 0
1, 4128, Note_on_c, 0, 79, 76
1, 4128, Note_on_c, 1, 46, 57
1, 4143, Note_on_c, 1, 46, 0
1, 4144, Note_on_c, 1, 53, 57
1, 4159, Note_on_c, 1, 53, 0
1, 4160, Note_on_c, 1, 55, 58
1, 4175, Note_on_c, 1, 55, 0
1, 4176, Note_on_c, 1, 46, 59
1, 4191, Note_on_c, 1, 46, 0
1, 4192, Note_on_c, 1, 53, 59
1, 4207, Note_on_c, 1, 53, 0
1, 4208, Note_on_c, 1, 55, 60
1, 4217, Note_on_c, 0, 79, 0
1, 4223, Note_on_c, 1, 55, 0
1, 4224, Note_on_c, 0, 77, 80
1, 4224, Note_on_c, 1, 47, 63
1, 4239, Note_on_c, 1, 47, 0
1, 4240, Note_on_c, 1, 50, 63
1, 4255, Note_on_c, 1, 50, 0
1, 4256, Note_on_c, 1, 55, 63
1, 4271, Note_on_c, 1, 55, 0
1, 4272, Note_on_c, 1, 47, 63
1, 4287, Note_on_c, 1, 47, 0
1, 4288, Note_on_c, 1, 50, 63
1, 4303, Note_on_c, 1, 50, 0
1, 4304, Note_on_c, 1, 55, 63
1, 4313, Note_on_c, 0, 77, 0
1, 4319, Note_on_c, 1, 55, 0
1, 4320, Note_on_c, 0, 77, 80
1, 4320, Note_on_c, 1, 48, 63
1, 4335, Note_on_c, 1, 48, 0
1, 4336, Note_on_c, 1, 52, 62
1, 4343, Note_on_c, 0, 77, 0
1, 4344, Note_on_c, 0, 76, 79
1, 4351, Note_on_c, 1, 52, 0
1, 4352, Note_on_c, 1, 55, 61
1, 4367, Note_on_c, 0, 76, 0
1, 4367, Note_on_c, 1, 55, 0
1, 4368, Note_on_c, 0, 74, 78
1, 4368, Note_on_c, 1, 48, 61
1, 4383, Note_on_c, 1, 48, 0
1, 4384, Note_on_c, 1, 52, 60
1, 4391, Note_on_c, 0, 74, 0
1, 4392, Note_on_c, 0, 72, 77
1, 4399, Note_on_c, 1, 52, 0
1, 4400, Note_on_c, 1, 55, 60
1, 4415, Note_on_c, 0, 72, 0
1, 4415, Note_on_c, 1, 55, 0
1, 4416, Note_on_c, 0, 70, 76
1, 4416, Note_on_c, 1, 52, 59
1, 4431, Note_on_c, 1, 52, 0
1, 4432, Note_on_c, 1, 55, 59
1, 4447, Note_on_c, 1, 55, 0
1, 4448, Note_on_c, 1, 60, 58
1, 4463, Note_on_c, 1, 60, 0
1, 4464, Note_on_c, 1, 52, 57
1, 4479, Note_on_c, 1, 52, 0
1, 4480, Note_on_c, 1, 55, 57
1, 4495, Note_on_c, 1, 55, 0
1, 4496, Note_on_c, 1, 60, 56
1, 4505, Note_on_c, 0, 70, 0
1, 4511, Note_on_c, 1, 60, 0
1, 4512, Note_on_c, 0, 69, 72
1, 4512, Note_on_c, 1, 53, 54
1, 4527, Note_on_c, 1, 53, 0
1, 4528, Note_on_c, 1, 57, 54
1, 4543, Note_on_c, 1, 57, 0
1, 4544, Note_on_c, 1, 60, 54
1, 4559, Note_on_c, 1, 60, 0
1, 4560, Note_on_c, 1, 53, 54
1, 4575, Note_on_c, 1, 53, 0
1, 4576, Note_on_c, 1, 57, 54
1, 4591, Note_on_c, 1, 57, 0
1, 4592, Note_on_c, 1, 60, 54
1, 4601, Note_on_c, 0, 69, 0
1, 4607, Note_on_c, 1, 60, 0
1, 4608, Note_on_c, 1, 62, 54
1, 4608, Note_on_c, 1, 58, 54
1, 4624, Note_on_c, 0, 67, 72
1, 4639, Note_on_c, 0, 67, 0
1, 4640, Note_on_c, 0, 70, 72
1, 4653, Note_on_c, 1, 62, 0
1, 4653, Note_on_c, 1, 58, 0
1, 4655, Note_on_c, 0, 70, 0
1, 4656, Note_on_c, 0, 74, 72
1, 4671, Note_on_c, 0, 74, 0
1, 4672, Note_on_c, 0, 70, 72
1, 4687, Note_on_c, 0, 70, 0
1, 4688, Note_on_c, 0, 67, 72
1, 4703, Note_on_c, 0, 67, 0
1, 4704, Note_on_c, 0, 65, 72
1, 4704, Note_on_c, 1, 57, 72
1, 4704, Note_on_c, 1, 48, 64
1, 4800, Note_on_c, 1, 57, 0
1, 4800, Note_on_c, 1, 58, 72
1, 4837, Note_on_c, 0, 65, 0
1, 4848, Note_on_c, 0, 69, 72
1, 4848, Note_on_c, 0, 64, 64
1, 4872, Note_on_c, 0, 69, 0
1, 4872, Note_on_c, 0, 67, 72
1, 4881, Note_on_c, 1, 48, 0
1, 4889, Note_on_c, 1, 58, 0
1, 4893, Note_on_c, 0, 67, 0
1, 4893, Note_on_c, 0, 64, 0
1, 4896, Note_on_c, 0, 69, 72
1, 4896, Note_on_c, 1, 53, 72
1, 4911, Note_on_c, 0, 69, 0
1, 4911, Note_on_c, 1, 53, 0
1, 4912, Note_on_c, 0, 72, 72
1, 4912, Note_on_c, 1, 57, 72
1, 4927, Note_on_c, 0, 72, 0
1, 4927, Note_on_c, 1, 57, 0
1, 4928, Note_on_c, 0, 70, 73
1, 4928, Note_on_c, 1, 55, 72
1, 4943, Note_on_c, 0, 70, 0
1, 4943, Note_on_c, 1, 55, 0
1, 4944, Note_on_c, 0, 69, 73
1, 4944, Note_on_c, 1, 53, 72
1, 4959, Note_on_c, 0, 69, 0
1, 4959, Note_on_c, 1, 53, 0
1, 4960, Note_on_c, 0, 77, 74
1, 4960, Note_on_c, 1, 62, 72
1, 4975, Note_on_c, 0, 77, 0
1, 4975, Note_on_c, 1, 62, 0
1, 4976, Note_on_c, 0, 76, 75
1, 4976, Note_on_c, 1, 60, 72
1, 4991, Note_on_c, 0, 76, 0
1, 4991, Note_on_c, 1, 60, 0
1, 4992, Note_on_c, 0, 74, 75
1, 4992, Note_on_c, 1, 58, 72
1, 5007, Note_on_c, 0, 74, 0
1, 5007, Note_on_c, 1, 58, 0
1, 5008, Note_on_c, 0, 82, 76
1, 5008, Note_on_c, 1, 67, 72
1, 5023, Note_on_c, 0, 82, 0
1, 5023, Note_on_c, 1, 67, 0
1, 5024, Note_on_c, 0, 81, 76
1, 5024, Note_on_c, 1, 65, 72
1, 5039, Note_on_c, 0, 81, 0
1, 5039, Note_on_c, 1, 65, 0
1, 5040, Note_on_c, 0, 79, 77
1, 5040, Note_on_c, 1, 64, 72
1, 5055, Note_on_c, 0, 79, 0
1, 5055, Note_on_c, 1, 64, 0
1, 5056, Note_on_c, 0, 86, 80
1, 5056, Note_on_c, 1, 70, 72
1, 5071, Note_on_c, 0, 86, 0
1, 5071, Note_on_c, 1, 70, 0
1, 5072, Note_on_c, 0, 84, 78
1, 5072, Note_on_c, 1, 69, 70
1, 5087, Note_on_c, 0, 84, 0
1, 5087, Note_on_c, 1, 69, 0
1, 5088, Note_on_c, 0, 82, 76
1, 5088, Note_on_c, 1, 67, 68
1, 5103, Note_on_c, 0, 82, 0
1, 5103, Note_on_c, 1, 67, 0
1, 5104, Note_on_c, 0, 81, 75
1, 5104, Note_on_c, 1, 65, 67
1, 5119, Note_on_c, 0, 81, 0
1, 5119, Note_on_c, 1, 65, 0
1, 5120, Note_on_c, 0, 79, 73
1, 5120, Note_on_c, 1, 64, 65
1, 5135, Note_on_c, 0, 79, 0
1, 5135, Note_on_c, 1, 64, 0
1, 5136, Note_on_c, 0, 77, 72
1, 5136, Note_on_c, 1, 62, 63
1, 5151, Note_on_c, 0, 77, 0
1, 5151, Note_on_c, 1, 62, 0
1, 5152, Note_on_c, 0, 76, 70
1, 5152, Note_on_c, 1, 60, 62
1, 5167, Note_on_c, 0, 76, 0
1, 5167, Note_on_c, 1, 60, 0
1, 5168, Note_on_c, 0, 74, 69
1, 5168, Note_on_c, 1, 58, 60
1, 5183, Note_on_c, 0, 74, 0
1, 5183, Note_on_c, 1, 58, 0
1, 5184, Note_on_c, 0, 72, 79
1, 5184, Note_on_c, 1, 57, 54
1, 5199, Note_on_c, 1, 57, 0
1, 5200, Note_on_c, 1, 60, 54
1, 5215, Note_on_c, 1, 60, 0
1, 5216, Note_on_c, 1, 65, 54
1, 5231, Note_on_c, 1, 65, 0
1, 5232, Note_on_c, 1, 57, 54
1, 5247, Note_on_c, 1, 57, 0
1, 5248, Note_on_c, 1, 60, 54
1, 5263, Note_on_c, 1, 60, 0
1, 5264, Note_on_c, 1, 65, 54
1, 5279, Note_on_c, 1, 65, 0
1, 5280, Note_on_c, 0, 72, 0
1, 5280, Note_on_c, 0, 72, 63
1, 5280, Note_on_c, 1, 55, 54
1, 5287, Note_on_c, 0, 72, 0
1, 5287, Note_on_c, 0, 70, 63
1, 5294, Note_on_c, 0, 70, 0
1, 5294, Note_on_c, 0, 72, 63
1, 5295, Note_on_c, 1, 55, 0
1, 5296, Note_on_c, 1, 58, 54
1, 5301, Note_on_c, 0, 72, 0
1, 5301, Note_on_c, 0, 70, 63
1, 5308, Note_on_c, 0, 70, 0
1, 5308, Note_on_c, 0, 72, 63
1, 5311, Note_on_c, 1, 58, 0
1, 5312, Note_on_c, 1, 64, 54
1, 5315, Note_on_c, 0, 72, 0
1, 5315, Note_on_c, 0, 70, 63
1, 5322, Note_on_c, 0, 70, 0
1, 5322, Note_on_c, 0, 72, 63
1, 5327, Note_on_c, 1, 64, 0
1, 5328, Note_on_c, 1, 55, 54
1, 5329, Note_on_c, 0, 72, 0
1, 5329, Note_on_c, 0, 70, 63
1, 5336, Note_on_c, 0, 70, 0
1, 5336, Note_on_c, 0, 72, 63
1, 5343, Note_on_c, 0, 72, 0
1, 5343, Note_on_c, 0, 70, 63
1, 5343, Note_on_c, 1, 55, 0
1, 5344, Note_on_c, 1, 58, 54
1, 5350, Note_on_c, 0, 70, 0
1, 5350, Note_on_c, 0, 72, 63
1, 5357, Note_on_c, 0, 72, 0
1, 5357, Note_on_c, 0, 70, 63
1, 5359, Note_on_c, 1, 58, 0
1, 5360, Note_on_c, 1, 64, 54
1, 5364, Note_on_c, 0, 70, 0
1, 5364, Note_on_c, 0, 69, 63
1, 5370, Note_on_c, 0, 69, 0
1, 5370, Note_on_c, 0, 70, 63
1, 5375, Note_on_c, 1, 64, 0
1, 5376, Note_on_c, 0, 70, 0
1, 5376, Note_on_c, 0, 69, 63
1, 5376, Note_on_c, 1, 53, 54
1, 5391, Note_on_c, 1, 53, 0
1, 5392, Note_on_c, 1, 57, 54
1, 5407, Note_on_c, 1, 57, 0
1, 5408, Note_on_c, 1, 65, 54
1, 5423, Note_on_c, 1, 65, 0
1, 5424, Note_on_c, 1, 53, 54
1, 5439, Note_on_c, 1, 53, 0
1, 5440, Note_on_c, 1, 57, 54
1, 5455, Note_on_c, 1, 57, 0
1, 5456, Note_on_c, 1, 65, 54
1, 5465, Note_on_c, 0, 69, 0
1, 5471, Note_on_c, 1, 65, 0
1, 5472, Note_on_c, 0, 66, 63
1, 5472, Note_on_c, 1, 62, 54
1, 5472, Note_on_c, 1, 58, 54
1, 5488, Note_on_c, 0, 66, 0
1, 5488, Note_on_c, 0, 67, 64
1, 5503, Note_on_c, 0, 67, 0
1, 5504, Note_on_c, 0, 70, 65
1, 5519, Note_on_c, 0, 70, 0
1, 5520, Note_on_c, 0, 74, 66
1, 5535, Note_on_c, 0, 74, 0
1, 5536, Note_on_c, 0, 79, 67
1, 5551, Note_on_c, 0, 79, 0
1, 5552, Note_on_c, 0, 82, 68
1, 5561, Note_on_c, 1, 62, 0
1, 5561, Note_on_c, 1, 58, 0
1, 5567, Note_on_c, 0, 82, 0
1, 5568, Note_on_c, 0, 86, 69
1, 5583, Note_on_c, 0, 86, 0
1, 5584, Note_on_c, 0, 84, 70
1, 5599, Note_on_c, 0, 84, 0
1, 5600, Note_on_c, 0, 82, 72
1, 5615, Note_on_c, 0, 82, 0
1, 5616, Note_on_c, 0, 81, 70
1, 5631, Note_on_c, 0, 81, 0
1, 5632, Note_on_c, 0, 79, 69
1, 5647, Note_on_c, 0, 79, 0
1, 5648, Note_on_c, 0, 77, 68
1, 5663, Note_on_c, 0, 77, 0
1, 5664, Note_on_c, 0, 77, 88
1, 5664, Note_on_c, 1, 70, 54
1, 5664, Note_on_c, 1, 60, 54
1, 5680, Note_on_c, 0, 77, 0
1, 5680, Note_on_c, 0, 76, 71
1, 5695, Note_on_c, 0, 76, 0
1, 5696, Note_on_c, 0, 79, 70
1, 5711, Note_on_c, 0, 79, 0
1, 5712, Note_on_c, 0, 82, 69
1, 5727, Note_on_c, 0, 82, 0
1, 5728, Note_on_c, 0, 79, 69
1, 5743, Note_on_c, 0, 79, 0
1, 5744, Note_on_c, 0, 76, 68
1, 5759, Note_on_c, 0, 76, 0
1, 5760, Note_on_c, 0, 76, 67
1, 5760, Note_on_c, 1, 60, 0
1, 5760, Note_on_c, 1, 65, 50
1, 5856, Note_on_c, 0, 76, 0
1, 5856, Note_on_c, 0, 77, 67
1, 5856, Note_on_c, 1, 70, 0
1, 5856, Note_on_c, 1, 69, 46
1, 5895, Note_on_c, 0, 77, 0
1, 5901, Note_on_c, 1, 69, 0
1, 5901, Note_on_c, 1, 65, 0
1, 6048, Note_on_c, 0, 81, 80
1, 6048, Note_on_c, 1, 65, 64
1, 6048, Note_on_c, 1, 62, 64
1, 6120, Note_on_c, 0, 81, 0
1, 6120, Note_on_c, 0, 77, 64
1, 6132, Note_on_c, 0, 77, 0
1, 6132, Note_on_c, 0, 74, 64
1, 6144, Note_on_c, 0, 74, 0
1, 6144, Note_on_c, 0, 73, 64
1, 6144, Note_on_c, 1, 65, 0
1, 6144, Note_on_c, 1, 62, 0
1, 6144, Note_on_c, 1, 67, 64
1, 6144, Note_on_c, 1, 64, 64
1, 6164, Note_on_c, 0, 73, 0
1, 6164, Note_on_c, 1, 67, 0
1, 6164, Note_on_c, 1, 64, 0
1, 6336, Note_on_c, 0, 82, 80
1, 6336, Note_on_c, 1, 73, 64
1, 6336, Note_on_c, 1, 70, 64
1, 6336, Note_on_c, 1, 67, 64
1, 6336, Note_on_c, 1, 64, 64
1, 6408, Note_on_c, 0, 82, 0
1, 6408, Note_on_c, 0, 79, 64
1, 6420, Note_on_c, 0, 79, 0
1, 6420, Note_on_c, 0, 76, 64
1, 6432, Note_on_c, 0, 76, 0
1, 6432, Note_on_c, 0, 74, 64
1, 6432, Note_on_c, 1, 73, 0
1, 6432, Note_on_c, 1, 70, 0
1, 6432, Note_on_c, 1, 67, 0
1, 6432, Note_on_c, 1, 64, 0
1, 6432, Note_on_c, 1, 74, 64
1, 6432, Note_on_c, 1, 69, 64
1, 6432, Note_on_c, 1, 65, 64
1, 6452, Note_on_c, 0, 74, 0
1, 6452, Note_on_c, 1, 74, 0
1, 6452, Note_on_c, 1, 69, 0
1, 6452, Note_on_c, 1, 65, 0
1, 6504, Note_on_c, 0, 85, 64
1, 6528, Note_on_c, 0, 85, 0
1, 6528, Note_on_c, 0, 86, 64
1, 6548, Note_on_c, 0, 86, 0
1, 6600, Note_on_c, 0, 81, 64
1, 6624, Note_on_c, 0, 81, 0
1, 6624, Note_on_c, 0, 82, 64
1, 6624, Note_on_c, 1, 67, 64
1, 6644, Note_on_c, 0, 82, 0
1, 6644, Note_on_c, 1, 67, 0
1, 6696, Note_on_c, 0, 74, 64
1, 6720, Note_on_c, 0, 74, 0
1, 6720, Note_on_c, 0, 73, 64
1, 6720, Note_on_c, 1, 69, 64
1, 6740, Note_on_c, 0, 73, 0
1, 6740, Note_on_c, 1, 69, 0
1, 6792, Note_on_c, 0, 76, 64
1, 6816, Note_on_c, 0, 76, 0
1, 6816, Note_on_c, 0, 81, 64
1, 6816, Note_on_c, 1, 69, 64
1, 6816, Note_on_c, 1, 61, 64
1, 6836, Note_on_c, 0, 81, 0
1, 6836, Note_on_c, 1, 69, 0
1, 6836, Note_on_c, 1, 61, 0
1, 6888, Note_on_c, 0, 79, 64
1, 6911, Note_on_c, 0, 79, 0
1, 6912, Note_on_c, 0, 79, 80
1, 6912, Note_on_c, 1, 69, 64
1, 6912, Note_on_c, 1, 62, 64
1, 6957, Note_on_c, 1, 69, 0
1, 6957, Note_on_c, 1, 62, 0
1, 6960, Note_on_c, 0, 79, 0
1, 6960, Note_on_c, 0, 77, 64
1, 6967, Note_on_c, 0, 77, 0
1, 6967, Note_on_c, 0, 79, 64
1, 6974, Note_on_c, 0, 79, 0
1, 6974, Note_on_c, 0, 77, 64
1, 6981, Note_on_c, 0, 77, 0
1, 6981, Note_on_c, 0, 79, 64
1, 6988, Note_on_c, 0, 79, 0
1, 6988, Note_on_c, 0, 77, 64
1, 6995, Note_on_c, 0, 77, 0
1, 6995, Note_on_c, 0, 76, 64
1, 7002, Note_on_c, 0, 76, 0
1, 7002, Note_on_c, 0, 77, 64
1, 7008, Note_on_c, 0, 77, 0
1, 7008, Note_on_c, 0, 76, 64
1, 7008, Note_on_c, 1, 73, 64
1, 7008, Note_on_c, 1, 69, 64
1, 7053, Note_on_c, 0, 76, 0
1, 7053, Note_on_c, 1, 73, 0
1, 7053, Note_on_c, 1, 69, 0
1, 7200, Note_on_c, 0, 69, 80
1, 7200, Note_on_c, 1, 53, 64
1, 7200, Note_on_c, 1, 50, 64
1, 7248, Note_on_c, 0, 69, 0
1, 7248, Note_on_c, 0, 67, 64
1, 7260, Note_on_c, 0, 67, 0
1, 7260, Note_on_c, 0, 65, 64
1, 7272, Note_on_c, 0, 65, 0
1, 7272, Note_on_c, 0, 64, 64
1, 7284, Note_on_c, 0, 64, 0
1, 7284, Note_on_c, 0, 62, 64
1, 7296, Note_on_c, 0, 62, 0
1, 7296, Note_on_c, 0, 61, 64
1, 7296, Note_on_c, 1, 53, 0
1, 7296, Note_on_c, 1, 50, 0
1, 7296, Note_on_c, 1, 55, 64
1, 7296, Note_on_c, 1, 52, 64
1, 7316, Note_on_c, 0, 61, 0
1, 7316, Note_on_c, 1, 55, 0
1, 7316, Note_on_c, 1, 52, 0
1, 7392, Note_on_c, 0, 55, 64
1, 7399, Note_on_c, 0, 55, 0
1, 7408, Note_on_c, 0, 58, 64
1, 7415, Note_on_c, 0, 58, 0
1, 7424, Note_on_c, 0, 61, 64
1, 7431, Note_on_c, 0, 61, 0
1, 7440, Note_on_c, 0, 64, 64
1, 7447, Note_on_c, 0, 64, 0
1, 7456, Note_on_c, 0, 67, 64
1, 7463, Note_on_c, 0, 67, 0
1, 7472, Note_on_c, 0, 69, 64
1, 7479, Note_on_c, 0, 69, 0
1, 7488, Note_on_c, 0, 70, 80
1, 7488, Note_on_c, 1, 61, 64
1, 7488, Note_on_c, 1, 58, 64
1, 7488, Note_on_c, 1, 55, 64
1, 7488, Note_on_c, 1, 52, 64
1, 7536, Note_on_c, 0, 70, 0
1, 7536, Note_on_c, 0, 69, 64
1, 7548, Note_on_c, 0, 69, 0
1, 7548, Note_on_c, 0, 67, 64
1, 7560, Note_on_c, 0, 67, 0
1, 7560, Note_on_c, 0, 65, 64
1, 7572, Note_on_c, 0, 65, 0
1, 7572, Note_on_c, 0, 64, 64
1, 7584, Note_on_c, 0, 64, 0
1, 7584, Note_on_c, 0, 62, 64
1, 7584, Note_on_c, 1, 61, 0
1, 7584, Note_on_c, 1, 58, 0
1, 7584, Note_on_c, 1, 55, 0
1, 7584, Note_on_c, 1, 52, 0
1, 7584, Note_on_c, 1, 57, 64
1, 7584, Note_on_c, 1, 53, 64
1, 7604, Note_on_c, 0, 62, 0
1, 7604, Note_on_c, 1, 57, 0
1, 7604, Note_on_c, 1, 53, 0
1, 7656, Note_on_c, 0, 73, 64
1, 7679, Note_on_c, 0, 73, 0
1, 7680, Note_on_c, 0, 76, 64
1, 7686, Note_on_c, 0, 76, 0
1, 7686, Note_on_c, 0, 74, 64
1, 7692, Note_on_c, 0, 74, 0
1, 7692, Note_on_c, 0, 73, 64
1, 7698, Note_on_c, 0, 73, 0
1, 7698, Note_on_c, 0, 74, 80
1, 7728, Note_on_c, 0, 74, 0
1, 7752, Note_on_c, 0, 76, 64
1, 7775, Note_on_c, 0, 76, 0
1, 7776, Note_on_c, 0, 79, 64
1, 7776, Note_on_c, 1, 56, 64
1, 7776, Note_on_c, 1, 50, 64
1, 7776, Note_on_c, 1, 46, 64
1, 7782, Note_on_c, 0, 79, 0
1, 7782, Note_on_c, 0, 77, 64
1, 7788, Note_on_c, 0, 77, 0
1, 7788, Note_on_c, 0, 76, 64
1, 7794, Note_on_c, 0, 76, 0
1, 7794, Note_on_c, 0, 77, 80
1, 7824, Note_on_c, 0, 77, 0
1, 7848, Note_on_c, 0, 85, 64
1, 7865, Note_on_c, 1, 56, 0
1, 7865, Note_on_c, 1, 50, 0
1, 7865, Note_on_c, 1, 46, 0
1, 7872, Note_on_c, 0, 85, 0
1, 7872, Note_on_c, 0, 86, 64
1, 7892, Note_on_c, 0, 86, 0
1, 7944, Note_on_c, 0, 88, 64
1, 7968, Note_on_c, 0, 88, 0
1, 7968, Note_on_c, 0, 89, 64
1, 7968, Note_on_c, 1, 34, 64
1, 7988, Note_on_c, 0, 89, 0
1, 8013, Note_on_c, 1, 34, 0
1, 8040, Note_on_c, 0, 56, 64
1, 8063, Note_on_c, 0, 56, 0
1, 8064, Note_on_c, 0, 56, 64
1, 8064, Note_on_c, 1, 33, 64
1, 8103, Note_on_c, 1, 33, 0
1, 8153, Note_on_c, 0, 56, 0
1, 8160, Note_on_c, 0, 58, 64
1, 8166, Note_on_c, 0, 58, 0
1, 8166, Note_on_c, 0, 57, 64
1, 8172, Note_on_c, 0, 57, 0
1, 8172, Note_on_c, 0, 56, 64
1, 8178, Note_on_c, 0, 56, 0
1, 8178, Note_on_c, 0, 57, 64
1, 8249, Note_on_c, 0, 57, 0
1, 8352, Note_on_c, 1, 41, 80
1, 8352, Note_on_c, 1, 29, 80
1, 8368, Note_on_c, 0, 84, 72
1, 8383, Note_on_c, 0, 84, 0
1, 8384, Note_on_c, 0, 79, 72
1, 8399, Note_on_c, 0, 79, 0
1, 8400, Note_on_c, 0, 81, 72
1, 8415, Note_on_c, 0, 81, 0
1, 8416, Note_on_c, 0, 84, 72
1, 8431, Note_on_c, 0, 84, 0
1, 8432, Note_on_c, 0, 76, 72
1, 8446, Note_on_c, 1, 41, 0
1, 8446, Note_on_c, 1, 29, 0
1, 8447, Note_on_c, 0, 76, 0
1, 8448, Note_on_c, 0, 77, 72
1, 8463, Note_on_c, 0, 77, 0
1, 8464, Note_on_c, 0, 81, 72
1, 8479, Note_on_c, 0, 81, 0
1, 8480, Note_on_c, 0, 77, 72
1, 8495, Note_on_c, 0, 77, 0
1, 8496, Note_on_c, 0, 76, 72
1, 8511, Note_on_c, 0, 76, 0
1, 8512, Note_on_c, 0, 74, 72
1, 8527, Note_on_c, 0, 74, 0
1, 8528, Note_on_c, 0, 72, 72
1, 8543, Note_on_c, 0, 72, 0
1, 8544, Note_on_c, 0, 70, 72
1, 8559, Note_on_c, 0, 70, 0
1, 8560, Note_on_c, 0, 69, 72
1, 8575, Note_on_c, 0, 69, 0
1, 8576, Note_on_c, 0, 67, 72
1, 8591, Note_on_c, 0, 67, 0
1, 8592, Note_on_c, 0, 65, 72
1, 8607, Note_on_c, 0, 65, 0
1, 8608, Note_on_c, 0, 64, 72
1, 8623, Note_on_c, 0, 64, 0
1, 8624, Note_on_c, 0, 62, 72
1, 8639, Note_on_c, 0, 62, 0
1, 8640, Note_on_c, 0, 60, 72
1, 8688, Note_on_c, 1, 58, 54
1, 8688, Note_on_c, 1, 52, 54
1, 8733, Note_on_c, 1, 58, 0
1, 8733, Note_on_c, 1, 52, 0
1, 8736, Note_on_c, 1, 58, 54
1, 8736, Note_on_c, 1, 52, 54
1, 8781, Note_on_c, 1, 58, 0
1, 8781, Note_on_c, 1, 52, 0
1, 8784, Note_on_c, 1, 58, 54
1, 8784, Note_on_c, 1, 52, 54
1, 8817, Note_on_c, 0, 60, 0
1, 8829, Note_on_c, 1, 58, 0
1, 8829, Note_on_c, 1, 52, 0
1, 8832, Note_on_c, 0, 64, 72
1, 8832, Note_on_c, 1, 58, 54
1, 8832, Note_on_c, 1, 52, 54
1, 8838, Note_on_c, 0, 64, 0
1, 8838, Note_on_c, 0, 62, 72
1, 8877, Note_on_c, 1, 58, 0
1, 8877, Note_on_c, 1, 52, 0
1, 8880, Note_on_c, 1, 58, 54
1, 8880, Note_on_c, 1, 52, 54
1, 8904, Note_on_c, 0, 62, 0
1, 8904, Note_on_c, 0, 60, 72
1, 8925, Note_on_c, 1, 58, 0
1, 8925, Note_on_c, 1, 52, 0
1, 8927, Note_on_c, 0, 60, 0
1, 8928, Note_on_c, 0, 60, 88
1, 8928, Note_on_c, 1, 57, 54
1, 8928, Note_on_c, 1, 53, 54
1, 8944, Note_on_c, 0, 60, 0
1, 8944, Note_on_c, 0, 84, 72
1, 8959, Note_on_c, 0, 84, 0
1, 8960, Note_on_c, 0, 79, 72
1, 8975, Note_on_c, 0, 79, 0
1, 8976, Note_on_c, 0, 81, 72
1, 8991, Note_on_c, 0, 81, 0
1, 8992, Note_on_c, 0, 84, 72
1, 9007, Note_on_c, 0, 84, 0
1, 9008, Note_on_c, 0, 76, 72
1, 9017, Note_on_c, 1, 57, 0
1, 9017, Note_on_c, 1, 53, 0
1, 9023, Note_on_c, 0, 76, 0
1, 9024, Note_on_c, 0, 77, 72
1, 9039, Note_on_c, 0, 77, 0
1, 9040, Note_on_c, 0, 81, 72
1, 9055, Note_on_c, 0, 81, 0
1, 9056, Note_on_c, 0, 77, 72
1, 9071, Note_on_c, 0, 77, 0
1, 9072, Note_on_c, 0, 76, 72
1, 9087, Note_on_c, 0, 76, 0
1, 9088, Note_on_c, 0, 74, 72
1, 9103, Note_on_c, 0, 74, 0
1, 9104, Note_on_c, 0, 72, 72
1, 9119, Note_on_c, 0, 72, 0
1, 9120, Note_on_c, 0, 70, 72
1, 9135, Note_on_c, 0, 70, 0
1, 9136, Note_on_c, 0, 69, 72
1, 9151, Note_on_c, 0, 69, 0
1, 9152, Note_on_c, 0, 67, 72
1, 9167, Note_on_c, 0, 67, 0
1, 9168, Note_on_c, 0, 65, 72
1, 9183, Note_on_c, 0, 65, 0
1, 9184, Note_on_c, 0, 64, 72
1, 9199, Note_on_c, 0, 64, 0
1, 9200, Note_on_c, 0, 62, 72
1, 9215, Note_on_c, 0, 62, 0
1, 9216, Note_on_c, 0, 60, 72
1, 9264, Note_on_c, 1, 57, 54
1, 9264, Note_on_c, 1, 51, 54
1, 9309, Note_on_c, 1, 57, 0
1, 9309, Note_on_c, 1, 51, 0
1, 9312, Note_on_c, 1, 57, 54
1, 9312, Note_on_c, 1, 51, 54
1, 9357, Note_on_c, 1, 57, 0
1, 9357, Note_on_c, 1, 51, 0
1, 9360, Note_on_c, 1, 57, 54
1, 9360, Note_on_c, 1, 51, 54
1, 9393, Note_on_c, 0, 60, 0
1, 9405, Note_on_c, 1, 57, 0
1, 9405, Note_on_c, 1, 51, 0
1, 9408, Note_on_c, 0, 63, 72
1, 9408, Note_on_c, 1, 57, 54
1, 9408, Note_on_c, 1, 51, 54
1, 9414, Note_on_c, 0, 63, 0
1, 9414, Note_on_c, 0, 62, 72
1, 9453, Note_on_c, 1, 57, 0
1, 9453, Note_on_c, 1, 51, 0
1, 9456, Note_on_c, 1, 57, 54
1, 9456, Note_on_c, 1, 51, 54
1, 9475, Note_on_c, 0, 62, 0
1, 9480, Note_on_c, 0, 60, 72
1, 9501, Note_on_c, 1, 57, 0
1, 9501, Note_on_c, 1, 51, 0
1, 9503, Note_on_c, 0, 60, 0
1, 9504, Note_on_c, 0, 65, 72
1, 9552, Note_on_c, 1, 53, 54
1, 9552, Note_on_c, 1, 50, 54
1, 9571, Note_on_c, 0, 65, 0
1, 9576, Note_on_c, 0, 62, 72
1, 9597, Note_on_c, 1, 53, 0
1, 9597, Note_on_c, 1, 50, 0
1, 9599, Note_on_c, 0, 62, 0
1, 9600, Note_on_c, 0, 58, 72
1, 9600, Note_on_c, 1, 53, 54
1, 9600, Note_on_c, 1, 50, 54
1, 9645, Note_on_c, 1, 53, 0
1, 9645, Note_on_c, 1, 50, 0
1, 9648, Note_on_c, 1, 53, 54
1, 9648, Note_on_c, 1, 50, 54
1, 9693, Note_on_c, 1, 53, 0
1, 9693, Note_on_c, 1, 50, 0
1, 9696, Note_on_c, 1, 53, 54
1, 9696, Note_on_c, 1, 50, 54
1, 9711, Note_on_c, 0, 58, 0
1, 9712, Note_on_c, 0, 62, 72
1, 9719, Note_on_c, 0, 62, 0
1, 9728, Note_on_c, 0, 64, 72
1, 9735, Note_on_c, 0, 64, 0
1, 9741, Note_on_c, 1, 53, 0
1, 9741, Note_on_c, 1, 50, 0
1, 9744, Note_on_c, 0, 65, 72
1, 9751, Note_on_c, 0, 65, 0
1, 9760, Note_on_c, 0, 67, 72
1, 9767, Note_on_c, 0, 67, 0
1, 9776, Note_on_c, 0, 69, 72
1, 9783, Note_on_c, 0, 69, 0
1, 9792, Note_on_c, 0, 70, 72
1, 9792, Note_on_c, 1, 48, 54
1, 9807, Note_on_c, 1, 48, 0
1, 9808, Note_on_c, 1, 52, 54
1, 9823, Note_on_c, 1, 52, 0
1, 9824, Note_on_c, 1, 55, 54
1, 9839, Note_on_c, 1, 55, 0
1, 9840, Note_on_c, 1, 48, 54
1, 9855, Note_on_c, 1, 48, 0
1, 9856, Note_on_c, 1, 52, 54
1, 9871, Note_on_c, 1, 52, 0
1, 9872, Note_on_c, 1, 55, 54
1, 9887, Note_on_c, 1, 55, 0
1, 9888, Note_on_c, 1, 48, 54
1, 9903, Note_on_c, 1, 48, 0
1, 9904, Note_on_c, 1, 52, 54
1, 9919, Note_on_c, 1, 52, 0
1, 9920, Note_on_c, 1, 55, 54
1, 9935, Note_on_c, 1, 55, 0
1, 9936, Note_on_c, 1, 48, 54
1, 9951, Note_on_c, 1, 48, 0
1, 9952, Note_on_c, 1, 52, 54
1, 9955, Note_on_c, 0, 70, 0
1, 9960, Note_on_c, 0, 72, 72
1, 9967, Note_on_c, 1, 52, 0
1, 9968, Note_on_c, 1, 55, 54
1, 9972, Note_on_c, 0, 72, 0
1, 9972, Note_on_c, 0, 70, 72
1, 9983, Note_on_c, 1, 55, 0
1, 9984, Note_on_c, 0, 70, 0
1, 9984, Note_on_c, 0, 69, 72
1, 9984, Note_on_c, 1, 48, 54
1, 9999, Note_on_c, 1, 48, 0
1, 10000, Note_on_c, 1, 53, 54
1, 10015, Note_on_c, 1, 53, 0
1, 10016, Note_on_c, 1, 57, 54
1, 10031, Note_on_c, 1, 57, 0
1, 10032, Note_on_c, 1, 48, 54
1, 10047, Note_on_c, 1, 48, 0
1, 10048, Note_on_c, 1, 53, 54
1, 10063, Note_on_c, 1, 53, 0
1, 10064, Note_on_c, 1, 57, 54
1, 10073, Note_on_c, 0, 69, 0
1, 10079, Note_on_c, 1, 57, 0
1, 10080, Note_on_c, 0, 74, 72
1, 10080, Note_on_c, 1, 46, 54
1, 10095, Note_on_c, 1, 46, 0
1, 10096, Note_on_c, 1, 53, 54
1, 10111, Note_on_c, 1, 53, 0
1, 10112, Note_on_c, 1, 57, 55
1, 10127, Note_on_c, 1, 57, 0
1, 10128, Note_on_c, 1, 46, 55
1, 10143, Note_on_c, 1, 46, 0
1, 10144, Note_on_c, 1, 53, 56
1, 10159, Note_on_c, 1, 53, 0
1, 10160, Note_on_c, 1, 57, 56
1, 10169, Note_on_c, 0, 74, 0
1, 10175, Note_on_c, 1, 57, 0
1, 10176, Note_on_c, 0, 79, 76
1, 10176, Note_on_c, 1, 46, 57
1, 10191, Note_on_c, 1, 46, 0
1, 10192, Note_on_c, 1, 53, 57
1, 10207, Note_on_c, 1, 53, 0
1, 10208, Note_on_c, 1, 55, 58
1, 10223, Note_on_c, 1, 55, 0
1, 10224, Note_on_c, 1, 46, 59
1, 10239, Note_on_c, 1, 46, 0
1, 10240, Note_on_c, 1, 53, 59
1, 10255, Note_on_c, 1, 53, 0
1, 10256, Note_on_c, 1, 55, 60
1, 10265, Note_on_c, 0, 79, 0
1, 10271, Note_on_c, 1, 55, 0
1, 10272, Note_on_c, 0, 77, 80
1, 10272, Note_on_c, 1, 47, 63
1, 10287, Note_on_c, 1, 47, 0
1, 10288, Note_on_c, 1, 50, 63
1, 10303, Note_on_c, 1, 50, 0
1, 10304, Note_on_c, 1, 55, 63
1, 10319, Note_on_c, 1, 55, 0
1, 10320, Note_on_c, 1, 47, 63
1, 10335, Note_on_c, 1, 47, 0
1, 10336, Note_on_c, 1, 50, 63
1, 10351, Note_on_c, 1, 50, 0
1, 10352, Note_on_c, 1, 55, 63
1, 10361, Note_on_c, 0, 77, 0
1, 10367, Note_on_c, 1, 55, 0
1, 10368, Note_on_c, 0, 77, 80
1, 10368, Note_on_c, 1, 48, 63
1, 10383, Note_on_c, 1, 48, 0
1, 10384, Note_on_c, 1, 52, 62
1, 10391, Note_on_c, 0, 77, 0
1, 10392, Note_on_c, 0, 76, 79
1, 10399, Note_on_c, 1, 52, 0
1, 10400, Note_on_c, 1, 55, 61
1, 10415, Note_on_c, 0, 76, 0
1, 10415, Note_on_c, 1, 55, 0
1, 10416, Note_on_c, 0, 74, 78
1, 10416, Note_on_c, 1, 48, 61
1, 10431, Note_on_c, 1, 48, 0
1, 10432, Note_on_c, 1, 52, 60
1, 10439, Note_on_c, 0, 74, 0
1, 10440, Note_on_c, 0, 72, 77
1, 10447, Note_on_c, 1, 52, 0
1, 10448, Note_on_c, 1, 55, 60
1, 10463, Note_on_c, 0, 72, 0
1, 10463, Note_on_c, 1, 55, 0
1, 10464, Note_on_c, 0, 70, 76
1, 10464, Note_on_c, 1, 52, 59
1, 10479, Note_on_c, 1, 52, 0
1, 10480, Note_on_c, 1, 55, 59
1, 10495, Note_on_c, 1, 55, 0
1, 10496, Note_on_c, 1, 60, 58
1, 10511, Note_on_c, 1, 60, 0
1, 10512, Note_on_c, 1, 52, 57
1, 10527, Note_on_c, 1, 52, 0
1, 10528, Note_on_c, 1, 55, 57
1, 10543, Note_on_c, 1, 55, 0
1, 10544, Note_on_c, 1, 60, 56
1, 10553, Note_on_c, 0, 70, 0
1, 10559, Note_on_c, 1, 60, 0
1, 10560, Note_on_c, 0, 69, 72
1, 10560, Note_on_c, 1, 53, 54
1, 10575, Note_on_c, 1, 53, 0
1, 10576, Note_on_c, 1, 57, 54
1, 10591, Note_on_c, 1, 57, 0
1, 10592, Note_on_c, 1, 60, 54
1, 10607, Note_on_c, 1, 60, 0
1, 10608, Note_on_c, 1, 53, 54
1, 10623, Note_on_c, 1, 53, 0
1, 10624, Note_on_c, 1, 57, 54
1, 10639, Note_on_c, 1, 57, 0
1, 10640, Note_on_c, 1, 60, 54
1, 10649, Note_on_c, 0, 69, 0
1, 10655, Note_on_c, 1, 60, 0
1, 10656, Note_on_c, 1, 62, 54
1, 10656, Note_on_c, 1, 58, 54
1, 10672, Note_on_c, 0, 67, 72
1, 10687, Note_on_c, 0, 67, 0
1, 10688, Note_on_c, 0, 70, 72
1, 10701, Note_on_c, 1, 62, 0
1, 10701, Note_on_c, 1, 58, 0
1, 10703, Note_on_c, 0, 70, 0
1, 10704, Note_on_c, 0, 74, 72
1, 10719, Note_on_c, 0, 74, 0
1, 10720, Note_on_c, 0, 70, 72
1, 10735, Note_on_c, 0, 70, 0
1, 10736, Note_on_c, 0, 67, 72
1, 10751, Note_on_c, 0, 67, 0
1, 10752, Note_on_c, 0, 65, 72
1, 10752, Note_on_c, 1, 57, 72
1, 10752, Note_on_c, 1, 48, 64
1, 10848, Note_on_c, 1, 57, 0
1, 10848, Note_on_c, 1, 58, 72
1, 10885, Note_on_c, 0, 65, 0
1, 10896, Note_on_c, 0, 69, 72
1, 10896, Note_on_c, 0, 64, 64
1, 10920, Note_on_c, 0, 69, 0
1, 10920, Note_on_c, 0, 67, 72
1, 10929, Note_on_c, 1, 48, 0
1, 10937, Note_on_c, 1, 58, 0
1, 10941, Note_on_c, 0, 67, 0
1, 10941, Note_on_c, 0, 64, 0
1, 10944, Note_on_c, 0, 69, 72
1, 10944, Note_on_c, 1, 53, 72
1, 10959, Note_on_c, 0, 69, 0
1, 10959, Note_on_c, 1, 53, 0
1, 10960, Note_on_c, 0, 72, 72
1, 10960, Note_on_c, 1, 57, 72
1, 10975, Note_on_c, 0, 72, 0
1, 10975, Note_on_c, 1, 57, 0
1, 10976, Note_on_c, 0, 70, 73
1, 10976, Note_on_c, 1, 55, 72
1, 10991, Note_on_c, 0, 70, 0
1, 10991, Note_on_c, 1, 55, 0
1, 10992, Note_on_c, 0, 69, 73
1, 10992, Note_on_c, 1, 53, 72
1, 11007, Note_on_c, 0, 69, 0
1, 11007, Note_on_c, 1, 53, 0
1, 11008, Note_on_c, 0, 77, 74
1, 11008, Note_on_c, 1, 62, 72
1, 11023, Note_on_c, 0, 77, 0
1, 11023, Note_on_c, 1, 62, 0
1, 11024, Note_on_c, 0, 76, 75
1, 11024, Note_on_c, 1, 60, 72
1, 11039, Note_on_c, 0, 76, 0
1, 11039, Note_on_c, 1, 60, 0
1, 11040, Note_on_c, 0, 74, 75
1, 11040, Note_on_c, 1, 58, 72
1, 11055, Note_on_c, 0, 74, 0
1, 11055, Note_on_c, 1, 58, 0
1, 11056, Note_on_c, 0, 82, 76
1, 11056, Note_on_c, 1, 67, 72
1, 11071, Note_on_c, 0, 82, 0
1, 11071, Note_on_c, 1, 67, 0
1, 11072, Note_on_c, 0, 81, 76
1, 11072, Note_on_c, 1, 65, 72
1, 11087, Note_on_c, 0, 81, 0
1, 11087, Note_on_c, 1, 65, 0
1, 11088, Note_on_c, 0, 79, 77
1, 11088, Note_on_c, 1, 64, 72
1, 11103, Note_on_c, 0, 79, 0
1, 11103, Note_on_c, 1, 64, 0
1, 11104, Note_on_c, 0, 86, 80
1, 11104, Note_on_c, 1, 70, 72
1, 11119, Note_on_c, 0, 86, 0
1, 11119, Note_on_c, 1, 70, 0
1, 11120, Note_on_c, 0, 84, 78
1, 11120, Note_on_c, 1, 69, 70
1, 11135, Note_on_c, 0, 84, 0
1, 11135, Note_on_c, 1, 69, 0
1, 11136, Note_on_c, 0, 82, 76
1, 11136, Note_on_c, 1, 67, 68
1, 11151, Note_on_c, 0, 82, 0
1, 11151, Note_on_c, 1, 67, 0
1, 11152, Note_on_c, 0, 81, 75
1, 11152, Note_on_c, 1, 65, 67
1, 11167, Note_on_c, 0, 81, 0
1, 11167, Note_on_c, 1, 65, 0
1, 11168, Note_on_c, 0, 79, 73
1, 11168, Note_on_c, 1, 64, 65
1, 11183, Note_on_c, 0, 79, 0
1, 11183, Note_on_c, 1, 64, 0
1, 11184, Note_on_c, 0, 77, 72
1, 11184, Note_on_c, 1, 62, 63
1, 11199, Note_on_c, 0, 77, 0
1, 11199, Note_on_c, 1, 62, 0
1, 11200, Note_on_c, 0, 76, 70
1, 11200, Note_on_c, 1, 60, 62
1, 11215, Note_on_c, 0, 76, 0
1, 11215, Note_on_c, 1, 60, 0
1, 11216, Note_on_c, 0, 74, 69
1, 11216, Note_on_c, 1, 58, 60
1, 11231, Note_on_c, 0, 74, 0
1, 11231, Note_on_c, 1, 58, 0
1, 11232, Note_on_c, 0, 72, 79
1, 11232, Note_on_c, 1, 57, 54
1, 11247, Note_on_c, 1, 57, 0
1, 11248, Note_on_c, 1, 60, 54
1, 11263, Note_on_c, 1, 60, 0
1, 11264, Note_on_c, 1, 65, 54
1, 11279, Note_on_c, 1, 65, 0
1, 11280, Note_on_c, 1, 57, 54
1, 11295, Note_on_c, 1, 57, 0
1, 11296, Note_on_c, 1, 60, 54
1, 11311, Note_on_c, 1, 60, 0
1, 11312, Note_on_c, 1, 65, 54
1, 11327, Note_on_c, 1, 65, 0
1, 11328, Note_on_c, 0, 72, 0
1, 11328, Note_on_c, 0, 72, 63
1, 11328, Note_on_c, 1, 55, 54
1, 11335, Note_on_c, 0, 72, 0
1, 11335, Note_on_c, 0, 70, 63
1, 11342, Note_on_c, 0, 70, 0
1, 11342, Note_on_c, 0, 72, 63
1, 11343, Note_on_c, 1, 55, 0
1, 11344, Note_on_c, 1, 58, 54
1, 11349, Note_on_c, 0, 72, 0
1, 11349, Note_on_c, 0, 70, 63
1, 11356, Note_on_c, 0, 70, 0
1, 11356, Note_on_c, 0, 72, 63
1, 11359, Note_on_c, 1, 58, 0
1, 11360, Note_on_c, 1, 64, 54
1, 11363, Note_on_c, 0, 72, 0
1, 11363, Note_on_c, 0, 70, 63
1, 11370, Note_on_c, 0, 70, 0
1, 11370, Note_on_c, 0, 72, 63
1, 11375, Note_on_c, 1, 64, 0
1, 11376, Note_on_c, 1, 55, 54
1, 11377, Note_on_c, 0, 72, 0
1, 11377, Note_on_c, 0, 70, 63
1, 11384, Note_on_c, 0, 70, 0
1, 11384, Note_on_c, 0, 72, 63
1, 11391, Note_on_c, 0, 72, 0
1, 11391, Note_on_c, 0, 70, 63
1, 11391, Note_on_c, 1, 55, 0
1, 11392, Note_on_c, 1, 58, 54
1, 11398, Note_on_c, 0, 70, 0
1, 11398, Note_on_c, 0, 72, 63
1, 11405, Note_on_c, 0, 72, 0
1, 11405, Note_on_c, 0, 70, 63
1, 11407, Note_on_c, 1, 58, 0
1, 11408, Note_on_c, 1, 64, 54
1, 11412, Note_on_c, 0, 70, 0
1, 11412, Note_on_c, 0, 69, 63
1, 11418, Note_on_c, 0, 69, 0
1, 11418, Note_on_c, 0, 70, 63
1, 11423, Note_on_c, 1, 64, 0
1, 11424, Note_on_c, 0, 70, 0
1, 11424, Note_on_c, 0, 69, 63
1, 11424, Note_on_c, 1, 53, 54
1, 11439, Note_on_c, 1, 53, 0
1, 11440, Note_on_c, 1, 57, 54
1, 11455, Note_on_c, 1, 57, 0
1, 11456, Note_on_c, 1, 65, 54
1, 11471, Note_on_c, 1, 65, 0
1, 11472, Note_on_c, 1, 53, 54
1, 11487, Note_on_c, 1, 53, 0
1, 11488, Note_on_c, 1, 57, 54
1, 11503, Note_on_c, 1, 57, 0
1, 11504, Note_on_c, 1, 65, 54
1, 11513, Note_on_c, 0, 69, 0
1, 11519, Note_on_c, 1, 65, 0
1, 11520, Note_on_c, 0, 66, 63
1, 11520, Note_on_c, 1, 62, 54
1, 11520, Note_on_c, 1, 58, 54
1, 11536, Note_on_c, 0, 66, 0
1, 11536, Note_on_c, 0, 67, 64
1, 11551, Note_on_c, 0, 67, 0
1, 11552, Note_on_c, 0, 70, 65
1, 11567, Note_on_c, 0, 70, 0
1, 11568, Note_on_c, 0, 74, 66
1, 11583, Note_on_c, 0, 74, 0
1, 11584, Note_on_c, 0, 79, 67
1, 11599, Note_on_c, 0, 79, 0
1, 11600, Note_on_c, 0, 82, 68
1, 11609, Note_on_c, 1, 62, 0
1, 11609, Note_on_c, 1, 58, 0
1, 11615, Note_on_c, 0, 82, 0
1, 11616, Note_on_c, 0, 86, 69
1, 11631, Note_on_c, 0, 86, 0
1, 11632, Note_on_c, 0, 84, 70
1, 11647, Note_on_c, 0, 84, 0
1, 11648, Note_on_c, 0, 82, 72
1, 11663, Note_on_c, 0, 82, 0
1, 11664, Note_on_c, 0, 81, 70
1, 11679, Note_on_c, 0, 81, 0
1, 11680, Note_on_c, 0, 79, 69
1, 11695, Note_on_c, 0, 79, 0
1, 11696, Note_on_c, 0, 77, 68
1, 11711, Note_on_c, 0, 77, 0
1, 11712, Note_on_c, 0, 77, 88
1, 11712, Note_on_c, 1, 70, 54
1, 11712, Note_on_c, 1, 60, 54
1, 11728, Note_on_c, 0, 77, 0
1, 11728, Note_on_c, 0, 76, 71
1, 11743, Note_on_c, 0, 76, 0
1, 11744, Note_on_c, 0, 79, 70
1, 11759, Note_on_c, 0, 79, 0
1, 11760, Note_on_c, 0, 82, 69
1, 11775, Note_on_c, 0, 82, 0
1, 11776, Note_on_c, 0, 79, 69
1, 11791, Note_on_c, 0, 79, 0
1, 11792, Note_on_c, 0, 76, 68
1, 11807, Note_on_c, 0, 76, 0
1, 11808, Note_on_c, 0, 76, 67
1, 11808, Note_on_c, 1, 60, 0
1, 11808, Note_on_c, 1, 65, 50
1, 11904, Note_on_c, 0, 76, 0
1, 11904, Note_on_c, 0, 77, 67
1, 11904, Note_on_c, 1, 70, 0
1, 11904, Note_on_c, 1, 69, 46
1, 11943, Note_on_c, 0, 77, 0
1, 11949, Note_on_c, 1, 69, 0
1, 11949, Note_on_c, 1, 65, 0
1, 12096, Note_on_c, 0, 72, 88
1, 12096, Note_on_c, 1, 57, 72
1, 12096, Note_on_c, 1, 53, 72
1, 12168, Note_on_c, 0, 72, 0
1, 12168, Note_on_c, 0, 69, 72
1, 12180, Note_on_c, 0, 69, 0
1, 12180, Note_on_c, 0, 65, 72
1, 12192, Note_on_c, 0, 65, 0
1, 12192, Note_on_c, 0, 64, 72
1, 12192, Note_on_c, 1, 57, 0
1, 12192, Note_on_c, 1, 53, 0
1, 12192, Note_on_c, 1, 58, 72
1, 12192, Note_on_c, 1, 55, 72
1, 12212, Note_on_c, 0, 64, 0
1, 12212, Note_on_c, 1, 58, 0
1, 12212, Note_on_c, 1, 55, 0
1, 12288, Note_on_c, 1, 55, 72
1, 12295, Note_on_c, 1, 55, 0
1, 12304, Note_on_c, 1, 58, 72
1, 12311, Note_on_c, 1, 58, 0
1, 12320, Note_on_c, 1, 60, 72
1, 12327, Note_on_c, 1, 60, 0
1, 12336, Note_on_c, 0, 64, 72
1, 12343, Note_on_c, 0, 64, 0
1, 12352, Note_on_c, 0, 67, 72
1, 12359, Note_on_c, 0, 67, 0
1, 12368, Note_on_c, 0, 70, 72
1, 12375, Note_on_c, 0, 70, 0
1, 12384, Note_on_c, 0, 74, 88
1, 12432, Note_on_c, 0, 74, 0
1, 12432, Note_on_c, 0, 72, 72
1, 12444, Note_on_c, 0, 72, 0
1, 12444, Note_on_c, 0, 70, 72
1, 12456, Note_on_c, 0, 70, 0
1, 12456, Note_on_c, 0, 69, 72
1, 12468, Note_on_c, 0, 69, 0
1, 12468, Note_on_c, 0, 67, 72
1, 12480, Note_on_c, 0, 67, 0
1, 12480, Note_on_c, 0, 66, 72
1, 12480, Note_on_c, 1, 63, 72
1, 12480, Note_on_c, 1, 60, 72
1, 12480, Note_on_c, 1, 57, 72
1, 12525, Note_on_c, 0, 66, 0
1, 12525, Note_on_c, 1, 63, 0
1, 12525, Note_on_c, 1, 60, 0
1, 12525, Note_on_c, 1, 57, 0
1, 12672, Note_on_c, 1, 58, 72
1, 12679, Note_on_c, 1, 58, 0
1, 12688, Note_on_c, 1, 62, 72
1, 12695, Note_on_c, 1, 62, 0
1, 12704, Note_on_c, 1, 67, 72
1, 12711, Note_on_c, 1, 67, 0
1, 12720, Note_on_c, 0, 70, 72
1, 12727, Note_on_c, 0, 70, 0
1, 12736, Note_on_c, 0, 74, 72
1, 12743, Note_on_c, 0, 74, 0
1, 12752, Note_on_c, 0, 79, 72
1, 12759, Note_on_c, 0, 79, 0
1, 12768, Note_on_c, 0, 82, 72
1, 12775, Note_on_c, 0, 82, 0
1, 12784, Note_on_c, 0, 86, 72
1, 12791, Note_on_c, 0, 86, 0
1, 12800, Note_on_c, 0, 84, 72
1, 12815, Note_on_c, 0, 84, 0
1, 12816, Note_on_c, 0, 82, 72
1, 12831, Note_on_c, 0, 82, 0
1, 12832, Note_on_c, 0, 81, 72
1, 12847, Note_on_c, 0, 81, 0
1, 12848, Note_on_c, 0, 79, 72
1, 12863, Note_on_c, 0, 79, 0
1, 12864, Note_on_c, 0, 86, 72
1, 12879, Note_on_c, 0, 86, 0
1, 12880, Note_on_c, 0, 84, 72
1, 12895, Note_on_c, 0, 84, 0
1, 12896, Note_on_c, 0, 82, 72
1, 12911, Note_on_c, 0, 82, 0
1, 12912, Note_on_c, 0, 81, 72
1, 12927, Note_on_c, 0, 81, 0
1, 12928, Note_on_c, 0, 79, 72
1, 12943, Note_on_c, 0, 79, 0
1, 12944, Note_on_c, 0, 77, 72
1, 12959, Note_on_c, 0, 77, 0
1, 12960, Note_on_c, 0, 77, 72
1, 12960, Note_on_c, 1, 60, 54
1, 12975, Note_on_c, 1, 60, 0
1, 12976, Note_on_c, 1, 67, 54
1, 12991, Note_on_c, 1, 67, 0
1, 12992, Note_on_c, 1, 70, 54
1, 13007, Note_on_c, 1, 70, 0
1, 13008, Note_on_c, 1, 60, 54
1, 13023, Note_on_c, 1, 60, 0
1, 13024, Note_on_c, 1, 67, 54
1, 13039, Note_on_c, 1, 67, 0
1, 13040, Note_on_c, 1, 70, 54
1, 13055, Note_on_c, 1, 70, 0
1, 13056, Note_on_c, 1, 60, 54
1, 13071, Note_on_c, 1, 60, 0
1, 13072, Note_on_c, 1, 67, 54
1, 13087, Note_on_c, 1, 67, 0
1, 13088, Note_on_c, 1, 70, 54
1, 13103, Note_on_c, 1, 70, 0
1, 13104, Note_on_c, 1, 60, 54
1, 13119, Note_on_c, 1, 60, 0
1, 13120, Note_on_c, 1, 67, 54
1, 13135, Note_on_c, 1, 67, 0
1, 13136, Note_on_c, 1, 70, 54
1, 13151, Note_on_c, 1, 70, 0
1, 13152, Note_on_c, 0, 77, 0
1, 13152, Note_on_c, 0, 76, 72
1, 13152, Note_on_c, 1, 60, 54
1, 13158, Note_on_c, 0, 76, 0
1, 13158, Note_on_c, 0, 77, 72
1, 13164, Note_on_c, 0, 77, 0
1, 13164, Note_on_c, 0, 76, 72
1, 13167, Note_on_c, 1, 60, 0
1, 13168, Note_on_c, 1, 67, 54
1, 13183, Note_on_c, 1, 67, 0
1, 13184, Note_on_c, 1, 70, 54
1, 13199, Note_on_c, 1, 70, 0
1, 13200, Note_on_c, 1, 60, 54
1, 13215, Note_on_c, 1, 60, 0
1, 13216, Note_on_c, 1, 67, 54
1, 13231, Note_on_c, 1, 67, 0
1, 13232, Note_on_c, 1, 70, 54
1, 13241, Note_on_c, 0, 76, 0
1, 13247, Note_on_c, 1, 70, 0
1, 13248, Note_on_c, 1, 70, 72
1, 13248, Note_on_c, 1, 65, 72
1, 13264, Note_on_c, 0, 72, 72
1, 13279, Note_on_c, 0, 72, 0
1, 13280, Note_on_c, 0, 74, 72
1, 13295, Note_on_c, 0, 74, 0
1, 13296, Note_on_c, 0, 76, 72
1, 13311, Note_on_c, 0, 76, 0
1, 13312, Note_on_c, 0, 77, 72
1, 13327, Note_on_c, 0, 77, 0
1, 13328, Note_on_c, 0, 79, 72
1, 13343, Note_on_c, 0, 79, 0
1, 13344, Note_on_c, 0, 81, 72
1, 13344, Note_on_c, 1, 70, 0
1, 13344, Note_on_c, 1, 69, 72
1, 13359, Note_on_c, 0, 81, 0
1, 13360, Note_on_c, 0, 82, 72
1, 13375, Note_on_c, 0, 82, 0
1, 13376, Note_on_c, 0, 84, 72
1, 13391, Note_on_c, 0, 84, 0
1, 13392, Note_on_c, 0, 82, 72
1, 13407, Note_on_c, 0, 82, 0
1, 13408, Note_on_c, 0, 81, 72
1, 13423, Note_on_c, 0, 81, 0
1, 13424, Note_on_c, 0, 79, 72
1, 13439, Note_on_c, 0, 79, 0
1, 13440, Note_on_c, 0, 77, 72
1, 13455, Note_on_c, 0, 77, 0
1, 13456, Note_on_c, 0, 84, 72
1, 13471, Note_on_c, 0, 84, 0
1, 13472, Note_on_c, 0, 82, 72
1, 13487, Note_on_c, 0, 82, 0
1, 13488, Note_on_c, 0, 81, 72
1, 13503, Note_on_c, 0, 81, 0
1, 13504, Note_on_c, 0, 79, 72
1, 13513, Note_on_c, 1, 65, 0
1, 13519, Note_on_c, 0, 79, 0
1, 13520, Note_on_c, 0, 77, 72
1, 13521, Note_on_c, 1, 69, 0
1, 13535, Note_on_c, 0, 77, 0
1, 13536, Note_on_c, 0, 76, 72
1, 13536, Note_on_c, 1, 58, 54
1, 13551, Note_on_c, 1, 58, 0
1, 13552, Note_on_c, 1, 65, 54
1, 13567, Note_on_c, 1, 65, 0
1, 13568, Note_on_c, 1, 69, 54
1, 13583, Note_on_c, 1, 69, 0
1, 13584, Note_on_c, 1, 58, 54
1, 13599, Note_on_c, 1, 58, 0
1, 13600, Note_on_c, 1, 65, 54
1, 13603, Note_on_c, 0, 76, 0
1, 13608, Note_on_c, 0, 74, 72
1, 13615, Note_on_c, 1, 65, 0
1, 13616, Note_on_c, 1, 69, 54
1, 13631, Note_on_c, 0, 74, 0
1, 13631, Note_on_c, 1, 69, 0
1, 13632, Note_on_c, 0, 82, 88
1, 13632, Note_on_c, 1, 58, 54
1, 13647, Note_on_c, 1, 58, 0
1, 13648, Note_on_c, 1, 65, 54
1, 13663, Note_on_c, 1, 65, 0
1, 13664, Note_on_c, 1, 67, 54
1, 13679, Note_on_c, 1, 67, 0
1, 13680, Note_on_c, 1, 58, 54
1, 13695, Note_on_c, 1, 58, 0
1, 13696, Note_on_c, 1, 65, 54
1, 13711, Note_on_c, 1, 65, 0
1, 13712, Note_on_c, 1, 67, 54
1, 13726, Note_on_c, 0, 82, 0
1, 13727, Note_on_c, 1, 67, 0
1, 13728, Note_on_c, 0, 74, 72
1, 13728, Note_on_c, 1, 58, 54
1, 13743, Note_on_c, 1, 58, 0
1, 13744, Note_on_c, 1, 65, 54
1, 13759, Note_on_c, 1, 65, 0
1, 13760, Note_on_c, 1, 67, 54
1, 13775, Note_on_c, 1, 67, 0
1, 13776, Note_on_c, 1, 58, 54
1, 13791, Note_on_c, 1, 58, 0
1, 13792, Note_on_c, 1, 65, 54
1, 13807, Note_on_c, 1, 65, 0
1, 13808, Note_on_c, 1, 67, 54
1, 13817, Note_on_c, 0, 74, 0
1, 13823, Note_on_c, 1, 67, 0
1, 13824, Note_on_c, 0, 73, 72
1, 13824, Note_on_c, 1, 57, 54
1, 13839, Note_on_c, 1, 57, 0
1, 13840, Note_on_c, 1, 64, 54
1, 13855, Note_on_c, 1, 64, 0
1, 13856, Note_on_c, 1, 67, 54
1, 13871, Note_on_c, 1, 67, 0
1, 13872, Note_on_c, 1, 57, 54
1, 13887, Note_on_c, 1, 57, 0
1, 13888, Note_on_c, 1, 64, 54
1, 13891, Note_on_c, 0, 73, 0
1, 13896, Note_on_c, 0, 76, 72
1, 13903, Note_on_c, 1, 64, 0
1, 13904, Note_on_c, 1, 67, 54
1, 13919, Note_on_c, 0, 76, 0
1, 13919, Note_on_c, 1, 67, 0
1, 13920, Note_on_c, 0, 79, 72
1, 13920, Note_on_c, 1, 61, 54
1, 13935, Note_on_c, 1, 61, 0
1, 13936, Note_on_c, 1, 64, 54
1, 13951, Note_on_c, 1, 64, 0
1, 13952, Note_on_c, 1, 69, 54
1, 13967, Note_on_c, 1, 69, 0
1, 13968, Note_on_c, 1, 61, 54
1, 13983, Note_on_c, 1, 61, 0
1, 13984, Note_on_c, 1, 64, 54
1, 13999, Note_on_c, 1, 64, 0
1, 14000, Note_on_c, 1, 69, 54
1, 14014, Note_on_c, 0, 79, 0
1, 14015, Note_on_c, 1, 69, 0
1, 14016, Note_on_c, 0, 77, 72
1, 14016, Note_on_c, 1, 62, 54
1, 14031, Note_on_c, 1, 62, 0
1, 14032, Note_on_c, 1, 65, 54
1, 14047, Note_on_c, 1, 65, 0
1, 14048, Note_on_c, 1, 69, 54
1, 14063, Note_on_c, 1, 69, 0
1, 14064, Note_on_c, 1, 62, 54
1, 14079, Note_on_c, 1, 62, 0
1, 14080, Note_on_c, 1, 65, 54
1, 14083, Note_on_c, 0, 77, 0
1, 14088, Note_on_c, 0, 74, 72
1, 14095, Note_on_c, 1, 65, 0
1, 14096, Note_on_c, 1, 69, 54
1, 14111, Note_on_c, 0, 74, 0
1, 14111, Note_on_c, 1, 69, 0
1, 14112, Note_on_c, 0, 81, 72
1, 14112, Note_on_c, 1, 57, 54
1, 14127, Note_on_c, 1, 57, 0
1, 14128, Note_on_c, 1, 61, 54
1, 14143, Note_on_c, 1, 61, 0
1, 14144, Note_on_c, 1, 64, 54
1, 14159, Note_on_c, 1, 64, 0
1, 14160, Note_on_c, 1, 69, 54
1, 14175, Note_on_c, 1, 69, 0
1, 14176, Note_on_c, 1, 64, 54
1, 14191, Note_on_c, 1, 64, 0
1, 14192, Note_on_c, 1, 61, 54
1, 14201, Note_on_c, 0, 81, 0
1, 14207, Note_on_c, 1, 61, 0
1, 14208, Note_on_c, 1, 57, 72
1, 14253, Note_on_c, 1, 57, 0
1, 14304, Note_on_c, 1, 57, 72
1, 14319, Note_on_c, 1, 57, 0
1, 14320, Note_on_c, 1, 58, 72
1, 14335, Note_on_c, 1, 58, 0
1, 14336, Note_on_c, 1, 57, 72
1, 14351, Note_on_c, 1, 57, 0
1, 14352, Note_on_c, 1, 55, 72
1, 14367, Note_on_c, 1, 55, 0
1, 14368, Note_on_c, 1, 53, 72
1, 14383, Note_on_c, 1, 53, 0
1, 14384, Note_on_c, 1, 52, 72
1, 14399, Note_on_c, 1, 52, 0
1, 14400, Note_on_c, 1, 50, 72
1, 14416, Note_on_c, 0, 69, 72
1, 14431, Note_on_c, 0, 69, 0
1, 14432, Note_on_c, 0, 67, 72
1, 14445, Note_on_c, 1, 50, 0
1, 14447, Note_on_c, 0, 67, 0
1, 14448, Note_on_c, 0, 65, 72
1, 14463, Note_on_c, 0, 65, 0
1, 14464, Note_on_c, 0, 64, 72
1, 14479, Note_on_c, 0, 64, 0
1, 14480, Note_on_c, 0, 62, 72
1, 14495, Note_on_c, 0, 62, 0
1, 14496, Note_on_c, 0, 61, 72
1, 14496, Note_on_c, 1, 52, 72
1, 14504, Note_on_c, 1, 55, 72
1, 14512, Note_on_c, 1, 58, 72
1, 14585, Note_on_c, 0, 61, 0
1, 14589, Note_on_c, 1, 58, 0
1, 14589, Note_on_c, 1, 55, 0
1, 14589, Note_on_c, 1, 52, 0
1, 14688, Note_on_c, 1, 64, 72
1, 14694, Note_on_c, 1, 67, 72
1, 14700, Note_on_c, 1, 70, 72
1, 14704, Note_on_c, 0, 82, 72
1, 14706, Note_on_c, 1, 73, 72
1, 14719, Note_on_c, 0, 82, 0
1, 14720, Note_on_c, 0, 81, 72
1, 14735, Note_on_c, 0, 81, 0
1, 14736, Note_on_c, 0, 79, 72
1, 14751, Note_on_c, 0, 79, 0
1, 14752, Note_on_c, 0, 77, 72
1, 14767, Note_on_c, 0, 77, 0
1, 14768, Note_on_c, 0, 76, 72
1, 14781, Note_on_c, 1, 73, 0
1, 14781, Note_on_c, 1, 70, 0
1, 14781, Note_on_c, 1, 67, 0
1, 14781, Note_on_c, 1, 64, 0
1, 14783, Note_on_c, 0, 76, 0
1, 14784, Note_on_c, 0, 74, 72
1, 14784, Note_on_c, 1, 62, 72
1, 14790, Note_on_c, 1, 65, 72
1, 14796, Note_on_c, 1, 69, 72
1, 14799, Note_on_c, 0, 74, 0
1, 14800, Note_on_c, 0, 81, 72
1, 14802, Note_on_c, 1, 74, 72
1, 14815, Note_on_c, 0, 81, 0
1, 14816, Note_on_c, 0, 79, 72
1, 14831, Note_on_c, 0, 79, 0
1, 14832, Note_on_c, 0, 77, 72
1, 14847, Note_on_c, 0, 77, 0
1, 14848, Note_on_c, 0, 76, 72
1, 14863, Note_on_c, 0, 76, 0
1, 14864, Note_on_c, 0, 74, 72
1, 14877, Note_on_c, 1, 74, 0
1, 14877, Note_on_c, 1, 69, 0
1, 14877, Note_on_c, 1, 65, 0
1, 14877, Note_on_c, 1, 62, 0
1, 14879, Note_on_c, 0, 74, 0
1, 14880, Note_on_c, 0, 86, 72
1, 14900, Note_on_c, 0, 86, 0
1, 14952, Note_on_c, 0, 84, 72
1, 14952, Note_on_c, 0, 74, 72
1, 14952, Note_on_c, 1, 66, 72
1, 14976, Note_on_c, 0, 84, 0
1, 14976, Note_on_c, 0, 82, 72
1, 14976, Note_on_c, 1, 66, 0
1, 14976, Note_on_c, 1, 67, 72
1, 14996, Note_on_c, 0, 82, 0
1, 14996, Note_on_c, 0, 74, 0
1, 14996, Note_on_c, 1, 67, 0
1, 15048, Note_on_c, 0, 74, 72
1, 15048, Note_on_c, 1, 70, 72
1, 15072, Note_on_c, 0, 74, 0
1, 15072, Note_on_c, 0, 73, 72
1, 15072, Note_on_c, 1, 70, 0
1, 15072, Note_on_c, 1, 69, 72
1, 15092, Note_on_c, 0, 73, 0
1, 15092, Note_on_c, 1, 69, 0
1, 15144, Note_on_c, 0, 76, 72
1, 15144, Note_on_c, 1, 61, 72
1, 15168, Note_on_c, 0, 76, 0
1, 15168, Note_on_c, 0, 81, 72
1, 15168, Note_on_c, 0, 73, 72
1, 15168, Note_on_c, 1, 61, 0
1, 15168, Note_on_c, 1, 57, 72
1, 15188, Note_on_c, 0, 81, 0
1, 15188, Note_on_c, 0, 73, 0
1, 15188, Note_on_c, 1, 57, 0
1, 15240, Note_on_c, 0, 79, 72
1, 15240, Note_on_c, 1, 69, 72
1, 15240, Note_on_c, 1, 61, 72
1, 15263, Note_on_c, 0, 79, 0
1, 15263, Note_on_c, 1, 69, 0
1, 15263, Note_on_c, 1, 61, 0
1, 15264, Note_on_c, 0, 79, 72
1, 15264, Note_on_c, 1, 69, 72
1, 15264, Note_on_c, 1, 62, 72
1, 15309, Note_on_c, 0, 79, 0
1, 15309, Note_on_c, 1, 69, 0
1, 15309, Note_on_c, 1, 62, 0
1, 15312, Note_on_c, 0, 77, 72
1, 15319, Note_on_c, 0, 77, 0
1, 15319, Note_on_c, 0, 79, 72
1, 15326, Note_on_c, 0, 79, 0
1, 15326, Note_on_c, 0, 77, 72
1, 15333, Note_on_c, 0, 77, 0
1, 15333, Note_on_c, 0, 79, 72
1, 15340, Note_on_c, 0, 79, 0
1, 15340, Note_on_c, 0, 77, 72
1, 15347, Note_on_c, 0, 77, 0
1, 15347, Note_on_c, 0, 76, 72
1, 15354, Note_on_c, 0, 76, 0
1, 15354, Note_on_c, 0, 77, 72
1, 15360, Note_on_c, 0, 77, 0
1, 15360, Note_on_c, 0, 76, 72
1, 15360, Note_on_c, 1, 73, 72
1, 15360, Note_on_c, 1, 69, 72
1, 15380, Note_on_c, 0, 76, 0
1, 15405, Note_on_c, 1, 73, 0
1, 15405, Note_on_c, 1, 69, 0
1, 15552, Note_on_c, 0, 69, 88
1, 15568, Note_on_c, 0, 69, 0
1, 15568, Note_on_c, 0, 76, 72
1, 15568, Note_on_c, 1, 61, 72
1, 15583, Note_on_c, 0, 76, 0
1, 15583, Note_on_c, 1, 61, 0
1, 15584, Note_on_c, 0, 74, 72
1, 15584, Note_on_c, 1, 59, 72
1, 15599, Note_on_c, 0, 74, 0
1, 15599, Note_on_c, 1, 59, 0
1, 15600, Note_on_c, 0, 73, 72
1, 15600, Note_on_c, 1, 57, 72
1, 15615, Note_on_c, 0, 73, 0
1, 15615, Note_on_c, 1, 57, 0
1, 15616, Note_on_c, 0, 79, 72
1, 15616, Note_on_c, 1, 64, 72
1, 15631, Note_on_c, 0, 79, 0
1, 15631, Note_on_c, 1, 64, 0
1, 15632, Note_on_c, 0, 77, 72
1, 15632, Note_on_c, 1, 62, 72
1, 15647, Note_on_c, 0, 77, 0
1, 15647, Note_on_c, 1, 62, 0
1, 15648, Note_on_c, 0, 76, 72
1, 15648, Note_on_c, 1, 61, 72
1, 15663, Note_on_c, 0, 76, 0
1, 15663, Note_on_c, 1, 61, 0
1, 15664, Note_on_c, 0, 82, 72
1, 15664, Note_on_c, 1, 67, 72
1, 15679, Note_on_c, 0, 82, 0
1, 15679, Note_on_c, 1, 67, 0
1, 15680, Note_on_c, 0, 81, 72
1, 15680, Note_on_c, 1, 65, 72
1, 15695, Note_on_c, 0, 81, 0
1, 15695, Note_on_c, 1, 65, 0
1, 15696, Note_on_c, 0, 79, 72
1, 15696, Note_on_c, 1, 64, 72
1, 15711, Note_on_c, 0, 79, 0
1, 15712, Note_on_c, 0, 88, 72
1, 15727, Note_on_c, 0, 88, 0
1, 15728, Note_on_c, 0, 86, 72
1, 15741, Note_on_c, 1, 64, 0
1, 15743, Note_on_c, 0, 86, 0
1, 15744, Note_on_c, 0, 85, 72
1, 15759, Note_on_c, 0, 85, 0
1, 15760, Note_on_c, 0, 82, 72
1, 15775, Note_on_c, 0, 82, 0
1, 15776, Note_on_c, 0, 81, 72
1, 15791, Note_on_c, 0, 81, 0
1, 15792, Note_on_c, 0, 79, 72
1, 15807, Note_on_c, 0, 79, 0
1, 15808, Note_on_c, 0, 77, 72
1, 15823, Note_on_c, 0, 77, 0
1, 15824, Note_on_c, 0, 76, 72
1, 15839, Note_on_c, 0, 76, 0
1, 15840, Note_on_c, 0, 74, 88
1, 15856, Note_on_c, 0, 74, 0
1, 15856, Note_on_c, 0, 81, 72
1, 15856, Note_on_c, 1, 66, 72
1, 15871, Note_on_c, 0, 81, 0
1, 15871, Note_on_c, 1, 66, 0
1, 15872, Note_on_c, 0, 79, 72
1, 15872, Note_on_c, 1, 64, 72
1, 15887, Note_on_c, 0, 79, 0
1, 15887, Note_on_c, 1, 64, 0
1, 15888, Note_on_c, 0, 78, 72
1, 15888, Note_on_c, 1, 62, 72
1, 15903, Note_on_c, 0, 78, 0
1, 15903, Note_on_c, 1, 62, 0
1, 15904, Note_on_c, 0, 84, 72
1, 15904, Note_on_c, 1, 69, 72
1, 15919, Note_on_c, 0, 84, 0
1, 15919, Note_on_c, 1, 69, 0
1, 15920, Note_on_c, 0, 82, 72
1, 15920, Note_on_c, 1, 67, 72
1, 15935, Note_on_c, 0, 82, 0
1, 15935, Note_on_c, 1, 67, 0
1, 15936, Note_on_c, 0, 81, 72
1, 15936, Note_on_c, 1, 66, 72
1, 15951, Note_on_c, 0, 81, 0
1, 15951, Note_on_c, 1, 66, 0
1, 15952, Note_on_c, 0, 87, 72
1, 15952, Note_on_c, 1, 72, 72
1, 15967, Note_on_c, 0, 87, 0
1, 15967, Note_on_c, 1, 72, 0
1, 15968, Note_on_c, 0, 86, 72
1, 15968, Note_on_c, 1, 70, 72
1, 15983, Note_on_c, 0, 86, 0
1, 15983, Note_on_c, 1, 70, 0
1, 15984, Note_on_c, 0, 84, 72
1, 15984, Note_on_c, 1, 69, 72
1, 15999, Note_on_c, 0, 84, 0
1, 16000, Note_on_c, 0, 82, 72
1, 16015, Note_on_c, 0, 82, 0
1, 16016, Note_on_c, 0, 81, 72
1, 16029, Note_on_c, 1, 69, 0
1, 16031, Note_on_c, 0, 81, 0
1, 16032, Note_on_c, 0, 79, 72
1, 16047, Note_on_c, 0, 79, 0
1, 16048, Note_on_c, 0, 78, 72
1, 16063, Note_on_c, 0, 78, 0
1, 16064, Note_on_c, 0, 79, 72
1, 16079, Note_on_c, 0, 79, 0
1, 16080, Note_on_c, 0, 81, 72
1, 16095, Note_on_c, 0, 81, 0
1, 16096, Note_on_c, 0, 78, 72
1, 16111, Note_on_c, 0, 78, 0
1, 16112, Note_on_c, 0, 72, 72
1, 16127, Note_on_c, 0, 72, 0
1, 16128, Note_on_c, 0, 70, 72
1, 16128, Note_on_c, 1, 55, 54
1, 16143, Note_on_c, 1, 55, 0
1, 16144, Note_on_c, 1, 58, 54
1, 16159, Note_on_c, 1, 58, 0
1, 16160, Note_on_c, 1, 63, 54
1, 16175, Note_on_c, 1, 63, 0
1, 16176, Note_on_c, 1, 55, 54
1, 16191, Note_on_c, 1, 55, 0
1, 16192, Note_on_c, 1, 58, 54
1, 16207, Note_on_c, 1, 58, 0
1, 16208, Note_on_c, 1, 63, 54
1, 16217, Note_on_c, 0, 70, 0
1, 16223, Note_on_c, 1, 63, 0
1, 16224, Note_on_c, 0, 82, 80
1, 16224, Note_on_c, 1, 55, 54
1, 16239, Note_on_c, 1, 55, 0
1, 16240, Note_on_c, 1, 58, 54
1, 16255, Note_on_c, 1, 58, 0
1, 16256, Note_on_c, 1, 63, 54
1, 16271, Note_on_c, 1, 63, 0
1, 16272, Note_on_c, 1, 55, 54
1, 16287, Note_on_c, 1, 55, 0
1, 16288, Note_on_c, 1, 58, 54
1, 16303, Note_on_c, 1, 58, 0
1, 16304, Note_on_c, 1, 63, 54
1, 16318, Note_on_c, 0, 82, 0
1, 16319, Note_on_c, 1, 63, 0
1, 16320, Note_on_c, 0, 74, 76
1, 16320, Note_on_c, 1, 56, 54
1, 16335, Note_on_c, 1, 56, 0
1, 16336, Note_on_c, 1, 62, 54
1, 16351, Note_on_c, 1, 62, 0
1, 16352, Note_on_c, 1, 65, 54
1, 16367, Note_on_c, 1, 65, 0
1, 16368, Note_on_c, 1, 56, 54
1, 16383, Note_on_c, 1, 56, 0
1, 16384, Note_on_c, 1, 62, 54
1, 16399, Note_on_c, 1, 62, 0
1, 16400, Note_on_c, 1, 65, 54
1, 16415, Note_on_c, 1, 65, 0
1, 16416, Note_on_c, 0, 74, 0
1, 16416, Note_on_c, 0, 73, 72
1, 16416, Note_on_c, 1, 57, 54
1, 16431, Note_on_c, 1, 57, 0
1, 16432, Note_on_c, 1, 64, 54
1, 16447, Note_on_c, 1, 64, 0
1, 16448, Note_on_c, 1, 67, 54
1, 16463, Note_on_c, 1, 67, 0
1, 16464, Note_on_c, 1, 57, 54
1, 16479, Note_on_c, 1, 57, 0
1, 16480, Note_on_c, 1, 64, 54
1, 16495, Note_on_c, 1, 64, 0
1, 16496, Note_on_c, 1, 67, 54
1, 16505, Note_on_c, 0, 73, 0
1, 16511, Note_on_c, 1, 67, 0
1, 16512, Note_on_c, 0, 79, 80
1, 16512, Note_on_c, 1, 61, 54
1, 16527, Note_on_c, 1, 61, 0
1, 16528, Note_on_c, 1, 64, 54
1, 16543, Note_on_c, 1, 64, 0
1, 16544, Note_on_c, 1, 69, 54
1, 16559, Note_on_c, 1, 69, 0
1, 16560, Note_on_c, 1, 61, 54
1, 16575, Note_on_c, 1, 61, 0
1, 16576, Note_on_c, 1, 64, 54
1, 16591, Note_on_c, 1, 64, 0
1, 16592, Note_on_c, 1, 69, 54
1, 16606, Note_on_c, 0, 79, 0
1, 16607, Note_on_c, 1, 69, 0
1, 16608, Note_on_c, 0, 77, 76
1, 16608, Note_on_c, 1, 62, 54
1, 16623, Note_on_c, 1, 62, 0
1, 16624, Note_on_c, 1, 65, 54
1, 16639, Note_on_c, 1, 65, 0
1, 16640, Note_on_c, 1, 69, 54
1, 16655, Note_on_c, 1, 69, 0
1, 16656, Note_on_c, 1, 62, 54
1, 16671, Note_on_c, 1, 62, 0
1, 16672, Note_on_c, 1, 65, 54
1, 16687, Note_on_c, 1, 65, 0
1, 16688, Note_on_c, 1, 69, 54
1, 16697, Note_on_c, 0, 77, 0
1, 16703, Note_on_c, 1, 69, 0
1, 16704, Note_on_c, 1, 55, 72
1, 16720, Note_on_c, 0, 76, 72
1, 16735, Note_on_c, 0, 76, 0
1, 16736, Note_on_c, 0, 79, 72
1, 16751, Note_on_c, 0, 79, 0
1, 16752, Note_on_c, 0, 82, 72
1, 16767, Note_on_c, 0, 82, 0
1, 16768, Note_on_c, 0, 79, 72
1, 16783, Note_on_c, 0, 79, 0
1, 16784, Note_on_c, 0, 76, 72
1, 16793, Note_on_c, 1, 55, 0
1, 16799, Note_on_c, 0, 76, 0
1, 16800, Note_on_c, 0, 74, 72
1, 16800, Note_on_c, 1, 65, 72
1, 16800, Note_on_c, 1, 57, 72
1, 16896, Note_on_c, 1, 65, 0
1, 16896, Note_on_c, 1, 67, 72
1, 16933, Note_on_c, 0, 74, 0
1, 16944, Note_on_c, 0, 77, 72
1, 16944, Note_on_c, 0, 73, 64
1, 16968, Note_on_c, 0, 77, 0
1, 16968, Note_on_c, 0, 76, 72
1, 16977, Note_on_c, 1, 57, 0
1, 16985, Note_on_c, 1, 67, 0
1, 16989, Note_on_c, 0, 76, 0
1, 16989, Note_on_c, 0, 73, 0
1, 16992, Note_on_c, 0, 78, 72
1, 16992, Note_on_c, 1, 62, 54
1, 17007, Note_on_c, 1, 62, 0
1, 17008, Note_on_c, 1, 69, 54
1, 17023, Note_on_c, 1, 69, 0
1, 17024, Note_on_c, 1, 72, 54
1, 17039, Note_on_c, 1, 72, 0
1, 17040, Note_on_c, 1, 62, 54
1, 17055, Note_on_c, 1, 62, 0
1, 17056, Note_on_c, 1, 69, 54
1, 17071, Note_on_c, 1, 69, 0
1, 17072, Note_on_c, 1, 72, 54
1, 17081, Note_on_c, 0, 78, 0
1, 17087, Note_on_c, 1, 72, 0
1, 17088, Note_on_c, 0, 81, 88
1, 17088, Note_on_c, 1, 62, 54
1, 17103, Note_on_c, 1, 62, 0
1, 17104, Note_on_c, 1, 69, 54
1, 17119, Note_on_c, 1, 69, 0
1, 17120, Note_on_c, 1, 72, 54
1, 17135, Note_on_c, 1, 72, 0
1, 17136, Note_on_c, 1, 62, 54
1, 17151, Note_on_c, 1, 62, 0
1, 17152, Note_on_c, 1, 69, 54
1, 17167, Note_on_c, 1, 69, 0
1, 17168, Note_on_c, 1, 72, 54
1, 17183, Note_on_c, 1, 72, 0
1, 17184, Note_on_c, 1, 62, 54
1, 17199, Note_on_c, 0, 81, 0
1, 17199, Note_on_c, 1, 62, 0
1, 17200, Note_on_c, 0, 87, 72
1, 17200, Note_on_c, 1, 69, 54
1, 17215, Note_on_c, 0, 87, 0
1, 17215, Note_on_c, 1, 69, 0
1, 17216, Note_on_c, 0, 86, 72
1, 17216, Note_on_c, 1, 72, 54
1, 17231, Note_on_c, 0, 86, 0
1, 17231, Note_on_c, 1, 72, 0
1, 17232, Note_on_c, 0, 84, 72
1, 17232, Note_on_c, 1, 62, 54
1, 17247, Note_on_c, 0, 84, 0
1, 17247, Note_on_c, 1, 62, 0
1, 17248, Note_on_c, 0, 82, 72
1, 17248, Note_on_c, 1, 69, 54
1, 17263, Note_on_c, 0, 82, 0
1, 17263, Note_on_c, 1, 69, 0
1, 17264, Note_on_c, 0, 81, 72
1, 17264, Note_on_c, 1, 72, 54
1, 17279, Note_on_c, 0, 81, 0
1, 17279, Note_on_c, 1, 72, 0
1, 17280, Note_on_c, 0, 79, 72
1, 17280, Note_on_c, 1, 62, 54
1, 17295, Note_on_c, 1, 62, 0
1, 17296, Note_on_c, 1, 67, 54
1, 17311, Note_on_c, 1, 67, 0
1, 17312, Note_on_c, 1, 70, 54
1, 17327, Note_on_c, 1, 70, 0
1, 17328, Note_on_c, 1, 62, 54
1, 17343, Note_on_c, 1, 62, 0
1, 17344, Note_on_c, 1, 67, 54
1, 17359, Note_on_c, 1, 67, 0
1, 17360, Note_on_c, 1, 70, 54
1, 17369, Note_on_c, 0, 79, 0
1, 17375, Note_on_c, 1, 70, 0
1, 17376, Note_on_c, 0, 82, 88
1, 17376, Note_on_c, 1, 62, 54
1, 17391, Note_on_c, 1, 62, 0
1, 17392, Note_on_c, 1, 67, 54
1, 17407, Note_on_c, 1, 67, 0
1, 17408, Note_on_c, 1, 70, 54
1, 17423, Note_on_c, 1, 70, 0
1, 17424, Note_on_c, 1, 62, 54
1, 17439, Note_on_c, 1, 62, 0
1, 17440, Note_on_c, 1, 67, 54
1, 17455, Note_on_c, 1, 67, 0
1, 17456, Note_on_c, 1, 70, 54
1, 17471, Note_on_c, 1, 70, 0
1, 17472, Note_on_c, 1, 62, 54
1, 17487, Note_on_c, 0, 82, 0
1, 17487, Note_on_c, 1, 62, 0
1, 17488, Note_on_c, 0, 86, 72
1, 17488, Note_on_c, 1, 67, 54
1, 17503, Note_on_c, 0, 86, 0
1, 17503, Note_on_c, 1, 67, 0
1, 17504, Note_on_c, 0, 84, 72
1, 17504, Note_on_c, 1, 70, 54
1, 17519, Note_on_c, 0, 84, 0
1, 17519, Note_on_c, 1, 70, 0
1, 17520, Note_on_c, 0, 82, 72
1, 17520, Note_on_c, 1, 62, 54
1, 17535, Note_on_c, 0, 82, 0
1, 17535, Note_on_c, 1, 62, 0
1, 17536, Note_on_c, 0, 81, 72
1, 17536, Note_on_c, 1, 67, 54
1, 17551, Note_on_c, 0, 81, 0
1, 17551, Note_on_c, 1, 67, 0
1, 17552, Note_on_c, 0, 79, 72
1, 17552, Note_on_c, 1, 70, 54
1, 17567, Note_on_c, 0, 79, 0
1, 17567, Note_on_c, 1, 70, 0
1, 17568, Note_on_c, 0, 78, 72
1, 17568, Note_on_c, 1, 62, 54
1, 17583, Note_on_c, 1, 62, 0
1, 17584, Note_on_c, 1, 69, 54
1, 17599, Note_on_c, 1, 69, 0
1, 17600, Note_on_c, 1, 72, 54
1, 17615, Note_on_c, 1, 72, 0
1, 17616, Note_on_c, 1, 62, 54
1, 17631, Note_on_c, 1, 62, 0
1, 17632, Note_on_c, 1, 69, 54
1, 17647, Note_on_c, 1, 69, 0
1, 17648, Note_on_c, 1, 72, 54
1, 17663, Note_on_c, 1, 72, 0
1, 17664, Note_on_c, 1, 62, 54
1, 17679, Note_on_c, 0, 78, 0
1, 17679, Note_on_c, 1, 62, 0
1, 17680, Note_on_c, 0, 79, 72
1, 17680, Note_on_c, 1, 69, 54
1, 17695, Note_on_c, 0, 79, 0
1, 17695, Note_on_c, 1, 69, 0
1, 17696, Note_on_c, 0, 80, 72
1, 17696, Note_on_c, 1, 72, 54
1, 17711, Note_on_c, 0, 80, 0
1, 17711, Note_on_c, 1, 72, 0
1, 17712, Note_on_c, 0, 81, 72
1, 17712, Note_on_c, 1, 62, 54
1, 17727, Note_on_c, 0, 81, 0
1, 17727, Note_on_c, 1, 62, 0
1, 17728, Note_on_c, 0, 82, 72
1, 17728, Note_on_c, 1, 69, 54
1, 17743, Note_on_c, 0, 82, 0
1, 17743, Note_on_c, 1, 69, 0
1, 17744, Note_on_c, 0, 84, 72
1, 17744, Note_on_c, 1, 72, 54
1, 17759, Note_on_c, 0, 84, 0
1, 17759, Note_on_c, 1, 72, 0
1, 17760, Note_on_c, 0, 86, 72
1, 17760, Note_on_c, 1, 62, 54
1, 17775, Note_on_c, 0, 86, 0
1, 17775, Note_on_c, 1, 62, 0
1, 17776, Note_on_c, 0, 87, 72
1, 17776, Note_on_c, 1, 69, 54
1, 17791, Note_on_c, 0, 87, 0
1, 17791, Note_on_c, 1, 69, 0
1, 17792, Note_on_c, 0, 86, 72
1, 17792, Note_on_c, 1, 72, 54
1, 17807, Note_on_c, 0, 86, 0
1, 17807, Note_on_c, 1, 72, 0
1, 17808, Note_on_c, 0, 84, 72
1, 17808, Note_on_c, 1, 62, 54
1, 17823, Note_on_c, 0, 84, 0
1, 17823, Note_on_c, 1, 62, 0
1, 17824, Note_on_c, 0, 82, 72
1, 17824, Note_on_c, 1, 69, 54
1, 17839, Note_on_c, 0, 82, 0
1, 17839, Note_on_c, 1, 69, 0
1, 17840, Note_on_c, 0, 81, 72
1, 17840, Note_on_c, 1, 72, 54
1, 17855, Note_on_c, 0, 81, 0
1, 17855, Note_on_c, 1, 72, 0
1, 17856, Note_on_c, 0, 82, 72
1, 17856, Note_on_c, 1, 67, 72
1, 17871, Note_on_c, 0, 82, 0
1, 17872, Note_on_c, 0, 86, 72
1, 17887, Note_on_c, 0, 86, 0
1, 17888, Note_on_c, 0, 78, 72
1, 17903, Note_on_c, 0, 78, 0
1, 17904, Note_on_c, 0, 79, 72
1, 17919, Note_on_c, 0, 79, 0
1, 17920, Note_on_c, 0, 82, 72
1, 17935, Note_on_c, 0, 82, 0
1, 17936, Note_on_c, 0, 74, 72
1, 17945, Note_on_c, 1, 67, 0
1, 17951, Note_on_c, 0, 74, 0
1, 17952, Note_on_c, 0, 82, 72
1, 17967, Note_on_c, 0, 82, 0
1, 17968, Note_on_c, 0, 86, 72
1, 17983, Note_on_c, 0, 86, 0
1, 17984, Note_on_c, 0, 78, 72
1, 17999, Note_on_c, 0, 78, 0
1, 18000, Note_on_c, 0, 79, 72
1, 18015, Note_on_c, 0, 79, 0
1, 18016, Note_on_c, 0, 82, 72
1, 18031, Note_on_c, 0, 82, 0
1, 18032, Note_on_c, 0, 74, 72
1, 18047, Note_on_c, 0, 74, 0
1, 18048, Note_on_c, 0, 75, 72
1, 18063, Note_on_c, 0, 75, 0
1, 18064, Note_on_c, 0, 78, 72
1, 18079, Note_on_c, 0, 78, 0
1, 18080, Note_on_c, 0, 79, 72
1, 18095, Note_on_c, 0, 79, 0
1, 18096, Note_on_c, 0, 74, 72
1, 18111, Note_on_c, 0, 74, 0
1, 18112, Note_on_c, 0, 78, 72
1, 18127, Note_on_c, 0, 78, 0
1, 18128, Note_on_c, 0, 79, 72
1, 18143, Note_on_c, 0, 79, 0
1, 18144, Note_on_c, 0, 73, 72
1, 18189, Note_on_c, 0, 73, 0
1, 18192, Note_on_c, 1, 55, 72
1, 18207, Note_on_c, 1, 55, 0
1, 18208, Note_on_c, 1, 58, 72
1, 18223, Note_on_c, 1, 58, 0
1, 18224, Note_on_c, 1, 61, 72
1, 18239, Note_on_c, 1, 61, 0
1, 18240, Note_on_c, 1, 64, 72
1, 18256, Note_on_c, 0, 67, 72
1, 18271, Note_on_c, 0, 67, 0
1, 18272, Note_on_c, 0, 70, 72
1, 18285, Note_on_c, 1, 64, 0
1, 18287, Note_on_c, 0, 70, 0
1, 18288, Note_on_c, 0, 73, 72
1, 18303, Note_on_c, 0, 73, 0
1, 18304, Note_on_c, 0, 76, 72
1, 18319, Note_on_c, 0, 76, 0
1, 18320, Note_on_c, 0, 79, 72
1, 18335, Note_on_c, 0, 79, 0
1, 18336, Note_on_c, 0, 82, 72
1, 18351, Note_on_c, 0, 82, 0
1, 18352, Note_on_c, 0, 79, 72
1, 18367, Note_on_c, 0, 79, 0
1, 18368, Note_on_c, 0, 85, 72
1, 18383, Note_on_c, 0, 85, 0
1, 18384, Note_on_c, 0, 86, 72
1, 18384, Note_on_c, 1, 53, 88
1, 18429, Note_on_c, 0, 86, 0
1, 18432, Note_on_c, 1, 53, 0
1, 18432, Note_on_c, 1, 55, 72
1, 18432, Note_on_c, 1, 43, 72
1, 18448, Note_on_c, 0, 64, 72
1, 18463, Note_on_c, 0, 64, 0
1, 18464, Note_on_c, 0, 67, 72
1, 18479, Note_on_c, 0, 67, 0
1, 18480, Note_on_c, 0, 70, 72
1, 18495, Note_on_c, 0, 70, 0
1, 18496, Note_on_c, 0, 67, 72
1, 18511, Note_on_c, 0, 67, 0
1, 18512, Note_on_c, 0, 64, 72
1, 18521, Note_on_c, 1, 55, 0
1, 18521, Note_on_c, 1, 43, 0
1, 18527, Note_on_c, 0, 64, 0
1, 18528, Note_on_c, 0, 62, 72
1, 18528, Note_on_c, 1, 53, 72
1, 18528, Note_on_c, 1, 45, 72
1, 18624, Note_on_c, 1, 53, 0
1, 18624, Note_on_c, 1, 55, 72
1, 18661, Note_on_c, 0, 62, 0
1, 18672, Note_on_c, 0, 65, 72
1, 18672, Note_on_c, 0, 61, 64
1, 18696, Note_on_c, 0, 65, 0
1, 18696, Note_on_c, 0, 64, 72
1, 18705, Note_on_c, 1, 45, 0
1, 18713, Note_on_c, 1, 55, 0
1, 18717, Note_on_c, 0, 64, 0
1, 18717, Note_on_c, 0, 61, 0
1, 18720, Note_on_c, 0, 62, 72
1, 18720, Note_on_c, 1, 46, 72
1, 18735, Note_on_c, 1, 46, 0
1, 18736, Note_on_c, 1, 50, 72
1, 18751, Note_on_c, 1, 50, 0
1, 18752, Note_on_c, 1, 56, 72
1, 18767, Note_on_c, 1, 56, 0
1, 18768, Note_on_c, 1, 46, 72
1, 18783, Note_on_c, 1, 46, 0
1, 18784, Note_on_c, 1, 50, 72
1, 18799, Note_on_c, 1, 50, 0
1, 18800, Note_on_c, 1, 56, 72
1, 18809, Note_on_c, 0, 62, 0
1, 18815, Note_on_c, 1, 56, 0
1, 18816, Note_on_c, 1, 46, 72
1, 18861, Note_on_c, 1, 46, 0
1, 18864, Note_on_c, 0, 89, 72
1, 18864, Note_on_c, 0, 86, 72
1, 18884, Note_on_c, 0, 89, 0
1, 18884, Note_on_c, 0, 86, 0
1, 18912, Note_on_c, 0, 89, 72
1, 18912, Note_on_c, 0, 86, 72
1, 18932, Note_on_c, 0, 89, 0
1, 18932, Note_on_c, 0, 86, 0
1, 18960, Note_on_c, 0, 89, 72
1, 18960, Note_on_c, 0, 86, 72
1, 18980, Note_on_c, 0, 89, 0
1, 18980, Note_on_c, 0, 86, 0
1, 19008, Note_on_c, 1, 45, 72
1, 19023, Note_on_c, 1, 45, 0
1, 19024, Note_on_c, 1, 50, 72
1, 19039, Note_on_c, 1, 50, 0
1, 19040, Note_on_c, 1, 53, 72
1, 19055, Note_on_c, 1, 53, 0
1, 19056, Note_on_c, 1, 45, 72
1, 19071, Note_on_c, 1, 45, 0
1, 19072, Note_on_c, 1, 50, 72
1, 19087, Note_on_c, 1, 50, 0
1, 19088, Note_on_c, 1, 53, 72
1, 19103, Note_on_c, 1, 53, 0
1, 19104, Note_on_c, 1, 45, 72
1, 19149, Note_on_c, 1, 45, 0
1, 19152, Note_on_c, 0, 89, 72
1, 19152, Note_on_c, 0, 86, 72
1, 19172, Note_on_c, 0, 89, 0
1, 19172, Note_on_c, 0, 86, 0
1, 19200, Note_on_c, 0, 89, 72
1, 19200, Note_on_c, 0, 86, 72
1, 19220, Note_on_c, 0, 89, 0
1, 19220, Note_on_c, 0, 86, 0
1, 19248, Note_on_c, 0, 89, 72
1, 19248, Note_on_c, 0, 86, 72
1, 19268, Note_on_c, 0, 89, 0
1, 19268, Note_on_c, 0, 86, 0
1, 19296, Note_on_c, 1, 44, 72
1, 19311, Note_on_c, 1, 44, 0
1, 19312, Note_on_c, 1, 50, 72
1, 19327, Note_on_c, 1, 50, 0
1, 19328, Note_on_c, 1, 53, 72
1, 19343, Note_on_c, 1, 53, 0
1, 19344, Note_on_c, 1, 44, 72
1, 19359, Note_on_c, 1, 44, 0
1, 19360, Note_on_c, 1, 50, 72
1, 19375, Note_on_c, 1, 50, 0
1, 19376, Note_on_c, 1, 53, 72
1, 19391, Note_on_c, 1, 53, 0
1, 19392, Note_on_c, 1, 44, 72
1, 19437, Note_on_c, 1, 44, 0
1, 19440, Note_on_c, 0, 65, 63
1, 19440, Note_on_c, 0, 62, 63
1, 19485, Note_on_c, 0, 65, 0
1, 19485, Note_on_c, 0, 62, 0
1, 19488, Note_on_c, 0, 65, 63
1, 19488, Note_on_c, 0, 62, 63
1, 19533, Note_on_c, 0, 65, 0
1, 19533, Note_on_c, 0, 62, 0
1, 19536, Note_on_c, 0, 62, 63
1, 19536, Note_on_c, 0, 56, 63
1, 19581, Note_on_c, 0, 62, 0
1, 19581, Note_on_c, 0, 56, 0
1, 19584, Note_on_c, 0, 57, 63
1, 19599, Note_on_c, 0, 57, 0
1, 19600, Note_on_c, 0, 61, 63
1, 19615, Note_on_c, 0, 61, 0
1, 19616, Note_on_c, 0, 64, 63
1, 19631, Note_on_c, 0, 64, 0
1, 19632, Note_on_c, 0, 69, 63
1, 19647, Note_on_c, 0, 69, 0
1, 19648, Note_on_c, 0, 64, 63
1, 19663, Note_on_c, 0, 64, 0
1, 19664, Note_on_c, 0, 61, 63
1, 19679, Note_on_c, 0, 61, 0
1, 19680, Note_on_c, 1, 57, 72
1, 19695, Note_on_c, 1, 57, 0
1, 19696, Note_on_c, 1, 52, 72
1, 19711, Note_on_c, 1, 52, 0
1, 19712, Note_on_c, 1, 49, 72
1, 19727, Note_on_c, 1, 49, 0
1, 19728, Note_on_c, 1, 45, 72
1, 19743, Note_on_c, 1, 45, 0
1, 19744, Note_on_c, 1, 40, 72
1, 19759, Note_on_c, 1, 40, 0
1, 19760, Note_on_c, 1, 37, 72
1, 19775, Note_on_c, 1, 37, 0
1, 19776, Note_on_c, 1, 33, 72
1, 19791, Note_on_c, 1, 33, 0
1, 19792, Note_on_c, 1, 37, 72
1, 19807, Note_on_c, 1, 37, 0
1, 19808, Note_on_c, 1, 40, 72
1, 19823, Note_on_c, 1, 40, 0
1, 19824, Note_on_c, 1, 45, 72
1, 19839, Note_on_c, 1, 45, 0
1, 19840, Note_on_c, 1, 49, 72
1, 19855, Note_on_c, 1, 49, 0
1, 19856, Note_on_c, 1, 52, 72
1, 19871, Note_on_c, 1, 52, 0
1, 19872, Note_on_c, 1, 57, 72
1, 19917, Note_on_c, 1, 57, 0
1, 19968, Note_on_c, 1, 45, 72
1, 20013, Note_on_c, 1, 45, 0
1, 20064, Note_on_c, 0, 69, 72
1, 20131, Note_on_c, 0, 69, 0
1, 20136, Note_on_c, 0, 66, 72
1, 20159, Note_on_c, 0, 66, 0
1, 20160, Note_on_c, 0, 74, 72
1, 20160, Note_on_c, 1, 62, 72
1, 20249, Note_on_c, 0, 74, 0
1, 20249, Note_on_c, 1, 62, 0
1, 20256, Note_on_c, 0, 74, 72
1, 20256, Note_on_c, 1, 66, 72
1, 20345, Note_on_c, 0, 74, 0
1, 20345, Note_on_c, 1, 66, 0
1, 20352, Note_on_c, 0, 76, 72
1, 20352, Note_on_c, 1, 62, 72
1, 20376, Note_on_c, 0, 76, 0
1, 20376, Note_on_c, 0, 74, 72
1, 20400, Note_on_c, 0, 74, 0
1, 20400, Note_on_c, 0, 73, 72
1, 20424, Note_on_c, 0, 73, 0
1, 20424, Note_on_c, 0, 74, 72
1, 20441, Note_on_c, 1, 62, 0
1, 20448, Note_on_c, 0, 74, 0
1, 20448, Note_on_c, 0, 73, 72
1, 20448, Note_on_c, 1, 69, 72
1, 20515, Note_on_c, 0, 73, 0
1, 20520, Note_on_c, 0, 76, 72
1, 20537, Note_on_c, 1, 69, 0
1, 20543, Note_on_c, 0, 76, 0
1, 20544, Note_on_c, 0, 79, 88
1, 20544, Note_on_c, 1, 57, 72
1, 20633, Note_on_c, 1, 57, 0
1, 20640, Note_on_c, 1, 61, 72
1, 20712, Note_on_c, 0, 79, 0
1, 20712, Note_on_c, 0, 76, 72
1, 20729, Note_on_c, 1, 61, 0
1, 20735, Note_on_c, 0, 76, 0
1, 20736, Note_on_c, 0, 78, 72
1, 20736, Note_on_c, 1, 62, 72
1, 20803, Note_on_c, 0, 78, 0
1, 20808, Note_on_c, 0, 74, 74
1, 20825, Note_on_c, 1, 62, 0
1, 20831, Note_on_c, 0, 74, 0
1, 20832, Note_on_c, 0, 81, 74
1, 20832, Note_on_c, 1, 66, 72
1, 20899, Note_on_c, 0, 81, 0
1, 20904, Note_on_c, 0, 78, 76
1, 20921, Note_on_c, 1, 66, 0
1, 20927, Note_on_c, 0, 78, 0
1, 20928, Note_on_c, 0, 83, 77
1, 20928, Note_on_c, 1, 67, 72
1, 20995, Note_on_c, 0, 83, 0
1, 21000, Note_on_c, 0, 79, 79
1, 21017, Note_on_c, 1, 67, 0
1, 21023, Note_on_c, 0, 79, 0
1, 21024, Note_on_c, 0, 78, 80
1, 21024, Note_on_c, 1, 69, 72
1, 21113, Note_on_c, 1, 69, 0
1, 21120, Note_on_c, 0, 78, 0
1, 21120, Note_on_c, 0, 76, 76
1, 21120, Note_on_c, 1, 57, 72
1, 21209, Note_on_c, 0, 76, 0
1, 21209, Note_on_c, 1, 57, 0
1, 21216, Note_on_c, 0, 69, 72
1, 21283, Note_on_c, 0, 69, 0
1, 21288, Note_on_c, 0, 66, 72
1, 21311, Note_on_c, 0, 66, 0
1, 21312, Note_on_c, 0, 74, 72
1, 21312, Note_on_c, 1, 62, 72
1, 21401, Note_on_c, 0, 74, 0
1, 21401, Note_on_c, 1, 62, 0
1, 21408, Note_on_c, 0, 74, 72
1, 21408, Note_on_c, 1, 66, 72
1, 21497, Note_on_c, 0, 74, 0
1, 21497, Note_on_c, 1, 66, 0
1, 21504, Note_on_c, 0, 76, 72
1, 21504, Note_on_c, 1, 62, 72
1, 21528, Note_on_c, 0, 76, 0
1, 21528, Note_on_c, 0, 74, 72
1, 21552, Note_on_c, 0, 74, 0
1, 21552, Note_on_c, 0, 73, 72
1, 21576, Note_on_c, 0, 73, 0
1, 21576, Note_on_c, 0, 74, 72
1, 21593, Note_on_c, 1, 62, 0
1, 21600, Note_on_c, 0, 74, 0
1, 21600, Note_on_c, 0, 73, 72
1, 21600, Note_on_c, 1, 69, 72
1, 21667, Note_on_c, 0, 73, 0
1, 21672, Note_on_c, 0, 76, 75
1, 21689, Note_on_c, 1, 69, 0
1, 21695, Note_on_c, 0, 76, 0
1, 21696, Note_on_c, 0, 79, 76
1, 21696, Note_on_c, 1, 61, 72
1, 21763, Note_on_c, 0, 79, 0
1, 21768, Note_on_c, 0, 76, 80
1, 21785, Note_on_c, 1, 61, 0
1, 21791, Note_on_c, 0, 76, 0
1, 21792, Note_on_c, 0, 78, 78
1, 21792, Note_on_c, 1, 62, 72
1, 21859, Note_on_c, 0, 78, 0
1, 21864, Note_on_c, 0, 74, 73
1, 21881, Note_on_c, 1, 62, 0
1, 21887, Note_on_c, 0, 74, 0
1, 21888, Note_on_c, 0, 71, 72
1, 21888, Note_on_c, 1, 67, 72
1, 21888, Note_on_c, 1, 55, 72
1, 21977, Note_on_c, 0, 71, 0
1, 21984, Note_on_c, 0, 76, 72
1, 22065, Note_on_c, 1, 67, 0
1, 22065, Note_on_c, 1, 55, 0
1, 22073, Note_on_c, 0, 76, 0
1, 22080, Note_on_c, 0, 74, 72
1, 22080, Note_on_c, 0, 67, 64
1, 22080, Note_on_c, 1, 64, 72
1, 22080, Note_on_c, 1, 57, 72
1, 22104, Note_on_c, 0, 74, 0
1, 22104, Note_on_c, 0, 73, 72
1, 22128, Note_on_c, 0, 73, 0
1, 22128, Note_on_c, 0, 71, 72
1, 22152, Note_on_c, 0, 71, 0
1, 22152, Note_on_c, 0, 73, 72
1, 22169, Note_on_c, 0, 67, 0
1, 22169, Note_on_c, 1, 64, 0
1, 22169, Note_on_c, 1, 57, 0
1, 22176, Note_on_c, 0, 73, 0
1, 22176, Note_on_c, 0, 74, 72
1, 22176, Note_on_c, 0, 66, 72
1, 22176, Note_on_c, 1, 62, 72
1, 22265, Note_on_c, 0, 74, 0
1, 22265, Note_on_c, 0, 66, 0
1, 22265, Note_on_c, 1, 62, 0
1, 22272, Note_on_c, 1, 50, 72
1, 22361, Note_on_c, 1, 50, 0
1, 22368, Note_on_c, 0, 69, 72
1, 22435, Note_on_c, 0, 69, 0
1, 22440, Note_on_c, 0, 66, 72
1, 22463, Note_on_c, 0, 66, 0
1, 22464, Note_on_c, 0, 74, 72
1, 22464, Note_on_c, 1, 62, 72
1, 22553, Note_on_c, 0, 74, 0
1, 22553, Note_on_c, 1, 62, 0
1, 22560, Note_on_c, 0, 74, 72
1, 22560, Note_on_c, 1, 66, 72
1, 22649, Note_on_c, 0, 74, 0
1, 22649, Note_on_c, 1, 66, 0
1, 22656, Note_on_c, 0, 76, 72
1, 22656, Note_on_c, 1, 62, 72
1, 22680, Note_on_c, 0, 76, 0
1, 22680, Note_on_c, 0, 74, 72
1, 22704, Note_on_c, 0, 74, 0
1, 22704, Note_on_c, 0, 73, 72
1, 22728, Note_on_c, 0, 73, 0
1, 22728, Note_on_c, 0, 74, 72
1, 22745, Note_on_c, 1, 62, 0
1, 22752, Note_on_c, 0, 74, 0
1, 22752, Note_on_c, 0, 73, 72
1, 22752, Note_on_c, 1, 69, 72
1, 22819, Note_on_c, 0, 73, 0
1, 22824, Note_on_c, 0, 76, 72
1, 22841, Note_on_c, 1, 69, 0
1, 22847, Note_on_c, 0, 76, 0
1, 22848, Note_on_c, 0, 79, 88
1, 22848, Note_on_c, 1, 57, 72
1, 22937, Note_on_c, 1, 57, 0
1, 22944, Note_on_c, 1, 61, 72
1, 23016, Note_on_c, 0, 79, 0
1, 23016, Note_on_c, 0, 76, 72
1, 23033, Note_on_c, 1, 61, 0
1, 23039, Note_on_c, 0, 76, 0
1, 23040, Note_on_c, 0, 78, 72
1, 23040, Note_on_c, 1, 62, 72
1, 23107, Note_on_c, 0, 78, 0
1, 23112, Note_on_c, 0, 74, 74
1, 23129, Note_on_c, 1, 62, 0
1, 23135, Note_on_c, 0, 74, 0
1, 23136, Note_on_c, 0, 81, 74
1, 23136, Note_on_c, 1, 66, 72
1, 23203, Note_on_c, 0, 81, 0
1, 23208, Note_on_c, 0, 78, 76
1, 23225, Note_on_c, 1, 66, 0
1, 23231, Note_on_c, 0, 78, 0
1, 23232, Note_on_c, 0, 83, 77
1, 23232, Note_on_c, 1, 67, 72
1, 23299, Note_on_c, 0, 83, 0
1, 23304, Note_on_c, 0, 79, 79
1, 23321, Note_on_c, 1, 67, 0
1, 23327, Note_on_c, 0, 79, 0
1, 23328, Note_on_c, 0, 78, 80
1, 23328, Note_on_c, 1, 69, 72
1, 23417, Note_on_c, 1, 69, 0
1, 23424, Note_on_c, 0, 78, 0
1, 23424, Note_on_c, 0, 76, 76
1, 23424, Note_on_c, 1, 57, 72
1, 23513, Note_on_c, 0, 76, 0
1, 23513, Note_on_c, 1, 57, 0
1, 23520, Note_on_c, 0, 69, 72
1, 23587, Note_on_c, 0, 69, 0
1, 23592, Note_on_c, 0, 66, 72
1, 23615, Note_on_c, 0, 66, 0
1, 23616, Note_on_c, 0, 74, 72
1, 23616, Note_on_c, 1, 62, 72
1, 23705, Note_on_c, 0, 74, 0
1, 23705, Note_on_c, 1, 62, 0
1, 23712, Note_on_c, 0, 74, 72
1, 23712, Note_on_c, 1, 66, 72
1, 23801, Note_on_c, 0, 74, 0
1, 23801, Note_on_c, 1, 66, 0
1, 23808, Note_on_c, 0, 76, 72
1, 23808, Note_on_c, 1, 62, 72
1, 23832, Note_on_c, 0, 76, 0
1, 23832, Note_on_c, 0, 74, 72
1, 23856, Note_on_c, 0, 74, 0
1, 23856, Note_on_c, 0, 73, 72
1, 23880, Note_on_c, 0, 73, 0
1, 23880, Note_on_c, 0, 74, 72
1, 23897, Note_on_c, 1, 62, 0
1, 23904, Note_on_c, 0, 74, 0
1, 23904, Note_on_c, 0, 73, 72
1, 23904, Note_on_c, 1, 69, 72
1, 23971, Note_on_c, 0, 73, 0
1, 23976, Note_on_c, 0, 76, 75
1, 23993, Note_on_c, 1, 69, 0
1, 23999, Note_on_c, 0, 76, 0
1, 24000, Note_on_c, 0, 79, 76
1, 24000, Note_on_c, 1, 61, 72
1, 24067, Note_on_c, 0, 79, 0
1, 24072, Note_on_c, 0, 76, 80
1, 24089, Note_on_c, 1, 61, 0
1, 24095, Note_on_c, 0, 76, 0
1, 24096, Note_on_c, 0, 78, 78
1, 24096, Note_on_c, 1, 62, 72
1, 24163, Note_on_c, 0, 78, 0
1, 24168, Note_on_c, 0, 74, 73
1, 24185, Note_on_c, 1, 62, 0
1, 24191, Note_on_c, 0, 74, 0
1, 24192, Note_on_c, 0, 71, 72
1, 24192, Note_on_c, 1, 67, 72
1, 24192, Note_on_c, 1, 55, 72
1, 24281, Note_on_c, 0, 71, 0
1, 24288, Note_on_c, 0, 76, 72
1, 24369, Note_on_c, 1, 67, 0
1, 24369, Note_on_c, 1, 55, 0
1, 24377, Note_on_c, 0, 76, 0
1, 24384, Note_on_c, 0, 74, 72
1, 24384, Note_on_c, 0, 67, 64
1, 24384, Note_on_c, 1, 64, 72
1, 24384, Note_on_c, 1, 57, 72
1, 24408, Note_on_c, 0, 74, 0
1, 24408, Note_on_c, 0, 73, 72
1, 24432, Note_on_c, 0, 73, 0
1, 24432, Note_on_c, 0, 71, 72
1, 24456, Note_on_c, 0, 71, 0
1, 24456, Note_on_c, 0, 73, 72
1, 24473, Note_on_c, 0, 67, 0
1, 24473, Note_on_c, 1, 64, 0
1, 24473, Note_on_c, 1, 57, 0
1, 24480, Note_on_c, 0, 73, 0
1, 24480, Note_on_c, 0, 74, 72
1, 24480, Note_on_c, 0, 66, 72
1, 24480, Note_on_c, 1, 62, 72
1, 24569, Note_on_c, 0, 74, 0
1, 24569, Note_on_c, 0, 66, 0
1, 24569, Note_on_c, 1, 62, 0
1, 24576, Note_on_c, 1, 50, 72
1, 24665, Note_on_c, 1, 50, 0
1, 24672, Note_on_c, 0, 81, 72
1, 24739, Note_on_c, 0, 81, 0
1, 24744, Note_on_c, 0, 78, 72
1, 24767, Note_on_c, 0, 78, 0
1, 24768, Note_on_c, 0, 86, 72
1, 24835, Note_on_c, 0, 86, 0
1, 24840, Note_on_c, 0, 81, 72
1, 24863, Note_on_c, 0, 81, 0
1, 24864, Note_on_c, 0, 83, 72
1, 24864, Note_on_c, 1, 74, 72
1, 24931, Note_on_c, 0, 83, 0
1, 24936, Note_on_c, 0, 80, 72
1, 24953, Note_on_c, 1, 74, 0
1, 24959, Note_on_c, 0, 80, 0
1, 24960, Note_on_c, 0, 81, 72
1, 24960, Note_on_c, 1, 73, 72
1, 25027, Note_on_c, 0, 81, 0
1, 25032, Note_on_c, 0, 76, 72
1, 25049, Note_on_c, 1, 73, 0
1, 25055, Note_on_c, 0, 76, 0
1, 25056, Note_on_c, 0, 79, 72
1, 25056, Note_on_c, 1, 71, 72
1, 25123, Note_on_c, 0, 79, 0
1, 25128, Note_on_c, 0, 74, 72
1, 25145, Note_on_c, 1, 71, 0
1, 25151, Note_on_c, 0, 74, 0
1, 25152, Note_on_c, 0, 78, 72
1, 25152, Note_on_c, 1, 69, 72
1, 25219, Note_on_c, 0, 78, 0
1, 25224, Note_on_c, 0, 73, 72
1, 25241, Note_on_c, 1, 69, 0
1, 25247, Note_on_c, 0, 73, 0
1, 25248, Note_on_c, 0, 76, 72
1, 25248, Note_on_c, 1, 67, 72
1, 25315, Note_on_c, 0, 76, 0
1, 25320, Note_on_c, 0, 71, 72
1, 25337, Note_on_c, 1, 67, 0
1, 25343, Note_on_c, 0, 71, 0
1, 25344, Note_on_c, 0, 74, 72
1, 25344, Note_on_c, 1, 66, 72
1, 25411, Note_on_c, 0, 74, 0
1, 25416, Note_on_c, 0, 69, 72
1, 25433, Note_on_c, 1, 66, 0
1, 25439, Note_on_c, 0, 69, 0
1, 25440, Note_on_c, 0, 73, 72
1, 25440, Note_on_c, 0, 79, 64
1, 25440, Note_on_c, 1, 64, 72
1, 25507, Note_on_c, 0, 79, 0
1, 25512, Note_on_c, 0, 76, 64
1, 25529, Note_on_c, 0, 73, 0
1, 25529, Note_on_c, 1, 64, 0
1, 25535, Note_on_c, 0, 76, 0
1, 25536, Note_on_c, 0, 74, 72
1, 25536, Note_on_c, 0, 78, 64
1, 25536, Note_on_c, 1, 62, 72
1, 25603, Note_on_c, 0, 78, 0
1, 25608, Note_on_c, 0, 81, 64
1, 25625, Note_on_c, 0, 74, 0
1, 25625, Note_on_c, 1, 62, 0
1, 25631, Note_on_c, 0, 81, 0
1, 25632, Note_on_c, 0, 78, 72
1, 25632, Note_on_c, 0, 74, 72
1, 25632, Note_on_c, 1, 69, 72
1, 25721, Note_on_c, 1, 69, 0
1, 25728, Note_on_c, 0, 78, 0
1, 25728, Note_on_c, 0, 74, 0
1, 25728, Note_on_c, 0, 76, 72
1, 25728, Note_on_c, 0, 73, 72
1, 25728, Note_on_c, 1, 57, 72
1, 25773, Note_on_c, 0, 76, 0
1, 25773, Note_on_c, 0, 73, 0
1, 25817, Note_on_c, 1, 57, 0
1, 25824, Note_on_c, 0, 81, 72
1, 25891, Note_on_c, 0, 81, 0
1, 25896, Note_on_c, 0, 78, 72
1, 25919, Note_on_c, 0, 78, 0
1, 25920, Note_on_c, 0, 86, 72
1, 25987, Note_on_c, 0, 86, 0
1, 25992, Note_on_c, 0, 81, 72
1, 26015, Note_on_c, 0, 81, 0
1, 26016, Note_on_c, 0, 83, 72
1, 26016, Note_on_c, 1, 74, 72
1, 26083, Note_on_c, 0, 83, 0
1, 26088, Note_on_c, 0, 80, 72
1, 26111, Note_on_c, 0, 80, 0
1, 26112, Note_on_c, 0, 81, 72
1, 26112, Note_on_c, 1, 74, 0
1, 26112, Note_on_c, 1, 73, 72
1, 26179, Note_on_c, 0, 81, 0
1, 26184, Note_on_c, 0, 76, 72
1, 26201, Note_on_c, 1, 73, 0
1, 26207, Note_on_c, 0, 76, 0
1, 26208, Note_on_c, 0, 79, 72
1, 26208, Note_on_c, 1, 71, 72
1, 26275, Note_on_c, 0, 79, 0
1, 26280, Note_on_c, 0, 74, 72
1, 26297, Note_on_c, 1, 71, 0
1, 26303, Note_on_c, 0, 74, 0
1, 26304, Note_on_c, 0, 78, 72
1, 26304, Note_on_c, 1, 69, 72
1, 26371, Note_on_c, 0, 78, 0
1, 26376, Note_on_c, 0, 73, 72
1, 26393, Note_on_c, 1, 69, 0
1, 26399, Note_on_c, 0, 73, 0
1, 26400, Note_on_c, 0, 76, 72
1, 26400, Note_on_c, 1, 67, 72
1, 26467, Note_on_c, 0, 76, 0
1, 26472, Note_on_c, 0, 71, 72
1, 26489, Note_on_c, 1, 67, 0
1, 26495, Note_on_c, 0, 71, 0
1, 26496, Note_on_c, 0, 74, 72
1, 26496, Note_on_c, 1, 66, 72
1, 26563, Note_on_c, 0, 74, 0
1, 26568, Note_on_c, 0, 69, 72
1, 26585, Note_on_c, 1, 66, 0
1, 26591, Note_on_c, 0, 69, 0
1, 26592, Note_on_c, 0, 78, 72
1, 26592, Note_on_c, 1, 69, 72
1, 26681, Note_on_c, 0, 78, 0
1, 26681, Note_on_c, 1, 69, 0
1, 26688, Note_on_c, 0, 76, 72
1, 26688, Note_on_c, 1, 57, 72
1, 26701, Note_on_c, 0, 76, 0
1, 26702, Note_on_c, 0, 78, 72
1, 26715, Note_on_c, 0, 78, 0
1, 26716, Note_on_c, 0, 76, 72
1, 26729, Note_on_c, 0, 76, 0
1, 26730, Note_on_c, 0, 78, 72
1, 26743, Note_on_c, 0, 78, 0
1, 26744, Note_on_c, 0, 76, 72
1, 26757, Note_on_c, 0, 76, 0
1, 26758, Note_on_c, 0, 74, 72
1, 26770, Note_on_c, 0, 74, 0
1, 26771, Note_on_c, 0, 76, 72
1, 26777, Note_on_c, 1, 57, 0
1, 26783, Note_on_c, 0, 76, 0
1, 26784, Note_on_c, 0, 74, 72
1, 26784, Note_on_c, 1, 62, 72
1, 26873, Note_on_c, 0, 74, 0
1, 26873, Note_on_c, 1, 62, 0
1, 26880, Note_on_c, 1, 50, 72
1, 26969, Note_on_c, 1, 50, 0
1, 26976, Note_on_c, 0, 81, 72
1, 27043, Note_on_c, 0, 81, 0
1, 27048, Note_on_c, 0, 78, 72
1, 27071, Note_on_c, 0, 78, 0
1, 27072, Note_on_c, 0, 86, 72
1, 27139, Note_on_c, 0, 86, 0
1, 27144, Note_on_c, 0, 81, 72
1, 27167, Note_on_c, 0, 81, 0
1, 27168, Note_on_c, 0, 83, 72
1, 27168, Note_on_c, 1, 74, 72
1, 27235, Note_on_c, 0, 83, 0
1, 27240, Note_on_c, 0, 80, 72
1, 27257, Note_on_c, 1, 74, 0
1, 27263, Note_on_c, 0, 80, 0
1, 27264, Note_on_c, 0, 81, 72
1, 27264, Note_on_c, 1, 73, 72
1, 27331, Note_on_c, 0, 81, 0
1, 27336, Note_on_c, 0, 76, 72
1, 27353, Note_on_c, 1, 73, 0
1, 27359, Note_on_c, 0, 76, 0
1, 27360, Note_on_c, 0, 79, 72
1, 27360, Note_on_c, 1, 71, 72
1, 27427, Note_on_c, 0, 79, 0
1, 27432, Note_on_c, 0, 74, 72
1, 27449, Note_on_c, 1, 71, 0
1, 27455, Note_on_c, 0, 74, 0
1, 27456, Note_on_c, 0, 78, 72
1, 27456, Note_on_c, 1, 69, 72
1, 27523, Note_on_c, 0, 78, 0
1, 27528, Note_on_c, 0, 73, 72
1, 27545, Note_on_c, 1, 69, 0
1, 27551, Note_on_c, 0, 73, 0
1, 27552, Note_on_c, 0, 76, 72
1, 27552, Note_on_c, 1, 67, 72
1, 27619, Note_on_c, 0, 76, 0
1, 27624, Note_on_c, 0, 71, 72
1, 27641, Note_on_c, 1, 67, 0
1, 27647, Note_on_c, 0, 71, 0
1, 27648, Note_on_c, 0, 74, 72
1, 27648, Note_on_c, 1, 66, 72
1, 27715, Note_on_c, 0, 74, 0
1, 27720, Note_on_c, 0, 69, 72
1, 27737, Note_on_c, 1, 66, 0
1, 27743, Note_on_c, 0, 69, 0
1, 27744, Note_on_c, 0, 73, 72
1, 27744, Note_on_c, 0, 79, 64
1, 27744, Note_on_c, 1, 64, 72
1, 27811, Note_on_c, 0, 79, 0
1, 27816, Note_on_c, 0, 76, 64
1, 27833, Note_on_c, 0, 73, 0
1, 27833, Note_on_c, 1, 64, 0
1, 27839, Note_on_c, 0, 76, 0
1, 27840, Note_on_c, 0, 74, 72
1, 27840, Note_on_c, 0, 78, 64
1, 27840, Note_on_c, 1, 62, 72
1, 27907, Note_on_c, 0, 78, 0
1, 27912, Note_on_c, 0, 81, 64
1, 27929, Note_on_c, 0, 74, 0
1, 27929, Note_on_c, 1, 62, 0
1, 27935, Note_on_c, 0, 81, 0
1, 27936, Note_on_c, 0, 78, 72
1, 27936, Note_on_c, 0, 74, 72
1, 27936, Note_on_c, 1, 69, 72
1, 28025, Note_on_c, 1, 69, 0
1, 28032, Note_on_c, 0, 78, 0
1, 28032, Note_on_c, 0, 74, 0
1, 28032, Note_on_c, 0, 76, 72
1, 28032, Note_on_c, 0, 73, 72
1, 28032, Note_on_c, 1, 57, 72
1, 28077, Note_on_c, 0, 76, 0
1, 28077, Note_on_c, 0, 73, 0
1, 28121, Note_on_c, 1, 57, 0
1, 28128, Note_on_c, 0, 81, 72
1, 28195, Note_on_c, 0, 81, 0
1, 28200, Note_on_c, 0, 78, 72
1, 28223, Note_on_c, 0, 78, 0
1, 28224, Note_on_c, 0, 86, 72
1, 28291, Note_on_c, 0, 86, 0
1, 28296, Note_on_c, 0, 81, 72
1, 28319, Note_on_c, 0, 81, 0
1, 28320, Note_on_c, 0, 83, 72
1, 28320, Note_on_c, 1, 74, 72
1, 28387, Note_on_c, 0, 83, 0
1, 28392, Note_on_c, 0, 80, 72
1, 28415, Note_on_c, 0, 80, 0
1, 28416, Note_on_c, 0, 81, 72
1, 28416, Note_on_c, 1, 74, 0
1, 28416, Note_on_c, 1, 73, 72
1, 28483, Note_on_c, 0, 81, 0
1, 28488, Note_on_c, 0, 76, 72
1, 28505, Note_on_c, 1, 73, 0
1, 28511, Note_on_c, 0, 76, 0
1, 28512, Note_on_c, 0, 79, 72
1, 28512, Note_on_c, 1, 71, 72
1, 28579, Note_on_c, 0, 79, 0
1, 28584, Note_on_c, 0, 74, 72
1, 28601, Note_on_c, 1, 71, 0
1, 28607, Note_on_c, 0, 74, 0
1, 28608, Note_on_c, 0, 78, 72
1, 28608, Note_on_c, 1, 69, 72
1, 28675, Note_on_c, 0, 78, 0
1, 28680, Note_on_c, 0, 73, 72
1, 28697, Note_on_c, 1, 69, 0
1, 28703, Note_on_c, 0, 73, 0
1, 28704, Note_on_c, 0, 76, 72
1, 28704, Note_on_c, 1, 67, 72
1, 28771, Note_on_c, 0, 76, 0
1, 28776, Note_on_c, 0, 71, 72
1, 28793, Note_on_c, 1, 67, 0
1, 28799, Note_on_c, 0, 71, 0
1, 28800, Note_on_c, 0, 74, 72
1, 28800, Note_on_c, 1, 66, 72
1, 28867, Note_on_c, 0, 74, 0
1, 28872, Note_on_c, 0, 69, 72
1, 28889, Note_on_c, 1, 66, 0
1, 28895, Note_on_c, 0, 69, 0
1, 28896, Note_on_c, 0, 78, 72
1, 28896, Note_on_c, 1, 69, 72
1, 28985, Note_on_c, 0, 78, 0
1, 28985, Note_on_c, 1, 69, 0
1, 28992, Note_on_c, 0, 76, 72
1, 28992, Note_on_c, 1, 57, 72
1, 29005, Note_on_c, 0, 76, 0
1, 29006, Note_on_c, 0, 78, 72
1, 29019, Note_on_c, 0, 78, 0
1, 29020, Note_on_c, 0, 76, 72
1, 29033, Note_on_c, 0, 76, 0
1, 29034, Note_on_c, 0, 78, 72
1, 29047, Note_on_c, 0, 78, 0
1, 29048, Note_on_c, 0, 76, 72
1, 29061, Note_on_c, 0, 76, 0
1, 29062, Note_on_c, 0, 74, 72
1, 29074, Note_on_c, 0, 74, 0
1, 29075, Note_on_c, 0, 76, 72
1, 29081, Note_on_c, 1, 57, 0
1, 29087, Note_on_c, 0, 76, 0
1, 29088, Note_on_c, 0, 74, 72
1, 29088, Note_on_c, 1, 62, 72
1, 29177, Note_on_c, 0, 74, 0
1, 29177, Note_on_c, 1, 62, 0
1, 29184, Note_on_c, 1, 50, 72
1, 29273, Note_on_c, 1, 50, 0
1, 29280, Note_on_c, 0, 67, 72
1, 29303, Note_on_c, 0, 67, 0
1, 29304, Note_on_c, 0, 65, 72
1, 29327, Note_on_c, 0, 65, 0
1, 29328, Note_on_c, 0, 64, 72
1, 29351, Note_on_c, 0, 64, 0
1, 29352, Note_on_c, 0, 62, 72
1, 29375, Note_on_c, 0, 62, 0
1, 29376, Note_on_c, 0, 74, 72
1, 29472, Note_on_c, 1, 53, 54
1, 29531, Note_on_c, 0, 74, 0
1, 29544, Note_on_c, 0, 69, 72
1, 29561, Note_on_c, 1, 53, 0
1, 29567, Note_on_c, 0, 69, 0
1, 29568, Note_on_c, 0, 77, 72
1, 29568, Note_on_c, 1, 50, 54
1, 29635, Note_on_c, 0, 77, 0
1, 29640, Note_on_c, 0, 69, 72
1, 29657, Note_on_c, 1, 50, 0
1, 29663, Note_on_c, 0, 69, 0
1, 29664, Note_on_c, 0, 69, 72
1, 29664, Note_on_c, 1, 52, 54
1, 29731, Note_on_c, 0, 69, 0
1, 29736, Note_on_c, 0, 68, 72
1, 29759, Note_on_c, 0, 68, 0
1, 29760, Note_on_c, 0, 67, 72
1, 29841, Note_on_c, 1, 52, 0
1, 29856, Note_on_c, 1, 49, 54
1, 29915, Note_on_c, 0, 67, 0
1, 29928, Note_on_c, 0, 64, 72
1, 29945, Note_on_c, 1, 49, 0
1, 29951, Note_on_c, 0, 64, 0
1, 29952, Note_on_c, 0, 65, 72
1, 29952, Note_on_c, 1, 50, 54
1, 30019, Note_on_c, 0, 65, 0
1, 30024, Note_on_c, 0, 62, 74
1, 30041, Note_on_c, 1, 50, 0
1, 30047, Note_on_c, 0, 62, 0
1, 30048, Note_on_c, 0, 69, 74
1, 30048, Note_on_c, 1, 41, 54
1, 30115, Note_on_c, 0, 69, 0
1, 30120, Note_on_c, 0, 65, 77
1, 30137, Note_on_c, 1, 41, 0
1, 30143, Note_on_c, 0, 65, 0
1, 30144, Note_on_c, 0, 70, 77
1, 30144, Note_on_c, 1, 43, 54
1, 30211, Note_on_c, 0, 70, 0
1, 30216, Note_on_c, 0, 62, 80
1, 30233, Note_on_c, 1, 43, 0
1, 30239, Note_on_c, 0, 62, 0
1, 30240, Note_on_c, 0, 62, 79
1, 30240, Note_on_c, 1, 45, 54
1, 30329, Note_on_c, 1, 45, 0
1, 30336, Note_on_c, 0, 62, 0
1, 30336, Note_on_c, 0, 61, 75
1, 30336, Note_on_c, 1, 33, 54
1, 30425, Note_on_c, 0, 61, 0
1, 30425, Note_on_c, 1, 33, 0
1, 30432, Note_on_c, 0, 70, 72
1, 30455, Note_on_c, 0, 70, 0
1, 30456, Note_on_c, 0, 69, 72
1, 30479, Note_on_c, 0, 69, 0
1, 30480, Note_on_c, 0, 67, 72
1, 30503, Note_on_c, 0, 67, 0
1, 30504, Note_on_c, 0, 65, 72
1, 30527, Note_on_c, 0, 65, 0
1, 30528, Note_on_c, 0, 72, 72
1, 30528, Note_on_c, 1, 60, 54
1, 30528, Note_on_c, 1, 57, 54
1, 30528, Note_on_c, 1, 53, 54
1, 30595, Note_on_c, 0, 72, 0
1, 30600, Note_on_c, 0, 69, 72
1, 30623, Note_on_c, 0, 69, 0
1, 30624, Note_on_c, 0, 77, 72
1, 30691, Note_on_c, 0, 77, 0
1, 30696, Note_on_c, 0, 72, 73
1, 30705, Note_on_c, 1, 60, 0
1, 30705, Note_on_c, 1, 57, 0
1, 30705, Note_on_c, 1, 53, 0
1, 30719, Note_on_c, 0, 72, 0
1, 30720, Note_on_c, 0, 81, 73
1, 30720, Note_on_c, 1, 65, 54
1, 30720, Note_on_c, 1, 63, 54
1, 30787, Note_on_c, 0, 81, 0
1, 30792, Note_on_c, 0, 77, 74
1, 30809, Note_on_c, 1, 65, 0
1, 30809, Note_on_c, 1, 63, 0
1, 30815, Note_on_c, 0, 77, 0
1, 30816, Note_on_c, 0, 82, 75
1, 30816, Note_on_c, 1, 65, 54
1, 30816, Note_on_c, 1, 62, 54
1, 30883, Note_on_c, 0, 82, 0
1, 30888, Note_on_c, 0, 77, 76
1, 30905, Note_on_c, 1, 62, 0
1, 30911, Note_on_c, 0, 77, 0
1, 30912, Note_on_c, 0, 86, 76
1, 30912, Note_on_c, 1, 58, 54
1, 30979, Note_on_c, 0, 86, 0
1, 30984, Note_on_c, 0, 77, 77
1, 30993, Note_on_c, 1, 65, 0
1, 31001, Note_on_c, 1, 58, 0
1, 31007, Note_on_c, 0, 77, 0
1, 31008, Note_on_c, 0, 88, 77
1, 31008, Note_on_c, 1, 58, 54
1, 31008, Note_on_c, 1, 55, 54
1, 31075, Note_on_c, 0, 88, 0
1, 31080, Note_on_c, 0, 79, 78
1, 31097, Note_on_c, 1, 58, 0
1, 31097, Note_on_c, 1, 55, 0
1, 31103, Note_on_c, 0, 79, 0
1, 31104, Note_on_c, 0, 89, 79
1, 31104, Note_on_c, 1, 60, 54
1, 31104, Note_on_c, 1, 57, 54
1, 31171, Note_on_c, 0, 89, 0
1, 31176, Note_on_c, 0, 77, 80
1, 31193, Note_on_c, 1, 60, 0
1, 31193, Note_on_c, 1, 57, 0
1, 31199, Note_on_c, 0, 77, 0
1, 31200, Note_on_c, 0, 81, 80
1, 31200, Note_on_c, 1, 60, 54
1, 31289, Note_on_c, 0, 81, 0
1, 31289, Note_on_c, 1, 60, 0
1, 31296, Note_on_c, 0, 79, 80
1, 31296, Note_on_c, 1, 48, 54
1, 31309, Note_on_c, 0, 79, 0
1, 31310, Note_on_c, 0, 81, 80
1, 31323, Note_on_c, 0, 81, 0
1, 31324, Note_on_c, 0, 79, 80
1, 31337, Note_on_c, 0, 79, 0
1, 31338, Note_on_c, 0, 81, 80
1, 31351, Note_on_c, 0, 81, 0
1, 31352, Note_on_c, 0, 79, 80
1, 31365, Note_on_c, 0, 79, 0
1, 31366, Note_on_c, 0, 77, 80
1, 31378, Note_on_c, 0, 77, 0
1, 31379, Note_on_c, 0, 79, 80
1, 31385, Note_on_c, 1, 48, 0
1, 31391, Note_on_c, 0, 79, 0
1, 31392, Note_on_c, 0, 77, 80
1, 31392, Note_on_c, 1, 53, 54
1, 31481, Note_on_c, 1, 53, 0
1, 31488, Note_on_c, 1, 41, 54
1, 31569, Note_on_c, 0, 77, 0
1, 31577, Note_on_c, 1, 41, 0
1, 31584, Note_on_c, 0, 67, 72
1, 31607, Note_on_c, 0, 67, 0
1, 31608, Note_on_c, 0, 65, 72
1, 31631, Note_on_c, 0, 65, 0
1, 31632, Note_on_c, 0, 64, 72
1, 31655, Note_on_c, 0, 64, 0
1, 31656, Note_on_c, 0, 62, 72
1, 31679, Note_on_c, 0, 62, 0
1, 31680, Note_on_c, 0, 74, 72
1, 31776, Note_on_c, 1, 53, 54
1, 31835, Note_on_c, 0, 74, 0
1, 31848, Note_on_c, 0, 69, 72
1, 31865, Note_on_c, 1, 53, 0
1, 31871, Note_on_c, 0, 69, 0
1, 31872, Note_on_c, 0, 77, 72
1, 31872, Note_on_c, 1, 50, 54
1, 31939, Note_on_c, 0, 77, 0
1, 31944, Note_on_c, 0, 69, 72
1, 31961, Note_on_c, 1, 50, 0
1, 31967, Note_on_c, 0, 69, 0
1, 31968, Note_on_c, 0, 69, 72
1, 31968, Note_on_c, 1, 52, 54
1, 32035, Note_on_c, 0, 69, 0
1, 32040, Note_on_c, 0, 68, 72
1, 32063, Note_on_c, 0, 68, 0
1, 32064, Note_on_c, 0, 67, 72
1, 32145, Note_on_c, 1, 52, 0
1, 32160, Note_on_c, 1, 49, 54
1, 32219, Note_on_c, 0, 67, 0
1, 32232, Note_on_c, 0, 64, 72
1, 32249, Note_on_c, 1, 49, 0
1, 32255, Note_on_c, 0, 64, 0
1, 32256, Note_on_c, 0, 65, 72
1, 32256, Note_on_c, 1, 50, 54
1, 32323, Note_on_c, 0, 65, 0
1, 32328, Note_on_c, 0, 62, 74
1, 32345, Note_on_c, 1, 50, 0
1, 32351, Note_on_c, 0, 62, 0
1, 32352, Note_on_c, 0, 69, 74
1, 32352, Note_on_c, 1, 41, 54
1, 32419, Note_on_c, 0, 69, 0
1, 32424, Note_on_c, 0, 65, 77
1, 32441, Note_on_c, 1, 41, 0
1, 32447, Note_on_c, 0, 65, 0
1, 32448, Note_on_c, 0, 70, 77
1, 32448, Note_on_c, 1, 43, 54
1, 32515, Note_on_c, 0, 70, 0
1, 32520, Note_on_c, 0, 62, 80
1, 32537, Note_on_c, 1, 43, 0
1, 32543, Note_on_c, 0, 62, 0
1, 32544, Note_on_c, 0, 62, 79
1, 32544, Note_on_c, 1, 45, 54
1, 32633, Note_on_c, 1, 45, 0
1, 32640, Note_on_c, 0, 62, 0
1, 32640, Note_on_c, 0, 61, 75
1, 32640, Note_on_c, 1, 33, 54
1, 32729, Note_on_c, 0, 61, 0
1, 32729, Note_on_c, 1, 33, 0
1, 32736, Note_on_c, 0, 70, 72
1, 32759, Note_on_c, 0, 70, 0
1, 32760, Note_on_c, 0, 69, 72
1, 32783, Note_on_c, 0, 69, 0
1, 32784, Note_on_c, 0, 67, 72
1, 32807, Note_on_c, 0, 67, 0
1, 32808, Note_on_c, 0, 65, 72
1, 32831, Note_on_c, 0, 65, 0
1, 32832, Note_on_c, 0, 72, 72
1, 32832, Note_on_c, 1, 60, 54
1, 32832, Note_on_c, 1, 57, 54
1, 32832, Note_on_c, 1, 53, 54
1, 32899, Note_on_c, 0, 72, 0
1, 32904, Note_on_c, 0, 69, 72
1, 32927, Note_on_c, 0, 69, 0
1, 32928, Note_on_c, 0, 77, 72
1, 32995, Note_on_c, 0, 77, 0
1, 33000, Note_on_c, 0, 72, 73
1, 33009, Note_on_c, 1, 60, 0
1, 33009, Note_on_c, 1, 57, 0
1, 33009, Note_on_c, 1, 53, 0
1, 33023, Note_on_c, 0, 72, 0
1, 33024, Note_on_c, 0, 81, 73
1, 33024, Note_on_c, 1, 65, 54
1, 33024, Note_on_c, 1, 63, 54
1, 33091, Note_on_c, 0, 81, 0
1, 33096, Note_on_c, 0, 77, 74
1, 33113, Note_on_c, 1, 65, 0
1, 33113, Note_on_c, 1, 63, 0
1, 33119, Note_on_c, 0, 77, 0
1, 33120, Note_on_c, 0, 82, 75
1, 33120, Note_on_c, 1, 65, 54
1, 33120, Note_on_c, 1, 62, 54
1, 33187, Note_on_c, 0, 82, 0
1, 33192, Note_on_c, 0, 77, 76
1, 33209, Note_on_c, 1, 62, 0
1, 33215, Note_on_c, 0, 77, 0
1, 33216, Note_on_c, 0, 86, 76
1, 33216, Note_on_c, 1, 58, 54
1, 33283, Note_on_c, 0, 86, 0
1, 33288, Note_on_c, 0, 77, 77
1, 33297, Note_on_c, 1, 65, 0
1, 33305, Note_on_c, 1, 58, 0
1, 33311, Note_on_c, 0, 77, 0
1, 33312, Note_on_c, 0, 88, 77
1, 33312, Note_on_c, 1, 58, 54
1, 33312, Note_on_c, 1, 55, 54
1, 33379, Note_on_c, 0, 88, 0
1, 33384, Note_on_c, 0, 79, 78
1, 33401, Note_on_c, 1, 58, 0
1, 33401, Note_on_c, 1, 55, 0
1, 33407, Note_on_c, 0, 79, 0
1, 33408, Note_on_c, 0, 89, 79
1, 33408, Note_on_c, 1, 60, 54
1, 33408, Note_on_c, 1, 57, 54
1, 33475, Note_on_c, 0, 89, 0
1, 33480, Note_on_c, 0, 77, 80
1, 33497, Note_on_c, 1, 60, 0
1, 33497, Note_on_c, 1, 57, 0
1, 33503, Note_on_c, 0, 77, 0
1, 33504, Note_on_c, 0, 81, 80
1, 33504, Note_on_c, 1, 60, 54
1, 33593, Note_on_c, 0, 81, 0
1, 33593, Note_on_c, 1, 60, 0
1, 33600, Note_on_c, 0, 79, 80
1, 33600, Note_on_c, 1, 48, 54
1, 33613, Note_on_c, 0, 79, 0
1, 33614, Note_on_c, 0, 81, 80
1, 33627, Note_on_c, 0, 81, 0
1, 33628, Note_on_c, 0, 79, 80
1, 33641, Note_on_c, 0, 79, 0
1, 33642, Note_on_c, 0, 81, 80
1, 33655, Note_on_c, 0, 81, 0
1, 33656, Note_on_c, 0, 79, 80
1, 33669, Note_on_c, 0, 79, 0
1, 33670, Note_on_c, 0, 77, 80
1, 33682, Note_on_c, 0, 77, 0
1, 33683, Note_on_c, 0, 79, 80
1, 33689, Note_on_c, 1, 48, 0
1, 33695, Note_on_c, 0, 79, 0
1, 33696, Note_on_c, 0, 77, 80
1, 33696, Note_on_c, 1, 53, 54
1, 33785, Note_on_c, 1, 53, 0
1, 33792, Note_on_c, 1, 41, 54
1, 33873, Note_on_c, 0, 77, 0
1, 33881, Note_on_c, 1, 41, 0
1, 33888, Note_on_c, 0, 82, 72
1, 33911, Note_on_c, 0, 82, 0
1, 33912, Note_on_c, 0, 81, 72
1, 33935, Note_on_c, 0, 81, 0
1, 33936, Note_on_c, 0, 79, 72
1, 33959, Note_on_c, 0, 79, 0
1, 33960, Note_on_c, 0, 77, 72
1, 33983, Note_on_c, 0, 77, 0
1, 33984, Note_on_c, 0, 84, 88
1, 34080, Note_on_c, 1, 72, 54
1, 34080, Note_on_c, 1, 69, 54
1, 34152, Note_on_c, 0, 84, 0
1, 34152, Note_on_c, 0, 75, 72
1, 34169, Note_on_c, 1, 72, 0
1, 34169, Note_on_c, 1, 69, 0
1, 34175, Note_on_c, 0, 75, 0
1, 34176, Note_on_c, 0, 77, 72
1, 34176, Note_on_c, 1, 70, 54
1, 34176, Note_on_c, 1, 67, 54
1, 34243, Note_on_c, 0, 77, 0
1, 34248, Note_on_c, 0, 75, 72
1, 34265, Note_on_c, 1, 70, 0
1, 34265, Note_on_c, 1, 67, 0
1, 34271, Note_on_c, 0, 75, 0
1, 34272, Note_on_c, 0, 74, 72
1, 34272, Note_on_c, 1, 69, 54
1, 34272, Note_on_c, 1, 66, 54
1, 34339, Note_on_c, 0, 74, 0
1, 34344, Note_on_c, 0, 81, 75
1, 34367, Note_on_c, 0, 81, 0
1, 34368, Note_on_c, 0, 86, 76
1, 34435, Note_on_c, 0, 86, 0
1, 34440, Note_on_c, 0, 81, 80
1, 34449, Note_on_c, 1, 69, 0
1, 34449, Note_on_c, 1, 66, 0
1, 34463, Note_on_c, 0, 81, 0
1, 34464, Note_on_c, 0, 82, 78
1, 34464, Note_on_c, 1, 74, 54
1, 34464, Note_on_c, 1, 67, 54
1, 34531, Note_on_c, 0, 82, 0
1, 34536, Note_on_c, 0, 79, 73
1, 34553, Note_on_c, 1, 74, 0
1, 34553, Note_on_c, 1, 67, 0
1, 34559, Note_on_c, 0, 79, 0
1, 34560, Note_on_c, 0, 84, 72
1, 34560, Note_on_c, 1, 72, 54
1, 34560, Note_on_c, 1, 64, 54
1, 34627, Note_on_c, 0, 84, 0
1, 34632, Note_on_c, 0, 79, 74
1, 34649, Note_on_c, 1, 64, 0
1, 34655, Note_on_c, 0, 79, 0
1, 34656, Note_on_c, 0, 81, 75
1, 34656, Note_on_c, 1, 65, 54
1, 34723, Note_on_c, 0, 81, 0
1, 34728, Note_on_c, 0, 77, 77
1, 34737, Note_on_c, 1, 72, 0
1, 34745, Note_on_c, 1, 65, 0
1, 34751, Note_on_c, 0, 77, 0
1, 34752, Note_on_c, 0, 82, 78
1, 34752, Note_on_c, 1, 67, 54
1, 34752, Note_on_c, 1, 55, 54
1, 34797, Note_on_c, 0, 82, 0
1, 34800, Note_on_c, 0, 79, 80
1, 34823, Note_on_c, 0, 79, 0
1, 34824, Note_on_c, 0, 76, 80
1, 34841, Note_on_c, 1, 67, 0
1, 34841, Note_on_c, 1, 55, 0
1, 34847, Note_on_c, 0, 76, 0
1, 34848, Note_on_c, 0, 74, 79
1, 34848, Note_on_c, 1, 64, 54
1, 34848, Note_on_c, 1, 57, 54
1, 34944, Note_on_c, 0, 74, 0
1, 34944, Note_on_c, 0, 73, 75
1, 35025, Note_on_c, 1, 64, 0
1, 35025, Note_on_c, 1, 57, 0
1, 35033, Note_on_c, 0, 73, 0
1, 35040, Note_on_c, 0, 69, 72
1, 35063, Note_on_c, 0, 69, 0
1, 35064, Note_on_c, 0, 67, 72
1, 35087, Note_on_c, 0, 67, 0
1, 35088, Note_on_c, 0, 65, 72
1, 35111, Note_on_c, 0, 65, 0
1, 35112, Note_on_c, 0, 64, 72
1, 35135, Note_on_c, 0, 64, 0
1, 35136, Note_on_c, 0, 79, 88
1, 35232, Note_on_c, 1, 61, 54
1, 35232, Note_on_c, 1, 58, 54
1, 35304, Note_on_c, 0, 79, 0
1, 35304, Note_on_c, 0, 76, 74
1, 35321, Note_on_c, 1, 61, 0
1, 35321, Note_on_c, 1, 58, 0
1, 35327, Note_on_c, 0, 76, 0
1, 35328, Note_on_c, 0, 85, 74
1, 35328, Note_on_c, 1, 58, 54
1, 35328, Note_on_c, 1, 55, 54
1, 35395, Note_on_c, 0, 85, 0
1, 35400, Note_on_c, 0, 82, 75
1, 35417, Note_on_c, 1, 58, 0
1, 35417, Note_on_c, 1, 55, 0
1, 35423, Note_on_c, 0, 82, 0
1, 35424, Note_on_c, 0, 86, 76
1, 35424, Note_on_c, 1, 62, 54
1, 35424, Note_on_c, 1, 57, 54
1, 35424, Note_on_c, 1, 53, 54
1, 35491, Note_on_c, 0, 86, 0
1, 35496, Note_on_c, 0, 81, 77
1, 35513, Note_on_c, 1, 62, 0
1, 35513, Note_on_c, 1, 57, 0
1, 35513, Note_on_c, 1, 53, 0
1, 35519, Note_on_c, 0, 81, 0
1, 35520, Note_on_c, 0, 88, 77
1, 35520, Note_on_c, 1, 61, 54
1, 35520, Note_on_c, 1, 55, 54
1, 35520, Note_on_c, 1, 52, 54
1, 35587, Note_on_c, 0, 88, 0
1, 35592, Note_on_c, 0, 81, 78
1, 35609, Note_on_c, 1, 61, 0
1, 35609, Note_on_c, 1, 55, 0
1, 35609, Note_on_c, 1, 52, 0
1, 35615, Note_on_c, 0, 81, 0
1, 35616, Note_on_c, 0, 89, 94
1, 35616, Note_on_c, 1, 62, 54
1, 35616, Note_on_c, 1, 53, 54
1, 35616, Note_on_c, 1, 50, 54
1, 35688, Note_on_c, 0, 89, 0
1, 35688, Note_on_c, 0, 86, 80
1, 35705, Note_on_c, 1, 62, 0
1, 35705, Note_on_c, 1, 53, 0
1, 35705, Note_on_c, 1, 50, 0
1, 35711, Note_on_c, 0, 86, 0
1, 35712, Note_on_c, 0, 84, 80
1, 35712, Note_on_c, 1, 55, 54
1, 35735, Note_on_c, 0, 84, 0
1, 35736, Note_on_c, 0, 82, 79
1, 35759, Note_on_c, 0, 82, 0
1, 35760, Note_on_c, 0, 81, 78
1, 35783, Note_on_c, 0, 81, 0
1, 35784, Note_on_c, 0, 79, 78
1, 35801, Note_on_c, 1, 55, 0
1, 35807, Note_on_c, 0, 79, 0
1, 35808, Note_on_c, 0, 77, 77
1, 35808, Note_on_c, 1, 57, 54
1, 35897, Note_on_c, 0, 77, 0
1, 35897, Note_on_c, 1, 57, 0
1, 35904, Note_on_c, 0, 76, 74
1, 35904, Note_on_c, 1, 45, 54
1, 35917, Note_on_c, 0, 76, 0
1, 35918, Note_on_c, 0, 77, 74
1, 35931, Note_on_c, 0, 77, 0
1, 35932, Note_on_c, 0, 76, 74
1, 35945, Note_on_c, 0, 76, 0
1, 35946, Note_on_c, 0, 77, 73
1, 35959, Note_on_c, 0, 77, 0
1, 35960, Note_on_c, 0, 76, 73
1, 35973, Note_on_c, 0, 76, 0
1, 35974, Note_on_c, 0, 74, 73
1, 35986, Note_on_c, 0, 74, 0
1, 35987, Note_on_c, 0, 76, 72
1, 35993, Note_on_c, 1, 45, 0
1, 35999, Note_on_c, 0, 76, 0
1, 36000, Note_on_c, 0, 74, 72
1, 36000, Note_on_c, 1, 50, 54
1, 36089, Note_on_c, 1, 50, 0
1, 36096, Note_on_c, 1, 38, 54
1, 36177, Note_on_c, 0, 74, 0
1, 36185, Note_on_c, 1, 38, 0
1, 36192, Note_on_c, 0, 82, 72
1, 36215, Note_on_c, 0, 82, 0
1, 36216, Note_on_c, 0, 81, 72
1, 36239, Note_on_c, 0, 81, 0
1, 36240, Note_on_c, 0, 79, 72
1, 36263, Note_on_c, 0, 79, 0
1, 36264, Note_on_c, 0, 77, 72
1, 36287, Note_on_c, 0, 77, 0
1, 36288, Note_on_c, 0, 84, 88
1, 36384, Note_on_c, 1, 72, 54
1, 36384, Note_on_c, 1, 69, 54
1, 36456, Note_on_c, 0, 84, 0
1, 36456, Note_on_c, 0, 75, 72
1, 36473, Note_on_c, 1, 72, 0
1, 36473, Note_on_c, 1, 69, 0
1, 36479, Note_on_c, 0, 75, 0
1, 36480, Note_on_c, 0, 77, 72
1, 36480, Note_on_c, 1, 70, 54
1, 36480, Note_on_c, 1, 67, 54
1, 36547, Note_on_c, 0, 77, 0
1, 36552, Note_on_c, 0, 75, 72
1, 36569, Note_on_c, 1, 70, 0
1, 36569, Note_on_c, 1, 67, 0
1, 36575, Note_on_c, 0, 75, 0
1, 36576, Note_on_c, 0, 74, 72
1, 36576, Note_on_c, 1, 69, 54
1, 36576, Note_on_c, 1, 66, 54
1, 36643, Note_on_c, 0, 74, 0
1, 36648, Note_on_c, 0, 81, 75
1, 36671, Note_on_c, 0, 81, 0
1, 36672, Note_on_c, 0, 86, 76
1, 36739, Note_on_c, 0, 86, 0
1, 36744, Note_on_c, 0, 81, 80
1, 36753, Note_on_c, 1, 69, 0
1, 36753, Note_on_c, 1, 66, 0
1, 36767, Note_on_c, 0, 81, 0
1, 36768, Note_on_c, 0, 82, 78
1, 36768, Note_on_c, 1, 74, 54
1, 36768, Note_on_c, 1, 67, 54
1, 36835, Note_on_c, 0, 82, 0
1, 36840, Note_on_c, 0, 79, 73
1, 36857, Note_on_c, 1, 74, 0
1, 36857, Note_on_c, 1, 67, 0
1, 36863, Note_on_c, 0, 79, 0
1, 36864, Note_on_c, 0, 84, 72
1, 36864, Note_on_c, 1, 72, 54
1, 36864, Note_on_c, 1, 64, 54
1, 36931, Note_on_c, 0, 84, 0
1, 36936, Note_on_c, 0, 79, 74
1, 36953, Note_on_c, 1, 64, 0
1, 36959, Note_on_c, 0, 79, 0
1, 36960, Note_on_c, 0, 81, 75
1, 36960, Note_on_c, 1, 65, 54
1, 37027, Note_on_c, 0, 81, 0
1, 37032, Note_on_c, 0, 77, 77
1, 37041, Note_on_c, 1, 72, 0
1, 37049, Note_on_c, 1, 65, 0
1, 37055, Note_on_c, 0, 77, 0
1, 37056, Note_on_c, 0, 82, 78
1, 37056, Note_on_c, 1, 67, 54
1, 37056, Note_on_c, 1, 55, 54
1, 37101, Note_on_c, 0, 82, 0
1, 37104, Note_on_c, 0, 79, 80
1, 37127, Note_on_c, 0, 79, 0
1, 37128, Note_on_c, 0, 76, 80
1, 37145, Note_on_c, 1, 67, 0
1, 37145, Note_on_c, 1, 55, 0
1, 37151, Note_on_c, 0, 76, 0
1, 37152, Note_on_c, 0, 74, 79
1, 37152, Note_on_c, 1, 64, 54
1, 37152, Note_on_c, 1, 57, 54
1, 37248, Note_on_c, 0, 74, 0
1, 37248, Note_on_c, 0, 73, 75
1, 37329, Note_on_c, 1, 64, 0
1, 37329, Note_on_c, 1, 57, 0
1, 37337, Note_on_c, 0, 73, 0
1, 37344, Note_on_c, 0, 69, 72
1, 37367, Note_on_c, 0, 69, 0
1, 37368, Note_on_c, 0, 67, 72
1, 37391, Note_on_c, 0, 67, 0
1, 37392, Note_on_c, 0, 65, 72
1, 37415, Note_on_c, 0, 65, 0
1, 37416, Note_on_c, 0, 64, 72
1, 37439, Note_on_c, 0, 64, 0
1, 37440, Note_on_c, 0, 79, 88
1, 37536, Note_on_c, 1, 61, 54
1, 37536, Note_on_c, 1, 58, 54
1, 37608, Note_on_c, 0, 79, 0
1, 37608, Note_on_c, 0, 76, 74
1, 37625, Note_on_c, 1, 61, 0
1, 37625, Note_on_c, 1, 58, 0
1, 37631, Note_on_c, 0, 76, 0
1, 37632, Note_on_c, 0, 85, 74
1, 37632, Note_on_c, 1, 58, 54
1, 37632, Note_on_c, 1, 55, 54
1, 37699, Note_on_c, 0, 85, 0
1, 37704, Note_on_c, 0, 82, 75
1, 37721, Note_on_c, 1, 58, 0
1, 37721, Note_on_c, 1, 55, 0
1, 37727, Note_on_c, 0, 82, 0
1, 37728, Note_on_c, 0, 86, 76
1, 37728, Note_on_c, 1, 62, 54
1, 37728, Note_on_c, 1, 57, 54
1, 37728, Note_on_c, 1, 53, 54
1, 37795, Note_on_c, 0, 86, 0
1, 37800, Note_on_c, 0, 81, 77
1, 37817, Note_on_c, 1, 62, 0
1, 37817, Note_on_c, 1, 57, 0
1, 37817, Note_on_c, 1, 53, 0
1, 37823, Note_on_c, 0, 81, 0
1, 37824, Note_on_c, 0, 88, 77
1, 37824, Note_on_c, 1, 61, 54
1, 37824, Note_on_c, 1, 55, 54
1, 37824, Note_on_c, 1, 52, 54
1, 37891, Note_on_c, 0, 88, 0
1, 37896, Note_on_c, 0, 81, 78
1, 37913, Note_on_c, 1, 61, 0
1, 37913, Note_on_c, 1, 55, 0
1, 37913, Note_on_c, 1, 52, 0
1, 37919, Note_on_c, 0, 81, 0
1, 37920, Note_on_c, 0, 89, 94
1, 37920, Note_on_c, 1, 62, 54
1, 37920, Note_on_c, 1, 53, 54
1, 37920, Note_on_c, 1, 50, 54
1, 37992, Note_on_c, 0, 89, 0
1, 37992, Note_on_c, 0, 86, 80
1, 38009, Note_on_c, 1, 62, 0
1, 38009, Note_on_c, 1, 53, 0
1, 38009, Note_on_c, 1, 50, 0
1, 38015, Note_on_c, 0, 86, 0
1, 38016, Note_on_c, 0, 84, 80
1, 38016, Note_on_c, 1, 55, 54
1, 38039, Note_on_c, 0, 84, 0
1, 38040, Note_on_c, 0, 82, 79
1, 38063, Note_on_c, 0, 82, 0
1, 38064, Note_on_c, 0, 81, 78
1, 38087, Note_on_c, 0, 81, 0
1, 38088, Note_on_c, 0, 79, 78
1, 38105, Note_on_c, 1, 55, 0
1, 38111, Note_on_c, 0, 79, 0
1, 38112, Note_on_c, 0, 77, 77
1, 38112, Note_on_c, 1, 57, 54
1, 38201, Note_on_c, 0, 77, 0
1, 38201, Note_on_c, 1, 57, 0
1, 38208, Note_on_c, 0, 76, 74
1, 38208, Note_on_c, 1, 45, 54
1, 38221, Note_on_c, 0, 76, 0
1, 38222, Note_on_c, 0, 77, 74
1, 38235, Note_on_c, 0, 77, 0
1, 38236, Note_on_c, 0, 76, 74
1, 38249, Note_on_c, 0, 76, 0
1, 38250, Note_on_c, 0, 77, 73
1, 38263, Note_on_c, 0, 77, 0
1, 38264, Note_on_c, 0, 76, 73
1, 38277, Note_on_c, 0, 76, 0
1, 38278, Note_on_c, 0, 74, 73
1, 38290, Note_on_c, 0, 74, 0
1, 38291, Note_on_c, 0, 76, 72
1, 38297, Note_on_c, 1, 45, 0
1, 38303, Note_on_c, 0, 76, 0
1, 38304, Note_on_c, 0, 74, 72
1, 38304, Note_on_c, 1, 50, 54
1, 38393, Note_on_c, 1, 50, 0
1, 38400, Note_on_c, 1, 38, 54
1, 38481, Note_on_c, 0, 74, 0
1, 38489, Note_on_c, 1, 38, 0
1, 38496, Note_on_c, 0, 67, 72
1, 38519, Note_on_c, 0, 67, 0
1, 38520, Note_on_c, 0, 66, 72
1, 38543, Note_on_c, 0, 66, 0
1, 38544, Note_on_c, 0, 64, 72
1, 38567, Note_on_c, 0, 64, 0
1, 38568, Note_on_c, 0, 62, 72
1, 38591, Note_on_c, 0, 62, 0
1, 38592, Note_on_c, 0, 74, 72
1, 38592, Note_on_c, 1, 62, 54
1, 38637, Note_on_c, 0, 74, 0
1, 38640, Note_on_c, 0, 74, 72
1, 38681, Note_on_c, 1, 62, 0
1, 38685, Note_on_c, 0, 74, 0
1, 38688, Note_on_c, 1, 66, 54
1, 38736, Note_on_c, 0, 74, 72
1, 38777, Note_on_c, 1, 66, 0
1, 38781, Note_on_c, 0, 74, 0
1, 38784, Note_on_c, 0, 76, 72
1, 38784, Note_on_c, 1, 62, 54
1, 38807, Note_on_c, 0, 76, 0
1, 38808, Note_on_c, 0, 74, 72
1, 38831, Note_on_c, 0, 74, 0
1, 38832, Note_on_c, 0, 73, 72
1, 38855, Note_on_c, 0, 73, 0
1, 38856, Note_on_c, 0, 74, 72
1, 38873, Note_on_c, 1, 62, 0
1, 38879, Note_on_c, 0, 74, 0
1, 38880, Note_on_c, 0, 73, 72
1, 38880, Note_on_c, 1, 69, 54
1, 38925, Note_on_c, 0, 73, 0
1, 38928, Note_on_c, 0, 79, 72
1, 38969, Note_on_c, 1, 69, 0
1, 38973, Note_on_c, 0, 79, 0
1, 38976, Note_on_c, 1, 57, 54
1, 39024, Note_on_c, 0, 79, 72
1, 39065, Note_on_c, 1, 57, 0
1, 39069, Note_on_c, 0, 79, 0
1, 39072, Note_on_c, 0, 81, 72
1, 39072, Note_on_c, 1, 61, 54
1, 39095, Note_on_c, 0, 81, 0
1, 39096, Note_on_c, 0, 79, 72
1, 39119, Note_on_c, 0, 79, 0
1, 39120, Note_on_c, 0, 78, 72
1, 39143, Note_on_c, 0, 78, 0
1, 39144, Note_on_c, 0, 76, 72
1, 39161, Note_on_c, 1, 61, 0
1, 39167, Note_on_c, 0, 76, 0
1, 39168, Note_on_c, 0, 79, 72
1, 39168, Note_on_c, 1, 62, 54
1, 39191, Note_on_c, 0, 79, 0
1, 39192, Note_on_c, 0, 78, 72
1, 39215, Note_on_c, 0, 78, 0
1, 39216, Note_on_c, 0, 76, 73
1, 39239, Note_on_c, 0, 76, 0
1, 39240, Note_on_c, 0, 74, 74
1, 39257, Note_on_c, 1, 62, 0
1, 39263, Note_on_c, 0, 74, 0
1, 39264, Note_on_c, 0, 83, 75
1, 39264, Note_on_c, 1, 66, 54
1, 39287, Note_on_c, 0, 83, 0
1, 39288, Note_on_c, 0, 81, 76
1, 39311, Note_on_c, 0, 81, 0
1, 39312, Note_on_c, 0, 79, 76
1, 39335, Note_on_c, 0, 79, 0
1, 39336, Note_on_c, 0, 78, 77
1, 39353, Note_on_c, 1, 66, 0
1, 39359, Note_on_c, 0, 78, 0
1, 39360, Note_on_c, 0, 83, 78
1, 39360, Note_on_c, 1, 67, 54
1, 39383, Note_on_c, 0, 83, 0
1, 39384, Note_on_c, 0, 85, 79
1, 39407, Note_on_c, 0, 85, 0
1, 39408, Note_on_c, 0, 86, 80
1, 39431, Note_on_c, 0, 86, 0
1, 39432, Note_on_c, 0, 79, 80
1, 39449, Note_on_c, 1, 67, 0
1, 39455, Note_on_c, 0, 79, 0
1, 39456, Note_on_c, 0, 78, 80
1, 39456, Note_on_c, 0, 74, 80
1, 39456, Note_on_c, 1, 69, 54
1, 39545, Note_on_c, 1, 69, 0
1, 39552, Note_on_c, 0, 78, 0
1, 39552, Note_on_c, 0, 74, 0
1, 39552, Note_on_c, 0, 76, 76
1, 39552, Note_on_c, 0, 73, 76
1, 39552, Note_on_c, 1, 57, 54
1, 39641, Note_on_c, 0, 76, 0
1, 39641, Note_on_c, 0, 73, 0
1, 39641, Note_on_c, 1, 57, 0
1, 39648, Note_on_c, 0, 67, 72
1, 39671, Note_on_c, 0, 67, 0
1, 39672, Note_on_c, 0, 66, 72
1, 39695, Note_on_c, 0, 66, 0
1, 39696, Note_on_c, 0, 64, 72
1, 39719, Note_on_c, 0, 64, 0
1, 39720, Note_on_c, 0, 62, 72
1, 39743, Note_on_c, 0, 62, 0
1, 39744, Note_on_c, 0, 74, 72
1, 39744, Note_on_c, 1, 62, 54
1, 39789, Note_on_c, 0, 74, 0
1, 39792, Note_on_c, 0, 74, 72
1, 39833, Note_on_c, 1, 62, 0
1, 39837, Note_on_c, 0, 74, 0
1, 39840, Note_on_c, 1, 66, 54
1, 39888, Note_on_c, 0, 74, 72
1, 39929, Note_on_c, 1, 66, 0
1, 39933, Note_on_c, 0, 74, 0
1, 39936, Note_on_c, 0, 76, 72
1, 39936, Note_on_c, 1, 62, 54
1, 39959, Note_on_c, 0, 76, 0
1, 39960, Note_on_c, 0, 74, 72
1, 39983, Note_on_c, 0, 74, 0
1, 39984, Note_on_c, 0, 73, 72
1, 40007, Note_on_c, 0, 73, 0
1, 40008, Note_on_c, 0, 74, 72
1, 40025, Note_on_c, 1, 62, 0
1, 40031, Note_on_c, 0, 74, 0
1, 40032, Note_on_c, 0, 73, 72
1, 40032, Note_on_c, 1, 69, 54
1, 40077, Note_on_c, 0, 73, 0
1, 40080, Note_on_c, 0, 79, 72
1, 40121, Note_on_c, 1, 69, 0
1, 40125, Note_on_c, 0, 79, 0
1, 40128, Note_on_c, 0, 81, 72
1, 40128, Note_on_c, 1, 61, 54
1, 40151, Note_on_c, 0, 81, 0
1, 40152, Note_on_c, 0, 79, 72
1, 40175, Note_on_c, 0, 79, 0
1, 40176, Note_on_c, 0, 78, 72
1, 40199, Note_on_c, 0, 78, 0
1, 40200, Note_on_c, 0, 76, 72
1, 40217, Note_on_c, 1, 61, 0
1, 40223, Note_on_c, 0, 76, 0
1, 40224, Note_on_c, 0, 79, 72
1, 40224, Note_on_c, 1, 62, 54
1, 40247, Note_on_c, 0, 79, 0
1, 40248, Note_on_c, 0, 78, 72
1, 40271, Note_on_c, 0, 78, 0
1, 40272, Note_on_c, 0, 76, 72
1, 40295, Note_on_c, 0, 76, 0
1, 40296, Note_on_c, 0, 74, 72
1, 40313, Note_on_c, 1, 62, 0
1, 40319, Note_on_c, 0, 74, 0
1, 40320, Note_on_c, 0, 83, 72
1, 40320, Note_on_c, 1, 55, 54
1, 40343, Note_on_c, 0, 83, 0
1, 40344, Note_on_c, 0, 85, 72
1, 40367, Note_on_c, 0, 85, 0
1, 40368, Note_on_c, 0, 86, 72
1, 40391, Note_on_c, 0, 86, 0
1, 40392, Note_on_c, 0, 79, 72
1, 40409, Note_on_c, 1, 55, 0
1, 40415, Note_on_c, 0, 79, 0
1, 40416, Note_on_c, 0, 78, 72
1, 40416, Note_on_c, 1, 57, 54
1, 40439, Note_on_c, 0, 78, 0
1, 40440, Note_on_c, 0, 79, 72
1, 40463, Note_on_c, 0, 79, 0
1, 40464, Note_on_c, 0, 81, 72
1, 40487, Note_on_c, 0, 81, 0
1, 40488, Note_on_c, 0, 74, 72
1, 40505, Note_on_c, 1, 57, 0
1, 40511, Note_on_c, 0, 74, 0
1, 40512, Note_on_c, 0, 76, 72
1, 40512, Note_on_c, 1, 45, 54
1, 40535, Note_on_c, 0, 76, 0
1, 40536, Note_on_c, 0, 78, 72
1, 40559, Note_on_c, 0, 78, 0
1, 40560, Note_on_c, 0, 79, 72
1, 40583, Note_on_c, 0, 79, 0
1, 40584, Note_on_c, 0, 73, 72
1, 40601, Note_on_c, 1, 45, 0
1, 40607, Note_on_c, 0, 73, 0
1, 40608, Note_on_c, 0, 74, 72
1, 40608, Note_on_c, 1, 50, 54
1, 40697, Note_on_c, 0, 74, 0
1, 40697, Note_on_c, 1, 50, 0
1, 40704, Note_on_c, 1, 38, 54
1, 40793, Note_on_c, 1, 38, 0
1, 40800, Note_on_c, 0, 67, 72
1, 40823, Note_on_c, 0, 67, 0
1, 40824, Note_on_c, 0, 66, 72
1, 40847, Note_on_c, 0, 66, 0
1, 40848, Note_on_c, 0, 64, 72
1, 40871, Note_on_c, 0, 64, 0
1, 40872, Note_on_c, 0, 62, 72
1, 40895, Note_on_c, 0, 62, 0
1, 40896, Note_on_c, 0, 74, 72
1, 40896, Note_on_c, 1, 62, 54
1, 40941, Note_on_c, 0, 74, 0
1, 40944, Note_on_c, 0, 74, 72
1, 40985, Note_on_c, 1, 62, 0
1, 40989, Note_on_c, 0, 74, 0
1, 40992, Note_on_c, 1, 66, 54
1, 41040, Note_on_c, 0, 74, 72
1, 41081, Note_on_c, 1, 66, 0
1, 41085, Note_on_c, 0, 74, 0
1, 41088, Note_on_c, 0, 76, 72
1, 41088, Note_on_c, 1, 62, 54
1, 41111, Note_on_c, 0, 76, 0
1, 41112, Note_on_c, 0, 74, 72
1, 41135, Note_on_c, 0, 74, 0
1, 41136, Note_on_c, 0, 73, 72
1, 41159, Note_on_c, 0, 73, 0
1, 41160, Note_on_c, 0, 74, 72
1, 41177, Note_on_c, 1, 62, 0
1, 41183, Note_on_c, 0, 74, 0
1, 41184, Note_on_c, 0, 73, 72
1, 41184, Note_on_c, 1, 69, 54
1, 41229, Note_on_c, 0, 73, 0
1, 41232, Note_on_c, 0, 79, 72
1, 41273, Note_on_c, 1, 69, 0
1, 41277, Note_on_c, 0, 79, 0
1, 41280, Note_on_c, 1, 57, 54
1, 41328, Note_on_c, 0, 79, 72
1, 41369, Note_on_c, 1, 57, 0
1, 41373, Note_on_c, 0, 79, 0
1, 41376, Note_on_c, 0, 81, 72
1, 41376, Note_on_c, 1, 61, 54
1, 41399, Note_on_c, 0, 81, 0
1, 41400, Note_on_c, 0, 79, 72
1, 41423, Note_on_c, 0, 79, 0
1, 41424, Note_on_c, 0, 78, 72
1, 41447, Note_on_c, 0, 78, 0
1, 41448, Note_on_c, 0, 76, 72
1, 41465, Note_on_c, 1, 61, 0
1, 41471, Note_on_c, 0, 76, 0
1, 41472, Note_on_c, 0, 79, 72
1, 41472, Note_on_c, 1, 62, 54
1, 41495, Note_on_c, 0, 79, 0
1, 41496, Note_on_c, 0, 78, 72
1, 41519, Note_on_c, 0, 78, 0
1, 41520, Note_on_c, 0, 76, 73
1, 41543, Note_on_c, 0, 76, 0
1, 41544, Note_on_c, 0, 74, 74
1, 41561, Note_on_c, 1, 62, 0
1, 41567, Note_on_c, 0, 74, 0
1, 41568, Note_on_c, 0, 83, 75
1, 41568, Note_on_c, 1, 66, 54
1, 41591, Note_on_c, 0, 83, 0
1, 41592, Note_on_c, 0, 81, 76
1, 41615, Note_on_c, 0, 81, 0
1, 41616, Note_on_c, 0, 79, 76
1, 41639, Note_on_c, 0, 79, 0
1, 41640, Note_on_c, 0, 78, 77
1, 41657, Note_on_c, 1, 66, 0
1, 41663, Note_on_c, 0, 78, 0
1, 41664, Note_on_c, 0, 83, 78
1, 41664, Note_on_c, 1, 67, 54
1, 41687, Note_on_c, 0, 83, 0
1, 41688, Note_on_c, 0, 85, 79
1, 41711, Note_on_c, 0, 85, 0
1, 41712, Note_on_c, 0, 86, 80
1, 41735, Note_on_c, 0, 86, 0
1, 41736, Note_on_c, 0, 79, 80
1, 41753, Note_on_c, 1, 67, 0
1, 41759, Note_on_c, 0, 79, 0
1, 41760, Note_on_c, 0, 78, 80
1, 41760, Note_on_c, 0, 74, 80
1, 41760, Note_on_c, 1, 69, 54
1, 41849, Note_on_c, 1, 69, 0
1, 41856, Note_on_c, 0, 78, 0
1, 41856, Note_on_c, 0, 74, 0
1, 41856, Note_on_c, 0, 76, 76
1, 41856, Note_on_c, 0, 73, 76
1, 41856, Note_on_c, 1, 57, 54
1, 41945, Note_on_c, 0, 76, 0
1, 41945, Note_on_c, 0, 73, 0
1, 41945, Note_on_c, 1, 57, 0
1, 41952, Note_on_c, 0, 67, 72
1, 41975, Note_on_c, 0, 67, 0
1, 41976, Note_on_c, 0, 66, 72
1, 41999, Note_on_c, 0, 66, 0
1, 42000, Note_on_c, 0, 64, 72
1, 42023, Note_on_c, 0, 64, 0
1, 42024, Note_on_c, 0, 62, 72
1, 42047, Note_on_c, 0, 62, 0
1, 42048, Note_on_c, 0, 74, 72
1, 42048, Note_on_c, 1, 62, 54
1, 42093, Note_on_c, 0, 74, 0
1, 42096, Note_on_c, 0, 74, 72
1, 42137, Note_on_c, 1, 62, 0
1, 42141, Note_on_c, 0, 74, 0
1, 42144, Note_on_c, 1, 66, 54
1, 42192, Note_on_c, 0, 74, 72
1, 42233, Note_on_c, 1, 66, 0
1, 42237, Note_on_c, 0, 74, 0
1, 42240, Note_on_c, 0, 76, 72
1, 42240, Note_on_c, 1, 62, 54
1, 42263, Note_on_c, 0, 76, 0
1, 42264, Note_on_c, 0, 74, 72
1, 42287, Note_on_c, 0, 74, 0
1, 42288, Note_on_c, 0, 73, 72
1, 42311, Note_on_c, 0, 73, 0
1, 42312, Note_on_c, 0, 74, 72
1, 42329, Note_on_c, 1, 62, 0
1, 42335, Note_on_c, 0, 74, 0
1, 42336, Note_on_c, 0, 73, 72
1, 42336, Note_on_c, 1, 69, 54
1, 42381, Note_on_c, 0, 73, 0
1, 42384, Note_on_c, 0, 79, 72
1, 42425, Note_on_c, 1, 69, 0
1, 42429, Note_on_c, 0, 79, 0
1, 42432, Note_on_c, 0, 81, 72
1, 42432, Note_on_c, 1, 61, 54
1, 42455, Note_on_c, 0, 81, 0
1, 42456, Note_on_c, 0, 79, 72
1, 42479, Note_on_c, 0, 79, 0
1, 42480, Note_on_c, 0, 78, 72
1, 42503, Note_on_c, 0, 78, 0
1, 42504, Note_on_c, 0, 76, 72
1, 42521, Note_on_c, 1, 61, 0
1, 42527, Note_on_c, 0, 76, 0
1, 42528, Note_on_c, 0, 79, 72
1, 42528, Note_on_c, 1, 62, 54
1, 42551, Note_on_c, 0, 79, 0
1, 42552, Note_on_c, 0, 78, 72
1, 42575, Note_on_c, 0, 78, 0
1, 42576, Note_on_c, 0, 76, 72
1, 42599, Note_on_c, 0, 76, 0
1, 42600, Note_on_c, 0, 74, 72
1, 42617, Note_on_c, 1, 62, 0
1, 42623, Note_on_c, 0, 74, 0
1, 42624, Note_on_c, 0, 83, 72
1, 42624, Note_on_c, 1, 55, 54
1, 42647, Note_on_c, 0, 83, 0
1, 42648, Note_on_c, 0, 85, 72
1, 42671, Note_on_c, 0, 85, 0
1, 42672, Note_on_c, 0, 86, 72
1, 42695, Note_on_c, 0, 86, 0
1, 42696, Note_on_c, 0, 79, 72
1, 42713, Note_on_c, 1, 55, 0
1, 42719, Note_on_c, 0, 79, 0
1, 42720, Note_on_c, 0, 78, 72
1, 42720, Note_on_c, 1, 57, 54
1, 42743, Note_on_c, 0, 78, 0
1, 42744, Note_on_c, 0, 79, 72
1, 42767, Note_on_c, 0, 79, 0
1, 42768, Note_on_c, 0, 81, 72
1, 42791, Note_on_c, 0, 81, 0
1, 42792, Note_on_c, 0, 74, 72
1, 42809, Note_on_c, 1, 57, 0
1, 42815, Note_on_c, 0, 74, 0
1, 42816, Note_on_c, 0, 76, 72
1, 42816, Note_on_c, 1, 45, 54
1, 42839, Note_on_c, 0, 76, 0
1, 42840, Note_on_c, 0, 78, 72
1, 42863, Note_on_c, 0, 78, 0
1, 42864, Note_on_c, 0, 79, 72
1, 42887, Note_on_c, 0, 79, 0
1, 42888, Note_on_c, 0, 73, 72
1, 42905, Note_on_c, 1, 45, 0
1, 42911, Note_on_c, 0, 73, 0
1, 42912, Note_on_c, 0, 74, 72
1, 42912, Note_on_c, 1, 50, 54
1, 43001, Note_on_c, 0, 74, 0
1, 43001, Note_on_c, 1, 50, 0
1, 43008, Note_on_c, 1, 38, 54
1, 43097, Note_on_c, 1, 38, 0
1, 43104, Note_on_c, 0, 67, 72
1, 43127, Note_on_c, 0, 67, 0
1, 43128, Note_on_c, 0, 66, 72
1, 43151, Note_on_c, 0, 66, 0
1, 43152, Note_on_c, 0, 64, 72
1, 43175, Note_on_c, 0, 64, 0
1, 43176, Note_on_c, 0, 62, 72
1, 43199, Note_on_c, 0, 62, 0
1, 43200, Note_on_c, 0, 74, 72
1, 43245, Note_on_c, 0, 74, 0
1, 43248, Note_on_c, 0, 74, 72
1, 43293, Note_on_c, 0, 74, 0
1, 43296, Note_on_c, 1, 62, 54
1, 43344, Note_on_c, 0, 68, 72
1, 43385, Note_on_c, 1, 62, 0
1, 43389, Note_on_c, 0, 68, 0
1, 43392, Note_on_c, 0, 69, 72
1, 43392, Note_on_c, 1, 61, 54
1, 43415, Note_on_c, 0, 69, 0
1, 43416, Note_on_c, 0, 71, 72
1, 43439, Note_on_c, 0, 71, 0
1, 43440, Note_on_c, 0, 69, 72
1, 43463, Note_on_c, 0, 69, 0
1, 43464, Note_on_c, 0, 64, 72
1, 43481, Note_on_c, 1, 61, 0
1, 43487, Note_on_c, 0, 64, 0
1, 43488, Note_on_c, 0, 67, 72
1, 43488, Note_on_c, 1, 59, 54
1, 43533, Note_on_c, 0, 67, 0
1, 43536, Note_on_c, 0, 67, 72
1, 43577, Note_on_c, 1, 59, 0
1, 43581, Note_on_c, 0, 67, 0
1, 43584, Note_on_c, 1, 57, 54
1, 43632, Note_on_c, 0, 66, 72
1, 43673, Note_on_c, 1, 57, 0
1, 43677, Note_on_c, 0, 66, 0
1, 43680, Note_on_c, 0, 64, 72
1, 43680, Note_on_c, 1, 55, 54
1, 43703, Note_on_c, 0, 64, 0
1, 43704, Note_on_c, 0, 66, 72
1, 43727, Note_on_c, 0, 66, 0
1, 43728, Note_on_c, 0, 64, 72
1, 43751, Note_on_c, 0, 64, 0
1, 43752, Note_on_c, 0, 55, 72
1, 43769, Note_on_c, 1, 55, 0
1, 43775, Note_on_c, 0, 55, 0
1, 43776, Note_on_c, 0, 62, 72
1, 43776, Note_on_c, 1, 54, 54
1, 43799, Note_on_c, 0, 62, 0
1, 43800, Note_on_c, 0, 64, 73
1, 43823, Note_on_c, 0, 64, 0
1, 43824, Note_on_c, 0, 62, 74
1, 43847, Note_on_c, 0, 62, 0
1, 43848, Note_on_c, 0, 57, 75
1, 43865, Note_on_c, 1, 54, 0
1, 43871, Note_on_c, 0, 57, 0
1, 43872, Note_on_c, 0, 67, 76
1, 43872, Note_on_c, 1, 52, 54
1, 43895, Note_on_c, 0, 67, 0
1, 43896, Note_on_c, 0, 69, 77
1, 43919, Note_on_c, 0, 69, 0
1, 43920, Note_on_c, 0, 67, 78
1, 43943, Note_on_c, 0, 67, 0
1, 43944, Note_on_c, 0, 64, 79
1, 43961, Note_on_c, 1, 52, 0
1, 43967, Note_on_c, 0, 64, 0
1, 43968, Note_on_c, 0, 66, 80
1, 43968, Note_on_c, 1, 50, 54
1, 43991, Note_on_c, 0, 66, 0
1, 43992, Note_on_c, 0, 67, 80
1, 44015, Note_on_c, 0, 67, 0
1, 44016, Note_on_c, 0, 66, 80
1, 44039, Note_on_c, 0, 66, 0
1, 44040, Note_on_c, 0, 62, 80
1, 44057, Note_on_c, 1, 50, 0
1, 44063, Note_on_c, 0, 62, 0
1, 44064, Note_on_c, 0, 66, 80
1, 44064, Note_on_c, 0, 62, 80
1, 44064, Note_on_c, 1, 57, 54
1, 44153, Note_on_c, 1, 57, 0
1, 44160, Note_on_c, 0, 66, 0
1, 44160, Note_on_c, 0, 62, 0
1, 44160, Note_on_c, 0, 64, 76
1, 44160, Note_on_c, 0, 61, 76
1, 44160, Note_on_c, 1, 45, 54
1, 44249, Note_on_c, 0, 64, 0
1, 44249, Note_on_c, 0, 61, 0
1, 44249, Note_on_c, 1, 45, 0
1, 44256, Note_on_c, 0, 79, 72
1, 44279, Note_on_c, 0, 79, 0
1, 44280, Note_on_c, 0, 78, 72
1, 44303, Note_on_c, 0, 78, 0
1, 44304, Note_on_c, 0, 76, 72
1, 44327, Note_on_c, 0, 76, 0
1, 44328, Note_on_c, 0, 74, 72
1, 44351, Note_on_c, 0, 74, 0
1, 44352, Note_on_c, 0, 86, 72
1, 44397, Note_on_c, 0, 86, 0
1, 44400, Note_on_c, 0, 86, 72
1, 44445, Note_on_c, 0, 86, 0
1, 44448, Note_on_c, 1, 74, 54
1, 44496, Note_on_c, 0, 80, 72
1, 44537, Note_on_c, 1, 74, 0
1, 44541, Note_on_c, 0, 80, 0
1, 44544, Note_on_c, 0, 80, 72
1, 44544, Note_on_c, 1, 73, 54
1, 44567, Note_on_c, 0, 80, 0
1, 44568, Note_on_c, 0, 81, 72
1, 44591, Note_on_c, 0, 81, 0
1, 44592, Note_on_c, 0, 83, 72
1, 44615, Note_on_c, 0, 83, 0
1, 44616, Note_on_c, 0, 81, 72
1, 44633, Note_on_c, 1, 73, 0
1, 44639, Note_on_c, 0, 81, 0
1, 44640, Note_on_c, 0, 81, 72
1, 44640, Note_on_c, 1, 71, 54
1, 44663, Note_on_c, 0, 81, 0
1, 44664, Note_on_c, 0, 79, 72
1, 44687, Note_on_c, 0, 79, 0
1, 44688, Note_on_c, 0, 78, 72
1, 44711, Note_on_c, 0, 78, 0
1, 44712, Note_on_c, 0, 79, 72
1, 44729, Note_on_c, 1, 71, 0
1, 44735, Note_on_c, 0, 79, 0
1, 44736, Note_on_c, 0, 81, 72
1, 44736, Note_on_c, 1, 69, 54
1, 44759, Note_on_c, 0, 81, 0
1, 44760, Note_on_c, 0, 79, 72
1, 44783, Note_on_c, 0, 79, 0
1, 44784, Note_on_c, 0, 78, 72
1, 44807, Note_on_c, 0, 78, 0
1, 44808, Note_on_c, 0, 79, 72
1, 44825, Note_on_c, 1, 69, 0
1, 44831, Note_on_c, 0, 79, 0
1, 44832, Note_on_c, 0, 79, 72
1, 44832, Note_on_c, 1, 67, 54
1, 44855, Note_on_c, 0, 79, 0
1, 44856, Note_on_c, 0, 78, 72
1, 44879, Note_on_c, 0, 78, 0
1, 44880, Note_on_c, 0, 76, 72
1, 44903, Note_on_c, 0, 76, 0
1, 44904, Note_on_c, 0, 78, 72
1, 44921, Note_on_c, 1, 67, 0
1, 44927, Note_on_c, 0, 78, 0
1, 44928, Note_on_c, 0, 81, 72
1, 44928, Note_on_c, 1, 66, 54
1, 44973, Note_on_c, 0, 81, 0
1, 44995, Note_on_c, 1, 66, 0
1, 45000, Note_on_c, 0, 83, 72
1, 45000, Note_on_c, 1, 67, 54
1, 45023, Note_on_c, 0, 83, 0
1, 45023, Note_on_c, 1, 67, 0
1, 45024, Note_on_c, 0, 74, 72
1, 45024, Note_on_c, 1, 69, 54
1, 45113, Note_on_c, 0, 74, 0
1, 45113, Note_on_c, 1, 69, 0
1, 45120, Note_on_c, 0, 76, 72
1, 45120, Note_on_c, 1, 57, 54
1, 45133, Note_on_c, 0, 76, 0
1, 45134, Note_on_c, 0, 78, 72
1, 45147, Note_on_c, 0, 78, 0
1, 45148, Note_on_c, 0, 76, 72
1, 45161, Note_on_c, 0, 76, 0
1, 45162, Note_on_c, 0, 78, 72
1, 45175, Note_on_c, 0, 78, 0
1, 45176, Note_on_c, 0, 76, 72
1, 45189, Note_on_c, 0, 76, 0
1, 45190, Note_on_c, 0, 74, 72
1, 45202, Note_on_c, 0, 74, 0
1, 45203, Note_on_c, 0, 76, 72
1, 45209, Note_on_c, 1, 57, 0
1, 45215, Note_on_c, 0, 76, 0
1, 45216, Note_on_c, 0, 74, 72
1, 45216, Note_on_c, 1, 62, 54
1, 45305, Note_on_c, 1, 62, 0
1, 45312, Note_on_c, 1, 50, 54
1, 45393, Note_on_c, 0, 74, 0
1, 45401, Note_on_c, 1, 50, 0
1, 45408, Note_on_c, 0, 67, 72
1, 45431, Note_on_c, 0, 67, 0
1, 45432, Note_on_c, 0, 66, 72
1, 45455, Note_on_c, 0, 66, 0
1, 45456, Note_on_c, 0, 64, 72
1, 45479, Note_on_c, 0, 64, 0
1, 45480, Note_on_c, 0, 62, 72
1, 45503, Note_on_c, 0, 62, 0
1, 45504, Note_on_c, 0, 74, 72
1, 45549, Note_on_c, 0, 74, 0
1, 45552, Note_on_c, 0, 74, 72
1, 45597, Note_on_c, 0, 74, 0
1, 45600, Note_on_c, 1, 62, 54
1, 45648, Note_on_c, 0, 68, 72
1, 45689, Note_on_c, 1, 62, 0
1, 45693, Note_on_c, 0, 68, 0
1, 45696, Note_on_c, 0, 69, 72
1, 45696, Note_on_c, 1, 61, 54
1, 45719, Note_on_c, 0, 69, 0
1, 45720, Note_on_c, 0, 71, 72
1, 45743, Note_on_c, 0, 71, 0
1, 45744, Note_on_c, 0, 69, 72
1, 45767, Note_on_c, 0, 69, 0
1, 45768, Note_on_c, 0, 64, 72
1, 45785, Note_on_c, 1, 61, 0
1, 45791, Note_on_c, 0, 64, 0
1, 45792, Note_on_c, 0, 67, 72
1, 45792, Note_on_c, 1, 59, 54
1, 45837, Note_on_c, 0, 67, 0
1, 45840, Note_on_c, 0, 67, 72
1, 45881, Note_on_c, 1, 59, 0
1, 45885, Note_on_c, 0, 67, 0
1, 45888, Note_on_c, 1, 57, 54
1, 45936, Note_on_c, 0, 66, 72
1, 45977, Note_on_c, 1, 57, 0
1, 45981, Note_on_c, 0, 66, 0
1, 45984, Note_on_c, 0, 64, 72
1, 45984, Note_on_c, 1, 55, 54
1, 46007, Note_on_c, 0, 64, 0
1, 46008, Note_on_c, 0, 66, 72
1, 46031, Note_on_c, 0, 66, 0
1, 46032, Note_on_c, 0, 64, 72
1, 46055, Note_on_c, 0, 64, 0
1, 46056, Note_on_c, 0, 55, 72
1, 46073, Note_on_c, 1, 55, 0
1, 46079, Note_on_c, 0, 55, 0
1, 46080, Note_on_c, 0, 62, 72
1, 46080, Note_on_c, 1, 54, 54
1, 46103, Note_on_c, 0, 62, 0
1, 46104, Note_on_c, 0, 64, 73
1, 46127, Note_on_c, 0, 64, 0
1, 46128, Note_on_c, 0, 62, 74
1, 46151, Note_on_c, 0, 62, 0
1, 46152, Note_on_c, 0, 57, 75
1, 46169, Note_on_c, 1, 54, 0
1, 46175, Note_on_c, 0, 57, 0
1, 46176, Note_on_c, 0, 67, 76
1, 46176, Note_on_c, 1, 52, 54
1, 46199, Note_on_c, 0, 67, 0
1, 46200, Note_on_c, 0, 69, 77
1, 46223, Note_on_c, 0, 69, 0
1, 46224, Note_on_c, 0, 67, 78
1, 46247, Note_on_c, 0, 67, 0
1, 46248, Note_on_c, 0, 64, 79
1, 46265, Note_on_c, 1, 52, 0
1, 46271, Note_on_c, 0, 64, 0
1, 46272, Note_on_c, 0, 66, 80
1, 46272, Note_on_c, 1, 50, 54
1, 46295, Note_on_c, 0, 66, 0
1, 46296, Note_on_c, 0, 67, 80
1, 46319, Note_on_c, 0, 67, 0
1, 46320, Note_on_c, 0, 66, 80
1, 46343, Note_on_c, 0, 66, 0
1, 46344, Note_on_c, 0, 62, 80
1, 46361, Note_on_c, 1, 50, 0
1, 46367, Note_on_c, 0, 62, 0
1, 46368, Note_on_c, 0, 66, 80
1, 46368, Note_on_c, 0, 62, 80
1, 46368, Note_on_c, 1, 57, 54
1, 46457, Note_on_c, 1, 57, 0
1, 46464, Note_on_c, 0, 66, 0
1, 46464, Note_on_c, 0, 62, 0
1, 46464, Note_on_c, 0, 64, 76
1, 46464, Note_on_c, 0, 61, 76
1, 46464, Note_on_c, 1, 45, 54
1, 46553, Note_on_c, 0, 64, 0
1, 46553, Note_on_c, 0, 61, 0
1, 46553, Note_on_c, 1, 45, 0
1, 46560, Note_on_c, 0, 79, 72
1, 46583, Note_on_c, 0, 79, 0
1, 46584, Note_on_c, 0, 78, 72
1, 46607, Note_on_c, 0, 78, 0
1, 46608, Note_on_c, 0, 76, 72
1, 46631, Note_on_c, 0, 76, 0
1, 46632, Note_on_c, 0, 74, 72
1, 46655, Note_on_c, 0, 74, 0
1, 46656, Note_on_c, 0, 86, 72
1, 46701, Note_on_c, 0, 86, 0
1, 46704, Note_on_c, 0, 86, 72
1, 46749, Note_on_c, 0, 86, 0
1, 46752, Note_on_c, 1, 74, 54
1, 46800, Note_on_c, 0, 80, 72
1, 46841, Note_on_c, 1, 74, 0
1, 46845, Note_on_c, 0, 80, 0
1, 46848, Note_on_c, 0, 80, 72
1, 46848, Note_on_c, 1, 73, 54
1, 46871, Note_on_c, 0, 80, 0
1, 46872, Note_on_c, 0, 81, 72
1, 46895, Note_on_c, 0, 81, 0
1, 46896, Note_on_c, 0, 83, 72
1, 46919, Note_on_c, 0, 83, 0
1, 46920, Note_on_c, 0, 81, 72
1, 46937, Note_on_c, 1, 73, 0
1, 46943, Note_on_c, 0, 81, 0
1, 46944, Note_on_c, 0, 81, 72
1, 46944, Note_on_c, 1, 71, 54
1, 46967, Note_on_c, 0, 81, 0
1, 46968, Note_on_c, 0, 79, 72
1, 46991, Note_on_c, 0, 79, 0
1, 46992, Note_on_c, 0, 78, 72
1, 47015, Note_on_c, 0, 78, 0
1, 47016, Note_on_c, 0, 79, 72
1, 47033, Note_on_c, 1, 71, 0
1, 47039, Note_on_c, 0, 79, 0
1, 47040, Note_on_c, 0, 81, 72
1, 47040, Note_on_c, 1, 69, 54
1, 47063, Note_on_c, 0, 81, 0
1, 47064, Note_on_c, 0, 79, 72
1, 47087, Note_on_c, 0, 79, 0
1, 47088, Note_on_c, 0, 78, 72
1, 47111, Note_on_c, 0, 78, 0
1, 47112, Note_on_c, 0, 79, 72
1, 47129, Note_on_c, 1, 69, 0
1, 47135, Note_on_c, 0, 79, 0
1, 47136, Note_on_c, 0, 79, 72
1, 47136, Note_on_c, 1, 67, 54
1, 47159, Note_on_c, 0, 79, 0
1, 47160, Note_on_c, 0, 78, 72
1, 47183, Note_on_c, 0, 78, 0
1, 47184, Note_on_c, 0, 76, 72
1, 47207, Note_on_c, 0, 76, 0
1, 47208, Note_on_c, 0, 78, 72
1, 47225, Note_on_c, 1, 67, 0
1, 47231, Note_on_c, 0, 78, 0
1, 47232, Note_on_c, 0, 81, 72
1, 47232, Note_on_c, 1, 66, 54
1, 47277, Note_on_c, 0, 81, 0
1, 47299, Note_on_c, 1, 66, 0
1, 47304, Note_on_c, 0, 83, 72
1, 47304, Note_on_c, 1, 67, 54
1, 47327, Note_on_c, 0, 83, 0
1, 47327, Note_on_c, 1, 67, 0
1, 47328, Note_on_c, 0, 74, 72
1, 47328, Note_on_c, 1, 69, 54
1, 47417, Note_on_c, 0, 74, 0
1, 47417, Note_on_c, 1, 69, 0
1, 47424, Note_on_c, 0, 76, 72
1, 47424, Note_on_c, 1, 57, 54
1, 47437, Note_on_c, 0, 76, 0
1, 47438, Note_on_c, 0, 78, 72
1, 47451, Note_on_c, 0, 78, 0
1, 47452, Note_on_c, 0, 76, 72
1, 47465, Note_on_c, 0, 76, 0
1, 47466, Note_on_c, 0, 78, 72
1, 47479, Note_on_c, 0, 78, 0
1, 47480, Note_on_c, 0, 76, 72
1, 47493, Note_on_c, 0, 76, 0
1, 47494, Note_on_c, 0, 74, 72
1, 47506, Note_on_c, 0, 74, 0
1, 47507, Note_on_c, 0, 76, 72
1, 47513, Note_on_c, 1, 57, 0
1, 47519, Note_on_c, 0, 76, 0
1, 47520, Note_on_c, 0, 74, 72
1, 47520, Note_on_c, 1, 62, 54
1, 47609, Note_on_c, 1, 62, 0
1, 47616, Note_on_c, 1, 50, 54
1, 47697, Note_on_c, 0, 74, 0
1, 47705, Note_on_c, 1, 50, 0
1, 47712, Note_on_c, 0, 67, 72
1, 47735, Note_on_c, 0, 67, 0
1, 47736, Note_on_c, 0, 65, 72
1, 47759, Note_on_c, 0, 65, 0
1, 47760, Note_on_c, 0, 64, 72
1, 47783, Note_on_c, 0, 64, 0
1, 47784, Note_on_c, 0, 62, 72
1, 47807, Note_on_c, 0, 62, 0
1, 47808, Note_on_c, 0, 74, 72
1, 47904, Note_on_c, 1, 53, 54
1, 47941, Note_on_c, 0, 74, 0
1, 47952, Note_on_c, 0, 76, 72
1, 47993, Note_on_c, 1, 53, 0
1, 48000, Note_on_c, 1, 50, 54
1, 48041, Note_on_c, 0, 76, 0
1, 48048, Note_on_c, 0, 77, 72
1, 48089, Note_on_c, 1, 50, 0
1, 48096, Note_on_c, 1, 52, 54
1, 48141, Note_on_c, 0, 77, 0
1, 48144, Note_on_c, 0, 69, 72
1, 48185, Note_on_c, 1, 52, 0
1, 48192, Note_on_c, 1, 47, 55
1, 48233, Note_on_c, 0, 69, 0
1, 48240, Note_on_c, 0, 68, 74
1, 48281, Note_on_c, 1, 47, 0
1, 48288, Note_on_c, 1, 49, 57
1, 48329, Note_on_c, 0, 68, 0
1, 48336, Note_on_c, 0, 67, 76
1, 48377, Note_on_c, 1, 49, 0
1, 48384, Note_on_c, 1, 50, 59
1, 48429, Note_on_c, 0, 67, 0
1, 48432, Note_on_c, 0, 65, 78
1, 48473, Note_on_c, 1, 50, 0
1, 48480, Note_on_c, 1, 41, 61
1, 48521, Note_on_c, 0, 65, 0
1, 48528, Note_on_c, 0, 69, 80
1, 48548, Note_on_c, 0, 69, 0
1, 48569, Note_on_c, 1, 41, 0
1, 48576, Note_on_c, 0, 70, 80
1, 48576, Note_on_c, 1, 43, 63
1, 48588, Note_on_c, 0, 70, 0
1, 48588, Note_on_c, 0, 69, 80
1, 48600, Note_on_c, 0, 69, 0
1, 48600, Note_on_c, 0, 67, 80
1, 48612, Note_on_c, 0, 67, 0
1, 48612, Note_on_c, 0, 69, 80
1, 48624, Note_on_c, 0, 69, 0
1, 48624, Note_on_c, 0, 69, 80
1, 48643, Note_on_c, 0, 69, 0
1, 48648, Note_on_c, 0, 70, 80
1, 48665, Note_on_c, 1, 43, 0
1, 48671, Note_on_c, 0, 70, 0
1, 48672, Note_on_c, 0, 62, 79
1, 48672, Note_on_c, 1, 45, 60
1, 48761, Note_on_c, 1, 45, 0
1, 48768, Note_on_c, 0, 62, 0
1, 48768, Note_on_c, 0, 61, 75
1, 48768, Note_on_c, 1, 33, 57
1, 48857, Note_on_c, 0, 61, 0
1, 48857, Note_on_c, 1, 33, 0
1, 48864, Note_on_c, 0, 70, 72
1, 48887, Note_on_c, 0, 70, 0
1, 48888, Note_on_c, 0, 69, 72
1, 48911, Note_on_c, 0, 69, 0
1, 48912, Note_on_c, 0, 67, 72
1, 48935, Note_on_c, 0, 67, 0
1, 48936, Note_on_c, 0, 65, 72
1, 48959, Note_on_c, 0, 65, 0
1, 48960, Note_on_c, 0, 74, 72
1, 48960, Note_on_c, 1, 60, 54
1, 48960, Note_on_c, 1, 57, 54
1, 48960, Note_on_c, 1, 53, 54
1, 48983, Note_on_c, 0, 74, 0
1, 48984, Note_on_c, 0, 72, 73
1, 49007, Note_on_c, 0, 72, 0
1, 49008, Note_on_c, 0, 70, 73
1, 49031, Note_on_c, 0, 70, 0
1, 49032, Note_on_c, 0, 69, 73
1, 49055, Note_on_c, 0, 69, 0
1, 49056, Note_on_c, 0, 79, 74
1, 49079, Note_on_c, 0, 79, 0
1, 49080, Note_on_c, 0, 77, 74
1, 49103, Note_on_c, 0, 77, 0
1, 49104, Note_on_c, 0, 76, 74
1, 49127, Note_on_c, 0, 76, 0
1, 49128, Note_on_c, 0, 74, 74
1, 49137, Note_on_c, 1, 60, 0
1, 49137, Note_on_c, 1, 57, 0
1, 49137, Note_on_c, 1, 53, 0
1, 49151, Note_on_c, 0, 74, 0
1, 49152, Note_on_c, 0, 82, 75
1, 49152, Note_on_c, 1, 65, 54
1, 49152, Note_on_c, 1, 63, 54
1, 49175, Note_on_c, 0, 82, 0
1, 49176, Note_on_c, 0, 81, 75
1, 49199, Note_on_c, 0, 81, 0
1, 49200, Note_on_c, 0, 79, 75
1, 49223, Note_on_c, 0, 79, 0
1, 49224, Note_on_c, 0, 77, 76
1, 49241, Note_on_c, 1, 65, 0
1, 49241, Note_on_c, 1, 63, 0
1, 49247, Note_on_c, 0, 77, 0
1, 49248, Note_on_c, 0, 84, 76
1, 49248, Note_on_c, 1, 62, 54
1, 49248, Note_on_c, 1, 65, 72
1, 49271, Note_on_c, 0, 84, 0
1, 49272, Note_on_c, 0, 82, 76
1, 49295, Note_on_c, 0, 82, 0
1, 49296, Note_on_c, 0, 81, 76
1, 49319, Note_on_c, 0, 81, 0
1, 49320, Note_on_c, 0, 82, 77
1, 49337, Note_on_c, 1, 62, 0
1, 49343, Note_on_c, 0, 82, 0
1, 49344, Note_on_c, 0, 86, 77
1, 49344, Note_on_c, 1, 58, 54
1, 49367, Note_on_c, 0, 86, 0
1, 49368, Note_on_c, 0, 82, 77
1, 49391, Note_on_c, 0, 82, 0
1, 49392, Note_on_c, 0, 81, 78
1, 49415, Note_on_c, 0, 81, 0
1, 49416, Note_on_c, 0, 79, 78
1, 49425, Note_on_c, 1, 65, 0
1, 49433, Note_on_c, 1, 58, 0
1, 49439, Note_on_c, 0, 79, 0
1, 49440, Note_on_c, 0, 88, 78
1, 49440, Note_on_c, 1, 55, 54
1, 49440, Note_on_c, 1, 58, 72
1, 49463, Note_on_c, 0, 88, 0
1, 49464, Note_on_c, 0, 82, 78
1, 49487, Note_on_c, 0, 82, 0
1, 49488, Note_on_c, 0, 81, 79
1, 49511, Note_on_c, 0, 81, 0
1, 49512, Note_on_c, 0, 79, 79
1, 49529, Note_on_c, 1, 55, 0
1, 49529, Note_on_c, 1, 58, 0
1, 49535, Note_on_c, 0, 79, 0
1, 49536, Note_on_c, 0, 89, 95
1, 49536, Note_on_c, 1, 60, 54
1, 49536, Note_on_c, 1, 57, 54
1, 49560, Note_on_c, 0, 89, 0
1, 49560, Note_on_c, 0, 84, 80
1, 49583, Note_on_c, 0, 84, 0
1, 49584, Note_on_c, 0, 81, 80
1, 49607, Note_on_c, 0, 81, 0
1, 49608, Note_on_c, 0, 77, 80
1, 49625, Note_on_c, 1, 60, 0
1, 49625, Note_on_c, 1, 57, 0
1, 49631, Note_on_c, 0, 77, 0
1, 49632, Note_on_c, 0, 79, 80
1, 49632, Note_on_c, 1, 60, 54
1, 49644, Note_on_c, 0, 79, 0
1, 49645, Note_on_c, 0, 81, 80
1, 49657, Note_on_c, 0, 81, 0
1, 49658, Note_on_c, 0, 79, 80
1, 49670, Note_on_c, 0, 79, 0
1, 49671, Note_on_c, 0, 81, 80
1, 49683, Note_on_c, 0, 81, 0
1, 49684, Note_on_c, 0, 79, 80
1, 49696, Note_on_c, 0, 79, 0
1, 49697, Note_on_c, 0, 81, 80
1, 49709, Note_on_c, 0, 81, 0
1, 49710, Note_on_c, 0, 79, 80
1, 49721, Note_on_c, 1, 60, 0
1, 49722, Note_on_c, 0, 79, 0
1, 49723, Note_on_c, 0, 81, 80
1, 49728, Note_on_c, 1, 48, 54
1, 49735, Note_on_c, 0, 81, 0
1, 49736, Note_on_c, 0, 79, 80
1, 49748, Note_on_c, 0, 79, 0
1, 49749, Note_on_c, 0, 81, 80
1, 49761, Note_on_c, 0, 81, 0
1, 49762, Note_on_c, 0, 79, 80
1, 49774, Note_on_c, 0, 79, 0
1, 49775, Note_on_c, 0, 77, 80
1, 49800, Note_on_c, 0, 77, 0
1, 49800, Note_on_c, 0, 79, 80
1, 49817, Note_on_c, 1, 48, 0
1, 49824, Note_on_c, 0, 79, 0
1, 49824, Note_on_c, 0, 77, 80
1, 49824, Note_on_c, 1, 53, 54
1, 49913, Note_on_c, 1, 53, 0
1, 49920, Note_on_c, 1, 41, 54
1, 50001, Note_on_c, 0, 77, 0
1, 50009, Note_on_c, 1, 41, 0
1, 50016, Note_on_c, 0, 67, 72
1, 50039, Note_on_c, 0, 67, 0
1, 50040, Note_on_c, 0, 65, 72
1, 50063, Note_on_c, 0, 65, 0
1, 50064, Note_on_c, 0, 64, 72
1, 50087, Note_on_c, 0, 64, 0
1, 50088, Note_on_c, 0, 62, 72
1, 50111, Note_on_c, 0, 62, 0
1, 50112, Note_on_c, 0, 74, 72
1, 50208, Note_on_c, 1, 53, 54
1, 50245, Note_on_c, 0, 74, 0
1, 50256, Note_on_c, 0, 76, 72
1, 50297, Note_on_c, 1, 53, 0
1, 50304, Note_on_c, 1, 50, 54
1, 50345, Note_on_c, 0, 76, 0
1, 50352, Note_on_c, 0, 77, 72
1, 50393, Note_on_c, 1, 50, 0
1, 50400, Note_on_c, 1, 52, 54
1, 50445, Note_on_c, 0, 77, 0
1, 50448, Note_on_c, 0, 69, 72
1, 50489, Note_on_c, 1, 52, 0
1, 50496, Note_on_c, 1, 47, 55
1, 50537, Note_on_c, 0, 69, 0
1, 50544, Note_on_c, 0, 68, 74
1, 50585, Note_on_c, 1, 47, 0
1, 50592, Note_on_c, 1, 49, 57
1, 50633, Note_on_c, 0, 68, 0
1, 50640, Note_on_c, 0, 67, 76
1, 50681, Note_on_c, 1, 49, 0
1, 50688, Note_on_c, 1, 50, 59
1, 50733, Note_on_c, 0, 67, 0
1, 50736, Note_on_c, 0, 65, 78
1, 50777, Note_on_c, 1, 50, 0
1, 50784, Note_on_c, 1, 41, 61
1, 50825, Note_on_c, 0, 65, 0
1, 50832, Note_on_c, 0, 69, 80
1, 50852, Note_on_c, 0, 69, 0
1, 50873, Note_on_c, 1, 41, 0
1, 50880, Note_on_c, 0, 70, 80
1, 50880, Note_on_c, 1, 43, 63
1, 50892, Note_on_c, 0, 70, 0
1, 50892, Note_on_c, 0, 69, 80
1, 50904, Note_on_c, 0, 69, 0
1, 50904, Note_on_c, 0, 67, 80
1, 50916, Note_on_c, 0, 67, 0
1, 50916, Note_on_c, 0, 69, 80
1, 50928, Note_on_c, 0, 69, 0
1, 50928, Note_on_c, 0, 69, 80
1, 50947, Note_on_c, 0, 69, 0
1, 50952, Note_on_c, 0, 70, 80
1, 50969, Note_on_c, 1, 43, 0
1, 50975, Note_on_c, 0, 70, 0
1, 50976, Note_on_c, 0, 62, 79
1, 50976, Note_on_c, 1, 45, 60
1, 51065, Note_on_c, 1, 45, 0
1, 51072, Note_on_c, 0, 62, 0
1, 51072, Note_on_c, 0, 61, 75
1, 51072, Note_on_c, 1, 33, 57
1, 51161, Note_on_c, 0, 61, 0
1, 51161, Note_on_c, 1, 33, 0
1, 51168, Note_on_c, 0, 70, 72
1, 51191, Note_on_c, 0, 70, 0
1, 51192, Note_on_c, 0, 69, 72
1, 51215, Note_on_c, 0, 69, 0
1, 51216, Note_on_c, 0, 67, 72
1, 51239, Note_on_c, 0, 67, 0
1, 51240, Note_on_c, 0, 65, 72
1, 51263, Note_on_c, 0, 65, 0
1, 51264, Note_on_c, 0, 74, 72
1, 51264, Note_on_c, 1, 60, 54
1, 51264, Note_on_c, 1, 57, 54
1, 51264, Note_on_c, 1, 53, 54
1, 51287, Note_on_c, 0, 74, 0
1, 51288, Note_on_c, 0, 72, 73
1, 51311, Note_on_c, 0, 72, 0
1, 51312, Note_on_c, 0, 70, 73
1, 51335, Note_on_c, 0, 70, 0
1, 51336, Note_on_c, 0, 69, 73
1, 51359, Note_on_c, 0, 69, 0
1, 51360, Note_on_c, 0, 79, 74
1, 51383, Note_on_c, 0, 79, 0
1, 51384, Note_on_c, 0, 77, 74
1, 51407, Note_on_c, 0, 77, 0
1, 51408, Note_on_c, 0, 76, 74
1, 51431, Note_on_c, 0, 76, 0
1, 51432, Note_on_c, 0, 74, 74
1, 51441, Note_on_c, 1, 60, 0
1, 51441, Note_on_c, 1, 57, 0
1, 51441, Note_on_c, 1, 53, 0
1, 51455, Note_on_c, 0, 74, 0
1, 51456, Note_on_c, 0, 82, 75
1, 51456, Note_on_c, 1, 65, 54
1, 51456, Note_on_c, 1, 63, 54
1, 51479, Note_on_c, 0, 82, 0
1, 51480, Note_on_c, 0, 81, 75
1, 51503, Note_on_c, 0, 81, 0
1, 51504, Note_on_c, 0, 79, 75
1, 51527, Note_on_c, 0, 79, 0
1, 51528, Note_on_c, 0, 77, 76
1, 51545, Note_on_c, 1, 65, 0
1, 51545, Note_on_c, 1, 63, 0
1, 51551, Note_on_c, 0, 77, 0
1, 51552, Note_on_c, 0, 84, 76
1, 51552, Note_on_c, 1, 62, 54
1, 51552, Note_on_c, 1, 65, 72
1, 51575, Note_on_c, 0, 84, 0
1, 51576, Note_on_c, 0, 82, 76
1, 51599, Note_on_c, 0, 82, 0
1, 51600, Note_on_c, 0, 81, 76
1, 51623, Note_on_c, 0, 81, 0
1, 51624, Note_on_c, 0, 82, 77
1, 51641, Note_on_c, 1, 62, 0
1, 51647, Note_on_c, 0, 82, 0
1, 51648, Note_on_c, 0, 86, 77
1, 51648, Note_on_c, 1, 58, 54
1, 51671, Note_on_c, 0, 86, 0
1, 51672, Note_on_c, 0, 82, 77
1, 51695, Note_on_c, 0, 82, 0
1, 51696, Note_on_c, 0, 81, 78
1, 51719, Note_on_c, 0, 81, 0
1, 51720, Note_on_c, 0, 79, 78
1, 51729, Note_on_c, 1, 65, 0
1, 51737, Note_on_c, 1, 58, 0
1, 51743, Note_on_c, 0, 79, 0
1, 51744, Note_on_c, 0, 88, 78
1, 51744, Note_on_c, 1, 55, 54
1, 51744, Note_on_c, 1, 58, 72
1, 51767, Note_on_c, 0, 88, 0
1, 51768, Note_on_c, 0, 82, 78
1, 51791, Note_on_c, 0, 82, 0
1, 51792, Note_on_c, 0, 81, 79
1, 51815, Note_on_c, 0, 81, 0
1, 51816, Note_on_c, 0, 79, 79
1, 51833, Note_on_c, 1, 55, 0
1, 51833, Note_on_c, 1, 58, 0
1, 51839, Note_on_c, 0, 79, 0
1, 51840, Note_on_c, 0, 89, 95
1, 51840, Note_on_c, 1, 60, 54
1, 51840, Note_on_c, 1, 57, 54
1, 51864, Note_on_c, 0, 89, 0
1, 51864, Note_on_c, 0, 84, 80
1, 51887, Note_on_c, 0, 84, 0
1, 51888, Note_on_c, 0, 81, 80
1, 51911, Note_on_c, 0, 81, 0
1, 51912, Note_on_c, 0, 77, 80
1, 51929, Note_on_c, 1, 60, 0
1, 51929, Note_on_c, 1, 57, 0
1, 51935, Note_on_c, 0, 77, 0
1, 51936, Note_on_c, 0, 79, 80
1, 51936, Note_on_c, 1, 60, 54
1, 51948, Note_on_c, 0, 79, 0
1, 51949, Note_on_c, 0, 81, 80
1, 51961, Note_on_c, 0, 81, 0
1, 51962, Note_on_c, 0, 79, 80
1, 51974, Note_on_c, 0, 79, 0
1, 51975, Note_on_c, 0, 81, 80
1, 51987, Note_on_c, 0, 81, 0
1, 51988, Note_on_c, 0, 79, 80
1, 52000, Note_on_c, 0, 79, 0
1, 52001, Note_on_c, 0, 81, 80
1, 52013, Note_on_c, 0, 81, 0
1, 52014, Note_on_c, 0, 79, 80
1, 52025, Note_on_c, 1, 60, 0
1, 52026, Note_on_c, 0, 79, 0
1, 52027, Note_on_c, 0, 81, 80
1, 52032, Note_on_c, 1, 48, 54
1, 52039, Note_on_c, 0, 81, 0
1, 52040, Note_on_c, 0, 79, 80
1, 52052, Note_on_c, 0, 79, 0
1, 52053, Note_on_c, 0, 81, 80
1, 52065, Note_on_c, 0, 81, 0
1, 52066, Note_on_c, 0, 79, 80
1, 52078, Note_on_c, 0, 79, 0
1, 52079, Note_on_c, 0, 77, 80
1, 52104, Note_on_c, 0, 77, 0
1, 52104, Note_on_c, 0, 79, 80
1, 52121, Note_on_c, 1, 48, 0
1, 52128, Note_on_c, 0, 79, 0
1, 52128, Note_on_c, 0, 77, 80
1, 52128, Note_on_c, 1, 53, 54
1, 52217, Note_on_c, 1, 53, 0
1, 52224, Note_on_c, 1, 41, 54
1, 52305, Note_on_c, 0, 77, 0
1, 52313, Note_on_c, 1, 41, 0
1, 52320, Note_on_c, 0, 82, 72
1, 52343, Note_on_c, 0, 82, 0
1, 52344, Note_on_c, 0, 81, 72
1, 52367, Note_on_c, 0, 81, 0
1, 52368, Note_on_c, 0, 79, 72
1, 52391, Note_on_c, 0, 79, 0
1, 52392, Note_on_c, 0, 77, 72
1, 52415, Note_on_c, 0, 77, 0
1, 52416, Note_on_c, 0, 84, 88
1, 52512, Note_on_c, 1, 72, 54
1, 52512, Note_on_c, 1, 69, 54
1, 52535, Note_on_c, 0, 84, 0
1, 52536, Note_on_c, 0, 75, 72
1, 52559, Note_on_c, 0, 75, 0
1, 52560, Note_on_c, 0, 74, 72
1, 52583, Note_on_c, 0, 74, 0
1, 52584, Note_on_c, 0, 75, 72
1, 52601, Note_on_c, 1, 72, 0
1, 52601, Note_on_c, 1, 69, 0
1, 52607, Note_on_c, 0, 75, 0
1, 52608, Note_on_c, 0, 77, 72
1, 52608, Note_on_c, 1, 70, 54
1, 52608, Note_on_c, 1, 67, 54
1, 52631, Note_on_c, 0, 77, 0
1, 52632, Note_on_c, 0, 75, 72
1, 52655, Note_on_c, 0, 75, 0
1, 52656, Note_on_c, 0, 74, 72
1, 52679, Note_on_c, 0, 74, 0
1, 52680, Note_on_c, 0, 75, 72
1, 52697, Note_on_c, 1, 70, 0
1, 52697, Note_on_c, 1, 67, 0
1, 52703, Note_on_c, 0, 75, 0
1, 52704, Note_on_c, 0, 74, 72
1, 52704, Note_on_c, 1, 69, 54
1, 52704, Note_on_c, 1, 66, 54
1, 52727, Note_on_c, 0, 74, 0
1, 52728, Note_on_c, 0, 81, 72
1, 52751, Note_on_c, 0, 81, 0
1, 52752, Note_on_c, 0, 82, 72
1, 52775, Note_on_c, 0, 82, 0
1, 52776, Note_on_c, 0, 81, 72
1, 52799, Note_on_c, 0, 81, 0
1, 52800, Note_on_c, 0, 86, 72
1, 52823, Note_on_c, 0, 86, 0
1, 52824, Note_on_c, 0, 84, 72
1, 52847, Note_on_c, 0, 84, 0
1, 52848, Note_on_c, 0, 82, 72
1, 52871, Note_on_c, 0, 82, 0
1, 52872, Note_on_c, 0, 81, 72
1, 52881, Note_on_c, 1, 69, 0
1, 52881, Note_on_c, 1, 66, 0
1, 52895, Note_on_c, 0, 81, 0
1, 52896, Note_on_c, 0, 82, 72
1, 52896, Note_on_c, 1, 74, 54
1, 52896, Note_on_c, 1, 67, 54
1, 52919, Note_on_c, 0, 82, 0
1, 52920, Note_on_c, 0, 79, 72
1, 52943, Note_on_c, 0, 79, 0
1, 52944, Note_on_c, 0, 81, 72
1, 52967, Note_on_c, 0, 81, 0
1, 52968, Note_on_c, 0, 82, 72
1, 52985, Note_on_c, 1, 74, 0
1, 52985, Note_on_c, 1, 67, 0
1, 52991, Note_on_c, 0, 82, 0
1, 52992, Note_on_c, 0, 84, 72
1, 52992, Note_on_c, 1, 64, 54
1, 52992, Note_on_c, 1, 72, 72
1, 53015, Note_on_c, 0, 84, 0
1, 53016, Note_on_c, 0, 82, 72
1, 53039, Note_on_c, 0, 82, 0
1, 53040, Note_on_c, 0, 81, 72
1, 53063, Note_on_c, 0, 81, 0
1, 53064, Note_on_c, 0, 79, 72
1, 53081, Note_on_c, 1, 64, 0
1, 53087, Note_on_c, 0, 79, 0
1, 53088, Note_on_c, 0, 81, 72
1, 53088, Note_on_c, 1, 65, 54
1, 53111, Note_on_c, 0, 81, 0
1, 53112, Note_on_c, 0, 77, 72
1, 53135, Note_on_c, 0, 77, 0
1, 53136, Note_on_c, 0, 76, 72
1, 53159, Note_on_c, 0, 76, 0
1, 53160, Note_on_c, 0, 74, 72
1, 53169, Note_on_c, 1, 72, 0
1, 53177, Note_on_c, 1, 65, 0
1, 53183, Note_on_c, 0, 74, 0
1, 53184, Note_on_c, 0, 82, 72
1, 53184, Note_on_c, 1, 67, 54
1, 53184, Note_on_c, 1, 55, 54
1, 53207, Note_on_c, 0, 82, 0
1, 53208, Note_on_c, 0, 79, 72
1, 53231, Note_on_c, 0, 79, 0
1, 53232, Note_on_c, 0, 77, 72
1, 53255, Note_on_c, 0, 77, 0
1, 53256, Note_on_c, 0, 76, 72
1, 53273, Note_on_c, 1, 67, 0
1, 53273, Note_on_c, 1, 55, 0
1, 53279, Note_on_c, 0, 76, 0
1, 53280, Note_on_c, 0, 74, 72
1, 53280, Note_on_c, 1, 64, 54
1, 53280, Note_on_c, 1, 57, 54
1, 53376, Note_on_c, 0, 74, 0
1, 53376, Note_on_c, 0, 73, 72
1, 53457, Note_on_c, 1, 64, 0
1, 53457, Note_on_c, 1, 57, 0
1, 53465, Note_on_c, 0, 73, 0
1, 53472, Note_on_c, 0, 69, 72
1, 53495, Note_on_c, 0, 69, 0
1, 53496, Note_on_c, 0, 67, 72
1, 53519, Note_on_c, 0, 67, 0
1, 53520, Note_on_c, 0, 65, 72
1, 53543, Note_on_c, 0, 65, 0
1, 53544, Note_on_c, 0, 64, 72
1, 53567, Note_on_c, 0, 64, 0
1, 53568, Note_on_c, 0, 79, 72
1, 53664, Note_on_c, 1, 61, 54
1, 53664, Note_on_c, 1, 58, 54
1, 53687, Note_on_c, 0, 79, 0
1, 53688, Note_on_c, 0, 81, 72
1, 53711, Note_on_c, 0, 81, 0
1, 53712, Note_on_c, 0, 79, 72
1, 53735, Note_on_c, 0, 79, 0
1, 53736, Note_on_c, 0, 76, 73
1, 53753, Note_on_c, 1, 61, 0
1, 53753, Note_on_c, 1, 58, 0
1, 53759, Note_on_c, 0, 76, 0
1, 53760, Note_on_c, 0, 85, 73
1, 53760, Note_on_c, 1, 58, 54
1, 53760, Note_on_c, 1, 55, 54
1, 53783, Note_on_c, 0, 85, 0
1, 53784, Note_on_c, 0, 86, 74
1, 53807, Note_on_c, 0, 86, 0
1, 53808, Note_on_c, 0, 85, 74
1, 53831, Note_on_c, 0, 85, 0
1, 53832, Note_on_c, 0, 82, 75
1, 53849, Note_on_c, 1, 58, 0
1, 53849, Note_on_c, 1, 55, 0
1, 53855, Note_on_c, 0, 82, 0
1, 53856, Note_on_c, 0, 86, 75
1, 53856, Note_on_c, 1, 62, 54
1, 53856, Note_on_c, 1, 57, 54
1, 53856, Note_on_c, 1, 53, 54
1, 53879, Note_on_c, 0, 86, 0
1, 53880, Note_on_c, 0, 88, 76
1, 53903, Note_on_c, 0, 88, 0
1, 53904, Note_on_c, 0, 86, 76
1, 53927, Note_on_c, 0, 86, 0
1, 53928, Note_on_c, 0, 81, 77
1, 53945, Note_on_c, 1, 62, 0
1, 53945, Note_on_c, 1, 57, 0
1, 53945, Note_on_c, 1, 53, 0
1, 53951, Note_on_c, 0, 81, 0
1, 53952, Note_on_c, 0, 88, 77
1, 53952, Note_on_c, 1, 61, 54
1, 53952, Note_on_c, 1, 55, 54
1, 53952, Note_on_c, 1, 52, 54
1, 53975, Note_on_c, 0, 88, 0
1, 53976, Note_on_c, 0, 89, 78
1, 53999, Note_on_c, 0, 89, 0
1, 54000, Note_on_c, 0, 88, 78
1, 54023, Note_on_c, 0, 88, 0
1, 54024, Note_on_c, 0, 81, 79
1, 54041, Note_on_c, 1, 61, 0
1, 54041, Note_on_c, 1, 55, 0
1, 54041, Note_on_c, 1, 52, 0
1, 54047, Note_on_c, 0, 81, 0
1, 54048, Note_on_c, 0, 89, 95
1, 54048, Note_on_c, 1, 62, 54
1, 54048, Note_on_c, 1, 53, 54
1, 54048, Note_on_c, 1, 50, 54
1, 54072, Note_on_c, 0, 89, 0
1, 54072, Note_on_c, 0, 86, 80
1, 54095, Note_on_c, 0, 86, 0
1, 54096, Note_on_c, 0, 85, 80
1, 54119, Note_on_c, 0, 85, 0
1, 54120, Note_on_c, 0, 86, 80
1, 54137, Note_on_c, 1, 62, 0
1, 54137, Note_on_c, 1, 53, 0
1, 54137, Note_on_c, 1, 50, 0
1, 54143, Note_on_c, 0, 86, 0
1, 54144, Note_on_c, 0, 84, 80
1, 54144, Note_on_c, 1, 55, 54
1, 54167, Note_on_c, 0, 84, 0
1, 54168, Note_on_c, 0, 82, 79
1, 54191, Note_on_c, 0, 82, 0
1, 54192, Note_on_c, 0, 81, 78
1, 54215, Note_on_c, 0, 81, 0
1, 54216, Note_on_c, 0, 79, 78
1, 54233, Note_on_c, 1, 55, 0
1, 54239, Note_on_c, 0, 79, 0
1, 54240, Note_on_c, 0, 77, 77
1, 54240, Note_on_c, 1, 57, 54
1, 54329, Note_on_c, 0, 77, 0
1, 54329, Note_on_c, 1, 57, 0
1, 54336, Note_on_c, 0, 77, 74
1, 54336, Note_on_c, 1, 45, 54
1, 54349, Note_on_c, 0, 77, 0
1, 54350, Note_on_c, 0, 76, 74
1, 54363, Note_on_c, 0, 76, 0
1, 54364, Note_on_c, 0, 77, 74
1, 54377, Note_on_c, 0, 77, 0
1, 54378, Note_on_c, 0, 76, 73
1, 54391, Note_on_c, 0, 76, 0
1, 54392, Note_on_c, 0, 77, 73
1, 54405, Note_on_c, 0, 77, 0
1, 54406, Note_on_c, 0, 74, 73
1, 54418, Note_on_c, 0, 74, 0
1, 54419, Note_on_c, 0, 76, 72
1, 54425, Note_on_c, 1, 45, 0
1, 54431, Note_on_c, 0, 76, 0
1, 54432, Note_on_c, 0, 74, 72
1, 54432, Note_on_c, 1, 50, 54
1, 54521, Note_on_c, 1, 50, 0
1, 54528, Note_on_c, 1, 38, 54
1, 54609, Note_on_c, 0, 74, 0
1, 54617, Note_on_c, 1, 38, 0
1, 54624, Note_on_c, 0, 82, 72
1, 54647, Note_on_c, 0, 82, 0
1, 54648, Note_on_c, 0, 81, 72
1, 54671, Note_on_c, 0, 81, 0
1, 54672, Note_on_c, 0, 79, 72
1, 54695, Note_on_c, 0, 79, 0
1, 54696, Note_on_c, 0, 77, 72
1, 54719, Note_on_c, 0, 77, 0
1, 54720, Note_on_c, 0, 84, 88
1, 54816, Note_on_c, 1, 72, 54
1, 54816, Note_on_c, 1, 69, 54
1, 54839, Note_on_c, 0, 84, 0
1, 54840, Note_on_c, 0, 75, 72
1, 54863, Note_on_c, 0, 75, 0
1, 54864, Note_on_c, 0, 74, 72
1, 54887, Note_on_c, 0, 74, 0
1, 54888, Note_on_c, 0, 75, 72
1, 54905, Note_on_c, 1, 72, 0
1, 54905, Note_on_c, 1, 69, 0
1, 54911, Note_on_c, 0, 75, 0
1, 54912, Note_on_c, 0, 77, 72
1, 54912, Note_on_c, 1, 70, 54
1, 54912, Note_on_c, 1, 67, 54
1, 54935, Note_on_c, 0, 77, 0
1, 54936, Note_on_c, 0, 75, 72
1, 54959, Note_on_c, 0, 75, 0
1, 54960, Note_on_c, 0, 74, 72
1, 54983, Note_on_c, 0, 74, 0
1, 54984, Note_on_c, 0, 75, 72
1, 55001, Note_on_c, 1, 70, 0
1, 55001, Note_on_c, 1, 67, 0
1, 55007, Note_on_c, 0, 75, 0
1, 55008, Note_on_c, 0, 74, 72
1, 55008, Note_on_c, 1, 69, 54
1, 55008, Note_on_c, 1, 66, 54
1, 55031, Note_on_c, 0, 74, 0
1, 55032, Note_on_c, 0, 81, 72
1, 55055, Note_on_c, 0, 81, 0
1, 55056, Note_on_c, 0, 82, 72
1, 55079, Note_on_c, 0, 82, 0
1, 55080, Note_on_c, 0, 81, 72
1, 55103, Note_on_c, 0, 81, 0
1, 55104, Note_on_c, 0, 86, 72
1, 55127, Note_on_c, 0, 86, 0
1, 55128, Note_on_c, 0, 84, 72
1, 55151, Note_on_c, 0, 84, 0
1, 55152, Note_on_c, 0, 82, 72
1, 55175, Note_on_c, 0, 82, 0
1, 55176, Note_on_c, 0, 81, 72
1, 55185, Note_on_c, 1, 69, 0
1, 55185, Note_on_c, 1, 66, 0
1, 55199, Note_on_c, 0, 81, 0
1, 55200, Note_on_c, 0, 82, 72
1, 55200, Note_on_c, 1, 74, 54
1, 55200, Note_on_c, 1, 67, 54
1, 55223, Note_on_c, 0, 82, 0
1, 55224, Note_on_c, 0, 79, 72
1, 55247, Note_on_c, 0, 79, 0
1, 55248, Note_on_c, 0, 81, 72
1, 55271, Note_on_c, 0, 81, 0
1, 55272, Note_on_c, 0, 82, 72
1, 55289, Note_on_c, 1, 74, 0
1, 55289, Note_on_c, 1, 67, 0
1, 55295, Note_on_c, 0, 82, 0
1, 55296, Note_on_c, 0, 84, 72
1, 55296, Note_on_c, 1, 64, 54
1, 55296, Note_on_c, 1, 72, 72
1, 55319, Note_on_c, 0, 84, 0
1, 55320, Note_on_c, 0, 82, 72
1, 55343, Note_on_c, 0, 82, 0
1, 55344, Note_on_c, 0, 81, 72
1, 55367, Note_on_c, 0, 81, 0
1, 55368, Note_on_c, 0, 79, 72
1, 55385, Note_on_c, 1, 64, 0
1, 55391, Note_on_c, 0, 79, 0
1, 55392, Note_on_c, 0, 81, 72
1, 55392, Note_on_c, 1, 65, 54
1, 55415, Note_on_c, 0, 81, 0
1, 55416, Note_on_c, 0, 77, 72
1, 55439, Note_on_c, 0, 77, 0
1, 55440, Note_on_c, 0, 76, 72
1, 55463, Note_on_c, 0, 76, 0
1, 55464, Note_on_c, 0, 74, 72
1, 55473, Note_on_c, 1, 72, 0
1, 55481, Note_on_c, 1, 65, 0
1, 55487, Note_on_c, 0, 74, 0
1, 55488, Note_on_c, 0, 82, 72
1, 55488, Note_on_c, 1, 67, 54
1, 55488, Note_on_c, 1, 55, 54
1, 55511, Note_on_c, 0, 82, 0
1, 55512, Note_on_c, 0, 79, 72
1, 55535, Note_on_c, 0, 79, 0
1, 55536, Note_on_c, 0, 77, 72
1, 55559, Note_on_c, 0, 77, 0
1, 55560, Note_on_c, 0, 76, 72
1, 55577, Note_on_c, 1, 67, 0
1, 55577, Note_on_c, 1, 55, 0
1, 55583, Note_on_c, 0, 76, 0
1, 55584, Note_on_c, 0, 74, 72
1, 55584, Note_on_c, 1, 64, 54
1, 55584, Note_on_c, 1, 57, 54
1, 55680, Note_on_c, 0, 74, 0
1, 55680, Note_on_c, 0, 73, 72
1, 55761, Note_on_c, 1, 64, 0
1, 55761, Note_on_c, 1, 57, 0
1, 55769, Note_on_c, 0, 73, 0
1, 55776, Note_on_c, 0, 69, 72
1, 55799, Note_on_c, 0, 69, 0
1, 55800, Note_on_c, 0, 67, 72
1, 55823, Note_on_c, 0, 67, 0
1, 55824, Note_on_c, 0, 65, 72
1, 55847, Note_on_c, 0, 65, 0
1, 55848, Note_on_c, 0, 64, 72
1, 55871, Note_on_c, 0, 64, 0
1, 55872, Note_on_c, 0, 79, 72
1, 55968, Note_on_c, 1, 61, 54
1, 55968, Note_on_c, 1, 58, 54
1, 55991, Note_on_c, 0, 79, 0
1, 55992, Note_on_c, 0, 81, 72
1, 56015, Note_on_c, 0, 81, 0
1, 56016, Note_on_c, 0, 79, 72
1, 56039, Note_on_c, 0, 79, 0
1, 56040, Note_on_c, 0, 76, 73
1, 56057, Note_on_c, 1, 61, 0
1, 56057, Note_on_c, 1, 58, 0
1, 56063, Note_on_c, 0, 76, 0
1, 56064, Note_on_c, 0, 85, 73
1, 56064, Note_on_c, 1, 58, 54
1, 56064, Note_on_c, 1, 55, 54
1, 56087, Note_on_c, 0, 85, 0
1, 56088, Note_on_c, 0, 86, 74
1, 56111, Note_on_c, 0, 86, 0
1, 56112, Note_on_c, 0, 85, 74
1, 56135, Note_on_c, 0, 85, 0
1, 56136, Note_on_c, 0, 82, 75
1, 56153, Note_on_c, 1, 58, 0
1, 56153, Note_on_c, 1, 55, 0
1, 56159, Note_on_c, 0, 82, 0
1, 56160, Note_on_c, 0, 86, 75
1, 56160, Note_on_c, 1, 62, 54
1, 56160, Note_on_c, 1, 57, 54
1, 56160, Note_on_c, 1, 53, 54
1, 56183, Note_on_c, 0, 86, 0
1, 56184, Note_on_c, 0, 88, 76
1, 56207, Note_on_c, 0, 88, 0
1, 56208, Note_on_c, 0, 86, 76
1, 56231, Note_on_c, 0, 86, 0
1, 56232, Note_on_c, 0, 81, 77
1, 56249, Note_on_c, 1, 62, 0
1, 56249, Note_on_c, 1, 57, 0
1, 56249, Note_on_c, 1, 53, 0
1, 56255, Note_on_c, 0, 81, 0
1, 56256, Note_on_c, 0, 88, 77
1, 56256, Note_on_c, 1, 61, 54
1, 56256, Note_on_c, 1, 55, 54
1, 56256, Note_on_c, 1, 52, 54
1, 56279, Note_on_c, 0, 88, 0
1, 56280, Note_on_c, 0, 89, 78
1, 56303, Note_on_c, 0, 89, 0
1, 56304, Note_on_c, 0, 88, 78
1, 56327, Note_on_c, 0, 88, 0
1, 56328, Note_on_c, 0, 81, 79
1, 56345, Note_on_c, 1, 61, 0
1, 56345, Note_on_c, 1, 55, 0
1, 56345, Note_on_c, 1, 52, 0
1, 56351, Note_on_c, 0, 81, 0
1, 56352, Note_on_c, 0, 89, 95
1, 56352, Note_on_c, 1, 62, 54
1, 56352, Note_on_c, 1, 53, 54
1, 56352, Note_on_c, 1, 50, 54
1, 56376, Note_on_c, 0, 89, 0
1, 56376, Note_on_c, 0, 86, 80
1, 56399, Note_on_c, 0, 86, 0
1, 56400, Note_on_c, 0, 85, 80
1, 56423, Note_on_c, 0, 85, 0
1, 56424, Note_on_c, 0, 86, 80
1, 56441, Note_on_c, 1, 62, 0
1, 56441, Note_on_c, 1, 53, 0
1, 56441, Note_on_c, 1, 50, 0
1, 56447, Note_on_c, 0, 86, 0
1, 56448, Note_on_c, 0, 84, 80
1, 56448, Note_on_c, 1, 55, 54
1, 56471, Note_on_c, 0, 84, 0
1, 56472, Note_on_c, 0, 82, 79
1, 56495, Note_on_c, 0, 82, 0
1, 56496, Note_on_c, 0, 81, 78
1, 56519, Note_on_c, 0, 81, 0
1, 56520, Note_on_c, 0, 79, 78
1, 56537, Note_on_c, 1, 55, 0
1, 56543, Note_on_c, 0, 79, 0
1, 56544, Note_on_c, 0, 77, 77
1, 56544, Note_on_c, 1, 57, 54
1, 56633, Note_on_c, 0, 77, 0
1, 56633, Note_on_c, 1, 57, 0
1, 56640, Note_on_c, 0, 77, 74
1, 56640, Note_on_c, 1, 45, 54
1, 56653, Note_on_c, 0, 77, 0
1, 56654, Note_on_c, 0, 76, 74
1, 56667, Note_on_c, 0, 76, 0
1, 56668, Note_on_c, 0, 77, 74
1, 56681, Note_on_c, 0, 77, 0
1, 56682, Note_on_c, 0, 76, 73
1, 56695, Note_on_c, 0, 76, 0
1, 56696, Note_on_c, 0, 77, 73
1, 56709, Note_on_c, 0, 77, 0
1, 56710, Note_on_c, 0, 74, 73
1, 56722, Note_on_c, 0, 74, 0
1, 56723, Note_on_c, 0, 76, 72
1, 56729, Note_on_c, 1, 45, 0
1, 56735, Note_on_c, 0, 76, 0
1, 56736, Note_on_c, 0, 74, 72
1, 56736, Note_on_c, 1, 50, 54
1, 56825, Note_on_c, 1, 50, 0
1, 56832, Note_on_c, 1, 38, 54
1, 56913, Note_on_c, 0, 74, 0
1, 56921, Note_on_c, 1, 38, 0
1, 56928, Note_on_c, 0, 69, 72
1, 56995, Note_on_c, 0, 69, 0
1, 57000, Note_on_c, 0, 66, 72
1, 57023, Note_on_c, 0, 66, 0
1, 57024, Note_on_c, 0, 74, 72
1, 57024, Note_on_c, 1, 62, 72
1, 57113, Note_on_c, 0, 74, 0
1, 57113, Note_on_c, 1, 62, 0
1, 57120, Note_on_c, 0, 74, 72
1, 57120, Note_on_c, 1, 66, 72
1, 57209, Note_on_c, 0, 74, 0
1, 57209, Note_on_c, 1, 66, 0
1, 57216, Note_on_c, 0, 76, 72
1, 57216, Note_on_c, 1, 62, 72
1, 57240, Note_on_c, 0, 76, 0
1, 57240, Note_on_c, 0, 74, 72
1, 57264, Note_on_c, 0, 74, 0
1, 57264, Note_on_c, 0, 73, 72
1, 57288, Note_on_c, 0, 73, 0
1, 57288, Note_on_c, 0, 74, 72
1, 57305, Note_on_c, 1, 62, 0
1, 57312, Note_on_c, 0, 74, 0
1, 57312, Note_on_c, 0, 73, 72
1, 57312, Note_on_c, 1, 69, 72
1, 57379, Note_on_c, 0, 73, 0
1, 57384, Note_on_c, 0, 76, 72
1, 57401, Note_on_c, 1, 69, 0
1, 57407, Note_on_c, 0, 76, 0
1, 57408, Note_on_c, 0, 79, 88
1, 57408, Note_on_c, 1, 57, 72
1, 57497, Note_on_c, 1, 57, 0
1, 57504, Note_on_c, 1, 61, 72
1, 57576, Note_on_c, 0, 79, 0
1, 57576, Note_on_c, 0, 76, 72
1, 57593, Note_on_c, 1, 61, 0
1, 57599, Note_on_c, 0, 76, 0
1, 57600, Note_on_c, 0, 78, 72
1, 57600, Note_on_c, 1, 62, 72
1, 57667, Note_on_c, 0, 78, 0
1, 57672, Note_on_c, 0, 74, 74
1, 57689, Note_on_c, 1, 62, 0
1, 57695, Note_on_c, 0, 74, 0
1, 57696, Note_on_c, 0, 81, 74
1, 57696, Note_on_c, 1, 66, 72
1, 57763, Note_on_c, 0, 81, 0
1, 57768, Note_on_c, 0, 78, 77
1, 57785, Note_on_c, 1, 66, 0
1, 57791, Note_on_c, 0, 78, 0
1, 57792, Note_on_c, 0, 83, 77
1, 57792, Note_on_c, 1, 67, 72
1, 57859, Note_on_c, 0, 83, 0
1, 57864, Note_on_c, 0, 79, 80
1, 57881, Note_on_c, 1, 67, 0
1, 57887, Note_on_c, 0, 79, 0
1, 57888, Note_on_c, 0, 78, 79
1, 57888, Note_on_c, 1, 69, 72
1, 57977, Note_on_c, 1, 69, 0
1, 57984, Note_on_c, 0, 78, 0
1, 57984, Note_on_c, 0, 76, 75
1, 57984, Note_on_c, 1, 57, 72
1, 58073, Note_on_c, 0, 76, 0
1, 58073, Note_on_c, 1, 57, 0
1, 58080, Note_on_c, 0, 69, 72
1, 58147, Note_on_c, 0, 69, 0
1, 58152, Note_on_c, 0, 66, 72
1, 58175, Note_on_c, 0, 66, 0
1, 58176, Note_on_c, 0, 74, 72
1, 58176, Note_on_c, 1, 62, 72
1, 58265, Note_on_c, 0, 74, 0
1, 58265, Note_on_c, 1, 62, 0
1, 58272, Note_on_c, 0, 74, 72
1, 58272, Note_on_c, 1, 66, 72
1, 58361, Note_on_c, 0, 74, 0
1, 58361, Note_on_c, 1, 66, 0
1, 58368, Note_on_c, 0, 76, 72
1, 58368, Note_on_c, 1, 62, 72
1, 58392, Note_on_c, 0, 76, 0
1, 58392, Note_on_c, 0, 74, 72
1, 58416, Note_on_c, 0, 74, 0
1, 58416, Note_on_c, 0, 73, 72
1, 58440, Note_on_c, 0, 73, 0
1, 58440, Note_on_c, 0, 74, 72
1, 58457, Note_on_c, 1, 62, 0
1, 58464, Note_on_c, 0, 74, 0
1, 58464, Note_on_c, 0, 73, 72
1, 58464, Note_on_c, 1, 69, 72
1, 58531, Note_on_c, 0, 73, 0
1, 58536, Note_on_c, 0, 76, 78
1, 58553, Note_on_c, 1, 69, 0
1, 58559, Note_on_c, 0, 76, 0
1, 58560, Note_on_c, 0, 79, 80
1, 58560, Note_on_c, 1, 61, 72
1, 58627, Note_on_c, 0, 79, 0
1, 58632, Note_on_c, 0, 76, 77
1, 58649, Note_on_c, 1, 61, 0
1, 58655, Note_on_c, 0, 76, 0
1, 58656, Note_on_c, 0, 78, 76
1, 58656, Note_on_c, 1, 62, 72
1, 58723, Note_on_c, 0, 78, 0
1, 58728, Note_on_c, 0, 74, 73
1, 58745, Note_on_c, 1, 62, 0
1, 58751, Note_on_c, 0, 74, 0
1, 58752, Note_on_c, 0, 71, 72
1, 58752, Note_on_c, 1, 67, 72
1, 58752, Note_on_c, 1, 55, 72
1, 58841, Note_on_c, 0, 71, 0
1, 58848, Note_on_c, 0, 76, 72
1, 58929, Note_on_c, 1, 67, 0
1, 58929, Note_on_c, 1, 55, 0
1, 58937, Note_on_c, 0, 76, 0
1, 58944, Note_on_c, 0, 74, 72
1, 58944, Note_on_c, 0, 67, 64
1, 58944, Note_on_c, 1, 64, 72
1, 58944, Note_on_c, 1, 57, 72
1, 58968, Note_on_c, 0, 74, 0
1, 58968, Note_on_c, 0, 73, 72
1, 58992, Note_on_c, 0, 73, 0
1, 58992, Note_on_c, 0, 71, 72
1, 59016, Note_on_c, 0, 71, 0
1, 59016, Note_on_c, 0, 73, 72
1, 59033, Note_on_c, 0, 67, 0
1, 59033, Note_on_c, 1, 64, 0
1, 59033, Note_on_c, 1, 57, 0
1, 59040, Note_on_c, 0, 73, 0
1, 59040, Note_on_c, 0, 74, 72
1, 59040, Note_on_c, 0, 66, 72
1, 59040, Note_on_c, 1, 62, 72
1, 59129, Note_on_c, 0, 74, 0
1, 59129, Note_on_c, 0, 66, 0
1, 59129, Note_on_c, 1, 62, 0
1, 59136, Note_on_c, 1, 50, 72
1, 59225, Note_on_c, 1, 50, 0
1, 59232, Note_on_c, 0, 66, 72
1, 59255, Note_on_c, 0, 66, 0
1, 59256, Note_on_c, 0, 62, 72
1, 59279, Note_on_c, 0, 62, 0
1, 59280, Note_on_c, 0, 69, 72
1, 59303, Note_on_c, 0, 69, 0
1, 59304, Note_on_c, 0, 66, 72
1, 59327, Note_on_c, 0, 66, 0
1, 59328, Note_on_c, 0, 74, 72
1, 59351, Note_on_c, 0, 74, 0
1, 59352, Note_on_c, 0, 69, 72
1, 59375, Note_on_c, 0, 69, 0
1, 59376, Note_on_c, 0, 71, 72
1, 59399, Note_on_c, 0, 71, 0
1, 59400, Note_on_c, 0, 73, 72
1, 59423, Note_on_c, 0, 73, 0
1, 59424, Note_on_c, 0, 74, 72
1, 59424, Note_on_c, 1, 66, 72
1, 59447, Note_on_c, 0, 74, 0
1, 59448, Note_on_c, 0, 76, 72
1, 59471, Note_on_c, 0, 76, 0
1, 59472, Note_on_c, 0, 78, 72
1, 59495, Note_on_c, 0, 78, 0
1, 59496, Note_on_c, 0, 79, 72
1, 59513, Note_on_c, 1, 66, 0
1, 59519, Note_on_c, 0, 79, 0
1, 59520, Note_on_c, 0, 81, 72
1, 59520, Note_on_c, 1, 62, 72
1, 59543, Note_on_c, 0, 81, 0
1, 59544, Note_on_c, 0, 78, 72
1, 59567, Note_on_c, 0, 78, 0
1, 59568, Note_on_c, 0, 76, 72
1, 59591, Note_on_c, 0, 76, 0
1, 59592, Note_on_c, 0, 74, 72
1, 59609, Note_on_c, 1, 62, 0
1, 59615, Note_on_c, 0, 74, 0
1, 59616, Note_on_c, 0, 73, 72
1, 59616, Note_on_c, 1, 64, 72
1, 59639, Note_on_c, 0, 73, 0
1, 59640, Note_on_c, 0, 74, 72
1, 59663, Note_on_c, 0, 74, 0
1, 59664, Note_on_c, 0, 76, 72
1, 59687, Note_on_c, 0, 76, 0
1, 59688, Note_on_c, 0, 78, 72
1, 59705, Note_on_c, 1, 64, 0
1, 59711, Note_on_c, 0, 78, 0
1, 59712, Note_on_c, 0, 79, 72
1, 59712, Note_on_c, 1, 61, 72
1, 59735, Note_on_c, 0, 79, 0
1, 59736, Note_on_c, 0, 76, 72
1, 59759, Note_on_c, 0, 76, 0
1, 59760, Note_on_c, 0, 79, 72
1, 59783, Note_on_c, 0, 79, 0
1, 59784, Note_on_c, 0, 81, 72
1, 59801, Note_on_c, 1, 61, 0
1, 59807, Note_on_c, 0, 81, 0
1, 59808, Note_on_c, 0, 83, 72
1, 59808, Note_on_c, 1, 57, 72
1, 59831, Note_on_c, 0, 83, 0
1, 59832, Note_on_c, 0, 79, 72
1, 59855, Note_on_c, 0, 79, 0
1, 59856, Note_on_c, 0, 78, 72
1, 59879, Note_on_c, 0, 78, 0
1, 59880, Note_on_c, 0, 76, 72
1, 59897, Note_on_c, 1, 57, 0
1, 59903, Note_on_c, 0, 76, 0
1, 59904, Note_on_c, 0, 78, 72
1, 59904, Note_on_c, 1, 62, 72
1, 59927, Note_on_c, 0, 78, 0
1, 59928, Note_on_c, 0, 74, 72
1, 59951, Note_on_c, 0, 74, 0
1, 59952, Note_on_c, 0, 76, 73
1, 59975, Note_on_c, 0, 76, 0
1, 59976, Note_on_c, 0, 78, 74
1, 59993, Note_on_c, 1, 62, 0
1, 59999, Note_on_c, 0, 78, 0
1, 60000, Note_on_c, 0, 79, 75
1, 60000, Note_on_c, 1, 59, 72
1, 60023, Note_on_c, 0, 79, 0
1, 60024, Note_on_c, 0, 81, 76
1, 60047, Note_on_c, 0, 81, 0
1, 60048, Note_on_c, 0, 83, 77
1, 60071, Note_on_c, 0, 83, 0
1, 60072, Note_on_c, 0, 85, 78
1, 60089, Note_on_c, 1, 59, 0
1, 60095, Note_on_c, 0, 85, 0
1, 60096, Note_on_c, 0, 86, 79
1, 60096, Note_on_c, 1, 55, 72
1, 60119, Note_on_c, 0, 86, 0
1, 60120, Note_on_c, 0, 83, 80
1, 60143, Note_on_c, 0, 83, 0
1, 60144, Note_on_c, 0, 81, 80
1, 60167, Note_on_c, 0, 81, 0
1, 60168, Note_on_c, 0, 79, 80
1, 60185, Note_on_c, 1, 55, 0
1, 60191, Note_on_c, 0, 79, 0
1, 60192, Note_on_c, 0, 78, 79
1, 60192, Note_on_c, 0, 74, 79
1, 60192, Note_on_c, 1, 57, 72
1, 60281, Note_on_c, 1, 57, 0
1, 60288, Note_on_c, 0, 78, 0
1, 60288, Note_on_c, 0, 74, 0
1, 60288, Note_on_c, 0, 76, 75
1, 60288, Note_on_c, 0, 73, 75
1, 60288, Note_on_c, 1, 45, 72
1, 60377, Note_on_c, 0, 76, 0
1, 60377, Note_on_c, 0, 73, 0
1, 60377, Note_on_c, 1, 45, 0
1, 60384, Note_on_c, 0, 66, 72
1, 60407, Note_on_c, 0, 66, 0
1, 60408, Note_on_c, 0, 62, 72
1, 60431, Note_on_c, 0, 62, 0
1, 60432, Note_on_c, 0, 69, 72
1, 60455, Note_on_c, 0, 69, 0
1, 60456, Note_on_c, 0, 66, 72
1, 60479, Note_on_c, 0, 66, 0
1, 60480, Note_on_c, 0, 74, 72
1, 60503, Note_on_c, 0, 74, 0
1, 60504, Note_on_c, 0, 69, 72
1, 60527, Note_on_c, 0, 69, 0
1, 60528, Note_on_c, 0, 71, 72
1, 60551, Note_on_c, 0, 71, 0
1, 60552, Note_on_c, 0, 73, 72
1, 60575, Note_on_c, 0, 73, 0
1, 60576, Note_on_c, 0, 74, 72
1, 60576, Note_on_c, 1, 66, 72
1, 60599, Note_on_c, 0, 74, 0
1, 60600, Note_on_c, 0, 76, 72
1, 60623, Note_on_c, 0, 76, 0
1, 60624, Note_on_c, 0, 78, 72
1, 60647, Note_on_c, 0, 78, 0
1, 60648, Note_on_c, 0, 79, 72
1, 60665, Note_on_c, 1, 66, 0
1, 60671, Note_on_c, 0, 79, 0
1, 60672, Note_on_c, 0, 81, 72
1, 60672, Note_on_c, 1, 62, 72
1, 60695, Note_on_c, 0, 81, 0
1, 60696, Note_on_c, 0, 78, 72
1, 60719, Note_on_c, 0, 78, 0
1, 60720, Note_on_c, 0, 76, 72
1, 60743, Note_on_c, 0, 76, 0
1, 60744, Note_on_c, 0, 74, 72
1, 60761, Note_on_c, 1, 62, 0
1, 60767, Note_on_c, 0, 74, 0
1, 60768, Note_on_c, 0, 73, 72
1, 60768, Note_on_c, 1, 64, 72
1, 60791, Note_on_c, 0, 73, 0
1, 60792, Note_on_c, 0, 74, 73
1, 60815, Note_on_c, 0, 74, 0
1, 60816, Note_on_c, 0, 76, 74
1, 60839, Note_on_c, 0, 76, 0
1, 60840, Note_on_c, 0, 78, 76
1, 60857, Note_on_c, 1, 64, 0
1, 60863, Note_on_c, 0, 78, 0
1, 60864, Note_on_c, 0, 79, 77
1, 60864, Note_on_c, 1, 57, 72
1, 60887, Note_on_c, 0, 79, 0
1, 60888, Note_on_c, 0, 78, 78
1, 60911, Note_on_c, 0, 78, 0
1, 60912, Note_on_c, 0, 76, 80
1, 60935, Note_on_c, 0, 76, 0
1, 60936, Note_on_c, 0, 74, 78
1, 60953, Note_on_c, 1, 57, 0
1, 60959, Note_on_c, 0, 74, 0
1, 60960, Note_on_c, 0, 73, 77
1, 60960, Note_on_c, 1, 61, 72
1, 60983, Note_on_c, 0, 73, 0
1, 60984, Note_on_c, 0, 71, 76
1, 61007, Note_on_c, 0, 71, 0
1, 61008, Note_on_c, 0, 69, 74
1, 61031, Note_on_c, 0, 69, 0
1, 61032, Note_on_c, 0, 67, 73
1, 61049, Note_on_c, 1, 61, 0
1, 61055, Note_on_c, 0, 67, 0
1, 61056, Note_on_c, 0, 66, 72
1, 61056, Note_on_c, 1, 62, 72
1, 61079, Note_on_c, 0, 66, 0
1, 61080, Note_on_c, 0, 69, 72
1, 61103, Note_on_c, 0, 69, 0
1, 61104, Note_on_c, 0, 67, 72
1, 61127, Note_on_c, 0, 67, 0
1, 61128, Note_on_c, 0, 66, 72
1, 61145, Note_on_c, 1, 62, 0
1, 61151, Note_on_c, 0, 66, 0
1, 61152, Note_on_c, 0, 64, 72
1, 61152, Note_on_c, 1, 55, 72
1, 61175, Note_on_c, 0, 64, 0
1, 61176, Note_on_c, 0, 71, 72
1, 61199, Note_on_c, 0, 71, 0
1, 61200, Note_on_c, 0, 69, 72
1, 61223, Note_on_c, 0, 69, 0
1, 61224, Note_on_c, 0, 67, 72
1, 61241, Note_on_c, 1, 55, 0
1, 61247, Note_on_c, 0, 67, 0
1, 61248, Note_on_c, 0, 66, 72
1, 61248, Note_on_c, 1, 57, 72
1, 61248, Note_on_c, 1, 45, 72
1, 61271, Note_on_c, 0, 66, 0
1, 61272, Note_on_c, 0, 64, 72
1, 61295, Note_on_c, 0, 64, 0
1, 61296, Note_on_c, 0, 62, 72
1, 61319, Note_on_c, 0, 62, 0
1, 61320, Note_on_c, 0, 61, 72
1, 61337, Note_on_c, 1, 57, 0
1, 61337, Note_on_c, 1, 45, 0
1, 61343, Note_on_c, 0, 61, 0
1, 61344, Note_on_c, 0, 62, 72
1, 61344, Note_on_c, 1, 50, 72
1, 61433, Note_on_c, 0, 62, 0
1, 61433, Note_on_c, 1, 50, 0
1, 61440, Note_on_c, 1, 38, 72
1, 61529, Note_on_c, 1, 38, 0
1, 61536, Note_on_c, 0, 78, 72
1, 61559, Note_on_c, 0, 78, 0
1, 61560, Note_on_c, 0, 74, 72
1, 61583, Note_on_c, 0, 74, 0
1, 61584, Note_on_c, 0, 81, 72
1, 61607, Note_on_c, 0, 81, 0
1, 61608, Note_on_c, 0, 78, 72
1, 61631, Note_on_c, 0, 78, 0
1, 61632, Note_on_c, 0, 86, 72
1, 61655, Note_on_c, 0, 86, 0
1, 61656, Note_on_c, 0, 81, 72
1, 61679, Note_on_c, 0, 81, 0
1, 61680, Note_on_c, 0, 78, 72
1, 61703, Note_on_c, 0, 78, 0
1, 61704, Note_on_c, 0, 74, 72
1, 61727, Note_on_c, 0, 74, 0
1, 61728, Note_on_c, 0, 71, 64
1, 61751, Note_on_c, 0, 71, 0
1, 61752, Note_on_c, 0, 74, 64
1, 61775, Note_on_c, 0, 74, 0
1, 61776, Note_on_c, 0, 76, 63
1, 61799, Note_on_c, 0, 76, 0
1, 61800, Note_on_c, 0, 80, 63
1, 61823, Note_on_c, 0, 80, 0
1, 61824, Note_on_c, 0, 73, 64
1, 61847, Note_on_c, 0, 73, 0
1, 61848, Note_on_c, 0, 76, 64
1, 61871, Note_on_c, 0, 76, 0
1, 61872, Note_on_c, 0, 85, 63
1, 61895, Note_on_c, 0, 85, 0
1, 61896, Note_on_c, 0, 88, 63
1, 61919, Note_on_c, 0, 88, 0
1, 61920, Note_on_c, 0, 71, 64
1, 61943, Note_on_c, 0, 71, 0
1, 61944, Note_on_c, 0, 74, 64
1, 61967, Note_on_c, 0, 74, 0
1, 61968, Note_on_c, 0, 79, 63
1, 61991, Note_on_c, 0, 79, 0
1, 61992, Note_on_c, 0, 83, 63
1, 62015, Note_on_c, 0, 83, 0
1, 62016, Note_on_c, 0, 69, 64
1, 62039, Note_on_c, 0, 69, 0
1, 62040, Note_on_c, 0, 73, 64
1, 62063, Note_on_c, 0, 73, 0
1, 62064, Note_on_c, 0, 78, 63
1, 62087, Note_on_c, 0, 78, 0
1, 62088, Note_on_c, 0, 81, 63
1, 62111, Note_on_c, 0, 81, 0
1, 62112, Note_on_c, 0, 67, 64
1, 62135, Note_on_c, 0, 67, 0
1, 62136, Note_on_c, 0, 71, 64
1, 62159, Note_on_c, 0, 71, 0
1, 62160, Note_on_c, 0, 76, 63
1, 62183, Note_on_c, 0, 76, 0
1, 62184, Note_on_c, 0, 79, 63
1, 62207, Note_on_c, 0, 79, 0
1, 62208, Note_on_c, 0, 66, 64
1, 62231, Note_on_c, 0, 66, 0
1, 62232, Note_on_c, 0, 69, 64
1, 62255, Note_on_c, 0, 69, 0
1, 62256, Note_on_c, 0, 74, 63
1, 62279, Note_on_c, 0, 74, 0
1, 62280, Note_on_c, 0, 78, 63
1, 62303, Note_on_c, 0, 78, 0
1, 62304, Note_on_c, 0, 64, 64
1, 62327, Note_on_c, 0, 64, 0
1, 62328, Note_on_c, 0, 67, 64
1, 62351, Note_on_c, 0, 67, 0
1, 62352, Note_on_c, 0, 73, 63
1, 62375, Note_on_c, 0, 73, 0
1, 62376, Note_on_c, 0, 79, 63
1, 62399, Note_on_c, 0, 79, 0
1, 62400, Note_on_c, 0, 62, 64
1, 62423, Note_on_c, 0, 62, 0
1, 62424, Note_on_c, 0, 69, 64
1, 62447, Note_on_c, 0, 69, 0
1, 62448, Note_on_c, 0, 78, 63
1, 62471, Note_on_c, 0, 78, 0
1, 62472, Note_on_c, 0, 86, 63
1, 62495, Note_on_c, 0, 86, 0
1, 62496, Note_on_c, 0, 78, 72
1, 62496, Note_on_c, 0, 74, 72
1, 62496, Note_on_c, 1, 69, 63
1, 62585, Note_on_c, 1, 69, 0
1, 62592, Note_on_c, 0, 78, 0
1, 62592, Note_on_c, 0, 74, 0
1, 62592, Note_on_c, 0, 76, 63
1, 62592, Note_on_c, 0, 73, 63
1, 62592, Note_on_c, 1, 57, 63
1, 62681, Note_on_c, 0, 76, 0
1, 62681, Note_on_c, 0, 73, 0
1, 62681, Note_on_c, 1, 57, 0
1, 62688, Note_on_c, 0, 78, 72
1, 62711, Note_on_c, 0, 78, 0
1, 62712, Note_on_c, 0, 74, 72
1, 62735, Note_on_c, 0, 74, 0
1, 62736, Note_on_c, 0, 81, 72
1, 62759, Note_on_c, 0, 81, 0
1, 62760, Note_on_c, 0, 78, 72
1, 62783, Note_on_c, 0, 78, 0
1, 62784, Note_on_c, 0, 86, 72
1, 62807, Note_on_c, 0, 86, 0
1, 62808, Note_on_c, 0, 81, 72
1, 62831, Note_on_c, 0, 81, 0
1, 62832, Note_on_c, 0, 78, 72
1, 62855, Note_on_c, 0, 78, 0
1, 62856, Note_on_c, 0, 74, 72
1, 62879, Note_on_c, 0, 74, 0
1, 62880, Note_on_c, 0, 71, 64
1, 62903, Note_on_c, 0, 71, 0
1, 62904, Note_on_c, 0, 74, 64
1, 62927, Note_on_c, 0, 74, 0
1, 62928, Note_on_c, 0, 76, 63
1, 62951, Note_on_c, 0, 76, 0
1, 62952, Note_on_c, 0, 80, 63
1, 62975, Note_on_c, 0, 80, 0
1, 62976, Note_on_c, 0, 73, 64
1, 62999, Note_on_c, 0, 73, 0
1, 63000, Note_on_c, 0, 76, 64
1, 63023, Note_on_c, 0, 76, 0
1, 63024, Note_on_c, 0, 85, 63
1, 63047, Note_on_c, 0, 85, 0
1, 63048, Note_on_c, 0, 88, 63
1, 63071, Note_on_c, 0, 88, 0
1, 63072, Note_on_c, 0, 71, 64
1, 63095, Note_on_c, 0, 71, 0
1, 63096, Note_on_c, 0, 74, 64
1, 63119, Note_on_c, 0, 74, 0
1, 63120, Note_on_c, 0, 79, 63
1, 63143, Note_on_c, 0, 79, 0
1, 63144, Note_on_c, 0, 83, 63
1, 63167, Note_on_c, 0, 83, 0
1, 63168, Note_on_c, 0, 69, 64
1, 63191, Note_on_c, 0, 69, 0
1, 63192, Note_on_c, 0, 73, 64
1, 63215, Note_on_c, 0, 73, 0
1, 63216, Note_on_c, 0, 78, 63
1, 63239, Note_on_c, 0, 78, 0
1, 63240, Note_on_c, 0, 81, 63
1, 63263, Note_on_c, 0, 81, 0
1, 63264, Note_on_c, 0, 67, 64
1, 63287, Note_on_c, 0, 67, 0
1, 63288, Note_on_c, 0, 71, 64
1, 63311, Note_on_c, 0, 71, 0
1, 63312, Note_on_c, 0, 76, 63
1, 63335, Note_on_c, 0, 76, 0
1, 63336, Note_on_c, 0, 79, 63
1, 63359, Note_on_c, 0, 79, 0
1, 63360, Note_on_c, 0, 66, 64
1, 63383, Note_on_c, 0, 66, 0
1, 63384, Note_on_c, 0, 69, 64
1, 63407, Note_on_c, 0, 69, 0
1, 63408, Note_on_c, 0, 74, 63
1, 63431, Note_on_c, 0, 74, 0
1, 63432, Note_on_c, 0, 78, 63
1, 63455, Note_on_c, 0, 78, 0
1, 63456, Note_on_c, 0, 67, 64
1, 63479, Note_on_c, 0, 67, 0
1, 63480, Note_on_c, 0, 71, 64
1, 63503, Note_on_c, 0, 71, 0
1, 63504, Note_on_c, 0, 76, 63
1, 63527, Note_on_c, 0, 76, 0
1, 63528, Note_on_c, 0, 79, 63
1, 63551, Note_on_c, 0, 79, 0
1, 63552, Note_on_c, 0, 57, 64
1, 63575, Note_on_c, 0, 57, 0
1, 63576, Note_on_c, 0, 64, 64
1, 63599, Note_on_c, 0, 64, 0
1, 63600, Note_on_c, 0, 67, 63
1, 63623, Note_on_c, 0, 67, 0
1, 63624, Note_on_c, 0, 73, 63
1, 63647, Note_on_c, 0, 73, 0
1, 63648, Note_on_c, 0, 74, 63
1, 63648, Note_on_c, 0, 66, 63
1, 63648, Note_on_c, 1, 62, 63
1, 63737, Note_on_c, 0, 74, 0
1, 63737, Note_on_c, 0, 66, 0
1, 63737, Note_on_c, 1, 62, 0
1, 63744, Note_on_c, 1, 50, 63
1, 63833, Note_on_c, 1, 50, 0
1, 63840, Note_on_c, 0, 78, 72
1, 63863, Note_on_c, 0, 78, 0
1, 63864, Note_on_c, 0, 74, 72
1, 63887, Note_on_c, 0, 74, 0
1, 63888, Note_on_c, 0, 81, 72
1, 63911, Note_on_c, 0, 81, 0
1, 63912, Note_on_c, 0, 78, 72
1, 63935, Note_on_c, 0, 78, 0
1, 63936, Note_on_c, 0, 86, 72
1, 63959, Note_on_c, 0, 86, 0
1, 63960, Note_on_c, 0, 81, 72
1, 63983, Note_on_c, 0, 81, 0
1, 63984, Note_on_c, 0, 78, 72
1, 64007, Note_on_c, 0, 78, 0
1, 64008, Note_on_c, 0, 74, 72
1, 64031, Note_on_c, 0, 74, 0
1, 64032, Note_on_c, 0, 71, 64
1, 64055, Note_on_c, 0, 71, 0
1, 64056, Note_on_c, 0, 74, 64
1, 64079, Note_on_c, 0, 74, 0
1, 64080, Note_on_c, 0, 76, 63
1, 64103, Note_on_c, 0, 76, 0
1, 64104, Note_on_c, 0, 80, 63
1, 64127, Note_on_c, 0, 80, 0
1, 64128, Note_on_c, 0, 73, 64
1, 64151, Note_on_c, 0, 73, 0
1, 64152, Note_on_c, 0, 76, 64
1, 64175, Note_on_c, 0, 76, 0
1, 64176, Note_on_c, 0, 85, 63
1, 64199, Note_on_c, 0, 85, 0
1, 64200, Note_on_c, 0, 88, 63
1, 64223, Note_on_c, 0, 88, 0
1, 64224, Note_on_c, 0, 71, 64
1, 64247, Note_on_c, 0, 71, 0
1, 64248, Note_on_c, 0, 74, 64
1, 64271, Note_on_c, 0, 74, 0
1, 64272, Note_on_c, 0, 79, 63
1, 64295, Note_on_c, 0, 79, 0
1, 64296, Note_on_c, 0, 83, 63
1, 64319, Note_on_c, 0, 83, 0
1, 64320, Note_on_c, 0, 69, 64
1, 64343, Note_on_c, 0, 69, 0
1, 64344, Note_on_c, 0, 73, 64
1, 64367, Note_on_c, 0, 73, 0
1, 64368, Note_on_c, 0, 78, 63
1, 64391, Note_on_c, 0, 78, 0
1, 64392, Note_on_c, 0, 81, 63
1, 64415, Note_on_c, 0, 81, 0
1, 64416, Note_on_c, 0, 67, 64
1, 64439, Note_on_c, 0, 67, 0
1, 64440, Note_on_c, 0, 71, 64
1, 64463, Note_on_c, 0, 71, 0
1, 64464, Note_on_c, 0, 76, 63
1, 64487, Note_on_c, 0, 76, 0
1, 64488, Note_on_c, 0, 79, 63
1, 64511, Note_on_c, 0, 79, 0
1, 64512, Note_on_c, 0, 66, 64
1, 64535, Note_on_c, 0, 66, 0
1, 64536, Note_on_c, 0, 69, 64
1, 64559, Note_on_c, 0, 69, 0
1, 64560, Note_on_c, 0, 74, 63
1, 64583, Note_on_c, 0, 74, 0
1, 64584, Note_on_c, 0, 78, 63
1, 64607, Note_on_c, 0, 78, 0
1, 64608, Note_on_c, 0, 64, 64
1, 64631, Note_on_c, 0, 64, 0
1, 64632, Note_on_c, 0, 67, 64
1, 64655, Note_on_c, 0, 67, 0
1, 64656, Note_on_c, 0, 73, 63
1, 64679, Note_on_c, 0, 73, 0
1, 64680, Note_on_c, 0, 79, 63
1, 64703, Note_on_c, 0, 79, 0
1, 64704, Note_on_c, 0, 62, 64
1, 64727, Note_on_c, 0, 62, 0
1, 64728, Note_on_c, 0, 69, 64
1, 64751, Note_on_c, 0, 69, 0
1, 64752, Note_on_c, 0, 78, 63
1, 64775, Note_on_c, 0, 78, 0
1, 64776, Note_on_c, 0, 86, 63
1, 64799, Note_on_c, 0, 86, 0
1, 64800, Note_on_c, 0, 78, 72
1, 64800, Note_on_c, 0, 74, 72
1, 64800, Note_on_c, 1, 69, 63
1, 64889, Note_on_c, 1, 69, 0
1, 64896, Note_on_c, 0, 78, 0
1, 64896, Note_on_c, 0, 74, 0
1, 64896, Note_on_c, 0, 76, 63
1, 64896, Note_on_c, 0, 73, 63
1, 64896, Note_on_c, 1, 57, 63
1, 64985, Note_on_c, 0, 76, 0
1, 64985, Note_on_c, 0, 73, 0
1, 64985, Note_on_c, 1, 57, 0
1, 64992, Note_on_c, 0, 78, 72
1, 65015, Note_on_c, 0, 78, 0
1, 65016, Note_on_c, 0, 74, 72
1, 65039, Note_on_c, 0, 74, 0
1, 65040, Note_on_c, 0, 81, 72
1, 65063, Note_on_c, 0, 81, 0
1, 65064, Note_on_c, 0, 78, 72
1, 65087, Note_on_c, 0, 78, 0
1, 65088, Note_on_c, 0, 86, 72
1, 65111, Note_on_c, 0, 86, 0
1, 65112, Note_on_c, 0, 81, 72
1, 65135, Note_on_c, 0, 81, 0
1, 65136, Note_on_c, 0, 78, 72
1, 65159, Note_on_c, 0, 78, 0
1, 65160, Note_on_c, 0, 74, 72
1, 65183, Note_on_c, 0, 74, 0
1, 65184, Note_on_c, 0, 71, 64
1, 65207, Note_on_c, 0, 71, 0
1, 65208, Note_on_c, 0, 74, 64
1, 65231, Note_on_c, 0, 74, 0
1, 65232, Note_on_c, 0, 76, 63
1, 65255, Note_on_c, 0, 76, 0
1, 65256, Note_on_c, 0, 80, 63
1, 65279, Note_on_c, 0, 80, 0
1, 65280, Note_on_c, 0, 73, 64
1, 65303, Note_on_c, 0, 73, 0
1, 65304, Note_on_c, 0, 76, 64
1, 65327, Note_on_c, 0, 76, 0
1, 65328, Note_on_c, 0, 85, 63
1, 65351, Note_on_c, 0, 85, 0
1, 65352, Note_on_c, 0, 88, 63
1, 65375, Note_on_c, 0, 88, 0
1, 65376, Note_on_c, 0, 71, 64
1, 65399, Note_on_c, 0, 71, 0
1, 65400, Note_on_c, 0, 74, 64
1, 65423, Note_on_c, 0, 74, 0
1, 65424, Note_on_c, 0, 79, 63
1, 65447, Note_on_c, 0, 79, 0
1, 65448, Note_on_c, 0, 83, 63
1, 65471, Note_on_c, 0, 83, 0
1, 65472, Note_on_c, 0, 69, 64
1, 65495, Note_on_c, 0, 69, 0
1, 65496, Note_on_c, 0, 73, 64
1, 65519, Note_on_c, 0, 73, 0
1, 65520, Note_on_c, 0, 78, 63
1, 65543, Note_on_c, 0, 78, 0
1, 65544, Note_on_c, 0, 81, 63
1, 65567, Note_on_c, 0, 81, 0
1, 65568, Note_on_c, 0, 67, 64
1, 65591, Note_on_c, 0, 67, 0
1, 65592, Note_on_c, 0, 71, 64
1, 65615, Note_on_c, 0, 71, 0
1, 65616, Note_on_c, 0, 76, 63
1, 65639, Note_on_c, 0, 76, 0
1, 65640, Note_on_c, 0, 79, 63
1, 65663, Note_on_c, 0, 79, 0
1, 65664, Note_on_c, 0, 66, 64
1, 65687, Note_on_c, 0, 66, 0
1, 65688, Note_on_c, 0, 69, 64
1, 65711, Note_on_c, 0, 69, 0
1, 65712, Note_on_c, 0, 74, 63
1, 65735, Note_on_c, 0, 74, 0
1, 65736, Note_on_c, 0, 78, 63
1, 65759, Note_on_c, 0, 78, 0
1, 65760, Note_on_c, 0, 67, 64
1, 65783, Note_on_c, 0, 67, 0
1, 65784, Note_on_c, 0, 71, 64
1, 65807, Note_on_c, 0, 71, 0
1, 65808, Note_on_c, 0, 76, 63
1, 65831, Note_on_c, 0, 76, 0
1, 65832, Note_on_c, 0, 79, 63
1, 65855, Note_on_c, 0, 79, 0
1, 65856, Note_on_c, 0, 57, 64
1, 65879, Note_on_c, 0, 57, 0
1, 65880, Note_on_c, 0, 64, 64
1, 65903, Note_on_c, 0, 64, 0
1, 65904, Note_on_c, 0, 67, 63
1, 65927, Note_on_c, 0, 67, 0
1, 65928, Note_on_c, 0, 73, 63
1, 65951, Note_on_c, 0, 73, 0
1, 65952, Note_on_c, 0, 74, 63
1, 65952, Note_on_c, 0, 66, 63
1, 65952, Note_on_c, 1, 62, 63
1, 66041, Note_on_c, 0, 74, 0
1, 66041, Note_on_c, 0, 66, 0
1, 66041, Note_on_c, 1, 62, 0
1, 66048, Note_on_c, 1, 50, 63
1, 66137, Note_on_c, 1, 50, 0
1, 66144, Note_on_c, 1, 50, 4
1, 66233, Note_on_c, 1, 50, 0
1, 66243, End_track
0, 0, End_of_file