0, 0, Header, 0, 1, 96
1, 0, Start_track
1, 0, Tempo, 400000
1, 0, Note_on_c, 1, 59, 77
1, 0, Note_on_c, 1, 55, 77
1, 39, Note_on_c, 1, 59, 0
1, 39, Note_on_c, 1, 55, 0
1, 48, Note_on_c, 0, 79, 77
1, 96, Note_on_c, 0, 79, 0
1, 96, Note_on_c, 0, 67, 77
1, 141, Note_on_c, 0, 67, 0
1, 144, Note_on_c, 1, 64, 77
1, 144, Note_on_c, 1, 60, 77
1, 183, Note_on_c, 1, 64, 0
1, 183, Note_on_c, 1, 60, 0
1, 192, Note_on_c, 0, 79, 77
1, 215, Note_on_c, 0, 79, 0
1, 216, Note_on_c, 0, 81, 77
1, 239, Note_on_c, 0, 81, 0
1, 240, Note_on_c, 0, 79, 77
1, 260, Note_on_c, 0, 79, 0
1, 288, Note_on_c, 1, 62, 77
1, 288, Note_on_c, 1, 59, 77
1, 327, Note_on_c, 1, 62, 0
1, 327, Note_on_c, 1, 59, 0
1, 336, Note_on_c, 0, 79, 77
1, 384, Note_on_c, 0, 79, 0
1, 384, Note_on_c, 0, 67, 77
1, 429, Note_on_c, 0, 67, 0
1, 432, Note_on_c, 1, 60, 77
1, 432, Note_on_c, 1, 57, 77
1, 471, Note_on_c, 1, 60, 0
1, 471, Note_on_c, 1, 57, 0
1, 480, Note_on_c, 0, 79, 77
1, 503, Note_on_c, 0, 79, 0
1, 504, Note_on_c, 0, 81, 77
1, 527, Note_on_c, 0, 81, 0
1, 528, Note_on_c, 0, 79, 77
1, 548, Note_on_c, 0, 79, 0
1, 576, Note_on_c, 1, 59, 77
1, 576, Note_on_c, 1, 55, 77
1, 615, Note_on_c, 1, 59, 0
1, 615, Note_on_c, 1, 55, 0
1, 624, Note_on_c, 0, 79, 77
1, 672, Note_on_c, 0, 79, 0
1, 672, Note_on_c, 0, 67, 77
1, 717, Note_on_c, 0, 67, 0
1, 720, Note_on_c, 1, 59, 77
1, 720, Note_on_c, 1, 47, 77
1, 768, Note_on_c, 0, 78, 77
1, 791, Note_on_c, 0, 78, 0
1, 792, Note_on_c, 0, 79, 77
1, 815, Note_on_c, 0, 79, 0
1, 816, Note_on_c, 0, 83, 77
1, 839, Note_on_c, 0, 83, 0
1, 840, Note_on_c, 0, 79, 77
1, 853, Note_on_c, 1, 59, 0
1, 853, Note_on_c, 1, 47, 0
1, 863, Note_on_c, 0, 79, 0
1, 864, Note_on_c, 0, 76, 77
1, 864, Note_on_c, 1, 60, 77
1, 864, Note_on_c, 1, 48, 77
1, 884, Note_on_c, 0, 76, 0
1, 912, Note_on_c, 0, 80, 77
1, 935, Note_on_c, 0, 80, 0
1, 936, Note_on_c, 0, 81, 77
1, 959, Note_on_c, 0, 81, 0
1, 960, Note_on_c, 0, 84, 77
1, 983, Note_on_c, 0, 84, 0
1, 984, Note_on_c, 0, 81, 77
1, 997, Note_on_c, 1, 60, 0
1, 997, Note_on_c, 1, 48, 0
1, 1007, Note_on_c, 0, 81, 0
1, 1008, Note_on_c, 0, 74, 77
1, 1008, Note_on_c, 1, 62, 77
1, 1008, Note_on_c, 1, 50, 77
1, 1053, Note_on_c, 0, 74, 0
1, 1056, Note_on_c, 0, 86, 77
1, 1056, Note_on_c, 0, 74, 77
1, 1101, Note_on_c, 0, 86, 0
1, 1101, Note_on_c, 0, 74, 0
1, 1104, Note_on_c, 0, 84, 77
1, 1104, Note_on_c, 0, 72, 77
1, 1141, Note_on_c, 1, 62, 0
1, 1141, Note_on_c, 1, 50, 0
1, 1149, Note_on_c, 0, 84, 0
1, 1149, Note_on_c, 0, 72, 0
1, 1152, Note_on_c, 0, 84, 77
1, 1152, Note_on_c, 0, 72, 77
1, 1152, Note_on_c, 1, 55, 77
1, 1152, Note_on_c, 1, 43, 77
1, 1197, Note_on_c, 0, 84, 0
1, 1197, Note_on_c, 0, 72, 0
1, 1200, Note_on_c, 0, 83, 77
1, 1200, Note_on_c, 0, 71, 77
1, 1245, Note_on_c, 0, 83, 0
1, 1245, Note_on_c, 0, 71, 0
1, 1248, Note_on_c, 0, 81, 77
1, 1248, Note_on_c, 0, 69, 77
1, 1285, Note_on_c, 1, 55, 0
1, 1285, Note_on_c, 1, 43, 0
1, 1293, Note_on_c, 0, 81, 0
1, 1293, Note_on_c, 0, 69, 0
1, 1296, Note_on_c, 0, 67, 77
1, 1296, Note_on_c, 1, 59, 77
1, 1296, Note_on_c, 1, 47, 77
1, 1316, Note_on_c, 0, 67, 0
1, 1344, Note_on_c, 0, 78, 77
1, 1367, Note_on_c, 0, 78, 0
1, 1368, Note_on_c, 0, 79, 77
1, 1391, Note_on_c, 0, 79, 0
1, 1392, Note_on_c, 0, 83, 77
1, 1415, Note_on_c, 0, 83, 0
1, 1416, Note_on_c, 0, 79, 77
1, 1429, Note_on_c, 1, 59, 0
1, 1429, Note_on_c, 1, 47, 0
1, 1439, Note_on_c, 0, 79, 0
1, 1440, Note_on_c, 0, 76, 77
1, 1440, Note_on_c, 1, 60, 77
1, 1440, Note_on_c, 1, 48, 77
1, 1460, Note_on_c, 0, 76, 0
1, 1488, Note_on_c, 0, 80, 77
1, 1511, Note_on_c, 0, 80, 0
1, 1512, Note_on_c, 0, 81, 77
1, 1535, Note_on_c, 0, 81, 0
1, 1536, Note_on_c, 0, 84, 77
1, 1559, Note_on_c, 0, 84, 0
1, 1560, Note_on_c, 0, 81, 77
1, 1573, Note_on_c, 1, 60, 0
1, 1573, Note_on_c, 1, 48, 0
1, 1583, Note_on_c, 0, 81, 0
1, 1584, Note_on_c, 0, 74, 77
1, 1584, Note_on_c, 1, 62, 77
1, 1584, Note_on_c, 1, 50, 77
1, 1629, Note_on_c, 0, 74, 0
1, 1632, Note_on_c, 0, 86, 77
1, 1632, Note_on_c, 0, 74, 77
1, 1677, Note_on_c, 0, 86, 0
1, 1677, Note_on_c, 0, 74, 0
1, 1680, Note_on_c, 0, 84, 77
1, 1680, Note_on_c, 0, 72, 77
1, 1717, Note_on_c, 1, 62, 0
1, 1717, Note_on_c, 1, 50, 0
1, 1725, Note_on_c, 0, 84, 0
1, 1725, Note_on_c, 0, 72, 0
1, 1728, Note_on_c, 0, 83, 77
1, 1728, Note_on_c, 0, 71, 77
1, 1728, Note_on_c, 1, 55, 77
1, 1728, Note_on_c, 1, 43, 77
1, 1817, Note_on_c, 1, 55, 0
1, 1817, Note_on_c, 1, 43, 0
1, 1861, Note_on_c, 0, 83, 0
1, 1861, Note_on_c, 0, 71, 0
1, 1872, Note_on_c, 1, 62, 77
1, 1872, Note_on_c, 1, 59, 77
1, 1920, Note_on_c, 0, 78, 77
1, 1943, Note_on_c, 0, 78, 0
1, 1944, Note_on_c, 0, 79, 77
1, 1961, Note_on_c, 1, 62, 0
1, 1961, Note_on_c, 1, 59, 0
1, 1967, Note_on_c, 0, 79, 0
1, 1968, Note_on_c, 0, 83, 77
1, 1991, Note_on_c, 0, 83, 0
1, 1992, Note_on_c, 0, 79, 77
1, 2015, Note_on_c, 0, 79, 0
1, 2016, Note_on_c, 0, 76, 77
1, 2016, Note_on_c, 1, 64, 77
1, 2016, Note_on_c, 1, 60, 77
1, 2036, Note_on_c, 0, 76, 0
1, 2064, Note_on_c, 0, 80, 77
1, 2087, Note_on_c, 0, 80, 0
1, 2088, Note_on_c, 0, 81, 77
1, 2105, Note_on_c, 1, 64, 0
1, 2105, Note_on_c, 1, 60, 0
1, 2111, Note_on_c, 0, 81, 0
1, 2112, Note_on_c, 0, 84, 77
1, 2135, Note_on_c, 0, 84, 0
1, 2136, Note_on_c, 0, 81, 77
1, 2159, Note_on_c, 0, 81, 0
1, 2160, Note_on_c, 0, 74, 77
1, 2160, Note_on_c, 1, 62, 77
1, 2205, Note_on_c, 0, 74, 0
1, 2208, Note_on_c, 0, 86, 77
1, 2249, Note_on_c, 1, 62, 0
1, 2253, Note_on_c, 0, 86, 0
1, 2256, Note_on_c, 0, 84, 77
1, 2256, Note_on_c, 0, 81, 77
1, 2256, Note_on_c, 1, 66, 77
1, 2301, Note_on_c, 0, 84, 0
1, 2301, Note_on_c, 0, 81, 0
1, 2301, Note_on_c, 1, 66, 0
1, 2304, Note_on_c, 0, 84, 77
1, 2304, Note_on_c, 0, 81, 77
1, 2304, Note_on_c, 1, 67, 77
1, 2349, Note_on_c, 0, 84, 0
1, 2349, Note_on_c, 0, 81, 0
1, 2349, Note_on_c, 1, 67, 0
1, 2352, Note_on_c, 0, 83, 77
1, 2352, Note_on_c, 0, 79, 77
1, 2352, Note_on_c, 1, 71, 77
1, 2397, Note_on_c, 0, 83, 0
1, 2397, Note_on_c, 0, 79, 0
1, 2397, Note_on_c, 1, 71, 0
1, 2400, Note_on_c, 0, 81, 77
1, 2400, Note_on_c, 0, 78, 77
1, 2400, Note_on_c, 1, 74, 77
1, 2445, Note_on_c, 0, 81, 0
1, 2445, Note_on_c, 0, 78, 0
1, 2445, Note_on_c, 1, 74, 0
1, 2448, Note_on_c, 0, 74, 77
1, 2493, Note_on_c, 0, 74, 0
1, 2496, Note_on_c, 0, 84, 77
1, 2541, Note_on_c, 0, 84, 0
1, 2544, Note_on_c, 0, 83, 77
1, 2544, Note_on_c, 1, 67, 77
1, 2589, Note_on_c, 0, 83, 0
1, 2589, Note_on_c, 1, 67, 0
1, 2592, Note_on_c, 0, 83, 77
1, 2592, Note_on_c, 1, 76, 77
1, 2592, Note_on_c, 1, 72, 77
1, 2637, Note_on_c, 0, 83, 0
1, 2640, Note_on_c, 0, 81, 77
1, 2685, Note_on_c, 0, 81, 0
1, 2688, Note_on_c, 0, 79, 77
1, 2688, Note_on_c, 1, 76, 0
1, 2688, Note_on_c, 1, 72, 0
1, 2688, Note_on_c, 1, 74, 77
1, 2688, Note_on_c, 1, 71, 77
1, 2733, Note_on_c, 0, 79, 0
1, 2733, Note_on_c, 1, 74, 0
1, 2733, Note_on_c, 1, 71, 0
1, 2736, Note_on_c, 0, 74, 77
1, 2781, Note_on_c, 0, 74, 0
1, 2784, Note_on_c, 0, 86, 77
1, 2829, Note_on_c, 0, 86, 0
1, 2832, Note_on_c, 0, 84, 77
1, 2832, Note_on_c, 0, 81, 77
1, 2832, Note_on_c, 1, 66, 77
1, 2877, Note_on_c, 0, 84, 0
1, 2877, Note_on_c, 0, 81, 0
1, 2877, Note_on_c, 1, 66, 0
1, 2880, Note_on_c, 0, 84, 77
1, 2880, Note_on_c, 0, 81, 77
1, 2880, Note_on_c, 1, 67, 77
1, 2925, Note_on_c, 0, 84, 0
1, 2925, Note_on_c, 0, 81, 0
1, 2925, Note_on_c, 1, 67, 0
1, 2928, Note_on_c, 0, 83, 77
1, 2928, Note_on_c, 0, 79, 77
1, 2928, Note_on_c, 1, 71, 77
1, 2973, Note_on_c, 0, 83, 0
1, 2973, Note_on_c, 0, 79, 0
1, 2973, Note_on_c, 1, 71, 0
1, 2976, Note_on_c, 0, 81, 77
1, 2976, Note_on_c, 0, 78, 77
1, 2976, Note_on_c, 1, 74, 77
1, 3021, Note_on_c, 0, 81, 0
1, 3021, Note_on_c, 0, 78, 0
1, 3021, Note_on_c, 1, 74, 0
1, 3024, Note_on_c, 0, 74, 77
1, 3069, Note_on_c, 0, 74, 0
1, 3072, Note_on_c, 0, 84, 77
1, 3117, Note_on_c, 0, 84, 0
1, 3120, Note_on_c, 0, 83, 77
1, 3120, Note_on_c, 1, 67, 77
1, 3165, Note_on_c, 0, 83, 0
1, 3165, Note_on_c, 1, 67, 0
1, 3168, Note_on_c, 0, 83, 77
1, 3168, Note_on_c, 1, 76, 77
1, 3168, Note_on_c, 1, 72, 77
1, 3213, Note_on_c, 0, 83, 0
1, 3216, Note_on_c, 0, 81, 77
1, 3261, Note_on_c, 0, 81, 0
1, 3264, Note_on_c, 0, 79, 77
1, 3264, Note_on_c, 1, 76, 0
1, 3264, Note_on_c, 1, 72, 0
1, 3264, Note_on_c, 1, 74, 77
1, 3264, Note_on_c, 1, 71, 77
1, 3309, Note_on_c, 0, 79, 0
1, 3309, Note_on_c, 1, 74, 0
1, 3309, Note_on_c, 1, 71, 0
1, 3312, Note_on_c, 0, 78, 77
1, 3312, Note_on_c, 1, 72, 77
1, 3312, Note_on_c, 1, 69, 77
1, 3312, Note_on_c, 1, 62, 64
1, 3335, Note_on_c, 0, 78, 0
1, 3336, Note_on_c, 0, 74, 77
1, 3359, Note_on_c, 0, 74, 0
1, 3360, Note_on_c, 0, 78, 77
1, 3383, Note_on_c, 0, 78, 0
1, 3384, Note_on_c, 0, 74, 77
1, 3401, Note_on_c, 1, 72, 0
1, 3401, Note_on_c, 1, 69, 0
1, 3407, Note_on_c, 0, 74, 0
1, 3408, Note_on_c, 0, 79, 77
1, 3408, Note_on_c, 1, 71, 77
1, 3408, Note_on_c, 1, 67, 77
1, 3445, Note_on_c, 1, 62, 0
1, 3453, Note_on_c, 0, 79, 0
1, 3453, Note_on_c, 1, 71, 0
1, 3453, Note_on_c, 1, 67, 0
1, 3456, Note_on_c, 0, 84, 77
1, 3456, Note_on_c, 0, 81, 64
1, 3456, Note_on_c, 1, 69, 77
1, 3456, Note_on_c, 1, 66, 77
1, 3456, Note_on_c, 1, 62, 64
1, 3479, Note_on_c, 0, 81, 0
1, 3480, Note_on_c, 0, 74, 64
1, 3501, Note_on_c, 0, 84, 0
1, 3503, Note_on_c, 0, 74, 0
1, 3504, Note_on_c, 0, 84, 77
1, 3504, Note_on_c, 0, 81, 64
1, 3527, Note_on_c, 0, 81, 0
1, 3528, Note_on_c, 0, 74, 64
1, 3545, Note_on_c, 1, 69, 0
1, 3545, Note_on_c, 1, 66, 0
1, 3549, Note_on_c, 0, 84, 0
1, 3551, Note_on_c, 0, 74, 0
1, 3552, Note_on_c, 0, 83, 77
1, 3552, Note_on_c, 0, 79, 64
1, 3552, Note_on_c, 1, 71, 77
1, 3552, Note_on_c, 1, 67, 77
1, 3589, Note_on_c, 1, 62, 0
1, 3597, Note_on_c, 0, 83, 0
1, 3597, Note_on_c, 0, 79, 0
1, 3597, Note_on_c, 1, 71, 0
1, 3597, Note_on_c, 1, 67, 0
1, 3600, Note_on_c, 0, 78, 64
1, 3600, Note_on_c, 1, 72, 77
1, 3600, Note_on_c, 1, 69, 77
1, 3600, Note_on_c, 1, 62, 64
1, 3623, Note_on_c, 0, 78, 0
1, 3624, Note_on_c, 0, 74, 64
1, 3647, Note_on_c, 0, 74, 0
1, 3648, Note_on_c, 0, 78, 64
1, 3671, Note_on_c, 0, 78, 0
1, 3672, Note_on_c, 0, 74, 64
1, 3689, Note_on_c, 1, 72, 0
1, 3689, Note_on_c, 1, 69, 0
1, 3695, Note_on_c, 0, 74, 0
1, 3696, Note_on_c, 0, 79, 64
1, 3696, Note_on_c, 1, 71, 77
1, 3696, Note_on_c, 1, 67, 77
1, 3733, Note_on_c, 1, 62, 0
1, 3741, Note_on_c, 0, 79, 0
1, 3741, Note_on_c, 1, 71, 0
1, 3741, Note_on_c, 1, 67, 0
1, 3744, Note_on_c, 0, 84, 77
1, 3744, Note_on_c, 0, 81, 64
1, 3744, Note_on_c, 1, 69, 77
1, 3744, Note_on_c, 1, 66, 77
1, 3744, Note_on_c, 1, 62, 64
1, 3767, Note_on_c, 0, 81, 0
1, 3768, Note_on_c, 0, 74, 64
1, 3789, Note_on_c, 0, 84, 0
1, 3791, Note_on_c, 0, 74, 0
1, 3792, Note_on_c, 0, 84, 77
1, 3792, Note_on_c, 0, 81, 64
1, 3815, Note_on_c, 0, 81, 0
1, 3816, Note_on_c, 0, 74, 64
1, 3833, Note_on_c, 1, 69, 0
1, 3833, Note_on_c, 1, 66, 0
1, 3837, Note_on_c, 0, 84, 0
1, 3839, Note_on_c, 0, 74, 0
1, 3840, Note_on_c, 0, 83, 77
1, 3840, Note_on_c, 0, 79, 64
1, 3840, Note_on_c, 1, 71, 77
1, 3840, Note_on_c, 1, 67, 77
1, 3877, Note_on_c, 1, 62, 0
1, 3885, Note_on_c, 0, 83, 0
1, 3885, Note_on_c, 0, 79, 0
1, 3885, Note_on_c, 1, 71, 0
1, 3885, Note_on_c, 1, 67, 0
1, 3888, Note_on_c, 0, 78, 64
1, 3888, Note_on_c, 1, 72, 77
1, 3888, Note_on_c, 1, 69, 77
1, 3888, Note_on_c, 1, 62, 64
1, 3911, Note_on_c, 0, 78, 0
1, 3912, Note_on_c, 0, 74, 64
1, 3935, Note_on_c, 0, 74, 0
1, 3936, Note_on_c, 0, 78, 64
1, 3959, Note_on_c, 0, 78, 0
1, 3960, Note_on_c, 0, 74, 64
1, 3977, Note_on_c, 1, 72, 0
1, 3977, Note_on_c, 1, 69, 0
1, 3983, Note_on_c, 0, 74, 0
1, 3984, Note_on_c, 0, 79, 64
1, 3984, Note_on_c, 1, 71, 77
1, 3984, Note_on_c, 1, 67, 77
1, 4021, Note_on_c, 1, 62, 0
1, 4029, Note_on_c, 0, 79, 0
1, 4029, Note_on_c, 1, 71, 0
1, 4029, Note_on_c, 1, 67, 0
1, 4032, Note_on_c, 0, 84, 77
1, 4032, Note_on_c, 0, 81, 64
1, 4032, Note_on_c, 1, 69, 77
1, 4032, Note_on_c, 1, 66, 77
1, 4032, Note_on_c, 1, 62, 64
1, 4055, Note_on_c, 0, 81, 0
1, 4056, Note_on_c, 0, 74, 64
1, 4077, Note_on_c, 0, 84, 0
1, 4079, Note_on_c, 0, 74, 0
1, 4080, Note_on_c, 0, 84, 77
1, 4080, Note_on_c, 0, 81, 64
1, 4103, Note_on_c, 0, 81, 0
1, 4104, Note_on_c, 0, 74, 64
1, 4121, Note_on_c, 1, 69, 0
1, 4121, Note_on_c, 1, 66, 0
1, 4125, Note_on_c, 0, 84, 0
1, 4127, Note_on_c, 0, 74, 0
1, 4128, Note_on_c, 0, 83, 77
1, 4128, Note_on_c, 0, 79, 64
1, 4128, Note_on_c, 1, 67, 77
1, 4165, Note_on_c, 1, 62, 0
1, 4173, Note_on_c, 0, 83, 0
1, 4173, Note_on_c, 0, 79, 0
1, 4173, Note_on_c, 1, 67, 0
1, 4176, Note_on_c, 0, 84, 77
1, 4176, Note_on_c, 0, 81, 64
1, 4176, Note_on_c, 1, 69, 77
1, 4176, Note_on_c, 1, 66, 77
1, 4176, Note_on_c, 1, 62, 64
1, 4199, Note_on_c, 0, 81, 0
1, 4200, Note_on_c, 0, 74, 64
1, 4221, Note_on_c, 0, 84, 0
1, 4223, Note_on_c, 0, 74, 0
1, 4224, Note_on_c, 0, 84, 77
1, 4224, Note_on_c, 0, 81, 64
1, 4247, Note_on_c, 0, 81, 0
1, 4248, Note_on_c, 0, 74, 64
1, 4265, Note_on_c, 1, 69, 0
1, 4265, Note_on_c, 1, 66, 0
1, 4269, Note_on_c, 0, 84, 0
1, 4271, Note_on_c, 0, 74, 0
1, 4272, Note_on_c, 0, 83, 77
1, 4272, Note_on_c, 0, 79, 64
1, 4272, Note_on_c, 1, 67, 77
1, 4309, Note_on_c, 1, 62, 0
1, 4317, Note_on_c, 0, 83, 0
1, 4317, Note_on_c, 0, 79, 0
1, 4317, Note_on_c, 1, 67, 0
1, 4320, Note_on_c, 0, 81, 77
1, 4320, Note_on_c, 0, 78, 64
1, 4320, Note_on_c, 1, 69, 77
1, 4320, Note_on_c, 1, 66, 77
1, 4320, Note_on_c, 1, 62, 77
1, 4365, Note_on_c, 0, 81, 0
1, 4365, Note_on_c, 0, 78, 0
1, 4365, Note_on_c, 1, 69, 0
1, 4365, Note_on_c, 1, 66, 0
1, 4365, Note_on_c, 1, 62, 0
1, 4368, Note_on_c, 0, 86, 77
1, 4368, Note_on_c, 0, 78, 64
1, 4368, Note_on_c, 1, 69, 77
1, 4368, Note_on_c, 1, 66, 77
1, 4368, Note_on_c, 1, 62, 77
1, 4413, Note_on_c, 0, 86, 0
1, 4413, Note_on_c, 0, 78, 0
1, 4413, Note_on_c, 1, 69, 0
1, 4413, Note_on_c, 1, 66, 0
1, 4413, Note_on_c, 1, 62, 0
1, 4416, Note_on_c, 0, 86, 77
1, 4416, Note_on_c, 0, 78, 64
1, 4416, Note_on_c, 1, 69, 77
1, 4416, Note_on_c, 1, 66, 77
1, 4416, Note_on_c, 1, 62, 77
1, 4461, Note_on_c, 0, 86, 0
1, 4461, Note_on_c, 0, 78, 0
1, 4461, Note_on_c, 1, 69, 0
1, 4461, Note_on_c, 1, 66, 0
1, 4461, Note_on_c, 1, 62, 0
1, 4464, Note_on_c, 0, 86, 77
1, 4464, Note_on_c, 0, 78, 64
1, 4464, Note_on_c, 1, 69, 77
1, 4464, Note_on_c, 1, 66, 77
1, 4464, Note_on_c, 1, 62, 77
1, 4553, Note_on_c, 0, 86, 0
1, 4553, Note_on_c, 0, 78, 0
1, 4553, Note_on_c, 1, 69, 0
1, 4553, Note_on_c, 1, 66, 0
1, 4553, Note_on_c, 1, 62, 0
1, 4608, Note_on_c, 0, 81, 77
1, 4608, Note_on_c, 0, 78, 77
1, 4647, Note_on_c, 0, 81, 0
1, 4647, Note_on_c, 0, 78, 0
1, 4656, Note_on_c, 1, 50, 77
1, 4701, Note_on_c, 1, 50, 0
1, 4704, Note_on_c, 1, 38, 77
1, 4749, Note_on_c, 1, 38, 0
1, 4752, Note_on_c, 0, 86, 77
1, 4752, Note_on_c, 0, 78, 77
1, 4791, Note_on_c, 0, 86, 0
1, 4791, Note_on_c, 0, 78, 0
1, 4800, Note_on_c, 1, 62, 77
1, 4824, Note_on_c, 1, 62, 0
1, 4824, Note_on_c, 1, 61, 77
1, 4847, Note_on_c, 1, 61, 0
1, 4848, Note_on_c, 1, 62, 77
1, 4868, Note_on_c, 1, 62, 0
1, 4896, Note_on_c, 0, 83, 77
1, 4896, Note_on_c, 0, 79, 77
1, 4935, Note_on_c, 0, 83, 0
1, 4935, Note_on_c, 0, 79, 0
1, 4944, Note_on_c, 1, 50, 77
1, 4989, Note_on_c, 1, 50, 0
1, 4992, Note_on_c, 1, 38, 77
1, 5037, Note_on_c, 1, 38, 0
1, 5040, Note_on_c, 0, 79, 77
1, 5040, Note_on_c, 0, 73, 77
1, 5079, Note_on_c, 0, 79, 0
1, 5079, Note_on_c, 0, 73, 0
1, 5088, Note_on_c, 1, 62, 77
1, 5112, Note_on_c, 1, 62, 0
1, 5112, Note_on_c, 1, 61, 77
1, 5135, Note_on_c, 1, 61, 0
1, 5136, Note_on_c, 1, 62, 77
1, 5156, Note_on_c, 1, 62, 0
1, 5184, Note_on_c, 0, 81, 77
1, 5184, Note_on_c, 0, 78, 77
1, 5223, Note_on_c, 0, 81, 0
1, 5223, Note_on_c, 0, 78, 0
1, 5232, Note_on_c, 1, 50, 77
1, 5277, Note_on_c, 1, 50, 0
1, 5280, Note_on_c, 1, 38, 77
1, 5325, Note_on_c, 1, 38, 0
1, 5328, Note_on_c, 0, 86, 77
1, 5328, Note_on_c, 0, 78, 77
1, 5367, Note_on_c, 0, 86, 0
1, 5367, Note_on_c, 0, 78, 0
1, 5376, Note_on_c, 1, 62, 77
1, 5400, Note_on_c, 1, 62, 0
1, 5400, Note_on_c, 1, 61, 77
1, 5423, Note_on_c, 1, 61, 0
1, 5424, Note_on_c, 1, 62, 77
1, 5444, Note_on_c, 1, 62, 0
1, 5472, Note_on_c, 0, 83, 77
1, 5472, Note_on_c, 0, 79, 77
1, 5511, Note_on_c, 0, 83, 0
1, 5511, Note_on_c, 0, 79, 0
1, 5520, Note_on_c, 1, 50, 77
1, 5565, Note_on_c, 1, 50, 0
1, 5568, Note_on_c, 1, 38, 77
1, 5613, Note_on_c, 1, 38, 0
1, 5616, Note_on_c, 0, 79, 77
1, 5616, Note_on_c, 0, 73, 77
1, 5655, Note_on_c, 0, 79, 0
1, 5655, Note_on_c, 0, 73, 0
1, 5664, Note_on_c, 1, 62, 77
1, 5688, Note_on_c, 1, 62, 0
1, 5688, Note_on_c, 1, 61, 77
1, 5711, Note_on_c, 1, 61, 0
1, 5712, Note_on_c, 1, 62, 77
1, 5732, Note_on_c, 1, 62, 0
1, 5760, Note_on_c, 0, 78, 77
1, 5760, Note_on_c, 0, 74, 77
1, 5799, Note_on_c, 0, 78, 0
1, 5799, Note_on_c, 0, 74, 0
1, 5808, Note_on_c, 1, 50, 77
1, 5853, Note_on_c, 1, 50, 0
1, 5856, Note_on_c, 1, 38, 77
1, 5901, Note_on_c, 1, 38, 0
1, 5904, Note_on_c, 0, 86, 77
1, 5904, Note_on_c, 0, 78, 77
1, 5943, Note_on_c, 0, 86, 0
1, 5943, Note_on_c, 0, 78, 0
1, 5952, Note_on_c, 1, 59, 77
1, 5976, Note_on_c, 1, 59, 0
1, 5976, Note_on_c, 1, 58, 77
1, 5999, Note_on_c, 1, 58, 0
1, 6000, Note_on_c, 1, 59, 77
1, 6020, Note_on_c, 1, 59, 0
1, 6048, Note_on_c, 0, 76, 77
1, 6048, Note_on_c, 0, 74, 77
1, 6087, Note_on_c, 0, 76, 0
1, 6087, Note_on_c, 0, 74, 0
1, 6096, Note_on_c, 1, 55, 77
1, 6119, Note_on_c, 1, 55, 0
1, 6120, Note_on_c, 1, 54, 77
1, 6143, Note_on_c, 1, 54, 0
1, 6144, Note_on_c, 1, 55, 77
1, 6189, Note_on_c, 1, 55, 0
1, 6192, Note_on_c, 0, 83, 77
1, 6192, Note_on_c, 0, 74, 77
1, 6231, Note_on_c, 0, 83, 0
1, 6231, Note_on_c, 0, 74, 0
1, 6240, Note_on_c, 1, 56, 77
1, 6264, Note_on_c, 1, 56, 0
1, 6264, Note_on_c, 1, 54, 77
1, 6287, Note_on_c, 1, 54, 0
1, 6288, Note_on_c, 1, 56, 77
1, 6308, Note_on_c, 1, 56, 0
1, 6336, Note_on_c, 0, 73, 77
1, 6336, Note_on_c, 1, 57, 77
1, 6359, Note_on_c, 0, 73, 0
1, 6360, Note_on_c, 0, 69, 77
1, 6381, Note_on_c, 1, 57, 0
1, 6383, Note_on_c, 0, 69, 0
1, 6384, Note_on_c, 0, 74, 77
1, 6384, Note_on_c, 1, 59, 77
1, 6407, Note_on_c, 0, 74, 0
1, 6408, Note_on_c, 0, 69, 77
1, 6429, Note_on_c, 1, 59, 0
1, 6431, Note_on_c, 0, 69, 0
1, 6432, Note_on_c, 0, 76, 77
1, 6432, Note_on_c, 1, 61, 77
1, 6455, Note_on_c, 0, 76, 0
1, 6456, Note_on_c, 0, 69, 77
1, 6477, Note_on_c, 1, 61, 0
1, 6479, Note_on_c, 0, 69, 0
1, 6480, Note_on_c, 0, 78, 77
1, 6480, Note_on_c, 1, 62, 77
1, 6503, Note_on_c, 0, 78, 0
1, 6504, Note_on_c, 0, 69, 77
1, 6527, Note_on_c, 0, 69, 0
1, 6528, Note_on_c, 0, 76, 77
1, 6528, Note_on_c, 1, 62, 0
1, 6528, Note_on_c, 1, 61, 77
1, 6551, Note_on_c, 0, 76, 0
1, 6552, Note_on_c, 0, 69, 77
1, 6573, Note_on_c, 1, 61, 0
1, 6575, Note_on_c, 0, 69, 0
1, 6576, Note_on_c, 0, 81, 77
1, 6599, Note_on_c, 0, 81, 0
1, 6600, Note_on_c, 0, 69, 77
1, 6623, Note_on_c, 0, 69, 0
1, 6624, Note_on_c, 0, 73, 77
1, 6624, Note_on_c, 1, 57, 77
1, 6647, Note_on_c, 0, 73, 0
1, 6648, Note_on_c, 0, 69, 77
1, 6669, Note_on_c, 1, 57, 0
1, 6671, Note_on_c, 0, 69, 0
1, 6672, Note_on_c, 0, 74, 77
1, 6672, Note_on_c, 1, 59, 77
1, 6695, Note_on_c, 0, 74, 0
1, 6696, Note_on_c, 0, 69, 77
1, 6717, Note_on_c, 1, 59, 0
1, 6719, Note_on_c, 0, 69, 0
1, 6720, Note_on_c, 0, 76, 77
1, 6720, Note_on_c, 1, 61, 77
1, 6743, Note_on_c, 0, 76, 0
1, 6744, Note_on_c, 0, 69, 77
1, 6765, Note_on_c, 1, 61, 0
1, 6767, Note_on_c, 0, 69, 0
1, 6768, Note_on_c, 0, 78, 77
1, 6768, Note_on_c, 1, 62, 77
1, 6791, Note_on_c, 0, 78, 0
1, 6792, Note_on_c, 0, 69, 77
1, 6815, Note_on_c, 0, 69, 0
1, 6816, Note_on_c, 0, 76, 77
1, 6816, Note_on_c, 1, 62, 0
1, 6816, Note_on_c, 1, 61, 77
1, 6839, Note_on_c, 0, 76, 0
1, 6840, Note_on_c, 0, 69, 77
1, 6861, Note_on_c, 1, 61, 0
1, 6863, Note_on_c, 0, 69, 0
1, 6864, Note_on_c, 0, 81, 77
1, 6887, Note_on_c, 0, 81, 0
1, 6888, Note_on_c, 0, 69, 77
1, 6911, Note_on_c, 0, 69, 0
1, 6912, Note_on_c, 0, 73, 77
1, 6912, Note_on_c, 1, 57, 77
1, 6935, Note_on_c, 0, 73, 0
1, 6936, Note_on_c, 0, 69, 77
1, 6957, Note_on_c, 1, 57, 0
1, 6959, Note_on_c, 0, 69, 0
1, 6960, Note_on_c, 0, 74, 77
1, 6960, Note_on_c, 1, 59, 77
1, 6983, Note_on_c, 0, 74, 0
1, 6984, Note_on_c, 0, 69, 77
1, 7005, Note_on_c, 1, 59, 0
1, 7007, Note_on_c, 0, 69, 0
1, 7008, Note_on_c, 0, 76, 77
1, 7008, Note_on_c, 1, 61, 77
1, 7031, Note_on_c, 0, 76, 0
1, 7032, Note_on_c, 0, 69, 77
1, 7053, Note_on_c, 1, 61, 0
1, 7055, Note_on_c, 0, 69, 0
1, 7056, Note_on_c, 0, 78, 77
1, 7056, Note_on_c, 1, 62, 77
1, 7079, Note_on_c, 0, 78, 0
1, 7080, Note_on_c, 0, 69, 77
1, 7101, Note_on_c, 1, 62, 0
1, 7103, Note_on_c, 0, 69, 0
1, 7104, Note_on_c, 0, 79, 77
1, 7104, Note_on_c, 1, 64, 77
1, 7127, Note_on_c, 0, 79, 0
1, 7128, Note_on_c, 0, 69, 77
1, 7149, Note_on_c, 1, 64, 0
1, 7151, Note_on_c, 0, 69, 0
1, 7152, Note_on_c, 0, 81, 77
1, 7152, Note_on_c, 1, 66, 77
1, 7175, Note_on_c, 0, 81, 0
1, 7176, Note_on_c, 0, 69, 77
1, 7197, Note_on_c, 1, 66, 0
1, 7199, Note_on_c, 0, 69, 0
1, 7200, Note_on_c, 0, 83, 77
1, 7200, Note_on_c, 1, 67, 77
1, 7223, Note_on_c, 0, 83, 0
1, 7224, Note_on_c, 0, 79, 77
1, 7247, Note_on_c, 0, 79, 0
1, 7248, Note_on_c, 0, 78, 77
1, 7271, Note_on_c, 0, 78, 0
1, 7272, Note_on_c, 0, 76, 77
1, 7295, Note_on_c, 0, 76, 0
1, 7296, Note_on_c, 0, 75, 77
1, 7319, Note_on_c, 0, 75, 0
1, 7320, Note_on_c, 0, 76, 77
1, 7333, Note_on_c, 1, 67, 0
1, 7343, Note_on_c, 0, 76, 0
1, 7344, Note_on_c, 0, 81, 77
1, 7344, Note_on_c, 1, 66, 77
1, 7367, Note_on_c, 0, 81, 0
1, 7368, Note_on_c, 0, 78, 77
1, 7391, Note_on_c, 0, 78, 0
1, 7392, Note_on_c, 0, 76, 77
1, 7415, Note_on_c, 0, 76, 0
1, 7416, Note_on_c, 0, 74, 77
1, 7439, Note_on_c, 0, 74, 0
1, 7440, Note_on_c, 0, 73, 77
1, 7463, Note_on_c, 0, 73, 0
1, 7464, Note_on_c, 0, 74, 77
1, 7477, Note_on_c, 1, 66, 0
1, 7487, Note_on_c, 0, 74, 0
1, 7488, Note_on_c, 0, 86, 77
1, 7488, Note_on_c, 1, 71, 77
1, 7488, Note_on_c, 1, 68, 77
1, 7488, Note_on_c, 1, 64, 77
1, 7511, Note_on_c, 0, 86, 0
1, 7512, Note_on_c, 0, 88, 77
1, 7535, Note_on_c, 0, 88, 0
1, 7536, Note_on_c, 0, 86, 77
1, 7559, Note_on_c, 0, 86, 0
1, 7560, Note_on_c, 0, 85, 77
1, 7583, Note_on_c, 0, 85, 0
1, 7584, Note_on_c, 0, 83, 77
1, 7607, Note_on_c, 0, 83, 0
1, 7608, Note_on_c, 0, 81, 77
1, 7621, Note_on_c, 1, 71, 0
1, 7621, Note_on_c, 1, 68, 0
1, 7621, Note_on_c, 1, 64, 0
1, 7631, Note_on_c, 0, 81, 0
1, 7632, Note_on_c, 0, 80, 77
1, 7655, Note_on_c, 0, 80, 0
1, 7656, Note_on_c, 0, 78, 77
1, 7679, Note_on_c, 0, 78, 0
1, 7680, Note_on_c, 0, 76, 77
1, 7703, Note_on_c, 0, 76, 0
1, 7704, Note_on_c, 0, 74, 77
1, 7727, Note_on_c, 0, 74, 0
1, 7728, Note_on_c, 0, 73, 77
1, 7751, Note_on_c, 0, 73, 0
1, 7752, Note_on_c, 0, 71, 77
1, 7775, Note_on_c, 0, 71, 0
1, 7776, Note_on_c, 0, 79, 77
1, 7776, Note_on_c, 1, 67, 77
1, 7776, Note_on_c, 1, 64, 77
1, 7776, Note_on_c, 1, 61, 77
1, 7776, Note_on_c, 1, 57, 77
1, 7799, Note_on_c, 0, 79, 0
1, 7800, Note_on_c, 0, 81, 77
1, 7823, Note_on_c, 0, 81, 0
1, 7824, Note_on_c, 0, 79, 77
1, 7847, Note_on_c, 0, 79, 0
1, 7848, Note_on_c, 0, 78, 77
1, 7865, Note_on_c, 1, 67, 0
1, 7865, Note_on_c, 1, 64, 0
1, 7865, Note_on_c, 1, 61, 0
1, 7865, Note_on_c, 1, 57, 0
1, 7871, Note_on_c, 0, 78, 0
1, 7872, Note_on_c, 0, 76, 77
1, 7895, Note_on_c, 0, 76, 0
1, 7896, Note_on_c, 0, 74, 77
1, 7919, Note_on_c, 0, 74, 0
1, 7920, Note_on_c, 0, 73, 77
1, 7943, Note_on_c, 0, 73, 0
1, 7944, Note_on_c, 0, 71, 77
1, 7967, Note_on_c, 0, 71, 0
1, 7968, Note_on_c, 0, 69, 77
1, 7991, Note_on_c, 0, 69, 0
1, 7992, Note_on_c, 0, 67, 77
1, 8015, Note_on_c, 0, 67, 0
1, 8016, Note_on_c, 0, 66, 77
1, 8039, Note_on_c, 0, 66, 0
1, 8040, Note_on_c, 0, 64, 77
1, 8063, Note_on_c, 0, 64, 0
1, 8064, Note_on_c, 0, 66, 77
1, 8064, Note_on_c, 1, 50, 77
1, 8087, Note_on_c, 0, 66, 0
1, 8088, Note_on_c, 0, 62, 77
1, 8109, Note_on_c, 1, 50, 0
1, 8111, Note_on_c, 0, 62, 0
1, 8112, Note_on_c, 0, 67, 77
1, 8112, Note_on_c, 1, 52, 77
1, 8135, Note_on_c, 0, 67, 0
1, 8136, Note_on_c, 0, 62, 77
1, 8157, Note_on_c, 1, 52, 0
1, 8159, Note_on_c, 0, 62, 0
1, 8160, Note_on_c, 0, 69, 77
1, 8160, Note_on_c, 1, 54, 77
1, 8183, Note_on_c, 0, 69, 0
1, 8184, Note_on_c, 0, 62, 77
1, 8205, Note_on_c, 1, 54, 0
1, 8207, Note_on_c, 0, 62, 0
1, 8208, Note_on_c, 0, 71, 77
1, 8208, Note_on_c, 1, 55, 77
1, 8231, Note_on_c, 0, 71, 0
1, 8232, Note_on_c, 0, 62, 77
1, 8253, Note_on_c, 1, 55, 0
1, 8255, Note_on_c, 0, 62, 0
1, 8256, Note_on_c, 0, 73, 77
1, 8256, Note_on_c, 1, 57, 77
1, 8279, Note_on_c, 0, 73, 0
1, 8280, Note_on_c, 0, 62, 77
1, 8301, Note_on_c, 1, 57, 0
1, 8303, Note_on_c, 0, 62, 0
1, 8304, Note_on_c, 0, 74, 77
1, 8304, Note_on_c, 1, 59, 77
1, 8349, Note_on_c, 0, 74, 0
1, 8349, Note_on_c, 1, 59, 0
1, 8352, Note_on_c, 0, 66, 77
1, 8352, Note_on_c, 0, 62, 77
1, 8352, Note_on_c, 1, 57, 77
1, 8485, Note_on_c, 1, 57, 0
1, 8496, Note_on_c, 1, 45, 77
1, 8541, Note_on_c, 0, 66, 0
1, 8541, Note_on_c, 0, 62, 0
1, 8544, Note_on_c, 0, 67, 77
1, 8544, Note_on_c, 0, 64, 77
1, 8589, Note_on_c, 0, 67, 0
1, 8589, Note_on_c, 0, 64, 0
1, 8592, Note_on_c, 0, 64, 77
1, 8592, Note_on_c, 0, 61, 77
1, 8629, Note_on_c, 1, 45, 0
1, 8637, Note_on_c, 0, 64, 0
1, 8637, Note_on_c, 0, 61, 0
1, 8640, Note_on_c, 0, 62, 77
1, 8640, Note_on_c, 1, 50, 77
1, 8640, Note_on_c, 1, 50, 64
1, 8729, Note_on_c, 0, 62, 0
1, 8729, Note_on_c, 1, 50, 0
1, 8729, Note_on_c, 1, 50, 0
1, 8736, Note_on_c, 0, 74, 77
1, 8781, Note_on_c, 0, 74, 0
1, 8784, Note_on_c, 0, 64, 77
1, 8784, Note_on_c, 1, 62, 77
1, 8784, Note_on_c, 1, 55, 64
1, 8829, Note_on_c, 0, 64, 0
1, 8832, Note_on_c, 0, 67, 77
1, 8873, Note_on_c, 1, 55, 0
1, 8877, Note_on_c, 0, 67, 0
1, 8880, Note_on_c, 0, 66, 77
1, 8880, Note_on_c, 1, 57, 64
1, 8925, Note_on_c, 0, 66, 0
1, 8925, Note_on_c, 1, 57, 0
1, 8928, Note_on_c, 0, 69, 77
1, 8928, Note_on_c, 1, 59, 64
1, 8973, Note_on_c, 0, 69, 0
1, 8976, Note_on_c, 0, 67, 77
1, 9017, Note_on_c, 1, 59, 0
1, 9021, Note_on_c, 0, 67, 0
1, 9024, Note_on_c, 0, 66, 77
1, 9024, Note_on_c, 1, 57, 64
1, 9061, Note_on_c, 1, 62, 0
1, 9069, Note_on_c, 0, 66, 0
1, 9069, Note_on_c, 1, 57, 0
1, 9072, Note_on_c, 0, 64, 77
1, 9072, Note_on_c, 1, 62, 77
1, 9072, Note_on_c, 1, 55, 64
1, 9117, Note_on_c, 0, 64, 0
1, 9120, Note_on_c, 0, 71, 77
1, 9161, Note_on_c, 1, 55, 0
1, 9165, Note_on_c, 0, 71, 0
1, 9168, Note_on_c, 0, 66, 77
1, 9168, Note_on_c, 1, 57, 64
1, 9213, Note_on_c, 0, 66, 0
1, 9213, Note_on_c, 1, 57, 0
1, 9216, Note_on_c, 0, 69, 77
1, 9216, Note_on_c, 1, 59, 64
1, 9261, Note_on_c, 0, 69, 0
1, 9264, Note_on_c, 0, 67, 77
1, 9305, Note_on_c, 1, 59, 0
1, 9309, Note_on_c, 0, 67, 0
1, 9312, Note_on_c, 0, 66, 77
1, 9312, Note_on_c, 1, 57, 64
1, 9349, Note_on_c, 1, 62, 0
1, 9357, Note_on_c, 0, 66, 0
1, 9357, Note_on_c, 1, 57, 0
1, 9360, Note_on_c, 0, 64, 77
1, 9360, Note_on_c, 1, 62, 77
1, 9360, Note_on_c, 1, 56, 64
1, 9405, Note_on_c, 0, 64, 0
1, 9408, Note_on_c, 0, 71, 77
1, 9449, Note_on_c, 1, 56, 0
1, 9453, Note_on_c, 0, 71, 0
1, 9456, Note_on_c, 0, 66, 77
1, 9456, Note_on_c, 1, 57, 64
1, 9501, Note_on_c, 0, 66, 0
1, 9501, Note_on_c, 1, 57, 0
1, 9504, Note_on_c, 0, 69, 77
1, 9504, Note_on_c, 1, 59, 64
1, 9549, Note_on_c, 0, 69, 0
1, 9552, Note_on_c, 0, 68, 77
1, 9597, Note_on_c, 0, 68, 0
1, 9600, Note_on_c, 0, 71, 77
1, 9637, Note_on_c, 1, 62, 0
1, 9637, Note_on_c, 1, 59, 0
1, 9648, Note_on_c, 1, 64, 77
1, 9648, Note_on_c, 1, 61, 64
1, 9693, Note_on_c, 0, 71, 0
1, 9696, Note_on_c, 0, 69, 77
1, 9741, Note_on_c, 0, 69, 0
1, 9744, Note_on_c, 0, 79, 77
1, 9781, Note_on_c, 1, 64, 0
1, 9781, Note_on_c, 1, 61, 0
1, 9792, Note_on_c, 1, 62, 77
1, 9815, Note_on_c, 0, 79, 0
1, 9816, Note_on_c, 0, 78, 77
1, 9839, Note_on_c, 0, 78, 0
1, 9840, Note_on_c, 0, 81, 77
1, 9863, Note_on_c, 0, 81, 0
1, 9864, Note_on_c, 0, 79, 77
1, 9887, Note_on_c, 0, 79, 0
1, 9888, Note_on_c, 0, 78, 77
1, 9911, Note_on_c, 0, 78, 0
1, 9912, Note_on_c, 0, 76, 77
1, 9925, Note_on_c, 1, 62, 0
1, 9935, Note_on_c, 0, 76, 0
1, 9936, Note_on_c, 0, 74, 77
1, 9936, Note_on_c, 1, 57, 77
1, 9936, Note_on_c, 1, 54, 77
1, 9959, Note_on_c, 0, 74, 0
1, 9960, Note_on_c, 0, 73, 77
1, 9983, Note_on_c, 0, 73, 0
1, 9984, Note_on_c, 0, 71, 77
1, 10007, Note_on_c, 0, 71, 0
1, 10008, Note_on_c, 0, 69, 77
1, 10031, Note_on_c, 0, 69, 0
1, 10032, Note_on_c, 0, 67, 77
1, 10055, Note_on_c, 0, 67, 0
1, 10056, Note_on_c, 0, 66, 77
1, 10069, Note_on_c, 1, 57, 0
1, 10069, Note_on_c, 1, 54, 0
1, 10079, Note_on_c, 0, 66, 0
1, 10080, Note_on_c, 0, 64, 77
1, 10080, Note_on_c, 1, 59, 77
1, 10080, Note_on_c, 1, 55, 77
1, 10125, Note_on_c, 0, 64, 0
1, 10128, Note_on_c, 0, 86, 77
1, 10128, Note_on_c, 0, 83, 77
1, 10148, Note_on_c, 0, 86, 0
1, 10148, Note_on_c, 0, 83, 0
1, 10169, Note_on_c, 1, 59, 0
1, 10169, Note_on_c, 1, 55, 0
1, 10176, Note_on_c, 0, 85, 77
1, 10176, Note_on_c, 0, 81, 77
1, 10196, Note_on_c, 0, 85, 0
1, 10196, Note_on_c, 0, 81, 0
1, 10224, Note_on_c, 0, 83, 77
1, 10224, Note_on_c, 0, 79, 77
1, 10244, Note_on_c, 0, 83, 0
1, 10244, Note_on_c, 0, 79, 0
1, 10272, Note_on_c, 0, 81, 77
1, 10272, Note_on_c, 0, 78, 77
1, 10292, Note_on_c, 0, 81, 0
1, 10292, Note_on_c, 0, 78, 0
1, 10320, Note_on_c, 0, 79, 77
1, 10320, Note_on_c, 0, 76, 77
1, 10340, Note_on_c, 0, 79, 0
1, 10340, Note_on_c, 0, 76, 0
1, 10368, Note_on_c, 0, 78, 77
1, 10368, Note_on_c, 1, 62, 77
1, 10368, Note_on_c, 1, 57, 77
1, 10380, Note_on_c, 0, 78, 0
1, 10380, Note_on_c, 0, 76, 77
1, 10392, Note_on_c, 0, 76, 0
1, 10392, Note_on_c, 0, 78, 77
1, 10413, Note_on_c, 0, 78, 0
1, 10416, Note_on_c, 0, 81, 77
1, 10461, Note_on_c, 0, 81, 0
1, 10464, Note_on_c, 0, 74, 77
1, 10501, Note_on_c, 1, 62, 0
1, 10501, Note_on_c, 1, 57, 0
1, 10509, Note_on_c, 0, 74, 0
1, 10512, Note_on_c, 0, 76, 77
1, 10512, Note_on_c, 1, 61, 77
1, 10512, Note_on_c, 1, 57, 77
1, 10524, Note_on_c, 0, 76, 0
1, 10524, Note_on_c, 0, 74, 77
1, 10536, Note_on_c, 0, 74, 0
1, 10536, Note_on_c, 0, 76, 77
1, 10557, Note_on_c, 0, 76, 0
1, 10560, Note_on_c, 0, 79, 77
1, 10605, Note_on_c, 0, 79, 0
1, 10608, Note_on_c, 0, 73, 77
1, 10645, Note_on_c, 1, 61, 0
1, 10645, Note_on_c, 1, 57, 0
1, 10653, Note_on_c, 0, 73, 0
1, 10656, Note_on_c, 0, 74, 77
1, 10656, Note_on_c, 1, 59, 77
1, 10656, Note_on_c, 1, 47, 77
1, 10679, Note_on_c, 0, 74, 0
1, 10680, Note_on_c, 0, 76, 77
1, 10701, Note_on_c, 1, 59, 0
1, 10701, Note_on_c, 1, 47, 0
1, 10703, Note_on_c, 0, 76, 0
1, 10704, Note_on_c, 0, 73, 77
1, 10704, Note_on_c, 1, 57, 77
1, 10704, Note_on_c, 1, 45, 77
1, 10727, Note_on_c, 0, 73, 0
1, 10728, Note_on_c, 0, 74, 77
1, 10749, Note_on_c, 1, 57, 0
1, 10749, Note_on_c, 1, 45, 0
1, 10751, Note_on_c, 0, 74, 0
1, 10752, Note_on_c, 0, 71, 77
1, 10752, Note_on_c, 1, 55, 77
1, 10752, Note_on_c, 1, 43, 77
1, 10772, Note_on_c, 0, 71, 0
1, 10797, Note_on_c, 1, 55, 0
1, 10797, Note_on_c, 1, 43, 0
1, 10800, Note_on_c, 0, 69, 77
1, 10800, Note_on_c, 1, 54, 77
1, 10800, Note_on_c, 1, 42, 77
1, 10823, Note_on_c, 0, 69, 0
1, 10824, Note_on_c, 0, 71, 77
1, 10845, Note_on_c, 1, 54, 0
1, 10845, Note_on_c, 1, 42, 0
1, 10847, Note_on_c, 0, 71, 0
1, 10848, Note_on_c, 0, 67, 77
1, 10848, Note_on_c, 1, 52, 77
1, 10848, Note_on_c, 1, 40, 77
1, 10871, Note_on_c, 0, 67, 0
1, 10872, Note_on_c, 0, 69, 77
1, 10893, Note_on_c, 1, 52, 0
1, 10893, Note_on_c, 1, 40, 0
1, 10895, Note_on_c, 0, 69, 0
1, 10896, Note_on_c, 0, 66, 77
1, 10896, Note_on_c, 1, 50, 77
1, 10896, Note_on_c, 1, 38, 77
1, 10916, Note_on_c, 0, 66, 0
1, 10941, Note_on_c, 1, 50, 0
1, 10941, Note_on_c, 1, 38, 0
1, 10944, Note_on_c, 0, 64, 77
1, 10944, Note_on_c, 1, 55, 77
1, 10944, Note_on_c, 1, 43, 77
1, 10989, Note_on_c, 0, 64, 0
1, 10992, Note_on_c, 0, 67, 77
1, 11037, Note_on_c, 0, 67, 0
1, 11040, Note_on_c, 0, 71, 77
1, 11085, Note_on_c, 0, 71, 0
1, 11088, Note_on_c, 0, 76, 77
1, 11133, Note_on_c, 0, 76, 0
1, 11136, Note_on_c, 0, 79, 77
1, 11148, Note_on_c, 0, 79, 0
1, 11148, Note_on_c, 0, 78, 77
1, 11160, Note_on_c, 0, 78, 0
1, 11160, Note_on_c, 0, 79, 77
1, 11181, Note_on_c, 0, 79, 0
1, 11184, Note_on_c, 0, 83, 77
1, 11209, Note_on_c, 1, 55, 0
1, 11209, Note_on_c, 1, 43, 0
1, 11229, Note_on_c, 0, 83, 0
1, 11232, Note_on_c, 0, 81, 77
1, 11232, Note_on_c, 1, 66, 77
1, 11232, Note_on_c, 1, 57, 77
1, 11277, Note_on_c, 0, 81, 0
1, 11280, Note_on_c, 0, 78, 77
1, 11325, Note_on_c, 0, 78, 0
1, 11328, Note_on_c, 0, 74, 77
1, 11365, Note_on_c, 1, 66, 0
1, 11365, Note_on_c, 1, 57, 0
1, 11373, Note_on_c, 0, 74, 0
1, 11376, Note_on_c, 0, 79, 77
1, 11376, Note_on_c, 1, 64, 77
1, 11376, Note_on_c, 1, 57, 77
1, 11421, Note_on_c, 0, 79, 0
1, 11424, Note_on_c, 0, 76, 77
1, 11469, Note_on_c, 0, 76, 0
1, 11472, Note_on_c, 0, 73, 77
1, 11509, Note_on_c, 1, 64, 0
1, 11509, Note_on_c, 1, 57, 0
1, 11517, Note_on_c, 0, 73, 0
1, 11520, Note_on_c, 0, 74, 63
1, 11520, Note_on_c, 1, 62, 63
1, 11565, Note_on_c, 0, 74, 0
1, 11565, Note_on_c, 1, 62, 0
1, 11568, Note_on_c, 0, 69, 63
1, 11568, Note_on_c, 1, 57, 63
1, 11613, Note_on_c, 0, 69, 0
1, 11613, Note_on_c, 1, 57, 0
1, 11616, Note_on_c, 0, 66, 63
1, 11616, Note_on_c, 1, 54, 63
1, 11661, Note_on_c, 0, 66, 0
1, 11661, Note_on_c, 1, 54, 0
1, 11664, Note_on_c, 0, 71, 63
1, 11664, Note_on_c, 1, 59, 63
1, 11709, Note_on_c, 0, 71, 0
1, 11709, Note_on_c, 1, 59, 0
1, 11712, Note_on_c, 0, 67, 63
1, 11712, Note_on_c, 1, 55, 63
1, 11757, Note_on_c, 0, 67, 0
1, 11757, Note_on_c, 1, 55, 0
1, 11760, Note_on_c, 0, 64, 63
1, 11760, Note_on_c, 1, 52, 63
1, 11805, Note_on_c, 0, 64, 0
1, 11805, Note_on_c, 1, 52, 0
1, 11808, Note_on_c, 0, 69, 63
1, 11808, Note_on_c, 1, 57, 63
1, 11853, Note_on_c, 0, 69, 0
1, 11853, Note_on_c, 1, 57, 0
1, 11856, Note_on_c, 0, 66, 63
1, 11856, Note_on_c, 1, 54, 63
1, 11901, Note_on_c, 0, 66, 0
1, 11901, Note_on_c, 1, 54, 0
1, 11904, Note_on_c, 0, 62, 63
1, 11904, Note_on_c, 1, 50, 63
1, 11949, Note_on_c, 0, 62, 0
1, 11949, Note_on_c, 1, 50, 0
1, 11952, Note_on_c, 0, 57, 63
1, 11952, Note_on_c, 1, 45, 63
1, 11997, Note_on_c, 0, 57, 0
1, 11997, Note_on_c, 1, 45, 0
1, 12000, Note_on_c, 0, 59, 63
1, 12000, Note_on_c, 1, 47, 63
1, 12045, Note_on_c, 0, 59, 0
1, 12045, Note_on_c, 1, 47, 0
1, 12048, Note_on_c, 0, 61, 63
1, 12048, Note_on_c, 1, 49, 63
1, 12093, Note_on_c, 0, 61, 0
1, 12093, Note_on_c, 1, 49, 0
1, 12096, Note_on_c, 1, 50, 63
1, 12096, Note_on_c, 1, 38, 63
1, 12185, Note_on_c, 1, 50, 0
1, 12185, Note_on_c, 1, 38, 0
1, 12384, Note_on_c, 1, 59, 77
1, 12384, Note_on_c, 1, 55, 77
1, 12423, Note_on_c, 1, 59, 0
1, 12423, Note_on_c, 1, 55, 0
1, 12432, Note_on_c, 0, 79, 77
1, 12480, Note_on_c, 0, 79, 0
1, 12480, Note_on_c, 0, 67, 77
1, 12525, Note_on_c, 0, 67, 0
1, 12528, Note_on_c, 1, 64, 77
1, 12528, Note_on_c, 1, 60, 77
1, 12567, Note_on_c, 1, 64, 0
1, 12567, Note_on_c, 1, 60, 0
1, 12576, Note_on_c, 0, 79, 77
1, 12599, Note_on_c, 0, 79, 0
1, 12600, Note_on_c, 0, 81, 77
1, 12623, Note_on_c, 0, 81, 0
1, 12624, Note_on_c, 0, 79, 77
1, 12644, Note_on_c, 0, 79, 0
1, 12672, Note_on_c, 1, 62, 77
1, 12672, Note_on_c, 1, 59, 77
1, 12711, Note_on_c, 1, 62, 0
1, 12711, Note_on_c, 1, 59, 0
1, 12720, Note_on_c, 0, 79, 77
1, 12768, Note_on_c, 0, 79, 0
1, 12768, Note_on_c, 0, 67, 77
1, 12813, Note_on_c, 0, 67, 0
1, 12816, Note_on_c, 1, 60, 77
1, 12816, Note_on_c, 1, 57, 77
1, 12855, Note_on_c, 1, 60, 0
1, 12855, Note_on_c, 1, 57, 0
1, 12864, Note_on_c, 0, 79, 77
1, 12887, Note_on_c, 0, 79, 0
1, 12888, Note_on_c, 0, 81, 77
1, 12911, Note_on_c, 0, 81, 0
1, 12912, Note_on_c, 0, 79, 77
1, 12932, Note_on_c, 0, 79, 0
1, 12960, Note_on_c, 1, 59, 77
1, 12960, Note_on_c, 1, 55, 77
1, 12999, Note_on_c, 1, 59, 0
1, 12999, Note_on_c, 1, 55, 0
1, 13008, Note_on_c, 0, 79, 77
1, 13056, Note_on_c, 0, 79, 0
1, 13056, Note_on_c, 0, 67, 77
1, 13101, Note_on_c, 0, 67, 0
1, 13104, Note_on_c, 1, 59, 77
1, 13104, Note_on_c, 1, 47, 77
1, 13152, Note_on_c, 0, 78, 77
1, 13175, Note_on_c, 0, 78, 0
1, 13176, Note_on_c, 0, 79, 77
1, 13199, Note_on_c, 0, 79, 0
1, 13200, Note_on_c, 0, 83, 77
1, 13223, Note_on_c, 0, 83, 0
1, 13224, Note_on_c, 0, 79, 77
1, 13237, Note_on_c, 1, 59, 0
1, 13237, Note_on_c, 1, 47, 0
1, 13247, Note_on_c, 0, 79, 0
1, 13248, Note_on_c, 0, 76, 77
1, 13248, Note_on_c, 1, 60, 77
1, 13248, Note_on_c, 1, 48, 77
1, 13268, Note_on_c, 0, 76, 0
1, 13296, Note_on_c, 0, 80, 77
1, 13319, Note_on_c, 0, 80, 0
1, 13320, Note_on_c, 0, 81, 77
1, 13343, Note_on_c, 0, 81, 0
1, 13344, Note_on_c, 0, 84, 77
1, 13367, Note_on_c, 0, 84, 0
1, 13368, Note_on_c, 0, 81, 77
1, 13381, Note_on_c, 1, 60, 0
1, 13381, Note_on_c, 1, 48, 0
1, 13391, Note_on_c, 0, 81, 0
1, 13392, Note_on_c, 0, 74, 77
1, 13392, Note_on_c, 1, 62, 77
1, 13392, Note_on_c, 1, 50, 77
1, 13437, Note_on_c, 0, 74, 0
1, 13440, Note_on_c, 0, 86, 77
1, 13440, Note_on_c, 0, 74, 77
1, 13485, Note_on_c, 0, 86, 0
1, 13485, Note_on_c, 0, 74, 0
1, 13488, Note_on_c, 0, 84, 77
1, 13488, Note_on_c, 0, 72, 77
1, 13525, Note_on_c, 1, 62, 0
1, 13525, Note_on_c, 1, 50, 0
1, 13533, Note_on_c, 0, 84, 0
1, 13533, Note_on_c, 0, 72, 0
1, 13536, Note_on_c, 0, 84, 77
1, 13536, Note_on_c, 0, 72, 77
1, 13536, Note_on_c, 1, 55, 77
1, 13536, Note_on_c, 1, 43, 77
1, 13581, Note_on_c, 0, 84, 0
1, 13581, Note_on_c, 0, 72, 0
1, 13584, Note_on_c, 0, 83, 77
1, 13584, Note_on_c, 0, 71, 77
1, 13629, Note_on_c, 0, 83, 0
1, 13629, Note_on_c, 0, 71, 0
1, 13632, Note_on_c, 0, 81, 77
1, 13632, Note_on_c, 0, 69, 77
1, 13669, Note_on_c, 1, 55, 0
1, 13669, Note_on_c, 1, 43, 0
1, 13677, Note_on_c, 0, 81, 0
1, 13677, Note_on_c, 0, 69, 0
1, 13680, Note_on_c, 0, 67, 77
1, 13680, Note_on_c, 1, 59, 77
1, 13680, Note_on_c, 1, 47, 77
1, 13700, Note_on_c, 0, 67, 0
1, 13728, Note_on_c, 0, 78, 77
1, 13751, Note_on_c, 0, 78, 0
1, 13752, Note_on_c, 0, 79, 77
1, 13775, Note_on_c, 0, 79, 0
1, 13776, Note_on_c, 0, 83, 77
1, 13799, Note_on_c, 0, 83, 0
1, 13800, Note_on_c, 0, 79, 77
1, 13813, Note_on_c, 1, 59, 0
1, 13813, Note_on_c, 1, 47, 0
1, 13823, Note_on_c, 0, 79, 0
1, 13824, Note_on_c, 0, 76, 77
1, 13824, Note_on_c, 1, 60, 77
1, 13824, Note_on_c, 1, 48, 77
1, 13844, Note_on_c, 0, 76, 0
1, 13872, Note_on_c, 0, 80, 77
1, 13895, Note_on_c, 0, 80, 0
1, 13896, Note_on_c, 0, 81, 77
1, 13919, Note_on_c, 0, 81, 0
1, 13920, Note_on_c, 0, 84, 77
1, 13943, Note_on_c, 0, 84, 0
1, 13944, Note_on_c, 0, 81, 77
1, 13957, Note_on_c, 1, 60, 0
1, 13957, Note_on_c, 1, 48, 0
1, 13967, Note_on_c, 0, 81, 0
1, 13968, Note_on_c, 0, 74, 77
1, 13968, Note_on_c, 1, 62, 77
1, 13968, Note_on_c, 1, 50, 77
1, 14013, Note_on_c, 0, 74, 0
1, 14016, Note_on_c, 0, 86, 77
1, 14016, Note_on_c, 0, 74, 77
1, 14061, Note_on_c, 0, 86, 0
1, 14061, Note_on_c, 0, 74, 0
1, 14064, Note_on_c, 0, 84, 77
1, 14064, Note_on_c, 0, 72, 77
1, 14101, Note_on_c, 1, 62, 0
1, 14101, Note_on_c, 1, 50, 0
1, 14109, Note_on_c, 0, 84, 0
1, 14109, Note_on_c, 0, 72, 0
1, 14112, Note_on_c, 0, 83, 77
1, 14112, Note_on_c, 0, 71, 77
1, 14112, Note_on_c, 1, 55, 77
1, 14112, Note_on_c, 1, 43, 77
1, 14201, Note_on_c, 1, 55, 0
1, 14201, Note_on_c, 1, 43, 0
1, 14245, Note_on_c, 0, 83, 0
1, 14245, Note_on_c, 0, 71, 0
1, 14256, Note_on_c, 1, 62, 77
1, 14256, Note_on_c, 1, 59, 77
1, 14304, Note_on_c, 0, 78, 77
1, 14327, Note_on_c, 0, 78, 0
1, 14328, Note_on_c, 0, 79, 77
1, 14345, Note_on_c, 1, 62, 0
1, 14345, Note_on_c, 1, 59, 0
1, 14351, Note_on_c, 0, 79, 0
1, 14352, Note_on_c, 0, 83, 77
1, 14375, Note_on_c, 0, 83, 0
1, 14376, Note_on_c, 0, 79, 77
1, 14399, Note_on_c, 0, 79, 0
1, 14400, Note_on_c, 0, 76, 77
1, 14400, Note_on_c, 1, 64, 77
1, 14400, Note_on_c, 1, 60, 77
1, 14420, Note_on_c, 0, 76, 0
1, 14448, Note_on_c, 0, 80, 77
1, 14471, Note_on_c, 0, 80, 0
1, 14472, Note_on_c, 0, 81, 77
1, 14489, Note_on_c, 1, 64, 0
1, 14489, Note_on_c, 1, 60, 0
1, 14495, Note_on_c, 0, 81, 0
1, 14496, Note_on_c, 0, 84, 77
1, 14519, Note_on_c, 0, 84, 0
1, 14520, Note_on_c, 0, 81, 77
1, 14543, Note_on_c, 0, 81, 0
1, 14544, Note_on_c, 0, 74, 77
1, 14544, Note_on_c, 1, 62, 77
1, 14589, Note_on_c, 0, 74, 0
1, 14592, Note_on_c, 0, 86, 77
1, 14633, Note_on_c, 1, 62, 0
1, 14637, Note_on_c, 0, 86, 0
1, 14640, Note_on_c, 0, 84, 77
1, 14640, Note_on_c, 0, 81, 77
1, 14640, Note_on_c, 1, 66, 77
1, 14685, Note_on_c, 0, 84, 0
1, 14685, Note_on_c, 0, 81, 0
1, 14685, Note_on_c, 1, 66, 0
1, 14688, Note_on_c, 0, 84, 77
1, 14688, Note_on_c, 0, 81, 77
1, 14688, Note_on_c, 1, 67, 77
1, 14733, Note_on_c, 0, 84, 0
1, 14733, Note_on_c, 0, 81, 0
1, 14733, Note_on_c, 1, 67, 0
1, 14736, Note_on_c, 0, 83, 77
1, 14736, Note_on_c, 0, 79, 77
1, 14736, Note_on_c, 1, 71, 77
1, 14781, Note_on_c, 0, 83, 0
1, 14781, Note_on_c, 0, 79, 0
1, 14781, Note_on_c, 1, 71, 0
1, 14784, Note_on_c, 0, 81, 77
1, 14784, Note_on_c, 0, 78, 77
1, 14784, Note_on_c, 1, 74, 77
1, 14829, Note_on_c, 0, 81, 0
1, 14829, Note_on_c, 0, 78, 0
1, 14829, Note_on_c, 1, 74, 0
1, 14832, Note_on_c, 0, 74, 77
1, 14877, Note_on_c, 0, 74, 0
1, 14880, Note_on_c, 0, 84, 77
1, 14925, Note_on_c, 0, 84, 0
1, 14928, Note_on_c, 0, 83, 77
1, 14928, Note_on_c, 1, 67, 77
1, 14973, Note_on_c, 0, 83, 0
1, 14973, Note_on_c, 1, 67, 0
1, 14976, Note_on_c, 0, 83, 77
1, 14976, Note_on_c, 1, 76, 77
1, 14976, Note_on_c, 1, 72, 77
1, 15021, Note_on_c, 0, 83, 0
1, 15024, Note_on_c, 0, 81, 77
1, 15069, Note_on_c, 0, 81, 0
1, 15072, Note_on_c, 0, 79, 77
1, 15072, Note_on_c, 1, 76, 0
1, 15072, Note_on_c, 1, 72, 0
1, 15072, Note_on_c, 1, 74, 77
1, 15072, Note_on_c, 1, 71, 77
1, 15117, Note_on_c, 0, 79, 0
1, 15117, Note_on_c, 1, 74, 0
1, 15117, Note_on_c, 1, 71, 0
1, 15120, Note_on_c, 0, 74, 77
1, 15165, Note_on_c, 0, 74, 0
1, 15168, Note_on_c, 0, 86, 77
1, 15213, Note_on_c, 0, 86, 0
1, 15216, Note_on_c, 0, 84, 77
1, 15216, Note_on_c, 0, 81, 77
1, 15216, Note_on_c, 1, 66, 77
1, 15261, Note_on_c, 0, 84, 0
1, 15261, Note_on_c, 0, 81, 0
1, 15261, Note_on_c, 1, 66, 0
1, 15264, Note_on_c, 0, 84, 77
1, 15264, Note_on_c, 0, 81, 77
1, 15264, Note_on_c, 1, 67, 77
1, 15309, Note_on_c, 0, 84, 0
1, 15309, Note_on_c, 0, 81, 0
1, 15309, Note_on_c, 1, 67, 0
1, 15312, Note_on_c, 0, 83, 77
1, 15312, Note_on_c, 0, 79, 77
1, 15312, Note_on_c, 1, 71, 77
1, 15357, Note_on_c, 0, 83, 0
1, 15357, Note_on_c, 0, 79, 0
1, 15357, Note_on_c, 1, 71, 0
1, 15360, Note_on_c, 0, 81, 77
1, 15360, Note_on_c, 0, 78, 77
1, 15360, Note_on_c, 1, 74, 77
1, 15405, Note_on_c, 0, 81, 0
1, 15405, Note_on_c, 0, 78, 0
1, 15405, Note_on_c, 1, 74, 0
1, 15408, Note_on_c, 0, 74, 77
1, 15453, Note_on_c, 0, 74, 0
1, 15456, Note_on_c, 0, 84, 77
1, 15501, Note_on_c, 0, 84, 0
1, 15504, Note_on_c, 0, 83, 77
1, 15504, Note_on_c, 1, 67, 77
1, 15549, Note_on_c, 0, 83, 0
1, 15549, Note_on_c, 1, 67, 0
1, 15552, Note_on_c, 0, 83, 77
1, 15552, Note_on_c, 1, 76, 77
1, 15552, Note_on_c, 1, 72, 77
1, 15597, Note_on_c, 0, 83, 0
1, 15600, Note_on_c, 0, 81, 77
1, 15645, Note_on_c, 0, 81, 0
1, 15648, Note_on_c, 0, 79, 77
1, 15648, Note_on_c, 1, 76, 0
1, 15648, Note_on_c, 1, 72, 0
1, 15648, Note_on_c, 1, 74, 77
1, 15648, Note_on_c, 1, 71, 77
1, 15693, Note_on_c, 0, 79, 0
1, 15693, Note_on_c, 1, 74, 0
1, 15693, Note_on_c, 1, 71, 0
1, 15696, Note_on_c, 0, 78, 77
1, 15696, Note_on_c, 1, 72, 77
1, 15696, Note_on_c, 1, 69, 77
1, 15696, Note_on_c, 1, 62, 64
1, 15719, Note_on_c, 0, 78, 0
1, 15720, Note_on_c, 0, 74, 77
1, 15743, Note_on_c, 0, 74, 0
1, 15744, Note_on_c, 0, 78, 77
1, 15767, Note_on_c, 0, 78, 0
1, 15768, Note_on_c, 0, 74, 77
1, 15785, Note_on_c, 1, 72, 0
1, 15785, Note_on_c, 1, 69, 0
1, 15791, Note_on_c, 0, 74, 0
1, 15792, Note_on_c, 0, 79, 77
1, 15792, Note_on_c, 1, 71, 77
1, 15792, Note_on_c, 1, 67, 77
1, 15829, Note_on_c, 1, 62, 0
1, 15837, Note_on_c, 0, 79, 0
1, 15837, Note_on_c, 1, 71, 0
1, 15837, Note_on_c, 1, 67, 0
1, 15840, Note_on_c, 0, 84, 77
1, 15840, Note_on_c, 0, 81, 64
1, 15840, Note_on_c, 1, 69, 77
1, 15840, Note_on_c, 1, 66, 77
1, 15840, Note_on_c, 1, 62, 64
1, 15863, Note_on_c, 0, 81, 0
1, 15864, Note_on_c, 0, 74, 64
1, 15885, Note_on_c, 0, 84, 0
1, 15887, Note_on_c, 0, 74, 0
1, 15888, Note_on_c, 0, 84, 77
1, 15888, Note_on_c, 0, 81, 64
1, 15911, Note_on_c, 0, 81, 0
1, 15912, Note_on_c, 0, 74, 64
1, 15929, Note_on_c, 1, 69, 0
1, 15929, Note_on_c, 1, 66, 0
1, 15933, Note_on_c, 0, 84, 0
1, 15935, Note_on_c, 0, 74, 0
1, 15936, Note_on_c, 0, 83, 77
1, 15936, Note_on_c, 0, 79, 64
1, 15936, Note_on_c, 1, 71, 77
1, 15936, Note_on_c, 1, 67, 77
1, 15973, Note_on_c, 1, 62, 0
1, 15981, Note_on_c, 0, 83, 0
1, 15981, Note_on_c, 0, 79, 0
1, 15981, Note_on_c, 1, 71, 0
1, 15981, Note_on_c, 1, 67, 0
1, 15984, Note_on_c, 0, 78, 64
1, 15984, Note_on_c, 1, 72, 77
1, 15984, Note_on_c, 1, 69, 77
1, 15984, Note_on_c, 1, 62, 64
1, 16007, Note_on_c, 0, 78, 0
1, 16008, Note_on_c, 0, 74, 64
1, 16031, Note_on_c, 0, 74, 0
1, 16032, Note_on_c, 0, 78, 64
1, 16055, Note_on_c, 0, 78, 0
1, 16056, Note_on_c, 0, 74, 64
1, 16073, Note_on_c, 1, 72, 0
1, 16073, Note_on_c, 1, 69, 0
1, 16079, Note_on_c, 0, 74, 0
1, 16080, Note_on_c, 0, 79, 64
1, 16080, Note_on_c, 1, 71, 77
1, 16080, Note_on_c, 1, 67, 77
1, 16117, Note_on_c, 1, 62, 0
1, 16125, Note_on_c, 0, 79, 0
1, 16125, Note_on_c, 1, 71, 0
1, 16125, Note_on_c, 1, 67, 0
1, 16128, Note_on_c, 0, 84, 77
1, 16128, Note_on_c, 0, 81, 64
1, 16128, Note_on_c, 1, 69, 77
1, 16128, Note_on_c, 1, 66, 77
1, 16128, Note_on_c, 1, 62, 64
1, 16151, Note_on_c, 0, 81, 0
1, 16152, Note_on_c, 0, 74, 64
1, 16173, Note_on_c, 0, 84, 0
1, 16175, Note_on_c, 0, 74, 0
1, 16176, Note_on_c, 0, 84, 77
1, 16176, Note_on_c, 0, 81, 64
1, 16199, Note_on_c, 0, 81, 0
1, 16200, Note_on_c, 0, 74, 64
1, 16217, Note_on_c, 1, 69, 0
1, 16217, Note_on_c, 1, 66, 0
1, 16221, Note_on_c, 0, 84, 0
1, 16223, Note_on_c, 0, 74, 0
1, 16224, Note_on_c, 0, 83, 77
1, 16224, Note_on_c, 0, 79, 64
1, 16224, Note_on_c, 1, 71, 77
1, 16224, Note_on_c, 1, 67, 77
1, 16261, Note_on_c, 1, 62, 0
1, 16269, Note_on_c, 0, 83, 0
1, 16269, Note_on_c, 0, 79, 0
1, 16269, Note_on_c, 1, 71, 0
1, 16269, Note_on_c, 1, 67, 0
1, 16272, Note_on_c, 0, 78, 64
1, 16272, Note_on_c, 1, 72, 77
1, 16272, Note_on_c, 1, 69, 77
1, 16272, Note_on_c, 1, 62, 64
1, 16295, Note_on_c, 0, 78, 0
1, 16296, Note_on_c, 0, 74, 64
1, 16319, Note_on_c, 0, 74, 0
1, 16320, Note_on_c, 0, 78, 64
1, 16343, Note_on_c, 0, 78, 0
1, 16344, Note_on_c, 0, 74, 64
1, 16361, Note_on_c, 1, 72, 0
1, 16361, Note_on_c, 1, 69, 0
1, 16367, Note_on_c, 0, 74, 0
1, 16368, Note_on_c, 0, 79, 64
1, 16368, Note_on_c, 1, 71, 77
1, 16368, Note_on_c, 1, 67, 77
1, 16405, Note_on_c, 1, 62, 0
1, 16413, Note_on_c, 0, 79, 0
1, 16413, Note_on_c, 1, 71, 0
1, 16413, Note_on_c, 1, 67, 0
1, 16416, Note_on_c, 0, 84, 77
1, 16416, Note_on_c, 0, 81, 64
1, 16416, Note_on_c, 1, 69, 77
1, 16416, Note_on_c, 1, 66, 77
1, 16416, Note_on_c, 1, 62, 64
1, 16439, Note_on_c, 0, 81, 0
1, 16440, Note_on_c, 0, 74, 64
1, 16461, Note_on_c, 0, 84, 0
1, 16463, Note_on_c, 0, 74, 0
1, 16464, Note_on_c, 0, 84, 77
1, 16464, Note_on_c, 0, 81, 64
1, 16487, Note_on_c, 0, 81, 0
1, 16488, Note_on_c, 0, 74, 64
1, 16505, Note_on_c, 1, 69, 0
1, 16505, Note_on_c, 1, 66, 0
1, 16509, Note_on_c, 0, 84, 0
1, 16511, Note_on_c, 0, 74, 0
1, 16512, Note_on_c, 0, 83, 77
1, 16512, Note_on_c, 0, 79, 64
1, 16512, Note_on_c, 1, 67, 77
1, 16549, Note_on_c, 1, 62, 0
1, 16557, Note_on_c, 0, 83, 0
1, 16557, Note_on_c, 0, 79, 0
1, 16557, Note_on_c, 1, 67, 0
1, 16560, Note_on_c, 0, 84, 77
1, 16560, Note_on_c, 0, 81, 64
1, 16560, Note_on_c, 1, 69, 77
1, 16560, Note_on_c, 1, 66, 77
1, 16560, Note_on_c, 1, 62, 64
1, 16583, Note_on_c, 0, 81, 0
1, 16584, Note_on_c, 0, 74, 64
1, 16605, Note_on_c, 0, 84, 0
1, 16607, Note_on_c, 0, 74, 0
1, 16608, Note_on_c, 0, 84, 77
1, 16608, Note_on_c, 0, 81, 64
1, 16631, Note_on_c, 0, 81, 0
1, 16632, Note_on_c, 0, 74, 64
1, 16649, Note_on_c, 1, 69, 0
1, 16649, Note_on_c, 1, 66, 0
1, 16653, Note_on_c, 0, 84, 0
1, 16655, Note_on_c, 0, 74, 0
1, 16656, Note_on_c, 0, 83, 77
1, 16656, Note_on_c, 0, 79, 64
1, 16656, Note_on_c, 1, 67, 77
1, 16693, Note_on_c, 1, 62, 0
1, 16701, Note_on_c, 0, 83, 0
1, 16701, Note_on_c, 0, 79, 0
1, 16701, Note_on_c, 1, 67, 0
1, 16704, Note_on_c, 0, 81, 77
1, 16704, Note_on_c, 0, 78, 64
1, 16704, Note_on_c, 1, 69, 77
1, 16704, Note_on_c, 1, 66, 77
1, 16704, Note_on_c, 1, 62, 77
1, 16749, Note_on_c, 0, 81, 0
1, 16749, Note_on_c, 0, 78, 0
1, 16749, Note_on_c, 1, 69, 0
1, 16749, Note_on_c, 1, 66, 0
1, 16749, Note_on_c, 1, 62, 0
1, 16752, Note_on_c, 0, 86, 77
1, 16752, Note_on_c, 0, 78, 64
1, 16752, Note_on_c, 1, 69, 77
1, 16752, Note_on_c, 1, 66, 77
1, 16752, Note_on_c, 1, 62, 77
1, 16797, Note_on_c, 0, 86, 0
1, 16797, Note_on_c, 0, 78, 0
1, 16797, Note_on_c, 1, 69, 0
1, 16797, Note_on_c, 1, 66, 0
1, 16797, Note_on_c, 1, 62, 0
1, 16800, Note_on_c, 0, 86, 77
1, 16800, Note_on_c, 0, 78, 64
1, 16800, Note_on_c, 1, 69, 77
1, 16800, Note_on_c, 1, 66, 77
1, 16800, Note_on_c, 1, 62, 77
1, 16845, Note_on_c, 0, 86, 0
1, 16845, Note_on_c, 0, 78, 0
1, 16845, Note_on_c, 1, 69, 0
1, 16845, Note_on_c, 1, 66, 0
1, 16845, Note_on_c, 1, 62, 0
1, 16848, Note_on_c, 0, 86, 77
1, 16848, Note_on_c, 0, 78, 64
1, 16848, Note_on_c, 1, 69, 77
1, 16848, Note_on_c, 1, 66, 77
1, 16848, Note_on_c, 1, 62, 77
1, 16937, Note_on_c, 0, 86, 0
1, 16937, Note_on_c, 0, 78, 0
1, 16937, Note_on_c, 1, 69, 0
1, 16937, Note_on_c, 1, 66, 0
1, 16937, Note_on_c, 1, 62, 0
1, 16992, Note_on_c, 0, 81, 77
1, 16992, Note_on_c, 0, 78, 77
1, 17031, Note_on_c, 0, 81, 0
1, 17031, Note_on_c, 0, 78, 0
1, 17040, Note_on_c, 1, 50, 77
1, 17085, Note_on_c, 1, 50, 0
1, 17088, Note_on_c, 1, 38, 77
1, 17133, Note_on_c, 1, 38, 0
1, 17136, Note_on_c, 0, 86, 77
1, 17136, Note_on_c, 0, 78, 77
1, 17175, Note_on_c, 0, 86, 0
1, 17175, Note_on_c, 0, 78, 0
1, 17184, Note_on_c, 1, 62, 77
1, 17208, Note_on_c, 1, 62, 0
1, 17208, Note_on_c, 1, 61, 77
1, 17231, Note_on_c, 1, 61, 0
1, 17232, Note_on_c, 1, 62, 77
1, 17252, Note_on_c, 1, 62, 0
1, 17280, Note_on_c, 0, 83, 77
1, 17280, Note_on_c, 0, 79, 77
1, 17319, Note_on_c, 0, 83, 0
1, 17319, Note_on_c, 0, 79, 0
1, 17328, Note_on_c, 1, 50, 77
1, 17373, Note_on_c, 1, 50, 0
1, 17376, Note_on_c, 1, 38, 77
1, 17421, Note_on_c, 1, 38, 0
1, 17424, Note_on_c, 0, 79, 77
1, 17424, Note_on_c, 0, 73, 77
1, 17463, Note_on_c, 0, 79, 0
1, 17463, Note_on_c, 0, 73, 0
1, 17472, Note_on_c, 1, 62, 77
1, 17496, Note_on_c, 1, 62, 0
1, 17496, Note_on_c, 1, 61, 77
1, 17519, Note_on_c, 1, 61, 0
1, 17520, Note_on_c, 1, 62, 77
1, 17540, Note_on_c, 1, 62, 0
1, 17568, Note_on_c, 0, 81, 77
1, 17568, Note_on_c, 0, 78, 77
1, 17607, Note_on_c, 0, 81, 0
1, 17607, Note_on_c, 0, 78, 0
1, 17616, Note_on_c, 1, 50, 77
1, 17661, Note_on_c, 1, 50, 0
1, 17664, Note_on_c, 1, 38, 77
1, 17709, Note_on_c, 1, 38, 0
1, 17712, Note_on_c, 0, 86, 77
1, 17712, Note_on_c, 0, 78, 77
1, 17751, Note_on_c, 0, 86, 0
1, 17751, Note_on_c, 0, 78, 0
1, 17760, Note_on_c, 1, 62, 77
1, 17784, Note_on_c, 1, 62, 0
1, 17784, Note_on_c, 1, 61, 77
1, 17807, Note_on_c, 1, 61, 0
1, 17808, Note_on_c, 1, 62, 77
1, 17828, Note_on_c, 1, 62, 0
1, 17856, Note_on_c, 0, 83, 77
1, 17856, Note_on_c, 0, 79, 77
1, 17895, Note_on_c, 0, 83, 0
1, 17895, Note_on_c, 0, 79, 0
1, 17904, Note_on_c, 1, 50, 77
1, 17949, Note_on_c, 1, 50, 0
1, 17952, Note_on_c, 1, 38, 77
1, 17997, Note_on_c, 1, 38, 0
1, 18000, Note_on_c, 0, 79, 77
1, 18000, Note_on_c, 0, 73, 77
1, 18039, Note_on_c, 0, 79, 0
1, 18039, Note_on_c, 0, 73, 0
1, 18048, Note_on_c, 1, 62, 77
1, 18072, Note_on_c, 1, 62, 0
1, 18072, Note_on_c, 1, 61, 77
1, 18095, Note_on_c, 1, 61, 0
1, 18096, Note_on_c, 1, 62, 77
1, 18116, Note_on_c, 1, 62, 0
1, 18144, Note_on_c, 0, 78, 77
1, 18144, Note_on_c, 0, 74, 77
1, 18183, Note_on_c, 0, 78, 0
1, 18183, Note_on_c, 0, 74, 0
1, 18192, Note_on_c, 1, 50, 77
1, 18237, Note_on_c, 1, 50, 0
1, 18240, Note_on_c, 1, 38, 77
1, 18285, Note_on_c, 1, 38, 0
1, 18288, Note_on_c, 0, 86, 77
1, 18288, Note_on_c, 0, 78, 77
1, 18327, Note_on_c, 0, 86, 0
1, 18327, Note_on_c, 0, 78, 0
1, 18336, Note_on_c, 1, 59, 77
1, 18360, Note_on_c, 1, 59, 0
1, 18360, Note_on_c, 1, 58, 77
1, 18383, Note_on_c, 1, 58, 0
1, 18384, Note_on_c, 1, 59, 77
1, 18404, Note_on_c, 1, 59, 0
1, 18432, Note_on_c, 0, 76, 77
1, 18432, Note_on_c, 0, 74, 77
1, 18471, Note_on_c, 0, 76, 0
1, 18471, Note_on_c, 0, 74, 0
1, 18480, Note_on_c, 1, 55, 77
1, 18503, Note_on_c, 1, 55, 0
1, 18504, Note_on_c, 1, 54, 77
1, 18527, Note_on_c, 1, 54, 0
1, 18528, Note_on_c, 1, 55, 77
1, 18573, Note_on_c, 1, 55, 0
1, 18576, Note_on_c, 0, 83, 77
1, 18576, Note_on_c, 0, 74, 77
1, 18615, Note_on_c, 0, 83, 0
1, 18615, Note_on_c, 0, 74, 0
1, 18624, Note_on_c, 1, 56, 77
1, 18648, Note_on_c, 1, 56, 0
1, 18648, Note_on_c, 1, 54, 77
1, 18671, Note_on_c, 1, 54, 0
1, 18672, Note_on_c, 1, 56, 77
1, 18692, Note_on_c, 1, 56, 0
1, 18720, Note_on_c, 0, 73, 77
1, 18720, Note_on_c, 1, 57, 77
1, 18743, Note_on_c, 0, 73, 0
1, 18744, Note_on_c, 0, 69, 77
1, 18765, Note_on_c, 1, 57, 0
1, 18767, Note_on_c, 0, 69, 0
1, 18768, Note_on_c, 0, 74, 77
1, 18768, Note_on_c, 1, 59, 77
1, 18791, Note_on_c, 0, 74, 0
1, 18792, Note_on_c, 0, 69, 77
1, 18813, Note_on_c, 1, 59, 0
1, 18815, Note_on_c, 0, 69, 0
1, 18816, Note_on_c, 0, 76, 77
1, 18816, Note_on_c, 1, 61, 77
1, 18839, Note_on_c, 0, 76, 0
1, 18840, Note_on_c, 0, 69, 77
1, 18861, Note_on_c, 1, 61, 0
1, 18863, Note_on_c, 0, 69, 0
1, 18864, Note_on_c, 0, 78, 77
1, 18864, Note_on_c, 1, 62, 77
1, 18887, Note_on_c, 0, 78, 0
1, 18888, Note_on_c, 0, 69, 77
1, 18911, Note_on_c, 0, 69, 0
1, 18912, Note_on_c, 0, 76, 77
1, 18912, Note_on_c, 1, 62, 0
1, 18912, Note_on_c, 1, 61, 77
1, 18935, Note_on_c, 0, 76, 0
1, 18936, Note_on_c, 0, 69, 77
1, 18957, Note_on_c, 1, 61, 0
1, 18959, Note_on_c, 0, 69, 0
1, 18960, Note_on_c, 0, 81, 77
1, 18983, Note_on_c, 0, 81, 0
1, 18984, Note_on_c, 0, 69, 77
1, 19007, Note_on_c, 0, 69, 0
1, 19008, Note_on_c, 0, 73, 77
1, 19008, Note_on_c, 1, 57, 77
1, 19031, Note_on_c, 0, 73, 0
1, 19032, Note_on_c, 0, 69, 77
1, 19053, Note_on_c, 1, 57, 0
1, 19055, Note_on_c, 0, 69, 0
1, 19056, Note_on_c, 0, 74, 77
1, 19056, Note_on_c, 1, 59, 77
1, 19079, Note_on_c, 0, 74, 0
1, 19080, Note_on_c, 0, 69, 77
1, 19101, Note_on_c, 1, 59, 0
1, 19103, Note_on_c, 0, 69, 0
1, 19104, Note_on_c, 0, 76, 77
1, 19104, Note_on_c, 1, 61, 77
1, 19127, Note_on_c, 0, 76, 0
1, 19128, Note_on_c, 0, 69, 77
1, 19149, Note_on_c, 1, 61, 0
1, 19151, Note_on_c, 0, 69, 0
1, 19152, Note_on_c, 0, 78, 77
1, 19152, Note_on_c, 1, 62, 77
1, 19175, Note_on_c, 0, 78, 0
1, 19176, Note_on_c, 0, 69, 77
1, 19199, Note_on_c, 0, 69, 0
1, 19200, Note_on_c, 0, 76, 77
1, 19200, Note_on_c, 1, 62, 0
1, 19200, Note_on_c, 1, 61, 77
1, 19223, Note_on_c, 0, 76, 0
1, 19224, Note_on_c, 0, 69, 77
1, 19245, Note_on_c, 1, 61, 0
1, 19247, Note_on_c, 0, 69, 0
1, 19248, Note_on_c, 0, 81, 77
1, 19271, Note_on_c, 0, 81, 0
1, 19272, Note_on_c, 0, 69, 77
1, 19295, Note_on_c, 0, 69, 0
1, 19296, Note_on_c, 0, 73, 77
1, 19296, Note_on_c, 1, 57, 77
1, 19319, Note_on_c, 0, 73, 0
1, 19320, Note_on_c, 0, 69, 77
1, 19341, Note_on_c, 1, 57, 0
1, 19343, Note_on_c, 0, 69, 0
1, 19344, Note_on_c, 0, 74, 77
1, 19344, Note_on_c, 1, 59, 77
1, 19367, Note_on_c, 0, 74, 0
1, 19368, Note_on_c, 0, 69, 77
1, 19389, Note_on_c, 1, 59, 0
1, 19391, Note_on_c, 0, 69, 0
1, 19392, Note_on_c, 0, 76, 77
1, 19392, Note_on_c, 1, 61, 77
1, 19415, Note_on_c, 0, 76, 0
1, 19416, Note_on_c, 0, 69, 77
1, 19437, Note_on_c, 1, 61, 0
1, 19439, Note_on_c, 0, 69, 0
1, 19440, Note_on_c, 0, 78, 77
1, 19440, Note_on_c, 1, 62, 77
1, 19463, Note_on_c, 0, 78, 0
1, 19464, Note_on_c, 0, 69, 77
1, 19485, Note_on_c, 1, 62, 0
1, 19487, Note_on_c, 0, 69, 0
1, 19488, Note_on_c, 0, 79, 77
1, 19488, Note_on_c, 1, 64, 77
1, 19511, Note_on_c, 0, 79, 0
1, 19512, Note_on_c, 0, 69, 77
1, 19533, Note_on_c, 1, 64, 0
1, 19535, Note_on_c, 0, 69, 0
1, 19536, Note_on_c, 0, 81, 77
1, 19536, Note_on_c, 1, 66, 77
1, 19559, Note_on_c, 0, 81, 0
1, 19560, Note_on_c, 0, 69, 77
1, 19581, Note_on_c, 1, 66, 0
1, 19583, Note_on_c, 0, 69, 0
1, 19584, Note_on_c, 0, 83, 77
1, 19584, Note_on_c, 1, 67, 77
1, 19607, Note_on_c, 0, 83, 0
1, 19608, Note_on_c, 0, 79, 77
1, 19631, Note_on_c, 0, 79, 0
1, 19632, Note_on_c, 0, 78, 77
1, 19655, Note_on_c, 0, 78, 0
1, 19656, Note_on_c, 0, 76, 77
1, 19679, Note_on_c, 0, 76, 0
1, 19680, Note_on_c, 0, 75, 77
1, 19703, Note_on_c, 0, 75, 0
1, 19704, Note_on_c, 0, 76, 77
1, 19717, Note_on_c, 1, 67, 0
1, 19727, Note_on_c, 0, 76, 0
1, 19728, Note_on_c, 0, 81, 77
1, 19728, Note_on_c, 1, 66, 77
1, 19751, Note_on_c, 0, 81, 0
1, 19752, Note_on_c, 0, 78, 77
1, 19775, Note_on_c, 0, 78, 0
1, 19776, Note_on_c, 0, 76, 77
1, 19799, Note_on_c, 0, 76, 0
1, 19800, Note_on_c, 0, 74, 77
1, 19823, Note_on_c, 0, 74, 0
1, 19824, Note_on_c, 0, 73, 77
1, 19847, Note_on_c, 0, 73, 0
1, 19848, Note_on_c, 0, 74, 77
1, 19861, Note_on_c, 1, 66, 0
1, 19871, Note_on_c, 0, 74, 0
1, 19872, Note_on_c, 0, 86, 77
1, 19872, Note_on_c, 1, 71, 77
1, 19872, Note_on_c, 1, 68, 77
1, 19872, Note_on_c, 1, 64, 77
1, 19895, Note_on_c, 0, 86, 0
1, 19896, Note_on_c, 0, 88, 77
1, 19919, Note_on_c, 0, 88, 0
1, 19920, Note_on_c, 0, 86, 77
1, 19943, Note_on_c, 0, 86, 0
1, 19944, Note_on_c, 0, 85, 77
1, 19967, Note_on_c, 0, 85, 0
1, 19968, Note_on_c, 0, 83, 77
1, 19991, Note_on_c, 0, 83, 0
1, 19992, Note_on_c, 0, 81, 77
1, 20005, Note_on_c, 1, 71, 0
1, 20005, Note_on_c, 1, 68, 0
1, 20005, Note_on_c, 1, 64, 0
1, 20015, Note_on_c, 0, 81, 0
1, 20016, Note_on_c, 0, 80, 77
1, 20039, Note_on_c, 0, 80, 0
1, 20040, Note_on_c, 0, 78, 77
1, 20063, Note_on_c, 0, 78, 0
1, 20064, Note_on_c, 0, 76, 77
1, 20087, Note_on_c, 0, 76, 0
1, 20088, Note_on_c, 0, 74, 77
1, 20111, Note_on_c, 0, 74, 0
1, 20112, Note_on_c, 0, 73, 77
1, 20135, Note_on_c, 0, 73, 0
1, 20136, Note_on_c, 0, 71, 77
1, 20159, Note_on_c, 0, 71, 0
1, 20160, Note_on_c, 0, 79, 77
1, 20160, Note_on_c, 1, 67, 77
1, 20160, Note_on_c, 1, 64, 77
1, 20160, Note_on_c, 1, 61, 77
1, 20160, Note_on_c, 1, 57, 77
1, 20183, Note_on_c, 0, 79, 0
1, 20184, Note_on_c, 0, 81, 77
1, 20207, Note_on_c, 0, 81, 0
1, 20208, Note_on_c, 0, 79, 77
1, 20231, Note_on_c, 0, 79, 0
1, 20232, Note_on_c, 0, 78, 77
1, 20249, Note_on_c, 1, 67, 0
1, 20249, Note_on_c, 1, 64, 0
1, 20249, Note_on_c, 1, 61, 0
1, 20249, Note_on_c, 1, 57, 0
1, 20255, Note_on_c, 0, 78, 0
1, 20256, Note_on_c, 0, 76, 77
1, 20279, Note_on_c, 0, 76, 0
1, 20280, Note_on_c, 0, 74, 77
1, 20303, Note_on_c, 0, 74, 0
1, 20304, Note_on_c, 0, 73, 77
1, 20327, Note_on_c, 0, 73, 0
1, 20328, Note_on_c, 0, 71, 77
1, 20351, Note_on_c, 0, 71, 0
1, 20352, Note_on_c, 0, 69, 77
1, 20375, Note_on_c, 0, 69, 0
1, 20376, Note_on_c, 0, 67, 77
1, 20399, Note_on_c, 0, 67, 0
1, 20400, Note_on_c, 0, 66, 77
1, 20423, Note_on_c, 0, 66, 0
1, 20424, Note_on_c, 0, 64, 77
1, 20447, Note_on_c, 0, 64, 0
1, 20448, Note_on_c, 0, 66, 77
1, 20448, Note_on_c, 1, 50, 77
1, 20471, Note_on_c, 0, 66, 0
1, 20472, Note_on_c, 0, 62, 77
1, 20493, Note_on_c, 1, 50, 0
1, 20495, Note_on_c, 0, 62, 0
1, 20496, Note_on_c, 0, 67, 77
1, 20496, Note_on_c, 1, 52, 77
1, 20519, Note_on_c, 0, 67, 0
1, 20520, Note_on_c, 0, 62, 77
1, 20541, Note_on_c, 1, 52, 0
1, 20543, Note_on_c, 0, 62, 0
1, 20544, Note_on_c, 0, 69, 77
1, 20544, Note_on_c, 1, 54, 77
1, 20567, Note_on_c, 0, 69, 0
1, 20568, Note_on_c, 0, 62, 77
1, 20589, Note_on_c, 1, 54, 0
1, 20591, Note_on_c, 0, 62, 0
1, 20592, Note_on_c, 0, 71, 77
1, 20592, Note_on_c, 1, 55, 77
1, 20615, Note_on_c, 0, 71, 0
1, 20616, Note_on_c, 0, 62, 77
1, 20637, Note_on_c, 1, 55, 0
1, 20639, Note_on_c, 0, 62, 0
1, 20640, Note_on_c, 0, 73, 77
1, 20640, Note_on_c, 1, 57, 77
1, 20663, Note_on_c, 0, 73, 0
1, 20664, Note_on_c, 0, 62, 77
1, 20685, Note_on_c, 1, 57, 0
1, 20687, Note_on_c, 0, 62, 0
1, 20688, Note_on_c, 0, 74, 77
1, 20688, Note_on_c, 1, 59, 77
1, 20733, Note_on_c, 0, 74, 0
1, 20733, Note_on_c, 1, 59, 0
1, 20736, Note_on_c, 0, 66, 77
1, 20736, Note_on_c, 0, 62, 77
1, 20736, Note_on_c, 1, 57, 77
1, 20869, Note_on_c, 1, 57, 0
1, 20880, Note_on_c, 1, 45, 77
1, 20925, Note_on_c, 0, 66, 0
1, 20925, Note_on_c, 0, 62, 0
1, 20928, Note_on_c, 0, 67, 77
1, 20928, Note_on_c, 0, 64, 77
1, 20973, Note_on_c, 0, 67, 0
1, 20973, Note_on_c, 0, 64, 0
1, 20976, Note_on_c, 0, 64, 77
1, 20976, Note_on_c, 0, 61, 77
1, 21013, Note_on_c, 1, 45, 0
1, 21021, Note_on_c, 0, 64, 0
1, 21021, Note_on_c, 0, 61, 0
1, 21024, Note_on_c, 0, 62, 77
1, 21024, Note_on_c, 1, 50, 77
1, 21024, Note_on_c, 1, 50, 64
1, 21113, Note_on_c, 0, 62, 0
1, 21113, Note_on_c, 1, 50, 0
1, 21113, Note_on_c, 1, 50, 0
1, 21120, Note_on_c, 0, 74, 77
1, 21165, Note_on_c, 0, 74, 0
1, 21168, Note_on_c, 0, 64, 77
1, 21168, Note_on_c, 1, 62, 77
1, 21168, Note_on_c, 1, 55, 64
1, 21213, Note_on_c, 0, 64, 0
1, 21216, Note_on_c, 0, 67, 77
1, 21257, Note_on_c, 1, 55, 0
1, 21261, Note_on_c, 0, 67, 0
1, 21264, Note_on_c, 0, 66, 77
1, 21264, Note_on_c, 1, 57, 64
1, 21309, Note_on_c, 0, 66, 0
1, 21309, Note_on_c, 1, 57, 0
1, 21312, Note_on_c, 0, 69, 77
1, 21312, Note_on_c, 1, 59, 64
1, 21357, Note_on_c, 0, 69, 0
1, 21360, Note_on_c, 0, 67, 77
1, 21401, Note_on_c, 1, 59, 0
1, 21405, Note_on_c, 0, 67, 0
1, 21408, Note_on_c, 0, 66, 77
1, 21408, Note_on_c, 1, 57, 64
1, 21445, Note_on_c, 1, 62, 0
1, 21453, Note_on_c, 0, 66, 0
1, 21453, Note_on_c, 1, 57, 0
1, 21456, Note_on_c, 0, 64, 77
1, 21456, Note_on_c, 1, 62, 77
1, 21456, Note_on_c, 1, 55, 64
1, 21501, Note_on_c, 0, 64, 0
1, 21504, Note_on_c, 0, 71, 77
1, 21545, Note_on_c, 1, 55, 0
1, 21549, Note_on_c, 0, 71, 0
1, 21552, Note_on_c, 0, 66, 77
1, 21552, Note_on_c, 1, 57, 64
1, 21597, Note_on_c, 0, 66, 0
1, 21597, Note_on_c, 1, 57, 0
1, 21600, Note_on_c, 0, 69, 77
1, 21600, Note_on_c, 1, 59, 64
1, 21645, Note_on_c, 0, 69, 0
1, 21648, Note_on_c, 0, 67, 77
1, 21689, Note_on_c, 1, 59, 0
1, 21693, Note_on_c, 0, 67, 0
1, 21696, Note_on_c, 0, 66, 77
1, 21696, Note_on_c, 1, 57, 64
1, 21733, Note_on_c, 1, 62, 0
1, 21741, Note_on_c, 0, 66, 0
1, 21741, Note_on_c, 1, 57, 0
1, 21744, Note_on_c, 0, 64, 77
1, 21744, Note_on_c, 1, 62, 77
1, 21744, Note_on_c, 1, 56, 64
1, 21789, Note_on_c, 0, 64, 0
1, 21792, Note_on_c, 0, 71, 77
1, 21833, Note_on_c, 1, 56, 0
1, 21837, Note_on_c, 0, 71, 0
1, 21840, Note_on_c, 0, 66, 77
1, 21840, Note_on_c, 1, 57, 64
1, 21885, Note_on_c, 0, 66, 0
1, 21885, Note_on_c, 1, 57, 0
1, 21888, Note_on_c, 0, 69, 77
1, 21888, Note_on_c, 1, 59, 64
1, 21933, Note_on_c, 0, 69, 0
1, 21936, Note_on_c, 0, 68, 77
1, 21981, Note_on_c, 0, 68, 0
1, 21984, Note_on_c, 0, 71, 77
1, 22021, Note_on_c, 1, 62, 0
1, 22021, Note_on_c, 1, 59, 0
1, 22032, Note_on_c, 1, 64, 77
1, 22032, Note_on_c, 1, 61, 64
1, 22077, Note_on_c, 0, 71, 0
1, 22080, Note_on_c, 0, 69, 77
1, 22125, Note_on_c, 0, 69, 0
1, 22128, Note_on_c, 0, 79, 77
1, 22165, Note_on_c, 1, 64, 0
1, 22165, Note_on_c, 1, 61, 0
1, 22176, Note_on_c, 1, 62, 77
1, 22199, Note_on_c, 0, 79, 0
1, 22200, Note_on_c, 0, 78, 77
1, 22223, Note_on_c, 0, 78, 0
1, 22224, Note_on_c, 0, 81, 77
1, 22247, Note_on_c, 0, 81, 0
1, 22248, Note_on_c, 0, 79, 77
1, 22271, Note_on_c, 0, 79, 0
1, 22272, Note_on_c, 0, 78, 77
1, 22295, Note_on_c, 0, 78, 0
1, 22296, Note_on_c, 0, 76, 77
1, 22309, Note_on_c, 1, 62, 0
1, 22319, Note_on_c, 0, 76, 0
1, 22320, Note_on_c, 0, 74, 77
1, 22320, Note_on_c, 1, 57, 77
1, 22320, Note_on_c, 1, 54, 77
1, 22343, Note_on_c, 0, 74, 0
1, 22344, Note_on_c, 0, 73, 77
1, 22367, Note_on_c, 0, 73, 0
1, 22368, Note_on_c, 0, 71, 77
1, 22391, Note_on_c, 0, 71, 0
1, 22392, Note_on_c, 0, 69, 77
1, 22415, Note_on_c, 0, 69, 0
1, 22416, Note_on_c, 0, 67, 77
1, 22439, Note_on_c, 0, 67, 0
1, 22440, Note_on_c, 0, 66, 77
1, 22453, Note_on_c, 1, 57, 0
1, 22453, Note_on_c, 1, 54, 0
1, 22463, Note_on_c, 0, 66, 0
1, 22464, Note_on_c, 0, 64, 77
1, 22464, Note_on_c, 1, 59, 77
1, 22464, Note_on_c, 1, 55, 77
1, 22509, Note_on_c, 0, 64, 0
1, 22512, Note_on_c, 0, 86, 77
1, 22512, Note_on_c, 0, 83, 77
1, 22532, Note_on_c, 0, 86, 0
1, 22532, Note_on_c, 0, 83, 0
1, 22553, Note_on_c, 1, 59, 0
1, 22553, Note_on_c, 1, 55, 0
1, 22560, Note_on_c, 0, 85, 77
1, 22560, Note_on_c, 0, 81, 77
1, 22580, Note_on_c, 0, 85, 0
1, 22580, Note_on_c, 0, 81, 0
1, 22608, Note_on_c, 0, 83, 77
1, 22608, Note_on_c, 0, 79, 77
1, 22628, Note_on_c, 0, 83, 0
1, 22628, Note_on_c, 0, 79, 0
1, 22656, Note_on_c, 0, 81, 77
1, 22656, Note_on_c, 0, 78, 77
1, 22676, Note_on_c, 0, 81, 0
1, 22676, Note_on_c, 0, 78, 0
1, 22704, Note_on_c, 0, 79, 77
1, 22704, Note_on_c, 0, 76, 77
1, 22724, Note_on_c, 0, 79, 0
1, 22724, Note_on_c, 0, 76, 0
1, 22752, Note_on_c, 0, 78, 77
1, 22752, Note_on_c, 1, 62, 77
1, 22752, Note_on_c, 1, 57, 77
1, 22764, Note_on_c, 0, 78, 0
1, 22764, Note_on_c, 0, 76, 77
1, 22776, Note_on_c, 0, 76, 0
1, 22776, Note_on_c, 0, 78, 77
1, 22797, Note_on_c, 0, 78, 0
1, 22800, Note_on_c, 0, 81, 77
1, 22845, Note_on_c, 0, 81, 0
1, 22848, Note_on_c, 0, 74, 77
1, 22885, Note_on_c, 1, 62, 0
1, 22885, Note_on_c, 1, 57, 0
1, 22893, Note_on_c, 0, 74, 0
1, 22896, Note_on_c, 0, 76, 77
1, 22896, Note_on_c, 1, 61, 77
1, 22896, Note_on_c, 1, 57, 77
1, 22908, Note_on_c, 0, 76, 0
1, 22908, Note_on_c, 0, 74, 77
1, 22920, Note_on_c, 0, 74, 0
1, 22920, Note_on_c, 0, 76, 77
1, 22941, Note_on_c, 0, 76, 0
1, 22944, Note_on_c, 0, 79, 77
1, 22989, Note_on_c, 0, 79, 0
1, 22992, Note_on_c, 0, 73, 77
1, 23029, Note_on_c, 1, 61, 0
1, 23029, Note_on_c, 1, 57, 0
1, 23037, Note_on_c, 0, 73, 0
1, 23040, Note_on_c, 0, 74, 77
1, 23040, Note_on_c, 1, 59, 77
1, 23040, Note_on_c, 1, 47, 77
1, 23063, Note_on_c, 0, 74, 0
1, 23064, Note_on_c, 0, 76, 77
1, 23085, Note_on_c, 1, 59, 0
1, 23085, Note_on_c, 1, 47, 0
1, 23087, Note_on_c, 0, 76, 0
1, 23088, Note_on_c, 0, 73, 77
1, 23088, Note_on_c, 1, 57, 77
1, 23088, Note_on_c, 1, 45, 77
1, 23111, Note_on_c, 0, 73, 0
1, 23112, Note_on_c, 0, 74, 77
1, 23133, Note_on_c, 1, 57, 0
1, 23133, Note_on_c, 1, 45, 0
1, 23135, Note_on_c, 0, 74, 0
1, 23136, Note_on_c, 0, 71, 77
1, 23136, Note_on_c, 1, 55, 77
1, 23136, Note_on_c, 1, 43, 77
1, 23156, Note_on_c, 0, 71, 0
1, 23181, Note_on_c, 1, 55, 0
1, 23181, Note_on_c, 1, 43, 0
1, 23184, Note_on_c, 0, 69, 77
1, 23184, Note_on_c, 1, 54, 77
1, 23184, Note_on_c, 1, 42, 77
1, 23207, Note_on_c, 0, 69, 0
1, 23208, Note_on_c, 0, 71, 77
1, 23229, Note_on_c, 1, 54, 0
1, 23229, Note_on_c, 1, 42, 0
1, 23231, Note_on_c, 0, 71, 0
1, 23232, Note_on_c, 0, 67, 77
1, 23232, Note_on_c, 1, 52, 77
1, 23232, Note_on_c, 1, 40, 77
1, 23255, Note_on_c, 0, 67, 0
1, 23256, Note_on_c, 0, 69, 77
1, 23277, Note_on_c, 1, 52, 0
1, 23277, Note_on_c, 1, 40, 0
1, 23279, Note_on_c, 0, 69, 0
1, 23280, Note_on_c, 0, 66, 77
1, 23280, Note_on_c, 1, 50, 77
1, 23280, Note_on_c, 1, 38, 77
1, 23300, Note_on_c, 0, 66, 0
1, 23325, Note_on_c, 1, 50, 0
1, 23325, Note_on_c, 1, 38, 0
1, 23328, Note_on_c, 0, 64, 77
1, 23328, Note_on_c, 1, 55, 77
1, 23328, Note_on_c, 1, 43, 77
1, 23373, Note_on_c, 0, 64, 0
1, 23376, Note_on_c, 0, 67, 77
1, 23421, Note_on_c, 0, 67, 0
1, 23424, Note_on_c, 0, 71, 77
1, 23469, Note_on_c, 0, 71, 0
1, 23472, Note_on_c, 0, 76, 77
1, 23517, Note_on_c, 0, 76, 0
1, 23520, Note_on_c, 0, 79, 77
1, 23532, Note_on_c, 0, 79, 0
1, 23532, Note_on_c, 0, 78, 77
1, 23544, Note_on_c, 0, 78, 0
1, 23544, Note_on_c, 0, 79, 77
1, 23565, Note_on_c, 0, 79, 0
1, 23568, Note_on_c, 0, 83, 77
1, 23593, Note_on_c, 1, 55, 0
1, 23593, Note_on_c, 1, 43, 0
1, 23613, Note_on_c, 0, 83, 0
1, 23616, Note_on_c, 0, 81, 77
1, 23616, Note_on_c, 1, 66, 77
1, 23616, Note_on_c, 1, 57, 77
1, 23661, Note_on_c, 0, 81, 0
1, 23664, Note_on_c, 0, 78, 77
1, 23709, Note_on_c, 0, 78, 0
1, 23712, Note_on_c, 0, 74, 77
1, 23749, Note_on_c, 1, 66, 0
1, 23749, Note_on_c, 1, 57, 0
1, 23757, Note_on_c, 0, 74, 0
1, 23760, Note_on_c, 0, 79, 77
1, 23760, Note_on_c, 1, 64, 77
1, 23760, Note_on_c, 1, 57, 77
1, 23805, Note_on_c, 0, 79, 0
1, 23808, Note_on_c, 0, 76, 77
1, 23853, Note_on_c, 0, 76, 0
1, 23856, Note_on_c, 0, 73, 77
1, 23893, Note_on_c, 1, 64, 0
1, 23893, Note_on_c, 1, 57, 0
1, 23901, Note_on_c, 0, 73, 0
1, 23904, Note_on_c, 0, 74, 63
1, 23904, Note_on_c, 1, 62, 63
1, 23949, Note_on_c, 0, 74, 0
1, 23949, Note_on_c, 1, 62, 0
1, 23952, Note_on_c, 0, 69, 63
1, 23952, Note_on_c, 1, 57, 63
1, 23997, Note_on_c, 0, 69, 0
1, 23997, Note_on_c, 1, 57, 0
1, 24000, Note_on_c, 0, 66, 63
1, 24000, Note_on_c, 1, 54, 63
1, 24045, Note_on_c, 0, 66, 0
1, 24045, Note_on_c, 1, 54, 0
1, 24048, Note_on_c, 0, 71, 63
1, 24048, Note_on_c, 1, 59, 63
1, 24093, Note_on_c, 0, 71, 0
1, 24093, Note_on_c, 1, 59, 0
1, 24096, Note_on_c, 0, 67, 63
1, 24096, Note_on_c, 1, 55, 63
1, 24141, Note_on_c, 0, 67, 0
1, 24141, Note_on_c, 1, 55, 0
1, 24144, Note_on_c, 0, 64, 63
1, 24144, Note_on_c, 1, 52, 63
1, 24189, Note_on_c, 0, 64, 0
1, 24189, Note_on_c, 1, 52, 0
1, 24192, Note_on_c, 0, 69, 63
1, 24192, Note_on_c, 1, 57, 63
1, 24237, Note_on_c, 0, 69, 0
1, 24237, Note_on_c, 1, 57, 0
1, 24240, Note_on_c, 0, 66, 63
1, 24240, Note_on_c, 1, 54, 63
1, 24285, Note_on_c, 0, 66, 0
1, 24285, Note_on_c, 1, 54, 0
1, 24288, Note_on_c, 0, 62, 63
1, 24288, Note_on_c, 1, 50, 63
1, 24333, Note_on_c, 0, 62, 0
1, 24333, Note_on_c, 1, 50, 0
1, 24336, Note_on_c, 0, 57, 63
1, 24336, Note_on_c, 1, 45, 63
1, 24381, Note_on_c, 0, 57, 0
1, 24381, Note_on_c, 1, 45, 0
1, 24384, Note_on_c, 0, 59, 63
1, 24384, Note_on_c, 1, 47, 63
1, 24429, Note_on_c, 0, 59, 0
1, 24429, Note_on_c, 1, 47, 0
1, 24432, Note_on_c, 0, 61, 63
1, 24432, Note_on_c, 1, 49, 63
1, 24477, Note_on_c, 0, 61, 0
1, 24477, Note_on_c, 1, 49, 0
1, 24480, Note_on_c, 1, 50, 63
1, 24480, Note_on_c, 1, 38, 63
1, 24569, Note_on_c, 1, 50, 0
1, 24569, Note_on_c, 1, 38, 0
1, 24768, Note_on_c, 1, 66, 77
1, 24768, Note_on_c, 1, 62, 77
1, 24807, Note_on_c, 1, 66, 0
1, 24807, Note_on_c, 1, 62, 0
1, 24816, Note_on_c, 0, 86, 77
1, 24864, Note_on_c, 0, 86, 0
1, 24864, Note_on_c, 0, 74, 77
1, 24909, Note_on_c, 0, 74, 0
1, 24912, Note_on_c, 1, 71, 77
1, 24912, Note_on_c, 1, 67, 77
1, 24951, Note_on_c, 1, 71, 0
1, 24951, Note_on_c, 1, 67, 0
1, 24960, Note_on_c, 0, 86, 77
1, 24983, Note_on_c, 0, 86, 0
1, 24984, Note_on_c, 0, 88, 77
1, 25007, Note_on_c, 0, 88, 0
1, 25008, Note_on_c, 0, 86, 77
1, 25028, Note_on_c, 0, 86, 0
1, 25056, Note_on_c, 1, 69, 77
1, 25056, Note_on_c, 1, 66, 77
1, 25095, Note_on_c, 1, 69, 0
1, 25095, Note_on_c, 1, 66, 0
1, 25104, Note_on_c, 0, 86, 77
1, 25152, Note_on_c, 0, 86, 0
1, 25152, Note_on_c, 0, 74, 77
1, 25197, Note_on_c, 0, 74, 0
1, 25200, Note_on_c, 1, 67, 77
1, 25200, Note_on_c, 1, 64, 77
1, 25239, Note_on_c, 1, 67, 0
1, 25239, Note_on_c, 1, 64, 0
1, 25248, Note_on_c, 0, 84, 77
1, 25271, Note_on_c, 0, 84, 0
1, 25272, Note_on_c, 0, 86, 77
1, 25295, Note_on_c, 0, 86, 0
1, 25296, Note_on_c, 0, 84, 77
1, 25316, Note_on_c, 0, 84, 0
1, 25344, Note_on_c, 1, 66, 77
1, 25344, Note_on_c, 1, 63, 77
1, 25383, Note_on_c, 1, 66, 0
1, 25383, Note_on_c, 1, 63, 0
1, 25392, Note_on_c, 0, 83, 77
1, 25440, Note_on_c, 0, 83, 0
1, 25440, Note_on_c, 0, 71, 77
1, 25485, Note_on_c, 0, 71, 0
1, 25488, Note_on_c, 1, 63, 77
1, 25488, Note_on_c, 1, 59, 77
1, 25527, Note_on_c, 1, 63, 0
1, 25527, Note_on_c, 1, 59, 0
1, 25536, Note_on_c, 0, 81, 77
1, 25559, Note_on_c, 0, 81, 0
1, 25560, Note_on_c, 0, 83, 77
1, 25583, Note_on_c, 0, 83, 0
1, 25584, Note_on_c, 0, 81, 77
1, 25604, Note_on_c, 0, 81, 0
1, 25632, Note_on_c, 0, 79, 77
1, 25632, Note_on_c, 0, 76, 77
1, 25671, Note_on_c, 0, 79, 0
1, 25671, Note_on_c, 0, 76, 0
1, 25680, Note_on_c, 1, 52, 77
1, 25728, Note_on_c, 1, 52, 0
1, 25728, Note_on_c, 1, 40, 77
1, 25773, Note_on_c, 1, 40, 0
1, 25776, Note_on_c, 0, 84, 77
1, 25776, Note_on_c, 0, 81, 77
1, 25815, Note_on_c, 0, 84, 0
1, 25815, Note_on_c, 0, 81, 0
1, 25824, Note_on_c, 1, 64, 77
1, 25847, Note_on_c, 1, 64, 0
1, 25848, Note_on_c, 1, 66, 77
1, 25871, Note_on_c, 1, 66, 0
1, 25872, Note_on_c, 1, 64, 77
1, 25892, Note_on_c, 1, 64, 0
1, 25920, Note_on_c, 0, 83, 77
1, 25920, Note_on_c, 0, 79, 77
1, 25959, Note_on_c, 0, 83, 0
1, 25959, Note_on_c, 0, 79, 0
1, 25968, Note_on_c, 1, 52, 77
1, 26016, Note_on_c, 1, 52, 0
1, 26016, Note_on_c, 1, 40, 77
1, 26061, Note_on_c, 1, 40, 0
1, 26064, Note_on_c, 0, 81, 77
1, 26064, Note_on_c, 0, 78, 77
1, 26103, Note_on_c, 0, 81, 0
1, 26103, Note_on_c, 0, 78, 0
1, 26112, Note_on_c, 1, 64, 77
1, 26135, Note_on_c, 1, 64, 0
1, 26136, Note_on_c, 1, 66, 77
1, 26159, Note_on_c, 1, 66, 0
1, 26160, Note_on_c, 1, 64, 77
1, 26180, Note_on_c, 1, 64, 0
1, 26208, Note_on_c, 0, 79, 77
1, 26208, Note_on_c, 0, 76, 77
1, 26247, Note_on_c, 0, 79, 0
1, 26247, Note_on_c, 0, 76, 0
1, 26256, Note_on_c, 1, 52, 77
1, 26304, Note_on_c, 1, 52, 0
1, 26304, Note_on_c, 1, 40, 77
1, 26349, Note_on_c, 1, 40, 0
1, 26352, Note_on_c, 0, 84, 77
1, 26352, Note_on_c, 0, 81, 77
1, 26391, Note_on_c, 0, 84, 0
1, 26391, Note_on_c, 0, 81, 0
1, 26400, Note_on_c, 1, 64, 77
1, 26423, Note_on_c, 1, 64, 0
1, 26424, Note_on_c, 1, 66, 77
1, 26447, Note_on_c, 1, 66, 0
1, 26448, Note_on_c, 1, 64, 77
1, 26468, Note_on_c, 1, 64, 0
1, 26496, Note_on_c, 0, 83, 77
1, 26496, Note_on_c, 0, 79, 77
1, 26535, Note_on_c, 0, 83, 0
1, 26535, Note_on_c, 0, 79, 0
1, 26544, Note_on_c, 1, 52, 77
1, 26592, Note_on_c, 1, 52, 0
1, 26592, Note_on_c, 1, 40, 77
1, 26637, Note_on_c, 1, 40, 0
1, 26640, Note_on_c, 0, 81, 77
1, 26640, Note_on_c, 0, 78, 77
1, 26679, Note_on_c, 0, 81, 0
1, 26679, Note_on_c, 0, 78, 0
1, 26688, Note_on_c, 1, 64, 77
1, 26711, Note_on_c, 1, 64, 0
1, 26712, Note_on_c, 1, 66, 77
1, 26735, Note_on_c, 1, 66, 0
1, 26736, Note_on_c, 1, 64, 77
1, 26756, Note_on_c, 1, 64, 0
1, 26784, Note_on_c, 0, 79, 77
1, 26784, Note_on_c, 0, 76, 77
1, 26823, Note_on_c, 0, 79, 0
1, 26823, Note_on_c, 0, 76, 0
1, 26832, Note_on_c, 1, 52, 77
1, 26877, Note_on_c, 1, 52, 0
1, 26880, Note_on_c, 1, 40, 77
1, 26925, Note_on_c, 1, 40, 0
1, 26928, Note_on_c, 0, 79, 77
1, 26976, Note_on_c, 0, 72, 64
1, 26976, Note_on_c, 1, 64, 77
1, 26999, Note_on_c, 0, 72, 0
1, 27000, Note_on_c, 0, 74, 64
1, 27021, Note_on_c, 1, 64, 0
1, 27023, Note_on_c, 0, 74, 0
1, 27024, Note_on_c, 0, 72, 64
1, 27024, Note_on_c, 1, 52, 77
1, 27044, Note_on_c, 0, 72, 0
1, 27061, Note_on_c, 0, 79, 0
1, 27069, Note_on_c, 1, 52, 0
1, 27072, Note_on_c, 0, 77, 77
1, 27072, Note_on_c, 0, 72, 64
1, 27117, Note_on_c, 0, 72, 0
1, 27120, Note_on_c, 0, 71, 64
1, 27120, Note_on_c, 1, 62, 77
1, 27165, Note_on_c, 0, 71, 0
1, 27165, Note_on_c, 1, 62, 0
1, 27168, Note_on_c, 0, 71, 64
1, 27168, Note_on_c, 1, 50, 77
1, 27205, Note_on_c, 0, 77, 0
1, 27213, Note_on_c, 0, 71, 0
1, 27213, Note_on_c, 1, 50, 0
1, 27216, Note_on_c, 0, 76, 77
1, 27264, Note_on_c, 0, 69, 64
1, 27264, Note_on_c, 1, 60, 77
1, 27287, Note_on_c, 0, 69, 0
1, 27288, Note_on_c, 0, 71, 64
1, 27309, Note_on_c, 1, 60, 0
1, 27311, Note_on_c, 0, 71, 0
1, 27312, Note_on_c, 0, 69, 64
1, 27312, Note_on_c, 1, 48, 77
1, 27332, Note_on_c, 0, 69, 0
1, 27349, Note_on_c, 0, 76, 0
1, 27357, Note_on_c, 1, 48, 0
1, 27360, Note_on_c, 0, 74, 77
1, 27360, Note_on_c, 0, 69, 64
1, 27405, Note_on_c, 0, 69, 0
1, 27408, Note_on_c, 0, 68, 64
1, 27408, Note_on_c, 1, 59, 77
1, 27453, Note_on_c, 0, 68, 0
1, 27453, Note_on_c, 1, 59, 0
1, 27456, Note_on_c, 0, 68, 64
1, 27456, Note_on_c, 1, 47, 77
1, 27493, Note_on_c, 0, 74, 0
1, 27501, Note_on_c, 0, 68, 0
1, 27501, Note_on_c, 1, 47, 0
1, 27504, Note_on_c, 0, 72, 64
1, 27504, Note_on_c, 1, 60, 77
1, 27504, Note_on_c, 1, 57, 77
1, 27549, Note_on_c, 0, 72, 0
1, 27552, Note_on_c, 0, 65, 64
1, 27575, Note_on_c, 0, 65, 0
1, 27576, Note_on_c, 0, 67, 64
1, 27599, Note_on_c, 0, 67, 0
1, 27600, Note_on_c, 0, 65, 64
1, 27620, Note_on_c, 0, 65, 0
1, 27637, Note_on_c, 1, 60, 0
1, 27637, Note_on_c, 1, 57, 0
1, 27648, Note_on_c, 1, 59, 77
1, 27648, Note_on_c, 1, 56, 77
1, 27696, Note_on_c, 0, 64, 77
1, 27741, Note_on_c, 0, 64, 0
1, 27744, Note_on_c, 0, 76, 77
1, 27781, Note_on_c, 1, 59, 0
1, 27781, Note_on_c, 1, 56, 0
1, 27789, Note_on_c, 0, 76, 0
1, 27792, Note_on_c, 1, 59, 77
1, 27792, Note_on_c, 1, 55, 77
1, 27840, Note_on_c, 0, 64, 77
1, 27863, Note_on_c, 0, 64, 0
1, 27864, Note_on_c, 0, 66, 77
1, 27887, Note_on_c, 0, 66, 0
1, 27888, Note_on_c, 0, 64, 77
1, 27925, Note_on_c, 1, 59, 0
1, 27925, Note_on_c, 1, 55, 0
1, 27933, Note_on_c, 0, 64, 0
1, 27936, Note_on_c, 1, 57, 77
1, 27936, Note_on_c, 1, 54, 77
1, 27984, Note_on_c, 0, 63, 77
1, 28029, Note_on_c, 0, 63, 0
1, 28032, Note_on_c, 0, 75, 77
1, 28069, Note_on_c, 1, 57, 0
1, 28069, Note_on_c, 1, 54, 0
1, 28077, Note_on_c, 0, 75, 0
1, 28080, Note_on_c, 1, 55, 77
1, 28080, Note_on_c, 1, 52, 77
1, 28128, Note_on_c, 0, 60, 77
1, 28151, Note_on_c, 0, 60, 0
1, 28152, Note_on_c, 0, 62, 77
1, 28175, Note_on_c, 0, 62, 0
1, 28176, Note_on_c, 0, 60, 77
1, 28196, Note_on_c, 0, 60, 0
1, 28213, Note_on_c, 1, 55, 0
1, 28213, Note_on_c, 1, 52, 0
1, 28224, Note_on_c, 1, 54, 77
1, 28224, Note_on_c, 1, 51, 77
1, 28272, Note_on_c, 0, 59, 77
1, 28317, Note_on_c, 0, 59, 0
1, 28320, Note_on_c, 0, 71, 77
1, 28357, Note_on_c, 1, 54, 0
1, 28357, Note_on_c, 1, 51, 0
1, 28365, Note_on_c, 0, 71, 0
1, 28368, Note_on_c, 1, 52, 77
1, 28368, Note_on_c, 1, 48, 77
1, 28416, Note_on_c, 0, 69, 77
1, 28439, Note_on_c, 0, 69, 0
1, 28440, Note_on_c, 0, 71, 77
1, 28463, Note_on_c, 0, 71, 0
1, 28464, Note_on_c, 0, 69, 77
1, 28484, Note_on_c, 0, 69, 0
1, 28501, Note_on_c, 1, 52, 0
1, 28501, Note_on_c, 1, 48, 0
1, 28512, Note_on_c, 0, 67, 77
1, 28512, Note_on_c, 1, 52, 77
1, 28535, Note_on_c, 0, 67, 0
1, 28536, Note_on_c, 0, 64, 77
1, 28557, Note_on_c, 1, 52, 0
1, 28559, Note_on_c, 0, 64, 0
1, 28560, Note_on_c, 0, 69, 77
1, 28560, Note_on_c, 1, 54, 77
1, 28583, Note_on_c, 0, 69, 0
1, 28584, Note_on_c, 0, 64, 77
1, 28605, Note_on_c, 1, 54, 0
1, 28607, Note_on_c, 0, 64, 0
1, 28608, Note_on_c, 0, 71, 77
1, 28608, Note_on_c, 1, 55, 77
1, 28631, Note_on_c, 0, 71, 0
1, 28632, Note_on_c, 0, 64, 77
1, 28653, Note_on_c, 1, 55, 0
1, 28655, Note_on_c, 0, 64, 0
1, 28656, Note_on_c, 0, 72, 77
1, 28656, Note_on_c, 1, 57, 77
1, 28679, Note_on_c, 0, 72, 0
1, 28680, Note_on_c, 0, 64, 77
1, 28703, Note_on_c, 0, 64, 0
1, 28704, Note_on_c, 0, 71, 77
1, 28704, Note_on_c, 1, 57, 0
1, 28704, Note_on_c, 1, 55, 77
1, 28727, Note_on_c, 0, 71, 0
1, 28728, Note_on_c, 0, 64, 77
1, 28749, Note_on_c, 1, 55, 0
1, 28751, Note_on_c, 0, 64, 0
1, 28752, Note_on_c, 0, 76, 77
1, 28775, Note_on_c, 0, 76, 0
1, 28776, Note_on_c, 0, 64, 77
1, 28799, Note_on_c, 0, 64, 0
1, 28800, Note_on_c, 0, 67, 77
1, 28800, Note_on_c, 1, 52, 77
1, 28823, Note_on_c, 0, 67, 0
1, 28824, Note_on_c, 0, 64, 77
1, 28845, Note_on_c, 1, 52, 0
1, 28847, Note_on_c, 0, 64, 0
1, 28848, Note_on_c, 0, 69, 77
1, 28848, Note_on_c, 1, 54, 77
1, 28871, Note_on_c, 0, 69, 0
1, 28872, Note_on_c, 0, 64, 77
1, 28893, Note_on_c, 1, 54, 0
1, 28895, Note_on_c, 0, 64, 0
1, 28896, Note_on_c, 0, 71, 77
1, 28896, Note_on_c, 1, 55, 77
1, 28919, Note_on_c, 0, 71, 0
1, 28920, Note_on_c, 0, 64, 77
1, 28941, Note_on_c, 1, 55, 0
1, 28943, Note_on_c, 0, 64, 0
1, 28944, Note_on_c, 0, 72, 77
1, 28944, Note_on_c, 1, 57, 77
1, 28967, Note_on_c, 0, 72, 0
1, 28968, Note_on_c, 0, 64, 77
1, 28991, Note_on_c, 0, 64, 0
1, 28992, Note_on_c, 0, 71, 77
1, 28992, Note_on_c, 1, 57, 0
1, 28992, Note_on_c, 1, 55, 77
1, 29015, Note_on_c, 0, 71, 0
1, 29016, Note_on_c, 0, 64, 77
1, 29037, Note_on_c, 1, 55, 0
1, 29039, Note_on_c, 0, 64, 0
1, 29040, Note_on_c, 0, 76, 77
1, 29060, Note_on_c, 0, 76, 0
1, 29088, Note_on_c, 0, 75, 77
1, 29088, Note_on_c, 1, 59, 77
1, 29111, Note_on_c, 0, 75, 0
1, 29112, Note_on_c, 0, 71, 77
1, 29133, Note_on_c, 1, 59, 0
1, 29135, Note_on_c, 0, 71, 0
1, 29136, Note_on_c, 0, 76, 77
1, 29136, Note_on_c, 1, 61, 77
1, 29159, Note_on_c, 0, 76, 0
1, 29160, Note_on_c, 0, 71, 77
1, 29181, Note_on_c, 1, 61, 0
1, 29183, Note_on_c, 0, 71, 0
1, 29184, Note_on_c, 0, 78, 77
1, 29184, Note_on_c, 1, 63, 77
1, 29207, Note_on_c, 0, 78, 0
1, 29208, Note_on_c, 0, 71, 77
1, 29229, Note_on_c, 1, 63, 0
1, 29231, Note_on_c, 0, 71, 0
1, 29232, Note_on_c, 0, 79, 77
1, 29232, Note_on_c, 1, 64, 77
1, 29255, Note_on_c, 0, 79, 0
1, 29256, Note_on_c, 0, 71, 77
1, 29279, Note_on_c, 0, 71, 0
1, 29280, Note_on_c, 0, 78, 77
1, 29280, Note_on_c, 1, 64, 0
1, 29280, Note_on_c, 1, 63, 77
1, 29303, Note_on_c, 0, 78, 0
1, 29304, Note_on_c, 0, 71, 77
1, 29325, Note_on_c, 1, 63, 0
1, 29327, Note_on_c, 0, 71, 0
1, 29328, Note_on_c, 0, 83, 77
1, 29351, Note_on_c, 0, 83, 0
1, 29352, Note_on_c, 0, 71, 77
1, 29375, Note_on_c, 0, 71, 0
1, 29376, Note_on_c, 0, 75, 77
1, 29376, Note_on_c, 1, 47, 77
1, 29399, Note_on_c, 0, 75, 0
1, 29400, Note_on_c, 0, 71, 77
1, 29421, Note_on_c, 1, 47, 0
1, 29423, Note_on_c, 0, 71, 0
1, 29424, Note_on_c, 0, 76, 77
1, 29424, Note_on_c, 1, 49, 77
1, 29447, Note_on_c, 0, 76, 0
1, 29448, Note_on_c, 0, 71, 77
1, 29469, Note_on_c, 1, 49, 0
1, 29471, Note_on_c, 0, 71, 0
1, 29472, Note_on_c, 0, 78, 77
1, 29472, Note_on_c, 1, 51, 77
1, 29495, Note_on_c, 0, 78, 0
1, 29496, Note_on_c, 0, 71, 77
1, 29517, Note_on_c, 1, 51, 0
1, 29519, Note_on_c, 0, 71, 0
1, 29520, Note_on_c, 0, 79, 77
1, 29520, Note_on_c, 1, 52, 77
1, 29543, Note_on_c, 0, 79, 0
1, 29544, Note_on_c, 0, 71, 77
1, 29565, Note_on_c, 1, 52, 0
1, 29567, Note_on_c, 0, 71, 0
1, 29568, Note_on_c, 0, 78, 77
1, 29568, Note_on_c, 1, 54, 77
1, 29591, Note_on_c, 0, 78, 0
1, 29592, Note_on_c, 0, 71, 77
1, 29613, Note_on_c, 1, 54, 0
1, 29615, Note_on_c, 0, 71, 0
1, 29616, Note_on_c, 0, 83, 77
1, 29616, Note_on_c, 1, 55, 77
1, 29636, Note_on_c, 0, 83, 0
1, 29661, Note_on_c, 1, 55, 0
1, 29664, Note_on_c, 0, 83, 77
1, 29664, Note_on_c, 0, 72, 77
1, 29664, Note_on_c, 1, 57, 77
1, 29709, Note_on_c, 0, 83, 0
1, 29709, Note_on_c, 0, 72, 0
1, 29709, Note_on_c, 1, 57, 0
1, 29712, Note_on_c, 0, 81, 77
1, 29712, Note_on_c, 0, 74, 77
1, 29712, Note_on_c, 1, 59, 77
1, 29757, Note_on_c, 0, 81, 0
1, 29757, Note_on_c, 0, 74, 0
1, 29757, Note_on_c, 1, 59, 0
1, 29760, Note_on_c, 0, 79, 77
1, 29760, Note_on_c, 0, 76, 77
1, 29760, Note_on_c, 1, 60, 77
1, 29805, Note_on_c, 0, 79, 0
1, 29805, Note_on_c, 0, 76, 0
1, 29805, Note_on_c, 1, 60, 0
1, 29808, Note_on_c, 0, 78, 77
1, 29808, Note_on_c, 0, 76, 77
1, 29808, Note_on_c, 1, 50, 77
1, 29853, Note_on_c, 0, 78, 0
1, 29853, Note_on_c, 0, 76, 0
1, 29853, Note_on_c, 1, 50, 0
1, 29856, Note_on_c, 0, 79, 77
1, 29856, Note_on_c, 0, 74, 77
1, 29856, Note_on_c, 1, 52, 77
1, 29901, Note_on_c, 0, 79, 0
1, 29901, Note_on_c, 0, 74, 0
1, 29901, Note_on_c, 1, 52, 0
1, 29904, Note_on_c, 0, 81, 77
1, 29904, Note_on_c, 0, 72, 77
1, 29904, Note_on_c, 1, 54, 77
1, 29949, Note_on_c, 0, 81, 0
1, 29949, Note_on_c, 0, 72, 0
1, 29949, Note_on_c, 1, 54, 0
1, 29952, Note_on_c, 0, 81, 77
1, 29952, Note_on_c, 0, 71, 77
1, 29952, Note_on_c, 1, 55, 77
1, 29997, Note_on_c, 0, 81, 0
1, 29997, Note_on_c, 0, 71, 0
1, 29997, Note_on_c, 1, 55, 0
1, 30000, Note_on_c, 0, 79, 77
1, 30000, Note_on_c, 0, 72, 77
1, 30000, Note_on_c, 1, 57, 77
1, 30045, Note_on_c, 0, 79, 0
1, 30045, Note_on_c, 0, 72, 0
1, 30045, Note_on_c, 1, 57, 0
1, 30048, Note_on_c, 0, 78, 77
1, 30048, Note_on_c, 0, 74, 77
1, 30048, Note_on_c, 1, 59, 77
1, 30093, Note_on_c, 0, 78, 0
1, 30093, Note_on_c, 0, 74, 0
1, 30093, Note_on_c, 1, 59, 0
1, 30096, Note_on_c, 0, 76, 77
1, 30096, Note_on_c, 0, 74, 77
1, 30096, Note_on_c, 1, 48, 77
1, 30141, Note_on_c, 0, 76, 0
1, 30141, Note_on_c, 0, 74, 0
1, 30141, Note_on_c, 1, 48, 0
1, 30144, Note_on_c, 0, 78, 77
1, 30144, Note_on_c, 0, 72, 77
1, 30144, Note_on_c, 1, 50, 77
1, 30189, Note_on_c, 0, 78, 0
1, 30189, Note_on_c, 0, 72, 0
1, 30189, Note_on_c, 1, 50, 0
1, 30192, Note_on_c, 0, 79, 77
1, 30192, Note_on_c, 0, 71, 77
1, 30192, Note_on_c, 1, 52, 77
1, 30237, Note_on_c, 0, 79, 0
1, 30237, Note_on_c, 0, 71, 0
1, 30237, Note_on_c, 1, 52, 0
1, 30240, Note_on_c, 0, 79, 77
1, 30240, Note_on_c, 0, 69, 77
1, 30240, Note_on_c, 1, 54, 77
1, 30285, Note_on_c, 0, 79, 0
1, 30285, Note_on_c, 0, 69, 0
1, 30285, Note_on_c, 1, 54, 0
1, 30288, Note_on_c, 0, 78, 77
1, 30288, Note_on_c, 0, 71, 77
1, 30288, Note_on_c, 1, 55, 77
1, 30333, Note_on_c, 0, 78, 0
1, 30333, Note_on_c, 0, 71, 0
1, 30333, Note_on_c, 1, 55, 0
1, 30336, Note_on_c, 0, 76, 77
1, 30336, Note_on_c, 0, 72, 77
1, 30336, Note_on_c, 1, 57, 77
1, 30381, Note_on_c, 0, 76, 0
1, 30381, Note_on_c, 0, 72, 0
1, 30381, Note_on_c, 1, 57, 0
1, 30384, Note_on_c, 0, 75, 77
1, 30384, Note_on_c, 0, 72, 77
1, 30384, Note_on_c, 1, 47, 77
1, 30429, Note_on_c, 0, 75, 0
1, 30429, Note_on_c, 0, 72, 0
1, 30429, Note_on_c, 1, 47, 0
1, 30432, Note_on_c, 0, 76, 77
1, 30432, Note_on_c, 0, 71, 77
1, 30432, Note_on_c, 1, 49, 77
1, 30477, Note_on_c, 0, 76, 0
1, 30477, Note_on_c, 0, 71, 0
1, 30477, Note_on_c, 1, 49, 0
1, 30480, Note_on_c, 0, 78, 77
1, 30480, Note_on_c, 0, 69, 77
1, 30480, Note_on_c, 1, 51, 77
1, 30525, Note_on_c, 0, 78, 0
1, 30525, Note_on_c, 0, 69, 0
1, 30525, Note_on_c, 1, 51, 0
1, 30528, Note_on_c, 0, 78, 77
1, 30528, Note_on_c, 0, 67, 77
1, 30528, Note_on_c, 1, 40, 77
1, 30551, Note_on_c, 1, 40, 0
1, 30552, Note_on_c, 1, 52, 77
1, 30575, Note_on_c, 1, 52, 0
1, 30576, Note_on_c, 1, 51, 77
1, 30599, Note_on_c, 1, 51, 0
1, 30600, Note_on_c, 1, 52, 77
1, 30623, Note_on_c, 1, 52, 0
1, 30624, Note_on_c, 1, 51, 77
1, 30647, Note_on_c, 1, 51, 0
1, 30648, Note_on_c, 1, 52, 77
1, 30661, Note_on_c, 0, 78, 0
1, 30661, Note_on_c, 0, 67, 0
1, 30671, Note_on_c, 1, 52, 0
1, 30672, Note_on_c, 0, 76, 77
1, 30672, Note_on_c, 0, 67, 77
1, 30672, Note_on_c, 1, 48, 77
1, 30695, Note_on_c, 1, 48, 0
1, 30696, Note_on_c, 1, 60, 77
1, 30719, Note_on_c, 1, 60, 0
1, 30720, Note_on_c, 1, 59, 77
1, 30743, Note_on_c, 1, 59, 0
1, 30744, Note_on_c, 1, 60, 77
1, 30767, Note_on_c, 1, 60, 0
1, 30768, Note_on_c, 1, 59, 77
1, 30791, Note_on_c, 1, 59, 0
1, 30792, Note_on_c, 1, 60, 77
1, 30805, Note_on_c, 0, 76, 0
1, 30805, Note_on_c, 0, 67, 0
1, 30815, Note_on_c, 1, 60, 0
1, 30816, Note_on_c, 0, 76, 77
1, 30816, Note_on_c, 0, 65, 77
1, 30816, Note_on_c, 1, 45, 77
1, 30839, Note_on_c, 1, 45, 0
1, 30840, Note_on_c, 1, 57, 77
1, 30863, Note_on_c, 1, 57, 0
1, 30864, Note_on_c, 1, 56, 77
1, 30887, Note_on_c, 1, 56, 0
1, 30888, Note_on_c, 1, 57, 77
1, 30911, Note_on_c, 1, 57, 0
1, 30912, Note_on_c, 1, 56, 77
1, 30935, Note_on_c, 1, 56, 0
1, 30936, Note_on_c, 1, 57, 77
1, 30949, Note_on_c, 0, 76, 0
1, 30949, Note_on_c, 0, 65, 0
1, 30959, Note_on_c, 1, 57, 0
1, 30960, Note_on_c, 0, 74, 77
1, 30960, Note_on_c, 0, 65, 77
1, 30960, Note_on_c, 1, 47, 77
1, 30983, Note_on_c, 1, 47, 0
1, 30984, Note_on_c, 1, 59, 77
1, 31007, Note_on_c, 1, 59, 0
1, 31008, Note_on_c, 1, 58, 77
1, 31031, Note_on_c, 1, 58, 0
1, 31032, Note_on_c, 1, 59, 77
1, 31055, Note_on_c, 1, 59, 0
1, 31056, Note_on_c, 1, 58, 77
1, 31079, Note_on_c, 1, 58, 0
1, 31080, Note_on_c, 1, 59, 77
1, 31093, Note_on_c, 0, 74, 0
1, 31093, Note_on_c, 0, 65, 0
1, 31103, Note_on_c, 1, 59, 0
1, 31104, Note_on_c, 0, 64, 77
1, 31104, Note_on_c, 1, 44, 64
1, 31127, Note_on_c, 0, 64, 0
1, 31128, Note_on_c, 0, 71, 77
1, 31151, Note_on_c, 0, 71, 0
1, 31152, Note_on_c, 0, 74, 77
1, 31152, Note_on_c, 1, 56, 77
1, 31175, Note_on_c, 0, 74, 0
1, 31176, Note_on_c, 0, 71, 77
1, 31197, Note_on_c, 1, 56, 0
1, 31199, Note_on_c, 0, 71, 0
1, 31200, Note_on_c, 0, 74, 77
1, 31200, Note_on_c, 1, 56, 77
1, 31223, Note_on_c, 0, 74, 0
1, 31224, Note_on_c, 0, 71, 77
1, 31237, Note_on_c, 1, 44, 0
1, 31245, Note_on_c, 1, 56, 0
1, 31247, Note_on_c, 0, 71, 0
1, 31248, Note_on_c, 0, 64, 77
1, 31248, Note_on_c, 1, 45, 64
1, 31271, Note_on_c, 0, 64, 0
1, 31272, Note_on_c, 0, 69, 77
1, 31295, Note_on_c, 0, 69, 0
1, 31296, Note_on_c, 0, 72, 77
1, 31296, Note_on_c, 1, 57, 77
1, 31319, Note_on_c, 0, 72, 0
1, 31320, Note_on_c, 0, 69, 77
1, 31341, Note_on_c, 1, 57, 0
1, 31343, Note_on_c, 0, 69, 0
1, 31344, Note_on_c, 0, 72, 77
1, 31344, Note_on_c, 1, 57, 77
1, 31367, Note_on_c, 0, 72, 0
1, 31368, Note_on_c, 0, 69, 77
1, 31381, Note_on_c, 1, 45, 0
1, 31389, Note_on_c, 1, 57, 0
1, 31391, Note_on_c, 0, 69, 0
1, 31392, Note_on_c, 0, 62, 77
1, 31392, Note_on_c, 1, 42, 64
1, 31415, Note_on_c, 0, 62, 0
1, 31416, Note_on_c, 0, 69, 77
1, 31439, Note_on_c, 0, 69, 0
1, 31440, Note_on_c, 0, 72, 77
1, 31440, Note_on_c, 1, 54, 77
1, 31463, Note_on_c, 0, 72, 0
1, 31464, Note_on_c, 0, 69, 77
1, 31485, Note_on_c, 1, 54, 0
1, 31487, Note_on_c, 0, 69, 0
1, 31488, Note_on_c, 0, 72, 77
1, 31488, Note_on_c, 1, 54, 77
1, 31511, Note_on_c, 0, 72, 0
1, 31512, Note_on_c, 0, 69, 77
1, 31525, Note_on_c, 1, 42, 0
1, 31533, Note_on_c, 1, 54, 0
1, 31535, Note_on_c, 0, 69, 0
1, 31536, Note_on_c, 0, 62, 77
1, 31536, Note_on_c, 1, 43, 64
1, 31559, Note_on_c, 0, 62, 0
1, 31560, Note_on_c, 0, 67, 77
1, 31583, Note_on_c, 0, 67, 0
1, 31584, Note_on_c, 0, 71, 77
1, 31584, Note_on_c, 1, 55, 77
1, 31607, Note_on_c, 0, 71, 0
1, 31608, Note_on_c, 0, 67, 77
1, 31629, Note_on_c, 1, 55, 0
1, 31631, Note_on_c, 0, 67, 0
1, 31632, Note_on_c, 0, 71, 77
1, 31632, Note_on_c, 1, 55, 77
1, 31655, Note_on_c, 0, 71, 0
1, 31656, Note_on_c, 0, 67, 77
1, 31669, Note_on_c, 1, 43, 0
1, 31677, Note_on_c, 1, 55, 0
1, 31679, Note_on_c, 0, 67, 0
1, 31680, Note_on_c, 0, 69, 77
1, 31680, Note_on_c, 0, 66, 77
1, 31680, Note_on_c, 1, 50, 77
1, 31680, Note_on_c, 1, 38, 77
1, 31725, Note_on_c, 0, 69, 0
1, 31725, Note_on_c, 0, 66, 0
1, 31725, Note_on_c, 1, 50, 0
1, 31725, Note_on_c, 1, 38, 0
1, 31728, Note_on_c, 0, 74, 77
1, 31728, Note_on_c, 0, 66, 77
1, 31728, Note_on_c, 1, 50, 77
1, 31728, Note_on_c, 1, 38, 77
1, 31773, Note_on_c, 0, 74, 0
1, 31773, Note_on_c, 0, 66, 0
1, 31773, Note_on_c, 1, 50, 0
1, 31773, Note_on_c, 1, 38, 0
1, 31776, Note_on_c, 0, 74, 77
1, 31776, Note_on_c, 0, 66, 77
1, 31776, Note_on_c, 1, 50, 77
1, 31776, Note_on_c, 1, 38, 77
1, 31821, Note_on_c, 0, 74, 0
1, 31821, Note_on_c, 0, 66, 0
1, 31821, Note_on_c, 1, 50, 0
1, 31821, Note_on_c, 1, 38, 0
1, 31824, Note_on_c, 0, 74, 77
1, 31824, Note_on_c, 0, 66, 77
1, 31824, Note_on_c, 1, 50, 77
1, 31824, Note_on_c, 1, 38, 77
1, 31913, Note_on_c, 0, 74, 0
1, 31913, Note_on_c, 0, 66, 0
1, 31913, Note_on_c, 1, 50, 0
1, 31913, Note_on_c, 1, 38, 0
1, 31968, Note_on_c, 1, 58, 77
1, 31968, Note_on_c, 1, 55, 77
1, 32016, Note_on_c, 0, 79, 77
1, 32057, Note_on_c, 1, 58, 0
1, 32057, Note_on_c, 1, 55, 0
1, 32064, Note_on_c, 0, 79, 0
1, 32064, Note_on_c, 0, 67, 77
1, 32109, Note_on_c, 0, 67, 0
1, 32112, Note_on_c, 1, 62, 77
1, 32112, Note_on_c, 1, 58, 77
1, 32160, Note_on_c, 0, 79, 77
1, 32183, Note_on_c, 0, 79, 0
1, 32184, Note_on_c, 0, 81, 77
1, 32201, Note_on_c, 1, 62, 0
1, 32201, Note_on_c, 1, 58, 0
1, 32207, Note_on_c, 0, 81, 0
1, 32208, Note_on_c, 0, 79, 77
1, 32228, Note_on_c, 0, 79, 0
1, 32256, Note_on_c, 1, 63, 77
1, 32256, Note_on_c, 1, 60, 77
1, 32304, Note_on_c, 0, 81, 77
1, 32304, Note_on_c, 0, 79, 77
1, 32345, Note_on_c, 1, 63, 0
1, 32345, Note_on_c, 1, 60, 0
1, 32352, Note_on_c, 0, 81, 0
1, 32352, Note_on_c, 0, 79, 0
1, 32352, Note_on_c, 0, 69, 77
1, 32352, Note_on_c, 0, 67, 77
1, 32397, Note_on_c, 0, 69, 0
1, 32397, Note_on_c, 0, 67, 0
1, 32400, Note_on_c, 1, 62, 77
1, 32448, Note_on_c, 0, 81, 77
1, 32448, Note_on_c, 0, 78, 64
1, 32471, Note_on_c, 0, 81, 0
1, 32472, Note_on_c, 0, 82, 77
1, 32489, Note_on_c, 1, 62, 0
1, 32493, Note_on_c, 0, 78, 0
1, 32495, Note_on_c, 0, 82, 0
1, 32496, Note_on_c, 0, 81, 77
1, 32496, Note_on_c, 0, 78, 64
1, 32541, Note_on_c, 0, 81, 0
1, 32541, Note_on_c, 0, 78, 0
1, 32544, Note_on_c, 1, 55, 77
1, 32592, Note_on_c, 0, 82, 77
1, 32592, Note_on_c, 0, 79, 77
1, 32633, Note_on_c, 1, 55, 0
1, 32637, Note_on_c, 0, 82, 0
1, 32637, Note_on_c, 0, 79, 0
1, 32640, Note_on_c, 0, 82, 77
1, 32640, Note_on_c, 0, 79, 77
1, 32685, Note_on_c, 0, 82, 0
1, 32685, Note_on_c, 0, 79, 0
1, 32688, Note_on_c, 1, 67, 77
1, 32733, Note_on_c, 1, 67, 0
1, 32736, Note_on_c, 0, 86, 77
1, 32736, Note_on_c, 0, 82, 77
1, 32736, Note_on_c, 1, 55, 77
1, 32781, Note_on_c, 1, 55, 0
1, 32784, Note_on_c, 0, 86, 0
1, 32784, Note_on_c, 0, 82, 0
1, 32784, Note_on_c, 0, 74, 77
1, 32784, Note_on_c, 0, 70, 77
1, 32829, Note_on_c, 0, 74, 0
1, 32829, Note_on_c, 0, 70, 0
1, 32832, Note_on_c, 1, 60, 77
1, 32880, Note_on_c, 0, 87, 77
1, 32880, Note_on_c, 0, 84, 77
1, 32903, Note_on_c, 0, 87, 0
1, 32903, Note_on_c, 0, 84, 0
1, 32904, Note_on_c, 0, 86, 77
1, 32904, Note_on_c, 0, 83, 77
1, 32921, Note_on_c, 1, 60, 0
1, 32927, Note_on_c, 0, 86, 0
1, 32927, Note_on_c, 0, 83, 0
1, 32928, Note_on_c, 0, 87, 77
1, 32928, Note_on_c, 0, 84, 77
1, 32973, Note_on_c, 0, 87, 0
1, 32973, Note_on_c, 0, 84, 0
1, 32976, Note_on_c, 1, 65, 77
1, 33021, Note_on_c, 1, 65, 0
1, 33024, Note_on_c, 0, 84, 77
1, 33024, Note_on_c, 0, 81, 77
1, 33024, Note_on_c, 1, 53, 77
1, 33069, Note_on_c, 1, 53, 0
1, 33072, Note_on_c, 0, 84, 0
1, 33072, Note_on_c, 0, 81, 0
1, 33072, Note_on_c, 0, 72, 77
1, 33072, Note_on_c, 0, 69, 77
1, 33117, Note_on_c, 0, 72, 0
1, 33117, Note_on_c, 0, 69, 0
1, 33120, Note_on_c, 1, 58, 77
1, 33168, Note_on_c, 0, 86, 77
1, 33168, Note_on_c, 0, 82, 77
1, 33191, Note_on_c, 0, 86, 0
1, 33191, Note_on_c, 0, 82, 0
1, 33192, Note_on_c, 0, 85, 77
1, 33192, Note_on_c, 0, 81, 77
1, 33209, Note_on_c, 1, 58, 0
1, 33215, Note_on_c, 0, 85, 0
1, 33215, Note_on_c, 0, 81, 0
1, 33216, Note_on_c, 0, 86, 77
1, 33216, Note_on_c, 0, 82, 77
1, 33236, Note_on_c, 0, 86, 0
1, 33236, Note_on_c, 0, 82, 0
1, 33264, Note_on_c, 1, 63, 77
1, 33309, Note_on_c, 1, 63, 0
1, 33312, Note_on_c, 0, 82, 77
1, 33312, Note_on_c, 0, 79, 77
1, 33312, Note_on_c, 1, 51, 77
1, 33357, Note_on_c, 1, 51, 0
1, 33360, Note_on_c, 0, 82, 0
1, 33360, Note_on_c, 0, 79, 0
1, 33360, Note_on_c, 0, 70, 77
1, 33360, Note_on_c, 0, 67, 77
1, 33405, Note_on_c, 0, 70, 0
1, 33405, Note_on_c, 0, 67, 0
1, 33408, Note_on_c, 1, 57, 77
1, 33456, Note_on_c, 0, 84, 77
1, 33456, Note_on_c, 0, 81, 77
1, 33479, Note_on_c, 0, 84, 0
1, 33479, Note_on_c, 0, 81, 0
1, 33480, Note_on_c, 0, 82, 77
1, 33480, Note_on_c, 0, 79, 77
1, 33497, Note_on_c, 1, 57, 0
1, 33503, Note_on_c, 0, 82, 0
1, 33503, Note_on_c, 0, 79, 0
1, 33504, Note_on_c, 0, 84, 77
1, 33504, Note_on_c, 0, 81, 77
1, 33524, Note_on_c, 0, 84, 0
1, 33524, Note_on_c, 0, 81, 0
1, 33552, Note_on_c, 1, 62, 77
1, 33597, Note_on_c, 1, 62, 0
1, 33600, Note_on_c, 0, 81, 77
1, 33600, Note_on_c, 0, 78, 77
1, 33600, Note_on_c, 1, 50, 77
1, 33645, Note_on_c, 1, 50, 0
1, 33648, Note_on_c, 0, 81, 0
1, 33648, Note_on_c, 0, 78, 0
1, 33648, Note_on_c, 0, 69, 77
1, 33648, Note_on_c, 0, 66, 77
1, 33693, Note_on_c, 0, 69, 0
1, 33693, Note_on_c, 0, 66, 0
1, 33696, Note_on_c, 1, 55, 77
1, 33744, Note_on_c, 0, 82, 77
1, 33744, Note_on_c, 0, 79, 64
1, 33767, Note_on_c, 0, 79, 0
1, 33768, Note_on_c, 0, 74, 64
1, 33785, Note_on_c, 1, 55, 0
1, 33789, Note_on_c, 0, 82, 0
1, 33791, Note_on_c, 0, 74, 0
1, 33792, Note_on_c, 0, 82, 77
1, 33792, Note_on_c, 0, 79, 64
1, 33837, Note_on_c, 0, 82, 0
1, 33837, Note_on_c, 0, 79, 0
1, 33840, Note_on_c, 1, 65, 77
1, 33888, Note_on_c, 0, 83, 77
1, 33888, Note_on_c, 0, 80, 64
1, 33911, Note_on_c, 0, 80, 0
1, 33912, Note_on_c, 0, 74, 64
1, 33929, Note_on_c, 1, 65, 0
1, 33933, Note_on_c, 0, 83, 0
1, 33935, Note_on_c, 0, 74, 0
1, 33936, Note_on_c, 0, 83, 77
1, 33936, Note_on_c, 0, 80, 64
1, 33981, Note_on_c, 0, 83, 0
1, 33981, Note_on_c, 0, 80, 0
1, 33984, Note_on_c, 1, 64, 77
1, 34032, Note_on_c, 0, 84, 77
1, 34032, Note_on_c, 0, 79, 64
1, 34055, Note_on_c, 0, 79, 0
1, 34056, Note_on_c, 0, 72, 64
1, 34073, Note_on_c, 1, 64, 0
1, 34077, Note_on_c, 0, 84, 0
1, 34079, Note_on_c, 0, 72, 0
1, 34080, Note_on_c, 0, 84, 77
1, 34080, Note_on_c, 0, 79, 64
1, 34125, Note_on_c, 0, 84, 0
1, 34125, Note_on_c, 0, 79, 0
1, 34128, Note_on_c, 1, 63, 77
1, 34176, Note_on_c, 0, 85, 77
1, 34176, Note_on_c, 0, 82, 64
1, 34199, Note_on_c, 0, 82, 0
1, 34200, Note_on_c, 0, 79, 64
1, 34217, Note_on_c, 1, 63, 0
1, 34221, Note_on_c, 0, 85, 0
1, 34223, Note_on_c, 0, 79, 0
1, 34224, Note_on_c, 0, 85, 77
1, 34224, Note_on_c, 0, 82, 64
1, 34269, Note_on_c, 0, 85, 0
1, 34269, Note_on_c, 0, 82, 0
1, 34272, Note_on_c, 1, 62, 77
1, 34320, Note_on_c, 0, 86, 77
1, 34320, Note_on_c, 0, 78, 64
1, 34343, Note_on_c, 0, 78, 0
1, 34344, Note_on_c, 0, 74, 64
1, 34361, Note_on_c, 1, 62, 0
1, 34365, Note_on_c, 0, 86, 0
1, 34367, Note_on_c, 0, 74, 0
1, 34368, Note_on_c, 0, 86, 77
1, 34368, Note_on_c, 0, 78, 64
1, 34413, Note_on_c, 0, 86, 0
1, 34413, Note_on_c, 0, 78, 0
1, 34416, Note_on_c, 0, 74, 77
1, 34416, Note_on_c, 1, 54, 77
1, 34416, Note_on_c, 1, 50, 64
1, 34439, Note_on_c, 0, 74, 0
1, 34440, Note_on_c, 0, 78, 77
1, 34463, Note_on_c, 0, 78, 0
1, 34464, Note_on_c, 0, 86, 77
1, 34487, Note_on_c, 0, 86, 0
1, 34488, Note_on_c, 0, 78, 77
1, 34511, Note_on_c, 0, 78, 0
1, 34512, Note_on_c, 0, 86, 77
1, 34535, Note_on_c, 0, 86, 0
1, 34536, Note_on_c, 0, 78, 77
1, 34549, Note_on_c, 1, 54, 0
1, 34559, Note_on_c, 0, 78, 0
1, 34560, Note_on_c, 0, 76, 77
1, 34560, Note_on_c, 1, 55, 77
1, 34583, Note_on_c, 0, 76, 0
1, 34584, Note_on_c, 0, 79, 77
1, 34607, Note_on_c, 0, 79, 0
1, 34608, Note_on_c, 0, 85, 77
1, 34631, Note_on_c, 0, 85, 0
1, 34632, Note_on_c, 0, 79, 77
1, 34655, Note_on_c, 0, 79, 0
1, 34656, Note_on_c, 0, 85, 77
1, 34679, Note_on_c, 0, 85, 0
1, 34680, Note_on_c, 0, 79, 77
1, 34693, Note_on_c, 1, 55, 0
1, 34703, Note_on_c, 0, 79, 0
1, 34704, Note_on_c, 0, 74, 77
1, 34704, Note_on_c, 1, 57, 77
1, 34727, Note_on_c, 0, 74, 0
1, 34728, Note_on_c, 0, 78, 77
1, 34751, Note_on_c, 0, 78, 0
1, 34752, Note_on_c, 0, 84, 77
1, 34775, Note_on_c, 0, 84, 0
1, 34776, Note_on_c, 0, 78, 77
1, 34799, Note_on_c, 0, 78, 0
1, 34800, Note_on_c, 0, 84, 77
1, 34823, Note_on_c, 0, 84, 0
1, 34824, Note_on_c, 0, 78, 77
1, 34825, Note_on_c, 1, 50, 0
1, 34837, Note_on_c, 1, 57, 0
1, 34847, Note_on_c, 0, 78, 0
1, 34848, Note_on_c, 0, 79, 77
1, 34848, Note_on_c, 1, 59, 77
1, 34848, Note_on_c, 1, 55, 77
1, 34887, Note_on_c, 1, 59, 0
1, 34887, Note_on_c, 1, 55, 0
1, 34893, Note_on_c, 0, 79, 0
1, 34896, Note_on_c, 0, 79, 77
1, 34944, Note_on_c, 0, 79, 0
1, 34944, Note_on_c, 0, 67, 77
1, 34989, Note_on_c, 0, 67, 0
1, 34992, Note_on_c, 1, 64, 77
1, 34992, Note_on_c, 1, 60, 77
1, 35031, Note_on_c, 1, 64, 0
1, 35031, Note_on_c, 1, 60, 0
1, 35040, Note_on_c, 0, 79, 77
1, 35063, Note_on_c, 0, 79, 0
1, 35064, Note_on_c, 0, 81, 77
1, 35087, Note_on_c, 0, 81, 0
1, 35088, Note_on_c, 0, 79, 77
1, 35108, Note_on_c, 0, 79, 0
1, 35136, Note_on_c, 1, 62, 77
1, 35136, Note_on_c, 1, 59, 77
1, 35175, Note_on_c, 1, 62, 0
1, 35175, Note_on_c, 1, 59, 0
1, 35184, Note_on_c, 0, 79, 77
1, 35232, Note_on_c, 0, 79, 0
1, 35232, Note_on_c, 0, 67, 77
1, 35277, Note_on_c, 0, 67, 0
1, 35280, Note_on_c, 1, 60, 77
1, 35280, Note_on_c, 1, 57, 77
1, 35319, Note_on_c, 1, 60, 0
1, 35319, Note_on_c, 1, 57, 0
1, 35328, Note_on_c, 0, 79, 77
1, 35351, Note_on_c, 0, 79, 0
1, 35352, Note_on_c, 0, 81, 77
1, 35375, Note_on_c, 0, 81, 0
1, 35376, Note_on_c, 0, 79, 77
1, 35396, Note_on_c, 0, 79, 0
1, 35424, Note_on_c, 1, 59, 77
1, 35424, Note_on_c, 1, 55, 77
1, 35463, Note_on_c, 1, 59, 0
1, 35463, Note_on_c, 1, 55, 0
1, 35472, Note_on_c, 0, 79, 77
1, 35520, Note_on_c, 0, 79, 0
1, 35520, Note_on_c, 0, 67, 77
1, 35565, Note_on_c, 0, 67, 0
1, 35568, Note_on_c, 1, 59, 77
1, 35568, Note_on_c, 1, 47, 77
1, 35616, Note_on_c, 0, 78, 77
1, 35639, Note_on_c, 0, 78, 0
1, 35640, Note_on_c, 0, 79, 77
1, 35663, Note_on_c, 0, 79, 0
1, 35664, Note_on_c, 0, 83, 77
1, 35687, Note_on_c, 0, 83, 0
1, 35688, Note_on_c, 0, 79, 77
1, 35701, Note_on_c, 1, 59, 0
1, 35701, Note_on_c, 1, 47, 0
1, 35711, Note_on_c, 0, 79, 0
1, 35712, Note_on_c, 0, 76, 77
1, 35712, Note_on_c, 1, 60, 77
1, 35712, Note_on_c, 1, 48, 77
1, 35732, Note_on_c, 0, 76, 0
1, 35760, Note_on_c, 0, 80, 77
1, 35783, Note_on_c, 0, 80, 0
1, 35784, Note_on_c, 0, 81, 77
1, 35807, Note_on_c, 0, 81, 0
1, 35808, Note_on_c, 0, 84, 77
1, 35831, Note_on_c, 0, 84, 0
1, 35832, Note_on_c, 0, 81, 77
1, 35845, Note_on_c, 1, 60, 0
1, 35845, Note_on_c, 1, 48, 0
1, 35855, Note_on_c, 0, 81, 0
1, 35856, Note_on_c, 0, 74, 77
1, 35856, Note_on_c, 1, 62, 77
1, 35856, Note_on_c, 1, 50, 77
1, 35901, Note_on_c, 0, 74, 0
1, 35904, Note_on_c, 0, 86, 77
1, 35904, Note_on_c, 0, 74, 77
1, 35949, Note_on_c, 0, 86, 0
1, 35949, Note_on_c, 0, 74, 0
1, 35952, Note_on_c, 0, 84, 77
1, 35952, Note_on_c, 0, 72, 77
1, 35989, Note_on_c, 1, 62, 0
1, 35989, Note_on_c, 1, 50, 0
1, 35997, Note_on_c, 0, 84, 0
1, 35997, Note_on_c, 0, 72, 0
1, 36000, Note_on_c, 0, 84, 77
1, 36000, Note_on_c, 0, 72, 77
1, 36000, Note_on_c, 1, 55, 77
1, 36000, Note_on_c, 1, 43, 77
1, 36045, Note_on_c, 0, 84, 0
1, 36045, Note_on_c, 0, 72, 0
1, 36048, Note_on_c, 0, 83, 77
1, 36048, Note_on_c, 0, 71, 77
1, 36093, Note_on_c, 0, 83, 0
1, 36093, Note_on_c, 0, 71, 0
1, 36096, Note_on_c, 0, 81, 77
1, 36096, Note_on_c, 0, 69, 77
1, 36133, Note_on_c, 1, 55, 0
1, 36133, Note_on_c, 1, 43, 0
1, 36141, Note_on_c, 0, 81, 0
1, 36141, Note_on_c, 0, 69, 0
1, 36144, Note_on_c, 0, 67, 77
1, 36144, Note_on_c, 1, 59, 77
1, 36144, Note_on_c, 1, 47, 77
1, 36164, Note_on_c, 0, 67, 0
1, 36192, Note_on_c, 0, 78, 77
1, 36215, Note_on_c, 0, 78, 0
1, 36216, Note_on_c, 0, 79, 77
1, 36239, Note_on_c, 0, 79, 0
1, 36240, Note_on_c, 0, 83, 77
1, 36263, Note_on_c, 0, 83, 0
1, 36264, Note_on_c, 0, 79, 77
1, 36277, Note_on_c, 1, 59, 0
1, 36277, Note_on_c, 1, 47, 0
1, 36287, Note_on_c, 0, 79, 0
1, 36288, Note_on_c, 0, 76, 77
1, 36288, Note_on_c, 1, 60, 77
1, 36288, Note_on_c, 1, 48, 77
1, 36308, Note_on_c, 0, 76, 0
1, 36336, Note_on_c, 0, 80, 77
1, 36359, Note_on_c, 0, 80, 0
1, 36360, Note_on_c, 0, 81, 77
1, 36383, Note_on_c, 0, 81, 0
1, 36384, Note_on_c, 0, 84, 77
1, 36407, Note_on_c, 0, 84, 0
1, 36408, Note_on_c, 0, 81, 77
1, 36421, Note_on_c, 1, 60, 0
1, 36421, Note_on_c, 1, 48, 0
1, 36431, Note_on_c, 0, 81, 0
1, 36432, Note_on_c, 0, 74, 77
1, 36432, Note_on_c, 1, 62, 77
1, 36432, Note_on_c, 1, 50, 77
1, 36477, Note_on_c, 0, 74, 0
1, 36480, Note_on_c, 0, 86, 77
1, 36480, Note_on_c, 0, 74, 77
1, 36525, Note_on_c, 0, 86, 0
1, 36525, Note_on_c, 0, 74, 0
1, 36528, Note_on_c, 0, 84, 77
1, 36528, Note_on_c, 0, 72, 77
1, 36565, Note_on_c, 1, 62, 0
1, 36565, Note_on_c, 1, 50, 0
1, 36573, Note_on_c, 0, 84, 0
1, 36573, Note_on_c, 0, 72, 0
1, 36576, Note_on_c, 0, 83, 77
1, 36576, Note_on_c, 0, 71, 77
1, 36576, Note_on_c, 1, 55, 77
1, 36576, Note_on_c, 1, 43, 77
1, 36709, Note_on_c, 0, 83, 0
1, 36709, Note_on_c, 0, 71, 0
1, 36709, Note_on_c, 1, 55, 0
1, 36709, Note_on_c, 1, 43, 0
1, 36720, Note_on_c, 1, 62, 77
1, 36720, Note_on_c, 1, 59, 77
1, 36768, Note_on_c, 0, 78, 77
1, 36791, Note_on_c, 0, 78, 0
1, 36792, Note_on_c, 0, 79, 77
1, 36809, Note_on_c, 1, 62, 0
1, 36809, Note_on_c, 1, 59, 0
1, 36815, Note_on_c, 0, 79, 0
1, 36816, Note_on_c, 0, 83, 77
1, 36839, Note_on_c, 0, 83, 0
1, 36840, Note_on_c, 0, 79, 77
1, 36863, Note_on_c, 0, 79, 0
1, 36864, Note_on_c, 0, 76, 77
1, 36864, Note_on_c, 1, 64, 77
1, 36864, Note_on_c, 1, 60, 77
1, 36884, Note_on_c, 0, 76, 0
1, 36912, Note_on_c, 0, 80, 77
1, 36935, Note_on_c, 0, 80, 0
1, 36936, Note_on_c, 0, 81, 77
1, 36953, Note_on_c, 1, 64, 0
1, 36953, Note_on_c, 1, 60, 0
1, 36959, Note_on_c, 0, 81, 0
1, 36960, Note_on_c, 0, 84, 77
1, 36983, Note_on_c, 0, 84, 0
1, 36984, Note_on_c, 0, 81, 77
1, 37007, Note_on_c, 0, 81, 0
1, 37008, Note_on_c, 0, 74, 77
1, 37008, Note_on_c, 1, 62, 77
1, 37053, Note_on_c, 0, 74, 0
1, 37056, Note_on_c, 0, 86, 77
1, 37097, Note_on_c, 1, 62, 0
1, 37101, Note_on_c, 0, 86, 0
1, 37104, Note_on_c, 0, 84, 77
1, 37104, Note_on_c, 0, 81, 77
1, 37104, Note_on_c, 1, 66, 77
1, 37149, Note_on_c, 0, 84, 0
1, 37149, Note_on_c, 0, 81, 0
1, 37149, Note_on_c, 1, 66, 0
1, 37152, Note_on_c, 0, 84, 77
1, 37152, Note_on_c, 0, 81, 77
1, 37152, Note_on_c, 1, 67, 77
1, 37197, Note_on_c, 0, 84, 0
1, 37197, Note_on_c, 0, 81, 0
1, 37197, Note_on_c, 1, 67, 0
1, 37200, Note_on_c, 0, 83, 77
1, 37200, Note_on_c, 0, 79, 77
1, 37200, Note_on_c, 1, 71, 77
1, 37245, Note_on_c, 0, 83, 0
1, 37245, Note_on_c, 0, 79, 0
1, 37245, Note_on_c, 1, 71, 0
1, 37248, Note_on_c, 0, 81, 77
1, 37248, Note_on_c, 0, 78, 77
1, 37248, Note_on_c, 1, 74, 77
1, 37293, Note_on_c, 0, 81, 0
1, 37293, Note_on_c, 0, 78, 0
1, 37293, Note_on_c, 1, 74, 0
1, 37296, Note_on_c, 0, 74, 77
1, 37341, Note_on_c, 0, 74, 0
1, 37344, Note_on_c, 0, 84, 77
1, 37389, Note_on_c, 0, 84, 0
1, 37392, Note_on_c, 0, 83, 77
1, 37392, Note_on_c, 1, 67, 77
1, 37437, Note_on_c, 0, 83, 0
1, 37437, Note_on_c, 1, 67, 0
1, 37440, Note_on_c, 0, 83, 77
1, 37440, Note_on_c, 1, 76, 77
1, 37440, Note_on_c, 1, 72, 77
1, 37485, Note_on_c, 0, 83, 0
1, 37488, Note_on_c, 0, 81, 77
1, 37533, Note_on_c, 0, 81, 0
1, 37536, Note_on_c, 0, 79, 77
1, 37536, Note_on_c, 1, 76, 0
1, 37536, Note_on_c, 1, 72, 0
1, 37536, Note_on_c, 1, 74, 77
1, 37536, Note_on_c, 1, 71, 77
1, 37581, Note_on_c, 0, 79, 0
1, 37581, Note_on_c, 1, 74, 0
1, 37581, Note_on_c, 1, 71, 0
1, 37584, Note_on_c, 0, 74, 77
1, 37629, Note_on_c, 0, 74, 0
1, 37632, Note_on_c, 0, 86, 77
1, 37677, Note_on_c, 0, 86, 0
1, 37680, Note_on_c, 0, 84, 77
1, 37680, Note_on_c, 0, 81, 77
1, 37680, Note_on_c, 1, 66, 77
1, 37725, Note_on_c, 0, 84, 0
1, 37725, Note_on_c, 0, 81, 0
1, 37725, Note_on_c, 1, 66, 0
1, 37728, Note_on_c, 0, 84, 77
1, 37728, Note_on_c, 0, 81, 77
1, 37728, Note_on_c, 1, 67, 77
1, 37773, Note_on_c, 0, 84, 0
1, 37773, Note_on_c, 0, 81, 0
1, 37773, Note_on_c, 1, 67, 0
1, 37776, Note_on_c, 0, 83, 77
1, 37776, Note_on_c, 0, 79, 77
1, 37776, Note_on_c, 1, 71, 77
1, 37821, Note_on_c, 0, 83, 0
1, 37821, Note_on_c, 0, 79, 0
1, 37821, Note_on_c, 1, 71, 0
1, 37824, Note_on_c, 0, 81, 77
1, 37824, Note_on_c, 0, 78, 77
1, 37824, Note_on_c, 1, 74, 77
1, 37869, Note_on_c, 0, 81, 0
1, 37869, Note_on_c, 0, 78, 0
1, 37869, Note_on_c, 1, 74, 0
1, 37872, Note_on_c, 0, 74, 77
1, 37917, Note_on_c, 0, 74, 0
1, 37920, Note_on_c, 0, 84, 77
1, 37965, Note_on_c, 0, 84, 0
1, 37968, Note_on_c, 0, 83, 77
1, 37968, Note_on_c, 1, 67, 77
1, 38013, Note_on_c, 0, 83, 0
1, 38013, Note_on_c, 1, 67, 0
1, 38016, Note_on_c, 0, 83, 77
1, 38016, Note_on_c, 1, 76, 77
1, 38016, Note_on_c, 1, 72, 77
1, 38061, Note_on_c, 0, 83, 0
1, 38064, Note_on_c, 0, 81, 77
1, 38109, Note_on_c, 0, 81, 0
1, 38112, Note_on_c, 0, 79, 77
1, 38112, Note_on_c, 1, 76, 0
1, 38112, Note_on_c, 1, 72, 0
1, 38112, Note_on_c, 1, 74, 77
1, 38112, Note_on_c, 1, 71, 77
1, 38157, Note_on_c, 0, 79, 0
1, 38157, Note_on_c, 1, 74, 0
1, 38157, Note_on_c, 1, 71, 0
1, 38160, Note_on_c, 0, 78, 77
1, 38160, Note_on_c, 1, 72, 77
1, 38160, Note_on_c, 1, 69, 77
1, 38160, Note_on_c, 1, 62, 64
1, 38183, Note_on_c, 0, 78, 0
1, 38184, Note_on_c, 0, 74, 77
1, 38207, Note_on_c, 0, 74, 0
1, 38208, Note_on_c, 0, 78, 77
1, 38231, Note_on_c, 0, 78, 0
1, 38232, Note_on_c, 0, 74, 77
1, 38249, Note_on_c, 1, 72, 0
1, 38249, Note_on_c, 1, 69, 0
1, 38255, Note_on_c, 0, 74, 0
1, 38256, Note_on_c, 0, 79, 77
1, 38256, Note_on_c, 1, 71, 77
1, 38256, Note_on_c, 1, 67, 77
1, 38293, Note_on_c, 1, 62, 0
1, 38301, Note_on_c, 0, 79, 0
1, 38301, Note_on_c, 1, 71, 0
1, 38301, Note_on_c, 1, 67, 0
1, 38304, Note_on_c, 0, 84, 77
1, 38304, Note_on_c, 0, 81, 64
1, 38304, Note_on_c, 1, 69, 77
1, 38304, Note_on_c, 1, 66, 77
1, 38304, Note_on_c, 1, 62, 64
1, 38327, Note_on_c, 0, 81, 0
1, 38328, Note_on_c, 0, 74, 64
1, 38349, Note_on_c, 0, 84, 0
1, 38351, Note_on_c, 0, 74, 0
1, 38352, Note_on_c, 0, 84, 77
1, 38352, Note_on_c, 0, 81, 64
1, 38375, Note_on_c, 0, 81, 0
1, 38376, Note_on_c, 0, 74, 64
1, 38393, Note_on_c, 1, 69, 0
1, 38393, Note_on_c, 1, 66, 0
1, 38397, Note_on_c, 0, 84, 0
1, 38399, Note_on_c, 0, 74, 0
1, 38400, Note_on_c, 0, 83, 77
1, 38400, Note_on_c, 0, 79, 64
1, 38400, Note_on_c, 1, 71, 77
1, 38400, Note_on_c, 1, 67, 77
1, 38437, Note_on_c, 1, 62, 0
1, 38445, Note_on_c, 0, 83, 0
1, 38445, Note_on_c, 0, 79, 0
1, 38445, Note_on_c, 1, 71, 0
1, 38445, Note_on_c, 1, 67, 0
1, 38448, Note_on_c, 0, 78, 64
1, 38448, Note_on_c, 1, 72, 77
1, 38448, Note_on_c, 1, 69, 77
1, 38448, Note_on_c, 1, 62, 64
1, 38471, Note_on_c, 0, 78, 0
1, 38472, Note_on_c, 0, 74, 64
1, 38495, Note_on_c, 0, 74, 0
1, 38496, Note_on_c, 0, 78, 64
1, 38519, Note_on_c, 0, 78, 0
1, 38520, Note_on_c, 0, 74, 64
1, 38537, Note_on_c, 1, 72, 0
1, 38537, Note_on_c, 1, 69, 0
1, 38543, Note_on_c, 0, 74, 0
1, 38544, Note_on_c, 0, 79, 64
1, 38544, Note_on_c, 1, 71, 77
1, 38544, Note_on_c, 1, 67, 77
1, 38581, Note_on_c, 1, 62, 0
1, 38589, Note_on_c, 0, 79, 0
1, 38589, Note_on_c, 1, 71, 0
1, 38589, Note_on_c, 1, 67, 0
1, 38592, Note_on_c, 0, 84, 77
1, 38592, Note_on_c, 0, 81, 64
1, 38592, Note_on_c, 1, 69, 77
1, 38592, Note_on_c, 1, 66, 77
1, 38592, Note_on_c, 1, 62, 64
1, 38615, Note_on_c, 0, 81, 0
1, 38616, Note_on_c, 0, 74, 64
1, 38637, Note_on_c, 0, 84, 0
1, 38639, Note_on_c, 0, 74, 0
1, 38640, Note_on_c, 0, 84, 77
1, 38640, Note_on_c, 0, 81, 64
1, 38663, Note_on_c, 0, 81, 0
1, 38664, Note_on_c, 0, 74, 64
1, 38681, Note_on_c, 1, 69, 0
1, 38681, Note_on_c, 1, 66, 0
1, 38685, Note_on_c, 0, 84, 0
1, 38687, Note_on_c, 0, 74, 0
1, 38688, Note_on_c, 0, 83, 77
1, 38688, Note_on_c, 0, 79, 64
1, 38688, Note_on_c, 1, 71, 77
1, 38688, Note_on_c, 1, 67, 77
1, 38725, Note_on_c, 1, 62, 0
1, 38733, Note_on_c, 0, 83, 0
1, 38733, Note_on_c, 0, 79, 0
1, 38733, Note_on_c, 1, 71, 0
1, 38733, Note_on_c, 1, 67, 0
1, 38736, Note_on_c, 0, 78, 64
1, 38736, Note_on_c, 1, 72, 77
1, 38736, Note_on_c, 1, 69, 77
1, 38736, Note_on_c, 1, 62, 64
1, 38759, Note_on_c, 0, 78, 0
1, 38760, Note_on_c, 0, 74, 64
1, 38783, Note_on_c, 0, 74, 0
1, 38784, Note_on_c, 0, 78, 64
1, 38807, Note_on_c, 0, 78, 0
1, 38808, Note_on_c, 0, 74, 64
1, 38825, Note_on_c, 1, 72, 0
1, 38825, Note_on_c, 1, 69, 0
1, 38831, Note_on_c, 0, 74, 0
1, 38832, Note_on_c, 0, 79, 64
1, 38832, Note_on_c, 1, 71, 77
1, 38832, Note_on_c, 1, 67, 77
1, 38869, Note_on_c, 1, 62, 0
1, 38877, Note_on_c, 0, 79, 0
1, 38877, Note_on_c, 1, 71, 0
1, 38877, Note_on_c, 1, 67, 0
1, 38880, Note_on_c, 0, 84, 77
1, 38880, Note_on_c, 0, 81, 64
1, 38880, Note_on_c, 1, 69, 77
1, 38880, Note_on_c, 1, 66, 77
1, 38880, Note_on_c, 1, 62, 64
1, 38903, Note_on_c, 0, 81, 0
1, 38904, Note_on_c, 0, 74, 64
1, 38925, Note_on_c, 0, 84, 0
1, 38927, Note_on_c, 0, 74, 0
1, 38928, Note_on_c, 0, 84, 77
1, 38928, Note_on_c, 0, 81, 64
1, 38951, Note_on_c, 0, 81, 0
1, 38952, Note_on_c, 0, 74, 64
1, 38969, Note_on_c, 1, 69, 0
1, 38969, Note_on_c, 1, 66, 0
1, 38973, Note_on_c, 0, 84, 0
1, 38975, Note_on_c, 0, 74, 0
1, 38976, Note_on_c, 0, 83, 77
1, 38976, Note_on_c, 0, 79, 64
1, 38976, Note_on_c, 1, 67, 77
1, 39013, Note_on_c, 1, 62, 0
1, 39021, Note_on_c, 0, 83, 0
1, 39021, Note_on_c, 0, 79, 0
1, 39021, Note_on_c, 1, 67, 0
1, 39024, Note_on_c, 0, 84, 77
1, 39024, Note_on_c, 0, 81, 64
1, 39024, Note_on_c, 1, 69, 77
1, 39024, Note_on_c, 1, 66, 77
1, 39024, Note_on_c, 1, 62, 64
1, 39047, Note_on_c, 0, 81, 0
1, 39048, Note_on_c, 0, 74, 64
1, 39069, Note_on_c, 0, 84, 0
1, 39071, Note_on_c, 0, 74, 0
1, 39072, Note_on_c, 0, 84, 77
1, 39072, Note_on_c, 0, 81, 64
1, 39095, Note_on_c, 0, 81, 0
1, 39096, Note_on_c, 0, 74, 64
1, 39113, Note_on_c, 1, 69, 0
1, 39113, Note_on_c, 1, 66, 0
1, 39117, Note_on_c, 0, 84, 0
1, 39119, Note_on_c, 0, 74, 0
1, 39120, Note_on_c, 0, 83, 77
1, 39120, Note_on_c, 0, 79, 64
1, 39120, Note_on_c, 1, 67, 77
1, 39157, Note_on_c, 1, 62, 0
1, 39165, Note_on_c, 0, 83, 0
1, 39165, Note_on_c, 0, 79, 0
1, 39165, Note_on_c, 1, 67, 0
1, 39168, Note_on_c, 0, 81, 77
1, 39168, Note_on_c, 0, 78, 64
1, 39168, Note_on_c, 1, 69, 77
1, 39168, Note_on_c, 1, 66, 77
1, 39168, Note_on_c, 1, 62, 77
1, 39213, Note_on_c, 0, 81, 0
1, 39213, Note_on_c, 0, 78, 0
1, 39213, Note_on_c, 1, 69, 0
1, 39213, Note_on_c, 1, 66, 0
1, 39213, Note_on_c, 1, 62, 0
1, 39216, Note_on_c, 0, 86, 77
1, 39216, Note_on_c, 0, 78, 64
1, 39216, Note_on_c, 1, 69, 77
1, 39216, Note_on_c, 1, 66, 77
1, 39216, Note_on_c, 1, 62, 77
1, 39261, Note_on_c, 0, 86, 0
1, 39261, Note_on_c, 0, 78, 0
1, 39261, Note_on_c, 1, 69, 0
1, 39261, Note_on_c, 1, 66, 0
1, 39261, Note_on_c, 1, 62, 0
1, 39264, Note_on_c, 0, 86, 77
1, 39264, Note_on_c, 0, 78, 64
1, 39264, Note_on_c, 1, 69, 77
1, 39264, Note_on_c, 1, 66, 77
1, 39264, Note_on_c, 1, 62, 77
1, 39309, Note_on_c, 0, 86, 0
1, 39309, Note_on_c, 0, 78, 0
1, 39309, Note_on_c, 1, 69, 0
1, 39309, Note_on_c, 1, 66, 0
1, 39309, Note_on_c, 1, 62, 0
1, 39312, Note_on_c, 0, 86, 77
1, 39312, Note_on_c, 0, 78, 64
1, 39312, Note_on_c, 1, 69, 77
1, 39312, Note_on_c, 1, 66, 77
1, 39312, Note_on_c, 1, 62, 77
1, 39401, Note_on_c, 0, 86, 0
1, 39401, Note_on_c, 0, 78, 0
1, 39401, Note_on_c, 1, 69, 0
1, 39401, Note_on_c, 1, 66, 0
1, 39401, Note_on_c, 1, 62, 0
1, 39456, Note_on_c, 0, 67, 77
1, 39456, Note_on_c, 0, 59, 77
1, 39495, Note_on_c, 0, 67, 0
1, 39495, Note_on_c, 0, 59, 0
1, 39504, Note_on_c, 1, 43, 77
1, 39549, Note_on_c, 1, 43, 0
1, 39552, Note_on_c, 1, 31, 77
1, 39597, Note_on_c, 1, 31, 0
1, 39600, Note_on_c, 0, 72, 77
1, 39600, Note_on_c, 0, 64, 77
1, 39639, Note_on_c, 0, 72, 0
1, 39639, Note_on_c, 0, 64, 0
1, 39648, Note_on_c, 1, 55, 77
1, 39672, Note_on_c, 1, 55, 0
1, 39672, Note_on_c, 1, 54, 77
1, 39695, Note_on_c, 1, 54, 0
1, 39696, Note_on_c, 1, 55, 77
1, 39716, Note_on_c, 1, 55, 0
1, 39744, Note_on_c, 0, 71, 77
1, 39744, Note_on_c, 0, 62, 77
1, 39783, Note_on_c, 0, 71, 0
1, 39783, Note_on_c, 0, 62, 0
1, 39792, Note_on_c, 1, 43, 77
1, 39837, Note_on_c, 1, 43, 0
1, 39840, Note_on_c, 1, 31, 77
1, 39885, Note_on_c, 1, 31, 0
1, 39888, Note_on_c, 0, 66, 77
1, 39888, Note_on_c, 0, 60, 77
1, 39927, Note_on_c, 0, 66, 0
1, 39927, Note_on_c, 0, 60, 0
1, 39936, Note_on_c, 1, 55, 77
1, 39960, Note_on_c, 1, 55, 0
1, 39960, Note_on_c, 1, 54, 77
1, 39983, Note_on_c, 1, 54, 0
1, 39984, Note_on_c, 1, 55, 77
1, 40004, Note_on_c, 1, 55, 0
1, 40032, Note_on_c, 0, 67, 77
1, 40032, Note_on_c, 0, 59, 77
1, 40071, Note_on_c, 0, 67, 0
1, 40071, Note_on_c, 0, 59, 0
1, 40080, Note_on_c, 1, 43, 77
1, 40125, Note_on_c, 1, 43, 0
1, 40128, Note_on_c, 1, 31, 77
1, 40173, Note_on_c, 1, 31, 0
1, 40176, Note_on_c, 0, 72, 77
1, 40176, Note_on_c, 0, 64, 77
1, 40215, Note_on_c, 0, 72, 0
1, 40215, Note_on_c, 0, 64, 0
1, 40224, Note_on_c, 1, 55, 77
1, 40248, Note_on_c, 1, 55, 0
1, 40248, Note_on_c, 1, 54, 77
1, 40271, Note_on_c, 1, 54, 0
1, 40272, Note_on_c, 1, 55, 77
1, 40292, Note_on_c, 1, 55, 0
1, 40320, Note_on_c, 0, 71, 77
1, 40320, Note_on_c, 0, 62, 77
1, 40359, Note_on_c, 0, 71, 0
1, 40359, Note_on_c, 0, 62, 0
1, 40368, Note_on_c, 1, 43, 77
1, 40413, Note_on_c, 1, 43, 0
1, 40416, Note_on_c, 1, 31, 77
1, 40461, Note_on_c, 1, 31, 0
1, 40464, Note_on_c, 0, 66, 77
1, 40464, Note_on_c, 0, 60, 77
1, 40503, Note_on_c, 0, 66, 0
1, 40503, Note_on_c, 0, 60, 0
1, 40512, Note_on_c, 1, 55, 77
1, 40536, Note_on_c, 1, 55, 0
1, 40536, Note_on_c, 1, 54, 77
1, 40559, Note_on_c, 1, 54, 0
1, 40560, Note_on_c, 1, 55, 77
1, 40580, Note_on_c, 1, 55, 0
1, 40608, Note_on_c, 0, 67, 77
1, 40608, Note_on_c, 0, 59, 77
1, 40647, Note_on_c, 0, 67, 0
1, 40647, Note_on_c, 0, 59, 0
1, 40656, Note_on_c, 1, 43, 77
1, 40701, Note_on_c, 1, 43, 0
1, 40704, Note_on_c, 1, 31, 77
1, 40749, Note_on_c, 1, 31, 0
1, 40752, Note_on_c, 0, 71, 77
1, 40752, Note_on_c, 0, 67, 77
1, 40791, Note_on_c, 0, 71, 0
1, 40791, Note_on_c, 0, 67, 0
1, 40800, Note_on_c, 1, 52, 77
1, 40824, Note_on_c, 1, 52, 0
1, 40824, Note_on_c, 1, 51, 77
1, 40847, Note_on_c, 1, 51, 0
1, 40848, Note_on_c, 1, 52, 77
1, 40868, Note_on_c, 1, 52, 0
1, 40896, Note_on_c, 0, 69, 77
1, 40896, Note_on_c, 0, 67, 77
1, 40935, Note_on_c, 0, 69, 0
1, 40935, Note_on_c, 0, 67, 0
1, 40944, Note_on_c, 1, 48, 77
1, 40967, Note_on_c, 1, 48, 0
1, 40968, Note_on_c, 1, 47, 77
1, 40991, Note_on_c, 1, 47, 0
1, 40992, Note_on_c, 1, 48, 77
1, 41012, Note_on_c, 1, 48, 0
1, 41040, Note_on_c, 0, 76, 77
1, 41040, Note_on_c, 0, 67, 77
1, 41079, Note_on_c, 0, 76, 0
1, 41079, Note_on_c, 0, 67, 0
1, 41088, Note_on_c, 1, 49, 77
1, 41112, Note_on_c, 1, 49, 0
1, 41112, Note_on_c, 1, 47, 77
1, 41135, Note_on_c, 1, 47, 0
1, 41136, Note_on_c, 1, 49, 77
1, 41156, Note_on_c, 1, 49, 0
1, 41184, Note_on_c, 0, 66, 77
1, 41184, Note_on_c, 1, 50, 77
1, 41207, Note_on_c, 0, 66, 0
1, 41208, Note_on_c, 0, 62, 77
1, 41229, Note_on_c, 1, 50, 0
1, 41231, Note_on_c, 0, 62, 0
1, 41232, Note_on_c, 0, 67, 77
1, 41232, Note_on_c, 1, 52, 77
1, 41255, Note_on_c, 0, 67, 0
1, 41256, Note_on_c, 0, 62, 77
1, 41277, Note_on_c, 1, 52, 0
1, 41279, Note_on_c, 0, 62, 0
1, 41280, Note_on_c, 0, 69, 77
1, 41280, Note_on_c, 1, 54, 77
1, 41303, Note_on_c, 0, 69, 0
1, 41304, Note_on_c, 0, 62, 77
1, 41325, Note_on_c, 1, 54, 0
1, 41327, Note_on_c, 0, 62, 0
1, 41328, Note_on_c, 0, 71, 77
1, 41328, Note_on_c, 1, 55, 77
1, 41351, Note_on_c, 0, 71, 0
1, 41352, Note_on_c, 0, 62, 77
1, 41375, Note_on_c, 0, 62, 0
1, 41376, Note_on_c, 0, 69, 77
1, 41376, Note_on_c, 1, 55, 0
1, 41376, Note_on_c, 1, 54, 77
1, 41399, Note_on_c, 0, 69, 0
1, 41400, Note_on_c, 0, 62, 77
1, 41421, Note_on_c, 1, 54, 0
1, 41423, Note_on_c, 0, 62, 0
1, 41424, Note_on_c, 0, 74, 77
1, 41447, Note_on_c, 0, 74, 0
1, 41448, Note_on_c, 0, 62, 77
1, 41471, Note_on_c, 0, 62, 0
1, 41472, Note_on_c, 0, 66, 77
1, 41472, Note_on_c, 1, 50, 77
1, 41495, Note_on_c, 0, 66, 0
1, 41496, Note_on_c, 0, 62, 77
1, 41517, Note_on_c, 1, 50, 0
1, 41519, Note_on_c, 0, 62, 0
1, 41520, Note_on_c, 0, 67, 77
1, 41520, Note_on_c, 1, 52, 77
1, 41543, Note_on_c, 0, 67, 0
1, 41544, Note_on_c, 0, 62, 77
1, 41565, Note_on_c, 1, 52, 0
1, 41567, Note_on_c, 0, 62, 0
1, 41568, Note_on_c, 0, 69, 77
1, 41568, Note_on_c, 1, 54, 77
1, 41591, Note_on_c, 0, 69, 0
1, 41592, Note_on_c, 0, 62, 77
1, 41613, Note_on_c, 1, 54, 0
1, 41615, Note_on_c, 0, 62, 0
1, 41616, Note_on_c, 0, 71, 77
1, 41616, Note_on_c, 1, 55, 77
1, 41639, Note_on_c, 0, 71, 0
1, 41640, Note_on_c, 0, 62, 77
1, 41663, Note_on_c, 0, 62, 0
1, 41664, Note_on_c, 0, 69, 77
1, 41664, Note_on_c, 1, 55, 0
1, 41664, Note_on_c, 1, 54, 77
1, 41687, Note_on_c, 0, 69, 0
1, 41688, Note_on_c, 0, 62, 77
1, 41709, Note_on_c, 1, 54, 0
1, 41711, Note_on_c, 0, 62, 0
1, 41712, Note_on_c, 0, 74, 77
1, 41735, Note_on_c, 0, 74, 0
1, 41736, Note_on_c, 0, 62, 77
1, 41759, Note_on_c, 0, 62, 0
1, 41760, Note_on_c, 0, 66, 77
1, 41760, Note_on_c, 1, 50, 77
1, 41783, Note_on_c, 0, 66, 0
1, 41784, Note_on_c, 0, 62, 77
1, 41805, Note_on_c, 1, 50, 0
1, 41807, Note_on_c, 0, 62, 0
1, 41808, Note_on_c, 0, 67, 77
1, 41808, Note_on_c, 1, 52, 77
1, 41831, Note_on_c, 0, 67, 0
1, 41832, Note_on_c, 0, 62, 77
1, 41853, Note_on_c, 1, 52, 0
1, 41855, Note_on_c, 0, 62, 0
1, 41856, Note_on_c, 0, 69, 77
1, 41856, Note_on_c, 1, 54, 77
1, 41879, Note_on_c, 0, 69, 0
1, 41880, Note_on_c, 0, 62, 77
1, 41901, Note_on_c, 1, 54, 0
1, 41903, Note_on_c, 0, 62, 0
1, 41904, Note_on_c, 0, 71, 77
1, 41904, Note_on_c, 1, 55, 77
1, 41927, Note_on_c, 0, 71, 0
1, 41928, Note_on_c, 0, 62, 77
1, 41949, Note_on_c, 1, 55, 0
1, 41951, Note_on_c, 0, 62, 0
1, 41952, Note_on_c, 0, 72, 77
1, 41952, Note_on_c, 1, 57, 77
1, 41975, Note_on_c, 0, 72, 0
1, 41976, Note_on_c, 0, 62, 77
1, 41997, Note_on_c, 1, 57, 0
1, 41999, Note_on_c, 0, 62, 0
1, 42000, Note_on_c, 0, 74, 77
1, 42000, Note_on_c, 1, 59, 77
1, 42023, Note_on_c, 0, 74, 0
1, 42024, Note_on_c, 0, 62, 77
1, 42045, Note_on_c, 1, 59, 0
1, 42047, Note_on_c, 0, 62, 0
1, 42048, Note_on_c, 0, 76, 77
1, 42048, Note_on_c, 1, 60, 77
1, 42071, Note_on_c, 0, 76, 0
1, 42072, Note_on_c, 0, 72, 77
1, 42095, Note_on_c, 0, 72, 0
1, 42096, Note_on_c, 0, 71, 77
1, 42119, Note_on_c, 0, 71, 0
1, 42120, Note_on_c, 0, 69, 77
1, 42143, Note_on_c, 0, 69, 0
1, 42144, Note_on_c, 0, 68, 77
1, 42167, Note_on_c, 0, 68, 0
1, 42168, Note_on_c, 0, 69, 77
1, 42181, Note_on_c, 1, 60, 0
1, 42191, Note_on_c, 0, 69, 0
1, 42192, Note_on_c, 0, 74, 77
1, 42192, Note_on_c, 1, 59, 77
1, 42215, Note_on_c, 0, 74, 0
1, 42216, Note_on_c, 0, 71, 77
1, 42239, Note_on_c, 0, 71, 0
1, 42240, Note_on_c, 0, 69, 77
1, 42263, Note_on_c, 0, 69, 0
1, 42264, Note_on_c, 0, 67, 77
1, 42287, Note_on_c, 0, 67, 0
1, 42288, Note_on_c, 0, 66, 77
1, 42311, Note_on_c, 0, 66, 0
1, 42312, Note_on_c, 0, 67, 77
1, 42325, Note_on_c, 1, 59, 0
1, 42335, Note_on_c, 0, 67, 0
1, 42336, Note_on_c, 0, 79, 77
1, 42336, Note_on_c, 1, 64, 77
1, 42336, Note_on_c, 1, 61, 77
1, 42336, Note_on_c, 1, 57, 77
1, 42359, Note_on_c, 0, 79, 0
1, 42360, Note_on_c, 0, 81, 77
1, 42383, Note_on_c, 0, 81, 0
1, 42384, Note_on_c, 0, 79, 77
1, 42407, Note_on_c, 0, 79, 0
1, 42408, Note_on_c, 0, 78, 77
1, 42425, Note_on_c, 1, 64, 0
1, 42425, Note_on_c, 1, 61, 0
1, 42425, Note_on_c, 1, 57, 0
1, 42431, Note_on_c, 0, 78, 0
1, 42432, Note_on_c, 0, 76, 77
1, 42455, Note_on_c, 0, 76, 0
1, 42456, Note_on_c, 0, 74, 77
1, 42479, Note_on_c, 0, 74, 0
1, 42480, Note_on_c, 0, 73, 77
1, 42503, Note_on_c, 0, 73, 0
1, 42504, Note_on_c, 0, 71, 77
1, 42527, Note_on_c, 0, 71, 0
1, 42528, Note_on_c, 0, 69, 77
1, 42551, Note_on_c, 0, 69, 0
1, 42552, Note_on_c, 1, 67, 77
1, 42575, Note_on_c, 1, 67, 0
1, 42576, Note_on_c, 1, 66, 77
1, 42599, Note_on_c, 1, 66, 0
1, 42600, Note_on_c, 1, 64, 77
1, 42623, Note_on_c, 1, 64, 0
1, 42624, Note_on_c, 0, 84, 77
1, 42624, Note_on_c, 1, 69, 77
1, 42624, Note_on_c, 1, 66, 77
1, 42624, Note_on_c, 1, 62, 77
1, 42647, Note_on_c, 0, 84, 0
1, 42648, Note_on_c, 0, 86, 77
1, 42671, Note_on_c, 0, 86, 0
1, 42672, Note_on_c, 0, 84, 77
1, 42695, Note_on_c, 0, 84, 0
1, 42696, Note_on_c, 0, 83, 77
1, 42719, Note_on_c, 0, 83, 0
1, 42720, Note_on_c, 0, 81, 77
1, 42743, Note_on_c, 0, 81, 0
1, 42744, Note_on_c, 0, 79, 77
1, 42757, Note_on_c, 1, 69, 0
1, 42757, Note_on_c, 1, 66, 0
1, 42757, Note_on_c, 1, 62, 0
1, 42767, Note_on_c, 0, 79, 0
1, 42768, Note_on_c, 0, 78, 77
1, 42791, Note_on_c, 0, 78, 0
1, 42792, Note_on_c, 0, 76, 77
1, 42815, Note_on_c, 0, 76, 0
1, 42816, Note_on_c, 0, 74, 77
1, 42839, Note_on_c, 0, 74, 0
1, 42840, Note_on_c, 0, 72, 77
1, 42863, Note_on_c, 0, 72, 0
1, 42864, Note_on_c, 0, 71, 77
1, 42887, Note_on_c, 0, 71, 0
1, 42888, Note_on_c, 0, 69, 77
1, 42911, Note_on_c, 0, 69, 0
1, 42912, Note_on_c, 0, 71, 77
1, 42912, Note_on_c, 1, 55, 77
1, 42935, Note_on_c, 0, 71, 0
1, 42936, Note_on_c, 0, 67, 77
1, 42957, Note_on_c, 1, 55, 0
1, 42959, Note_on_c, 0, 67, 0
1, 42960, Note_on_c, 0, 72, 77
1, 42960, Note_on_c, 1, 57, 77
1, 42983, Note_on_c, 0, 72, 0
1, 42984, Note_on_c, 0, 67, 77
1, 43005, Note_on_c, 1, 57, 0
1, 43007, Note_on_c, 0, 67, 0
1, 43008, Note_on_c, 0, 74, 77
1, 43008, Note_on_c, 1, 59, 77
1, 43031, Note_on_c, 0, 74, 0
1, 43032, Note_on_c, 0, 67, 77
1, 43053, Note_on_c, 1, 59, 0
1, 43055, Note_on_c, 0, 67, 0
1, 43056, Note_on_c, 0, 76, 77
1, 43056, Note_on_c, 1, 60, 77
1, 43079, Note_on_c, 0, 76, 0
1, 43080, Note_on_c, 0, 67, 77
1, 43101, Note_on_c, 1, 60, 0
1, 43103, Note_on_c, 0, 67, 0
1, 43104, Note_on_c, 0, 78, 77
1, 43104, Note_on_c, 1, 62, 77
1, 43127, Note_on_c, 0, 78, 0
1, 43128, Note_on_c, 0, 67, 77
1, 43149, Note_on_c, 1, 62, 0
1, 43151, Note_on_c, 0, 67, 0
1, 43152, Note_on_c, 0, 79, 77
1, 43152, Note_on_c, 1, 64, 77
1, 43172, Note_on_c, 0, 79, 0
1, 43197, Note_on_c, 1, 64, 0
1, 43200, Note_on_c, 0, 71, 77
1, 43200, Note_on_c, 0, 67, 77
1, 43200, Note_on_c, 1, 62, 77
1, 43333, Note_on_c, 1, 62, 0
1, 43344, Note_on_c, 1, 50, 77
1, 43389, Note_on_c, 0, 71, 0
1, 43389, Note_on_c, 0, 67, 0
1, 43392, Note_on_c, 0, 72, 77
1, 43392, Note_on_c, 0, 69, 77
1, 43437, Note_on_c, 0, 72, 0
1, 43437, Note_on_c, 0, 69, 0
1, 43440, Note_on_c, 0, 69, 77
1, 43440, Note_on_c, 0, 66, 77
1, 43477, Note_on_c, 1, 50, 0
1, 43485, Note_on_c, 0, 69, 0
1, 43485, Note_on_c, 0, 66, 0
1, 43488, Note_on_c, 0, 67, 77
1, 43488, Note_on_c, 1, 55, 77
1, 43488, Note_on_c, 1, 55, 64
1, 43577, Note_on_c, 0, 67, 0
1, 43577, Note_on_c, 1, 55, 0
1, 43577, Note_on_c, 1, 55, 0
1, 43584, Note_on_c, 0, 79, 77
1, 43629, Note_on_c, 0, 79, 0
1, 43632, Note_on_c, 0, 69, 77
1, 43632, Note_on_c, 1, 67, 77
1, 43632, Note_on_c, 1, 60, 64
1, 43677, Note_on_c, 0, 69, 0
1, 43680, Note_on_c, 0, 72, 77
1, 43721, Note_on_c, 1, 60, 0
1, 43725, Note_on_c, 0, 72, 0
1, 43728, Note_on_c, 0, 71, 77
1, 43728, Note_on_c, 1, 62, 64
1, 43773, Note_on_c, 0, 71, 0
1, 43773, Note_on_c, 1, 62, 0
1, 43776, Note_on_c, 0, 74, 77
1, 43776, Note_on_c, 1, 64, 64
1, 43821, Note_on_c, 0, 74, 0
1, 43824, Note_on_c, 0, 72, 77
1, 43865, Note_on_c, 1, 64, 0
1, 43869, Note_on_c, 0, 72, 0
1, 43872, Note_on_c, 0, 71, 77
1, 43872, Note_on_c, 1, 62, 64
1, 43909, Note_on_c, 1, 67, 0
1, 43917, Note_on_c, 0, 71, 0
1, 43917, Note_on_c, 1, 62, 0
1, 43920, Note_on_c, 0, 69, 77
1, 43920, Note_on_c, 1, 67, 77
1, 43920, Note_on_c, 1, 60, 64
1, 43965, Note_on_c, 0, 69, 0
1, 43968, Note_on_c, 0, 76, 77
1, 44009, Note_on_c, 1, 60, 0
1, 44013, Note_on_c, 0, 76, 0
1, 44016, Note_on_c, 0, 71, 77
1, 44016, Note_on_c, 1, 62, 64
1, 44061, Note_on_c, 0, 71, 0
1, 44061, Note_on_c, 1, 62, 0
1, 44064, Note_on_c, 0, 74, 77
1, 44064, Note_on_c, 1, 64, 64
1, 44109, Note_on_c, 0, 74, 0
1, 44112, Note_on_c, 0, 72, 77
1, 44153, Note_on_c, 1, 64, 0
1, 44157, Note_on_c, 0, 72, 0
1, 44160, Note_on_c, 0, 71, 77
1, 44160, Note_on_c, 1, 62, 64
1, 44197, Note_on_c, 1, 67, 0
1, 44205, Note_on_c, 0, 71, 0
1, 44205, Note_on_c, 1, 62, 0
1, 44208, Note_on_c, 0, 69, 77
1, 44208, Note_on_c, 1, 67, 77
1, 44208, Note_on_c, 1, 61, 64
1, 44253, Note_on_c, 0, 69, 0
1, 44256, Note_on_c, 0, 79, 77
1, 44297, Note_on_c, 1, 61, 0
1, 44301, Note_on_c, 0, 79, 0
1, 44304, Note_on_c, 0, 71, 77
1, 44304, Note_on_c, 1, 62, 64
1, 44349, Note_on_c, 0, 71, 0
1, 44349, Note_on_c, 1, 62, 0
1, 44352, Note_on_c, 0, 74, 77
1, 44352, Note_on_c, 1, 64, 64
1, 44397, Note_on_c, 0, 74, 0
1, 44400, Note_on_c, 0, 73, 77
1, 44445, Note_on_c, 0, 73, 0
1, 44448, Note_on_c, 0, 76, 77
1, 44485, Note_on_c, 1, 67, 0
1, 44485, Note_on_c, 1, 64, 0
1, 44496, Note_on_c, 1, 69, 77
1, 44496, Note_on_c, 1, 66, 64
1, 44541, Note_on_c, 0, 76, 0
1, 44544, Note_on_c, 0, 74, 77
1, 44589, Note_on_c, 0, 74, 0
1, 44592, Note_on_c, 0, 84, 77
1, 44629, Note_on_c, 1, 69, 0
1, 44629, Note_on_c, 1, 66, 0
1, 44640, Note_on_c, 1, 67, 77
1, 44640, Note_on_c, 1, 67, 64
1, 44663, Note_on_c, 0, 84, 0
1, 44664, Note_on_c, 0, 83, 77
1, 44687, Note_on_c, 0, 83, 0
1, 44688, Note_on_c, 0, 86, 77
1, 44711, Note_on_c, 0, 86, 0
1, 44712, Note_on_c, 0, 84, 77
1, 44735, Note_on_c, 0, 84, 0
1, 44736, Note_on_c, 0, 83, 77
1, 44759, Note_on_c, 0, 83, 0
1, 44760, Note_on_c, 0, 81, 77
1, 44773, Note_on_c, 1, 67, 0
1, 44773, Note_on_c, 1, 67, 0
1, 44783, Note_on_c, 0, 81, 0
1, 44784, Note_on_c, 0, 79, 77
1, 44784, Note_on_c, 1, 62, 77
1, 44784, Note_on_c, 1, 59, 77
1, 44807, Note_on_c, 0, 79, 0
1, 44808, Note_on_c, 0, 78, 77
1, 44831, Note_on_c, 0, 78, 0
1, 44832, Note_on_c, 0, 76, 77
1, 44855, Note_on_c, 0, 76, 0
1, 44856, Note_on_c, 0, 74, 77
1, 44879, Note_on_c, 0, 74, 0
1, 44880, Note_on_c, 0, 72, 77
1, 44903, Note_on_c, 0, 72, 0
1, 44904, Note_on_c, 0, 71, 77
1, 44917, Note_on_c, 1, 62, 0
1, 44917, Note_on_c, 1, 59, 0
1, 44927, Note_on_c, 0, 71, 0
1, 44928, Note_on_c, 0, 69, 77
1, 44928, Note_on_c, 1, 64, 77
1, 44928, Note_on_c, 1, 60, 77
1, 44973, Note_on_c, 0, 69, 0
1, 44976, Note_on_c, 0, 87, 77
1, 44976, Note_on_c, 0, 83, 77
1, 45017, Note_on_c, 1, 64, 0
1, 45017, Note_on_c, 1, 60, 0
1, 45024, Note_on_c, 0, 87, 0
1, 45024, Note_on_c, 0, 83, 0
1, 45024, Note_on_c, 0, 88, 77
1, 45024, Note_on_c, 0, 84, 77
1, 45069, Note_on_c, 0, 88, 0
1, 45069, Note_on_c, 0, 84, 0
1, 45072, Note_on_c, 0, 88, 77
1, 45072, Note_on_c, 0, 84, 77
1, 45117, Note_on_c, 0, 88, 0
1, 45117, Note_on_c, 0, 84, 0
1, 45120, Note_on_c, 0, 86, 77
1, 45120, Note_on_c, 0, 83, 77
1, 45165, Note_on_c, 0, 86, 0
1, 45165, Note_on_c, 0, 83, 0
1, 45168, Note_on_c, 0, 84, 77
1, 45168, Note_on_c, 0, 81, 77
1, 45213, Note_on_c, 0, 84, 0
1, 45213, Note_on_c, 0, 81, 0
1, 45216, Note_on_c, 0, 83, 77
1, 45216, Note_on_c, 1, 67, 77
1, 45216, Note_on_c, 1, 62, 77
1, 45228, Note_on_c, 0, 83, 0
1, 45228, Note_on_c, 0, 81, 77
1, 45240, Note_on_c, 0, 81, 0
1, 45240, Note_on_c, 0, 83, 77
1, 45261, Note_on_c, 0, 83, 0
1, 45264, Note_on_c, 0, 86, 77
1, 45309, Note_on_c, 0, 86, 0
1, 45312, Note_on_c, 0, 79, 77
1, 45349, Note_on_c, 1, 67, 0
1, 45349, Note_on_c, 1, 62, 0
1, 45357, Note_on_c, 0, 79, 0
1, 45360, Note_on_c, 0, 81, 77
1, 45360, Note_on_c, 1, 66, 77
1, 45360, Note_on_c, 1, 62, 77
1, 45372, Note_on_c, 0, 81, 0
1, 45372, Note_on_c, 0, 79, 77
1, 45384, Note_on_c, 0, 79, 0
1, 45384, Note_on_c, 0, 81, 77
1, 45405, Note_on_c, 0, 81, 0
1, 45408, Note_on_c, 0, 84, 77
1, 45453, Note_on_c, 0, 84, 0
1, 45456, Note_on_c, 0, 78, 77
1, 45493, Note_on_c, 1, 66, 0
1, 45493, Note_on_c, 1, 62, 0
1, 45501, Note_on_c, 0, 78, 0
1, 45504, Note_on_c, 0, 79, 77
1, 45504, Note_on_c, 1, 64, 77
1, 45504, Note_on_c, 1, 52, 77
1, 45527, Note_on_c, 0, 79, 0
1, 45528, Note_on_c, 0, 81, 77
1, 45549, Note_on_c, 1, 64, 0
1, 45549, Note_on_c, 1, 52, 0
1, 45551, Note_on_c, 0, 81, 0
1, 45552, Note_on_c, 0, 78, 77
1, 45552, Note_on_c, 1, 62, 77
1, 45552, Note_on_c, 1, 50, 77
1, 45575, Note_on_c, 0, 78, 0
1, 45576, Note_on_c, 0, 79, 77
1, 45597, Note_on_c, 1, 62, 0
1, 45597, Note_on_c, 1, 50, 0
1, 45599, Note_on_c, 0, 79, 0
1, 45600, Note_on_c, 0, 76, 77
1, 45600, Note_on_c, 1, 60, 77
1, 45600, Note_on_c, 1, 48, 77
1, 45620, Note_on_c, 0, 76, 0
1, 45645, Note_on_c, 1, 60, 0
1, 45645, Note_on_c, 1, 48, 0
1, 45648, Note_on_c, 0, 74, 77
1, 45648, Note_on_c, 1, 59, 77
1, 45648, Note_on_c, 1, 47, 77
1, 45671, Note_on_c, 0, 74, 0
1, 45672, Note_on_c, 0, 76, 77
1, 45693, Note_on_c, 1, 59, 0
1, 45693, Note_on_c, 1, 47, 0
1, 45695, Note_on_c, 0, 76, 0
1, 45696, Note_on_c, 0, 72, 77
1, 45696, Note_on_c, 1, 57, 77
1, 45696, Note_on_c, 1, 45, 77
1, 45719, Note_on_c, 0, 72, 0
1, 45720, Note_on_c, 0, 74, 77
1, 45741, Note_on_c, 1, 57, 0
1, 45741, Note_on_c, 1, 45, 0
1, 45743, Note_on_c, 0, 74, 0
1, 45744, Note_on_c, 0, 71, 77
1, 45744, Note_on_c, 1, 55, 77
1, 45744, Note_on_c, 1, 43, 77
1, 45764, Note_on_c, 0, 71, 0
1, 45789, Note_on_c, 1, 55, 0
1, 45789, Note_on_c, 1, 43, 0
1, 45792, Note_on_c, 0, 69, 77
1, 45792, Note_on_c, 1, 60, 77
1, 45792, Note_on_c, 1, 48, 77
1, 45837, Note_on_c, 0, 69, 0
1, 45840, Note_on_c, 0, 72, 77
1, 45885, Note_on_c, 0, 72, 0
1, 45888, Note_on_c, 0, 76, 77
1, 45933, Note_on_c, 0, 76, 0
1, 45936, Note_on_c, 0, 81, 77
1, 45981, Note_on_c, 0, 81, 0
1, 45984, Note_on_c, 0, 84, 77
1, 45996, Note_on_c, 0, 84, 0
1, 45996, Note_on_c, 0, 83, 77
1, 46008, Note_on_c, 0, 83, 0
1, 46008, Note_on_c, 0, 84, 77
1, 46029, Note_on_c, 0, 84, 0
1, 46032, Note_on_c, 0, 88, 77
1, 46057, Note_on_c, 1, 60, 0
1, 46057, Note_on_c, 1, 48, 0
1, 46077, Note_on_c, 0, 88, 0
1, 46080, Note_on_c, 0, 86, 77
1, 46080, Note_on_c, 1, 62, 77
1, 46125, Note_on_c, 0, 86, 0
1, 46128, Note_on_c, 0, 83, 77
1, 46173, Note_on_c, 0, 83, 0
1, 46176, Note_on_c, 0, 79, 77
1, 46213, Note_on_c, 1, 62, 0
1, 46221, Note_on_c, 0, 79, 0
1, 46224, Note_on_c, 0, 84, 77
1, 46224, Note_on_c, 1, 62, 77
1, 46269, Note_on_c, 0, 84, 0
1, 46272, Note_on_c, 0, 81, 77
1, 46317, Note_on_c, 0, 81, 0
1, 46320, Note_on_c, 0, 78, 77
1, 46357, Note_on_c, 1, 62, 0
1, 46365, Note_on_c, 0, 78, 0
1, 46368, Note_on_c, 0, 79, 63
1, 46368, Note_on_c, 1, 67, 63
1, 46413, Note_on_c, 0, 79, 0
1, 46413, Note_on_c, 1, 67, 0
1, 46416, Note_on_c, 0, 74, 63
1, 46416, Note_on_c, 1, 62, 63
1, 46461, Note_on_c, 0, 74, 0
1, 46461, Note_on_c, 1, 62, 0
1, 46464, Note_on_c, 0, 71, 63
1, 46464, Note_on_c, 1, 59, 63
1, 46509, Note_on_c, 0, 71, 0
1, 46509, Note_on_c, 1, 59, 0
1, 46512, Note_on_c, 0, 76, 63
1, 46512, Note_on_c, 1, 64, 63
1, 46557, Note_on_c, 0, 76, 0
1, 46557, Note_on_c, 1, 64, 0
1, 46560, Note_on_c, 0, 72, 63
1, 46560, Note_on_c, 1, 60, 63
1, 46605, Note_on_c, 0, 72, 0
1, 46605, Note_on_c, 1, 60, 0
1, 46608, Note_on_c, 0, 69, 63
1, 46608, Note_on_c, 1, 57, 63
1, 46653, Note_on_c, 0, 69, 0
1, 46653, Note_on_c, 1, 57, 0
1, 46656, Note_on_c, 0, 74, 63
1, 46656, Note_on_c, 1, 62, 63
1, 46701, Note_on_c, 0, 74, 0
1, 46701, Note_on_c, 1, 62, 0
1, 46704, Note_on_c, 0, 71, 63
1, 46704, Note_on_c, 1, 59, 63
1, 46749, Note_on_c, 0, 71, 0
1, 46749, Note_on_c, 1, 59, 0
1, 46752, Note_on_c, 0, 67, 63
1, 46752, Note_on_c, 1, 55, 63
1, 46797, Note_on_c, 0, 67, 0
1, 46797, Note_on_c, 1, 55, 0
1, 46800, Note_on_c, 0, 62, 63
1, 46800, Note_on_c, 1, 50, 63
1, 46845, Note_on_c, 0, 62, 0
1, 46845, Note_on_c, 1, 50, 0
1, 46848, Note_on_c, 0, 64, 63
1, 46848, Note_on_c, 1, 52, 63
1, 46893, Note_on_c, 0, 64, 0
1, 46893, Note_on_c, 1, 52, 0
1, 46896, Note_on_c, 0, 66, 63
1, 46896, Note_on_c, 1, 54, 63
1, 46941, Note_on_c, 0, 66, 0
1, 46941, Note_on_c, 1, 54, 0
1, 46944, Note_on_c, 0, 55, 63
1, 46944, Note_on_c, 1, 43, 63
1, 47033, Note_on_c, 0, 55, 0
1, 47033, Note_on_c, 1, 43, 0
1, 47232, Note_on_c, 1, 66, 77
1, 47232, Note_on_c, 1, 62, 77
1, 47271, Note_on_c, 1, 66, 0
1, 47271, Note_on_c, 1, 62, 0
1, 47280, Note_on_c, 0, 86, 77
1, 47328, Note_on_c, 0, 86, 0
1, 47328, Note_on_c, 0, 74, 77
1, 47373, Note_on_c, 0, 74, 0
1, 47376, Note_on_c, 1, 71, 77
1, 47376, Note_on_c, 1, 67, 77
1, 47415, Note_on_c, 1, 71, 0
1, 47415, Note_on_c, 1, 67, 0
1, 47424, Note_on_c, 0, 86, 77
1, 47447, Note_on_c, 0, 86, 0
1, 47448, Note_on_c, 0, 88, 77
1, 47471, Note_on_c, 0, 88, 0
1, 47472, Note_on_c, 0, 86, 77
1, 47492, Note_on_c, 0, 86, 0
1, 47520, Note_on_c, 1, 69, 77
1, 47520, Note_on_c, 1, 66, 77
1, 47559, Note_on_c, 1, 69, 0
1, 47559, Note_on_c, 1, 66, 0
1, 47568, Note_on_c, 0, 86, 77
1, 47616, Note_on_c, 0, 86, 0
1, 47616, Note_on_c, 0, 74, 77
1, 47661, Note_on_c, 0, 74, 0
1, 47664, Note_on_c, 1, 67, 77
1, 47664, Note_on_c, 1, 64, 77
1, 47703, Note_on_c, 1, 67, 0
1, 47703, Note_on_c, 1, 64, 0
1, 47712, Note_on_c, 0, 84, 77
1, 47735, Note_on_c, 0, 84, 0
1, 47736, Note_on_c, 0, 86, 77
1, 47759, Note_on_c, 0, 86, 0
1, 47760, Note_on_c, 0, 84, 77
1, 47780, Note_on_c, 0, 84, 0
1, 47808, Note_on_c, 1, 66, 77
1, 47808, Note_on_c, 1, 63, 77
1, 47847, Note_on_c, 1, 66, 0
1, 47847, Note_on_c, 1, 63, 0
1, 47856, Note_on_c, 0, 83, 77
1, 47904, Note_on_c, 0, 83, 0
1, 47904, Note_on_c, 0, 71, 77
1, 47949, Note_on_c, 0, 71, 0
1, 47952, Note_on_c, 1, 63, 77
1, 47952, Note_on_c, 1, 59, 77
1, 47991, Note_on_c, 1, 63, 0
1, 47991, Note_on_c, 1, 59, 0
1, 48000, Note_on_c, 0, 81, 77
1, 48023, Note_on_c, 0, 81, 0
1, 48024, Note_on_c, 0, 83, 77
1, 48047, Note_on_c, 0, 83, 0
1, 48048, Note_on_c, 0, 81, 77
1, 48068, Note_on_c, 0, 81, 0
1, 48096, Note_on_c, 0, 79, 77
1, 48096, Note_on_c, 0, 76, 77
1, 48135, Note_on_c, 0, 79, 0
1, 48135, Note_on_c, 0, 76, 0
1, 48144, Note_on_c, 1, 52, 77
1, 48192, Note_on_c, 1, 52, 0
1, 48192, Note_on_c, 1, 40, 77
1, 48237, Note_on_c, 1, 40, 0
1, 48240, Note_on_c, 0, 84, 77
1, 48240, Note_on_c, 0, 81, 77
1, 48279, Note_on_c, 0, 84, 0
1, 48279, Note_on_c, 0, 81, 0
1, 48288, Note_on_c, 1, 64, 77
1, 48311, Note_on_c, 1, 64, 0
1, 48312, Note_on_c, 1, 66, 77
1, 48335, Note_on_c, 1, 66, 0
1, 48336, Note_on_c, 1, 64, 77
1, 48356, Note_on_c, 1, 64, 0
1, 48384, Note_on_c, 0, 83, 77
1, 48384, Note_on_c, 0, 79, 77
1, 48423, Note_on_c, 0, 83, 0
1, 48423, Note_on_c, 0, 79, 0
1, 48432, Note_on_c, 1, 52, 77
1, 48480, Note_on_c, 1, 52, 0
1, 48480, Note_on_c, 1, 40, 77
1, 48525, Note_on_c, 1, 40, 0
1, 48528, Note_on_c, 0, 81, 77
1, 48528, Note_on_c, 0, 78, 77
1, 48567, Note_on_c, 0, 81, 0
1, 48567, Note_on_c, 0, 78, 0
1, 48576, Note_on_c, 1, 64, 77
1, 48599, Note_on_c, 1, 64, 0
1, 48600, Note_on_c, 1, 66, 77
1, 48623, Note_on_c, 1, 66, 0
1, 48624, Note_on_c, 1, 64, 77
1, 48644, Note_on_c, 1, 64, 0
1, 48672, Note_on_c, 0, 79, 77
1, 48672, Note_on_c, 0, 76, 77
1, 48711, Note_on_c, 0, 79, 0
1, 48711, Note_on_c, 0, 76, 0
1, 48720, Note_on_c, 1, 52, 77
1, 48768, Note_on_c, 1, 52, 0
1, 48768, Note_on_c, 1, 40, 77
1, 48813, Note_on_c, 1, 40, 0
1, 48816, Note_on_c, 0, 84, 77
1, 48816, Note_on_c, 0, 81, 77
1, 48855, Note_on_c, 0, 84, 0
1, 48855, Note_on_c, 0, 81, 0
1, 48864, Note_on_c, 1, 64, 77
1, 48887, Note_on_c, 1, 64, 0
1, 48888, Note_on_c, 1, 66, 77
1, 48911, Note_on_c, 1, 66, 0
1, 48912, Note_on_c, 1, 64, 77
1, 48932, Note_on_c, 1, 64, 0
1, 48960, Note_on_c, 0, 83, 77
1, 48960, Note_on_c, 0, 79, 77
1, 48999, Note_on_c, 0, 83, 0
1, 48999, Note_on_c, 0, 79, 0
1, 49008, Note_on_c, 1, 52, 77
1, 49056, Note_on_c, 1, 52, 0
1, 49056, Note_on_c, 1, 40, 77
1, 49101, Note_on_c, 1, 40, 0
1, 49104, Note_on_c, 0, 81, 77
1, 49104, Note_on_c, 0, 78, 77
1, 49143, Note_on_c, 0, 81, 0
1, 49143, Note_on_c, 0, 78, 0
1, 49152, Note_on_c, 1, 64, 77
1, 49175, Note_on_c, 1, 64, 0
1, 49176, Note_on_c, 1, 66, 77
1, 49199, Note_on_c, 1, 66, 0
1, 49200, Note_on_c, 1, 64, 77
1, 49220, Note_on_c, 1, 64, 0
1, 49248, Note_on_c, 0, 79, 77
1, 49248, Note_on_c, 0, 76, 77
1, 49287, Note_on_c, 0, 79, 0
1, 49287, Note_on_c, 0, 76, 0
1, 49296, Note_on_c, 1, 52, 77
1, 49341, Note_on_c, 1, 52, 0
1, 49344, Note_on_c, 1, 40, 77
1, 49389, Note_on_c, 1, 40, 0
1, 49392, Note_on_c, 0, 79, 77
1, 49440, Note_on_c, 0, 72, 64
1, 49440, Note_on_c, 1, 64, 77
1, 49463, Note_on_c, 0, 72, 0
1, 49464, Note_on_c, 0, 74, 64
1, 49485, Note_on_c, 1, 64, 0
1, 49487, Note_on_c, 0, 74, 0
1, 49488, Note_on_c, 0, 72, 64
1, 49488, Note_on_c, 1, 52, 77
1, 49508, Note_on_c, 0, 72, 0
1, 49525, Note_on_c, 0, 79, 0
1, 49533, Note_on_c, 1, 52, 0
1, 49536, Note_on_c, 0, 77, 77
1, 49536, Note_on_c, 0, 72, 64
1, 49581, Note_on_c, 0, 72, 0
1, 49584, Note_on_c, 0, 71, 64
1, 49584, Note_on_c, 1, 62, 77
1, 49629, Note_on_c, 0, 71, 0
1, 49629, Note_on_c, 1, 62, 0
1, 49632, Note_on_c, 0, 71, 64
1, 49632, Note_on_c, 1, 50, 77
1, 49669, Note_on_c, 0, 77, 0
1, 49677, Note_on_c, 0, 71, 0
1, 49677, Note_on_c, 1, 50, 0
1, 49680, Note_on_c, 0, 76, 77
1, 49728, Note_on_c, 0, 69, 64
1, 49728, Note_on_c, 1, 60, 77
1, 49751, Note_on_c, 0, 69, 0
1, 49752, Note_on_c, 0, 71, 64
1, 49773, Note_on_c, 1, 60, 0
1, 49775, Note_on_c, 0, 71, 0
1, 49776, Note_on_c, 0, 69, 64
1, 49776, Note_on_c, 1, 48, 77
1, 49796, Note_on_c, 0, 69, 0
1, 49813, Note_on_c, 0, 76, 0
1, 49821, Note_on_c, 1, 48, 0
1, 49824, Note_on_c, 0, 74, 77
1, 49824, Note_on_c, 0, 69, 64
1, 49869, Note_on_c, 0, 69, 0
1, 49872, Note_on_c, 0, 68, 64
1, 49872, Note_on_c, 1, 59, 77
1, 49917, Note_on_c, 0, 68, 0
1, 49917, Note_on_c, 1, 59, 0
1, 49920, Note_on_c, 0, 68, 64
1, 49920, Note_on_c, 1, 47, 77
1, 49957, Note_on_c, 0, 74, 0
1, 49965, Note_on_c, 0, 68, 0
1, 49965, Note_on_c, 1, 47, 0
1, 49968, Note_on_c, 0, 72, 64
1, 49968, Note_on_c, 1, 60, 77
1, 49968, Note_on_c, 1, 57, 77
1, 50013, Note_on_c, 0, 72, 0
1, 50016, Note_on_c, 0, 65, 64
1, 50039, Note_on_c, 0, 65, 0
1, 50040, Note_on_c, 0, 67, 64
1, 50063, Note_on_c, 0, 67, 0
1, 50064, Note_on_c, 0, 65, 64
1, 50084, Note_on_c, 0, 65, 0
1, 50101, Note_on_c, 1, 60, 0
1, 50101, Note_on_c, 1, 57, 0
1, 50112, Note_on_c, 1, 59, 77
1, 50112, Note_on_c, 1, 56, 77
1, 50160, Note_on_c, 0, 64, 77
1, 50205, Note_on_c, 0, 64, 0
1, 50208, Note_on_c, 0, 76, 77
1, 50245, Note_on_c, 1, 59, 0
1, 50245, Note_on_c, 1, 56, 0
1, 50253, Note_on_c, 0, 76, 0
1, 50256, Note_on_c, 1, 59, 77
1, 50256, Note_on_c, 1, 55, 77
1, 50304, Note_on_c, 0, 64, 77
1, 50327, Note_on_c, 0, 64, 0
1, 50328, Note_on_c, 0, 66, 77
1, 50351, Note_on_c, 0, 66, 0
1, 50352, Note_on_c, 0, 64, 77
1, 50389, Note_on_c, 1, 59, 0
1, 50389, Note_on_c, 1, 55, 0
1, 50397, Note_on_c, 0, 64, 0
1, 50400, Note_on_c, 1, 57, 77
1, 50400, Note_on_c, 1, 54, 77
1, 50448, Note_on_c, 0, 63, 77
1, 50493, Note_on_c, 0, 63, 0
1, 50496, Note_on_c, 0, 75, 77
1, 50533, Note_on_c, 1, 57, 0
1, 50533, Note_on_c, 1, 54, 0
1, 50541, Note_on_c, 0, 75, 0
1, 50544, Note_on_c, 1, 55, 77
1, 50544, Note_on_c, 1, 52, 77
1, 50592, Note_on_c, 0, 60, 77
1, 50615, Note_on_c, 0, 60, 0
1, 50616, Note_on_c, 0, 62, 77
1, 50639, Note_on_c, 0, 62, 0
1, 50640, Note_on_c, 0, 60, 77
1, 50660, Note_on_c, 0, 60, 0
1, 50677, Note_on_c, 1, 55, 0
1, 50677, Note_on_c, 1, 52, 0
1, 50688, Note_on_c, 1, 54, 77
1, 50688, Note_on_c, 1, 51, 77
1, 50736, Note_on_c, 0, 59, 77
1, 50781, Note_on_c, 0, 59, 0
1, 50784, Note_on_c, 0, 71, 77
1, 50821, Note_on_c, 1, 54, 0
1, 50821, Note_on_c, 1, 51, 0
1, 50829, Note_on_c, 0, 71, 0
1, 50832, Note_on_c, 1, 52, 77
1, 50832, Note_on_c, 1, 48, 77
1, 50880, Note_on_c, 0, 69, 77
1, 50903, Note_on_c, 0, 69, 0
1, 50904, Note_on_c, 0, 71, 77
1, 50927, Note_on_c, 0, 71, 0
1, 50928, Note_on_c, 0, 69, 77
1, 50948, Note_on_c, 0, 69, 0
1, 50965, Note_on_c, 1, 52, 0
1, 50965, Note_on_c, 1, 48, 0
1, 50976, Note_on_c, 0, 67, 77
1, 50976, Note_on_c, 1, 52, 77
1, 50999, Note_on_c, 0, 67, 0
1, 51000, Note_on_c, 0, 64, 77
1, 51021, Note_on_c, 1, 52, 0
1, 51023, Note_on_c, 0, 64, 0
1, 51024, Note_on_c, 0, 69, 77
1, 51024, Note_on_c, 1, 54, 77
1, 51047, Note_on_c, 0, 69, 0
1, 51048, Note_on_c, 0, 64, 77
1, 51069, Note_on_c, 1, 54, 0
1, 51071, Note_on_c, 0, 64, 0
1, 51072, Note_on_c, 0, 71, 77
1, 51072, Note_on_c, 1, 55, 77
1, 51095, Note_on_c, 0, 71, 0
1, 51096, Note_on_c, 0, 64, 77
1, 51117, Note_on_c, 1, 55, 0
1, 51119, Note_on_c, 0, 64, 0
1, 51120, Note_on_c, 0, 72, 77
1, 51120, Note_on_c, 1, 57, 77
1, 51143, Note_on_c, 0, 72, 0
1, 51144, Note_on_c, 0, 64, 77
1, 51167, Note_on_c, 0, 64, 0
1, 51168, Note_on_c, 0, 71, 77
1, 51168, Note_on_c, 1, 57, 0
1, 51168, Note_on_c, 1, 55, 77
1, 51191, Note_on_c, 0, 71, 0
1, 51192, Note_on_c, 0, 64, 77
1, 51213, Note_on_c, 1, 55, 0
1, 51215, Note_on_c, 0, 64, 0
1, 51216, Note_on_c, 0, 76, 77
1, 51239, Note_on_c, 0, 76, 0
1, 51240, Note_on_c, 0, 64, 77
1, 51263, Note_on_c, 0, 64, 0
1, 51264, Note_on_c, 0, 67, 77
1, 51264, Note_on_c, 1, 52, 77
1, 51287, Note_on_c, 0, 67, 0
1, 51288, Note_on_c, 0, 64, 77
1, 51309, Note_on_c, 1, 52, 0
1, 51311, Note_on_c, 0, 64, 0
1, 51312, Note_on_c, 0, 69, 77
1, 51312, Note_on_c, 1, 54, 77
1, 51335, Note_on_c, 0, 69, 0
1, 51336, Note_on_c, 0, 64, 77
1, 51357, Note_on_c, 1, 54, 0
1, 51359, Note_on_c, 0, 64, 0
1, 51360, Note_on_c, 0, 71, 77
1, 51360, Note_on_c, 1, 55, 77
1, 51383, Note_on_c, 0, 71, 0
1, 51384, Note_on_c, 0, 64, 77
1, 51405, Note_on_c, 1, 55, 0
1, 51407, Note_on_c, 0, 64, 0
1, 51408, Note_on_c, 0, 72, 77
1, 51408, Note_on_c, 1, 57, 77
1, 51431, Note_on_c, 0, 72, 0
1, 51432, Note_on_c, 0, 64, 77
1, 51455, Note_on_c, 0, 64, 0
1, 51456, Note_on_c, 0, 71, 77
1, 51456, Note_on_c, 1, 57, 0
1, 51456, Note_on_c, 1, 55, 77
1, 51479, Note_on_c, 0, 71, 0
1, 51480, Note_on_c, 0, 64, 77
1, 51501, Note_on_c, 1, 55, 0
1, 51503, Note_on_c, 0, 64, 0
1, 51504, Note_on_c, 0, 76, 77
1, 51524, Note_on_c, 0, 76, 0
1, 51552, Note_on_c, 0, 75, 77
1, 51552, Note_on_c, 1, 59, 77
1, 51575, Note_on_c, 0, 75, 0
1, 51576, Note_on_c, 0, 71, 77
1, 51597, Note_on_c, 1, 59, 0
1, 51599, Note_on_c, 0, 71, 0
1, 51600, Note_on_c, 0, 76, 77
1, 51600, Note_on_c, 1, 61, 77
1, 51623, Note_on_c, 0, 76, 0
1, 51624, Note_on_c, 0, 71, 77
1, 51645, Note_on_c, 1, 61, 0
1, 51647, Note_on_c, 0, 71, 0
1, 51648, Note_on_c, 0, 78, 77
1, 51648, Note_on_c, 1, 63, 77
1, 51671, Note_on_c, 0, 78, 0
1, 51672, Note_on_c, 0, 71, 77
1, 51693, Note_on_c, 1, 63, 0
1, 51695, Note_on_c, 0, 71, 0
1, 51696, Note_on_c, 0, 79, 77
1, 51696, Note_on_c, 1, 64, 77
1, 51719, Note_on_c, 0, 79, 0
1, 51720, Note_on_c, 0, 71, 77
1, 51743, Note_on_c, 0, 71, 0
1, 51744, Note_on_c, 0, 78, 77
1, 51744, Note_on_c, 1, 64, 0
1, 51744, Note_on_c, 1, 63, 77
1, 51767, Note_on_c, 0, 78, 0
1, 51768, Note_on_c, 0, 71, 77
1, 51789, Note_on_c, 1, 63, 0
1, 51791, Note_on_c, 0, 71, 0
1, 51792, Note_on_c, 0, 83, 77
1, 51815, Note_on_c, 0, 83, 0
1, 51816, Note_on_c, 0, 71, 77
1, 51839, Note_on_c, 0, 71, 0
1, 51840, Note_on_c, 0, 75, 77
1, 51840, Note_on_c, 1, 47, 77
1, 51863, Note_on_c, 0, 75, 0
1, 51864, Note_on_c, 0, 71, 77
1, 51885, Note_on_c, 1, 47, 0
1, 51887, Note_on_c, 0, 71, 0
1, 51888, Note_on_c, 0, 76, 77
1, 51888, Note_on_c, 1, 49, 77
1, 51911, Note_on_c, 0, 76, 0
1, 51912, Note_on_c, 0, 71, 77
1, 51933, Note_on_c, 1, 49, 0
1, 51935, Note_on_c, 0, 71, 0
1, 51936, Note_on_c, 0, 78, 77
1, 51936, Note_on_c, 1, 51, 77
1, 51959, Note_on_c, 0, 78, 0
1, 51960, Note_on_c, 0, 71, 77
1, 51981, Note_on_c, 1, 51, 0
1, 51983, Note_on_c, 0, 71, 0
1, 51984, Note_on_c, 0, 79, 77
1, 51984, Note_on_c, 1, 52, 77
1, 52007, Note_on_c, 0, 79, 0
1, 52008, Note_on_c, 0, 71, 77
1, 52029, Note_on_c, 1, 52, 0
1, 52031, Note_on_c, 0, 71, 0
1, 52032, Note_on_c, 0, 78, 77
1, 52032, Note_on_c, 1, 54, 77
1, 52055, Note_on_c, 0, 78, 0
1, 52056, Note_on_c, 0, 71, 77
1, 52077, Note_on_c, 1, 54, 0
1, 52079, Note_on_c, 0, 71, 0
1, 52080, Note_on_c, 0, 83, 77
1, 52080, Note_on_c, 1, 55, 77
1, 52100, Note_on_c, 0, 83, 0
1, 52125, Note_on_c, 1, 55, 0
1, 52128, Note_on_c, 0, 83, 77
1, 52128, Note_on_c, 0, 72, 77
1, 52128, Note_on_c, 1, 57, 77
1, 52173, Note_on_c, 0, 83, 0
1, 52173, Note_on_c, 0, 72, 0
1, 52173, Note_on_c, 1, 57, 0
1, 52176, Note_on_c, 0, 81, 77
1, 52176, Note_on_c, 0, 74, 77
1, 52176, Note_on_c, 1, 59, 77
1, 52221, Note_on_c, 0, 81, 0
1, 52221, Note_on_c, 0, 74, 0
1, 52221, Note_on_c, 1, 59, 0
1, 52224, Note_on_c, 0, 79, 77
1, 52224, Note_on_c, 0, 76, 77
1, 52224, Note_on_c, 1, 60, 77
1, 52269, Note_on_c, 0, 79, 0
1, 52269, Note_on_c, 0, 76, 0
1, 52269, Note_on_c, 1, 60, 0
1, 52272, Note_on_c, 0, 78, 77
1, 52272, Note_on_c, 0, 76, 77
1, 52272, Note_on_c, 1, 50, 77
1, 52317, Note_on_c, 0, 78, 0
1, 52317, Note_on_c, 0, 76, 0
1, 52317, Note_on_c, 1, 50, 0
1, 52320, Note_on_c, 0, 79, 77
1, 52320, Note_on_c, 0, 74, 77
1, 52320, Note_on_c, 1, 52, 77
1, 52365, Note_on_c, 0, 79, 0
1, 52365, Note_on_c, 0, 74, 0
1, 52365, Note_on_c, 1, 52, 0
1, 52368, Note_on_c, 0, 81, 77
1, 52368, Note_on_c, 0, 72, 77
1, 52368, Note_on_c, 1, 54, 77
1, 52413, Note_on_c, 0, 81, 0
1, 52413, Note_on_c, 0, 72, 0
1, 52413, Note_on_c, 1, 54, 0
1, 52416, Note_on_c, 0, 81, 77
1, 52416, Note_on_c, 0, 71, 77
1, 52416, Note_on_c, 1, 55, 77
1, 52461, Note_on_c, 0, 81, 0
1, 52461, Note_on_c, 0, 71, 0
1, 52461, Note_on_c, 1, 55, 0
1, 52464, Note_on_c, 0, 79, 77
1, 52464, Note_on_c, 0, 72, 77
1, 52464, Note_on_c, 1, 57, 77
1, 52509, Note_on_c, 0, 79, 0
1, 52509, Note_on_c, 0, 72, 0
1, 52509, Note_on_c, 1, 57, 0
1, 52512, Note_on_c, 0, 78, 77
1, 52512, Note_on_c, 0, 74, 77
1, 52512, Note_on_c, 1, 59, 77
1, 52557, Note_on_c, 0, 78, 0
1, 52557, Note_on_c, 0, 74, 0
1, 52557, Note_on_c, 1, 59, 0
1, 52560, Note_on_c, 0, 76, 77
1, 52560, Note_on_c, 0, 74, 77
1, 52560, Note_on_c, 1, 48, 77
1, 52605, Note_on_c, 0, 76, 0
1, 52605, Note_on_c, 0, 74, 0
1, 52605, Note_on_c, 1, 48, 0
1, 52608, Note_on_c, 0, 78, 77
1, 52608, Note_on_c, 0, 72, 77
1, 52608, Note_on_c, 1, 50, 77
1, 52653, Note_on_c, 0, 78, 0
1, 52653, Note_on_c, 0, 72, 0
1, 52653, Note_on_c, 1, 50, 0
1, 52656, Note_on_c, 0, 79, 77
1, 52656, Note_on_c, 0, 71, 77
1, 52656, Note_on_c, 1, 52, 77
1, 52701, Note_on_c, 0, 79, 0
1, 52701, Note_on_c, 0, 71, 0
1, 52701, Note_on_c, 1, 52, 0
1, 52704, Note_on_c, 0, 79, 77
1, 52704, Note_on_c, 0, 69, 77
1, 52704, Note_on_c, 1, 54, 77
1, 52749, Note_on_c, 0, 79, 0
1, 52749, Note_on_c, 0, 69, 0
1, 52749, Note_on_c, 1, 54, 0
1, 52752, Note_on_c, 0, 78, 77
1, 52752, Note_on_c, 0, 71, 77
1, 52752, Note_on_c, 1, 55, 77
1, 52797, Note_on_c, 0, 78, 0
1, 52797, Note_on_c, 0, 71, 0
1, 52797, Note_on_c, 1, 55, 0
1, 52800, Note_on_c, 0, 76, 77
1, 52800, Note_on_c, 0, 72, 77
1, 52800, Note_on_c, 1, 57, 77
1, 52845, Note_on_c, 0, 76, 0
1, 52845, Note_on_c, 0, 72, 0
1, 52845, Note_on_c, 1, 57, 0
1, 52848, Note_on_c, 0, 75, 77
1, 52848, Note_on_c, 0, 72, 77
1, 52848, Note_on_c, 1, 47, 77
1, 52893, Note_on_c, 0, 75, 0
1, 52893, Note_on_c, 0, 72, 0
1, 52893, Note_on_c, 1, 47, 0
1, 52896, Note_on_c, 0, 76, 77
1, 52896, Note_on_c, 0, 71, 77
1, 52896, Note_on_c, 1, 49, 77
1, 52941, Note_on_c, 0, 76, 0
1, 52941, Note_on_c, 0, 71, 0
1, 52941, Note_on_c, 1, 49, 0
1, 52944, Note_on_c, 0, 78, 77
1, 52944, Note_on_c, 0, 69, 77
1, 52944, Note_on_c, 1, 51, 77
1, 52989, Note_on_c, 0, 78, 0
1, 52989, Note_on_c, 0, 69, 0
1, 52989, Note_on_c, 1, 51, 0
1, 52992, Note_on_c, 0, 78, 77
1, 52992, Note_on_c, 0, 67, 77
1, 52992, Note_on_c, 1, 40, 77
1, 53015, Note_on_c, 1, 40, 0
1, 53016, Note_on_c, 1, 52, 77
1, 53039, Note_on_c, 1, 52, 0
1, 53040, Note_on_c, 1, 51, 77
1, 53063, Note_on_c, 1, 51, 0
1, 53064, Note_on_c, 1, 52, 77
1, 53087, Note_on_c, 1, 52, 0
1, 53088, Note_on_c, 1, 51, 77
1, 53111, Note_on_c, 1, 51, 0
1, 53112, Note_on_c, 1, 52, 77
1, 53125, Note_on_c, 0, 78, 0
1, 53125, Note_on_c, 0, 67, 0
1, 53135, Note_on_c, 1, 52, 0
1, 53136, Note_on_c, 0, 76, 77
1, 53136, Note_on_c, 0, 67, 77
1, 53136, Note_on_c, 1, 48, 77
1, 53159, Note_on_c, 1, 48, 0
1, 53160, Note_on_c, 1, 60, 77
1, 53183, Note_on_c, 1, 60, 0
1, 53184, Note_on_c, 1, 59, 77
1, 53207, Note_on_c, 1, 59, 0
1, 53208, Note_on_c, 1, 60, 77
1, 53231, Note_on_c, 1, 60, 0
1, 53232, Note_on_c, 1, 59, 77
1, 53255, Note_on_c, 1, 59, 0
1, 53256, Note_on_c, 1, 60, 77
1, 53269, Note_on_c, 0, 76, 0
1, 53269, Note_on_c, 0, 67, 0
1, 53279, Note_on_c, 1, 60, 0
1, 53280, Note_on_c, 0, 76, 77
1, 53280, Note_on_c, 0, 65, 77
1, 53280, Note_on_c, 1, 45, 77
1, 53303, Note_on_c, 1, 45, 0
1, 53304, Note_on_c, 1, 57, 77
1, 53327, Note_on_c, 1, 57, 0
1, 53328, Note_on_c, 1, 56, 77
1, 53351, Note_on_c, 1, 56, 0
1, 53352, Note_on_c, 1, 57, 77
1, 53375, Note_on_c, 1, 57, 0
1, 53376, Note_on_c, 1, 56, 77
1, 53399, Note_on_c, 1, 56, 0
1, 53400, Note_on_c, 1, 57, 77
1, 53413, Note_on_c, 0, 76, 0
1, 53413, Note_on_c, 0, 65, 0
1, 53423, Note_on_c, 1, 57, 0
1, 53424, Note_on_c, 0, 74, 77
1, 53424, Note_on_c, 0, 65, 77
1, 53424, Note_on_c, 1, 47, 77
1, 53447, Note_on_c, 1, 47, 0
1, 53448, Note_on_c, 1, 59, 77
1, 53471, Note_on_c, 1, 59, 0
1, 53472, Note_on_c, 1, 58, 77
1, 53495, Note_on_c, 1, 58, 0
1, 53496, Note_on_c, 1, 59, 77
1, 53519, Note_on_c, 1, 59, 0
1, 53520, Note_on_c, 1, 58, 77
1, 53543, Note_on_c, 1, 58, 0
1, 53544, Note_on_c, 1, 59, 77
1, 53557, Note_on_c, 0, 74, 0
1, 53557, Note_on_c, 0, 65, 0
1, 53567, Note_on_c, 1, 59, 0
1, 53568, Note_on_c, 0, 64, 77
1, 53568, Note_on_c, 1, 44, 64
1, 53591, Note_on_c, 0, 64, 0
1, 53592, Note_on_c, 0, 71, 77
1, 53615, Note_on_c, 0, 71, 0
1, 53616, Note_on_c, 0, 74, 77
1, 53616, Note_on_c, 1, 56, 77
1, 53639, Note_on_c, 0, 74, 0
1, 53640, Note_on_c, 0, 71, 77
1, 53661, Note_on_c, 1, 56, 0
1, 53663, Note_on_c, 0, 71, 0
1, 53664, Note_on_c, 0, 74, 77
1, 53664, Note_on_c, 1, 56, 77
1, 53687, Note_on_c, 0, 74, 0
1, 53688, Note_on_c, 0, 71, 77
1, 53701, Note_on_c, 1, 44, 0
1, 53709, Note_on_c, 1, 56, 0
1, 53711, Note_on_c, 0, 71, 0
1, 53712, Note_on_c, 0, 64, 77
1, 53712, Note_on_c, 1, 45, 64
1, 53735, Note_on_c, 0, 64, 0
1, 53736, Note_on_c, 0, 69, 77
1, 53759, Note_on_c, 0, 69, 0
1, 53760, Note_on_c, 0, 72, 77
1, 53760, Note_on_c, 1, 57, 77
1, 53783, Note_on_c, 0, 72, 0
1, 53784, Note_on_c, 0, 69, 77
1, 53805, Note_on_c, 1, 57, 0
1, 53807, Note_on_c, 0, 69, 0
1, 53808, Note_on_c, 0, 72, 77
1, 53808, Note_on_c, 1, 57, 77
1, 53831, Note_on_c, 0, 72, 0
1, 53832, Note_on_c, 0, 69, 77
1, 53845, Note_on_c, 1, 45, 0
1, 53853, Note_on_c, 1, 57, 0
1, 53855, Note_on_c, 0, 69, 0
1, 53856, Note_on_c, 0, 62, 77
1, 53856, Note_on_c, 1, 42, 64
1, 53879, Note_on_c, 0, 62, 0
1, 53880, Note_on_c, 0, 69, 77
1, 53903, Note_on_c, 0, 69, 0
1, 53904, Note_on_c, 0, 72, 77
1, 53904, Note_on_c, 1, 54, 77
1, 53927, Note_on_c, 0, 72, 0
1, 53928, Note_on_c, 0, 69, 77
1, 53949, Note_on_c, 1, 54, 0
1, 53951, Note_on_c, 0, 69, 0
1, 53952, Note_on_c, 0, 72, 77
1, 53952, Note_on_c, 1, 54, 77
1, 53975, Note_on_c, 0, 72, 0
1, 53976, Note_on_c, 0, 69, 77
1, 53989, Note_on_c, 1, 42, 0
1, 53997, Note_on_c, 1, 54, 0
1, 53999, Note_on_c, 0, 69, 0
1, 54000, Note_on_c, 0, 62, 77
1, 54000, Note_on_c, 1, 43, 64
1, 54023, Note_on_c, 0, 62, 0
1, 54024, Note_on_c, 0, 67, 77
1, 54047, Note_on_c, 0, 67, 0
1, 54048, Note_on_c, 0, 71, 77
1, 54048, Note_on_c, 1, 55, 77
1, 54071, Note_on_c, 0, 71, 0
1, 54072, Note_on_c, 0, 67, 77
1, 54093, Note_on_c, 1, 55, 0
1, 54095, Note_on_c, 0, 67, 0
1, 54096, Note_on_c, 0, 71, 77
1, 54096, Note_on_c, 1, 55, 77
1, 54119, Note_on_c, 0, 71, 0
1, 54120, Note_on_c, 0, 67, 77
1, 54133, Note_on_c, 1, 43, 0
1, 54141, Note_on_c, 1, 55, 0
1, 54143, Note_on_c, 0, 67, 0
1, 54144, Note_on_c, 0, 69, 77
1, 54144, Note_on_c, 0, 66, 77
1, 54144, Note_on_c, 1, 50, 77
1, 54144, Note_on_c, 1, 38, 77
1, 54189, Note_on_c, 0, 69, 0
1, 54189, Note_on_c, 0, 66, 0
1, 54189, Note_on_c, 1, 50, 0
1, 54189, Note_on_c, 1, 38, 0
1, 54192, Note_on_c, 0, 74, 77
1, 54192, Note_on_c, 0, 66, 77
1, 54192, Note_on_c, 1, 50, 77
1, 54192, Note_on_c, 1, 38, 77
1, 54237, Note_on_c, 0, 74, 0
1, 54237, Note_on_c, 0, 66, 0
1, 54237, Note_on_c, 1, 50, 0
1, 54237, Note_on_c, 1, 38, 0
1, 54240, Note_on_c, 0, 74, 77
1, 54240, Note_on_c, 0, 66, 77
1, 54240, Note_on_c, 1, 50, 77
1, 54240, Note_on_c, 1, 38, 77
1, 54285, Note_on_c, 0, 74, 0
1, 54285, Note_on_c, 0, 66, 0
1, 54285, Note_on_c, 1, 50, 0
1, 54285, Note_on_c, 1, 38, 0
1, 54288, Note_on_c, 0, 74, 77
1, 54288, Note_on_c, 0, 66, 77
1, 54288, Note_on_c, 1, 50, 77
1, 54288, Note_on_c, 1, 38, 77
1, 54377, Note_on_c, 0, 74, 0
1, 54377, Note_on_c, 0, 66, 0
1, 54377, Note_on_c, 1, 50, 0
1, 54377, Note_on_c, 1, 38, 0
1, 54432, Note_on_c, 1, 58, 77
1, 54432, Note_on_c, 1, 55, 77
1, 54480, Note_on_c, 0, 79, 77
1, 54521, Note_on_c, 1, 58, 0
1, 54521, Note_on_c, 1, 55, 0
1, 54528, Note_on_c, 0, 79, 0
1, 54528, Note_on_c, 0, 67, 77
1, 54573, Note_on_c, 0, 67, 0
1, 54576, Note_on_c, 1, 62, 77
1, 54576, Note_on_c, 1, 58, 77
1, 54624, Note_on_c, 0, 79, 77
1, 54647, Note_on_c, 0, 79, 0
1, 54648, Note_on_c, 0, 81, 77
1, 54665, Note_on_c, 1, 62, 0
1, 54665, Note_on_c, 1, 58, 0
1, 54671, Note_on_c, 0, 81, 0
1, 54672, Note_on_c, 0, 79, 77
1, 54692, Note_on_c, 0, 79, 0
1, 54720, Note_on_c, 1, 63, 77
1, 54720, Note_on_c, 1, 60, 77
1, 54768, Note_on_c, 0, 81, 77
1, 54768, Note_on_c, 0, 79, 77
1, 54809, Note_on_c, 1, 63, 0
1, 54809, Note_on_c, 1, 60, 0
1, 54816, Note_on_c, 0, 81, 0
1, 54816, Note_on_c, 0, 79, 0
1, 54816, Note_on_c, 0, 69, 77
1, 54816, Note_on_c, 0, 67, 77
1, 54861, Note_on_c, 0, 69, 0
1, 54861, Note_on_c, 0, 67, 0
1, 54864, Note_on_c, 1, 62, 77
1, 54912, Note_on_c, 0, 81, 77
1, 54912, Note_on_c, 0, 78, 64
1, 54935, Note_on_c, 0, 81, 0
1, 54936, Note_on_c, 0, 82, 77
1, 54953, Note_on_c, 1, 62, 0
1, 54957, Note_on_c, 0, 78, 0
1, 54959, Note_on_c, 0, 82, 0
1, 54960, Note_on_c, 0, 81, 77
1, 54960, Note_on_c, 0, 78, 64
1, 55005, Note_on_c, 0, 81, 0
1, 55005, Note_on_c, 0, 78, 0
1, 55008, Note_on_c, 1, 55, 77
1, 55056, Note_on_c, 0, 82, 77
1, 55056, Note_on_c, 0, 79, 77
1, 55097, Note_on_c, 1, 55, 0
1, 55101, Note_on_c, 0, 82, 0
1, 55101, Note_on_c, 0, 79, 0
1, 55104, Note_on_c, 0, 82, 77
1, 55104, Note_on_c, 0, 79, 77
1, 55149, Note_on_c, 0, 82, 0
1, 55149, Note_on_c, 0, 79, 0
1, 55152, Note_on_c, 1, 67, 77
1, 55197, Note_on_c, 1, 67, 0
1, 55200, Note_on_c, 0, 86, 77
1, 55200, Note_on_c, 0, 82, 77
1, 55200, Note_on_c, 1, 55, 77
1, 55245, Note_on_c, 1, 55, 0
1, 55248, Note_on_c, 0, 86, 0
1, 55248, Note_on_c, 0, 82, 0
1, 55248, Note_on_c, 0, 74, 77
1, 55248, Note_on_c, 0, 70, 77
1, 55293, Note_on_c, 0, 74, 0
1, 55293, Note_on_c, 0, 70, 0
1, 55296, Note_on_c, 1, 60, 77
1, 55344, Note_on_c, 0, 87, 77
1, 55344, Note_on_c, 0, 84, 77
1, 55367, Note_on_c, 0, 87, 0
1, 55367, Note_on_c, 0, 84, 0
1, 55368, Note_on_c, 0, 86, 77
1, 55368, Note_on_c, 0, 83, 77
1, 55385, Note_on_c, 1, 60, 0
1, 55391, Note_on_c, 0, 86, 0
1, 55391, Note_on_c, 0, 83, 0
1, 55392, Note_on_c, 0, 87, 77
1, 55392, Note_on_c, 0, 84, 77
1, 55437, Note_on_c, 0, 87, 0
1, 55437, Note_on_c, 0, 84, 0
1, 55440, Note_on_c, 1, 65, 77
1, 55485, Note_on_c, 1, 65, 0
1, 55488, Note_on_c, 0, 84, 77
1, 55488, Note_on_c, 0, 81, 77
1, 55488, Note_on_c, 1, 53, 77
1, 55533, Note_on_c, 1, 53, 0
1, 55536, Note_on_c, 0, 84, 0
1, 55536, Note_on_c, 0, 81, 0
1, 55536, Note_on_c, 0, 72, 77
1, 55536, Note_on_c, 0, 69, 77
1, 55581, Note_on_c, 0, 72, 0
1, 55581, Note_on_c, 0, 69, 0
1, 55584, Note_on_c, 1, 58, 77
1, 55632, Note_on_c, 0, 86, 77
1, 55632, Note_on_c, 0, 82, 77
1, 55655, Note_on_c, 0, 86, 0
1, 55655, Note_on_c, 0, 82, 0
1, 55656, Note_on_c, 0, 85, 77
1, 55656, Note_on_c, 0, 81, 77
1, 55673, Note_on_c, 1, 58, 0
1, 55679, Note_on_c, 0, 85, 0
1, 55679, Note_on_c, 0, 81, 0
1, 55680, Note_on_c, 0, 86, 77
1, 55680, Note_on_c, 0, 82, 77
1, 55700, Note_on_c, 0, 86, 0
1, 55700, Note_on_c, 0, 82, 0
1, 55728, Note_on_c, 1, 63, 77
1, 55773, Note_on_c, 1, 63, 0
1, 55776, Note_on_c, 0, 82, 77
1, 55776, Note_on_c, 0, 79, 77
1, 55776, Note_on_c, 1, 51, 77
1, 55821, Note_on_c, 1, 51, 0
1, 55824, Note_on_c, 0, 82, 0
1, 55824, Note_on_c, 0, 79, 0
1, 55824, Note_on_c, 0, 70, 77
1, 55824, Note_on_c, 0, 67, 77
1, 55869, Note_on_c, 0, 70, 0
1, 55869, Note_on_c, 0, 67, 0
1, 55872, Note_on_c, 1, 57, 77
1, 55920, Note_on_c, 0, 84, 77
1, 55920, Note_on_c, 0, 81, 77
1, 55943, Note_on_c, 0, 84, 0
1, 55943, Note_on_c, 0, 81, 0
1, 55944, Note_on_c, 0, 82, 77
1, 55944, Note_on_c, 0, 79, 77
1, 55961, Note_on_c, 1, 57, 0
1, 55967, Note_on_c, 0, 82, 0
1, 55967, Note_on_c, 0, 79, 0
1, 55968, Note_on_c, 0, 84, 77
1, 55968, Note_on_c, 0, 81, 77
1, 55988, Note_on_c, 0, 84, 0
1, 55988, Note_on_c, 0, 81, 0
1, 56016, Note_on_c, 1, 62, 77
1, 56061, Note_on_c, 1, 62, 0
1, 56064, Note_on_c, 0, 81, 77
1, 56064, Note_on_c, 0, 78, 77
1, 56064, Note_on_c, 1, 50, 77
1, 56109, Note_on_c, 1, 50, 0
1, 56112, Note_on_c, 0, 81, 0
1, 56112, Note_on_c, 0, 78, 0
1, 56112, Note_on_c, 0, 69, 77
1, 56112, Note_on_c, 0, 66, 77
1, 56157, Note_on_c, 0, 69, 0
1, 56157, Note_on_c, 0, 66, 0
1, 56160, Note_on_c, 1, 55, 77
1, 56208, Note_on_c, 0, 82, 77
1, 56208, Note_on_c, 0, 79, 64
1, 56231, Note_on_c, 0, 79, 0
1, 56232, Note_on_c, 0, 74, 64
1, 56249, Note_on_c, 1, 55, 0
1, 56253, Note_on_c, 0, 82, 0
1, 56255, Note_on_c, 0, 74, 0
1, 56256, Note_on_c, 0, 82, 77
1, 56256, Note_on_c, 0, 79, 64
1, 56301, Note_on_c, 0, 82, 0
1, 56301, Note_on_c, 0, 79, 0
1, 56304, Note_on_c, 1, 65, 77
1, 56352, Note_on_c, 0, 83, 77
1, 56352, Note_on_c, 0, 80, 64
1, 56375, Note_on_c, 0, 80, 0
1, 56376, Note_on_c, 0, 74, 64
1, 56393, Note_on_c, 1, 65, 0
1, 56397, Note_on_c, 0, 83, 0
1, 56399, Note_on_c, 0, 74, 0
1, 56400, Note_on_c, 0, 83, 77
1, 56400, Note_on_c, 0, 80, 64
1, 56445, Note_on_c, 0, 83, 0
1, 56445, Note_on_c, 0, 80, 0
1, 56448, Note_on_c, 1, 64, 77
1, 56496, Note_on_c, 0, 84, 77
1, 56496, Note_on_c, 0, 79, 64
1, 56519, Note_on_c, 0, 79, 0
1, 56520, Note_on_c, 0, 72, 64
1, 56537, Note_on_c, 1, 64, 0
1, 56541, Note_on_c, 0, 84, 0
1, 56543, Note_on_c, 0, 72, 0
1, 56544, Note_on_c, 0, 84, 77
1, 56544, Note_on_c, 0, 79, 64
1, 56589, Note_on_c, 0, 84, 0
1, 56589, Note_on_c, 0, 79, 0
1, 56592, Note_on_c, 1, 63, 77
1, 56640, Note_on_c, 0, 85, 77
1, 56640, Note_on_c, 0, 82, 64
1, 56663, Note_on_c, 0, 82, 0
1, 56664, Note_on_c, 0, 79, 64
1, 56681, Note_on_c, 1, 63, 0
1, 56685, Note_on_c, 0, 85, 0
1, 56687, Note_on_c, 0, 79, 0
1, 56688, Note_on_c, 0, 85, 77
1, 56688, Note_on_c, 0, 82, 64
1, 56733, Note_on_c, 0, 85, 0
1, 56733, Note_on_c, 0, 82, 0
1, 56736, Note_on_c, 1, 62, 77
1, 56784, Note_on_c, 0, 86, 77
1, 56784, Note_on_c, 0, 78, 64
1, 56807, Note_on_c, 0, 78, 0
1, 56808, Note_on_c, 0, 74, 64
1, 56825, Note_on_c, 1, 62, 0
1, 56829, Note_on_c, 0, 86, 0
1, 56831, Note_on_c, 0, 74, 0
1, 56832, Note_on_c, 0, 86, 77
1, 56832, Note_on_c, 0, 78, 64
1, 56877, Note_on_c, 0, 86, 0
1, 56877, Note_on_c, 0, 78, 0
1, 56880, Note_on_c, 0, 74, 77
1, 56880, Note_on_c, 1, 54, 77
1, 56880, Note_on_c, 1, 50, 64
1, 56903, Note_on_c, 0, 74, 0
1, 56904, Note_on_c, 0, 78, 77
1, 56927, Note_on_c, 0, 78, 0
1, 56928, Note_on_c, 0, 86, 77
1, 56951, Note_on_c, 0, 86, 0
1, 56952, Note_on_c, 0, 78, 77
1, 56975, Note_on_c, 0, 78, 0
1, 56976, Note_on_c, 0, 86, 77
1, 56999, Note_on_c, 0, 86, 0
1, 57000, Note_on_c, 0, 78, 77
1, 57013, Note_on_c, 1, 54, 0
1, 57023, Note_on_c, 0, 78, 0
1, 57024, Note_on_c, 0, 76, 77
1, 57024, Note_on_c, 1, 55, 77
1, 57047, Note_on_c, 0, 76, 0
1, 57048, Note_on_c, 0, 79, 77
1, 57071, Note_on_c, 0, 79, 0
1, 57072, Note_on_c, 0, 85, 77
1, 57095, Note_on_c, 0, 85, 0
1, 57096, Note_on_c, 0, 79, 77
1, 57119, Note_on_c, 0, 79, 0
1, 57120, Note_on_c, 0, 85, 77
1, 57143, Note_on_c, 0, 85, 0
1, 57144, Note_on_c, 0, 79, 77
1, 57157, Note_on_c, 1, 55, 0
1, 57167, Note_on_c, 0, 79, 0
1, 57168, Note_on_c, 0, 74, 77
1, 57168, Note_on_c, 1, 57, 77
1, 57191, Note_on_c, 0, 74, 0
1, 57192, Note_on_c, 0, 78, 77
1, 57215, Note_on_c, 0, 78, 0
1, 57216, Note_on_c, 0, 84, 77
1, 57239, Note_on_c, 0, 84, 0
1, 57240, Note_on_c, 0, 78, 77
1, 57263, Note_on_c, 0, 78, 0
1, 57264, Note_on_c, 0, 84, 77
1, 57287, Note_on_c, 0, 84, 0
1, 57288, Note_on_c, 0, 78, 77
1, 57289, Note_on_c, 1, 50, 0
1, 57301, Note_on_c, 1, 57, 0
1, 57311, Note_on_c, 0, 78, 0
1, 57312, Note_on_c, 0, 79, 77
1, 57312, Note_on_c, 1, 59, 77
1, 57312, Note_on_c, 1, 55, 77
1, 57351, Note_on_c, 1, 59, 0
1, 57351, Note_on_c, 1, 55, 0
1, 57357, Note_on_c, 0, 79, 0
1, 57360, Note_on_c, 0, 79, 77
1, 57408, Note_on_c, 0, 79, 0
1, 57408, Note_on_c, 0, 67, 77
1, 57453, Note_on_c, 0, 67, 0
1, 57456, Note_on_c, 1, 64, 77
1, 57456, Note_on_c, 1, 60, 77
1, 57495, Note_on_c, 1, 64, 0
1, 57495, Note_on_c, 1, 60, 0
1, 57504, Note_on_c, 0, 79, 77
1, 57527, Note_on_c, 0, 79, 0
1, 57528, Note_on_c, 0, 81, 77
1, 57551, Note_on_c, 0, 81, 0
1, 57552, Note_on_c, 0, 79, 77
1, 57572, Note_on_c, 0, 79, 0
1, 57600, Note_on_c, 1, 62, 77
1, 57600, Note_on_c, 1, 59, 77
1, 57639, Note_on_c, 1, 62, 0
1, 57639, Note_on_c, 1, 59, 0
1, 57648, Note_on_c, 0, 79, 77
1, 57696, Note_on_c, 0, 79, 0
1, 57696, Note_on_c, 0, 67, 77
1, 57741, Note_on_c, 0, 67, 0
1, 57744, Note_on_c, 1, 60, 77
1, 57744, Note_on_c, 1, 57, 77
1, 57783, Note_on_c, 1, 60, 0
1, 57783, Note_on_c, 1, 57, 0
1, 57792, Note_on_c, 0, 79, 77
1, 57815, Note_on_c, 0, 79, 0
1, 57816, Note_on_c, 0, 81, 77
1, 57839, Note_on_c, 0, 81, 0
1, 57840, Note_on_c, 0, 79, 77
1, 57860, Note_on_c, 0, 79, 0
1, 57888, Note_on_c, 1, 59, 77
1, 57888, Note_on_c, 1, 55, 77
1, 57927, Note_on_c, 1, 59, 0
1, 57927, Note_on_c, 1, 55, 0
1, 57936, Note_on_c, 0, 79, 77
1, 57984, Note_on_c, 0, 79, 0
1, 57984, Note_on_c, 0, 67, 77
1, 58029, Note_on_c, 0, 67, 0
1, 58032, Note_on_c, 1, 59, 77
1, 58032, Note_on_c, 1, 47, 77
1, 58080, Note_on_c, 0, 78, 77
1, 58103, Note_on_c, 0, 78, 0
1, 58104, Note_on_c, 0, 79, 77
1, 58127, Note_on_c, 0, 79, 0
1, 58128, Note_on_c, 0, 83, 77
1, 58151, Note_on_c, 0, 83, 0
1, 58152, Note_on_c, 0, 79, 77
1, 58165, Note_on_c, 1, 59, 0
1, 58165, Note_on_c, 1, 47, 0
1, 58175, Note_on_c, 0, 79, 0
1, 58176, Note_on_c, 0, 76, 77
1, 58176, Note_on_c, 1, 60, 77
1, 58176, Note_on_c, 1, 48, 77
1, 58196, Note_on_c, 0, 76, 0
1, 58224, Note_on_c, 0, 80, 77
1, 58247, Note_on_c, 0, 80, 0
1, 58248, Note_on_c, 0, 81, 77
1, 58271, Note_on_c, 0, 81, 0
1, 58272, Note_on_c, 0, 84, 77
1, 58295, Note_on_c, 0, 84, 0
1, 58296, Note_on_c, 0, 81, 77
1, 58309, Note_on_c, 1, 60, 0
1, 58309, Note_on_c, 1, 48, 0
1, 58319, Note_on_c, 0, 81, 0
1, 58320, Note_on_c, 0, 74, 77
1, 58320, Note_on_c, 1, 62, 77
1, 58320, Note_on_c, 1, 50, 77
1, 58365, Note_on_c, 0, 74, 0
1, 58368, Note_on_c, 0, 86, 77
1, 58368, Note_on_c, 0, 74, 77
1, 58413, Note_on_c, 0, 86, 0
1, 58413, Note_on_c, 0, 74, 0
1, 58416, Note_on_c, 0, 84, 77
1, 58416, Note_on_c, 0, 72, 77
1, 58453, Note_on_c, 1, 62, 0
1, 58453, Note_on_c, 1, 50, 0
1, 58461, Note_on_c, 0, 84, 0
1, 58461, Note_on_c, 0, 72, 0
1, 58464, Note_on_c, 0, 84, 77
1, 58464, Note_on_c, 0, 72, 77
1, 58464, Note_on_c, 1, 55, 77
1, 58464, Note_on_c, 1, 43, 77
1, 58509, Note_on_c, 0, 84, 0
1, 58509, Note_on_c, 0, 72, 0
1, 58512, Note_on_c, 0, 83, 77
1, 58512, Note_on_c, 0, 71, 77
1, 58557, Note_on_c, 0, 83, 0
1, 58557, Note_on_c, 0, 71, 0
1, 58560, Note_on_c, 0, 81, 77
1, 58560, Note_on_c, 0, 69, 77
1, 58597, Note_on_c, 1, 55, 0
1, 58597, Note_on_c, 1, 43, 0
1, 58605, Note_on_c, 0, 81, 0
1, 58605, Note_on_c, 0, 69, 0
1, 58608, Note_on_c, 0, 67, 77
1, 58608, Note_on_c, 1, 59, 77
1, 58608, Note_on_c, 1, 47, 77
1, 58628, Note_on_c, 0, 67, 0
1, 58656, Note_on_c, 0, 78, 77
1, 58679, Note_on_c, 0, 78, 0
1, 58680, Note_on_c, 0, 79, 77
1, 58703, Note_on_c, 0, 79, 0
1, 58704, Note_on_c, 0, 83, 77
1, 58727, Note_on_c, 0, 83, 0
1, 58728, Note_on_c, 0, 79, 77
1, 58741, Note_on_c, 1, 59, 0
1, 58741, Note_on_c, 1, 47, 0
1, 58751, Note_on_c, 0, 79, 0
1, 58752, Note_on_c, 0, 76, 77
1, 58752, Note_on_c, 1, 60, 77
1, 58752, Note_on_c, 1, 48, 77
1, 58772, Note_on_c, 0, 76, 0
1, 58800, Note_on_c, 0, 80, 77
1, 58823, Note_on_c, 0, 80, 0
1, 58824, Note_on_c, 0, 81, 77
1, 58847, Note_on_c, 0, 81, 0
1, 58848, Note_on_c, 0, 84, 77
1, 58871, Note_on_c, 0, 84, 0
1, 58872, Note_on_c, 0, 81, 77
1, 58885, Note_on_c, 1, 60, 0
1, 58885, Note_on_c, 1, 48, 0
1, 58895, Note_on_c, 0, 81, 0
1, 58896, Note_on_c, 0, 74, 77
1, 58896, Note_on_c, 1, 62, 77
1, 58896, Note_on_c, 1, 50, 77
1, 58941, Note_on_c, 0, 74, 0
1, 58944, Note_on_c, 0, 86, 77
1, 58944, Note_on_c, 0, 74, 77
1, 58989, Note_on_c, 0, 86, 0
1, 58989, Note_on_c, 0, 74, 0
1, 58992, Note_on_c, 0, 84, 77
1, 58992, Note_on_c, 0, 72, 77
1, 59029, Note_on_c, 1, 62, 0
1, 59029, Note_on_c, 1, 50, 0
1, 59037, Note_on_c, 0, 84, 0
1, 59037, Note_on_c, 0, 72, 0
1, 59040, Note_on_c, 0, 83, 77
1, 59040, Note_on_c, 0, 71, 77
1, 59040, Note_on_c, 1, 55, 77
1, 59040, Note_on_c, 1, 43, 77
1, 59173, Note_on_c, 0, 83, 0
1, 59173, Note_on_c, 0, 71, 0
1, 59173, Note_on_c, 1, 55, 0
1, 59173, Note_on_c, 1, 43, 0
1, 59184, Note_on_c, 1, 62, 77
1, 59184, Note_on_c, 1, 59, 77
1, 59232, Note_on_c, 0, 78, 77
1, 59255, Note_on_c, 0, 78, 0
1, 59256, Note_on_c, 0, 79, 77
1, 59273, Note_on_c, 1, 62, 0
1, 59273, Note_on_c, 1, 59, 0
1, 59279, Note_on_c, 0, 79, 0
1, 59280, Note_on_c, 0, 83, 77
1, 59303, Note_on_c, 0, 83, 0
1, 59304, Note_on_c, 0, 79, 77
1, 59327, Note_on_c, 0, 79, 0
1, 59328, Note_on_c, 0, 76, 77
1, 59328, Note_on_c, 1, 64, 77
1, 59328, Note_on_c, 1, 60, 77
1, 59348, Note_on_c, 0, 76, 0
1, 59376, Note_on_c, 0, 80, 77
1, 59399, Note_on_c, 0, 80, 0
1, 59400, Note_on_c, 0, 81, 77
1, 59417, Note_on_c, 1, 64, 0
1, 59417, Note_on_c, 1, 60, 0
1, 59423, Note_on_c, 0, 81, 0
1, 59424, Note_on_c, 0, 84, 77
1, 59447, Note_on_c, 0, 84, 0
1, 59448, Note_on_c, 0, 81, 77
1, 59471, Note_on_c, 0, 81, 0
1, 59472, Note_on_c, 0, 74, 77
1, 59472, Note_on_c, 1, 62, 77
1, 59517, Note_on_c, 0, 74, 0
1, 59520, Note_on_c, 0, 86, 77
1, 59561, Note_on_c, 1, 62, 0
1, 59565, Note_on_c, 0, 86, 0
1, 59568, Note_on_c, 0, 84, 77
1, 59568, Note_on_c, 0, 81, 77
1, 59568, Note_on_c, 1, 66, 77
1, 59613, Note_on_c, 0, 84, 0
1, 59613, Note_on_c, 0, 81, 0
1, 59613, Note_on_c, 1, 66, 0
1, 59616, Note_on_c, 0, 84, 77
1, 59616, Note_on_c, 0, 81, 77
1, 59616, Note_on_c, 1, 67, 77
1, 59661, Note_on_c, 0, 84, 0
1, 59661, Note_on_c, 0, 81, 0
1, 59661, Note_on_c, 1, 67, 0
1, 59664, Note_on_c, 0, 83, 77
1, 59664, Note_on_c, 0, 79, 77
1, 59664, Note_on_c, 1, 71, 77
1, 59709, Note_on_c, 0, 83, 0
1, 59709, Note_on_c, 0, 79, 0
1, 59709, Note_on_c, 1, 71, 0
1, 59712, Note_on_c, 0, 81, 77
1, 59712, Note_on_c, 0, 78, 77
1, 59712, Note_on_c, 1, 74, 77
1, 59757, Note_on_c, 0, 81, 0
1, 59757, Note_on_c, 0, 78, 0
1, 59757, Note_on_c, 1, 74, 0
1, 59760, Note_on_c, 0, 74, 77
1, 59805, Note_on_c, 0, 74, 0
1, 59808, Note_on_c, 0, 84, 77
1, 59853, Note_on_c, 0, 84, 0
1, 59856, Note_on_c, 0, 83, 77
1, 59856, Note_on_c, 1, 67, 77
1, 59901, Note_on_c, 0, 83, 0
1, 59901, Note_on_c, 1, 67, 0
1, 59904, Note_on_c, 0, 83, 77
1, 59904, Note_on_c, 1, 76, 77
1, 59904, Note_on_c, 1, 72, 77
1, 59949, Note_on_c, 0, 83, 0
1, 59952, Note_on_c, 0, 81, 77
1, 59997, Note_on_c, 0, 81, 0
1, 60000, Note_on_c, 0, 79, 77
1, 60000, Note_on_c, 1, 76, 0
1, 60000, Note_on_c, 1, 72, 0
1, 60000, Note_on_c, 1, 74, 77
1, 60000, Note_on_c, 1, 71, 77
1, 60045, Note_on_c, 0, 79, 0
1, 60045, Note_on_c, 1, 74, 0
1, 60045, Note_on_c, 1, 71, 0
1, 60048, Note_on_c, 0, 74, 77
1, 60093, Note_on_c, 0, 74, 0
1, 60096, Note_on_c, 0, 86, 77
1, 60141, Note_on_c, 0, 86, 0
1, 60144, Note_on_c, 0, 84, 77
1, 60144, Note_on_c, 0, 81, 77
1, 60144, Note_on_c, 1, 66, 77
1, 60189, Note_on_c, 0, 84, 0
1, 60189, Note_on_c, 0, 81, 0
1, 60189, Note_on_c, 1, 66, 0
1, 60192, Note_on_c, 0, 84, 77
1, 60192, Note_on_c, 0, 81, 77
1, 60192, Note_on_c, 1, 67, 77
1, 60237, Note_on_c, 0, 84, 0
1, 60237, Note_on_c, 0, 81, 0
1, 60237, Note_on_c, 1, 67, 0
1, 60240, Note_on_c, 0, 83, 77
1, 60240, Note_on_c, 0, 79, 77
1, 60240, Note_on_c, 1, 71, 77
1, 60285, Note_on_c, 0, 83, 0
1, 60285, Note_on_c, 0, 79, 0
1, 60285, Note_on_c, 1, 71, 0
1, 60288, Note_on_c, 0, 81, 77
1, 60288, Note_on_c, 0, 78, 77
1, 60288, Note_on_c, 1, 74, 77
1, 60333, Note_on_c, 0, 81, 0
1, 60333, Note_on_c, 0, 78, 0
1, 60333, Note_on_c, 1, 74, 0
1, 60336, Note_on_c, 0, 74, 77
1, 60381, Note_on_c, 0, 74, 0
1, 60384, Note_on_c, 0, 84, 77
1, 60429, Note_on_c, 0, 84, 0
1, 60432, Note_on_c, 0, 83, 77
1, 60432, Note_on_c, 1, 67, 77
1, 60477, Note_on_c, 0, 83, 0
1, 60477, Note_on_c, 1, 67, 0
1, 60480, Note_on_c, 0, 83, 77
1, 60480, Note_on_c, 1, 76, 77
1, 60480, Note_on_c, 1, 72, 77
1, 60525, Note_on_c, 0, 83, 0
1, 60528, Note_on_c, 0, 81, 77
1, 60573, Note_on_c, 0, 81, 0
1, 60576, Note_on_c, 0, 79, 77
1, 60576, Note_on_c, 1, 76, 0
1, 60576, Note_on_c, 1, 72, 0
1, 60576, Note_on_c, 1, 74, 77
1, 60576, Note_on_c, 1, 71, 77
1, 60621, Note_on_c, 0, 79, 0
1, 60621, Note_on_c, 1, 74, 0
1, 60621, Note_on_c, 1, 71, 0
1, 60624, Note_on_c, 0, 78, 77
1, 60624, Note_on_c, 1, 72, 77
1, 60624, Note_on_c, 1, 69, 77
1, 60624, Note_on_c, 1, 62, 64
1, 60647, Note_on_c, 0, 78, 0
1, 60648, Note_on_c, 0, 74, 77
1, 60671, Note_on_c, 0, 74, 0
1, 60672, Note_on_c, 0, 78, 77
1, 60695, Note_on_c, 0, 78, 0
1, 60696, Note_on_c, 0, 74, 77
1, 60713, Note_on_c, 1, 72, 0
1, 60713, Note_on_c, 1, 69, 0
1, 60719, Note_on_c, 0, 74, 0
1, 60720, Note_on_c, 0, 79, 77
1, 60720, Note_on_c, 1, 71, 77
1, 60720, Note_on_c, 1, 67, 77
1, 60757, Note_on_c, 1, 62, 0
1, 60765, Note_on_c, 0, 79, 0
1, 60765, Note_on_c, 1, 71, 0
1, 60765, Note_on_c, 1, 67, 0
1, 60768, Note_on_c, 0, 84, 77
1, 60768, Note_on_c, 0, 81, 64
1, 60768, Note_on_c, 1, 69, 77
1, 60768, Note_on_c, 1, 66, 77
1, 60768, Note_on_c, 1, 62, 64
1, 60791, Note_on_c, 0, 81, 0
1, 60792, Note_on_c, 0, 74, 64
1, 60813, Note_on_c, 0, 84, 0
1, 60815, Note_on_c, 0, 74, 0
1, 60816, Note_on_c, 0, 84, 77
1, 60816, Note_on_c, 0, 81, 64
1, 60839, Note_on_c, 0, 81, 0
1, 60840, Note_on_c, 0, 74, 64
1, 60857, Note_on_c, 1, 69, 0
1, 60857, Note_on_c, 1, 66, 0
1, 60861, Note_on_c, 0, 84, 0
1, 60863, Note_on_c, 0, 74, 0
1, 60864, Note_on_c, 0, 83, 77
1, 60864, Note_on_c, 0, 79, 64
1, 60864, Note_on_c, 1, 71, 77
1, 60864, Note_on_c, 1, 67, 77
1, 60901, Note_on_c, 1, 62, 0
1, 60909, Note_on_c, 0, 83, 0
1, 60909, Note_on_c, 0, 79, 0
1, 60909, Note_on_c, 1, 71, 0
1, 60909, Note_on_c, 1, 67, 0
1, 60912, Note_on_c, 0, 78, 64
1, 60912, Note_on_c, 1, 72, 77
1, 60912, Note_on_c, 1, 69, 77
1, 60912, Note_on_c, 1, 62, 64
1, 60935, Note_on_c, 0, 78, 0
1, 60936, Note_on_c, 0, 74, 64
1, 60959, Note_on_c, 0, 74, 0
1, 60960, Note_on_c, 0, 78, 64
1, 60983, Note_on_c, 0, 78, 0
1, 60984, Note_on_c, 0, 74, 64
1, 61001, Note_on_c, 1, 72, 0
1, 61001, Note_on_c, 1, 69, 0
1, 61007, Note_on_c, 0, 74, 0
1, 61008, Note_on_c, 0, 79, 64
1, 61008, Note_on_c, 1, 71, 77
1, 61008, Note_on_c, 1, 67, 77
1, 61045, Note_on_c, 1, 62, 0
1, 61053, Note_on_c, 0, 79, 0
1, 61053, Note_on_c, 1, 71, 0
1, 61053, Note_on_c, 1, 67, 0
1, 61056, Note_on_c, 0, 84, 77
1, 61056, Note_on_c, 0, 81, 64
1, 61056, Note_on_c, 1, 69, 77
1, 61056, Note_on_c, 1, 66, 77
1, 61056, Note_on_c, 1, 62, 64
1, 61079, Note_on_c, 0, 81, 0
1, 61080, Note_on_c, 0, 74, 64
1, 61101, Note_on_c, 0, 84, 0
1, 61103, Note_on_c, 0, 74, 0
1, 61104, Note_on_c, 0, 84, 77
1, 61104, Note_on_c, 0, 81, 64
1, 61127, Note_on_c, 0, 81, 0
1, 61128, Note_on_c, 0, 74, 64
1, 61145, Note_on_c, 1, 69, 0
1, 61145, Note_on_c, 1, 66, 0
1, 61149, Note_on_c, 0, 84, 0
1, 61151, Note_on_c, 0, 74, 0
1, 61152, Note_on_c, 0, 83, 77
1, 61152, Note_on_c, 0, 79, 64
1, 61152, Note_on_c, 1, 71, 77
1, 61152, Note_on_c, 1, 67, 77
1, 61189, Note_on_c, 1, 62, 0
1, 61197, Note_on_c, 0, 83, 0
1, 61197, Note_on_c, 0, 79, 0
1, 61197, Note_on_c, 1, 71, 0
1, 61197, Note_on_c, 1, 67, 0
1, 61200, Note_on_c, 0, 78, 64
1, 61200, Note_on_c, 1, 72, 77
1, 61200, Note_on_c, 1, 69, 77
1, 61200, Note_on_c, 1, 62, 64
1, 61223, Note_on_c, 0, 78, 0
1, 61224, Note_on_c, 0, 74, 64
1, 61247, Note_on_c, 0, 74, 0
1, 61248, Note_on_c, 0, 78, 64
1, 61271, Note_on_c, 0, 78, 0
1, 61272, Note_on_c, 0, 74, 64
1, 61289, Note_on_c, 1, 72, 0
1, 61289, Note_on_c, 1, 69, 0
1, 61295, Note_on_c, 0, 74, 0
1, 61296, Note_on_c, 0, 79, 64
1, 61296, Note_on_c, 1, 71, 77
1, 61296, Note_on_c, 1, 67, 77
1, 61333, Note_on_c, 1, 62, 0
1, 61341, Note_on_c, 0, 79, 0
1, 61341, Note_on_c, 1, 71, 0
1, 61341, Note_on_c, 1, 67, 0
1, 61344, Note_on_c, 0, 84, 77
1, 61344, Note_on_c, 0, 81, 64
1, 61344, Note_on_c, 1, 69, 77
1, 61344, Note_on_c, 1, 66, 77
1, 61344, Note_on_c, 1, 62, 64
1, 61367, Note_on_c, 0, 81, 0
1, 61368, Note_on_c, 0, 74, 64
1, 61389, Note_on_c, 0, 84, 0
1, 61391, Note_on_c, 0, 74, 0
1, 61392, Note_on_c, 0, 84, 77
1, 61392, Note_on_c, 0, 81, 64
1, 61415, Note_on_c, 0, 81, 0
1, 61416, Note_on_c, 0, 74, 64
1, 61433, Note_on_c, 1, 69, 0
1, 61433, Note_on_c, 1, 66, 0
1, 61437, Note_on_c, 0, 84, 0
1, 61439, Note_on_c, 0, 74, 0
1, 61440, Note_on_c, 0, 83, 77
1, 61440, Note_on_c, 0, 79, 64
1, 61440, Note_on_c, 1, 67, 77
1, 61477, Note_on_c, 1, 62, 0
1, 61485, Note_on_c, 0, 83, 0
1, 61485, Note_on_c, 0, 79, 0
1, 61485, Note_on_c, 1, 67, 0
1, 61488, Note_on_c, 0, 84, 77
1, 61488, Note_on_c, 0, 81, 64
1, 61488, Note_on_c, 1, 69, 77
1, 61488, Note_on_c, 1, 66, 77
1, 61488, Note_on_c, 1, 62, 64
1, 61511, Note_on_c, 0, 81, 0
1, 61512, Note_on_c, 0, 74, 64
1, 61533, Note_on_c, 0, 84, 0
1, 61535, Note_on_c, 0, 74, 0
1, 61536, Note_on_c, 0, 84, 77
1, 61536, Note_on_c, 0, 81, 64
1, 61559, Note_on_c, 0, 81, 0
1, 61560, Note_on_c, 0, 74, 64
1, 61577, Note_on_c, 1, 69, 0
1, 61577, Note_on_c, 1, 66, 0
1, 61581, Note_on_c, 0, 84, 0
1, 61583, Note_on_c, 0, 74, 0
1, 61584, Note_on_c, 0, 83, 77
1, 61584, Note_on_c, 0, 79, 64
1, 61584, Note_on_c, 1, 67, 77
1, 61621, Note_on_c, 1, 62, 0
1, 61629, Note_on_c, 0, 83, 0
1, 61629, Note_on_c, 0, 79, 0
1, 61629, Note_on_c, 1, 67, 0
1, 61632, Note_on_c, 0, 81, 77
1, 61632, Note_on_c, 0, 78, 64
1, 61632, Note_on_c, 1, 69, 77
1, 61632, Note_on_c, 1, 66, 77
1, 61632, Note_on_c, 1, 62, 77
1, 61677, Note_on_c, 0, 81, 0
1, 61677, Note_on_c, 0, 78, 0
1, 61677, Note_on_c, 1, 69, 0
1, 61677, Note_on_c, 1, 66, 0
1, 61677, Note_on_c, 1, 62, 0
1, 61680, Note_on_c, 0, 86, 77
1, 61680, Note_on_c, 0, 78, 64
1, 61680, Note_on_c, 1, 69, 77
1, 61680, Note_on_c, 1, 66, 77
1, 61680, Note_on_c, 1, 62, 77
1, 61725, Note_on_c, 0, 86, 0
1, 61725, Note_on_c, 0, 78, 0
1, 61725, Note_on_c, 1, 69, 0
1, 61725, Note_on_c, 1, 66, 0
1, 61725, Note_on_c, 1, 62, 0
1, 61728, Note_on_c, 0, 86, 77
1, 61728, Note_on_c, 0, 78, 64
1, 61728, Note_on_c, 1, 69, 77
1, 61728, Note_on_c, 1, 66, 77
1, 61728, Note_on_c, 1, 62, 77
1, 61773, Note_on_c, 0, 86, 0
1, 61773, Note_on_c, 0, 78, 0
1, 61773, Note_on_c, 1, 69, 0
1, 61773, Note_on_c, 1, 66, 0
1, 61773, Note_on_c, 1, 62, 0
1, 61776, Note_on_c, 0, 86, 77
1, 61776, Note_on_c, 0, 78, 64
1, 61776, Note_on_c, 1, 69, 77
1, 61776, Note_on_c, 1, 66, 77
1, 61776, Note_on_c, 1, 62, 77
1, 61865, Note_on_c, 0, 86, 0
1, 61865, Note_on_c, 0, 78, 0
1, 61865, Note_on_c, 1, 69, 0
1, 61865, Note_on_c, 1, 66, 0
1, 61865, Note_on_c, 1, 62, 0
1, 61920, Note_on_c, 0, 67, 77
1, 61920, Note_on_c, 0, 59, 77
1, 61959, Note_on_c, 0, 67, 0
1, 61959, Note_on_c, 0, 59, 0
1, 61968, Note_on_c, 1, 43, 77
1, 62013, Note_on_c, 1, 43, 0
1, 62016, Note_on_c, 1, 31, 77
1, 62061, Note_on_c, 1, 31, 0
1, 62064, Note_on_c, 0, 72, 77
1, 62064, Note_on_c, 0, 64, 77
1, 62103, Note_on_c, 0, 72, 0
1, 62103, Note_on_c, 0, 64, 0
1, 62112, Note_on_c, 1, 55, 77
1, 62136, Note_on_c, 1, 55, 0
1, 62136, Note_on_c, 1, 54, 77
1, 62159, Note_on_c, 1, 54, 0
1, 62160, Note_on_c, 1, 55, 77
1, 62180, Note_on_c, 1, 55, 0
1, 62208, Note_on_c, 0, 71, 77
1, 62208, Note_on_c, 0, 62, 77
1, 62247, Note_on_c, 0, 71, 0
1, 62247, Note_on_c, 0, 62, 0
1, 62256, Note_on_c, 1, 43, 77
1, 62301, Note_on_c, 1, 43, 0
1, 62304, Note_on_c, 1, 31, 77
1, 62349, Note_on_c, 1, 31, 0
1, 62352, Note_on_c, 0, 66, 77
1, 62352, Note_on_c, 0, 60, 77
1, 62391, Note_on_c, 0, 66, 0
1, 62391, Note_on_c, 0, 60, 0
1, 62400, Note_on_c, 1, 55, 77
1, 62424, Note_on_c, 1, 55, 0
1, 62424, Note_on_c, 1, 54, 77
1, 62447, Note_on_c, 1, 54, 0
1, 62448, Note_on_c, 1, 55, 77
1, 62468, Note_on_c, 1, 55, 0
1, 62496, Note_on_c, 0, 67, 77
1, 62496, Note_on_c, 0, 59, 77
1, 62535, Note_on_c, 0, 67, 0
1, 62535, Note_on_c, 0, 59, 0
1, 62544, Note_on_c, 1, 43, 77
1, 62589, Note_on_c, 1, 43, 0
1, 62592, Note_on_c, 1, 31, 77
1, 62637, Note_on_c, 1, 31, 0
1, 62640, Note_on_c, 0, 72, 77
1, 62640, Note_on_c, 0, 64, 77
1, 62679, Note_on_c, 0, 72, 0
1, 62679, Note_on_c, 0, 64, 0
1, 62688, Note_on_c, 1, 55, 77
1, 62712, Note_on_c, 1, 55, 0
1, 62712, Note_on_c, 1, 54, 77
1, 62735, Note_on_c, 1, 54, 0
1, 62736, Note_on_c, 1, 55, 77
1, 62756, Note_on_c, 1, 55, 0
1, 62784, Note_on_c, 0, 71, 77
1, 62784, Note_on_c, 0, 62, 77
1, 62823, Note_on_c, 0, 71, 0
1, 62823, Note_on_c, 0, 62, 0
1, 62832, Note_on_c, 1, 43, 77
1, 62877, Note_on_c, 1, 43, 0
1, 62880, Note_on_c, 1, 31, 77
1, 62925, Note_on_c, 1, 31, 0
1, 62928, Note_on_c, 0, 66, 77
1, 62928, Note_on_c, 0, 60, 77
1, 62967, Note_on_c, 0, 66, 0
1, 62967, Note_on_c, 0, 60, 0
1, 62976, Note_on_c, 1, 55, 77
1, 63000, Note_on_c, 1, 55, 0
1, 63000, Note_on_c, 1, 54, 77
1, 63023, Note_on_c, 1, 54, 0
1, 63024, Note_on_c, 1, 55, 77
1, 63044, Note_on_c, 1, 55, 0
1, 63072, Note_on_c, 0, 67, 77
1, 63072, Note_on_c, 0, 59, 77
1, 63111, Note_on_c, 0, 67, 0
1, 63111, Note_on_c, 0, 59, 0
1, 63120, Note_on_c, 1, 43, 77
1, 63165, Note_on_c, 1, 43, 0
1, 63168, Note_on_c, 1, 31, 77
1, 63213, Note_on_c, 1, 31, 0
1, 63216, Note_on_c, 0, 71, 77
1, 63216, Note_on_c, 0, 67, 77
1, 63255, Note_on_c, 0, 71, 0
1, 63255, Note_on_c, 0, 67, 0
1, 63264, Note_on_c, 1, 52, 77
1, 63288, Note_on_c, 1, 52, 0
1, 63288, Note_on_c, 1, 51, 77
1, 63311, Note_on_c, 1, 51, 0
1, 63312, Note_on_c, 1, 52, 77
1, 63332, Note_on_c, 1, 52, 0
1, 63360, Note_on_c, 0, 69, 77
1, 63360, Note_on_c, 0, 67, 77
1, 63399, Note_on_c, 0, 69, 0
1, 63399, Note_on_c, 0, 67, 0
1, 63408, Note_on_c, 1, 48, 77
1, 63431, Note_on_c, 1, 48, 0
1, 63432, Note_on_c, 1, 47, 77
1, 63455, Note_on_c, 1, 47, 0
1, 63456, Note_on_c, 1, 48, 77
1, 63476, Note_on_c, 1, 48, 0
1, 63504, Note_on_c, 0, 76, 77
1, 63504, Note_on_c, 0, 67, 77
1, 63543, Note_on_c, 0, 76, 0
1, 63543, Note_on_c, 0, 67, 0
1, 63552, Note_on_c, 1, 49, 77
1, 63576, Note_on_c, 1, 49, 0
1, 63576, Note_on_c, 1, 47, 77
1, 63599, Note_on_c, 1, 47, 0
1, 63600, Note_on_c, 1, 49, 77
1, 63620, Note_on_c, 1, 49, 0
1, 63648, Note_on_c, 0, 66, 77
1, 63648, Note_on_c, 1, 50, 77
1, 63671, Note_on_c, 0, 66, 0
1, 63672, Note_on_c, 0, 62, 77
1, 63693, Note_on_c, 1, 50, 0
1, 63695, Note_on_c, 0, 62, 0
1, 63696, Note_on_c, 0, 67, 77
1, 63696, Note_on_c, 1, 52, 77
1, 63719, Note_on_c, 0, 67, 0
1, 63720, Note_on_c, 0, 62, 77
1, 63741, Note_on_c, 1, 52, 0
1, 63743, Note_on_c, 0, 62, 0
1, 63744, Note_on_c, 0, 69, 77
1, 63744, Note_on_c, 1, 54, 77
1, 63767, Note_on_c, 0, 69, 0
1, 63768, Note_on_c, 0, 62, 77
1, 63789, Note_on_c, 1, 54, 0
1, 63791, Note_on_c, 0, 62, 0
1, 63792, Note_on_c, 0, 71, 77
1, 63792, Note_on_c, 1, 55, 77
1, 63815, Note_on_c, 0, 71, 0
1, 63816, Note_on_c, 0, 62, 77
1, 63839, Note_on_c, 0, 62, 0
1, 63840, Note_on_c, 0, 69, 77
1, 63840, Note_on_c, 1, 55, 0
1, 63840, Note_on_c, 1, 54, 77
1, 63863, Note_on_c, 0, 69, 0
1, 63864, Note_on_c, 0, 62, 77
1, 63885, Note_on_c, 1, 54, 0
1, 63887, Note_on_c, 0, 62, 0
1, 63888, Note_on_c, 0, 74, 77
1, 63911, Note_on_c, 0, 74, 0
1, 63912, Note_on_c, 0, 62, 77
1, 63935, Note_on_c, 0, 62, 0
1, 63936, Note_on_c, 0, 66, 77
1, 63936, Note_on_c, 1, 50, 77
1, 63959, Note_on_c, 0, 66, 0
1, 63960, Note_on_c, 0, 62, 77
1, 63981, Note_on_c, 1, 50, 0
1, 63983, Note_on_c, 0, 62, 0
1, 63984, Note_on_c, 0, 67, 77
1, 63984, Note_on_c, 1, 52, 77
1, 64007, Note_on_c, 0, 67, 0
1, 64008, Note_on_c, 0, 62, 77
1, 64029, Note_on_c, 1, 52, 0
1, 64031, Note_on_c, 0, 62, 0
1, 64032, Note_on_c, 0, 69, 77
1, 64032, Note_on_c, 1, 54, 77
1, 64055, Note_on_c, 0, 69, 0
1, 64056, Note_on_c, 0, 62, 77
1, 64077, Note_on_c, 1, 54, 0
1, 64079, Note_on_c, 0, 62, 0
1, 64080, Note_on_c, 0, 71, 77
1, 64080, Note_on_c, 1, 55, 77
1, 64103, Note_on_c, 0, 71, 0
1, 64104, Note_on_c, 0, 62, 77
1, 64127, Note_on_c, 0, 62, 0
1, 64128, Note_on_c, 0, 69, 77
1, 64128, Note_on_c, 1, 55, 0
1, 64128, Note_on_c, 1, 54, 77
1, 64151, Note_on_c, 0, 69, 0
1, 64152, Note_on_c, 0, 62, 77
1, 64173, Note_on_c, 1, 54, 0
1, 64175, Note_on_c, 0, 62, 0
1, 64176, Note_on_c, 0, 74, 77
1, 64199, Note_on_c, 0, 74, 0
1, 64200, Note_on_c, 0, 62, 77
1, 64223, Note_on_c, 0, 62, 0
1, 64224, Note_on_c, 0, 66, 77
1, 64224, Note_on_c, 1, 50, 77
1, 64247, Note_on_c, 0, 66, 0
1, 64248, Note_on_c, 0, 62, 77
1, 64269, Note_on_c, 1, 50, 0
1, 64271, Note_on_c, 0, 62, 0
1, 64272, Note_on_c, 0, 67, 77
1, 64272, Note_on_c, 1, 52, 77
1, 64295, Note_on_c, 0, 67, 0
1, 64296, Note_on_c, 0, 62, 77
1, 64317, Note_on_c, 1, 52, 0
1, 64319, Note_on_c, 0, 62, 0
1, 64320, Note_on_c, 0, 69, 77
1, 64320, Note_on_c, 1, 54, 77
1, 64343, Note_on_c, 0, 69, 0
1, 64344, Note_on_c, 0, 62, 77
1, 64365, Note_on_c, 1, 54, 0
1, 64367, Note_on_c, 0, 62, 0
1, 64368, Note_on_c, 0, 71, 77
1, 64368, Note_on_c, 1, 55, 77
1, 64391, Note_on_c, 0, 71, 0
1, 64392, Note_on_c, 0, 62, 77
1, 64413, Note_on_c, 1, 55, 0
1, 64415, Note_on_c, 0, 62, 0
1, 64416, Note_on_c, 0, 72, 77
1, 64416, Note_on_c, 1, 57, 77
1, 64439, Note_on_c, 0, 72, 0
1, 64440, Note_on_c, 0, 62, 77
1, 64461, Note_on_c, 1, 57, 0
1, 64463, Note_on_c, 0, 62, 0
1, 64464, Note_on_c, 0, 74, 77
1, 64464, Note_on_c, 1, 59, 77
1, 64487, Note_on_c, 0, 74, 0
1, 64488, Note_on_c, 0, 62, 77
1, 64509, Note_on_c, 1, 59, 0
1, 64511, Note_on_c, 0, 62, 0
1, 64512, Note_on_c, 0, 76, 77
1, 64512, Note_on_c, 1, 60, 77
1, 64535, Note_on_c, 0, 76, 0
1, 64536, Note_on_c, 0, 72, 77
1, 64559, Note_on_c, 0, 72, 0
1, 64560, Note_on_c, 0, 71, 77
1, 64583, Note_on_c, 0, 71, 0
1, 64584, Note_on_c, 0, 69, 77
1, 64607, Note_on_c, 0, 69, 0
1, 64608, Note_on_c, 0, 68, 77
1, 64631, Note_on_c, 0, 68, 0
1, 64632, Note_on_c, 0, 69, 77
1, 64645, Note_on_c, 1, 60, 0
1, 64655, Note_on_c, 0, 69, 0
1, 64656, Note_on_c, 0, 74, 77
1, 64656, Note_on_c, 1, 59, 77
1, 64679, Note_on_c, 0, 74, 0
1, 64680, Note_on_c, 0, 71, 77
1, 64703, Note_on_c, 0, 71, 0
1, 64704, Note_on_c, 0, 69, 77
1, 64727, Note_on_c, 0, 69, 0
1, 64728, Note_on_c, 0, 67, 77
1, 64751, Note_on_c, 0, 67, 0
1, 64752, Note_on_c, 0, 66, 77
1, 64775, Note_on_c, 0, 66, 0
1, 64776, Note_on_c, 0, 67, 77
1, 64789, Note_on_c, 1, 59, 0
1, 64799, Note_on_c, 0, 67, 0
1, 64800, Note_on_c, 0, 79, 77
1, 64800, Note_on_c, 1, 64, 77
1, 64800, Note_on_c, 1, 61, 77
1, 64800, Note_on_c, 1, 57, 77
1, 64823, Note_on_c, 0, 79, 0
1, 64824, Note_on_c, 0, 81, 77
1, 64847, Note_on_c, 0, 81, 0
1, 64848, Note_on_c, 0, 79, 77
1, 64871, Note_on_c, 0, 79, 0
1, 64872, Note_on_c, 0, 78, 77
1, 64889, Note_on_c, 1, 64, 0
1, 64889, Note_on_c, 1, 61, 0
1, 64889, Note_on_c, 1, 57, 0
1, 64895, Note_on_c, 0, 78, 0
1, 64896, Note_on_c, 0, 76, 77
1, 64919, Note_on_c, 0, 76, 0
1, 64920, Note_on_c, 0, 74, 77
1, 64943, Note_on_c, 0, 74, 0
1, 64944, Note_on_c, 0, 73, 77
1, 64967, Note_on_c, 0, 73, 0
1, 64968, Note_on_c, 0, 71, 77
1, 64991, Note_on_c, 0, 71, 0
1, 64992, Note_on_c, 0, 69, 77
1, 65015, Note_on_c, 0, 69, 0
1, 65016, Note_on_c, 1, 67, 77
1, 65039, Note_on_c, 1, 67, 0
1, 65040, Note_on_c, 1, 66, 77
1, 65063, Note_on_c, 1, 66, 0
1, 65064, Note_on_c, 1, 64, 77
1, 65087, Note_on_c, 1, 64, 0
1, 65088, Note_on_c, 0, 84, 77
1, 65088, Note_on_c, 1, 69, 77
1, 65088, Note_on_c, 1, 66, 77
1, 65088, Note_on_c, 1, 62, 77
1, 65111, Note_on_c, 0, 84, 0
1, 65112, Note_on_c, 0, 86, 77
1, 65135, Note_on_c, 0, 86, 0
1, 65136, Note_on_c, 0, 84, 77
1, 65159, Note_on_c, 0, 84, 0
1, 65160, Note_on_c, 0, 83, 77
1, 65183, Note_on_c, 0, 83, 0
1, 65184, Note_on_c, 0, 81, 77
1, 65207, Note_on_c, 0, 81, 0
1, 65208, Note_on_c, 0, 79, 77
1, 65221, Note_on_c, 1, 69, 0
1, 65221, Note_on_c, 1, 66, 0
1, 65221, Note_on_c, 1, 62, 0
1, 65231, Note_on_c, 0, 79, 0
1, 65232, Note_on_c, 0, 78, 77
1, 65255, Note_on_c, 0, 78, 0
1, 65256, Note_on_c, 0, 76, 77
1, 65279, Note_on_c, 0, 76, 0
1, 65280, Note_on_c, 0, 74, 77
1, 65303, Note_on_c, 0, 74, 0
1, 65304, Note_on_c, 0, 72, 77
1, 65327, Note_on_c, 0, 72, 0
1, 65328, Note_on_c, 0, 71, 77
1, 65351, Note_on_c, 0, 71, 0
1, 65352, Note_on_c, 0, 69, 77
1, 65375, Note_on_c, 0, 69, 0
1, 65376, Note_on_c, 0, 71, 77
1, 65376, Note_on_c, 1, 55, 77
1, 65399, Note_on_c, 0, 71, 0
1, 65400, Note_on_c, 0, 67, 77
1, 65421, Note_on_c, 1, 55, 0
1, 65423, Note_on_c, 0, 67, 0
1, 65424, Note_on_c, 0, 72, 77
1, 65424, Note_on_c, 1, 57, 77
1, 65447, Note_on_c, 0, 72, 0
1, 65448, Note_on_c, 0, 67, 77
1, 65469, Note_on_c, 1, 57, 0
1, 65471, Note_on_c, 0, 67, 0
1, 65472, Note_on_c, 0, 74, 77
1, 65472, Note_on_c, 1, 59, 77
1, 65495, Note_on_c, 0, 74, 0
1, 65496, Note_on_c, 0, 67, 77
1, 65517, Note_on_c, 1, 59, 0
1, 65519, Note_on_c, 0, 67, 0
1, 65520, Note_on_c, 0, 76, 77
1, 65520, Note_on_c, 1, 60, 77
1, 65543, Note_on_c, 0, 76, 0
1, 65544, Note_on_c, 0, 67, 77
1, 65565, Note_on_c, 1, 60, 0
1, 65567, Note_on_c, 0, 67, 0
1, 65568, Note_on_c, 0, 78, 77
1, 65568, Note_on_c, 1, 62, 77
1, 65591, Note_on_c, 0, 78, 0
1, 65592, Note_on_c, 0, 67, 77
1, 65613, Note_on_c, 1, 62, 0
1, 65615, Note_on_c, 0, 67, 0
1, 65616, Note_on_c, 0, 79, 77
1, 65616, Note_on_c, 1, 64, 77
1, 65636, Note_on_c, 0, 79, 0
1, 65661, Note_on_c, 1, 64, 0
1, 65664, Note_on_c, 0, 71, 77
1, 65664, Note_on_c, 0, 67, 77
1, 65664, Note_on_c, 1, 62, 77
1, 65797, Note_on_c, 1, 62, 0
1, 65808, Note_on_c, 1, 50, 77
1, 65853, Note_on_c, 0, 71, 0
1, 65853, Note_on_c, 0, 67, 0
1, 65856, Note_on_c, 0, 72, 77
1, 65856, Note_on_c, 0, 69, 77
1, 65901, Note_on_c, 0, 72, 0
1, 65901, Note_on_c, 0, 69, 0
1, 65904, Note_on_c, 0, 69, 77
1, 65904, Note_on_c, 0, 66, 77
1, 65941, Note_on_c, 1, 50, 0
1, 65949, Note_on_c, 0, 69, 0
1, 65949, Note_on_c, 0, 66, 0
1, 65952, Note_on_c, 0, 67, 77
1, 65952, Note_on_c, 1, 55, 77
1, 65952, Note_on_c, 1, 55, 64
1, 66041, Note_on_c, 0, 67, 0
1, 66041, Note_on_c, 1, 55, 0
1, 66041, Note_on_c, 1, 55, 0
1, 66048, Note_on_c, 0, 79, 77
1, 66093, Note_on_c, 0, 79, 0
1, 66096, Note_on_c, 0, 69, 77
1, 66096, Note_on_c, 1, 67, 77
1, 66096, Note_on_c, 1, 60, 64
1, 66141, Note_on_c, 0, 69, 0
1, 66144, Note_on_c, 0, 72, 77
1, 66185, Note_on_c, 1, 60, 0
1, 66189, Note_on_c, 0, 72, 0
1, 66192, Note_on_c, 0, 71, 77
1, 66192, Note_on_c, 1, 62, 64
1, 66237, Note_on_c, 0, 71, 0
1, 66237, Note_on_c, 1, 62, 0
1, 66240, Note_on_c, 0, 74, 77
1, 66240, Note_on_c, 1, 64, 64
1, 66285, Note_on_c, 0, 74, 0
1, 66288, Note_on_c, 0, 72, 77
1, 66329, Note_on_c, 1, 64, 0
1, 66333, Note_on_c, 0, 72, 0
1, 66336, Note_on_c, 0, 71, 77
1, 66336, Note_on_c, 1, 62, 64
1, 66373, Note_on_c, 1, 67, 0
1, 66381, Note_on_c, 0, 71, 0
1, 66381, Note_on_c, 1, 62, 0
1, 66384, Note_on_c, 0, 69, 77
1, 66384, Note_on_c, 1, 67, 77
1, 66384, Note_on_c, 1, 60, 64
1, 66429, Note_on_c, 0, 69, 0
1, 66432, Note_on_c, 0, 76, 77
1, 66473, Note_on_c, 1, 60, 0
1, 66477, Note_on_c, 0, 76, 0
1, 66480, Note_on_c, 0, 71, 77
1, 66480, Note_on_c, 1, 62, 64
1, 66525, Note_on_c, 0, 71, 0
1, 66525, Note_on_c, 1, 62, 0
1, 66528, Note_on_c, 0, 74, 77
1, 66528, Note_on_c, 1, 64, 64
1, 66573, Note_on_c, 0, 74, 0
1, 66576, Note_on_c, 0, 72, 77
1, 66617, Note_on_c, 1, 64, 0
1, 66621, Note_on_c, 0, 72, 0
1, 66624, Note_on_c, 0, 71, 77
1, 66624, Note_on_c, 1, 62, 64
1, 66661, Note_on_c, 1, 67, 0
1, 66669, Note_on_c, 0, 71, 0
1, 66669, Note_on_c, 1, 62, 0
1, 66672, Note_on_c, 0, 69, 77
1, 66672, Note_on_c, 1, 67, 77
1, 66672, Note_on_c, 1, 61, 64
1, 66717, Note_on_c, 0, 69, 0
1, 66720, Note_on_c, 0, 79, 77
1, 66761, Note_on_c, 1, 61, 0
1, 66765, Note_on_c, 0, 79, 0
1, 66768, Note_on_c, 0, 71, 77
1, 66768, Note_on_c, 1, 62, 64
1, 66813, Note_on_c, 0, 71, 0
1, 66813, Note_on_c, 1, 62, 0
1, 66816, Note_on_c, 0, 74, 77
1, 66816, Note_on_c, 1, 64, 64
1, 66861, Note_on_c, 0, 74, 0
1, 66864, Note_on_c, 0, 73, 77
1, 66909, Note_on_c, 0, 73, 0
1, 66912, Note_on_c, 0, 76, 77
1, 66949, Note_on_c, 1, 67, 0
1, 66949, Note_on_c, 1, 64, 0
1, 66960, Note_on_c, 1, 69, 77
1, 66960, Note_on_c, 1, 66, 64
1, 67005, Note_on_c, 0, 76, 0
1, 67008, Note_on_c, 0, 74, 77
1, 67053, Note_on_c, 0, 74, 0
1, 67056, Note_on_c, 0, 84, 77
1, 67093, Note_on_c, 1, 69, 0
1, 67093, Note_on_c, 1, 66, 0
1, 67104, Note_on_c, 1, 67, 77
1, 67104, Note_on_c, 1, 67, 64
1, 67127, Note_on_c, 0, 84, 0
1, 67128, Note_on_c, 0, 83, 77
1, 67151, Note_on_c, 0, 83, 0
1, 67152, Note_on_c, 0, 86, 77
1, 67175, Note_on_c, 0, 86, 0
1, 67176, Note_on_c, 0, 84, 77
1, 67199, Note_on_c, 0, 84, 0
1, 67200, Note_on_c, 0, 83, 77
1, 67223, Note_on_c, 0, 83, 0
1, 67224, Note_on_c, 0, 81, 77
1, 67237, Note_on_c, 1, 67, 0
1, 67237, Note_on_c, 1, 67, 0
1, 67247, Note_on_c, 0, 81, 0
1, 67248, Note_on_c, 0, 79, 77
1, 67248, Note_on_c, 1, 62, 77
1, 67248, Note_on_c, 1, 59, 77
1, 67271, Note_on_c, 0, 79, 0
1, 67272, Note_on_c, 0, 78, 77
1, 67295, Note_on_c, 0, 78, 0
1, 67296, Note_on_c, 0, 76, 77
1, 67319, Note_on_c, 0, 76, 0
1, 67320, Note_on_c, 0, 74, 77
1, 67343, Note_on_c, 0, 74, 0
1, 67344, Note_on_c, 0, 72, 77
1, 67367, Note_on_c, 0, 72, 0
1, 67368, Note_on_c, 0, 71, 77
1, 67381, Note_on_c, 1, 62, 0
1, 67381, Note_on_c, 1, 59, 0
1, 67391, Note_on_c, 0, 71, 0
1, 67392, Note_on_c, 0, 69, 77
1, 67392, Note_on_c, 1, 64, 77
1, 67392, Note_on_c, 1, 60, 77
1, 67437, Note_on_c, 0, 69, 0
1, 67440, Note_on_c, 0, 87, 77
1, 67440, Note_on_c, 0, 83, 77
1, 67481, Note_on_c, 1, 64, 0
1, 67481, Note_on_c, 1, 60, 0
1, 67488, Note_on_c, 0, 87, 0
1, 67488, Note_on_c, 0, 83, 0
1, 67488, Note_on_c, 0, 88, 77
1, 67488, Note_on_c, 0, 84, 77
1, 67533, Note_on_c, 0, 88, 0
1, 67533, Note_on_c, 0, 84, 0
1, 67536, Note_on_c, 0, 88, 77
1, 67536, Note_on_c, 0, 84, 77
1, 67581, Note_on_c, 0, 88, 0
1, 67581, Note_on_c, 0, 84, 0
1, 67584, Note_on_c, 0, 86, 77
1, 67584, Note_on_c, 0, 83, 77
1, 67629, Note_on_c, 0, 86, 0
1, 67629, Note_on_c, 0, 83, 0
1, 67632, Note_on_c, 0, 84, 77
1, 67632, Note_on_c, 0, 81, 77
1, 67677, Note_on_c, 0, 84, 0
1, 67677, Note_on_c, 0, 81, 0
1, 67680, Note_on_c, 0, 83, 77
1, 67680, Note_on_c, 1, 67, 77
1, 67680, Note_on_c, 1, 62, 77
1, 67692, Note_on_c, 0, 83, 0
1, 67692, Note_on_c, 0, 81, 77
1, 67704, Note_on_c, 0, 81, 0
1, 67704, Note_on_c, 0, 83, 77
1, 67725, Note_on_c, 0, 83, 0
1, 67728, Note_on_c, 0, 86, 77
1, 67773, Note_on_c, 0, 86, 0
1, 67776, Note_on_c, 0, 79, 77
1, 67813, Note_on_c, 1, 67, 0
1, 67813, Note_on_c, 1, 62, 0
1, 67821, Note_on_c, 0, 79, 0
1, 67824, Note_on_c, 0, 81, 77
1, 67824, Note_on_c, 1, 66, 77
1, 67824, Note_on_c, 1, 62, 77
1, 67836, Note_on_c, 0, 81, 0
1, 67836, Note_on_c, 0, 79, 77
1, 67848, Note_on_c, 0, 79, 0
1, 67848, Note_on_c, 0, 81, 77
1, 67869, Note_on_c, 0, 81, 0
1, 67872, Note_on_c, 0, 84, 77
1, 67917, Note_on_c, 0, 84, 0
1, 67920, Note_on_c, 0, 78, 77
1, 67957, Note_on_c, 1, 66, 0
1, 67957, Note_on_c, 1, 62, 0
1, 67965, Note_on_c, 0, 78, 0
1, 67968, Note_on_c, 0, 79, 77
1, 67968, Note_on_c, 1, 64, 77
1, 67968, Note_on_c, 1, 52, 77
1, 67991, Note_on_c, 0, 79, 0
1, 67992, Note_on_c, 0, 81, 77
1, 68013, Note_on_c, 1, 64, 0
1, 68013, Note_on_c, 1, 52, 0
1, 68015, Note_on_c, 0, 81, 0
1, 68016, Note_on_c, 0, 78, 77
1, 68016, Note_on_c, 1, 62, 77
1, 68016, Note_on_c, 1, 50, 77
1, 68039, Note_on_c, 0, 78, 0
1, 68040, Note_on_c, 0, 79, 77
1, 68061, Note_on_c, 1, 62, 0
1, 68061, Note_on_c, 1, 50, 0
1, 68063, Note_on_c, 0, 79, 0
1, 68064, Note_on_c, 0, 76, 77
1, 68064, Note_on_c, 1, 60, 77
1, 68064, Note_on_c, 1, 48, 77
1, 68084, Note_on_c, 0, 76, 0
1, 68109, Note_on_c, 1, 60, 0
1, 68109, Note_on_c, 1, 48, 0
1, 68112, Note_on_c, 0, 74, 77
1, 68112, Note_on_c, 1, 59, 77
1, 68112, Note_on_c, 1, 47, 77
1, 68135, Note_on_c, 0, 74, 0
1, 68136, Note_on_c, 0, 76, 77
1, 68157, Note_on_c, 1, 59, 0
1, 68157, Note_on_c, 1, 47, 0
1, 68159, Note_on_c, 0, 76, 0
1, 68160, Note_on_c, 0, 72, 77
1, 68160, Note_on_c, 1, 57, 77
1, 68160, Note_on_c, 1, 45, 77
1, 68183, Note_on_c, 0, 72, 0
1, 68184, Note_on_c, 0, 74, 77
1, 68205, Note_on_c, 1, 57, 0
1, 68205, Note_on_c, 1, 45, 0
1, 68207, Note_on_c, 0, 74, 0
1, 68208, Note_on_c, 0, 71, 77
1, 68208, Note_on_c, 1, 55, 77
1, 68208, Note_on_c, 1, 43, 77
1, 68228, Note_on_c, 0, 71, 0
1, 68253, Note_on_c, 1, 55, 0
1, 68253, Note_on_c, 1, 43, 0
1, 68256, Note_on_c, 0, 69, 77
1, 68256, Note_on_c, 1, 60, 77
1, 68256, Note_on_c, 1, 48, 77
1, 68301, Note_on_c, 0, 69, 0
1, 68304, Note_on_c, 0, 72, 77
1, 68349, Note_on_c, 0, 72, 0
1, 68352, Note_on_c, 0, 76, 77
1, 68397, Note_on_c, 0, 76, 0
1, 68400, Note_on_c, 0, 81, 77
1, 68445, Note_on_c, 0, 81, 0
1, 68448, Note_on_c, 0, 84, 77
1, 68460, Note_on_c, 0, 84, 0
1, 68460, Note_on_c, 0, 83, 77
1, 68472, Note_on_c, 0, 83, 0
1, 68472, Note_on_c, 0, 84, 77
1, 68493, Note_on_c, 0, 84, 0
1, 68496, Note_on_c, 0, 88, 77
1, 68521, Note_on_c, 1, 60, 0
1, 68521, Note_on_c, 1, 48, 0
1, 68541, Note_on_c, 0, 88, 0
1, 68544, Note_on_c, 0, 86, 77
1, 68544, Note_on_c, 1, 62, 77
1, 68589, Note_on_c, 0, 86, 0
1, 68592, Note_on_c, 0, 83, 77
1, 68637, Note_on_c, 0, 83, 0
1, 68640, Note_on_c, 0, 79, 77
1, 68677, Note_on_c, 1, 62, 0
1, 68685, Note_on_c, 0, 79, 0
1, 68688, Note_on_c, 0, 84, 77
1, 68688, Note_on_c, 1, 62, 77
1, 68733, Note_on_c, 0, 84, 0
1, 68736, Note_on_c, 0, 81, 77
1, 68781, Note_on_c, 0, 81, 0
1, 68784, Note_on_c, 0, 78, 77
1, 68821, Note_on_c, 1, 62, 0
1, 68829, Note_on_c, 0, 78, 0
1, 68832, Note_on_c, 0, 79, 63
1, 68832, Note_on_c, 1, 67, 63
1, 68877, Note_on_c, 0, 79, 0
1, 68877, Note_on_c, 1, 67, 0
1, 68880, Note_on_c, 0, 74, 63
1, 68880, Note_on_c, 1, 62, 63
1, 68925, Note_on_c, 0, 74, 0
1, 68925, Note_on_c, 1, 62, 0
1, 68928, Note_on_c, 0, 71, 63
1, 68928, Note_on_c, 1, 59, 63
1, 68973, Note_on_c, 0, 71, 0
1, 68973, Note_on_c, 1, 59, 0
1, 68976, Note_on_c, 0, 76, 63
1, 68976, Note_on_c, 1, 64, 63
1, 69021, Note_on_c, 0, 76, 0
1, 69021, Note_on_c, 1, 64, 0
1, 69024, Note_on_c, 0, 72, 63
1, 69024, Note_on_c, 1, 60, 63
1, 69069, Note_on_c, 0, 72, 0
1, 69069, Note_on_c, 1, 60, 0
1, 69072, Note_on_c, 0, 69, 63
1, 69072, Note_on_c, 1, 57, 63
1, 69117, Note_on_c, 0, 69, 0
1, 69117, Note_on_c, 1, 57, 0
1, 69120, Note_on_c, 0, 74, 63
1, 69120, Note_on_c, 1, 62, 63
1, 69165, Note_on_c, 0, 74, 0
1, 69165, Note_on_c, 1, 62, 0
1, 69168, Note_on_c, 0, 71, 63
1, 69168, Note_on_c, 1, 59, 63
1, 69213, Note_on_c, 0, 71, 0
1, 69213, Note_on_c, 1, 59, 0
1, 69216, Note_on_c, 0, 67, 63
1, 69216, Note_on_c, 1, 55, 63
1, 69261, Note_on_c, 0, 67, 0
1, 69261, Note_on_c, 1, 55, 0
1, 69264, Note_on_c, 0, 62, 63
1, 69264, Note_on_c, 1, 50, 63
1, 69309, Note_on_c, 0, 62, 0
1, 69309, Note_on_c, 1, 50, 0
1, 69312, Note_on_c, 0, 64, 63
1, 69312, Note_on_c, 1, 52, 63
1, 69357, Note_on_c, 0, 64, 0
1, 69357, Note_on_c, 1, 52, 0
1, 69360, Note_on_c, 0, 66, 63
1, 69360, Note_on_c, 1, 54, 63
1, 69405, Note_on_c, 0, 66, 0
1, 69405, Note_on_c, 1, 54, 0
1, 69408, Note_on_c, 0, 55, 63
1, 69408, Note_on_c, 1, 43, 63
1, 69497, Note_on_c, 0, 55, 0
1, 69497, Note_on_c, 1, 43, 0
1, 69507, End_track
0, 0, End_of_file