0, 0, Header, 0, 1, 96
1, 0, Start_track
1, 0, Tempo, 400000
1, 0, Note_on_c, 0, 85, 77
1, 0, Note_on_c, 0, 62, 77
1, 0, Note_on_c, 0, 57, 77
1, 0, Note_on_c, 0, 54, 77
1, 0, Note_on_c, 0, 50, 77
1, 6, Note_on_c, 0, 85, 0
1, 6, Note_on_c, 0, 86, 93
1, 48, Note_on_c, 0, 86, 0
1, 48, Note_on_c, 0, 74, 77
1, 89, Note_on_c, 0, 62, 0
1, 89, Note_on_c, 0, 57, 0
1, 89, Note_on_c, 0, 54, 0
1, 89, Note_on_c, 0, 50, 0
1, 93, Note_on_c, 0, 74, 0
1, 96, Note_on_c, 0, 74, 77
1, 141, Note_on_c, 0, 74, 0
1, 144, Note_on_c, 0, 74, 77
1, 144, Note_on_c, 0, 69, 77
1, 144, Note_on_c, 0, 66, 77
1, 189, Note_on_c, 0, 74, 0
1, 189, Note_on_c, 0, 69, 0
1, 189, Note_on_c, 0, 66, 0
1, 192, Note_on_c, 0, 76, 77
1, 192, Note_on_c, 0, 71, 77
1, 192, Note_on_c, 0, 67, 77
1, 204, Note_on_c, 0, 76, 0
1, 204, Note_on_c, 0, 78, 77
1, 216, Note_on_c, 0, 78, 0
1, 216, Note_on_c, 0, 76, 77
1, 237, Note_on_c, 0, 76, 0
1, 237, Note_on_c, 0, 71, 0
1, 237, Note_on_c, 0, 67, 0
1, 240, Note_on_c, 0, 74, 77
1, 240, Note_on_c, 0, 69, 77
1, 240, Note_on_c, 0, 66, 77
1, 285, Note_on_c, 0, 74, 0
1, 285, Note_on_c, 0, 69, 0
1, 285, Note_on_c, 0, 66, 0
1, 288, Note_on_c, 0, 76, 77
1, 288, Note_on_c, 0, 71, 77
1, 288, Note_on_c, 0, 67, 77
1, 300, Note_on_c, 0, 76, 0
1, 300, Note_on_c, 0, 78, 77
1, 312, Note_on_c, 0, 78, 0
1, 312, Note_on_c, 0, 76, 77
1, 333, Note_on_c, 0, 76, 0
1, 333, Note_on_c, 0, 71, 0
1, 333, Note_on_c, 0, 67, 0
1, 336, Note_on_c, 0, 74, 77
1, 336, Note_on_c, 0, 69, 77
1, 336, Note_on_c, 0, 66, 77
1, 381, Note_on_c, 0, 74, 0
1, 381, Note_on_c, 0, 69, 0
1, 381, Note_on_c, 0, 66, 0
1, 384, Note_on_c, 0, 85, 77
1, 384, Note_on_c, 0, 69, 77
1, 384, Note_on_c, 0, 66, 77
1, 384, Note_on_c, 0, 62, 77
1, 390, Note_on_c, 0, 85, 0
1, 390, Note_on_c, 0, 86, 93
1, 432, Note_on_c, 0, 86, 0
1, 432, Note_on_c, 0, 74, 77
1, 473, Note_on_c, 0, 69, 0
1, 473, Note_on_c, 0, 66, 0
1, 473, Note_on_c, 0, 62, 0
1, 477, Note_on_c, 0, 74, 0
1, 480, Note_on_c, 0, 74, 77
1, 525, Note_on_c, 0, 74, 0
1, 528, Note_on_c, 0, 74, 77
1, 528, Note_on_c, 0, 69, 77
1, 528, Note_on_c, 0, 66, 77
1, 573, Note_on_c, 0, 74, 0
1, 573, Note_on_c, 0, 69, 0
1, 573, Note_on_c, 0, 66, 0
1, 576, Note_on_c, 0, 76, 77
1, 576, Note_on_c, 0, 71, 77
1, 576, Note_on_c, 0, 67, 77
1, 588, Note_on_c, 0, 76, 0
1, 588, Note_on_c, 0, 78, 77
1, 600, Note_on_c, 0, 78, 0
1, 600, Note_on_c, 0, 76, 77
1, 621, Note_on_c, 0, 76, 0
1, 621, Note_on_c, 0, 71, 0
1, 621, Note_on_c, 0, 67, 0
1, 624, Note_on_c, 0, 74, 77
1, 624, Note_on_c, 0, 69, 77
1, 624, Note_on_c, 0, 66, 77
1, 669, Note_on_c, 0, 74, 0
1, 669, Note_on_c, 0, 69, 0
1, 669, Note_on_c, 0, 66, 0
1, 672, Note_on_c, 0, 76, 77
1, 672, Note_on_c, 0, 71, 77
1, 672, Note_on_c, 0, 67, 77
1, 684, Note_on_c, 0, 76, 0
1, 684, Note_on_c, 0, 78, 77
1, 696, Note_on_c, 0, 78, 0
1, 696, Note_on_c, 0, 76, 77
1, 717, Note_on_c, 0, 76, 0
1, 717, Note_on_c, 0, 71, 0
1, 717, Note_on_c, 0, 67, 0
1, 720, Note_on_c, 0, 74, 77
1, 720, Note_on_c, 0, 69, 77
1, 720, Note_on_c, 0, 66, 77
1, 765, Note_on_c, 0, 74, 0
1, 765, Note_on_c, 0, 69, 0
1, 765, Note_on_c, 0, 66, 0
1, 768, Note_on_c, 0, 79, 77
1, 768, Note_on_c, 0, 74, 64
1, 768, Note_on_c, 0, 71, 77
1, 788, Note_on_c, 0, 74, 0
1, 788, Note_on_c, 0, 71, 0
1, 815, Note_on_c, 0, 79, 0
1, 816, Note_on_c, 0, 79, 77
1, 816, Note_on_c, 0, 74, 64
1, 816, Note_on_c, 0, 71, 77
1, 864, Note_on_c, 0, 79, 0
1, 864, Note_on_c, 0, 78, 77
1, 864, Note_on_c, 0, 71, 0
1, 864, Note_on_c, 0, 69, 77
1, 884, Note_on_c, 0, 78, 0
1, 884, Note_on_c, 0, 69, 0
1, 905, Note_on_c, 0, 74, 0
1, 912, Note_on_c, 0, 78, 77
1, 912, Note_on_c, 0, 74, 64
1, 912, Note_on_c, 0, 69, 77
1, 960, Note_on_c, 0, 78, 0
1, 960, Note_on_c, 0, 83, 77
1, 960, Note_on_c, 0, 69, 0
1, 960, Note_on_c, 0, 67, 77
1, 980, Note_on_c, 0, 83, 0
1, 980, Note_on_c, 0, 67, 0
1, 1001, Note_on_c, 0, 74, 0
1, 1008, Note_on_c, 0, 83, 77
1, 1008, Note_on_c, 0, 74, 64
1, 1008, Note_on_c, 0, 67, 77
1, 1056, Note_on_c, 0, 83, 0
1, 1056, Note_on_c, 0, 81, 77
1, 1056, Note_on_c, 0, 67, 0
1, 1056, Note_on_c, 0, 66, 77
1, 1076, Note_on_c, 0, 81, 0
1, 1076, Note_on_c, 0, 66, 0
1, 1097, Note_on_c, 0, 74, 0
1, 1104, Note_on_c, 0, 81, 77
1, 1104, Note_on_c, 0, 74, 64
1, 1104, Note_on_c, 0, 66, 77
1, 1149, Note_on_c, 0, 81, 0
1, 1149, Note_on_c, 0, 74, 0
1, 1149, Note_on_c, 0, 66, 0
1, 1152, Note_on_c, 0, 79, 77
1, 1152, Note_on_c, 0, 64, 77
1, 1197, Note_on_c, 0, 79, 0
1, 1197, Note_on_c, 0, 64, 0
1, 1200, Note_on_c, 0, 76, 77
1, 1200, Note_on_c, 0, 61, 77
1, 1245, Note_on_c, 0, 76, 0
1, 1245, Note_on_c, 0, 61, 0
1, 1248, Note_on_c, 0, 78, 77
1, 1248, Note_on_c, 0, 62, 77
1, 1293, Note_on_c, 0, 78, 0
1, 1293, Note_on_c, 0, 62, 0
1, 1296, Note_on_c, 0, 74, 77
1, 1296, Note_on_c, 0, 66, 77
1, 1341, Note_on_c, 0, 74, 0
1, 1341, Note_on_c, 0, 66, 0
1, 1344, Note_on_c, 0, 73, 77
1, 1344, Note_on_c, 0, 69, 77
1, 1367, Note_on_c, 0, 73, 0
1, 1368, Note_on_c, 0, 74, 77
1, 1391, Note_on_c, 0, 74, 0
1, 1392, Note_on_c, 0, 76, 77
1, 1415, Note_on_c, 0, 76, 0
1, 1416, Note_on_c, 0, 73, 77
1, 1433, Note_on_c, 0, 69, 0
1, 1439, Note_on_c, 0, 73, 0
1, 1440, Note_on_c, 0, 69, 77
1, 1485, Note_on_c, 0, 69, 0
1, 1536, Note_on_c, 0, 85, 77
1, 1536, Note_on_c, 0, 62, 77
1, 1542, Note_on_c, 0, 85, 0
1, 1542, Note_on_c, 0, 86, 93
1, 1559, Note_on_c, 0, 62, 0
1, 1560, Note_on_c, 0, 69, 77
1, 1583, Note_on_c, 0, 69, 0
1, 1584, Note_on_c, 0, 86, 0
1, 1584, Note_on_c, 0, 74, 77
1, 1584, Note_on_c, 0, 66, 77
1, 1607, Note_on_c, 0, 66, 0
1, 1608, Note_on_c, 0, 69, 77
1, 1629, Note_on_c, 0, 74, 0
1, 1631, Note_on_c, 0, 69, 0
1, 1632, Note_on_c, 0, 74, 77
1, 1632, Note_on_c, 0, 66, 77
1, 1655, Note_on_c, 0, 66, 0
1, 1656, Note_on_c, 0, 69, 77
1, 1677, Note_on_c, 0, 74, 0
1, 1679, Note_on_c, 0, 69, 0
1, 1680, Note_on_c, 0, 74, 77
1, 1680, Note_on_c, 0, 66, 77
1, 1703, Note_on_c, 0, 66, 0
1, 1704, Note_on_c, 0, 69, 77
1, 1725, Note_on_c, 0, 74, 0
1, 1727, Note_on_c, 0, 69, 0
1, 1728, Note_on_c, 0, 76, 77
1, 1728, Note_on_c, 0, 67, 77
1, 1740, Note_on_c, 0, 76, 0
1, 1740, Note_on_c, 0, 78, 77
1, 1751, Note_on_c, 0, 67, 0
1, 1752, Note_on_c, 0, 78, 0
1, 1752, Note_on_c, 0, 76, 77
1, 1752, Note_on_c, 0, 69, 77
1, 1773, Note_on_c, 0, 76, 0
1, 1775, Note_on_c, 0, 69, 0
1, 1776, Note_on_c, 0, 74, 77
1, 1776, Note_on_c, 0, 66, 77
1, 1799, Note_on_c, 0, 66, 0
1, 1800, Note_on_c, 0, 69, 77
1, 1821, Note_on_c, 0, 74, 0
1, 1823, Note_on_c, 0, 69, 0
1, 1824, Note_on_c, 0, 76, 77
1, 1824, Note_on_c, 0, 67, 77
1, 1836, Note_on_c, 0, 76, 0
1, 1836, Note_on_c, 0, 78, 77
1, 1847, Note_on_c, 0, 67, 0
1, 1848, Note_on_c, 0, 78, 0
1, 1848, Note_on_c, 0, 76, 77
1, 1848, Note_on_c, 0, 69, 77
1, 1869, Note_on_c, 0, 76, 0
1, 1871, Note_on_c, 0, 69, 0
1, 1872, Note_on_c, 0, 74, 77
1, 1872, Note_on_c, 0, 66, 77
1, 1895, Note_on_c, 0, 66, 0
1, 1896, Note_on_c, 0, 69, 77
1, 1917, Note_on_c, 0, 74, 0
1, 1919, Note_on_c, 0, 69, 0
1, 1920, Note_on_c, 0, 85, 77
1, 1920, Note_on_c, 0, 62, 77
1, 1926, Note_on_c, 0, 85, 0
1, 1926, Note_on_c, 0, 86, 93
1, 1943, Note_on_c, 0, 62, 0
1, 1944, Note_on_c, 0, 69, 77
1, 1967, Note_on_c, 0, 69, 0
1, 1968, Note_on_c, 0, 86, 0
1, 1968, Note_on_c, 0, 74, 77
1, 1968, Note_on_c, 0, 66, 77
1, 1991, Note_on_c, 0, 66, 0
1, 1992, Note_on_c, 0, 69, 77
1, 2013, Note_on_c, 0, 74, 0
1, 2015, Note_on_c, 0, 69, 0
1, 2016, Note_on_c, 0, 74, 77
1, 2016, Note_on_c, 0, 66, 77
1, 2039, Note_on_c, 0, 66, 0
1, 2040, Note_on_c, 0, 69, 77
1, 2061, Note_on_c, 0, 74, 0
1, 2063, Note_on_c, 0, 69, 0
1, 2064, Note_on_c, 0, 74, 77
1, 2064, Note_on_c, 0, 66, 77
1, 2087, Note_on_c, 0, 66, 0
1, 2088, Note_on_c, 0, 69, 77
1, 2109, Note_on_c, 0, 74, 0
1, 2111, Note_on_c, 0, 69, 0
1, 2112, Note_on_c, 0, 76, 77
1, 2112, Note_on_c, 0, 67, 77
1, 2124, Note_on_c, 0, 76, 0
1, 2124, Note_on_c, 0, 78, 77
1, 2135, Note_on_c, 0, 67, 0
1, 2136, Note_on_c, 0, 78, 0
1, 2136, Note_on_c, 0, 76, 77
1, 2136, Note_on_c, 0, 69, 77
1, 2157, Note_on_c, 0, 76, 0
1, 2159, Note_on_c, 0, 69, 0
1, 2160, Note_on_c, 0, 74, 77
1, 2160, Note_on_c, 0, 66, 77
1, 2183, Note_on_c, 0, 66, 0
1, 2184, Note_on_c, 0, 69, 77
1, 2205, Note_on_c, 0, 74, 0
1, 2207, Note_on_c, 0, 69, 0
1, 2208, Note_on_c, 0, 76, 77
1, 2208, Note_on_c, 0, 67, 77
1, 2220, Note_on_c, 0, 76, 0
1, 2220, Note_on_c, 0, 78, 77
1, 2231, Note_on_c, 0, 67, 0
1, 2232, Note_on_c, 0, 78, 0
1, 2232, Note_on_c, 0, 76, 77
1, 2232, Note_on_c, 0, 69, 77
1, 2253, Note_on_c, 0, 76, 0
1, 2255, Note_on_c, 0, 69, 0
1, 2256, Note_on_c, 0, 74, 77
1, 2256, Note_on_c, 0, 66, 77
1, 2279, Note_on_c, 0, 66, 0
1, 2280, Note_on_c, 0, 69, 77
1, 2301, Note_on_c, 0, 74, 0
1, 2303, Note_on_c, 0, 69, 0
1, 2304, Note_on_c, 0, 79, 77
1, 2304, Note_on_c, 0, 74, 64
1, 2304, Note_on_c, 0, 71, 77
1, 2324, Note_on_c, 0, 79, 0
1, 2324, Note_on_c, 0, 74, 0
1, 2324, Note_on_c, 0, 71, 0
1, 2352, Note_on_c, 0, 79, 77
1, 2352, Note_on_c, 0, 74, 64
1, 2352, Note_on_c, 0, 71, 77
1, 2400, Note_on_c, 0, 79, 0
1, 2400, Note_on_c, 0, 78, 77
1, 2400, Note_on_c, 0, 71, 0
1, 2400, Note_on_c, 0, 69, 77
1, 2420, Note_on_c, 0, 78, 0
1, 2420, Note_on_c, 0, 69, 0
1, 2441, Note_on_c, 0, 74, 0
1, 2448, Note_on_c, 0, 78, 77
1, 2448, Note_on_c, 0, 74, 64
1, 2448, Note_on_c, 0, 69, 77
1, 2496, Note_on_c, 0, 78, 0
1, 2496, Note_on_c, 0, 83, 77
1, 2496, Note_on_c, 0, 69, 0
1, 2496, Note_on_c, 0, 67, 77
1, 2516, Note_on_c, 0, 83, 0
1, 2516, Note_on_c, 0, 67, 0
1, 2537, Note_on_c, 0, 74, 0
1, 2544, Note_on_c, 0, 83, 77
1, 2544, Note_on_c, 0, 74, 64
1, 2544, Note_on_c, 0, 67, 77
1, 2592, Note_on_c, 0, 83, 0
1, 2592, Note_on_c, 0, 81, 77
1, 2592, Note_on_c, 0, 67, 0
1, 2592, Note_on_c, 0, 66, 77
1, 2612, Note_on_c, 0, 81, 0
1, 2612, Note_on_c, 0, 66, 0
1, 2633, Note_on_c, 0, 74, 0
1, 2640, Note_on_c, 0, 81, 77
1, 2640, Note_on_c, 0, 74, 64
1, 2640, Note_on_c, 0, 66, 77
1, 2685, Note_on_c, 0, 81, 0
1, 2685, Note_on_c, 0, 74, 0
1, 2685, Note_on_c, 0, 66, 0
1, 2688, Note_on_c, 0, 67, 77
1, 2736, Note_on_c, 0, 79, 77
1, 2736, Note_on_c, 0, 71, 77
1, 2777, Note_on_c, 0, 67, 0
1, 2781, Note_on_c, 0, 79, 0
1, 2781, Note_on_c, 0, 71, 0
1, 2784, Note_on_c, 0, 76, 74
1, 2784, Note_on_c, 0, 67, 74
1, 2829, Note_on_c, 0, 76, 0
1, 2829, Note_on_c, 0, 67, 0
1, 2832, Note_on_c, 0, 73, 71
1, 2832, Note_on_c, 0, 64, 71
1, 2832, Note_on_c, 0, 57, 71
1, 2877, Note_on_c, 0, 73, 0
1, 2877, Note_on_c, 0, 64, 0
1, 2877, Note_on_c, 0, 57, 0
1, 2880, Note_on_c, 0, 74, 69
1, 2880, Note_on_c, 0, 66, 69
1, 2880, Note_on_c, 0, 50, 69
1, 2969, Note_on_c, 0, 74, 0
1, 2969, Note_on_c, 0, 66, 0
1, 2969, Note_on_c, 0, 50, 0
1, 3072, Note_on_c, 0, 62, 84
1, 3072, Note_on_c, 0, 50, 84
1, 3072, Note_on_c, 0, 38, 84
1, 3095, Note_on_c, 0, 62, 0
1, 3096, Note_on_c, 0, 57, 84
1, 3119, Note_on_c, 0, 57, 0
1, 3120, Note_on_c, 0, 54, 84
1, 3143, Note_on_c, 0, 54, 0
1, 3144, Note_on_c, 0, 57, 84
1, 3161, Note_on_c, 0, 50, 0
1, 3161, Note_on_c, 0, 38, 0
1, 3167, Note_on_c, 0, 57, 0
1, 3168, Note_on_c, 0, 62, 84
1, 3168, Note_on_c, 0, 50, 84
1, 3191, Note_on_c, 0, 62, 0
1, 3192, Note_on_c, 0, 57, 84
1, 3213, Note_on_c, 0, 50, 0
1, 3215, Note_on_c, 0, 57, 0
1, 3216, Note_on_c, 0, 64, 84
1, 3216, Note_on_c, 0, 49, 84
1, 3239, Note_on_c, 0, 64, 0
1, 3240, Note_on_c, 0, 57, 84
1, 3261, Note_on_c, 0, 49, 0
1, 3263, Note_on_c, 0, 57, 0
1, 3264, Note_on_c, 0, 66, 84
1, 3264, Note_on_c, 0, 50, 84
1, 3287, Note_on_c, 0, 66, 0
1, 3288, Note_on_c, 0, 57, 84
1, 3309, Note_on_c, 0, 50, 0
1, 3311, Note_on_c, 0, 57, 0
1, 3312, Note_on_c, 0, 67, 84
1, 3312, Note_on_c, 0, 52, 84
1, 3335, Note_on_c, 0, 67, 0
1, 3336, Note_on_c, 0, 57, 84
1, 3357, Note_on_c, 0, 52, 0
1, 3359, Note_on_c, 0, 57, 0
1, 3360, Note_on_c, 0, 69, 84
1, 3360, Note_on_c, 0, 54, 84
1, 3383, Note_on_c, 0, 69, 0
1, 3384, Note_on_c, 0, 57, 84
1, 3405, Note_on_c, 0, 54, 0
1, 3407, Note_on_c, 0, 57, 0
1, 3408, Note_on_c, 0, 67, 84
1, 3408, Note_on_c, 0, 52, 84
1, 3431, Note_on_c, 0, 67, 0
1, 3432, Note_on_c, 0, 57, 84
1, 3453, Note_on_c, 0, 52, 0
1, 3455, Note_on_c, 0, 57, 0
1, 3456, Note_on_c, 0, 66, 84
1, 3456, Note_on_c, 0, 50, 84
1, 3456, Note_on_c, 0, 38, 84
1, 3479, Note_on_c, 0, 66, 0
1, 3480, Note_on_c, 0, 62, 84
1, 3503, Note_on_c, 0, 62, 0
1, 3504, Note_on_c, 0, 57, 84
1, 3527, Note_on_c, 0, 57, 0
1, 3528, Note_on_c, 0, 62, 84
1, 3545, Note_on_c, 0, 50, 0
1, 3545, Note_on_c, 0, 38, 0
1, 3551, Note_on_c, 0, 62, 0
1, 3552, Note_on_c, 0, 66, 84
1, 3552, Note_on_c, 0, 50, 84
1, 3575, Note_on_c, 0, 66, 0
1, 3576, Note_on_c, 0, 62, 84
1, 3597, Note_on_c, 0, 50, 0
1, 3599, Note_on_c, 0, 62, 0
1, 3600, Note_on_c, 0, 67, 84
1, 3600, Note_on_c, 0, 52, 84
1, 3623, Note_on_c, 0, 67, 0
1, 3624, Note_on_c, 0, 62, 84
1, 3645, Note_on_c, 0, 52, 0
1, 3647, Note_on_c, 0, 62, 0
1, 3648, Note_on_c, 0, 69, 84
1, 3648, Note_on_c, 0, 54, 84
1, 3671, Note_on_c, 0, 69, 0
1, 3672, Note_on_c, 0, 62, 84
1, 3693, Note_on_c, 0, 54, 0
1, 3695, Note_on_c, 0, 62, 0
1, 3696, Note_on_c, 0, 71, 84
1, 3696, Note_on_c, 0, 55, 84
1, 3719, Note_on_c, 0, 71, 0
1, 3720, Note_on_c, 0, 62, 84
1, 3741, Note_on_c, 0, 55, 0
1, 3743, Note_on_c, 0, 62, 0
1, 3744, Note_on_c, 0, 69, 84
1, 3744, Note_on_c, 0, 54, 84
1, 3767, Note_on_c, 0, 69, 0
1, 3768, Note_on_c, 0, 62, 84
1, 3789, Note_on_c, 0, 54, 0
1, 3791, Note_on_c, 0, 62, 0
1, 3792, Note_on_c, 0, 73, 84
1, 3792, Note_on_c, 0, 52, 84
1, 3815, Note_on_c, 0, 73, 0
1, 3816, Note_on_c, 0, 62, 84
1, 3837, Note_on_c, 0, 52, 0
1, 3839, Note_on_c, 0, 62, 0
1, 3840, Note_on_c, 0, 74, 84
1, 3840, Note_on_c, 0, 50, 84
1, 3840, Note_on_c, 0, 38, 84
1, 3863, Note_on_c, 0, 74, 0
1, 3864, Note_on_c, 0, 69, 84
1, 3887, Note_on_c, 0, 69, 0
1, 3888, Note_on_c, 0, 66, 84
1, 3911, Note_on_c, 0, 66, 0
1, 3912, Note_on_c, 0, 69, 84
1, 3929, Note_on_c, 0, 50, 0
1, 3929, Note_on_c, 0, 38, 0
1, 3935, Note_on_c, 0, 69, 0
1, 3936, Note_on_c, 0, 74, 84
1, 3936, Note_on_c, 0, 62, 84
1, 3959, Note_on_c, 0, 74, 0
1, 3960, Note_on_c, 0, 69, 84
1, 3981, Note_on_c, 0, 62, 0
1, 3983, Note_on_c, 0, 69, 0
1, 3984, Note_on_c, 0, 76, 84
1, 3984, Note_on_c, 0, 61, 84
1, 4007, Note_on_c, 0, 76, 0
1, 4008, Note_on_c, 0, 69, 84
1, 4029, Note_on_c, 0, 61, 0
1, 4031, Note_on_c, 0, 69, 0
1, 4032, Note_on_c, 0, 78, 84
1, 4032, Note_on_c, 0, 62, 84
1, 4055, Note_on_c, 0, 78, 0
1, 4056, Note_on_c, 0, 69, 84
1, 4077, Note_on_c, 0, 62, 0
1, 4079, Note_on_c, 0, 69, 0
1, 4080, Note_on_c, 0, 79, 84
1, 4080, Note_on_c, 0, 64, 84
1, 4103, Note_on_c, 0, 79, 0
1, 4104, Note_on_c, 0, 69, 84
1, 4125, Note_on_c, 0, 64, 0
1, 4127, Note_on_c, 0, 69, 0
1, 4128, Note_on_c, 0, 81, 84
1, 4128, Note_on_c, 0, 66, 84
1, 4151, Note_on_c, 0, 81, 0
1, 4152, Note_on_c, 0, 69, 84
1, 4173, Note_on_c, 0, 66, 0
1, 4175, Note_on_c, 0, 69, 0
1, 4176, Note_on_c, 0, 79, 84
1, 4176, Note_on_c, 0, 64, 84
1, 4199, Note_on_c, 0, 79, 0
1, 4200, Note_on_c, 0, 69, 84
1, 4221, Note_on_c, 0, 64, 0
1, 4223, Note_on_c, 0, 69, 0
1, 4224, Note_on_c, 0, 78, 84
1, 4224, Note_on_c, 0, 50, 84
1, 4224, Note_on_c, 0, 38, 84
1, 4247, Note_on_c, 0, 78, 0
1, 4248, Note_on_c, 0, 74, 84
1, 4271, Note_on_c, 0, 74, 0
1, 4272, Note_on_c, 0, 69, 84
1, 4295, Note_on_c, 0, 69, 0
1, 4296, Note_on_c, 0, 74, 84
1, 4313, Note_on_c, 0, 50, 0
1, 4313, Note_on_c, 0, 38, 0
1, 4319, Note_on_c, 0, 74, 0
1, 4320, Note_on_c, 0, 78, 84
1, 4320, Note_on_c, 0, 62, 84
1, 4343, Note_on_c, 0, 78, 0
1, 4344, Note_on_c, 0, 74, 84
1, 4365, Note_on_c, 0, 62, 0
1, 4367, Note_on_c, 0, 74, 0
1, 4368, Note_on_c, 0, 79, 84
1, 4368, Note_on_c, 0, 64, 84
1, 4391, Note_on_c, 0, 79, 0
1, 4392, Note_on_c, 0, 74, 84
1, 4413, Note_on_c, 0, 64, 0
1, 4415, Note_on_c, 0, 74, 0
1, 4416, Note_on_c, 0, 81, 84
1, 4416, Note_on_c, 0, 66, 84
1, 4439, Note_on_c, 0, 81, 0
1, 4440, Note_on_c, 0, 74, 84
1, 4461, Note_on_c, 0, 66, 0
1, 4463, Note_on_c, 0, 74, 0
1, 4464, Note_on_c, 0, 83, 84
1, 4464, Note_on_c, 0, 67, 84
1, 4487, Note_on_c, 0, 83, 0
1, 4488, Note_on_c, 0, 74, 84
1, 4509, Note_on_c, 0, 67, 0
1, 4511, Note_on_c, 0, 74, 0
1, 4512, Note_on_c, 0, 81, 84
1, 4512, Note_on_c, 0, 66, 84
1, 4535, Note_on_c, 0, 81, 0
1, 4536, Note_on_c, 0, 74, 84
1, 4557, Note_on_c, 0, 66, 0
1, 4559, Note_on_c, 0, 74, 0
1, 4560, Note_on_c, 0, 79, 84
1, 4560, Note_on_c, 0, 64, 84
1, 4583, Note_on_c, 0, 79, 0
1, 4584, Note_on_c, 0, 74, 84
1, 4605, Note_on_c, 0, 64, 0
1, 4607, Note_on_c, 0, 74, 0
1, 4608, Note_on_c, 0, 78, 84
1, 4608, Note_on_c, 0, 62, 84
1, 4631, Note_on_c, 0, 78, 0
1, 4632, Note_on_c, 0, 74, 84
1, 4653, Note_on_c, 0, 62, 0
1, 4655, Note_on_c, 0, 74, 0
1, 4656, Note_on_c, 0, 73, 84
1, 4656, Note_on_c, 0, 66, 84
1, 4679, Note_on_c, 0, 73, 0
1, 4680, Note_on_c, 0, 74, 84
1, 4701, Note_on_c, 0, 66, 0
1, 4703, Note_on_c, 0, 74, 0
1, 4704, Note_on_c, 0, 83, 84
1, 4704, Note_on_c, 0, 67, 84
1, 4727, Note_on_c, 0, 83, 0
1, 4728, Note_on_c, 0, 74, 84
1, 4749, Note_on_c, 0, 67, 0
1, 4751, Note_on_c, 0, 74, 0
1, 4752, Note_on_c, 0, 73, 84
1, 4752, Note_on_c, 0, 71, 84
1, 4775, Note_on_c, 0, 73, 0
1, 4776, Note_on_c, 0, 74, 84
1, 4797, Note_on_c, 0, 71, 0
1, 4799, Note_on_c, 0, 74, 0
1, 4800, Note_on_c, 0, 81, 84
1, 4800, Note_on_c, 0, 66, 84
1, 4823, Note_on_c, 0, 81, 0
1, 4824, Note_on_c, 0, 74, 84
1, 4845, Note_on_c, 0, 66, 0
1, 4847, Note_on_c, 0, 74, 0
1, 4848, Note_on_c, 0, 73, 84
1, 4848, Note_on_c, 0, 69, 84
1, 4871, Note_on_c, 0, 73, 0
1, 4872, Note_on_c, 0, 74, 84
1, 4893, Note_on_c, 0, 69, 0
1, 4895, Note_on_c, 0, 74, 0
1, 4896, Note_on_c, 0, 79, 84
1, 4896, Note_on_c, 0, 64, 84
1, 4919, Note_on_c, 0, 79, 0
1, 4920, Note_on_c, 0, 74, 84
1, 4941, Note_on_c, 0, 64, 0
1, 4943, Note_on_c, 0, 74, 0
1, 4944, Note_on_c, 0, 73, 84
1, 4944, Note_on_c, 0, 67, 84
1, 4967, Note_on_c, 0, 73, 0
1, 4968, Note_on_c, 0, 74, 84
1, 4989, Note_on_c, 0, 67, 0
1, 4991, Note_on_c, 0, 74, 0
1, 4992, Note_on_c, 0, 78, 84
1, 4992, Note_on_c, 0, 62, 84
1, 5015, Note_on_c, 0, 78, 0
1, 5016, Note_on_c, 0, 74, 84
1, 5037, Note_on_c, 0, 62, 0
1, 5039, Note_on_c, 0, 74, 0
1, 5040, Note_on_c, 0, 73, 84
1, 5040, Note_on_c, 0, 66, 84
1, 5063, Note_on_c, 0, 73, 0
1, 5064, Note_on_c, 0, 74, 84
1, 5085, Note_on_c, 0, 66, 0
1, 5087, Note_on_c, 0, 74, 0
1, 5088, Note_on_c, 0, 83, 84
1, 5088, Note_on_c, 0, 67, 84
1, 5111, Note_on_c, 0, 83, 0
1, 5112, Note_on_c, 0, 74, 84
1, 5133, Note_on_c, 0, 67, 0
1, 5135, Note_on_c, 0, 74, 0
1, 5136, Note_on_c, 0, 73, 84
1, 5136, Note_on_c, 0, 71, 84
1, 5159, Note_on_c, 0, 73, 0
1, 5160, Note_on_c, 0, 74, 84
1, 5181, Note_on_c, 0, 71, 0
1, 5183, Note_on_c, 0, 74, 0
1, 5184, Note_on_c, 0, 81, 84
1, 5184, Note_on_c, 0, 66, 84
1, 5207, Note_on_c, 0, 81, 0
1, 5208, Note_on_c, 0, 74, 84
1, 5229, Note_on_c, 0, 66, 0
1, 5231, Note_on_c, 0, 74, 0
1, 5232, Note_on_c, 0, 73, 84
1, 5232, Note_on_c, 0, 69, 84
1, 5255, Note_on_c, 0, 73, 0
1, 5256, Note_on_c, 0, 74, 84
1, 5277, Note_on_c, 0, 69, 0
1, 5279, Note_on_c, 0, 74, 0
1, 5280, Note_on_c, 0, 79, 84
1, 5280, Note_on_c, 0, 64, 84
1, 5303, Note_on_c, 0, 79, 0
1, 5304, Note_on_c, 0, 74, 84
1, 5325, Note_on_c, 0, 64, 0
1, 5327, Note_on_c, 0, 74, 0
1, 5328, Note_on_c, 0, 73, 84
1, 5328, Note_on_c, 0, 67, 84
1, 5351, Note_on_c, 0, 73, 0
1, 5352, Note_on_c, 0, 74, 84
1, 5373, Note_on_c, 0, 67, 0
1, 5375, Note_on_c, 0, 74, 0
1, 5376, Note_on_c, 0, 78, 91
1, 5376, Note_on_c, 0, 66, 91
1, 5399, Note_on_c, 0, 78, 0
1, 5399, Note_on_c, 0, 66, 0
1, 5400, Note_on_c, 0, 74, 91
1, 5400, Note_on_c, 0, 62, 91
1, 5423, Note_on_c, 0, 74, 0
1, 5423, Note_on_c, 0, 62, 0
1, 5424, Note_on_c, 0, 76, 91
1, 5424, Note_on_c, 0, 64, 91
1, 5447, Note_on_c, 0, 76, 0
1, 5447, Note_on_c, 0, 64, 0
1, 5448, Note_on_c, 0, 78, 91
1, 5448, Note_on_c, 0, 66, 91
1, 5471, Note_on_c, 0, 78, 0
1, 5471, Note_on_c, 0, 66, 0
1, 5472, Note_on_c, 0, 79, 91
1, 5472, Note_on_c, 0, 67, 91
1, 5495, Note_on_c, 0, 79, 0
1, 5495, Note_on_c, 0, 67, 0
1, 5496, Note_on_c, 0, 81, 91
1, 5496, Note_on_c, 0, 69, 91
1, 5519, Note_on_c, 0, 81, 0
1, 5519, Note_on_c, 0, 69, 0
1, 5520, Note_on_c, 0, 83, 91
1, 5520, Note_on_c, 0, 71, 91
1, 5543, Note_on_c, 0, 83, 0
1, 5543, Note_on_c, 0, 71, 0
1, 5544, Note_on_c, 0, 85, 91
1, 5544, Note_on_c, 0, 73, 91
1, 5567, Note_on_c, 0, 85, 0
1, 5567, Note_on_c, 0, 73, 0
1, 5568, Note_on_c, 0, 86, 91
1, 5568, Note_on_c, 0, 74, 91
1, 5591, Note_on_c, 0, 86, 0
1, 5591, Note_on_c, 0, 74, 0
1, 5592, Note_on_c, 0, 85, 91
1, 5592, Note_on_c, 0, 73, 91
1, 5615, Note_on_c, 0, 85, 0
1, 5615, Note_on_c, 0, 73, 0
1, 5616, Note_on_c, 0, 86, 91
1, 5616, Note_on_c, 0, 74, 91
1, 5639, Note_on_c, 0, 86, 0
1, 5639, Note_on_c, 0, 74, 0
1, 5640, Note_on_c, 0, 85, 91
1, 5640, Note_on_c, 0, 73, 91
1, 5663, Note_on_c, 0, 85, 0
1, 5663, Note_on_c, 0, 73, 0
1, 5664, Note_on_c, 0, 86, 91
1, 5664, Note_on_c, 0, 74, 91
1, 5687, Note_on_c, 0, 86, 0
1, 5687, Note_on_c, 0, 74, 0
1, 5688, Note_on_c, 0, 81, 91
1, 5688, Note_on_c, 0, 69, 91
1, 5711, Note_on_c, 0, 81, 0
1, 5711, Note_on_c, 0, 69, 0
1, 5712, Note_on_c, 0, 78, 91
1, 5712, Note_on_c, 0, 66, 91
1, 5735, Note_on_c, 0, 78, 0
1, 5735, Note_on_c, 0, 66, 0
1, 5736, Note_on_c, 0, 74, 91
1, 5736, Note_on_c, 0, 62, 91
1, 5759, Note_on_c, 0, 74, 0
1, 5759, Note_on_c, 0, 62, 0
1, 5760, Note_on_c, 0, 81, 91
1, 5760, Note_on_c, 0, 69, 91
1, 5849, Note_on_c, 0, 81, 0
1, 5849, Note_on_c, 0, 69, 0
1, 5856, Note_on_c, 0, 69, 84
1, 5856, Note_on_c, 0, 61, 84
1, 5856, Note_on_c, 0, 57, 84
1, 5856, Note_on_c, 0, 45, 84
1, 5923, Note_on_c, 0, 69, 0
1, 5923, Note_on_c, 0, 61, 0
1, 5923, Note_on_c, 0, 57, 0
1, 5923, Note_on_c, 0, 45, 0
1, 5928, Note_on_c, 0, 69, 84
1, 5928, Note_on_c, 0, 61, 84
1, 5928, Note_on_c, 0, 57, 84
1, 5928, Note_on_c, 0, 45, 84
1, 5951, Note_on_c, 0, 69, 0
1, 5951, Note_on_c, 0, 61, 0
1, 5951, Note_on_c, 0, 57, 0
1, 5951, Note_on_c, 0, 45, 0
1, 5952, Note_on_c, 0, 69, 84
1, 5952, Note_on_c, 0, 61, 84
1, 5952, Note_on_c, 0, 57, 84
1, 5952, Note_on_c, 0, 45, 84
1, 6041, Note_on_c, 0, 69, 0
1, 6041, Note_on_c, 0, 61, 0
1, 6041, Note_on_c, 0, 57, 0
1, 6041, Note_on_c, 0, 45, 0
1, 6144, Note_on_c, 0, 83, 77
1, 6144, Note_on_c, 0, 64, 69
1, 6144, Note_on_c, 0, 61, 69
1, 6150, Note_on_c, 0, 83, 0
1, 6150, Note_on_c, 0, 81, 77
1, 6167, Note_on_c, 0, 81, 0
1, 6168, Note_on_c, 0, 80, 77
1, 6189, Note_on_c, 0, 64, 0
1, 6189, Note_on_c, 0, 61, 0
1, 6191, Note_on_c, 0, 80, 0
1, 6192, Note_on_c, 0, 81, 77
1, 6192, Note_on_c, 0, 64, 69
1, 6192, Note_on_c, 0, 61, 69
1, 6215, Note_on_c, 0, 81, 0
1, 6216, Note_on_c, 0, 83, 77
1, 6237, Note_on_c, 0, 64, 0
1, 6237, Note_on_c, 0, 61, 0
1, 6239, Note_on_c, 0, 83, 0
1, 6240, Note_on_c, 0, 81, 77
1, 6240, Note_on_c, 0, 64, 69
1, 6240, Note_on_c, 0, 61, 69
1, 6285, Note_on_c, 0, 81, 0
1, 6285, Note_on_c, 0, 64, 0
1, 6285, Note_on_c, 0, 61, 0
1, 6288, Note_on_c, 0, 64, 69
1, 6288, Note_on_c, 0, 61, 69
1, 6333, Note_on_c, 0, 64, 0
1, 6333, Note_on_c, 0, 61, 0
1, 6336, Note_on_c, 0, 80, 77
1, 6336, Note_on_c, 0, 66, 69
1, 6336, Note_on_c, 0, 62, 69
1, 6342, Note_on_c, 0, 80, 0
1, 6342, Note_on_c, 0, 78, 77
1, 6359, Note_on_c, 0, 78, 0
1, 6360, Note_on_c, 0, 77, 77
1, 6381, Note_on_c, 0, 66, 0
1, 6381, Note_on_c, 0, 62, 0
1, 6383, Note_on_c, 0, 77, 0
1, 6384, Note_on_c, 0, 78, 77
1, 6384, Note_on_c, 0, 66, 69
1, 6384, Note_on_c, 0, 62, 69
1, 6407, Note_on_c, 0, 78, 0
1, 6408, Note_on_c, 0, 80, 77
1, 6429, Note_on_c, 0, 66, 0
1, 6429, Note_on_c, 0, 62, 0
1, 6431, Note_on_c, 0, 80, 0
1, 6432, Note_on_c, 0, 78, 77
1, 6432, Note_on_c, 0, 66, 69
1, 6432, Note_on_c, 0, 62, 69
1, 6477, Note_on_c, 0, 78, 0
1, 6477, Note_on_c, 0, 66, 0
1, 6477, Note_on_c, 0, 62, 0
1, 6480, Note_on_c, 0, 66, 69
1, 6480, Note_on_c, 0, 62, 69
1, 6525, Note_on_c, 0, 66, 0
1, 6525, Note_on_c, 0, 62, 0
1, 6528, Note_on_c, 0, 88, 77
1, 6528, Note_on_c, 0, 68, 69
1, 6528, Note_on_c, 0, 64, 69
1, 6534, Note_on_c, 0, 88, 0
1, 6534, Note_on_c, 0, 86, 77
1, 6551, Note_on_c, 0, 86, 0
1, 6552, Note_on_c, 0, 85, 77
1, 6573, Note_on_c, 0, 68, 0
1, 6573, Note_on_c, 0, 64, 0
1, 6575, Note_on_c, 0, 85, 0
1, 6576, Note_on_c, 0, 86, 77
1, 6576, Note_on_c, 0, 68, 69
1, 6576, Note_on_c, 0, 64, 69
1, 6599, Note_on_c, 0, 86, 0
1, 6600, Note_on_c, 0, 88, 77
1, 6621, Note_on_c, 0, 68, 0
1, 6621, Note_on_c, 0, 64, 0
1, 6623, Note_on_c, 0, 88, 0
1, 6624, Note_on_c, 0, 86, 77
1, 6624, Note_on_c, 0, 68, 69
1, 6624, Note_on_c, 0, 64, 69
1, 6669, Note_on_c, 0, 86, 0
1, 6669, Note_on_c, 0, 68, 0
1, 6669, Note_on_c, 0, 64, 0
1, 6672, Note_on_c, 0, 68, 69
1, 6672, Note_on_c, 0, 64, 69
1, 6717, Note_on_c, 0, 68, 0
1, 6717, Note_on_c, 0, 64, 0
1, 6720, Note_on_c, 0, 86, 77
1, 6720, Note_on_c, 0, 69, 69
1, 6720, Note_on_c, 0, 66, 69
1, 6726, Note_on_c, 0, 86, 0
1, 6726, Note_on_c, 0, 85, 77
1, 6743, Note_on_c, 0, 85, 0
1, 6744, Note_on_c, 0, 83, 77
1, 6765, Note_on_c, 0, 69, 0
1, 6765, Note_on_c, 0, 66, 0
1, 6767, Note_on_c, 0, 83, 0
1, 6768, Note_on_c, 0, 85, 77
1, 6768, Note_on_c, 0, 69, 70
1, 6768, Note_on_c, 0, 66, 70
1, 6791, Note_on_c, 0, 85, 0
1, 6792, Note_on_c, 0, 86, 77
1, 6813, Note_on_c, 0, 69, 0
1, 6813, Note_on_c, 0, 66, 0
1, 6815, Note_on_c, 0, 86, 0
1, 6816, Note_on_c, 0, 85, 77
1, 6816, Note_on_c, 0, 69, 71
1, 6816, Note_on_c, 0, 66, 71
1, 6861, Note_on_c, 0, 85, 0
1, 6861, Note_on_c, 0, 69, 0
1, 6861, Note_on_c, 0, 66, 0
1, 6864, Note_on_c, 0, 69, 72
1, 6864, Note_on_c, 0, 66, 72
1, 6909, Note_on_c, 0, 69, 0
1, 6909, Note_on_c, 0, 66, 0
1, 6912, Note_on_c, 0, 85, 77
1, 6912, Note_on_c, 0, 66, 73
1, 6912, Note_on_c, 0, 62, 73
1, 6918, Note_on_c, 0, 85, 0
1, 6918, Note_on_c, 0, 83, 77
1, 6935, Note_on_c, 0, 83, 0
1, 6936, Note_on_c, 0, 82, 77
1, 6957, Note_on_c, 0, 66, 0
1, 6957, Note_on_c, 0, 62, 0
1, 6959, Note_on_c, 0, 82, 0
1, 6960, Note_on_c, 0, 83, 77
1, 6960, Note_on_c, 0, 66, 74
1, 6960, Note_on_c, 0, 62, 74
1, 6983, Note_on_c, 0, 83, 0
1, 6984, Note_on_c, 0, 85, 77
1, 7005, Note_on_c, 0, 66, 0
1, 7005, Note_on_c, 0, 62, 0
1, 7007, Note_on_c, 0, 85, 0
1, 7008, Note_on_c, 0, 83, 77
1, 7008, Note_on_c, 0, 66, 75
1, 7008, Note_on_c, 0, 62, 75
1, 7053, Note_on_c, 0, 83, 0
1, 7053, Note_on_c, 0, 66, 0
1, 7053, Note_on_c, 0, 62, 0
1, 7056, Note_on_c, 0, 66, 76
1, 7056, Note_on_c, 0, 62, 76
1, 7101, Note_on_c, 0, 66, 0
1, 7101, Note_on_c, 0, 62, 0
1, 7104, Note_on_c, 0, 74, 77
1, 7104, Note_on_c, 0, 71, 77
1, 7104, Note_on_c, 0, 66, 77
1, 7104, Note_on_c, 0, 62, 77
1, 7149, Note_on_c, 0, 74, 0
1, 7149, Note_on_c, 0, 71, 0
1, 7152, Note_on_c, 0, 86, 77
1, 7152, Note_on_c, 0, 83, 77
1, 7193, Note_on_c, 0, 66, 0
1, 7193, Note_on_c, 0, 62, 0
1, 7197, Note_on_c, 0, 86, 0
1, 7197, Note_on_c, 0, 83, 0
1, 7200, Note_on_c, 0, 86, 77
1, 7200, Note_on_c, 0, 83, 77
1, 7245, Note_on_c, 0, 86, 0
1, 7245, Note_on_c, 0, 83, 0
1, 7248, Note_on_c, 0, 85, 77
1, 7248, Note_on_c, 0, 82, 77
1, 7293, Note_on_c, 0, 85, 0
1, 7293, Note_on_c, 0, 82, 0
1, 7296, Note_on_c, 0, 85, 77
1, 7296, Note_on_c, 0, 54, 77
1, 7296, Note_on_c, 0, 50, 77
1, 7302, Note_on_c, 0, 85, 0
1, 7302, Note_on_c, 0, 83, 77
1, 7319, Note_on_c, 0, 83, 0
1, 7320, Note_on_c, 0, 82, 77
1, 7341, Note_on_c, 0, 54, 0
1, 7341, Note_on_c, 0, 50, 0
1, 7343, Note_on_c, 0, 82, 0
1, 7344, Note_on_c, 0, 83, 77
1, 7344, Note_on_c, 0, 66, 77
1, 7344, Note_on_c, 0, 62, 77
1, 7367, Note_on_c, 0, 83, 0
1, 7368, Note_on_c, 0, 85, 77
1, 7389, Note_on_c, 0, 66, 0
1, 7389, Note_on_c, 0, 62, 0
1, 7391, Note_on_c, 0, 85, 0
1, 7392, Note_on_c, 0, 83, 77
1, 7392, Note_on_c, 0, 66, 77
1, 7392, Note_on_c, 0, 62, 77
1, 7437, Note_on_c, 0, 83, 0
1, 7437, Note_on_c, 0, 66, 0
1, 7437, Note_on_c, 0, 62, 0
1, 7440, Note_on_c, 0, 64, 77
1, 7440, Note_on_c, 0, 61, 77
1, 7485, Note_on_c, 0, 64, 0
1, 7485, Note_on_c, 0, 61, 0
1, 7488, Note_on_c, 0, 74, 77
1, 7488, Note_on_c, 0, 71, 77
1, 7488, Note_on_c, 0, 66, 77
1, 7488, Note_on_c, 0, 62, 77
1, 7533, Note_on_c, 0, 74, 0
1, 7533, Note_on_c, 0, 71, 0
1, 7536, Note_on_c, 0, 86, 77
1, 7536, Note_on_c, 0, 83, 77
1, 7577, Note_on_c, 0, 66, 0
1, 7577, Note_on_c, 0, 62, 0
1, 7581, Note_on_c, 0, 86, 0
1, 7581, Note_on_c, 0, 83, 0
1, 7584, Note_on_c, 0, 86, 77
1, 7584, Note_on_c, 0, 83, 77
1, 7629, Note_on_c, 0, 86, 0
1, 7629, Note_on_c, 0, 83, 0
1, 7632, Note_on_c, 0, 85, 77
1, 7632, Note_on_c, 0, 82, 77
1, 7677, Note_on_c, 0, 85, 0
1, 7677, Note_on_c, 0, 82, 0
1, 7680, Note_on_c, 0, 85, 77
1, 7680, Note_on_c, 0, 54, 77
1, 7680, Note_on_c, 0, 50, 77
1, 7686, Note_on_c, 0, 85, 0
1, 7686, Note_on_c, 0, 83, 77
1, 7703, Note_on_c, 0, 83, 0
1, 7704, Note_on_c, 0, 82, 77
1, 7725, Note_on_c, 0, 54, 0
1, 7725, Note_on_c, 0, 50, 0
1, 7727, Note_on_c, 0, 82, 0
1, 7728, Note_on_c, 0, 83, 78
1, 7728, Note_on_c, 0, 66, 77
1, 7728, Note_on_c, 0, 62, 77
1, 7751, Note_on_c, 0, 83, 0
1, 7752, Note_on_c, 0, 85, 78
1, 7773, Note_on_c, 0, 66, 0
1, 7773, Note_on_c, 0, 62, 0
1, 7775, Note_on_c, 0, 85, 0
1, 7776, Note_on_c, 0, 83, 79
1, 7776, Note_on_c, 0, 66, 78
1, 7776, Note_on_c, 0, 62, 78
1, 7821, Note_on_c, 0, 83, 0
1, 7821, Note_on_c, 0, 66, 0
1, 7821, Note_on_c, 0, 62, 0
1, 7824, Note_on_c, 0, 66, 79
1, 7824, Note_on_c, 0, 62, 79
1, 7869, Note_on_c, 0, 66, 0
1, 7869, Note_on_c, 0, 62, 0
1, 7872, Note_on_c, 0, 83, 81
1, 7872, Note_on_c, 0, 66, 80
1, 7872, Note_on_c, 0, 63, 80
1, 7878, Note_on_c, 0, 83, 0
1, 7878, Note_on_c, 0, 81, 81
1, 7895, Note_on_c, 0, 81, 0
1, 7896, Note_on_c, 0, 80, 81
1, 7917, Note_on_c, 0, 66, 0
1, 7917, Note_on_c, 0, 63, 0
1, 7919, Note_on_c, 0, 80, 0
1, 7920, Note_on_c, 0, 81, 82
1, 7920, Note_on_c, 0, 66, 81
1, 7920, Note_on_c, 0, 63, 81
1, 7943, Note_on_c, 0, 81, 0
1, 7944, Note_on_c, 0, 83, 82
1, 7965, Note_on_c, 0, 66, 0
1, 7965, Note_on_c, 0, 63, 0
1, 7967, Note_on_c, 0, 83, 0
1, 7968, Note_on_c, 0, 81, 83
1, 7968, Note_on_c, 0, 66, 82
1, 7968, Note_on_c, 0, 63, 82
1, 8013, Note_on_c, 0, 81, 0
1, 8013, Note_on_c, 0, 66, 0
1, 8013, Note_on_c, 0, 63, 0
1, 8016, Note_on_c, 0, 66, 83
1, 8016, Note_on_c, 0, 63, 83
1, 8061, Note_on_c, 0, 66, 0
1, 8061, Note_on_c, 0, 63, 0
1, 8064, Note_on_c, 0, 88, 100
1, 8064, Note_on_c, 0, 52, 84
1, 8087, Note_on_c, 0, 52, 0
1, 8088, Note_on_c, 0, 56, 84
1, 8111, Note_on_c, 0, 56, 0
1, 8112, Note_on_c, 0, 88, 0
1, 8112, Note_on_c, 0, 76, 84
1, 8112, Note_on_c, 0, 54, 84
1, 8135, Note_on_c, 0, 54, 0
1, 8136, Note_on_c, 0, 57, 84
1, 8157, Note_on_c, 0, 76, 0
1, 8159, Note_on_c, 0, 57, 0
1, 8160, Note_on_c, 0, 76, 84
1, 8160, Note_on_c, 0, 56, 84
1, 8183, Note_on_c, 0, 56, 0
1, 8184, Note_on_c, 0, 59, 84
1, 8205, Note_on_c, 0, 76, 0
1, 8207, Note_on_c, 0, 59, 0
1, 8208, Note_on_c, 0, 76, 84
1, 8208, Note_on_c, 0, 57, 84
1, 8231, Note_on_c, 0, 57, 0
1, 8232, Note_on_c, 0, 61, 84
1, 8253, Note_on_c, 0, 76, 0
1, 8255, Note_on_c, 0, 61, 0
1, 8256, Note_on_c, 0, 76, 84
1, 8256, Note_on_c, 0, 59, 84
1, 8279, Note_on_c, 0, 76, 0
1, 8280, Note_on_c, 0, 78, 84
1, 8303, Note_on_c, 0, 78, 0
1, 8304, Note_on_c, 0, 76, 84
1, 8327, Note_on_c, 0, 76, 0
1, 8328, Note_on_c, 0, 74, 84
1, 8351, Note_on_c, 0, 74, 0
1, 8352, Note_on_c, 0, 73, 84
1, 8352, Note_on_c, 0, 62, 77
1, 8375, Note_on_c, 0, 73, 0
1, 8376, Note_on_c, 0, 71, 84
1, 8399, Note_on_c, 0, 71, 0
1, 8400, Note_on_c, 0, 69, 84
1, 8423, Note_on_c, 0, 69, 0
1, 8424, Note_on_c, 0, 68, 84
1, 8433, Note_on_c, 0, 59, 0
1, 8441, Note_on_c, 0, 62, 0
1, 8447, Note_on_c, 0, 68, 0
1, 8448, Note_on_c, 0, 69, 84
1, 8448, Note_on_c, 0, 61, 77
1, 8448, Note_on_c, 0, 61, 84
1, 8471, Note_on_c, 0, 69, 0
1, 8472, Note_on_c, 0, 73, 84
1, 8495, Note_on_c, 0, 73, 0
1, 8496, Note_on_c, 0, 71, 84
1, 8519, Note_on_c, 0, 71, 0
1, 8520, Note_on_c, 0, 74, 84
1, 8537, Note_on_c, 0, 61, 0
1, 8537, Note_on_c, 0, 61, 0
1, 8543, Note_on_c, 0, 74, 0
1, 8544, Note_on_c, 0, 73, 84
1, 8567, Note_on_c, 0, 73, 0
1, 8568, Note_on_c, 0, 76, 84
1, 8591, Note_on_c, 0, 76, 0
1, 8592, Note_on_c, 0, 74, 84
1, 8615, Note_on_c, 0, 74, 0
1, 8616, Note_on_c, 0, 78, 84
1, 8639, Note_on_c, 0, 78, 0
1, 8640, Note_on_c, 0, 76, 84
1, 8685, Note_on_c, 0, 76, 0
1, 8688, Note_on_c, 0, 78, 84
1, 8711, Note_on_c, 0, 78, 0
1, 8712, Note_on_c, 0, 80, 84
1, 8735, Note_on_c, 0, 80, 0
1, 8736, Note_on_c, 0, 81, 84
1, 8759, Note_on_c, 0, 81, 0
1, 8760, Note_on_c, 0, 83, 84
1, 8783, Note_on_c, 0, 83, 0
1, 8784, Note_on_c, 0, 85, 84
1, 8807, Note_on_c, 0, 85, 0
1, 8808, Note_on_c, 0, 86, 84
1, 8831, Note_on_c, 0, 86, 0
1, 8832, Note_on_c, 0, 88, 100
1, 8832, Note_on_c, 0, 52, 84
1, 8855, Note_on_c, 0, 52, 0
1, 8856, Note_on_c, 0, 56, 84
1, 8879, Note_on_c, 0, 56, 0
1, 8880, Note_on_c, 0, 88, 0
1, 8880, Note_on_c, 0, 76, 84
1, 8880, Note_on_c, 0, 54, 84
1, 8903, Note_on_c, 0, 54, 0
1, 8904, Note_on_c, 0, 57, 84
1, 8925, Note_on_c, 0, 76, 0
1, 8927, Note_on_c, 0, 57, 0
1, 8928, Note_on_c, 0, 76, 84
1, 8928, Note_on_c, 0, 56, 84
1, 8951, Note_on_c, 0, 56, 0
1, 8952, Note_on_c, 0, 59, 84
1, 8973, Note_on_c, 0, 76, 0
1, 8975, Note_on_c, 0, 59, 0
1, 8976, Note_on_c, 0, 76, 84
1, 8976, Note_on_c, 0, 57, 84
1, 8999, Note_on_c, 0, 57, 0
1, 9000, Note_on_c, 0, 61, 84
1, 9021, Note_on_c, 0, 76, 0
1, 9023, Note_on_c, 0, 61, 0
1, 9024, Note_on_c, 0, 76, 84
1, 9024, Note_on_c, 0, 59, 84
1, 9047, Note_on_c, 0, 76, 0
1, 9048, Note_on_c, 0, 78, 84
1, 9071, Note_on_c, 0, 78, 0
1, 9072, Note_on_c, 0, 76, 84
1, 9095, Note_on_c, 0, 76, 0
1, 9096, Note_on_c, 0, 74, 84
1, 9119, Note_on_c, 0, 74, 0
1, 9120, Note_on_c, 0, 73, 84
1, 9120, Note_on_c, 0, 62, 77
1, 9143, Note_on_c, 0, 73, 0
1, 9144, Note_on_c, 0, 71, 84
1, 9167, Note_on_c, 0, 71, 0
1, 9168, Note_on_c, 0, 69, 84
1, 9191, Note_on_c, 0, 69, 0
1, 9192, Note_on_c, 0, 68, 84
1, 9201, Note_on_c, 0, 59, 0
1, 9209, Note_on_c, 0, 62, 0
1, 9215, Note_on_c, 0, 68, 0
1, 9216, Note_on_c, 0, 69, 84
1, 9216, Note_on_c, 0, 61, 77
1, 9216, Note_on_c, 0, 61, 84
1, 9239, Note_on_c, 0, 69, 0
1, 9240, Note_on_c, 0, 73, 84
1, 9263, Note_on_c, 0, 73, 0
1, 9264, Note_on_c, 0, 71, 84
1, 9287, Note_on_c, 0, 71, 0
1, 9288, Note_on_c, 0, 74, 84
1, 9305, Note_on_c, 0, 61, 0
1, 9305, Note_on_c, 0, 61, 0
1, 9311, Note_on_c, 0, 74, 0
1, 9312, Note_on_c, 0, 73, 84
1, 9335, Note_on_c, 0, 73, 0
1, 9336, Note_on_c, 0, 76, 84
1, 9359, Note_on_c, 0, 76, 0
1, 9360, Note_on_c, 0, 74, 84
1, 9383, Note_on_c, 0, 74, 0
1, 9384, Note_on_c, 0, 78, 84
1, 9407, Note_on_c, 0, 78, 0
1, 9408, Note_on_c, 0, 76, 84
1, 9453, Note_on_c, 0, 76, 0
1, 9456, Note_on_c, 0, 78, 84
1, 9479, Note_on_c, 0, 78, 0
1, 9480, Note_on_c, 0, 80, 84
1, 9503, Note_on_c, 0, 80, 0
1, 9504, Note_on_c, 0, 81, 84
1, 9527, Note_on_c, 0, 81, 0
1, 9528, Note_on_c, 0, 83, 84
1, 9551, Note_on_c, 0, 83, 0
1, 9552, Note_on_c, 0, 85, 84
1, 9575, Note_on_c, 0, 85, 0
1, 9576, Note_on_c, 0, 86, 84
1, 9599, Note_on_c, 0, 86, 0
1, 9600, Note_on_c, 0, 88, 100
1, 9600, Note_on_c, 0, 50, 84
1, 9623, Note_on_c, 0, 50, 0
1, 9624, Note_on_c, 0, 88, 0
1, 9624, Note_on_c, 0, 78, 84
1, 9624, Note_on_c, 0, 62, 84
1, 9647, Note_on_c, 0, 78, 0
1, 9647, Note_on_c, 0, 62, 0
1, 9648, Note_on_c, 0, 77, 84
1, 9648, Note_on_c, 0, 61, 84
1, 9671, Note_on_c, 0, 77, 0
1, 9671, Note_on_c, 0, 61, 0
1, 9672, Note_on_c, 0, 78, 84
1, 9672, Note_on_c, 0, 62, 84
1, 9695, Note_on_c, 0, 78, 0
1, 9695, Note_on_c, 0, 62, 0
1, 9696, Note_on_c, 0, 77, 84
1, 9696, Note_on_c, 0, 61, 84
1, 9719, Note_on_c, 0, 77, 0
1, 9719, Note_on_c, 0, 61, 0
1, 9720, Note_on_c, 0, 78, 84
1, 9720, Note_on_c, 0, 62, 84
1, 9743, Note_on_c, 0, 78, 0
1, 9743, Note_on_c, 0, 62, 0
1, 9744, Note_on_c, 0, 77, 84
1, 9744, Note_on_c, 0, 61, 84
1, 9767, Note_on_c, 0, 77, 0
1, 9767, Note_on_c, 0, 61, 0
1, 9768, Note_on_c, 0, 78, 84
1, 9768, Note_on_c, 0, 62, 84
1, 9791, Note_on_c, 0, 78, 0
1, 9791, Note_on_c, 0, 62, 0
1, 9792, Note_on_c, 0, 86, 100
1, 9792, Note_on_c, 0, 59, 84
1, 9815, Note_on_c, 0, 59, 0
1, 9816, Note_on_c, 0, 86, 0
1, 9816, Note_on_c, 0, 74, 84
1, 9816, Note_on_c, 0, 71, 84
1, 9839, Note_on_c, 0, 74, 0
1, 9839, Note_on_c, 0, 71, 0
1, 9840, Note_on_c, 0, 73, 84
1, 9840, Note_on_c, 0, 70, 84
1, 9863, Note_on_c, 0, 73, 0
1, 9863, Note_on_c, 0, 70, 0
1, 9864, Note_on_c, 0, 74, 84
1, 9864, Note_on_c, 0, 71, 84
1, 9887, Note_on_c, 0, 74, 0
1, 9887, Note_on_c, 0, 71, 0
1, 9888, Note_on_c, 0, 73, 84
1, 9888, Note_on_c, 0, 70, 84
1, 9911, Note_on_c, 0, 73, 0
1, 9911, Note_on_c, 0, 70, 0
1, 9912, Note_on_c, 0, 74, 84
1, 9912, Note_on_c, 0, 71, 84
1, 9935, Note_on_c, 0, 74, 0
1, 9935, Note_on_c, 0, 71, 0
1, 9936, Note_on_c, 0, 73, 84
1, 9936, Note_on_c, 0, 70, 84
1, 9959, Note_on_c, 0, 73, 0
1, 9959, Note_on_c, 0, 70, 0
1, 9960, Note_on_c, 0, 74, 84
1, 9960, Note_on_c, 0, 71, 84
1, 9983, Note_on_c, 0, 74, 0
1, 9983, Note_on_c, 0, 71, 0
1, 9984, Note_on_c, 0, 86, 100
1, 9984, Note_on_c, 0, 64, 84
1, 10007, Note_on_c, 0, 64, 0
1, 10008, Note_on_c, 0, 86, 0
1, 10008, Note_on_c, 0, 83, 84
1, 10008, Note_on_c, 0, 68, 84
1, 10031, Note_on_c, 0, 83, 0
1, 10031, Note_on_c, 0, 68, 0
1, 10032, Note_on_c, 0, 82, 84
1, 10032, Note_on_c, 0, 66, 84
1, 10055, Note_on_c, 0, 82, 0
1, 10055, Note_on_c, 0, 66, 0
1, 10056, Note_on_c, 0, 83, 84
1, 10056, Note_on_c, 0, 68, 84
1, 10079, Note_on_c, 0, 83, 0
1, 10079, Note_on_c, 0, 68, 0
1, 10080, Note_on_c, 0, 82, 84
1, 10080, Note_on_c, 0, 66, 84
1, 10103, Note_on_c, 0, 82, 0
1, 10103, Note_on_c, 0, 66, 0
1, 10104, Note_on_c, 0, 83, 84
1, 10104, Note_on_c, 0, 68, 84
1, 10127, Note_on_c, 0, 83, 0
1, 10127, Note_on_c, 0, 68, 0
1, 10128, Note_on_c, 0, 82, 84
1, 10128, Note_on_c, 0, 66, 84
1, 10151, Note_on_c, 0, 82, 0
1, 10151, Note_on_c, 0, 66, 0
1, 10152, Note_on_c, 0, 83, 84
1, 10152, Note_on_c, 0, 68, 84
1, 10175, Note_on_c, 0, 83, 0
1, 10175, Note_on_c, 0, 68, 0
1, 10176, Note_on_c, 0, 85, 100
1, 10176, Note_on_c, 0, 69, 84
1, 10199, Note_on_c, 0, 69, 0
1, 10200, Note_on_c, 0, 85, 0
1, 10200, Note_on_c, 0, 81, 84
1, 10200, Note_on_c, 0, 73, 84
1, 10223, Note_on_c, 0, 81, 0
1, 10223, Note_on_c, 0, 73, 0
1, 10224, Note_on_c, 0, 80, 84
1, 10224, Note_on_c, 0, 71, 84
1, 10247, Note_on_c, 0, 80, 0
1, 10247, Note_on_c, 0, 71, 0
1, 10248, Note_on_c, 0, 81, 84
1, 10248, Note_on_c, 0, 73, 84
1, 10271, Note_on_c, 0, 81, 0
1, 10271, Note_on_c, 0, 73, 0
1, 10272, Note_on_c, 0, 80, 84
1, 10272, Note_on_c, 0, 71, 84
1, 10295, Note_on_c, 0, 80, 0
1, 10295, Note_on_c, 0, 71, 0
1, 10296, Note_on_c, 0, 81, 84
1, 10296, Note_on_c, 0, 73, 84
1, 10319, Note_on_c, 0, 81, 0
1, 10319, Note_on_c, 0, 73, 0
1, 10320, Note_on_c, 0, 80, 84
1, 10320, Note_on_c, 0, 71, 84
1, 10343, Note_on_c, 0, 80, 0
1, 10343, Note_on_c, 0, 71, 0
1, 10344, Note_on_c, 0, 81, 84
1, 10344, Note_on_c, 0, 73, 84
1, 10367, Note_on_c, 0, 81, 0
1, 10367, Note_on_c, 0, 73, 0
1, 10368, Note_on_c, 0, 86, 100
1, 10368, Note_on_c, 0, 64, 77
1, 10392, Note_on_c, 0, 86, 0
1, 10392, Note_on_c, 0, 83, 84
1, 10415, Note_on_c, 0, 83, 0
1, 10416, Note_on_c, 0, 82, 84
1, 10416, Note_on_c, 0, 68, 77
1, 10439, Note_on_c, 0, 82, 0
1, 10440, Note_on_c, 0, 83, 84
1, 10461, Note_on_c, 0, 68, 0
1, 10463, Note_on_c, 0, 83, 0
1, 10464, Note_on_c, 0, 85, 100
1, 10464, Note_on_c, 0, 69, 77
1, 10488, Note_on_c, 0, 85, 0
1, 10488, Note_on_c, 0, 81, 84
1, 10509, Note_on_c, 0, 69, 0
1, 10511, Note_on_c, 0, 81, 0
1, 10512, Note_on_c, 0, 80, 84
1, 10512, Note_on_c, 0, 73, 77
1, 10535, Note_on_c, 0, 80, 0
1, 10536, Note_on_c, 0, 81, 84
1, 10545, Note_on_c, 0, 64, 0
1, 10557, Note_on_c, 0, 73, 0
1, 10559, Note_on_c, 0, 81, 0
1, 10560, Note_on_c, 0, 86, 100
1, 10560, Note_on_c, 0, 64, 77
1, 10584, Note_on_c, 0, 86, 0
1, 10584, Note_on_c, 0, 83, 84
1, 10607, Note_on_c, 0, 83, 0
1, 10608, Note_on_c, 0, 82, 84
1, 10608, Note_on_c, 0, 68, 77
1, 10631, Note_on_c, 0, 82, 0
1, 10632, Note_on_c, 0, 83, 84
1, 10653, Note_on_c, 0, 68, 0
1, 10655, Note_on_c, 0, 83, 0
1, 10656, Note_on_c, 0, 85, 100
1, 10656, Note_on_c, 0, 69, 77
1, 10680, Note_on_c, 0, 85, 0
1, 10680, Note_on_c, 0, 81, 84
1, 10701, Note_on_c, 0, 69, 0
1, 10703, Note_on_c, 0, 81, 0
1, 10704, Note_on_c, 0, 80, 84
1, 10704, Note_on_c, 0, 73, 77
1, 10727, Note_on_c, 0, 80, 0
1, 10728, Note_on_c, 0, 81, 84
1, 10737, Note_on_c, 0, 64, 0
1, 10749, Note_on_c, 0, 73, 0
1, 10751, Note_on_c, 0, 81, 0
1, 10752, Note_on_c, 0, 86, 93
1, 10752, Note_on_c, 0, 64, 69
1, 10776, Note_on_c, 0, 86, 0
1, 10776, Note_on_c, 0, 83, 77
1, 10799, Note_on_c, 0, 83, 0
1, 10800, Note_on_c, 0, 82, 77
1, 10800, Note_on_c, 0, 68, 69
1, 10823, Note_on_c, 0, 82, 0
1, 10824, Note_on_c, 0, 83, 77
1, 10845, Note_on_c, 0, 68, 0
1, 10847, Note_on_c, 0, 83, 0
1, 10848, Note_on_c, 0, 84, 93
1, 10848, Note_on_c, 0, 69, 69
1, 10872, Note_on_c, 0, 84, 0
1, 10872, Note_on_c, 0, 81, 77
1, 10893, Note_on_c, 0, 69, 0
1, 10895, Note_on_c, 0, 81, 0
1, 10896, Note_on_c, 0, 80, 77
1, 10896, Note_on_c, 0, 72, 69
1, 10919, Note_on_c, 0, 80, 0
1, 10920, Note_on_c, 0, 81, 77
1, 10929, Note_on_c, 0, 64, 0
1, 10941, Note_on_c, 0, 72, 0
1, 10943, Note_on_c, 0, 81, 0
1, 10944, Note_on_c, 0, 86, 93
1, 10944, Note_on_c, 0, 64, 69
1, 10968, Note_on_c, 0, 86, 0
1, 10968, Note_on_c, 0, 83, 77
1, 10991, Note_on_c, 0, 83, 0
1, 10992, Note_on_c, 0, 82, 77
1, 10992, Note_on_c, 0, 68, 69
1, 11015, Note_on_c, 0, 82, 0
1, 11016, Note_on_c, 0, 83, 77
1, 11037, Note_on_c, 0, 68, 0
1, 11039, Note_on_c, 0, 83, 0
1, 11040, Note_on_c, 0, 84, 93
1, 11040, Note_on_c, 0, 69, 69
1, 11064, Note_on_c, 0, 84, 0
1, 11064, Note_on_c, 0, 81, 77
1, 11085, Note_on_c, 0, 69, 0
1, 11087, Note_on_c, 0, 81, 0
1, 11088, Note_on_c, 0, 80, 77
1, 11088, Note_on_c, 0, 72, 69
1, 11111, Note_on_c, 0, 80, 0
1, 11112, Note_on_c, 0, 81, 77
1, 11121, Note_on_c, 0, 64, 0
1, 11133, Note_on_c, 0, 72, 0
1, 11135, Note_on_c, 0, 81, 0
1, 11136, Note_on_c, 0, 70, 91
1, 11136, Note_on_c, 0, 65, 91
1, 11136, Note_on_c, 0, 62, 91
1, 11160, Note_on_c, 0, 89, 107
1, 11184, Note_on_c, 0, 89, 0
1, 11184, Note_on_c, 0, 86, 91
1, 11207, Note_on_c, 0, 86, 0
1, 11208, Note_on_c, 0, 89, 91
1, 11231, Note_on_c, 0, 89, 0
1, 11232, Note_on_c, 0, 82, 91
1, 11255, Note_on_c, 0, 82, 0
1, 11256, Note_on_c, 0, 86, 91
1, 11279, Note_on_c, 0, 86, 0
1, 11280, Note_on_c, 0, 77, 91
1, 11303, Note_on_c, 0, 77, 0
1, 11304, Note_on_c, 0, 82, 91
1, 11313, Note_on_c, 0, 70, 0
1, 11313, Note_on_c, 0, 65, 0
1, 11313, Note_on_c, 0, 62, 0
1, 11327, Note_on_c, 0, 82, 0
1, 11328, Note_on_c, 0, 74, 91
1, 11352, Note_on_c, 0, 58, 91
1, 11373, Note_on_c, 0, 74, 0
1, 11375, Note_on_c, 0, 58, 0
1, 11376, Note_on_c, 0, 62, 91
1, 11399, Note_on_c, 0, 62, 0
1, 11400, Note_on_c, 0, 65, 91
1, 11423, Note_on_c, 0, 65, 0
1, 11424, Note_on_c, 0, 70, 91
1, 11448, Note_on_c, 0, 74, 91
1, 11469, Note_on_c, 0, 70, 0
1, 11471, Note_on_c, 0, 74, 0
1, 11472, Note_on_c, 0, 77, 91
1, 11495, Note_on_c, 0, 77, 0
1, 11496, Note_on_c, 0, 82, 91
1, 11519, Note_on_c, 0, 82, 0
1, 11520, Note_on_c, 0, 86, 91
1, 11543, Note_on_c, 0, 86, 0
1, 11544, Note_on_c, 0, 77, 91
1, 11567, Note_on_c, 0, 77, 0
1, 11568, Note_on_c, 0, 82, 91
1, 11591, Note_on_c, 0, 82, 0
1, 11592, Note_on_c, 0, 86, 91
1, 11615, Note_on_c, 0, 86, 0
1, 11616, Note_on_c, 0, 89, 91
1, 11639, Note_on_c, 0, 89, 0
1, 11640, Note_on_c, 0, 77, 91
1, 11663, Note_on_c, 0, 77, 0
1, 11664, Note_on_c, 0, 82, 91
1, 11687, Note_on_c, 0, 82, 0
1, 11688, Note_on_c, 0, 86, 91
1, 11711, Note_on_c, 0, 86, 0
1, 11712, Note_on_c, 0, 89, 91
1, 11757, Note_on_c, 0, 89, 0
1, 11904, Note_on_c, 0, 63, 91
1, 11904, Note_on_c, 0, 51, 91
1, 11928, Note_on_c, 0, 84, 91
1, 11951, Note_on_c, 0, 84, 0
1, 11952, Note_on_c, 0, 81, 91
1, 11975, Note_on_c, 0, 81, 0
1, 11976, Note_on_c, 0, 84, 91
1, 11993, Note_on_c, 0, 63, 0
1, 11993, Note_on_c, 0, 51, 0
1, 11999, Note_on_c, 0, 84, 0
1, 12000, Note_on_c, 0, 78, 91
1, 12000, Note_on_c, 0, 66, 91
1, 12000, Note_on_c, 0, 54, 91
1, 12023, Note_on_c, 0, 78, 0
1, 12024, Note_on_c, 0, 81, 91
1, 12045, Note_on_c, 0, 66, 0
1, 12045, Note_on_c, 0, 54, 0
1, 12047, Note_on_c, 0, 81, 0
1, 12048, Note_on_c, 0, 75, 91
1, 12048, Note_on_c, 0, 63, 91
1, 12048, Note_on_c, 0, 51, 91
1, 12071, Note_on_c, 0, 75, 0
1, 12072, Note_on_c, 0, 78, 91
1, 12093, Note_on_c, 0, 63, 0
1, 12093, Note_on_c, 0, 51, 0
1, 12095, Note_on_c, 0, 78, 0
1, 12096, Note_on_c, 0, 72, 91
1, 12096, Note_on_c, 0, 60, 91
1, 12096, Note_on_c, 0, 48, 91
1, 12119, Note_on_c, 0, 72, 0
1, 12120, Note_on_c, 0, 75, 91
1, 12141, Note_on_c, 0, 60, 0
1, 12141, Note_on_c, 0, 48, 0
1, 12143, Note_on_c, 0, 75, 0
1, 12144, Note_on_c, 0, 69, 91
1, 12144, Note_on_c, 0, 57, 91
1, 12144, Note_on_c, 0, 45, 91
1, 12167, Note_on_c, 0, 69, 0
1, 12168, Note_on_c, 0, 72, 91
1, 12189, Note_on_c, 0, 57, 0
1, 12189, Note_on_c, 0, 45, 0
1, 12191, Note_on_c, 0, 72, 0
1, 12192, Note_on_c, 0, 66, 91
1, 12192, Note_on_c, 0, 54, 91
1, 12192, Note_on_c, 0, 42, 91
1, 12215, Note_on_c, 0, 66, 0
1, 12216, Note_on_c, 0, 69, 91
1, 12237, Note_on_c, 0, 54, 0
1, 12237, Note_on_c, 0, 42, 0
1, 12239, Note_on_c, 0, 69, 0
1, 12240, Note_on_c, 0, 63, 91
1, 12240, Note_on_c, 0, 51, 91
1, 12240, Note_on_c, 0, 39, 91
1, 12263, Note_on_c, 0, 63, 0
1, 12264, Note_on_c, 0, 66, 91
1, 12285, Note_on_c, 0, 51, 0
1, 12285, Note_on_c, 0, 39, 0
1, 12287, Note_on_c, 0, 66, 0
1, 12288, Note_on_c, 0, 52, 91
1, 12288, Note_on_c, 0, 40, 91
1, 12336, Note_on_c, 0, 64, 84
1, 12356, Note_on_c, 0, 64, 0
1, 12384, Note_on_c, 0, 69, 84
1, 12404, Note_on_c, 0, 69, 0
1, 12432, Note_on_c, 0, 73, 84
1, 12452, Note_on_c, 0, 73, 0
1, 12465, Note_on_c, 0, 52, 0
1, 12465, Note_on_c, 0, 40, 0
1, 12480, Note_on_c, 0, 76, 84
1, 12500, Note_on_c, 0, 76, 0
1, 12528, Note_on_c, 0, 81, 84
1, 12548, Note_on_c, 0, 81, 0
1, 12576, Note_on_c, 0, 85, 84
1, 12596, Note_on_c, 0, 85, 0
1, 12624, Note_on_c, 0, 88, 84
1, 12644, Note_on_c, 0, 88, 0
1, 12672, Note_on_c, 0, 52, 84
1, 12692, Note_on_c, 0, 52, 0
1, 12720, Note_on_c, 0, 56, 84
1, 12740, Note_on_c, 0, 56, 0
1, 12768, Note_on_c, 0, 59, 84
1, 12788, Note_on_c, 0, 59, 0
1, 12816, Note_on_c, 0, 62, 84
1, 12836, Note_on_c, 0, 62, 0
1, 12864, Note_on_c, 0, 83, 84
1, 12864, Note_on_c, 0, 74, 84
1, 12864, Note_on_c, 0, 71, 84
1, 12864, Note_on_c, 0, 68, 84
1, 12864, Note_on_c, 0, 64, 84
1, 12882, Note_on_c, 0, 83, 0
1, 12882, Note_on_c, 0, 85, 84
1, 12900, Note_on_c, 0, 85, 0
1, 12900, Note_on_c, 0, 83, 84
1, 12918, Note_on_c, 0, 83, 0
1, 12918, Note_on_c, 0, 85, 84
1, 12936, Note_on_c, 0, 85, 0
1, 12936, Note_on_c, 0, 83, 84
1, 12954, Note_on_c, 0, 83, 0
1, 12954, Note_on_c, 0, 85, 84
1, 12972, Note_on_c, 0, 85, 0
1, 12972, Note_on_c, 0, 83, 84
1, 12990, Note_on_c, 0, 83, 0
1, 12990, Note_on_c, 0, 85, 84
1, 12997, Note_on_c, 0, 85, 0
1, 13008, Note_on_c, 0, 81, 84
1, 13031, Note_on_c, 0, 81, 0
1, 13032, Note_on_c, 0, 83, 84
1, 13041, Note_on_c, 0, 74, 0
1, 13041, Note_on_c, 0, 71, 0
1, 13041, Note_on_c, 0, 68, 0
1, 13041, Note_on_c, 0, 64, 0
1, 13055, Note_on_c, 0, 83, 0
1, 13056, Note_on_c, 0, 81, 84
1, 13056, Note_on_c, 0, 73, 84
1, 13056, Note_on_c, 0, 69, 84
1, 13101, Note_on_c, 0, 81, 0
1, 13145, Note_on_c, 0, 73, 0
1, 13145, Note_on_c, 0, 69, 0
1, 13152, Note_on_c, 0, 81, 84
1, 13152, Note_on_c, 0, 78, 84
1, 13172, Note_on_c, 0, 81, 0
1, 13172, Note_on_c, 0, 78, 0
1, 13200, Note_on_c, 0, 80, 84
1, 13200, Note_on_c, 0, 76, 84
1, 13220, Note_on_c, 0, 80, 0
1, 13220, Note_on_c, 0, 76, 0
1, 13248, Note_on_c, 0, 74, 84
1, 13248, Note_on_c, 0, 78, 84
1, 13260, Note_on_c, 0, 78, 0
1, 13260, Note_on_c, 0, 74, 0
1, 13260, Note_on_c, 0, 73, 84
1, 13260, Note_on_c, 0, 76, 84
1, 13272, Note_on_c, 0, 76, 0
1, 13272, Note_on_c, 0, 73, 0
1, 13272, Note_on_c, 0, 78, 84
1, 13272, Note_on_c, 0, 74, 84
1, 13293, Note_on_c, 0, 78, 0
1, 13293, Note_on_c, 0, 74, 0
1, 13344, Note_on_c, 0, 78, 84
1, 13344, Note_on_c, 0, 74, 84
1, 13364, Note_on_c, 0, 78, 0
1, 13364, Note_on_c, 0, 74, 0
1, 13392, Note_on_c, 0, 76, 84
1, 13392, Note_on_c, 0, 73, 84
1, 13412, Note_on_c, 0, 76, 0
1, 13412, Note_on_c, 0, 73, 0
1, 13440, Note_on_c, 0, 71, 84
1, 13440, Note_on_c, 0, 74, 84
1, 13452, Note_on_c, 0, 74, 0
1, 13452, Note_on_c, 0, 71, 0
1, 13452, Note_on_c, 0, 69, 84
1, 13452, Note_on_c, 0, 73, 84
1, 13464, Note_on_c, 0, 73, 0
1, 13464, Note_on_c, 0, 69, 0
1, 13464, Note_on_c, 0, 74, 84
1, 13464, Note_on_c, 0, 71, 84
1, 13485, Note_on_c, 0, 74, 0
1, 13485, Note_on_c, 0, 71, 0
1, 13536, Note_on_c, 0, 73, 77
1, 13536, Note_on_c, 0, 64, 77
1, 13536, Note_on_c, 0, 61, 77
1, 13536, Note_on_c, 0, 57, 77
1, 13581, Note_on_c, 0, 73, 0
1, 13581, Note_on_c, 0, 64, 0
1, 13581, Note_on_c, 0, 61, 0
1, 13581, Note_on_c, 0, 57, 0
1, 13584, Note_on_c, 0, 73, 77
1, 13584, Note_on_c, 0, 64, 77
1, 13584, Note_on_c, 0, 61, 77
1, 13584, Note_on_c, 0, 57, 77
1, 13629, Note_on_c, 0, 73, 0
1, 13629, Note_on_c, 0, 64, 0
1, 13629, Note_on_c, 0, 61, 0
1, 13629, Note_on_c, 0, 57, 0
1, 13632, Note_on_c, 0, 71, 77
1, 13632, Note_on_c, 0, 66, 77
1, 13632, Note_on_c, 0, 62, 77
1, 13632, Note_on_c, 0, 50, 77
1, 13677, Note_on_c, 0, 71, 0
1, 13677, Note_on_c, 0, 66, 0
1, 13677, Note_on_c, 0, 62, 0
1, 13677, Note_on_c, 0, 50, 0
1, 13728, Note_on_c, 0, 68, 77
1, 13728, Note_on_c, 0, 62, 77
1, 13728, Note_on_c, 0, 59, 77
1, 13728, Note_on_c, 0, 52, 77
1, 13773, Note_on_c, 0, 68, 0
1, 13773, Note_on_c, 0, 62, 0
1, 13773, Note_on_c, 0, 59, 0
1, 13773, Note_on_c, 0, 52, 0
1, 13776, Note_on_c, 0, 68, 77
1, 13776, Note_on_c, 0, 62, 77
1, 13776, Note_on_c, 0, 59, 77
1, 13776, Note_on_c, 0, 52, 77
1, 13821, Note_on_c, 0, 68, 0
1, 13821, Note_on_c, 0, 62, 0
1, 13821, Note_on_c, 0, 59, 0
1, 13821, Note_on_c, 0, 52, 0
1, 13824, Note_on_c, 0, 69, 77
1, 13824, Note_on_c, 0, 61, 77
1, 13824, Note_on_c, 0, 57, 77
1, 13824, Note_on_c, 0, 45, 77
1, 13869, Note_on_c, 0, 69, 0
1, 13869, Note_on_c, 0, 61, 0
1, 13869, Note_on_c, 0, 57, 0
1, 13869, Note_on_c, 0, 45, 0
1, 13920, Note_on_c, 0, 81, 84
1, 13920, Note_on_c, 0, 66, 84
1, 13943, Note_on_c, 0, 81, 0
1, 13944, Note_on_c, 0, 83, 84
1, 13965, Note_on_c, 0, 66, 0
1, 13967, Note_on_c, 0, 83, 0
1, 13968, Note_on_c, 0, 80, 84
1, 13968, Note_on_c, 0, 64, 84
1, 13991, Note_on_c, 0, 80, 0
1, 13992, Note_on_c, 0, 81, 84
1, 14013, Note_on_c, 0, 64, 0
1, 14015, Note_on_c, 0, 81, 0
1, 14016, Note_on_c, 0, 78, 84
1, 14016, Note_on_c, 0, 62, 84
1, 14036, Note_on_c, 0, 78, 0
1, 14061, Note_on_c, 0, 62, 0
1, 14112, Note_on_c, 0, 78, 84
1, 14112, Note_on_c, 0, 62, 84
1, 14135, Note_on_c, 0, 78, 0
1, 14136, Note_on_c, 0, 80, 84
1, 14157, Note_on_c, 0, 62, 0
1, 14159, Note_on_c, 0, 80, 0
1, 14160, Note_on_c, 0, 76, 84
1, 14160, Note_on_c, 0, 61, 84
1, 14183, Note_on_c, 0, 76, 0
1, 14184, Note_on_c, 0, 78, 84
1, 14205, Note_on_c, 0, 61, 0
1, 14207, Note_on_c, 0, 78, 0
1, 14208, Note_on_c, 0, 74, 84
1, 14208, Note_on_c, 0, 59, 84
1, 14228, Note_on_c, 0, 74, 0
1, 14253, Note_on_c, 0, 59, 0
1, 14304, Note_on_c, 0, 73, 77
1, 14304, Note_on_c, 0, 64, 77
1, 14304, Note_on_c, 0, 61, 77
1, 14304, Note_on_c, 0, 57, 77
1, 14349, Note_on_c, 0, 73, 0
1, 14349, Note_on_c, 0, 64, 0
1, 14349, Note_on_c, 0, 61, 0
1, 14349, Note_on_c, 0, 57, 0
1, 14352, Note_on_c, 0, 73, 77
1, 14352, Note_on_c, 0, 64, 77
1, 14352, Note_on_c, 0, 61, 77
1, 14352, Note_on_c, 0, 57, 77
1, 14397, Note_on_c, 0, 73, 0
1, 14397, Note_on_c, 0, 64, 0
1, 14397, Note_on_c, 0, 61, 0
1, 14397, Note_on_c, 0, 57, 0
1, 14400, Note_on_c, 0, 71, 77
1, 14400, Note_on_c, 0, 66, 77
1, 14400, Note_on_c, 0, 62, 77
1, 14400, Note_on_c, 0, 50, 77
1, 14445, Note_on_c, 0, 71, 0
1, 14445, Note_on_c, 0, 66, 0
1, 14445, Note_on_c, 0, 62, 0
1, 14445, Note_on_c, 0, 50, 0
1, 14448, Note_on_c, 0, 71, 77
1, 14448, Note_on_c, 0, 66, 77
1, 14448, Note_on_c, 0, 62, 77
1, 14448, Note_on_c, 0, 50, 77
1, 14493, Note_on_c, 0, 71, 0
1, 14493, Note_on_c, 0, 66, 0
1, 14493, Note_on_c, 0, 62, 0
1, 14493, Note_on_c, 0, 50, 0
1, 14496, Note_on_c, 0, 68, 77
1, 14496, Note_on_c, 0, 62, 77
1, 14496, Note_on_c, 0, 59, 77
1, 14496, Note_on_c, 0, 52, 77
1, 14541, Note_on_c, 0, 68, 0
1, 14541, Note_on_c, 0, 62, 0
1, 14541, Note_on_c, 0, 59, 0
1, 14541, Note_on_c, 0, 52, 0
1, 14544, Note_on_c, 0, 68, 77
1, 14544, Note_on_c, 0, 62, 77
1, 14544, Note_on_c, 0, 59, 77
1, 14544, Note_on_c, 0, 52, 77
1, 14589, Note_on_c, 0, 68, 0
1, 14589, Note_on_c, 0, 62, 0
1, 14589, Note_on_c, 0, 59, 0
1, 14589, Note_on_c, 0, 52, 0
1, 14592, Note_on_c, 0, 69, 84
1, 14592, Note_on_c, 0, 61, 84
1, 14592, Note_on_c, 0, 57, 84
1, 14615, Note_on_c, 0, 69, 0
1, 14616, Note_on_c, 0, 64, 84
1, 14639, Note_on_c, 0, 64, 0
1, 14640, Note_on_c, 0, 73, 84
1, 14663, Note_on_c, 0, 73, 0
1, 14664, Note_on_c, 0, 64, 84
1, 14681, Note_on_c, 0, 61, 0
1, 14681, Note_on_c, 0, 57, 0
1, 14687, Note_on_c, 0, 64, 0
1, 14688, Note_on_c, 0, 69, 84
1, 14711, Note_on_c, 0, 69, 0
1, 14712, Note_on_c, 0, 64, 84
1, 14735, Note_on_c, 0, 64, 0
1, 14736, Note_on_c, 0, 68, 84
1, 14736, Note_on_c, 0, 62, 84
1, 14736, Note_on_c, 0, 52, 84
1, 14759, Note_on_c, 0, 68, 0
1, 14760, Note_on_c, 0, 64, 84
1, 14781, Note_on_c, 0, 62, 0
1, 14781, Note_on_c, 0, 52, 0
1, 14783, Note_on_c, 0, 64, 0
1, 14784, Note_on_c, 0, 69, 84
1, 14784, Note_on_c, 0, 61, 84
1, 14784, Note_on_c, 0, 57, 84
1, 14807, Note_on_c, 0, 69, 0
1, 14808, Note_on_c, 0, 64, 84
1, 14831, Note_on_c, 0, 64, 0
1, 14832, Note_on_c, 0, 73, 84
1, 14855, Note_on_c, 0, 73, 0
1, 14856, Note_on_c, 0, 64, 84
1, 14873, Note_on_c, 0, 61, 0
1, 14873, Note_on_c, 0, 57, 0
1, 14879, Note_on_c, 0, 64, 0
1, 14880, Note_on_c, 0, 69, 84
1, 14903, Note_on_c, 0, 69, 0
1, 14904, Note_on_c, 0, 64, 84
1, 14927, Note_on_c, 0, 64, 0
1, 14928, Note_on_c, 0, 68, 84
1, 14928, Note_on_c, 0, 62, 84
1, 14928, Note_on_c, 0, 52, 84
1, 14951, Note_on_c, 0, 68, 0
1, 14952, Note_on_c, 0, 64, 84
1, 14973, Note_on_c, 0, 62, 0
1, 14973, Note_on_c, 0, 52, 0
1, 14975, Note_on_c, 0, 64, 0
1, 14976, Note_on_c, 0, 69, 84
1, 14976, Note_on_c, 0, 61, 84
1, 14976, Note_on_c, 0, 57, 84
1, 15021, Note_on_c, 0, 69, 0
1, 15021, Note_on_c, 0, 61, 0
1, 15021, Note_on_c, 0, 57, 0
1, 15072, Note_on_c, 0, 73, 84
1, 15072, Note_on_c, 0, 69, 84
1, 15072, Note_on_c, 0, 57, 84
1, 15072, Note_on_c, 0, 45, 84
1, 15117, Note_on_c, 0, 57, 0
1, 15117, Note_on_c, 0, 45, 0
1, 15144, Note_on_c, 0, 69, 0
1, 15144, Note_on_c, 0, 76, 84
1, 15167, Note_on_c, 0, 76, 0
1, 15167, Note_on_c, 0, 73, 0
1, 15168, Note_on_c, 0, 73, 84
1, 15168, Note_on_c, 0, 69, 84
1, 15168, Note_on_c, 0, 45, 84
1, 15168, Note_on_c, 0, 33, 84
1, 15213, Note_on_c, 0, 73, 0
1, 15213, Note_on_c, 0, 69, 0
1, 15213, Note_on_c, 0, 45, 0
1, 15213, Note_on_c, 0, 33, 0
1, 15360, Note_on_c, 0, 85, 77
1, 15360, Note_on_c, 0, 62, 77
1, 15360, Note_on_c, 0, 57, 77
1, 15360, Note_on_c, 0, 54, 77
1, 15360, Note_on_c, 0, 50, 77
1, 15366, Note_on_c, 0, 85, 0
1, 15366, Note_on_c, 0, 86, 93
1, 15408, Note_on_c, 0, 86, 0
1, 15408, Note_on_c, 0, 74, 77
1, 15449, Note_on_c, 0, 62, 0
1, 15449, Note_on_c, 0, 57, 0
1, 15449, Note_on_c, 0, 54, 0
1, 15449, Note_on_c, 0, 50, 0
1, 15453, Note_on_c, 0, 74, 0
1, 15456, Note_on_c, 0, 74, 77
1, 15501, Note_on_c, 0, 74, 0
1, 15504, Note_on_c, 0, 74, 77
1, 15504, Note_on_c, 0, 69, 77
1, 15504, Note_on_c, 0, 66, 77
1, 15549, Note_on_c, 0, 74, 0
1, 15549, Note_on_c, 0, 69, 0
1, 15549, Note_on_c, 0, 66, 0
1, 15552, Note_on_c, 0, 76, 77
1, 15552, Note_on_c, 0, 71, 77
1, 15552, Note_on_c, 0, 67, 77
1, 15564, Note_on_c, 0, 76, 0
1, 15564, Note_on_c, 0, 78, 77
1, 15576, Note_on_c, 0, 78, 0
1, 15576, Note_on_c, 0, 76, 77
1, 15597, Note_on_c, 0, 76, 0
1, 15597, Note_on_c, 0, 71, 0
1, 15597, Note_on_c, 0, 67, 0
1, 15600, Note_on_c, 0, 74, 77
1, 15600, Note_on_c, 0, 69, 77
1, 15600, Note_on_c, 0, 66, 77
1, 15645, Note_on_c, 0, 74, 0
1, 15645, Note_on_c, 0, 69, 0
1, 15645, Note_on_c, 0, 66, 0
1, 15648, Note_on_c, 0, 76, 77
1, 15648, Note_on_c, 0, 71, 77
1, 15648, Note_on_c, 0, 67, 77
1, 15660, Note_on_c, 0, 76, 0
1, 15660, Note_on_c, 0, 78, 77
1, 15672, Note_on_c, 0, 78, 0
1, 15672, Note_on_c, 0, 76, 77
1, 15693, Note_on_c, 0, 76, 0
1, 15693, Note_on_c, 0, 71, 0
1, 15693, Note_on_c, 0, 67, 0
1, 15696, Note_on_c, 0, 74, 77
1, 15696, Note_on_c, 0, 69, 77
1, 15696, Note_on_c, 0, 66, 77
1, 15741, Note_on_c, 0, 74, 0
1, 15741, Note_on_c, 0, 69, 0
1, 15741, Note_on_c, 0, 66, 0
1, 15744, Note_on_c, 0, 85, 77
1, 15744, Note_on_c, 0, 69, 77
1, 15744, Note_on_c, 0, 66, 77
1, 15744, Note_on_c, 0, 62, 77
1, 15750, Note_on_c, 0, 85, 0
1, 15750, Note_on_c, 0, 86, 93
1, 15792, Note_on_c, 0, 86, 0
1, 15792, Note_on_c, 0, 74, 77
1, 15833, Note_on_c, 0, 69, 0
1, 15833, Note_on_c, 0, 66, 0
1, 15833, Note_on_c, 0, 62, 0
1, 15837, Note_on_c, 0, 74, 0
1, 15840, Note_on_c, 0, 74, 77
1, 15885, Note_on_c, 0, 74, 0
1, 15888, Note_on_c, 0, 74, 77
1, 15888, Note_on_c, 0, 69, 77
1, 15888, Note_on_c, 0, 66, 77
1, 15933, Note_on_c, 0, 74, 0
1, 15933, Note_on_c, 0, 69, 0
1, 15933, Note_on_c, 0, 66, 0
1, 15936, Note_on_c, 0, 76, 77
1, 15936, Note_on_c, 0, 71, 77
1, 15936, Note_on_c, 0, 67, 77
1, 15948, Note_on_c, 0, 76, 0
1, 15948, Note_on_c, 0, 78, 77
1, 15960, Note_on_c, 0, 78, 0
1, 15960, Note_on_c, 0, 76, 77
1, 15981, Note_on_c, 0, 76, 0
1, 15981, Note_on_c, 0, 71, 0
1, 15981, Note_on_c, 0, 67, 0
1, 15984, Note_on_c, 0, 74, 77
1, 15984, Note_on_c, 0, 69, 77
1, 15984, Note_on_c, 0, 66, 77
1, 16029, Note_on_c, 0, 74, 0
1, 16029, Note_on_c, 0, 69, 0
1, 16029, Note_on_c, 0, 66, 0
1, 16032, Note_on_c, 0, 76, 77
1, 16032, Note_on_c, 0, 71, 77
1, 16032, Note_on_c, 0, 67, 77
1, 16044, Note_on_c, 0, 76, 0
1, 16044, Note_on_c, 0, 78, 77
1, 16056, Note_on_c, 0, 78, 0
1, 16056, Note_on_c, 0, 76, 77
1, 16077, Note_on_c, 0, 76, 0
1, 16077, Note_on_c, 0, 71, 0
1, 16077, Note_on_c, 0, 67, 0
1, 16080, Note_on_c, 0, 74, 77
1, 16080, Note_on_c, 0, 69, 77
1, 16080, Note_on_c, 0, 66, 77
1, 16125, Note_on_c, 0, 74, 0
1, 16125, Note_on_c, 0, 69, 0
1, 16125, Note_on_c, 0, 66, 0
1, 16128, Note_on_c, 0, 79, 77
1, 16128, Note_on_c, 0, 74, 64
1, 16128, Note_on_c, 0, 71, 77
1, 16148, Note_on_c, 0, 74, 0
1, 16148, Note_on_c, 0, 71, 0
1, 16175, Note_on_c, 0, 79, 0
1, 16176, Note_on_c, 0, 79, 77
1, 16176, Note_on_c, 0, 74, 64
1, 16176, Note_on_c, 0, 71, 77
1, 16224, Note_on_c, 0, 79, 0
1, 16224, Note_on_c, 0, 78, 77
1, 16224, Note_on_c, 0, 71, 0
1, 16224, Note_on_c, 0, 69, 77
1, 16244, Note_on_c, 0, 78, 0
1, 16244, Note_on_c, 0, 69, 0
1, 16265, Note_on_c, 0, 74, 0
1, 16272, Note_on_c, 0, 78, 77
1, 16272, Note_on_c, 0, 74, 64
1, 16272, Note_on_c, 0, 69, 77
1, 16320, Note_on_c, 0, 78, 0
1, 16320, Note_on_c, 0, 83, 77
1, 16320, Note_on_c, 0, 69, 0
1, 16320, Note_on_c, 0, 67, 77
1, 16340, Note_on_c, 0, 83, 0
1, 16340, Note_on_c, 0, 67, 0
1, 16361, Note_on_c, 0, 74, 0
1, 16368, Note_on_c, 0, 83, 77
1, 16368, Note_on_c, 0, 74, 64
1, 16368, Note_on_c, 0, 67, 77
1, 16416, Note_on_c, 0, 83, 0
1, 16416, Note_on_c, 0, 81, 77
1, 16416, Note_on_c, 0, 67, 0
1, 16416, Note_on_c, 0, 66, 77
1, 16436, Note_on_c, 0, 81, 0
1, 16436, Note_on_c, 0, 66, 0
1, 16457, Note_on_c, 0, 74, 0
1, 16464, Note_on_c, 0, 81, 77
1, 16464, Note_on_c, 0, 74, 64
1, 16464, Note_on_c, 0, 66, 77
1, 16509, Note_on_c, 0, 81, 0
1, 16509, Note_on_c, 0, 74, 0
1, 16509, Note_on_c, 0, 66, 0
1, 16512, Note_on_c, 0, 79, 77
1, 16512, Note_on_c, 0, 64, 77
1, 16557, Note_on_c, 0, 79, 0
1, 16557, Note_on_c, 0, 64, 0
1, 16560, Note_on_c, 0, 76, 77
1, 16560, Note_on_c, 0, 61, 77
1, 16605, Note_on_c, 0, 76, 0
1, 16605, Note_on_c, 0, 61, 0
1, 16608, Note_on_c, 0, 78, 77
1, 16608, Note_on_c, 0, 62, 77
1, 16653, Note_on_c, 0, 78, 0
1, 16653, Note_on_c, 0, 62, 0
1, 16656, Note_on_c, 0, 74, 77
1, 16656, Note_on_c, 0, 66, 77
1, 16701, Note_on_c, 0, 74, 0
1, 16701, Note_on_c, 0, 66, 0
1, 16704, Note_on_c, 0, 73, 77
1, 16704, Note_on_c, 0, 69, 77
1, 16727, Note_on_c, 0, 73, 0
1, 16728, Note_on_c, 0, 74, 77
1, 16751, Note_on_c, 0, 74, 0
1, 16752, Note_on_c, 0, 76, 77
1, 16775, Note_on_c, 0, 76, 0
1, 16776, Note_on_c, 0, 73, 77
1, 16793, Note_on_c, 0, 69, 0
1, 16799, Note_on_c, 0, 73, 0
1, 16800, Note_on_c, 0, 69, 77
1, 16845, Note_on_c, 0, 69, 0
1, 16896, Note_on_c, 0, 85, 77
1, 16896, Note_on_c, 0, 62, 77
1, 16902, Note_on_c, 0, 85, 0
1, 16902, Note_on_c, 0, 86, 93
1, 16919, Note_on_c, 0, 62, 0
1, 16920, Note_on_c, 0, 69, 77
1, 16943, Note_on_c, 0, 69, 0
1, 16944, Note_on_c, 0, 86, 0
1, 16944, Note_on_c, 0, 74, 77
1, 16944, Note_on_c, 0, 66, 77
1, 16967, Note_on_c, 0, 66, 0
1, 16968, Note_on_c, 0, 69, 77
1, 16989, Note_on_c, 0, 74, 0
1, 16991, Note_on_c, 0, 69, 0
1, 16992, Note_on_c, 0, 74, 77
1, 16992, Note_on_c, 0, 66, 77
1, 17015, Note_on_c, 0, 66, 0
1, 17016, Note_on_c, 0, 69, 77
1, 17037, Note_on_c, 0, 74, 0
1, 17039, Note_on_c, 0, 69, 0
1, 17040, Note_on_c, 0, 74, 77
1, 17040, Note_on_c, 0, 66, 77
1, 17063, Note_on_c, 0, 66, 0
1, 17064, Note_on_c, 0, 69, 77
1, 17085, Note_on_c, 0, 74, 0
1, 17087, Note_on_c, 0, 69, 0
1, 17088, Note_on_c, 0, 76, 77
1, 17088, Note_on_c, 0, 67, 77
1, 17100, Note_on_c, 0, 76, 0
1, 17100, Note_on_c, 0, 78, 77
1, 17111, Note_on_c, 0, 67, 0
1, 17112, Note_on_c, 0, 78, 0
1, 17112, Note_on_c, 0, 76, 77
1, 17112, Note_on_c, 0, 69, 77
1, 17133, Note_on_c, 0, 76, 0
1, 17135, Note_on_c, 0, 69, 0
1, 17136, Note_on_c, 0, 74, 77
1, 17136, Note_on_c, 0, 66, 77
1, 17159, Note_on_c, 0, 66, 0
1, 17160, Note_on_c, 0, 69, 77
1, 17181, Note_on_c, 0, 74, 0
1, 17183, Note_on_c, 0, 69, 0
1, 17184, Note_on_c, 0, 76, 77
1, 17184, Note_on_c, 0, 67, 77
1, 17196, Note_on_c, 0, 76, 0
1, 17196, Note_on_c, 0, 78, 77
1, 17207, Note_on_c, 0, 67, 0
1, 17208, Note_on_c, 0, 78, 0
1, 17208, Note_on_c, 0, 76, 77
1, 17208, Note_on_c, 0, 69, 77
1, 17229, Note_on_c, 0, 76, 0
1, 17231, Note_on_c, 0, 69, 0
1, 17232, Note_on_c, 0, 74, 77
1, 17232, Note_on_c, 0, 66, 77
1, 17255, Note_on_c, 0, 66, 0
1, 17256, Note_on_c, 0, 69, 77
1, 17277, Note_on_c, 0, 74, 0
1, 17279, Note_on_c, 0, 69, 0
1, 17280, Note_on_c, 0, 85, 77
1, 17280, Note_on_c, 0, 62, 77
1, 17286, Note_on_c, 0, 85, 0
1, 17286, Note_on_c, 0, 86, 93
1, 17303, Note_on_c, 0, 62, 0
1, 17304, Note_on_c, 0, 69, 77
1, 17327, Note_on_c, 0, 69, 0
1, 17328, Note_on_c, 0, 86, 0
1, 17328, Note_on_c, 0, 74, 77
1, 17328, Note_on_c, 0, 66, 77
1, 17351, Note_on_c, 0, 66, 0
1, 17352, Note_on_c, 0, 69, 77
1, 17373, Note_on_c, 0, 74, 0
1, 17375, Note_on_c, 0, 69, 0
1, 17376, Note_on_c, 0, 74, 77
1, 17376, Note_on_c, 0, 66, 77
1, 17399, Note_on_c, 0, 66, 0
1, 17400, Note_on_c, 0, 69, 77
1, 17421, Note_on_c, 0, 74, 0
1, 17423, Note_on_c, 0, 69, 0
1, 17424, Note_on_c, 0, 74, 77
1, 17424, Note_on_c, 0, 66, 77
1, 17447, Note_on_c, 0, 66, 0
1, 17448, Note_on_c, 0, 69, 77
1, 17469, Note_on_c, 0, 74, 0
1, 17471, Note_on_c, 0, 69, 0
1, 17472, Note_on_c, 0, 76, 77
1, 17472, Note_on_c, 0, 67, 77
1, 17484, Note_on_c, 0, 76, 0
1, 17484, Note_on_c, 0, 78, 77
1, 17495, Note_on_c, 0, 67, 0
1, 17496, Note_on_c, 0, 78, 0
1, 17496, Note_on_c, 0, 76, 77
1, 17496, Note_on_c, 0, 69, 77
1, 17517, Note_on_c, 0, 76, 0
1, 17519, Note_on_c, 0, 69, 0
1, 17520, Note_on_c, 0, 74, 77
1, 17520, Note_on_c, 0, 66, 77
1, 17543, Note_on_c, 0, 66, 0
1, 17544, Note_on_c, 0, 69, 77
1, 17565, Note_on_c, 0, 74, 0
1, 17567, Note_on_c, 0, 69, 0
1, 17568, Note_on_c, 0, 76, 77
1, 17568, Note_on_c, 0, 67, 77
1, 17580, Note_on_c, 0, 76, 0
1, 17580, Note_on_c, 0, 78, 77
1, 17591, Note_on_c, 0, 67, 0
1, 17592, Note_on_c, 0, 78, 0
1, 17592, Note_on_c, 0, 76, 77
1, 17592, Note_on_c, 0, 69, 77
1, 17613, Note_on_c, 0, 76, 0
1, 17615, Note_on_c, 0, 69, 0
1, 17616, Note_on_c, 0, 74, 77
1, 17616, Note_on_c, 0, 66, 77
1, 17639, Note_on_c, 0, 66, 0
1, 17640, Note_on_c, 0, 69, 77
1, 17661, Note_on_c, 0, 74, 0
1, 17663, Note_on_c, 0, 69, 0
1, 17664, Note_on_c, 0, 79, 77
1, 17664, Note_on_c, 0, 74, 64
1, 17664, Note_on_c, 0, 71, 77
1, 17684, Note_on_c, 0, 79, 0
1, 17684, Note_on_c, 0, 74, 0
1, 17684, Note_on_c, 0, 71, 0
1, 17712, Note_on_c, 0, 79, 77
1, 17712, Note_on_c, 0, 74, 64
1, 17712, Note_on_c, 0, 71, 77
1, 17760, Note_on_c, 0, 79, 0
1, 17760, Note_on_c, 0, 78, 77
1, 17760, Note_on_c, 0, 71, 0
1, 17760, Note_on_c, 0, 69, 77
1, 17780, Note_on_c, 0, 78, 0
1, 17780, Note_on_c, 0, 69, 0
1, 17801, Note_on_c, 0, 74, 0
1, 17808, Note_on_c, 0, 78, 77
1, 17808, Note_on_c, 0, 74, 64
1, 17808, Note_on_c, 0, 69, 77
1, 17856, Note_on_c, 0, 78, 0
1, 17856, Note_on_c, 0, 83, 77
1, 17856, Note_on_c, 0, 69, 0
1, 17856, Note_on_c, 0, 67, 77
1, 17876, Note_on_c, 0, 83, 0
1, 17876, Note_on_c, 0, 67, 0
1, 17897, Note_on_c, 0, 74, 0
1, 17904, Note_on_c, 0, 83, 77
1, 17904, Note_on_c, 0, 74, 64
1, 17904, Note_on_c, 0, 67, 77
1, 17952, Note_on_c, 0, 83, 0
1, 17952, Note_on_c, 0, 81, 77
1, 17952, Note_on_c, 0, 67, 0
1, 17952, Note_on_c, 0, 66, 77
1, 17972, Note_on_c, 0, 81, 0
1, 17972, Note_on_c, 0, 66, 0
1, 17993, Note_on_c, 0, 74, 0
1, 18000, Note_on_c, 0, 81, 77
1, 18000, Note_on_c, 0, 74, 64
1, 18000, Note_on_c, 0, 66, 77
1, 18045, Note_on_c, 0, 81, 0
1, 18045, Note_on_c, 0, 74, 0
1, 18045, Note_on_c, 0, 66, 0
1, 18048, Note_on_c, 0, 67, 77
1, 18096, Note_on_c, 0, 79, 77
1, 18096, Note_on_c, 0, 71, 77
1, 18137, Note_on_c, 0, 67, 0
1, 18141, Note_on_c, 0, 79, 0
1, 18141, Note_on_c, 0, 71, 0
1, 18144, Note_on_c, 0, 76, 74
1, 18144, Note_on_c, 0, 67, 74
1, 18189, Note_on_c, 0, 76, 0
1, 18189, Note_on_c, 0, 67, 0
1, 18192, Note_on_c, 0, 73, 71
1, 18192, Note_on_c, 0, 64, 71
1, 18192, Note_on_c, 0, 57, 71
1, 18237, Note_on_c, 0, 73, 0
1, 18237, Note_on_c, 0, 64, 0
1, 18237, Note_on_c, 0, 57, 0
1, 18240, Note_on_c, 0, 74, 69
1, 18240, Note_on_c, 0, 66, 69
1, 18240, Note_on_c, 0, 50, 69
1, 18329, Note_on_c, 0, 74, 0
1, 18329, Note_on_c, 0, 66, 0
1, 18329, Note_on_c, 0, 50, 0
1, 18432, Note_on_c, 0, 62, 84
1, 18432, Note_on_c, 0, 50, 84
1, 18432, Note_on_c, 0, 38, 84
1, 18455, Note_on_c, 0, 62, 0
1, 18456, Note_on_c, 0, 57, 84
1, 18479, Note_on_c, 0, 57, 0
1, 18480, Note_on_c, 0, 54, 84
1, 18503, Note_on_c, 0, 54, 0
1, 18504, Note_on_c, 0, 57, 84
1, 18521, Note_on_c, 0, 50, 0
1, 18521, Note_on_c, 0, 38, 0
1, 18527, Note_on_c, 0, 57, 0
1, 18528, Note_on_c, 0, 62, 84
1, 18528, Note_on_c, 0, 50, 84
1, 18551, Note_on_c, 0, 62, 0
1, 18552, Note_on_c, 0, 57, 84
1, 18573, Note_on_c, 0, 50, 0
1, 18575, Note_on_c, 0, 57, 0
1, 18576, Note_on_c, 0, 64, 84
1, 18576, Note_on_c, 0, 49, 84
1, 18599, Note_on_c, 0, 64, 0
1, 18600, Note_on_c, 0, 57, 84
1, 18621, Note_on_c, 0, 49, 0
1, 18623, Note_on_c, 0, 57, 0
1, 18624, Note_on_c, 0, 66, 84
1, 18624, Note_on_c, 0, 50, 84
1, 18647, Note_on_c, 0, 66, 0
1, 18648, Note_on_c, 0, 57, 84
1, 18669, Note_on_c, 0, 50, 0
1, 18671, Note_on_c, 0, 57, 0
1, 18672, Note_on_c, 0, 67, 84
1, 18672, Note_on_c, 0, 52, 84
1, 18695, Note_on_c, 0, 67, 0
1, 18696, Note_on_c, 0, 57, 84
1, 18717, Note_on_c, 0, 52, 0
1, 18719, Note_on_c, 0, 57, 0
1, 18720, Note_on_c, 0, 69, 84
1, 18720, Note_on_c, 0, 54, 84
1, 18743, Note_on_c, 0, 69, 0
1, 18744, Note_on_c, 0, 57, 84
1, 18765, Note_on_c, 0, 54, 0
1, 18767, Note_on_c, 0, 57, 0
1, 18768, Note_on_c, 0, 67, 84
1, 18768, Note_on_c, 0, 52, 84
1, 18791, Note_on_c, 0, 67, 0
1, 18792, Note_on_c, 0, 57, 84
1, 18813, Note_on_c, 0, 52, 0
1, 18815, Note_on_c, 0, 57, 0
1, 18816, Note_on_c, 0, 66, 84
1, 18816, Note_on_c, 0, 50, 84
1, 18816, Note_on_c, 0, 38, 84
1, 18839, Note_on_c, 0, 66, 0
1, 18840, Note_on_c, 0, 62, 84
1, 18863, Note_on_c, 0, 62, 0
1, 18864, Note_on_c, 0, 57, 84
1, 18887, Note_on_c, 0, 57, 0
1, 18888, Note_on_c, 0, 62, 84
1, 18905, Note_on_c, 0, 50, 0
1, 18905, Note_on_c, 0, 38, 0
1, 18911, Note_on_c, 0, 62, 0
1, 18912, Note_on_c, 0, 66, 84
1, 18912, Note_on_c, 0, 50, 84
1, 18935, Note_on_c, 0, 66, 0
1, 18936, Note_on_c, 0, 62, 84
1, 18957, Note_on_c, 0, 50, 0
1, 18959, Note_on_c, 0, 62, 0
1, 18960, Note_on_c, 0, 67, 84
1, 18960, Note_on_c, 0, 52, 84
1, 18983, Note_on_c, 0, 67, 0
1, 18984, Note_on_c, 0, 62, 84
1, 19005, Note_on_c, 0, 52, 0
1, 19007, Note_on_c, 0, 62, 0
1, 19008, Note_on_c, 0, 69, 84
1, 19008, Note_on_c, 0, 54, 84
1, 19031, Note_on_c, 0, 69, 0
1, 19032, Note_on_c, 0, 62, 84
1, 19053, Note_on_c, 0, 54, 0
1, 19055, Note_on_c, 0, 62, 0
1, 19056, Note_on_c, 0, 71, 84
1, 19056, Note_on_c, 0, 55, 84
1, 19079, Note_on_c, 0, 71, 0
1, 19080, Note_on_c, 0, 62, 84
1, 19101, Note_on_c, 0, 55, 0
1, 19103, Note_on_c, 0, 62, 0
1, 19104, Note_on_c, 0, 69, 84
1, 19104, Note_on_c, 0, 54, 84
1, 19127, Note_on_c, 0, 69, 0
1, 19128, Note_on_c, 0, 62, 84
1, 19149, Note_on_c, 0, 54, 0
1, 19151, Note_on_c, 0, 62, 0
1, 19152, Note_on_c, 0, 73, 84
1, 19152, Note_on_c, 0, 52, 84
1, 19175, Note_on_c, 0, 73, 0
1, 19176, Note_on_c, 0, 62, 84
1, 19197, Note_on_c, 0, 52, 0
1, 19199, Note_on_c, 0, 62, 0
1, 19200, Note_on_c, 0, 74, 84
1, 19200, Note_on_c, 0, 50, 84
1, 19200, Note_on_c, 0, 38, 84
1, 19223, Note_on_c, 0, 74, 0
1, 19224, Note_on_c, 0, 69, 84
1, 19247, Note_on_c, 0, 69, 0
1, 19248, Note_on_c, 0, 66, 84
1, 19271, Note_on_c, 0, 66, 0
1, 19272, Note_on_c, 0, 69, 84
1, 19289, Note_on_c, 0, 50, 0
1, 19289, Note_on_c, 0, 38, 0
1, 19295, Note_on_c, 0, 69, 0
1, 19296, Note_on_c, 0, 74, 84
1, 19296, Note_on_c, 0, 62, 84
1, 19319, Note_on_c, 0, 74, 0
1, 19320, Note_on_c, 0, 69, 84
1, 19341, Note_on_c, 0, 62, 0
1, 19343, Note_on_c, 0, 69, 0
1, 19344, Note_on_c, 0, 76, 84
1, 19344, Note_on_c, 0, 61, 84
1, 19367, Note_on_c, 0, 76, 0
1, 19368, Note_on_c, 0, 69, 84
1, 19389, Note_on_c, 0, 61, 0
1, 19391, Note_on_c, 0, 69, 0
1, 19392, Note_on_c, 0, 78, 84
1, 19392, Note_on_c, 0, 62, 84
1, 19415, Note_on_c, 0, 78, 0
1, 19416, Note_on_c, 0, 69, 84
1, 19437, Note_on_c, 0, 62, 0
1, 19439, Note_on_c, 0, 69, 0
1, 19440, Note_on_c, 0, 79, 84
1, 19440, Note_on_c, 0, 64, 84
1, 19463, Note_on_c, 0, 79, 0
1, 19464, Note_on_c, 0, 69, 84
1, 19485, Note_on_c, 0, 64, 0
1, 19487, Note_on_c, 0, 69, 0
1, 19488, Note_on_c, 0, 81, 84
1, 19488, Note_on_c, 0, 66, 84
1, 19511, Note_on_c, 0, 81, 0
1, 19512, Note_on_c, 0, 69, 84
1, 19533, Note_on_c, 0, 66, 0
1, 19535, Note_on_c, 0, 69, 0
1, 19536, Note_on_c, 0, 79, 84
1, 19536, Note_on_c, 0, 64, 84
1, 19559, Note_on_c, 0, 79, 0
1, 19560, Note_on_c, 0, 69, 84
1, 19581, Note_on_c, 0, 64, 0
1, 19583, Note_on_c, 0, 69, 0
1, 19584, Note_on_c, 0, 78, 84
1, 19584, Note_on_c, 0, 50, 84
1, 19584, Note_on_c, 0, 38, 84
1, 19607, Note_on_c, 0, 78, 0
1, 19608, Note_on_c, 0, 74, 84
1, 19631, Note_on_c, 0, 74, 0
1, 19632, Note_on_c, 0, 69, 84
1, 19655, Note_on_c, 0, 69, 0
1, 19656, Note_on_c, 0, 74, 84
1, 19673, Note_on_c, 0, 50, 0
1, 19673, Note_on_c, 0, 38, 0
1, 19679, Note_on_c, 0, 74, 0
1, 19680, Note_on_c, 0, 78, 84
1, 19680, Note_on_c, 0, 62, 84
1, 19703, Note_on_c, 0, 78, 0
1, 19704, Note_on_c, 0, 74, 84
1, 19725, Note_on_c, 0, 62, 0
1, 19727, Note_on_c, 0, 74, 0
1, 19728, Note_on_c, 0, 79, 84
1, 19728, Note_on_c, 0, 64, 84
1, 19751, Note_on_c, 0, 79, 0
1, 19752, Note_on_c, 0, 74, 84
1, 19773, Note_on_c, 0, 64, 0
1, 19775, Note_on_c, 0, 74, 0
1, 19776, Note_on_c, 0, 81, 84
1, 19776, Note_on_c, 0, 66, 84
1, 19799, Note_on_c, 0, 81, 0
1, 19800, Note_on_c, 0, 74, 84
1, 19821, Note_on_c, 0, 66, 0
1, 19823, Note_on_c, 0, 74, 0
1, 19824, Note_on_c, 0, 83, 84
1, 19824, Note_on_c, 0, 67, 84
1, 19847, Note_on_c, 0, 83, 0
1, 19848, Note_on_c, 0, 74, 84
1, 19869, Note_on_c, 0, 67, 0
1, 19871, Note_on_c, 0, 74, 0
1, 19872, Note_on_c, 0, 81, 84
1, 19872, Note_on_c, 0, 66, 84
1, 19895, Note_on_c, 0, 81, 0
1, 19896, Note_on_c, 0, 74, 84
1, 19917, Note_on_c, 0, 66, 0
1, 19919, Note_on_c, 0, 74, 0
1, 19920, Note_on_c, 0, 79, 84
1, 19920, Note_on_c, 0, 64, 84
1, 19943, Note_on_c, 0, 79, 0
1, 19944, Note_on_c, 0, 74, 84
1, 19965, Note_on_c, 0, 64, 0
1, 19967, Note_on_c, 0, 74, 0
1, 19968, Note_on_c, 0, 78, 84
1, 19968, Note_on_c, 0, 62, 84
1, 19991, Note_on_c, 0, 78, 0
1, 19992, Note_on_c, 0, 74, 84
1, 20013, Note_on_c, 0, 62, 0
1, 20015, Note_on_c, 0, 74, 0
1, 20016, Note_on_c, 0, 73, 84
1, 20016, Note_on_c, 0, 66, 84
1, 20039, Note_on_c, 0, 73, 0
1, 20040, Note_on_c, 0, 74, 84
1, 20061, Note_on_c, 0, 66, 0
1, 20063, Note_on_c, 0, 74, 0
1, 20064, Note_on_c, 0, 83, 84
1, 20064, Note_on_c, 0, 67, 84
1, 20087, Note_on_c, 0, 83, 0
1, 20088, Note_on_c, 0, 74, 84
1, 20109, Note_on_c, 0, 67, 0
1, 20111, Note_on_c, 0, 74, 0
1, 20112, Note_on_c, 0, 73, 84
1, 20112, Note_on_c, 0, 71, 84
1, 20135, Note_on_c, 0, 73, 0
1, 20136, Note_on_c, 0, 74, 84
1, 20157, Note_on_c, 0, 71, 0
1, 20159, Note_on_c, 0, 74, 0
1, 20160, Note_on_c, 0, 81, 84
1, 20160, Note_on_c, 0, 66, 84
1, 20183, Note_on_c, 0, 81, 0
1, 20184, Note_on_c, 0, 74, 84
1, 20205, Note_on_c, 0, 66, 0
1, 20207, Note_on_c, 0, 74, 0
1, 20208, Note_on_c, 0, 73, 84
1, 20208, Note_on_c, 0, 69, 84
1, 20231, Note_on_c, 0, 73, 0
1, 20232, Note_on_c, 0, 74, 84
1, 20253, Note_on_c, 0, 69, 0
1, 20255, Note_on_c, 0, 74, 0
1, 20256, Note_on_c, 0, 79, 84
1, 20256, Note_on_c, 0, 64, 84
1, 20279, Note_on_c, 0, 79, 0
1, 20280, Note_on_c, 0, 74, 84
1, 20301, Note_on_c, 0, 64, 0
1, 20303, Note_on_c, 0, 74, 0
1, 20304, Note_on_c, 0, 73, 84
1, 20304, Note_on_c, 0, 67, 84
1, 20327, Note_on_c, 0, 73, 0
1, 20328, Note_on_c, 0, 74, 84
1, 20349, Note_on_c, 0, 67, 0
1, 20351, Note_on_c, 0, 74, 0
1, 20352, Note_on_c, 0, 78, 84
1, 20352, Note_on_c, 0, 62, 84
1, 20375, Note_on_c, 0, 78, 0
1, 20376, Note_on_c, 0, 74, 84
1, 20397, Note_on_c, 0, 62, 0
1, 20399, Note_on_c, 0, 74, 0
1, 20400, Note_on_c, 0, 73, 84
1, 20400, Note_on_c, 0, 66, 84
1, 20423, Note_on_c, 0, 73, 0
1, 20424, Note_on_c, 0, 74, 84
1, 20445, Note_on_c, 0, 66, 0
1, 20447, Note_on_c, 0, 74, 0
1, 20448, Note_on_c, 0, 83, 84
1, 20448, Note_on_c, 0, 67, 84
1, 20471, Note_on_c, 0, 83, 0
1, 20472, Note_on_c, 0, 74, 84
1, 20493, Note_on_c, 0, 67, 0
1, 20495, Note_on_c, 0, 74, 0
1, 20496, Note_on_c, 0, 73, 84
1, 20496, Note_on_c, 0, 71, 84
1, 20519, Note_on_c, 0, 73, 0
1, 20520, Note_on_c, 0, 74, 84
1, 20541, Note_on_c, 0, 71, 0
1, 20543, Note_on_c, 0, 74, 0
1, 20544, Note_on_c, 0, 81, 84
1, 20544, Note_on_c, 0, 66, 84
1, 20567, Note_on_c, 0, 81, 0
1, 20568, Note_on_c, 0, 74, 84
1, 20589, Note_on_c, 0, 66, 0
1, 20591, Note_on_c, 0, 74, 0
1, 20592, Note_on_c, 0, 73, 84
1, 20592, Note_on_c, 0, 69, 84
1, 20615, Note_on_c, 0, 73, 0
1, 20616, Note_on_c, 0, 74, 84
1, 20637, Note_on_c, 0, 69, 0
1, 20639, Note_on_c, 0, 74, 0
1, 20640, Note_on_c, 0, 79, 84
1, 20640, Note_on_c, 0, 64, 84
1, 20663, Note_on_c, 0, 79, 0
1, 20664, Note_on_c, 0, 74, 84
1, 20685, Note_on_c, 0, 64, 0
1, 20687, Note_on_c, 0, 74, 0
1, 20688, Note_on_c, 0, 73, 84
1, 20688, Note_on_c, 0, 67, 84
1, 20711, Note_on_c, 0, 73, 0
1, 20712, Note_on_c, 0, 74, 84
1, 20733, Note_on_c, 0, 67, 0
1, 20735, Note_on_c, 0, 74, 0
1, 20736, Note_on_c, 0, 78, 91
1, 20736, Note_on_c, 0, 66, 91
1, 20759, Note_on_c, 0, 78, 0
1, 20759, Note_on_c, 0, 66, 0
1, 20760, Note_on_c, 0, 74, 91
1, 20760, Note_on_c, 0, 62, 91
1, 20783, Note_on_c, 0, 74, 0
1, 20783, Note_on_c, 0, 62, 0
1, 20784, Note_on_c, 0, 76, 91
1, 20784, Note_on_c, 0, 64, 91
1, 20807, Note_on_c, 0, 76, 0
1, 20807, Note_on_c, 0, 64, 0
1, 20808, Note_on_c, 0, 78, 91
1, 20808, Note_on_c, 0, 66, 91
1, 20831, Note_on_c, 0, 78, 0
1, 20831, Note_on_c, 0, 66, 0
1, 20832, Note_on_c, 0, 79, 91
1, 20832, Note_on_c, 0, 67, 91
1, 20855, Note_on_c, 0, 79, 0
1, 20855, Note_on_c, 0, 67, 0
1, 20856, Note_on_c, 0, 81, 91
1, 20856, Note_on_c, 0, 69, 91
1, 20879, Note_on_c, 0, 81, 0
1, 20879, Note_on_c, 0, 69, 0
1, 20880, Note_on_c, 0, 83, 91
1, 20880, Note_on_c, 0, 71, 91
1, 20903, Note_on_c, 0, 83, 0
1, 20903, Note_on_c, 0, 71, 0
1, 20904, Note_on_c, 0, 85, 91
1, 20904, Note_on_c, 0, 73, 91
1, 20927, Note_on_c, 0, 85, 0
1, 20927, Note_on_c, 0, 73, 0
1, 20928, Note_on_c, 0, 86, 91
1, 20928, Note_on_c, 0, 74, 91
1, 20951, Note_on_c, 0, 86, 0
1, 20951, Note_on_c, 0, 74, 0
1, 20952, Note_on_c, 0, 85, 91
1, 20952, Note_on_c, 0, 73, 91
1, 20975, Note_on_c, 0, 85, 0
1, 20975, Note_on_c, 0, 73, 0
1, 20976, Note_on_c, 0, 86, 91
1, 20976, Note_on_c, 0, 74, 91
1, 20999, Note_on_c, 0, 86, 0
1, 20999, Note_on_c, 0, 74, 0
1, 21000, Note_on_c, 0, 85, 91
1, 21000, Note_on_c, 0, 73, 91
1, 21023, Note_on_c, 0, 85, 0
1, 21023, Note_on_c, 0, 73, 0
1, 21024, Note_on_c, 0, 86, 91
1, 21024, Note_on_c, 0, 74, 91
1, 21047, Note_on_c, 0, 86, 0
1, 21047, Note_on_c, 0, 74, 0
1, 21048, Note_on_c, 0, 81, 91
1, 21048, Note_on_c, 0, 69, 91
1, 21071, Note_on_c, 0, 81, 0
1, 21071, Note_on_c, 0, 69, 0
1, 21072, Note_on_c, 0, 78, 91
1, 21072, Note_on_c, 0, 66, 91
1, 21095, Note_on_c, 0, 78, 0
1, 21095, Note_on_c, 0, 66, 0
1, 21096, Note_on_c, 0, 74, 91
1, 21096, Note_on_c, 0, 62, 91
1, 21119, Note_on_c, 0, 74, 0
1, 21119, Note_on_c, 0, 62, 0
1, 21120, Note_on_c, 0, 81, 91
1, 21120, Note_on_c, 0, 69, 91
1, 21209, Note_on_c, 0, 81, 0
1, 21209, Note_on_c, 0, 69, 0
1, 21216, Note_on_c, 0, 69, 84
1, 21216, Note_on_c, 0, 61, 84
1, 21216, Note_on_c, 0, 57, 84
1, 21216, Note_on_c, 0, 45, 84
1, 21283, Note_on_c, 0, 69, 0
1, 21283, Note_on_c, 0, 61, 0
1, 21283, Note_on_c, 0, 57, 0
1, 21283, Note_on_c, 0, 45, 0
1, 21288, Note_on_c, 0, 69, 84
1, 21288, Note_on_c, 0, 61, 84
1, 21288, Note_on_c, 0, 57, 84
1, 21288, Note_on_c, 0, 45, 84
1, 21311, Note_on_c, 0, 69, 0
1, 21311, Note_on_c, 0, 61, 0
1, 21311, Note_on_c, 0, 57, 0
1, 21311, Note_on_c, 0, 45, 0
1, 21312, Note_on_c, 0, 69, 84
1, 21312, Note_on_c, 0, 61, 84
1, 21312, Note_on_c, 0, 57, 84
1, 21312, Note_on_c, 0, 45, 84
1, 21401, Note_on_c, 0, 69, 0
1, 21401, Note_on_c, 0, 61, 0
1, 21401, Note_on_c, 0, 57, 0
1, 21401, Note_on_c, 0, 45, 0
1, 21504, Note_on_c, 0, 83, 77
1, 21504, Note_on_c, 0, 64, 69
1, 21504, Note_on_c, 0, 61, 69
1, 21510, Note_on_c, 0, 83, 0
1, 21510, Note_on_c, 0, 81, 77
1, 21527, Note_on_c, 0, 81, 0
1, 21528, Note_on_c, 0, 80, 77
1, 21549, Note_on_c, 0, 64, 0
1, 21549, Note_on_c, 0, 61, 0
1, 21551, Note_on_c, 0, 80, 0
1, 21552, Note_on_c, 0, 81, 77
1, 21552, Note_on_c, 0, 64, 69
1, 21552, Note_on_c, 0, 61, 69
1, 21575, Note_on_c, 0, 81, 0
1, 21576, Note_on_c, 0, 83, 77
1, 21597, Note_on_c, 0, 64, 0
1, 21597, Note_on_c, 0, 61, 0
1, 21599, Note_on_c, 0, 83, 0
1, 21600, Note_on_c, 0, 81, 77
1, 21600, Note_on_c, 0, 64, 69
1, 21600, Note_on_c, 0, 61, 69
1, 21645, Note_on_c, 0, 81, 0
1, 21645, Note_on_c, 0, 64, 0
1, 21645, Note_on_c, 0, 61, 0
1, 21648, Note_on_c, 0, 64, 69
1, 21648, Note_on_c, 0, 61, 69
1, 21693, Note_on_c, 0, 64, 0
1, 21693, Note_on_c, 0, 61, 0
1, 21696, Note_on_c, 0, 80, 77
1, 21696, Note_on_c, 0, 66, 69
1, 21696, Note_on_c, 0, 62, 69
1, 21702, Note_on_c, 0, 80, 0
1, 21702, Note_on_c, 0, 78, 77
1, 21719, Note_on_c, 0, 78, 0
1, 21720, Note_on_c, 0, 77, 77
1, 21741, Note_on_c, 0, 66, 0
1, 21741, Note_on_c, 0, 62, 0
1, 21743, Note_on_c, 0, 77, 0
1, 21744, Note_on_c, 0, 78, 77
1, 21744, Note_on_c, 0, 66, 69
1, 21744, Note_on_c, 0, 62, 69
1, 21767, Note_on_c, 0, 78, 0
1, 21768, Note_on_c, 0, 80, 77
1, 21789, Note_on_c, 0, 66, 0
1, 21789, Note_on_c, 0, 62, 0
1, 21791, Note_on_c, 0, 80, 0
1, 21792, Note_on_c, 0, 78, 77
1, 21792, Note_on_c, 0, 66, 69
1, 21792, Note_on_c, 0, 62, 69
1, 21837, Note_on_c, 0, 78, 0
1, 21837, Note_on_c, 0, 66, 0
1, 21837, Note_on_c, 0, 62, 0
1, 21840, Note_on_c, 0, 66, 69
1, 21840, Note_on_c, 0, 62, 69
1, 21885, Note_on_c, 0, 66, 0
1, 21885, Note_on_c, 0, 62, 0
1, 21888, Note_on_c, 0, 88, 77
1, 21888, Note_on_c, 0, 68, 69
1, 21888, Note_on_c, 0, 64, 69
1, 21894, Note_on_c, 0, 88, 0
1, 21894, Note_on_c, 0, 86, 77
1, 21911, Note_on_c, 0, 86, 0
1, 21912, Note_on_c, 0, 85, 77
1, 21933, Note_on_c, 0, 68, 0
1, 21933, Note_on_c, 0, 64, 0
1, 21935, Note_on_c, 0, 85, 0
1, 21936, Note_on_c, 0, 86, 77
1, 21936, Note_on_c, 0, 68, 69
1, 21936, Note_on_c, 0, 64, 69
1, 21959, Note_on_c, 0, 86, 0
1, 21960, Note_on_c, 0, 88, 77
1, 21981, Note_on_c, 0, 68, 0
1, 21981, Note_on_c, 0, 64, 0
1, 21983, Note_on_c, 0, 88, 0
1, 21984, Note_on_c, 0, 86, 77
1, 21984, Note_on_c, 0, 68, 69
1, 21984, Note_on_c, 0, 64, 69
1, 22029, Note_on_c, 0, 86, 0
1, 22029, Note_on_c, 0, 68, 0
1, 22029, Note_on_c, 0, 64, 0
1, 22032, Note_on_c, 0, 68, 69
1, 22032, Note_on_c, 0, 64, 69
1, 22077, Note_on_c, 0, 68, 0
1, 22077, Note_on_c, 0, 64, 0
1, 22080, Note_on_c, 0, 86, 77
1, 22080, Note_on_c, 0, 69, 69
1, 22080, Note_on_c, 0, 66, 69
1, 22086, Note_on_c, 0, 86, 0
1, 22086, Note_on_c, 0, 85, 77
1, 22103, Note_on_c, 0, 85, 0
1, 22104, Note_on_c, 0, 83, 77
1, 22125, Note_on_c, 0, 69, 0
1, 22125, Note_on_c, 0, 66, 0
1, 22127, Note_on_c, 0, 83, 0
1, 22128, Note_on_c, 0, 85, 77
1, 22128, Note_on_c, 0, 69, 70
1, 22128, Note_on_c, 0, 66, 70
1, 22151, Note_on_c, 0, 85, 0
1, 22152, Note_on_c, 0, 86, 77
1, 22173, Note_on_c, 0, 69, 0
1, 22173, Note_on_c, 0, 66, 0
1, 22175, Note_on_c, 0, 86, 0
1, 22176, Note_on_c, 0, 85, 77
1, 22176, Note_on_c, 0, 69, 71
1, 22176, Note_on_c, 0, 66, 71
1, 22221, Note_on_c, 0, 85, 0
1, 22221, Note_on_c, 0, 69, 0
1, 22221, Note_on_c, 0, 66, 0
1, 22224, Note_on_c, 0, 69, 72
1, 22224, Note_on_c, 0, 66, 72
1, 22269, Note_on_c, 0, 69, 0
1, 22269, Note_on_c, 0, 66, 0
1, 22272, Note_on_c, 0, 85, 77
1, 22272, Note_on_c, 0, 66, 73
1, 22272, Note_on_c, 0, 62, 73
1, 22278, Note_on_c, 0, 85, 0
1, 22278, Note_on_c, 0, 83, 77
1, 22295, Note_on_c, 0, 83, 0
1, 22296, Note_on_c, 0, 82, 77
1, 22317, Note_on_c, 0, 66, 0
1, 22317, Note_on_c, 0, 62, 0
1, 22319, Note_on_c, 0, 82, 0
1, 22320, Note_on_c, 0, 83, 77
1, 22320, Note_on_c, 0, 66, 74
1, 22320, Note_on_c, 0, 62, 74
1, 22343, Note_on_c, 0, 83, 0
1, 22344, Note_on_c, 0, 85, 77
1, 22365, Note_on_c, 0, 66, 0
1, 22365, Note_on_c, 0, 62, 0
1, 22367, Note_on_c, 0, 85, 0
1, 22368, Note_on_c, 0, 83, 77
1, 22368, Note_on_c, 0, 66, 75
1, 22368, Note_on_c, 0, 62, 75
1, 22413, Note_on_c, 0, 83, 0
1, 22413, Note_on_c, 0, 66, 0
1, 22413, Note_on_c, 0, 62, 0
1, 22416, Note_on_c, 0, 66, 76
1, 22416, Note_on_c, 0, 62, 76
1, 22461, Note_on_c, 0, 66, 0
1, 22461, Note_on_c, 0, 62, 0
1, 22464, Note_on_c, 0, 74, 77
1, 22464, Note_on_c, 0, 71, 77
1, 22464, Note_on_c, 0, 66, 77
1, 22464, Note_on_c, 0, 62, 77
1, 22509, Note_on_c, 0, 74, 0
1, 22509, Note_on_c, 0, 71, 0
1, 22512, Note_on_c, 0, 86, 77
1, 22512, Note_on_c, 0, 83, 77
1, 22553, Note_on_c, 0, 66, 0
1, 22553, Note_on_c, 0, 62, 0
1, 22557, Note_on_c, 0, 86, 0
1, 22557, Note_on_c, 0, 83, 0
1, 22560, Note_on_c, 0, 86, 77
1, 22560, Note_on_c, 0, 83, 77
1, 22605, Note_on_c, 0, 86, 0
1, 22605, Note_on_c, 0, 83, 0
1, 22608, Note_on_c, 0, 85, 77
1, 22608, Note_on_c, 0, 82, 77
1, 22653, Note_on_c, 0, 85, 0
1, 22653, Note_on_c, 0, 82, 0
1, 22656, Note_on_c, 0, 85, 77
1, 22656, Note_on_c, 0, 54, 77
1, 22656, Note_on_c, 0, 50, 77
1, 22662, Note_on_c, 0, 85, 0
1, 22662, Note_on_c, 0, 83, 77
1, 22679, Note_on_c, 0, 83, 0
1, 22680, Note_on_c, 0, 82, 77
1, 22701, Note_on_c, 0, 54, 0
1, 22701, Note_on_c, 0, 50, 0
1, 22703, Note_on_c, 0, 82, 0
1, 22704, Note_on_c, 0, 83, 77
1, 22704, Note_on_c, 0, 66, 77
1, 22704, Note_on_c, 0, 62, 77
1, 22727, Note_on_c, 0, 83, 0
1, 22728, Note_on_c, 0, 85, 77
1, 22749, Note_on_c, 0, 66, 0
1, 22749, Note_on_c, 0, 62, 0
1, 22751, Note_on_c, 0, 85, 0
1, 22752, Note_on_c, 0, 83, 77
1, 22752, Note_on_c, 0, 66, 77
1, 22752, Note_on_c, 0, 62, 77
1, 22797, Note_on_c, 0, 83, 0
1, 22797, Note_on_c, 0, 66, 0
1, 22797, Note_on_c, 0, 62, 0
1, 22800, Note_on_c, 0, 64, 77
1, 22800, Note_on_c, 0, 61, 77
1, 22845, Note_on_c, 0, 64, 0
1, 22845, Note_on_c, 0, 61, 0
1, 22848, Note_on_c, 0, 74, 77
1, 22848, Note_on_c, 0, 71, 77
1, 22848, Note_on_c, 0, 66, 77
1, 22848, Note_on_c, 0, 62, 77
1, 22893, Note_on_c, 0, 74, 0
1, 22893, Note_on_c, 0, 71, 0
1, 22896, Note_on_c, 0, 86, 77
1, 22896, Note_on_c, 0, 83, 77
1, 22937, Note_on_c, 0, 66, 0
1, 22937, Note_on_c, 0, 62, 0
1, 22941, Note_on_c, 0, 86, 0
1, 22941, Note_on_c, 0, 83, 0
1, 22944, Note_on_c, 0, 86, 77
1, 22944, Note_on_c, 0, 83, 77
1, 22989, Note_on_c, 0, 86, 0
1, 22989, Note_on_c, 0, 83, 0
1, 22992, Note_on_c, 0, 85, 77
1, 22992, Note_on_c, 0, 82, 77
1, 23037, Note_on_c, 0, 85, 0
1, 23037, Note_on_c, 0, 82, 0
1, 23040, Note_on_c, 0, 85, 77
1, 23040, Note_on_c, 0, 54, 77
1, 23040, Note_on_c, 0, 50, 77
1, 23046, Note_on_c, 0, 85, 0
1, 23046, Note_on_c, 0, 83, 77
1, 23063, Note_on_c, 0, 83, 0
1, 23064, Note_on_c, 0, 82, 77
1, 23085, Note_on_c, 0, 54, 0
1, 23085, Note_on_c, 0, 50, 0
1, 23087, Note_on_c, 0, 82, 0
1, 23088, Note_on_c, 0, 83, 78
1, 23088, Note_on_c, 0, 66, 77
1, 23088, Note_on_c, 0, 62, 77
1, 23111, Note_on_c, 0, 83, 0
1, 23112, Note_on_c, 0, 85, 78
1, 23133, Note_on_c, 0, 66, 0
1, 23133, Note_on_c, 0, 62, 0
1, 23135, Note_on_c, 0, 85, 0
1, 23136, Note_on_c, 0, 83, 79
1, 23136, Note_on_c, 0, 66, 78
1, 23136, Note_on_c, 0, 62, 78
1, 23181, Note_on_c, 0, 83, 0
1, 23181, Note_on_c, 0, 66, 0
1, 23181, Note_on_c, 0, 62, 0
1, 23184, Note_on_c, 0, 66, 79
1, 23184, Note_on_c, 0, 62, 79
1, 23229, Note_on_c, 0, 66, 0
1, 23229, Note_on_c, 0, 62, 0
1, 23232, Note_on_c, 0, 83, 81
1, 23232, Note_on_c, 0, 66, 80
1, 23232, Note_on_c, 0, 63, 80
1, 23238, Note_on_c, 0, 83, 0
1, 23238, Note_on_c, 0, 81, 81
1, 23255, Note_on_c, 0, 81, 0
1, 23256, Note_on_c, 0, 80, 81
1, 23277, Note_on_c, 0, 66, 0
1, 23277, Note_on_c, 0, 63, 0
1, 23279, Note_on_c, 0, 80, 0
1, 23280, Note_on_c, 0, 81, 82
1, 23280, Note_on_c, 0, 66, 81
1, 23280, Note_on_c, 0, 63, 81
1, 23303, Note_on_c, 0, 81, 0
1, 23304, Note_on_c, 0, 83, 82
1, 23325, Note_on_c, 0, 66, 0
1, 23325, Note_on_c, 0, 63, 0
1, 23327, Note_on_c, 0, 83, 0
1, 23328, Note_on_c, 0, 81, 83
1, 23328, Note_on_c, 0, 66, 82
1, 23328, Note_on_c, 0, 63, 82
1, 23373, Note_on_c, 0, 81, 0
1, 23373, Note_on_c, 0, 66, 0
1, 23373, Note_on_c, 0, 63, 0
1, 23376, Note_on_c, 0, 66, 83
1, 23376, Note_on_c, 0, 63, 83
1, 23421, Note_on_c, 0, 66, 0
1, 23421, Note_on_c, 0, 63, 0
1, 23424, Note_on_c, 0, 88, 100
1, 23424, Note_on_c, 0, 52, 84
1, 23447, Note_on_c, 0, 52, 0
1, 23448, Note_on_c, 0, 56, 84
1, 23471, Note_on_c, 0, 56, 0
1, 23472, Note_on_c, 0, 88, 0
1, 23472, Note_on_c, 0, 76, 84
1, 23472, Note_on_c, 0, 54, 84
1, 23495, Note_on_c, 0, 54, 0
1, 23496, Note_on_c, 0, 57, 84
1, 23517, Note_on_c, 0, 76, 0
1, 23519, Note_on_c, 0, 57, 0
1, 23520, Note_on_c, 0, 76, 84
1, 23520, Note_on_c, 0, 56, 84
1, 23543, Note_on_c, 0, 56, 0
1, 23544, Note_on_c, 0, 59, 84
1, 23565, Note_on_c, 0, 76, 0
1, 23567, Note_on_c, 0, 59, 0
1, 23568, Note_on_c, 0, 76, 84
1, 23568, Note_on_c, 0, 57, 84
1, 23591, Note_on_c, 0, 57, 0
1, 23592, Note_on_c, 0, 61, 84
1, 23613, Note_on_c, 0, 76, 0
1, 23615, Note_on_c, 0, 61, 0
1, 23616, Note_on_c, 0, 76, 84
1, 23616, Note_on_c, 0, 59, 84
1, 23639, Note_on_c, 0, 76, 0
1, 23640, Note_on_c, 0, 78, 84
1, 23663, Note_on_c, 0, 78, 0
1, 23664, Note_on_c, 0, 76, 84
1, 23687, Note_on_c, 0, 76, 0
1, 23688, Note_on_c, 0, 74, 84
1, 23711, Note_on_c, 0, 74, 0
1, 23712, Note_on_c, 0, 73, 84
1, 23712, Note_on_c, 0, 62, 77
1, 23735, Note_on_c, 0, 73, 0
1, 23736, Note_on_c, 0, 71, 84
1, 23759, Note_on_c, 0, 71, 0
1, 23760, Note_on_c, 0, 69, 84
1, 23783, Note_on_c, 0, 69, 0
1, 23784, Note_on_c, 0, 68, 84
1, 23793, Note_on_c, 0, 59, 0
1, 23801, Note_on_c, 0, 62, 0
1, 23807, Note_on_c, 0, 68, 0
1, 23808, Note_on_c, 0, 69, 84
1, 23808, Note_on_c, 0, 61, 77
1, 23808, Note_on_c, 0, 61, 84
1, 23831, Note_on_c, 0, 69, 0
1, 23832, Note_on_c, 0, 73, 84
1, 23855, Note_on_c, 0, 73, 0
1, 23856, Note_on_c, 0, 71, 84
1, 23879, Note_on_c, 0, 71, 0
1, 23880, Note_on_c, 0, 74, 84
1, 23897, Note_on_c, 0, 61, 0
1, 23897, Note_on_c, 0, 61, 0
1, 23903, Note_on_c, 0, 74, 0
1, 23904, Note_on_c, 0, 73, 84
1, 23927, Note_on_c, 0, 73, 0
1, 23928, Note_on_c, 0, 76, 84
1, 23951, Note_on_c, 0, 76, 0
1, 23952, Note_on_c, 0, 74, 84
1, 23975, Note_on_c, 0, 74, 0
1, 23976, Note_on_c, 0, 78, 84
1, 23999, Note_on_c, 0, 78, 0
1, 24000, Note_on_c, 0, 76, 84
1, 24045, Note_on_c, 0, 76, 0
1, 24048, Note_on_c, 0, 78, 84
1, 24071, Note_on_c, 0, 78, 0
1, 24072, Note_on_c, 0, 80, 84
1, 24095, Note_on_c, 0, 80, 0
1, 24096, Note_on_c, 0, 81, 84
1, 24119, Note_on_c, 0, 81, 0
1, 24120, Note_on_c, 0, 83, 84
1, 24143, Note_on_c, 0, 83, 0
1, 24144, Note_on_c, 0, 85, 84
1, 24167, Note_on_c, 0, 85, 0
1, 24168, Note_on_c, 0, 86, 84
1, 24191, Note_on_c, 0, 86, 0
1, 24192, Note_on_c, 0, 88, 100
1, 24192, Note_on_c, 0, 52, 84
1, 24215, Note_on_c, 0, 52, 0
1, 24216, Note_on_c, 0, 56, 84
1, 24239, Note_on_c, 0, 56, 0
1, 24240, Note_on_c, 0, 88, 0
1, 24240, Note_on_c, 0, 76, 84
1, 24240, Note_on_c, 0, 54, 84
1, 24263, Note_on_c, 0, 54, 0
1, 24264, Note_on_c, 0, 57, 84
1, 24285, Note_on_c, 0, 76, 0
1, 24287, Note_on_c, 0, 57, 0
1, 24288, Note_on_c, 0, 76, 84
1, 24288, Note_on_c, 0, 56, 84
1, 24311, Note_on_c, 0, 56, 0
1, 24312, Note_on_c, 0, 59, 84
1, 24333, Note_on_c, 0, 76, 0
1, 24335, Note_on_c, 0, 59, 0
1, 24336, Note_on_c, 0, 76, 84
1, 24336, Note_on_c, 0, 57, 84
1, 24359, Note_on_c, 0, 57, 0
1, 24360, Note_on_c, 0, 61, 84
1, 24381, Note_on_c, 0, 76, 0
1, 24383, Note_on_c, 0, 61, 0
1, 24384, Note_on_c, 0, 76, 84
1, 24384, Note_on_c, 0, 59, 84
1, 24407, Note_on_c, 0, 76, 0
1, 24408, Note_on_c, 0, 78, 84
1, 24431, Note_on_c, 0, 78, 0
1, 24432, Note_on_c, 0, 76, 84
1, 24455, Note_on_c, 0, 76, 0
1, 24456, Note_on_c, 0, 74, 84
1, 24479, Note_on_c, 0, 74, 0
1, 24480, Note_on_c, 0, 73, 84
1, 24480, Note_on_c, 0, 62, 77
1, 24503, Note_on_c, 0, 73, 0
1, 24504, Note_on_c, 0, 71, 84
1, 24527, Note_on_c, 0, 71, 0
1, 24528, Note_on_c, 0, 69, 84
1, 24551, Note_on_c, 0, 69, 0
1, 24552, Note_on_c, 0, 68, 84
1, 24561, Note_on_c, 0, 59, 0
1, 24569, Note_on_c, 0, 62, 0
1, 24575, Note_on_c, 0, 68, 0
1, 24576, Note_on_c, 0, 69, 84
1, 24576, Note_on_c, 0, 61, 77
1, 24576, Note_on_c, 0, 61, 84
1, 24599, Note_on_c, 0, 69, 0
1, 24600, Note_on_c, 0, 73, 84
1, 24623, Note_on_c, 0, 73, 0
1, 24624, Note_on_c, 0, 71, 84
1, 24647, Note_on_c, 0, 71, 0
1, 24648, Note_on_c, 0, 74, 84
1, 24665, Note_on_c, 0, 61, 0
1, 24665, Note_on_c, 0, 61, 0
1, 24671, Note_on_c, 0, 74, 0
1, 24672, Note_on_c, 0, 73, 84
1, 24695, Note_on_c, 0, 73, 0
1, 24696, Note_on_c, 0, 76, 84
1, 24719, Note_on_c, 0, 76, 0
1, 24720, Note_on_c, 0, 74, 84
1, 24743, Note_on_c, 0, 74, 0
1, 24744, Note_on_c, 0, 78, 84
1, 24767, Note_on_c, 0, 78, 0
1, 24768, Note_on_c, 0, 76, 84
1, 24813, Note_on_c, 0, 76, 0
1, 24816, Note_on_c, 0, 78, 84
1, 24839, Note_on_c, 0, 78, 0
1, 24840, Note_on_c, 0, 80, 84
1, 24863, Note_on_c, 0, 80, 0
1, 24864, Note_on_c, 0, 81, 84
1, 24887, Note_on_c, 0, 81, 0
1, 24888, Note_on_c, 0, 83, 84
1, 24911, Note_on_c, 0, 83, 0
1, 24912, Note_on_c, 0, 85, 84
1, 24935, Note_on_c, 0, 85, 0
1, 24936, Note_on_c, 0, 86, 84
1, 24959, Note_on_c, 0, 86, 0
1, 24960, Note_on_c, 0, 88, 100
1, 24960, Note_on_c, 0, 50, 84
1, 24983, Note_on_c, 0, 50, 0
1, 24984, Note_on_c, 0, 88, 0
1, 24984, Note_on_c, 0, 78, 84
1, 24984, Note_on_c, 0, 62, 84
1, 25007, Note_on_c, 0, 78, 0
1, 25007, Note_on_c, 0, 62, 0
1, 25008, Note_on_c, 0, 77, 84
1, 25008, Note_on_c, 0, 61, 84
1, 25031, Note_on_c, 0, 77, 0
1, 25031, Note_on_c, 0, 61, 0
1, 25032, Note_on_c, 0, 78, 84
1, 25032, Note_on_c, 0, 62, 84
1, 25055, Note_on_c, 0, 78, 0
1, 25055, Note_on_c, 0, 62, 0
1, 25056, Note_on_c, 0, 77, 84
1, 25056, Note_on_c, 0, 61, 84
1, 25079, Note_on_c, 0, 77, 0
1, 25079, Note_on_c, 0, 61, 0
1, 25080, Note_on_c, 0, 78, 84
1, 25080, Note_on_c, 0, 62, 84
1, 25103, Note_on_c, 0, 78, 0
1, 25103, Note_on_c, 0, 62, 0
1, 25104, Note_on_c, 0, 77, 84
1, 25104, Note_on_c, 0, 61, 84
1, 25127, Note_on_c, 0, 77, 0
1, 25127, Note_on_c, 0, 61, 0
1, 25128, Note_on_c, 0, 78, 84
1, 25128, Note_on_c, 0, 62, 84
1, 25151, Note_on_c, 0, 78, 0
1, 25151, Note_on_c, 0, 62, 0
1, 25152, Note_on_c, 0, 86, 100
1, 25152, Note_on_c, 0, 59, 84
1, 25175, Note_on_c, 0, 59, 0
1, 25176, Note_on_c, 0, 86, 0
1, 25176, Note_on_c, 0, 74, 84
1, 25176, Note_on_c, 0, 71, 84
1, 25199, Note_on_c, 0, 74, 0
1, 25199, Note_on_c, 0, 71, 0
1, 25200, Note_on_c, 0, 73, 84
1, 25200, Note_on_c, 0, 70, 84
1, 25223, Note_on_c, 0, 73, 0
1, 25223, Note_on_c, 0, 70, 0
1, 25224, Note_on_c, 0, 74, 84
1, 25224, Note_on_c, 0, 71, 84
1, 25247, Note_on_c, 0, 74, 0
1, 25247, Note_on_c, 0, 71, 0
1, 25248, Note_on_c, 0, 73, 84
1, 25248, Note_on_c, 0, 70, 84
1, 25271, Note_on_c, 0, 73, 0
1, 25271, Note_on_c, 0, 70, 0
1, 25272, Note_on_c, 0, 74, 84
1, 25272, Note_on_c, 0, 71, 84
1, 25295, Note_on_c, 0, 74, 0
1, 25295, Note_on_c, 0, 71, 0
1, 25296, Note_on_c, 0, 73, 84
1, 25296, Note_on_c, 0, 70, 84
1, 25319, Note_on_c, 0, 73, 0
1, 25319, Note_on_c, 0, 70, 0
1, 25320, Note_on_c, 0, 74, 84
1, 25320, Note_on_c, 0, 71, 84
1, 25343, Note_on_c, 0, 74, 0
1, 25343, Note_on_c, 0, 71, 0
1, 25344, Note_on_c, 0, 86, 100
1, 25344, Note_on_c, 0, 64, 84
1, 25367, Note_on_c, 0, 64, 0
1, 25368, Note_on_c, 0, 86, 0
1, 25368, Note_on_c, 0, 83, 84
1, 25368, Note_on_c, 0, 68, 84
1, 25391, Note_on_c, 0, 83, 0
1, 25391, Note_on_c, 0, 68, 0
1, 25392, Note_on_c, 0, 82, 84
1, 25392, Note_on_c, 0, 66, 84
1, 25415, Note_on_c, 0, 82, 0
1, 25415, Note_on_c, 0, 66, 0
1, 25416, Note_on_c, 0, 83, 84
1, 25416, Note_on_c, 0, 68, 84
1, 25439, Note_on_c, 0, 83, 0
1, 25439, Note_on_c, 0, 68, 0
1, 25440, Note_on_c, 0, 82, 84
1, 25440, Note_on_c, 0, 66, 84
1, 25463, Note_on_c, 0, 82, 0
1, 25463, Note_on_c, 0, 66, 0
1, 25464, Note_on_c, 0, 83, 84
1, 25464, Note_on_c, 0, 68, 84
1, 25487, Note_on_c, 0, 83, 0
1, 25487, Note_on_c, 0, 68, 0
1, 25488, Note_on_c, 0, 82, 84
1, 25488, Note_on_c, 0, 66, 84
1, 25511, Note_on_c, 0, 82, 0
1, 25511, Note_on_c, 0, 66, 0
1, 25512, Note_on_c, 0, 83, 84
1, 25512, Note_on_c, 0, 68, 84
1, 25535, Note_on_c, 0, 83, 0
1, 25535, Note_on_c, 0, 68, 0
1, 25536, Note_on_c, 0, 85, 100
1, 25536, Note_on_c, 0, 69, 84
1, 25559, Note_on_c, 0, 69, 0
1, 25560, Note_on_c, 0, 85, 0
1, 25560, Note_on_c, 0, 81, 84
1, 25560, Note_on_c, 0, 73, 84
1, 25583, Note_on_c, 0, 81, 0
1, 25583, Note_on_c, 0, 73, 0
1, 25584, Note_on_c, 0, 80, 84
1, 25584, Note_on_c, 0, 71, 84
1, 25607, Note_on_c, 0, 80, 0
1, 25607, Note_on_c, 0, 71, 0
1, 25608, Note_on_c, 0, 81, 84
1, 25608, Note_on_c, 0, 73, 84
1, 25631, Note_on_c, 0, 81, 0
1, 25631, Note_on_c, 0, 73, 0
1, 25632, Note_on_c, 0, 80, 84
1, 25632, Note_on_c, 0, 71, 84
1, 25655, Note_on_c, 0, 80, 0
1, 25655, Note_on_c, 0, 71, 0
1, 25656, Note_on_c, 0, 81, 84
1, 25656, Note_on_c, 0, 73, 84
1, 25679, Note_on_c, 0, 81, 0
1, 25679, Note_on_c, 0, 73, 0
1, 25680, Note_on_c, 0, 80, 84
1, 25680, Note_on_c, 0, 71, 84
1, 25703, Note_on_c, 0, 80, 0
1, 25703, Note_on_c, 0, 71, 0
1, 25704, Note_on_c, 0, 81, 84
1, 25704, Note_on_c, 0, 73, 84
1, 25727, Note_on_c, 0, 81, 0
1, 25727, Note_on_c, 0, 73, 0
1, 25728, Note_on_c, 0, 86, 100
1, 25728, Note_on_c, 0, 64, 77
1, 25752, Note_on_c, 0, 86, 0
1, 25752, Note_on_c, 0, 83, 84
1, 25775, Note_on_c, 0, 83, 0
1, 25776, Note_on_c, 0, 82, 84
1, 25776, Note_on_c, 0, 68, 77
1, 25799, Note_on_c, 0, 82, 0
1, 25800, Note_on_c, 0, 83, 84
1, 25821, Note_on_c, 0, 68, 0
1, 25823, Note_on_c, 0, 83, 0
1, 25824, Note_on_c, 0, 85, 100
1, 25824, Note_on_c, 0, 69, 77
1, 25848, Note_on_c, 0, 85, 0
1, 25848, Note_on_c, 0, 81, 84
1, 25869, Note_on_c, 0, 69, 0
1, 25871, Note_on_c, 0, 81, 0
1, 25872, Note_on_c, 0, 80, 84
1, 25872, Note_on_c, 0, 73, 77
1, 25895, Note_on_c, 0, 80, 0
1, 25896, Note_on_c, 0, 81, 84
1, 25905, Note_on_c, 0, 64, 0
1, 25917, Note_on_c, 0, 73, 0
1, 25919, Note_on_c, 0, 81, 0
1, 25920, Note_on_c, 0, 86, 100
1, 25920, Note_on_c, 0, 64, 77
1, 25944, Note_on_c, 0, 86, 0
1, 25944, Note_on_c, 0, 83, 84
1, 25967, Note_on_c, 0, 83, 0
1, 25968, Note_on_c, 0, 82, 84
1, 25968, Note_on_c, 0, 68, 77
1, 25991, Note_on_c, 0, 82, 0
1, 25992, Note_on_c, 0, 83, 84
1, 26013, Note_on_c, 0, 68, 0
1, 26015, Note_on_c, 0, 83, 0
1, 26016, Note_on_c, 0, 85, 100
1, 26016, Note_on_c, 0, 69, 77
1, 26040, Note_on_c, 0, 85, 0
1, 26040, Note_on_c, 0, 81, 84
1, 26061, Note_on_c, 0, 69, 0
1, 26063, Note_on_c, 0, 81, 0
1, 26064, Note_on_c, 0, 80, 84
1, 26064, Note_on_c, 0, 73, 77
1, 26087, Note_on_c, 0, 80, 0
1, 26088, Note_on_c, 0, 81, 84
1, 26097, Note_on_c, 0, 64, 0
1, 26109, Note_on_c, 0, 73, 0
1, 26111, Note_on_c, 0, 81, 0
1, 26112, Note_on_c, 0, 86, 93
1, 26112, Note_on_c, 0, 64, 69
1, 26136, Note_on_c, 0, 86, 0
1, 26136, Note_on_c, 0, 83, 77
1, 26159, Note_on_c, 0, 83, 0
1, 26160, Note_on_c, 0, 82, 77
1, 26160, Note_on_c, 0, 68, 69
1, 26183, Note_on_c, 0, 82, 0
1, 26184, Note_on_c, 0, 83, 77
1, 26205, Note_on_c, 0, 68, 0
1, 26207, Note_on_c, 0, 83, 0
1, 26208, Note_on_c, 0, 84, 93
1, 26208, Note_on_c, 0, 69, 69
1, 26232, Note_on_c, 0, 84, 0
1, 26232, Note_on_c, 0, 81, 77
1, 26253, Note_on_c, 0, 69, 0
1, 26255, Note_on_c, 0, 81, 0
1, 26256, Note_on_c, 0, 80, 77
1, 26256, Note_on_c, 0, 72, 69
1, 26279, Note_on_c, 0, 80, 0
1, 26280, Note_on_c, 0, 81, 77
1, 26289, Note_on_c, 0, 64, 0
1, 26301, Note_on_c, 0, 72, 0
1, 26303, Note_on_c, 0, 81, 0
1, 26304, Note_on_c, 0, 86, 93
1, 26304, Note_on_c, 0, 64, 69
1, 26328, Note_on_c, 0, 86, 0
1, 26328, Note_on_c, 0, 83, 77
1, 26351, Note_on_c, 0, 83, 0
1, 26352, Note_on_c, 0, 82, 77
1, 26352, Note_on_c, 0, 68, 69
1, 26375, Note_on_c, 0, 82, 0
1, 26376, Note_on_c, 0, 83, 77
1, 26397, Note_on_c, 0, 68, 0
1, 26399, Note_on_c, 0, 83, 0
1, 26400, Note_on_c, 0, 84, 93
1, 26400, Note_on_c, 0, 69, 69
1, 26424, Note_on_c, 0, 84, 0
1, 26424, Note_on_c, 0, 81, 77
1, 26445, Note_on_c, 0, 69, 0
1, 26447, Note_on_c, 0, 81, 0
1, 26448, Note_on_c, 0, 80, 77
1, 26448, Note_on_c, 0, 72, 69
1, 26471, Note_on_c, 0, 80, 0
1, 26472, Note_on_c, 0, 81, 77
1, 26481, Note_on_c, 0, 64, 0
1, 26493, Note_on_c, 0, 72, 0
1, 26495, Note_on_c, 0, 81, 0
1, 26496, Note_on_c, 0, 70, 91
1, 26496, Note_on_c, 0, 65, 91
1, 26496, Note_on_c, 0, 62, 91
1, 26520, Note_on_c, 0, 89, 107
1, 26544, Note_on_c, 0, 89, 0
1, 26544, Note_on_c, 0, 86, 91
1, 26567, Note_on_c, 0, 86, 0
1, 26568, Note_on_c, 0, 89, 91
1, 26591, Note_on_c, 0, 89, 0
1, 26592, Note_on_c, 0, 82, 91
1, 26615, Note_on_c, 0, 82, 0
1, 26616, Note_on_c, 0, 86, 91
1, 26639, Note_on_c, 0, 86, 0
1, 26640, Note_on_c, 0, 77, 91
1, 26663, Note_on_c, 0, 77, 0
1, 26664, Note_on_c, 0, 82, 91
1, 26673, Note_on_c, 0, 70, 0
1, 26673, Note_on_c, 0, 65, 0
1, 26673, Note_on_c, 0, 62, 0
1, 26687, Note_on_c, 0, 82, 0
1, 26688, Note_on_c, 0, 74, 91
1, 26712, Note_on_c, 0, 58, 91
1, 26733, Note_on_c, 0, 74, 0
1, 26735, Note_on_c, 0, 58, 0
1, 26736, Note_on_c, 0, 62, 91
1, 26759, Note_on_c, 0, 62, 0
1, 26760, Note_on_c, 0, 65, 91
1, 26783, Note_on_c, 0, 65, 0
1, 26784, Note_on_c, 0, 70, 91
1, 26808, Note_on_c, 0, 74, 91
1, 26829, Note_on_c, 0, 70, 0
1, 26831, Note_on_c, 0, 74, 0
1, 26832, Note_on_c, 0, 77, 91
1, 26855, Note_on_c, 0, 77, 0
1, 26856, Note_on_c, 0, 82, 91
1, 26879, Note_on_c, 0, 82, 0
1, 26880, Note_on_c, 0, 86, 91
1, 26903, Note_on_c, 0, 86, 0
1, 26904, Note_on_c, 0, 77, 91
1, 26927, Note_on_c, 0, 77, 0
1, 26928, Note_on_c, 0, 82, 91
1, 26951, Note_on_c, 0, 82, 0
1, 26952, Note_on_c, 0, 86, 91
1, 26975, Note_on_c, 0, 86, 0
1, 26976, Note_on_c, 0, 89, 91
1, 26999, Note_on_c, 0, 89, 0
1, 27000, Note_on_c, 0, 77, 91
1, 27023, Note_on_c, 0, 77, 0
1, 27024, Note_on_c, 0, 82, 91
1, 27047, Note_on_c, 0, 82, 0
1, 27048, Note_on_c, 0, 86, 91
1, 27071, Note_on_c, 0, 86, 0
1, 27072, Note_on_c, 0, 89, 91
1, 27117, Note_on_c, 0, 89, 0
1, 27264, Note_on_c, 0, 63, 91
1, 27264, Note_on_c, 0, 51, 91
1, 27288, Note_on_c, 0, 84, 91
1, 27311, Note_on_c, 0, 84, 0
1, 27312, Note_on_c, 0, 81, 91
1, 27335, Note_on_c, 0, 81, 0
1, 27336, Note_on_c, 0, 84, 91
1, 27353, Note_on_c, 0, 63, 0
1, 27353, Note_on_c, 0, 51, 0
1, 27359, Note_on_c, 0, 84, 0
1, 27360, Note_on_c, 0, 78, 91
1, 27360, Note_on_c, 0, 66, 91
1, 27360, Note_on_c, 0, 54, 91
1, 27383, Note_on_c, 0, 78, 0
1, 27384, Note_on_c, 0, 81, 91
1, 27405, Note_on_c, 0, 66, 0
1, 27405, Note_on_c, 0, 54, 0
1, 27407, Note_on_c, 0, 81, 0
1, 27408, Note_on_c, 0, 75, 91
1, 27408, Note_on_c, 0, 63, 91
1, 27408, Note_on_c, 0, 51, 91
1, 27431, Note_on_c, 0, 75, 0
1, 27432, Note_on_c, 0, 78, 91
1, 27453, Note_on_c, 0, 63, 0
1, 27453, Note_on_c, 0, 51, 0
1, 27455, Note_on_c, 0, 78, 0
1, 27456, Note_on_c, 0, 72, 91
1, 27456, Note_on_c, 0, 60, 91
1, 27456, Note_on_c, 0, 48, 91
1, 27479, Note_on_c, 0, 72, 0
1, 27480, Note_on_c, 0, 75, 91
1, 27501, Note_on_c, 0, 60, 0
1, 27501, Note_on_c, 0, 48, 0
1, 27503, Note_on_c, 0, 75, 0
1, 27504, Note_on_c, 0, 69, 91
1, 27504, Note_on_c, 0, 57, 91
1, 27504, Note_on_c, 0, 45, 91
1, 27527, Note_on_c, 0, 69, 0
1, 27528, Note_on_c, 0, 72, 91
1, 27549, Note_on_c, 0, 57, 0
1, 27549, Note_on_c, 0, 45, 0
1, 27551, Note_on_c, 0, 72, 0
1, 27552, Note_on_c, 0, 66, 91
1, 27552, Note_on_c, 0, 54, 91
1, 27552, Note_on_c, 0, 42, 91
1, 27575, Note_on_c, 0, 66, 0
1, 27576, Note_on_c, 0, 69, 91
1, 27597, Note_on_c, 0, 54, 0
1, 27597, Note_on_c, 0, 42, 0
1, 27599, Note_on_c, 0, 69, 0
1, 27600, Note_on_c, 0, 63, 91
1, 27600, Note_on_c, 0, 51, 91
1, 27600, Note_on_c, 0, 39, 91
1, 27623, Note_on_c, 0, 63, 0
1, 27624, Note_on_c, 0, 66, 91
1, 27645, Note_on_c, 0, 51, 0
1, 27645, Note_on_c, 0, 39, 0
1, 27647, Note_on_c, 0, 66, 0
1, 27648, Note_on_c, 0, 52, 91
1, 27648, Note_on_c, 0, 40, 91
1, 27696, Note_on_c, 0, 64, 84
1, 27716, Note_on_c, 0, 64, 0
1, 27744, Note_on_c, 0, 69, 84
1, 27764, Note_on_c, 0, 69, 0
1, 27792, Note_on_c, 0, 73, 84
1, 27812, Note_on_c, 0, 73, 0
1, 27825, Note_on_c, 0, 52, 0
1, 27825, Note_on_c, 0, 40, 0
1, 27840, Note_on_c, 0, 76, 84
1, 27860, Note_on_c, 0, 76, 0
1, 27888, Note_on_c, 0, 81, 84
1, 27908, Note_on_c, 0, 81, 0
1, 27936, Note_on_c, 0, 85, 84
1, 27956, Note_on_c, 0, 85, 0
1, 27984, Note_on_c, 0, 88, 84
1, 28004, Note_on_c, 0, 88, 0
1, 28032, Note_on_c, 0, 52, 84
1, 28052, Note_on_c, 0, 52, 0
1, 28080, Note_on_c, 0, 56, 84
1, 28100, Note_on_c, 0, 56, 0
1, 28128, Note_on_c, 0, 59, 84
1, 28148, Note_on_c, 0, 59, 0
1, 28176, Note_on_c, 0, 62, 84
1, 28196, Note_on_c, 0, 62, 0
1, 28224, Note_on_c, 0, 83, 84
1, 28224, Note_on_c, 0, 74, 84
1, 28224, Note_on_c, 0, 71, 84
1, 28224, Note_on_c, 0, 68, 84
1, 28224, Note_on_c, 0, 64, 84
1, 28242, Note_on_c, 0, 83, 0
1, 28242, Note_on_c, 0, 85, 84
1, 28260, Note_on_c, 0, 85, 0
1, 28260, Note_on_c, 0, 83, 84
1, 28278, Note_on_c, 0, 83, 0
1, 28278, Note_on_c, 0, 85, 84
1, 28296, Note_on_c, 0, 85, 0
1, 28296, Note_on_c, 0, 83, 84
1, 28314, Note_on_c, 0, 83, 0
1, 28314, Note_on_c, 0, 85, 84
1, 28332, Note_on_c, 0, 85, 0
1, 28332, Note_on_c, 0, 83, 84
1, 28350, Note_on_c, 0, 83, 0
1, 28350, Note_on_c, 0, 85, 84
1, 28357, Note_on_c, 0, 85, 0
1, 28368, Note_on_c, 0, 81, 84
1, 28391, Note_on_c, 0, 81, 0
1, 28392, Note_on_c, 0, 83, 84
1, 28401, Note_on_c, 0, 74, 0
1, 28401, Note_on_c, 0, 71, 0
1, 28401, Note_on_c, 0, 68, 0
1, 28401, Note_on_c, 0, 64, 0
1, 28415, Note_on_c, 0, 83, 0
1, 28416, Note_on_c, 0, 81, 84
1, 28416, Note_on_c, 0, 73, 84
1, 28416, Note_on_c, 0, 69, 84
1, 28461, Note_on_c, 0, 81, 0
1, 28505, Note_on_c, 0, 73, 0
1, 28505, Note_on_c, 0, 69, 0
1, 28512, Note_on_c, 0, 81, 84
1, 28512, Note_on_c, 0, 78, 84
1, 28532, Note_on_c, 0, 81, 0
1, 28532, Note_on_c, 0, 78, 0
1, 28560, Note_on_c, 0, 80, 84
1, 28560, Note_on_c, 0, 76, 84
1, 28580, Note_on_c, 0, 80, 0
1, 28580, Note_on_c, 0, 76, 0
1, 28608, Note_on_c, 0, 74, 84
1, 28608, Note_on_c, 0, 78, 84
1, 28620, Note_on_c, 0, 78, 0
1, 28620, Note_on_c, 0, 74, 0
1, 28620, Note_on_c, 0, 73, 84
1, 28620, Note_on_c, 0, 76, 84
1, 28632, Note_on_c, 0, 76, 0
1, 28632, Note_on_c, 0, 73, 0
1, 28632, Note_on_c, 0, 78, 84
1, 28632, Note_on_c, 0, 74, 84
1, 28653, Note_on_c, 0, 78, 0
1, 28653, Note_on_c, 0, 74, 0
1, 28704, Note_on_c, 0, 78, 84
1, 28704, Note_on_c, 0, 74, 84
1, 28724, Note_on_c, 0, 78, 0
1, 28724, Note_on_c, 0, 74, 0
1, 28752, Note_on_c, 0, 76, 84
1, 28752, Note_on_c, 0, 73, 84
1, 28772, Note_on_c, 0, 76, 0
1, 28772, Note_on_c, 0, 73, 0
1, 28800, Note_on_c, 0, 71, 84
1, 28800, Note_on_c, 0, 74, 84
1, 28812, Note_on_c, 0, 74, 0
1, 28812, Note_on_c, 0, 71, 0
1, 28812, Note_on_c, 0, 69, 84
1, 28812, Note_on_c, 0, 73, 84
1, 28824, Note_on_c, 0, 73, 0
1, 28824, Note_on_c, 0, 69, 0
1, 28824, Note_on_c, 0, 74, 84
1, 28824, Note_on_c, 0, 71, 84
1, 28845, Note_on_c, 0, 74, 0
1, 28845, Note_on_c, 0, 71, 0
1, 28896, Note_on_c, 0, 73, 77
1, 28896, Note_on_c, 0, 64, 77
1, 28896, Note_on_c, 0, 61, 77
1, 28896, Note_on_c, 0, 57, 77
1, 28941, Note_on_c, 0, 73, 0
1, 28941, Note_on_c, 0, 64, 0
1, 28941, Note_on_c, 0, 61, 0
1, 28941, Note_on_c, 0, 57, 0
1, 28944, Note_on_c, 0, 73, 77
1, 28944, Note_on_c, 0, 64, 77
1, 28944, Note_on_c, 0, 61, 77
1, 28944, Note_on_c, 0, 57, 77
1, 28989, Note_on_c, 0, 73, 0
1, 28989, Note_on_c, 0, 64, 0
1, 28989, Note_on_c, 0, 61, 0
1, 28989, Note_on_c, 0, 57, 0
1, 28992, Note_on_c, 0, 71, 77
1, 28992, Note_on_c, 0, 66, 77
1, 28992, Note_on_c, 0, 62, 77
1, 28992, Note_on_c, 0, 50, 77
1, 29037, Note_on_c, 0, 71, 0
1, 29037, Note_on_c, 0, 66, 0
1, 29037, Note_on_c, 0, 62, 0
1, 29037, Note_on_c, 0, 50, 0
1, 29088, Note_on_c, 0, 68, 77
1, 29088, Note_on_c, 0, 62, 77
1, 29088, Note_on_c, 0, 59, 77
1, 29088, Note_on_c, 0, 52, 77
1, 29133, Note_on_c, 0, 68, 0
1, 29133, Note_on_c, 0, 62, 0
1, 29133, Note_on_c, 0, 59, 0
1, 29133, Note_on_c, 0, 52, 0
1, 29136, Note_on_c, 0, 68, 77
1, 29136, Note_on_c, 0, 62, 77
1, 29136, Note_on_c, 0, 59, 77
1, 29136, Note_on_c, 0, 52, 77
1, 29181, Note_on_c, 0, 68, 0
1, 29181, Note_on_c, 0, 62, 0
1, 29181, Note_on_c, 0, 59, 0
1, 29181, Note_on_c, 0, 52, 0
1, 29184, Note_on_c, 0, 69, 77
1, 29184, Note_on_c, 0, 61, 77
1, 29184, Note_on_c, 0, 57, 77
1, 29184, Note_on_c, 0, 45, 77
1, 29229, Note_on_c, 0, 69, 0
1, 29229, Note_on_c, 0, 61, 0
1, 29229, Note_on_c, 0, 57, 0
1, 29229, Note_on_c, 0, 45, 0
1, 29280, Note_on_c, 0, 81, 84
1, 29280, Note_on_c, 0, 66, 84
1, 29303, Note_on_c, 0, 81, 0
1, 29304, Note_on_c, 0, 83, 84
1, 29325, Note_on_c, 0, 66, 0
1, 29327, Note_on_c, 0, 83, 0
1, 29328, Note_on_c, 0, 80, 84
1, 29328, Note_on_c, 0, 64, 84
1, 29351, Note_on_c, 0, 80, 0
1, 29352, Note_on_c, 0, 81, 84
1, 29373, Note_on_c, 0, 64, 0
1, 29375, Note_on_c, 0, 81, 0
1, 29376, Note_on_c, 0, 78, 84
1, 29376, Note_on_c, 0, 62, 84
1, 29396, Note_on_c, 0, 78, 0
1, 29421, Note_on_c, 0, 62, 0
1, 29472, Note_on_c, 0, 78, 84
1, 29472, Note_on_c, 0, 62, 84
1, 29495, Note_on_c, 0, 78, 0
1, 29496, Note_on_c, 0, 80, 84
1, 29517, Note_on_c, 0, 62, 0
1, 29519, Note_on_c, 0, 80, 0
1, 29520, Note_on_c, 0, 76, 84
1, 29520, Note_on_c, 0, 61, 84
1, 29543, Note_on_c, 0, 76, 0
1, 29544, Note_on_c, 0, 78, 84
1, 29565, Note_on_c, 0, 61, 0
1, 29567, Note_on_c, 0, 78, 0
1, 29568, Note_on_c, 0, 74, 84
1, 29568, Note_on_c, 0, 59, 84
1, 29588, Note_on_c, 0, 74, 0
1, 29613, Note_on_c, 0, 59, 0
1, 29664, Note_on_c, 0, 73, 77
1, 29664, Note_on_c, 0, 64, 77
1, 29664, Note_on_c, 0, 61, 77
1, 29664, Note_on_c, 0, 57, 77
1, 29709, Note_on_c, 0, 73, 0
1, 29709, Note_on_c, 0, 64, 0
1, 29709, Note_on_c, 0, 61, 0
1, 29709, Note_on_c, 0, 57, 0
1, 29712, Note_on_c, 0, 73, 77
1, 29712, Note_on_c, 0, 64, 77
1, 29712, Note_on_c, 0, 61, 77
1, 29712, Note_on_c, 0, 57, 77
1, 29757, Note_on_c, 0, 73, 0
1, 29757, Note_on_c, 0, 64, 0
1, 29757, Note_on_c, 0, 61, 0
1, 29757, Note_on_c, 0, 57, 0
1, 29760, Note_on_c, 0, 71, 77
1, 29760, Note_on_c, 0, 66, 77
1, 29760, Note_on_c, 0, 62, 77
1, 29760, Note_on_c, 0, 50, 77
1, 29805, Note_on_c, 0, 71, 0
1, 29805, Note_on_c, 0, 66, 0
1, 29805, Note_on_c, 0, 62, 0
1, 29805, Note_on_c, 0, 50, 0
1, 29808, Note_on_c, 0, 71, 77
1, 29808, Note_on_c, 0, 66, 77
1, 29808, Note_on_c, 0, 62, 77
1, 29808, Note_on_c, 0, 50, 77
1, 29853, Note_on_c, 0, 71, 0
1, 29853, Note_on_c, 0, 66, 0
1, 29853, Note_on_c, 0, 62, 0
1, 29853, Note_on_c, 0, 50, 0
1, 29856, Note_on_c, 0, 68, 77
1, 29856, Note_on_c, 0, 62, 77
1, 29856, Note_on_c, 0, 59, 77
1, 29856, Note_on_c, 0, 52, 77
1, 29901, Note_on_c, 0, 68, 0
1, 29901, Note_on_c, 0, 62, 0
1, 29901, Note_on_c, 0, 59, 0
1, 29901, Note_on_c, 0, 52, 0
1, 29904, Note_on_c, 0, 68, 77
1, 29904, Note_on_c, 0, 62, 77
1, 29904, Note_on_c, 0, 59, 77
1, 29904, Note_on_c, 0, 52, 77
1, 29949, Note_on_c, 0, 68, 0
1, 29949, Note_on_c, 0, 62, 0
1, 29949, Note_on_c, 0, 59, 0
1, 29949, Note_on_c, 0, 52, 0
1, 29952, Note_on_c, 0, 69, 84
1, 29952, Note_on_c, 0, 61, 84
1, 29952, Note_on_c, 0, 57, 84
1, 29975, Note_on_c, 0, 69, 0
1, 29976, Note_on_c, 0, 64, 84
1, 29999, Note_on_c, 0, 64, 0
1, 30000, Note_on_c, 0, 73, 84
1, 30023, Note_on_c, 0, 73, 0
1, 30024, Note_on_c, 0, 64, 84
1, 30041, Note_on_c, 0, 61, 0
1, 30041, Note_on_c, 0, 57, 0
1, 30047, Note_on_c, 0, 64, 0
1, 30048, Note_on_c, 0, 69, 84
1, 30071, Note_on_c, 0, 69, 0
1, 30072, Note_on_c, 0, 64, 84
1, 30095, Note_on_c, 0, 64, 0
1, 30096, Note_on_c, 0, 68, 84
1, 30096, Note_on_c, 0, 62, 84
1, 30096, Note_on_c, 0, 52, 84
1, 30119, Note_on_c, 0, 68, 0
1, 30120, Note_on_c, 0, 64, 84
1, 30141, Note_on_c, 0, 62, 0
1, 30141, Note_on_c, 0, 52, 0
1, 30143, Note_on_c, 0, 64, 0
1, 30144, Note_on_c, 0, 69, 84
1, 30144, Note_on_c, 0, 61, 84
1, 30144, Note_on_c, 0, 57, 84
1, 30167, Note_on_c, 0, 69, 0
1, 30168, Note_on_c, 0, 64, 84
1, 30191, Note_on_c, 0, 64, 0
1, 30192, Note_on_c, 0, 73, 84
1, 30215, Note_on_c, 0, 73, 0
1, 30216, Note_on_c, 0, 64, 84
1, 30233, Note_on_c, 0, 61, 0
1, 30233, Note_on_c, 0, 57, 0
1, 30239, Note_on_c, 0, 64, 0
1, 30240, Note_on_c, 0, 69, 84
1, 30263, Note_on_c, 0, 69, 0
1, 30264, Note_on_c, 0, 64, 84
1, 30287, Note_on_c, 0, 64, 0
1, 30288, Note_on_c, 0, 68, 84
1, 30288, Note_on_c, 0, 62, 84
1, 30288, Note_on_c, 0, 52, 84
1, 30311, Note_on_c, 0, 68, 0
1, 30312, Note_on_c, 0, 64, 84
1, 30333, Note_on_c, 0, 62, 0
1, 30333, Note_on_c, 0, 52, 0
1, 30335, Note_on_c, 0, 64, 0
1, 30336, Note_on_c, 0, 69, 84
1, 30336, Note_on_c, 0, 61, 84
1, 30336, Note_on_c, 0, 57, 84
1, 30381, Note_on_c, 0, 69, 0
1, 30381, Note_on_c, 0, 61, 0
1, 30381, Note_on_c, 0, 57, 0
1, 30432, Note_on_c, 0, 73, 84
1, 30432, Note_on_c, 0, 69, 84
1, 30432, Note_on_c, 0, 57, 84
1, 30432, Note_on_c, 0, 45, 84
1, 30477, Note_on_c, 0, 57, 0
1, 30477, Note_on_c, 0, 45, 0
1, 30504, Note_on_c, 0, 69, 0
1, 30504, Note_on_c, 0, 76, 84
1, 30527, Note_on_c, 0, 76, 0
1, 30527, Note_on_c, 0, 73, 0
1, 30528, Note_on_c, 0, 73, 84
1, 30528, Note_on_c, 0, 69, 84
1, 30528, Note_on_c, 0, 45, 84
1, 30528, Note_on_c, 0, 33, 84
1, 30573, Note_on_c, 0, 73, 0
1, 30573, Note_on_c, 0, 69, 0
1, 30573, Note_on_c, 0, 45, 0
1, 30573, Note_on_c, 0, 33, 0
1, 30720, Note_on_c, 0, 68, 84
1, 30726, Note_on_c, 0, 68, 0
1, 30726, Note_on_c, 0, 69, 84
1, 30765, Note_on_c, 0, 69, 0
1, 30768, Note_on_c, 0, 57, 84
1, 30813, Note_on_c, 0, 57, 0
1, 30816, Note_on_c, 0, 57, 84
1, 30861, Note_on_c, 0, 57, 0
1, 30864, Note_on_c, 0, 81, 77
1, 30864, Note_on_c, 0, 73, 77
1, 30864, Note_on_c, 0, 57, 84
1, 30909, Note_on_c, 0, 81, 0
1, 30909, Note_on_c, 0, 73, 0
1, 30909, Note_on_c, 0, 57, 0
1, 30912, Note_on_c, 0, 80, 77
1, 30912, Note_on_c, 0, 74, 77
1, 30912, Note_on_c, 0, 59, 84
1, 30924, Note_on_c, 0, 59, 0
1, 30924, Note_on_c, 0, 61, 84
1, 30936, Note_on_c, 0, 61, 0
1, 30936, Note_on_c, 0, 59, 84
1, 30957, Note_on_c, 0, 80, 0
1, 30957, Note_on_c, 0, 74, 0
1, 30957, Note_on_c, 0, 59, 0
1, 30960, Note_on_c, 0, 81, 77
1, 30960, Note_on_c, 0, 73, 77
1, 30960, Note_on_c, 0, 57, 84
1, 31005, Note_on_c, 0, 81, 0
1, 31005, Note_on_c, 0, 73, 0
1, 31005, Note_on_c, 0, 57, 0
1, 31008, Note_on_c, 0, 80, 77
1, 31008, Note_on_c, 0, 74, 77
1, 31008, Note_on_c, 0, 59, 84
1, 31020, Note_on_c, 0, 59, 0
1, 31020, Note_on_c, 0, 61, 84
1, 31032, Note_on_c, 0, 61, 0
1, 31032, Note_on_c, 0, 59, 84
1, 31053, Note_on_c, 0, 80, 0
1, 31053, Note_on_c, 0, 74, 0
1, 31053, Note_on_c, 0, 59, 0
1, 31056, Note_on_c, 0, 81, 77
1, 31056, Note_on_c, 0, 73, 77
1, 31056, Note_on_c, 0, 57, 84
1, 31101, Note_on_c, 0, 81, 0
1, 31101, Note_on_c, 0, 73, 0
1, 31101, Note_on_c, 0, 57, 0
1, 31104, Note_on_c, 0, 73, 84
1, 31104, Note_on_c, 0, 69, 84
1, 31127, Note_on_c, 0, 73, 0
1, 31128, Note_on_c, 0, 76, 84
1, 31149, Note_on_c, 0, 69, 0
1, 31151, Note_on_c, 0, 76, 0
1, 31152, Note_on_c, 0, 74, 84
1, 31152, Note_on_c, 0, 71, 84
1, 31175, Note_on_c, 0, 74, 0
1, 31176, Note_on_c, 0, 78, 84
1, 31197, Note_on_c, 0, 71, 0
1, 31199, Note_on_c, 0, 78, 0
1, 31200, Note_on_c, 0, 76, 84
1, 31200, Note_on_c, 0, 73, 84
1, 31223, Note_on_c, 0, 76, 0
1, 31224, Note_on_c, 0, 79, 84
1, 31245, Note_on_c, 0, 73, 0
1, 31247, Note_on_c, 0, 79, 0
1, 31248, Note_on_c, 0, 78, 84
1, 31248, Note_on_c, 0, 74, 84
1, 31271, Note_on_c, 0, 78, 0
1, 31272, Note_on_c, 0, 81, 84
1, 31293, Note_on_c, 0, 74, 0
1, 31295, Note_on_c, 0, 81, 0
1, 31296, Note_on_c, 0, 79, 84
1, 31296, Note_on_c, 0, 76, 84
1, 31341, Note_on_c, 0, 79, 0
1, 31344, Note_on_c, 0, 88, 84
1, 31385, Note_on_c, 0, 76, 0
1, 31389, Note_on_c, 0, 88, 0
1, 31392, Note_on_c, 0, 85, 84
1, 31437, Note_on_c, 0, 85, 0
1, 31440, Note_on_c, 0, 79, 84
1, 31440, Note_on_c, 0, 76, 84
1, 31440, Note_on_c, 0, 58, 84
1, 31485, Note_on_c, 0, 79, 0
1, 31485, Note_on_c, 0, 76, 0
1, 31485, Note_on_c, 0, 58, 0
1, 31488, Note_on_c, 0, 78, 84
1, 31488, Note_on_c, 0, 74, 84
1, 31488, Note_on_c, 0, 59, 84
1, 31533, Note_on_c, 0, 59, 0
1, 31536, Note_on_c, 0, 47, 84
1, 31577, Note_on_c, 0, 78, 0
1, 31577, Note_on_c, 0, 74, 0
1, 31581, Note_on_c, 0, 47, 0
1, 31584, Note_on_c, 0, 47, 84
1, 31629, Note_on_c, 0, 47, 0
1, 31632, Note_on_c, 0, 71, 77
1, 31632, Note_on_c, 0, 62, 77
1, 31632, Note_on_c, 0, 47, 84
1, 31677, Note_on_c, 0, 71, 0
1, 31677, Note_on_c, 0, 62, 0
1, 31677, Note_on_c, 0, 47, 0
1, 31680, Note_on_c, 0, 70, 77
1, 31680, Note_on_c, 0, 64, 77
1, 31680, Note_on_c, 0, 49, 84
1, 31692, Note_on_c, 0, 49, 0
1, 31692, Note_on_c, 0, 50, 84
1, 31704, Note_on_c, 0, 50, 0
1, 31704, Note_on_c, 0, 49, 84
1, 31725, Note_on_c, 0, 70, 0
1, 31725, Note_on_c, 0, 64, 0
1, 31725, Note_on_c, 0, 49, 0
1, 31728, Note_on_c, 0, 71, 77
1, 31728, Note_on_c, 0, 62, 77
1, 31728, Note_on_c, 0, 47, 84
1, 31773, Note_on_c, 0, 71, 0
1, 31773, Note_on_c, 0, 62, 0
1, 31773, Note_on_c, 0, 47, 0
1, 31776, Note_on_c, 0, 70, 77
1, 31776, Note_on_c, 0, 64, 77
1, 31776, Note_on_c, 0, 49, 84
1, 31788, Note_on_c, 0, 49, 0
1, 31788, Note_on_c, 0, 50, 84
1, 31800, Note_on_c, 0, 50, 0
1, 31800, Note_on_c, 0, 49, 84
1, 31821, Note_on_c, 0, 70, 0
1, 31821, Note_on_c, 0, 64, 0
1, 31821, Note_on_c, 0, 49, 0
1, 31824, Note_on_c, 0, 71, 77
1, 31824, Note_on_c, 0, 62, 77
1, 31824, Note_on_c, 0, 47, 84
1, 31869, Note_on_c, 0, 71, 0
1, 31869, Note_on_c, 0, 62, 0
1, 31869, Note_on_c, 0, 47, 0
1, 31872, Note_on_c, 0, 63, 84
1, 31872, Note_on_c, 0, 59, 84
1, 31895, Note_on_c, 0, 63, 0
1, 31896, Note_on_c, 0, 66, 84
1, 31917, Note_on_c, 0, 59, 0
1, 31919, Note_on_c, 0, 66, 0
1, 31920, Note_on_c, 0, 64, 84
1, 31920, Note_on_c, 0, 61, 84
1, 31943, Note_on_c, 0, 64, 0
1, 31944, Note_on_c, 0, 67, 84
1, 31965, Note_on_c, 0, 61, 0
1, 31967, Note_on_c, 0, 67, 0
1, 31968, Note_on_c, 0, 66, 84
1, 31968, Note_on_c, 0, 63, 84
1, 31991, Note_on_c, 0, 66, 0
1, 31992, Note_on_c, 0, 69, 84
1, 32013, Note_on_c, 0, 63, 0
1, 32015, Note_on_c, 0, 69, 0
1, 32016, Note_on_c, 0, 67, 84
1, 32016, Note_on_c, 0, 64, 84
1, 32039, Note_on_c, 0, 67, 0
1, 32040, Note_on_c, 0, 71, 84
1, 32061, Note_on_c, 0, 64, 0
1, 32063, Note_on_c, 0, 71, 0
1, 32064, Note_on_c, 0, 69, 84
1, 32064, Note_on_c, 0, 66, 84
1, 32109, Note_on_c, 0, 69, 0
1, 32112, Note_on_c, 0, 78, 84
1, 32153, Note_on_c, 0, 66, 0
1, 32157, Note_on_c, 0, 78, 0
1, 32160, Note_on_c, 0, 75, 84
1, 32205, Note_on_c, 0, 75, 0
1, 32208, Note_on_c, 0, 69, 84
1, 32208, Note_on_c, 0, 63, 84
1, 32253, Note_on_c, 0, 69, 0
1, 32253, Note_on_c, 0, 63, 0
1, 32256, Note_on_c, 0, 68, 84
1, 32256, Note_on_c, 0, 64, 84
1, 32279, Note_on_c, 0, 68, 0
1, 32280, Note_on_c, 0, 71, 84
1, 32301, Note_on_c, 0, 64, 0
1, 32303, Note_on_c, 0, 71, 0
1, 32304, Note_on_c, 0, 69, 84
1, 32304, Note_on_c, 0, 52, 84
1, 32327, Note_on_c, 0, 69, 0
1, 32328, Note_on_c, 0, 73, 84
1, 32349, Note_on_c, 0, 52, 0
1, 32351, Note_on_c, 0, 73, 0
1, 32352, Note_on_c, 0, 71, 84
1, 32352, Note_on_c, 0, 52, 84
1, 32375, Note_on_c, 0, 71, 0
1, 32376, Note_on_c, 0, 74, 84
1, 32397, Note_on_c, 0, 52, 0
1, 32399, Note_on_c, 0, 74, 0
1, 32400, Note_on_c, 0, 73, 84
1, 32400, Note_on_c, 0, 52, 84
1, 32423, Note_on_c, 0, 73, 0
1, 32424, Note_on_c, 0, 76, 84
1, 32445, Note_on_c, 0, 52, 0
1, 32447, Note_on_c, 0, 76, 0
1, 32448, Note_on_c, 0, 74, 84
1, 32448, Note_on_c, 0, 52, 84
1, 32493, Note_on_c, 0, 74, 0
1, 32496, Note_on_c, 0, 83, 84
1, 32519, Note_on_c, 0, 83, 0
1, 32520, Note_on_c, 0, 81, 84
1, 32537, Note_on_c, 0, 52, 0
1, 32543, Note_on_c, 0, 81, 0
1, 32544, Note_on_c, 0, 80, 84
1, 32567, Note_on_c, 0, 80, 0
1, 32568, Note_on_c, 0, 78, 84
1, 32591, Note_on_c, 0, 78, 0
1, 32592, Note_on_c, 0, 76, 84
1, 32592, Note_on_c, 0, 56, 84
1, 32615, Note_on_c, 0, 76, 0
1, 32616, Note_on_c, 0, 74, 84
1, 32637, Note_on_c, 0, 56, 0
1, 32639, Note_on_c, 0, 74, 0
1, 32640, Note_on_c, 0, 73, 84
1, 32640, Note_on_c, 0, 57, 84
1, 32663, Note_on_c, 0, 73, 0
1, 32664, Note_on_c, 0, 76, 84
1, 32685, Note_on_c, 0, 57, 0
1, 32687, Note_on_c, 0, 76, 0
1, 32688, Note_on_c, 0, 74, 84
1, 32688, Note_on_c, 0, 45, 84
1, 32711, Note_on_c, 0, 74, 0
1, 32712, Note_on_c, 0, 78, 84
1, 32733, Note_on_c, 0, 45, 0
1, 32735, Note_on_c, 0, 78, 0
1, 32736, Note_on_c, 0, 76, 84
1, 32736, Note_on_c, 0, 45, 84
1, 32759, Note_on_c, 0, 76, 0
1, 32760, Note_on_c, 0, 79, 84
1, 32781, Note_on_c, 0, 45, 0
1, 32783, Note_on_c, 0, 79, 0
1, 32784, Note_on_c, 0, 78, 84
1, 32784, Note_on_c, 0, 45, 84
1, 32807, Note_on_c, 0, 78, 0
1, 32808, Note_on_c, 0, 81, 84
1, 32829, Note_on_c, 0, 45, 0
1, 32831, Note_on_c, 0, 81, 0
1, 32832, Note_on_c, 0, 79, 84
1, 32832, Note_on_c, 0, 76, 84
1, 32832, Note_on_c, 0, 45, 84
1, 32855, Note_on_c, 0, 45, 0
1, 32856, Note_on_c, 0, 47, 84
1, 32879, Note_on_c, 0, 47, 0
1, 32880, Note_on_c, 0, 45, 84
1, 32903, Note_on_c, 0, 45, 0
1, 32904, Note_on_c, 0, 43, 84
1, 32927, Note_on_c, 0, 43, 0
1, 32928, Note_on_c, 0, 42, 84
1, 32951, Note_on_c, 0, 42, 0
1, 32952, Note_on_c, 0, 40, 84
1, 32975, Note_on_c, 0, 40, 0
1, 32976, Note_on_c, 0, 38, 84
1, 32999, Note_on_c, 0, 38, 0
1, 33000, Note_on_c, 0, 37, 84
1, 33009, Note_on_c, 0, 79, 0
1, 33009, Note_on_c, 0, 76, 0
1, 33023, Note_on_c, 0, 37, 0
1, 33024, Note_on_c, 0, 78, 84
1, 33024, Note_on_c, 0, 76, 64
1, 33024, Note_on_c, 0, 38, 84
1, 33047, Note_on_c, 0, 38, 0
1, 33048, Note_on_c, 0, 37, 84
1, 33071, Note_on_c, 0, 37, 0
1, 33072, Note_on_c, 0, 38, 84
1, 33095, Note_on_c, 0, 38, 0
1, 33096, Note_on_c, 0, 40, 84
1, 33113, Note_on_c, 0, 76, 0
1, 33119, Note_on_c, 0, 40, 0
1, 33120, Note_on_c, 0, 74, 64
1, 33120, Note_on_c, 0, 42, 84
1, 33143, Note_on_c, 0, 42, 0
1, 33144, Note_on_c, 0, 40, 84
1, 33167, Note_on_c, 0, 40, 0
1, 33168, Note_on_c, 0, 42, 84
1, 33191, Note_on_c, 0, 42, 0
1, 33192, Note_on_c, 0, 43, 84
1, 33201, Note_on_c, 0, 78, 0
1, 33215, Note_on_c, 0, 43, 0
1, 33216, Note_on_c, 0, 76, 84
1, 33216, Note_on_c, 0, 45, 84
1, 33239, Note_on_c, 0, 45, 0
1, 33240, Note_on_c, 0, 44, 84
1, 33263, Note_on_c, 0, 44, 0
1, 33264, Note_on_c, 0, 45, 84
1, 33287, Note_on_c, 0, 45, 0
1, 33288, Note_on_c, 0, 47, 84
1, 33297, Note_on_c, 0, 74, 0
1, 33311, Note_on_c, 0, 47, 0
1, 33312, Note_on_c, 0, 73, 64
1, 33312, Note_on_c, 0, 49, 84
1, 33335, Note_on_c, 0, 49, 0
1, 33336, Note_on_c, 0, 42, 84
1, 33359, Note_on_c, 0, 42, 0
1, 33360, Note_on_c, 0, 44, 84
1, 33383, Note_on_c, 0, 44, 0
1, 33384, Note_on_c, 0, 46, 84
1, 33393, Note_on_c, 0, 76, 0
1, 33407, Note_on_c, 0, 46, 0
1, 33408, Note_on_c, 0, 74, 84
1, 33408, Note_on_c, 0, 47, 84
1, 33431, Note_on_c, 0, 47, 0
1, 33432, Note_on_c, 0, 46, 84
1, 33455, Note_on_c, 0, 46, 0
1, 33456, Note_on_c, 0, 47, 84
1, 33479, Note_on_c, 0, 47, 0
1, 33480, Note_on_c, 0, 49, 84
1, 33497, Note_on_c, 0, 73, 0
1, 33503, Note_on_c, 0, 49, 0
1, 33504, Note_on_c, 0, 71, 64
1, 33504, Note_on_c, 0, 50, 84
1, 33527, Note_on_c, 0, 50, 0
1, 33528, Note_on_c, 0, 49, 84
1, 33551, Note_on_c, 0, 49, 0
1, 33552, Note_on_c, 0, 50, 84
1, 33575, Note_on_c, 0, 50, 0
1, 33576, Note_on_c, 0, 52, 84
1, 33585, Note_on_c, 0, 74, 0
1, 33599, Note_on_c, 0, 52, 0
1, 33600, Note_on_c, 0, 73, 84
1, 33600, Note_on_c, 0, 54, 84
1, 33623, Note_on_c, 0, 54, 0
1, 33624, Note_on_c, 0, 52, 84
1, 33647, Note_on_c, 0, 52, 0
1, 33648, Note_on_c, 0, 54, 84
1, 33671, Note_on_c, 0, 54, 0
1, 33672, Note_on_c, 0, 55, 84
1, 33681, Note_on_c, 0, 71, 0
1, 33689, Note_on_c, 0, 73, 0
1, 33695, Note_on_c, 0, 55, 0
1, 33696, Note_on_c, 0, 72, 84
1, 33696, Note_on_c, 0, 69, 64
1, 33696, Note_on_c, 0, 57, 84
1, 33719, Note_on_c, 0, 57, 0
1, 33720, Note_on_c, 0, 50, 84
1, 33743, Note_on_c, 0, 50, 0
1, 33744, Note_on_c, 0, 52, 84
1, 33767, Note_on_c, 0, 52, 0
1, 33768, Note_on_c, 0, 54, 84
1, 33785, Note_on_c, 0, 72, 0
1, 33791, Note_on_c, 0, 54, 0
1, 33792, Note_on_c, 0, 71, 84
1, 33792, Note_on_c, 0, 55, 84
1, 33815, Note_on_c, 0, 55, 0
1, 33816, Note_on_c, 0, 54, 84
1, 33839, Note_on_c, 0, 54, 0
1, 33840, Note_on_c, 0, 55, 84
1, 33863, Note_on_c, 0, 55, 0
1, 33864, Note_on_c, 0, 57, 84
1, 33881, Note_on_c, 0, 69, 0
1, 33887, Note_on_c, 0, 57, 0
1, 33888, Note_on_c, 0, 67, 64
1, 33888, Note_on_c, 0, 59, 84
1, 33911, Note_on_c, 0, 59, 0
1, 33912, Note_on_c, 0, 57, 84
1, 33935, Note_on_c, 0, 57, 0
1, 33936, Note_on_c, 0, 59, 84
1, 33959, Note_on_c, 0, 59, 0
1, 33960, Note_on_c, 0, 61, 84
1, 33969, Note_on_c, 0, 71, 0
1, 33983, Note_on_c, 0, 61, 0
1, 33984, Note_on_c, 0, 69, 84
1, 33984, Note_on_c, 0, 62, 84
1, 34007, Note_on_c, 0, 62, 0
1, 34008, Note_on_c, 0, 61, 84
1, 34031, Note_on_c, 0, 61, 0
1, 34032, Note_on_c, 0, 62, 84
1, 34055, Note_on_c, 0, 62, 0
1, 34056, Note_on_c, 0, 50, 84
1, 34065, Note_on_c, 0, 67, 0
1, 34079, Note_on_c, 0, 50, 0
1, 34080, Note_on_c, 0, 66, 64
1, 34080, Note_on_c, 0, 63, 84
1, 34103, Note_on_c, 0, 63, 0
1, 34104, Note_on_c, 0, 61, 84
1, 34127, Note_on_c, 0, 61, 0
1, 34128, Note_on_c, 0, 63, 84
1, 34151, Note_on_c, 0, 63, 0
1, 34152, Note_on_c, 0, 51, 84
1, 34161, Note_on_c, 0, 69, 0
1, 34175, Note_on_c, 0, 51, 0
1, 34176, Note_on_c, 0, 67, 84
1, 34176, Note_on_c, 0, 64, 84
1, 34199, Note_on_c, 0, 64, 0
1, 34200, Note_on_c, 0, 63, 84
1, 34223, Note_on_c, 0, 63, 0
1, 34224, Note_on_c, 0, 64, 84
1, 34247, Note_on_c, 0, 64, 0
1, 34248, Note_on_c, 0, 52, 84
1, 34265, Note_on_c, 0, 66, 0
1, 34271, Note_on_c, 0, 52, 0
1, 34272, Note_on_c, 0, 64, 64
1, 34272, Note_on_c, 0, 61, 84
1, 34295, Note_on_c, 0, 61, 0
1, 34296, Note_on_c, 0, 59, 84
1, 34319, Note_on_c, 0, 59, 0
1, 34320, Note_on_c, 0, 61, 84
1, 34343, Note_on_c, 0, 61, 0
1, 34344, Note_on_c, 0, 49, 84
1, 34353, Note_on_c, 0, 67, 0
1, 34367, Note_on_c, 0, 49, 0
1, 34368, Note_on_c, 0, 66, 84
1, 34368, Note_on_c, 0, 58, 84
1, 34391, Note_on_c, 0, 58, 0
1, 34392, Note_on_c, 0, 56, 84
1, 34415, Note_on_c, 0, 56, 0
1, 34416, Note_on_c, 0, 58, 84
1, 34439, Note_on_c, 0, 58, 0
1, 34440, Note_on_c, 0, 46, 84
1, 34449, Note_on_c, 0, 64, 0
1, 34463, Note_on_c, 0, 46, 0
1, 34464, Note_on_c, 0, 62, 64
1, 34464, Note_on_c, 0, 59, 84
1, 34487, Note_on_c, 0, 59, 0
1, 34488, Note_on_c, 0, 58, 84
1, 34511, Note_on_c, 0, 58, 0
1, 34512, Note_on_c, 0, 59, 84
1, 34535, Note_on_c, 0, 59, 0
1, 34536, Note_on_c, 0, 47, 84
1, 34545, Note_on_c, 0, 66, 0
1, 34553, Note_on_c, 0, 62, 0
1, 34559, Note_on_c, 0, 47, 0
1, 34560, Note_on_c, 0, 66, 84
1, 34560, Note_on_c, 0, 61, 84
1, 34560, Note_on_c, 0, 54, 69
1, 34583, Note_on_c, 0, 61, 0
1, 34584, Note_on_c, 0, 59, 84
1, 34607, Note_on_c, 0, 59, 0
1, 34608, Note_on_c, 0, 61, 84
1, 34631, Note_on_c, 0, 61, 0
1, 34632, Note_on_c, 0, 58, 84
1, 34649, Note_on_c, 0, 66, 0
1, 34649, Note_on_c, 0, 54, 0
1, 34655, Note_on_c, 0, 58, 0
1, 34656, Note_on_c, 0, 66, 84
1, 34656, Note_on_c, 0, 62, 84
1, 34656, Note_on_c, 0, 50, 69
1, 34679, Note_on_c, 0, 62, 0
1, 34680, Note_on_c, 0, 61, 84
1, 34703, Note_on_c, 0, 61, 0
1, 34704, Note_on_c, 0, 62, 84
1, 34727, Note_on_c, 0, 62, 0
1, 34728, Note_on_c, 0, 59, 84
1, 34745, Note_on_c, 0, 66, 0
1, 34745, Note_on_c, 0, 50, 0
1, 34751, Note_on_c, 0, 59, 0
1, 34752, Note_on_c, 0, 66, 84
1, 34752, Note_on_c, 0, 64, 84
1, 34752, Note_on_c, 0, 46, 69
1, 34775, Note_on_c, 0, 64, 0
1, 34776, Note_on_c, 0, 62, 84
1, 34799, Note_on_c, 0, 62, 0
1, 34800, Note_on_c, 0, 64, 84
1, 34823, Note_on_c, 0, 64, 0
1, 34824, Note_on_c, 0, 61, 84
1, 34841, Note_on_c, 0, 66, 0
1, 34841, Note_on_c, 0, 46, 0
1, 34847, Note_on_c, 0, 61, 0
1, 34848, Note_on_c, 0, 66, 84
1, 34848, Note_on_c, 0, 62, 84
1, 34848, Note_on_c, 0, 47, 69
1, 34871, Note_on_c, 0, 62, 0
1, 34872, Note_on_c, 0, 61, 84
1, 34895, Note_on_c, 0, 61, 0
1, 34896, Note_on_c, 0, 62, 84
1, 34919, Note_on_c, 0, 62, 0
1, 34920, Note_on_c, 0, 59, 84
1, 34937, Note_on_c, 0, 66, 0
1, 34937, Note_on_c, 0, 47, 0
1, 34943, Note_on_c, 0, 59, 0
1, 34944, Note_on_c, 0, 70, 84
1, 34944, Note_on_c, 0, 61, 84
1, 34944, Note_on_c, 0, 54, 84
1, 34967, Note_on_c, 0, 70, 0
1, 34968, Note_on_c, 0, 68, 84
1, 34989, Note_on_c, 0, 61, 0
1, 34989, Note_on_c, 0, 54, 0
1, 34991, Note_on_c, 0, 68, 0
1, 34992, Note_on_c, 0, 70, 84
1, 34992, Note_on_c, 0, 61, 84
1, 34992, Note_on_c, 0, 54, 84
1, 35015, Note_on_c, 0, 70, 0
1, 35016, Note_on_c, 0, 66, 84
1, 35037, Note_on_c, 0, 61, 0
1, 35037, Note_on_c, 0, 54, 0
1, 35039, Note_on_c, 0, 66, 0
1, 35040, Note_on_c, 0, 71, 84
1, 35040, Note_on_c, 0, 62, 84
1, 35040, Note_on_c, 0, 54, 84
1, 35063, Note_on_c, 0, 71, 0
1, 35064, Note_on_c, 0, 70, 84
1, 35085, Note_on_c, 0, 62, 0
1, 35085, Note_on_c, 0, 54, 0
1, 35087, Note_on_c, 0, 70, 0
1, 35088, Note_on_c, 0, 71, 84
1, 35088, Note_on_c, 0, 62, 84
1, 35088, Note_on_c, 0, 54, 84
1, 35111, Note_on_c, 0, 71, 0
1, 35112, Note_on_c, 0, 66, 84
1, 35133, Note_on_c, 0, 62, 0
1, 35133, Note_on_c, 0, 54, 0
1, 35135, Note_on_c, 0, 66, 0
1, 35136, Note_on_c, 0, 73, 84
1, 35136, Note_on_c, 0, 58, 84
1, 35136, Note_on_c, 0, 54, 84
1, 35159, Note_on_c, 0, 73, 0
1, 35160, Note_on_c, 0, 71, 84
1, 35181, Note_on_c, 0, 58, 0
1, 35181, Note_on_c, 0, 54, 0
1, 35183, Note_on_c, 0, 71, 0
1, 35184, Note_on_c, 0, 73, 84
1, 35184, Note_on_c, 0, 58, 84
1, 35184, Note_on_c, 0, 54, 84
1, 35207, Note_on_c, 0, 73, 0
1, 35208, Note_on_c, 0, 66, 84
1, 35229, Note_on_c, 0, 58, 0
1, 35229, Note_on_c, 0, 54, 0
1, 35231, Note_on_c, 0, 66, 0
1, 35232, Note_on_c, 0, 74, 84
1, 35232, Note_on_c, 0, 59, 84
1, 35232, Note_on_c, 0, 54, 84
1, 35255, Note_on_c, 0, 74, 0
1, 35256, Note_on_c, 0, 73, 84
1, 35277, Note_on_c, 0, 59, 0
1, 35277, Note_on_c, 0, 54, 0
1, 35279, Note_on_c, 0, 73, 0
1, 35280, Note_on_c, 0, 74, 84
1, 35280, Note_on_c, 0, 59, 84
1, 35280, Note_on_c, 0, 54, 84
1, 35303, Note_on_c, 0, 74, 0
1, 35304, Note_on_c, 0, 66, 84
1, 35325, Note_on_c, 0, 59, 0
1, 35325, Note_on_c, 0, 54, 0
1, 35327, Note_on_c, 0, 66, 0
1, 35328, Note_on_c, 0, 61, 84
1, 35328, Note_on_c, 0, 58, 84
1, 35328, Note_on_c, 0, 55, 84
1, 35328, Note_on_c, 0, 52, 84
1, 35352, Note_on_c, 0, 79, 84
1, 35375, Note_on_c, 0, 79, 0
1, 35376, Note_on_c, 0, 76, 84
1, 35399, Note_on_c, 0, 76, 0
1, 35400, Note_on_c, 0, 79, 84
1, 35423, Note_on_c, 0, 79, 0
1, 35424, Note_on_c, 0, 73, 84
1, 35447, Note_on_c, 0, 73, 0
1, 35448, Note_on_c, 0, 76, 84
1, 35471, Note_on_c, 0, 76, 0
1, 35472, Note_on_c, 0, 70, 84
1, 35495, Note_on_c, 0, 70, 0
1, 35496, Note_on_c, 0, 73, 84
1, 35505, Note_on_c, 0, 61, 0
1, 35505, Note_on_c, 0, 58, 0
1, 35505, Note_on_c, 0, 55, 0
1, 35505, Note_on_c, 0, 52, 0
1, 35519, Note_on_c, 0, 73, 0
1, 35520, Note_on_c, 0, 59, 84
1, 35520, Note_on_c, 0, 54, 84
1, 35520, Note_on_c, 0, 50, 84
1, 35544, Note_on_c, 0, 83, 84
1, 35567, Note_on_c, 0, 83, 0
1, 35568, Note_on_c, 0, 78, 84
1, 35591, Note_on_c, 0, 78, 0
1, 35592, Note_on_c, 0, 83, 84
1, 35615, Note_on_c, 0, 83, 0
1, 35616, Note_on_c, 0, 74, 84
1, 35639, Note_on_c, 0, 74, 0
1, 35640, Note_on_c, 0, 78, 84
1, 35663, Note_on_c, 0, 78, 0
1, 35664, Note_on_c, 0, 71, 84
1, 35687, Note_on_c, 0, 71, 0
1, 35688, Note_on_c, 0, 74, 84
1, 35697, Note_on_c, 0, 59, 0
1, 35697, Note_on_c, 0, 54, 0
1, 35697, Note_on_c, 0, 50, 0
1, 35711, Note_on_c, 0, 74, 0
1, 35712, Note_on_c, 0, 61, 84
1, 35712, Note_on_c, 0, 58, 84
1, 35712, Note_on_c, 0, 55, 84
1, 35712, Note_on_c, 0, 52, 84
1, 35736, Note_on_c, 0, 79, 84
1, 35759, Note_on_c, 0, 79, 0
1, 35760, Note_on_c, 0, 76, 84
1, 35783, Note_on_c, 0, 76, 0
1, 35784, Note_on_c, 0, 79, 84
1, 35807, Note_on_c, 0, 79, 0
1, 35808, Note_on_c, 0, 73, 84
1, 35831, Note_on_c, 0, 73, 0
1, 35832, Note_on_c, 0, 76, 84
1, 35855, Note_on_c, 0, 76, 0
1, 35856, Note_on_c, 0, 70, 84
1, 35879, Note_on_c, 0, 70, 0
1, 35880, Note_on_c, 0, 73, 84
1, 35889, Note_on_c, 0, 61, 0
1, 35889, Note_on_c, 0, 58, 0
1, 35889, Note_on_c, 0, 55, 0
1, 35889, Note_on_c, 0, 52, 0
1, 35903, Note_on_c, 0, 73, 0
1, 35904, Note_on_c, 0, 59, 84
1, 35904, Note_on_c, 0, 54, 84
1, 35904, Note_on_c, 0, 50, 84
1, 35928, Note_on_c, 0, 83, 84
1, 35951, Note_on_c, 0, 83, 0
1, 35952, Note_on_c, 0, 78, 84
1, 35975, Note_on_c, 0, 78, 0
1, 35976, Note_on_c, 0, 83, 84
1, 35999, Note_on_c, 0, 83, 0
1, 36000, Note_on_c, 0, 74, 84
1, 36023, Note_on_c, 0, 74, 0
1, 36024, Note_on_c, 0, 78, 84
1, 36047, Note_on_c, 0, 78, 0
1, 36048, Note_on_c, 0, 71, 84
1, 36071, Note_on_c, 0, 71, 0
1, 36072, Note_on_c, 0, 74, 84
1, 36081, Note_on_c, 0, 59, 0
1, 36081, Note_on_c, 0, 54, 0
1, 36081, Note_on_c, 0, 50, 0
1, 36095, Note_on_c, 0, 74, 0
1, 36096, Note_on_c, 0, 60, 84
1, 36096, Note_on_c, 0, 55, 84
1, 36096, Note_on_c, 0, 52, 84
1, 36120, Note_on_c, 0, 84, 84
1, 36143, Note_on_c, 0, 84, 0
1, 36144, Note_on_c, 0, 79, 84
1, 36167, Note_on_c, 0, 79, 0
1, 36168, Note_on_c, 0, 84, 84
1, 36191, Note_on_c, 0, 84, 0
1, 36192, Note_on_c, 0, 76, 84
1, 36215, Note_on_c, 0, 76, 0
1, 36216, Note_on_c, 0, 79, 84
1, 36239, Note_on_c, 0, 79, 0
1, 36240, Note_on_c, 0, 72, 84
1, 36263, Note_on_c, 0, 72, 0
1, 36264, Note_on_c, 0, 76, 84
1, 36273, Note_on_c, 0, 60, 0
1, 36273, Note_on_c, 0, 55, 0
1, 36273, Note_on_c, 0, 52, 0
1, 36287, Note_on_c, 0, 76, 0
1, 36288, Note_on_c, 0, 67, 84
1, 36311, Note_on_c, 0, 67, 0
1, 36312, Note_on_c, 0, 72, 84
1, 36335, Note_on_c, 0, 72, 0
1, 36336, Note_on_c, 0, 64, 84
1, 36359, Note_on_c, 0, 64, 0
1, 36360, Note_on_c, 0, 67, 84
1, 36383, Note_on_c, 0, 67, 0
1, 36384, Note_on_c, 0, 60, 84
1, 36407, Note_on_c, 0, 60, 0
1, 36408, Note_on_c, 0, 64, 84
1, 36431, Note_on_c, 0, 64, 0
1, 36432, Note_on_c, 0, 55, 84
1, 36455, Note_on_c, 0, 55, 0
1, 36456, Note_on_c, 0, 60, 84
1, 36479, Note_on_c, 0, 60, 0
1, 36480, Note_on_c, 0, 53, 84
1, 36480, Note_on_c, 0, 41, 84
1, 36504, Note_on_c, 0, 59, 84
1, 36527, Note_on_c, 0, 59, 0
1, 36528, Note_on_c, 0, 62, 84
1, 36551, Note_on_c, 0, 62, 0
1, 36552, Note_on_c, 0, 65, 84
1, 36575, Note_on_c, 0, 65, 0
1, 36576, Note_on_c, 0, 68, 84
1, 36599, Note_on_c, 0, 68, 0
1, 36600, Note_on_c, 0, 62, 84
1, 36623, Note_on_c, 0, 62, 0
1, 36624, Note_on_c, 0, 65, 84
1, 36647, Note_on_c, 0, 65, 0
1, 36648, Note_on_c, 0, 68, 84
1, 36671, Note_on_c, 0, 68, 0
1, 36672, Note_on_c, 0, 71, 84
1, 36695, Note_on_c, 0, 71, 0
1, 36696, Note_on_c, 0, 65, 84
1, 36719, Note_on_c, 0, 65, 0
1, 36720, Note_on_c, 0, 68, 84
1, 36743, Note_on_c, 0, 68, 0
1, 36744, Note_on_c, 0, 71, 84
1, 36767, Note_on_c, 0, 71, 0
1, 36768, Note_on_c, 0, 74, 84
1, 36791, Note_on_c, 0, 74, 0
1, 36792, Note_on_c, 0, 71, 84
1, 36815, Note_on_c, 0, 71, 0
1, 36816, Note_on_c, 0, 68, 84
1, 36839, Note_on_c, 0, 68, 0
1, 36840, Note_on_c, 0, 65, 84
1, 36849, Note_on_c, 0, 53, 0
1, 36849, Note_on_c, 0, 41, 0
1, 36863, Note_on_c, 0, 65, 0
1, 36864, Note_on_c, 0, 54, 84
1, 36864, Note_on_c, 0, 42, 84
1, 36888, Note_on_c, 0, 59, 84
1, 36911, Note_on_c, 0, 59, 0
1, 36912, Note_on_c, 0, 62, 84
1, 36935, Note_on_c, 0, 62, 0
1, 36936, Note_on_c, 0, 66, 84
1, 36959, Note_on_c, 0, 66, 0
1, 36960, Note_on_c, 0, 71, 84
1, 36983, Note_on_c, 0, 71, 0
1, 36984, Note_on_c, 0, 62, 84
1, 37007, Note_on_c, 0, 62, 0
1, 37008, Note_on_c, 0, 66, 84
1, 37031, Note_on_c, 0, 66, 0
1, 37032, Note_on_c, 0, 71, 84
1, 37055, Note_on_c, 0, 71, 0
1, 37056, Note_on_c, 0, 74, 84
1, 37079, Note_on_c, 0, 74, 0
1, 37080, Note_on_c, 0, 71, 84
1, 37103, Note_on_c, 0, 71, 0
1, 37104, Note_on_c, 0, 74, 84
1, 37127, Note_on_c, 0, 74, 0
1, 37128, Note_on_c, 0, 78, 84
1, 37151, Note_on_c, 0, 78, 0
1, 37152, Note_on_c, 0, 83, 84
1, 37197, Note_on_c, 0, 83, 0
1, 37233, Note_on_c, 0, 54, 0
1, 37233, Note_on_c, 0, 42, 0
1, 37248, Note_on_c, 0, 74, 84
1, 37301, Note_on_c, 0, 74, 0
1, 37302, Note_on_c, 0, 73, 84
1, 37319, Note_on_c, 0, 73, 0
1, 37320, Note_on_c, 0, 74, 84
1, 37337, Note_on_c, 0, 74, 0
1, 37338, Note_on_c, 0, 73, 84
1, 37355, Note_on_c, 0, 73, 0
1, 37356, Note_on_c, 0, 74, 84
1, 37373, Note_on_c, 0, 74, 0
1, 37374, Note_on_c, 0, 73, 84
1, 37391, Note_on_c, 0, 73, 0
1, 37392, Note_on_c, 0, 74, 84
1, 37409, Note_on_c, 0, 74, 0
1, 37410, Note_on_c, 0, 73, 84
1, 37427, Note_on_c, 0, 73, 0
1, 37428, Note_on_c, 0, 74, 84
1, 37440, Note_on_c, 0, 64, 84
1, 37440, Note_on_c, 0, 58, 84
1, 37440, Note_on_c, 0, 54, 84
1, 37444, Note_on_c, 0, 74, 0
1, 37445, Note_on_c, 0, 73, 84
1, 37461, Note_on_c, 0, 73, 0
1, 37462, Note_on_c, 0, 74, 84
1, 37478, Note_on_c, 0, 74, 0
1, 37479, Note_on_c, 0, 73, 84
1, 37495, Note_on_c, 0, 73, 0
1, 37496, Note_on_c, 0, 74, 84
1, 37512, Note_on_c, 0, 74, 0
1, 37513, Note_on_c, 0, 73, 84
1, 37529, Note_on_c, 0, 73, 0
1, 37530, Note_on_c, 0, 74, 84
1, 37546, Note_on_c, 0, 74, 0
1, 37547, Note_on_c, 0, 73, 84
1, 37563, Note_on_c, 0, 73, 0
1, 37564, Note_on_c, 0, 71, 84
1, 37597, Note_on_c, 0, 71, 0
1, 37598, Note_on_c, 0, 73, 84
1, 37617, Note_on_c, 0, 64, 0
1, 37617, Note_on_c, 0, 58, 0
1, 37617, Note_on_c, 0, 54, 0
1, 37631, Note_on_c, 0, 73, 0
1, 37632, Note_on_c, 0, 75, 100
1, 37632, Note_on_c, 0, 69, 69
1, 37632, Note_on_c, 0, 66, 69
1, 37632, Note_on_c, 0, 59, 69
1, 37677, Note_on_c, 0, 69, 0
1, 37677, Note_on_c, 0, 66, 0
1, 37677, Note_on_c, 0, 59, 0
1, 37680, Note_on_c, 0, 75, 0
1, 37680, Note_on_c, 0, 75, 84
1, 37680, Note_on_c, 0, 69, 69
1, 37680, Note_on_c, 0, 66, 69
1, 37680, Note_on_c, 0, 59, 69
1, 37725, Note_on_c, 0, 75, 0
1, 37725, Note_on_c, 0, 69, 0
1, 37725, Note_on_c, 0, 66, 0
1, 37725, Note_on_c, 0, 59, 0
1, 37728, Note_on_c, 0, 75, 84
1, 37728, Note_on_c, 0, 69, 69
1, 37728, Note_on_c, 0, 66, 69
1, 37728, Note_on_c, 0, 59, 69
1, 37773, Note_on_c, 0, 75, 0
1, 37773, Note_on_c, 0, 69, 0
1, 37773, Note_on_c, 0, 66, 0
1, 37773, Note_on_c, 0, 59, 0
1, 37776, Note_on_c, 0, 75, 84
1, 37776, Note_on_c, 0, 69, 69
1, 37776, Note_on_c, 0, 66, 69
1, 37776, Note_on_c, 0, 59, 69
1, 37821, Note_on_c, 0, 75, 0
1, 37821, Note_on_c, 0, 69, 0
1, 37821, Note_on_c, 0, 66, 0
1, 37821, Note_on_c, 0, 59, 0
1, 37824, Note_on_c, 0, 76, 84
1, 37824, Note_on_c, 0, 67, 69
1, 37824, Note_on_c, 0, 59, 69
1, 37836, Note_on_c, 0, 76, 0
1, 37836, Note_on_c, 0, 78, 84
1, 37848, Note_on_c, 0, 78, 0
1, 37848, Note_on_c, 0, 76, 84
1, 37869, Note_on_c, 0, 76, 0
1, 37869, Note_on_c, 0, 67, 0
1, 37872, Note_on_c, 0, 75, 84
1, 37872, Note_on_c, 0, 66, 69
1, 37917, Note_on_c, 0, 75, 0
1, 37917, Note_on_c, 0, 66, 0
1, 37920, Note_on_c, 0, 76, 84
1, 37920, Note_on_c, 0, 67, 69
1, 37965, Note_on_c, 0, 76, 0
1, 37965, Note_on_c, 0, 67, 0
1, 37968, Note_on_c, 0, 79, 84
1, 37968, Note_on_c, 0, 64, 69
1, 38001, Note_on_c, 0, 59, 0
1, 38013, Note_on_c, 0, 79, 0
1, 38013, Note_on_c, 0, 64, 0
1, 38016, Note_on_c, 0, 73, 84
1, 38016, Note_on_c, 0, 67, 69
1, 38016, Note_on_c, 0, 64, 69
1, 38016, Note_on_c, 0, 57, 69
1, 38061, Note_on_c, 0, 73, 0
1, 38061, Note_on_c, 0, 67, 0
1, 38061, Note_on_c, 0, 64, 0
1, 38061, Note_on_c, 0, 57, 0
1, 38064, Note_on_c, 0, 73, 84
1, 38064, Note_on_c, 0, 67, 69
1, 38064, Note_on_c, 0, 64, 69
1, 38064, Note_on_c, 0, 57, 69
1, 38109, Note_on_c, 0, 73, 0
1, 38109, Note_on_c, 0, 67, 0
1, 38109, Note_on_c, 0, 64, 0
1, 38109, Note_on_c, 0, 57, 0
1, 38112, Note_on_c, 0, 73, 84
1, 38112, Note_on_c, 0, 67, 69
1, 38112, Note_on_c, 0, 64, 69
1, 38112, Note_on_c, 0, 57, 69
1, 38157, Note_on_c, 0, 73, 0
1, 38157, Note_on_c, 0, 67, 0
1, 38157, Note_on_c, 0, 64, 0
1, 38157, Note_on_c, 0, 57, 0
1, 38160, Note_on_c, 0, 73, 84
1, 38160, Note_on_c, 0, 67, 69
1, 38160, Note_on_c, 0, 64, 69
1, 38160, Note_on_c, 0, 57, 69
1, 38205, Note_on_c, 0, 73, 0
1, 38205, Note_on_c, 0, 67, 0
1, 38205, Note_on_c, 0, 64, 0
1, 38205, Note_on_c, 0, 57, 0
1, 38208, Note_on_c, 0, 73, 77
1, 38208, Note_on_c, 0, 67, 69
1, 38208, Note_on_c, 0, 64, 69
1, 38208, Note_on_c, 0, 57, 69
1, 38231, Note_on_c, 0, 73, 0
1, 38232, Note_on_c, 0, 74, 77
1, 38255, Note_on_c, 0, 74, 0
1, 38256, Note_on_c, 0, 76, 78
1, 38279, Note_on_c, 0, 76, 0
1, 38280, Note_on_c, 0, 78, 79
1, 38303, Note_on_c, 0, 78, 0
1, 38304, Note_on_c, 0, 79, 80
1, 38327, Note_on_c, 0, 79, 0
1, 38328, Note_on_c, 0, 81, 81
1, 38351, Note_on_c, 0, 81, 0
1, 38352, Note_on_c, 0, 83, 82
1, 38375, Note_on_c, 0, 83, 0
1, 38376, Note_on_c, 0, 85, 83
1, 38385, Note_on_c, 0, 67, 0
1, 38385, Note_on_c, 0, 64, 0
1, 38385, Note_on_c, 0, 57, 0
1, 38399, Note_on_c, 0, 85, 0
1, 38400, Note_on_c, 0, 85, 84
1, 38400, Note_on_c, 0, 62, 84
1, 38400, Note_on_c, 0, 57, 84
1, 38400, Note_on_c, 0, 54, 84
1, 38400, Note_on_c, 0, 50, 84
1, 38412, Note_on_c, 0, 85, 0
1, 38412, Note_on_c, 0, 86, 100
1, 38448, Note_on_c, 0, 86, 0
1, 38448, Note_on_c, 0, 74, 77
1, 38489, Note_on_c, 0, 62, 0
1, 38489, Note_on_c, 0, 57, 0
1, 38489, Note_on_c, 0, 54, 0
1, 38489, Note_on_c, 0, 50, 0
1, 38493, Note_on_c, 0, 74, 0
1, 38496, Note_on_c, 0, 74, 77
1, 38541, Note_on_c, 0, 74, 0
1, 38544, Note_on_c, 0, 74, 77
1, 38544, Note_on_c, 0, 69, 77
1, 38544, Note_on_c, 0, 66, 77
1, 38589, Note_on_c, 0, 74, 0
1, 38589, Note_on_c, 0, 69, 0
1, 38589, Note_on_c, 0, 66, 0
1, 38592, Note_on_c, 0, 76, 77
1, 38592, Note_on_c, 0, 71, 77
1, 38592, Note_on_c, 0, 67, 77
1, 38604, Note_on_c, 0, 76, 0
1, 38604, Note_on_c, 0, 78, 77
1, 38616, Note_on_c, 0, 78, 0
1, 38616, Note_on_c, 0, 76, 77
1, 38637, Note_on_c, 0, 76, 0
1, 38637, Note_on_c, 0, 71, 0
1, 38637, Note_on_c, 0, 67, 0
1, 38640, Note_on_c, 0, 74, 77
1, 38640, Note_on_c, 0, 69, 77
1, 38640, Note_on_c, 0, 66, 77
1, 38685, Note_on_c, 0, 74, 0
1, 38685, Note_on_c, 0, 69, 0
1, 38685, Note_on_c, 0, 66, 0
1, 38688, Note_on_c, 0, 76, 77
1, 38688, Note_on_c, 0, 71, 77
1, 38688, Note_on_c, 0, 67, 77
1, 38700, Note_on_c, 0, 76, 0
1, 38700, Note_on_c, 0, 78, 77
1, 38712, Note_on_c, 0, 78, 0
1, 38712, Note_on_c, 0, 76, 77
1, 38733, Note_on_c, 0, 76, 0
1, 38733, Note_on_c, 0, 71, 0
1, 38733, Note_on_c, 0, 67, 0
1, 38736, Note_on_c, 0, 74, 77
1, 38736, Note_on_c, 0, 69, 77
1, 38736, Note_on_c, 0, 66, 77
1, 38781, Note_on_c, 0, 74, 0
1, 38781, Note_on_c, 0, 69, 0
1, 38781, Note_on_c, 0, 66, 0
1, 38784, Note_on_c, 0, 85, 77
1, 38784, Note_on_c, 0, 69, 77
1, 38784, Note_on_c, 0, 66, 77
1, 38784, Note_on_c, 0, 62, 77
1, 38790, Note_on_c, 0, 85, 0
1, 38790, Note_on_c, 0, 86, 77
1, 38829, Note_on_c, 0, 86, 0
1, 38832, Note_on_c, 0, 74, 77
1, 38873, Note_on_c, 0, 69, 0
1, 38873, Note_on_c, 0, 66, 0
1, 38873, Note_on_c, 0, 62, 0
1, 38877, Note_on_c, 0, 74, 0
1, 38880, Note_on_c, 0, 74, 77
1, 38925, Note_on_c, 0, 74, 0
1, 38928, Note_on_c, 0, 74, 77
1, 38928, Note_on_c, 0, 69, 77
1, 38928, Note_on_c, 0, 66, 77
1, 38973, Note_on_c, 0, 74, 0
1, 38973, Note_on_c, 0, 69, 0
1, 38973, Note_on_c, 0, 66, 0
1, 38976, Note_on_c, 0, 76, 77
1, 38976, Note_on_c, 0, 71, 77
1, 38976, Note_on_c, 0, 67, 77
1, 38988, Note_on_c, 0, 76, 0
1, 38988, Note_on_c, 0, 78, 77
1, 39000, Note_on_c, 0, 78, 0
1, 39000, Note_on_c, 0, 76, 77
1, 39021, Note_on_c, 0, 76, 0
1, 39021, Note_on_c, 0, 71, 0
1, 39021, Note_on_c, 0, 67, 0
1, 39024, Note_on_c, 0, 74, 77
1, 39024, Note_on_c, 0, 69, 77
1, 39024, Note_on_c, 0, 66, 77
1, 39069, Note_on_c, 0, 74, 0
1, 39069, Note_on_c, 0, 69, 0
1, 39069, Note_on_c, 0, 66, 0
1, 39072, Note_on_c, 0, 76, 77
1, 39072, Note_on_c, 0, 71, 77
1, 39072, Note_on_c, 0, 67, 77
1, 39084, Note_on_c, 0, 76, 0
1, 39084, Note_on_c, 0, 78, 77
1, 39096, Note_on_c, 0, 78, 0
1, 39096, Note_on_c, 0, 76, 77
1, 39117, Note_on_c, 0, 76, 0
1, 39117, Note_on_c, 0, 71, 0
1, 39117, Note_on_c, 0, 67, 0
1, 39120, Note_on_c, 0, 74, 77
1, 39120, Note_on_c, 0, 69, 77
1, 39120, Note_on_c, 0, 66, 77
1, 39165, Note_on_c, 0, 74, 0
1, 39165, Note_on_c, 0, 69, 0
1, 39165, Note_on_c, 0, 66, 0
1, 39168, Note_on_c, 0, 79, 77
1, 39168, Note_on_c, 0, 74, 64
1, 39168, Note_on_c, 0, 71, 77
1, 39188, Note_on_c, 0, 79, 0
1, 39188, Note_on_c, 0, 71, 0
1, 39213, Note_on_c, 0, 74, 0
1, 39216, Note_on_c, 0, 79, 77
1, 39216, Note_on_c, 0, 74, 64
1, 39216, Note_on_c, 0, 71, 77
1, 39264, Note_on_c, 0, 79, 0
1, 39264, Note_on_c, 0, 78, 77
1, 39264, Note_on_c, 0, 71, 0
1, 39264, Note_on_c, 0, 69, 77
1, 39284, Note_on_c, 0, 78, 0
1, 39284, Note_on_c, 0, 69, 0
1, 39305, Note_on_c, 0, 74, 0
1, 39312, Note_on_c, 0, 78, 77
1, 39312, Note_on_c, 0, 74, 64
1, 39312, Note_on_c, 0, 69, 77
1, 39360, Note_on_c, 0, 78, 0
1, 39360, Note_on_c, 0, 83, 77
1, 39360, Note_on_c, 0, 69, 0
1, 39360, Note_on_c, 0, 67, 77
1, 39380, Note_on_c, 0, 83, 0
1, 39380, Note_on_c, 0, 67, 0
1, 39401, Note_on_c, 0, 74, 0
1, 39408, Note_on_c, 0, 83, 77
1, 39408, Note_on_c, 0, 74, 64
1, 39408, Note_on_c, 0, 67, 77
1, 39456, Note_on_c, 0, 83, 0
1, 39456, Note_on_c, 0, 81, 77
1, 39456, Note_on_c, 0, 67, 0
1, 39456, Note_on_c, 0, 66, 77
1, 39476, Note_on_c, 0, 81, 0
1, 39476, Note_on_c, 0, 66, 0
1, 39497, Note_on_c, 0, 74, 0
1, 39504, Note_on_c, 0, 81, 77
1, 39504, Note_on_c, 0, 74, 64
1, 39504, Note_on_c, 0, 66, 77
1, 39549, Note_on_c, 0, 81, 0
1, 39549, Note_on_c, 0, 74, 0
1, 39549, Note_on_c, 0, 66, 0
1, 39552, Note_on_c, 0, 79, 77
1, 39552, Note_on_c, 0, 64, 77
1, 39597, Note_on_c, 0, 79, 0
1, 39597, Note_on_c, 0, 64, 0
1, 39600, Note_on_c, 0, 76, 77
1, 39600, Note_on_c, 0, 61, 77
1, 39645, Note_on_c, 0, 76, 0
1, 39645, Note_on_c, 0, 61, 0
1, 39648, Note_on_c, 0, 78, 77
1, 39648, Note_on_c, 0, 62, 77
1, 39693, Note_on_c, 0, 78, 0
1, 39693, Note_on_c, 0, 62, 0
1, 39696, Note_on_c, 0, 74, 77
1, 39696, Note_on_c, 0, 66, 77
1, 39741, Note_on_c, 0, 74, 0
1, 39741, Note_on_c, 0, 66, 0
1, 39744, Note_on_c, 0, 73, 77
1, 39744, Note_on_c, 0, 69, 77
1, 39767, Note_on_c, 0, 73, 0
1, 39768, Note_on_c, 0, 74, 77
1, 39791, Note_on_c, 0, 74, 0
1, 39792, Note_on_c, 0, 76, 77
1, 39815, Note_on_c, 0, 76, 0
1, 39816, Note_on_c, 0, 73, 77
1, 39833, Note_on_c, 0, 69, 0
1, 39839, Note_on_c, 0, 73, 0
1, 39840, Note_on_c, 0, 69, 77
1, 39885, Note_on_c, 0, 69, 0
1, 39936, Note_on_c, 0, 85, 77
1, 39936, Note_on_c, 0, 62, 77
1, 39942, Note_on_c, 0, 85, 0
1, 39942, Note_on_c, 0, 86, 77
1, 39959, Note_on_c, 0, 62, 0
1, 39960, Note_on_c, 0, 69, 77
1, 39981, Note_on_c, 0, 86, 0
1, 39983, Note_on_c, 0, 69, 0
1, 39984, Note_on_c, 0, 74, 77
1, 39984, Note_on_c, 0, 66, 77
1, 40007, Note_on_c, 0, 66, 0
1, 40008, Note_on_c, 0, 69, 77
1, 40029, Note_on_c, 0, 74, 0
1, 40031, Note_on_c, 0, 69, 0
1, 40032, Note_on_c, 0, 74, 77
1, 40032, Note_on_c, 0, 66, 77
1, 40055, Note_on_c, 0, 66, 0
1, 40056, Note_on_c, 0, 69, 77
1, 40077, Note_on_c, 0, 74, 0
1, 40079, Note_on_c, 0, 69, 0
1, 40080, Note_on_c, 0, 74, 77
1, 40080, Note_on_c, 0, 66, 77
1, 40103, Note_on_c, 0, 66, 0
1, 40104, Note_on_c, 0, 69, 77
1, 40125, Note_on_c, 0, 74, 0
1, 40127, Note_on_c, 0, 69, 0
1, 40128, Note_on_c, 0, 76, 77
1, 40128, Note_on_c, 0, 67, 77
1, 40140, Note_on_c, 0, 76, 0
1, 40140, Note_on_c, 0, 78, 77
1, 40151, Note_on_c, 0, 67, 0
1, 40152, Note_on_c, 0, 78, 0
1, 40152, Note_on_c, 0, 76, 77
1, 40152, Note_on_c, 0, 69, 77
1, 40173, Note_on_c, 0, 76, 0
1, 40175, Note_on_c, 0, 69, 0
1, 40176, Note_on_c, 0, 74, 77
1, 40176, Note_on_c, 0, 66, 77
1, 40199, Note_on_c, 0, 66, 0
1, 40200, Note_on_c, 0, 69, 77
1, 40221, Note_on_c, 0, 74, 0
1, 40223, Note_on_c, 0, 69, 0
1, 40224, Note_on_c, 0, 76, 77
1, 40224, Note_on_c, 0, 67, 77
1, 40236, Note_on_c, 0, 76, 0
1, 40236, Note_on_c, 0, 78, 77
1, 40247, Note_on_c, 0, 67, 0
1, 40248, Note_on_c, 0, 78, 0
1, 40248, Note_on_c, 0, 76, 77
1, 40248, Note_on_c, 0, 69, 77
1, 40269, Note_on_c, 0, 76, 0
1, 40271, Note_on_c, 0, 69, 0
1, 40272, Note_on_c, 0, 74, 77
1, 40272, Note_on_c, 0, 66, 77
1, 40295, Note_on_c, 0, 66, 0
1, 40296, Note_on_c, 0, 69, 77
1, 40317, Note_on_c, 0, 74, 0
1, 40319, Note_on_c, 0, 69, 0
1, 40320, Note_on_c, 0, 85, 77
1, 40320, Note_on_c, 0, 62, 77
1, 40326, Note_on_c, 0, 85, 0
1, 40326, Note_on_c, 0, 86, 77
1, 40343, Note_on_c, 0, 62, 0
1, 40344, Note_on_c, 0, 69, 77
1, 40365, Note_on_c, 0, 86, 0
1, 40367, Note_on_c, 0, 69, 0
1, 40368, Note_on_c, 0, 74, 77
1, 40368, Note_on_c, 0, 66, 77
1, 40391, Note_on_c, 0, 66, 0
1, 40392, Note_on_c, 0, 69, 77
1, 40413, Note_on_c, 0, 74, 0
1, 40415, Note_on_c, 0, 69, 0
1, 40416, Note_on_c, 0, 74, 77
1, 40416, Note_on_c, 0, 66, 77
1, 40439, Note_on_c, 0, 66, 0
1, 40440, Note_on_c, 0, 69, 77
1, 40461, Note_on_c, 0, 74, 0
1, 40463, Note_on_c, 0, 69, 0
1, 40464, Note_on_c, 0, 74, 77
1, 40464, Note_on_c, 0, 66, 77
1, 40487, Note_on_c, 0, 66, 0
1, 40488, Note_on_c, 0, 69, 77
1, 40509, Note_on_c, 0, 74, 0
1, 40511, Note_on_c, 0, 69, 0
1, 40512, Note_on_c, 0, 76, 77
1, 40512, Note_on_c, 0, 67, 77
1, 40524, Note_on_c, 0, 76, 0
1, 40524, Note_on_c, 0, 78, 77
1, 40535, Note_on_c, 0, 67, 0
1, 40536, Note_on_c, 0, 78, 0
1, 40536, Note_on_c, 0, 76, 77
1, 40536, Note_on_c, 0, 69, 77
1, 40557, Note_on_c, 0, 76, 0
1, 40559, Note_on_c, 0, 69, 0
1, 40560, Note_on_c, 0, 74, 77
1, 40560, Note_on_c, 0, 66, 77
1, 40583, Note_on_c, 0, 66, 0
1, 40584, Note_on_c, 0, 69, 77
1, 40605, Note_on_c, 0, 74, 0
1, 40607, Note_on_c, 0, 69, 0
1, 40608, Note_on_c, 0, 76, 77
1, 40608, Note_on_c, 0, 67, 77
1, 40620, Note_on_c, 0, 76, 0
1, 40620, Note_on_c, 0, 78, 77
1, 40631, Note_on_c, 0, 67, 0
1, 40632, Note_on_c, 0, 78, 0
1, 40632, Note_on_c, 0, 76, 77
1, 40632, Note_on_c, 0, 69, 77
1, 40653, Note_on_c, 0, 76, 0
1, 40655, Note_on_c, 0, 69, 0
1, 40656, Note_on_c, 0, 74, 77
1, 40656, Note_on_c, 0, 66, 77
1, 40679, Note_on_c, 0, 66, 0
1, 40680, Note_on_c, 0, 69, 77
1, 40701, Note_on_c, 0, 74, 0
1, 40703, Note_on_c, 0, 69, 0
1, 40704, Note_on_c, 0, 79, 77
1, 40704, Note_on_c, 0, 64, 77
1, 40716, Note_on_c, 0, 79, 0
1, 40716, Note_on_c, 0, 81, 77
1, 40727, Note_on_c, 0, 64, 0
1, 40728, Note_on_c, 0, 81, 0
1, 40728, Note_on_c, 0, 79, 77
1, 40728, Note_on_c, 0, 69, 77
1, 40749, Note_on_c, 0, 79, 0
1, 40751, Note_on_c, 0, 69, 0
1, 40752, Note_on_c, 0, 78, 77
1, 40752, Note_on_c, 0, 63, 77
1, 40775, Note_on_c, 0, 63, 0
1, 40776, Note_on_c, 0, 69, 77
1, 40797, Note_on_c, 0, 78, 0
1, 40799, Note_on_c, 0, 69, 0
1, 40800, Note_on_c, 0, 79, 77
1, 40800, Note_on_c, 0, 64, 77
1, 40823, Note_on_c, 0, 64, 0
1, 40824, Note_on_c, 0, 69, 77
1, 40845, Note_on_c, 0, 79, 0
1, 40847, Note_on_c, 0, 69, 0
1, 40848, Note_on_c, 0, 76, 77
1, 40848, Note_on_c, 0, 61, 77
1, 40871, Note_on_c, 0, 61, 0
1, 40872, Note_on_c, 0, 69, 77
1, 40893, Note_on_c, 0, 76, 0
1, 40895, Note_on_c, 0, 69, 0
1, 40896, Note_on_c, 0, 78, 77
1, 40896, Note_on_c, 0, 62, 77
1, 40908, Note_on_c, 0, 78, 0
1, 40908, Note_on_c, 0, 79, 77
1, 40919, Note_on_c, 0, 62, 0
1, 40920, Note_on_c, 0, 79, 0
1, 40920, Note_on_c, 0, 78, 77
1, 40920, Note_on_c, 0, 69, 77
1, 40941, Note_on_c, 0, 78, 0
1, 40943, Note_on_c, 0, 69, 0
1, 40944, Note_on_c, 0, 76, 77
1, 40944, Note_on_c, 0, 61, 77
1, 40967, Note_on_c, 0, 61, 0
1, 40968, Note_on_c, 0, 69, 77
1, 40989, Note_on_c, 0, 76, 0
1, 40991, Note_on_c, 0, 69, 0
1, 40992, Note_on_c, 0, 78, 77
1, 40992, Note_on_c, 0, 62, 77
1, 41015, Note_on_c, 0, 62, 0
1, 41016, Note_on_c, 0, 69, 77
1, 41037, Note_on_c, 0, 78, 0
1, 41039, Note_on_c, 0, 69, 0
1, 41040, Note_on_c, 0, 74, 77
1, 41040, Note_on_c, 0, 66, 77
1, 41063, Note_on_c, 0, 66, 0
1, 41064, Note_on_c, 0, 69, 77
1, 41085, Note_on_c, 0, 74, 0
1, 41087, Note_on_c, 0, 69, 0
1, 41088, Note_on_c, 0, 76, 77
1, 41088, Note_on_c, 0, 67, 77
1, 41100, Note_on_c, 0, 76, 0
1, 41100, Note_on_c, 0, 78, 77
1, 41111, Note_on_c, 0, 67, 0
1, 41112, Note_on_c, 0, 78, 0
1, 41112, Note_on_c, 0, 76, 77
1, 41112, Note_on_c, 0, 69, 77
1, 41133, Note_on_c, 0, 76, 0
1, 41135, Note_on_c, 0, 69, 0
1, 41136, Note_on_c, 0, 75, 77
1, 41136, Note_on_c, 0, 66, 77
1, 41159, Note_on_c, 0, 66, 0
1, 41160, Note_on_c, 0, 69, 77
1, 41181, Note_on_c, 0, 75, 0
1, 41183, Note_on_c, 0, 69, 0
1, 41184, Note_on_c, 0, 76, 77
1, 41184, Note_on_c, 0, 67, 77
1, 41207, Note_on_c, 0, 67, 0
1, 41208, Note_on_c, 0, 69, 77
1, 41229, Note_on_c, 0, 76, 0
1, 41231, Note_on_c, 0, 69, 0
1, 41232, Note_on_c, 0, 73, 77
1, 41232, Note_on_c, 0, 64, 77
1, 41255, Note_on_c, 0, 64, 0
1, 41256, Note_on_c, 0, 69, 77
1, 41277, Note_on_c, 0, 73, 0
1, 41279, Note_on_c, 0, 69, 0
1, 41280, Note_on_c, 0, 74, 77
1, 41280, Note_on_c, 0, 66, 77
1, 41292, Note_on_c, 0, 74, 0
1, 41292, Note_on_c, 0, 76, 77
1, 41303, Note_on_c, 0, 66, 0
1, 41304, Note_on_c, 0, 76, 0
1, 41304, Note_on_c, 0, 74, 77
1, 41304, Note_on_c, 0, 69, 77
1, 41325, Note_on_c, 0, 74, 0
1, 41327, Note_on_c, 0, 69, 0
1, 41328, Note_on_c, 0, 73, 77
1, 41328, Note_on_c, 0, 64, 77
1, 41351, Note_on_c, 0, 64, 0
1, 41352, Note_on_c, 0, 69, 77
1, 41373, Note_on_c, 0, 73, 0
1, 41375, Note_on_c, 0, 69, 0
1, 41376, Note_on_c, 0, 74, 77
1, 41376, Note_on_c, 0, 66, 77
1, 41399, Note_on_c, 0, 66, 0
1, 41400, Note_on_c, 0, 69, 77
1, 41421, Note_on_c, 0, 74, 0
1, 41423, Note_on_c, 0, 69, 0
1, 41424, Note_on_c, 0, 78, 77
1, 41424, Note_on_c, 0, 62, 77
1, 41447, Note_on_c, 0, 62, 0
1, 41448, Note_on_c, 0, 69, 77
1, 41469, Note_on_c, 0, 78, 0
1, 41471, Note_on_c, 0, 69, 0
1, 41472, Note_on_c, 0, 79, 77
1, 41472, Note_on_c, 0, 64, 77
1, 41484, Note_on_c, 0, 79, 0
1, 41484, Note_on_c, 0, 81, 77
1, 41495, Note_on_c, 0, 64, 0
1, 41496, Note_on_c, 0, 81, 0
1, 41496, Note_on_c, 0, 79, 77
1, 41496, Note_on_c, 0, 69, 77
1, 41517, Note_on_c, 0, 79, 0
1, 41519, Note_on_c, 0, 69, 0
1, 41520, Note_on_c, 0, 78, 77
1, 41520, Note_on_c, 0, 63, 77
1, 41543, Note_on_c, 0, 63, 0
1, 41544, Note_on_c, 0, 69, 77
1, 41565, Note_on_c, 0, 78, 0
1, 41567, Note_on_c, 0, 69, 0
1, 41568, Note_on_c, 0, 79, 77
1, 41568, Note_on_c, 0, 64, 77
1, 41591, Note_on_c, 0, 64, 0
1, 41592, Note_on_c, 0, 69, 77
1, 41613, Note_on_c, 0, 79, 0
1, 41615, Note_on_c, 0, 69, 0
1, 41616, Note_on_c, 0, 76, 77
1, 41616, Note_on_c, 0, 61, 77
1, 41639, Note_on_c, 0, 61, 0
1, 41640, Note_on_c, 0, 69, 77
1, 41661, Note_on_c, 0, 76, 0
1, 41663, Note_on_c, 0, 69, 0
1, 41664, Note_on_c, 0, 78, 77
1, 41664, Note_on_c, 0, 62, 77
1, 41676, Note_on_c, 0, 78, 0
1, 41676, Note_on_c, 0, 79, 77
1, 41687, Note_on_c, 0, 62, 0
1, 41688, Note_on_c, 0, 79, 0
1, 41688, Note_on_c, 0, 78, 77
1, 41688, Note_on_c, 0, 69, 77
1, 41709, Note_on_c, 0, 78, 0
1, 41711, Note_on_c, 0, 69, 0
1, 41712, Note_on_c, 0, 76, 77
1, 41712, Note_on_c, 0, 61, 77
1, 41735, Note_on_c, 0, 61, 0
1, 41736, Note_on_c, 0, 69, 77
1, 41757, Note_on_c, 0, 76, 0
1, 41759, Note_on_c, 0, 69, 0
1, 41760, Note_on_c, 0, 78, 77
1, 41760, Note_on_c, 0, 62, 77
1, 41783, Note_on_c, 0, 62, 0
1, 41784, Note_on_c, 0, 69, 77
1, 41805, Note_on_c, 0, 78, 0
1, 41807, Note_on_c, 0, 69, 0
1, 41808, Note_on_c, 0, 74, 77
1, 41808, Note_on_c, 0, 66, 77
1, 41831, Note_on_c, 0, 66, 0
1, 41832, Note_on_c, 0, 69, 77
1, 41853, Note_on_c, 0, 74, 0
1, 41855, Note_on_c, 0, 69, 0
1, 41856, Note_on_c, 0, 76, 77
1, 41856, Note_on_c, 0, 67, 77
1, 41868, Note_on_c, 0, 76, 0
1, 41868, Note_on_c, 0, 78, 77
1, 41879, Note_on_c, 0, 67, 0
1, 41880, Note_on_c, 0, 78, 0
1, 41880, Note_on_c, 0, 76, 77
1, 41880, Note_on_c, 0, 71, 77
1, 41901, Note_on_c, 0, 76, 0
1, 41903, Note_on_c, 0, 71, 0
1, 41904, Note_on_c, 0, 75, 77
1, 41904, Note_on_c, 0, 66, 77
1, 41927, Note_on_c, 0, 66, 0
1, 41928, Note_on_c, 0, 69, 78
1, 41949, Note_on_c, 0, 75, 0
1, 41951, Note_on_c, 0, 69, 0
1, 41952, Note_on_c, 0, 76, 78
1, 41952, Note_on_c, 0, 67, 78
1, 41964, Note_on_c, 0, 76, 0
1, 41964, Note_on_c, 0, 78, 78
1, 41975, Note_on_c, 0, 67, 0
1, 41976, Note_on_c, 0, 78, 0
1, 41976, Note_on_c, 0, 76, 78
1, 41976, Note_on_c, 0, 71, 79
1, 41997, Note_on_c, 0, 76, 0
1, 41999, Note_on_c, 0, 71, 0
1, 42000, Note_on_c, 0, 75, 79
1, 42000, Note_on_c, 0, 66, 79
1, 42023, Note_on_c, 0, 66, 0
1, 42024, Note_on_c, 0, 69, 80
1, 42045, Note_on_c, 0, 75, 0
1, 42047, Note_on_c, 0, 69, 0
1, 42048, Note_on_c, 0, 76, 80
1, 42048, Note_on_c, 0, 67, 80
1, 42060, Note_on_c, 0, 76, 0
1, 42060, Note_on_c, 0, 78, 80
1, 42071, Note_on_c, 0, 67, 0
1, 42072, Note_on_c, 0, 78, 0
1, 42072, Note_on_c, 0, 76, 80
1, 42072, Note_on_c, 0, 71, 80
1, 42093, Note_on_c, 0, 76, 0
1, 42095, Note_on_c, 0, 71, 0
1, 42096, Note_on_c, 0, 75, 81
1, 42096, Note_on_c, 0, 66, 81
1, 42119, Note_on_c, 0, 66, 0
1, 42120, Note_on_c, 0, 69, 81
1, 42141, Note_on_c, 0, 75, 0
1, 42143, Note_on_c, 0, 69, 0
1, 42144, Note_on_c, 0, 76, 82
1, 42144, Note_on_c, 0, 67, 82
1, 42156, Note_on_c, 0, 76, 0
1, 42156, Note_on_c, 0, 78, 82
1, 42167, Note_on_c, 0, 67, 0
1, 42168, Note_on_c, 0, 78, 0
1, 42168, Note_on_c, 0, 76, 82
1, 42168, Note_on_c, 0, 71, 82
1, 42189, Note_on_c, 0, 76, 0
1, 42191, Note_on_c, 0, 71, 0
1, 42192, Note_on_c, 0, 75, 83
1, 42192, Note_on_c, 0, 66, 83
1, 42215, Note_on_c, 0, 66, 0
1, 42216, Note_on_c, 0, 69, 83
1, 42237, Note_on_c, 0, 75, 0
1, 42239, Note_on_c, 0, 69, 0
1, 42240, Note_on_c, 0, 76, 84
1, 42240, Note_on_c, 0, 67, 84
1, 42263, Note_on_c, 0, 76, 0
1, 42264, Note_on_c, 0, 79, 84
1, 42287, Note_on_c, 0, 79, 0
1, 42288, Note_on_c, 0, 78, 84
1, 42311, Note_on_c, 0, 78, 0
1, 42312, Note_on_c, 0, 81, 84
1, 42329, Note_on_c, 0, 67, 0
1, 42335, Note_on_c, 0, 81, 0
1, 42336, Note_on_c, 0, 79, 84
1, 42359, Note_on_c, 0, 79, 0
1, 42360, Note_on_c, 0, 83, 84
1, 42383, Note_on_c, 0, 83, 0
1, 42384, Note_on_c, 0, 81, 84
1, 42407, Note_on_c, 0, 81, 0
1, 42408, Note_on_c, 0, 84, 84
1, 42431, Note_on_c, 0, 84, 0
1, 42432, Note_on_c, 0, 83, 84
1, 42455, Note_on_c, 0, 83, 0
1, 42456, Note_on_c, 0, 81, 84
1, 42479, Note_on_c, 0, 81, 0
1, 42480, Note_on_c, 0, 79, 84
1, 42503, Note_on_c, 0, 79, 0
1, 42504, Note_on_c, 0, 78, 84
1, 42527, Note_on_c, 0, 78, 0
1, 42528, Note_on_c, 0, 76, 84
1, 42528, Note_on_c, 0, 68, 84
1, 42551, Note_on_c, 0, 76, 0
1, 42552, Note_on_c, 0, 74, 84
1, 42575, Note_on_c, 0, 74, 0
1, 42576, Note_on_c, 0, 73, 84
1, 42599, Note_on_c, 0, 73, 0
1, 42600, Note_on_c, 0, 71, 84
1, 42617, Note_on_c, 0, 68, 0
1, 42623, Note_on_c, 0, 71, 0
1, 42624, Note_on_c, 0, 69, 84
1, 42624, Note_on_c, 0, 57, 84
1, 42647, Note_on_c, 0, 69, 0
1, 42648, Note_on_c, 0, 81, 84
1, 42671, Note_on_c, 0, 81, 0
1, 42672, Note_on_c, 0, 80, 84
1, 42695, Note_on_c, 0, 80, 0
1, 42696, Note_on_c, 0, 81, 84
1, 42713, Note_on_c, 0, 57, 0
1, 42719, Note_on_c, 0, 81, 0
1, 42720, Note_on_c, 0, 80, 84
1, 42743, Note_on_c, 0, 80, 0
1, 42744, Note_on_c, 0, 81, 84
1, 42767, Note_on_c, 0, 81, 0
1, 42768, Note_on_c, 0, 80, 84
1, 42791, Note_on_c, 0, 80, 0
1, 42792, Note_on_c, 0, 81, 84
1, 42815, Note_on_c, 0, 81, 0
1, 42816, Note_on_c, 0, 69, 84
1, 42839, Note_on_c, 0, 69, 0
1, 42840, Note_on_c, 0, 79, 84
1, 42863, Note_on_c, 0, 79, 0
1, 42864, Note_on_c, 0, 78, 84
1, 42887, Note_on_c, 0, 78, 0
1, 42888, Note_on_c, 0, 79, 84
1, 42911, Note_on_c, 0, 79, 0
1, 42912, Note_on_c, 0, 78, 84
1, 42935, Note_on_c, 0, 78, 0
1, 42936, Note_on_c, 0, 79, 84
1, 42959, Note_on_c, 0, 79, 0
1, 42960, Note_on_c, 0, 78, 84
1, 42983, Note_on_c, 0, 78, 0
1, 42984, Note_on_c, 0, 79, 84
1, 43007, Note_on_c, 0, 79, 0
1, 43008, Note_on_c, 0, 69, 84
1, 43008, Note_on_c, 0, 57, 84
1, 43031, Note_on_c, 0, 69, 0
1, 43031, Note_on_c, 0, 57, 0
1, 43032, Note_on_c, 0, 78, 84
1, 43032, Note_on_c, 0, 69, 84
1, 43055, Note_on_c, 0, 78, 0
1, 43055, Note_on_c, 0, 69, 0
1, 43056, Note_on_c, 0, 77, 84
1, 43056, Note_on_c, 0, 68, 84
1, 43079, Note_on_c, 0, 77, 0
1, 43079, Note_on_c, 0, 68, 0
1, 43080, Note_on_c, 0, 78, 84
1, 43080, Note_on_c, 0, 69, 84
1, 43103, Note_on_c, 0, 78, 0
1, 43103, Note_on_c, 0, 69, 0
1, 43104, Note_on_c, 0, 77, 84
1, 43104, Note_on_c, 0, 68, 84
1, 43127, Note_on_c, 0, 77, 0
1, 43127, Note_on_c, 0, 68, 0
1, 43128, Note_on_c, 0, 78, 84
1, 43128, Note_on_c, 0, 69, 84
1, 43151, Note_on_c, 0, 78, 0
1, 43151, Note_on_c, 0, 69, 0
1, 43152, Note_on_c, 0, 77, 84
1, 43152, Note_on_c, 0, 68, 84
1, 43175, Note_on_c, 0, 77, 0
1, 43175, Note_on_c, 0, 68, 0
1, 43176, Note_on_c, 0, 78, 84
1, 43176, Note_on_c, 0, 69, 84
1, 43199, Note_on_c, 0, 78, 0
1, 43199, Note_on_c, 0, 69, 0
1, 43200, Note_on_c, 0, 69, 84
1, 43200, Note_on_c, 0, 57, 84
1, 43223, Note_on_c, 0, 69, 0
1, 43223, Note_on_c, 0, 57, 0
1, 43224, Note_on_c, 0, 76, 84
1, 43224, Note_on_c, 0, 67, 84
1, 43247, Note_on_c, 0, 76, 0
1, 43247, Note_on_c, 0, 67, 0
1, 43248, Note_on_c, 0, 75, 84
1, 43248, Note_on_c, 0, 66, 84
1, 43271, Note_on_c, 0, 75, 0
1, 43271, Note_on_c, 0, 66, 0
1, 43272, Note_on_c, 0, 76, 84
1, 43272, Note_on_c, 0, 67, 84
1, 43295, Note_on_c, 0, 76, 0
1, 43295, Note_on_c, 0, 67, 0
1, 43296, Note_on_c, 0, 75, 84
1, 43296, Note_on_c, 0, 66, 84
1, 43319, Note_on_c, 0, 75, 0
1, 43319, Note_on_c, 0, 66, 0
1, 43320, Note_on_c, 0, 76, 84
1, 43320, Note_on_c, 0, 67, 84
1, 43343, Note_on_c, 0, 76, 0
1, 43343, Note_on_c, 0, 67, 0
1, 43344, Note_on_c, 0, 75, 84
1, 43344, Note_on_c, 0, 66, 84
1, 43367, Note_on_c, 0, 75, 0
1, 43367, Note_on_c, 0, 66, 0
1, 43368, Note_on_c, 0, 76, 84
1, 43368, Note_on_c, 0, 67, 84
1, 43391, Note_on_c, 0, 76, 0
1, 43391, Note_on_c, 0, 67, 0
1, 43392, Note_on_c, 0, 74, 84
1, 43392, Note_on_c, 0, 66, 84
1, 43392, Note_on_c, 0, 62, 84
1, 43415, Note_on_c, 0, 74, 0
1, 43416, Note_on_c, 0, 69, 84
1, 43439, Note_on_c, 0, 69, 0
1, 43440, Note_on_c, 0, 66, 84
1, 43463, Note_on_c, 0, 66, 0
1, 43464, Note_on_c, 0, 69, 84
1, 43481, Note_on_c, 0, 66, 0
1, 43481, Note_on_c, 0, 62, 0
1, 43487, Note_on_c, 0, 69, 0
1, 43488, Note_on_c, 0, 74, 84
1, 43488, Note_on_c, 0, 62, 84
1, 43511, Note_on_c, 0, 74, 0
1, 43512, Note_on_c, 0, 69, 84
1, 43533, Note_on_c, 0, 62, 0
1, 43535, Note_on_c, 0, 69, 0
1, 43536, Note_on_c, 0, 76, 84
1, 43536, Note_on_c, 0, 61, 84
1, 43559, Note_on_c, 0, 76, 0
1, 43560, Note_on_c, 0, 69, 84
1, 43581, Note_on_c, 0, 61, 0
1, 43583, Note_on_c, 0, 69, 0
1, 43584, Note_on_c, 0, 78, 84
1, 43584, Note_on_c, 0, 62, 84
1, 43607, Note_on_c, 0, 78, 0
1, 43608, Note_on_c, 0, 69, 84
1, 43629, Note_on_c, 0, 62, 0
1, 43631, Note_on_c, 0, 69, 0
1, 43632, Note_on_c, 0, 79, 84
1, 43632, Note_on_c, 0, 64, 84
1, 43655, Note_on_c, 0, 79, 0
1, 43656, Note_on_c, 0, 69, 84
1, 43677, Note_on_c, 0, 64, 0
1, 43679, Note_on_c, 0, 69, 0
1, 43680, Note_on_c, 0, 81, 84
1, 43680, Note_on_c, 0, 66, 84
1, 43703, Note_on_c, 0, 81, 0
1, 43704, Note_on_c, 0, 69, 84
1, 43725, Note_on_c, 0, 66, 0
1, 43727, Note_on_c, 0, 69, 0
1, 43728, Note_on_c, 0, 79, 84
1, 43728, Note_on_c, 0, 64, 84
1, 43751, Note_on_c, 0, 79, 0
1, 43752, Note_on_c, 0, 69, 84
1, 43773, Note_on_c, 0, 64, 0
1, 43775, Note_on_c, 0, 69, 0
1, 43776, Note_on_c, 0, 78, 84
1, 43776, Note_on_c, 0, 62, 84
1, 43776, Note_on_c, 0, 50, 84
1, 43799, Note_on_c, 0, 78, 0
1, 43800, Note_on_c, 0, 74, 84
1, 43823, Note_on_c, 0, 74, 0
1, 43824, Note_on_c, 0, 69, 84
1, 43847, Note_on_c, 0, 69, 0
1, 43848, Note_on_c, 0, 74, 84
1, 43865, Note_on_c, 0, 62, 0
1, 43865, Note_on_c, 0, 50, 0
1, 43871, Note_on_c, 0, 74, 0
1, 43872, Note_on_c, 0, 78, 84
1, 43872, Note_on_c, 0, 62, 84
1, 43895, Note_on_c, 0, 78, 0
1, 43896, Note_on_c, 0, 74, 84
1, 43917, Note_on_c, 0, 62, 0
1, 43919, Note_on_c, 0, 74, 0
1, 43920, Note_on_c, 0, 79, 84
1, 43920, Note_on_c, 0, 64, 84
1, 43943, Note_on_c, 0, 79, 0
1, 43944, Note_on_c, 0, 74, 84
1, 43965, Note_on_c, 0, 64, 0
1, 43967, Note_on_c, 0, 74, 0
1, 43968, Note_on_c, 0, 81, 84
1, 43968, Note_on_c, 0, 66, 84
1, 43991, Note_on_c, 0, 81, 0
1, 43992, Note_on_c, 0, 74, 84
1, 44013, Note_on_c, 0, 66, 0
1, 44015, Note_on_c, 0, 74, 0
1, 44016, Note_on_c, 0, 83, 84
1, 44016, Note_on_c, 0, 67, 84
1, 44039, Note_on_c, 0, 83, 0
1, 44040, Note_on_c, 0, 74, 84
1, 44061, Note_on_c, 0, 67, 0
1, 44063, Note_on_c, 0, 74, 0
1, 44064, Note_on_c, 0, 81, 84
1, 44064, Note_on_c, 0, 66, 84
1, 44087, Note_on_c, 0, 81, 0
1, 44088, Note_on_c, 0, 74, 84
1, 44109, Note_on_c, 0, 66, 0
1, 44111, Note_on_c, 0, 74, 0
1, 44112, Note_on_c, 0, 79, 84
1, 44112, Note_on_c, 0, 64, 84
1, 44135, Note_on_c, 0, 79, 0
1, 44136, Note_on_c, 0, 74, 84
1, 44157, Note_on_c, 0, 64, 0
1, 44159, Note_on_c, 0, 74, 0
1, 44160, Note_on_c, 0, 78, 84
1, 44160, Note_on_c, 0, 62, 84
1, 44183, Note_on_c, 0, 78, 0
1, 44184, Note_on_c, 0, 74, 84
1, 44205, Note_on_c, 0, 62, 0
1, 44207, Note_on_c, 0, 74, 0
1, 44208, Note_on_c, 0, 73, 84
1, 44208, Note_on_c, 0, 66, 84
1, 44231, Note_on_c, 0, 73, 0
1, 44232, Note_on_c, 0, 74, 84
1, 44253, Note_on_c, 0, 66, 0
1, 44255, Note_on_c, 0, 74, 0
1, 44256, Note_on_c, 0, 83, 84
1, 44256, Note_on_c, 0, 67, 84
1, 44279, Note_on_c, 0, 83, 0
1, 44280, Note_on_c, 0, 74, 84
1, 44301, Note_on_c, 0, 67, 0
1, 44303, Note_on_c, 0, 74, 0
1, 44304, Note_on_c, 0, 73, 84
1, 44304, Note_on_c, 0, 71, 84
1, 44327, Note_on_c, 0, 73, 0
1, 44328, Note_on_c, 0, 74, 84
1, 44349, Note_on_c, 0, 71, 0
1, 44351, Note_on_c, 0, 74, 0
1, 44352, Note_on_c, 0, 81, 84
1, 44352, Note_on_c, 0, 66, 84
1, 44375, Note_on_c, 0, 81, 0
1, 44376, Note_on_c, 0, 74, 84
1, 44397, Note_on_c, 0, 66, 0
1, 44399, Note_on_c, 0, 74, 0
1, 44400, Note_on_c, 0, 73, 84
1, 44400, Note_on_c, 0, 69, 84
1, 44423, Note_on_c, 0, 73, 0
1, 44424, Note_on_c, 0, 74, 84
1, 44445, Note_on_c, 0, 69, 0
1, 44447, Note_on_c, 0, 74, 0
1, 44448, Note_on_c, 0, 79, 84
1, 44448, Note_on_c, 0, 64, 84
1, 44471, Note_on_c, 0, 79, 0
1, 44472, Note_on_c, 0, 74, 84
1, 44493, Note_on_c, 0, 64, 0
1, 44495, Note_on_c, 0, 74, 0
1, 44496, Note_on_c, 0, 73, 84
1, 44496, Note_on_c, 0, 67, 84
1, 44519, Note_on_c, 0, 73, 0
1, 44520, Note_on_c, 0, 74, 84
1, 44541, Note_on_c, 0, 67, 0
1, 44543, Note_on_c, 0, 74, 0
1, 44544, Note_on_c, 0, 78, 84
1, 44544, Note_on_c, 0, 62, 84
1, 44567, Note_on_c, 0, 78, 0
1, 44568, Note_on_c, 0, 74, 84
1, 44589, Note_on_c, 0, 62, 0
1, 44591, Note_on_c, 0, 74, 0
1, 44592, Note_on_c, 0, 73, 84
1, 44592, Note_on_c, 0, 66, 84
1, 44615, Note_on_c, 0, 73, 0
1, 44616, Note_on_c, 0, 74, 84
1, 44637, Note_on_c, 0, 66, 0
1, 44639, Note_on_c, 0, 74, 0
1, 44640, Note_on_c, 0, 83, 84
1, 44640, Note_on_c, 0, 67, 84
1, 44663, Note_on_c, 0, 83, 0
1, 44664, Note_on_c, 0, 74, 84
1, 44685, Note_on_c, 0, 67, 0
1, 44687, Note_on_c, 0, 74, 0
1, 44688, Note_on_c, 0, 86, 84
1, 44688, Note_on_c, 0, 71, 84
1, 44711, Note_on_c, 0, 86, 0
1, 44712, Note_on_c, 0, 74, 84
1, 44733, Note_on_c, 0, 71, 0
1, 44735, Note_on_c, 0, 74, 0
1, 44736, Note_on_c, 0, 81, 84
1, 44736, Note_on_c, 0, 66, 84
1, 44759, Note_on_c, 0, 81, 0
1, 44760, Note_on_c, 0, 74, 84
1, 44781, Note_on_c, 0, 66, 0
1, 44783, Note_on_c, 0, 74, 0
1, 44784, Note_on_c, 0, 86, 84
1, 44784, Note_on_c, 0, 69, 84
1, 44807, Note_on_c, 0, 86, 0
1, 44808, Note_on_c, 0, 74, 84
1, 44829, Note_on_c, 0, 69, 0
1, 44831, Note_on_c, 0, 74, 0
1, 44832, Note_on_c, 0, 79, 84
1, 44832, Note_on_c, 0, 64, 84
1, 44855, Note_on_c, 0, 79, 0
1, 44856, Note_on_c, 0, 74, 84
1, 44877, Note_on_c, 0, 64, 0
1, 44879, Note_on_c, 0, 74, 0
1, 44880, Note_on_c, 0, 86, 84
1, 44880, Note_on_c, 0, 67, 84
1, 44903, Note_on_c, 0, 86, 0
1, 44904, Note_on_c, 0, 74, 84
1, 44925, Note_on_c, 0, 67, 0
1, 44927, Note_on_c, 0, 74, 0
1, 44928, Note_on_c, 0, 78, 84
1, 44928, Note_on_c, 0, 62, 84
1, 44951, Note_on_c, 0, 78, 0
1, 44952, Note_on_c, 0, 74, 84
1, 44973, Note_on_c, 0, 62, 0
1, 44975, Note_on_c, 0, 74, 0
1, 44976, Note_on_c, 0, 86, 84
1, 44976, Note_on_c, 0, 66, 84
1, 44999, Note_on_c, 0, 86, 0
1, 45000, Note_on_c, 0, 74, 85
1, 45021, Note_on_c, 0, 66, 0
1, 45023, Note_on_c, 0, 74, 0
1, 45024, Note_on_c, 0, 78, 85
1, 45024, Note_on_c, 0, 62, 85
1, 45047, Note_on_c, 0, 78, 0
1, 45048, Note_on_c, 0, 74, 86
1, 45069, Note_on_c, 0, 62, 0
1, 45071, Note_on_c, 0, 74, 0
1, 45072, Note_on_c, 0, 86, 86
1, 45072, Note_on_c, 0, 66, 86
1, 45095, Note_on_c, 0, 86, 0
1, 45096, Note_on_c, 0, 74, 87
1, 45117, Note_on_c, 0, 66, 0
1, 45119, Note_on_c, 0, 74, 0
1, 45120, Note_on_c, 0, 80, 87
1, 45120, Note_on_c, 0, 59, 87
1, 45143, Note_on_c, 0, 80, 0
1, 45144, Note_on_c, 0, 74, 87
1, 45165, Note_on_c, 0, 59, 0
1, 45167, Note_on_c, 0, 74, 0
1, 45168, Note_on_c, 0, 86, 88
1, 45168, Note_on_c, 0, 62, 88
1, 45191, Note_on_c, 0, 86, 0
1, 45192, Note_on_c, 0, 74, 88
1, 45213, Note_on_c, 0, 62, 0
1, 45215, Note_on_c, 0, 74, 0
1, 45216, Note_on_c, 0, 80, 89
1, 45216, Note_on_c, 0, 59, 89
1, 45239, Note_on_c, 0, 80, 0
1, 45240, Note_on_c, 0, 74, 89
1, 45261, Note_on_c, 0, 59, 0
1, 45263, Note_on_c, 0, 74, 0
1, 45264, Note_on_c, 0, 86, 90
1, 45264, Note_on_c, 0, 62, 90
1, 45287, Note_on_c, 0, 86, 0
1, 45288, Note_on_c, 0, 74, 90
1, 45309, Note_on_c, 0, 62, 0
1, 45311, Note_on_c, 0, 74, 0
1, 45312, Note_on_c, 0, 85, 91
1, 45312, Note_on_c, 0, 81, 91
1, 45312, Note_on_c, 0, 57, 91
1, 45401, Note_on_c, 0, 85, 0
1, 45401, Note_on_c, 0, 81, 0
1, 45401, Note_on_c, 0, 57, 0
1, 45408, Note_on_c, 0, 69, 84
1, 45408, Note_on_c, 0, 61, 84
1, 45408, Note_on_c, 0, 57, 84
1, 45408, Note_on_c, 0, 45, 84
1, 45475, Note_on_c, 0, 69, 0
1, 45475, Note_on_c, 0, 61, 0
1, 45475, Note_on_c, 0, 57, 0
1, 45475, Note_on_c, 0, 45, 0
1, 45480, Note_on_c, 0, 69, 84
1, 45480, Note_on_c, 0, 61, 84
1, 45480, Note_on_c, 0, 57, 84
1, 45480, Note_on_c, 0, 45, 84
1, 45503, Note_on_c, 0, 69, 0
1, 45503, Note_on_c, 0, 61, 0
1, 45503, Note_on_c, 0, 57, 0
1, 45503, Note_on_c, 0, 45, 0
1, 45504, Note_on_c, 0, 69, 84
1, 45504, Note_on_c, 0, 61, 84
1, 45504, Note_on_c, 0, 57, 84
1, 45504, Note_on_c, 0, 45, 84
1, 45593, Note_on_c, 0, 69, 0
1, 45593, Note_on_c, 0, 61, 0
1, 45593, Note_on_c, 0, 57, 0
1, 45593, Note_on_c, 0, 45, 0
1, 45696, Note_on_c, 0, 83, 77
1, 45696, Note_on_c, 0, 66, 69
1, 45696, Note_on_c, 0, 62, 69
1, 45702, Note_on_c, 0, 83, 0
1, 45702, Note_on_c, 0, 81, 77
1, 45719, Note_on_c, 0, 81, 0
1, 45720, Note_on_c, 0, 80, 77
1, 45741, Note_on_c, 0, 66, 0
1, 45741, Note_on_c, 0, 62, 0
1, 45743, Note_on_c, 0, 80, 0
1, 45744, Note_on_c, 0, 81, 77
1, 45744, Note_on_c, 0, 66, 69
1, 45744, Note_on_c, 0, 62, 69
1, 45767, Note_on_c, 0, 81, 0
1, 45768, Note_on_c, 0, 83, 77
1, 45789, Note_on_c, 0, 66, 0
1, 45789, Note_on_c, 0, 62, 0
1, 45791, Note_on_c, 0, 83, 0
1, 45792, Note_on_c, 0, 81, 77
1, 45792, Note_on_c, 0, 66, 69
1, 45792, Note_on_c, 0, 62, 69
1, 45837, Note_on_c, 0, 81, 0
1, 45837, Note_on_c, 0, 66, 0
1, 45837, Note_on_c, 0, 62, 0
1, 45840, Note_on_c, 0, 66, 69
1, 45840, Note_on_c, 0, 62, 69
1, 45885, Note_on_c, 0, 66, 0
1, 45885, Note_on_c, 0, 62, 0
1, 45888, Note_on_c, 0, 74, 77
1, 45888, Note_on_c, 0, 67, 69
1, 45888, Note_on_c, 0, 64, 69
1, 45894, Note_on_c, 0, 74, 0
1, 45894, Note_on_c, 0, 73, 77
1, 45911, Note_on_c, 0, 73, 0
1, 45912, Note_on_c, 0, 71, 77
1, 45933, Note_on_c, 0, 67, 0
1, 45933, Note_on_c, 0, 64, 0
1, 45935, Note_on_c, 0, 71, 0
1, 45936, Note_on_c, 0, 73, 77
1, 45936, Note_on_c, 0, 67, 69
1, 45936, Note_on_c, 0, 64, 69
1, 45959, Note_on_c, 0, 73, 0
1, 45960, Note_on_c, 0, 74, 77
1, 45981, Note_on_c, 0, 67, 0
1, 45981, Note_on_c, 0, 64, 0
1, 45983, Note_on_c, 0, 74, 0
1, 45984, Note_on_c, 0, 73, 77
1, 45984, Note_on_c, 0, 67, 69
1, 45984, Note_on_c, 0, 64, 69
1, 46029, Note_on_c, 0, 73, 0
1, 46029, Note_on_c, 0, 67, 0
1, 46029, Note_on_c, 0, 64, 0
1, 46032, Note_on_c, 0, 67, 69
1, 46032, Note_on_c, 0, 64, 69
1, 46077, Note_on_c, 0, 67, 0
1, 46077, Note_on_c, 0, 64, 0
1, 46080, Note_on_c, 0, 81, 77
1, 46080, Note_on_c, 0, 64, 69
1, 46080, Note_on_c, 0, 61, 69
1, 46086, Note_on_c, 0, 81, 0
1, 46086, Note_on_c, 0, 79, 77
1, 46103, Note_on_c, 0, 79, 0
1, 46104, Note_on_c, 0, 78, 77
1, 46125, Note_on_c, 0, 64, 0
1, 46125, Note_on_c, 0, 61, 0
1, 46127, Note_on_c, 0, 78, 0
1, 46128, Note_on_c, 0, 79, 77
1, 46128, Note_on_c, 0, 64, 69
1, 46128, Note_on_c, 0, 61, 69
1, 46151, Note_on_c, 0, 79, 0
1, 46152, Note_on_c, 0, 81, 77
1, 46173, Note_on_c, 0, 64, 0
1, 46173, Note_on_c, 0, 61, 0
1, 46175, Note_on_c, 0, 81, 0
1, 46176, Note_on_c, 0, 79, 77
1, 46176, Note_on_c, 0, 64, 69
1, 46176, Note_on_c, 0, 61, 69
1, 46221, Note_on_c, 0, 79, 0
1, 46221, Note_on_c, 0, 64, 0
1, 46221, Note_on_c, 0, 61, 0
1, 46224, Note_on_c, 0, 64, 69
1, 46224, Note_on_c, 0, 61, 69
1, 46269, Note_on_c, 0, 64, 0
1, 46269, Note_on_c, 0, 61, 0
1, 46272, Note_on_c, 0, 79, 77
1, 46272, Note_on_c, 0, 66, 69
1, 46272, Note_on_c, 0, 62, 69
1, 46278, Note_on_c, 0, 79, 0
1, 46278, Note_on_c, 0, 78, 77
1, 46295, Note_on_c, 0, 78, 0
1, 46296, Note_on_c, 0, 76, 77
1, 46317, Note_on_c, 0, 66, 0
1, 46317, Note_on_c, 0, 62, 0
1, 46319, Note_on_c, 0, 76, 0
1, 46320, Note_on_c, 0, 78, 77
1, 46320, Note_on_c, 0, 66, 69
1, 46320, Note_on_c, 0, 62, 69
1, 46343, Note_on_c, 0, 78, 0
1, 46344, Note_on_c, 0, 79, 77
1, 46365, Note_on_c, 0, 66, 0
1, 46365, Note_on_c, 0, 62, 0
1, 46367, Note_on_c, 0, 79, 0
1, 46368, Note_on_c, 0, 78, 77
1, 46368, Note_on_c, 0, 66, 69
1, 46368, Note_on_c, 0, 62, 69
1, 46413, Note_on_c, 0, 78, 0
1, 46413, Note_on_c, 0, 66, 0
1, 46413, Note_on_c, 0, 62, 0
1, 46416, Note_on_c, 0, 66, 69
1, 46416, Note_on_c, 0, 62, 69
1, 46461, Note_on_c, 0, 66, 0
1, 46461, Note_on_c, 0, 62, 0
1, 46464, Note_on_c, 0, 78, 77
1, 46464, Note_on_c, 0, 59, 69
1, 46464, Note_on_c, 0, 55, 69
1, 46470, Note_on_c, 0, 78, 0
1, 46470, Note_on_c, 0, 76, 77
1, 46487, Note_on_c, 0, 76, 0
1, 46488, Note_on_c, 0, 75, 77
1, 46509, Note_on_c, 0, 59, 0
1, 46509, Note_on_c, 0, 55, 0
1, 46511, Note_on_c, 0, 75, 0
1, 46512, Note_on_c, 0, 76, 77
1, 46512, Note_on_c, 0, 59, 71
1, 46512, Note_on_c, 0, 55, 71
1, 46535, Note_on_c, 0, 76, 0
1, 46536, Note_on_c, 0, 78, 77
1, 46557, Note_on_c, 0, 59, 0
1, 46557, Note_on_c, 0, 55, 0
1, 46559, Note_on_c, 0, 78, 0
1, 46560, Note_on_c, 0, 76, 77
1, 46560, Note_on_c, 0, 59, 73
1, 46560, Note_on_c, 0, 55, 73
1, 46605, Note_on_c, 0, 76, 0
1, 46605, Note_on_c, 0, 59, 0
1, 46605, Note_on_c, 0, 55, 0
1, 46608, Note_on_c, 0, 59, 75
1, 46608, Note_on_c, 0, 55, 75
1, 46653, Note_on_c, 0, 59, 0
1, 46653, Note_on_c, 0, 55, 0
1, 46656, Note_on_c, 0, 67, 77
1, 46656, Note_on_c, 0, 64, 77
1, 46656, Note_on_c, 0, 59, 77
1, 46656, Note_on_c, 0, 55, 77
1, 46701, Note_on_c, 0, 67, 0
1, 46701, Note_on_c, 0, 64, 0
1, 46704, Note_on_c, 0, 79, 77
1, 46704, Note_on_c, 0, 76, 77
1, 46745, Note_on_c, 0, 59, 0
1, 46745, Note_on_c, 0, 55, 0
1, 46749, Note_on_c, 0, 79, 0
1, 46749, Note_on_c, 0, 76, 0
1, 46752, Note_on_c, 0, 79, 77
1, 46752, Note_on_c, 0, 76, 77
1, 46797, Note_on_c, 0, 79, 0
1, 46797, Note_on_c, 0, 76, 0
1, 46800, Note_on_c, 0, 78, 77
1, 46800, Note_on_c, 0, 75, 77
1, 46845, Note_on_c, 0, 78, 0
1, 46845, Note_on_c, 0, 75, 0
1, 46848, Note_on_c, 0, 78, 77
1, 46848, Note_on_c, 0, 47, 77
1, 46848, Note_on_c, 0, 43, 77
1, 46854, Note_on_c, 0, 78, 0
1, 46854, Note_on_c, 0, 76, 77
1, 46871, Note_on_c, 0, 76, 0
1, 46872, Note_on_c, 0, 75, 77
1, 46893, Note_on_c, 0, 47, 0
1, 46893, Note_on_c, 0, 43, 0
1, 46895, Note_on_c, 0, 75, 0
1, 46896, Note_on_c, 0, 76, 77
1, 46896, Note_on_c, 0, 59, 77
1, 46896, Note_on_c, 0, 55, 77
1, 46919, Note_on_c, 0, 76, 0
1, 46920, Note_on_c, 0, 78, 77
1, 46941, Note_on_c, 0, 59, 0
1, 46941, Note_on_c, 0, 55, 0
1, 46943, Note_on_c, 0, 78, 0
1, 46944, Note_on_c, 0, 76, 77
1, 46944, Note_on_c, 0, 59, 77
1, 46944, Note_on_c, 0, 55, 77
1, 46989, Note_on_c, 0, 76, 0
1, 46989, Note_on_c, 0, 59, 0
1, 46989, Note_on_c, 0, 55, 0
1, 46992, Note_on_c, 0, 57, 77
1, 46992, Note_on_c, 0, 54, 77
1, 47037, Note_on_c, 0, 57, 0
1, 47037, Note_on_c, 0, 54, 0
1, 47040, Note_on_c, 0, 67, 77
1, 47040, Note_on_c, 0, 64, 77
1, 47040, Note_on_c, 0, 59, 77
1, 47040, Note_on_c, 0, 55, 77
1, 47085, Note_on_c, 0, 67, 0
1, 47085, Note_on_c, 0, 64, 0
1, 47088, Note_on_c, 0, 79, 77
1, 47088, Note_on_c, 0, 76, 77
1, 47129, Note_on_c, 0, 59, 0
1, 47129, Note_on_c, 0, 55, 0
1, 47133, Note_on_c, 0, 79, 0
1, 47133, Note_on_c, 0, 76, 0
1, 47136, Note_on_c, 0, 79, 77
1, 47136, Note_on_c, 0, 76, 77
1, 47181, Note_on_c, 0, 79, 0
1, 47181, Note_on_c, 0, 76, 0
1, 47184, Note_on_c, 0, 78, 77
1, 47184, Note_on_c, 0, 75, 77
1, 47229, Note_on_c, 0, 78, 0
1, 47229, Note_on_c, 0, 75, 0
1, 47232, Note_on_c, 0, 78, 77
1, 47232, Note_on_c, 0, 47, 77
1, 47232, Note_on_c, 0, 43, 77
1, 47238, Note_on_c, 0, 78, 0
1, 47238, Note_on_c, 0, 76, 77
1, 47255, Note_on_c, 0, 76, 0
1, 47256, Note_on_c, 0, 75, 77
1, 47277, Note_on_c, 0, 47, 0
1, 47277, Note_on_c, 0, 43, 0
1, 47279, Note_on_c, 0, 75, 0
1, 47280, Note_on_c, 0, 76, 77
1, 47280, Note_on_c, 0, 59, 77
1, 47280, Note_on_c, 0, 55, 77
1, 47303, Note_on_c, 0, 76, 0
1, 47304, Note_on_c, 0, 78, 78
1, 47325, Note_on_c, 0, 59, 0
1, 47325, Note_on_c, 0, 55, 0
1, 47327, Note_on_c, 0, 78, 0
1, 47328, Note_on_c, 0, 76, 78
1, 47328, Note_on_c, 0, 59, 78
1, 47328, Note_on_c, 0, 55, 78
1, 47373, Note_on_c, 0, 76, 0
1, 47373, Note_on_c, 0, 59, 0
1, 47373, Note_on_c, 0, 55, 0
1, 47376, Note_on_c, 0, 59, 79
1, 47376, Note_on_c, 0, 55, 79
1, 47421, Note_on_c, 0, 59, 0
1, 47421, Note_on_c, 0, 55, 0
1, 47424, Note_on_c, 0, 76, 80
1, 47424, Note_on_c, 0, 59, 80
1, 47424, Note_on_c, 0, 56, 80
1, 47430, Note_on_c, 0, 76, 0
1, 47430, Note_on_c, 0, 74, 80
1, 47447, Note_on_c, 0, 74, 0
1, 47448, Note_on_c, 0, 73, 80
1, 47469, Note_on_c, 0, 59, 0
1, 47469, Note_on_c, 0, 56, 0
1, 47471, Note_on_c, 0, 73, 0
1, 47472, Note_on_c, 0, 74, 81
1, 47472, Note_on_c, 0, 59, 81
1, 47472, Note_on_c, 0, 56, 81
1, 47495, Note_on_c, 0, 74, 0
1, 47496, Note_on_c, 0, 76, 81
1, 47517, Note_on_c, 0, 59, 0
1, 47517, Note_on_c, 0, 56, 0
1, 47519, Note_on_c, 0, 76, 0
1, 47520, Note_on_c, 0, 74, 82
1, 47520, Note_on_c, 0, 59, 82
1, 47520, Note_on_c, 0, 56, 82
1, 47565, Note_on_c, 0, 74, 0
1, 47565, Note_on_c, 0, 59, 0
1, 47565, Note_on_c, 0, 56, 0
1, 47568, Note_on_c, 0, 59, 83
1, 47568, Note_on_c, 0, 56, 83
1, 47613, Note_on_c, 0, 59, 0
1, 47613, Note_on_c, 0, 56, 0
1, 47616, Note_on_c, 0, 81, 100
1, 47616, Note_on_c, 0, 45, 84
1, 47639, Note_on_c, 0, 45, 0
1, 47640, Note_on_c, 0, 49, 84
1, 47663, Note_on_c, 0, 49, 0
1, 47664, Note_on_c, 0, 81, 0
1, 47664, Note_on_c, 0, 69, 84
1, 47664, Note_on_c, 0, 47, 84
1, 47687, Note_on_c, 0, 47, 0
1, 47688, Note_on_c, 0, 50, 84
1, 47709, Note_on_c, 0, 69, 0
1, 47711, Note_on_c, 0, 50, 0
1, 47712, Note_on_c, 0, 69, 84
1, 47712, Note_on_c, 0, 49, 84
1, 47735, Note_on_c, 0, 49, 0
1, 47736, Note_on_c, 0, 52, 84
1, 47757, Note_on_c, 0, 69, 0
1, 47759, Note_on_c, 0, 52, 0
1, 47760, Note_on_c, 0, 69, 84
1, 47760, Note_on_c, 0, 50, 84
1, 47783, Note_on_c, 0, 50, 0
1, 47784, Note_on_c, 0, 54, 84
1, 47805, Note_on_c, 0, 69, 0
1, 47807, Note_on_c, 0, 54, 0
1, 47808, Note_on_c, 0, 69, 84
1, 47808, Note_on_c, 0, 52, 84
1, 47831, Note_on_c, 0, 69, 0
1, 47832, Note_on_c, 0, 71, 84
1, 47855, Note_on_c, 0, 71, 0
1, 47856, Note_on_c, 0, 69, 84
1, 47879, Note_on_c, 0, 69, 0
1, 47880, Note_on_c, 0, 67, 84
1, 47903, Note_on_c, 0, 67, 0
1, 47904, Note_on_c, 0, 66, 84
1, 47904, Note_on_c, 0, 55, 84
1, 47927, Note_on_c, 0, 66, 0
1, 47928, Note_on_c, 0, 64, 84
1, 47951, Note_on_c, 0, 64, 0
1, 47952, Note_on_c, 0, 62, 84
1, 47975, Note_on_c, 0, 62, 0
1, 47976, Note_on_c, 0, 61, 84
1, 47985, Note_on_c, 0, 52, 0
1, 47993, Note_on_c, 0, 55, 0
1, 47999, Note_on_c, 0, 61, 0
1, 48000, Note_on_c, 0, 62, 84
1, 48000, Note_on_c, 0, 54, 84
1, 48000, Note_on_c, 0, 54, 84
1, 48023, Note_on_c, 0, 62, 0
1, 48024, Note_on_c, 0, 66, 84
1, 48047, Note_on_c, 0, 66, 0
1, 48048, Note_on_c, 0, 64, 84
1, 48071, Note_on_c, 0, 64, 0
1, 48072, Note_on_c, 0, 67, 84
1, 48089, Note_on_c, 0, 54, 0
1, 48089, Note_on_c, 0, 54, 0
1, 48095, Note_on_c, 0, 67, 0
1, 48096, Note_on_c, 0, 66, 84
1, 48119, Note_on_c, 0, 66, 0
1, 48120, Note_on_c, 0, 69, 84
1, 48143, Note_on_c, 0, 69, 0
1, 48144, Note_on_c, 0, 67, 84
1, 48167, Note_on_c, 0, 67, 0
1, 48168, Note_on_c, 0, 71, 84
1, 48191, Note_on_c, 0, 71, 0
1, 48192, Note_on_c, 0, 69, 84
1, 48237, Note_on_c, 0, 69, 0
1, 48240, Note_on_c, 0, 71, 84
1, 48263, Note_on_c, 0, 71, 0
1, 48264, Note_on_c, 0, 73, 84
1, 48287, Note_on_c, 0, 73, 0
1, 48288, Note_on_c, 0, 74, 84
1, 48311, Note_on_c, 0, 74, 0
1, 48312, Note_on_c, 0, 76, 84
1, 48335, Note_on_c, 0, 76, 0
1, 48336, Note_on_c, 0, 78, 84
1, 48359, Note_on_c, 0, 78, 0
1, 48360, Note_on_c, 0, 79, 84
1, 48383, Note_on_c, 0, 79, 0
1, 48384, Note_on_c, 0, 81, 100
1, 48384, Note_on_c, 0, 45, 84
1, 48407, Note_on_c, 0, 45, 0
1, 48408, Note_on_c, 0, 49, 84
1, 48431, Note_on_c, 0, 49, 0
1, 48432, Note_on_c, 0, 81, 0
1, 48432, Note_on_c, 0, 69, 84
1, 48432, Note_on_c, 0, 47, 84
1, 48455, Note_on_c, 0, 47, 0
1, 48456, Note_on_c, 0, 50, 84
1, 48477, Note_on_c, 0, 69, 0
1, 48479, Note_on_c, 0, 50, 0
1, 48480, Note_on_c, 0, 69, 84
1, 48480, Note_on_c, 0, 49, 84
1, 48503, Note_on_c, 0, 49, 0
1, 48504, Note_on_c, 0, 52, 84
1, 48525, Note_on_c, 0, 69, 0
1, 48527, Note_on_c, 0, 52, 0
1, 48528, Note_on_c, 0, 69, 84
1, 48528, Note_on_c, 0, 50, 84
1, 48551, Note_on_c, 0, 50, 0
1, 48552, Note_on_c, 0, 54, 84
1, 48573, Note_on_c, 0, 69, 0
1, 48575, Note_on_c, 0, 54, 0
1, 48576, Note_on_c, 0, 69, 84
1, 48576, Note_on_c, 0, 52, 84
1, 48599, Note_on_c, 0, 69, 0
1, 48600, Note_on_c, 0, 71, 84
1, 48623, Note_on_c, 0, 71, 0
1, 48624, Note_on_c, 0, 69, 84
1, 48647, Note_on_c, 0, 69, 0
1, 48648, Note_on_c, 0, 67, 84
1, 48671, Note_on_c, 0, 67, 0
1, 48672, Note_on_c, 0, 66, 84
1, 48672, Note_on_c, 0, 55, 84
1, 48695, Note_on_c, 0, 66, 0
1, 48696, Note_on_c, 0, 64, 84
1, 48719, Note_on_c, 0, 64, 0
1, 48720, Note_on_c, 0, 62, 84
1, 48743, Note_on_c, 0, 62, 0
1, 48744, Note_on_c, 0, 61, 84
1, 48753, Note_on_c, 0, 52, 0
1, 48761, Note_on_c, 0, 55, 0
1, 48767, Note_on_c, 0, 61, 0
1, 48768, Note_on_c, 0, 62, 84
1, 48768, Note_on_c, 0, 54, 84
1, 48768, Note_on_c, 0, 54, 84
1, 48791, Note_on_c, 0, 62, 0
1, 48792, Note_on_c, 0, 66, 84
1, 48815, Note_on_c, 0, 66, 0
1, 48816, Note_on_c, 0, 64, 84
1, 48839, Note_on_c, 0, 64, 0
1, 48840, Note_on_c, 0, 67, 84
1, 48857, Note_on_c, 0, 54, 0
1, 48857, Note_on_c, 0, 54, 0
1, 48863, Note_on_c, 0, 67, 0
1, 48864, Note_on_c, 0, 66, 84
1, 48887, Note_on_c, 0, 66, 0
1, 48888, Note_on_c, 0, 69, 84
1, 48911, Note_on_c, 0, 69, 0
1, 48912, Note_on_c, 0, 67, 84
1, 48935, Note_on_c, 0, 67, 0
1, 48936, Note_on_c, 0, 71, 84
1, 48959, Note_on_c, 0, 71, 0
1, 48960, Note_on_c, 0, 69, 84
1, 49005, Note_on_c, 0, 69, 0
1, 49008, Note_on_c, 0, 71, 84
1, 49031, Note_on_c, 0, 71, 0
1, 49032, Note_on_c, 0, 73, 84
1, 49055, Note_on_c, 0, 73, 0
1, 49056, Note_on_c, 0, 74, 84
1, 49079, Note_on_c, 0, 74, 0
1, 49080, Note_on_c, 0, 76, 84
1, 49103, Note_on_c, 0, 76, 0
1, 49104, Note_on_c, 0, 78, 84
1, 49127, Note_on_c, 0, 78, 0
1, 49128, Note_on_c, 0, 79, 84
1, 49151, Note_on_c, 0, 79, 0
1, 49152, Note_on_c, 0, 81, 100
1, 49152, Note_on_c, 0, 43, 84
1, 49175, Note_on_c, 0, 43, 0
1, 49176, Note_on_c, 0, 81, 0
1, 49176, Note_on_c, 0, 71, 84
1, 49176, Note_on_c, 0, 55, 84
1, 49199, Note_on_c, 0, 71, 0
1, 49199, Note_on_c, 0, 55, 0
1, 49200, Note_on_c, 0, 70, 84
1, 49200, Note_on_c, 0, 54, 84
1, 49223, Note_on_c, 0, 70, 0
1, 49223, Note_on_c, 0, 54, 0
1, 49224, Note_on_c, 0, 71, 84
1, 49224, Note_on_c, 0, 55, 84
1, 49247, Note_on_c, 0, 71, 0
1, 49247, Note_on_c, 0, 55, 0
1, 49248, Note_on_c, 0, 70, 84
1, 49248, Note_on_c, 0, 54, 84
1, 49271, Note_on_c, 0, 70, 0
1, 49271, Note_on_c, 0, 54, 0
1, 49272, Note_on_c, 0, 71, 84
1, 49272, Note_on_c, 0, 55, 84
1, 49295, Note_on_c, 0, 71, 0
1, 49295, Note_on_c, 0, 55, 0
1, 49296, Note_on_c, 0, 70, 84
1, 49296, Note_on_c, 0, 54, 84
1, 49319, Note_on_c, 0, 70, 0
1, 49319, Note_on_c, 0, 54, 0
1, 49320, Note_on_c, 0, 71, 84
1, 49320, Note_on_c, 0, 55, 84
1, 49343, Note_on_c, 0, 71, 0
1, 49343, Note_on_c, 0, 55, 0
1, 49344, Note_on_c, 0, 79, 100
1, 49344, Note_on_c, 0, 52, 84
1, 49367, Note_on_c, 0, 52, 0
1, 49368, Note_on_c, 0, 79, 0
1, 49368, Note_on_c, 0, 67, 84
1, 49368, Note_on_c, 0, 64, 84
1, 49391, Note_on_c, 0, 67, 0
1, 49391, Note_on_c, 0, 64, 0
1, 49392, Note_on_c, 0, 66, 84
1, 49392, Note_on_c, 0, 63, 84
1, 49415, Note_on_c, 0, 66, 0
1, 49415, Note_on_c, 0, 63, 0
1, 49416, Note_on_c, 0, 67, 84
1, 49416, Note_on_c, 0, 64, 84
1, 49439, Note_on_c, 0, 67, 0
1, 49439, Note_on_c, 0, 64, 0
1, 49440, Note_on_c, 0, 66, 84
1, 49440, Note_on_c, 0, 63, 84
1, 49463, Note_on_c, 0, 66, 0
1, 49463, Note_on_c, 0, 63, 0
1, 49464, Note_on_c, 0, 67, 84
1, 49464, Note_on_c, 0, 64, 84
1, 49487, Note_on_c, 0, 67, 0
1, 49487, Note_on_c, 0, 64, 0
1, 49488, Note_on_c, 0, 66, 84
1, 49488, Note_on_c, 0, 63, 84
1, 49511, Note_on_c, 0, 66, 0
1, 49511, Note_on_c, 0, 63, 0
1, 49512, Note_on_c, 0, 67, 84
1, 49512, Note_on_c, 0, 64, 84
1, 49535, Note_on_c, 0, 67, 0
1, 49535, Note_on_c, 0, 64, 0
1, 49536, Note_on_c, 0, 79, 100
1, 49536, Note_on_c, 0, 57, 84
1, 49559, Note_on_c, 0, 57, 0
1, 49560, Note_on_c, 0, 79, 0
1, 49560, Note_on_c, 0, 76, 84
1, 49560, Note_on_c, 0, 61, 84
1, 49583, Note_on_c, 0, 76, 0
1, 49583, Note_on_c, 0, 61, 0
1, 49584, Note_on_c, 0, 75, 84
1, 49584, Note_on_c, 0, 59, 84
1, 49607, Note_on_c, 0, 75, 0
1, 49607, Note_on_c, 0, 59, 0
1, 49608, Note_on_c, 0, 76, 84
1, 49608, Note_on_c, 0, 61, 84
1, 49631, Note_on_c, 0, 76, 0
1, 49631, Note_on_c, 0, 61, 0
1, 49632, Note_on_c, 0, 75, 84
1, 49632, Note_on_c, 0, 59, 84
1, 49655, Note_on_c, 0, 75, 0
1, 49655, Note_on_c, 0, 59, 0
1, 49656, Note_on_c, 0, 76, 84
1, 49656, Note_on_c, 0, 61, 84
1, 49679, Note_on_c, 0, 76, 0
1, 49679, Note_on_c, 0, 61, 0
1, 49680, Note_on_c, 0, 75, 84
1, 49680, Note_on_c, 0, 59, 84
1, 49703, Note_on_c, 0, 75, 0
1, 49703, Note_on_c, 0, 59, 0
1, 49704, Note_on_c, 0, 76, 84
1, 49704, Note_on_c, 0, 61, 84
1, 49727, Note_on_c, 0, 76, 0
1, 49727, Note_on_c, 0, 61, 0
1, 49728, Note_on_c, 0, 78, 100
1, 49728, Note_on_c, 0, 62, 84
1, 49751, Note_on_c, 0, 62, 0
1, 49752, Note_on_c, 0, 78, 0
1, 49752, Note_on_c, 0, 74, 84
1, 49752, Note_on_c, 0, 66, 84
1, 49775, Note_on_c, 0, 74, 0
1, 49775, Note_on_c, 0, 66, 0
1, 49776, Note_on_c, 0, 73, 84
1, 49776, Note_on_c, 0, 64, 84
1, 49799, Note_on_c, 0, 73, 0
1, 49799, Note_on_c, 0, 64, 0
1, 49800, Note_on_c, 0, 74, 84
1, 49800, Note_on_c, 0, 66, 84
1, 49823, Note_on_c, 0, 74, 0
1, 49823, Note_on_c, 0, 66, 0
1, 49824, Note_on_c, 0, 73, 84
1, 49824, Note_on_c, 0, 64, 84
1, 49847, Note_on_c, 0, 73, 0
1, 49847, Note_on_c, 0, 64, 0
1, 49848, Note_on_c, 0, 74, 84
1, 49848, Note_on_c, 0, 66, 84
1, 49871, Note_on_c, 0, 74, 0
1, 49871, Note_on_c, 0, 66, 0
1, 49872, Note_on_c, 0, 73, 84
1, 49872, Note_on_c, 0, 64, 84
1, 49895, Note_on_c, 0, 73, 0
1, 49895, Note_on_c, 0, 64, 0
1, 49896, Note_on_c, 0, 74, 84
1, 49896, Note_on_c, 0, 66, 84
1, 49919, Note_on_c, 0, 74, 0
1, 49919, Note_on_c, 0, 66, 0
1, 49920, Note_on_c, 0, 79, 100
1, 49920, Note_on_c, 0, 57, 77
1, 49944, Note_on_c, 0, 79, 0
1, 49944, Note_on_c, 0, 76, 84
1, 49967, Note_on_c, 0, 76, 0
1, 49968, Note_on_c, 0, 75, 84
1, 49968, Note_on_c, 0, 61, 77
1, 49991, Note_on_c, 0, 75, 0
1, 49992, Note_on_c, 0, 76, 84
1, 50013, Note_on_c, 0, 61, 0
1, 50015, Note_on_c, 0, 76, 0
1, 50016, Note_on_c, 0, 78, 100
1, 50016, Note_on_c, 0, 62, 77
1, 50040, Note_on_c, 0, 78, 0
1, 50040, Note_on_c, 0, 74, 84
1, 50061, Note_on_c, 0, 62, 0
1, 50063, Note_on_c, 0, 74, 0
1, 50064, Note_on_c, 0, 73, 84
1, 50064, Note_on_c, 0, 66, 77
1, 50087, Note_on_c, 0, 73, 0
1, 50088, Note_on_c, 0, 74, 84
1, 50097, Note_on_c, 0, 57, 0
1, 50109, Note_on_c, 0, 66, 0
1, 50111, Note_on_c, 0, 74, 0
1, 50112, Note_on_c, 0, 79, 100
1, 50112, Note_on_c, 0, 57, 77
1, 50136, Note_on_c, 0, 79, 0
1, 50136, Note_on_c, 0, 76, 84
1, 50159, Note_on_c, 0, 76, 0
1, 50160, Note_on_c, 0, 75, 84
1, 50160, Note_on_c, 0, 61, 77
1, 50183, Note_on_c, 0, 75, 0
1, 50184, Note_on_c, 0, 76, 84
1, 50205, Note_on_c, 0, 61, 0
1, 50207, Note_on_c, 0, 76, 0
1, 50208, Note_on_c, 0, 78, 100
1, 50208, Note_on_c, 0, 62, 77
1, 50232, Note_on_c, 0, 78, 0
1, 50232, Note_on_c, 0, 74, 84
1, 50253, Note_on_c, 0, 62, 0
1, 50255, Note_on_c, 0, 74, 0
1, 50256, Note_on_c, 0, 73, 84
1, 50256, Note_on_c, 0, 66, 77
1, 50279, Note_on_c, 0, 73, 0
1, 50280, Note_on_c, 0, 74, 84
1, 50289, Note_on_c, 0, 57, 0
1, 50301, Note_on_c, 0, 66, 0
1, 50303, Note_on_c, 0, 74, 0
1, 50304, Note_on_c, 0, 79, 93
1, 50304, Note_on_c, 0, 57, 69
1, 50328, Note_on_c, 0, 79, 0
1, 50328, Note_on_c, 0, 76, 77
1, 50351, Note_on_c, 0, 76, 0
1, 50352, Note_on_c, 0, 75, 77
1, 50352, Note_on_c, 0, 61, 69
1, 50375, Note_on_c, 0, 75, 0
1, 50376, Note_on_c, 0, 76, 77
1, 50397, Note_on_c, 0, 61, 0
1, 50399, Note_on_c, 0, 76, 0
1, 50400, Note_on_c, 0, 77, 93
1, 50400, Note_on_c, 0, 62, 69
1, 50424, Note_on_c, 0, 77, 0
1, 50424, Note_on_c, 0, 74, 77
1, 50445, Note_on_c, 0, 62, 0
1, 50447, Note_on_c, 0, 74, 0
1, 50448, Note_on_c, 0, 73, 77
1, 50448, Note_on_c, 0, 65, 69
1, 50471, Note_on_c, 0, 73, 0
1, 50472, Note_on_c, 0, 74, 77
1, 50481, Note_on_c, 0, 57, 0
1, 50493, Note_on_c, 0, 65, 0
1, 50495, Note_on_c, 0, 74, 0
1, 50496, Note_on_c, 0, 79, 93
1, 50496, Note_on_c, 0, 57, 69
1, 50520, Note_on_c, 0, 79, 0
1, 50520, Note_on_c, 0, 76, 77
1, 50543, Note_on_c, 0, 76, 0
1, 50544, Note_on_c, 0, 75, 77
1, 50544, Note_on_c, 0, 61, 69
1, 50567, Note_on_c, 0, 75, 0
1, 50568, Note_on_c, 0, 76, 77
1, 50589, Note_on_c, 0, 61, 0
1, 50591, Note_on_c, 0, 76, 0
1, 50592, Note_on_c, 0, 77, 93
1, 50592, Note_on_c, 0, 62, 69
1, 50616, Note_on_c, 0, 77, 0
1, 50616, Note_on_c, 0, 74, 77
1, 50637, Note_on_c, 0, 62, 0
1, 50639, Note_on_c, 0, 74, 0
1, 50640, Note_on_c, 0, 73, 77
1, 50640, Note_on_c, 0, 65, 69
1, 50663, Note_on_c, 0, 73, 0
1, 50664, Note_on_c, 0, 74, 77
1, 50673, Note_on_c, 0, 57, 0
1, 50685, Note_on_c, 0, 65, 0
1, 50687, Note_on_c, 0, 74, 0
1, 50688, Note_on_c, 0, 65, 91
1, 50688, Note_on_c, 0, 62, 91
1, 50688, Note_on_c, 0, 58, 91
1, 50712, Note_on_c, 0, 86, 107
1, 50736, Note_on_c, 0, 86, 0
1, 50736, Note_on_c, 0, 82, 91
1, 50759, Note_on_c, 0, 82, 0
1, 50760, Note_on_c, 0, 86, 91
1, 50777, Note_on_c, 0, 65, 0
1, 50777, Note_on_c, 0, 62, 0
1, 50777, Note_on_c, 0, 58, 0
1, 50783, Note_on_c, 0, 86, 0
1, 50784, Note_on_c, 0, 77, 91
1, 50807, Note_on_c, 0, 77, 0
1, 50808, Note_on_c, 0, 82, 91
1, 50831, Note_on_c, 0, 82, 0
1, 50832, Note_on_c, 0, 74, 91
1, 50855, Note_on_c, 0, 74, 0
1, 50856, Note_on_c, 0, 77, 91
1, 50879, Note_on_c, 0, 77, 0
1, 50880, Note_on_c, 0, 70, 91
1, 50904, Note_on_c, 0, 58, 91
1, 50925, Note_on_c, 0, 70, 0
1, 50927, Note_on_c, 0, 58, 0
1, 50928, Note_on_c, 0, 62, 91
1, 50951, Note_on_c, 0, 62, 0
1, 50952, Note_on_c, 0, 65, 91
1, 50975, Note_on_c, 0, 65, 0
1, 50976, Note_on_c, 0, 70, 91
1, 51000, Note_on_c, 0, 74, 91
1, 51021, Note_on_c, 0, 70, 0
1, 51023, Note_on_c, 0, 74, 0
1, 51024, Note_on_c, 0, 77, 91
1, 51047, Note_on_c, 0, 77, 0
1, 51048, Note_on_c, 0, 82, 91
1, 51071, Note_on_c, 0, 82, 0
1, 51072, Note_on_c, 0, 86, 91
1, 51095, Note_on_c, 0, 86, 0
1, 51096, Note_on_c, 0, 77, 91
1, 51119, Note_on_c, 0, 77, 0
1, 51120, Note_on_c, 0, 82, 91
1, 51143, Note_on_c, 0, 82, 0
1, 51144, Note_on_c, 0, 86, 91
1, 51167, Note_on_c, 0, 86, 0
1, 51168, Note_on_c, 0, 89, 91
1, 51191, Note_on_c, 0, 89, 0
1, 51192, Note_on_c, 0, 77, 91
1, 51215, Note_on_c, 0, 77, 0
1, 51216, Note_on_c, 0, 82, 91
1, 51239, Note_on_c, 0, 82, 0
1, 51240, Note_on_c, 0, 86, 91
1, 51263, Note_on_c, 0, 86, 0
1, 51264, Note_on_c, 0, 89, 91
1, 51309, Note_on_c, 0, 89, 0
1, 51456, Note_on_c, 0, 56, 91
1, 51456, Note_on_c, 0, 44, 91
1, 51480, Note_on_c, 0, 77, 91
1, 51503, Note_on_c, 0, 77, 0
1, 51504, Note_on_c, 0, 74, 91
1, 51527, Note_on_c, 0, 74, 0
1, 51528, Note_on_c, 0, 77, 91
1, 51545, Note_on_c, 0, 56, 0
1, 51545, Note_on_c, 0, 44, 0
1, 51551, Note_on_c, 0, 77, 0
1, 51552, Note_on_c, 0, 71, 91
1, 51552, Note_on_c, 0, 59, 91
1, 51552, Note_on_c, 0, 47, 91
1, 51575, Note_on_c, 0, 71, 0
1, 51576, Note_on_c, 0, 74, 91
1, 51597, Note_on_c, 0, 59, 0
1, 51597, Note_on_c, 0, 47, 0
1, 51599, Note_on_c, 0, 74, 0
1, 51600, Note_on_c, 0, 68, 91
1, 51600, Note_on_c, 0, 56, 91
1, 51600, Note_on_c, 0, 44, 91
1, 51623, Note_on_c, 0, 68, 0
1, 51624, Note_on_c, 0, 71, 91
1, 51645, Note_on_c, 0, 56, 0
1, 51645, Note_on_c, 0, 44, 0
1, 51647, Note_on_c, 0, 71, 0
1, 51648, Note_on_c, 0, 65, 91
1, 51648, Note_on_c, 0, 53, 91
1, 51648, Note_on_c, 0, 41, 91
1, 51671, Note_on_c, 0, 65, 0
1, 51672, Note_on_c, 0, 68, 91
1, 51693, Note_on_c, 0, 53, 0
1, 51693, Note_on_c, 0, 41, 0
1, 51695, Note_on_c, 0, 68, 0
1, 51696, Note_on_c, 0, 62, 91
1, 51696, Note_on_c, 0, 50, 91
1, 51696, Note_on_c, 0, 38, 91
1, 51719, Note_on_c, 0, 62, 0
1, 51720, Note_on_c, 0, 65, 91
1, 51741, Note_on_c, 0, 50, 0
1, 51741, Note_on_c, 0, 38, 0
1, 51743, Note_on_c, 0, 65, 0
1, 51744, Note_on_c, 0, 59, 91
1, 51744, Note_on_c, 0, 47, 91
1, 51744, Note_on_c, 0, 35, 91
1, 51767, Note_on_c, 0, 59, 0
1, 51768, Note_on_c, 0, 62, 91
1, 51789, Note_on_c, 0, 47, 0
1, 51789, Note_on_c, 0, 35, 0
1, 51791, Note_on_c, 0, 62, 0
1, 51792, Note_on_c, 0, 56, 91
1, 51792, Note_on_c, 0, 44, 91
1, 51792, Note_on_c, 0, 32, 91
1, 51815, Note_on_c, 0, 56, 0
1, 51816, Note_on_c, 0, 59, 91
1, 51837, Note_on_c, 0, 44, 0
1, 51837, Note_on_c, 0, 32, 0
1, 51839, Note_on_c, 0, 59, 0
1, 51840, Note_on_c, 0, 45, 91
1, 51840, Note_on_c, 0, 33, 91
1, 51888, Note_on_c, 0, 57, 84
1, 51908, Note_on_c, 0, 57, 0
1, 51936, Note_on_c, 0, 62, 84
1, 51956, Note_on_c, 0, 62, 0
1, 51984, Note_on_c, 0, 66, 84
1, 52004, Note_on_c, 0, 66, 0
1, 52032, Note_on_c, 0, 69, 84
1, 52052, Note_on_c, 0, 69, 0
1, 52080, Note_on_c, 0, 74, 84
1, 52100, Note_on_c, 0, 74, 0
1, 52128, Note_on_c, 0, 78, 84
1, 52148, Note_on_c, 0, 78, 0
1, 52176, Note_on_c, 0, 81, 84
1, 52194, Note_on_c, 0, 45, 0
1, 52194, Note_on_c, 0, 33, 0
1, 52196, Note_on_c, 0, 81, 0
1, 52224, Note_on_c, 0, 45, 84
1, 52244, Note_on_c, 0, 45, 0
1, 52272, Note_on_c, 0, 49, 84
1, 52292, Note_on_c, 0, 49, 0
1, 52320, Note_on_c, 0, 52, 84
1, 52340, Note_on_c, 0, 52, 0
1, 52368, Note_on_c, 0, 55, 84
1, 52388, Note_on_c, 0, 55, 0
1, 52416, Note_on_c, 0, 76, 84
1, 52416, Note_on_c, 0, 67, 84
1, 52416, Note_on_c, 0, 64, 84
1, 52416, Note_on_c, 0, 61, 84
1, 52416, Note_on_c, 0, 57, 84
1, 52434, Note_on_c, 0, 76, 0
1, 52434, Note_on_c, 0, 78, 84
1, 52452, Note_on_c, 0, 78, 0
1, 52452, Note_on_c, 0, 76, 84
1, 52470, Note_on_c, 0, 76, 0
1, 52470, Note_on_c, 0, 78, 84
1, 52488, Note_on_c, 0, 78, 0
1, 52488, Note_on_c, 0, 76, 84
1, 52506, Note_on_c, 0, 76, 0
1, 52506, Note_on_c, 0, 78, 84
1, 52524, Note_on_c, 0, 78, 0
1, 52524, Note_on_c, 0, 76, 84
1, 52542, Note_on_c, 0, 76, 0
1, 52542, Note_on_c, 0, 78, 84
1, 52549, Note_on_c, 0, 78, 0
1, 52560, Note_on_c, 0, 74, 84
1, 52583, Note_on_c, 0, 74, 0
1, 52584, Note_on_c, 0, 76, 84
1, 52593, Note_on_c, 0, 67, 0
1, 52593, Note_on_c, 0, 64, 0
1, 52593, Note_on_c, 0, 61, 0
1, 52593, Note_on_c, 0, 57, 0
1, 52607, Note_on_c, 0, 76, 0
1, 52608, Note_on_c, 0, 74, 84
1, 52608, Note_on_c, 0, 66, 84
1, 52608, Note_on_c, 0, 62, 84
1, 52653, Note_on_c, 0, 74, 0
1, 52697, Note_on_c, 0, 66, 0
1, 52697, Note_on_c, 0, 62, 0
1, 52704, Note_on_c, 0, 74, 84
1, 52704, Note_on_c, 0, 71, 84
1, 52724, Note_on_c, 0, 74, 0
1, 52724, Note_on_c, 0, 71, 0
1, 52752, Note_on_c, 0, 73, 84
1, 52752, Note_on_c, 0, 69, 84
1, 52772, Note_on_c, 0, 73, 0
1, 52772, Note_on_c, 0, 69, 0
1, 52800, Note_on_c, 0, 67, 84
1, 52800, Note_on_c, 0, 71, 84
1, 52812, Note_on_c, 0, 71, 0
1, 52812, Note_on_c, 0, 67, 0
1, 52812, Note_on_c, 0, 66, 84
1, 52812, Note_on_c, 0, 69, 84
1, 52824, Note_on_c, 0, 69, 0
1, 52824, Note_on_c, 0, 66, 0
1, 52824, Note_on_c, 0, 71, 84
1, 52824, Note_on_c, 0, 67, 84
1, 52845, Note_on_c, 0, 71, 0
1, 52845, Note_on_c, 0, 67, 0
1, 52896, Note_on_c, 0, 71, 84
1, 52896, Note_on_c, 0, 67, 84
1, 52916, Note_on_c, 0, 71, 0
1, 52916, Note_on_c, 0, 67, 0
1, 52944, Note_on_c, 0, 69, 84
1, 52944, Note_on_c, 0, 66, 84
1, 52964, Note_on_c, 0, 69, 0
1, 52964, Note_on_c, 0, 66, 0
1, 52992, Note_on_c, 0, 64, 84
1, 52992, Note_on_c, 0, 67, 84
1, 53004, Note_on_c, 0, 67, 0
1, 53004, Note_on_c, 0, 64, 0
1, 53004, Note_on_c, 0, 62, 84
1, 53004, Note_on_c, 0, 66, 84
1, 53016, Note_on_c, 0, 66, 0
1, 53016, Note_on_c, 0, 62, 0
1, 53016, Note_on_c, 0, 67, 84
1, 53016, Note_on_c, 0, 64, 84
1, 53037, Note_on_c, 0, 67, 0
1, 53037, Note_on_c, 0, 64, 0
1, 53088, Note_on_c, 0, 66, 77
1, 53088, Note_on_c, 0, 57, 77
1, 53088, Note_on_c, 0, 54, 77
1, 53088, Note_on_c, 0, 50, 77
1, 53133, Note_on_c, 0, 66, 0
1, 53133, Note_on_c, 0, 57, 0
1, 53133, Note_on_c, 0, 54, 0
1, 53133, Note_on_c, 0, 50, 0
1, 53136, Note_on_c, 0, 66, 77
1, 53136, Note_on_c, 0, 57, 77
1, 53136, Note_on_c, 0, 54, 77
1, 53136, Note_on_c, 0, 50, 77
1, 53181, Note_on_c, 0, 66, 0
1, 53181, Note_on_c, 0, 57, 0
1, 53181, Note_on_c, 0, 54, 0
1, 53181, Note_on_c, 0, 50, 0
1, 53184, Note_on_c, 0, 64, 77
1, 53184, Note_on_c, 0, 59, 77
1, 53184, Note_on_c, 0, 55, 77
1, 53184, Note_on_c, 0, 43, 77
1, 53229, Note_on_c, 0, 64, 0
1, 53229, Note_on_c, 0, 59, 0
1, 53229, Note_on_c, 0, 55, 0
1, 53229, Note_on_c, 0, 43, 0
1, 53280, Note_on_c, 0, 61, 77
1, 53280, Note_on_c, 0, 55, 77
1, 53280, Note_on_c, 0, 52, 77
1, 53280, Note_on_c, 0, 45, 77
1, 53325, Note_on_c, 0, 61, 0
1, 53325, Note_on_c, 0, 55, 0
1, 53325, Note_on_c, 0, 52, 0
1, 53325, Note_on_c, 0, 45, 0
1, 53328, Note_on_c, 0, 61, 77
1, 53328, Note_on_c, 0, 55, 77
1, 53328, Note_on_c, 0, 52, 77
1, 53328, Note_on_c, 0, 45, 77
1, 53373, Note_on_c, 0, 61, 0
1, 53373, Note_on_c, 0, 55, 0
1, 53373, Note_on_c, 0, 52, 0
1, 53373, Note_on_c, 0, 45, 0
1, 53376, Note_on_c, 0, 62, 77
1, 53376, Note_on_c, 0, 54, 77
1, 53376, Note_on_c, 0, 50, 77
1, 53376, Note_on_c, 0, 38, 77
1, 53421, Note_on_c, 0, 62, 0
1, 53421, Note_on_c, 0, 54, 0
1, 53421, Note_on_c, 0, 50, 0
1, 53421, Note_on_c, 0, 38, 0
1, 53472, Note_on_c, 0, 86, 84
1, 53472, Note_on_c, 0, 71, 84
1, 53495, Note_on_c, 0, 86, 0
1, 53495, Note_on_c, 0, 71, 0
1, 53496, Note_on_c, 0, 88, 84
1, 53496, Note_on_c, 0, 73, 84
1, 53519, Note_on_c, 0, 88, 0
1, 53519, Note_on_c, 0, 73, 0
1, 53520, Note_on_c, 0, 85, 84
1, 53520, Note_on_c, 0, 69, 84
1, 53543, Note_on_c, 0, 85, 0
1, 53543, Note_on_c, 0, 69, 0
1, 53544, Note_on_c, 0, 86, 84
1, 53544, Note_on_c, 0, 71, 84
1, 53567, Note_on_c, 0, 86, 0
1, 53567, Note_on_c, 0, 71, 0
1, 53568, Note_on_c, 0, 83, 84
1, 53568, Note_on_c, 0, 67, 84
1, 53588, Note_on_c, 0, 83, 0
1, 53588, Note_on_c, 0, 67, 0
1, 53664, Note_on_c, 0, 83, 84
1, 53664, Note_on_c, 0, 67, 84
1, 53687, Note_on_c, 0, 83, 0
1, 53687, Note_on_c, 0, 67, 0
1, 53688, Note_on_c, 0, 85, 84
1, 53688, Note_on_c, 0, 69, 84
1, 53711, Note_on_c, 0, 85, 0
1, 53711, Note_on_c, 0, 69, 0
1, 53712, Note_on_c, 0, 81, 84
1, 53712, Note_on_c, 0, 66, 84
1, 53735, Note_on_c, 0, 81, 0
1, 53735, Note_on_c, 0, 66, 0
1, 53736, Note_on_c, 0, 83, 84
1, 53736, Note_on_c, 0, 67, 84
1, 53759, Note_on_c, 0, 83, 0
1, 53759, Note_on_c, 0, 67, 0
1, 53760, Note_on_c, 0, 79, 84
1, 53760, Note_on_c, 0, 64, 84
1, 53780, Note_on_c, 0, 79, 0
1, 53780, Note_on_c, 0, 64, 0
1, 53856, Note_on_c, 0, 78, 77
1, 53856, Note_on_c, 0, 69, 77
1, 53856, Note_on_c, 0, 66, 77
1, 53856, Note_on_c, 0, 62, 77
1, 53901, Note_on_c, 0, 78, 0
1, 53901, Note_on_c, 0, 69, 0
1, 53901, Note_on_c, 0, 66, 0
1, 53901, Note_on_c, 0, 62, 0
1, 53904, Note_on_c, 0, 78, 77
1, 53904, Note_on_c, 0, 69, 77
1, 53904, Note_on_c, 0, 66, 77
1, 53904, Note_on_c, 0, 62, 77
1, 53949, Note_on_c, 0, 78, 0
1, 53949, Note_on_c, 0, 69, 0
1, 53949, Note_on_c, 0, 66, 0
1, 53949, Note_on_c, 0, 62, 0
1, 53952, Note_on_c, 0, 76, 77
1, 53952, Note_on_c, 0, 71, 77
1, 53952, Note_on_c, 0, 67, 77
1, 53952, Note_on_c, 0, 55, 77
1, 53997, Note_on_c, 0, 76, 0
1, 53997, Note_on_c, 0, 71, 0
1, 53997, Note_on_c, 0, 67, 0
1, 53997, Note_on_c, 0, 55, 0
1, 54000, Note_on_c, 0, 76, 77
1, 54000, Note_on_c, 0, 71, 77
1, 54000, Note_on_c, 0, 67, 77
1, 54000, Note_on_c, 0, 55, 77
1, 54045, Note_on_c, 0, 76, 0
1, 54045, Note_on_c, 0, 71, 0
1, 54045, Note_on_c, 0, 67, 0
1, 54045, Note_on_c, 0, 55, 0
1, 54048, Note_on_c, 0, 73, 77
1, 54048, Note_on_c, 0, 67, 77
1, 54048, Note_on_c, 0, 64, 77
1, 54048, Note_on_c, 0, 57, 77
1, 54093, Note_on_c, 0, 73, 0
1, 54093, Note_on_c, 0, 67, 0
1, 54093, Note_on_c, 0, 64, 0
1, 54093, Note_on_c, 0, 57, 0
1, 54096, Note_on_c, 0, 73, 77
1, 54096, Note_on_c, 0, 67, 77
1, 54096, Note_on_c, 0, 64, 77
1, 54096, Note_on_c, 0, 57, 77
1, 54141, Note_on_c, 0, 73, 0
1, 54141, Note_on_c, 0, 67, 0
1, 54141, Note_on_c, 0, 64, 0
1, 54141, Note_on_c, 0, 57, 0
1, 54144, Note_on_c, 0, 74, 84
1, 54144, Note_on_c, 0, 66, 84
1, 54144, Note_on_c, 0, 62, 84
1, 54167, Note_on_c, 0, 74, 0
1, 54168, Note_on_c, 0, 69, 84
1, 54191, Note_on_c, 0, 69, 0
1, 54192, Note_on_c, 0, 78, 84
1, 54215, Note_on_c, 0, 78, 0
1, 54216, Note_on_c, 0, 69, 84
1, 54233, Note_on_c, 0, 66, 0
1, 54233, Note_on_c, 0, 62, 0
1, 54239, Note_on_c, 0, 69, 0
1, 54240, Note_on_c, 0, 74, 84
1, 54263, Note_on_c, 0, 74, 0
1, 54264, Note_on_c, 0, 69, 84
1, 54287, Note_on_c, 0, 69, 0
1, 54288, Note_on_c, 0, 73, 84
1, 54288, Note_on_c, 0, 67, 84
1, 54288, Note_on_c, 0, 57, 84
1, 54311, Note_on_c, 0, 73, 0
1, 54312, Note_on_c, 0, 69, 84
1, 54333, Note_on_c, 0, 67, 0
1, 54333, Note_on_c, 0, 57, 0
1, 54335, Note_on_c, 0, 69, 0
1, 54336, Note_on_c, 0, 74, 84
1, 54336, Note_on_c, 0, 66, 84
1, 54336, Note_on_c, 0, 62, 84
1, 54359, Note_on_c, 0, 74, 0
1, 54360, Note_on_c, 0, 69, 84
1, 54383, Note_on_c, 0, 69, 0
1, 54384, Note_on_c, 0, 78, 84
1, 54407, Note_on_c, 0, 78, 0
1, 54408, Note_on_c, 0, 69, 84
1, 54425, Note_on_c, 0, 66, 0
1, 54425, Note_on_c, 0, 62, 0
1, 54431, Note_on_c, 0, 69, 0
1, 54432, Note_on_c, 0, 74, 84
1, 54455, Note_on_c, 0, 74, 0
1, 54456, Note_on_c, 0, 69, 84
1, 54479, Note_on_c, 0, 69, 0
1, 54480, Note_on_c, 0, 73, 84
1, 54480, Note_on_c, 0, 67, 84
1, 54480, Note_on_c, 0, 57, 84
1, 54503, Note_on_c, 0, 73, 0
1, 54504, Note_on_c, 0, 69, 84
1, 54525, Note_on_c, 0, 67, 0
1, 54525, Note_on_c, 0, 57, 0
1, 54527, Note_on_c, 0, 69, 0
1, 54528, Note_on_c, 0, 74, 84
1, 54528, Note_on_c, 0, 66, 84
1, 54528, Note_on_c, 0, 62, 84
1, 54573, Note_on_c, 0, 74, 0
1, 54617, Note_on_c, 0, 66, 0
1, 54617, Note_on_c, 0, 62, 0
1, 54624, Note_on_c, 0, 78, 84
1, 54624, Note_on_c, 0, 74, 84
1, 54624, Note_on_c, 0, 62, 84
1, 54624, Note_on_c, 0, 50, 84
1, 54696, Note_on_c, 0, 74, 0
1, 54696, Note_on_c, 0, 81, 84
1, 54713, Note_on_c, 0, 62, 0
1, 54713, Note_on_c, 0, 50, 0
1, 54719, Note_on_c, 0, 81, 0
1, 54719, Note_on_c, 0, 78, 0
1, 54720, Note_on_c, 0, 78, 84
1, 54720, Note_on_c, 0, 74, 84
1, 54720, Note_on_c, 0, 50, 84
1, 54720, Note_on_c, 0, 38, 84
1, 54765, Note_on_c, 0, 78, 0
1, 54765, Note_on_c, 0, 74, 0
1, 54809, Note_on_c, 0, 50, 0
1, 54809, Note_on_c, 0, 38, 0
1, 54912, Note_on_c, 0, 68, 84
1, 54918, Note_on_c, 0, 68, 0
1, 54918, Note_on_c, 0, 69, 84
1, 54957, Note_on_c, 0, 69, 0
1, 54960, Note_on_c, 0, 57, 84
1, 55005, Note_on_c, 0, 57, 0
1, 55008, Note_on_c, 0, 57, 84
1, 55053, Note_on_c, 0, 57, 0
1, 55056, Note_on_c, 0, 81, 77
1, 55056, Note_on_c, 0, 73, 77
1, 55056, Note_on_c, 0, 57, 84
1, 55101, Note_on_c, 0, 81, 0
1, 55101, Note_on_c, 0, 73, 0
1, 55101, Note_on_c, 0, 57, 0
1, 55104, Note_on_c, 0, 80, 77
1, 55104, Note_on_c, 0, 74, 77
1, 55104, Note_on_c, 0, 59, 84
1, 55116, Note_on_c, 0, 59, 0
1, 55116, Note_on_c, 0, 61, 84
1, 55128, Note_on_c, 0, 61, 0
1, 55128, Note_on_c, 0, 59, 84
1, 55149, Note_on_c, 0, 80, 0
1, 55149, Note_on_c, 0, 74, 0
1, 55149, Note_on_c, 0, 59, 0
1, 55152, Note_on_c, 0, 81, 77
1, 55152, Note_on_c, 0, 73, 77
1, 55152, Note_on_c, 0, 57, 84
1, 55197, Note_on_c, 0, 81, 0
1, 55197, Note_on_c, 0, 73, 0
1, 55197, Note_on_c, 0, 57, 0
1, 55200, Note_on_c, 0, 80, 77
1, 55200, Note_on_c, 0, 74, 77
1, 55200, Note_on_c, 0, 59, 84
1, 55212, Note_on_c, 0, 59, 0
1, 55212, Note_on_c, 0, 61, 84
1, 55224, Note_on_c, 0, 61, 0
1, 55224, Note_on_c, 0, 59, 84
1, 55245, Note_on_c, 0, 80, 0
1, 55245, Note_on_c, 0, 74, 0
1, 55245, Note_on_c, 0, 59, 0
1, 55248, Note_on_c, 0, 81, 77
1, 55248, Note_on_c, 0, 73, 77
1, 55248, Note_on_c, 0, 57, 84
1, 55293, Note_on_c, 0, 81, 0
1, 55293, Note_on_c, 0, 73, 0
1, 55293, Note_on_c, 0, 57, 0
1, 55296, Note_on_c, 0, 73, 84
1, 55296, Note_on_c, 0, 69, 84
1, 55319, Note_on_c, 0, 73, 0
1, 55320, Note_on_c, 0, 76, 84
1, 55341, Note_on_c, 0, 69, 0
1, 55343, Note_on_c, 0, 76, 0
1, 55344, Note_on_c, 0, 74, 84
1, 55344, Note_on_c, 0, 71, 84
1, 55367, Note_on_c, 0, 74, 0
1, 55368, Note_on_c, 0, 78, 84
1, 55389, Note_on_c, 0, 71, 0
1, 55391, Note_on_c, 0, 78, 0
1, 55392, Note_on_c, 0, 76, 84
1, 55392, Note_on_c, 0, 73, 84
1, 55415, Note_on_c, 0, 76, 0
1, 55416, Note_on_c, 0, 79, 84
1, 55437, Note_on_c, 0, 73, 0
1, 55439, Note_on_c, 0, 79, 0
1, 55440, Note_on_c, 0, 78, 84
1, 55440, Note_on_c, 0, 74, 84
1, 55463, Note_on_c, 0, 78, 0
1, 55464, Note_on_c, 0, 81, 84
1, 55485, Note_on_c, 0, 74, 0
1, 55487, Note_on_c, 0, 81, 0
1, 55488, Note_on_c, 0, 79, 84
1, 55488, Note_on_c, 0, 76, 84
1, 55533, Note_on_c, 0, 79, 0
1, 55536, Note_on_c, 0, 88, 84
1, 55577, Note_on_c, 0, 76, 0
1, 55581, Note_on_c, 0, 88, 0
1, 55584, Note_on_c, 0, 85, 84
1, 55629, Note_on_c, 0, 85, 0
1, 55632, Note_on_c, 0, 79, 84
1, 55632, Note_on_c, 0, 76, 84
1, 55632, Note_on_c, 0, 58, 84
1, 55677, Note_on_c, 0, 79, 0
1, 55677, Note_on_c, 0, 76, 0
1, 55677, Note_on_c, 0, 58, 0
1, 55680, Note_on_c, 0, 78, 84
1, 55680, Note_on_c, 0, 74, 84
1, 55680, Note_on_c, 0, 59, 84
1, 55725, Note_on_c, 0, 59, 0
1, 55728, Note_on_c, 0, 47, 84
1, 55769, Note_on_c, 0, 78, 0
1, 55769, Note_on_c, 0, 74, 0
1, 55773, Note_on_c, 0, 47, 0
1, 55776, Note_on_c, 0, 47, 84
1, 55821, Note_on_c, 0, 47, 0
1, 55824, Note_on_c, 0, 71, 77
1, 55824, Note_on_c, 0, 62, 77
1, 55824, Note_on_c, 0, 47, 84
1, 55869, Note_on_c, 0, 71, 0
1, 55869, Note_on_c, 0, 62, 0
1, 55869, Note_on_c, 0, 47, 0
1, 55872, Note_on_c, 0, 70, 77
1, 55872, Note_on_c, 0, 64, 77
1, 55872, Note_on_c, 0, 49, 84
1, 55884, Note_on_c, 0, 49, 0
1, 55884, Note_on_c, 0, 50, 84
1, 55896, Note_on_c, 0, 50, 0
1, 55896, Note_on_c, 0, 49, 84
1, 55917, Note_on_c, 0, 70, 0
1, 55917, Note_on_c, 0, 64, 0
1, 55917, Note_on_c, 0, 49, 0
1, 55920, Note_on_c, 0, 71, 77
1, 55920, Note_on_c, 0, 62, 77
1, 55920, Note_on_c, 0, 47, 84
1, 55965, Note_on_c, 0, 71, 0
1, 55965, Note_on_c, 0, 62, 0
1, 55965, Note_on_c, 0, 47, 0
1, 55968, Note_on_c, 0, 70, 77
1, 55968, Note_on_c, 0, 64, 77
1, 55968, Note_on_c, 0, 49, 84
1, 55980, Note_on_c, 0, 49, 0
1, 55980, Note_on_c, 0, 50, 84
1, 55992, Note_on_c, 0, 50, 0
1, 55992, Note_on_c, 0, 49, 84
1, 56013, Note_on_c, 0, 70, 0
1, 56013, Note_on_c, 0, 64, 0
1, 56013, Note_on_c, 0, 49, 0
1, 56016, Note_on_c, 0, 71, 77
1, 56016, Note_on_c, 0, 62, 77
1, 56016, Note_on_c, 0, 47, 84
1, 56061, Note_on_c, 0, 71, 0
1, 56061, Note_on_c, 0, 62, 0
1, 56061, Note_on_c, 0, 47, 0
1, 56064, Note_on_c, 0, 63, 84
1, 56064, Note_on_c, 0, 59, 84
1, 56087, Note_on_c, 0, 63, 0
1, 56088, Note_on_c, 0, 66, 84
1, 56109, Note_on_c, 0, 59, 0
1, 56111, Note_on_c, 0, 66, 0
1, 56112, Note_on_c, 0, 64, 84
1, 56112, Note_on_c, 0, 61, 84
1, 56135, Note_on_c, 0, 64, 0
1, 56136, Note_on_c, 0, 67, 84
1, 56157, Note_on_c, 0, 61, 0
1, 56159, Note_on_c, 0, 67, 0
1, 56160, Note_on_c, 0, 66, 84
1, 56160, Note_on_c, 0, 63, 84
1, 56183, Note_on_c, 0, 66, 0
1, 56184, Note_on_c, 0, 69, 84
1, 56205, Note_on_c, 0, 63, 0
1, 56207, Note_on_c, 0, 69, 0
1, 56208, Note_on_c, 0, 67, 84
1, 56208, Note_on_c, 0, 64, 84
1, 56231, Note_on_c, 0, 67, 0
1, 56232, Note_on_c, 0, 71, 84
1, 56253, Note_on_c, 0, 64, 0
1, 56255, Note_on_c, 0, 71, 0
1, 56256, Note_on_c, 0, 69, 84
1, 56256, Note_on_c, 0, 66, 84
1, 56301, Note_on_c, 0, 69, 0
1, 56304, Note_on_c, 0, 78, 84
1, 56345, Note_on_c, 0, 66, 0
1, 56349, Note_on_c, 0, 78, 0
1, 56352, Note_on_c, 0, 75, 84
1, 56397, Note_on_c, 0, 75, 0
1, 56400, Note_on_c, 0, 69, 84
1, 56400, Note_on_c, 0, 63, 84
1, 56445, Note_on_c, 0, 69, 0
1, 56445, Note_on_c, 0, 63, 0
1, 56448, Note_on_c, 0, 68, 84
1, 56448, Note_on_c, 0, 64, 84
1, 56471, Note_on_c, 0, 68, 0
1, 56472, Note_on_c, 0, 71, 84
1, 56493, Note_on_c, 0, 64, 0
1, 56495, Note_on_c, 0, 71, 0
1, 56496, Note_on_c, 0, 69, 84
1, 56496, Note_on_c, 0, 52, 84
1, 56519, Note_on_c, 0, 69, 0
1, 56520, Note_on_c, 0, 73, 84
1, 56541, Note_on_c, 0, 52, 0
1, 56543, Note_on_c, 0, 73, 0
1, 56544, Note_on_c, 0, 71, 84
1, 56544, Note_on_c, 0, 52, 84
1, 56567, Note_on_c, 0, 71, 0
1, 56568, Note_on_c, 0, 74, 84
1, 56589, Note_on_c, 0, 52, 0
1, 56591, Note_on_c, 0, 74, 0
1, 56592, Note_on_c, 0, 73, 84
1, 56592, Note_on_c, 0, 52, 84
1, 56615, Note_on_c, 0, 73, 0
1, 56616, Note_on_c, 0, 76, 84
1, 56637, Note_on_c, 0, 52, 0
1, 56639, Note_on_c, 0, 76, 0
1, 56640, Note_on_c, 0, 74, 84
1, 56640, Note_on_c, 0, 52, 84
1, 56685, Note_on_c, 0, 74, 0
1, 56688, Note_on_c, 0, 83, 84
1, 56711, Note_on_c, 0, 83, 0
1, 56712, Note_on_c, 0, 81, 84
1, 56729, Note_on_c, 0, 52, 0
1, 56735, Note_on_c, 0, 81, 0
1, 56736, Note_on_c, 0, 80, 84
1, 56759, Note_on_c, 0, 80, 0
1, 56760, Note_on_c, 0, 78, 84
1, 56783, Note_on_c, 0, 78, 0
1, 56784, Note_on_c, 0, 76, 84
1, 56784, Note_on_c, 0, 56, 84
1, 56807, Note_on_c, 0, 76, 0
1, 56808, Note_on_c, 0, 74, 84
1, 56829, Note_on_c, 0, 56, 0
1, 56831, Note_on_c, 0, 74, 0
1, 56832, Note_on_c, 0, 73, 84
1, 56832, Note_on_c, 0, 57, 84
1, 56855, Note_on_c, 0, 73, 0
1, 56856, Note_on_c, 0, 76, 84
1, 56877, Note_on_c, 0, 57, 0
1, 56879, Note_on_c, 0, 76, 0
1, 56880, Note_on_c, 0, 74, 84
1, 56880, Note_on_c, 0, 45, 84
1, 56903, Note_on_c, 0, 74, 0
1, 56904, Note_on_c, 0, 78, 84
1, 56925, Note_on_c, 0, 45, 0
1, 56927, Note_on_c, 0, 78, 0
1, 56928, Note_on_c, 0, 76, 84
1, 56928, Note_on_c, 0, 45, 84
1, 56951, Note_on_c, 0, 76, 0
1, 56952, Note_on_c, 0, 79, 84
1, 56973, Note_on_c, 0, 45, 0
1, 56975, Note_on_c, 0, 79, 0
1, 56976, Note_on_c, 0, 78, 84
1, 56976, Note_on_c, 0, 45, 84
1, 56999, Note_on_c, 0, 78, 0
1, 57000, Note_on_c, 0, 81, 84
1, 57021, Note_on_c, 0, 45, 0
1, 57023, Note_on_c, 0, 81, 0
1, 57024, Note_on_c, 0, 79, 84
1, 57024, Note_on_c, 0, 76, 84
1, 57024, Note_on_c, 0, 45, 84
1, 57047, Note_on_c, 0, 45, 0
1, 57048, Note_on_c, 0, 47, 84
1, 57071, Note_on_c, 0, 47, 0
1, 57072, Note_on_c, 0, 45, 84
1, 57095, Note_on_c, 0, 45, 0
1, 57096, Note_on_c, 0, 43, 84
1, 57119, Note_on_c, 0, 43, 0
1, 57120, Note_on_c, 0, 42, 84
1, 57143, Note_on_c, 0, 42, 0
1, 57144, Note_on_c, 0, 40, 84
1, 57167, Note_on_c, 0, 40, 0
1, 57168, Note_on_c, 0, 38, 84
1, 57191, Note_on_c, 0, 38, 0
1, 57192, Note_on_c, 0, 37, 84
1, 57201, Note_on_c, 0, 79, 0
1, 57201, Note_on_c, 0, 76, 0
1, 57215, Note_on_c, 0, 37, 0
1, 57216, Note_on_c, 0, 78, 84
1, 57216, Note_on_c, 0, 76, 64
1, 57216, Note_on_c, 0, 38, 84
1, 57239, Note_on_c, 0, 38, 0
1, 57240, Note_on_c, 0, 37, 84
1, 57263, Note_on_c, 0, 37, 0
1, 57264, Note_on_c, 0, 38, 84
1, 57287, Note_on_c, 0, 38, 0
1, 57288, Note_on_c, 0, 40, 84
1, 57305, Note_on_c, 0, 76, 0
1, 57311, Note_on_c, 0, 40, 0
1, 57312, Note_on_c, 0, 74, 64
1, 57312, Note_on_c, 0, 42, 84
1, 57335, Note_on_c, 0, 42, 0
1, 57336, Note_on_c, 0, 40, 84
1, 57359, Note_on_c, 0, 40, 0
1, 57360, Note_on_c, 0, 42, 84
1, 57383, Note_on_c, 0, 42, 0
1, 57384, Note_on_c, 0, 43, 84
1, 57393, Note_on_c, 0, 78, 0
1, 57407, Note_on_c, 0, 43, 0
1, 57408, Note_on_c, 0, 76, 84
1, 57408, Note_on_c, 0, 45, 84
1, 57431, Note_on_c, 0, 45, 0
1, 57432, Note_on_c, 0, 44, 84
1, 57455, Note_on_c, 0, 44, 0
1, 57456, Note_on_c, 0, 45, 84
1, 57479, Note_on_c, 0, 45, 0
1, 57480, Note_on_c, 0, 47, 84
1, 57489, Note_on_c, 0, 74, 0
1, 57503, Note_on_c, 0, 47, 0
1, 57504, Note_on_c, 0, 73, 64
1, 57504, Note_on_c, 0, 49, 84
1, 57527, Note_on_c, 0, 49, 0
1, 57528, Note_on_c, 0, 42, 84
1, 57551, Note_on_c, 0, 42, 0
1, 57552, Note_on_c, 0, 44, 84
1, 57575, Note_on_c, 0, 44, 0
1, 57576, Note_on_c, 0, 46, 84
1, 57585, Note_on_c, 0, 76, 0
1, 57599, Note_on_c, 0, 46, 0
1, 57600, Note_on_c, 0, 74, 84
1, 57600, Note_on_c, 0, 47, 84
1, 57623, Note_on_c, 0, 47, 0
1, 57624, Note_on_c, 0, 46, 84
1, 57647, Note_on_c, 0, 46, 0
1, 57648, Note_on_c, 0, 47, 84
1, 57671, Note_on_c, 0, 47, 0
1, 57672, Note_on_c, 0, 49, 84
1, 57689, Note_on_c, 0, 73, 0
1, 57695, Note_on_c, 0, 49, 0
1, 57696, Note_on_c, 0, 71, 64
1, 57696, Note_on_c, 0, 50, 84
1, 57719, Note_on_c, 0, 50, 0
1, 57720, Note_on_c, 0, 49, 84
1, 57743, Note_on_c, 0, 49, 0
1, 57744, Note_on_c, 0, 50, 84
1, 57767, Note_on_c, 0, 50, 0
1, 57768, Note_on_c, 0, 52, 84
1, 57777, Note_on_c, 0, 74, 0
1, 57791, Note_on_c, 0, 52, 0
1, 57792, Note_on_c, 0, 73, 84
1, 57792, Note_on_c, 0, 54, 84
1, 57815, Note_on_c, 0, 54, 0
1, 57816, Note_on_c, 0, 52, 84
1, 57839, Note_on_c, 0, 52, 0
1, 57840, Note_on_c, 0, 54, 84
1, 57863, Note_on_c, 0, 54, 0
1, 57864, Note_on_c, 0, 55, 84
1, 57873, Note_on_c, 0, 71, 0
1, 57881, Note_on_c, 0, 73, 0
1, 57887, Note_on_c, 0, 55, 0
1, 57888, Note_on_c, 0, 72, 84
1, 57888, Note_on_c, 0, 69, 64
1, 57888, Note_on_c, 0, 57, 84
1, 57911, Note_on_c, 0, 57, 0
1, 57912, Note_on_c, 0, 50, 84
1, 57935, Note_on_c, 0, 50, 0
1, 57936, Note_on_c, 0, 52, 84
1, 57959, Note_on_c, 0, 52, 0
1, 57960, Note_on_c, 0, 54, 84
1, 57977, Note_on_c, 0, 72, 0
1, 57983, Note_on_c, 0, 54, 0
1, 57984, Note_on_c, 0, 71, 84
1, 57984, Note_on_c, 0, 55, 84
1, 58007, Note_on_c, 0, 55, 0
1, 58008, Note_on_c, 0, 54, 84
1, 58031, Note_on_c, 0, 54, 0
1, 58032, Note_on_c, 0, 55, 84
1, 58055, Note_on_c, 0, 55, 0
1, 58056, Note_on_c, 0, 57, 84
1, 58073, Note_on_c, 0, 69, 0
1, 58079, Note_on_c, 0, 57, 0
1, 58080, Note_on_c, 0, 67, 64
1, 58080, Note_on_c, 0, 59, 84
1, 58103, Note_on_c, 0, 59, 0
1, 58104, Note_on_c, 0, 57, 84
1, 58127, Note_on_c, 0, 57, 0
1, 58128, Note_on_c, 0, 59, 84
1, 58151, Note_on_c, 0, 59, 0
1, 58152, Note_on_c, 0, 61, 84
1, 58161, Note_on_c, 0, 71, 0
1, 58175, Note_on_c, 0, 61, 0
1, 58176, Note_on_c, 0, 69, 84
1, 58176, Note_on_c, 0, 62, 84
1, 58199, Note_on_c, 0, 62, 0
1, 58200, Note_on_c, 0, 61, 84
1, 58223, Note_on_c, 0, 61, 0
1, 58224, Note_on_c, 0, 62, 84
1, 58247, Note_on_c, 0, 62, 0
1, 58248, Note_on_c, 0, 50, 84
1, 58257, Note_on_c, 0, 67, 0
1, 58271, Note_on_c, 0, 50, 0
1, 58272, Note_on_c, 0, 66, 64
1, 58272, Note_on_c, 0, 63, 84
1, 58295, Note_on_c, 0, 63, 0
1, 58296, Note_on_c, 0, 61, 84
1, 58319, Note_on_c, 0, 61, 0
1, 58320, Note_on_c, 0, 63, 84
1, 58343, Note_on_c, 0, 63, 0
1, 58344, Note_on_c, 0, 51, 84
1, 58353, Note_on_c, 0, 69, 0
1, 58367, Note_on_c, 0, 51, 0
1, 58368, Note_on_c, 0, 67, 84
1, 58368, Note_on_c, 0, 64, 84
1, 58391, Note_on_c, 0, 64, 0
1, 58392, Note_on_c, 0, 63, 84
1, 58415, Note_on_c, 0, 63, 0
1, 58416, Note_on_c, 0, 64, 84
1, 58439, Note_on_c, 0, 64, 0
1, 58440, Note_on_c, 0, 52, 84
1, 58457, Note_on_c, 0, 66, 0
1, 58463, Note_on_c, 0, 52, 0
1, 58464, Note_on_c, 0, 64, 64
1, 58464, Note_on_c, 0, 61, 84
1, 58487, Note_on_c, 0, 61, 0
1, 58488, Note_on_c, 0, 59, 84
1, 58511, Note_on_c, 0, 59, 0
1, 58512, Note_on_c, 0, 61, 84
1, 58535, Note_on_c, 0, 61, 0
1, 58536, Note_on_c, 0, 49, 84
1, 58545, Note_on_c, 0, 67, 0
1, 58559, Note_on_c, 0, 49, 0
1, 58560, Note_on_c, 0, 66, 84
1, 58560, Note_on_c, 0, 58, 84
1, 58583, Note_on_c, 0, 58, 0
1, 58584, Note_on_c, 0, 56, 84
1, 58607, Note_on_c, 0, 56, 0
1, 58608, Note_on_c, 0, 58, 84
1, 58631, Note_on_c, 0, 58, 0
1, 58632, Note_on_c, 0, 46, 84
1, 58641, Note_on_c, 0, 64, 0
1, 58655, Note_on_c, 0, 46, 0
1, 58656, Note_on_c, 0, 62, 64
1, 58656, Note_on_c, 0, 59, 84
1, 58679, Note_on_c, 0, 59, 0
1, 58680, Note_on_c, 0, 58, 84
1, 58703, Note_on_c, 0, 58, 0
1, 58704, Note_on_c, 0, 59, 84
1, 58727, Note_on_c, 0, 59, 0
1, 58728, Note_on_c, 0, 47, 84
1, 58737, Note_on_c, 0, 66, 0
1, 58745, Note_on_c, 0, 62, 0
1, 58751, Note_on_c, 0, 47, 0
1, 58752, Note_on_c, 0, 66, 84
1, 58752, Note_on_c, 0, 61, 84
1, 58752, Note_on_c, 0, 54, 69
1, 58775, Note_on_c, 0, 61, 0
1, 58776, Note_on_c, 0, 59, 84
1, 58799, Note_on_c, 0, 59, 0
1, 58800, Note_on_c, 0, 61, 84
1, 58823, Note_on_c, 0, 61, 0
1, 58824, Note_on_c, 0, 58, 84
1, 58841, Note_on_c, 0, 66, 0
1, 58841, Note_on_c, 0, 54, 0
1, 58847, Note_on_c, 0, 58, 0
1, 58848, Note_on_c, 0, 66, 84
1, 58848, Note_on_c, 0, 62, 84
1, 58848, Note_on_c, 0, 50, 69
1, 58871, Note_on_c, 0, 62, 0
1, 58872, Note_on_c, 0, 61, 84
1, 58895, Note_on_c, 0, 61, 0
1, 58896, Note_on_c, 0, 62, 84
1, 58919, Note_on_c, 0, 62, 0
1, 58920, Note_on_c, 0, 59, 84
1, 58937, Note_on_c, 0, 66, 0
1, 58937, Note_on_c, 0, 50, 0
1, 58943, Note_on_c, 0, 59, 0
1, 58944, Note_on_c, 0, 66, 84
1, 58944, Note_on_c, 0, 64, 84
1, 58944, Note_on_c, 0, 46, 69
1, 58967, Note_on_c, 0, 64, 0
1, 58968, Note_on_c, 0, 62, 84
1, 58991, Note_on_c, 0, 62, 0
1, 58992, Note_on_c, 0, 64, 84
1, 59015, Note_on_c, 0, 64, 0
1, 59016, Note_on_c, 0, 61, 84
1, 59033, Note_on_c, 0, 66, 0
1, 59033, Note_on_c, 0, 46, 0
1, 59039, Note_on_c, 0, 61, 0
1, 59040, Note_on_c, 0, 66, 84
1, 59040, Note_on_c, 0, 62, 84
1, 59040, Note_on_c, 0, 47, 69
1, 59063, Note_on_c, 0, 62, 0
1, 59064, Note_on_c, 0, 61, 84
1, 59087, Note_on_c, 0, 61, 0
1, 59088, Note_on_c, 0, 62, 84
1, 59111, Note_on_c, 0, 62, 0
1, 59112, Note_on_c, 0, 59, 84
1, 59129, Note_on_c, 0, 66, 0
1, 59129, Note_on_c, 0, 47, 0
1, 59135, Note_on_c, 0, 59, 0
1, 59136, Note_on_c, 0, 70, 84
1, 59136, Note_on_c, 0, 61, 84
1, 59136, Note_on_c, 0, 54, 84
1, 59159, Note_on_c, 0, 70, 0
1, 59160, Note_on_c, 0, 68, 84
1, 59181, Note_on_c, 0, 61, 0
1, 59181, Note_on_c, 0, 54, 0
1, 59183, Note_on_c, 0, 68, 0
1, 59184, Note_on_c, 0, 70, 84
1, 59184, Note_on_c, 0, 61, 84
1, 59184, Note_on_c, 0, 54, 84
1, 59207, Note_on_c, 0, 70, 0
1, 59208, Note_on_c, 0, 66, 84
1, 59229, Note_on_c, 0, 61, 0
1, 59229, Note_on_c, 0, 54, 0
1, 59231, Note_on_c, 0, 66, 0
1, 59232, Note_on_c, 0, 71, 84
1, 59232, Note_on_c, 0, 62, 84
1, 59232, Note_on_c, 0, 54, 84
1, 59255, Note_on_c, 0, 71, 0
1, 59256, Note_on_c, 0, 70, 84
1, 59277, Note_on_c, 0, 62, 0
1, 59277, Note_on_c, 0, 54, 0
1, 59279, Note_on_c, 0, 70, 0
1, 59280, Note_on_c, 0, 71, 84
1, 59280, Note_on_c, 0, 62, 84
1, 59280, Note_on_c, 0, 54, 84
1, 59303, Note_on_c, 0, 71, 0
1, 59304, Note_on_c, 0, 66, 84
1, 59325, Note_on_c, 0, 62, 0
1, 59325, Note_on_c, 0, 54, 0
1, 59327, Note_on_c, 0, 66, 0
1, 59328, Note_on_c, 0, 73, 84
1, 59328, Note_on_c, 0, 58, 84
1, 59328, Note_on_c, 0, 54, 84
1, 59351, Note_on_c, 0, 73, 0
1, 59352, Note_on_c, 0, 71, 84
1, 59373, Note_on_c, 0, 58, 0
1, 59373, Note_on_c, 0, 54, 0
1, 59375, Note_on_c, 0, 71, 0
1, 59376, Note_on_c, 0, 73, 84
1, 59376, Note_on_c, 0, 58, 84
1, 59376, Note_on_c, 0, 54, 84
1, 59399, Note_on_c, 0, 73, 0
1, 59400, Note_on_c, 0, 66, 84
1, 59421, Note_on_c, 0, 58, 0
1, 59421, Note_on_c, 0, 54, 0
1, 59423, Note_on_c, 0, 66, 0
1, 59424, Note_on_c, 0, 74, 84
1, 59424, Note_on_c, 0, 59, 84
1, 59424, Note_on_c, 0, 54, 84
1, 59447, Note_on_c, 0, 74, 0
1, 59448, Note_on_c, 0, 73, 84
1, 59469, Note_on_c, 0, 59, 0
1, 59469, Note_on_c, 0, 54, 0
1, 59471, Note_on_c, 0, 73, 0
1, 59472, Note_on_c, 0, 74, 84
1, 59472, Note_on_c, 0, 59, 84
1, 59472, Note_on_c, 0, 54, 84
1, 59495, Note_on_c, 0, 74, 0
1, 59496, Note_on_c, 0, 66, 84
1, 59517, Note_on_c, 0, 59, 0
1, 59517, Note_on_c, 0, 54, 0
1, 59519, Note_on_c, 0, 66, 0
1, 59520, Note_on_c, 0, 61, 84
1, 59520, Note_on_c, 0, 58, 84
1, 59520, Note_on_c, 0, 55, 84
1, 59520, Note_on_c, 0, 52, 84
1, 59544, Note_on_c, 0, 79, 84
1, 59567, Note_on_c, 0, 79, 0
1, 59568, Note_on_c, 0, 76, 84
1, 59591, Note_on_c, 0, 76, 0
1, 59592, Note_on_c, 0, 79, 84
1, 59615, Note_on_c, 0, 79, 0
1, 59616, Note_on_c, 0, 73, 84
1, 59639, Note_on_c, 0, 73, 0
1, 59640, Note_on_c, 0, 76, 84
1, 59663, Note_on_c, 0, 76, 0
1, 59664, Note_on_c, 0, 70, 84
1, 59687, Note_on_c, 0, 70, 0
1, 59688, Note_on_c, 0, 73, 84
1, 59697, Note_on_c, 0, 61, 0
1, 59697, Note_on_c, 0, 58, 0
1, 59697, Note_on_c, 0, 55, 0
1, 59697, Note_on_c, 0, 52, 0
1, 59711, Note_on_c, 0, 73, 0
1, 59712, Note_on_c, 0, 59, 84
1, 59712, Note_on_c, 0, 54, 84
1, 59712, Note_on_c, 0, 50, 84
1, 59736, Note_on_c, 0, 83, 84
1, 59759, Note_on_c, 0, 83, 0
1, 59760, Note_on_c, 0, 78, 84
1, 59783, Note_on_c, 0, 78, 0
1, 59784, Note_on_c, 0, 83, 84
1, 59807, Note_on_c, 0, 83, 0
1, 59808, Note_on_c, 0, 74, 84
1, 59831, Note_on_c, 0, 74, 0
1, 59832, Note_on_c, 0, 78, 84
1, 59855, Note_on_c, 0, 78, 0
1, 59856, Note_on_c, 0, 71, 84
1, 59879, Note_on_c, 0, 71, 0
1, 59880, Note_on_c, 0, 74, 84
1, 59889, Note_on_c, 0, 59, 0
1, 59889, Note_on_c, 0, 54, 0
1, 59889, Note_on_c, 0, 50, 0
1, 59903, Note_on_c, 0, 74, 0
1, 59904, Note_on_c, 0, 61, 84
1, 59904, Note_on_c, 0, 58, 84
1, 59904, Note_on_c, 0, 55, 84
1, 59904, Note_on_c, 0, 52, 84
1, 59928, Note_on_c, 0, 79, 84
1, 59951, Note_on_c, 0, 79, 0
1, 59952, Note_on_c, 0, 76, 84
1, 59975, Note_on_c, 0, 76, 0
1, 59976, Note_on_c, 0, 79, 84
1, 59999, Note_on_c, 0, 79, 0
1, 60000, Note_on_c, 0, 73, 84
1, 60023, Note_on_c, 0, 73, 0
1, 60024, Note_on_c, 0, 76, 84
1, 60047, Note_on_c, 0, 76, 0
1, 60048, Note_on_c, 0, 70, 84
1, 60071, Note_on_c, 0, 70, 0
1, 60072, Note_on_c, 0, 73, 84
1, 60081, Note_on_c, 0, 61, 0
1, 60081, Note_on_c, 0, 58, 0
1, 60081, Note_on_c, 0, 55, 0
1, 60081, Note_on_c, 0, 52, 0
1, 60095, Note_on_c, 0, 73, 0
1, 60096, Note_on_c, 0, 59, 84
1, 60096, Note_on_c, 0, 54, 84
1, 60096, Note_on_c, 0, 50, 84
1, 60120, Note_on_c, 0, 83, 84
1, 60143, Note_on_c, 0, 83, 0
1, 60144, Note_on_c, 0, 78, 84
1, 60167, Note_on_c, 0, 78, 0
1, 60168, Note_on_c, 0, 83, 84
1, 60191, Note_on_c, 0, 83, 0
1, 60192, Note_on_c, 0, 74, 84
1, 60215, Note_on_c, 0, 74, 0
1, 60216, Note_on_c, 0, 78, 84
1, 60239, Note_on_c, 0, 78, 0
1, 60240, Note_on_c, 0, 71, 84
1, 60263, Note_on_c, 0, 71, 0
1, 60264, Note_on_c, 0, 74, 84
1, 60273, Note_on_c, 0, 59, 0
1, 60273, Note_on_c, 0, 54, 0
1, 60273, Note_on_c, 0, 50, 0
1, 60287, Note_on_c, 0, 74, 0
1, 60288, Note_on_c, 0, 60, 84
1, 60288, Note_on_c, 0, 55, 84
1, 60288, Note_on_c, 0, 52, 84
1, 60312, Note_on_c, 0, 84, 84
1, 60335, Note_on_c, 0, 84, 0
1, 60336, Note_on_c, 0, 79, 84
1, 60359, Note_on_c, 0, 79, 0
1, 60360, Note_on_c, 0, 84, 84
1, 60383, Note_on_c, 0, 84, 0
1, 60384, Note_on_c, 0, 76, 84
1, 60407, Note_on_c, 0, 76, 0
1, 60408, Note_on_c, 0, 79, 84
1, 60431, Note_on_c, 0, 79, 0
1, 60432, Note_on_c, 0, 72, 84
1, 60455, Note_on_c, 0, 72, 0
1, 60456, Note_on_c, 0, 76, 84
1, 60465, Note_on_c, 0, 60, 0
1, 60465, Note_on_c, 0, 55, 0
1, 60465, Note_on_c, 0, 52, 0
1, 60479, Note_on_c, 0, 76, 0
1, 60480, Note_on_c, 0, 67, 84
1, 60503, Note_on_c, 0, 67, 0
1, 60504, Note_on_c, 0, 72, 84
1, 60527, Note_on_c, 0, 72, 0
1, 60528, Note_on_c, 0, 64, 84
1, 60551, Note_on_c, 0, 64, 0
1, 60552, Note_on_c, 0, 67, 84
1, 60575, Note_on_c, 0, 67, 0
1, 60576, Note_on_c, 0, 60, 84
1, 60599, Note_on_c, 0, 60, 0
1, 60600, Note_on_c, 0, 64, 84
1, 60623, Note_on_c, 0, 64, 0
1, 60624, Note_on_c, 0, 55, 84
1, 60647, Note_on_c, 0, 55, 0
1, 60648, Note_on_c, 0, 60, 84
1, 60671, Note_on_c, 0, 60, 0
1, 60672, Note_on_c, 0, 53, 84
1, 60672, Note_on_c, 0, 41, 84
1, 60696, Note_on_c, 0, 59, 84
1, 60719, Note_on_c, 0, 59, 0
1, 60720, Note_on_c, 0, 62, 84
1, 60743, Note_on_c, 0, 62, 0
1, 60744, Note_on_c, 0, 65, 84
1, 60767, Note_on_c, 0, 65, 0
1, 60768, Note_on_c, 0, 68, 84
1, 60791, Note_on_c, 0, 68, 0
1, 60792, Note_on_c, 0, 62, 84
1, 60815, Note_on_c, 0, 62, 0
1, 60816, Note_on_c, 0, 65, 84
1, 60839, Note_on_c, 0, 65, 0
1, 60840, Note_on_c, 0, 68, 84
1, 60863, Note_on_c, 0, 68, 0
1, 60864, Note_on_c, 0, 71, 84
1, 60887, Note_on_c, 0, 71, 0
1, 60888, Note_on_c, 0, 65, 84
1, 60911, Note_on_c, 0, 65, 0
1, 60912, Note_on_c, 0, 68, 84
1, 60935, Note_on_c, 0, 68, 0
1, 60936, Note_on_c, 0, 71, 84
1, 60959, Note_on_c, 0, 71, 0
1, 60960, Note_on_c, 0, 74, 84
1, 60983, Note_on_c, 0, 74, 0
1, 60984, Note_on_c, 0, 71, 84
1, 61007, Note_on_c, 0, 71, 0
1, 61008, Note_on_c, 0, 68, 84
1, 61031, Note_on_c, 0, 68, 0
1, 61032, Note_on_c, 0, 65, 84
1, 61041, Note_on_c, 0, 53, 0
1, 61041, Note_on_c, 0, 41, 0
1, 61055, Note_on_c, 0, 65, 0
1, 61056, Note_on_c, 0, 54, 84
1, 61056, Note_on_c, 0, 42, 84
1, 61080, Note_on_c, 0, 59, 84
1, 61103, Note_on_c, 0, 59, 0
1, 61104, Note_on_c, 0, 62, 84
1, 61127, Note_on_c, 0, 62, 0
1, 61128, Note_on_c, 0, 66, 84
1, 61151, Note_on_c, 0, 66, 0
1, 61152, Note_on_c, 0, 71, 84
1, 61175, Note_on_c, 0, 71, 0
1, 61176, Note_on_c, 0, 62, 84
1, 61199, Note_on_c, 0, 62, 0
1, 61200, Note_on_c, 0, 66, 84
1, 61223, Note_on_c, 0, 66, 0
1, 61224, Note_on_c, 0, 71, 84
1, 61247, Note_on_c, 0, 71, 0
1, 61248, Note_on_c, 0, 74, 84
1, 61271, Note_on_c, 0, 74, 0
1, 61272, Note_on_c, 0, 71, 84
1, 61295, Note_on_c, 0, 71, 0
1, 61296, Note_on_c, 0, 74, 84
1, 61319, Note_on_c, 0, 74, 0
1, 61320, Note_on_c, 0, 78, 84
1, 61343, Note_on_c, 0, 78, 0
1, 61344, Note_on_c, 0, 83, 84
1, 61389, Note_on_c, 0, 83, 0
1, 61425, Note_on_c, 0, 54, 0
1, 61425, Note_on_c, 0, 42, 0
1, 61440, Note_on_c, 0, 74, 84
1, 61493, Note_on_c, 0, 74, 0
1, 61494, Note_on_c, 0, 73, 84
1, 61511, Note_on_c, 0, 73, 0
1, 61512, Note_on_c, 0, 74, 84
1, 61529, Note_on_c, 0, 74, 0
1, 61530, Note_on_c, 0, 73, 84
1, 61547, Note_on_c, 0, 73, 0
1, 61548, Note_on_c, 0, 74, 84
1, 61565, Note_on_c, 0, 74, 0
1, 61566, Note_on_c, 0, 73, 84
1, 61583, Note_on_c, 0, 73, 0
1, 61584, Note_on_c, 0, 74, 84
1, 61601, Note_on_c, 0, 74, 0
1, 61602, Note_on_c, 0, 73, 84
1, 61619, Note_on_c, 0, 73, 0
1, 61620, Note_on_c, 0, 74, 84
1, 61632, Note_on_c, 0, 64, 84
1, 61632, Note_on_c, 0, 58, 84
1, 61632, Note_on_c, 0, 54, 84
1, 61636, Note_on_c, 0, 74, 0
1, 61637, Note_on_c, 0, 73, 84
1, 61653, Note_on_c, 0, 73, 0
1, 61654, Note_on_c, 0, 74, 84
1, 61670, Note_on_c, 0, 74, 0
1, 61671, Note_on_c, 0, 73, 84
1, 61687, Note_on_c, 0, 73, 0
1, 61688, Note_on_c, 0, 74, 84
1, 61704, Note_on_c, 0, 74, 0
1, 61705, Note_on_c, 0, 73, 84
1, 61721, Note_on_c, 0, 73, 0
1, 61722, Note_on_c, 0, 74, 84
1, 61738, Note_on_c, 0, 74, 0
1, 61739, Note_on_c, 0, 73, 84
1, 61755, Note_on_c, 0, 73, 0
1, 61756, Note_on_c, 0, 71, 84
1, 61789, Note_on_c, 0, 71, 0
1, 61790, Note_on_c, 0, 73, 84
1, 61809, Note_on_c, 0, 64, 0
1, 61809, Note_on_c, 0, 58, 0
1, 61809, Note_on_c, 0, 54, 0
1, 61823, Note_on_c, 0, 73, 0
1, 61824, Note_on_c, 0, 75, 100
1, 61824, Note_on_c, 0, 69, 69
1, 61824, Note_on_c, 0, 66, 69
1, 61824, Note_on_c, 0, 59, 69
1, 61869, Note_on_c, 0, 69, 0
1, 61869, Note_on_c, 0, 66, 0
1, 61869, Note_on_c, 0, 59, 0
1, 61872, Note_on_c, 0, 75, 0
1, 61872, Note_on_c, 0, 75, 84
1, 61872, Note_on_c, 0, 69, 69
1, 61872, Note_on_c, 0, 66, 69
1, 61872, Note_on_c, 0, 59, 69
1, 61917, Note_on_c, 0, 75, 0
1, 61917, Note_on_c, 0, 69, 0
1, 61917, Note_on_c, 0, 66, 0
1, 61917, Note_on_c, 0, 59, 0
1, 61920, Note_on_c, 0, 75, 84
1, 61920, Note_on_c, 0, 69, 69
1, 61920, Note_on_c, 0, 66, 69
1, 61920, Note_on_c, 0, 59, 69
1, 61965, Note_on_c, 0, 75, 0
1, 61965, Note_on_c, 0, 69, 0
1, 61965, Note_on_c, 0, 66, 0
1, 61965, Note_on_c, 0, 59, 0
1, 61968, Note_on_c, 0, 75, 84
1, 61968, Note_on_c, 0, 69, 69
1, 61968, Note_on_c, 0, 66, 69
1, 61968, Note_on_c, 0, 59, 69
1, 62013, Note_on_c, 0, 75, 0
1, 62013, Note_on_c, 0, 69, 0
1, 62013, Note_on_c, 0, 66, 0
1, 62013, Note_on_c, 0, 59, 0
1, 62016, Note_on_c, 0, 76, 84
1, 62016, Note_on_c, 0, 67, 69
1, 62016, Note_on_c, 0, 59, 69
1, 62028, Note_on_c, 0, 76, 0
1, 62028, Note_on_c, 0, 78, 84
1, 62040, Note_on_c, 0, 78, 0
1, 62040, Note_on_c, 0, 76, 84
1, 62061, Note_on_c, 0, 76, 0
1, 62061, Note_on_c, 0, 67, 0
1, 62064, Note_on_c, 0, 75, 84
1, 62064, Note_on_c, 0, 66, 69
1, 62109, Note_on_c, 0, 75, 0
1, 62109, Note_on_c, 0, 66, 0
1, 62112, Note_on_c, 0, 76, 84
1, 62112, Note_on_c, 0, 67, 69
1, 62157, Note_on_c, 0, 76, 0
1, 62157, Note_on_c, 0, 67, 0
1, 62160, Note_on_c, 0, 79, 84
1, 62160, Note_on_c, 0, 64, 69
1, 62193, Note_on_c, 0, 59, 0
1, 62205, Note_on_c, 0, 79, 0
1, 62205, Note_on_c, 0, 64, 0
1, 62208, Note_on_c, 0, 73, 84
1, 62208, Note_on_c, 0, 67, 69
1, 62208, Note_on_c, 0, 64, 69
1, 62208, Note_on_c, 0, 57, 69
1, 62253, Note_on_c, 0, 73, 0
1, 62253, Note_on_c, 0, 67, 0
1, 62253, Note_on_c, 0, 64, 0
1, 62253, Note_on_c, 0, 57, 0
1, 62256, Note_on_c, 0, 73, 84
1, 62256, Note_on_c, 0, 67, 69
1, 62256, Note_on_c, 0, 64, 69
1, 62256, Note_on_c, 0, 57, 69
1, 62301, Note_on_c, 0, 73, 0
1, 62301, Note_on_c, 0, 67, 0
1, 62301, Note_on_c, 0, 64, 0
1, 62301, Note_on_c, 0, 57, 0
1, 62304, Note_on_c, 0, 73, 84
1, 62304, Note_on_c, 0, 67, 69
1, 62304, Note_on_c, 0, 64, 69
1, 62304, Note_on_c, 0, 57, 69
1, 62349, Note_on_c, 0, 73, 0
1, 62349, Note_on_c, 0, 67, 0
1, 62349, Note_on_c, 0, 64, 0
1, 62349, Note_on_c, 0, 57, 0
1, 62352, Note_on_c, 0, 73, 84
1, 62352, Note_on_c, 0, 67, 69
1, 62352, Note_on_c, 0, 64, 69
1, 62352, Note_on_c, 0, 57, 69
1, 62397, Note_on_c, 0, 73, 0
1, 62397, Note_on_c, 0, 67, 0
1, 62397, Note_on_c, 0, 64, 0
1, 62397, Note_on_c, 0, 57, 0
1, 62400, Note_on_c, 0, 73, 77
1, 62400, Note_on_c, 0, 67, 69
1, 62400, Note_on_c, 0, 64, 69
1, 62400, Note_on_c, 0, 57, 69
1, 62423, Note_on_c, 0, 73, 0
1, 62424, Note_on_c, 0, 74, 77
1, 62447, Note_on_c, 0, 74, 0
1, 62448, Note_on_c, 0, 76, 78
1, 62471, Note_on_c, 0, 76, 0
1, 62472, Note_on_c, 0, 78, 79
1, 62495, Note_on_c, 0, 78, 0
1, 62496, Note_on_c, 0, 79, 80
1, 62519, Note_on_c, 0, 79, 0
1, 62520, Note_on_c, 0, 81, 81
1, 62543, Note_on_c, 0, 81, 0
1, 62544, Note_on_c, 0, 83, 82
1, 62567, Note_on_c, 0, 83, 0
1, 62568, Note_on_c, 0, 85, 83
1, 62577, Note_on_c, 0, 67, 0
1, 62577, Note_on_c, 0, 64, 0
1, 62577, Note_on_c, 0, 57, 0
1, 62591, Note_on_c, 0, 85, 0
1, 62592, Note_on_c, 0, 85, 84
1, 62592, Note_on_c, 0, 62, 84
1, 62592, Note_on_c, 0, 57, 84
1, 62592, Note_on_c, 0, 54, 84
1, 62592, Note_on_c, 0, 50, 84
1, 62604, Note_on_c, 0, 85, 0
1, 62604, Note_on_c, 0, 86, 100
1, 62640, Note_on_c, 0, 86, 0
1, 62640, Note_on_c, 0, 74, 77
1, 62681, Note_on_c, 0, 62, 0
1, 62681, Note_on_c, 0, 57, 0
1, 62681, Note_on_c, 0, 54, 0
1, 62681, Note_on_c, 0, 50, 0
1, 62685, Note_on_c, 0, 74, 0
1, 62688, Note_on_c, 0, 74, 77
1, 62733, Note_on_c, 0, 74, 0
1, 62736, Note_on_c, 0, 74, 77
1, 62736, Note_on_c, 0, 69, 77
1, 62736, Note_on_c, 0, 66, 77
1, 62781, Note_on_c, 0, 74, 0
1, 62781, Note_on_c, 0, 69, 0
1, 62781, Note_on_c, 0, 66, 0
1, 62784, Note_on_c, 0, 76, 77
1, 62784, Note_on_c, 0, 71, 77
1, 62784, Note_on_c, 0, 67, 77
1, 62796, Note_on_c, 0, 76, 0
1, 62796, Note_on_c, 0, 78, 77
1, 62808, Note_on_c, 0, 78, 0
1, 62808, Note_on_c, 0, 76, 77
1, 62829, Note_on_c, 0, 76, 0
1, 62829, Note_on_c, 0, 71, 0
1, 62829, Note_on_c, 0, 67, 0
1, 62832, Note_on_c, 0, 74, 77
1, 62832, Note_on_c, 0, 69, 77
1, 62832, Note_on_c, 0, 66, 77
1, 62877, Note_on_c, 0, 74, 0
1, 62877, Note_on_c, 0, 69, 0
1, 62877, Note_on_c, 0, 66, 0
1, 62880, Note_on_c, 0, 76, 77
1, 62880, Note_on_c, 0, 71, 77
1, 62880, Note_on_c, 0, 67, 77
1, 62892, Note_on_c, 0, 76, 0
1, 62892, Note_on_c, 0, 78, 77
1, 62904, Note_on_c, 0, 78, 0
1, 62904, Note_on_c, 0, 76, 77
1, 62925, Note_on_c, 0, 76, 0
1, 62925, Note_on_c, 0, 71, 0
1, 62925, Note_on_c, 0, 67, 0
1, 62928, Note_on_c, 0, 74, 77
1, 62928, Note_on_c, 0, 69, 77
1, 62928, Note_on_c, 0, 66, 77
1, 62973, Note_on_c, 0, 74, 0
1, 62973, Note_on_c, 0, 69, 0
1, 62973, Note_on_c, 0, 66, 0
1, 62976, Note_on_c, 0, 85, 77
1, 62976, Note_on_c, 0, 69, 77
1, 62976, Note_on_c, 0, 66, 77
1, 62976, Note_on_c, 0, 62, 77
1, 62982, Note_on_c, 0, 85, 0
1, 62982, Note_on_c, 0, 86, 77
1, 63021, Note_on_c, 0, 86, 0
1, 63024, Note_on_c, 0, 74, 77
1, 63065, Note_on_c, 0, 69, 0
1, 63065, Note_on_c, 0, 66, 0
1, 63065, Note_on_c, 0, 62, 0
1, 63069, Note_on_c, 0, 74, 0
1, 63072, Note_on_c, 0, 74, 77
1, 63117, Note_on_c, 0, 74, 0
1, 63120, Note_on_c, 0, 74, 77
1, 63120, Note_on_c, 0, 69, 77
1, 63120, Note_on_c, 0, 66, 77
1, 63165, Note_on_c, 0, 74, 0
1, 63165, Note_on_c, 0, 69, 0
1, 63165, Note_on_c, 0, 66, 0
1, 63168, Note_on_c, 0, 76, 77
1, 63168, Note_on_c, 0, 71, 77
1, 63168, Note_on_c, 0, 67, 77
1, 63180, Note_on_c, 0, 76, 0
1, 63180, Note_on_c, 0, 78, 77
1, 63192, Note_on_c, 0, 78, 0
1, 63192, Note_on_c, 0, 76, 77
1, 63213, Note_on_c, 0, 76, 0
1, 63213, Note_on_c, 0, 71, 0
1, 63213, Note_on_c, 0, 67, 0
1, 63216, Note_on_c, 0, 74, 77
1, 63216, Note_on_c, 0, 69, 77
1, 63216, Note_on_c, 0, 66, 77
1, 63261, Note_on_c, 0, 74, 0
1, 63261, Note_on_c, 0, 69, 0
1, 63261, Note_on_c, 0, 66, 0
1, 63264, Note_on_c, 0, 76, 77
1, 63264, Note_on_c, 0, 71, 77
1, 63264, Note_on_c, 0, 67, 77
1, 63276, Note_on_c, 0, 76, 0
1, 63276, Note_on_c, 0, 78, 77
1, 63288, Note_on_c, 0, 78, 0
1, 63288, Note_on_c, 0, 76, 77
1, 63309, Note_on_c, 0, 76, 0
1, 63309, Note_on_c, 0, 71, 0
1, 63309, Note_on_c, 0, 67, 0
1, 63312, Note_on_c, 0, 74, 77
1, 63312, Note_on_c, 0, 69, 77
1, 63312, Note_on_c, 0, 66, 77
1, 63357, Note_on_c, 0, 74, 0
1, 63357, Note_on_c, 0, 69, 0
1, 63357, Note_on_c, 0, 66, 0
1, 63360, Note_on_c, 0, 79, 77
1, 63360, Note_on_c, 0, 74, 64
1, 63360, Note_on_c, 0, 71, 77
1, 63380, Note_on_c, 0, 79, 0
1, 63380, Note_on_c, 0, 71, 0
1, 63405, Note_on_c, 0, 74, 0
1, 63408, Note_on_c, 0, 79, 77
1, 63408, Note_on_c, 0, 74, 64
1, 63408, Note_on_c, 0, 71, 77
1, 63456, Note_on_c, 0, 79, 0
1, 63456, Note_on_c, 0, 78, 77
1, 63456, Note_on_c, 0, 71, 0
1, 63456, Note_on_c, 0, 69, 77
1, 63476, Note_on_c, 0, 78, 0
1, 63476, Note_on_c, 0, 69, 0
1, 63497, Note_on_c, 0, 74, 0
1, 63504, Note_on_c, 0, 78, 77
1, 63504, Note_on_c, 0, 74, 64
1, 63504, Note_on_c, 0, 69, 77
1, 63552, Note_on_c, 0, 78, 0
1, 63552, Note_on_c, 0, 83, 77
1, 63552, Note_on_c, 0, 69, 0
1, 63552, Note_on_c, 0, 67, 77
1, 63572, Note_on_c, 0, 83, 0
1, 63572, Note_on_c, 0, 67, 0
1, 63593, Note_on_c, 0, 74, 0
1, 63600, Note_on_c, 0, 83, 77
1, 63600, Note_on_c, 0, 74, 64
1, 63600, Note_on_c, 0, 67, 77
1, 63648, Note_on_c, 0, 83, 0
1, 63648, Note_on_c, 0, 81, 77
1, 63648, Note_on_c, 0, 67, 0
1, 63648, Note_on_c, 0, 66, 77
1, 63668, Note_on_c, 0, 81, 0
1, 63668, Note_on_c, 0, 66, 0
1, 63689, Note_on_c, 0, 74, 0
1, 63696, Note_on_c, 0, 81, 77
1, 63696, Note_on_c, 0, 74, 64
1, 63696, Note_on_c, 0, 66, 77
1, 63741, Note_on_c, 0, 81, 0
1, 63741, Note_on_c, 0, 74, 0
1, 63741, Note_on_c, 0, 66, 0
1, 63744, Note_on_c, 0, 79, 77
1, 63744, Note_on_c, 0, 64, 77
1, 63789, Note_on_c, 0, 79, 0
1, 63789, Note_on_c, 0, 64, 0
1, 63792, Note_on_c, 0, 76, 77
1, 63792, Note_on_c, 0, 61, 77
1, 63837, Note_on_c, 0, 76, 0
1, 63837, Note_on_c, 0, 61, 0
1, 63840, Note_on_c, 0, 78, 77
1, 63840, Note_on_c, 0, 62, 77
1, 63885, Note_on_c, 0, 78, 0
1, 63885, Note_on_c, 0, 62, 0
1, 63888, Note_on_c, 0, 74, 77
1, 63888, Note_on_c, 0, 66, 77
1, 63933, Note_on_c, 0, 74, 0
1, 63933, Note_on_c, 0, 66, 0
1, 63936, Note_on_c, 0, 73, 77
1, 63936, Note_on_c, 0, 69, 77
1, 63959, Note_on_c, 0, 73, 0
1, 63960, Note_on_c, 0, 74, 77
1, 63983, Note_on_c, 0, 74, 0
1, 63984, Note_on_c, 0, 76, 77
1, 64007, Note_on_c, 0, 76, 0
1, 64008, Note_on_c, 0, 73, 77
1, 64025, Note_on_c, 0, 69, 0
1, 64031, Note_on_c, 0, 73, 0
1, 64032, Note_on_c, 0, 69, 77
1, 64077, Note_on_c, 0, 69, 0
1, 64128, Note_on_c, 0, 85, 77
1, 64128, Note_on_c, 0, 62, 77
1, 64134, Note_on_c, 0, 85, 0
1, 64134, Note_on_c, 0, 86, 77
1, 64151, Note_on_c, 0, 62, 0
1, 64152, Note_on_c, 0, 69, 77
1, 64173, Note_on_c, 0, 86, 0
1, 64175, Note_on_c, 0, 69, 0
1, 64176, Note_on_c, 0, 74, 77
1, 64176, Note_on_c, 0, 66, 77
1, 64199, Note_on_c, 0, 66, 0
1, 64200, Note_on_c, 0, 69, 77
1, 64221, Note_on_c, 0, 74, 0
1, 64223, Note_on_c, 0, 69, 0
1, 64224, Note_on_c, 0, 74, 77
1, 64224, Note_on_c, 0, 66, 77
1, 64247, Note_on_c, 0, 66, 0
1, 64248, Note_on_c, 0, 69, 77
1, 64269, Note_on_c, 0, 74, 0
1, 64271, Note_on_c, 0, 69, 0
1, 64272, Note_on_c, 0, 74, 77
1, 64272, Note_on_c, 0, 66, 77
1, 64295, Note_on_c, 0, 66, 0
1, 64296, Note_on_c, 0, 69, 77
1, 64317, Note_on_c, 0, 74, 0
1, 64319, Note_on_c, 0, 69, 0
1, 64320, Note_on_c, 0, 76, 77
1, 64320, Note_on_c, 0, 67, 77
1, 64332, Note_on_c, 0, 76, 0
1, 64332, Note_on_c, 0, 78, 77
1, 64343, Note_on_c, 0, 67, 0
1, 64344, Note_on_c, 0, 78, 0
1, 64344, Note_on_c, 0, 76, 77
1, 64344, Note_on_c, 0, 69, 77
1, 64365, Note_on_c, 0, 76, 0
1, 64367, Note_on_c, 0, 69, 0
1, 64368, Note_on_c, 0, 74, 77
1, 64368, Note_on_c, 0, 66, 77
1, 64391, Note_on_c, 0, 66, 0
1, 64392, Note_on_c, 0, 69, 77
1, 64413, Note_on_c, 0, 74, 0
1, 64415, Note_on_c, 0, 69, 0
1, 64416, Note_on_c, 0, 76, 77
1, 64416, Note_on_c, 0, 67, 77
1, 64428, Note_on_c, 0, 76, 0
1, 64428, Note_on_c, 0, 78, 77
1, 64439, Note_on_c, 0, 67, 0
1, 64440, Note_on_c, 0, 78, 0
1, 64440, Note_on_c, 0, 76, 77
1, 64440, Note_on_c, 0, 69, 77
1, 64461, Note_on_c, 0, 76, 0
1, 64463, Note_on_c, 0, 69, 0
1, 64464, Note_on_c, 0, 74, 77
1, 64464, Note_on_c, 0, 66, 77
1, 64487, Note_on_c, 0, 66, 0
1, 64488, Note_on_c, 0, 69, 77
1, 64509, Note_on_c, 0, 74, 0
1, 64511, Note_on_c, 0, 69, 0
1, 64512, Note_on_c, 0, 85, 77
1, 64512, Note_on_c, 0, 62, 77
1, 64518, Note_on_c, 0, 85, 0
1, 64518, Note_on_c, 0, 86, 77
1, 64535, Note_on_c, 0, 62, 0
1, 64536, Note_on_c, 0, 69, 77
1, 64557, Note_on_c, 0, 86, 0
1, 64559, Note_on_c, 0, 69, 0
1, 64560, Note_on_c, 0, 74, 77
1, 64560, Note_on_c, 0, 66, 77
1, 64583, Note_on_c, 0, 66, 0
1, 64584, Note_on_c, 0, 69, 77
1, 64605, Note_on_c, 0, 74, 0
1, 64607, Note_on_c, 0, 69, 0
1, 64608, Note_on_c, 0, 74, 77
1, 64608, Note_on_c, 0, 66, 77
1, 64631, Note_on_c, 0, 66, 0
1, 64632, Note_on_c, 0, 69, 77
1, 64653, Note_on_c, 0, 74, 0
1, 64655, Note_on_c, 0, 69, 0
1, 64656, Note_on_c, 0, 74, 77
1, 64656, Note_on_c, 0, 66, 77
1, 64679, Note_on_c, 0, 66, 0
1, 64680, Note_on_c, 0, 69, 77
1, 64701, Note_on_c, 0, 74, 0
1, 64703, Note_on_c, 0, 69, 0
1, 64704, Note_on_c, 0, 76, 77
1, 64704, Note_on_c, 0, 67, 77
1, 64716, Note_on_c, 0, 76, 0
1, 64716, Note_on_c, 0, 78, 77
1, 64727, Note_on_c, 0, 67, 0
1, 64728, Note_on_c, 0, 78, 0
1, 64728, Note_on_c, 0, 76, 77
1, 64728, Note_on_c, 0, 69, 77
1, 64749, Note_on_c, 0, 76, 0
1, 64751, Note_on_c, 0, 69, 0
1, 64752, Note_on_c, 0, 74, 77
1, 64752, Note_on_c, 0, 66, 77
1, 64775, Note_on_c, 0, 66, 0
1, 64776, Note_on_c, 0, 69, 77
1, 64797, Note_on_c, 0, 74, 0
1, 64799, Note_on_c, 0, 69, 0
1, 64800, Note_on_c, 0, 76, 77
1, 64800, Note_on_c, 0, 67, 77
1, 64812, Note_on_c, 0, 76, 0
1, 64812, Note_on_c, 0, 78, 77
1, 64823, Note_on_c, 0, 67, 0
1, 64824, Note_on_c, 0, 78, 0
1, 64824, Note_on_c, 0, 76, 77
1, 64824, Note_on_c, 0, 69, 77
1, 64845, Note_on_c, 0, 76, 0
1, 64847, Note_on_c, 0, 69, 0
1, 64848, Note_on_c, 0, 74, 77
1, 64848, Note_on_c, 0, 66, 77
1, 64871, Note_on_c, 0, 66, 0
1, 64872, Note_on_c, 0, 69, 77
1, 64893, Note_on_c, 0, 74, 0
1, 64895, Note_on_c, 0, 69, 0
1, 64896, Note_on_c, 0, 79, 77
1, 64896, Note_on_c, 0, 64, 77
1, 64908, Note_on_c, 0, 79, 0
1, 64908, Note_on_c, 0, 81, 77
1, 64919, Note_on_c, 0, 64, 0
1, 64920, Note_on_c, 0, 81, 0
1, 64920, Note_on_c, 0, 79, 77
1, 64920, Note_on_c, 0, 69, 77
1, 64941, Note_on_c, 0, 79, 0
1, 64943, Note_on_c, 0, 69, 0
1, 64944, Note_on_c, 0, 78, 77
1, 64944, Note_on_c, 0, 63, 77
1, 64967, Note_on_c, 0, 63, 0
1, 64968, Note_on_c, 0, 69, 77
1, 64989, Note_on_c, 0, 78, 0
1, 64991, Note_on_c, 0, 69, 0
1, 64992, Note_on_c, 0, 79, 77
1, 64992, Note_on_c, 0, 64, 77
1, 65015, Note_on_c, 0, 64, 0
1, 65016, Note_on_c, 0, 69, 77
1, 65037, Note_on_c, 0, 79, 0
1, 65039, Note_on_c, 0, 69, 0
1, 65040, Note_on_c, 0, 76, 77
1, 65040, Note_on_c, 0, 61, 77
1, 65063, Note_on_c, 0, 61, 0
1, 65064, Note_on_c, 0, 69, 77
1, 65085, Note_on_c, 0, 76, 0
1, 65087, Note_on_c, 0, 69, 0
1, 65088, Note_on_c, 0, 78, 77
1, 65088, Note_on_c, 0, 62, 77
1, 65100, Note_on_c, 0, 78, 0
1, 65100, Note_on_c, 0, 79, 77
1, 65111, Note_on_c, 0, 62, 0
1, 65112, Note_on_c, 0, 79, 0
1, 65112, Note_on_c, 0, 78, 77
1, 65112, Note_on_c, 0, 69, 77
1, 65133, Note_on_c, 0, 78, 0
1, 65135, Note_on_c, 0, 69, 0
1, 65136, Note_on_c, 0, 76, 77
1, 65136, Note_on_c, 0, 61, 77
1, 65159, Note_on_c, 0, 61, 0
1, 65160, Note_on_c, 0, 69, 77
1, 65181, Note_on_c, 0, 76, 0
1, 65183, Note_on_c, 0, 69, 0
1, 65184, Note_on_c, 0, 78, 77
1, 65184, Note_on_c, 0, 62, 77
1, 65207, Note_on_c, 0, 62, 0
1, 65208, Note_on_c, 0, 69, 77
1, 65229, Note_on_c, 0, 78, 0
1, 65231, Note_on_c, 0, 69, 0
1, 65232, Note_on_c, 0, 74, 77
1, 65232, Note_on_c, 0, 66, 77
1, 65255, Note_on_c, 0, 66, 0
1, 65256, Note_on_c, 0, 69, 77
1, 65277, Note_on_c, 0, 74, 0
1, 65279, Note_on_c, 0, 69, 0
1, 65280, Note_on_c, 0, 76, 77
1, 65280, Note_on_c, 0, 67, 77
1, 65292, Note_on_c, 0, 76, 0
1, 65292, Note_on_c, 0, 78, 77
1, 65303, Note_on_c, 0, 67, 0
1, 65304, Note_on_c, 0, 78, 0
1, 65304, Note_on_c, 0, 76, 77
1, 65304, Note_on_c, 0, 69, 77
1, 65325, Note_on_c, 0, 76, 0
1, 65327, Note_on_c, 0, 69, 0
1, 65328, Note_on_c, 0, 75, 77
1, 65328, Note_on_c, 0, 66, 77
1, 65351, Note_on_c, 0, 66, 0
1, 65352, Note_on_c, 0, 69, 77
1, 65373, Note_on_c, 0, 75, 0
1, 65375, Note_on_c, 0, 69, 0
1, 65376, Note_on_c, 0, 76, 77
1, 65376, Note_on_c, 0, 67, 77
1, 65399, Note_on_c, 0, 67, 0
1, 65400, Note_on_c, 0, 69, 77
1, 65421, Note_on_c, 0, 76, 0
1, 65423, Note_on_c, 0, 69, 0
1, 65424, Note_on_c, 0, 73, 77
1, 65424, Note_on_c, 0, 64, 77
1, 65447, Note_on_c, 0, 64, 0
1, 65448, Note_on_c, 0, 69, 77
1, 65469, Note_on_c, 0, 73, 0
1, 65471, Note_on_c, 0, 69, 0
1, 65472, Note_on_c, 0, 74, 77
1, 65472, Note_on_c, 0, 66, 77
1, 65484, Note_on_c, 0, 74, 0
1, 65484, Note_on_c, 0, 76, 77
1, 65495, Note_on_c, 0, 66, 0
1, 65496, Note_on_c, 0, 76, 0
1, 65496, Note_on_c, 0, 74, 77
1, 65496, Note_on_c, 0, 69, 77
1, 65517, Note_on_c, 0, 74, 0
1, 65519, Note_on_c, 0, 69, 0
1, 65520, Note_on_c, 0, 73, 77
1, 65520, Note_on_c, 0, 64, 77
1, 65543, Note_on_c, 0, 64, 0
1, 65544, Note_on_c, 0, 69, 77
1, 65565, Note_on_c, 0, 73, 0
1, 65567, Note_on_c, 0, 69, 0
1, 65568, Note_on_c, 0, 74, 77
1, 65568, Note_on_c, 0, 66, 77
1, 65591, Note_on_c, 0, 66, 0
1, 65592, Note_on_c, 0, 69, 77
1, 65613, Note_on_c, 0, 74, 0
1, 65615, Note_on_c, 0, 69, 0
1, 65616, Note_on_c, 0, 78, 77
1, 65616, Note_on_c, 0, 62, 77
1, 65639, Note_on_c, 0, 62, 0
1, 65640, Note_on_c, 0, 69, 77
1, 65661, Note_on_c, 0, 78, 0
1, 65663, Note_on_c, 0, 69, 0
1, 65664, Note_on_c, 0, 79, 77
1, 65664, Note_on_c, 0, 64, 77
1, 65676, Note_on_c, 0, 79, 0
1, 65676, Note_on_c, 0, 81, 77
1, 65687, Note_on_c, 0, 64, 0
1, 65688, Note_on_c, 0, 81, 0
1, 65688, Note_on_c, 0, 79, 77
1, 65688, Note_on_c, 0, 69, 77
1, 65709, Note_on_c, 0, 79, 0
1, 65711, Note_on_c, 0, 69, 0
1, 65712, Note_on_c, 0, 78, 77
1, 65712, Note_on_c, 0, 63, 77
1, 65735, Note_on_c, 0, 63, 0
1, 65736, Note_on_c, 0, 69, 77
1, 65757, Note_on_c, 0, 78, 0
1, 65759, Note_on_c, 0, 69, 0
1, 65760, Note_on_c, 0, 79, 77
1, 65760, Note_on_c, 0, 64, 77
1, 65783, Note_on_c, 0, 64, 0
1, 65784, Note_on_c, 0, 69, 77
1, 65805, Note_on_c, 0, 79, 0
1, 65807, Note_on_c, 0, 69, 0
1, 65808, Note_on_c, 0, 76, 77
1, 65808, Note_on_c, 0, 61, 77
1, 65831, Note_on_c, 0, 61, 0
1, 65832, Note_on_c, 0, 69, 77
1, 65853, Note_on_c, 0, 76, 0
1, 65855, Note_on_c, 0, 69, 0
1, 65856, Note_on_c, 0, 78, 77
1, 65856, Note_on_c, 0, 62, 77
1, 65868, Note_on_c, 0, 78, 0
1, 65868, Note_on_c, 0, 79, 77
1, 65879, Note_on_c, 0, 62, 0
1, 65880, Note_on_c, 0, 79, 0
1, 65880, Note_on_c, 0, 78, 77
1, 65880, Note_on_c, 0, 69, 77
1, 65901, Note_on_c, 0, 78, 0
1, 65903, Note_on_c, 0, 69, 0
1, 65904, Note_on_c, 0, 76, 77
1, 65904, Note_on_c, 0, 61, 77
1, 65927, Note_on_c, 0, 61, 0
1, 65928, Note_on_c, 0, 69, 77
1, 65949, Note_on_c, 0, 76, 0
1, 65951, Note_on_c, 0, 69, 0
1, 65952, Note_on_c, 0, 78, 77
1, 65952, Note_on_c, 0, 62, 77
1, 65975, Note_on_c, 0, 62, 0
1, 65976, Note_on_c, 0, 69, 77
1, 65997, Note_on_c, 0, 78, 0
1, 65999, Note_on_c, 0, 69, 0
1, 66000, Note_on_c, 0, 74, 77
1, 66000, Note_on_c, 0, 66, 77
1, 66023, Note_on_c, 0, 66, 0
1, 66024, Note_on_c, 0, 69, 77
1, 66045, Note_on_c, 0, 74, 0
1, 66047, Note_on_c, 0, 69, 0
1, 66048, Note_on_c, 0, 76, 77
1, 66048, Note_on_c, 0, 67, 77
1, 66060, Note_on_c, 0, 76, 0
1, 66060, Note_on_c, 0, 78, 77
1, 66071, Note_on_c, 0, 67, 0
1, 66072, Note_on_c, 0, 78, 0
1, 66072, Note_on_c, 0, 76, 77
1, 66072, Note_on_c, 0, 71, 77
1, 66093, Note_on_c, 0, 76, 0
1, 66095, Note_on_c, 0, 71, 0
1, 66096, Note_on_c, 0, 75, 77
1, 66096, Note_on_c, 0, 66, 77
1, 66119, Note_on_c, 0, 66, 0
1, 66120, Note_on_c, 0, 69, 78
1, 66141, Note_on_c, 0, 75, 0
1, 66143, Note_on_c, 0, 69, 0
1, 66144, Note_on_c, 0, 76, 78
1, 66144, Note_on_c, 0, 67, 78
1, 66156, Note_on_c, 0, 76, 0
1, 66156, Note_on_c, 0, 78, 78
1, 66167, Note_on_c, 0, 67, 0
1, 66168, Note_on_c, 0, 78, 0
1, 66168, Note_on_c, 0, 76, 78
1, 66168, Note_on_c, 0, 71, 79
1, 66189, Note_on_c, 0, 76, 0
1, 66191, Note_on_c, 0, 71, 0
1, 66192, Note_on_c, 0, 75, 79
1, 66192, Note_on_c, 0, 66, 79
1, 66215, Note_on_c, 0, 66, 0
1, 66216, Note_on_c, 0, 69, 80
1, 66237, Note_on_c, 0, 75, 0
1, 66239, Note_on_c, 0, 69, 0
1, 66240, Note_on_c, 0, 76, 80
1, 66240, Note_on_c, 0, 67, 80
1, 66252, Note_on_c, 0, 76, 0
1, 66252, Note_on_c, 0, 78, 80
1, 66263, Note_on_c, 0, 67, 0
1, 66264, Note_on_c, 0, 78, 0
1, 66264, Note_on_c, 0, 76, 80
1, 66264, Note_on_c, 0, 71, 80
1, 66285, Note_on_c, 0, 76, 0
1, 66287, Note_on_c, 0, 71, 0
1, 66288, Note_on_c, 0, 75, 81
1, 66288, Note_on_c, 0, 66, 81
1, 66311, Note_on_c, 0, 66, 0
1, 66312, Note_on_c, 0, 69, 81
1, 66333, Note_on_c, 0, 75, 0
1, 66335, Note_on_c, 0, 69, 0
1, 66336, Note_on_c, 0, 76, 82
1, 66336, Note_on_c, 0, 67, 82
1, 66348, Note_on_c, 0, 76, 0
1, 66348, Note_on_c, 0, 78, 82
1, 66359, Note_on_c, 0, 67, 0
1, 66360, Note_on_c, 0, 78, 0
1, 66360, Note_on_c, 0, 76, 82
1, 66360, Note_on_c, 0, 71, 82
1, 66381, Note_on_c, 0, 76, 0
1, 66383, Note_on_c, 0, 71, 0
1, 66384, Note_on_c, 0, 75, 83
1, 66384, Note_on_c, 0, 66, 83
1, 66407, Note_on_c, 0, 66, 0
1, 66408, Note_on_c, 0, 69, 83
1, 66429, Note_on_c, 0, 75, 0
1, 66431, Note_on_c, 0, 69, 0
1, 66432, Note_on_c, 0, 76, 84
1, 66432, Note_on_c, 0, 67, 84
1, 66455, Note_on_c, 0, 76, 0
1, 66456, Note_on_c, 0, 79, 84
1, 66479, Note_on_c, 0, 79, 0
1, 66480, Note_on_c, 0, 78, 84
1, 66503, Note_on_c, 0, 78, 0
1, 66504, Note_on_c, 0, 81, 84
1, 66521, Note_on_c, 0, 67, 0
1, 66527, Note_on_c, 0, 81, 0
1, 66528, Note_on_c, 0, 79, 84
1, 66551, Note_on_c, 0, 79, 0
1, 66552, Note_on_c, 0, 83, 84
1, 66575, Note_on_c, 0, 83, 0
1, 66576, Note_on_c, 0, 81, 84
1, 66599, Note_on_c, 0, 81, 0
1, 66600, Note_on_c, 0, 84, 84
1, 66623, Note_on_c, 0, 84, 0
1, 66624, Note_on_c, 0, 83, 84
1, 66647, Note_on_c, 0, 83, 0
1, 66648, Note_on_c, 0, 81, 84
1, 66671, Note_on_c, 0, 81, 0
1, 66672, Note_on_c, 0, 79, 84
1, 66695, Note_on_c, 0, 79, 0
1, 66696, Note_on_c, 0, 78, 84
1, 66719, Note_on_c, 0, 78, 0
1, 66720, Note_on_c, 0, 76, 84
1, 66720, Note_on_c, 0, 68, 84
1, 66743, Note_on_c, 0, 76, 0
1, 66744, Note_on_c, 0, 74, 84
1, 66767, Note_on_c, 0, 74, 0
1, 66768, Note_on_c, 0, 73, 84
1, 66791, Note_on_c, 0, 73, 0
1, 66792, Note_on_c, 0, 71, 84
1, 66809, Note_on_c, 0, 68, 0
1, 66815, Note_on_c, 0, 71, 0
1, 66816, Note_on_c, 0, 69, 84
1, 66816, Note_on_c, 0, 57, 84
1, 66839, Note_on_c, 0, 69, 0
1, 66840, Note_on_c, 0, 81, 84
1, 66863, Note_on_c, 0, 81, 0
1, 66864, Note_on_c, 0, 80, 84
1, 66887, Note_on_c, 0, 80, 0
1, 66888, Note_on_c, 0, 81, 84
1, 66905, Note_on_c, 0, 57, 0
1, 66911, Note_on_c, 0, 81, 0
1, 66912, Note_on_c, 0, 80, 84
1, 66935, Note_on_c, 0, 80, 0
1, 66936, Note_on_c, 0, 81, 84
1, 66959, Note_on_c, 0, 81, 0
1, 66960, Note_on_c, 0, 80, 84
1, 66983, Note_on_c, 0, 80, 0
1, 66984, Note_on_c, 0, 81, 84
1, 67007, Note_on_c, 0, 81, 0
1, 67008, Note_on_c, 0, 69, 84
1, 67031, Note_on_c, 0, 69, 0
1, 67032, Note_on_c, 0, 79, 84
1, 67055, Note_on_c, 0, 79, 0
1, 67056, Note_on_c, 0, 78, 84
1, 67079, Note_on_c, 0, 78, 0
1, 67080, Note_on_c, 0, 79, 84
1, 67103, Note_on_c, 0, 79, 0
1, 67104, Note_on_c, 0, 78, 84
1, 67127, Note_on_c, 0, 78, 0
1, 67128, Note_on_c, 0, 79, 84
1, 67151, Note_on_c, 0, 79, 0
1, 67152, Note_on_c, 0, 78, 84
1, 67175, Note_on_c, 0, 78, 0
1, 67176, Note_on_c, 0, 79, 84
1, 67199, Note_on_c, 0, 79, 0
1, 67200, Note_on_c, 0, 69, 84
1, 67200, Note_on_c, 0, 57, 84
1, 67223, Note_on_c, 0, 69, 0
1, 67223, Note_on_c, 0, 57, 0
1, 67224, Note_on_c, 0, 78, 84
1, 67224, Note_on_c, 0, 69, 84
1, 67247, Note_on_c, 0, 78, 0
1, 67247, Note_on_c, 0, 69, 0
1, 67248, Note_on_c, 0, 77, 84
1, 67248, Note_on_c, 0, 68, 84
1, 67271, Note_on_c, 0, 77, 0
1, 67271, Note_on_c, 0, 68, 0
1, 67272, Note_on_c, 0, 78, 84
1, 67272, Note_on_c, 0, 69, 84
1, 67295, Note_on_c, 0, 78, 0
1, 67295, Note_on_c, 0, 69, 0
1, 67296, Note_on_c, 0, 77, 84
1, 67296, Note_on_c, 0, 68, 84
1, 67319, Note_on_c, 0, 77, 0
1, 67319, Note_on_c, 0, 68, 0
1, 67320, Note_on_c, 0, 78, 84
1, 67320, Note_on_c, 0, 69, 84
1, 67343, Note_on_c, 0, 78, 0
1, 67343, Note_on_c, 0, 69, 0
1, 67344, Note_on_c, 0, 77, 84
1, 67344, Note_on_c, 0, 68, 84
1, 67367, Note_on_c, 0, 77, 0
1, 67367, Note_on_c, 0, 68, 0
1, 67368, Note_on_c, 0, 78, 84
1, 67368, Note_on_c, 0, 69, 84
1, 67391, Note_on_c, 0, 78, 0
1, 67391, Note_on_c, 0, 69, 0
1, 67392, Note_on_c, 0, 69, 84
1, 67392, Note_on_c, 0, 57, 84
1, 67415, Note_on_c, 0, 69, 0
1, 67415, Note_on_c, 0, 57, 0
1, 67416, Note_on_c, 0, 76, 84
1, 67416, Note_on_c, 0, 67, 84
1, 67439, Note_on_c, 0, 76, 0
1, 67439, Note_on_c, 0, 67, 0
1, 67440, Note_on_c, 0, 75, 84
1, 67440, Note_on_c, 0, 66, 84
1, 67463, Note_on_c, 0, 75, 0
1, 67463, Note_on_c, 0, 66, 0
1, 67464, Note_on_c, 0, 76, 84
1, 67464, Note_on_c, 0, 67, 84
1, 67487, Note_on_c, 0, 76, 0
1, 67487, Note_on_c, 0, 67, 0
1, 67488, Note_on_c, 0, 75, 84
1, 67488, Note_on_c, 0, 66, 84
1, 67511, Note_on_c, 0, 75, 0
1, 67511, Note_on_c, 0, 66, 0
1, 67512, Note_on_c, 0, 76, 84
1, 67512, Note_on_c, 0, 67, 84
1, 67535, Note_on_c, 0, 76, 0
1, 67535, Note_on_c, 0, 67, 0
1, 67536, Note_on_c, 0, 75, 84
1, 67536, Note_on_c, 0, 66, 84
1, 67559, Note_on_c, 0, 75, 0
1, 67559, Note_on_c, 0, 66, 0
1, 67560, Note_on_c, 0, 76, 84
1, 67560, Note_on_c, 0, 67, 84
1, 67583, Note_on_c, 0, 76, 0
1, 67583, Note_on_c, 0, 67, 0
1, 67584, Note_on_c, 0, 74, 84
1, 67584, Note_on_c, 0, 66, 84
1, 67584, Note_on_c, 0, 62, 84
1, 67607, Note_on_c, 0, 74, 0
1, 67608, Note_on_c, 0, 69, 84
1, 67631, Note_on_c, 0, 69, 0
1, 67632, Note_on_c, 0, 66, 84
1, 67655, Note_on_c, 0, 66, 0
1, 67656, Note_on_c, 0, 69, 84
1, 67673, Note_on_c, 0, 66, 0
1, 67673, Note_on_c, 0, 62, 0
1, 67679, Note_on_c, 0, 69, 0
1, 67680, Note_on_c, 0, 74, 84
1, 67680, Note_on_c, 0, 62, 84
1, 67703, Note_on_c, 0, 74, 0
1, 67704, Note_on_c, 0, 69, 84
1, 67725, Note_on_c, 0, 62, 0
1, 67727, Note_on_c, 0, 69, 0
1, 67728, Note_on_c, 0, 76, 84
1, 67728, Note_on_c, 0, 61, 84
1, 67751, Note_on_c, 0, 76, 0
1, 67752, Note_on_c, 0, 69, 84
1, 67773, Note_on_c, 0, 61, 0
1, 67775, Note_on_c, 0, 69, 0
1, 67776, Note_on_c, 0, 78, 84
1, 67776, Note_on_c, 0, 62, 84
1, 67799, Note_on_c, 0, 78, 0
1, 67800, Note_on_c, 0, 69, 84
1, 67821, Note_on_c, 0, 62, 0
1, 67823, Note_on_c, 0, 69, 0
1, 67824, Note_on_c, 0, 79, 84
1, 67824, Note_on_c, 0, 64, 84
1, 67847, Note_on_c, 0, 79, 0
1, 67848, Note_on_c, 0, 69, 84
1, 67869, Note_on_c, 0, 64, 0
1, 67871, Note_on_c, 0, 69, 0
1, 67872, Note_on_c, 0, 81, 84
1, 67872, Note_on_c, 0, 66, 84
1, 67895, Note_on_c, 0, 81, 0
1, 67896, Note_on_c, 0, 69, 84
1, 67917, Note_on_c, 0, 66, 0
1, 67919, Note_on_c, 0, 69, 0
1, 67920, Note_on_c, 0, 79, 84
1, 67920, Note_on_c, 0, 64, 84
1, 67943, Note_on_c, 0, 79, 0
1, 67944, Note_on_c, 0, 69, 84
1, 67965, Note_on_c, 0, 64, 0
1, 67967, Note_on_c, 0, 69, 0
1, 67968, Note_on_c, 0, 78, 84
1, 67968, Note_on_c, 0, 62, 84
1, 67968, Note_on_c, 0, 50, 84
1, 67991, Note_on_c, 0, 78, 0
1, 67992, Note_on_c, 0, 74, 84
1, 68015, Note_on_c, 0, 74, 0
1, 68016, Note_on_c, 0, 69, 84
1, 68039, Note_on_c, 0, 69, 0
1, 68040, Note_on_c, 0, 74, 84
1, 68057, Note_on_c, 0, 62, 0
1, 68057, Note_on_c, 0, 50, 0
1, 68063, Note_on_c, 0, 74, 0
1, 68064, Note_on_c, 0, 78, 84
1, 68064, Note_on_c, 0, 62, 84
1, 68087, Note_on_c, 0, 78, 0
1, 68088, Note_on_c, 0, 74, 84
1, 68109, Note_on_c, 0, 62, 0
1, 68111, Note_on_c, 0, 74, 0
1, 68112, Note_on_c, 0, 79, 84
1, 68112, Note_on_c, 0, 64, 84
1, 68135, Note_on_c, 0, 79, 0
1, 68136, Note_on_c, 0, 74, 84
1, 68157, Note_on_c, 0, 64, 0
1, 68159, Note_on_c, 0, 74, 0
1, 68160, Note_on_c, 0, 81, 84
1, 68160, Note_on_c, 0, 66, 84
1, 68183, Note_on_c, 0, 81, 0
1, 68184, Note_on_c, 0, 74, 84
1, 68205, Note_on_c, 0, 66, 0
1, 68207, Note_on_c, 0, 74, 0
1, 68208, Note_on_c, 0, 83, 84
1, 68208, Note_on_c, 0, 67, 84
1, 68231, Note_on_c, 0, 83, 0
1, 68232, Note_on_c, 0, 74, 84
1, 68253, Note_on_c, 0, 67, 0
1, 68255, Note_on_c, 0, 74, 0
1, 68256, Note_on_c, 0, 81, 84
1, 68256, Note_on_c, 0, 66, 84
1, 68279, Note_on_c, 0, 81, 0
1, 68280, Note_on_c, 0, 74, 84
1, 68301, Note_on_c, 0, 66, 0
1, 68303, Note_on_c, 0, 74, 0
1, 68304, Note_on_c, 0, 79, 84
1, 68304, Note_on_c, 0, 64, 84
1, 68327, Note_on_c, 0, 79, 0
1, 68328, Note_on_c, 0, 74, 84
1, 68349, Note_on_c, 0, 64, 0
1, 68351, Note_on_c, 0, 74, 0
1, 68352, Note_on_c, 0, 78, 84
1, 68352, Note_on_c, 0, 62, 84
1, 68375, Note_on_c, 0, 78, 0
1, 68376, Note_on_c, 0, 74, 84
1, 68397, Note_on_c, 0, 62, 0
1, 68399, Note_on_c, 0, 74, 0
1, 68400, Note_on_c, 0, 73, 84
1, 68400, Note_on_c, 0, 66, 84
1, 68423, Note_on_c, 0, 73, 0
1, 68424, Note_on_c, 0, 74, 84
1, 68445, Note_on_c, 0, 66, 0
1, 68447, Note_on_c, 0, 74, 0
1, 68448, Note_on_c, 0, 83, 84
1, 68448, Note_on_c, 0, 67, 84
1, 68471, Note_on_c, 0, 83, 0
1, 68472, Note_on_c, 0, 74, 84
1, 68493, Note_on_c, 0, 67, 0
1, 68495, Note_on_c, 0, 74, 0
1, 68496, Note_on_c, 0, 73, 84
1, 68496, Note_on_c, 0, 71, 84
1, 68519, Note_on_c, 0, 73, 0
1, 68520, Note_on_c, 0, 74, 84
1, 68541, Note_on_c, 0, 71, 0
1, 68543, Note_on_c, 0, 74, 0
1, 68544, Note_on_c, 0, 81, 84
1, 68544, Note_on_c, 0, 66, 84
1, 68567, Note_on_c, 0, 81, 0
1, 68568, Note_on_c, 0, 74, 84
1, 68589, Note_on_c, 0, 66, 0
1, 68591, Note_on_c, 0, 74, 0
1, 68592, Note_on_c, 0, 73, 84
1, 68592, Note_on_c, 0, 69, 84
1, 68615, Note_on_c, 0, 73, 0
1, 68616, Note_on_c, 0, 74, 84
1, 68637, Note_on_c, 0, 69, 0
1, 68639, Note_on_c, 0, 74, 0
1, 68640, Note_on_c, 0, 79, 84
1, 68640, Note_on_c, 0, 64, 84
1, 68663, Note_on_c, 0, 79, 0
1, 68664, Note_on_c, 0, 74, 84
1, 68685, Note_on_c, 0, 64, 0
1, 68687, Note_on_c, 0, 74, 0
1, 68688, Note_on_c, 0, 73, 84
1, 68688, Note_on_c, 0, 67, 84
1, 68711, Note_on_c, 0, 73, 0
1, 68712, Note_on_c, 0, 74, 84
1, 68733, Note_on_c, 0, 67, 0
1, 68735, Note_on_c, 0, 74, 0
1, 68736, Note_on_c, 0, 78, 84
1, 68736, Note_on_c, 0, 62, 84
1, 68759, Note_on_c, 0, 78, 0
1, 68760, Note_on_c, 0, 74, 84
1, 68781, Note_on_c, 0, 62, 0
1, 68783, Note_on_c, 0, 74, 0
1, 68784, Note_on_c, 0, 73, 84
1, 68784, Note_on_c, 0, 66, 84
1, 68807, Note_on_c, 0, 73, 0
1, 68808, Note_on_c, 0, 74, 84
1, 68829, Note_on_c, 0, 66, 0
1, 68831, Note_on_c, 0, 74, 0
1, 68832, Note_on_c, 0, 83, 84
1, 68832, Note_on_c, 0, 67, 84
1, 68855, Note_on_c, 0, 83, 0
1, 68856, Note_on_c, 0, 74, 84
1, 68877, Note_on_c, 0, 67, 0
1, 68879, Note_on_c, 0, 74, 0
1, 68880, Note_on_c, 0, 86, 84
1, 68880, Note_on_c, 0, 71, 84
1, 68903, Note_on_c, 0, 86, 0
1, 68904, Note_on_c, 0, 74, 84
1, 68925, Note_on_c, 0, 71, 0
1, 68927, Note_on_c, 0, 74, 0
1, 68928, Note_on_c, 0, 81, 84
1, 68928, Note_on_c, 0, 66, 84
1, 68951, Note_on_c, 0, 81, 0
1, 68952, Note_on_c, 0, 74, 84
1, 68973, Note_on_c, 0, 66, 0
1, 68975, Note_on_c, 0, 74, 0
1, 68976, Note_on_c, 0, 86, 84
1, 68976, Note_on_c, 0, 69, 84
1, 68999, Note_on_c, 0, 86, 0
1, 69000, Note_on_c, 0, 74, 84
1, 69021, Note_on_c, 0, 69, 0
1, 69023, Note_on_c, 0, 74, 0
1, 69024, Note_on_c, 0, 79, 84
1, 69024, Note_on_c, 0, 64, 84
1, 69047, Note_on_c, 0, 79, 0
1, 69048, Note_on_c, 0, 74, 84
1, 69069, Note_on_c, 0, 64, 0
1, 69071, Note_on_c, 0, 74, 0
1, 69072, Note_on_c, 0, 86, 84
1, 69072, Note_on_c, 0, 67, 84
1, 69095, Note_on_c, 0, 86, 0
1, 69096, Note_on_c, 0, 74, 84
1, 69117, Note_on_c, 0, 67, 0
1, 69119, Note_on_c, 0, 74, 0
1, 69120, Note_on_c, 0, 78, 84
1, 69120, Note_on_c, 0, 62, 84
1, 69143, Note_on_c, 0, 78, 0
1, 69144, Note_on_c, 0, 74, 84
1, 69165, Note_on_c, 0, 62, 0
1, 69167, Note_on_c, 0, 74, 0
1, 69168, Note_on_c, 0, 86, 84
1, 69168, Note_on_c, 0, 66, 84
1, 69191, Note_on_c, 0, 86, 0
1, 69192, Note_on_c, 0, 74, 85
1, 69213, Note_on_c, 0, 66, 0
1, 69215, Note_on_c, 0, 74, 0
1, 69216, Note_on_c, 0, 78, 85
1, 69216, Note_on_c, 0, 62, 85
1, 69239, Note_on_c, 0, 78, 0
1, 69240, Note_on_c, 0, 74, 86
1, 69261, Note_on_c, 0, 62, 0
1, 69263, Note_on_c, 0, 74, 0
1, 69264, Note_on_c, 0, 86, 86
1, 69264, Note_on_c, 0, 66, 86
1, 69287, Note_on_c, 0, 86, 0
1, 69288, Note_on_c, 0, 74, 87
1, 69309, Note_on_c, 0, 66, 0
1, 69311, Note_on_c, 0, 74, 0
1, 69312, Note_on_c, 0, 80, 87
1, 69312, Note_on_c, 0, 59, 87
1, 69335, Note_on_c, 0, 80, 0
1, 69336, Note_on_c, 0, 74, 87
1, 69357, Note_on_c, 0, 59, 0
1, 69359, Note_on_c, 0, 74, 0
1, 69360, Note_on_c, 0, 86, 88
1, 69360, Note_on_c, 0, 62, 88
1, 69383, Note_on_c, 0, 86, 0
1, 69384, Note_on_c, 0, 74, 88
1, 69405, Note_on_c, 0, 62, 0
1, 69407, Note_on_c, 0, 74, 0
1, 69408, Note_on_c, 0, 80, 89
1, 69408, Note_on_c, 0, 59, 89
1, 69431, Note_on_c, 0, 80, 0
1, 69432, Note_on_c, 0, 74, 89
1, 69453, Note_on_c, 0, 59, 0
1, 69455, Note_on_c, 0, 74, 0
1, 69456, Note_on_c, 0, 86, 90
1, 69456, Note_on_c, 0, 62, 90
1, 69479, Note_on_c, 0, 86, 0
1, 69480, Note_on_c, 0, 74, 90
1, 69501, Note_on_c, 0, 62, 0
1, 69503, Note_on_c, 0, 74, 0
1, 69504, Note_on_c, 0, 85, 91
1, 69504, Note_on_c, 0, 81, 91
1, 69504, Note_on_c, 0, 57, 91
1, 69593, Note_on_c, 0, 85, 0
1, 69593, Note_on_c, 0, 81, 0
1, 69593, Note_on_c, 0, 57, 0
1, 69600, Note_on_c, 0, 69, 84
1, 69600, Note_on_c, 0, 61, 84
1, 69600, Note_on_c, 0, 57, 84
1, 69600, Note_on_c, 0, 45, 84
1, 69667, Note_on_c, 0, 69, 0
1, 69667, Note_on_c, 0, 61, 0
1, 69667, Note_on_c, 0, 57, 0
1, 69667, Note_on_c, 0, 45, 0
1, 69672, Note_on_c, 0, 69, 84
1, 69672, Note_on_c, 0, 61, 84
1, 69672, Note_on_c, 0, 57, 84
1, 69672, Note_on_c, 0, 45, 84
1, 69695, Note_on_c, 0, 69, 0
1, 69695, Note_on_c, 0, 61, 0
1, 69695, Note_on_c, 0, 57, 0
1, 69695, Note_on_c, 0, 45, 0
1, 69696, Note_on_c, 0, 69, 84
1, 69696, Note_on_c, 0, 61, 84
1, 69696, Note_on_c, 0, 57, 84
1, 69696, Note_on_c, 0, 45, 84
1, 69785, Note_on_c, 0, 69, 0
1, 69785, Note_on_c, 0, 61, 0
1, 69785, Note_on_c, 0, 57, 0
1, 69785, Note_on_c, 0, 45, 0
1, 69888, Note_on_c, 0, 83, 77
1, 69888, Note_on_c, 0, 66, 69
1, 69888, Note_on_c, 0, 62, 69
1, 69894, Note_on_c, 0, 83, 0
1, 69894, Note_on_c, 0, 81, 77
1, 69911, Note_on_c, 0, 81, 0
1, 69912, Note_on_c, 0, 80, 77
1, 69933, Note_on_c, 0, 66, 0
1, 69933, Note_on_c, 0, 62, 0
1, 69935, Note_on_c, 0, 80, 0
1, 69936, Note_on_c, 0, 81, 77
1, 69936, Note_on_c, 0, 66, 69
1, 69936, Note_on_c, 0, 62, 69
1, 69959, Note_on_c, 0, 81, 0
1, 69960, Note_on_c, 0, 83, 77
1, 69981, Note_on_c, 0, 66, 0
1, 69981, Note_on_c, 0, 62, 0
1, 69983, Note_on_c, 0, 83, 0
1, 69984, Note_on_c, 0, 81, 77
1, 69984, Note_on_c, 0, 66, 69
1, 69984, Note_on_c, 0, 62, 69
1, 70029, Note_on_c, 0, 81, 0
1, 70029, Note_on_c, 0, 66, 0
1, 70029, Note_on_c, 0, 62, 0
1, 70032, Note_on_c, 0, 66, 69
1, 70032, Note_on_c, 0, 62, 69
1, 70077, Note_on_c, 0, 66, 0
1, 70077, Note_on_c, 0, 62, 0
1, 70080, Note_on_c, 0, 74, 77
1, 70080, Note_on_c, 0, 67, 69
1, 70080, Note_on_c, 0, 64, 69
1, 70086, Note_on_c, 0, 74, 0
1, 70086, Note_on_c, 0, 73, 77
1, 70103, Note_on_c, 0, 73, 0
1, 70104, Note_on_c, 0, 71, 77
1, 70125, Note_on_c, 0, 67, 0
1, 70125, Note_on_c, 0, 64, 0
1, 70127, Note_on_c, 0, 71, 0
1, 70128, Note_on_c, 0, 73, 77
1, 70128, Note_on_c, 0, 67, 69
1, 70128, Note_on_c, 0, 64, 69
1, 70151, Note_on_c, 0, 73, 0
1, 70152, Note_on_c, 0, 74, 77
1, 70173, Note_on_c, 0, 67, 0
1, 70173, Note_on_c, 0, 64, 0
1, 70175, Note_on_c, 0, 74, 0
1, 70176, Note_on_c, 0, 73, 77
1, 70176, Note_on_c, 0, 67, 69
1, 70176, Note_on_c, 0, 64, 69
1, 70221, Note_on_c, 0, 73, 0
1, 70221, Note_on_c, 0, 67, 0
1, 70221, Note_on_c, 0, 64, 0
1, 70224, Note_on_c, 0, 67, 69
1, 70224, Note_on_c, 0, 64, 69
1, 70269, Note_on_c, 0, 67, 0
1, 70269, Note_on_c, 0, 64, 0
1, 70272, Note_on_c, 0, 81, 77
1, 70272, Note_on_c, 0, 64, 69
1, 70272, Note_on_c, 0, 61, 69
1, 70278, Note_on_c, 0, 81, 0
1, 70278, Note_on_c, 0, 79, 77
1, 70295, Note_on_c, 0, 79, 0
1, 70296, Note_on_c, 0, 78, 77
1, 70317, Note_on_c, 0, 64, 0
1, 70317, Note_on_c, 0, 61, 0
1, 70319, Note_on_c, 0, 78, 0
1, 70320, Note_on_c, 0, 79, 77
1, 70320, Note_on_c, 0, 64, 69
1, 70320, Note_on_c, 0, 61, 69
1, 70343, Note_on_c, 0, 79, 0
1, 70344, Note_on_c, 0, 81, 77
1, 70365, Note_on_c, 0, 64, 0
1, 70365, Note_on_c, 0, 61, 0
1, 70367, Note_on_c, 0, 81, 0
1, 70368, Note_on_c, 0, 79, 77
1, 70368, Note_on_c, 0, 64, 69
1, 70368, Note_on_c, 0, 61, 69
1, 70413, Note_on_c, 0, 79, 0
1, 70413, Note_on_c, 0, 64, 0
1, 70413, Note_on_c, 0, 61, 0
1, 70416, Note_on_c, 0, 64, 69
1, 70416, Note_on_c, 0, 61, 69
1, 70461, Note_on_c, 0, 64, 0
1, 70461, Note_on_c, 0, 61, 0
1, 70464, Note_on_c, 0, 79, 77
1, 70464, Note_on_c, 0, 66, 69
1, 70464, Note_on_c, 0, 62, 69
1, 70470, Note_on_c, 0, 79, 0
1, 70470, Note_on_c, 0, 78, 77
1, 70487, Note_on_c, 0, 78, 0
1, 70488, Note_on_c, 0, 76, 77
1, 70509, Note_on_c, 0, 66, 0
1, 70509, Note_on_c, 0, 62, 0
1, 70511, Note_on_c, 0, 76, 0
1, 70512, Note_on_c, 0, 78, 77
1, 70512, Note_on_c, 0, 66, 69
1, 70512, Note_on_c, 0, 62, 69
1, 70535, Note_on_c, 0, 78, 0
1, 70536, Note_on_c, 0, 79, 77
1, 70557, Note_on_c, 0, 66, 0
1, 70557, Note_on_c, 0, 62, 0
1, 70559, Note_on_c, 0, 79, 0
1, 70560, Note_on_c, 0, 78, 77
1, 70560, Note_on_c, 0, 66, 69
1, 70560, Note_on_c, 0, 62, 69
1, 70605, Note_on_c, 0, 78, 0
1, 70605, Note_on_c, 0, 66, 0
1, 70605, Note_on_c, 0, 62, 0
1, 70608, Note_on_c, 0, 66, 69
1, 70608, Note_on_c, 0, 62, 69
1, 70653, Note_on_c, 0, 66, 0
1, 70653, Note_on_c, 0, 62, 0
1, 70656, Note_on_c, 0, 78, 77
1, 70656, Note_on_c, 0, 59, 69
1, 70656, Note_on_c, 0, 55, 69
1, 70662, Note_on_c, 0, 78, 0
1, 70662, Note_on_c, 0, 76, 77
1, 70679, Note_on_c, 0, 76, 0
1, 70680, Note_on_c, 0, 75, 77
1, 70701, Note_on_c, 0, 59, 0
1, 70701, Note_on_c, 0, 55, 0
1, 70703, Note_on_c, 0, 75, 0
1, 70704, Note_on_c, 0, 76, 77
1, 70704, Note_on_c, 0, 59, 71
1, 70704, Note_on_c, 0, 55, 71
1, 70727, Note_on_c, 0, 76, 0
1, 70728, Note_on_c, 0, 78, 77
1, 70749, Note_on_c, 0, 59, 0
1, 70749, Note_on_c, 0, 55, 0
1, 70751, Note_on_c, 0, 78, 0
1, 70752, Note_on_c, 0, 76, 77
1, 70752, Note_on_c, 0, 59, 73
1, 70752, Note_on_c, 0, 55, 73
1, 70797, Note_on_c, 0, 76, 0
1, 70797, Note_on_c, 0, 59, 0
1, 70797, Note_on_c, 0, 55, 0
1, 70800, Note_on_c, 0, 59, 75
1, 70800, Note_on_c, 0, 55, 75
1, 70845, Note_on_c, 0, 59, 0
1, 70845, Note_on_c, 0, 55, 0
1, 70848, Note_on_c, 0, 67, 77
1, 70848, Note_on_c, 0, 64, 77
1, 70848, Note_on_c, 0, 59, 77
1, 70848, Note_on_c, 0, 55, 77
1, 70893, Note_on_c, 0, 67, 0
1, 70893, Note_on_c, 0, 64, 0
1, 70896, Note_on_c, 0, 79, 77
1, 70896, Note_on_c, 0, 76, 77
1, 70937, Note_on_c, 0, 59, 0
1, 70937, Note_on_c, 0, 55, 0
1, 70941, Note_on_c, 0, 79, 0
1, 70941, Note_on_c, 0, 76, 0
1, 70944, Note_on_c, 0, 79, 77
1, 70944, Note_on_c, 0, 76, 77
1, 70989, Note_on_c, 0, 79, 0
1, 70989, Note_on_c, 0, 76, 0
1, 70992, Note_on_c, 0, 78, 77
1, 70992, Note_on_c, 0, 75, 77
1, 71037, Note_on_c, 0, 78, 0
1, 71037, Note_on_c, 0, 75, 0
1, 71040, Note_on_c, 0, 78, 77
1, 71040, Note_on_c, 0, 47, 77
1, 71040, Note_on_c, 0, 43, 77
1, 71046, Note_on_c, 0, 78, 0
1, 71046, Note_on_c, 0, 76, 77
1, 71063, Note_on_c, 0, 76, 0
1, 71064, Note_on_c, 0, 75, 77
1, 71085, Note_on_c, 0, 47, 0
1, 71085, Note_on_c, 0, 43, 0
1, 71087, Note_on_c, 0, 75, 0
1, 71088, Note_on_c, 0, 76, 77
1, 71088, Note_on_c, 0, 59, 77
1, 71088, Note_on_c, 0, 55, 77
1, 71111, Note_on_c, 0, 76, 0
1, 71112, Note_on_c, 0, 78, 77
1, 71133, Note_on_c, 0, 59, 0
1, 71133, Note_on_c, 0, 55, 0
1, 71135, Note_on_c, 0, 78, 0
1, 71136, Note_on_c, 0, 76, 77
1, 71136, Note_on_c, 0, 59, 77
1, 71136, Note_on_c, 0, 55, 77
1, 71181, Note_on_c, 0, 76, 0
1, 71181, Note_on_c, 0, 59, 0
1, 71181, Note_on_c, 0, 55, 0
1, 71184, Note_on_c, 0, 57, 77
1, 71184, Note_on_c, 0, 54, 77
1, 71229, Note_on_c, 0, 57, 0
1, 71229, Note_on_c, 0, 54, 0
1, 71232, Note_on_c, 0, 67, 77
1, 71232, Note_on_c, 0, 64, 77
1, 71232, Note_on_c, 0, 59, 77
1, 71232, Note_on_c, 0, 55, 77
1, 71277, Note_on_c, 0, 67, 0
1, 71277, Note_on_c, 0, 64, 0
1, 71280, Note_on_c, 0, 79, 77
1, 71280, Note_on_c, 0, 76, 77
1, 71321, Note_on_c, 0, 59, 0
1, 71321, Note_on_c, 0, 55, 0
1, 71325, Note_on_c, 0, 79, 0
1, 71325, Note_on_c, 0, 76, 0
1, 71328, Note_on_c, 0, 79, 77
1, 71328, Note_on_c, 0, 76, 77
1, 71373, Note_on_c, 0, 79, 0
1, 71373, Note_on_c, 0, 76, 0
1, 71376, Note_on_c, 0, 78, 77
1, 71376, Note_on_c, 0, 75, 77
1, 71421, Note_on_c, 0, 78, 0
1, 71421, Note_on_c, 0, 75, 0
1, 71424, Note_on_c, 0, 78, 77
1, 71424, Note_on_c, 0, 47, 77
1, 71424, Note_on_c, 0, 43, 77
1, 71430, Note_on_c, 0, 78, 0
1, 71430, Note_on_c, 0, 76, 77
1, 71447, Note_on_c, 0, 76, 0
1, 71448, Note_on_c, 0, 75, 77
1, 71469, Note_on_c, 0, 47, 0
1, 71469, Note_on_c, 0, 43, 0
1, 71471, Note_on_c, 0, 75, 0
1, 71472, Note_on_c, 0, 76, 77
1, 71472, Note_on_c, 0, 59, 77
1, 71472, Note_on_c, 0, 55, 77
1, 71495, Note_on_c, 0, 76, 0
1, 71496, Note_on_c, 0, 78, 78
1, 71517, Note_on_c, 0, 59, 0
1, 71517, Note_on_c, 0, 55, 0
1, 71519, Note_on_c, 0, 78, 0
1, 71520, Note_on_c, 0, 76, 78
1, 71520, Note_on_c, 0, 59, 78
1, 71520, Note_on_c, 0, 55, 78
1, 71565, Note_on_c, 0, 76, 0
1, 71565, Note_on_c, 0, 59, 0
1, 71565, Note_on_c, 0, 55, 0
1, 71568, Note_on_c, 0, 59, 79
1, 71568, Note_on_c, 0, 55, 79
1, 71613, Note_on_c, 0, 59, 0
1, 71613, Note_on_c, 0, 55, 0
1, 71616, Note_on_c, 0, 76, 80
1, 71616, Note_on_c, 0, 59, 80
1, 71616, Note_on_c, 0, 56, 80
1, 71622, Note_on_c, 0, 76, 0
1, 71622, Note_on_c, 0, 74, 80
1, 71639, Note_on_c, 0, 74, 0
1, 71640, Note_on_c, 0, 73, 80
1, 71661, Note_on_c, 0, 59, 0
1, 71661, Note_on_c, 0, 56, 0
1, 71663, Note_on_c, 0, 73, 0
1, 71664, Note_on_c, 0, 74, 81
1, 71664, Note_on_c, 0, 59, 81
1, 71664, Note_on_c, 0, 56, 81
1, 71687, Note_on_c, 0, 74, 0
1, 71688, Note_on_c, 0, 76, 81
1, 71709, Note_on_c, 0, 59, 0
1, 71709, Note_on_c, 0, 56, 0
1, 71711, Note_on_c, 0, 76, 0
1, 71712, Note_on_c, 0, 74, 82
1, 71712, Note_on_c, 0, 59, 82
1, 71712, Note_on_c, 0, 56, 82
1, 71757, Note_on_c, 0, 74, 0
1, 71757, Note_on_c, 0, 59, 0
1, 71757, Note_on_c, 0, 56, 0
1, 71760, Note_on_c, 0, 59, 83
1, 71760, Note_on_c, 0, 56, 83
1, 71805, Note_on_c, 0, 59, 0
1, 71805, Note_on_c, 0, 56, 0
1, 71808, Note_on_c, 0, 81, 100
1, 71808, Note_on_c, 0, 45, 84
1, 71831, Note_on_c, 0, 45, 0
1, 71832, Note_on_c, 0, 49, 84
1, 71855, Note_on_c, 0, 49, 0
1, 71856, Note_on_c, 0, 81, 0
1, 71856, Note_on_c, 0, 69, 84
1, 71856, Note_on_c, 0, 47, 84
1, 71879, Note_on_c, 0, 47, 0
1, 71880, Note_on_c, 0, 50, 84
1, 71901, Note_on_c, 0, 69, 0
1, 71903, Note_on_c, 0, 50, 0
1, 71904, Note_on_c, 0, 69, 84
1, 71904, Note_on_c, 0, 49, 84
1, 71927, Note_on_c, 0, 49, 0
1, 71928, Note_on_c, 0, 52, 84
1, 71949, Note_on_c, 0, 69, 0
1, 71951, Note_on_c, 0, 52, 0
1, 71952, Note_on_c, 0, 69, 84
1, 71952, Note_on_c, 0, 50, 84
1, 71975, Note_on_c, 0, 50, 0
1, 71976, Note_on_c, 0, 54, 84
1, 71997, Note_on_c, 0, 69, 0
1, 71999, Note_on_c, 0, 54, 0
1, 72000, Note_on_c, 0, 69, 84
1, 72000, Note_on_c, 0, 52, 84
1, 72023, Note_on_c, 0, 69, 0
1, 72024, Note_on_c, 0, 71, 84
1, 72047, Note_on_c, 0, 71, 0
1, 72048, Note_on_c, 0, 69, 84
1, 72071, Note_on_c, 0, 69, 0
1, 72072, Note_on_c, 0, 67, 84
1, 72095, Note_on_c, 0, 67, 0
1, 72096, Note_on_c, 0, 66, 84
1, 72096, Note_on_c, 0, 55, 84
1, 72119, Note_on_c, 0, 66, 0
1, 72120, Note_on_c, 0, 64, 84
1, 72143, Note_on_c, 0, 64, 0
1, 72144, Note_on_c, 0, 62, 84
1, 72167, Note_on_c, 0, 62, 0
1, 72168, Note_on_c, 0, 61, 84
1, 72177, Note_on_c, 0, 52, 0
1, 72185, Note_on_c, 0, 55, 0
1, 72191, Note_on_c, 0, 61, 0
1, 72192, Note_on_c, 0, 62, 84
1, 72192, Note_on_c, 0, 54, 84
1, 72192, Note_on_c, 0, 54, 84
1, 72215, Note_on_c, 0, 62, 0
1, 72216, Note_on_c, 0, 66, 84
1, 72239, Note_on_c, 0, 66, 0
1, 72240, Note_on_c, 0, 64, 84
1, 72263, Note_on_c, 0, 64, 0
1, 72264, Note_on_c, 0, 67, 84
1, 72281, Note_on_c, 0, 54, 0
1, 72281, Note_on_c, 0, 54, 0
1, 72287, Note_on_c, 0, 67, 0
1, 72288, Note_on_c, 0, 66, 84
1, 72311, Note_on_c, 0, 66, 0
1, 72312, Note_on_c, 0, 69, 84
1, 72335, Note_on_c, 0, 69, 0
1, 72336, Note_on_c, 0, 67, 84
1, 72359, Note_on_c, 0, 67, 0
1, 72360, Note_on_c, 0, 71, 84
1, 72383, Note_on_c, 0, 71, 0
1, 72384, Note_on_c, 0, 69, 84
1, 72429, Note_on_c, 0, 69, 0
1, 72432, Note_on_c, 0, 71, 84
1, 72455, Note_on_c, 0, 71, 0
1, 72456, Note_on_c, 0, 73, 84
1, 72479, Note_on_c, 0, 73, 0
1, 72480, Note_on_c, 0, 74, 84
1, 72503, Note_on_c, 0, 74, 0
1, 72504, Note_on_c, 0, 76, 84
1, 72527, Note_on_c, 0, 76, 0
1, 72528, Note_on_c, 0, 78, 84
1, 72551, Note_on_c, 0, 78, 0
1, 72552, Note_on_c, 0, 79, 84
1, 72575, Note_on_c, 0, 79, 0
1, 72576, Note_on_c, 0, 81, 100
1, 72576, Note_on_c, 0, 45, 84
1, 72599, Note_on_c, 0, 45, 0
1, 72600, Note_on_c, 0, 49, 84
1, 72623, Note_on_c, 0, 49, 0
1, 72624, Note_on_c, 0, 81, 0
1, 72624, Note_on_c, 0, 69, 84
1, 72624, Note_on_c, 0, 47, 84
1, 72647, Note_on_c, 0, 47, 0
1, 72648, Note_on_c, 0, 50, 84
1, 72669, Note_on_c, 0, 69, 0
1, 72671, Note_on_c, 0, 50, 0
1, 72672, Note_on_c, 0, 69, 84
1, 72672, Note_on_c, 0, 49, 84
1, 72695, Note_on_c, 0, 49, 0
1, 72696, Note_on_c, 0, 52, 84
1, 72717, Note_on_c, 0, 69, 0
1, 72719, Note_on_c, 0, 52, 0
1, 72720, Note_on_c, 0, 69, 84
1, 72720, Note_on_c, 0, 50, 84
1, 72743, Note_on_c, 0, 50, 0
1, 72744, Note_on_c, 0, 54, 84
1, 72765, Note_on_c, 0, 69, 0
1, 72767, Note_on_c, 0, 54, 0
1, 72768, Note_on_c, 0, 69, 84
1, 72768, Note_on_c, 0, 52, 84
1, 72791, Note_on_c, 0, 69, 0
1, 72792, Note_on_c, 0, 71, 84
1, 72815, Note_on_c, 0, 71, 0
1, 72816, Note_on_c, 0, 69, 84
1, 72839, Note_on_c, 0, 69, 0
1, 72840, Note_on_c, 0, 67, 84
1, 72863, Note_on_c, 0, 67, 0
1, 72864, Note_on_c, 0, 66, 84
1, 72864, Note_on_c, 0, 55, 84
1, 72887, Note_on_c, 0, 66, 0
1, 72888, Note_on_c, 0, 64, 84
1, 72911, Note_on_c, 0, 64, 0
1, 72912, Note_on_c, 0, 62, 84
1, 72935, Note_on_c, 0, 62, 0
1, 72936, Note_on_c, 0, 61, 84
1, 72945, Note_on_c, 0, 52, 0
1, 72953, Note_on_c, 0, 55, 0
1, 72959, Note_on_c, 0, 61, 0
1, 72960, Note_on_c, 0, 62, 84
1, 72960, Note_on_c, 0, 54, 84
1, 72960, Note_on_c, 0, 54, 84
1, 72983, Note_on_c, 0, 62, 0
1, 72984, Note_on_c, 0, 66, 84
1, 73007, Note_on_c, 0, 66, 0
1, 73008, Note_on_c, 0, 64, 84
1, 73031, Note_on_c, 0, 64, 0
1, 73032, Note_on_c, 0, 67, 84
1, 73049, Note_on_c, 0, 54, 0
1, 73049, Note_on_c, 0, 54, 0
1, 73055, Note_on_c, 0, 67, 0
1, 73056, Note_on_c, 0, 66, 84
1, 73079, Note_on_c, 0, 66, 0
1, 73080, Note_on_c, 0, 69, 84
1, 73103, Note_on_c, 0, 69, 0
1, 73104, Note_on_c, 0, 67, 84
1, 73127, Note_on_c, 0, 67, 0
1, 73128, Note_on_c, 0, 71, 84
1, 73151, Note_on_c, 0, 71, 0
1, 73152, Note_on_c, 0, 69, 84
1, 73197, Note_on_c, 0, 69, 0
1, 73200, Note_on_c, 0, 71, 84
1, 73223, Note_on_c, 0, 71, 0
1, 73224, Note_on_c, 0, 73, 84
1, 73247, Note_on_c, 0, 73, 0
1, 73248, Note_on_c, 0, 74, 84
1, 73271, Note_on_c, 0, 74, 0
1, 73272, Note_on_c, 0, 76, 84
1, 73295, Note_on_c, 0, 76, 0
1, 73296, Note_on_c, 0, 78, 84
1, 73319, Note_on_c, 0, 78, 0
1, 73320, Note_on_c, 0, 79, 84
1, 73343, Note_on_c, 0, 79, 0
1, 73344, Note_on_c, 0, 81, 100
1, 73344, Note_on_c, 0, 43, 84
1, 73367, Note_on_c, 0, 43, 0
1, 73368, Note_on_c, 0, 81, 0
1, 73368, Note_on_c, 0, 71, 84
1, 73368, Note_on_c, 0, 55, 84
1, 73391, Note_on_c, 0, 71, 0
1, 73391, Note_on_c, 0, 55, 0
1, 73392, Note_on_c, 0, 70, 84
1, 73392, Note_on_c, 0, 54, 84
1, 73415, Note_on_c, 0, 70, 0
1, 73415, Note_on_c, 0, 54, 0
1, 73416, Note_on_c, 0, 71, 84
1, 73416, Note_on_c, 0, 55, 84
1, 73439, Note_on_c, 0, 71, 0
1, 73439, Note_on_c, 0, 55, 0
1, 73440, Note_on_c, 0, 70, 84
1, 73440, Note_on_c, 0, 54, 84
1, 73463, Note_on_c, 0, 70, 0
1, 73463, Note_on_c, 0, 54, 0
1, 73464, Note_on_c, 0, 71, 84
1, 73464, Note_on_c, 0, 55, 84
1, 73487, Note_on_c, 0, 71, 0
1, 73487, Note_on_c, 0, 55, 0
1, 73488, Note_on_c, 0, 70, 84
1, 73488, Note_on_c, 0, 54, 84
1, 73511, Note_on_c, 0, 70, 0
1, 73511, Note_on_c, 0, 54, 0
1, 73512, Note_on_c, 0, 71, 84
1, 73512, Note_on_c, 0, 55, 84
1, 73535, Note_on_c, 0, 71, 0
1, 73535, Note_on_c, 0, 55, 0
1, 73536, Note_on_c, 0, 79, 100
1, 73536, Note_on_c, 0, 52, 84
1, 73559, Note_on_c, 0, 52, 0
1, 73560, Note_on_c, 0, 79, 0
1, 73560, Note_on_c, 0, 67, 84
1, 73560, Note_on_c, 0, 64, 84
1, 73583, Note_on_c, 0, 67, 0
1, 73583, Note_on_c, 0, 64, 0
1, 73584, Note_on_c, 0, 66, 84
1, 73584, Note_on_c, 0, 63, 84
1, 73607, Note_on_c, 0, 66, 0
1, 73607, Note_on_c, 0, 63, 0
1, 73608, Note_on_c, 0, 67, 84
1, 73608, Note_on_c, 0, 64, 84
1, 73631, Note_on_c, 0, 67, 0
1, 73631, Note_on_c, 0, 64, 0
1, 73632, Note_on_c, 0, 66, 84
1, 73632, Note_on_c, 0, 63, 84
1, 73655, Note_on_c, 0, 66, 0
1, 73655, Note_on_c, 0, 63, 0
1, 73656, Note_on_c, 0, 67, 84
1, 73656, Note_on_c, 0, 64, 84
1, 73679, Note_on_c, 0, 67, 0
1, 73679, Note_on_c, 0, 64, 0
1, 73680, Note_on_c, 0, 66, 84
1, 73680, Note_on_c, 0, 63, 84
1, 73703, Note_on_c, 0, 66, 0
1, 73703, Note_on_c, 0, 63, 0
1, 73704, Note_on_c, 0, 67, 84
1, 73704, Note_on_c, 0, 64, 84
1, 73727, Note_on_c, 0, 67, 0
1, 73727, Note_on_c, 0, 64, 0
1, 73728, Note_on_c, 0, 79, 100
1, 73728, Note_on_c, 0, 57, 84
1, 73751, Note_on_c, 0, 57, 0
1, 73752, Note_on_c, 0, 79, 0
1, 73752, Note_on_c, 0, 76, 84
1, 73752, Note_on_c, 0, 61, 84
1, 73775, Note_on_c, 0, 76, 0
1, 73775, Note_on_c, 0, 61, 0
1, 73776, Note_on_c, 0, 75, 84
1, 73776, Note_on_c, 0, 59, 84
1, 73799, Note_on_c, 0, 75, 0
1, 73799, Note_on_c, 0, 59, 0
1, 73800, Note_on_c, 0, 76, 84
1, 73800, Note_on_c, 0, 61, 84
1, 73823, Note_on_c, 0, 76, 0
1, 73823, Note_on_c, 0, 61, 0
1, 73824, Note_on_c, 0, 75, 84
1, 73824, Note_on_c, 0, 59, 84
1, 73847, Note_on_c, 0, 75, 0
1, 73847, Note_on_c, 0, 59, 0
1, 73848, Note_on_c, 0, 76, 84
1, 73848, Note_on_c, 0, 61, 84
1, 73871, Note_on_c, 0, 76, 0
1, 73871, Note_on_c, 0, 61, 0
1, 73872, Note_on_c, 0, 75, 84
1, 73872, Note_on_c, 0, 59, 84
1, 73895, Note_on_c, 0, 75, 0
1, 73895, Note_on_c, 0, 59, 0
1, 73896, Note_on_c, 0, 76, 84
1, 73896, Note_on_c, 0, 61, 84
1, 73919, Note_on_c, 0, 76, 0
1, 73919, Note_on_c, 0, 61, 0
1, 73920, Note_on_c, 0, 78, 100
1, 73920, Note_on_c, 0, 62, 84
1, 73943, Note_on_c, 0, 62, 0
1, 73944, Note_on_c, 0, 78, 0
1, 73944, Note_on_c, 0, 74, 84
1, 73944, Note_on_c, 0, 66, 84
1, 73967, Note_on_c, 0, 74, 0
1, 73967, Note_on_c, 0, 66, 0
1, 73968, Note_on_c, 0, 73, 84
1, 73968, Note_on_c, 0, 64, 84
1, 73991, Note_on_c, 0, 73, 0
1, 73991, Note_on_c, 0, 64, 0
1, 73992, Note_on_c, 0, 74, 84
1, 73992, Note_on_c, 0, 66, 84
1, 74015, Note_on_c, 0, 74, 0
1, 74015, Note_on_c, 0, 66, 0
1, 74016, Note_on_c, 0, 73, 84
1, 74016, Note_on_c, 0, 64, 84
1, 74039, Note_on_c, 0, 73, 0
1, 74039, Note_on_c, 0, 64, 0
1, 74040, Note_on_c, 0, 74, 84
1, 74040, Note_on_c, 0, 66, 84
1, 74063, Note_on_c, 0, 74, 0
1, 74063, Note_on_c, 0, 66, 0
1, 74064, Note_on_c, 0, 73, 84
1, 74064, Note_on_c, 0, 64, 84
1, 74087, Note_on_c, 0, 73, 0
1, 74087, Note_on_c, 0, 64, 0
1, 74088, Note_on_c, 0, 74, 84
1, 74088, Note_on_c, 0, 66, 84
1, 74111, Note_on_c, 0, 74, 0
1, 74111, Note_on_c, 0, 66, 0
1, 74112, Note_on_c, 0, 79, 100
1, 74112, Note_on_c, 0, 57, 77
1, 74136, Note_on_c, 0, 79, 0
1, 74136, Note_on_c, 0, 76, 84
1, 74159, Note_on_c, 0, 76, 0
1, 74160, Note_on_c, 0, 75, 84
1, 74160, Note_on_c, 0, 61, 77
1, 74183, Note_on_c, 0, 75, 0
1, 74184, Note_on_c, 0, 76, 84
1, 74205, Note_on_c, 0, 61, 0
1, 74207, Note_on_c, 0, 76, 0
1, 74208, Note_on_c, 0, 78, 100
1, 74208, Note_on_c, 0, 62, 77
1, 74232, Note_on_c, 0, 78, 0
1, 74232, Note_on_c, 0, 74, 84
1, 74253, Note_on_c, 0, 62, 0
1, 74255, Note_on_c, 0, 74, 0
1, 74256, Note_on_c, 0, 73, 84
1, 74256, Note_on_c, 0, 66, 77
1, 74279, Note_on_c, 0, 73, 0
1, 74280, Note_on_c, 0, 74, 84
1, 74289, Note_on_c, 0, 57, 0
1, 74301, Note_on_c, 0, 66, 0
1, 74303, Note_on_c, 0, 74, 0
1, 74304, Note_on_c, 0, 79, 100
1, 74304, Note_on_c, 0, 57, 77
1, 74328, Note_on_c, 0, 79, 0
1, 74328, Note_on_c, 0, 76, 84
1, 74351, Note_on_c, 0, 76, 0
1, 74352, Note_on_c, 0, 75, 84
1, 74352, Note_on_c, 0, 61, 77
1, 74375, Note_on_c, 0, 75, 0
1, 74376, Note_on_c, 0, 76, 84
1, 74397, Note_on_c, 0, 61, 0
1, 74399, Note_on_c, 0, 76, 0
1, 74400, Note_on_c, 0, 78, 100
1, 74400, Note_on_c, 0, 62, 77
1, 74424, Note_on_c, 0, 78, 0
1, 74424, Note_on_c, 0, 74, 84
1, 74445, Note_on_c, 0, 62, 0
1, 74447, Note_on_c, 0, 74, 0
1, 74448, Note_on_c, 0, 73, 84
1, 74448, Note_on_c, 0, 66, 77
1, 74471, Note_on_c, 0, 73, 0
1, 74472, Note_on_c, 0, 74, 84
1, 74481, Note_on_c, 0, 57, 0
1, 74493, Note_on_c, 0, 66, 0
1, 74495, Note_on_c, 0, 74, 0
1, 74496, Note_on_c, 0, 79, 93
1, 74496, Note_on_c, 0, 57, 69
1, 74520, Note_on_c, 0, 79, 0
1, 74520, Note_on_c, 0, 76, 77
1, 74543, Note_on_c, 0, 76, 0
1, 74544, Note_on_c, 0, 75, 77
1, 74544, Note_on_c, 0, 61, 69
1, 74567, Note_on_c, 0, 75, 0
1, 74568, Note_on_c, 0, 76, 77
1, 74589, Note_on_c, 0, 61, 0
1, 74591, Note_on_c, 0, 76, 0
1, 74592, Note_on_c, 0, 77, 93
1, 74592, Note_on_c, 0, 62, 69
1, 74616, Note_on_c, 0, 77, 0
1, 74616, Note_on_c, 0, 74, 77
1, 74637, Note_on_c, 0, 62, 0
1, 74639, Note_on_c, 0, 74, 0
1, 74640, Note_on_c, 0, 73, 77
1, 74640, Note_on_c, 0, 65, 69
1, 74663, Note_on_c, 0, 73, 0
1, 74664, Note_on_c, 0, 74, 77
1, 74673, Note_on_c, 0, 57, 0
1, 74685, Note_on_c, 0, 65, 0
1, 74687, Note_on_c, 0, 74, 0
1, 74688, Note_on_c, 0, 79, 93
1, 74688, Note_on_c, 0, 57, 69
1, 74712, Note_on_c, 0, 79, 0
1, 74712, Note_on_c, 0, 76, 77
1, 74735, Note_on_c, 0, 76, 0
1, 74736, Note_on_c, 0, 75, 77
1, 74736, Note_on_c, 0, 61, 69
1, 74759, Note_on_c, 0, 75, 0
1, 74760, Note_on_c, 0, 76, 77
1, 74781, Note_on_c, 0, 61, 0
1, 74783, Note_on_c, 0, 76, 0
1, 74784, Note_on_c, 0, 77, 93
1, 74784, Note_on_c, 0, 62, 69
1, 74808, Note_on_c, 0, 77, 0
1, 74808, Note_on_c, 0, 74, 77
1, 74829, Note_on_c, 0, 62, 0
1, 74831, Note_on_c, 0, 74, 0
1, 74832, Note_on_c, 0, 73, 77
1, 74832, Note_on_c, 0, 65, 69
1, 74855, Note_on_c, 0, 73, 0
1, 74856, Note_on_c, 0, 74, 77
1, 74865, Note_on_c, 0, 57, 0
1, 74877, Note_on_c, 0, 65, 0
1, 74879, Note_on_c, 0, 74, 0
1, 74880, Note_on_c, 0, 65, 91
1, 74880, Note_on_c, 0, 62, 91
1, 74880, Note_on_c, 0, 58, 91
1, 74904, Note_on_c, 0, 86, 107
1, 74928, Note_on_c, 0, 86, 0
1, 74928, Note_on_c, 0, 82, 91
1, 74951, Note_on_c, 0, 82, 0
1, 74952, Note_on_c, 0, 86, 91
1, 74969, Note_on_c, 0, 65, 0
1, 74969, Note_on_c, 0, 62, 0
1, 74969, Note_on_c, 0, 58, 0
1, 74975, Note_on_c, 0, 86, 0
1, 74976, Note_on_c, 0, 77, 91
1, 74999, Note_on_c, 0, 77, 0
1, 75000, Note_on_c, 0, 82, 91
1, 75023, Note_on_c, 0, 82, 0
1, 75024, Note_on_c, 0, 74, 91
1, 75047, Note_on_c, 0, 74, 0
1, 75048, Note_on_c, 0, 77, 91
1, 75071, Note_on_c, 0, 77, 0
1, 75072, Note_on_c, 0, 70, 91
1, 75096, Note_on_c, 0, 58, 91
1, 75117, Note_on_c, 0, 70, 0
1, 75119, Note_on_c, 0, 58, 0
1, 75120, Note_on_c, 0, 62, 91
1, 75143, Note_on_c, 0, 62, 0
1, 75144, Note_on_c, 0, 65, 91
1, 75167, Note_on_c, 0, 65, 0
1, 75168, Note_on_c, 0, 70, 91
1, 75192, Note_on_c, 0, 74, 91
1, 75213, Note_on_c, 0, 70, 0
1, 75215, Note_on_c, 0, 74, 0
1, 75216, Note_on_c, 0, 77, 91
1, 75239, Note_on_c, 0, 77, 0
1, 75240, Note_on_c, 0, 82, 91
1, 75263, Note_on_c, 0, 82, 0
1, 75264, Note_on_c, 0, 86, 91
1, 75287, Note_on_c, 0, 86, 0
1, 75288, Note_on_c, 0, 77, 91
1, 75311, Note_on_c, 0, 77, 0
1, 75312, Note_on_c, 0, 82, 91
1, 75335, Note_on_c, 0, 82, 0
1, 75336, Note_on_c, 0, 86, 91
1, 75359, Note_on_c, 0, 86, 0
1, 75360, Note_on_c, 0, 89, 91
1, 75383, Note_on_c, 0, 89, 0
1, 75384, Note_on_c, 0, 77, 91
1, 75407, Note_on_c, 0, 77, 0
1, 75408, Note_on_c, 0, 82, 91
1, 75431, Note_on_c, 0, 82, 0
1, 75432, Note_on_c, 0, 86, 91
1, 75455, Note_on_c, 0, 86, 0
1, 75456, Note_on_c, 0, 89, 91
1, 75501, Note_on_c, 0, 89, 0
1, 75648, Note_on_c, 0, 56, 91
1, 75648, Note_on_c, 0, 44, 91
1, 75672, Note_on_c, 0, 77, 91
1, 75695, Note_on_c, 0, 77, 0
1, 75696, Note_on_c, 0, 74, 91
1, 75719, Note_on_c, 0, 74, 0
1, 75720, Note_on_c, 0, 77, 91
1, 75737, Note_on_c, 0, 56, 0
1, 75737, Note_on_c, 0, 44, 0
1, 75743, Note_on_c, 0, 77, 0
1, 75744, Note_on_c, 0, 71, 91
1, 75744, Note_on_c, 0, 59, 91
1, 75744, Note_on_c, 0, 47, 91
1, 75767, Note_on_c, 0, 71, 0
1, 75768, Note_on_c, 0, 74, 91
1, 75789, Note_on_c, 0, 59, 0
1, 75789, Note_on_c, 0, 47, 0
1, 75791, Note_on_c, 0, 74, 0
1, 75792, Note_on_c, 0, 68, 91
1, 75792, Note_on_c, 0, 56, 91
1, 75792, Note_on_c, 0, 44, 91
1, 75815, Note_on_c, 0, 68, 0
1, 75816, Note_on_c, 0, 71, 91
1, 75837, Note_on_c, 0, 56, 0
1, 75837, Note_on_c, 0, 44, 0
1, 75839, Note_on_c, 0, 71, 0
1, 75840, Note_on_c, 0, 65, 91
1, 75840, Note_on_c, 0, 53, 91
1, 75840, Note_on_c, 0, 41, 91
1, 75863, Note_on_c, 0, 65, 0
1, 75864, Note_on_c, 0, 68, 91
1, 75885, Note_on_c, 0, 53, 0
1, 75885, Note_on_c, 0, 41, 0
1, 75887, Note_on_c, 0, 68, 0
1, 75888, Note_on_c, 0, 62, 91
1, 75888, Note_on_c, 0, 50, 91
1, 75888, Note_on_c, 0, 38, 91
1, 75911, Note_on_c, 0, 62, 0
1, 75912, Note_on_c, 0, 65, 91
1, 75933, Note_on_c, 0, 50, 0
1, 75933, Note_on_c, 0, 38, 0
1, 75935, Note_on_c, 0, 65, 0
1, 75936, Note_on_c, 0, 59, 91
1, 75936, Note_on_c, 0, 47, 91
1, 75936, Note_on_c, 0, 35, 91
1, 75959, Note_on_c, 0, 59, 0
1, 75960, Note_on_c, 0, 62, 91
1, 75981, Note_on_c, 0, 47, 0
1, 75981, Note_on_c, 0, 35, 0
1, 75983, Note_on_c, 0, 62, 0
1, 75984, Note_on_c, 0, 56, 91
1, 75984, Note_on_c, 0, 44, 91
1, 75984, Note_on_c, 0, 32, 91
1, 76007, Note_on_c, 0, 56, 0
1, 76008, Note_on_c, 0, 59, 91
1, 76029, Note_on_c, 0, 44, 0
1, 76029, Note_on_c, 0, 32, 0
1, 76031, Note_on_c, 0, 59, 0
1, 76032, Note_on_c, 0, 45, 91
1, 76032, Note_on_c, 0, 33, 91
1, 76080, Note_on_c, 0, 57, 84
1, 76100, Note_on_c, 0, 57, 0
1, 76128, Note_on_c, 0, 62, 84
1, 76148, Note_on_c, 0, 62, 0
1, 76176, Note_on_c, 0, 66, 84
1, 76196, Note_on_c, 0, 66, 0
1, 76224, Note_on_c, 0, 69, 84
1, 76244, Note_on_c, 0, 69, 0
1, 76272, Note_on_c, 0, 74, 84
1, 76292, Note_on_c, 0, 74, 0
1, 76320, Note_on_c, 0, 78, 84
1, 76340, Note_on_c, 0, 78, 0
1, 76368, Note_on_c, 0, 81, 84
1, 76386, Note_on_c, 0, 45, 0
1, 76386, Note_on_c, 0, 33, 0
1, 76388, Note_on_c, 0, 81, 0
1, 76416, Note_on_c, 0, 45, 84
1, 76436, Note_on_c, 0, 45, 0
1, 76464, Note_on_c, 0, 49, 84
1, 76484, Note_on_c, 0, 49, 0
1, 76512, Note_on_c, 0, 52, 84
1, 76532, Note_on_c, 0, 52, 0
1, 76560, Note_on_c, 0, 55, 84
1, 76580, Note_on_c, 0, 55, 0
1, 76608, Note_on_c, 0, 76, 84
1, 76608, Note_on_c, 0, 67, 84
1, 76608, Note_on_c, 0, 64, 84
1, 76608, Note_on_c, 0, 61, 84
1, 76608, Note_on_c, 0, 57, 84
1, 76626, Note_on_c, 0, 76, 0
1, 76626, Note_on_c, 0, 78, 84
1, 76644, Note_on_c, 0, 78, 0
1, 76644, Note_on_c, 0, 76, 84
1, 76662, Note_on_c, 0, 76, 0
1, 76662, Note_on_c, 0, 78, 84
1, 76680, Note_on_c, 0, 78, 0
1, 76680, Note_on_c, 0, 76, 84
1, 76698, Note_on_c, 0, 76, 0
1, 76698, Note_on_c, 0, 78, 84
1, 76716, Note_on_c, 0, 78, 0
1, 76716, Note_on_c, 0, 76, 84
1, 76734, Note_on_c, 0, 76, 0
1, 76734, Note_on_c, 0, 78, 84
1, 76741, Note_on_c, 0, 78, 0
1, 76752, Note_on_c, 0, 74, 84
1, 76775, Note_on_c, 0, 74, 0
1, 76776, Note_on_c, 0, 76, 84
1, 76785, Note_on_c, 0, 67, 0
1, 76785, Note_on_c, 0, 64, 0
1, 76785, Note_on_c, 0, 61, 0
1, 76785, Note_on_c, 0, 57, 0
1, 76799, Note_on_c, 0, 76, 0
1, 76800, Note_on_c, 0, 74, 84
1, 76800, Note_on_c, 0, 66, 84
1, 76800, Note_on_c, 0, 62, 84
1, 76845, Note_on_c, 0, 74, 0
1, 76889, Note_on_c, 0, 66, 0
1, 76889, Note_on_c, 0, 62, 0
1, 76896, Note_on_c, 0, 74, 84
1, 76896, Note_on_c, 0, 71, 84
1, 76916, Note_on_c, 0, 74, 0
1, 76916, Note_on_c, 0, 71, 0
1, 76944, Note_on_c, 0, 73, 84
1, 76944, Note_on_c, 0, 69, 84
1, 76964, Note_on_c, 0, 73, 0
1, 76964, Note_on_c, 0, 69, 0
1, 76992, Note_on_c, 0, 67, 84
1, 76992, Note_on_c, 0, 71, 84
1, 77004, Note_on_c, 0, 71, 0
1, 77004, Note_on_c, 0, 67, 0
1, 77004, Note_on_c, 0, 66, 84
1, 77004, Note_on_c, 0, 69, 84
1, 77016, Note_on_c, 0, 69, 0
1, 77016, Note_on_c, 0, 66, 0
1, 77016, Note_on_c, 0, 71, 84
1, 77016, Note_on_c, 0, 67, 84
1, 77037, Note_on_c, 0, 71, 0
1, 77037, Note_on_c, 0, 67, 0
1, 77088, Note_on_c, 0, 71, 84
1, 77088, Note_on_c, 0, 67, 84
1, 77108, Note_on_c, 0, 71, 0
1, 77108, Note_on_c, 0, 67, 0
1, 77136, Note_on_c, 0, 69, 84
1, 77136, Note_on_c, 0, 66, 84
1, 77156, Note_on_c, 0, 69, 0
1, 77156, Note_on_c, 0, 66, 0
1, 77184, Note_on_c, 0, 64, 84
1, 77184, Note_on_c, 0, 67, 84
1, 77196, Note_on_c, 0, 67, 0
1, 77196, Note_on_c, 0, 64, 0
1, 77196, Note_on_c, 0, 62, 84
1, 77196, Note_on_c, 0, 66, 84
1, 77208, Note_on_c, 0, 66, 0
1, 77208, Note_on_c, 0, 62, 0
1, 77208, Note_on_c, 0, 67, 84
1, 77208, Note_on_c, 0, 64, 84
1, 77229, Note_on_c, 0, 67, 0
1, 77229, Note_on_c, 0, 64, 0
1, 77280, Note_on_c, 0, 66, 77
1, 77280, Note_on_c, 0, 57, 77
1, 77280, Note_on_c, 0, 54, 77
1, 77280, Note_on_c, 0, 50, 77
1, 77325, Note_on_c, 0, 66, 0
1, 77325, Note_on_c, 0, 57, 0
1, 77325, Note_on_c, 0, 54, 0
1, 77325, Note_on_c, 0, 50, 0
1, 77328, Note_on_c, 0, 66, 77
1, 77328, Note_on_c, 0, 57, 77
1, 77328, Note_on_c, 0, 54, 77
1, 77328, Note_on_c, 0, 50, 77
1, 77373, Note_on_c, 0, 66, 0
1, 77373, Note_on_c, 0, 57, 0
1, 77373, Note_on_c, 0, 54, 0
1, 77373, Note_on_c, 0, 50, 0
1, 77376, Note_on_c, 0, 64, 77
1, 77376, Note_on_c, 0, 59, 77
1, 77376, Note_on_c, 0, 55, 77
1, 77376, Note_on_c, 0, 43, 77
1, 77421, Note_on_c, 0, 64, 0
1, 77421, Note_on_c, 0, 59, 0
1, 77421, Note_on_c, 0, 55, 0
1, 77421, Note_on_c, 0, 43, 0
1, 77472, Note_on_c, 0, 61, 77
1, 77472, Note_on_c, 0, 55, 77
1, 77472, Note_on_c, 0, 52, 77
1, 77472, Note_on_c, 0, 45, 77
1, 77517, Note_on_c, 0, 61, 0
1, 77517, Note_on_c, 0, 55, 0
1, 77517, Note_on_c, 0, 52, 0
1, 77517, Note_on_c, 0, 45, 0
1, 77520, Note_on_c, 0, 61, 77
1, 77520, Note_on_c, 0, 55, 77
1, 77520, Note_on_c, 0, 52, 77
1, 77520, Note_on_c, 0, 45, 77
1, 77565, Note_on_c, 0, 61, 0
1, 77565, Note_on_c, 0, 55, 0
1, 77565, Note_on_c, 0, 52, 0
1, 77565, Note_on_c, 0, 45, 0
1, 77568, Note_on_c, 0, 62, 77
1, 77568, Note_on_c, 0, 54, 77
1, 77568, Note_on_c, 0, 50, 77
1, 77568, Note_on_c, 0, 38, 77
1, 77613, Note_on_c, 0, 62, 0
1, 77613, Note_on_c, 0, 54, 0
1, 77613, Note_on_c, 0, 50, 0
1, 77613, Note_on_c, 0, 38, 0
1, 77664, Note_on_c, 0, 86, 84
1, 77664, Note_on_c, 0, 71, 84
1, 77687, Note_on_c, 0, 86, 0
1, 77687, Note_on_c, 0, 71, 0
1, 77688, Note_on_c, 0, 88, 84
1, 77688, Note_on_c, 0, 73, 84
1, 77711, Note_on_c, 0, 88, 0
1, 77711, Note_on_c, 0, 73, 0
1, 77712, Note_on_c, 0, 85, 84
1, 77712, Note_on_c, 0, 69, 84
1, 77735, Note_on_c, 0, 85, 0
1, 77735, Note_on_c, 0, 69, 0
1, 77736, Note_on_c, 0, 86, 84
1, 77736, Note_on_c, 0, 71, 84
1, 77759, Note_on_c, 0, 86, 0
1, 77759, Note_on_c, 0, 71, 0
1, 77760, Note_on_c, 0, 83, 84
1, 77760, Note_on_c, 0, 67, 84
1, 77780, Note_on_c, 0, 83, 0
1, 77780, Note_on_c, 0, 67, 0
1, 77856, Note_on_c, 0, 83, 84
1, 77856, Note_on_c, 0, 67, 84
1, 77879, Note_on_c, 0, 83, 0
1, 77879, Note_on_c, 0, 67, 0
1, 77880, Note_on_c, 0, 85, 84
1, 77880, Note_on_c, 0, 69, 84
1, 77903, Note_on_c, 0, 85, 0
1, 77903, Note_on_c, 0, 69, 0
1, 77904, Note_on_c, 0, 81, 84
1, 77904, Note_on_c, 0, 66, 84
1, 77927, Note_on_c, 0, 81, 0
1, 77927, Note_on_c, 0, 66, 0
1, 77928, Note_on_c, 0, 83, 84
1, 77928, Note_on_c, 0, 67, 84
1, 77951, Note_on_c, 0, 83, 0
1, 77951, Note_on_c, 0, 67, 0
1, 77952, Note_on_c, 0, 79, 84
1, 77952, Note_on_c, 0, 64, 84
1, 77972, Note_on_c, 0, 79, 0
1, 77972, Note_on_c, 0, 64, 0
1, 78048, Note_on_c, 0, 78, 77
1, 78048, Note_on_c, 0, 69, 77
1, 78048, Note_on_c, 0, 66, 77
1, 78048, Note_on_c, 0, 62, 77
1, 78093, Note_on_c, 0, 78, 0
1, 78093, Note_on_c, 0, 69, 0
1, 78093, Note_on_c, 0, 66, 0
1, 78093, Note_on_c, 0, 62, 0
1, 78096, Note_on_c, 0, 78, 77
1, 78096, Note_on_c, 0, 69, 77
1, 78096, Note_on_c, 0, 66, 77
1, 78096, Note_on_c, 0, 62, 77
1, 78141, Note_on_c, 0, 78, 0
1, 78141, Note_on_c, 0, 69, 0
1, 78141, Note_on_c, 0, 66, 0
1, 78141, Note_on_c, 0, 62, 0
1, 78144, Note_on_c, 0, 76, 77
1, 78144, Note_on_c, 0, 71, 77
1, 78144, Note_on_c, 0, 67, 77
1, 78144, Note_on_c, 0, 55, 77
1, 78189, Note_on_c, 0, 76, 0
1, 78189, Note_on_c, 0, 71, 0
1, 78189, Note_on_c, 0, 67, 0
1, 78189, Note_on_c, 0, 55, 0
1, 78192, Note_on_c, 0, 76, 77
1, 78192, Note_on_c, 0, 71, 77
1, 78192, Note_on_c, 0, 67, 77
1, 78192, Note_on_c, 0, 55, 77
1, 78237, Note_on_c, 0, 76, 0
1, 78237, Note_on_c, 0, 71, 0
1, 78237, Note_on_c, 0, 67, 0
1, 78237, Note_on_c, 0, 55, 0
1, 78240, Note_on_c, 0, 73, 77
1, 78240, Note_on_c, 0, 67, 77
1, 78240, Note_on_c, 0, 64, 77
1, 78240, Note_on_c, 0, 57, 77
1, 78285, Note_on_c, 0, 73, 0
1, 78285, Note_on_c, 0, 67, 0
1, 78285, Note_on_c, 0, 64, 0
1, 78285, Note_on_c, 0, 57, 0
1, 78288, Note_on_c, 0, 73, 77
1, 78288, Note_on_c, 0, 67, 77
1, 78288, Note_on_c, 0, 64, 77
1, 78288, Note_on_c, 0, 57, 77
1, 78333, Note_on_c, 0, 73, 0
1, 78333, Note_on_c, 0, 67, 0
1, 78333, Note_on_c, 0, 64, 0
1, 78333, Note_on_c, 0, 57, 0
1, 78336, Note_on_c, 0, 74, 84
1, 78336, Note_on_c, 0, 66, 84
1, 78336, Note_on_c, 0, 62, 84
1, 78359, Note_on_c, 0, 74, 0
1, 78360, Note_on_c, 0, 69, 84
1, 78383, Note_on_c, 0, 69, 0
1, 78384, Note_on_c, 0, 78, 84
1, 78407, Note_on_c, 0, 78, 0
1, 78408, Note_on_c, 0, 69, 84
1, 78425, Note_on_c, 0, 66, 0
1, 78425, Note_on_c, 0, 62, 0
1, 78431, Note_on_c, 0, 69, 0
1, 78432, Note_on_c, 0, 74, 84
1, 78455, Note_on_c, 0, 74, 0
1, 78456, Note_on_c, 0, 69, 84
1, 78479, Note_on_c, 0, 69, 0
1, 78480, Note_on_c, 0, 73, 84
1, 78480, Note_on_c, 0, 67, 84
1, 78480, Note_on_c, 0, 57, 84
1, 78503, Note_on_c, 0, 73, 0
1, 78504, Note_on_c, 0, 69, 84
1, 78525, Note_on_c, 0, 67, 0
1, 78525, Note_on_c, 0, 57, 0
1, 78527, Note_on_c, 0, 69, 0
1, 78528, Note_on_c, 0, 74, 84
1, 78528, Note_on_c, 0, 66, 84
1, 78528, Note_on_c, 0, 62, 84
1, 78551, Note_on_c, 0, 74, 0
1, 78552, Note_on_c, 0, 69, 84
1, 78575, Note_on_c, 0, 69, 0
1, 78576, Note_on_c, 0, 78, 84
1, 78599, Note_on_c, 0, 78, 0
1, 78600, Note_on_c, 0, 69, 84
1, 78617, Note_on_c, 0, 66, 0
1, 78617, Note_on_c, 0, 62, 0
1, 78623, Note_on_c, 0, 69, 0
1, 78624, Note_on_c, 0, 74, 84
1, 78647, Note_on_c, 0, 74, 0
1, 78648, Note_on_c, 0, 69, 84
1, 78671, Note_on_c, 0, 69, 0
1, 78672, Note_on_c, 0, 73, 84
1, 78672, Note_on_c, 0, 67, 84
1, 78672, Note_on_c, 0, 57, 84
1, 78695, Note_on_c, 0, 73, 0
1, 78696, Note_on_c, 0, 69, 84
1, 78717, Note_on_c, 0, 67, 0
1, 78717, Note_on_c, 0, 57, 0
1, 78719, Note_on_c, 0, 69, 0
1, 78720, Note_on_c, 0, 74, 84
1, 78720, Note_on_c, 0, 66, 84
1, 78720, Note_on_c, 0, 62, 84
1, 78765, Note_on_c, 0, 74, 0
1, 78809, Note_on_c, 0, 66, 0
1, 78809, Note_on_c, 0, 62, 0
1, 78816, Note_on_c, 0, 78, 84
1, 78816, Note_on_c, 0, 74, 84
1, 78816, Note_on_c, 0, 62, 84
1, 78816, Note_on_c, 0, 50, 84
1, 78888, Note_on_c, 0, 74, 0
1, 78888, Note_on_c, 0, 81, 84
1, 78905, Note_on_c, 0, 62, 0
1, 78905, Note_on_c, 0, 50, 0
1, 78911, Note_on_c, 0, 81, 0
1, 78911, Note_on_c, 0, 78, 0
1, 78912, Note_on_c, 0, 78, 84
1, 78912, Note_on_c, 0, 74, 84
1, 78912, Note_on_c, 0, 50, 84
1, 78912, Note_on_c, 0, 38, 84
1, 78957, Note_on_c, 0, 78, 0
1, 78957, Note_on_c, 0, 74, 0
1, 79001, Note_on_c, 0, 50, 0
1, 79001, Note_on_c, 0, 38, 0
1, 79104, Note_on_c, 0, 50, 0
1, 79104, Note_on_c, 0, 38, 0
1, 79193, Note_on_c, 0, 50, 0
1, 79193, Note_on_c, 0, 38, 0
1, 79203, End_track
0, 0, End_of_file