0, 0, Header, 0, 1, 96
1, 0, Start_track
1, 0, Tempo, 731707
1, 96, Note_on_c, 0, 71, 64
1, 163, Note_on_c, 0, 71, 0
1, 168, Note_on_c, 0, 72, 64
1, 180, Note_on_c, 0, 72, 0
1, 180, Note_on_c, 0, 74, 64
1, 192, Note_on_c, 0, 74, 0
1, 192, Note_on_c, 0, 67, 64
1, 192, Note_on_c, 1, 59, 64
1, 192, Note_on_c, 1, 55, 64
1, 237, Note_on_c, 0, 67, 0
1, 237, Note_on_c, 1, 59, 0
1, 237, Note_on_c, 1, 55, 0
1, 240, Note_on_c, 0, 67, 64
1, 240, Note_on_c, 1, 59, 64
1, 240, Note_on_c, 1, 55, 64
1, 285, Note_on_c, 0, 67, 0
1, 285, Note_on_c, 1, 59, 0
1, 285, Note_on_c, 1, 55, 0
1, 288, Note_on_c, 0, 69, 64
1, 288, Note_on_c, 1, 60, 64
1, 288, Note_on_c, 1, 50, 64
1, 294, Note_on_c, 0, 69, 0
1, 294, Note_on_c, 0, 71, 64
1, 300, Note_on_c, 0, 71, 0
1, 300, Note_on_c, 0, 69, 64
1, 322, Note_on_c, 0, 69, 0
1, 324, Note_on_c, 0, 67, 64
1, 333, Note_on_c, 1, 60, 0
1, 333, Note_on_c, 1, 50, 0
1, 336, Note_on_c, 0, 67, 0
1, 336, Note_on_c, 0, 69, 64
1, 336, Note_on_c, 1, 60, 64
1, 336, Note_on_c, 1, 50, 64
1, 370, Note_on_c, 0, 69, 0
1, 372, Note_on_c, 0, 71, 64
1, 381, Note_on_c, 1, 60, 0
1, 381, Note_on_c, 1, 50, 0
1, 384, Note_on_c, 0, 71, 0
1, 384, Note_on_c, 0, 67, 64
1, 384, Note_on_c, 1, 59, 64
1, 384, Note_on_c, 1, 55, 64
1, 429, Note_on_c, 0, 67, 0
1, 429, Note_on_c, 1, 59, 0
1, 429, Note_on_c, 1, 55, 0
1, 480, Note_on_c, 0, 76, 64
1, 480, Note_on_c, 1, 72, 64
1, 503, Note_on_c, 0, 76, 0
1, 504, Note_on_c, 0, 78, 64
1, 516, Note_on_c, 0, 78, 0
1, 516, Note_on_c, 0, 79, 64
1, 525, Note_on_c, 1, 72, 0
1, 528, Note_on_c, 0, 79, 0
1, 528, Note_on_c, 0, 74, 64
1, 528, Note_on_c, 1, 71, 64
1, 548, Note_on_c, 0, 74, 0
1, 573, Note_on_c, 1, 71, 0
1, 576, Note_on_c, 0, 72, 64
1, 576, Note_on_c, 1, 69, 64
1, 599, Note_on_c, 0, 72, 0
1, 600, Note_on_c, 0, 74, 64
1, 612, Note_on_c, 0, 74, 0
1, 612, Note_on_c, 0, 76, 64
1, 621, Note_on_c, 1, 69, 0
1, 624, Note_on_c, 0, 76, 0
1, 624, Note_on_c, 0, 71, 64
1, 624, Note_on_c, 1, 67, 64
1, 644, Note_on_c, 0, 71, 0
1, 669, Note_on_c, 1, 67, 0
1, 672, Note_on_c, 0, 69, 64
1, 672, Note_on_c, 1, 64, 64
1, 672, Note_on_c, 1, 60, 64
1, 717, Note_on_c, 0, 69, 0
1, 717, Note_on_c, 1, 60, 0
1, 720, Note_on_c, 0, 69, 64
1, 720, Note_on_c, 1, 61, 64
1, 728, Note_on_c, 0, 69, 0
1, 728, Note_on_c, 0, 67, 64
1, 736, Note_on_c, 0, 67, 0
1, 736, Note_on_c, 0, 69, 64
1, 744, Note_on_c, 0, 69, 0
1, 744, Note_on_c, 0, 67, 64
1, 752, Note_on_c, 0, 67, 0
1, 752, Note_on_c, 0, 66, 64
1, 760, Note_on_c, 0, 66, 0
1, 760, Note_on_c, 0, 67, 64
1, 761, Note_on_c, 1, 64, 0
1, 765, Note_on_c, 1, 61, 0
1, 768, Note_on_c, 0, 67, 0
1, 768, Note_on_c, 0, 74, 64
1, 768, Note_on_c, 0, 66, 64
1, 768, Note_on_c, 1, 62, 64
1, 813, Note_on_c, 0, 74, 0
1, 813, Note_on_c, 0, 66, 0
1, 813, Note_on_c, 1, 62, 0
1, 816, Note_on_c, 1, 50, 64
1, 861, Note_on_c, 1, 50, 0
1, 864, Note_on_c, 0, 74, 64
1, 864, Note_on_c, 1, 66, 64
1, 864, Note_on_c, 1, 62, 64
1, 909, Note_on_c, 1, 66, 0
1, 909, Note_on_c, 1, 62, 0
1, 912, Note_on_c, 1, 66, 64
1, 912, Note_on_c, 1, 62, 64
1, 931, Note_on_c, 0, 74, 0
1, 936, Note_on_c, 0, 76, 64
1, 948, Note_on_c, 0, 76, 0
1, 948, Note_on_c, 0, 78, 64
1, 957, Note_on_c, 1, 66, 0
1, 957, Note_on_c, 1, 62, 0
1, 960, Note_on_c, 0, 78, 0
1, 960, Note_on_c, 0, 76, 64
1, 960, Note_on_c, 1, 67, 64
1, 960, Note_on_c, 1, 62, 64
1, 1005, Note_on_c, 0, 76, 0
1, 1005, Note_on_c, 1, 67, 0
1, 1005, Note_on_c, 1, 62, 0
1, 1008, Note_on_c, 0, 76, 64
1, 1008, Note_on_c, 1, 67, 64
1, 1008, Note_on_c, 1, 62, 64
1, 1053, Note_on_c, 0, 76, 0
1, 1053, Note_on_c, 1, 67, 0
1, 1053, Note_on_c, 1, 62, 0
1, 1056, Note_on_c, 0, 73, 64
1, 1056, Note_on_c, 1, 64, 64
1, 1056, Note_on_c, 1, 62, 64
1, 1101, Note_on_c, 0, 73, 0
1, 1101, Note_on_c, 1, 64, 0
1, 1101, Note_on_c, 1, 62, 0
1, 1104, Note_on_c, 0, 74, 64
1, 1104, Note_on_c, 1, 64, 64
1, 1104, Note_on_c, 1, 62, 64
1, 1116, Note_on_c, 0, 74, 0
1, 1116, Note_on_c, 0, 76, 64
1, 1128, Note_on_c, 0, 76, 0
1, 1128, Note_on_c, 0, 78, 64
1, 1140, Note_on_c, 0, 78, 0
1, 1140, Note_on_c, 0, 79, 64
1, 1149, Note_on_c, 1, 64, 0
1, 1149, Note_on_c, 1, 62, 0
1, 1152, Note_on_c, 0, 79, 0
1, 1152, Note_on_c, 0, 81, 64
1, 1152, Note_on_c, 1, 66, 64
1, 1152, Note_on_c, 1, 62, 64
1, 1197, Note_on_c, 0, 81, 0
1, 1197, Note_on_c, 1, 66, 0
1, 1197, Note_on_c, 1, 62, 0
1, 1200, Note_on_c, 0, 81, 64
1, 1200, Note_on_c, 1, 66, 64
1, 1200, Note_on_c, 1, 62, 64
1, 1245, Note_on_c, 0, 81, 0
1, 1245, Note_on_c, 1, 66, 0
1, 1245, Note_on_c, 1, 62, 0
1, 1248, Note_on_c, 0, 83, 64
1, 1248, Note_on_c, 1, 62, 64
1, 1248, Note_on_c, 1, 55, 64
1, 1293, Note_on_c, 0, 83, 0
1, 1293, Note_on_c, 1, 62, 0
1, 1293, Note_on_c, 1, 55, 0
1, 1296, Note_on_c, 0, 86, 64
1, 1296, Note_on_c, 1, 62, 64
1, 1296, Note_on_c, 1, 55, 64
1, 1319, Note_on_c, 0, 86, 0
1, 1320, Note_on_c, 0, 85, 64
1, 1332, Note_on_c, 0, 85, 0
1, 1332, Note_on_c, 0, 83, 64
1, 1341, Note_on_c, 1, 62, 0
1, 1341, Note_on_c, 1, 55, 0
1, 1344, Note_on_c, 0, 83, 0
1, 1344, Note_on_c, 0, 81, 64
1, 1344, Note_on_c, 1, 62, 64
1, 1344, Note_on_c, 1, 54, 64
1, 1389, Note_on_c, 0, 81, 0
1, 1389, Note_on_c, 1, 62, 0
1, 1389, Note_on_c, 1, 54, 0
1, 1392, Note_on_c, 0, 85, 64
1, 1392, Note_on_c, 1, 62, 64
1, 1392, Note_on_c, 1, 55, 64
1, 1404, Note_on_c, 0, 85, 0
1, 1404, Note_on_c, 0, 83, 64
1, 1416, Note_on_c, 0, 83, 0
1, 1416, Note_on_c, 0, 81, 64
1, 1428, Note_on_c, 0, 81, 0
1, 1428, Note_on_c, 0, 79, 64
1, 1437, Note_on_c, 1, 62, 0
1, 1437, Note_on_c, 1, 55, 0
1, 1440, Note_on_c, 0, 79, 0
1, 1440, Note_on_c, 0, 78, 64
1, 1440, Note_on_c, 1, 62, 64
1, 1440, Note_on_c, 1, 57, 64
1, 1485, Note_on_c, 0, 78, 0
1, 1485, Note_on_c, 1, 62, 0
1, 1488, Note_on_c, 0, 78, 64
1, 1488, Note_on_c, 1, 61, 64
1, 1496, Note_on_c, 0, 78, 0
1, 1496, Note_on_c, 0, 76, 64
1, 1504, Note_on_c, 0, 76, 0
1, 1504, Note_on_c, 0, 78, 64
1, 1512, Note_on_c, 0, 78, 0
1, 1512, Note_on_c, 0, 76, 64
1, 1520, Note_on_c, 0, 76, 0
1, 1520, Note_on_c, 0, 74, 64
1, 1528, Note_on_c, 0, 74, 0
1, 1528, Note_on_c, 0, 76, 64
1, 1529, Note_on_c, 1, 57, 0
1, 1533, Note_on_c, 1, 61, 0
1, 1536, Note_on_c, 0, 76, 0
1, 1536, Note_on_c, 0, 74, 64
1, 1536, Note_on_c, 1, 62, 64
1, 1581, Note_on_c, 1, 62, 0
1, 1584, Note_on_c, 1, 50, 64
1, 1625, Note_on_c, 0, 74, 0
1, 1629, Note_on_c, 1, 50, 0
1, 1632, Note_on_c, 0, 71, 64
1, 1699, Note_on_c, 0, 71, 0
1, 1704, Note_on_c, 0, 72, 64
1, 1716, Note_on_c, 0, 72, 0
1, 1716, Note_on_c, 0, 74, 64
1, 1728, Note_on_c, 0, 74, 0
1, 1728, Note_on_c, 0, 67, 64
1, 1728, Note_on_c, 1, 59, 64
1, 1728, Note_on_c, 1, 55, 64
1, 1773, Note_on_c, 0, 67, 0
1, 1773, Note_on_c, 1, 59, 0
1, 1773, Note_on_c, 1, 55, 0
1, 1776, Note_on_c, 0, 67, 64
1, 1776, Note_on_c, 1, 59, 64
1, 1776, Note_on_c, 1, 55, 64
1, 1821, Note_on_c, 0, 67, 0
1, 1821, Note_on_c, 1, 59, 0
1, 1821, Note_on_c, 1, 55, 0
1, 1824, Note_on_c, 0, 69, 64
1, 1824, Note_on_c, 1, 60, 64
1, 1824, Note_on_c, 1, 50, 64
1, 1830, Note_on_c, 0, 69, 0
1, 1830, Note_on_c, 0, 71, 64
1, 1836, Note_on_c, 0, 71, 0
1, 1836, Note_on_c, 0, 69, 64
1, 1858, Note_on_c, 0, 69, 0
1, 1860, Note_on_c, 0, 67, 64
1, 1869, Note_on_c, 1, 60, 0
1, 1869, Note_on_c, 1, 50, 0
1, 1872, Note_on_c, 0, 67, 0
1, 1872, Note_on_c, 0, 69, 64
1, 1872, Note_on_c, 1, 60, 64
1, 1872, Note_on_c, 1, 50, 64
1, 1906, Note_on_c, 0, 69, 0
1, 1908, Note_on_c, 0, 71, 64
1, 1917, Note_on_c, 1, 60, 0
1, 1917, Note_on_c, 1, 50, 0
1, 1920, Note_on_c, 0, 71, 0
1, 1920, Note_on_c, 0, 67, 64
1, 1920, Note_on_c, 1, 59, 64
1, 1920, Note_on_c, 1, 55, 64
1, 1965, Note_on_c, 0, 67, 0
1, 1965, Note_on_c, 1, 59, 0
1, 1965, Note_on_c, 1, 55, 0
1, 2016, Note_on_c, 0, 76, 64
1, 2016, Note_on_c, 1, 72, 64
1, 2039, Note_on_c, 0, 76, 0
1, 2040, Note_on_c, 0, 78, 64
1, 2052, Note_on_c, 0, 78, 0
1, 2052, Note_on_c, 0, 79, 64
1, 2061, Note_on_c, 1, 72, 0
1, 2064, Note_on_c, 0, 79, 0
1, 2064, Note_on_c, 0, 74, 64
1, 2064, Note_on_c, 1, 71, 64
1, 2084, Note_on_c, 0, 74, 0
1, 2109, Note_on_c, 1, 71, 0
1, 2112, Note_on_c, 0, 72, 64
1, 2112, Note_on_c, 1, 69, 64
1, 2135, Note_on_c, 0, 72, 0
1, 2136, Note_on_c, 0, 74, 64
1, 2148, Note_on_c, 0, 74, 0
1, 2148, Note_on_c, 0, 76, 64
1, 2157, Note_on_c, 1, 69, 0
1, 2160, Note_on_c, 0, 76, 0
1, 2160, Note_on_c, 0, 71, 64
1, 2160, Note_on_c, 1, 67, 64
1, 2180, Note_on_c, 0, 71, 0
1, 2205, Note_on_c, 1, 67, 0
1, 2208, Note_on_c, 0, 69, 64
1, 2208, Note_on_c, 1, 64, 64
1, 2208, Note_on_c, 1, 60, 64
1, 2253, Note_on_c, 0, 69, 0
1, 2253, Note_on_c, 1, 60, 0
1, 2256, Note_on_c, 0, 69, 64
1, 2256, Note_on_c, 1, 61, 64
1, 2264, Note_on_c, 0, 69, 0
1, 2264, Note_on_c, 0, 67, 64
1, 2272, Note_on_c, 0, 67, 0
1, 2272, Note_on_c, 0, 69, 64
1, 2280, Note_on_c, 0, 69, 0
1, 2280, Note_on_c, 0, 67, 64
1, 2288, Note_on_c, 0, 67, 0
1, 2288, Note_on_c, 0, 66, 64
1, 2296, Note_on_c, 0, 66, 0
1, 2296, Note_on_c, 0, 67, 64
1, 2297, Note_on_c, 1, 64, 0
1, 2301, Note_on_c, 1, 61, 0
1, 2304, Note_on_c, 0, 67, 0
1, 2304, Note_on_c, 0, 74, 64
1, 2304, Note_on_c, 0, 66, 64
1, 2304, Note_on_c, 1, 62, 64
1, 2349, Note_on_c, 0, 74, 0
1, 2349, Note_on_c, 0, 66, 0
1, 2349, Note_on_c, 1, 62, 0
1, 2352, Note_on_c, 1, 50, 64
1, 2397, Note_on_c, 1, 50, 0
1, 2400, Note_on_c, 0, 74, 64
1, 2400, Note_on_c, 1, 66, 64
1, 2400, Note_on_c, 1, 62, 64
1, 2445, Note_on_c, 1, 66, 0
1, 2445, Note_on_c, 1, 62, 0
1, 2448, Note_on_c, 1, 66, 64
1, 2448, Note_on_c, 1, 62, 64
1, 2467, Note_on_c, 0, 74, 0
1, 2472, Note_on_c, 0, 76, 64
1, 2484, Note_on_c, 0, 76, 0
1, 2484, Note_on_c, 0, 78, 64
1, 2493, Note_on_c, 1, 66, 0
1, 2493, Note_on_c, 1, 62, 0
1, 2496, Note_on_c, 0, 78, 0
1, 2496, Note_on_c, 0, 76, 64
1, 2496, Note_on_c, 1, 67, 64
1, 2496, Note_on_c, 1, 62, 64
1, 2541, Note_on_c, 0, 76, 0
1, 2541, Note_on_c, 1, 67, 0
1, 2541, Note_on_c, 1, 62, 0
1, 2544, Note_on_c, 0, 76, 64
1, 2544, Note_on_c, 1, 67, 64
1, 2544, Note_on_c, 1, 62, 64
1, 2589, Note_on_c, 0, 76, 0
1, 2589, Note_on_c, 1, 67, 0
1, 2589, Note_on_c, 1, 62, 0
1, 2592, Note_on_c, 0, 73, 64
1, 2592, Note_on_c, 1, 64, 64
1, 2592, Note_on_c, 1, 62, 64
1, 2637, Note_on_c, 0, 73, 0
1, 2637, Note_on_c, 1, 64, 0
1, 2637, Note_on_c, 1, 62, 0
1, 2640, Note_on_c, 0, 74, 64
1, 2640, Note_on_c, 1, 64, 64
1, 2640, Note_on_c, 1, 62, 64
1, 2652, Note_on_c, 0, 74, 0
1, 2652, Note_on_c, 0, 76, 64
1, 2664, Note_on_c, 0, 76, 0
1, 2664, Note_on_c, 0, 78, 64
1, 2676, Note_on_c, 0, 78, 0
1, 2676, Note_on_c, 0, 79, 64
1, 2685, Note_on_c, 1, 64, 0
1, 2685, Note_on_c, 1, 62, 0
1, 2688, Note_on_c, 0, 79, 0
1, 2688, Note_on_c, 0, 81, 64
1, 2688, Note_on_c, 1, 66, 64
1, 2688, Note_on_c, 1, 62, 64
1, 2733, Note_on_c, 0, 81, 0
1, 2733, Note_on_c, 1, 66, 0
1, 2733, Note_on_c, 1, 62, 0
1, 2736, Note_on_c, 0, 81, 64
1, 2736, Note_on_c, 1, 66, 64
1, 2736, Note_on_c, 1, 62, 64
1, 2781, Note_on_c, 0, 81, 0
1, 2781, Note_on_c, 1, 66, 0
1, 2781, Note_on_c, 1, 62, 0
1, 2784, Note_on_c, 0, 83, 64
1, 2784, Note_on_c, 1, 62, 64
1, 2784, Note_on_c, 1, 55, 64
1, 2829, Note_on_c, 0, 83, 0
1, 2829, Note_on_c, 1, 62, 0
1, 2829, Note_on_c, 1, 55, 0
1, 2832, Note_on_c, 0, 86, 64
1, 2832, Note_on_c, 1, 62, 64
1, 2832, Note_on_c, 1, 55, 64
1, 2855, Note_on_c, 0, 86, 0
1, 2856, Note_on_c, 0, 85, 64
1, 2868, Note_on_c, 0, 85, 0
1, 2868, Note_on_c, 0, 83, 64
1, 2877, Note_on_c, 1, 62, 0
1, 2877, Note_on_c, 1, 55, 0
1, 2880, Note_on_c, 0, 83, 0
1, 2880, Note_on_c, 0, 81, 64
1, 2880, Note_on_c, 1, 62, 64
1, 2880, Note_on_c, 1, 54, 64
1, 2925, Note_on_c, 0, 81, 0
1, 2925, Note_on_c, 1, 62, 0
1, 2925, Note_on_c, 1, 54, 0
1, 2928, Note_on_c, 0, 85, 64
1, 2928, Note_on_c, 1, 62, 64
1, 2928, Note_on_c, 1, 55, 64
1, 2940, Note_on_c, 0, 85, 0
1, 2940, Note_on_c, 0, 83, 64
1, 2952, Note_on_c, 0, 83, 0
1, 2952, Note_on_c, 0, 81, 64
1, 2964, Note_on_c, 0, 81, 0
1, 2964, Note_on_c, 0, 79, 64
1, 2973, Note_on_c, 1, 62, 0
1, 2973, Note_on_c, 1, 55, 0
1, 2976, Note_on_c, 0, 79, 0
1, 2976, Note_on_c, 0, 78, 64
1, 2976, Note_on_c, 1, 62, 64
1, 2976, Note_on_c, 1, 57, 64
1, 3021, Note_on_c, 0, 78, 0
1, 3021, Note_on_c, 1, 62, 0
1, 3024, Note_on_c, 0, 78, 64
1, 3024, Note_on_c, 1, 61, 64
1, 3032, Note_on_c, 0, 78, 0
1, 3032, Note_on_c, 0, 76, 64
1, 3040, Note_on_c, 0, 76, 0
1, 3040, Note_on_c, 0, 78, 64
1, 3048, Note_on_c, 0, 78, 0
1, 3048, Note_on_c, 0, 76, 64
1, 3056, Note_on_c, 0, 76, 0
1, 3056, Note_on_c, 0, 74, 64
1, 3064, Note_on_c, 0, 74, 0
1, 3064, Note_on_c, 0, 76, 64
1, 3065, Note_on_c, 1, 57, 0
1, 3069, Note_on_c, 1, 61, 0
1, 3072, Note_on_c, 0, 76, 0
1, 3072, Note_on_c, 0, 74, 64
1, 3072, Note_on_c, 1, 62, 64
1, 3117, Note_on_c, 1, 62, 0
1, 3120, Note_on_c, 1, 50, 64
1, 3161, Note_on_c, 0, 74, 0
1, 3165, Note_on_c, 1, 50, 0
1, 3168, Note_on_c, 0, 74, 64
1, 3235, Note_on_c, 0, 74, 0
1, 3240, Note_on_c, 0, 76, 64
1, 3252, Note_on_c, 0, 76, 0
1, 3252, Note_on_c, 0, 78, 64
1, 3264, Note_on_c, 0, 78, 0
1, 3264, Note_on_c, 0, 68, 64
1, 3264, Note_on_c, 1, 62, 64
1, 3264, Note_on_c, 1, 52, 64
1, 3309, Note_on_c, 0, 68, 0
1, 3309, Note_on_c, 1, 62, 0
1, 3309, Note_on_c, 1, 52, 0
1, 3312, Note_on_c, 0, 68, 64
1, 3312, Note_on_c, 1, 62, 64
1, 3312, Note_on_c, 1, 52, 64
1, 3357, Note_on_c, 0, 68, 0
1, 3357, Note_on_c, 1, 62, 0
1, 3357, Note_on_c, 1, 52, 0
1, 3360, Note_on_c, 0, 69, 64
1, 3360, Note_on_c, 1, 60, 64
1, 3360, Note_on_c, 1, 52, 64
1, 3366, Note_on_c, 0, 69, 0
1, 3366, Note_on_c, 0, 71, 64
1, 3372, Note_on_c, 0, 71, 0
1, 3372, Note_on_c, 0, 69, 64
1, 3394, Note_on_c, 0, 69, 0
1, 3396, Note_on_c, 0, 68, 64
1, 3405, Note_on_c, 1, 60, 0
1, 3405, Note_on_c, 1, 52, 0
1, 3408, Note_on_c, 0, 68, 0
1, 3408, Note_on_c, 0, 69, 64
1, 3408, Note_on_c, 1, 59, 64
1, 3408, Note_on_c, 1, 52, 64
1, 3442, Note_on_c, 0, 69, 0
1, 3444, Note_on_c, 0, 71, 64
1, 3453, Note_on_c, 1, 59, 0
1, 3453, Note_on_c, 1, 52, 0
1, 3456, Note_on_c, 0, 71, 0
1, 3456, Note_on_c, 0, 71, 64
1, 3456, Note_on_c, 1, 57, 64
1, 3501, Note_on_c, 0, 71, 0
1, 3501, Note_on_c, 1, 57, 0
1, 3504, Note_on_c, 0, 72, 64
1, 3504, Note_on_c, 1, 45, 64
1, 3549, Note_on_c, 0, 72, 0
1, 3549, Note_on_c, 1, 45, 0
1, 3552, Note_on_c, 0, 72, 64
1, 3552, Note_on_c, 1, 57, 64
1, 3586, Note_on_c, 0, 72, 0
1, 3588, Note_on_c, 0, 76, 64
1, 3597, Note_on_c, 1, 57, 0
1, 3600, Note_on_c, 0, 76, 0
1, 3600, Note_on_c, 0, 69, 64
1, 3600, Note_on_c, 1, 54, 64
1, 3634, Note_on_c, 0, 69, 0
1, 3636, Note_on_c, 0, 72, 64
1, 3645, Note_on_c, 1, 54, 0
1, 3648, Note_on_c, 0, 72, 0
1, 3648, Note_on_c, 0, 71, 64
1, 3648, Note_on_c, 1, 55, 64
1, 3682, Note_on_c, 0, 71, 0
1, 3684, Note_on_c, 0, 74, 64
1, 3693, Note_on_c, 1, 55, 0
1, 3696, Note_on_c, 0, 74, 0
1, 3696, Note_on_c, 0, 67, 64
1, 3696, Note_on_c, 1, 47, 64
1, 3730, Note_on_c, 0, 67, 0
1, 3732, Note_on_c, 0, 71, 64
1, 3741, Note_on_c, 1, 47, 0
1, 3744, Note_on_c, 0, 71, 0
1, 3744, Note_on_c, 0, 69, 64
1, 3744, Note_on_c, 1, 48, 64
1, 3778, Note_on_c, 0, 69, 0
1, 3780, Note_on_c, 0, 72, 64
1, 3789, Note_on_c, 1, 48, 0
1, 3792, Note_on_c, 0, 72, 0
1, 3792, Note_on_c, 0, 64, 64
1, 3792, Note_on_c, 1, 49, 64
1, 3826, Note_on_c, 0, 64, 0
1, 3828, Note_on_c, 0, 69, 64
1, 3837, Note_on_c, 1, 49, 0
1, 3840, Note_on_c, 0, 69, 0
1, 3840, Note_on_c, 0, 67, 64
1, 3840, Note_on_c, 1, 50, 64
1, 3885, Note_on_c, 0, 67, 0
1, 3885, Note_on_c, 1, 50, 0
1, 3888, Note_on_c, 0, 66, 64
1, 3888, Note_on_c, 1, 38, 64
1, 3933, Note_on_c, 0, 66, 0
1, 3933, Note_on_c, 1, 38, 0
1, 3936, Note_on_c, 1, 57, 64
1, 4003, Note_on_c, 1, 57, 0
1, 4008, Note_on_c, 1, 59, 64
1, 4020, Note_on_c, 1, 59, 0
1, 4020, Note_on_c, 1, 60, 64
1, 4032, Note_on_c, 0, 78, 64
1, 4032, Note_on_c, 1, 60, 0
1, 4032, Note_on_c, 1, 50, 64
1, 4077, Note_on_c, 1, 50, 0
1, 4080, Note_on_c, 1, 50, 64
1, 4099, Note_on_c, 0, 78, 0
1, 4104, Note_on_c, 0, 79, 64
1, 4116, Note_on_c, 0, 79, 0
1, 4116, Note_on_c, 0, 81, 64
1, 4125, Note_on_c, 1, 50, 0
1, 4128, Note_on_c, 0, 81, 0
1, 4128, Note_on_c, 0, 72, 64
1, 4128, Note_on_c, 1, 66, 64
1, 4173, Note_on_c, 0, 72, 0
1, 4176, Note_on_c, 0, 72, 64
1, 4195, Note_on_c, 1, 66, 0
1, 4200, Note_on_c, 1, 67, 64
1, 4212, Note_on_c, 1, 67, 0
1, 4212, Note_on_c, 1, 69, 64
1, 4221, Note_on_c, 0, 72, 0
1, 4224, Note_on_c, 0, 84, 64
1, 4224, Note_on_c, 1, 69, 0
1, 4224, Note_on_c, 1, 60, 64
1, 4258, Note_on_c, 0, 84, 0
1, 4260, Note_on_c, 0, 88, 64
1, 4272, Note_on_c, 0, 88, 0
1, 4272, Note_on_c, 0, 81, 64
1, 4306, Note_on_c, 0, 81, 0
1, 4308, Note_on_c, 0, 84, 64
1, 4320, Note_on_c, 0, 84, 0
1, 4320, Note_on_c, 0, 78, 64
1, 4354, Note_on_c, 0, 78, 0
1, 4356, Note_on_c, 0, 81, 64
1, 4368, Note_on_c, 0, 81, 0
1, 4368, Note_on_c, 0, 74, 64
1, 4401, Note_on_c, 1, 60, 0
1, 4402, Note_on_c, 0, 74, 0
1, 4404, Note_on_c, 0, 78, 64
1, 4416, Note_on_c, 0, 78, 0
1, 4416, Note_on_c, 0, 79, 64
1, 4416, Note_on_c, 1, 59, 64
1, 4450, Note_on_c, 0, 79, 0
1, 4452, Note_on_c, 0, 74, 64
1, 4461, Note_on_c, 1, 59, 0
1, 4464, Note_on_c, 0, 74, 0
1, 4464, Note_on_c, 0, 76, 64
1, 4464, Note_on_c, 1, 60, 64
1, 4498, Note_on_c, 0, 76, 0
1, 4500, Note_on_c, 0, 72, 64
1, 4509, Note_on_c, 1, 60, 0
1, 4512, Note_on_c, 0, 72, 0
1, 4512, Note_on_c, 0, 71, 64
1, 4512, Note_on_c, 1, 62, 64
1, 4557, Note_on_c, 0, 71, 0
1, 4557, Note_on_c, 1, 62, 0
1, 4560, Note_on_c, 0, 71, 64
1, 4560, Note_on_c, 1, 50, 64
1, 4568, Note_on_c, 0, 71, 0
1, 4568, Note_on_c, 0, 69, 64
1, 4576, Note_on_c, 0, 69, 0
1, 4576, Note_on_c, 0, 71, 64
1, 4584, Note_on_c, 0, 71, 0
1, 4584, Note_on_c, 0, 69, 64
1, 4592, Note_on_c, 0, 69, 0
1, 4592, Note_on_c, 0, 67, 64
1, 4600, Note_on_c, 0, 67, 0
1, 4600, Note_on_c, 0, 69, 64
1, 4605, Note_on_c, 1, 50, 0
1, 4608, Note_on_c, 0, 69, 0
1, 4608, Note_on_c, 0, 67, 64
1, 4608, Note_on_c, 1, 55, 64
1, 4653, Note_on_c, 1, 55, 0
1, 4656, Note_on_c, 1, 43, 64
1, 4697, Note_on_c, 0, 67, 0
1, 4701, Note_on_c, 1, 43, 0
1, 4704, Note_on_c, 0, 74, 64
1, 4771, Note_on_c, 0, 74, 0
1, 4776, Note_on_c, 0, 76, 64
1, 4788, Note_on_c, 0, 76, 0
1, 4788, Note_on_c, 0, 77, 64
1, 4800, Note_on_c, 0, 77, 0
1, 4800, Note_on_c, 0, 68, 64
1, 4800, Note_on_c, 1, 62, 64
1, 4800, Note_on_c, 1, 52, 64
1, 4845, Note_on_c, 0, 68, 0
1, 4845, Note_on_c, 1, 62, 0
1, 4845, Note_on_c, 1, 52, 0
1, 4848, Note_on_c, 0, 68, 64
1, 4848, Note_on_c, 1, 62, 64
1, 4848, Note_on_c, 1, 52, 64
1, 4893, Note_on_c, 0, 68, 0
1, 4893, Note_on_c, 1, 62, 0
1, 4893, Note_on_c, 1, 52, 0
1, 4896, Note_on_c, 0, 69, 64
1, 4896, Note_on_c, 1, 60, 64
1, 4896, Note_on_c, 1, 52, 64
1, 4902, Note_on_c, 0, 69, 0
1, 4902, Note_on_c, 0, 71, 64
1, 4908, Note_on_c, 0, 71, 0
1, 4908, Note_on_c, 0, 69, 64
1, 4930, Note_on_c, 0, 69, 0
1, 4932, Note_on_c, 0, 68, 64
1, 4941, Note_on_c, 1, 60, 0
1, 4941, Note_on_c, 1, 52, 0
1, 4944, Note_on_c, 0, 68, 0
1, 4944, Note_on_c, 0, 69, 64
1, 4944, Note_on_c, 1, 59, 64
1, 4944, Note_on_c, 1, 52, 64
1, 4978, Note_on_c, 0, 69, 0
1, 4980, Note_on_c, 0, 71, 64
1, 4989, Note_on_c, 1, 59, 0
1, 4989, Note_on_c, 1, 52, 0
1, 4992, Note_on_c, 0, 71, 0
1, 4992, Note_on_c, 0, 71, 64
1, 4992, Note_on_c, 1, 57, 64
1, 5037, Note_on_c, 0, 71, 0
1, 5037, Note_on_c, 1, 57, 0
1, 5040, Note_on_c, 0, 72, 64
1, 5040, Note_on_c, 1, 45, 64
1, 5085, Note_on_c, 0, 72, 0
1, 5085, Note_on_c, 1, 45, 0
1, 5088, Note_on_c, 0, 72, 64
1, 5088, Note_on_c, 1, 57, 64
1, 5122, Note_on_c, 0, 72, 0
1, 5124, Note_on_c, 0, 76, 64
1, 5133, Note_on_c, 1, 57, 0
1, 5136, Note_on_c, 0, 76, 0
1, 5136, Note_on_c, 0, 69, 64
1, 5136, Note_on_c, 1, 54, 64
1, 5170, Note_on_c, 0, 69, 0
1, 5172, Note_on_c, 0, 72, 64
1, 5181, Note_on_c, 1, 54, 0
1, 5184, Note_on_c, 0, 72, 0
1, 5184, Note_on_c, 0, 71, 64
1, 5184, Note_on_c, 1, 55, 64
1, 5218, Note_on_c, 0, 71, 0
1, 5220, Note_on_c, 0, 74, 64
1, 5229, Note_on_c, 1, 55, 0
1, 5232, Note_on_c, 0, 74, 0
1, 5232, Note_on_c, 0, 67, 64
1, 5232, Note_on_c, 1, 47, 64
1, 5266, Note_on_c, 0, 67, 0
1, 5268, Note_on_c, 0, 71, 64
1, 5277, Note_on_c, 1, 47, 0
1, 5280, Note_on_c, 0, 71, 0
1, 5280, Note_on_c, 0, 69, 64
1, 5280, Note_on_c, 1, 48, 64
1, 5314, Note_on_c, 0, 69, 0
1, 5316, Note_on_c, 0, 72, 64
1, 5325, Note_on_c, 1, 48, 0
1, 5328, Note_on_c, 0, 72, 0
1, 5328, Note_on_c, 0, 64, 64
1, 5328, Note_on_c, 1, 49, 64
1, 5362, Note_on_c, 0, 64, 0
1, 5364, Note_on_c, 0, 69, 64
1, 5373, Note_on_c, 1, 49, 0
1, 5376, Note_on_c, 0, 69, 0
1, 5376, Note_on_c, 0, 67, 64
1, 5376, Note_on_c, 1, 50, 64
1, 5421, Note_on_c, 0, 67, 0
1, 5421, Note_on_c, 1, 50, 0
1, 5424, Note_on_c, 0, 66, 64
1, 5424, Note_on_c, 1, 38, 64
1, 5469, Note_on_c, 0, 66, 0
1, 5469, Note_on_c, 1, 38, 0
1, 5472, Note_on_c, 1, 57, 64
1, 5539, Note_on_c, 1, 57, 0
1, 5544, Note_on_c, 1, 59, 64
1, 5556, Note_on_c, 1, 59, 0
1, 5556, Note_on_c, 1, 60, 64
1, 5568, Note_on_c, 0, 78, 64
1, 5568, Note_on_c, 1, 60, 0
1, 5568, Note_on_c, 1, 50, 64
1, 5613, Note_on_c, 1, 50, 0
1, 5616, Note_on_c, 1, 50, 64
1, 5635, Note_on_c, 0, 78, 0
1, 5640, Note_on_c, 0, 79, 64
1, 5652, Note_on_c, 0, 79, 0
1, 5652, Note_on_c, 0, 81, 64
1, 5661, Note_on_c, 1, 50, 0
1, 5664, Note_on_c, 0, 81, 0
1, 5664, Note_on_c, 0, 72, 64
1, 5664, Note_on_c, 1, 66, 64
1, 5709, Note_on_c, 0, 72, 0
1, 5712, Note_on_c, 0, 72, 64
1, 5731, Note_on_c, 1, 66, 0
1, 5736, Note_on_c, 1, 67, 64
1, 5748, Note_on_c, 1, 67, 0
1, 5748, Note_on_c, 1, 69, 64
1, 5757, Note_on_c, 0, 72, 0
1, 5760, Note_on_c, 0, 84, 64
1, 5760, Note_on_c, 1, 69, 0
1, 5760, Note_on_c, 1, 60, 64
1, 5794, Note_on_c, 0, 84, 0
1, 5796, Note_on_c, 0, 88, 64
1, 5808, Note_on_c, 0, 88, 0
1, 5808, Note_on_c, 0, 81, 64
1, 5842, Note_on_c, 0, 81, 0
1, 5844, Note_on_c, 0, 84, 64
1, 5856, Note_on_c, 0, 84, 0
1, 5856, Note_on_c, 0, 78, 64
1, 5890, Note_on_c, 0, 78, 0
1, 5892, Note_on_c, 0, 81, 64
1, 5904, Note_on_c, 0, 81, 0
1, 5904, Note_on_c, 0, 74, 64
1, 5937, Note_on_c, 1, 60, 0
1, 5938, Note_on_c, 0, 74, 0
1, 5940, Note_on_c, 0, 78, 64
1, 5952, Note_on_c, 0, 78, 0
1, 5952, Note_on_c, 0, 79, 64
1, 5952, Note_on_c, 1, 59, 64
1, 5986, Note_on_c, 0, 79, 0
1, 5988, Note_on_c, 0, 74, 64
1, 5997, Note_on_c, 1, 59, 0
1, 6000, Note_on_c, 0, 74, 0
1, 6000, Note_on_c, 0, 76, 64
1, 6000, Note_on_c, 1, 60, 64
1, 6034, Note_on_c, 0, 76, 0
1, 6036, Note_on_c, 0, 72, 64
1, 6045, Note_on_c, 1, 60, 0
1, 6048, Note_on_c, 0, 72, 0
1, 6048, Note_on_c, 0, 71, 64
1, 6048, Note_on_c, 1, 62, 64
1, 6093, Note_on_c, 0, 71, 0
1, 6093, Note_on_c, 1, 62, 0
1, 6096, Note_on_c, 0, 71, 64
1, 6096, Note_on_c, 1, 50, 64
1, 6104, Note_on_c, 0, 71, 0
1, 6104, Note_on_c, 0, 69, 64
1, 6112, Note_on_c, 0, 69, 0
1, 6112, Note_on_c, 0, 71, 64
1, 6120, Note_on_c, 0, 71, 0
1, 6120, Note_on_c, 0, 69, 64
1, 6128, Note_on_c, 0, 69, 0
1, 6128, Note_on_c, 0, 67, 64
1, 6136, Note_on_c, 0, 67, 0
1, 6136, Note_on_c, 0, 69, 64
1, 6141, Note_on_c, 1, 50, 0
1, 6144, Note_on_c, 0, 69, 0
1, 6144, Note_on_c, 0, 67, 64
1, 6144, Note_on_c, 1, 55, 64
1, 6189, Note_on_c, 1, 55, 0
1, 6192, Note_on_c, 1, 43, 64
1, 6233, Note_on_c, 0, 67, 0
1, 6237, Note_on_c, 1, 43, 0
1, 6240, Note_on_c, 0, 79, 64
1, 6307, Note_on_c, 0, 79, 0
1, 6312, Note_on_c, 0, 81, 64
1, 6324, Note_on_c, 0, 81, 0
1, 6324, Note_on_c, 0, 82, 64
1, 6336, Note_on_c, 0, 82, 0
1, 6336, Note_on_c, 0, 74, 64
1, 6336, Note_on_c, 1, 55, 64
1, 6381, Note_on_c, 0, 74, 0
1, 6384, Note_on_c, 0, 74, 64
1, 6384, Note_on_c, 0, 70, 64
1, 6425, Note_on_c, 1, 55, 0
1, 6432, Note_on_c, 1, 50, 64
1, 6473, Note_on_c, 0, 74, 0
1, 6473, Note_on_c, 0, 70, 0
1, 6480, Note_on_c, 0, 72, 64
1, 6480, Note_on_c, 0, 69, 64
1, 6521, Note_on_c, 1, 50, 0
1, 6525, Note_on_c, 0, 72, 0
1, 6525, Note_on_c, 0, 69, 0
1, 6528, Note_on_c, 0, 69, 64
1, 6528, Note_on_c, 0, 72, 64
1, 6528, Note_on_c, 1, 51, 64
1, 6540, Note_on_c, 0, 72, 0
1, 6540, Note_on_c, 0, 69, 0
1, 6540, Note_on_c, 0, 70, 64
1, 6540, Note_on_c, 0, 74, 64
1, 6552, Note_on_c, 0, 74, 0
1, 6552, Note_on_c, 0, 70, 0
1, 6552, Note_on_c, 0, 72, 64
1, 6552, Note_on_c, 0, 69, 64
1, 6573, Note_on_c, 0, 72, 0
1, 6573, Note_on_c, 0, 69, 0
1, 6576, Note_on_c, 0, 70, 64
1, 6576, Note_on_c, 0, 67, 64
1, 6617, Note_on_c, 1, 51, 0
1, 6621, Note_on_c, 0, 70, 0
1, 6621, Note_on_c, 0, 67, 0
1, 6624, Note_on_c, 0, 79, 64
1, 6624, Note_on_c, 0, 67, 64
1, 6672, Note_on_c, 1, 46, 64
1, 6717, Note_on_c, 1, 46, 0
1, 6720, Note_on_c, 0, 67, 0
1, 6720, Note_on_c, 1, 48, 64
1, 6765, Note_on_c, 0, 79, 0
1, 6768, Note_on_c, 0, 77, 64
1, 6791, Note_on_c, 0, 77, 0
1, 6792, Note_on_c, 0, 75, 64
1, 6815, Note_on_c, 0, 75, 0
1, 6816, Note_on_c, 0, 74, 64
1, 6839, Note_on_c, 0, 74, 0
1, 6840, Note_on_c, 0, 72, 64
1, 6853, Note_on_c, 1, 48, 0
1, 6863, Note_on_c, 0, 72, 0
1, 6864, Note_on_c, 0, 70, 64
1, 6864, Note_on_c, 1, 49, 64
1, 6887, Note_on_c, 0, 70, 0
1, 6888, Note_on_c, 0, 69, 64
1, 6909, Note_on_c, 1, 49, 0
1, 6911, Note_on_c, 0, 69, 0
1, 6912, Note_on_c, 0, 67, 64
1, 6912, Note_on_c, 1, 50, 64
1, 6957, Note_on_c, 0, 67, 0
1, 6957, Note_on_c, 1, 50, 0
1, 6960, Note_on_c, 0, 66, 64
1, 6960, Note_on_c, 1, 38, 64
1, 7005, Note_on_c, 0, 66, 0
1, 7005, Note_on_c, 1, 38, 0
1, 7008, Note_on_c, 0, 79, 64
1, 7053, Note_on_c, 0, 79, 0
1, 7056, Note_on_c, 0, 81, 64
1, 7064, Note_on_c, 0, 81, 0
1, 7064, Note_on_c, 0, 79, 64
1, 7072, Note_on_c, 0, 79, 0
1, 7072, Note_on_c, 0, 78, 64
1, 7080, Note_on_c, 0, 78, 0
1, 7080, Note_on_c, 0, 81, 64
1, 7092, Note_on_c, 0, 81, 0
1, 7092, Note_on_c, 0, 82, 64
1, 7104, Note_on_c, 0, 82, 0
1, 7104, Note_on_c, 0, 74, 64
1, 7104, Note_on_c, 1, 70, 64
1, 7104, Note_on_c, 1, 67, 64
1, 7149, Note_on_c, 0, 74, 0
1, 7152, Note_on_c, 0, 75, 64
1, 7193, Note_on_c, 1, 70, 0
1, 7193, Note_on_c, 1, 67, 0
1, 7200, Note_on_c, 1, 69, 64
1, 7200, Note_on_c, 1, 65, 64
1, 7241, Note_on_c, 0, 75, 0
1, 7248, Note_on_c, 0, 74, 64
1, 7289, Note_on_c, 1, 69, 0
1, 7289, Note_on_c, 1, 65, 0
1, 7293, Note_on_c, 0, 74, 0
1, 7296, Note_on_c, 0, 79, 64
1, 7296, Note_on_c, 1, 67, 64
1, 7296, Note_on_c, 1, 63, 64
1, 7319, Note_on_c, 0, 79, 0
1, 7320, Note_on_c, 0, 75, 64
1, 7343, Note_on_c, 0, 75, 0
1, 7344, Note_on_c, 0, 72, 64
1, 7385, Note_on_c, 1, 67, 0
1, 7385, Note_on_c, 1, 63, 0
1, 7392, Note_on_c, 1, 65, 64
1, 7392, Note_on_c, 1, 62, 64
1, 7433, Note_on_c, 0, 72, 0
1, 7440, Note_on_c, 0, 70, 64
1, 7481, Note_on_c, 1, 65, 0
1, 7481, Note_on_c, 1, 62, 0
1, 7485, Note_on_c, 0, 70, 0
1, 7488, Note_on_c, 0, 69, 64
1, 7488, Note_on_c, 1, 63, 64
1, 7522, Note_on_c, 0, 69, 0
1, 7524, Note_on_c, 0, 67, 64
1, 7536, Note_on_c, 0, 67, 0
1, 7536, Note_on_c, 0, 75, 64
1, 7536, Note_on_c, 1, 51, 64
1, 7570, Note_on_c, 0, 75, 0
1, 7572, Note_on_c, 0, 72, 64
1, 7577, Note_on_c, 1, 63, 0
1, 7581, Note_on_c, 1, 51, 0
1, 7584, Note_on_c, 0, 72, 0
1, 7584, Note_on_c, 0, 70, 64
1, 7584, Note_on_c, 1, 62, 64
1, 7584, Note_on_c, 1, 53, 64
1, 7629, Note_on_c, 0, 70, 0
1, 7629, Note_on_c, 1, 62, 0
1, 7629, Note_on_c, 1, 53, 0
1, 7632, Note_on_c, 0, 70, 64
1, 7632, Note_on_c, 1, 60, 64
1, 7632, Note_on_c, 1, 53, 64
1, 7640, Note_on_c, 0, 70, 0
1, 7640, Note_on_c, 0, 69, 64
1, 7648, Note_on_c, 0, 69, 0
1, 7648, Note_on_c, 0, 70, 64
1, 7656, Note_on_c, 0, 70, 0
1, 7656, Note_on_c, 0, 69, 64
1, 7664, Note_on_c, 0, 69, 0
1, 7664, Note_on_c, 0, 67, 64
1, 7672, Note_on_c, 0, 67, 0
1, 7672, Note_on_c, 0, 69, 64
1, 7677, Note_on_c, 1, 60, 0
1, 7677, Note_on_c, 1, 53, 0
1, 7680, Note_on_c, 0, 69, 0
1, 7680, Note_on_c, 0, 70, 64
1, 7680, Note_on_c, 1, 58, 64
1, 7725, Note_on_c, 1, 58, 0
1, 7728, Note_on_c, 1, 46, 64
1, 7769, Note_on_c, 0, 70, 0
1, 7773, Note_on_c, 1, 46, 0
1, 7776, Note_on_c, 0, 79, 64
1, 7843, Note_on_c, 0, 79, 0
1, 7848, Note_on_c, 0, 81, 64
1, 7860, Note_on_c, 0, 81, 0
1, 7860, Note_on_c, 0, 82, 64
1, 7872, Note_on_c, 0, 82, 0
1, 7872, Note_on_c, 0, 74, 64
1, 7872, Note_on_c, 1, 55, 64
1, 7917, Note_on_c, 0, 74, 0
1, 7920, Note_on_c, 0, 74, 64
1, 7920, Note_on_c, 0, 70, 64
1, 7961, Note_on_c, 1, 55, 0
1, 7968, Note_on_c, 1, 50, 64
1, 8009, Note_on_c, 0, 74, 0
1, 8009, Note_on_c, 0, 70, 0
1, 8016, Note_on_c, 0, 72, 64
1, 8016, Note_on_c, 0, 69, 64
1, 8057, Note_on_c, 1, 50, 0
1, 8061, Note_on_c, 0, 72, 0
1, 8061, Note_on_c, 0, 69, 0
1, 8064, Note_on_c, 0, 69, 64
1, 8064, Note_on_c, 0, 72, 64
1, 8064, Note_on_c, 1, 51, 64
1, 8076, Note_on_c, 0, 72, 0
1, 8076, Note_on_c, 0, 69, 0
1, 8076, Note_on_c, 0, 70, 64
1, 8076, Note_on_c, 0, 74, 64
1, 8088, Note_on_c, 0, 74, 0
1, 8088, Note_on_c, 0, 70, 0
1, 8088, Note_on_c, 0, 72, 64
1, 8088, Note_on_c, 0, 69, 64
1, 8109, Note_on_c, 0, 72, 0
1, 8109, Note_on_c, 0, 69, 0
1, 8112, Note_on_c, 0, 70, 64
1, 8112, Note_on_c, 0, 67, 64
1, 8153, Note_on_c, 1, 51, 0
1, 8157, Note_on_c, 0, 70, 0
1, 8157, Note_on_c, 0, 67, 0
1, 8160, Note_on_c, 0, 79, 64
1, 8160, Note_on_c, 0, 67, 64
1, 8208, Note_on_c, 1, 46, 64
1, 8253, Note_on_c, 1, 46, 0
1, 8256, Note_on_c, 0, 67, 0
1, 8256, Note_on_c, 1, 48, 64
1, 8301, Note_on_c, 0, 79, 0
1, 8304, Note_on_c, 0, 77, 64
1, 8327, Note_on_c, 0, 77, 0
1, 8328, Note_on_c, 0, 75, 64
1, 8351, Note_on_c, 0, 75, 0
1, 8352, Note_on_c, 0, 74, 64
1, 8375, Note_on_c, 0, 74, 0
1, 8376, Note_on_c, 0, 72, 64
1, 8389, Note_on_c, 1, 48, 0
1, 8399, Note_on_c, 0, 72, 0
1, 8400, Note_on_c, 0, 70, 64
1, 8400, Note_on_c, 1, 49, 64
1, 8423, Note_on_c, 0, 70, 0
1, 8424, Note_on_c, 0, 69, 64
1, 8445, Note_on_c, 1, 49, 0
1, 8447, Note_on_c, 0, 69, 0
1, 8448, Note_on_c, 0, 67, 64
1, 8448, Note_on_c, 1, 50, 64
1, 8493, Note_on_c, 0, 67, 0
1, 8493, Note_on_c, 1, 50, 0
1, 8496, Note_on_c, 0, 66, 64
1, 8496, Note_on_c, 1, 38, 64
1, 8541, Note_on_c, 0, 66, 0
1, 8541, Note_on_c, 1, 38, 0
1, 8544, Note_on_c, 0, 79, 64
1, 8589, Note_on_c, 0, 79, 0
1, 8592, Note_on_c, 0, 81, 64
1, 8600, Note_on_c, 0, 81, 0
1, 8600, Note_on_c, 0, 79, 64
1, 8608, Note_on_c, 0, 79, 0
1, 8608, Note_on_c, 0, 78, 64
1, 8616, Note_on_c, 0, 78, 0
1, 8616, Note_on_c, 0, 81, 64
1, 8628, Note_on_c, 0, 81, 0
1, 8628, Note_on_c, 0, 82, 64
1, 8640, Note_on_c, 0, 82, 0
1, 8640, Note_on_c, 0, 74, 64
1, 8640, Note_on_c, 1, 70, 64
1, 8640, Note_on_c, 1, 67, 64
1, 8685, Note_on_c, 0, 74, 0
1, 8688, Note_on_c, 0, 75, 64
1, 8729, Note_on_c, 1, 70, 0
1, 8729, Note_on_c, 1, 67, 0
1, 8736, Note_on_c, 1, 69, 64
1, 8736, Note_on_c, 1, 65, 64
1, 8777, Note_on_c, 0, 75, 0
1, 8784, Note_on_c, 0, 74, 64
1, 8825, Note_on_c, 1, 69, 0
1, 8825, Note_on_c, 1, 65, 0
1, 8829, Note_on_c, 0, 74, 0
1, 8832, Note_on_c, 0, 79, 64
1, 8832, Note_on_c, 1, 67, 64
1, 8832, Note_on_c, 1, 63, 64
1, 8855, Note_on_c, 0, 79, 0
1, 8856, Note_on_c, 0, 75, 64
1, 8879, Note_on_c, 0, 75, 0
1, 8880, Note_on_c, 0, 72, 64
1, 8921, Note_on_c, 1, 67, 0
1, 8921, Note_on_c, 1, 63, 0
1, 8928, Note_on_c, 1, 65, 64
1, 8928, Note_on_c, 1, 62, 64
1, 8969, Note_on_c, 0, 72, 0
1, 8976, Note_on_c, 0, 70, 64
1, 9017, Note_on_c, 1, 65, 0
1, 9017, Note_on_c, 1, 62, 0
1, 9021, Note_on_c, 0, 70, 0
1, 9024, Note_on_c, 0, 69, 64
1, 9024, Note_on_c, 1, 63, 64
1, 9058, Note_on_c, 0, 69, 0
1, 9060, Note_on_c, 0, 67, 64
1, 9072, Note_on_c, 0, 67, 0
1, 9072, Note_on_c, 0, 75, 64
1, 9072, Note_on_c, 1, 51, 64
1, 9106, Note_on_c, 0, 75, 0
1, 9108, Note_on_c, 0, 72, 64
1, 9113, Note_on_c, 1, 63, 0
1, 9117, Note_on_c, 1, 51, 0
1, 9120, Note_on_c, 0, 72, 0
1, 9120, Note_on_c, 0, 70, 64
1, 9120, Note_on_c, 1, 62, 64
1, 9120, Note_on_c, 1, 53, 64
1, 9165, Note_on_c, 0, 70, 0
1, 9165, Note_on_c, 1, 62, 0
1, 9165, Note_on_c, 1, 53, 0
1, 9168, Note_on_c, 0, 70, 64
1, 9168, Note_on_c, 1, 60, 64
1, 9168, Note_on_c, 1, 53, 64
1, 9176, Note_on_c, 0, 70, 0
1, 9176, Note_on_c, 0, 69, 64
1, 9184, Note_on_c, 0, 69, 0
1, 9184, Note_on_c, 0, 70, 64
1, 9192, Note_on_c, 0, 70, 0
1, 9192, Note_on_c, 0, 69, 64
1, 9200, Note_on_c, 0, 69, 0
1, 9200, Note_on_c, 0, 67, 64
1, 9208, Note_on_c, 0, 67, 0
1, 9208, Note_on_c, 0, 69, 64
1, 9213, Note_on_c, 1, 60, 0
1, 9213, Note_on_c, 1, 53, 0
1, 9216, Note_on_c, 0, 69, 0
1, 9216, Note_on_c, 0, 70, 64
1, 9216, Note_on_c, 1, 58, 64
1, 9261, Note_on_c, 1, 58, 0
1, 9264, Note_on_c, 1, 46, 64
1, 9305, Note_on_c, 0, 70, 0
1, 9309, Note_on_c, 1, 46, 0
1, 9312, Note_on_c, 0, 74, 64
1, 9379, Note_on_c, 0, 74, 0
1, 9384, Note_on_c, 0, 75, 64
1, 9396, Note_on_c, 0, 75, 0
1, 9396, Note_on_c, 0, 77, 64
1, 9408, Note_on_c, 0, 77, 0
1, 9408, Note_on_c, 0, 72, 64
1, 9408, Note_on_c, 1, 55, 64
1, 9453, Note_on_c, 0, 72, 0
1, 9456, Note_on_c, 0, 71, 64
1, 9504, Note_on_c, 0, 80, 64
1, 9504, Note_on_c, 1, 65, 64
1, 9549, Note_on_c, 0, 80, 0
1, 9549, Note_on_c, 0, 71, 0
1, 9549, Note_on_c, 1, 65, 0
1, 9552, Note_on_c, 0, 79, 64
1, 9552, Note_on_c, 0, 72, 64
1, 9552, Note_on_c, 1, 63, 64
1, 9597, Note_on_c, 0, 79, 0
1, 9597, Note_on_c, 0, 72, 0
1, 9597, Note_on_c, 1, 63, 0
1, 9600, Note_on_c, 0, 77, 64
1, 9600, Note_on_c, 0, 74, 64
1, 9600, Note_on_c, 1, 59, 64
1, 9645, Note_on_c, 0, 77, 0
1, 9645, Note_on_c, 0, 74, 0
1, 9645, Note_on_c, 1, 59, 0
1, 9645, Note_on_c, 1, 55, 0
1, 9648, Note_on_c, 0, 75, 64
1, 9648, Note_on_c, 0, 72, 64
1, 9648, Note_on_c, 1, 60, 64
1, 9648, Note_on_c, 1, 60, 64
1, 9693, Note_on_c, 0, 75, 0
1, 9693, Note_on_c, 0, 72, 0
1, 9693, Note_on_c, 1, 60, 0
1, 9693, Note_on_c, 1, 60, 0
1, 9696, Note_on_c, 0, 75, 64
1, 9763, Note_on_c, 0, 75, 0
1, 9768, Note_on_c, 0, 77, 64
1, 9780, Note_on_c, 0, 77, 0
1, 9780, Note_on_c, 0, 79, 64
1, 9792, Note_on_c, 0, 79, 0
1, 9792, Note_on_c, 0, 74, 64
1, 9792, Note_on_c, 1, 57, 64
1, 9837, Note_on_c, 0, 74, 0
1, 9840, Note_on_c, 0, 73, 64
1, 9885, Note_on_c, 0, 73, 0
1, 9888, Note_on_c, 0, 82, 64
1, 9888, Note_on_c, 0, 73, 64
1, 9888, Note_on_c, 1, 67, 64
1, 9933, Note_on_c, 0, 82, 0
1, 9933, Note_on_c, 0, 73, 0
1, 9933, Note_on_c, 1, 67, 0
1, 9936, Note_on_c, 0, 81, 64
1, 9936, Note_on_c, 0, 74, 64
1, 9936, Note_on_c, 1, 65, 64
1, 9981, Note_on_c, 0, 81, 0
1, 9981, Note_on_c, 0, 74, 0
1, 9981, Note_on_c, 1, 65, 0
1, 9984, Note_on_c, 0, 79, 64
1, 9984, Note_on_c, 0, 76, 64
1, 9984, Note_on_c, 1, 61, 64
1, 10029, Note_on_c, 0, 79, 0
1, 10029, Note_on_c, 0, 76, 0
1, 10029, Note_on_c, 1, 61, 0
1, 10029, Note_on_c, 1, 57, 0
1, 10032, Note_on_c, 0, 77, 64
1, 10032, Note_on_c, 0, 74, 64
1, 10032, Note_on_c, 1, 62, 64
1, 10032, Note_on_c, 1, 62, 64
1, 10077, Note_on_c, 0, 77, 0
1, 10077, Note_on_c, 0, 74, 0
1, 10077, Note_on_c, 1, 62, 0
1, 10077, Note_on_c, 1, 62, 0
1, 10080, Note_on_c, 0, 74, 64
1, 10080, Note_on_c, 1, 62, 64
1, 10128, Note_on_c, 1, 72, 64
1, 10147, Note_on_c, 0, 74, 0
1, 10152, Note_on_c, 0, 76, 64
1, 10164, Note_on_c, 0, 76, 0
1, 10164, Note_on_c, 0, 77, 64
1, 10173, Note_on_c, 1, 72, 0
1, 10176, Note_on_c, 0, 77, 0
1, 10176, Note_on_c, 0, 79, 64
1, 10176, Note_on_c, 1, 70, 64
1, 10221, Note_on_c, 1, 70, 0
1, 10224, Note_on_c, 1, 67, 64
1, 10243, Note_on_c, 0, 79, 0
1, 10248, Note_on_c, 0, 81, 64
1, 10260, Note_on_c, 0, 81, 0
1, 10260, Note_on_c, 0, 82, 64
1, 10269, Note_on_c, 1, 67, 0
1, 10272, Note_on_c, 0, 82, 0
1, 10272, Note_on_c, 0, 84, 64
1, 10272, Note_on_c, 1, 66, 64
1, 10306, Note_on_c, 0, 84, 0
1, 10308, Note_on_c, 0, 81, 64
1, 10317, Note_on_c, 1, 66, 0
1, 10320, Note_on_c, 0, 81, 0
1, 10320, Note_on_c, 0, 82, 64
1, 10320, Note_on_c, 1, 67, 64
1, 10353, Note_on_c, 1, 62, 0
1, 10354, Note_on_c, 0, 82, 0
1, 10356, Note_on_c, 0, 79, 64
1, 10365, Note_on_c, 1, 67, 0
1, 10368, Note_on_c, 0, 79, 0
1, 10368, Note_on_c, 0, 86, 64
1, 10368, Note_on_c, 1, 66, 64
1, 10368, Note_on_c, 1, 62, 64
1, 10413, Note_on_c, 0, 86, 0
1, 10413, Note_on_c, 1, 66, 0
1, 10413, Note_on_c, 1, 62, 0
1, 10464, Note_on_c, 0, 72, 64
1, 10464, Note_on_c, 1, 62, 64
1, 10464, Note_on_c, 1, 54, 64
1, 10498, Note_on_c, 0, 72, 0
1, 10500, Note_on_c, 0, 69, 64
1, 10509, Note_on_c, 1, 62, 0
1, 10509, Note_on_c, 1, 54, 0
1, 10512, Note_on_c, 0, 69, 0
1, 10512, Note_on_c, 0, 70, 64
1, 10512, Note_on_c, 1, 62, 64
1, 10512, Note_on_c, 1, 55, 64
1, 10546, Note_on_c, 0, 70, 0
1, 10548, Note_on_c, 0, 67, 64
1, 10557, Note_on_c, 1, 62, 0
1, 10557, Note_on_c, 1, 55, 0
1, 10560, Note_on_c, 0, 67, 0
1, 10560, Note_on_c, 0, 74, 64
1, 10560, Note_on_c, 1, 62, 64
1, 10560, Note_on_c, 1, 50, 64
1, 10605, Note_on_c, 0, 74, 0
1, 10605, Note_on_c, 1, 62, 0
1, 10605, Note_on_c, 1, 50, 0
1, 10632, Note_on_c, 0, 62, 64
1, 10655, Note_on_c, 0, 62, 0
1, 10656, Note_on_c, 0, 63, 64
1, 10679, Note_on_c, 0, 63, 0
1, 10680, Note_on_c, 0, 64, 64
1, 10703, Note_on_c, 0, 64, 0
1, 10704, Note_on_c, 0, 65, 64
1, 10727, Note_on_c, 0, 65, 0
1, 10728, Note_on_c, 0, 66, 64
1, 10751, Note_on_c, 0, 66, 0
1, 10752, Note_on_c, 0, 67, 64
1, 10775, Note_on_c, 0, 67, 0
1, 10776, Note_on_c, 0, 68, 64
1, 10799, Note_on_c, 0, 68, 0
1, 10800, Note_on_c, 0, 69, 64
1, 10823, Note_on_c, 0, 69, 0
1, 10824, Note_on_c, 0, 70, 64
1, 10847, Note_on_c, 0, 70, 0
1, 10848, Note_on_c, 0, 71, 64
1, 10915, Note_on_c, 0, 71, 0
1, 10920, Note_on_c, 0, 72, 64
1, 10932, Note_on_c, 0, 72, 0
1, 10932, Note_on_c, 0, 74, 64
1, 10944, Note_on_c, 0, 74, 0
1, 10944, Note_on_c, 0, 67, 64
1, 10944, Note_on_c, 1, 59, 64
1, 10944, Note_on_c, 1, 55, 64
1, 10989, Note_on_c, 0, 67, 0
1, 10989, Note_on_c, 1, 59, 0
1, 10989, Note_on_c, 1, 55, 0
1, 10992, Note_on_c, 0, 67, 64
1, 10992, Note_on_c, 1, 59, 64
1, 10992, Note_on_c, 1, 55, 64
1, 11037, Note_on_c, 0, 67, 0
1, 11037, Note_on_c, 1, 59, 0
1, 11037, Note_on_c, 1, 55, 0
1, 11040, Note_on_c, 0, 69, 64
1, 11040, Note_on_c, 1, 60, 64
1, 11040, Note_on_c, 1, 50, 64
1, 11046, Note_on_c, 0, 69, 0
1, 11046, Note_on_c, 0, 71, 64
1, 11052, Note_on_c, 0, 71, 0
1, 11052, Note_on_c, 0, 69, 64
1, 11074, Note_on_c, 0, 69, 0
1, 11076, Note_on_c, 0, 67, 64
1, 11085, Note_on_c, 1, 60, 0
1, 11085, Note_on_c, 1, 50, 0
1, 11088, Note_on_c, 0, 67, 0
1, 11088, Note_on_c, 0, 69, 64
1, 11088, Note_on_c, 1, 60, 64
1, 11088, Note_on_c, 1, 50, 64
1, 11122, Note_on_c, 0, 69, 0
1, 11124, Note_on_c, 0, 71, 64
1, 11133, Note_on_c, 1, 60, 0
1, 11133, Note_on_c, 1, 50, 0
1, 11136, Note_on_c, 0, 71, 0
1, 11136, Note_on_c, 0, 67, 64
1, 11136, Note_on_c, 1, 59, 64
1, 11136, Note_on_c, 1, 55, 64
1, 11181, Note_on_c, 0, 67, 0
1, 11181, Note_on_c, 1, 59, 0
1, 11181, Note_on_c, 1, 55, 0
1, 11232, Note_on_c, 0, 76, 64
1, 11232, Note_on_c, 1, 72, 64
1, 11255, Note_on_c, 0, 76, 0
1, 11256, Note_on_c, 0, 78, 64
1, 11268, Note_on_c, 0, 78, 0
1, 11268, Note_on_c, 0, 79, 64
1, 11277, Note_on_c, 1, 72, 0
1, 11280, Note_on_c, 0, 79, 0
1, 11280, Note_on_c, 0, 74, 64
1, 11280, Note_on_c, 1, 71, 64
1, 11300, Note_on_c, 0, 74, 0
1, 11325, Note_on_c, 1, 71, 0
1, 11328, Note_on_c, 0, 72, 64
1, 11328, Note_on_c, 1, 69, 64
1, 11351, Note_on_c, 0, 72, 0
1, 11352, Note_on_c, 0, 74, 64
1, 11364, Note_on_c, 0, 74, 0
1, 11364, Note_on_c, 0, 76, 64
1, 11373, Note_on_c, 1, 69, 0
1, 11376, Note_on_c, 0, 76, 0
1, 11376, Note_on_c, 0, 71, 64
1, 11376, Note_on_c, 1, 67, 64
1, 11396, Note_on_c, 0, 71, 0
1, 11421, Note_on_c, 1, 67, 0
1, 11424, Note_on_c, 0, 69, 64
1, 11424, Note_on_c, 1, 64, 64
1, 11424, Note_on_c, 1, 60, 64
1, 11469, Note_on_c, 0, 69, 0
1, 11469, Note_on_c, 1, 60, 0
1, 11472, Note_on_c, 0, 69, 64
1, 11472, Note_on_c, 1, 61, 64
1, 11480, Note_on_c, 0, 69, 0
1, 11480, Note_on_c, 0, 67, 64
1, 11488, Note_on_c, 0, 67, 0
1, 11488, Note_on_c, 0, 69, 64
1, 11496, Note_on_c, 0, 69, 0
1, 11496, Note_on_c, 0, 67, 64
1, 11504, Note_on_c, 0, 67, 0
1, 11504, Note_on_c, 0, 66, 64
1, 11512, Note_on_c, 0, 66, 0
1, 11512, Note_on_c, 0, 67, 64
1, 11513, Note_on_c, 1, 64, 0
1, 11517, Note_on_c, 1, 61, 0
1, 11520, Note_on_c, 0, 67, 0
1, 11520, Note_on_c, 0, 74, 64
1, 11520, Note_on_c, 0, 66, 64
1, 11520, Note_on_c, 1, 74, 64
1, 11520, Note_on_c, 1, 62, 64
1, 11520, Note_on_c, 1, 62, 64
1, 11565, Note_on_c, 0, 74, 0
1, 11565, Note_on_c, 0, 66, 0
1, 11565, Note_on_c, 1, 74, 0
1, 11565, Note_on_c, 1, 62, 0
1, 11565, Note_on_c, 1, 62, 0
1, 11568, Note_on_c, 1, 50, 64
1, 11613, Note_on_c, 1, 50, 0
1, 11616, Note_on_c, 0, 71, 64
1, 11631, Note_on_c, 0, 71, 0
1, 11632, Note_on_c, 0, 74, 64
1, 11647, Note_on_c, 0, 74, 0
1, 11648, Note_on_c, 0, 72, 64
1, 11663, Note_on_c, 0, 72, 0
1, 11664, Note_on_c, 0, 71, 64
1, 11679, Note_on_c, 0, 71, 0
1, 11680, Note_on_c, 0, 72, 64
1, 11695, Note_on_c, 0, 72, 0
1, 11696, Note_on_c, 0, 74, 64
1, 11711, Note_on_c, 0, 74, 0
1, 11712, Note_on_c, 0, 67, 64
1, 11712, Note_on_c, 1, 59, 64
1, 11712, Note_on_c, 1, 55, 64
1, 11757, Note_on_c, 0, 67, 0
1, 11757, Note_on_c, 1, 59, 0
1, 11757, Note_on_c, 1, 55, 0
1, 11760, Note_on_c, 0, 67, 64
1, 11760, Note_on_c, 1, 59, 64
1, 11760, Note_on_c, 1, 55, 64
1, 11805, Note_on_c, 0, 67, 0
1, 11805, Note_on_c, 1, 59, 0
1, 11805, Note_on_c, 1, 55, 0
1, 11808, Note_on_c, 0, 69, 64
1, 11808, Note_on_c, 1, 60, 64
1, 11808, Note_on_c, 1, 50, 64
1, 11823, Note_on_c, 0, 69, 0
1, 11824, Note_on_c, 0, 72, 64
1, 11839, Note_on_c, 0, 72, 0
1, 11840, Note_on_c, 0, 71, 64
1, 11853, Note_on_c, 1, 60, 0
1, 11853, Note_on_c, 1, 50, 0
1, 11855, Note_on_c, 0, 71, 0
1, 11856, Note_on_c, 0, 69, 64
1, 11856, Note_on_c, 1, 60, 64
1, 11856, Note_on_c, 1, 50, 64
1, 11871, Note_on_c, 0, 69, 0
1, 11872, Note_on_c, 0, 71, 64
1, 11887, Note_on_c, 0, 71, 0
1, 11888, Note_on_c, 0, 72, 64
1, 11901, Note_on_c, 1, 60, 0
1, 11901, Note_on_c, 1, 50, 0
1, 11903, Note_on_c, 0, 72, 0
1, 11904, Note_on_c, 0, 71, 64
1, 11904, Note_on_c, 1, 59, 64
1, 11904, Note_on_c, 1, 55, 64
1, 11919, Note_on_c, 0, 71, 0
1, 11920, Note_on_c, 0, 69, 64
1, 11935, Note_on_c, 0, 69, 0
1, 11936, Note_on_c, 0, 67, 64
1, 11949, Note_on_c, 1, 59, 0
1, 11949, Note_on_c, 1, 55, 0
1, 11951, Note_on_c, 0, 67, 0
1, 11952, Note_on_c, 0, 66, 64
1, 11967, Note_on_c, 0, 66, 0
1, 11968, Note_on_c, 0, 64, 64
1, 11983, Note_on_c, 0, 64, 0
1, 11984, Note_on_c, 0, 62, 64
1, 11999, Note_on_c, 0, 62, 0
1, 12000, Note_on_c, 1, 60, 64
1, 12016, Note_on_c, 0, 76, 64
1, 12020, Note_on_c, 1, 60, 0
1, 12031, Note_on_c, 0, 76, 0
1, 12032, Note_on_c, 0, 79, 64
1, 12047, Note_on_c, 0, 79, 0
1, 12048, Note_on_c, 1, 59, 64
1, 12064, Note_on_c, 0, 74, 64
1, 12068, Note_on_c, 1, 59, 0
1, 12079, Note_on_c, 0, 74, 0
1, 12080, Note_on_c, 0, 79, 64
1, 12095, Note_on_c, 0, 79, 0
1, 12096, Note_on_c, 1, 57, 64
1, 12112, Note_on_c, 0, 72, 64
1, 12116, Note_on_c, 1, 57, 0
1, 12127, Note_on_c, 0, 72, 0
1, 12128, Note_on_c, 0, 79, 64
1, 12143, Note_on_c, 0, 79, 0
1, 12144, Note_on_c, 1, 55, 64
1, 12160, Note_on_c, 0, 71, 64
1, 12164, Note_on_c, 1, 55, 0
1, 12175, Note_on_c, 0, 71, 0
1, 12176, Note_on_c, 0, 79, 64
1, 12191, Note_on_c, 0, 79, 0
1, 12192, Note_on_c, 1, 60, 64
1, 12208, Note_on_c, 0, 69, 64
1, 12212, Note_on_c, 1, 60, 0
1, 12223, Note_on_c, 0, 69, 0
1, 12224, Note_on_c, 0, 76, 64
1, 12239, Note_on_c, 0, 76, 0
1, 12240, Note_on_c, 1, 61, 64
1, 12256, Note_on_c, 0, 67, 64
1, 12260, Note_on_c, 1, 61, 0
1, 12271, Note_on_c, 0, 67, 0
1, 12272, Note_on_c, 0, 76, 64
1, 12287, Note_on_c, 0, 76, 0
1, 12288, Note_on_c, 0, 67, 64
1, 12288, Note_on_c, 1, 62, 64
1, 12333, Note_on_c, 0, 67, 0
1, 12333, Note_on_c, 1, 62, 0
1, 12336, Note_on_c, 0, 66, 64
1, 12336, Note_on_c, 1, 50, 64
1, 12381, Note_on_c, 0, 66, 0
1, 12381, Note_on_c, 1, 50, 0
1, 12384, Note_on_c, 0, 74, 64
1, 12384, Note_on_c, 1, 66, 64
1, 12384, Note_on_c, 1, 62, 64
1, 12399, Note_on_c, 0, 74, 0
1, 12400, Note_on_c, 0, 78, 64
1, 12415, Note_on_c, 0, 78, 0
1, 12416, Note_on_c, 0, 76, 64
1, 12429, Note_on_c, 1, 66, 0
1, 12429, Note_on_c, 1, 62, 0
1, 12431, Note_on_c, 0, 76, 0
1, 12432, Note_on_c, 0, 74, 64
1, 12432, Note_on_c, 1, 66, 64
1, 12432, Note_on_c, 1, 62, 64
1, 12447, Note_on_c, 0, 74, 0
1, 12448, Note_on_c, 0, 78, 64
1, 12463, Note_on_c, 0, 78, 0
1, 12464, Note_on_c, 0, 86, 64
1, 12477, Note_on_c, 1, 66, 0
1, 12477, Note_on_c, 1, 62, 0
1, 12479, Note_on_c, 0, 86, 0
1, 12480, Note_on_c, 0, 76, 64
1, 12480, Note_on_c, 1, 67, 64
1, 12480, Note_on_c, 1, 62, 64
1, 12495, Note_on_c, 0, 76, 0
1, 12496, Note_on_c, 0, 79, 64
1, 12511, Note_on_c, 0, 79, 0
1, 12512, Note_on_c, 0, 78, 64
1, 12525, Note_on_c, 1, 67, 0
1, 12525, Note_on_c, 1, 62, 0
1, 12527, Note_on_c, 0, 78, 0
1, 12528, Note_on_c, 0, 76, 64
1, 12528, Note_on_c, 1, 67, 64
1, 12528, Note_on_c, 1, 62, 64
1, 12543, Note_on_c, 0, 76, 0
1, 12544, Note_on_c, 0, 79, 64
1, 12559, Note_on_c, 0, 79, 0
1, 12560, Note_on_c, 0, 88, 64
1, 12573, Note_on_c, 1, 67, 0
1, 12573, Note_on_c, 1, 62, 0
1, 12575, Note_on_c, 0, 88, 0
1, 12576, Note_on_c, 0, 85, 64
1, 12576, Note_on_c, 1, 67, 64
1, 12576, Note_on_c, 1, 64, 64
1, 12576, Note_on_c, 1, 62, 64
1, 12591, Note_on_c, 0, 85, 0
1, 12592, Note_on_c, 0, 83, 64
1, 12607, Note_on_c, 0, 83, 0
1, 12608, Note_on_c, 0, 81, 64
1, 12621, Note_on_c, 1, 67, 0
1, 12621, Note_on_c, 1, 64, 0
1, 12621, Note_on_c, 1, 62, 0
1, 12623, Note_on_c, 0, 81, 0
1, 12624, Note_on_c, 0, 79, 64
1, 12624, Note_on_c, 1, 67, 64
1, 12624, Note_on_c, 1, 64, 64
1, 12624, Note_on_c, 1, 62, 64
1, 12639, Note_on_c, 0, 79, 0
1, 12640, Note_on_c, 0, 78, 64
1, 12655, Note_on_c, 0, 78, 0
1, 12656, Note_on_c, 0, 76, 64
1, 12669, Note_on_c, 1, 67, 0
1, 12669, Note_on_c, 1, 64, 0
1, 12669, Note_on_c, 1, 62, 0
1, 12671, Note_on_c, 0, 76, 0
1, 12672, Note_on_c, 0, 74, 64
1, 12672, Note_on_c, 1, 66, 64
1, 12672, Note_on_c, 1, 62, 64
1, 12687, Note_on_c, 0, 74, 0
1, 12688, Note_on_c, 0, 78, 64
1, 12703, Note_on_c, 0, 78, 0
1, 12704, Note_on_c, 0, 76, 64
1, 12717, Note_on_c, 1, 66, 0
1, 12717, Note_on_c, 1, 62, 0
1, 12719, Note_on_c, 0, 76, 0
1, 12720, Note_on_c, 0, 74, 64
1, 12720, Note_on_c, 1, 66, 64
1, 12720, Note_on_c, 1, 62, 64
1, 12735, Note_on_c, 0, 74, 0
1, 12736, Note_on_c, 0, 78, 64
1, 12751, Note_on_c, 0, 78, 0
1, 12752, Note_on_c, 0, 81, 64
1, 12765, Note_on_c, 1, 66, 0
1, 12765, Note_on_c, 1, 62, 0
1, 12767, Note_on_c, 0, 81, 0
1, 12768, Note_on_c, 0, 86, 64
1, 12768, Note_on_c, 1, 62, 64
1, 12768, Note_on_c, 1, 54, 64
1, 12783, Note_on_c, 0, 86, 0
1, 12784, Note_on_c, 0, 85, 64
1, 12799, Note_on_c, 0, 85, 0
1, 12800, Note_on_c, 0, 83, 64
1, 12813, Note_on_c, 1, 62, 0
1, 12813, Note_on_c, 1, 54, 0
1, 12815, Note_on_c, 0, 83, 0
1, 12816, Note_on_c, 0, 81, 64
1, 12816, Note_on_c, 1, 62, 64
1, 12816, Note_on_c, 1, 54, 64
1, 12831, Note_on_c, 0, 81, 0
1, 12832, Note_on_c, 0, 79, 64
1, 12847, Note_on_c, 0, 79, 0
1, 12848, Note_on_c, 0, 78, 64
1, 12861, Note_on_c, 1, 62, 0
1, 12861, Note_on_c, 1, 54, 0
1, 12863, Note_on_c, 0, 78, 0
1, 12864, Note_on_c, 0, 83, 64
1, 12864, Note_on_c, 1, 62, 64
1, 12864, Note_on_c, 1, 55, 64
1, 12879, Note_on_c, 0, 83, 0
1, 12880, Note_on_c, 0, 86, 64
1, 12895, Note_on_c, 0, 86, 0
1, 12896, Note_on_c, 0, 85, 64
1, 12909, Note_on_c, 1, 62, 0
1, 12909, Note_on_c, 1, 55, 0
1, 12911, Note_on_c, 0, 85, 0
1, 12912, Note_on_c, 0, 83, 64
1, 12912, Note_on_c, 1, 62, 64
1, 12912, Note_on_c, 1, 55, 64
1, 12927, Note_on_c, 0, 83, 0
1, 12928, Note_on_c, 0, 81, 64
1, 12943, Note_on_c, 0, 81, 0
1, 12944, Note_on_c, 0, 79, 64
1, 12957, Note_on_c, 1, 62, 0
1, 12957, Note_on_c, 1, 55, 0
1, 12959, Note_on_c, 0, 79, 0
1, 12960, Note_on_c, 0, 78, 64
1, 12960, Note_on_c, 1, 57, 64
1, 12960, Note_on_c, 1, 62, 64
1, 13005, Note_on_c, 0, 78, 0
1, 13005, Note_on_c, 1, 62, 0
1, 13008, Note_on_c, 0, 78, 64
1, 13008, Note_on_c, 1, 61, 64
1, 13016, Note_on_c, 0, 78, 0
1, 13016, Note_on_c, 0, 76, 64
1, 13024, Note_on_c, 0, 76, 0
1, 13024, Note_on_c, 0, 78, 64
1, 13032, Note_on_c, 0, 78, 0
1, 13032, Note_on_c, 0, 76, 64
1, 13040, Note_on_c, 0, 76, 0
1, 13040, Note_on_c, 0, 74, 64
1, 13048, Note_on_c, 0, 74, 0
1, 13048, Note_on_c, 0, 76, 64
1, 13049, Note_on_c, 1, 57, 0
1, 13053, Note_on_c, 1, 61, 0
1, 13056, Note_on_c, 0, 76, 0
1, 13056, Note_on_c, 0, 74, 64
1, 13056, Note_on_c, 1, 62, 64
1, 13101, Note_on_c, 1, 62, 0
1, 13104, Note_on_c, 1, 50, 64
1, 13145, Note_on_c, 0, 74, 0
1, 13149, Note_on_c, 1, 50, 0
1, 13152, Note_on_c, 0, 71, 64
1, 13167, Note_on_c, 0, 71, 0
1, 13168, Note_on_c, 0, 74, 64
1, 13183, Note_on_c, 0, 74, 0
1, 13184, Note_on_c, 0, 72, 64
1, 13199, Note_on_c, 0, 72, 0
1, 13200, Note_on_c, 0, 71, 64
1, 13215, Note_on_c, 0, 71, 0
1, 13216, Note_on_c, 0, 72, 64
1, 13231, Note_on_c, 0, 72, 0
1, 13232, Note_on_c, 0, 74, 64
1, 13247, Note_on_c, 0, 74, 0
1, 13248, Note_on_c, 0, 67, 64
1, 13248, Note_on_c, 1, 59, 64
1, 13248, Note_on_c, 1, 55, 64
1, 13293, Note_on_c, 0, 67, 0
1, 13293, Note_on_c, 1, 59, 0
1, 13293, Note_on_c, 1, 55, 0
1, 13296, Note_on_c, 0, 67, 64
1, 13296, Note_on_c, 1, 59, 64
1, 13296, Note_on_c, 1, 55, 64
1, 13341, Note_on_c, 0, 67, 0
1, 13341, Note_on_c, 1, 59, 0
1, 13341, Note_on_c, 1, 55, 0
1, 13344, Note_on_c, 0, 69, 64
1, 13344, Note_on_c, 1, 60, 64
1, 13344, Note_on_c, 1, 50, 64
1, 13359, Note_on_c, 0, 69, 0
1, 13360, Note_on_c, 0, 72, 64
1, 13375, Note_on_c, 0, 72, 0
1, 13376, Note_on_c, 0, 71, 64
1, 13389, Note_on_c, 1, 60, 0
1, 13389, Note_on_c, 1, 50, 0
1, 13391, Note_on_c, 0, 71, 0
1, 13392, Note_on_c, 0, 69, 64
1, 13392, Note_on_c, 1, 60, 64
1, 13392, Note_on_c, 1, 50, 64
1, 13407, Note_on_c, 0, 69, 0
1, 13408, Note_on_c, 0, 71, 64
1, 13423, Note_on_c, 0, 71, 0
1, 13424, Note_on_c, 0, 72, 64
1, 13437, Note_on_c, 1, 60, 0
1, 13437, Note_on_c, 1, 50, 0
1, 13439, Note_on_c, 0, 72, 0
1, 13440, Note_on_c, 0, 71, 64
1, 13440, Note_on_c, 1, 59, 64
1, 13440, Note_on_c, 1, 55, 64
1, 13455, Note_on_c, 0, 71, 0
1, 13456, Note_on_c, 0, 69, 64
1, 13471, Note_on_c, 0, 69, 0
1, 13472, Note_on_c, 0, 67, 64
1, 13485, Note_on_c, 1, 59, 0
1, 13485, Note_on_c, 1, 55, 0
1, 13487, Note_on_c, 0, 67, 0
1, 13488, Note_on_c, 0, 66, 64
1, 13503, Note_on_c, 0, 66, 0
1, 13504, Note_on_c, 0, 64, 64
1, 13519, Note_on_c, 0, 64, 0
1, 13520, Note_on_c, 0, 62, 64
1, 13535, Note_on_c, 0, 62, 0
1, 13536, Note_on_c, 1, 60, 64
1, 13552, Note_on_c, 0, 76, 64
1, 13556, Note_on_c, 1, 60, 0
1, 13567, Note_on_c, 0, 76, 0
1, 13568, Note_on_c, 0, 79, 64
1, 13583, Note_on_c, 0, 79, 0
1, 13584, Note_on_c, 1, 59, 64
1, 13600, Note_on_c, 0, 74, 64
1, 13604, Note_on_c, 1, 59, 0
1, 13615, Note_on_c, 0, 74, 0
1, 13616, Note_on_c, 0, 79, 64
1, 13631, Note_on_c, 0, 79, 0
1, 13632, Note_on_c, 1, 57, 64
1, 13648, Note_on_c, 0, 72, 64
1, 13652, Note_on_c, 1, 57, 0
1, 13663, Note_on_c, 0, 72, 0
1, 13664, Note_on_c, 0, 79, 64
1, 13679, Note_on_c, 0, 79, 0
1, 13680, Note_on_c, 1, 55, 64
1, 13696, Note_on_c, 0, 71, 64
1, 13700, Note_on_c, 1, 55, 0
1, 13711, Note_on_c, 0, 71, 0
1, 13712, Note_on_c, 0, 79, 64
1, 13727, Note_on_c, 0, 79, 0
1, 13728, Note_on_c, 1, 60, 64
1, 13744, Note_on_c, 0, 69, 64
1, 13748, Note_on_c, 1, 60, 0
1, 13759, Note_on_c, 0, 69, 0
1, 13760, Note_on_c, 0, 76, 64
1, 13775, Note_on_c, 0, 76, 0
1, 13776, Note_on_c, 1, 61, 64
1, 13792, Note_on_c, 0, 67, 64
1, 13796, Note_on_c, 1, 61, 0
1, 13807, Note_on_c, 0, 67, 0
1, 13808, Note_on_c, 0, 76, 64
1, 13823, Note_on_c, 0, 76, 0
1, 13824, Note_on_c, 0, 67, 64
1, 13824, Note_on_c, 1, 62, 64
1, 13869, Note_on_c, 0, 67, 0
1, 13869, Note_on_c, 1, 62, 0
1, 13872, Note_on_c, 0, 66, 64
1, 13872, Note_on_c, 1, 50, 64
1, 13917, Note_on_c, 0, 66, 0
1, 13917, Note_on_c, 1, 50, 0
1, 13920, Note_on_c, 0, 74, 64
1, 13920, Note_on_c, 1, 66, 64
1, 13920, Note_on_c, 1, 62, 64
1, 13935, Note_on_c, 0, 74, 0
1, 13936, Note_on_c, 0, 78, 64
1, 13951, Note_on_c, 0, 78, 0
1, 13952, Note_on_c, 0, 76, 64
1, 13965, Note_on_c, 1, 66, 0
1, 13965, Note_on_c, 1, 62, 0
1, 13967, Note_on_c, 0, 76, 0
1, 13968, Note_on_c, 0, 74, 64
1, 13968, Note_on_c, 1, 66, 64
1, 13968, Note_on_c, 1, 62, 64
1, 13983, Note_on_c, 0, 74, 0
1, 13984, Note_on_c, 0, 78, 64
1, 13999, Note_on_c, 0, 78, 0
1, 14000, Note_on_c, 0, 86, 64
1, 14013, Note_on_c, 1, 66, 0
1, 14013, Note_on_c, 1, 62, 0
1, 14015, Note_on_c, 0, 86, 0
1, 14016, Note_on_c, 0, 76, 64
1, 14016, Note_on_c, 1, 67, 64
1, 14016, Note_on_c, 1, 62, 64
1, 14031, Note_on_c, 0, 76, 0
1, 14032, Note_on_c, 0, 79, 64
1, 14047, Note_on_c, 0, 79, 0
1, 14048, Note_on_c, 0, 78, 64
1, 14061, Note_on_c, 1, 67, 0
1, 14061, Note_on_c, 1, 62, 0
1, 14063, Note_on_c, 0, 78, 0
1, 14064, Note_on_c, 0, 76, 64
1, 14064, Note_on_c, 1, 67, 64
1, 14064, Note_on_c, 1, 62, 64
1, 14079, Note_on_c, 0, 76, 0
1, 14080, Note_on_c, 0, 79, 64
1, 14095, Note_on_c, 0, 79, 0
1, 14096, Note_on_c, 0, 88, 64
1, 14109, Note_on_c, 1, 67, 0
1, 14109, Note_on_c, 1, 62, 0
1, 14111, Note_on_c, 0, 88, 0
1, 14112, Note_on_c, 0, 85, 64
1, 14112, Note_on_c, 1, 67, 64
1, 14112, Note_on_c, 1, 64, 64
1, 14112, Note_on_c, 1, 62, 64
1, 14127, Note_on_c, 0, 85, 0
1, 14128, Note_on_c, 0, 83, 64
1, 14143, Note_on_c, 0, 83, 0
1, 14144, Note_on_c, 0, 81, 64
1, 14157, Note_on_c, 1, 67, 0
1, 14157, Note_on_c, 1, 64, 0
1, 14157, Note_on_c, 1, 62, 0
1, 14159, Note_on_c, 0, 81, 0
1, 14160, Note_on_c, 0, 79, 64
1, 14160, Note_on_c, 1, 67, 64
1, 14160, Note_on_c, 1, 64, 64
1, 14160, Note_on_c, 1, 62, 64
1, 14175, Note_on_c, 0, 79, 0
1, 14176, Note_on_c, 0, 78, 64
1, 14191, Note_on_c, 0, 78, 0
1, 14192, Note_on_c, 0, 76, 64
1, 14205, Note_on_c, 1, 67, 0
1, 14205, Note_on_c, 1, 64, 0
1, 14205, Note_on_c, 1, 62, 0
1, 14207, Note_on_c, 0, 76, 0
1, 14208, Note_on_c, 0, 74, 64
1, 14208, Note_on_c, 1, 66, 64
1, 14208, Note_on_c, 1, 62, 64
1, 14223, Note_on_c, 0, 74, 0
1, 14224, Note_on_c, 0, 78, 64
1, 14239, Note_on_c, 0, 78, 0
1, 14240, Note_on_c, 0, 76, 64
1, 14253, Note_on_c, 1, 66, 0
1, 14253, Note_on_c, 1, 62, 0
1, 14255, Note_on_c, 0, 76, 0
1, 14256, Note_on_c, 0, 74, 64
1, 14256, Note_on_c, 1, 66, 64
1, 14256, Note_on_c, 1, 62, 64
1, 14271, Note_on_c, 0, 74, 0
1, 14272, Note_on_c, 0, 78, 64
1, 14287, Note_on_c, 0, 78, 0
1, 14288, Note_on_c, 0, 81, 64
1, 14301, Note_on_c, 1, 66, 0
1, 14301, Note_on_c, 1, 62, 0
1, 14303, Note_on_c, 0, 81, 0
1, 14304, Note_on_c, 0, 86, 64
1, 14304, Note_on_c, 1, 62, 64
1, 14304, Note_on_c, 1, 54, 64
1, 14319, Note_on_c, 0, 86, 0
1, 14320, Note_on_c, 0, 85, 64
1, 14335, Note_on_c, 0, 85, 0
1, 14336, Note_on_c, 0, 83, 64
1, 14349, Note_on_c, 1, 62, 0
1, 14349, Note_on_c, 1, 54, 0
1, 14351, Note_on_c, 0, 83, 0
1, 14352, Note_on_c, 0, 81, 64
1, 14352, Note_on_c, 1, 62, 64
1, 14352, Note_on_c, 1, 54, 64
1, 14367, Note_on_c, 0, 81, 0
1, 14368, Note_on_c, 0, 79, 64
1, 14383, Note_on_c, 0, 79, 0
1, 14384, Note_on_c, 0, 78, 64
1, 14397, Note_on_c, 1, 62, 0
1, 14397, Note_on_c, 1, 54, 0
1, 14399, Note_on_c, 0, 78, 0
1, 14400, Note_on_c, 0, 83, 64
1, 14400, Note_on_c, 1, 62, 64
1, 14400, Note_on_c, 1, 55, 64
1, 14415, Note_on_c, 0, 83, 0
1, 14416, Note_on_c, 0, 86, 64
1, 14431, Note_on_c, 0, 86, 0
1, 14432, Note_on_c, 0, 85, 64
1, 14445, Note_on_c, 1, 62, 0
1, 14445, Note_on_c, 1, 55, 0
1, 14447, Note_on_c, 0, 85, 0
1, 14448, Note_on_c, 0, 83, 64
1, 14448, Note_on_c, 1, 62, 64
1, 14448, Note_on_c, 1, 55, 64
1, 14463, Note_on_c, 0, 83, 0
1, 14464, Note_on_c, 0, 81, 64
1, 14479, Note_on_c, 0, 81, 0
1, 14480, Note_on_c, 0, 79, 64
1, 14493, Note_on_c, 1, 62, 0
1, 14493, Note_on_c, 1, 55, 0
1, 14495, Note_on_c, 0, 79, 0
1, 14496, Note_on_c, 0, 78, 64
1, 14496, Note_on_c, 1, 57, 64
1, 14496, Note_on_c, 1, 62, 64
1, 14541, Note_on_c, 0, 78, 0
1, 14541, Note_on_c, 1, 62, 0
1, 14544, Note_on_c, 0, 78, 64
1, 14544, Note_on_c, 1, 61, 64
1, 14552, Note_on_c, 0, 78, 0
1, 14552, Note_on_c, 0, 76, 64
1, 14560, Note_on_c, 0, 76, 0
1, 14560, Note_on_c, 0, 78, 64
1, 14568, Note_on_c, 0, 78, 0
1, 14568, Note_on_c, 0, 76, 64
1, 14576, Note_on_c, 0, 76, 0
1, 14576, Note_on_c, 0, 74, 64
1, 14584, Note_on_c, 0, 74, 0
1, 14584, Note_on_c, 0, 76, 64
1, 14585, Note_on_c, 1, 57, 0
1, 14589, Note_on_c, 1, 61, 0
1, 14592, Note_on_c, 0, 76, 0
1, 14592, Note_on_c, 0, 74, 64
1, 14592, Note_on_c, 1, 62, 64
1, 14637, Note_on_c, 1, 62, 0
1, 14640, Note_on_c, 1, 50, 64
1, 14681, Note_on_c, 0, 74, 0
1, 14685, Note_on_c, 1, 50, 0
1, 14688, Note_on_c, 0, 74, 64
1, 14703, Note_on_c, 0, 74, 0
1, 14704, Note_on_c, 0, 77, 64
1, 14719, Note_on_c, 0, 77, 0
1, 14720, Note_on_c, 0, 76, 64
1, 14735, Note_on_c, 0, 76, 0
1, 14736, Note_on_c, 0, 74, 64
1, 14751, Note_on_c, 0, 74, 0
1, 14752, Note_on_c, 0, 76, 64
1, 14767, Note_on_c, 0, 76, 0
1, 14768, Note_on_c, 0, 77, 64
1, 14783, Note_on_c, 0, 77, 0
1, 14784, Note_on_c, 1, 52, 64
1, 14799, Note_on_c, 1, 52, 0
1, 14800, Note_on_c, 1, 59, 64
1, 14815, Note_on_c, 1, 59, 0
1, 14816, Note_on_c, 1, 62, 64
1, 14831, Note_on_c, 1, 62, 0
1, 14832, Note_on_c, 0, 68, 64
1, 14847, Note_on_c, 0, 68, 0
1, 14848, Note_on_c, 0, 71, 64
1, 14863, Note_on_c, 0, 71, 0
1, 14864, Note_on_c, 0, 77, 64
1, 14879, Note_on_c, 0, 77, 0
1, 14880, Note_on_c, 1, 60, 64
1, 14896, Note_on_c, 0, 69, 64
1, 14900, Note_on_c, 1, 60, 0
1, 14911, Note_on_c, 0, 69, 0
1, 14912, Note_on_c, 0, 76, 64
1, 14927, Note_on_c, 0, 76, 0
1, 14928, Note_on_c, 1, 59, 64
1, 14944, Note_on_c, 0, 68, 64
1, 14948, Note_on_c, 1, 59, 0
1, 14959, Note_on_c, 0, 68, 0
1, 14960, Note_on_c, 0, 74, 64
1, 14975, Note_on_c, 0, 74, 0
1, 14976, Note_on_c, 1, 45, 64
1, 14991, Note_on_c, 1, 45, 0
1, 14992, Note_on_c, 1, 57, 64
1, 15007, Note_on_c, 1, 57, 0
1, 15008, Note_on_c, 1, 60, 64
1, 15023, Note_on_c, 1, 60, 0
1, 15024, Note_on_c, 0, 64, 64
1, 15039, Note_on_c, 0, 64, 0
1, 15040, Note_on_c, 0, 69, 64
1, 15055, Note_on_c, 0, 69, 0
1, 15056, Note_on_c, 0, 72, 64
1, 15071, Note_on_c, 0, 72, 0
1, 15072, Note_on_c, 1, 69, 64
1, 15088, Note_on_c, 0, 72, 64
1, 15092, Note_on_c, 1, 69, 0
1, 15103, Note_on_c, 0, 72, 0
1, 15104, Note_on_c, 0, 76, 64
1, 15119, Note_on_c, 0, 76, 0
1, 15120, Note_on_c, 1, 66, 64
1, 15136, Note_on_c, 0, 69, 64
1, 15140, Note_on_c, 1, 66, 0
1, 15151, Note_on_c, 0, 69, 0
1, 15152, Note_on_c, 0, 72, 64
1, 15167, Note_on_c, 0, 72, 0
1, 15168, Note_on_c, 1, 67, 64
1, 15184, Note_on_c, 0, 71, 64
1, 15188, Note_on_c, 1, 67, 0
1, 15199, Note_on_c, 0, 71, 0
1, 15200, Note_on_c, 0, 74, 64
1, 15215, Note_on_c, 0, 74, 0
1, 15216, Note_on_c, 1, 59, 64
1, 15232, Note_on_c, 0, 67, 64
1, 15236, Note_on_c, 1, 59, 0
1, 15247, Note_on_c, 0, 67, 0
1, 15248, Note_on_c, 0, 71, 64
1, 15263, Note_on_c, 0, 71, 0
1, 15264, Note_on_c, 1, 60, 64
1, 15280, Note_on_c, 0, 69, 64
1, 15284, Note_on_c, 1, 60, 0
1, 15295, Note_on_c, 0, 69, 0
1, 15296, Note_on_c, 0, 72, 64
1, 15311, Note_on_c, 0, 72, 0
1, 15312, Note_on_c, 1, 61, 64
1, 15328, Note_on_c, 0, 64, 64
1, 15332, Note_on_c, 1, 61, 0
1, 15343, Note_on_c, 0, 64, 0
1, 15344, Note_on_c, 0, 69, 64
1, 15359, Note_on_c, 0, 69, 0
1, 15360, Note_on_c, 0, 67, 64
1, 15360, Note_on_c, 1, 62, 64
1, 15405, Note_on_c, 0, 67, 0
1, 15405, Note_on_c, 1, 62, 0
1, 15408, Note_on_c, 0, 66, 64
1, 15408, Note_on_c, 1, 50, 64
1, 15453, Note_on_c, 0, 66, 0
1, 15453, Note_on_c, 1, 50, 0
1, 15456, Note_on_c, 1, 57, 64
1, 15471, Note_on_c, 1, 57, 0
1, 15472, Note_on_c, 1, 59, 64
1, 15487, Note_on_c, 1, 59, 0
1, 15488, Note_on_c, 1, 60, 64
1, 15503, Note_on_c, 1, 60, 0
1, 15504, Note_on_c, 1, 57, 64
1, 15519, Note_on_c, 1, 57, 0
1, 15520, Note_on_c, 1, 59, 64
1, 15535, Note_on_c, 1, 59, 0
1, 15536, Note_on_c, 1, 60, 64
1, 15551, Note_on_c, 1, 60, 0
1, 15552, Note_on_c, 0, 78, 64
1, 15552, Note_on_c, 1, 50, 64
1, 15567, Note_on_c, 0, 78, 0
1, 15568, Note_on_c, 0, 79, 64
1, 15583, Note_on_c, 0, 79, 0
1, 15584, Note_on_c, 0, 81, 64
1, 15597, Note_on_c, 1, 50, 0
1, 15599, Note_on_c, 0, 81, 0
1, 15600, Note_on_c, 0, 78, 64
1, 15600, Note_on_c, 1, 50, 64
1, 15615, Note_on_c, 0, 78, 0
1, 15616, Note_on_c, 0, 79, 64
1, 15631, Note_on_c, 0, 79, 0
1, 15632, Note_on_c, 0, 81, 64
1, 15645, Note_on_c, 1, 50, 0
1, 15647, Note_on_c, 0, 81, 0
1, 15648, Note_on_c, 0, 72, 64
1, 15648, Note_on_c, 1, 66, 64
1, 15663, Note_on_c, 1, 66, 0
1, 15664, Note_on_c, 1, 67, 64
1, 15679, Note_on_c, 1, 67, 0
1, 15680, Note_on_c, 1, 69, 64
1, 15693, Note_on_c, 0, 72, 0
1, 15695, Note_on_c, 1, 69, 0
1, 15696, Note_on_c, 0, 72, 64
1, 15696, Note_on_c, 1, 66, 64
1, 15711, Note_on_c, 1, 66, 0
1, 15712, Note_on_c, 1, 67, 64
1, 15727, Note_on_c, 1, 67, 0
1, 15728, Note_on_c, 1, 69, 64
1, 15741, Note_on_c, 0, 72, 0
1, 15743, Note_on_c, 1, 69, 0
1, 15744, Note_on_c, 0, 84, 64
1, 15744, Note_on_c, 1, 60, 64
1, 15759, Note_on_c, 0, 84, 0
1, 15760, Note_on_c, 0, 86, 64
1, 15775, Note_on_c, 0, 86, 0
1, 15776, Note_on_c, 0, 88, 64
1, 15791, Note_on_c, 0, 88, 0
1, 15792, Note_on_c, 0, 81, 64
1, 15807, Note_on_c, 0, 81, 0
1, 15808, Note_on_c, 0, 83, 64
1, 15823, Note_on_c, 0, 83, 0
1, 15824, Note_on_c, 0, 84, 64
1, 15839, Note_on_c, 0, 84, 0
1, 15840, Note_on_c, 0, 78, 64
1, 15855, Note_on_c, 0, 78, 0
1, 15856, Note_on_c, 0, 79, 64
1, 15871, Note_on_c, 0, 79, 0
1, 15872, Note_on_c, 0, 81, 64
1, 15887, Note_on_c, 0, 81, 0
1, 15888, Note_on_c, 0, 74, 64
1, 15903, Note_on_c, 0, 74, 0
1, 15904, Note_on_c, 0, 76, 64
1, 15919, Note_on_c, 0, 76, 0
1, 15920, Note_on_c, 0, 78, 64
1, 15921, Note_on_c, 1, 60, 0
1, 15935, Note_on_c, 0, 78, 0
1, 15936, Note_on_c, 0, 79, 64
1, 15936, Note_on_c, 1, 59, 64
1, 15970, Note_on_c, 0, 79, 0
1, 15972, Note_on_c, 0, 74, 64
1, 15981, Note_on_c, 1, 59, 0
1, 15984, Note_on_c, 0, 74, 0
1, 15984, Note_on_c, 0, 76, 64
1, 15984, Note_on_c, 1, 60, 64
1, 16018, Note_on_c, 0, 76, 0
1, 16020, Note_on_c, 0, 72, 64
1, 16029, Note_on_c, 1, 60, 0
1, 16032, Note_on_c, 0, 72, 0
1, 16032, Note_on_c, 0, 71, 64
1, 16032, Note_on_c, 1, 62, 64
1, 16077, Note_on_c, 0, 71, 0
1, 16077, Note_on_c, 1, 62, 0
1, 16080, Note_on_c, 0, 71, 64
1, 16080, Note_on_c, 1, 50, 64
1, 16088, Note_on_c, 0, 71, 0
1, 16088, Note_on_c, 0, 69, 64
1, 16096, Note_on_c, 0, 69, 0
1, 16096, Note_on_c, 0, 71, 64
1, 16104, Note_on_c, 0, 71, 0
1, 16104, Note_on_c, 0, 69, 64
1, 16112, Note_on_c, 0, 69, 0
1, 16112, Note_on_c, 0, 67, 64
1, 16120, Note_on_c, 0, 67, 0
1, 16120, Note_on_c, 0, 69, 64
1, 16125, Note_on_c, 1, 50, 0
1, 16128, Note_on_c, 0, 69, 0
1, 16128, Note_on_c, 0, 67, 64
1, 16128, Note_on_c, 1, 55, 64
1, 16173, Note_on_c, 1, 55, 0
1, 16176, Note_on_c, 1, 43, 64
1, 16217, Note_on_c, 0, 67, 0
1, 16221, Note_on_c, 1, 43, 0
1, 16224, Note_on_c, 0, 74, 64
1, 16239, Note_on_c, 0, 74, 0
1, 16240, Note_on_c, 0, 77, 64
1, 16255, Note_on_c, 0, 77, 0
1, 16256, Note_on_c, 0, 76, 64
1, 16271, Note_on_c, 0, 76, 0
1, 16272, Note_on_c, 0, 74, 64
1, 16287, Note_on_c, 0, 74, 0
1, 16288, Note_on_c, 0, 76, 64
1, 16303, Note_on_c, 0, 76, 0
1, 16304, Note_on_c, 0, 77, 64
1, 16319, Note_on_c, 0, 77, 0
1, 16320, Note_on_c, 1, 52, 64
1, 16335, Note_on_c, 1, 52, 0
1, 16336, Note_on_c, 1, 59, 64
1, 16351, Note_on_c, 1, 59, 0
1, 16352, Note_on_c, 1, 62, 64
1, 16367, Note_on_c, 1, 62, 0
1, 16368, Note_on_c, 0, 68, 64
1, 16383, Note_on_c, 0, 68, 0
1, 16384, Note_on_c, 0, 71, 64
1, 16399, Note_on_c, 0, 71, 0
1, 16400, Note_on_c, 0, 77, 64
1, 16415, Note_on_c, 0, 77, 0
1, 16416, Note_on_c, 1, 60, 64
1, 16432, Note_on_c, 0, 69, 64
1, 16436, Note_on_c, 1, 60, 0
1, 16447, Note_on_c, 0, 69, 0
1, 16448, Note_on_c, 0, 76, 64
1, 16463, Note_on_c, 0, 76, 0
1, 16464, Note_on_c, 1, 59, 64
1, 16480, Note_on_c, 0, 68, 64
1, 16484, Note_on_c, 1, 59, 0
1, 16495, Note_on_c, 0, 68, 0
1, 16496, Note_on_c, 0, 74, 64
1, 16511, Note_on_c, 0, 74, 0
1, 16512, Note_on_c, 1, 45, 64
1, 16527, Note_on_c, 1, 45, 0
1, 16528, Note_on_c, 1, 57, 64
1, 16543, Note_on_c, 1, 57, 0
1, 16544, Note_on_c, 1, 60, 64
1, 16559, Note_on_c, 1, 60, 0
1, 16560, Note_on_c, 0, 64, 64
1, 16575, Note_on_c, 0, 64, 0
1, 16576, Note_on_c, 0, 69, 64
1, 16591, Note_on_c, 0, 69, 0
1, 16592, Note_on_c, 0, 72, 64
1, 16607, Note_on_c, 0, 72, 0
1, 16608, Note_on_c, 1, 69, 64
1, 16624, Note_on_c, 0, 72, 64
1, 16628, Note_on_c, 1, 69, 0
1, 16639, Note_on_c, 0, 72, 0
1, 16640, Note_on_c, 0, 76, 64
1, 16655, Note_on_c, 0, 76, 0
1, 16656, Note_on_c, 1, 66, 64
1, 16672, Note_on_c, 0, 69, 64
1, 16676, Note_on_c, 1, 66, 0
1, 16687, Note_on_c, 0, 69, 0
1, 16688, Note_on_c, 0, 72, 64
1, 16703, Note_on_c, 0, 72, 0
1, 16704, Note_on_c, 1, 67, 64
1, 16720, Note_on_c, 0, 71, 64
1, 16724, Note_on_c, 1, 67, 0
1, 16735, Note_on_c, 0, 71, 0
1, 16736, Note_on_c, 0, 74, 64
1, 16751, Note_on_c, 0, 74, 0
1, 16752, Note_on_c, 1, 59, 64
1, 16768, Note_on_c, 0, 67, 64
1, 16772, Note_on_c, 1, 59, 0
1, 16783, Note_on_c, 0, 67, 0
1, 16784, Note_on_c, 0, 71, 64
1, 16799, Note_on_c, 0, 71, 0
1, 16800, Note_on_c, 1, 60, 64
1, 16816, Note_on_c, 0, 69, 64
1, 16820, Note_on_c, 1, 60, 0
1, 16831, Note_on_c, 0, 69, 0
1, 16832, Note_on_c, 0, 72, 64
1, 16847, Note_on_c, 0, 72, 0
1, 16848, Note_on_c, 1, 61, 64
1, 16864, Note_on_c, 0, 64, 64
1, 16868, Note_on_c, 1, 61, 0
1, 16879, Note_on_c, 0, 64, 0
1, 16880, Note_on_c, 0, 69, 64
1, 16895, Note_on_c, 0, 69, 0
1, 16896, Note_on_c, 0, 67, 64
1, 16896, Note_on_c, 1, 62, 64
1, 16941, Note_on_c, 0, 67, 0
1, 16941, Note_on_c, 1, 62, 0
1, 16944, Note_on_c, 0, 66, 64
1, 16944, Note_on_c, 1, 50, 64
1, 16989, Note_on_c, 0, 66, 0
1, 16989, Note_on_c, 1, 50, 0
1, 16992, Note_on_c, 1, 57, 64
1, 17007, Note_on_c, 1, 57, 0
1, 17008, Note_on_c, 1, 59, 64
1, 17023, Note_on_c, 1, 59, 0
1, 17024, Note_on_c, 1, 60, 64
1, 17039, Note_on_c, 1, 60, 0
1, 17040, Note_on_c, 1, 57, 64
1, 17055, Note_on_c, 1, 57, 0
1, 17056, Note_on_c, 1, 59, 64
1, 17071, Note_on_c, 1, 59, 0
1, 17072, Note_on_c, 1, 60, 64
1, 17087, Note_on_c, 1, 60, 0
1, 17088, Note_on_c, 0, 78, 64
1, 17088, Note_on_c, 1, 50, 64
1, 17103, Note_on_c, 0, 78, 0
1, 17104, Note_on_c, 0, 79, 64
1, 17119, Note_on_c, 0, 79, 0
1, 17120, Note_on_c, 0, 81, 64
1, 17133, Note_on_c, 1, 50, 0
1, 17135, Note_on_c, 0, 81, 0
1, 17136, Note_on_c, 0, 78, 64
1, 17136, Note_on_c, 1, 50, 64
1, 17151, Note_on_c, 0, 78, 0
1, 17152, Note_on_c, 0, 79, 64
1, 17167, Note_on_c, 0, 79, 0
1, 17168, Note_on_c, 0, 81, 64
1, 17181, Note_on_c, 1, 50, 0
1, 17183, Note_on_c, 0, 81, 0
1, 17184, Note_on_c, 0, 72, 64
1, 17184, Note_on_c, 1, 66, 64
1, 17199, Note_on_c, 1, 66, 0
1, 17200, Note_on_c, 1, 67, 64
1, 17215, Note_on_c, 1, 67, 0
1, 17216, Note_on_c, 1, 69, 64
1, 17229, Note_on_c, 0, 72, 0
1, 17231, Note_on_c, 1, 69, 0
1, 17232, Note_on_c, 0, 72, 64
1, 17232, Note_on_c, 1, 66, 64
1, 17247, Note_on_c, 1, 66, 0
1, 17248, Note_on_c, 1, 67, 64
1, 17263, Note_on_c, 1, 67, 0
1, 17264, Note_on_c, 1, 69, 64
1, 17277, Note_on_c, 0, 72, 0
1, 17279, Note_on_c, 1, 69, 0
1, 17280, Note_on_c, 0, 84, 64
1, 17280, Note_on_c, 1, 60, 64
1, 17295, Note_on_c, 0, 84, 0
1, 17296, Note_on_c, 0, 86, 64
1, 17311, Note_on_c, 0, 86, 0
1, 17312, Note_on_c, 0, 88, 64
1, 17327, Note_on_c, 0, 88, 0
1, 17328, Note_on_c, 0, 81, 64
1, 17343, Note_on_c, 0, 81, 0
1, 17344, Note_on_c, 0, 83, 64
1, 17359, Note_on_c, 0, 83, 0
1, 17360, Note_on_c, 0, 84, 64
1, 17375, Note_on_c, 0, 84, 0
1, 17376, Note_on_c, 0, 78, 64
1, 17391, Note_on_c, 0, 78, 0
1, 17392, Note_on_c, 0, 79, 64
1, 17407, Note_on_c, 0, 79, 0
1, 17408, Note_on_c, 0, 81, 64
1, 17423, Note_on_c, 0, 81, 0
1, 17424, Note_on_c, 0, 74, 64
1, 17439, Note_on_c, 0, 74, 0
1, 17440, Note_on_c, 0, 76, 64
1, 17455, Note_on_c, 0, 76, 0
1, 17456, Note_on_c, 0, 78, 64
1, 17457, Note_on_c, 1, 60, 0
1, 17471, Note_on_c, 0, 78, 0
1, 17472, Note_on_c, 0, 79, 64
1, 17472, Note_on_c, 1, 59, 64
1, 17506, Note_on_c, 0, 79, 0
1, 17508, Note_on_c, 0, 74, 64
1, 17517, Note_on_c, 1, 59, 0
1, 17520, Note_on_c, 0, 74, 0
1, 17520, Note_on_c, 0, 76, 64
1, 17520, Note_on_c, 1, 60, 64
1, 17554, Note_on_c, 0, 76, 0
1, 17556, Note_on_c, 0, 72, 64
1, 17565, Note_on_c, 1, 60, 0
1, 17568, Note_on_c, 0, 72, 0
1, 17568, Note_on_c, 0, 71, 64
1, 17568, Note_on_c, 1, 62, 64
1, 17613, Note_on_c, 0, 71, 0
1, 17613, Note_on_c, 1, 62, 0
1, 17616, Note_on_c, 0, 71, 64
1, 17616, Note_on_c, 1, 50, 64
1, 17624, Note_on_c, 0, 71, 0
1, 17624, Note_on_c, 0, 69, 64
1, 17632, Note_on_c, 0, 69, 0
1, 17632, Note_on_c, 0, 71, 64
1, 17640, Note_on_c, 0, 71, 0
1, 17640, Note_on_c, 0, 69, 64
1, 17648, Note_on_c, 0, 69, 0
1, 17648, Note_on_c, 0, 67, 64
1, 17656, Note_on_c, 0, 67, 0
1, 17656, Note_on_c, 0, 69, 64
1, 17661, Note_on_c, 1, 50, 0
1, 17664, Note_on_c, 0, 69, 0
1, 17664, Note_on_c, 0, 67, 64
1, 17664, Note_on_c, 1, 55, 64
1, 17709, Note_on_c, 1, 55, 0
1, 17712, Note_on_c, 1, 43, 64
1, 17753, Note_on_c, 0, 67, 0
1, 17757, Note_on_c, 1, 43, 0
1, 17760, Note_on_c, 0, 83, 64
1, 17794, Note_on_c, 0, 83, 0
1, 17796, Note_on_c, 0, 79, 64
1, 17808, Note_on_c, 0, 79, 0
1, 17808, Note_on_c, 0, 78, 64
1, 17808, Note_on_c, 1, 55, 64
1, 17808, Note_on_c, 1, 52, 64
1, 17842, Note_on_c, 0, 78, 0
1, 17844, Note_on_c, 0, 76, 64
1, 17853, Note_on_c, 1, 55, 0
1, 17853, Note_on_c, 1, 52, 0
1, 17856, Note_on_c, 0, 76, 0
1, 17856, Note_on_c, 0, 75, 64
1, 17856, Note_on_c, 1, 57, 64
1, 17856, Note_on_c, 1, 54, 64
1, 17890, Note_on_c, 0, 75, 0
1, 17892, Note_on_c, 0, 78, 64
1, 17901, Note_on_c, 1, 57, 0
1, 17901, Note_on_c, 1, 54, 0
1, 17904, Note_on_c, 0, 78, 0
1, 17904, Note_on_c, 0, 76, 64
1, 17904, Note_on_c, 1, 59, 64
1, 17904, Note_on_c, 1, 55, 64
1, 17938, Note_on_c, 0, 76, 0
1, 17940, Note_on_c, 0, 71, 64
1, 17949, Note_on_c, 1, 59, 0
1, 17949, Note_on_c, 1, 55, 0
1, 17952, Note_on_c, 0, 71, 0
1, 17952, Note_on_c, 0, 72, 64
1, 17952, Note_on_c, 1, 60, 64
1, 17952, Note_on_c, 1, 57, 64
1, 17986, Note_on_c, 0, 72, 0
1, 17988, Note_on_c, 0, 69, 64
1, 17997, Note_on_c, 1, 60, 0
1, 17997, Note_on_c, 1, 57, 0
1, 18000, Note_on_c, 0, 69, 0
1, 18000, Note_on_c, 0, 67, 64
1, 18000, Note_on_c, 1, 63, 64
1, 18000, Note_on_c, 1, 59, 64
1, 18034, Note_on_c, 0, 67, 0
1, 18036, Note_on_c, 0, 66, 64
1, 18045, Note_on_c, 1, 63, 0
1, 18045, Note_on_c, 1, 59, 0
1, 18048, Note_on_c, 0, 66, 0
1, 18048, Note_on_c, 0, 67, 64
1, 18048, Note_on_c, 1, 64, 64
1, 18082, Note_on_c, 0, 67, 0
1, 18084, Note_on_c, 0, 69, 64
1, 18093, Note_on_c, 1, 64, 0
1, 18096, Note_on_c, 0, 69, 0
1, 18096, Note_on_c, 0, 71, 64
1, 18096, Note_on_c, 1, 52, 64
1, 18130, Note_on_c, 0, 71, 0
1, 18132, Note_on_c, 0, 64, 64
1, 18141, Note_on_c, 1, 52, 0
1, 18144, Note_on_c, 0, 64, 0
1, 18144, Note_on_c, 0, 69, 64
1, 18144, Note_on_c, 1, 60, 64
1, 18178, Note_on_c, 0, 69, 0
1, 18180, Note_on_c, 0, 71, 64
1, 18189, Note_on_c, 1, 60, 0
1, 18192, Note_on_c, 0, 71, 0
1, 18192, Note_on_c, 0, 72, 64
1, 18192, Note_on_c, 1, 57, 64
1, 18226, Note_on_c, 0, 72, 0
1, 18228, Note_on_c, 0, 69, 64
1, 18237, Note_on_c, 1, 57, 0
1, 18240, Note_on_c, 0, 69, 0
1, 18240, Note_on_c, 0, 71, 64
1, 18240, Note_on_c, 1, 55, 64
1, 18274, Note_on_c, 0, 71, 0
1, 18276, Note_on_c, 0, 64, 64
1, 18285, Note_on_c, 1, 55, 0
1, 18288, Note_on_c, 0, 64, 0
1, 18288, Note_on_c, 0, 76, 64
1, 18288, Note_on_c, 1, 55, 64
1, 18322, Note_on_c, 0, 76, 0
1, 18324, Note_on_c, 0, 64, 64
1, 18333, Note_on_c, 1, 55, 0
1, 18336, Note_on_c, 0, 64, 0
1, 18336, Note_on_c, 0, 63, 64
1, 18336, Note_on_c, 1, 54, 64
1, 18370, Note_on_c, 0, 63, 0
1, 18372, Note_on_c, 0, 69, 64
1, 18381, Note_on_c, 1, 54, 0
1, 18384, Note_on_c, 0, 69, 0
1, 18384, Note_on_c, 0, 67, 64
1, 18384, Note_on_c, 1, 52, 64
1, 18418, Note_on_c, 0, 67, 0
1, 18420, Note_on_c, 0, 64, 64
1, 18429, Note_on_c, 1, 52, 0
1, 18432, Note_on_c, 0, 64, 0
1, 18432, Note_on_c, 0, 71, 64
1, 18432, Note_on_c, 1, 59, 64
1, 18477, Note_on_c, 0, 71, 0
1, 18477, Note_on_c, 1, 59, 0
1, 18480, Note_on_c, 1, 47, 64
1, 18525, Note_on_c, 1, 47, 0
1, 18528, Note_on_c, 0, 71, 64
1, 18528, Note_on_c, 1, 66, 64
1, 18528, Note_on_c, 1, 62, 64
1, 18528, Note_on_c, 1, 59, 64
1, 18562, Note_on_c, 0, 71, 0
1, 18564, Note_on_c, 0, 73, 64
1, 18573, Note_on_c, 1, 66, 0
1, 18573, Note_on_c, 1, 62, 0
1, 18573, Note_on_c, 1, 59, 0
1, 18576, Note_on_c, 0, 73, 0
1, 18576, Note_on_c, 0, 74, 64
1, 18576, Note_on_c, 1, 66, 64
1, 18576, Note_on_c, 1, 62, 64
1, 18576, Note_on_c, 1, 59, 64
1, 18610, Note_on_c, 0, 74, 0
1, 18612, Note_on_c, 0, 76, 64
1, 18621, Note_on_c, 1, 66, 0
1, 18621, Note_on_c, 1, 62, 0
1, 18621, Note_on_c, 1, 59, 0
1, 18624, Note_on_c, 0, 76, 0
1, 18624, Note_on_c, 0, 78, 64
1, 18624, Note_on_c, 1, 66, 64
1, 18624, Note_on_c, 1, 61, 64
1, 18624, Note_on_c, 1, 58, 64
1, 18658, Note_on_c, 0, 78, 0
1, 18660, Note_on_c, 0, 77, 64
1, 18669, Note_on_c, 1, 66, 0
1, 18669, Note_on_c, 1, 61, 0
1, 18669, Note_on_c, 1, 58, 0
1, 18672, Note_on_c, 0, 77, 0
1, 18672, Note_on_c, 0, 78, 64
1, 18672, Note_on_c, 1, 66, 64
1, 18672, Note_on_c, 1, 61, 64
1, 18672, Note_on_c, 1, 58, 64
1, 18706, Note_on_c, 0, 78, 0
1, 18708, Note_on_c, 0, 77, 64
1, 18717, Note_on_c, 1, 66, 0
1, 18717, Note_on_c, 1, 61, 0
1, 18717, Note_on_c, 1, 58, 0
1, 18720, Note_on_c, 0, 77, 0
1, 18720, Note_on_c, 0, 78, 64
1, 18720, Note_on_c, 1, 66, 64
1, 18720, Note_on_c, 1, 61, 64
1, 18720, Note_on_c, 1, 58, 64
1, 18754, Note_on_c, 0, 78, 0
1, 18756, Note_on_c, 0, 79, 64
1, 18765, Note_on_c, 1, 66, 0
1, 18765, Note_on_c, 1, 61, 0
1, 18765, Note_on_c, 1, 58, 0
1, 18768, Note_on_c, 0, 79, 0
1, 18768, Note_on_c, 0, 78, 64
1, 18768, Note_on_c, 1, 66, 64
1, 18768, Note_on_c, 1, 61, 64
1, 18768, Note_on_c, 1, 58, 64
1, 18802, Note_on_c, 0, 78, 0
1, 18804, Note_on_c, 0, 76, 64
1, 18813, Note_on_c, 1, 66, 0
1, 18813, Note_on_c, 1, 61, 0
1, 18813, Note_on_c, 1, 58, 0
1, 18816, Note_on_c, 0, 76, 0
1, 18816, Note_on_c, 0, 74, 64
1, 18816, Note_on_c, 1, 66, 64
1, 18816, Note_on_c, 1, 62, 64
1, 18816, Note_on_c, 1, 59, 64
1, 18850, Note_on_c, 0, 74, 0
1, 18852, Note_on_c, 0, 73, 64
1, 18861, Note_on_c, 1, 66, 0
1, 18861, Note_on_c, 1, 62, 0
1, 18861, Note_on_c, 1, 59, 0
1, 18864, Note_on_c, 0, 73, 0
1, 18864, Note_on_c, 0, 71, 64
1, 18864, Note_on_c, 1, 66, 64
1, 18864, Note_on_c, 1, 62, 64
1, 18864, Note_on_c, 1, 59, 64
1, 18898, Note_on_c, 0, 71, 0
1, 18900, Note_on_c, 0, 70, 64
1, 18909, Note_on_c, 1, 66, 0
1, 18909, Note_on_c, 1, 62, 0
1, 18909, Note_on_c, 1, 59, 0
1, 18912, Note_on_c, 0, 70, 0
1, 18912, Note_on_c, 0, 71, 64
1, 18912, Note_on_c, 1, 66, 64
1, 18912, Note_on_c, 1, 62, 64
1, 18912, Note_on_c, 1, 59, 64
1, 18946, Note_on_c, 0, 71, 0
1, 18948, Note_on_c, 0, 73, 64
1, 18957, Note_on_c, 1, 66, 0
1, 18957, Note_on_c, 1, 62, 0
1, 18957, Note_on_c, 1, 59, 0
1, 18960, Note_on_c, 0, 73, 0
1, 18960, Note_on_c, 0, 74, 64
1, 18960, Note_on_c, 1, 66, 64
1, 18960, Note_on_c, 1, 62, 64
1, 18960, Note_on_c, 1, 59, 64
1, 18994, Note_on_c, 0, 74, 0
1, 18996, Note_on_c, 0, 76, 64
1, 19005, Note_on_c, 1, 66, 0
1, 19005, Note_on_c, 1, 62, 0
1, 19005, Note_on_c, 1, 59, 0
1, 19008, Note_on_c, 0, 76, 0
1, 19008, Note_on_c, 0, 78, 64
1, 19008, Note_on_c, 1, 66, 64
1, 19008, Note_on_c, 1, 61, 64
1, 19008, Note_on_c, 1, 58, 64
1, 19042, Note_on_c, 0, 78, 0
1, 19044, Note_on_c, 0, 77, 64
1, 19053, Note_on_c, 1, 66, 0
1, 19053, Note_on_c, 1, 61, 0
1, 19053, Note_on_c, 1, 58, 0
1, 19056, Note_on_c, 0, 77, 0
1, 19056, Note_on_c, 0, 78, 64
1, 19056, Note_on_c, 1, 66, 64
1, 19056, Note_on_c, 1, 61, 64
1, 19056, Note_on_c, 1, 58, 64
1, 19090, Note_on_c, 0, 78, 0
1, 19092, Note_on_c, 0, 77, 64
1, 19101, Note_on_c, 1, 66, 0
1, 19101, Note_on_c, 1, 61, 0
1, 19101, Note_on_c, 1, 58, 0
1, 19104, Note_on_c, 0, 77, 0
1, 19104, Note_on_c, 0, 78, 64
1, 19104, Note_on_c, 1, 66, 64
1, 19104, Note_on_c, 1, 61, 64
1, 19104, Note_on_c, 1, 58, 64
1, 19138, Note_on_c, 0, 78, 0
1, 19140, Note_on_c, 0, 79, 64
1, 19149, Note_on_c, 1, 66, 0
1, 19149, Note_on_c, 1, 61, 0
1, 19149, Note_on_c, 1, 58, 0
1, 19152, Note_on_c, 0, 79, 0
1, 19152, Note_on_c, 0, 78, 64
1, 19152, Note_on_c, 1, 66, 64
1, 19152, Note_on_c, 1, 61, 64
1, 19152, Note_on_c, 1, 58, 64
1, 19186, Note_on_c, 0, 78, 0
1, 19188, Note_on_c, 0, 76, 64
1, 19197, Note_on_c, 1, 66, 0
1, 19197, Note_on_c, 1, 61, 0
1, 19197, Note_on_c, 1, 58, 0
1, 19200, Note_on_c, 0, 76, 0
1, 19200, Note_on_c, 0, 74, 64
1, 19200, Note_on_c, 1, 66, 64
1, 19200, Note_on_c, 1, 62, 64
1, 19200, Note_on_c, 1, 59, 64
1, 19234, Note_on_c, 0, 74, 0
1, 19236, Note_on_c, 0, 78, 64
1, 19245, Note_on_c, 1, 66, 0
1, 19245, Note_on_c, 1, 62, 0
1, 19245, Note_on_c, 1, 59, 0
1, 19248, Note_on_c, 0, 78, 0
1, 19248, Note_on_c, 0, 71, 64
1, 19248, Note_on_c, 1, 50, 64
1, 19282, Note_on_c, 0, 71, 0
1, 19284, Note_on_c, 0, 74, 64
1, 19293, Note_on_c, 1, 50, 0
1, 19296, Note_on_c, 0, 74, 0
1, 19296, Note_on_c, 0, 73, 64
1, 19296, Note_on_c, 1, 52, 64
1, 19330, Note_on_c, 0, 73, 0
1, 19332, Note_on_c, 0, 76, 64
1, 19341, Note_on_c, 1, 52, 0
1, 19344, Note_on_c, 0, 76, 0
1, 19344, Note_on_c, 0, 70, 64
1, 19344, Note_on_c, 1, 54, 64
1, 19378, Note_on_c, 0, 70, 0
1, 19380, Note_on_c, 0, 73, 64
1, 19389, Note_on_c, 1, 54, 0
1, 19392, Note_on_c, 0, 73, 0
1, 19392, Note_on_c, 0, 71, 64
1, 19392, Note_on_c, 1, 55, 64
1, 19426, Note_on_c, 0, 71, 0
1, 19428, Note_on_c, 0, 82, 64
1, 19437, Note_on_c, 1, 55, 0
1, 19440, Note_on_c, 0, 82, 0
1, 19440, Note_on_c, 0, 83, 64
1, 19440, Note_on_c, 1, 50, 64
1, 19474, Note_on_c, 0, 83, 0
1, 19476, Note_on_c, 0, 74, 64
1, 19485, Note_on_c, 1, 50, 0
1, 19488, Note_on_c, 0, 74, 0
1, 19488, Note_on_c, 0, 73, 64
1, 19488, Note_on_c, 1, 52, 64
1, 19522, Note_on_c, 0, 73, 0
1, 19524, Note_on_c, 0, 76, 64
1, 19533, Note_on_c, 1, 52, 0
1, 19536, Note_on_c, 0, 76, 0
1, 19536, Note_on_c, 0, 70, 64
1, 19536, Note_on_c, 1, 54, 64
1, 19570, Note_on_c, 0, 70, 0
1, 19572, Note_on_c, 0, 73, 64
1, 19581, Note_on_c, 1, 54, 0
1, 19584, Note_on_c, 0, 73, 0
1, 19584, Note_on_c, 0, 71, 64
1, 19584, Note_on_c, 1, 59, 64
1, 19629, Note_on_c, 0, 71, 0
1, 19629, Note_on_c, 1, 59, 0
1, 19632, Note_on_c, 1, 47, 64
1, 19677, Note_on_c, 1, 47, 0
1, 19680, Note_on_c, 0, 83, 64
1, 19714, Note_on_c, 0, 83, 0
1, 19716, Note_on_c, 0, 79, 64
1, 19728, Note_on_c, 0, 79, 0
1, 19728, Note_on_c, 0, 78, 64
1, 19728, Note_on_c, 1, 55, 64
1, 19728, Note_on_c, 1, 52, 64
1, 19762, Note_on_c, 0, 78, 0
1, 19764, Note_on_c, 0, 76, 64
1, 19773, Note_on_c, 1, 55, 0
1, 19773, Note_on_c, 1, 52, 0
1, 19776, Note_on_c, 0, 76, 0
1, 19776, Note_on_c, 0, 75, 64
1, 19776, Note_on_c, 1, 57, 64
1, 19776, Note_on_c, 1, 54, 64
1, 19810, Note_on_c, 0, 75, 0
1, 19812, Note_on_c, 0, 78, 64
1, 19821, Note_on_c, 1, 57, 0
1, 19821, Note_on_c, 1, 54, 0
1, 19824, Note_on_c, 0, 78, 0
1, 19824, Note_on_c, 0, 76, 64
1, 19824, Note_on_c, 1, 59, 64
1, 19824, Note_on_c, 1, 55, 64
1, 19858, Note_on_c, 0, 76, 0
1, 19860, Note_on_c, 0, 71, 64
1, 19869, Note_on_c, 1, 59, 0
1, 19869, Note_on_c, 1, 55, 0
1, 19872, Note_on_c, 0, 71, 0
1, 19872, Note_on_c, 0, 72, 64
1, 19872, Note_on_c, 1, 60, 64
1, 19872, Note_on_c, 1, 57, 64
1, 19906, Note_on_c, 0, 72, 0
1, 19908, Note_on_c, 0, 69, 64
1, 19917, Note_on_c, 1, 60, 0
1, 19917, Note_on_c, 1, 57, 0
1, 19920, Note_on_c, 0, 69, 0
1, 19920, Note_on_c, 0, 67, 64
1, 19920, Note_on_c, 1, 63, 64
1, 19920, Note_on_c, 1, 59, 64
1, 19954, Note_on_c, 0, 67, 0
1, 19956, Note_on_c, 0, 66, 64
1, 19965, Note_on_c, 1, 63, 0
1, 19965, Note_on_c, 1, 59, 0
1, 19968, Note_on_c, 0, 66, 0
1, 19968, Note_on_c, 0, 67, 64
1, 19968, Note_on_c, 1, 64, 64
1, 20002, Note_on_c, 0, 67, 0
1, 20004, Note_on_c, 0, 69, 64
1, 20013, Note_on_c, 1, 64, 0
1, 20016, Note_on_c, 0, 69, 0
1, 20016, Note_on_c, 0, 71, 64
1, 20016, Note_on_c, 1, 52, 64
1, 20050, Note_on_c, 0, 71, 0
1, 20052, Note_on_c, 0, 64, 64
1, 20061, Note_on_c, 1, 52, 0
1, 20064, Note_on_c, 0, 64, 0
1, 20064, Note_on_c, 0, 69, 64
1, 20064, Note_on_c, 1, 60, 64
1, 20098, Note_on_c, 0, 69, 0
1, 20100, Note_on_c, 0, 71, 64
1, 20109, Note_on_c, 1, 60, 0
1, 20112, Note_on_c, 0, 71, 0
1, 20112, Note_on_c, 0, 72, 64
1, 20112, Note_on_c, 1, 57, 64
1, 20146, Note_on_c, 0, 72, 0
1, 20148, Note_on_c, 0, 69, 64
1, 20157, Note_on_c, 1, 57, 0
1, 20160, Note_on_c, 0, 69, 0
1, 20160, Note_on_c, 0, 71, 64
1, 20160, Note_on_c, 1, 55, 64
1, 20194, Note_on_c, 0, 71, 0
1, 20196, Note_on_c, 0, 64, 64
1, 20205, Note_on_c, 1, 55, 0
1, 20208, Note_on_c, 0, 64, 0
1, 20208, Note_on_c, 0, 76, 64
1, 20208, Note_on_c, 1, 55, 64
1, 20242, Note_on_c, 0, 76, 0
1, 20244, Note_on_c, 0, 64, 64
1, 20253, Note_on_c, 1, 55, 0
1, 20256, Note_on_c, 0, 64, 0
1, 20256, Note_on_c, 0, 63, 64
1, 20256, Note_on_c, 1, 54, 64
1, 20290, Note_on_c, 0, 63, 0
1, 20292, Note_on_c, 0, 69, 64
1, 20301, Note_on_c, 1, 54, 0
1, 20304, Note_on_c, 0, 69, 0
1, 20304, Note_on_c, 0, 67, 64
1, 20304, Note_on_c, 1, 52, 64
1, 20338, Note_on_c, 0, 67, 0
1, 20340, Note_on_c, 0, 64, 64
1, 20349, Note_on_c, 1, 52, 0
1, 20352, Note_on_c, 0, 64, 0
1, 20352, Note_on_c, 0, 71, 64
1, 20352, Note_on_c, 1, 59, 64
1, 20397, Note_on_c, 0, 71, 0
1, 20397, Note_on_c, 1, 59, 0
1, 20400, Note_on_c, 1, 47, 64
1, 20445, Note_on_c, 1, 47, 0
1, 20448, Note_on_c, 0, 71, 64
1, 20448, Note_on_c, 1, 66, 64
1, 20448, Note_on_c, 1, 62, 64
1, 20448, Note_on_c, 1, 59, 64
1, 20482, Note_on_c, 0, 71, 0
1, 20484, Note_on_c, 0, 73, 64
1, 20493, Note_on_c, 1, 66, 0
1, 20493, Note_on_c, 1, 62, 0
1, 20493, Note_on_c, 1, 59, 0
1, 20496, Note_on_c, 0, 73, 0
1, 20496, Note_on_c, 0, 74, 64
1, 20496, Note_on_c, 1, 66, 64
1, 20496, Note_on_c, 1, 62, 64
1, 20496, Note_on_c, 1, 59, 64
1, 20530, Note_on_c, 0, 74, 0
1, 20532, Note_on_c, 0, 76, 64
1, 20541, Note_on_c, 1, 66, 0
1, 20541, Note_on_c, 1, 62, 0
1, 20541, Note_on_c, 1, 59, 0
1, 20544, Note_on_c, 0, 76, 0
1, 20544, Note_on_c, 0, 78, 64
1, 20544, Note_on_c, 1, 66, 64
1, 20544, Note_on_c, 1, 61, 64
1, 20544, Note_on_c, 1, 58, 64
1, 20578, Note_on_c, 0, 78, 0
1, 20580, Note_on_c, 0, 77, 64
1, 20589, Note_on_c, 1, 66, 0
1, 20589, Note_on_c, 1, 61, 0
1, 20589, Note_on_c, 1, 58, 0
1, 20592, Note_on_c, 0, 77, 0
1, 20592, Note_on_c, 0, 78, 64
1, 20592, Note_on_c, 1, 66, 64
1, 20592, Note_on_c, 1, 61, 64
1, 20592, Note_on_c, 1, 58, 64
1, 20626, Note_on_c, 0, 78, 0
1, 20628, Note_on_c, 0, 77, 64
1, 20637, Note_on_c, 1, 66, 0
1, 20637, Note_on_c, 1, 61, 0
1, 20637, Note_on_c, 1, 58, 0
1, 20640, Note_on_c, 0, 77, 0
1, 20640, Note_on_c, 0, 78, 64
1, 20640, Note_on_c, 1, 66, 64
1, 20640, Note_on_c, 1, 61, 64
1, 20640, Note_on_c, 1, 58, 64
1, 20674, Note_on_c, 0, 78, 0
1, 20676, Note_on_c, 0, 79, 64
1, 20685, Note_on_c, 1, 66, 0
1, 20685, Note_on_c, 1, 61, 0
1, 20685, Note_on_c, 1, 58, 0
1, 20688, Note_on_c, 0, 79, 0
1, 20688, Note_on_c, 0, 78, 64
1, 20688, Note_on_c, 1, 66, 64
1, 20688, Note_on_c, 1, 61, 64
1, 20688, Note_on_c, 1, 58, 64
1, 20722, Note_on_c, 0, 78, 0
1, 20724, Note_on_c, 0, 76, 64
1, 20733, Note_on_c, 1, 66, 0
1, 20733, Note_on_c, 1, 61, 0
1, 20733, Note_on_c, 1, 58, 0
1, 20736, Note_on_c, 0, 76, 0
1, 20736, Note_on_c, 0, 74, 64
1, 20736, Note_on_c, 1, 66, 64
1, 20736, Note_on_c, 1, 62, 64
1, 20736, Note_on_c, 1, 59, 64
1, 20770, Note_on_c, 0, 74, 0
1, 20772, Note_on_c, 0, 73, 64
1, 20781, Note_on_c, 1, 66, 0
1, 20781, Note_on_c, 1, 62, 0
1, 20781, Note_on_c, 1, 59, 0
1, 20784, Note_on_c, 0, 73, 0
1, 20784, Note_on_c, 0, 71, 64
1, 20784, Note_on_c, 1, 66, 64
1, 20784, Note_on_c, 1, 62, 64
1, 20784, Note_on_c, 1, 59, 64
1, 20818, Note_on_c, 0, 71, 0
1, 20820, Note_on_c, 0, 70, 64
1, 20829, Note_on_c, 1, 66, 0
1, 20829, Note_on_c, 1, 62, 0
1, 20829, Note_on_c, 1, 59, 0
1, 20832, Note_on_c, 0, 70, 0
1, 20832, Note_on_c, 0, 71, 64
1, 20832, Note_on_c, 1, 66, 64
1, 20832, Note_on_c, 1, 62, 64
1, 20832, Note_on_c, 1, 59, 64
1, 20866, Note_on_c, 0, 71, 0
1, 20868, Note_on_c, 0, 73, 64
1, 20877, Note_on_c, 1, 66, 0
1, 20877, Note_on_c, 1, 62, 0
1, 20877, Note_on_c, 1, 59, 0
1, 20880, Note_on_c, 0, 73, 0
1, 20880, Note_on_c, 0, 74, 64
1, 20880, Note_on_c, 1, 66, 64
1, 20880, Note_on_c, 1, 62, 64
1, 20880, Note_on_c, 1, 59, 64
1, 20914, Note_on_c, 0, 74, 0
1, 20916, Note_on_c, 0, 76, 64
1, 20925, Note_on_c, 1, 66, 0
1, 20925, Note_on_c, 1, 62, 0
1, 20925, Note_on_c, 1, 59, 0
1, 20928, Note_on_c, 0, 76, 0
1, 20928, Note_on_c, 0, 78, 64
1, 20928, Note_on_c, 1, 66, 64
1, 20928, Note_on_c, 1, 61, 64
1, 20928, Note_on_c, 1, 58, 64
1, 20962, Note_on_c, 0, 78, 0
1, 20964, Note_on_c, 0, 77, 64
1, 20973, Note_on_c, 1, 66, 0
1, 20973, Note_on_c, 1, 61, 0
1, 20973, Note_on_c, 1, 58, 0
1, 20976, Note_on_c, 0, 77, 0
1, 20976, Note_on_c, 0, 78, 64
1, 20976, Note_on_c, 1, 66, 64
1, 20976, Note_on_c, 1, 61, 64
1, 20976, Note_on_c, 1, 58, 64
1, 21010, Note_on_c, 0, 78, 0
1, 21012, Note_on_c, 0, 77, 64
1, 21021, Note_on_c, 1, 66, 0
1, 21021, Note_on_c, 1, 61, 0
1, 21021, Note_on_c, 1, 58, 0
1, 21024, Note_on_c, 0, 77, 0
1, 21024, Note_on_c, 0, 78, 64
1, 21024, Note_on_c, 1, 66, 64
1, 21024, Note_on_c, 1, 61, 64
1, 21024, Note_on_c, 1, 58, 64
1, 21058, Note_on_c, 0, 78, 0
1, 21060, Note_on_c, 0, 79, 64
1, 21069, Note_on_c, 1, 66, 0
1, 21069, Note_on_c, 1, 61, 0
1, 21069, Note_on_c, 1, 58, 0
1, 21072, Note_on_c, 0, 79, 0
1, 21072, Note_on_c, 0, 78, 64
1, 21072, Note_on_c, 1, 66, 64
1, 21072, Note_on_c, 1, 61, 64
1, 21072, Note_on_c, 1, 58, 64
1, 21106, Note_on_c, 0, 78, 0
1, 21108, Note_on_c, 0, 76, 64
1, 21117, Note_on_c, 1, 66, 0
1, 21117, Note_on_c, 1, 61, 0
1, 21117, Note_on_c, 1, 58, 0
1, 21120, Note_on_c, 0, 76, 0
1, 21120, Note_on_c, 0, 74, 64
1, 21120, Note_on_c, 1, 66, 64
1, 21120, Note_on_c, 1, 62, 64
1, 21120, Note_on_c, 1, 59, 64
1, 21154, Note_on_c, 0, 74, 0
1, 21156, Note_on_c, 0, 78, 64
1, 21165, Note_on_c, 1, 66, 0
1, 21165, Note_on_c, 1, 62, 0
1, 21165, Note_on_c, 1, 59, 0
1, 21168, Note_on_c, 0, 78, 0
1, 21168, Note_on_c, 0, 71, 64
1, 21168, Note_on_c, 1, 50, 64
1, 21202, Note_on_c, 0, 71, 0
1, 21204, Note_on_c, 0, 74, 64
1, 21213, Note_on_c, 1, 50, 0
1, 21216, Note_on_c, 0, 74, 0
1, 21216, Note_on_c, 0, 73, 64
1, 21216, Note_on_c, 1, 52, 64
1, 21250, Note_on_c, 0, 73, 0
1, 21252, Note_on_c, 0, 76, 64
1, 21261, Note_on_c, 1, 52, 0
1, 21264, Note_on_c, 0, 76, 0
1, 21264, Note_on_c, 0, 70, 64
1, 21264, Note_on_c, 1, 54, 64
1, 21298, Note_on_c, 0, 70, 0
1, 21300, Note_on_c, 0, 73, 64
1, 21309, Note_on_c, 1, 54, 0
1, 21312, Note_on_c, 0, 73, 0
1, 21312, Note_on_c, 0, 71, 64
1, 21312, Note_on_c, 1, 55, 64
1, 21346, Note_on_c, 0, 71, 0
1, 21348, Note_on_c, 0, 82, 64
1, 21357, Note_on_c, 1, 55, 0
1, 21360, Note_on_c, 0, 82, 0
1, 21360, Note_on_c, 0, 83, 64
1, 21360, Note_on_c, 1, 50, 64
1, 21394, Note_on_c, 0, 83, 0
1, 21396, Note_on_c, 0, 74, 64
1, 21405, Note_on_c, 1, 50, 0
1, 21408, Note_on_c, 0, 74, 0
1, 21408, Note_on_c, 0, 73, 64
1, 21408, Note_on_c, 1, 52, 64
1, 21442, Note_on_c, 0, 73, 0
1, 21444, Note_on_c, 0, 76, 64
1, 21453, Note_on_c, 1, 52, 0
1, 21456, Note_on_c, 0, 76, 0
1, 21456, Note_on_c, 0, 70, 64
1, 21456, Note_on_c, 1, 54, 64
1, 21490, Note_on_c, 0, 70, 0
1, 21492, Note_on_c, 0, 73, 64
1, 21501, Note_on_c, 1, 54, 0
1, 21504, Note_on_c, 0, 73, 0
1, 21504, Note_on_c, 0, 71, 64
1, 21504, Note_on_c, 1, 59, 64
1, 21549, Note_on_c, 0, 71, 0
1, 21549, Note_on_c, 1, 59, 0
1, 21552, Note_on_c, 1, 47, 64
1, 21597, Note_on_c, 1, 47, 0
1, 21600, Note_on_c, 0, 83, 64
1, 21634, Note_on_c, 0, 83, 0
1, 21636, Note_on_c, 0, 79, 64
1, 21648, Note_on_c, 0, 79, 0
1, 21648, Note_on_c, 0, 78, 64
1, 21648, Note_on_c, 1, 67, 64
1, 21648, Note_on_c, 1, 59, 64
1, 21682, Note_on_c, 0, 78, 0
1, 21684, Note_on_c, 0, 76, 64
1, 21693, Note_on_c, 1, 67, 0
1, 21696, Note_on_c, 0, 76, 0
1, 21696, Note_on_c, 0, 75, 64
1, 21696, Note_on_c, 1, 66, 64
1, 21730, Note_on_c, 0, 75, 0
1, 21732, Note_on_c, 0, 71, 64
1, 21741, Note_on_c, 1, 66, 0
1, 21744, Note_on_c, 0, 71, 0
1, 21744, Note_on_c, 0, 76, 64
1, 21744, Note_on_c, 1, 67, 64
1, 21778, Note_on_c, 0, 76, 0
1, 21780, Note_on_c, 0, 71, 64
1, 21789, Note_on_c, 1, 67, 0
1, 21792, Note_on_c, 0, 71, 0
1, 21792, Note_on_c, 0, 81, 64
1, 21792, Note_on_c, 1, 63, 64
1, 21826, Note_on_c, 0, 81, 0
1, 21828, Note_on_c, 0, 71, 64
1, 21837, Note_on_c, 1, 63, 0
1, 21840, Note_on_c, 0, 71, 0
1, 21840, Note_on_c, 0, 79, 64
1, 21840, Note_on_c, 1, 64, 64
1, 21874, Note_on_c, 0, 79, 0
1, 21876, Note_on_c, 0, 71, 64
1, 21885, Note_on_c, 1, 64, 0
1, 21888, Note_on_c, 0, 71, 0
1, 21888, Note_on_c, 0, 78, 64
1, 21888, Note_on_c, 1, 63, 64
1, 21922, Note_on_c, 0, 78, 0
1, 21924, Note_on_c, 0, 71, 64
1, 21936, Note_on_c, 0, 71, 0
1, 21936, Note_on_c, 0, 75, 64
1, 21970, Note_on_c, 0, 75, 0
1, 21972, Note_on_c, 0, 78, 64
1, 21977, Note_on_c, 1, 63, 0
1, 21977, Note_on_c, 1, 59, 0
1, 21984, Note_on_c, 0, 78, 0
1, 21984, Note_on_c, 0, 83, 64
1, 22018, Note_on_c, 0, 83, 0
1, 22020, Note_on_c, 0, 79, 64
1, 22032, Note_on_c, 0, 79, 0
1, 22032, Note_on_c, 0, 78, 64
1, 22032, Note_on_c, 1, 67, 64
1, 22032, Note_on_c, 1, 59, 64
1, 22066, Note_on_c, 0, 78, 0
1, 22068, Note_on_c, 0, 76, 64
1, 22077, Note_on_c, 1, 67, 0
1, 22080, Note_on_c, 0, 76, 0
1, 22080, Note_on_c, 0, 75, 64
1, 22080, Note_on_c, 1, 66, 64
1, 22114, Note_on_c, 0, 75, 0
1, 22116, Note_on_c, 0, 71, 64
1, 22125, Note_on_c, 1, 66, 0
1, 22128, Note_on_c, 0, 71, 0
1, 22128, Note_on_c, 0, 76, 64
1, 22128, Note_on_c, 1, 67, 64
1, 22162, Note_on_c, 0, 76, 0
1, 22164, Note_on_c, 0, 71, 64
1, 22173, Note_on_c, 1, 67, 0
1, 22176, Note_on_c, 0, 71, 0
1, 22176, Note_on_c, 0, 69, 64
1, 22176, Note_on_c, 1, 63, 64
1, 22210, Note_on_c, 0, 69, 0
1, 22212, Note_on_c, 0, 71, 64
1, 22221, Note_on_c, 1, 63, 0
1, 22224, Note_on_c, 0, 71, 0
1, 22224, Note_on_c, 0, 67, 64
1, 22224, Note_on_c, 1, 64, 64
1, 22258, Note_on_c, 0, 67, 0
1, 22260, Note_on_c, 0, 69, 64
1, 22269, Note_on_c, 1, 64, 0
1, 22272, Note_on_c, 0, 69, 0
1, 22272, Note_on_c, 0, 66, 64
1, 22272, Note_on_c, 1, 63, 64
1, 22317, Note_on_c, 0, 66, 0
1, 22317, Note_on_c, 1, 63, 0
1, 22317, Note_on_c, 1, 59, 0
1, 22368, Note_on_c, 0, 76, 64
1, 22402, Note_on_c, 0, 76, 0
1, 22404, Note_on_c, 0, 78, 64
1, 22416, Note_on_c, 0, 78, 0
1, 22416, Note_on_c, 0, 80, 64
1, 22450, Note_on_c, 0, 80, 0
1, 22452, Note_on_c, 0, 81, 64
1, 22464, Note_on_c, 0, 81, 0
1, 22464, Note_on_c, 0, 83, 64
1, 22464, Note_on_c, 1, 62, 64
1, 22464, Note_on_c, 1, 59, 64
1, 22464, Note_on_c, 1, 56, 64
1, 22464, Note_on_c, 1, 52, 64
1, 22498, Note_on_c, 0, 83, 0
1, 22500, Note_on_c, 0, 82, 64
1, 22509, Note_on_c, 1, 62, 0
1, 22509, Note_on_c, 1, 59, 0
1, 22509, Note_on_c, 1, 56, 0
1, 22509, Note_on_c, 1, 52, 0
1, 22512, Note_on_c, 0, 82, 0
1, 22512, Note_on_c, 0, 83, 64
1, 22512, Note_on_c, 1, 62, 64
1, 22512, Note_on_c, 1, 59, 64
1, 22512, Note_on_c, 1, 56, 64
1, 22512, Note_on_c, 1, 52, 64
1, 22546, Note_on_c, 0, 83, 0
1, 22548, Note_on_c, 0, 82, 64
1, 22557, Note_on_c, 1, 62, 0
1, 22557, Note_on_c, 1, 59, 0
1, 22557, Note_on_c, 1, 56, 0
1, 22557, Note_on_c, 1, 52, 0
1, 22560, Note_on_c, 0, 82, 0
1, 22560, Note_on_c, 0, 83, 64
1, 22560, Note_on_c, 1, 62, 64
1, 22560, Note_on_c, 1, 59, 64
1, 22560, Note_on_c, 1, 56, 64
1, 22560, Note_on_c, 1, 52, 64
1, 22594, Note_on_c, 0, 83, 0
1, 22596, Note_on_c, 0, 86, 64
1, 22605, Note_on_c, 1, 62, 0
1, 22605, Note_on_c, 1, 59, 0
1, 22605, Note_on_c, 1, 56, 0
1, 22605, Note_on_c, 1, 52, 0
1, 22608, Note_on_c, 0, 86, 0
1, 22608, Note_on_c, 0, 83, 64
1, 22608, Note_on_c, 1, 62, 64
1, 22608, Note_on_c, 1, 59, 64
1, 22608, Note_on_c, 1, 56, 64
1, 22608, Note_on_c, 1, 52, 64
1, 22642, Note_on_c, 0, 83, 0
1, 22644, Note_on_c, 0, 80, 64
1, 22653, Note_on_c, 1, 62, 0
1, 22653, Note_on_c, 1, 59, 0
1, 22653, Note_on_c, 1, 56, 0
1, 22653, Note_on_c, 1, 52, 0
1, 22656, Note_on_c, 0, 80, 0
1, 22656, Note_on_c, 0, 81, 64
1, 22656, Note_on_c, 1, 60, 64
1, 22656, Note_on_c, 1, 57, 64
1, 22656, Note_on_c, 1, 52, 64
1, 22690, Note_on_c, 0, 81, 0
1, 22692, Note_on_c, 0, 80, 64
1, 22701, Note_on_c, 1, 60, 0
1, 22701, Note_on_c, 1, 57, 0
1, 22701, Note_on_c, 1, 52, 0
1, 22704, Note_on_c, 0, 80, 0
1, 22704, Note_on_c, 0, 81, 64
1, 22704, Note_on_c, 1, 60, 64
1, 22704, Note_on_c, 1, 57, 64
1, 22704, Note_on_c, 1, 52, 64
1, 22738, Note_on_c, 0, 81, 0
1, 22740, Note_on_c, 0, 80, 64
1, 22749, Note_on_c, 1, 60, 0
1, 22749, Note_on_c, 1, 57, 0
1, 22749, Note_on_c, 1, 52, 0
1, 22752, Note_on_c, 0, 80, 0
1, 22752, Note_on_c, 0, 81, 64
1, 22752, Note_on_c, 1, 60, 64
1, 22752, Note_on_c, 1, 57, 64
1, 22752, Note_on_c, 1, 52, 64
1, 22786, Note_on_c, 0, 81, 0
1, 22788, Note_on_c, 0, 84, 64
1, 22797, Note_on_c, 1, 60, 0
1, 22797, Note_on_c, 1, 57, 0
1, 22797, Note_on_c, 1, 52, 0
1, 22800, Note_on_c, 0, 84, 0
1, 22800, Note_on_c, 0, 81, 64
1, 22800, Note_on_c, 1, 60, 64
1, 22800, Note_on_c, 1, 57, 64
1, 22800, Note_on_c, 1, 52, 64
1, 22834, Note_on_c, 0, 81, 0
1, 22836, Note_on_c, 0, 78, 64
1, 22845, Note_on_c, 1, 60, 0
1, 22845, Note_on_c, 1, 57, 0
1, 22845, Note_on_c, 1, 52, 0
1, 22848, Note_on_c, 0, 78, 0
1, 22848, Note_on_c, 0, 75, 64
1, 22848, Note_on_c, 1, 60, 64
1, 22848, Note_on_c, 1, 57, 64
1, 22848, Note_on_c, 1, 54, 64
1, 22848, Note_on_c, 1, 52, 64
1, 22882, Note_on_c, 0, 75, 0
1, 22884, Note_on_c, 0, 76, 64
1, 22893, Note_on_c, 1, 60, 0
1, 22893, Note_on_c, 1, 57, 0
1, 22893, Note_on_c, 1, 54, 0
1, 22893, Note_on_c, 1, 52, 0
1, 22896, Note_on_c, 0, 76, 0
1, 22896, Note_on_c, 0, 75, 64
1, 22896, Note_on_c, 1, 60, 64
1, 22896, Note_on_c, 1, 57, 64
1, 22896, Note_on_c, 1, 54, 64
1, 22896, Note_on_c, 1, 52, 64
1, 22930, Note_on_c, 0, 75, 0
1, 22932, Note_on_c, 0, 76, 64
1, 22941, Note_on_c, 1, 60, 0
1, 22941, Note_on_c, 1, 57, 0
1, 22941, Note_on_c, 1, 54, 0
1, 22941, Note_on_c, 1, 52, 0
1, 22944, Note_on_c, 0, 76, 0
1, 22944, Note_on_c, 0, 75, 64
1, 22944, Note_on_c, 1, 60, 64
1, 22944, Note_on_c, 1, 57, 64
1, 22944, Note_on_c, 1, 54, 64
1, 22944, Note_on_c, 1, 52, 64
1, 22978, Note_on_c, 0, 75, 0
1, 22980, Note_on_c, 0, 81, 64
1, 22989, Note_on_c, 1, 60, 0
1, 22989, Note_on_c, 1, 57, 0
1, 22989, Note_on_c, 1, 54, 0
1, 22989, Note_on_c, 1, 52, 0
1, 22992, Note_on_c, 0, 81, 0
1, 22992, Note_on_c, 0, 78, 64
1, 22992, Note_on_c, 1, 60, 64
1, 22992, Note_on_c, 1, 57, 64
1, 22992, Note_on_c, 1, 54, 64
1, 22992, Note_on_c, 1, 52, 64
1, 23026, Note_on_c, 0, 78, 0
1, 23028, Note_on_c, 0, 75, 64
1, 23037, Note_on_c, 1, 60, 0
1, 23037, Note_on_c, 1, 57, 0
1, 23037, Note_on_c, 1, 54, 0
1, 23037, Note_on_c, 1, 52, 0
1, 23040, Note_on_c, 0, 75, 0
1, 23040, Note_on_c, 0, 76, 64
1, 23040, Note_on_c, 1, 59, 64
1, 23040, Note_on_c, 1, 55, 64
1, 23040, Note_on_c, 1, 52, 64
1, 23074, Note_on_c, 0, 76, 0
1, 23076, Note_on_c, 0, 75, 64
1, 23085, Note_on_c, 1, 59, 0
1, 23085, Note_on_c, 1, 55, 0
1, 23085, Note_on_c, 1, 52, 0
1, 23088, Note_on_c, 0, 75, 0
1, 23088, Note_on_c, 0, 76, 64
1, 23088, Note_on_c, 1, 59, 64
1, 23088, Note_on_c, 1, 55, 64
1, 23088, Note_on_c, 1, 52, 64
1, 23122, Note_on_c, 0, 76, 0
1, 23124, Note_on_c, 0, 75, 64
1, 23133, Note_on_c, 1, 59, 0
1, 23133, Note_on_c, 1, 55, 0
1, 23133, Note_on_c, 1, 52, 0
1, 23136, Note_on_c, 0, 75, 0
1, 23136, Note_on_c, 0, 76, 64
1, 23136, Note_on_c, 1, 59, 64
1, 23136, Note_on_c, 1, 55, 64
1, 23136, Note_on_c, 1, 52, 64
1, 23170, Note_on_c, 0, 76, 0
1, 23172, Note_on_c, 0, 83, 64
1, 23181, Note_on_c, 1, 59, 0
1, 23181, Note_on_c, 1, 55, 0
1, 23181, Note_on_c, 1, 52, 0
1, 23184, Note_on_c, 0, 83, 0
1, 23184, Note_on_c, 0, 79, 64
1, 23184, Note_on_c, 1, 59, 64
1, 23184, Note_on_c, 1, 55, 64
1, 23184, Note_on_c, 1, 52, 64
1, 23218, Note_on_c, 0, 79, 0
1, 23220, Note_on_c, 0, 76, 64
1, 23229, Note_on_c, 1, 59, 0
1, 23229, Note_on_c, 1, 55, 0
1, 23229, Note_on_c, 1, 52, 0
1, 23232, Note_on_c, 0, 76, 0
1, 23232, Note_on_c, 0, 75, 64
1, 23232, Note_on_c, 1, 60, 64
1, 23232, Note_on_c, 1, 57, 64
1, 23232, Note_on_c, 1, 54, 64
1, 23232, Note_on_c, 1, 52, 64
1, 23266, Note_on_c, 0, 75, 0
1, 23268, Note_on_c, 0, 76, 64
1, 23277, Note_on_c, 1, 60, 0
1, 23277, Note_on_c, 1, 57, 0
1, 23277, Note_on_c, 1, 54, 0
1, 23277, Note_on_c, 1, 52, 0
1, 23280, Note_on_c, 0, 76, 0
1, 23280, Note_on_c, 0, 75, 64
1, 23280, Note_on_c, 1, 60, 64
1, 23280, Note_on_c, 1, 57, 64
1, 23280, Note_on_c, 1, 54, 64
1, 23280, Note_on_c, 1, 52, 64
1, 23314, Note_on_c, 0, 75, 0
1, 23316, Note_on_c, 0, 76, 64
1, 23325, Note_on_c, 1, 60, 0
1, 23325, Note_on_c, 1, 57, 0
1, 23325, Note_on_c, 1, 54, 0
1, 23325, Note_on_c, 1, 52, 0
1, 23328, Note_on_c, 0, 76, 0
1, 23328, Note_on_c, 0, 75, 64
1, 23328, Note_on_c, 1, 60, 64
1, 23328, Note_on_c, 1, 57, 64
1, 23328, Note_on_c, 1, 54, 64
1, 23328, Note_on_c, 1, 52, 64
1, 23362, Note_on_c, 0, 75, 0
1, 23364, Note_on_c, 0, 81, 64
1, 23373, Note_on_c, 1, 60, 0
1, 23373, Note_on_c, 1, 57, 0
1, 23373, Note_on_c, 1, 54, 0
1, 23373, Note_on_c, 1, 52, 0
1, 23376, Note_on_c, 0, 81, 0
1, 23376, Note_on_c, 0, 78, 64
1, 23376, Note_on_c, 1, 60, 64
1, 23376, Note_on_c, 1, 57, 64
1, 23376, Note_on_c, 1, 54, 64
1, 23376, Note_on_c, 1, 52, 64
1, 23410, Note_on_c, 0, 78, 0
1, 23412, Note_on_c, 0, 75, 64
1, 23421, Note_on_c, 1, 60, 0
1, 23421, Note_on_c, 1, 57, 0
1, 23421, Note_on_c, 1, 54, 0
1, 23421, Note_on_c, 1, 52, 0
1, 23424, Note_on_c, 0, 75, 0
1, 23424, Note_on_c, 0, 76, 64
1, 23424, Note_on_c, 1, 59, 64
1, 23424, Note_on_c, 1, 55, 64
1, 23424, Note_on_c, 1, 52, 64
1, 23458, Note_on_c, 0, 76, 0
1, 23460, Note_on_c, 0, 75, 64
1, 23469, Note_on_c, 1, 59, 0
1, 23469, Note_on_c, 1, 55, 0
1, 23469, Note_on_c, 1, 52, 0
1, 23472, Note_on_c, 0, 75, 0
1, 23472, Note_on_c, 0, 76, 64
1, 23472, Note_on_c, 1, 59, 64
1, 23472, Note_on_c, 1, 55, 64
1, 23472, Note_on_c, 1, 52, 64
1, 23506, Note_on_c, 0, 76, 0
1, 23508, Note_on_c, 0, 75, 64
1, 23517, Note_on_c, 1, 59, 0
1, 23517, Note_on_c, 1, 55, 0
1, 23517, Note_on_c, 1, 52, 0
1, 23520, Note_on_c, 0, 75, 0
1, 23520, Note_on_c, 0, 76, 64
1, 23520, Note_on_c, 1, 59, 64
1, 23520, Note_on_c, 1, 55, 64
1, 23520, Note_on_c, 1, 52, 64
1, 23554, Note_on_c, 0, 76, 0
1, 23556, Note_on_c, 0, 83, 64
1, 23565, Note_on_c, 1, 59, 0
1, 23565, Note_on_c, 1, 55, 0
1, 23565, Note_on_c, 1, 52, 0
1, 23568, Note_on_c, 0, 83, 0
1, 23568, Note_on_c, 0, 79, 64
1, 23568, Note_on_c, 1, 59, 64
1, 23568, Note_on_c, 1, 55, 64
1, 23568, Note_on_c, 1, 52, 64
1, 23602, Note_on_c, 0, 79, 0
1, 23604, Note_on_c, 0, 76, 64
1, 23613, Note_on_c, 1, 59, 0
1, 23613, Note_on_c, 1, 55, 0
1, 23613, Note_on_c, 1, 52, 0
1, 23616, Note_on_c, 0, 76, 0
1, 23616, Note_on_c, 0, 76, 64
1, 23616, Note_on_c, 1, 59, 64
1, 23616, Note_on_c, 1, 48, 64
1, 23650, Note_on_c, 0, 76, 0
1, 23652, Note_on_c, 0, 88, 64
1, 23661, Note_on_c, 1, 59, 0
1, 23661, Note_on_c, 1, 48, 0
1, 23664, Note_on_c, 0, 88, 0
1, 23664, Note_on_c, 0, 76, 64
1, 23664, Note_on_c, 1, 59, 64
1, 23664, Note_on_c, 1, 48, 64
1, 23698, Note_on_c, 0, 76, 0
1, 23700, Note_on_c, 0, 88, 64
1, 23709, Note_on_c, 1, 59, 0
1, 23709, Note_on_c, 1, 48, 0
1, 23712, Note_on_c, 0, 88, 0
1, 23712, Note_on_c, 0, 76, 64
1, 23712, Note_on_c, 1, 58, 64
1, 23712, Note_on_c, 1, 48, 64
1, 23746, Note_on_c, 0, 76, 0
1, 23748, Note_on_c, 0, 88, 64
1, 23757, Note_on_c, 1, 58, 0
1, 23757, Note_on_c, 1, 48, 0
1, 23760, Note_on_c, 0, 88, 0
1, 23760, Note_on_c, 0, 76, 64
1, 23760, Note_on_c, 1, 58, 64
1, 23760, Note_on_c, 1, 48, 64
1, 23794, Note_on_c, 0, 76, 0
1, 23796, Note_on_c, 0, 88, 64
1, 23805, Note_on_c, 1, 58, 0
1, 23805, Note_on_c, 1, 48, 0
1, 23808, Note_on_c, 0, 88, 0
1, 23808, Note_on_c, 0, 75, 64
1, 23808, Note_on_c, 1, 59, 64
1, 23808, Note_on_c, 1, 47, 64
1, 23842, Note_on_c, 0, 75, 0
1, 23844, Note_on_c, 0, 87, 64
1, 23856, Note_on_c, 0, 87, 0
1, 23856, Note_on_c, 0, 71, 64
1, 23890, Note_on_c, 0, 71, 0
1, 23892, Note_on_c, 0, 83, 64
1, 23897, Note_on_c, 1, 59, 0
1, 23897, Note_on_c, 1, 47, 0
1, 23904, Note_on_c, 0, 83, 0
1, 23904, Note_on_c, 0, 66, 64
1, 23938, Note_on_c, 0, 66, 0
1, 23940, Note_on_c, 0, 78, 64
1, 23952, Note_on_c, 0, 78, 0
1, 23952, Note_on_c, 0, 63, 64
1, 23986, Note_on_c, 0, 63, 0
1, 23988, Note_on_c, 0, 75, 64
1, 24000, Note_on_c, 0, 75, 0
1, 24000, Note_on_c, 0, 59, 64
1, 24000, Note_on_c, 1, 47, 64
1, 24000, Note_on_c, 1, 35, 64
1, 24281, Note_on_c, 0, 59, 0
1, 24281, Note_on_c, 1, 47, 0
1, 24281, Note_on_c, 1, 35, 0
1, 24288, Note_on_c, 0, 71, 64
1, 24355, Note_on_c, 0, 71, 0
1, 24360, Note_on_c, 0, 72, 64
1, 24372, Note_on_c, 0, 72, 0
1, 24372, Note_on_c, 0, 74, 64
1, 24384, Note_on_c, 0, 74, 0
1, 24384, Note_on_c, 0, 67, 64
1, 24384, Note_on_c, 1, 59, 64
1, 24384, Note_on_c, 1, 55, 64
1, 24429, Note_on_c, 0, 67, 0
1, 24429, Note_on_c, 1, 59, 0
1, 24429, Note_on_c, 1, 55, 0
1, 24432, Note_on_c, 0, 67, 64
1, 24432, Note_on_c, 1, 59, 64
1, 24432, Note_on_c, 1, 55, 64
1, 24477, Note_on_c, 0, 67, 0
1, 24477, Note_on_c, 1, 59, 0
1, 24477, Note_on_c, 1, 55, 0
1, 24480, Note_on_c, 0, 69, 64
1, 24480, Note_on_c, 1, 60, 64
1, 24480, Note_on_c, 1, 50, 64
1, 24486, Note_on_c, 0, 69, 0
1, 24486, Note_on_c, 0, 71, 64
1, 24492, Note_on_c, 0, 71, 0
1, 24492, Note_on_c, 0, 69, 64
1, 24514, Note_on_c, 0, 69, 0
1, 24516, Note_on_c, 0, 67, 64
1, 24525, Note_on_c, 1, 60, 0
1, 24525, Note_on_c, 1, 50, 0
1, 24528, Note_on_c, 0, 67, 0
1, 24528, Note_on_c, 0, 69, 64
1, 24528, Note_on_c, 1, 60, 64
1, 24528, Note_on_c, 1, 50, 64
1, 24562, Note_on_c, 0, 69, 0
1, 24564, Note_on_c, 0, 71, 64
1, 24573, Note_on_c, 1, 60, 0
1, 24573, Note_on_c, 1, 50, 0
1, 24576, Note_on_c, 0, 71, 0
1, 24576, Note_on_c, 0, 67, 64
1, 24576, Note_on_c, 1, 59, 64
1, 24576, Note_on_c, 1, 55, 64
1, 24621, Note_on_c, 0, 67, 0
1, 24621, Note_on_c, 1, 59, 0
1, 24621, Note_on_c, 1, 55, 0
1, 24672, Note_on_c, 0, 76, 64
1, 24672, Note_on_c, 1, 72, 64
1, 24695, Note_on_c, 0, 76, 0
1, 24696, Note_on_c, 0, 78, 64
1, 24708, Note_on_c, 0, 78, 0
1, 24708, Note_on_c, 0, 79, 64
1, 24717, Note_on_c, 1, 72, 0
1, 24720, Note_on_c, 0, 79, 0
1, 24720, Note_on_c, 0, 74, 64
1, 24720, Note_on_c, 1, 71, 64
1, 24740, Note_on_c, 0, 74, 0
1, 24765, Note_on_c, 1, 71, 0
1, 24768, Note_on_c, 0, 72, 64
1, 24768, Note_on_c, 1, 69, 64
1, 24791, Note_on_c, 0, 72, 0
1, 24792, Note_on_c, 0, 74, 64
1, 24804, Note_on_c, 0, 74, 0
1, 24804, Note_on_c, 0, 76, 64
1, 24813, Note_on_c, 1, 69, 0
1, 24816, Note_on_c, 0, 76, 0
1, 24816, Note_on_c, 0, 71, 64
1, 24816, Note_on_c, 1, 67, 64
1, 24836, Note_on_c, 0, 71, 0
1, 24861, Note_on_c, 1, 67, 0
1, 24864, Note_on_c, 0, 69, 64
1, 24864, Note_on_c, 1, 64, 64
1, 24864, Note_on_c, 1, 60, 64
1, 24909, Note_on_c, 0, 69, 0
1, 24909, Note_on_c, 1, 60, 0
1, 24912, Note_on_c, 0, 69, 64
1, 24912, Note_on_c, 1, 61, 64
1, 24920, Note_on_c, 0, 69, 0
1, 24920, Note_on_c, 0, 67, 64
1, 24928, Note_on_c, 0, 67, 0
1, 24928, Note_on_c, 0, 69, 64
1, 24936, Note_on_c, 0, 69, 0
1, 24936, Note_on_c, 0, 67, 64
1, 24944, Note_on_c, 0, 67, 0
1, 24944, Note_on_c, 0, 66, 64
1, 24952, Note_on_c, 0, 66, 0
1, 24952, Note_on_c, 0, 67, 64
1, 24953, Note_on_c, 1, 64, 0
1, 24957, Note_on_c, 1, 61, 0
1, 24960, Note_on_c, 0, 67, 0
1, 24960, Note_on_c, 0, 74, 64
1, 24960, Note_on_c, 1, 62, 64
1, 25005, Note_on_c, 0, 74, 0
1, 25005, Note_on_c, 1, 62, 0
1, 25008, Note_on_c, 1, 50, 64
1, 25053, Note_on_c, 1, 50, 0
1, 25056, Note_on_c, 0, 71, 64
1, 25079, Note_on_c, 0, 71, 0
1, 25080, Note_on_c, 0, 72, 64
1, 25103, Note_on_c, 0, 72, 0
1, 25104, Note_on_c, 0, 73, 64
1, 25127, Note_on_c, 0, 73, 0
1, 25128, Note_on_c, 0, 74, 64
1, 25151, Note_on_c, 0, 74, 0
1, 25152, Note_on_c, 0, 67, 64
1, 25152, Note_on_c, 1, 59, 64
1, 25152, Note_on_c, 1, 55, 64
1, 25197, Note_on_c, 0, 67, 0
1, 25197, Note_on_c, 1, 59, 0
1, 25197, Note_on_c, 1, 55, 0
1, 25200, Note_on_c, 0, 67, 64
1, 25200, Note_on_c, 1, 59, 64
1, 25200, Note_on_c, 1, 55, 64
1, 25245, Note_on_c, 0, 67, 0
1, 25245, Note_on_c, 1, 59, 0
1, 25245, Note_on_c, 1, 55, 0
1, 25248, Note_on_c, 0, 69, 64
1, 25248, Note_on_c, 1, 60, 64
1, 25248, Note_on_c, 1, 50, 64
1, 25254, Note_on_c, 0, 69, 0
1, 25254, Note_on_c, 0, 71, 64
1, 25260, Note_on_c, 0, 71, 0
1, 25260, Note_on_c, 0, 69, 64
1, 25282, Note_on_c, 0, 69, 0
1, 25284, Note_on_c, 0, 67, 64
1, 25293, Note_on_c, 1, 60, 0
1, 25293, Note_on_c, 1, 50, 0
1, 25296, Note_on_c, 0, 67, 0
1, 25296, Note_on_c, 0, 69, 64
1, 25296, Note_on_c, 1, 60, 64
1, 25296, Note_on_c, 1, 50, 64
1, 25330, Note_on_c, 0, 69, 0
1, 25332, Note_on_c, 0, 71, 64
1, 25341, Note_on_c, 1, 60, 0
1, 25341, Note_on_c, 1, 50, 0
1, 25344, Note_on_c, 0, 71, 0
1, 25344, Note_on_c, 0, 67, 64
1, 25344, Note_on_c, 1, 59, 64
1, 25344, Note_on_c, 1, 55, 64
1, 25389, Note_on_c, 0, 67, 0
1, 25392, Note_on_c, 0, 67, 64
1, 25433, Note_on_c, 1, 59, 0
1, 25433, Note_on_c, 1, 55, 0
1, 25437, Note_on_c, 0, 67, 0
1, 25440, Note_on_c, 0, 76, 64
1, 25440, Note_on_c, 1, 72, 64
1, 25463, Note_on_c, 0, 76, 0
1, 25464, Note_on_c, 0, 78, 64
1, 25485, Note_on_c, 1, 72, 0
1, 25487, Note_on_c, 0, 78, 0
1, 25488, Note_on_c, 0, 79, 64
1, 25488, Note_on_c, 1, 71, 64
1, 25511, Note_on_c, 0, 79, 0
1, 25512, Note_on_c, 0, 74, 64
1, 25533, Note_on_c, 1, 71, 0
1, 25535, Note_on_c, 0, 74, 0
1, 25536, Note_on_c, 0, 74, 64
1, 25536, Note_on_c, 1, 69, 64
1, 25560, Note_on_c, 0, 74, 0
1, 25560, Note_on_c, 0, 72, 64
1, 25581, Note_on_c, 1, 69, 0
1, 25583, Note_on_c, 0, 72, 0
1, 25584, Note_on_c, 0, 72, 64
1, 25584, Note_on_c, 1, 67, 64
1, 25608, Note_on_c, 0, 72, 0
1, 25608, Note_on_c, 0, 71, 64
1, 25629, Note_on_c, 1, 67, 0
1, 25631, Note_on_c, 0, 71, 0
1, 25632, Note_on_c, 0, 71, 64
1, 25632, Note_on_c, 1, 64, 64
1, 25632, Note_on_c, 1, 60, 64
1, 25656, Note_on_c, 0, 71, 0
1, 25656, Note_on_c, 0, 69, 64
1, 25677, Note_on_c, 1, 60, 0
1, 25679, Note_on_c, 0, 69, 0
1, 25680, Note_on_c, 0, 69, 64
1, 25680, Note_on_c, 1, 61, 64
1, 25704, Note_on_c, 0, 69, 0
1, 25704, Note_on_c, 0, 67, 64
1, 25721, Note_on_c, 1, 64, 0
1, 25725, Note_on_c, 1, 61, 0
1, 25727, Note_on_c, 0, 67, 0
1, 25728, Note_on_c, 0, 67, 64
1, 25728, Note_on_c, 1, 62, 64
1, 25773, Note_on_c, 1, 62, 0
1, 25776, Note_on_c, 0, 67, 0
1, 25776, Note_on_c, 0, 66, 64
1, 25776, Note_on_c, 1, 50, 64
1, 25821, Note_on_c, 0, 66, 0
1, 25821, Note_on_c, 1, 50, 0
1, 25824, Note_on_c, 0, 73, 64
1, 25824, Note_on_c, 1, 66, 64
1, 25824, Note_on_c, 1, 62, 64
1, 25847, Note_on_c, 0, 73, 0
1, 25848, Note_on_c, 0, 74, 64
1, 25869, Note_on_c, 1, 66, 0
1, 25869, Note_on_c, 1, 62, 0
1, 25871, Note_on_c, 0, 74, 0
1, 25872, Note_on_c, 0, 78, 64
1, 25872, Note_on_c, 1, 66, 64
1, 25872, Note_on_c, 1, 62, 64
1, 25895, Note_on_c, 0, 78, 0
1, 25896, Note_on_c, 0, 74, 64
1, 25917, Note_on_c, 1, 66, 0
1, 25917, Note_on_c, 1, 62, 0
1, 25919, Note_on_c, 0, 74, 0
1, 25920, Note_on_c, 0, 75, 64
1, 25920, Note_on_c, 1, 67, 64
1, 25920, Note_on_c, 1, 62, 64
1, 25943, Note_on_c, 0, 75, 0
1, 25944, Note_on_c, 0, 76, 64
1, 25965, Note_on_c, 1, 67, 0
1, 25965, Note_on_c, 1, 62, 0
1, 25967, Note_on_c, 0, 76, 0
1, 25968, Note_on_c, 0, 79, 64
1, 25968, Note_on_c, 1, 67, 64
1, 25968, Note_on_c, 1, 62, 64
1, 25991, Note_on_c, 0, 79, 0
1, 25992, Note_on_c, 0, 76, 64
1, 26013, Note_on_c, 1, 67, 0
1, 26013, Note_on_c, 1, 62, 0
1, 26015, Note_on_c, 0, 76, 0
1, 26016, Note_on_c, 0, 73, 64
1, 26016, Note_on_c, 1, 64, 64
1, 26016, Note_on_c, 1, 62, 64
1, 26039, Note_on_c, 0, 73, 0
1, 26040, Note_on_c, 0, 85, 64
1, 26061, Note_on_c, 1, 64, 0
1, 26061, Note_on_c, 1, 62, 0
1, 26063, Note_on_c, 0, 85, 0
1, 26064, Note_on_c, 0, 76, 64
1, 26064, Note_on_c, 1, 64, 64
1, 26064, Note_on_c, 1, 62, 64
1, 26087, Note_on_c, 0, 76, 0
1, 26088, Note_on_c, 0, 88, 64
1, 26109, Note_on_c, 1, 64, 0
1, 26109, Note_on_c, 1, 62, 0
1, 26111, Note_on_c, 0, 88, 0
1, 26112, Note_on_c, 0, 73, 64
1, 26112, Note_on_c, 1, 66, 64
1, 26112, Note_on_c, 1, 62, 64
1, 26135, Note_on_c, 0, 73, 0
1, 26136, Note_on_c, 0, 85, 64
1, 26159, Note_on_c, 0, 85, 0
1, 26160, Note_on_c, 0, 74, 64
1, 26183, Note_on_c, 0, 74, 0
1, 26184, Note_on_c, 0, 86, 64
1, 26201, Note_on_c, 1, 66, 0
1, 26201, Note_on_c, 1, 62, 0
1, 26207, Note_on_c, 0, 86, 0
1, 26208, Note_on_c, 0, 72, 64
1, 26231, Note_on_c, 0, 72, 0
1, 26232, Note_on_c, 0, 84, 64
1, 26255, Note_on_c, 0, 84, 0
1, 26256, Note_on_c, 0, 70, 64
1, 26256, Note_on_c, 1, 62, 64
1, 26256, Note_on_c, 1, 54, 64
1, 26279, Note_on_c, 0, 70, 0
1, 26280, Note_on_c, 0, 82, 64
1, 26301, Note_on_c, 1, 62, 0
1, 26301, Note_on_c, 1, 54, 0
1, 26303, Note_on_c, 0, 82, 0
1, 26304, Note_on_c, 0, 71, 64
1, 26304, Note_on_c, 1, 62, 64
1, 26304, Note_on_c, 1, 55, 64
1, 26327, Note_on_c, 0, 71, 0
1, 26328, Note_on_c, 0, 86, 64
1, 26349, Note_on_c, 1, 62, 0
1, 26349, Note_on_c, 1, 55, 0
1, 26351, Note_on_c, 0, 86, 0
1, 26352, Note_on_c, 0, 83, 64
1, 26352, Note_on_c, 1, 62, 64
1, 26352, Note_on_c, 1, 55, 64
1, 26375, Note_on_c, 0, 83, 0
1, 26376, Note_on_c, 0, 79, 64
1, 26397, Note_on_c, 1, 62, 0
1, 26397, Note_on_c, 1, 55, 0
1, 26399, Note_on_c, 0, 79, 0
1, 26400, Note_on_c, 0, 78, 64
1, 26400, Note_on_c, 1, 62, 64
1, 26400, Note_on_c, 1, 57, 64
1, 26445, Note_on_c, 0, 78, 0
1, 26445, Note_on_c, 1, 62, 0
1, 26448, Note_on_c, 0, 78, 64
1, 26448, Note_on_c, 1, 61, 64
1, 26456, Note_on_c, 0, 78, 0
1, 26456, Note_on_c, 0, 76, 64
1, 26464, Note_on_c, 0, 76, 0
1, 26464, Note_on_c, 0, 78, 64
1, 26472, Note_on_c, 0, 78, 0
1, 26472, Note_on_c, 0, 76, 64
1, 26480, Note_on_c, 0, 76, 0
1, 26480, Note_on_c, 0, 74, 64
1, 26488, Note_on_c, 0, 74, 0
1, 26488, Note_on_c, 0, 76, 64
1, 26489, Note_on_c, 1, 57, 0
1, 26493, Note_on_c, 1, 61, 0
1, 26496, Note_on_c, 0, 76, 0
1, 26496, Note_on_c, 0, 74, 64
1, 26496, Note_on_c, 1, 62, 64
1, 26541, Note_on_c, 1, 62, 0
1, 26544, Note_on_c, 1, 50, 64
1, 26585, Note_on_c, 0, 74, 0
1, 26589, Note_on_c, 1, 50, 0
1, 26592, Note_on_c, 0, 71, 64
1, 26615, Note_on_c, 0, 71, 0
1, 26616, Note_on_c, 0, 72, 64
1, 26639, Note_on_c, 0, 72, 0
1, 26640, Note_on_c, 0, 73, 64
1, 26663, Note_on_c, 0, 73, 0
1, 26664, Note_on_c, 0, 74, 64
1, 26687, Note_on_c, 0, 74, 0
1, 26688, Note_on_c, 0, 67, 64
1, 26688, Note_on_c, 1, 59, 64
1, 26688, Note_on_c, 1, 55, 64
1, 26733, Note_on_c, 0, 67, 0
1, 26733, Note_on_c, 1, 59, 0
1, 26733, Note_on_c, 1, 55, 0
1, 26736, Note_on_c, 0, 67, 64
1, 26736, Note_on_c, 1, 59, 64
1, 26736, Note_on_c, 1, 55, 64
1, 26781, Note_on_c, 0, 67, 0
1, 26781, Note_on_c, 1, 59, 0
1, 26781, Note_on_c, 1, 55, 0
1, 26784, Note_on_c, 0, 69, 64
1, 26784, Note_on_c, 1, 60, 64
1, 26784, Note_on_c, 1, 50, 64
1, 26790, Note_on_c, 0, 69, 0
1, 26790, Note_on_c, 0, 71, 64
1, 26796, Note_on_c, 0, 71, 0
1, 26796, Note_on_c, 0, 69, 64
1, 26818, Note_on_c, 0, 69, 0
1, 26820, Note_on_c, 0, 67, 64
1, 26829, Note_on_c, 1, 60, 0
1, 26829, Note_on_c, 1, 50, 0
1, 26832, Note_on_c, 0, 67, 0
1, 26832, Note_on_c, 0, 69, 64
1, 26832, Note_on_c, 1, 60, 64
1, 26832, Note_on_c, 1, 50, 64
1, 26866, Note_on_c, 0, 69, 0
1, 26868, Note_on_c, 0, 71, 64
1, 26877, Note_on_c, 1, 60, 0
1, 26877, Note_on_c, 1, 50, 0
1, 26880, Note_on_c, 0, 71, 0
1, 26880, Note_on_c, 0, 67, 64
1, 26880, Note_on_c, 1, 59, 64
1, 26880, Note_on_c, 1, 55, 64
1, 26925, Note_on_c, 0, 67, 0
1, 26928, Note_on_c, 0, 67, 64
1, 26969, Note_on_c, 1, 59, 0
1, 26969, Note_on_c, 1, 55, 0
1, 26973, Note_on_c, 0, 67, 0
1, 26976, Note_on_c, 0, 76, 64
1, 26976, Note_on_c, 1, 72, 64
1, 26999, Note_on_c, 0, 76, 0
1, 27000, Note_on_c, 0, 78, 64
1, 27021, Note_on_c, 1, 72, 0
1, 27023, Note_on_c, 0, 78, 0
1, 27024, Note_on_c, 0, 79, 64
1, 27024, Note_on_c, 1, 71, 64
1, 27047, Note_on_c, 0, 79, 0
1, 27048, Note_on_c, 0, 74, 64
1, 27069, Note_on_c, 1, 71, 0
1, 27071, Note_on_c, 0, 74, 0
1, 27072, Note_on_c, 0, 74, 64
1, 27072, Note_on_c, 1, 69, 64
1, 27096, Note_on_c, 0, 74, 0
1, 27096, Note_on_c, 0, 72, 64
1, 27117, Note_on_c, 1, 69, 0
1, 27119, Note_on_c, 0, 72, 0
1, 27120, Note_on_c, 0, 72, 64
1, 27120, Note_on_c, 1, 67, 64
1, 27144, Note_on_c, 0, 72, 0
1, 27144, Note_on_c, 0, 71, 64
1, 27165, Note_on_c, 1, 67, 0
1, 27167, Note_on_c, 0, 71, 0
1, 27168, Note_on_c, 0, 71, 64
1, 27168, Note_on_c, 1, 64, 64
1, 27168, Note_on_c, 1, 60, 64
1, 27192, Note_on_c, 0, 71, 0
1, 27192, Note_on_c, 0, 69, 64
1, 27213, Note_on_c, 1, 60, 0
1, 27215, Note_on_c, 0, 69, 0
1, 27216, Note_on_c, 0, 69, 64
1, 27216, Note_on_c, 1, 61, 64
1, 27240, Note_on_c, 0, 69, 0
1, 27240, Note_on_c, 0, 67, 64
1, 27257, Note_on_c, 1, 64, 0
1, 27261, Note_on_c, 1, 61, 0
1, 27263, Note_on_c, 0, 67, 0
1, 27264, Note_on_c, 0, 67, 64
1, 27264, Note_on_c, 1, 62, 64
1, 27309, Note_on_c, 1, 62, 0
1, 27312, Note_on_c, 0, 67, 0
1, 27312, Note_on_c, 0, 66, 64
1, 27312, Note_on_c, 1, 50, 64
1, 27357, Note_on_c, 0, 66, 0
1, 27357, Note_on_c, 1, 50, 0
1, 27360, Note_on_c, 0, 73, 64
1, 27360, Note_on_c, 1, 66, 64
1, 27360, Note_on_c, 1, 62, 64
1, 27383, Note_on_c, 0, 73, 0
1, 27384, Note_on_c, 0, 74, 64
1, 27405, Note_on_c, 1, 66, 0
1, 27405, Note_on_c, 1, 62, 0
1, 27407, Note_on_c, 0, 74, 0
1, 27408, Note_on_c, 0, 78, 64
1, 27408, Note_on_c, 1, 66, 64
1, 27408, Note_on_c, 1, 62, 64
1, 27431, Note_on_c, 0, 78, 0
1, 27432, Note_on_c, 0, 74, 64
1, 27453, Note_on_c, 1, 66, 0
1, 27453, Note_on_c, 1, 62, 0
1, 27455, Note_on_c, 0, 74, 0
1, 27456, Note_on_c, 0, 75, 64
1, 27456, Note_on_c, 1, 67, 64
1, 27456, Note_on_c, 1, 62, 64
1, 27479, Note_on_c, 0, 75, 0
1, 27480, Note_on_c, 0, 76, 64
1, 27501, Note_on_c, 1, 67, 0
1, 27501, Note_on_c, 1, 62, 0
1, 27503, Note_on_c, 0, 76, 0
1, 27504, Note_on_c, 0, 79, 64
1, 27504, Note_on_c, 1, 67, 64
1, 27504, Note_on_c, 1, 62, 64
1, 27527, Note_on_c, 0, 79, 0
1, 27528, Note_on_c, 0, 76, 64
1, 27549, Note_on_c, 1, 67, 0
1, 27549, Note_on_c, 1, 62, 0
1, 27551, Note_on_c, 0, 76, 0
1, 27552, Note_on_c, 0, 73, 64
1, 27552, Note_on_c, 1, 64, 64
1, 27552, Note_on_c, 1, 62, 64
1, 27575, Note_on_c, 0, 73, 0
1, 27576, Note_on_c, 0, 85, 64
1, 27597, Note_on_c, 1, 64, 0
1, 27597, Note_on_c, 1, 62, 0
1, 27599, Note_on_c, 0, 85, 0
1, 27600, Note_on_c, 0, 76, 64
1, 27600, Note_on_c, 1, 64, 64
1, 27600, Note_on_c, 1, 62, 64
1, 27623, Note_on_c, 0, 76, 0
1, 27624, Note_on_c, 0, 88, 64
1, 27645, Note_on_c, 1, 64, 0
1, 27645, Note_on_c, 1, 62, 0
1, 27647, Note_on_c, 0, 88, 0
1, 27648, Note_on_c, 0, 73, 64
1, 27648, Note_on_c, 1, 66, 64
1, 27648, Note_on_c, 1, 62, 64
1, 27671, Note_on_c, 0, 73, 0
1, 27672, Note_on_c, 0, 85, 64
1, 27695, Note_on_c, 0, 85, 0
1, 27696, Note_on_c, 0, 74, 64
1, 27719, Note_on_c, 0, 74, 0
1, 27720, Note_on_c, 0, 86, 64
1, 27737, Note_on_c, 1, 66, 0
1, 27737, Note_on_c, 1, 62, 0
1, 27743, Note_on_c, 0, 86, 0
1, 27744, Note_on_c, 0, 72, 64
1, 27767, Note_on_c, 0, 72, 0
1, 27768, Note_on_c, 0, 84, 64
1, 27791, Note_on_c, 0, 84, 0
1, 27792, Note_on_c, 0, 70, 64
1, 27792, Note_on_c, 1, 62, 64
1, 27792, Note_on_c, 1, 54, 64
1, 27815, Note_on_c, 0, 70, 0
1, 27816, Note_on_c, 0, 82, 64
1, 27837, Note_on_c, 1, 62, 0
1, 27837, Note_on_c, 1, 54, 0
1, 27839, Note_on_c, 0, 82, 0
1, 27840, Note_on_c, 0, 71, 64
1, 27840, Note_on_c, 1, 62, 64
1, 27840, Note_on_c, 1, 55, 64
1, 27863, Note_on_c, 0, 71, 0
1, 27864, Note_on_c, 0, 86, 64
1, 27885, Note_on_c, 1, 62, 0
1, 27885, Note_on_c, 1, 55, 0
1, 27887, Note_on_c, 0, 86, 0
1, 27888, Note_on_c, 0, 83, 64
1, 27888, Note_on_c, 1, 62, 64
1, 27888, Note_on_c, 1, 55, 64
1, 27911, Note_on_c, 0, 83, 0
1, 27912, Note_on_c, 0, 79, 64
1, 27933, Note_on_c, 1, 62, 0
1, 27933, Note_on_c, 1, 55, 0
1, 27935, Note_on_c, 0, 79, 0
1, 27936, Note_on_c, 0, 78, 64
1, 27936, Note_on_c, 1, 62, 64
1, 27936, Note_on_c, 1, 57, 64
1, 27981, Note_on_c, 0, 78, 0
1, 27981, Note_on_c, 1, 62, 0
1, 27984, Note_on_c, 0, 78, 64
1, 27984, Note_on_c, 1, 61, 64
1, 27992, Note_on_c, 0, 78, 0
1, 27992, Note_on_c, 0, 76, 64
1, 28000, Note_on_c, 0, 76, 0
1, 28000, Note_on_c, 0, 78, 64
1, 28008, Note_on_c, 0, 78, 0
1, 28008, Note_on_c, 0, 76, 64
1, 28016, Note_on_c, 0, 76, 0
1, 28016, Note_on_c, 0, 74, 64
1, 28024, Note_on_c, 0, 74, 0
1, 28024, Note_on_c, 0, 76, 64
1, 28025, Note_on_c, 1, 57, 0
1, 28029, Note_on_c, 1, 61, 0
1, 28032, Note_on_c, 0, 76, 0
1, 28032, Note_on_c, 0, 74, 64
1, 28032, Note_on_c, 1, 62, 64
1, 28077, Note_on_c, 1, 62, 0
1, 28080, Note_on_c, 1, 50, 64
1, 28121, Note_on_c, 0, 74, 0
1, 28125, Note_on_c, 1, 50, 0
1, 28128, Note_on_c, 0, 73, 64
1, 28151, Note_on_c, 0, 73, 0
1, 28152, Note_on_c, 0, 74, 64
1, 28175, Note_on_c, 0, 74, 0
1, 28176, Note_on_c, 0, 76, 64
1, 28199, Note_on_c, 0, 76, 0
1, 28200, Note_on_c, 0, 77, 64
1, 28223, Note_on_c, 0, 77, 0
1, 28224, Note_on_c, 0, 77, 64
1, 28224, Note_on_c, 1, 62, 64
1, 28224, Note_on_c, 1, 52, 64
1, 28247, Note_on_c, 0, 77, 0
1, 28248, Note_on_c, 0, 68, 64
1, 28269, Note_on_c, 1, 62, 0
1, 28269, Note_on_c, 1, 52, 0
1, 28271, Note_on_c, 0, 68, 0
1, 28272, Note_on_c, 0, 77, 64
1, 28272, Note_on_c, 1, 62, 64
1, 28272, Note_on_c, 1, 52, 64
1, 28295, Note_on_c, 0, 77, 0
1, 28296, Note_on_c, 0, 68, 64
1, 28317, Note_on_c, 1, 62, 0
1, 28317, Note_on_c, 1, 52, 0
1, 28319, Note_on_c, 0, 68, 0
1, 28320, Note_on_c, 0, 76, 64
1, 28320, Note_on_c, 1, 60, 64
1, 28320, Note_on_c, 1, 52, 64
1, 28343, Note_on_c, 0, 76, 0
1, 28344, Note_on_c, 0, 69, 64
1, 28365, Note_on_c, 1, 60, 0
1, 28365, Note_on_c, 1, 52, 0
1, 28367, Note_on_c, 0, 69, 0
1, 28368, Note_on_c, 0, 74, 64
1, 28368, Note_on_c, 1, 59, 64
1, 28368, Note_on_c, 1, 52, 64
1, 28391, Note_on_c, 0, 74, 0
1, 28392, Note_on_c, 0, 68, 64
1, 28413, Note_on_c, 1, 59, 0
1, 28413, Note_on_c, 1, 52, 0
1, 28415, Note_on_c, 0, 68, 0
1, 28416, Note_on_c, 0, 74, 64
1, 28416, Note_on_c, 1, 57, 64
1, 28439, Note_on_c, 0, 74, 0
1, 28440, Note_on_c, 0, 72, 64
1, 28461, Note_on_c, 1, 57, 0
1, 28463, Note_on_c, 0, 72, 0
1, 28464, Note_on_c, 0, 71, 64
1, 28464, Note_on_c, 1, 45, 64
1, 28487, Note_on_c, 0, 71, 0
1, 28488, Note_on_c, 0, 69, 64
1, 28509, Note_on_c, 1, 45, 0
1, 28511, Note_on_c, 0, 69, 0
1, 28512, Note_on_c, 0, 74, 64
1, 28512, Note_on_c, 1, 69, 64
1, 28535, Note_on_c, 0, 74, 0
1, 28536, Note_on_c, 0, 72, 64
1, 28557, Note_on_c, 1, 69, 0
1, 28559, Note_on_c, 0, 72, 0
1, 28560, Note_on_c, 0, 81, 64
1, 28560, Note_on_c, 1, 66, 64
1, 28583, Note_on_c, 0, 81, 0
1, 28584, Note_on_c, 0, 72, 64
1, 28605, Note_on_c, 1, 66, 0
1, 28607, Note_on_c, 0, 72, 0
1, 28608, Note_on_c, 0, 72, 64
1, 28608, Note_on_c, 1, 67, 64
1, 28631, Note_on_c, 0, 72, 0
1, 28632, Note_on_c, 0, 71, 64
1, 28653, Note_on_c, 1, 67, 0
1, 28655, Note_on_c, 0, 71, 0
1, 28656, Note_on_c, 0, 79, 64
1, 28656, Note_on_c, 1, 59, 64
1, 28679, Note_on_c, 0, 79, 0
1, 28680, Note_on_c, 0, 71, 64
1, 28701, Note_on_c, 1, 59, 0
1, 28703, Note_on_c, 0, 71, 0
1, 28704, Note_on_c, 0, 71, 64
1, 28704, Note_on_c, 1, 60, 64
1, 28727, Note_on_c, 0, 71, 0
1, 28728, Note_on_c, 0, 69, 64
1, 28749, Note_on_c, 1, 60, 0
1, 28751, Note_on_c, 0, 69, 0
1, 28752, Note_on_c, 0, 76, 64
1, 28752, Note_on_c, 1, 61, 64
1, 28775, Note_on_c, 0, 76, 0
1, 28776, Note_on_c, 0, 67, 64
1, 28797, Note_on_c, 1, 61, 0
1, 28799, Note_on_c, 0, 67, 0
1, 28800, Note_on_c, 0, 67, 64
1, 28800, Note_on_c, 1, 62, 64
1, 28845, Note_on_c, 1, 62, 0
1, 28848, Note_on_c, 0, 67, 0
1, 28848, Note_on_c, 0, 66, 64
1, 28848, Note_on_c, 1, 50, 64
1, 28893, Note_on_c, 0, 66, 0
1, 28893, Note_on_c, 1, 50, 0
1, 28896, Note_on_c, 1, 57, 64
1, 28919, Note_on_c, 1, 57, 0
1, 28920, Note_on_c, 1, 58, 64
1, 28943, Note_on_c, 1, 58, 0
1, 28944, Note_on_c, 1, 59, 64
1, 28967, Note_on_c, 1, 59, 0
1, 28968, Note_on_c, 1, 60, 64
1, 28991, Note_on_c, 1, 60, 0
1, 28992, Note_on_c, 0, 78, 64
1, 28992, Note_on_c, 1, 50, 64
1, 29015, Note_on_c, 0, 78, 0
1, 29016, Note_on_c, 0, 79, 64
1, 29037, Note_on_c, 1, 50, 0
1, 29039, Note_on_c, 0, 79, 0
1, 29040, Note_on_c, 0, 80, 64
1, 29040, Note_on_c, 1, 50, 64
1, 29063, Note_on_c, 0, 80, 0
1, 29064, Note_on_c, 0, 81, 64
1, 29085, Note_on_c, 1, 50, 0
1, 29087, Note_on_c, 0, 81, 0
1, 29088, Note_on_c, 0, 72, 64
1, 29088, Note_on_c, 1, 66, 64
1, 29111, Note_on_c, 1, 66, 0
1, 29112, Note_on_c, 1, 67, 64
1, 29133, Note_on_c, 0, 72, 0
1, 29135, Note_on_c, 1, 67, 0
1, 29136, Note_on_c, 0, 72, 64
1, 29136, Note_on_c, 1, 68, 64
1, 29159, Note_on_c, 1, 68, 0
1, 29160, Note_on_c, 1, 69, 64
1, 29181, Note_on_c, 0, 72, 0
1, 29183, Note_on_c, 1, 69, 0
1, 29184, Note_on_c, 0, 81, 64
1, 29184, Note_on_c, 1, 60, 64
1, 29207, Note_on_c, 0, 81, 0
1, 29208, Note_on_c, 0, 82, 64
1, 29231, Note_on_c, 0, 82, 0
1, 29232, Note_on_c, 0, 83, 64
1, 29255, Note_on_c, 0, 83, 0
1, 29256, Note_on_c, 0, 84, 64
1, 29279, Note_on_c, 0, 84, 0
1, 29280, Note_on_c, 0, 85, 64
1, 29280, Note_on_c, 1, 66, 64
1, 29303, Note_on_c, 0, 85, 0
1, 29304, Note_on_c, 0, 86, 64
1, 29327, Note_on_c, 0, 86, 0
1, 29328, Note_on_c, 0, 87, 64
1, 29351, Note_on_c, 0, 87, 0
1, 29352, Note_on_c, 0, 88, 64
1, 29369, Note_on_c, 1, 66, 0
1, 29375, Note_on_c, 0, 88, 0
1, 29376, Note_on_c, 0, 86, 64
1, 29376, Note_on_c, 1, 67, 64
1, 29376, Note_on_c, 1, 60, 0
1, 29376, Note_on_c, 1, 59, 64
1, 29410, Note_on_c, 0, 86, 0
1, 29412, Note_on_c, 0, 83, 64
1, 29421, Note_on_c, 1, 67, 0
1, 29421, Note_on_c, 1, 59, 0
1, 29424, Note_on_c, 0, 83, 0
1, 29424, Note_on_c, 0, 81, 64
1, 29424, Note_on_c, 1, 69, 64
1, 29424, Note_on_c, 1, 60, 64
1, 29458, Note_on_c, 0, 81, 0
1, 29460, Note_on_c, 0, 84, 64
1, 29469, Note_on_c, 1, 69, 0
1, 29469, Note_on_c, 1, 60, 0
1, 29472, Note_on_c, 0, 84, 0
1, 29472, Note_on_c, 0, 79, 64
1, 29472, Note_on_c, 1, 71, 64
1, 29472, Note_on_c, 1, 62, 64
1, 29517, Note_on_c, 0, 79, 0
1, 29517, Note_on_c, 1, 71, 0
1, 29520, Note_on_c, 0, 79, 64
1, 29520, Note_on_c, 1, 69, 64
1, 29528, Note_on_c, 0, 79, 0
1, 29528, Note_on_c, 0, 78, 64
1, 29536, Note_on_c, 0, 78, 0
1, 29536, Note_on_c, 0, 79, 64
1, 29544, Note_on_c, 0, 79, 0
1, 29544, Note_on_c, 0, 78, 64
1, 29552, Note_on_c, 0, 78, 0
1, 29552, Note_on_c, 0, 76, 64
1, 29560, Note_on_c, 0, 76, 0
1, 29560, Note_on_c, 0, 78, 64
1, 29561, Note_on_c, 1, 62, 0
1, 29565, Note_on_c, 1, 69, 0
1, 29568, Note_on_c, 0, 78, 0
1, 29568, Note_on_c, 0, 79, 64
1, 29568, Note_on_c, 1, 67, 64
1, 29613, Note_on_c, 1, 67, 0
1, 29616, Note_on_c, 1, 55, 64
1, 29657, Note_on_c, 0, 79, 0
1, 29661, Note_on_c, 1, 55, 0
1, 29664, Note_on_c, 0, 73, 64
1, 29687, Note_on_c, 0, 73, 0
1, 29688, Note_on_c, 0, 74, 64
1, 29711, Note_on_c, 0, 74, 0
1, 29712, Note_on_c, 0, 76, 64
1, 29735, Note_on_c, 0, 76, 0
1, 29736, Note_on_c, 0, 77, 64
1, 29759, Note_on_c, 0, 77, 0
1, 29760, Note_on_c, 0, 77, 64
1, 29760, Note_on_c, 1, 62, 64
1, 29760, Note_on_c, 1, 52, 64
1, 29783, Note_on_c, 0, 77, 0
1, 29784, Note_on_c, 0, 68, 64
1, 29805, Note_on_c, 1, 62, 0
1, 29805, Note_on_c, 1, 52, 0
1, 29807, Note_on_c, 0, 68, 0
1, 29808, Note_on_c, 0, 77, 64
1, 29808, Note_on_c, 1, 62, 64
1, 29808, Note_on_c, 1, 52, 64
1, 29831, Note_on_c, 0, 77, 0
1, 29832, Note_on_c, 0, 68, 64
1, 29853, Note_on_c, 1, 62, 0
1, 29853, Note_on_c, 1, 52, 0
1, 29855, Note_on_c, 0, 68, 0
1, 29856, Note_on_c, 0, 76, 64
1, 29856, Note_on_c, 1, 60, 64
1, 29856, Note_on_c, 1, 52, 64
1, 29879, Note_on_c, 0, 76, 0
1, 29880, Note_on_c, 0, 69, 64
1, 29901, Note_on_c, 1, 60, 0
1, 29901, Note_on_c, 1, 52, 0
1, 29903, Note_on_c, 0, 69, 0
1, 29904, Note_on_c, 0, 74, 64
1, 29904, Note_on_c, 1, 59, 64
1, 29904, Note_on_c, 1, 52, 64
1, 29927, Note_on_c, 0, 74, 0
1, 29928, Note_on_c, 0, 68, 64
1, 29949, Note_on_c, 1, 59, 0
1, 29949, Note_on_c, 1, 52, 0
1, 29951, Note_on_c, 0, 68, 0
1, 29952, Note_on_c, 0, 74, 64
1, 29952, Note_on_c, 1, 57, 64
1, 29975, Note_on_c, 0, 74, 0
1, 29976, Note_on_c, 0, 72, 64
1, 29997, Note_on_c, 1, 57, 0
1, 29999, Note_on_c, 0, 72, 0
1, 30000, Note_on_c, 0, 71, 64
1, 30000, Note_on_c, 1, 45, 64
1, 30023, Note_on_c, 0, 71, 0
1, 30024, Note_on_c, 0, 69, 64
1, 30045, Note_on_c, 1, 45, 0
1, 30047, Note_on_c, 0, 69, 0
1, 30048, Note_on_c, 0, 74, 64
1, 30048, Note_on_c, 1, 69, 64
1, 30071, Note_on_c, 0, 74, 0
1, 30072, Note_on_c, 0, 72, 64
1, 30093, Note_on_c, 1, 69, 0
1, 30095, Note_on_c, 0, 72, 0
1, 30096, Note_on_c, 0, 81, 64
1, 30096, Note_on_c, 1, 66, 64
1, 30119, Note_on_c, 0, 81, 0
1, 30120, Note_on_c, 0, 72, 64
1, 30141, Note_on_c, 1, 66, 0
1, 30143, Note_on_c, 0, 72, 0
1, 30144, Note_on_c, 0, 72, 64
1, 30144, Note_on_c, 1, 67, 64
1, 30167, Note_on_c, 0, 72, 0
1, 30168, Note_on_c, 0, 71, 64
1, 30189, Note_on_c, 1, 67, 0
1, 30191, Note_on_c, 0, 71, 0
1, 30192, Note_on_c, 0, 79, 64
1, 30192, Note_on_c, 1, 59, 64
1, 30215, Note_on_c, 0, 79, 0
1, 30216, Note_on_c, 0, 71, 64
1, 30237, Note_on_c, 1, 59, 0
1, 30239, Note_on_c, 0, 71, 0
1, 30240, Note_on_c, 0, 71, 64
1, 30240, Note_on_c, 1, 60, 64
1, 30263, Note_on_c, 0, 71, 0
1, 30264, Note_on_c, 0, 69, 64
1, 30285, Note_on_c, 1, 60, 0
1, 30287, Note_on_c, 0, 69, 0
1, 30288, Note_on_c, 0, 76, 64
1, 30288, Note_on_c, 1, 61, 64
1, 30311, Note_on_c, 0, 76, 0
1, 30312, Note_on_c, 0, 67, 64
1, 30333, Note_on_c, 1, 61, 0
1, 30335, Note_on_c, 0, 67, 0
1, 30336, Note_on_c, 0, 67, 64
1, 30336, Note_on_c, 1, 62, 64
1, 30381, Note_on_c, 1, 62, 0
1, 30384, Note_on_c, 0, 67, 0
1, 30384, Note_on_c, 0, 66, 64
1, 30384, Note_on_c, 1, 50, 64
1, 30429, Note_on_c, 0, 66, 0
1, 30429, Note_on_c, 1, 50, 0
1, 30432, Note_on_c, 1, 57, 64
1, 30455, Note_on_c, 1, 57, 0
1, 30456, Note_on_c, 1, 58, 64
1, 30479, Note_on_c, 1, 58, 0
1, 30480, Note_on_c, 1, 59, 64
1, 30503, Note_on_c, 1, 59, 0
1, 30504, Note_on_c, 1, 60, 64
1, 30527, Note_on_c, 1, 60, 0
1, 30528, Note_on_c, 0, 78, 64
1, 30528, Note_on_c, 1, 50, 64
1, 30551, Note_on_c, 0, 78, 0
1, 30552, Note_on_c, 0, 79, 64
1, 30573, Note_on_c, 1, 50, 0
1, 30575, Note_on_c, 0, 79, 0
1, 30576, Note_on_c, 0, 80, 64
1, 30576, Note_on_c, 1, 50, 64
1, 30599, Note_on_c, 0, 80, 0
1, 30600, Note_on_c, 0, 81, 64
1, 30621, Note_on_c, 1, 50, 0
1, 30623, Note_on_c, 0, 81, 0
1, 30624, Note_on_c, 0, 72, 64
1, 30624, Note_on_c, 1, 66, 64
1, 30647, Note_on_c, 1, 66, 0
1, 30648, Note_on_c, 1, 67, 64
1, 30669, Note_on_c, 0, 72, 0
1, 30671, Note_on_c, 1, 67, 0
1, 30672, Note_on_c, 0, 72, 64
1, 30672, Note_on_c, 1, 68, 64
1, 30695, Note_on_c, 1, 68, 0
1, 30696, Note_on_c, 1, 69, 64
1, 30717, Note_on_c, 0, 72, 0
1, 30719, Note_on_c, 1, 69, 0
1, 30720, Note_on_c, 0, 81, 64
1, 30720, Note_on_c, 1, 60, 64
1, 30743, Note_on_c, 0, 81, 0
1, 30744, Note_on_c, 0, 82, 64
1, 30767, Note_on_c, 0, 82, 0
1, 30768, Note_on_c, 0, 83, 64
1, 30791, Note_on_c, 0, 83, 0
1, 30792, Note_on_c, 0, 84, 64
1, 30815, Note_on_c, 0, 84, 0
1, 30816, Note_on_c, 0, 85, 64
1, 30816, Note_on_c, 1, 66, 64
1, 30839, Note_on_c, 0, 85, 0
1, 30840, Note_on_c, 0, 86, 64
1, 30863, Note_on_c, 0, 86, 0
1, 30864, Note_on_c, 0, 87, 64
1, 30887, Note_on_c, 0, 87, 0
1, 30888, Note_on_c, 0, 88, 64
1, 30905, Note_on_c, 1, 66, 0
1, 30911, Note_on_c, 0, 88, 0
1, 30912, Note_on_c, 0, 86, 64
1, 30912, Note_on_c, 1, 67, 64
1, 30912, Note_on_c, 1, 60, 0
1, 30912, Note_on_c, 1, 59, 64
1, 30946, Note_on_c, 0, 86, 0
1, 30948, Note_on_c, 0, 83, 64
1, 30957, Note_on_c, 1, 67, 0
1, 30957, Note_on_c, 1, 59, 0
1, 30960, Note_on_c, 0, 83, 0
1, 30960, Note_on_c, 0, 81, 64
1, 30960, Note_on_c, 1, 69, 64
1, 30960, Note_on_c, 1, 60, 64
1, 30994, Note_on_c, 0, 81, 0
1, 30996, Note_on_c, 0, 84, 64
1, 31005, Note_on_c, 1, 69, 0
1, 31005, Note_on_c, 1, 60, 0
1, 31008, Note_on_c, 0, 84, 0
1, 31008, Note_on_c, 0, 79, 64
1, 31008, Note_on_c, 1, 71, 64
1, 31008, Note_on_c, 1, 62, 64
1, 31053, Note_on_c, 0, 79, 0
1, 31053, Note_on_c, 1, 71, 0
1, 31056, Note_on_c, 0, 79, 64
1, 31056, Note_on_c, 1, 69, 64
1, 31064, Note_on_c, 0, 79, 0
1, 31064, Note_on_c, 0, 78, 64
1, 31072, Note_on_c, 0, 78, 0
1, 31072, Note_on_c, 0, 79, 64
1, 31080, Note_on_c, 0, 79, 0
1, 31080, Note_on_c, 0, 78, 64
1, 31088, Note_on_c, 0, 78, 0
1, 31088, Note_on_c, 0, 76, 64
1, 31096, Note_on_c, 0, 76, 0
1, 31096, Note_on_c, 0, 78, 64
1, 31097, Note_on_c, 1, 62, 0
1, 31101, Note_on_c, 1, 69, 0
1, 31104, Note_on_c, 0, 78, 0
1, 31104, Note_on_c, 0, 79, 64
1, 31104, Note_on_c, 1, 67, 64
1, 31149, Note_on_c, 1, 67, 0
1, 31152, Note_on_c, 1, 55, 64
1, 31193, Note_on_c, 0, 79, 0
1, 31197, Note_on_c, 1, 55, 0
1, 31200, Note_on_c, 1, 57, 64
1, 31215, Note_on_c, 1, 57, 0
1, 31216, Note_on_c, 1, 59, 64
1, 31231, Note_on_c, 1, 59, 0
1, 31232, Note_on_c, 1, 60, 64
1, 31247, Note_on_c, 1, 60, 0
1, 31248, Note_on_c, 1, 57, 64
1, 31263, Note_on_c, 1, 57, 0
1, 31264, Note_on_c, 1, 59, 64
1, 31279, Note_on_c, 1, 59, 0
1, 31280, Note_on_c, 1, 60, 64
1, 31295, Note_on_c, 1, 60, 0
1, 31296, Note_on_c, 0, 78, 64
1, 31296, Note_on_c, 1, 50, 64
1, 31311, Note_on_c, 0, 78, 0
1, 31312, Note_on_c, 0, 79, 64
1, 31327, Note_on_c, 0, 79, 0
1, 31328, Note_on_c, 0, 81, 64
1, 31341, Note_on_c, 1, 50, 0
1, 31343, Note_on_c, 0, 81, 0
1, 31344, Note_on_c, 0, 78, 64
1, 31344, Note_on_c, 1, 50, 64
1, 31359, Note_on_c, 0, 78, 0
1, 31360, Note_on_c, 0, 79, 64
1, 31375, Note_on_c, 0, 79, 0
1, 31376, Note_on_c, 0, 81, 64
1, 31389, Note_on_c, 1, 50, 0
1, 31391, Note_on_c, 0, 81, 0
1, 31392, Note_on_c, 0, 72, 64
1, 31392, Note_on_c, 1, 66, 64
1, 31407, Note_on_c, 1, 66, 0
1, 31408, Note_on_c, 1, 67, 64
1, 31423, Note_on_c, 1, 67, 0
1, 31424, Note_on_c, 1, 69, 64
1, 31437, Note_on_c, 0, 72, 0
1, 31439, Note_on_c, 1, 69, 0
1, 31440, Note_on_c, 0, 72, 64
1, 31440, Note_on_c, 1, 66, 64
1, 31455, Note_on_c, 1, 66, 0
1, 31456, Note_on_c, 1, 67, 64
1, 31471, Note_on_c, 1, 67, 0
1, 31472, Note_on_c, 1, 69, 64
1, 31485, Note_on_c, 0, 72, 0
1, 31487, Note_on_c, 1, 69, 0
1, 31488, Note_on_c, 0, 84, 64
1, 31488, Note_on_c, 1, 60, 64
1, 31503, Note_on_c, 0, 84, 0
1, 31504, Note_on_c, 0, 86, 64
1, 31519, Note_on_c, 0, 86, 0
1, 31520, Note_on_c, 0, 88, 64
1, 31535, Note_on_c, 0, 88, 0
1, 31536, Note_on_c, 0, 81, 64
1, 31551, Note_on_c, 0, 81, 0
1, 31552, Note_on_c, 0, 83, 64
1, 31567, Note_on_c, 0, 83, 0
1, 31568, Note_on_c, 0, 84, 64
1, 31583, Note_on_c, 0, 84, 0
1, 31584, Note_on_c, 0, 78, 64
1, 31599, Note_on_c, 0, 78, 0
1, 31600, Note_on_c, 0, 79, 64
1, 31615, Note_on_c, 0, 79, 0
1, 31616, Note_on_c, 0, 81, 64
1, 31631, Note_on_c, 0, 81, 0
1, 31632, Note_on_c, 0, 72, 64
1, 31647, Note_on_c, 0, 72, 0
1, 31648, Note_on_c, 0, 74, 64
1, 31663, Note_on_c, 0, 74, 0
1, 31664, Note_on_c, 0, 76, 64
1, 31665, Note_on_c, 1, 60, 0
1, 31679, Note_on_c, 0, 76, 0
1, 31680, Note_on_c, 1, 66, 64
1, 31680, Note_on_c, 1, 60, 64
1, 31961, Note_on_c, 1, 66, 0
1, 31961, Note_on_c, 1, 60, 0
1, 31968, Note_on_c, 0, 71, 64
1, 32035, Note_on_c, 0, 71, 0
1, 32040, Note_on_c, 0, 72, 64
1, 32052, Note_on_c, 0, 72, 0
1, 32052, Note_on_c, 0, 74, 64
1, 32064, Note_on_c, 0, 74, 0
1, 32064, Note_on_c, 0, 67, 64
1, 32064, Note_on_c, 1, 59, 64
1, 32064, Note_on_c, 1, 55, 64
1, 32109, Note_on_c, 0, 67, 0
1, 32109, Note_on_c, 1, 59, 0
1, 32109, Note_on_c, 1, 55, 0
1, 32112, Note_on_c, 0, 67, 64
1, 32112, Note_on_c, 1, 59, 64
1, 32112, Note_on_c, 1, 55, 64
1, 32157, Note_on_c, 0, 67, 0
1, 32157, Note_on_c, 1, 59, 0
1, 32157, Note_on_c, 1, 55, 0
1, 32160, Note_on_c, 0, 69, 64
1, 32160, Note_on_c, 1, 60, 64
1, 32160, Note_on_c, 1, 50, 64
1, 32166, Note_on_c, 0, 69, 0
1, 32166, Note_on_c, 0, 71, 64
1, 32172, Note_on_c, 0, 71, 0
1, 32172, Note_on_c, 0, 69, 64
1, 32194, Note_on_c, 0, 69, 0
1, 32196, Note_on_c, 0, 67, 64
1, 32205, Note_on_c, 1, 60, 0
1, 32205, Note_on_c, 1, 50, 0
1, 32208, Note_on_c, 0, 67, 0
1, 32208, Note_on_c, 0, 69, 64
1, 32208, Note_on_c, 1, 60, 64
1, 32208, Note_on_c, 1, 50, 64
1, 32242, Note_on_c, 0, 69, 0
1, 32244, Note_on_c, 0, 71, 64
1, 32253, Note_on_c, 1, 60, 0
1, 32253, Note_on_c, 1, 50, 0
1, 32256, Note_on_c, 0, 71, 0
1, 32256, Note_on_c, 0, 67, 64
1, 32256, Note_on_c, 1, 59, 64
1, 32256, Note_on_c, 1, 55, 64
1, 32301, Note_on_c, 0, 67, 0
1, 32301, Note_on_c, 1, 59, 0
1, 32301, Note_on_c, 1, 55, 0
1, 32328, Note_on_c, 0, 86, 64
1, 32351, Note_on_c, 0, 86, 0
1, 32352, Note_on_c, 0, 85, 64
1, 32367, Note_on_c, 0, 85, 0
1, 32368, Note_on_c, 0, 84, 64
1, 32383, Note_on_c, 0, 84, 0
1, 32384, Note_on_c, 0, 83, 64
1, 32399, Note_on_c, 0, 83, 0
1, 32400, Note_on_c, 0, 82, 64
1, 32415, Note_on_c, 0, 82, 0
1, 32416, Note_on_c, 0, 81, 64
1, 32431, Note_on_c, 0, 81, 0
1, 32432, Note_on_c, 0, 80, 64
1, 32447, Note_on_c, 0, 80, 0
1, 32448, Note_on_c, 0, 79, 64
1, 32448, Note_on_c, 1, 71, 64
1, 32448, Note_on_c, 1, 67, 64
1, 32493, Note_on_c, 0, 79, 0
1, 32493, Note_on_c, 1, 71, 0
1, 32493, Note_on_c, 1, 67, 0
1, 32496, Note_on_c, 0, 79, 64
1, 32496, Note_on_c, 1, 71, 64
1, 32496, Note_on_c, 1, 67, 64
1, 32541, Note_on_c, 0, 79, 0
1, 32541, Note_on_c, 1, 71, 0
1, 32541, Note_on_c, 1, 67, 0
1, 32544, Note_on_c, 0, 81, 64
1, 32544, Note_on_c, 1, 72, 64
1, 32544, Note_on_c, 1, 62, 64
1, 32550, Note_on_c, 0, 81, 0
1, 32550, Note_on_c, 0, 83, 64
1, 32556, Note_on_c, 0, 83, 0
1, 32556, Note_on_c, 0, 81, 64
1, 32578, Note_on_c, 0, 81, 0
1, 32580, Note_on_c, 0, 79, 64
1, 32589, Note_on_c, 1, 72, 0
1, 32589, Note_on_c, 1, 62, 0
1, 32592, Note_on_c, 0, 79, 0
1, 32592, Note_on_c, 0, 81, 64
1, 32592, Note_on_c, 1, 72, 64
1, 32592, Note_on_c, 1, 62, 64
1, 32626, Note_on_c, 0, 81, 0
1, 32628, Note_on_c, 0, 83, 64
1, 32637, Note_on_c, 1, 72, 0
1, 32637, Note_on_c, 1, 62, 0
1, 32640, Note_on_c, 0, 83, 0
1, 32640, Note_on_c, 0, 79, 64
1, 32640, Note_on_c, 1, 71, 64
1, 32640, Note_on_c, 1, 67, 64
1, 32685, Note_on_c, 0, 79, 0
1, 32685, Note_on_c, 1, 71, 0
1, 32685, Note_on_c, 1, 67, 0
1, 32736, Note_on_c, 0, 72, 64
1, 32736, Note_on_c, 1, 66, 64
1, 32736, Note_on_c, 1, 62, 64
1, 32742, Note_on_c, 0, 72, 0
1, 32742, Note_on_c, 0, 74, 64
1, 32748, Note_on_c, 0, 74, 0
1, 32748, Note_on_c, 0, 72, 64
1, 32770, Note_on_c, 0, 72, 0
1, 32772, Note_on_c, 0, 71, 64
1, 32781, Note_on_c, 1, 66, 0
1, 32781, Note_on_c, 1, 62, 0
1, 32784, Note_on_c, 0, 71, 0
1, 32784, Note_on_c, 0, 72, 64
1, 32784, Note_on_c, 1, 66, 64
1, 32784, Note_on_c, 1, 62, 64
1, 32818, Note_on_c, 0, 72, 0
1, 32820, Note_on_c, 0, 74, 64
1, 32829, Note_on_c, 1, 66, 0
1, 32829, Note_on_c, 1, 62, 0
1, 32832, Note_on_c, 0, 74, 0
1, 32832, Note_on_c, 0, 71, 64
1, 32832, Note_on_c, 1, 67, 64
1, 32877, Note_on_c, 0, 71, 0
1, 32877, Note_on_c, 1, 67, 0
1, 32928, Note_on_c, 0, 69, 64
1, 32928, Note_on_c, 1, 60, 64
1, 32928, Note_on_c, 1, 57, 64
1, 32928, Note_on_c, 1, 54, 64
1, 32928, Note_on_c, 1, 50, 64
1, 32934, Note_on_c, 0, 69, 0
1, 32934, Note_on_c, 0, 71, 64
1, 32940, Note_on_c, 0, 71, 0
1, 32940, Note_on_c, 0, 69, 64
1, 32962, Note_on_c, 0, 69, 0
1, 32964, Note_on_c, 0, 67, 64
1, 32973, Note_on_c, 1, 60, 0
1, 32973, Note_on_c, 1, 57, 0
1, 32973, Note_on_c, 1, 54, 0
1, 32973, Note_on_c, 1, 50, 0
1, 32976, Note_on_c, 0, 67, 0
1, 32976, Note_on_c, 0, 69, 64
1, 32976, Note_on_c, 1, 60, 64
1, 32976, Note_on_c, 1, 57, 64
1, 32976, Note_on_c, 1, 54, 64
1, 32976, Note_on_c, 1, 50, 64
1, 33010, Note_on_c, 0, 69, 0
1, 33012, Note_on_c, 0, 71, 64
1, 33021, Note_on_c, 1, 60, 0
1, 33021, Note_on_c, 1, 57, 0
1, 33021, Note_on_c, 1, 54, 0
1, 33021, Note_on_c, 1, 50, 0
1, 33024, Note_on_c, 0, 71, 0
1, 33024, Note_on_c, 0, 67, 64
1, 33024, Note_on_c, 1, 59, 64
1, 33024, Note_on_c, 1, 55, 64
1, 33069, Note_on_c, 0, 67, 0
1, 33069, Note_on_c, 1, 59, 0
1, 33069, Note_on_c, 1, 55, 0
1, 33120, Note_on_c, 0, 78, 64
1, 33120, Note_on_c, 0, 74, 64
1, 33120, Note_on_c, 0, 72, 64
1, 33120, Note_on_c, 0, 69, 64
1, 33120, Note_on_c, 1, 50, 64
1, 33120, Note_on_c, 1, 38, 64
1, 33165, Note_on_c, 0, 78, 0
1, 33165, Note_on_c, 0, 74, 0
1, 33165, Note_on_c, 0, 72, 0
1, 33165, Note_on_c, 0, 69, 0
1, 33165, Note_on_c, 1, 50, 0
1, 33165, Note_on_c, 1, 38, 0
1, 33216, Note_on_c, 0, 79, 64
1, 33216, Note_on_c, 0, 74, 64
1, 33216, Note_on_c, 0, 71, 64
1, 33216, Note_on_c, 1, 43, 64
1, 33216, Note_on_c, 1, 31, 64
1, 33283, Note_on_c, 0, 79, 0
1, 33283, Note_on_c, 0, 74, 0
1, 33283, Note_on_c, 0, 71, 0
1, 33283, Note_on_c, 1, 43, 0
1, 33283, Note_on_c, 1, 31, 0
1, 33293, End_track
0, 0, End_of_file