0, 0, Header, 0, 1, 96
1, 0, Start_track
1, 0, Tempo, 375000
1, 0, Note_on_c, 0, 76, 79
1, 96, Note_on_c, 1, 67, 73
1, 96, Note_on_c, 1, 60, 73
1, 163, Note_on_c, 0, 76, 0
1, 168, Note_on_c, 0, 77, 79
1, 185, Note_on_c, 1, 67, 0
1, 185, Note_on_c, 1, 60, 0
1, 191, Note_on_c, 0, 77, 0
1, 192, Note_on_c, 0, 74, 79
1, 192, Note_on_c, 1, 67, 73
1, 192, Note_on_c, 1, 65, 73
1, 259, Note_on_c, 0, 74, 0
1, 264, Note_on_c, 0, 76, 80
1, 281, Note_on_c, 1, 67, 0
1, 281, Note_on_c, 1, 65, 0
1, 287, Note_on_c, 0, 76, 0
1, 288, Note_on_c, 0, 72, 81
1, 288, Note_on_c, 1, 67, 73
1, 288, Note_on_c, 1, 64, 73
1, 377, Note_on_c, 0, 72, 0
1, 377, Note_on_c, 1, 67, 0
1, 377, Note_on_c, 1, 64, 0
1, 384, Note_on_c, 0, 79, 83
1, 473, Note_on_c, 0, 79, 0
1, 480, Note_on_c, 0, 79, 85
1, 569, Note_on_c, 0, 79, 0
1, 576, Note_on_c, 0, 79, 85
1, 576, Note_on_c, 1, 67, 73
1, 576, Note_on_c, 1, 59, 64
1, 624, Note_on_c, 0, 79, 0
1, 624, Note_on_c, 0, 77, 84
1, 669, Note_on_c, 0, 77, 0
1, 672, Note_on_c, 0, 77, 84
1, 720, Note_on_c, 0, 77, 0
1, 720, Note_on_c, 0, 76, 83
1, 753, Note_on_c, 1, 59, 0
1, 765, Note_on_c, 0, 76, 0
1, 768, Note_on_c, 0, 76, 83
1, 768, Note_on_c, 1, 60, 64
1, 816, Note_on_c, 0, 76, 0
1, 816, Note_on_c, 0, 74, 82
1, 857, Note_on_c, 1, 60, 0
1, 861, Note_on_c, 0, 74, 0
1, 864, Note_on_c, 0, 74, 82
1, 864, Note_on_c, 1, 55, 73
1, 903, Note_on_c, 0, 74, 0
1, 953, Note_on_c, 1, 67, 0
1, 953, Note_on_c, 1, 55, 0
1, 960, Note_on_c, 0, 71, 81
1, 999, Note_on_c, 0, 71, 0
1, 1056, Note_on_c, 0, 67, 80
1, 1095, Note_on_c, 0, 67, 0
1, 1152, Note_on_c, 0, 76, 79
1, 1248, Note_on_c, 1, 67, 73
1, 1248, Note_on_c, 1, 60, 73
1, 1315, Note_on_c, 0, 76, 0
1, 1320, Note_on_c, 0, 77, 80
1, 1337, Note_on_c, 1, 67, 0
1, 1337, Note_on_c, 1, 60, 0
1, 1343, Note_on_c, 0, 77, 0
1, 1344, Note_on_c, 0, 74, 80
1, 1344, Note_on_c, 1, 67, 73
1, 1344, Note_on_c, 1, 65, 73
1, 1411, Note_on_c, 0, 74, 0
1, 1416, Note_on_c, 0, 76, 81
1, 1433, Note_on_c, 1, 67, 0
1, 1433, Note_on_c, 1, 65, 0
1, 1439, Note_on_c, 0, 76, 0
1, 1440, Note_on_c, 0, 72, 82
1, 1440, Note_on_c, 1, 67, 73
1, 1440, Note_on_c, 1, 64, 73
1, 1529, Note_on_c, 0, 72, 0
1, 1529, Note_on_c, 1, 67, 0
1, 1529, Note_on_c, 1, 64, 0
1, 1536, Note_on_c, 0, 84, 83
1, 1625, Note_on_c, 0, 84, 0
1, 1632, Note_on_c, 0, 84, 85
1, 1632, Note_on_c, 1, 60, 73
1, 1632, Note_on_c, 1, 52, 73
1, 1721, Note_on_c, 0, 84, 0
1, 1721, Note_on_c, 1, 60, 0
1, 1721, Note_on_c, 1, 52, 0
1, 1728, Note_on_c, 0, 80, 85
1, 1728, Note_on_c, 1, 60, 73
1, 1728, Note_on_c, 1, 53, 73
1, 1752, Note_on_c, 0, 80, 0
1, 1752, Note_on_c, 0, 81, 84
1, 1775, Note_on_c, 0, 81, 0
1, 1817, Note_on_c, 1, 60, 0
1, 1817, Note_on_c, 1, 53, 0
1, 1824, Note_on_c, 0, 76, 82
1, 1848, Note_on_c, 0, 76, 0
1, 1848, Note_on_c, 0, 77, 82
1, 1871, Note_on_c, 0, 77, 0
1, 1920, Note_on_c, 0, 74, 80
1, 1920, Note_on_c, 1, 65, 73
1, 1920, Note_on_c, 1, 55, 73
1, 1944, Note_on_c, 0, 74, 0
1, 1944, Note_on_c, 0, 71, 79
1, 1967, Note_on_c, 0, 71, 0
1, 2009, Note_on_c, 1, 65, 0
1, 2009, Note_on_c, 1, 55, 0
1, 2016, Note_on_c, 0, 72, 79
1, 2016, Note_on_c, 1, 64, 73
1, 2016, Note_on_c, 1, 60, 73
1, 2105, Note_on_c, 0, 72, 0
1, 2105, Note_on_c, 1, 64, 0
1, 2105, Note_on_c, 1, 60, 0
1, 2304, Note_on_c, 0, 76, 79
1, 2400, Note_on_c, 1, 67, 73
1, 2400, Note_on_c, 1, 60, 73
1, 2467, Note_on_c, 0, 76, 0
1, 2472, Note_on_c, 0, 77, 79
1, 2489, Note_on_c, 1, 67, 0
1, 2489, Note_on_c, 1, 60, 0
1, 2495, Note_on_c, 0, 77, 0
1, 2496, Note_on_c, 0, 74, 79
1, 2496, Note_on_c, 1, 67, 73
1, 2496, Note_on_c, 1, 65, 73
1, 2563, Note_on_c, 0, 74, 0
1, 2568, Note_on_c, 0, 76, 80
1, 2585, Note_on_c, 1, 67, 0
1, 2585, Note_on_c, 1, 65, 0
1, 2591, Note_on_c, 0, 76, 0
1, 2592, Note_on_c, 0, 72, 81
1, 2592, Note_on_c, 1, 67, 73
1, 2592, Note_on_c, 1, 64, 73
1, 2681, Note_on_c, 0, 72, 0
1, 2681, Note_on_c, 1, 67, 0
1, 2681, Note_on_c, 1, 64, 0
1, 2688, Note_on_c, 0, 79, 83
1, 2777, Note_on_c, 0, 79, 0
1, 2784, Note_on_c, 0, 79, 85
1, 2873, Note_on_c, 0, 79, 0
1, 2880, Note_on_c, 0, 79, 85
1, 2880, Note_on_c, 1, 67, 73
1, 2880, Note_on_c, 1, 59, 64
1, 2928, Note_on_c, 0, 79, 0
1, 2928, Note_on_c, 0, 77, 84
1, 2973, Note_on_c, 0, 77, 0
1, 2976, Note_on_c, 0, 77, 84
1, 3024, Note_on_c, 0, 77, 0
1, 3024, Note_on_c, 0, 76, 83
1, 3057, Note_on_c, 1, 59, 0
1, 3069, Note_on_c, 0, 76, 0
1, 3072, Note_on_c, 0, 76, 83
1, 3072, Note_on_c, 1, 60, 64
1, 3120, Note_on_c, 0, 76, 0
1, 3120, Note_on_c, 0, 74, 82
1, 3161, Note_on_c, 1, 60, 0
1, 3165, Note_on_c, 0, 74, 0
1, 3168, Note_on_c, 0, 74, 82
1, 3168, Note_on_c, 1, 55, 73
1, 3207, Note_on_c, 0, 74, 0
1, 3257, Note_on_c, 1, 67, 0
1, 3257, Note_on_c, 1, 55, 0
1, 3264, Note_on_c, 0, 71, 81
1, 3303, Note_on_c, 0, 71, 0
1, 3360, Note_on_c, 0, 67, 80
1, 3399, Note_on_c, 0, 67, 0
1, 3456, Note_on_c, 0, 76, 79
1, 3552, Note_on_c, 1, 67, 73
1, 3552, Note_on_c, 1, 60, 73
1, 3619, Note_on_c, 0, 76, 0
1, 3624, Note_on_c, 0, 77, 80
1, 3641, Note_on_c, 1, 67, 0
1, 3641, Note_on_c, 1, 60, 0
1, 3647, Note_on_c, 0, 77, 0
1, 3648, Note_on_c, 0, 74, 80
1, 3648, Note_on_c, 1, 67, 73
1, 3648, Note_on_c, 1, 65, 73
1, 3715, Note_on_c, 0, 74, 0
1, 3720, Note_on_c, 0, 76, 81
1, 3737, Note_on_c, 1, 67, 0
1, 3737, Note_on_c, 1, 65, 0
1, 3743, Note_on_c, 0, 76, 0
1, 3744, Note_on_c, 0, 72, 82
1, 3744, Note_on_c, 1, 67, 73
1, 3744, Note_on_c, 1, 64, 73
1, 3833, Note_on_c, 0, 72, 0
1, 3833, Note_on_c, 1, 67, 0
1, 3833, Note_on_c, 1, 64, 0
1, 3840, Note_on_c, 0, 84, 83
1, 3929, Note_on_c, 0, 84, 0
1, 3936, Note_on_c, 0, 84, 85
1, 3936, Note_on_c, 1, 60, 73
1, 3936, Note_on_c, 1, 52, 73
1, 4025, Note_on_c, 0, 84, 0
1, 4025, Note_on_c, 1, 60, 0
1, 4025, Note_on_c, 1, 52, 0
1, 4032, Note_on_c, 0, 80, 85
1, 4032, Note_on_c, 1, 60, 73
1, 4032, Note_on_c, 1, 53, 73
1, 4056, Note_on_c, 0, 80, 0
1, 4056, Note_on_c, 0, 81, 84
1, 4079, Note_on_c, 0, 81, 0
1, 4121, Note_on_c, 1, 60, 0
1, 4121, Note_on_c, 1, 53, 0
1, 4128, Note_on_c, 0, 76, 82
1, 4152, Note_on_c, 0, 76, 0
1, 4152, Note_on_c, 0, 77, 82
1, 4175, Note_on_c, 0, 77, 0
1, 4224, Note_on_c, 0, 74, 80
1, 4224, Note_on_c, 1, 65, 73
1, 4224, Note_on_c, 1, 55, 73
1, 4248, Note_on_c, 0, 74, 0
1, 4248, Note_on_c, 0, 71, 79
1, 4271, Note_on_c, 0, 71, 0
1, 4313, Note_on_c, 1, 65, 0
1, 4313, Note_on_c, 1, 55, 0
1, 4320, Note_on_c, 0, 72, 79
1, 4320, Note_on_c, 1, 64, 73
1, 4320, Note_on_c, 1, 60, 73
1, 4409, Note_on_c, 0, 72, 0
1, 4409, Note_on_c, 1, 64, 0
1, 4409, Note_on_c, 1, 60, 0
1, 4608, Note_on_c, 0, 77, 79
1, 4704, Note_on_c, 1, 67, 73
1, 4704, Note_on_c, 1, 59, 73
1, 4771, Note_on_c, 0, 77, 0
1, 4776, Note_on_c, 0, 79, 79
1, 4793, Note_on_c, 1, 67, 0
1, 4793, Note_on_c, 1, 59, 0
1, 4799, Note_on_c, 0, 79, 0
1, 4800, Note_on_c, 0, 76, 79
1, 4800, Note_on_c, 1, 67, 73
1, 4800, Note_on_c, 1, 60, 73
1, 4867, Note_on_c, 0, 76, 0
1, 4872, Note_on_c, 0, 77, 79
1, 4889, Note_on_c, 1, 67, 0
1, 4889, Note_on_c, 1, 60, 0
1, 4895, Note_on_c, 0, 77, 0
1, 4896, Note_on_c, 0, 74, 79
1, 4896, Note_on_c, 1, 67, 73
1, 4896, Note_on_c, 1, 55, 73
1, 4935, Note_on_c, 0, 74, 0
1, 4985, Note_on_c, 1, 67, 0
1, 4985, Note_on_c, 1, 55, 0
1, 4992, Note_on_c, 0, 71, 79
1, 5031, Note_on_c, 0, 71, 0
1, 5088, Note_on_c, 0, 67, 79
1, 5127, Note_on_c, 0, 67, 0
1, 5184, Note_on_c, 0, 84, 79
1, 5280, Note_on_c, 1, 67, 73
1, 5280, Note_on_c, 1, 64, 73
1, 5347, Note_on_c, 0, 84, 0
1, 5352, Note_on_c, 0, 86, 79
1, 5375, Note_on_c, 0, 86, 0
1, 5376, Note_on_c, 0, 83, 79
1, 5376, Note_on_c, 1, 67, 0
1, 5376, Note_on_c, 1, 64, 0
1, 5376, Note_on_c, 1, 66, 73
1, 5376, Note_on_c, 1, 62, 73
1, 5443, Note_on_c, 0, 83, 0
1, 5448, Note_on_c, 0, 84, 79
1, 5465, Note_on_c, 1, 66, 0
1, 5465, Note_on_c, 1, 62, 0
1, 5471, Note_on_c, 0, 84, 0
1, 5472, Note_on_c, 0, 81, 79
1, 5568, Note_on_c, 1, 64, 73
1, 5568, Note_on_c, 1, 60, 73
1, 5635, Note_on_c, 0, 81, 0
1, 5640, Note_on_c, 0, 83, 79
1, 5663, Note_on_c, 0, 83, 0
1, 5664, Note_on_c, 0, 79, 79
1, 5664, Note_on_c, 1, 64, 0
1, 5664, Note_on_c, 1, 60, 0
1, 5664, Note_on_c, 1, 62, 73
1, 5664, Note_on_c, 1, 59, 73
1, 5731, Note_on_c, 0, 79, 0
1, 5736, Note_on_c, 0, 81, 79
1, 5753, Note_on_c, 1, 62, 0
1, 5753, Note_on_c, 1, 59, 0
1, 5759, Note_on_c, 0, 81, 0
1, 5760, Note_on_c, 0, 78, 79
1, 5760, Note_on_c, 1, 60, 73
1, 5760, Note_on_c, 1, 57, 73
1, 5827, Note_on_c, 0, 78, 0
1, 5832, Note_on_c, 0, 81, 79
1, 5855, Note_on_c, 0, 81, 0
1, 5856, Note_on_c, 0, 84, 79
1, 5923, Note_on_c, 0, 84, 0
1, 5928, Note_on_c, 0, 81, 79
1, 5937, Note_on_c, 1, 60, 0
1, 5937, Note_on_c, 1, 57, 0
1, 5951, Note_on_c, 0, 81, 0
1, 5952, Note_on_c, 0, 78, 79
1, 5952, Note_on_c, 1, 50, 73
1, 6019, Note_on_c, 0, 78, 0
1, 6024, Note_on_c, 0, 81, 79
1, 6041, Note_on_c, 1, 50, 0
1, 6047, Note_on_c, 0, 81, 0
1, 6048, Note_on_c, 0, 79, 79
1, 6048, Note_on_c, 1, 55, 73
1, 6115, Note_on_c, 1, 55, 0
1, 6120, Note_on_c, 1, 59, 73
1, 6137, Note_on_c, 0, 79, 0
1, 6143, Note_on_c, 1, 59, 0
1, 6144, Note_on_c, 0, 79, 85
1, 6144, Note_on_c, 1, 62, 73
1, 6211, Note_on_c, 1, 62, 0
1, 6216, Note_on_c, 1, 67, 73
1, 6233, Note_on_c, 0, 79, 0
1, 6239, Note_on_c, 1, 67, 0
1, 6240, Note_on_c, 0, 79, 82
1, 6240, Note_on_c, 1, 71, 73
1, 6307, Note_on_c, 1, 71, 0
1, 6312, Note_on_c, 1, 67, 73
1, 6329, Note_on_c, 0, 79, 0
1, 6335, Note_on_c, 1, 67, 0
1, 6336, Note_on_c, 0, 78, 79
1, 6336, Note_on_c, 1, 60, 73
1, 6336, Note_on_c, 1, 57, 73
1, 6403, Note_on_c, 0, 78, 0
1, 6408, Note_on_c, 0, 81, 79
1, 6431, Note_on_c, 0, 81, 0
1, 6432, Note_on_c, 0, 84, 79
1, 6499, Note_on_c, 0, 84, 0
1, 6504, Note_on_c, 0, 81, 79
1, 6513, Note_on_c, 1, 60, 0
1, 6513, Note_on_c, 1, 57, 0
1, 6527, Note_on_c, 0, 81, 0
1, 6528, Note_on_c, 0, 78, 79
1, 6595, Note_on_c, 0, 78, 0
1, 6600, Note_on_c, 0, 81, 79
1, 6623, Note_on_c, 0, 81, 0
1, 6624, Note_on_c, 0, 79, 79
1, 6624, Note_on_c, 1, 55, 73
1, 6691, Note_on_c, 1, 55, 0
1, 6696, Note_on_c, 1, 59, 73
1, 6713, Note_on_c, 0, 79, 0
1, 6719, Note_on_c, 1, 59, 0
1, 6720, Note_on_c, 0, 79, 85
1, 6720, Note_on_c, 1, 50, 73
1, 6787, Note_on_c, 1, 50, 0
1, 6792, Note_on_c, 1, 55, 73
1, 6809, Note_on_c, 0, 79, 0
1, 6815, Note_on_c, 1, 55, 0
1, 6816, Note_on_c, 0, 79, 82
1, 6816, Note_on_c, 1, 47, 73
1, 6883, Note_on_c, 1, 47, 0
1, 6888, Note_on_c, 1, 50, 73
1, 6905, Note_on_c, 0, 79, 0
1, 6911, Note_on_c, 1, 50, 0
1, 6912, Note_on_c, 0, 79, 79
1, 6912, Note_on_c, 1, 43, 73
1, 7177, Note_on_c, 1, 43, 0
1, 7363, Note_on_c, 0, 79, 0
1, 7368, Note_on_c, 0, 81, 68
1, 7391, Note_on_c, 0, 81, 0
1, 7392, Note_on_c, 0, 77, 68
1, 7459, Note_on_c, 0, 77, 0
1, 7464, Note_on_c, 0, 79, 68
1, 7487, Note_on_c, 0, 79, 0
1, 7488, Note_on_c, 0, 76, 68
1, 7584, Note_on_c, 1, 67, 68
1, 7584, Note_on_c, 1, 60, 68
1, 7651, Note_on_c, 0, 76, 0
1, 7656, Note_on_c, 0, 77, 69
1, 7673, Note_on_c, 1, 67, 0
1, 7673, Note_on_c, 1, 60, 0
1, 7679, Note_on_c, 0, 77, 0
1, 7680, Note_on_c, 0, 74, 70
1, 7680, Note_on_c, 1, 67, 68
1, 7680, Note_on_c, 1, 65, 68
1, 7747, Note_on_c, 0, 74, 0
1, 7752, Note_on_c, 0, 76, 70
1, 7769, Note_on_c, 1, 67, 0
1, 7769, Note_on_c, 1, 65, 0
1, 7775, Note_on_c, 0, 76, 0
1, 7776, Note_on_c, 0, 72, 71
1, 7776, Note_on_c, 1, 67, 68
1, 7776, Note_on_c, 1, 64, 68
1, 7865, Note_on_c, 0, 72, 0
1, 7865, Note_on_c, 1, 67, 0
1, 7865, Note_on_c, 1, 64, 0
1, 7872, Note_on_c, 0, 79, 72
1, 7961, Note_on_c, 0, 79, 0
1, 7968, Note_on_c, 0, 79, 73
1, 8057, Note_on_c, 0, 79, 0
1, 8064, Note_on_c, 0, 79, 73
1, 8064, Note_on_c, 1, 67, 68
1, 8064, Note_on_c, 1, 59, 64
1, 8112, Note_on_c, 0, 79, 0
1, 8112, Note_on_c, 0, 77, 72
1, 8157, Note_on_c, 0, 77, 0
1, 8160, Note_on_c, 0, 77, 72
1, 8208, Note_on_c, 0, 77, 0
1, 8208, Note_on_c, 0, 76, 71
1, 8241, Note_on_c, 1, 59, 0
1, 8253, Note_on_c, 0, 76, 0
1, 8256, Note_on_c, 0, 76, 71
1, 8256, Note_on_c, 1, 60, 64
1, 8304, Note_on_c, 0, 76, 0
1, 8304, Note_on_c, 0, 74, 70
1, 8345, Note_on_c, 1, 60, 0
1, 8349, Note_on_c, 0, 74, 0
1, 8352, Note_on_c, 0, 74, 70
1, 8352, Note_on_c, 1, 55, 68
1, 8391, Note_on_c, 0, 74, 0
1, 8441, Note_on_c, 1, 67, 0
1, 8441, Note_on_c, 1, 55, 0
1, 8448, Note_on_c, 0, 71, 69
1, 8487, Note_on_c, 0, 71, 0
1, 8544, Note_on_c, 0, 67, 68
1, 8583, Note_on_c, 0, 67, 0
1, 8640, Note_on_c, 0, 76, 79
1, 8736, Note_on_c, 1, 67, 73
1, 8736, Note_on_c, 1, 60, 73
1, 8803, Note_on_c, 0, 76, 0
1, 8808, Note_on_c, 0, 77, 80
1, 8825, Note_on_c, 1, 67, 0
1, 8825, Note_on_c, 1, 60, 0
1, 8831, Note_on_c, 0, 77, 0
1, 8832, Note_on_c, 0, 74, 80
1, 8832, Note_on_c, 1, 67, 73
1, 8832, Note_on_c, 1, 65, 73
1, 8899, Note_on_c, 0, 74, 0
1, 8904, Note_on_c, 0, 76, 81
1, 8921, Note_on_c, 1, 67, 0
1, 8921, Note_on_c, 1, 65, 0
1, 8927, Note_on_c, 0, 76, 0
1, 8928, Note_on_c, 0, 72, 82
1, 8928, Note_on_c, 1, 67, 73
1, 8928, Note_on_c, 1, 64, 73
1, 8928, Note_on_c, 1, 67, 64
1, 9017, Note_on_c, 0, 72, 0
1, 9017, Note_on_c, 1, 67, 0
1, 9017, Note_on_c, 1, 64, 0
1, 9017, Note_on_c, 1, 67, 0
1, 9024, Note_on_c, 0, 84, 83
1, 9113, Note_on_c, 0, 84, 0
1, 9120, Note_on_c, 0, 84, 85
1, 9120, Note_on_c, 1, 60, 73
1, 9120, Note_on_c, 1, 52, 73
1, 9209, Note_on_c, 0, 84, 0
1, 9209, Note_on_c, 1, 60, 0
1, 9209, Note_on_c, 1, 52, 0
1, 9216, Note_on_c, 0, 80, 85
1, 9216, Note_on_c, 1, 60, 73
1, 9216, Note_on_c, 1, 53, 73
1, 9240, Note_on_c, 0, 80, 0
1, 9240, Note_on_c, 0, 81, 84
1, 9263, Note_on_c, 0, 81, 0
1, 9305, Note_on_c, 1, 60, 0
1, 9305, Note_on_c, 1, 53, 0
1, 9312, Note_on_c, 0, 76, 82
1, 9336, Note_on_c, 0, 76, 0
1, 9336, Note_on_c, 0, 77, 82
1, 9359, Note_on_c, 0, 77, 0
1, 9408, Note_on_c, 0, 74, 80
1, 9408, Note_on_c, 1, 65, 73
1, 9408, Note_on_c, 1, 55, 73
1, 9432, Note_on_c, 0, 74, 0
1, 9432, Note_on_c, 0, 71, 79
1, 9455, Note_on_c, 0, 71, 0
1, 9497, Note_on_c, 1, 65, 0
1, 9497, Note_on_c, 1, 55, 0
1, 9504, Note_on_c, 0, 72, 79
1, 9504, Note_on_c, 1, 64, 73
1, 9504, Note_on_c, 1, 60, 73
1, 9593, Note_on_c, 0, 72, 0
1, 9593, Note_on_c, 1, 64, 0
1, 9593, Note_on_c, 1, 60, 0
1, 9792, Note_on_c, 0, 77, 79
1, 9888, Note_on_c, 1, 67, 73
1, 9888, Note_on_c, 1, 59, 73
1, 9955, Note_on_c, 0, 77, 0
1, 9960, Note_on_c, 0, 79, 79
1, 9977, Note_on_c, 1, 67, 0
1, 9977, Note_on_c, 1, 59, 0
1, 9983, Note_on_c, 0, 79, 0
1, 9984, Note_on_c, 0, 76, 79
1, 9984, Note_on_c, 1, 67, 73
1, 9984, Note_on_c, 1, 60, 73
1, 10051, Note_on_c, 0, 76, 0
1, 10056, Note_on_c, 0, 77, 79
1, 10073, Note_on_c, 1, 67, 0
1, 10073, Note_on_c, 1, 60, 0
1, 10079, Note_on_c, 0, 77, 0
1, 10080, Note_on_c, 0, 74, 79
1, 10080, Note_on_c, 1, 67, 73
1, 10080, Note_on_c, 1, 55, 73
1, 10119, Note_on_c, 0, 74, 0
1, 10169, Note_on_c, 1, 67, 0
1, 10169, Note_on_c, 1, 55, 0
1, 10176, Note_on_c, 0, 71, 79
1, 10215, Note_on_c, 0, 71, 0
1, 10272, Note_on_c, 0, 67, 79
1, 10311, Note_on_c, 0, 67, 0
1, 10368, Note_on_c, 0, 84, 79
1, 10464, Note_on_c, 1, 67, 73
1, 10464, Note_on_c, 1, 64, 73
1, 10531, Note_on_c, 0, 84, 0
1, 10536, Note_on_c, 0, 86, 79
1, 10559, Note_on_c, 0, 86, 0
1, 10560, Note_on_c, 0, 83, 79
1, 10560, Note_on_c, 1, 67, 0
1, 10560, Note_on_c, 1, 64, 0
1, 10560, Note_on_c, 1, 66, 73
1, 10560, Note_on_c, 1, 62, 73
1, 10627, Note_on_c, 0, 83, 0
1, 10632, Note_on_c, 0, 84, 79
1, 10649, Note_on_c, 1, 66, 0
1, 10649, Note_on_c, 1, 62, 0
1, 10655, Note_on_c, 0, 84, 0
1, 10656, Note_on_c, 0, 81, 79
1, 10752, Note_on_c, 1, 64, 73
1, 10752, Note_on_c, 1, 60, 73
1, 10819, Note_on_c, 0, 81, 0
1, 10824, Note_on_c, 0, 83, 79
1, 10847, Note_on_c, 0, 83, 0
1, 10848, Note_on_c, 0, 79, 79
1, 10848, Note_on_c, 1, 64, 0
1, 10848, Note_on_c, 1, 60, 0
1, 10848, Note_on_c, 1, 62, 73
1, 10848, Note_on_c, 1, 59, 73
1, 10915, Note_on_c, 0, 79, 0
1, 10920, Note_on_c, 0, 81, 79
1, 10937, Note_on_c, 1, 62, 0
1, 10937, Note_on_c, 1, 59, 0
1, 10943, Note_on_c, 0, 81, 0
1, 10944, Note_on_c, 0, 78, 79
1, 10944, Note_on_c, 1, 60, 73
1, 10944, Note_on_c, 1, 57, 73
1, 11011, Note_on_c, 0, 78, 0
1, 11016, Note_on_c, 0, 81, 79
1, 11039, Note_on_c, 0, 81, 0
1, 11040, Note_on_c, 0, 84, 79
1, 11107, Note_on_c, 0, 84, 0
1, 11112, Note_on_c, 0, 81, 79
1, 11121, Note_on_c, 1, 60, 0
1, 11121, Note_on_c, 1, 57, 0
1, 11135, Note_on_c, 0, 81, 0
1, 11136, Note_on_c, 0, 78, 79
1, 11136, Note_on_c, 1, 50, 73
1, 11203, Note_on_c, 0, 78, 0
1, 11208, Note_on_c, 0, 81, 79
1, 11225, Note_on_c, 1, 50, 0
1, 11231, Note_on_c, 0, 81, 0
1, 11232, Note_on_c, 0, 79, 79
1, 11232, Note_on_c, 1, 55, 73
1, 11299, Note_on_c, 1, 55, 0
1, 11304, Note_on_c, 1, 59, 73
1, 11321, Note_on_c, 0, 79, 0
1, 11327, Note_on_c, 1, 59, 0
1, 11328, Note_on_c, 0, 79, 85
1, 11328, Note_on_c, 1, 62, 73
1, 11395, Note_on_c, 1, 62, 0
1, 11400, Note_on_c, 1, 67, 73
1, 11417, Note_on_c, 0, 79, 0
1, 11423, Note_on_c, 1, 67, 0
1, 11424, Note_on_c, 0, 79, 82
1, 11424, Note_on_c, 1, 71, 73
1, 11491, Note_on_c, 1, 71, 0
1, 11496, Note_on_c, 1, 67, 73
1, 11513, Note_on_c, 0, 79, 0
1, 11519, Note_on_c, 1, 67, 0
1, 11520, Note_on_c, 0, 78, 79
1, 11520, Note_on_c, 1, 60, 73
1, 11520, Note_on_c, 1, 57, 73
1, 11587, Note_on_c, 0, 78, 0
1, 11592, Note_on_c, 0, 81, 79
1, 11615, Note_on_c, 0, 81, 0
1, 11616, Note_on_c, 0, 84, 79
1, 11683, Note_on_c, 0, 84, 0
1, 11688, Note_on_c, 0, 81, 79
1, 11697, Note_on_c, 1, 60, 0
1, 11697, Note_on_c, 1, 57, 0
1, 11711, Note_on_c, 0, 81, 0
1, 11712, Note_on_c, 0, 78, 79
1, 11779, Note_on_c, 0, 78, 0
1, 11784, Note_on_c, 0, 81, 79
1, 11807, Note_on_c, 0, 81, 0
1, 11808, Note_on_c, 0, 79, 79
1, 11808, Note_on_c, 1, 55, 73
1, 11875, Note_on_c, 1, 55, 0
1, 11880, Note_on_c, 1, 59, 73
1, 11897, Note_on_c, 0, 79, 0
1, 11903, Note_on_c, 1, 59, 0
1, 11904, Note_on_c, 0, 79, 85
1, 11904, Note_on_c, 1, 50, 73
1, 11971, Note_on_c, 1, 50, 0
1, 11976, Note_on_c, 1, 55, 73
1, 11993, Note_on_c, 0, 79, 0
1, 11999, Note_on_c, 1, 55, 0
1, 12000, Note_on_c, 0, 79, 82
1, 12000, Note_on_c, 1, 47, 73
1, 12067, Note_on_c, 1, 47, 0
1, 12072, Note_on_c, 1, 50, 73
1, 12089, Note_on_c, 0, 79, 0
1, 12095, Note_on_c, 1, 50, 0
1, 12096, Note_on_c, 0, 79, 79
1, 12096, Note_on_c, 1, 43, 73
1, 12361, Note_on_c, 1, 43, 0
1, 12547, Note_on_c, 0, 79, 0
1, 12552, Note_on_c, 0, 81, 68
1, 12575, Note_on_c, 0, 81, 0
1, 12576, Note_on_c, 0, 77, 68
1, 12643, Note_on_c, 0, 77, 0
1, 12648, Note_on_c, 0, 79, 68
1, 12671, Note_on_c, 0, 79, 0
1, 12672, Note_on_c, 0, 76, 68
1, 12768, Note_on_c, 1, 67, 68
1, 12768, Note_on_c, 1, 60, 68
1, 12835, Note_on_c, 0, 76, 0
1, 12840, Note_on_c, 0, 77, 69
1, 12857, Note_on_c, 1, 67, 0
1, 12857, Note_on_c, 1, 60, 0
1, 12863, Note_on_c, 0, 77, 0
1, 12864, Note_on_c, 0, 74, 70
1, 12864, Note_on_c, 1, 67, 68
1, 12864, Note_on_c, 1, 65, 68
1, 12931, Note_on_c, 0, 74, 0
1, 12936, Note_on_c, 0, 76, 70
1, 12953, Note_on_c, 1, 67, 0
1, 12953, Note_on_c, 1, 65, 0
1, 12959, Note_on_c, 0, 76, 0
1, 12960, Note_on_c, 0, 72, 71
1, 12960, Note_on_c, 1, 67, 68
1, 12960, Note_on_c, 1, 64, 68
1, 13049, Note_on_c, 0, 72, 0
1, 13049, Note_on_c, 1, 67, 0
1, 13049, Note_on_c, 1, 64, 0
1, 13056, Note_on_c, 0, 79, 72
1, 13145, Note_on_c, 0, 79, 0
1, 13152, Note_on_c, 0, 79, 73
1, 13241, Note_on_c, 0, 79, 0
1, 13248, Note_on_c, 0, 79, 73
1, 13248, Note_on_c, 1, 67, 68
1, 13248, Note_on_c, 1, 59, 64
1, 13296, Note_on_c, 0, 79, 0
1, 13296, Note_on_c, 0, 77, 72
1, 13341, Note_on_c, 0, 77, 0
1, 13344, Note_on_c, 0, 77, 72
1, 13392, Note_on_c, 0, 77, 0
1, 13392, Note_on_c, 0, 76, 71
1, 13425, Note_on_c, 1, 59, 0
1, 13437, Note_on_c, 0, 76, 0
1, 13440, Note_on_c, 0, 76, 71
1, 13440, Note_on_c, 1, 60, 64
1, 13488, Note_on_c, 0, 76, 0
1, 13488, Note_on_c, 0, 74, 70
1, 13529, Note_on_c, 1, 60, 0
1, 13533, Note_on_c, 0, 74, 0
1, 13536, Note_on_c, 0, 74, 70
1, 13536, Note_on_c, 1, 55, 68
1, 13575, Note_on_c, 0, 74, 0
1, 13625, Note_on_c, 1, 67, 0
1, 13625, Note_on_c, 1, 55, 0
1, 13632, Note_on_c, 0, 71, 69
1, 13671, Note_on_c, 0, 71, 0
1, 13728, Note_on_c, 0, 67, 68
1, 13767, Note_on_c, 0, 67, 0
1, 13824, Note_on_c, 0, 76, 79
1, 13920, Note_on_c, 1, 67, 73
1, 13920, Note_on_c, 1, 60, 73
1, 13987, Note_on_c, 0, 76, 0
1, 13992, Note_on_c, 0, 77, 80
1, 14009, Note_on_c, 1, 67, 0
1, 14009, Note_on_c, 1, 60, 0
1, 14015, Note_on_c, 0, 77, 0
1, 14016, Note_on_c, 0, 74, 80
1, 14016, Note_on_c, 1, 67, 73
1, 14016, Note_on_c, 1, 65, 73
1, 14083, Note_on_c, 0, 74, 0
1, 14088, Note_on_c, 0, 76, 81
1, 14105, Note_on_c, 1, 67, 0
1, 14105, Note_on_c, 1, 65, 0
1, 14111, Note_on_c, 0, 76, 0
1, 14112, Note_on_c, 0, 72, 82
1, 14112, Note_on_c, 1, 67, 73
1, 14112, Note_on_c, 1, 64, 73
1, 14112, Note_on_c, 1, 67, 64
1, 14201, Note_on_c, 0, 72, 0
1, 14201, Note_on_c, 1, 67, 0
1, 14201, Note_on_c, 1, 64, 0
1, 14201, Note_on_c, 1, 67, 0
1, 14208, Note_on_c, 0, 84, 83
1, 14297, Note_on_c, 0, 84, 0
1, 14304, Note_on_c, 0, 84, 85
1, 14304, Note_on_c, 1, 60, 73
1, 14304, Note_on_c, 1, 52, 73
1, 14393, Note_on_c, 0, 84, 0
1, 14393, Note_on_c, 1, 60, 0
1, 14393, Note_on_c, 1, 52, 0
1, 14400, Note_on_c, 0, 80, 85
1, 14400, Note_on_c, 1, 60, 73
1, 14400, Note_on_c, 1, 53, 73
1, 14424, Note_on_c, 0, 80, 0
1, 14424, Note_on_c, 0, 81, 84
1, 14447, Note_on_c, 0, 81, 0
1, 14489, Note_on_c, 1, 60, 0
1, 14489, Note_on_c, 1, 53, 0
1, 14496, Note_on_c, 0, 76, 82
1, 14520, Note_on_c, 0, 76, 0
1, 14520, Note_on_c, 0, 77, 82
1, 14543, Note_on_c, 0, 77, 0
1, 14592, Note_on_c, 0, 74, 80
1, 14592, Note_on_c, 1, 65, 73
1, 14592, Note_on_c, 1, 55, 73
1, 14616, Note_on_c, 0, 74, 0
1, 14616, Note_on_c, 0, 71, 79
1, 14639, Note_on_c, 0, 71, 0
1, 14681, Note_on_c, 1, 65, 0
1, 14681, Note_on_c, 1, 55, 0
1, 14688, Note_on_c, 0, 72, 79
1, 14688, Note_on_c, 1, 64, 73
1, 14688, Note_on_c, 1, 60, 73
1, 14777, Note_on_c, 0, 72, 0
1, 14777, Note_on_c, 1, 64, 0
1, 14777, Note_on_c, 1, 60, 0
1, 14976, Note_on_c, 0, 76, 79
1, 15072, Note_on_c, 1, 72, 73
1, 15139, Note_on_c, 0, 76, 0
1, 15144, Note_on_c, 0, 79, 81
1, 15161, Note_on_c, 1, 72, 0
1, 15167, Note_on_c, 0, 79, 0
1, 15168, Note_on_c, 0, 78, 81
1, 15168, Note_on_c, 1, 69, 73
1, 15235, Note_on_c, 0, 78, 0
1, 15240, Note_on_c, 0, 81, 82
1, 15257, Note_on_c, 1, 69, 0
1, 15263, Note_on_c, 0, 81, 0
1, 15264, Note_on_c, 0, 79, 82
1, 15264, Note_on_c, 1, 71, 73
1, 15353, Note_on_c, 0, 79, 0
1, 15353, Note_on_c, 1, 71, 0
1, 15360, Note_on_c, 0, 86, 83
1, 15449, Note_on_c, 0, 86, 0
1, 15456, Note_on_c, 0, 86, 85
1, 15545, Note_on_c, 0, 86, 0
1, 15552, Note_on_c, 0, 86, 85
1, 15552, Note_on_c, 1, 74, 73
1, 15552, Note_on_c, 1, 66, 64
1, 15600, Note_on_c, 0, 86, 0
1, 15600, Note_on_c, 0, 84, 84
1, 15645, Note_on_c, 0, 84, 0
1, 15648, Note_on_c, 0, 84, 84
1, 15696, Note_on_c, 0, 84, 0
1, 15696, Note_on_c, 0, 83, 83
1, 15729, Note_on_c, 1, 66, 0
1, 15741, Note_on_c, 0, 83, 0
1, 15744, Note_on_c, 0, 83, 83
1, 15744, Note_on_c, 1, 67, 64
1, 15792, Note_on_c, 0, 83, 0
1, 15792, Note_on_c, 0, 81, 82
1, 15817, Note_on_c, 1, 74, 0
1, 15833, Note_on_c, 1, 67, 0
1, 15837, Note_on_c, 0, 81, 0
1, 15840, Note_on_c, 0, 81, 82
1, 15840, Note_on_c, 1, 62, 73
1, 15879, Note_on_c, 0, 81, 0
1, 15929, Note_on_c, 1, 62, 0
1, 15936, Note_on_c, 0, 78, 81
1, 15975, Note_on_c, 0, 78, 0
1, 16032, Note_on_c, 0, 74, 80
1, 16071, Note_on_c, 0, 74, 0
1, 16128, Note_on_c, 1, 67, 79
1, 16224, Note_on_c, 0, 83, 73
1, 16224, Note_on_c, 0, 79, 73
1, 16291, Note_on_c, 1, 67, 0
1, 16296, Note_on_c, 1, 69, 79
1, 16313, Note_on_c, 0, 83, 0
1, 16313, Note_on_c, 0, 79, 0
1, 16319, Note_on_c, 1, 69, 0
1, 16320, Note_on_c, 0, 83, 73
1, 16320, Note_on_c, 0, 79, 73
1, 16320, Note_on_c, 1, 66, 79
1, 16387, Note_on_c, 1, 66, 0
1, 16392, Note_on_c, 1, 67, 79
1, 16409, Note_on_c, 0, 83, 0
1, 16409, Note_on_c, 0, 79, 0
1, 16415, Note_on_c, 1, 67, 0
1, 16416, Note_on_c, 0, 83, 73
1, 16416, Note_on_c, 0, 79, 73
1, 16416, Note_on_c, 1, 64, 79
1, 16483, Note_on_c, 1, 64, 0
1, 16488, Note_on_c, 1, 66, 79
1, 16505, Note_on_c, 0, 83, 0
1, 16505, Note_on_c, 0, 79, 0
1, 16511, Note_on_c, 1, 66, 0
1, 16512, Note_on_c, 0, 83, 73
1, 16512, Note_on_c, 0, 79, 73
1, 16512, Note_on_c, 1, 62, 79
1, 16579, Note_on_c, 1, 62, 0
1, 16584, Note_on_c, 1, 64, 79
1, 16601, Note_on_c, 0, 83, 0
1, 16601, Note_on_c, 0, 79, 0
1, 16607, Note_on_c, 1, 64, 0
1, 16608, Note_on_c, 0, 83, 73
1, 16608, Note_on_c, 0, 79, 73
1, 16608, Note_on_c, 1, 60, 79
1, 16675, Note_on_c, 1, 60, 0
1, 16680, Note_on_c, 1, 62, 79
1, 16697, Note_on_c, 0, 83, 0
1, 16697, Note_on_c, 0, 79, 0
1, 16703, Note_on_c, 1, 62, 0
1, 16704, Note_on_c, 0, 83, 73
1, 16704, Note_on_c, 0, 79, 73
1, 16704, Note_on_c, 1, 59, 79
1, 16771, Note_on_c, 1, 59, 0
1, 16776, Note_on_c, 1, 60, 79
1, 16793, Note_on_c, 0, 83, 0
1, 16793, Note_on_c, 0, 79, 0
1, 16799, Note_on_c, 1, 60, 0
1, 16800, Note_on_c, 0, 84, 75
1, 16800, Note_on_c, 0, 81, 75
1, 16800, Note_on_c, 1, 57, 79
1, 16867, Note_on_c, 1, 57, 0
1, 16872, Note_on_c, 1, 59, 79
1, 16889, Note_on_c, 0, 84, 0
1, 16889, Note_on_c, 0, 81, 0
1, 16895, Note_on_c, 1, 59, 0
1, 16896, Note_on_c, 0, 86, 77
1, 16896, Note_on_c, 0, 83, 77
1, 16896, Note_on_c, 1, 55, 79
1, 16985, Note_on_c, 0, 86, 0
1, 16985, Note_on_c, 0, 83, 0
1, 16985, Note_on_c, 1, 55, 0
1, 16992, Note_on_c, 0, 84, 79
1, 16992, Note_on_c, 1, 60, 79
1, 17022, Note_on_c, 0, 84, 0
1, 17024, Note_on_c, 0, 81, 78
1, 17054, Note_on_c, 0, 81, 0
1, 17056, Note_on_c, 0, 76, 77
1, 17081, Note_on_c, 1, 60, 0
1, 17086, Note_on_c, 0, 76, 0
1, 17088, Note_on_c, 0, 83, 77
1, 17088, Note_on_c, 1, 62, 79
1, 17118, Note_on_c, 0, 83, 0
1, 17120, Note_on_c, 0, 79, 76
1, 17150, Note_on_c, 0, 79, 0
1, 17152, Note_on_c, 0, 74, 75
1, 17177, Note_on_c, 1, 62, 0
1, 17182, Note_on_c, 0, 74, 0
1, 17184, Note_on_c, 0, 81, 75
1, 17184, Note_on_c, 1, 62, 79
1, 17214, Note_on_c, 0, 81, 0
1, 17216, Note_on_c, 0, 78, 74
1, 17246, Note_on_c, 0, 78, 0
1, 17248, Note_on_c, 0, 72, 74
1, 17273, Note_on_c, 1, 62, 0
1, 17278, Note_on_c, 0, 72, 0
1, 17280, Note_on_c, 1, 67, 90
1, 17376, Note_on_c, 0, 83, 85
1, 17376, Note_on_c, 0, 79, 85
1, 17406, Note_on_c, 1, 67, 0
1, 17408, Note_on_c, 1, 69, 90
1, 17438, Note_on_c, 1, 69, 0
1, 17440, Note_on_c, 1, 67, 90
1, 17465, Note_on_c, 0, 83, 0
1, 17465, Note_on_c, 0, 79, 0
1, 17470, Note_on_c, 1, 67, 0
1, 17472, Note_on_c, 0, 83, 85
1, 17472, Note_on_c, 0, 79, 85
1, 17472, Note_on_c, 1, 66, 90
1, 17502, Note_on_c, 1, 66, 0
1, 17504, Note_on_c, 1, 67, 90
1, 17534, Note_on_c, 1, 67, 0
1, 17536, Note_on_c, 1, 66, 90
1, 17561, Note_on_c, 0, 83, 0
1, 17561, Note_on_c, 0, 79, 0
1, 17566, Note_on_c, 1, 66, 0
1, 17568, Note_on_c, 0, 83, 85
1, 17568, Note_on_c, 0, 79, 85
1, 17568, Note_on_c, 1, 64, 90
1, 17598, Note_on_c, 1, 64, 0
1, 17600, Note_on_c, 1, 66, 90
1, 17630, Note_on_c, 1, 66, 0
1, 17632, Note_on_c, 1, 64, 90
1, 17657, Note_on_c, 0, 83, 0
1, 17657, Note_on_c, 0, 79, 0
1, 17662, Note_on_c, 1, 64, 0
1, 17664, Note_on_c, 0, 83, 85
1, 17664, Note_on_c, 0, 79, 85
1, 17664, Note_on_c, 1, 62, 90
1, 17694, Note_on_c, 1, 62, 0
1, 17696, Note_on_c, 1, 64, 90
1, 17726, Note_on_c, 1, 64, 0
1, 17728, Note_on_c, 1, 62, 90
1, 17753, Note_on_c, 0, 83, 0
1, 17753, Note_on_c, 0, 79, 0
1, 17758, Note_on_c, 1, 62, 0
1, 17760, Note_on_c, 0, 83, 85
1, 17760, Note_on_c, 0, 79, 85
1, 17760, Note_on_c, 1, 60, 90
1, 17790, Note_on_c, 1, 60, 0
1, 17792, Note_on_c, 1, 62, 90
1, 17822, Note_on_c, 1, 62, 0
1, 17824, Note_on_c, 1, 60, 90
1, 17849, Note_on_c, 0, 83, 0
1, 17849, Note_on_c, 0, 79, 0
1, 17854, Note_on_c, 1, 60, 0
1, 17856, Note_on_c, 0, 83, 85
1, 17856, Note_on_c, 0, 79, 85
1, 17856, Note_on_c, 1, 59, 90
1, 17886, Note_on_c, 1, 59, 0
1, 17888, Note_on_c, 1, 60, 90
1, 17918, Note_on_c, 1, 60, 0
1, 17920, Note_on_c, 1, 59, 90
1, 17945, Note_on_c, 0, 83, 0
1, 17945, Note_on_c, 0, 79, 0
1, 17950, Note_on_c, 1, 59, 0
1, 17952, Note_on_c, 0, 84, 86
1, 17952, Note_on_c, 0, 81, 86
1, 17952, Note_on_c, 1, 57, 90
1, 17982, Note_on_c, 1, 57, 0
1, 17984, Note_on_c, 1, 59, 90
1, 18014, Note_on_c, 1, 59, 0
1, 18016, Note_on_c, 1, 57, 90
1, 18041, Note_on_c, 0, 84, 0
1, 18041, Note_on_c, 0, 81, 0
1, 18046, Note_on_c, 1, 57, 0
1, 18048, Note_on_c, 0, 86, 88
1, 18048, Note_on_c, 0, 83, 88
1, 18048, Note_on_c, 1, 55, 90
1, 18137, Note_on_c, 0, 86, 0
1, 18137, Note_on_c, 0, 83, 0
1, 18137, Note_on_c, 1, 55, 0
1, 18144, Note_on_c, 0, 84, 90
1, 18144, Note_on_c, 1, 60, 90
1, 18174, Note_on_c, 0, 84, 0
1, 18176, Note_on_c, 0, 81, 89
1, 18206, Note_on_c, 0, 81, 0
1, 18208, Note_on_c, 0, 76, 88
1, 18233, Note_on_c, 1, 60, 0
1, 18238, Note_on_c, 0, 76, 0
1, 18240, Note_on_c, 0, 83, 88
1, 18240, Note_on_c, 1, 62, 90
1, 18270, Note_on_c, 0, 83, 0
1, 18272, Note_on_c, 0, 79, 87
1, 18302, Note_on_c, 0, 79, 0
1, 18304, Note_on_c, 0, 74, 87
1, 18329, Note_on_c, 1, 62, 0
1, 18334, Note_on_c, 0, 74, 0
1, 18336, Note_on_c, 0, 81, 86
1, 18336, Note_on_c, 1, 62, 90
1, 18366, Note_on_c, 0, 81, 0
1, 18368, Note_on_c, 0, 78, 86
1, 18398, Note_on_c, 0, 78, 0
1, 18400, Note_on_c, 0, 72, 85
1, 18425, Note_on_c, 1, 62, 0
1, 18430, Note_on_c, 0, 72, 0
1, 18432, Note_on_c, 0, 79, 85
1, 18432, Note_on_c, 0, 71, 85
1, 18432, Note_on_c, 0, 71, 64
1, 18432, Note_on_c, 1, 55, 90
1, 18521, Note_on_c, 1, 55, 0
1, 18720, Note_on_c, 0, 71, 0
1, 18720, Note_on_c, 1, 67, 79
1, 18883, Note_on_c, 1, 67, 0
1, 18888, Note_on_c, 1, 69, 79
1, 18897, Note_on_c, 0, 71, 0
1, 18911, Note_on_c, 1, 69, 0
1, 18912, Note_on_c, 1, 65, 79
1, 18979, Note_on_c, 1, 65, 0
1, 18984, Note_on_c, 1, 67, 79
1, 18985, Note_on_c, 0, 79, 0
1, 19007, Note_on_c, 1, 67, 0
1, 19008, Note_on_c, 0, 79, 79
1, 19008, Note_on_c, 1, 64, 64
1, 19104, Note_on_c, 1, 70, 79
1, 19171, Note_on_c, 0, 79, 0
1, 19171, Note_on_c, 1, 70, 0
1, 19176, Note_on_c, 0, 81, 79
1, 19176, Note_on_c, 1, 72, 79
1, 19199, Note_on_c, 0, 81, 0
1, 19199, Note_on_c, 1, 72, 0
1, 19200, Note_on_c, 0, 77, 79
1, 19200, Note_on_c, 1, 69, 79
1, 19267, Note_on_c, 0, 77, 0
1, 19267, Note_on_c, 1, 69, 0
1, 19272, Note_on_c, 0, 79, 79
1, 19272, Note_on_c, 1, 70, 79
1, 19295, Note_on_c, 0, 79, 0
1, 19295, Note_on_c, 1, 70, 0
1, 19296, Note_on_c, 0, 76, 79
1, 19296, Note_on_c, 1, 67, 79
1, 19385, Note_on_c, 0, 76, 0
1, 19385, Note_on_c, 1, 67, 0
1, 19385, Note_on_c, 1, 64, 0
1, 19392, Note_on_c, 0, 76, 79
1, 19392, Note_on_c, 1, 70, 79
1, 19392, Note_on_c, 1, 67, 79
1, 19459, Note_on_c, 0, 76, 0
1, 19464, Note_on_c, 0, 77, 79
1, 19481, Note_on_c, 1, 70, 0
1, 19481, Note_on_c, 1, 67, 0
1, 19487, Note_on_c, 0, 77, 0
1, 19488, Note_on_c, 0, 74, 79
1, 19488, Note_on_c, 1, 69, 79
1, 19488, Note_on_c, 1, 65, 79
1, 19555, Note_on_c, 0, 74, 0
1, 19560, Note_on_c, 0, 76, 79
1, 19577, Note_on_c, 1, 69, 0
1, 19577, Note_on_c, 1, 65, 0
1, 19583, Note_on_c, 0, 76, 0
1, 19584, Note_on_c, 0, 73, 79
1, 19584, Note_on_c, 1, 67, 79
1, 19584, Note_on_c, 1, 64, 79
1, 19673, Note_on_c, 0, 73, 0
1, 19673, Note_on_c, 1, 67, 0
1, 19673, Note_on_c, 1, 64, 0
1, 19680, Note_on_c, 0, 73, 80
1, 19680, Note_on_c, 0, 70, 64
1, 19680, Note_on_c, 1, 55, 79
1, 19747, Note_on_c, 1, 55, 0
1, 19752, Note_on_c, 1, 57, 79
1, 19769, Note_on_c, 0, 73, 0
1, 19769, Note_on_c, 0, 70, 0
1, 19775, Note_on_c, 1, 57, 0
1, 19776, Note_on_c, 0, 74, 82
1, 19776, Note_on_c, 0, 69, 64
1, 19776, Note_on_c, 1, 53, 79
1, 19843, Note_on_c, 1, 53, 0
1, 19848, Note_on_c, 1, 55, 79
1, 19865, Note_on_c, 0, 74, 0
1, 19865, Note_on_c, 0, 69, 0
1, 19871, Note_on_c, 1, 55, 0
1, 19872, Note_on_c, 0, 76, 83
1, 19872, Note_on_c, 0, 67, 64
1, 19872, Note_on_c, 1, 52, 79
1, 19872, Note_on_c, 1, 52, 64
1, 19939, Note_on_c, 1, 52, 0
1, 19944, Note_on_c, 1, 53, 79
1, 19961, Note_on_c, 0, 76, 0
1, 19961, Note_on_c, 0, 67, 0
1, 19961, Note_on_c, 1, 52, 0
1, 19967, Note_on_c, 1, 53, 0
1, 19968, Note_on_c, 0, 77, 85
1, 19968, Note_on_c, 0, 65, 64
1, 19968, Note_on_c, 1, 50, 79
1, 20035, Note_on_c, 0, 77, 0
1, 20040, Note_on_c, 0, 79, 83
1, 20057, Note_on_c, 0, 65, 0
1, 20057, Note_on_c, 1, 50, 0
1, 20063, Note_on_c, 0, 79, 0
1, 20064, Note_on_c, 0, 76, 83
1, 20064, Note_on_c, 1, 55, 79
1, 20064, Note_on_c, 1, 52, 64
1, 20131, Note_on_c, 0, 76, 0
1, 20136, Note_on_c, 0, 77, 81
1, 20153, Note_on_c, 1, 55, 0
1, 20153, Note_on_c, 1, 52, 0
1, 20159, Note_on_c, 0, 77, 0
1, 20160, Note_on_c, 0, 74, 81
1, 20160, Note_on_c, 1, 57, 79
1, 20160, Note_on_c, 1, 53, 79
1, 20249, Note_on_c, 0, 74, 0
1, 20256, Note_on_c, 0, 74, 79
1, 20323, Note_on_c, 0, 74, 0
1, 20328, Note_on_c, 0, 76, 79
1, 20337, Note_on_c, 1, 53, 0
1, 20351, Note_on_c, 0, 76, 0
1, 20352, Note_on_c, 0, 72, 79
1, 20352, Note_on_c, 1, 54, 82
1, 20419, Note_on_c, 0, 72, 0
1, 20424, Note_on_c, 0, 74, 79
1, 20425, Note_on_c, 1, 57, 0
1, 20441, Note_on_c, 1, 54, 0
1, 20447, Note_on_c, 0, 74, 0
1, 20448, Note_on_c, 0, 71, 79
1, 20448, Note_on_c, 0, 67, 64
1, 20448, Note_on_c, 1, 55, 79
1, 20448, Note_on_c, 1, 55, 83
1, 20515, Note_on_c, 0, 71, 0
1, 20520, Note_on_c, 0, 74, 79
1, 20537, Note_on_c, 0, 67, 0
1, 20537, Note_on_c, 1, 55, 0
1, 20537, Note_on_c, 1, 55, 0
1, 20543, Note_on_c, 0, 74, 0
1, 20544, Note_on_c, 0, 72, 79
1, 20544, Note_on_c, 0, 69, 64
1, 20611, Note_on_c, 0, 72, 0
1, 20616, Note_on_c, 0, 76, 79
1, 20633, Note_on_c, 0, 69, 0
1, 20639, Note_on_c, 0, 76, 0
1, 20640, Note_on_c, 0, 74, 79
1, 20640, Note_on_c, 0, 71, 64
1, 20707, Note_on_c, 0, 74, 0
1, 20712, Note_on_c, 0, 77, 79
1, 20729, Note_on_c, 0, 71, 0
1, 20735, Note_on_c, 0, 77, 0
1, 20736, Note_on_c, 0, 76, 79
1, 20736, Note_on_c, 0, 72, 64
1, 20832, Note_on_c, 1, 64, 79
1, 20832, Note_on_c, 1, 60, 79
1, 20899, Note_on_c, 0, 76, 0
1, 20904, Note_on_c, 0, 77, 81
1, 20913, Note_on_c, 0, 72, 0
1, 20921, Note_on_c, 1, 64, 0
1, 20921, Note_on_c, 1, 60, 0
1, 20927, Note_on_c, 0, 77, 0
1, 20928, Note_on_c, 0, 74, 81
1, 20928, Note_on_c, 0, 71, 64
1, 20928, Note_on_c, 1, 65, 79
1, 20928, Note_on_c, 1, 55, 79
1, 20995, Note_on_c, 0, 74, 0
1, 21000, Note_on_c, 0, 76, 82
1, 21017, Note_on_c, 0, 71, 0
1, 21017, Note_on_c, 1, 65, 0
1, 21017, Note_on_c, 1, 55, 0
1, 21023, Note_on_c, 0, 76, 0
1, 21024, Note_on_c, 0, 72, 82
1, 21024, Note_on_c, 1, 64, 79
1, 21024, Note_on_c, 1, 60, 79
1, 21113, Note_on_c, 0, 72, 0
1, 21113, Note_on_c, 1, 64, 0
1, 21113, Note_on_c, 1, 60, 0
1, 21120, Note_on_c, 0, 79, 83
1, 21209, Note_on_c, 0, 79, 0
1, 21216, Note_on_c, 0, 79, 85
1, 21305, Note_on_c, 0, 79, 0
1, 21312, Note_on_c, 0, 79, 85
1, 21312, Note_on_c, 1, 67, 79
1, 21312, Note_on_c, 1, 59, 85
1, 21360, Note_on_c, 0, 79, 0
1, 21360, Note_on_c, 0, 77, 84
1, 21405, Note_on_c, 0, 77, 0
1, 21408, Note_on_c, 0, 77, 84
1, 21456, Note_on_c, 0, 77, 0
1, 21456, Note_on_c, 0, 76, 83
1, 21489, Note_on_c, 1, 59, 0
1, 21501, Note_on_c, 0, 76, 0
1, 21504, Note_on_c, 0, 76, 83
1, 21504, Note_on_c, 1, 60, 85
1, 21552, Note_on_c, 0, 76, 0
1, 21552, Note_on_c, 0, 74, 82
1, 21593, Note_on_c, 1, 60, 0
1, 21597, Note_on_c, 0, 74, 0
1, 21600, Note_on_c, 0, 74, 82
1, 21600, Note_on_c, 1, 55, 79
1, 21639, Note_on_c, 0, 74, 0
1, 21689, Note_on_c, 1, 67, 0
1, 21689, Note_on_c, 1, 55, 0
1, 21696, Note_on_c, 0, 71, 81
1, 21735, Note_on_c, 0, 71, 0
1, 21792, Note_on_c, 0, 67, 80
1, 21831, Note_on_c, 0, 67, 0
1, 21888, Note_on_c, 0, 76, 79
1, 21984, Note_on_c, 1, 67, 79
1, 21984, Note_on_c, 1, 60, 79
1, 22051, Note_on_c, 0, 76, 0
1, 22056, Note_on_c, 0, 77, 81
1, 22073, Note_on_c, 1, 67, 0
1, 22073, Note_on_c, 1, 60, 0
1, 22079, Note_on_c, 0, 77, 0
1, 22080, Note_on_c, 0, 74, 81
1, 22080, Note_on_c, 1, 67, 79
1, 22080, Note_on_c, 1, 65, 79
1, 22147, Note_on_c, 0, 74, 0
1, 22152, Note_on_c, 0, 76, 82
1, 22169, Note_on_c, 1, 67, 0
1, 22169, Note_on_c, 1, 65, 0
1, 22175, Note_on_c, 0, 76, 0
1, 22176, Note_on_c, 0, 72, 82
1, 22176, Note_on_c, 1, 67, 79
1, 22176, Note_on_c, 1, 64, 79
1, 22265, Note_on_c, 0, 72, 0
1, 22265, Note_on_c, 1, 67, 0
1, 22265, Note_on_c, 1, 64, 0
1, 22272, Note_on_c, 0, 84, 83
1, 22361, Note_on_c, 0, 84, 0
1, 22368, Note_on_c, 0, 84, 85
1, 22368, Note_on_c, 1, 60, 79
1, 22368, Note_on_c, 1, 52, 79
1, 22457, Note_on_c, 0, 84, 0
1, 22457, Note_on_c, 1, 60, 0
1, 22457, Note_on_c, 1, 52, 0
1, 22464, Note_on_c, 0, 80, 85
1, 22464, Note_on_c, 1, 60, 79
1, 22464, Note_on_c, 1, 53, 79
1, 22488, Note_on_c, 0, 80, 0
1, 22488, Note_on_c, 0, 81, 84
1, 22511, Note_on_c, 0, 81, 0
1, 22553, Note_on_c, 1, 60, 0
1, 22553, Note_on_c, 1, 53, 0
1, 22560, Note_on_c, 0, 76, 82
1, 22584, Note_on_c, 0, 76, 0
1, 22584, Note_on_c, 0, 77, 82
1, 22607, Note_on_c, 0, 77, 0
1, 22656, Note_on_c, 0, 74, 80
1, 22656, Note_on_c, 1, 65, 79
1, 22656, Note_on_c, 1, 55, 79
1, 22680, Note_on_c, 0, 74, 0
1, 22680, Note_on_c, 0, 71, 79
1, 22703, Note_on_c, 0, 71, 0
1, 22745, Note_on_c, 1, 65, 0
1, 22745, Note_on_c, 1, 55, 0
1, 22752, Note_on_c, 0, 72, 79
1, 22752, Note_on_c, 1, 64, 79
1, 22752, Note_on_c, 1, 60, 79
1, 22841, Note_on_c, 0, 72, 0
1, 22841, Note_on_c, 1, 64, 0
1, 22841, Note_on_c, 1, 60, 0
1, 23040, Note_on_c, 0, 76, 79
1, 23136, Note_on_c, 1, 72, 73
1, 23203, Note_on_c, 0, 76, 0
1, 23208, Note_on_c, 0, 79, 81
1, 23225, Note_on_c, 1, 72, 0
1, 23231, Note_on_c, 0, 79, 0
1, 23232, Note_on_c, 0, 78, 81
1, 23232, Note_on_c, 1, 69, 73
1, 23299, Note_on_c, 0, 78, 0
1, 23304, Note_on_c, 0, 81, 82
1, 23321, Note_on_c, 1, 69, 0
1, 23327, Note_on_c, 0, 81, 0
1, 23328, Note_on_c, 0, 79, 82
1, 23328, Note_on_c, 1, 71, 73
1, 23417, Note_on_c, 0, 79, 0
1, 23417, Note_on_c, 1, 71, 0
1, 23424, Note_on_c, 0, 86, 83
1, 23513, Note_on_c, 0, 86, 0
1, 23520, Note_on_c, 0, 86, 85
1, 23609, Note_on_c, 0, 86, 0
1, 23616, Note_on_c, 0, 86, 85
1, 23616, Note_on_c, 1, 74, 73
1, 23616, Note_on_c, 1, 66, 64
1, 23664, Note_on_c, 0, 86, 0
1, 23664, Note_on_c, 0, 84, 84
1, 23709, Note_on_c, 0, 84, 0
1, 23712, Note_on_c, 0, 84, 84
1, 23760, Note_on_c, 0, 84, 0
1, 23760, Note_on_c, 0, 83, 83
1, 23793, Note_on_c, 1, 66, 0
1, 23805, Note_on_c, 0, 83, 0
1, 23808, Note_on_c, 0, 83, 83
1, 23808, Note_on_c, 1, 67, 64
1, 23856, Note_on_c, 0, 83, 0
1, 23856, Note_on_c, 0, 81, 82
1, 23881, Note_on_c, 1, 74, 0
1, 23897, Note_on_c, 1, 67, 0
1, 23901, Note_on_c, 0, 81, 0
1, 23904, Note_on_c, 0, 81, 82
1, 23904, Note_on_c, 1, 62, 73
1, 23943, Note_on_c, 0, 81, 0
1, 23993, Note_on_c, 1, 62, 0
1, 24000, Note_on_c, 0, 78, 81
1, 24039, Note_on_c, 0, 78, 0
1, 24096, Note_on_c, 0, 74, 80
1, 24135, Note_on_c, 0, 74, 0
1, 24192, Note_on_c, 1, 67, 79
1, 24288, Note_on_c, 0, 83, 73
1, 24288, Note_on_c, 0, 79, 73
1, 24355, Note_on_c, 1, 67, 0
1, 24360, Note_on_c, 1, 69, 79
1, 24377, Note_on_c, 0, 83, 0
1, 24377, Note_on_c, 0, 79, 0
1, 24383, Note_on_c, 1, 69, 0
1, 24384, Note_on_c, 0, 83, 73
1, 24384, Note_on_c, 0, 79, 73
1, 24384, Note_on_c, 1, 66, 79
1, 24451, Note_on_c, 1, 66, 0
1, 24456, Note_on_c, 1, 67, 79
1, 24473, Note_on_c, 0, 83, 0
1, 24473, Note_on_c, 0, 79, 0
1, 24479, Note_on_c, 1, 67, 0
1, 24480, Note_on_c, 0, 83, 73
1, 24480, Note_on_c, 0, 79, 73
1, 24480, Note_on_c, 1, 64, 79
1, 24547, Note_on_c, 1, 64, 0
1, 24552, Note_on_c, 1, 66, 79
1, 24569, Note_on_c, 0, 83, 0
1, 24569, Note_on_c, 0, 79, 0
1, 24575, Note_on_c, 1, 66, 0
1, 24576, Note_on_c, 0, 83, 73
1, 24576, Note_on_c, 0, 79, 73
1, 24576, Note_on_c, 1, 62, 79
1, 24643, Note_on_c, 1, 62, 0
1, 24648, Note_on_c, 1, 64, 79
1, 24665, Note_on_c, 0, 83, 0
1, 24665, Note_on_c, 0, 79, 0
1, 24671, Note_on_c, 1, 64, 0
1, 24672, Note_on_c, 0, 83, 73
1, 24672, Note_on_c, 0, 79, 73
1, 24672, Note_on_c, 1, 60, 79
1, 24739, Note_on_c, 1, 60, 0
1, 24744, Note_on_c, 1, 62, 79
1, 24761, Note_on_c, 0, 83, 0
1, 24761, Note_on_c, 0, 79, 0
1, 24767, Note_on_c, 1, 62, 0
1, 24768, Note_on_c, 0, 83, 73
1, 24768, Note_on_c, 0, 79, 73
1, 24768, Note_on_c, 1, 59, 79
1, 24835, Note_on_c, 1, 59, 0
1, 24840, Note_on_c, 1, 60, 79
1, 24857, Note_on_c, 0, 83, 0
1, 24857, Note_on_c, 0, 79, 0
1, 24863, Note_on_c, 1, 60, 0
1, 24864, Note_on_c, 0, 84, 75
1, 24864, Note_on_c, 0, 81, 75
1, 24864, Note_on_c, 1, 57, 79
1, 24931, Note_on_c, 1, 57, 0
1, 24936, Note_on_c, 1, 59, 79
1, 24953, Note_on_c, 0, 84, 0
1, 24953, Note_on_c, 0, 81, 0
1, 24959, Note_on_c, 1, 59, 0
1, 24960, Note_on_c, 0, 86, 77
1, 24960, Note_on_c, 0, 83, 77
1, 24960, Note_on_c, 1, 55, 79
1, 25049, Note_on_c, 0, 86, 0
1, 25049, Note_on_c, 0, 83, 0
1, 25049, Note_on_c, 1, 55, 0
1, 25056, Note_on_c, 0, 84, 79
1, 25056, Note_on_c, 1, 60, 79
1, 25086, Note_on_c, 0, 84, 0
1, 25088, Note_on_c, 0, 81, 78
1, 25118, Note_on_c, 0, 81, 0
1, 25120, Note_on_c, 0, 76, 77
1, 25145, Note_on_c, 1, 60, 0
1, 25150, Note_on_c, 0, 76, 0
1, 25152, Note_on_c, 0, 83, 77
1, 25152, Note_on_c, 1, 62, 79
1, 25182, Note_on_c, 0, 83, 0
1, 25184, Note_on_c, 0, 79, 76
1, 25214, Note_on_c, 0, 79, 0
1, 25216, Note_on_c, 0, 74, 75
1, 25241, Note_on_c, 1, 62, 0
1, 25246, Note_on_c, 0, 74, 0
1, 25248, Note_on_c, 0, 81, 75
1, 25248, Note_on_c, 1, 62, 79
1, 25278, Note_on_c, 0, 81, 0
1, 25280, Note_on_c, 0, 78, 74
1, 25310, Note_on_c, 0, 78, 0
1, 25312, Note_on_c, 0, 72, 74
1, 25337, Note_on_c, 1, 62, 0
1, 25342, Note_on_c, 0, 72, 0
1, 25344, Note_on_c, 1, 67, 90
1, 25440, Note_on_c, 0, 83, 85
1, 25440, Note_on_c, 0, 79, 85
1, 25470, Note_on_c, 1, 67, 0
1, 25472, Note_on_c, 1, 69, 90
1, 25502, Note_on_c, 1, 69, 0
1, 25504, Note_on_c, 1, 67, 90
1, 25529, Note_on_c, 0, 83, 0
1, 25529, Note_on_c, 0, 79, 0
1, 25534, Note_on_c, 1, 67, 0
1, 25536, Note_on_c, 0, 83, 85
1, 25536, Note_on_c, 0, 79, 85
1, 25536, Note_on_c, 1, 66, 90
1, 25566, Note_on_c, 1, 66, 0
1, 25568, Note_on_c, 1, 67, 90
1, 25598, Note_on_c, 1, 67, 0
1, 25600, Note_on_c, 1, 66, 90
1, 25625, Note_on_c, 0, 83, 0
1, 25625, Note_on_c, 0, 79, 0
1, 25630, Note_on_c, 1, 66, 0
1, 25632, Note_on_c, 0, 83, 85
1, 25632, Note_on_c, 0, 79, 85
1, 25632, Note_on_c, 1, 64, 90
1, 25662, Note_on_c, 1, 64, 0
1, 25664, Note_on_c, 1, 66, 90
1, 25694, Note_on_c, 1, 66, 0
1, 25696, Note_on_c, 1, 64, 90
1, 25721, Note_on_c, 0, 83, 0
1, 25721, Note_on_c, 0, 79, 0
1, 25726, Note_on_c, 1, 64, 0
1, 25728, Note_on_c, 0, 83, 85
1, 25728, Note_on_c, 0, 79, 85
1, 25728, Note_on_c, 1, 62, 90
1, 25758, Note_on_c, 1, 62, 0
1, 25760, Note_on_c, 1, 64, 90
1, 25790, Note_on_c, 1, 64, 0
1, 25792, Note_on_c, 1, 62, 90
1, 25817, Note_on_c, 0, 83, 0
1, 25817, Note_on_c, 0, 79, 0
1, 25822, Note_on_c, 1, 62, 0
1, 25824, Note_on_c, 0, 83, 85
1, 25824, Note_on_c, 0, 79, 85
1, 25824, Note_on_c, 1, 60, 90
1, 25854, Note_on_c, 1, 60, 0
1, 25856, Note_on_c, 1, 62, 90
1, 25886, Note_on_c, 1, 62, 0
1, 25888, Note_on_c, 1, 60, 90
1, 25913, Note_on_c, 0, 83, 0
1, 25913, Note_on_c, 0, 79, 0
1, 25918, Note_on_c, 1, 60, 0
1, 25920, Note_on_c, 0, 83, 85
1, 25920, Note_on_c, 0, 79, 85
1, 25920, Note_on_c, 1, 59, 90
1, 25950, Note_on_c, 1, 59, 0
1, 25952, Note_on_c, 1, 60, 90
1, 25982, Note_on_c, 1, 60, 0
1, 25984, Note_on_c, 1, 59, 90
1, 26009, Note_on_c, 0, 83, 0
1, 26009, Note_on_c, 0, 79, 0
1, 26014, Note_on_c, 1, 59, 0
1, 26016, Note_on_c, 0, 84, 86
1, 26016, Note_on_c, 0, 81, 86
1, 26016, Note_on_c, 1, 57, 90
1, 26046, Note_on_c, 1, 57, 0
1, 26048, Note_on_c, 1, 59, 90
1, 26078, Note_on_c, 1, 59, 0
1, 26080, Note_on_c, 1, 57, 90
1, 26105, Note_on_c, 0, 84, 0
1, 26105, Note_on_c, 0, 81, 0
1, 26110, Note_on_c, 1, 57, 0
1, 26112, Note_on_c, 0, 86, 88
1, 26112, Note_on_c, 0, 83, 88
1, 26112, Note_on_c, 1, 55, 90
1, 26201, Note_on_c, 0, 86, 0
1, 26201, Note_on_c, 0, 83, 0
1, 26201, Note_on_c, 1, 55, 0
1, 26208, Note_on_c, 0, 84, 90
1, 26208, Note_on_c, 1, 60, 90
1, 26238, Note_on_c, 0, 84, 0
1, 26240, Note_on_c, 0, 81, 89
1, 26270, Note_on_c, 0, 81, 0
1, 26272, Note_on_c, 0, 76, 88
1, 26297, Note_on_c, 1, 60, 0
1, 26302, Note_on_c, 0, 76, 0
1, 26304, Note_on_c, 0, 83, 88
1, 26304, Note_on_c, 1, 62, 90
1, 26334, Note_on_c, 0, 83, 0
1, 26336, Note_on_c, 0, 79, 87
1, 26366, Note_on_c, 0, 79, 0
1, 26368, Note_on_c, 0, 74, 87
1, 26393, Note_on_c, 1, 62, 0
1, 26398, Note_on_c, 0, 74, 0
1, 26400, Note_on_c, 0, 81, 86
1, 26400, Note_on_c, 1, 62, 90
1, 26430, Note_on_c, 0, 81, 0
1, 26432, Note_on_c, 0, 78, 86
1, 26462, Note_on_c, 0, 78, 0
1, 26464, Note_on_c, 0, 72, 85
1, 26489, Note_on_c, 1, 62, 0
1, 26494, Note_on_c, 0, 72, 0
1, 26496, Note_on_c, 0, 79, 85
1, 26496, Note_on_c, 0, 71, 85
1, 26496, Note_on_c, 0, 71, 64
1, 26496, Note_on_c, 1, 55, 90
1, 26585, Note_on_c, 1, 55, 0
1, 26784, Note_on_c, 0, 71, 0
1, 26784, Note_on_c, 1, 67, 79
1, 26947, Note_on_c, 1, 67, 0
1, 26952, Note_on_c, 1, 69, 79
1, 26961, Note_on_c, 0, 71, 0
1, 26975, Note_on_c, 1, 69, 0
1, 26976, Note_on_c, 1, 65, 79
1, 27043, Note_on_c, 1, 65, 0
1, 27048, Note_on_c, 1, 67, 79
1, 27049, Note_on_c, 0, 79, 0
1, 27071, Note_on_c, 1, 67, 0
1, 27072, Note_on_c, 0, 79, 79
1, 27072, Note_on_c, 1, 64, 64
1, 27168, Note_on_c, 1, 70, 79
1, 27235, Note_on_c, 0, 79, 0
1, 27235, Note_on_c, 1, 70, 0
1, 27240, Note_on_c, 0, 81, 79
1, 27240, Note_on_c, 1, 72, 79
1, 27263, Note_on_c, 0, 81, 0
1, 27263, Note_on_c, 1, 72, 0
1, 27264, Note_on_c, 0, 77, 79
1, 27264, Note_on_c, 1, 69, 79
1, 27331, Note_on_c, 0, 77, 0
1, 27331, Note_on_c, 1, 69, 0
1, 27336, Note_on_c, 0, 79, 79
1, 27336, Note_on_c, 1, 70, 79
1, 27359, Note_on_c, 0, 79, 0
1, 27359, Note_on_c, 1, 70, 0
1, 27360, Note_on_c, 0, 76, 79
1, 27360, Note_on_c, 1, 67, 79
1, 27449, Note_on_c, 0, 76, 0
1, 27449, Note_on_c, 1, 67, 0
1, 27449, Note_on_c, 1, 64, 0
1, 27456, Note_on_c, 0, 76, 79
1, 27456, Note_on_c, 1, 70, 79
1, 27456, Note_on_c, 1, 67, 79
1, 27523, Note_on_c, 0, 76, 0
1, 27528, Note_on_c, 0, 77, 79
1, 27545, Note_on_c, 1, 70, 0
1, 27545, Note_on_c, 1, 67, 0
1, 27551, Note_on_c, 0, 77, 0
1, 27552, Note_on_c, 0, 74, 79
1, 27552, Note_on_c, 1, 69, 79
1, 27552, Note_on_c, 1, 65, 79
1, 27619, Note_on_c, 0, 74, 0
1, 27624, Note_on_c, 0, 76, 79
1, 27641, Note_on_c, 1, 69, 0
1, 27641, Note_on_c, 1, 65, 0
1, 27647, Note_on_c, 0, 76, 0
1, 27648, Note_on_c, 0, 73, 79
1, 27648, Note_on_c, 1, 67, 79
1, 27648, Note_on_c, 1, 64, 79
1, 27737, Note_on_c, 0, 73, 0
1, 27737, Note_on_c, 1, 67, 0
1, 27737, Note_on_c, 1, 64, 0
1, 27744, Note_on_c, 0, 73, 80
1, 27744, Note_on_c, 0, 70, 64
1, 27744, Note_on_c, 1, 55, 79
1, 27811, Note_on_c, 1, 55, 0
1, 27816, Note_on_c, 1, 57, 79
1, 27833, Note_on_c, 0, 73, 0
1, 27833, Note_on_c, 0, 70, 0
1, 27839, Note_on_c, 1, 57, 0
1, 27840, Note_on_c, 0, 74, 82
1, 27840, Note_on_c, 0, 69, 64
1, 27840, Note_on_c, 1, 53, 79
1, 27907, Note_on_c, 1, 53, 0
1, 27912, Note_on_c, 1, 55, 79
1, 27929, Note_on_c, 0, 74, 0
1, 27929, Note_on_c, 0, 69, 0
1, 27935, Note_on_c, 1, 55, 0
1, 27936, Note_on_c, 0, 76, 83
1, 27936, Note_on_c, 0, 67, 64
1, 27936, Note_on_c, 1, 52, 79
1, 27936, Note_on_c, 1, 52, 64
1, 28003, Note_on_c, 1, 52, 0
1, 28008, Note_on_c, 1, 53, 79
1, 28025, Note_on_c, 0, 76, 0
1, 28025, Note_on_c, 0, 67, 0
1, 28025, Note_on_c, 1, 52, 0
1, 28031, Note_on_c, 1, 53, 0
1, 28032, Note_on_c, 0, 77, 85
1, 28032, Note_on_c, 0, 65, 64
1, 28032, Note_on_c, 1, 50, 79
1, 28099, Note_on_c, 0, 77, 0
1, 28104, Note_on_c, 0, 79, 83
1, 28121, Note_on_c, 0, 65, 0
1, 28121, Note_on_c, 1, 50, 0
1, 28127, Note_on_c, 0, 79, 0
1, 28128, Note_on_c, 0, 76, 83
1, 28128, Note_on_c, 1, 55, 79
1, 28128, Note_on_c, 1, 52, 64
1, 28195, Note_on_c, 0, 76, 0
1, 28200, Note_on_c, 0, 77, 81
1, 28217, Note_on_c, 1, 55, 0
1, 28217, Note_on_c, 1, 52, 0
1, 28223, Note_on_c, 0, 77, 0
1, 28224, Note_on_c, 0, 74, 81
1, 28224, Note_on_c, 1, 57, 79
1, 28224, Note_on_c, 1, 53, 79
1, 28313, Note_on_c, 0, 74, 0
1, 28320, Note_on_c, 0, 74, 79
1, 28387, Note_on_c, 0, 74, 0
1, 28392, Note_on_c, 0, 76, 79
1, 28401, Note_on_c, 1, 53, 0
1, 28415, Note_on_c, 0, 76, 0
1, 28416, Note_on_c, 0, 72, 79
1, 28416, Note_on_c, 1, 54, 82
1, 28483, Note_on_c, 0, 72, 0
1, 28488, Note_on_c, 0, 74, 79
1, 28489, Note_on_c, 1, 57, 0
1, 28505, Note_on_c, 1, 54, 0
1, 28511, Note_on_c, 0, 74, 0
1, 28512, Note_on_c, 0, 71, 79
1, 28512, Note_on_c, 0, 67, 64
1, 28512, Note_on_c, 1, 55, 79
1, 28512, Note_on_c, 1, 55, 83
1, 28579, Note_on_c, 0, 71, 0
1, 28584, Note_on_c, 0, 74, 79
1, 28601, Note_on_c, 0, 67, 0
1, 28601, Note_on_c, 1, 55, 0
1, 28601, Note_on_c, 1, 55, 0
1, 28607, Note_on_c, 0, 74, 0
1, 28608, Note_on_c, 0, 72, 79
1, 28608, Note_on_c, 0, 69, 64
1, 28675, Note_on_c, 0, 72, 0
1, 28680, Note_on_c, 0, 76, 79
1, 28697, Note_on_c, 0, 69, 0
1, 28703, Note_on_c, 0, 76, 0
1, 28704, Note_on_c, 0, 74, 79
1, 28704, Note_on_c, 0, 71, 64
1, 28771, Note_on_c, 0, 74, 0
1, 28776, Note_on_c, 0, 77, 79
1, 28793, Note_on_c, 0, 71, 0
1, 28799, Note_on_c, 0, 77, 0
1, 28800, Note_on_c, 0, 76, 79
1, 28800, Note_on_c, 0, 72, 64
1, 28896, Note_on_c, 1, 64, 79
1, 28896, Note_on_c, 1, 60, 79
1, 28963, Note_on_c, 0, 76, 0
1, 28968, Note_on_c, 0, 77, 81
1, 28977, Note_on_c, 0, 72, 0
1, 28985, Note_on_c, 1, 64, 0
1, 28985, Note_on_c, 1, 60, 0
1, 28991, Note_on_c, 0, 77, 0
1, 28992, Note_on_c, 0, 74, 81
1, 28992, Note_on_c, 0, 71, 64
1, 28992, Note_on_c, 1, 65, 79
1, 28992, Note_on_c, 1, 55, 79
1, 29059, Note_on_c, 0, 74, 0
1, 29064, Note_on_c, 0, 76, 82
1, 29081, Note_on_c, 0, 71, 0
1, 29081, Note_on_c, 1, 65, 0
1, 29081, Note_on_c, 1, 55, 0
1, 29087, Note_on_c, 0, 76, 0
1, 29088, Note_on_c, 0, 72, 82
1, 29088, Note_on_c, 1, 64, 79
1, 29088, Note_on_c, 1, 60, 79
1, 29177, Note_on_c, 0, 72, 0
1, 29177, Note_on_c, 1, 64, 0
1, 29177, Note_on_c, 1, 60, 0
1, 29184, Note_on_c, 0, 79, 83
1, 29273, Note_on_c, 0, 79, 0
1, 29280, Note_on_c, 0, 79, 85
1, 29369, Note_on_c, 0, 79, 0
1, 29376, Note_on_c, 0, 79, 85
1, 29376, Note_on_c, 1, 67, 79
1, 29376, Note_on_c, 1, 59, 85
1, 29424, Note_on_c, 0, 79, 0
1, 29424, Note_on_c, 0, 77, 84
1, 29469, Note_on_c, 0, 77, 0
1, 29472, Note_on_c, 0, 77, 84
1, 29520, Note_on_c, 0, 77, 0
1, 29520, Note_on_c, 0, 76, 83
1, 29553, Note_on_c, 1, 59, 0
1, 29565, Note_on_c, 0, 76, 0
1, 29568, Note_on_c, 0, 76, 83
1, 29568, Note_on_c, 1, 60, 85
1, 29616, Note_on_c, 0, 76, 0
1, 29616, Note_on_c, 0, 74, 82
1, 29657, Note_on_c, 1, 60, 0
1, 29661, Note_on_c, 0, 74, 0
1, 29664, Note_on_c, 0, 74, 82
1, 29664, Note_on_c, 1, 55, 79
1, 29703, Note_on_c, 0, 74, 0
1, 29753, Note_on_c, 1, 67, 0
1, 29753, Note_on_c, 1, 55, 0
1, 29760, Note_on_c, 0, 71, 81
1, 29799, Note_on_c, 0, 71, 0
1, 29856, Note_on_c, 0, 67, 80
1, 29895, Note_on_c, 0, 67, 0
1, 29952, Note_on_c, 0, 76, 79
1, 30048, Note_on_c, 1, 67, 79
1, 30048, Note_on_c, 1, 60, 79
1, 30115, Note_on_c, 0, 76, 0
1, 30120, Note_on_c, 0, 77, 81
1, 30137, Note_on_c, 1, 67, 0
1, 30137, Note_on_c, 1, 60, 0
1, 30143, Note_on_c, 0, 77, 0
1, 30144, Note_on_c, 0, 74, 81
1, 30144, Note_on_c, 1, 67, 79
1, 30144, Note_on_c, 1, 65, 79
1, 30211, Note_on_c, 0, 74, 0
1, 30216, Note_on_c, 0, 76, 82
1, 30233, Note_on_c, 1, 67, 0
1, 30233, Note_on_c, 1, 65, 0
1, 30239, Note_on_c, 0, 76, 0
1, 30240, Note_on_c, 0, 72, 82
1, 30240, Note_on_c, 1, 67, 79
1, 30240, Note_on_c, 1, 64, 79
1, 30329, Note_on_c, 0, 72, 0
1, 30329, Note_on_c, 1, 67, 0
1, 30329, Note_on_c, 1, 64, 0
1, 30336, Note_on_c, 0, 84, 83
1, 30425, Note_on_c, 0, 84, 0
1, 30432, Note_on_c, 0, 84, 85
1, 30432, Note_on_c, 1, 60, 79
1, 30432, Note_on_c, 1, 52, 79
1, 30521, Note_on_c, 0, 84, 0
1, 30521, Note_on_c, 1, 60, 0
1, 30521, Note_on_c, 1, 52, 0
1, 30528, Note_on_c, 0, 80, 85
1, 30528, Note_on_c, 1, 60, 79
1, 30528, Note_on_c, 1, 53, 79
1, 30552, Note_on_c, 0, 80, 0
1, 30552, Note_on_c, 0, 81, 84
1, 30575, Note_on_c, 0, 81, 0
1, 30617, Note_on_c, 1, 60, 0
1, 30617, Note_on_c, 1, 53, 0
1, 30624, Note_on_c, 0, 76, 82
1, 30648, Note_on_c, 0, 76, 0
1, 30648, Note_on_c, 0, 77, 82
1, 30671, Note_on_c, 0, 77, 0
1, 30720, Note_on_c, 0, 74, 80
1, 30720, Note_on_c, 1, 65, 79
1, 30720, Note_on_c, 1, 55, 79
1, 30744, Note_on_c, 0, 74, 0
1, 30744, Note_on_c, 0, 71, 79
1, 30767, Note_on_c, 0, 71, 0
1, 30809, Note_on_c, 1, 65, 0
1, 30809, Note_on_c, 1, 55, 0
1, 30816, Note_on_c, 0, 72, 79
1, 30816, Note_on_c, 1, 64, 79
1, 30816, Note_on_c, 1, 60, 79
1, 30905, Note_on_c, 0, 72, 0
1, 30905, Note_on_c, 1, 64, 0
1, 30905, Note_on_c, 1, 60, 0
1, 31104, Note_on_c, 0, 72, 79
1, 31104, Note_on_c, 1, 36, 79
1, 31149, Note_on_c, 1, 36, 0
1, 31152, Note_on_c, 1, 48, 79
1, 31193, Note_on_c, 0, 72, 0
1, 31197, Note_on_c, 1, 48, 0
1, 31200, Note_on_c, 0, 71, 79
1, 31200, Note_on_c, 1, 38, 79
1, 31245, Note_on_c, 1, 38, 0
1, 31248, Note_on_c, 1, 50, 79
1, 31289, Note_on_c, 0, 71, 0
1, 31293, Note_on_c, 1, 50, 0
1, 31296, Note_on_c, 0, 72, 79
1, 31296, Note_on_c, 1, 39, 79
1, 31341, Note_on_c, 1, 39, 0
1, 31344, Note_on_c, 1, 51, 79
1, 31385, Note_on_c, 0, 72, 0
1, 31389, Note_on_c, 1, 51, 0
1, 31392, Note_on_c, 0, 74, 79
1, 31392, Note_on_c, 0, 72, 64
1, 31392, Note_on_c, 1, 41, 79
1, 31437, Note_on_c, 1, 41, 0
1, 31440, Note_on_c, 1, 53, 79
1, 31481, Note_on_c, 0, 74, 0
1, 31485, Note_on_c, 1, 53, 0
1, 31488, Note_on_c, 0, 75, 79
1, 31488, Note_on_c, 1, 43, 79
1, 31533, Note_on_c, 1, 43, 0
1, 31536, Note_on_c, 1, 55, 79
1, 31577, Note_on_c, 0, 75, 0
1, 31581, Note_on_c, 1, 55, 0
1, 31584, Note_on_c, 0, 77, 79
1, 31584, Note_on_c, 1, 44, 79
1, 31629, Note_on_c, 1, 44, 0
1, 31632, Note_on_c, 1, 56, 79
1, 31657, Note_on_c, 0, 72, 0
1, 31673, Note_on_c, 0, 77, 0
1, 31677, Note_on_c, 1, 56, 0
1, 31680, Note_on_c, 0, 75, 79
1, 31680, Note_on_c, 0, 72, 64
1, 31680, Note_on_c, 1, 43, 79
1, 31725, Note_on_c, 1, 43, 0
1, 31728, Note_on_c, 1, 55, 79
1, 31769, Note_on_c, 0, 75, 0
1, 31769, Note_on_c, 0, 72, 0
1, 31773, Note_on_c, 1, 55, 0
1, 31776, Note_on_c, 0, 74, 79
1, 31776, Note_on_c, 0, 71, 64
1, 31776, Note_on_c, 1, 45, 79
1, 31821, Note_on_c, 1, 45, 0
1, 31824, Note_on_c, 1, 57, 79
1, 31865, Note_on_c, 0, 74, 0
1, 31865, Note_on_c, 0, 71, 0
1, 31869, Note_on_c, 1, 57, 0
1, 31872, Note_on_c, 0, 79, 79
1, 31872, Note_on_c, 0, 67, 64
1, 31872, Note_on_c, 1, 47, 79
1, 31917, Note_on_c, 1, 47, 0
1, 31920, Note_on_c, 1, 59, 79
1, 31961, Note_on_c, 0, 79, 0
1, 31961, Note_on_c, 0, 67, 0
1, 31965, Note_on_c, 1, 59, 0
1, 31968, Note_on_c, 0, 77, 79
1, 31968, Note_on_c, 0, 74, 64
1, 31968, Note_on_c, 1, 48, 79
1, 32013, Note_on_c, 1, 48, 0
1, 32016, Note_on_c, 1, 60, 79
1, 32057, Note_on_c, 0, 77, 0
1, 32057, Note_on_c, 0, 74, 0
1, 32061, Note_on_c, 1, 60, 0
1, 32064, Note_on_c, 0, 75, 79
1, 32064, Note_on_c, 0, 72, 64
1, 32064, Note_on_c, 1, 51, 79
1, 32109, Note_on_c, 1, 51, 0
1, 32112, Note_on_c, 1, 63, 79
1, 32153, Note_on_c, 0, 75, 0
1, 32153, Note_on_c, 0, 72, 0
1, 32157, Note_on_c, 1, 63, 0
1, 32160, Note_on_c, 0, 74, 79
1, 32160, Note_on_c, 0, 71, 64
1, 32160, Note_on_c, 1, 55, 79
1, 32205, Note_on_c, 1, 55, 0
1, 32208, Note_on_c, 1, 67, 79
1, 32249, Note_on_c, 0, 74, 0
1, 32249, Note_on_c, 0, 71, 0
1, 32253, Note_on_c, 1, 67, 0
1, 32256, Note_on_c, 0, 72, 79
1, 32256, Note_on_c, 1, 68, 79
1, 32256, Note_on_c, 1, 56, 79
1, 32301, Note_on_c, 0, 72, 0
1, 32304, Note_on_c, 0, 77, 80
1, 32349, Note_on_c, 0, 77, 0
1, 32352, Note_on_c, 0, 76, 81
1, 32397, Note_on_c, 0, 76, 0
1, 32400, Note_on_c, 0, 79, 82
1, 32445, Note_on_c, 0, 79, 0
1, 32448, Note_on_c, 0, 77, 83
1, 32493, Note_on_c, 0, 77, 0
1, 32496, Note_on_c, 0, 84, 84
1, 32521, Note_on_c, 1, 68, 0
1, 32521, Note_on_c, 1, 56, 0
1, 32541, Note_on_c, 0, 84, 0
1, 32544, Note_on_c, 0, 82, 85
1, 32544, Note_on_c, 1, 65, 79
1, 32544, Note_on_c, 1, 58, 79
1, 32544, Note_on_c, 1, 56, 79
1, 32589, Note_on_c, 0, 82, 0
1, 32592, Note_on_c, 0, 74, 85
1, 32637, Note_on_c, 0, 74, 0
1, 32640, Note_on_c, 0, 75, 85
1, 32685, Note_on_c, 0, 75, 0
1, 32688, Note_on_c, 0, 74, 85
1, 32721, Note_on_c, 1, 65, 0
1, 32721, Note_on_c, 1, 58, 0
1, 32721, Note_on_c, 1, 56, 0
1, 32733, Note_on_c, 0, 74, 0
1, 32736, Note_on_c, 0, 75, 85
1, 32736, Note_on_c, 1, 63, 79
1, 32736, Note_on_c, 1, 55, 79
1, 32781, Note_on_c, 0, 75, 0
1, 32784, Note_on_c, 0, 82, 85
1, 32825, Note_on_c, 1, 63, 0
1, 32825, Note_on_c, 1, 55, 0
1, 32829, Note_on_c, 0, 82, 0
1, 32832, Note_on_c, 0, 72, 85
1, 32832, Note_on_c, 1, 56, 79
1, 32877, Note_on_c, 0, 72, 0
1, 32880, Note_on_c, 0, 80, 84
1, 32921, Note_on_c, 1, 56, 0
1, 32925, Note_on_c, 0, 80, 0
1, 32928, Note_on_c, 0, 79, 83
1, 32928, Note_on_c, 1, 58, 79
1, 32973, Note_on_c, 0, 79, 0
1, 32976, Note_on_c, 0, 75, 82
1, 33017, Note_on_c, 1, 58, 0
1, 33021, Note_on_c, 0, 75, 0
1, 33024, Note_on_c, 0, 77, 81
1, 33024, Note_on_c, 1, 46, 79
1, 33069, Note_on_c, 0, 77, 0
1, 33072, Note_on_c, 0, 74, 80
1, 33113, Note_on_c, 1, 46, 0
1, 33117, Note_on_c, 0, 74, 0
1, 33120, Note_on_c, 0, 75, 79
1, 33120, Note_on_c, 1, 51, 79
1, 33209, Note_on_c, 0, 75, 0
1, 33209, Note_on_c, 1, 51, 0
1, 33216, Note_on_c, 1, 55, 79
1, 33261, Note_on_c, 1, 55, 0
1, 33264, Note_on_c, 1, 53, 79
1, 33309, Note_on_c, 1, 53, 0
1, 33312, Note_on_c, 1, 51, 79
1, 33357, Note_on_c, 1, 51, 0
1, 33360, Note_on_c, 1, 50, 79
1, 33405, Note_on_c, 1, 50, 0
1, 33408, Note_on_c, 0, 72, 79
1, 33408, Note_on_c, 1, 36, 79
1, 33453, Note_on_c, 1, 36, 0
1, 33456, Note_on_c, 1, 48, 79
1, 33497, Note_on_c, 0, 72, 0
1, 33501, Note_on_c, 1, 48, 0
1, 33504, Note_on_c, 0, 71, 79
1, 33504, Note_on_c, 1, 38, 79
1, 33549, Note_on_c, 1, 38, 0
1, 33552, Note_on_c, 1, 50, 79
1, 33593, Note_on_c, 0, 71, 0
1, 33597, Note_on_c, 1, 50, 0
1, 33600, Note_on_c, 0, 72, 79
1, 33600, Note_on_c, 1, 39, 79
1, 33645, Note_on_c, 1, 39, 0
1, 33648, Note_on_c, 1, 51, 79
1, 33689, Note_on_c, 0, 72, 0
1, 33693, Note_on_c, 1, 51, 0
1, 33696, Note_on_c, 0, 74, 79
1, 33696, Note_on_c, 0, 72, 64
1, 33696, Note_on_c, 1, 41, 79
1, 33741, Note_on_c, 1, 41, 0
1, 33744, Note_on_c, 1, 53, 79
1, 33785, Note_on_c, 0, 74, 0
1, 33789, Note_on_c, 1, 53, 0
1, 33792, Note_on_c, 0, 75, 79
1, 33792, Note_on_c, 1, 43, 79
1, 33837, Note_on_c, 1, 43, 0
1, 33840, Note_on_c, 1, 55, 79
1, 33881, Note_on_c, 0, 75, 0
1, 33885, Note_on_c, 1, 55, 0
1, 33888, Note_on_c, 0, 77, 79
1, 33888, Note_on_c, 1, 44, 79
1, 33933, Note_on_c, 1, 44, 0
1, 33936, Note_on_c, 1, 56, 79
1, 33961, Note_on_c, 0, 72, 0
1, 33977, Note_on_c, 0, 77, 0
1, 33981, Note_on_c, 1, 56, 0
1, 33984, Note_on_c, 0, 75, 79
1, 33984, Note_on_c, 0, 72, 64
1, 33984, Note_on_c, 1, 43, 79
1, 34029, Note_on_c, 1, 43, 0
1, 34032, Note_on_c, 1, 55, 79
1, 34073, Note_on_c, 0, 75, 0
1, 34073, Note_on_c, 0, 72, 0
1, 34077, Note_on_c, 1, 55, 0
1, 34080, Note_on_c, 0, 74, 79
1, 34080, Note_on_c, 0, 71, 64
1, 34080, Note_on_c, 1, 45, 79
1, 34125, Note_on_c, 1, 45, 0
1, 34128, Note_on_c, 1, 57, 79
1, 34169, Note_on_c, 0, 74, 0
1, 34169, Note_on_c, 0, 71, 0
1, 34173, Note_on_c, 1, 57, 0
1, 34176, Note_on_c, 0, 79, 79
1, 34176, Note_on_c, 0, 67, 64
1, 34176, Note_on_c, 1, 47, 79
1, 34221, Note_on_c, 1, 47, 0
1, 34224, Note_on_c, 1, 59, 79
1, 34265, Note_on_c, 0, 79, 0
1, 34265, Note_on_c, 0, 67, 0
1, 34269, Note_on_c, 1, 59, 0
1, 34272, Note_on_c, 0, 77, 79
1, 34272, Note_on_c, 0, 74, 64
1, 34272, Note_on_c, 1, 48, 79
1, 34317, Note_on_c, 1, 48, 0
1, 34320, Note_on_c, 1, 60, 79
1, 34361, Note_on_c, 0, 77, 0
1, 34361, Note_on_c, 0, 74, 0
1, 34365, Note_on_c, 1, 60, 0
1, 34368, Note_on_c, 0, 75, 79
1, 34368, Note_on_c, 0, 72, 64
1, 34368, Note_on_c, 1, 51, 79
1, 34413, Note_on_c, 1, 51, 0
1, 34416, Note_on_c, 1, 63, 79
1, 34457, Note_on_c, 0, 75, 0
1, 34457, Note_on_c, 0, 72, 0
1, 34461, Note_on_c, 1, 63, 0
1, 34464, Note_on_c, 0, 74, 79
1, 34464, Note_on_c, 0, 71, 64
1, 34464, Note_on_c, 1, 55, 79
1, 34509, Note_on_c, 1, 55, 0
1, 34512, Note_on_c, 1, 67, 79
1, 34553, Note_on_c, 0, 74, 0
1, 34553, Note_on_c, 0, 71, 0
1, 34557, Note_on_c, 1, 67, 0
1, 34560, Note_on_c, 0, 72, 79
1, 34560, Note_on_c, 1, 68, 79
1, 34560, Note_on_c, 1, 56, 79
1, 34605, Note_on_c, 0, 72, 0
1, 34608, Note_on_c, 0, 77, 80
1, 34653, Note_on_c, 0, 77, 0
1, 34656, Note_on_c, 0, 76, 81
1, 34701, Note_on_c, 0, 76, 0
1, 34704, Note_on_c, 0, 79, 82
1, 34749, Note_on_c, 0, 79, 0
1, 34752, Note_on_c, 0, 77, 83
1, 34797, Note_on_c, 0, 77, 0
1, 34800, Note_on_c, 0, 84, 84
1, 34825, Note_on_c, 1, 68, 0
1, 34825, Note_on_c, 1, 56, 0
1, 34845, Note_on_c, 0, 84, 0
1, 34848, Note_on_c, 0, 82, 85
1, 34848, Note_on_c, 1, 65, 79
1, 34848, Note_on_c, 1, 58, 79
1, 34848, Note_on_c, 1, 56, 79
1, 34893, Note_on_c, 0, 82, 0
1, 34896, Note_on_c, 0, 74, 85
1, 34941, Note_on_c, 0, 74, 0
1, 34944, Note_on_c, 0, 75, 85
1, 34989, Note_on_c, 0, 75, 0
1, 34992, Note_on_c, 0, 74, 85
1, 35025, Note_on_c, 1, 65, 0
1, 35025, Note_on_c, 1, 58, 0
1, 35025, Note_on_c, 1, 56, 0
1, 35037, Note_on_c, 0, 74, 0
1, 35040, Note_on_c, 0, 75, 85
1, 35040, Note_on_c, 1, 63, 79
1, 35040, Note_on_c, 1, 55, 79
1, 35085, Note_on_c, 0, 75, 0
1, 35088, Note_on_c, 0, 82, 85
1, 35129, Note_on_c, 1, 63, 0
1, 35129, Note_on_c, 1, 55, 0
1, 35133, Note_on_c, 0, 82, 0
1, 35136, Note_on_c, 0, 72, 85
1, 35136, Note_on_c, 1, 56, 79
1, 35181, Note_on_c, 0, 72, 0
1, 35184, Note_on_c, 0, 80, 84
1, 35225, Note_on_c, 1, 56, 0
1, 35229, Note_on_c, 0, 80, 0
1, 35232, Note_on_c, 0, 79, 83
1, 35232, Note_on_c, 1, 58, 79
1, 35277, Note_on_c, 0, 79, 0
1, 35280, Note_on_c, 0, 75, 82
1, 35321, Note_on_c, 1, 58, 0
1, 35325, Note_on_c, 0, 75, 0
1, 35328, Note_on_c, 0, 77, 81
1, 35328, Note_on_c, 1, 46, 79
1, 35373, Note_on_c, 0, 77, 0
1, 35376, Note_on_c, 0, 74, 80
1, 35417, Note_on_c, 1, 46, 0
1, 35421, Note_on_c, 0, 74, 0
1, 35424, Note_on_c, 0, 75, 79
1, 35424, Note_on_c, 1, 51, 79
1, 35513, Note_on_c, 0, 75, 0
1, 35513, Note_on_c, 1, 51, 0
1, 35520, Note_on_c, 1, 46, 79
1, 35609, Note_on_c, 1, 46, 0
1, 35616, Note_on_c, 1, 39, 79
1, 35705, Note_on_c, 1, 39, 0
1, 35712, Note_on_c, 0, 79, 73
1, 35712, Note_on_c, 0, 67, 73
1, 35712, Note_on_c, 1, 63, 73
1, 35757, Note_on_c, 0, 79, 0
1, 35757, Note_on_c, 1, 63, 0
1, 35760, Note_on_c, 0, 78, 73
1, 35760, Note_on_c, 1, 62, 73
1, 35805, Note_on_c, 0, 78, 0
1, 35805, Note_on_c, 1, 62, 0
1, 35808, Note_on_c, 0, 79, 73
1, 35808, Note_on_c, 1, 63, 73
1, 35853, Note_on_c, 0, 79, 0
1, 35853, Note_on_c, 1, 63, 0
1, 35856, Note_on_c, 0, 75, 73
1, 35856, Note_on_c, 1, 60, 73
1, 35901, Note_on_c, 0, 75, 0
1, 35901, Note_on_c, 1, 60, 0
1, 35904, Note_on_c, 0, 74, 73
1, 35904, Note_on_c, 1, 62, 73
1, 35949, Note_on_c, 0, 74, 0
1, 35949, Note_on_c, 1, 62, 0
1, 35952, Note_on_c, 0, 72, 73
1, 35952, Note_on_c, 1, 63, 73
1, 35977, Note_on_c, 0, 67, 0
1, 35997, Note_on_c, 0, 72, 0
1, 35997, Note_on_c, 1, 63, 0
1, 36000, Note_on_c, 0, 71, 73
1, 36000, Note_on_c, 0, 68, 73
1, 36000, Note_on_c, 1, 65, 73
1, 36045, Note_on_c, 0, 68, 0
1, 36045, Note_on_c, 1, 65, 0
1, 36048, Note_on_c, 0, 67, 73
1, 36048, Note_on_c, 1, 64, 73
1, 36093, Note_on_c, 0, 67, 0
1, 36093, Note_on_c, 1, 64, 0
1, 36096, Note_on_c, 0, 68, 73
1, 36096, Note_on_c, 1, 65, 73
1, 36141, Note_on_c, 0, 68, 0
1, 36141, Note_on_c, 1, 65, 0
1, 36144, Note_on_c, 0, 65, 73
1, 36144, Note_on_c, 1, 62, 73
1, 36189, Note_on_c, 0, 65, 0
1, 36189, Note_on_c, 1, 62, 0
1, 36192, Note_on_c, 0, 67, 73
1, 36192, Note_on_c, 1, 63, 73
1, 36237, Note_on_c, 0, 67, 0
1, 36237, Note_on_c, 1, 63, 0
1, 36240, Note_on_c, 0, 68, 73
1, 36240, Note_on_c, 1, 65, 73
1, 36265, Note_on_c, 0, 71, 0
1, 36285, Note_on_c, 0, 68, 0
1, 36285, Note_on_c, 1, 65, 0
1, 36288, Note_on_c, 0, 79, 73
1, 36288, Note_on_c, 0, 67, 73
1, 36288, Note_on_c, 1, 63, 73
1, 36333, Note_on_c, 0, 79, 0
1, 36333, Note_on_c, 1, 63, 0
1, 36336, Note_on_c, 0, 78, 73
1, 36336, Note_on_c, 1, 62, 73
1, 36381, Note_on_c, 0, 78, 0
1, 36381, Note_on_c, 1, 62, 0
1, 36384, Note_on_c, 0, 79, 73
1, 36384, Note_on_c, 1, 63, 73
1, 36429, Note_on_c, 0, 79, 0
1, 36429, Note_on_c, 1, 63, 0
1, 36432, Note_on_c, 0, 75, 73
1, 36432, Note_on_c, 1, 60, 73
1, 36477, Note_on_c, 0, 75, 0
1, 36477, Note_on_c, 1, 60, 0
1, 36480, Note_on_c, 0, 74, 73
1, 36480, Note_on_c, 1, 62, 73
1, 36525, Note_on_c, 0, 74, 0
1, 36525, Note_on_c, 1, 62, 0
1, 36528, Note_on_c, 0, 72, 73
1, 36528, Note_on_c, 1, 63, 73
1, 36553, Note_on_c, 0, 67, 0
1, 36573, Note_on_c, 0, 72, 0
1, 36573, Note_on_c, 1, 63, 0
1, 36576, Note_on_c, 0, 71, 73
1, 36576, Note_on_c, 0, 68, 73
1, 36576, Note_on_c, 1, 65, 73
1, 36621, Note_on_c, 0, 68, 0
1, 36621, Note_on_c, 1, 65, 0
1, 36624, Note_on_c, 0, 67, 73
1, 36624, Note_on_c, 1, 64, 73
1, 36669, Note_on_c, 0, 67, 0
1, 36669, Note_on_c, 1, 64, 0
1, 36672, Note_on_c, 0, 68, 73
1, 36672, Note_on_c, 1, 65, 73
1, 36717, Note_on_c, 0, 68, 0
1, 36717, Note_on_c, 1, 65, 0
1, 36720, Note_on_c, 0, 65, 73
1, 36720, Note_on_c, 1, 62, 73
1, 36765, Note_on_c, 0, 65, 0
1, 36765, Note_on_c, 1, 62, 0
1, 36768, Note_on_c, 0, 67, 73
1, 36768, Note_on_c, 1, 63, 73
1, 36813, Note_on_c, 0, 67, 0
1, 36813, Note_on_c, 1, 63, 0
1, 36816, Note_on_c, 0, 68, 73
1, 36816, Note_on_c, 1, 65, 73
1, 36841, Note_on_c, 0, 71, 0
1, 36861, Note_on_c, 0, 68, 0
1, 36861, Note_on_c, 1, 65, 0
1, 36864, Note_on_c, 0, 72, 73
1, 36864, Note_on_c, 0, 67, 73
1, 36864, Note_on_c, 1, 63, 73
1, 36909, Note_on_c, 0, 67, 0
1, 36909, Note_on_c, 1, 63, 0
1, 36912, Note_on_c, 0, 65, 73
1, 36912, Note_on_c, 1, 62, 73
1, 36957, Note_on_c, 0, 65, 0
1, 36957, Note_on_c, 1, 62, 0
1, 36960, Note_on_c, 0, 67, 73
1, 36960, Note_on_c, 1, 63, 73
1, 37005, Note_on_c, 0, 67, 0
1, 37005, Note_on_c, 1, 63, 0
1, 37008, Note_on_c, 0, 63, 73
1, 37008, Note_on_c, 1, 60, 73
1, 37053, Note_on_c, 0, 63, 0
1, 37053, Note_on_c, 1, 60, 0
1, 37056, Note_on_c, 0, 65, 73
1, 37056, Note_on_c, 1, 62, 73
1, 37101, Note_on_c, 0, 65, 0
1, 37101, Note_on_c, 1, 62, 0
1, 37104, Note_on_c, 0, 67, 73
1, 37104, Note_on_c, 1, 63, 73
1, 37129, Note_on_c, 0, 72, 0
1, 37149, Note_on_c, 0, 67, 0
1, 37149, Note_on_c, 1, 63, 0
1, 37152, Note_on_c, 0, 74, 73
1, 37152, Note_on_c, 0, 67, 73
1, 37152, Note_on_c, 1, 59, 73
1, 37197, Note_on_c, 0, 74, 0
1, 37197, Note_on_c, 1, 59, 0
1, 37200, Note_on_c, 0, 75, 73
1, 37200, Note_on_c, 1, 60, 73
1, 37245, Note_on_c, 0, 75, 0
1, 37245, Note_on_c, 1, 60, 0
1, 37248, Note_on_c, 0, 77, 73
1, 37248, Note_on_c, 1, 62, 73
1, 37293, Note_on_c, 0, 77, 0
1, 37293, Note_on_c, 1, 62, 0
1, 37296, Note_on_c, 0, 74, 73
1, 37296, Note_on_c, 1, 59, 73
1, 37341, Note_on_c, 0, 74, 0
1, 37341, Note_on_c, 1, 59, 0
1, 37344, Note_on_c, 0, 75, 73
1, 37344, Note_on_c, 1, 60, 73
1, 37389, Note_on_c, 0, 75, 0
1, 37389, Note_on_c, 1, 60, 0
1, 37392, Note_on_c, 0, 72, 73
1, 37392, Note_on_c, 1, 57, 73
1, 37417, Note_on_c, 0, 67, 0
1, 37437, Note_on_c, 0, 72, 0
1, 37437, Note_on_c, 1, 57, 0
1, 37440, Note_on_c, 0, 79, 73
1, 37440, Note_on_c, 0, 67, 73
1, 37440, Note_on_c, 1, 55, 73
1, 37817, Note_on_c, 0, 67, 0
1, 37817, Note_on_c, 1, 55, 0
1, 37891, Note_on_c, 0, 79, 0
1, 37896, Note_on_c, 0, 81, 79
1, 37919, Note_on_c, 0, 81, 0
1, 37920, Note_on_c, 0, 77, 79
1, 37987, Note_on_c, 0, 77, 0
1, 37992, Note_on_c, 0, 79, 79
1, 38015, Note_on_c, 0, 79, 0
1, 38016, Note_on_c, 0, 76, 79
1, 38112, Note_on_c, 1, 67, 73
1, 38112, Note_on_c, 1, 60, 73
1, 38179, Note_on_c, 0, 76, 0
1, 38184, Note_on_c, 0, 77, 81
1, 38201, Note_on_c, 1, 67, 0
1, 38201, Note_on_c, 1, 60, 0
1, 38207, Note_on_c, 0, 77, 0
1, 38208, Note_on_c, 0, 74, 81
1, 38208, Note_on_c, 1, 67, 73
1, 38208, Note_on_c, 1, 65, 73
1, 38275, Note_on_c, 0, 74, 0
1, 38280, Note_on_c, 0, 76, 82
1, 38297, Note_on_c, 1, 67, 0
1, 38297, Note_on_c, 1, 65, 0
1, 38303, Note_on_c, 0, 76, 0
1, 38304, Note_on_c, 0, 72, 82
1, 38304, Note_on_c, 1, 67, 73
1, 38304, Note_on_c, 1, 64, 73
1, 38393, Note_on_c, 0, 72, 0
1, 38393, Note_on_c, 1, 67, 0
1, 38393, Note_on_c, 1, 64, 0
1, 38400, Note_on_c, 0, 79, 83
1, 38489, Note_on_c, 0, 79, 0
1, 38496, Note_on_c, 0, 79, 85
1, 38585, Note_on_c, 0, 79, 0
1, 38592, Note_on_c, 0, 79, 85
1, 38592, Note_on_c, 1, 67, 73
1, 38592, Note_on_c, 1, 59, 79
1, 38640, Note_on_c, 0, 79, 0
1, 38640, Note_on_c, 0, 77, 85
1, 38685, Note_on_c, 0, 77, 0
1, 38688, Note_on_c, 0, 77, 84
1, 38736, Note_on_c, 0, 77, 0
1, 38736, Note_on_c, 0, 76, 83
1, 38769, Note_on_c, 1, 59, 0
1, 38781, Note_on_c, 0, 76, 0
1, 38784, Note_on_c, 0, 76, 83
1, 38784, Note_on_c, 1, 60, 79
1, 38832, Note_on_c, 0, 76, 0
1, 38832, Note_on_c, 0, 74, 82
1, 38873, Note_on_c, 1, 60, 0
1, 38877, Note_on_c, 0, 74, 0
1, 38880, Note_on_c, 0, 74, 82
1, 38880, Note_on_c, 1, 55, 73
1, 38919, Note_on_c, 0, 74, 0
1, 38969, Note_on_c, 1, 67, 0
1, 38969, Note_on_c, 1, 55, 0
1, 38976, Note_on_c, 0, 71, 81
1, 39015, Note_on_c, 0, 71, 0
1, 39072, Note_on_c, 0, 67, 80
1, 39111, Note_on_c, 0, 67, 0
1, 39168, Note_on_c, 0, 76, 79
1, 39264, Note_on_c, 1, 67, 73
1, 39264, Note_on_c, 1, 60, 73
1, 39331, Note_on_c, 0, 76, 0
1, 39336, Note_on_c, 0, 77, 81
1, 39353, Note_on_c, 1, 67, 0
1, 39353, Note_on_c, 1, 60, 0
1, 39359, Note_on_c, 0, 77, 0
1, 39360, Note_on_c, 0, 74, 81
1, 39360, Note_on_c, 1, 67, 73
1, 39360, Note_on_c, 1, 65, 73
1, 39427, Note_on_c, 0, 74, 0
1, 39432, Note_on_c, 0, 76, 82
1, 39449, Note_on_c, 1, 67, 0
1, 39449, Note_on_c, 1, 65, 0
1, 39455, Note_on_c, 0, 76, 0
1, 39456, Note_on_c, 0, 72, 82
1, 39456, Note_on_c, 1, 67, 73
1, 39456, Note_on_c, 1, 64, 73
1, 39545, Note_on_c, 0, 72, 0
1, 39545, Note_on_c, 1, 67, 0
1, 39545, Note_on_c, 1, 64, 0
1, 39552, Note_on_c, 0, 84, 83
1, 39641, Note_on_c, 0, 84, 0
1, 39648, Note_on_c, 0, 84, 85
1, 39737, Note_on_c, 0, 84, 0
1, 39744, Note_on_c, 0, 80, 85
1, 39744, Note_on_c, 1, 60, 73
1, 39744, Note_on_c, 1, 53, 73
1, 39768, Note_on_c, 0, 80, 0
1, 39768, Note_on_c, 0, 81, 84
1, 39791, Note_on_c, 0, 81, 0
1, 39833, Note_on_c, 1, 60, 0
1, 39833, Note_on_c, 1, 53, 0
1, 39840, Note_on_c, 0, 76, 82
1, 39864, Note_on_c, 0, 76, 0
1, 39864, Note_on_c, 0, 77, 82
1, 39887, Note_on_c, 0, 77, 0
1, 39936, Note_on_c, 0, 74, 80
1, 39936, Note_on_c, 1, 65, 73
1, 39936, Note_on_c, 1, 55, 73
1, 39960, Note_on_c, 0, 74, 0
1, 39960, Note_on_c, 0, 71, 79
1, 39983, Note_on_c, 0, 71, 0
1, 40025, Note_on_c, 1, 65, 0
1, 40025, Note_on_c, 1, 55, 0
1, 40032, Note_on_c, 0, 72, 79
1, 40032, Note_on_c, 1, 64, 73
1, 40032, Note_on_c, 1, 60, 73
1, 40121, Note_on_c, 0, 72, 0
1, 40121, Note_on_c, 1, 64, 0
1, 40121, Note_on_c, 1, 60, 0
1, 40320, Note_on_c, 0, 77, 79
1, 40416, Note_on_c, 1, 67, 73
1, 40416, Note_on_c, 1, 59, 73
1, 40483, Note_on_c, 0, 77, 0
1, 40488, Note_on_c, 0, 79, 79
1, 40505, Note_on_c, 1, 67, 0
1, 40505, Note_on_c, 1, 59, 0
1, 40511, Note_on_c, 0, 79, 0
1, 40512, Note_on_c, 0, 76, 79
1, 40512, Note_on_c, 1, 67, 73
1, 40512, Note_on_c, 1, 60, 73
1, 40579, Note_on_c, 0, 76, 0
1, 40584, Note_on_c, 0, 77, 79
1, 40601, Note_on_c, 1, 67, 0
1, 40601, Note_on_c, 1, 60, 0
1, 40607, Note_on_c, 0, 77, 0
1, 40608, Note_on_c, 0, 74, 79
1, 40608, Note_on_c, 1, 67, 73
1, 40608, Note_on_c, 1, 55, 73
1, 40647, Note_on_c, 0, 74, 0
1, 40697, Note_on_c, 1, 67, 0
1, 40697, Note_on_c, 1, 55, 0
1, 40704, Note_on_c, 0, 71, 79
1, 40743, Note_on_c, 0, 71, 0
1, 40800, Note_on_c, 0, 67, 79
1, 40839, Note_on_c, 0, 67, 0
1, 40896, Note_on_c, 0, 84, 79
1, 40992, Note_on_c, 1, 67, 73
1, 40992, Note_on_c, 1, 64, 73
1, 41059, Note_on_c, 0, 84, 0
1, 41064, Note_on_c, 0, 86, 79
1, 41087, Note_on_c, 0, 86, 0
1, 41088, Note_on_c, 0, 83, 79
1, 41088, Note_on_c, 1, 67, 0
1, 41088, Note_on_c, 1, 64, 0
1, 41088, Note_on_c, 1, 66, 73
1, 41088, Note_on_c, 1, 62, 73
1, 41155, Note_on_c, 0, 83, 0
1, 41160, Note_on_c, 0, 84, 79
1, 41177, Note_on_c, 1, 66, 0
1, 41177, Note_on_c, 1, 62, 0
1, 41183, Note_on_c, 0, 84, 0
1, 41184, Note_on_c, 0, 81, 79
1, 41280, Note_on_c, 1, 64, 73
1, 41280, Note_on_c, 1, 60, 73
1, 41347, Note_on_c, 0, 81, 0
1, 41352, Note_on_c, 0, 83, 79
1, 41375, Note_on_c, 0, 83, 0
1, 41376, Note_on_c, 0, 79, 79
1, 41376, Note_on_c, 1, 64, 0
1, 41376, Note_on_c, 1, 60, 0
1, 41376, Note_on_c, 1, 62, 73
1, 41376, Note_on_c, 1, 59, 73
1, 41443, Note_on_c, 0, 79, 0
1, 41448, Note_on_c, 0, 81, 79
1, 41465, Note_on_c, 1, 62, 0
1, 41465, Note_on_c, 1, 59, 0
1, 41471, Note_on_c, 0, 81, 0
1, 41472, Note_on_c, 0, 78, 79
1, 41472, Note_on_c, 1, 60, 73
1, 41472, Note_on_c, 1, 57, 79
1, 41539, Note_on_c, 0, 78, 0
1, 41544, Note_on_c, 0, 81, 79
1, 41567, Note_on_c, 0, 81, 0
1, 41568, Note_on_c, 0, 84, 79
1, 41635, Note_on_c, 0, 84, 0
1, 41640, Note_on_c, 0, 81, 79
1, 41649, Note_on_c, 1, 60, 0
1, 41649, Note_on_c, 1, 57, 0
1, 41663, Note_on_c, 0, 81, 0
1, 41664, Note_on_c, 0, 78, 79
1, 41664, Note_on_c, 1, 50, 73
1, 41731, Note_on_c, 0, 78, 0
1, 41736, Note_on_c, 0, 81, 79
1, 41753, Note_on_c, 1, 50, 0
1, 41759, Note_on_c, 0, 81, 0
1, 41760, Note_on_c, 0, 79, 79
1, 41760, Note_on_c, 1, 55, 73
1, 41827, Note_on_c, 1, 55, 0
1, 41832, Note_on_c, 1, 59, 73
1, 41849, Note_on_c, 0, 79, 0
1, 41855, Note_on_c, 1, 59, 0
1, 41856, Note_on_c, 0, 79, 79
1, 41856, Note_on_c, 1, 62, 73
1, 41923, Note_on_c, 1, 62, 0
1, 41928, Note_on_c, 1, 67, 73
1, 41945, Note_on_c, 0, 79, 0
1, 41951, Note_on_c, 1, 67, 0
1, 41952, Note_on_c, 0, 79, 79
1, 41952, Note_on_c, 1, 71, 73
1, 42019, Note_on_c, 1, 71, 0
1, 42024, Note_on_c, 1, 67, 73
1, 42041, Note_on_c, 0, 79, 0
1, 42047, Note_on_c, 1, 67, 0
1, 42048, Note_on_c, 0, 78, 79
1, 42048, Note_on_c, 1, 72, 73
1, 42048, Note_on_c, 1, 69, 79
1, 42115, Note_on_c, 0, 78, 0
1, 42120, Note_on_c, 0, 81, 79
1, 42143, Note_on_c, 0, 81, 0
1, 42144, Note_on_c, 0, 84, 79
1, 42211, Note_on_c, 0, 84, 0
1, 42216, Note_on_c, 0, 81, 79
1, 42225, Note_on_c, 1, 72, 0
1, 42225, Note_on_c, 1, 69, 0
1, 42239, Note_on_c, 0, 81, 0
1, 42240, Note_on_c, 0, 78, 79
1, 42240, Note_on_c, 1, 62, 73
1, 42307, Note_on_c, 0, 78, 0
1, 42312, Note_on_c, 0, 81, 79
1, 42329, Note_on_c, 1, 62, 0
1, 42335, Note_on_c, 0, 81, 0
1, 42336, Note_on_c, 0, 79, 79
1, 42336, Note_on_c, 1, 55, 73
1, 42403, Note_on_c, 1, 55, 0
1, 42408, Note_on_c, 1, 59, 73
1, 42425, Note_on_c, 0, 79, 0
1, 42431, Note_on_c, 1, 59, 0
1, 42432, Note_on_c, 0, 79, 79
1, 42432, Note_on_c, 1, 50, 73
1, 42499, Note_on_c, 1, 50, 0
1, 42504, Note_on_c, 1, 55, 73
1, 42521, Note_on_c, 0, 79, 0
1, 42527, Note_on_c, 1, 55, 0
1, 42528, Note_on_c, 0, 79, 79
1, 42528, Note_on_c, 1, 47, 73
1, 42595, Note_on_c, 1, 47, 0
1, 42600, Note_on_c, 1, 50, 73
1, 42617, Note_on_c, 0, 79, 0
1, 42623, Note_on_c, 1, 50, 0
1, 42624, Note_on_c, 0, 79, 79
1, 42624, Note_on_c, 1, 43, 73
1, 42889, Note_on_c, 1, 43, 0
1, 43038, Note_on_c, 0, 79, 0
1, 43040, Note_on_c, 0, 81, 68
1, 43070, Note_on_c, 0, 81, 0
1, 43072, Note_on_c, 0, 79, 68
1, 43102, Note_on_c, 0, 79, 0
1, 43104, Note_on_c, 0, 77, 68
1, 43134, Note_on_c, 0, 77, 0
1, 43136, Note_on_c, 0, 79, 68
1, 43166, Note_on_c, 0, 79, 0
1, 43168, Note_on_c, 0, 77, 68
1, 43198, Note_on_c, 0, 77, 0
1, 43200, Note_on_c, 0, 76, 68
1, 43296, Note_on_c, 1, 67, 68
1, 43296, Note_on_c, 1, 60, 68
1, 43326, Note_on_c, 0, 76, 0
1, 43328, Note_on_c, 0, 77, 69
1, 43358, Note_on_c, 0, 77, 0
1, 43360, Note_on_c, 0, 76, 69
1, 43385, Note_on_c, 1, 67, 0
1, 43385, Note_on_c, 1, 60, 0
1, 43390, Note_on_c, 0, 76, 0
1, 43392, Note_on_c, 0, 74, 69
1, 43392, Note_on_c, 1, 67, 68
1, 43392, Note_on_c, 1, 65, 68
1, 43422, Note_on_c, 0, 74, 0
1, 43424, Note_on_c, 0, 76, 69
1, 43454, Note_on_c, 0, 76, 0
1, 43456, Note_on_c, 0, 74, 70
1, 43481, Note_on_c, 1, 67, 0
1, 43481, Note_on_c, 1, 65, 0
1, 43486, Note_on_c, 0, 74, 0
1, 43488, Note_on_c, 0, 72, 70
1, 43488, Note_on_c, 1, 67, 68
1, 43488, Note_on_c, 1, 64, 68
1, 43533, Note_on_c, 0, 72, 0
1, 43536, Note_on_c, 0, 79, 70
1, 43577, Note_on_c, 1, 67, 0
1, 43577, Note_on_c, 1, 64, 0
1, 43581, Note_on_c, 0, 79, 0
1, 43584, Note_on_c, 0, 79, 71
1, 43629, Note_on_c, 0, 79, 0
1, 43632, Note_on_c, 0, 79, 71
1, 43677, Note_on_c, 0, 79, 0
1, 43680, Note_on_c, 0, 79, 72
1, 43725, Note_on_c, 0, 79, 0
1, 43728, Note_on_c, 0, 79, 72
1, 43773, Note_on_c, 0, 79, 0
1, 43776, Note_on_c, 0, 79, 73
1, 43776, Note_on_c, 1, 67, 68
1, 43776, Note_on_c, 1, 59, 79
1, 43821, Note_on_c, 0, 79, 0
1, 43824, Note_on_c, 0, 78, 72
1, 43869, Note_on_c, 0, 78, 0
1, 43872, Note_on_c, 0, 77, 72
1, 43917, Note_on_c, 0, 77, 0
1, 43920, Note_on_c, 0, 76, 71
1, 43953, Note_on_c, 1, 59, 0
1, 43965, Note_on_c, 0, 76, 0
1, 43968, Note_on_c, 0, 75, 71
1, 43968, Note_on_c, 1, 60, 79
1, 44013, Note_on_c, 0, 75, 0
1, 44016, Note_on_c, 0, 74, 70
1, 44057, Note_on_c, 1, 60, 0
1, 44061, Note_on_c, 0, 74, 0
1, 44064, Note_on_c, 0, 74, 70
1, 44064, Note_on_c, 1, 55, 68
1, 44103, Note_on_c, 0, 74, 0
1, 44153, Note_on_c, 1, 67, 0
1, 44153, Note_on_c, 1, 55, 0
1, 44160, Note_on_c, 0, 71, 69
1, 44199, Note_on_c, 0, 71, 0
1, 44256, Note_on_c, 0, 67, 68
1, 44295, Note_on_c, 0, 67, 0
1, 44352, Note_on_c, 0, 76, 85
1, 44448, Note_on_c, 1, 67, 79
1, 44448, Note_on_c, 1, 60, 79
1, 44478, Note_on_c, 0, 76, 0
1, 44480, Note_on_c, 0, 77, 85
1, 44510, Note_on_c, 0, 77, 0
1, 44512, Note_on_c, 0, 76, 85
1, 44537, Note_on_c, 1, 67, 0
1, 44537, Note_on_c, 1, 60, 0
1, 44542, Note_on_c, 0, 76, 0
1, 44544, Note_on_c, 0, 74, 85
1, 44544, Note_on_c, 1, 67, 79
1, 44544, Note_on_c, 1, 65, 79
1, 44574, Note_on_c, 0, 74, 0
1, 44576, Note_on_c, 0, 76, 85
1, 44606, Note_on_c, 0, 76, 0
1, 44608, Note_on_c, 0, 74, 85
1, 44633, Note_on_c, 1, 67, 0
1, 44633, Note_on_c, 1, 65, 0
1, 44638, Note_on_c, 0, 74, 0
1, 44640, Note_on_c, 0, 72, 85
1, 44640, Note_on_c, 1, 67, 79
1, 44640, Note_on_c, 1, 64, 79
1, 44670, Note_on_c, 0, 72, 0
1, 44672, Note_on_c, 0, 76, 85
1, 44702, Note_on_c, 0, 76, 0
1, 44704, Note_on_c, 0, 79, 85
1, 44729, Note_on_c, 1, 67, 0
1, 44729, Note_on_c, 1, 64, 0
1, 44734, Note_on_c, 0, 79, 0
1, 44736, Note_on_c, 0, 76, 85
1, 44766, Note_on_c, 0, 76, 0
1, 44768, Note_on_c, 0, 79, 85
1, 44798, Note_on_c, 0, 79, 0
1, 44800, Note_on_c, 0, 84, 85
1, 44830, Note_on_c, 0, 84, 0
1, 44832, Note_on_c, 0, 79, 85
1, 44832, Note_on_c, 1, 55, 79
1, 44832, Note_on_c, 1, 52, 79
1, 44862, Note_on_c, 0, 79, 0
1, 44864, Note_on_c, 0, 84, 85
1, 44894, Note_on_c, 0, 84, 0
1, 44896, Note_on_c, 0, 88, 85
1, 44921, Note_on_c, 1, 55, 0
1, 44921, Note_on_c, 1, 52, 0
1, 44926, Note_on_c, 0, 88, 0
1, 44928, Note_on_c, 0, 74, 85
1, 44928, Note_on_c, 1, 57, 79
1, 44928, Note_on_c, 1, 53, 79
1, 45017, Note_on_c, 0, 74, 0
1, 45017, Note_on_c, 1, 57, 0
1, 45017, Note_on_c, 1, 53, 0
1, 45024, Note_on_c, 0, 77, 85
1, 45091, Note_on_c, 0, 77, 0
1, 45096, Note_on_c, 0, 74, 85
1, 45119, Note_on_c, 0, 74, 0
1, 45120, Note_on_c, 0, 71, 85
1, 45120, Note_on_c, 1, 65, 79
1, 45120, Note_on_c, 1, 55, 79
1, 45187, Note_on_c, 0, 71, 0
1, 45192, Note_on_c, 0, 74, 85
1, 45209, Note_on_c, 1, 65, 0
1, 45209, Note_on_c, 1, 55, 0
1, 45215, Note_on_c, 0, 74, 0
1, 45216, Note_on_c, 0, 72, 85
1, 45216, Note_on_c, 1, 64, 79
1, 45216, Note_on_c, 1, 60, 79
1, 45246, Note_on_c, 0, 72, 0
1, 45248, Note_on_c, 0, 76, 85
1, 45278, Note_on_c, 0, 76, 0
1, 45280, Note_on_c, 0, 79, 85
1, 45305, Note_on_c, 1, 64, 0
1, 45305, Note_on_c, 1, 60, 0
1, 45310, Note_on_c, 0, 79, 0
1, 45312, Note_on_c, 0, 76, 85
1, 45342, Note_on_c, 0, 76, 0
1, 45344, Note_on_c, 0, 79, 85
1, 45374, Note_on_c, 0, 79, 0
1, 45376, Note_on_c, 0, 84, 85
1, 45406, Note_on_c, 0, 84, 0
1, 45408, Note_on_c, 0, 79, 85
1, 45408, Note_on_c, 1, 55, 79
1, 45408, Note_on_c, 1, 52, 79
1, 45438, Note_on_c, 0, 79, 0
1, 45440, Note_on_c, 0, 84, 85
1, 45470, Note_on_c, 0, 84, 0
1, 45472, Note_on_c, 0, 88, 85
1, 45497, Note_on_c, 1, 55, 0
1, 45497, Note_on_c, 1, 52, 0
1, 45502, Note_on_c, 0, 88, 0
1, 45504, Note_on_c, 0, 74, 85
1, 45504, Note_on_c, 1, 57, 79
1, 45504, Note_on_c, 1, 53, 79
1, 45593, Note_on_c, 0, 74, 0
1, 45593, Note_on_c, 1, 57, 0
1, 45593, Note_on_c, 1, 53, 0
1, 45600, Note_on_c, 0, 77, 85
1, 45667, Note_on_c, 0, 77, 0
1, 45672, Note_on_c, 0, 74, 85
1, 45695, Note_on_c, 0, 74, 0
1, 45696, Note_on_c, 0, 71, 85
1, 45696, Note_on_c, 1, 65, 79
1, 45696, Note_on_c, 1, 55, 79
1, 45763, Note_on_c, 0, 71, 0
1, 45768, Note_on_c, 0, 74, 85
1, 45785, Note_on_c, 1, 65, 0
1, 45785, Note_on_c, 1, 55, 0
1, 45791, Note_on_c, 0, 74, 0
1, 45792, Note_on_c, 0, 72, 85
1, 45792, Note_on_c, 1, 64, 79
1, 45792, Note_on_c, 1, 60, 79
1, 45881, Note_on_c, 0, 72, 0
1, 45881, Note_on_c, 1, 64, 0
1, 45881, Note_on_c, 1, 60, 0
1, 45888, Note_on_c, 0, 84, 90
1, 45888, Note_on_c, 0, 76, 90
1, 45888, Note_on_c, 1, 60, 79
1, 45888, Note_on_c, 1, 48, 79
1, 45977, Note_on_c, 0, 84, 0
1, 45977, Note_on_c, 0, 76, 0
1, 45977, Note_on_c, 1, 60, 0
1, 45977, Note_on_c, 1, 48, 0
1, 45984, Note_on_c, 0, 84, 90
1, 45984, Note_on_c, 0, 76, 90
1, 45984, Note_on_c, 1, 60, 79
1, 45984, Note_on_c, 1, 48, 79
1, 46073, Note_on_c, 0, 84, 0
1, 46073, Note_on_c, 0, 76, 0
1, 46073, Note_on_c, 1, 60, 0
1, 46073, Note_on_c, 1, 48, 0
1, 46080, Note_on_c, 0, 84, 90
1, 46080, Note_on_c, 0, 76, 90
1, 46080, Note_on_c, 1, 60, 79
1, 46080, Note_on_c, 1, 48, 79
1, 46169, Note_on_c, 0, 84, 0
1, 46169, Note_on_c, 0, 76, 0
1, 46169, Note_on_c, 1, 60, 0
1, 46169, Note_on_c, 1, 48, 0
1, 46368, Note_on_c, 1, 48, 0
1, 46457, Note_on_c, 1, 48, 0
1, 46467, End_track
0, 0, End_of_file