0, 0, Header, 0, 1, 384
1, 0, Start_track
1, 0, Tempo, 600000
1, 576, Note_on_c, 0, 62, 100
1, 704, Note_on_c, 0, 62, 0
1, 768, Note_on_c, 0, 67, 100
1, 768, Note_on_c, 1, 59, 100
1, 768, Note_on_c, 1, 55, 100
1, 800, Note_on_c, 0, 67, 0
1, 816, Note_on_c, 0, 69, 100
1, 848, Note_on_c, 0, 69, 0
1, 864, Note_on_c, 0, 67, 100
1, 896, Note_on_c, 0, 67, 0
1, 912, Note_on_c, 0, 66, 100
1, 944, Note_on_c, 0, 66, 0
1, 960, Note_on_c, 0, 67, 100
1, 1024, Note_on_c, 0, 67, 0
1, 1024, Note_on_c, 1, 59, 0
1, 1024, Note_on_c, 1, 55, 0
1, 1056, Note_on_c, 0, 69, 100
1, 1120, Note_on_c, 0, 69, 0
1, 1152, Note_on_c, 0, 71, 100
1, 1184, Note_on_c, 0, 71, 0
1, 1200, Note_on_c, 0, 72, 100
1, 1232, Note_on_c, 0, 72, 0
1, 1248, Note_on_c, 0, 71, 100
1, 1280, Note_on_c, 0, 71, 0
1, 1296, Note_on_c, 0, 69, 100
1, 1328, Note_on_c, 0, 69, 0
1, 1344, Note_on_c, 0, 71, 100
1, 1408, Note_on_c, 0, 71, 0
1, 1440, Note_on_c, 0, 72, 100
1, 1504, Note_on_c, 0, 72, 0
1, 1536, Note_on_c, 0, 74, 100
1, 1664, Note_on_c, 0, 74, 0
1, 1728, Note_on_c, 0, 74, 100
1, 1728, Note_on_c, 1, 71, 100
1, 1728, Note_on_c, 1, 67, 100
1, 1856, Note_on_c, 0, 74, 0
1, 1856, Note_on_c, 1, 71, 0
1, 1856, Note_on_c, 1, 67, 0
1, 1920, Note_on_c, 0, 74, 100
1, 1920, Note_on_c, 1, 69, 100
1, 1920, Note_on_c, 1, 66, 100
1, 2048, Note_on_c, 0, 74, 0
1, 2048, Note_on_c, 1, 69, 0
1, 2048, Note_on_c, 1, 66, 0
1, 2112, Note_on_c, 0, 74, 100
1, 2112, Note_on_c, 1, 72, 100
1, 2112, Note_on_c, 1, 69, 100
1, 2240, Note_on_c, 0, 74, 0
1, 2240, Note_on_c, 1, 72, 0
1, 2240, Note_on_c, 1, 69, 0
1, 2304, Note_on_c, 0, 74, 100
1, 2304, Note_on_c, 1, 71, 100
1, 2304, Note_on_c, 1, 67, 100
1, 2432, Note_on_c, 0, 74, 0
1, 2496, Note_on_c, 0, 76, 100
1, 2560, Note_on_c, 0, 76, 0
1, 2560, Note_on_c, 1, 71, 0
1, 2560, Note_on_c, 1, 67, 0
1, 2592, Note_on_c, 0, 78, 100
1, 2656, Note_on_c, 0, 78, 0
1, 2664, Note_on_c, 0, 81, 100
1, 2680, Note_on_c, 0, 81, 0
1, 2688, Note_on_c, 0, 79, 100
1, 2816, Note_on_c, 0, 79, 0
1, 2880, Note_on_c, 0, 78, 100
1, 2944, Note_on_c, 0, 78, 0
1, 2976, Note_on_c, 0, 76, 100
1, 3040, Note_on_c, 0, 76, 0
1, 3072, Note_on_c, 0, 74, 100
1, 3200, Note_on_c, 0, 74, 0
1, 3264, Note_on_c, 0, 74, 100
1, 3264, Note_on_c, 1, 71, 100
1, 3264, Note_on_c, 1, 67, 100
1, 3392, Note_on_c, 0, 74, 0
1, 3392, Note_on_c, 1, 71, 0
1, 3392, Note_on_c, 1, 67, 0
1, 3456, Note_on_c, 0, 74, 100
1, 3456, Note_on_c, 1, 69, 100
1, 3456, Note_on_c, 1, 66, 100
1, 3584, Note_on_c, 0, 74, 0
1, 3584, Note_on_c, 1, 69, 0
1, 3584, Note_on_c, 1, 66, 0
1, 3648, Note_on_c, 0, 74, 100
1, 3648, Note_on_c, 1, 72, 100
1, 3648, Note_on_c, 1, 69, 100
1, 3776, Note_on_c, 0, 74, 0
1, 3776, Note_on_c, 1, 72, 0
1, 3776, Note_on_c, 1, 69, 0
1, 3840, Note_on_c, 0, 74, 100
1, 3840, Note_on_c, 1, 71, 100
1, 3840, Note_on_c, 1, 67, 100
1, 3968, Note_on_c, 0, 74, 0
1, 4032, Note_on_c, 0, 76, 100
1, 4096, Note_on_c, 0, 76, 0
1, 4096, Note_on_c, 1, 71, 0
1, 4096, Note_on_c, 1, 67, 0
1, 4128, Note_on_c, 0, 78, 100
1, 4192, Note_on_c, 0, 78, 0
1, 4200, Note_on_c, 0, 81, 100
1, 4216, Note_on_c, 0, 81, 0
1, 4224, Note_on_c, 0, 79, 100
1, 4352, Note_on_c, 0, 79, 0
1, 4416, Note_on_c, 0, 78, 100
1, 4416, Note_on_c, 1, 72, 100
1, 4416, Note_on_c, 1, 67, 100
1, 4480, Note_on_c, 0, 78, 0
1, 4512, Note_on_c, 0, 76, 100
1, 4544, Note_on_c, 1, 72, 0
1, 4544, Note_on_c, 1, 67, 0
1, 4576, Note_on_c, 0, 76, 0
1, 4608, Note_on_c, 0, 74, 100
1, 4608, Note_on_c, 1, 71, 100
1, 4608, Note_on_c, 1, 67, 100
1, 4736, Note_on_c, 0, 74, 0
1, 4800, Note_on_c, 0, 79, 100
1, 4864, Note_on_c, 0, 79, 0
1, 4864, Note_on_c, 1, 71, 0
1, 4864, Note_on_c, 1, 67, 0
1, 4896, Note_on_c, 0, 83, 100
1, 4960, Note_on_c, 0, 83, 0
1, 4992, Note_on_c, 0, 81, 100
1, 5056, Note_on_c, 0, 81, 0
1, 5088, Note_on_c, 0, 79, 100
1, 5152, Note_on_c, 0, 79, 0
1, 5184, Note_on_c, 0, 78, 100
1, 5248, Note_on_c, 0, 78, 0
1, 5280, Note_on_c, 0, 76, 100
1, 5344, Note_on_c, 0, 76, 0
1, 5376, Note_on_c, 0, 74, 100
1, 5568, Note_on_c, 1, 71, 100
1, 5632, Note_on_c, 0, 74, 0
1, 5696, Note_on_c, 1, 71, 0
1, 5760, Note_on_c, 0, 72, 100
1, 5760, Note_on_c, 1, 69, 100
1, 5776, Note_on_c, 0, 72, 0
1, 5784, Note_on_c, 0, 74, 100
1, 5800, Note_on_c, 0, 74, 0
1, 5808, Note_on_c, 0, 72, 100
1, 5824, Note_on_c, 0, 72, 0
1, 5832, Note_on_c, 0, 74, 100
1, 5848, Note_on_c, 0, 74, 0
1, 5856, Note_on_c, 0, 72, 100
1, 5872, Note_on_c, 0, 72, 0
1, 5880, Note_on_c, 0, 74, 100
1, 5888, Note_on_c, 1, 69, 0
1, 5896, Note_on_c, 0, 74, 0
1, 5904, Note_on_c, 0, 72, 100
1, 5920, Note_on_c, 0, 72, 0
1, 5928, Note_on_c, 0, 74, 100
1, 5944, Note_on_c, 0, 74, 0
1, 5952, Note_on_c, 0, 72, 100
1, 5952, Note_on_c, 1, 62, 100
1, 5968, Note_on_c, 0, 72, 0
1, 5976, Note_on_c, 0, 74, 100
1, 5992, Note_on_c, 0, 74, 0
1, 6000, Note_on_c, 0, 72, 100
1, 6016, Note_on_c, 0, 72, 0
1, 6024, Note_on_c, 0, 74, 100
1, 6040, Note_on_c, 0, 74, 0
1, 6048, Note_on_c, 0, 72, 100
1, 6064, Note_on_c, 0, 72, 0
1, 6072, Note_on_c, 0, 74, 100
1, 6080, Note_on_c, 1, 62, 0
1, 6088, Note_on_c, 0, 74, 0
1, 6096, Note_on_c, 0, 72, 100
1, 6112, Note_on_c, 0, 72, 0
1, 6120, Note_on_c, 0, 74, 100
1, 6136, Note_on_c, 0, 74, 0
1, 6144, Note_on_c, 0, 71, 100
1, 6144, Note_on_c, 1, 67, 100
1, 6272, Note_on_c, 1, 67, 0
1, 6336, Note_on_c, 1, 62, 100
1, 6400, Note_on_c, 0, 71, 0
1, 6464, Note_on_c, 1, 62, 0
1, 6528, Note_on_c, 1, 55, 100
1, 6656, Note_on_c, 1, 55, 0
1, 6720, Note_on_c, 0, 67, 100
1, 6720, Note_on_c, 1, 55, 100
1, 6720, Note_on_c, 1, 43, 100
1, 6848, Note_on_c, 0, 67, 0
1, 6848, Note_on_c, 1, 55, 0
1, 6848, Note_on_c, 1, 43, 0
1, 6912, Note_on_c, 0, 66, 100
1, 6912, Note_on_c, 1, 42, 100
1, 6912, Note_on_c, 1, 54, 100
1, 6928, Note_on_c, 0, 66, 0
1, 6936, Note_on_c, 0, 67, 100
1, 6952, Note_on_c, 0, 67, 0
1, 6960, Note_on_c, 0, 66, 100
1, 6976, Note_on_c, 0, 66, 0
1, 6984, Note_on_c, 0, 67, 100
1, 7000, Note_on_c, 0, 67, 0
1, 7008, Note_on_c, 0, 66, 100
1, 7024, Note_on_c, 0, 66, 0
1, 7032, Note_on_c, 0, 67, 100
1, 7040, Note_on_c, 1, 42, 0
1, 7040, Note_on_c, 1, 54, 0
1, 7048, Note_on_c, 0, 67, 0
1, 7056, Note_on_c, 0, 66, 100
1, 7072, Note_on_c, 0, 66, 0
1, 7080, Note_on_c, 0, 67, 100
1, 7096, Note_on_c, 0, 67, 0
1, 7104, Note_on_c, 0, 64, 100
1, 7104, Note_on_c, 1, 40, 100
1, 7104, Note_on_c, 1, 52, 100
1, 7232, Note_on_c, 0, 64, 0
1, 7232, Note_on_c, 1, 40, 0
1, 7232, Note_on_c, 1, 52, 0
1, 7296, Note_on_c, 0, 62, 100
1, 7296, Note_on_c, 1, 38, 100
1, 7296, Note_on_c, 1, 50, 100
1, 7312, Note_on_c, 0, 62, 0
1, 7320, Note_on_c, 0, 64, 100
1, 7336, Note_on_c, 0, 64, 0
1, 7344, Note_on_c, 0, 62, 100
1, 7360, Note_on_c, 0, 62, 0
1, 7368, Note_on_c, 0, 64, 100
1, 7384, Note_on_c, 0, 64, 0
1, 7392, Note_on_c, 0, 62, 100
1, 7408, Note_on_c, 0, 62, 0
1, 7416, Note_on_c, 0, 64, 100
1, 7424, Note_on_c, 1, 38, 0
1, 7424, Note_on_c, 1, 50, 0
1, 7432, Note_on_c, 0, 64, 0
1, 7440, Note_on_c, 0, 62, 100
1, 7456, Note_on_c, 0, 62, 0
1, 7464, Note_on_c, 0, 64, 100
1, 7480, Note_on_c, 0, 64, 0
1, 7488, Note_on_c, 0, 60, 100
1, 7488, Note_on_c, 1, 36, 100
1, 7488, Note_on_c, 1, 48, 100
1, 7616, Note_on_c, 0, 60, 0
1, 7616, Note_on_c, 1, 36, 0
1, 7616, Note_on_c, 1, 48, 0
1, 7680, Note_on_c, 0, 59, 100
1, 7680, Note_on_c, 1, 35, 100
1, 7680, Note_on_c, 1, 47, 100
1, 7936, Note_on_c, 0, 59, 0
1, 7936, Note_on_c, 1, 35, 0
1, 7936, Note_on_c, 1, 47, 0
1, 8256, Note_on_c, 0, 64, 100
1, 8256, Note_on_c, 1, 52, 100
1, 8296, Note_on_c, 0, 64, 0
1, 8296, Note_on_c, 1, 52, 0
1, 8320, Note_on_c, 0, 66, 100
1, 8320, Note_on_c, 1, 54, 100
1, 8360, Note_on_c, 0, 66, 0
1, 8360, Note_on_c, 1, 54, 0
1, 8384, Note_on_c, 0, 64, 100
1, 8384, Note_on_c, 1, 52, 100
1, 8424, Note_on_c, 0, 64, 0
1, 8424, Note_on_c, 1, 52, 0
1, 8448, Note_on_c, 0, 62, 100
1, 8448, Note_on_c, 1, 50, 100
1, 8576, Note_on_c, 0, 62, 0
1, 8576, Note_on_c, 1, 50, 0
1, 8640, Note_on_c, 0, 60, 100
1, 8640, Note_on_c, 1, 48, 100
1, 8680, Note_on_c, 0, 60, 0
1, 8680, Note_on_c, 1, 48, 0
1, 8704, Note_on_c, 0, 62, 100
1, 8704, Note_on_c, 1, 50, 100
1, 8744, Note_on_c, 0, 62, 0
1, 8744, Note_on_c, 1, 50, 0
1, 8768, Note_on_c, 0, 60, 100
1, 8768, Note_on_c, 1, 48, 100
1, 8808, Note_on_c, 0, 60, 0
1, 8808, Note_on_c, 1, 48, 0
1, 8832, Note_on_c, 0, 59, 100
1, 8832, Note_on_c, 1, 47, 100
1, 8960, Note_on_c, 0, 59, 0
1, 8960, Note_on_c, 1, 47, 0
1, 9024, Note_on_c, 0, 57, 100
1, 9024, Note_on_c, 1, 45, 100
1, 9064, Note_on_c, 0, 57, 0
1, 9064, Note_on_c, 1, 45, 0
1, 9088, Note_on_c, 0, 59, 100
1, 9088, Note_on_c, 1, 47, 100
1, 9128, Note_on_c, 0, 59, 0
1, 9128, Note_on_c, 1, 47, 0
1, 9152, Note_on_c, 0, 57, 100
1, 9152, Note_on_c, 1, 45, 100
1, 9192, Note_on_c, 0, 57, 0
1, 9192, Note_on_c, 1, 45, 0
1, 9216, Note_on_c, 0, 55, 100
1, 9216, Note_on_c, 1, 43, 100
1, 9472, Note_on_c, 0, 55, 0
1, 9472, Note_on_c, 1, 43, 0
1, 9792, Note_on_c, 0, 62, 100
1, 9920, Note_on_c, 0, 62, 0
1, 9984, Note_on_c, 0, 67, 100
1, 9984, Note_on_c, 1, 59, 100
1, 9984, Note_on_c, 1, 55, 100
1, 10048, Note_on_c, 0, 67, 0
1, 10080, Note_on_c, 0, 66, 100
1, 10144, Note_on_c, 0, 66, 0
1, 10176, Note_on_c, 0, 69, 100
1, 10240, Note_on_c, 0, 69, 0
1, 10240, Note_on_c, 1, 59, 0
1, 10240, Note_on_c, 1, 55, 0
1, 10272, Note_on_c, 0, 67, 100
1, 10336, Note_on_c, 0, 67, 0
1, 10368, Note_on_c, 0, 71, 100
1, 10432, Note_on_c, 0, 71, 0
1, 10464, Note_on_c, 0, 69, 100
1, 10528, Note_on_c, 0, 69, 0
1, 10560, Note_on_c, 0, 72, 100
1, 10624, Note_on_c, 0, 72, 0
1, 10656, Note_on_c, 0, 71, 100
1, 10720, Note_on_c, 0, 71, 0
1, 10752, Note_on_c, 0, 74, 100
1, 10880, Note_on_c, 0, 74, 0
1, 10944, Note_on_c, 0, 74, 100
1, 10944, Note_on_c, 1, 71, 100
1, 10944, Note_on_c, 1, 67, 100
1, 11072, Note_on_c, 0, 74, 0
1, 11072, Note_on_c, 1, 71, 0
1, 11072, Note_on_c, 1, 67, 0
1, 11136, Note_on_c, 0, 74, 100
1, 11136, Note_on_c, 1, 69, 100
1, 11136, Note_on_c, 1, 66, 100
1, 11264, Note_on_c, 0, 74, 0
1, 11264, Note_on_c, 1, 69, 0
1, 11264, Note_on_c, 1, 66, 0
1, 11328, Note_on_c, 0, 74, 100
1, 11328, Note_on_c, 1, 72, 100
1, 11328, Note_on_c, 1, 69, 100
1, 11456, Note_on_c, 0, 74, 0
1, 11456, Note_on_c, 1, 72, 0
1, 11456, Note_on_c, 1, 69, 0
1, 11520, Note_on_c, 0, 74, 100
1, 11520, Note_on_c, 1, 71, 100
1, 11520, Note_on_c, 1, 67, 100
1, 11648, Note_on_c, 0, 74, 0
1, 11712, Note_on_c, 0, 76, 100
1, 11776, Note_on_c, 0, 76, 0
1, 11776, Note_on_c, 1, 71, 0
1, 11776, Note_on_c, 1, 67, 0
1, 11808, Note_on_c, 0, 78, 100
1, 11872, Note_on_c, 0, 78, 0
1, 11880, Note_on_c, 0, 81, 100
1, 11896, Note_on_c, 0, 81, 0
1, 11904, Note_on_c, 0, 79, 100
1, 12032, Note_on_c, 0, 79, 0
1, 12096, Note_on_c, 0, 78, 100
1, 12160, Note_on_c, 0, 78, 0
1, 12192, Note_on_c, 0, 76, 100
1, 12256, Note_on_c, 0, 76, 0
1, 12288, Note_on_c, 0, 74, 100
1, 12416, Note_on_c, 0, 74, 0
1, 12480, Note_on_c, 0, 74, 100
1, 12480, Note_on_c, 1, 71, 100
1, 12480, Note_on_c, 1, 67, 100
1, 12608, Note_on_c, 0, 74, 0
1, 12608, Note_on_c, 1, 71, 0
1, 12608, Note_on_c, 1, 67, 0
1, 12672, Note_on_c, 0, 74, 100
1, 12672, Note_on_c, 1, 69, 100
1, 12672, Note_on_c, 1, 66, 100
1, 12800, Note_on_c, 0, 74, 0
1, 12800, Note_on_c, 1, 69, 0
1, 12800, Note_on_c, 1, 66, 0
1, 12864, Note_on_c, 0, 74, 100
1, 12864, Note_on_c, 1, 72, 100
1, 12864, Note_on_c, 1, 69, 100
1, 12992, Note_on_c, 0, 74, 0
1, 12992, Note_on_c, 1, 72, 0
1, 12992, Note_on_c, 1, 69, 0
1, 13056, Note_on_c, 0, 74, 100
1, 13056, Note_on_c, 1, 71, 100
1, 13056, Note_on_c, 1, 67, 100
1, 13184, Note_on_c, 0, 74, 0
1, 13248, Note_on_c, 0, 79, 100
1, 13312, Note_on_c, 1, 71, 0
1, 13312, Note_on_c, 1, 67, 0
1, 13376, Note_on_c, 0, 79, 0
1, 13440, Note_on_c, 0, 78, 100
1, 13568, Note_on_c, 0, 78, 0
1, 13632, Note_on_c, 0, 74, 100
1, 13760, Note_on_c, 0, 74, 0
1, 13824, Note_on_c, 0, 75, 100
1, 14016, Note_on_c, 1, 72, 100
1, 14016, Note_on_c, 1, 67, 100
1, 14080, Note_on_c, 0, 75, 0
1, 14144, Note_on_c, 1, 72, 0
1, 14144, Note_on_c, 1, 67, 0
1, 14208, Note_on_c, 0, 76, 100
1, 14208, Note_on_c, 1, 72, 100
1, 14208, Note_on_c, 1, 67, 100
1, 14336, Note_on_c, 1, 72, 0
1, 14336, Note_on_c, 1, 67, 0
1, 14400, Note_on_c, 1, 72, 100
1, 14400, Note_on_c, 1, 67, 100
1, 14464, Note_on_c, 0, 76, 0
1, 14528, Note_on_c, 1, 72, 0
1, 14528, Note_on_c, 1, 67, 0
1, 14592, Note_on_c, 0, 76, 100
1, 14592, Note_on_c, 1, 72, 100
1, 14592, Note_on_c, 1, 67, 100
1, 14720, Note_on_c, 0, 76, 0
1, 14784, Note_on_c, 0, 79, 100
1, 14848, Note_on_c, 1, 72, 0
1, 14848, Note_on_c, 1, 67, 0
1, 14912, Note_on_c, 0, 79, 0
1, 14976, Note_on_c, 0, 76, 100
1, 15104, Note_on_c, 0, 76, 0
1, 15168, Note_on_c, 0, 72, 100
1, 15296, Note_on_c, 0, 72, 0
1, 15360, Note_on_c, 0, 73, 100
1, 15552, Note_on_c, 1, 71, 100
1, 15552, Note_on_c, 1, 67, 100
1, 15616, Note_on_c, 0, 73, 0
1, 15680, Note_on_c, 1, 71, 0
1, 15680, Note_on_c, 1, 67, 0
1, 15744, Note_on_c, 0, 74, 100
1, 15744, Note_on_c, 1, 71, 100
1, 15744, Note_on_c, 1, 67, 100
1, 15872, Note_on_c, 1, 71, 0
1, 15872, Note_on_c, 1, 67, 0
1, 15936, Note_on_c, 1, 71, 100
1, 15936, Note_on_c, 1, 67, 100
1, 16000, Note_on_c, 0, 74, 0
1, 16064, Note_on_c, 1, 71, 0
1, 16064, Note_on_c, 1, 67, 0
1, 16128, Note_on_c, 0, 74, 100
1, 16128, Note_on_c, 1, 71, 100
1, 16128, Note_on_c, 1, 67, 100
1, 16256, Note_on_c, 0, 74, 0
1, 16272, Note_on_c, 0, 79, 100
1, 16304, Note_on_c, 0, 79, 0
1, 16320, Note_on_c, 0, 83, 100
1, 16384, Note_on_c, 1, 71, 0
1, 16384, Note_on_c, 1, 67, 0
1, 16448, Note_on_c, 0, 83, 0
1, 16464, Note_on_c, 0, 81, 100
1, 16496, Note_on_c, 0, 81, 0
1, 16512, Note_on_c, 0, 79, 100
1, 16576, Note_on_c, 0, 79, 0
1, 16656, Note_on_c, 0, 78, 100
1, 16688, Note_on_c, 0, 78, 0
1, 16704, Note_on_c, 0, 76, 100
1, 16768, Note_on_c, 0, 76, 0
1, 16896, Note_on_c, 0, 74, 100
1, 17088, Note_on_c, 1, 69, 100
1, 17152, Note_on_c, 0, 74, 0
1, 17216, Note_on_c, 1, 69, 0
1, 17280, Note_on_c, 0, 72, 100
1, 17280, Note_on_c, 1, 66, 100
1, 17312, Note_on_c, 0, 72, 0
1, 17328, Note_on_c, 0, 74, 100
1, 17360, Note_on_c, 0, 74, 0
1, 17376, Note_on_c, 0, 72, 100
1, 17408, Note_on_c, 0, 72, 0
1, 17408, Note_on_c, 1, 66, 0
1, 17424, Note_on_c, 0, 74, 100
1, 17456, Note_on_c, 0, 74, 0
1, 17472, Note_on_c, 0, 71, 100
1, 17472, Note_on_c, 1, 67, 100
1, 17600, Note_on_c, 0, 71, 0
1, 17600, Note_on_c, 1, 67, 0
1, 17664, Note_on_c, 0, 71, 100
1, 17664, Note_on_c, 1, 60, 100
1, 17728, Note_on_c, 0, 71, 0
1, 17760, Note_on_c, 0, 69, 100
1, 17824, Note_on_c, 0, 69, 0
1, 17856, Note_on_c, 0, 75, 100
1, 17920, Note_on_c, 0, 75, 0
1, 17920, Note_on_c, 1, 60, 0
1, 17952, Note_on_c, 0, 76, 100
1, 18016, Note_on_c, 0, 76, 0
1, 18048, Note_on_c, 0, 74, 100
1, 18112, Note_on_c, 0, 74, 0
1, 18144, Note_on_c, 0, 72, 100
1, 18208, Note_on_c, 0, 72, 0
1, 18240, Note_on_c, 0, 71, 100
1, 18240, Note_on_c, 1, 61, 100
1, 18304, Note_on_c, 0, 71, 0
1, 18336, Note_on_c, 0, 69, 100
1, 18368, Note_on_c, 1, 61, 0
1, 18400, Note_on_c, 0, 69, 0
1, 18432, Note_on_c, 0, 67, 100
1, 18432, Note_on_c, 1, 62, 100
1, 18560, Note_on_c, 1, 62, 0
1, 18624, Note_on_c, 1, 57, 100
1, 18688, Note_on_c, 0, 67, 0
1, 18752, Note_on_c, 1, 57, 0
1, 18816, Note_on_c, 0, 66, 100
1, 18816, Note_on_c, 1, 50, 100
1, 18944, Note_on_c, 0, 66, 0
1, 18944, Note_on_c, 1, 50, 0
1, 19008, Note_on_c, 0, 69, 100
1, 19136, Note_on_c, 0, 69, 0
1, 19200, Note_on_c, 0, 74, 100
1, 19200, Note_on_c, 1, 50, 100
1, 19264, Note_on_c, 1, 50, 0
1, 19296, Note_on_c, 1, 57, 100
1, 19360, Note_on_c, 1, 57, 0
1, 19392, Note_on_c, 1, 54, 100
1, 19456, Note_on_c, 0, 74, 0
1, 19456, Note_on_c, 1, 54, 0
1, 19488, Note_on_c, 1, 57, 100
1, 19552, Note_on_c, 1, 57, 0
1, 19560, Note_on_c, 0, 79, 100
1, 19576, Note_on_c, 0, 79, 0
1, 19584, Note_on_c, 0, 78, 100
1, 19584, Note_on_c, 1, 50, 100
1, 19648, Note_on_c, 1, 50, 0
1, 19680, Note_on_c, 1, 57, 100
1, 19712, Note_on_c, 0, 78, 0
1, 19744, Note_on_c, 1, 57, 0
1, 19776, Note_on_c, 0, 76, 100
1, 19776, Note_on_c, 1, 54, 100
1, 19840, Note_on_c, 0, 76, 0
1, 19840, Note_on_c, 1, 54, 0
1, 19872, Note_on_c, 0, 74, 100
1, 19872, Note_on_c, 1, 57, 100
1, 19936, Note_on_c, 0, 74, 0
1, 19936, Note_on_c, 1, 57, 0
1, 19944, Note_on_c, 0, 74, 100
1, 19960, Note_on_c, 0, 74, 0
1, 19968, Note_on_c, 0, 73, 100
1, 19968, Note_on_c, 1, 52, 100
1, 20032, Note_on_c, 1, 52, 0
1, 20064, Note_on_c, 1, 57, 100
1, 20128, Note_on_c, 1, 57, 0
1, 20160, Note_on_c, 1, 55, 100
1, 20224, Note_on_c, 0, 73, 0
1, 20224, Note_on_c, 1, 55, 0
1, 20256, Note_on_c, 1, 57, 100
1, 20320, Note_on_c, 1, 57, 0
1, 20352, Note_on_c, 1, 52, 100
1, 20416, Note_on_c, 1, 52, 0
1, 20448, Note_on_c, 1, 57, 100
1, 20512, Note_on_c, 1, 57, 0
1, 20544, Note_on_c, 0, 69, 100
1, 20544, Note_on_c, 1, 55, 100
1, 20608, Note_on_c, 1, 55, 0
1, 20640, Note_on_c, 1, 57, 100
1, 20672, Note_on_c, 0, 69, 0
1, 20704, Note_on_c, 1, 57, 0
1, 20736, Note_on_c, 0, 76, 100
1, 20736, Note_on_c, 1, 49, 100
1, 20800, Note_on_c, 1, 49, 0
1, 20832, Note_on_c, 1, 57, 100
1, 20896, Note_on_c, 1, 57, 0
1, 20928, Note_on_c, 1, 52, 100
1, 20992, Note_on_c, 0, 76, 0
1, 20992, Note_on_c, 1, 52, 0
1, 21024, Note_on_c, 1, 57, 100
1, 21088, Note_on_c, 1, 57, 0
1, 21096, Note_on_c, 0, 81, 100
1, 21112, Note_on_c, 0, 81, 0
1, 21120, Note_on_c, 0, 79, 100
1, 21120, Note_on_c, 1, 49, 100
1, 21184, Note_on_c, 1, 49, 0
1, 21216, Note_on_c, 1, 57, 100
1, 21248, Note_on_c, 0, 79, 0
1, 21280, Note_on_c, 1, 57, 0
1, 21312, Note_on_c, 0, 78, 100
1, 21312, Note_on_c, 1, 52, 100
1, 21376, Note_on_c, 0, 78, 0
1, 21376, Note_on_c, 1, 52, 0
1, 21408, Note_on_c, 0, 76, 100
1, 21408, Note_on_c, 1, 57, 100
1, 21472, Note_on_c, 0, 76, 0
1, 21472, Note_on_c, 1, 57, 0
1, 21480, Note_on_c, 0, 76, 100
1, 21496, Note_on_c, 0, 76, 0
1, 21504, Note_on_c, 0, 78, 100
1, 21504, Note_on_c, 1, 50, 100
1, 21568, Note_on_c, 1, 50, 0
1, 21600, Note_on_c, 1, 57, 100
1, 21664, Note_on_c, 1, 57, 0
1, 21696, Note_on_c, 1, 54, 100
1, 21760, Note_on_c, 0, 78, 0
1, 21760, Note_on_c, 1, 54, 0
1, 21792, Note_on_c, 1, 57, 100
1, 21856, Note_on_c, 1, 57, 0
1, 21888, Note_on_c, 1, 50, 100
1, 21952, Note_on_c, 1, 50, 0
1, 21984, Note_on_c, 1, 57, 100
1, 22048, Note_on_c, 1, 57, 0
1, 22080, Note_on_c, 0, 69, 100
1, 22080, Note_on_c, 1, 54, 100
1, 22144, Note_on_c, 1, 54, 0
1, 22176, Note_on_c, 1, 57, 100
1, 22208, Note_on_c, 0, 69, 0
1, 22240, Note_on_c, 1, 57, 0
1, 22272, Note_on_c, 0, 69, 100
1, 22272, Note_on_c, 1, 54, 100
1, 22336, Note_on_c, 0, 69, 0
1, 22368, Note_on_c, 0, 81, 100
1, 22432, Note_on_c, 0, 81, 0
1, 22464, Note_on_c, 0, 79, 100
1, 22528, Note_on_c, 0, 79, 0
1, 22528, Note_on_c, 1, 54, 0
1, 22560, Note_on_c, 0, 78, 100
1, 22624, Note_on_c, 0, 78, 0
1, 22656, Note_on_c, 0, 76, 100
1, 22720, Note_on_c, 0, 76, 0
1, 22752, Note_on_c, 0, 74, 100
1, 22816, Note_on_c, 0, 74, 0
1, 22848, Note_on_c, 0, 73, 100
1, 22912, Note_on_c, 0, 73, 0
1, 22944, Note_on_c, 0, 74, 100
1, 23008, Note_on_c, 0, 74, 0
1, 23040, Note_on_c, 0, 71, 100
1, 23040, Note_on_c, 1, 55, 100
1, 23104, Note_on_c, 1, 55, 0
1, 23136, Note_on_c, 1, 67, 100
1, 23168, Note_on_c, 0, 71, 0
1, 23200, Note_on_c, 1, 67, 0
1, 23232, Note_on_c, 0, 75, 100
1, 23232, Note_on_c, 1, 54, 100
1, 23296, Note_on_c, 1, 54, 0
1, 23328, Note_on_c, 1, 66, 100
1, 23360, Note_on_c, 0, 75, 0
1, 23392, Note_on_c, 1, 66, 0
1, 23424, Note_on_c, 0, 76, 100
1, 23424, Note_on_c, 1, 52, 100
1, 23488, Note_on_c, 1, 52, 0
1, 23520, Note_on_c, 1, 64, 100
1, 23552, Note_on_c, 0, 76, 0
1, 23584, Note_on_c, 1, 64, 0
1, 23616, Note_on_c, 0, 78, 100
1, 23616, Note_on_c, 1, 51, 100
1, 23680, Note_on_c, 1, 51, 0
1, 23712, Note_on_c, 1, 63, 100
1, 23744, Note_on_c, 0, 78, 0
1, 23776, Note_on_c, 1, 63, 0
1, 23808, Note_on_c, 1, 52, 100
1, 23904, Note_on_c, 0, 79, 100
1, 23968, Note_on_c, 0, 79, 0
1, 24000, Note_on_c, 0, 78, 100
1, 24064, Note_on_c, 0, 78, 0
1, 24064, Note_on_c, 1, 52, 0
1, 24096, Note_on_c, 0, 76, 100
1, 24160, Note_on_c, 0, 76, 0
1, 24192, Note_on_c, 0, 74, 100
1, 24256, Note_on_c, 0, 74, 0
1, 24288, Note_on_c, 0, 73, 100
1, 24352, Note_on_c, 0, 73, 0
1, 24384, Note_on_c, 0, 71, 100
1, 24448, Note_on_c, 0, 71, 0
1, 24480, Note_on_c, 0, 73, 100
1, 24544, Note_on_c, 0, 73, 0
1, 24576, Note_on_c, 0, 69, 100
1, 24576, Note_on_c, 1, 54, 100
1, 24640, Note_on_c, 1, 54, 0
1, 24672, Note_on_c, 1, 66, 100
1, 24704, Note_on_c, 0, 69, 0
1, 24736, Note_on_c, 1, 66, 0
1, 24768, Note_on_c, 0, 73, 100
1, 24768, Note_on_c, 1, 52, 100
1, 24832, Note_on_c, 1, 52, 0
1, 24864, Note_on_c, 1, 64, 100
1, 24896, Note_on_c, 0, 73, 0
1, 24928, Note_on_c, 1, 64, 0
1, 24960, Note_on_c, 0, 74, 100
1, 24960, Note_on_c, 1, 50, 100
1, 25024, Note_on_c, 1, 50, 0
1, 25056, Note_on_c, 1, 62, 100
1, 25088, Note_on_c, 0, 74, 0
1, 25120, Note_on_c, 1, 62, 0
1, 25152, Note_on_c, 0, 76, 100
1, 25152, Note_on_c, 1, 48, 100
1, 25216, Note_on_c, 1, 48, 0
1, 25248, Note_on_c, 1, 60, 100
1, 25280, Note_on_c, 0, 76, 0
1, 25312, Note_on_c, 1, 60, 0
1, 25344, Note_on_c, 1, 50, 100
1, 25440, Note_on_c, 0, 78, 100
1, 25504, Note_on_c, 0, 78, 0
1, 25536, Note_on_c, 0, 76, 100
1, 25600, Note_on_c, 0, 76, 0
1, 25600, Note_on_c, 1, 50, 0
1, 25632, Note_on_c, 0, 74, 100
1, 25696, Note_on_c, 0, 74, 0
1, 25728, Note_on_c, 0, 73, 100
1, 25792, Note_on_c, 0, 73, 0
1, 25824, Note_on_c, 0, 71, 100
1, 25888, Note_on_c, 0, 71, 0
1, 25920, Note_on_c, 0, 69, 100
1, 25984, Note_on_c, 0, 69, 0
1, 26016, Note_on_c, 0, 71, 100
1, 26080, Note_on_c, 0, 71, 0
1, 26112, Note_on_c, 0, 67, 100
1, 26112, Note_on_c, 1, 52, 100
1, 26176, Note_on_c, 1, 52, 0
1, 26208, Note_on_c, 1, 64, 100
1, 26240, Note_on_c, 0, 67, 0
1, 26272, Note_on_c, 1, 64, 0
1, 26304, Note_on_c, 0, 71, 100
1, 26304, Note_on_c, 1, 50, 100
1, 26368, Note_on_c, 1, 50, 0
1, 26400, Note_on_c, 1, 62, 100
1, 26432, Note_on_c, 0, 71, 0
1, 26464, Note_on_c, 1, 62, 0
1, 26496, Note_on_c, 0, 73, 100
1, 26496, Note_on_c, 1, 49, 100
1, 26560, Note_on_c, 1, 49, 0
1, 26592, Note_on_c, 1, 61, 100
1, 26624, Note_on_c, 0, 73, 0
1, 26656, Note_on_c, 1, 61, 0
1, 26688, Note_on_c, 0, 74, 100
1, 26688, Note_on_c, 1, 47, 100
1, 26752, Note_on_c, 1, 47, 0
1, 26784, Note_on_c, 1, 59, 100
1, 26816, Note_on_c, 0, 74, 0
1, 26848, Note_on_c, 1, 59, 0
1, 26880, Note_on_c, 1, 45, 100
1, 26976, Note_on_c, 0, 76, 100
1, 27040, Note_on_c, 0, 76, 0
1, 27072, Note_on_c, 0, 74, 100
1, 27136, Note_on_c, 0, 74, 0
1, 27136, Note_on_c, 1, 45, 0
1, 27168, Note_on_c, 0, 73, 100
1, 27232, Note_on_c, 0, 73, 0
1, 27264, Note_on_c, 0, 71, 100
1, 27328, Note_on_c, 0, 71, 0
1, 27360, Note_on_c, 0, 69, 100
1, 27424, Note_on_c, 0, 69, 0
1, 27456, Note_on_c, 0, 71, 100
1, 27456, Note_on_c, 1, 49, 100
1, 27520, Note_on_c, 0, 71, 0
1, 27552, Note_on_c, 0, 67, 100
1, 27584, Note_on_c, 1, 49, 0
1, 27616, Note_on_c, 0, 67, 0
1, 27648, Note_on_c, 0, 66, 100
1, 27648, Note_on_c, 1, 50, 100
1, 27712, Note_on_c, 1, 50, 0
1, 27744, Note_on_c, 1, 57, 100
1, 27776, Note_on_c, 0, 66, 0
1, 27808, Note_on_c, 1, 57, 0
1, 27840, Note_on_c, 0, 74, 100
1, 27840, Note_on_c, 1, 54, 100
1, 27904, Note_on_c, 1, 54, 0
1, 27936, Note_on_c, 1, 57, 100
1, 27968, Note_on_c, 0, 74, 0
1, 28000, Note_on_c, 1, 57, 0
1, 28032, Note_on_c, 0, 73, 100
1, 28032, Note_on_c, 1, 50, 100
1, 28096, Note_on_c, 1, 50, 0
1, 28128, Note_on_c, 1, 57, 100
1, 28160, Note_on_c, 0, 73, 0
1, 28192, Note_on_c, 1, 57, 0
1, 28224, Note_on_c, 0, 81, 100
1, 28224, Note_on_c, 1, 55, 100
1, 28288, Note_on_c, 1, 55, 0
1, 28320, Note_on_c, 1, 57, 100
1, 28352, Note_on_c, 0, 81, 0
1, 28384, Note_on_c, 1, 57, 0
1, 28416, Note_on_c, 0, 78, 100
1, 28416, Note_on_c, 1, 50, 100
1, 28480, Note_on_c, 1, 50, 0
1, 28512, Note_on_c, 1, 57, 100
1, 28544, Note_on_c, 0, 78, 0
1, 28576, Note_on_c, 1, 57, 0
1, 28608, Note_on_c, 0, 74, 100
1, 28608, Note_on_c, 1, 54, 100
1, 28672, Note_on_c, 1, 54, 0
1, 28704, Note_on_c, 1, 57, 100
1, 28736, Note_on_c, 0, 74, 0
1, 28768, Note_on_c, 1, 57, 0
1, 28800, Note_on_c, 0, 73, 100
1, 28800, Note_on_c, 1, 50, 100
1, 28864, Note_on_c, 1, 50, 0
1, 28896, Note_on_c, 1, 57, 100
1, 28928, Note_on_c, 0, 73, 0
1, 28960, Note_on_c, 1, 57, 0
1, 28992, Note_on_c, 0, 67, 100
1, 28992, Note_on_c, 1, 55, 100
1, 29056, Note_on_c, 1, 55, 0
1, 29088, Note_on_c, 1, 57, 100
1, 29120, Note_on_c, 0, 67, 0
1, 29152, Note_on_c, 1, 57, 0
1, 29184, Note_on_c, 0, 66, 100
1, 29184, Note_on_c, 1, 50, 100
1, 29248, Note_on_c, 1, 50, 0
1, 29280, Note_on_c, 1, 57, 100
1, 29312, Note_on_c, 0, 66, 0
1, 29344, Note_on_c, 1, 57, 0
1, 29376, Note_on_c, 0, 74, 100
1, 29376, Note_on_c, 1, 54, 100
1, 29440, Note_on_c, 1, 54, 0
1, 29472, Note_on_c, 1, 57, 100
1, 29504, Note_on_c, 0, 74, 0
1, 29536, Note_on_c, 1, 57, 0
1, 29568, Note_on_c, 0, 73, 100
1, 29568, Note_on_c, 1, 50, 100
1, 29632, Note_on_c, 1, 50, 0
1, 29664, Note_on_c, 1, 57, 100
1, 29696, Note_on_c, 0, 73, 0
1, 29728, Note_on_c, 1, 57, 0
1, 29760, Note_on_c, 0, 81, 100
1, 29760, Note_on_c, 1, 55, 100
1, 29824, Note_on_c, 1, 55, 0
1, 29856, Note_on_c, 1, 57, 100
1, 29888, Note_on_c, 0, 81, 0
1, 29920, Note_on_c, 1, 57, 0
1, 29952, Note_on_c, 0, 78, 100
1, 29952, Note_on_c, 1, 50, 100
1, 30016, Note_on_c, 1, 50, 0
1, 30048, Note_on_c, 1, 57, 100
1, 30080, Note_on_c, 0, 78, 0
1, 30112, Note_on_c, 1, 57, 0
1, 30144, Note_on_c, 0, 74, 100
1, 30144, Note_on_c, 1, 54, 100
1, 30208, Note_on_c, 1, 54, 0
1, 30240, Note_on_c, 1, 57, 100
1, 30272, Note_on_c, 0, 74, 0
1, 30304, Note_on_c, 1, 57, 0
1, 30336, Note_on_c, 0, 73, 100
1, 30336, Note_on_c, 1, 50, 100
1, 30400, Note_on_c, 1, 50, 0
1, 30432, Note_on_c, 1, 57, 100
1, 30464, Note_on_c, 0, 73, 0
1, 30496, Note_on_c, 1, 57, 0
1, 30528, Note_on_c, 0, 67, 100
1, 30528, Note_on_c, 1, 55, 100
1, 30592, Note_on_c, 1, 55, 0
1, 30624, Note_on_c, 1, 57, 100
1, 30656, Note_on_c, 0, 67, 0
1, 30688, Note_on_c, 1, 57, 0
1, 30720, Note_on_c, 0, 66, 100
1, 30720, Note_on_c, 1, 50, 100
1, 30784, Note_on_c, 1, 50, 0
1, 30816, Note_on_c, 1, 57, 100
1, 30848, Note_on_c, 0, 66, 0
1, 30880, Note_on_c, 1, 57, 0
1, 30912, Note_on_c, 0, 74, 100
1, 30912, Note_on_c, 1, 54, 100
1, 30976, Note_on_c, 1, 54, 0
1, 31008, Note_on_c, 1, 57, 100
1, 31040, Note_on_c, 0, 74, 0
1, 31072, Note_on_c, 1, 57, 0
1, 31104, Note_on_c, 0, 72, 100
1, 31104, Note_on_c, 1, 54, 100
1, 31168, Note_on_c, 1, 54, 0
1, 31200, Note_on_c, 1, 62, 100
1, 31232, Note_on_c, 0, 72, 0
1, 31264, Note_on_c, 1, 62, 0
1, 31296, Note_on_c, 0, 69, 100
1, 31296, Note_on_c, 1, 57, 100
1, 31360, Note_on_c, 1, 57, 0
1, 31392, Note_on_c, 1, 62, 100
1, 31424, Note_on_c, 0, 69, 0
1, 31456, Note_on_c, 1, 62, 0
1, 31488, Note_on_c, 0, 70, 100
1, 31488, Note_on_c, 1, 55, 100
1, 31552, Note_on_c, 1, 55, 0
1, 31584, Note_on_c, 1, 62, 100
1, 31648, Note_on_c, 1, 62, 0
1, 31680, Note_on_c, 1, 59, 100
1, 31744, Note_on_c, 0, 70, 0
1, 31744, Note_on_c, 1, 59, 0
1, 31776, Note_on_c, 1, 62, 100
1, 31840, Note_on_c, 1, 62, 0
1, 31872, Note_on_c, 0, 71, 100
1, 31872, Note_on_c, 1, 55, 100
1, 32000, Note_on_c, 0, 71, 0
1, 32000, Note_on_c, 1, 55, 0
1, 32064, Note_on_c, 0, 83, 100
1, 32128, Note_on_c, 0, 83, 0
1, 32160, Note_on_c, 0, 79, 100
1, 32224, Note_on_c, 0, 79, 0
1, 32256, Note_on_c, 0, 81, 100
1, 32320, Note_on_c, 0, 81, 0
1, 32352, Note_on_c, 0, 78, 100
1, 32416, Note_on_c, 0, 78, 0
1, 32448, Note_on_c, 0, 79, 100
1, 32512, Note_on_c, 0, 79, 0
1, 32544, Note_on_c, 0, 76, 100
1, 32608, Note_on_c, 0, 76, 0
1, 32640, Note_on_c, 0, 78, 100
1, 32704, Note_on_c, 0, 78, 0
1, 32736, Note_on_c, 0, 74, 100
1, 32800, Note_on_c, 0, 74, 0
1, 32832, Note_on_c, 0, 76, 100
1, 32832, Note_on_c, 1, 57, 100
1, 32896, Note_on_c, 0, 76, 0
1, 32928, Note_on_c, 0, 73, 100
1, 32960, Note_on_c, 1, 57, 0
1, 32992, Note_on_c, 0, 73, 0
1, 33024, Note_on_c, 0, 74, 100
1, 33024, Note_on_c, 1, 59, 100
1, 33088, Note_on_c, 1, 59, 0
1, 33120, Note_on_c, 1, 68, 100
1, 33152, Note_on_c, 0, 74, 0
1, 33184, Note_on_c, 1, 68, 0
1, 33216, Note_on_c, 0, 86, 100
1, 33216, Note_on_c, 1, 62, 100
1, 33280, Note_on_c, 1, 62, 0
1, 33312, Note_on_c, 1, 68, 100
1, 33344, Note_on_c, 0, 86, 0
1, 33376, Note_on_c, 1, 68, 0
1, 33408, Note_on_c, 0, 86, 100
1, 33408, Note_on_c, 1, 59, 100
1, 33472, Note_on_c, 1, 59, 0
1, 33504, Note_on_c, 1, 68, 100
1, 33536, Note_on_c, 0, 86, 0
1, 33568, Note_on_c, 1, 68, 0
1, 33600, Note_on_c, 0, 86, 100
1, 33600, Note_on_c, 1, 62, 100
1, 33632, Note_on_c, 0, 86, 0
1, 33648, Note_on_c, 0, 88, 100
1, 33664, Note_on_c, 1, 62, 0
1, 33680, Note_on_c, 0, 88, 0
1, 33696, Note_on_c, 0, 86, 100
1, 33696, Note_on_c, 1, 68, 100
1, 33728, Note_on_c, 0, 86, 0
1, 33744, Note_on_c, 0, 84, 100
1, 33760, Note_on_c, 1, 68, 0
1, 33776, Note_on_c, 0, 84, 0
1, 33792, Note_on_c, 0, 84, 100
1, 33792, Note_on_c, 1, 57, 100
1, 33856, Note_on_c, 1, 57, 0
1, 33888, Note_on_c, 1, 69, 100
1, 33920, Note_on_c, 0, 84, 0
1, 33952, Note_on_c, 1, 69, 0
1, 33984, Note_on_c, 0, 79, 100
1, 33984, Note_on_c, 1, 61, 100
1, 34048, Note_on_c, 1, 61, 0
1, 34080, Note_on_c, 1, 69, 100
1, 34112, Note_on_c, 0, 79, 0
1, 34144, Note_on_c, 1, 69, 0
1, 34176, Note_on_c, 0, 79, 100
1, 34176, Note_on_c, 1, 57, 100
1, 34240, Note_on_c, 1, 57, 0
1, 34272, Note_on_c, 1, 69, 100
1, 34304, Note_on_c, 0, 79, 0
1, 34336, Note_on_c, 1, 69, 0
1, 34368, Note_on_c, 0, 79, 100
1, 34368, Note_on_c, 1, 61, 100
1, 34400, Note_on_c, 0, 79, 0
1, 34416, Note_on_c, 0, 81, 100
1, 34432, Note_on_c, 1, 61, 0
1, 34448, Note_on_c, 0, 81, 0
1, 34464, Note_on_c, 0, 79, 100
1, 34464, Note_on_c, 1, 69, 100
1, 34496, Note_on_c, 0, 79, 0
1, 34512, Note_on_c, 0, 78, 100
1, 34528, Note_on_c, 1, 69, 0
1, 34544, Note_on_c, 0, 78, 0
1, 34560, Note_on_c, 0, 78, 100
1, 34560, Note_on_c, 1, 62, 100
1, 34624, Note_on_c, 1, 62, 0
1, 34656, Note_on_c, 1, 69, 100
1, 34688, Note_on_c, 0, 78, 0
1, 34720, Note_on_c, 1, 69, 0
1, 34752, Note_on_c, 0, 72, 100
1, 34752, Note_on_c, 1, 66, 100
1, 34816, Note_on_c, 1, 66, 0
1, 34848, Note_on_c, 1, 69, 100
1, 34880, Note_on_c, 0, 72, 0
1, 34912, Note_on_c, 1, 69, 0
1, 34944, Note_on_c, 0, 72, 100
1, 34944, Note_on_c, 1, 62, 100
1, 35008, Note_on_c, 1, 62, 0
1, 35040, Note_on_c, 1, 69, 100
1, 35072, Note_on_c, 0, 72, 0
1, 35104, Note_on_c, 1, 69, 0
1, 35136, Note_on_c, 0, 72, 100
1, 35136, Note_on_c, 1, 66, 100
1, 35168, Note_on_c, 0, 72, 0
1, 35184, Note_on_c, 0, 74, 100
1, 35200, Note_on_c, 1, 66, 0
1, 35216, Note_on_c, 0, 74, 0
1, 35232, Note_on_c, 0, 72, 100
1, 35232, Note_on_c, 1, 69, 100
1, 35264, Note_on_c, 0, 72, 0
1, 35280, Note_on_c, 0, 71, 100
1, 35296, Note_on_c, 1, 69, 0
1, 35312, Note_on_c, 0, 71, 0
1, 35328, Note_on_c, 0, 71, 100
1, 35328, Note_on_c, 1, 67, 100
1, 35456, Note_on_c, 0, 71, 0
1, 35520, Note_on_c, 0, 82, 100
1, 35584, Note_on_c, 0, 82, 0
1, 35584, Note_on_c, 1, 67, 0
1, 35616, Note_on_c, 0, 83, 100
1, 35680, Note_on_c, 0, 83, 0
1, 35712, Note_on_c, 0, 81, 100
1, 35776, Note_on_c, 0, 81, 0
1, 35808, Note_on_c, 0, 79, 100
1, 35872, Note_on_c, 0, 79, 0
1, 35904, Note_on_c, 0, 78, 100
1, 35968, Note_on_c, 0, 78, 0
1, 36000, Note_on_c, 0, 76, 100
1, 36064, Note_on_c, 0, 76, 0
1, 36096, Note_on_c, 0, 74, 100
1, 36288, Note_on_c, 1, 54, 100
1, 36352, Note_on_c, 0, 74, 0
1, 36416, Note_on_c, 1, 54, 0
1, 36480, Note_on_c, 0, 76, 100
1, 36480, Note_on_c, 1, 55, 100
1, 36496, Note_on_c, 0, 76, 0
1, 36504, Note_on_c, 0, 78, 100
1, 36520, Note_on_c, 0, 78, 0
1, 36528, Note_on_c, 0, 76, 100
1, 36544, Note_on_c, 0, 76, 0
1, 36552, Note_on_c, 0, 78, 100
1, 36568, Note_on_c, 0, 78, 0
1, 36576, Note_on_c, 0, 76, 100
1, 36592, Note_on_c, 0, 76, 0
1, 36600, Note_on_c, 0, 78, 100
1, 36608, Note_on_c, 1, 55, 0
1, 36616, Note_on_c, 0, 78, 0
1, 36624, Note_on_c, 0, 76, 100
1, 36640, Note_on_c, 0, 76, 0
1, 36648, Note_on_c, 0, 78, 100
1, 36664, Note_on_c, 0, 78, 0
1, 36672, Note_on_c, 0, 76, 100
1, 36672, Note_on_c, 1, 57, 100
1, 36688, Note_on_c, 0, 76, 0
1, 36696, Note_on_c, 0, 78, 100
1, 36712, Note_on_c, 0, 78, 0
1, 36720, Note_on_c, 0, 76, 100
1, 36736, Note_on_c, 0, 76, 0
1, 36744, Note_on_c, 0, 78, 100
1, 36760, Note_on_c, 0, 78, 0
1, 36768, Note_on_c, 0, 76, 100
1, 36784, Note_on_c, 0, 76, 0
1, 36792, Note_on_c, 0, 78, 100
1, 36800, Note_on_c, 1, 57, 0
1, 36808, Note_on_c, 0, 78, 0
1, 36816, Note_on_c, 0, 76, 100
1, 36832, Note_on_c, 0, 76, 0
1, 36840, Note_on_c, 0, 78, 100
1, 36856, Note_on_c, 0, 78, 0
1, 36864, Note_on_c, 0, 74, 100
1, 36864, Note_on_c, 1, 59, 100
1, 36928, Note_on_c, 1, 59, 0
1, 36960, Note_on_c, 1, 68, 100
1, 36992, Note_on_c, 0, 74, 0
1, 37024, Note_on_c, 1, 68, 0
1, 37056, Note_on_c, 0, 86, 100
1, 37056, Note_on_c, 1, 62, 100
1, 37120, Note_on_c, 1, 62, 0
1, 37152, Note_on_c, 1, 68, 100
1, 37184, Note_on_c, 0, 86, 0
1, 37216, Note_on_c, 1, 68, 0
1, 37248, Note_on_c, 0, 86, 100
1, 37248, Note_on_c, 1, 59, 100
1, 37312, Note_on_c, 1, 59, 0
1, 37344, Note_on_c, 1, 68, 100
1, 37376, Note_on_c, 0, 86, 0
1, 37408, Note_on_c, 1, 68, 0
1, 37440, Note_on_c, 0, 86, 100
1, 37440, Note_on_c, 1, 62, 100
1, 37472, Note_on_c, 0, 86, 0
1, 37488, Note_on_c, 0, 88, 100
1, 37504, Note_on_c, 1, 62, 0
1, 37520, Note_on_c, 0, 88, 0
1, 37536, Note_on_c, 0, 86, 100
1, 37536, Note_on_c, 1, 68, 100
1, 37568, Note_on_c, 0, 86, 0
1, 37584, Note_on_c, 0, 84, 100
1, 37600, Note_on_c, 1, 68, 0
1, 37616, Note_on_c, 0, 84, 0
1, 37632, Note_on_c, 0, 84, 100
1, 37632, Note_on_c, 1, 57, 100
1, 37696, Note_on_c, 1, 57, 0
1, 37728, Note_on_c, 1, 69, 100
1, 37760, Note_on_c, 0, 84, 0
1, 37792, Note_on_c, 1, 69, 0
1, 37824, Note_on_c, 0, 79, 100
1, 37824, Note_on_c, 1, 61, 100
1, 37888, Note_on_c, 1, 61, 0
1, 37920, Note_on_c, 1, 69, 100
1, 37952, Note_on_c, 0, 79, 0
1, 37984, Note_on_c, 1, 69, 0
1, 38016, Note_on_c, 0, 79, 100
1, 38016, Note_on_c, 1, 57, 100
1, 38080, Note_on_c, 1, 57, 0
1, 38112, Note_on_c, 1, 69, 100
1, 38144, Note_on_c, 0, 79, 0
1, 38176, Note_on_c, 1, 69, 0
1, 38208, Note_on_c, 0, 79, 100
1, 38208, Note_on_c, 1, 61, 100
1, 38240, Note_on_c, 0, 79, 0
1, 38256, Note_on_c, 0, 81, 100
1, 38272, Note_on_c, 1, 61, 0
1, 38288, Note_on_c, 0, 81, 0
1, 38304, Note_on_c, 0, 79, 100
1, 38304, Note_on_c, 1, 69, 100
1, 38336, Note_on_c, 0, 79, 0
1, 38352, Note_on_c, 0, 78, 100
1, 38368, Note_on_c, 1, 69, 0
1, 38384, Note_on_c, 0, 78, 0
1, 38400, Note_on_c, 0, 78, 100
1, 38400, Note_on_c, 1, 62, 100
1, 38464, Note_on_c, 1, 62, 0
1, 38496, Note_on_c, 1, 69, 100
1, 38528, Note_on_c, 0, 78, 0
1, 38560, Note_on_c, 1, 69, 0
1, 38592, Note_on_c, 0, 72, 100
1, 38592, Note_on_c, 1, 66, 100
1, 38656, Note_on_c, 1, 66, 0
1, 38688, Note_on_c, 1, 69, 100
1, 38720, Note_on_c, 0, 72, 0
1, 38752, Note_on_c, 1, 69, 0
1, 38784, Note_on_c, 0, 72, 100
1, 38784, Note_on_c, 1, 62, 100
1, 38848, Note_on_c, 1, 62, 0
1, 38880, Note_on_c, 1, 69, 100
1, 38912, Note_on_c, 0, 72, 0
1, 38944, Note_on_c, 1, 69, 0
1, 38976, Note_on_c, 0, 72, 100
1, 38976, Note_on_c, 1, 66, 100
1, 39008, Note_on_c, 0, 72, 0
1, 39024, Note_on_c, 0, 74, 100
1, 39040, Note_on_c, 1, 66, 0
1, 39056, Note_on_c, 0, 74, 0
1, 39072, Note_on_c, 0, 72, 100
1, 39072, Note_on_c, 1, 69, 100
1, 39104, Note_on_c, 0, 72, 0
1, 39120, Note_on_c, 0, 71, 100
1, 39136, Note_on_c, 1, 69, 0
1, 39152, Note_on_c, 0, 71, 0
1, 39168, Note_on_c, 0, 71, 100
1, 39168, Note_on_c, 1, 67, 100
1, 39296, Note_on_c, 0, 71, 0
1, 39360, Note_on_c, 0, 82, 100
1, 39424, Note_on_c, 0, 82, 0
1, 39424, Note_on_c, 1, 67, 0
1, 39456, Note_on_c, 0, 83, 100
1, 39520, Note_on_c, 0, 83, 0
1, 39552, Note_on_c, 0, 81, 100
1, 39616, Note_on_c, 0, 81, 0
1, 39648, Note_on_c, 0, 79, 100
1, 39712, Note_on_c, 0, 79, 0
1, 39744, Note_on_c, 0, 78, 100
1, 39808, Note_on_c, 0, 78, 0
1, 39840, Note_on_c, 0, 76, 100
1, 39904, Note_on_c, 0, 76, 0
1, 39936, Note_on_c, 0, 74, 100
1, 40128, Note_on_c, 1, 54, 100
1, 40192, Note_on_c, 0, 74, 0
1, 40256, Note_on_c, 1, 54, 0
1, 40320, Note_on_c, 0, 76, 100
1, 40320, Note_on_c, 1, 55, 100
1, 40336, Note_on_c, 0, 76, 0
1, 40344, Note_on_c, 0, 78, 100
1, 40360, Note_on_c, 0, 78, 0
1, 40368, Note_on_c, 0, 76, 100
1, 40384, Note_on_c, 0, 76, 0
1, 40392, Note_on_c, 0, 78, 100
1, 40408, Note_on_c, 0, 78, 0
1, 40416, Note_on_c, 0, 76, 100
1, 40432, Note_on_c, 0, 76, 0
1, 40440, Note_on_c, 0, 78, 100
1, 40448, Note_on_c, 1, 55, 0
1, 40456, Note_on_c, 0, 78, 0
1, 40464, Note_on_c, 0, 76, 100
1, 40480, Note_on_c, 0, 76, 0
1, 40488, Note_on_c, 0, 78, 100
1, 40504, Note_on_c, 0, 78, 0
1, 40512, Note_on_c, 0, 76, 100
1, 40512, Note_on_c, 1, 57, 100
1, 40528, Note_on_c, 0, 76, 0
1, 40536, Note_on_c, 0, 78, 100
1, 40552, Note_on_c, 0, 78, 0
1, 40560, Note_on_c, 0, 76, 100
1, 40576, Note_on_c, 0, 76, 0
1, 40584, Note_on_c, 0, 78, 100
1, 40600, Note_on_c, 0, 78, 0
1, 40608, Note_on_c, 0, 76, 100
1, 40624, Note_on_c, 0, 76, 0
1, 40632, Note_on_c, 0, 78, 100
1, 40640, Note_on_c, 1, 57, 0
1, 40648, Note_on_c, 0, 78, 0
1, 40656, Note_on_c, 0, 76, 100
1, 40672, Note_on_c, 0, 76, 0
1, 40680, Note_on_c, 0, 78, 100
1, 40696, Note_on_c, 0, 78, 0
1, 40704, Note_on_c, 0, 78, 100
1, 40704, Note_on_c, 1, 50, 100
1, 40768, Note_on_c, 0, 78, 0
1, 40800, Note_on_c, 0, 74, 100
1, 40832, Note_on_c, 1, 50, 0
1, 40864, Note_on_c, 0, 74, 0
1, 40896, Note_on_c, 0, 86, 100
1, 40896, Note_on_c, 1, 54, 100
1, 40960, Note_on_c, 0, 86, 0
1, 40992, Note_on_c, 0, 81, 100
1, 41024, Note_on_c, 1, 54, 0
1, 41056, Note_on_c, 0, 81, 0
1, 41088, Note_on_c, 0, 83, 100
1, 41088, Note_on_c, 1, 55, 100
1, 41152, Note_on_c, 0, 83, 0
1, 41184, Note_on_c, 0, 78, 100
1, 41248, Note_on_c, 0, 78, 0
1, 41280, Note_on_c, 0, 79, 100
1, 41344, Note_on_c, 0, 79, 0
1, 41344, Note_on_c, 1, 55, 0
1, 41376, Note_on_c, 0, 76, 100
1, 41440, Note_on_c, 0, 76, 0
1, 41472, Note_on_c, 0, 74, 100
1, 41664, Note_on_c, 1, 54, 100
1, 41728, Note_on_c, 0, 74, 0
1, 41792, Note_on_c, 1, 54, 0
1, 41856, Note_on_c, 0, 76, 100
1, 41856, Note_on_c, 1, 55, 100
1, 41872, Note_on_c, 0, 76, 0
1, 41880, Note_on_c, 0, 78, 100
1, 41896, Note_on_c, 0, 78, 0
1, 41904, Note_on_c, 0, 76, 100
1, 41920, Note_on_c, 0, 76, 0
1, 41928, Note_on_c, 0, 78, 100
1, 41944, Note_on_c, 0, 78, 0
1, 41952, Note_on_c, 0, 76, 100
1, 41968, Note_on_c, 0, 76, 0
1, 41976, Note_on_c, 0, 78, 100
1, 41984, Note_on_c, 1, 55, 0
1, 41992, Note_on_c, 0, 78, 0
1, 42000, Note_on_c, 0, 76, 100
1, 42016, Note_on_c, 0, 76, 0
1, 42024, Note_on_c, 0, 78, 100
1, 42040, Note_on_c, 0, 78, 0
1, 42048, Note_on_c, 0, 76, 100
1, 42048, Note_on_c, 1, 57, 100
1, 42064, Note_on_c, 0, 76, 0
1, 42072, Note_on_c, 0, 78, 100
1, 42088, Note_on_c, 0, 78, 0
1, 42096, Note_on_c, 0, 76, 100
1, 42112, Note_on_c, 0, 76, 0
1, 42120, Note_on_c, 0, 78, 100
1, 42136, Note_on_c, 0, 78, 0
1, 42144, Note_on_c, 0, 76, 100
1, 42160, Note_on_c, 0, 76, 0
1, 42168, Note_on_c, 0, 78, 100
1, 42176, Note_on_c, 1, 57, 0
1, 42184, Note_on_c, 0, 78, 0
1, 42192, Note_on_c, 0, 76, 100
1, 42208, Note_on_c, 0, 76, 0
1, 42216, Note_on_c, 0, 78, 100
1, 42232, Note_on_c, 0, 78, 0
1, 42240, Note_on_c, 0, 74, 100
1, 42240, Note_on_c, 1, 50, 100
1, 42304, Note_on_c, 1, 50, 0
1, 42336, Note_on_c, 1, 62, 100
1, 42368, Note_on_c, 0, 74, 0
1, 42400, Note_on_c, 1, 62, 0
1, 42432, Note_on_c, 1, 50, 100
1, 42496, Note_on_c, 1, 50, 0
1, 42528, Note_on_c, 1, 62, 100
1, 42592, Note_on_c, 1, 62, 0
1, 42624, Note_on_c, 0, 79, 100
1, 42624, Note_on_c, 0, 73, 100
1, 42624, Note_on_c, 1, 50, 100
1, 42688, Note_on_c, 1, 50, 0
1, 42720, Note_on_c, 1, 62, 100
1, 42752, Note_on_c, 0, 79, 0
1, 42752, Note_on_c, 0, 73, 0
1, 42784, Note_on_c, 1, 62, 0
1, 42816, Note_on_c, 1, 50, 100
1, 42880, Note_on_c, 1, 50, 0
1, 42912, Note_on_c, 1, 62, 100
1, 42976, Note_on_c, 1, 62, 0
1, 43008, Note_on_c, 0, 78, 100
1, 43008, Note_on_c, 0, 74, 100
1, 43008, Note_on_c, 1, 50, 100
1, 43072, Note_on_c, 1, 50, 0
1, 43104, Note_on_c, 1, 62, 100
1, 43136, Note_on_c, 0, 78, 0
1, 43136, Note_on_c, 0, 74, 0
1, 43168, Note_on_c, 1, 62, 0
1, 43200, Note_on_c, 1, 50, 100
1, 43264, Note_on_c, 1, 50, 0
1, 43296, Note_on_c, 1, 62, 100
1, 43360, Note_on_c, 1, 62, 0
1, 43392, Note_on_c, 0, 73, 100
1, 43392, Note_on_c, 0, 67, 100
1, 43392, Note_on_c, 1, 50, 100
1, 43456, Note_on_c, 1, 50, 0
1, 43488, Note_on_c, 1, 62, 100
1, 43520, Note_on_c, 0, 73, 0
1, 43520, Note_on_c, 0, 67, 0
1, 43552, Note_on_c, 1, 62, 0
1, 43584, Note_on_c, 1, 50, 100
1, 43648, Note_on_c, 1, 50, 0
1, 43680, Note_on_c, 1, 62, 100
1, 43744, Note_on_c, 1, 62, 0
1, 43776, Note_on_c, 0, 74, 100
1, 43776, Note_on_c, 0, 66, 100
1, 43776, Note_on_c, 1, 50, 100
1, 44032, Note_on_c, 0, 74, 0
1, 44032, Note_on_c, 0, 66, 0
1, 44032, Note_on_c, 1, 50, 0
1, 44352, Note_on_c, 0, 62, 100
1, 44480, Note_on_c, 0, 62, 0
1, 44544, Note_on_c, 0, 67, 100
1, 44544, Note_on_c, 1, 59, 100
1, 44544, Note_on_c, 1, 55, 100
1, 44576, Note_on_c, 0, 67, 0
1, 44592, Note_on_c, 0, 69, 100
1, 44624, Note_on_c, 0, 69, 0
1, 44640, Note_on_c, 0, 67, 100
1, 44672, Note_on_c, 0, 67, 0
1, 44688, Note_on_c, 0, 66, 100
1, 44720, Note_on_c, 0, 66, 0
1, 44736, Note_on_c, 0, 67, 100
1, 44800, Note_on_c, 0, 67, 0
1, 44800, Note_on_c, 1, 59, 0
1, 44800, Note_on_c, 1, 55, 0
1, 44832, Note_on_c, 0, 69, 100
1, 44896, Note_on_c, 0, 69, 0
1, 44928, Note_on_c, 0, 71, 100
1, 44960, Note_on_c, 0, 71, 0
1, 44976, Note_on_c, 0, 72, 100
1, 45008, Note_on_c, 0, 72, 0
1, 45024, Note_on_c, 0, 71, 100
1, 45056, Note_on_c, 0, 71, 0
1, 45072, Note_on_c, 0, 69, 100
1, 45104, Note_on_c, 0, 69, 0
1, 45120, Note_on_c, 0, 71, 100
1, 45184, Note_on_c, 0, 71, 0
1, 45216, Note_on_c, 0, 72, 100
1, 45280, Note_on_c, 0, 72, 0
1, 45312, Note_on_c, 0, 74, 100
1, 45440, Note_on_c, 0, 74, 0
1, 45504, Note_on_c, 0, 74, 100
1, 45504, Note_on_c, 1, 71, 100
1, 45504, Note_on_c, 1, 67, 100
1, 45632, Note_on_c, 0, 74, 0
1, 45632, Note_on_c, 1, 71, 0
1, 45632, Note_on_c, 1, 67, 0
1, 45696, Note_on_c, 0, 74, 100
1, 45696, Note_on_c, 1, 69, 100
1, 45696, Note_on_c, 1, 66, 100
1, 45824, Note_on_c, 0, 74, 0
1, 45824, Note_on_c, 1, 69, 0
1, 45824, Note_on_c, 1, 66, 0
1, 45888, Note_on_c, 0, 74, 100
1, 45888, Note_on_c, 1, 72, 100
1, 45888, Note_on_c, 1, 69, 100
1, 46016, Note_on_c, 0, 74, 0
1, 46016, Note_on_c, 1, 72, 0
1, 46016, Note_on_c, 1, 69, 0
1, 46080, Note_on_c, 0, 74, 100
1, 46080, Note_on_c, 1, 71, 100
1, 46080, Note_on_c, 1, 67, 100
1, 46208, Note_on_c, 0, 74, 0
1, 46272, Note_on_c, 0, 76, 100
1, 46336, Note_on_c, 0, 76, 0
1, 46336, Note_on_c, 1, 71, 0
1, 46336, Note_on_c, 1, 67, 0
1, 46368, Note_on_c, 0, 78, 100
1, 46432, Note_on_c, 0, 78, 0
1, 46440, Note_on_c, 0, 81, 100
1, 46456, Note_on_c, 0, 81, 0
1, 46464, Note_on_c, 0, 79, 100
1, 46592, Note_on_c, 0, 79, 0
1, 46656, Note_on_c, 0, 78, 100
1, 46720, Note_on_c, 0, 78, 0
1, 46752, Note_on_c, 0, 76, 100
1, 46816, Note_on_c, 0, 76, 0
1, 46848, Note_on_c, 0, 74, 100
1, 46976, Note_on_c, 0, 74, 0
1, 47040, Note_on_c, 0, 74, 100
1, 47040, Note_on_c, 1, 71, 100
1, 47040, Note_on_c, 1, 67, 100
1, 47168, Note_on_c, 0, 74, 0
1, 47168, Note_on_c, 1, 71, 0
1, 47168, Note_on_c, 1, 67, 0
1, 47232, Note_on_c, 0, 74, 100
1, 47232, Note_on_c, 1, 69, 100
1, 47232, Note_on_c, 1, 66, 100
1, 47360, Note_on_c, 0, 74, 0
1, 47360, Note_on_c, 1, 69, 0
1, 47360, Note_on_c, 1, 66, 0
1, 47424, Note_on_c, 0, 74, 100
1, 47424, Note_on_c, 1, 72, 100
1, 47424, Note_on_c, 1, 69, 100
1, 47552, Note_on_c, 0, 74, 0
1, 47552, Note_on_c, 1, 72, 0
1, 47552, Note_on_c, 1, 69, 0
1, 47616, Note_on_c, 0, 74, 100
1, 47616, Note_on_c, 1, 71, 100
1, 47616, Note_on_c, 1, 67, 100
1, 47744, Note_on_c, 0, 74, 0
1, 47808, Note_on_c, 0, 76, 100
1, 47872, Note_on_c, 0, 76, 0
1, 47872, Note_on_c, 1, 71, 0
1, 47872, Note_on_c, 1, 67, 0
1, 47904, Note_on_c, 0, 78, 100
1, 47968, Note_on_c, 0, 78, 0
1, 47976, Note_on_c, 0, 81, 100
1, 47992, Note_on_c, 0, 81, 0
1, 48000, Note_on_c, 0, 79, 100
1, 48128, Note_on_c, 0, 79, 0
1, 48192, Note_on_c, 0, 78, 100
1, 48192, Note_on_c, 1, 72, 100
1, 48192, Note_on_c, 1, 67, 100
1, 48256, Note_on_c, 0, 78, 0
1, 48288, Note_on_c, 0, 76, 100
1, 48320, Note_on_c, 1, 72, 0
1, 48320, Note_on_c, 1, 67, 0
1, 48352, Note_on_c, 0, 76, 0
1, 48384, Note_on_c, 0, 74, 100
1, 48384, Note_on_c, 1, 71, 100
1, 48384, Note_on_c, 1, 67, 100
1, 48512, Note_on_c, 0, 74, 0
1, 48576, Note_on_c, 0, 79, 100
1, 48640, Note_on_c, 0, 79, 0
1, 48640, Note_on_c, 1, 71, 0
1, 48640, Note_on_c, 1, 67, 0
1, 48672, Note_on_c, 0, 83, 100
1, 48736, Note_on_c, 0, 83, 0
1, 48768, Note_on_c, 0, 81, 100
1, 48832, Note_on_c, 0, 81, 0
1, 48864, Note_on_c, 0, 79, 100
1, 48928, Note_on_c, 0, 79, 0
1, 48960, Note_on_c, 0, 78, 100
1, 49024, Note_on_c, 0, 78, 0
1, 49056, Note_on_c, 0, 76, 100
1, 49120, Note_on_c, 0, 76, 0
1, 49152, Note_on_c, 0, 74, 100
1, 49344, Note_on_c, 1, 71, 100
1, 49408, Note_on_c, 0, 74, 0
1, 49472, Note_on_c, 1, 71, 0
1, 49536, Note_on_c, 0, 72, 100
1, 49536, Note_on_c, 1, 69, 100
1, 49552, Note_on_c, 0, 72, 0
1, 49560, Note_on_c, 0, 74, 100
1, 49576, Note_on_c, 0, 74, 0
1, 49584, Note_on_c, 0, 72, 100
1, 49600, Note_on_c, 0, 72, 0
1, 49608, Note_on_c, 0, 74, 100
1, 49624, Note_on_c, 0, 74, 0
1, 49632, Note_on_c, 0, 72, 100
1, 49648, Note_on_c, 0, 72, 0
1, 49656, Note_on_c, 0, 74, 100
1, 49664, Note_on_c, 1, 69, 0
1, 49672, Note_on_c, 0, 74, 0
1, 49680, Note_on_c, 0, 72, 100
1, 49696, Note_on_c, 0, 72, 0
1, 49704, Note_on_c, 0, 74, 100
1, 49720, Note_on_c, 0, 74, 0
1, 49728, Note_on_c, 0, 72, 100
1, 49728, Note_on_c, 1, 62, 100
1, 49744, Note_on_c, 0, 72, 0
1, 49752, Note_on_c, 0, 74, 100
1, 49768, Note_on_c, 0, 74, 0
1, 49776, Note_on_c, 0, 72, 100
1, 49792, Note_on_c, 0, 72, 0
1, 49800, Note_on_c, 0, 74, 100
1, 49816, Note_on_c, 0, 74, 0
1, 49824, Note_on_c, 0, 72, 100
1, 49840, Note_on_c, 0, 72, 0
1, 49848, Note_on_c, 0, 74, 100
1, 49856, Note_on_c, 1, 62, 0
1, 49864, Note_on_c, 0, 74, 0
1, 49872, Note_on_c, 0, 72, 100
1, 49888, Note_on_c, 0, 72, 0
1, 49896, Note_on_c, 0, 74, 100
1, 49912, Note_on_c, 0, 74, 0
1, 49920, Note_on_c, 0, 71, 100
1, 49920, Note_on_c, 1, 67, 100
1, 50048, Note_on_c, 1, 67, 0
1, 50112, Note_on_c, 1, 62, 100
1, 50176, Note_on_c, 0, 71, 0
1, 50240, Note_on_c, 1, 62, 0
1, 50304, Note_on_c, 1, 55, 100
1, 50432, Note_on_c, 1, 55, 0
1, 50496, Note_on_c, 0, 67, 100
1, 50496, Note_on_c, 1, 55, 100
1, 50496, Note_on_c, 1, 43, 100
1, 50624, Note_on_c, 0, 67, 0
1, 50624, Note_on_c, 1, 55, 0
1, 50624, Note_on_c, 1, 43, 0
1, 50688, Note_on_c, 0, 66, 100
1, 50688, Note_on_c, 1, 42, 100
1, 50688, Note_on_c, 1, 54, 100
1, 50704, Note_on_c, 0, 66, 0
1, 50712, Note_on_c, 0, 67, 100
1, 50728, Note_on_c, 0, 67, 0
1, 50736, Note_on_c, 0, 66, 100
1, 50752, Note_on_c, 0, 66, 0
1, 50760, Note_on_c, 0, 67, 100
1, 50776, Note_on_c, 0, 67, 0
1, 50784, Note_on_c, 0, 66, 100
1, 50800, Note_on_c, 0, 66, 0
1, 50808, Note_on_c, 0, 67, 100
1, 50816, Note_on_c, 1, 42, 0
1, 50816, Note_on_c, 1, 54, 0
1, 50824, Note_on_c, 0, 67, 0
1, 50832, Note_on_c, 0, 66, 100
1, 50848, Note_on_c, 0, 66, 0
1, 50856, Note_on_c, 0, 67, 100
1, 50872, Note_on_c, 0, 67, 0
1, 50880, Note_on_c, 0, 64, 100
1, 50880, Note_on_c, 1, 40, 100
1, 50880, Note_on_c, 1, 52, 100
1, 51008, Note_on_c, 0, 64, 0
1, 51008, Note_on_c, 1, 40, 0
1, 51008, Note_on_c, 1, 52, 0
1, 51072, Note_on_c, 0, 62, 100
1, 51072, Note_on_c, 1, 38, 100
1, 51072, Note_on_c, 1, 50, 100
1, 51088, Note_on_c, 0, 62, 0
1, 51096, Note_on_c, 0, 64, 100
1, 51112, Note_on_c, 0, 64, 0
1, 51120, Note_on_c, 0, 62, 100
1, 51136, Note_on_c, 0, 62, 0
1, 51144, Note_on_c, 0, 64, 100
1, 51160, Note_on_c, 0, 64, 0
1, 51168, Note_on_c, 0, 62, 100
1, 51184, Note_on_c, 0, 62, 0
1, 51192, Note_on_c, 0, 64, 100
1, 51200, Note_on_c, 1, 38, 0
1, 51200, Note_on_c, 1, 50, 0
1, 51208, Note_on_c, 0, 64, 0
1, 51216, Note_on_c, 0, 62, 100
1, 51232, Note_on_c, 0, 62, 0
1, 51240, Note_on_c, 0, 64, 100
1, 51256, Note_on_c, 0, 64, 0
1, 51264, Note_on_c, 0, 60, 100
1, 51264, Note_on_c, 1, 36, 100
1, 51264, Note_on_c, 1, 48, 100
1, 51392, Note_on_c, 0, 60, 0
1, 51392, Note_on_c, 1, 36, 0
1, 51392, Note_on_c, 1, 48, 0
1, 51456, Note_on_c, 0, 59, 100
1, 51456, Note_on_c, 1, 35, 100
1, 51456, Note_on_c, 1, 47, 100
1, 51712, Note_on_c, 0, 59, 0
1, 51712, Note_on_c, 1, 35, 0
1, 51712, Note_on_c, 1, 47, 0
1, 52032, Note_on_c, 0, 64, 100
1, 52032, Note_on_c, 1, 52, 100
1, 52072, Note_on_c, 0, 64, 0
1, 52072, Note_on_c, 1, 52, 0
1, 52096, Note_on_c, 0, 66, 100
1, 52096, Note_on_c, 1, 54, 100
1, 52136, Note_on_c, 0, 66, 0
1, 52136, Note_on_c, 1, 54, 0
1, 52160, Note_on_c, 0, 64, 100
1, 52160, Note_on_c, 1, 52, 100
1, 52200, Note_on_c, 0, 64, 0
1, 52200, Note_on_c, 1, 52, 0
1, 52224, Note_on_c, 0, 62, 100
1, 52224, Note_on_c, 1, 50, 100
1, 52352, Note_on_c, 0, 62, 0
1, 52352, Note_on_c, 1, 50, 0
1, 52416, Note_on_c, 0, 60, 100
1, 52416, Note_on_c, 1, 48, 100
1, 52456, Note_on_c, 0, 60, 0
1, 52456, Note_on_c, 1, 48, 0
1, 52480, Note_on_c, 0, 62, 100
1, 52480, Note_on_c, 1, 50, 100
1, 52520, Note_on_c, 0, 62, 0
1, 52520, Note_on_c, 1, 50, 0
1, 52544, Note_on_c, 0, 60, 100
1, 52544, Note_on_c, 1, 48, 100
1, 52584, Note_on_c, 0, 60, 0
1, 52584, Note_on_c, 1, 48, 0
1, 52608, Note_on_c, 0, 59, 100
1, 52608, Note_on_c, 1, 47, 100
1, 52736, Note_on_c, 0, 59, 0
1, 52736, Note_on_c, 1, 47, 0
1, 52800, Note_on_c, 0, 57, 100
1, 52800, Note_on_c, 1, 45, 100
1, 52840, Note_on_c, 0, 57, 0
1, 52840, Note_on_c, 1, 45, 0
1, 52864, Note_on_c, 0, 59, 100
1, 52864, Note_on_c, 1, 47, 100
1, 52904, Note_on_c, 0, 59, 0
1, 52904, Note_on_c, 1, 47, 0
1, 52928, Note_on_c, 0, 57, 100
1, 52928, Note_on_c, 1, 45, 100
1, 52968, Note_on_c, 0, 57, 0
1, 52968, Note_on_c, 1, 45, 0
1, 52992, Note_on_c, 0, 55, 100
1, 52992, Note_on_c, 1, 43, 100
1, 53248, Note_on_c, 0, 55, 0
1, 53248, Note_on_c, 1, 43, 0
1, 53568, Note_on_c, 0, 62, 100
1, 53696, Note_on_c, 0, 62, 0
1, 53760, Note_on_c, 0, 67, 100
1, 53760, Note_on_c, 1, 59, 100
1, 53760, Note_on_c, 1, 55, 100
1, 53824, Note_on_c, 0, 67, 0
1, 53856, Note_on_c, 0, 66, 100
1, 53920, Note_on_c, 0, 66, 0
1, 53952, Note_on_c, 0, 69, 100
1, 54016, Note_on_c, 0, 69, 0
1, 54016, Note_on_c, 1, 59, 0
1, 54016, Note_on_c, 1, 55, 0
1, 54048, Note_on_c, 0, 67, 100
1, 54112, Note_on_c, 0, 67, 0
1, 54144, Note_on_c, 0, 71, 100
1, 54208, Note_on_c, 0, 71, 0
1, 54240, Note_on_c, 0, 69, 100
1, 54304, Note_on_c, 0, 69, 0
1, 54336, Note_on_c, 0, 72, 100
1, 54400, Note_on_c, 0, 72, 0
1, 54432, Note_on_c, 0, 71, 100
1, 54496, Note_on_c, 0, 71, 0
1, 54528, Note_on_c, 0, 74, 100
1, 54656, Note_on_c, 0, 74, 0
1, 54720, Note_on_c, 0, 74, 100
1, 54720, Note_on_c, 1, 71, 100
1, 54720, Note_on_c, 1, 67, 100
1, 54848, Note_on_c, 0, 74, 0
1, 54848, Note_on_c, 1, 71, 0
1, 54848, Note_on_c, 1, 67, 0
1, 54912, Note_on_c, 0, 74, 100
1, 54912, Note_on_c, 1, 69, 100
1, 54912, Note_on_c, 1, 66, 100
1, 55040, Note_on_c, 0, 74, 0
1, 55040, Note_on_c, 1, 69, 0
1, 55040, Note_on_c, 1, 66, 0
1, 55104, Note_on_c, 0, 74, 100
1, 55104, Note_on_c, 1, 72, 100
1, 55104, Note_on_c, 1, 69, 100
1, 55232, Note_on_c, 0, 74, 0
1, 55232, Note_on_c, 1, 72, 0
1, 55232, Note_on_c, 1, 69, 0
1, 55296, Note_on_c, 0, 74, 100
1, 55296, Note_on_c, 1, 71, 100
1, 55296, Note_on_c, 1, 67, 100
1, 55424, Note_on_c, 0, 74, 0
1, 55488, Note_on_c, 0, 76, 100
1, 55552, Note_on_c, 0, 76, 0
1, 55552, Note_on_c, 1, 71, 0
1, 55552, Note_on_c, 1, 67, 0
1, 55584, Note_on_c, 0, 78, 100
1, 55648, Note_on_c, 0, 78, 0
1, 55656, Note_on_c, 0, 81, 100
1, 55672, Note_on_c, 0, 81, 0
1, 55680, Note_on_c, 0, 79, 100
1, 55808, Note_on_c, 0, 79, 0
1, 55872, Note_on_c, 0, 78, 100
1, 55936, Note_on_c, 0, 78, 0
1, 55968, Note_on_c, 0, 76, 100
1, 56032, Note_on_c, 0, 76, 0
1, 56064, Note_on_c, 0, 74, 100
1, 56192, Note_on_c, 0, 74, 0
1, 56256, Note_on_c, 0, 74, 100
1, 56256, Note_on_c, 1, 71, 100
1, 56256, Note_on_c, 1, 67, 100
1, 56384, Note_on_c, 0, 74, 0
1, 56384, Note_on_c, 1, 71, 0
1, 56384, Note_on_c, 1, 67, 0
1, 56448, Note_on_c, 0, 74, 100
1, 56448, Note_on_c, 1, 69, 100
1, 56448, Note_on_c, 1, 66, 100
1, 56576, Note_on_c, 0, 74, 0
1, 56576, Note_on_c, 1, 69, 0
1, 56576, Note_on_c, 1, 66, 0
1, 56640, Note_on_c, 0, 74, 100
1, 56640, Note_on_c, 1, 72, 100
1, 56640, Note_on_c, 1, 69, 100
1, 56768, Note_on_c, 0, 74, 0
1, 56768, Note_on_c, 1, 72, 0
1, 56768, Note_on_c, 1, 69, 0
1, 56832, Note_on_c, 0, 74, 100
1, 56832, Note_on_c, 1, 71, 100
1, 56832, Note_on_c, 1, 67, 100
1, 56960, Note_on_c, 0, 74, 0
1, 57024, Note_on_c, 0, 79, 100
1, 57088, Note_on_c, 1, 71, 0
1, 57088, Note_on_c, 1, 67, 0
1, 57152, Note_on_c, 0, 79, 0
1, 57216, Note_on_c, 0, 78, 100
1, 57344, Note_on_c, 0, 78, 0
1, 57408, Note_on_c, 0, 74, 100
1, 57536, Note_on_c, 0, 74, 0
1, 57600, Note_on_c, 0, 75, 100
1, 57792, Note_on_c, 1, 72, 100
1, 57792, Note_on_c, 1, 67, 100
1, 57856, Note_on_c, 0, 75, 0
1, 57920, Note_on_c, 1, 72, 0
1, 57920, Note_on_c, 1, 67, 0
1, 57984, Note_on_c, 0, 76, 100
1, 57984, Note_on_c, 1, 72, 100
1, 57984, Note_on_c, 1, 67, 100
1, 58112, Note_on_c, 1, 72, 0
1, 58112, Note_on_c, 1, 67, 0
1, 58176, Note_on_c, 1, 72, 100
1, 58176, Note_on_c, 1, 67, 100
1, 58240, Note_on_c, 0, 76, 0
1, 58304, Note_on_c, 1, 72, 0
1, 58304, Note_on_c, 1, 67, 0
1, 58368, Note_on_c, 0, 76, 100
1, 58368, Note_on_c, 1, 72, 100
1, 58368, Note_on_c, 1, 67, 100
1, 58496, Note_on_c, 0, 76, 0
1, 58560, Note_on_c, 0, 79, 100
1, 58624, Note_on_c, 1, 72, 0
1, 58624, Note_on_c, 1, 67, 0
1, 58688, Note_on_c, 0, 79, 0
1, 58752, Note_on_c, 0, 76, 100
1, 58880, Note_on_c, 0, 76, 0
1, 58944, Note_on_c, 0, 72, 100
1, 59072, Note_on_c, 0, 72, 0
1, 59136, Note_on_c, 0, 73, 100
1, 59328, Note_on_c, 1, 71, 100
1, 59328, Note_on_c, 1, 67, 100
1, 59392, Note_on_c, 0, 73, 0
1, 59456, Note_on_c, 1, 71, 0
1, 59456, Note_on_c, 1, 67, 0
1, 59520, Note_on_c, 0, 74, 100
1, 59520, Note_on_c, 1, 71, 100
1, 59520, Note_on_c, 1, 67, 100
1, 59648, Note_on_c, 1, 71, 0
1, 59648, Note_on_c, 1, 67, 0
1, 59712, Note_on_c, 1, 71, 100
1, 59712, Note_on_c, 1, 67, 100
1, 59776, Note_on_c, 0, 74, 0
1, 59840, Note_on_c, 1, 71, 0
1, 59840, Note_on_c, 1, 67, 0
1, 59904, Note_on_c, 0, 74, 100
1, 59904, Note_on_c, 1, 71, 100
1, 59904, Note_on_c, 1, 67, 100
1, 60032, Note_on_c, 0, 74, 0
1, 60048, Note_on_c, 0, 79, 100
1, 60080, Note_on_c, 0, 79, 0
1, 60096, Note_on_c, 0, 83, 100
1, 60160, Note_on_c, 1, 71, 0
1, 60160, Note_on_c, 1, 67, 0
1, 60224, Note_on_c, 0, 83, 0
1, 60240, Note_on_c, 0, 81, 100
1, 60272, Note_on_c, 0, 81, 0
1, 60288, Note_on_c, 0, 79, 100
1, 60352, Note_on_c, 0, 79, 0
1, 60432, Note_on_c, 0, 78, 100
1, 60464, Note_on_c, 0, 78, 0
1, 60480, Note_on_c, 0, 76, 100
1, 60544, Note_on_c, 0, 76, 0
1, 60672, Note_on_c, 0, 74, 100
1, 60864, Note_on_c, 1, 69, 100
1, 60928, Note_on_c, 0, 74, 0
1, 60992, Note_on_c, 1, 69, 0
1, 61056, Note_on_c, 0, 72, 100
1, 61056, Note_on_c, 1, 66, 100
1, 61088, Note_on_c, 0, 72, 0
1, 61104, Note_on_c, 0, 74, 100
1, 61136, Note_on_c, 0, 74, 0
1, 61152, Note_on_c, 0, 72, 100
1, 61184, Note_on_c, 0, 72, 0
1, 61184, Note_on_c, 1, 66, 0
1, 61200, Note_on_c, 0, 74, 100
1, 61232, Note_on_c, 0, 74, 0
1, 61248, Note_on_c, 0, 71, 100
1, 61248, Note_on_c, 1, 67, 100
1, 61376, Note_on_c, 0, 71, 0
1, 61376, Note_on_c, 1, 67, 0
1, 61440, Note_on_c, 0, 71, 100
1, 61440, Note_on_c, 1, 60, 100
1, 61504, Note_on_c, 0, 71, 0
1, 61536, Note_on_c, 0, 69, 100
1, 61600, Note_on_c, 0, 69, 0
1, 61632, Note_on_c, 0, 75, 100
1, 61696, Note_on_c, 0, 75, 0
1, 61696, Note_on_c, 1, 60, 0
1, 61728, Note_on_c, 0, 76, 100
1, 61792, Note_on_c, 0, 76, 0
1, 61824, Note_on_c, 0, 74, 100
1, 61888, Note_on_c, 0, 74, 0
1, 61920, Note_on_c, 0, 72, 100
1, 61984, Note_on_c, 0, 72, 0
1, 62016, Note_on_c, 0, 71, 100
1, 62016, Note_on_c, 1, 61, 100
1, 62080, Note_on_c, 0, 71, 0
1, 62112, Note_on_c, 0, 69, 100
1, 62144, Note_on_c, 1, 61, 0
1, 62176, Note_on_c, 0, 69, 0
1, 62208, Note_on_c, 0, 67, 100
1, 62208, Note_on_c, 1, 62, 100
1, 62336, Note_on_c, 1, 62, 0
1, 62400, Note_on_c, 1, 57, 100
1, 62464, Note_on_c, 0, 67, 0
1, 62528, Note_on_c, 1, 57, 0
1, 62592, Note_on_c, 0, 66, 100
1, 62592, Note_on_c, 1, 50, 100
1, 62720, Note_on_c, 0, 66, 0
1, 62720, Note_on_c, 1, 50, 0
1, 62784, Note_on_c, 0, 69, 100
1, 62912, Note_on_c, 0, 69, 0
1, 62976, Note_on_c, 0, 74, 100
1, 62976, Note_on_c, 1, 50, 100
1, 63040, Note_on_c, 1, 50, 0
1, 63072, Note_on_c, 1, 57, 100
1, 63136, Note_on_c, 1, 57, 0
1, 63168, Note_on_c, 1, 54, 100
1, 63232, Note_on_c, 0, 74, 0
1, 63232, Note_on_c, 1, 54, 0
1, 63264, Note_on_c, 1, 57, 100
1, 63328, Note_on_c, 1, 57, 0
1, 63336, Note_on_c, 0, 79, 100
1, 63352, Note_on_c, 0, 79, 0
1, 63360, Note_on_c, 0, 78, 100
1, 63360, Note_on_c, 1, 50, 100
1, 63424, Note_on_c, 1, 50, 0
1, 63456, Note_on_c, 1, 57, 100
1, 63488, Note_on_c, 0, 78, 0
1, 63520, Note_on_c, 1, 57, 0
1, 63552, Note_on_c, 0, 76, 100
1, 63552, Note_on_c, 1, 54, 100
1, 63616, Note_on_c, 0, 76, 0
1, 63616, Note_on_c, 1, 54, 0
1, 63648, Note_on_c, 0, 74, 100
1, 63648, Note_on_c, 1, 57, 100
1, 63712, Note_on_c, 0, 74, 0
1, 63712, Note_on_c, 1, 57, 0
1, 63720, Note_on_c, 0, 74, 100
1, 63736, Note_on_c, 0, 74, 0
1, 63744, Note_on_c, 0, 73, 100
1, 63744, Note_on_c, 1, 52, 100
1, 63808, Note_on_c, 1, 52, 0
1, 63840, Note_on_c, 1, 57, 100
1, 63904, Note_on_c, 1, 57, 0
1, 63936, Note_on_c, 1, 55, 100
1, 64000, Note_on_c, 0, 73, 0
1, 64000, Note_on_c, 1, 55, 0
1, 64032, Note_on_c, 1, 57, 100
1, 64096, Note_on_c, 1, 57, 0
1, 64128, Note_on_c, 1, 52, 100
1, 64192, Note_on_c, 1, 52, 0
1, 64224, Note_on_c, 1, 57, 100
1, 64288, Note_on_c, 1, 57, 0
1, 64320, Note_on_c, 0, 69, 100
1, 64320, Note_on_c, 1, 55, 100
1, 64384, Note_on_c, 1, 55, 0
1, 64416, Note_on_c, 1, 57, 100
1, 64448, Note_on_c, 0, 69, 0
1, 64480, Note_on_c, 1, 57, 0
1, 64512, Note_on_c, 0, 76, 100
1, 64512, Note_on_c, 1, 49, 100
1, 64576, Note_on_c, 1, 49, 0
1, 64608, Note_on_c, 1, 57, 100
1, 64672, Note_on_c, 1, 57, 0
1, 64704, Note_on_c, 1, 52, 100
1, 64768, Note_on_c, 0, 76, 0
1, 64768, Note_on_c, 1, 52, 0
1, 64800, Note_on_c, 1, 57, 100
1, 64864, Note_on_c, 1, 57, 0
1, 64872, Note_on_c, 0, 81, 100
1, 64888, Note_on_c, 0, 81, 0
1, 64896, Note_on_c, 0, 79, 100
1, 64896, Note_on_c, 1, 49, 100
1, 64960, Note_on_c, 1, 49, 0
1, 64992, Note_on_c, 1, 57, 100
1, 65024, Note_on_c, 0, 79, 0
1, 65056, Note_on_c, 1, 57, 0
1, 65088, Note_on_c, 0, 78, 100
1, 65088, Note_on_c, 1, 52, 100
1, 65152, Note_on_c, 0, 78, 0
1, 65152, Note_on_c, 1, 52, 0
1, 65184, Note_on_c, 0, 76, 100
1, 65184, Note_on_c, 1, 57, 100
1, 65248, Note_on_c, 0, 76, 0
1, 65248, Note_on_c, 1, 57, 0
1, 65256, Note_on_c, 0, 76, 100
1, 65272, Note_on_c, 0, 76, 0
1, 65280, Note_on_c, 0, 78, 100
1, 65280, Note_on_c, 1, 50, 100
1, 65344, Note_on_c, 1, 50, 0
1, 65376, Note_on_c, 1, 57, 100
1, 65440, Note_on_c, 1, 57, 0
1, 65472, Note_on_c, 1, 54, 100
1, 65536, Note_on_c, 0, 78, 0
1, 65536, Note_on_c, 1, 54, 0
1, 65568, Note_on_c, 1, 57, 100
1, 65632, Note_on_c, 1, 57, 0
1, 65664, Note_on_c, 1, 50, 100
1, 65728, Note_on_c, 1, 50, 0
1, 65760, Note_on_c, 1, 57, 100
1, 65824, Note_on_c, 1, 57, 0
1, 65856, Note_on_c, 0, 69, 100
1, 65856, Note_on_c, 1, 54, 100
1, 65920, Note_on_c, 1, 54, 0
1, 65952, Note_on_c, 1, 57, 100
1, 65984, Note_on_c, 0, 69, 0
1, 66016, Note_on_c, 1, 57, 0
1, 66048, Note_on_c, 0, 69, 100
1, 66048, Note_on_c, 1, 54, 100
1, 66112, Note_on_c, 0, 69, 0
1, 66144, Note_on_c, 0, 81, 100
1, 66208, Note_on_c, 0, 81, 0
1, 66240, Note_on_c, 0, 79, 100
1, 66304, Note_on_c, 0, 79, 0
1, 66304, Note_on_c, 1, 54, 0
1, 66336, Note_on_c, 0, 78, 100
1, 66400, Note_on_c, 0, 78, 0
1, 66432, Note_on_c, 0, 76, 100
1, 66496, Note_on_c, 0, 76, 0
1, 66528, Note_on_c, 0, 74, 100
1, 66592, Note_on_c, 0, 74, 0
1, 66624, Note_on_c, 0, 73, 100
1, 66688, Note_on_c, 0, 73, 0
1, 66720, Note_on_c, 0, 74, 100
1, 66784, Note_on_c, 0, 74, 0
1, 66816, Note_on_c, 0, 71, 100
1, 66816, Note_on_c, 1, 55, 100
1, 66880, Note_on_c, 1, 55, 0
1, 66912, Note_on_c, 1, 67, 100
1, 66944, Note_on_c, 0, 71, 0
1, 66976, Note_on_c, 1, 67, 0
1, 67008, Note_on_c, 0, 75, 100
1, 67008, Note_on_c, 1, 54, 100
1, 67072, Note_on_c, 1, 54, 0
1, 67104, Note_on_c, 1, 66, 100
1, 67136, Note_on_c, 0, 75, 0
1, 67168, Note_on_c, 1, 66, 0
1, 67200, Note_on_c, 0, 76, 100
1, 67200, Note_on_c, 1, 52, 100
1, 67264, Note_on_c, 1, 52, 0
1, 67296, Note_on_c, 1, 64, 100
1, 67328, Note_on_c, 0, 76, 0
1, 67360, Note_on_c, 1, 64, 0
1, 67392, Note_on_c, 0, 78, 100
1, 67392, Note_on_c, 1, 51, 100
1, 67456, Note_on_c, 1, 51, 0
1, 67488, Note_on_c, 1, 63, 100
1, 67520, Note_on_c, 0, 78, 0
1, 67552, Note_on_c, 1, 63, 0
1, 67584, Note_on_c, 1, 52, 100
1, 67680, Note_on_c, 0, 79, 100
1, 67744, Note_on_c, 0, 79, 0
1, 67776, Note_on_c, 0, 78, 100
1, 67840, Note_on_c, 0, 78, 0
1, 67840, Note_on_c, 1, 52, 0
1, 67872, Note_on_c, 0, 76, 100
1, 67936, Note_on_c, 0, 76, 0
1, 67968, Note_on_c, 0, 74, 100
1, 68032, Note_on_c, 0, 74, 0
1, 68064, Note_on_c, 0, 73, 100
1, 68128, Note_on_c, 0, 73, 0
1, 68160, Note_on_c, 0, 71, 100
1, 68224, Note_on_c, 0, 71, 0
1, 68256, Note_on_c, 0, 73, 100
1, 68320, Note_on_c, 0, 73, 0
1, 68352, Note_on_c, 0, 69, 100
1, 68352, Note_on_c, 1, 54, 100
1, 68416, Note_on_c, 1, 54, 0
1, 68448, Note_on_c, 1, 66, 100
1, 68480, Note_on_c, 0, 69, 0
1, 68512, Note_on_c, 1, 66, 0
1, 68544, Note_on_c, 0, 73, 100
1, 68544, Note_on_c, 1, 52, 100
1, 68608, Note_on_c, 1, 52, 0
1, 68640, Note_on_c, 1, 64, 100
1, 68672, Note_on_c, 0, 73, 0
1, 68704, Note_on_c, 1, 64, 0
1, 68736, Note_on_c, 0, 74, 100
1, 68736, Note_on_c, 1, 50, 100
1, 68800, Note_on_c, 1, 50, 0
1, 68832, Note_on_c, 1, 62, 100
1, 68864, Note_on_c, 0, 74, 0
1, 68896, Note_on_c, 1, 62, 0
1, 68928, Note_on_c, 0, 76, 100
1, 68928, Note_on_c, 1, 48, 100
1, 68992, Note_on_c, 1, 48, 0
1, 69024, Note_on_c, 1, 60, 100
1, 69056, Note_on_c, 0, 76, 0
1, 69088, Note_on_c, 1, 60, 0
1, 69120, Note_on_c, 1, 50, 100
1, 69216, Note_on_c, 0, 78, 100
1, 69280, Note_on_c, 0, 78, 0
1, 69312, Note_on_c, 0, 76, 100
1, 69376, Note_on_c, 0, 76, 0
1, 69376, Note_on_c, 1, 50, 0
1, 69408, Note_on_c, 0, 74, 100
1, 69472, Note_on_c, 0, 74, 0
1, 69504, Note_on_c, 0, 73, 100
1, 69568, Note_on_c, 0, 73, 0
1, 69600, Note_on_c, 0, 71, 100
1, 69664, Note_on_c, 0, 71, 0
1, 69696, Note_on_c, 0, 69, 100
1, 69760, Note_on_c, 0, 69, 0
1, 69792, Note_on_c, 0, 71, 100
1, 69856, Note_on_c, 0, 71, 0
1, 69888, Note_on_c, 0, 67, 100
1, 69888, Note_on_c, 1, 52, 100
1, 69952, Note_on_c, 1, 52, 0
1, 69984, Note_on_c, 1, 64, 100
1, 70016, Note_on_c, 0, 67, 0
1, 70048, Note_on_c, 1, 64, 0
1, 70080, Note_on_c, 0, 71, 100
1, 70080, Note_on_c, 1, 50, 100
1, 70144, Note_on_c, 1, 50, 0
1, 70176, Note_on_c, 1, 62, 100
1, 70208, Note_on_c, 0, 71, 0
1, 70240, Note_on_c, 1, 62, 0
1, 70272, Note_on_c, 0, 73, 100
1, 70272, Note_on_c, 1, 49, 100
1, 70336, Note_on_c, 1, 49, 0
1, 70368, Note_on_c, 1, 61, 100
1, 70400, Note_on_c, 0, 73, 0
1, 70432, Note_on_c, 1, 61, 0
1, 70464, Note_on_c, 0, 74, 100
1, 70464, Note_on_c, 1, 47, 100
1, 70528, Note_on_c, 1, 47, 0
1, 70560, Note_on_c, 1, 59, 100
1, 70592, Note_on_c, 0, 74, 0
1, 70624, Note_on_c, 1, 59, 0
1, 70656, Note_on_c, 1, 45, 100
1, 70752, Note_on_c, 0, 76, 100
1, 70816, Note_on_c, 0, 76, 0
1, 70848, Note_on_c, 0, 74, 100
1, 70912, Note_on_c, 0, 74, 0
1, 70912, Note_on_c, 1, 45, 0
1, 70944, Note_on_c, 0, 73, 100
1, 71008, Note_on_c, 0, 73, 0
1, 71040, Note_on_c, 0, 71, 100
1, 71104, Note_on_c, 0, 71, 0
1, 71136, Note_on_c, 0, 69, 100
1, 71200, Note_on_c, 0, 69, 0
1, 71232, Note_on_c, 0, 71, 100
1, 71232, Note_on_c, 1, 49, 100
1, 71296, Note_on_c, 0, 71, 0
1, 71328, Note_on_c, 0, 67, 100
1, 71360, Note_on_c, 1, 49, 0
1, 71392, Note_on_c, 0, 67, 0
1, 71424, Note_on_c, 0, 66, 100
1, 71424, Note_on_c, 1, 50, 100
1, 71488, Note_on_c, 1, 50, 0
1, 71520, Note_on_c, 1, 57, 100
1, 71552, Note_on_c, 0, 66, 0
1, 71584, Note_on_c, 1, 57, 0
1, 71616, Note_on_c, 0, 74, 100
1, 71616, Note_on_c, 1, 54, 100
1, 71680, Note_on_c, 1, 54, 0
1, 71712, Note_on_c, 1, 57, 100
1, 71744, Note_on_c, 0, 74, 0
1, 71776, Note_on_c, 1, 57, 0
1, 71808, Note_on_c, 0, 73, 100
1, 71808, Note_on_c, 1, 50, 100
1, 71872, Note_on_c, 1, 50, 0
1, 71904, Note_on_c, 1, 57, 100
1, 71936, Note_on_c, 0, 73, 0
1, 71968, Note_on_c, 1, 57, 0
1, 72000, Note_on_c, 0, 81, 100
1, 72000, Note_on_c, 1, 55, 100
1, 72064, Note_on_c, 1, 55, 0
1, 72096, Note_on_c, 1, 57, 100
1, 72128, Note_on_c, 0, 81, 0
1, 72160, Note_on_c, 1, 57, 0
1, 72192, Note_on_c, 0, 78, 100
1, 72192, Note_on_c, 1, 50, 100
1, 72256, Note_on_c, 1, 50, 0
1, 72288, Note_on_c, 1, 57, 100
1, 72320, Note_on_c, 0, 78, 0
1, 72352, Note_on_c, 1, 57, 0
1, 72384, Note_on_c, 0, 74, 100
1, 72384, Note_on_c, 1, 54, 100
1, 72448, Note_on_c, 1, 54, 0
1, 72480, Note_on_c, 1, 57, 100
1, 72512, Note_on_c, 0, 74, 0
1, 72544, Note_on_c, 1, 57, 0
1, 72576, Note_on_c, 0, 73, 100
1, 72576, Note_on_c, 1, 50, 100
1, 72640, Note_on_c, 1, 50, 0
1, 72672, Note_on_c, 1, 57, 100
1, 72704, Note_on_c, 0, 73, 0
1, 72736, Note_on_c, 1, 57, 0
1, 72768, Note_on_c, 0, 67, 100
1, 72768, Note_on_c, 1, 55, 100
1, 72832, Note_on_c, 1, 55, 0
1, 72864, Note_on_c, 1, 57, 100
1, 72896, Note_on_c, 0, 67, 0
1, 72928, Note_on_c, 1, 57, 0
1, 72960, Note_on_c, 0, 66, 100
1, 72960, Note_on_c, 1, 50, 100
1, 73024, Note_on_c, 1, 50, 0
1, 73056, Note_on_c, 1, 57, 100
1, 73088, Note_on_c, 0, 66, 0
1, 73120, Note_on_c, 1, 57, 0
1, 73152, Note_on_c, 0, 74, 100
1, 73152, Note_on_c, 1, 54, 100
1, 73216, Note_on_c, 1, 54, 0
1, 73248, Note_on_c, 1, 57, 100
1, 73280, Note_on_c, 0, 74, 0
1, 73312, Note_on_c, 1, 57, 0
1, 73344, Note_on_c, 0, 73, 100
1, 73344, Note_on_c, 1, 50, 100
1, 73408, Note_on_c, 1, 50, 0
1, 73440, Note_on_c, 1, 57, 100
1, 73472, Note_on_c, 0, 73, 0
1, 73504, Note_on_c, 1, 57, 0
1, 73536, Note_on_c, 0, 81, 100
1, 73536, Note_on_c, 1, 55, 100
1, 73600, Note_on_c, 1, 55, 0
1, 73632, Note_on_c, 1, 57, 100
1, 73664, Note_on_c, 0, 81, 0
1, 73696, Note_on_c, 1, 57, 0
1, 73728, Note_on_c, 0, 78, 100
1, 73728, Note_on_c, 1, 50, 100
1, 73792, Note_on_c, 1, 50, 0
1, 73824, Note_on_c, 1, 57, 100
1, 73856, Note_on_c, 0, 78, 0
1, 73888, Note_on_c, 1, 57, 0
1, 73920, Note_on_c, 0, 74, 100
1, 73920, Note_on_c, 1, 54, 100
1, 73984, Note_on_c, 1, 54, 0
1, 74016, Note_on_c, 1, 57, 100
1, 74048, Note_on_c, 0, 74, 0
1, 74080, Note_on_c, 1, 57, 0
1, 74112, Note_on_c, 0, 73, 100
1, 74112, Note_on_c, 1, 50, 100
1, 74176, Note_on_c, 1, 50, 0
1, 74208, Note_on_c, 1, 57, 100
1, 74240, Note_on_c, 0, 73, 0
1, 74272, Note_on_c, 1, 57, 0
1, 74304, Note_on_c, 0, 67, 100
1, 74304, Note_on_c, 1, 55, 100
1, 74368, Note_on_c, 1, 55, 0
1, 74400, Note_on_c, 1, 57, 100
1, 74432, Note_on_c, 0, 67, 0
1, 74464, Note_on_c, 1, 57, 0
1, 74496, Note_on_c, 0, 66, 100
1, 74496, Note_on_c, 1, 50, 100
1, 74560, Note_on_c, 1, 50, 0
1, 74592, Note_on_c, 1, 57, 100
1, 74624, Note_on_c, 0, 66, 0
1, 74656, Note_on_c, 1, 57, 0
1, 74688, Note_on_c, 0, 74, 100
1, 74688, Note_on_c, 1, 54, 100
1, 74752, Note_on_c, 1, 54, 0
1, 74784, Note_on_c, 1, 57, 100
1, 74816, Note_on_c, 0, 74, 0
1, 74848, Note_on_c, 1, 57, 0
1, 74880, Note_on_c, 0, 72, 100
1, 74880, Note_on_c, 1, 54, 100
1, 74944, Note_on_c, 1, 54, 0
1, 74976, Note_on_c, 1, 62, 100
1, 75008, Note_on_c, 0, 72, 0
1, 75040, Note_on_c, 1, 62, 0
1, 75072, Note_on_c, 0, 69, 100
1, 75072, Note_on_c, 1, 57, 100
1, 75136, Note_on_c, 1, 57, 0
1, 75168, Note_on_c, 1, 62, 100
1, 75200, Note_on_c, 0, 69, 0
1, 75232, Note_on_c, 1, 62, 0
1, 75264, Note_on_c, 0, 70, 100
1, 75264, Note_on_c, 1, 55, 100
1, 75328, Note_on_c, 1, 55, 0
1, 75360, Note_on_c, 1, 62, 100
1, 75424, Note_on_c, 1, 62, 0
1, 75456, Note_on_c, 1, 59, 100
1, 75520, Note_on_c, 0, 70, 0
1, 75520, Note_on_c, 1, 59, 0
1, 75552, Note_on_c, 1, 62, 100
1, 75616, Note_on_c, 1, 62, 0
1, 75648, Note_on_c, 0, 71, 100
1, 75648, Note_on_c, 1, 55, 100
1, 75776, Note_on_c, 0, 71, 0
1, 75776, Note_on_c, 1, 55, 0
1, 75840, Note_on_c, 0, 83, 100
1, 75904, Note_on_c, 0, 83, 0
1, 75936, Note_on_c, 0, 79, 100
1, 76000, Note_on_c, 0, 79, 0
1, 76032, Note_on_c, 0, 81, 100
1, 76096, Note_on_c, 0, 81, 0
1, 76128, Note_on_c, 0, 78, 100
1, 76192, Note_on_c, 0, 78, 0
1, 76224, Note_on_c, 0, 79, 100
1, 76288, Note_on_c, 0, 79, 0
1, 76320, Note_on_c, 0, 76, 100
1, 76384, Note_on_c, 0, 76, 0
1, 76416, Note_on_c, 0, 78, 100
1, 76480, Note_on_c, 0, 78, 0
1, 76512, Note_on_c, 0, 74, 100
1, 76576, Note_on_c, 0, 74, 0
1, 76608, Note_on_c, 0, 76, 100
1, 76608, Note_on_c, 1, 57, 100
1, 76672, Note_on_c, 0, 76, 0
1, 76704, Note_on_c, 0, 73, 100
1, 76736, Note_on_c, 1, 57, 0
1, 76768, Note_on_c, 0, 73, 0
1, 76800, Note_on_c, 0, 74, 100
1, 76800, Note_on_c, 1, 59, 100
1, 76864, Note_on_c, 1, 59, 0
1, 76896, Note_on_c, 1, 68, 100
1, 76928, Note_on_c, 0, 74, 0
1, 76960, Note_on_c, 1, 68, 0
1, 76992, Note_on_c, 0, 86, 100
1, 76992, Note_on_c, 1, 62, 100
1, 77056, Note_on_c, 1, 62, 0
1, 77088, Note_on_c, 1, 68, 100
1, 77120, Note_on_c, 0, 86, 0
1, 77152, Note_on_c, 1, 68, 0
1, 77184, Note_on_c, 0, 86, 100
1, 77184, Note_on_c, 1, 59, 100
1, 77248, Note_on_c, 1, 59, 0
1, 77280, Note_on_c, 1, 68, 100
1, 77312, Note_on_c, 0, 86, 0
1, 77344, Note_on_c, 1, 68, 0
1, 77376, Note_on_c, 0, 86, 100
1, 77376, Note_on_c, 1, 62, 100
1, 77408, Note_on_c, 0, 86, 0
1, 77424, Note_on_c, 0, 88, 100
1, 77440, Note_on_c, 1, 62, 0
1, 77456, Note_on_c, 0, 88, 0
1, 77472, Note_on_c, 0, 86, 100
1, 77472, Note_on_c, 1, 68, 100
1, 77504, Note_on_c, 0, 86, 0
1, 77520, Note_on_c, 0, 84, 100
1, 77536, Note_on_c, 1, 68, 0
1, 77552, Note_on_c, 0, 84, 0
1, 77568, Note_on_c, 0, 84, 100
1, 77568, Note_on_c, 1, 57, 100
1, 77632, Note_on_c, 1, 57, 0
1, 77664, Note_on_c, 1, 69, 100
1, 77696, Note_on_c, 0, 84, 0
1, 77728, Note_on_c, 1, 69, 0
1, 77760, Note_on_c, 0, 79, 100
1, 77760, Note_on_c, 1, 61, 100
1, 77824, Note_on_c, 1, 61, 0
1, 77856, Note_on_c, 1, 69, 100
1, 77888, Note_on_c, 0, 79, 0
1, 77920, Note_on_c, 1, 69, 0
1, 77952, Note_on_c, 0, 79, 100
1, 77952, Note_on_c, 1, 57, 100
1, 78016, Note_on_c, 1, 57, 0
1, 78048, Note_on_c, 1, 69, 100
1, 78080, Note_on_c, 0, 79, 0
1, 78112, Note_on_c, 1, 69, 0
1, 78144, Note_on_c, 0, 79, 100
1, 78144, Note_on_c, 1, 61, 100
1, 78176, Note_on_c, 0, 79, 0
1, 78192, Note_on_c, 0, 81, 100
1, 78208, Note_on_c, 1, 61, 0
1, 78224, Note_on_c, 0, 81, 0
1, 78240, Note_on_c, 0, 79, 100
1, 78240, Note_on_c, 1, 69, 100
1, 78272, Note_on_c, 0, 79, 0
1, 78288, Note_on_c, 0, 78, 100
1, 78304, Note_on_c, 1, 69, 0
1, 78320, Note_on_c, 0, 78, 0
1, 78336, Note_on_c, 0, 78, 100
1, 78336, Note_on_c, 1, 62, 100
1, 78400, Note_on_c, 1, 62, 0
1, 78432, Note_on_c, 1, 69, 100
1, 78464, Note_on_c, 0, 78, 0
1, 78496, Note_on_c, 1, 69, 0
1, 78528, Note_on_c, 0, 72, 100
1, 78528, Note_on_c, 1, 66, 100
1, 78592, Note_on_c, 1, 66, 0
1, 78624, Note_on_c, 1, 69, 100
1, 78656, Note_on_c, 0, 72, 0
1, 78688, Note_on_c, 1, 69, 0
1, 78720, Note_on_c, 0, 72, 100
1, 78720, Note_on_c, 1, 62, 100
1, 78784, Note_on_c, 1, 62, 0
1, 78816, Note_on_c, 1, 69, 100
1, 78848, Note_on_c, 0, 72, 0
1, 78880, Note_on_c, 1, 69, 0
1, 78912, Note_on_c, 0, 72, 100
1, 78912, Note_on_c, 1, 66, 100
1, 78944, Note_on_c, 0, 72, 0
1, 78960, Note_on_c, 0, 74, 100
1, 78976, Note_on_c, 1, 66, 0
1, 78992, Note_on_c, 0, 74, 0
1, 79008, Note_on_c, 0, 72, 100
1, 79008, Note_on_c, 1, 69, 100
1, 79040, Note_on_c, 0, 72, 0
1, 79056, Note_on_c, 0, 71, 100
1, 79072, Note_on_c, 1, 69, 0
1, 79088, Note_on_c, 0, 71, 0
1, 79104, Note_on_c, 0, 71, 100
1, 79104, Note_on_c, 1, 67, 100
1, 79232, Note_on_c, 0, 71, 0
1, 79296, Note_on_c, 0, 82, 100
1, 79360, Note_on_c, 0, 82, 0
1, 79360, Note_on_c, 1, 67, 0
1, 79392, Note_on_c, 0, 83, 100
1, 79456, Note_on_c, 0, 83, 0
1, 79488, Note_on_c, 0, 81, 100
1, 79552, Note_on_c, 0, 81, 0
1, 79584, Note_on_c, 0, 79, 100
1, 79648, Note_on_c, 0, 79, 0
1, 79680, Note_on_c, 0, 78, 100
1, 79744, Note_on_c, 0, 78, 0
1, 79776, Note_on_c, 0, 76, 100
1, 79840, Note_on_c, 0, 76, 0
1, 79872, Note_on_c, 0, 74, 100
1, 80064, Note_on_c, 1, 54, 100
1, 80128, Note_on_c, 0, 74, 0
1, 80192, Note_on_c, 1, 54, 0
1, 80256, Note_on_c, 0, 76, 100
1, 80256, Note_on_c, 1, 55, 100
1, 80272, Note_on_c, 0, 76, 0
1, 80280, Note_on_c, 0, 78, 100
1, 80296, Note_on_c, 0, 78, 0
1, 80304, Note_on_c, 0, 76, 100
1, 80320, Note_on_c, 0, 76, 0
1, 80328, Note_on_c, 0, 78, 100
1, 80344, Note_on_c, 0, 78, 0
1, 80352, Note_on_c, 0, 76, 100
1, 80368, Note_on_c, 0, 76, 0
1, 80376, Note_on_c, 0, 78, 100
1, 80384, Note_on_c, 1, 55, 0
1, 80392, Note_on_c, 0, 78, 0
1, 80400, Note_on_c, 0, 76, 100
1, 80416, Note_on_c, 0, 76, 0
1, 80424, Note_on_c, 0, 78, 100
1, 80440, Note_on_c, 0, 78, 0
1, 80448, Note_on_c, 0, 76, 100
1, 80448, Note_on_c, 1, 57, 100
1, 80464, Note_on_c, 0, 76, 0
1, 80472, Note_on_c, 0, 78, 100
1, 80488, Note_on_c, 0, 78, 0
1, 80496, Note_on_c, 0, 76, 100
1, 80512, Note_on_c, 0, 76, 0
1, 80520, Note_on_c, 0, 78, 100
1, 80536, Note_on_c, 0, 78, 0
1, 80544, Note_on_c, 0, 76, 100
1, 80560, Note_on_c, 0, 76, 0
1, 80568, Note_on_c, 0, 78, 100
1, 80576, Note_on_c, 1, 57, 0
1, 80584, Note_on_c, 0, 78, 0
1, 80592, Note_on_c, 0, 76, 100
1, 80608, Note_on_c, 0, 76, 0
1, 80616, Note_on_c, 0, 78, 100
1, 80632, Note_on_c, 0, 78, 0
1, 80640, Note_on_c, 0, 74, 100
1, 80640, Note_on_c, 1, 59, 100
1, 80704, Note_on_c, 1, 59, 0
1, 80736, Note_on_c, 1, 68, 100
1, 80768, Note_on_c, 0, 74, 0
1, 80800, Note_on_c, 1, 68, 0
1, 80832, Note_on_c, 0, 86, 100
1, 80832, Note_on_c, 1, 62, 100
1, 80896, Note_on_c, 1, 62, 0
1, 80928, Note_on_c, 1, 68, 100
1, 80960, Note_on_c, 0, 86, 0
1, 80992, Note_on_c, 1, 68, 0
1, 81024, Note_on_c, 0, 86, 100
1, 81024, Note_on_c, 1, 59, 100
1, 81088, Note_on_c, 1, 59, 0
1, 81120, Note_on_c, 1, 68, 100
1, 81152, Note_on_c, 0, 86, 0
1, 81184, Note_on_c, 1, 68, 0
1, 81216, Note_on_c, 0, 86, 100
1, 81216, Note_on_c, 1, 62, 100
1, 81248, Note_on_c, 0, 86, 0
1, 81264, Note_on_c, 0, 88, 100
1, 81280, Note_on_c, 1, 62, 0
1, 81296, Note_on_c, 0, 88, 0
1, 81312, Note_on_c, 0, 86, 100
1, 81312, Note_on_c, 1, 68, 100
1, 81344, Note_on_c, 0, 86, 0
1, 81360, Note_on_c, 0, 84, 100
1, 81376, Note_on_c, 1, 68, 0
1, 81392, Note_on_c, 0, 84, 0
1, 81408, Note_on_c, 0, 84, 100
1, 81408, Note_on_c, 1, 57, 100
1, 81472, Note_on_c, 1, 57, 0
1, 81504, Note_on_c, 1, 69, 100
1, 81536, Note_on_c, 0, 84, 0
1, 81568, Note_on_c, 1, 69, 0
1, 81600, Note_on_c, 0, 79, 100
1, 81600, Note_on_c, 1, 61, 100
1, 81664, Note_on_c, 1, 61, 0
1, 81696, Note_on_c, 1, 69, 100
1, 81728, Note_on_c, 0, 79, 0
1, 81760, Note_on_c, 1, 69, 0
1, 81792, Note_on_c, 0, 79, 100
1, 81792, Note_on_c, 1, 57, 100
1, 81856, Note_on_c, 1, 57, 0
1, 81888, Note_on_c, 1, 69, 100
1, 81920, Note_on_c, 0, 79, 0
1, 81952, Note_on_c, 1, 69, 0
1, 81984, Note_on_c, 0, 79, 100
1, 81984, Note_on_c, 1, 61, 100
1, 82016, Note_on_c, 0, 79, 0
1, 82032, Note_on_c, 0, 81, 100
1, 82048, Note_on_c, 1, 61, 0
1, 82064, Note_on_c, 0, 81, 0
1, 82080, Note_on_c, 0, 79, 100
1, 82080, Note_on_c, 1, 69, 100
1, 82112, Note_on_c, 0, 79, 0
1, 82128, Note_on_c, 0, 78, 100
1, 82144, Note_on_c, 1, 69, 0
1, 82160, Note_on_c, 0, 78, 0
1, 82176, Note_on_c, 0, 78, 100
1, 82176, Note_on_c, 1, 62, 100
1, 82240, Note_on_c, 1, 62, 0
1, 82272, Note_on_c, 1, 69, 100
1, 82304, Note_on_c, 0, 78, 0
1, 82336, Note_on_c, 1, 69, 0
1, 82368, Note_on_c, 0, 72, 100
1, 82368, Note_on_c, 1, 66, 100
1, 82432, Note_on_c, 1, 66, 0
1, 82464, Note_on_c, 1, 69, 100
1, 82496, Note_on_c, 0, 72, 0
1, 82528, Note_on_c, 1, 69, 0
1, 82560, Note_on_c, 0, 72, 100
1, 82560, Note_on_c, 1, 62, 100
1, 82624, Note_on_c, 1, 62, 0
1, 82656, Note_on_c, 1, 69, 100
1, 82688, Note_on_c, 0, 72, 0
1, 82720, Note_on_c, 1, 69, 0
1, 82752, Note_on_c, 0, 72, 100
1, 82752, Note_on_c, 1, 66, 100
1, 82784, Note_on_c, 0, 72, 0
1, 82800, Note_on_c, 0, 74, 100
1, 82816, Note_on_c, 1, 66, 0
1, 82832, Note_on_c, 0, 74, 0
1, 82848, Note_on_c, 0, 72, 100
1, 82848, Note_on_c, 1, 69, 100
1, 82880, Note_on_c, 0, 72, 0
1, 82896, Note_on_c, 0, 71, 100
1, 82912, Note_on_c, 1, 69, 0
1, 82928, Note_on_c, 0, 71, 0
1, 82944, Note_on_c, 0, 71, 100
1, 82944, Note_on_c, 1, 67, 100
1, 83072, Note_on_c, 0, 71, 0
1, 83136, Note_on_c, 0, 82, 100
1, 83200, Note_on_c, 0, 82, 0
1, 83200, Note_on_c, 1, 67, 0
1, 83232, Note_on_c, 0, 83, 100
1, 83296, Note_on_c, 0, 83, 0
1, 83328, Note_on_c, 0, 81, 100
1, 83392, Note_on_c, 0, 81, 0
1, 83424, Note_on_c, 0, 79, 100
1, 83488, Note_on_c, 0, 79, 0
1, 83520, Note_on_c, 0, 78, 100
1, 83584, Note_on_c, 0, 78, 0
1, 83616, Note_on_c, 0, 76, 100
1, 83680, Note_on_c, 0, 76, 0
1, 83712, Note_on_c, 0, 74, 100
1, 83904, Note_on_c, 1, 54, 100
1, 83968, Note_on_c, 0, 74, 0
1, 84032, Note_on_c, 1, 54, 0
1, 84096, Note_on_c, 0, 76, 100
1, 84096, Note_on_c, 1, 55, 100
1, 84112, Note_on_c, 0, 76, 0
1, 84120, Note_on_c, 0, 78, 100
1, 84136, Note_on_c, 0, 78, 0
1, 84144, Note_on_c, 0, 76, 100
1, 84160, Note_on_c, 0, 76, 0
1, 84168, Note_on_c, 0, 78, 100
1, 84184, Note_on_c, 0, 78, 0
1, 84192, Note_on_c, 0, 76, 100
1, 84208, Note_on_c, 0, 76, 0
1, 84216, Note_on_c, 0, 78, 100
1, 84224, Note_on_c, 1, 55, 0
1, 84232, Note_on_c, 0, 78, 0
1, 84240, Note_on_c, 0, 76, 100
1, 84256, Note_on_c, 0, 76, 0
1, 84264, Note_on_c, 0, 78, 100
1, 84280, Note_on_c, 0, 78, 0
1, 84288, Note_on_c, 0, 76, 100
1, 84288, Note_on_c, 1, 57, 100
1, 84304, Note_on_c, 0, 76, 0
1, 84312, Note_on_c, 0, 78, 100
1, 84328, Note_on_c, 0, 78, 0
1, 84336, Note_on_c, 0, 76, 100
1, 84352, Note_on_c, 0, 76, 0
1, 84360, Note_on_c, 0, 78, 100
1, 84376, Note_on_c, 0, 78, 0
1, 84384, Note_on_c, 0, 76, 100
1, 84400, Note_on_c, 0, 76, 0
1, 84408, Note_on_c, 0, 78, 100
1, 84416, Note_on_c, 1, 57, 0
1, 84424, Note_on_c, 0, 78, 0
1, 84432, Note_on_c, 0, 76, 100
1, 84448, Note_on_c, 0, 76, 0
1, 84456, Note_on_c, 0, 78, 100
1, 84472, Note_on_c, 0, 78, 0
1, 84480, Note_on_c, 0, 78, 100
1, 84480, Note_on_c, 1, 50, 100
1, 84544, Note_on_c, 0, 78, 0
1, 84576, Note_on_c, 0, 74, 100
1, 84608, Note_on_c, 1, 50, 0
1, 84640, Note_on_c, 0, 74, 0
1, 84672, Note_on_c, 0, 86, 100
1, 84672, Note_on_c, 1, 54, 100
1, 84736, Note_on_c, 0, 86, 0
1, 84768, Note_on_c, 0, 81, 100
1, 84800, Note_on_c, 1, 54, 0
1, 84832, Note_on_c, 0, 81, 0
1, 84864, Note_on_c, 0, 83, 100
1, 84864, Note_on_c, 1, 55, 100
1, 84928, Note_on_c, 0, 83, 0
1, 84960, Note_on_c, 0, 78, 100
1, 85024, Note_on_c, 0, 78, 0
1, 85056, Note_on_c, 0, 79, 100
1, 85120, Note_on_c, 0, 79, 0
1, 85120, Note_on_c, 1, 55, 0
1, 85152, Note_on_c, 0, 76, 100
1, 85216, Note_on_c, 0, 76, 0
1, 85248, Note_on_c, 0, 74, 100
1, 85440, Note_on_c, 1, 54, 100
1, 85504, Note_on_c, 0, 74, 0
1, 85568, Note_on_c, 1, 54, 0
1, 85632, Note_on_c, 0, 76, 100
1, 85632, Note_on_c, 1, 55, 100
1, 85648, Note_on_c, 0, 76, 0
1, 85656, Note_on_c, 0, 78, 100
1, 85672, Note_on_c, 0, 78, 0
1, 85680, Note_on_c, 0, 76, 100
1, 85696, Note_on_c, 0, 76, 0
1, 85704, Note_on_c, 0, 78, 100
1, 85720, Note_on_c, 0, 78, 0
1, 85728, Note_on_c, 0, 76, 100
1, 85744, Note_on_c, 0, 76, 0
1, 85752, Note_on_c, 0, 78, 100
1, 85760, Note_on_c, 1, 55, 0
1, 85768, Note_on_c, 0, 78, 0
1, 85776, Note_on_c, 0, 76, 100
1, 85792, Note_on_c, 0, 76, 0
1, 85800, Note_on_c, 0, 78, 100
1, 85816, Note_on_c, 0, 78, 0
1, 85824, Note_on_c, 0, 76, 100
1, 85824, Note_on_c, 1, 57, 100
1, 85840, Note_on_c, 0, 76, 0
1, 85848, Note_on_c, 0, 78, 100
1, 85864, Note_on_c, 0, 78, 0
1, 85872, Note_on_c, 0, 76, 100
1, 85888, Note_on_c, 0, 76, 0
1, 85896, Note_on_c, 0, 78, 100
1, 85912, Note_on_c, 0, 78, 0
1, 85920, Note_on_c, 0, 76, 100
1, 85936, Note_on_c, 0, 76, 0
1, 85944, Note_on_c, 0, 78, 100
1, 85952, Note_on_c, 1, 57, 0
1, 85960, Note_on_c, 0, 78, 0
1, 85968, Note_on_c, 0, 76, 100
1, 85984, Note_on_c, 0, 76, 0
1, 85992, Note_on_c, 0, 78, 100
1, 86008, Note_on_c, 0, 78, 0
1, 86016, Note_on_c, 0, 74, 100
1, 86016, Note_on_c, 1, 50, 100
1, 86080, Note_on_c, 1, 50, 0
1, 86112, Note_on_c, 1, 62, 100
1, 86144, Note_on_c, 0, 74, 0
1, 86176, Note_on_c, 1, 62, 0
1, 86208, Note_on_c, 1, 50, 100
1, 86272, Note_on_c, 1, 50, 0
1, 86304, Note_on_c, 1, 62, 100
1, 86368, Note_on_c, 1, 62, 0
1, 86400, Note_on_c, 0, 79, 100
1, 86400, Note_on_c, 0, 73, 100
1, 86400, Note_on_c, 1, 50, 100
1, 86464, Note_on_c, 1, 50, 0
1, 86496, Note_on_c, 1, 62, 100
1, 86528, Note_on_c, 0, 79, 0
1, 86528, Note_on_c, 0, 73, 0
1, 86560, Note_on_c, 1, 62, 0
1, 86592, Note_on_c, 1, 50, 100
1, 86656, Note_on_c, 1, 50, 0
1, 86688, Note_on_c, 1, 62, 100
1, 86752, Note_on_c, 1, 62, 0
1, 86784, Note_on_c, 0, 78, 100
1, 86784, Note_on_c, 0, 74, 100
1, 86784, Note_on_c, 1, 50, 100
1, 86848, Note_on_c, 1, 50, 0
1, 86880, Note_on_c, 1, 62, 100
1, 86912, Note_on_c, 0, 78, 0
1, 86912, Note_on_c, 0, 74, 0
1, 86944, Note_on_c, 1, 62, 0
1, 86976, Note_on_c, 1, 50, 100
1, 87040, Note_on_c, 1, 50, 0
1, 87072, Note_on_c, 1, 62, 100
1, 87136, Note_on_c, 1, 62, 0
1, 87168, Note_on_c, 0, 73, 100
1, 87168, Note_on_c, 0, 67, 100
1, 87168, Note_on_c, 1, 50, 100
1, 87232, Note_on_c, 1, 50, 0
1, 87264, Note_on_c, 1, 62, 100
1, 87296, Note_on_c, 0, 73, 0
1, 87296, Note_on_c, 0, 67, 0
1, 87328, Note_on_c, 1, 62, 0
1, 87360, Note_on_c, 1, 50, 100
1, 87424, Note_on_c, 1, 50, 0
1, 87456, Note_on_c, 1, 62, 100
1, 87520, Note_on_c, 1, 62, 0
1, 87552, Note_on_c, 0, 74, 100
1, 87552, Note_on_c, 0, 66, 100
1, 87552, Note_on_c, 1, 50, 100
1, 87808, Note_on_c, 0, 74, 0
1, 87808, Note_on_c, 0, 66, 0
1, 87808, Note_on_c, 1, 50, 0
1, 88128, Note_on_c, 0, 62, 100
1, 88256, Note_on_c, 0, 62, 0
1, 88320, Note_on_c, 0, 65, 100
1, 88320, Note_on_c, 1, 50, 100
1, 88384, Note_on_c, 1, 50, 0
1, 88416, Note_on_c, 1, 57, 100
1, 88448, Note_on_c, 0, 65, 0
1, 88480, Note_on_c, 1, 57, 0
1, 88512, Note_on_c, 0, 69, 100
1, 88512, Note_on_c, 1, 54, 100
1, 88576, Note_on_c, 1, 54, 0
1, 88608, Note_on_c, 1, 57, 100
1, 88640, Note_on_c, 0, 69, 0
1, 88672, Note_on_c, 1, 57, 0
1, 88704, Note_on_c, 0, 74, 100
1, 88704, Note_on_c, 1, 50, 100
1, 88768, Note_on_c, 1, 50, 0
1, 88800, Note_on_c, 1, 57, 100
1, 88832, Note_on_c, 0, 74, 0
1, 88864, Note_on_c, 1, 57, 0
1, 88896, Note_on_c, 0, 77, 100
1, 88896, Note_on_c, 1, 54, 100
1, 88960, Note_on_c, 1, 54, 0
1, 88992, Note_on_c, 1, 57, 100
1, 89024, Note_on_c, 0, 77, 0
1, 89056, Note_on_c, 1, 57, 0
1, 89088, Note_on_c, 0, 68, 100
1, 89088, Note_on_c, 1, 50, 100
1, 89152, Note_on_c, 1, 50, 0
1, 89184, Note_on_c, 1, 59, 100
1, 89248, Note_on_c, 1, 59, 0
1, 89280, Note_on_c, 1, 56, 100
1, 89344, Note_on_c, 0, 68, 0
1, 89344, Note_on_c, 1, 56, 0
1, 89376, Note_on_c, 1, 59, 100
1, 89440, Note_on_c, 1, 59, 0
1, 89472, Note_on_c, 1, 50, 100
1, 89536, Note_on_c, 1, 50, 0
1, 89568, Note_on_c, 1, 59, 100
1, 89632, Note_on_c, 1, 59, 0
1, 89664, Note_on_c, 0, 64, 100
1, 89664, Note_on_c, 1, 56, 100
1, 89728, Note_on_c, 1, 56, 0
1, 89760, Note_on_c, 1, 59, 100
1, 89792, Note_on_c, 0, 64, 0
1, 89824, Note_on_c, 1, 59, 0
1, 89856, Note_on_c, 0, 68, 100
1, 89856, Note_on_c, 1, 50, 100
1, 89920, Note_on_c, 1, 50, 0
1, 89952, Note_on_c, 1, 59, 100
1, 89984, Note_on_c, 0, 68, 0
1, 90016, Note_on_c, 1, 59, 0
1, 90048, Note_on_c, 0, 71, 100
1, 90048, Note_on_c, 1, 56, 100
1, 90112, Note_on_c, 1, 56, 0
1, 90144, Note_on_c, 1, 59, 100
1, 90176, Note_on_c, 0, 71, 0
1, 90208, Note_on_c, 1, 59, 0
1, 90240, Note_on_c, 0, 76, 100
1, 90240, Note_on_c, 1, 50, 100
1, 90304, Note_on_c, 1, 50, 0
1, 90336, Note_on_c, 1, 59, 100
1, 90368, Note_on_c, 0, 76, 0
1, 90400, Note_on_c, 1, 59, 0
1, 90432, Note_on_c, 0, 80, 100
1, 90432, Note_on_c, 1, 56, 100
1, 90496, Note_on_c, 1, 56, 0
1, 90528, Note_on_c, 1, 59, 100
1, 90560, Note_on_c, 0, 80, 0
1, 90592, Note_on_c, 1, 59, 0
1, 90624, Note_on_c, 0, 81, 100
1, 90624, Note_on_c, 1, 48, 100
1, 90688, Note_on_c, 1, 48, 0
1, 90720, Note_on_c, 1, 57, 100
1, 90784, Note_on_c, 1, 57, 0
1, 90816, Note_on_c, 1, 52, 100
1, 90880, Note_on_c, 0, 81, 0
1, 90880, Note_on_c, 1, 52, 0
1, 90912, Note_on_c, 1, 57, 100
1, 90976, Note_on_c, 1, 57, 0
1, 91008, Note_on_c, 1, 48, 100
1, 91072, Note_on_c, 1, 48, 0
1, 91104, Note_on_c, 1, 57, 100
1, 91168, Note_on_c, 1, 57, 0
1, 91200, Note_on_c, 0, 69, 100
1, 91200, Note_on_c, 1, 52, 100
1, 91264, Note_on_c, 1, 52, 0
1, 91296, Note_on_c, 1, 57, 100
1, 91328, Note_on_c, 0, 69, 0
1, 91360, Note_on_c, 1, 57, 0
1, 91392, Note_on_c, 0, 72, 100
1, 91392, Note_on_c, 1, 48, 100
1, 91456, Note_on_c, 1, 48, 0
1, 91488, Note_on_c, 1, 57, 100
1, 91520, Note_on_c, 0, 72, 0
1, 91552, Note_on_c, 1, 57, 0
1, 91584, Note_on_c, 0, 76, 100
1, 91584, Note_on_c, 1, 52, 100
1, 91648, Note_on_c, 1, 52, 0
1, 91680, Note_on_c, 1, 57, 100
1, 91712, Note_on_c, 0, 76, 0
1, 91744, Note_on_c, 1, 57, 0
1, 91776, Note_on_c, 0, 81, 100
1, 91776, Note_on_c, 1, 48, 100
1, 91840, Note_on_c, 1, 48, 0
1, 91872, Note_on_c, 1, 57, 100
1, 91904, Note_on_c, 0, 81, 0
1, 91936, Note_on_c, 1, 57, 0
1, 91968, Note_on_c, 0, 84, 100
1, 91968, Note_on_c, 1, 52, 100
1, 92032, Note_on_c, 1, 52, 0
1, 92064, Note_on_c, 1, 57, 100
1, 92096, Note_on_c, 0, 84, 0
1, 92128, Note_on_c, 1, 57, 0
1, 92160, Note_on_c, 0, 75, 100
1, 92160, Note_on_c, 1, 47, 100
1, 92224, Note_on_c, 1, 47, 0
1, 92256, Note_on_c, 1, 57, 100
1, 92320, Note_on_c, 1, 57, 0
1, 92352, Note_on_c, 1, 54, 100
1, 92416, Note_on_c, 0, 75, 0
1, 92416, Note_on_c, 1, 54, 0
1, 92448, Note_on_c, 1, 57, 100
1, 92512, Note_on_c, 1, 57, 0
1, 92544, Note_on_c, 1, 47, 100
1, 92608, Note_on_c, 1, 47, 0
1, 92640, Note_on_c, 1, 57, 100
1, 92704, Note_on_c, 1, 57, 0
1, 92736, Note_on_c, 0, 81, 100
1, 92736, Note_on_c, 1, 54, 100
1, 92800, Note_on_c, 1, 54, 0
1, 92832, Note_on_c, 1, 57, 100
1, 92864, Note_on_c, 0, 81, 0
1, 92896, Note_on_c, 1, 57, 0
1, 92928, Note_on_c, 0, 78, 100
1, 92928, Note_on_c, 1, 51, 100
1, 92992, Note_on_c, 1, 51, 0
1, 93024, Note_on_c, 1, 59, 100
1, 93056, Note_on_c, 0, 78, 0
1, 93088, Note_on_c, 1, 59, 0
1, 93120, Note_on_c, 0, 74, 100
1, 93120, Note_on_c, 1, 54, 100
1, 93184, Note_on_c, 1, 54, 0
1, 93216, Note_on_c, 1, 59, 100
1, 93248, Note_on_c, 0, 74, 0
1, 93280, Note_on_c, 1, 59, 0
1, 93312, Note_on_c, 0, 71, 100
1, 93312, Note_on_c, 1, 51, 100
1, 93376, Note_on_c, 1, 51, 0
1, 93408, Note_on_c, 1, 59, 100
1, 93440, Note_on_c, 0, 71, 0
1, 93472, Note_on_c, 1, 59, 0
1, 93504, Note_on_c, 0, 69, 100
1, 93504, Note_on_c, 1, 54, 100
1, 93568, Note_on_c, 1, 54, 0
1, 93600, Note_on_c, 1, 59, 100
1, 93632, Note_on_c, 0, 69, 0
1, 93664, Note_on_c, 1, 59, 0
1, 93696, Note_on_c, 0, 67, 100
1, 93696, Note_on_c, 1, 52, 100
1, 93760, Note_on_c, 1, 52, 0
1, 93792, Note_on_c, 1, 59, 100
1, 93856, Note_on_c, 1, 59, 0
1, 93888, Note_on_c, 1, 55, 100
1, 93952, Note_on_c, 0, 67, 0
1, 93952, Note_on_c, 1, 55, 0
1, 93984, Note_on_c, 1, 59, 100
1, 94048, Note_on_c, 1, 59, 0
1, 94080, Note_on_c, 1, 52, 100
1, 94144, Note_on_c, 1, 52, 0
1, 94176, Note_on_c, 1, 59, 100
1, 94240, Note_on_c, 1, 59, 0
1, 94272, Note_on_c, 0, 64, 100
1, 94272, Note_on_c, 1, 55, 100
1, 94336, Note_on_c, 1, 55, 0
1, 94368, Note_on_c, 1, 59, 100
1, 94400, Note_on_c, 0, 64, 0
1, 94432, Note_on_c, 1, 59, 0
1, 94464, Note_on_c, 0, 67, 100
1, 94464, Note_on_c, 1, 52, 100
1, 94528, Note_on_c, 1, 52, 0
1, 94560, Note_on_c, 1, 59, 100
1, 94592, Note_on_c, 0, 67, 0
1, 94624, Note_on_c, 1, 59, 0
1, 94656, Note_on_c, 0, 71, 100
1, 94656, Note_on_c, 1, 55, 100
1, 94720, Note_on_c, 1, 55, 0
1, 94752, Note_on_c, 1, 59, 100
1, 94784, Note_on_c, 0, 71, 0
1, 94816, Note_on_c, 1, 59, 0
1, 94848, Note_on_c, 0, 76, 100
1, 94848, Note_on_c, 1, 52, 100
1, 94912, Note_on_c, 1, 52, 0
1, 94944, Note_on_c, 1, 59, 100
1, 94976, Note_on_c, 0, 76, 0
1, 95008, Note_on_c, 1, 59, 0
1, 95040, Note_on_c, 0, 79, 100
1, 95040, Note_on_c, 1, 55, 100
1, 95104, Note_on_c, 1, 55, 0
1, 95136, Note_on_c, 1, 59, 100
1, 95168, Note_on_c, 0, 79, 0
1, 95200, Note_on_c, 1, 59, 0
1, 95232, Note_on_c, 0, 78, 100
1, 95232, Note_on_c, 1, 51, 100
1, 95296, Note_on_c, 1, 51, 0
1, 95328, Note_on_c, 1, 59, 100
1, 95392, Note_on_c, 1, 59, 0
1, 95424, Note_on_c, 1, 54, 100
1, 95488, Note_on_c, 0, 78, 0
1, 95488, Note_on_c, 1, 54, 0
1, 95520, Note_on_c, 1, 59, 100
1, 95584, Note_on_c, 1, 59, 0
1, 95616, Note_on_c, 1, 51, 100
1, 95680, Note_on_c, 1, 51, 0
1, 95712, Note_on_c, 1, 59, 100
1, 95776, Note_on_c, 1, 59, 0
1, 95808, Note_on_c, 0, 66, 100
1, 95808, Note_on_c, 1, 54, 100
1, 95872, Note_on_c, 1, 54, 0
1, 95904, Note_on_c, 1, 59, 100
1, 95936, Note_on_c, 0, 66, 0
1, 95968, Note_on_c, 1, 59, 0
1, 96000, Note_on_c, 0, 69, 100
1, 96000, Note_on_c, 1, 51, 100
1, 96064, Note_on_c, 1, 51, 0
1, 96096, Note_on_c, 1, 59, 100
1, 96128, Note_on_c, 0, 69, 0
1, 96160, Note_on_c, 1, 59, 0
1, 96192, Note_on_c, 0, 74, 100
1, 96192, Note_on_c, 1, 54, 100
1, 96256, Note_on_c, 1, 54, 0
1, 96288, Note_on_c, 1, 59, 100
1, 96320, Note_on_c, 0, 74, 0
1, 96352, Note_on_c, 1, 59, 0
1, 96384, Note_on_c, 0, 78, 100
1, 96384, Note_on_c, 1, 51, 100
1, 96448, Note_on_c, 1, 51, 0
1, 96480, Note_on_c, 1, 59, 100
1, 96512, Note_on_c, 0, 78, 0
1, 96544, Note_on_c, 1, 59, 0
1, 96576, Note_on_c, 0, 81, 100
1, 96576, Note_on_c, 1, 54, 100
1, 96640, Note_on_c, 1, 54, 0
1, 96672, Note_on_c, 1, 59, 100
1, 96704, Note_on_c, 0, 81, 0
1, 96736, Note_on_c, 1, 59, 0
1, 96768, Note_on_c, 0, 79, 100
1, 96768, Note_on_c, 1, 52, 100
1, 96832, Note_on_c, 1, 52, 0
1, 96864, Note_on_c, 1, 59, 100
1, 96928, Note_on_c, 1, 59, 0
1, 96960, Note_on_c, 1, 55, 100
1, 97024, Note_on_c, 0, 79, 0
1, 97024, Note_on_c, 1, 55, 0
1, 97056, Note_on_c, 1, 59, 100
1, 97120, Note_on_c, 1, 59, 0
1, 97152, Note_on_c, 1, 52, 100
1, 97216, Note_on_c, 1, 52, 0
1, 97248, Note_on_c, 1, 59, 100
1, 97312, Note_on_c, 1, 59, 0
1, 97344, Note_on_c, 0, 64, 100
1, 97344, Note_on_c, 1, 55, 100
1, 97408, Note_on_c, 1, 55, 0
1, 97440, Note_on_c, 1, 59, 100
1, 97472, Note_on_c, 0, 64, 0
1, 97504, Note_on_c, 1, 59, 0
1, 97536, Note_on_c, 0, 67, 100
1, 97536, Note_on_c, 1, 52, 100
1, 97600, Note_on_c, 1, 52, 0
1, 97632, Note_on_c, 1, 59, 100
1, 97664, Note_on_c, 0, 67, 0
1, 97696, Note_on_c, 1, 59, 0
1, 97728, Note_on_c, 0, 71, 100
1, 97728, Note_on_c, 1, 55, 100
1, 97792, Note_on_c, 1, 55, 0
1, 97824, Note_on_c, 1, 59, 100
1, 97856, Note_on_c, 0, 71, 0
1, 97888, Note_on_c, 1, 59, 0
1, 97920, Note_on_c, 0, 76, 100
1, 97920, Note_on_c, 1, 52, 100
1, 97984, Note_on_c, 1, 52, 0
1, 98016, Note_on_c, 1, 59, 100
1, 98048, Note_on_c, 0, 76, 0
1, 98080, Note_on_c, 1, 59, 0
1, 98112, Note_on_c, 0, 79, 100
1, 98112, Note_on_c, 1, 55, 100
1, 98176, Note_on_c, 1, 55, 0
1, 98208, Note_on_c, 1, 59, 100
1, 98240, Note_on_c, 0, 79, 0
1, 98272, Note_on_c, 1, 59, 0
1, 98304, Note_on_c, 0, 70, 100
1, 98304, Note_on_c, 1, 48, 100
1, 98368, Note_on_c, 1, 48, 0
1, 98400, Note_on_c, 1, 58, 100
1, 98464, Note_on_c, 1, 58, 0
1, 98496, Note_on_c, 1, 52, 100
1, 98560, Note_on_c, 0, 70, 0
1, 98560, Note_on_c, 1, 52, 0
1, 98592, Note_on_c, 1, 58, 100
1, 98656, Note_on_c, 1, 58, 0
1, 98688, Note_on_c, 1, 48, 100
1, 98752, Note_on_c, 1, 48, 0
1, 98784, Note_on_c, 1, 58, 100
1, 98848, Note_on_c, 1, 58, 0
1, 98880, Note_on_c, 0, 79, 100
1, 98880, Note_on_c, 1, 52, 100
1, 98944, Note_on_c, 1, 52, 0
1, 98976, Note_on_c, 1, 58, 100
1, 99008, Note_on_c, 0, 79, 0
1, 99040, Note_on_c, 1, 58, 0
1, 99072, Note_on_c, 0, 78, 100
1, 99072, Note_on_c, 1, 48, 100
1, 99088, Note_on_c, 0, 78, 0
1, 99096, Note_on_c, 0, 79, 100
1, 99112, Note_on_c, 0, 79, 0
1, 99120, Note_on_c, 0, 78, 100
1, 99136, Note_on_c, 0, 78, 0
1, 99136, Note_on_c, 1, 48, 0
1, 99144, Note_on_c, 0, 79, 100
1, 99160, Note_on_c, 0, 79, 0
1, 99168, Note_on_c, 0, 78, 100
1, 99168, Note_on_c, 1, 58, 100
1, 99184, Note_on_c, 0, 78, 0
1, 99192, Note_on_c, 0, 79, 100
1, 99208, Note_on_c, 0, 79, 0
1, 99216, Note_on_c, 0, 78, 100
1, 99232, Note_on_c, 0, 78, 0
1, 99232, Note_on_c, 1, 58, 0
1, 99240, Note_on_c, 0, 79, 100
1, 99256, Note_on_c, 0, 79, 0
1, 99264, Note_on_c, 0, 76, 100
1, 99264, Note_on_c, 1, 52, 100
1, 99328, Note_on_c, 1, 52, 0
1, 99360, Note_on_c, 1, 58, 100
1, 99392, Note_on_c, 0, 76, 0
1, 99424, Note_on_c, 1, 58, 0
1, 99456, Note_on_c, 0, 75, 100
1, 99456, Note_on_c, 1, 48, 100
1, 99520, Note_on_c, 1, 48, 0
1, 99552, Note_on_c, 1, 58, 100
1, 99584, Note_on_c, 0, 75, 0
1, 99616, Note_on_c, 1, 58, 0
1, 99648, Note_on_c, 0, 76, 100
1, 99648, Note_on_c, 1, 52, 100
1, 99712, Note_on_c, 1, 52, 0
1, 99744, Note_on_c, 1, 58, 100
1, 99776, Note_on_c, 0, 76, 0
1, 99808, Note_on_c, 1, 58, 0
1, 99840, Note_on_c, 0, 75, 100
1, 99840, Note_on_c, 1, 47, 100
1, 99904, Note_on_c, 1, 47, 0
1, 99936, Note_on_c, 1, 57, 100
1, 99968, Note_on_c, 0, 75, 0
1, 100000, Note_on_c, 1, 57, 0
1, 100032, Note_on_c, 0, 84, 100
1, 100032, Note_on_c, 1, 51, 100
1, 100096, Note_on_c, 1, 51, 0
1, 100128, Note_on_c, 1, 57, 100
1, 100160, Note_on_c, 0, 84, 0
1, 100192, Note_on_c, 1, 57, 0
1, 100224, Note_on_c, 0, 83, 100
1, 100224, Note_on_c, 1, 47, 100
1, 100240, Note_on_c, 0, 83, 0
1, 100248, Note_on_c, 0, 84, 100
1, 100264, Note_on_c, 0, 84, 0
1, 100272, Note_on_c, 0, 83, 100
1, 100288, Note_on_c, 0, 83, 0
1, 100288, Note_on_c, 1, 47, 0
1, 100296, Note_on_c, 0, 84, 100
1, 100312, Note_on_c, 0, 84, 0
1, 100320, Note_on_c, 0, 83, 100
1, 100320, Note_on_c, 1, 57, 100
1, 100336, Note_on_c, 0, 83, 0
1, 100344, Note_on_c, 0, 84, 100
1, 100360, Note_on_c, 0, 84, 0
1, 100368, Note_on_c, 0, 83, 100
1, 100384, Note_on_c, 0, 83, 0
1, 100384, Note_on_c, 1, 57, 0
1, 100392, Note_on_c, 0, 84, 100
1, 100408, Note_on_c, 0, 84, 0
1, 100416, Note_on_c, 0, 81, 100
1, 100416, Note_on_c, 1, 51, 100
1, 100480, Note_on_c, 1, 51, 0
1, 100512, Note_on_c, 1, 57, 100
1, 100544, Note_on_c, 0, 81, 0
1, 100576, Note_on_c, 1, 57, 0
1, 100608, Note_on_c, 0, 80, 100
1, 100608, Note_on_c, 1, 52, 100
1, 100624, Note_on_c, 0, 80, 0
1, 100632, Note_on_c, 0, 81, 100
1, 100648, Note_on_c, 0, 81, 0
1, 100656, Note_on_c, 0, 80, 100
1, 100672, Note_on_c, 0, 80, 0
1, 100672, Note_on_c, 1, 52, 0
1, 100680, Note_on_c, 0, 81, 100
1, 100696, Note_on_c, 0, 81, 0
1, 100704, Note_on_c, 0, 80, 100
1, 100704, Note_on_c, 1, 62, 100
1, 100720, Note_on_c, 0, 80, 0
1, 100728, Note_on_c, 0, 81, 100
1, 100744, Note_on_c, 0, 81, 0
1, 100752, Note_on_c, 0, 80, 100
1, 100768, Note_on_c, 0, 80, 0
1, 100768, Note_on_c, 1, 62, 0
1, 100776, Note_on_c, 0, 81, 100
1, 100792, Note_on_c, 0, 81, 0
1, 100800, Note_on_c, 0, 78, 100
1, 100800, Note_on_c, 1, 56, 100
1, 100864, Note_on_c, 1, 56, 0
1, 100896, Note_on_c, 1, 62, 100
1, 100928, Note_on_c, 0, 78, 0
1, 100960, Note_on_c, 1, 62, 0
1, 100992, Note_on_c, 0, 76, 100
1, 100992, Note_on_c, 1, 52, 100
1, 101056, Note_on_c, 1, 52, 0
1, 101088, Note_on_c, 1, 62, 100
1, 101120, Note_on_c, 0, 76, 0
1, 101152, Note_on_c, 1, 62, 0
1, 101184, Note_on_c, 0, 74, 100
1, 101184, Note_on_c, 1, 56, 100
1, 101248, Note_on_c, 1, 56, 0
1, 101280, Note_on_c, 1, 62, 100
1, 101312, Note_on_c, 0, 74, 0
1, 101344, Note_on_c, 1, 62, 0
1, 101376, Note_on_c, 0, 73, 100
1, 101376, Note_on_c, 1, 57, 100
1, 101440, Note_on_c, 1, 57, 0
1, 101472, Note_on_c, 1, 67, 100
1, 101504, Note_on_c, 0, 73, 0
1, 101536, Note_on_c, 1, 67, 0
1, 101568, Note_on_c, 0, 82, 100
1, 101568, Note_on_c, 1, 61, 100
1, 101632, Note_on_c, 1, 61, 0
1, 101664, Note_on_c, 1, 67, 100
1, 101696, Note_on_c, 0, 82, 0
1, 101728, Note_on_c, 1, 67, 0
1, 101760, Note_on_c, 0, 81, 100
1, 101760, Note_on_c, 1, 57, 100
1, 101776, Note_on_c, 0, 81, 0
1, 101784, Note_on_c, 0, 82, 100
1, 101800, Note_on_c, 0, 82, 0
1, 101808, Note_on_c, 0, 81, 100
1, 101824, Note_on_c, 0, 81, 0
1, 101824, Note_on_c, 1, 57, 0
1, 101832, Note_on_c, 0, 82, 100
1, 101848, Note_on_c, 0, 82, 0
1, 101856, Note_on_c, 0, 81, 100
1, 101856, Note_on_c, 1, 67, 100
1, 101872, Note_on_c, 0, 81, 0
1, 101880, Note_on_c, 0, 82, 100
1, 101896, Note_on_c, 0, 82, 0
1, 101904, Note_on_c, 0, 81, 100
1, 101920, Note_on_c, 0, 81, 0
1, 101920, Note_on_c, 1, 67, 0
1, 101928, Note_on_c, 0, 82, 100
1, 101944, Note_on_c, 0, 82, 0
1, 101952, Note_on_c, 0, 79, 100
1, 101952, Note_on_c, 1, 61, 100
1, 102016, Note_on_c, 1, 61, 0
1, 102048, Note_on_c, 1, 67, 100
1, 102080, Note_on_c, 0, 79, 0
1, 102112, Note_on_c, 1, 67, 0
1, 102144, Note_on_c, 0, 78, 100
1, 102144, Note_on_c, 1, 60, 100
1, 102208, Note_on_c, 1, 60, 0
1, 102240, Note_on_c, 1, 69, 100
1, 102272, Note_on_c, 0, 78, 0
1, 102304, Note_on_c, 1, 69, 0
1, 102336, Note_on_c, 0, 81, 100
1, 102336, Note_on_c, 1, 66, 100
1, 102400, Note_on_c, 1, 66, 0
1, 102432, Note_on_c, 1, 69, 100
1, 102464, Note_on_c, 0, 81, 0
1, 102496, Note_on_c, 1, 69, 0
1, 102528, Note_on_c, 0, 86, 100
1, 102528, Note_on_c, 1, 60, 100
1, 102592, Note_on_c, 1, 60, 0
1, 102624, Note_on_c, 1, 69, 100
1, 102656, Note_on_c, 0, 86, 0
1, 102688, Note_on_c, 1, 69, 0
1, 102720, Note_on_c, 0, 78, 100
1, 102720, Note_on_c, 1, 66, 100
1, 102784, Note_on_c, 1, 66, 0
1, 102816, Note_on_c, 1, 69, 100
1, 102848, Note_on_c, 0, 78, 0
1, 102880, Note_on_c, 1, 69, 0
1, 102912, Note_on_c, 0, 79, 100
1, 102912, Note_on_c, 1, 59, 100
1, 102976, Note_on_c, 1, 59, 0
1, 103008, Note_on_c, 1, 67, 100
1, 103040, Note_on_c, 0, 79, 0
1, 103072, Note_on_c, 1, 67, 0
1, 103104, Note_on_c, 0, 83, 100
1, 103104, Note_on_c, 1, 62, 100
1, 103168, Note_on_c, 1, 62, 0
1, 103200, Note_on_c, 1, 67, 100
1, 103232, Note_on_c, 0, 83, 0
1, 103264, Note_on_c, 1, 67, 0
1, 103296, Note_on_c, 0, 86, 100
1, 103296, Note_on_c, 1, 59, 100
1, 103360, Note_on_c, 1, 59, 0
1, 103392, Note_on_c, 1, 67, 100
1, 103424, Note_on_c, 0, 86, 0
1, 103456, Note_on_c, 1, 67, 0
1, 103488, Note_on_c, 0, 79, 100
1, 103488, Note_on_c, 1, 62, 100
1, 103552, Note_on_c, 1, 62, 0
1, 103584, Note_on_c, 1, 67, 100
1, 103616, Note_on_c, 0, 79, 0
1, 103648, Note_on_c, 1, 67, 0
1, 103680, Note_on_c, 0, 78, 100
1, 103680, Note_on_c, 1, 60, 100
1, 103744, Note_on_c, 1, 60, 0
1, 103776, Note_on_c, 1, 69, 100
1, 103808, Note_on_c, 0, 78, 0
1, 103840, Note_on_c, 1, 69, 0
1, 103872, Note_on_c, 0, 81, 100
1, 103872, Note_on_c, 1, 66, 100
1, 103936, Note_on_c, 1, 66, 0
1, 103968, Note_on_c, 1, 69, 100
1, 104000, Note_on_c, 0, 81, 0
1, 104032, Note_on_c, 1, 69, 0
1, 104064, Note_on_c, 0, 86, 100
1, 104064, Note_on_c, 1, 60, 100
1, 104128, Note_on_c, 1, 60, 0
1, 104160, Note_on_c, 1, 69, 100
1, 104192, Note_on_c, 0, 86, 0
1, 104224, Note_on_c, 1, 69, 0
1, 104256, Note_on_c, 0, 78, 100
1, 104256, Note_on_c, 1, 66, 100
1, 104320, Note_on_c, 1, 66, 0
1, 104352, Note_on_c, 1, 69, 100
1, 104384, Note_on_c, 0, 78, 0
1, 104416, Note_on_c, 1, 69, 0
1, 104448, Note_on_c, 0, 79, 100
1, 104448, Note_on_c, 1, 58, 100
1, 104512, Note_on_c, 1, 58, 0
1, 104544, Note_on_c, 1, 67, 100
1, 104576, Note_on_c, 0, 79, 0
1, 104608, Note_on_c, 1, 67, 0
1, 104640, Note_on_c, 0, 82, 100
1, 104640, Note_on_c, 1, 62, 100
1, 104704, Note_on_c, 1, 62, 0
1, 104736, Note_on_c, 1, 67, 100
1, 104768, Note_on_c, 0, 82, 0
1, 104800, Note_on_c, 1, 67, 0
1, 104832, Note_on_c, 0, 86, 100
1, 104832, Note_on_c, 1, 58, 100
1, 104896, Note_on_c, 1, 58, 0
1, 104928, Note_on_c, 1, 67, 100
1, 104960, Note_on_c, 0, 86, 0
1, 104992, Note_on_c, 1, 67, 0
1, 105024, Note_on_c, 0, 79, 100
1, 105024, Note_on_c, 1, 62, 100
1, 105088, Note_on_c, 1, 62, 0
1, 105120, Note_on_c, 1, 67, 100
1, 105152, Note_on_c, 0, 79, 0
1, 105184, Note_on_c, 1, 67, 0
1, 105216, Note_on_c, 0, 75, 100
1, 105216, Note_on_c, 1, 60, 100
1, 105280, Note_on_c, 1, 60, 0
1, 105312, Note_on_c, 1, 67, 100
1, 105344, Note_on_c, 0, 75, 0
1, 105376, Note_on_c, 1, 67, 0
1, 105408, Note_on_c, 0, 86, 100
1, 105408, Note_on_c, 1, 63, 100
1, 105472, Note_on_c, 1, 63, 0
1, 105504, Note_on_c, 1, 67, 100
1, 105536, Note_on_c, 0, 86, 0
1, 105568, Note_on_c, 1, 67, 0
1, 105600, Note_on_c, 0, 84, 100
1, 105600, Note_on_c, 1, 57, 100
1, 105664, Note_on_c, 1, 57, 0
1, 105696, Note_on_c, 1, 65, 100
1, 105728, Note_on_c, 0, 84, 0
1, 105760, Note_on_c, 1, 65, 0
1, 105792, Note_on_c, 0, 75, 100
1, 105792, Note_on_c, 1, 60, 100
1, 105856, Note_on_c, 1, 60, 0
1, 105888, Note_on_c, 1, 65, 100
1, 105920, Note_on_c, 0, 75, 0
1, 105952, Note_on_c, 1, 65, 0
1, 105984, Note_on_c, 0, 74, 100
1, 105984, Note_on_c, 1, 58, 100
1, 106048, Note_on_c, 1, 58, 0
1, 106080, Note_on_c, 1, 65, 100
1, 106112, Note_on_c, 0, 74, 0
1, 106144, Note_on_c, 1, 65, 0
1, 106176, Note_on_c, 0, 84, 100
1, 106176, Note_on_c, 1, 62, 100
1, 106240, Note_on_c, 1, 62, 0
1, 106272, Note_on_c, 1, 65, 100
1, 106304, Note_on_c, 0, 84, 0
1, 106336, Note_on_c, 1, 65, 0
1, 106368, Note_on_c, 0, 82, 100
1, 106368, Note_on_c, 1, 55, 100
1, 106432, Note_on_c, 1, 55, 0
1, 106464, Note_on_c, 1, 63, 100
1, 106496, Note_on_c, 0, 82, 0
1, 106528, Note_on_c, 1, 63, 0
1, 106560, Note_on_c, 0, 74, 100
1, 106560, Note_on_c, 1, 58, 100
1, 106624, Note_on_c, 1, 58, 0
1, 106656, Note_on_c, 1, 63, 100
1, 106688, Note_on_c, 0, 74, 0
1, 106720, Note_on_c, 1, 63, 0
1, 106752, Note_on_c, 0, 72, 100
1, 106752, Note_on_c, 1, 57, 100
1, 106816, Note_on_c, 1, 57, 0
1, 106848, Note_on_c, 1, 63, 100
1, 106880, Note_on_c, 0, 72, 0
1, 106912, Note_on_c, 1, 63, 0
1, 106944, Note_on_c, 0, 82, 100
1, 106944, Note_on_c, 1, 60, 100
1, 107008, Note_on_c, 1, 60, 0
1, 107040, Note_on_c, 1, 63, 100
1, 107072, Note_on_c, 0, 82, 0
1, 107104, Note_on_c, 1, 63, 0
1, 107136, Note_on_c, 0, 81, 100
1, 107136, Note_on_c, 1, 54, 100
1, 107200, Note_on_c, 1, 54, 0
1, 107232, Note_on_c, 1, 62, 100
1, 107264, Note_on_c, 0, 81, 0
1, 107296, Note_on_c, 1, 62, 0
1, 107328, Note_on_c, 0, 72, 100
1, 107328, Note_on_c, 1, 57, 100
1, 107392, Note_on_c, 1, 57, 0
1, 107424, Note_on_c, 1, 62, 100
1, 107456, Note_on_c, 0, 72, 0
1, 107488, Note_on_c, 1, 62, 0
1, 107520, Note_on_c, 0, 70, 100
1, 107520, Note_on_c, 1, 55, 100
1, 107584, Note_on_c, 1, 55, 0
1, 107616, Note_on_c, 1, 62, 100
1, 107648, Note_on_c, 0, 70, 0
1, 107680, Note_on_c, 1, 62, 0
1, 107712, Note_on_c, 0, 79, 100
1, 107712, Note_on_c, 1, 58, 100
1, 107776, Note_on_c, 1, 58, 0
1, 107808, Note_on_c, 1, 62, 100
1, 107840, Note_on_c, 0, 79, 0
1, 107872, Note_on_c, 1, 62, 0
1, 107904, Note_on_c, 0, 69, 100
1, 107904, Note_on_c, 1, 53, 100
1, 107968, Note_on_c, 1, 53, 0
1, 108000, Note_on_c, 1, 62, 100
1, 108032, Note_on_c, 0, 69, 0
1, 108064, Note_on_c, 1, 62, 0
1, 108096, Note_on_c, 0, 81, 100
1, 108096, Note_on_c, 1, 57, 100
1, 108160, Note_on_c, 1, 57, 0
1, 108192, Note_on_c, 1, 62, 100
1, 108224, Note_on_c, 0, 81, 0
1, 108256, Note_on_c, 1, 62, 0
1, 108288, Note_on_c, 0, 67, 100
1, 108288, Note_on_c, 1, 51, 100
1, 108352, Note_on_c, 1, 51, 0
1, 108384, Note_on_c, 1, 61, 100
1, 108416, Note_on_c, 0, 67, 0
1, 108448, Note_on_c, 1, 61, 0
1, 108480, Note_on_c, 0, 82, 100
1, 108480, Note_on_c, 1, 55, 100
1, 108544, Note_on_c, 1, 55, 0
1, 108576, Note_on_c, 1, 61, 100
1, 108608, Note_on_c, 0, 82, 0
1, 108640, Note_on_c, 1, 61, 0
1, 108672, Note_on_c, 0, 81, 100
1, 108672, Note_on_c, 1, 51, 100
1, 108688, Note_on_c, 0, 81, 0
1, 108696, Note_on_c, 0, 82, 100
1, 108712, Note_on_c, 0, 82, 0
1, 108720, Note_on_c, 0, 81, 100
1, 108736, Note_on_c, 0, 81, 0
1, 108736, Note_on_c, 1, 51, 0
1, 108744, Note_on_c, 0, 82, 100
1, 108760, Note_on_c, 0, 82, 0
1, 108768, Note_on_c, 0, 81, 100
1, 108768, Note_on_c, 1, 61, 100
1, 108784, Note_on_c, 0, 81, 0
1, 108792, Note_on_c, 0, 82, 100
1, 108808, Note_on_c, 0, 82, 0
1, 108816, Note_on_c, 0, 81, 100
1, 108832, Note_on_c, 0, 81, 0
1, 108832, Note_on_c, 1, 61, 0
1, 108840, Note_on_c, 0, 82, 100
1, 108856, Note_on_c, 0, 82, 0
1, 108864, Note_on_c, 0, 79, 100
1, 108864, Note_on_c, 1, 55, 100
1, 108928, Note_on_c, 1, 55, 0
1, 108960, Note_on_c, 1, 61, 100
1, 108992, Note_on_c, 0, 79, 0
1, 109024, Note_on_c, 1, 61, 0
1, 109056, Note_on_c, 0, 78, 100
1, 109056, Note_on_c, 1, 50, 100
1, 109120, Note_on_c, 1, 50, 0
1, 109152, Note_on_c, 1, 60, 100
1, 109184, Note_on_c, 0, 78, 0
1, 109216, Note_on_c, 1, 60, 0
1, 109248, Note_on_c, 0, 81, 100
1, 109248, Note_on_c, 1, 54, 100
1, 109312, Note_on_c, 1, 54, 0
1, 109344, Note_on_c, 1, 60, 100
1, 109376, Note_on_c, 0, 81, 0
1, 109408, Note_on_c, 1, 60, 0
1, 109440, Note_on_c, 0, 84, 100
1, 109440, Note_on_c, 1, 50, 100
1, 109504, Note_on_c, 0, 84, 0
1, 109504, Note_on_c, 1, 50, 0
1, 109536, Note_on_c, 0, 81, 100
1, 109536, Note_on_c, 1, 60, 100
1, 109600, Note_on_c, 0, 81, 0
1, 109600, Note_on_c, 1, 60, 0
1, 109632, Note_on_c, 0, 78, 100
1, 109632, Note_on_c, 1, 54, 100
1, 109696, Note_on_c, 0, 78, 0
1, 109696, Note_on_c, 1, 54, 0
1, 109728, Note_on_c, 0, 74, 100
1, 109728, Note_on_c, 1, 60, 100
1, 109792, Note_on_c, 0, 74, 0
1, 109792, Note_on_c, 1, 60, 0
1, 109824, Note_on_c, 0, 69, 100
1, 109824, Note_on_c, 0, 72, 100
1, 109824, Note_on_c, 1, 50, 100
1, 109824, Note_on_c, 1, 54, 100
1, 109824, Note_on_c, 1, 60, 100
1, 110784, Note_on_c, 0, 71, 100
1, 110848, Note_on_c, 0, 71, 0
1, 110852, Note_on_c, 0, 69, 0
1, 110852, Note_on_c, 0, 72, 0
1, 110852, Note_on_c, 1, 50, 0
1, 110852, Note_on_c, 1, 54, 0
1, 110852, Note_on_c, 1, 60, 0
1, 110880, Note_on_c, 0, 72, 100
1, 110944, Note_on_c, 0, 72, 0
1, 110976, Note_on_c, 0, 74, 100
1, 111040, Note_on_c, 0, 74, 0
1, 111072, Note_on_c, 0, 72, 100
1, 111136, Note_on_c, 0, 72, 0
1, 111168, Note_on_c, 0, 71, 100
1, 111232, Note_on_c, 0, 71, 0
1, 111264, Note_on_c, 0, 69, 100
1, 111328, Note_on_c, 0, 69, 0
1, 111360, Note_on_c, 0, 67, 100
1, 111360, Note_on_c, 1, 59, 100
1, 111360, Note_on_c, 1, 55, 100
1, 111424, Note_on_c, 0, 67, 0
1, 111456, Note_on_c, 0, 66, 100
1, 111520, Note_on_c, 0, 66, 0
1, 111552, Note_on_c, 0, 69, 100
1, 111616, Note_on_c, 0, 69, 0
1, 111616, Note_on_c, 1, 59, 0
1, 111616, Note_on_c, 1, 55, 0
1, 111648, Note_on_c, 0, 67, 100
1, 111712, Note_on_c, 0, 67, 0
1, 111744, Note_on_c, 0, 71, 100
1, 111808, Note_on_c, 0, 71, 0
1, 111840, Note_on_c, 0, 69, 100
1, 111904, Note_on_c, 0, 69, 0
1, 111936, Note_on_c, 0, 72, 100
1, 112000, Note_on_c, 0, 72, 0
1, 112032, Note_on_c, 0, 71, 100
1, 112096, Note_on_c, 0, 71, 0
1, 112128, Note_on_c, 0, 74, 100
1, 112256, Note_on_c, 0, 74, 0
1, 112320, Note_on_c, 0, 74, 100
1, 112320, Note_on_c, 1, 71, 100
1, 112320, Note_on_c, 1, 67, 100
1, 112448, Note_on_c, 0, 74, 0
1, 112448, Note_on_c, 1, 71, 0
1, 112448, Note_on_c, 1, 67, 0
1, 112512, Note_on_c, 0, 74, 100
1, 112512, Note_on_c, 1, 69, 100
1, 112512, Note_on_c, 1, 66, 100
1, 112640, Note_on_c, 0, 74, 0
1, 112640, Note_on_c, 1, 69, 0
1, 112640, Note_on_c, 1, 66, 0
1, 112704, Note_on_c, 0, 74, 100
1, 112704, Note_on_c, 1, 72, 100
1, 112704, Note_on_c, 1, 69, 100
1, 112832, Note_on_c, 0, 74, 0
1, 112832, Note_on_c, 1, 72, 0
1, 112832, Note_on_c, 1, 69, 0
1, 112896, Note_on_c, 0, 74, 100
1, 112896, Note_on_c, 1, 71, 100
1, 112896, Note_on_c, 1, 67, 100
1, 113024, Note_on_c, 0, 74, 0
1, 113088, Note_on_c, 0, 76, 100
1, 113152, Note_on_c, 0, 76, 0
1, 113152, Note_on_c, 1, 71, 0
1, 113152, Note_on_c, 1, 67, 0
1, 113184, Note_on_c, 0, 78, 100
1, 113248, Note_on_c, 0, 78, 0
1, 113256, Note_on_c, 0, 81, 100
1, 113272, Note_on_c, 0, 81, 0
1, 113280, Note_on_c, 0, 79, 100
1, 113408, Note_on_c, 0, 79, 0
1, 113472, Note_on_c, 0, 78, 100
1, 113536, Note_on_c, 0, 78, 0
1, 113568, Note_on_c, 0, 76, 100
1, 113632, Note_on_c, 0, 76, 0
1, 113664, Note_on_c, 0, 74, 100
1, 113792, Note_on_c, 0, 74, 0
1, 113856, Note_on_c, 0, 74, 100
1, 113856, Note_on_c, 1, 71, 100
1, 113856, Note_on_c, 1, 67, 100
1, 113984, Note_on_c, 0, 74, 0
1, 113984, Note_on_c, 1, 71, 0
1, 113984, Note_on_c, 1, 67, 0
1, 114048, Note_on_c, 0, 74, 100
1, 114048, Note_on_c, 1, 69, 100
1, 114048, Note_on_c, 1, 66, 100
1, 114176, Note_on_c, 0, 74, 0
1, 114176, Note_on_c, 1, 69, 0
1, 114176, Note_on_c, 1, 66, 0
1, 114240, Note_on_c, 0, 74, 100
1, 114240, Note_on_c, 1, 72, 100
1, 114240, Note_on_c, 1, 69, 100
1, 114368, Note_on_c, 0, 74, 0
1, 114368, Note_on_c, 1, 72, 0
1, 114368, Note_on_c, 1, 69, 0
1, 114432, Note_on_c, 0, 74, 100
1, 114432, Note_on_c, 1, 71, 100
1, 114432, Note_on_c, 1, 67, 100
1, 114560, Note_on_c, 0, 74, 0
1, 114624, Note_on_c, 0, 76, 100
1, 114688, Note_on_c, 0, 76, 0
1, 114688, Note_on_c, 1, 71, 0
1, 114688, Note_on_c, 1, 67, 0
1, 114720, Note_on_c, 0, 78, 100
1, 114784, Note_on_c, 0, 78, 0
1, 114792, Note_on_c, 0, 81, 100
1, 114808, Note_on_c, 0, 81, 0
1, 114816, Note_on_c, 0, 79, 100
1, 114944, Note_on_c, 0, 79, 0
1, 115008, Note_on_c, 0, 78, 100
1, 115008, Note_on_c, 1, 72, 100
1, 115008, Note_on_c, 1, 67, 100
1, 115072, Note_on_c, 0, 78, 0
1, 115104, Note_on_c, 0, 76, 100
1, 115136, Note_on_c, 1, 72, 0
1, 115136, Note_on_c, 1, 67, 0
1, 115168, Note_on_c, 0, 76, 0
1, 115200, Note_on_c, 0, 74, 100
1, 115200, Note_on_c, 1, 71, 100
1, 115200, Note_on_c, 1, 67, 100
1, 115328, Note_on_c, 0, 74, 0
1, 115392, Note_on_c, 0, 79, 100
1, 115456, Note_on_c, 0, 79, 0
1, 115456, Note_on_c, 1, 71, 0
1, 115456, Note_on_c, 1, 67, 0
1, 115488, Note_on_c, 0, 83, 100
1, 115552, Note_on_c, 0, 83, 0
1, 115584, Note_on_c, 0, 81, 100
1, 115648, Note_on_c, 0, 81, 0
1, 115680, Note_on_c, 0, 79, 100
1, 115744, Note_on_c, 0, 79, 0
1, 115776, Note_on_c, 0, 78, 100
1, 115840, Note_on_c, 0, 78, 0
1, 115872, Note_on_c, 0, 76, 100
1, 115936, Note_on_c, 0, 76, 0
1, 115968, Note_on_c, 0, 74, 100
1, 116160, Note_on_c, 1, 71, 100
1, 116224, Note_on_c, 0, 74, 0
1, 116288, Note_on_c, 1, 71, 0
1, 116352, Note_on_c, 0, 72, 100
1, 116352, Note_on_c, 1, 69, 100
1, 116368, Note_on_c, 0, 72, 0
1, 116376, Note_on_c, 0, 74, 100
1, 116392, Note_on_c, 0, 74, 0
1, 116400, Note_on_c, 0, 72, 100
1, 116416, Note_on_c, 0, 72, 0
1, 116424, Note_on_c, 0, 74, 100
1, 116440, Note_on_c, 0, 74, 0
1, 116448, Note_on_c, 0, 72, 100
1, 116464, Note_on_c, 0, 72, 0
1, 116472, Note_on_c, 0, 74, 100
1, 116480, Note_on_c, 1, 69, 0
1, 116488, Note_on_c, 0, 74, 0
1, 116496, Note_on_c, 0, 72, 100
1, 116512, Note_on_c, 0, 72, 0
1, 116520, Note_on_c, 0, 74, 100
1, 116536, Note_on_c, 0, 74, 0
1, 116544, Note_on_c, 0, 72, 100
1, 116544, Note_on_c, 1, 62, 100
1, 116560, Note_on_c, 0, 72, 0
1, 116568, Note_on_c, 0, 74, 100
1, 116584, Note_on_c, 0, 74, 0
1, 116592, Note_on_c, 0, 72, 100
1, 116608, Note_on_c, 0, 72, 0
1, 116616, Note_on_c, 0, 74, 100
1, 116632, Note_on_c, 0, 74, 0
1, 116640, Note_on_c, 0, 72, 100
1, 116656, Note_on_c, 0, 72, 0
1, 116664, Note_on_c, 0, 74, 100
1, 116672, Note_on_c, 1, 62, 0
1, 116680, Note_on_c, 0, 74, 0
1, 116688, Note_on_c, 0, 72, 100
1, 116704, Note_on_c, 0, 72, 0
1, 116712, Note_on_c, 0, 74, 100
1, 116728, Note_on_c, 0, 74, 0
1, 116736, Note_on_c, 0, 71, 100
1, 116736, Note_on_c, 1, 67, 100
1, 116864, Note_on_c, 1, 67, 0
1, 116928, Note_on_c, 1, 62, 100
1, 116992, Note_on_c, 0, 71, 0
1, 117056, Note_on_c, 1, 62, 0
1, 117120, Note_on_c, 1, 55, 100
1, 117248, Note_on_c, 1, 55, 0
1, 117312, Note_on_c, 0, 67, 100
1, 117312, Note_on_c, 1, 55, 100
1, 117312, Note_on_c, 1, 43, 100
1, 117440, Note_on_c, 0, 67, 0
1, 117440, Note_on_c, 1, 55, 0
1, 117440, Note_on_c, 1, 43, 0
1, 117504, Note_on_c, 0, 66, 100
1, 117504, Note_on_c, 1, 42, 100
1, 117504, Note_on_c, 1, 54, 100
1, 117520, Note_on_c, 0, 66, 0
1, 117528, Note_on_c, 0, 67, 100
1, 117544, Note_on_c, 0, 67, 0
1, 117552, Note_on_c, 0, 66, 100
1, 117568, Note_on_c, 0, 66, 0
1, 117576, Note_on_c, 0, 67, 100
1, 117592, Note_on_c, 0, 67, 0
1, 117600, Note_on_c, 0, 66, 100
1, 117616, Note_on_c, 0, 66, 0
1, 117624, Note_on_c, 0, 67, 100
1, 117632, Note_on_c, 1, 42, 0
1, 117632, Note_on_c, 1, 54, 0
1, 117640, Note_on_c, 0, 67, 0
1, 117648, Note_on_c, 0, 66, 100
1, 117664, Note_on_c, 0, 66, 0
1, 117672, Note_on_c, 0, 67, 100
1, 117688, Note_on_c, 0, 67, 0
1, 117696, Note_on_c, 0, 64, 100
1, 117696, Note_on_c, 1, 40, 100
1, 117696, Note_on_c, 1, 52, 100
1, 117824, Note_on_c, 0, 64, 0
1, 117824, Note_on_c, 1, 40, 0
1, 117824, Note_on_c, 1, 52, 0
1, 117888, Note_on_c, 0, 62, 100
1, 117888, Note_on_c, 1, 38, 100
1, 117888, Note_on_c, 1, 50, 100
1, 117904, Note_on_c, 0, 62, 0
1, 117912, Note_on_c, 0, 64, 100
1, 117928, Note_on_c, 0, 64, 0
1, 117936, Note_on_c, 0, 62, 100
1, 117952, Note_on_c, 0, 62, 0
1, 117960, Note_on_c, 0, 64, 100
1, 117976, Note_on_c, 0, 64, 0
1, 117984, Note_on_c, 0, 62, 100
1, 118000, Note_on_c, 0, 62, 0
1, 118008, Note_on_c, 0, 64, 100
1, 118016, Note_on_c, 1, 38, 0
1, 118016, Note_on_c, 1, 50, 0
1, 118024, Note_on_c, 0, 64, 0
1, 118032, Note_on_c, 0, 62, 100
1, 118048, Note_on_c, 0, 62, 0
1, 118056, Note_on_c, 0, 64, 100
1, 118072, Note_on_c, 0, 64, 0
1, 118080, Note_on_c, 0, 60, 100
1, 118080, Note_on_c, 1, 36, 100
1, 118080, Note_on_c, 1, 48, 100
1, 118208, Note_on_c, 0, 60, 0
1, 118208, Note_on_c, 1, 36, 0
1, 118208, Note_on_c, 1, 48, 0
1, 118272, Note_on_c, 0, 59, 100
1, 118272, Note_on_c, 1, 35, 100
1, 118272, Note_on_c, 1, 47, 100
1, 118528, Note_on_c, 0, 59, 0
1, 118528, Note_on_c, 1, 35, 0
1, 118528, Note_on_c, 1, 47, 0
1, 118848, Note_on_c, 0, 64, 100
1, 118848, Note_on_c, 1, 52, 100
1, 118888, Note_on_c, 0, 64, 0
1, 118912, Note_on_c, 0, 66, 100
1, 118952, Note_on_c, 0, 66, 0
1, 118976, Note_on_c, 0, 64, 100
1, 118976, Note_on_c, 1, 52, 0
1, 119016, Note_on_c, 0, 64, 0
1, 119040, Note_on_c, 0, 62, 100
1, 119040, Note_on_c, 1, 50, 100
1, 119080, Note_on_c, 0, 62, 0
1, 119104, Note_on_c, 0, 64, 100
1, 119144, Note_on_c, 0, 64, 0
1, 119168, Note_on_c, 0, 62, 100
1, 119168, Note_on_c, 1, 50, 0
1, 119208, Note_on_c, 0, 62, 0
1, 119232, Note_on_c, 0, 60, 100
1, 119232, Note_on_c, 1, 48, 100
1, 119272, Note_on_c, 0, 60, 0
1, 119296, Note_on_c, 0, 62, 100
1, 119336, Note_on_c, 0, 62, 0
1, 119360, Note_on_c, 0, 60, 100
1, 119360, Note_on_c, 1, 48, 0
1, 119400, Note_on_c, 0, 60, 0
1, 119424, Note_on_c, 0, 59, 100
1, 119424, Note_on_c, 1, 47, 100
1, 119464, Note_on_c, 0, 59, 0
1, 119488, Note_on_c, 0, 60, 100
1, 119528, Note_on_c, 0, 60, 0
1, 119552, Note_on_c, 0, 59, 100
1, 119552, Note_on_c, 1, 47, 0
1, 119592, Note_on_c, 0, 59, 0
1, 119616, Note_on_c, 0, 57, 100
1, 119616, Note_on_c, 1, 45, 100
1, 119656, Note_on_c, 0, 57, 0
1, 119680, Note_on_c, 0, 59, 100
1, 119720, Note_on_c, 0, 59, 0
1, 119744, Note_on_c, 0, 57, 100
1, 119744, Note_on_c, 1, 45, 0
1, 119784, Note_on_c, 0, 57, 0
1, 119808, Note_on_c, 0, 56, 100
1, 119808, Note_on_c, 1, 44, 100
1, 119872, Note_on_c, 1, 44, 0
1, 119904, Note_on_c, 1, 52, 100
1, 119936, Note_on_c, 0, 56, 0
1, 119968, Note_on_c, 1, 52, 0
1, 120000, Note_on_c, 0, 59, 100
1, 120000, Note_on_c, 1, 47, 100
1, 120064, Note_on_c, 1, 47, 0
1, 120096, Note_on_c, 1, 52, 100
1, 120128, Note_on_c, 0, 59, 0
1, 120160, Note_on_c, 1, 52, 0
1, 120192, Note_on_c, 0, 62, 100
1, 120192, Note_on_c, 1, 44, 100
1, 120256, Note_on_c, 1, 44, 0
1, 120288, Note_on_c, 1, 52, 100
1, 120320, Note_on_c, 0, 62, 0
1, 120352, Note_on_c, 1, 52, 0
1, 120384, Note_on_c, 0, 68, 100
1, 120384, Note_on_c, 1, 47, 100
1, 120448, Note_on_c, 1, 47, 0
1, 120480, Note_on_c, 1, 52, 100
1, 120512, Note_on_c, 0, 68, 0
1, 120544, Note_on_c, 1, 52, 0
1, 120576, Note_on_c, 0, 71, 100
1, 120576, Note_on_c, 1, 44, 100
1, 120640, Note_on_c, 1, 44, 0
1, 120672, Note_on_c, 1, 52, 100
1, 120704, Note_on_c, 0, 71, 0
1, 120736, Note_on_c, 1, 52, 0
1, 120768, Note_on_c, 0, 74, 100
1, 120768, Note_on_c, 1, 47, 100
1, 120832, Note_on_c, 1, 47, 0
1, 120864, Note_on_c, 1, 52, 100
1, 120896, Note_on_c, 0, 74, 0
1, 120928, Note_on_c, 1, 52, 0
1, 120960, Note_on_c, 0, 83, 100
1, 120960, Note_on_c, 1, 44, 100
1, 121024, Note_on_c, 1, 44, 0
1, 121056, Note_on_c, 1, 52, 100
1, 121120, Note_on_c, 1, 52, 0
1, 121152, Note_on_c, 1, 47, 100
1, 121216, Note_on_c, 0, 83, 0
1, 121216, Note_on_c, 1, 47, 0
1, 121248, Note_on_c, 0, 74, 100
1, 121248, Note_on_c, 1, 52, 100
1, 121312, Note_on_c, 0, 74, 0
1, 121312, Note_on_c, 1, 52, 0
1, 121344, Note_on_c, 0, 74, 100
1, 121344, Note_on_c, 1, 45, 100
1, 121408, Note_on_c, 0, 74, 0
1, 121408, Note_on_c, 1, 45, 0
1, 121440, Note_on_c, 0, 72, 100
1, 121440, Note_on_c, 1, 52, 100
1, 121504, Note_on_c, 0, 72, 0
1, 121504, Note_on_c, 1, 52, 0
1, 121536, Note_on_c, 0, 71, 100
1, 121536, Note_on_c, 1, 48, 100
1, 121600, Note_on_c, 0, 71, 0
1, 121600, Note_on_c, 1, 48, 0
1, 121632, Note_on_c, 0, 69, 100
1, 121632, Note_on_c, 1, 52, 100
1, 121696, Note_on_c, 0, 69, 0
1, 121696, Note_on_c, 1, 52, 0
1, 121728, Note_on_c, 0, 69, 100
1, 121728, Note_on_c, 1, 45, 100
1, 121792, Note_on_c, 1, 45, 0
1, 121824, Note_on_c, 1, 52, 100
1, 121856, Note_on_c, 0, 69, 0
1, 121888, Note_on_c, 1, 52, 0
1, 121920, Note_on_c, 0, 69, 100
1, 121920, Note_on_c, 1, 48, 100
1, 121984, Note_on_c, 1, 48, 0
1, 122016, Note_on_c, 1, 52, 100
1, 122048, Note_on_c, 0, 69, 0
1, 122080, Note_on_c, 1, 52, 0
1, 122112, Note_on_c, 0, 81, 100
1, 122112, Note_on_c, 0, 72, 100
1, 122112, Note_on_c, 1, 42, 100
1, 122176, Note_on_c, 1, 42, 0
1, 122208, Note_on_c, 1, 50, 100
1, 122272, Note_on_c, 1, 50, 0
1, 122304, Note_on_c, 1, 45, 100
1, 122368, Note_on_c, 1, 45, 0
1, 122400, Note_on_c, 1, 50, 100
1, 122464, Note_on_c, 1, 50, 0
1, 122496, Note_on_c, 1, 42, 100
1, 122560, Note_on_c, 1, 42, 0
1, 122592, Note_on_c, 1, 50, 100
1, 122624, Note_on_c, 0, 81, 0
1, 122624, Note_on_c, 0, 72, 0
1, 122656, Note_on_c, 1, 50, 0
1, 122688, Note_on_c, 0, 72, 100
1, 122688, Note_on_c, 1, 45, 100
1, 122752, Note_on_c, 1, 45, 0
1, 122784, Note_on_c, 1, 50, 100
1, 122816, Note_on_c, 0, 72, 0
1, 122848, Note_on_c, 1, 50, 0
1, 122880, Note_on_c, 0, 72, 100
1, 122880, Note_on_c, 1, 43, 100
1, 122944, Note_on_c, 0, 72, 0
1, 122944, Note_on_c, 1, 43, 0
1, 122976, Note_on_c, 0, 71, 100
1, 122976, Note_on_c, 1, 50, 100
1, 123040, Note_on_c, 0, 71, 0
1, 123040, Note_on_c, 1, 50, 0
1, 123072, Note_on_c, 0, 69, 100
1, 123072, Note_on_c, 1, 47, 100
1, 123136, Note_on_c, 0, 69, 0
1, 123136, Note_on_c, 1, 47, 0
1, 123168, Note_on_c, 0, 67, 100
1, 123168, Note_on_c, 1, 50, 100
1, 123232, Note_on_c, 0, 67, 0
1, 123232, Note_on_c, 1, 50, 0
1, 123264, Note_on_c, 0, 67, 100
1, 123264, Note_on_c, 1, 43, 100
1, 123328, Note_on_c, 1, 43, 0
1, 123360, Note_on_c, 1, 50, 100
1, 123392, Note_on_c, 0, 67, 0
1, 123424, Note_on_c, 1, 50, 0
1, 123456, Note_on_c, 0, 74, 100
1, 123456, Note_on_c, 1, 47, 100
1, 123520, Note_on_c, 1, 47, 0
1, 123552, Note_on_c, 1, 50, 100
1, 123584, Note_on_c, 0, 74, 0
1, 123616, Note_on_c, 1, 50, 0
1, 123648, Note_on_c, 0, 74, 100
1, 123648, Note_on_c, 1, 42, 100
1, 123712, Note_on_c, 0, 74, 0
1, 123712, Note_on_c, 1, 42, 0
1, 123744, Note_on_c, 0, 72, 100
1, 123744, Note_on_c, 1, 50, 100
1, 123808, Note_on_c, 0, 72, 0
1, 123808, Note_on_c, 1, 50, 0
1, 123840, Note_on_c, 0, 71, 100
1, 123840, Note_on_c, 1, 45, 100
1, 123904, Note_on_c, 0, 71, 0
1, 123904, Note_on_c, 1, 45, 0
1, 123936, Note_on_c, 0, 69, 100
1, 123936, Note_on_c, 1, 50, 100
1, 124000, Note_on_c, 0, 69, 0
1, 124000, Note_on_c, 1, 50, 0
1, 124032, Note_on_c, 0, 69, 100
1, 124032, Note_on_c, 1, 42, 100
1, 124096, Note_on_c, 1, 42, 0
1, 124128, Note_on_c, 1, 50, 100
1, 124160, Note_on_c, 0, 69, 0
1, 124192, Note_on_c, 1, 50, 0
1, 124224, Note_on_c, 0, 72, 100
1, 124224, Note_on_c, 1, 45, 100
1, 124288, Note_on_c, 1, 45, 0
1, 124320, Note_on_c, 1, 50, 100
1, 124352, Note_on_c, 0, 72, 0
1, 124384, Note_on_c, 1, 50, 0
1, 124416, Note_on_c, 0, 72, 100
1, 124416, Note_on_c, 1, 43, 100
1, 124480, Note_on_c, 0, 72, 0
1, 124480, Note_on_c, 1, 43, 0
1, 124512, Note_on_c, 0, 71, 100
1, 124512, Note_on_c, 1, 50, 100
1, 124576, Note_on_c, 0, 71, 0
1, 124576, Note_on_c, 1, 50, 0
1, 124608, Note_on_c, 0, 69, 100
1, 124608, Note_on_c, 1, 47, 100
1, 124672, Note_on_c, 0, 69, 0
1, 124672, Note_on_c, 1, 47, 0
1, 124704, Note_on_c, 0, 67, 100
1, 124704, Note_on_c, 1, 50, 100
1, 124768, Note_on_c, 0, 67, 0
1, 124768, Note_on_c, 1, 50, 0
1, 124800, Note_on_c, 0, 67, 100
1, 124800, Note_on_c, 1, 47, 100
1, 124864, Note_on_c, 1, 47, 0
1, 124896, Note_on_c, 1, 55, 100
1, 124928, Note_on_c, 0, 67, 0
1, 124960, Note_on_c, 1, 55, 0
1, 124992, Note_on_c, 0, 79, 100
1, 124992, Note_on_c, 1, 50, 100
1, 125056, Note_on_c, 1, 50, 0
1, 125088, Note_on_c, 1, 55, 100
1, 125120, Note_on_c, 0, 79, 0
1, 125152, Note_on_c, 1, 55, 0
1, 125184, Note_on_c, 0, 78, 100
1, 125184, Note_on_c, 1, 48, 100
1, 125248, Note_on_c, 0, 78, 0
1, 125280, Note_on_c, 0, 76, 100
1, 125344, Note_on_c, 0, 76, 0
1, 125376, Note_on_c, 0, 74, 100
1, 125440, Note_on_c, 0, 74, 0
1, 125440, Note_on_c, 1, 48, 0
1, 125472, Note_on_c, 0, 72, 100
1, 125536, Note_on_c, 0, 72, 0
1, 125568, Note_on_c, 0, 71, 100
1, 125632, Note_on_c, 0, 71, 0
1, 125664, Note_on_c, 0, 69, 100
1, 125728, Note_on_c, 0, 69, 0
1, 125760, Note_on_c, 0, 72, 100
1, 125824, Note_on_c, 0, 72, 0
1, 125856, Note_on_c, 0, 69, 100
1, 125920, Note_on_c, 0, 69, 0
1, 125952, Note_on_c, 0, 67, 100
1, 125952, Note_on_c, 1, 50, 100
1, 126080, Note_on_c, 1, 50, 0
1, 126144, Note_on_c, 1, 45, 100
1, 126208, Note_on_c, 0, 67, 0
1, 126272, Note_on_c, 1, 45, 0
1, 126336, Note_on_c, 0, 66, 100
1, 126336, Note_on_c, 1, 38, 100
1, 126464, Note_on_c, 0, 66, 0
1, 126464, Note_on_c, 1, 38, 0
1, 126528, Note_on_c, 0, 62, 100
1, 126656, Note_on_c, 0, 62, 0
1, 126720, Note_on_c, 0, 67, 100
1, 126720, Note_on_c, 1, 55, 100
1, 126784, Note_on_c, 1, 55, 0
1, 126816, Note_on_c, 1, 62, 100
1, 126880, Note_on_c, 1, 62, 0
1, 126912, Note_on_c, 1, 59, 100
1, 126976, Note_on_c, 0, 67, 0
1, 126976, Note_on_c, 1, 59, 0
1, 127008, Note_on_c, 1, 62, 100
1, 127072, Note_on_c, 1, 62, 0
1, 127080, Note_on_c, 0, 72, 100
1, 127096, Note_on_c, 0, 72, 0
1, 127104, Note_on_c, 0, 71, 100
1, 127104, Note_on_c, 1, 55, 100
1, 127168, Note_on_c, 1, 55, 0
1, 127200, Note_on_c, 1, 62, 100
1, 127232, Note_on_c, 0, 71, 0
1, 127264, Note_on_c, 1, 62, 0
1, 127296, Note_on_c, 0, 69, 100
1, 127296, Note_on_c, 1, 59, 100
1, 127360, Note_on_c, 0, 69, 0
1, 127360, Note_on_c, 1, 59, 0
1, 127392, Note_on_c, 0, 67, 100
1, 127392, Note_on_c, 1, 62, 100
1, 127456, Note_on_c, 0, 67, 0
1, 127456, Note_on_c, 1, 62, 0
1, 127464, Note_on_c, 0, 67, 100
1, 127480, Note_on_c, 0, 67, 0
1, 127488, Note_on_c, 0, 66, 100
1, 127488, Note_on_c, 1, 57, 100
1, 127552, Note_on_c, 1, 57, 0
1, 127584, Note_on_c, 1, 62, 100
1, 127648, Note_on_c, 1, 62, 0
1, 127680, Note_on_c, 1, 60, 100
1, 127744, Note_on_c, 0, 66, 0
1, 127744, Note_on_c, 1, 60, 0
1, 127776, Note_on_c, 1, 62, 100
1, 127840, Note_on_c, 1, 62, 0
1, 127872, Note_on_c, 1, 57, 100
1, 127936, Note_on_c, 1, 57, 0
1, 127968, Note_on_c, 1, 62, 100
1, 128032, Note_on_c, 1, 62, 0
1, 128064, Note_on_c, 0, 62, 100
1, 128064, Note_on_c, 1, 60, 100
1, 128128, Note_on_c, 1, 60, 0
1, 128160, Note_on_c, 1, 62, 100
1, 128192, Note_on_c, 0, 62, 0
1, 128224, Note_on_c, 1, 62, 0
1, 128256, Note_on_c, 0, 69, 100
1, 128256, Note_on_c, 1, 54, 100
1, 128320, Note_on_c, 1, 54, 0
1, 128352, Note_on_c, 1, 62, 100
1, 128416, Note_on_c, 1, 62, 0
1, 128448, Note_on_c, 1, 57, 100
1, 128512, Note_on_c, 0, 69, 0
1, 128512, Note_on_c, 1, 57, 0
1, 128544, Note_on_c, 1, 62, 100
1, 128608, Note_on_c, 1, 62, 0
1, 128616, Note_on_c, 0, 74, 100
1, 128632, Note_on_c, 0, 74, 0
1, 128640, Note_on_c, 0, 72, 100
1, 128640, Note_on_c, 1, 54, 100
1, 128704, Note_on_c, 1, 54, 0
1, 128736, Note_on_c, 1, 62, 100
1, 128768, Note_on_c, 0, 72, 0
1, 128800, Note_on_c, 1, 62, 0
1, 128832, Note_on_c, 0, 71, 100
1, 128832, Note_on_c, 1, 57, 100
1, 128896, Note_on_c, 0, 71, 0
1, 128896, Note_on_c, 1, 57, 0
1, 128928, Note_on_c, 0, 69, 100
1, 128928, Note_on_c, 1, 62, 100
1, 128992, Note_on_c, 0, 69, 0
1, 128992, Note_on_c, 1, 62, 0
1, 129000, Note_on_c, 0, 69, 100
1, 129016, Note_on_c, 0, 69, 0
1, 129024, Note_on_c, 0, 71, 100
1, 129024, Note_on_c, 1, 55, 100
1, 129088, Note_on_c, 1, 55, 0
1, 129120, Note_on_c, 1, 62, 100
1, 129184, Note_on_c, 1, 62, 0
1, 129216, Note_on_c, 1, 59, 100
1, 129280, Note_on_c, 0, 71, 0
1, 129280, Note_on_c, 1, 59, 0
1, 129312, Note_on_c, 1, 62, 100
1, 129376, Note_on_c, 1, 62, 0
1, 129408, Note_on_c, 1, 55, 100
1, 129472, Note_on_c, 1, 55, 0
1, 129504, Note_on_c, 1, 62, 100
1, 129568, Note_on_c, 1, 62, 0
1, 129600, Note_on_c, 0, 74, 100
1, 129600, Note_on_c, 1, 59, 100
1, 129664, Note_on_c, 1, 59, 0
1, 129696, Note_on_c, 1, 62, 100
1, 129728, Note_on_c, 0, 74, 0
1, 129760, Note_on_c, 1, 62, 0
1, 129792, Note_on_c, 0, 79, 100
1, 129792, Note_on_c, 1, 55, 100
1, 129856, Note_on_c, 1, 55, 0
1, 129888, Note_on_c, 1, 62, 100
1, 129952, Note_on_c, 1, 62, 0
1, 129984, Note_on_c, 1, 59, 100
1, 130048, Note_on_c, 0, 79, 0
1, 130048, Note_on_c, 1, 59, 0
1, 130080, Note_on_c, 1, 62, 100
1, 130144, Note_on_c, 1, 62, 0
1, 130152, Note_on_c, 0, 84, 100
1, 130168, Note_on_c, 0, 84, 0
1, 130176, Note_on_c, 0, 83, 100
1, 130176, Note_on_c, 1, 55, 100
1, 130240, Note_on_c, 1, 55, 0
1, 130272, Note_on_c, 1, 62, 100
1, 130304, Note_on_c, 0, 83, 0
1, 130336, Note_on_c, 1, 62, 0
1, 130368, Note_on_c, 0, 81, 100
1, 130368, Note_on_c, 1, 59, 100
1, 130432, Note_on_c, 0, 81, 0
1, 130432, Note_on_c, 1, 59, 0
1, 130464, Note_on_c, 0, 79, 100
1, 130464, Note_on_c, 1, 62, 100
1, 130528, Note_on_c, 0, 79, 0
1, 130528, Note_on_c, 1, 62, 0
1, 130536, Note_on_c, 0, 79, 100
1, 130552, Note_on_c, 0, 79, 0
1, 130560, Note_on_c, 0, 78, 100
1, 130560, Note_on_c, 1, 57, 100
1, 130624, Note_on_c, 1, 57, 0
1, 130656, Note_on_c, 1, 62, 100
1, 130720, Note_on_c, 1, 62, 0
1, 130752, Note_on_c, 1, 60, 100
1, 130816, Note_on_c, 0, 78, 0
1, 130816, Note_on_c, 1, 60, 0
1, 130848, Note_on_c, 1, 62, 100
1, 130912, Note_on_c, 1, 62, 0
1, 130944, Note_on_c, 1, 57, 100
1, 131008, Note_on_c, 1, 57, 0
1, 131040, Note_on_c, 1, 62, 100
1, 131104, Note_on_c, 1, 62, 0
1, 131136, Note_on_c, 0, 74, 100
1, 131136, Note_on_c, 1, 60, 100
1, 131200, Note_on_c, 1, 60, 0
1, 131232, Note_on_c, 1, 62, 100
1, 131264, Note_on_c, 0, 74, 0
1, 131296, Note_on_c, 1, 62, 0
1, 131328, Note_on_c, 0, 81, 100
1, 131328, Note_on_c, 1, 54, 100
1, 131392, Note_on_c, 1, 54, 0
1, 131424, Note_on_c, 1, 62, 100
1, 131488, Note_on_c, 1, 62, 0
1, 131520, Note_on_c, 1, 57, 100
1, 131584, Note_on_c, 0, 81, 0
1, 131584, Note_on_c, 1, 57, 0
1, 131616, Note_on_c, 1, 62, 100
1, 131680, Note_on_c, 1, 62, 0
1, 131688, Note_on_c, 0, 86, 100
1, 131704, Note_on_c, 0, 86, 0
1, 131712, Note_on_c, 0, 84, 100
1, 131712, Note_on_c, 1, 54, 100
1, 131776, Note_on_c, 1, 54, 0
1, 131808, Note_on_c, 1, 62, 100
1, 131840, Note_on_c, 0, 84, 0
1, 131872, Note_on_c, 1, 62, 0
1, 131904, Note_on_c, 0, 83, 100
1, 131904, Note_on_c, 1, 57, 100
1, 131968, Note_on_c, 0, 83, 0
1, 131968, Note_on_c, 1, 57, 0
1, 132000, Note_on_c, 0, 81, 100
1, 132000, Note_on_c, 1, 62, 100
1, 132064, Note_on_c, 0, 81, 0
1, 132064, Note_on_c, 1, 62, 0
1, 132072, Note_on_c, 0, 81, 100
1, 132088, Note_on_c, 0, 81, 0
1, 132096, Note_on_c, 0, 83, 100
1, 132096, Note_on_c, 1, 55, 100
1, 132160, Note_on_c, 1, 55, 0
1, 132192, Note_on_c, 1, 62, 100
1, 132256, Note_on_c, 1, 62, 0
1, 132288, Note_on_c, 1, 59, 100
1, 132352, Note_on_c, 0, 83, 0
1, 132352, Note_on_c, 1, 59, 0
1, 132384, Note_on_c, 1, 62, 100
1, 132448, Note_on_c, 1, 62, 0
1, 132480, Note_on_c, 1, 55, 100
1, 132544, Note_on_c, 1, 55, 0
1, 132576, Note_on_c, 1, 62, 100
1, 132640, Note_on_c, 1, 62, 0
1, 132672, Note_on_c, 0, 74, 100
1, 132672, Note_on_c, 1, 59, 100
1, 132736, Note_on_c, 1, 59, 0
1, 132768, Note_on_c, 1, 62, 100
1, 132800, Note_on_c, 0, 74, 0
1, 132832, Note_on_c, 1, 62, 0
1, 132864, Note_on_c, 0, 74, 100
1, 132864, Note_on_c, 1, 59, 100
1, 132928, Note_on_c, 0, 74, 0
1, 132960, Note_on_c, 0, 86, 100
1, 133024, Note_on_c, 0, 86, 0
1, 133056, Note_on_c, 0, 84, 100
1, 133120, Note_on_c, 0, 84, 0
1, 133120, Note_on_c, 1, 59, 0
1, 133152, Note_on_c, 0, 83, 100
1, 133216, Note_on_c, 0, 83, 0
1, 133248, Note_on_c, 0, 81, 100
1, 133312, Note_on_c, 0, 81, 0
1, 133344, Note_on_c, 0, 79, 100
1, 133408, Note_on_c, 0, 79, 0
1, 133440, Note_on_c, 0, 78, 100
1, 133504, Note_on_c, 0, 78, 0
1, 133536, Note_on_c, 0, 79, 100
1, 133600, Note_on_c, 0, 79, 0
1, 133632, Note_on_c, 0, 76, 100
1, 133632, Note_on_c, 1, 60, 100
1, 133696, Note_on_c, 1, 60, 0
1, 133728, Note_on_c, 1, 72, 100
1, 133760, Note_on_c, 0, 76, 0
1, 133792, Note_on_c, 1, 72, 0
1, 133824, Note_on_c, 0, 80, 100
1, 133824, Note_on_c, 1, 59, 100
1, 133888, Note_on_c, 1, 59, 0
1, 133920, Note_on_c, 1, 71, 100
1, 133952, Note_on_c, 0, 80, 0
1, 133984, Note_on_c, 1, 71, 0
1, 134016, Note_on_c, 0, 81, 100
1, 134016, Note_on_c, 1, 57, 100
1, 134080, Note_on_c, 1, 57, 0
1, 134112, Note_on_c, 1, 69, 100
1, 134144, Note_on_c, 0, 81, 0
1, 134176, Note_on_c, 1, 69, 0
1, 134208, Note_on_c, 0, 83, 100
1, 134208, Note_on_c, 1, 56, 100
1, 134272, Note_on_c, 1, 56, 0
1, 134304, Note_on_c, 1, 68, 100
1, 134336, Note_on_c, 0, 83, 0
1, 134368, Note_on_c, 1, 68, 0
1, 134400, Note_on_c, 1, 57, 100
1, 134496, Note_on_c, 0, 84, 100
1, 134560, Note_on_c, 0, 84, 0
1, 134592, Note_on_c, 0, 83, 100
1, 134656, Note_on_c, 0, 83, 0
1, 134656, Note_on_c, 1, 57, 0
1, 134688, Note_on_c, 0, 81, 100
1, 134752, Note_on_c, 0, 81, 0
1, 134784, Note_on_c, 0, 79, 100
1, 134848, Note_on_c, 0, 79, 0
1, 134880, Note_on_c, 0, 78, 100
1, 134944, Note_on_c, 0, 78, 0
1, 134976, Note_on_c, 0, 76, 100
1, 135040, Note_on_c, 0, 76, 0
1, 135072, Note_on_c, 0, 78, 100
1, 135136, Note_on_c, 0, 78, 0
1, 135168, Note_on_c, 0, 74, 100
1, 135168, Note_on_c, 1, 59, 100
1, 135232, Note_on_c, 1, 59, 0
1, 135264, Note_on_c, 1, 71, 100
1, 135296, Note_on_c, 0, 74, 0
1, 135328, Note_on_c, 1, 71, 0
1, 135360, Note_on_c, 0, 78, 100
1, 135360, Note_on_c, 1, 57, 100
1, 135424, Note_on_c, 1, 57, 0
1, 135456, Note_on_c, 1, 69, 100
1, 135488, Note_on_c, 0, 78, 0
1, 135520, Note_on_c, 1, 69, 0
1, 135552, Note_on_c, 0, 79, 100
1, 135552, Note_on_c, 1, 55, 100
1, 135616, Note_on_c, 1, 55, 0
1, 135648, Note_on_c, 1, 67, 100
1, 135680, Note_on_c, 0, 79, 0
1, 135712, Note_on_c, 1, 67, 0
1, 135744, Note_on_c, 0, 81, 100
1, 135744, Note_on_c, 1, 54, 100
1, 135808, Note_on_c, 1, 54, 0
1, 135840, Note_on_c, 1, 66, 100
1, 135872, Note_on_c, 0, 81, 0
1, 135904, Note_on_c, 1, 66, 0
1, 135936, Note_on_c, 1, 55, 100
1, 136032, Note_on_c, 0, 83, 100
1, 136096, Note_on_c, 0, 83, 0
1, 136128, Note_on_c, 0, 81, 100
1, 136192, Note_on_c, 0, 81, 0
1, 136192, Note_on_c, 1, 55, 0
1, 136224, Note_on_c, 0, 79, 100
1, 136288, Note_on_c, 0, 79, 0
1, 136320, Note_on_c, 0, 78, 100
1, 136384, Note_on_c, 0, 78, 0
1, 136416, Note_on_c, 0, 76, 100
1, 136480, Note_on_c, 0, 76, 0
1, 136512, Note_on_c, 0, 74, 100
1, 136576, Note_on_c, 0, 74, 0
1, 136608, Note_on_c, 0, 76, 100
1, 136672, Note_on_c, 0, 76, 0
1, 136704, Note_on_c, 0, 72, 100
1, 136704, Note_on_c, 1, 57, 100
1, 136768, Note_on_c, 1, 57, 0
1, 136800, Note_on_c, 1, 69, 100
1, 136832, Note_on_c, 0, 72, 0
1, 136864, Note_on_c, 1, 69, 0
1, 136896, Note_on_c, 0, 76, 100
1, 136896, Note_on_c, 1, 55, 100
1, 136960, Note_on_c, 1, 55, 0
1, 136992, Note_on_c, 1, 67, 100
1, 137024, Note_on_c, 0, 76, 0
1, 137056, Note_on_c, 1, 67, 0
1, 137088, Note_on_c, 0, 78, 100
1, 137088, Note_on_c, 1, 54, 100
1, 137152, Note_on_c, 1, 54, 0
1, 137184, Note_on_c, 1, 66, 100
1, 137216, Note_on_c, 0, 78, 0
1, 137248, Note_on_c, 1, 66, 0
1, 137280, Note_on_c, 0, 79, 100
1, 137280, Note_on_c, 1, 52, 100
1, 137344, Note_on_c, 1, 52, 0
1, 137376, Note_on_c, 1, 64, 100
1, 137408, Note_on_c, 0, 79, 0
1, 137440, Note_on_c, 1, 64, 0
1, 137472, Note_on_c, 1, 54, 100
1, 137568, Note_on_c, 0, 81, 100
1, 137632, Note_on_c, 0, 81, 0
1, 137664, Note_on_c, 0, 79, 100
1, 137728, Note_on_c, 0, 79, 0
1, 137728, Note_on_c, 1, 54, 0
1, 137760, Note_on_c, 0, 78, 100
1, 137824, Note_on_c, 0, 78, 0
1, 137856, Note_on_c, 0, 76, 100
1, 137920, Note_on_c, 0, 76, 0
1, 137952, Note_on_c, 0, 74, 100
1, 138016, Note_on_c, 0, 74, 0
1, 138048, Note_on_c, 0, 76, 100
1, 138112, Note_on_c, 0, 76, 0
1, 138144, Note_on_c, 0, 72, 100
1, 138208, Note_on_c, 0, 72, 0
1, 138240, Note_on_c, 0, 71, 100
1, 138240, Note_on_c, 1, 55, 100
1, 138304, Note_on_c, 1, 55, 0
1, 138336, Note_on_c, 1, 62, 100
1, 138368, Note_on_c, 0, 71, 0
1, 138400, Note_on_c, 1, 62, 0
1, 138432, Note_on_c, 0, 79, 100
1, 138432, Note_on_c, 1, 59, 100
1, 138496, Note_on_c, 1, 59, 0
1, 138528, Note_on_c, 1, 62, 100
1, 138560, Note_on_c, 0, 79, 0
1, 138592, Note_on_c, 1, 62, 0
1, 138624, Note_on_c, 0, 78, 100
1, 138624, Note_on_c, 1, 57, 100
1, 138688, Note_on_c, 1, 57, 0
1, 138720, Note_on_c, 1, 62, 100
1, 138752, Note_on_c, 0, 78, 0
1, 138784, Note_on_c, 1, 62, 0
1, 138816, Note_on_c, 0, 86, 100
1, 138816, Note_on_c, 1, 60, 100
1, 138880, Note_on_c, 1, 60, 0
1, 138912, Note_on_c, 1, 62, 100
1, 138944, Note_on_c, 0, 86, 0
1, 138976, Note_on_c, 1, 62, 0
1, 139008, Note_on_c, 0, 83, 100
1, 139008, Note_on_c, 1, 55, 100
1, 139072, Note_on_c, 1, 55, 0
1, 139104, Note_on_c, 1, 62, 100
1, 139136, Note_on_c, 0, 83, 0
1, 139168, Note_on_c, 1, 62, 0
1, 139200, Note_on_c, 0, 79, 100
1, 139200, Note_on_c, 1, 59, 100
1, 139264, Note_on_c, 1, 59, 0
1, 139296, Note_on_c, 1, 62, 100
1, 139328, Note_on_c, 0, 79, 0
1, 139360, Note_on_c, 1, 62, 0
1, 139392, Note_on_c, 0, 78, 100
1, 139392, Note_on_c, 1, 57, 100
1, 139456, Note_on_c, 1, 57, 0
1, 139488, Note_on_c, 1, 62, 100
1, 139520, Note_on_c, 0, 78, 0
1, 139552, Note_on_c, 1, 62, 0
1, 139584, Note_on_c, 0, 72, 100
1, 139584, Note_on_c, 1, 60, 100
1, 139648, Note_on_c, 1, 60, 0
1, 139680, Note_on_c, 1, 62, 100
1, 139712, Note_on_c, 0, 72, 0
1, 139744, Note_on_c, 1, 62, 0
1, 139776, Note_on_c, 0, 71, 100
1, 139776, Note_on_c, 1, 55, 100
1, 139840, Note_on_c, 1, 55, 0
1, 139872, Note_on_c, 1, 62, 100
1, 139904, Note_on_c, 0, 71, 0
1, 139936, Note_on_c, 1, 62, 0
1, 139968, Note_on_c, 0, 79, 100
1, 139968, Note_on_c, 1, 59, 100
1, 140008, Note_on_c, 0, 79, 0
1, 140032, Note_on_c, 0, 81, 100
1, 140032, Note_on_c, 1, 59, 0
1, 140064, Note_on_c, 1, 62, 100
1, 140072, Note_on_c, 0, 81, 0
1, 140096, Note_on_c, 0, 79, 100
1, 140128, Note_on_c, 1, 62, 0
1, 140136, Note_on_c, 0, 79, 0
1, 140160, Note_on_c, 0, 78, 100
1, 140160, Note_on_c, 1, 57, 100
1, 140224, Note_on_c, 1, 57, 0
1, 140256, Note_on_c, 1, 62, 100
1, 140288, Note_on_c, 0, 78, 0
1, 140320, Note_on_c, 1, 62, 0
1, 140352, Note_on_c, 0, 86, 100
1, 140352, Note_on_c, 1, 60, 100
1, 140416, Note_on_c, 1, 60, 0
1, 140448, Note_on_c, 1, 62, 100
1, 140480, Note_on_c, 0, 86, 0
1, 140512, Note_on_c, 1, 62, 0
1, 140544, Note_on_c, 0, 83, 100
1, 140544, Note_on_c, 1, 55, 100
1, 140608, Note_on_c, 1, 55, 0
1, 140640, Note_on_c, 1, 62, 100
1, 140672, Note_on_c, 0, 83, 0
1, 140704, Note_on_c, 1, 62, 0
1, 140736, Note_on_c, 0, 79, 100
1, 140736, Note_on_c, 1, 59, 100
1, 140800, Note_on_c, 1, 59, 0
1, 140832, Note_on_c, 1, 62, 100
1, 140864, Note_on_c, 0, 79, 0
1, 140896, Note_on_c, 1, 62, 0
1, 140928, Note_on_c, 0, 78, 100
1, 140928, Note_on_c, 1, 57, 100
1, 140992, Note_on_c, 1, 57, 0
1, 141024, Note_on_c, 1, 62, 100
1, 141056, Note_on_c, 0, 78, 0
1, 141088, Note_on_c, 1, 62, 0
1, 141120, Note_on_c, 0, 72, 100
1, 141120, Note_on_c, 1, 60, 100
1, 141184, Note_on_c, 1, 60, 0
1, 141216, Note_on_c, 1, 62, 100
1, 141248, Note_on_c, 0, 72, 0
1, 141280, Note_on_c, 1, 62, 0
1, 141312, Note_on_c, 0, 71, 100
1, 141312, Note_on_c, 1, 55, 100
1, 141376, Note_on_c, 1, 55, 0
1, 141408, Note_on_c, 1, 62, 100
1, 141440, Note_on_c, 0, 71, 0
1, 141472, Note_on_c, 1, 62, 0
1, 141504, Note_on_c, 0, 79, 100
1, 141504, Note_on_c, 1, 59, 100
1, 141568, Note_on_c, 1, 59, 0
1, 141600, Note_on_c, 1, 62, 100
1, 141632, Note_on_c, 0, 79, 0
1, 141664, Note_on_c, 1, 62, 0
1, 141696, Note_on_c, 0, 77, 100
1, 141696, Note_on_c, 1, 59, 100
1, 141760, Note_on_c, 1, 59, 0
1, 141792, Note_on_c, 1, 67, 100
1, 141824, Note_on_c, 0, 77, 0
1, 141856, Note_on_c, 1, 67, 0
1, 141888, Note_on_c, 0, 74, 100
1, 141888, Note_on_c, 1, 62, 100
1, 141952, Note_on_c, 1, 62, 0
1, 141984, Note_on_c, 1, 67, 100
1, 142016, Note_on_c, 0, 74, 0
1, 142048, Note_on_c, 1, 67, 0
1, 142080, Note_on_c, 0, 75, 100
1, 142080, Note_on_c, 1, 60, 100
1, 142144, Note_on_c, 1, 60, 0
1, 142176, Note_on_c, 1, 67, 100
1, 142240, Note_on_c, 1, 67, 0
1, 142272, Note_on_c, 1, 64, 100
1, 142336, Note_on_c, 0, 75, 0
1, 142336, Note_on_c, 1, 64, 0
1, 142368, Note_on_c, 1, 67, 100
1, 142432, Note_on_c, 1, 67, 0
1, 142464, Note_on_c, 0, 76, 100
1, 142464, Note_on_c, 1, 60, 100
1, 142592, Note_on_c, 0, 76, 0
1, 142592, Note_on_c, 1, 60, 0
1, 142656, Note_on_c, 0, 76, 100
1, 142720, Note_on_c, 0, 76, 0
1, 142752, Note_on_c, 0, 72, 100
1, 142816, Note_on_c, 0, 72, 0
1, 142848, Note_on_c, 0, 74, 100
1, 142912, Note_on_c, 0, 74, 0
1, 142944, Note_on_c, 0, 71, 100
1, 143008, Note_on_c, 0, 71, 0
1, 143040, Note_on_c, 0, 72, 100
1, 143104, Note_on_c, 0, 72, 0
1, 143136, Note_on_c, 0, 69, 100
1, 143200, Note_on_c, 0, 69, 0
1, 143232, Note_on_c, 0, 71, 100
1, 143296, Note_on_c, 0, 71, 0
1, 143328, Note_on_c, 0, 67, 100
1, 143392, Note_on_c, 0, 67, 0
1, 143424, Note_on_c, 0, 69, 100
1, 143424, Note_on_c, 1, 50, 100
1, 143488, Note_on_c, 0, 69, 0
1, 143520, Note_on_c, 0, 66, 100
1, 143552, Note_on_c, 1, 50, 0
1, 143584, Note_on_c, 0, 66, 0
1, 143616, Note_on_c, 0, 67, 100
1, 143616, Note_on_c, 1, 52, 100
1, 143680, Note_on_c, 1, 52, 0
1, 143712, Note_on_c, 1, 60, 100
1, 143744, Note_on_c, 0, 67, 0
1, 143776, Note_on_c, 1, 60, 0
1, 143808, Note_on_c, 0, 79, 100
1, 143808, Note_on_c, 1, 55, 100
1, 143872, Note_on_c, 1, 55, 0
1, 143904, Note_on_c, 1, 60, 100
1, 143936, Note_on_c, 0, 79, 0
1, 143968, Note_on_c, 1, 60, 0
1, 144000, Note_on_c, 0, 79, 100
1, 144000, Note_on_c, 1, 52, 100
1, 144064, Note_on_c, 1, 52, 0
1, 144096, Note_on_c, 1, 60, 100
1, 144128, Note_on_c, 0, 79, 0
1, 144160, Note_on_c, 1, 60, 0
1, 144192, Note_on_c, 0, 79, 100
1, 144192, Note_on_c, 1, 55, 100
1, 144224, Note_on_c, 0, 79, 0
1, 144240, Note_on_c, 0, 81, 100
1, 144256, Note_on_c, 1, 55, 0
1, 144272, Note_on_c, 0, 81, 0
1, 144288, Note_on_c, 0, 79, 100
1, 144288, Note_on_c, 1, 60, 100
1, 144320, Note_on_c, 0, 79, 0
1, 144336, Note_on_c, 0, 78, 100
1, 144352, Note_on_c, 1, 60, 0
1, 144368, Note_on_c, 0, 78, 0
1, 144384, Note_on_c, 0, 78, 100
1, 144384, Note_on_c, 1, 50, 100
1, 144448, Note_on_c, 1, 50, 0
1, 144480, Note_on_c, 1, 62, 100
1, 144512, Note_on_c, 0, 78, 0
1, 144544, Note_on_c, 1, 62, 0
1, 144576, Note_on_c, 0, 72, 100
1, 144576, Note_on_c, 1, 54, 100
1, 144640, Note_on_c, 1, 54, 0
1, 144672, Note_on_c, 1, 62, 100
1, 144704, Note_on_c, 0, 72, 0
1, 144736, Note_on_c, 1, 62, 0
1, 144768, Note_on_c, 0, 72, 100
1, 144768, Note_on_c, 1, 50, 100
1, 144832, Note_on_c, 1, 50, 0
1, 144864, Note_on_c, 1, 62, 100
1, 144896, Note_on_c, 0, 72, 0
1, 144928, Note_on_c, 1, 62, 0
1, 144960, Note_on_c, 0, 72, 100
1, 144960, Note_on_c, 1, 54, 100
1, 144992, Note_on_c, 0, 72, 0
1, 145008, Note_on_c, 0, 74, 100
1, 145024, Note_on_c, 1, 54, 0
1, 145040, Note_on_c, 0, 74, 0
1, 145056, Note_on_c, 0, 72, 100
1, 145056, Note_on_c, 1, 62, 100
1, 145088, Note_on_c, 0, 72, 0
1, 145104, Note_on_c, 0, 71, 100
1, 145120, Note_on_c, 1, 62, 0
1, 145136, Note_on_c, 0, 71, 0
1, 145152, Note_on_c, 0, 71, 100
1, 145152, Note_on_c, 1, 55, 100
1, 145216, Note_on_c, 1, 55, 0
1, 145248, Note_on_c, 1, 62, 100
1, 145280, Note_on_c, 0, 71, 0
1, 145312, Note_on_c, 1, 62, 0
1, 145344, Note_on_c, 0, 65, 100
1, 145344, Note_on_c, 1, 59, 100
1, 145408, Note_on_c, 1, 59, 0
1, 145440, Note_on_c, 1, 62, 100
1, 145472, Note_on_c, 0, 65, 0
1, 145504, Note_on_c, 1, 62, 0
1, 145536, Note_on_c, 0, 65, 100
1, 145536, Note_on_c, 1, 55, 100
1, 145600, Note_on_c, 1, 55, 0
1, 145632, Note_on_c, 1, 62, 100
1, 145664, Note_on_c, 0, 65, 0
1, 145696, Note_on_c, 1, 62, 0
1, 145728, Note_on_c, 0, 65, 100
1, 145728, Note_on_c, 1, 59, 100
1, 145760, Note_on_c, 0, 65, 0
1, 145776, Note_on_c, 0, 67, 100
1, 145792, Note_on_c, 1, 59, 0
1, 145808, Note_on_c, 0, 67, 0
1, 145824, Note_on_c, 0, 65, 100
1, 145824, Note_on_c, 1, 62, 100
1, 145856, Note_on_c, 0, 65, 0
1, 145872, Note_on_c, 0, 64, 100
1, 145888, Note_on_c, 1, 62, 0
1, 145904, Note_on_c, 0, 64, 0
1, 145920, Note_on_c, 0, 64, 100
1, 145920, Note_on_c, 1, 60, 100
1, 146048, Note_on_c, 0, 64, 0
1, 146112, Note_on_c, 0, 75, 100
1, 146176, Note_on_c, 0, 75, 0
1, 146176, Note_on_c, 1, 60, 0
1, 146208, Note_on_c, 0, 76, 100
1, 146272, Note_on_c, 0, 76, 0
1, 146304, Note_on_c, 0, 74, 100
1, 146368, Note_on_c, 0, 74, 0
1, 146400, Note_on_c, 0, 72, 100
1, 146464, Note_on_c, 0, 72, 0
1, 146496, Note_on_c, 0, 71, 100
1, 146560, Note_on_c, 0, 71, 0
1, 146592, Note_on_c, 0, 69, 100
1, 146656, Note_on_c, 0, 69, 0
1, 146688, Note_on_c, 0, 67, 100
1, 146880, Note_on_c, 1, 47, 100
1, 146944, Note_on_c, 0, 67, 0
1, 147008, Note_on_c, 1, 47, 0
1, 147072, Note_on_c, 0, 69, 100
1, 147072, Note_on_c, 1, 48, 100
1, 147088, Note_on_c, 0, 69, 0
1, 147096, Note_on_c, 0, 71, 100
1, 147112, Note_on_c, 0, 71, 0
1, 147120, Note_on_c, 0, 69, 100
1, 147136, Note_on_c, 0, 69, 0
1, 147144, Note_on_c, 0, 71, 100
1, 147160, Note_on_c, 0, 71, 0
1, 147168, Note_on_c, 0, 69, 100
1, 147184, Note_on_c, 0, 69, 0
1, 147192, Note_on_c, 0, 71, 100
1, 147200, Note_on_c, 1, 48, 0
1, 147208, Note_on_c, 0, 71, 0
1, 147216, Note_on_c, 0, 69, 100
1, 147232, Note_on_c, 0, 69, 0
1, 147240, Note_on_c, 0, 71, 100
1, 147256, Note_on_c, 0, 71, 0
1, 147264, Note_on_c, 0, 69, 100
1, 147264, Note_on_c, 1, 50, 100
1, 147280, Note_on_c, 0, 69, 0
1, 147288, Note_on_c, 0, 71, 100
1, 147304, Note_on_c, 0, 71, 0
1, 147312, Note_on_c, 0, 69, 100
1, 147328, Note_on_c, 0, 69, 0
1, 147336, Note_on_c, 0, 71, 100
1, 147352, Note_on_c, 0, 71, 0
1, 147360, Note_on_c, 0, 69, 100
1, 147376, Note_on_c, 0, 69, 0
1, 147384, Note_on_c, 0, 71, 100
1, 147392, Note_on_c, 1, 50, 0
1, 147400, Note_on_c, 0, 71, 0
1, 147408, Note_on_c, 0, 69, 100
1, 147424, Note_on_c, 0, 69, 0
1, 147432, Note_on_c, 0, 71, 100
1, 147448, Note_on_c, 0, 71, 0
1, 147456, Note_on_c, 0, 67, 100
1, 147456, Note_on_c, 1, 52, 100
1, 147520, Note_on_c, 1, 52, 0
1, 147552, Note_on_c, 1, 60, 100
1, 147584, Note_on_c, 0, 67, 0
1, 147616, Note_on_c, 1, 60, 0
1, 147648, Note_on_c, 0, 79, 100
1, 147648, Note_on_c, 1, 55, 100
1, 147712, Note_on_c, 1, 55, 0
1, 147744, Note_on_c, 1, 60, 100
1, 147776, Note_on_c, 0, 79, 0
1, 147808, Note_on_c, 1, 60, 0
1, 147840, Note_on_c, 0, 79, 100
1, 147840, Note_on_c, 1, 52, 100
1, 147904, Note_on_c, 1, 52, 0
1, 147936, Note_on_c, 1, 60, 100
1, 147968, Note_on_c, 0, 79, 0
1, 148000, Note_on_c, 1, 60, 0
1, 148032, Note_on_c, 0, 79, 100
1, 148032, Note_on_c, 1, 55, 100
1, 148064, Note_on_c, 0, 79, 0
1, 148080, Note_on_c, 0, 81, 100
1, 148096, Note_on_c, 1, 55, 0
1, 148112, Note_on_c, 0, 81, 0
1, 148128, Note_on_c, 0, 79, 100
1, 148128, Note_on_c, 1, 60, 100
1, 148160, Note_on_c, 0, 79, 0
1, 148176, Note_on_c, 0, 78, 100
1, 148192, Note_on_c, 1, 60, 0
1, 148208, Note_on_c, 0, 78, 0
1, 148224, Note_on_c, 0, 78, 100
1, 148224, Note_on_c, 1, 50, 100
1, 148288, Note_on_c, 1, 50, 0
1, 148320, Note_on_c, 1, 62, 100
1, 148352, Note_on_c, 0, 78, 0
1, 148384, Note_on_c, 1, 62, 0
1, 148416, Note_on_c, 0, 72, 100
1, 148416, Note_on_c, 1, 54, 100
1, 148480, Note_on_c, 1, 54, 0
1, 148512, Note_on_c, 1, 62, 100
1, 148544, Note_on_c, 0, 72, 0
1, 148576, Note_on_c, 1, 62, 0
1, 148608, Note_on_c, 0, 72, 100
1, 148608, Note_on_c, 1, 50, 100
1, 148672, Note_on_c, 1, 50, 0
1, 148704, Note_on_c, 1, 62, 100
1, 148736, Note_on_c, 0, 72, 0
1, 148768, Note_on_c, 1, 62, 0
1, 148800, Note_on_c, 0, 72, 100
1, 148800, Note_on_c, 1, 54, 100
1, 148832, Note_on_c, 0, 72, 0
1, 148848, Note_on_c, 0, 74, 100
1, 148864, Note_on_c, 1, 54, 0
1, 148880, Note_on_c, 0, 74, 0
1, 148896, Note_on_c, 0, 72, 100
1, 148896, Note_on_c, 1, 62, 100
1, 148928, Note_on_c, 0, 72, 0
1, 148944, Note_on_c, 0, 71, 100
1, 148960, Note_on_c, 1, 62, 0
1, 148976, Note_on_c, 0, 71, 0
1, 148992, Note_on_c, 0, 71, 100
1, 148992, Note_on_c, 1, 55, 100
1, 149056, Note_on_c, 1, 55, 0
1, 149088, Note_on_c, 1, 62, 100
1, 149120, Note_on_c, 0, 71, 0
1, 149152, Note_on_c, 1, 62, 0
1, 149184, Note_on_c, 0, 65, 100
1, 149184, Note_on_c, 1, 59, 100
1, 149248, Note_on_c, 1, 59, 0
1, 149280, Note_on_c, 1, 62, 100
1, 149312, Note_on_c, 0, 65, 0
1, 149344, Note_on_c, 1, 62, 0
1, 149376, Note_on_c, 0, 65, 100
1, 149376, Note_on_c, 1, 55, 100
1, 149440, Note_on_c, 1, 55, 0
1, 149472, Note_on_c, 1, 62, 100
1, 149504, Note_on_c, 0, 65, 0
1, 149536, Note_on_c, 1, 62, 0
1, 149568, Note_on_c, 0, 65, 100
1, 149568, Note_on_c, 1, 59, 100
1, 149600, Note_on_c, 0, 65, 0
1, 149616, Note_on_c, 0, 67, 100
1, 149632, Note_on_c, 1, 59, 0
1, 149648, Note_on_c, 0, 67, 0
1, 149664, Note_on_c, 0, 65, 100
1, 149664, Note_on_c, 1, 62, 100
1, 149696, Note_on_c, 0, 65, 0
1, 149712, Note_on_c, 0, 64, 100
1, 149728, Note_on_c, 1, 62, 0
1, 149744, Note_on_c, 0, 64, 0
1, 149760, Note_on_c, 0, 64, 100
1, 149760, Note_on_c, 1, 60, 100
1, 149888, Note_on_c, 0, 64, 0
1, 149952, Note_on_c, 0, 75, 100
1, 150016, Note_on_c, 0, 75, 0
1, 150016, Note_on_c, 1, 60, 0
1, 150048, Note_on_c, 0, 76, 100
1, 150112, Note_on_c, 0, 76, 0
1, 150144, Note_on_c, 0, 74, 100
1, 150208, Note_on_c, 0, 74, 0
1, 150240, Note_on_c, 0, 72, 100
1, 150304, Note_on_c, 0, 72, 0
1, 150336, Note_on_c, 0, 71, 100
1, 150400, Note_on_c, 0, 71, 0
1, 150432, Note_on_c, 0, 69, 100
1, 150496, Note_on_c, 0, 69, 0
1, 150528, Note_on_c, 0, 67, 100
1, 150720, Note_on_c, 1, 47, 100
1, 150784, Note_on_c, 0, 67, 0
1, 150848, Note_on_c, 1, 47, 0
1, 150912, Note_on_c, 0, 69, 100
1, 150912, Note_on_c, 1, 48, 100
1, 150928, Note_on_c, 0, 69, 0
1, 150936, Note_on_c, 0, 71, 100
1, 150952, Note_on_c, 0, 71, 0
1, 150960, Note_on_c, 0, 69, 100
1, 150976, Note_on_c, 0, 69, 0
1, 150984, Note_on_c, 0, 71, 100
1, 151000, Note_on_c, 0, 71, 0
1, 151008, Note_on_c, 0, 69, 100
1, 151024, Note_on_c, 0, 69, 0
1, 151032, Note_on_c, 0, 71, 100
1, 151040, Note_on_c, 1, 48, 0
1, 151048, Note_on_c, 0, 71, 0
1, 151056, Note_on_c, 0, 69, 100
1, 151072, Note_on_c, 0, 69, 0
1, 151080, Note_on_c, 0, 71, 100
1, 151096, Note_on_c, 0, 71, 0
1, 151104, Note_on_c, 0, 69, 100
1, 151104, Note_on_c, 1, 50, 100
1, 151120, Note_on_c, 0, 69, 0
1, 151128, Note_on_c, 0, 71, 100
1, 151144, Note_on_c, 0, 71, 0
1, 151152, Note_on_c, 0, 69, 100
1, 151168, Note_on_c, 0, 69, 0
1, 151176, Note_on_c, 0, 71, 100
1, 151192, Note_on_c, 0, 71, 0
1, 151200, Note_on_c, 0, 69, 100
1, 151216, Note_on_c, 0, 69, 0
1, 151224, Note_on_c, 0, 71, 100
1, 151232, Note_on_c, 1, 50, 0
1, 151240, Note_on_c, 0, 71, 0
1, 151248, Note_on_c, 0, 69, 100
1, 151264, Note_on_c, 0, 69, 0
1, 151272, Note_on_c, 0, 71, 100
1, 151288, Note_on_c, 0, 71, 0
1, 151296, Note_on_c, 0, 71, 100
1, 151296, Note_on_c, 1, 55, 100
1, 151360, Note_on_c, 0, 71, 0
1, 151392, Note_on_c, 0, 67, 100
1, 151424, Note_on_c, 1, 55, 0
1, 151456, Note_on_c, 0, 67, 0
1, 151488, Note_on_c, 0, 79, 100
1, 151488, Note_on_c, 1, 47, 100
1, 151552, Note_on_c, 0, 79, 0
1, 151584, Note_on_c, 0, 74, 100
1, 151616, Note_on_c, 1, 47, 0
1, 151648, Note_on_c, 0, 74, 0
1, 151680, Note_on_c, 0, 76, 100
1, 151680, Note_on_c, 1, 48, 100
1, 151744, Note_on_c, 0, 76, 0
1, 151776, Note_on_c, 0, 71, 100
1, 151808, Note_on_c, 1, 48, 0
1, 151840, Note_on_c, 0, 71, 0
1, 151872, Note_on_c, 0, 72, 100
1, 151936, Note_on_c, 0, 72, 0
1, 151968, Note_on_c, 0, 69, 100
1, 152032, Note_on_c, 0, 69, 0
1, 152064, Note_on_c, 0, 67, 100
1, 152256, Note_on_c, 1, 47, 100
1, 152320, Note_on_c, 0, 67, 0
1, 152384, Note_on_c, 1, 47, 0
1, 152448, Note_on_c, 0, 69, 100
1, 152448, Note_on_c, 1, 48, 100
1, 152464, Note_on_c, 0, 69, 0
1, 152472, Note_on_c, 0, 71, 100
1, 152488, Note_on_c, 0, 71, 0
1, 152496, Note_on_c, 0, 69, 100
1, 152512, Note_on_c, 0, 69, 0
1, 152520, Note_on_c, 0, 71, 100
1, 152536, Note_on_c, 0, 71, 0
1, 152544, Note_on_c, 0, 69, 100
1, 152560, Note_on_c, 0, 69, 0
1, 152568, Note_on_c, 0, 71, 100
1, 152576, Note_on_c, 1, 48, 0
1, 152584, Note_on_c, 0, 71, 0
1, 152592, Note_on_c, 0, 69, 100
1, 152608, Note_on_c, 0, 69, 0
1, 152616, Note_on_c, 0, 71, 100
1, 152632, Note_on_c, 0, 71, 0
1, 152640, Note_on_c, 0, 69, 100
1, 152640, Note_on_c, 1, 50, 100
1, 152656, Note_on_c, 0, 69, 0
1, 152664, Note_on_c, 0, 71, 100
1, 152680, Note_on_c, 0, 71, 0
1, 152688, Note_on_c, 0, 69, 100
1, 152704, Note_on_c, 0, 69, 0
1, 152712, Note_on_c, 0, 71, 100
1, 152728, Note_on_c, 0, 71, 0
1, 152736, Note_on_c, 0, 69, 100
1, 152752, Note_on_c, 0, 69, 0
1, 152760, Note_on_c, 0, 71, 100
1, 152768, Note_on_c, 1, 50, 0
1, 152776, Note_on_c, 0, 71, 0
1, 152784, Note_on_c, 0, 69, 100
1, 152800, Note_on_c, 0, 69, 0
1, 152808, Note_on_c, 0, 71, 100
1, 152824, Note_on_c, 0, 71, 0
1, 152832, Note_on_c, 0, 67, 100
1, 152832, Note_on_c, 1, 43, 100
1, 152896, Note_on_c, 1, 43, 0
1, 152928, Note_on_c, 1, 55, 100
1, 152960, Note_on_c, 0, 67, 0
1, 152992, Note_on_c, 1, 55, 0
1, 153024, Note_on_c, 1, 43, 100
1, 153088, Note_on_c, 1, 43, 0
1, 153120, Note_on_c, 1, 55, 100
1, 153184, Note_on_c, 1, 55, 0
1, 153216, Note_on_c, 0, 72, 100
1, 153216, Note_on_c, 0, 66, 100
1, 153216, Note_on_c, 1, 43, 100
1, 153280, Note_on_c, 1, 43, 0
1, 153312, Note_on_c, 1, 55, 100
1, 153344, Note_on_c, 0, 72, 0
1, 153344, Note_on_c, 0, 66, 0
1, 153376, Note_on_c, 1, 55, 0
1, 153408, Note_on_c, 1, 43, 100
1, 153472, Note_on_c, 1, 43, 0
1, 153504, Note_on_c, 1, 55, 100
1, 153568, Note_on_c, 1, 55, 0
1, 153600, Note_on_c, 0, 71, 100
1, 153600, Note_on_c, 0, 67, 100
1, 153600, Note_on_c, 1, 43, 100
1, 153664, Note_on_c, 1, 43, 0
1, 153696, Note_on_c, 1, 55, 100
1, 153728, Note_on_c, 0, 71, 0
1, 153728, Note_on_c, 0, 67, 0
1, 153760, Note_on_c, 1, 55, 0
1, 153792, Note_on_c, 1, 43, 100
1, 153856, Note_on_c, 1, 43, 0
1, 153888, Note_on_c, 1, 55, 100
1, 153952, Note_on_c, 1, 55, 0
1, 153984, Note_on_c, 0, 66, 100
1, 153984, Note_on_c, 0, 60, 100
1, 153984, Note_on_c, 1, 43, 100
1, 154048, Note_on_c, 1, 43, 0
1, 154080, Note_on_c, 1, 55, 100
1, 154112, Note_on_c, 0, 66, 0
1, 154112, Note_on_c, 0, 60, 0
1, 154144, Note_on_c, 1, 55, 0
1, 154176, Note_on_c, 1, 43, 100
1, 154240, Note_on_c, 1, 43, 0
1, 154272, Note_on_c, 1, 55, 100
1, 154336, Note_on_c, 1, 55, 0
1, 154368, Note_on_c, 0, 67, 100
1, 154368, Note_on_c, 0, 62, 100
1, 154368, Note_on_c, 0, 59, 100
1, 154368, Note_on_c, 1, 55, 100
1, 154368, Note_on_c, 1, 43, 100
1, 154880, Note_on_c, 0, 67, 0
1, 154880, Note_on_c, 0, 62, 0
1, 154880, Note_on_c, 0, 59, 0
1, 154880, Note_on_c, 1, 55, 0
1, 154880, Note_on_c, 1, 43, 0
1, 154890, End_track
0, 0, End_of_file