0, 0, Header, 0, 1, 96
1, 0, Start_track
1, 0, Tempo, 100000
1, 192, Tempo, 428571
1, 192, Note_on_c, 0, 72, 87
1, 288, Note_on_c, 0, 72, 0
1, 288, Note_on_c, 0, 77, 71
1, 288, Note_on_c, 1, 63, 71
1, 288, Note_on_c, 1, 60, 71
1, 311, Note_on_c, 0, 77, 0
1, 312, Note_on_c, 0, 75, 71
1, 327, Note_on_c, 1, 63, 0
1, 327, Note_on_c, 1, 60, 0
1, 335, Note_on_c, 0, 75, 0
1, 336, Note_on_c, 0, 74, 71
1, 359, Note_on_c, 0, 74, 0
1, 360, Note_on_c, 0, 72, 71
1, 383, Note_on_c, 0, 72, 0
1, 384, Note_on_c, 0, 71, 71
1, 384, Note_on_c, 1, 65, 71
1, 384, Note_on_c, 1, 62, 71
1, 423, Note_on_c, 0, 71, 0
1, 423, Note_on_c, 1, 65, 0
1, 423, Note_on_c, 1, 62, 0
1, 480, Note_on_c, 0, 74, 71
1, 569, Note_on_c, 0, 74, 0
1, 576, Note_on_c, 0, 79, 71
1, 576, Note_on_c, 1, 65, 71
1, 576, Note_on_c, 1, 62, 71
1, 599, Note_on_c, 0, 79, 0
1, 600, Note_on_c, 0, 77, 71
1, 615, Note_on_c, 1, 65, 0
1, 615, Note_on_c, 1, 62, 0
1, 623, Note_on_c, 0, 77, 0
1, 624, Note_on_c, 0, 75, 71
1, 647, Note_on_c, 0, 75, 0
1, 648, Note_on_c, 0, 74, 71
1, 671, Note_on_c, 0, 74, 0
1, 672, Note_on_c, 0, 72, 71
1, 672, Note_on_c, 1, 67, 71
1, 672, Note_on_c, 1, 63, 71
1, 711, Note_on_c, 0, 72, 0
1, 711, Note_on_c, 1, 67, 0
1, 711, Note_on_c, 1, 63, 0
1, 768, Note_on_c, 0, 79, 71
1, 835, Note_on_c, 0, 79, 0
1, 840, Note_on_c, 0, 84, 71
1, 863, Note_on_c, 0, 84, 0
1, 864, Note_on_c, 0, 84, 87
1, 864, Note_on_c, 1, 67, 71
1, 864, Note_on_c, 1, 63, 71
1, 936, Note_on_c, 0, 84, 0
1, 936, Note_on_c, 0, 83, 72
1, 953, Note_on_c, 1, 67, 0
1, 953, Note_on_c, 1, 63, 0
1, 959, Note_on_c, 0, 83, 0
1, 960, Note_on_c, 0, 83, 89
1, 960, Note_on_c, 1, 65, 71
1, 960, Note_on_c, 1, 62, 71
1, 1032, Note_on_c, 0, 83, 0
1, 1032, Note_on_c, 0, 80, 75
1, 1049, Note_on_c, 1, 65, 0
1, 1049, Note_on_c, 1, 62, 0
1, 1055, Note_on_c, 0, 80, 0
1, 1056, Note_on_c, 0, 80, 91
1, 1056, Note_on_c, 1, 63, 71
1, 1056, Note_on_c, 1, 60, 71
1, 1128, Note_on_c, 0, 80, 0
1, 1128, Note_on_c, 0, 79, 77
1, 1145, Note_on_c, 1, 63, 0
1, 1145, Note_on_c, 1, 60, 0
1, 1151, Note_on_c, 0, 79, 0
1, 1152, Note_on_c, 0, 79, 94
1, 1152, Note_on_c, 1, 62, 71
1, 1152, Note_on_c, 1, 59, 71
1, 1248, Note_on_c, 1, 62, 0
1, 1248, Note_on_c, 1, 55, 71
1, 1337, Note_on_c, 1, 59, 0
1, 1337, Note_on_c, 1, 55, 0
1, 1344, Note_on_c, 0, 79, 0
1, 1344, Note_on_c, 0, 79, 78
1, 1344, Note_on_c, 1, 67, 71
1, 1344, Note_on_c, 1, 59, 71
1, 1367, Note_on_c, 0, 79, 0
1, 1368, Note_on_c, 0, 77, 78
1, 1383, Note_on_c, 1, 67, 0
1, 1383, Note_on_c, 1, 59, 0
1, 1391, Note_on_c, 0, 77, 0
1, 1392, Note_on_c, 0, 75, 78
1, 1415, Note_on_c, 0, 75, 0
1, 1416, Note_on_c, 0, 74, 78
1, 1439, Note_on_c, 0, 74, 0
1, 1440, Note_on_c, 0, 77, 78
1, 1440, Note_on_c, 1, 67, 71
1, 1440, Note_on_c, 1, 60, 71
1, 1463, Note_on_c, 0, 77, 0
1, 1464, Note_on_c, 0, 75, 78
1, 1479, Note_on_c, 1, 67, 0
1, 1479, Note_on_c, 1, 60, 0
1, 1487, Note_on_c, 0, 75, 0
1, 1488, Note_on_c, 0, 74, 78
1, 1511, Note_on_c, 0, 74, 0
1, 1512, Note_on_c, 0, 72, 78
1, 1535, Note_on_c, 0, 72, 0
1, 1536, Note_on_c, 0, 71, 78
1, 1603, Note_on_c, 0, 71, 0
1, 1608, Note_on_c, 0, 72, 78
1, 1631, Note_on_c, 0, 72, 0
1, 1632, Note_on_c, 0, 74, 78
1, 1632, Note_on_c, 1, 66, 71
1, 1632, Note_on_c, 1, 56, 71
1, 1647, Note_on_c, 0, 74, 0
1, 1648, Note_on_c, 0, 72, 77
1, 1663, Note_on_c, 0, 72, 0
1, 1664, Note_on_c, 0, 74, 77
1, 1679, Note_on_c, 0, 74, 0
1, 1680, Note_on_c, 0, 72, 76
1, 1695, Note_on_c, 0, 72, 0
1, 1696, Note_on_c, 0, 71, 76
1, 1711, Note_on_c, 0, 71, 0
1, 1712, Note_on_c, 0, 72, 75
1, 1726, Note_on_c, 1, 66, 0
1, 1726, Note_on_c, 1, 56, 0
1, 1727, Note_on_c, 0, 72, 0
1, 1728, Note_on_c, 0, 72, 75
1, 1728, Note_on_c, 0, 72, 64
1, 1728, Note_on_c, 1, 67, 71
1, 1728, Note_on_c, 1, 55, 71
1, 1817, Note_on_c, 1, 67, 0
1, 1817, Note_on_c, 1, 55, 0
1, 1824, Note_on_c, 0, 72, 0
1, 1824, Note_on_c, 0, 74, 71
1, 1824, Note_on_c, 0, 72, 0
1, 1824, Note_on_c, 0, 71, 64
1, 1863, Note_on_c, 0, 74, 0
1, 1863, Note_on_c, 0, 71, 0
1, 1920, Note_on_c, 0, 60, 71
1, 2009, Note_on_c, 0, 60, 0
1, 2016, Note_on_c, 0, 65, 71
1, 2039, Note_on_c, 0, 65, 0
1, 2040, Note_on_c, 0, 63, 71
1, 2063, Note_on_c, 0, 63, 0
1, 2064, Note_on_c, 0, 62, 71
1, 2087, Note_on_c, 0, 62, 0
1, 2088, Note_on_c, 0, 60, 71
1, 2111, Note_on_c, 0, 60, 0
1, 2112, Note_on_c, 0, 59, 71
1, 2112, Note_on_c, 1, 53, 71
1, 2112, Note_on_c, 1, 50, 71
1, 2151, Note_on_c, 0, 59, 0
1, 2151, Note_on_c, 1, 53, 0
1, 2151, Note_on_c, 1, 50, 0
1, 2208, Note_on_c, 0, 62, 71
1, 2297, Note_on_c, 0, 62, 0
1, 2304, Note_on_c, 0, 67, 71
1, 2327, Note_on_c, 0, 67, 0
1, 2328, Note_on_c, 0, 65, 71
1, 2351, Note_on_c, 0, 65, 0
1, 2352, Note_on_c, 0, 63, 71
1, 2375, Note_on_c, 0, 63, 0
1, 2376, Note_on_c, 0, 62, 71
1, 2399, Note_on_c, 0, 62, 0
1, 2400, Note_on_c, 0, 60, 71
1, 2400, Note_on_c, 1, 55, 71
1, 2400, Note_on_c, 1, 51, 71
1, 2439, Note_on_c, 0, 60, 0
1, 2439, Note_on_c, 1, 55, 0
1, 2439, Note_on_c, 1, 51, 0
1, 2496, Note_on_c, 0, 72, 71
1, 2519, Note_on_c, 0, 72, 0
1, 2520, Note_on_c, 0, 71, 71
1, 2543, Note_on_c, 0, 71, 0
1, 2544, Note_on_c, 0, 74, 71
1, 2567, Note_on_c, 0, 74, 0
1, 2568, Note_on_c, 0, 72, 71
1, 2591, Note_on_c, 0, 72, 0
1, 2592, Note_on_c, 0, 75, 71
1, 2612, Note_on_c, 0, 75, 0
1, 2640, Note_on_c, 0, 74, 71
1, 2660, Note_on_c, 0, 74, 0
1, 2688, Note_on_c, 0, 72, 71
1, 2708, Note_on_c, 0, 72, 0
1, 2736, Note_on_c, 0, 70, 71
1, 2756, Note_on_c, 0, 70, 0
1, 2784, Note_on_c, 0, 68, 71
1, 2804, Note_on_c, 0, 68, 0
1, 2832, Note_on_c, 0, 67, 71
1, 2852, Note_on_c, 0, 67, 0
1, 2880, Note_on_c, 0, 67, 71
1, 2928, Note_on_c, 0, 67, 0
1, 2928, Note_on_c, 0, 66, 71
1, 2973, Note_on_c, 0, 66, 0
1, 2976, Note_on_c, 0, 74, 72
1, 2976, Note_on_c, 1, 59, 71
1, 2996, Note_on_c, 0, 74, 0
1, 3015, Note_on_c, 1, 59, 0
1, 3024, Note_on_c, 0, 65, 73
1, 3044, Note_on_c, 0, 65, 0
1, 3072, Note_on_c, 0, 65, 75
1, 3072, Note_on_c, 1, 60, 71
1, 3111, Note_on_c, 1, 60, 0
1, 3120, Note_on_c, 0, 65, 0
1, 3120, Note_on_c, 0, 63, 76
1, 3165, Note_on_c, 0, 63, 0
1, 3168, Note_on_c, 1, 53, 71
1, 3216, Note_on_c, 0, 62, 76
1, 3257, Note_on_c, 1, 53, 0
1, 3261, Note_on_c, 0, 62, 0
1, 3264, Note_on_c, 0, 65, 75
1, 3309, Note_on_c, 0, 65, 0
1, 3312, Note_on_c, 0, 68, 74
1, 3357, Note_on_c, 0, 68, 0
1, 3360, Note_on_c, 0, 67, 73
1, 3360, Note_on_c, 1, 55, 71
1, 3405, Note_on_c, 0, 67, 0
1, 3408, Note_on_c, 0, 59, 72
1, 3449, Note_on_c, 1, 55, 0
1, 3453, Note_on_c, 0, 59, 0
1, 3456, Note_on_c, 0, 60, 71
1, 3545, Note_on_c, 0, 60, 0
1, 3552, Note_on_c, 1, 36, 71
1, 3641, Note_on_c, 1, 36, 0
1, 3648, Note_on_c, 1, 48, 78
1, 3671, Note_on_c, 1, 48, 0
1, 3672, Note_on_c, 1, 47, 78
1, 3695, Note_on_c, 1, 47, 0
1, 3696, Note_on_c, 1, 50, 78
1, 3719, Note_on_c, 1, 50, 0
1, 3720, Note_on_c, 1, 48, 78
1, 3743, Note_on_c, 1, 48, 0
1, 3744, Note_on_c, 1, 51, 78
1, 3792, Note_on_c, 0, 75, 78
1, 3833, Note_on_c, 1, 51, 0
1, 3837, Note_on_c, 0, 75, 0
1, 3840, Note_on_c, 0, 74, 78
1, 3885, Note_on_c, 0, 74, 0
1, 3888, Note_on_c, 0, 72, 78
1, 3933, Note_on_c, 0, 72, 0
1, 3936, Note_on_c, 0, 70, 78
1, 3981, Note_on_c, 0, 70, 0
1, 3984, Note_on_c, 0, 68, 78
1, 4029, Note_on_c, 0, 68, 0
1, 4032, Note_on_c, 0, 67, 78
1, 4080, Note_on_c, 1, 63, 78
1, 4125, Note_on_c, 1, 63, 0
1, 4128, Note_on_c, 1, 62, 78
1, 4173, Note_on_c, 1, 62, 0
1, 4176, Note_on_c, 1, 60, 78
1, 4221, Note_on_c, 1, 60, 0
1, 4224, Note_on_c, 1, 58, 78
1, 4269, Note_on_c, 0, 67, 0
1, 4269, Note_on_c, 1, 58, 0
1, 4272, Note_on_c, 0, 68, 78
1, 4272, Note_on_c, 1, 56, 78
1, 4284, Note_on_c, 0, 68, 0
1, 4284, Note_on_c, 0, 67, 78
1, 4296, Note_on_c, 0, 67, 0
1, 4296, Note_on_c, 0, 68, 78
1, 4317, Note_on_c, 0, 68, 0
1, 4317, Note_on_c, 1, 56, 0
1, 4320, Note_on_c, 0, 70, 78
1, 4320, Note_on_c, 1, 55, 78
1, 4365, Note_on_c, 0, 70, 0
1, 4365, Note_on_c, 1, 55, 0
1, 4368, Note_on_c, 0, 67, 78
1, 4368, Note_on_c, 1, 51, 78
1, 4391, Note_on_c, 0, 67, 0
1, 4392, Note_on_c, 0, 70, 78
1, 4413, Note_on_c, 1, 51, 0
1, 4415, Note_on_c, 0, 70, 0
1, 4416, Note_on_c, 0, 65, 78
1, 4416, Note_on_c, 1, 50, 78
1, 4439, Note_on_c, 0, 65, 0
1, 4440, Note_on_c, 0, 70, 78
1, 4461, Note_on_c, 1, 50, 0
1, 4463, Note_on_c, 0, 70, 0
1, 4464, Note_on_c, 0, 63, 78
1, 4464, Note_on_c, 1, 48, 78
1, 4487, Note_on_c, 0, 63, 0
1, 4488, Note_on_c, 0, 70, 78
1, 4509, Note_on_c, 1, 48, 0
1, 4511, Note_on_c, 0, 70, 0
1, 4512, Note_on_c, 0, 62, 78
1, 4512, Note_on_c, 1, 46, 78
1, 4535, Note_on_c, 0, 62, 0
1, 4536, Note_on_c, 0, 70, 78
1, 4557, Note_on_c, 1, 46, 0
1, 4559, Note_on_c, 0, 70, 0
1, 4560, Note_on_c, 0, 60, 78
1, 4560, Note_on_c, 1, 44, 78
1, 4583, Note_on_c, 0, 60, 0
1, 4584, Note_on_c, 0, 70, 78
1, 4605, Note_on_c, 1, 44, 0
1, 4607, Note_on_c, 0, 70, 0
1, 4608, Note_on_c, 0, 58, 78
1, 4608, Note_on_c, 1, 43, 78
1, 4653, Note_on_c, 0, 58, 0
1, 4656, Note_on_c, 0, 75, 79
1, 4697, Note_on_c, 1, 43, 0
1, 4701, Note_on_c, 0, 75, 0
1, 4704, Note_on_c, 0, 79, 80
1, 4749, Note_on_c, 0, 79, 0
1, 4752, Note_on_c, 0, 75, 82
1, 4797, Note_on_c, 0, 75, 0
1, 4800, Note_on_c, 0, 74, 83
1, 4845, Note_on_c, 0, 74, 0
1, 4848, Note_on_c, 0, 72, 84
1, 4893, Note_on_c, 0, 72, 0
1, 4896, Note_on_c, 0, 70, 86
1, 4896, Note_on_c, 1, 53, 78
1, 4944, Note_on_c, 0, 60, 78
1, 4989, Note_on_c, 0, 60, 0
1, 4992, Note_on_c, 0, 70, 0
1, 4992, Note_on_c, 0, 69, 83
1, 4992, Note_on_c, 0, 63, 79
1, 5037, Note_on_c, 0, 63, 0
1, 5040, Note_on_c, 0, 67, 81
1, 5085, Note_on_c, 0, 67, 0
1, 5088, Note_on_c, 0, 65, 82
1, 5133, Note_on_c, 0, 65, 0
1, 5136, Note_on_c, 0, 63, 84
1, 5161, Note_on_c, 1, 53, 0
1, 5169, Note_on_c, 0, 69, 0
1, 5181, Note_on_c, 0, 63, 0
1, 5184, Note_on_c, 0, 63, 86
1, 5184, Note_on_c, 1, 58, 78
1, 5232, Note_on_c, 0, 68, 78
1, 5277, Note_on_c, 0, 68, 0
1, 5280, Note_on_c, 0, 77, 79
1, 5280, Note_on_c, 0, 63, 0
1, 5280, Note_on_c, 0, 62, 83
1, 5325, Note_on_c, 0, 77, 0
1, 5328, Note_on_c, 0, 74, 81
1, 5373, Note_on_c, 0, 74, 0
1, 5376, Note_on_c, 0, 70, 82
1, 5421, Note_on_c, 0, 70, 0
1, 5424, Note_on_c, 0, 68, 84
1, 5449, Note_on_c, 1, 58, 0
1, 5457, Note_on_c, 0, 62, 0
1, 5469, Note_on_c, 0, 68, 0
1, 5472, Note_on_c, 0, 68, 86
1, 5472, Note_on_c, 1, 51, 78
1, 5520, Note_on_c, 0, 58, 78
1, 5565, Note_on_c, 0, 58, 0
1, 5568, Note_on_c, 0, 68, 0
1, 5568, Note_on_c, 0, 67, 83
1, 5568, Note_on_c, 0, 63, 79
1, 5613, Note_on_c, 0, 63, 0
1, 5616, Note_on_c, 0, 65, 81
1, 5661, Note_on_c, 0, 65, 0
1, 5664, Note_on_c, 0, 63, 82
1, 5709, Note_on_c, 0, 63, 0
1, 5712, Note_on_c, 0, 62, 84
1, 5737, Note_on_c, 1, 51, 0
1, 5757, Note_on_c, 0, 62, 0
1, 5760, Note_on_c, 0, 60, 86
1, 5760, Note_on_c, 1, 44, 78
1, 5805, Note_on_c, 0, 67, 0
1, 5808, Note_on_c, 0, 65, 79
1, 5853, Note_on_c, 0, 65, 0
1, 5856, Note_on_c, 0, 72, 80
1, 5901, Note_on_c, 0, 72, 0
1, 5904, Note_on_c, 0, 68, 82
1, 5937, Note_on_c, 1, 44, 0
1, 5949, Note_on_c, 0, 68, 0
1, 5952, Note_on_c, 0, 65, 83
1, 5952, Note_on_c, 1, 45, 78
1, 5997, Note_on_c, 0, 65, 0
1, 6000, Note_on_c, 0, 63, 84
1, 6025, Note_on_c, 0, 60, 0
1, 6041, Note_on_c, 1, 45, 0
1, 6045, Note_on_c, 0, 63, 0
1, 6048, Note_on_c, 0, 62, 86
1, 6048, Note_on_c, 1, 46, 86
1, 6048, Note_on_c, 1, 34, 86
1, 6071, Note_on_c, 0, 62, 0
1, 6072, Note_on_c, 0, 65, 86
1, 6095, Note_on_c, 0, 65, 0
1, 6096, Note_on_c, 0, 63, 86
1, 6119, Note_on_c, 0, 63, 0
1, 6120, Note_on_c, 0, 67, 86
1, 6137, Note_on_c, 1, 46, 0
1, 6137, Note_on_c, 1, 34, 0
1, 6143, Note_on_c, 0, 67, 0
1, 6144, Note_on_c, 0, 65, 86
1, 6144, Note_on_c, 1, 62, 86
1, 6164, Note_on_c, 1, 62, 0
1, 6167, Note_on_c, 0, 65, 0
1, 6168, Note_on_c, 0, 68, 86
1, 6191, Note_on_c, 0, 68, 0
1, 6192, Note_on_c, 0, 67, 86
1, 6192, Note_on_c, 1, 63, 86
1, 6212, Note_on_c, 1, 63, 0
1, 6215, Note_on_c, 0, 67, 0
1, 6216, Note_on_c, 0, 70, 86
1, 6239, Note_on_c, 0, 70, 0
1, 6240, Note_on_c, 0, 68, 86
1, 6240, Note_on_c, 1, 65, 86
1, 6260, Note_on_c, 1, 65, 0
1, 6285, Note_on_c, 0, 68, 0
1, 6336, Note_on_c, 0, 63, 86
1, 6336, Note_on_c, 1, 46, 86
1, 6336, Note_on_c, 1, 34, 86
1, 6359, Note_on_c, 0, 63, 0
1, 6360, Note_on_c, 0, 67, 86
1, 6383, Note_on_c, 0, 67, 0
1, 6384, Note_on_c, 0, 65, 86
1, 6407, Note_on_c, 0, 65, 0
1, 6408, Note_on_c, 0, 68, 86
1, 6425, Note_on_c, 1, 46, 0
1, 6425, Note_on_c, 1, 34, 0
1, 6431, Note_on_c, 0, 68, 0
1, 6432, Note_on_c, 0, 67, 86
1, 6432, Note_on_c, 1, 63, 86
1, 6452, Note_on_c, 1, 63, 0
1, 6455, Note_on_c, 0, 67, 0
1, 6456, Note_on_c, 0, 70, 86
1, 6479, Note_on_c, 0, 70, 0
1, 6480, Note_on_c, 0, 68, 86
1, 6480, Note_on_c, 1, 65, 86
1, 6500, Note_on_c, 1, 65, 0
1, 6503, Note_on_c, 0, 68, 0
1, 6504, Note_on_c, 0, 72, 86
1, 6527, Note_on_c, 0, 72, 0
1, 6528, Note_on_c, 0, 70, 86
1, 6528, Note_on_c, 1, 67, 86
1, 6548, Note_on_c, 1, 67, 0
1, 6573, Note_on_c, 0, 70, 0
1, 6624, Note_on_c, 0, 70, 86
1, 6624, Note_on_c, 1, 46, 86
1, 6624, Note_on_c, 1, 34, 86
1, 6647, Note_on_c, 0, 70, 0
1, 6648, Note_on_c, 0, 74, 86
1, 6671, Note_on_c, 0, 74, 0
1, 6672, Note_on_c, 0, 72, 86
1, 6695, Note_on_c, 0, 72, 0
1, 6696, Note_on_c, 0, 75, 86
1, 6713, Note_on_c, 1, 46, 0
1, 6713, Note_on_c, 1, 34, 0
1, 6719, Note_on_c, 0, 75, 0
1, 6720, Note_on_c, 0, 74, 86
1, 6720, Note_on_c, 1, 58, 86
1, 6740, Note_on_c, 1, 58, 0
1, 6743, Note_on_c, 0, 74, 0
1, 6744, Note_on_c, 0, 77, 86
1, 6767, Note_on_c, 0, 77, 0
1, 6768, Note_on_c, 0, 75, 86
1, 6768, Note_on_c, 1, 60, 86
1, 6788, Note_on_c, 1, 60, 0
1, 6791, Note_on_c, 0, 75, 0
1, 6792, Note_on_c, 0, 79, 86
1, 6815, Note_on_c, 0, 79, 0
1, 6816, Note_on_c, 0, 77, 86
1, 6816, Note_on_c, 1, 62, 86
1, 6836, Note_on_c, 1, 62, 0
1, 6839, Note_on_c, 0, 77, 0
1, 6840, Note_on_c, 0, 80, 86
1, 6863, Note_on_c, 0, 80, 0
1, 6864, Note_on_c, 0, 79, 86
1, 6864, Note_on_c, 1, 63, 86
1, 6884, Note_on_c, 1, 63, 0
1, 6887, Note_on_c, 0, 79, 0
1, 6888, Note_on_c, 0, 82, 86
1, 6911, Note_on_c, 0, 82, 0
1, 6912, Note_on_c, 0, 80, 86
1, 6912, Note_on_c, 1, 65, 86
1, 6935, Note_on_c, 0, 80, 0
1, 6936, Note_on_c, 0, 82, 86
1, 6959, Note_on_c, 0, 82, 0
1, 6960, Note_on_c, 0, 84, 86
1, 6983, Note_on_c, 0, 84, 0
1, 6984, Note_on_c, 0, 82, 86
1, 7001, Note_on_c, 1, 65, 0
1, 7007, Note_on_c, 0, 82, 0
1, 7008, Note_on_c, 0, 80, 86
1, 7031, Note_on_c, 0, 80, 0
1, 7032, Note_on_c, 0, 79, 86
1, 7055, Note_on_c, 0, 79, 0
1, 7056, Note_on_c, 0, 77, 86
1, 7079, Note_on_c, 0, 77, 0
1, 7080, Note_on_c, 0, 75, 86
1, 7103, Note_on_c, 0, 75, 0
1, 7104, Note_on_c, 0, 74, 86
1, 7127, Note_on_c, 0, 74, 0
1, 7128, Note_on_c, 0, 72, 86
1, 7151, Note_on_c, 0, 72, 0
1, 7152, Note_on_c, 0, 70, 86
1, 7175, Note_on_c, 0, 70, 0
1, 7176, Note_on_c, 0, 68, 86
1, 7199, Note_on_c, 0, 68, 0
1, 7200, Note_on_c, 0, 67, 86
1, 7200, Note_on_c, 1, 63, 86
1, 7220, Note_on_c, 1, 63, 0
1, 7223, Note_on_c, 0, 67, 0
1, 7224, Note_on_c, 0, 70, 86
1, 7247, Note_on_c, 0, 70, 0
1, 7248, Note_on_c, 0, 68, 86
1, 7248, Note_on_c, 1, 65, 86
1, 7268, Note_on_c, 1, 65, 0
1, 7271, Note_on_c, 0, 68, 0
1, 7272, Note_on_c, 0, 72, 86
1, 7295, Note_on_c, 0, 72, 0
1, 7296, Note_on_c, 0, 70, 86
1, 7296, Note_on_c, 1, 67, 86
1, 7316, Note_on_c, 1, 67, 0
1, 7319, Note_on_c, 0, 70, 0
1, 7320, Note_on_c, 0, 74, 86
1, 7343, Note_on_c, 0, 74, 0
1, 7344, Note_on_c, 0, 72, 86
1, 7344, Note_on_c, 1, 68, 86
1, 7364, Note_on_c, 1, 68, 0
1, 7367, Note_on_c, 0, 72, 0
1, 7368, Note_on_c, 0, 75, 86
1, 7391, Note_on_c, 0, 75, 0
1, 7392, Note_on_c, 0, 74, 86
1, 7392, Note_on_c, 1, 70, 86
1, 7412, Note_on_c, 1, 70, 0
1, 7415, Note_on_c, 0, 74, 0
1, 7416, Note_on_c, 0, 77, 86
1, 7439, Note_on_c, 0, 77, 0
1, 7440, Note_on_c, 0, 75, 86
1, 7440, Note_on_c, 1, 72, 86
1, 7460, Note_on_c, 1, 72, 0
1, 7463, Note_on_c, 0, 75, 0
1, 7464, Note_on_c, 0, 79, 86
1, 7487, Note_on_c, 0, 79, 0
1, 7488, Note_on_c, 0, 77, 86
1, 7488, Note_on_c, 1, 74, 86
1, 7511, Note_on_c, 0, 77, 0
1, 7512, Note_on_c, 0, 79, 86
1, 7535, Note_on_c, 0, 79, 0
1, 7536, Note_on_c, 0, 80, 86
1, 7559, Note_on_c, 0, 80, 0
1, 7560, Note_on_c, 0, 79, 86
1, 7577, Note_on_c, 1, 74, 0
1, 7583, Note_on_c, 0, 79, 0
1, 7584, Note_on_c, 0, 77, 86
1, 7607, Note_on_c, 0, 77, 0
1, 7608, Note_on_c, 0, 75, 86
1, 7631, Note_on_c, 0, 75, 0
1, 7632, Note_on_c, 0, 74, 86
1, 7655, Note_on_c, 0, 74, 0
1, 7656, Note_on_c, 0, 72, 86
1, 7679, Note_on_c, 0, 72, 0
1, 7680, Note_on_c, 0, 70, 86
1, 7703, Note_on_c, 0, 70, 0
1, 7704, Note_on_c, 0, 68, 86
1, 7727, Note_on_c, 0, 68, 0
1, 7728, Note_on_c, 0, 67, 86
1, 7751, Note_on_c, 0, 67, 0
1, 7752, Note_on_c, 0, 65, 86
1, 7775, Note_on_c, 0, 65, 0
1, 7776, Note_on_c, 0, 63, 86
1, 7776, Note_on_c, 1, 60, 86
1, 7799, Note_on_c, 0, 63, 0
1, 7800, Note_on_c, 0, 62, 86
1, 7815, Note_on_c, 1, 60, 0
1, 7823, Note_on_c, 0, 62, 0
1, 7824, Note_on_c, 0, 63, 86
1, 7847, Note_on_c, 0, 63, 0
1, 7848, Note_on_c, 0, 68, 86
1, 7871, Note_on_c, 0, 68, 0
1, 7872, Note_on_c, 0, 63, 86
1, 7872, Note_on_c, 1, 58, 86
1, 7895, Note_on_c, 0, 63, 0
1, 7896, Note_on_c, 0, 62, 86
1, 7911, Note_on_c, 1, 58, 0
1, 7919, Note_on_c, 0, 62, 0
1, 7920, Note_on_c, 0, 63, 86
1, 7943, Note_on_c, 0, 63, 0
1, 7944, Note_on_c, 0, 67, 86
1, 7967, Note_on_c, 0, 67, 0
1, 7968, Note_on_c, 0, 63, 86
1, 7968, Note_on_c, 1, 56, 86
1, 7991, Note_on_c, 0, 63, 0
1, 7992, Note_on_c, 0, 62, 86
1, 8007, Note_on_c, 1, 56, 0
1, 8015, Note_on_c, 0, 62, 0
1, 8016, Note_on_c, 0, 63, 86
1, 8039, Note_on_c, 0, 63, 0
1, 8040, Note_on_c, 0, 72, 86
1, 8063, Note_on_c, 0, 72, 0
1, 8064, Note_on_c, 0, 63, 86
1, 8064, Note_on_c, 1, 55, 86
1, 8087, Note_on_c, 0, 63, 0
1, 8088, Note_on_c, 0, 62, 86
1, 8103, Note_on_c, 1, 55, 0
1, 8111, Note_on_c, 0, 62, 0
1, 8112, Note_on_c, 0, 63, 86
1, 8135, Note_on_c, 0, 63, 0
1, 8136, Note_on_c, 0, 70, 86
1, 8159, Note_on_c, 0, 70, 0
1, 8160, Note_on_c, 0, 63, 86
1, 8160, Note_on_c, 1, 53, 86
1, 8183, Note_on_c, 0, 63, 0
1, 8184, Note_on_c, 0, 62, 86
1, 8199, Note_on_c, 1, 53, 0
1, 8207, Note_on_c, 0, 62, 0
1, 8208, Note_on_c, 0, 63, 86
1, 8231, Note_on_c, 0, 63, 0
1, 8232, Note_on_c, 0, 68, 86
1, 8255, Note_on_c, 0, 68, 0
1, 8256, Note_on_c, 0, 63, 86
1, 8256, Note_on_c, 1, 51, 86
1, 8279, Note_on_c, 0, 63, 0
1, 8280, Note_on_c, 0, 62, 86
1, 8295, Note_on_c, 1, 51, 0
1, 8303, Note_on_c, 0, 62, 0
1, 8304, Note_on_c, 0, 63, 86
1, 8327, Note_on_c, 0, 63, 0
1, 8328, Note_on_c, 0, 67, 86
1, 8351, Note_on_c, 0, 67, 0
1, 8352, Note_on_c, 0, 63, 86
1, 8352, Note_on_c, 1, 72, 86
1, 8375, Note_on_c, 0, 63, 0
1, 8376, Note_on_c, 0, 62, 86
1, 8399, Note_on_c, 0, 62, 0
1, 8400, Note_on_c, 0, 63, 86
1, 8423, Note_on_c, 0, 63, 0
1, 8424, Note_on_c, 0, 68, 86
1, 8441, Note_on_c, 1, 72, 0
1, 8447, Note_on_c, 0, 68, 0
1, 8448, Note_on_c, 0, 63, 86
1, 8448, Note_on_c, 1, 70, 86
1, 8471, Note_on_c, 0, 63, 0
1, 8472, Note_on_c, 0, 62, 86
1, 8495, Note_on_c, 0, 62, 0
1, 8496, Note_on_c, 0, 63, 86
1, 8519, Note_on_c, 0, 63, 0
1, 8520, Note_on_c, 0, 67, 86
1, 8537, Note_on_c, 1, 70, 0
1, 8543, Note_on_c, 0, 67, 0
1, 8544, Note_on_c, 0, 63, 86
1, 8544, Note_on_c, 1, 75, 86
1, 8567, Note_on_c, 0, 63, 0
1, 8568, Note_on_c, 0, 62, 86
1, 8591, Note_on_c, 0, 62, 0
1, 8592, Note_on_c, 0, 63, 86
1, 8615, Note_on_c, 0, 63, 0
1, 8616, Note_on_c, 0, 72, 86
1, 8633, Note_on_c, 1, 75, 0
1, 8639, Note_on_c, 0, 72, 0
1, 8640, Note_on_c, 0, 63, 86
1, 8640, Note_on_c, 1, 74, 86
1, 8663, Note_on_c, 0, 63, 0
1, 8664, Note_on_c, 0, 62, 86
1, 8687, Note_on_c, 0, 62, 0
1, 8688, Note_on_c, 0, 63, 86
1, 8711, Note_on_c, 0, 63, 0
1, 8712, Note_on_c, 0, 70, 86
1, 8729, Note_on_c, 1, 74, 0
1, 8735, Note_on_c, 0, 70, 0
1, 8736, Note_on_c, 0, 63, 86
1, 8736, Note_on_c, 1, 72, 86
1, 8759, Note_on_c, 0, 63, 0
1, 8760, Note_on_c, 0, 62, 86
1, 8783, Note_on_c, 0, 62, 0
1, 8784, Note_on_c, 0, 63, 86
1, 8807, Note_on_c, 0, 63, 0
1, 8808, Note_on_c, 0, 68, 86
1, 8825, Note_on_c, 1, 72, 0
1, 8831, Note_on_c, 0, 68, 0
1, 8832, Note_on_c, 0, 63, 86
1, 8832, Note_on_c, 1, 70, 86
1, 8855, Note_on_c, 0, 63, 0
1, 8856, Note_on_c, 0, 62, 86
1, 8879, Note_on_c, 0, 62, 0
1, 8880, Note_on_c, 0, 63, 86
1, 8903, Note_on_c, 0, 63, 0
1, 8904, Note_on_c, 0, 67, 86
1, 8921, Note_on_c, 1, 70, 0
1, 8927, Note_on_c, 0, 67, 0
1, 8928, Note_on_c, 0, 63, 86
1, 8928, Note_on_c, 1, 45, 86
1, 8951, Note_on_c, 0, 63, 0
1, 8952, Note_on_c, 0, 62, 86
1, 8967, Note_on_c, 1, 45, 0
1, 8975, Note_on_c, 0, 62, 0
1, 8976, Note_on_c, 0, 63, 86
1, 8999, Note_on_c, 0, 63, 0
1, 9000, Note_on_c, 0, 66, 86
1, 9023, Note_on_c, 0, 66, 0
1, 9024, Note_on_c, 0, 63, 86
1, 9024, Note_on_c, 1, 57, 86
1, 9047, Note_on_c, 0, 63, 0
1, 9048, Note_on_c, 0, 62, 86
1, 9063, Note_on_c, 1, 57, 0
1, 9071, Note_on_c, 0, 62, 0
1, 9072, Note_on_c, 0, 63, 86
1, 9095, Note_on_c, 0, 63, 0
1, 9096, Note_on_c, 0, 66, 86
1, 9119, Note_on_c, 0, 66, 0
1, 9120, Note_on_c, 0, 63, 86
1, 9143, Note_on_c, 0, 63, 0
1, 9144, Note_on_c, 0, 62, 86
1, 9167, Note_on_c, 0, 62, 0
1, 9168, Note_on_c, 0, 63, 86
1, 9191, Note_on_c, 0, 63, 0
1, 9192, Note_on_c, 0, 66, 86
1, 9215, Note_on_c, 0, 66, 0
1, 9216, Note_on_c, 0, 62, 86
1, 9216, Note_on_c, 1, 44, 86
1, 9239, Note_on_c, 0, 62, 0
1, 9240, Note_on_c, 0, 65, 86
1, 9255, Note_on_c, 1, 44, 0
1, 9263, Note_on_c, 0, 65, 0
1, 9264, Note_on_c, 0, 68, 86
1, 9287, Note_on_c, 0, 68, 0
1, 9288, Note_on_c, 0, 72, 86
1, 9311, Note_on_c, 0, 72, 0
1, 9312, Note_on_c, 0, 70, 86
1, 9312, Note_on_c, 1, 56, 86
1, 9335, Note_on_c, 0, 70, 0
1, 9336, Note_on_c, 0, 68, 86
1, 9351, Note_on_c, 1, 56, 0
1, 9359, Note_on_c, 0, 68, 0
1, 9360, Note_on_c, 0, 67, 86
1, 9383, Note_on_c, 0, 67, 0
1, 9384, Note_on_c, 0, 65, 86
1, 9407, Note_on_c, 0, 65, 0
1, 9408, Note_on_c, 0, 63, 86
1, 9431, Note_on_c, 0, 63, 0
1, 9432, Note_on_c, 0, 62, 86
1, 9455, Note_on_c, 0, 62, 0
1, 9456, Note_on_c, 0, 60, 86
1, 9479, Note_on_c, 0, 60, 0
1, 9480, Note_on_c, 0, 58, 86
1, 9503, Note_on_c, 0, 58, 0
1, 9504, Note_on_c, 1, 55, 86
1, 9552, Note_on_c, 0, 63, 78
1, 9593, Note_on_c, 1, 55, 0
1, 9597, Note_on_c, 0, 63, 0
1, 9600, Note_on_c, 0, 67, 78
1, 9645, Note_on_c, 0, 67, 0
1, 9648, Note_on_c, 0, 70, 80
1, 9693, Note_on_c, 0, 70, 0
1, 9696, Note_on_c, 0, 75, 82
1, 9741, Note_on_c, 0, 75, 0
1, 9744, Note_on_c, 0, 82, 86
1, 9744, Note_on_c, 0, 79, 84
1, 9744, Note_on_c, 1, 51, 78
1, 9789, Note_on_c, 1, 51, 0
1, 9792, Note_on_c, 1, 56, 78
1, 9837, Note_on_c, 0, 82, 0
1, 9837, Note_on_c, 0, 79, 0
1, 9840, Note_on_c, 0, 80, 86
1, 9840, Note_on_c, 0, 77, 86
1, 9881, Note_on_c, 1, 56, 0
1, 9888, Note_on_c, 1, 58, 78
1, 9929, Note_on_c, 0, 80, 0
1, 9929, Note_on_c, 0, 77, 0
1, 9936, Note_on_c, 0, 79, 82
1, 9936, Note_on_c, 0, 75, 82
1, 9977, Note_on_c, 1, 58, 0
1, 9984, Note_on_c, 1, 46, 78
1, 10025, Note_on_c, 0, 79, 0
1, 10025, Note_on_c, 0, 75, 0
1, 10032, Note_on_c, 0, 77, 79
1, 10032, Note_on_c, 0, 74, 79
1, 10073, Note_on_c, 1, 46, 0
1, 10077, Note_on_c, 0, 77, 0
1, 10077, Note_on_c, 0, 74, 0
1, 10080, Note_on_c, 0, 75, 78
1, 10080, Note_on_c, 1, 48, 78
1, 10103, Note_on_c, 0, 75, 0
1, 10104, Note_on_c, 0, 68, 78
1, 10125, Note_on_c, 1, 48, 0
1, 10127, Note_on_c, 0, 68, 0
1, 10128, Note_on_c, 0, 67, 78
1, 10128, Note_on_c, 1, 60, 78
1, 10151, Note_on_c, 0, 67, 0
1, 10152, Note_on_c, 0, 68, 78
1, 10173, Note_on_c, 1, 60, 0
1, 10175, Note_on_c, 0, 68, 0
1, 10176, Note_on_c, 0, 74, 78
1, 10176, Note_on_c, 1, 46, 78
1, 10199, Note_on_c, 0, 74, 0
1, 10200, Note_on_c, 0, 67, 78
1, 10221, Note_on_c, 1, 46, 0
1, 10223, Note_on_c, 0, 67, 0
1, 10224, Note_on_c, 0, 66, 78
1, 10224, Note_on_c, 1, 58, 78
1, 10247, Note_on_c, 0, 66, 0
1, 10248, Note_on_c, 0, 67, 78
1, 10269, Note_on_c, 1, 58, 0
1, 10271, Note_on_c, 0, 67, 0
1, 10272, Note_on_c, 0, 72, 78
1, 10272, Note_on_c, 1, 44, 78
1, 10295, Note_on_c, 0, 72, 0
1, 10296, Note_on_c, 0, 65, 78
1, 10317, Note_on_c, 1, 44, 0
1, 10319, Note_on_c, 0, 65, 0
1, 10320, Note_on_c, 0, 64, 78
1, 10320, Note_on_c, 1, 56, 78
1, 10343, Note_on_c, 0, 64, 0
1, 10344, Note_on_c, 0, 65, 78
1, 10365, Note_on_c, 1, 56, 0
1, 10367, Note_on_c, 0, 65, 0
1, 10368, Note_on_c, 0, 70, 78
1, 10368, Note_on_c, 1, 43, 78
1, 10391, Note_on_c, 0, 70, 0
1, 10392, Note_on_c, 0, 63, 78
1, 10413, Note_on_c, 1, 43, 0
1, 10415, Note_on_c, 0, 63, 0
1, 10416, Note_on_c, 0, 62, 78
1, 10416, Note_on_c, 1, 55, 78
1, 10439, Note_on_c, 0, 62, 0
1, 10440, Note_on_c, 0, 63, 78
1, 10461, Note_on_c, 1, 55, 0
1, 10463, Note_on_c, 0, 63, 0
1, 10464, Note_on_c, 0, 68, 78
1, 10464, Note_on_c, 1, 41, 78
1, 10487, Note_on_c, 0, 68, 0
1, 10488, Note_on_c, 0, 62, 78
1, 10509, Note_on_c, 1, 41, 0
1, 10511, Note_on_c, 0, 62, 0
1, 10512, Note_on_c, 0, 61, 78
1, 10512, Note_on_c, 1, 53, 78
1, 10535, Note_on_c, 0, 61, 0
1, 10536, Note_on_c, 0, 62, 78
1, 10557, Note_on_c, 1, 53, 0
1, 10559, Note_on_c, 0, 62, 0
1, 10560, Note_on_c, 0, 67, 78
1, 10560, Note_on_c, 1, 39, 78
1, 10583, Note_on_c, 0, 67, 0
1, 10584, Note_on_c, 0, 63, 78
1, 10605, Note_on_c, 1, 39, 0
1, 10607, Note_on_c, 0, 63, 0
1, 10608, Note_on_c, 0, 62, 78
1, 10608, Note_on_c, 1, 51, 78
1, 10631, Note_on_c, 0, 62, 0
1, 10632, Note_on_c, 0, 63, 78
1, 10653, Note_on_c, 1, 51, 0
1, 10655, Note_on_c, 0, 63, 0
1, 10656, Note_on_c, 1, 44, 78
1, 10704, Note_on_c, 0, 59, 78
1, 10724, Note_on_c, 0, 59, 0
1, 10745, Note_on_c, 1, 44, 0
1, 10752, Note_on_c, 0, 60, 79
1, 10772, Note_on_c, 0, 60, 0
1, 10800, Note_on_c, 0, 62, 81
1, 10820, Note_on_c, 0, 62, 0
1, 10848, Note_on_c, 0, 63, 82
1, 10868, Note_on_c, 0, 63, 0
1, 10896, Note_on_c, 0, 64, 84
1, 10916, Note_on_c, 0, 64, 0
1, 10944, Note_on_c, 0, 65, 86
1, 10964, Note_on_c, 0, 65, 0
1, 10992, Note_on_c, 0, 67, 84
1, 11037, Note_on_c, 0, 67, 0
1, 11040, Note_on_c, 0, 70, 83
1, 11085, Note_on_c, 0, 70, 0
1, 11088, Note_on_c, 0, 68, 82
1, 11133, Note_on_c, 0, 68, 0
1, 11136, Note_on_c, 0, 67, 80
1, 11181, Note_on_c, 0, 67, 0
1, 11184, Note_on_c, 0, 65, 79
1, 11229, Note_on_c, 0, 65, 0
1, 11232, Note_on_c, 0, 67, 78
1, 11232, Note_on_c, 0, 63, 78
1, 11280, Note_on_c, 1, 45, 78
1, 11325, Note_on_c, 1, 45, 0
1, 11328, Note_on_c, 1, 46, 78
1, 11373, Note_on_c, 1, 46, 0
1, 11376, Note_on_c, 1, 45, 78
1, 11421, Note_on_c, 1, 45, 0
1, 11424, Note_on_c, 1, 46, 78
1, 11469, Note_on_c, 1, 46, 0
1, 11472, Note_on_c, 1, 45, 78
1, 11517, Note_on_c, 1, 45, 0
1, 11520, Note_on_c, 1, 46, 78
1, 11565, Note_on_c, 0, 67, 0
1, 11565, Note_on_c, 0, 63, 0
1, 11568, Note_on_c, 0, 70, 78
1, 11568, Note_on_c, 0, 67, 78
1, 11613, Note_on_c, 0, 70, 0
1, 11613, Note_on_c, 0, 67, 0
1, 11616, Note_on_c, 0, 70, 78
1, 11616, Note_on_c, 0, 67, 78
1, 11661, Note_on_c, 0, 70, 0
1, 11661, Note_on_c, 0, 67, 0
1, 11664, Note_on_c, 0, 68, 78
1, 11664, Note_on_c, 0, 65, 78
1, 11709, Note_on_c, 0, 68, 0
1, 11709, Note_on_c, 0, 65, 0
1, 11712, Note_on_c, 0, 67, 78
1, 11712, Note_on_c, 0, 63, 78
1, 11757, Note_on_c, 0, 67, 0
1, 11757, Note_on_c, 0, 63, 0
1, 11760, Note_on_c, 0, 65, 78
1, 11760, Note_on_c, 0, 62, 78
1, 11785, Note_on_c, 1, 46, 0
1, 11805, Note_on_c, 0, 65, 0
1, 11805, Note_on_c, 0, 62, 0
1, 11808, Note_on_c, 0, 63, 78
1, 11808, Note_on_c, 1, 51, 64
1, 11856, Note_on_c, 0, 57, 78
1, 11856, Note_on_c, 1, 54, 78
1, 11901, Note_on_c, 0, 57, 0
1, 11901, Note_on_c, 1, 54, 0
1, 11904, Note_on_c, 0, 58, 79
1, 11904, Note_on_c, 1, 55, 79
1, 11949, Note_on_c, 0, 58, 0
1, 11949, Note_on_c, 1, 55, 0
1, 11952, Note_on_c, 0, 57, 80
1, 11952, Note_on_c, 1, 54, 80
1, 11997, Note_on_c, 0, 57, 0
1, 11997, Note_on_c, 1, 54, 0
1, 12000, Note_on_c, 0, 58, 81
1, 12000, Note_on_c, 1, 55, 81
1, 12045, Note_on_c, 0, 58, 0
1, 12045, Note_on_c, 1, 55, 0
1, 12048, Note_on_c, 0, 57, 82
1, 12048, Note_on_c, 1, 54, 82
1, 12093, Note_on_c, 0, 57, 0
1, 12093, Note_on_c, 1, 54, 0
1, 12096, Note_on_c, 0, 58, 83
1, 12096, Note_on_c, 1, 55, 83
1, 12141, Note_on_c, 0, 58, 0
1, 12141, Note_on_c, 1, 55, 0
1, 12144, Note_on_c, 0, 60, 84
1, 12144, Note_on_c, 1, 57, 84
1, 12189, Note_on_c, 0, 60, 0
1, 12189, Note_on_c, 1, 57, 0
1, 12192, Note_on_c, 0, 61, 85
1, 12192, Note_on_c, 1, 58, 85
1, 12237, Note_on_c, 0, 61, 0
1, 12237, Note_on_c, 1, 58, 0
1, 12240, Note_on_c, 0, 60, 86
1, 12240, Note_on_c, 1, 57, 86
1, 12285, Note_on_c, 0, 60, 0
1, 12285, Note_on_c, 1, 57, 0
1, 12288, Note_on_c, 0, 61, 85
1, 12288, Note_on_c, 1, 58, 85
1, 12333, Note_on_c, 0, 61, 0
1, 12333, Note_on_c, 1, 58, 0
1, 12336, Note_on_c, 0, 60, 84
1, 12336, Note_on_c, 1, 57, 84
1, 12381, Note_on_c, 0, 60, 0
1, 12381, Note_on_c, 1, 57, 0
1, 12384, Note_on_c, 0, 61, 83
1, 12384, Note_on_c, 1, 58, 83
1, 12429, Note_on_c, 0, 61, 0
1, 12429, Note_on_c, 1, 58, 0
1, 12432, Note_on_c, 0, 59, 82
1, 12432, Note_on_c, 1, 55, 82
1, 12477, Note_on_c, 0, 59, 0
1, 12477, Note_on_c, 1, 55, 0
1, 12480, Note_on_c, 0, 60, 81
1, 12480, Note_on_c, 1, 56, 81
1, 12525, Note_on_c, 0, 60, 0
1, 12525, Note_on_c, 1, 56, 0
1, 12528, Note_on_c, 0, 59, 80
1, 12528, Note_on_c, 1, 55, 80
1, 12573, Note_on_c, 0, 59, 0
1, 12573, Note_on_c, 1, 55, 0
1, 12576, Note_on_c, 0, 60, 79
1, 12576, Note_on_c, 1, 56, 79
1, 12621, Note_on_c, 0, 60, 0
1, 12621, Note_on_c, 1, 56, 0
1, 12624, Note_on_c, 0, 59, 78
1, 12624, Note_on_c, 1, 55, 78
1, 12669, Note_on_c, 0, 59, 0
1, 12669, Note_on_c, 1, 55, 0
1, 12672, Note_on_c, 0, 60, 78
1, 12672, Note_on_c, 1, 56, 78
1, 12717, Note_on_c, 0, 63, 0
1, 12717, Note_on_c, 0, 60, 0
1, 12720, Note_on_c, 0, 72, 78
1, 12720, Note_on_c, 0, 68, 78
1, 12765, Note_on_c, 0, 72, 0
1, 12765, Note_on_c, 0, 68, 0
1, 12768, Note_on_c, 0, 70, 78
1, 12768, Note_on_c, 0, 67, 78
1, 12813, Note_on_c, 0, 70, 0
1, 12813, Note_on_c, 0, 67, 0
1, 12816, Note_on_c, 0, 68, 78
1, 12816, Note_on_c, 0, 65, 78
1, 12861, Note_on_c, 0, 68, 0
1, 12861, Note_on_c, 0, 65, 0
1, 12864, Note_on_c, 0, 67, 78
1, 12864, Note_on_c, 0, 63, 78
1, 12909, Note_on_c, 0, 67, 0
1, 12909, Note_on_c, 0, 63, 0
1, 12912, Note_on_c, 0, 65, 78
1, 12912, Note_on_c, 0, 62, 78
1, 12937, Note_on_c, 1, 56, 0
1, 12937, Note_on_c, 1, 51, 0
1, 12957, Note_on_c, 0, 65, 0
1, 12957, Note_on_c, 0, 62, 0
1, 12960, Note_on_c, 0, 65, 78
1, 12960, Note_on_c, 0, 62, 78
1, 12960, Note_on_c, 1, 56, 78
1, 12960, Note_on_c, 1, 51, 78
1, 13248, Note_on_c, 0, 65, 0
1, 13248, Note_on_c, 0, 67, 72
1, 13248, Note_on_c, 0, 62, 0
1, 13248, Note_on_c, 0, 63, 72
1, 13248, Note_on_c, 1, 56, 0
1, 13248, Note_on_c, 1, 55, 72
1, 13342, Note_on_c, 0, 67, 0
1, 13342, Note_on_c, 0, 63, 0
1, 13342, Note_on_c, 1, 55, 0
1, 13342, Note_on_c, 1, 51, 0
1, 13440, Note_on_c, 0, 72, 87
1, 13536, Note_on_c, 0, 72, 0
1, 13536, Note_on_c, 0, 77, 71
1, 13536, Note_on_c, 1, 63, 71
1, 13536, Note_on_c, 1, 60, 71
1, 13559, Note_on_c, 0, 77, 0
1, 13560, Note_on_c, 0, 75, 71
1, 13575, Note_on_c, 1, 63, 0
1, 13575, Note_on_c, 1, 60, 0
1, 13583, Note_on_c, 0, 75, 0
1, 13584, Note_on_c, 0, 74, 71
1, 13607, Note_on_c, 0, 74, 0
1, 13608, Note_on_c, 0, 72, 71
1, 13631, Note_on_c, 0, 72, 0
1, 13632, Note_on_c, 0, 71, 71
1, 13632, Note_on_c, 1, 65, 71
1, 13632, Note_on_c, 1, 62, 71
1, 13671, Note_on_c, 0, 71, 0
1, 13671, Note_on_c, 1, 65, 0
1, 13671, Note_on_c, 1, 62, 0
1, 13728, Note_on_c, 0, 74, 71
1, 13817, Note_on_c, 0, 74, 0
1, 13824, Note_on_c, 0, 79, 71
1, 13824, Note_on_c, 1, 65, 71
1, 13824, Note_on_c, 1, 62, 71
1, 13847, Note_on_c, 0, 79, 0
1, 13848, Note_on_c, 0, 77, 71
1, 13863, Note_on_c, 1, 65, 0
1, 13863, Note_on_c, 1, 62, 0
1, 13871, Note_on_c, 0, 77, 0
1, 13872, Note_on_c, 0, 75, 71
1, 13895, Note_on_c, 0, 75, 0
1, 13896, Note_on_c, 0, 74, 71
1, 13919, Note_on_c, 0, 74, 0
1, 13920, Note_on_c, 0, 72, 71
1, 13920, Note_on_c, 1, 67, 71
1, 13920, Note_on_c, 1, 63, 71
1, 13959, Note_on_c, 0, 72, 0
1, 13959, Note_on_c, 1, 67, 0
1, 13959, Note_on_c, 1, 63, 0
1, 14016, Note_on_c, 0, 79, 71
1, 14083, Note_on_c, 0, 79, 0
1, 14088, Note_on_c, 0, 84, 71
1, 14111, Note_on_c, 0, 84, 0
1, 14112, Note_on_c, 0, 84, 87
1, 14112, Note_on_c, 1, 67, 71
1, 14112, Note_on_c, 1, 63, 71
1, 14184, Note_on_c, 0, 84, 0
1, 14184, Note_on_c, 0, 83, 72
1, 14201, Note_on_c, 1, 67, 0
1, 14201, Note_on_c, 1, 63, 0
1, 14207, Note_on_c, 0, 83, 0
1, 14208, Note_on_c, 0, 83, 89
1, 14208, Note_on_c, 1, 65, 71
1, 14208, Note_on_c, 1, 62, 71
1, 14280, Note_on_c, 0, 83, 0
1, 14280, Note_on_c, 0, 80, 75
1, 14297, Note_on_c, 1, 65, 0
1, 14297, Note_on_c, 1, 62, 0
1, 14303, Note_on_c, 0, 80, 0
1, 14304, Note_on_c, 0, 80, 91
1, 14304, Note_on_c, 1, 63, 71
1, 14304, Note_on_c, 1, 60, 71
1, 14376, Note_on_c, 0, 80, 0
1, 14376, Note_on_c, 0, 79, 77
1, 14393, Note_on_c, 1, 63, 0
1, 14393, Note_on_c, 1, 60, 0
1, 14399, Note_on_c, 0, 79, 0
1, 14400, Note_on_c, 0, 79, 94
1, 14400, Note_on_c, 1, 62, 71
1, 14400, Note_on_c, 1, 59, 71
1, 14496, Note_on_c, 1, 62, 0
1, 14496, Note_on_c, 1, 55, 71
1, 14585, Note_on_c, 1, 59, 0
1, 14585, Note_on_c, 1, 55, 0
1, 14592, Note_on_c, 0, 79, 0
1, 14592, Note_on_c, 0, 79, 78
1, 14592, Note_on_c, 1, 67, 71
1, 14592, Note_on_c, 1, 59, 71
1, 14615, Note_on_c, 0, 79, 0
1, 14616, Note_on_c, 0, 77, 78
1, 14631, Note_on_c, 1, 67, 0
1, 14631, Note_on_c, 1, 59, 0
1, 14639, Note_on_c, 0, 77, 0
1, 14640, Note_on_c, 0, 75, 78
1, 14663, Note_on_c, 0, 75, 0
1, 14664, Note_on_c, 0, 74, 78
1, 14687, Note_on_c, 0, 74, 0
1, 14688, Note_on_c, 0, 77, 78
1, 14688, Note_on_c, 1, 67, 71
1, 14688, Note_on_c, 1, 60, 71
1, 14711, Note_on_c, 0, 77, 0
1, 14712, Note_on_c, 0, 75, 78
1, 14727, Note_on_c, 1, 67, 0
1, 14727, Note_on_c, 1, 60, 0
1, 14735, Note_on_c, 0, 75, 0
1, 14736, Note_on_c, 0, 74, 78
1, 14759, Note_on_c, 0, 74, 0
1, 14760, Note_on_c, 0, 72, 78
1, 14783, Note_on_c, 0, 72, 0
1, 14784, Note_on_c, 0, 71, 78
1, 14851, Note_on_c, 0, 71, 0
1, 14856, Note_on_c, 0, 72, 78
1, 14879, Note_on_c, 0, 72, 0
1, 14880, Note_on_c, 0, 74, 78
1, 14880, Note_on_c, 1, 66, 71
1, 14880, Note_on_c, 1, 56, 71
1, 14895, Note_on_c, 0, 74, 0
1, 14896, Note_on_c, 0, 72, 77
1, 14911, Note_on_c, 0, 72, 0
1, 14912, Note_on_c, 0, 74, 77
1, 14927, Note_on_c, 0, 74, 0
1, 14928, Note_on_c, 0, 72, 76
1, 14943, Note_on_c, 0, 72, 0
1, 14944, Note_on_c, 0, 71, 76
1, 14959, Note_on_c, 0, 71, 0
1, 14960, Note_on_c, 0, 72, 75
1, 14974, Note_on_c, 1, 66, 0
1, 14974, Note_on_c, 1, 56, 0
1, 14975, Note_on_c, 0, 72, 0
1, 14976, Note_on_c, 0, 72, 75
1, 14976, Note_on_c, 0, 72, 64
1, 14976, Note_on_c, 1, 67, 71
1, 14976, Note_on_c, 1, 55, 71
1, 15065, Note_on_c, 1, 67, 0
1, 15065, Note_on_c, 1, 55, 0
1, 15072, Note_on_c, 0, 72, 0
1, 15072, Note_on_c, 0, 74, 71
1, 15072, Note_on_c, 0, 72, 0
1, 15072, Note_on_c, 0, 71, 64
1, 15111, Note_on_c, 0, 74, 0
1, 15111, Note_on_c, 0, 71, 0
1, 15168, Note_on_c, 0, 60, 71
1, 15257, Note_on_c, 0, 60, 0
1, 15264, Note_on_c, 0, 65, 71
1, 15287, Note_on_c, 0, 65, 0
1, 15288, Note_on_c, 0, 63, 71
1, 15311, Note_on_c, 0, 63, 0
1, 15312, Note_on_c, 0, 62, 71
1, 15335, Note_on_c, 0, 62, 0
1, 15336, Note_on_c, 0, 60, 71
1, 15359, Note_on_c, 0, 60, 0
1, 15360, Note_on_c, 0, 59, 71
1, 15360, Note_on_c, 1, 53, 71
1, 15360, Note_on_c, 1, 50, 71
1, 15399, Note_on_c, 0, 59, 0
1, 15399, Note_on_c, 1, 53, 0
1, 15399, Note_on_c, 1, 50, 0
1, 15456, Note_on_c, 0, 62, 71
1, 15545, Note_on_c, 0, 62, 0
1, 15552, Note_on_c, 0, 67, 71
1, 15575, Note_on_c, 0, 67, 0
1, 15576, Note_on_c, 0, 65, 71
1, 15599, Note_on_c, 0, 65, 0
1, 15600, Note_on_c, 0, 63, 71
1, 15623, Note_on_c, 0, 63, 0
1, 15624, Note_on_c, 0, 62, 71
1, 15647, Note_on_c, 0, 62, 0
1, 15648, Note_on_c, 0, 60, 71
1, 15648, Note_on_c, 1, 55, 71
1, 15648, Note_on_c, 1, 51, 71
1, 15687, Note_on_c, 0, 60, 0
1, 15687, Note_on_c, 1, 55, 0
1, 15687, Note_on_c, 1, 51, 0
1, 15744, Note_on_c, 0, 72, 71
1, 15767, Note_on_c, 0, 72, 0
1, 15768, Note_on_c, 0, 71, 71
1, 15791, Note_on_c, 0, 71, 0
1, 15792, Note_on_c, 0, 74, 71
1, 15815, Note_on_c, 0, 74, 0
1, 15816, Note_on_c, 0, 72, 71
1, 15839, Note_on_c, 0, 72, 0
1, 15840, Note_on_c, 0, 75, 71
1, 15860, Note_on_c, 0, 75, 0
1, 15888, Note_on_c, 0, 74, 71
1, 15908, Note_on_c, 0, 74, 0
1, 15936, Note_on_c, 0, 72, 71
1, 15956, Note_on_c, 0, 72, 0
1, 15984, Note_on_c, 0, 70, 71
1, 16004, Note_on_c, 0, 70, 0
1, 16032, Note_on_c, 0, 68, 71
1, 16052, Note_on_c, 0, 68, 0
1, 16080, Note_on_c, 0, 67, 71
1, 16100, Note_on_c, 0, 67, 0
1, 16128, Note_on_c, 0, 67, 71
1, 16176, Note_on_c, 0, 67, 0
1, 16176, Note_on_c, 0, 66, 71
1, 16221, Note_on_c, 0, 66, 0
1, 16224, Note_on_c, 0, 74, 72
1, 16224, Note_on_c, 1, 59, 71
1, 16244, Note_on_c, 0, 74, 0
1, 16263, Note_on_c, 1, 59, 0
1, 16272, Note_on_c, 0, 65, 73
1, 16292, Note_on_c, 0, 65, 0
1, 16320, Note_on_c, 0, 65, 75
1, 16320, Note_on_c, 1, 60, 71
1, 16359, Note_on_c, 1, 60, 0
1, 16368, Note_on_c, 0, 65, 0
1, 16368, Note_on_c, 0, 63, 76
1, 16413, Note_on_c, 0, 63, 0
1, 16416, Note_on_c, 1, 53, 71
1, 16464, Note_on_c, 0, 62, 76
1, 16505, Note_on_c, 1, 53, 0
1, 16509, Note_on_c, 0, 62, 0
1, 16512, Note_on_c, 0, 65, 75
1, 16557, Note_on_c, 0, 65, 0
1, 16560, Note_on_c, 0, 68, 74
1, 16605, Note_on_c, 0, 68, 0
1, 16608, Note_on_c, 0, 67, 73
1, 16608, Note_on_c, 1, 55, 71
1, 16653, Note_on_c, 0, 67, 0
1, 16656, Note_on_c, 0, 59, 72
1, 16697, Note_on_c, 1, 55, 0
1, 16701, Note_on_c, 0, 59, 0
1, 16704, Note_on_c, 0, 60, 71
1, 16793, Note_on_c, 0, 60, 0
1, 16800, Note_on_c, 1, 36, 71
1, 16889, Note_on_c, 1, 36, 0
1, 16896, Note_on_c, 1, 48, 78
1, 16919, Note_on_c, 1, 48, 0
1, 16920, Note_on_c, 1, 47, 78
1, 16943, Note_on_c, 1, 47, 0
1, 16944, Note_on_c, 1, 50, 78
1, 16967, Note_on_c, 1, 50, 0
1, 16968, Note_on_c, 1, 48, 78
1, 16991, Note_on_c, 1, 48, 0
1, 16992, Note_on_c, 1, 51, 78
1, 17040, Note_on_c, 0, 75, 78
1, 17081, Note_on_c, 1, 51, 0
1, 17085, Note_on_c, 0, 75, 0
1, 17088, Note_on_c, 0, 74, 78
1, 17133, Note_on_c, 0, 74, 0
1, 17136, Note_on_c, 0, 72, 78
1, 17181, Note_on_c, 0, 72, 0
1, 17184, Note_on_c, 0, 70, 78
1, 17229, Note_on_c, 0, 70, 0
1, 17232, Note_on_c, 0, 68, 78
1, 17277, Note_on_c, 0, 68, 0
1, 17280, Note_on_c, 0, 67, 78
1, 17328, Note_on_c, 1, 63, 78
1, 17373, Note_on_c, 1, 63, 0
1, 17376, Note_on_c, 1, 62, 78
1, 17421, Note_on_c, 1, 62, 0
1, 17424, Note_on_c, 1, 60, 78
1, 17469, Note_on_c, 1, 60, 0
1, 17472, Note_on_c, 1, 58, 78
1, 17517, Note_on_c, 0, 67, 0
1, 17517, Note_on_c, 1, 58, 0
1, 17520, Note_on_c, 0, 68, 78
1, 17520, Note_on_c, 1, 56, 78
1, 17532, Note_on_c, 0, 68, 0
1, 17532, Note_on_c, 0, 67, 78
1, 17544, Note_on_c, 0, 67, 0
1, 17544, Note_on_c, 0, 68, 78
1, 17565, Note_on_c, 0, 68, 0
1, 17565, Note_on_c, 1, 56, 0
1, 17568, Note_on_c, 0, 70, 78
1, 17568, Note_on_c, 1, 55, 78
1, 17613, Note_on_c, 0, 70, 0
1, 17613, Note_on_c, 1, 55, 0
1, 17616, Note_on_c, 0, 67, 78
1, 17616, Note_on_c, 1, 51, 78
1, 17639, Note_on_c, 0, 67, 0
1, 17640, Note_on_c, 0, 70, 78
1, 17661, Note_on_c, 1, 51, 0
1, 17663, Note_on_c, 0, 70, 0
1, 17664, Note_on_c, 0, 65, 78
1, 17664, Note_on_c, 1, 50, 78
1, 17687, Note_on_c, 0, 65, 0
1, 17688, Note_on_c, 0, 70, 78
1, 17709, Note_on_c, 1, 50, 0
1, 17711, Note_on_c, 0, 70, 0
1, 17712, Note_on_c, 0, 63, 78
1, 17712, Note_on_c, 1, 48, 78
1, 17735, Note_on_c, 0, 63, 0
1, 17736, Note_on_c, 0, 70, 78
1, 17757, Note_on_c, 1, 48, 0
1, 17759, Note_on_c, 0, 70, 0
1, 17760, Note_on_c, 0, 62, 78
1, 17760, Note_on_c, 1, 46, 78
1, 17783, Note_on_c, 0, 62, 0
1, 17784, Note_on_c, 0, 70, 78
1, 17805, Note_on_c, 1, 46, 0
1, 17807, Note_on_c, 0, 70, 0
1, 17808, Note_on_c, 0, 60, 78
1, 17808, Note_on_c, 1, 44, 78
1, 17831, Note_on_c, 0, 60, 0
1, 17832, Note_on_c, 0, 70, 78
1, 17853, Note_on_c, 1, 44, 0
1, 17855, Note_on_c, 0, 70, 0
1, 17856, Note_on_c, 0, 58, 78
1, 17856, Note_on_c, 1, 43, 78
1, 17901, Note_on_c, 0, 58, 0
1, 17904, Note_on_c, 0, 75, 79
1, 17945, Note_on_c, 1, 43, 0
1, 17949, Note_on_c, 0, 75, 0
1, 17952, Note_on_c, 0, 79, 80
1, 17997, Note_on_c, 0, 79, 0
1, 18000, Note_on_c, 0, 75, 82
1, 18045, Note_on_c, 0, 75, 0
1, 18048, Note_on_c, 0, 74, 83
1, 18093, Note_on_c, 0, 74, 0
1, 18096, Note_on_c, 0, 72, 84
1, 18141, Note_on_c, 0, 72, 0
1, 18144, Note_on_c, 0, 70, 86
1, 18144, Note_on_c, 1, 53, 78
1, 18192, Note_on_c, 0, 60, 78
1, 18237, Note_on_c, 0, 60, 0
1, 18240, Note_on_c, 0, 70, 0
1, 18240, Note_on_c, 0, 69, 83
1, 18240, Note_on_c, 0, 63, 79
1, 18285, Note_on_c, 0, 63, 0
1, 18288, Note_on_c, 0, 67, 81
1, 18333, Note_on_c, 0, 67, 0
1, 18336, Note_on_c, 0, 65, 82
1, 18381, Note_on_c, 0, 65, 0
1, 18384, Note_on_c, 0, 63, 84
1, 18409, Note_on_c, 1, 53, 0
1, 18417, Note_on_c, 0, 69, 0
1, 18429, Note_on_c, 0, 63, 0
1, 18432, Note_on_c, 0, 63, 86
1, 18432, Note_on_c, 1, 58, 78
1, 18480, Note_on_c, 0, 68, 78
1, 18525, Note_on_c, 0, 68, 0
1, 18528, Note_on_c, 0, 77, 79
1, 18528, Note_on_c, 0, 63, 0
1, 18528, Note_on_c, 0, 62, 83
1, 18573, Note_on_c, 0, 77, 0
1, 18576, Note_on_c, 0, 74, 81
1, 18621, Note_on_c, 0, 74, 0
1, 18624, Note_on_c, 0, 70, 82
1, 18669, Note_on_c, 0, 70, 0
1, 18672, Note_on_c, 0, 68, 84
1, 18697, Note_on_c, 1, 58, 0
1, 18705, Note_on_c, 0, 62, 0
1, 18717, Note_on_c, 0, 68, 0
1, 18720, Note_on_c, 0, 68, 86
1, 18720, Note_on_c, 1, 51, 78
1, 18768, Note_on_c, 0, 58, 78
1, 18813, Note_on_c, 0, 58, 0
1, 18816, Note_on_c, 0, 68, 0
1, 18816, Note_on_c, 0, 67, 83
1, 18816, Note_on_c, 0, 63, 79
1, 18861, Note_on_c, 0, 63, 0
1, 18864, Note_on_c, 0, 65, 81
1, 18909, Note_on_c, 0, 65, 0
1, 18912, Note_on_c, 0, 63, 82
1, 18957, Note_on_c, 0, 63, 0
1, 18960, Note_on_c, 0, 62, 84
1, 18985, Note_on_c, 1, 51, 0
1, 19005, Note_on_c, 0, 62, 0
1, 19008, Note_on_c, 0, 60, 86
1, 19008, Note_on_c, 1, 44, 78
1, 19053, Note_on_c, 0, 67, 0
1, 19056, Note_on_c, 0, 65, 79
1, 19101, Note_on_c, 0, 65, 0
1, 19104, Note_on_c, 0, 72, 80
1, 19149, Note_on_c, 0, 72, 0
1, 19152, Note_on_c, 0, 68, 82
1, 19185, Note_on_c, 1, 44, 0
1, 19197, Note_on_c, 0, 68, 0
1, 19200, Note_on_c, 0, 65, 83
1, 19200, Note_on_c, 1, 45, 78
1, 19245, Note_on_c, 0, 65, 0
1, 19248, Note_on_c, 0, 63, 84
1, 19273, Note_on_c, 0, 60, 0
1, 19289, Note_on_c, 1, 45, 0
1, 19293, Note_on_c, 0, 63, 0
1, 19296, Note_on_c, 0, 62, 86
1, 19296, Note_on_c, 1, 46, 86
1, 19296, Note_on_c, 1, 34, 86
1, 19319, Note_on_c, 0, 62, 0
1, 19320, Note_on_c, 0, 65, 86
1, 19343, Note_on_c, 0, 65, 0
1, 19344, Note_on_c, 0, 63, 86
1, 19367, Note_on_c, 0, 63, 0
1, 19368, Note_on_c, 0, 67, 86
1, 19385, Note_on_c, 1, 46, 0
1, 19385, Note_on_c, 1, 34, 0
1, 19391, Note_on_c, 0, 67, 0
1, 19392, Note_on_c, 0, 65, 86
1, 19392, Note_on_c, 1, 62, 86
1, 19412, Note_on_c, 1, 62, 0
1, 19415, Note_on_c, 0, 65, 0
1, 19416, Note_on_c, 0, 68, 86
1, 19439, Note_on_c, 0, 68, 0
1, 19440, Note_on_c, 0, 67, 86
1, 19440, Note_on_c, 1, 63, 86
1, 19460, Note_on_c, 1, 63, 0
1, 19463, Note_on_c, 0, 67, 0
1, 19464, Note_on_c, 0, 70, 86
1, 19487, Note_on_c, 0, 70, 0
1, 19488, Note_on_c, 0, 68, 86
1, 19488, Note_on_c, 1, 65, 86
1, 19508, Note_on_c, 1, 65, 0
1, 19533, Note_on_c, 0, 68, 0
1, 19584, Note_on_c, 0, 63, 86
1, 19584, Note_on_c, 1, 46, 86
1, 19584, Note_on_c, 1, 34, 86
1, 19607, Note_on_c, 0, 63, 0
1, 19608, Note_on_c, 0, 67, 86
1, 19631, Note_on_c, 0, 67, 0
1, 19632, Note_on_c, 0, 65, 86
1, 19655, Note_on_c, 0, 65, 0
1, 19656, Note_on_c, 0, 68, 86
1, 19673, Note_on_c, 1, 46, 0
1, 19673, Note_on_c, 1, 34, 0
1, 19679, Note_on_c, 0, 68, 0
1, 19680, Note_on_c, 0, 67, 86
1, 19680, Note_on_c, 1, 63, 86
1, 19700, Note_on_c, 1, 63, 0
1, 19703, Note_on_c, 0, 67, 0
1, 19704, Note_on_c, 0, 70, 86
1, 19727, Note_on_c, 0, 70, 0
1, 19728, Note_on_c, 0, 68, 86
1, 19728, Note_on_c, 1, 65, 86
1, 19748, Note_on_c, 1, 65, 0
1, 19751, Note_on_c, 0, 68, 0
1, 19752, Note_on_c, 0, 72, 86
1, 19775, Note_on_c, 0, 72, 0
1, 19776, Note_on_c, 0, 70, 86
1, 19776, Note_on_c, 1, 67, 86
1, 19796, Note_on_c, 1, 67, 0
1, 19821, Note_on_c, 0, 70, 0
1, 19872, Note_on_c, 0, 70, 86
1, 19872, Note_on_c, 1, 46, 86
1, 19872, Note_on_c, 1, 34, 86
1, 19895, Note_on_c, 0, 70, 0
1, 19896, Note_on_c, 0, 74, 86
1, 19919, Note_on_c, 0, 74, 0
1, 19920, Note_on_c, 0, 72, 86
1, 19943, Note_on_c, 0, 72, 0
1, 19944, Note_on_c, 0, 75, 86
1, 19961, Note_on_c, 1, 46, 0
1, 19961, Note_on_c, 1, 34, 0
1, 19967, Note_on_c, 0, 75, 0
1, 19968, Note_on_c, 0, 74, 86
1, 19968, Note_on_c, 1, 58, 86
1, 19988, Note_on_c, 1, 58, 0
1, 19991, Note_on_c, 0, 74, 0
1, 19992, Note_on_c, 0, 77, 86
1, 20015, Note_on_c, 0, 77, 0
1, 20016, Note_on_c, 0, 75, 86
1, 20016, Note_on_c, 1, 60, 86
1, 20036, Note_on_c, 1, 60, 0
1, 20039, Note_on_c, 0, 75, 0
1, 20040, Note_on_c, 0, 79, 86
1, 20063, Note_on_c, 0, 79, 0
1, 20064, Note_on_c, 0, 77, 86
1, 20064, Note_on_c, 1, 62, 86
1, 20084, Note_on_c, 1, 62, 0
1, 20087, Note_on_c, 0, 77, 0
1, 20088, Note_on_c, 0, 80, 86
1, 20111, Note_on_c, 0, 80, 0
1, 20112, Note_on_c, 0, 79, 86
1, 20112, Note_on_c, 1, 63, 86
1, 20132, Note_on_c, 1, 63, 0
1, 20135, Note_on_c, 0, 79, 0
1, 20136, Note_on_c, 0, 82, 86
1, 20159, Note_on_c, 0, 82, 0
1, 20160, Note_on_c, 0, 80, 86
1, 20160, Note_on_c, 1, 65, 86
1, 20183, Note_on_c, 0, 80, 0
1, 20184, Note_on_c, 0, 82, 86
1, 20207, Note_on_c, 0, 82, 0
1, 20208, Note_on_c, 0, 84, 86
1, 20231, Note_on_c, 0, 84, 0
1, 20232, Note_on_c, 0, 82, 86
1, 20249, Note_on_c, 1, 65, 0
1, 20255, Note_on_c, 0, 82, 0
1, 20256, Note_on_c, 0, 80, 86
1, 20279, Note_on_c, 0, 80, 0
1, 20280, Note_on_c, 0, 79, 86
1, 20303, Note_on_c, 0, 79, 0
1, 20304, Note_on_c, 0, 77, 86
1, 20327, Note_on_c, 0, 77, 0
1, 20328, Note_on_c, 0, 75, 86
1, 20351, Note_on_c, 0, 75, 0
1, 20352, Note_on_c, 0, 74, 86
1, 20375, Note_on_c, 0, 74, 0
1, 20376, Note_on_c, 0, 72, 86
1, 20399, Note_on_c, 0, 72, 0
1, 20400, Note_on_c, 0, 70, 86
1, 20423, Note_on_c, 0, 70, 0
1, 20424, Note_on_c, 0, 68, 86
1, 20447, Note_on_c, 0, 68, 0
1, 20448, Note_on_c, 0, 67, 86
1, 20448, Note_on_c, 1, 63, 86
1, 20468, Note_on_c, 1, 63, 0
1, 20471, Note_on_c, 0, 67, 0
1, 20472, Note_on_c, 0, 70, 86
1, 20495, Note_on_c, 0, 70, 0
1, 20496, Note_on_c, 0, 68, 86
1, 20496, Note_on_c, 1, 65, 86
1, 20516, Note_on_c, 1, 65, 0
1, 20519, Note_on_c, 0, 68, 0
1, 20520, Note_on_c, 0, 72, 86
1, 20543, Note_on_c, 0, 72, 0
1, 20544, Note_on_c, 0, 70, 86
1, 20544, Note_on_c, 1, 67, 86
1, 20564, Note_on_c, 1, 67, 0
1, 20567, Note_on_c, 0, 70, 0
1, 20568, Note_on_c, 0, 74, 86
1, 20591, Note_on_c, 0, 74, 0
1, 20592, Note_on_c, 0, 72, 86
1, 20592, Note_on_c, 1, 68, 86
1, 20612, Note_on_c, 1, 68, 0
1, 20615, Note_on_c, 0, 72, 0
1, 20616, Note_on_c, 0, 75, 86
1, 20639, Note_on_c, 0, 75, 0
1, 20640, Note_on_c, 0, 74, 86
1, 20640, Note_on_c, 1, 70, 86
1, 20660, Note_on_c, 1, 70, 0
1, 20663, Note_on_c, 0, 74, 0
1, 20664, Note_on_c, 0, 77, 86
1, 20687, Note_on_c, 0, 77, 0
1, 20688, Note_on_c, 0, 75, 86
1, 20688, Note_on_c, 1, 72, 86
1, 20708, Note_on_c, 1, 72, 0
1, 20711, Note_on_c, 0, 75, 0
1, 20712, Note_on_c, 0, 79, 86
1, 20735, Note_on_c, 0, 79, 0
1, 20736, Note_on_c, 0, 77, 86
1, 20736, Note_on_c, 1, 74, 86
1, 20759, Note_on_c, 0, 77, 0
1, 20760, Note_on_c, 0, 79, 86
1, 20783, Note_on_c, 0, 79, 0
1, 20784, Note_on_c, 0, 80, 86
1, 20807, Note_on_c, 0, 80, 0
1, 20808, Note_on_c, 0, 79, 86
1, 20825, Note_on_c, 1, 74, 0
1, 20831, Note_on_c, 0, 79, 0
1, 20832, Note_on_c, 0, 77, 86
1, 20855, Note_on_c, 0, 77, 0
1, 20856, Note_on_c, 0, 75, 86
1, 20879, Note_on_c, 0, 75, 0
1, 20880, Note_on_c, 0, 74, 86
1, 20903, Note_on_c, 0, 74, 0
1, 20904, Note_on_c, 0, 72, 86
1, 20927, Note_on_c, 0, 72, 0
1, 20928, Note_on_c, 0, 70, 86
1, 20951, Note_on_c, 0, 70, 0
1, 20952, Note_on_c, 0, 68, 86
1, 20975, Note_on_c, 0, 68, 0
1, 20976, Note_on_c, 0, 67, 86
1, 20999, Note_on_c, 0, 67, 0
1, 21000, Note_on_c, 0, 65, 86
1, 21023, Note_on_c, 0, 65, 0
1, 21024, Note_on_c, 0, 63, 86
1, 21024, Note_on_c, 1, 60, 86
1, 21047, Note_on_c, 0, 63, 0
1, 21048, Note_on_c, 0, 62, 86
1, 21063, Note_on_c, 1, 60, 0
1, 21071, Note_on_c, 0, 62, 0
1, 21072, Note_on_c, 0, 63, 86
1, 21095, Note_on_c, 0, 63, 0
1, 21096, Note_on_c, 0, 68, 86
1, 21119, Note_on_c, 0, 68, 0
1, 21120, Note_on_c, 0, 63, 86
1, 21120, Note_on_c, 1, 58, 86
1, 21143, Note_on_c, 0, 63, 0
1, 21144, Note_on_c, 0, 62, 86
1, 21159, Note_on_c, 1, 58, 0
1, 21167, Note_on_c, 0, 62, 0
1, 21168, Note_on_c, 0, 63, 86
1, 21191, Note_on_c, 0, 63, 0
1, 21192, Note_on_c, 0, 67, 86
1, 21215, Note_on_c, 0, 67, 0
1, 21216, Note_on_c, 0, 63, 86
1, 21216, Note_on_c, 1, 56, 86
1, 21239, Note_on_c, 0, 63, 0
1, 21240, Note_on_c, 0, 62, 86
1, 21255, Note_on_c, 1, 56, 0
1, 21263, Note_on_c, 0, 62, 0
1, 21264, Note_on_c, 0, 63, 86
1, 21287, Note_on_c, 0, 63, 0
1, 21288, Note_on_c, 0, 72, 86
1, 21311, Note_on_c, 0, 72, 0
1, 21312, Note_on_c, 0, 63, 86
1, 21312, Note_on_c, 1, 55, 86
1, 21335, Note_on_c, 0, 63, 0
1, 21336, Note_on_c, 0, 62, 86
1, 21351, Note_on_c, 1, 55, 0
1, 21359, Note_on_c, 0, 62, 0
1, 21360, Note_on_c, 0, 63, 86
1, 21383, Note_on_c, 0, 63, 0
1, 21384, Note_on_c, 0, 70, 86
1, 21407, Note_on_c, 0, 70, 0
1, 21408, Note_on_c, 0, 63, 86
1, 21408, Note_on_c, 1, 53, 86
1, 21431, Note_on_c, 0, 63, 0
1, 21432, Note_on_c, 0, 62, 86
1, 21447, Note_on_c, 1, 53, 0
1, 21455, Note_on_c, 0, 62, 0
1, 21456, Note_on_c, 0, 63, 86
1, 21479, Note_on_c, 0, 63, 0
1, 21480, Note_on_c, 0, 68, 86
1, 21503, Note_on_c, 0, 68, 0
1, 21504, Note_on_c, 0, 63, 86
1, 21504, Note_on_c, 1, 51, 86
1, 21527, Note_on_c, 0, 63, 0
1, 21528, Note_on_c, 0, 62, 86
1, 21543, Note_on_c, 1, 51, 0
1, 21551, Note_on_c, 0, 62, 0
1, 21552, Note_on_c, 0, 63, 86
1, 21575, Note_on_c, 0, 63, 0
1, 21576, Note_on_c, 0, 67, 86
1, 21599, Note_on_c, 0, 67, 0
1, 21600, Note_on_c, 0, 63, 86
1, 21600, Note_on_c, 1, 72, 86
1, 21623, Note_on_c, 0, 63, 0
1, 21624, Note_on_c, 0, 62, 86
1, 21647, Note_on_c, 0, 62, 0
1, 21648, Note_on_c, 0, 63, 86
1, 21671, Note_on_c, 0, 63, 0
1, 21672, Note_on_c, 0, 68, 86
1, 21689, Note_on_c, 1, 72, 0
1, 21695, Note_on_c, 0, 68, 0
1, 21696, Note_on_c, 0, 63, 86
1, 21696, Note_on_c, 1, 70, 86
1, 21719, Note_on_c, 0, 63, 0
1, 21720, Note_on_c, 0, 62, 86
1, 21743, Note_on_c, 0, 62, 0
1, 21744, Note_on_c, 0, 63, 86
1, 21767, Note_on_c, 0, 63, 0
1, 21768, Note_on_c, 0, 67, 86
1, 21785, Note_on_c, 1, 70, 0
1, 21791, Note_on_c, 0, 67, 0
1, 21792, Note_on_c, 0, 63, 86
1, 21792, Note_on_c, 1, 75, 86
1, 21815, Note_on_c, 0, 63, 0
1, 21816, Note_on_c, 0, 62, 86
1, 21839, Note_on_c, 0, 62, 0
1, 21840, Note_on_c, 0, 63, 86
1, 21863, Note_on_c, 0, 63, 0
1, 21864, Note_on_c, 0, 72, 86
1, 21881, Note_on_c, 1, 75, 0
1, 21887, Note_on_c, 0, 72, 0
1, 21888, Note_on_c, 0, 63, 86
1, 21888, Note_on_c, 1, 74, 86
1, 21911, Note_on_c, 0, 63, 0
1, 21912, Note_on_c, 0, 62, 86
1, 21935, Note_on_c, 0, 62, 0
1, 21936, Note_on_c, 0, 63, 86
1, 21959, Note_on_c, 0, 63, 0
1, 21960, Note_on_c, 0, 70, 86
1, 21977, Note_on_c, 1, 74, 0
1, 21983, Note_on_c, 0, 70, 0
1, 21984, Note_on_c, 0, 63, 86
1, 21984, Note_on_c, 1, 72, 86
1, 22007, Note_on_c, 0, 63, 0
1, 22008, Note_on_c, 0, 62, 86
1, 22031, Note_on_c, 0, 62, 0
1, 22032, Note_on_c, 0, 63, 86
1, 22055, Note_on_c, 0, 63, 0
1, 22056, Note_on_c, 0, 68, 86
1, 22073, Note_on_c, 1, 72, 0
1, 22079, Note_on_c, 0, 68, 0
1, 22080, Note_on_c, 0, 63, 86
1, 22080, Note_on_c, 1, 70, 86
1, 22103, Note_on_c, 0, 63, 0
1, 22104, Note_on_c, 0, 62, 86
1, 22127, Note_on_c, 0, 62, 0
1, 22128, Note_on_c, 0, 63, 86
1, 22151, Note_on_c, 0, 63, 0
1, 22152, Note_on_c, 0, 67, 86
1, 22169, Note_on_c, 1, 70, 0
1, 22175, Note_on_c, 0, 67, 0
1, 22176, Note_on_c, 0, 63, 86
1, 22176, Note_on_c, 1, 45, 86
1, 22199, Note_on_c, 0, 63, 0
1, 22200, Note_on_c, 0, 62, 86
1, 22215, Note_on_c, 1, 45, 0
1, 22223, Note_on_c, 0, 62, 0
1, 22224, Note_on_c, 0, 63, 86
1, 22247, Note_on_c, 0, 63, 0
1, 22248, Note_on_c, 0, 66, 86
1, 22271, Note_on_c, 0, 66, 0
1, 22272, Note_on_c, 0, 63, 86
1, 22272, Note_on_c, 1, 57, 86
1, 22295, Note_on_c, 0, 63, 0
1, 22296, Note_on_c, 0, 62, 86
1, 22311, Note_on_c, 1, 57, 0
1, 22319, Note_on_c, 0, 62, 0
1, 22320, Note_on_c, 0, 63, 86
1, 22343, Note_on_c, 0, 63, 0
1, 22344, Note_on_c, 0, 66, 86
1, 22367, Note_on_c, 0, 66, 0
1, 22368, Note_on_c, 0, 63, 86
1, 22391, Note_on_c, 0, 63, 0
1, 22392, Note_on_c, 0, 62, 86
1, 22415, Note_on_c, 0, 62, 0
1, 22416, Note_on_c, 0, 63, 86
1, 22439, Note_on_c, 0, 63, 0
1, 22440, Note_on_c, 0, 66, 86
1, 22463, Note_on_c, 0, 66, 0
1, 22464, Note_on_c, 0, 62, 86
1, 22464, Note_on_c, 1, 44, 86
1, 22487, Note_on_c, 0, 62, 0
1, 22488, Note_on_c, 0, 65, 86
1, 22503, Note_on_c, 1, 44, 0
1, 22511, Note_on_c, 0, 65, 0
1, 22512, Note_on_c, 0, 68, 86
1, 22535, Note_on_c, 0, 68, 0
1, 22536, Note_on_c, 0, 72, 86
1, 22559, Note_on_c, 0, 72, 0
1, 22560, Note_on_c, 0, 70, 86
1, 22560, Note_on_c, 1, 56, 86
1, 22583, Note_on_c, 0, 70, 0
1, 22584, Note_on_c, 0, 68, 86
1, 22599, Note_on_c, 1, 56, 0
1, 22607, Note_on_c, 0, 68, 0
1, 22608, Note_on_c, 0, 67, 86
1, 22631, Note_on_c, 0, 67, 0
1, 22632, Note_on_c, 0, 65, 86
1, 22655, Note_on_c, 0, 65, 0
1, 22656, Note_on_c, 0, 63, 86
1, 22679, Note_on_c, 0, 63, 0
1, 22680, Note_on_c, 0, 62, 86
1, 22703, Note_on_c, 0, 62, 0
1, 22704, Note_on_c, 0, 60, 86
1, 22727, Note_on_c, 0, 60, 0
1, 22728, Note_on_c, 0, 58, 86
1, 22751, Note_on_c, 0, 58, 0
1, 22752, Note_on_c, 1, 55, 86
1, 22800, Note_on_c, 0, 63, 78
1, 22841, Note_on_c, 1, 55, 0
1, 22845, Note_on_c, 0, 63, 0
1, 22848, Note_on_c, 0, 67, 78
1, 22893, Note_on_c, 0, 67, 0
1, 22896, Note_on_c, 0, 70, 80
1, 22941, Note_on_c, 0, 70, 0
1, 22944, Note_on_c, 0, 75, 82
1, 22989, Note_on_c, 0, 75, 0
1, 22992, Note_on_c, 0, 82, 86
1, 22992, Note_on_c, 0, 79, 84
1, 22992, Note_on_c, 1, 51, 78
1, 23037, Note_on_c, 1, 51, 0
1, 23040, Note_on_c, 1, 56, 78
1, 23085, Note_on_c, 0, 82, 0
1, 23085, Note_on_c, 0, 79, 0
1, 23088, Note_on_c, 0, 80, 86
1, 23088, Note_on_c, 0, 77, 86
1, 23129, Note_on_c, 1, 56, 0
1, 23136, Note_on_c, 1, 58, 78
1, 23177, Note_on_c, 0, 80, 0
1, 23177, Note_on_c, 0, 77, 0
1, 23184, Note_on_c, 0, 79, 82
1, 23184, Note_on_c, 0, 75, 82
1, 23225, Note_on_c, 1, 58, 0
1, 23232, Note_on_c, 1, 46, 78
1, 23273, Note_on_c, 0, 79, 0
1, 23273, Note_on_c, 0, 75, 0
1, 23280, Note_on_c, 0, 77, 79
1, 23280, Note_on_c, 0, 74, 79
1, 23321, Note_on_c, 1, 46, 0
1, 23325, Note_on_c, 0, 77, 0
1, 23325, Note_on_c, 0, 74, 0
1, 23328, Note_on_c, 0, 75, 78
1, 23328, Note_on_c, 1, 48, 78
1, 23351, Note_on_c, 0, 75, 0
1, 23352, Note_on_c, 0, 68, 78
1, 23373, Note_on_c, 1, 48, 0
1, 23375, Note_on_c, 0, 68, 0
1, 23376, Note_on_c, 0, 67, 78
1, 23376, Note_on_c, 1, 60, 78
1, 23399, Note_on_c, 0, 67, 0
1, 23400, Note_on_c, 0, 68, 78
1, 23421, Note_on_c, 1, 60, 0
1, 23423, Note_on_c, 0, 68, 0
1, 23424, Note_on_c, 0, 74, 78
1, 23424, Note_on_c, 1, 46, 78
1, 23447, Note_on_c, 0, 74, 0
1, 23448, Note_on_c, 0, 67, 78
1, 23469, Note_on_c, 1, 46, 0
1, 23471, Note_on_c, 0, 67, 0
1, 23472, Note_on_c, 0, 66, 78
1, 23472, Note_on_c, 1, 58, 78
1, 23495, Note_on_c, 0, 66, 0
1, 23496, Note_on_c, 0, 67, 78
1, 23517, Note_on_c, 1, 58, 0
1, 23519, Note_on_c, 0, 67, 0
1, 23520, Note_on_c, 0, 72, 78
1, 23520, Note_on_c, 1, 44, 78
1, 23543, Note_on_c, 0, 72, 0
1, 23544, Note_on_c, 0, 65, 78
1, 23565, Note_on_c, 1, 44, 0
1, 23567, Note_on_c, 0, 65, 0
1, 23568, Note_on_c, 0, 64, 78
1, 23568, Note_on_c, 1, 56, 78
1, 23591, Note_on_c, 0, 64, 0
1, 23592, Note_on_c, 0, 65, 78
1, 23613, Note_on_c, 1, 56, 0
1, 23615, Note_on_c, 0, 65, 0
1, 23616, Note_on_c, 0, 70, 78
1, 23616, Note_on_c, 1, 43, 78
1, 23639, Note_on_c, 0, 70, 0
1, 23640, Note_on_c, 0, 63, 78
1, 23661, Note_on_c, 1, 43, 0
1, 23663, Note_on_c, 0, 63, 0
1, 23664, Note_on_c, 0, 62, 78
1, 23664, Note_on_c, 1, 55, 78
1, 23687, Note_on_c, 0, 62, 0
1, 23688, Note_on_c, 0, 63, 78
1, 23709, Note_on_c, 1, 55, 0
1, 23711, Note_on_c, 0, 63, 0
1, 23712, Note_on_c, 0, 68, 78
1, 23712, Note_on_c, 1, 41, 78
1, 23735, Note_on_c, 0, 68, 0
1, 23736, Note_on_c, 0, 62, 78
1, 23757, Note_on_c, 1, 41, 0
1, 23759, Note_on_c, 0, 62, 0
1, 23760, Note_on_c, 0, 61, 78
1, 23760, Note_on_c, 1, 53, 78
1, 23783, Note_on_c, 0, 61, 0
1, 23784, Note_on_c, 0, 62, 78
1, 23805, Note_on_c, 1, 53, 0
1, 23807, Note_on_c, 0, 62, 0
1, 23808, Note_on_c, 0, 67, 78
1, 23808, Note_on_c, 1, 39, 78
1, 23831, Note_on_c, 0, 67, 0
1, 23832, Note_on_c, 0, 63, 78
1, 23853, Note_on_c, 1, 39, 0
1, 23855, Note_on_c, 0, 63, 0
1, 23856, Note_on_c, 0, 62, 78
1, 23856, Note_on_c, 1, 51, 78
1, 23879, Note_on_c, 0, 62, 0
1, 23880, Note_on_c, 0, 63, 78
1, 23901, Note_on_c, 1, 51, 0
1, 23903, Note_on_c, 0, 63, 0
1, 23904, Note_on_c, 1, 44, 78
1, 23952, Note_on_c, 0, 59, 78
1, 23972, Note_on_c, 0, 59, 0
1, 23993, Note_on_c, 1, 44, 0
1, 24000, Note_on_c, 0, 60, 79
1, 24020, Note_on_c, 0, 60, 0
1, 24048, Note_on_c, 0, 62, 81
1, 24068, Note_on_c, 0, 62, 0
1, 24096, Note_on_c, 0, 63, 82
1, 24116, Note_on_c, 0, 63, 0
1, 24144, Note_on_c, 0, 64, 84
1, 24164, Note_on_c, 0, 64, 0
1, 24192, Note_on_c, 0, 65, 86
1, 24212, Note_on_c, 0, 65, 0
1, 24240, Note_on_c, 0, 67, 84
1, 24285, Note_on_c, 0, 67, 0
1, 24288, Note_on_c, 0, 70, 83
1, 24333, Note_on_c, 0, 70, 0
1, 24336, Note_on_c, 0, 68, 82
1, 24381, Note_on_c, 0, 68, 0
1, 24384, Note_on_c, 0, 67, 80
1, 24429, Note_on_c, 0, 67, 0
1, 24432, Note_on_c, 0, 65, 79
1, 24477, Note_on_c, 0, 65, 0
1, 24480, Note_on_c, 0, 67, 78
1, 24480, Note_on_c, 0, 63, 78
1, 24528, Note_on_c, 1, 45, 78
1, 24573, Note_on_c, 1, 45, 0
1, 24576, Note_on_c, 1, 46, 78
1, 24621, Note_on_c, 1, 46, 0
1, 24624, Note_on_c, 1, 45, 78
1, 24669, Note_on_c, 1, 45, 0
1, 24672, Note_on_c, 1, 46, 78
1, 24717, Note_on_c, 1, 46, 0
1, 24720, Note_on_c, 1, 45, 78
1, 24765, Note_on_c, 1, 45, 0
1, 24768, Note_on_c, 1, 46, 78
1, 24813, Note_on_c, 0, 67, 0
1, 24813, Note_on_c, 0, 63, 0
1, 24816, Note_on_c, 0, 70, 78
1, 24816, Note_on_c, 0, 67, 78
1, 24861, Note_on_c, 0, 70, 0
1, 24861, Note_on_c, 0, 67, 0
1, 24864, Note_on_c, 0, 70, 78
1, 24864, Note_on_c, 0, 67, 78
1, 24909, Note_on_c, 0, 70, 0
1, 24909, Note_on_c, 0, 67, 0
1, 24912, Note_on_c, 0, 68, 78
1, 24912, Note_on_c, 0, 65, 78
1, 24957, Note_on_c, 0, 68, 0
1, 24957, Note_on_c, 0, 65, 0
1, 24960, Note_on_c, 0, 67, 78
1, 24960, Note_on_c, 0, 63, 78
1, 25005, Note_on_c, 0, 67, 0
1, 25005, Note_on_c, 0, 63, 0
1, 25008, Note_on_c, 0, 65, 78
1, 25008, Note_on_c, 0, 62, 78
1, 25033, Note_on_c, 1, 46, 0
1, 25053, Note_on_c, 0, 65, 0
1, 25053, Note_on_c, 0, 62, 0
1, 25056, Note_on_c, 0, 63, 78
1, 25056, Note_on_c, 1, 51, 64
1, 25104, Note_on_c, 0, 57, 78
1, 25104, Note_on_c, 1, 54, 78
1, 25149, Note_on_c, 0, 57, 0
1, 25149, Note_on_c, 1, 54, 0
1, 25152, Note_on_c, 0, 58, 79
1, 25152, Note_on_c, 1, 55, 79
1, 25197, Note_on_c, 0, 58, 0
1, 25197, Note_on_c, 1, 55, 0
1, 25200, Note_on_c, 0, 57, 80
1, 25200, Note_on_c, 1, 54, 80
1, 25245, Note_on_c, 0, 57, 0
1, 25245, Note_on_c, 1, 54, 0
1, 25248, Note_on_c, 0, 58, 81
1, 25248, Note_on_c, 1, 55, 81
1, 25293, Note_on_c, 0, 58, 0
1, 25293, Note_on_c, 1, 55, 0
1, 25296, Note_on_c, 0, 57, 82
1, 25296, Note_on_c, 1, 54, 82
1, 25341, Note_on_c, 0, 57, 0
1, 25341, Note_on_c, 1, 54, 0
1, 25344, Note_on_c, 0, 58, 83
1, 25344, Note_on_c, 1, 55, 83
1, 25389, Note_on_c, 0, 58, 0
1, 25389, Note_on_c, 1, 55, 0
1, 25392, Note_on_c, 0, 60, 84
1, 25392, Note_on_c, 1, 57, 84
1, 25437, Note_on_c, 0, 60, 0
1, 25437, Note_on_c, 1, 57, 0
1, 25440, Note_on_c, 0, 61, 85
1, 25440, Note_on_c, 1, 58, 85
1, 25485, Note_on_c, 0, 61, 0
1, 25485, Note_on_c, 1, 58, 0
1, 25488, Note_on_c, 0, 60, 86
1, 25488, Note_on_c, 1, 57, 86
1, 25533, Note_on_c, 0, 60, 0
1, 25533, Note_on_c, 1, 57, 0
1, 25536, Note_on_c, 0, 61, 85
1, 25536, Note_on_c, 1, 58, 85
1, 25581, Note_on_c, 0, 61, 0
1, 25581, Note_on_c, 1, 58, 0
1, 25584, Note_on_c, 0, 60, 84
1, 25584, Note_on_c, 1, 57, 84
1, 25629, Note_on_c, 0, 60, 0
1, 25629, Note_on_c, 1, 57, 0
1, 25632, Note_on_c, 0, 61, 83
1, 25632, Note_on_c, 1, 58, 83
1, 25677, Note_on_c, 0, 61, 0
1, 25677, Note_on_c, 1, 58, 0
1, 25680, Note_on_c, 0, 59, 82
1, 25680, Note_on_c, 1, 55, 82
1, 25725, Note_on_c, 0, 59, 0
1, 25725, Note_on_c, 1, 55, 0
1, 25728, Note_on_c, 0, 60, 81
1, 25728, Note_on_c, 1, 56, 81
1, 25773, Note_on_c, 0, 60, 0
1, 25773, Note_on_c, 1, 56, 0
1, 25776, Note_on_c, 0, 59, 80
1, 25776, Note_on_c, 1, 55, 80
1, 25821, Note_on_c, 0, 59, 0
1, 25821, Note_on_c, 1, 55, 0
1, 25824, Note_on_c, 0, 60, 79
1, 25824, Note_on_c, 1, 56, 79
1, 25869, Note_on_c, 0, 60, 0
1, 25869, Note_on_c, 1, 56, 0
1, 25872, Note_on_c, 0, 59, 78
1, 25872, Note_on_c, 1, 55, 78
1, 25917, Note_on_c, 0, 59, 0
1, 25917, Note_on_c, 1, 55, 0
1, 25920, Note_on_c, 0, 60, 78
1, 25920, Note_on_c, 1, 56, 78
1, 25965, Note_on_c, 0, 63, 0
1, 25965, Note_on_c, 0, 60, 0
1, 25968, Note_on_c, 0, 72, 78
1, 25968, Note_on_c, 0, 68, 78
1, 26013, Note_on_c, 0, 72, 0
1, 26013, Note_on_c, 0, 68, 0
1, 26016, Note_on_c, 0, 70, 78
1, 26016, Note_on_c, 0, 67, 78
1, 26061, Note_on_c, 0, 70, 0
1, 26061, Note_on_c, 0, 67, 0
1, 26064, Note_on_c, 0, 68, 78
1, 26064, Note_on_c, 0, 65, 78
1, 26109, Note_on_c, 0, 68, 0
1, 26109, Note_on_c, 0, 65, 0
1, 26112, Note_on_c, 0, 67, 78
1, 26112, Note_on_c, 0, 63, 78
1, 26157, Note_on_c, 0, 67, 0
1, 26157, Note_on_c, 0, 63, 0
1, 26160, Note_on_c, 0, 65, 78
1, 26160, Note_on_c, 0, 62, 78
1, 26185, Note_on_c, 1, 56, 0
1, 26185, Note_on_c, 1, 51, 0
1, 26205, Note_on_c, 0, 65, 0
1, 26205, Note_on_c, 0, 62, 0
1, 26208, Note_on_c, 0, 65, 78
1, 26208, Note_on_c, 0, 62, 78
1, 26208, Note_on_c, 1, 56, 78
1, 26208, Note_on_c, 1, 51, 78
1, 26496, Note_on_c, 0, 65, 0
1, 26496, Note_on_c, 0, 67, 72
1, 26496, Note_on_c, 0, 62, 0
1, 26496, Note_on_c, 0, 63, 72
1, 26496, Note_on_c, 1, 56, 0
1, 26496, Note_on_c, 1, 55, 72
1, 26590, Note_on_c, 0, 67, 0
1, 26590, Note_on_c, 0, 63, 0
1, 26590, Note_on_c, 1, 55, 0
1, 26590, Note_on_c, 1, 51, 0
1, 26688, Note_on_c, 0, 75, 87
1, 26784, Note_on_c, 0, 75, 0
1, 26784, Note_on_c, 0, 80, 78
1, 26784, Note_on_c, 1, 67, 78
1, 26784, Note_on_c, 1, 63, 78
1, 26807, Note_on_c, 0, 80, 0
1, 26808, Note_on_c, 0, 79, 78
1, 26823, Note_on_c, 1, 67, 0
1, 26823, Note_on_c, 1, 63, 0
1, 26831, Note_on_c, 0, 79, 0
1, 26832, Note_on_c, 0, 77, 78
1, 26855, Note_on_c, 0, 77, 0
1, 26856, Note_on_c, 0, 75, 78
1, 26879, Note_on_c, 0, 75, 0
1, 26880, Note_on_c, 0, 74, 78
1, 26880, Note_on_c, 1, 68, 78
1, 26880, Note_on_c, 1, 65, 78
1, 26919, Note_on_c, 0, 74, 0
1, 26919, Note_on_c, 1, 68, 0
1, 26919, Note_on_c, 1, 65, 0
1, 26976, Note_on_c, 0, 77, 78
1, 27065, Note_on_c, 0, 77, 0
1, 27072, Note_on_c, 0, 82, 78
1, 27072, Note_on_c, 1, 68, 78
1, 27072, Note_on_c, 1, 65, 78
1, 27095, Note_on_c, 0, 82, 0
1, 27096, Note_on_c, 0, 80, 78
1, 27111, Note_on_c, 1, 68, 0
1, 27111, Note_on_c, 1, 65, 0
1, 27119, Note_on_c, 0, 80, 0
1, 27120, Note_on_c, 0, 79, 78
1, 27143, Note_on_c, 0, 79, 0
1, 27144, Note_on_c, 0, 77, 78
1, 27167, Note_on_c, 0, 77, 0
1, 27168, Note_on_c, 0, 75, 78
1, 27168, Note_on_c, 1, 70, 78
1, 27168, Note_on_c, 1, 67, 78
1, 27207, Note_on_c, 0, 75, 0
1, 27207, Note_on_c, 1, 70, 0
1, 27207, Note_on_c, 1, 67, 0
1, 27264, Note_on_c, 0, 82, 78
1, 27331, Note_on_c, 0, 82, 0
1, 27336, Note_on_c, 0, 87, 79
1, 27359, Note_on_c, 0, 87, 0
1, 27360, Note_on_c, 0, 87, 96
1, 27360, Note_on_c, 1, 70, 78
1, 27360, Note_on_c, 1, 67, 78
1, 27432, Note_on_c, 0, 87, 0
1, 27432, Note_on_c, 0, 86, 81
1, 27449, Note_on_c, 1, 70, 0
1, 27449, Note_on_c, 1, 67, 0
1, 27455, Note_on_c, 0, 86, 0
1, 27456, Note_on_c, 0, 86, 98
1, 27456, Note_on_c, 1, 68, 78
1, 27456, Note_on_c, 1, 65, 78
1, 27528, Note_on_c, 0, 86, 0
1, 27528, Note_on_c, 0, 84, 83
1, 27545, Note_on_c, 1, 68, 0
1, 27545, Note_on_c, 1, 65, 0
1, 27551, Note_on_c, 0, 84, 0
1, 27552, Note_on_c, 0, 84, 100
1, 27552, Note_on_c, 1, 67, 78
1, 27552, Note_on_c, 1, 63, 78
1, 27624, Note_on_c, 0, 84, 0
1, 27624, Note_on_c, 0, 82, 85
1, 27641, Note_on_c, 1, 67, 0
1, 27641, Note_on_c, 1, 63, 0
1, 27647, Note_on_c, 0, 82, 0
1, 27648, Note_on_c, 0, 82, 102
1, 27648, Note_on_c, 1, 65, 78
1, 27648, Note_on_c, 1, 62, 78
1, 27744, Note_on_c, 1, 65, 0
1, 27744, Note_on_c, 1, 58, 78
1, 27833, Note_on_c, 1, 62, 0
1, 27833, Note_on_c, 1, 58, 0
1, 27840, Note_on_c, 0, 82, 0
1, 27840, Note_on_c, 0, 82, 86
1, 27840, Note_on_c, 1, 70, 78
1, 27840, Note_on_c, 1, 62, 78
1, 27863, Note_on_c, 0, 82, 0
1, 27864, Note_on_c, 0, 80, 86
1, 27879, Note_on_c, 1, 70, 0
1, 27879, Note_on_c, 1, 62, 0
1, 27887, Note_on_c, 0, 80, 0
1, 27888, Note_on_c, 0, 79, 86
1, 27911, Note_on_c, 0, 79, 0
1, 27912, Note_on_c, 0, 77, 86
1, 27935, Note_on_c, 0, 77, 0
1, 27936, Note_on_c, 0, 80, 86
1, 27936, Note_on_c, 1, 70, 78
1, 27936, Note_on_c, 1, 63, 78
1, 27959, Note_on_c, 0, 80, 0
1, 27960, Note_on_c, 0, 79, 86
1, 27975, Note_on_c, 1, 70, 0
1, 27975, Note_on_c, 1, 63, 0
1, 27983, Note_on_c, 0, 79, 0
1, 27984, Note_on_c, 0, 77, 86
1, 28007, Note_on_c, 0, 77, 0
1, 28008, Note_on_c, 0, 75, 86
1, 28031, Note_on_c, 0, 75, 0
1, 28032, Note_on_c, 0, 74, 86
1, 28099, Note_on_c, 0, 74, 0
1, 28104, Note_on_c, 0, 75, 86
1, 28127, Note_on_c, 0, 75, 0
1, 28128, Note_on_c, 0, 77, 86
1, 28128, Note_on_c, 1, 69, 78
1, 28128, Note_on_c, 1, 60, 78
1, 28143, Note_on_c, 0, 77, 0
1, 28144, Note_on_c, 0, 75, 85
1, 28159, Note_on_c, 0, 75, 0
1, 28160, Note_on_c, 0, 77, 84
1, 28175, Note_on_c, 0, 77, 0
1, 28176, Note_on_c, 0, 75, 83
1, 28191, Note_on_c, 0, 75, 0
1, 28192, Note_on_c, 0, 74, 82
1, 28207, Note_on_c, 0, 74, 0
1, 28208, Note_on_c, 0, 75, 81
1, 28217, Note_on_c, 1, 69, 0
1, 28217, Note_on_c, 1, 60, 0
1, 28223, Note_on_c, 0, 75, 0
1, 28224, Note_on_c, 0, 75, 78
1, 28224, Note_on_c, 0, 75, 71
1, 28224, Note_on_c, 1, 72, 78
1, 28224, Note_on_c, 1, 58, 78
1, 28313, Note_on_c, 1, 72, 0
1, 28313, Note_on_c, 1, 58, 0
1, 28320, Note_on_c, 0, 75, 0
1, 28320, Note_on_c, 0, 77, 78
1, 28320, Note_on_c, 0, 75, 0
1, 28320, Note_on_c, 0, 74, 71
1, 28359, Note_on_c, 0, 77, 0
1, 28359, Note_on_c, 0, 74, 0
1, 28704, Note_on_c, 0, 65, 94
1, 28800, Note_on_c, 0, 65, 0
1, 28800, Note_on_c, 0, 70, 78
1, 28823, Note_on_c, 0, 70, 0
1, 28824, Note_on_c, 0, 68, 78
1, 28847, Note_on_c, 0, 68, 0
1, 28848, Note_on_c, 0, 67, 78
1, 28871, Note_on_c, 0, 67, 0
1, 28872, Note_on_c, 0, 65, 78
1, 28895, Note_on_c, 0, 65, 0
1, 28896, Note_on_c, 0, 64, 78
1, 28896, Note_on_c, 1, 58, 78
1, 28896, Note_on_c, 1, 55, 78
1, 28935, Note_on_c, 0, 64, 0
1, 28935, Note_on_c, 1, 58, 0
1, 28935, Note_on_c, 1, 55, 0
1, 28992, Note_on_c, 0, 64, 78
1, 29015, Note_on_c, 0, 64, 0
1, 29016, Note_on_c, 0, 65, 80
1, 29039, Note_on_c, 0, 65, 0
1, 29040, Note_on_c, 0, 67, 82
1, 29063, Note_on_c, 0, 67, 0
1, 29064, Note_on_c, 0, 68, 84
1, 29087, Note_on_c, 0, 68, 0
1, 29088, Note_on_c, 0, 72, 86
1, 29111, Note_on_c, 0, 72, 0
1, 29112, Note_on_c, 0, 70, 84
1, 29135, Note_on_c, 0, 70, 0
1, 29136, Note_on_c, 0, 68, 82
1, 29159, Note_on_c, 0, 68, 0
1, 29160, Note_on_c, 0, 67, 80
1, 29183, Note_on_c, 0, 67, 0
1, 29184, Note_on_c, 0, 65, 78
1, 29184, Note_on_c, 1, 60, 78
1, 29184, Note_on_c, 1, 56, 78
1, 29223, Note_on_c, 0, 65, 0
1, 29273, Note_on_c, 1, 60, 0
1, 29273, Note_on_c, 1, 56, 0
1, 29280, Note_on_c, 0, 77, 78
1, 29303, Note_on_c, 0, 77, 0
1, 29304, Note_on_c, 0, 76, 80
1, 29327, Note_on_c, 0, 76, 0
1, 29328, Note_on_c, 0, 79, 82
1, 29351, Note_on_c, 0, 79, 0
1, 29352, Note_on_c, 0, 77, 84
1, 29375, Note_on_c, 0, 77, 0
1, 29376, Note_on_c, 0, 80, 86
1, 29396, Note_on_c, 0, 80, 0
1, 29424, Note_on_c, 0, 79, 84
1, 29444, Note_on_c, 0, 79, 0
1, 29472, Note_on_c, 0, 77, 82
1, 29492, Note_on_c, 0, 77, 0
1, 29520, Note_on_c, 0, 75, 81
1, 29540, Note_on_c, 0, 75, 0
1, 29568, Note_on_c, 0, 74, 79
1, 29588, Note_on_c, 0, 74, 0
1, 29616, Note_on_c, 0, 72, 78
1, 29636, Note_on_c, 0, 72, 0
1, 29664, Note_on_c, 0, 72, 94
1, 29712, Note_on_c, 1, 68, 78
1, 29760, Note_on_c, 0, 72, 0
1, 29760, Note_on_c, 0, 71, 78
1, 29760, Note_on_c, 1, 68, 0
1, 29760, Note_on_c, 1, 67, 76
1, 29780, Note_on_c, 0, 71, 0
1, 29805, Note_on_c, 1, 67, 0
1, 29808, Note_on_c, 0, 80, 78
1, 29808, Note_on_c, 1, 65, 74
1, 29828, Note_on_c, 0, 80, 0
1, 29828, Note_on_c, 1, 65, 0
1, 29856, Note_on_c, 0, 79, 74
1, 29856, Note_on_c, 1, 63, 72
1, 29876, Note_on_c, 0, 79, 0
1, 29876, Note_on_c, 1, 63, 0
1, 29904, Note_on_c, 0, 77, 71
1, 29904, Note_on_c, 1, 62, 71
1, 29924, Note_on_c, 0, 77, 0
1, 29924, Note_on_c, 1, 62, 0
1, 29952, Note_on_c, 0, 77, 89
1, 29952, Note_on_c, 1, 60, 72
1, 30000, Note_on_c, 1, 60, 0
1, 30000, Note_on_c, 1, 62, 74
1, 30045, Note_on_c, 1, 62, 0
1, 30048, Note_on_c, 0, 77, 0
1, 30048, Note_on_c, 0, 75, 78
1, 30048, Note_on_c, 1, 63, 76
1, 30068, Note_on_c, 0, 75, 0
1, 30068, Note_on_c, 1, 63, 0
1, 30096, Note_on_c, 0, 74, 75
1, 30116, Note_on_c, 0, 74, 0
1, 30144, Note_on_c, 0, 72, 73
1, 30164, Note_on_c, 0, 72, 0
1, 30192, Note_on_c, 0, 70, 71
1, 30212, Note_on_c, 0, 70, 0
1, 30240, Note_on_c, 0, 70, 88
1, 30288, Note_on_c, 1, 67, 78
1, 30336, Note_on_c, 0, 70, 0
1, 30336, Note_on_c, 0, 69, 76
1, 30336, Note_on_c, 1, 67, 0
1, 30336, Note_on_c, 1, 65, 76
1, 30356, Note_on_c, 0, 69, 0
1, 30381, Note_on_c, 1, 65, 0
1, 30384, Note_on_c, 0, 79, 78
1, 30384, Note_on_c, 1, 63, 74
1, 30404, Note_on_c, 0, 79, 0
1, 30404, Note_on_c, 1, 63, 0
1, 30432, Note_on_c, 0, 77, 77
1, 30432, Note_on_c, 1, 62, 72
1, 30452, Note_on_c, 0, 77, 0
1, 30452, Note_on_c, 1, 62, 0
1, 30480, Note_on_c, 0, 75, 76
1, 30480, Note_on_c, 1, 60, 71
1, 30500, Note_on_c, 0, 75, 0
1, 30500, Note_on_c, 1, 60, 0
1, 30528, Note_on_c, 0, 75, 91
1, 30528, Note_on_c, 1, 58, 72
1, 30576, Note_on_c, 1, 58, 0
1, 30576, Note_on_c, 1, 60, 74
1, 30621, Note_on_c, 1, 60, 0
1, 30624, Note_on_c, 0, 75, 0
1, 30624, Note_on_c, 0, 74, 74
1, 30624, Note_on_c, 1, 62, 76
1, 30644, Note_on_c, 0, 74, 0
1, 30644, Note_on_c, 1, 62, 0
1, 30672, Note_on_c, 0, 72, 78
1, 30692, Note_on_c, 0, 72, 0
1, 30720, Note_on_c, 0, 70, 77
1, 30740, Note_on_c, 0, 70, 0
1, 30768, Note_on_c, 0, 69, 76
1, 30788, Note_on_c, 0, 69, 0
1, 30816, Note_on_c, 0, 69, 91
1, 30864, Note_on_c, 1, 65, 78
1, 30912, Note_on_c, 0, 69, 0
1, 30912, Note_on_c, 0, 67, 78
1, 30912, Note_on_c, 1, 65, 0
1, 30912, Note_on_c, 1, 63, 76
1, 30932, Note_on_c, 0, 67, 0
1, 30957, Note_on_c, 1, 63, 0
1, 30960, Note_on_c, 0, 77, 78
1, 30960, Note_on_c, 1, 62, 74
1, 30980, Note_on_c, 0, 77, 0
1, 30980, Note_on_c, 1, 62, 0
1, 31008, Note_on_c, 0, 75, 75
1, 31008, Note_on_c, 1, 60, 72
1, 31028, Note_on_c, 0, 75, 0
1, 31028, Note_on_c, 1, 60, 0
1, 31056, Note_on_c, 0, 74, 73
1, 31056, Note_on_c, 1, 58, 71
1, 31076, Note_on_c, 0, 74, 0
1, 31076, Note_on_c, 1, 58, 0
1, 31104, Note_on_c, 0, 74, 87
1, 31104, Note_on_c, 1, 57, 72
1, 31152, Note_on_c, 1, 57, 0
1, 31152, Note_on_c, 1, 58, 74
1, 31197, Note_on_c, 1, 58, 0
1, 31200, Note_on_c, 0, 74, 0
1, 31200, Note_on_c, 0, 72, 75
1, 31200, Note_on_c, 1, 60, 76
1, 31220, Note_on_c, 0, 72, 0
1, 31220, Note_on_c, 1, 60, 0
1, 31248, Note_on_c, 0, 70, 78
1, 31268, Note_on_c, 0, 70, 0
1, 31296, Note_on_c, 0, 69, 74
1, 31316, Note_on_c, 0, 69, 0
1, 31344, Note_on_c, 0, 67, 71
1, 31364, Note_on_c, 0, 67, 0
1, 31392, Note_on_c, 0, 67, 89
1, 31440, Note_on_c, 1, 63, 78
1, 31488, Note_on_c, 0, 67, 0
1, 31488, Note_on_c, 0, 66, 78
1, 31488, Note_on_c, 1, 63, 0
1, 31488, Note_on_c, 1, 62, 78
1, 31508, Note_on_c, 0, 66, 0
1, 31533, Note_on_c, 1, 62, 0
1, 31536, Note_on_c, 0, 75, 78
1, 31536, Note_on_c, 1, 60, 79
1, 31556, Note_on_c, 0, 75, 0
1, 31556, Note_on_c, 1, 60, 0
1, 31584, Note_on_c, 0, 74, 79
1, 31584, Note_on_c, 1, 58, 80
1, 31604, Note_on_c, 0, 74, 0
1, 31604, Note_on_c, 1, 58, 0
1, 31632, Note_on_c, 0, 72, 81
1, 31632, Note_on_c, 1, 57, 80
1, 31652, Note_on_c, 0, 72, 0
1, 31652, Note_on_c, 1, 57, 0
1, 31680, Note_on_c, 0, 72, 98
1, 31680, Note_on_c, 1, 55, 81
1, 31700, Note_on_c, 1, 55, 0
1, 31728, Note_on_c, 0, 72, 0
1, 31728, Note_on_c, 0, 70, 84
1, 31728, Note_on_c, 1, 53, 82
1, 31748, Note_on_c, 1, 53, 0
1, 31773, Note_on_c, 0, 70, 0
1, 31776, Note_on_c, 0, 79, 86
1, 31776, Note_on_c, 1, 51, 83
1, 31796, Note_on_c, 1, 51, 0
1, 31815, Note_on_c, 0, 79, 0
1, 31824, Note_on_c, 1, 50, 83
1, 31844, Note_on_c, 1, 50, 0
1, 31872, Note_on_c, 1, 49, 84
1, 31920, Note_on_c, 0, 55, 86
1, 31961, Note_on_c, 1, 49, 0
1, 31965, Note_on_c, 0, 55, 0
1, 31968, Note_on_c, 0, 54, 86
1, 31968, Note_on_c, 1, 50, 86
1, 31968, Note_on_c, 1, 38, 86
1, 31991, Note_on_c, 0, 54, 0
1, 31992, Note_on_c, 0, 57, 86
1, 32015, Note_on_c, 0, 57, 0
1, 32016, Note_on_c, 0, 55, 86
1, 32039, Note_on_c, 0, 55, 0
1, 32040, Note_on_c, 0, 58, 86
1, 32057, Note_on_c, 1, 50, 0
1, 32057, Note_on_c, 1, 38, 0
1, 32063, Note_on_c, 0, 58, 0
1, 32064, Note_on_c, 0, 57, 86
1, 32064, Note_on_c, 1, 54, 86
1, 32084, Note_on_c, 1, 54, 0
1, 32087, Note_on_c, 0, 57, 0
1, 32088, Note_on_c, 0, 60, 86
1, 32111, Note_on_c, 0, 60, 0
1, 32112, Note_on_c, 0, 58, 86
1, 32112, Note_on_c, 1, 55, 86
1, 32132, Note_on_c, 1, 55, 0
1, 32135, Note_on_c, 0, 58, 0
1, 32136, Note_on_c, 0, 62, 86
1, 32159, Note_on_c, 0, 62, 0
1, 32160, Note_on_c, 0, 60, 86
1, 32160, Note_on_c, 1, 57, 86
1, 32180, Note_on_c, 0, 60, 0
1, 32180, Note_on_c, 1, 57, 0
1, 32256, Note_on_c, 0, 55, 86
1, 32256, Note_on_c, 1, 50, 86
1, 32256, Note_on_c, 1, 38, 86
1, 32279, Note_on_c, 0, 55, 0
1, 32280, Note_on_c, 0, 58, 86
1, 32303, Note_on_c, 0, 58, 0
1, 32304, Note_on_c, 0, 57, 86
1, 32327, Note_on_c, 0, 57, 0
1, 32328, Note_on_c, 0, 60, 86
1, 32345, Note_on_c, 1, 50, 0
1, 32345, Note_on_c, 1, 38, 0
1, 32351, Note_on_c, 0, 60, 0
1, 32352, Note_on_c, 0, 58, 86
1, 32352, Note_on_c, 1, 55, 86
1, 32372, Note_on_c, 1, 55, 0
1, 32375, Note_on_c, 0, 58, 0
1, 32376, Note_on_c, 0, 62, 86
1, 32399, Note_on_c, 0, 62, 0
1, 32400, Note_on_c, 0, 60, 86
1, 32400, Note_on_c, 1, 57, 86
1, 32420, Note_on_c, 1, 57, 0
1, 32423, Note_on_c, 0, 60, 0
1, 32424, Note_on_c, 0, 63, 86
1, 32447, Note_on_c, 0, 63, 0
1, 32448, Note_on_c, 0, 62, 86
1, 32448, Note_on_c, 1, 58, 86
1, 32468, Note_on_c, 0, 62, 0
1, 32468, Note_on_c, 1, 58, 0
1, 32544, Note_on_c, 0, 54, 86
1, 32544, Note_on_c, 1, 38, 86
1, 32564, Note_on_c, 1, 38, 0
1, 32567, Note_on_c, 0, 54, 0
1, 32568, Note_on_c, 0, 57, 86
1, 32591, Note_on_c, 0, 57, 0
1, 32592, Note_on_c, 0, 55, 86
1, 32592, Note_on_c, 1, 40, 86
1, 32612, Note_on_c, 1, 40, 0
1, 32615, Note_on_c, 0, 55, 0
1, 32616, Note_on_c, 0, 58, 86
1, 32639, Note_on_c, 0, 58, 0
1, 32640, Note_on_c, 0, 57, 86
1, 32640, Note_on_c, 1, 42, 86
1, 32663, Note_on_c, 0, 57, 0
1, 32664, Note_on_c, 0, 60, 86
1, 32679, Note_on_c, 1, 42, 0
1, 32687, Note_on_c, 0, 60, 0
1, 32688, Note_on_c, 0, 58, 86
1, 32711, Note_on_c, 0, 58, 0
1, 32712, Note_on_c, 0, 62, 86
1, 32735, Note_on_c, 0, 62, 0
1, 32736, Note_on_c, 0, 60, 86
1, 32759, Note_on_c, 0, 60, 0
1, 32760, Note_on_c, 0, 63, 86
1, 32783, Note_on_c, 0, 63, 0
1, 32784, Note_on_c, 0, 62, 86
1, 32807, Note_on_c, 0, 62, 0
1, 32808, Note_on_c, 0, 60, 86
1, 32831, Note_on_c, 0, 60, 0
1, 32832, Note_on_c, 0, 58, 86
1, 32832, Note_on_c, 1, 43, 86
1, 32852, Note_on_c, 1, 43, 0
1, 32855, Note_on_c, 0, 58, 0
1, 32856, Note_on_c, 0, 62, 86
1, 32879, Note_on_c, 0, 62, 0
1, 32880, Note_on_c, 0, 60, 86
1, 32880, Note_on_c, 1, 45, 86
1, 32900, Note_on_c, 1, 45, 0
1, 32903, Note_on_c, 0, 60, 0
1, 32904, Note_on_c, 0, 63, 86
1, 32927, Note_on_c, 0, 63, 0
1, 32928, Note_on_c, 0, 62, 86
1, 32928, Note_on_c, 1, 46, 86
1, 32951, Note_on_c, 0, 62, 0
1, 32952, Note_on_c, 0, 67, 86
1, 32967, Note_on_c, 1, 46, 0
1, 32975, Note_on_c, 0, 67, 0
1, 32976, Note_on_c, 0, 66, 86
1, 32999, Note_on_c, 0, 66, 0
1, 33000, Note_on_c, 0, 69, 86
1, 33023, Note_on_c, 0, 69, 0
1, 33024, Note_on_c, 0, 67, 86
1, 33047, Note_on_c, 0, 67, 0
1, 33048, Note_on_c, 0, 70, 86
1, 33071, Note_on_c, 0, 70, 0
1, 33072, Note_on_c, 0, 69, 86
1, 33095, Note_on_c, 0, 69, 0
1, 33096, Note_on_c, 0, 67, 86
1, 33119, Note_on_c, 0, 67, 0
1, 33120, Note_on_c, 0, 66, 86
1, 33120, Note_on_c, 1, 50, 86
1, 33140, Note_on_c, 1, 50, 0
1, 33143, Note_on_c, 0, 66, 0
1, 33144, Note_on_c, 0, 69, 86
1, 33167, Note_on_c, 0, 69, 0
1, 33168, Note_on_c, 0, 67, 86
1, 33168, Note_on_c, 1, 52, 86
1, 33188, Note_on_c, 1, 52, 0
1, 33191, Note_on_c, 0, 67, 0
1, 33192, Note_on_c, 0, 70, 86
1, 33215, Note_on_c, 0, 70, 0
1, 33216, Note_on_c, 0, 69, 86
1, 33216, Note_on_c, 1, 54, 86
1, 33239, Note_on_c, 0, 69, 0
1, 33240, Note_on_c, 0, 72, 86
1, 33255, Note_on_c, 1, 54, 0
1, 33263, Note_on_c, 0, 72, 0
1, 33264, Note_on_c, 0, 70, 86
1, 33287, Note_on_c, 0, 70, 0
1, 33288, Note_on_c, 0, 74, 86
1, 33311, Note_on_c, 0, 74, 0
1, 33312, Note_on_c, 0, 72, 86
1, 33335, Note_on_c, 0, 72, 0
1, 33336, Note_on_c, 0, 75, 86
1, 33359, Note_on_c, 0, 75, 0
1, 33360, Note_on_c, 0, 74, 86
1, 33383, Note_on_c, 0, 74, 0
1, 33384, Note_on_c, 0, 72, 86
1, 33407, Note_on_c, 0, 72, 0
1, 33408, Note_on_c, 0, 70, 86
1, 33408, Note_on_c, 1, 55, 86
1, 33428, Note_on_c, 1, 55, 0
1, 33431, Note_on_c, 0, 70, 0
1, 33432, Note_on_c, 0, 74, 86
1, 33455, Note_on_c, 0, 74, 0
1, 33456, Note_on_c, 0, 72, 86
1, 33456, Note_on_c, 1, 57, 86
1, 33476, Note_on_c, 1, 57, 0
1, 33479, Note_on_c, 0, 72, 0
1, 33480, Note_on_c, 0, 75, 86
1, 33503, Note_on_c, 0, 75, 0
1, 33504, Note_on_c, 0, 74, 86
1, 33504, Note_on_c, 1, 58, 86
1, 33527, Note_on_c, 0, 74, 0
1, 33528, Note_on_c, 0, 79, 86
1, 33543, Note_on_c, 1, 58, 0
1, 33551, Note_on_c, 0, 79, 0
1, 33552, Note_on_c, 0, 78, 86
1, 33575, Note_on_c, 0, 78, 0
1, 33576, Note_on_c, 0, 81, 86
1, 33599, Note_on_c, 0, 81, 0
1, 33600, Note_on_c, 0, 79, 86
1, 33623, Note_on_c, 0, 79, 0
1, 33624, Note_on_c, 0, 82, 86
1, 33647, Note_on_c, 0, 82, 0
1, 33648, Note_on_c, 0, 81, 86
1, 33671, Note_on_c, 0, 81, 0
1, 33672, Note_on_c, 0, 79, 86
1, 33695, Note_on_c, 0, 79, 0
1, 33696, Note_on_c, 0, 78, 86
1, 33696, Note_on_c, 1, 62, 86
1, 33716, Note_on_c, 1, 62, 0
1, 33719, Note_on_c, 0, 78, 0
1, 33720, Note_on_c, 0, 81, 86
1, 33743, Note_on_c, 0, 81, 0
1, 33744, Note_on_c, 0, 79, 86
1, 33744, Note_on_c, 1, 64, 86
1, 33764, Note_on_c, 1, 64, 0
1, 33767, Note_on_c, 0, 79, 0
1, 33768, Note_on_c, 0, 82, 86
1, 33791, Note_on_c, 0, 82, 0
1, 33792, Note_on_c, 0, 81, 86
1, 33792, Note_on_c, 1, 66, 86
1, 33815, Note_on_c, 0, 81, 0
1, 33816, Note_on_c, 0, 84, 86
1, 33831, Note_on_c, 1, 66, 0
1, 33839, Note_on_c, 0, 84, 0
1, 33840, Note_on_c, 0, 82, 86
1, 33863, Note_on_c, 0, 82, 0
1, 33864, Note_on_c, 0, 86, 86
1, 33887, Note_on_c, 0, 86, 0
1, 33888, Note_on_c, 0, 84, 86
1, 33911, Note_on_c, 0, 84, 0
1, 33912, Note_on_c, 0, 87, 86
1, 33935, Note_on_c, 0, 87, 0
1, 33936, Note_on_c, 0, 86, 86
1, 33959, Note_on_c, 0, 86, 0
1, 33960, Note_on_c, 0, 84, 86
1, 33983, Note_on_c, 0, 84, 0
1, 33984, Note_on_c, 0, 82, 86
1, 33984, Note_on_c, 1, 67, 86
1, 34007, Note_on_c, 0, 82, 0
1, 34008, Note_on_c, 0, 84, 86
1, 34023, Note_on_c, 1, 67, 0
1, 34031, Note_on_c, 0, 84, 0
1, 34032, Note_on_c, 0, 86, 86
1, 34055, Note_on_c, 0, 86, 0
1, 34056, Note_on_c, 0, 84, 86
1, 34079, Note_on_c, 0, 84, 0
1, 34080, Note_on_c, 0, 82, 86
1, 34080, Note_on_c, 1, 69, 86
1, 34103, Note_on_c, 0, 82, 0
1, 34104, Note_on_c, 0, 81, 86
1, 34119, Note_on_c, 1, 69, 0
1, 34127, Note_on_c, 0, 81, 0
1, 34128, Note_on_c, 0, 79, 86
1, 34151, Note_on_c, 0, 79, 0
1, 34152, Note_on_c, 0, 78, 86
1, 34175, Note_on_c, 0, 78, 0
1, 34176, Note_on_c, 0, 79, 86
1, 34176, Note_on_c, 1, 70, 86
1, 34199, Note_on_c, 0, 79, 0
1, 34200, Note_on_c, 0, 77, 86
1, 34215, Note_on_c, 1, 70, 0
1, 34223, Note_on_c, 0, 77, 0
1, 34224, Note_on_c, 0, 75, 86
1, 34247, Note_on_c, 0, 75, 0
1, 34248, Note_on_c, 0, 74, 86
1, 34271, Note_on_c, 0, 74, 0
1, 34272, Note_on_c, 0, 77, 86
1, 34272, Note_on_c, 1, 67, 86
1, 34272, Note_on_c, 1, 60, 71
1, 34295, Note_on_c, 0, 77, 0
1, 34296, Note_on_c, 0, 75, 86
1, 34319, Note_on_c, 0, 75, 0
1, 34320, Note_on_c, 0, 74, 86
1, 34343, Note_on_c, 0, 74, 0
1, 34344, Note_on_c, 0, 72, 86
1, 34361, Note_on_c, 1, 67, 0
1, 34361, Note_on_c, 1, 60, 0
1, 34367, Note_on_c, 0, 72, 0
1, 34368, Note_on_c, 0, 70, 86
1, 34368, Note_on_c, 1, 67, 86
1, 34368, Note_on_c, 1, 62, 71
1, 34457, Note_on_c, 0, 70, 0
1, 34457, Note_on_c, 1, 67, 0
1, 34464, Note_on_c, 0, 70, 86
1, 34464, Note_on_c, 1, 66, 86
1, 34479, Note_on_c, 0, 70, 0
1, 34480, Note_on_c, 0, 69, 86
1, 34495, Note_on_c, 0, 69, 0
1, 34496, Note_on_c, 0, 70, 86
1, 34511, Note_on_c, 0, 70, 0
1, 34512, Note_on_c, 0, 69, 86
1, 34527, Note_on_c, 0, 69, 0
1, 34528, Note_on_c, 0, 67, 86
1, 34543, Note_on_c, 0, 67, 0
1, 34544, Note_on_c, 0, 69, 86
1, 34545, Note_on_c, 1, 62, 0
1, 34553, Note_on_c, 1, 66, 0
1, 34559, Note_on_c, 0, 69, 0
1, 34560, Note_on_c, 0, 67, 86
1, 34608, Note_on_c, 1, 54, 71
1, 34649, Note_on_c, 0, 67, 0
1, 34656, Note_on_c, 1, 54, 0
1, 34656, Note_on_c, 1, 55, 71
1, 34695, Note_on_c, 1, 55, 0
1, 34704, Note_on_c, 0, 79, 86
1, 34704, Note_on_c, 0, 75, 86
1, 34749, Note_on_c, 0, 79, 0
1, 34749, Note_on_c, 0, 75, 0
1, 34752, Note_on_c, 0, 77, 86
1, 34752, Note_on_c, 0, 74, 86
1, 34797, Note_on_c, 0, 77, 0
1, 34797, Note_on_c, 0, 74, 0
1, 34800, Note_on_c, 0, 75, 86
1, 34800, Note_on_c, 0, 72, 86
1, 34845, Note_on_c, 0, 75, 0
1, 34845, Note_on_c, 0, 72, 0
1, 34848, Note_on_c, 0, 74, 86
1, 34848, Note_on_c, 0, 71, 86
1, 34896, Note_on_c, 1, 66, 86
1, 34937, Note_on_c, 0, 74, 0
1, 34937, Note_on_c, 0, 71, 0
1, 34944, Note_on_c, 1, 66, 0
1, 34944, Note_on_c, 1, 67, 86
1, 34983, Note_on_c, 1, 67, 0
1, 34992, Note_on_c, 0, 75, 86
1, 34992, Note_on_c, 0, 72, 86
1, 35037, Note_on_c, 0, 75, 0
1, 35037, Note_on_c, 0, 72, 0
1, 35040, Note_on_c, 0, 74, 86
1, 35040, Note_on_c, 0, 71, 86
1, 35085, Note_on_c, 0, 74, 0
1, 35085, Note_on_c, 0, 71, 0
1, 35088, Note_on_c, 0, 72, 86
1, 35088, Note_on_c, 0, 69, 86
1, 35133, Note_on_c, 0, 72, 0
1, 35133, Note_on_c, 0, 69, 0
1, 35136, Note_on_c, 0, 71, 86
1, 35136, Note_on_c, 0, 67, 86
1, 35184, Note_on_c, 1, 54, 86
1, 35225, Note_on_c, 0, 71, 0
1, 35225, Note_on_c, 0, 67, 0
1, 35232, Note_on_c, 1, 54, 0
1, 35232, Note_on_c, 1, 55, 86
1, 35271, Note_on_c, 1, 55, 0
1, 35280, Note_on_c, 0, 67, 86
1, 35280, Note_on_c, 0, 63, 86
1, 35325, Note_on_c, 0, 67, 0
1, 35325, Note_on_c, 0, 63, 0
1, 35328, Note_on_c, 0, 65, 86
1, 35328, Note_on_c, 0, 62, 86
1, 35373, Note_on_c, 0, 65, 0
1, 35373, Note_on_c, 0, 62, 0
1, 35376, Note_on_c, 0, 63, 86
1, 35376, Note_on_c, 0, 60, 86
1, 35421, Note_on_c, 0, 63, 0
1, 35421, Note_on_c, 0, 60, 0
1, 35424, Note_on_c, 0, 62, 86
1, 35424, Note_on_c, 0, 59, 86
1, 35472, Note_on_c, 1, 42, 86
1, 35513, Note_on_c, 0, 62, 0
1, 35513, Note_on_c, 0, 59, 0
1, 35520, Note_on_c, 1, 42, 0
1, 35520, Note_on_c, 1, 43, 86
1, 35559, Note_on_c, 1, 43, 0
1, 35568, Note_on_c, 0, 51, 86
1, 35568, Note_on_c, 0, 48, 86
1, 35613, Note_on_c, 0, 51, 0
1, 35613, Note_on_c, 0, 48, 0
1, 35616, Note_on_c, 0, 50, 86
1, 35616, Note_on_c, 0, 47, 86
1, 35661, Note_on_c, 0, 50, 0
1, 35661, Note_on_c, 0, 47, 0
1, 35664, Note_on_c, 0, 48, 86
1, 35664, Note_on_c, 0, 45, 86
1, 35709, Note_on_c, 0, 48, 0
1, 35709, Note_on_c, 0, 45, 0
1, 35712, Note_on_c, 0, 47, 86
1, 35712, Note_on_c, 0, 43, 86
1, 35760, Note_on_c, 1, 30, 86
1, 35801, Note_on_c, 0, 47, 0
1, 35801, Note_on_c, 0, 43, 0
1, 35808, Note_on_c, 1, 30, 0
1, 35808, Note_on_c, 1, 31, 86
1, 35847, Note_on_c, 1, 31, 0
1, 35856, Note_on_c, 0, 71, 86
1, 35901, Note_on_c, 0, 71, 0
1, 35904, Note_on_c, 0, 72, 86
1, 35949, Note_on_c, 0, 72, 0
1, 35952, Note_on_c, 0, 74, 86
1, 35997, Note_on_c, 0, 74, 0
1, 36000, Note_on_c, 0, 77, 86
1, 36000, Note_on_c, 1, 63, 86
1, 36000, Note_on_c, 1, 60, 86
1, 36023, Note_on_c, 0, 77, 0
1, 36024, Note_on_c, 0, 75, 86
1, 36039, Note_on_c, 1, 63, 0
1, 36039, Note_on_c, 1, 60, 0
1, 36047, Note_on_c, 0, 75, 0
1, 36048, Note_on_c, 0, 74, 86
1, 36071, Note_on_c, 0, 74, 0
1, 36072, Note_on_c, 0, 72, 86
1, 36095, Note_on_c, 0, 72, 0
1, 36096, Note_on_c, 0, 71, 86
1, 36096, Note_on_c, 1, 65, 86
1, 36096, Note_on_c, 1, 62, 86
1, 36135, Note_on_c, 1, 65, 0
1, 36135, Note_on_c, 1, 62, 0
1, 36144, Note_on_c, 0, 71, 0
1, 36144, Note_on_c, 0, 72, 86
1, 36189, Note_on_c, 0, 72, 0
1, 36192, Note_on_c, 0, 73, 87
1, 36240, Note_on_c, 0, 73, 0
1, 36240, Note_on_c, 0, 74, 88
1, 36285, Note_on_c, 0, 74, 0
1, 36288, Note_on_c, 0, 79, 88
1, 36288, Note_on_c, 1, 65, 86
1, 36288, Note_on_c, 1, 62, 86
1, 36311, Note_on_c, 0, 79, 0
1, 36312, Note_on_c, 0, 77, 89
1, 36327, Note_on_c, 1, 65, 0
1, 36327, Note_on_c, 1, 62, 0
1, 36335, Note_on_c, 0, 77, 0
1, 36336, Note_on_c, 0, 75, 89
1, 36359, Note_on_c, 0, 75, 0
1, 36360, Note_on_c, 0, 74, 89
1, 36383, Note_on_c, 0, 74, 0
1, 36384, Note_on_c, 0, 72, 86
1, 36384, Note_on_c, 1, 67, 86
1, 36384, Note_on_c, 1, 63, 86
1, 36423, Note_on_c, 1, 67, 0
1, 36423, Note_on_c, 1, 63, 0
1, 36429, Note_on_c, 0, 72, 0
1, 36432, Note_on_c, 0, 75, 87
1, 36477, Note_on_c, 0, 75, 0
1, 36480, Note_on_c, 0, 79, 89
1, 36525, Note_on_c, 0, 79, 0
1, 36528, Note_on_c, 0, 84, 91
1, 36573, Note_on_c, 0, 84, 0
1, 36576, Note_on_c, 0, 84, 109
1, 36576, Note_on_c, 1, 67, 86
1, 36576, Note_on_c, 1, 63, 86
1, 36624, Note_on_c, 0, 84, 0
1, 36624, Note_on_c, 0, 83, 93
1, 36647, Note_on_c, 0, 83, 0
1, 36665, Note_on_c, 1, 67, 0
1, 36665, Note_on_c, 1, 63, 0
1, 36672, Note_on_c, 0, 83, 109
1, 36672, Note_on_c, 1, 65, 86
1, 36672, Note_on_c, 1, 62, 86
1, 36720, Note_on_c, 0, 83, 0
1, 36720, Note_on_c, 0, 80, 93
1, 36743, Note_on_c, 0, 80, 0
1, 36761, Note_on_c, 1, 65, 0
1, 36761, Note_on_c, 1, 62, 0
1, 36768, Note_on_c, 0, 80, 109
1, 36768, Note_on_c, 1, 63, 86
1, 36768, Note_on_c, 1, 60, 86
1, 36816, Note_on_c, 0, 80, 0
1, 36816, Note_on_c, 0, 79, 93
1, 36839, Note_on_c, 0, 79, 0
1, 36857, Note_on_c, 1, 63, 0
1, 36857, Note_on_c, 1, 60, 0
1, 36864, Note_on_c, 0, 79, 109
1, 36864, Note_on_c, 1, 62, 86
1, 36864, Note_on_c, 1, 59, 86
1, 36960, Note_on_c, 1, 62, 0
1, 36960, Note_on_c, 1, 55, 86
1, 37008, Note_on_c, 0, 79, 0
1, 37008, Note_on_c, 0, 74, 93
1, 37031, Note_on_c, 0, 74, 0
1, 37032, Note_on_c, 0, 75, 93
1, 37049, Note_on_c, 1, 59, 0
1, 37049, Note_on_c, 1, 55, 0
1, 37055, Note_on_c, 0, 75, 0
1, 37056, Note_on_c, 0, 79, 93
1, 37056, Note_on_c, 1, 67, 86
1, 37056, Note_on_c, 1, 59, 86
1, 37079, Note_on_c, 0, 79, 0
1, 37080, Note_on_c, 0, 77, 93
1, 37095, Note_on_c, 1, 67, 0
1, 37095, Note_on_c, 1, 59, 0
1, 37103, Note_on_c, 0, 77, 0
1, 37104, Note_on_c, 0, 75, 93
1, 37127, Note_on_c, 0, 75, 0
1, 37128, Note_on_c, 0, 74, 93
1, 37151, Note_on_c, 0, 74, 0
1, 37152, Note_on_c, 0, 77, 93
1, 37152, Note_on_c, 1, 67, 86
1, 37152, Note_on_c, 1, 60, 86
1, 37175, Note_on_c, 0, 77, 0
1, 37176, Note_on_c, 0, 75, 93
1, 37191, Note_on_c, 1, 67, 0
1, 37191, Note_on_c, 1, 60, 0
1, 37199, Note_on_c, 0, 75, 0
1, 37200, Note_on_c, 0, 74, 93
1, 37223, Note_on_c, 0, 74, 0
1, 37224, Note_on_c, 0, 72, 93
1, 37247, Note_on_c, 0, 72, 0
1, 37248, Note_on_c, 0, 71, 93
1, 37315, Note_on_c, 0, 71, 0
1, 37320, Note_on_c, 0, 72, 93
1, 37343, Note_on_c, 0, 72, 0
1, 37344, Note_on_c, 0, 74, 86
1, 37344, Note_on_c, 1, 66, 86
1, 37344, Note_on_c, 1, 56, 86
1, 37359, Note_on_c, 0, 74, 0
1, 37360, Note_on_c, 0, 72, 85
1, 37375, Note_on_c, 0, 72, 0
1, 37376, Note_on_c, 0, 74, 85
1, 37391, Note_on_c, 0, 74, 0
1, 37392, Note_on_c, 0, 72, 85
1, 37407, Note_on_c, 0, 72, 0
1, 37408, Note_on_c, 0, 71, 84
1, 37423, Note_on_c, 0, 71, 0
1, 37424, Note_on_c, 0, 72, 84
1, 37433, Note_on_c, 1, 66, 0
1, 37433, Note_on_c, 1, 56, 0
1, 37439, Note_on_c, 0, 72, 0
1, 37440, Note_on_c, 0, 72, 84
1, 37440, Note_on_c, 0, 72, 71
1, 37440, Note_on_c, 1, 67, 86
1, 37440, Note_on_c, 1, 55, 86
1, 37529, Note_on_c, 1, 67, 0
1, 37529, Note_on_c, 1, 55, 0
1, 37536, Note_on_c, 0, 72, 0
1, 37536, Note_on_c, 0, 74, 81
1, 37536, Note_on_c, 0, 72, 0
1, 37536, Note_on_c, 0, 71, 71
1, 37575, Note_on_c, 0, 74, 0
1, 37575, Note_on_c, 0, 71, 0
1, 37584, Note_on_c, 1, 53, 86
1, 37629, Note_on_c, 1, 53, 0
1, 37632, Note_on_c, 1, 51, 86
1, 37677, Note_on_c, 1, 51, 0
1, 37680, Note_on_c, 1, 50, 86
1, 37725, Note_on_c, 1, 50, 0
1, 37728, Note_on_c, 1, 48, 86
1, 37776, Note_on_c, 0, 72, 78
1, 37817, Note_on_c, 1, 48, 0
1, 37821, Note_on_c, 0, 72, 0
1, 37824, Note_on_c, 0, 75, 79
1, 37869, Note_on_c, 0, 75, 0
1, 37872, Note_on_c, 0, 72, 81
1, 37917, Note_on_c, 0, 72, 0
1, 37920, Note_on_c, 0, 68, 82
1, 37965, Note_on_c, 0, 68, 0
1, 37968, Note_on_c, 0, 67, 84
1, 38013, Note_on_c, 0, 67, 0
1, 38016, Note_on_c, 0, 67, 102
1, 38016, Note_on_c, 1, 50, 71
1, 38064, Note_on_c, 0, 57, 78
1, 38109, Note_on_c, 0, 57, 0
1, 38112, Note_on_c, 0, 67, 0
1, 38112, Note_on_c, 0, 66, 83
1, 38112, Note_on_c, 0, 60, 79
1, 38157, Note_on_c, 0, 60, 0
1, 38160, Note_on_c, 0, 63, 81
1, 38205, Note_on_c, 0, 63, 0
1, 38208, Note_on_c, 0, 62, 82
1, 38253, Note_on_c, 0, 62, 0
1, 38256, Note_on_c, 0, 60, 84
1, 38281, Note_on_c, 1, 50, 0
1, 38289, Note_on_c, 0, 66, 0
1, 38301, Note_on_c, 0, 60, 0
1, 38304, Note_on_c, 0, 60, 102
1, 38304, Note_on_c, 1, 55, 71
1, 38352, Note_on_c, 0, 65, 78
1, 38397, Note_on_c, 0, 65, 0
1, 38400, Note_on_c, 0, 74, 79
1, 38400, Note_on_c, 0, 60, 0
1, 38400, Note_on_c, 0, 59, 83
1, 38445, Note_on_c, 0, 74, 0
1, 38448, Note_on_c, 0, 71, 81
1, 38493, Note_on_c, 0, 71, 0
1, 38496, Note_on_c, 0, 67, 82
1, 38541, Note_on_c, 0, 67, 0
1, 38544, Note_on_c, 0, 65, 84
1, 38569, Note_on_c, 1, 55, 0
1, 38577, Note_on_c, 0, 59, 0
1, 38589, Note_on_c, 0, 65, 0
1, 38592, Note_on_c, 0, 65, 86
1, 38592, Note_on_c, 1, 48, 71
1, 38640, Note_on_c, 0, 55, 78
1, 38685, Note_on_c, 0, 55, 0
1, 38688, Note_on_c, 0, 65, 0
1, 38688, Note_on_c, 0, 63, 83
1, 38688, Note_on_c, 0, 60, 79
1, 38733, Note_on_c, 0, 60, 0
1, 38736, Note_on_c, 0, 58, 81
1, 38781, Note_on_c, 0, 58, 0
1, 38784, Note_on_c, 0, 56, 82
1, 38829, Note_on_c, 0, 56, 0
1, 38832, Note_on_c, 0, 55, 84
1, 38857, Note_on_c, 1, 48, 0
1, 38877, Note_on_c, 0, 55, 0
1, 38880, Note_on_c, 0, 56, 86
1, 38880, Note_on_c, 1, 41, 78
1, 38925, Note_on_c, 0, 63, 0
1, 38928, Note_on_c, 0, 62, 78
1, 38973, Note_on_c, 0, 62, 0
1, 38976, Note_on_c, 0, 68, 79
1, 39021, Note_on_c, 0, 68, 0
1, 39024, Note_on_c, 0, 65, 81
1, 39057, Note_on_c, 0, 56, 0
1, 39057, Note_on_c, 1, 41, 0
1, 39069, Note_on_c, 0, 65, 0
1, 39072, Note_on_c, 0, 62, 82
1, 39072, Note_on_c, 1, 42, 83
1, 39117, Note_on_c, 0, 62, 0
1, 39120, Note_on_c, 0, 60, 84
1, 39161, Note_on_c, 1, 42, 0
1, 39165, Note_on_c, 0, 60, 0
1, 39168, Note_on_c, 0, 59, 86
1, 39168, Note_on_c, 1, 43, 86
1, 39168, Note_on_c, 1, 31, 86
1, 39191, Note_on_c, 0, 59, 0
1, 39192, Note_on_c, 0, 62, 86
1, 39215, Note_on_c, 0, 62, 0
1, 39216, Note_on_c, 0, 60, 86
1, 39239, Note_on_c, 0, 60, 0
1, 39240, Note_on_c, 0, 63, 86
1, 39257, Note_on_c, 1, 43, 0
1, 39257, Note_on_c, 1, 31, 0
1, 39263, Note_on_c, 0, 63, 0
1, 39264, Note_on_c, 0, 62, 86
1, 39264, Note_on_c, 1, 59, 86
1, 39284, Note_on_c, 1, 59, 0
1, 39287, Note_on_c, 0, 62, 0
1, 39288, Note_on_c, 0, 65, 86
1, 39311, Note_on_c, 0, 65, 0
1, 39312, Note_on_c, 0, 63, 86
1, 39312, Note_on_c, 1, 60, 86
1, 39332, Note_on_c, 1, 60, 0
1, 39335, Note_on_c, 0, 63, 0
1, 39336, Note_on_c, 0, 67, 86
1, 39359, Note_on_c, 0, 67, 0
1, 39360, Note_on_c, 0, 65, 86
1, 39360, Note_on_c, 1, 62, 86
1, 39380, Note_on_c, 1, 62, 0
1, 39405, Note_on_c, 0, 65, 0
1, 39456, Note_on_c, 0, 60, 86
1, 39456, Note_on_c, 1, 43, 86
1, 39456, Note_on_c, 1, 31, 86
1, 39479, Note_on_c, 0, 60, 0
1, 39480, Note_on_c, 0, 63, 86
1, 39503, Note_on_c, 0, 63, 0
1, 39504, Note_on_c, 0, 62, 86
1, 39527, Note_on_c, 0, 62, 0
1, 39528, Note_on_c, 0, 65, 86
1, 39545, Note_on_c, 1, 43, 0
1, 39545, Note_on_c, 1, 31, 0
1, 39551, Note_on_c, 0, 65, 0
1, 39552, Note_on_c, 0, 63, 86
1, 39552, Note_on_c, 1, 60, 86
1, 39572, Note_on_c, 1, 60, 0
1, 39575, Note_on_c, 0, 63, 0
1, 39576, Note_on_c, 0, 67, 86
1, 39599, Note_on_c, 0, 67, 0
1, 39600, Note_on_c, 0, 65, 86
1, 39600, Note_on_c, 1, 62, 86
1, 39620, Note_on_c, 1, 62, 0
1, 39623, Note_on_c, 0, 65, 0
1, 39624, Note_on_c, 0, 68, 86
1, 39647, Note_on_c, 0, 68, 0
1, 39648, Note_on_c, 0, 67, 86
1, 39648, Note_on_c, 1, 63, 86
1, 39668, Note_on_c, 1, 63, 0
1, 39693, Note_on_c, 0, 67, 0
1, 39744, Note_on_c, 0, 59, 86
1, 39744, Note_on_c, 1, 55, 86
1, 39764, Note_on_c, 1, 55, 0
1, 39767, Note_on_c, 0, 59, 0
1, 39768, Note_on_c, 0, 62, 86
1, 39791, Note_on_c, 0, 62, 0
1, 39792, Note_on_c, 0, 60, 86
1, 39792, Note_on_c, 1, 57, 86
1, 39812, Note_on_c, 1, 57, 0
1, 39815, Note_on_c, 0, 60, 0
1, 39816, Note_on_c, 0, 63, 86
1, 39839, Note_on_c, 0, 63, 0
1, 39840, Note_on_c, 0, 62, 86
1, 39840, Note_on_c, 1, 59, 86
1, 39863, Note_on_c, 0, 62, 0
1, 39864, Note_on_c, 0, 65, 86
1, 39879, Note_on_c, 1, 59, 0
1, 39887, Note_on_c, 0, 65, 0
1, 39888, Note_on_c, 0, 63, 86
1, 39911, Note_on_c, 0, 63, 0
1, 39912, Note_on_c, 0, 67, 86
1, 39935, Note_on_c, 0, 67, 0
1, 39936, Note_on_c, 0, 65, 86
1, 39959, Note_on_c, 0, 65, 0
1, 39960, Note_on_c, 0, 68, 86
1, 39983, Note_on_c, 0, 68, 0
1, 39984, Note_on_c, 0, 67, 86
1, 40007, Note_on_c, 0, 67, 0
1, 40008, Note_on_c, 0, 65, 86
1, 40031, Note_on_c, 0, 65, 0
1, 40032, Note_on_c, 0, 63, 86
1, 40032, Note_on_c, 1, 60, 86
1, 40052, Note_on_c, 1, 60, 0
1, 40055, Note_on_c, 0, 63, 0
1, 40056, Note_on_c, 0, 67, 86
1, 40079, Note_on_c, 0, 67, 0
1, 40080, Note_on_c, 0, 65, 86
1, 40080, Note_on_c, 1, 62, 86
1, 40100, Note_on_c, 1, 62, 0
1, 40103, Note_on_c, 0, 65, 0
1, 40104, Note_on_c, 0, 68, 86
1, 40127, Note_on_c, 0, 68, 0
1, 40128, Note_on_c, 0, 67, 86
1, 40128, Note_on_c, 1, 63, 86
1, 40151, Note_on_c, 0, 67, 0
1, 40152, Note_on_c, 0, 72, 86
1, 40167, Note_on_c, 1, 63, 0
1, 40175, Note_on_c, 0, 72, 0
1, 40176, Note_on_c, 0, 71, 86
1, 40199, Note_on_c, 0, 71, 0
1, 40200, Note_on_c, 0, 74, 86
1, 40223, Note_on_c, 0, 74, 0
1, 40224, Note_on_c, 0, 72, 86
1, 40247, Note_on_c, 0, 72, 0
1, 40248, Note_on_c, 0, 75, 86
1, 40271, Note_on_c, 0, 75, 0
1, 40272, Note_on_c, 0, 74, 86
1, 40295, Note_on_c, 0, 74, 0
1, 40296, Note_on_c, 0, 72, 86
1, 40319, Note_on_c, 0, 72, 0
1, 40320, Note_on_c, 0, 71, 86
1, 40320, Note_on_c, 1, 67, 86
1, 40340, Note_on_c, 1, 67, 0
1, 40343, Note_on_c, 0, 71, 0
1, 40344, Note_on_c, 0, 74, 86
1, 40367, Note_on_c, 0, 74, 0
1, 40368, Note_on_c, 0, 72, 86
1, 40368, Note_on_c, 1, 69, 86
1, 40388, Note_on_c, 1, 69, 0
1, 40391, Note_on_c, 0, 72, 0
1, 40392, Note_on_c, 0, 75, 86
1, 40415, Note_on_c, 0, 75, 0
1, 40416, Note_on_c, 0, 74, 86
1, 40416, Note_on_c, 1, 71, 86
1, 40439, Note_on_c, 0, 74, 0
1, 40440, Note_on_c, 0, 77, 86
1, 40455, Note_on_c, 1, 71, 0
1, 40463, Note_on_c, 0, 77, 0
1, 40464, Note_on_c, 0, 75, 86
1, 40487, Note_on_c, 0, 75, 0
1, 40488, Note_on_c, 0, 79, 86
1, 40511, Note_on_c, 0, 79, 0
1, 40512, Note_on_c, 0, 77, 86
1, 40535, Note_on_c, 0, 77, 0
1, 40536, Note_on_c, 0, 80, 86
1, 40559, Note_on_c, 0, 80, 0
1, 40560, Note_on_c, 0, 79, 86
1, 40583, Note_on_c, 0, 79, 0
1, 40584, Note_on_c, 0, 77, 86
1, 40607, Note_on_c, 0, 77, 0
1, 40608, Note_on_c, 0, 75, 86
1, 40608, Note_on_c, 1, 72, 86
1, 40628, Note_on_c, 1, 72, 0
1, 40631, Note_on_c, 0, 75, 0
1, 40632, Note_on_c, 0, 79, 86
1, 40655, Note_on_c, 0, 79, 0
1, 40656, Note_on_c, 0, 77, 86
1, 40656, Note_on_c, 1, 74, 86
1, 40676, Note_on_c, 1, 74, 0
1, 40679, Note_on_c, 0, 77, 0
1, 40680, Note_on_c, 0, 80, 86
1, 40703, Note_on_c, 0, 80, 0
1, 40704, Note_on_c, 0, 79, 86
1, 40704, Note_on_c, 1, 75, 86
1, 40727, Note_on_c, 0, 79, 0
1, 40728, Note_on_c, 0, 84, 86
1, 40743, Note_on_c, 1, 75, 0
1, 40751, Note_on_c, 0, 84, 0
1, 40752, Note_on_c, 0, 83, 86
1, 40775, Note_on_c, 0, 83, 0
1, 40776, Note_on_c, 0, 86, 86
1, 40799, Note_on_c, 0, 86, 0
1, 40800, Note_on_c, 0, 84, 86
1, 40823, Note_on_c, 0, 84, 0
1, 40824, Note_on_c, 0, 87, 86
1, 40847, Note_on_c, 0, 87, 0
1, 40848, Note_on_c, 0, 86, 86
1, 40871, Note_on_c, 0, 86, 0
1, 40872, Note_on_c, 0, 84, 86
1, 40895, Note_on_c, 0, 84, 0
1, 40896, Note_on_c, 0, 83, 86
1, 40919, Note_on_c, 0, 83, 0
1, 40920, Note_on_c, 0, 84, 86
1, 40943, Note_on_c, 0, 84, 0
1, 40944, Note_on_c, 0, 86, 86
1, 40967, Note_on_c, 0, 86, 0
1, 40968, Note_on_c, 0, 83, 86
1, 40991, Note_on_c, 0, 83, 0
1, 40992, Note_on_c, 0, 79, 86
1, 41016, Note_on_c, 1, 77, 86
1, 41037, Note_on_c, 0, 79, 0
1, 41039, Note_on_c, 1, 77, 0
1, 41040, Note_on_c, 1, 75, 86
1, 41063, Note_on_c, 1, 75, 0
1, 41064, Note_on_c, 1, 74, 86
1, 41087, Note_on_c, 1, 74, 0
1, 41088, Note_on_c, 1, 72, 86
1, 41111, Note_on_c, 1, 72, 0
1, 41112, Note_on_c, 1, 71, 86
1, 41135, Note_on_c, 1, 71, 0
1, 41136, Note_on_c, 1, 69, 86
1, 41159, Note_on_c, 1, 69, 0
1, 41160, Note_on_c, 1, 67, 86
1, 41183, Note_on_c, 1, 67, 0
1, 41184, Note_on_c, 0, 87, 86
1, 41184, Note_on_c, 1, 72, 86
1, 41207, Note_on_c, 0, 87, 0
1, 41208, Note_on_c, 0, 79, 86
1, 41231, Note_on_c, 0, 79, 0
1, 41232, Note_on_c, 0, 78, 86
1, 41255, Note_on_c, 0, 78, 0
1, 41256, Note_on_c, 0, 79, 86
1, 41273, Note_on_c, 1, 72, 0
1, 41279, Note_on_c, 0, 79, 0
1, 41280, Note_on_c, 0, 86, 86
1, 41280, Note_on_c, 1, 70, 86
1, 41303, Note_on_c, 0, 86, 0
1, 41304, Note_on_c, 0, 79, 86
1, 41327, Note_on_c, 0, 79, 0
1, 41328, Note_on_c, 0, 78, 86
1, 41351, Note_on_c, 0, 78, 0
1, 41352, Note_on_c, 0, 79, 86
1, 41369, Note_on_c, 1, 70, 0
1, 41375, Note_on_c, 0, 79, 0
1, 41376, Note_on_c, 0, 84, 86
1, 41376, Note_on_c, 1, 68, 86
1, 41399, Note_on_c, 0, 84, 0
1, 41400, Note_on_c, 0, 79, 86
1, 41423, Note_on_c, 0, 79, 0
1, 41424, Note_on_c, 0, 78, 86
1, 41447, Note_on_c, 0, 78, 0
1, 41448, Note_on_c, 0, 79, 86
1, 41465, Note_on_c, 1, 68, 0
1, 41471, Note_on_c, 0, 79, 0
1, 41472, Note_on_c, 0, 83, 86
1, 41472, Note_on_c, 1, 67, 86
1, 41495, Note_on_c, 0, 83, 0
1, 41496, Note_on_c, 0, 84, 86
1, 41519, Note_on_c, 0, 84, 0
1, 41520, Note_on_c, 0, 86, 86
1, 41543, Note_on_c, 0, 86, 0
1, 41544, Note_on_c, 0, 83, 86
1, 41561, Note_on_c, 1, 67, 0
1, 41567, Note_on_c, 0, 83, 0
1, 41568, Note_on_c, 0, 79, 86
1, 41592, Note_on_c, 1, 77, 86
1, 41613, Note_on_c, 0, 79, 0
1, 41615, Note_on_c, 1, 77, 0
1, 41616, Note_on_c, 1, 75, 86
1, 41639, Note_on_c, 1, 75, 0
1, 41640, Note_on_c, 1, 74, 86
1, 41663, Note_on_c, 1, 74, 0
1, 41664, Note_on_c, 1, 72, 86
1, 41687, Note_on_c, 1, 72, 0
1, 41688, Note_on_c, 1, 71, 86
1, 41711, Note_on_c, 1, 71, 0
1, 41712, Note_on_c, 1, 69, 86
1, 41735, Note_on_c, 1, 69, 0
1, 41736, Note_on_c, 1, 67, 86
1, 41759, Note_on_c, 1, 67, 0
1, 41760, Note_on_c, 0, 87, 86
1, 41760, Note_on_c, 1, 72, 86
1, 41783, Note_on_c, 0, 87, 0
1, 41784, Note_on_c, 0, 79, 86
1, 41807, Note_on_c, 0, 79, 0
1, 41808, Note_on_c, 0, 78, 86
1, 41831, Note_on_c, 0, 78, 0
1, 41832, Note_on_c, 0, 79, 86
1, 41849, Note_on_c, 1, 72, 0
1, 41855, Note_on_c, 0, 79, 0
1, 41856, Note_on_c, 0, 86, 86
1, 41856, Note_on_c, 1, 70, 86
1, 41879, Note_on_c, 0, 86, 0
1, 41880, Note_on_c, 0, 79, 86
1, 41903, Note_on_c, 0, 79, 0
1, 41904, Note_on_c, 0, 78, 86
1, 41927, Note_on_c, 0, 78, 0
1, 41928, Note_on_c, 0, 79, 86
1, 41945, Note_on_c, 1, 70, 0
1, 41951, Note_on_c, 0, 79, 0
1, 41952, Note_on_c, 0, 84, 86
1, 41952, Note_on_c, 1, 68, 86
1, 41975, Note_on_c, 0, 84, 0
1, 41976, Note_on_c, 0, 79, 86
1, 41999, Note_on_c, 0, 79, 0
1, 42000, Note_on_c, 0, 78, 86
1, 42023, Note_on_c, 0, 78, 0
1, 42024, Note_on_c, 0, 79, 86
1, 42041, Note_on_c, 1, 68, 0
1, 42047, Note_on_c, 0, 79, 0
1, 42048, Note_on_c, 0, 83, 86
1, 42048, Note_on_c, 1, 67, 86
1, 42071, Note_on_c, 0, 83, 0
1, 42072, Note_on_c, 0, 84, 86
1, 42095, Note_on_c, 0, 84, 0
1, 42096, Note_on_c, 0, 86, 86
1, 42119, Note_on_c, 0, 86, 0
1, 42120, Note_on_c, 0, 83, 86
1, 42137, Note_on_c, 1, 67, 0
1, 42143, Note_on_c, 0, 83, 0
1, 42144, Note_on_c, 0, 79, 86
1, 42168, Note_on_c, 1, 77, 86
1, 42189, Note_on_c, 0, 79, 0
1, 42191, Note_on_c, 1, 77, 0
1, 42192, Note_on_c, 1, 75, 86
1, 42215, Note_on_c, 1, 75, 0
1, 42216, Note_on_c, 1, 74, 86
1, 42239, Note_on_c, 1, 74, 0
1, 42240, Note_on_c, 1, 72, 86
1, 42263, Note_on_c, 1, 72, 0
1, 42264, Note_on_c, 1, 71, 86
1, 42287, Note_on_c, 1, 71, 0
1, 42288, Note_on_c, 1, 69, 86
1, 42311, Note_on_c, 1, 69, 0
1, 42312, Note_on_c, 1, 67, 86
1, 42335, Note_on_c, 1, 67, 0
1, 42336, Note_on_c, 0, 75, 86
1, 42336, Note_on_c, 1, 72, 86
1, 42359, Note_on_c, 0, 75, 0
1, 42360, Note_on_c, 0, 77, 86
1, 42383, Note_on_c, 0, 77, 0
1, 42384, Note_on_c, 0, 79, 86
1, 42407, Note_on_c, 0, 79, 0
1, 42408, Note_on_c, 0, 75, 86
1, 42425, Note_on_c, 1, 72, 0
1, 42431, Note_on_c, 0, 75, 0
1, 42432, Note_on_c, 0, 72, 86
1, 42456, Note_on_c, 1, 70, 86
1, 42477, Note_on_c, 0, 72, 0
1, 42479, Note_on_c, 1, 70, 0
1, 42480, Note_on_c, 1, 68, 86
1, 42503, Note_on_c, 1, 68, 0
1, 42504, Note_on_c, 1, 67, 86
1, 42527, Note_on_c, 1, 67, 0
1, 42528, Note_on_c, 1, 65, 86
1, 42551, Note_on_c, 1, 65, 0
1, 42552, Note_on_c, 1, 63, 86
1, 42575, Note_on_c, 1, 63, 0
1, 42576, Note_on_c, 1, 62, 86
1, 42599, Note_on_c, 1, 62, 0
1, 42600, Note_on_c, 1, 60, 86
1, 42623, Note_on_c, 1, 60, 0
1, 42624, Note_on_c, 0, 80, 86
1, 42624, Note_on_c, 1, 65, 86
1, 42647, Note_on_c, 0, 80, 0
1, 42648, Note_on_c, 0, 72, 86
1, 42671, Note_on_c, 0, 72, 0
1, 42672, Note_on_c, 0, 71, 86
1, 42695, Note_on_c, 0, 71, 0
1, 42696, Note_on_c, 0, 72, 86
1, 42713, Note_on_c, 1, 65, 0
1, 42719, Note_on_c, 0, 72, 0
1, 42720, Note_on_c, 0, 79, 86
1, 42720, Note_on_c, 1, 63, 86
1, 42743, Note_on_c, 0, 79, 0
1, 42744, Note_on_c, 0, 72, 86
1, 42767, Note_on_c, 0, 72, 0
1, 42768, Note_on_c, 0, 71, 86
1, 42791, Note_on_c, 0, 71, 0
1, 42792, Note_on_c, 0, 72, 86
1, 42809, Note_on_c, 1, 63, 0
1, 42815, Note_on_c, 0, 72, 0
1, 42816, Note_on_c, 0, 77, 86
1, 42816, Note_on_c, 1, 62, 86
1, 42839, Note_on_c, 0, 77, 0
1, 42840, Note_on_c, 0, 72, 86
1, 42863, Note_on_c, 0, 72, 0
1, 42864, Note_on_c, 0, 71, 86
1, 42887, Note_on_c, 0, 71, 0
1, 42888, Note_on_c, 0, 72, 86
1, 42905, Note_on_c, 1, 62, 0
1, 42911, Note_on_c, 0, 72, 0
1, 42912, Note_on_c, 0, 75, 86
1, 42912, Note_on_c, 1, 60, 86
1, 42935, Note_on_c, 0, 75, 0
1, 42936, Note_on_c, 0, 77, 86
1, 42959, Note_on_c, 0, 77, 0
1, 42960, Note_on_c, 0, 79, 86
1, 42983, Note_on_c, 0, 79, 0
1, 42984, Note_on_c, 0, 75, 86
1, 43001, Note_on_c, 1, 60, 0
1, 43007, Note_on_c, 0, 75, 0
1, 43008, Note_on_c, 0, 72, 86
1, 43032, Note_on_c, 1, 70, 86
1, 43053, Note_on_c, 0, 72, 0
1, 43055, Note_on_c, 1, 70, 0
1, 43056, Note_on_c, 1, 68, 86
1, 43079, Note_on_c, 1, 68, 0
1, 43080, Note_on_c, 1, 67, 86
1, 43103, Note_on_c, 1, 67, 0
1, 43104, Note_on_c, 1, 65, 86
1, 43127, Note_on_c, 1, 65, 0
1, 43128, Note_on_c, 1, 63, 86
1, 43151, Note_on_c, 1, 63, 0
1, 43152, Note_on_c, 1, 62, 86
1, 43175, Note_on_c, 1, 62, 0
1, 43176, Note_on_c, 1, 60, 86
1, 43199, Note_on_c, 1, 60, 0
1, 43200, Note_on_c, 0, 80, 86
1, 43200, Note_on_c, 1, 65, 86
1, 43223, Note_on_c, 0, 80, 0
1, 43224, Note_on_c, 0, 72, 86
1, 43247, Note_on_c, 0, 72, 0
1, 43248, Note_on_c, 0, 71, 86
1, 43271, Note_on_c, 0, 71, 0
1, 43272, Note_on_c, 0, 72, 86
1, 43289, Note_on_c, 1, 65, 0
1, 43295, Note_on_c, 0, 72, 0
1, 43296, Note_on_c, 0, 79, 86
1, 43296, Note_on_c, 1, 63, 86
1, 43319, Note_on_c, 0, 79, 0
1, 43320, Note_on_c, 0, 72, 86
1, 43343, Note_on_c, 0, 72, 0
1, 43344, Note_on_c, 0, 71, 86
1, 43367, Note_on_c, 0, 71, 0
1, 43368, Note_on_c, 0, 72, 86
1, 43385, Note_on_c, 1, 63, 0
1, 43391, Note_on_c, 0, 72, 0
1, 43392, Note_on_c, 0, 79, 86
1, 43415, Note_on_c, 0, 79, 0
1, 43416, Note_on_c, 0, 72, 86
1, 43439, Note_on_c, 0, 72, 0
1, 43440, Note_on_c, 0, 71, 86
1, 43463, Note_on_c, 0, 71, 0
1, 43464, Note_on_c, 0, 72, 86
1, 43487, Note_on_c, 0, 72, 0
1, 43488, Note_on_c, 0, 77, 86
1, 43488, Note_on_c, 1, 68, 86
1, 43511, Note_on_c, 0, 77, 0
1, 43512, Note_on_c, 0, 72, 86
1, 43535, Note_on_c, 0, 72, 0
1, 43536, Note_on_c, 0, 71, 86
1, 43559, Note_on_c, 0, 71, 0
1, 43560, Note_on_c, 0, 72, 86
1, 43577, Note_on_c, 1, 68, 0
1, 43583, Note_on_c, 0, 72, 0
1, 43584, Note_on_c, 0, 75, 86
1, 43584, Note_on_c, 1, 67, 86
1, 43607, Note_on_c, 0, 75, 0
1, 43608, Note_on_c, 0, 72, 86
1, 43631, Note_on_c, 0, 72, 0
1, 43632, Note_on_c, 0, 71, 86
1, 43655, Note_on_c, 0, 71, 0
1, 43656, Note_on_c, 0, 72, 86
1, 43673, Note_on_c, 1, 67, 0
1, 43679, Note_on_c, 0, 72, 0
1, 43680, Note_on_c, 0, 75, 86
1, 43703, Note_on_c, 0, 75, 0
1, 43704, Note_on_c, 0, 72, 86
1, 43727, Note_on_c, 0, 72, 0
1, 43728, Note_on_c, 0, 71, 86
1, 43751, Note_on_c, 0, 71, 0
1, 43752, Note_on_c, 0, 72, 86
1, 43775, Note_on_c, 0, 72, 0
1, 43776, Note_on_c, 0, 80, 86
1, 43776, Note_on_c, 1, 65, 86
1, 43799, Note_on_c, 0, 80, 0
1, 43800, Note_on_c, 0, 72, 86
1, 43823, Note_on_c, 0, 72, 0
1, 43824, Note_on_c, 0, 71, 86
1, 43847, Note_on_c, 0, 71, 0
1, 43848, Note_on_c, 0, 72, 86
1, 43865, Note_on_c, 1, 65, 0
1, 43871, Note_on_c, 0, 72, 0
1, 43872, Note_on_c, 0, 79, 86
1, 43872, Note_on_c, 1, 63, 86
1, 43895, Note_on_c, 0, 79, 0
1, 43896, Note_on_c, 0, 72, 86
1, 43919, Note_on_c, 0, 72, 0
1, 43920, Note_on_c, 0, 71, 86
1, 43943, Note_on_c, 0, 71, 0
1, 43944, Note_on_c, 0, 72, 86
1, 43961, Note_on_c, 1, 63, 0
1, 43967, Note_on_c, 0, 72, 0
1, 43968, Note_on_c, 0, 79, 86
1, 43991, Note_on_c, 0, 79, 0
1, 43992, Note_on_c, 0, 72, 86
1, 44015, Note_on_c, 0, 72, 0
1, 44016, Note_on_c, 0, 71, 86
1, 44039, Note_on_c, 0, 71, 0
1, 44040, Note_on_c, 0, 72, 86
1, 44063, Note_on_c, 0, 72, 0
1, 44064, Note_on_c, 0, 78, 86
1, 44064, Note_on_c, 1, 62, 97
1, 44064, Note_on_c, 1, 50, 97
1, 44087, Note_on_c, 0, 78, 0
1, 44088, Note_on_c, 0, 72, 86
1, 44111, Note_on_c, 0, 72, 0
1, 44112, Note_on_c, 0, 71, 86
1, 44135, Note_on_c, 0, 71, 0
1, 44136, Note_on_c, 0, 72, 86
1, 44153, Note_on_c, 1, 62, 0
1, 44153, Note_on_c, 1, 50, 0
1, 44159, Note_on_c, 0, 72, 0
1, 44160, Note_on_c, 0, 78, 86
1, 44160, Note_on_c, 1, 87, 102
1, 44183, Note_on_c, 0, 78, 0
1, 44184, Note_on_c, 0, 72, 86
1, 44207, Note_on_c, 0, 72, 0
1, 44208, Note_on_c, 0, 71, 86
1, 44231, Note_on_c, 0, 71, 0
1, 44232, Note_on_c, 0, 72, 86
1, 44255, Note_on_c, 0, 72, 0
1, 44256, Note_on_c, 0, 78, 86
1, 44256, Note_on_c, 1, 87, 0
1, 44256, Note_on_c, 1, 81, 86
1, 44279, Note_on_c, 0, 78, 0
1, 44280, Note_on_c, 0, 72, 86
1, 44295, Note_on_c, 1, 81, 0
1, 44303, Note_on_c, 0, 72, 0
1, 44304, Note_on_c, 0, 71, 86
1, 44327, Note_on_c, 0, 71, 0
1, 44328, Note_on_c, 0, 78, 86
1, 44351, Note_on_c, 0, 78, 0
1, 44352, Note_on_c, 0, 77, 86
1, 44352, Note_on_c, 1, 67, 97
1, 44352, Note_on_c, 1, 55, 97
1, 44375, Note_on_c, 0, 77, 0
1, 44376, Note_on_c, 0, 71, 86
1, 44399, Note_on_c, 0, 71, 0
1, 44400, Note_on_c, 0, 69, 86
1, 44423, Note_on_c, 0, 69, 0
1, 44424, Note_on_c, 0, 71, 86
1, 44441, Note_on_c, 1, 67, 0
1, 44441, Note_on_c, 1, 55, 0
1, 44447, Note_on_c, 0, 71, 0
1, 44448, Note_on_c, 0, 77, 86
1, 44448, Note_on_c, 1, 86, 102
1, 44471, Note_on_c, 0, 77, 0
1, 44472, Note_on_c, 0, 71, 86
1, 44495, Note_on_c, 0, 71, 0
1, 44496, Note_on_c, 0, 69, 86
1, 44519, Note_on_c, 0, 69, 0
1, 44520, Note_on_c, 0, 71, 86
1, 44543, Note_on_c, 0, 71, 0
1, 44544, Note_on_c, 0, 77, 86
1, 44544, Note_on_c, 1, 86, 0
1, 44544, Note_on_c, 1, 79, 86
1, 44567, Note_on_c, 0, 77, 0
1, 44568, Note_on_c, 0, 71, 86
1, 44583, Note_on_c, 1, 79, 0
1, 44591, Note_on_c, 0, 71, 0
1, 44592, Note_on_c, 0, 69, 86
1, 44615, Note_on_c, 0, 69, 0
1, 44616, Note_on_c, 0, 71, 86
1, 44639, Note_on_c, 0, 71, 0
1, 44640, Note_on_c, 0, 76, 86
1, 44640, Note_on_c, 1, 60, 97
1, 44640, Note_on_c, 1, 48, 97
1, 44663, Note_on_c, 0, 76, 0
1, 44664, Note_on_c, 0, 70, 86
1, 44687, Note_on_c, 0, 70, 0
1, 44688, Note_on_c, 0, 69, 86
1, 44711, Note_on_c, 0, 69, 0
1, 44712, Note_on_c, 0, 70, 86
1, 44729, Note_on_c, 1, 60, 0
1, 44729, Note_on_c, 1, 48, 0
1, 44735, Note_on_c, 0, 70, 0
1, 44736, Note_on_c, 0, 76, 86
1, 44736, Note_on_c, 1, 85, 102
1, 44759, Note_on_c, 0, 76, 0
1, 44760, Note_on_c, 0, 70, 86
1, 44783, Note_on_c, 0, 70, 0
1, 44784, Note_on_c, 0, 69, 86
1, 44807, Note_on_c, 0, 69, 0
1, 44808, Note_on_c, 0, 70, 86
1, 44831, Note_on_c, 0, 70, 0
1, 44832, Note_on_c, 0, 76, 86
1, 44832, Note_on_c, 1, 85, 0
1, 44832, Note_on_c, 1, 79, 86
1, 44855, Note_on_c, 0, 76, 0
1, 44856, Note_on_c, 0, 70, 86
1, 44871, Note_on_c, 1, 79, 0
1, 44879, Note_on_c, 0, 70, 0
1, 44880, Note_on_c, 0, 69, 86
1, 44903, Note_on_c, 0, 69, 0
1, 44904, Note_on_c, 0, 70, 86
1, 44927, Note_on_c, 0, 70, 0
1, 44928, Note_on_c, 0, 75, 86
1, 44928, Note_on_c, 1, 65, 97
1, 44928, Note_on_c, 1, 53, 97
1, 44951, Note_on_c, 0, 75, 0
1, 44952, Note_on_c, 0, 69, 86
1, 44975, Note_on_c, 0, 69, 0
1, 44976, Note_on_c, 0, 67, 86
1, 44999, Note_on_c, 0, 67, 0
1, 45000, Note_on_c, 0, 69, 86
1, 45017, Note_on_c, 1, 65, 0
1, 45017, Note_on_c, 1, 53, 0
1, 45023, Note_on_c, 0, 69, 0
1, 45024, Note_on_c, 0, 75, 86
1, 45024, Note_on_c, 1, 84, 102
1, 45047, Note_on_c, 0, 75, 0
1, 45048, Note_on_c, 0, 69, 86
1, 45071, Note_on_c, 0, 69, 0
1, 45072, Note_on_c, 0, 67, 86
1, 45095, Note_on_c, 0, 67, 0
1, 45096, Note_on_c, 0, 69, 86
1, 45119, Note_on_c, 0, 69, 0
1, 45120, Note_on_c, 0, 75, 86
1, 45120, Note_on_c, 1, 84, 0
1, 45120, Note_on_c, 1, 77, 86
1, 45143, Note_on_c, 0, 75, 0
1, 45144, Note_on_c, 0, 69, 86
1, 45159, Note_on_c, 1, 77, 0
1, 45167, Note_on_c, 0, 69, 0
1, 45168, Note_on_c, 0, 67, 86
1, 45191, Note_on_c, 0, 67, 0
1, 45192, Note_on_c, 0, 75, 86
1, 45215, Note_on_c, 0, 75, 0
1, 45216, Note_on_c, 0, 74, 86
1, 45216, Note_on_c, 1, 58, 97
1, 45216, Note_on_c, 1, 46, 97
1, 45239, Note_on_c, 0, 74, 0
1, 45240, Note_on_c, 0, 68, 86
1, 45263, Note_on_c, 0, 68, 0
1, 45264, Note_on_c, 0, 67, 86
1, 45287, Note_on_c, 0, 67, 0
1, 45288, Note_on_c, 0, 68, 86
1, 45305, Note_on_c, 1, 58, 0
1, 45305, Note_on_c, 1, 46, 0
1, 45311, Note_on_c, 0, 68, 0
1, 45312, Note_on_c, 0, 74, 86
1, 45312, Note_on_c, 1, 89, 102
1, 45335, Note_on_c, 0, 74, 0
1, 45336, Note_on_c, 0, 68, 86
1, 45359, Note_on_c, 0, 68, 0
1, 45360, Note_on_c, 0, 67, 86
1, 45383, Note_on_c, 0, 67, 0
1, 45384, Note_on_c, 0, 68, 86
1, 45407, Note_on_c, 0, 68, 0
1, 45408, Note_on_c, 0, 74, 86
1, 45408, Note_on_c, 1, 89, 0
1, 45408, Note_on_c, 1, 82, 86
1, 45431, Note_on_c, 0, 74, 0
1, 45432, Note_on_c, 0, 68, 86
1, 45447, Note_on_c, 1, 82, 0
1, 45455, Note_on_c, 0, 68, 0
1, 45456, Note_on_c, 0, 67, 86
1, 45479, Note_on_c, 0, 67, 0
1, 45480, Note_on_c, 0, 68, 86
1, 45503, Note_on_c, 0, 68, 0
1, 45504, Note_on_c, 0, 74, 86
1, 45504, Note_on_c, 1, 63, 97
1, 45504, Note_on_c, 1, 51, 97
1, 45527, Note_on_c, 0, 74, 0
1, 45528, Note_on_c, 0, 67, 86
1, 45551, Note_on_c, 0, 67, 0
1, 45552, Note_on_c, 0, 66, 86
1, 45575, Note_on_c, 0, 66, 0
1, 45576, Note_on_c, 0, 67, 86
1, 45593, Note_on_c, 1, 63, 0
1, 45593, Note_on_c, 1, 51, 0
1, 45599, Note_on_c, 0, 67, 0
1, 45600, Note_on_c, 0, 74, 86
1, 45600, Note_on_c, 1, 82, 102
1, 45623, Note_on_c, 0, 74, 0
1, 45624, Note_on_c, 0, 67, 86
1, 45647, Note_on_c, 0, 67, 0
1, 45648, Note_on_c, 0, 66, 86
1, 45671, Note_on_c, 0, 66, 0
1, 45672, Note_on_c, 0, 67, 86
1, 45695, Note_on_c, 0, 67, 0
1, 45696, Note_on_c, 0, 74, 86
1, 45696, Note_on_c, 1, 82, 0
1, 45696, Note_on_c, 1, 75, 86
1, 45719, Note_on_c, 0, 74, 0
1, 45720, Note_on_c, 0, 67, 86
1, 45735, Note_on_c, 1, 75, 0
1, 45743, Note_on_c, 0, 67, 0
1, 45744, Note_on_c, 0, 66, 86
1, 45767, Note_on_c, 0, 66, 0
1, 45768, Note_on_c, 0, 67, 86
1, 45791, Note_on_c, 0, 67, 0
1, 45792, Note_on_c, 0, 72, 86
1, 45792, Note_on_c, 1, 56, 86
1, 45792, Note_on_c, 1, 44, 86
1, 45815, Note_on_c, 0, 72, 0
1, 45816, Note_on_c, 0, 67, 86
1, 45839, Note_on_c, 0, 67, 0
1, 45840, Note_on_c, 0, 66, 86
1, 45863, Note_on_c, 0, 66, 0
1, 45864, Note_on_c, 0, 67, 86
1, 45881, Note_on_c, 1, 56, 0
1, 45881, Note_on_c, 1, 44, 0
1, 45887, Note_on_c, 0, 67, 0
1, 45888, Note_on_c, 0, 72, 86
1, 45888, Note_on_c, 1, 87, 102
1, 45911, Note_on_c, 0, 72, 0
1, 45912, Note_on_c, 0, 67, 86
1, 45935, Note_on_c, 0, 67, 0
1, 45936, Note_on_c, 0, 66, 86
1, 45959, Note_on_c, 0, 66, 0
1, 45960, Note_on_c, 0, 67, 86
1, 45983, Note_on_c, 0, 67, 0
1, 45984, Note_on_c, 0, 72, 86
1, 45984, Note_on_c, 1, 87, 0
1, 45984, Note_on_c, 1, 80, 86
1, 46007, Note_on_c, 0, 72, 0
1, 46008, Note_on_c, 0, 67, 86
1, 46023, Note_on_c, 1, 80, 0
1, 46031, Note_on_c, 0, 67, 0
1, 46032, Note_on_c, 0, 66, 86
1, 46055, Note_on_c, 0, 66, 0
1, 46056, Note_on_c, 0, 67, 86
1, 46079, Note_on_c, 0, 67, 0
1, 46080, Note_on_c, 0, 72, 86
1, 46080, Note_on_c, 1, 62, 97
1, 46080, Note_on_c, 1, 50, 97
1, 46103, Note_on_c, 0, 72, 0
1, 46104, Note_on_c, 0, 65, 86
1, 46127, Note_on_c, 0, 65, 0
1, 46128, Note_on_c, 0, 64, 86
1, 46151, Note_on_c, 0, 64, 0
1, 46152, Note_on_c, 0, 65, 86
1, 46169, Note_on_c, 1, 62, 0
1, 46169, Note_on_c, 1, 50, 0
1, 46175, Note_on_c, 0, 65, 0
1, 46176, Note_on_c, 0, 72, 86
1, 46176, Note_on_c, 1, 80, 102
1, 46199, Note_on_c, 0, 72, 0
1, 46200, Note_on_c, 0, 65, 86
1, 46223, Note_on_c, 0, 65, 0
1, 46224, Note_on_c, 0, 64, 86
1, 46247, Note_on_c, 0, 64, 0
1, 46248, Note_on_c, 0, 65, 86
1, 46271, Note_on_c, 0, 65, 0
1, 46272, Note_on_c, 0, 72, 86
1, 46272, Note_on_c, 1, 80, 0
1, 46272, Note_on_c, 1, 74, 86
1, 46295, Note_on_c, 0, 72, 0
1, 46296, Note_on_c, 0, 65, 86
1, 46311, Note_on_c, 1, 74, 0
1, 46319, Note_on_c, 0, 65, 0
1, 46320, Note_on_c, 0, 64, 86
1, 46343, Note_on_c, 0, 64, 0
1, 46344, Note_on_c, 0, 65, 86
1, 46367, Note_on_c, 0, 65, 0
1, 46368, Note_on_c, 0, 71, 86
1, 46368, Note_on_c, 1, 55, 97
1, 46368, Note_on_c, 1, 43, 97
1, 46391, Note_on_c, 0, 71, 0
1, 46392, Note_on_c, 0, 65, 86
1, 46415, Note_on_c, 0, 65, 0
1, 46416, Note_on_c, 0, 64, 86
1, 46439, Note_on_c, 0, 64, 0
1, 46440, Note_on_c, 0, 65, 86
1, 46457, Note_on_c, 1, 55, 0
1, 46457, Note_on_c, 1, 43, 0
1, 46463, Note_on_c, 0, 65, 0
1, 46464, Note_on_c, 0, 71, 86
1, 46464, Note_on_c, 1, 86, 102
1, 46487, Note_on_c, 0, 71, 0
1, 46488, Note_on_c, 0, 65, 86
1, 46511, Note_on_c, 0, 65, 0
1, 46512, Note_on_c, 0, 64, 86
1, 46535, Note_on_c, 0, 64, 0
1, 46536, Note_on_c, 0, 65, 86
1, 46559, Note_on_c, 0, 65, 0
1, 46560, Note_on_c, 0, 71, 86
1, 46560, Note_on_c, 1, 86, 0
1, 46560, Note_on_c, 1, 79, 86
1, 46583, Note_on_c, 0, 71, 0
1, 46584, Note_on_c, 0, 65, 86
1, 46599, Note_on_c, 1, 79, 0
1, 46607, Note_on_c, 0, 65, 0
1, 46608, Note_on_c, 0, 64, 86
1, 46631, Note_on_c, 0, 64, 0
1, 46632, Note_on_c, 0, 65, 86
1, 46655, Note_on_c, 0, 65, 0
1, 46656, Note_on_c, 0, 72, 86
1, 46656, Note_on_c, 1, 55, 97
1, 46656, Note_on_c, 1, 43, 97
1, 46679, Note_on_c, 0, 72, 0
1, 46680, Note_on_c, 0, 63, 86
1, 46703, Note_on_c, 0, 63, 0
1, 46704, Note_on_c, 0, 62, 86
1, 46727, Note_on_c, 0, 62, 0
1, 46728, Note_on_c, 0, 63, 86
1, 46745, Note_on_c, 1, 55, 0
1, 46745, Note_on_c, 1, 43, 0
1, 46751, Note_on_c, 0, 63, 0
1, 46752, Note_on_c, 0, 72, 86
1, 46752, Note_on_c, 1, 79, 102
1, 46775, Note_on_c, 0, 72, 0
1, 46776, Note_on_c, 0, 63, 86
1, 46799, Note_on_c, 0, 63, 0
1, 46800, Note_on_c, 0, 62, 86
1, 46823, Note_on_c, 0, 62, 0
1, 46824, Note_on_c, 0, 63, 86
1, 46847, Note_on_c, 0, 63, 0
1, 46848, Note_on_c, 0, 72, 86
1, 46848, Note_on_c, 1, 79, 0
1, 46848, Note_on_c, 1, 75, 86
1, 46871, Note_on_c, 0, 72, 0
1, 46872, Note_on_c, 0, 63, 86
1, 46887, Note_on_c, 1, 75, 0
1, 46895, Note_on_c, 0, 63, 0
1, 46896, Note_on_c, 0, 62, 86
1, 46919, Note_on_c, 0, 62, 0
1, 46920, Note_on_c, 0, 63, 86
1, 46943, Note_on_c, 0, 63, 0
1, 46944, Note_on_c, 0, 72, 86
1, 46944, Note_on_c, 1, 56, 97
1, 46944, Note_on_c, 1, 44, 97
1, 46967, Note_on_c, 0, 72, 0
1, 46968, Note_on_c, 0, 66, 86
1, 46991, Note_on_c, 0, 66, 0
1, 46992, Note_on_c, 0, 60, 86
1, 47015, Note_on_c, 0, 60, 0
1, 47016, Note_on_c, 0, 66, 86
1, 47033, Note_on_c, 1, 56, 0
1, 47033, Note_on_c, 1, 44, 0
1, 47039, Note_on_c, 0, 66, 0
1, 47040, Note_on_c, 0, 72, 86
1, 47040, Note_on_c, 1, 84, 102
1, 47063, Note_on_c, 0, 72, 0
1, 47064, Note_on_c, 0, 66, 86
1, 47087, Note_on_c, 0, 66, 0
1, 47088, Note_on_c, 0, 60, 86
1, 47111, Note_on_c, 0, 60, 0
1, 47112, Note_on_c, 0, 66, 86
1, 47135, Note_on_c, 0, 66, 0
1, 47136, Note_on_c, 0, 72, 86
1, 47136, Note_on_c, 1, 84, 0
1, 47136, Note_on_c, 1, 87, 86
1, 47159, Note_on_c, 0, 72, 0
1, 47160, Note_on_c, 0, 66, 86
1, 47183, Note_on_c, 0, 66, 0
1, 47184, Note_on_c, 0, 60, 86
1, 47207, Note_on_c, 0, 60, 0
1, 47208, Note_on_c, 0, 66, 86
1, 47225, Note_on_c, 1, 87, 0
1, 47231, Note_on_c, 0, 66, 0
1, 47232, Note_on_c, 0, 72, 86
1, 47232, Note_on_c, 1, 87, 102
1, 47255, Note_on_c, 0, 72, 0
1, 47256, Note_on_c, 0, 66, 86
1, 47279, Note_on_c, 0, 66, 0
1, 47280, Note_on_c, 0, 60, 86
1, 47303, Note_on_c, 0, 60, 0
1, 47304, Note_on_c, 0, 66, 86
1, 47327, Note_on_c, 0, 66, 0
1, 47328, Note_on_c, 0, 72, 86
1, 47328, Note_on_c, 1, 87, 0
1, 47328, Note_on_c, 1, 86, 86
1, 47351, Note_on_c, 0, 72, 0
1, 47352, Note_on_c, 0, 66, 86
1, 47375, Note_on_c, 0, 66, 0
1, 47376, Note_on_c, 0, 60, 86
1, 47399, Note_on_c, 0, 60, 0
1, 47400, Note_on_c, 0, 66, 86
1, 47417, Note_on_c, 1, 86, 0
1, 47423, Note_on_c, 0, 66, 0
1, 47424, Note_on_c, 0, 72, 86
1, 47424, Note_on_c, 1, 84, 86
1, 47447, Note_on_c, 0, 72, 0
1, 47448, Note_on_c, 0, 66, 86
1, 47471, Note_on_c, 0, 66, 0
1, 47472, Note_on_c, 0, 60, 86
1, 47495, Note_on_c, 0, 60, 0
1, 47496, Note_on_c, 0, 66, 86
1, 47513, Note_on_c, 1, 84, 0
1, 47519, Note_on_c, 0, 66, 0
1, 47520, Note_on_c, 0, 67, 86
1, 47520, Note_on_c, 1, 83, 86
1, 47543, Note_on_c, 0, 67, 0
1, 47544, Note_on_c, 0, 71, 86
1, 47567, Note_on_c, 0, 71, 0
1, 47568, Note_on_c, 0, 67, 86
1, 47591, Note_on_c, 0, 67, 0
1, 47592, Note_on_c, 0, 62, 86
1, 47609, Note_on_c, 1, 83, 0
1, 47615, Note_on_c, 0, 62, 0
1, 47616, Note_on_c, 0, 59, 86
1, 47639, Note_on_c, 0, 59, 0
1, 47640, Note_on_c, 1, 55, 86
1, 47663, Note_on_c, 1, 55, 0
1, 47664, Note_on_c, 1, 50, 86
1, 47687, Note_on_c, 1, 50, 0
1, 47688, Note_on_c, 1, 47, 86
1, 47711, Note_on_c, 1, 47, 0
1, 47712, Note_on_c, 1, 43, 86
1, 47801, Note_on_c, 1, 43, 0
1, 48000, Note_on_c, 0, 60, 87
1, 48096, Note_on_c, 0, 60, 0
1, 48096, Note_on_c, 0, 65, 71
1, 48096, Note_on_c, 1, 51, 71
1, 48096, Note_on_c, 1, 48, 71
1, 48119, Note_on_c, 0, 65, 0
1, 48120, Note_on_c, 0, 63, 71
1, 48135, Note_on_c, 1, 51, 0
1, 48135, Note_on_c, 1, 48, 0
1, 48143, Note_on_c, 0, 63, 0
1, 48144, Note_on_c, 0, 62, 71
1, 48167, Note_on_c, 0, 62, 0
1, 48168, Note_on_c, 0, 60, 71
1, 48191, Note_on_c, 0, 60, 0
1, 48192, Note_on_c, 0, 59, 71
1, 48192, Note_on_c, 1, 53, 71
1, 48192, Note_on_c, 1, 50, 71
1, 48231, Note_on_c, 0, 59, 0
1, 48231, Note_on_c, 1, 53, 0
1, 48231, Note_on_c, 1, 50, 0
1, 48288, Note_on_c, 0, 62, 71
1, 48377, Note_on_c, 0, 62, 0
1, 48384, Note_on_c, 0, 67, 71
1, 48384, Note_on_c, 1, 53, 71
1, 48384, Note_on_c, 1, 50, 71
1, 48407, Note_on_c, 0, 67, 0
1, 48408, Note_on_c, 0, 65, 71
1, 48423, Note_on_c, 1, 53, 0
1, 48423, Note_on_c, 1, 50, 0
1, 48431, Note_on_c, 0, 65, 0
1, 48432, Note_on_c, 0, 63, 71
1, 48455, Note_on_c, 0, 63, 0
1, 48456, Note_on_c, 0, 62, 71
1, 48479, Note_on_c, 0, 62, 0
1, 48480, Note_on_c, 0, 60, 71
1, 48480, Note_on_c, 1, 55, 71
1, 48480, Note_on_c, 1, 51, 71
1, 48519, Note_on_c, 0, 60, 0
1, 48519, Note_on_c, 1, 55, 0
1, 48519, Note_on_c, 1, 51, 0
1, 48576, Note_on_c, 0, 72, 71
1, 48599, Note_on_c, 0, 72, 0
1, 48600, Note_on_c, 0, 73, 71
1, 48623, Note_on_c, 0, 73, 0
1, 48624, Note_on_c, 0, 74, 71
1, 48647, Note_on_c, 0, 74, 0
1, 48648, Note_on_c, 0, 75, 71
1, 48671, Note_on_c, 0, 75, 0
1, 48672, Note_on_c, 0, 72, 71
1, 48768, Note_on_c, 0, 72, 0
1, 48768, Note_on_c, 0, 71, 71
1, 48768, Note_on_c, 1, 65, 71
1, 48768, Note_on_c, 1, 62, 71
1, 48857, Note_on_c, 0, 71, 0
1, 48857, Note_on_c, 1, 65, 0
1, 48857, Note_on_c, 1, 62, 0
1, 48864, Note_on_c, 0, 74, 71
1, 48887, Note_on_c, 0, 74, 0
1, 48888, Note_on_c, 0, 75, 71
1, 48911, Note_on_c, 0, 75, 0
1, 48912, Note_on_c, 0, 76, 71
1, 48935, Note_on_c, 0, 76, 0
1, 48936, Note_on_c, 0, 77, 71
1, 48959, Note_on_c, 0, 77, 0
1, 48960, Note_on_c, 0, 74, 71
1, 49056, Note_on_c, 0, 74, 0
1, 49056, Note_on_c, 0, 72, 71
1, 49056, Note_on_c, 1, 67, 71
1, 49056, Note_on_c, 1, 63, 71
1, 49145, Note_on_c, 0, 72, 0
1, 49145, Note_on_c, 1, 67, 0
1, 49145, Note_on_c, 1, 63, 0
1, 49152, Note_on_c, 0, 79, 71
1, 49152, Note_on_c, 1, 67, 71
1, 49152, Note_on_c, 1, 63, 71
1, 49197, Note_on_c, 0, 79, 0
1, 49200, Note_on_c, 0, 84, 71
1, 49241, Note_on_c, 1, 67, 0
1, 49241, Note_on_c, 1, 63, 0
1, 49248, Note_on_c, 1, 65, 71
1, 49248, Note_on_c, 1, 62, 71
1, 49293, Note_on_c, 0, 84, 0
1, 49296, Note_on_c, 0, 82, 71
1, 49337, Note_on_c, 1, 65, 0
1, 49337, Note_on_c, 1, 62, 0
1, 49344, Note_on_c, 1, 63, 71
1, 49344, Note_on_c, 1, 60, 71
1, 49385, Note_on_c, 0, 82, 0
1, 49392, Note_on_c, 0, 80, 71
1, 49433, Note_on_c, 1, 63, 0
1, 49433, Note_on_c, 1, 60, 0
1, 49440, Note_on_c, 1, 62, 71
1, 49440, Note_on_c, 1, 58, 71
1, 49481, Note_on_c, 0, 80, 0
1, 49488, Note_on_c, 0, 79, 71
1, 49529, Note_on_c, 1, 62, 0
1, 49529, Note_on_c, 1, 58, 0
1, 49536, Note_on_c, 1, 60, 71
1, 49536, Note_on_c, 1, 56, 71
1, 49581, Note_on_c, 0, 79, 0
1, 49584, Note_on_c, 0, 77, 71
1, 49625, Note_on_c, 1, 60, 0
1, 49625, Note_on_c, 1, 56, 0
1, 49632, Note_on_c, 1, 58, 71
1, 49632, Note_on_c, 1, 55, 71
1, 49673, Note_on_c, 0, 77, 0
1, 49680, Note_on_c, 0, 75, 72
1, 49721, Note_on_c, 1, 58, 0
1, 49721, Note_on_c, 1, 55, 0
1, 49728, Note_on_c, 1, 56, 72
1, 49728, Note_on_c, 1, 53, 72
1, 49769, Note_on_c, 0, 75, 0
1, 49776, Note_on_c, 0, 74, 73
1, 49817, Note_on_c, 1, 56, 0
1, 49817, Note_on_c, 1, 53, 0
1, 49824, Note_on_c, 1, 55, 73
1, 49824, Note_on_c, 1, 51, 73
1, 49869, Note_on_c, 0, 74, 0
1, 49872, Note_on_c, 0, 72, 74
1, 49913, Note_on_c, 1, 55, 0
1, 49913, Note_on_c, 1, 51, 0
1, 49920, Note_on_c, 1, 53, 74
1, 49920, Note_on_c, 1, 50, 74
1, 49961, Note_on_c, 0, 72, 0
1, 49968, Note_on_c, 0, 71, 75
1, 50009, Note_on_c, 1, 53, 0
1, 50009, Note_on_c, 1, 50, 0
1, 50016, Note_on_c, 1, 51, 75
1, 50016, Note_on_c, 1, 48, 75
1, 50057, Note_on_c, 0, 71, 0
1, 50064, Note_on_c, 0, 68, 76
1, 50105, Note_on_c, 1, 51, 0
1, 50105, Note_on_c, 1, 48, 0
1, 50112, Note_on_c, 1, 50, 76
1, 50112, Note_on_c, 1, 47, 76
1, 50157, Note_on_c, 0, 68, 0
1, 50160, Note_on_c, 0, 67, 77
1, 50201, Note_on_c, 1, 50, 0
1, 50201, Note_on_c, 1, 47, 0
1, 50208, Note_on_c, 1, 62, 77
1, 50208, Note_on_c, 1, 59, 77
1, 50249, Note_on_c, 0, 67, 0
1, 50256, Note_on_c, 0, 65, 78
1, 50297, Note_on_c, 1, 62, 0
1, 50297, Note_on_c, 1, 59, 0
1, 50301, Note_on_c, 0, 65, 0
1, 50304, Note_on_c, 0, 63, 78
1, 50349, Note_on_c, 0, 63, 0
1, 50352, Note_on_c, 0, 62, 78
1, 50397, Note_on_c, 0, 62, 0
1, 50400, Note_on_c, 0, 60, 78
1, 50400, Note_on_c, 1, 56, 78
1, 50423, Note_on_c, 0, 60, 0
1, 50424, Note_on_c, 0, 59, 78
1, 50439, Note_on_c, 1, 56, 0
1, 50447, Note_on_c, 0, 59, 0
1, 50448, Note_on_c, 0, 60, 78
1, 50471, Note_on_c, 0, 60, 0
1, 50472, Note_on_c, 0, 65, 78
1, 50495, Note_on_c, 0, 65, 0
1, 50496, Note_on_c, 0, 60, 78
1, 50496, Note_on_c, 1, 55, 78
1, 50519, Note_on_c, 0, 60, 0
1, 50520, Note_on_c, 0, 59, 78
1, 50535, Note_on_c, 1, 55, 0
1, 50543, Note_on_c, 0, 59, 0
1, 50544, Note_on_c, 0, 60, 78
1, 50567, Note_on_c, 0, 60, 0
1, 50568, Note_on_c, 0, 63, 78
1, 50591, Note_on_c, 0, 63, 0
1, 50592, Note_on_c, 0, 60, 78
1, 50592, Note_on_c, 1, 53, 78
1, 50615, Note_on_c, 0, 60, 0
1, 50616, Note_on_c, 0, 59, 78
1, 50631, Note_on_c, 1, 53, 0
1, 50639, Note_on_c, 0, 59, 0
1, 50640, Note_on_c, 0, 60, 78
1, 50663, Note_on_c, 0, 60, 0
1, 50664, Note_on_c, 0, 68, 78
1, 50687, Note_on_c, 0, 68, 0
1, 50688, Note_on_c, 0, 60, 78
1, 50688, Note_on_c, 1, 51, 78
1, 50711, Note_on_c, 0, 60, 0
1, 50712, Note_on_c, 0, 59, 78
1, 50727, Note_on_c, 1, 51, 0
1, 50735, Note_on_c, 0, 59, 0
1, 50736, Note_on_c, 0, 60, 78
1, 50759, Note_on_c, 0, 60, 0
1, 50760, Note_on_c, 0, 67, 78
1, 50783, Note_on_c, 0, 67, 0
1, 50784, Note_on_c, 0, 60, 78
1, 50784, Note_on_c, 1, 50, 78
1, 50807, Note_on_c, 0, 60, 0
1, 50808, Note_on_c, 0, 59, 78
1, 50823, Note_on_c, 1, 50, 0
1, 50831, Note_on_c, 0, 59, 0
1, 50832, Note_on_c, 0, 60, 78
1, 50855, Note_on_c, 0, 60, 0
1, 50856, Note_on_c, 0, 65, 78
1, 50879, Note_on_c, 0, 65, 0
1, 50880, Note_on_c, 0, 60, 78
1, 50880, Note_on_c, 1, 48, 78
1, 50903, Note_on_c, 0, 60, 0
1, 50904, Note_on_c, 0, 59, 78
1, 50919, Note_on_c, 1, 48, 0
1, 50927, Note_on_c, 0, 59, 0
1, 50928, Note_on_c, 0, 60, 78
1, 50951, Note_on_c, 0, 60, 0
1, 50952, Note_on_c, 0, 63, 78
1, 50975, Note_on_c, 0, 63, 0
1, 50976, Note_on_c, 0, 60, 78
1, 50976, Note_on_c, 1, 68, 78
1, 50999, Note_on_c, 0, 60, 0
1, 51000, Note_on_c, 0, 59, 78
1, 51023, Note_on_c, 0, 59, 0
1, 51024, Note_on_c, 0, 60, 78
1, 51047, Note_on_c, 0, 60, 0
1, 51048, Note_on_c, 0, 65, 78
1, 51065, Note_on_c, 1, 68, 0
1, 51071, Note_on_c, 0, 65, 0
1, 51072, Note_on_c, 0, 60, 78
1, 51072, Note_on_c, 1, 67, 78
1, 51095, Note_on_c, 0, 60, 0
1, 51096, Note_on_c, 0, 59, 78
1, 51119, Note_on_c, 0, 59, 0
1, 51120, Note_on_c, 0, 60, 78
1, 51143, Note_on_c, 0, 60, 0
1, 51144, Note_on_c, 0, 63, 78
1, 51161, Note_on_c, 1, 67, 0
1, 51167, Note_on_c, 0, 63, 0
1, 51168, Note_on_c, 0, 60, 78
1, 51168, Note_on_c, 1, 72, 78
1, 51191, Note_on_c, 0, 60, 0
1, 51192, Note_on_c, 0, 59, 78
1, 51215, Note_on_c, 0, 59, 0
1, 51216, Note_on_c, 0, 60, 78
1, 51239, Note_on_c, 0, 60, 0
1, 51240, Note_on_c, 0, 68, 78
1, 51257, Note_on_c, 1, 72, 0
1, 51263, Note_on_c, 0, 68, 0
1, 51264, Note_on_c, 0, 60, 78
1, 51264, Note_on_c, 1, 70, 78
1, 51287, Note_on_c, 0, 60, 0
1, 51288, Note_on_c, 0, 59, 78
1, 51311, Note_on_c, 0, 59, 0
1, 51312, Note_on_c, 0, 60, 79
1, 51335, Note_on_c, 0, 60, 0
1, 51336, Note_on_c, 0, 67, 80
1, 51353, Note_on_c, 1, 70, 0
1, 51359, Note_on_c, 0, 67, 0
1, 51360, Note_on_c, 0, 60, 80
1, 51360, Note_on_c, 1, 68, 80
1, 51383, Note_on_c, 0, 60, 0
1, 51384, Note_on_c, 0, 59, 81
1, 51407, Note_on_c, 0, 59, 0
1, 51408, Note_on_c, 0, 60, 82
1, 51431, Note_on_c, 0, 60, 0
1, 51432, Note_on_c, 0, 65, 82
1, 51449, Note_on_c, 1, 68, 0
1, 51455, Note_on_c, 0, 65, 0
1, 51456, Note_on_c, 0, 60, 83
1, 51456, Note_on_c, 1, 67, 83
1, 51479, Note_on_c, 0, 60, 0
1, 51480, Note_on_c, 0, 59, 84
1, 51503, Note_on_c, 0, 59, 0
1, 51504, Note_on_c, 0, 60, 84
1, 51527, Note_on_c, 0, 60, 0
1, 51528, Note_on_c, 0, 63, 85
1, 51545, Note_on_c, 1, 67, 0
1, 51551, Note_on_c, 0, 63, 0
1, 51552, Note_on_c, 0, 60, 86
1, 51552, Note_on_c, 1, 42, 86
1, 51575, Note_on_c, 0, 60, 0
1, 51576, Note_on_c, 0, 59, 86
1, 51591, Note_on_c, 1, 42, 0
1, 51599, Note_on_c, 0, 59, 0
1, 51600, Note_on_c, 0, 60, 86
1, 51623, Note_on_c, 0, 60, 0
1, 51624, Note_on_c, 0, 63, 86
1, 51647, Note_on_c, 0, 63, 0
1, 51648, Note_on_c, 0, 60, 86
1, 51648, Note_on_c, 1, 54, 86
1, 51671, Note_on_c, 0, 60, 0
1, 51672, Note_on_c, 0, 59, 86
1, 51687, Note_on_c, 1, 54, 0
1, 51695, Note_on_c, 0, 59, 0
1, 51696, Note_on_c, 0, 60, 86
1, 51719, Note_on_c, 0, 60, 0
1, 51720, Note_on_c, 0, 63, 86
1, 51743, Note_on_c, 0, 63, 0
1, 51744, Note_on_c, 0, 60, 86
1, 51767, Note_on_c, 0, 60, 0
1, 51768, Note_on_c, 0, 59, 86
1, 51791, Note_on_c, 0, 59, 0
1, 51792, Note_on_c, 0, 60, 86
1, 51815, Note_on_c, 0, 60, 0
1, 51816, Note_on_c, 0, 63, 86
1, 51839, Note_on_c, 0, 63, 0
1, 51840, Note_on_c, 0, 59, 86
1, 51840, Note_on_c, 1, 41, 86
1, 51863, Note_on_c, 0, 59, 0
1, 51864, Note_on_c, 0, 62, 87
1, 51879, Note_on_c, 1, 41, 0
1, 51887, Note_on_c, 0, 62, 0
1, 51888, Note_on_c, 0, 65, 89
1, 51911, Note_on_c, 0, 65, 0
1, 51912, Note_on_c, 0, 68, 91
1, 51935, Note_on_c, 0, 68, 0
1, 51936, Note_on_c, 0, 67, 93
1, 51936, Note_on_c, 1, 53, 86
1, 51959, Note_on_c, 0, 67, 0
1, 51960, Note_on_c, 0, 65, 92
1, 51975, Note_on_c, 1, 53, 0
1, 51983, Note_on_c, 0, 65, 0
1, 51984, Note_on_c, 0, 63, 91
1, 52007, Note_on_c, 0, 63, 0
1, 52008, Note_on_c, 0, 62, 90
1, 52031, Note_on_c, 0, 62, 0
1, 52032, Note_on_c, 0, 60, 89
1, 52055, Note_on_c, 0, 60, 0
1, 52056, Note_on_c, 0, 59, 88
1, 52079, Note_on_c, 0, 59, 0
1, 52080, Note_on_c, 0, 57, 87
1, 52103, Note_on_c, 0, 57, 0
1, 52104, Note_on_c, 0, 55, 86
1, 52127, Note_on_c, 0, 55, 0
1, 52128, Note_on_c, 1, 51, 86
1, 52176, Note_on_c, 0, 60, 93
1, 52217, Note_on_c, 1, 51, 0
1, 52221, Note_on_c, 0, 60, 0
1, 52224, Note_on_c, 0, 63, 93
1, 52269, Note_on_c, 0, 63, 0
1, 52272, Note_on_c, 0, 67, 93
1, 52317, Note_on_c, 0, 67, 0
1, 52320, Note_on_c, 0, 72, 93
1, 52365, Note_on_c, 0, 72, 0
1, 52368, Note_on_c, 0, 79, 83
1, 52368, Note_on_c, 0, 75, 93
1, 52368, Note_on_c, 1, 48, 86
1, 52413, Note_on_c, 1, 48, 0
1, 52416, Note_on_c, 1, 53, 86
1, 52461, Note_on_c, 0, 79, 0
1, 52461, Note_on_c, 0, 75, 0
1, 52464, Note_on_c, 0, 77, 84
1, 52464, Note_on_c, 0, 74, 91
1, 52505, Note_on_c, 1, 53, 0
1, 52512, Note_on_c, 1, 55, 83
1, 52553, Note_on_c, 0, 77, 0
1, 52553, Note_on_c, 0, 74, 0
1, 52560, Note_on_c, 0, 75, 82
1, 52560, Note_on_c, 0, 72, 89
1, 52601, Note_on_c, 1, 55, 0
1, 52608, Note_on_c, 1, 43, 80
1, 52649, Note_on_c, 0, 75, 0
1, 52649, Note_on_c, 0, 72, 0
1, 52656, Note_on_c, 0, 74, 79
1, 52656, Note_on_c, 0, 71, 87
1, 52697, Note_on_c, 1, 43, 0
1, 52701, Note_on_c, 0, 74, 0
1, 52701, Note_on_c, 0, 71, 0
1, 52704, Note_on_c, 0, 72, 78
1, 52704, Note_on_c, 1, 44, 78
1, 52727, Note_on_c, 0, 72, 0
1, 52728, Note_on_c, 0, 65, 78
1, 52749, Note_on_c, 1, 44, 0
1, 52751, Note_on_c, 0, 65, 0
1, 52752, Note_on_c, 0, 64, 78
1, 52752, Note_on_c, 1, 56, 78
1, 52775, Note_on_c, 0, 64, 0
1, 52776, Note_on_c, 0, 65, 78
1, 52797, Note_on_c, 1, 56, 0
1, 52799, Note_on_c, 0, 65, 0
1, 52800, Note_on_c, 0, 70, 78
1, 52800, Note_on_c, 1, 43, 78
1, 52823, Note_on_c, 0, 70, 0
1, 52824, Note_on_c, 0, 63, 78
1, 52845, Note_on_c, 1, 43, 0
1, 52847, Note_on_c, 0, 63, 0
1, 52848, Note_on_c, 0, 62, 78
1, 52848, Note_on_c, 1, 55, 78
1, 52871, Note_on_c, 0, 62, 0
1, 52872, Note_on_c, 0, 63, 78
1, 52893, Note_on_c, 1, 55, 0
1, 52895, Note_on_c, 0, 63, 0
1, 52896, Note_on_c, 0, 68, 78
1, 52896, Note_on_c, 1, 41, 78
1, 52919, Note_on_c, 0, 68, 0
1, 52920, Note_on_c, 0, 62, 78
1, 52941, Note_on_c, 1, 41, 0
1, 52943, Note_on_c, 0, 62, 0
1, 52944, Note_on_c, 0, 61, 78
1, 52944, Note_on_c, 1, 53, 78
1, 52967, Note_on_c, 0, 61, 0
1, 52968, Note_on_c, 0, 62, 78
1, 52989, Note_on_c, 1, 53, 0
1, 52991, Note_on_c, 0, 62, 0
1, 52992, Note_on_c, 0, 67, 78
1, 52992, Note_on_c, 1, 39, 78
1, 53015, Note_on_c, 0, 67, 0
1, 53016, Note_on_c, 0, 60, 78
1, 53037, Note_on_c, 1, 39, 0
1, 53039, Note_on_c, 0, 60, 0
1, 53040, Note_on_c, 0, 59, 78
1, 53040, Note_on_c, 1, 51, 78
1, 53063, Note_on_c, 0, 59, 0
1, 53064, Note_on_c, 0, 60, 78
1, 53085, Note_on_c, 1, 51, 0
1, 53087, Note_on_c, 0, 60, 0
1, 53088, Note_on_c, 0, 65, 78
1, 53088, Note_on_c, 1, 38, 78
1, 53111, Note_on_c, 0, 65, 0
1, 53112, Note_on_c, 0, 59, 78
1, 53133, Note_on_c, 1, 38, 0
1, 53135, Note_on_c, 0, 59, 0
1, 53136, Note_on_c, 0, 57, 78
1, 53136, Note_on_c, 1, 50, 78
1, 53159, Note_on_c, 0, 57, 0
1, 53160, Note_on_c, 0, 59, 78
1, 53181, Note_on_c, 1, 50, 0
1, 53183, Note_on_c, 0, 59, 0
1, 53184, Note_on_c, 0, 63, 78
1, 53184, Note_on_c, 1, 36, 78
1, 53207, Note_on_c, 0, 63, 0
1, 53208, Note_on_c, 0, 60, 78
1, 53229, Note_on_c, 1, 36, 0
1, 53231, Note_on_c, 0, 60, 0
1, 53232, Note_on_c, 0, 59, 78
1, 53232, Note_on_c, 1, 48, 78
1, 53255, Note_on_c, 0, 59, 0
1, 53256, Note_on_c, 0, 60, 78
1, 53277, Note_on_c, 1, 48, 0
1, 53279, Note_on_c, 0, 60, 0
1, 53280, Note_on_c, 1, 41, 78
1, 53328, Note_on_c, 0, 61, 78
1, 53348, Note_on_c, 0, 61, 0
1, 53369, Note_on_c, 1, 41, 0
1, 53376, Note_on_c, 0, 56, 79
1, 53396, Note_on_c, 0, 56, 0
1, 53424, Note_on_c, 0, 65, 80
1, 53444, Note_on_c, 0, 65, 0
1, 53472, Note_on_c, 0, 61, 81
1, 53492, Note_on_c, 0, 61, 0
1, 53520, Note_on_c, 0, 68, 82
1, 53540, Note_on_c, 0, 68, 0
1, 53568, Note_on_c, 0, 65, 83
1, 53588, Note_on_c, 0, 65, 0
1, 53616, Note_on_c, 0, 73, 84
1, 53636, Note_on_c, 0, 73, 0
1, 53664, Note_on_c, 0, 68, 85
1, 53684, Note_on_c, 0, 68, 0
1, 53712, Note_on_c, 0, 77, 86
1, 53732, Note_on_c, 0, 77, 0
1, 53760, Note_on_c, 0, 75, 85
1, 53780, Note_on_c, 0, 75, 0
1, 53808, Note_on_c, 0, 73, 84
1, 53828, Note_on_c, 0, 73, 0
1, 53856, Note_on_c, 0, 72, 83
1, 53876, Note_on_c, 0, 72, 0
1, 53904, Note_on_c, 0, 73, 82
1, 53924, Note_on_c, 0, 73, 0
1, 53952, Note_on_c, 0, 68, 81
1, 53972, Note_on_c, 0, 68, 0
1, 54000, Note_on_c, 0, 66, 80
1, 54020, Note_on_c, 0, 66, 0
1, 54048, Note_on_c, 0, 65, 79
1, 54068, Note_on_c, 0, 65, 0
1, 54096, Note_on_c, 0, 63, 78
1, 54116, Note_on_c, 0, 63, 0
1, 54144, Note_on_c, 0, 61, 78
1, 54189, Note_on_c, 0, 61, 0
1, 54192, Note_on_c, 0, 60, 80
1, 54237, Note_on_c, 0, 60, 0
1, 54240, Note_on_c, 0, 61, 82
1, 54285, Note_on_c, 0, 61, 0
1, 54288, Note_on_c, 0, 65, 84
1, 54333, Note_on_c, 0, 65, 0
1, 54336, Note_on_c, 0, 63, 86
1, 54381, Note_on_c, 0, 63, 0
1, 54384, Note_on_c, 0, 61, 85
1, 54429, Note_on_c, 0, 61, 0
1, 54432, Note_on_c, 0, 60, 84
1, 54480, Note_on_c, 1, 56, 78
1, 54480, Note_on_c, 1, 53, 78
1, 54527, Note_on_c, 1, 56, 0
1, 54527, Note_on_c, 1, 53, 0
1, 54528, Note_on_c, 1, 56, 78
1, 54528, Note_on_c, 1, 53, 78
1, 54575, Note_on_c, 1, 56, 0
1, 54575, Note_on_c, 1, 53, 0
1, 54576, Note_on_c, 1, 56, 78
1, 54576, Note_on_c, 1, 53, 78
1, 54623, Note_on_c, 1, 56, 0
1, 54623, Note_on_c, 1, 53, 0
1, 54624, Note_on_c, 0, 60, 0
1, 54624, Note_on_c, 0, 59, 80
1, 54624, Note_on_c, 1, 56, 78
1, 54624, Note_on_c, 1, 53, 78
1, 54671, Note_on_c, 1, 56, 0
1, 54671, Note_on_c, 1, 53, 0
1, 54672, Note_on_c, 1, 56, 78
1, 54672, Note_on_c, 1, 53, 78
1, 54713, Note_on_c, 0, 59, 0
1, 54719, Note_on_c, 1, 56, 0
1, 54719, Note_on_c, 1, 53, 0
1, 54720, Note_on_c, 0, 63, 78
1, 54720, Note_on_c, 0, 60, 86
1, 54768, Note_on_c, 1, 42, 78
1, 54813, Note_on_c, 1, 42, 0
1, 54816, Note_on_c, 1, 43, 78
1, 54861, Note_on_c, 1, 43, 0
1, 54864, Note_on_c, 1, 42, 78
1, 54909, Note_on_c, 1, 42, 0
1, 54912, Note_on_c, 1, 43, 78
1, 54957, Note_on_c, 1, 43, 0
1, 54960, Note_on_c, 1, 42, 78
1, 55005, Note_on_c, 1, 42, 0
1, 55008, Note_on_c, 1, 43, 78
1, 55053, Note_on_c, 0, 63, 0
1, 55053, Note_on_c, 0, 60, 0
1, 55056, Note_on_c, 0, 67, 78
1, 55056, Note_on_c, 0, 63, 86
1, 55101, Note_on_c, 0, 67, 0
1, 55101, Note_on_c, 0, 63, 0
1, 55104, Note_on_c, 0, 67, 78
1, 55104, Note_on_c, 0, 63, 86
1, 55149, Note_on_c, 0, 67, 0
1, 55149, Note_on_c, 0, 63, 0
1, 55152, Note_on_c, 0, 65, 78
1, 55152, Note_on_c, 0, 62, 86
1, 55197, Note_on_c, 0, 65, 0
1, 55197, Note_on_c, 0, 62, 0
1, 55200, Note_on_c, 0, 63, 78
1, 55200, Note_on_c, 0, 60, 86
1, 55245, Note_on_c, 0, 63, 0
1, 55245, Note_on_c, 0, 60, 0
1, 55248, Note_on_c, 0, 62, 78
1, 55248, Note_on_c, 0, 59, 86
1, 55273, Note_on_c, 1, 43, 0
1, 55293, Note_on_c, 0, 62, 0
1, 55293, Note_on_c, 0, 59, 0
1, 55296, Note_on_c, 0, 60, 78
1, 55296, Note_on_c, 1, 48, 71
1, 55344, Note_on_c, 0, 55, 86
1, 55344, Note_on_c, 1, 51, 78
1, 55389, Note_on_c, 0, 55, 0
1, 55389, Note_on_c, 1, 51, 0
1, 55392, Note_on_c, 0, 56, 86
1, 55392, Note_on_c, 1, 53, 78
1, 55437, Note_on_c, 0, 56, 0
1, 55437, Note_on_c, 1, 53, 0
1, 55440, Note_on_c, 0, 55, 87
1, 55440, Note_on_c, 1, 51, 79
1, 55485, Note_on_c, 0, 55, 0
1, 55485, Note_on_c, 1, 51, 0
1, 55488, Note_on_c, 0, 56, 87
1, 55488, Note_on_c, 1, 53, 80
1, 55533, Note_on_c, 0, 56, 0
1, 55533, Note_on_c, 1, 53, 0
1, 55536, Note_on_c, 0, 55, 88
1, 55536, Note_on_c, 1, 51, 80
1, 55581, Note_on_c, 0, 55, 0
1, 55581, Note_on_c, 1, 51, 0
1, 55584, Note_on_c, 0, 56, 89
1, 55584, Note_on_c, 1, 53, 81
1, 55629, Note_on_c, 0, 56, 0
1, 55629, Note_on_c, 1, 53, 0
1, 55632, Note_on_c, 0, 59, 89
1, 55632, Note_on_c, 1, 55, 82
1, 55677, Note_on_c, 0, 59, 0
1, 55677, Note_on_c, 1, 55, 0
1, 55680, Note_on_c, 0, 60, 90
1, 55680, Note_on_c, 1, 56, 83
1, 55725, Note_on_c, 0, 60, 0
1, 55725, Note_on_c, 1, 56, 0
1, 55728, Note_on_c, 0, 59, 91
1, 55728, Note_on_c, 1, 55, 83
1, 55773, Note_on_c, 0, 59, 0
1, 55773, Note_on_c, 1, 55, 0
1, 55776, Note_on_c, 0, 60, 91
1, 55776, Note_on_c, 1, 56, 84
1, 55821, Note_on_c, 0, 60, 0
1, 55821, Note_on_c, 1, 56, 0
1, 55824, Note_on_c, 0, 59, 92
1, 55824, Note_on_c, 1, 55, 85
1, 55869, Note_on_c, 0, 59, 0
1, 55869, Note_on_c, 1, 55, 0
1, 55872, Note_on_c, 0, 60, 93
1, 55872, Note_on_c, 1, 56, 86
1, 55917, Note_on_c, 0, 60, 0
1, 55917, Note_on_c, 1, 56, 0
1, 55920, Note_on_c, 0, 57, 92
1, 55920, Note_on_c, 1, 54, 85
1, 55965, Note_on_c, 0, 57, 0
1, 55965, Note_on_c, 1, 54, 0
1, 55968, Note_on_c, 0, 58, 91
1, 55968, Note_on_c, 1, 55, 84
1, 56013, Note_on_c, 0, 58, 0
1, 56013, Note_on_c, 1, 55, 0
1, 56016, Note_on_c, 0, 57, 91
1, 56016, Note_on_c, 1, 54, 84
1, 56061, Note_on_c, 0, 57, 0
1, 56061, Note_on_c, 1, 54, 0
1, 56064, Note_on_c, 0, 58, 90
1, 56064, Note_on_c, 1, 55, 83
1, 56109, Note_on_c, 0, 58, 0
1, 56109, Note_on_c, 1, 55, 0
1, 56112, Note_on_c, 0, 57, 90
1, 56112, Note_on_c, 1, 54, 82
1, 56157, Note_on_c, 0, 57, 0
1, 56157, Note_on_c, 1, 54, 0
1, 56160, Note_on_c, 0, 58, 89
1, 56160, Note_on_c, 1, 55, 82
1, 56205, Note_on_c, 0, 58, 0
1, 56205, Note_on_c, 1, 55, 0
1, 56208, Note_on_c, 0, 55, 88
1, 56208, Note_on_c, 1, 52, 81
1, 56253, Note_on_c, 0, 55, 0
1, 56253, Note_on_c, 1, 52, 0
1, 56256, Note_on_c, 0, 56, 88
1, 56256, Note_on_c, 1, 53, 80
1, 56301, Note_on_c, 0, 56, 0
1, 56301, Note_on_c, 1, 53, 0
1, 56304, Note_on_c, 0, 55, 87
1, 56304, Note_on_c, 1, 52, 80
1, 56349, Note_on_c, 0, 55, 0
1, 56349, Note_on_c, 1, 52, 0
1, 56352, Note_on_c, 0, 56, 87
1, 56352, Note_on_c, 1, 53, 79
1, 56397, Note_on_c, 0, 56, 0
1, 56397, Note_on_c, 1, 53, 0
1, 56400, Note_on_c, 0, 55, 86
1, 56400, Note_on_c, 1, 52, 78
1, 56445, Note_on_c, 0, 55, 0
1, 56445, Note_on_c, 1, 52, 0
1, 56448, Note_on_c, 0, 56, 86
1, 56448, Note_on_c, 1, 53, 78
1, 56493, Note_on_c, 0, 60, 0
1, 56493, Note_on_c, 0, 56, 0
1, 56496, Note_on_c, 0, 65, 86
1, 56496, Note_on_c, 0, 56, 86
1, 56537, Note_on_c, 1, 53, 0
1, 56537, Note_on_c, 1, 48, 0
1, 56541, Note_on_c, 0, 65, 0
1, 56541, Note_on_c, 0, 56, 0
1, 56544, Note_on_c, 0, 63, 86
1, 56544, Note_on_c, 1, 55, 86
1, 56589, Note_on_c, 0, 63, 0
1, 56589, Note_on_c, 1, 55, 0
1, 56592, Note_on_c, 0, 62, 86
1, 56592, Note_on_c, 1, 53, 86
1, 56637, Note_on_c, 0, 62, 0
1, 56637, Note_on_c, 1, 53, 0
1, 56640, Note_on_c, 0, 60, 86
1, 56640, Note_on_c, 1, 51, 86
1, 56685, Note_on_c, 0, 60, 0
1, 56685, Note_on_c, 1, 51, 0
1, 56688, Note_on_c, 0, 59, 86
1, 56688, Note_on_c, 1, 50, 86
1, 56733, Note_on_c, 0, 59, 0
1, 56733, Note_on_c, 1, 50, 0
1, 56736, Note_on_c, 0, 59, 86
1, 56736, Note_on_c, 1, 53, 86
1, 56736, Note_on_c, 1, 50, 86
1, 56736, Note_on_c, 1, 48, 71
1, 56736, Note_on_c, 1, 36, 71
1, 57024, Note_on_c, 0, 59, 0
1, 57024, Note_on_c, 0, 60, 86
1, 57024, Note_on_c, 1, 53, 0
1, 57024, Note_on_c, 1, 50, 0
1, 57024, Note_on_c, 1, 55, 86
1, 57024, Note_on_c, 1, 51, 86
1, 57113, Note_on_c, 0, 60, 0
1, 57113, Note_on_c, 1, 55, 0
1, 57113, Note_on_c, 1, 51, 0
1, 57113, Note_on_c, 1, 48, 0
1, 57113, Note_on_c, 1, 36, 0
1, 57216, Note_on_c, 0, 75, 94
1, 57312, Note_on_c, 0, 75, 0
1, 57312, Note_on_c, 0, 80, 78
1, 57312, Note_on_c, 1, 67, 78
1, 57312, Note_on_c, 1, 63, 78
1, 57335, Note_on_c, 0, 80, 0
1, 57336, Note_on_c, 0, 79, 78
1, 57351, Note_on_c, 1, 67, 0
1, 57351, Note_on_c, 1, 63, 0
1, 57359, Note_on_c, 0, 79, 0
1, 57360, Note_on_c, 0, 77, 78
1, 57383, Note_on_c, 0, 77, 0
1, 57384, Note_on_c, 0, 75, 78
1, 57407, Note_on_c, 0, 75, 0
1, 57408, Note_on_c, 0, 74, 78
1, 57408, Note_on_c, 1, 68, 78
1, 57408, Note_on_c, 1, 65, 78
1, 57447, Note_on_c, 0, 74, 0
1, 57447, Note_on_c, 1, 68, 0
1, 57447, Note_on_c, 1, 65, 0
1, 57504, Note_on_c, 0, 77, 78
1, 57593, Note_on_c, 0, 77, 0
1, 57600, Note_on_c, 0, 82, 78
1, 57600, Note_on_c, 1, 68, 78
1, 57600, Note_on_c, 1, 65, 78
1, 57623, Note_on_c, 0, 82, 0
1, 57624, Note_on_c, 0, 80, 78
1, 57639, Note_on_c, 1, 68, 0
1, 57639, Note_on_c, 1, 65, 0
1, 57647, Note_on_c, 0, 80, 0
1, 57648, Note_on_c, 0, 79, 78
1, 57671, Note_on_c, 0, 79, 0
1, 57672, Note_on_c, 0, 77, 78
1, 57695, Note_on_c, 0, 77, 0
1, 57696, Note_on_c, 0, 75, 78
1, 57696, Note_on_c, 1, 70, 78
1, 57696, Note_on_c, 1, 67, 78
1, 57735, Note_on_c, 0, 75, 0
1, 57735, Note_on_c, 1, 70, 0
1, 57735, Note_on_c, 1, 67, 0
1, 57792, Note_on_c, 0, 82, 78
1, 57859, Note_on_c, 0, 82, 0
1, 57864, Note_on_c, 0, 87, 79
1, 57887, Note_on_c, 0, 87, 0
1, 57888, Note_on_c, 0, 87, 96
1, 57888, Note_on_c, 1, 70, 78
1, 57888, Note_on_c, 1, 67, 78
1, 57960, Note_on_c, 0, 87, 0
1, 57960, Note_on_c, 0, 86, 81
1, 57977, Note_on_c, 1, 70, 0
1, 57977, Note_on_c, 1, 67, 0
1, 57983, Note_on_c, 0, 86, 0
1, 57984, Note_on_c, 0, 86, 98
1, 57984, Note_on_c, 1, 68, 78
1, 57984, Note_on_c, 1, 65, 78
1, 58056, Note_on_c, 0, 86, 0
1, 58056, Note_on_c, 0, 84, 83
1, 58073, Note_on_c, 1, 68, 0
1, 58073, Note_on_c, 1, 65, 0
1, 58079, Note_on_c, 0, 84, 0
1, 58080, Note_on_c, 0, 84, 100
1, 58080, Note_on_c, 1, 67, 78
1, 58080, Note_on_c, 1, 63, 78
1, 58152, Note_on_c, 0, 84, 0
1, 58152, Note_on_c, 0, 82, 85
1, 58169, Note_on_c, 1, 67, 0
1, 58169, Note_on_c, 1, 63, 0
1, 58175, Note_on_c, 0, 82, 0
1, 58176, Note_on_c, 0, 82, 102
1, 58176, Note_on_c, 1, 65, 78
1, 58176, Note_on_c, 1, 62, 78
1, 58272, Note_on_c, 1, 65, 0
1, 58272, Note_on_c, 1, 58, 78
1, 58361, Note_on_c, 1, 62, 0
1, 58361, Note_on_c, 1, 58, 0
1, 58368, Note_on_c, 0, 82, 0
1, 58368, Note_on_c, 0, 82, 86
1, 58368, Note_on_c, 1, 70, 78
1, 58368, Note_on_c, 1, 62, 78
1, 58391, Note_on_c, 0, 82, 0
1, 58392, Note_on_c, 0, 80, 86
1, 58407, Note_on_c, 1, 70, 0
1, 58407, Note_on_c, 1, 62, 0
1, 58415, Note_on_c, 0, 80, 0
1, 58416, Note_on_c, 0, 79, 86
1, 58439, Note_on_c, 0, 79, 0
1, 58440, Note_on_c, 0, 77, 86
1, 58463, Note_on_c, 0, 77, 0
1, 58464, Note_on_c, 0, 80, 86
1, 58464, Note_on_c, 1, 70, 78
1, 58464, Note_on_c, 1, 63, 78
1, 58487, Note_on_c, 0, 80, 0
1, 58488, Note_on_c, 0, 79, 86
1, 58503, Note_on_c, 1, 70, 0
1, 58503, Note_on_c, 1, 63, 0
1, 58511, Note_on_c, 0, 79, 0
1, 58512, Note_on_c, 0, 77, 86
1, 58535, Note_on_c, 0, 77, 0
1, 58536, Note_on_c, 0, 75, 86
1, 58559, Note_on_c, 0, 75, 0
1, 58560, Note_on_c, 0, 74, 86
1, 58627, Note_on_c, 0, 74, 0
1, 58632, Note_on_c, 0, 75, 86
1, 58655, Note_on_c, 0, 75, 0
1, 58656, Note_on_c, 0, 77, 86
1, 58656, Note_on_c, 1, 69, 78
1, 58656, Note_on_c, 1, 60, 78
1, 58671, Note_on_c, 0, 77, 0
1, 58672, Note_on_c, 0, 75, 85
1, 58687, Note_on_c, 0, 75, 0
1, 58688, Note_on_c, 0, 77, 84
1, 58703, Note_on_c, 0, 77, 0
1, 58704, Note_on_c, 0, 75, 83
1, 58719, Note_on_c, 0, 75, 0
1, 58720, Note_on_c, 0, 74, 82
1, 58735, Note_on_c, 0, 74, 0
1, 58736, Note_on_c, 0, 75, 81
1, 58745, Note_on_c, 1, 69, 0
1, 58745, Note_on_c, 1, 60, 0
1, 58751, Note_on_c, 0, 75, 0
1, 58752, Note_on_c, 0, 75, 78
1, 58752, Note_on_c, 0, 75, 71
1, 58752, Note_on_c, 1, 72, 78
1, 58752, Note_on_c, 1, 58, 78
1, 58841, Note_on_c, 1, 72, 0
1, 58841, Note_on_c, 1, 58, 0
1, 58848, Note_on_c, 0, 75, 0
1, 58848, Note_on_c, 0, 77, 78
1, 58848, Note_on_c, 0, 75, 0
1, 58848, Note_on_c, 0, 74, 71
1, 58887, Note_on_c, 0, 77, 0
1, 58887, Note_on_c, 0, 74, 0
1, 59232, Note_on_c, 0, 65, 94
1, 59328, Note_on_c, 0, 65, 0
1, 59328, Note_on_c, 0, 70, 78
1, 59351, Note_on_c, 0, 70, 0
1, 59352, Note_on_c, 0, 68, 78
1, 59375, Note_on_c, 0, 68, 0
1, 59376, Note_on_c, 0, 67, 78
1, 59399, Note_on_c, 0, 67, 0
1, 59400, Note_on_c, 0, 65, 78
1, 59423, Note_on_c, 0, 65, 0
1, 59424, Note_on_c, 0, 64, 78
1, 59424, Note_on_c, 1, 58, 78
1, 59424, Note_on_c, 1, 55, 78
1, 59463, Note_on_c, 0, 64, 0
1, 59463, Note_on_c, 1, 58, 0
1, 59463, Note_on_c, 1, 55, 0
1, 59520, Note_on_c, 0, 64, 78
1, 59543, Note_on_c, 0, 64, 0
1, 59544, Note_on_c, 0, 65, 80
1, 59567, Note_on_c, 0, 65, 0
1, 59568, Note_on_c, 0, 67, 82
1, 59591, Note_on_c, 0, 67, 0
1, 59592, Note_on_c, 0, 68, 84
1, 59615, Note_on_c, 0, 68, 0
1, 59616, Note_on_c, 0, 72, 86
1, 59639, Note_on_c, 0, 72, 0
1, 59640, Note_on_c, 0, 70, 84
1, 59663, Note_on_c, 0, 70, 0
1, 59664, Note_on_c, 0, 68, 82
1, 59687, Note_on_c, 0, 68, 0
1, 59688, Note_on_c, 0, 67, 80
1, 59711, Note_on_c, 0, 67, 0
1, 59712, Note_on_c, 0, 65, 78
1, 59712, Note_on_c, 1, 60, 78
1, 59712, Note_on_c, 1, 56, 78
1, 59751, Note_on_c, 0, 65, 0
1, 59801, Note_on_c, 1, 60, 0
1, 59801, Note_on_c, 1, 56, 0
1, 59808, Note_on_c, 0, 77, 78
1, 59831, Note_on_c, 0, 77, 0
1, 59832, Note_on_c, 0, 76, 80
1, 59855, Note_on_c, 0, 76, 0
1, 59856, Note_on_c, 0, 79, 82
1, 59879, Note_on_c, 0, 79, 0
1, 59880, Note_on_c, 0, 77, 84
1, 59903, Note_on_c, 0, 77, 0
1, 59904, Note_on_c, 0, 80, 86
1, 59924, Note_on_c, 0, 80, 0
1, 59952, Note_on_c, 0, 79, 84
1, 59972, Note_on_c, 0, 79, 0
1, 60000, Note_on_c, 0, 77, 82
1, 60020, Note_on_c, 0, 77, 0
1, 60048, Note_on_c, 0, 75, 81
1, 60068, Note_on_c, 0, 75, 0
1, 60096, Note_on_c, 0, 74, 79
1, 60116, Note_on_c, 0, 74, 0
1, 60144, Note_on_c, 0, 72, 78
1, 60164, Note_on_c, 0, 72, 0
1, 60192, Note_on_c, 0, 72, 94
1, 60240, Note_on_c, 1, 68, 78
1, 60288, Note_on_c, 0, 72, 0
1, 60288, Note_on_c, 0, 71, 78
1, 60288, Note_on_c, 1, 68, 0
1, 60288, Note_on_c, 1, 67, 76
1, 60308, Note_on_c, 0, 71, 0
1, 60333, Note_on_c, 1, 67, 0
1, 60336, Note_on_c, 0, 80, 78
1, 60336, Note_on_c, 1, 65, 74
1, 60356, Note_on_c, 0, 80, 0
1, 60356, Note_on_c, 1, 65, 0
1, 60384, Note_on_c, 0, 79, 74
1, 60384, Note_on_c, 1, 63, 72
1, 60404, Note_on_c, 0, 79, 0
1, 60404, Note_on_c, 1, 63, 0
1, 60432, Note_on_c, 0, 77, 71
1, 60432, Note_on_c, 1, 62, 71
1, 60452, Note_on_c, 0, 77, 0
1, 60452, Note_on_c, 1, 62, 0
1, 60480, Note_on_c, 0, 77, 89
1, 60480, Note_on_c, 1, 60, 72
1, 60528, Note_on_c, 1, 60, 0
1, 60528, Note_on_c, 1, 62, 74
1, 60573, Note_on_c, 1, 62, 0
1, 60576, Note_on_c, 0, 77, 0
1, 60576, Note_on_c, 0, 75, 78
1, 60576, Note_on_c, 1, 63, 76
1, 60596, Note_on_c, 0, 75, 0
1, 60596, Note_on_c, 1, 63, 0
1, 60624, Note_on_c, 0, 74, 75
1, 60644, Note_on_c, 0, 74, 0
1, 60672, Note_on_c, 0, 72, 73
1, 60692, Note_on_c, 0, 72, 0
1, 60720, Note_on_c, 0, 70, 71
1, 60740, Note_on_c, 0, 70, 0
1, 60768, Note_on_c, 0, 70, 88
1, 60816, Note_on_c, 1, 67, 78
1, 60864, Note_on_c, 0, 70, 0
1, 60864, Note_on_c, 0, 69, 76
1, 60864, Note_on_c, 1, 67, 0
1, 60864, Note_on_c, 1, 65, 76
1, 60884, Note_on_c, 0, 69, 0
1, 60909, Note_on_c, 1, 65, 0
1, 60912, Note_on_c, 0, 79, 78
1, 60912, Note_on_c, 1, 63, 74
1, 60932, Note_on_c, 0, 79, 0
1, 60932, Note_on_c, 1, 63, 0
1, 60960, Note_on_c, 0, 77, 77
1, 60960, Note_on_c, 1, 62, 72
1, 60980, Note_on_c, 0, 77, 0
1, 60980, Note_on_c, 1, 62, 0
1, 61008, Note_on_c, 0, 75, 76
1, 61008, Note_on_c, 1, 60, 71
1, 61028, Note_on_c, 0, 75, 0
1, 61028, Note_on_c, 1, 60, 0
1, 61056, Note_on_c, 0, 75, 91
1, 61056, Note_on_c, 1, 58, 72
1, 61104, Note_on_c, 1, 58, 0
1, 61104, Note_on_c, 1, 60, 74
1, 61149, Note_on_c, 1, 60, 0
1, 61152, Note_on_c, 0, 75, 0
1, 61152, Note_on_c, 0, 74, 74
1, 61152, Note_on_c, 1, 62, 76
1, 61172, Note_on_c, 0, 74, 0
1, 61172, Note_on_c, 1, 62, 0
1, 61200, Note_on_c, 0, 72, 78
1, 61220, Note_on_c, 0, 72, 0
1, 61248, Note_on_c, 0, 70, 77
1, 61268, Note_on_c, 0, 70, 0
1, 61296, Note_on_c, 0, 69, 76
1, 61316, Note_on_c, 0, 69, 0
1, 61344, Note_on_c, 0, 69, 91
1, 61392, Note_on_c, 1, 65, 78
1, 61440, Note_on_c, 0, 69, 0
1, 61440, Note_on_c, 0, 67, 78
1, 61440, Note_on_c, 1, 65, 0
1, 61440, Note_on_c, 1, 63, 76
1, 61460, Note_on_c, 0, 67, 0
1, 61485, Note_on_c, 1, 63, 0
1, 61488, Note_on_c, 0, 77, 78
1, 61488, Note_on_c, 1, 62, 74
1, 61508, Note_on_c, 0, 77, 0
1, 61508, Note_on_c, 1, 62, 0
1, 61536, Note_on_c, 0, 75, 75
1, 61536, Note_on_c, 1, 60, 72
1, 61556, Note_on_c, 0, 75, 0
1, 61556, Note_on_c, 1, 60, 0
1, 61584, Note_on_c, 0, 74, 73
1, 61584, Note_on_c, 1, 58, 71
1, 61604, Note_on_c, 0, 74, 0
1, 61604, Note_on_c, 1, 58, 0
1, 61632, Note_on_c, 0, 74, 87
1, 61632, Note_on_c, 1, 57, 72
1, 61680, Note_on_c, 1, 57, 0
1, 61680, Note_on_c, 1, 58, 74
1, 61725, Note_on_c, 1, 58, 0
1, 61728, Note_on_c, 0, 74, 0
1, 61728, Note_on_c, 0, 72, 75
1, 61728, Note_on_c, 1, 60, 76
1, 61748, Note_on_c, 0, 72, 0
1, 61748, Note_on_c, 1, 60, 0
1, 61776, Note_on_c, 0, 70, 78
1, 61796, Note_on_c, 0, 70, 0
1, 61824, Note_on_c, 0, 69, 74
1, 61844, Note_on_c, 0, 69, 0
1, 61872, Note_on_c, 0, 67, 71
1, 61892, Note_on_c, 0, 67, 0
1, 61920, Note_on_c, 0, 67, 89
1, 61968, Note_on_c, 1, 63, 78
1, 62016, Note_on_c, 0, 67, 0
1, 62016, Note_on_c, 0, 66, 78
1, 62016, Note_on_c, 1, 63, 0
1, 62016, Note_on_c, 1, 62, 78
1, 62036, Note_on_c, 0, 66, 0
1, 62061, Note_on_c, 1, 62, 0
1, 62064, Note_on_c, 0, 75, 78
1, 62064, Note_on_c, 1, 60, 79
1, 62084, Note_on_c, 0, 75, 0
1, 62084, Note_on_c, 1, 60, 0
1, 62112, Note_on_c, 0, 74, 79
1, 62112, Note_on_c, 1, 58, 80
1, 62132, Note_on_c, 0, 74, 0
1, 62132, Note_on_c, 1, 58, 0
1, 62160, Note_on_c, 0, 72, 81
1, 62160, Note_on_c, 1, 57, 80
1, 62180, Note_on_c, 0, 72, 0
1, 62180, Note_on_c, 1, 57, 0
1, 62208, Note_on_c, 0, 72, 98
1, 62208, Note_on_c, 1, 55, 81
1, 62228, Note_on_c, 1, 55, 0
1, 62256, Note_on_c, 0, 72, 0
1, 62256, Note_on_c, 0, 70, 84
1, 62256, Note_on_c, 1, 53, 82
1, 62276, Note_on_c, 1, 53, 0
1, 62301, Note_on_c, 0, 70, 0
1, 62304, Note_on_c, 0, 79, 86
1, 62304, Note_on_c, 1, 51, 83
1, 62324, Note_on_c, 1, 51, 0
1, 62343, Note_on_c, 0, 79, 0
1, 62352, Note_on_c, 1, 50, 83
1, 62372, Note_on_c, 1, 50, 0
1, 62400, Note_on_c, 1, 49, 84
1, 62448, Note_on_c, 0, 55, 86
1, 62489, Note_on_c, 1, 49, 0
1, 62493, Note_on_c, 0, 55, 0
1, 62496, Note_on_c, 0, 54, 86
1, 62496, Note_on_c, 1, 50, 86
1, 62496, Note_on_c, 1, 38, 86
1, 62519, Note_on_c, 0, 54, 0
1, 62520, Note_on_c, 0, 57, 86
1, 62543, Note_on_c, 0, 57, 0
1, 62544, Note_on_c, 0, 55, 86
1, 62567, Note_on_c, 0, 55, 0
1, 62568, Note_on_c, 0, 58, 86
1, 62585, Note_on_c, 1, 50, 0
1, 62585, Note_on_c, 1, 38, 0
1, 62591, Note_on_c, 0, 58, 0
1, 62592, Note_on_c, 0, 57, 86
1, 62592, Note_on_c, 1, 54, 86
1, 62612, Note_on_c, 1, 54, 0
1, 62615, Note_on_c, 0, 57, 0
1, 62616, Note_on_c, 0, 60, 86
1, 62639, Note_on_c, 0, 60, 0
1, 62640, Note_on_c, 0, 58, 86
1, 62640, Note_on_c, 1, 55, 86
1, 62660, Note_on_c, 1, 55, 0
1, 62663, Note_on_c, 0, 58, 0
1, 62664, Note_on_c, 0, 62, 86
1, 62687, Note_on_c, 0, 62, 0
1, 62688, Note_on_c, 0, 60, 86
1, 62688, Note_on_c, 1, 57, 86
1, 62708, Note_on_c, 0, 60, 0
1, 62708, Note_on_c, 1, 57, 0
1, 62784, Note_on_c, 0, 55, 86
1, 62784, Note_on_c, 1, 50, 86
1, 62784, Note_on_c, 1, 38, 86
1, 62807, Note_on_c, 0, 55, 0
1, 62808, Note_on_c, 0, 58, 86
1, 62831, Note_on_c, 0, 58, 0
1, 62832, Note_on_c, 0, 57, 86
1, 62855, Note_on_c, 0, 57, 0
1, 62856, Note_on_c, 0, 60, 86
1, 62873, Note_on_c, 1, 50, 0
1, 62873, Note_on_c, 1, 38, 0
1, 62879, Note_on_c, 0, 60, 0
1, 62880, Note_on_c, 0, 58, 86
1, 62880, Note_on_c, 1, 55, 86
1, 62900, Note_on_c, 1, 55, 0
1, 62903, Note_on_c, 0, 58, 0
1, 62904, Note_on_c, 0, 62, 86
1, 62927, Note_on_c, 0, 62, 0
1, 62928, Note_on_c, 0, 60, 86
1, 62928, Note_on_c, 1, 57, 86
1, 62948, Note_on_c, 1, 57, 0
1, 62951, Note_on_c, 0, 60, 0
1, 62952, Note_on_c, 0, 63, 86
1, 62975, Note_on_c, 0, 63, 0
1, 62976, Note_on_c, 0, 62, 86
1, 62976, Note_on_c, 1, 58, 86
1, 62996, Note_on_c, 0, 62, 0
1, 62996, Note_on_c, 1, 58, 0
1, 63072, Note_on_c, 0, 54, 86
1, 63072, Note_on_c, 1, 38, 86
1, 63092, Note_on_c, 1, 38, 0
1, 63095, Note_on_c, 0, 54, 0
1, 63096, Note_on_c, 0, 57, 86
1, 63119, Note_on_c, 0, 57, 0
1, 63120, Note_on_c, 0, 55, 86
1, 63120, Note_on_c, 1, 40, 86
1, 63140, Note_on_c, 1, 40, 0
1, 63143, Note_on_c, 0, 55, 0
1, 63144, Note_on_c, 0, 58, 86
1, 63167, Note_on_c, 0, 58, 0
1, 63168, Note_on_c, 0, 57, 86
1, 63168, Note_on_c, 1, 42, 86
1, 63191, Note_on_c, 0, 57, 0
1, 63192, Note_on_c, 0, 60, 86
1, 63207, Note_on_c, 1, 42, 0
1, 63215, Note_on_c, 0, 60, 0
1, 63216, Note_on_c, 0, 58, 86
1, 63239, Note_on_c, 0, 58, 0
1, 63240, Note_on_c, 0, 62, 86
1, 63263, Note_on_c, 0, 62, 0
1, 63264, Note_on_c, 0, 60, 86
1, 63287, Note_on_c, 0, 60, 0
1, 63288, Note_on_c, 0, 63, 86
1, 63311, Note_on_c, 0, 63, 0
1, 63312, Note_on_c, 0, 62, 86
1, 63335, Note_on_c, 0, 62, 0
1, 63336, Note_on_c, 0, 60, 86
1, 63359, Note_on_c, 0, 60, 0
1, 63360, Note_on_c, 0, 58, 86
1, 63360, Note_on_c, 1, 43, 86
1, 63380, Note_on_c, 1, 43, 0
1, 63383, Note_on_c, 0, 58, 0
1, 63384, Note_on_c, 0, 62, 86
1, 63407, Note_on_c, 0, 62, 0
1, 63408, Note_on_c, 0, 60, 86
1, 63408, Note_on_c, 1, 45, 86
1, 63428, Note_on_c, 1, 45, 0
1, 63431, Note_on_c, 0, 60, 0
1, 63432, Note_on_c, 0, 63, 86
1, 63455, Note_on_c, 0, 63, 0
1, 63456, Note_on_c, 0, 62, 86
1, 63456, Note_on_c, 1, 46, 86
1, 63479, Note_on_c, 0, 62, 0
1, 63480, Note_on_c, 0, 67, 86
1, 63495, Note_on_c, 1, 46, 0
1, 63503, Note_on_c, 0, 67, 0
1, 63504, Note_on_c, 0, 66, 86
1, 63527, Note_on_c, 0, 66, 0
1, 63528, Note_on_c, 0, 69, 86
1, 63551, Note_on_c, 0, 69, 0
1, 63552, Note_on_c, 0, 67, 86
1, 63575, Note_on_c, 0, 67, 0
1, 63576, Note_on_c, 0, 70, 86
1, 63599, Note_on_c, 0, 70, 0
1, 63600, Note_on_c, 0, 69, 86
1, 63623, Note_on_c, 0, 69, 0
1, 63624, Note_on_c, 0, 67, 86
1, 63647, Note_on_c, 0, 67, 0
1, 63648, Note_on_c, 0, 66, 86
1, 63648, Note_on_c, 1, 50, 86
1, 63668, Note_on_c, 1, 50, 0
1, 63671, Note_on_c, 0, 66, 0
1, 63672, Note_on_c, 0, 69, 86
1, 63695, Note_on_c, 0, 69, 0
1, 63696, Note_on_c, 0, 67, 86
1, 63696, Note_on_c, 1, 52, 86
1, 63716, Note_on_c, 1, 52, 0
1, 63719, Note_on_c, 0, 67, 0
1, 63720, Note_on_c, 0, 70, 86
1, 63743, Note_on_c, 0, 70, 0
1, 63744, Note_on_c, 0, 69, 86
1, 63744, Note_on_c, 1, 54, 86
1, 63767, Note_on_c, 0, 69, 0
1, 63768, Note_on_c, 0, 72, 86
1, 63783, Note_on_c, 1, 54, 0
1, 63791, Note_on_c, 0, 72, 0
1, 63792, Note_on_c, 0, 70, 86
1, 63815, Note_on_c, 0, 70, 0
1, 63816, Note_on_c, 0, 74, 86
1, 63839, Note_on_c, 0, 74, 0
1, 63840, Note_on_c, 0, 72, 86
1, 63863, Note_on_c, 0, 72, 0
1, 63864, Note_on_c, 0, 75, 86
1, 63887, Note_on_c, 0, 75, 0
1, 63888, Note_on_c, 0, 74, 86
1, 63911, Note_on_c, 0, 74, 0
1, 63912, Note_on_c, 0, 72, 86
1, 63935, Note_on_c, 0, 72, 0
1, 63936, Note_on_c, 0, 70, 86
1, 63936, Note_on_c, 1, 55, 86
1, 63956, Note_on_c, 1, 55, 0
1, 63959, Note_on_c, 0, 70, 0
1, 63960, Note_on_c, 0, 74, 86
1, 63983, Note_on_c, 0, 74, 0
1, 63984, Note_on_c, 0, 72, 86
1, 63984, Note_on_c, 1, 57, 86
1, 64004, Note_on_c, 1, 57, 0
1, 64007, Note_on_c, 0, 72, 0
1, 64008, Note_on_c, 0, 75, 86
1, 64031, Note_on_c, 0, 75, 0
1, 64032, Note_on_c, 0, 74, 86
1, 64032, Note_on_c, 1, 58, 86
1, 64055, Note_on_c, 0, 74, 0
1, 64056, Note_on_c, 0, 79, 86
1, 64071, Note_on_c, 1, 58, 0
1, 64079, Note_on_c, 0, 79, 0
1, 64080, Note_on_c, 0, 78, 86
1, 64103, Note_on_c, 0, 78, 0
1, 64104, Note_on_c, 0, 81, 86
1, 64127, Note_on_c, 0, 81, 0
1, 64128, Note_on_c, 0, 79, 86
1, 64151, Note_on_c, 0, 79, 0
1, 64152, Note_on_c, 0, 82, 86
1, 64175, Note_on_c, 0, 82, 0
1, 64176, Note_on_c, 0, 81, 86
1, 64199, Note_on_c, 0, 81, 0
1, 64200, Note_on_c, 0, 79, 86
1, 64223, Note_on_c, 0, 79, 0
1, 64224, Note_on_c, 0, 78, 86
1, 64224, Note_on_c, 1, 62, 86
1, 64244, Note_on_c, 1, 62, 0
1, 64247, Note_on_c, 0, 78, 0
1, 64248, Note_on_c, 0, 81, 86
1, 64271, Note_on_c, 0, 81, 0
1, 64272, Note_on_c, 0, 79, 86
1, 64272, Note_on_c, 1, 64, 86
1, 64292, Note_on_c, 1, 64, 0
1, 64295, Note_on_c, 0, 79, 0
1, 64296, Note_on_c, 0, 82, 86
1, 64319, Note_on_c, 0, 82, 0
1, 64320, Note_on_c, 0, 81, 86
1, 64320, Note_on_c, 1, 66, 86
1, 64343, Note_on_c, 0, 81, 0
1, 64344, Note_on_c, 0, 84, 86
1, 64359, Note_on_c, 1, 66, 0
1, 64367, Note_on_c, 0, 84, 0
1, 64368, Note_on_c, 0, 82, 86
1, 64391, Note_on_c, 0, 82, 0
1, 64392, Note_on_c, 0, 86, 86
1, 64415, Note_on_c, 0, 86, 0
1, 64416, Note_on_c, 0, 84, 86
1, 64439, Note_on_c, 0, 84, 0
1, 64440, Note_on_c, 0, 87, 86
1, 64463, Note_on_c, 0, 87, 0
1, 64464, Note_on_c, 0, 86, 86
1, 64487, Note_on_c, 0, 86, 0
1, 64488, Note_on_c, 0, 84, 86
1, 64511, Note_on_c, 0, 84, 0
1, 64512, Note_on_c, 0, 82, 86
1, 64512, Note_on_c, 1, 67, 86
1, 64535, Note_on_c, 0, 82, 0
1, 64536, Note_on_c, 0, 84, 86
1, 64551, Note_on_c, 1, 67, 0
1, 64559, Note_on_c, 0, 84, 0
1, 64560, Note_on_c, 0, 86, 86
1, 64583, Note_on_c, 0, 86, 0
1, 64584, Note_on_c, 0, 84, 86
1, 64607, Note_on_c, 0, 84, 0
1, 64608, Note_on_c, 0, 82, 86
1, 64608, Note_on_c, 1, 69, 86
1, 64631, Note_on_c, 0, 82, 0
1, 64632, Note_on_c, 0, 81, 86
1, 64647, Note_on_c, 1, 69, 0
1, 64655, Note_on_c, 0, 81, 0
1, 64656, Note_on_c, 0, 79, 86
1, 64679, Note_on_c, 0, 79, 0
1, 64680, Note_on_c, 0, 78, 86
1, 64703, Note_on_c, 0, 78, 0
1, 64704, Note_on_c, 0, 79, 86
1, 64704, Note_on_c, 1, 70, 86
1, 64727, Note_on_c, 0, 79, 0
1, 64728, Note_on_c, 0, 77, 86
1, 64743, Note_on_c, 1, 70, 0
1, 64751, Note_on_c, 0, 77, 0
1, 64752, Note_on_c, 0, 75, 86
1, 64775, Note_on_c, 0, 75, 0
1, 64776, Note_on_c, 0, 74, 86
1, 64799, Note_on_c, 0, 74, 0
1, 64800, Note_on_c, 0, 77, 86
1, 64800, Note_on_c, 1, 67, 86
1, 64800, Note_on_c, 1, 60, 71
1, 64823, Note_on_c, 0, 77, 0
1, 64824, Note_on_c, 0, 75, 86
1, 64847, Note_on_c, 0, 75, 0
1, 64848, Note_on_c, 0, 74, 86
1, 64871, Note_on_c, 0, 74, 0
1, 64872, Note_on_c, 0, 72, 86
1, 64889, Note_on_c, 1, 67, 0
1, 64889, Note_on_c, 1, 60, 0
1, 64895, Note_on_c, 0, 72, 0
1, 64896, Note_on_c, 0, 70, 86
1, 64896, Note_on_c, 1, 67, 86
1, 64896, Note_on_c, 1, 62, 71
1, 64985, Note_on_c, 0, 70, 0
1, 64985, Note_on_c, 1, 67, 0
1, 64992, Note_on_c, 0, 70, 86
1, 64992, Note_on_c, 1, 66, 86
1, 65007, Note_on_c, 0, 70, 0
1, 65008, Note_on_c, 0, 69, 86
1, 65023, Note_on_c, 0, 69, 0
1, 65024, Note_on_c, 0, 70, 86
1, 65039, Note_on_c, 0, 70, 0
1, 65040, Note_on_c, 0, 69, 86
1, 65055, Note_on_c, 0, 69, 0
1, 65056, Note_on_c, 0, 67, 86
1, 65071, Note_on_c, 0, 67, 0
1, 65072, Note_on_c, 0, 69, 86
1, 65073, Note_on_c, 1, 62, 0
1, 65081, Note_on_c, 1, 66, 0
1, 65087, Note_on_c, 0, 69, 0
1, 65088, Note_on_c, 0, 67, 86
1, 65136, Note_on_c, 1, 54, 71
1, 65177, Note_on_c, 0, 67, 0
1, 65184, Note_on_c, 1, 54, 0
1, 65184, Note_on_c, 1, 55, 71
1, 65223, Note_on_c, 1, 55, 0
1, 65232, Note_on_c, 0, 79, 86
1, 65232, Note_on_c, 0, 75, 86
1, 65277, Note_on_c, 0, 79, 0
1, 65277, Note_on_c, 0, 75, 0
1, 65280, Note_on_c, 0, 77, 86
1, 65280, Note_on_c, 0, 74, 86
1, 65325, Note_on_c, 0, 77, 0
1, 65325, Note_on_c, 0, 74, 0
1, 65328, Note_on_c, 0, 75, 86
1, 65328, Note_on_c, 0, 72, 86
1, 65373, Note_on_c, 0, 75, 0
1, 65373, Note_on_c, 0, 72, 0
1, 65376, Note_on_c, 0, 74, 86
1, 65376, Note_on_c, 0, 71, 86
1, 65424, Note_on_c, 1, 66, 86
1, 65465, Note_on_c, 0, 74, 0
1, 65465, Note_on_c, 0, 71, 0
1, 65472, Note_on_c, 1, 66, 0
1, 65472, Note_on_c, 1, 67, 86
1, 65511, Note_on_c, 1, 67, 0
1, 65520, Note_on_c, 0, 75, 86
1, 65520, Note_on_c, 0, 72, 86
1, 65565, Note_on_c, 0, 75, 0
1, 65565, Note_on_c, 0, 72, 0
1, 65568, Note_on_c, 0, 74, 86
1, 65568, Note_on_c, 0, 71, 86
1, 65613, Note_on_c, 0, 74, 0
1, 65613, Note_on_c, 0, 71, 0
1, 65616, Note_on_c, 0, 72, 86
1, 65616, Note_on_c, 0, 69, 86
1, 65661, Note_on_c, 0, 72, 0
1, 65661, Note_on_c, 0, 69, 0
1, 65664, Note_on_c, 0, 71, 86
1, 65664, Note_on_c, 0, 67, 86
1, 65712, Note_on_c, 1, 54, 86
1, 65753, Note_on_c, 0, 71, 0
1, 65753, Note_on_c, 0, 67, 0
1, 65760, Note_on_c, 1, 54, 0
1, 65760, Note_on_c, 1, 55, 86
1, 65799, Note_on_c, 1, 55, 0
1, 65808, Note_on_c, 0, 67, 86
1, 65808, Note_on_c, 0, 63, 86
1, 65853, Note_on_c, 0, 67, 0
1, 65853, Note_on_c, 0, 63, 0
1, 65856, Note_on_c, 0, 65, 86
1, 65856, Note_on_c, 0, 62, 86
1, 65901, Note_on_c, 0, 65, 0
1, 65901, Note_on_c, 0, 62, 0
1, 65904, Note_on_c, 0, 63, 86
1, 65904, Note_on_c, 0, 60, 86
1, 65949, Note_on_c, 0, 63, 0
1, 65949, Note_on_c, 0, 60, 0
1, 65952, Note_on_c, 0, 62, 86
1, 65952, Note_on_c, 0, 59, 86
1, 66000, Note_on_c, 1, 42, 86
1, 66041, Note_on_c, 0, 62, 0
1, 66041, Note_on_c, 0, 59, 0
1, 66048, Note_on_c, 1, 42, 0
1, 66048, Note_on_c, 1, 43, 86
1, 66087, Note_on_c, 1, 43, 0
1, 66096, Note_on_c, 0, 51, 86
1, 66096, Note_on_c, 0, 48, 86
1, 66141, Note_on_c, 0, 51, 0
1, 66141, Note_on_c, 0, 48, 0
1, 66144, Note_on_c, 0, 50, 86
1, 66144, Note_on_c, 0, 47, 86
1, 66189, Note_on_c, 0, 50, 0
1, 66189, Note_on_c, 0, 47, 0
1, 66192, Note_on_c, 0, 48, 86
1, 66192, Note_on_c, 0, 45, 86
1, 66237, Note_on_c, 0, 48, 0
1, 66237, Note_on_c, 0, 45, 0
1, 66240, Note_on_c, 0, 47, 86
1, 66240, Note_on_c, 0, 43, 86
1, 66288, Note_on_c, 1, 30, 86
1, 66329, Note_on_c, 0, 47, 0
1, 66329, Note_on_c, 0, 43, 0
1, 66336, Note_on_c, 1, 30, 0
1, 66336, Note_on_c, 1, 31, 86
1, 66375, Note_on_c, 1, 31, 0
1, 66384, Note_on_c, 0, 71, 86
1, 66429, Note_on_c, 0, 71, 0
1, 66432, Note_on_c, 0, 72, 86
1, 66477, Note_on_c, 0, 72, 0
1, 66480, Note_on_c, 0, 74, 86
1, 66525, Note_on_c, 0, 74, 0
1, 66528, Note_on_c, 0, 77, 86
1, 66528, Note_on_c, 1, 63, 86
1, 66528, Note_on_c, 1, 60, 86
1, 66551, Note_on_c, 0, 77, 0
1, 66552, Note_on_c, 0, 75, 86
1, 66567, Note_on_c, 1, 63, 0
1, 66567, Note_on_c, 1, 60, 0
1, 66575, Note_on_c, 0, 75, 0
1, 66576, Note_on_c, 0, 74, 86
1, 66599, Note_on_c, 0, 74, 0
1, 66600, Note_on_c, 0, 72, 86
1, 66623, Note_on_c, 0, 72, 0
1, 66624, Note_on_c, 0, 71, 86
1, 66624, Note_on_c, 1, 65, 86
1, 66624, Note_on_c, 1, 62, 86
1, 66663, Note_on_c, 1, 65, 0
1, 66663, Note_on_c, 1, 62, 0
1, 66672, Note_on_c, 0, 71, 0
1, 66672, Note_on_c, 0, 72, 86
1, 66717, Note_on_c, 0, 72, 0
1, 66720, Note_on_c, 0, 73, 87
1, 66768, Note_on_c, 0, 73, 0
1, 66768, Note_on_c, 0, 74, 88
1, 66813, Note_on_c, 0, 74, 0
1, 66816, Note_on_c, 0, 79, 88
1, 66816, Note_on_c, 1, 65, 86
1, 66816, Note_on_c, 1, 62, 86
1, 66839, Note_on_c, 0, 79, 0
1, 66840, Note_on_c, 0, 77, 89
1, 66855, Note_on_c, 1, 65, 0
1, 66855, Note_on_c, 1, 62, 0
1, 66863, Note_on_c, 0, 77, 0
1, 66864, Note_on_c, 0, 75, 89
1, 66887, Note_on_c, 0, 75, 0
1, 66888, Note_on_c, 0, 74, 89
1, 66911, Note_on_c, 0, 74, 0
1, 66912, Note_on_c, 0, 72, 86
1, 66912, Note_on_c, 1, 67, 86
1, 66912, Note_on_c, 1, 63, 86
1, 66951, Note_on_c, 1, 67, 0
1, 66951, Note_on_c, 1, 63, 0
1, 66957, Note_on_c, 0, 72, 0
1, 66960, Note_on_c, 0, 75, 87
1, 67005, Note_on_c, 0, 75, 0
1, 67008, Note_on_c, 0, 79, 89
1, 67053, Note_on_c, 0, 79, 0
1, 67056, Note_on_c, 0, 84, 91
1, 67101, Note_on_c, 0, 84, 0
1, 67104, Note_on_c, 0, 84, 109
1, 67104, Note_on_c, 1, 67, 86
1, 67104, Note_on_c, 1, 63, 86
1, 67152, Note_on_c, 0, 84, 0
1, 67152, Note_on_c, 0, 83, 93
1, 67175, Note_on_c, 0, 83, 0
1, 67193, Note_on_c, 1, 67, 0
1, 67193, Note_on_c, 1, 63, 0
1, 67200, Note_on_c, 0, 83, 109
1, 67200, Note_on_c, 1, 65, 86
1, 67200, Note_on_c, 1, 62, 86
1, 67248, Note_on_c, 0, 83, 0
1, 67248, Note_on_c, 0, 80, 93
1, 67271, Note_on_c, 0, 80, 0
1, 67289, Note_on_c, 1, 65, 0
1, 67289, Note_on_c, 1, 62, 0
1, 67296, Note_on_c, 0, 80, 109
1, 67296, Note_on_c, 1, 63, 86
1, 67296, Note_on_c, 1, 60, 86
1, 67344, Note_on_c, 0, 80, 0
1, 67344, Note_on_c, 0, 79, 93
1, 67367, Note_on_c, 0, 79, 0
1, 67385, Note_on_c, 1, 63, 0
1, 67385, Note_on_c, 1, 60, 0
1, 67392, Note_on_c, 0, 79, 109
1, 67392, Note_on_c, 1, 62, 86
1, 67392, Note_on_c, 1, 59, 86
1, 67488, Note_on_c, 1, 62, 0
1, 67488, Note_on_c, 1, 55, 86
1, 67536, Note_on_c, 0, 79, 0
1, 67536, Note_on_c, 0, 74, 93
1, 67559, Note_on_c, 0, 74, 0
1, 67560, Note_on_c, 0, 75, 93
1, 67577, Note_on_c, 1, 59, 0
1, 67577, Note_on_c, 1, 55, 0
1, 67583, Note_on_c, 0, 75, 0
1, 67584, Note_on_c, 0, 79, 93
1, 67584, Note_on_c, 1, 67, 86
1, 67584, Note_on_c, 1, 59, 86
1, 67607, Note_on_c, 0, 79, 0
1, 67608, Note_on_c, 0, 77, 93
1, 67623, Note_on_c, 1, 67, 0
1, 67623, Note_on_c, 1, 59, 0
1, 67631, Note_on_c, 0, 77, 0
1, 67632, Note_on_c, 0, 75, 93
1, 67655, Note_on_c, 0, 75, 0
1, 67656, Note_on_c, 0, 74, 93
1, 67679, Note_on_c, 0, 74, 0
1, 67680, Note_on_c, 0, 77, 93
1, 67680, Note_on_c, 1, 67, 86
1, 67680, Note_on_c, 1, 60, 86
1, 67703, Note_on_c, 0, 77, 0
1, 67704, Note_on_c, 0, 75, 93
1, 67719, Note_on_c, 1, 67, 0
1, 67719, Note_on_c, 1, 60, 0
1, 67727, Note_on_c, 0, 75, 0
1, 67728, Note_on_c, 0, 74, 93
1, 67751, Note_on_c, 0, 74, 0
1, 67752, Note_on_c, 0, 72, 93
1, 67775, Note_on_c, 0, 72, 0
1, 67776, Note_on_c, 0, 71, 93
1, 67843, Note_on_c, 0, 71, 0
1, 67848, Note_on_c, 0, 72, 93
1, 67871, Note_on_c, 0, 72, 0
1, 67872, Note_on_c, 0, 74, 86
1, 67872, Note_on_c, 1, 66, 86
1, 67872, Note_on_c, 1, 56, 86
1, 67887, Note_on_c, 0, 74, 0
1, 67888, Note_on_c, 0, 72, 85
1, 67903, Note_on_c, 0, 72, 0
1, 67904, Note_on_c, 0, 74, 85
1, 67919, Note_on_c, 0, 74, 0
1, 67920, Note_on_c, 0, 72, 85
1, 67935, Note_on_c, 0, 72, 0
1, 67936, Note_on_c, 0, 71, 84
1, 67951, Note_on_c, 0, 71, 0
1, 67952, Note_on_c, 0, 72, 84
1, 67961, Note_on_c, 1, 66, 0
1, 67961, Note_on_c, 1, 56, 0
1, 67967, Note_on_c, 0, 72, 0
1, 67968, Note_on_c, 0, 72, 84
1, 67968, Note_on_c, 0, 72, 71
1, 67968, Note_on_c, 1, 67, 86
1, 67968, Note_on_c, 1, 55, 86
1, 68057, Note_on_c, 1, 67, 0
1, 68057, Note_on_c, 1, 55, 0
1, 68064, Note_on_c, 0, 72, 0
1, 68064, Note_on_c, 0, 74, 81
1, 68064, Note_on_c, 0, 72, 0
1, 68064, Note_on_c, 0, 71, 71
1, 68103, Note_on_c, 0, 74, 0
1, 68103, Note_on_c, 0, 71, 0
1, 68112, Note_on_c, 1, 53, 86
1, 68157, Note_on_c, 1, 53, 0
1, 68160, Note_on_c, 1, 51, 86
1, 68205, Note_on_c, 1, 51, 0
1, 68208, Note_on_c, 1, 50, 86
1, 68253, Note_on_c, 1, 50, 0
1, 68256, Note_on_c, 1, 48, 86
1, 68304, Note_on_c, 0, 72, 78
1, 68345, Note_on_c, 1, 48, 0
1, 68349, Note_on_c, 0, 72, 0
1, 68352, Note_on_c, 0, 75, 79
1, 68397, Note_on_c, 0, 75, 0
1, 68400, Note_on_c, 0, 72, 81
1, 68445, Note_on_c, 0, 72, 0
1, 68448, Note_on_c, 0, 68, 82
1, 68493, Note_on_c, 0, 68, 0
1, 68496, Note_on_c, 0, 67, 84
1, 68541, Note_on_c, 0, 67, 0
1, 68544, Note_on_c, 0, 67, 102
1, 68544, Note_on_c, 1, 50, 71
1, 68592, Note_on_c, 0, 57, 78
1, 68637, Note_on_c, 0, 57, 0
1, 68640, Note_on_c, 0, 67, 0
1, 68640, Note_on_c, 0, 66, 83
1, 68640, Note_on_c, 0, 60, 79
1, 68685, Note_on_c, 0, 60, 0
1, 68688, Note_on_c, 0, 63, 81
1, 68733, Note_on_c, 0, 63, 0
1, 68736, Note_on_c, 0, 62, 82
1, 68781, Note_on_c, 0, 62, 0
1, 68784, Note_on_c, 0, 60, 84
1, 68809, Note_on_c, 1, 50, 0
1, 68817, Note_on_c, 0, 66, 0
1, 68829, Note_on_c, 0, 60, 0
1, 68832, Note_on_c, 0, 60, 102
1, 68832, Note_on_c, 1, 55, 71
1, 68880, Note_on_c, 0, 65, 78
1, 68925, Note_on_c, 0, 65, 0
1, 68928, Note_on_c, 0, 74, 79
1, 68928, Note_on_c, 0, 60, 0
1, 68928, Note_on_c, 0, 59, 83
1, 68973, Note_on_c, 0, 74, 0
1, 68976, Note_on_c, 0, 71, 81
1, 69021, Note_on_c, 0, 71, 0
1, 69024, Note_on_c, 0, 67, 82
1, 69069, Note_on_c, 0, 67, 0
1, 69072, Note_on_c, 0, 65, 84
1, 69097, Note_on_c, 1, 55, 0
1, 69105, Note_on_c, 0, 59, 0
1, 69117, Note_on_c, 0, 65, 0
1, 69120, Note_on_c, 0, 65, 86
1, 69120, Note_on_c, 1, 48, 71
1, 69168, Note_on_c, 0, 55, 78
1, 69213, Note_on_c, 0, 55, 0
1, 69216, Note_on_c, 0, 65, 0
1, 69216, Note_on_c, 0, 63, 83
1, 69216, Note_on_c, 0, 60, 79
1, 69261, Note_on_c, 0, 60, 0
1, 69264, Note_on_c, 0, 58, 81
1, 69309, Note_on_c, 0, 58, 0
1, 69312, Note_on_c, 0, 56, 82
1, 69357, Note_on_c, 0, 56, 0
1, 69360, Note_on_c, 0, 55, 84
1, 69385, Note_on_c, 1, 48, 0
1, 69405, Note_on_c, 0, 55, 0
1, 69408, Note_on_c, 0, 56, 86
1, 69408, Note_on_c, 1, 41, 78
1, 69453, Note_on_c, 0, 63, 0
1, 69456, Note_on_c, 0, 62, 78
1, 69501, Note_on_c, 0, 62, 0
1, 69504, Note_on_c, 0, 68, 79
1, 69549, Note_on_c, 0, 68, 0
1, 69552, Note_on_c, 0, 65, 81
1, 69585, Note_on_c, 0, 56, 0
1, 69585, Note_on_c, 1, 41, 0
1, 69597, Note_on_c, 0, 65, 0
1, 69600, Note_on_c, 0, 62, 82
1, 69600, Note_on_c, 1, 42, 83
1, 69645, Note_on_c, 0, 62, 0
1, 69648, Note_on_c, 0, 60, 84
1, 69689, Note_on_c, 1, 42, 0
1, 69693, Note_on_c, 0, 60, 0
1, 69696, Note_on_c, 0, 59, 86
1, 69696, Note_on_c, 1, 43, 86
1, 69696, Note_on_c, 1, 31, 86
1, 69719, Note_on_c, 0, 59, 0
1, 69720, Note_on_c, 0, 62, 86
1, 69743, Note_on_c, 0, 62, 0
1, 69744, Note_on_c, 0, 60, 86
1, 69767, Note_on_c, 0, 60, 0
1, 69768, Note_on_c, 0, 63, 86
1, 69785, Note_on_c, 1, 43, 0
1, 69785, Note_on_c, 1, 31, 0
1, 69791, Note_on_c, 0, 63, 0
1, 69792, Note_on_c, 0, 62, 86
1, 69792, Note_on_c, 1, 59, 86
1, 69812, Note_on_c, 1, 59, 0
1, 69815, Note_on_c, 0, 62, 0
1, 69816, Note_on_c, 0, 65, 86
1, 69839, Note_on_c, 0, 65, 0
1, 69840, Note_on_c, 0, 63, 86
1, 69840, Note_on_c, 1, 60, 86
1, 69860, Note_on_c, 1, 60, 0
1, 69863, Note_on_c, 0, 63, 0
1, 69864, Note_on_c, 0, 67, 86
1, 69887, Note_on_c, 0, 67, 0
1, 69888, Note_on_c, 0, 65, 86
1, 69888, Note_on_c, 1, 62, 86
1, 69908, Note_on_c, 1, 62, 0
1, 69933, Note_on_c, 0, 65, 0
1, 69984, Note_on_c, 0, 60, 86
1, 69984, Note_on_c, 1, 43, 86
1, 69984, Note_on_c, 1, 31, 86
1, 70007, Note_on_c, 0, 60, 0
1, 70008, Note_on_c, 0, 63, 86
1, 70031, Note_on_c, 0, 63, 0
1, 70032, Note_on_c, 0, 62, 86
1, 70055, Note_on_c, 0, 62, 0
1, 70056, Note_on_c, 0, 65, 86
1, 70073, Note_on_c, 1, 43, 0
1, 70073, Note_on_c, 1, 31, 0
1, 70079, Note_on_c, 0, 65, 0
1, 70080, Note_on_c, 0, 63, 86
1, 70080, Note_on_c, 1, 60, 86
1, 70100, Note_on_c, 1, 60, 0
1, 70103, Note_on_c, 0, 63, 0
1, 70104, Note_on_c, 0, 67, 86
1, 70127, Note_on_c, 0, 67, 0
1, 70128, Note_on_c, 0, 65, 86
1, 70128, Note_on_c, 1, 62, 86
1, 70148, Note_on_c, 1, 62, 0
1, 70151, Note_on_c, 0, 65, 0
1, 70152, Note_on_c, 0, 68, 86
1, 70175, Note_on_c, 0, 68, 0
1, 70176, Note_on_c, 0, 67, 86
1, 70176, Note_on_c, 1, 63, 86
1, 70196, Note_on_c, 1, 63, 0
1, 70221, Note_on_c, 0, 67, 0
1, 70272, Note_on_c, 0, 59, 86
1, 70272, Note_on_c, 1, 55, 86
1, 70292, Note_on_c, 1, 55, 0
1, 70295, Note_on_c, 0, 59, 0
1, 70296, Note_on_c, 0, 62, 86
1, 70319, Note_on_c, 0, 62, 0
1, 70320, Note_on_c, 0, 60, 86
1, 70320, Note_on_c, 1, 57, 86
1, 70340, Note_on_c, 1, 57, 0
1, 70343, Note_on_c, 0, 60, 0
1, 70344, Note_on_c, 0, 63, 86
1, 70367, Note_on_c, 0, 63, 0
1, 70368, Note_on_c, 0, 62, 86
1, 70368, Note_on_c, 1, 59, 86
1, 70391, Note_on_c, 0, 62, 0
1, 70392, Note_on_c, 0, 65, 86
1, 70407, Note_on_c, 1, 59, 0
1, 70415, Note_on_c, 0, 65, 0
1, 70416, Note_on_c, 0, 63, 86
1, 70439, Note_on_c, 0, 63, 0
1, 70440, Note_on_c, 0, 67, 86
1, 70463, Note_on_c, 0, 67, 0
1, 70464, Note_on_c, 0, 65, 86
1, 70487, Note_on_c, 0, 65, 0
1, 70488, Note_on_c, 0, 68, 86
1, 70511, Note_on_c, 0, 68, 0
1, 70512, Note_on_c, 0, 67, 86
1, 70535, Note_on_c, 0, 67, 0
1, 70536, Note_on_c, 0, 65, 86
1, 70559, Note_on_c, 0, 65, 0
1, 70560, Note_on_c, 0, 63, 86
1, 70560, Note_on_c, 1, 60, 86
1, 70580, Note_on_c, 1, 60, 0
1, 70583, Note_on_c, 0, 63, 0
1, 70584, Note_on_c, 0, 67, 86
1, 70607, Note_on_c, 0, 67, 0
1, 70608, Note_on_c, 0, 65, 86
1, 70608, Note_on_c, 1, 62, 86
1, 70628, Note_on_c, 1, 62, 0
1, 70631, Note_on_c, 0, 65, 0
1, 70632, Note_on_c, 0, 68, 86
1, 70655, Note_on_c, 0, 68, 0
1, 70656, Note_on_c, 0, 67, 86
1, 70656, Note_on_c, 1, 63, 86
1, 70679, Note_on_c, 0, 67, 0
1, 70680, Note_on_c, 0, 72, 86
1, 70695, Note_on_c, 1, 63, 0
1, 70703, Note_on_c, 0, 72, 0
1, 70704, Note_on_c, 0, 71, 86
1, 70727, Note_on_c, 0, 71, 0
1, 70728, Note_on_c, 0, 74, 86
1, 70751, Note_on_c, 0, 74, 0
1, 70752, Note_on_c, 0, 72, 86
1, 70775, Note_on_c, 0, 72, 0
1, 70776, Note_on_c, 0, 75, 86
1, 70799, Note_on_c, 0, 75, 0
1, 70800, Note_on_c, 0, 74, 86
1, 70823, Note_on_c, 0, 74, 0
1, 70824, Note_on_c, 0, 72, 86
1, 70847, Note_on_c, 0, 72, 0
1, 70848, Note_on_c, 0, 71, 86
1, 70848, Note_on_c, 1, 67, 86
1, 70868, Note_on_c, 1, 67, 0
1, 70871, Note_on_c, 0, 71, 0
1, 70872, Note_on_c, 0, 74, 86
1, 70895, Note_on_c, 0, 74, 0
1, 70896, Note_on_c, 0, 72, 86
1, 70896, Note_on_c, 1, 69, 86
1, 70916, Note_on_c, 1, 69, 0
1, 70919, Note_on_c, 0, 72, 0
1, 70920, Note_on_c, 0, 75, 86
1, 70943, Note_on_c, 0, 75, 0
1, 70944, Note_on_c, 0, 74, 86
1, 70944, Note_on_c, 1, 71, 86
1, 70967, Note_on_c, 0, 74, 0
1, 70968, Note_on_c, 0, 77, 86
1, 70983, Note_on_c, 1, 71, 0
1, 70991, Note_on_c, 0, 77, 0
1, 70992, Note_on_c, 0, 75, 86
1, 71015, Note_on_c, 0, 75, 0
1, 71016, Note_on_c, 0, 79, 86
1, 71039, Note_on_c, 0, 79, 0
1, 71040, Note_on_c, 0, 77, 86
1, 71063, Note_on_c, 0, 77, 0
1, 71064, Note_on_c, 0, 80, 86
1, 71087, Note_on_c, 0, 80, 0
1, 71088, Note_on_c, 0, 79, 86
1, 71111, Note_on_c, 0, 79, 0
1, 71112, Note_on_c, 0, 77, 86
1, 71135, Note_on_c, 0, 77, 0
1, 71136, Note_on_c, 0, 75, 86
1, 71136, Note_on_c, 1, 72, 86
1, 71156, Note_on_c, 1, 72, 0
1, 71159, Note_on_c, 0, 75, 0
1, 71160, Note_on_c, 0, 79, 86
1, 71183, Note_on_c, 0, 79, 0
1, 71184, Note_on_c, 0, 77, 86
1, 71184, Note_on_c, 1, 74, 86
1, 71204, Note_on_c, 1, 74, 0
1, 71207, Note_on_c, 0, 77, 0
1, 71208, Note_on_c, 0, 80, 86
1, 71231, Note_on_c, 0, 80, 0
1, 71232, Note_on_c, 0, 79, 86
1, 71232, Note_on_c, 1, 75, 86
1, 71255, Note_on_c, 0, 79, 0
1, 71256, Note_on_c, 0, 84, 86
1, 71271, Note_on_c, 1, 75, 0
1, 71279, Note_on_c, 0, 84, 0
1, 71280, Note_on_c, 0, 83, 86
1, 71303, Note_on_c, 0, 83, 0
1, 71304, Note_on_c, 0, 86, 86
1, 71327, Note_on_c, 0, 86, 0
1, 71328, Note_on_c, 0, 84, 86
1, 71351, Note_on_c, 0, 84, 0
1, 71352, Note_on_c, 0, 87, 86
1, 71375, Note_on_c, 0, 87, 0
1, 71376, Note_on_c, 0, 86, 86
1, 71399, Note_on_c, 0, 86, 0
1, 71400, Note_on_c, 0, 84, 86
1, 71423, Note_on_c, 0, 84, 0
1, 71424, Note_on_c, 0, 83, 86
1, 71447, Note_on_c, 0, 83, 0
1, 71448, Note_on_c, 0, 84, 86
1, 71471, Note_on_c, 0, 84, 0
1, 71472, Note_on_c, 0, 86, 86
1, 71495, Note_on_c, 0, 86, 0
1, 71496, Note_on_c, 0, 83, 86
1, 71519, Note_on_c, 0, 83, 0
1, 71520, Note_on_c, 0, 79, 86
1, 71544, Note_on_c, 1, 77, 86
1, 71565, Note_on_c, 0, 79, 0
1, 71567, Note_on_c, 1, 77, 0
1, 71568, Note_on_c, 1, 75, 86
1, 71591, Note_on_c, 1, 75, 0
1, 71592, Note_on_c, 1, 74, 86
1, 71615, Note_on_c, 1, 74, 0
1, 71616, Note_on_c, 1, 72, 86
1, 71639, Note_on_c, 1, 72, 0
1, 71640, Note_on_c, 1, 71, 86
1, 71663, Note_on_c, 1, 71, 0
1, 71664, Note_on_c, 1, 69, 86
1, 71687, Note_on_c, 1, 69, 0
1, 71688, Note_on_c, 1, 67, 86
1, 71711, Note_on_c, 1, 67, 0
1, 71712, Note_on_c, 0, 87, 86
1, 71712, Note_on_c, 1, 72, 86
1, 71735, Note_on_c, 0, 87, 0
1, 71736, Note_on_c, 0, 79, 86
1, 71759, Note_on_c, 0, 79, 0
1, 71760, Note_on_c, 0, 78, 86
1, 71783, Note_on_c, 0, 78, 0
1, 71784, Note_on_c, 0, 79, 86
1, 71801, Note_on_c, 1, 72, 0
1, 71807, Note_on_c, 0, 79, 0
1, 71808, Note_on_c, 0, 86, 86
1, 71808, Note_on_c, 1, 70, 86
1, 71831, Note_on_c, 0, 86, 0
1, 71832, Note_on_c, 0, 79, 86
1, 71855, Note_on_c, 0, 79, 0
1, 71856, Note_on_c, 0, 78, 86
1, 71879, Note_on_c, 0, 78, 0
1, 71880, Note_on_c, 0, 79, 86
1, 71897, Note_on_c, 1, 70, 0
1, 71903, Note_on_c, 0, 79, 0
1, 71904, Note_on_c, 0, 84, 86
1, 71904, Note_on_c, 1, 68, 86
1, 71927, Note_on_c, 0, 84, 0
1, 71928, Note_on_c, 0, 79, 86
1, 71951, Note_on_c, 0, 79, 0
1, 71952, Note_on_c, 0, 78, 86
1, 71975, Note_on_c, 0, 78, 0
1, 71976, Note_on_c, 0, 79, 86
1, 71993, Note_on_c, 1, 68, 0
1, 71999, Note_on_c, 0, 79, 0
1, 72000, Note_on_c, 0, 83, 86
1, 72000, Note_on_c, 1, 67, 86
1, 72023, Note_on_c, 0, 83, 0
1, 72024, Note_on_c, 0, 84, 86
1, 72047, Note_on_c, 0, 84, 0
1, 72048, Note_on_c, 0, 86, 86
1, 72071, Note_on_c, 0, 86, 0
1, 72072, Note_on_c, 0, 83, 86
1, 72089, Note_on_c, 1, 67, 0
1, 72095, Note_on_c, 0, 83, 0
1, 72096, Note_on_c, 0, 79, 86
1, 72120, Note_on_c, 1, 77, 86
1, 72141, Note_on_c, 0, 79, 0
1, 72143, Note_on_c, 1, 77, 0
1, 72144, Note_on_c, 1, 75, 86
1, 72167, Note_on_c, 1, 75, 0
1, 72168, Note_on_c, 1, 74, 86
1, 72191, Note_on_c, 1, 74, 0
1, 72192, Note_on_c, 1, 72, 86
1, 72215, Note_on_c, 1, 72, 0
1, 72216, Note_on_c, 1, 71, 86
1, 72239, Note_on_c, 1, 71, 0
1, 72240, Note_on_c, 1, 69, 86
1, 72263, Note_on_c, 1, 69, 0
1, 72264, Note_on_c, 1, 67, 86
1, 72287, Note_on_c, 1, 67, 0
1, 72288, Note_on_c, 0, 87, 86
1, 72288, Note_on_c, 1, 72, 86
1, 72311, Note_on_c, 0, 87, 0
1, 72312, Note_on_c, 0, 79, 86
1, 72335, Note_on_c, 0, 79, 0
1, 72336, Note_on_c, 0, 78, 86
1, 72359, Note_on_c, 0, 78, 0
1, 72360, Note_on_c, 0, 79, 86
1, 72377, Note_on_c, 1, 72, 0
1, 72383, Note_on_c, 0, 79, 0
1, 72384, Note_on_c, 0, 86, 86
1, 72384, Note_on_c, 1, 70, 86
1, 72407, Note_on_c, 0, 86, 0
1, 72408, Note_on_c, 0, 79, 86
1, 72431, Note_on_c, 0, 79, 0
1, 72432, Note_on_c, 0, 78, 86
1, 72455, Note_on_c, 0, 78, 0
1, 72456, Note_on_c, 0, 79, 86
1, 72473, Note_on_c, 1, 70, 0
1, 72479, Note_on_c, 0, 79, 0
1, 72480, Note_on_c, 0, 84, 86
1, 72480, Note_on_c, 1, 68, 86
1, 72503, Note_on_c, 0, 84, 0
1, 72504, Note_on_c, 0, 79, 86
1, 72527, Note_on_c, 0, 79, 0
1, 72528, Note_on_c, 0, 78, 86
1, 72551, Note_on_c, 0, 78, 0
1, 72552, Note_on_c, 0, 79, 86
1, 72569, Note_on_c, 1, 68, 0
1, 72575, Note_on_c, 0, 79, 0
1, 72576, Note_on_c, 0, 83, 86
1, 72576, Note_on_c, 1, 67, 86
1, 72599, Note_on_c, 0, 83, 0
1, 72600, Note_on_c, 0, 84, 86
1, 72623, Note_on_c, 0, 84, 0
1, 72624, Note_on_c, 0, 86, 86
1, 72647, Note_on_c, 0, 86, 0
1, 72648, Note_on_c, 0, 83, 86
1, 72665, Note_on_c, 1, 67, 0
1, 72671, Note_on_c, 0, 83, 0
1, 72672, Note_on_c, 0, 79, 86
1, 72696, Note_on_c, 1, 77, 86
1, 72717, Note_on_c, 0, 79, 0
1, 72719, Note_on_c, 1, 77, 0
1, 72720, Note_on_c, 1, 75, 86
1, 72743, Note_on_c, 1, 75, 0
1, 72744, Note_on_c, 1, 74, 86
1, 72767, Note_on_c, 1, 74, 0
1, 72768, Note_on_c, 1, 72, 86
1, 72791, Note_on_c, 1, 72, 0
1, 72792, Note_on_c, 1, 71, 86
1, 72815, Note_on_c, 1, 71, 0
1, 72816, Note_on_c, 1, 69, 86
1, 72839, Note_on_c, 1, 69, 0
1, 72840, Note_on_c, 1, 67, 86
1, 72863, Note_on_c, 1, 67, 0
1, 72864, Note_on_c, 0, 75, 86
1, 72864, Note_on_c, 1, 72, 86
1, 72887, Note_on_c, 0, 75, 0
1, 72888, Note_on_c, 0, 77, 86
1, 72911, Note_on_c, 0, 77, 0
1, 72912, Note_on_c, 0, 79, 86
1, 72935, Note_on_c, 0, 79, 0
1, 72936, Note_on_c, 0, 75, 86
1, 72953, Note_on_c, 1, 72, 0
1, 72959, Note_on_c, 0, 75, 0
1, 72960, Note_on_c, 0, 72, 86
1, 72984, Note_on_c, 1, 70, 86
1, 73005, Note_on_c, 0, 72, 0
1, 73007, Note_on_c, 1, 70, 0
1, 73008, Note_on_c, 1, 68, 86
1, 73031, Note_on_c, 1, 68, 0
1, 73032, Note_on_c, 1, 67, 86
1, 73055, Note_on_c, 1, 67, 0
1, 73056, Note_on_c, 1, 65, 86
1, 73079, Note_on_c, 1, 65, 0
1, 73080, Note_on_c, 1, 63, 86
1, 73103, Note_on_c, 1, 63, 0
1, 73104, Note_on_c, 1, 62, 86
1, 73127, Note_on_c, 1, 62, 0
1, 73128, Note_on_c, 1, 60, 86
1, 73151, Note_on_c, 1, 60, 0
1, 73152, Note_on_c, 0, 80, 86
1, 73152, Note_on_c, 1, 65, 86
1, 73175, Note_on_c, 0, 80, 0
1, 73176, Note_on_c, 0, 72, 86
1, 73199, Note_on_c, 0, 72, 0
1, 73200, Note_on_c, 0, 71, 86
1, 73223, Note_on_c, 0, 71, 0
1, 73224, Note_on_c, 0, 72, 86
1, 73241, Note_on_c, 1, 65, 0
1, 73247, Note_on_c, 0, 72, 0
1, 73248, Note_on_c, 0, 79, 86
1, 73248, Note_on_c, 1, 63, 86
1, 73271, Note_on_c, 0, 79, 0
1, 73272, Note_on_c, 0, 72, 86
1, 73295, Note_on_c, 0, 72, 0
1, 73296, Note_on_c, 0, 71, 86
1, 73319, Note_on_c, 0, 71, 0
1, 73320, Note_on_c, 0, 72, 86
1, 73337, Note_on_c, 1, 63, 0
1, 73343, Note_on_c, 0, 72, 0
1, 73344, Note_on_c, 0, 77, 86
1, 73344, Note_on_c, 1, 62, 86
1, 73367, Note_on_c, 0, 77, 0
1, 73368, Note_on_c, 0, 72, 86
1, 73391, Note_on_c, 0, 72, 0
1, 73392, Note_on_c, 0, 71, 86
1, 73415, Note_on_c, 0, 71, 0
1, 73416, Note_on_c, 0, 72, 86
1, 73433, Note_on_c, 1, 62, 0
1, 73439, Note_on_c, 0, 72, 0
1, 73440, Note_on_c, 0, 75, 86
1, 73440, Note_on_c, 1, 60, 86
1, 73463, Note_on_c, 0, 75, 0
1, 73464, Note_on_c, 0, 77, 86
1, 73487, Note_on_c, 0, 77, 0
1, 73488, Note_on_c, 0, 79, 86
1, 73511, Note_on_c, 0, 79, 0
1, 73512, Note_on_c, 0, 75, 86
1, 73529, Note_on_c, 1, 60, 0
1, 73535, Note_on_c, 0, 75, 0
1, 73536, Note_on_c, 0, 72, 86
1, 73560, Note_on_c, 1, 70, 86
1, 73581, Note_on_c, 0, 72, 0
1, 73583, Note_on_c, 1, 70, 0
1, 73584, Note_on_c, 1, 68, 86
1, 73607, Note_on_c, 1, 68, 0
1, 73608, Note_on_c, 1, 67, 86
1, 73631, Note_on_c, 1, 67, 0
1, 73632, Note_on_c, 1, 65, 86
1, 73655, Note_on_c, 1, 65, 0
1, 73656, Note_on_c, 1, 63, 86
1, 73679, Note_on_c, 1, 63, 0
1, 73680, Note_on_c, 1, 62, 86
1, 73703, Note_on_c, 1, 62, 0
1, 73704, Note_on_c, 1, 60, 86
1, 73727, Note_on_c, 1, 60, 0
1, 73728, Note_on_c, 0, 80, 86
1, 73728, Note_on_c, 1, 65, 86
1, 73751, Note_on_c, 0, 80, 0
1, 73752, Note_on_c, 0, 72, 86
1, 73775, Note_on_c, 0, 72, 0
1, 73776, Note_on_c, 0, 71, 86
1, 73799, Note_on_c, 0, 71, 0
1, 73800, Note_on_c, 0, 72, 86
1, 73817, Note_on_c, 1, 65, 0
1, 73823, Note_on_c, 0, 72, 0
1, 73824, Note_on_c, 0, 79, 86
1, 73824, Note_on_c, 1, 63, 86
1, 73847, Note_on_c, 0, 79, 0
1, 73848, Note_on_c, 0, 72, 86
1, 73871, Note_on_c, 0, 72, 0
1, 73872, Note_on_c, 0, 71, 86
1, 73895, Note_on_c, 0, 71, 0
1, 73896, Note_on_c, 0, 72, 86
1, 73913, Note_on_c, 1, 63, 0
1, 73919, Note_on_c, 0, 72, 0
1, 73920, Note_on_c, 0, 79, 86
1, 73943, Note_on_c, 0, 79, 0
1, 73944, Note_on_c, 0, 72, 86
1, 73967, Note_on_c, 0, 72, 0
1, 73968, Note_on_c, 0, 71, 86
1, 73991, Note_on_c, 0, 71, 0
1, 73992, Note_on_c, 0, 72, 86
1, 74015, Note_on_c, 0, 72, 0
1, 74016, Note_on_c, 0, 77, 86
1, 74016, Note_on_c, 1, 68, 86
1, 74039, Note_on_c, 0, 77, 0
1, 74040, Note_on_c, 0, 72, 86
1, 74063, Note_on_c, 0, 72, 0
1, 74064, Note_on_c, 0, 71, 86
1, 74087, Note_on_c, 0, 71, 0
1, 74088, Note_on_c, 0, 72, 86
1, 74105, Note_on_c, 1, 68, 0
1, 74111, Note_on_c, 0, 72, 0
1, 74112, Note_on_c, 0, 75, 86
1, 74112, Note_on_c, 1, 67, 86
1, 74135, Note_on_c, 0, 75, 0
1, 74136, Note_on_c, 0, 72, 86
1, 74159, Note_on_c, 0, 72, 0
1, 74160, Note_on_c, 0, 71, 86
1, 74183, Note_on_c, 0, 71, 0
1, 74184, Note_on_c, 0, 72, 86
1, 74201, Note_on_c, 1, 67, 0
1, 74207, Note_on_c, 0, 72, 0
1, 74208, Note_on_c, 0, 75, 86
1, 74231, Note_on_c, 0, 75, 0
1, 74232, Note_on_c, 0, 72, 86
1, 74255, Note_on_c, 0, 72, 0
1, 74256, Note_on_c, 0, 71, 86
1, 74279, Note_on_c, 0, 71, 0
1, 74280, Note_on_c, 0, 72, 86
1, 74303, Note_on_c, 0, 72, 0
1, 74304, Note_on_c, 0, 80, 86
1, 74304, Note_on_c, 1, 65, 86
1, 74327, Note_on_c, 0, 80, 0
1, 74328, Note_on_c, 0, 72, 86
1, 74351, Note_on_c, 0, 72, 0
1, 74352, Note_on_c, 0, 71, 86
1, 74375, Note_on_c, 0, 71, 0
1, 74376, Note_on_c, 0, 72, 86
1, 74393, Note_on_c, 1, 65, 0
1, 74399, Note_on_c, 0, 72, 0
1, 74400, Note_on_c, 0, 79, 86
1, 74400, Note_on_c, 1, 63, 86
1, 74423, Note_on_c, 0, 79, 0
1, 74424, Note_on_c, 0, 72, 86
1, 74447, Note_on_c, 0, 72, 0
1, 74448, Note_on_c, 0, 71, 86
1, 74471, Note_on_c, 0, 71, 0
1, 74472, Note_on_c, 0, 72, 86
1, 74489, Note_on_c, 1, 63, 0
1, 74495, Note_on_c, 0, 72, 0
1, 74496, Note_on_c, 0, 79, 86
1, 74519, Note_on_c, 0, 79, 0
1, 74520, Note_on_c, 0, 72, 86
1, 74543, Note_on_c, 0, 72, 0
1, 74544, Note_on_c, 0, 71, 86
1, 74567, Note_on_c, 0, 71, 0
1, 74568, Note_on_c, 0, 72, 86
1, 74591, Note_on_c, 0, 72, 0
1, 74592, Note_on_c, 0, 78, 86
1, 74592, Note_on_c, 1, 62, 97
1, 74592, Note_on_c, 1, 50, 97
1, 74615, Note_on_c, 0, 78, 0
1, 74616, Note_on_c, 0, 72, 86
1, 74639, Note_on_c, 0, 72, 0
1, 74640, Note_on_c, 0, 71, 86
1, 74663, Note_on_c, 0, 71, 0
1, 74664, Note_on_c, 0, 72, 86
1, 74681, Note_on_c, 1, 62, 0
1, 74681, Note_on_c, 1, 50, 0
1, 74687, Note_on_c, 0, 72, 0
1, 74688, Note_on_c, 0, 78, 86
1, 74688, Note_on_c, 1, 87, 102
1, 74711, Note_on_c, 0, 78, 0
1, 74712, Note_on_c, 0, 72, 86
1, 74735, Note_on_c, 0, 72, 0
1, 74736, Note_on_c, 0, 71, 86
1, 74759, Note_on_c, 0, 71, 0
1, 74760, Note_on_c, 0, 72, 86
1, 74783, Note_on_c, 0, 72, 0
1, 74784, Note_on_c, 0, 78, 86
1, 74784, Note_on_c, 1, 87, 0
1, 74784, Note_on_c, 1, 81, 86
1, 74807, Note_on_c, 0, 78, 0
1, 74808, Note_on_c, 0, 72, 86
1, 74823, Note_on_c, 1, 81, 0
1, 74831, Note_on_c, 0, 72, 0
1, 74832, Note_on_c, 0, 71, 86
1, 74855, Note_on_c, 0, 71, 0
1, 74856, Note_on_c, 0, 78, 86
1, 74879, Note_on_c, 0, 78, 0
1, 74880, Note_on_c, 0, 77, 86
1, 74880, Note_on_c, 1, 67, 97
1, 74880, Note_on_c, 1, 55, 97
1, 74903, Note_on_c, 0, 77, 0
1, 74904, Note_on_c, 0, 71, 86
1, 74927, Note_on_c, 0, 71, 0
1, 74928, Note_on_c, 0, 69, 86
1, 74951, Note_on_c, 0, 69, 0
1, 74952, Note_on_c, 0, 71, 86
1, 74969, Note_on_c, 1, 67, 0
1, 74969, Note_on_c, 1, 55, 0
1, 74975, Note_on_c, 0, 71, 0
1, 74976, Note_on_c, 0, 77, 86
1, 74976, Note_on_c, 1, 86, 102
1, 74999, Note_on_c, 0, 77, 0
1, 75000, Note_on_c, 0, 71, 86
1, 75023, Note_on_c, 0, 71, 0
1, 75024, Note_on_c, 0, 69, 86
1, 75047, Note_on_c, 0, 69, 0
1, 75048, Note_on_c, 0, 71, 86
1, 75071, Note_on_c, 0, 71, 0
1, 75072, Note_on_c, 0, 77, 86
1, 75072, Note_on_c, 1, 86, 0
1, 75072, Note_on_c, 1, 79, 86
1, 75095, Note_on_c, 0, 77, 0
1, 75096, Note_on_c, 0, 71, 86
1, 75111, Note_on_c, 1, 79, 0
1, 75119, Note_on_c, 0, 71, 0
1, 75120, Note_on_c, 0, 69, 86
1, 75143, Note_on_c, 0, 69, 0
1, 75144, Note_on_c, 0, 71, 86
1, 75167, Note_on_c, 0, 71, 0
1, 75168, Note_on_c, 0, 76, 86
1, 75168, Note_on_c, 1, 60, 97
1, 75168, Note_on_c, 1, 48, 97
1, 75191, Note_on_c, 0, 76, 0
1, 75192, Note_on_c, 0, 70, 86
1, 75215, Note_on_c, 0, 70, 0
1, 75216, Note_on_c, 0, 69, 86
1, 75239, Note_on_c, 0, 69, 0
1, 75240, Note_on_c, 0, 70, 86
1, 75257, Note_on_c, 1, 60, 0
1, 75257, Note_on_c, 1, 48, 0
1, 75263, Note_on_c, 0, 70, 0
1, 75264, Note_on_c, 0, 76, 86
1, 75264, Note_on_c, 1, 85, 102
1, 75287, Note_on_c, 0, 76, 0
1, 75288, Note_on_c, 0, 70, 86
1, 75311, Note_on_c, 0, 70, 0
1, 75312, Note_on_c, 0, 69, 86
1, 75335, Note_on_c, 0, 69, 0
1, 75336, Note_on_c, 0, 70, 86
1, 75359, Note_on_c, 0, 70, 0
1, 75360, Note_on_c, 0, 76, 86
1, 75360, Note_on_c, 1, 85, 0
1, 75360, Note_on_c, 1, 79, 86
1, 75383, Note_on_c, 0, 76, 0
1, 75384, Note_on_c, 0, 70, 86
1, 75399, Note_on_c, 1, 79, 0
1, 75407, Note_on_c, 0, 70, 0
1, 75408, Note_on_c, 0, 69, 86
1, 75431, Note_on_c, 0, 69, 0
1, 75432, Note_on_c, 0, 70, 86
1, 75455, Note_on_c, 0, 70, 0
1, 75456, Note_on_c, 0, 75, 86
1, 75456, Note_on_c, 1, 65, 97
1, 75456, Note_on_c, 1, 53, 97
1, 75479, Note_on_c, 0, 75, 0
1, 75480, Note_on_c, 0, 69, 86
1, 75503, Note_on_c, 0, 69, 0
1, 75504, Note_on_c, 0, 67, 86
1, 75527, Note_on_c, 0, 67, 0
1, 75528, Note_on_c, 0, 69, 86
1, 75545, Note_on_c, 1, 65, 0
1, 75545, Note_on_c, 1, 53, 0
1, 75551, Note_on_c, 0, 69, 0
1, 75552, Note_on_c, 0, 75, 86
1, 75552, Note_on_c, 1, 84, 102
1, 75575, Note_on_c, 0, 75, 0
1, 75576, Note_on_c, 0, 69, 86
1, 75599, Note_on_c, 0, 69, 0
1, 75600, Note_on_c, 0, 67, 86
1, 75623, Note_on_c, 0, 67, 0
1, 75624, Note_on_c, 0, 69, 86
1, 75647, Note_on_c, 0, 69, 0
1, 75648, Note_on_c, 0, 75, 86
1, 75648, Note_on_c, 1, 84, 0
1, 75648, Note_on_c, 1, 77, 86
1, 75671, Note_on_c, 0, 75, 0
1, 75672, Note_on_c, 0, 69, 86
1, 75687, Note_on_c, 1, 77, 0
1, 75695, Note_on_c, 0, 69, 0
1, 75696, Note_on_c, 0, 67, 86
1, 75719, Note_on_c, 0, 67, 0
1, 75720, Note_on_c, 0, 75, 86
1, 75743, Note_on_c, 0, 75, 0
1, 75744, Note_on_c, 0, 74, 86
1, 75744, Note_on_c, 1, 58, 97
1, 75744, Note_on_c, 1, 46, 97
1, 75767, Note_on_c, 0, 74, 0
1, 75768, Note_on_c, 0, 68, 86
1, 75791, Note_on_c, 0, 68, 0
1, 75792, Note_on_c, 0, 67, 86
1, 75815, Note_on_c, 0, 67, 0
1, 75816, Note_on_c, 0, 68, 86
1, 75833, Note_on_c, 1, 58, 0
1, 75833, Note_on_c, 1, 46, 0
1, 75839, Note_on_c, 0, 68, 0
1, 75840, Note_on_c, 0, 74, 86
1, 75840, Note_on_c, 1, 89, 102
1, 75863, Note_on_c, 0, 74, 0
1, 75864, Note_on_c, 0, 68, 86
1, 75887, Note_on_c, 0, 68, 0
1, 75888, Note_on_c, 0, 67, 86
1, 75911, Note_on_c, 0, 67, 0
1, 75912, Note_on_c, 0, 68, 86
1, 75935, Note_on_c, 0, 68, 0
1, 75936, Note_on_c, 0, 74, 86
1, 75936, Note_on_c, 1, 89, 0
1, 75936, Note_on_c, 1, 82, 86
1, 75959, Note_on_c, 0, 74, 0
1, 75960, Note_on_c, 0, 68, 86
1, 75975, Note_on_c, 1, 82, 0
1, 75983, Note_on_c, 0, 68, 0
1, 75984, Note_on_c, 0, 67, 86
1, 76007, Note_on_c, 0, 67, 0
1, 76008, Note_on_c, 0, 68, 86
1, 76031, Note_on_c, 0, 68, 0
1, 76032, Note_on_c, 0, 74, 86
1, 76032, Note_on_c, 1, 63, 97
1, 76032, Note_on_c, 1, 51, 97
1, 76055, Note_on_c, 0, 74, 0
1, 76056, Note_on_c, 0, 67, 86
1, 76079, Note_on_c, 0, 67, 0
1, 76080, Note_on_c, 0, 66, 86
1, 76103, Note_on_c, 0, 66, 0
1, 76104, Note_on_c, 0, 67, 86
1, 76121, Note_on_c, 1, 63, 0
1, 76121, Note_on_c, 1, 51, 0
1, 76127, Note_on_c, 0, 67, 0
1, 76128, Note_on_c, 0, 74, 86
1, 76128, Note_on_c, 1, 82, 102
1, 76151, Note_on_c, 0, 74, 0
1, 76152, Note_on_c, 0, 67, 86
1, 76175, Note_on_c, 0, 67, 0
1, 76176, Note_on_c, 0, 66, 86
1, 76199, Note_on_c, 0, 66, 0
1, 76200, Note_on_c, 0, 67, 86
1, 76223, Note_on_c, 0, 67, 0
1, 76224, Note_on_c, 0, 74, 86
1, 76224, Note_on_c, 1, 82, 0
1, 76224, Note_on_c, 1, 75, 86
1, 76247, Note_on_c, 0, 74, 0
1, 76248, Note_on_c, 0, 67, 86
1, 76263, Note_on_c, 1, 75, 0
1, 76271, Note_on_c, 0, 67, 0
1, 76272, Note_on_c, 0, 66, 86
1, 76295, Note_on_c, 0, 66, 0
1, 76296, Note_on_c, 0, 67, 86
1, 76319, Note_on_c, 0, 67, 0
1, 76320, Note_on_c, 0, 72, 86
1, 76320, Note_on_c, 1, 56, 86
1, 76320, Note_on_c, 1, 44, 86
1, 76343, Note_on_c, 0, 72, 0
1, 76344, Note_on_c, 0, 67, 86
1, 76367, Note_on_c, 0, 67, 0
1, 76368, Note_on_c, 0, 66, 86
1, 76391, Note_on_c, 0, 66, 0
1, 76392, Note_on_c, 0, 67, 86
1, 76409, Note_on_c, 1, 56, 0
1, 76409, Note_on_c, 1, 44, 0
1, 76415, Note_on_c, 0, 67, 0
1, 76416, Note_on_c, 0, 72, 86
1, 76416, Note_on_c, 1, 87, 102
1, 76439, Note_on_c, 0, 72, 0
1, 76440, Note_on_c, 0, 67, 86
1, 76463, Note_on_c, 0, 67, 0
1, 76464, Note_on_c, 0, 66, 86
1, 76487, Note_on_c, 0, 66, 0
1, 76488, Note_on_c, 0, 67, 86
1, 76511, Note_on_c, 0, 67, 0
1, 76512, Note_on_c, 0, 72, 86
1, 76512, Note_on_c, 1, 87, 0
1, 76512, Note_on_c, 1, 80, 86
1, 76535, Note_on_c, 0, 72, 0
1, 76536, Note_on_c, 0, 67, 86
1, 76551, Note_on_c, 1, 80, 0
1, 76559, Note_on_c, 0, 67, 0
1, 76560, Note_on_c, 0, 66, 86
1, 76583, Note_on_c, 0, 66, 0
1, 76584, Note_on_c, 0, 67, 86
1, 76607, Note_on_c, 0, 67, 0
1, 76608, Note_on_c, 0, 72, 86
1, 76608, Note_on_c, 1, 62, 97
1, 76608, Note_on_c, 1, 50, 97
1, 76631, Note_on_c, 0, 72, 0
1, 76632, Note_on_c, 0, 65, 86
1, 76655, Note_on_c, 0, 65, 0
1, 76656, Note_on_c, 0, 64, 86
1, 76679, Note_on_c, 0, 64, 0
1, 76680, Note_on_c, 0, 65, 86
1, 76697, Note_on_c, 1, 62, 0
1, 76697, Note_on_c, 1, 50, 0
1, 76703, Note_on_c, 0, 65, 0
1, 76704, Note_on_c, 0, 72, 86
1, 76704, Note_on_c, 1, 80, 102
1, 76727, Note_on_c, 0, 72, 0
1, 76728, Note_on_c, 0, 65, 86
1, 76751, Note_on_c, 0, 65, 0
1, 76752, Note_on_c, 0, 64, 86
1, 76775, Note_on_c, 0, 64, 0
1, 76776, Note_on_c, 0, 65, 86
1, 76799, Note_on_c, 0, 65, 0
1, 76800, Note_on_c, 0, 72, 86
1, 76800, Note_on_c, 1, 80, 0
1, 76800, Note_on_c, 1, 74, 86
1, 76823, Note_on_c, 0, 72, 0
1, 76824, Note_on_c, 0, 65, 86
1, 76839, Note_on_c, 1, 74, 0
1, 76847, Note_on_c, 0, 65, 0
1, 76848, Note_on_c, 0, 64, 86
1, 76871, Note_on_c, 0, 64, 0
1, 76872, Note_on_c, 0, 65, 86
1, 76895, Note_on_c, 0, 65, 0
1, 76896, Note_on_c, 0, 71, 86
1, 76896, Note_on_c, 1, 55, 97
1, 76896, Note_on_c, 1, 43, 97
1, 76919, Note_on_c, 0, 71, 0
1, 76920, Note_on_c, 0, 65, 86
1, 76943, Note_on_c, 0, 65, 0
1, 76944, Note_on_c, 0, 64, 86
1, 76967, Note_on_c, 0, 64, 0
1, 76968, Note_on_c, 0, 65, 86
1, 76985, Note_on_c, 1, 55, 0
1, 76985, Note_on_c, 1, 43, 0
1, 76991, Note_on_c, 0, 65, 0
1, 76992, Note_on_c, 0, 71, 86
1, 76992, Note_on_c, 1, 86, 102
1, 77015, Note_on_c, 0, 71, 0
1, 77016, Note_on_c, 0, 65, 86
1, 77039, Note_on_c, 0, 65, 0
1, 77040, Note_on_c, 0, 64, 86
1, 77063, Note_on_c, 0, 64, 0
1, 77064, Note_on_c, 0, 65, 86
1, 77087, Note_on_c, 0, 65, 0
1, 77088, Note_on_c, 0, 71, 86
1, 77088, Note_on_c, 1, 86, 0
1, 77088, Note_on_c, 1, 79, 86
1, 77111, Note_on_c, 0, 71, 0
1, 77112, Note_on_c, 0, 65, 86
1, 77127, Note_on_c, 1, 79, 0
1, 77135, Note_on_c, 0, 65, 0
1, 77136, Note_on_c, 0, 64, 86
1, 77159, Note_on_c, 0, 64, 0
1, 77160, Note_on_c, 0, 65, 86
1, 77183, Note_on_c, 0, 65, 0
1, 77184, Note_on_c, 0, 72, 86
1, 77184, Note_on_c, 1, 55, 97
1, 77184, Note_on_c, 1, 43, 97
1, 77207, Note_on_c, 0, 72, 0
1, 77208, Note_on_c, 0, 63, 86
1, 77231, Note_on_c, 0, 63, 0
1, 77232, Note_on_c, 0, 62, 86
1, 77255, Note_on_c, 0, 62, 0
1, 77256, Note_on_c, 0, 63, 86
1, 77273, Note_on_c, 1, 55, 0
1, 77273, Note_on_c, 1, 43, 0
1, 77279, Note_on_c, 0, 63, 0
1, 77280, Note_on_c, 0, 72, 86
1, 77280, Note_on_c, 1, 79, 102
1, 77303, Note_on_c, 0, 72, 0
1, 77304, Note_on_c, 0, 63, 86
1, 77327, Note_on_c, 0, 63, 0
1, 77328, Note_on_c, 0, 62, 86
1, 77351, Note_on_c, 0, 62, 0
1, 77352, Note_on_c, 0, 63, 86
1, 77375, Note_on_c, 0, 63, 0
1, 77376, Note_on_c, 0, 72, 86
1, 77376, Note_on_c, 1, 79, 0
1, 77376, Note_on_c, 1, 75, 86
1, 77399, Note_on_c, 0, 72, 0
1, 77400, Note_on_c, 0, 63, 86
1, 77415, Note_on_c, 1, 75, 0
1, 77423, Note_on_c, 0, 63, 0
1, 77424, Note_on_c, 0, 62, 86
1, 77447, Note_on_c, 0, 62, 0
1, 77448, Note_on_c, 0, 63, 86
1, 77471, Note_on_c, 0, 63, 0
1, 77472, Note_on_c, 0, 72, 86
1, 77472, Note_on_c, 1, 56, 97
1, 77472, Note_on_c, 1, 44, 97
1, 77495, Note_on_c, 0, 72, 0
1, 77496, Note_on_c, 0, 66, 86
1, 77519, Note_on_c, 0, 66, 0
1, 77520, Note_on_c, 0, 60, 86
1, 77543, Note_on_c, 0, 60, 0
1, 77544, Note_on_c, 0, 66, 86
1, 77561, Note_on_c, 1, 56, 0
1, 77561, Note_on_c, 1, 44, 0
1, 77567, Note_on_c, 0, 66, 0
1, 77568, Note_on_c, 0, 72, 86
1, 77568, Note_on_c, 1, 84, 102
1, 77591, Note_on_c, 0, 72, 0
1, 77592, Note_on_c, 0, 66, 86
1, 77615, Note_on_c, 0, 66, 0
1, 77616, Note_on_c, 0, 60, 86
1, 77639, Note_on_c, 0, 60, 0
1, 77640, Note_on_c, 0, 66, 86
1, 77663, Note_on_c, 0, 66, 0
1, 77664, Note_on_c, 0, 72, 86
1, 77664, Note_on_c, 1, 84, 0
1, 77664, Note_on_c, 1, 87, 86
1, 77687, Note_on_c, 0, 72, 0
1, 77688, Note_on_c, 0, 66, 86
1, 77711, Note_on_c, 0, 66, 0
1, 77712, Note_on_c, 0, 60, 86
1, 77735, Note_on_c, 0, 60, 0
1, 77736, Note_on_c, 0, 66, 86
1, 77753, Note_on_c, 1, 87, 0
1, 77759, Note_on_c, 0, 66, 0
1, 77760, Note_on_c, 0, 72, 86
1, 77760, Note_on_c, 1, 87, 102
1, 77783, Note_on_c, 0, 72, 0
1, 77784, Note_on_c, 0, 66, 86
1, 77807, Note_on_c, 0, 66, 0
1, 77808, Note_on_c, 0, 60, 86
1, 77831, Note_on_c, 0, 60, 0
1, 77832, Note_on_c, 0, 66, 86
1, 77855, Note_on_c, 0, 66, 0
1, 77856, Note_on_c, 0, 72, 86
1, 77856, Note_on_c, 1, 87, 0
1, 77856, Note_on_c, 1, 86, 86
1, 77879, Note_on_c, 0, 72, 0
1, 77880, Note_on_c, 0, 66, 86
1, 77903, Note_on_c, 0, 66, 0
1, 77904, Note_on_c, 0, 60, 86
1, 77927, Note_on_c, 0, 60, 0
1, 77928, Note_on_c, 0, 66, 86
1, 77945, Note_on_c, 1, 86, 0
1, 77951, Note_on_c, 0, 66, 0
1, 77952, Note_on_c, 0, 72, 86
1, 77952, Note_on_c, 1, 84, 86
1, 77975, Note_on_c, 0, 72, 0
1, 77976, Note_on_c, 0, 66, 86
1, 77999, Note_on_c, 0, 66, 0
1, 78000, Note_on_c, 0, 60, 86
1, 78023, Note_on_c, 0, 60, 0
1, 78024, Note_on_c, 0, 66, 86
1, 78041, Note_on_c, 1, 84, 0
1, 78047, Note_on_c, 0, 66, 0
1, 78048, Note_on_c, 0, 67, 86
1, 78048, Note_on_c, 1, 83, 86
1, 78071, Note_on_c, 0, 67, 0
1, 78072, Note_on_c, 0, 71, 86
1, 78095, Note_on_c, 0, 71, 0
1, 78096, Note_on_c, 0, 67, 86
1, 78119, Note_on_c, 0, 67, 0
1, 78120, Note_on_c, 0, 62, 86
1, 78137, Note_on_c, 1, 83, 0
1, 78143, Note_on_c, 0, 62, 0
1, 78144, Note_on_c, 0, 59, 86
1, 78167, Note_on_c, 0, 59, 0
1, 78168, Note_on_c, 1, 55, 86
1, 78191, Note_on_c, 1, 55, 0
1, 78192, Note_on_c, 1, 50, 86
1, 78215, Note_on_c, 1, 50, 0
1, 78216, Note_on_c, 1, 47, 86
1, 78239, Note_on_c, 1, 47, 0
1, 78240, Note_on_c, 1, 43, 86
1, 78329, Note_on_c, 1, 43, 0
1, 78528, Note_on_c, 0, 60, 87
1, 78624, Note_on_c, 0, 60, 0
1, 78624, Note_on_c, 0, 65, 71
1, 78624, Note_on_c, 1, 51, 71
1, 78624, Note_on_c, 1, 48, 71
1, 78647, Note_on_c, 0, 65, 0
1, 78648, Note_on_c, 0, 63, 71
1, 78663, Note_on_c, 1, 51, 0
1, 78663, Note_on_c, 1, 48, 0
1, 78671, Note_on_c, 0, 63, 0
1, 78672, Note_on_c, 0, 62, 71
1, 78695, Note_on_c, 0, 62, 0
1, 78696, Note_on_c, 0, 60, 71
1, 78719, Note_on_c, 0, 60, 0
1, 78720, Note_on_c, 0, 59, 71
1, 78720, Note_on_c, 1, 53, 71
1, 78720, Note_on_c, 1, 50, 71
1, 78759, Note_on_c, 0, 59, 0
1, 78759, Note_on_c, 1, 53, 0
1, 78759, Note_on_c, 1, 50, 0
1, 78816, Note_on_c, 0, 62, 71
1, 78905, Note_on_c, 0, 62, 0
1, 78912, Note_on_c, 0, 67, 71
1, 78912, Note_on_c, 1, 53, 71
1, 78912, Note_on_c, 1, 50, 71
1, 78935, Note_on_c, 0, 67, 0
1, 78936, Note_on_c, 0, 65, 71
1, 78951, Note_on_c, 1, 53, 0
1, 78951, Note_on_c, 1, 50, 0
1, 78959, Note_on_c, 0, 65, 0
1, 78960, Note_on_c, 0, 63, 71
1, 78983, Note_on_c, 0, 63, 0
1, 78984, Note_on_c, 0, 62, 71
1, 79007, Note_on_c, 0, 62, 0
1, 79008, Note_on_c, 0, 60, 71
1, 79008, Note_on_c, 1, 55, 71
1, 79008, Note_on_c, 1, 51, 71
1, 79047, Note_on_c, 0, 60, 0
1, 79047, Note_on_c, 1, 55, 0
1, 79047, Note_on_c, 1, 51, 0
1, 79104, Note_on_c, 0, 72, 71
1, 79127, Note_on_c, 0, 72, 0
1, 79128, Note_on_c, 0, 73, 71
1, 79151, Note_on_c, 0, 73, 0
1, 79152, Note_on_c, 0, 74, 71
1, 79175, Note_on_c, 0, 74, 0
1, 79176, Note_on_c, 0, 75, 71
1, 79199, Note_on_c, 0, 75, 0
1, 79200, Note_on_c, 0, 72, 71
1, 79296, Note_on_c, 0, 72, 0
1, 79296, Note_on_c, 0, 71, 71
1, 79296, Note_on_c, 1, 65, 71
1, 79296, Note_on_c, 1, 62, 71
1, 79385, Note_on_c, 0, 71, 0
1, 79385, Note_on_c, 1, 65, 0
1, 79385, Note_on_c, 1, 62, 0
1, 79392, Note_on_c, 0, 74, 71
1, 79415, Note_on_c, 0, 74, 0
1, 79416, Note_on_c, 0, 75, 71
1, 79439, Note_on_c, 0, 75, 0
1, 79440, Note_on_c, 0, 76, 71
1, 79463, Note_on_c, 0, 76, 0
1, 79464, Note_on_c, 0, 77, 71
1, 79487, Note_on_c, 0, 77, 0
1, 79488, Note_on_c, 0, 74, 71
1, 79584, Note_on_c, 0, 74, 0
1, 79584, Note_on_c, 0, 72, 71
1, 79584, Note_on_c, 1, 67, 71
1, 79584, Note_on_c, 1, 63, 71
1, 79673, Note_on_c, 0, 72, 0
1, 79673, Note_on_c, 1, 67, 0
1, 79673, Note_on_c, 1, 63, 0
1, 79680, Note_on_c, 0, 79, 71
1, 79680, Note_on_c, 1, 67, 71
1, 79680, Note_on_c, 1, 63, 71
1, 79725, Note_on_c, 0, 79, 0
1, 79728, Note_on_c, 0, 84, 71
1, 79769, Note_on_c, 1, 67, 0
1, 79769, Note_on_c, 1, 63, 0
1, 79776, Note_on_c, 1, 65, 71
1, 79776, Note_on_c, 1, 62, 71
1, 79821, Note_on_c, 0, 84, 0
1, 79824, Note_on_c, 0, 82, 71
1, 79865, Note_on_c, 1, 65, 0
1, 79865, Note_on_c, 1, 62, 0
1, 79872, Note_on_c, 1, 63, 71
1, 79872, Note_on_c, 1, 60, 71
1, 79913, Note_on_c, 0, 82, 0
1, 79920, Note_on_c, 0, 80, 71
1, 79961, Note_on_c, 1, 63, 0
1, 79961, Note_on_c, 1, 60, 0
1, 79968, Note_on_c, 1, 62, 71
1, 79968, Note_on_c, 1, 58, 71
1, 80009, Note_on_c, 0, 80, 0
1, 80016, Note_on_c, 0, 79, 71
1, 80057, Note_on_c, 1, 62, 0
1, 80057, Note_on_c, 1, 58, 0
1, 80064, Note_on_c, 1, 60, 71
1, 80064, Note_on_c, 1, 56, 71
1, 80109, Note_on_c, 0, 79, 0
1, 80112, Note_on_c, 0, 77, 71
1, 80153, Note_on_c, 1, 60, 0
1, 80153, Note_on_c, 1, 56, 0
1, 80160, Note_on_c, 1, 58, 71
1, 80160, Note_on_c, 1, 55, 71
1, 80201, Note_on_c, 0, 77, 0
1, 80208, Note_on_c, 0, 75, 72
1, 80249, Note_on_c, 1, 58, 0
1, 80249, Note_on_c, 1, 55, 0
1, 80256, Note_on_c, 1, 56, 72
1, 80256, Note_on_c, 1, 53, 72
1, 80297, Note_on_c, 0, 75, 0
1, 80304, Note_on_c, 0, 74, 73
1, 80345, Note_on_c, 1, 56, 0
1, 80345, Note_on_c, 1, 53, 0
1, 80352, Note_on_c, 1, 55, 73
1, 80352, Note_on_c, 1, 51, 73
1, 80397, Note_on_c, 0, 74, 0
1, 80400, Note_on_c, 0, 72, 74
1, 80441, Note_on_c, 1, 55, 0
1, 80441, Note_on_c, 1, 51, 0
1, 80448, Note_on_c, 1, 53, 74
1, 80448, Note_on_c, 1, 50, 74
1, 80489, Note_on_c, 0, 72, 0
1, 80496, Note_on_c, 0, 71, 75
1, 80537, Note_on_c, 1, 53, 0
1, 80537, Note_on_c, 1, 50, 0
1, 80544, Note_on_c, 1, 51, 75
1, 80544, Note_on_c, 1, 48, 75
1, 80585, Note_on_c, 0, 71, 0
1, 80592, Note_on_c, 0, 68, 76
1, 80633, Note_on_c, 1, 51, 0
1, 80633, Note_on_c, 1, 48, 0
1, 80640, Note_on_c, 1, 50, 76
1, 80640, Note_on_c, 1, 47, 76
1, 80685, Note_on_c, 0, 68, 0
1, 80688, Note_on_c, 0, 67, 77
1, 80729, Note_on_c, 1, 50, 0
1, 80729, Note_on_c, 1, 47, 0
1, 80736, Note_on_c, 1, 62, 77
1, 80736, Note_on_c, 1, 59, 77
1, 80777, Note_on_c, 0, 67, 0
1, 80784, Note_on_c, 0, 65, 78
1, 80825, Note_on_c, 1, 62, 0
1, 80825, Note_on_c, 1, 59, 0
1, 80829, Note_on_c, 0, 65, 0
1, 80832, Note_on_c, 0, 63, 78
1, 80877, Note_on_c, 0, 63, 0
1, 80880, Note_on_c, 0, 62, 78
1, 80925, Note_on_c, 0, 62, 0
1, 80928, Note_on_c, 0, 60, 78
1, 80928, Note_on_c, 1, 56, 78
1, 80951, Note_on_c, 0, 60, 0
1, 80952, Note_on_c, 0, 59, 78
1, 80967, Note_on_c, 1, 56, 0
1, 80975, Note_on_c, 0, 59, 0
1, 80976, Note_on_c, 0, 60, 78
1, 80999, Note_on_c, 0, 60, 0
1, 81000, Note_on_c, 0, 65, 78
1, 81023, Note_on_c, 0, 65, 0
1, 81024, Note_on_c, 0, 60, 78
1, 81024, Note_on_c, 1, 55, 78
1, 81047, Note_on_c, 0, 60, 0
1, 81048, Note_on_c, 0, 59, 78
1, 81063, Note_on_c, 1, 55, 0
1, 81071, Note_on_c, 0, 59, 0
1, 81072, Note_on_c, 0, 60, 78
1, 81095, Note_on_c, 0, 60, 0
1, 81096, Note_on_c, 0, 63, 78
1, 81119, Note_on_c, 0, 63, 0
1, 81120, Note_on_c, 0, 60, 78
1, 81120, Note_on_c, 1, 53, 78
1, 81143, Note_on_c, 0, 60, 0
1, 81144, Note_on_c, 0, 59, 78
1, 81159, Note_on_c, 1, 53, 0
1, 81167, Note_on_c, 0, 59, 0
1, 81168, Note_on_c, 0, 60, 78
1, 81191, Note_on_c, 0, 60, 0
1, 81192, Note_on_c, 0, 68, 78
1, 81215, Note_on_c, 0, 68, 0
1, 81216, Note_on_c, 0, 60, 78
1, 81216, Note_on_c, 1, 51, 78
1, 81239, Note_on_c, 0, 60, 0
1, 81240, Note_on_c, 0, 59, 78
1, 81255, Note_on_c, 1, 51, 0
1, 81263, Note_on_c, 0, 59, 0
1, 81264, Note_on_c, 0, 60, 78
1, 81287, Note_on_c, 0, 60, 0
1, 81288, Note_on_c, 0, 67, 78
1, 81311, Note_on_c, 0, 67, 0
1, 81312, Note_on_c, 0, 60, 78
1, 81312, Note_on_c, 1, 50, 78
1, 81335, Note_on_c, 0, 60, 0
1, 81336, Note_on_c, 0, 59, 78
1, 81351, Note_on_c, 1, 50, 0
1, 81359, Note_on_c, 0, 59, 0
1, 81360, Note_on_c, 0, 60, 78
1, 81383, Note_on_c, 0, 60, 0
1, 81384, Note_on_c, 0, 65, 78
1, 81407, Note_on_c, 0, 65, 0
1, 81408, Note_on_c, 0, 60, 78
1, 81408, Note_on_c, 1, 48, 78
1, 81431, Note_on_c, 0, 60, 0
1, 81432, Note_on_c, 0, 59, 78
1, 81447, Note_on_c, 1, 48, 0
1, 81455, Note_on_c, 0, 59, 0
1, 81456, Note_on_c, 0, 60, 78
1, 81479, Note_on_c, 0, 60, 0
1, 81480, Note_on_c, 0, 63, 78
1, 81503, Note_on_c, 0, 63, 0
1, 81504, Note_on_c, 0, 60, 78
1, 81504, Note_on_c, 1, 68, 78
1, 81527, Note_on_c, 0, 60, 0
1, 81528, Note_on_c, 0, 59, 78
1, 81551, Note_on_c, 0, 59, 0
1, 81552, Note_on_c, 0, 60, 78
1, 81575, Note_on_c, 0, 60, 0
1, 81576, Note_on_c, 0, 65, 78
1, 81593, Note_on_c, 1, 68, 0
1, 81599, Note_on_c, 0, 65, 0
1, 81600, Note_on_c, 0, 60, 78
1, 81600, Note_on_c, 1, 67, 78
1, 81623, Note_on_c, 0, 60, 0
1, 81624, Note_on_c, 0, 59, 78
1, 81647, Note_on_c, 0, 59, 0
1, 81648, Note_on_c, 0, 60, 78
1, 81671, Note_on_c, 0, 60, 0
1, 81672, Note_on_c, 0, 63, 78
1, 81689, Note_on_c, 1, 67, 0
1, 81695, Note_on_c, 0, 63, 0
1, 81696, Note_on_c, 0, 60, 78
1, 81696, Note_on_c, 1, 72, 78
1, 81719, Note_on_c, 0, 60, 0
1, 81720, Note_on_c, 0, 59, 78
1, 81743, Note_on_c, 0, 59, 0
1, 81744, Note_on_c, 0, 60, 78
1, 81767, Note_on_c, 0, 60, 0
1, 81768, Note_on_c, 0, 68, 78
1, 81785, Note_on_c, 1, 72, 0
1, 81791, Note_on_c, 0, 68, 0
1, 81792, Note_on_c, 0, 60, 78
1, 81792, Note_on_c, 1, 70, 78
1, 81815, Note_on_c, 0, 60, 0
1, 81816, Note_on_c, 0, 59, 78
1, 81839, Note_on_c, 0, 59, 0
1, 81840, Note_on_c, 0, 60, 79
1, 81863, Note_on_c, 0, 60, 0
1, 81864, Note_on_c, 0, 67, 80
1, 81881, Note_on_c, 1, 70, 0
1, 81887, Note_on_c, 0, 67, 0
1, 81888, Note_on_c, 0, 60, 80
1, 81888, Note_on_c, 1, 68, 80
1, 81911, Note_on_c, 0, 60, 0
1, 81912, Note_on_c, 0, 59, 81
1, 81935, Note_on_c, 0, 59, 0
1, 81936, Note_on_c, 0, 60, 82
1, 81959, Note_on_c, 0, 60, 0
1, 81960, Note_on_c, 0, 65, 82
1, 81977, Note_on_c, 1, 68, 0
1, 81983, Note_on_c, 0, 65, 0
1, 81984, Note_on_c, 0, 60, 83
1, 81984, Note_on_c, 1, 67, 83
1, 82007, Note_on_c, 0, 60, 0
1, 82008, Note_on_c, 0, 59, 84
1, 82031, Note_on_c, 0, 59, 0
1, 82032, Note_on_c, 0, 60, 84
1, 82055, Note_on_c, 0, 60, 0
1, 82056, Note_on_c, 0, 63, 85
1, 82073, Note_on_c, 1, 67, 0
1, 82079, Note_on_c, 0, 63, 0
1, 82080, Note_on_c, 0, 60, 86
1, 82080, Note_on_c, 1, 42, 86
1, 82103, Note_on_c, 0, 60, 0
1, 82104, Note_on_c, 0, 59, 86
1, 82119, Note_on_c, 1, 42, 0
1, 82127, Note_on_c, 0, 59, 0
1, 82128, Note_on_c, 0, 60, 86
1, 82151, Note_on_c, 0, 60, 0
1, 82152, Note_on_c, 0, 63, 86
1, 82175, Note_on_c, 0, 63, 0
1, 82176, Note_on_c, 0, 60, 86
1, 82176, Note_on_c, 1, 54, 86
1, 82199, Note_on_c, 0, 60, 0
1, 82200, Note_on_c, 0, 59, 86
1, 82215, Note_on_c, 1, 54, 0
1, 82223, Note_on_c, 0, 59, 0
1, 82224, Note_on_c, 0, 60, 86
1, 82247, Note_on_c, 0, 60, 0
1, 82248, Note_on_c, 0, 63, 86
1, 82271, Note_on_c, 0, 63, 0
1, 82272, Note_on_c, 0, 60, 86
1, 82295, Note_on_c, 0, 60, 0
1, 82296, Note_on_c, 0, 59, 86
1, 82319, Note_on_c, 0, 59, 0
1, 82320, Note_on_c, 0, 60, 86
1, 82343, Note_on_c, 0, 60, 0
1, 82344, Note_on_c, 0, 63, 86
1, 82367, Note_on_c, 0, 63, 0
1, 82368, Note_on_c, 0, 59, 86
1, 82368, Note_on_c, 1, 41, 86
1, 82391, Note_on_c, 0, 59, 0
1, 82392, Note_on_c, 0, 62, 87
1, 82407, Note_on_c, 1, 41, 0
1, 82415, Note_on_c, 0, 62, 0
1, 82416, Note_on_c, 0, 65, 89
1, 82439, Note_on_c, 0, 65, 0
1, 82440, Note_on_c, 0, 68, 91
1, 82463, Note_on_c, 0, 68, 0
1, 82464, Note_on_c, 0, 67, 93
1, 82464, Note_on_c, 1, 53, 86
1, 82487, Note_on_c, 0, 67, 0
1, 82488, Note_on_c, 0, 65, 92
1, 82503, Note_on_c, 1, 53, 0
1, 82511, Note_on_c, 0, 65, 0
1, 82512, Note_on_c, 0, 63, 91
1, 82535, Note_on_c, 0, 63, 0
1, 82536, Note_on_c, 0, 62, 90
1, 82559, Note_on_c, 0, 62, 0
1, 82560, Note_on_c, 0, 60, 89
1, 82583, Note_on_c, 0, 60, 0
1, 82584, Note_on_c, 0, 59, 88
1, 82607, Note_on_c, 0, 59, 0
1, 82608, Note_on_c, 0, 57, 87
1, 82631, Note_on_c, 0, 57, 0
1, 82632, Note_on_c, 0, 55, 86
1, 82655, Note_on_c, 0, 55, 0
1, 82656, Note_on_c, 1, 51, 86
1, 82704, Note_on_c, 0, 60, 93
1, 82745, Note_on_c, 1, 51, 0
1, 82749, Note_on_c, 0, 60, 0
1, 82752, Note_on_c, 0, 63, 93
1, 82797, Note_on_c, 0, 63, 0
1, 82800, Note_on_c, 0, 67, 93
1, 82845, Note_on_c, 0, 67, 0
1, 82848, Note_on_c, 0, 72, 93
1, 82893, Note_on_c, 0, 72, 0
1, 82896, Note_on_c, 0, 79, 83
1, 82896, Note_on_c, 0, 75, 93
1, 82896, Note_on_c, 1, 48, 86
1, 82941, Note_on_c, 1, 48, 0
1, 82944, Note_on_c, 1, 53, 86
1, 82989, Note_on_c, 0, 79, 0
1, 82989, Note_on_c, 0, 75, 0
1, 82992, Note_on_c, 0, 77, 84
1, 82992, Note_on_c, 0, 74, 91
1, 83033, Note_on_c, 1, 53, 0
1, 83040, Note_on_c, 1, 55, 83
1, 83081, Note_on_c, 0, 77, 0
1, 83081, Note_on_c, 0, 74, 0
1, 83088, Note_on_c, 0, 75, 82
1, 83088, Note_on_c, 0, 72, 89
1, 83129, Note_on_c, 1, 55, 0
1, 83136, Note_on_c, 1, 43, 80
1, 83177, Note_on_c, 0, 75, 0
1, 83177, Note_on_c, 0, 72, 0
1, 83184, Note_on_c, 0, 74, 79
1, 83184, Note_on_c, 0, 71, 87
1, 83225, Note_on_c, 1, 43, 0
1, 83229, Note_on_c, 0, 74, 0
1, 83229, Note_on_c, 0, 71, 0
1, 83232, Note_on_c, 0, 72, 78
1, 83232, Note_on_c, 1, 44, 78
1, 83255, Note_on_c, 0, 72, 0
1, 83256, Note_on_c, 0, 65, 78
1, 83277, Note_on_c, 1, 44, 0
1, 83279, Note_on_c, 0, 65, 0
1, 83280, Note_on_c, 0, 64, 78
1, 83280, Note_on_c, 1, 56, 78
1, 83303, Note_on_c, 0, 64, 0
1, 83304, Note_on_c, 0, 65, 78
1, 83325, Note_on_c, 1, 56, 0
1, 83327, Note_on_c, 0, 65, 0
1, 83328, Note_on_c, 0, 70, 78
1, 83328, Note_on_c, 1, 43, 78
1, 83351, Note_on_c, 0, 70, 0
1, 83352, Note_on_c, 0, 63, 78
1, 83373, Note_on_c, 1, 43, 0
1, 83375, Note_on_c, 0, 63, 0
1, 83376, Note_on_c, 0, 62, 78
1, 83376, Note_on_c, 1, 55, 78
1, 83399, Note_on_c, 0, 62, 0
1, 83400, Note_on_c, 0, 63, 78
1, 83421, Note_on_c, 1, 55, 0
1, 83423, Note_on_c, 0, 63, 0
1, 83424, Note_on_c, 0, 68, 78
1, 83424, Note_on_c, 1, 41, 78
1, 83447, Note_on_c, 0, 68, 0
1, 83448, Note_on_c, 0, 62, 78
1, 83469, Note_on_c, 1, 41, 0
1, 83471, Note_on_c, 0, 62, 0
1, 83472, Note_on_c, 0, 61, 78
1, 83472, Note_on_c, 1, 53, 78
1, 83495, Note_on_c, 0, 61, 0
1, 83496, Note_on_c, 0, 62, 78
1, 83517, Note_on_c, 1, 53, 0
1, 83519, Note_on_c, 0, 62, 0
1, 83520, Note_on_c, 0, 67, 78
1, 83520, Note_on_c, 1, 39, 78
1, 83543, Note_on_c, 0, 67, 0
1, 83544, Note_on_c, 0, 60, 78
1, 83565, Note_on_c, 1, 39, 0
1, 83567, Note_on_c, 0, 60, 0
1, 83568, Note_on_c, 0, 59, 78
1, 83568, Note_on_c, 1, 51, 78
1, 83591, Note_on_c, 0, 59, 0
1, 83592, Note_on_c, 0, 60, 78
1, 83613, Note_on_c, 1, 51, 0
1, 83615, Note_on_c, 0, 60, 0
1, 83616, Note_on_c, 0, 65, 78
1, 83616, Note_on_c, 1, 38, 78
1, 83639, Note_on_c, 0, 65, 0
1, 83640, Note_on_c, 0, 59, 78
1, 83661, Note_on_c, 1, 38, 0
1, 83663, Note_on_c, 0, 59, 0
1, 83664, Note_on_c, 0, 57, 78
1, 83664, Note_on_c, 1, 50, 78
1, 83687, Note_on_c, 0, 57, 0
1, 83688, Note_on_c, 0, 59, 78
1, 83709, Note_on_c, 1, 50, 0
1, 83711, Note_on_c, 0, 59, 0
1, 83712, Note_on_c, 0, 63, 78
1, 83712, Note_on_c, 1, 36, 78
1, 83735, Note_on_c, 0, 63, 0
1, 83736, Note_on_c, 0, 60, 78
1, 83757, Note_on_c, 1, 36, 0
1, 83759, Note_on_c, 0, 60, 0
1, 83760, Note_on_c, 0, 59, 78
1, 83760, Note_on_c, 1, 48, 78
1, 83783, Note_on_c, 0, 59, 0
1, 83784, Note_on_c, 0, 60, 78
1, 83805, Note_on_c, 1, 48, 0
1, 83807, Note_on_c, 0, 60, 0
1, 83808, Note_on_c, 1, 41, 78
1, 83856, Note_on_c, 0, 61, 78
1, 83876, Note_on_c, 0, 61, 0
1, 83897, Note_on_c, 1, 41, 0
1, 83904, Note_on_c, 0, 56, 79
1, 83924, Note_on_c, 0, 56, 0
1, 83952, Note_on_c, 0, 65, 80
1, 83972, Note_on_c, 0, 65, 0
1, 84000, Note_on_c, 0, 61, 81
1, 84020, Note_on_c, 0, 61, 0
1, 84048, Note_on_c, 0, 68, 82
1, 84068, Note_on_c, 0, 68, 0
1, 84096, Note_on_c, 0, 65, 83
1, 84116, Note_on_c, 0, 65, 0
1, 84144, Note_on_c, 0, 73, 84
1, 84164, Note_on_c, 0, 73, 0
1, 84192, Note_on_c, 0, 68, 85
1, 84212, Note_on_c, 0, 68, 0
1, 84240, Note_on_c, 0, 77, 86
1, 84260, Note_on_c, 0, 77, 0
1, 84288, Note_on_c, 0, 75, 85
1, 84308, Note_on_c, 0, 75, 0
1, 84336, Note_on_c, 0, 73, 84
1, 84356, Note_on_c, 0, 73, 0
1, 84384, Note_on_c, 0, 72, 83
1, 84404, Note_on_c, 0, 72, 0
1, 84432, Note_on_c, 0, 73, 82
1, 84452, Note_on_c, 0, 73, 0
1, 84480, Note_on_c, 0, 68, 81
1, 84500, Note_on_c, 0, 68, 0
1, 84528, Note_on_c, 0, 66, 80
1, 84548, Note_on_c, 0, 66, 0
1, 84576, Note_on_c, 0, 65, 79
1, 84596, Note_on_c, 0, 65, 0
1, 84624, Note_on_c, 0, 63, 78
1, 84644, Note_on_c, 0, 63, 0
1, 84672, Note_on_c, 0, 61, 78
1, 84717, Note_on_c, 0, 61, 0
1, 84720, Note_on_c, 0, 60, 80
1, 84765, Note_on_c, 0, 60, 0
1, 84768, Note_on_c, 0, 61, 82
1, 84813, Note_on_c, 0, 61, 0
1, 84816, Note_on_c, 0, 65, 84
1, 84861, Note_on_c, 0, 65, 0
1, 84864, Note_on_c, 0, 63, 86
1, 84909, Note_on_c, 0, 63, 0
1, 84912, Note_on_c, 0, 61, 85
1, 84957, Note_on_c, 0, 61, 0
1, 84960, Note_on_c, 0, 60, 84
1, 85008, Note_on_c, 1, 56, 78
1, 85008, Note_on_c, 1, 53, 78
1, 85055, Note_on_c, 1, 56, 0
1, 85055, Note_on_c, 1, 53, 0
1, 85056, Note_on_c, 1, 56, 78
1, 85056, Note_on_c, 1, 53, 78
1, 85103, Note_on_c, 1, 56, 0
1, 85103, Note_on_c, 1, 53, 0
1, 85104, Note_on_c, 1, 56, 78
1, 85104, Note_on_c, 1, 53, 78
1, 85151, Note_on_c, 1, 56, 0
1, 85151, Note_on_c, 1, 53, 0
1, 85152, Note_on_c, 0, 60, 0
1, 85152, Note_on_c, 0, 59, 80
1, 85152, Note_on_c, 1, 56, 78
1, 85152, Note_on_c, 1, 53, 78
1, 85199, Note_on_c, 1, 56, 0
1, 85199, Note_on_c, 1, 53, 0
1, 85200, Note_on_c, 1, 56, 78
1, 85200, Note_on_c, 1, 53, 78
1, 85241, Note_on_c, 0, 59, 0
1, 85247, Note_on_c, 1, 56, 0
1, 85247, Note_on_c, 1, 53, 0
1, 85248, Note_on_c, 0, 63, 78
1, 85248, Note_on_c, 0, 60, 86
1, 85296, Note_on_c, 1, 42, 78
1, 85341, Note_on_c, 1, 42, 0
1, 85344, Note_on_c, 1, 43, 78
1, 85389, Note_on_c, 1, 43, 0
1, 85392, Note_on_c, 1, 42, 78
1, 85437, Note_on_c, 1, 42, 0
1, 85440, Note_on_c, 1, 43, 78
1, 85485, Note_on_c, 1, 43, 0
1, 85488, Note_on_c, 1, 42, 78
1, 85533, Note_on_c, 1, 42, 0
1, 85536, Note_on_c, 1, 43, 78
1, 85581, Note_on_c, 0, 63, 0
1, 85581, Note_on_c, 0, 60, 0
1, 85584, Note_on_c, 0, 67, 78
1, 85584, Note_on_c, 0, 63, 86
1, 85629, Note_on_c, 0, 67, 0
1, 85629, Note_on_c, 0, 63, 0
1, 85632, Note_on_c, 0, 67, 78
1, 85632, Note_on_c, 0, 63, 86
1, 85677, Note_on_c, 0, 67, 0
1, 85677, Note_on_c, 0, 63, 0
1, 85680, Note_on_c, 0, 65, 78
1, 85680, Note_on_c, 0, 62, 86
1, 85725, Note_on_c, 0, 65, 0
1, 85725, Note_on_c, 0, 62, 0
1, 85728, Note_on_c, 0, 63, 78
1, 85728, Note_on_c, 0, 60, 86
1, 85773, Note_on_c, 0, 63, 0
1, 85773, Note_on_c, 0, 60, 0
1, 85776, Note_on_c, 0, 62, 78
1, 85776, Note_on_c, 0, 59, 86
1, 85801, Note_on_c, 1, 43, 0
1, 85821, Note_on_c, 0, 62, 0
1, 85821, Note_on_c, 0, 59, 0
1, 85824, Note_on_c, 0, 60, 78
1, 85824, Note_on_c, 1, 48, 71
1, 85872, Note_on_c, 0, 55, 86
1, 85872, Note_on_c, 1, 51, 78
1, 85917, Note_on_c, 0, 55, 0
1, 85917, Note_on_c, 1, 51, 0
1, 85920, Note_on_c, 0, 56, 86
1, 85920, Note_on_c, 1, 53, 78
1, 85965, Note_on_c, 0, 56, 0
1, 85965, Note_on_c, 1, 53, 0
1, 85968, Note_on_c, 0, 55, 87
1, 85968, Note_on_c, 1, 51, 79
1, 86013, Note_on_c, 0, 55, 0
1, 86013, Note_on_c, 1, 51, 0
1, 86016, Note_on_c, 0, 56, 87
1, 86016, Note_on_c, 1, 53, 80
1, 86061, Note_on_c, 0, 56, 0
1, 86061, Note_on_c, 1, 53, 0
1, 86064, Note_on_c, 0, 55, 88
1, 86064, Note_on_c, 1, 51, 80
1, 86109, Note_on_c, 0, 55, 0
1, 86109, Note_on_c, 1, 51, 0
1, 86112, Note_on_c, 0, 56, 89
1, 86112, Note_on_c, 1, 53, 81
1, 86157, Note_on_c, 0, 56, 0
1, 86157, Note_on_c, 1, 53, 0
1, 86160, Note_on_c, 0, 59, 89
1, 86160, Note_on_c, 1, 55, 82
1, 86205, Note_on_c, 0, 59, 0
1, 86205, Note_on_c, 1, 55, 0
1, 86208, Note_on_c, 0, 60, 90
1, 86208, Note_on_c, 1, 56, 83
1, 86253, Note_on_c, 0, 60, 0
1, 86253, Note_on_c, 1, 56, 0
1, 86256, Note_on_c, 0, 59, 91
1, 86256, Note_on_c, 1, 55, 83
1, 86301, Note_on_c, 0, 59, 0
1, 86301, Note_on_c, 1, 55, 0
1, 86304, Note_on_c, 0, 60, 91
1, 86304, Note_on_c, 1, 56, 84
1, 86349, Note_on_c, 0, 60, 0
1, 86349, Note_on_c, 1, 56, 0
1, 86352, Note_on_c, 0, 59, 92
1, 86352, Note_on_c, 1, 55, 85
1, 86397, Note_on_c, 0, 59, 0
1, 86397, Note_on_c, 1, 55, 0
1, 86400, Note_on_c, 0, 60, 93
1, 86400, Note_on_c, 1, 56, 86
1, 86445, Note_on_c, 0, 60, 0
1, 86445, Note_on_c, 1, 56, 0
1, 86448, Note_on_c, 0, 57, 92
1, 86448, Note_on_c, 1, 54, 85
1, 86493, Note_on_c, 0, 57, 0
1, 86493, Note_on_c, 1, 54, 0
1, 86496, Note_on_c, 0, 58, 91
1, 86496, Note_on_c, 1, 55, 84
1, 86541, Note_on_c, 0, 58, 0
1, 86541, Note_on_c, 1, 55, 0
1, 86544, Note_on_c, 0, 57, 91
1, 86544, Note_on_c, 1, 54, 84
1, 86589, Note_on_c, 0, 57, 0
1, 86589, Note_on_c, 1, 54, 0
1, 86592, Note_on_c, 0, 58, 90
1, 86592, Note_on_c, 1, 55, 83
1, 86637, Note_on_c, 0, 58, 0
1, 86637, Note_on_c, 1, 55, 0
1, 86640, Note_on_c, 0, 57, 90
1, 86640, Note_on_c, 1, 54, 82
1, 86685, Note_on_c, 0, 57, 0
1, 86685, Note_on_c, 1, 54, 0
1, 86688, Note_on_c, 0, 58, 89
1, 86688, Note_on_c, 1, 55, 82
1, 86733, Note_on_c, 0, 58, 0
1, 86733, Note_on_c, 1, 55, 0
1, 86736, Note_on_c, 0, 55, 88
1, 86736, Note_on_c, 1, 52, 81
1, 86781, Note_on_c, 0, 55, 0
1, 86781, Note_on_c, 1, 52, 0
1, 86784, Note_on_c, 0, 56, 88
1, 86784, Note_on_c, 1, 53, 80
1, 86829, Note_on_c, 0, 56, 0
1, 86829, Note_on_c, 1, 53, 0
1, 86832, Note_on_c, 0, 55, 87
1, 86832, Note_on_c, 1, 52, 80
1, 86877, Note_on_c, 0, 55, 0
1, 86877, Note_on_c, 1, 52, 0
1, 86880, Note_on_c, 0, 56, 87
1, 86880, Note_on_c, 1, 53, 79
1, 86925, Note_on_c, 0, 56, 0
1, 86925, Note_on_c, 1, 53, 0
1, 86928, Note_on_c, 0, 55, 86
1, 86928, Note_on_c, 1, 52, 78
1, 86973, Note_on_c, 0, 55, 0
1, 86973, Note_on_c, 1, 52, 0
1, 86976, Note_on_c, 0, 56, 86
1, 86976, Note_on_c, 1, 53, 78
1, 87021, Note_on_c, 0, 60, 0
1, 87021, Note_on_c, 0, 56, 0
1, 87024, Note_on_c, 0, 65, 86
1, 87024, Note_on_c, 0, 56, 86
1, 87065, Note_on_c, 1, 53, 0
1, 87065, Note_on_c, 1, 48, 0
1, 87069, Note_on_c, 0, 65, 0
1, 87069, Note_on_c, 0, 56, 0
1, 87072, Note_on_c, 0, 63, 86
1, 87072, Note_on_c, 1, 55, 86
1, 87117, Note_on_c, 0, 63, 0
1, 87117, Note_on_c, 1, 55, 0
1, 87120, Note_on_c, 0, 62, 86
1, 87120, Note_on_c, 1, 53, 86
1, 87165, Note_on_c, 0, 62, 0
1, 87165, Note_on_c, 1, 53, 0
1, 87168, Note_on_c, 0, 60, 86
1, 87168, Note_on_c, 1, 51, 86
1, 87213, Note_on_c, 0, 60, 0
1, 87213, Note_on_c, 1, 51, 0
1, 87216, Note_on_c, 0, 59, 86
1, 87216, Note_on_c, 1, 50, 86
1, 87261, Note_on_c, 0, 59, 0
1, 87261, Note_on_c, 1, 50, 0
1, 87264, Note_on_c, 0, 59, 86
1, 87264, Note_on_c, 1, 53, 86
1, 87264, Note_on_c, 1, 50, 86
1, 87264, Note_on_c, 1, 48, 86
1, 87264, Note_on_c, 1, 36, 86
1, 87552, Note_on_c, 0, 59, 0
1, 87552, Note_on_c, 0, 60, 86
1, 87552, Note_on_c, 1, 53, 0
1, 87552, Note_on_c, 1, 50, 0
1, 87552, Note_on_c, 1, 55, 86
1, 87552, Note_on_c, 1, 51, 86
1, 87641, Note_on_c, 0, 60, 0
1, 87641, Note_on_c, 1, 55, 0
1, 87641, Note_on_c, 1, 51, 0
1, 87641, Note_on_c, 1, 48, 0
1, 87641, Note_on_c, 1, 36, 0
1, 87840, Note_on_c, 1, 36, 0
1, 87929, Note_on_c, 1, 36, 0
1, 87939, End_track
0, 0, End_of_file