0, 0, Header, 0, 1, 96
1, 0, Start_track
1, 0, Tempo, 600000
1, 96, Note_on_c, 0, 73, 80
1, 163, Note_on_c, 0, 73, 0
1, 168, Note_on_c, 0, 74, 80
1, 180, Note_on_c, 0, 74, 0
1, 180, Note_on_c, 0, 76, 80
1, 192, Note_on_c, 0, 76, 0
1, 192, Note_on_c, 0, 69, 80
1, 192, Note_on_c, 1, 61, 75
1, 192, Note_on_c, 1, 57, 75
1, 237, Note_on_c, 0, 69, 0
1, 237, Note_on_c, 1, 61, 0
1, 237, Note_on_c, 1, 57, 0
1, 240, Note_on_c, 0, 69, 80
1, 240, Note_on_c, 1, 61, 75
1, 240, Note_on_c, 1, 57, 75
1, 285, Note_on_c, 0, 69, 0
1, 285, Note_on_c, 1, 61, 0
1, 285, Note_on_c, 1, 57, 0
1, 288, Note_on_c, 0, 73, 80
1, 288, Note_on_c, 1, 62, 75
1, 288, Note_on_c, 1, 52, 75
1, 311, Note_on_c, 0, 73, 0
1, 312, Note_on_c, 0, 71, 80
1, 333, Note_on_c, 1, 62, 0
1, 333, Note_on_c, 1, 52, 0
1, 335, Note_on_c, 0, 71, 0
1, 336, Note_on_c, 0, 69, 80
1, 336, Note_on_c, 1, 62, 75
1, 336, Note_on_c, 1, 52, 75
1, 359, Note_on_c, 0, 69, 0
1, 360, Note_on_c, 0, 71, 80
1, 381, Note_on_c, 1, 62, 0
1, 381, Note_on_c, 1, 52, 0
1, 383, Note_on_c, 0, 71, 0
1, 384, Note_on_c, 0, 69, 80
1, 384, Note_on_c, 1, 61, 75
1, 384, Note_on_c, 1, 57, 75
1, 429, Note_on_c, 0, 69, 0
1, 429, Note_on_c, 1, 61, 0
1, 429, Note_on_c, 1, 57, 0
1, 480, Note_on_c, 0, 78, 80
1, 480, Note_on_c, 1, 57, 75
1, 480, Note_on_c, 1, 50, 75
1, 547, Note_on_c, 0, 78, 0
1, 552, Note_on_c, 0, 80, 80
1, 564, Note_on_c, 0, 80, 0
1, 564, Note_on_c, 0, 81, 80
1, 569, Note_on_c, 1, 57, 0
1, 569, Note_on_c, 1, 50, 0
1, 576, Note_on_c, 0, 81, 0
1, 576, Note_on_c, 0, 76, 80
1, 576, Note_on_c, 1, 57, 75
1, 576, Note_on_c, 1, 49, 75
1, 621, Note_on_c, 0, 76, 0
1, 621, Note_on_c, 1, 57, 0
1, 621, Note_on_c, 1, 49, 0
1, 624, Note_on_c, 0, 76, 81
1, 624, Note_on_c, 0, 73, 64
1, 624, Note_on_c, 1, 61, 75
1, 669, Note_on_c, 0, 76, 0
1, 669, Note_on_c, 0, 73, 0
1, 669, Note_on_c, 1, 61, 0
1, 672, Note_on_c, 0, 74, 82
1, 672, Note_on_c, 0, 71, 64
1, 672, Note_on_c, 1, 62, 75
1, 678, Note_on_c, 0, 74, 0
1, 678, Note_on_c, 0, 76, 82
1, 684, Note_on_c, 0, 76, 0
1, 684, Note_on_c, 0, 74, 82
1, 717, Note_on_c, 0, 74, 0
1, 717, Note_on_c, 0, 71, 0
1, 717, Note_on_c, 1, 62, 0
1, 720, Note_on_c, 0, 73, 83
1, 720, Note_on_c, 0, 69, 64
1, 720, Note_on_c, 1, 63, 75
1, 765, Note_on_c, 0, 73, 0
1, 765, Note_on_c, 0, 69, 0
1, 765, Note_on_c, 1, 63, 0
1, 768, Note_on_c, 0, 71, 85
1, 768, Note_on_c, 0, 68, 85
1, 768, Note_on_c, 1, 64, 75
1, 857, Note_on_c, 0, 71, 0
1, 857, Note_on_c, 0, 68, 0
1, 857, Note_on_c, 1, 64, 0
1, 864, Note_on_c, 0, 76, 80
1, 864, Note_on_c, 1, 56, 75
1, 864, Note_on_c, 1, 52, 75
1, 909, Note_on_c, 1, 56, 0
1, 909, Note_on_c, 1, 52, 0
1, 912, Note_on_c, 1, 56, 75
1, 912, Note_on_c, 1, 52, 75
1, 931, Note_on_c, 0, 76, 0
1, 936, Note_on_c, 0, 78, 80
1, 948, Note_on_c, 0, 78, 0
1, 948, Note_on_c, 0, 80, 80
1, 957, Note_on_c, 1, 56, 0
1, 957, Note_on_c, 1, 52, 0
1, 960, Note_on_c, 0, 80, 0
1, 960, Note_on_c, 0, 78, 80
1, 960, Note_on_c, 1, 57, 75
1, 960, Note_on_c, 1, 52, 75
1, 1005, Note_on_c, 0, 78, 0
1, 1005, Note_on_c, 1, 57, 0
1, 1005, Note_on_c, 1, 52, 0
1, 1008, Note_on_c, 0, 78, 80
1, 1008, Note_on_c, 1, 57, 75
1, 1008, Note_on_c, 1, 52, 75
1, 1053, Note_on_c, 0, 78, 0
1, 1053, Note_on_c, 1, 57, 0
1, 1053, Note_on_c, 1, 52, 0
1, 1056, Note_on_c, 0, 76, 80
1, 1056, Note_on_c, 1, 57, 75
1, 1056, Note_on_c, 1, 52, 75
1, 1079, Note_on_c, 0, 76, 0
1, 1080, Note_on_c, 0, 75, 80
1, 1101, Note_on_c, 1, 57, 0
1, 1101, Note_on_c, 1, 52, 0
1, 1103, Note_on_c, 0, 75, 0
1, 1104, Note_on_c, 0, 73, 80
1, 1104, Note_on_c, 1, 57, 75
1, 1104, Note_on_c, 1, 52, 75
1, 1127, Note_on_c, 0, 73, 0
1, 1128, Note_on_c, 0, 71, 80
1, 1149, Note_on_c, 1, 57, 0
1, 1149, Note_on_c, 1, 52, 0
1, 1151, Note_on_c, 0, 71, 0
1, 1152, Note_on_c, 0, 83, 80
1, 1152, Note_on_c, 1, 56, 75
1, 1152, Note_on_c, 1, 52, 75
1, 1197, Note_on_c, 0, 83, 0
1, 1197, Note_on_c, 1, 56, 0
1, 1197, Note_on_c, 1, 52, 0
1, 1200, Note_on_c, 0, 83, 80
1, 1200, Note_on_c, 1, 56, 75
1, 1200, Note_on_c, 1, 52, 75
1, 1245, Note_on_c, 0, 83, 0
1, 1245, Note_on_c, 1, 56, 0
1, 1245, Note_on_c, 1, 52, 0
1, 1248, Note_on_c, 0, 81, 80
1, 1248, Note_on_c, 1, 64, 75
1, 1248, Note_on_c, 1, 61, 75
1, 1271, Note_on_c, 0, 81, 0
1, 1272, Note_on_c, 0, 80, 80
1, 1293, Note_on_c, 1, 64, 0
1, 1293, Note_on_c, 1, 61, 0
1, 1295, Note_on_c, 0, 80, 0
1, 1296, Note_on_c, 0, 78, 80
1, 1296, Note_on_c, 1, 64, 75
1, 1296, Note_on_c, 1, 61, 75
1, 1319, Note_on_c, 0, 78, 0
1, 1320, Note_on_c, 0, 76, 80
1, 1341, Note_on_c, 1, 64, 0
1, 1341, Note_on_c, 1, 61, 0
1, 1343, Note_on_c, 0, 76, 0
1, 1344, Note_on_c, 0, 81, 80
1, 1344, Note_on_c, 1, 61, 75
1, 1344, Note_on_c, 1, 57, 75
1, 1389, Note_on_c, 0, 81, 0
1, 1389, Note_on_c, 1, 61, 0
1, 1389, Note_on_c, 1, 57, 0
1, 1392, Note_on_c, 0, 81, 80
1, 1392, Note_on_c, 1, 61, 75
1, 1392, Note_on_c, 1, 57, 75
1, 1437, Note_on_c, 0, 81, 0
1, 1437, Note_on_c, 1, 61, 0
1, 1437, Note_on_c, 1, 57, 0
1, 1440, Note_on_c, 0, 80, 80
1, 1440, Note_on_c, 1, 59, 75
1, 1463, Note_on_c, 0, 80, 0
1, 1464, Note_on_c, 0, 78, 80
1, 1485, Note_on_c, 1, 59, 0
1, 1487, Note_on_c, 0, 78, 0
1, 1488, Note_on_c, 0, 76, 80
1, 1488, Note_on_c, 1, 59, 75
1, 1511, Note_on_c, 0, 76, 0
1, 1512, Note_on_c, 0, 75, 80
1, 1533, Note_on_c, 1, 59, 0
1, 1535, Note_on_c, 0, 75, 0
1, 1536, Note_on_c, 0, 76, 80
1, 1536, Note_on_c, 1, 52, 75
1, 1625, Note_on_c, 0, 76, 0
1, 1625, Note_on_c, 1, 52, 0
1, 1632, Note_on_c, 0, 73, 80
1, 1699, Note_on_c, 0, 73, 0
1, 1704, Note_on_c, 0, 74, 80
1, 1716, Note_on_c, 0, 74, 0
1, 1716, Note_on_c, 0, 76, 80
1, 1728, Note_on_c, 0, 76, 0
1, 1728, Note_on_c, 0, 69, 80
1, 1728, Note_on_c, 1, 61, 75
1, 1728, Note_on_c, 1, 57, 75
1, 1773, Note_on_c, 0, 69, 0
1, 1773, Note_on_c, 1, 61, 0
1, 1773, Note_on_c, 1, 57, 0
1, 1776, Note_on_c, 0, 69, 80
1, 1776, Note_on_c, 1, 61, 75
1, 1776, Note_on_c, 1, 57, 75
1, 1821, Note_on_c, 0, 69, 0
1, 1821, Note_on_c, 1, 61, 0
1, 1821, Note_on_c, 1, 57, 0
1, 1824, Note_on_c, 0, 73, 80
1, 1824, Note_on_c, 1, 62, 75
1, 1824, Note_on_c, 1, 52, 75
1, 1847, Note_on_c, 0, 73, 0
1, 1848, Note_on_c, 0, 71, 80
1, 1869, Note_on_c, 1, 62, 0
1, 1869, Note_on_c, 1, 52, 0
1, 1871, Note_on_c, 0, 71, 0
1, 1872, Note_on_c, 0, 69, 80
1, 1872, Note_on_c, 1, 62, 75
1, 1872, Note_on_c, 1, 52, 75
1, 1895, Note_on_c, 0, 69, 0
1, 1896, Note_on_c, 0, 71, 80
1, 1917, Note_on_c, 1, 62, 0
1, 1917, Note_on_c, 1, 52, 0
1, 1919, Note_on_c, 0, 71, 0
1, 1920, Note_on_c, 0, 69, 80
1, 1920, Note_on_c, 1, 61, 75
1, 1920, Note_on_c, 1, 57, 75
1, 1965, Note_on_c, 0, 69, 0
1, 1965, Note_on_c, 1, 61, 0
1, 1965, Note_on_c, 1, 57, 0
1, 2016, Note_on_c, 0, 78, 80
1, 2016, Note_on_c, 1, 57, 75
1, 2016, Note_on_c, 1, 50, 75
1, 2083, Note_on_c, 0, 78, 0
1, 2088, Note_on_c, 0, 80, 80
1, 2100, Note_on_c, 0, 80, 0
1, 2100, Note_on_c, 0, 81, 80
1, 2105, Note_on_c, 1, 57, 0
1, 2105, Note_on_c, 1, 50, 0
1, 2112, Note_on_c, 0, 81, 0
1, 2112, Note_on_c, 0, 76, 80
1, 2112, Note_on_c, 1, 57, 75
1, 2112, Note_on_c, 1, 49, 75
1, 2157, Note_on_c, 0, 76, 0
1, 2157, Note_on_c, 1, 57, 0
1, 2157, Note_on_c, 1, 49, 0
1, 2160, Note_on_c, 0, 76, 81
1, 2160, Note_on_c, 0, 73, 64
1, 2160, Note_on_c, 1, 61, 75
1, 2205, Note_on_c, 0, 76, 0
1, 2205, Note_on_c, 0, 73, 0
1, 2205, Note_on_c, 1, 61, 0
1, 2208, Note_on_c, 0, 74, 82
1, 2208, Note_on_c, 0, 71, 64
1, 2208, Note_on_c, 1, 62, 75
1, 2214, Note_on_c, 0, 74, 0
1, 2214, Note_on_c, 0, 76, 82
1, 2220, Note_on_c, 0, 76, 0
1, 2220, Note_on_c, 0, 74, 82
1, 2253, Note_on_c, 0, 74, 0
1, 2253, Note_on_c, 0, 71, 0
1, 2253, Note_on_c, 1, 62, 0
1, 2256, Note_on_c, 0, 73, 83
1, 2256, Note_on_c, 0, 69, 64
1, 2256, Note_on_c, 1, 63, 75
1, 2301, Note_on_c, 0, 73, 0
1, 2301, Note_on_c, 0, 69, 0
1, 2301, Note_on_c, 1, 63, 0
1, 2304, Note_on_c, 0, 71, 85
1, 2304, Note_on_c, 0, 68, 85
1, 2304, Note_on_c, 1, 64, 75
1, 2393, Note_on_c, 0, 71, 0
1, 2393, Note_on_c, 0, 68, 0
1, 2393, Note_on_c, 1, 64, 0
1, 2400, Note_on_c, 0, 76, 80
1, 2400, Note_on_c, 1, 56, 75
1, 2400, Note_on_c, 1, 52, 75
1, 2445, Note_on_c, 1, 56, 0
1, 2445, Note_on_c, 1, 52, 0
1, 2448, Note_on_c, 1, 56, 75
1, 2448, Note_on_c, 1, 52, 75
1, 2467, Note_on_c, 0, 76, 0
1, 2472, Note_on_c, 0, 78, 80
1, 2484, Note_on_c, 0, 78, 0
1, 2484, Note_on_c, 0, 80, 80
1, 2493, Note_on_c, 1, 56, 0
1, 2493, Note_on_c, 1, 52, 0
1, 2496, Note_on_c, 0, 80, 0
1, 2496, Note_on_c, 0, 78, 80
1, 2496, Note_on_c, 1, 57, 75
1, 2496, Note_on_c, 1, 52, 75
1, 2541, Note_on_c, 0, 78, 0
1, 2541, Note_on_c, 1, 57, 0
1, 2541, Note_on_c, 1, 52, 0
1, 2544, Note_on_c, 0, 78, 80
1, 2544, Note_on_c, 1, 57, 75
1, 2544, Note_on_c, 1, 52, 75
1, 2589, Note_on_c, 0, 78, 0
1, 2589, Note_on_c, 1, 57, 0
1, 2589, Note_on_c, 1, 52, 0
1, 2592, Note_on_c, 0, 76, 80
1, 2592, Note_on_c, 1, 57, 75
1, 2592, Note_on_c, 1, 52, 75
1, 2615, Note_on_c, 0, 76, 0
1, 2616, Note_on_c, 0, 75, 80
1, 2637, Note_on_c, 1, 57, 0
1, 2637, Note_on_c, 1, 52, 0
1, 2639, Note_on_c, 0, 75, 0
1, 2640, Note_on_c, 0, 73, 80
1, 2640, Note_on_c, 1, 57, 75
1, 2640, Note_on_c, 1, 52, 75
1, 2663, Note_on_c, 0, 73, 0
1, 2664, Note_on_c, 0, 71, 80
1, 2685, Note_on_c, 1, 57, 0
1, 2685, Note_on_c, 1, 52, 0
1, 2687, Note_on_c, 0, 71, 0
1, 2688, Note_on_c, 0, 83, 80
1, 2688, Note_on_c, 1, 56, 75
1, 2688, Note_on_c, 1, 52, 75
1, 2733, Note_on_c, 0, 83, 0
1, 2733, Note_on_c, 1, 56, 0
1, 2733, Note_on_c, 1, 52, 0
1, 2736, Note_on_c, 0, 83, 80
1, 2736, Note_on_c, 1, 56, 75
1, 2736, Note_on_c, 1, 52, 75
1, 2781, Note_on_c, 0, 83, 0
1, 2781, Note_on_c, 1, 56, 0
1, 2781, Note_on_c, 1, 52, 0
1, 2784, Note_on_c, 0, 81, 80
1, 2784, Note_on_c, 1, 64, 75
1, 2784, Note_on_c, 1, 61, 75
1, 2807, Note_on_c, 0, 81, 0
1, 2808, Note_on_c, 0, 80, 80
1, 2829, Note_on_c, 1, 64, 0
1, 2829, Note_on_c, 1, 61, 0
1, 2831, Note_on_c, 0, 80, 0
1, 2832, Note_on_c, 0, 78, 80
1, 2832, Note_on_c, 1, 64, 75
1, 2832, Note_on_c, 1, 61, 75
1, 2855, Note_on_c, 0, 78, 0
1, 2856, Note_on_c, 0, 76, 80
1, 2877, Note_on_c, 1, 64, 0
1, 2877, Note_on_c, 1, 61, 0
1, 2879, Note_on_c, 0, 76, 0
1, 2880, Note_on_c, 0, 81, 80
1, 2880, Note_on_c, 1, 61, 75
1, 2880, Note_on_c, 1, 57, 75
1, 2925, Note_on_c, 0, 81, 0
1, 2925, Note_on_c, 1, 61, 0
1, 2925, Note_on_c, 1, 57, 0
1, 2928, Note_on_c, 0, 81, 80
1, 2928, Note_on_c, 1, 61, 75
1, 2928, Note_on_c, 1, 57, 75
1, 2973, Note_on_c, 0, 81, 0
1, 2973, Note_on_c, 1, 61, 0
1, 2973, Note_on_c, 1, 57, 0
1, 2976, Note_on_c, 0, 80, 80
1, 2976, Note_on_c, 1, 59, 75
1, 2999, Note_on_c, 0, 80, 0
1, 3000, Note_on_c, 0, 78, 80
1, 3021, Note_on_c, 1, 59, 0
1, 3023, Note_on_c, 0, 78, 0
1, 3024, Note_on_c, 0, 76, 80
1, 3024, Note_on_c, 1, 59, 75
1, 3047, Note_on_c, 0, 76, 0
1, 3048, Note_on_c, 0, 75, 80
1, 3069, Note_on_c, 1, 59, 0
1, 3071, Note_on_c, 0, 75, 0
1, 3072, Note_on_c, 0, 76, 80
1, 3072, Note_on_c, 1, 52, 75
1, 3161, Note_on_c, 0, 76, 0
1, 3161, Note_on_c, 1, 52, 0
1, 3168, Note_on_c, 0, 76, 80
1, 3235, Note_on_c, 0, 76, 0
1, 3240, Note_on_c, 0, 78, 80
1, 3252, Note_on_c, 0, 78, 0
1, 3252, Note_on_c, 0, 79, 80
1, 3264, Note_on_c, 0, 79, 0
1, 3264, Note_on_c, 0, 73, 80
1, 3264, Note_on_c, 1, 67, 70
1, 3264, Note_on_c, 1, 64, 70
1, 3309, Note_on_c, 0, 73, 0
1, 3309, Note_on_c, 1, 67, 0
1, 3309, Note_on_c, 1, 64, 0
1, 3312, Note_on_c, 0, 73, 80
1, 3312, Note_on_c, 1, 67, 70
1, 3312, Note_on_c, 1, 64, 70
1, 3357, Note_on_c, 0, 73, 0
1, 3357, Note_on_c, 1, 67, 0
1, 3357, Note_on_c, 1, 64, 0
1, 3360, Note_on_c, 0, 73, 80
1, 3360, Note_on_c, 1, 66, 70
1, 3360, Note_on_c, 1, 62, 70
1, 3383, Note_on_c, 0, 73, 0
1, 3384, Note_on_c, 0, 71, 80
1, 3405, Note_on_c, 1, 66, 0
1, 3405, Note_on_c, 1, 62, 0
1, 3407, Note_on_c, 0, 71, 0
1, 3408, Note_on_c, 0, 70, 80
1, 3408, Note_on_c, 1, 66, 70
1, 3408, Note_on_c, 1, 62, 70
1, 3431, Note_on_c, 0, 70, 0
1, 3432, Note_on_c, 0, 71, 80
1, 3453, Note_on_c, 1, 66, 0
1, 3453, Note_on_c, 1, 62, 0
1, 3455, Note_on_c, 0, 71, 0
1, 3456, Note_on_c, 0, 71, 80
1, 3456, Note_on_c, 1, 64, 70
1, 3456, Note_on_c, 1, 61, 70
1, 3501, Note_on_c, 1, 64, 0
1, 3501, Note_on_c, 1, 61, 0
1, 3504, Note_on_c, 0, 71, 0
1, 3504, Note_on_c, 0, 70, 80
1, 3504, Note_on_c, 1, 64, 70
1, 3504, Note_on_c, 1, 61, 70
1, 3549, Note_on_c, 0, 70, 0
1, 3549, Note_on_c, 1, 64, 0
1, 3549, Note_on_c, 1, 61, 0
1, 3552, Note_on_c, 0, 71, 80
1, 3552, Note_on_c, 1, 66, 70
1, 3552, Note_on_c, 1, 62, 70
1, 3575, Note_on_c, 0, 71, 0
1, 3576, Note_on_c, 0, 73, 80
1, 3597, Note_on_c, 1, 66, 0
1, 3597, Note_on_c, 1, 62, 0
1, 3599, Note_on_c, 0, 73, 0
1, 3600, Note_on_c, 0, 74, 80
1, 3600, Note_on_c, 1, 66, 70
1, 3600, Note_on_c, 1, 62, 70
1, 3623, Note_on_c, 0, 74, 0
1, 3624, Note_on_c, 0, 71, 80
1, 3645, Note_on_c, 1, 66, 0
1, 3645, Note_on_c, 1, 62, 0
1, 3647, Note_on_c, 0, 71, 0
1, 3648, Note_on_c, 0, 68, 80
1, 3648, Note_on_c, 1, 64, 70
1, 3648, Note_on_c, 1, 62, 70
1, 3671, Note_on_c, 0, 68, 0
1, 3672, Note_on_c, 0, 69, 80
1, 3693, Note_on_c, 1, 64, 0
1, 3693, Note_on_c, 1, 62, 0
1, 3695, Note_on_c, 0, 69, 0
1, 3696, Note_on_c, 0, 71, 80
1, 3696, Note_on_c, 1, 64, 70
1, 3696, Note_on_c, 1, 62, 70
1, 3719, Note_on_c, 0, 71, 0
1, 3720, Note_on_c, 0, 68, 81
1, 3741, Note_on_c, 1, 64, 0
1, 3741, Note_on_c, 1, 62, 0
1, 3743, Note_on_c, 0, 68, 0
1, 3744, Note_on_c, 0, 69, 82
1, 3744, Note_on_c, 1, 64, 70
1, 3744, Note_on_c, 1, 61, 70
1, 3767, Note_on_c, 0, 69, 0
1, 3768, Note_on_c, 0, 71, 82
1, 3789, Note_on_c, 1, 64, 0
1, 3789, Note_on_c, 1, 61, 0
1, 3791, Note_on_c, 0, 71, 0
1, 3792, Note_on_c, 0, 73, 83
1, 3792, Note_on_c, 1, 64, 70
1, 3792, Note_on_c, 1, 57, 70
1, 3815, Note_on_c, 0, 73, 0
1, 3816, Note_on_c, 0, 69, 84
1, 3837, Note_on_c, 1, 64, 0
1, 3837, Note_on_c, 1, 57, 0
1, 3839, Note_on_c, 0, 69, 0
1, 3840, Note_on_c, 0, 76, 85
1, 3840, Note_on_c, 1, 64, 70
1, 3840, Note_on_c, 1, 52, 70
1, 3929, Note_on_c, 0, 76, 0
1, 3929, Note_on_c, 1, 64, 0
1, 3929, Note_on_c, 1, 52, 0
1, 3936, Note_on_c, 0, 73, 80
1, 4003, Note_on_c, 0, 73, 0
1, 4008, Note_on_c, 0, 74, 80
1, 4020, Note_on_c, 0, 74, 0
1, 4020, Note_on_c, 0, 76, 80
1, 4032, Note_on_c, 0, 76, 0
1, 4032, Note_on_c, 0, 69, 80
1, 4032, Note_on_c, 1, 61, 75
1, 4032, Note_on_c, 1, 57, 75
1, 4077, Note_on_c, 0, 69, 0
1, 4077, Note_on_c, 1, 61, 0
1, 4077, Note_on_c, 1, 57, 0
1, 4080, Note_on_c, 0, 69, 80
1, 4080, Note_on_c, 1, 61, 75
1, 4080, Note_on_c, 1, 57, 75
1, 4125, Note_on_c, 0, 69, 0
1, 4125, Note_on_c, 1, 61, 0
1, 4125, Note_on_c, 1, 57, 0
1, 4128, Note_on_c, 0, 73, 80
1, 4128, Note_on_c, 1, 62, 75
1, 4128, Note_on_c, 1, 52, 75
1, 4151, Note_on_c, 0, 73, 0
1, 4152, Note_on_c, 0, 71, 80
1, 4173, Note_on_c, 1, 62, 0
1, 4173, Note_on_c, 1, 52, 0
1, 4175, Note_on_c, 0, 71, 0
1, 4176, Note_on_c, 0, 69, 80
1, 4176, Note_on_c, 1, 62, 75
1, 4176, Note_on_c, 1, 52, 75
1, 4199, Note_on_c, 0, 69, 0
1, 4200, Note_on_c, 0, 71, 80
1, 4221, Note_on_c, 1, 62, 0
1, 4221, Note_on_c, 1, 52, 0
1, 4223, Note_on_c, 0, 71, 0
1, 4224, Note_on_c, 0, 69, 80
1, 4224, Note_on_c, 1, 61, 75
1, 4224, Note_on_c, 1, 57, 75
1, 4269, Note_on_c, 0, 69, 0
1, 4269, Note_on_c, 1, 61, 0
1, 4269, Note_on_c, 1, 57, 0
1, 4320, Note_on_c, 0, 81, 80
1, 4320, Note_on_c, 1, 57, 75
1, 4320, Note_on_c, 1, 49, 75
1, 4387, Note_on_c, 0, 81, 0
1, 4392, Note_on_c, 0, 83, 80
1, 4404, Note_on_c, 0, 83, 0
1, 4404, Note_on_c, 0, 85, 80
1, 4409, Note_on_c, 1, 57, 0
1, 4409, Note_on_c, 1, 49, 0
1, 4416, Note_on_c, 0, 85, 0
1, 4416, Note_on_c, 0, 78, 80
1, 4416, Note_on_c, 1, 57, 75
1, 4416, Note_on_c, 1, 50, 75
1, 4461, Note_on_c, 0, 78, 0
1, 4461, Note_on_c, 1, 57, 0
1, 4461, Note_on_c, 1, 50, 0
1, 4464, Note_on_c, 0, 81, 80
1, 4464, Note_on_c, 1, 57, 75
1, 4464, Note_on_c, 1, 50, 75
1, 4479, Note_on_c, 0, 81, 0
1, 4480, Note_on_c, 0, 78, 80
1, 4495, Note_on_c, 0, 78, 0
1, 4496, Note_on_c, 0, 74, 80
1, 4509, Note_on_c, 1, 57, 0
1, 4509, Note_on_c, 1, 50, 0
1, 4511, Note_on_c, 0, 74, 0
1, 4512, Note_on_c, 0, 73, 80
1, 4512, Note_on_c, 1, 57, 75
1, 4512, Note_on_c, 1, 52, 75
1, 4557, Note_on_c, 0, 73, 0
1, 4557, Note_on_c, 1, 57, 0
1, 4557, Note_on_c, 1, 52, 0
1, 4560, Note_on_c, 0, 71, 80
1, 4560, Note_on_c, 1, 56, 75
1, 4560, Note_on_c, 1, 52, 75
1, 4566, Note_on_c, 0, 71, 0
1, 4566, Note_on_c, 0, 73, 80
1, 4572, Note_on_c, 0, 73, 0
1, 4572, Note_on_c, 0, 71, 80
1, 4605, Note_on_c, 0, 71, 0
1, 4605, Note_on_c, 1, 56, 0
1, 4605, Note_on_c, 1, 52, 0
1, 4608, Note_on_c, 0, 69, 80
1, 4608, Note_on_c, 1, 57, 75
1, 4697, Note_on_c, 0, 69, 0
1, 4697, Note_on_c, 1, 57, 0
1, 4704, Note_on_c, 0, 76, 80
1, 4771, Note_on_c, 0, 76, 0
1, 4776, Note_on_c, 0, 78, 80
1, 4788, Note_on_c, 0, 78, 0
1, 4788, Note_on_c, 0, 79, 80
1, 4800, Note_on_c, 0, 79, 0
1, 4800, Note_on_c, 0, 73, 80
1, 4800, Note_on_c, 1, 67, 70
1, 4800, Note_on_c, 1, 64, 70
1, 4845, Note_on_c, 0, 73, 0
1, 4845, Note_on_c, 1, 67, 0
1, 4845, Note_on_c, 1, 64, 0
1, 4848, Note_on_c, 0, 73, 80
1, 4848, Note_on_c, 1, 67, 70
1, 4848, Note_on_c, 1, 64, 70
1, 4893, Note_on_c, 0, 73, 0
1, 4893, Note_on_c, 1, 67, 0
1, 4893, Note_on_c, 1, 64, 0
1, 4896, Note_on_c, 0, 73, 80
1, 4896, Note_on_c, 1, 66, 70
1, 4896, Note_on_c, 1, 62, 70
1, 4919, Note_on_c, 0, 73, 0
1, 4920, Note_on_c, 0, 71, 80
1, 4941, Note_on_c, 1, 66, 0
1, 4941, Note_on_c, 1, 62, 0
1, 4943, Note_on_c, 0, 71, 0
1, 4944, Note_on_c, 0, 70, 80
1, 4944, Note_on_c, 1, 66, 70
1, 4944, Note_on_c, 1, 62, 70
1, 4967, Note_on_c, 0, 70, 0
1, 4968, Note_on_c, 0, 71, 80
1, 4989, Note_on_c, 1, 66, 0
1, 4989, Note_on_c, 1, 62, 0
1, 4991, Note_on_c, 0, 71, 0
1, 4992, Note_on_c, 0, 71, 80
1, 4992, Note_on_c, 1, 64, 70
1, 4992, Note_on_c, 1, 61, 70
1, 5037, Note_on_c, 1, 64, 0
1, 5037, Note_on_c, 1, 61, 0
1, 5040, Note_on_c, 0, 71, 0
1, 5040, Note_on_c, 0, 70, 80
1, 5040, Note_on_c, 1, 64, 70
1, 5040, Note_on_c, 1, 61, 70
1, 5085, Note_on_c, 0, 70, 0
1, 5085, Note_on_c, 1, 64, 0
1, 5085, Note_on_c, 1, 61, 0
1, 5088, Note_on_c, 0, 71, 80
1, 5088, Note_on_c, 1, 66, 70
1, 5088, Note_on_c, 1, 62, 70
1, 5111, Note_on_c, 0, 71, 0
1, 5112, Note_on_c, 0, 73, 80
1, 5133, Note_on_c, 1, 66, 0
1, 5133, Note_on_c, 1, 62, 0
1, 5135, Note_on_c, 0, 73, 0
1, 5136, Note_on_c, 0, 74, 80
1, 5136, Note_on_c, 1, 66, 70
1, 5136, Note_on_c, 1, 62, 70
1, 5159, Note_on_c, 0, 74, 0
1, 5160, Note_on_c, 0, 71, 80
1, 5181, Note_on_c, 1, 66, 0
1, 5181, Note_on_c, 1, 62, 0
1, 5183, Note_on_c, 0, 71, 0
1, 5184, Note_on_c, 0, 68, 80
1, 5184, Note_on_c, 1, 64, 70
1, 5184, Note_on_c, 1, 62, 70
1, 5207, Note_on_c, 0, 68, 0
1, 5208, Note_on_c, 0, 69, 80
1, 5229, Note_on_c, 1, 64, 0
1, 5229, Note_on_c, 1, 62, 0
1, 5231, Note_on_c, 0, 69, 0
1, 5232, Note_on_c, 0, 71, 80
1, 5232, Note_on_c, 1, 64, 70
1, 5232, Note_on_c, 1, 62, 70
1, 5255, Note_on_c, 0, 71, 0
1, 5256, Note_on_c, 0, 68, 81
1, 5277, Note_on_c, 1, 64, 0
1, 5277, Note_on_c, 1, 62, 0
1, 5279, Note_on_c, 0, 68, 0
1, 5280, Note_on_c, 0, 69, 82
1, 5280, Note_on_c, 1, 64, 70
1, 5280, Note_on_c, 1, 61, 70
1, 5303, Note_on_c, 0, 69, 0
1, 5304, Note_on_c, 0, 71, 82
1, 5325, Note_on_c, 1, 64, 0
1, 5325, Note_on_c, 1, 61, 0
1, 5327, Note_on_c, 0, 71, 0
1, 5328, Note_on_c, 0, 73, 83
1, 5328, Note_on_c, 1, 64, 70
1, 5328, Note_on_c, 1, 57, 70
1, 5351, Note_on_c, 0, 73, 0
1, 5352, Note_on_c, 0, 69, 84
1, 5373, Note_on_c, 1, 64, 0
1, 5373, Note_on_c, 1, 57, 0
1, 5375, Note_on_c, 0, 69, 0
1, 5376, Note_on_c, 0, 76, 85
1, 5376, Note_on_c, 1, 64, 70
1, 5376, Note_on_c, 1, 52, 70
1, 5465, Note_on_c, 0, 76, 0
1, 5465, Note_on_c, 1, 64, 0
1, 5465, Note_on_c, 1, 52, 0
1, 5472, Note_on_c, 0, 73, 80
1, 5539, Note_on_c, 0, 73, 0
1, 5544, Note_on_c, 0, 74, 80
1, 5556, Note_on_c, 0, 74, 0
1, 5556, Note_on_c, 0, 76, 80
1, 5568, Note_on_c, 0, 76, 0
1, 5568, Note_on_c, 0, 69, 80
1, 5568, Note_on_c, 1, 61, 75
1, 5568, Note_on_c, 1, 57, 75
1, 5613, Note_on_c, 0, 69, 0
1, 5613, Note_on_c, 1, 61, 0
1, 5613, Note_on_c, 1, 57, 0
1, 5616, Note_on_c, 0, 69, 80
1, 5616, Note_on_c, 1, 61, 75
1, 5616, Note_on_c, 1, 57, 75
1, 5661, Note_on_c, 0, 69, 0
1, 5661, Note_on_c, 1, 61, 0
1, 5661, Note_on_c, 1, 57, 0
1, 5664, Note_on_c, 0, 73, 80
1, 5664, Note_on_c, 1, 62, 75
1, 5664, Note_on_c, 1, 52, 75
1, 5687, Note_on_c, 0, 73, 0
1, 5688, Note_on_c, 0, 71, 80
1, 5709, Note_on_c, 1, 62, 0
1, 5709, Note_on_c, 1, 52, 0
1, 5711, Note_on_c, 0, 71, 0
1, 5712, Note_on_c, 0, 69, 80
1, 5712, Note_on_c, 1, 62, 75
1, 5712, Note_on_c, 1, 52, 75
1, 5735, Note_on_c, 0, 69, 0
1, 5736, Note_on_c, 0, 71, 80
1, 5757, Note_on_c, 1, 62, 0
1, 5757, Note_on_c, 1, 52, 0
1, 5759, Note_on_c, 0, 71, 0
1, 5760, Note_on_c, 0, 69, 80
1, 5760, Note_on_c, 1, 61, 75
1, 5760, Note_on_c, 1, 57, 75
1, 5805, Note_on_c, 0, 69, 0
1, 5805, Note_on_c, 1, 61, 0
1, 5805, Note_on_c, 1, 57, 0
1, 5856, Note_on_c, 0, 81, 80
1, 5856, Note_on_c, 1, 57, 75
1, 5856, Note_on_c, 1, 49, 75
1, 5923, Note_on_c, 0, 81, 0
1, 5928, Note_on_c, 0, 83, 80
1, 5940, Note_on_c, 0, 83, 0
1, 5940, Note_on_c, 0, 85, 80
1, 5945, Note_on_c, 1, 57, 0
1, 5945, Note_on_c, 1, 49, 0
1, 5952, Note_on_c, 0, 85, 0
1, 5952, Note_on_c, 0, 78, 80
1, 5952, Note_on_c, 1, 57, 75
1, 5952, Note_on_c, 1, 50, 75
1, 5997, Note_on_c, 0, 78, 0
1, 5997, Note_on_c, 1, 57, 0
1, 5997, Note_on_c, 1, 50, 0
1, 6000, Note_on_c, 0, 81, 80
1, 6000, Note_on_c, 1, 57, 75
1, 6000, Note_on_c, 1, 50, 75
1, 6015, Note_on_c, 0, 81, 0
1, 6016, Note_on_c, 0, 78, 80
1, 6031, Note_on_c, 0, 78, 0
1, 6032, Note_on_c, 0, 74, 80
1, 6045, Note_on_c, 1, 57, 0
1, 6045, Note_on_c, 1, 50, 0
1, 6047, Note_on_c, 0, 74, 0
1, 6048, Note_on_c, 0, 73, 80
1, 6048, Note_on_c, 1, 57, 75
1, 6048, Note_on_c, 1, 52, 75
1, 6093, Note_on_c, 0, 73, 0
1, 6093, Note_on_c, 1, 57, 0
1, 6093, Note_on_c, 1, 52, 0
1, 6096, Note_on_c, 0, 71, 80
1, 6096, Note_on_c, 1, 56, 75
1, 6096, Note_on_c, 1, 52, 75
1, 6102, Note_on_c, 0, 71, 0
1, 6102, Note_on_c, 0, 73, 80
1, 6108, Note_on_c, 0, 73, 0
1, 6108, Note_on_c, 0, 71, 80
1, 6141, Note_on_c, 0, 71, 0
1, 6141, Note_on_c, 1, 56, 0
1, 6141, Note_on_c, 1, 52, 0
1, 6144, Note_on_c, 0, 69, 80
1, 6144, Note_on_c, 1, 57, 75
1, 6233, Note_on_c, 0, 69, 0
1, 6233, Note_on_c, 1, 57, 0
1, 6240, Note_on_c, 0, 64, 80
1, 6285, Note_on_c, 0, 64, 0
1, 6288, Note_on_c, 0, 72, 80
1, 6288, Note_on_c, 1, 60, 75
1, 6288, Note_on_c, 1, 57, 75
1, 6311, Note_on_c, 0, 72, 0
1, 6312, Note_on_c, 0, 69, 80
1, 6333, Note_on_c, 1, 60, 0
1, 6333, Note_on_c, 1, 57, 0
1, 6335, Note_on_c, 0, 69, 0
1, 6336, Note_on_c, 0, 69, 80
1, 6336, Note_on_c, 1, 62, 75
1, 6336, Note_on_c, 1, 59, 75
1, 6359, Note_on_c, 0, 69, 0
1, 6360, Note_on_c, 0, 68, 80
1, 6383, Note_on_c, 0, 68, 0
1, 6384, Note_on_c, 0, 66, 80
1, 6407, Note_on_c, 0, 66, 0
1, 6408, Note_on_c, 0, 64, 80
1, 6425, Note_on_c, 1, 62, 0
1, 6425, Note_on_c, 1, 59, 0
1, 6431, Note_on_c, 0, 64, 0
1, 6432, Note_on_c, 0, 76, 80
1, 6432, Note_on_c, 0, 72, 80
1, 6452, Note_on_c, 0, 76, 0
1, 6452, Note_on_c, 0, 72, 0
1, 6480, Note_on_c, 0, 74, 80
1, 6480, Note_on_c, 0, 71, 80
1, 6480, Note_on_c, 1, 56, 75
1, 6500, Note_on_c, 0, 74, 0
1, 6500, Note_on_c, 0, 71, 0
1, 6525, Note_on_c, 1, 56, 0
1, 6528, Note_on_c, 0, 69, 80
1, 6528, Note_on_c, 0, 74, 80
1, 6528, Note_on_c, 1, 57, 75
1, 6540, Note_on_c, 0, 74, 0
1, 6540, Note_on_c, 0, 72, 80
1, 6552, Note_on_c, 0, 72, 0
1, 6552, Note_on_c, 0, 71, 80
1, 6564, Note_on_c, 0, 71, 0
1, 6564, Note_on_c, 0, 72, 80
1, 6573, Note_on_c, 0, 69, 0
1, 6573, Note_on_c, 1, 57, 0
1, 6576, Note_on_c, 0, 71, 80
1, 6576, Note_on_c, 0, 68, 80
1, 6576, Note_on_c, 0, 72, 0
1, 6576, Note_on_c, 1, 52, 75
1, 6621, Note_on_c, 0, 71, 0
1, 6621, Note_on_c, 0, 68, 0
1, 6621, Note_on_c, 1, 52, 0
1, 6624, Note_on_c, 0, 64, 80
1, 6624, Note_on_c, 1, 60, 75
1, 6624, Note_on_c, 1, 57, 75
1, 6669, Note_on_c, 0, 64, 0
1, 6669, Note_on_c, 1, 60, 0
1, 6669, Note_on_c, 1, 57, 0
1, 6672, Note_on_c, 0, 72, 80
1, 6672, Note_on_c, 1, 60, 75
1, 6672, Note_on_c, 1, 57, 75
1, 6695, Note_on_c, 0, 72, 0
1, 6696, Note_on_c, 0, 69, 80
1, 6717, Note_on_c, 1, 60, 0
1, 6717, Note_on_c, 1, 57, 0
1, 6719, Note_on_c, 0, 69, 0
1, 6720, Note_on_c, 0, 65, 80
1, 6720, Note_on_c, 1, 59, 80
1, 6720, Note_on_c, 1, 55, 80
1, 6740, Note_on_c, 0, 65, 0
1, 6765, Note_on_c, 1, 59, 0
1, 6765, Note_on_c, 1, 55, 0
1, 6768, Note_on_c, 0, 74, 81
1, 6768, Note_on_c, 1, 59, 81
1, 6768, Note_on_c, 1, 55, 81
1, 6792, Note_on_c, 0, 74, 0
1, 6792, Note_on_c, 0, 71, 82
1, 6813, Note_on_c, 1, 59, 0
1, 6813, Note_on_c, 1, 55, 0
1, 6815, Note_on_c, 0, 71, 0
1, 6816, Note_on_c, 0, 67, 83
1, 6816, Note_on_c, 1, 60, 83
1, 6816, Note_on_c, 1, 52, 83
1, 6816, Note_on_c, 1, 48, 83
1, 6836, Note_on_c, 0, 67, 0
1, 6861, Note_on_c, 1, 60, 0
1, 6861, Note_on_c, 1, 52, 0
1, 6861, Note_on_c, 1, 48, 0
1, 6864, Note_on_c, 0, 76, 85
1, 6864, Note_on_c, 1, 60, 85
1, 6864, Note_on_c, 1, 52, 85
1, 6864, Note_on_c, 1, 48, 85
1, 6888, Note_on_c, 0, 76, 0
1, 6888, Note_on_c, 0, 72, 86
1, 6909, Note_on_c, 1, 60, 0
1, 6909, Note_on_c, 1, 52, 0
1, 6909, Note_on_c, 1, 48, 0
1, 6911, Note_on_c, 0, 72, 0
1, 6912, Note_on_c, 0, 69, 86
1, 6912, Note_on_c, 1, 60, 86
1, 6912, Note_on_c, 1, 57, 86
1, 6912, Note_on_c, 1, 53, 86
1, 6932, Note_on_c, 0, 69, 0
1, 6957, Note_on_c, 1, 60, 0
1, 6957, Note_on_c, 1, 57, 0
1, 6957, Note_on_c, 1, 53, 0
1, 6960, Note_on_c, 0, 77, 88
1, 6960, Note_on_c, 1, 60, 88
1, 6960, Note_on_c, 1, 57, 88
1, 6960, Note_on_c, 1, 53, 88
1, 6984, Note_on_c, 0, 77, 0
1, 6984, Note_on_c, 0, 74, 89
1, 7005, Note_on_c, 1, 60, 0
1, 7005, Note_on_c, 1, 57, 0
1, 7005, Note_on_c, 1, 53, 0
1, 7007, Note_on_c, 0, 74, 0
1, 7008, Note_on_c, 0, 73, 90
1, 7008, Note_on_c, 1, 61, 90
1, 7008, Note_on_c, 1, 58, 90
1, 7008, Note_on_c, 1, 55, 90
1, 7008, Note_on_c, 1, 52, 90
1, 7028, Note_on_c, 0, 73, 0
1, 7053, Note_on_c, 1, 61, 0
1, 7053, Note_on_c, 1, 58, 0
1, 7053, Note_on_c, 1, 55, 0
1, 7053, Note_on_c, 1, 52, 0
1, 7056, Note_on_c, 0, 82, 92
1, 7056, Note_on_c, 1, 61, 92
1, 7056, Note_on_c, 1, 58, 92
1, 7056, Note_on_c, 1, 55, 92
1, 7056, Note_on_c, 1, 52, 92
1, 7080, Note_on_c, 0, 82, 0
1, 7080, Note_on_c, 0, 79, 92
1, 7101, Note_on_c, 1, 61, 0
1, 7101, Note_on_c, 1, 58, 0
1, 7101, Note_on_c, 1, 55, 0
1, 7101, Note_on_c, 1, 52, 0
1, 7103, Note_on_c, 0, 79, 0
1, 7104, Note_on_c, 0, 81, 92
1, 7104, Note_on_c, 1, 62, 92
1, 7104, Note_on_c, 1, 57, 92
1, 7104, Note_on_c, 1, 53, 92
1, 7104, Note_on_c, 1, 53, 64
1, 7149, Note_on_c, 0, 81, 0
1, 7152, Note_on_c, 0, 77, 92
1, 7175, Note_on_c, 0, 77, 0
1, 7176, Note_on_c, 0, 74, 92
1, 7193, Note_on_c, 1, 62, 0
1, 7193, Note_on_c, 1, 57, 0
1, 7193, Note_on_c, 1, 53, 0
1, 7193, Note_on_c, 1, 53, 0
1, 7199, Note_on_c, 0, 74, 0
1, 7200, Note_on_c, 0, 72, 92
1, 7200, Note_on_c, 1, 64, 92
1, 7200, Note_on_c, 1, 55, 64
1, 7245, Note_on_c, 0, 72, 0
1, 7245, Note_on_c, 1, 64, 0
1, 7248, Note_on_c, 0, 71, 92
1, 7248, Note_on_c, 1, 62, 92
1, 7254, Note_on_c, 0, 71, 0
1, 7254, Note_on_c, 0, 72, 92
1, 7260, Note_on_c, 0, 72, 0
1, 7260, Note_on_c, 0, 71, 92
1, 7289, Note_on_c, 1, 55, 0
1, 7293, Note_on_c, 0, 71, 0
1, 7293, Note_on_c, 1, 62, 0
1, 7296, Note_on_c, 0, 72, 92
1, 7296, Note_on_c, 1, 60, 92
1, 7296, Note_on_c, 1, 48, 92
1, 7385, Note_on_c, 0, 72, 0
1, 7385, Note_on_c, 1, 60, 0
1, 7385, Note_on_c, 1, 48, 0
1, 7392, Note_on_c, 0, 64, 80
1, 7437, Note_on_c, 0, 64, 0
1, 7440, Note_on_c, 0, 72, 80
1, 7440, Note_on_c, 1, 60, 75
1, 7440, Note_on_c, 1, 57, 75
1, 7463, Note_on_c, 0, 72, 0
1, 7464, Note_on_c, 0, 69, 80
1, 7485, Note_on_c, 1, 60, 0
1, 7485, Note_on_c, 1, 57, 0
1, 7487, Note_on_c, 0, 69, 0
1, 7488, Note_on_c, 0, 69, 80
1, 7488, Note_on_c, 1, 62, 75
1, 7488, Note_on_c, 1, 59, 75
1, 7511, Note_on_c, 0, 69, 0
1, 7512, Note_on_c, 0, 68, 80
1, 7535, Note_on_c, 0, 68, 0
1, 7536, Note_on_c, 0, 66, 80
1, 7559, Note_on_c, 0, 66, 0
1, 7560, Note_on_c, 0, 64, 80
1, 7577, Note_on_c, 1, 62, 0
1, 7577, Note_on_c, 1, 59, 0
1, 7583, Note_on_c, 0, 64, 0
1, 7584, Note_on_c, 0, 76, 80
1, 7584, Note_on_c, 0, 72, 80
1, 7604, Note_on_c, 0, 76, 0
1, 7604, Note_on_c, 0, 72, 0
1, 7632, Note_on_c, 0, 74, 80
1, 7632, Note_on_c, 0, 71, 80
1, 7632, Note_on_c, 1, 56, 75
1, 7652, Note_on_c, 0, 74, 0
1, 7652, Note_on_c, 0, 71, 0
1, 7677, Note_on_c, 1, 56, 0
1, 7680, Note_on_c, 0, 69, 80
1, 7680, Note_on_c, 0, 74, 80
1, 7680, Note_on_c, 1, 57, 75
1, 7692, Note_on_c, 0, 74, 0
1, 7692, Note_on_c, 0, 72, 80
1, 7704, Note_on_c, 0, 72, 0
1, 7704, Note_on_c, 0, 71, 80
1, 7716, Note_on_c, 0, 71, 0
1, 7716, Note_on_c, 0, 72, 80
1, 7725, Note_on_c, 0, 69, 0
1, 7725, Note_on_c, 1, 57, 0
1, 7728, Note_on_c, 0, 71, 80
1, 7728, Note_on_c, 0, 68, 80
1, 7728, Note_on_c, 0, 72, 0
1, 7728, Note_on_c, 1, 52, 75
1, 7773, Note_on_c, 0, 71, 0
1, 7773, Note_on_c, 0, 68, 0
1, 7773, Note_on_c, 1, 52, 0
1, 7776, Note_on_c, 0, 64, 80
1, 7776, Note_on_c, 1, 60, 75
1, 7776, Note_on_c, 1, 57, 75
1, 7821, Note_on_c, 0, 64, 0
1, 7821, Note_on_c, 1, 60, 0
1, 7821, Note_on_c, 1, 57, 0
1, 7824, Note_on_c, 0, 72, 80
1, 7824, Note_on_c, 1, 60, 75
1, 7824, Note_on_c, 1, 57, 75
1, 7847, Note_on_c, 0, 72, 0
1, 7848, Note_on_c, 0, 69, 80
1, 7869, Note_on_c, 1, 60, 0
1, 7869, Note_on_c, 1, 57, 0
1, 7871, Note_on_c, 0, 69, 0
1, 7872, Note_on_c, 0, 65, 80
1, 7872, Note_on_c, 1, 59, 80
1, 7872, Note_on_c, 1, 55, 80
1, 7892, Note_on_c, 0, 65, 0
1, 7917, Note_on_c, 1, 59, 0
1, 7917, Note_on_c, 1, 55, 0
1, 7920, Note_on_c, 0, 74, 81
1, 7920, Note_on_c, 1, 59, 81
1, 7920, Note_on_c, 1, 55, 81
1, 7944, Note_on_c, 0, 74, 0
1, 7944, Note_on_c, 0, 71, 82
1, 7965, Note_on_c, 1, 59, 0
1, 7965, Note_on_c, 1, 55, 0
1, 7967, Note_on_c, 0, 71, 0
1, 7968, Note_on_c, 0, 67, 83
1, 7968, Note_on_c, 1, 60, 83
1, 7968, Note_on_c, 1, 52, 83
1, 7968, Note_on_c, 1, 48, 83
1, 7988, Note_on_c, 0, 67, 0
1, 8013, Note_on_c, 1, 60, 0
1, 8013, Note_on_c, 1, 52, 0
1, 8013, Note_on_c, 1, 48, 0
1, 8016, Note_on_c, 0, 76, 85
1, 8016, Note_on_c, 1, 60, 85
1, 8016, Note_on_c, 1, 52, 85
1, 8016, Note_on_c, 1, 48, 85
1, 8040, Note_on_c, 0, 76, 0
1, 8040, Note_on_c, 0, 72, 86
1, 8061, Note_on_c, 1, 60, 0
1, 8061, Note_on_c, 1, 52, 0
1, 8061, Note_on_c, 1, 48, 0
1, 8063, Note_on_c, 0, 72, 0
1, 8064, Note_on_c, 0, 69, 86
1, 8064, Note_on_c, 1, 60, 86
1, 8064, Note_on_c, 1, 57, 86
1, 8064, Note_on_c, 1, 53, 86
1, 8084, Note_on_c, 0, 69, 0
1, 8109, Note_on_c, 1, 60, 0
1, 8109, Note_on_c, 1, 57, 0
1, 8109, Note_on_c, 1, 53, 0
1, 8112, Note_on_c, 0, 77, 88
1, 8112, Note_on_c, 1, 60, 88
1, 8112, Note_on_c, 1, 57, 88
1, 8112, Note_on_c, 1, 53, 88
1, 8136, Note_on_c, 0, 77, 0
1, 8136, Note_on_c, 0, 74, 89
1, 8157, Note_on_c, 1, 60, 0
1, 8157, Note_on_c, 1, 57, 0
1, 8157, Note_on_c, 1, 53, 0
1, 8159, Note_on_c, 0, 74, 0
1, 8160, Note_on_c, 0, 73, 90
1, 8160, Note_on_c, 1, 61, 90
1, 8160, Note_on_c, 1, 58, 90
1, 8160, Note_on_c, 1, 55, 90
1, 8160, Note_on_c, 1, 52, 90
1, 8180, Note_on_c, 0, 73, 0
1, 8205, Note_on_c, 1, 61, 0
1, 8205, Note_on_c, 1, 58, 0
1, 8205, Note_on_c, 1, 55, 0
1, 8205, Note_on_c, 1, 52, 0
1, 8208, Note_on_c, 0, 82, 92
1, 8208, Note_on_c, 1, 61, 92
1, 8208, Note_on_c, 1, 58, 92
1, 8208, Note_on_c, 1, 55, 92
1, 8208, Note_on_c, 1, 52, 92
1, 8232, Note_on_c, 0, 82, 0
1, 8232, Note_on_c, 0, 79, 92
1, 8253, Note_on_c, 1, 61, 0
1, 8253, Note_on_c, 1, 58, 0
1, 8253, Note_on_c, 1, 55, 0
1, 8253, Note_on_c, 1, 52, 0
1, 8255, Note_on_c, 0, 79, 0
1, 8256, Note_on_c, 0, 81, 92
1, 8256, Note_on_c, 1, 62, 92
1, 8256, Note_on_c, 1, 57, 92
1, 8256, Note_on_c, 1, 53, 92
1, 8256, Note_on_c, 1, 53, 64
1, 8301, Note_on_c, 0, 81, 0
1, 8304, Note_on_c, 0, 77, 92
1, 8327, Note_on_c, 0, 77, 0
1, 8328, Note_on_c, 0, 74, 92
1, 8345, Note_on_c, 1, 62, 0
1, 8345, Note_on_c, 1, 57, 0
1, 8345, Note_on_c, 1, 53, 0
1, 8345, Note_on_c, 1, 53, 0
1, 8351, Note_on_c, 0, 74, 0
1, 8352, Note_on_c, 0, 72, 92
1, 8352, Note_on_c, 1, 64, 92
1, 8352, Note_on_c, 1, 55, 64
1, 8397, Note_on_c, 0, 72, 0
1, 8397, Note_on_c, 1, 64, 0
1, 8400, Note_on_c, 0, 71, 92
1, 8400, Note_on_c, 1, 62, 92
1, 8406, Note_on_c, 0, 71, 0
1, 8406, Note_on_c, 0, 72, 92
1, 8412, Note_on_c, 0, 72, 0
1, 8412, Note_on_c, 0, 71, 92
1, 8441, Note_on_c, 1, 55, 0
1, 8445, Note_on_c, 0, 71, 0
1, 8445, Note_on_c, 1, 62, 0
1, 8448, Note_on_c, 0, 72, 92
1, 8448, Note_on_c, 1, 60, 92
1, 8448, Note_on_c, 1, 48, 92
1, 8537, Note_on_c, 0, 72, 0
1, 8537, Note_on_c, 1, 60, 0
1, 8537, Note_on_c, 1, 48, 0
1, 8544, Note_on_c, 0, 64, 85
1, 8544, Note_on_c, 1, 52, 85
1, 8589, Note_on_c, 0, 64, 0
1, 8589, Note_on_c, 1, 52, 0
1, 8592, Note_on_c, 0, 72, 85
1, 8592, Note_on_c, 1, 60, 85
1, 8615, Note_on_c, 0, 72, 0
1, 8615, Note_on_c, 1, 60, 0
1, 8616, Note_on_c, 0, 69, 85
1, 8616, Note_on_c, 1, 57, 85
1, 8639, Note_on_c, 0, 69, 0
1, 8639, Note_on_c, 1, 57, 0
1, 8640, Note_on_c, 0, 69, 85
1, 8640, Note_on_c, 1, 57, 85
1, 8663, Note_on_c, 0, 69, 0
1, 8663, Note_on_c, 1, 57, 0
1, 8664, Note_on_c, 0, 68, 85
1, 8664, Note_on_c, 1, 56, 85
1, 8687, Note_on_c, 0, 68, 0
1, 8687, Note_on_c, 1, 56, 0
1, 8688, Note_on_c, 0, 66, 85
1, 8688, Note_on_c, 1, 54, 85
1, 8711, Note_on_c, 0, 66, 0
1, 8711, Note_on_c, 1, 54, 0
1, 8712, Note_on_c, 0, 64, 85
1, 8712, Note_on_c, 1, 52, 85
1, 8735, Note_on_c, 0, 64, 0
1, 8735, Note_on_c, 1, 52, 0
1, 8736, Note_on_c, 0, 76, 85
1, 8736, Note_on_c, 1, 64, 85
1, 8781, Note_on_c, 0, 76, 0
1, 8781, Note_on_c, 1, 64, 0
1, 8784, Note_on_c, 0, 72, 85
1, 8784, Note_on_c, 1, 60, 85
1, 8807, Note_on_c, 0, 72, 0
1, 8807, Note_on_c, 1, 60, 0
1, 8808, Note_on_c, 0, 69, 85
1, 8808, Note_on_c, 1, 57, 85
1, 8831, Note_on_c, 0, 69, 0
1, 8831, Note_on_c, 1, 57, 0
1, 8832, Note_on_c, 0, 69, 85
1, 8832, Note_on_c, 1, 57, 85
1, 8855, Note_on_c, 0, 69, 0
1, 8855, Note_on_c, 1, 57, 0
1, 8856, Note_on_c, 0, 68, 85
1, 8856, Note_on_c, 1, 56, 85
1, 8879, Note_on_c, 0, 68, 0
1, 8879, Note_on_c, 1, 56, 0
1, 8880, Note_on_c, 0, 66, 85
1, 8880, Note_on_c, 1, 54, 85
1, 8903, Note_on_c, 0, 66, 0
1, 8903, Note_on_c, 1, 54, 0
1, 8904, Note_on_c, 0, 64, 85
1, 8904, Note_on_c, 1, 52, 85
1, 8927, Note_on_c, 0, 64, 0
1, 8927, Note_on_c, 1, 52, 0
1, 8928, Note_on_c, 0, 74, 85
1, 8928, Note_on_c, 1, 62, 85
1, 8973, Note_on_c, 0, 74, 0
1, 8973, Note_on_c, 1, 62, 0
1, 8976, Note_on_c, 0, 71, 85
1, 8976, Note_on_c, 1, 59, 85
1, 8999, Note_on_c, 0, 71, 0
1, 8999, Note_on_c, 1, 59, 0
1, 9000, Note_on_c, 0, 68, 85
1, 9000, Note_on_c, 1, 56, 85
1, 9023, Note_on_c, 0, 68, 0
1, 9023, Note_on_c, 1, 56, 0
1, 9024, Note_on_c, 0, 69, 85
1, 9024, Note_on_c, 1, 57, 85
1, 9069, Note_on_c, 0, 69, 0
1, 9069, Note_on_c, 1, 57, 0
1, 9072, Note_on_c, 0, 64, 85
1, 9072, Note_on_c, 1, 52, 85
1, 9095, Note_on_c, 0, 64, 0
1, 9095, Note_on_c, 1, 52, 0
1, 9096, Note_on_c, 0, 62, 85
1, 9096, Note_on_c, 1, 50, 85
1, 9119, Note_on_c, 0, 62, 0
1, 9119, Note_on_c, 1, 50, 0
1, 9120, Note_on_c, 0, 62, 85
1, 9120, Note_on_c, 1, 50, 85
1, 9143, Note_on_c, 0, 62, 0
1, 9143, Note_on_c, 1, 50, 0
1, 9144, Note_on_c, 0, 60, 85
1, 9144, Note_on_c, 1, 48, 85
1, 9167, Note_on_c, 0, 60, 0
1, 9167, Note_on_c, 1, 48, 0
1, 9168, Note_on_c, 0, 59, 85
1, 9168, Note_on_c, 1, 47, 85
1, 9191, Note_on_c, 0, 59, 0
1, 9191, Note_on_c, 1, 47, 0
1, 9192, Note_on_c, 0, 57, 85
1, 9192, Note_on_c, 1, 45, 85
1, 9215, Note_on_c, 0, 57, 0
1, 9215, Note_on_c, 1, 45, 0
1, 9216, Note_on_c, 0, 64, 85
1, 9216, Note_on_c, 1, 52, 85
1, 9305, Note_on_c, 0, 64, 0
1, 9305, Note_on_c, 1, 52, 0
1, 9312, Note_on_c, 0, 67, 80
1, 9312, Note_on_c, 1, 57, 80
1, 9312, Note_on_c, 1, 49, 80
1, 9357, Note_on_c, 0, 67, 0
1, 9357, Note_on_c, 1, 57, 0
1, 9357, Note_on_c, 1, 49, 0
1, 9360, Note_on_c, 0, 64, 82
1, 9360, Note_on_c, 1, 57, 82
1, 9360, Note_on_c, 1, 49, 82
1, 9383, Note_on_c, 0, 64, 0
1, 9384, Note_on_c, 0, 61, 83
1, 9405, Note_on_c, 1, 57, 0
1, 9405, Note_on_c, 1, 49, 0
1, 9407, Note_on_c, 0, 61, 0
1, 9408, Note_on_c, 0, 65, 84
1, 9408, Note_on_c, 1, 53, 84
1, 9408, Note_on_c, 1, 50, 84
1, 9453, Note_on_c, 0, 65, 0
1, 9453, Note_on_c, 1, 53, 0
1, 9453, Note_on_c, 1, 50, 0
1, 9456, Note_on_c, 0, 62, 86
1, 9456, Note_on_c, 1, 53, 86
1, 9456, Note_on_c, 1, 50, 86
1, 9479, Note_on_c, 0, 62, 0
1, 9480, Note_on_c, 0, 57, 87
1, 9501, Note_on_c, 1, 53, 0
1, 9501, Note_on_c, 1, 50, 0
1, 9503, Note_on_c, 0, 57, 0
1, 9504, Note_on_c, 0, 69, 88
1, 9504, Note_on_c, 1, 54, 88
1, 9504, Note_on_c, 1, 51, 88
1, 9549, Note_on_c, 0, 69, 0
1, 9549, Note_on_c, 1, 54, 0
1, 9549, Note_on_c, 1, 51, 0
1, 9552, Note_on_c, 0, 66, 90
1, 9552, Note_on_c, 1, 54, 90
1, 9552, Note_on_c, 1, 51, 90
1, 9575, Note_on_c, 0, 66, 0
1, 9576, Note_on_c, 0, 63, 91
1, 9597, Note_on_c, 1, 54, 0
1, 9597, Note_on_c, 1, 51, 0
1, 9599, Note_on_c, 0, 63, 0
1, 9600, Note_on_c, 0, 72, 92
1, 9600, Note_on_c, 1, 60, 92
1, 9600, Note_on_c, 1, 57, 92
1, 9600, Note_on_c, 1, 52, 92
1, 9645, Note_on_c, 0, 72, 0
1, 9648, Note_on_c, 0, 69, 92
1, 9671, Note_on_c, 0, 69, 0
1, 9672, Note_on_c, 0, 64, 92
1, 9695, Note_on_c, 0, 64, 0
1, 9696, Note_on_c, 0, 76, 92
1, 9741, Note_on_c, 0, 76, 0
1, 9744, Note_on_c, 0, 72, 92
1, 9767, Note_on_c, 0, 72, 0
1, 9768, Note_on_c, 0, 69, 92
1, 9791, Note_on_c, 0, 69, 0
1, 9792, Note_on_c, 0, 81, 92
1, 9837, Note_on_c, 0, 81, 0
1, 9840, Note_on_c, 0, 76, 92
1, 9863, Note_on_c, 0, 76, 0
1, 9864, Note_on_c, 0, 72, 92
1, 9881, Note_on_c, 1, 60, 0
1, 9881, Note_on_c, 1, 57, 0
1, 9881, Note_on_c, 1, 52, 0
1, 9887, Note_on_c, 0, 72, 0
1, 9888, Note_on_c, 0, 69, 92
1, 9888, Note_on_c, 1, 60, 92
1, 9888, Note_on_c, 1, 52, 92
1, 9933, Note_on_c, 0, 69, 0
1, 9933, Note_on_c, 1, 60, 0
1, 9933, Note_on_c, 1, 52, 0
1, 9936, Note_on_c, 0, 68, 92
1, 9936, Note_on_c, 1, 59, 92
1, 9936, Note_on_c, 1, 52, 92
1, 9942, Note_on_c, 0, 68, 0
1, 9942, Note_on_c, 0, 69, 92
1, 9948, Note_on_c, 0, 69, 0
1, 9948, Note_on_c, 0, 68, 92
1, 9981, Note_on_c, 0, 68, 0
1, 9981, Note_on_c, 1, 59, 0
1, 9981, Note_on_c, 1, 52, 0
1, 9984, Note_on_c, 0, 69, 92
1, 9984, Note_on_c, 1, 57, 92
1, 9984, Note_on_c, 1, 45, 92
1, 10073, Note_on_c, 0, 69, 0
1, 10073, Note_on_c, 1, 57, 0
1, 10073, Note_on_c, 1, 45, 0
1, 10080, Note_on_c, 0, 64, 85
1, 10080, Note_on_c, 1, 52, 85
1, 10125, Note_on_c, 0, 64, 0
1, 10125, Note_on_c, 1, 52, 0
1, 10128, Note_on_c, 0, 72, 85
1, 10128, Note_on_c, 1, 60, 85
1, 10151, Note_on_c, 0, 72, 0
1, 10151, Note_on_c, 1, 60, 0
1, 10152, Note_on_c, 0, 69, 85
1, 10152, Note_on_c, 1, 57, 85
1, 10175, Note_on_c, 0, 69, 0
1, 10175, Note_on_c, 1, 57, 0
1, 10176, Note_on_c, 0, 69, 85
1, 10176, Note_on_c, 1, 57, 85
1, 10199, Note_on_c, 0, 69, 0
1, 10199, Note_on_c, 1, 57, 0
1, 10200, Note_on_c, 0, 68, 85
1, 10200, Note_on_c, 1, 56, 85
1, 10223, Note_on_c, 0, 68, 0
1, 10223, Note_on_c, 1, 56, 0
1, 10224, Note_on_c, 0, 66, 85
1, 10224, Note_on_c, 1, 54, 85
1, 10247, Note_on_c, 0, 66, 0
1, 10247, Note_on_c, 1, 54, 0
1, 10248, Note_on_c, 0, 64, 85
1, 10248, Note_on_c, 1, 52, 85
1, 10271, Note_on_c, 0, 64, 0
1, 10271, Note_on_c, 1, 52, 0
1, 10272, Note_on_c, 0, 76, 85
1, 10272, Note_on_c, 1, 64, 85
1, 10317, Note_on_c, 0, 76, 0
1, 10317, Note_on_c, 1, 64, 0
1, 10320, Note_on_c, 0, 72, 85
1, 10320, Note_on_c, 1, 60, 85
1, 10343, Note_on_c, 0, 72, 0
1, 10343, Note_on_c, 1, 60, 0
1, 10344, Note_on_c, 0, 69, 85
1, 10344, Note_on_c, 1, 57, 85
1, 10367, Note_on_c, 0, 69, 0
1, 10367, Note_on_c, 1, 57, 0
1, 10368, Note_on_c, 0, 69, 85
1, 10368, Note_on_c, 1, 57, 85
1, 10391, Note_on_c, 0, 69, 0
1, 10391, Note_on_c, 1, 57, 0
1, 10392, Note_on_c, 0, 68, 85
1, 10392, Note_on_c, 1, 56, 85
1, 10415, Note_on_c, 0, 68, 0
1, 10415, Note_on_c, 1, 56, 0
1, 10416, Note_on_c, 0, 66, 85
1, 10416, Note_on_c, 1, 54, 85
1, 10439, Note_on_c, 0, 66, 0
1, 10439, Note_on_c, 1, 54, 0
1, 10440, Note_on_c, 0, 64, 85
1, 10440, Note_on_c, 1, 52, 85
1, 10463, Note_on_c, 0, 64, 0
1, 10463, Note_on_c, 1, 52, 0
1, 10464, Note_on_c, 0, 74, 85
1, 10464, Note_on_c, 1, 62, 85
1, 10509, Note_on_c, 0, 74, 0
1, 10509, Note_on_c, 1, 62, 0
1, 10512, Note_on_c, 0, 71, 85
1, 10512, Note_on_c, 1, 59, 85
1, 10535, Note_on_c, 0, 71, 0
1, 10535, Note_on_c, 1, 59, 0
1, 10536, Note_on_c, 0, 68, 85
1, 10536, Note_on_c, 1, 56, 85
1, 10559, Note_on_c, 0, 68, 0
1, 10559, Note_on_c, 1, 56, 0
1, 10560, Note_on_c, 0, 69, 85
1, 10560, Note_on_c, 1, 57, 85
1, 10605, Note_on_c, 0, 69, 0
1, 10605, Note_on_c, 1, 57, 0
1, 10608, Note_on_c, 0, 64, 85
1, 10608, Note_on_c, 1, 52, 85
1, 10631, Note_on_c, 0, 64, 0
1, 10631, Note_on_c, 1, 52, 0
1, 10632, Note_on_c, 0, 62, 85
1, 10632, Note_on_c, 1, 50, 85
1, 10655, Note_on_c, 0, 62, 0
1, 10655, Note_on_c, 1, 50, 0
1, 10656, Note_on_c, 0, 62, 85
1, 10656, Note_on_c, 1, 50, 85
1, 10679, Note_on_c, 0, 62, 0
1, 10679, Note_on_c, 1, 50, 0
1, 10680, Note_on_c, 0, 60, 85
1, 10680, Note_on_c, 1, 48, 85
1, 10703, Note_on_c, 0, 60, 0
1, 10703, Note_on_c, 1, 48, 0
1, 10704, Note_on_c, 0, 59, 85
1, 10704, Note_on_c, 1, 47, 85
1, 10727, Note_on_c, 0, 59, 0
1, 10727, Note_on_c, 1, 47, 0
1, 10728, Note_on_c, 0, 57, 85
1, 10728, Note_on_c, 1, 45, 85
1, 10751, Note_on_c, 0, 57, 0
1, 10751, Note_on_c, 1, 45, 0
1, 10752, Note_on_c, 0, 64, 85
1, 10752, Note_on_c, 1, 52, 85
1, 10841, Note_on_c, 0, 64, 0
1, 10841, Note_on_c, 1, 52, 0
1, 10848, Note_on_c, 0, 67, 80
1, 10848, Note_on_c, 1, 57, 80
1, 10848, Note_on_c, 1, 49, 80
1, 10893, Note_on_c, 0, 67, 0
1, 10893, Note_on_c, 1, 57, 0
1, 10893, Note_on_c, 1, 49, 0
1, 10896, Note_on_c, 0, 64, 82
1, 10896, Note_on_c, 1, 57, 82
1, 10896, Note_on_c, 1, 49, 82
1, 10919, Note_on_c, 0, 64, 0
1, 10920, Note_on_c, 0, 61, 83
1, 10941, Note_on_c, 1, 57, 0
1, 10941, Note_on_c, 1, 49, 0
1, 10943, Note_on_c, 0, 61, 0
1, 10944, Note_on_c, 0, 65, 84
1, 10944, Note_on_c, 1, 53, 84
1, 10944, Note_on_c, 1, 50, 84
1, 10989, Note_on_c, 0, 65, 0
1, 10989, Note_on_c, 1, 53, 0
1, 10989, Note_on_c, 1, 50, 0
1, 10992, Note_on_c, 0, 62, 86
1, 10992, Note_on_c, 1, 53, 86
1, 10992, Note_on_c, 1, 50, 86
1, 11015, Note_on_c, 0, 62, 0
1, 11016, Note_on_c, 0, 57, 87
1, 11037, Note_on_c, 1, 53, 0
1, 11037, Note_on_c, 1, 50, 0
1, 11039, Note_on_c, 0, 57, 0
1, 11040, Note_on_c, 0, 69, 88
1, 11040, Note_on_c, 1, 54, 88
1, 11040, Note_on_c, 1, 51, 88
1, 11085, Note_on_c, 0, 69, 0
1, 11085, Note_on_c, 1, 54, 0
1, 11085, Note_on_c, 1, 51, 0
1, 11088, Note_on_c, 0, 66, 90
1, 11088, Note_on_c, 1, 54, 90
1, 11088, Note_on_c, 1, 51, 90
1, 11111, Note_on_c, 0, 66, 0
1, 11112, Note_on_c, 0, 63, 91
1, 11133, Note_on_c, 1, 54, 0
1, 11133, Note_on_c, 1, 51, 0
1, 11135, Note_on_c, 0, 63, 0
1, 11136, Note_on_c, 0, 72, 92
1, 11136, Note_on_c, 1, 60, 92
1, 11136, Note_on_c, 1, 57, 92
1, 11136, Note_on_c, 1, 52, 92
1, 11181, Note_on_c, 0, 72, 0
1, 11184, Note_on_c, 0, 69, 92
1, 11207, Note_on_c, 0, 69, 0
1, 11208, Note_on_c, 0, 64, 92
1, 11231, Note_on_c, 0, 64, 0
1, 11232, Note_on_c, 0, 76, 92
1, 11277, Note_on_c, 0, 76, 0
1, 11280, Note_on_c, 0, 72, 92
1, 11303, Note_on_c, 0, 72, 0
1, 11304, Note_on_c, 0, 69, 92
1, 11327, Note_on_c, 0, 69, 0
1, 11328, Note_on_c, 0, 81, 92
1, 11373, Note_on_c, 0, 81, 0
1, 11376, Note_on_c, 0, 76, 92
1, 11399, Note_on_c, 0, 76, 0
1, 11400, Note_on_c, 0, 72, 92
1, 11417, Note_on_c, 1, 60, 0
1, 11417, Note_on_c, 1, 57, 0
1, 11417, Note_on_c, 1, 52, 0
1, 11423, Note_on_c, 0, 72, 0
1, 11424, Note_on_c, 0, 69, 92
1, 11424, Note_on_c, 1, 60, 92
1, 11424, Note_on_c, 1, 52, 92
1, 11469, Note_on_c, 0, 69, 0
1, 11469, Note_on_c, 1, 60, 0
1, 11469, Note_on_c, 1, 52, 0
1, 11472, Note_on_c, 0, 68, 92
1, 11472, Note_on_c, 1, 59, 92
1, 11472, Note_on_c, 1, 52, 92
1, 11478, Note_on_c, 0, 68, 0
1, 11478, Note_on_c, 0, 69, 92
1, 11484, Note_on_c, 0, 69, 0
1, 11484, Note_on_c, 0, 68, 92
1, 11517, Note_on_c, 0, 68, 0
1, 11517, Note_on_c, 1, 59, 0
1, 11517, Note_on_c, 1, 52, 0
1, 11520, Note_on_c, 0, 69, 92
1, 11520, Note_on_c, 1, 57, 92
1, 11520, Note_on_c, 1, 45, 92
1, 11609, Note_on_c, 0, 69, 0
1, 11609, Note_on_c, 1, 57, 0
1, 11609, Note_on_c, 1, 45, 0
1, 11616, Note_on_c, 0, 73, 75
1, 11683, Note_on_c, 0, 73, 0
1, 11688, Note_on_c, 0, 74, 75
1, 11700, Note_on_c, 0, 74, 0
1, 11700, Note_on_c, 0, 76, 75
1, 11712, Note_on_c, 0, 76, 0
1, 11712, Note_on_c, 0, 69, 75
1, 11712, Note_on_c, 1, 61, 75
1, 11712, Note_on_c, 1, 57, 75
1, 11757, Note_on_c, 0, 69, 0
1, 11757, Note_on_c, 1, 61, 0
1, 11757, Note_on_c, 1, 57, 0
1, 11760, Note_on_c, 0, 69, 75
1, 11760, Note_on_c, 1, 61, 75
1, 11760, Note_on_c, 1, 57, 75
1, 11805, Note_on_c, 0, 69, 0
1, 11805, Note_on_c, 1, 61, 0
1, 11805, Note_on_c, 1, 57, 0
1, 11808, Note_on_c, 0, 73, 75
1, 11808, Note_on_c, 1, 62, 75
1, 11808, Note_on_c, 1, 52, 75
1, 11831, Note_on_c, 0, 73, 0
1, 11832, Note_on_c, 0, 71, 75
1, 11853, Note_on_c, 1, 62, 0
1, 11853, Note_on_c, 1, 52, 0
1, 11855, Note_on_c, 0, 71, 0
1, 11856, Note_on_c, 0, 69, 75
1, 11856, Note_on_c, 1, 62, 75
1, 11856, Note_on_c, 1, 52, 75
1, 11879, Note_on_c, 0, 69, 0
1, 11880, Note_on_c, 0, 71, 75
1, 11901, Note_on_c, 1, 62, 0
1, 11901, Note_on_c, 1, 52, 0
1, 11903, Note_on_c, 0, 71, 0
1, 11904, Note_on_c, 0, 69, 75
1, 11904, Note_on_c, 1, 61, 75
1, 11904, Note_on_c, 1, 57, 75
1, 11949, Note_on_c, 0, 69, 0
1, 11949, Note_on_c, 1, 61, 0
1, 11949, Note_on_c, 1, 57, 0
1, 12000, Note_on_c, 0, 78, 75
1, 12000, Note_on_c, 1, 57, 75
1, 12000, Note_on_c, 1, 50, 75
1, 12067, Note_on_c, 0, 78, 0
1, 12072, Note_on_c, 0, 80, 75
1, 12084, Note_on_c, 0, 80, 0
1, 12084, Note_on_c, 0, 81, 75
1, 12089, Note_on_c, 1, 57, 0
1, 12089, Note_on_c, 1, 50, 0
1, 12096, Note_on_c, 0, 81, 0
1, 12096, Note_on_c, 0, 76, 75
1, 12096, Note_on_c, 1, 57, 75
1, 12096, Note_on_c, 1, 49, 75
1, 12141, Note_on_c, 0, 76, 0
1, 12141, Note_on_c, 1, 57, 0
1, 12141, Note_on_c, 1, 49, 0
1, 12144, Note_on_c, 0, 76, 75
1, 12144, Note_on_c, 0, 73, 75
1, 12144, Note_on_c, 1, 61, 75
1, 12189, Note_on_c, 0, 76, 0
1, 12189, Note_on_c, 0, 73, 0
1, 12189, Note_on_c, 1, 61, 0
1, 12192, Note_on_c, 0, 74, 76
1, 12192, Note_on_c, 0, 71, 80
1, 12192, Note_on_c, 1, 62, 75
1, 12198, Note_on_c, 0, 74, 0
1, 12198, Note_on_c, 0, 76, 76
1, 12204, Note_on_c, 0, 76, 0
1, 12204, Note_on_c, 0, 74, 76
1, 12237, Note_on_c, 0, 74, 0
1, 12237, Note_on_c, 0, 71, 0
1, 12237, Note_on_c, 1, 62, 0
1, 12240, Note_on_c, 0, 73, 78
1, 12240, Note_on_c, 0, 69, 78
1, 12240, Note_on_c, 1, 63, 75
1, 12285, Note_on_c, 0, 73, 0
1, 12285, Note_on_c, 0, 69, 0
1, 12285, Note_on_c, 1, 63, 0
1, 12288, Note_on_c, 0, 71, 80
1, 12288, Note_on_c, 0, 68, 80
1, 12288, Note_on_c, 1, 64, 75
1, 12377, Note_on_c, 0, 71, 0
1, 12377, Note_on_c, 0, 68, 0
1, 12377, Note_on_c, 1, 64, 0
1, 12384, Note_on_c, 0, 57, 85
1, 12407, Note_on_c, 0, 57, 0
1, 12408, Note_on_c, 0, 61, 85
1, 12431, Note_on_c, 0, 61, 0
1, 12432, Note_on_c, 0, 64, 85
1, 12455, Note_on_c, 0, 64, 0
1, 12456, Note_on_c, 0, 69, 85
1, 12479, Note_on_c, 0, 69, 0
1, 12480, Note_on_c, 0, 73, 85
1, 12480, Note_on_c, 1, 61, 80
1, 12480, Note_on_c, 1, 57, 80
1, 12503, Note_on_c, 0, 73, 0
1, 12504, Note_on_c, 0, 76, 85
1, 12525, Note_on_c, 1, 61, 0
1, 12525, Note_on_c, 1, 57, 0
1, 12527, Note_on_c, 0, 76, 0
1, 12528, Note_on_c, 0, 73, 85
1, 12528, Note_on_c, 1, 61, 80
1, 12528, Note_on_c, 1, 57, 80
1, 12551, Note_on_c, 0, 73, 0
1, 12552, Note_on_c, 0, 69, 85
1, 12573, Note_on_c, 1, 61, 0
1, 12573, Note_on_c, 1, 57, 0
1, 12575, Note_on_c, 0, 69, 0
1, 12576, Note_on_c, 0, 71, 85
1, 12576, Note_on_c, 1, 62, 80
1, 12576, Note_on_c, 1, 52, 80
1, 12599, Note_on_c, 0, 71, 0
1, 12600, Note_on_c, 0, 74, 85
1, 12621, Note_on_c, 1, 62, 0
1, 12621, Note_on_c, 1, 52, 0
1, 12623, Note_on_c, 0, 74, 0
1, 12624, Note_on_c, 0, 71, 85
1, 12624, Note_on_c, 1, 62, 80
1, 12624, Note_on_c, 1, 52, 80
1, 12647, Note_on_c, 0, 71, 0
1, 12648, Note_on_c, 0, 68, 85
1, 12669, Note_on_c, 1, 62, 0
1, 12669, Note_on_c, 1, 52, 0
1, 12671, Note_on_c, 0, 68, 0
1, 12672, Note_on_c, 0, 69, 85
1, 12672, Note_on_c, 1, 61, 80
1, 12672, Note_on_c, 1, 57, 80
1, 12695, Note_on_c, 0, 69, 0
1, 12696, Note_on_c, 0, 71, 85
1, 12719, Note_on_c, 0, 71, 0
1, 12720, Note_on_c, 0, 73, 85
1, 12743, Note_on_c, 0, 73, 0
1, 12744, Note_on_c, 0, 74, 85
1, 12761, Note_on_c, 1, 61, 0
1, 12761, Note_on_c, 1, 57, 0
1, 12767, Note_on_c, 0, 74, 0
1, 12768, Note_on_c, 0, 76, 85
1, 12791, Note_on_c, 0, 76, 0
1, 12792, Note_on_c, 0, 78, 85
1, 12815, Note_on_c, 0, 78, 0
1, 12816, Note_on_c, 0, 80, 85
1, 12839, Note_on_c, 0, 80, 0
1, 12840, Note_on_c, 0, 81, 85
1, 12863, Note_on_c, 0, 81, 0
1, 12864, Note_on_c, 0, 76, 85
1, 12887, Note_on_c, 0, 76, 0
1, 12888, Note_on_c, 0, 80, 85
1, 12911, Note_on_c, 0, 80, 0
1, 12912, Note_on_c, 0, 81, 85
1, 12912, Note_on_c, 1, 61, 80
1, 12935, Note_on_c, 0, 81, 0
1, 12936, Note_on_c, 0, 85, 85
1, 12957, Note_on_c, 1, 61, 0
1, 12959, Note_on_c, 0, 85, 0
1, 12960, Note_on_c, 0, 74, 85
1, 12960, Note_on_c, 1, 62, 80
1, 12983, Note_on_c, 0, 74, 0
1, 12984, Note_on_c, 0, 83, 85
1, 13005, Note_on_c, 1, 62, 0
1, 13007, Note_on_c, 0, 83, 0
1, 13008, Note_on_c, 0, 73, 85
1, 13008, Note_on_c, 1, 63, 80
1, 13031, Note_on_c, 0, 73, 0
1, 13032, Note_on_c, 0, 81, 85
1, 13053, Note_on_c, 1, 63, 0
1, 13055, Note_on_c, 0, 81, 0
1, 13056, Note_on_c, 0, 71, 85
1, 13056, Note_on_c, 1, 64, 64
1, 13079, Note_on_c, 0, 71, 0
1, 13080, Note_on_c, 0, 75, 85
1, 13103, Note_on_c, 0, 75, 0
1, 13104, Note_on_c, 0, 76, 85
1, 13127, Note_on_c, 0, 76, 0
1, 13128, Note_on_c, 0, 80, 85
1, 13151, Note_on_c, 0, 80, 0
1, 13152, Note_on_c, 0, 75, 85
1, 13152, Note_on_c, 1, 68, 80
1, 13175, Note_on_c, 0, 75, 0
1, 13176, Note_on_c, 0, 76, 85
1, 13199, Note_on_c, 0, 76, 0
1, 13200, Note_on_c, 0, 80, 85
1, 13223, Note_on_c, 0, 80, 0
1, 13224, Note_on_c, 0, 83, 85
1, 13241, Note_on_c, 1, 68, 0
1, 13247, Note_on_c, 0, 83, 0
1, 13248, Note_on_c, 0, 72, 85
1, 13248, Note_on_c, 1, 69, 80
1, 13271, Note_on_c, 0, 72, 0
1, 13272, Note_on_c, 0, 73, 85
1, 13295, Note_on_c, 0, 73, 0
1, 13296, Note_on_c, 0, 76, 85
1, 13319, Note_on_c, 0, 76, 0
1, 13320, Note_on_c, 0, 81, 85
1, 13337, Note_on_c, 1, 69, 0
1, 13343, Note_on_c, 0, 81, 0
1, 13344, Note_on_c, 0, 69, 85
1, 13344, Note_on_c, 1, 66, 80
1, 13367, Note_on_c, 0, 69, 0
1, 13368, Note_on_c, 0, 75, 85
1, 13391, Note_on_c, 0, 75, 0
1, 13392, Note_on_c, 0, 78, 85
1, 13415, Note_on_c, 0, 78, 0
1, 13416, Note_on_c, 0, 81, 85
1, 13433, Note_on_c, 1, 66, 0
1, 13439, Note_on_c, 0, 81, 0
1, 13440, Note_on_c, 0, 71, 85
1, 13440, Note_on_c, 1, 68, 80
1, 13463, Note_on_c, 0, 71, 0
1, 13464, Note_on_c, 0, 75, 85
1, 13487, Note_on_c, 0, 75, 0
1, 13488, Note_on_c, 0, 76, 85
1, 13511, Note_on_c, 0, 76, 0
1, 13512, Note_on_c, 0, 80, 85
1, 13529, Note_on_c, 1, 68, 0
1, 13529, Note_on_c, 1, 64, 0
1, 13535, Note_on_c, 0, 80, 0
1, 13536, Note_on_c, 0, 76, 85
1, 13536, Note_on_c, 1, 64, 80
1, 13536, Note_on_c, 1, 56, 64
1, 13559, Note_on_c, 0, 76, 0
1, 13560, Note_on_c, 0, 80, 85
1, 13583, Note_on_c, 0, 80, 0
1, 13584, Note_on_c, 0, 83, 85
1, 13607, Note_on_c, 0, 83, 0
1, 13608, Note_on_c, 0, 88, 85
1, 13625, Note_on_c, 1, 64, 0
1, 13625, Note_on_c, 1, 56, 0
1, 13631, Note_on_c, 0, 88, 0
1, 13632, Note_on_c, 0, 85, 85
1, 13632, Note_on_c, 1, 64, 80
1, 13632, Note_on_c, 1, 57, 64
1, 13655, Note_on_c, 0, 85, 0
1, 13656, Note_on_c, 0, 88, 85
1, 13679, Note_on_c, 0, 88, 0
1, 13680, Note_on_c, 0, 85, 85
1, 13703, Note_on_c, 0, 85, 0
1, 13704, Note_on_c, 0, 81, 85
1, 13721, Note_on_c, 1, 57, 0
1, 13727, Note_on_c, 0, 81, 0
1, 13728, Note_on_c, 0, 80, 85
1, 13728, Note_on_c, 1, 59, 64
1, 13751, Note_on_c, 0, 80, 0
1, 13752, Note_on_c, 0, 83, 85
1, 13765, Note_on_c, 1, 64, 0
1, 13775, Note_on_c, 0, 83, 0
1, 13776, Note_on_c, 0, 75, 85
1, 13776, Note_on_c, 1, 63, 80
1, 13799, Note_on_c, 0, 75, 0
1, 13800, Note_on_c, 0, 78, 85
1, 13817, Note_on_c, 1, 59, 0
1, 13821, Note_on_c, 1, 63, 0
1, 13823, Note_on_c, 0, 78, 0
1, 13824, Note_on_c, 0, 76, 85
1, 13824, Note_on_c, 1, 64, 80
1, 13913, Note_on_c, 0, 76, 0
1, 13913, Note_on_c, 1, 64, 0
1, 13920, Note_on_c, 0, 57, 80
1, 13943, Note_on_c, 0, 57, 0
1, 13944, Note_on_c, 0, 61, 80
1, 13967, Note_on_c, 0, 61, 0
1, 13968, Note_on_c, 0, 64, 80
1, 13991, Note_on_c, 0, 64, 0
1, 13992, Note_on_c, 0, 69, 80
1, 14015, Note_on_c, 0, 69, 0
1, 14016, Note_on_c, 0, 73, 85
1, 14016, Note_on_c, 1, 61, 80
1, 14016, Note_on_c, 1, 57, 80
1, 14039, Note_on_c, 0, 73, 0
1, 14040, Note_on_c, 0, 76, 85
1, 14061, Note_on_c, 1, 61, 0
1, 14061, Note_on_c, 1, 57, 0
1, 14063, Note_on_c, 0, 76, 0
1, 14064, Note_on_c, 0, 73, 85
1, 14064, Note_on_c, 1, 61, 80
1, 14064, Note_on_c, 1, 57, 80
1, 14087, Note_on_c, 0, 73, 0
1, 14088, Note_on_c, 0, 69, 85
1, 14109, Note_on_c, 1, 61, 0
1, 14109, Note_on_c, 1, 57, 0
1, 14111, Note_on_c, 0, 69, 0
1, 14112, Note_on_c, 0, 71, 85
1, 14112, Note_on_c, 1, 62, 80
1, 14112, Note_on_c, 1, 52, 80
1, 14135, Note_on_c, 0, 71, 0
1, 14136, Note_on_c, 0, 74, 85
1, 14157, Note_on_c, 1, 62, 0
1, 14157, Note_on_c, 1, 52, 0
1, 14159, Note_on_c, 0, 74, 0
1, 14160, Note_on_c, 0, 71, 85
1, 14160, Note_on_c, 1, 62, 80
1, 14160, Note_on_c, 1, 52, 80
1, 14183, Note_on_c, 0, 71, 0
1, 14184, Note_on_c, 0, 68, 85
1, 14205, Note_on_c, 1, 62, 0
1, 14205, Note_on_c, 1, 52, 0
1, 14207, Note_on_c, 0, 68, 0
1, 14208, Note_on_c, 0, 69, 85
1, 14208, Note_on_c, 1, 61, 80
1, 14208, Note_on_c, 1, 57, 80
1, 14231, Note_on_c, 0, 69, 0
1, 14232, Note_on_c, 0, 71, 85
1, 14255, Note_on_c, 0, 71, 0
1, 14256, Note_on_c, 0, 73, 85
1, 14279, Note_on_c, 0, 73, 0
1, 14280, Note_on_c, 0, 74, 85
1, 14297, Note_on_c, 1, 61, 0
1, 14297, Note_on_c, 1, 57, 0
1, 14303, Note_on_c, 0, 74, 0
1, 14304, Note_on_c, 0, 76, 85
1, 14327, Note_on_c, 0, 76, 0
1, 14328, Note_on_c, 0, 78, 85
1, 14351, Note_on_c, 0, 78, 0
1, 14352, Note_on_c, 0, 80, 85
1, 14375, Note_on_c, 0, 80, 0
1, 14376, Note_on_c, 0, 81, 85
1, 14399, Note_on_c, 0, 81, 0
1, 14400, Note_on_c, 0, 76, 85
1, 14423, Note_on_c, 0, 76, 0
1, 14424, Note_on_c, 0, 80, 85
1, 14447, Note_on_c, 0, 80, 0
1, 14448, Note_on_c, 0, 81, 85
1, 14448, Note_on_c, 1, 61, 80
1, 14471, Note_on_c, 0, 81, 0
1, 14472, Note_on_c, 0, 85, 85
1, 14493, Note_on_c, 1, 61, 0
1, 14495, Note_on_c, 0, 85, 0
1, 14496, Note_on_c, 0, 74, 85
1, 14496, Note_on_c, 1, 62, 80
1, 14519, Note_on_c, 0, 74, 0
1, 14520, Note_on_c, 0, 83, 85
1, 14541, Note_on_c, 1, 62, 0
1, 14543, Note_on_c, 0, 83, 0
1, 14544, Note_on_c, 0, 73, 85
1, 14544, Note_on_c, 1, 63, 80
1, 14567, Note_on_c, 0, 73, 0
1, 14568, Note_on_c, 0, 81, 85
1, 14589, Note_on_c, 1, 63, 0
1, 14591, Note_on_c, 0, 81, 0
1, 14592, Note_on_c, 0, 71, 85
1, 14592, Note_on_c, 1, 64, 64
1, 14615, Note_on_c, 0, 71, 0
1, 14616, Note_on_c, 0, 75, 85
1, 14639, Note_on_c, 0, 75, 0
1, 14640, Note_on_c, 0, 76, 85
1, 14663, Note_on_c, 0, 76, 0
1, 14664, Note_on_c, 0, 80, 85
1, 14687, Note_on_c, 0, 80, 0
1, 14688, Note_on_c, 0, 75, 85
1, 14688, Note_on_c, 1, 68, 80
1, 14711, Note_on_c, 0, 75, 0
1, 14712, Note_on_c, 0, 76, 85
1, 14735, Note_on_c, 0, 76, 0
1, 14736, Note_on_c, 0, 80, 85
1, 14759, Note_on_c, 0, 80, 0
1, 14760, Note_on_c, 0, 83, 85
1, 14777, Note_on_c, 1, 68, 0
1, 14783, Note_on_c, 0, 83, 0
1, 14784, Note_on_c, 0, 72, 85
1, 14784, Note_on_c, 1, 69, 80
1, 14807, Note_on_c, 0, 72, 0
1, 14808, Note_on_c, 0, 73, 85
1, 14831, Note_on_c, 0, 73, 0
1, 14832, Note_on_c, 0, 76, 85
1, 14855, Note_on_c, 0, 76, 0
1, 14856, Note_on_c, 0, 81, 85
1, 14873, Note_on_c, 1, 69, 0
1, 14879, Note_on_c, 0, 81, 0
1, 14880, Note_on_c, 0, 69, 85
1, 14880, Note_on_c, 1, 66, 80
1, 14903, Note_on_c, 0, 69, 0
1, 14904, Note_on_c, 0, 75, 85
1, 14927, Note_on_c, 0, 75, 0
1, 14928, Note_on_c, 0, 78, 85
1, 14951, Note_on_c, 0, 78, 0
1, 14952, Note_on_c, 0, 81, 85
1, 14969, Note_on_c, 1, 66, 0
1, 14975, Note_on_c, 0, 81, 0
1, 14976, Note_on_c, 0, 71, 85
1, 14976, Note_on_c, 1, 68, 80
1, 14999, Note_on_c, 0, 71, 0
1, 15000, Note_on_c, 0, 75, 85
1, 15023, Note_on_c, 0, 75, 0
1, 15024, Note_on_c, 0, 76, 85
1, 15047, Note_on_c, 0, 76, 0
1, 15048, Note_on_c, 0, 80, 85
1, 15065, Note_on_c, 1, 68, 0
1, 15065, Note_on_c, 1, 64, 0
1, 15071, Note_on_c, 0, 80, 0
1, 15072, Note_on_c, 0, 76, 85
1, 15072, Note_on_c, 1, 64, 80
1, 15072, Note_on_c, 1, 56, 64
1, 15095, Note_on_c, 0, 76, 0
1, 15096, Note_on_c, 0, 80, 85
1, 15119, Note_on_c, 0, 80, 0
1, 15120, Note_on_c, 0, 83, 85
1, 15143, Note_on_c, 0, 83, 0
1, 15144, Note_on_c, 0, 88, 85
1, 15161, Note_on_c, 1, 64, 0
1, 15161, Note_on_c, 1, 56, 0
1, 15167, Note_on_c, 0, 88, 0
1, 15168, Note_on_c, 0, 85, 85
1, 15168, Note_on_c, 1, 64, 80
1, 15168, Note_on_c, 1, 57, 64
1, 15191, Note_on_c, 0, 85, 0
1, 15192, Note_on_c, 0, 88, 85
1, 15215, Note_on_c, 0, 88, 0
1, 15216, Note_on_c, 0, 85, 85
1, 15239, Note_on_c, 0, 85, 0
1, 15240, Note_on_c, 0, 81, 85
1, 15257, Note_on_c, 1, 57, 0
1, 15263, Note_on_c, 0, 81, 0
1, 15264, Note_on_c, 0, 80, 85
1, 15264, Note_on_c, 1, 59, 64
1, 15287, Note_on_c, 0, 80, 0
1, 15288, Note_on_c, 0, 83, 85
1, 15301, Note_on_c, 1, 64, 0
1, 15311, Note_on_c, 0, 83, 0
1, 15312, Note_on_c, 0, 75, 85
1, 15312, Note_on_c, 1, 63, 80
1, 15335, Note_on_c, 0, 75, 0
1, 15336, Note_on_c, 0, 78, 85
1, 15353, Note_on_c, 1, 59, 0
1, 15357, Note_on_c, 1, 63, 0
1, 15359, Note_on_c, 0, 78, 0
1, 15360, Note_on_c, 0, 76, 85
1, 15360, Note_on_c, 1, 64, 80
1, 15449, Note_on_c, 0, 76, 0
1, 15449, Note_on_c, 1, 64, 0
1, 15456, Note_on_c, 0, 76, 75
1, 15479, Note_on_c, 0, 76, 0
1, 15480, Note_on_c, 0, 79, 75
1, 15503, Note_on_c, 0, 79, 0
1, 15504, Note_on_c, 0, 74, 75
1, 15527, Note_on_c, 0, 74, 0
1, 15528, Note_on_c, 0, 78, 75
1, 15551, Note_on_c, 0, 78, 0
1, 15552, Note_on_c, 0, 73, 75
1, 15552, Note_on_c, 1, 67, 58
1, 15552, Note_on_c, 1, 64, 58
1, 15575, Note_on_c, 0, 73, 0
1, 15576, Note_on_c, 0, 76, 75
1, 15597, Note_on_c, 1, 67, 0
1, 15597, Note_on_c, 1, 64, 0
1, 15599, Note_on_c, 0, 76, 0
1, 15600, Note_on_c, 0, 73, 75
1, 15600, Note_on_c, 1, 67, 58
1, 15600, Note_on_c, 1, 64, 58
1, 15623, Note_on_c, 0, 73, 0
1, 15624, Note_on_c, 0, 76, 75
1, 15645, Note_on_c, 1, 67, 0
1, 15645, Note_on_c, 1, 64, 0
1, 15647, Note_on_c, 0, 76, 0
1, 15648, Note_on_c, 0, 71, 75
1, 15648, Note_on_c, 1, 66, 58
1, 15648, Note_on_c, 1, 62, 58
1, 15671, Note_on_c, 0, 71, 0
1, 15672, Note_on_c, 0, 74, 75
1, 15693, Note_on_c, 1, 66, 0
1, 15693, Note_on_c, 1, 62, 0
1, 15695, Note_on_c, 0, 74, 0
1, 15696, Note_on_c, 0, 71, 75
1, 15696, Note_on_c, 1, 66, 58
1, 15696, Note_on_c, 1, 62, 58
1, 15719, Note_on_c, 0, 71, 0
1, 15720, Note_on_c, 0, 74, 75
1, 15741, Note_on_c, 1, 66, 0
1, 15741, Note_on_c, 1, 62, 0
1, 15743, Note_on_c, 0, 74, 0
1, 15744, Note_on_c, 0, 70, 75
1, 15744, Note_on_c, 1, 64, 58
1, 15744, Note_on_c, 1, 61, 58
1, 15767, Note_on_c, 0, 70, 0
1, 15768, Note_on_c, 0, 73, 75
1, 15789, Note_on_c, 1, 64, 0
1, 15789, Note_on_c, 1, 61, 0
1, 15791, Note_on_c, 0, 73, 0
1, 15792, Note_on_c, 0, 70, 75
1, 15792, Note_on_c, 1, 64, 58
1, 15792, Note_on_c, 1, 61, 58
1, 15815, Note_on_c, 0, 70, 0
1, 15816, Note_on_c, 0, 73, 75
1, 15837, Note_on_c, 1, 64, 0
1, 15837, Note_on_c, 1, 61, 0
1, 15839, Note_on_c, 0, 73, 0
1, 15840, Note_on_c, 0, 71, 75
1, 15840, Note_on_c, 1, 66, 58
1, 15840, Note_on_c, 1, 62, 58
1, 15863, Note_on_c, 0, 71, 0
1, 15864, Note_on_c, 0, 78, 75
1, 15885, Note_on_c, 1, 66, 0
1, 15885, Note_on_c, 1, 62, 0
1, 15887, Note_on_c, 0, 78, 0
1, 15888, Note_on_c, 0, 74, 75
1, 15888, Note_on_c, 1, 66, 58
1, 15888, Note_on_c, 1, 62, 58
1, 15911, Note_on_c, 0, 74, 0
1, 15912, Note_on_c, 0, 71, 75
1, 15933, Note_on_c, 1, 66, 0
1, 15933, Note_on_c, 1, 62, 0
1, 15935, Note_on_c, 0, 71, 0
1, 15936, Note_on_c, 0, 68, 75
1, 15936, Note_on_c, 1, 64, 64
1, 15936, Note_on_c, 1, 62, 64
1, 15959, Note_on_c, 0, 68, 0
1, 15960, Note_on_c, 0, 74, 76
1, 15981, Note_on_c, 1, 64, 0
1, 15981, Note_on_c, 1, 62, 0
1, 15983, Note_on_c, 0, 74, 0
1, 15984, Note_on_c, 0, 71, 77
1, 15984, Note_on_c, 1, 64, 64
1, 15984, Note_on_c, 1, 62, 64
1, 16007, Note_on_c, 0, 71, 0
1, 16008, Note_on_c, 0, 68, 78
1, 16029, Note_on_c, 1, 64, 0
1, 16029, Note_on_c, 1, 62, 0
1, 16031, Note_on_c, 0, 68, 0
1, 16032, Note_on_c, 0, 69, 80
1, 16032, Note_on_c, 1, 61, 66
1, 16032, Note_on_c, 1, 64, 64
1, 16055, Note_on_c, 0, 69, 0
1, 16056, Note_on_c, 0, 76, 81
1, 16077, Note_on_c, 1, 61, 0
1, 16079, Note_on_c, 0, 76, 0
1, 16080, Note_on_c, 0, 73, 82
1, 16080, Note_on_c, 1, 57, 70
1, 16103, Note_on_c, 0, 73, 0
1, 16104, Note_on_c, 0, 69, 83
1, 16121, Note_on_c, 1, 64, 0
1, 16125, Note_on_c, 1, 57, 0
1, 16127, Note_on_c, 0, 69, 0
1, 16128, Note_on_c, 0, 76, 85
1, 16128, Note_on_c, 1, 64, 85
1, 16128, Note_on_c, 1, 52, 85
1, 16217, Note_on_c, 0, 76, 0
1, 16217, Note_on_c, 1, 64, 0
1, 16217, Note_on_c, 1, 52, 0
1, 16224, Note_on_c, 0, 57, 85
1, 16247, Note_on_c, 0, 57, 0
1, 16248, Note_on_c, 0, 61, 85
1, 16271, Note_on_c, 0, 61, 0
1, 16272, Note_on_c, 0, 64, 85
1, 16295, Note_on_c, 0, 64, 0
1, 16296, Note_on_c, 0, 69, 85
1, 16319, Note_on_c, 0, 69, 0
1, 16320, Note_on_c, 0, 73, 85
1, 16320, Note_on_c, 1, 61, 80
1, 16320, Note_on_c, 1, 57, 80
1, 16343, Note_on_c, 0, 73, 0
1, 16344, Note_on_c, 0, 76, 85
1, 16365, Note_on_c, 1, 61, 0
1, 16365, Note_on_c, 1, 57, 0
1, 16367, Note_on_c, 0, 76, 0
1, 16368, Note_on_c, 0, 73, 85
1, 16368, Note_on_c, 1, 61, 80
1, 16368, Note_on_c, 1, 57, 80
1, 16391, Note_on_c, 0, 73, 0
1, 16392, Note_on_c, 0, 69, 85
1, 16413, Note_on_c, 1, 61, 0
1, 16413, Note_on_c, 1, 57, 0
1, 16415, Note_on_c, 0, 69, 0
1, 16416, Note_on_c, 0, 71, 85
1, 16416, Note_on_c, 1, 62, 80
1, 16416, Note_on_c, 1, 52, 80
1, 16439, Note_on_c, 0, 71, 0
1, 16440, Note_on_c, 0, 74, 85
1, 16461, Note_on_c, 1, 62, 0
1, 16461, Note_on_c, 1, 52, 0
1, 16463, Note_on_c, 0, 74, 0
1, 16464, Note_on_c, 0, 71, 85
1, 16464, Note_on_c, 1, 62, 80
1, 16464, Note_on_c, 1, 52, 80
1, 16487, Note_on_c, 0, 71, 0
1, 16488, Note_on_c, 0, 68, 85
1, 16509, Note_on_c, 1, 62, 0
1, 16509, Note_on_c, 1, 52, 0
1, 16511, Note_on_c, 0, 68, 0
1, 16512, Note_on_c, 0, 69, 85
1, 16512, Note_on_c, 1, 61, 80
1, 16512, Note_on_c, 1, 57, 80
1, 16535, Note_on_c, 0, 69, 0
1, 16536, Note_on_c, 0, 73, 85
1, 16559, Note_on_c, 0, 73, 0
1, 16560, Note_on_c, 0, 76, 85
1, 16583, Note_on_c, 0, 76, 0
1, 16584, Note_on_c, 0, 81, 85
1, 16601, Note_on_c, 1, 61, 0
1, 16601, Note_on_c, 1, 57, 0
1, 16607, Note_on_c, 0, 81, 0
1, 16608, Note_on_c, 0, 85, 85
1, 16631, Note_on_c, 0, 85, 0
1, 16632, Note_on_c, 0, 88, 85
1, 16655, Note_on_c, 0, 88, 0
1, 16656, Note_on_c, 0, 85, 85
1, 16656, Note_on_c, 1, 57, 80
1, 16656, Note_on_c, 1, 49, 80
1, 16679, Note_on_c, 0, 85, 0
1, 16680, Note_on_c, 0, 81, 85
1, 16701, Note_on_c, 1, 57, 0
1, 16701, Note_on_c, 1, 49, 0
1, 16703, Note_on_c, 0, 81, 0
1, 16704, Note_on_c, 0, 78, 85
1, 16704, Note_on_c, 1, 57, 80
1, 16704, Note_on_c, 1, 50, 80
1, 16727, Note_on_c, 0, 78, 0
1, 16728, Note_on_c, 0, 81, 85
1, 16749, Note_on_c, 1, 57, 0
1, 16749, Note_on_c, 1, 50, 0
1, 16751, Note_on_c, 0, 81, 0
1, 16752, Note_on_c, 0, 78, 85
1, 16752, Note_on_c, 1, 57, 80
1, 16752, Note_on_c, 1, 50, 80
1, 16775, Note_on_c, 0, 78, 0
1, 16776, Note_on_c, 0, 74, 85
1, 16797, Note_on_c, 1, 57, 0
1, 16797, Note_on_c, 1, 50, 0
1, 16799, Note_on_c, 0, 74, 0
1, 16800, Note_on_c, 0, 73, 85
1, 16800, Note_on_c, 1, 57, 80
1, 16800, Note_on_c, 1, 52, 80
1, 16823, Note_on_c, 0, 73, 0
1, 16824, Note_on_c, 0, 76, 85
1, 16845, Note_on_c, 1, 57, 0
1, 16845, Note_on_c, 1, 52, 0
1, 16847, Note_on_c, 0, 76, 0
1, 16848, Note_on_c, 0, 74, 85
1, 16848, Note_on_c, 1, 56, 80
1, 16848, Note_on_c, 1, 52, 80
1, 16871, Note_on_c, 0, 74, 0
1, 16872, Note_on_c, 0, 71, 85
1, 16893, Note_on_c, 1, 56, 0
1, 16893, Note_on_c, 1, 52, 0
1, 16895, Note_on_c, 0, 71, 0
1, 16896, Note_on_c, 0, 69, 85
1, 16896, Note_on_c, 1, 57, 80
1, 16896, Note_on_c, 1, 45, 80
1, 16985, Note_on_c, 0, 69, 0
1, 16985, Note_on_c, 1, 57, 0
1, 16985, Note_on_c, 1, 45, 0
1, 16992, Note_on_c, 0, 76, 75
1, 17015, Note_on_c, 0, 76, 0
1, 17016, Note_on_c, 0, 79, 75
1, 17039, Note_on_c, 0, 79, 0
1, 17040, Note_on_c, 0, 74, 75
1, 17063, Note_on_c, 0, 74, 0
1, 17064, Note_on_c, 0, 78, 75
1, 17087, Note_on_c, 0, 78, 0
1, 17088, Note_on_c, 0, 73, 75
1, 17088, Note_on_c, 1, 67, 58
1, 17088, Note_on_c, 1, 64, 58
1, 17111, Note_on_c, 0, 73, 0
1, 17112, Note_on_c, 0, 76, 75
1, 17133, Note_on_c, 1, 67, 0
1, 17133, Note_on_c, 1, 64, 0
1, 17135, Note_on_c, 0, 76, 0
1, 17136, Note_on_c, 0, 73, 75
1, 17136, Note_on_c, 1, 67, 58
1, 17136, Note_on_c, 1, 64, 58
1, 17159, Note_on_c, 0, 73, 0
1, 17160, Note_on_c, 0, 76, 75
1, 17181, Note_on_c, 1, 67, 0
1, 17181, Note_on_c, 1, 64, 0
1, 17183, Note_on_c, 0, 76, 0
1, 17184, Note_on_c, 0, 71, 75
1, 17184, Note_on_c, 1, 66, 58
1, 17184, Note_on_c, 1, 62, 58
1, 17207, Note_on_c, 0, 71, 0
1, 17208, Note_on_c, 0, 74, 75
1, 17229, Note_on_c, 1, 66, 0
1, 17229, Note_on_c, 1, 62, 0
1, 17231, Note_on_c, 0, 74, 0
1, 17232, Note_on_c, 0, 71, 75
1, 17232, Note_on_c, 1, 66, 58
1, 17232, Note_on_c, 1, 62, 58
1, 17255, Note_on_c, 0, 71, 0
1, 17256, Note_on_c, 0, 74, 75
1, 17277, Note_on_c, 1, 66, 0
1, 17277, Note_on_c, 1, 62, 0
1, 17279, Note_on_c, 0, 74, 0
1, 17280, Note_on_c, 0, 70, 75
1, 17280, Note_on_c, 1, 64, 58
1, 17280, Note_on_c, 1, 61, 58
1, 17303, Note_on_c, 0, 70, 0
1, 17304, Note_on_c, 0, 73, 75
1, 17325, Note_on_c, 1, 64, 0
1, 17325, Note_on_c, 1, 61, 0
1, 17327, Note_on_c, 0, 73, 0
1, 17328, Note_on_c, 0, 70, 75
1, 17328, Note_on_c, 1, 64, 58
1, 17328, Note_on_c, 1, 61, 58
1, 17351, Note_on_c, 0, 70, 0
1, 17352, Note_on_c, 0, 73, 75
1, 17373, Note_on_c, 1, 64, 0
1, 17373, Note_on_c, 1, 61, 0
1, 17375, Note_on_c, 0, 73, 0
1, 17376, Note_on_c, 0, 71, 75
1, 17376, Note_on_c, 1, 66, 58
1, 17376, Note_on_c, 1, 62, 58
1, 17399, Note_on_c, 0, 71, 0
1, 17400, Note_on_c, 0, 78, 75
1, 17421, Note_on_c, 1, 66, 0
1, 17421, Note_on_c, 1, 62, 0
1, 17423, Note_on_c, 0, 78, 0
1, 17424, Note_on_c, 0, 74, 75
1, 17424, Note_on_c, 1, 66, 58
1, 17424, Note_on_c, 1, 62, 58
1, 17447, Note_on_c, 0, 74, 0
1, 17448, Note_on_c, 0, 71, 75
1, 17469, Note_on_c, 1, 66, 0
1, 17469, Note_on_c, 1, 62, 0
1, 17471, Note_on_c, 0, 71, 0
1, 17472, Note_on_c, 0, 68, 75
1, 17472, Note_on_c, 1, 64, 64
1, 17472, Note_on_c, 1, 62, 64
1, 17495, Note_on_c, 0, 68, 0
1, 17496, Note_on_c, 0, 74, 76
1, 17517, Note_on_c, 1, 64, 0
1, 17517, Note_on_c, 1, 62, 0
1, 17519, Note_on_c, 0, 74, 0
1, 17520, Note_on_c, 0, 71, 77
1, 17520, Note_on_c, 1, 64, 64
1, 17520, Note_on_c, 1, 62, 64
1, 17543, Note_on_c, 0, 71, 0
1, 17544, Note_on_c, 0, 68, 78
1, 17565, Note_on_c, 1, 64, 0
1, 17565, Note_on_c, 1, 62, 0
1, 17567, Note_on_c, 0, 68, 0
1, 17568, Note_on_c, 0, 69, 80
1, 17568, Note_on_c, 1, 61, 66
1, 17568, Note_on_c, 1, 64, 64
1, 17591, Note_on_c, 0, 69, 0
1, 17592, Note_on_c, 0, 76, 81
1, 17613, Note_on_c, 1, 61, 0
1, 17615, Note_on_c, 0, 76, 0
1, 17616, Note_on_c, 0, 73, 82
1, 17616, Note_on_c, 1, 57, 70
1, 17639, Note_on_c, 0, 73, 0
1, 17640, Note_on_c, 0, 69, 83
1, 17657, Note_on_c, 1, 64, 0
1, 17661, Note_on_c, 1, 57, 0
1, 17663, Note_on_c, 0, 69, 0
1, 17664, Note_on_c, 0, 76, 85
1, 17664, Note_on_c, 1, 64, 85
1, 17664, Note_on_c, 1, 52, 85
1, 17753, Note_on_c, 0, 76, 0
1, 17753, Note_on_c, 1, 64, 0
1, 17753, Note_on_c, 1, 52, 0
1, 17760, Note_on_c, 0, 57, 85
1, 17783, Note_on_c, 0, 57, 0
1, 17784, Note_on_c, 0, 61, 85
1, 17807, Note_on_c, 0, 61, 0
1, 17808, Note_on_c, 0, 64, 85
1, 17831, Note_on_c, 0, 64, 0
1, 17832, Note_on_c, 0, 69, 85
1, 17855, Note_on_c, 0, 69, 0
1, 17856, Note_on_c, 0, 73, 85
1, 17856, Note_on_c, 1, 61, 80
1, 17856, Note_on_c, 1, 57, 80
1, 17879, Note_on_c, 0, 73, 0
1, 17880, Note_on_c, 0, 76, 85
1, 17901, Note_on_c, 1, 61, 0
1, 17901, Note_on_c, 1, 57, 0
1, 17903, Note_on_c, 0, 76, 0
1, 17904, Note_on_c, 0, 73, 85
1, 17904, Note_on_c, 1, 61, 80
1, 17904, Note_on_c, 1, 57, 80
1, 17927, Note_on_c, 0, 73, 0
1, 17928, Note_on_c, 0, 69, 85
1, 17949, Note_on_c, 1, 61, 0
1, 17949, Note_on_c, 1, 57, 0
1, 17951, Note_on_c, 0, 69, 0
1, 17952, Note_on_c, 0, 71, 85
1, 17952, Note_on_c, 1, 62, 80
1, 17952, Note_on_c, 1, 52, 80
1, 17975, Note_on_c, 0, 71, 0
1, 17976, Note_on_c, 0, 74, 85
1, 17997, Note_on_c, 1, 62, 0
1, 17997, Note_on_c, 1, 52, 0
1, 17999, Note_on_c, 0, 74, 0
1, 18000, Note_on_c, 0, 71, 85
1, 18000, Note_on_c, 1, 62, 80
1, 18000, Note_on_c, 1, 52, 80
1, 18023, Note_on_c, 0, 71, 0
1, 18024, Note_on_c, 0, 68, 85
1, 18045, Note_on_c, 1, 62, 0
1, 18045, Note_on_c, 1, 52, 0
1, 18047, Note_on_c, 0, 68, 0
1, 18048, Note_on_c, 0, 69, 85
1, 18048, Note_on_c, 1, 61, 80
1, 18048, Note_on_c, 1, 57, 80
1, 18071, Note_on_c, 0, 69, 0
1, 18072, Note_on_c, 0, 73, 85
1, 18095, Note_on_c, 0, 73, 0
1, 18096, Note_on_c, 0, 76, 85
1, 18119, Note_on_c, 0, 76, 0
1, 18120, Note_on_c, 0, 81, 85
1, 18137, Note_on_c, 1, 61, 0
1, 18137, Note_on_c, 1, 57, 0
1, 18143, Note_on_c, 0, 81, 0
1, 18144, Note_on_c, 0, 85, 85
1, 18167, Note_on_c, 0, 85, 0
1, 18168, Note_on_c, 0, 88, 85
1, 18191, Note_on_c, 0, 88, 0
1, 18192, Note_on_c, 0, 85, 85
1, 18192, Note_on_c, 1, 57, 80
1, 18192, Note_on_c, 1, 49, 80
1, 18215, Note_on_c, 0, 85, 0
1, 18216, Note_on_c, 0, 81, 85
1, 18237, Note_on_c, 1, 57, 0
1, 18237, Note_on_c, 1, 49, 0
1, 18239, Note_on_c, 0, 81, 0
1, 18240, Note_on_c, 0, 78, 85
1, 18240, Note_on_c, 1, 57, 80
1, 18240, Note_on_c, 1, 50, 80
1, 18263, Note_on_c, 0, 78, 0
1, 18264, Note_on_c, 0, 81, 85
1, 18285, Note_on_c, 1, 57, 0
1, 18285, Note_on_c, 1, 50, 0
1, 18287, Note_on_c, 0, 81, 0
1, 18288, Note_on_c, 0, 78, 85
1, 18288, Note_on_c, 1, 57, 80
1, 18288, Note_on_c, 1, 50, 80
1, 18311, Note_on_c, 0, 78, 0
1, 18312, Note_on_c, 0, 74, 85
1, 18333, Note_on_c, 1, 57, 0
1, 18333, Note_on_c, 1, 50, 0
1, 18335, Note_on_c, 0, 74, 0
1, 18336, Note_on_c, 0, 73, 85
1, 18336, Note_on_c, 1, 57, 80
1, 18336, Note_on_c, 1, 52, 80
1, 18359, Note_on_c, 0, 73, 0
1, 18360, Note_on_c, 0, 76, 85
1, 18381, Note_on_c, 1, 57, 0
1, 18381, Note_on_c, 1, 52, 0
1, 18383, Note_on_c, 0, 76, 0
1, 18384, Note_on_c, 0, 74, 85
1, 18384, Note_on_c, 1, 56, 80
1, 18384, Note_on_c, 1, 52, 80
1, 18407, Note_on_c, 0, 74, 0
1, 18408, Note_on_c, 0, 71, 85
1, 18429, Note_on_c, 1, 56, 0
1, 18429, Note_on_c, 1, 52, 0
1, 18431, Note_on_c, 0, 71, 0
1, 18432, Note_on_c, 0, 69, 85
1, 18432, Note_on_c, 1, 57, 80
1, 18432, Note_on_c, 1, 45, 80
1, 18521, Note_on_c, 0, 69, 0
1, 18521, Note_on_c, 1, 57, 0
1, 18521, Note_on_c, 1, 45, 0
1, 18528, Note_on_c, 0, 76, 80
1, 18573, Note_on_c, 0, 76, 0
1, 18576, Note_on_c, 0, 84, 80
1, 18576, Note_on_c, 1, 72, 75
1, 18576, Note_on_c, 1, 69, 75
1, 18599, Note_on_c, 0, 84, 0
1, 18600, Note_on_c, 0, 81, 80
1, 18621, Note_on_c, 1, 72, 0
1, 18621, Note_on_c, 1, 69, 0
1, 18623, Note_on_c, 0, 81, 0
1, 18624, Note_on_c, 0, 81, 80
1, 18624, Note_on_c, 1, 74, 75
1, 18624, Note_on_c, 1, 71, 75
1, 18647, Note_on_c, 0, 81, 0
1, 18648, Note_on_c, 0, 80, 80
1, 18671, Note_on_c, 0, 80, 0
1, 18672, Note_on_c, 0, 78, 80
1, 18695, Note_on_c, 0, 78, 0
1, 18696, Note_on_c, 0, 76, 80
1, 18713, Note_on_c, 1, 74, 0
1, 18713, Note_on_c, 1, 71, 0
1, 18719, Note_on_c, 0, 76, 0
1, 18720, Note_on_c, 0, 88, 80
1, 18720, Note_on_c, 0, 84, 80
1, 18740, Note_on_c, 0, 88, 0
1, 18740, Note_on_c, 0, 84, 0
1, 18768, Note_on_c, 0, 86, 80
1, 18768, Note_on_c, 0, 83, 80
1, 18768, Note_on_c, 1, 68, 75
1, 18788, Note_on_c, 0, 86, 0
1, 18788, Note_on_c, 0, 83, 0
1, 18813, Note_on_c, 1, 68, 0
1, 18816, Note_on_c, 0, 84, 80
1, 18816, Note_on_c, 0, 81, 80
1, 18816, Note_on_c, 1, 69, 75
1, 18861, Note_on_c, 1, 69, 0
1, 18864, Note_on_c, 0, 84, 0
1, 18864, Note_on_c, 0, 81, 0
1, 18864, Note_on_c, 0, 83, 80
1, 18864, Note_on_c, 0, 80, 80
1, 18864, Note_on_c, 1, 64, 75
1, 18909, Note_on_c, 0, 83, 0
1, 18909, Note_on_c, 0, 80, 0
1, 18909, Note_on_c, 1, 64, 0
1, 18912, Note_on_c, 0, 69, 80
1, 18935, Note_on_c, 0, 69, 0
1, 18936, Note_on_c, 0, 72, 80
1, 18959, Note_on_c, 0, 72, 0
1, 18960, Note_on_c, 0, 77, 80
1, 18983, Note_on_c, 0, 77, 0
1, 18984, Note_on_c, 0, 84, 80
1, 19007, Note_on_c, 0, 84, 0
1, 19008, Note_on_c, 0, 83, 80
1, 19031, Note_on_c, 0, 83, 0
1, 19032, Note_on_c, 0, 76, 80
1, 19055, Note_on_c, 0, 76, 0
1, 19056, Note_on_c, 0, 71, 80
1, 19079, Note_on_c, 0, 71, 0
1, 19080, Note_on_c, 0, 67, 80
1, 19103, Note_on_c, 0, 67, 0
1, 19104, Note_on_c, 0, 65, 80
1, 19127, Note_on_c, 0, 65, 0
1, 19128, Note_on_c, 0, 69, 80
1, 19151, Note_on_c, 0, 69, 0
1, 19152, Note_on_c, 0, 74, 80
1, 19175, Note_on_c, 0, 74, 0
1, 19176, Note_on_c, 0, 81, 80
1, 19199, Note_on_c, 0, 81, 0
1, 19200, Note_on_c, 0, 79, 80
1, 19223, Note_on_c, 0, 79, 0
1, 19224, Note_on_c, 0, 72, 80
1, 19247, Note_on_c, 0, 72, 0
1, 19248, Note_on_c, 0, 67, 80
1, 19271, Note_on_c, 0, 67, 0
1, 19272, Note_on_c, 0, 64, 80
1, 19295, Note_on_c, 0, 64, 0
1, 19296, Note_on_c, 0, 62, 80
1, 19319, Note_on_c, 0, 62, 0
1, 19320, Note_on_c, 0, 65, 80
1, 19343, Note_on_c, 0, 65, 0
1, 19344, Note_on_c, 0, 71, 80
1, 19367, Note_on_c, 0, 71, 0
1, 19368, Note_on_c, 0, 77, 80
1, 19391, Note_on_c, 0, 77, 0
1, 19392, Note_on_c, 0, 60, 80
1, 19415, Note_on_c, 0, 60, 0
1, 19416, Note_on_c, 0, 64, 80
1, 19439, Note_on_c, 0, 64, 0
1, 19440, Note_on_c, 0, 67, 80
1, 19463, Note_on_c, 0, 67, 0
1, 19464, Note_on_c, 0, 76, 80
1, 19487, Note_on_c, 0, 76, 0
1, 19488, Note_on_c, 0, 74, 80
1, 19488, Note_on_c, 1, 65, 75
1, 19488, Note_on_c, 1, 53, 75
1, 19533, Note_on_c, 0, 74, 0
1, 19533, Note_on_c, 1, 65, 0
1, 19533, Note_on_c, 1, 53, 0
1, 19536, Note_on_c, 0, 71, 80
1, 19536, Note_on_c, 1, 62, 75
1, 19536, Note_on_c, 1, 55, 75
1, 19542, Note_on_c, 0, 71, 0
1, 19542, Note_on_c, 0, 72, 80
1, 19548, Note_on_c, 0, 72, 0
1, 19548, Note_on_c, 0, 71, 80
1, 19581, Note_on_c, 0, 71, 0
1, 19581, Note_on_c, 1, 62, 0
1, 19581, Note_on_c, 1, 55, 0
1, 19584, Note_on_c, 0, 72, 80
1, 19584, Note_on_c, 1, 64, 75
1, 19584, Note_on_c, 1, 60, 75
1, 19673, Note_on_c, 0, 72, 0
1, 19673, Note_on_c, 1, 64, 0
1, 19673, Note_on_c, 1, 60, 0
1, 19680, Note_on_c, 0, 76, 80
1, 19725, Note_on_c, 0, 76, 0
1, 19728, Note_on_c, 0, 84, 80
1, 19728, Note_on_c, 1, 72, 75
1, 19728, Note_on_c, 1, 69, 75
1, 19751, Note_on_c, 0, 84, 0
1, 19752, Note_on_c, 0, 81, 80
1, 19773, Note_on_c, 1, 72, 0
1, 19773, Note_on_c, 1, 69, 0
1, 19775, Note_on_c, 0, 81, 0
1, 19776, Note_on_c, 0, 81, 80
1, 19776, Note_on_c, 1, 74, 75
1, 19776, Note_on_c, 1, 71, 75
1, 19799, Note_on_c, 0, 81, 0
1, 19800, Note_on_c, 0, 80, 80
1, 19823, Note_on_c, 0, 80, 0
1, 19824, Note_on_c, 0, 78, 80
1, 19847, Note_on_c, 0, 78, 0
1, 19848, Note_on_c, 0, 76, 80
1, 19865, Note_on_c, 1, 74, 0
1, 19865, Note_on_c, 1, 71, 0
1, 19871, Note_on_c, 0, 76, 0
1, 19872, Note_on_c, 0, 88, 80
1, 19872, Note_on_c, 0, 84, 80
1, 19892, Note_on_c, 0, 88, 0
1, 19892, Note_on_c, 0, 84, 0
1, 19920, Note_on_c, 0, 86, 80
1, 19920, Note_on_c, 0, 83, 80
1, 19920, Note_on_c, 1, 68, 75
1, 19940, Note_on_c, 0, 86, 0
1, 19940, Note_on_c, 0, 83, 0
1, 19965, Note_on_c, 1, 68, 0
1, 19968, Note_on_c, 0, 84, 80
1, 19968, Note_on_c, 0, 81, 80
1, 19968, Note_on_c, 1, 69, 75
1, 20013, Note_on_c, 1, 69, 0
1, 20016, Note_on_c, 0, 84, 0
1, 20016, Note_on_c, 0, 81, 0
1, 20016, Note_on_c, 0, 83, 80
1, 20016, Note_on_c, 0, 80, 80
1, 20016, Note_on_c, 1, 64, 75
1, 20061, Note_on_c, 0, 83, 0
1, 20061, Note_on_c, 0, 80, 0
1, 20061, Note_on_c, 1, 64, 0
1, 20064, Note_on_c, 0, 69, 80
1, 20087, Note_on_c, 0, 69, 0
1, 20088, Note_on_c, 0, 72, 80
1, 20111, Note_on_c, 0, 72, 0
1, 20112, Note_on_c, 0, 77, 80
1, 20135, Note_on_c, 0, 77, 0
1, 20136, Note_on_c, 0, 84, 80
1, 20159, Note_on_c, 0, 84, 0
1, 20160, Note_on_c, 0, 83, 80
1, 20183, Note_on_c, 0, 83, 0
1, 20184, Note_on_c, 0, 76, 80
1, 20207, Note_on_c, 0, 76, 0
1, 20208, Note_on_c, 0, 71, 80
1, 20231, Note_on_c, 0, 71, 0
1, 20232, Note_on_c, 0, 67, 80
1, 20255, Note_on_c, 0, 67, 0
1, 20256, Note_on_c, 0, 65, 80
1, 20279, Note_on_c, 0, 65, 0
1, 20280, Note_on_c, 0, 69, 80
1, 20303, Note_on_c, 0, 69, 0
1, 20304, Note_on_c, 0, 74, 80
1, 20327, Note_on_c, 0, 74, 0
1, 20328, Note_on_c, 0, 81, 80
1, 20351, Note_on_c, 0, 81, 0
1, 20352, Note_on_c, 0, 79, 80
1, 20375, Note_on_c, 0, 79, 0
1, 20376, Note_on_c, 0, 72, 80
1, 20399, Note_on_c, 0, 72, 0
1, 20400, Note_on_c, 0, 67, 80
1, 20423, Note_on_c, 0, 67, 0
1, 20424, Note_on_c, 0, 64, 80
1, 20447, Note_on_c, 0, 64, 0
1, 20448, Note_on_c, 0, 62, 80
1, 20471, Note_on_c, 0, 62, 0
1, 20472, Note_on_c, 0, 65, 80
1, 20495, Note_on_c, 0, 65, 0
1, 20496, Note_on_c, 0, 71, 80
1, 20519, Note_on_c, 0, 71, 0
1, 20520, Note_on_c, 0, 77, 80
1, 20543, Note_on_c, 0, 77, 0
1, 20544, Note_on_c, 0, 60, 80
1, 20567, Note_on_c, 0, 60, 0
1, 20568, Note_on_c, 0, 64, 80
1, 20591, Note_on_c, 0, 64, 0
1, 20592, Note_on_c, 0, 67, 80
1, 20615, Note_on_c, 0, 67, 0
1, 20616, Note_on_c, 0, 76, 80
1, 20639, Note_on_c, 0, 76, 0
1, 20640, Note_on_c, 0, 74, 80
1, 20640, Note_on_c, 1, 65, 75
1, 20640, Note_on_c, 1, 53, 75
1, 20685, Note_on_c, 0, 74, 0
1, 20685, Note_on_c, 1, 65, 0
1, 20685, Note_on_c, 1, 53, 0
1, 20688, Note_on_c, 0, 71, 80
1, 20688, Note_on_c, 1, 62, 75
1, 20688, Note_on_c, 1, 55, 75
1, 20694, Note_on_c, 0, 71, 0
1, 20694, Note_on_c, 0, 72, 80
1, 20700, Note_on_c, 0, 72, 0
1, 20700, Note_on_c, 0, 71, 80
1, 20733, Note_on_c, 0, 71, 0
1, 20733, Note_on_c, 1, 62, 0
1, 20733, Note_on_c, 1, 55, 0
1, 20736, Note_on_c, 0, 72, 80
1, 20736, Note_on_c, 1, 64, 75
1, 20736, Note_on_c, 1, 60, 75
1, 20825, Note_on_c, 0, 72, 0
1, 20825, Note_on_c, 1, 64, 0
1, 20825, Note_on_c, 1, 60, 0
1, 20832, Note_on_c, 0, 76, 80
1, 20832, Note_on_c, 1, 72, 70
1, 20832, Note_on_c, 1, 64, 70
1, 20877, Note_on_c, 0, 76, 0
1, 20877, Note_on_c, 1, 72, 0
1, 20877, Note_on_c, 1, 64, 0
1, 20880, Note_on_c, 0, 76, 80
1, 20880, Note_on_c, 1, 72, 70
1, 20880, Note_on_c, 1, 64, 70
1, 20903, Note_on_c, 0, 76, 0
1, 20904, Note_on_c, 0, 77, 80
1, 20925, Note_on_c, 1, 72, 0
1, 20925, Note_on_c, 1, 64, 0
1, 20927, Note_on_c, 0, 77, 0
1, 20928, Note_on_c, 0, 74, 80
1, 20928, Note_on_c, 1, 71, 70
1, 20928, Note_on_c, 1, 64, 70
1, 20973, Note_on_c, 0, 74, 0
1, 20973, Note_on_c, 1, 71, 0
1, 20973, Note_on_c, 1, 64, 0
1, 20976, Note_on_c, 0, 74, 80
1, 20976, Note_on_c, 1, 71, 70
1, 20976, Note_on_c, 1, 64, 70
1, 20999, Note_on_c, 0, 74, 0
1, 21000, Note_on_c, 0, 76, 80
1, 21021, Note_on_c, 1, 71, 0
1, 21021, Note_on_c, 1, 64, 0
1, 21023, Note_on_c, 0, 76, 0
1, 21024, Note_on_c, 0, 72, 80
1, 21024, Note_on_c, 1, 69, 70
1, 21024, Note_on_c, 1, 64, 70
1, 21069, Note_on_c, 0, 72, 0
1, 21069, Note_on_c, 1, 69, 0
1, 21069, Note_on_c, 1, 64, 0
1, 21072, Note_on_c, 0, 72, 80
1, 21072, Note_on_c, 1, 69, 70
1, 21072, Note_on_c, 1, 64, 70
1, 21095, Note_on_c, 0, 72, 0
1, 21096, Note_on_c, 0, 74, 80
1, 21117, Note_on_c, 1, 69, 0
1, 21117, Note_on_c, 1, 64, 0
1, 21119, Note_on_c, 0, 74, 0
1, 21120, Note_on_c, 0, 71, 80
1, 21120, Note_on_c, 1, 68, 70
1, 21120, Note_on_c, 1, 64, 70
1, 21209, Note_on_c, 0, 71, 0
1, 21209, Note_on_c, 1, 68, 0
1, 21209, Note_on_c, 1, 64, 0
1, 21216, Note_on_c, 0, 64, 80
1, 21239, Note_on_c, 0, 64, 0
1, 21240, Note_on_c, 0, 72, 80
1, 21263, Note_on_c, 0, 72, 0
1, 21264, Note_on_c, 0, 76, 80
1, 21287, Note_on_c, 0, 76, 0
1, 21288, Note_on_c, 0, 88, 80
1, 21311, Note_on_c, 0, 88, 0
1, 21312, Note_on_c, 0, 86, 80
1, 21335, Note_on_c, 0, 86, 0
1, 21336, Note_on_c, 0, 76, 80
1, 21359, Note_on_c, 0, 76, 0
1, 21360, Note_on_c, 0, 71, 80
1, 21383, Note_on_c, 0, 71, 0
1, 21384, Note_on_c, 0, 68, 80
1, 21407, Note_on_c, 0, 68, 0
1, 21408, Note_on_c, 0, 64, 80
1, 21431, Note_on_c, 0, 64, 0
1, 21432, Note_on_c, 0, 69, 80
1, 21455, Note_on_c, 0, 69, 0
1, 21456, Note_on_c, 0, 76, 80
1, 21479, Note_on_c, 0, 76, 0
1, 21480, Note_on_c, 0, 84, 80
1, 21503, Note_on_c, 0, 84, 0
1, 21504, Note_on_c, 0, 83, 80
1, 21527, Note_on_c, 0, 83, 0
1, 21528, Note_on_c, 0, 76, 80
1, 21551, Note_on_c, 0, 76, 0
1, 21552, Note_on_c, 0, 68, 80
1, 21575, Note_on_c, 0, 68, 0
1, 21576, Note_on_c, 0, 64, 80
1, 21599, Note_on_c, 0, 64, 0
1, 21600, Note_on_c, 0, 83, 80
1, 21623, Note_on_c, 0, 83, 0
1, 21624, Note_on_c, 0, 80, 80
1, 21647, Note_on_c, 0, 80, 0
1, 21648, Note_on_c, 0, 77, 80
1, 21671, Note_on_c, 0, 77, 0
1, 21672, Note_on_c, 0, 74, 80
1, 21695, Note_on_c, 0, 74, 0
1, 21696, Note_on_c, 0, 81, 80
1, 21696, Note_on_c, 1, 64, 80
1, 21696, Note_on_c, 1, 60, 80
1, 21719, Note_on_c, 0, 81, 0
1, 21720, Note_on_c, 0, 76, 80
1, 21743, Note_on_c, 0, 76, 0
1, 21744, Note_on_c, 0, 72, 80
1, 21767, Note_on_c, 0, 72, 0
1, 21768, Note_on_c, 0, 69, 80
1, 21785, Note_on_c, 1, 64, 0
1, 21785, Note_on_c, 1, 60, 0
1, 21791, Note_on_c, 0, 69, 0
1, 21792, Note_on_c, 0, 81, 80
1, 21792, Note_on_c, 1, 67, 80
1, 21792, Note_on_c, 1, 64, 80
1, 21792, Note_on_c, 1, 61, 80
1, 21815, Note_on_c, 0, 81, 0
1, 21816, Note_on_c, 0, 79, 81
1, 21839, Note_on_c, 0, 79, 0
1, 21840, Note_on_c, 0, 76, 81
1, 21863, Note_on_c, 0, 76, 0
1, 21864, Note_on_c, 0, 69, 81
1, 21881, Note_on_c, 1, 67, 0
1, 21881, Note_on_c, 1, 64, 0
1, 21881, Note_on_c, 1, 61, 0
1, 21887, Note_on_c, 0, 69, 0
1, 21888, Note_on_c, 0, 81, 81
1, 21888, Note_on_c, 1, 65, 81
1, 21888, Note_on_c, 1, 62, 81
1, 21911, Note_on_c, 0, 81, 0
1, 21912, Note_on_c, 0, 77, 81
1, 21935, Note_on_c, 0, 77, 0
1, 21936, Note_on_c, 0, 74, 82
1, 21959, Note_on_c, 0, 74, 0
1, 21960, Note_on_c, 0, 69, 82
1, 21977, Note_on_c, 1, 65, 0
1, 21977, Note_on_c, 1, 62, 0
1, 21983, Note_on_c, 0, 69, 0
1, 21984, Note_on_c, 0, 81, 82
1, 21984, Note_on_c, 1, 69, 82
1, 21984, Note_on_c, 1, 66, 82
1, 21984, Note_on_c, 1, 63, 82
1, 22007, Note_on_c, 0, 81, 0
1, 22008, Note_on_c, 0, 78, 82
1, 22031, Note_on_c, 0, 78, 0
1, 22032, Note_on_c, 0, 75, 82
1, 22055, Note_on_c, 0, 75, 0
1, 22056, Note_on_c, 0, 72, 83
1, 22073, Note_on_c, 1, 69, 0
1, 22073, Note_on_c, 1, 66, 0
1, 22073, Note_on_c, 1, 63, 0
1, 22079, Note_on_c, 0, 72, 0
1, 22080, Note_on_c, 0, 88, 83
1, 22080, Note_on_c, 1, 72, 83
1, 22080, Note_on_c, 1, 69, 83
1, 22080, Note_on_c, 1, 64, 83
1, 22103, Note_on_c, 0, 88, 0
1, 22104, Note_on_c, 0, 84, 83
1, 22127, Note_on_c, 0, 84, 0
1, 22128, Note_on_c, 0, 81, 83
1, 22151, Note_on_c, 0, 81, 0
1, 22152, Note_on_c, 0, 76, 83
1, 22169, Note_on_c, 1, 72, 0
1, 22169, Note_on_c, 1, 69, 0
1, 22169, Note_on_c, 1, 64, 0
1, 22175, Note_on_c, 0, 76, 0
1, 22176, Note_on_c, 0, 81, 84
1, 22176, Note_on_c, 1, 72, 84
1, 22176, Note_on_c, 1, 64, 84
1, 22221, Note_on_c, 0, 81, 0
1, 22221, Note_on_c, 1, 72, 0
1, 22221, Note_on_c, 1, 64, 0
1, 22224, Note_on_c, 0, 80, 84
1, 22224, Note_on_c, 1, 71, 84
1, 22224, Note_on_c, 1, 64, 84
1, 22236, Note_on_c, 0, 80, 0
1, 22236, Note_on_c, 0, 81, 84
1, 22248, Note_on_c, 0, 81, 0
1, 22248, Note_on_c, 0, 80, 84
1, 22269, Note_on_c, 0, 80, 0
1, 22269, Note_on_c, 1, 71, 0
1, 22269, Note_on_c, 1, 64, 0
1, 22272, Note_on_c, 0, 81, 85
1, 22272, Note_on_c, 1, 69, 85
1, 22272, Note_on_c, 1, 57, 85
1, 22361, Note_on_c, 0, 81, 0
1, 22361, Note_on_c, 1, 69, 0
1, 22361, Note_on_c, 1, 57, 0
1, 22368, Note_on_c, 0, 76, 85
1, 22368, Note_on_c, 1, 72, 85
1, 22368, Note_on_c, 1, 64, 85
1, 22413, Note_on_c, 0, 76, 0
1, 22413, Note_on_c, 1, 72, 0
1, 22413, Note_on_c, 1, 64, 0
1, 22416, Note_on_c, 0, 76, 85
1, 22416, Note_on_c, 1, 72, 85
1, 22416, Note_on_c, 1, 64, 85
1, 22439, Note_on_c, 0, 76, 0
1, 22440, Note_on_c, 0, 77, 85
1, 22461, Note_on_c, 1, 72, 0
1, 22461, Note_on_c, 1, 64, 0
1, 22463, Note_on_c, 0, 77, 0
1, 22464, Note_on_c, 0, 74, 80
1, 22464, Note_on_c, 1, 71, 70
1, 22464, Note_on_c, 1, 64, 70
1, 22509, Note_on_c, 0, 74, 0
1, 22509, Note_on_c, 1, 71, 0
1, 22509, Note_on_c, 1, 64, 0
1, 22512, Note_on_c, 0, 74, 80
1, 22512, Note_on_c, 1, 71, 70
1, 22512, Note_on_c, 1, 64, 70
1, 22535, Note_on_c, 0, 74, 0
1, 22536, Note_on_c, 0, 76, 80
1, 22557, Note_on_c, 1, 71, 0
1, 22557, Note_on_c, 1, 64, 0
1, 22559, Note_on_c, 0, 76, 0
1, 22560, Note_on_c, 0, 72, 80
1, 22560, Note_on_c, 1, 69, 70
1, 22560, Note_on_c, 1, 64, 70
1, 22605, Note_on_c, 0, 72, 0
1, 22605, Note_on_c, 1, 69, 0
1, 22605, Note_on_c, 1, 64, 0
1, 22608, Note_on_c, 0, 72, 80
1, 22608, Note_on_c, 1, 69, 70
1, 22608, Note_on_c, 1, 64, 70
1, 22631, Note_on_c, 0, 72, 0
1, 22632, Note_on_c, 0, 74, 80
1, 22653, Note_on_c, 1, 69, 0
1, 22653, Note_on_c, 1, 64, 0
1, 22655, Note_on_c, 0, 74, 0
1, 22656, Note_on_c, 0, 71, 80
1, 22656, Note_on_c, 1, 68, 70
1, 22656, Note_on_c, 1, 64, 70
1, 22745, Note_on_c, 0, 71, 0
1, 22745, Note_on_c, 1, 68, 0
1, 22745, Note_on_c, 1, 64, 0
1, 22752, Note_on_c, 0, 64, 80
1, 22775, Note_on_c, 0, 64, 0
1, 22776, Note_on_c, 0, 72, 80
1, 22799, Note_on_c, 0, 72, 0
1, 22800, Note_on_c, 0, 76, 80
1, 22823, Note_on_c, 0, 76, 0
1, 22824, Note_on_c, 0, 88, 80
1, 22847, Note_on_c, 0, 88, 0
1, 22848, Note_on_c, 0, 86, 80
1, 22871, Note_on_c, 0, 86, 0
1, 22872, Note_on_c, 0, 76, 80
1, 22895, Note_on_c, 0, 76, 0
1, 22896, Note_on_c, 0, 71, 80
1, 22919, Note_on_c, 0, 71, 0
1, 22920, Note_on_c, 0, 68, 80
1, 22943, Note_on_c, 0, 68, 0
1, 22944, Note_on_c, 0, 64, 80
1, 22967, Note_on_c, 0, 64, 0
1, 22968, Note_on_c, 0, 69, 80
1, 22991, Note_on_c, 0, 69, 0
1, 22992, Note_on_c, 0, 76, 80
1, 23015, Note_on_c, 0, 76, 0
1, 23016, Note_on_c, 0, 84, 80
1, 23039, Note_on_c, 0, 84, 0
1, 23040, Note_on_c, 0, 83, 80
1, 23063, Note_on_c, 0, 83, 0
1, 23064, Note_on_c, 0, 76, 80
1, 23087, Note_on_c, 0, 76, 0
1, 23088, Note_on_c, 0, 68, 80
1, 23111, Note_on_c, 0, 68, 0
1, 23112, Note_on_c, 0, 64, 80
1, 23135, Note_on_c, 0, 64, 0
1, 23136, Note_on_c, 0, 83, 80
1, 23159, Note_on_c, 0, 83, 0
1, 23160, Note_on_c, 0, 80, 80
1, 23183, Note_on_c, 0, 80, 0
1, 23184, Note_on_c, 0, 77, 80
1, 23207, Note_on_c, 0, 77, 0
1, 23208, Note_on_c, 0, 74, 80
1, 23231, Note_on_c, 0, 74, 0
1, 23232, Note_on_c, 0, 81, 80
1, 23232, Note_on_c, 1, 64, 80
1, 23232, Note_on_c, 1, 60, 80
1, 23255, Note_on_c, 0, 81, 0
1, 23256, Note_on_c, 0, 76, 80
1, 23279, Note_on_c, 0, 76, 0
1, 23280, Note_on_c, 0, 72, 80
1, 23303, Note_on_c, 0, 72, 0
1, 23304, Note_on_c, 0, 69, 80
1, 23321, Note_on_c, 1, 64, 0
1, 23321, Note_on_c, 1, 60, 0
1, 23327, Note_on_c, 0, 69, 0
1, 23328, Note_on_c, 0, 81, 80
1, 23328, Note_on_c, 1, 67, 80
1, 23328, Note_on_c, 1, 64, 80
1, 23328, Note_on_c, 1, 61, 80
1, 23351, Note_on_c, 0, 81, 0
1, 23352, Note_on_c, 0, 79, 81
1, 23375, Note_on_c, 0, 79, 0
1, 23376, Note_on_c, 0, 76, 81
1, 23399, Note_on_c, 0, 76, 0
1, 23400, Note_on_c, 0, 69, 81
1, 23417, Note_on_c, 1, 67, 0
1, 23417, Note_on_c, 1, 64, 0
1, 23417, Note_on_c, 1, 61, 0
1, 23423, Note_on_c, 0, 69, 0
1, 23424, Note_on_c, 0, 81, 81
1, 23424, Note_on_c, 1, 65, 81
1, 23424, Note_on_c, 1, 62, 81
1, 23447, Note_on_c, 0, 81, 0
1, 23448, Note_on_c, 0, 77, 81
1, 23471, Note_on_c, 0, 77, 0
1, 23472, Note_on_c, 0, 74, 82
1, 23495, Note_on_c, 0, 74, 0
1, 23496, Note_on_c, 0, 69, 82
1, 23513, Note_on_c, 1, 65, 0
1, 23513, Note_on_c, 1, 62, 0
1, 23519, Note_on_c, 0, 69, 0
1, 23520, Note_on_c, 0, 81, 82
1, 23520, Note_on_c, 1, 69, 82
1, 23520, Note_on_c, 1, 66, 82
1, 23520, Note_on_c, 1, 63, 82
1, 23543, Note_on_c, 0, 81, 0
1, 23544, Note_on_c, 0, 78, 82
1, 23567, Note_on_c, 0, 78, 0
1, 23568, Note_on_c, 0, 75, 82
1, 23591, Note_on_c, 0, 75, 0
1, 23592, Note_on_c, 0, 72, 83
1, 23609, Note_on_c, 1, 69, 0
1, 23609, Note_on_c, 1, 66, 0
1, 23609, Note_on_c, 1, 63, 0
1, 23615, Note_on_c, 0, 72, 0
1, 23616, Note_on_c, 0, 88, 83
1, 23616, Note_on_c, 1, 72, 83
1, 23616, Note_on_c, 1, 69, 83
1, 23616, Note_on_c, 1, 64, 83
1, 23639, Note_on_c, 0, 88, 0
1, 23640, Note_on_c, 0, 84, 83
1, 23663, Note_on_c, 0, 84, 0
1, 23664, Note_on_c, 0, 81, 83
1, 23687, Note_on_c, 0, 81, 0
1, 23688, Note_on_c, 0, 76, 83
1, 23705, Note_on_c, 1, 72, 0
1, 23705, Note_on_c, 1, 69, 0
1, 23705, Note_on_c, 1, 64, 0
1, 23711, Note_on_c, 0, 76, 0
1, 23712, Note_on_c, 0, 81, 84
1, 23712, Note_on_c, 1, 72, 84
1, 23712, Note_on_c, 1, 64, 84
1, 23757, Note_on_c, 0, 81, 0
1, 23757, Note_on_c, 1, 72, 0
1, 23757, Note_on_c, 1, 64, 0
1, 23760, Note_on_c, 0, 80, 84
1, 23760, Note_on_c, 1, 71, 84
1, 23760, Note_on_c, 1, 64, 84
1, 23772, Note_on_c, 0, 80, 0
1, 23772, Note_on_c, 0, 81, 84
1, 23784, Note_on_c, 0, 81, 0
1, 23784, Note_on_c, 0, 80, 84
1, 23805, Note_on_c, 0, 80, 0
1, 23805, Note_on_c, 1, 71, 0
1, 23805, Note_on_c, 1, 64, 0
1, 23808, Note_on_c, 0, 81, 85
1, 23808, Note_on_c, 1, 69, 85
1, 23808, Note_on_c, 1, 57, 85
1, 23897, Note_on_c, 0, 81, 0
1, 23897, Note_on_c, 1, 69, 0
1, 23897, Note_on_c, 1, 57, 0
1, 23904, Note_on_c, 0, 73, 85
1, 23971, Note_on_c, 0, 73, 0
1, 23976, Note_on_c, 0, 74, 85
1, 23988, Note_on_c, 0, 74, 0
1, 23988, Note_on_c, 0, 76, 85
1, 24000, Note_on_c, 0, 76, 0
1, 24000, Note_on_c, 0, 69, 85
1, 24000, Note_on_c, 1, 61, 85
1, 24000, Note_on_c, 1, 57, 85
1, 24045, Note_on_c, 0, 69, 0
1, 24045, Note_on_c, 1, 61, 0
1, 24045, Note_on_c, 1, 57, 0
1, 24048, Note_on_c, 0, 69, 85
1, 24048, Note_on_c, 1, 61, 85
1, 24048, Note_on_c, 1, 57, 85
1, 24093, Note_on_c, 0, 69, 0
1, 24093, Note_on_c, 1, 61, 0
1, 24093, Note_on_c, 1, 57, 0
1, 24096, Note_on_c, 0, 73, 85
1, 24096, Note_on_c, 1, 62, 85
1, 24096, Note_on_c, 1, 52, 85
1, 24119, Note_on_c, 0, 73, 0
1, 24120, Note_on_c, 0, 71, 85
1, 24141, Note_on_c, 1, 62, 0
1, 24141, Note_on_c, 1, 52, 0
1, 24143, Note_on_c, 0, 71, 0
1, 24144, Note_on_c, 0, 69, 85
1, 24144, Note_on_c, 1, 62, 85
1, 24144, Note_on_c, 1, 52, 85
1, 24167, Note_on_c, 0, 69, 0
1, 24168, Note_on_c, 0, 71, 85
1, 24189, Note_on_c, 1, 62, 0
1, 24189, Note_on_c, 1, 52, 0
1, 24191, Note_on_c, 0, 71, 0
1, 24192, Note_on_c, 0, 69, 85
1, 24192, Note_on_c, 1, 61, 85
1, 24192, Note_on_c, 1, 57, 85
1, 24237, Note_on_c, 0, 69, 0
1, 24237, Note_on_c, 1, 61, 0
1, 24237, Note_on_c, 1, 57, 0
1, 24288, Note_on_c, 0, 78, 85
1, 24288, Note_on_c, 1, 57, 85
1, 24288, Note_on_c, 1, 50, 85
1, 24355, Note_on_c, 0, 78, 0
1, 24360, Note_on_c, 0, 80, 85
1, 24372, Note_on_c, 0, 80, 0
1, 24372, Note_on_c, 0, 81, 85
1, 24377, Note_on_c, 1, 57, 0
1, 24377, Note_on_c, 1, 50, 0
1, 24384, Note_on_c, 0, 81, 0
1, 24384, Note_on_c, 0, 76, 80
1, 24384, Note_on_c, 1, 57, 85
1, 24384, Note_on_c, 1, 49, 85
1, 24429, Note_on_c, 0, 76, 0
1, 24429, Note_on_c, 1, 57, 0
1, 24429, Note_on_c, 1, 49, 0
1, 24432, Note_on_c, 0, 76, 81
1, 24432, Note_on_c, 0, 73, 81
1, 24432, Note_on_c, 1, 61, 85
1, 24477, Note_on_c, 0, 76, 0
1, 24477, Note_on_c, 0, 73, 0
1, 24477, Note_on_c, 1, 61, 0
1, 24480, Note_on_c, 0, 74, 82
1, 24480, Note_on_c, 0, 71, 80
1, 24480, Note_on_c, 1, 62, 85
1, 24486, Note_on_c, 0, 74, 0
1, 24486, Note_on_c, 0, 76, 82
1, 24492, Note_on_c, 0, 76, 0
1, 24492, Note_on_c, 0, 74, 82
1, 24525, Note_on_c, 0, 74, 0
1, 24525, Note_on_c, 0, 71, 0
1, 24525, Note_on_c, 1, 62, 0
1, 24528, Note_on_c, 0, 73, 83
1, 24528, Note_on_c, 0, 69, 83
1, 24528, Note_on_c, 1, 63, 85
1, 24573, Note_on_c, 0, 73, 0
1, 24573, Note_on_c, 0, 69, 0
1, 24573, Note_on_c, 1, 63, 0
1, 24576, Note_on_c, 0, 71, 85
1, 24576, Note_on_c, 0, 68, 85
1, 24576, Note_on_c, 1, 64, 85
1, 24665, Note_on_c, 0, 71, 0
1, 24665, Note_on_c, 0, 68, 0
1, 24665, Note_on_c, 1, 64, 0
1, 24672, Note_on_c, 0, 78, 80
1, 24695, Note_on_c, 0, 78, 0
1, 24696, Note_on_c, 0, 76, 80
1, 24719, Note_on_c, 0, 76, 0
1, 24720, Note_on_c, 0, 74, 80
1, 24743, Note_on_c, 0, 74, 0
1, 24744, Note_on_c, 0, 73, 80
1, 24767, Note_on_c, 0, 73, 0
1, 24768, Note_on_c, 0, 74, 80
1, 24768, Note_on_c, 1, 61, 85
1, 24768, Note_on_c, 1, 57, 85
1, 24791, Note_on_c, 0, 74, 0
1, 24792, Note_on_c, 0, 73, 80
1, 24813, Note_on_c, 1, 61, 0
1, 24813, Note_on_c, 1, 57, 0
1, 24815, Note_on_c, 0, 73, 0
1, 24816, Note_on_c, 0, 71, 80
1, 24816, Note_on_c, 1, 61, 85
1, 24816, Note_on_c, 1, 57, 85
1, 24839, Note_on_c, 0, 71, 0
1, 24840, Note_on_c, 0, 69, 80
1, 24861, Note_on_c, 1, 61, 0
1, 24861, Note_on_c, 1, 57, 0
1, 24863, Note_on_c, 0, 69, 0
1, 24864, Note_on_c, 0, 73, 80
1, 24864, Note_on_c, 1, 62, 85
1, 24864, Note_on_c, 1, 52, 85
1, 24887, Note_on_c, 0, 73, 0
1, 24888, Note_on_c, 0, 71, 80
1, 24909, Note_on_c, 1, 62, 0
1, 24909, Note_on_c, 1, 52, 0
1, 24911, Note_on_c, 0, 71, 0
1, 24912, Note_on_c, 0, 69, 80
1, 24912, Note_on_c, 1, 62, 85
1, 24912, Note_on_c, 1, 52, 85
1, 24935, Note_on_c, 0, 69, 0
1, 24936, Note_on_c, 0, 71, 80
1, 24957, Note_on_c, 1, 62, 0
1, 24957, Note_on_c, 1, 52, 0
1, 24959, Note_on_c, 0, 71, 0
1, 24960, Note_on_c, 0, 74, 80
1, 24960, Note_on_c, 1, 61, 85
1, 24960, Note_on_c, 1, 57, 85
1, 24983, Note_on_c, 0, 74, 0
1, 24984, Note_on_c, 0, 73, 80
1, 25007, Note_on_c, 0, 73, 0
1, 25008, Note_on_c, 0, 71, 80
1, 25031, Note_on_c, 0, 71, 0
1, 25032, Note_on_c, 0, 69, 80
1, 25049, Note_on_c, 1, 61, 0
1, 25049, Note_on_c, 1, 57, 0
1, 25055, Note_on_c, 0, 69, 0
1, 25056, Note_on_c, 0, 83, 80
1, 25079, Note_on_c, 0, 83, 0
1, 25080, Note_on_c, 0, 81, 80
1, 25103, Note_on_c, 0, 81, 0
1, 25104, Note_on_c, 0, 80, 80
1, 25127, Note_on_c, 0, 80, 0
1, 25128, Note_on_c, 0, 78, 80
1, 25151, Note_on_c, 0, 78, 0
1, 25152, Note_on_c, 0, 76, 80
1, 25175, Note_on_c, 0, 76, 0
1, 25176, Note_on_c, 0, 85, 80
1, 25199, Note_on_c, 0, 85, 0
1, 25200, Note_on_c, 0, 83, 80
1, 25200, Note_on_c, 1, 61, 85
1, 25223, Note_on_c, 0, 83, 0
1, 25224, Note_on_c, 0, 81, 80
1, 25245, Note_on_c, 1, 61, 0
1, 25247, Note_on_c, 0, 81, 0
1, 25248, Note_on_c, 0, 80, 80
1, 25248, Note_on_c, 1, 62, 85
1, 25271, Note_on_c, 0, 80, 0
1, 25272, Note_on_c, 0, 78, 81
1, 25293, Note_on_c, 1, 62, 0
1, 25295, Note_on_c, 0, 78, 0
1, 25296, Note_on_c, 0, 76, 82
1, 25296, Note_on_c, 1, 63, 85
1, 25319, Note_on_c, 0, 76, 0
1, 25320, Note_on_c, 0, 74, 83
1, 25341, Note_on_c, 1, 63, 0
1, 25343, Note_on_c, 0, 74, 0
1, 25344, Note_on_c, 0, 73, 85
1, 25344, Note_on_c, 1, 69, 85
1, 25344, Note_on_c, 1, 64, 85
1, 25392, Note_on_c, 0, 73, 0
1, 25392, Note_on_c, 0, 71, 85
1, 25392, Note_on_c, 1, 69, 0
1, 25392, Note_on_c, 1, 68, 85
1, 25437, Note_on_c, 0, 71, 0
1, 25437, Note_on_c, 1, 68, 0
1, 25440, Note_on_c, 0, 75, 75
1, 25440, Note_on_c, 1, 68, 85
1, 25463, Note_on_c, 0, 75, 0
1, 25464, Note_on_c, 0, 76, 75
1, 25487, Note_on_c, 0, 76, 0
1, 25488, Note_on_c, 0, 75, 75
1, 25511, Note_on_c, 0, 75, 0
1, 25512, Note_on_c, 0, 76, 75
1, 25529, Note_on_c, 1, 68, 0
1, 25535, Note_on_c, 0, 76, 0
1, 25536, Note_on_c, 0, 77, 75
1, 25536, Note_on_c, 1, 69, 85
1, 25559, Note_on_c, 0, 77, 0
1, 25560, Note_on_c, 0, 78, 75
1, 25583, Note_on_c, 0, 78, 0
1, 25584, Note_on_c, 0, 77, 75
1, 25607, Note_on_c, 0, 77, 0
1, 25608, Note_on_c, 0, 78, 75
1, 25625, Note_on_c, 1, 69, 0
1, 25631, Note_on_c, 0, 78, 0
1, 25632, Note_on_c, 0, 76, 75
1, 25632, Note_on_c, 1, 66, 85
1, 25655, Note_on_c, 0, 76, 0
1, 25656, Note_on_c, 0, 75, 75
1, 25679, Note_on_c, 0, 75, 0
1, 25680, Note_on_c, 0, 73, 75
1, 25703, Note_on_c, 0, 73, 0
1, 25704, Note_on_c, 0, 71, 75
1, 25721, Note_on_c, 1, 66, 0
1, 25727, Note_on_c, 0, 71, 0
1, 25728, Note_on_c, 0, 82, 75
1, 25728, Note_on_c, 1, 68, 85
1, 25751, Note_on_c, 0, 82, 0
1, 25752, Note_on_c, 0, 83, 75
1, 25775, Note_on_c, 0, 83, 0
1, 25776, Note_on_c, 0, 82, 75
1, 25799, Note_on_c, 0, 82, 0
1, 25800, Note_on_c, 0, 83, 75
1, 25817, Note_on_c, 1, 68, 0
1, 25817, Note_on_c, 1, 64, 0
1, 25823, Note_on_c, 0, 83, 0
1, 25824, Note_on_c, 0, 81, 75
1, 25824, Note_on_c, 1, 64, 85
1, 25824, Note_on_c, 1, 61, 85
1, 25847, Note_on_c, 0, 81, 0
1, 25848, Note_on_c, 0, 80, 75
1, 25869, Note_on_c, 1, 64, 0
1, 25869, Note_on_c, 1, 61, 0
1, 25871, Note_on_c, 0, 80, 0
1, 25872, Note_on_c, 0, 78, 75
1, 25872, Note_on_c, 1, 64, 85
1, 25872, Note_on_c, 1, 61, 85
1, 25895, Note_on_c, 0, 78, 0
1, 25896, Note_on_c, 0, 76, 75
1, 25917, Note_on_c, 1, 64, 0
1, 25917, Note_on_c, 1, 61, 0
1, 25919, Note_on_c, 0, 76, 0
1, 25920, Note_on_c, 0, 80, 75
1, 25920, Note_on_c, 1, 61, 85
1, 25920, Note_on_c, 1, 57, 85
1, 25943, Note_on_c, 0, 80, 0
1, 25944, Note_on_c, 0, 81, 75
1, 25965, Note_on_c, 1, 61, 0
1, 25965, Note_on_c, 1, 57, 0
1, 25967, Note_on_c, 0, 81, 0
1, 25968, Note_on_c, 0, 80, 75
1, 25968, Note_on_c, 1, 61, 85
1, 25968, Note_on_c, 1, 57, 85
1, 25991, Note_on_c, 0, 80, 0
1, 25992, Note_on_c, 0, 81, 75
1, 26013, Note_on_c, 1, 61, 0
1, 26013, Note_on_c, 1, 57, 0
1, 26015, Note_on_c, 0, 81, 0
1, 26016, Note_on_c, 0, 80, 75
1, 26016, Note_on_c, 1, 59, 85
1, 26039, Note_on_c, 0, 80, 0
1, 26040, Note_on_c, 0, 78, 75
1, 26061, Note_on_c, 1, 59, 0
1, 26063, Note_on_c, 0, 78, 0
1, 26064, Note_on_c, 0, 76, 75
1, 26064, Note_on_c, 1, 59, 85
1, 26087, Note_on_c, 0, 76, 0
1, 26088, Note_on_c, 0, 75, 75
1, 26109, Note_on_c, 1, 59, 0
1, 26111, Note_on_c, 0, 75, 0
1, 26112, Note_on_c, 0, 76, 75
1, 26112, Note_on_c, 1, 52, 85
1, 26201, Note_on_c, 0, 76, 0
1, 26201, Note_on_c, 1, 52, 0
1, 26208, Note_on_c, 0, 78, 75
1, 26231, Note_on_c, 0, 78, 0
1, 26232, Note_on_c, 0, 76, 75
1, 26255, Note_on_c, 0, 76, 0
1, 26256, Note_on_c, 0, 74, 75
1, 26279, Note_on_c, 0, 74, 0
1, 26280, Note_on_c, 0, 73, 75
1, 26303, Note_on_c, 0, 73, 0
1, 26304, Note_on_c, 0, 74, 80
1, 26304, Note_on_c, 1, 61, 75
1, 26304, Note_on_c, 1, 57, 75
1, 26327, Note_on_c, 0, 74, 0
1, 26328, Note_on_c, 0, 73, 80
1, 26349, Note_on_c, 1, 61, 0
1, 26349, Note_on_c, 1, 57, 0
1, 26351, Note_on_c, 0, 73, 0
1, 26352, Note_on_c, 0, 71, 80
1, 26352, Note_on_c, 1, 61, 75
1, 26352, Note_on_c, 1, 57, 75
1, 26375, Note_on_c, 0, 71, 0
1, 26376, Note_on_c, 0, 69, 80
1, 26397, Note_on_c, 1, 61, 0
1, 26397, Note_on_c, 1, 57, 0
1, 26399, Note_on_c, 0, 69, 0
1, 26400, Note_on_c, 0, 73, 80
1, 26400, Note_on_c, 1, 62, 75
1, 26400, Note_on_c, 1, 52, 75
1, 26423, Note_on_c, 0, 73, 0
1, 26424, Note_on_c, 0, 71, 80
1, 26445, Note_on_c, 1, 62, 0
1, 26445, Note_on_c, 1, 52, 0
1, 26447, Note_on_c, 0, 71, 0
1, 26448, Note_on_c, 0, 69, 80
1, 26448, Note_on_c, 1, 62, 75
1, 26448, Note_on_c, 1, 52, 75
1, 26471, Note_on_c, 0, 69, 0
1, 26472, Note_on_c, 0, 71, 80
1, 26493, Note_on_c, 1, 62, 0
1, 26493, Note_on_c, 1, 52, 0
1, 26495, Note_on_c, 0, 71, 0
1, 26496, Note_on_c, 0, 74, 80
1, 26496, Note_on_c, 1, 61, 75
1, 26496, Note_on_c, 1, 57, 75
1, 26519, Note_on_c, 0, 74, 0
1, 26520, Note_on_c, 0, 73, 80
1, 26543, Note_on_c, 0, 73, 0
1, 26544, Note_on_c, 0, 71, 80
1, 26567, Note_on_c, 0, 71, 0
1, 26568, Note_on_c, 0, 69, 80
1, 26585, Note_on_c, 1, 61, 0
1, 26585, Note_on_c, 1, 57, 0
1, 26591, Note_on_c, 0, 69, 0
1, 26592, Note_on_c, 0, 83, 80
1, 26615, Note_on_c, 0, 83, 0
1, 26616, Note_on_c, 0, 81, 80
1, 26639, Note_on_c, 0, 81, 0
1, 26640, Note_on_c, 0, 80, 80
1, 26663, Note_on_c, 0, 80, 0
1, 26664, Note_on_c, 0, 78, 80
1, 26687, Note_on_c, 0, 78, 0
1, 26688, Note_on_c, 0, 76, 80
1, 26711, Note_on_c, 0, 76, 0
1, 26712, Note_on_c, 0, 85, 80
1, 26735, Note_on_c, 0, 85, 0
1, 26736, Note_on_c, 0, 83, 80
1, 26736, Note_on_c, 1, 61, 75
1, 26759, Note_on_c, 0, 83, 0
1, 26760, Note_on_c, 0, 81, 80
1, 26781, Note_on_c, 1, 61, 0
1, 26783, Note_on_c, 0, 81, 0
1, 26784, Note_on_c, 0, 80, 80
1, 26784, Note_on_c, 1, 62, 75
1, 26807, Note_on_c, 0, 80, 0
1, 26808, Note_on_c, 0, 78, 81
1, 26829, Note_on_c, 1, 62, 0
1, 26831, Note_on_c, 0, 78, 0
1, 26832, Note_on_c, 0, 76, 82
1, 26832, Note_on_c, 1, 63, 75
1, 26855, Note_on_c, 0, 76, 0
1, 26856, Note_on_c, 0, 74, 83
1, 26877, Note_on_c, 1, 63, 0
1, 26879, Note_on_c, 0, 74, 0
1, 26880, Note_on_c, 0, 73, 85
1, 26880, Note_on_c, 1, 69, 75
1, 26880, Note_on_c, 1, 64, 85
1, 26928, Note_on_c, 0, 73, 0
1, 26928, Note_on_c, 0, 71, 85
1, 26928, Note_on_c, 1, 69, 0
1, 26928, Note_on_c, 1, 68, 75
1, 26973, Note_on_c, 0, 71, 0
1, 26973, Note_on_c, 1, 68, 0
1, 26976, Note_on_c, 0, 75, 75
1, 26976, Note_on_c, 1, 68, 75
1, 26999, Note_on_c, 0, 75, 0
1, 27000, Note_on_c, 0, 76, 75
1, 27023, Note_on_c, 0, 76, 0
1, 27024, Note_on_c, 0, 75, 75
1, 27047, Note_on_c, 0, 75, 0
1, 27048, Note_on_c, 0, 76, 75
1, 27065, Note_on_c, 1, 68, 0
1, 27071, Note_on_c, 0, 76, 0
1, 27072, Note_on_c, 0, 77, 75
1, 27072, Note_on_c, 1, 69, 75
1, 27095, Note_on_c, 0, 77, 0
1, 27096, Note_on_c, 0, 78, 75
1, 27119, Note_on_c, 0, 78, 0
1, 27120, Note_on_c, 0, 77, 75
1, 27143, Note_on_c, 0, 77, 0
1, 27144, Note_on_c, 0, 78, 75
1, 27161, Note_on_c, 1, 69, 0
1, 27167, Note_on_c, 0, 78, 0
1, 27168, Note_on_c, 0, 76, 75
1, 27168, Note_on_c, 1, 66, 75
1, 27191, Note_on_c, 0, 76, 0
1, 27192, Note_on_c, 0, 75, 75
1, 27215, Note_on_c, 0, 75, 0
1, 27216, Note_on_c, 0, 73, 75
1, 27239, Note_on_c, 0, 73, 0
1, 27240, Note_on_c, 0, 71, 75
1, 27257, Note_on_c, 1, 66, 0
1, 27263, Note_on_c, 0, 71, 0
1, 27264, Note_on_c, 0, 82, 75
1, 27264, Note_on_c, 1, 68, 75
1, 27287, Note_on_c, 0, 82, 0
1, 27288, Note_on_c, 0, 83, 75
1, 27311, Note_on_c, 0, 83, 0
1, 27312, Note_on_c, 0, 82, 75
1, 27335, Note_on_c, 0, 82, 0
1, 27336, Note_on_c, 0, 83, 75
1, 27353, Note_on_c, 1, 68, 0
1, 27353, Note_on_c, 1, 64, 0
1, 27359, Note_on_c, 0, 83, 0
1, 27360, Note_on_c, 0, 81, 75
1, 27360, Note_on_c, 1, 64, 75
1, 27360, Note_on_c, 1, 61, 75
1, 27383, Note_on_c, 0, 81, 0
1, 27384, Note_on_c, 0, 80, 75
1, 27405, Note_on_c, 1, 64, 0
1, 27405, Note_on_c, 1, 61, 0
1, 27407, Note_on_c, 0, 80, 0
1, 27408, Note_on_c, 0, 78, 75
1, 27408, Note_on_c, 1, 64, 75
1, 27408, Note_on_c, 1, 61, 75
1, 27431, Note_on_c, 0, 78, 0
1, 27432, Note_on_c, 0, 76, 75
1, 27453, Note_on_c, 1, 64, 0
1, 27453, Note_on_c, 1, 61, 0
1, 27455, Note_on_c, 0, 76, 0
1, 27456, Note_on_c, 0, 80, 75
1, 27456, Note_on_c, 1, 61, 75
1, 27456, Note_on_c, 1, 57, 75
1, 27479, Note_on_c, 0, 80, 0
1, 27480, Note_on_c, 0, 81, 75
1, 27501, Note_on_c, 1, 61, 0
1, 27501, Note_on_c, 1, 57, 0
1, 27503, Note_on_c, 0, 81, 0
1, 27504, Note_on_c, 0, 80, 75
1, 27504, Note_on_c, 1, 61, 75
1, 27504, Note_on_c, 1, 57, 75
1, 27527, Note_on_c, 0, 80, 0
1, 27528, Note_on_c, 0, 81, 75
1, 27549, Note_on_c, 1, 61, 0
1, 27549, Note_on_c, 1, 57, 0
1, 27551, Note_on_c, 0, 81, 0
1, 27552, Note_on_c, 0, 80, 75
1, 27552, Note_on_c, 1, 59, 75
1, 27575, Note_on_c, 0, 80, 0
1, 27576, Note_on_c, 0, 78, 75
1, 27597, Note_on_c, 1, 59, 0
1, 27599, Note_on_c, 0, 78, 0
1, 27600, Note_on_c, 0, 76, 75
1, 27600, Note_on_c, 1, 59, 75
1, 27623, Note_on_c, 0, 76, 0
1, 27624, Note_on_c, 0, 75, 75
1, 27645, Note_on_c, 1, 59, 0
1, 27647, Note_on_c, 0, 75, 0
1, 27648, Note_on_c, 0, 76, 75
1, 27648, Note_on_c, 1, 52, 75
1, 27737, Note_on_c, 0, 76, 0
1, 27737, Note_on_c, 1, 52, 0
1, 27744, Note_on_c, 0, 81, 75
1, 27767, Note_on_c, 0, 81, 0
1, 27768, Note_on_c, 0, 79, 75
1, 27791, Note_on_c, 0, 79, 0
1, 27792, Note_on_c, 0, 78, 75
1, 27815, Note_on_c, 0, 78, 0
1, 27816, Note_on_c, 0, 76, 75
1, 27839, Note_on_c, 0, 76, 0
1, 27840, Note_on_c, 0, 78, 75
1, 27840, Note_on_c, 1, 67, 70
1, 27840, Note_on_c, 1, 64, 70
1, 27863, Note_on_c, 0, 78, 0
1, 27864, Note_on_c, 0, 76, 75
1, 27885, Note_on_c, 1, 67, 0
1, 27885, Note_on_c, 1, 64, 0
1, 27887, Note_on_c, 0, 76, 0
1, 27888, Note_on_c, 0, 74, 75
1, 27888, Note_on_c, 1, 67, 70
1, 27888, Note_on_c, 1, 64, 70
1, 27911, Note_on_c, 0, 74, 0
1, 27912, Note_on_c, 0, 73, 75
1, 27933, Note_on_c, 1, 67, 0
1, 27933, Note_on_c, 1, 64, 0
1, 27935, Note_on_c, 0, 73, 0
1, 27936, Note_on_c, 0, 73, 75
1, 27936, Note_on_c, 1, 66, 70
1, 27936, Note_on_c, 1, 62, 70
1, 27959, Note_on_c, 0, 73, 0
1, 27960, Note_on_c, 0, 71, 75
1, 27981, Note_on_c, 1, 66, 0
1, 27981, Note_on_c, 1, 62, 0
1, 27983, Note_on_c, 0, 71, 0
1, 27984, Note_on_c, 0, 70, 75
1, 27984, Note_on_c, 1, 66, 70
1, 27984, Note_on_c, 1, 62, 70
1, 28007, Note_on_c, 0, 70, 0
1, 28008, Note_on_c, 0, 71, 75
1, 28029, Note_on_c, 1, 66, 0
1, 28029, Note_on_c, 1, 62, 0
1, 28031, Note_on_c, 0, 71, 0
1, 28032, Note_on_c, 0, 70, 75
1, 28032, Note_on_c, 1, 64, 70
1, 28032, Note_on_c, 1, 61, 70
1, 28055, Note_on_c, 0, 70, 0
1, 28056, Note_on_c, 0, 76, 75
1, 28077, Note_on_c, 1, 64, 0
1, 28077, Note_on_c, 1, 61, 0
1, 28079, Note_on_c, 0, 76, 0
1, 28080, Note_on_c, 0, 74, 75
1, 28080, Note_on_c, 1, 64, 70
1, 28080, Note_on_c, 1, 61, 70
1, 28103, Note_on_c, 0, 74, 0
1, 28104, Note_on_c, 0, 73, 75
1, 28125, Note_on_c, 1, 64, 0
1, 28125, Note_on_c, 1, 61, 0
1, 28127, Note_on_c, 0, 73, 0
1, 28128, Note_on_c, 0, 71, 75
1, 28128, Note_on_c, 1, 66, 70
1, 28128, Note_on_c, 1, 62, 70
1, 28151, Note_on_c, 0, 71, 0
1, 28152, Note_on_c, 0, 78, 75
1, 28173, Note_on_c, 1, 66, 0
1, 28173, Note_on_c, 1, 62, 0
1, 28175, Note_on_c, 0, 78, 0
1, 28176, Note_on_c, 0, 76, 75
1, 28176, Note_on_c, 1, 66, 70
1, 28176, Note_on_c, 1, 62, 70
1, 28199, Note_on_c, 0, 76, 0
1, 28200, Note_on_c, 0, 74, 75
1, 28221, Note_on_c, 1, 66, 0
1, 28221, Note_on_c, 1, 62, 0
1, 28223, Note_on_c, 0, 74, 0
1, 28224, Note_on_c, 0, 73, 75
1, 28224, Note_on_c, 1, 64, 85
1, 28224, Note_on_c, 1, 62, 85
1, 28247, Note_on_c, 0, 73, 0
1, 28248, Note_on_c, 0, 71, 76
1, 28269, Note_on_c, 1, 64, 0
1, 28269, Note_on_c, 1, 62, 0
1, 28271, Note_on_c, 0, 71, 0
1, 28272, Note_on_c, 0, 69, 77
1, 28272, Note_on_c, 1, 64, 85
1, 28272, Note_on_c, 1, 62, 85
1, 28295, Note_on_c, 0, 69, 0
1, 28296, Note_on_c, 0, 68, 78
1, 28317, Note_on_c, 1, 64, 0
1, 28317, Note_on_c, 1, 62, 0
1, 28319, Note_on_c, 0, 68, 0
1, 28320, Note_on_c, 0, 69, 80
1, 28320, Note_on_c, 1, 61, 75
1, 28320, Note_on_c, 1, 64, 85
1, 28343, Note_on_c, 0, 69, 0
1, 28344, Note_on_c, 0, 71, 81
1, 28365, Note_on_c, 1, 61, 0
1, 28367, Note_on_c, 0, 71, 0
1, 28368, Note_on_c, 0, 73, 82
1, 28368, Note_on_c, 1, 57, 75
1, 28391, Note_on_c, 0, 73, 0
1, 28392, Note_on_c, 0, 74, 83
1, 28409, Note_on_c, 1, 64, 0
1, 28413, Note_on_c, 1, 57, 0
1, 28415, Note_on_c, 0, 74, 0
1, 28416, Note_on_c, 0, 76, 85
1, 28416, Note_on_c, 1, 64, 75
1, 28416, Note_on_c, 1, 52, 75
1, 28505, Note_on_c, 0, 76, 0
1, 28505, Note_on_c, 1, 64, 0
1, 28505, Note_on_c, 1, 52, 0
1, 28512, Note_on_c, 0, 78, 80
1, 28535, Note_on_c, 0, 78, 0
1, 28536, Note_on_c, 0, 76, 80
1, 28559, Note_on_c, 0, 76, 0
1, 28560, Note_on_c, 0, 74, 80
1, 28583, Note_on_c, 0, 74, 0
1, 28584, Note_on_c, 0, 73, 80
1, 28607, Note_on_c, 0, 73, 0
1, 28608, Note_on_c, 0, 74, 80
1, 28608, Note_on_c, 1, 61, 75
1, 28608, Note_on_c, 1, 57, 75
1, 28631, Note_on_c, 0, 74, 0
1, 28632, Note_on_c, 0, 73, 80
1, 28653, Note_on_c, 1, 61, 0
1, 28653, Note_on_c, 1, 57, 0
1, 28655, Note_on_c, 0, 73, 0
1, 28656, Note_on_c, 0, 71, 80
1, 28656, Note_on_c, 1, 61, 75
1, 28656, Note_on_c, 1, 57, 75
1, 28679, Note_on_c, 0, 71, 0
1, 28680, Note_on_c, 0, 69, 80
1, 28701, Note_on_c, 1, 61, 0
1, 28701, Note_on_c, 1, 57, 0
1, 28703, Note_on_c, 0, 69, 0
1, 28704, Note_on_c, 0, 73, 80
1, 28704, Note_on_c, 1, 62, 75
1, 28704, Note_on_c, 1, 52, 75
1, 28727, Note_on_c, 0, 73, 0
1, 28728, Note_on_c, 0, 71, 80
1, 28749, Note_on_c, 1, 62, 0
1, 28749, Note_on_c, 1, 52, 0
1, 28751, Note_on_c, 0, 71, 0
1, 28752, Note_on_c, 0, 69, 80
1, 28752, Note_on_c, 1, 62, 75
1, 28752, Note_on_c, 1, 52, 75
1, 28775, Note_on_c, 0, 69, 0
1, 28776, Note_on_c, 0, 71, 80
1, 28797, Note_on_c, 1, 62, 0
1, 28797, Note_on_c, 1, 52, 0
1, 28799, Note_on_c, 0, 71, 0
1, 28800, Note_on_c, 0, 74, 80
1, 28800, Note_on_c, 1, 61, 75
1, 28800, Note_on_c, 1, 57, 75
1, 28823, Note_on_c, 0, 74, 0
1, 28824, Note_on_c, 0, 73, 80
1, 28847, Note_on_c, 0, 73, 0
1, 28848, Note_on_c, 0, 71, 80
1, 28871, Note_on_c, 0, 71, 0
1, 28872, Note_on_c, 0, 69, 80
1, 28889, Note_on_c, 1, 61, 0
1, 28889, Note_on_c, 1, 57, 0
1, 28895, Note_on_c, 0, 69, 0
1, 28896, Note_on_c, 0, 88, 80
1, 28919, Note_on_c, 0, 88, 0
1, 28920, Note_on_c, 0, 85, 80
1, 28943, Note_on_c, 0, 85, 0
1, 28944, Note_on_c, 0, 83, 80
1, 28944, Note_on_c, 1, 57, 75
1, 28944, Note_on_c, 1, 49, 75
1, 28967, Note_on_c, 0, 83, 0
1, 28968, Note_on_c, 0, 81, 80
1, 28989, Note_on_c, 1, 57, 0
1, 28989, Note_on_c, 1, 49, 0
1, 28991, Note_on_c, 0, 81, 0
1, 28992, Note_on_c, 0, 80, 80
1, 28992, Note_on_c, 1, 57, 75
1, 28992, Note_on_c, 1, 50, 85
1, 29015, Note_on_c, 0, 80, 0
1, 29016, Note_on_c, 0, 78, 80
1, 29039, Note_on_c, 0, 78, 0
1, 29040, Note_on_c, 0, 76, 80
1, 29063, Note_on_c, 0, 76, 0
1, 29064, Note_on_c, 0, 74, 80
1, 29081, Note_on_c, 1, 57, 0
1, 29081, Note_on_c, 1, 50, 0
1, 29087, Note_on_c, 0, 74, 0
1, 29088, Note_on_c, 0, 73, 80
1, 29088, Note_on_c, 1, 57, 75
1, 29088, Note_on_c, 1, 52, 85
1, 29133, Note_on_c, 0, 73, 0
1, 29133, Note_on_c, 1, 57, 0
1, 29136, Note_on_c, 0, 71, 80
1, 29136, Note_on_c, 1, 56, 75
1, 29142, Note_on_c, 0, 71, 0
1, 29142, Note_on_c, 0, 73, 80
1, 29148, Note_on_c, 0, 73, 0
1, 29148, Note_on_c, 0, 71, 80
1, 29177, Note_on_c, 1, 52, 0
1, 29181, Note_on_c, 0, 71, 0
1, 29181, Note_on_c, 1, 56, 0
1, 29184, Note_on_c, 0, 69, 80
1, 29184, Note_on_c, 1, 57, 75
1, 29184, Note_on_c, 1, 45, 75
1, 29273, Note_on_c, 0, 69, 0
1, 29273, Note_on_c, 1, 57, 0
1, 29273, Note_on_c, 1, 45, 0
1, 29280, Note_on_c, 0, 81, 80
1, 29303, Note_on_c, 0, 81, 0
1, 29304, Note_on_c, 0, 79, 80
1, 29327, Note_on_c, 0, 79, 0
1, 29328, Note_on_c, 0, 78, 80
1, 29351, Note_on_c, 0, 78, 0
1, 29352, Note_on_c, 0, 76, 80
1, 29375, Note_on_c, 0, 76, 0
1, 29376, Note_on_c, 0, 78, 75
1, 29376, Note_on_c, 1, 67, 70
1, 29376, Note_on_c, 1, 64, 70
1, 29399, Note_on_c, 0, 78, 0
1, 29400, Note_on_c, 0, 76, 75
1, 29421, Note_on_c, 1, 67, 0
1, 29421, Note_on_c, 1, 64, 0
1, 29423, Note_on_c, 0, 76, 0
1, 29424, Note_on_c, 0, 74, 75
1, 29424, Note_on_c, 1, 67, 70
1, 29424, Note_on_c, 1, 64, 70
1, 29447, Note_on_c, 0, 74, 0
1, 29448, Note_on_c, 0, 73, 75
1, 29469, Note_on_c, 1, 67, 0
1, 29469, Note_on_c, 1, 64, 0
1, 29471, Note_on_c, 0, 73, 0
1, 29472, Note_on_c, 0, 73, 75
1, 29472, Note_on_c, 1, 66, 70
1, 29472, Note_on_c, 1, 62, 70
1, 29495, Note_on_c, 0, 73, 0
1, 29496, Note_on_c, 0, 71, 75
1, 29517, Note_on_c, 1, 66, 0
1, 29517, Note_on_c, 1, 62, 0
1, 29519, Note_on_c, 0, 71, 0
1, 29520, Note_on_c, 0, 70, 75
1, 29520, Note_on_c, 1, 66, 70
1, 29520, Note_on_c, 1, 62, 70
1, 29543, Note_on_c, 0, 70, 0
1, 29544, Note_on_c, 0, 71, 75
1, 29565, Note_on_c, 1, 66, 0
1, 29565, Note_on_c, 1, 62, 0
1, 29567, Note_on_c, 0, 71, 0
1, 29568, Note_on_c, 0, 70, 75
1, 29568, Note_on_c, 1, 64, 70
1, 29568, Note_on_c, 1, 61, 70
1, 29591, Note_on_c, 0, 70, 0
1, 29592, Note_on_c, 0, 76, 75
1, 29613, Note_on_c, 1, 64, 0
1, 29613, Note_on_c, 1, 61, 0
1, 29615, Note_on_c, 0, 76, 0
1, 29616, Note_on_c, 0, 74, 75
1, 29616, Note_on_c, 1, 64, 70
1, 29616, Note_on_c, 1, 61, 70
1, 29639, Note_on_c, 0, 74, 0
1, 29640, Note_on_c, 0, 73, 75
1, 29661, Note_on_c, 1, 64, 0
1, 29661, Note_on_c, 1, 61, 0
1, 29663, Note_on_c, 0, 73, 0
1, 29664, Note_on_c, 0, 71, 75
1, 29664, Note_on_c, 1, 66, 70
1, 29664, Note_on_c, 1, 62, 70
1, 29687, Note_on_c, 0, 71, 0
1, 29688, Note_on_c, 0, 78, 75
1, 29709, Note_on_c, 1, 66, 0
1, 29709, Note_on_c, 1, 62, 0
1, 29711, Note_on_c, 0, 78, 0
1, 29712, Note_on_c, 0, 76, 75
1, 29712, Note_on_c, 1, 66, 70
1, 29712, Note_on_c, 1, 62, 70
1, 29735, Note_on_c, 0, 76, 0
1, 29736, Note_on_c, 0, 74, 75
1, 29757, Note_on_c, 1, 66, 0
1, 29757, Note_on_c, 1, 62, 0
1, 29759, Note_on_c, 0, 74, 0
1, 29760, Note_on_c, 0, 73, 75
1, 29760, Note_on_c, 1, 64, 85
1, 29760, Note_on_c, 1, 62, 85
1, 29783, Note_on_c, 0, 73, 0
1, 29784, Note_on_c, 0, 71, 76
1, 29805, Note_on_c, 1, 64, 0
1, 29805, Note_on_c, 1, 62, 0
1, 29807, Note_on_c, 0, 71, 0
1, 29808, Note_on_c, 0, 69, 77
1, 29808, Note_on_c, 1, 64, 85
1, 29808, Note_on_c, 1, 62, 85
1, 29831, Note_on_c, 0, 69, 0
1, 29832, Note_on_c, 0, 68, 78
1, 29853, Note_on_c, 1, 64, 0
1, 29853, Note_on_c, 1, 62, 0
1, 29855, Note_on_c, 0, 68, 0
1, 29856, Note_on_c, 0, 69, 80
1, 29856, Note_on_c, 1, 61, 75
1, 29856, Note_on_c, 1, 64, 85
1, 29879, Note_on_c, 0, 69, 0
1, 29880, Note_on_c, 0, 71, 81
1, 29901, Note_on_c, 1, 61, 0
1, 29903, Note_on_c, 0, 71, 0
1, 29904, Note_on_c, 0, 73, 82
1, 29904, Note_on_c, 1, 57, 75
1, 29927, Note_on_c, 0, 73, 0
1, 29928, Note_on_c, 0, 74, 83
1, 29945, Note_on_c, 1, 64, 0
1, 29949, Note_on_c, 1, 57, 0
1, 29951, Note_on_c, 0, 74, 0
1, 29952, Note_on_c, 0, 76, 85
1, 29952, Note_on_c, 1, 64, 75
1, 29952, Note_on_c, 1, 52, 75
1, 30041, Note_on_c, 0, 76, 0
1, 30041, Note_on_c, 1, 64, 0
1, 30041, Note_on_c, 1, 52, 0
1, 30048, Note_on_c, 0, 78, 80
1, 30071, Note_on_c, 0, 78, 0
1, 30072, Note_on_c, 0, 76, 80
1, 30095, Note_on_c, 0, 76, 0
1, 30096, Note_on_c, 0, 74, 80
1, 30119, Note_on_c, 0, 74, 0
1, 30120, Note_on_c, 0, 73, 80
1, 30143, Note_on_c, 0, 73, 0
1, 30144, Note_on_c, 0, 74, 80
1, 30144, Note_on_c, 1, 61, 75
1, 30144, Note_on_c, 1, 57, 75
1, 30167, Note_on_c, 0, 74, 0
1, 30168, Note_on_c, 0, 73, 80
1, 30189, Note_on_c, 1, 61, 0
1, 30189, Note_on_c, 1, 57, 0
1, 30191, Note_on_c, 0, 73, 0
1, 30192, Note_on_c, 0, 71, 80
1, 30192, Note_on_c, 1, 61, 75
1, 30192, Note_on_c, 1, 57, 75
1, 30215, Note_on_c, 0, 71, 0
1, 30216, Note_on_c, 0, 69, 80
1, 30237, Note_on_c, 1, 61, 0
1, 30237, Note_on_c, 1, 57, 0
1, 30239, Note_on_c, 0, 69, 0
1, 30240, Note_on_c, 0, 73, 80
1, 30240, Note_on_c, 1, 62, 75
1, 30240, Note_on_c, 1, 52, 75
1, 30263, Note_on_c, 0, 73, 0
1, 30264, Note_on_c, 0, 71, 80
1, 30285, Note_on_c, 1, 62, 0
1, 30285, Note_on_c, 1, 52, 0
1, 30287, Note_on_c, 0, 71, 0
1, 30288, Note_on_c, 0, 69, 80
1, 30288, Note_on_c, 1, 62, 75
1, 30288, Note_on_c, 1, 52, 75
1, 30311, Note_on_c, 0, 69, 0
1, 30312, Note_on_c, 0, 71, 80
1, 30333, Note_on_c, 1, 62, 0
1, 30333, Note_on_c, 1, 52, 0
1, 30335, Note_on_c, 0, 71, 0
1, 30336, Note_on_c, 0, 74, 80
1, 30336, Note_on_c, 1, 61, 75
1, 30336, Note_on_c, 1, 57, 75
1, 30359, Note_on_c, 0, 74, 0
1, 30360, Note_on_c, 0, 73, 80
1, 30383, Note_on_c, 0, 73, 0
1, 30384, Note_on_c, 0, 71, 80
1, 30407, Note_on_c, 0, 71, 0
1, 30408, Note_on_c, 0, 69, 80
1, 30425, Note_on_c, 1, 61, 0
1, 30425, Note_on_c, 1, 57, 0
1, 30431, Note_on_c, 0, 69, 0
1, 30432, Note_on_c, 0, 88, 80
1, 30455, Note_on_c, 0, 88, 0
1, 30456, Note_on_c, 0, 85, 80
1, 30479, Note_on_c, 0, 85, 0
1, 30480, Note_on_c, 0, 83, 80
1, 30480, Note_on_c, 1, 57, 75
1, 30480, Note_on_c, 1, 49, 75
1, 30503, Note_on_c, 0, 83, 0
1, 30504, Note_on_c, 0, 81, 80
1, 30525, Note_on_c, 1, 57, 0
1, 30525, Note_on_c, 1, 49, 0
1, 30527, Note_on_c, 0, 81, 0
1, 30528, Note_on_c, 0, 80, 80
1, 30528, Note_on_c, 1, 57, 75
1, 30528, Note_on_c, 1, 50, 85
1, 30551, Note_on_c, 0, 80, 0
1, 30552, Note_on_c, 0, 78, 80
1, 30575, Note_on_c, 0, 78, 0
1, 30576, Note_on_c, 0, 76, 80
1, 30599, Note_on_c, 0, 76, 0
1, 30600, Note_on_c, 0, 74, 80
1, 30617, Note_on_c, 1, 57, 0
1, 30617, Note_on_c, 1, 50, 0
1, 30623, Note_on_c, 0, 74, 0
1, 30624, Note_on_c, 0, 73, 80
1, 30624, Note_on_c, 1, 57, 75
1, 30624, Note_on_c, 1, 52, 85
1, 30669, Note_on_c, 0, 73, 0
1, 30669, Note_on_c, 1, 57, 0
1, 30672, Note_on_c, 0, 71, 80
1, 30672, Note_on_c, 1, 56, 75
1, 30678, Note_on_c, 0, 71, 0
1, 30678, Note_on_c, 0, 73, 80
1, 30684, Note_on_c, 0, 73, 0
1, 30684, Note_on_c, 0, 71, 80
1, 30713, Note_on_c, 1, 52, 0
1, 30717, Note_on_c, 0, 71, 0
1, 30717, Note_on_c, 1, 56, 0
1, 30720, Note_on_c, 0, 69, 80
1, 30720, Note_on_c, 1, 57, 75
1, 30720, Note_on_c, 1, 45, 75
1, 30809, Note_on_c, 0, 69, 0
1, 30809, Note_on_c, 1, 57, 0
1, 30809, Note_on_c, 1, 45, 0
1, 30816, Note_on_c, 0, 73, 80
1, 30883, Note_on_c, 0, 73, 0
1, 30888, Note_on_c, 0, 74, 80
1, 30900, Note_on_c, 0, 74, 0
1, 30900, Note_on_c, 0, 76, 80
1, 30912, Note_on_c, 0, 76, 0
1, 30912, Note_on_c, 0, 69, 80
1, 30912, Note_on_c, 1, 61, 75
1, 30912, Note_on_c, 1, 57, 75
1, 30932, Note_on_c, 0, 69, 0
1, 30957, Note_on_c, 1, 61, 0
1, 30957, Note_on_c, 1, 57, 0
1, 30960, Note_on_c, 0, 69, 80
1, 30960, Note_on_c, 1, 61, 75
1, 30960, Note_on_c, 1, 57, 75
1, 30980, Note_on_c, 0, 69, 0
1, 31005, Note_on_c, 1, 61, 0
1, 31005, Note_on_c, 1, 57, 0
1, 31008, Note_on_c, 0, 73, 80
1, 31008, Note_on_c, 1, 62, 75
1, 31008, Note_on_c, 1, 52, 75
1, 31031, Note_on_c, 0, 73, 0
1, 31032, Note_on_c, 0, 71, 80
1, 31053, Note_on_c, 1, 62, 0
1, 31053, Note_on_c, 1, 52, 0
1, 31055, Note_on_c, 0, 71, 0
1, 31056, Note_on_c, 0, 69, 80
1, 31056, Note_on_c, 1, 62, 75
1, 31056, Note_on_c, 1, 52, 75
1, 31079, Note_on_c, 0, 69, 0
1, 31080, Note_on_c, 0, 71, 80
1, 31101, Note_on_c, 1, 62, 0
1, 31101, Note_on_c, 1, 52, 0
1, 31103, Note_on_c, 0, 71, 0
1, 31104, Note_on_c, 0, 69, 80
1, 31104, Note_on_c, 1, 61, 75
1, 31104, Note_on_c, 1, 57, 75
1, 31149, Note_on_c, 0, 69, 0
1, 31149, Note_on_c, 1, 61, 0
1, 31149, Note_on_c, 1, 57, 0
1, 31200, Note_on_c, 0, 78, 80
1, 31200, Note_on_c, 1, 57, 75
1, 31200, Note_on_c, 1, 50, 75
1, 31267, Note_on_c, 0, 78, 0
1, 31272, Note_on_c, 0, 80, 80
1, 31284, Note_on_c, 0, 80, 0
1, 31284, Note_on_c, 0, 81, 80
1, 31289, Note_on_c, 1, 57, 0
1, 31289, Note_on_c, 1, 50, 0
1, 31296, Note_on_c, 0, 81, 0
1, 31296, Note_on_c, 0, 76, 80
1, 31296, Note_on_c, 1, 57, 75
1, 31296, Note_on_c, 1, 49, 75
1, 31341, Note_on_c, 0, 76, 0
1, 31341, Note_on_c, 1, 57, 0
1, 31341, Note_on_c, 1, 49, 0
1, 31344, Note_on_c, 0, 76, 81
1, 31344, Note_on_c, 0, 73, 81
1, 31344, Note_on_c, 1, 61, 75
1, 31389, Note_on_c, 0, 76, 0
1, 31389, Note_on_c, 0, 73, 0
1, 31389, Note_on_c, 1, 61, 0
1, 31392, Note_on_c, 0, 74, 82
1, 31392, Note_on_c, 0, 71, 80
1, 31392, Note_on_c, 1, 62, 75
1, 31398, Note_on_c, 0, 74, 0
1, 31398, Note_on_c, 0, 76, 82
1, 31404, Note_on_c, 0, 76, 0
1, 31404, Note_on_c, 0, 74, 82
1, 31437, Note_on_c, 0, 74, 0
1, 31437, Note_on_c, 0, 71, 0
1, 31437, Note_on_c, 1, 62, 0
1, 31440, Note_on_c, 0, 73, 83
1, 31440, Note_on_c, 0, 69, 83
1, 31440, Note_on_c, 1, 63, 75
1, 31485, Note_on_c, 0, 73, 0
1, 31485, Note_on_c, 0, 69, 0
1, 31485, Note_on_c, 1, 63, 0
1, 31488, Note_on_c, 0, 71, 85
1, 31488, Note_on_c, 0, 68, 85
1, 31488, Note_on_c, 1, 64, 75
1, 31577, Note_on_c, 0, 71, 0
1, 31577, Note_on_c, 0, 68, 0
1, 31577, Note_on_c, 1, 64, 0
1, 31584, Note_on_c, 0, 73, 80
1, 31607, Note_on_c, 0, 73, 0
1, 31608, Note_on_c, 0, 74, 80
1, 31631, Note_on_c, 0, 74, 0
1, 31632, Note_on_c, 0, 75, 80
1, 31655, Note_on_c, 0, 75, 0
1, 31656, Note_on_c, 0, 76, 80
1, 31679, Note_on_c, 0, 76, 0
1, 31680, Note_on_c, 0, 69, 80
1, 31680, Note_on_c, 1, 61, 75
1, 31680, Note_on_c, 1, 57, 75
1, 31725, Note_on_c, 0, 69, 0
1, 31725, Note_on_c, 1, 61, 0
1, 31725, Note_on_c, 1, 57, 0
1, 31728, Note_on_c, 0, 69, 80
1, 31728, Note_on_c, 1, 61, 75
1, 31728, Note_on_c, 1, 57, 75
1, 31773, Note_on_c, 0, 69, 0
1, 31773, Note_on_c, 1, 61, 0
1, 31773, Note_on_c, 1, 57, 0
1, 31776, Note_on_c, 0, 73, 80
1, 31776, Note_on_c, 1, 62, 75
1, 31776, Note_on_c, 1, 52, 75
1, 31799, Note_on_c, 0, 73, 0
1, 31800, Note_on_c, 0, 71, 80
1, 31821, Note_on_c, 1, 62, 0
1, 31821, Note_on_c, 1, 52, 0
1, 31823, Note_on_c, 0, 71, 0
1, 31824, Note_on_c, 0, 69, 80
1, 31824, Note_on_c, 1, 62, 75
1, 31824, Note_on_c, 1, 52, 75
1, 31847, Note_on_c, 0, 69, 0
1, 31848, Note_on_c, 0, 71, 80
1, 31869, Note_on_c, 1, 62, 0
1, 31869, Note_on_c, 1, 52, 0
1, 31871, Note_on_c, 0, 71, 0
1, 31872, Note_on_c, 0, 73, 85
1, 31872, Note_on_c, 1, 57, 85
1, 31917, Note_on_c, 0, 73, 0
1, 31917, Note_on_c, 1, 57, 0
1, 31920, Note_on_c, 0, 74, 85
1, 31920, Note_on_c, 1, 59, 85
1, 31943, Note_on_c, 0, 74, 0
1, 31943, Note_on_c, 1, 59, 0
1, 31944, Note_on_c, 0, 76, 85
1, 31944, Note_on_c, 1, 61, 85
1, 31967, Note_on_c, 0, 76, 0
1, 31967, Note_on_c, 1, 61, 0
1, 31968, Note_on_c, 0, 78, 85
1, 31968, Note_on_c, 1, 62, 85
1, 31991, Note_on_c, 0, 78, 0
1, 31991, Note_on_c, 1, 62, 0
1, 31992, Note_on_c, 0, 80, 85
1, 31992, Note_on_c, 1, 64, 85
1, 32015, Note_on_c, 0, 80, 0
1, 32015, Note_on_c, 1, 64, 0
1, 32016, Note_on_c, 0, 81, 85
1, 32016, Note_on_c, 1, 66, 85
1, 32039, Note_on_c, 0, 81, 0
1, 32039, Note_on_c, 1, 66, 0
1, 32040, Note_on_c, 0, 83, 85
1, 32040, Note_on_c, 1, 68, 85
1, 32063, Note_on_c, 0, 83, 0
1, 32063, Note_on_c, 1, 68, 0
1, 32064, Note_on_c, 0, 85, 85
1, 32064, Note_on_c, 1, 69, 85
1, 32087, Note_on_c, 0, 85, 0
1, 32087, Note_on_c, 1, 69, 0
1, 32088, Note_on_c, 0, 86, 85
1, 32088, Note_on_c, 1, 71, 85
1, 32111, Note_on_c, 0, 86, 0
1, 32111, Note_on_c, 1, 71, 0
1, 32112, Note_on_c, 0, 88, 85
1, 32112, Note_on_c, 1, 73, 85
1, 32135, Note_on_c, 0, 88, 0
1, 32135, Note_on_c, 1, 73, 0
1, 32136, Note_on_c, 0, 86, 85
1, 32136, Note_on_c, 1, 71, 85
1, 32159, Note_on_c, 0, 86, 0
1, 32159, Note_on_c, 1, 71, 0
1, 32160, Note_on_c, 0, 85, 85
1, 32160, Note_on_c, 1, 69, 85
1, 32183, Note_on_c, 0, 85, 0
1, 32183, Note_on_c, 1, 69, 0
1, 32184, Note_on_c, 0, 83, 85
1, 32184, Note_on_c, 1, 68, 85
1, 32207, Note_on_c, 0, 83, 0
1, 32207, Note_on_c, 1, 68, 0
1, 32208, Note_on_c, 0, 81, 85
1, 32208, Note_on_c, 1, 66, 85
1, 32231, Note_on_c, 0, 81, 0
1, 32231, Note_on_c, 1, 66, 0
1, 32232, Note_on_c, 0, 80, 85
1, 32232, Note_on_c, 1, 64, 85
1, 32255, Note_on_c, 0, 80, 0
1, 32255, Note_on_c, 1, 64, 0
1, 32256, Note_on_c, 0, 78, 85
1, 32256, Note_on_c, 1, 62, 85
1, 32256, Note_on_c, 1, 62, 85
1, 32301, Note_on_c, 0, 78, 0
1, 32304, Note_on_c, 0, 81, 85
1, 32319, Note_on_c, 0, 81, 0
1, 32320, Note_on_c, 0, 78, 85
1, 32335, Note_on_c, 0, 78, 0
1, 32336, Note_on_c, 0, 74, 85
1, 32345, Note_on_c, 1, 62, 0
1, 32345, Note_on_c, 1, 62, 0
1, 32351, Note_on_c, 0, 74, 0
1, 32352, Note_on_c, 0, 73, 85
1, 32352, Note_on_c, 1, 64, 85
1, 32397, Note_on_c, 0, 73, 0
1, 32397, Note_on_c, 1, 64, 0
1, 32400, Note_on_c, 0, 71, 85
1, 32400, Note_on_c, 1, 52, 85
1, 32406, Note_on_c, 0, 71, 0
1, 32406, Note_on_c, 0, 73, 85
1, 32412, Note_on_c, 0, 73, 0
1, 32412, Note_on_c, 0, 71, 85
1, 32445, Note_on_c, 0, 71, 0
1, 32445, Note_on_c, 1, 52, 0
1, 32448, Tempo, 638297
1, 32448, Note_on_c, 0, 69, 85
1, 32448, Note_on_c, 1, 57, 85
1, 32537, Note_on_c, 0, 69, 0
1, 32537, Note_on_c, 1, 57, 0
1, 32544, Note_on_c, 0, 81, 92
1, 32544, Note_on_c, 0, 76, 92
1, 32544, Note_on_c, 0, 73, 92
1, 32544, Note_on_c, 1, 57, 92
1, 32544, Note_on_c, 1, 45, 92
1, 32633, Note_on_c, 0, 81, 0
1, 32633, Note_on_c, 0, 76, 0
1, 32633, Note_on_c, 0, 73, 0
1, 32633, Note_on_c, 1, 57, 0
1, 32633, Note_on_c, 1, 45, 0
1, 32640, Tempo, 750000
1, 32640, Note_on_c, 0, 81, 92
1, 32640, Note_on_c, 0, 76, 92
1, 32640, Note_on_c, 0, 73, 92
1, 32640, Note_on_c, 1, 57, 92
1, 32640, Note_on_c, 1, 45, 92
1, 32729, Note_on_c, 0, 81, 0
1, 32729, Note_on_c, 0, 76, 0
1, 32729, Note_on_c, 0, 73, 0
1, 32729, Note_on_c, 1, 57, 0
1, 32729, Note_on_c, 1, 45, 0
1, 32832, Note_on_c, 1, 45, 4
1, 32921, Note_on_c, 1, 45, 0
1, 32931, End_track
0, 0, End_of_file