0, 0, Header, 0, 1, 96
1, 0, Start_track
1, 0, Tempo, 100000
1, 288, Note_on_c, 0, 63, 77
1, 355, Note_on_c, 0, 63, 0
1, 360, Note_on_c, 0, 60, 77
1, 383, Note_on_c, 0, 60, 0
1, 384, Note_on_c, 0, 68, 77
1, 384, Note_on_c, 1, 56, 77
1, 384, Note_on_c, 1, 44, 77
1, 451, Note_on_c, 0, 68, 0
1, 456, Note_on_c, 0, 68, 77
1, 473, Note_on_c, 1, 56, 0
1, 473, Note_on_c, 1, 44, 0
1, 479, Note_on_c, 0, 68, 0
1, 480, Note_on_c, 0, 70, 77
1, 492, Note_on_c, 0, 70, 0
1, 492, Note_on_c, 0, 68, 77
1, 504, Note_on_c, 0, 68, 0
1, 504, Note_on_c, 0, 70, 77
1, 516, Note_on_c, 0, 70, 0
1, 516, Note_on_c, 0, 68, 77
1, 528, Note_on_c, 0, 68, 0
1, 528, Note_on_c, 0, 67, 77
1, 552, Note_on_c, 0, 67, 0
1, 552, Note_on_c, 0, 68, 77
1, 576, Note_on_c, 0, 68, 0
1, 576, Note_on_c, 0, 70, 77
1, 576, Note_on_c, 1, 55, 77
1, 576, Note_on_c, 1, 43, 77
1, 665, Note_on_c, 0, 70, 0
1, 665, Note_on_c, 1, 55, 0
1, 665, Note_on_c, 1, 43, 0
1, 672, Note_on_c, 0, 63, 77
1, 739, Note_on_c, 0, 63, 0
1, 744, Note_on_c, 0, 75, 77
1, 767, Note_on_c, 0, 75, 0
1, 768, Note_on_c, 0, 73, 77
1, 864, Note_on_c, 1, 44, 77
1, 960, Note_on_c, 0, 73, 0
1, 960, Note_on_c, 0, 72, 77
1, 960, Note_on_c, 1, 44, 0
1, 960, Note_on_c, 1, 56, 77
1, 980, Note_on_c, 0, 72, 0
1, 1005, Note_on_c, 1, 56, 0
1, 1056, Note_on_c, 0, 68, 77
1, 1123, Note_on_c, 0, 68, 0
1, 1128, Note_on_c, 0, 77, 77
1, 1151, Note_on_c, 0, 77, 0
1, 1152, Note_on_c, 0, 75, 77
1, 1248, Note_on_c, 1, 58, 77
1, 1344, Note_on_c, 0, 75, 0
1, 1344, Note_on_c, 0, 73, 77
1, 1344, Note_on_c, 1, 58, 0
1, 1344, Note_on_c, 1, 55, 77
1, 1364, Note_on_c, 0, 73, 0
1, 1389, Note_on_c, 1, 55, 0
1, 1440, Note_on_c, 0, 63, 77
1, 1507, Note_on_c, 0, 63, 0
1, 1512, Note_on_c, 0, 75, 77
1, 1535, Note_on_c, 0, 75, 0
1, 1536, Note_on_c, 0, 73, 77
1, 1632, Note_on_c, 1, 56, 77
1, 1728, Note_on_c, 0, 73, 0
1, 1728, Note_on_c, 0, 72, 77
1, 1728, Note_on_c, 1, 56, 0
1, 1728, Note_on_c, 1, 44, 77
1, 1748, Note_on_c, 0, 72, 0
1, 1773, Note_on_c, 1, 44, 0
1, 1824, Note_on_c, 0, 80, 77
1, 1824, Note_on_c, 1, 48, 77
1, 1891, Note_on_c, 0, 80, 0
1, 1896, Note_on_c, 0, 72, 77
1, 1913, Note_on_c, 1, 48, 0
1, 1919, Note_on_c, 0, 72, 0
1, 1920, Note_on_c, 0, 70, 77
1, 1920, Note_on_c, 1, 49, 77
1, 1987, Note_on_c, 0, 70, 0
1, 1992, Note_on_c, 0, 70, 77
1, 2015, Note_on_c, 0, 70, 0
1, 2016, Note_on_c, 0, 72, 77
1, 2028, Note_on_c, 0, 72, 0
1, 2028, Note_on_c, 0, 70, 77
1, 2040, Note_on_c, 0, 70, 0
1, 2040, Note_on_c, 0, 72, 77
1, 2052, Note_on_c, 0, 72, 0
1, 2052, Note_on_c, 0, 70, 77
1, 2064, Note_on_c, 0, 70, 0
1, 2064, Note_on_c, 0, 69, 77
1, 2088, Note_on_c, 0, 69, 0
1, 2088, Note_on_c, 0, 70, 77
1, 2097, Note_on_c, 1, 49, 0
1, 2112, Note_on_c, 0, 70, 0
1, 2112, Note_on_c, 0, 73, 77
1, 2179, Note_on_c, 0, 73, 0
1, 2184, Note_on_c, 0, 70, 77
1, 2207, Note_on_c, 0, 70, 0
1, 2208, Note_on_c, 0, 67, 77
1, 2208, Note_on_c, 1, 51, 77
1, 2275, Note_on_c, 0, 67, 0
1, 2280, Note_on_c, 0, 63, 77
1, 2297, Note_on_c, 1, 51, 0
1, 2303, Note_on_c, 0, 63, 0
1, 2304, Note_on_c, 0, 68, 77
1, 2343, Note_on_c, 0, 68, 0
1, 2376, Note_on_c, 1, 44, 77
1, 2399, Note_on_c, 1, 44, 0
1, 2400, Note_on_c, 1, 48, 77
1, 2467, Note_on_c, 1, 48, 0
1, 2472, Note_on_c, 1, 51, 77
1, 2495, Note_on_c, 1, 51, 0
1, 2496, Note_on_c, 1, 56, 77
1, 2535, Note_on_c, 1, 56, 0
1, 2592, Note_on_c, 0, 63, 77
1, 2659, Note_on_c, 0, 63, 0
1, 2664, Note_on_c, 0, 60, 77
1, 2687, Note_on_c, 0, 60, 0
1, 2688, Note_on_c, 0, 68, 77
1, 2688, Note_on_c, 1, 60, 77
1, 2688, Note_on_c, 1, 56, 77
1, 2755, Note_on_c, 0, 68, 0
1, 2760, Note_on_c, 0, 68, 77
1, 2777, Note_on_c, 1, 60, 0
1, 2777, Note_on_c, 1, 56, 0
1, 2783, Note_on_c, 0, 68, 0
1, 2784, Note_on_c, 0, 70, 77
1, 2796, Note_on_c, 0, 70, 0
1, 2796, Note_on_c, 0, 68, 77
1, 2808, Note_on_c, 0, 68, 0
1, 2808, Note_on_c, 0, 70, 77
1, 2820, Note_on_c, 0, 70, 0
1, 2820, Note_on_c, 0, 68, 77
1, 2832, Note_on_c, 0, 68, 0
1, 2832, Note_on_c, 0, 67, 77
1, 2856, Note_on_c, 0, 67, 0
1, 2856, Note_on_c, 0, 68, 77
1, 2880, Note_on_c, 0, 68, 0
1, 2880, Note_on_c, 0, 70, 77
1, 2880, Note_on_c, 1, 58, 77
1, 2880, Note_on_c, 1, 55, 77
1, 2969, Note_on_c, 0, 70, 0
1, 2969, Note_on_c, 1, 58, 0
1, 2969, Note_on_c, 1, 55, 0
1, 2976, Note_on_c, 0, 63, 77
1, 3043, Note_on_c, 0, 63, 0
1, 3048, Note_on_c, 0, 75, 77
1, 3071, Note_on_c, 0, 75, 0
1, 3072, Note_on_c, 0, 73, 77
1, 3168, Note_on_c, 1, 44, 77
1, 3264, Note_on_c, 0, 73, 0
1, 3264, Note_on_c, 0, 72, 77
1, 3264, Note_on_c, 1, 44, 0
1, 3264, Note_on_c, 1, 56, 77
1, 3309, Note_on_c, 0, 72, 0
1, 3353, Note_on_c, 1, 56, 0
1, 3360, Note_on_c, 0, 68, 77
1, 3360, Note_on_c, 1, 60, 77
1, 3427, Note_on_c, 0, 68, 0
1, 3432, Note_on_c, 0, 80, 77
1, 3449, Note_on_c, 1, 60, 0
1, 3455, Note_on_c, 0, 80, 0
1, 3456, Note_on_c, 0, 79, 77
1, 3552, Note_on_c, 0, 79, 0
1, 3552, Note_on_c, 0, 77, 77
1, 3552, Note_on_c, 1, 61, 77
1, 3581, Note_on_c, 0, 77, 0
1, 3591, Note_on_c, 1, 61, 0
1, 3624, Note_on_c, 0, 80, 77
1, 3647, Note_on_c, 0, 80, 0
1, 3648, Note_on_c, 0, 77, 77
1, 3744, Note_on_c, 0, 77, 0
1, 3744, Note_on_c, 0, 75, 77
1, 3744, Note_on_c, 1, 60, 77
1, 3773, Note_on_c, 0, 75, 0
1, 3783, Note_on_c, 1, 60, 0
1, 3816, Note_on_c, 0, 80, 77
1, 3839, Note_on_c, 0, 80, 0
1, 3840, Note_on_c, 0, 75, 77
1, 3936, Note_on_c, 0, 75, 0
1, 3936, Note_on_c, 0, 73, 77
1, 3936, Note_on_c, 1, 58, 77
1, 3965, Note_on_c, 0, 73, 0
1, 3975, Note_on_c, 1, 58, 0
1, 4008, Note_on_c, 0, 80, 77
1, 4031, Note_on_c, 0, 80, 0
1, 4032, Note_on_c, 0, 73, 77
1, 4128, Note_on_c, 0, 73, 0
1, 4128, Note_on_c, 0, 72, 77
1, 4128, Note_on_c, 1, 56, 77
1, 4157, Note_on_c, 0, 72, 0
1, 4167, Note_on_c, 1, 56, 0
1, 4200, Note_on_c, 0, 80, 77
1, 4223, Note_on_c, 0, 80, 0
1, 4224, Note_on_c, 0, 72, 77
1, 4291, Note_on_c, 0, 72, 0
1, 4296, Note_on_c, 0, 70, 80
1, 4319, Note_on_c, 0, 70, 0
1, 4320, Note_on_c, 0, 73, 81
1, 4320, Note_on_c, 1, 49, 77
1, 4320, Note_on_c, 1, 61, 64
1, 4387, Note_on_c, 0, 73, 0
1, 4392, Note_on_c, 0, 77, 84
1, 4409, Note_on_c, 1, 49, 0
1, 4409, Note_on_c, 1, 61, 0
1, 4415, Note_on_c, 0, 77, 0
1, 4416, Note_on_c, 0, 75, 83
1, 4416, Note_on_c, 1, 51, 77
1, 4416, Note_on_c, 1, 60, 64
1, 4505, Note_on_c, 0, 75, 0
1, 4505, Note_on_c, 1, 60, 0
1, 4512, Note_on_c, 0, 67, 80
1, 4512, Note_on_c, 1, 58, 64
1, 4593, Note_on_c, 1, 51, 0
1, 4601, Note_on_c, 0, 67, 0
1, 4601, Note_on_c, 1, 58, 0
1, 4608, Note_on_c, 0, 67, 77
1, 4608, Note_on_c, 1, 56, 63
1, 4620, Note_on_c, 0, 67, 0
1, 4620, Note_on_c, 0, 68, 77
1, 4638, Note_on_c, 1, 56, 0
1, 4640, Note_on_c, 1, 60, 63
1, 4670, Note_on_c, 1, 60, 0
1, 4672, Note_on_c, 1, 63, 63
1, 4698, Note_on_c, 0, 68, 0
1, 4702, Note_on_c, 1, 63, 0
1, 4704, Note_on_c, 0, 67, 77
1, 4704, Note_on_c, 1, 56, 63
1, 4716, Note_on_c, 0, 67, 0
1, 4716, Note_on_c, 0, 68, 77
1, 4734, Note_on_c, 1, 56, 0
1, 4736, Note_on_c, 1, 60, 63
1, 4766, Note_on_c, 1, 60, 0
1, 4768, Note_on_c, 1, 63, 63
1, 4794, Note_on_c, 0, 68, 0
1, 4798, Note_on_c, 1, 63, 0
1, 4800, Note_on_c, 0, 67, 77
1, 4800, Note_on_c, 1, 56, 63
1, 4812, Note_on_c, 0, 67, 0
1, 4812, Note_on_c, 0, 68, 77
1, 4830, Note_on_c, 1, 56, 0
1, 4832, Note_on_c, 1, 60, 63
1, 4862, Note_on_c, 1, 60, 0
1, 4864, Note_on_c, 1, 63, 63
1, 4890, Note_on_c, 0, 68, 0
1, 4894, Note_on_c, 1, 63, 0
1, 4896, Note_on_c, 0, 69, 77
1, 4896, Note_on_c, 1, 55, 63
1, 4908, Note_on_c, 0, 69, 0
1, 4908, Note_on_c, 0, 70, 77
1, 4926, Note_on_c, 1, 55, 0
1, 4928, Note_on_c, 1, 58, 63
1, 4958, Note_on_c, 1, 58, 0
1, 4960, Note_on_c, 1, 63, 63
1, 4986, Note_on_c, 0, 70, 0
1, 4990, Note_on_c, 1, 63, 0
1, 4992, Note_on_c, 0, 71, 77
1, 4992, Note_on_c, 1, 56, 63
1, 5004, Note_on_c, 0, 71, 0
1, 5004, Note_on_c, 0, 72, 77
1, 5022, Note_on_c, 1, 56, 0
1, 5024, Note_on_c, 1, 60, 63
1, 5054, Note_on_c, 1, 60, 0
1, 5056, Note_on_c, 1, 63, 63
1, 5086, Note_on_c, 1, 63, 0
1, 5088, Note_on_c, 1, 56, 63
1, 5118, Note_on_c, 1, 56, 0
1, 5120, Note_on_c, 1, 60, 63
1, 5150, Note_on_c, 1, 60, 0
1, 5152, Note_on_c, 1, 63, 63
1, 5182, Note_on_c, 1, 63, 0
1, 5184, Note_on_c, 0, 72, 0
1, 5184, Note_on_c, 0, 68, 77
1, 5184, Note_on_c, 1, 56, 63
1, 5214, Note_on_c, 1, 56, 0
1, 5216, Note_on_c, 1, 60, 63
1, 5246, Note_on_c, 1, 60, 0
1, 5248, Note_on_c, 1, 63, 63
1, 5278, Note_on_c, 1, 63, 0
1, 5280, Note_on_c, 1, 56, 63
1, 5310, Note_on_c, 1, 56, 0
1, 5312, Note_on_c, 1, 60, 63
1, 5342, Note_on_c, 1, 60, 0
1, 5344, Note_on_c, 1, 63, 63
1, 5361, Note_on_c, 0, 68, 0
1, 5374, Note_on_c, 1, 63, 0
1, 5376, Note_on_c, 0, 71, 77
1, 5376, Note_on_c, 1, 56, 63
1, 5388, Note_on_c, 0, 71, 0
1, 5388, Note_on_c, 0, 72, 77
1, 5406, Note_on_c, 1, 56, 0
1, 5408, Note_on_c, 1, 60, 63
1, 5438, Note_on_c, 1, 60, 0
1, 5440, Note_on_c, 1, 63, 63
1, 5466, Note_on_c, 0, 72, 0
1, 5470, Note_on_c, 1, 63, 0
1, 5472, Note_on_c, 0, 71, 77
1, 5472, Note_on_c, 1, 56, 63
1, 5484, Note_on_c, 0, 71, 0
1, 5484, Note_on_c, 0, 72, 77
1, 5502, Note_on_c, 1, 56, 0
1, 5504, Note_on_c, 1, 60, 63
1, 5534, Note_on_c, 1, 60, 0
1, 5536, Note_on_c, 1, 63, 63
1, 5562, Note_on_c, 0, 72, 0
1, 5566, Note_on_c, 1, 63, 0
1, 5568, Note_on_c, 0, 71, 77
1, 5568, Note_on_c, 1, 56, 63
1, 5580, Note_on_c, 0, 71, 0
1, 5580, Note_on_c, 0, 72, 77
1, 5598, Note_on_c, 1, 56, 0
1, 5600, Note_on_c, 1, 60, 63
1, 5630, Note_on_c, 1, 60, 0
1, 5632, Note_on_c, 1, 63, 63
1, 5658, Note_on_c, 0, 72, 0
1, 5662, Note_on_c, 1, 63, 0
1, 5664, Note_on_c, 0, 75, 77
1, 5664, Note_on_c, 1, 58, 63
1, 5687, Note_on_c, 0, 75, 0
1, 5688, Note_on_c, 0, 73, 77
1, 5694, Note_on_c, 1, 58, 0
1, 5696, Note_on_c, 1, 61, 63
1, 5711, Note_on_c, 0, 73, 0
1, 5712, Note_on_c, 0, 72, 77
1, 5726, Note_on_c, 1, 61, 0
1, 5728, Note_on_c, 1, 67, 63
1, 5735, Note_on_c, 0, 72, 0
1, 5736, Note_on_c, 0, 73, 77
1, 5758, Note_on_c, 1, 67, 0
1, 5759, Note_on_c, 0, 73, 0
1, 5760, Note_on_c, 0, 75, 77
1, 5760, Note_on_c, 1, 60, 63
1, 5790, Note_on_c, 1, 60, 0
1, 5792, Note_on_c, 1, 63, 63
1, 5822, Note_on_c, 1, 63, 0
1, 5824, Note_on_c, 1, 68, 63
1, 5854, Note_on_c, 1, 68, 0
1, 5856, Note_on_c, 1, 60, 63
1, 5886, Note_on_c, 1, 60, 0
1, 5888, Note_on_c, 1, 63, 63
1, 5918, Note_on_c, 1, 63, 0
1, 5920, Note_on_c, 1, 68, 63
1, 5950, Note_on_c, 1, 68, 0
1, 5952, Note_on_c, 0, 75, 0
1, 5952, Note_on_c, 0, 72, 77
1, 5952, Note_on_c, 1, 60, 63
1, 5982, Note_on_c, 1, 60, 0
1, 5984, Note_on_c, 1, 63, 63
1, 6014, Note_on_c, 1, 63, 0
1, 6016, Note_on_c, 1, 68, 63
1, 6046, Note_on_c, 1, 68, 0
1, 6048, Note_on_c, 1, 60, 63
1, 6078, Note_on_c, 1, 60, 0
1, 6080, Note_on_c, 1, 63, 63
1, 6110, Note_on_c, 1, 63, 0
1, 6112, Note_on_c, 1, 68, 63
1, 6129, Note_on_c, 0, 72, 0
1, 6142, Note_on_c, 1, 68, 0
1, 6144, Note_on_c, 0, 80, 77
1, 6144, Note_on_c, 1, 60, 63
1, 6174, Note_on_c, 1, 60, 0
1, 6176, Note_on_c, 1, 63, 63
1, 6206, Note_on_c, 1, 63, 0
1, 6208, Note_on_c, 1, 68, 63
1, 6233, Note_on_c, 0, 80, 0
1, 6238, Note_on_c, 1, 68, 0
1, 6240, Note_on_c, 0, 80, 77
1, 6240, Note_on_c, 1, 60, 63
1, 6270, Note_on_c, 0, 80, 0
1, 6270, Note_on_c, 1, 60, 0
1, 6272, Note_on_c, 0, 84, 77
1, 6272, Note_on_c, 1, 63, 63
1, 6302, Note_on_c, 0, 84, 0
1, 6302, Note_on_c, 1, 63, 0
1, 6304, Note_on_c, 0, 87, 77
1, 6304, Note_on_c, 1, 68, 63
1, 6334, Note_on_c, 0, 87, 0
1, 6334, Note_on_c, 1, 68, 0
1, 6336, Note_on_c, 0, 78, 93
1, 6336, Note_on_c, 1, 60, 63
1, 6366, Note_on_c, 1, 60, 0
1, 6368, Note_on_c, 1, 63, 63
1, 6398, Note_on_c, 1, 63, 0
1, 6400, Note_on_c, 1, 68, 63
1, 6430, Note_on_c, 1, 68, 0
1, 6432, Note_on_c, 1, 60, 63
1, 6462, Note_on_c, 1, 60, 0
1, 6464, Note_on_c, 1, 63, 63
1, 6494, Note_on_c, 1, 63, 0
1, 6496, Note_on_c, 1, 68, 63
1, 6526, Note_on_c, 1, 68, 0
1, 6528, Note_on_c, 0, 78, 0
1, 6528, Note_on_c, 0, 77, 77
1, 6528, Note_on_c, 1, 61, 63
1, 6558, Note_on_c, 1, 61, 0
1, 6560, Note_on_c, 1, 65, 63
1, 6590, Note_on_c, 1, 65, 0
1, 6592, Note_on_c, 1, 68, 63
1, 6617, Note_on_c, 0, 77, 0
1, 6622, Note_on_c, 1, 68, 0
1, 6624, Note_on_c, 0, 77, 77
1, 6624, Note_on_c, 1, 61, 63
1, 6654, Note_on_c, 0, 77, 0
1, 6654, Note_on_c, 1, 61, 0
1, 6656, Note_on_c, 0, 82, 77
1, 6656, Note_on_c, 1, 65, 63
1, 6686, Note_on_c, 0, 82, 0
1, 6686, Note_on_c, 1, 65, 0
1, 6688, Note_on_c, 0, 85, 77
1, 6688, Note_on_c, 1, 68, 63
1, 6718, Note_on_c, 0, 85, 0
1, 6718, Note_on_c, 1, 68, 0
1, 6720, Note_on_c, 0, 75, 93
1, 6720, Note_on_c, 1, 61, 63
1, 6750, Note_on_c, 1, 61, 0
1, 6752, Note_on_c, 1, 63, 63
1, 6782, Note_on_c, 1, 63, 0
1, 6784, Note_on_c, 1, 67, 63
1, 6814, Note_on_c, 1, 67, 0
1, 6816, Note_on_c, 1, 61, 63
1, 6846, Note_on_c, 1, 61, 0
1, 6848, Note_on_c, 1, 63, 63
1, 6864, Note_on_c, 0, 75, 0
1, 6864, Note_on_c, 0, 77, 77
1, 6878, Note_on_c, 1, 63, 0
1, 6880, Note_on_c, 1, 67, 63
1, 6887, Note_on_c, 0, 77, 0
1, 6888, Note_on_c, 0, 79, 77
1, 6910, Note_on_c, 1, 67, 0
1, 6911, Note_on_c, 0, 79, 0
1, 6912, Note_on_c, 0, 80, 77
1, 6912, Note_on_c, 1, 60, 63
1, 6942, Note_on_c, 1, 60, 0
1, 6944, Note_on_c, 1, 63, 63
1, 6974, Note_on_c, 1, 63, 0
1, 6976, Note_on_c, 1, 68, 63
1, 7001, Note_on_c, 0, 80, 0
1, 7006, Note_on_c, 1, 68, 0
1, 7008, Note_on_c, 0, 80, 77
1, 7008, Note_on_c, 1, 60, 63
1, 7038, Note_on_c, 0, 80, 0
1, 7038, Note_on_c, 1, 60, 0
1, 7040, Note_on_c, 0, 82, 77
1, 7040, Note_on_c, 1, 63, 63
1, 7070, Note_on_c, 0, 82, 0
1, 7070, Note_on_c, 1, 63, 0
1, 7072, Note_on_c, 0, 84, 77
1, 7072, Note_on_c, 1, 68, 63
1, 7102, Note_on_c, 0, 84, 0
1, 7102, Note_on_c, 1, 68, 0
1, 7104, Note_on_c, 0, 73, 93
1, 7104, Note_on_c, 1, 58, 63
1, 7134, Note_on_c, 1, 58, 0
1, 7136, Note_on_c, 1, 61, 63
1, 7166, Note_on_c, 1, 61, 0
1, 7168, Note_on_c, 1, 67, 63
1, 7198, Note_on_c, 1, 67, 0
1, 7200, Note_on_c, 1, 58, 63
1, 7230, Note_on_c, 1, 58, 0
1, 7232, Note_on_c, 1, 61, 63
1, 7262, Note_on_c, 1, 61, 0
1, 7264, Note_on_c, 1, 67, 63
1, 7294, Note_on_c, 1, 67, 0
1, 7296, Note_on_c, 0, 73, 0
1, 7296, Note_on_c, 0, 72, 77
1, 7296, Note_on_c, 1, 56, 63
1, 7326, Note_on_c, 0, 72, 0
1, 7328, Note_on_c, 0, 75, 77
1, 7358, Note_on_c, 0, 75, 0
1, 7360, Note_on_c, 0, 73, 77
1, 7385, Note_on_c, 1, 56, 0
1, 7390, Note_on_c, 0, 73, 0
1, 7392, Note_on_c, 0, 72, 77
1, 7422, Note_on_c, 0, 72, 0
1, 7424, Note_on_c, 0, 84, 77
1, 7454, Note_on_c, 0, 84, 0
1, 7456, Note_on_c, 0, 82, 77
1, 7486, Note_on_c, 0, 82, 0
1, 7488, Note_on_c, 0, 80, 77
1, 7518, Note_on_c, 0, 80, 0
1, 7520, Note_on_c, 0, 79, 77
1, 7550, Note_on_c, 0, 79, 0
1, 7552, Note_on_c, 0, 77, 77
1, 7582, Note_on_c, 0, 77, 0
1, 7584, Note_on_c, 0, 75, 77
1, 7614, Note_on_c, 0, 75, 0
1, 7616, Note_on_c, 0, 73, 77
1, 7646, Note_on_c, 0, 73, 0
1, 7648, Note_on_c, 0, 72, 77
1, 7678, Note_on_c, 0, 72, 0
1, 7680, Note_on_c, 0, 75, 77
1, 7752, Note_on_c, 0, 75, 0
1, 7752, Note_on_c, 0, 72, 77
1, 7775, Note_on_c, 0, 72, 0
1, 7776, Note_on_c, 0, 70, 77
1, 7776, Note_on_c, 1, 67, 63
1, 7776, Note_on_c, 1, 63, 63
1, 7815, Note_on_c, 0, 70, 0
1, 7865, Note_on_c, 1, 67, 0
1, 7865, Note_on_c, 1, 63, 0
1, 7968, Note_on_c, 0, 70, 77
1, 8035, Note_on_c, 0, 70, 0
1, 8040, Note_on_c, 0, 67, 77
1, 8063, Note_on_c, 0, 67, 0
1, 8064, Note_on_c, 0, 75, 70
1, 8064, Note_on_c, 1, 51, 77
1, 8131, Note_on_c, 0, 75, 0
1, 8136, Note_on_c, 0, 75, 70
1, 8153, Note_on_c, 1, 51, 0
1, 8159, Note_on_c, 0, 75, 0
1, 8160, Note_on_c, 0, 77, 70
1, 8160, Note_on_c, 1, 55, 77
1, 8172, Note_on_c, 0, 77, 0
1, 8172, Note_on_c, 0, 75, 71
1, 8184, Note_on_c, 0, 75, 0
1, 8184, Note_on_c, 0, 77, 71
1, 8196, Note_on_c, 0, 77, 0
1, 8196, Note_on_c, 0, 75, 71
1, 8208, Note_on_c, 0, 75, 0
1, 8208, Note_on_c, 0, 74, 71
1, 8232, Note_on_c, 0, 74, 0
1, 8232, Note_on_c, 0, 75, 71
1, 8249, Note_on_c, 1, 55, 0
1, 8256, Note_on_c, 0, 75, 0
1, 8256, Note_on_c, 0, 77, 71
1, 8256, Note_on_c, 1, 50, 77
1, 8276, Note_on_c, 0, 77, 0
1, 8345, Note_on_c, 1, 50, 0
1, 8352, Note_on_c, 0, 74, 72
1, 8419, Note_on_c, 0, 74, 0
1, 8424, Note_on_c, 0, 70, 73
1, 8447, Note_on_c, 0, 70, 0
1, 8448, Note_on_c, 0, 77, 73
1, 8448, Note_on_c, 1, 50, 77
1, 8515, Note_on_c, 0, 77, 0
1, 8520, Note_on_c, 0, 77, 74
1, 8537, Note_on_c, 1, 50, 0
1, 8543, Note_on_c, 0, 77, 0
1, 8544, Note_on_c, 0, 79, 74
1, 8544, Note_on_c, 1, 58, 77
1, 8556, Note_on_c, 0, 79, 0
1, 8556, Note_on_c, 0, 77, 74
1, 8568, Note_on_c, 0, 77, 0
1, 8568, Note_on_c, 0, 79, 74
1, 8580, Note_on_c, 0, 79, 0
1, 8580, Note_on_c, 0, 77, 75
1, 8592, Note_on_c, 0, 77, 0
1, 8592, Note_on_c, 0, 75, 75
1, 8616, Note_on_c, 0, 75, 0
1, 8616, Note_on_c, 0, 77, 75
1, 8633, Note_on_c, 1, 58, 0
1, 8640, Note_on_c, 0, 77, 0
1, 8640, Note_on_c, 0, 79, 75
1, 8640, Note_on_c, 1, 51, 77
1, 8669, Note_on_c, 0, 79, 0
1, 8712, Note_on_c, 0, 79, 76
1, 8729, Note_on_c, 1, 51, 0
1, 8735, Note_on_c, 0, 79, 0
1, 8736, Note_on_c, 0, 80, 76
1, 8736, Note_on_c, 1, 58, 77
1, 8748, Note_on_c, 0, 80, 0
1, 8748, Note_on_c, 0, 79, 76
1, 8760, Note_on_c, 0, 79, 0
1, 8760, Note_on_c, 0, 80, 76
1, 8772, Note_on_c, 0, 80, 0
1, 8772, Note_on_c, 0, 79, 76
1, 8784, Note_on_c, 0, 79, 0
1, 8784, Note_on_c, 0, 77, 77
1, 8808, Note_on_c, 0, 77, 0
1, 8808, Note_on_c, 0, 79, 77
1, 8825, Note_on_c, 1, 58, 0
1, 8832, Note_on_c, 0, 79, 0
1, 8832, Note_on_c, 0, 80, 77
1, 8832, Note_on_c, 1, 53, 77
1, 8861, Note_on_c, 0, 80, 0
1, 8904, Note_on_c, 0, 80, 78
1, 8921, Note_on_c, 1, 53, 0
1, 8927, Note_on_c, 0, 80, 0
1, 8928, Note_on_c, 0, 82, 78
1, 8928, Note_on_c, 1, 62, 77
1, 8940, Note_on_c, 0, 82, 0
1, 8940, Note_on_c, 0, 80, 78
1, 8952, Note_on_c, 0, 80, 0
1, 8952, Note_on_c, 0, 82, 78
1, 8964, Note_on_c, 0, 82, 0
1, 8964, Note_on_c, 0, 80, 78
1, 8976, Note_on_c, 0, 80, 0
1, 8976, Note_on_c, 0, 79, 78
1, 9000, Note_on_c, 0, 79, 0
1, 9000, Note_on_c, 0, 80, 79
1, 9017, Note_on_c, 1, 62, 0
1, 9024, Note_on_c, 0, 80, 0
1, 9024, Note_on_c, 0, 82, 79
1, 9024, Note_on_c, 1, 55, 77
1, 9053, Note_on_c, 0, 82, 0
1, 9096, Note_on_c, 0, 82, 80
1, 9113, Note_on_c, 1, 55, 0
1, 9119, Note_on_c, 0, 82, 0
1, 9120, Note_on_c, 0, 84, 80
1, 9120, Note_on_c, 1, 63, 77
1, 9132, Note_on_c, 0, 84, 0
1, 9132, Note_on_c, 0, 82, 80
1, 9144, Note_on_c, 0, 82, 0
1, 9144, Note_on_c, 0, 84, 80
1, 9156, Note_on_c, 0, 84, 0
1, 9156, Note_on_c, 0, 82, 80
1, 9168, Note_on_c, 0, 82, 0
1, 9168, Note_on_c, 0, 80, 80
1, 9192, Note_on_c, 0, 80, 0
1, 9192, Note_on_c, 0, 82, 80
1, 9209, Note_on_c, 1, 63, 0
1, 9216, Note_on_c, 0, 82, 0
1, 9216, Note_on_c, 0, 84, 81
1, 9216, Note_on_c, 1, 56, 77
1, 9246, Note_on_c, 1, 56, 0
1, 9248, Note_on_c, 1, 60, 77
1, 9278, Note_on_c, 1, 60, 0
1, 9280, Note_on_c, 1, 63, 77
1, 9310, Note_on_c, 1, 63, 0
1, 9312, Note_on_c, 1, 56, 77
1, 9342, Note_on_c, 1, 56, 0
1, 9344, Note_on_c, 1, 60, 77
1, 9374, Note_on_c, 1, 60, 0
1, 9376, Note_on_c, 1, 63, 77
1, 9406, Note_on_c, 1, 63, 0
1, 9408, Note_on_c, 1, 56, 77
1, 9438, Note_on_c, 1, 56, 0
1, 9440, Note_on_c, 1, 60, 77
1, 9470, Note_on_c, 1, 60, 0
1, 9472, Note_on_c, 1, 63, 77
1, 9481, Note_on_c, 0, 84, 0
1, 9502, Note_on_c, 1, 63, 0
1, 9504, Note_on_c, 0, 76, 84
1, 9504, Note_on_c, 1, 55, 77
1, 9534, Note_on_c, 1, 55, 0
1, 9536, Note_on_c, 1, 58, 77
1, 9566, Note_on_c, 1, 58, 0
1, 9568, Note_on_c, 1, 61, 77
1, 9598, Note_on_c, 1, 61, 0
1, 9600, Note_on_c, 0, 76, 0
1, 9600, Note_on_c, 0, 77, 84
1, 9600, Note_on_c, 1, 56, 77
1, 9630, Note_on_c, 0, 77, 0
1, 9632, Note_on_c, 0, 80, 84
1, 9662, Note_on_c, 0, 80, 0
1, 9664, Note_on_c, 0, 79, 84
1, 9689, Note_on_c, 1, 56, 0
1, 9694, Note_on_c, 0, 79, 0
1, 9696, Note_on_c, 0, 77, 84
1, 9726, Note_on_c, 0, 77, 0
1, 9728, Note_on_c, 0, 84, 84
1, 9758, Note_on_c, 0, 84, 0
1, 9760, Note_on_c, 0, 82, 84
1, 9790, Note_on_c, 0, 82, 0
1, 9792, Note_on_c, 0, 80, 84
1, 9822, Note_on_c, 0, 80, 0
1, 9824, Note_on_c, 0, 79, 84
1, 9854, Note_on_c, 0, 79, 0
1, 9856, Note_on_c, 0, 77, 84
1, 9886, Note_on_c, 0, 77, 0
1, 9888, Note_on_c, 0, 75, 84
1, 9918, Note_on_c, 0, 75, 0
1, 9920, Note_on_c, 0, 74, 84
1, 9950, Note_on_c, 0, 74, 0
1, 9952, Note_on_c, 0, 72, 84
1, 9982, Note_on_c, 0, 72, 0
1, 9984, Note_on_c, 0, 82, 84
1, 9984, Note_on_c, 1, 55, 77
1, 10014, Note_on_c, 1, 55, 0
1, 10016, Note_on_c, 1, 58, 77
1, 10046, Note_on_c, 1, 58, 0
1, 10048, Note_on_c, 1, 63, 77
1, 10078, Note_on_c, 1, 63, 0
1, 10080, Note_on_c, 1, 55, 77
1, 10110, Note_on_c, 1, 55, 0
1, 10112, Note_on_c, 1, 58, 77
1, 10142, Note_on_c, 1, 58, 0
1, 10144, Note_on_c, 1, 63, 77
1, 10174, Note_on_c, 1, 63, 0
1, 10176, Note_on_c, 1, 55, 77
1, 10206, Note_on_c, 1, 55, 0
1, 10208, Note_on_c, 1, 58, 77
1, 10238, Note_on_c, 1, 58, 0
1, 10240, Note_on_c, 1, 63, 77
1, 10249, Note_on_c, 0, 82, 0
1, 10270, Note_on_c, 1, 63, 0
1, 10272, Note_on_c, 0, 74, 84
1, 10272, Note_on_c, 1, 53, 77
1, 10302, Note_on_c, 1, 53, 0
1, 10304, Note_on_c, 1, 56, 77
1, 10334, Note_on_c, 1, 56, 0
1, 10336, Note_on_c, 1, 59, 77
1, 10366, Note_on_c, 1, 59, 0
1, 10368, Note_on_c, 0, 74, 0
1, 10368, Note_on_c, 0, 75, 84
1, 10368, Note_on_c, 1, 55, 77
1, 10398, Note_on_c, 0, 75, 0
1, 10400, Note_on_c, 0, 79, 84
1, 10430, Note_on_c, 0, 79, 0
1, 10432, Note_on_c, 0, 77, 84
1, 10457, Note_on_c, 1, 55, 0
1, 10462, Note_on_c, 0, 77, 0
1, 10464, Note_on_c, 0, 75, 84
1, 10494, Note_on_c, 0, 75, 0
1, 10496, Note_on_c, 0, 82, 83
1, 10526, Note_on_c, 0, 82, 0
1, 10528, Note_on_c, 0, 80, 83
1, 10558, Note_on_c, 0, 80, 0
1, 10560, Note_on_c, 0, 79, 82
1, 10590, Note_on_c, 0, 79, 0
1, 10592, Note_on_c, 0, 77, 82
1, 10622, Note_on_c, 0, 77, 0
1, 10624, Note_on_c, 0, 75, 82
1, 10654, Note_on_c, 0, 75, 0
1, 10656, Note_on_c, 0, 74, 81
1, 10686, Note_on_c, 0, 74, 0
1, 10688, Note_on_c, 0, 72, 81
1, 10718, Note_on_c, 0, 72, 0
1, 10720, Note_on_c, 0, 70, 81
1, 10750, Note_on_c, 0, 70, 0
1, 10752, Note_on_c, 0, 80, 80
1, 10752, Note_on_c, 1, 58, 63
1, 10782, Note_on_c, 1, 58, 0
1, 10784, Note_on_c, 1, 62, 63
1, 10814, Note_on_c, 1, 62, 0
1, 10816, Note_on_c, 1, 65, 63
1, 10846, Note_on_c, 1, 65, 0
1, 10848, Note_on_c, 1, 58, 63
1, 10878, Note_on_c, 1, 58, 0
1, 10880, Note_on_c, 1, 62, 63
1, 10910, Note_on_c, 1, 62, 0
1, 10912, Note_on_c, 1, 65, 63
1, 10942, Note_on_c, 1, 65, 0
1, 10944, Note_on_c, 1, 58, 63
1, 10974, Note_on_c, 1, 58, 0
1, 10976, Note_on_c, 1, 62, 63
1, 11006, Note_on_c, 1, 62, 0
1, 11008, Note_on_c, 1, 65, 63
1, 11017, Note_on_c, 0, 80, 0
1, 11038, Note_on_c, 1, 65, 0
1, 11040, Note_on_c, 0, 79, 77
1, 11040, Note_on_c, 1, 58, 63
1, 11070, Note_on_c, 0, 79, 0
1, 11070, Note_on_c, 1, 58, 0
1, 11072, Note_on_c, 0, 77, 77
1, 11072, Note_on_c, 1, 63, 63
1, 11102, Note_on_c, 0, 77, 0
1, 11102, Note_on_c, 1, 63, 0
1, 11104, Note_on_c, 0, 75, 77
1, 11104, Note_on_c, 1, 67, 63
1, 11134, Note_on_c, 0, 75, 0
1, 11134, Note_on_c, 1, 67, 0
1, 11136, Note_on_c, 0, 75, 77
1, 11136, Note_on_c, 1, 58, 63
1, 11166, Note_on_c, 1, 58, 0
1, 11168, Note_on_c, 1, 65, 63
1, 11184, Note_on_c, 0, 75, 0
1, 11184, Note_on_c, 0, 74, 77
1, 11198, Note_on_c, 1, 65, 0
1, 11200, Note_on_c, 1, 68, 63
1, 11229, Note_on_c, 0, 74, 0
1, 11230, Note_on_c, 1, 68, 0
1, 11232, Note_on_c, 0, 74, 93
1, 11232, Note_on_c, 1, 58, 63
1, 11262, Note_on_c, 1, 58, 0
1, 11264, Note_on_c, 1, 65, 63
1, 11294, Note_on_c, 1, 65, 0
1, 11296, Note_on_c, 1, 68, 63
1, 11326, Note_on_c, 1, 68, 0
1, 11328, Note_on_c, 1, 58, 63
1, 11358, Note_on_c, 1, 58, 0
1, 11360, Note_on_c, 1, 65, 63
1, 11390, Note_on_c, 1, 65, 0
1, 11392, Note_on_c, 1, 68, 63
1, 11422, Note_on_c, 1, 68, 0
1, 11424, Note_on_c, 0, 74, 0
1, 11424, Note_on_c, 0, 75, 77
1, 11424, Note_on_c, 1, 58, 63
1, 11454, Note_on_c, 1, 58, 0
1, 11456, Note_on_c, 1, 63, 63
1, 11486, Note_on_c, 1, 63, 0
1, 11488, Note_on_c, 1, 67, 63
1, 11513, Note_on_c, 0, 75, 0
1, 11518, Note_on_c, 1, 67, 0
1, 11520, Note_on_c, 0, 77, 77
1, 11520, Note_on_c, 1, 58, 63
1, 11550, Note_on_c, 0, 77, 0
1, 11550, Note_on_c, 1, 58, 0
1, 11552, Note_on_c, 0, 79, 77
1, 11552, Note_on_c, 1, 62, 63
1, 11582, Note_on_c, 0, 79, 0
1, 11582, Note_on_c, 1, 62, 0
1, 11584, Note_on_c, 0, 80, 77
1, 11584, Note_on_c, 1, 65, 63
1, 11614, Note_on_c, 0, 80, 0
1, 11614, Note_on_c, 1, 65, 0
1, 11616, Note_on_c, 0, 80, 93
1, 11616, Note_on_c, 1, 58, 63
1, 11646, Note_on_c, 1, 58, 0
1, 11648, Note_on_c, 1, 62, 63
1, 11678, Note_on_c, 1, 62, 0
1, 11680, Note_on_c, 1, 65, 63
1, 11710, Note_on_c, 1, 65, 0
1, 11712, Note_on_c, 1, 58, 63
1, 11742, Note_on_c, 1, 58, 0
1, 11744, Note_on_c, 1, 62, 63
1, 11774, Note_on_c, 1, 62, 0
1, 11776, Note_on_c, 1, 65, 63
1, 11806, Note_on_c, 1, 65, 0
1, 11808, Note_on_c, 0, 80, 0
1, 11808, Note_on_c, 0, 79, 77
1, 11808, Note_on_c, 1, 58, 63
1, 11838, Note_on_c, 0, 79, 0
1, 11838, Note_on_c, 1, 58, 0
1, 11840, Note_on_c, 0, 77, 77
1, 11840, Note_on_c, 1, 63, 63
1, 11870, Note_on_c, 0, 77, 0
1, 11870, Note_on_c, 1, 63, 0
1, 11872, Note_on_c, 0, 75, 77
1, 11872, Note_on_c, 1, 67, 63
1, 11902, Note_on_c, 0, 75, 0
1, 11902, Note_on_c, 1, 67, 0
1, 11904, Note_on_c, 0, 75, 77
1, 11904, Note_on_c, 1, 58, 63
1, 11934, Note_on_c, 1, 58, 0
1, 11936, Note_on_c, 1, 65, 63
1, 11952, Note_on_c, 0, 75, 0
1, 11952, Note_on_c, 0, 74, 77
1, 11966, Note_on_c, 1, 65, 0
1, 11968, Note_on_c, 1, 68, 63
1, 11997, Note_on_c, 0, 74, 0
1, 11998, Note_on_c, 1, 68, 0
1, 12000, Note_on_c, 0, 74, 93
1, 12000, Note_on_c, 1, 58, 63
1, 12030, Note_on_c, 1, 58, 0
1, 12032, Note_on_c, 1, 65, 63
1, 12062, Note_on_c, 1, 65, 0
1, 12064, Note_on_c, 1, 68, 63
1, 12094, Note_on_c, 1, 68, 0
1, 12096, Note_on_c, 1, 58, 63
1, 12126, Note_on_c, 1, 58, 0
1, 12128, Note_on_c, 1, 65, 63
1, 12158, Note_on_c, 1, 65, 0
1, 12160, Note_on_c, 1, 68, 63
1, 12190, Note_on_c, 1, 68, 0
1, 12192, Note_on_c, 0, 74, 0
1, 12192, Note_on_c, 0, 75, 77
1, 12192, Note_on_c, 1, 58, 63
1, 12222, Note_on_c, 1, 58, 0
1, 12224, Note_on_c, 1, 63, 63
1, 12254, Note_on_c, 1, 63, 0
1, 12256, Note_on_c, 1, 67, 63
1, 12281, Note_on_c, 0, 75, 0
1, 12286, Note_on_c, 1, 67, 0
1, 12288, Note_on_c, 0, 77, 77
1, 12288, Note_on_c, 1, 58, 63
1, 12318, Note_on_c, 0, 77, 0
1, 12318, Note_on_c, 1, 58, 0
1, 12320, Note_on_c, 0, 79, 77
1, 12320, Note_on_c, 1, 62, 64
1, 12350, Note_on_c, 0, 79, 0
1, 12350, Note_on_c, 1, 62, 0
1, 12352, Note_on_c, 0, 80, 78
1, 12352, Note_on_c, 1, 65, 65
1, 12382, Note_on_c, 0, 80, 0
1, 12382, Note_on_c, 1, 65, 0
1, 12384, Note_on_c, 0, 80, 94
1, 12384, Note_on_c, 1, 58, 66
1, 12414, Note_on_c, 1, 58, 0
1, 12416, Note_on_c, 1, 62, 68
1, 12446, Note_on_c, 1, 62, 0
1, 12448, Note_on_c, 1, 65, 69
1, 12478, Note_on_c, 1, 65, 0
1, 12480, Note_on_c, 1, 59, 70
1, 12510, Note_on_c, 1, 59, 0
1, 12512, Note_on_c, 1, 62, 72
1, 12542, Note_on_c, 1, 62, 0
1, 12544, Note_on_c, 1, 65, 73
1, 12574, Note_on_c, 1, 65, 0
1, 12576, Note_on_c, 0, 80, 0
1, 12576, Note_on_c, 0, 79, 81
1, 12576, Note_on_c, 1, 60, 74
1, 12606, Note_on_c, 1, 60, 0
1, 12608, Note_on_c, 1, 62, 76
1, 12638, Note_on_c, 1, 62, 0
1, 12640, Note_on_c, 1, 63, 77
1, 12665, Note_on_c, 0, 79, 0
1, 12670, Note_on_c, 1, 63, 0
1, 12672, Note_on_c, 0, 77, 83
1, 12672, Note_on_c, 1, 56, 78
1, 12702, Note_on_c, 0, 77, 0
1, 12704, Note_on_c, 0, 84, 84
1, 12734, Note_on_c, 0, 84, 0
1, 12736, Note_on_c, 0, 82, 84
1, 12761, Note_on_c, 1, 56, 0
1, 12766, Note_on_c, 0, 82, 0
1, 12768, Note_on_c, 0, 80, 84
1, 12798, Note_on_c, 0, 80, 0
1, 12800, Note_on_c, 0, 79, 84
1, 12830, Note_on_c, 0, 79, 0
1, 12832, Note_on_c, 0, 77, 84
1, 12862, Note_on_c, 0, 77, 0
1, 12864, Note_on_c, 0, 75, 84
1, 12864, Note_on_c, 1, 67, 84
1, 12864, Note_on_c, 1, 58, 77
1, 12953, Note_on_c, 1, 67, 0
1, 12960, Note_on_c, 0, 75, 0
1, 12960, Note_on_c, 0, 74, 79
1, 12960, Note_on_c, 1, 68, 79
1, 13041, Note_on_c, 1, 58, 0
1, 13049, Note_on_c, 0, 74, 0
1, 13049, Note_on_c, 1, 68, 0
1, 13056, Note_on_c, 0, 74, 75
1, 13056, Note_on_c, 1, 68, 75
1, 13056, Note_on_c, 1, 60, 71
1, 13189, Note_on_c, 0, 74, 0
1, 13200, Note_on_c, 0, 75, 69
1, 13223, Note_on_c, 0, 75, 0
1, 13224, Note_on_c, 0, 77, 68
1, 13247, Note_on_c, 0, 77, 0
1, 13248, Note_on_c, 0, 75, 67
1, 13248, Note_on_c, 1, 68, 0
1, 13248, Note_on_c, 1, 67, 67
1, 13337, Note_on_c, 0, 75, 0
1, 13337, Note_on_c, 1, 67, 0
1, 13337, Note_on_c, 1, 60, 0
1, 13440, Note_on_c, 0, 56, 100
1, 13536, Note_on_c, 1, 51, 77
1, 13536, Note_on_c, 1, 48, 77
1, 13625, Note_on_c, 1, 51, 0
1, 13625, Note_on_c, 1, 48, 0
1, 13632, Note_on_c, 1, 51, 77
1, 13632, Note_on_c, 1, 48, 77
1, 13662, Note_on_c, 0, 56, 0
1, 13664, Note_on_c, 0, 60, 84
1, 13694, Note_on_c, 0, 60, 0
1, 13696, Note_on_c, 0, 58, 84
1, 13721, Note_on_c, 1, 51, 0
1, 13721, Note_on_c, 1, 48, 0
1, 13726, Note_on_c, 0, 58, 0
1, 13728, Note_on_c, 0, 56, 84
1, 13728, Note_on_c, 1, 51, 77
1, 13728, Note_on_c, 1, 48, 77
1, 13741, Note_on_c, 0, 56, 0
1, 13760, Note_on_c, 0, 56, 84
1, 13773, Note_on_c, 0, 56, 0
1, 13792, Note_on_c, 0, 56, 84
1, 13805, Note_on_c, 0, 56, 0
1, 13817, Note_on_c, 1, 51, 0
1, 13817, Note_on_c, 1, 48, 0
1, 13824, Note_on_c, 0, 56, 100
1, 13920, Note_on_c, 1, 53, 77
1, 13920, Note_on_c, 1, 50, 77
1, 13920, Note_on_c, 1, 46, 77
1, 14009, Note_on_c, 1, 53, 0
1, 14009, Note_on_c, 1, 50, 0
1, 14009, Note_on_c, 1, 46, 0
1, 14016, Note_on_c, 1, 53, 77
1, 14016, Note_on_c, 1, 50, 77
1, 14016, Note_on_c, 1, 46, 77
1, 14046, Note_on_c, 0, 56, 0
1, 14048, Note_on_c, 0, 65, 84
1, 14078, Note_on_c, 0, 65, 0
1, 14080, Note_on_c, 0, 62, 84
1, 14105, Note_on_c, 1, 53, 0
1, 14105, Note_on_c, 1, 50, 0
1, 14105, Note_on_c, 1, 46, 0
1, 14110, Note_on_c, 0, 62, 0
1, 14112, Note_on_c, 0, 56, 84
1, 14112, Note_on_c, 1, 53, 77
1, 14112, Note_on_c, 1, 50, 77
1, 14112, Note_on_c, 1, 46, 77
1, 14125, Note_on_c, 0, 56, 0
1, 14144, Note_on_c, 0, 56, 84
1, 14157, Note_on_c, 0, 56, 0
1, 14176, Note_on_c, 0, 56, 84
1, 14189, Note_on_c, 0, 56, 0
1, 14201, Note_on_c, 1, 53, 0
1, 14201, Note_on_c, 1, 50, 0
1, 14201, Note_on_c, 1, 46, 0
1, 14208, Note_on_c, 0, 55, 84
1, 14208, Note_on_c, 1, 51, 84
1, 14238, Note_on_c, 0, 55, 0
1, 14240, Note_on_c, 0, 58, 84
1, 14270, Note_on_c, 0, 58, 0
1, 14272, Note_on_c, 0, 63, 84
1, 14285, Note_on_c, 0, 63, 0
1, 14297, Note_on_c, 1, 51, 0
1, 14304, Note_on_c, 0, 63, 84
1, 14317, Note_on_c, 0, 63, 0
1, 14336, Note_on_c, 0, 63, 84
1, 14349, Note_on_c, 0, 63, 0
1, 14368, Note_on_c, 0, 63, 84
1, 14381, Note_on_c, 0, 63, 0
1, 14400, Note_on_c, 0, 62, 84
1, 14400, Note_on_c, 1, 53, 84
1, 14400, Note_on_c, 1, 46, 84
1, 14430, Note_on_c, 0, 62, 0
1, 14432, Note_on_c, 0, 65, 84
1, 14462, Note_on_c, 0, 65, 0
1, 14464, Note_on_c, 0, 68, 84
1, 14489, Note_on_c, 1, 53, 0
1, 14489, Note_on_c, 1, 46, 0
1, 14494, Note_on_c, 0, 68, 0
1, 14496, Note_on_c, 0, 68, 84
1, 14509, Note_on_c, 0, 68, 0
1, 14528, Note_on_c, 0, 68, 84
1, 14541, Note_on_c, 0, 68, 0
1, 14560, Note_on_c, 0, 68, 84
1, 14573, Note_on_c, 0, 68, 0
1, 14592, Note_on_c, 0, 67, 84
1, 14592, Note_on_c, 1, 55, 84
1, 14592, Note_on_c, 1, 51, 84
1, 14622, Note_on_c, 0, 67, 0
1, 14624, Note_on_c, 0, 70, 84
1, 14654, Note_on_c, 0, 70, 0
1, 14656, Note_on_c, 0, 75, 84
1, 14669, Note_on_c, 0, 75, 0
1, 14681, Note_on_c, 1, 55, 0
1, 14681, Note_on_c, 1, 51, 0
1, 14688, Note_on_c, 0, 75, 84
1, 14701, Note_on_c, 0, 75, 0
1, 14720, Note_on_c, 0, 75, 84
1, 14733, Note_on_c, 0, 75, 0
1, 14752, Note_on_c, 0, 75, 84
1, 14765, Note_on_c, 0, 75, 0
1, 14784, Note_on_c, 0, 74, 84
1, 14784, Note_on_c, 1, 53, 84
1, 14784, Note_on_c, 1, 46, 84
1, 14814, Note_on_c, 0, 74, 0
1, 14816, Note_on_c, 0, 77, 84
1, 14846, Note_on_c, 0, 77, 0
1, 14848, Note_on_c, 0, 80, 84
1, 14873, Note_on_c, 1, 53, 0
1, 14873, Note_on_c, 1, 46, 0
1, 14878, Note_on_c, 0, 80, 0
1, 14880, Note_on_c, 0, 80, 84
1, 14893, Note_on_c, 0, 80, 0
1, 14912, Note_on_c, 0, 80, 84
1, 14925, Note_on_c, 0, 80, 0
1, 14944, Note_on_c, 0, 80, 84
1, 14957, Note_on_c, 0, 80, 0
1, 14976, Note_on_c, 0, 79, 84
1, 14976, Note_on_c, 1, 55, 84
1, 14976, Note_on_c, 1, 51, 84
1, 15006, Note_on_c, 0, 79, 0
1, 15008, Note_on_c, 0, 80, 84
1, 15038, Note_on_c, 0, 80, 0
1, 15040, Note_on_c, 0, 82, 84
1, 15065, Note_on_c, 1, 55, 0
1, 15065, Note_on_c, 1, 51, 0
1, 15070, Note_on_c, 0, 82, 0
1, 15072, Note_on_c, 0, 80, 84
1, 15102, Note_on_c, 0, 80, 0
1, 15104, Note_on_c, 0, 79, 84
1, 15134, Note_on_c, 0, 79, 0
1, 15136, Note_on_c, 0, 77, 84
1, 15166, Note_on_c, 0, 77, 0
1, 15168, Note_on_c, 0, 75, 84
1, 15198, Note_on_c, 0, 75, 0
1, 15200, Note_on_c, 0, 74, 84
1, 15230, Note_on_c, 0, 74, 0
1, 15232, Note_on_c, 0, 72, 84
1, 15262, Note_on_c, 0, 72, 0
1, 15264, Note_on_c, 0, 70, 84
1, 15294, Note_on_c, 0, 70, 0
1, 15296, Note_on_c, 0, 68, 84
1, 15326, Note_on_c, 0, 68, 0
1, 15328, Note_on_c, 0, 67, 84
1, 15358, Note_on_c, 0, 67, 0
1, 15360, Note_on_c, 0, 65, 84
1, 15456, Note_on_c, 1, 56, 84
1, 15456, Note_on_c, 1, 44, 84
1, 15493, Note_on_c, 0, 65, 0
1, 15504, Note_on_c, 0, 72, 84
1, 15545, Note_on_c, 1, 56, 0
1, 15545, Note_on_c, 1, 44, 0
1, 15549, Note_on_c, 0, 72, 0
1, 15552, Note_on_c, 0, 63, 84
1, 15552, Note_on_c, 1, 55, 84
1, 15552, Note_on_c, 1, 46, 84
1, 15641, Note_on_c, 0, 63, 0
1, 15641, Note_on_c, 1, 55, 0
1, 15641, Note_on_c, 1, 46, 0
1, 15648, Note_on_c, 0, 62, 84
1, 15648, Note_on_c, 1, 53, 84
1, 15648, Note_on_c, 1, 46, 84
1, 15737, Note_on_c, 0, 62, 0
1, 15737, Note_on_c, 1, 53, 0
1, 15737, Note_on_c, 1, 46, 0
1, 15744, Note_on_c, 0, 75, 100
1, 15744, Note_on_c, 1, 63, 84
1, 15774, Note_on_c, 1, 63, 0
1, 15776, Note_on_c, 1, 67, 84
1, 15806, Note_on_c, 1, 67, 0
1, 15808, Note_on_c, 1, 65, 84
1, 15838, Note_on_c, 1, 65, 0
1, 15840, Note_on_c, 1, 63, 84
1, 15870, Note_on_c, 1, 63, 0
1, 15872, Note_on_c, 1, 62, 84
1, 15902, Note_on_c, 1, 62, 0
1, 15904, Note_on_c, 1, 60, 84
1, 15934, Note_on_c, 1, 60, 0
1, 15936, Note_on_c, 1, 58, 84
1, 15966, Note_on_c, 1, 58, 0
1, 15968, Note_on_c, 1, 56, 84
1, 15998, Note_on_c, 1, 56, 0
1, 16000, Note_on_c, 1, 55, 84
1, 16030, Note_on_c, 1, 55, 0
1, 16032, Note_on_c, 0, 75, 0
1, 16032, Note_on_c, 0, 77, 84
1, 16032, Note_on_c, 0, 74, 84
1, 16032, Note_on_c, 1, 53, 84
1, 16062, Note_on_c, 1, 53, 0
1, 16064, Note_on_c, 1, 51, 84
1, 16094, Note_on_c, 1, 51, 0
1, 16096, Note_on_c, 1, 50, 84
1, 16121, Note_on_c, 0, 77, 0
1, 16121, Note_on_c, 0, 74, 0
1, 16126, Note_on_c, 1, 50, 0
1, 16128, Note_on_c, 0, 79, 100
1, 16128, Note_on_c, 0, 75, 100
1, 16128, Note_on_c, 1, 48, 84
1, 16158, Note_on_c, 1, 48, 0
1, 16160, Note_on_c, 1, 63, 84
1, 16190, Note_on_c, 1, 63, 0
1, 16192, Note_on_c, 1, 62, 84
1, 16222, Note_on_c, 1, 62, 0
1, 16224, Note_on_c, 1, 60, 84
1, 16254, Note_on_c, 1, 60, 0
1, 16256, Note_on_c, 1, 58, 84
1, 16286, Note_on_c, 1, 58, 0
1, 16288, Note_on_c, 1, 56, 84
1, 16318, Note_on_c, 1, 56, 0
1, 16320, Note_on_c, 1, 55, 84
1, 16350, Note_on_c, 1, 55, 0
1, 16352, Note_on_c, 1, 53, 84
1, 16382, Note_on_c, 1, 53, 0
1, 16384, Note_on_c, 1, 51, 84
1, 16414, Note_on_c, 1, 51, 0
1, 16416, Note_on_c, 0, 79, 0
1, 16416, Note_on_c, 0, 75, 0
1, 16416, Note_on_c, 0, 80, 84
1, 16416, Note_on_c, 0, 77, 84
1, 16416, Note_on_c, 1, 50, 84
1, 16446, Note_on_c, 1, 50, 0
1, 16448, Note_on_c, 1, 48, 84
1, 16478, Note_on_c, 1, 48, 0
1, 16480, Note_on_c, 1, 46, 84
1, 16505, Note_on_c, 0, 80, 0
1, 16505, Note_on_c, 0, 77, 0
1, 16510, Note_on_c, 1, 46, 0
1, 16512, Note_on_c, 0, 82, 84
1, 16512, Note_on_c, 0, 79, 84
1, 16512, Note_on_c, 1, 44, 84
1, 16542, Note_on_c, 0, 82, 0
1, 16542, Note_on_c, 0, 79, 0
1, 16544, Note_on_c, 0, 80, 84
1, 16544, Note_on_c, 0, 77, 84
1, 16574, Note_on_c, 0, 80, 0
1, 16574, Note_on_c, 0, 77, 0
1, 16576, Note_on_c, 0, 82, 84
1, 16576, Note_on_c, 0, 79, 84
1, 16606, Note_on_c, 0, 82, 0
1, 16606, Note_on_c, 0, 79, 0
1, 16608, Note_on_c, 0, 84, 84
1, 16608, Note_on_c, 0, 80, 84
1, 16638, Note_on_c, 0, 84, 0
1, 16638, Note_on_c, 0, 80, 0
1, 16640, Note_on_c, 0, 82, 84
1, 16640, Note_on_c, 0, 79, 84
1, 16670, Note_on_c, 0, 82, 0
1, 16670, Note_on_c, 0, 79, 0
1, 16672, Note_on_c, 0, 80, 84
1, 16672, Note_on_c, 0, 77, 84
1, 16689, Note_on_c, 1, 44, 0
1, 16702, Note_on_c, 0, 80, 0
1, 16702, Note_on_c, 0, 77, 0
1, 16704, Note_on_c, 0, 79, 84
1, 16704, Note_on_c, 0, 75, 84
1, 16704, Note_on_c, 1, 46, 84
1, 16793, Note_on_c, 0, 79, 0
1, 16793, Note_on_c, 0, 75, 0
1, 16793, Note_on_c, 1, 46, 0
1, 16800, Note_on_c, 0, 77, 84
1, 16800, Note_on_c, 0, 74, 84
1, 16800, Note_on_c, 1, 46, 84
1, 16889, Note_on_c, 0, 77, 0
1, 16889, Note_on_c, 0, 74, 0
1, 16889, Note_on_c, 1, 46, 0
1, 16896, Note_on_c, 0, 75, 100
1, 16896, Note_on_c, 1, 63, 84
1, 16926, Note_on_c, 1, 63, 0
1, 16928, Note_on_c, 1, 67, 84
1, 16958, Note_on_c, 1, 67, 0
1, 16960, Note_on_c, 1, 65, 84
1, 16990, Note_on_c, 1, 65, 0
1, 16992, Note_on_c, 1, 63, 84
1, 17022, Note_on_c, 1, 63, 0
1, 17024, Note_on_c, 1, 62, 84
1, 17054, Note_on_c, 1, 62, 0
1, 17056, Note_on_c, 1, 60, 84
1, 17086, Note_on_c, 1, 60, 0
1, 17088, Note_on_c, 1, 58, 84
1, 17118, Note_on_c, 1, 58, 0
1, 17120, Note_on_c, 1, 56, 84
1, 17150, Note_on_c, 1, 56, 0
1, 17152, Note_on_c, 1, 55, 84
1, 17182, Note_on_c, 1, 55, 0
1, 17184, Note_on_c, 0, 75, 0
1, 17184, Note_on_c, 0, 77, 84
1, 17184, Note_on_c, 0, 74, 84
1, 17184, Note_on_c, 1, 53, 84
1, 17214, Note_on_c, 1, 53, 0
1, 17216, Note_on_c, 1, 51, 84
1, 17246, Note_on_c, 1, 51, 0
1, 17248, Note_on_c, 1, 50, 84
1, 17273, Note_on_c, 0, 77, 0
1, 17273, Note_on_c, 0, 74, 0
1, 17278, Note_on_c, 1, 50, 0
1, 17280, Note_on_c, 0, 79, 100
1, 17280, Note_on_c, 0, 75, 100
1, 17280, Note_on_c, 1, 48, 84
1, 17310, Note_on_c, 1, 48, 0
1, 17312, Note_on_c, 1, 63, 84
1, 17342, Note_on_c, 1, 63, 0
1, 17344, Note_on_c, 1, 62, 84
1, 17374, Note_on_c, 1, 62, 0
1, 17376, Note_on_c, 1, 60, 84
1, 17406, Note_on_c, 1, 60, 0
1, 17408, Note_on_c, 1, 58, 84
1, 17438, Note_on_c, 1, 58, 0
1, 17440, Note_on_c, 1, 56, 84
1, 17470, Note_on_c, 1, 56, 0
1, 17472, Note_on_c, 1, 55, 84
1, 17502, Note_on_c, 1, 55, 0
1, 17504, Note_on_c, 1, 53, 84
1, 17534, Note_on_c, 1, 53, 0
1, 17536, Note_on_c, 1, 51, 84
1, 17566, Note_on_c, 1, 51, 0
1, 17568, Note_on_c, 0, 79, 0
1, 17568, Note_on_c, 0, 75, 0
1, 17568, Note_on_c, 0, 80, 84
1, 17568, Note_on_c, 0, 77, 84
1, 17568, Note_on_c, 1, 50, 84
1, 17598, Note_on_c, 1, 50, 0
1, 17600, Note_on_c, 1, 48, 84
1, 17630, Note_on_c, 1, 48, 0
1, 17632, Note_on_c, 1, 46, 84
1, 17657, Note_on_c, 0, 80, 0
1, 17657, Note_on_c, 0, 77, 0
1, 17662, Note_on_c, 1, 46, 0
1, 17664, Note_on_c, 0, 82, 84
1, 17664, Note_on_c, 0, 79, 84
1, 17664, Note_on_c, 1, 44, 84
1, 17694, Note_on_c, 0, 82, 0
1, 17694, Note_on_c, 0, 79, 0
1, 17696, Note_on_c, 0, 80, 83
1, 17696, Note_on_c, 0, 77, 83
1, 17726, Note_on_c, 0, 80, 0
1, 17726, Note_on_c, 0, 77, 0
1, 17728, Note_on_c, 0, 82, 82
1, 17728, Note_on_c, 0, 79, 82
1, 17758, Note_on_c, 0, 82, 0
1, 17758, Note_on_c, 0, 79, 0
1, 17760, Note_on_c, 0, 84, 82
1, 17760, Note_on_c, 0, 80, 82
1, 17790, Note_on_c, 0, 84, 0
1, 17790, Note_on_c, 0, 80, 0
1, 17792, Note_on_c, 0, 82, 81
1, 17792, Note_on_c, 0, 79, 81
1, 17822, Note_on_c, 0, 82, 0
1, 17822, Note_on_c, 0, 79, 0
1, 17824, Note_on_c, 0, 80, 80
1, 17824, Note_on_c, 0, 77, 80
1, 17841, Note_on_c, 1, 44, 0
1, 17854, Note_on_c, 0, 80, 0
1, 17854, Note_on_c, 0, 77, 0
1, 17856, Note_on_c, 0, 79, 80
1, 17856, Note_on_c, 0, 75, 80
1, 17856, Note_on_c, 1, 46, 84
1, 17945, Note_on_c, 0, 79, 0
1, 17945, Note_on_c, 0, 75, 0
1, 17945, Note_on_c, 1, 46, 0
1, 17952, Note_on_c, 0, 77, 78
1, 17952, Note_on_c, 0, 74, 78
1, 17952, Note_on_c, 1, 46, 79
1, 18041, Note_on_c, 0, 77, 0
1, 18041, Note_on_c, 0, 74, 0
1, 18041, Note_on_c, 1, 46, 0
1, 18048, Note_on_c, 0, 75, 76
1, 18048, Note_on_c, 1, 63, 75
1, 18078, Note_on_c, 1, 63, 0
1, 18080, Note_on_c, 1, 67, 74
1, 18110, Note_on_c, 1, 67, 0
1, 18112, Note_on_c, 1, 70, 72
1, 18142, Note_on_c, 1, 70, 0
1, 18144, Note_on_c, 1, 63, 71
1, 18174, Note_on_c, 1, 63, 0
1, 18176, Note_on_c, 1, 67, 70
1, 18206, Note_on_c, 1, 67, 0
1, 18208, Note_on_c, 1, 70, 69
1, 18238, Note_on_c, 1, 70, 0
1, 18240, Note_on_c, 1, 63, 67
1, 18270, Note_on_c, 1, 63, 0
1, 18272, Note_on_c, 1, 67, 66
1, 18302, Note_on_c, 1, 67, 0
1, 18304, Note_on_c, 1, 70, 65
1, 18313, Note_on_c, 0, 75, 0
1, 18334, Note_on_c, 1, 70, 0
1, 18336, Note_on_c, 0, 79, 70
1, 18336, Note_on_c, 1, 63, 63
1, 18348, Note_on_c, 0, 79, 0
1, 18348, Note_on_c, 0, 77, 70
1, 18366, Note_on_c, 1, 63, 0
1, 18368, Note_on_c, 1, 68, 63
1, 18398, Note_on_c, 1, 68, 0
1, 18400, Note_on_c, 1, 74, 63
1, 18426, Note_on_c, 0, 77, 0
1, 18430, Note_on_c, 1, 74, 0
1, 18432, Note_on_c, 0, 75, 70
1, 18432, Note_on_c, 1, 63, 63
1, 18462, Note_on_c, 1, 63, 0
1, 18464, Note_on_c, 1, 67, 63
1, 18494, Note_on_c, 1, 67, 0
1, 18496, Note_on_c, 1, 70, 63
1, 18521, Note_on_c, 0, 75, 0
1, 18526, Note_on_c, 1, 70, 0
1, 18528, Note_on_c, 0, 75, 71
1, 18528, Note_on_c, 1, 63, 63
1, 18558, Note_on_c, 1, 63, 0
1, 18560, Note_on_c, 1, 67, 63
1, 18590, Note_on_c, 1, 67, 0
1, 18592, Note_on_c, 1, 70, 63
1, 18617, Note_on_c, 0, 75, 0
1, 18622, Note_on_c, 1, 70, 0
1, 18624, Note_on_c, 0, 75, 73
1, 18624, Note_on_c, 1, 63, 63
1, 18654, Note_on_c, 1, 63, 0
1, 18656, Note_on_c, 1, 67, 63
1, 18686, Note_on_c, 1, 67, 0
1, 18688, Note_on_c, 1, 70, 63
1, 18713, Note_on_c, 0, 75, 0
1, 18718, Note_on_c, 1, 70, 0
1, 18720, Note_on_c, 0, 80, 75
1, 18720, Note_on_c, 1, 63, 63
1, 18732, Note_on_c, 0, 80, 0
1, 18732, Note_on_c, 0, 77, 75
1, 18750, Note_on_c, 1, 63, 0
1, 18752, Note_on_c, 1, 68, 63
1, 18782, Note_on_c, 1, 68, 0
1, 18784, Note_on_c, 1, 74, 63
1, 18810, Note_on_c, 0, 77, 0
1, 18814, Note_on_c, 1, 74, 0
1, 18816, Note_on_c, 0, 82, 77
1, 18816, Note_on_c, 1, 63, 63
1, 18846, Note_on_c, 1, 63, 0
1, 18848, Note_on_c, 1, 67, 63
1, 18878, Note_on_c, 1, 67, 0
1, 18880, Note_on_c, 1, 70, 63
1, 18905, Note_on_c, 0, 82, 0
1, 18910, Note_on_c, 1, 70, 0
1, 18912, Note_on_c, 0, 82, 75
1, 18912, Note_on_c, 1, 63, 63
1, 18942, Note_on_c, 1, 63, 0
1, 18944, Note_on_c, 1, 67, 63
1, 18974, Note_on_c, 1, 67, 0
1, 18976, Note_on_c, 1, 70, 63
1, 19001, Note_on_c, 0, 82, 0
1, 19006, Note_on_c, 1, 70, 0
1, 19008, Note_on_c, 0, 82, 73
1, 19008, Note_on_c, 1, 63, 63
1, 19038, Note_on_c, 1, 63, 0
1, 19040, Note_on_c, 1, 67, 63
1, 19070, Note_on_c, 1, 67, 0
1, 19072, Note_on_c, 1, 70, 63
1, 19097, Note_on_c, 0, 82, 0
1, 19102, Note_on_c, 1, 70, 0
1, 19104, Note_on_c, 0, 80, 71
1, 19104, Note_on_c, 1, 63, 63
1, 19116, Note_on_c, 0, 80, 0
1, 19116, Note_on_c, 0, 77, 71
1, 19134, Note_on_c, 1, 63, 0
1, 19136, Note_on_c, 1, 68, 63
1, 19166, Note_on_c, 1, 68, 0
1, 19168, Note_on_c, 1, 74, 63
1, 19194, Note_on_c, 0, 77, 0
1, 19198, Note_on_c, 1, 74, 0
1, 19200, Note_on_c, 0, 75, 70
1, 19200, Note_on_c, 1, 63, 63
1, 19230, Note_on_c, 1, 63, 0
1, 19232, Note_on_c, 1, 67, 63
1, 19262, Note_on_c, 1, 67, 0
1, 19264, Note_on_c, 1, 70, 63
1, 19294, Note_on_c, 1, 70, 0
1, 19296, Note_on_c, 1, 63, 63
1, 19326, Note_on_c, 1, 63, 0
1, 19328, Note_on_c, 1, 67, 63
1, 19358, Note_on_c, 1, 67, 0
1, 19360, Note_on_c, 1, 70, 63
1, 19390, Note_on_c, 1, 70, 0
1, 19392, Note_on_c, 1, 63, 63
1, 19422, Note_on_c, 1, 63, 0
1, 19424, Note_on_c, 1, 67, 63
1, 19454, Note_on_c, 1, 67, 0
1, 19456, Note_on_c, 1, 70, 63
1, 19465, Note_on_c, 0, 75, 0
1, 19486, Note_on_c, 1, 70, 0
1, 19488, Note_on_c, 0, 79, 70
1, 19488, Note_on_c, 1, 63, 63
1, 19500, Note_on_c, 0, 79, 0
1, 19500, Note_on_c, 0, 77, 70
1, 19518, Note_on_c, 1, 63, 0
1, 19520, Note_on_c, 1, 68, 63
1, 19550, Note_on_c, 1, 68, 0
1, 19552, Note_on_c, 1, 74, 63
1, 19578, Note_on_c, 0, 77, 0
1, 19582, Note_on_c, 1, 74, 0
1, 19584, Note_on_c, 0, 75, 70
1, 19584, Note_on_c, 1, 63, 63
1, 19614, Note_on_c, 1, 63, 0
1, 19616, Note_on_c, 1, 67, 63
1, 19646, Note_on_c, 1, 67, 0
1, 19648, Note_on_c, 1, 70, 63
1, 19673, Note_on_c, 0, 75, 0
1, 19678, Note_on_c, 1, 70, 0
1, 19680, Note_on_c, 0, 75, 71
1, 19680, Note_on_c, 1, 63, 63
1, 19710, Note_on_c, 1, 63, 0
1, 19712, Note_on_c, 1, 67, 63
1, 19742, Note_on_c, 1, 67, 0
1, 19744, Note_on_c, 1, 70, 63
1, 19769, Note_on_c, 0, 75, 0
1, 19774, Note_on_c, 1, 70, 0
1, 19776, Note_on_c, 0, 75, 73
1, 19776, Note_on_c, 1, 63, 63
1, 19806, Note_on_c, 1, 63, 0
1, 19808, Note_on_c, 1, 67, 63
1, 19838, Note_on_c, 1, 67, 0
1, 19840, Note_on_c, 1, 70, 63
1, 19865, Note_on_c, 0, 75, 0
1, 19870, Note_on_c, 1, 70, 0
1, 19872, Note_on_c, 0, 80, 75
1, 19872, Note_on_c, 1, 63, 63
1, 19884, Note_on_c, 0, 80, 0
1, 19884, Note_on_c, 0, 77, 75
1, 19902, Note_on_c, 1, 63, 0
1, 19904, Note_on_c, 1, 68, 63
1, 19934, Note_on_c, 1, 68, 0
1, 19936, Note_on_c, 1, 74, 63
1, 19962, Note_on_c, 0, 77, 0
1, 19966, Note_on_c, 1, 74, 0
1, 19968, Note_on_c, 0, 82, 77
1, 19968, Note_on_c, 1, 63, 63
1, 19998, Note_on_c, 1, 63, 0
1, 20000, Note_on_c, 1, 67, 63
1, 20030, Note_on_c, 1, 67, 0
1, 20032, Note_on_c, 1, 70, 63
1, 20057, Note_on_c, 0, 82, 0
1, 20062, Note_on_c, 1, 70, 0
1, 20064, Note_on_c, 0, 82, 75
1, 20064, Note_on_c, 1, 63, 63
1, 20094, Note_on_c, 1, 63, 0
1, 20096, Note_on_c, 1, 67, 63
1, 20126, Note_on_c, 1, 67, 0
1, 20128, Note_on_c, 1, 70, 63
1, 20153, Note_on_c, 0, 82, 0
1, 20158, Note_on_c, 1, 70, 0
1, 20160, Note_on_c, 0, 82, 73
1, 20160, Note_on_c, 1, 63, 63
1, 20190, Note_on_c, 1, 63, 0
1, 20192, Note_on_c, 1, 67, 63
1, 20222, Note_on_c, 1, 67, 0
1, 20224, Note_on_c, 1, 70, 63
1, 20249, Note_on_c, 0, 82, 0
1, 20254, Note_on_c, 1, 70, 0
1, 20256, Note_on_c, 0, 80, 71
1, 20256, Note_on_c, 1, 63, 63
1, 20268, Note_on_c, 0, 80, 0
1, 20268, Note_on_c, 0, 77, 71
1, 20286, Note_on_c, 1, 63, 0
1, 20288, Note_on_c, 1, 68, 63
1, 20318, Note_on_c, 1, 68, 0
1, 20320, Note_on_c, 1, 74, 63
1, 20346, Note_on_c, 0, 77, 0
1, 20350, Note_on_c, 1, 74, 0
1, 20352, Note_on_c, 0, 75, 70
1, 20352, Note_on_c, 1, 63, 63
1, 20382, Note_on_c, 1, 63, 0
1, 20384, Note_on_c, 1, 67, 63
1, 20414, Note_on_c, 1, 67, 0
1, 20416, Note_on_c, 1, 70, 63
1, 20446, Note_on_c, 1, 70, 0
1, 20448, Note_on_c, 1, 63, 63
1, 20478, Note_on_c, 1, 63, 0
1, 20480, Note_on_c, 1, 67, 63
1, 20510, Note_on_c, 1, 67, 0
1, 20512, Note_on_c, 1, 70, 63
1, 20542, Note_on_c, 1, 70, 0
1, 20544, Note_on_c, 1, 63, 63
1, 20574, Note_on_c, 1, 63, 0
1, 20576, Note_on_c, 1, 67, 63
1, 20606, Note_on_c, 1, 67, 0
1, 20608, Note_on_c, 1, 70, 63
1, 20617, Note_on_c, 0, 75, 0
1, 20638, Note_on_c, 1, 70, 0
1, 20640, Note_on_c, 0, 79, 70
1, 20640, Note_on_c, 1, 63, 63
1, 20652, Note_on_c, 0, 79, 0
1, 20652, Note_on_c, 0, 77, 70
1, 20670, Note_on_c, 1, 63, 0
1, 20672, Note_on_c, 1, 68, 63
1, 20702, Note_on_c, 1, 68, 0
1, 20704, Note_on_c, 1, 74, 63
1, 20730, Note_on_c, 0, 77, 0
1, 20734, Note_on_c, 1, 74, 0
1, 20736, Note_on_c, 0, 75, 70
1, 20736, Note_on_c, 1, 67, 63
1, 20736, Note_on_c, 1, 63, 63
1, 20825, Note_on_c, 0, 75, 0
1, 20825, Note_on_c, 1, 67, 0
1, 20825, Note_on_c, 1, 63, 0
1, 20832, Note_on_c, 0, 82, 56
1, 20832, Note_on_c, 0, 79, 56
1, 20921, Note_on_c, 0, 82, 0
1, 20921, Note_on_c, 0, 79, 0
1, 20928, Note_on_c, 0, 82, 56
1, 20928, Note_on_c, 0, 79, 56
1, 21017, Note_on_c, 0, 82, 0
1, 21017, Note_on_c, 0, 79, 0
1, 21024, Note_on_c, 1, 43, 56
1, 21024, Note_on_c, 1, 39, 56
1, 21113, Note_on_c, 1, 43, 0
1, 21113, Note_on_c, 1, 39, 0
1, 21120, Note_on_c, 1, 43, 56
1, 21120, Note_on_c, 1, 39, 56
1, 21253, Note_on_c, 1, 43, 0
1, 21253, Note_on_c, 1, 39, 0
1, 21408, Note_on_c, 0, 63, 77
1, 21475, Note_on_c, 0, 63, 0
1, 21480, Note_on_c, 0, 60, 77
1, 21503, Note_on_c, 0, 60, 0
1, 21504, Note_on_c, 0, 68, 77
1, 21504, Note_on_c, 1, 56, 77
1, 21504, Note_on_c, 1, 44, 77
1, 21571, Note_on_c, 0, 68, 0
1, 21576, Note_on_c, 0, 68, 77
1, 21593, Note_on_c, 1, 56, 0
1, 21593, Note_on_c, 1, 44, 0
1, 21599, Note_on_c, 0, 68, 0
1, 21600, Note_on_c, 0, 70, 77
1, 21612, Note_on_c, 0, 70, 0
1, 21612, Note_on_c, 0, 68, 77
1, 21624, Note_on_c, 0, 68, 0
1, 21624, Note_on_c, 0, 70, 77
1, 21636, Note_on_c, 0, 70, 0
1, 21636, Note_on_c, 0, 68, 77
1, 21648, Note_on_c, 0, 68, 0
1, 21648, Note_on_c, 0, 67, 77
1, 21672, Note_on_c, 0, 67, 0
1, 21672, Note_on_c, 0, 68, 77
1, 21696, Note_on_c, 0, 68, 0
1, 21696, Note_on_c, 0, 70, 77
1, 21696, Note_on_c, 1, 55, 77
1, 21696, Note_on_c, 1, 43, 77
1, 21785, Note_on_c, 0, 70, 0
1, 21785, Note_on_c, 1, 55, 0
1, 21785, Note_on_c, 1, 43, 0
1, 21792, Note_on_c, 0, 63, 77
1, 21859, Note_on_c, 0, 63, 0
1, 21864, Note_on_c, 0, 75, 77
1, 21887, Note_on_c, 0, 75, 0
1, 21888, Note_on_c, 0, 73, 77
1, 21984, Note_on_c, 1, 44, 77
1, 22080, Note_on_c, 0, 73, 0
1, 22080, Note_on_c, 0, 72, 77
1, 22080, Note_on_c, 1, 44, 0
1, 22080, Note_on_c, 1, 56, 77
1, 22100, Note_on_c, 0, 72, 0
1, 22125, Note_on_c, 1, 56, 0
1, 22176, Note_on_c, 0, 68, 77
1, 22243, Note_on_c, 0, 68, 0
1, 22248, Note_on_c, 0, 77, 77
1, 22271, Note_on_c, 0, 77, 0
1, 22272, Note_on_c, 0, 75, 77
1, 22368, Note_on_c, 1, 58, 77
1, 22464, Note_on_c, 0, 75, 0
1, 22464, Note_on_c, 0, 73, 77
1, 22464, Note_on_c, 1, 58, 0
1, 22464, Note_on_c, 1, 55, 77
1, 22484, Note_on_c, 0, 73, 0
1, 22509, Note_on_c, 1, 55, 0
1, 22560, Note_on_c, 0, 63, 77
1, 22627, Note_on_c, 0, 63, 0
1, 22632, Note_on_c, 0, 75, 77
1, 22655, Note_on_c, 0, 75, 0
1, 22656, Note_on_c, 0, 73, 77
1, 22752, Note_on_c, 1, 56, 77
1, 22848, Note_on_c, 0, 73, 0
1, 22848, Note_on_c, 0, 72, 77
1, 22848, Note_on_c, 1, 56, 0
1, 22848, Note_on_c, 1, 44, 77
1, 22868, Note_on_c, 0, 72, 0
1, 22893, Note_on_c, 1, 44, 0
1, 22944, Note_on_c, 0, 80, 77
1, 22944, Note_on_c, 1, 48, 77
1, 23011, Note_on_c, 0, 80, 0
1, 23016, Note_on_c, 0, 72, 77
1, 23033, Note_on_c, 1, 48, 0
1, 23039, Note_on_c, 0, 72, 0
1, 23040, Note_on_c, 0, 70, 77
1, 23040, Note_on_c, 1, 49, 77
1, 23107, Note_on_c, 0, 70, 0
1, 23112, Note_on_c, 0, 70, 77
1, 23135, Note_on_c, 0, 70, 0
1, 23136, Note_on_c, 0, 72, 77
1, 23148, Note_on_c, 0, 72, 0
1, 23148, Note_on_c, 0, 70, 77
1, 23160, Note_on_c, 0, 70, 0
1, 23160, Note_on_c, 0, 72, 77
1, 23172, Note_on_c, 0, 72, 0
1, 23172, Note_on_c, 0, 70, 77
1, 23184, Note_on_c, 0, 70, 0
1, 23184, Note_on_c, 0, 69, 77
1, 23208, Note_on_c, 0, 69, 0
1, 23208, Note_on_c, 0, 70, 77
1, 23217, Note_on_c, 1, 49, 0
1, 23232, Note_on_c, 0, 70, 0
1, 23232, Note_on_c, 0, 73, 77
1, 23299, Note_on_c, 0, 73, 0
1, 23304, Note_on_c, 0, 70, 77
1, 23327, Note_on_c, 0, 70, 0
1, 23328, Note_on_c, 0, 67, 77
1, 23328, Note_on_c, 1, 51, 77
1, 23395, Note_on_c, 0, 67, 0
1, 23400, Note_on_c, 0, 63, 77
1, 23417, Note_on_c, 1, 51, 0
1, 23423, Note_on_c, 0, 63, 0
1, 23424, Note_on_c, 0, 68, 77
1, 23463, Note_on_c, 0, 68, 0
1, 23496, Note_on_c, 1, 44, 77
1, 23519, Note_on_c, 1, 44, 0
1, 23520, Note_on_c, 1, 48, 77
1, 23587, Note_on_c, 1, 48, 0
1, 23592, Note_on_c, 1, 51, 77
1, 23615, Note_on_c, 1, 51, 0
1, 23616, Note_on_c, 1, 56, 77
1, 23655, Note_on_c, 1, 56, 0
1, 23712, Note_on_c, 0, 63, 77
1, 23779, Note_on_c, 0, 63, 0
1, 23784, Note_on_c, 0, 60, 77
1, 23807, Note_on_c, 0, 60, 0
1, 23808, Note_on_c, 0, 68, 77
1, 23808, Note_on_c, 1, 60, 77
1, 23808, Note_on_c, 1, 56, 77
1, 23875, Note_on_c, 0, 68, 0
1, 23880, Note_on_c, 0, 68, 77
1, 23897, Note_on_c, 1, 60, 0
1, 23897, Note_on_c, 1, 56, 0
1, 23903, Note_on_c, 0, 68, 0
1, 23904, Note_on_c, 0, 70, 77
1, 23916, Note_on_c, 0, 70, 0
1, 23916, Note_on_c, 0, 68, 77
1, 23928, Note_on_c, 0, 68, 0
1, 23928, Note_on_c, 0, 70, 77
1, 23940, Note_on_c, 0, 70, 0
1, 23940, Note_on_c, 0, 68, 77
1, 23952, Note_on_c, 0, 68, 0
1, 23952, Note_on_c, 0, 67, 77
1, 23976, Note_on_c, 0, 67, 0
1, 23976, Note_on_c, 0, 68, 77
1, 24000, Note_on_c, 0, 68, 0
1, 24000, Note_on_c, 0, 70, 77
1, 24000, Note_on_c, 1, 58, 77
1, 24000, Note_on_c, 1, 55, 77
1, 24089, Note_on_c, 0, 70, 0
1, 24089, Note_on_c, 1, 58, 0
1, 24089, Note_on_c, 1, 55, 0
1, 24096, Note_on_c, 0, 63, 77
1, 24163, Note_on_c, 0, 63, 0
1, 24168, Note_on_c, 0, 75, 77
1, 24191, Note_on_c, 0, 75, 0
1, 24192, Note_on_c, 0, 73, 77
1, 24288, Note_on_c, 1, 44, 77
1, 24384, Note_on_c, 0, 73, 0
1, 24384, Note_on_c, 0, 72, 77
1, 24384, Note_on_c, 1, 44, 0
1, 24384, Note_on_c, 1, 56, 77
1, 24429, Note_on_c, 0, 72, 0
1, 24473, Note_on_c, 1, 56, 0
1, 24480, Note_on_c, 0, 68, 77
1, 24480, Note_on_c, 1, 60, 77
1, 24547, Note_on_c, 0, 68, 0
1, 24552, Note_on_c, 0, 80, 77
1, 24569, Note_on_c, 1, 60, 0
1, 24575, Note_on_c, 0, 80, 0
1, 24576, Note_on_c, 0, 79, 77
1, 24672, Note_on_c, 0, 79, 0
1, 24672, Note_on_c, 0, 77, 77
1, 24672, Note_on_c, 1, 61, 77
1, 24701, Note_on_c, 0, 77, 0
1, 24711, Note_on_c, 1, 61, 0
1, 24744, Note_on_c, 0, 80, 77
1, 24767, Note_on_c, 0, 80, 0
1, 24768, Note_on_c, 0, 77, 77
1, 24864, Note_on_c, 0, 77, 0
1, 24864, Note_on_c, 0, 75, 77
1, 24864, Note_on_c, 1, 60, 77
1, 24893, Note_on_c, 0, 75, 0
1, 24903, Note_on_c, 1, 60, 0
1, 24936, Note_on_c, 0, 80, 77
1, 24959, Note_on_c, 0, 80, 0
1, 24960, Note_on_c, 0, 75, 77
1, 25056, Note_on_c, 0, 75, 0
1, 25056, Note_on_c, 0, 73, 77
1, 25056, Note_on_c, 1, 58, 77
1, 25085, Note_on_c, 0, 73, 0
1, 25095, Note_on_c, 1, 58, 0
1, 25128, Note_on_c, 0, 80, 77
1, 25151, Note_on_c, 0, 80, 0
1, 25152, Note_on_c, 0, 73, 77
1, 25248, Note_on_c, 0, 73, 0
1, 25248, Note_on_c, 0, 72, 77
1, 25248, Note_on_c, 1, 56, 77
1, 25277, Note_on_c, 0, 72, 0
1, 25287, Note_on_c, 1, 56, 0
1, 25320, Note_on_c, 0, 80, 77
1, 25343, Note_on_c, 0, 80, 0
1, 25344, Note_on_c, 0, 72, 77
1, 25411, Note_on_c, 0, 72, 0
1, 25416, Note_on_c, 0, 70, 80
1, 25439, Note_on_c, 0, 70, 0
1, 25440, Note_on_c, 0, 73, 81
1, 25440, Note_on_c, 1, 49, 77
1, 25440, Note_on_c, 1, 61, 64
1, 25507, Note_on_c, 0, 73, 0
1, 25512, Note_on_c, 0, 77, 84
1, 25529, Note_on_c, 1, 49, 0
1, 25529, Note_on_c, 1, 61, 0
1, 25535, Note_on_c, 0, 77, 0
1, 25536, Note_on_c, 0, 75, 83
1, 25536, Note_on_c, 1, 51, 77
1, 25536, Note_on_c, 1, 60, 64
1, 25625, Note_on_c, 0, 75, 0
1, 25625, Note_on_c, 1, 60, 0
1, 25632, Note_on_c, 0, 67, 80
1, 25632, Note_on_c, 1, 58, 64
1, 25713, Note_on_c, 1, 51, 0
1, 25721, Note_on_c, 0, 67, 0
1, 25721, Note_on_c, 1, 58, 0
1, 25728, Note_on_c, 0, 67, 77
1, 25728, Note_on_c, 1, 56, 63
1, 25740, Note_on_c, 0, 67, 0
1, 25740, Note_on_c, 0, 68, 77
1, 25758, Note_on_c, 1, 56, 0
1, 25760, Note_on_c, 1, 60, 63
1, 25790, Note_on_c, 1, 60, 0
1, 25792, Note_on_c, 1, 63, 63
1, 25818, Note_on_c, 0, 68, 0
1, 25822, Note_on_c, 1, 63, 0
1, 25824, Note_on_c, 0, 67, 77
1, 25824, Note_on_c, 1, 56, 63
1, 25836, Note_on_c, 0, 67, 0
1, 25836, Note_on_c, 0, 68, 77
1, 25854, Note_on_c, 1, 56, 0
1, 25856, Note_on_c, 1, 60, 63
1, 25886, Note_on_c, 1, 60, 0
1, 25888, Note_on_c, 1, 63, 63
1, 25914, Note_on_c, 0, 68, 0
1, 25918, Note_on_c, 1, 63, 0
1, 25920, Note_on_c, 0, 67, 77
1, 25920, Note_on_c, 1, 56, 63
1, 25932, Note_on_c, 0, 67, 0
1, 25932, Note_on_c, 0, 68, 77
1, 25950, Note_on_c, 1, 56, 0
1, 25952, Note_on_c, 1, 60, 63
1, 25982, Note_on_c, 1, 60, 0
1, 25984, Note_on_c, 1, 63, 63
1, 26010, Note_on_c, 0, 68, 0
1, 26014, Note_on_c, 1, 63, 0
1, 26016, Note_on_c, 0, 69, 77
1, 26016, Note_on_c, 1, 55, 63
1, 26028, Note_on_c, 0, 69, 0
1, 26028, Note_on_c, 0, 70, 77
1, 26046, Note_on_c, 1, 55, 0
1, 26048, Note_on_c, 1, 58, 63
1, 26078, Note_on_c, 1, 58, 0
1, 26080, Note_on_c, 1, 63, 63
1, 26106, Note_on_c, 0, 70, 0
1, 26110, Note_on_c, 1, 63, 0
1, 26112, Note_on_c, 0, 71, 77
1, 26112, Note_on_c, 1, 56, 63
1, 26124, Note_on_c, 0, 71, 0
1, 26124, Note_on_c, 0, 72, 77
1, 26142, Note_on_c, 1, 56, 0
1, 26144, Note_on_c, 1, 60, 63
1, 26174, Note_on_c, 1, 60, 0
1, 26176, Note_on_c, 1, 63, 63
1, 26206, Note_on_c, 1, 63, 0
1, 26208, Note_on_c, 1, 56, 63
1, 26238, Note_on_c, 1, 56, 0
1, 26240, Note_on_c, 1, 60, 63
1, 26270, Note_on_c, 1, 60, 0
1, 26272, Note_on_c, 1, 63, 63
1, 26302, Note_on_c, 1, 63, 0
1, 26304, Note_on_c, 0, 72, 0
1, 26304, Note_on_c, 0, 68, 77
1, 26304, Note_on_c, 1, 56, 63
1, 26334, Note_on_c, 1, 56, 0
1, 26336, Note_on_c, 1, 60, 63
1, 26366, Note_on_c, 1, 60, 0
1, 26368, Note_on_c, 1, 63, 63
1, 26398, Note_on_c, 1, 63, 0
1, 26400, Note_on_c, 1, 56, 63
1, 26430, Note_on_c, 1, 56, 0
1, 26432, Note_on_c, 1, 60, 63
1, 26462, Note_on_c, 1, 60, 0
1, 26464, Note_on_c, 1, 63, 63
1, 26481, Note_on_c, 0, 68, 0
1, 26494, Note_on_c, 1, 63, 0
1, 26496, Note_on_c, 0, 71, 77
1, 26496, Note_on_c, 1, 56, 63
1, 26508, Note_on_c, 0, 71, 0
1, 26508, Note_on_c, 0, 72, 77
1, 26526, Note_on_c, 1, 56, 0
1, 26528, Note_on_c, 1, 60, 63
1, 26558, Note_on_c, 1, 60, 0
1, 26560, Note_on_c, 1, 63, 63
1, 26586, Note_on_c, 0, 72, 0
1, 26590, Note_on_c, 1, 63, 0
1, 26592, Note_on_c, 0, 71, 77
1, 26592, Note_on_c, 1, 56, 63
1, 26604, Note_on_c, 0, 71, 0
1, 26604, Note_on_c, 0, 72, 77
1, 26622, Note_on_c, 1, 56, 0
1, 26624, Note_on_c, 1, 60, 63
1, 26654, Note_on_c, 1, 60, 0
1, 26656, Note_on_c, 1, 63, 63
1, 26682, Note_on_c, 0, 72, 0
1, 26686, Note_on_c, 1, 63, 0
1, 26688, Note_on_c, 0, 71, 77
1, 26688, Note_on_c, 1, 56, 63
1, 26700, Note_on_c, 0, 71, 0
1, 26700, Note_on_c, 0, 72, 77
1, 26718, Note_on_c, 1, 56, 0
1, 26720, Note_on_c, 1, 60, 63
1, 26750, Note_on_c, 1, 60, 0
1, 26752, Note_on_c, 1, 63, 63
1, 26778, Note_on_c, 0, 72, 0
1, 26782, Note_on_c, 1, 63, 0
1, 26784, Note_on_c, 0, 75, 77
1, 26784, Note_on_c, 1, 58, 63
1, 26807, Note_on_c, 0, 75, 0
1, 26808, Note_on_c, 0, 73, 77
1, 26814, Note_on_c, 1, 58, 0
1, 26816, Note_on_c, 1, 61, 63
1, 26831, Note_on_c, 0, 73, 0
1, 26832, Note_on_c, 0, 72, 77
1, 26846, Note_on_c, 1, 61, 0
1, 26848, Note_on_c, 1, 67, 63
1, 26855, Note_on_c, 0, 72, 0
1, 26856, Note_on_c, 0, 73, 77
1, 26878, Note_on_c, 1, 67, 0
1, 26879, Note_on_c, 0, 73, 0
1, 26880, Note_on_c, 0, 75, 77
1, 26880, Note_on_c, 1, 60, 63
1, 26910, Note_on_c, 1, 60, 0
1, 26912, Note_on_c, 1, 63, 63
1, 26942, Note_on_c, 1, 63, 0
1, 26944, Note_on_c, 1, 68, 63
1, 26974, Note_on_c, 1, 68, 0
1, 26976, Note_on_c, 1, 60, 63
1, 27006, Note_on_c, 1, 60, 0
1, 27008, Note_on_c, 1, 63, 63
1, 27038, Note_on_c, 1, 63, 0
1, 27040, Note_on_c, 1, 68, 63
1, 27070, Note_on_c, 1, 68, 0
1, 27072, Note_on_c, 0, 75, 0
1, 27072, Note_on_c, 0, 72, 77
1, 27072, Note_on_c, 1, 60, 63
1, 27102, Note_on_c, 1, 60, 0
1, 27104, Note_on_c, 1, 63, 63
1, 27134, Note_on_c, 1, 63, 0
1, 27136, Note_on_c, 1, 68, 63
1, 27166, Note_on_c, 1, 68, 0
1, 27168, Note_on_c, 1, 60, 63
1, 27198, Note_on_c, 1, 60, 0
1, 27200, Note_on_c, 1, 63, 63
1, 27230, Note_on_c, 1, 63, 0
1, 27232, Note_on_c, 1, 68, 63
1, 27249, Note_on_c, 0, 72, 0
1, 27262, Note_on_c, 1, 68, 0
1, 27264, Note_on_c, 0, 80, 77
1, 27264, Note_on_c, 1, 60, 63
1, 27294, Note_on_c, 1, 60, 0
1, 27296, Note_on_c, 1, 63, 63
1, 27326, Note_on_c, 1, 63, 0
1, 27328, Note_on_c, 1, 68, 63
1, 27353, Note_on_c, 0, 80, 0
1, 27358, Note_on_c, 1, 68, 0
1, 27360, Note_on_c, 0, 80, 77
1, 27360, Note_on_c, 1, 60, 63
1, 27390, Note_on_c, 0, 80, 0
1, 27390, Note_on_c, 1, 60, 0
1, 27392, Note_on_c, 0, 84, 77
1, 27392, Note_on_c, 1, 63, 63
1, 27422, Note_on_c, 0, 84, 0
1, 27422, Note_on_c, 1, 63, 0
1, 27424, Note_on_c, 0, 87, 77
1, 27424, Note_on_c, 1, 68, 63
1, 27454, Note_on_c, 0, 87, 0
1, 27454, Note_on_c, 1, 68, 0
1, 27456, Note_on_c, 0, 78, 93
1, 27456, Note_on_c, 1, 60, 63
1, 27486, Note_on_c, 1, 60, 0
1, 27488, Note_on_c, 1, 63, 63
1, 27518, Note_on_c, 1, 63, 0
1, 27520, Note_on_c, 1, 68, 63
1, 27550, Note_on_c, 1, 68, 0
1, 27552, Note_on_c, 1, 60, 63
1, 27582, Note_on_c, 1, 60, 0
1, 27584, Note_on_c, 1, 63, 63
1, 27614, Note_on_c, 1, 63, 0
1, 27616, Note_on_c, 1, 68, 63
1, 27646, Note_on_c, 1, 68, 0
1, 27648, Note_on_c, 0, 78, 0
1, 27648, Note_on_c, 0, 77, 77
1, 27648, Note_on_c, 1, 61, 63
1, 27678, Note_on_c, 1, 61, 0
1, 27680, Note_on_c, 1, 65, 63
1, 27710, Note_on_c, 1, 65, 0
1, 27712, Note_on_c, 1, 68, 63
1, 27737, Note_on_c, 0, 77, 0
1, 27742, Note_on_c, 1, 68, 0
1, 27744, Note_on_c, 0, 77, 77
1, 27744, Note_on_c, 1, 61, 63
1, 27774, Note_on_c, 0, 77, 0
1, 27774, Note_on_c, 1, 61, 0
1, 27776, Note_on_c, 0, 82, 77
1, 27776, Note_on_c, 1, 65, 63
1, 27806, Note_on_c, 0, 82, 0
1, 27806, Note_on_c, 1, 65, 0
1, 27808, Note_on_c, 0, 85, 77
1, 27808, Note_on_c, 1, 68, 63
1, 27838, Note_on_c, 0, 85, 0
1, 27838, Note_on_c, 1, 68, 0
1, 27840, Note_on_c, 0, 75, 93
1, 27840, Note_on_c, 1, 61, 63
1, 27870, Note_on_c, 1, 61, 0
1, 27872, Note_on_c, 1, 63, 63
1, 27902, Note_on_c, 1, 63, 0
1, 27904, Note_on_c, 1, 67, 63
1, 27934, Note_on_c, 1, 67, 0
1, 27936, Note_on_c, 1, 61, 63
1, 27966, Note_on_c, 1, 61, 0
1, 27968, Note_on_c, 1, 63, 63
1, 27984, Note_on_c, 0, 75, 0
1, 27984, Note_on_c, 0, 77, 77
1, 27998, Note_on_c, 1, 63, 0
1, 28000, Note_on_c, 1, 67, 63
1, 28007, Note_on_c, 0, 77, 0
1, 28008, Note_on_c, 0, 79, 77
1, 28030, Note_on_c, 1, 67, 0
1, 28031, Note_on_c, 0, 79, 0
1, 28032, Note_on_c, 0, 80, 77
1, 28032, Note_on_c, 1, 60, 63
1, 28062, Note_on_c, 1, 60, 0
1, 28064, Note_on_c, 1, 63, 63
1, 28094, Note_on_c, 1, 63, 0
1, 28096, Note_on_c, 1, 68, 63
1, 28121, Note_on_c, 0, 80, 0
1, 28126, Note_on_c, 1, 68, 0
1, 28128, Note_on_c, 0, 80, 77
1, 28128, Note_on_c, 1, 60, 63
1, 28158, Note_on_c, 0, 80, 0
1, 28158, Note_on_c, 1, 60, 0
1, 28160, Note_on_c, 0, 82, 77
1, 28160, Note_on_c, 1, 63, 63
1, 28190, Note_on_c, 0, 82, 0
1, 28190, Note_on_c, 1, 63, 0
1, 28192, Note_on_c, 0, 84, 77
1, 28192, Note_on_c, 1, 68, 63
1, 28222, Note_on_c, 0, 84, 0
1, 28222, Note_on_c, 1, 68, 0
1, 28224, Note_on_c, 0, 73, 93
1, 28224, Note_on_c, 1, 58, 63
1, 28254, Note_on_c, 1, 58, 0
1, 28256, Note_on_c, 1, 61, 63
1, 28286, Note_on_c, 1, 61, 0
1, 28288, Note_on_c, 1, 67, 63
1, 28318, Note_on_c, 1, 67, 0
1, 28320, Note_on_c, 1, 58, 63
1, 28350, Note_on_c, 1, 58, 0
1, 28352, Note_on_c, 1, 61, 63
1, 28382, Note_on_c, 1, 61, 0
1, 28384, Note_on_c, 1, 67, 63
1, 28414, Note_on_c, 1, 67, 0
1, 28416, Note_on_c, 0, 73, 0
1, 28416, Note_on_c, 0, 72, 77
1, 28416, Note_on_c, 1, 56, 63
1, 28446, Note_on_c, 0, 72, 0
1, 28448, Note_on_c, 0, 75, 77
1, 28478, Note_on_c, 0, 75, 0
1, 28480, Note_on_c, 0, 73, 77
1, 28505, Note_on_c, 1, 56, 0
1, 28510, Note_on_c, 0, 73, 0
1, 28512, Note_on_c, 0, 72, 77
1, 28542, Note_on_c, 0, 72, 0
1, 28544, Note_on_c, 0, 84, 77
1, 28574, Note_on_c, 0, 84, 0
1, 28576, Note_on_c, 0, 82, 77
1, 28606, Note_on_c, 0, 82, 0
1, 28608, Note_on_c, 0, 80, 77
1, 28638, Note_on_c, 0, 80, 0
1, 28640, Note_on_c, 0, 79, 77
1, 28670, Note_on_c, 0, 79, 0
1, 28672, Note_on_c, 0, 77, 77
1, 28702, Note_on_c, 0, 77, 0
1, 28704, Note_on_c, 0, 75, 77
1, 28734, Note_on_c, 0, 75, 0
1, 28736, Note_on_c, 0, 73, 77
1, 28766, Note_on_c, 0, 73, 0
1, 28768, Note_on_c, 0, 72, 77
1, 28798, Note_on_c, 0, 72, 0
1, 28800, Note_on_c, 0, 75, 77
1, 28872, Note_on_c, 0, 75, 0
1, 28872, Note_on_c, 0, 72, 77
1, 28895, Note_on_c, 0, 72, 0
1, 28896, Note_on_c, 0, 70, 77
1, 28896, Note_on_c, 1, 67, 63
1, 28896, Note_on_c, 1, 63, 63
1, 28935, Note_on_c, 0, 70, 0
1, 28985, Note_on_c, 1, 67, 0
1, 28985, Note_on_c, 1, 63, 0
1, 29088, Note_on_c, 0, 70, 77
1, 29155, Note_on_c, 0, 70, 0
1, 29160, Note_on_c, 0, 67, 77
1, 29183, Note_on_c, 0, 67, 0
1, 29184, Note_on_c, 0, 75, 70
1, 29184, Note_on_c, 1, 51, 77
1, 29251, Note_on_c, 0, 75, 0
1, 29256, Note_on_c, 0, 75, 70
1, 29273, Note_on_c, 1, 51, 0
1, 29279, Note_on_c, 0, 75, 0
1, 29280, Note_on_c, 0, 77, 70
1, 29280, Note_on_c, 1, 55, 77
1, 29292, Note_on_c, 0, 77, 0
1, 29292, Note_on_c, 0, 75, 71
1, 29304, Note_on_c, 0, 75, 0
1, 29304, Note_on_c, 0, 77, 71
1, 29316, Note_on_c, 0, 77, 0
1, 29316, Note_on_c, 0, 75, 71
1, 29328, Note_on_c, 0, 75, 0
1, 29328, Note_on_c, 0, 74, 71
1, 29352, Note_on_c, 0, 74, 0
1, 29352, Note_on_c, 0, 75, 71
1, 29369, Note_on_c, 1, 55, 0
1, 29376, Note_on_c, 0, 75, 0
1, 29376, Note_on_c, 0, 77, 71
1, 29376, Note_on_c, 1, 50, 77
1, 29396, Note_on_c, 0, 77, 0
1, 29465, Note_on_c, 1, 50, 0
1, 29472, Note_on_c, 0, 74, 72
1, 29539, Note_on_c, 0, 74, 0
1, 29544, Note_on_c, 0, 70, 73
1, 29567, Note_on_c, 0, 70, 0
1, 29568, Note_on_c, 0, 77, 73
1, 29568, Note_on_c, 1, 50, 77
1, 29635, Note_on_c, 0, 77, 0
1, 29640, Note_on_c, 0, 77, 74
1, 29657, Note_on_c, 1, 50, 0
1, 29663, Note_on_c, 0, 77, 0
1, 29664, Note_on_c, 0, 79, 74
1, 29664, Note_on_c, 1, 58, 77
1, 29676, Note_on_c, 0, 79, 0
1, 29676, Note_on_c, 0, 77, 74
1, 29688, Note_on_c, 0, 77, 0
1, 29688, Note_on_c, 0, 79, 74
1, 29700, Note_on_c, 0, 79, 0
1, 29700, Note_on_c, 0, 77, 75
1, 29712, Note_on_c, 0, 77, 0
1, 29712, Note_on_c, 0, 75, 75
1, 29736, Note_on_c, 0, 75, 0
1, 29736, Note_on_c, 0, 77, 75
1, 29753, Note_on_c, 1, 58, 0
1, 29760, Note_on_c, 0, 77, 0
1, 29760, Note_on_c, 0, 79, 75
1, 29760, Note_on_c, 1, 51, 77
1, 29789, Note_on_c, 0, 79, 0
1, 29832, Note_on_c, 0, 79, 76
1, 29849, Note_on_c, 1, 51, 0
1, 29855, Note_on_c, 0, 79, 0
1, 29856, Note_on_c, 0, 80, 76
1, 29856, Note_on_c, 1, 58, 77
1, 29868, Note_on_c, 0, 80, 0
1, 29868, Note_on_c, 0, 79, 76
1, 29880, Note_on_c, 0, 79, 0
1, 29880, Note_on_c, 0, 80, 76
1, 29892, Note_on_c, 0, 80, 0
1, 29892, Note_on_c, 0, 79, 76
1, 29904, Note_on_c, 0, 79, 0
1, 29904, Note_on_c, 0, 77, 77
1, 29928, Note_on_c, 0, 77, 0
1, 29928, Note_on_c, 0, 79, 77
1, 29945, Note_on_c, 1, 58, 0
1, 29952, Note_on_c, 0, 79, 0
1, 29952, Note_on_c, 0, 80, 77
1, 29952, Note_on_c, 1, 53, 77
1, 29981, Note_on_c, 0, 80, 0
1, 30024, Note_on_c, 0, 80, 78
1, 30041, Note_on_c, 1, 53, 0
1, 30047, Note_on_c, 0, 80, 0
1, 30048, Note_on_c, 0, 82, 78
1, 30048, Note_on_c, 1, 62, 77
1, 30060, Note_on_c, 0, 82, 0
1, 30060, Note_on_c, 0, 80, 78
1, 30072, Note_on_c, 0, 80, 0
1, 30072, Note_on_c, 0, 82, 78
1, 30084, Note_on_c, 0, 82, 0
1, 30084, Note_on_c, 0, 80, 78
1, 30096, Note_on_c, 0, 80, 0
1, 30096, Note_on_c, 0, 79, 78
1, 30120, Note_on_c, 0, 79, 0
1, 30120, Note_on_c, 0, 80, 79
1, 30137, Note_on_c, 1, 62, 0
1, 30144, Note_on_c, 0, 80, 0
1, 30144, Note_on_c, 0, 82, 79
1, 30144, Note_on_c, 1, 55, 77
1, 30173, Note_on_c, 0, 82, 0
1, 30216, Note_on_c, 0, 82, 80
1, 30233, Note_on_c, 1, 55, 0
1, 30239, Note_on_c, 0, 82, 0
1, 30240, Note_on_c, 0, 84, 80
1, 30240, Note_on_c, 1, 63, 77
1, 30252, Note_on_c, 0, 84, 0
1, 30252, Note_on_c, 0, 82, 80
1, 30264, Note_on_c, 0, 82, 0
1, 30264, Note_on_c, 0, 84, 80
1, 30276, Note_on_c, 0, 84, 0
1, 30276, Note_on_c, 0, 82, 80
1, 30288, Note_on_c, 0, 82, 0
1, 30288, Note_on_c, 0, 80, 80
1, 30312, Note_on_c, 0, 80, 0
1, 30312, Note_on_c, 0, 82, 80
1, 30329, Note_on_c, 1, 63, 0
1, 30336, Note_on_c, 0, 82, 0
1, 30336, Note_on_c, 0, 84, 81
1, 30336, Note_on_c, 1, 56, 77
1, 30366, Note_on_c, 1, 56, 0
1, 30368, Note_on_c, 1, 60, 77
1, 30398, Note_on_c, 1, 60, 0
1, 30400, Note_on_c, 1, 63, 77
1, 30430, Note_on_c, 1, 63, 0
1, 30432, Note_on_c, 1, 56, 77
1, 30462, Note_on_c, 1, 56, 0
1, 30464, Note_on_c, 1, 60, 77
1, 30494, Note_on_c, 1, 60, 0
1, 30496, Note_on_c, 1, 63, 77
1, 30526, Note_on_c, 1, 63, 0
1, 30528, Note_on_c, 1, 56, 77
1, 30558, Note_on_c, 1, 56, 0
1, 30560, Note_on_c, 1, 60, 77
1, 30590, Note_on_c, 1, 60, 0
1, 30592, Note_on_c, 1, 63, 77
1, 30601, Note_on_c, 0, 84, 0
1, 30622, Note_on_c, 1, 63, 0
1, 30624, Note_on_c, 0, 76, 84
1, 30624, Note_on_c, 1, 55, 77
1, 30654, Note_on_c, 1, 55, 0
1, 30656, Note_on_c, 1, 58, 77
1, 30686, Note_on_c, 1, 58, 0
1, 30688, Note_on_c, 1, 61, 77
1, 30718, Note_on_c, 1, 61, 0
1, 30720, Note_on_c, 0, 76, 0
1, 30720, Note_on_c, 0, 77, 84
1, 30720, Note_on_c, 1, 56, 77
1, 30750, Note_on_c, 0, 77, 0
1, 30752, Note_on_c, 0, 80, 84
1, 30782, Note_on_c, 0, 80, 0
1, 30784, Note_on_c, 0, 79, 84
1, 30809, Note_on_c, 1, 56, 0
1, 30814, Note_on_c, 0, 79, 0
1, 30816, Note_on_c, 0, 77, 84
1, 30846, Note_on_c, 0, 77, 0
1, 30848, Note_on_c, 0, 84, 84
1, 30878, Note_on_c, 0, 84, 0
1, 30880, Note_on_c, 0, 82, 84
1, 30910, Note_on_c, 0, 82, 0
1, 30912, Note_on_c, 0, 80, 84
1, 30942, Note_on_c, 0, 80, 0
1, 30944, Note_on_c, 0, 79, 84
1, 30974, Note_on_c, 0, 79, 0
1, 30976, Note_on_c, 0, 77, 84
1, 31006, Note_on_c, 0, 77, 0
1, 31008, Note_on_c, 0, 75, 84
1, 31038, Note_on_c, 0, 75, 0
1, 31040, Note_on_c, 0, 74, 84
1, 31070, Note_on_c, 0, 74, 0
1, 31072, Note_on_c, 0, 72, 84
1, 31102, Note_on_c, 0, 72, 0
1, 31104, Note_on_c, 0, 82, 84
1, 31104, Note_on_c, 1, 55, 77
1, 31134, Note_on_c, 1, 55, 0
1, 31136, Note_on_c, 1, 58, 77
1, 31166, Note_on_c, 1, 58, 0
1, 31168, Note_on_c, 1, 63, 77
1, 31198, Note_on_c, 1, 63, 0
1, 31200, Note_on_c, 1, 55, 77
1, 31230, Note_on_c, 1, 55, 0
1, 31232, Note_on_c, 1, 58, 77
1, 31262, Note_on_c, 1, 58, 0
1, 31264, Note_on_c, 1, 63, 77
1, 31294, Note_on_c, 1, 63, 0
1, 31296, Note_on_c, 1, 55, 77
1, 31326, Note_on_c, 1, 55, 0
1, 31328, Note_on_c, 1, 58, 77
1, 31358, Note_on_c, 1, 58, 0
1, 31360, Note_on_c, 1, 63, 77
1, 31369, Note_on_c, 0, 82, 0
1, 31390, Note_on_c, 1, 63, 0
1, 31392, Note_on_c, 0, 74, 84
1, 31392, Note_on_c, 1, 53, 77
1, 31422, Note_on_c, 1, 53, 0
1, 31424, Note_on_c, 1, 56, 77
1, 31454, Note_on_c, 1, 56, 0
1, 31456, Note_on_c, 1, 59, 77
1, 31486, Note_on_c, 1, 59, 0
1, 31488, Note_on_c, 0, 74, 0
1, 31488, Note_on_c, 0, 75, 84
1, 31488, Note_on_c, 1, 55, 77
1, 31518, Note_on_c, 0, 75, 0
1, 31520, Note_on_c, 0, 79, 84
1, 31550, Note_on_c, 0, 79, 0
1, 31552, Note_on_c, 0, 77, 84
1, 31577, Note_on_c, 1, 55, 0
1, 31582, Note_on_c, 0, 77, 0
1, 31584, Note_on_c, 0, 75, 84
1, 31614, Note_on_c, 0, 75, 0
1, 31616, Note_on_c, 0, 82, 83
1, 31646, Note_on_c, 0, 82, 0
1, 31648, Note_on_c, 0, 80, 83
1, 31678, Note_on_c, 0, 80, 0
1, 31680, Note_on_c, 0, 79, 82
1, 31710, Note_on_c, 0, 79, 0
1, 31712, Note_on_c, 0, 77, 82
1, 31742, Note_on_c, 0, 77, 0
1, 31744, Note_on_c, 0, 75, 82
1, 31774, Note_on_c, 0, 75, 0
1, 31776, Note_on_c, 0, 74, 81
1, 31806, Note_on_c, 0, 74, 0
1, 31808, Note_on_c, 0, 72, 81
1, 31838, Note_on_c, 0, 72, 0
1, 31840, Note_on_c, 0, 70, 81
1, 31870, Note_on_c, 0, 70, 0
1, 31872, Note_on_c, 0, 80, 80
1, 31872, Note_on_c, 1, 58, 63
1, 31902, Note_on_c, 1, 58, 0
1, 31904, Note_on_c, 1, 62, 63
1, 31934, Note_on_c, 1, 62, 0
1, 31936, Note_on_c, 1, 65, 63
1, 31966, Note_on_c, 1, 65, 0
1, 31968, Note_on_c, 1, 58, 63
1, 31998, Note_on_c, 1, 58, 0
1, 32000, Note_on_c, 1, 62, 63
1, 32030, Note_on_c, 1, 62, 0
1, 32032, Note_on_c, 1, 65, 63
1, 32062, Note_on_c, 1, 65, 0
1, 32064, Note_on_c, 1, 58, 63
1, 32094, Note_on_c, 1, 58, 0
1, 32096, Note_on_c, 1, 62, 63
1, 32126, Note_on_c, 1, 62, 0
1, 32128, Note_on_c, 1, 65, 63
1, 32137, Note_on_c, 0, 80, 0
1, 32158, Note_on_c, 1, 65, 0
1, 32160, Note_on_c, 0, 79, 77
1, 32160, Note_on_c, 1, 58, 63
1, 32190, Note_on_c, 0, 79, 0
1, 32190, Note_on_c, 1, 58, 0
1, 32192, Note_on_c, 0, 77, 77
1, 32192, Note_on_c, 1, 63, 63
1, 32222, Note_on_c, 0, 77, 0
1, 32222, Note_on_c, 1, 63, 0
1, 32224, Note_on_c, 0, 75, 77
1, 32224, Note_on_c, 1, 67, 63
1, 32254, Note_on_c, 0, 75, 0
1, 32254, Note_on_c, 1, 67, 0
1, 32256, Note_on_c, 0, 75, 77
1, 32256, Note_on_c, 1, 58, 63
1, 32286, Note_on_c, 1, 58, 0
1, 32288, Note_on_c, 1, 65, 63
1, 32304, Note_on_c, 0, 75, 0
1, 32304, Note_on_c, 0, 74, 77
1, 32318, Note_on_c, 1, 65, 0
1, 32320, Note_on_c, 1, 68, 63
1, 32349, Note_on_c, 0, 74, 0
1, 32350, Note_on_c, 1, 68, 0
1, 32352, Note_on_c, 0, 74, 93
1, 32352, Note_on_c, 1, 58, 63
1, 32382, Note_on_c, 1, 58, 0
1, 32384, Note_on_c, 1, 65, 63
1, 32414, Note_on_c, 1, 65, 0
1, 32416, Note_on_c, 1, 68, 63
1, 32446, Note_on_c, 1, 68, 0
1, 32448, Note_on_c, 1, 58, 63
1, 32478, Note_on_c, 1, 58, 0
1, 32480, Note_on_c, 1, 65, 63
1, 32510, Note_on_c, 1, 65, 0
1, 32512, Note_on_c, 1, 68, 63
1, 32542, Note_on_c, 1, 68, 0
1, 32544, Note_on_c, 0, 74, 0
1, 32544, Note_on_c, 0, 75, 77
1, 32544, Note_on_c, 1, 58, 63
1, 32574, Note_on_c, 1, 58, 0
1, 32576, Note_on_c, 1, 63, 63
1, 32606, Note_on_c, 1, 63, 0
1, 32608, Note_on_c, 1, 67, 63
1, 32633, Note_on_c, 0, 75, 0
1, 32638, Note_on_c, 1, 67, 0
1, 32640, Note_on_c, 0, 77, 77
1, 32640, Note_on_c, 1, 58, 63
1, 32670, Note_on_c, 0, 77, 0
1, 32670, Note_on_c, 1, 58, 0
1, 32672, Note_on_c, 0, 79, 77
1, 32672, Note_on_c, 1, 62, 63
1, 32702, Note_on_c, 0, 79, 0
1, 32702, Note_on_c, 1, 62, 0
1, 32704, Note_on_c, 0, 80, 77
1, 32704, Note_on_c, 1, 65, 63
1, 32734, Note_on_c, 0, 80, 0
1, 32734, Note_on_c, 1, 65, 0
1, 32736, Note_on_c, 0, 80, 93
1, 32736, Note_on_c, 1, 58, 63
1, 32766, Note_on_c, 1, 58, 0
1, 32768, Note_on_c, 1, 62, 63
1, 32798, Note_on_c, 1, 62, 0
1, 32800, Note_on_c, 1, 65, 63
1, 32830, Note_on_c, 1, 65, 0
1, 32832, Note_on_c, 1, 58, 63
1, 32862, Note_on_c, 1, 58, 0
1, 32864, Note_on_c, 1, 62, 63
1, 32894, Note_on_c, 1, 62, 0
1, 32896, Note_on_c, 1, 65, 63
1, 32926, Note_on_c, 1, 65, 0
1, 32928, Note_on_c, 0, 80, 0
1, 32928, Note_on_c, 0, 79, 77
1, 32928, Note_on_c, 1, 58, 63
1, 32958, Note_on_c, 0, 79, 0
1, 32958, Note_on_c, 1, 58, 0
1, 32960, Note_on_c, 0, 77, 77
1, 32960, Note_on_c, 1, 63, 63
1, 32990, Note_on_c, 0, 77, 0
1, 32990, Note_on_c, 1, 63, 0
1, 32992, Note_on_c, 0, 75, 77
1, 32992, Note_on_c, 1, 67, 63
1, 33022, Note_on_c, 0, 75, 0
1, 33022, Note_on_c, 1, 67, 0
1, 33024, Note_on_c, 0, 75, 77
1, 33024, Note_on_c, 1, 58, 63
1, 33054, Note_on_c, 1, 58, 0
1, 33056, Note_on_c, 1, 65, 63
1, 33072, Note_on_c, 0, 75, 0
1, 33072, Note_on_c, 0, 74, 77
1, 33086, Note_on_c, 1, 65, 0
1, 33088, Note_on_c, 1, 68, 63
1, 33117, Note_on_c, 0, 74, 0
1, 33118, Note_on_c, 1, 68, 0
1, 33120, Note_on_c, 0, 74, 93
1, 33120, Note_on_c, 1, 58, 63
1, 33150, Note_on_c, 1, 58, 0
1, 33152, Note_on_c, 1, 65, 63
1, 33182, Note_on_c, 1, 65, 0
1, 33184, Note_on_c, 1, 68, 63
1, 33214, Note_on_c, 1, 68, 0
1, 33216, Note_on_c, 1, 58, 63
1, 33246, Note_on_c, 1, 58, 0
1, 33248, Note_on_c, 1, 65, 63
1, 33278, Note_on_c, 1, 65, 0
1, 33280, Note_on_c, 1, 68, 63
1, 33310, Note_on_c, 1, 68, 0
1, 33312, Note_on_c, 0, 74, 0
1, 33312, Note_on_c, 0, 75, 77
1, 33312, Note_on_c, 1, 58, 63
1, 33342, Note_on_c, 1, 58, 0
1, 33344, Note_on_c, 1, 63, 63
1, 33374, Note_on_c, 1, 63, 0
1, 33376, Note_on_c, 1, 67, 63
1, 33401, Note_on_c, 0, 75, 0
1, 33406, Note_on_c, 1, 67, 0
1, 33408, Note_on_c, 0, 77, 77
1, 33408, Note_on_c, 1, 58, 63
1, 33438, Note_on_c, 0, 77, 0
1, 33438, Note_on_c, 1, 58, 0
1, 33440, Note_on_c, 0, 79, 77
1, 33440, Note_on_c, 1, 62, 64
1, 33470, Note_on_c, 0, 79, 0
1, 33470, Note_on_c, 1, 62, 0
1, 33472, Note_on_c, 0, 80, 78
1, 33472, Note_on_c, 1, 65, 65
1, 33502, Note_on_c, 0, 80, 0
1, 33502, Note_on_c, 1, 65, 0
1, 33504, Note_on_c, 0, 80, 94
1, 33504, Note_on_c, 1, 58, 66
1, 33534, Note_on_c, 1, 58, 0
1, 33536, Note_on_c, 1, 62, 68
1, 33566, Note_on_c, 1, 62, 0
1, 33568, Note_on_c, 1, 65, 69
1, 33598, Note_on_c, 1, 65, 0
1, 33600, Note_on_c, 1, 59, 70
1, 33630, Note_on_c, 1, 59, 0
1, 33632, Note_on_c, 1, 62, 72
1, 33662, Note_on_c, 1, 62, 0
1, 33664, Note_on_c, 1, 65, 73
1, 33694, Note_on_c, 1, 65, 0
1, 33696, Note_on_c, 0, 80, 0
1, 33696, Note_on_c, 0, 79, 81
1, 33696, Note_on_c, 1, 60, 74
1, 33726, Note_on_c, 1, 60, 0
1, 33728, Note_on_c, 1, 62, 76
1, 33758, Note_on_c, 1, 62, 0
1, 33760, Note_on_c, 1, 63, 77
1, 33785, Note_on_c, 0, 79, 0
1, 33790, Note_on_c, 1, 63, 0
1, 33792, Note_on_c, 0, 77, 83
1, 33792, Note_on_c, 1, 56, 78
1, 33822, Note_on_c, 0, 77, 0
1, 33824, Note_on_c, 0, 84, 84
1, 33854, Note_on_c, 0, 84, 0
1, 33856, Note_on_c, 0, 82, 84
1, 33881, Note_on_c, 1, 56, 0
1, 33886, Note_on_c, 0, 82, 0
1, 33888, Note_on_c, 0, 80, 84
1, 33918, Note_on_c, 0, 80, 0
1, 33920, Note_on_c, 0, 79, 84
1, 33950, Note_on_c, 0, 79, 0
1, 33952, Note_on_c, 0, 77, 84
1, 33982, Note_on_c, 0, 77, 0
1, 33984, Note_on_c, 0, 75, 84
1, 33984, Note_on_c, 1, 67, 84
1, 33984, Note_on_c, 1, 58, 77
1, 34073, Note_on_c, 1, 67, 0
1, 34080, Note_on_c, 0, 75, 0
1, 34080, Note_on_c, 0, 74, 79
1, 34080, Note_on_c, 1, 68, 79
1, 34161, Note_on_c, 1, 58, 0
1, 34169, Note_on_c, 0, 74, 0
1, 34169, Note_on_c, 1, 68, 0
1, 34176, Note_on_c, 0, 74, 75
1, 34176, Note_on_c, 1, 68, 75
1, 34176, Note_on_c, 1, 60, 71
1, 34309, Note_on_c, 0, 74, 0
1, 34320, Note_on_c, 0, 75, 69
1, 34343, Note_on_c, 0, 75, 0
1, 34344, Note_on_c, 0, 77, 68
1, 34367, Note_on_c, 0, 77, 0
1, 34368, Note_on_c, 0, 75, 67
1, 34368, Note_on_c, 1, 68, 0
1, 34368, Note_on_c, 1, 67, 67
1, 34457, Note_on_c, 0, 75, 0
1, 34457, Note_on_c, 1, 67, 0
1, 34457, Note_on_c, 1, 60, 0
1, 34560, Note_on_c, 0, 56, 100
1, 34656, Note_on_c, 1, 51, 77
1, 34656, Note_on_c, 1, 48, 77
1, 34745, Note_on_c, 1, 51, 0
1, 34745, Note_on_c, 1, 48, 0
1, 34752, Note_on_c, 1, 51, 77
1, 34752, Note_on_c, 1, 48, 77
1, 34782, Note_on_c, 0, 56, 0
1, 34784, Note_on_c, 0, 60, 84
1, 34814, Note_on_c, 0, 60, 0
1, 34816, Note_on_c, 0, 58, 84
1, 34841, Note_on_c, 1, 51, 0
1, 34841, Note_on_c, 1, 48, 0
1, 34846, Note_on_c, 0, 58, 0
1, 34848, Note_on_c, 0, 56, 84
1, 34848, Note_on_c, 1, 51, 77
1, 34848, Note_on_c, 1, 48, 77
1, 34861, Note_on_c, 0, 56, 0
1, 34880, Note_on_c, 0, 56, 84
1, 34893, Note_on_c, 0, 56, 0
1, 34912, Note_on_c, 0, 56, 84
1, 34925, Note_on_c, 0, 56, 0
1, 34937, Note_on_c, 1, 51, 0
1, 34937, Note_on_c, 1, 48, 0
1, 34944, Note_on_c, 0, 56, 100
1, 35040, Note_on_c, 1, 53, 77
1, 35040, Note_on_c, 1, 50, 77
1, 35040, Note_on_c, 1, 46, 77
1, 35129, Note_on_c, 1, 53, 0
1, 35129, Note_on_c, 1, 50, 0
1, 35129, Note_on_c, 1, 46, 0
1, 35136, Note_on_c, 1, 53, 77
1, 35136, Note_on_c, 1, 50, 77
1, 35136, Note_on_c, 1, 46, 77
1, 35166, Note_on_c, 0, 56, 0
1, 35168, Note_on_c, 0, 65, 84
1, 35198, Note_on_c, 0, 65, 0
1, 35200, Note_on_c, 0, 62, 84
1, 35225, Note_on_c, 1, 53, 0
1, 35225, Note_on_c, 1, 50, 0
1, 35225, Note_on_c, 1, 46, 0
1, 35230, Note_on_c, 0, 62, 0
1, 35232, Note_on_c, 0, 56, 84
1, 35232, Note_on_c, 1, 53, 77
1, 35232, Note_on_c, 1, 50, 77
1, 35232, Note_on_c, 1, 46, 77
1, 35245, Note_on_c, 0, 56, 0
1, 35264, Note_on_c, 0, 56, 84
1, 35277, Note_on_c, 0, 56, 0
1, 35296, Note_on_c, 0, 56, 84
1, 35309, Note_on_c, 0, 56, 0
1, 35321, Note_on_c, 1, 53, 0
1, 35321, Note_on_c, 1, 50, 0
1, 35321, Note_on_c, 1, 46, 0
1, 35328, Note_on_c, 0, 55, 84
1, 35328, Note_on_c, 1, 51, 84
1, 35358, Note_on_c, 0, 55, 0
1, 35360, Note_on_c, 0, 58, 84
1, 35390, Note_on_c, 0, 58, 0
1, 35392, Note_on_c, 0, 63, 84
1, 35405, Note_on_c, 0, 63, 0
1, 35417, Note_on_c, 1, 51, 0
1, 35424, Note_on_c, 0, 63, 84
1, 35437, Note_on_c, 0, 63, 0
1, 35456, Note_on_c, 0, 63, 84
1, 35469, Note_on_c, 0, 63, 0
1, 35488, Note_on_c, 0, 63, 84
1, 35501, Note_on_c, 0, 63, 0
1, 35520, Note_on_c, 0, 62, 84
1, 35520, Note_on_c, 1, 53, 84
1, 35520, Note_on_c, 1, 46, 84
1, 35550, Note_on_c, 0, 62, 0
1, 35552, Note_on_c, 0, 65, 84
1, 35582, Note_on_c, 0, 65, 0
1, 35584, Note_on_c, 0, 68, 84
1, 35609, Note_on_c, 1, 53, 0
1, 35609, Note_on_c, 1, 46, 0
1, 35614, Note_on_c, 0, 68, 0
1, 35616, Note_on_c, 0, 68, 84
1, 35629, Note_on_c, 0, 68, 0
1, 35648, Note_on_c, 0, 68, 84
1, 35661, Note_on_c, 0, 68, 0
1, 35680, Note_on_c, 0, 68, 84
1, 35693, Note_on_c, 0, 68, 0
1, 35712, Note_on_c, 0, 67, 84
1, 35712, Note_on_c, 1, 55, 84
1, 35712, Note_on_c, 1, 51, 84
1, 35742, Note_on_c, 0, 67, 0
1, 35744, Note_on_c, 0, 70, 84
1, 35774, Note_on_c, 0, 70, 0
1, 35776, Note_on_c, 0, 75, 84
1, 35789, Note_on_c, 0, 75, 0
1, 35801, Note_on_c, 1, 55, 0
1, 35801, Note_on_c, 1, 51, 0
1, 35808, Note_on_c, 0, 75, 84
1, 35821, Note_on_c, 0, 75, 0
1, 35840, Note_on_c, 0, 75, 84
1, 35853, Note_on_c, 0, 75, 0
1, 35872, Note_on_c, 0, 75, 84
1, 35885, Note_on_c, 0, 75, 0
1, 35904, Note_on_c, 0, 74, 84
1, 35904, Note_on_c, 1, 53, 84
1, 35904, Note_on_c, 1, 46, 84
1, 35934, Note_on_c, 0, 74, 0
1, 35936, Note_on_c, 0, 77, 84
1, 35966, Note_on_c, 0, 77, 0
1, 35968, Note_on_c, 0, 80, 84
1, 35993, Note_on_c, 1, 53, 0
1, 35993, Note_on_c, 1, 46, 0
1, 35998, Note_on_c, 0, 80, 0
1, 36000, Note_on_c, 0, 80, 84
1, 36013, Note_on_c, 0, 80, 0
1, 36032, Note_on_c, 0, 80, 84
1, 36045, Note_on_c, 0, 80, 0
1, 36064, Note_on_c, 0, 80, 84
1, 36077, Note_on_c, 0, 80, 0
1, 36096, Note_on_c, 0, 79, 84
1, 36096, Note_on_c, 1, 55, 84
1, 36096, Note_on_c, 1, 51, 84
1, 36126, Note_on_c, 0, 79, 0
1, 36128, Note_on_c, 0, 80, 84
1, 36158, Note_on_c, 0, 80, 0
1, 36160, Note_on_c, 0, 82, 84
1, 36185, Note_on_c, 1, 55, 0
1, 36185, Note_on_c, 1, 51, 0
1, 36190, Note_on_c, 0, 82, 0
1, 36192, Note_on_c, 0, 80, 84
1, 36222, Note_on_c, 0, 80, 0
1, 36224, Note_on_c, 0, 79, 84
1, 36254, Note_on_c, 0, 79, 0
1, 36256, Note_on_c, 0, 77, 84
1, 36286, Note_on_c, 0, 77, 0
1, 36288, Note_on_c, 0, 75, 84
1, 36318, Note_on_c, 0, 75, 0
1, 36320, Note_on_c, 0, 74, 84
1, 36350, Note_on_c, 0, 74, 0
1, 36352, Note_on_c, 0, 72, 84
1, 36382, Note_on_c, 0, 72, 0
1, 36384, Note_on_c, 0, 70, 84
1, 36414, Note_on_c, 0, 70, 0
1, 36416, Note_on_c, 0, 68, 84
1, 36446, Note_on_c, 0, 68, 0
1, 36448, Note_on_c, 0, 67, 84
1, 36478, Note_on_c, 0, 67, 0
1, 36480, Note_on_c, 0, 65, 84
1, 36576, Note_on_c, 1, 56, 84
1, 36576, Note_on_c, 1, 44, 84
1, 36613, Note_on_c, 0, 65, 0
1, 36624, Note_on_c, 0, 72, 84
1, 36665, Note_on_c, 1, 56, 0
1, 36665, Note_on_c, 1, 44, 0
1, 36669, Note_on_c, 0, 72, 0
1, 36672, Note_on_c, 0, 63, 84
1, 36672, Note_on_c, 1, 55, 84
1, 36672, Note_on_c, 1, 46, 84
1, 36761, Note_on_c, 0, 63, 0
1, 36761, Note_on_c, 1, 55, 0
1, 36761, Note_on_c, 1, 46, 0
1, 36768, Note_on_c, 0, 62, 84
1, 36768, Note_on_c, 1, 53, 84
1, 36768, Note_on_c, 1, 46, 84
1, 36857, Note_on_c, 0, 62, 0
1, 36857, Note_on_c, 1, 53, 0
1, 36857, Note_on_c, 1, 46, 0
1, 36864, Note_on_c, 0, 75, 100
1, 36864, Note_on_c, 1, 63, 84
1, 36894, Note_on_c, 1, 63, 0
1, 36896, Note_on_c, 1, 67, 84
1, 36926, Note_on_c, 1, 67, 0
1, 36928, Note_on_c, 1, 65, 84
1, 36958, Note_on_c, 1, 65, 0
1, 36960, Note_on_c, 1, 63, 84
1, 36990, Note_on_c, 1, 63, 0
1, 36992, Note_on_c, 1, 62, 84
1, 37022, Note_on_c, 1, 62, 0
1, 37024, Note_on_c, 1, 60, 84
1, 37054, Note_on_c, 1, 60, 0
1, 37056, Note_on_c, 1, 58, 84
1, 37086, Note_on_c, 1, 58, 0
1, 37088, Note_on_c, 1, 56, 84
1, 37118, Note_on_c, 1, 56, 0
1, 37120, Note_on_c, 1, 55, 84
1, 37150, Note_on_c, 1, 55, 0
1, 37152, Note_on_c, 0, 75, 0
1, 37152, Note_on_c, 0, 77, 84
1, 37152, Note_on_c, 0, 74, 84
1, 37152, Note_on_c, 1, 53, 84
1, 37182, Note_on_c, 1, 53, 0
1, 37184, Note_on_c, 1, 51, 84
1, 37214, Note_on_c, 1, 51, 0
1, 37216, Note_on_c, 1, 50, 84
1, 37241, Note_on_c, 0, 77, 0
1, 37241, Note_on_c, 0, 74, 0
1, 37246, Note_on_c, 1, 50, 0
1, 37248, Note_on_c, 0, 79, 100
1, 37248, Note_on_c, 0, 75, 100
1, 37248, Note_on_c, 1, 48, 84
1, 37278, Note_on_c, 1, 48, 0
1, 37280, Note_on_c, 1, 63, 84
1, 37310, Note_on_c, 1, 63, 0
1, 37312, Note_on_c, 1, 62, 84
1, 37342, Note_on_c, 1, 62, 0
1, 37344, Note_on_c, 1, 60, 84
1, 37374, Note_on_c, 1, 60, 0
1, 37376, Note_on_c, 1, 58, 84
1, 37406, Note_on_c, 1, 58, 0
1, 37408, Note_on_c, 1, 56, 84
1, 37438, Note_on_c, 1, 56, 0
1, 37440, Note_on_c, 1, 55, 84
1, 37470, Note_on_c, 1, 55, 0
1, 37472, Note_on_c, 1, 53, 84
1, 37502, Note_on_c, 1, 53, 0
1, 37504, Note_on_c, 1, 51, 84
1, 37534, Note_on_c, 1, 51, 0
1, 37536, Note_on_c, 0, 79, 0
1, 37536, Note_on_c, 0, 75, 0
1, 37536, Note_on_c, 0, 80, 84
1, 37536, Note_on_c, 0, 77, 84
1, 37536, Note_on_c, 1, 50, 84
1, 37566, Note_on_c, 1, 50, 0
1, 37568, Note_on_c, 1, 48, 84
1, 37598, Note_on_c, 1, 48, 0
1, 37600, Note_on_c, 1, 46, 84
1, 37625, Note_on_c, 0, 80, 0
1, 37625, Note_on_c, 0, 77, 0
1, 37630, Note_on_c, 1, 46, 0
1, 37632, Note_on_c, 0, 82, 84
1, 37632, Note_on_c, 0, 79, 84
1, 37632, Note_on_c, 1, 44, 84
1, 37662, Note_on_c, 0, 82, 0
1, 37662, Note_on_c, 0, 79, 0
1, 37664, Note_on_c, 0, 80, 84
1, 37664, Note_on_c, 0, 77, 84
1, 37694, Note_on_c, 0, 80, 0
1, 37694, Note_on_c, 0, 77, 0
1, 37696, Note_on_c, 0, 82, 84
1, 37696, Note_on_c, 0, 79, 84
1, 37726, Note_on_c, 0, 82, 0
1, 37726, Note_on_c, 0, 79, 0
1, 37728, Note_on_c, 0, 84, 84
1, 37728, Note_on_c, 0, 80, 84
1, 37758, Note_on_c, 0, 84, 0
1, 37758, Note_on_c, 0, 80, 0
1, 37760, Note_on_c, 0, 82, 84
1, 37760, Note_on_c, 0, 79, 84
1, 37790, Note_on_c, 0, 82, 0
1, 37790, Note_on_c, 0, 79, 0
1, 37792, Note_on_c, 0, 80, 84
1, 37792, Note_on_c, 0, 77, 84
1, 37809, Note_on_c, 1, 44, 0
1, 37822, Note_on_c, 0, 80, 0
1, 37822, Note_on_c, 0, 77, 0
1, 37824, Note_on_c, 0, 79, 84
1, 37824, Note_on_c, 0, 75, 84
1, 37824, Note_on_c, 1, 46, 84
1, 37913, Note_on_c, 0, 79, 0
1, 37913, Note_on_c, 0, 75, 0
1, 37913, Note_on_c, 1, 46, 0
1, 37920, Note_on_c, 0, 77, 84
1, 37920, Note_on_c, 0, 74, 84
1, 37920, Note_on_c, 1, 46, 84
1, 38009, Note_on_c, 0, 77, 0
1, 38009, Note_on_c, 0, 74, 0
1, 38009, Note_on_c, 1, 46, 0
1, 38016, Note_on_c, 0, 75, 100
1, 38016, Note_on_c, 1, 63, 84
1, 38046, Note_on_c, 1, 63, 0
1, 38048, Note_on_c, 1, 67, 84
1, 38078, Note_on_c, 1, 67, 0
1, 38080, Note_on_c, 1, 65, 84
1, 38110, Note_on_c, 1, 65, 0
1, 38112, Note_on_c, 1, 63, 84
1, 38142, Note_on_c, 1, 63, 0
1, 38144, Note_on_c, 1, 62, 84
1, 38174, Note_on_c, 1, 62, 0
1, 38176, Note_on_c, 1, 60, 84
1, 38206, Note_on_c, 1, 60, 0
1, 38208, Note_on_c, 1, 58, 84
1, 38238, Note_on_c, 1, 58, 0
1, 38240, Note_on_c, 1, 56, 84
1, 38270, Note_on_c, 1, 56, 0
1, 38272, Note_on_c, 1, 55, 84
1, 38302, Note_on_c, 1, 55, 0
1, 38304, Note_on_c, 0, 75, 0
1, 38304, Note_on_c, 0, 77, 84
1, 38304, Note_on_c, 0, 74, 84
1, 38304, Note_on_c, 1, 53, 84
1, 38334, Note_on_c, 1, 53, 0
1, 38336, Note_on_c, 1, 51, 84
1, 38366, Note_on_c, 1, 51, 0
1, 38368, Note_on_c, 1, 50, 84
1, 38393, Note_on_c, 0, 77, 0
1, 38393, Note_on_c, 0, 74, 0
1, 38398, Note_on_c, 1, 50, 0
1, 38400, Note_on_c, 0, 79, 100
1, 38400, Note_on_c, 0, 75, 100
1, 38400, Note_on_c, 1, 48, 84
1, 38430, Note_on_c, 1, 48, 0
1, 38432, Note_on_c, 1, 63, 84
1, 38462, Note_on_c, 1, 63, 0
1, 38464, Note_on_c, 1, 62, 84
1, 38494, Note_on_c, 1, 62, 0
1, 38496, Note_on_c, 1, 60, 84
1, 38526, Note_on_c, 1, 60, 0
1, 38528, Note_on_c, 1, 58, 84
1, 38558, Note_on_c, 1, 58, 0
1, 38560, Note_on_c, 1, 56, 84
1, 38590, Note_on_c, 1, 56, 0
1, 38592, Note_on_c, 1, 55, 84
1, 38622, Note_on_c, 1, 55, 0
1, 38624, Note_on_c, 1, 53, 84
1, 38654, Note_on_c, 1, 53, 0
1, 38656, Note_on_c, 1, 51, 84
1, 38686, Note_on_c, 1, 51, 0
1, 38688, Note_on_c, 0, 79, 0
1, 38688, Note_on_c, 0, 75, 0
1, 38688, Note_on_c, 0, 80, 84
1, 38688, Note_on_c, 0, 77, 84
1, 38688, Note_on_c, 1, 50, 84
1, 38718, Note_on_c, 1, 50, 0
1, 38720, Note_on_c, 1, 48, 84
1, 38750, Note_on_c, 1, 48, 0
1, 38752, Note_on_c, 1, 46, 84
1, 38777, Note_on_c, 0, 80, 0
1, 38777, Note_on_c, 0, 77, 0
1, 38782, Note_on_c, 1, 46, 0
1, 38784, Note_on_c, 0, 82, 84
1, 38784, Note_on_c, 0, 79, 84
1, 38784, Note_on_c, 1, 44, 84
1, 38814, Note_on_c, 0, 82, 0
1, 38814, Note_on_c, 0, 79, 0
1, 38816, Note_on_c, 0, 80, 83
1, 38816, Note_on_c, 0, 77, 83
1, 38846, Note_on_c, 0, 80, 0
1, 38846, Note_on_c, 0, 77, 0
1, 38848, Note_on_c, 0, 82, 82
1, 38848, Note_on_c, 0, 79, 82
1, 38878, Note_on_c, 0, 82, 0
1, 38878, Note_on_c, 0, 79, 0
1, 38880, Note_on_c, 0, 84, 82
1, 38880, Note_on_c, 0, 80, 82
1, 38910, Note_on_c, 0, 84, 0
1, 38910, Note_on_c, 0, 80, 0
1, 38912, Note_on_c, 0, 82, 81
1, 38912, Note_on_c, 0, 79, 81
1, 38942, Note_on_c, 0, 82, 0
1, 38942, Note_on_c, 0, 79, 0
1, 38944, Note_on_c, 0, 80, 80
1, 38944, Note_on_c, 0, 77, 80
1, 38961, Note_on_c, 1, 44, 0
1, 38974, Note_on_c, 0, 80, 0
1, 38974, Note_on_c, 0, 77, 0
1, 38976, Note_on_c, 0, 79, 80
1, 38976, Note_on_c, 0, 75, 80
1, 38976, Note_on_c, 1, 46, 84
1, 39065, Note_on_c, 0, 79, 0
1, 39065, Note_on_c, 0, 75, 0
1, 39065, Note_on_c, 1, 46, 0
1, 39072, Note_on_c, 0, 77, 78
1, 39072, Note_on_c, 0, 74, 78
1, 39072, Note_on_c, 1, 46, 79
1, 39161, Note_on_c, 0, 77, 0
1, 39161, Note_on_c, 0, 74, 0
1, 39161, Note_on_c, 1, 46, 0
1, 39168, Note_on_c, 0, 75, 76
1, 39168, Note_on_c, 1, 63, 75
1, 39198, Note_on_c, 1, 63, 0
1, 39200, Note_on_c, 1, 67, 74
1, 39230, Note_on_c, 1, 67, 0
1, 39232, Note_on_c, 1, 70, 72
1, 39262, Note_on_c, 1, 70, 0
1, 39264, Note_on_c, 1, 63, 71
1, 39294, Note_on_c, 1, 63, 0
1, 39296, Note_on_c, 1, 67, 70
1, 39326, Note_on_c, 1, 67, 0
1, 39328, Note_on_c, 1, 70, 69
1, 39358, Note_on_c, 1, 70, 0
1, 39360, Note_on_c, 1, 63, 67
1, 39390, Note_on_c, 1, 63, 0
1, 39392, Note_on_c, 1, 67, 66
1, 39422, Note_on_c, 1, 67, 0
1, 39424, Note_on_c, 1, 70, 65
1, 39433, Note_on_c, 0, 75, 0
1, 39454, Note_on_c, 1, 70, 0
1, 39456, Note_on_c, 0, 79, 70
1, 39456, Note_on_c, 1, 63, 63
1, 39468, Note_on_c, 0, 79, 0
1, 39468, Note_on_c, 0, 77, 70
1, 39486, Note_on_c, 1, 63, 0
1, 39488, Note_on_c, 1, 68, 63
1, 39518, Note_on_c, 1, 68, 0
1, 39520, Note_on_c, 1, 74, 63
1, 39546, Note_on_c, 0, 77, 0
1, 39550, Note_on_c, 1, 74, 0
1, 39552, Note_on_c, 0, 75, 70
1, 39552, Note_on_c, 1, 63, 63
1, 39582, Note_on_c, 1, 63, 0
1, 39584, Note_on_c, 1, 67, 63
1, 39614, Note_on_c, 1, 67, 0
1, 39616, Note_on_c, 1, 70, 63
1, 39641, Note_on_c, 0, 75, 0
1, 39646, Note_on_c, 1, 70, 0
1, 39648, Note_on_c, 0, 75, 71
1, 39648, Note_on_c, 1, 63, 63
1, 39678, Note_on_c, 1, 63, 0
1, 39680, Note_on_c, 1, 67, 63
1, 39710, Note_on_c, 1, 67, 0
1, 39712, Note_on_c, 1, 70, 63
1, 39737, Note_on_c, 0, 75, 0
1, 39742, Note_on_c, 1, 70, 0
1, 39744, Note_on_c, 0, 75, 73
1, 39744, Note_on_c, 1, 63, 63
1, 39774, Note_on_c, 1, 63, 0
1, 39776, Note_on_c, 1, 67, 63
1, 39806, Note_on_c, 1, 67, 0
1, 39808, Note_on_c, 1, 70, 63
1, 39833, Note_on_c, 0, 75, 0
1, 39838, Note_on_c, 1, 70, 0
1, 39840, Note_on_c, 0, 80, 75
1, 39840, Note_on_c, 1, 63, 63
1, 39852, Note_on_c, 0, 80, 0
1, 39852, Note_on_c, 0, 77, 75
1, 39870, Note_on_c, 1, 63, 0
1, 39872, Note_on_c, 1, 68, 63
1, 39902, Note_on_c, 1, 68, 0
1, 39904, Note_on_c, 1, 74, 63
1, 39930, Note_on_c, 0, 77, 0
1, 39934, Note_on_c, 1, 74, 0
1, 39936, Note_on_c, 0, 82, 77
1, 39936, Note_on_c, 1, 63, 63
1, 39966, Note_on_c, 1, 63, 0
1, 39968, Note_on_c, 1, 67, 63
1, 39998, Note_on_c, 1, 67, 0
1, 40000, Note_on_c, 1, 70, 63
1, 40025, Note_on_c, 0, 82, 0
1, 40030, Note_on_c, 1, 70, 0
1, 40032, Note_on_c, 0, 82, 75
1, 40032, Note_on_c, 1, 63, 63
1, 40062, Note_on_c, 1, 63, 0
1, 40064, Note_on_c, 1, 67, 63
1, 40094, Note_on_c, 1, 67, 0
1, 40096, Note_on_c, 1, 70, 63
1, 40121, Note_on_c, 0, 82, 0
1, 40126, Note_on_c, 1, 70, 0
1, 40128, Note_on_c, 0, 82, 73
1, 40128, Note_on_c, 1, 63, 63
1, 40158, Note_on_c, 1, 63, 0
1, 40160, Note_on_c, 1, 67, 63
1, 40190, Note_on_c, 1, 67, 0
1, 40192, Note_on_c, 1, 70, 63
1, 40217, Note_on_c, 0, 82, 0
1, 40222, Note_on_c, 1, 70, 0
1, 40224, Note_on_c, 0, 80, 71
1, 40224, Note_on_c, 1, 63, 63
1, 40236, Note_on_c, 0, 80, 0
1, 40236, Note_on_c, 0, 77, 71
1, 40254, Note_on_c, 1, 63, 0
1, 40256, Note_on_c, 1, 68, 63
1, 40286, Note_on_c, 1, 68, 0
1, 40288, Note_on_c, 1, 74, 63
1, 40314, Note_on_c, 0, 77, 0
1, 40318, Note_on_c, 1, 74, 0
1, 40320, Note_on_c, 0, 75, 70
1, 40320, Note_on_c, 1, 63, 63
1, 40350, Note_on_c, 1, 63, 0
1, 40352, Note_on_c, 1, 67, 63
1, 40382, Note_on_c, 1, 67, 0
1, 40384, Note_on_c, 1, 70, 63
1, 40414, Note_on_c, 1, 70, 0
1, 40416, Note_on_c, 1, 63, 63
1, 40446, Note_on_c, 1, 63, 0
1, 40448, Note_on_c, 1, 67, 63
1, 40478, Note_on_c, 1, 67, 0
1, 40480, Note_on_c, 1, 70, 63
1, 40510, Note_on_c, 1, 70, 0
1, 40512, Note_on_c, 1, 63, 63
1, 40542, Note_on_c, 1, 63, 0
1, 40544, Note_on_c, 1, 67, 63
1, 40574, Note_on_c, 1, 67, 0
1, 40576, Note_on_c, 1, 70, 63
1, 40585, Note_on_c, 0, 75, 0
1, 40606, Note_on_c, 1, 70, 0
1, 40608, Note_on_c, 0, 79, 70
1, 40608, Note_on_c, 1, 63, 63
1, 40620, Note_on_c, 0, 79, 0
1, 40620, Note_on_c, 0, 77, 70
1, 40638, Note_on_c, 1, 63, 0
1, 40640, Note_on_c, 1, 68, 63
1, 40670, Note_on_c, 1, 68, 0
1, 40672, Note_on_c, 1, 74, 63
1, 40698, Note_on_c, 0, 77, 0
1, 40702, Note_on_c, 1, 74, 0
1, 40704, Note_on_c, 0, 75, 70
1, 40704, Note_on_c, 1, 63, 63
1, 40734, Note_on_c, 1, 63, 0
1, 40736, Note_on_c, 1, 67, 63
1, 40766, Note_on_c, 1, 67, 0
1, 40768, Note_on_c, 1, 70, 63
1, 40793, Note_on_c, 0, 75, 0
1, 40798, Note_on_c, 1, 70, 0
1, 40800, Note_on_c, 0, 75, 71
1, 40800, Note_on_c, 1, 63, 63
1, 40830, Note_on_c, 1, 63, 0
1, 40832, Note_on_c, 1, 67, 63
1, 40862, Note_on_c, 1, 67, 0
1, 40864, Note_on_c, 1, 70, 63
1, 40889, Note_on_c, 0, 75, 0
1, 40894, Note_on_c, 1, 70, 0
1, 40896, Note_on_c, 0, 75, 73
1, 40896, Note_on_c, 1, 63, 63
1, 40926, Note_on_c, 1, 63, 0
1, 40928, Note_on_c, 1, 67, 63
1, 40958, Note_on_c, 1, 67, 0
1, 40960, Note_on_c, 1, 70, 63
1, 40985, Note_on_c, 0, 75, 0
1, 40990, Note_on_c, 1, 70, 0
1, 40992, Note_on_c, 0, 80, 75
1, 40992, Note_on_c, 1, 63, 63
1, 41004, Note_on_c, 0, 80, 0
1, 41004, Note_on_c, 0, 77, 75
1, 41022, Note_on_c, 1, 63, 0
1, 41024, Note_on_c, 1, 68, 63
1, 41054, Note_on_c, 1, 68, 0
1, 41056, Note_on_c, 1, 74, 63
1, 41082, Note_on_c, 0, 77, 0
1, 41086, Note_on_c, 1, 74, 0
1, 41088, Note_on_c, 0, 82, 77
1, 41088, Note_on_c, 1, 63, 63
1, 41118, Note_on_c, 1, 63, 0
1, 41120, Note_on_c, 1, 67, 63
1, 41150, Note_on_c, 1, 67, 0
1, 41152, Note_on_c, 1, 70, 63
1, 41177, Note_on_c, 0, 82, 0
1, 41182, Note_on_c, 1, 70, 0
1, 41184, Note_on_c, 0, 82, 75
1, 41184, Note_on_c, 1, 63, 63
1, 41214, Note_on_c, 1, 63, 0
1, 41216, Note_on_c, 1, 67, 63
1, 41246, Note_on_c, 1, 67, 0
1, 41248, Note_on_c, 1, 70, 63
1, 41273, Note_on_c, 0, 82, 0
1, 41278, Note_on_c, 1, 70, 0
1, 41280, Note_on_c, 0, 82, 73
1, 41280, Note_on_c, 1, 63, 63
1, 41310, Note_on_c, 1, 63, 0
1, 41312, Note_on_c, 1, 67, 63
1, 41342, Note_on_c, 1, 67, 0
1, 41344, Note_on_c, 1, 70, 63
1, 41369, Note_on_c, 0, 82, 0
1, 41374, Note_on_c, 1, 70, 0
1, 41376, Note_on_c, 0, 80, 71
1, 41376, Note_on_c, 1, 63, 63
1, 41388, Note_on_c, 0, 80, 0
1, 41388, Note_on_c, 0, 77, 71
1, 41406, Note_on_c, 1, 63, 0
1, 41408, Note_on_c, 1, 68, 63
1, 41438, Note_on_c, 1, 68, 0
1, 41440, Note_on_c, 1, 74, 63
1, 41466, Note_on_c, 0, 77, 0
1, 41470, Note_on_c, 1, 74, 0
1, 41472, Note_on_c, 0, 75, 70
1, 41472, Note_on_c, 1, 63, 63
1, 41502, Note_on_c, 1, 63, 0
1, 41504, Note_on_c, 1, 67, 63
1, 41534, Note_on_c, 1, 67, 0
1, 41536, Note_on_c, 1, 70, 63
1, 41566, Note_on_c, 1, 70, 0
1, 41568, Note_on_c, 1, 63, 63
1, 41598, Note_on_c, 1, 63, 0
1, 41600, Note_on_c, 1, 67, 63
1, 41630, Note_on_c, 1, 67, 0
1, 41632, Note_on_c, 1, 70, 63
1, 41662, Note_on_c, 1, 70, 0
1, 41664, Note_on_c, 1, 63, 63
1, 41694, Note_on_c, 1, 63, 0
1, 41696, Note_on_c, 1, 67, 63
1, 41726, Note_on_c, 1, 67, 0
1, 41728, Note_on_c, 1, 70, 63
1, 41737, Note_on_c, 0, 75, 0
1, 41758, Note_on_c, 1, 70, 0
1, 41760, Note_on_c, 0, 79, 70
1, 41760, Note_on_c, 1, 63, 63
1, 41772, Note_on_c, 0, 79, 0
1, 41772, Note_on_c, 0, 77, 70
1, 41790, Note_on_c, 1, 63, 0
1, 41792, Note_on_c, 1, 68, 63
1, 41822, Note_on_c, 1, 68, 0
1, 41824, Note_on_c, 1, 74, 63
1, 41850, Note_on_c, 0, 77, 0
1, 41854, Note_on_c, 1, 74, 0
1, 41856, Note_on_c, 0, 75, 70
1, 41856, Note_on_c, 1, 67, 63
1, 41856, Note_on_c, 1, 63, 63
1, 41945, Note_on_c, 0, 75, 0
1, 41945, Note_on_c, 1, 67, 0
1, 41945, Note_on_c, 1, 63, 0
1, 41952, Note_on_c, 0, 82, 56
1, 41952, Note_on_c, 0, 79, 56
1, 42041, Note_on_c, 0, 82, 0
1, 42041, Note_on_c, 0, 79, 0
1, 42048, Note_on_c, 0, 82, 56
1, 42048, Note_on_c, 0, 79, 56
1, 42137, Note_on_c, 0, 82, 0
1, 42137, Note_on_c, 0, 79, 0
1, 42144, Note_on_c, 1, 43, 56
1, 42144, Note_on_c, 1, 39, 56
1, 42233, Note_on_c, 1, 43, 0
1, 42233, Note_on_c, 1, 39, 0
1, 42240, Note_on_c, 1, 43, 56
1, 42240, Note_on_c, 1, 39, 56
1, 42373, Note_on_c, 1, 43, 0
1, 42373, Note_on_c, 1, 39, 0
1, 42528, Note_on_c, 0, 58, 77
1, 42595, Note_on_c, 0, 58, 0
1, 42600, Note_on_c, 0, 55, 77
1, 42623, Note_on_c, 0, 55, 0
1, 42624, Note_on_c, 0, 63, 77
1, 42624, Note_on_c, 1, 51, 77
1, 42624, Note_on_c, 1, 39, 77
1, 42691, Note_on_c, 0, 63, 0
1, 42696, Note_on_c, 0, 63, 77
1, 42713, Note_on_c, 1, 51, 0
1, 42713, Note_on_c, 1, 39, 0
1, 42719, Note_on_c, 0, 63, 0
1, 42720, Note_on_c, 0, 65, 77
1, 42732, Note_on_c, 0, 65, 0
1, 42732, Note_on_c, 0, 63, 77
1, 42744, Note_on_c, 0, 63, 0
1, 42744, Note_on_c, 0, 65, 77
1, 42756, Note_on_c, 0, 65, 0
1, 42756, Note_on_c, 0, 63, 77
1, 42768, Note_on_c, 0, 63, 0
1, 42768, Note_on_c, 0, 62, 77
1, 42792, Note_on_c, 0, 62, 0
1, 42792, Note_on_c, 0, 63, 77
1, 42816, Note_on_c, 0, 63, 0
1, 42816, Note_on_c, 0, 65, 77
1, 42816, Note_on_c, 1, 50, 77
1, 42816, Note_on_c, 1, 38, 77
1, 42905, Note_on_c, 0, 65, 0
1, 42905, Note_on_c, 1, 50, 0
1, 42905, Note_on_c, 1, 38, 0
1, 42912, Note_on_c, 0, 58, 77
1, 42979, Note_on_c, 0, 58, 0
1, 42984, Note_on_c, 0, 70, 77
1, 43007, Note_on_c, 0, 70, 0
1, 43008, Note_on_c, 0, 68, 77
1, 43104, Note_on_c, 1, 39, 77
1, 43193, Note_on_c, 1, 39, 0
1, 43200, Note_on_c, 0, 68, 0
1, 43200, Note_on_c, 0, 67, 77
1, 43200, Note_on_c, 1, 51, 77
1, 43220, Note_on_c, 0, 67, 0
1, 43289, Note_on_c, 1, 51, 0
1, 43296, Note_on_c, 0, 63, 77
1, 43363, Note_on_c, 0, 63, 0
1, 43368, Note_on_c, 0, 72, 77
1, 43391, Note_on_c, 0, 72, 0
1, 43392, Note_on_c, 0, 70, 77
1, 43488, Note_on_c, 1, 53, 77
1, 43584, Note_on_c, 0, 70, 0
1, 43584, Note_on_c, 0, 68, 77
1, 43584, Note_on_c, 1, 53, 0
1, 43584, Note_on_c, 1, 50, 77
1, 43604, Note_on_c, 0, 68, 0
1, 43629, Note_on_c, 1, 50, 0
1, 43680, Note_on_c, 0, 58, 77
1, 43747, Note_on_c, 0, 58, 0
1, 43752, Note_on_c, 0, 70, 77
1, 43775, Note_on_c, 0, 70, 0
1, 43776, Note_on_c, 0, 68, 77
1, 43872, Note_on_c, 1, 39, 77
1, 43961, Note_on_c, 1, 39, 0
1, 43968, Note_on_c, 0, 68, 0
1, 43968, Note_on_c, 0, 67, 77
1, 43968, Note_on_c, 1, 51, 77
1, 43988, Note_on_c, 0, 67, 0
1, 44057, Note_on_c, 1, 51, 0
1, 44064, Note_on_c, 0, 75, 77
1, 44064, Note_on_c, 1, 43, 77
1, 44131, Note_on_c, 0, 75, 0
1, 44136, Note_on_c, 0, 67, 77
1, 44153, Note_on_c, 1, 43, 0
1, 44159, Note_on_c, 0, 67, 0
1, 44160, Note_on_c, 0, 65, 77
1, 44160, Note_on_c, 1, 44, 77
1, 44227, Note_on_c, 0, 65, 0
1, 44232, Note_on_c, 0, 65, 77
1, 44249, Note_on_c, 1, 44, 0
1, 44255, Note_on_c, 0, 65, 0
1, 44256, Note_on_c, 0, 67, 77
1, 44268, Note_on_c, 0, 67, 0
1, 44268, Note_on_c, 0, 65, 77
1, 44280, Note_on_c, 0, 65, 0
1, 44280, Note_on_c, 0, 67, 77
1, 44292, Note_on_c, 0, 67, 0
1, 44292, Note_on_c, 0, 65, 77
1, 44304, Note_on_c, 0, 65, 0
1, 44304, Note_on_c, 0, 64, 77
1, 44328, Note_on_c, 0, 64, 0
1, 44328, Note_on_c, 0, 65, 77
1, 44352, Note_on_c, 0, 65, 0
1, 44352, Note_on_c, 0, 68, 77
1, 44419, Note_on_c, 0, 68, 0
1, 44424, Note_on_c, 0, 65, 77
1, 44447, Note_on_c, 0, 65, 0
1, 44448, Note_on_c, 0, 62, 77
1, 44448, Note_on_c, 1, 46, 77
1, 44515, Note_on_c, 0, 62, 0
1, 44520, Note_on_c, 0, 58, 77
1, 44537, Note_on_c, 1, 46, 0
1, 44543, Note_on_c, 0, 58, 0
1, 44544, Note_on_c, 0, 63, 77
1, 44616, Note_on_c, 1, 51, 77
1, 44633, Note_on_c, 0, 63, 0
1, 44639, Note_on_c, 1, 51, 0
1, 44640, Note_on_c, 1, 55, 77
1, 44707, Note_on_c, 1, 55, 0
1, 44712, Note_on_c, 1, 58, 77
1, 44735, Note_on_c, 1, 58, 0
1, 44736, Note_on_c, 1, 63, 77
1, 44808, Note_on_c, 0, 67, 77
1, 44825, Note_on_c, 1, 63, 0
1, 44831, Note_on_c, 0, 67, 0
1, 44832, Note_on_c, 0, 70, 77
1, 44899, Note_on_c, 0, 70, 0
1, 44904, Note_on_c, 0, 75, 78
1, 44927, Note_on_c, 0, 75, 0
1, 44928, Note_on_c, 0, 79, 78
1, 44995, Note_on_c, 0, 79, 0
1, 45000, Note_on_c, 0, 70, 79
1, 45023, Note_on_c, 0, 70, 0
1, 45024, Note_on_c, 0, 75, 79
1, 45091, Note_on_c, 0, 75, 0
1, 45096, Note_on_c, 0, 79, 80
1, 45119, Note_on_c, 0, 79, 0
1, 45120, Note_on_c, 0, 82, 81
1, 45187, Note_on_c, 0, 82, 0
1, 45192, Note_on_c, 0, 75, 82
1, 45215, Note_on_c, 0, 75, 0
1, 45216, Note_on_c, 0, 79, 82
1, 45283, Note_on_c, 0, 79, 0
1, 45288, Note_on_c, 0, 82, 83
1, 45311, Note_on_c, 0, 82, 0
1, 45312, Note_on_c, 0, 85, 100
1, 45384, Note_on_c, 1, 68, 77
1, 45407, Note_on_c, 1, 68, 0
1, 45408, Note_on_c, 1, 67, 77
1, 45475, Note_on_c, 1, 67, 0
1, 45480, Note_on_c, 1, 65, 75
1, 45503, Note_on_c, 1, 65, 0
1, 45504, Note_on_c, 0, 85, 0
1, 45504, Note_on_c, 0, 85, 84
1, 45504, Note_on_c, 1, 64, 74
1, 45518, Note_on_c, 0, 85, 0
1, 45519, Note_on_c, 0, 84, 83
1, 45533, Note_on_c, 0, 84, 0
1, 45534, Note_on_c, 0, 85, 83
1, 45548, Note_on_c, 0, 85, 0
1, 45549, Note_on_c, 0, 84, 82
1, 45563, Note_on_c, 0, 84, 0
1, 45564, Note_on_c, 0, 85, 82
1, 45571, Note_on_c, 1, 64, 0
1, 45576, Note_on_c, 1, 67, 72
1, 45578, Note_on_c, 0, 85, 0
1, 45579, Note_on_c, 0, 84, 81
1, 45593, Note_on_c, 0, 84, 0
1, 45594, Note_on_c, 0, 85, 81
1, 45599, Note_on_c, 1, 67, 0
1, 45600, Note_on_c, 1, 60, 72
1, 45608, Note_on_c, 0, 85, 0
1, 45609, Note_on_c, 0, 84, 80
1, 45623, Note_on_c, 0, 84, 0
1, 45624, Note_on_c, 0, 85, 80
1, 45638, Note_on_c, 0, 85, 0
1, 45639, Note_on_c, 0, 84, 80
1, 45653, Note_on_c, 0, 84, 0
1, 45654, Note_on_c, 0, 82, 79
1, 45667, Note_on_c, 1, 60, 0
1, 45672, Note_on_c, 1, 64, 70
1, 45695, Note_on_c, 0, 82, 0
1, 45695, Note_on_c, 1, 64, 0
1, 45696, Note_on_c, 0, 80, 77
1, 45696, Note_on_c, 1, 65, 63
1, 45726, Note_on_c, 1, 65, 0
1, 45728, Note_on_c, 1, 68, 63
1, 45758, Note_on_c, 1, 68, 0
1, 45760, Note_on_c, 1, 72, 63
1, 45785, Note_on_c, 0, 80, 0
1, 45790, Note_on_c, 1, 72, 0
1, 45792, Note_on_c, 0, 77, 77
1, 45792, Note_on_c, 1, 65, 63
1, 45822, Note_on_c, 1, 65, 0
1, 45824, Note_on_c, 1, 68, 63
1, 45854, Note_on_c, 1, 68, 0
1, 45856, Note_on_c, 1, 72, 63
1, 45881, Note_on_c, 0, 77, 0
1, 45886, Note_on_c, 1, 72, 0
1, 45888, Note_on_c, 0, 77, 77
1, 45888, Note_on_c, 1, 65, 63
1, 45918, Note_on_c, 1, 65, 0
1, 45920, Note_on_c, 1, 68, 63
1, 45950, Note_on_c, 1, 68, 0
1, 45952, Note_on_c, 1, 72, 63
1, 45977, Note_on_c, 0, 77, 0
1, 45982, Note_on_c, 1, 72, 0
1, 45984, Note_on_c, 0, 79, 77
1, 45984, Note_on_c, 1, 64, 63
1, 46014, Note_on_c, 1, 64, 0
1, 46016, Note_on_c, 1, 67, 63
1, 46046, Note_on_c, 1, 67, 0
1, 46048, Note_on_c, 1, 72, 63
1, 46073, Note_on_c, 0, 79, 0
1, 46078, Note_on_c, 1, 72, 0
1, 46080, Note_on_c, 0, 79, 77
1, 46080, Note_on_c, 1, 65, 63
1, 46092, Note_on_c, 0, 79, 0
1, 46092, Note_on_c, 0, 80, 77
1, 46110, Note_on_c, 1, 65, 0
1, 46112, Note_on_c, 1, 68, 63
1, 46142, Note_on_c, 1, 68, 0
1, 46144, Note_on_c, 1, 72, 63
1, 46174, Note_on_c, 1, 72, 0
1, 46176, Note_on_c, 1, 65, 63
1, 46206, Note_on_c, 1, 65, 0
1, 46208, Note_on_c, 1, 68, 63
1, 46238, Note_on_c, 1, 68, 0
1, 46240, Note_on_c, 1, 72, 63
1, 46270, Note_on_c, 1, 72, 0
1, 46272, Note_on_c, 0, 80, 0
1, 46272, Note_on_c, 0, 77, 77
1, 46272, Note_on_c, 1, 65, 63
1, 46302, Note_on_c, 1, 65, 0
1, 46304, Note_on_c, 1, 68, 63
1, 46334, Note_on_c, 1, 68, 0
1, 46336, Note_on_c, 1, 72, 63
1, 46366, Note_on_c, 1, 72, 0
1, 46368, Note_on_c, 1, 65, 63
1, 46398, Note_on_c, 1, 65, 0
1, 46400, Note_on_c, 1, 68, 63
1, 46430, Note_on_c, 1, 68, 0
1, 46432, Note_on_c, 1, 72, 63
1, 46449, Note_on_c, 0, 77, 0
1, 46462, Note_on_c, 1, 72, 0
1, 46464, Note_on_c, 0, 80, 77
1, 46464, Note_on_c, 1, 63, 63
1, 46494, Note_on_c, 1, 63, 0
1, 46496, Note_on_c, 1, 66, 63
1, 46526, Note_on_c, 1, 66, 0
1, 46528, Note_on_c, 1, 72, 63
1, 46553, Note_on_c, 0, 80, 0
1, 46558, Note_on_c, 1, 72, 0
1, 46560, Note_on_c, 0, 80, 79
1, 46560, Note_on_c, 1, 63, 63
1, 46590, Note_on_c, 1, 63, 0
1, 46592, Note_on_c, 1, 66, 63
1, 46622, Note_on_c, 1, 66, 0
1, 46624, Note_on_c, 1, 72, 63
1, 46649, Note_on_c, 0, 80, 0
1, 46654, Note_on_c, 1, 72, 0
1, 46656, Note_on_c, 0, 80, 81
1, 46656, Note_on_c, 1, 63, 63
1, 46686, Note_on_c, 1, 63, 0
1, 46688, Note_on_c, 1, 66, 63
1, 46718, Note_on_c, 1, 66, 0
1, 46720, Note_on_c, 1, 72, 63
1, 46723, Note_on_c, 0, 80, 0
1, 46728, Note_on_c, 0, 84, 83
1, 46750, Note_on_c, 1, 72, 0
1, 46751, Note_on_c, 0, 84, 0
1, 46752, Note_on_c, 0, 85, 84
1, 46752, Note_on_c, 1, 63, 63
1, 46764, Note_on_c, 0, 85, 0
1, 46764, Note_on_c, 0, 84, 84
1, 46776, Note_on_c, 0, 84, 0
1, 46776, Note_on_c, 0, 85, 84
1, 46782, Note_on_c, 1, 63, 0
1, 46784, Note_on_c, 1, 66, 63
1, 46788, Note_on_c, 0, 85, 0
1, 46788, Note_on_c, 0, 84, 84
1, 46800, Note_on_c, 0, 84, 0
1, 46800, Note_on_c, 0, 82, 84
1, 46814, Note_on_c, 1, 66, 0
1, 46816, Note_on_c, 1, 72, 63
1, 46824, Note_on_c, 0, 82, 0
1, 46824, Note_on_c, 0, 84, 84
1, 46846, Note_on_c, 1, 72, 0
1, 46848, Note_on_c, 0, 84, 0
1, 46848, Note_on_c, 0, 85, 84
1, 46848, Note_on_c, 1, 61, 63
1, 46878, Note_on_c, 1, 61, 0
1, 46880, Note_on_c, 1, 65, 63
1, 46910, Note_on_c, 1, 65, 0
1, 46912, Note_on_c, 1, 68, 63
1, 46942, Note_on_c, 1, 68, 0
1, 46944, Note_on_c, 1, 61, 63
1, 46974, Note_on_c, 1, 61, 0
1, 46976, Note_on_c, 1, 65, 63
1, 47006, Note_on_c, 1, 65, 0
1, 47008, Note_on_c, 1, 68, 63
1, 47038, Note_on_c, 1, 68, 0
1, 47040, Note_on_c, 0, 85, 0
1, 47040, Note_on_c, 0, 73, 80
1, 47040, Note_on_c, 1, 61, 63
1, 47070, Note_on_c, 1, 61, 0
1, 47072, Note_on_c, 1, 65, 63
1, 47102, Note_on_c, 1, 65, 0
1, 47104, Note_on_c, 1, 68, 63
1, 47134, Note_on_c, 1, 68, 0
1, 47136, Note_on_c, 1, 61, 63
1, 47166, Note_on_c, 1, 61, 0
1, 47168, Note_on_c, 1, 65, 63
1, 47198, Note_on_c, 1, 65, 0
1, 47200, Note_on_c, 1, 68, 63
1, 47217, Note_on_c, 0, 73, 0
1, 47230, Note_on_c, 1, 68, 0
1, 47232, Note_on_c, 0, 82, 77
1, 47232, Note_on_c, 1, 62, 63
1, 47262, Note_on_c, 1, 62, 0
1, 47264, Note_on_c, 1, 65, 63
1, 47294, Note_on_c, 1, 65, 0
1, 47296, Note_on_c, 1, 70, 63
1, 47321, Note_on_c, 0, 82, 0
1, 47326, Note_on_c, 1, 70, 0
1, 47328, Note_on_c, 0, 82, 77
1, 47328, Note_on_c, 1, 62, 63
1, 47358, Note_on_c, 1, 62, 0
1, 47360, Note_on_c, 1, 65, 63
1, 47390, Note_on_c, 1, 65, 0
1, 47392, Note_on_c, 1, 70, 63
1, 47417, Note_on_c, 0, 82, 0
1, 47422, Note_on_c, 1, 70, 0
1, 47424, Note_on_c, 0, 82, 77
1, 47424, Note_on_c, 1, 62, 63
1, 47454, Note_on_c, 1, 62, 0
1, 47456, Note_on_c, 1, 65, 63
1, 47486, Note_on_c, 1, 65, 0
1, 47488, Note_on_c, 1, 70, 63
1, 47513, Note_on_c, 0, 82, 0
1, 47518, Note_on_c, 1, 70, 0
1, 47520, Note_on_c, 0, 82, 77
1, 47520, Note_on_c, 1, 62, 63
1, 47532, Note_on_c, 0, 82, 0
1, 47532, Note_on_c, 0, 80, 77
1, 47544, Note_on_c, 0, 80, 0
1, 47544, Note_on_c, 0, 82, 77
1, 47550, Note_on_c, 1, 62, 0
1, 47552, Note_on_c, 1, 65, 63
1, 47556, Note_on_c, 0, 82, 0
1, 47556, Note_on_c, 0, 80, 77
1, 47568, Note_on_c, 0, 80, 0
1, 47568, Note_on_c, 0, 79, 77
1, 47582, Note_on_c, 1, 65, 0
1, 47584, Note_on_c, 1, 70, 63
1, 47592, Note_on_c, 0, 79, 0
1, 47592, Note_on_c, 0, 80, 77
1, 47614, Note_on_c, 1, 70, 0
1, 47616, Note_on_c, 0, 80, 0
1, 47616, Note_on_c, 0, 79, 77
1, 47616, Note_on_c, 1, 63, 63
1, 47646, Note_on_c, 1, 63, 0
1, 47648, Note_on_c, 1, 67, 63
1, 47678, Note_on_c, 1, 67, 0
1, 47680, Note_on_c, 1, 70, 63
1, 47710, Note_on_c, 1, 70, 0
1, 47712, Note_on_c, 1, 63, 63
1, 47742, Note_on_c, 1, 63, 0
1, 47744, Note_on_c, 1, 67, 63
1, 47774, Note_on_c, 1, 67, 0
1, 47776, Note_on_c, 1, 70, 63
1, 47806, Note_on_c, 1, 70, 0
1, 47808, Note_on_c, 0, 79, 0
1, 47808, Note_on_c, 0, 75, 77
1, 47808, Note_on_c, 1, 63, 63
1, 47838, Note_on_c, 1, 63, 0
1, 47840, Note_on_c, 1, 67, 63
1, 47870, Note_on_c, 1, 67, 0
1, 47872, Note_on_c, 1, 70, 63
1, 47902, Note_on_c, 1, 70, 0
1, 47904, Note_on_c, 1, 63, 63
1, 47934, Note_on_c, 1, 63, 0
1, 47936, Note_on_c, 1, 67, 63
1, 47966, Note_on_c, 1, 67, 0
1, 47968, Note_on_c, 1, 70, 63
1, 47985, Note_on_c, 0, 75, 0
1, 47998, Note_on_c, 1, 70, 0
1, 48000, Note_on_c, 0, 74, 77
1, 48000, Note_on_c, 1, 65, 63
1, 48030, Note_on_c, 1, 65, 0
1, 48032, Note_on_c, 1, 68, 63
1, 48062, Note_on_c, 1, 68, 0
1, 48064, Note_on_c, 1, 71, 63
1, 48089, Note_on_c, 0, 74, 0
1, 48094, Note_on_c, 1, 71, 0
1, 48096, Note_on_c, 0, 74, 77
1, 48096, Note_on_c, 1, 65, 63
1, 48126, Note_on_c, 1, 65, 0
1, 48128, Note_on_c, 1, 68, 63
1, 48158, Note_on_c, 1, 68, 0
1, 48160, Note_on_c, 1, 71, 63
1, 48185, Note_on_c, 0, 74, 0
1, 48190, Note_on_c, 1, 71, 0
1, 48192, Note_on_c, 0, 74, 77
1, 48192, Note_on_c, 1, 65, 64
1, 48222, Note_on_c, 1, 65, 0
1, 48224, Note_on_c, 1, 68, 64
1, 48254, Note_on_c, 1, 68, 0
1, 48256, Note_on_c, 1, 71, 64
1, 48259, Note_on_c, 0, 74, 0
1, 48264, Note_on_c, 0, 74, 78
1, 48286, Note_on_c, 1, 71, 0
1, 48287, Note_on_c, 0, 74, 0
1, 48288, Note_on_c, 0, 75, 78
1, 48288, Note_on_c, 1, 65, 64
1, 48300, Note_on_c, 0, 75, 0
1, 48300, Note_on_c, 0, 74, 78
1, 48312, Note_on_c, 0, 74, 0
1, 48312, Note_on_c, 0, 75, 78
1, 48318, Note_on_c, 1, 65, 0
1, 48320, Note_on_c, 1, 68, 64
1, 48324, Note_on_c, 0, 75, 0
1, 48324, Note_on_c, 0, 74, 78
1, 48336, Note_on_c, 0, 74, 0
1, 48336, Note_on_c, 0, 72, 78
1, 48350, Note_on_c, 1, 68, 0
1, 48352, Note_on_c, 1, 71, 65
1, 48360, Note_on_c, 0, 72, 0
1, 48360, Note_on_c, 0, 74, 78
1, 48382, Note_on_c, 1, 71, 0
1, 48384, Note_on_c, 0, 74, 0
1, 48384, Note_on_c, 0, 75, 78
1, 48384, Note_on_c, 1, 63, 65
1, 48414, Note_on_c, 1, 63, 0
1, 48416, Note_on_c, 1, 68, 65
1, 48446, Note_on_c, 1, 68, 0
1, 48448, Note_on_c, 1, 71, 65
1, 48473, Note_on_c, 0, 75, 0
1, 48478, Note_on_c, 1, 71, 0
1, 48480, Note_on_c, 0, 75, 79
1, 48480, Note_on_c, 1, 63, 65
1, 48510, Note_on_c, 1, 63, 0
1, 48512, Note_on_c, 1, 68, 65
1, 48542, Note_on_c, 1, 68, 0
1, 48544, Note_on_c, 1, 71, 66
1, 48569, Note_on_c, 0, 75, 0
1, 48574, Note_on_c, 1, 71, 0
1, 48576, Note_on_c, 0, 75, 80
1, 48576, Note_on_c, 1, 63, 66
1, 48606, Note_on_c, 1, 63, 0
1, 48608, Note_on_c, 1, 68, 66
1, 48638, Note_on_c, 1, 68, 0
1, 48640, Note_on_c, 1, 71, 66
1, 48643, Note_on_c, 0, 75, 0
1, 48648, Note_on_c, 0, 75, 80
1, 48670, Note_on_c, 1, 71, 0
1, 48671, Note_on_c, 0, 75, 0
1, 48672, Note_on_c, 0, 77, 80
1, 48672, Note_on_c, 1, 63, 66
1, 48684, Note_on_c, 0, 77, 0
1, 48684, Note_on_c, 0, 75, 80
1, 48696, Note_on_c, 0, 75, 0
1, 48696, Note_on_c, 0, 77, 80
1, 48702, Note_on_c, 1, 63, 0
1, 48704, Note_on_c, 1, 68, 67
1, 48708, Note_on_c, 0, 77, 0
1, 48708, Note_on_c, 0, 75, 81
1, 48720, Note_on_c, 0, 75, 0
1, 48720, Note_on_c, 0, 74, 81
1, 48734, Note_on_c, 1, 68, 0
1, 48736, Note_on_c, 1, 71, 67
1, 48744, Note_on_c, 0, 74, 0
1, 48744, Note_on_c, 0, 75, 81
1, 48766, Note_on_c, 1, 71, 0
1, 48768, Note_on_c, 0, 75, 0
1, 48768, Note_on_c, 0, 77, 81
1, 48768, Note_on_c, 1, 61, 67
1, 48798, Note_on_c, 1, 61, 0
1, 48800, Note_on_c, 1, 65, 67
1, 48830, Note_on_c, 1, 65, 0
1, 48832, Note_on_c, 1, 71, 67
1, 48857, Note_on_c, 0, 77, 0
1, 48862, Note_on_c, 1, 71, 0
1, 48864, Note_on_c, 0, 77, 82
1, 48864, Note_on_c, 1, 61, 67
1, 48894, Note_on_c, 1, 61, 0
1, 48896, Note_on_c, 1, 65, 68
1, 48926, Note_on_c, 1, 65, 0
1, 48928, Note_on_c, 1, 71, 68
1, 48953, Note_on_c, 0, 77, 0
1, 48958, Note_on_c, 1, 71, 0
1, 48960, Note_on_c, 0, 77, 82
1, 48960, Note_on_c, 1, 61, 68
1, 48990, Note_on_c, 1, 61, 0
1, 48992, Note_on_c, 1, 65, 68
1, 49022, Note_on_c, 1, 65, 0
1, 49024, Note_on_c, 1, 71, 68
1, 49027, Note_on_c, 0, 77, 0
1, 49032, Note_on_c, 0, 77, 83
1, 49054, Note_on_c, 1, 71, 0
1, 49055, Note_on_c, 0, 77, 0
1, 49056, Note_on_c, 0, 78, 83
1, 49056, Note_on_c, 1, 61, 69
1, 49068, Note_on_c, 0, 78, 0
1, 49068, Note_on_c, 0, 77, 83
1, 49080, Note_on_c, 0, 77, 0
1, 49080, Note_on_c, 0, 78, 83
1, 49086, Note_on_c, 1, 61, 0
1, 49088, Note_on_c, 1, 65, 69
1, 49092, Note_on_c, 0, 78, 0
1, 49092, Note_on_c, 0, 77, 83
1, 49104, Note_on_c, 0, 77, 0
1, 49104, Note_on_c, 0, 75, 83
1, 49118, Note_on_c, 1, 65, 0
1, 49120, Note_on_c, 1, 71, 69
1, 49128, Note_on_c, 0, 75, 0
1, 49128, Note_on_c, 0, 77, 83
1, 49150, Note_on_c, 1, 71, 0
1, 49152, Note_on_c, 0, 77, 0
1, 49152, Note_on_c, 0, 78, 84
1, 49152, Note_on_c, 1, 61, 70
1, 49182, Note_on_c, 1, 61, 0
1, 49184, Note_on_c, 1, 66, 70
1, 49214, Note_on_c, 1, 66, 0
1, 49216, Note_on_c, 1, 70, 70
1, 49241, Note_on_c, 0, 78, 0
1, 49246, Note_on_c, 1, 70, 0
1, 49248, Note_on_c, 0, 78, 84
1, 49248, Note_on_c, 1, 61, 70
1, 49278, Note_on_c, 1, 61, 0
1, 49280, Note_on_c, 1, 66, 70
1, 49310, Note_on_c, 1, 66, 0
1, 49312, Note_on_c, 1, 70, 70
1, 49337, Note_on_c, 0, 78, 0
1, 49342, Note_on_c, 1, 70, 0
1, 49344, Note_on_c, 0, 78, 84
1, 49344, Note_on_c, 1, 61, 70
1, 49374, Note_on_c, 1, 61, 0
1, 49376, Note_on_c, 1, 66, 70
1, 49406, Note_on_c, 1, 66, 0
1, 49408, Note_on_c, 1, 70, 70
1, 49411, Note_on_c, 0, 78, 0
1, 49416, Note_on_c, 0, 78, 84
1, 49438, Note_on_c, 1, 70, 0
1, 49439, Note_on_c, 0, 78, 0
1, 49440, Note_on_c, 0, 80, 84
1, 49440, Note_on_c, 1, 61, 70
1, 49452, Note_on_c, 0, 80, 0
1, 49452, Note_on_c, 0, 78, 84
1, 49464, Note_on_c, 0, 78, 0
1, 49464, Note_on_c, 0, 80, 84
1, 49470, Note_on_c, 1, 61, 0
1, 49472, Note_on_c, 1, 66, 70
1, 49476, Note_on_c, 0, 80, 0
1, 49476, Note_on_c, 0, 78, 84
1, 49488, Note_on_c, 0, 78, 0
1, 49488, Note_on_c, 0, 77, 84
1, 49502, Note_on_c, 1, 66, 0
1, 49504, Note_on_c, 1, 70, 70
1, 49512, Note_on_c, 0, 77, 0
1, 49512, Note_on_c, 0, 78, 84
1, 49534, Note_on_c, 1, 70, 0
1, 49536, Note_on_c, 0, 78, 0
1, 49536, Note_on_c, 0, 83, 84
1, 49536, Note_on_c, 1, 61, 70
1, 49566, Note_on_c, 1, 61, 0
1, 49568, Note_on_c, 1, 65, 70
1, 49598, Note_on_c, 1, 65, 0
1, 49600, Note_on_c, 1, 68, 70
1, 49625, Note_on_c, 0, 83, 0
1, 49630, Note_on_c, 1, 68, 0
1, 49632, Note_on_c, 0, 83, 84
1, 49632, Note_on_c, 1, 61, 70
1, 49662, Note_on_c, 1, 61, 0
1, 49664, Note_on_c, 1, 65, 70
1, 49694, Note_on_c, 1, 65, 0
1, 49696, Note_on_c, 1, 68, 70
1, 49721, Note_on_c, 0, 83, 0
1, 49726, Note_on_c, 1, 68, 0
1, 49728, Note_on_c, 0, 83, 85
1, 49728, Note_on_c, 1, 61, 71
1, 49758, Note_on_c, 1, 61, 0
1, 49760, Note_on_c, 1, 65, 71
1, 49790, Note_on_c, 1, 65, 0
1, 49792, Note_on_c, 1, 68, 71
1, 49795, Note_on_c, 0, 83, 0
1, 49800, Note_on_c, 0, 83, 86
1, 49822, Note_on_c, 1, 68, 0
1, 49823, Note_on_c, 0, 83, 0
1, 49824, Note_on_c, 0, 85, 86
1, 49824, Note_on_c, 1, 61, 71
1, 49836, Note_on_c, 0, 85, 0
1, 49836, Note_on_c, 0, 83, 86
1, 49848, Note_on_c, 0, 83, 0
1, 49848, Note_on_c, 0, 85, 86
1, 49854, Note_on_c, 1, 61, 0
1, 49856, Note_on_c, 1, 65, 71
1, 49860, Note_on_c, 0, 85, 0
1, 49860, Note_on_c, 0, 83, 86
1, 49872, Note_on_c, 0, 83, 0
1, 49872, Note_on_c, 0, 82, 86
1, 49886, Note_on_c, 1, 65, 0
1, 49888, Note_on_c, 1, 68, 72
1, 49896, Note_on_c, 0, 82, 0
1, 49896, Note_on_c, 0, 83, 86
1, 49918, Note_on_c, 1, 68, 0
1, 49920, Note_on_c, 0, 83, 0
1, 49920, Note_on_c, 0, 82, 87
1, 49920, Note_on_c, 1, 62, 72
1, 49950, Note_on_c, 1, 62, 0
1, 49952, Note_on_c, 1, 65, 72
1, 49982, Note_on_c, 1, 65, 0
1, 49984, Note_on_c, 1, 70, 72
1, 50009, Note_on_c, 0, 82, 0
1, 50014, Note_on_c, 1, 70, 0
1, 50016, Note_on_c, 0, 82, 87
1, 50016, Note_on_c, 1, 62, 72
1, 50046, Note_on_c, 1, 62, 0
1, 50048, Note_on_c, 1, 65, 72
1, 50078, Note_on_c, 1, 65, 0
1, 50080, Note_on_c, 1, 70, 73
1, 50105, Note_on_c, 0, 82, 0
1, 50110, Note_on_c, 1, 70, 0
1, 50112, Note_on_c, 0, 82, 88
1, 50112, Note_on_c, 1, 62, 73
1, 50142, Note_on_c, 1, 62, 0
1, 50144, Note_on_c, 1, 65, 73
1, 50174, Note_on_c, 1, 65, 0
1, 50176, Note_on_c, 1, 70, 73
1, 50201, Note_on_c, 0, 82, 0
1, 50206, Note_on_c, 1, 70, 0
1, 50208, Note_on_c, 0, 82, 89
1, 50208, Note_on_c, 1, 62, 73
1, 50220, Note_on_c, 0, 82, 0
1, 50220, Note_on_c, 0, 80, 89
1, 50232, Note_on_c, 0, 80, 0
1, 50232, Note_on_c, 0, 82, 89
1, 50238, Note_on_c, 1, 62, 0
1, 50240, Note_on_c, 1, 65, 74
1, 50244, Note_on_c, 0, 82, 0
1, 50244, Note_on_c, 0, 80, 89
1, 50256, Note_on_c, 0, 80, 0
1, 50256, Note_on_c, 0, 79, 89
1, 50270, Note_on_c, 1, 65, 0
1, 50272, Note_on_c, 1, 70, 74
1, 50280, Note_on_c, 0, 79, 0
1, 50280, Note_on_c, 0, 80, 89
1, 50302, Note_on_c, 1, 70, 0
1, 50304, Note_on_c, 0, 80, 0
1, 50304, Note_on_c, 0, 79, 90
1, 50304, Note_on_c, 1, 63, 74
1, 50334, Note_on_c, 1, 63, 0
1, 50336, Note_on_c, 1, 67, 74
1, 50366, Note_on_c, 1, 67, 0
1, 50368, Note_on_c, 1, 73, 74
1, 50398, Note_on_c, 1, 73, 0
1, 50400, Note_on_c, 1, 63, 74
1, 50430, Note_on_c, 1, 63, 0
1, 50432, Note_on_c, 1, 67, 75
1, 50462, Note_on_c, 1, 67, 0
1, 50464, Note_on_c, 1, 73, 75
1, 50494, Note_on_c, 1, 73, 0
1, 50496, Note_on_c, 0, 79, 0
1, 50496, Note_on_c, 0, 75, 91
1, 50496, Note_on_c, 1, 63, 75
1, 50526, Note_on_c, 1, 63, 0
1, 50528, Note_on_c, 1, 67, 75
1, 50558, Note_on_c, 1, 67, 0
1, 50560, Note_on_c, 1, 73, 75
1, 50590, Note_on_c, 1, 73, 0
1, 50592, Note_on_c, 1, 63, 76
1, 50622, Note_on_c, 1, 63, 0
1, 50624, Note_on_c, 1, 67, 76
1, 50654, Note_on_c, 1, 67, 0
1, 50656, Note_on_c, 1, 73, 76
1, 50673, Note_on_c, 0, 75, 0
1, 50686, Note_on_c, 1, 73, 0
1, 50688, Note_on_c, 0, 84, 93
1, 50688, Note_on_c, 1, 64, 77
1, 50718, Note_on_c, 1, 64, 0
1, 50720, Note_on_c, 1, 67, 77
1, 50750, Note_on_c, 1, 67, 0
1, 50752, Note_on_c, 1, 72, 77
1, 50777, Note_on_c, 0, 84, 0
1, 50782, Note_on_c, 1, 72, 0
1, 50784, Note_on_c, 0, 84, 93
1, 50784, Note_on_c, 1, 64, 77
1, 50814, Note_on_c, 1, 64, 0
1, 50816, Note_on_c, 1, 67, 77
1, 50846, Note_on_c, 1, 67, 0
1, 50848, Note_on_c, 1, 72, 77
1, 50873, Note_on_c, 0, 84, 0
1, 50878, Note_on_c, 1, 72, 0
1, 50880, Note_on_c, 0, 84, 93
1, 50880, Note_on_c, 1, 64, 77
1, 50910, Note_on_c, 1, 64, 0
1, 50912, Note_on_c, 1, 67, 77
1, 50942, Note_on_c, 1, 67, 0
1, 50944, Note_on_c, 1, 72, 77
1, 50969, Note_on_c, 0, 84, 0
1, 50974, Note_on_c, 1, 72, 0
1, 50976, Note_on_c, 0, 84, 93
1, 50976, Note_on_c, 1, 64, 77
1, 50988, Note_on_c, 0, 84, 0
1, 50988, Note_on_c, 0, 82, 93
1, 51000, Note_on_c, 0, 82, 0
1, 51000, Note_on_c, 0, 84, 93
1, 51006, Note_on_c, 1, 64, 0
1, 51008, Note_on_c, 1, 67, 77
1, 51012, Note_on_c, 0, 84, 0
1, 51012, Note_on_c, 0, 82, 93
1, 51024, Note_on_c, 0, 82, 0
1, 51024, Note_on_c, 0, 80, 93
1, 51038, Note_on_c, 1, 67, 0
1, 51040, Note_on_c, 1, 72, 77
1, 51048, Note_on_c, 0, 80, 0
1, 51048, Note_on_c, 0, 82, 93
1, 51070, Note_on_c, 1, 72, 0
1, 51072, Note_on_c, 0, 82, 0
1, 51072, Note_on_c, 0, 80, 93
1, 51072, Note_on_c, 1, 65, 77
1, 51102, Note_on_c, 0, 80, 0
1, 51104, Note_on_c, 0, 84, 92
1, 51134, Note_on_c, 0, 84, 0
1, 51136, Note_on_c, 0, 82, 91
1, 51161, Note_on_c, 1, 65, 0
1, 51166, Note_on_c, 0, 82, 0
1, 51168, Note_on_c, 0, 80, 90
1, 51198, Note_on_c, 0, 80, 0
1, 51200, Note_on_c, 0, 79, 90
1, 51230, Note_on_c, 0, 79, 0
1, 51232, Note_on_c, 0, 77, 89
1, 51262, Note_on_c, 0, 77, 0
1, 51264, Note_on_c, 0, 75, 88
1, 51294, Note_on_c, 0, 75, 0
1, 51296, Note_on_c, 0, 73, 88
1, 51326, Note_on_c, 0, 73, 0
1, 51328, Note_on_c, 0, 72, 87
1, 51358, Note_on_c, 0, 72, 0
1, 51360, Note_on_c, 0, 70, 86
1, 51390, Note_on_c, 0, 70, 0
1, 51392, Note_on_c, 0, 68, 85
1, 51422, Note_on_c, 0, 68, 0
1, 51424, Note_on_c, 0, 67, 85
1, 51454, Note_on_c, 0, 67, 0
1, 51456, Note_on_c, 0, 65, 84
1, 51486, Note_on_c, 0, 65, 0
1, 51488, Note_on_c, 0, 72, 84
1, 51518, Note_on_c, 0, 72, 0
1, 51520, Note_on_c, 0, 70, 84
1, 51550, Note_on_c, 0, 70, 0
1, 51552, Note_on_c, 0, 68, 84
1, 51582, Note_on_c, 0, 68, 0
1, 51584, Note_on_c, 0, 67, 84
1, 51614, Note_on_c, 0, 67, 0
1, 51616, Note_on_c, 0, 65, 84
1, 51646, Note_on_c, 0, 65, 0
1, 51648, Note_on_c, 0, 63, 84
1, 51678, Note_on_c, 0, 63, 0
1, 51680, Note_on_c, 0, 61, 84
1, 51710, Note_on_c, 0, 61, 0
1, 51712, Note_on_c, 0, 60, 84
1, 51742, Note_on_c, 0, 60, 0
1, 51744, Note_on_c, 0, 58, 84
1, 51774, Note_on_c, 0, 58, 0
1, 51776, Note_on_c, 0, 56, 84
1, 51806, Note_on_c, 0, 56, 0
1, 51808, Note_on_c, 0, 55, 84
1, 51838, Note_on_c, 0, 55, 0
1, 51840, Note_on_c, 0, 53, 84
1, 51840, Note_on_c, 1, 45, 77
1, 51870, Note_on_c, 1, 45, 0
1, 51872, Note_on_c, 1, 48, 77
1, 51902, Note_on_c, 1, 48, 0
1, 51904, Note_on_c, 1, 51, 77
1, 51929, Note_on_c, 0, 53, 0
1, 51934, Note_on_c, 1, 51, 0
1, 51936, Note_on_c, 0, 53, 84
1, 51936, Note_on_c, 1, 45, 77
1, 51966, Note_on_c, 1, 45, 0
1, 51968, Note_on_c, 1, 48, 77
1, 51998, Note_on_c, 1, 48, 0
1, 52000, Note_on_c, 1, 51, 77
1, 52025, Note_on_c, 0, 53, 0
1, 52030, Note_on_c, 1, 51, 0
1, 52032, Note_on_c, 0, 53, 84
1, 52032, Note_on_c, 1, 45, 77
1, 52062, Note_on_c, 1, 45, 0
1, 52064, Note_on_c, 1, 48, 77
1, 52094, Note_on_c, 1, 48, 0
1, 52096, Note_on_c, 1, 51, 77
1, 52121, Note_on_c, 0, 53, 0
1, 52126, Note_on_c, 1, 51, 0
1, 52128, Note_on_c, 0, 63, 84
1, 52128, Note_on_c, 1, 45, 77
1, 52158, Note_on_c, 1, 45, 0
1, 52160, Note_on_c, 1, 48, 77
1, 52190, Note_on_c, 1, 48, 0
1, 52192, Note_on_c, 1, 51, 77
1, 52217, Note_on_c, 0, 63, 0
1, 52222, Note_on_c, 1, 51, 0
1, 52224, Note_on_c, 0, 63, 84
1, 52224, Note_on_c, 1, 46, 77
1, 52239, Note_on_c, 0, 63, 0
1, 52240, Note_on_c, 0, 61, 84
1, 52254, Note_on_c, 1, 46, 0
1, 52255, Note_on_c, 0, 61, 0
1, 52256, Note_on_c, 0, 63, 84
1, 52256, Note_on_c, 1, 49, 77
1, 52271, Note_on_c, 0, 63, 0
1, 52272, Note_on_c, 0, 61, 84
1, 52286, Note_on_c, 1, 49, 0
1, 52287, Note_on_c, 0, 61, 0
1, 52288, Note_on_c, 0, 63, 84
1, 52288, Note_on_c, 1, 53, 77
1, 52303, Note_on_c, 0, 63, 0
1, 52304, Note_on_c, 0, 61, 84
1, 52318, Note_on_c, 1, 53, 0
1, 52319, Note_on_c, 0, 61, 0
1, 52320, Note_on_c, 0, 63, 84
1, 52320, Note_on_c, 1, 46, 77
1, 52335, Note_on_c, 0, 63, 0
1, 52336, Note_on_c, 0, 61, 84
1, 52350, Note_on_c, 1, 46, 0
1, 52351, Note_on_c, 0, 61, 0
1, 52352, Note_on_c, 0, 63, 84
1, 52352, Note_on_c, 1, 49, 77
1, 52367, Note_on_c, 0, 63, 0
1, 52368, Note_on_c, 0, 61, 84
1, 52382, Note_on_c, 1, 49, 0
1, 52383, Note_on_c, 0, 61, 0
1, 52384, Note_on_c, 0, 60, 84
1, 52384, Note_on_c, 1, 53, 77
1, 52414, Note_on_c, 1, 53, 0
1, 52415, Note_on_c, 0, 60, 0
1, 52416, Note_on_c, 0, 58, 84
1, 52416, Note_on_c, 1, 46, 77
1, 52446, Note_on_c, 1, 46, 0
1, 52448, Note_on_c, 1, 49, 77
1, 52478, Note_on_c, 1, 49, 0
1, 52480, Note_on_c, 1, 53, 77
1, 52505, Note_on_c, 0, 58, 0
1, 52510, Note_on_c, 1, 53, 0
1, 52512, Note_on_c, 1, 46, 77
1, 52542, Note_on_c, 1, 46, 0
1, 52544, Note_on_c, 1, 49, 77
1, 52574, Note_on_c, 1, 49, 0
1, 52576, Note_on_c, 1, 53, 77
1, 52606, Note_on_c, 1, 53, 0
1, 52608, Note_on_c, 0, 55, 84
1, 52608, Note_on_c, 1, 47, 77
1, 52638, Note_on_c, 1, 47, 0
1, 52640, Note_on_c, 1, 50, 77
1, 52670, Note_on_c, 1, 50, 0
1, 52672, Note_on_c, 1, 53, 77
1, 52697, Note_on_c, 0, 55, 0
1, 52702, Note_on_c, 1, 53, 0
1, 52704, Note_on_c, 0, 55, 84
1, 52704, Note_on_c, 1, 47, 77
1, 52734, Note_on_c, 1, 47, 0
1, 52736, Note_on_c, 1, 50, 77
1, 52766, Note_on_c, 1, 50, 0
1, 52768, Note_on_c, 1, 53, 77
1, 52793, Note_on_c, 0, 55, 0
1, 52798, Note_on_c, 1, 53, 0
1, 52800, Note_on_c, 0, 55, 84
1, 52800, Note_on_c, 1, 47, 77
1, 52830, Note_on_c, 1, 47, 0
1, 52832, Note_on_c, 1, 50, 77
1, 52862, Note_on_c, 1, 50, 0
1, 52864, Note_on_c, 1, 53, 77
1, 52889, Note_on_c, 0, 55, 0
1, 52894, Note_on_c, 1, 53, 0
1, 52896, Note_on_c, 0, 65, 84
1, 52896, Note_on_c, 1, 47, 77
1, 52926, Note_on_c, 1, 47, 0
1, 52928, Note_on_c, 1, 50, 77
1, 52958, Note_on_c, 1, 50, 0
1, 52960, Note_on_c, 1, 53, 77
1, 52985, Note_on_c, 0, 65, 0
1, 52990, Note_on_c, 1, 53, 0
1, 52992, Note_on_c, 0, 64, 84
1, 52992, Note_on_c, 1, 48, 77
1, 53022, Note_on_c, 0, 64, 0
1, 53024, Note_on_c, 0, 62, 84
1, 53054, Note_on_c, 0, 62, 0
1, 53056, Note_on_c, 0, 60, 84
1, 53081, Note_on_c, 1, 48, 0
1, 53086, Note_on_c, 0, 60, 0
1, 53088, Note_on_c, 0, 60, 84
1, 53101, Note_on_c, 0, 60, 0
1, 53120, Note_on_c, 0, 60, 85
1, 53133, Note_on_c, 0, 60, 0
1, 53152, Note_on_c, 0, 60, 85
1, 53165, Note_on_c, 0, 60, 0
1, 53184, Note_on_c, 0, 67, 85
1, 53184, Note_on_c, 1, 52, 77
1, 53184, Note_on_c, 1, 48, 77
1, 53214, Note_on_c, 0, 67, 0
1, 53216, Note_on_c, 0, 65, 86
1, 53246, Note_on_c, 0, 65, 0
1, 53248, Note_on_c, 0, 64, 86
1, 53273, Note_on_c, 1, 52, 0
1, 53273, Note_on_c, 1, 48, 0
1, 53278, Note_on_c, 0, 64, 0
1, 53280, Note_on_c, 0, 64, 86
1, 53293, Note_on_c, 0, 64, 0
1, 53312, Note_on_c, 0, 64, 87
1, 53325, Note_on_c, 0, 64, 0
1, 53344, Note_on_c, 0, 64, 87
1, 53357, Note_on_c, 0, 64, 0
1, 53376, Note_on_c, 0, 70, 88
1, 53376, Note_on_c, 1, 52, 77
1, 53376, Note_on_c, 1, 48, 77
1, 53406, Note_on_c, 0, 70, 0
1, 53408, Note_on_c, 0, 68, 88
1, 53438, Note_on_c, 0, 68, 0
1, 53440, Note_on_c, 0, 67, 88
1, 53465, Note_on_c, 1, 52, 0
1, 53465, Note_on_c, 1, 48, 0
1, 53470, Note_on_c, 0, 67, 0
1, 53472, Note_on_c, 0, 67, 89
1, 53485, Note_on_c, 0, 67, 0
1, 53504, Note_on_c, 0, 67, 89
1, 53517, Note_on_c, 0, 67, 0
1, 53536, Note_on_c, 0, 67, 89
1, 53549, Note_on_c, 0, 67, 0
1, 53568, Note_on_c, 0, 79, 90
1, 53568, Note_on_c, 1, 52, 77
1, 53568, Note_on_c, 1, 48, 77
1, 53598, Note_on_c, 0, 79, 0
1, 53600, Note_on_c, 0, 77, 90
1, 53630, Note_on_c, 0, 77, 0
1, 53632, Note_on_c, 0, 76, 90
1, 53657, Note_on_c, 1, 52, 0
1, 53657, Note_on_c, 1, 48, 0
1, 53662, Note_on_c, 0, 76, 0
1, 53664, Note_on_c, 0, 73, 91
1, 53694, Note_on_c, 0, 73, 0
1, 53696, Note_on_c, 0, 72, 91
1, 53726, Note_on_c, 0, 72, 0
1, 53728, Note_on_c, 0, 70, 92
1, 53758, Note_on_c, 0, 70, 0
1, 53760, Note_on_c, 0, 68, 93
1, 53760, Note_on_c, 1, 56, 77
1, 53760, Note_on_c, 1, 53, 77
1, 53790, Note_on_c, 0, 68, 0
1, 53792, Note_on_c, 0, 72, 93
1, 53822, Note_on_c, 0, 72, 0
1, 53824, Note_on_c, 0, 77, 93
1, 53837, Note_on_c, 0, 77, 0
1, 53849, Note_on_c, 1, 56, 0
1, 53849, Note_on_c, 1, 53, 0
1, 53856, Note_on_c, 0, 77, 93
1, 53869, Note_on_c, 0, 77, 0
1, 53888, Note_on_c, 0, 77, 93
1, 53901, Note_on_c, 0, 77, 0
1, 53920, Note_on_c, 0, 77, 93
1, 53933, Note_on_c, 0, 77, 0
1, 53952, Note_on_c, 0, 76, 93
1, 53952, Note_on_c, 1, 55, 77
1, 53952, Note_on_c, 1, 48, 77
1, 53982, Note_on_c, 0, 76, 0
1, 53984, Note_on_c, 0, 79, 93
1, 54014, Note_on_c, 0, 79, 0
1, 54016, Note_on_c, 0, 82, 93
1, 54029, Note_on_c, 0, 82, 0
1, 54041, Note_on_c, 1, 55, 0
1, 54041, Note_on_c, 1, 48, 0
1, 54048, Note_on_c, 0, 82, 93
1, 54061, Note_on_c, 0, 82, 0
1, 54080, Note_on_c, 0, 82, 93
1, 54093, Note_on_c, 0, 82, 0
1, 54112, Note_on_c, 0, 82, 93
1, 54125, Note_on_c, 0, 82, 0
1, 54144, Note_on_c, 0, 80, 93
1, 54144, Note_on_c, 1, 56, 77
1, 54144, Note_on_c, 1, 53, 77
1, 54174, Note_on_c, 0, 80, 0
1, 54176, Note_on_c, 0, 84, 93
1, 54206, Note_on_c, 0, 84, 0
1, 54208, Note_on_c, 0, 89, 93
1, 54221, Note_on_c, 0, 89, 0
1, 54233, Note_on_c, 1, 56, 0
1, 54233, Note_on_c, 1, 53, 0
1, 54240, Note_on_c, 0, 89, 93
1, 54253, Note_on_c, 0, 89, 0
1, 54272, Note_on_c, 0, 89, 93
1, 54285, Note_on_c, 0, 89, 0
1, 54304, Note_on_c, 0, 89, 93
1, 54317, Note_on_c, 0, 89, 0
1, 54336, Note_on_c, 0, 79, 93
1, 54336, Note_on_c, 1, 58, 77
1, 54336, Note_on_c, 1, 46, 77
1, 54366, Note_on_c, 0, 79, 0
1, 54368, Note_on_c, 0, 82, 93
1, 54398, Note_on_c, 0, 82, 0
1, 54400, Note_on_c, 0, 85, 93
1, 54413, Note_on_c, 0, 85, 0
1, 54425, Note_on_c, 1, 58, 0
1, 54425, Note_on_c, 1, 46, 0
1, 54432, Note_on_c, 0, 85, 93
1, 54445, Note_on_c, 0, 85, 0
1, 54464, Note_on_c, 0, 85, 93
1, 54477, Note_on_c, 0, 85, 0
1, 54496, Note_on_c, 0, 85, 93
1, 54509, Note_on_c, 0, 85, 0
1, 54528, Note_on_c, 1, 60, 77
1, 54617, Note_on_c, 1, 60, 0
1, 54624, Note_on_c, 0, 84, 81
1, 54624, Note_on_c, 0, 80, 81
1, 54713, Note_on_c, 0, 84, 0
1, 54713, Note_on_c, 0, 80, 0
1, 54720, Note_on_c, 1, 48, 70
1, 54809, Note_on_c, 1, 48, 0
1, 54816, Note_on_c, 0, 76, 75
1, 54816, Note_on_c, 0, 70, 75
1, 54905, Note_on_c, 0, 76, 0
1, 54905, Note_on_c, 0, 70, 0
1, 54912, Note_on_c, 0, 75, 72
1, 54912, Note_on_c, 1, 57, 63
1, 54942, Note_on_c, 1, 57, 0
1, 54944, Note_on_c, 1, 60, 63
1, 54974, Note_on_c, 1, 60, 0
1, 54976, Note_on_c, 1, 66, 63
1, 55001, Note_on_c, 0, 75, 0
1, 55006, Note_on_c, 1, 66, 0
1, 55008, Note_on_c, 0, 75, 70
1, 55008, Note_on_c, 1, 57, 63
1, 55038, Note_on_c, 1, 57, 0
1, 55040, Note_on_c, 1, 60, 63
1, 55070, Note_on_c, 1, 60, 0
1, 55072, Note_on_c, 1, 66, 63
1, 55097, Note_on_c, 0, 75, 0
1, 55102, Note_on_c, 1, 66, 0
1, 55104, Note_on_c, 0, 75, 70
1, 55104, Note_on_c, 1, 57, 63
1, 55134, Note_on_c, 1, 57, 0
1, 55136, Note_on_c, 1, 60, 63
1, 55166, Note_on_c, 1, 60, 0
1, 55168, Note_on_c, 1, 66, 63
1, 55193, Note_on_c, 0, 75, 0
1, 55198, Note_on_c, 1, 66, 0
1, 55200, Note_on_c, 0, 75, 70
1, 55200, Note_on_c, 1, 57, 63
1, 55230, Note_on_c, 1, 57, 0
1, 55232, Note_on_c, 1, 60, 63
1, 55262, Note_on_c, 1, 60, 0
1, 55264, Note_on_c, 1, 66, 63
1, 55289, Note_on_c, 0, 75, 0
1, 55294, Note_on_c, 1, 66, 0
1, 55296, Note_on_c, 0, 74, 70
1, 55296, Note_on_c, 1, 58, 63
1, 55326, Note_on_c, 1, 58, 0
1, 55328, Note_on_c, 1, 65, 64
1, 55358, Note_on_c, 1, 65, 0
1, 55360, Note_on_c, 1, 68, 65
1, 55390, Note_on_c, 1, 68, 0
1, 55392, Note_on_c, 1, 58, 66
1, 55422, Note_on_c, 1, 58, 0
1, 55424, Note_on_c, 1, 65, 67
1, 55454, Note_on_c, 1, 65, 0
1, 55456, Note_on_c, 1, 68, 68
1, 55486, Note_on_c, 1, 68, 0
1, 55488, Note_on_c, 0, 74, 0
1, 55488, Note_on_c, 0, 70, 75
1, 55488, Note_on_c, 1, 58, 69
1, 55518, Note_on_c, 1, 58, 0
1, 55520, Note_on_c, 1, 65, 70
1, 55550, Note_on_c, 1, 65, 0
1, 55552, Note_on_c, 1, 68, 71
1, 55582, Note_on_c, 1, 68, 0
1, 55584, Note_on_c, 1, 58, 72
1, 55614, Note_on_c, 1, 58, 0
1, 55616, Note_on_c, 1, 65, 73
1, 55646, Note_on_c, 1, 65, 0
1, 55648, Note_on_c, 1, 68, 74
1, 55665, Note_on_c, 0, 70, 0
1, 55678, Note_on_c, 1, 68, 0
1, 55680, Note_on_c, 0, 73, 81
1, 55680, Note_on_c, 1, 55, 75
1, 55710, Note_on_c, 1, 55, 0
1, 55712, Note_on_c, 1, 58, 77
1, 55742, Note_on_c, 1, 58, 0
1, 55744, Note_on_c, 1, 63, 77
1, 55769, Note_on_c, 0, 73, 0
1, 55774, Note_on_c, 1, 63, 0
1, 55776, Note_on_c, 0, 73, 84
1, 55776, Note_on_c, 1, 55, 77
1, 55806, Note_on_c, 1, 55, 0
1, 55808, Note_on_c, 1, 58, 77
1, 55838, Note_on_c, 1, 58, 0
1, 55840, Note_on_c, 1, 63, 77
1, 55865, Note_on_c, 0, 73, 0
1, 55870, Note_on_c, 1, 63, 0
1, 55872, Note_on_c, 0, 75, 84
1, 55872, Note_on_c, 1, 55, 77
1, 55884, Note_on_c, 0, 75, 0
1, 55884, Note_on_c, 0, 73, 84
1, 55896, Note_on_c, 0, 73, 0
1, 55896, Note_on_c, 0, 75, 84
1, 55902, Note_on_c, 1, 55, 0
1, 55904, Note_on_c, 1, 58, 77
1, 55908, Note_on_c, 0, 75, 0
1, 55908, Note_on_c, 0, 73, 84
1, 55920, Note_on_c, 0, 73, 0
1, 55920, Note_on_c, 0, 75, 84
1, 55932, Note_on_c, 0, 75, 0
1, 55932, Note_on_c, 0, 73, 84
1, 55934, Note_on_c, 1, 58, 0
1, 55936, Note_on_c, 1, 63, 77
1, 55944, Note_on_c, 0, 73, 0
1, 55944, Note_on_c, 0, 72, 84
1, 55956, Note_on_c, 0, 72, 0
1, 55956, Note_on_c, 0, 73, 84
1, 55966, Note_on_c, 1, 63, 0
1, 55968, Note_on_c, 0, 73, 0
1, 55968, Note_on_c, 0, 82, 84
1, 55968, Note_on_c, 1, 55, 77
1, 55998, Note_on_c, 1, 55, 0
1, 56000, Note_on_c, 1, 58, 77
1, 56013, Note_on_c, 0, 82, 0
1, 56016, Note_on_c, 0, 73, 84
1, 56030, Note_on_c, 1, 58, 0
1, 56032, Note_on_c, 1, 63, 77
1, 56061, Note_on_c, 0, 73, 0
1, 56062, Note_on_c, 1, 63, 0
1, 56064, Note_on_c, 0, 72, 84
1, 56064, Note_on_c, 1, 56, 77
1, 56094, Note_on_c, 1, 56, 0
1, 56096, Note_on_c, 1, 60, 77
1, 56126, Note_on_c, 1, 60, 0
1, 56128, Note_on_c, 1, 63, 77
1, 56153, Note_on_c, 0, 72, 0
1, 56158, Note_on_c, 1, 63, 0
1, 56160, Note_on_c, 0, 72, 84
1, 56160, Note_on_c, 1, 56, 77
1, 56190, Note_on_c, 1, 56, 0
1, 56192, Note_on_c, 1, 60, 77
1, 56222, Note_on_c, 1, 60, 0
1, 56224, Note_on_c, 1, 63, 77
1, 56249, Note_on_c, 0, 72, 0
1, 56254, Note_on_c, 1, 63, 0
1, 56256, Note_on_c, 0, 73, 84
1, 56256, Note_on_c, 1, 48, 77
1, 56268, Note_on_c, 0, 73, 0
1, 56268, Note_on_c, 0, 72, 84
1, 56280, Note_on_c, 0, 72, 0
1, 56280, Note_on_c, 0, 73, 84
1, 56286, Note_on_c, 1, 48, 0
1, 56288, Note_on_c, 1, 51, 77
1, 56292, Note_on_c, 0, 73, 0
1, 56292, Note_on_c, 0, 72, 84
1, 56304, Note_on_c, 0, 72, 0
1, 56304, Note_on_c, 0, 73, 84
1, 56316, Note_on_c, 0, 73, 0
1, 56316, Note_on_c, 0, 72, 84
1, 56318, Note_on_c, 1, 51, 0
1, 56320, Note_on_c, 1, 56, 77
1, 56328, Note_on_c, 0, 72, 0
1, 56328, Note_on_c, 0, 70, 84
1, 56340, Note_on_c, 0, 70, 0
1, 56340, Note_on_c, 0, 72, 84
1, 56350, Note_on_c, 1, 56, 0
1, 56352, Note_on_c, 0, 72, 0
1, 56352, Note_on_c, 0, 75, 84
1, 56352, Note_on_c, 1, 48, 77
1, 56382, Note_on_c, 1, 48, 0
1, 56384, Note_on_c, 1, 51, 77
1, 56397, Note_on_c, 0, 75, 0
1, 56400, Note_on_c, 0, 72, 84
1, 56414, Note_on_c, 1, 51, 0
1, 56416, Note_on_c, 1, 56, 78
1, 56445, Note_on_c, 0, 72, 0
1, 56446, Note_on_c, 1, 56, 0
1, 56448, Note_on_c, 0, 70, 84
1, 56448, Note_on_c, 1, 49, 79
1, 56478, Note_on_c, 1, 49, 0
1, 56480, Note_on_c, 1, 53, 79
1, 56510, Note_on_c, 1, 53, 0
1, 56512, Note_on_c, 1, 56, 80
1, 56537, Note_on_c, 0, 70, 0
1, 56542, Note_on_c, 1, 56, 0
1, 56544, Note_on_c, 0, 70, 84
1, 56544, Note_on_c, 1, 49, 81
1, 56574, Note_on_c, 1, 49, 0
1, 56576, Note_on_c, 1, 53, 82
1, 56606, Note_on_c, 1, 53, 0
1, 56608, Note_on_c, 1, 56, 82
1, 56633, Note_on_c, 0, 70, 0
1, 56638, Note_on_c, 1, 56, 0
1, 56640, Note_on_c, 0, 72, 84
1, 56640, Note_on_c, 1, 50, 84
1, 56652, Note_on_c, 0, 72, 0
1, 56652, Note_on_c, 0, 70, 84
1, 56664, Note_on_c, 0, 70, 0
1, 56664, Note_on_c, 0, 72, 84
1, 56670, Note_on_c, 1, 50, 0
1, 56672, Note_on_c, 1, 53, 84
1, 56676, Note_on_c, 0, 72, 0
1, 56676, Note_on_c, 0, 70, 84
1, 56688, Note_on_c, 0, 70, 0
1, 56688, Note_on_c, 0, 72, 84
1, 56700, Note_on_c, 0, 72, 0
1, 56700, Note_on_c, 0, 70, 84
1, 56702, Note_on_c, 1, 53, 0
1, 56704, Note_on_c, 1, 58, 84
1, 56712, Note_on_c, 0, 70, 0
1, 56712, Note_on_c, 0, 69, 84
1, 56724, Note_on_c, 0, 69, 0
1, 56724, Note_on_c, 0, 70, 84
1, 56734, Note_on_c, 1, 58, 0
1, 56736, Note_on_c, 0, 70, 0
1, 56736, Note_on_c, 0, 77, 84
1, 56736, Note_on_c, 1, 50, 84
1, 56766, Note_on_c, 1, 50, 0
1, 56768, Note_on_c, 1, 53, 84
1, 56781, Note_on_c, 0, 77, 0
1, 56784, Note_on_c, 0, 68, 84
1, 56798, Note_on_c, 1, 53, 0
1, 56800, Note_on_c, 1, 58, 84
1, 56829, Note_on_c, 0, 68, 0
1, 56830, Note_on_c, 1, 58, 0
1, 56832, Note_on_c, 0, 67, 84
1, 56832, Note_on_c, 1, 51, 84
1, 56862, Note_on_c, 0, 67, 0
1, 56864, Note_on_c, 0, 70, 84
1, 56894, Note_on_c, 0, 70, 0
1, 56896, Note_on_c, 0, 68, 84
1, 56926, Note_on_c, 0, 68, 0
1, 56928, Note_on_c, 0, 67, 84
1, 56958, Note_on_c, 0, 67, 0
1, 56960, Note_on_c, 0, 79, 84
1, 56990, Note_on_c, 0, 79, 0
1, 56992, Note_on_c, 0, 77, 84
1, 57009, Note_on_c, 1, 51, 0
1, 57022, Note_on_c, 0, 77, 0
1, 57024, Note_on_c, 0, 75, 84
1, 57054, Note_on_c, 0, 75, 0
1, 57056, Note_on_c, 0, 82, 84
1, 57086, Note_on_c, 0, 82, 0
1, 57088, Note_on_c, 0, 80, 84
1, 57118, Note_on_c, 0, 80, 0
1, 57120, Note_on_c, 0, 79, 84
1, 57150, Note_on_c, 0, 79, 0
1, 57152, Note_on_c, 0, 77, 84
1, 57182, Note_on_c, 0, 77, 0
1, 57184, Note_on_c, 0, 75, 84
1, 57214, Note_on_c, 0, 75, 0
1, 57216, Note_on_c, 0, 74, 84
1, 57216, Note_on_c, 1, 56, 84
1, 57216, Note_on_c, 1, 53, 84
1, 57246, Note_on_c, 0, 74, 0
1, 57248, Note_on_c, 0, 77, 84
1, 57278, Note_on_c, 0, 77, 0
1, 57280, Note_on_c, 0, 75, 84
1, 57310, Note_on_c, 0, 75, 0
1, 57312, Note_on_c, 0, 74, 84
1, 57342, Note_on_c, 0, 74, 0
1, 57344, Note_on_c, 0, 80, 84
1, 57374, Note_on_c, 0, 80, 0
1, 57376, Note_on_c, 0, 79, 84
1, 57393, Note_on_c, 1, 56, 0
1, 57393, Note_on_c, 1, 53, 0
1, 57406, Note_on_c, 0, 79, 0
1, 57408, Note_on_c, 0, 77, 84
1, 57438, Note_on_c, 0, 77, 0
1, 57440, Note_on_c, 0, 84, 84
1, 57470, Note_on_c, 0, 84, 0
1, 57472, Note_on_c, 0, 82, 84
1, 57502, Note_on_c, 0, 82, 0
1, 57504, Note_on_c, 0, 80, 84
1, 57534, Note_on_c, 0, 80, 0
1, 57536, Note_on_c, 0, 79, 84
1, 57566, Note_on_c, 0, 79, 0
1, 57568, Note_on_c, 0, 77, 84
1, 57598, Note_on_c, 0, 77, 0
1, 57600, Note_on_c, 0, 75, 84
1, 57648, Note_on_c, 0, 75, 0
1, 57648, Note_on_c, 0, 74, 82
1, 57693, Note_on_c, 0, 74, 0
1, 57696, Note_on_c, 0, 77, 80
1, 57744, Note_on_c, 0, 77, 0
1, 57744, Note_on_c, 0, 75, 78
1, 57789, Note_on_c, 0, 75, 0
1, 57792, Note_on_c, 0, 79, 77
1, 57840, Note_on_c, 0, 79, 0
1, 57840, Note_on_c, 0, 77, 75
1, 57885, Note_on_c, 0, 77, 0
1, 57888, Note_on_c, 0, 80, 73
1, 57936, Note_on_c, 0, 80, 0
1, 57936, Note_on_c, 0, 79, 71
1, 57981, Note_on_c, 0, 79, 0
1, 57984, Note_on_c, 0, 82, 70
1, 58029, Note_on_c, 0, 82, 0
1, 58032, Note_on_c, 0, 80, 68
1, 58077, Note_on_c, 0, 80, 0
1, 58080, Note_on_c, 0, 84, 66
1, 58169, Note_on_c, 0, 84, 0
1, 58176, Note_on_c, 0, 82, 63
1, 58265, Note_on_c, 0, 82, 0
1, 58272, Note_on_c, 0, 80, 63
1, 58361, Note_on_c, 0, 80, 0
1, 58368, Note_on_c, 0, 79, 63
1, 58457, Note_on_c, 0, 79, 0
1, 58464, Note_on_c, 0, 77, 63
1, 58553, Note_on_c, 0, 77, 0
1, 58560, Note_on_c, 0, 75, 63
1, 58649, Note_on_c, 0, 75, 0
1, 58656, Note_on_c, 0, 74, 63
1, 58656, Note_on_c, 1, 53, 63
1, 58668, Note_on_c, 1, 56, 63
1, 58680, Note_on_c, 1, 58, 63
1, 58692, Note_on_c, 1, 62, 63
1, 58745, Note_on_c, 0, 74, 0
1, 58752, Note_on_c, 0, 80, 63
1, 59106, Note_on_c, 0, 80, 0
1, 59106, Note_on_c, 1, 62, 0
1, 59106, Note_on_c, 1, 58, 0
1, 59106, Note_on_c, 1, 56, 0
1, 59106, Note_on_c, 1, 53, 0
1, 59136, Note_on_c, 0, 79, 63
1, 59225, Note_on_c, 0, 79, 0
1, 59232, Note_on_c, 0, 80, 63
1, 59321, Note_on_c, 0, 80, 0
1, 59328, Note_on_c, 0, 82, 63
1, 59417, Note_on_c, 0, 82, 0
1, 59424, Note_on_c, 0, 80, 63
1, 59513, Note_on_c, 0, 80, 0
1, 59520, Note_on_c, 0, 80, 63
1, 59785, Note_on_c, 0, 80, 0
1, 59808, Note_on_c, 0, 74, 63
1, 59935, Note_on_c, 0, 74, 0
1, 59936, Note_on_c, 0, 77, 63
1, 59951, Note_on_c, 0, 77, 0
1, 59952, Note_on_c, 0, 75, 63
1, 59967, Note_on_c, 0, 75, 0
1, 59968, Note_on_c, 0, 77, 63
1, 59983, Note_on_c, 0, 77, 0
1, 59984, Note_on_c, 0, 75, 63
1, 59999, Note_on_c, 0, 75, 0
1, 60000, Note_on_c, 0, 77, 63
1, 60015, Note_on_c, 0, 77, 0
1, 60016, Note_on_c, 0, 75, 63
1, 60031, Note_on_c, 0, 75, 0
1, 60032, Note_on_c, 0, 77, 63
1, 60047, Note_on_c, 0, 77, 0
1, 60048, Note_on_c, 0, 75, 63
1, 60063, Note_on_c, 0, 75, 0
1, 60064, Note_on_c, 0, 77, 63
1, 60079, Note_on_c, 0, 77, 0
1, 60080, Note_on_c, 0, 75, 63
1, 60095, Note_on_c, 0, 75, 0
1, 60096, Note_on_c, 0, 77, 63
1, 60111, Note_on_c, 0, 77, 0
1, 60112, Note_on_c, 0, 75, 63
1, 60127, Note_on_c, 0, 75, 0
1, 60128, Note_on_c, 0, 77, 63
1, 60143, Note_on_c, 0, 77, 0
1, 60144, Note_on_c, 0, 75, 63
1, 60159, Note_on_c, 0, 75, 0
1, 60160, Note_on_c, 0, 77, 63
1, 60175, Note_on_c, 0, 77, 0
1, 60176, Note_on_c, 0, 75, 63
1, 60191, Note_on_c, 0, 75, 0
1, 60192, Note_on_c, 0, 74, 63
1, 60239, Note_on_c, 0, 74, 0
1, 60240, Note_on_c, 0, 75, 63
1, 60287, Note_on_c, 0, 75, 0
1, 60288, Note_on_c, 1, 39, 77
1, 60465, Note_on_c, 1, 39, 0
1, 60576, Note_on_c, 0, 63, 77
1, 60643, Note_on_c, 0, 63, 0
1, 60648, Note_on_c, 0, 60, 77
1, 60671, Note_on_c, 0, 60, 0
1, 60672, Note_on_c, 0, 68, 77
1, 60672, Note_on_c, 1, 56, 77
1, 60672, Note_on_c, 1, 44, 77
1, 60739, Note_on_c, 0, 68, 0
1, 60744, Note_on_c, 0, 68, 77
1, 60761, Note_on_c, 1, 56, 0
1, 60761, Note_on_c, 1, 44, 0
1, 60767, Note_on_c, 0, 68, 0
1, 60768, Note_on_c, 0, 70, 77
1, 60780, Note_on_c, 0, 70, 0
1, 60780, Note_on_c, 0, 68, 77
1, 60792, Note_on_c, 0, 68, 0
1, 60792, Note_on_c, 0, 70, 77
1, 60804, Note_on_c, 0, 70, 0
1, 60804, Note_on_c, 0, 68, 77
1, 60816, Note_on_c, 0, 68, 0
1, 60816, Note_on_c, 0, 67, 77
1, 60840, Note_on_c, 0, 67, 0
1, 60840, Note_on_c, 0, 68, 77
1, 60864, Note_on_c, 0, 68, 0
1, 60864, Note_on_c, 0, 70, 77
1, 60864, Note_on_c, 1, 55, 77
1, 60864, Note_on_c, 1, 43, 77
1, 60953, Note_on_c, 0, 70, 0
1, 60953, Note_on_c, 1, 55, 0
1, 60953, Note_on_c, 1, 43, 0
1, 60960, Note_on_c, 0, 63, 77
1, 61027, Note_on_c, 0, 63, 0
1, 61032, Note_on_c, 0, 75, 77
1, 61055, Note_on_c, 0, 75, 0
1, 61056, Note_on_c, 0, 73, 77
1, 61152, Note_on_c, 1, 44, 77
1, 61248, Note_on_c, 0, 73, 0
1, 61248, Note_on_c, 0, 72, 77
1, 61248, Note_on_c, 1, 44, 0
1, 61248, Note_on_c, 1, 56, 77
1, 61268, Note_on_c, 0, 72, 0
1, 61293, Note_on_c, 1, 56, 0
1, 61344, Note_on_c, 0, 68, 77
1, 61411, Note_on_c, 0, 68, 0
1, 61416, Note_on_c, 0, 77, 77
1, 61439, Note_on_c, 0, 77, 0
1, 61440, Note_on_c, 0, 75, 77
1, 61536, Note_on_c, 1, 58, 77
1, 61632, Note_on_c, 0, 75, 0
1, 61632, Note_on_c, 0, 73, 77
1, 61632, Note_on_c, 1, 58, 0
1, 61632, Note_on_c, 1, 55, 77
1, 61652, Note_on_c, 0, 73, 0
1, 61677, Note_on_c, 1, 55, 0
1, 61728, Note_on_c, 0, 63, 77
1, 61795, Note_on_c, 0, 63, 0
1, 61800, Note_on_c, 0, 75, 77
1, 61823, Note_on_c, 0, 75, 0
1, 61824, Note_on_c, 0, 73, 77
1, 61920, Note_on_c, 1, 56, 77
1, 62016, Note_on_c, 0, 73, 0
1, 62016, Note_on_c, 0, 72, 77
1, 62016, Note_on_c, 1, 56, 0
1, 62016, Note_on_c, 1, 44, 77
1, 62036, Note_on_c, 0, 72, 0
1, 62061, Note_on_c, 1, 44, 0
1, 62112, Note_on_c, 0, 80, 77
1, 62112, Note_on_c, 1, 48, 77
1, 62179, Note_on_c, 0, 80, 0
1, 62184, Note_on_c, 0, 72, 77
1, 62201, Note_on_c, 1, 48, 0
1, 62207, Note_on_c, 0, 72, 0
1, 62208, Note_on_c, 0, 70, 77
1, 62208, Note_on_c, 1, 49, 77
1, 62275, Note_on_c, 0, 70, 0
1, 62280, Note_on_c, 0, 70, 77
1, 62303, Note_on_c, 0, 70, 0
1, 62304, Note_on_c, 0, 72, 77
1, 62316, Note_on_c, 0, 72, 0
1, 62316, Note_on_c, 0, 70, 77
1, 62328, Note_on_c, 0, 70, 0
1, 62328, Note_on_c, 0, 72, 77
1, 62340, Note_on_c, 0, 72, 0
1, 62340, Note_on_c, 0, 70, 77
1, 62352, Note_on_c, 0, 70, 0
1, 62352, Note_on_c, 0, 69, 77
1, 62376, Note_on_c, 0, 69, 0
1, 62376, Note_on_c, 0, 70, 77
1, 62385, Note_on_c, 1, 49, 0
1, 62400, Note_on_c, 0, 70, 0
1, 62400, Note_on_c, 0, 73, 77
1, 62467, Note_on_c, 0, 73, 0
1, 62472, Note_on_c, 0, 70, 77
1, 62495, Note_on_c, 0, 70, 0
1, 62496, Note_on_c, 0, 67, 77
1, 62496, Note_on_c, 1, 51, 77
1, 62563, Note_on_c, 0, 67, 0
1, 62568, Note_on_c, 0, 63, 77
1, 62585, Note_on_c, 1, 51, 0
1, 62591, Note_on_c, 0, 63, 0
1, 62592, Note_on_c, 0, 68, 77
1, 62631, Note_on_c, 0, 68, 0
1, 62664, Note_on_c, 1, 44, 77
1, 62687, Note_on_c, 1, 44, 0
1, 62688, Note_on_c, 1, 48, 77
1, 62755, Note_on_c, 1, 48, 0
1, 62760, Note_on_c, 1, 51, 77
1, 62783, Note_on_c, 1, 51, 0
1, 62784, Note_on_c, 1, 56, 77
1, 62823, Note_on_c, 1, 56, 0
1, 62880, Note_on_c, 0, 63, 77
1, 62947, Note_on_c, 0, 63, 0
1, 62952, Note_on_c, 0, 60, 77
1, 62975, Note_on_c, 0, 60, 0
1, 62976, Note_on_c, 0, 68, 77
1, 62976, Note_on_c, 1, 60, 77
1, 62976, Note_on_c, 1, 56, 77
1, 63043, Note_on_c, 0, 68, 0
1, 63048, Note_on_c, 0, 68, 77
1, 63065, Note_on_c, 1, 60, 0
1, 63065, Note_on_c, 1, 56, 0
1, 63071, Note_on_c, 0, 68, 0
1, 63072, Note_on_c, 0, 70, 77
1, 63084, Note_on_c, 0, 70, 0
1, 63084, Note_on_c, 0, 68, 77
1, 63096, Note_on_c, 0, 68, 0
1, 63096, Note_on_c, 0, 70, 77
1, 63108, Note_on_c, 0, 70, 0
1, 63108, Note_on_c, 0, 68, 77
1, 63120, Note_on_c, 0, 68, 0
1, 63120, Note_on_c, 0, 67, 77
1, 63144, Note_on_c, 0, 67, 0
1, 63144, Note_on_c, 0, 68, 77
1, 63168, Note_on_c, 0, 68, 0
1, 63168, Note_on_c, 0, 70, 77
1, 63168, Note_on_c, 1, 58, 77
1, 63168, Note_on_c, 1, 55, 77
1, 63257, Note_on_c, 0, 70, 0
1, 63257, Note_on_c, 1, 58, 0
1, 63257, Note_on_c, 1, 55, 0
1, 63264, Note_on_c, 0, 63, 77
1, 63331, Note_on_c, 0, 63, 0
1, 63336, Note_on_c, 0, 75, 77
1, 63359, Note_on_c, 0, 75, 0
1, 63360, Note_on_c, 0, 73, 77
1, 63456, Note_on_c, 1, 44, 77
1, 63552, Note_on_c, 0, 73, 0
1, 63552, Note_on_c, 0, 72, 77
1, 63552, Note_on_c, 1, 44, 0
1, 63552, Note_on_c, 1, 56, 77
1, 63572, Note_on_c, 0, 72, 0
1, 63641, Note_on_c, 1, 56, 0
1, 63648, Note_on_c, 0, 68, 77
1, 63648, Note_on_c, 1, 60, 77
1, 63715, Note_on_c, 0, 68, 0
1, 63720, Note_on_c, 0, 80, 77
1, 63737, Note_on_c, 1, 60, 0
1, 63743, Note_on_c, 0, 80, 0
1, 63744, Note_on_c, 0, 79, 77
1, 63840, Note_on_c, 0, 79, 0
1, 63840, Note_on_c, 0, 77, 77
1, 63840, Note_on_c, 1, 61, 77
1, 63869, Note_on_c, 0, 77, 0
1, 63879, Note_on_c, 1, 61, 0
1, 63912, Note_on_c, 0, 80, 77
1, 63935, Note_on_c, 0, 80, 0
1, 63936, Note_on_c, 0, 77, 77
1, 64032, Note_on_c, 0, 77, 0
1, 64032, Note_on_c, 0, 75, 77
1, 64032, Note_on_c, 1, 60, 77
1, 64061, Note_on_c, 0, 75, 0
1, 64071, Note_on_c, 1, 60, 0
1, 64104, Note_on_c, 0, 80, 77
1, 64127, Note_on_c, 0, 80, 0
1, 64128, Note_on_c, 0, 75, 77
1, 64224, Note_on_c, 0, 75, 0
1, 64224, Note_on_c, 0, 73, 77
1, 64224, Note_on_c, 1, 58, 77
1, 64253, Note_on_c, 0, 73, 0
1, 64263, Note_on_c, 1, 58, 0
1, 64296, Note_on_c, 0, 80, 77
1, 64319, Note_on_c, 0, 80, 0
1, 64320, Note_on_c, 0, 73, 77
1, 64416, Note_on_c, 0, 73, 0
1, 64416, Note_on_c, 0, 72, 77
1, 64416, Note_on_c, 1, 56, 77
1, 64445, Note_on_c, 0, 72, 0
1, 64455, Note_on_c, 1, 56, 0
1, 64488, Note_on_c, 0, 80, 77
1, 64511, Note_on_c, 0, 80, 0
1, 64512, Note_on_c, 0, 72, 77
1, 64579, Note_on_c, 0, 72, 0
1, 64584, Note_on_c, 0, 70, 80
1, 64607, Note_on_c, 0, 70, 0
1, 64608, Note_on_c, 0, 73, 81
1, 64608, Note_on_c, 1, 49, 77
1, 64608, Note_on_c, 1, 61, 63
1, 64675, Note_on_c, 0, 73, 0
1, 64680, Note_on_c, 0, 77, 84
1, 64697, Note_on_c, 1, 49, 0
1, 64697, Note_on_c, 1, 61, 0
1, 64703, Note_on_c, 0, 77, 0
1, 64704, Note_on_c, 0, 75, 84
1, 64704, Note_on_c, 1, 51, 77
1, 64704, Note_on_c, 1, 60, 63
1, 64793, Note_on_c, 0, 75, 0
1, 64793, Note_on_c, 1, 60, 0
1, 64800, Note_on_c, 0, 67, 80
1, 64800, Note_on_c, 1, 58, 63
1, 64881, Note_on_c, 1, 51, 0
1, 64889, Note_on_c, 0, 67, 0
1, 64889, Note_on_c, 1, 58, 0
1, 64896, Note_on_c, 0, 67, 77
1, 64896, Note_on_c, 1, 56, 63
1, 64908, Note_on_c, 0, 67, 0
1, 64908, Note_on_c, 0, 68, 77
1, 64926, Note_on_c, 1, 56, 0
1, 64928, Note_on_c, 1, 60, 63
1, 64958, Note_on_c, 1, 60, 0
1, 64960, Note_on_c, 1, 63, 63
1, 64986, Note_on_c, 0, 68, 0
1, 64990, Note_on_c, 1, 63, 0
1, 64992, Note_on_c, 0, 67, 77
1, 64992, Note_on_c, 1, 56, 63
1, 65004, Note_on_c, 0, 67, 0
1, 65004, Note_on_c, 0, 68, 77
1, 65022, Note_on_c, 1, 56, 0
1, 65024, Note_on_c, 1, 60, 63
1, 65054, Note_on_c, 1, 60, 0
1, 65056, Note_on_c, 1, 63, 63
1, 65082, Note_on_c, 0, 68, 0
1, 65086, Note_on_c, 1, 63, 0
1, 65088, Note_on_c, 0, 67, 77
1, 65088, Note_on_c, 1, 56, 63
1, 65100, Note_on_c, 0, 67, 0
1, 65100, Note_on_c, 0, 68, 77
1, 65118, Note_on_c, 1, 56, 0
1, 65120, Note_on_c, 1, 60, 63
1, 65150, Note_on_c, 1, 60, 0
1, 65152, Note_on_c, 1, 63, 63
1, 65178, Note_on_c, 0, 68, 0
1, 65182, Note_on_c, 1, 63, 0
1, 65184, Note_on_c, 0, 69, 77
1, 65184, Note_on_c, 1, 55, 63
1, 65196, Note_on_c, 0, 69, 0
1, 65196, Note_on_c, 0, 70, 77
1, 65214, Note_on_c, 1, 55, 0
1, 65216, Note_on_c, 1, 58, 63
1, 65246, Note_on_c, 1, 58, 0
1, 65248, Note_on_c, 1, 63, 63
1, 65274, Note_on_c, 0, 70, 0
1, 65278, Note_on_c, 1, 63, 0
1, 65280, Note_on_c, 0, 71, 77
1, 65280, Note_on_c, 1, 56, 63
1, 65292, Note_on_c, 0, 71, 0
1, 65292, Note_on_c, 0, 72, 77
1, 65310, Note_on_c, 1, 56, 0
1, 65312, Note_on_c, 1, 60, 63
1, 65342, Note_on_c, 1, 60, 0
1, 65344, Note_on_c, 1, 63, 63
1, 65374, Note_on_c, 1, 63, 0
1, 65376, Note_on_c, 1, 56, 63
1, 65406, Note_on_c, 1, 56, 0
1, 65408, Note_on_c, 1, 60, 63
1, 65438, Note_on_c, 1, 60, 0
1, 65440, Note_on_c, 1, 63, 63
1, 65470, Note_on_c, 1, 63, 0
1, 65472, Note_on_c, 0, 72, 0
1, 65472, Note_on_c, 0, 68, 77
1, 65472, Note_on_c, 1, 56, 63
1, 65502, Note_on_c, 1, 56, 0
1, 65504, Note_on_c, 1, 60, 63
1, 65534, Note_on_c, 1, 60, 0
1, 65536, Note_on_c, 1, 63, 63
1, 65566, Note_on_c, 1, 63, 0
1, 65568, Note_on_c, 1, 56, 63
1, 65598, Note_on_c, 1, 56, 0
1, 65600, Note_on_c, 1, 60, 63
1, 65630, Note_on_c, 1, 60, 0
1, 65632, Note_on_c, 1, 63, 63
1, 65649, Note_on_c, 0, 68, 0
1, 65662, Note_on_c, 1, 63, 0
1, 65664, Note_on_c, 0, 71, 77
1, 65664, Note_on_c, 1, 56, 63
1, 65676, Note_on_c, 0, 71, 0
1, 65676, Note_on_c, 0, 72, 77
1, 65694, Note_on_c, 1, 56, 0
1, 65696, Note_on_c, 1, 60, 63
1, 65726, Note_on_c, 1, 60, 0
1, 65728, Note_on_c, 1, 63, 63
1, 65754, Note_on_c, 0, 72, 0
1, 65758, Note_on_c, 1, 63, 0
1, 65760, Note_on_c, 0, 71, 77
1, 65760, Note_on_c, 1, 56, 63
1, 65772, Note_on_c, 0, 71, 0
1, 65772, Note_on_c, 0, 72, 77
1, 65790, Note_on_c, 1, 56, 0
1, 65792, Note_on_c, 1, 60, 63
1, 65822, Note_on_c, 1, 60, 0
1, 65824, Note_on_c, 1, 63, 63
1, 65850, Note_on_c, 0, 72, 0
1, 65854, Note_on_c, 1, 63, 0
1, 65856, Note_on_c, 0, 71, 77
1, 65856, Note_on_c, 1, 56, 63
1, 65868, Note_on_c, 0, 71, 0
1, 65868, Note_on_c, 0, 72, 77
1, 65886, Note_on_c, 1, 56, 0
1, 65888, Note_on_c, 1, 60, 63
1, 65918, Note_on_c, 1, 60, 0
1, 65920, Note_on_c, 1, 63, 63
1, 65946, Note_on_c, 0, 72, 0
1, 65950, Note_on_c, 1, 63, 0
1, 65952, Note_on_c, 0, 75, 77
1, 65952, Note_on_c, 1, 58, 63
1, 65975, Note_on_c, 0, 75, 0
1, 65976, Note_on_c, 0, 73, 77
1, 65982, Note_on_c, 1, 58, 0
1, 65984, Note_on_c, 1, 61, 63
1, 65999, Note_on_c, 0, 73, 0
1, 66000, Note_on_c, 0, 72, 77
1, 66014, Note_on_c, 1, 61, 0
1, 66016, Note_on_c, 1, 67, 63
1, 66023, Note_on_c, 0, 72, 0
1, 66024, Note_on_c, 0, 73, 77
1, 66046, Note_on_c, 1, 67, 0
1, 66047, Note_on_c, 0, 73, 0
1, 66048, Note_on_c, 0, 75, 77
1, 66048, Note_on_c, 1, 60, 63
1, 66078, Note_on_c, 1, 60, 0
1, 66080, Note_on_c, 1, 63, 63
1, 66110, Note_on_c, 1, 63, 0
1, 66112, Note_on_c, 1, 68, 63
1, 66142, Note_on_c, 1, 68, 0
1, 66144, Note_on_c, 1, 60, 63
1, 66174, Note_on_c, 1, 60, 0
1, 66176, Note_on_c, 1, 63, 63
1, 66206, Note_on_c, 1, 63, 0
1, 66208, Note_on_c, 1, 68, 63
1, 66238, Note_on_c, 1, 68, 0
1, 66240, Note_on_c, 0, 75, 0
1, 66240, Note_on_c, 0, 72, 77
1, 66240, Note_on_c, 1, 60, 63
1, 66270, Note_on_c, 1, 60, 0
1, 66272, Note_on_c, 1, 63, 63
1, 66302, Note_on_c, 1, 63, 0
1, 66304, Note_on_c, 1, 68, 63
1, 66334, Note_on_c, 1, 68, 0
1, 66336, Note_on_c, 1, 60, 63
1, 66366, Note_on_c, 1, 60, 0
1, 66368, Note_on_c, 1, 63, 63
1, 66398, Note_on_c, 1, 63, 0
1, 66400, Note_on_c, 1, 68, 63
1, 66417, Note_on_c, 0, 72, 0
1, 66430, Note_on_c, 1, 68, 0
1, 66432, Note_on_c, 0, 80, 77
1, 66432, Note_on_c, 1, 60, 63
1, 66462, Note_on_c, 1, 60, 0
1, 66464, Note_on_c, 1, 63, 63
1, 66494, Note_on_c, 1, 63, 0
1, 66496, Note_on_c, 1, 68, 63
1, 66521, Note_on_c, 0, 80, 0
1, 66526, Note_on_c, 1, 68, 0
1, 66528, Note_on_c, 0, 80, 77
1, 66528, Note_on_c, 1, 60, 63
1, 66558, Note_on_c, 0, 80, 0
1, 66558, Note_on_c, 1, 60, 0
1, 66560, Note_on_c, 0, 84, 77
1, 66560, Note_on_c, 1, 63, 63
1, 66590, Note_on_c, 0, 84, 0
1, 66590, Note_on_c, 1, 63, 0
1, 66592, Note_on_c, 0, 87, 77
1, 66592, Note_on_c, 1, 68, 63
1, 66622, Note_on_c, 0, 87, 0
1, 66622, Note_on_c, 1, 68, 0
1, 66624, Note_on_c, 0, 78, 93
1, 66624, Note_on_c, 1, 60, 63
1, 66654, Note_on_c, 1, 60, 0
1, 66656, Note_on_c, 1, 63, 63
1, 66686, Note_on_c, 1, 63, 0
1, 66688, Note_on_c, 1, 68, 63
1, 66718, Note_on_c, 1, 68, 0
1, 66720, Note_on_c, 1, 60, 63
1, 66750, Note_on_c, 1, 60, 0
1, 66752, Note_on_c, 1, 63, 63
1, 66782, Note_on_c, 1, 63, 0
1, 66784, Note_on_c, 1, 68, 63
1, 66814, Note_on_c, 1, 68, 0
1, 66816, Note_on_c, 0, 78, 0
1, 66816, Note_on_c, 0, 77, 77
1, 66816, Note_on_c, 1, 61, 63
1, 66846, Note_on_c, 1, 61, 0
1, 66848, Note_on_c, 1, 65, 63
1, 66878, Note_on_c, 1, 65, 0
1, 66880, Note_on_c, 1, 68, 63
1, 66905, Note_on_c, 0, 77, 0
1, 66910, Note_on_c, 1, 68, 0
1, 66912, Note_on_c, 0, 77, 77
1, 66912, Note_on_c, 1, 61, 63
1, 66942, Note_on_c, 0, 77, 0
1, 66942, Note_on_c, 1, 61, 0
1, 66944, Note_on_c, 0, 82, 77
1, 66944, Note_on_c, 1, 65, 63
1, 66974, Note_on_c, 0, 82, 0
1, 66974, Note_on_c, 1, 65, 0
1, 66976, Note_on_c, 0, 85, 77
1, 66976, Note_on_c, 1, 68, 63
1, 67006, Note_on_c, 0, 85, 0
1, 67006, Note_on_c, 1, 68, 0
1, 67008, Note_on_c, 0, 75, 93
1, 67008, Note_on_c, 1, 61, 63
1, 67038, Note_on_c, 1, 61, 0
1, 67040, Note_on_c, 1, 63, 63
1, 67070, Note_on_c, 1, 63, 0
1, 67072, Note_on_c, 1, 67, 63
1, 67102, Note_on_c, 1, 67, 0
1, 67104, Note_on_c, 1, 61, 63
1, 67134, Note_on_c, 1, 61, 0
1, 67136, Note_on_c, 1, 63, 63
1, 67152, Note_on_c, 0, 75, 0
1, 67152, Note_on_c, 0, 77, 77
1, 67166, Note_on_c, 1, 63, 0
1, 67168, Note_on_c, 1, 67, 63
1, 67175, Note_on_c, 0, 77, 0
1, 67176, Note_on_c, 0, 79, 77
1, 67198, Note_on_c, 1, 67, 0
1, 67199, Note_on_c, 0, 79, 0
1, 67200, Note_on_c, 0, 80, 77
1, 67200, Note_on_c, 1, 60, 63
1, 67230, Note_on_c, 1, 60, 0
1, 67232, Note_on_c, 1, 63, 63
1, 67262, Note_on_c, 1, 63, 0
1, 67264, Note_on_c, 1, 68, 63
1, 67289, Note_on_c, 0, 80, 0
1, 67294, Note_on_c, 1, 68, 0
1, 67296, Note_on_c, 0, 80, 77
1, 67296, Note_on_c, 1, 60, 63
1, 67326, Note_on_c, 0, 80, 0
1, 67326, Note_on_c, 1, 60, 0
1, 67328, Note_on_c, 0, 82, 77
1, 67328, Note_on_c, 1, 63, 63
1, 67358, Note_on_c, 0, 82, 0
1, 67358, Note_on_c, 1, 63, 0
1, 67360, Note_on_c, 0, 84, 77
1, 67360, Note_on_c, 1, 68, 63
1, 67390, Note_on_c, 0, 84, 0
1, 67390, Note_on_c, 1, 68, 0
1, 67392, Note_on_c, 0, 73, 93
1, 67392, Note_on_c, 1, 58, 63
1, 67422, Note_on_c, 1, 58, 0
1, 67424, Note_on_c, 1, 61, 63
1, 67454, Note_on_c, 1, 61, 0
1, 67456, Note_on_c, 1, 67, 63
1, 67486, Note_on_c, 1, 67, 0
1, 67488, Note_on_c, 1, 58, 63
1, 67518, Note_on_c, 1, 58, 0
1, 67520, Note_on_c, 1, 61, 63
1, 67550, Note_on_c, 1, 61, 0
1, 67552, Note_on_c, 1, 67, 63
1, 67582, Note_on_c, 1, 67, 0
1, 67584, Note_on_c, 0, 73, 0
1, 67584, Note_on_c, 0, 72, 77
1, 67584, Note_on_c, 1, 56, 63
1, 67614, Note_on_c, 0, 72, 0
1, 67616, Note_on_c, 0, 75, 77
1, 67646, Note_on_c, 0, 75, 0
1, 67648, Note_on_c, 0, 73, 77
1, 67673, Note_on_c, 1, 56, 0
1, 67678, Note_on_c, 0, 73, 0
1, 67680, Note_on_c, 0, 72, 77
1, 67710, Note_on_c, 0, 72, 0
1, 67712, Note_on_c, 0, 84, 77
1, 67742, Note_on_c, 0, 84, 0
1, 67744, Note_on_c, 0, 82, 77
1, 67774, Note_on_c, 0, 82, 0
1, 67776, Note_on_c, 0, 80, 77
1, 67806, Note_on_c, 0, 80, 0
1, 67808, Note_on_c, 0, 79, 77
1, 67838, Note_on_c, 0, 79, 0
1, 67840, Note_on_c, 0, 77, 77
1, 67870, Note_on_c, 0, 77, 0
1, 67872, Note_on_c, 0, 75, 77
1, 67902, Note_on_c, 0, 75, 0
1, 67904, Note_on_c, 0, 73, 77
1, 67934, Note_on_c, 0, 73, 0
1, 67936, Note_on_c, 0, 72, 77
1, 67966, Note_on_c, 0, 72, 0
1, 67968, Note_on_c, 0, 75, 77
1, 68040, Note_on_c, 0, 75, 0
1, 68040, Note_on_c, 0, 72, 77
1, 68063, Note_on_c, 0, 72, 0
1, 68064, Note_on_c, 0, 70, 77
1, 68064, Note_on_c, 1, 67, 63
1, 68064, Note_on_c, 1, 63, 63
1, 68197, Note_on_c, 1, 67, 0
1, 68197, Note_on_c, 1, 63, 0
1, 68205, Note_on_c, 0, 70, 0
1, 68208, Note_on_c, 0, 73, 77
1, 68253, Note_on_c, 0, 73, 0
1, 68256, Note_on_c, 0, 72, 77
1, 68301, Note_on_c, 0, 72, 0
1, 68304, Note_on_c, 0, 75, 77
1, 68349, Note_on_c, 0, 75, 0
1, 68352, Note_on_c, 0, 75, 77
1, 68352, Note_on_c, 1, 51, 63
1, 68382, Note_on_c, 1, 51, 0
1, 68384, Note_on_c, 1, 55, 63
1, 68400, Note_on_c, 0, 75, 0
1, 68400, Note_on_c, 0, 73, 77
1, 68414, Note_on_c, 1, 55, 0
1, 68416, Note_on_c, 1, 58, 63
1, 68445, Note_on_c, 0, 73, 0
1, 68446, Note_on_c, 1, 58, 0
1, 68448, Note_on_c, 0, 73, 93
1, 68448, Note_on_c, 1, 51, 63
1, 68478, Note_on_c, 1, 51, 0
1, 68480, Note_on_c, 1, 55, 63
1, 68510, Note_on_c, 1, 55, 0
1, 68512, Note_on_c, 1, 58, 63
1, 68542, Note_on_c, 1, 58, 0
1, 68544, Note_on_c, 1, 51, 63
1, 68574, Note_on_c, 1, 51, 0
1, 68576, Note_on_c, 1, 55, 63
1, 68606, Note_on_c, 1, 55, 0
1, 68608, Note_on_c, 1, 58, 63
1, 68638, Note_on_c, 1, 58, 0
1, 68640, Note_on_c, 0, 73, 0
1, 68640, Note_on_c, 0, 72, 77
1, 68640, Note_on_c, 1, 51, 63
1, 68670, Note_on_c, 0, 72, 0
1, 68670, Note_on_c, 1, 51, 0
1, 68672, Note_on_c, 0, 70, 77
1, 68672, Note_on_c, 1, 56, 63
1, 68702, Note_on_c, 0, 70, 0
1, 68702, Note_on_c, 1, 56, 0
1, 68704, Note_on_c, 0, 68, 77
1, 68704, Note_on_c, 1, 60, 63
1, 68734, Note_on_c, 0, 68, 0
1, 68734, Note_on_c, 1, 60, 0
1, 68736, Note_on_c, 0, 68, 77
1, 68736, Note_on_c, 1, 51, 63
1, 68766, Note_on_c, 1, 51, 0
1, 68768, Note_on_c, 1, 58, 63
1, 68784, Note_on_c, 0, 68, 0
1, 68784, Note_on_c, 0, 67, 77
1, 68798, Note_on_c, 1, 58, 0
1, 68800, Note_on_c, 1, 61, 63
1, 68829, Note_on_c, 0, 67, 0
1, 68830, Note_on_c, 1, 61, 0
1, 68832, Note_on_c, 0, 67, 93
1, 68832, Note_on_c, 1, 51, 63
1, 68862, Note_on_c, 1, 51, 0
1, 68864, Note_on_c, 1, 58, 63
1, 68894, Note_on_c, 1, 58, 0
1, 68896, Note_on_c, 1, 61, 63
1, 68926, Note_on_c, 1, 61, 0
1, 68928, Note_on_c, 1, 51, 63
1, 68958, Note_on_c, 1, 51, 0
1, 68960, Note_on_c, 1, 58, 63
1, 68990, Note_on_c, 1, 58, 0
1, 68992, Note_on_c, 1, 61, 63
1, 69022, Note_on_c, 1, 61, 0
1, 69024, Note_on_c, 0, 67, 0
1, 69024, Note_on_c, 0, 68, 77
1, 69024, Note_on_c, 1, 51, 63
1, 69054, Note_on_c, 1, 51, 0
1, 69056, Note_on_c, 1, 56, 63
1, 69086, Note_on_c, 1, 56, 0
1, 69088, Note_on_c, 1, 60, 63
1, 69113, Note_on_c, 0, 68, 0
1, 69118, Note_on_c, 1, 60, 0
1, 69120, Note_on_c, 0, 70, 77
1, 69120, Note_on_c, 1, 51, 63
1, 69150, Note_on_c, 0, 70, 0
1, 69150, Note_on_c, 1, 51, 0
1, 69152, Note_on_c, 0, 72, 77
1, 69152, Note_on_c, 1, 55, 63
1, 69182, Note_on_c, 0, 72, 0
1, 69182, Note_on_c, 1, 55, 0
1, 69184, Note_on_c, 0, 73, 77
1, 69184, Note_on_c, 1, 58, 63
1, 69214, Note_on_c, 0, 73, 0
1, 69214, Note_on_c, 1, 58, 0
1, 69216, Note_on_c, 0, 73, 93
1, 69216, Note_on_c, 1, 51, 63
1, 69246, Note_on_c, 1, 51, 0
1, 69248, Note_on_c, 1, 55, 63
1, 69278, Note_on_c, 1, 55, 0
1, 69280, Note_on_c, 1, 58, 63
1, 69310, Note_on_c, 1, 58, 0
1, 69312, Note_on_c, 1, 51, 63
1, 69342, Note_on_c, 1, 51, 0
1, 69344, Note_on_c, 1, 55, 63
1, 69374, Note_on_c, 1, 55, 0
1, 69376, Note_on_c, 1, 58, 63
1, 69406, Note_on_c, 1, 58, 0
1, 69408, Note_on_c, 0, 73, 0
1, 69408, Note_on_c, 0, 72, 77
1, 69408, Note_on_c, 1, 51, 63
1, 69438, Note_on_c, 0, 72, 0
1, 69438, Note_on_c, 1, 51, 0
1, 69440, Note_on_c, 0, 70, 77
1, 69440, Note_on_c, 1, 56, 63
1, 69470, Note_on_c, 0, 70, 0
1, 69470, Note_on_c, 1, 56, 0
1, 69472, Note_on_c, 0, 68, 77
1, 69472, Note_on_c, 1, 60, 63
1, 69502, Note_on_c, 0, 68, 0
1, 69502, Note_on_c, 1, 60, 0
1, 69504, Note_on_c, 0, 68, 77
1, 69504, Note_on_c, 1, 51, 63
1, 69534, Note_on_c, 1, 51, 0
1, 69536, Note_on_c, 1, 58, 63
1, 69552, Note_on_c, 0, 68, 0
1, 69552, Note_on_c, 0, 67, 77
1, 69566, Note_on_c, 1, 58, 0
1, 69568, Note_on_c, 1, 61, 63
1, 69597, Note_on_c, 0, 67, 0
1, 69598, Note_on_c, 1, 61, 0
1, 69600, Note_on_c, 0, 67, 93
1, 69600, Note_on_c, 1, 51, 63
1, 69630, Note_on_c, 1, 51, 0
1, 69632, Note_on_c, 1, 58, 63
1, 69662, Note_on_c, 1, 58, 0
1, 69664, Note_on_c, 1, 61, 63
1, 69694, Note_on_c, 1, 61, 0
1, 69696, Note_on_c, 1, 51, 63
1, 69726, Note_on_c, 1, 51, 0
1, 69728, Note_on_c, 1, 58, 63
1, 69758, Note_on_c, 1, 58, 0
1, 69760, Note_on_c, 1, 61, 63
1, 69790, Note_on_c, 1, 61, 0
1, 69792, Note_on_c, 0, 67, 0
1, 69792, Note_on_c, 0, 68, 77
1, 69792, Note_on_c, 1, 51, 63
1, 69822, Note_on_c, 1, 51, 0
1, 69824, Note_on_c, 1, 56, 63
1, 69854, Note_on_c, 1, 56, 0
1, 69856, Note_on_c, 1, 60, 63
1, 69881, Note_on_c, 0, 68, 0
1, 69886, Note_on_c, 1, 60, 0
1, 69888, Note_on_c, 0, 70, 70
1, 69888, Note_on_c, 1, 51, 63
1, 69918, Note_on_c, 0, 70, 0
1, 69918, Note_on_c, 1, 51, 0
1, 69920, Note_on_c, 0, 72, 71
1, 69920, Note_on_c, 1, 55, 65
1, 69950, Note_on_c, 0, 72, 0
1, 69950, Note_on_c, 1, 55, 0
1, 69952, Note_on_c, 0, 73, 72
1, 69952, Note_on_c, 1, 58, 68
1, 69982, Note_on_c, 0, 73, 0
1, 69982, Note_on_c, 1, 58, 0
1, 69984, Note_on_c, 0, 73, 90
1, 69984, Note_on_c, 1, 51, 71
1, 70014, Note_on_c, 1, 51, 0
1, 70016, Note_on_c, 1, 55, 74
1, 70046, Note_on_c, 1, 55, 0
1, 70048, Note_on_c, 1, 58, 77
1, 70078, Note_on_c, 1, 58, 0
1, 70080, Note_on_c, 1, 52, 80
1, 70110, Note_on_c, 1, 52, 0
1, 70112, Note_on_c, 1, 55, 84
1, 70142, Note_on_c, 1, 55, 0
1, 70144, Note_on_c, 1, 58, 84
1, 70174, Note_on_c, 1, 58, 0
1, 70176, Note_on_c, 0, 73, 0
1, 70176, Note_on_c, 0, 72, 84
1, 70176, Note_on_c, 1, 53, 84
1, 70206, Note_on_c, 1, 53, 0
1, 70208, Note_on_c, 1, 55, 84
1, 70238, Note_on_c, 1, 55, 0
1, 70240, Note_on_c, 1, 56, 84
1, 70265, Note_on_c, 0, 72, 0
1, 70270, Note_on_c, 1, 56, 0
1, 70272, Note_on_c, 0, 70, 84
1, 70272, Note_on_c, 1, 49, 84
1, 70302, Note_on_c, 0, 70, 0
1, 70304, Note_on_c, 0, 77, 82
1, 70334, Note_on_c, 0, 77, 0
1, 70336, Note_on_c, 0, 75, 81
1, 70366, Note_on_c, 0, 75, 0
1, 70368, Note_on_c, 0, 73, 80
1, 70368, Note_on_c, 1, 61, 63
1, 70398, Note_on_c, 0, 73, 0
1, 70400, Note_on_c, 0, 72, 79
1, 70430, Note_on_c, 0, 72, 0
1, 70432, Note_on_c, 0, 70, 78
1, 70449, Note_on_c, 1, 49, 0
1, 70457, Note_on_c, 1, 61, 0
1, 70462, Note_on_c, 0, 70, 0
1, 70464, Note_on_c, 0, 68, 77
1, 70464, Note_on_c, 1, 51, 84
1, 70464, Note_on_c, 1, 60, 63
1, 70553, Note_on_c, 0, 68, 0
1, 70553, Note_on_c, 1, 60, 0
1, 70560, Note_on_c, 0, 67, 73
1, 70560, Note_on_c, 1, 58, 63
1, 70641, Note_on_c, 1, 51, 0
1, 70649, Note_on_c, 0, 67, 0
1, 70649, Note_on_c, 1, 58, 0
1, 70656, Note_on_c, 0, 60, 84
1, 70656, Note_on_c, 1, 56, 77
1, 70686, Note_on_c, 0, 60, 0
1, 70688, Note_on_c, 0, 63, 84
1, 70718, Note_on_c, 0, 63, 0
1, 70720, Note_on_c, 0, 68, 84
1, 70745, Note_on_c, 1, 56, 0
1, 70750, Note_on_c, 0, 68, 0
1, 70752, Note_on_c, 0, 68, 84
1, 70765, Note_on_c, 0, 68, 0
1, 70784, Note_on_c, 0, 68, 84
1, 70797, Note_on_c, 0, 68, 0
1, 70816, Note_on_c, 0, 68, 84
1, 70829, Note_on_c, 0, 68, 0
1, 70848, Note_on_c, 0, 67, 84
1, 70848, Note_on_c, 1, 58, 77
1, 70848, Note_on_c, 1, 51, 77
1, 70878, Note_on_c, 0, 67, 0
1, 70880, Note_on_c, 0, 70, 84
1, 70910, Note_on_c, 0, 70, 0
1, 70912, Note_on_c, 0, 73, 84
1, 70937, Note_on_c, 1, 58, 0
1, 70937, Note_on_c, 1, 51, 0
1, 70942, Note_on_c, 0, 73, 0
1, 70944, Note_on_c, 0, 73, 84
1, 70957, Note_on_c, 0, 73, 0
1, 70976, Note_on_c, 0, 73, 84
1, 70989, Note_on_c, 0, 73, 0
1, 71008, Note_on_c, 0, 73, 84
1, 71021, Note_on_c, 0, 73, 0
1, 71040, Note_on_c, 0, 72, 84
1, 71040, Note_on_c, 1, 60, 77
1, 71040, Note_on_c, 1, 56, 77
1, 71070, Note_on_c, 0, 72, 0
1, 71072, Note_on_c, 0, 75, 84
1, 71102, Note_on_c, 0, 75, 0
1, 71104, Note_on_c, 0, 80, 84
1, 71117, Note_on_c, 0, 80, 0
1, 71129, Note_on_c, 1, 60, 0
1, 71129, Note_on_c, 1, 56, 0
1, 71136, Note_on_c, 0, 80, 84
1, 71149, Note_on_c, 0, 80, 0
1, 71168, Note_on_c, 0, 80, 84
1, 71181, Note_on_c, 0, 80, 0
1, 71200, Note_on_c, 0, 80, 84
1, 71213, Note_on_c, 0, 80, 0
1, 71232, Note_on_c, 0, 79, 84
1, 71232, Note_on_c, 1, 58, 77
1, 71232, Note_on_c, 1, 51, 77
1, 71262, Note_on_c, 0, 79, 0
1, 71264, Note_on_c, 0, 82, 84
1, 71294, Note_on_c, 0, 82, 0
1, 71296, Note_on_c, 0, 85, 84
1, 71309, Note_on_c, 0, 85, 0
1, 71321, Note_on_c, 1, 58, 0
1, 71321, Note_on_c, 1, 51, 0
1, 71328, Note_on_c, 0, 85, 84
1, 71341, Note_on_c, 0, 85, 0
1, 71360, Note_on_c, 0, 85, 84
1, 71373, Note_on_c, 0, 85, 0
1, 71392, Note_on_c, 0, 85, 84
1, 71405, Note_on_c, 0, 85, 0
1, 71424, Note_on_c, 0, 84, 84
1, 71424, Note_on_c, 1, 60, 77
1, 71424, Note_on_c, 1, 56, 77
1, 71454, Note_on_c, 0, 84, 0
1, 71456, Note_on_c, 0, 87, 84
1, 71486, Note_on_c, 0, 87, 0
1, 71488, Note_on_c, 0, 85, 84
1, 71518, Note_on_c, 0, 85, 0
1, 71520, Note_on_c, 0, 84, 84
1, 71550, Note_on_c, 0, 84, 0
1, 71552, Note_on_c, 0, 82, 84
1, 71582, Note_on_c, 0, 82, 0
1, 71584, Note_on_c, 0, 80, 84
1, 71614, Note_on_c, 0, 80, 0
1, 71616, Note_on_c, 0, 79, 84
1, 71646, Note_on_c, 0, 79, 0
1, 71648, Note_on_c, 0, 77, 84
1, 71678, Note_on_c, 0, 77, 0
1, 71680, Note_on_c, 0, 75, 84
1, 71689, Note_on_c, 1, 60, 0
1, 71689, Note_on_c, 1, 56, 0
1, 71710, Note_on_c, 0, 75, 0
1, 71712, Note_on_c, 0, 73, 84
1, 71712, Note_on_c, 1, 61, 77
1, 71712, Note_on_c, 1, 58, 77
1, 71742, Note_on_c, 0, 73, 0
1, 71744, Note_on_c, 0, 72, 84
1, 71774, Note_on_c, 0, 72, 0
1, 71776, Note_on_c, 0, 70, 84
1, 71801, Note_on_c, 1, 61, 0
1, 71801, Note_on_c, 1, 58, 0
1, 71806, Note_on_c, 0, 70, 0
1, 71808, Note_on_c, 0, 68, 84
1, 71808, Note_on_c, 1, 63, 77
1, 71808, Note_on_c, 1, 60, 77
1, 71838, Note_on_c, 0, 68, 0
1, 71840, Note_on_c, 0, 84, 84
1, 71870, Note_on_c, 0, 84, 0
1, 71872, Note_on_c, 0, 82, 84
1, 71897, Note_on_c, 1, 63, 0
1, 71897, Note_on_c, 1, 60, 0
1, 71902, Note_on_c, 0, 82, 0
1, 71904, Note_on_c, 0, 80, 84
1, 71934, Note_on_c, 0, 80, 0
1, 71936, Note_on_c, 0, 79, 84
1, 71966, Note_on_c, 0, 79, 0
1, 71968, Note_on_c, 0, 77, 84
1, 71998, Note_on_c, 0, 77, 0
1, 72000, Note_on_c, 0, 75, 84
1, 72030, Note_on_c, 0, 75, 0
1, 72032, Note_on_c, 0, 73, 84
1, 72062, Note_on_c, 0, 73, 0
1, 72064, Note_on_c, 0, 72, 84
1, 72094, Note_on_c, 0, 72, 0
1, 72096, Note_on_c, 0, 70, 84
1, 72126, Note_on_c, 0, 70, 0
1, 72128, Note_on_c, 0, 68, 84
1, 72158, Note_on_c, 0, 68, 0
1, 72160, Note_on_c, 0, 67, 84
1, 72190, Note_on_c, 0, 67, 0
1, 72192, Note_on_c, 0, 65, 84
1, 72192, Note_on_c, 1, 49, 77
1, 72259, Note_on_c, 0, 65, 0
1, 72264, Note_on_c, 0, 77, 84
1, 72287, Note_on_c, 0, 77, 0
1, 72288, Note_on_c, 0, 73, 84
1, 72288, Note_on_c, 1, 61, 63
1, 72355, Note_on_c, 0, 73, 0
1, 72360, Note_on_c, 0, 70, 84
1, 72369, Note_on_c, 1, 49, 0
1, 72377, Note_on_c, 1, 61, 0
1, 72383, Note_on_c, 0, 70, 0
1, 72384, Note_on_c, 0, 68, 84
1, 72384, Note_on_c, 1, 51, 77
1, 72384, Note_on_c, 1, 60, 63
1, 72473, Note_on_c, 0, 68, 0
1, 72473, Note_on_c, 1, 60, 0
1, 72480, Note_on_c, 0, 67, 84
1, 72480, Note_on_c, 1, 58, 63
1, 72493, Note_on_c, 0, 67, 0
1, 72494, Note_on_c, 0, 68, 84
1, 72507, Note_on_c, 0, 68, 0
1, 72508, Note_on_c, 0, 67, 84
1, 72521, Note_on_c, 0, 67, 0
1, 72522, Note_on_c, 0, 68, 84
1, 72535, Note_on_c, 0, 68, 0
1, 72536, Note_on_c, 0, 67, 84
1, 72549, Note_on_c, 0, 67, 0
1, 72550, Note_on_c, 0, 65, 84
1, 72561, Note_on_c, 1, 51, 0
1, 72562, Note_on_c, 0, 65, 0
1, 72563, Note_on_c, 0, 67, 84
1, 72569, Note_on_c, 1, 58, 0
1, 72575, Note_on_c, 0, 67, 0
1, 72576, Note_on_c, 0, 84, 84
1, 72576, Note_on_c, 1, 60, 77
1, 72576, Note_on_c, 1, 56, 77
1, 72606, Note_on_c, 0, 84, 0
1, 72608, Note_on_c, 0, 87, 84
1, 72638, Note_on_c, 0, 87, 0
1, 72640, Note_on_c, 0, 85, 84
1, 72670, Note_on_c, 0, 85, 0
1, 72672, Note_on_c, 0, 84, 84
1, 72702, Note_on_c, 0, 84, 0
1, 72704, Note_on_c, 0, 82, 84
1, 72734, Note_on_c, 0, 82, 0
1, 72736, Note_on_c, 0, 80, 84
1, 72766, Note_on_c, 0, 80, 0
1, 72768, Note_on_c, 0, 79, 84
1, 72798, Note_on_c, 0, 79, 0
1, 72800, Note_on_c, 0, 77, 84
1, 72830, Note_on_c, 0, 77, 0
1, 72832, Note_on_c, 0, 75, 84
1, 72841, Note_on_c, 1, 60, 0
1, 72841, Note_on_c, 1, 56, 0
1, 72862, Note_on_c, 0, 75, 0
1, 72864, Note_on_c, 0, 73, 84
1, 72864, Note_on_c, 1, 61, 77
1, 72864, Note_on_c, 1, 58, 77
1, 72894, Note_on_c, 0, 73, 0
1, 72896, Note_on_c, 0, 72, 84
1, 72926, Note_on_c, 0, 72, 0
1, 72928, Note_on_c, 0, 70, 84
1, 72953, Note_on_c, 1, 61, 0
1, 72953, Note_on_c, 1, 58, 0
1, 72958, Note_on_c, 0, 70, 0
1, 72960, Note_on_c, 0, 68, 84
1, 72960, Note_on_c, 1, 63, 77
1, 72960, Note_on_c, 1, 60, 77
1, 72990, Note_on_c, 0, 68, 0
1, 72992, Note_on_c, 0, 84, 84
1, 73022, Note_on_c, 0, 84, 0
1, 73024, Note_on_c, 0, 82, 84
1, 73049, Note_on_c, 1, 63, 0
1, 73049, Note_on_c, 1, 60, 0
1, 73054, Note_on_c, 0, 82, 0
1, 73056, Note_on_c, 0, 80, 84
1, 73086, Note_on_c, 0, 80, 0
1, 73088, Note_on_c, 0, 79, 84
1, 73118, Note_on_c, 0, 79, 0
1, 73120, Note_on_c, 0, 77, 84
1, 73150, Note_on_c, 0, 77, 0
1, 73152, Note_on_c, 0, 75, 84
1, 73182, Note_on_c, 0, 75, 0
1, 73184, Note_on_c, 0, 73, 84
1, 73214, Note_on_c, 0, 73, 0
1, 73216, Note_on_c, 0, 72, 84
1, 73246, Note_on_c, 0, 72, 0
1, 73248, Note_on_c, 0, 70, 84
1, 73278, Note_on_c, 0, 70, 0
1, 73280, Note_on_c, 0, 68, 84
1, 73310, Note_on_c, 0, 68, 0
1, 73312, Note_on_c, 0, 67, 84
1, 73342, Note_on_c, 0, 67, 0
1, 73344, Note_on_c, 0, 65, 84
1, 73344, Note_on_c, 1, 49, 77
1, 73411, Note_on_c, 0, 65, 0
1, 73416, Note_on_c, 0, 77, 84
1, 73439, Note_on_c, 0, 77, 0
1, 73440, Note_on_c, 0, 73, 84
1, 73440, Note_on_c, 1, 61, 63
1, 73507, Note_on_c, 0, 73, 0
1, 73512, Note_on_c, 0, 70, 84
1, 73521, Note_on_c, 1, 49, 0
1, 73529, Note_on_c, 1, 61, 0
1, 73535, Note_on_c, 0, 70, 0
1, 73536, Note_on_c, 0, 68, 84
1, 73536, Note_on_c, 1, 51, 77
1, 73536, Note_on_c, 1, 60, 63
1, 73625, Note_on_c, 0, 68, 0
1, 73625, Note_on_c, 1, 60, 0
1, 73632, Note_on_c, 0, 67, 84
1, 73632, Note_on_c, 1, 58, 63
1, 73645, Note_on_c, 0, 67, 0
1, 73646, Note_on_c, 0, 68, 84
1, 73659, Note_on_c, 0, 68, 0
1, 73660, Note_on_c, 0, 67, 84
1, 73673, Note_on_c, 0, 67, 0
1, 73674, Note_on_c, 0, 68, 84
1, 73687, Note_on_c, 0, 68, 0
1, 73688, Note_on_c, 0, 67, 84
1, 73701, Note_on_c, 0, 67, 0
1, 73702, Note_on_c, 0, 65, 84
1, 73713, Note_on_c, 1, 51, 0
1, 73714, Note_on_c, 0, 65, 0
1, 73715, Note_on_c, 0, 67, 84
1, 73721, Note_on_c, 1, 58, 0
1, 73727, Note_on_c, 0, 67, 0
1, 73728, Note_on_c, 0, 68, 84
1, 73728, Note_on_c, 1, 56, 84
1, 73758, Note_on_c, 0, 68, 0
1, 73758, Note_on_c, 1, 56, 0
1, 73760, Note_on_c, 0, 72, 84
1, 73760, Note_on_c, 1, 60, 84
1, 73790, Note_on_c, 0, 72, 0
1, 73790, Note_on_c, 1, 60, 0
1, 73792, Note_on_c, 0, 70, 84
1, 73792, Note_on_c, 1, 58, 84
1, 73822, Note_on_c, 0, 70, 0
1, 73822, Note_on_c, 1, 58, 0
1, 73824, Note_on_c, 0, 68, 84
1, 73824, Note_on_c, 1, 56, 84
1, 73854, Note_on_c, 0, 68, 0
1, 73854, Note_on_c, 1, 56, 0
1, 73856, Note_on_c, 0, 67, 84
1, 73856, Note_on_c, 1, 55, 84
1, 73886, Note_on_c, 0, 67, 0
1, 73886, Note_on_c, 1, 55, 0
1, 73888, Note_on_c, 0, 65, 84
1, 73888, Note_on_c, 1, 53, 84
1, 73918, Note_on_c, 0, 65, 0
1, 73918, Note_on_c, 1, 53, 0
1, 73920, Note_on_c, 0, 63, 84
1, 73920, Note_on_c, 1, 51, 84
1, 73950, Note_on_c, 0, 63, 0
1, 73950, Note_on_c, 1, 51, 0
1, 73952, Note_on_c, 0, 61, 84
1, 73952, Note_on_c, 1, 49, 84
1, 73982, Note_on_c, 0, 61, 0
1, 73982, Note_on_c, 1, 49, 0
1, 73984, Note_on_c, 0, 60, 84
1, 73984, Note_on_c, 1, 48, 84
1, 74014, Note_on_c, 0, 60, 0
1, 74014, Note_on_c, 1, 48, 0
1, 74016, Note_on_c, 0, 61, 84
1, 74016, Note_on_c, 1, 49, 84
1, 74039, Note_on_c, 0, 61, 0
1, 74039, Note_on_c, 1, 49, 0
1, 74040, Note_on_c, 0, 63, 84
1, 74040, Note_on_c, 1, 51, 84
1, 74063, Note_on_c, 0, 63, 0
1, 74063, Note_on_c, 1, 51, 0
1, 74064, Note_on_c, 0, 65, 84
1, 74064, Note_on_c, 1, 53, 84
1, 74087, Note_on_c, 0, 65, 0
1, 74087, Note_on_c, 1, 53, 0
1, 74088, Note_on_c, 0, 67, 84
1, 74088, Note_on_c, 1, 55, 84
1, 74111, Note_on_c, 0, 67, 0
1, 74111, Note_on_c, 1, 55, 0
1, 74112, Note_on_c, 0, 68, 84
1, 74112, Note_on_c, 1, 56, 84
1, 74142, Note_on_c, 0, 68, 0
1, 74142, Note_on_c, 1, 56, 0
1, 74144, Note_on_c, 0, 72, 84
1, 74144, Note_on_c, 1, 60, 84
1, 74174, Note_on_c, 0, 72, 0
1, 74174, Note_on_c, 1, 60, 0
1, 74176, Note_on_c, 0, 70, 84
1, 74176, Note_on_c, 1, 58, 84
1, 74206, Note_on_c, 0, 70, 0
1, 74206, Note_on_c, 1, 58, 0
1, 74208, Note_on_c, 0, 68, 84
1, 74208, Note_on_c, 1, 56, 84
1, 74238, Note_on_c, 0, 68, 0
1, 74238, Note_on_c, 1, 56, 0
1, 74240, Note_on_c, 0, 67, 84
1, 74240, Note_on_c, 1, 55, 84
1, 74270, Note_on_c, 0, 67, 0
1, 74270, Note_on_c, 1, 55, 0
1, 74272, Note_on_c, 0, 65, 84
1, 74272, Note_on_c, 1, 53, 84
1, 74302, Note_on_c, 0, 65, 0
1, 74302, Note_on_c, 1, 53, 0
1, 74304, Note_on_c, 0, 63, 84
1, 74304, Note_on_c, 1, 51, 84
1, 74334, Note_on_c, 0, 63, 0
1, 74334, Note_on_c, 1, 51, 0
1, 74336, Note_on_c, 0, 61, 84
1, 74336, Note_on_c, 1, 49, 84
1, 74366, Note_on_c, 0, 61, 0
1, 74366, Note_on_c, 1, 49, 0
1, 74368, Note_on_c, 0, 60, 84
1, 74368, Note_on_c, 1, 48, 84
1, 74398, Note_on_c, 0, 60, 0
1, 74398, Note_on_c, 1, 48, 0
1, 74400, Note_on_c, 0, 61, 84
1, 74400, Note_on_c, 1, 49, 84
1, 74423, Note_on_c, 0, 61, 0
1, 74423, Note_on_c, 1, 49, 0
1, 74424, Note_on_c, 0, 63, 84
1, 74424, Note_on_c, 1, 51, 84
1, 74447, Note_on_c, 0, 63, 0
1, 74447, Note_on_c, 1, 51, 0
1, 74448, Note_on_c, 0, 65, 84
1, 74448, Note_on_c, 1, 53, 84
1, 74471, Note_on_c, 0, 65, 0
1, 74471, Note_on_c, 1, 53, 0
1, 74472, Note_on_c, 0, 67, 84
1, 74472, Note_on_c, 1, 55, 84
1, 74495, Note_on_c, 0, 67, 0
1, 74495, Note_on_c, 1, 55, 0
1, 74496, Note_on_c, 0, 68, 84
1, 74496, Note_on_c, 1, 56, 84
1, 74526, Note_on_c, 0, 68, 0
1, 74526, Note_on_c, 1, 56, 0
1, 74528, Note_on_c, 0, 72, 84
1, 74528, Note_on_c, 1, 60, 84
1, 74558, Note_on_c, 0, 72, 0
1, 74558, Note_on_c, 1, 60, 0
1, 74560, Note_on_c, 0, 70, 84
1, 74560, Note_on_c, 1, 58, 84
1, 74590, Note_on_c, 0, 70, 0
1, 74590, Note_on_c, 1, 58, 0
1, 74592, Note_on_c, 0, 68, 84
1, 74592, Note_on_c, 1, 56, 84
1, 74622, Note_on_c, 0, 68, 0
1, 74622, Note_on_c, 1, 56, 0
1, 74624, Note_on_c, 0, 67, 84
1, 74624, Note_on_c, 1, 55, 84
1, 74654, Note_on_c, 0, 67, 0
1, 74654, Note_on_c, 1, 55, 0
1, 74656, Note_on_c, 0, 65, 84
1, 74656, Note_on_c, 1, 53, 84
1, 74686, Note_on_c, 0, 65, 0
1, 74686, Note_on_c, 1, 53, 0
1, 74688, Note_on_c, 0, 63, 84
1, 74688, Note_on_c, 1, 51, 84
1, 74718, Note_on_c, 0, 63, 0
1, 74718, Note_on_c, 1, 51, 0
1, 74720, Note_on_c, 0, 61, 84
1, 74720, Note_on_c, 1, 49, 84
1, 74750, Note_on_c, 0, 61, 0
1, 74750, Note_on_c, 1, 49, 0
1, 74752, Note_on_c, 0, 60, 84
1, 74752, Note_on_c, 1, 48, 84
1, 74782, Note_on_c, 0, 60, 0
1, 74782, Note_on_c, 1, 48, 0
1, 74784, Note_on_c, 0, 68, 84
1, 74784, Note_on_c, 1, 56, 84
1, 74814, Note_on_c, 0, 68, 0
1, 74814, Note_on_c, 1, 56, 0
1, 74816, Note_on_c, 0, 67, 84
1, 74816, Note_on_c, 1, 55, 84
1, 74846, Note_on_c, 0, 67, 0
1, 74846, Note_on_c, 1, 55, 0
1, 74848, Note_on_c, 0, 65, 84
1, 74848, Note_on_c, 1, 53, 84
1, 74878, Note_on_c, 0, 65, 0
1, 74878, Note_on_c, 1, 53, 0
1, 74880, Note_on_c, 0, 63, 84
1, 74880, Note_on_c, 1, 51, 84
1, 74910, Note_on_c, 0, 63, 0
1, 74910, Note_on_c, 1, 51, 0
1, 74912, Note_on_c, 0, 61, 84
1, 74912, Note_on_c, 1, 49, 84
1, 74942, Note_on_c, 0, 61, 0
1, 74942, Note_on_c, 1, 49, 0
1, 74944, Note_on_c, 0, 60, 84
1, 74944, Note_on_c, 1, 48, 84
1, 74974, Note_on_c, 0, 60, 0
1, 74974, Note_on_c, 1, 48, 0
1, 74976, Note_on_c, 0, 68, 84
1, 74976, Note_on_c, 1, 56, 84
1, 75006, Note_on_c, 0, 68, 0
1, 75006, Note_on_c, 1, 56, 0
1, 75008, Note_on_c, 0, 67, 84
1, 75008, Note_on_c, 1, 55, 84
1, 75038, Note_on_c, 0, 67, 0
1, 75038, Note_on_c, 1, 55, 0
1, 75040, Note_on_c, 0, 65, 84
1, 75040, Note_on_c, 1, 53, 84
1, 75070, Note_on_c, 0, 65, 0
1, 75070, Note_on_c, 1, 53, 0
1, 75072, Note_on_c, 0, 63, 84
1, 75072, Note_on_c, 1, 51, 84
1, 75102, Note_on_c, 0, 63, 0
1, 75102, Note_on_c, 1, 51, 0
1, 75104, Note_on_c, 0, 61, 84
1, 75104, Note_on_c, 1, 49, 84
1, 75134, Note_on_c, 0, 61, 0
1, 75134, Note_on_c, 1, 49, 0
1, 75136, Note_on_c, 0, 60, 84
1, 75136, Note_on_c, 1, 48, 84
1, 75166, Note_on_c, 0, 60, 0
1, 75166, Note_on_c, 1, 48, 0
1, 75168, Note_on_c, 0, 68, 84
1, 75168, Note_on_c, 1, 56, 84
1, 75235, Note_on_c, 0, 68, 0
1, 75235, Note_on_c, 1, 56, 0
1, 75240, Note_on_c, 0, 60, 84
1, 75240, Note_on_c, 1, 48, 84
1, 75263, Note_on_c, 0, 60, 0
1, 75263, Note_on_c, 1, 48, 0
1, 75264, Note_on_c, 0, 63, 84
1, 75264, Note_on_c, 1, 51, 84
1, 75277, Note_on_c, 0, 63, 0
1, 75278, Note_on_c, 0, 61, 84
1, 75279, Note_on_c, 1, 51, 0
1, 75280, Note_on_c, 1, 49, 84
1, 75291, Note_on_c, 0, 61, 0
1, 75292, Note_on_c, 0, 63, 84
1, 75295, Note_on_c, 1, 49, 0
1, 75296, Note_on_c, 1, 51, 84
1, 75305, Note_on_c, 0, 63, 0
1, 75306, Note_on_c, 0, 61, 84
1, 75311, Note_on_c, 1, 51, 0
1, 75312, Note_on_c, 1, 49, 84
1, 75319, Note_on_c, 0, 61, 0
1, 75320, Note_on_c, 0, 63, 84
1, 75327, Note_on_c, 1, 49, 0
1, 75328, Note_on_c, 1, 51, 84
1, 75333, Note_on_c, 0, 63, 0
1, 75334, Note_on_c, 0, 61, 84
1, 75343, Note_on_c, 1, 51, 0
1, 75344, Note_on_c, 1, 49, 84
1, 75347, Note_on_c, 0, 61, 0
1, 75348, Note_on_c, 0, 63, 84
1, 75359, Note_on_c, 1, 49, 0
1, 75360, Note_on_c, 1, 51, 84
1, 75361, Note_on_c, 0, 63, 0
1, 75362, Note_on_c, 0, 61, 84
1, 75375, Note_on_c, 0, 61, 0
1, 75375, Note_on_c, 1, 51, 0
1, 75376, Note_on_c, 0, 63, 84
1, 75376, Note_on_c, 1, 49, 84
1, 75389, Note_on_c, 0, 63, 0
1, 75390, Note_on_c, 0, 61, 84
1, 75391, Note_on_c, 1, 49, 0
1, 75392, Note_on_c, 1, 51, 84
1, 75403, Note_on_c, 0, 61, 0
1, 75404, Note_on_c, 0, 63, 84
1, 75407, Note_on_c, 1, 51, 0
1, 75408, Note_on_c, 1, 49, 84
1, 75416, Note_on_c, 0, 63, 0
1, 75417, Note_on_c, 0, 61, 84
1, 75423, Note_on_c, 1, 49, 0
1, 75424, Note_on_c, 1, 48, 84
1, 75429, Note_on_c, 0, 61, 0
1, 75430, Note_on_c, 0, 60, 84
1, 75439, Note_on_c, 1, 48, 0
1, 75440, Note_on_c, 1, 49, 84
1, 75442, Note_on_c, 0, 60, 0
1, 75443, Note_on_c, 0, 61, 84
1, 75455, Note_on_c, 0, 61, 0
1, 75455, Note_on_c, 1, 49, 0
1, 75456, Note_on_c, 0, 63, 84
1, 75456, Note_on_c, 1, 51, 84
1, 75545, Note_on_c, 0, 63, 0
1, 75545, Note_on_c, 1, 51, 0
1, 75552, Note_on_c, 0, 63, 84
1, 75552, Note_on_c, 1, 51, 79
1, 75591, Note_on_c, 0, 63, 0
1, 75641, Note_on_c, 1, 51, 0
1, 75648, Note_on_c, 0, 68, 84
1, 75648, Note_on_c, 1, 56, 75
1, 75678, Note_on_c, 1, 56, 0
1, 75680, Note_on_c, 1, 60, 74
1, 75710, Note_on_c, 1, 60, 0
1, 75712, Note_on_c, 1, 63, 72
1, 75742, Note_on_c, 1, 63, 0
1, 75744, Note_on_c, 1, 56, 71
1, 75774, Note_on_c, 1, 56, 0
1, 75776, Note_on_c, 1, 60, 70
1, 75806, Note_on_c, 1, 60, 0
1, 75808, Note_on_c, 1, 63, 69
1, 75838, Note_on_c, 1, 63, 0
1, 75840, Note_on_c, 1, 56, 67
1, 75870, Note_on_c, 1, 56, 0
1, 75872, Note_on_c, 1, 60, 66
1, 75902, Note_on_c, 1, 60, 0
1, 75904, Note_on_c, 1, 63, 65
1, 75913, Note_on_c, 0, 68, 0
1, 75934, Note_on_c, 1, 63, 0
1, 75936, Note_on_c, 0, 72, 71
1, 75936, Note_on_c, 1, 56, 63
1, 75960, Note_on_c, 0, 72, 0
1, 75960, Note_on_c, 0, 70, 70
1, 75966, Note_on_c, 1, 56, 0
1, 75968, Note_on_c, 1, 61, 63
1, 75998, Note_on_c, 1, 61, 0
1, 76000, Note_on_c, 1, 67, 63
1, 76027, Note_on_c, 0, 70, 0
1, 76030, Note_on_c, 1, 67, 0
1, 76032, Note_on_c, 0, 68, 70
1, 76032, Note_on_c, 1, 56, 63
1, 76062, Note_on_c, 1, 56, 0
1, 76064, Note_on_c, 1, 60, 63
1, 76094, Note_on_c, 1, 60, 0
1, 76096, Note_on_c, 1, 63, 63
1, 76121, Note_on_c, 0, 68, 0
1, 76126, Note_on_c, 1, 63, 0
1, 76128, Note_on_c, 0, 68, 71
1, 76128, Note_on_c, 1, 56, 63
1, 76158, Note_on_c, 1, 56, 0
1, 76160, Note_on_c, 1, 60, 63
1, 76190, Note_on_c, 1, 60, 0
1, 76192, Note_on_c, 1, 63, 63
1, 76217, Note_on_c, 0, 68, 0
1, 76222, Note_on_c, 1, 63, 0
1, 76224, Note_on_c, 0, 68, 73
1, 76224, Note_on_c, 1, 56, 63
1, 76254, Note_on_c, 1, 56, 0
1, 76256, Note_on_c, 1, 60, 63
1, 76286, Note_on_c, 1, 60, 0
1, 76288, Note_on_c, 1, 63, 63
1, 76313, Note_on_c, 0, 68, 0
1, 76318, Note_on_c, 1, 63, 0
1, 76320, Note_on_c, 0, 73, 75
1, 76320, Note_on_c, 1, 56, 63
1, 76344, Note_on_c, 0, 73, 0
1, 76344, Note_on_c, 0, 70, 75
1, 76350, Note_on_c, 1, 56, 0
1, 76352, Note_on_c, 1, 61, 63
1, 76382, Note_on_c, 1, 61, 0
1, 76384, Note_on_c, 1, 67, 63
1, 76411, Note_on_c, 0, 70, 0
1, 76414, Note_on_c, 1, 67, 0
1, 76416, Note_on_c, 0, 75, 77
1, 76416, Note_on_c, 1, 56, 63
1, 76446, Note_on_c, 1, 56, 0
1, 76448, Note_on_c, 1, 60, 63
1, 76478, Note_on_c, 1, 60, 0
1, 76480, Note_on_c, 1, 63, 63
1, 76505, Note_on_c, 0, 75, 0
1, 76510, Note_on_c, 1, 63, 0
1, 76512, Note_on_c, 0, 75, 74
1, 76512, Note_on_c, 1, 56, 63
1, 76542, Note_on_c, 1, 56, 0
1, 76544, Note_on_c, 1, 60, 63
1, 76574, Note_on_c, 1, 60, 0
1, 76576, Note_on_c, 1, 63, 63
1, 76601, Note_on_c, 0, 75, 0
1, 76606, Note_on_c, 1, 63, 0
1, 76608, Note_on_c, 0, 75, 72
1, 76608, Note_on_c, 1, 56, 63
1, 76638, Note_on_c, 1, 56, 0
1, 76640, Note_on_c, 1, 60, 63
1, 76670, Note_on_c, 1, 60, 0
1, 76672, Note_on_c, 1, 63, 63
1, 76697, Note_on_c, 0, 75, 0
1, 76702, Note_on_c, 1, 63, 0
1, 76704, Note_on_c, 0, 73, 70
1, 76704, Note_on_c, 1, 56, 63
1, 76728, Note_on_c, 0, 73, 0
1, 76728, Note_on_c, 0, 70, 70
1, 76734, Note_on_c, 1, 56, 0
1, 76736, Note_on_c, 1, 61, 63
1, 76766, Note_on_c, 1, 61, 0
1, 76768, Note_on_c, 1, 67, 63
1, 76795, Note_on_c, 0, 70, 0
1, 76798, Note_on_c, 1, 67, 0
1, 76800, Note_on_c, 0, 68, 70
1, 76800, Note_on_c, 1, 56, 63
1, 76830, Note_on_c, 1, 56, 0
1, 76832, Note_on_c, 1, 60, 63
1, 76862, Note_on_c, 1, 60, 0
1, 76864, Note_on_c, 1, 63, 63
1, 76894, Note_on_c, 1, 63, 0
1, 76896, Note_on_c, 1, 56, 63
1, 76926, Note_on_c, 1, 56, 0
1, 76928, Note_on_c, 1, 60, 63
1, 76958, Note_on_c, 1, 60, 0
1, 76960, Note_on_c, 1, 63, 63
1, 76990, Note_on_c, 1, 63, 0
1, 76992, Note_on_c, 1, 56, 63
1, 77022, Note_on_c, 1, 56, 0
1, 77024, Note_on_c, 1, 60, 63
1, 77054, Note_on_c, 1, 60, 0
1, 77056, Note_on_c, 1, 63, 63
1, 77065, Note_on_c, 0, 68, 0
1, 77086, Note_on_c, 1, 63, 0
1, 77088, Note_on_c, 0, 72, 70
1, 77088, Note_on_c, 1, 56, 63
1, 77112, Note_on_c, 0, 72, 0
1, 77112, Note_on_c, 0, 70, 70
1, 77118, Note_on_c, 1, 56, 0
1, 77120, Note_on_c, 1, 61, 63
1, 77150, Note_on_c, 1, 61, 0
1, 77152, Note_on_c, 1, 67, 63
1, 77179, Note_on_c, 0, 70, 0
1, 77182, Note_on_c, 1, 67, 0
1, 77184, Note_on_c, 0, 68, 70
1, 77184, Note_on_c, 1, 56, 63
1, 77214, Note_on_c, 1, 56, 0
1, 77216, Note_on_c, 1, 60, 63
1, 77246, Note_on_c, 1, 60, 0
1, 77248, Note_on_c, 1, 63, 63
1, 77273, Note_on_c, 0, 68, 0
1, 77278, Note_on_c, 1, 63, 0
1, 77280, Note_on_c, 0, 68, 71
1, 77280, Note_on_c, 1, 56, 63
1, 77310, Note_on_c, 1, 56, 0
1, 77312, Note_on_c, 1, 60, 63
1, 77342, Note_on_c, 1, 60, 0
1, 77344, Note_on_c, 1, 63, 63
1, 77369, Note_on_c, 0, 68, 0
1, 77374, Note_on_c, 1, 63, 0
1, 77376, Note_on_c, 0, 68, 73
1, 77376, Note_on_c, 1, 56, 63
1, 77406, Note_on_c, 1, 56, 0
1, 77408, Note_on_c, 1, 60, 63
1, 77438, Note_on_c, 1, 60, 0
1, 77440, Note_on_c, 1, 63, 63
1, 77465, Note_on_c, 0, 68, 0
1, 77470, Note_on_c, 1, 63, 0
1, 77472, Note_on_c, 0, 73, 75
1, 77472, Note_on_c, 1, 56, 63
1, 77496, Note_on_c, 0, 73, 0
1, 77496, Note_on_c, 0, 70, 75
1, 77502, Note_on_c, 1, 56, 0
1, 77504, Note_on_c, 1, 61, 63
1, 77534, Note_on_c, 1, 61, 0
1, 77536, Note_on_c, 1, 67, 63
1, 77563, Note_on_c, 0, 70, 0
1, 77566, Note_on_c, 1, 67, 0
1, 77568, Note_on_c, 0, 75, 77
1, 77568, Note_on_c, 1, 56, 63
1, 77598, Note_on_c, 1, 56, 0
1, 77600, Note_on_c, 1, 60, 63
1, 77630, Note_on_c, 1, 60, 0
1, 77632, Note_on_c, 1, 63, 63
1, 77657, Note_on_c, 0, 75, 0
1, 77662, Note_on_c, 1, 63, 0
1, 77664, Note_on_c, 0, 75, 75
1, 77664, Note_on_c, 1, 56, 63
1, 77694, Note_on_c, 1, 56, 0
1, 77696, Note_on_c, 1, 60, 63
1, 77726, Note_on_c, 1, 60, 0
1, 77728, Note_on_c, 1, 63, 63
1, 77753, Note_on_c, 0, 75, 0
1, 77758, Note_on_c, 1, 63, 0
1, 77760, Note_on_c, 0, 75, 73
1, 77760, Note_on_c, 1, 56, 63
1, 77790, Note_on_c, 1, 56, 0
1, 77792, Note_on_c, 1, 60, 63
1, 77822, Note_on_c, 1, 60, 0
1, 77824, Note_on_c, 1, 63, 63
1, 77849, Note_on_c, 0, 75, 0
1, 77854, Note_on_c, 1, 63, 0
1, 77856, Note_on_c, 0, 73, 71
1, 77856, Note_on_c, 1, 56, 63
1, 77880, Note_on_c, 0, 73, 0
1, 77880, Note_on_c, 0, 70, 71
1, 77886, Note_on_c, 1, 56, 0
1, 77888, Note_on_c, 1, 61, 63
1, 77918, Note_on_c, 1, 61, 0
1, 77920, Note_on_c, 1, 67, 63
1, 77947, Note_on_c, 0, 70, 0
1, 77950, Note_on_c, 1, 67, 0
1, 77952, Note_on_c, 0, 68, 70
1, 77952, Note_on_c, 1, 56, 63
1, 77982, Note_on_c, 1, 56, 0
1, 77984, Note_on_c, 1, 60, 63
1, 78014, Note_on_c, 1, 60, 0
1, 78016, Note_on_c, 1, 63, 63
1, 78046, Note_on_c, 1, 63, 0
1, 78048, Note_on_c, 1, 56, 63
1, 78078, Note_on_c, 1, 56, 0
1, 78080, Note_on_c, 1, 60, 63
1, 78110, Note_on_c, 1, 60, 0
1, 78112, Note_on_c, 1, 63, 63
1, 78142, Note_on_c, 1, 63, 0
1, 78144, Note_on_c, 1, 56, 63
1, 78174, Note_on_c, 1, 56, 0
1, 78176, Note_on_c, 1, 60, 63
1, 78206, Note_on_c, 1, 60, 0
1, 78208, Note_on_c, 1, 63, 63
1, 78217, Note_on_c, 0, 68, 0
1, 78238, Note_on_c, 1, 63, 0
1, 78240, Note_on_c, 0, 72, 70
1, 78240, Note_on_c, 1, 56, 63
1, 78264, Note_on_c, 0, 72, 0
1, 78264, Note_on_c, 0, 70, 70
1, 78270, Note_on_c, 1, 56, 0
1, 78272, Note_on_c, 1, 61, 63
1, 78302, Note_on_c, 1, 61, 0
1, 78304, Note_on_c, 1, 67, 63
1, 78331, Note_on_c, 0, 70, 0
1, 78334, Note_on_c, 1, 67, 0
1, 78336, Note_on_c, 0, 68, 70
1, 78336, Note_on_c, 1, 60, 63
1, 78336, Note_on_c, 1, 56, 63
1, 78425, Note_on_c, 0, 68, 0
1, 78425, Note_on_c, 1, 60, 0
1, 78425, Note_on_c, 1, 56, 0
1, 78432, Note_on_c, 0, 75, 56
1, 78432, Note_on_c, 0, 72, 56
1, 78521, Note_on_c, 0, 75, 0
1, 78521, Note_on_c, 0, 72, 0
1, 78528, Note_on_c, 0, 75, 56
1, 78528, Note_on_c, 0, 72, 56
1, 78617, Note_on_c, 0, 75, 0
1, 78617, Note_on_c, 0, 72, 0
1, 78624, Note_on_c, 1, 48, 56
1, 78624, Note_on_c, 1, 44, 56
1, 78713, Note_on_c, 1, 48, 0
1, 78713, Note_on_c, 1, 44, 0
1, 78720, Note_on_c, 1, 48, 56
1, 78720, Note_on_c, 1, 44, 56
1, 78853, Note_on_c, 1, 48, 0
1, 78853, Note_on_c, 1, 44, 0
1, 79008, Note_on_c, 0, 58, 77
1, 79075, Note_on_c, 0, 58, 0
1, 79080, Note_on_c, 0, 55, 77
1, 79103, Note_on_c, 0, 55, 0
1, 79104, Note_on_c, 0, 63, 77
1, 79104, Note_on_c, 1, 51, 77
1, 79104, Note_on_c, 1, 39, 77
1, 79171, Note_on_c, 0, 63, 0
1, 79176, Note_on_c, 0, 63, 77
1, 79193, Note_on_c, 1, 51, 0
1, 79193, Note_on_c, 1, 39, 0
1, 79199, Note_on_c, 0, 63, 0
1, 79200, Note_on_c, 0, 65, 77
1, 79212, Note_on_c, 0, 65, 0
1, 79212, Note_on_c, 0, 63, 77
1, 79224, Note_on_c, 0, 63, 0
1, 79224, Note_on_c, 0, 65, 77
1, 79236, Note_on_c, 0, 65, 0
1, 79236, Note_on_c, 0, 63, 77
1, 79248, Note_on_c, 0, 63, 0
1, 79248, Note_on_c, 0, 62, 77
1, 79272, Note_on_c, 0, 62, 0
1, 79272, Note_on_c, 0, 63, 77
1, 79296, Note_on_c, 0, 63, 0
1, 79296, Note_on_c, 0, 65, 77
1, 79296, Note_on_c, 1, 50, 77
1, 79296, Note_on_c, 1, 38, 77
1, 79385, Note_on_c, 0, 65, 0
1, 79385, Note_on_c, 1, 50, 0
1, 79385, Note_on_c, 1, 38, 0
1, 79392, Note_on_c, 0, 58, 77
1, 79459, Note_on_c, 0, 58, 0
1, 79464, Note_on_c, 0, 70, 77
1, 79487, Note_on_c, 0, 70, 0
1, 79488, Note_on_c, 0, 68, 77
1, 79584, Note_on_c, 1, 39, 77
1, 79673, Note_on_c, 1, 39, 0
1, 79680, Note_on_c, 0, 68, 0
1, 79680, Note_on_c, 0, 67, 77
1, 79680, Note_on_c, 1, 51, 77
1, 79700, Note_on_c, 0, 67, 0
1, 79769, Note_on_c, 1, 51, 0
1, 79776, Note_on_c, 0, 63, 77
1, 79843, Note_on_c, 0, 63, 0
1, 79848, Note_on_c, 0, 72, 77
1, 79871, Note_on_c, 0, 72, 0
1, 79872, Note_on_c, 0, 70, 77
1, 79968, Note_on_c, 1, 53, 77
1, 80064, Note_on_c, 0, 70, 0
1, 80064, Note_on_c, 0, 68, 77
1, 80064, Note_on_c, 1, 53, 0
1, 80064, Note_on_c, 1, 50, 77
1, 80084, Note_on_c, 0, 68, 0
1, 80109, Note_on_c, 1, 50, 0
1, 80160, Note_on_c, 0, 58, 77
1, 80227, Note_on_c, 0, 58, 0
1, 80232, Note_on_c, 0, 70, 77
1, 80255, Note_on_c, 0, 70, 0
1, 80256, Note_on_c, 0, 68, 77
1, 80352, Note_on_c, 1, 39, 77
1, 80441, Note_on_c, 1, 39, 0
1, 80448, Note_on_c, 0, 68, 0
1, 80448, Note_on_c, 0, 67, 77
1, 80448, Note_on_c, 1, 51, 77
1, 80468, Note_on_c, 0, 67, 0
1, 80537, Note_on_c, 1, 51, 0
1, 80544, Note_on_c, 0, 75, 77
1, 80544, Note_on_c, 1, 43, 77
1, 80611, Note_on_c, 0, 75, 0
1, 80616, Note_on_c, 0, 67, 77
1, 80633, Note_on_c, 1, 43, 0
1, 80639, Note_on_c, 0, 67, 0
1, 80640, Note_on_c, 0, 65, 77
1, 80640, Note_on_c, 1, 44, 77
1, 80707, Note_on_c, 0, 65, 0
1, 80712, Note_on_c, 0, 65, 77
1, 80729, Note_on_c, 1, 44, 0
1, 80735, Note_on_c, 0, 65, 0
1, 80736, Note_on_c, 0, 67, 77
1, 80748, Note_on_c, 0, 67, 0
1, 80748, Note_on_c, 0, 65, 77
1, 80760, Note_on_c, 0, 65, 0
1, 80760, Note_on_c, 0, 67, 77
1, 80772, Note_on_c, 0, 67, 0
1, 80772, Note_on_c, 0, 65, 77
1, 80784, Note_on_c, 0, 65, 0
1, 80784, Note_on_c, 0, 64, 77
1, 80808, Note_on_c, 0, 64, 0
1, 80808, Note_on_c, 0, 65, 77
1, 80832, Note_on_c, 0, 65, 0
1, 80832, Note_on_c, 0, 68, 77
1, 80899, Note_on_c, 0, 68, 0
1, 80904, Note_on_c, 0, 65, 77
1, 80927, Note_on_c, 0, 65, 0
1, 80928, Note_on_c, 0, 62, 77
1, 80928, Note_on_c, 1, 46, 77
1, 80995, Note_on_c, 0, 62, 0
1, 81000, Note_on_c, 0, 58, 77
1, 81017, Note_on_c, 1, 46, 0
1, 81023, Note_on_c, 0, 58, 0
1, 81024, Note_on_c, 0, 63, 77
1, 81096, Note_on_c, 1, 51, 77
1, 81113, Note_on_c, 0, 63, 0
1, 81119, Note_on_c, 1, 51, 0
1, 81120, Note_on_c, 1, 55, 77
1, 81187, Note_on_c, 1, 55, 0
1, 81192, Note_on_c, 1, 58, 77
1, 81215, Note_on_c, 1, 58, 0
1, 81216, Note_on_c, 1, 63, 77
1, 81288, Note_on_c, 0, 67, 77
1, 81305, Note_on_c, 1, 63, 0
1, 81311, Note_on_c, 0, 67, 0
1, 81312, Note_on_c, 0, 70, 77
1, 81379, Note_on_c, 0, 70, 0
1, 81384, Note_on_c, 0, 75, 78
1, 81407, Note_on_c, 0, 75, 0
1, 81408, Note_on_c, 0, 79, 78
1, 81475, Note_on_c, 0, 79, 0
1, 81480, Note_on_c, 0, 70, 79
1, 81503, Note_on_c, 0, 70, 0
1, 81504, Note_on_c, 0, 75, 79
1, 81571, Note_on_c, 0, 75, 0
1, 81576, Note_on_c, 0, 79, 80
1, 81599, Note_on_c, 0, 79, 0
1, 81600, Note_on_c, 0, 82, 81
1, 81667, Note_on_c, 0, 82, 0
1, 81672, Note_on_c, 0, 75, 82
1, 81695, Note_on_c, 0, 75, 0
1, 81696, Note_on_c, 0, 79, 82
1, 81763, Note_on_c, 0, 79, 0
1, 81768, Note_on_c, 0, 82, 83
1, 81791, Note_on_c, 0, 82, 0
1, 81792, Note_on_c, 0, 85, 100
1, 81864, Note_on_c, 1, 68, 77
1, 81887, Note_on_c, 1, 68, 0
1, 81888, Note_on_c, 1, 67, 77
1, 81955, Note_on_c, 1, 67, 0
1, 81960, Note_on_c, 1, 65, 75
1, 81983, Note_on_c, 1, 65, 0
1, 81984, Note_on_c, 0, 85, 0
1, 81984, Note_on_c, 0, 85, 84
1, 81984, Note_on_c, 1, 64, 74
1, 81998, Note_on_c, 0, 85, 0
1, 81999, Note_on_c, 0, 84, 83
1, 82013, Note_on_c, 0, 84, 0
1, 82014, Note_on_c, 0, 85, 83
1, 82028, Note_on_c, 0, 85, 0
1, 82029, Note_on_c, 0, 84, 82
1, 82043, Note_on_c, 0, 84, 0
1, 82044, Note_on_c, 0, 85, 82
1, 82051, Note_on_c, 1, 64, 0
1, 82056, Note_on_c, 1, 67, 72
1, 82058, Note_on_c, 0, 85, 0
1, 82059, Note_on_c, 0, 84, 81
1, 82073, Note_on_c, 0, 84, 0
1, 82074, Note_on_c, 0, 85, 81
1, 82079, Note_on_c, 1, 67, 0
1, 82080, Note_on_c, 1, 60, 72
1, 82088, Note_on_c, 0, 85, 0
1, 82089, Note_on_c, 0, 84, 80
1, 82103, Note_on_c, 0, 84, 0
1, 82104, Note_on_c, 0, 85, 80
1, 82118, Note_on_c, 0, 85, 0
1, 82119, Note_on_c, 0, 84, 80
1, 82133, Note_on_c, 0, 84, 0
1, 82134, Note_on_c, 0, 82, 79
1, 82147, Note_on_c, 1, 60, 0
1, 82152, Note_on_c, 1, 64, 70
1, 82175, Note_on_c, 0, 82, 0
1, 82175, Note_on_c, 1, 64, 0
1, 82176, Note_on_c, 0, 80, 77
1, 82176, Note_on_c, 1, 65, 63
1, 82206, Note_on_c, 1, 65, 0
1, 82208, Note_on_c, 1, 68, 63
1, 82238, Note_on_c, 1, 68, 0
1, 82240, Note_on_c, 1, 72, 63
1, 82265, Note_on_c, 0, 80, 0
1, 82270, Note_on_c, 1, 72, 0
1, 82272, Note_on_c, 0, 77, 77
1, 82272, Note_on_c, 1, 65, 63
1, 82302, Note_on_c, 1, 65, 0
1, 82304, Note_on_c, 1, 68, 63
1, 82334, Note_on_c, 1, 68, 0
1, 82336, Note_on_c, 1, 72, 63
1, 82361, Note_on_c, 0, 77, 0
1, 82366, Note_on_c, 1, 72, 0
1, 82368, Note_on_c, 0, 77, 77
1, 82368, Note_on_c, 1, 65, 63
1, 82398, Note_on_c, 1, 65, 0
1, 82400, Note_on_c, 1, 68, 63
1, 82430, Note_on_c, 1, 68, 0
1, 82432, Note_on_c, 1, 72, 63
1, 82457, Note_on_c, 0, 77, 0
1, 82462, Note_on_c, 1, 72, 0
1, 82464, Note_on_c, 0, 79, 77
1, 82464, Note_on_c, 1, 64, 63
1, 82494, Note_on_c, 1, 64, 0
1, 82496, Note_on_c, 1, 67, 63
1, 82526, Note_on_c, 1, 67, 0
1, 82528, Note_on_c, 1, 72, 63
1, 82553, Note_on_c, 0, 79, 0
1, 82558, Note_on_c, 1, 72, 0
1, 82560, Note_on_c, 0, 79, 77
1, 82560, Note_on_c, 1, 65, 63
1, 82572, Note_on_c, 0, 79, 0
1, 82572, Note_on_c, 0, 80, 77
1, 82590, Note_on_c, 1, 65, 0
1, 82592, Note_on_c, 1, 68, 63
1, 82622, Note_on_c, 1, 68, 0
1, 82624, Note_on_c, 1, 72, 63
1, 82654, Note_on_c, 1, 72, 0
1, 82656, Note_on_c, 1, 65, 63
1, 82686, Note_on_c, 1, 65, 0
1, 82688, Note_on_c, 1, 68, 63
1, 82718, Note_on_c, 1, 68, 0
1, 82720, Note_on_c, 1, 72, 63
1, 82750, Note_on_c, 1, 72, 0
1, 82752, Note_on_c, 0, 80, 0
1, 82752, Note_on_c, 0, 77, 77
1, 82752, Note_on_c, 1, 65, 63
1, 82782, Note_on_c, 1, 65, 0
1, 82784, Note_on_c, 1, 68, 63
1, 82814, Note_on_c, 1, 68, 0
1, 82816, Note_on_c, 1, 72, 63
1, 82846, Note_on_c, 1, 72, 0
1, 82848, Note_on_c, 1, 65, 63
1, 82878, Note_on_c, 1, 65, 0
1, 82880, Note_on_c, 1, 68, 63
1, 82910, Note_on_c, 1, 68, 0
1, 82912, Note_on_c, 1, 72, 63
1, 82929, Note_on_c, 0, 77, 0
1, 82942, Note_on_c, 1, 72, 0
1, 82944, Note_on_c, 0, 80, 77
1, 82944, Note_on_c, 1, 63, 63
1, 82974, Note_on_c, 1, 63, 0
1, 82976, Note_on_c, 1, 66, 63
1, 83006, Note_on_c, 1, 66, 0
1, 83008, Note_on_c, 1, 72, 63
1, 83033, Note_on_c, 0, 80, 0
1, 83038, Note_on_c, 1, 72, 0
1, 83040, Note_on_c, 0, 80, 79
1, 83040, Note_on_c, 1, 63, 63
1, 83070, Note_on_c, 1, 63, 0
1, 83072, Note_on_c, 1, 66, 63
1, 83102, Note_on_c, 1, 66, 0
1, 83104, Note_on_c, 1, 72, 63
1, 83129, Note_on_c, 0, 80, 0
1, 83134, Note_on_c, 1, 72, 0
1, 83136, Note_on_c, 0, 80, 81
1, 83136, Note_on_c, 1, 63, 63
1, 83166, Note_on_c, 1, 63, 0
1, 83168, Note_on_c, 1, 66, 63
1, 83198, Note_on_c, 1, 66, 0
1, 83200, Note_on_c, 1, 72, 63
1, 83203, Note_on_c, 0, 80, 0
1, 83208, Note_on_c, 0, 84, 83
1, 83230, Note_on_c, 1, 72, 0
1, 83231, Note_on_c, 0, 84, 0
1, 83232, Note_on_c, 0, 85, 84
1, 83232, Note_on_c, 1, 63, 63
1, 83244, Note_on_c, 0, 85, 0
1, 83244, Note_on_c, 0, 84, 84
1, 83256, Note_on_c, 0, 84, 0
1, 83256, Note_on_c, 0, 85, 84
1, 83262, Note_on_c, 1, 63, 0
1, 83264, Note_on_c, 1, 66, 63
1, 83268, Note_on_c, 0, 85, 0
1, 83268, Note_on_c, 0, 84, 84
1, 83280, Note_on_c, 0, 84, 0
1, 83280, Note_on_c, 0, 82, 84
1, 83294, Note_on_c, 1, 66, 0
1, 83296, Note_on_c, 1, 72, 63
1, 83304, Note_on_c, 0, 82, 0
1, 83304, Note_on_c, 0, 84, 84
1, 83326, Note_on_c, 1, 72, 0
1, 83328, Note_on_c, 0, 84, 0
1, 83328, Note_on_c, 0, 85, 84
1, 83328, Note_on_c, 1, 61, 63
1, 83358, Note_on_c, 1, 61, 0
1, 83360, Note_on_c, 1, 65, 63
1, 83390, Note_on_c, 1, 65, 0
1, 83392, Note_on_c, 1, 68, 63
1, 83422, Note_on_c, 1, 68, 0
1, 83424, Note_on_c, 1, 61, 63
1, 83454, Note_on_c, 1, 61, 0
1, 83456, Note_on_c, 1, 65, 63
1, 83486, Note_on_c, 1, 65, 0
1, 83488, Note_on_c, 1, 68, 63
1, 83518, Note_on_c, 1, 68, 0
1, 83520, Note_on_c, 0, 85, 0
1, 83520, Note_on_c, 0, 73, 80
1, 83520, Note_on_c, 1, 61, 63
1, 83550, Note_on_c, 1, 61, 0
1, 83552, Note_on_c, 1, 65, 63
1, 83582, Note_on_c, 1, 65, 0
1, 83584, Note_on_c, 1, 68, 63
1, 83614, Note_on_c, 1, 68, 0
1, 83616, Note_on_c, 1, 61, 63
1, 83646, Note_on_c, 1, 61, 0
1, 83648, Note_on_c, 1, 65, 63
1, 83678, Note_on_c, 1, 65, 0
1, 83680, Note_on_c, 1, 68, 63
1, 83697, Note_on_c, 0, 73, 0
1, 83710, Note_on_c, 1, 68, 0
1, 83712, Note_on_c, 0, 82, 77
1, 83712, Note_on_c, 1, 62, 63
1, 83742, Note_on_c, 1, 62, 0
1, 83744, Note_on_c, 1, 65, 63
1, 83774, Note_on_c, 1, 65, 0
1, 83776, Note_on_c, 1, 70, 63
1, 83801, Note_on_c, 0, 82, 0
1, 83806, Note_on_c, 1, 70, 0
1, 83808, Note_on_c, 0, 82, 77
1, 83808, Note_on_c, 1, 62, 63
1, 83838, Note_on_c, 1, 62, 0
1, 83840, Note_on_c, 1, 65, 63
1, 83870, Note_on_c, 1, 65, 0
1, 83872, Note_on_c, 1, 70, 63
1, 83897, Note_on_c, 0, 82, 0
1, 83902, Note_on_c, 1, 70, 0
1, 83904, Note_on_c, 0, 82, 77
1, 83904, Note_on_c, 1, 62, 63
1, 83934, Note_on_c, 1, 62, 0
1, 83936, Note_on_c, 1, 65, 63
1, 83966, Note_on_c, 1, 65, 0
1, 83968, Note_on_c, 1, 70, 63
1, 83993, Note_on_c, 0, 82, 0
1, 83998, Note_on_c, 1, 70, 0
1, 84000, Note_on_c, 0, 82, 77
1, 84000, Note_on_c, 1, 62, 63
1, 84012, Note_on_c, 0, 82, 0
1, 84012, Note_on_c, 0, 80, 77
1, 84024, Note_on_c, 0, 80, 0
1, 84024, Note_on_c, 0, 82, 77
1, 84030, Note_on_c, 1, 62, 0
1, 84032, Note_on_c, 1, 65, 63
1, 84036, Note_on_c, 0, 82, 0
1, 84036, Note_on_c, 0, 80, 77
1, 84048, Note_on_c, 0, 80, 0
1, 84048, Note_on_c, 0, 79, 77
1, 84062, Note_on_c, 1, 65, 0
1, 84064, Note_on_c, 1, 70, 63
1, 84072, Note_on_c, 0, 79, 0
1, 84072, Note_on_c, 0, 80, 77
1, 84094, Note_on_c, 1, 70, 0
1, 84096, Note_on_c, 0, 80, 0
1, 84096, Note_on_c, 0, 79, 77
1, 84096, Note_on_c, 1, 63, 63
1, 84126, Note_on_c, 1, 63, 0
1, 84128, Note_on_c, 1, 67, 63
1, 84158, Note_on_c, 1, 67, 0
1, 84160, Note_on_c, 1, 70, 63
1, 84190, Note_on_c, 1, 70, 0
1, 84192, Note_on_c, 1, 63, 63
1, 84222, Note_on_c, 1, 63, 0
1, 84224, Note_on_c, 1, 67, 63
1, 84254, Note_on_c, 1, 67, 0
1, 84256, Note_on_c, 1, 70, 63
1, 84286, Note_on_c, 1, 70, 0
1, 84288, Note_on_c, 0, 79, 0
1, 84288, Note_on_c, 0, 75, 77
1, 84288, Note_on_c, 1, 63, 63
1, 84318, Note_on_c, 1, 63, 0
1, 84320, Note_on_c, 1, 67, 63
1, 84350, Note_on_c, 1, 67, 0
1, 84352, Note_on_c, 1, 70, 63
1, 84382, Note_on_c, 1, 70, 0
1, 84384, Note_on_c, 1, 63, 63
1, 84414, Note_on_c, 1, 63, 0
1, 84416, Note_on_c, 1, 67, 63
1, 84446, Note_on_c, 1, 67, 0
1, 84448, Note_on_c, 1, 70, 63
1, 84465, Note_on_c, 0, 75, 0
1, 84478, Note_on_c, 1, 70, 0
1, 84480, Note_on_c, 0, 74, 77
1, 84480, Note_on_c, 1, 65, 63
1, 84510, Note_on_c, 1, 65, 0
1, 84512, Note_on_c, 1, 68, 63
1, 84542, Note_on_c, 1, 68, 0
1, 84544, Note_on_c, 1, 71, 63
1, 84569, Note_on_c, 0, 74, 0
1, 84574, Note_on_c, 1, 71, 0
1, 84576, Note_on_c, 0, 74, 77
1, 84576, Note_on_c, 1, 65, 63
1, 84606, Note_on_c, 1, 65, 0
1, 84608, Note_on_c, 1, 68, 63
1, 84638, Note_on_c, 1, 68, 0
1, 84640, Note_on_c, 1, 71, 63
1, 84665, Note_on_c, 0, 74, 0
1, 84670, Note_on_c, 1, 71, 0
1, 84672, Note_on_c, 0, 74, 77
1, 84672, Note_on_c, 1, 65, 64
1, 84702, Note_on_c, 1, 65, 0
1, 84704, Note_on_c, 1, 68, 64
1, 84734, Note_on_c, 1, 68, 0
1, 84736, Note_on_c, 1, 71, 64
1, 84739, Note_on_c, 0, 74, 0
1, 84744, Note_on_c, 0, 74, 78
1, 84766, Note_on_c, 1, 71, 0
1, 84767, Note_on_c, 0, 74, 0
1, 84768, Note_on_c, 0, 75, 78
1, 84768, Note_on_c, 1, 65, 64
1, 84780, Note_on_c, 0, 75, 0
1, 84780, Note_on_c, 0, 74, 78
1, 84792, Note_on_c, 0, 74, 0
1, 84792, Note_on_c, 0, 75, 78
1, 84798, Note_on_c, 1, 65, 0
1, 84800, Note_on_c, 1, 68, 64
1, 84804, Note_on_c, 0, 75, 0
1, 84804, Note_on_c, 0, 74, 78
1, 84816, Note_on_c, 0, 74, 0
1, 84816, Note_on_c, 0, 72, 78
1, 84830, Note_on_c, 1, 68, 0
1, 84832, Note_on_c, 1, 71, 65
1, 84840, Note_on_c, 0, 72, 0
1, 84840, Note_on_c, 0, 74, 78
1, 84862, Note_on_c, 1, 71, 0
1, 84864, Note_on_c, 0, 74, 0
1, 84864, Note_on_c, 0, 75, 78
1, 84864, Note_on_c, 1, 63, 65
1, 84894, Note_on_c, 1, 63, 0
1, 84896, Note_on_c, 1, 68, 65
1, 84926, Note_on_c, 1, 68, 0
1, 84928, Note_on_c, 1, 71, 65
1, 84953, Note_on_c, 0, 75, 0
1, 84958, Note_on_c, 1, 71, 0
1, 84960, Note_on_c, 0, 75, 79
1, 84960, Note_on_c, 1, 63, 65
1, 84990, Note_on_c, 1, 63, 0
1, 84992, Note_on_c, 1, 68, 65
1, 85022, Note_on_c, 1, 68, 0
1, 85024, Note_on_c, 1, 71, 66
1, 85049, Note_on_c, 0, 75, 0
1, 85054, Note_on_c, 1, 71, 0
1, 85056, Note_on_c, 0, 75, 80
1, 85056, Note_on_c, 1, 63, 66
1, 85086, Note_on_c, 1, 63, 0
1, 85088, Note_on_c, 1, 68, 66
1, 85118, Note_on_c, 1, 68, 0
1, 85120, Note_on_c, 1, 71, 66
1, 85123, Note_on_c, 0, 75, 0
1, 85128, Note_on_c, 0, 75, 80
1, 85150, Note_on_c, 1, 71, 0
1, 85151, Note_on_c, 0, 75, 0
1, 85152, Note_on_c, 0, 77, 80
1, 85152, Note_on_c, 1, 63, 66
1, 85164, Note_on_c, 0, 77, 0
1, 85164, Note_on_c, 0, 75, 80
1, 85176, Note_on_c, 0, 75, 0
1, 85176, Note_on_c, 0, 77, 80
1, 85182, Note_on_c, 1, 63, 0
1, 85184, Note_on_c, 1, 68, 67
1, 85188, Note_on_c, 0, 77, 0
1, 85188, Note_on_c, 0, 75, 81
1, 85200, Note_on_c, 0, 75, 0
1, 85200, Note_on_c, 0, 74, 81
1, 85214, Note_on_c, 1, 68, 0
1, 85216, Note_on_c, 1, 71, 67
1, 85224, Note_on_c, 0, 74, 0
1, 85224, Note_on_c, 0, 75, 81
1, 85246, Note_on_c, 1, 71, 0
1, 85248, Note_on_c, 0, 75, 0
1, 85248, Note_on_c, 0, 77, 81
1, 85248, Note_on_c, 1, 61, 67
1, 85278, Note_on_c, 1, 61, 0
1, 85280, Note_on_c, 1, 65, 67
1, 85310, Note_on_c, 1, 65, 0
1, 85312, Note_on_c, 1, 71, 67
1, 85337, Note_on_c, 0, 77, 0
1, 85342, Note_on_c, 1, 71, 0
1, 85344, Note_on_c, 0, 77, 82
1, 85344, Note_on_c, 1, 61, 67
1, 85374, Note_on_c, 1, 61, 0
1, 85376, Note_on_c, 1, 65, 68
1, 85406, Note_on_c, 1, 65, 0
1, 85408, Note_on_c, 1, 71, 68
1, 85433, Note_on_c, 0, 77, 0
1, 85438, Note_on_c, 1, 71, 0
1, 85440, Note_on_c, 0, 77, 82
1, 85440, Note_on_c, 1, 61, 68
1, 85470, Note_on_c, 1, 61, 0
1, 85472, Note_on_c, 1, 65, 68
1, 85502, Note_on_c, 1, 65, 0
1, 85504, Note_on_c, 1, 71, 68
1, 85507, Note_on_c, 0, 77, 0
1, 85512, Note_on_c, 0, 77, 83
1, 85534, Note_on_c, 1, 71, 0
1, 85535, Note_on_c, 0, 77, 0
1, 85536, Note_on_c, 0, 78, 83
1, 85536, Note_on_c, 1, 61, 69
1, 85548, Note_on_c, 0, 78, 0
1, 85548, Note_on_c, 0, 77, 83
1, 85560, Note_on_c, 0, 77, 0
1, 85560, Note_on_c, 0, 78, 83
1, 85566, Note_on_c, 1, 61, 0
1, 85568, Note_on_c, 1, 65, 69
1, 85572, Note_on_c, 0, 78, 0
1, 85572, Note_on_c, 0, 77, 83
1, 85584, Note_on_c, 0, 77, 0
1, 85584, Note_on_c, 0, 75, 83
1, 85598, Note_on_c, 1, 65, 0
1, 85600, Note_on_c, 1, 71, 69
1, 85608, Note_on_c, 0, 75, 0
1, 85608, Note_on_c, 0, 77, 83
1, 85630, Note_on_c, 1, 71, 0
1, 85632, Note_on_c, 0, 77, 0
1, 85632, Note_on_c, 0, 78, 84
1, 85632, Note_on_c, 1, 61, 70
1, 85662, Note_on_c, 1, 61, 0
1, 85664, Note_on_c, 1, 66, 70
1, 85694, Note_on_c, 1, 66, 0
1, 85696, Note_on_c, 1, 70, 70
1, 85721, Note_on_c, 0, 78, 0
1, 85726, Note_on_c, 1, 70, 0
1, 85728, Note_on_c, 0, 78, 84
1, 85728, Note_on_c, 1, 61, 70
1, 85758, Note_on_c, 1, 61, 0
1, 85760, Note_on_c, 1, 66, 70
1, 85790, Note_on_c, 1, 66, 0
1, 85792, Note_on_c, 1, 70, 70
1, 85817, Note_on_c, 0, 78, 0
1, 85822, Note_on_c, 1, 70, 0
1, 85824, Note_on_c, 0, 78, 84
1, 85824, Note_on_c, 1, 61, 70
1, 85854, Note_on_c, 1, 61, 0
1, 85856, Note_on_c, 1, 66, 70
1, 85886, Note_on_c, 1, 66, 0
1, 85888, Note_on_c, 1, 70, 70
1, 85891, Note_on_c, 0, 78, 0
1, 85896, Note_on_c, 0, 78, 84
1, 85918, Note_on_c, 1, 70, 0
1, 85919, Note_on_c, 0, 78, 0
1, 85920, Note_on_c, 0, 80, 84
1, 85920, Note_on_c, 1, 61, 70
1, 85932, Note_on_c, 0, 80, 0
1, 85932, Note_on_c, 0, 78, 84
1, 85944, Note_on_c, 0, 78, 0
1, 85944, Note_on_c, 0, 80, 84
1, 85950, Note_on_c, 1, 61, 0
1, 85952, Note_on_c, 1, 66, 70
1, 85956, Note_on_c, 0, 80, 0
1, 85956, Note_on_c, 0, 78, 84
1, 85968, Note_on_c, 0, 78, 0
1, 85968, Note_on_c, 0, 77, 84
1, 85982, Note_on_c, 1, 66, 0
1, 85984, Note_on_c, 1, 70, 70
1, 85992, Note_on_c, 0, 77, 0
1, 85992, Note_on_c, 0, 78, 84
1, 86014, Note_on_c, 1, 70, 0
1, 86016, Note_on_c, 0, 78, 0
1, 86016, Note_on_c, 0, 83, 84
1, 86016, Note_on_c, 1, 61, 70
1, 86046, Note_on_c, 1, 61, 0
1, 86048, Note_on_c, 1, 65, 70
1, 86078, Note_on_c, 1, 65, 0
1, 86080, Note_on_c, 1, 68, 70
1, 86105, Note_on_c, 0, 83, 0
1, 86110, Note_on_c, 1, 68, 0
1, 86112, Note_on_c, 0, 83, 84
1, 86112, Note_on_c, 1, 61, 70
1, 86142, Note_on_c, 1, 61, 0
1, 86144, Note_on_c, 1, 65, 70
1, 86174, Note_on_c, 1, 65, 0
1, 86176, Note_on_c, 1, 68, 70
1, 86201, Note_on_c, 0, 83, 0
1, 86206, Note_on_c, 1, 68, 0
1, 86208, Note_on_c, 0, 83, 85
1, 86208, Note_on_c, 1, 61, 71
1, 86238, Note_on_c, 1, 61, 0
1, 86240, Note_on_c, 1, 65, 71
1, 86270, Note_on_c, 1, 65, 0
1, 86272, Note_on_c, 1, 68, 71
1, 86275, Note_on_c, 0, 83, 0
1, 86280, Note_on_c, 0, 83, 86
1, 86302, Note_on_c, 1, 68, 0
1, 86303, Note_on_c, 0, 83, 0
1, 86304, Note_on_c, 0, 85, 86
1, 86304, Note_on_c, 1, 61, 71
1, 86316, Note_on_c, 0, 85, 0
1, 86316, Note_on_c, 0, 83, 86
1, 86328, Note_on_c, 0, 83, 0
1, 86328, Note_on_c, 0, 85, 86
1, 86334, Note_on_c, 1, 61, 0
1, 86336, Note_on_c, 1, 65, 71
1, 86340, Note_on_c, 0, 85, 0
1, 86340, Note_on_c, 0, 83, 86
1, 86352, Note_on_c, 0, 83, 0
1, 86352, Note_on_c, 0, 82, 86
1, 86366, Note_on_c, 1, 65, 0
1, 86368, Note_on_c, 1, 68, 72
1, 86376, Note_on_c, 0, 82, 0
1, 86376, Note_on_c, 0, 83, 86
1, 86398, Note_on_c, 1, 68, 0
1, 86400, Note_on_c, 0, 83, 0
1, 86400, Note_on_c, 0, 82, 87
1, 86400, Note_on_c, 1, 62, 72
1, 86430, Note_on_c, 1, 62, 0
1, 86432, Note_on_c, 1, 65, 72
1, 86462, Note_on_c, 1, 65, 0
1, 86464, Note_on_c, 1, 70, 72
1, 86489, Note_on_c, 0, 82, 0
1, 86494, Note_on_c, 1, 70, 0
1, 86496, Note_on_c, 0, 82, 87
1, 86496, Note_on_c, 1, 62, 72
1, 86526, Note_on_c, 1, 62, 0
1, 86528, Note_on_c, 1, 65, 72
1, 86558, Note_on_c, 1, 65, 0
1, 86560, Note_on_c, 1, 70, 73
1, 86585, Note_on_c, 0, 82, 0
1, 86590, Note_on_c, 1, 70, 0
1, 86592, Note_on_c, 0, 82, 88
1, 86592, Note_on_c, 1, 62, 73
1, 86622, Note_on_c, 1, 62, 0
1, 86624, Note_on_c, 1, 65, 73
1, 86654, Note_on_c, 1, 65, 0
1, 86656, Note_on_c, 1, 70, 73
1, 86681, Note_on_c, 0, 82, 0
1, 86686, Note_on_c, 1, 70, 0
1, 86688, Note_on_c, 0, 82, 89
1, 86688, Note_on_c, 1, 62, 73
1, 86700, Note_on_c, 0, 82, 0
1, 86700, Note_on_c, 0, 80, 89
1, 86712, Note_on_c, 0, 80, 0
1, 86712, Note_on_c, 0, 82, 89
1, 86718, Note_on_c, 1, 62, 0
1, 86720, Note_on_c, 1, 65, 74
1, 86724, Note_on_c, 0, 82, 0
1, 86724, Note_on_c, 0, 80, 89
1, 86736, Note_on_c, 0, 80, 0
1, 86736, Note_on_c, 0, 79, 89
1, 86750, Note_on_c, 1, 65, 0
1, 86752, Note_on_c, 1, 70, 74
1, 86760, Note_on_c, 0, 79, 0
1, 86760, Note_on_c, 0, 80, 89
1, 86782, Note_on_c, 1, 70, 0
1, 86784, Note_on_c, 0, 80, 0
1, 86784, Note_on_c, 0, 79, 90
1, 86784, Note_on_c, 1, 63, 74
1, 86814, Note_on_c, 1, 63, 0
1, 86816, Note_on_c, 1, 67, 74
1, 86846, Note_on_c, 1, 67, 0
1, 86848, Note_on_c, 1, 73, 74
1, 86878, Note_on_c, 1, 73, 0
1, 86880, Note_on_c, 1, 63, 74
1, 86910, Note_on_c, 1, 63, 0
1, 86912, Note_on_c, 1, 67, 75
1, 86942, Note_on_c, 1, 67, 0
1, 86944, Note_on_c, 1, 73, 75
1, 86974, Note_on_c, 1, 73, 0
1, 86976, Note_on_c, 0, 79, 0
1, 86976, Note_on_c, 0, 75, 91
1, 86976, Note_on_c, 1, 63, 75
1, 87006, Note_on_c, 1, 63, 0
1, 87008, Note_on_c, 1, 67, 75
1, 87038, Note_on_c, 1, 67, 0
1, 87040, Note_on_c, 1, 73, 75
1, 87070, Note_on_c, 1, 73, 0
1, 87072, Note_on_c, 1, 63, 76
1, 87102, Note_on_c, 1, 63, 0
1, 87104, Note_on_c, 1, 67, 76
1, 87134, Note_on_c, 1, 67, 0
1, 87136, Note_on_c, 1, 73, 76
1, 87153, Note_on_c, 0, 75, 0
1, 87166, Note_on_c, 1, 73, 0
1, 87168, Note_on_c, 0, 84, 93
1, 87168, Note_on_c, 1, 64, 77
1, 87198, Note_on_c, 1, 64, 0
1, 87200, Note_on_c, 1, 67, 77
1, 87230, Note_on_c, 1, 67, 0
1, 87232, Note_on_c, 1, 72, 77
1, 87257, Note_on_c, 0, 84, 0
1, 87262, Note_on_c, 1, 72, 0
1, 87264, Note_on_c, 0, 84, 93
1, 87264, Note_on_c, 1, 64, 77
1, 87294, Note_on_c, 1, 64, 0
1, 87296, Note_on_c, 1, 67, 77
1, 87326, Note_on_c, 1, 67, 0
1, 87328, Note_on_c, 1, 72, 77
1, 87353, Note_on_c, 0, 84, 0
1, 87358, Note_on_c, 1, 72, 0
1, 87360, Note_on_c, 0, 84, 93
1, 87360, Note_on_c, 1, 64, 77
1, 87390, Note_on_c, 1, 64, 0
1, 87392, Note_on_c, 1, 67, 77
1, 87422, Note_on_c, 1, 67, 0
1, 87424, Note_on_c, 1, 72, 77
1, 87449, Note_on_c, 0, 84, 0
1, 87454, Note_on_c, 1, 72, 0
1, 87456, Note_on_c, 0, 84, 93
1, 87456, Note_on_c, 1, 64, 77
1, 87468, Note_on_c, 0, 84, 0
1, 87468, Note_on_c, 0, 82, 93
1, 87480, Note_on_c, 0, 82, 0
1, 87480, Note_on_c, 0, 84, 93
1, 87486, Note_on_c, 1, 64, 0
1, 87488, Note_on_c, 1, 67, 77
1, 87492, Note_on_c, 0, 84, 0
1, 87492, Note_on_c, 0, 82, 93
1, 87504, Note_on_c, 0, 82, 0
1, 87504, Note_on_c, 0, 80, 93
1, 87518, Note_on_c, 1, 67, 0
1, 87520, Note_on_c, 1, 72, 77
1, 87528, Note_on_c, 0, 80, 0
1, 87528, Note_on_c, 0, 82, 93
1, 87550, Note_on_c, 1, 72, 0
1, 87552, Note_on_c, 0, 82, 0
1, 87552, Note_on_c, 0, 80, 93
1, 87552, Note_on_c, 1, 65, 77
1, 87582, Note_on_c, 0, 80, 0
1, 87584, Note_on_c, 0, 84, 92
1, 87614, Note_on_c, 0, 84, 0
1, 87616, Note_on_c, 0, 82, 91
1, 87641, Note_on_c, 1, 65, 0
1, 87646, Note_on_c, 0, 82, 0
1, 87648, Note_on_c, 0, 80, 90
1, 87678, Note_on_c, 0, 80, 0
1, 87680, Note_on_c, 0, 79, 90
1, 87710, Note_on_c, 0, 79, 0
1, 87712, Note_on_c, 0, 77, 89
1, 87742, Note_on_c, 0, 77, 0
1, 87744, Note_on_c, 0, 75, 88
1, 87774, Note_on_c, 0, 75, 0
1, 87776, Note_on_c, 0, 73, 88
1, 87806, Note_on_c, 0, 73, 0
1, 87808, Note_on_c, 0, 72, 87
1, 87838, Note_on_c, 0, 72, 0
1, 87840, Note_on_c, 0, 70, 86
1, 87870, Note_on_c, 0, 70, 0
1, 87872, Note_on_c, 0, 68, 85
1, 87902, Note_on_c, 0, 68, 0
1, 87904, Note_on_c, 0, 67, 85
1, 87934, Note_on_c, 0, 67, 0
1, 87936, Note_on_c, 0, 65, 84
1, 87966, Note_on_c, 0, 65, 0
1, 87968, Note_on_c, 0, 72, 84
1, 87998, Note_on_c, 0, 72, 0
1, 88000, Note_on_c, 0, 70, 84
1, 88030, Note_on_c, 0, 70, 0
1, 88032, Note_on_c, 0, 68, 84
1, 88062, Note_on_c, 0, 68, 0
1, 88064, Note_on_c, 0, 67, 84
1, 88094, Note_on_c, 0, 67, 0
1, 88096, Note_on_c, 0, 65, 84
1, 88126, Note_on_c, 0, 65, 0
1, 88128, Note_on_c, 0, 63, 84
1, 88158, Note_on_c, 0, 63, 0
1, 88160, Note_on_c, 0, 61, 84
1, 88190, Note_on_c, 0, 61, 0
1, 88192, Note_on_c, 0, 60, 84
1, 88222, Note_on_c, 0, 60, 0
1, 88224, Note_on_c, 0, 58, 84
1, 88254, Note_on_c, 0, 58, 0
1, 88256, Note_on_c, 0, 56, 84
1, 88286, Note_on_c, 0, 56, 0
1, 88288, Note_on_c, 0, 55, 84
1, 88318, Note_on_c, 0, 55, 0
1, 88320, Note_on_c, 0, 53, 84
1, 88320, Note_on_c, 1, 45, 77
1, 88350, Note_on_c, 1, 45, 0
1, 88352, Note_on_c, 1, 48, 77
1, 88382, Note_on_c, 1, 48, 0
1, 88384, Note_on_c, 1, 51, 77
1, 88409, Note_on_c, 0, 53, 0
1, 88414, Note_on_c, 1, 51, 0
1, 88416, Note_on_c, 0, 53, 84
1, 88416, Note_on_c, 1, 45, 77
1, 88446, Note_on_c, 1, 45, 0
1, 88448, Note_on_c, 1, 48, 77
1, 88478, Note_on_c, 1, 48, 0
1, 88480, Note_on_c, 1, 51, 77
1, 88505, Note_on_c, 0, 53, 0
1, 88510, Note_on_c, 1, 51, 0
1, 88512, Note_on_c, 0, 53, 84
1, 88512, Note_on_c, 1, 45, 77
1, 88542, Note_on_c, 1, 45, 0
1, 88544, Note_on_c, 1, 48, 77
1, 88574, Note_on_c, 1, 48, 0
1, 88576, Note_on_c, 1, 51, 77
1, 88601, Note_on_c, 0, 53, 0
1, 88606, Note_on_c, 1, 51, 0
1, 88608, Note_on_c, 0, 63, 84
1, 88608, Note_on_c, 1, 45, 77
1, 88638, Note_on_c, 1, 45, 0
1, 88640, Note_on_c, 1, 48, 77
1, 88670, Note_on_c, 1, 48, 0
1, 88672, Note_on_c, 1, 51, 77
1, 88697, Note_on_c, 0, 63, 0
1, 88702, Note_on_c, 1, 51, 0
1, 88704, Note_on_c, 0, 63, 84
1, 88704, Note_on_c, 1, 46, 77
1, 88719, Note_on_c, 0, 63, 0
1, 88720, Note_on_c, 0, 61, 84
1, 88734, Note_on_c, 1, 46, 0
1, 88735, Note_on_c, 0, 61, 0
1, 88736, Note_on_c, 0, 63, 84
1, 88736, Note_on_c, 1, 49, 77
1, 88751, Note_on_c, 0, 63, 0
1, 88752, Note_on_c, 0, 61, 84
1, 88766, Note_on_c, 1, 49, 0
1, 88767, Note_on_c, 0, 61, 0
1, 88768, Note_on_c, 0, 63, 84
1, 88768, Note_on_c, 1, 53, 77
1, 88783, Note_on_c, 0, 63, 0
1, 88784, Note_on_c, 0, 61, 84
1, 88798, Note_on_c, 1, 53, 0
1, 88799, Note_on_c, 0, 61, 0
1, 88800, Note_on_c, 0, 63, 84
1, 88800, Note_on_c, 1, 46, 77
1, 88815, Note_on_c, 0, 63, 0
1, 88816, Note_on_c, 0, 61, 84
1, 88830, Note_on_c, 1, 46, 0
1, 88831, Note_on_c, 0, 61, 0
1, 88832, Note_on_c, 0, 63, 84
1, 88832, Note_on_c, 1, 49, 77
1, 88847, Note_on_c, 0, 63, 0
1, 88848, Note_on_c, 0, 61, 84
1, 88862, Note_on_c, 1, 49, 0
1, 88863, Note_on_c, 0, 61, 0
1, 88864, Note_on_c, 0, 60, 84
1, 88864, Note_on_c, 1, 53, 77
1, 88894, Note_on_c, 1, 53, 0
1, 88895, Note_on_c, 0, 60, 0
1, 88896, Note_on_c, 0, 58, 84
1, 88896, Note_on_c, 1, 46, 77
1, 88926, Note_on_c, 1, 46, 0
1, 88928, Note_on_c, 1, 49, 77
1, 88958, Note_on_c, 1, 49, 0
1, 88960, Note_on_c, 1, 53, 77
1, 88985, Note_on_c, 0, 58, 0
1, 88990, Note_on_c, 1, 53, 0
1, 88992, Note_on_c, 1, 46, 77
1, 89022, Note_on_c, 1, 46, 0
1, 89024, Note_on_c, 1, 49, 77
1, 89054, Note_on_c, 1, 49, 0
1, 89056, Note_on_c, 1, 53, 77
1, 89086, Note_on_c, 1, 53, 0
1, 89088, Note_on_c, 0, 55, 84
1, 89088, Note_on_c, 1, 47, 77
1, 89118, Note_on_c, 1, 47, 0
1, 89120, Note_on_c, 1, 50, 77
1, 89150, Note_on_c, 1, 50, 0
1, 89152, Note_on_c, 1, 53, 77
1, 89177, Note_on_c, 0, 55, 0
1, 89182, Note_on_c, 1, 53, 0
1, 89184, Note_on_c, 0, 55, 84
1, 89184, Note_on_c, 1, 47, 77
1, 89214, Note_on_c, 1, 47, 0
1, 89216, Note_on_c, 1, 50, 77
1, 89246, Note_on_c, 1, 50, 0
1, 89248, Note_on_c, 1, 53, 77
1, 89273, Note_on_c, 0, 55, 0
1, 89278, Note_on_c, 1, 53, 0
1, 89280, Note_on_c, 0, 55, 84
1, 89280, Note_on_c, 1, 47, 77
1, 89310, Note_on_c, 1, 47, 0
1, 89312, Note_on_c, 1, 50, 77
1, 89342, Note_on_c, 1, 50, 0
1, 89344, Note_on_c, 1, 53, 77
1, 89369, Note_on_c, 0, 55, 0
1, 89374, Note_on_c, 1, 53, 0
1, 89376, Note_on_c, 0, 65, 84
1, 89376, Note_on_c, 1, 47, 77
1, 89406, Note_on_c, 1, 47, 0
1, 89408, Note_on_c, 1, 50, 77
1, 89438, Note_on_c, 1, 50, 0
1, 89440, Note_on_c, 1, 53, 77
1, 89465, Note_on_c, 0, 65, 0
1, 89470, Note_on_c, 1, 53, 0
1, 89472, Note_on_c, 0, 64, 84
1, 89472, Note_on_c, 1, 48, 77
1, 89502, Note_on_c, 0, 64, 0
1, 89504, Note_on_c, 0, 62, 84
1, 89534, Note_on_c, 0, 62, 0
1, 89536, Note_on_c, 0, 60, 84
1, 89561, Note_on_c, 1, 48, 0
1, 89566, Note_on_c, 0, 60, 0
1, 89568, Note_on_c, 0, 60, 84
1, 89581, Note_on_c, 0, 60, 0
1, 89600, Note_on_c, 0, 60, 85
1, 89613, Note_on_c, 0, 60, 0
1, 89632, Note_on_c, 0, 60, 85
1, 89645, Note_on_c, 0, 60, 0
1, 89664, Note_on_c, 0, 67, 85
1, 89664, Note_on_c, 1, 52, 77
1, 89664, Note_on_c, 1, 48, 77
1, 89694, Note_on_c, 0, 67, 0
1, 89696, Note_on_c, 0, 65, 86
1, 89726, Note_on_c, 0, 65, 0
1, 89728, Note_on_c, 0, 64, 86
1, 89753, Note_on_c, 1, 52, 0
1, 89753, Note_on_c, 1, 48, 0
1, 89758, Note_on_c, 0, 64, 0
1, 89760, Note_on_c, 0, 64, 86
1, 89773, Note_on_c, 0, 64, 0
1, 89792, Note_on_c, 0, 64, 87
1, 89805, Note_on_c, 0, 64, 0
1, 89824, Note_on_c, 0, 64, 87
1, 89837, Note_on_c, 0, 64, 0
1, 89856, Note_on_c, 0, 70, 88
1, 89856, Note_on_c, 1, 52, 77
1, 89856, Note_on_c, 1, 48, 77
1, 89886, Note_on_c, 0, 70, 0
1, 89888, Note_on_c, 0, 68, 88
1, 89918, Note_on_c, 0, 68, 0
1, 89920, Note_on_c, 0, 67, 88
1, 89945, Note_on_c, 1, 52, 0
1, 89945, Note_on_c, 1, 48, 0
1, 89950, Note_on_c, 0, 67, 0
1, 89952, Note_on_c, 0, 67, 89
1, 89965, Note_on_c, 0, 67, 0
1, 89984, Note_on_c, 0, 67, 89
1, 89997, Note_on_c, 0, 67, 0
1, 90016, Note_on_c, 0, 67, 89
1, 90029, Note_on_c, 0, 67, 0
1, 90048, Note_on_c, 0, 79, 90
1, 90048, Note_on_c, 1, 52, 77
1, 90048, Note_on_c, 1, 48, 77
1, 90078, Note_on_c, 0, 79, 0
1, 90080, Note_on_c, 0, 77, 90
1, 90110, Note_on_c, 0, 77, 0
1, 90112, Note_on_c, 0, 76, 90
1, 90137, Note_on_c, 1, 52, 0
1, 90137, Note_on_c, 1, 48, 0
1, 90142, Note_on_c, 0, 76, 0
1, 90144, Note_on_c, 0, 73, 91
1, 90174, Note_on_c, 0, 73, 0
1, 90176, Note_on_c, 0, 72, 91
1, 90206, Note_on_c, 0, 72, 0
1, 90208, Note_on_c, 0, 70, 92
1, 90238, Note_on_c, 0, 70, 0
1, 90240, Note_on_c, 0, 68, 93
1, 90240, Note_on_c, 1, 56, 77
1, 90240, Note_on_c, 1, 53, 77
1, 90270, Note_on_c, 0, 68, 0
1, 90272, Note_on_c, 0, 72, 93
1, 90302, Note_on_c, 0, 72, 0
1, 90304, Note_on_c, 0, 77, 93
1, 90317, Note_on_c, 0, 77, 0
1, 90329, Note_on_c, 1, 56, 0
1, 90329, Note_on_c, 1, 53, 0
1, 90336, Note_on_c, 0, 77, 93
1, 90349, Note_on_c, 0, 77, 0
1, 90368, Note_on_c, 0, 77, 93
1, 90381, Note_on_c, 0, 77, 0
1, 90400, Note_on_c, 0, 77, 93
1, 90413, Note_on_c, 0, 77, 0
1, 90432, Note_on_c, 0, 76, 93
1, 90432, Note_on_c, 1, 55, 77
1, 90432, Note_on_c, 1, 48, 77
1, 90462, Note_on_c, 0, 76, 0
1, 90464, Note_on_c, 0, 79, 93
1, 90494, Note_on_c, 0, 79, 0
1, 90496, Note_on_c, 0, 82, 93
1, 90509, Note_on_c, 0, 82, 0
1, 90521, Note_on_c, 1, 55, 0
1, 90521, Note_on_c, 1, 48, 0
1, 90528, Note_on_c, 0, 82, 93
1, 90541, Note_on_c, 0, 82, 0
1, 90560, Note_on_c, 0, 82, 93
1, 90573, Note_on_c, 0, 82, 0
1, 90592, Note_on_c, 0, 82, 93
1, 90605, Note_on_c, 0, 82, 0
1, 90624, Note_on_c, 0, 80, 93
1, 90624, Note_on_c, 1, 56, 77
1, 90624, Note_on_c, 1, 53, 77
1, 90654, Note_on_c, 0, 80, 0
1, 90656, Note_on_c, 0, 84, 93
1, 90686, Note_on_c, 0, 84, 0
1, 90688, Note_on_c, 0, 89, 93
1, 90701, Note_on_c, 0, 89, 0
1, 90713, Note_on_c, 1, 56, 0
1, 90713, Note_on_c, 1, 53, 0
1, 90720, Note_on_c, 0, 89, 93
1, 90733, Note_on_c, 0, 89, 0
1, 90752, Note_on_c, 0, 89, 93
1, 90765, Note_on_c, 0, 89, 0
1, 90784, Note_on_c, 0, 89, 93
1, 90797, Note_on_c, 0, 89, 0
1, 90816, Note_on_c, 0, 79, 93
1, 90816, Note_on_c, 1, 58, 77
1, 90816, Note_on_c, 1, 46, 77
1, 90846, Note_on_c, 0, 79, 0
1, 90848, Note_on_c, 0, 82, 93
1, 90878, Note_on_c, 0, 82, 0
1, 90880, Note_on_c, 0, 85, 93
1, 90893, Note_on_c, 0, 85, 0
1, 90905, Note_on_c, 1, 58, 0
1, 90905, Note_on_c, 1, 46, 0
1, 90912, Note_on_c, 0, 85, 93
1, 90925, Note_on_c, 0, 85, 0
1, 90944, Note_on_c, 0, 85, 93
1, 90957, Note_on_c, 0, 85, 0
1, 90976, Note_on_c, 0, 85, 93
1, 90989, Note_on_c, 0, 85, 0
1, 91008, Note_on_c, 1, 60, 77
1, 91097, Note_on_c, 1, 60, 0
1, 91104, Note_on_c, 0, 84, 81
1, 91104, Note_on_c, 0, 80, 81
1, 91193, Note_on_c, 0, 84, 0
1, 91193, Note_on_c, 0, 80, 0
1, 91200, Note_on_c, 1, 48, 70
1, 91289, Note_on_c, 1, 48, 0
1, 91296, Note_on_c, 0, 76, 75
1, 91296, Note_on_c, 0, 70, 75
1, 91385, Note_on_c, 0, 76, 0
1, 91385, Note_on_c, 0, 70, 0
1, 91392, Note_on_c, 0, 75, 72
1, 91392, Note_on_c, 1, 57, 63
1, 91422, Note_on_c, 1, 57, 0
1, 91424, Note_on_c, 1, 60, 63
1, 91454, Note_on_c, 1, 60, 0
1, 91456, Note_on_c, 1, 66, 63
1, 91481, Note_on_c, 0, 75, 0
1, 91486, Note_on_c, 1, 66, 0
1, 91488, Note_on_c, 0, 75, 70
1, 91488, Note_on_c, 1, 57, 63
1, 91518, Note_on_c, 1, 57, 0
1, 91520, Note_on_c, 1, 60, 63
1, 91550, Note_on_c, 1, 60, 0
1, 91552, Note_on_c, 1, 66, 63
1, 91577, Note_on_c, 0, 75, 0
1, 91582, Note_on_c, 1, 66, 0
1, 91584, Note_on_c, 0, 75, 70
1, 91584, Note_on_c, 1, 57, 63
1, 91614, Note_on_c, 1, 57, 0
1, 91616, Note_on_c, 1, 60, 63
1, 91646, Note_on_c, 1, 60, 0
1, 91648, Note_on_c, 1, 66, 63
1, 91673, Note_on_c, 0, 75, 0
1, 91678, Note_on_c, 1, 66, 0
1, 91680, Note_on_c, 0, 75, 70
1, 91680, Note_on_c, 1, 57, 63
1, 91710, Note_on_c, 1, 57, 0
1, 91712, Note_on_c, 1, 60, 63
1, 91742, Note_on_c, 1, 60, 0
1, 91744, Note_on_c, 1, 66, 63
1, 91769, Note_on_c, 0, 75, 0
1, 91774, Note_on_c, 1, 66, 0
1, 91776, Note_on_c, 0, 74, 70
1, 91776, Note_on_c, 1, 58, 63
1, 91806, Note_on_c, 1, 58, 0
1, 91808, Note_on_c, 1, 65, 64
1, 91838, Note_on_c, 1, 65, 0
1, 91840, Note_on_c, 1, 68, 65
1, 91870, Note_on_c, 1, 68, 0
1, 91872, Note_on_c, 1, 58, 66
1, 91902, Note_on_c, 1, 58, 0
1, 91904, Note_on_c, 1, 65, 67
1, 91934, Note_on_c, 1, 65, 0
1, 91936, Note_on_c, 1, 68, 68
1, 91966, Note_on_c, 1, 68, 0
1, 91968, Note_on_c, 0, 74, 0
1, 91968, Note_on_c, 0, 70, 75
1, 91968, Note_on_c, 1, 58, 69
1, 91998, Note_on_c, 1, 58, 0
1, 92000, Note_on_c, 1, 65, 70
1, 92030, Note_on_c, 1, 65, 0
1, 92032, Note_on_c, 1, 68, 71
1, 92062, Note_on_c, 1, 68, 0
1, 92064, Note_on_c, 1, 58, 72
1, 92094, Note_on_c, 1, 58, 0
1, 92096, Note_on_c, 1, 65, 73
1, 92126, Note_on_c, 1, 65, 0
1, 92128, Note_on_c, 1, 68, 74
1, 92145, Note_on_c, 0, 70, 0
1, 92158, Note_on_c, 1, 68, 0
1, 92160, Note_on_c, 0, 73, 81
1, 92160, Note_on_c, 1, 55, 75
1, 92190, Note_on_c, 1, 55, 0
1, 92192, Note_on_c, 1, 58, 77
1, 92222, Note_on_c, 1, 58, 0
1, 92224, Note_on_c, 1, 63, 77
1, 92249, Note_on_c, 0, 73, 0
1, 92254, Note_on_c, 1, 63, 0
1, 92256, Note_on_c, 0, 73, 84
1, 92256, Note_on_c, 1, 55, 77
1, 92286, Note_on_c, 1, 55, 0
1, 92288, Note_on_c, 1, 58, 77
1, 92318, Note_on_c, 1, 58, 0
1, 92320, Note_on_c, 1, 63, 77
1, 92345, Note_on_c, 0, 73, 0
1, 92350, Note_on_c, 1, 63, 0
1, 92352, Note_on_c, 0, 75, 84
1, 92352, Note_on_c, 1, 55, 77
1, 92364, Note_on_c, 0, 75, 0
1, 92364, Note_on_c, 0, 73, 84
1, 92376, Note_on_c, 0, 73, 0
1, 92376, Note_on_c, 0, 75, 84
1, 92382, Note_on_c, 1, 55, 0
1, 92384, Note_on_c, 1, 58, 77
1, 92388, Note_on_c, 0, 75, 0
1, 92388, Note_on_c, 0, 73, 84
1, 92400, Note_on_c, 0, 73, 0
1, 92400, Note_on_c, 0, 75, 84
1, 92412, Note_on_c, 0, 75, 0
1, 92412, Note_on_c, 0, 73, 84
1, 92414, Note_on_c, 1, 58, 0
1, 92416, Note_on_c, 1, 63, 77
1, 92424, Note_on_c, 0, 73, 0
1, 92424, Note_on_c, 0, 72, 84
1, 92436, Note_on_c, 0, 72, 0
1, 92436, Note_on_c, 0, 73, 84
1, 92446, Note_on_c, 1, 63, 0
1, 92448, Note_on_c, 0, 73, 0
1, 92448, Note_on_c, 0, 82, 84
1, 92448, Note_on_c, 1, 55, 77
1, 92478, Note_on_c, 1, 55, 0
1, 92480, Note_on_c, 1, 58, 77
1, 92493, Note_on_c, 0, 82, 0
1, 92496, Note_on_c, 0, 73, 84
1, 92510, Note_on_c, 1, 58, 0
1, 92512, Note_on_c, 1, 63, 77
1, 92541, Note_on_c, 0, 73, 0
1, 92542, Note_on_c, 1, 63, 0
1, 92544, Note_on_c, 0, 72, 84
1, 92544, Note_on_c, 1, 56, 77
1, 92574, Note_on_c, 1, 56, 0
1, 92576, Note_on_c, 1, 60, 77
1, 92606, Note_on_c, 1, 60, 0
1, 92608, Note_on_c, 1, 63, 77
1, 92633, Note_on_c, 0, 72, 0
1, 92638, Note_on_c, 1, 63, 0
1, 92640, Note_on_c, 0, 72, 84
1, 92640, Note_on_c, 1, 56, 77
1, 92670, Note_on_c, 1, 56, 0
1, 92672, Note_on_c, 1, 60, 77
1, 92702, Note_on_c, 1, 60, 0
1, 92704, Note_on_c, 1, 63, 77
1, 92729, Note_on_c, 0, 72, 0
1, 92734, Note_on_c, 1, 63, 0
1, 92736, Note_on_c, 0, 73, 84
1, 92736, Note_on_c, 1, 48, 77
1, 92748, Note_on_c, 0, 73, 0
1, 92748, Note_on_c, 0, 72, 84
1, 92760, Note_on_c, 0, 72, 0
1, 92760, Note_on_c, 0, 73, 84
1, 92766, Note_on_c, 1, 48, 0
1, 92768, Note_on_c, 1, 51, 77
1, 92772, Note_on_c, 0, 73, 0
1, 92772, Note_on_c, 0, 72, 84
1, 92784, Note_on_c, 0, 72, 0
1, 92784, Note_on_c, 0, 73, 84
1, 92796, Note_on_c, 0, 73, 0
1, 92796, Note_on_c, 0, 72, 84
1, 92798, Note_on_c, 1, 51, 0
1, 92800, Note_on_c, 1, 56, 77
1, 92808, Note_on_c, 0, 72, 0
1, 92808, Note_on_c, 0, 70, 84
1, 92820, Note_on_c, 0, 70, 0
1, 92820, Note_on_c, 0, 72, 84
1, 92830, Note_on_c, 1, 56, 0
1, 92832, Note_on_c, 0, 72, 0
1, 92832, Note_on_c, 0, 75, 84
1, 92832, Note_on_c, 1, 48, 77
1, 92862, Note_on_c, 1, 48, 0
1, 92864, Note_on_c, 1, 51, 77
1, 92877, Note_on_c, 0, 75, 0
1, 92880, Note_on_c, 0, 72, 84
1, 92894, Note_on_c, 1, 51, 0
1, 92896, Note_on_c, 1, 56, 78
1, 92925, Note_on_c, 0, 72, 0
1, 92926, Note_on_c, 1, 56, 0
1, 92928, Note_on_c, 0, 70, 84
1, 92928, Note_on_c, 1, 49, 79
1, 92958, Note_on_c, 1, 49, 0
1, 92960, Note_on_c, 1, 53, 79
1, 92990, Note_on_c, 1, 53, 0
1, 92992, Note_on_c, 1, 56, 80
1, 93017, Note_on_c, 0, 70, 0
1, 93022, Note_on_c, 1, 56, 0
1, 93024, Note_on_c, 0, 70, 84
1, 93024, Note_on_c, 1, 49, 81
1, 93054, Note_on_c, 1, 49, 0
1, 93056, Note_on_c, 1, 53, 82
1, 93086, Note_on_c, 1, 53, 0
1, 93088, Note_on_c, 1, 56, 82
1, 93113, Note_on_c, 0, 70, 0
1, 93118, Note_on_c, 1, 56, 0
1, 93120, Note_on_c, 0, 72, 84
1, 93120, Note_on_c, 1, 50, 84
1, 93132, Note_on_c, 0, 72, 0
1, 93132, Note_on_c, 0, 70, 84
1, 93144, Note_on_c, 0, 70, 0
1, 93144, Note_on_c, 0, 72, 84
1, 93150, Note_on_c, 1, 50, 0
1, 93152, Note_on_c, 1, 53, 84
1, 93156, Note_on_c, 0, 72, 0
1, 93156, Note_on_c, 0, 70, 84
1, 93168, Note_on_c, 0, 70, 0
1, 93168, Note_on_c, 0, 72, 84
1, 93180, Note_on_c, 0, 72, 0
1, 93180, Note_on_c, 0, 70, 84
1, 93182, Note_on_c, 1, 53, 0
1, 93184, Note_on_c, 1, 58, 84
1, 93192, Note_on_c, 0, 70, 0
1, 93192, Note_on_c, 0, 69, 84
1, 93204, Note_on_c, 0, 69, 0
1, 93204, Note_on_c, 0, 70, 84
1, 93214, Note_on_c, 1, 58, 0
1, 93216, Note_on_c, 0, 70, 0
1, 93216, Note_on_c, 0, 77, 84
1, 93216, Note_on_c, 1, 50, 84
1, 93246, Note_on_c, 1, 50, 0
1, 93248, Note_on_c, 1, 53, 84
1, 93261, Note_on_c, 0, 77, 0
1, 93264, Note_on_c, 0, 68, 84
1, 93278, Note_on_c, 1, 53, 0
1, 93280, Note_on_c, 1, 58, 84
1, 93309, Note_on_c, 0, 68, 0
1, 93310, Note_on_c, 1, 58, 0
1, 93312, Note_on_c, 0, 67, 84
1, 93312, Note_on_c, 1, 51, 84
1, 93342, Note_on_c, 0, 67, 0
1, 93344, Note_on_c, 0, 70, 84
1, 93374, Note_on_c, 0, 70, 0
1, 93376, Note_on_c, 0, 68, 84
1, 93406, Note_on_c, 0, 68, 0
1, 93408, Note_on_c, 0, 67, 84
1, 93438, Note_on_c, 0, 67, 0
1, 93440, Note_on_c, 0, 79, 84
1, 93470, Note_on_c, 0, 79, 0
1, 93472, Note_on_c, 0, 77, 84
1, 93489, Note_on_c, 1, 51, 0
1, 93502, Note_on_c, 0, 77, 0
1, 93504, Note_on_c, 0, 75, 84
1, 93534, Note_on_c, 0, 75, 0
1, 93536, Note_on_c, 0, 82, 84
1, 93566, Note_on_c, 0, 82, 0
1, 93568, Note_on_c, 0, 80, 84
1, 93598, Note_on_c, 0, 80, 0
1, 93600, Note_on_c, 0, 79, 84
1, 93630, Note_on_c, 0, 79, 0
1, 93632, Note_on_c, 0, 77, 84
1, 93662, Note_on_c, 0, 77, 0
1, 93664, Note_on_c, 0, 75, 84
1, 93694, Note_on_c, 0, 75, 0
1, 93696, Note_on_c, 0, 74, 84
1, 93696, Note_on_c, 1, 56, 84
1, 93696, Note_on_c, 1, 53, 84
1, 93726, Note_on_c, 0, 74, 0
1, 93728, Note_on_c, 0, 77, 84
1, 93758, Note_on_c, 0, 77, 0
1, 93760, Note_on_c, 0, 75, 84
1, 93790, Note_on_c, 0, 75, 0
1, 93792, Note_on_c, 0, 74, 84
1, 93822, Note_on_c, 0, 74, 0
1, 93824, Note_on_c, 0, 80, 84
1, 93854, Note_on_c, 0, 80, 0
1, 93856, Note_on_c, 0, 79, 84
1, 93873, Note_on_c, 1, 56, 0
1, 93873, Note_on_c, 1, 53, 0
1, 93886, Note_on_c, 0, 79, 0
1, 93888, Note_on_c, 0, 77, 84
1, 93918, Note_on_c, 0, 77, 0
1, 93920, Note_on_c, 0, 84, 84
1, 93950, Note_on_c, 0, 84, 0
1, 93952, Note_on_c, 0, 82, 84
1, 93982, Note_on_c, 0, 82, 0
1, 93984, Note_on_c, 0, 80, 84
1, 94014, Note_on_c, 0, 80, 0
1, 94016, Note_on_c, 0, 79, 84
1, 94046, Note_on_c, 0, 79, 0
1, 94048, Note_on_c, 0, 77, 84
1, 94078, Note_on_c, 0, 77, 0
1, 94080, Note_on_c, 0, 75, 84
1, 94128, Note_on_c, 0, 75, 0
1, 94128, Note_on_c, 0, 74, 82
1, 94173, Note_on_c, 0, 74, 0
1, 94176, Note_on_c, 0, 77, 80
1, 94224, Note_on_c, 0, 77, 0
1, 94224, Note_on_c, 0, 75, 78
1, 94269, Note_on_c, 0, 75, 0
1, 94272, Note_on_c, 0, 79, 77
1, 94320, Note_on_c, 0, 79, 0
1, 94320, Note_on_c, 0, 77, 75
1, 94365, Note_on_c, 0, 77, 0
1, 94368, Note_on_c, 0, 80, 73
1, 94416, Note_on_c, 0, 80, 0
1, 94416, Note_on_c, 0, 79, 71
1, 94461, Note_on_c, 0, 79, 0
1, 94464, Note_on_c, 0, 82, 70
1, 94509, Note_on_c, 0, 82, 0
1, 94512, Note_on_c, 0, 80, 68
1, 94557, Note_on_c, 0, 80, 0
1, 94560, Note_on_c, 0, 84, 66
1, 94649, Note_on_c, 0, 84, 0
1, 94656, Note_on_c, 0, 82, 63
1, 94745, Note_on_c, 0, 82, 0
1, 94752, Note_on_c, 0, 80, 63
1, 94841, Note_on_c, 0, 80, 0
1, 94848, Note_on_c, 0, 79, 63
1, 94937, Note_on_c, 0, 79, 0
1, 94944, Note_on_c, 0, 77, 63
1, 95033, Note_on_c, 0, 77, 0
1, 95040, Note_on_c, 0, 75, 63
1, 95129, Note_on_c, 0, 75, 0
1, 95136, Note_on_c, 0, 74, 63
1, 95136, Note_on_c, 1, 53, 63
1, 95148, Note_on_c, 1, 56, 63
1, 95160, Note_on_c, 1, 58, 63
1, 95172, Note_on_c, 1, 62, 63
1, 95225, Note_on_c, 0, 74, 0
1, 95232, Note_on_c, 0, 80, 63
1, 95586, Note_on_c, 0, 80, 0
1, 95586, Note_on_c, 1, 62, 0
1, 95586, Note_on_c, 1, 58, 0
1, 95586, Note_on_c, 1, 56, 0
1, 95586, Note_on_c, 1, 53, 0
1, 95616, Note_on_c, 0, 79, 63
1, 95705, Note_on_c, 0, 79, 0
1, 95712, Note_on_c, 0, 80, 63
1, 95801, Note_on_c, 0, 80, 0
1, 95808, Note_on_c, 0, 82, 63
1, 95897, Note_on_c, 0, 82, 0
1, 95904, Note_on_c, 0, 80, 63
1, 95993, Note_on_c, 0, 80, 0
1, 96000, Note_on_c, 0, 80, 63
1, 96265, Note_on_c, 0, 80, 0
1, 96288, Note_on_c, 0, 74, 63
1, 96415, Note_on_c, 0, 74, 0
1, 96416, Note_on_c, 0, 77, 63
1, 96431, Note_on_c, 0, 77, 0
1, 96432, Note_on_c, 0, 75, 63
1, 96447, Note_on_c, 0, 75, 0
1, 96448, Note_on_c, 0, 77, 63
1, 96463, Note_on_c, 0, 77, 0
1, 96464, Note_on_c, 0, 75, 63
1, 96479, Note_on_c, 0, 75, 0
1, 96480, Note_on_c, 0, 77, 63
1, 96495, Note_on_c, 0, 77, 0
1, 96496, Note_on_c, 0, 75, 63
1, 96511, Note_on_c, 0, 75, 0
1, 96512, Note_on_c, 0, 77, 63
1, 96527, Note_on_c, 0, 77, 0
1, 96528, Note_on_c, 0, 75, 63
1, 96543, Note_on_c, 0, 75, 0
1, 96544, Note_on_c, 0, 77, 63
1, 96559, Note_on_c, 0, 77, 0
1, 96560, Note_on_c, 0, 75, 63
1, 96575, Note_on_c, 0, 75, 0
1, 96576, Note_on_c, 0, 77, 63
1, 96591, Note_on_c, 0, 77, 0
1, 96592, Note_on_c, 0, 75, 63
1, 96607, Note_on_c, 0, 75, 0
1, 96608, Note_on_c, 0, 77, 63
1, 96623, Note_on_c, 0, 77, 0
1, 96624, Note_on_c, 0, 75, 63
1, 96639, Note_on_c, 0, 75, 0
1, 96640, Note_on_c, 0, 77, 63
1, 96655, Note_on_c, 0, 77, 0
1, 96656, Note_on_c, 0, 75, 63
1, 96671, Note_on_c, 0, 75, 0
1, 96672, Note_on_c, 0, 74, 63
1, 96719, Note_on_c, 0, 74, 0
1, 96720, Note_on_c, 0, 75, 63
1, 96767, Note_on_c, 0, 75, 0
1, 96768, Note_on_c, 1, 39, 77
1, 96945, Note_on_c, 1, 39, 0
1, 97056, Note_on_c, 0, 63, 77
1, 97123, Note_on_c, 0, 63, 0
1, 97128, Note_on_c, 0, 60, 77
1, 97151, Note_on_c, 0, 60, 0
1, 97152, Note_on_c, 0, 68, 77
1, 97152, Note_on_c, 1, 56, 77
1, 97152, Note_on_c, 1, 44, 77
1, 97219, Note_on_c, 0, 68, 0
1, 97224, Note_on_c, 0, 68, 77
1, 97241, Note_on_c, 1, 56, 0
1, 97241, Note_on_c, 1, 44, 0
1, 97247, Note_on_c, 0, 68, 0
1, 97248, Note_on_c, 0, 70, 77
1, 97260, Note_on_c, 0, 70, 0
1, 97260, Note_on_c, 0, 68, 77
1, 97272, Note_on_c, 0, 68, 0
1, 97272, Note_on_c, 0, 70, 77
1, 97284, Note_on_c, 0, 70, 0
1, 97284, Note_on_c, 0, 68, 77
1, 97296, Note_on_c, 0, 68, 0
1, 97296, Note_on_c, 0, 67, 77
1, 97320, Note_on_c, 0, 67, 0
1, 97320, Note_on_c, 0, 68, 77
1, 97344, Note_on_c, 0, 68, 0
1, 97344, Note_on_c, 0, 70, 77
1, 97344, Note_on_c, 1, 55, 77
1, 97344, Note_on_c, 1, 43, 77
1, 97433, Note_on_c, 0, 70, 0
1, 97433, Note_on_c, 1, 55, 0
1, 97433, Note_on_c, 1, 43, 0
1, 97440, Note_on_c, 0, 63, 77
1, 97507, Note_on_c, 0, 63, 0
1, 97512, Note_on_c, 0, 75, 77
1, 97535, Note_on_c, 0, 75, 0
1, 97536, Note_on_c, 0, 73, 77
1, 97632, Note_on_c, 1, 44, 77
1, 97728, Note_on_c, 0, 73, 0
1, 97728, Note_on_c, 0, 72, 77
1, 97728, Note_on_c, 1, 44, 0
1, 97728, Note_on_c, 1, 56, 77
1, 97748, Note_on_c, 0, 72, 0
1, 97773, Note_on_c, 1, 56, 0
1, 97824, Note_on_c, 0, 68, 77
1, 97891, Note_on_c, 0, 68, 0
1, 97896, Note_on_c, 0, 77, 77
1, 97919, Note_on_c, 0, 77, 0
1, 97920, Note_on_c, 0, 75, 77
1, 98016, Note_on_c, 1, 58, 77
1, 98112, Note_on_c, 0, 75, 0
1, 98112, Note_on_c, 0, 73, 77
1, 98112, Note_on_c, 1, 58, 0
1, 98112, Note_on_c, 1, 55, 77
1, 98132, Note_on_c, 0, 73, 0
1, 98157, Note_on_c, 1, 55, 0
1, 98208, Note_on_c, 0, 63, 77
1, 98275, Note_on_c, 0, 63, 0
1, 98280, Note_on_c, 0, 75, 77
1, 98303, Note_on_c, 0, 75, 0
1, 98304, Note_on_c, 0, 73, 77
1, 98400, Note_on_c, 1, 56, 77
1, 98496, Note_on_c, 0, 73, 0
1, 98496, Note_on_c, 0, 72, 77
1, 98496, Note_on_c, 1, 56, 0
1, 98496, Note_on_c, 1, 44, 77
1, 98516, Note_on_c, 0, 72, 0
1, 98541, Note_on_c, 1, 44, 0
1, 98592, Note_on_c, 0, 80, 77
1, 98592, Note_on_c, 1, 48, 77
1, 98659, Note_on_c, 0, 80, 0
1, 98664, Note_on_c, 0, 72, 77
1, 98681, Note_on_c, 1, 48, 0
1, 98687, Note_on_c, 0, 72, 0
1, 98688, Note_on_c, 0, 70, 77
1, 98688, Note_on_c, 1, 49, 77
1, 98755, Note_on_c, 0, 70, 0
1, 98760, Note_on_c, 0, 70, 77
1, 98783, Note_on_c, 0, 70, 0
1, 98784, Note_on_c, 0, 72, 77
1, 98796, Note_on_c, 0, 72, 0
1, 98796, Note_on_c, 0, 70, 77
1, 98808, Note_on_c, 0, 70, 0
1, 98808, Note_on_c, 0, 72, 77
1, 98820, Note_on_c, 0, 72, 0
1, 98820, Note_on_c, 0, 70, 77
1, 98832, Note_on_c, 0, 70, 0
1, 98832, Note_on_c, 0, 69, 77
1, 98856, Note_on_c, 0, 69, 0
1, 98856, Note_on_c, 0, 70, 77
1, 98865, Note_on_c, 1, 49, 0
1, 98880, Note_on_c, 0, 70, 0
1, 98880, Note_on_c, 0, 73, 77
1, 98947, Note_on_c, 0, 73, 0
1, 98952, Note_on_c, 0, 70, 77
1, 98975, Note_on_c, 0, 70, 0
1, 98976, Note_on_c, 0, 67, 77
1, 98976, Note_on_c, 1, 51, 77
1, 99043, Note_on_c, 0, 67, 0
1, 99048, Note_on_c, 0, 63, 77
1, 99065, Note_on_c, 1, 51, 0
1, 99071, Note_on_c, 0, 63, 0
1, 99072, Note_on_c, 0, 68, 77
1, 99111, Note_on_c, 0, 68, 0
1, 99144, Note_on_c, 1, 44, 77
1, 99167, Note_on_c, 1, 44, 0
1, 99168, Note_on_c, 1, 48, 77
1, 99235, Note_on_c, 1, 48, 0
1, 99240, Note_on_c, 1, 51, 77
1, 99263, Note_on_c, 1, 51, 0
1, 99264, Note_on_c, 1, 56, 77
1, 99303, Note_on_c, 1, 56, 0
1, 99360, Note_on_c, 0, 63, 77
1, 99427, Note_on_c, 0, 63, 0
1, 99432, Note_on_c, 0, 60, 77
1, 99455, Note_on_c, 0, 60, 0
1, 99456, Note_on_c, 0, 68, 77
1, 99456, Note_on_c, 1, 60, 77
1, 99456, Note_on_c, 1, 56, 77
1, 99523, Note_on_c, 0, 68, 0
1, 99528, Note_on_c, 0, 68, 77
1, 99545, Note_on_c, 1, 60, 0
1, 99545, Note_on_c, 1, 56, 0
1, 99551, Note_on_c, 0, 68, 0
1, 99552, Note_on_c, 0, 70, 77
1, 99564, Note_on_c, 0, 70, 0
1, 99564, Note_on_c, 0, 68, 77
1, 99576, Note_on_c, 0, 68, 0
1, 99576, Note_on_c, 0, 70, 77
1, 99588, Note_on_c, 0, 70, 0
1, 99588, Note_on_c, 0, 68, 77
1, 99600, Note_on_c, 0, 68, 0
1, 99600, Note_on_c, 0, 67, 77
1, 99624, Note_on_c, 0, 67, 0
1, 99624, Note_on_c, 0, 68, 77
1, 99648, Note_on_c, 0, 68, 0
1, 99648, Note_on_c, 0, 70, 77
1, 99648, Note_on_c, 1, 58, 77
1, 99648, Note_on_c, 1, 55, 77
1, 99737, Note_on_c, 0, 70, 0
1, 99737, Note_on_c, 1, 58, 0
1, 99737, Note_on_c, 1, 55, 0
1, 99744, Note_on_c, 0, 63, 77
1, 99811, Note_on_c, 0, 63, 0
1, 99816, Note_on_c, 0, 75, 77
1, 99839, Note_on_c, 0, 75, 0
1, 99840, Note_on_c, 0, 73, 77
1, 99936, Note_on_c, 1, 44, 77
1, 100032, Note_on_c, 0, 73, 0
1, 100032, Note_on_c, 0, 72, 77
1, 100032, Note_on_c, 1, 44, 0
1, 100032, Note_on_c, 1, 56, 77
1, 100052, Note_on_c, 0, 72, 0
1, 100121, Note_on_c, 1, 56, 0
1, 100128, Note_on_c, 0, 68, 77
1, 100128, Note_on_c, 1, 60, 77
1, 100195, Note_on_c, 0, 68, 0
1, 100200, Note_on_c, 0, 80, 77
1, 100217, Note_on_c, 1, 60, 0
1, 100223, Note_on_c, 0, 80, 0
1, 100224, Note_on_c, 0, 79, 77
1, 100320, Note_on_c, 0, 79, 0
1, 100320, Note_on_c, 0, 77, 77
1, 100320, Note_on_c, 1, 61, 77
1, 100349, Note_on_c, 0, 77, 0
1, 100359, Note_on_c, 1, 61, 0
1, 100392, Note_on_c, 0, 80, 77
1, 100415, Note_on_c, 0, 80, 0
1, 100416, Note_on_c, 0, 77, 77
1, 100512, Note_on_c, 0, 77, 0
1, 100512, Note_on_c, 0, 75, 77
1, 100512, Note_on_c, 1, 60, 77
1, 100541, Note_on_c, 0, 75, 0
1, 100551, Note_on_c, 1, 60, 0
1, 100584, Note_on_c, 0, 80, 77
1, 100607, Note_on_c, 0, 80, 0
1, 100608, Note_on_c, 0, 75, 77
1, 100704, Note_on_c, 0, 75, 0
1, 100704, Note_on_c, 0, 73, 77
1, 100704, Note_on_c, 1, 58, 77
1, 100733, Note_on_c, 0, 73, 0
1, 100743, Note_on_c, 1, 58, 0
1, 100776, Note_on_c, 0, 80, 77
1, 100799, Note_on_c, 0, 80, 0
1, 100800, Note_on_c, 0, 73, 77
1, 100896, Note_on_c, 0, 73, 0
1, 100896, Note_on_c, 0, 72, 77
1, 100896, Note_on_c, 1, 56, 77
1, 100925, Note_on_c, 0, 72, 0
1, 100935, Note_on_c, 1, 56, 0
1, 100968, Note_on_c, 0, 80, 77
1, 100991, Note_on_c, 0, 80, 0
1, 100992, Note_on_c, 0, 72, 77
1, 101059, Note_on_c, 0, 72, 0
1, 101064, Note_on_c, 0, 70, 80
1, 101087, Note_on_c, 0, 70, 0
1, 101088, Note_on_c, 0, 73, 81
1, 101088, Note_on_c, 1, 49, 77
1, 101088, Note_on_c, 1, 61, 63
1, 101155, Note_on_c, 0, 73, 0
1, 101160, Note_on_c, 0, 77, 84
1, 101177, Note_on_c, 1, 49, 0
1, 101177, Note_on_c, 1, 61, 0
1, 101183, Note_on_c, 0, 77, 0
1, 101184, Note_on_c, 0, 75, 84
1, 101184, Note_on_c, 1, 51, 77
1, 101184, Note_on_c, 1, 60, 63
1, 101273, Note_on_c, 0, 75, 0
1, 101273, Note_on_c, 1, 60, 0
1, 101280, Note_on_c, 0, 67, 80
1, 101280, Note_on_c, 1, 58, 63
1, 101361, Note_on_c, 1, 51, 0
1, 101369, Note_on_c, 0, 67, 0
1, 101369, Note_on_c, 1, 58, 0
1, 101376, Note_on_c, 0, 67, 77
1, 101376, Note_on_c, 1, 56, 63
1, 101388, Note_on_c, 0, 67, 0
1, 101388, Note_on_c, 0, 68, 77
1, 101406, Note_on_c, 1, 56, 0
1, 101408, Note_on_c, 1, 60, 63
1, 101438, Note_on_c, 1, 60, 0
1, 101440, Note_on_c, 1, 63, 63
1, 101466, Note_on_c, 0, 68, 0
1, 101470, Note_on_c, 1, 63, 0
1, 101472, Note_on_c, 0, 67, 77
1, 101472, Note_on_c, 1, 56, 63
1, 101484, Note_on_c, 0, 67, 0
1, 101484, Note_on_c, 0, 68, 77
1, 101502, Note_on_c, 1, 56, 0
1, 101504, Note_on_c, 1, 60, 63
1, 101534, Note_on_c, 1, 60, 0
1, 101536, Note_on_c, 1, 63, 63
1, 101562, Note_on_c, 0, 68, 0
1, 101566, Note_on_c, 1, 63, 0
1, 101568, Note_on_c, 0, 67, 77
1, 101568, Note_on_c, 1, 56, 63
1, 101580, Note_on_c, 0, 67, 0
1, 101580, Note_on_c, 0, 68, 77
1, 101598, Note_on_c, 1, 56, 0
1, 101600, Note_on_c, 1, 60, 63
1, 101630, Note_on_c, 1, 60, 0
1, 101632, Note_on_c, 1, 63, 63
1, 101658, Note_on_c, 0, 68, 0
1, 101662, Note_on_c, 1, 63, 0
1, 101664, Note_on_c, 0, 69, 77
1, 101664, Note_on_c, 1, 55, 63
1, 101676, Note_on_c, 0, 69, 0
1, 101676, Note_on_c, 0, 70, 77
1, 101694, Note_on_c, 1, 55, 0
1, 101696, Note_on_c, 1, 58, 63
1, 101726, Note_on_c, 1, 58, 0
1, 101728, Note_on_c, 1, 63, 63
1, 101754, Note_on_c, 0, 70, 0
1, 101758, Note_on_c, 1, 63, 0
1, 101760, Note_on_c, 0, 71, 77
1, 101760, Note_on_c, 1, 56, 63
1, 101772, Note_on_c, 0, 71, 0
1, 101772, Note_on_c, 0, 72, 77
1, 101790, Note_on_c, 1, 56, 0
1, 101792, Note_on_c, 1, 60, 63
1, 101822, Note_on_c, 1, 60, 0
1, 101824, Note_on_c, 1, 63, 63
1, 101854, Note_on_c, 1, 63, 0
1, 101856, Note_on_c, 1, 56, 63
1, 101886, Note_on_c, 1, 56, 0
1, 101888, Note_on_c, 1, 60, 63
1, 101918, Note_on_c, 1, 60, 0
1, 101920, Note_on_c, 1, 63, 63
1, 101950, Note_on_c, 1, 63, 0
1, 101952, Note_on_c, 0, 72, 0
1, 101952, Note_on_c, 0, 68, 77
1, 101952, Note_on_c, 1, 56, 63
1, 101982, Note_on_c, 1, 56, 0
1, 101984, Note_on_c, 1, 60, 63
1, 102014, Note_on_c, 1, 60, 0
1, 102016, Note_on_c, 1, 63, 63
1, 102046, Note_on_c, 1, 63, 0
1, 102048, Note_on_c, 1, 56, 63
1, 102078, Note_on_c, 1, 56, 0
1, 102080, Note_on_c, 1, 60, 63
1, 102110, Note_on_c, 1, 60, 0
1, 102112, Note_on_c, 1, 63, 63
1, 102129, Note_on_c, 0, 68, 0
1, 102142, Note_on_c, 1, 63, 0
1, 102144, Note_on_c, 0, 71, 77
1, 102144, Note_on_c, 1, 56, 63
1, 102156, Note_on_c, 0, 71, 0
1, 102156, Note_on_c, 0, 72, 77
1, 102174, Note_on_c, 1, 56, 0
1, 102176, Note_on_c, 1, 60, 63
1, 102206, Note_on_c, 1, 60, 0
1, 102208, Note_on_c, 1, 63, 63
1, 102234, Note_on_c, 0, 72, 0
1, 102238, Note_on_c, 1, 63, 0
1, 102240, Note_on_c, 0, 71, 77
1, 102240, Note_on_c, 1, 56, 63
1, 102252, Note_on_c, 0, 71, 0
1, 102252, Note_on_c, 0, 72, 77
1, 102270, Note_on_c, 1, 56, 0
1, 102272, Note_on_c, 1, 60, 63
1, 102302, Note_on_c, 1, 60, 0
1, 102304, Note_on_c, 1, 63, 63
1, 102330, Note_on_c, 0, 72, 0
1, 102334, Note_on_c, 1, 63, 0
1, 102336, Note_on_c, 0, 71, 77
1, 102336, Note_on_c, 1, 56, 63
1, 102348, Note_on_c, 0, 71, 0
1, 102348, Note_on_c, 0, 72, 77
1, 102366, Note_on_c, 1, 56, 0
1, 102368, Note_on_c, 1, 60, 63
1, 102398, Note_on_c, 1, 60, 0
1, 102400, Note_on_c, 1, 63, 63
1, 102426, Note_on_c, 0, 72, 0
1, 102430, Note_on_c, 1, 63, 0
1, 102432, Note_on_c, 0, 75, 77
1, 102432, Note_on_c, 1, 58, 63
1, 102455, Note_on_c, 0, 75, 0
1, 102456, Note_on_c, 0, 73, 77
1, 102462, Note_on_c, 1, 58, 0
1, 102464, Note_on_c, 1, 61, 63
1, 102479, Note_on_c, 0, 73, 0
1, 102480, Note_on_c, 0, 72, 77
1, 102494, Note_on_c, 1, 61, 0
1, 102496, Note_on_c, 1, 67, 63
1, 102503, Note_on_c, 0, 72, 0
1, 102504, Note_on_c, 0, 73, 77
1, 102526, Note_on_c, 1, 67, 0
1, 102527, Note_on_c, 0, 73, 0
1, 102528, Note_on_c, 0, 75, 77
1, 102528, Note_on_c, 1, 60, 63
1, 102558, Note_on_c, 1, 60, 0
1, 102560, Note_on_c, 1, 63, 63
1, 102590, Note_on_c, 1, 63, 0
1, 102592, Note_on_c, 1, 68, 63
1, 102622, Note_on_c, 1, 68, 0
1, 102624, Note_on_c, 1, 60, 63
1, 102654, Note_on_c, 1, 60, 0
1, 102656, Note_on_c, 1, 63, 63
1, 102686, Note_on_c, 1, 63, 0
1, 102688, Note_on_c, 1, 68, 63
1, 102718, Note_on_c, 1, 68, 0
1, 102720, Note_on_c, 0, 75, 0
1, 102720, Note_on_c, 0, 72, 77
1, 102720, Note_on_c, 1, 60, 63
1, 102750, Note_on_c, 1, 60, 0
1, 102752, Note_on_c, 1, 63, 63
1, 102782, Note_on_c, 1, 63, 0
1, 102784, Note_on_c, 1, 68, 63
1, 102814, Note_on_c, 1, 68, 0
1, 102816, Note_on_c, 1, 60, 63
1, 102846, Note_on_c, 1, 60, 0
1, 102848, Note_on_c, 1, 63, 63
1, 102878, Note_on_c, 1, 63, 0
1, 102880, Note_on_c, 1, 68, 63
1, 102897, Note_on_c, 0, 72, 0
1, 102910, Note_on_c, 1, 68, 0
1, 102912, Note_on_c, 0, 80, 77
1, 102912, Note_on_c, 1, 60, 63
1, 102942, Note_on_c, 1, 60, 0
1, 102944, Note_on_c, 1, 63, 63
1, 102974, Note_on_c, 1, 63, 0
1, 102976, Note_on_c, 1, 68, 63
1, 103001, Note_on_c, 0, 80, 0
1, 103006, Note_on_c, 1, 68, 0
1, 103008, Note_on_c, 0, 80, 77
1, 103008, Note_on_c, 1, 60, 63
1, 103038, Note_on_c, 0, 80, 0
1, 103038, Note_on_c, 1, 60, 0
1, 103040, Note_on_c, 0, 84, 77
1, 103040, Note_on_c, 1, 63, 63
1, 103070, Note_on_c, 0, 84, 0
1, 103070, Note_on_c, 1, 63, 0
1, 103072, Note_on_c, 0, 87, 77
1, 103072, Note_on_c, 1, 68, 63
1, 103102, Note_on_c, 0, 87, 0
1, 103102, Note_on_c, 1, 68, 0
1, 103104, Note_on_c, 0, 78, 93
1, 103104, Note_on_c, 1, 60, 63
1, 103134, Note_on_c, 1, 60, 0
1, 103136, Note_on_c, 1, 63, 63
1, 103166, Note_on_c, 1, 63, 0
1, 103168, Note_on_c, 1, 68, 63
1, 103198, Note_on_c, 1, 68, 0
1, 103200, Note_on_c, 1, 60, 63
1, 103230, Note_on_c, 1, 60, 0
1, 103232, Note_on_c, 1, 63, 63
1, 103262, Note_on_c, 1, 63, 0
1, 103264, Note_on_c, 1, 68, 63
1, 103294, Note_on_c, 1, 68, 0
1, 103296, Note_on_c, 0, 78, 0
1, 103296, Note_on_c, 0, 77, 77
1, 103296, Note_on_c, 1, 61, 63
1, 103326, Note_on_c, 1, 61, 0
1, 103328, Note_on_c, 1, 65, 63
1, 103358, Note_on_c, 1, 65, 0
1, 103360, Note_on_c, 1, 68, 63
1, 103385, Note_on_c, 0, 77, 0
1, 103390, Note_on_c, 1, 68, 0
1, 103392, Note_on_c, 0, 77, 77
1, 103392, Note_on_c, 1, 61, 63
1, 103422, Note_on_c, 0, 77, 0
1, 103422, Note_on_c, 1, 61, 0
1, 103424, Note_on_c, 0, 82, 77
1, 103424, Note_on_c, 1, 65, 63
1, 103454, Note_on_c, 0, 82, 0
1, 103454, Note_on_c, 1, 65, 0
1, 103456, Note_on_c, 0, 85, 77
1, 103456, Note_on_c, 1, 68, 63
1, 103486, Note_on_c, 0, 85, 0
1, 103486, Note_on_c, 1, 68, 0
1, 103488, Note_on_c, 0, 75, 93
1, 103488, Note_on_c, 1, 61, 63
1, 103518, Note_on_c, 1, 61, 0
1, 103520, Note_on_c, 1, 63, 63
1, 103550, Note_on_c, 1, 63, 0
1, 103552, Note_on_c, 1, 67, 63
1, 103582, Note_on_c, 1, 67, 0
1, 103584, Note_on_c, 1, 61, 63
1, 103614, Note_on_c, 1, 61, 0
1, 103616, Note_on_c, 1, 63, 63
1, 103632, Note_on_c, 0, 75, 0
1, 103632, Note_on_c, 0, 77, 77
1, 103646, Note_on_c, 1, 63, 0
1, 103648, Note_on_c, 1, 67, 63
1, 103655, Note_on_c, 0, 77, 0
1, 103656, Note_on_c, 0, 79, 77
1, 103678, Note_on_c, 1, 67, 0
1, 103679, Note_on_c, 0, 79, 0
1, 103680, Note_on_c, 0, 80, 77
1, 103680, Note_on_c, 1, 60, 63
1, 103710, Note_on_c, 1, 60, 0
1, 103712, Note_on_c, 1, 63, 63
1, 103742, Note_on_c, 1, 63, 0
1, 103744, Note_on_c, 1, 68, 63
1, 103769, Note_on_c, 0, 80, 0
1, 103774, Note_on_c, 1, 68, 0
1, 103776, Note_on_c, 0, 80, 77
1, 103776, Note_on_c, 1, 60, 63
1, 103806, Note_on_c, 0, 80, 0
1, 103806, Note_on_c, 1, 60, 0
1, 103808, Note_on_c, 0, 82, 77
1, 103808, Note_on_c, 1, 63, 63
1, 103838, Note_on_c, 0, 82, 0
1, 103838, Note_on_c, 1, 63, 0
1, 103840, Note_on_c, 0, 84, 77
1, 103840, Note_on_c, 1, 68, 63
1, 103870, Note_on_c, 0, 84, 0
1, 103870, Note_on_c, 1, 68, 0
1, 103872, Note_on_c, 0, 73, 93
1, 103872, Note_on_c, 1, 58, 63
1, 103902, Note_on_c, 1, 58, 0
1, 103904, Note_on_c, 1, 61, 63
1, 103934, Note_on_c, 1, 61, 0
1, 103936, Note_on_c, 1, 67, 63
1, 103966, Note_on_c, 1, 67, 0
1, 103968, Note_on_c, 1, 58, 63
1, 103998, Note_on_c, 1, 58, 0
1, 104000, Note_on_c, 1, 61, 63
1, 104030, Note_on_c, 1, 61, 0
1, 104032, Note_on_c, 1, 67, 63
1, 104062, Note_on_c, 1, 67, 0
1, 104064, Note_on_c, 0, 73, 0
1, 104064, Note_on_c, 0, 72, 77
1, 104064, Note_on_c, 1, 56, 63
1, 104094, Note_on_c, 0, 72, 0
1, 104096, Note_on_c, 0, 75, 77
1, 104126, Note_on_c, 0, 75, 0
1, 104128, Note_on_c, 0, 73, 77
1, 104153, Note_on_c, 1, 56, 0
1, 104158, Note_on_c, 0, 73, 0
1, 104160, Note_on_c, 0, 72, 77
1, 104190, Note_on_c, 0, 72, 0
1, 104192, Note_on_c, 0, 84, 77
1, 104222, Note_on_c, 0, 84, 0
1, 104224, Note_on_c, 0, 82, 77
1, 104254, Note_on_c, 0, 82, 0
1, 104256, Note_on_c, 0, 80, 77
1, 104286, Note_on_c, 0, 80, 0
1, 104288, Note_on_c, 0, 79, 77
1, 104318, Note_on_c, 0, 79, 0
1, 104320, Note_on_c, 0, 77, 77
1, 104350, Note_on_c, 0, 77, 0
1, 104352, Note_on_c, 0, 75, 77
1, 104382, Note_on_c, 0, 75, 0
1, 104384, Note_on_c, 0, 73, 77
1, 104414, Note_on_c, 0, 73, 0
1, 104416, Note_on_c, 0, 72, 77
1, 104446, Note_on_c, 0, 72, 0
1, 104448, Note_on_c, 0, 75, 77
1, 104520, Note_on_c, 0, 75, 0
1, 104520, Note_on_c, 0, 72, 77
1, 104543, Note_on_c, 0, 72, 0
1, 104544, Note_on_c, 0, 70, 77
1, 104544, Note_on_c, 1, 67, 63
1, 104544, Note_on_c, 1, 63, 63
1, 104677, Note_on_c, 1, 67, 0
1, 104677, Note_on_c, 1, 63, 0
1, 104685, Note_on_c, 0, 70, 0
1, 104688, Note_on_c, 0, 73, 77
1, 104733, Note_on_c, 0, 73, 0
1, 104736, Note_on_c, 0, 72, 77
1, 104781, Note_on_c, 0, 72, 0
1, 104784, Note_on_c, 0, 75, 77
1, 104829, Note_on_c, 0, 75, 0
1, 104832, Note_on_c, 0, 75, 77
1, 104832, Note_on_c, 1, 51, 63
1, 104862, Note_on_c, 1, 51, 0
1, 104864, Note_on_c, 1, 55, 63
1, 104880, Note_on_c, 0, 75, 0
1, 104880, Note_on_c, 0, 73, 77
1, 104894, Note_on_c, 1, 55, 0
1, 104896, Note_on_c, 1, 58, 63
1, 104925, Note_on_c, 0, 73, 0
1, 104926, Note_on_c, 1, 58, 0
1, 104928, Note_on_c, 0, 73, 93
1, 104928, Note_on_c, 1, 51, 63
1, 104958, Note_on_c, 1, 51, 0
1, 104960, Note_on_c, 1, 55, 63
1, 104990, Note_on_c, 1, 55, 0
1, 104992, Note_on_c, 1, 58, 63
1, 105022, Note_on_c, 1, 58, 0
1, 105024, Note_on_c, 1, 51, 63
1, 105054, Note_on_c, 1, 51, 0
1, 105056, Note_on_c, 1, 55, 63
1, 105086, Note_on_c, 1, 55, 0
1, 105088, Note_on_c, 1, 58, 63
1, 105118, Note_on_c, 1, 58, 0
1, 105120, Note_on_c, 0, 73, 0
1, 105120, Note_on_c, 0, 72, 77
1, 105120, Note_on_c, 1, 51, 63
1, 105150, Note_on_c, 0, 72, 0
1, 105150, Note_on_c, 1, 51, 0
1, 105152, Note_on_c, 0, 70, 77
1, 105152, Note_on_c, 1, 56, 63
1, 105182, Note_on_c, 0, 70, 0
1, 105182, Note_on_c, 1, 56, 0
1, 105184, Note_on_c, 0, 68, 77
1, 105184, Note_on_c, 1, 60, 63
1, 105214, Note_on_c, 0, 68, 0
1, 105214, Note_on_c, 1, 60, 0
1, 105216, Note_on_c, 0, 68, 77
1, 105216, Note_on_c, 1, 51, 63
1, 105246, Note_on_c, 1, 51, 0
1, 105248, Note_on_c, 1, 58, 63
1, 105264, Note_on_c, 0, 68, 0
1, 105264, Note_on_c, 0, 67, 77
1, 105278, Note_on_c, 1, 58, 0
1, 105280, Note_on_c, 1, 61, 63
1, 105309, Note_on_c, 0, 67, 0
1, 105310, Note_on_c, 1, 61, 0
1, 105312, Note_on_c, 0, 67, 93
1, 105312, Note_on_c, 1, 51, 63
1, 105342, Note_on_c, 1, 51, 0
1, 105344, Note_on_c, 1, 58, 63
1, 105374, Note_on_c, 1, 58, 0
1, 105376, Note_on_c, 1, 61, 63
1, 105406, Note_on_c, 1, 61, 0
1, 105408, Note_on_c, 1, 51, 63
1, 105438, Note_on_c, 1, 51, 0
1, 105440, Note_on_c, 1, 58, 63
1, 105470, Note_on_c, 1, 58, 0
1, 105472, Note_on_c, 1, 61, 63
1, 105502, Note_on_c, 1, 61, 0
1, 105504, Note_on_c, 0, 67, 0
1, 105504, Note_on_c, 0, 68, 77
1, 105504, Note_on_c, 1, 51, 63
1, 105534, Note_on_c, 1, 51, 0
1, 105536, Note_on_c, 1, 56, 63
1, 105566, Note_on_c, 1, 56, 0
1, 105568, Note_on_c, 1, 60, 63
1, 105593, Note_on_c, 0, 68, 0
1, 105598, Note_on_c, 1, 60, 0
1, 105600, Note_on_c, 0, 70, 77
1, 105600, Note_on_c, 1, 51, 63
1, 105630, Note_on_c, 0, 70, 0
1, 105630, Note_on_c, 1, 51, 0
1, 105632, Note_on_c, 0, 72, 77
1, 105632, Note_on_c, 1, 55, 63
1, 105662, Note_on_c, 0, 72, 0
1, 105662, Note_on_c, 1, 55, 0
1, 105664, Note_on_c, 0, 73, 77
1, 105664, Note_on_c, 1, 58, 63
1, 105694, Note_on_c, 0, 73, 0
1, 105694, Note_on_c, 1, 58, 0
1, 105696, Note_on_c, 0, 73, 93
1, 105696, Note_on_c, 1, 51, 63
1, 105726, Note_on_c, 1, 51, 0
1, 105728, Note_on_c, 1, 55, 63
1, 105758, Note_on_c, 1, 55, 0
1, 105760, Note_on_c, 1, 58, 63
1, 105790, Note_on_c, 1, 58, 0
1, 105792, Note_on_c, 1, 51, 63
1, 105822, Note_on_c, 1, 51, 0
1, 105824, Note_on_c, 1, 55, 63
1, 105854, Note_on_c, 1, 55, 0
1, 105856, Note_on_c, 1, 58, 63
1, 105886, Note_on_c, 1, 58, 0
1, 105888, Note_on_c, 0, 73, 0
1, 105888, Note_on_c, 0, 72, 77
1, 105888, Note_on_c, 1, 51, 63
1, 105918, Note_on_c, 0, 72, 0
1, 105918, Note_on_c, 1, 51, 0
1, 105920, Note_on_c, 0, 70, 77
1, 105920, Note_on_c, 1, 56, 63
1, 105950, Note_on_c, 0, 70, 0
1, 105950, Note_on_c, 1, 56, 0
1, 105952, Note_on_c, 0, 68, 77
1, 105952, Note_on_c, 1, 60, 63
1, 105982, Note_on_c, 0, 68, 0
1, 105982, Note_on_c, 1, 60, 0
1, 105984, Note_on_c, 0, 68, 77
1, 105984, Note_on_c, 1, 51, 63
1, 106014, Note_on_c, 1, 51, 0
1, 106016, Note_on_c, 1, 58, 63
1, 106032, Note_on_c, 0, 68, 0
1, 106032, Note_on_c, 0, 67, 77
1, 106046, Note_on_c, 1, 58, 0
1, 106048, Note_on_c, 1, 61, 63
1, 106077, Note_on_c, 0, 67, 0
1, 106078, Note_on_c, 1, 61, 0
1, 106080, Note_on_c, 0, 67, 93
1, 106080, Note_on_c, 1, 51, 63
1, 106110, Note_on_c, 1, 51, 0
1, 106112, Note_on_c, 1, 58, 63
1, 106142, Note_on_c, 1, 58, 0
1, 106144, Note_on_c, 1, 61, 63
1, 106174, Note_on_c, 1, 61, 0
1, 106176, Note_on_c, 1, 51, 63
1, 106206, Note_on_c, 1, 51, 0
1, 106208, Note_on_c, 1, 58, 63
1, 106238, Note_on_c, 1, 58, 0
1, 106240, Note_on_c, 1, 61, 63
1, 106270, Note_on_c, 1, 61, 0
1, 106272, Note_on_c, 0, 67, 0
1, 106272, Note_on_c, 0, 68, 77
1, 106272, Note_on_c, 1, 51, 63
1, 106302, Note_on_c, 1, 51, 0
1, 106304, Note_on_c, 1, 56, 63
1, 106334, Note_on_c, 1, 56, 0
1, 106336, Note_on_c, 1, 60, 63
1, 106361, Note_on_c, 0, 68, 0
1, 106366, Note_on_c, 1, 60, 0
1, 106368, Note_on_c, 0, 70, 70
1, 106368, Note_on_c, 1, 51, 63
1, 106398, Note_on_c, 0, 70, 0
1, 106398, Note_on_c, 1, 51, 0
1, 106400, Note_on_c, 0, 72, 71
1, 106400, Note_on_c, 1, 55, 65
1, 106430, Note_on_c, 0, 72, 0
1, 106430, Note_on_c, 1, 55, 0
1, 106432, Note_on_c, 0, 73, 72
1, 106432, Note_on_c, 1, 58, 68
1, 106462, Note_on_c, 0, 73, 0
1, 106462, Note_on_c, 1, 58, 0
1, 106464, Note_on_c, 0, 73, 90
1, 106464, Note_on_c, 1, 51, 71
1, 106494, Note_on_c, 1, 51, 0
1, 106496, Note_on_c, 1, 55, 74
1, 106526, Note_on_c, 1, 55, 0
1, 106528, Note_on_c, 1, 58, 77
1, 106558, Note_on_c, 1, 58, 0
1, 106560, Note_on_c, 1, 52, 80
1, 106590, Note_on_c, 1, 52, 0
1, 106592, Note_on_c, 1, 55, 84
1, 106622, Note_on_c, 1, 55, 0
1, 106624, Note_on_c, 1, 58, 84
1, 106654, Note_on_c, 1, 58, 0
1, 106656, Note_on_c, 0, 73, 0
1, 106656, Note_on_c, 0, 72, 84
1, 106656, Note_on_c, 1, 53, 84
1, 106686, Note_on_c, 1, 53, 0
1, 106688, Note_on_c, 1, 55, 84
1, 106718, Note_on_c, 1, 55, 0
1, 106720, Note_on_c, 1, 56, 84
1, 106745, Note_on_c, 0, 72, 0
1, 106750, Note_on_c, 1, 56, 0
1, 106752, Note_on_c, 0, 70, 84
1, 106752, Note_on_c, 1, 49, 84
1, 106782, Note_on_c, 0, 70, 0
1, 106784, Note_on_c, 0, 77, 82
1, 106814, Note_on_c, 0, 77, 0
1, 106816, Note_on_c, 0, 75, 81
1, 106846, Note_on_c, 0, 75, 0
1, 106848, Note_on_c, 0, 73, 80
1, 106848, Note_on_c, 1, 61, 63
1, 106878, Note_on_c, 0, 73, 0
1, 106880, Note_on_c, 0, 72, 79
1, 106910, Note_on_c, 0, 72, 0
1, 106912, Note_on_c, 0, 70, 78
1, 106929, Note_on_c, 1, 49, 0
1, 106937, Note_on_c, 1, 61, 0
1, 106942, Note_on_c, 0, 70, 0
1, 106944, Note_on_c, 0, 68, 77
1, 106944, Note_on_c, 1, 51, 84
1, 106944, Note_on_c, 1, 60, 63
1, 107033, Note_on_c, 0, 68, 0
1, 107033, Note_on_c, 1, 60, 0
1, 107040, Note_on_c, 0, 67, 73
1, 107040, Note_on_c, 1, 58, 63
1, 107121, Note_on_c, 1, 51, 0
1, 107129, Note_on_c, 0, 67, 0
1, 107129, Note_on_c, 1, 58, 0
1, 107136, Note_on_c, 0, 60, 84
1, 107136, Note_on_c, 1, 56, 77
1, 107166, Note_on_c, 0, 60, 0
1, 107168, Note_on_c, 0, 63, 84
1, 107198, Note_on_c, 0, 63, 0
1, 107200, Note_on_c, 0, 68, 84
1, 107225, Note_on_c, 1, 56, 0
1, 107230, Note_on_c, 0, 68, 0
1, 107232, Note_on_c, 0, 68, 84
1, 107245, Note_on_c, 0, 68, 0
1, 107264, Note_on_c, 0, 68, 84
1, 107277, Note_on_c, 0, 68, 0
1, 107296, Note_on_c, 0, 68, 84
1, 107309, Note_on_c, 0, 68, 0
1, 107328, Note_on_c, 0, 67, 84
1, 107328, Note_on_c, 1, 58, 77
1, 107328, Note_on_c, 1, 51, 77
1, 107358, Note_on_c, 0, 67, 0
1, 107360, Note_on_c, 0, 70, 84
1, 107390, Note_on_c, 0, 70, 0
1, 107392, Note_on_c, 0, 73, 84
1, 107417, Note_on_c, 1, 58, 0
1, 107417, Note_on_c, 1, 51, 0
1, 107422, Note_on_c, 0, 73, 0
1, 107424, Note_on_c, 0, 73, 84
1, 107437, Note_on_c, 0, 73, 0
1, 107456, Note_on_c, 0, 73, 84
1, 107469, Note_on_c, 0, 73, 0
1, 107488, Note_on_c, 0, 73, 84
1, 107501, Note_on_c, 0, 73, 0
1, 107520, Note_on_c, 0, 72, 84
1, 107520, Note_on_c, 1, 60, 77
1, 107520, Note_on_c, 1, 56, 77
1, 107550, Note_on_c, 0, 72, 0
1, 107552, Note_on_c, 0, 75, 84
1, 107582, Note_on_c, 0, 75, 0
1, 107584, Note_on_c, 0, 80, 84
1, 107597, Note_on_c, 0, 80, 0
1, 107609, Note_on_c, 1, 60, 0
1, 107609, Note_on_c, 1, 56, 0
1, 107616, Note_on_c, 0, 80, 84
1, 107629, Note_on_c, 0, 80, 0
1, 107648, Note_on_c, 0, 80, 84
1, 107661, Note_on_c, 0, 80, 0
1, 107680, Note_on_c, 0, 80, 84
1, 107693, Note_on_c, 0, 80, 0
1, 107712, Note_on_c, 0, 79, 84
1, 107712, Note_on_c, 1, 58, 77
1, 107712, Note_on_c, 1, 51, 77
1, 107742, Note_on_c, 0, 79, 0
1, 107744, Note_on_c, 0, 82, 84
1, 107774, Note_on_c, 0, 82, 0
1, 107776, Note_on_c, 0, 85, 84
1, 107789, Note_on_c, 0, 85, 0
1, 107801, Note_on_c, 1, 58, 0
1, 107801, Note_on_c, 1, 51, 0
1, 107808, Note_on_c, 0, 85, 84
1, 107821, Note_on_c, 0, 85, 0
1, 107840, Note_on_c, 0, 85, 84
1, 107853, Note_on_c, 0, 85, 0
1, 107872, Note_on_c, 0, 85, 84
1, 107885, Note_on_c, 0, 85, 0
1, 107904, Note_on_c, 0, 84, 84
1, 107904, Note_on_c, 1, 60, 77
1, 107904, Note_on_c, 1, 56, 77
1, 107934, Note_on_c, 0, 84, 0
1, 107936, Note_on_c, 0, 87, 84
1, 107966, Note_on_c, 0, 87, 0
1, 107968, Note_on_c, 0, 85, 84
1, 107998, Note_on_c, 0, 85, 0
1, 108000, Note_on_c, 0, 84, 84
1, 108030, Note_on_c, 0, 84, 0
1, 108032, Note_on_c, 0, 82, 84
1, 108062, Note_on_c, 0, 82, 0
1, 108064, Note_on_c, 0, 80, 84
1, 108094, Note_on_c, 0, 80, 0
1, 108096, Note_on_c, 0, 79, 84
1, 108126, Note_on_c, 0, 79, 0
1, 108128, Note_on_c, 0, 77, 84
1, 108158, Note_on_c, 0, 77, 0
1, 108160, Note_on_c, 0, 75, 84
1, 108169, Note_on_c, 1, 60, 0
1, 108169, Note_on_c, 1, 56, 0
1, 108190, Note_on_c, 0, 75, 0
1, 108192, Note_on_c, 0, 73, 84
1, 108192, Note_on_c, 1, 61, 77
1, 108192, Note_on_c, 1, 58, 77
1, 108222, Note_on_c, 0, 73, 0
1, 108224, Note_on_c, 0, 72, 84
1, 108254, Note_on_c, 0, 72, 0
1, 108256, Note_on_c, 0, 70, 84
1, 108281, Note_on_c, 1, 61, 0
1, 108281, Note_on_c, 1, 58, 0
1, 108286, Note_on_c, 0, 70, 0
1, 108288, Note_on_c, 0, 68, 84
1, 108288, Note_on_c, 1, 63, 77
1, 108288, Note_on_c, 1, 60, 77
1, 108318, Note_on_c, 0, 68, 0
1, 108320, Note_on_c, 0, 84, 84
1, 108350, Note_on_c, 0, 84, 0
1, 108352, Note_on_c, 0, 82, 84
1, 108377, Note_on_c, 1, 63, 0
1, 108377, Note_on_c, 1, 60, 0
1, 108382, Note_on_c, 0, 82, 0
1, 108384, Note_on_c, 0, 80, 84
1, 108414, Note_on_c, 0, 80, 0
1, 108416, Note_on_c, 0, 79, 84
1, 108446, Note_on_c, 0, 79, 0
1, 108448, Note_on_c, 0, 77, 84
1, 108478, Note_on_c, 0, 77, 0
1, 108480, Note_on_c, 0, 75, 84
1, 108510, Note_on_c, 0, 75, 0
1, 108512, Note_on_c, 0, 73, 84
1, 108542, Note_on_c, 0, 73, 0
1, 108544, Note_on_c, 0, 72, 84
1, 108574, Note_on_c, 0, 72, 0
1, 108576, Note_on_c, 0, 70, 84
1, 108606, Note_on_c, 0, 70, 0
1, 108608, Note_on_c, 0, 68, 84
1, 108638, Note_on_c, 0, 68, 0
1, 108640, Note_on_c, 0, 67, 84
1, 108670, Note_on_c, 0, 67, 0
1, 108672, Note_on_c, 0, 65, 84
1, 108672, Note_on_c, 1, 49, 77
1, 108739, Note_on_c, 0, 65, 0
1, 108744, Note_on_c, 0, 77, 84
1, 108767, Note_on_c, 0, 77, 0
1, 108768, Note_on_c, 0, 73, 84
1, 108768, Note_on_c, 1, 61, 63
1, 108835, Note_on_c, 0, 73, 0
1, 108840, Note_on_c, 0, 70, 84
1, 108849, Note_on_c, 1, 49, 0
1, 108857, Note_on_c, 1, 61, 0
1, 108863, Note_on_c, 0, 70, 0
1, 108864, Note_on_c, 0, 68, 84
1, 108864, Note_on_c, 1, 51, 77
1, 108864, Note_on_c, 1, 60, 63
1, 108953, Note_on_c, 0, 68, 0
1, 108953, Note_on_c, 1, 60, 0
1, 108960, Note_on_c, 0, 67, 84
1, 108960, Note_on_c, 1, 58, 63
1, 108973, Note_on_c, 0, 67, 0
1, 108974, Note_on_c, 0, 68, 84
1, 108987, Note_on_c, 0, 68, 0
1, 108988, Note_on_c, 0, 67, 84
1, 109001, Note_on_c, 0, 67, 0
1, 109002, Note_on_c, 0, 68, 84
1, 109015, Note_on_c, 0, 68, 0
1, 109016, Note_on_c, 0, 67, 84
1, 109029, Note_on_c, 0, 67, 0
1, 109030, Note_on_c, 0, 65, 84
1, 109041, Note_on_c, 1, 51, 0
1, 109042, Note_on_c, 0, 65, 0
1, 109043, Note_on_c, 0, 67, 84
1, 109049, Note_on_c, 1, 58, 0
1, 109055, Note_on_c, 0, 67, 0
1, 109056, Note_on_c, 0, 84, 84
1, 109056, Note_on_c, 1, 60, 77
1, 109056, Note_on_c, 1, 56, 77
1, 109086, Note_on_c, 0, 84, 0
1, 109088, Note_on_c, 0, 87, 84
1, 109118, Note_on_c, 0, 87, 0
1, 109120, Note_on_c, 0, 85, 84
1, 109150, Note_on_c, 0, 85, 0
1, 109152, Note_on_c, 0, 84, 84
1, 109182, Note_on_c, 0, 84, 0
1, 109184, Note_on_c, 0, 82, 84
1, 109214, Note_on_c, 0, 82, 0
1, 109216, Note_on_c, 0, 80, 84
1, 109246, Note_on_c, 0, 80, 0
1, 109248, Note_on_c, 0, 79, 84
1, 109278, Note_on_c, 0, 79, 0
1, 109280, Note_on_c, 0, 77, 84
1, 109310, Note_on_c, 0, 77, 0
1, 109312, Note_on_c, 0, 75, 84
1, 109321, Note_on_c, 1, 60, 0
1, 109321, Note_on_c, 1, 56, 0
1, 109342, Note_on_c, 0, 75, 0
1, 109344, Note_on_c, 0, 73, 84
1, 109344, Note_on_c, 1, 61, 77
1, 109344, Note_on_c, 1, 58, 77
1, 109374, Note_on_c, 0, 73, 0
1, 109376, Note_on_c, 0, 72, 84
1, 109406, Note_on_c, 0, 72, 0
1, 109408, Note_on_c, 0, 70, 84
1, 109433, Note_on_c, 1, 61, 0
1, 109433, Note_on_c, 1, 58, 0
1, 109438, Note_on_c, 0, 70, 0
1, 109440, Note_on_c, 0, 68, 84
1, 109440, Note_on_c, 1, 63, 77
1, 109440, Note_on_c, 1, 60, 77
1, 109470, Note_on_c, 0, 68, 0
1, 109472, Note_on_c, 0, 84, 84
1, 109502, Note_on_c, 0, 84, 0
1, 109504, Note_on_c, 0, 82, 84
1, 109529, Note_on_c, 1, 63, 0
1, 109529, Note_on_c, 1, 60, 0
1, 109534, Note_on_c, 0, 82, 0
1, 109536, Note_on_c, 0, 80, 84
1, 109566, Note_on_c, 0, 80, 0
1, 109568, Note_on_c, 0, 79, 84
1, 109598, Note_on_c, 0, 79, 0
1, 109600, Note_on_c, 0, 77, 84
1, 109630, Note_on_c, 0, 77, 0
1, 109632, Note_on_c, 0, 75, 84
1, 109662, Note_on_c, 0, 75, 0
1, 109664, Note_on_c, 0, 73, 84
1, 109694, Note_on_c, 0, 73, 0
1, 109696, Note_on_c, 0, 72, 84
1, 109726, Note_on_c, 0, 72, 0
1, 109728, Note_on_c, 0, 70, 84
1, 109758, Note_on_c, 0, 70, 0
1, 109760, Note_on_c, 0, 68, 84
1, 109790, Note_on_c, 0, 68, 0
1, 109792, Note_on_c, 0, 67, 84
1, 109822, Note_on_c, 0, 67, 0
1, 109824, Note_on_c, 0, 65, 84
1, 109824, Note_on_c, 1, 49, 77
1, 109891, Note_on_c, 0, 65, 0
1, 109896, Note_on_c, 0, 77, 84
1, 109919, Note_on_c, 0, 77, 0
1, 109920, Note_on_c, 0, 73, 84
1, 109920, Note_on_c, 1, 61, 63
1, 109987, Note_on_c, 0, 73, 0
1, 109992, Note_on_c, 0, 70, 84
1, 110001, Note_on_c, 1, 49, 0
1, 110009, Note_on_c, 1, 61, 0
1, 110015, Note_on_c, 0, 70, 0
1, 110016, Note_on_c, 0, 68, 84
1, 110016, Note_on_c, 1, 51, 77
1, 110016, Note_on_c, 1, 60, 63
1, 110105, Note_on_c, 0, 68, 0
1, 110105, Note_on_c, 1, 60, 0
1, 110112, Note_on_c, 0, 67, 84
1, 110112, Note_on_c, 1, 58, 63
1, 110125, Note_on_c, 0, 67, 0
1, 110126, Note_on_c, 0, 68, 84
1, 110139, Note_on_c, 0, 68, 0
1, 110140, Note_on_c, 0, 67, 84
1, 110153, Note_on_c, 0, 67, 0
1, 110154, Note_on_c, 0, 68, 84
1, 110167, Note_on_c, 0, 68, 0
1, 110168, Note_on_c, 0, 67, 84
1, 110181, Note_on_c, 0, 67, 0
1, 110182, Note_on_c, 0, 65, 84
1, 110193, Note_on_c, 1, 51, 0
1, 110194, Note_on_c, 0, 65, 0
1, 110195, Note_on_c, 0, 67, 84
1, 110201, Note_on_c, 1, 58, 0
1, 110207, Note_on_c, 0, 67, 0
1, 110208, Note_on_c, 0, 68, 84
1, 110208, Note_on_c, 1, 56, 84
1, 110238, Note_on_c, 0, 68, 0
1, 110238, Note_on_c, 1, 56, 0
1, 110240, Note_on_c, 0, 72, 84
1, 110240, Note_on_c, 1, 60, 84
1, 110270, Note_on_c, 0, 72, 0
1, 110270, Note_on_c, 1, 60, 0
1, 110272, Note_on_c, 0, 70, 84
1, 110272, Note_on_c, 1, 58, 84
1, 110302, Note_on_c, 0, 70, 0
1, 110302, Note_on_c, 1, 58, 0
1, 110304, Note_on_c, 0, 68, 84
1, 110304, Note_on_c, 1, 56, 84
1, 110334, Note_on_c, 0, 68, 0
1, 110334, Note_on_c, 1, 56, 0
1, 110336, Note_on_c, 0, 67, 84
1, 110336, Note_on_c, 1, 55, 84
1, 110366, Note_on_c, 0, 67, 0
1, 110366, Note_on_c, 1, 55, 0
1, 110368, Note_on_c, 0, 65, 84
1, 110368, Note_on_c, 1, 53, 84
1, 110398, Note_on_c, 0, 65, 0
1, 110398, Note_on_c, 1, 53, 0
1, 110400, Note_on_c, 0, 63, 84
1, 110400, Note_on_c, 1, 51, 84
1, 110430, Note_on_c, 0, 63, 0
1, 110430, Note_on_c, 1, 51, 0
1, 110432, Note_on_c, 0, 61, 84
1, 110432, Note_on_c, 1, 49, 84
1, 110462, Note_on_c, 0, 61, 0
1, 110462, Note_on_c, 1, 49, 0
1, 110464, Note_on_c, 0, 60, 84
1, 110464, Note_on_c, 1, 48, 84
1, 110494, Note_on_c, 0, 60, 0
1, 110494, Note_on_c, 1, 48, 0
1, 110496, Note_on_c, 0, 61, 84
1, 110496, Note_on_c, 1, 49, 84
1, 110519, Note_on_c, 0, 61, 0
1, 110519, Note_on_c, 1, 49, 0
1, 110520, Note_on_c, 0, 63, 84
1, 110520, Note_on_c, 1, 51, 84
1, 110543, Note_on_c, 0, 63, 0
1, 110543, Note_on_c, 1, 51, 0
1, 110544, Note_on_c, 0, 65, 84
1, 110544, Note_on_c, 1, 53, 84
1, 110567, Note_on_c, 0, 65, 0
1, 110567, Note_on_c, 1, 53, 0
1, 110568, Note_on_c, 0, 67, 84
1, 110568, Note_on_c, 1, 55, 84
1, 110591, Note_on_c, 0, 67, 0
1, 110591, Note_on_c, 1, 55, 0
1, 110592, Note_on_c, 0, 68, 84
1, 110592, Note_on_c, 1, 56, 84
1, 110622, Note_on_c, 0, 68, 0
1, 110622, Note_on_c, 1, 56, 0
1, 110624, Note_on_c, 0, 72, 84
1, 110624, Note_on_c, 1, 60, 84
1, 110654, Note_on_c, 0, 72, 0
1, 110654, Note_on_c, 1, 60, 0
1, 110656, Note_on_c, 0, 70, 84
1, 110656, Note_on_c, 1, 58, 84
1, 110686, Note_on_c, 0, 70, 0
1, 110686, Note_on_c, 1, 58, 0
1, 110688, Note_on_c, 0, 68, 84
1, 110688, Note_on_c, 1, 56, 84
1, 110718, Note_on_c, 0, 68, 0
1, 110718, Note_on_c, 1, 56, 0
1, 110720, Note_on_c, 0, 67, 84
1, 110720, Note_on_c, 1, 55, 84
1, 110750, Note_on_c, 0, 67, 0
1, 110750, Note_on_c, 1, 55, 0
1, 110752, Note_on_c, 0, 65, 84
1, 110752, Note_on_c, 1, 53, 84
1, 110782, Note_on_c, 0, 65, 0
1, 110782, Note_on_c, 1, 53, 0
1, 110784, Note_on_c, 0, 63, 84
1, 110784, Note_on_c, 1, 51, 84
1, 110814, Note_on_c, 0, 63, 0
1, 110814, Note_on_c, 1, 51, 0
1, 110816, Note_on_c, 0, 61, 84
1, 110816, Note_on_c, 1, 49, 84
1, 110846, Note_on_c, 0, 61, 0
1, 110846, Note_on_c, 1, 49, 0
1, 110848, Note_on_c, 0, 60, 84
1, 110848, Note_on_c, 1, 48, 84
1, 110878, Note_on_c, 0, 60, 0
1, 110878, Note_on_c, 1, 48, 0
1, 110880, Note_on_c, 0, 61, 84
1, 110880, Note_on_c, 1, 49, 84
1, 110903, Note_on_c, 0, 61, 0
1, 110903, Note_on_c, 1, 49, 0
1, 110904, Note_on_c, 0, 63, 84
1, 110904, Note_on_c, 1, 51, 84
1, 110927, Note_on_c, 0, 63, 0
1, 110927, Note_on_c, 1, 51, 0
1, 110928, Note_on_c, 0, 65, 84
1, 110928, Note_on_c, 1, 53, 84
1, 110951, Note_on_c, 0, 65, 0
1, 110951, Note_on_c, 1, 53, 0
1, 110952, Note_on_c, 0, 67, 84
1, 110952, Note_on_c, 1, 55, 84
1, 110975, Note_on_c, 0, 67, 0
1, 110975, Note_on_c, 1, 55, 0
1, 110976, Note_on_c, 0, 68, 84
1, 110976, Note_on_c, 1, 56, 84
1, 111006, Note_on_c, 0, 68, 0
1, 111006, Note_on_c, 1, 56, 0
1, 111008, Note_on_c, 0, 72, 84
1, 111008, Note_on_c, 1, 60, 84
1, 111038, Note_on_c, 0, 72, 0
1, 111038, Note_on_c, 1, 60, 0
1, 111040, Note_on_c, 0, 70, 84
1, 111040, Note_on_c, 1, 58, 84
1, 111070, Note_on_c, 0, 70, 0
1, 111070, Note_on_c, 1, 58, 0
1, 111072, Note_on_c, 0, 68, 84
1, 111072, Note_on_c, 1, 56, 84
1, 111102, Note_on_c, 0, 68, 0
1, 111102, Note_on_c, 1, 56, 0
1, 111104, Note_on_c, 0, 67, 84
1, 111104, Note_on_c, 1, 55, 84
1, 111134, Note_on_c, 0, 67, 0
1, 111134, Note_on_c, 1, 55, 0
1, 111136, Note_on_c, 0, 65, 84
1, 111136, Note_on_c, 1, 53, 84
1, 111166, Note_on_c, 0, 65, 0
1, 111166, Note_on_c, 1, 53, 0
1, 111168, Note_on_c, 0, 63, 84
1, 111168, Note_on_c, 1, 51, 84
1, 111198, Note_on_c, 0, 63, 0
1, 111198, Note_on_c, 1, 51, 0
1, 111200, Note_on_c, 0, 61, 84
1, 111200, Note_on_c, 1, 49, 84
1, 111230, Note_on_c, 0, 61, 0
1, 111230, Note_on_c, 1, 49, 0
1, 111232, Note_on_c, 0, 60, 84
1, 111232, Note_on_c, 1, 48, 84
1, 111262, Note_on_c, 0, 60, 0
1, 111262, Note_on_c, 1, 48, 0
1, 111264, Note_on_c, 0, 68, 84
1, 111264, Note_on_c, 1, 56, 84
1, 111294, Note_on_c, 0, 68, 0
1, 111294, Note_on_c, 1, 56, 0
1, 111296, Note_on_c, 0, 67, 84
1, 111296, Note_on_c, 1, 55, 84
1, 111326, Note_on_c, 0, 67, 0
1, 111326, Note_on_c, 1, 55, 0
1, 111328, Note_on_c, 0, 65, 84
1, 111328, Note_on_c, 1, 53, 84
1, 111358, Note_on_c, 0, 65, 0
1, 111358, Note_on_c, 1, 53, 0
1, 111360, Note_on_c, 0, 63, 84
1, 111360, Note_on_c, 1, 51, 84
1, 111390, Note_on_c, 0, 63, 0
1, 111390, Note_on_c, 1, 51, 0
1, 111392, Note_on_c, 0, 61, 84
1, 111392, Note_on_c, 1, 49, 84
1, 111422, Note_on_c, 0, 61, 0
1, 111422, Note_on_c, 1, 49, 0
1, 111424, Note_on_c, 0, 60, 84
1, 111424, Note_on_c, 1, 48, 84
1, 111454, Note_on_c, 0, 60, 0
1, 111454, Note_on_c, 1, 48, 0
1, 111456, Note_on_c, 0, 68, 84
1, 111456, Note_on_c, 1, 56, 84
1, 111486, Note_on_c, 0, 68, 0
1, 111486, Note_on_c, 1, 56, 0
1, 111488, Note_on_c, 0, 67, 84
1, 111488, Note_on_c, 1, 55, 84
1, 111518, Note_on_c, 0, 67, 0
1, 111518, Note_on_c, 1, 55, 0
1, 111520, Note_on_c, 0, 65, 84
1, 111520, Note_on_c, 1, 53, 84
1, 111550, Note_on_c, 0, 65, 0
1, 111550, Note_on_c, 1, 53, 0
1, 111552, Note_on_c, 0, 63, 84
1, 111552, Note_on_c, 1, 51, 84
1, 111582, Note_on_c, 0, 63, 0
1, 111582, Note_on_c, 1, 51, 0
1, 111584, Note_on_c, 0, 61, 84
1, 111584, Note_on_c, 1, 49, 84
1, 111614, Note_on_c, 0, 61, 0
1, 111614, Note_on_c, 1, 49, 0
1, 111616, Note_on_c, 0, 60, 84
1, 111616, Note_on_c, 1, 48, 84
1, 111646, Note_on_c, 0, 60, 0
1, 111646, Note_on_c, 1, 48, 0
1, 111648, Note_on_c, 0, 68, 84
1, 111648, Note_on_c, 1, 56, 84
1, 111715, Note_on_c, 0, 68, 0
1, 111715, Note_on_c, 1, 56, 0
1, 111720, Note_on_c, 0, 60, 84
1, 111720, Note_on_c, 1, 48, 84
1, 111743, Note_on_c, 0, 60, 0
1, 111743, Note_on_c, 1, 48, 0
1, 111744, Note_on_c, 0, 63, 84
1, 111744, Note_on_c, 1, 51, 84
1, 111757, Note_on_c, 0, 63, 0
1, 111758, Note_on_c, 0, 61, 84
1, 111759, Note_on_c, 1, 51, 0
1, 111760, Note_on_c, 1, 49, 84
1, 111771, Note_on_c, 0, 61, 0
1, 111772, Note_on_c, 0, 63, 84
1, 111775, Note_on_c, 1, 49, 0
1, 111776, Note_on_c, 1, 51, 84
1, 111785, Note_on_c, 0, 63, 0
1, 111786, Note_on_c, 0, 61, 84
1, 111791, Note_on_c, 1, 51, 0
1, 111792, Note_on_c, 1, 49, 84
1, 111799, Note_on_c, 0, 61, 0
1, 111800, Note_on_c, 0, 63, 84
1, 111807, Note_on_c, 1, 49, 0
1, 111808, Note_on_c, 1, 51, 84
1, 111813, Note_on_c, 0, 63, 0
1, 111814, Note_on_c, 0, 61, 84
1, 111823, Note_on_c, 1, 51, 0
1, 111824, Note_on_c, 1, 49, 84
1, 111827, Note_on_c, 0, 61, 0
1, 111828, Note_on_c, 0, 63, 84
1, 111839, Note_on_c, 1, 49, 0
1, 111840, Note_on_c, 1, 51, 84
1, 111841, Note_on_c, 0, 63, 0
1, 111842, Note_on_c, 0, 61, 84
1, 111855, Note_on_c, 0, 61, 0
1, 111855, Note_on_c, 1, 51, 0
1, 111856, Note_on_c, 0, 63, 84
1, 111856, Note_on_c, 1, 49, 84
1, 111869, Note_on_c, 0, 63, 0
1, 111870, Note_on_c, 0, 61, 84
1, 111871, Note_on_c, 1, 49, 0
1, 111872, Note_on_c, 1, 51, 84
1, 111883, Note_on_c, 0, 61, 0
1, 111884, Note_on_c, 0, 63, 84
1, 111887, Note_on_c, 1, 51, 0
1, 111888, Note_on_c, 1, 49, 84
1, 111896, Note_on_c, 0, 63, 0
1, 111897, Note_on_c, 0, 61, 84
1, 111903, Note_on_c, 1, 49, 0
1, 111904, Note_on_c, 1, 48, 84
1, 111909, Note_on_c, 0, 61, 0
1, 111910, Note_on_c, 0, 60, 84
1, 111919, Note_on_c, 1, 48, 0
1, 111920, Note_on_c, 1, 49, 84
1, 111922, Note_on_c, 0, 60, 0
1, 111923, Note_on_c, 0, 61, 84
1, 111935, Note_on_c, 0, 61, 0
1, 111935, Note_on_c, 1, 49, 0
1, 111936, Note_on_c, 0, 63, 84
1, 111936, Note_on_c, 1, 51, 84
1, 112025, Note_on_c, 0, 63, 0
1, 112025, Note_on_c, 1, 51, 0
1, 112032, Note_on_c, 0, 63, 84
1, 112032, Note_on_c, 1, 51, 79
1, 112071, Note_on_c, 0, 63, 0
1, 112121, Note_on_c, 1, 51, 0
1, 112128, Note_on_c, 0, 68, 84
1, 112128, Note_on_c, 1, 56, 75
1, 112158, Note_on_c, 1, 56, 0
1, 112160, Note_on_c, 1, 60, 74
1, 112190, Note_on_c, 1, 60, 0
1, 112192, Note_on_c, 1, 63, 72
1, 112222, Note_on_c, 1, 63, 0
1, 112224, Note_on_c, 1, 56, 71
1, 112254, Note_on_c, 1, 56, 0
1, 112256, Note_on_c, 1, 60, 70
1, 112286, Note_on_c, 1, 60, 0
1, 112288, Note_on_c, 1, 63, 69
1, 112318, Note_on_c, 1, 63, 0
1, 112320, Note_on_c, 1, 56, 67
1, 112350, Note_on_c, 1, 56, 0
1, 112352, Note_on_c, 1, 60, 66
1, 112382, Note_on_c, 1, 60, 0
1, 112384, Note_on_c, 1, 63, 65
1, 112393, Note_on_c, 0, 68, 0
1, 112414, Note_on_c, 1, 63, 0
1, 112416, Note_on_c, 0, 72, 71
1, 112416, Note_on_c, 1, 56, 63
1, 112440, Note_on_c, 0, 72, 0
1, 112440, Note_on_c, 0, 70, 70
1, 112446, Note_on_c, 1, 56, 0
1, 112448, Note_on_c, 1, 61, 63
1, 112478, Note_on_c, 1, 61, 0
1, 112480, Note_on_c, 1, 67, 63
1, 112507, Note_on_c, 0, 70, 0
1, 112510, Note_on_c, 1, 67, 0
1, 112512, Note_on_c, 0, 68, 70
1, 112512, Note_on_c, 1, 56, 63
1, 112542, Note_on_c, 1, 56, 0
1, 112544, Note_on_c, 1, 60, 63
1, 112574, Note_on_c, 1, 60, 0
1, 112576, Note_on_c, 1, 63, 63
1, 112601, Note_on_c, 0, 68, 0
1, 112606, Note_on_c, 1, 63, 0
1, 112608, Note_on_c, 0, 68, 71
1, 112608, Note_on_c, 1, 56, 63
1, 112638, Note_on_c, 1, 56, 0
1, 112640, Note_on_c, 1, 60, 63
1, 112670, Note_on_c, 1, 60, 0
1, 112672, Note_on_c, 1, 63, 63
1, 112697, Note_on_c, 0, 68, 0
1, 112702, Note_on_c, 1, 63, 0
1, 112704, Note_on_c, 0, 68, 73
1, 112704, Note_on_c, 1, 56, 63
1, 112734, Note_on_c, 1, 56, 0
1, 112736, Note_on_c, 1, 60, 63
1, 112766, Note_on_c, 1, 60, 0
1, 112768, Note_on_c, 1, 63, 63
1, 112793, Note_on_c, 0, 68, 0
1, 112798, Note_on_c, 1, 63, 0
1, 112800, Note_on_c, 0, 73, 75
1, 112800, Note_on_c, 1, 56, 63
1, 112824, Note_on_c, 0, 73, 0
1, 112824, Note_on_c, 0, 70, 75
1, 112830, Note_on_c, 1, 56, 0
1, 112832, Note_on_c, 1, 61, 63
1, 112862, Note_on_c, 1, 61, 0
1, 112864, Note_on_c, 1, 67, 63
1, 112891, Note_on_c, 0, 70, 0
1, 112894, Note_on_c, 1, 67, 0
1, 112896, Note_on_c, 0, 75, 77
1, 112896, Note_on_c, 1, 56, 63
1, 112926, Note_on_c, 1, 56, 0
1, 112928, Note_on_c, 1, 60, 63
1, 112958, Note_on_c, 1, 60, 0
1, 112960, Note_on_c, 1, 63, 63
1, 112985, Note_on_c, 0, 75, 0
1, 112990, Note_on_c, 1, 63, 0
1, 112992, Note_on_c, 0, 75, 74
1, 112992, Note_on_c, 1, 56, 63
1, 113022, Note_on_c, 1, 56, 0
1, 113024, Note_on_c, 1, 60, 63
1, 113054, Note_on_c, 1, 60, 0
1, 113056, Note_on_c, 1, 63, 63
1, 113081, Note_on_c, 0, 75, 0
1, 113086, Note_on_c, 1, 63, 0
1, 113088, Note_on_c, 0, 75, 72
1, 113088, Note_on_c, 1, 56, 63
1, 113118, Note_on_c, 1, 56, 0
1, 113120, Note_on_c, 1, 60, 63
1, 113150, Note_on_c, 1, 60, 0
1, 113152, Note_on_c, 1, 63, 63
1, 113177, Note_on_c, 0, 75, 0
1, 113182, Note_on_c, 1, 63, 0
1, 113184, Note_on_c, 0, 73, 70
1, 113184, Note_on_c, 1, 56, 63
1, 113208, Note_on_c, 0, 73, 0
1, 113208, Note_on_c, 0, 70, 70
1, 113214, Note_on_c, 1, 56, 0
1, 113216, Note_on_c, 1, 61, 63
1, 113246, Note_on_c, 1, 61, 0
1, 113248, Note_on_c, 1, 67, 63
1, 113275, Note_on_c, 0, 70, 0
1, 113278, Note_on_c, 1, 67, 0
1, 113280, Note_on_c, 0, 68, 70
1, 113280, Note_on_c, 1, 56, 63
1, 113310, Note_on_c, 1, 56, 0
1, 113312, Note_on_c, 1, 60, 63
1, 113342, Note_on_c, 1, 60, 0
1, 113344, Note_on_c, 1, 63, 63
1, 113374, Note_on_c, 1, 63, 0
1, 113376, Note_on_c, 1, 56, 63
1, 113406, Note_on_c, 1, 56, 0
1, 113408, Note_on_c, 1, 60, 63
1, 113438, Note_on_c, 1, 60, 0
1, 113440, Note_on_c, 1, 63, 63
1, 113470, Note_on_c, 1, 63, 0
1, 113472, Note_on_c, 1, 56, 63
1, 113502, Note_on_c, 1, 56, 0
1, 113504, Note_on_c, 1, 60, 63
1, 113534, Note_on_c, 1, 60, 0
1, 113536, Note_on_c, 1, 63, 63
1, 113545, Note_on_c, 0, 68, 0
1, 113566, Note_on_c, 1, 63, 0
1, 113568, Note_on_c, 0, 72, 70
1, 113568, Note_on_c, 1, 56, 63
1, 113592, Note_on_c, 0, 72, 0
1, 113592, Note_on_c, 0, 70, 70
1, 113598, Note_on_c, 1, 56, 0
1, 113600, Note_on_c, 1, 61, 63
1, 113630, Note_on_c, 1, 61, 0
1, 113632, Note_on_c, 1, 67, 63
1, 113659, Note_on_c, 0, 70, 0
1, 113662, Note_on_c, 1, 67, 0
1, 113664, Note_on_c, 0, 68, 70
1, 113664, Note_on_c, 1, 56, 63
1, 113694, Note_on_c, 1, 56, 0
1, 113696, Note_on_c, 1, 60, 63
1, 113726, Note_on_c, 1, 60, 0
1, 113728, Note_on_c, 1, 63, 63
1, 113753, Note_on_c, 0, 68, 0
1, 113758, Note_on_c, 1, 63, 0
1, 113760, Note_on_c, 0, 68, 71
1, 113760, Note_on_c, 1, 56, 63
1, 113790, Note_on_c, 1, 56, 0
1, 113792, Note_on_c, 1, 60, 63
1, 113822, Note_on_c, 1, 60, 0
1, 113824, Note_on_c, 1, 63, 63
1, 113849, Note_on_c, 0, 68, 0
1, 113854, Note_on_c, 1, 63, 0
1, 113856, Note_on_c, 0, 68, 73
1, 113856, Note_on_c, 1, 56, 63
1, 113886, Note_on_c, 1, 56, 0
1, 113888, Note_on_c, 1, 60, 63
1, 113918, Note_on_c, 1, 60, 0
1, 113920, Note_on_c, 1, 63, 63
1, 113945, Note_on_c, 0, 68, 0
1, 113950, Note_on_c, 1, 63, 0
1, 113952, Note_on_c, 0, 73, 75
1, 113952, Note_on_c, 1, 56, 63
1, 113976, Note_on_c, 0, 73, 0
1, 113976, Note_on_c, 0, 70, 75
1, 113982, Note_on_c, 1, 56, 0
1, 113984, Note_on_c, 1, 61, 63
1, 114014, Note_on_c, 1, 61, 0
1, 114016, Note_on_c, 1, 67, 63
1, 114043, Note_on_c, 0, 70, 0
1, 114046, Note_on_c, 1, 67, 0
1, 114048, Note_on_c, 0, 75, 77
1, 114048, Note_on_c, 1, 56, 63
1, 114078, Note_on_c, 1, 56, 0
1, 114080, Note_on_c, 1, 60, 63
1, 114110, Note_on_c, 1, 60, 0
1, 114112, Note_on_c, 1, 63, 63
1, 114137, Note_on_c, 0, 75, 0
1, 114142, Note_on_c, 1, 63, 0
1, 114144, Note_on_c, 0, 75, 75
1, 114144, Note_on_c, 1, 56, 63
1, 114174, Note_on_c, 1, 56, 0
1, 114176, Note_on_c, 1, 60, 63
1, 114206, Note_on_c, 1, 60, 0
1, 114208, Note_on_c, 1, 63, 63
1, 114233, Note_on_c, 0, 75, 0
1, 114238, Note_on_c, 1, 63, 0
1, 114240, Note_on_c, 0, 75, 73
1, 114240, Note_on_c, 1, 56, 63
1, 114270, Note_on_c, 1, 56, 0
1, 114272, Note_on_c, 1, 60, 63
1, 114302, Note_on_c, 1, 60, 0
1, 114304, Note_on_c, 1, 63, 63
1, 114329, Note_on_c, 0, 75, 0
1, 114334, Note_on_c, 1, 63, 0
1, 114336, Note_on_c, 0, 73, 71
1, 114336, Note_on_c, 1, 56, 63
1, 114360, Note_on_c, 0, 73, 0
1, 114360, Note_on_c, 0, 70, 71
1, 114366, Note_on_c, 1, 56, 0
1, 114368, Note_on_c, 1, 61, 63
1, 114398, Note_on_c, 1, 61, 0
1, 114400, Note_on_c, 1, 67, 63
1, 114427, Note_on_c, 0, 70, 0
1, 114430, Note_on_c, 1, 67, 0
1, 114432, Note_on_c, 0, 68, 70
1, 114432, Note_on_c, 1, 56, 63
1, 114462, Note_on_c, 1, 56, 0
1, 114464, Note_on_c, 1, 60, 63
1, 114494, Note_on_c, 1, 60, 0
1, 114496, Note_on_c, 1, 63, 63
1, 114526, Note_on_c, 1, 63, 0
1, 114528, Note_on_c, 1, 56, 63
1, 114558, Note_on_c, 1, 56, 0
1, 114560, Note_on_c, 1, 60, 63
1, 114590, Note_on_c, 1, 60, 0
1, 114592, Note_on_c, 1, 63, 63
1, 114622, Note_on_c, 1, 63, 0
1, 114624, Note_on_c, 1, 56, 63
1, 114654, Note_on_c, 1, 56, 0
1, 114656, Note_on_c, 1, 60, 63
1, 114686, Note_on_c, 1, 60, 0
1, 114688, Note_on_c, 1, 63, 63
1, 114697, Note_on_c, 0, 68, 0
1, 114718, Note_on_c, 1, 63, 0
1, 114720, Note_on_c, 0, 72, 70
1, 114720, Note_on_c, 1, 56, 63
1, 114744, Note_on_c, 0, 72, 0
1, 114744, Note_on_c, 0, 70, 70
1, 114750, Note_on_c, 1, 56, 0
1, 114752, Note_on_c, 1, 61, 63
1, 114782, Note_on_c, 1, 61, 0
1, 114784, Note_on_c, 1, 67, 63
1, 114811, Note_on_c, 0, 70, 0
1, 114814, Note_on_c, 1, 67, 0
1, 114816, Note_on_c, 0, 68, 70
1, 114816, Note_on_c, 1, 60, 63
1, 114816, Note_on_c, 1, 56, 63
1, 114905, Note_on_c, 0, 68, 0
1, 114905, Note_on_c, 1, 60, 0
1, 114905, Note_on_c, 1, 56, 0
1, 114912, Note_on_c, 0, 75, 56
1, 114912, Note_on_c, 0, 72, 56
1, 115001, Note_on_c, 0, 75, 0
1, 115001, Note_on_c, 0, 72, 0
1, 115008, Note_on_c, 0, 75, 56
1, 115008, Note_on_c, 0, 72, 56
1, 115097, Note_on_c, 0, 75, 0
1, 115097, Note_on_c, 0, 72, 0
1, 115104, Note_on_c, 1, 48, 56
1, 115104, Note_on_c, 1, 44, 56
1, 115193, Note_on_c, 1, 48, 0
1, 115193, Note_on_c, 1, 44, 0
1, 115200, Note_on_c, 1, 48, 56
1, 115200, Note_on_c, 1, 44, 56
1, 115333, Note_on_c, 1, 48, 0
1, 115333, Note_on_c, 1, 44, 0
1, 115488, Note_on_c, 1, 48, 4
1, 115488, Note_on_c, 1, 44, 4
1, 115577, Note_on_c, 1, 48, 0
1, 115577, Note_on_c, 1, 44, 0
1, 115587, End_track
0, 0, End_of_file