0, 0, Header, 0, 1, 96
1, 0, Start_track
1, 0, Tempo, 500000
1, 144, Tempo, 545454
1, 144, Note_on_c, 0, 57, 75
1, 156, Note_on_c, 0, 57, 0
1, 156, Note_on_c, 0, 62, 75
1, 168, Note_on_c, 0, 62, 0
1, 168, Note_on_c, 0, 66, 75
1, 180, Note_on_c, 0, 66, 0
1, 180, Note_on_c, 0, 69, 75
1, 192, Note_on_c, 0, 69, 0
1, 192, Note_on_c, 0, 66, 76
1, 192, Note_on_c, 1, 50, 75
1, 192, Note_on_c, 1, 38, 75
1, 240, Note_on_c, 0, 66, 0
1, 240, Note_on_c, 0, 62, 80
1, 281, Note_on_c, 1, 50, 0
1, 281, Note_on_c, 1, 38, 0
1, 285, Note_on_c, 0, 62, 0
1, 288, Note_on_c, 0, 74, 84
1, 308, Note_on_c, 0, 74, 0
1, 336, Note_on_c, 0, 69, 81
1, 336, Note_on_c, 1, 66, 75
1, 336, Note_on_c, 1, 62, 75
1, 356, Note_on_c, 0, 69, 0
1, 356, Note_on_c, 1, 66, 0
1, 356, Note_on_c, 1, 62, 0
1, 384, Note_on_c, 0, 71, 79
1, 384, Note_on_c, 1, 67, 75
1, 384, Note_on_c, 1, 62, 75
1, 396, Note_on_c, 0, 71, 0
1, 396, Note_on_c, 0, 73, 79
1, 404, Note_on_c, 1, 67, 0
1, 404, Note_on_c, 1, 62, 0
1, 408, Note_on_c, 0, 73, 0
1, 408, Note_on_c, 0, 71, 79
1, 429, Note_on_c, 0, 71, 0
1, 432, Note_on_c, 0, 69, 77
1, 432, Note_on_c, 1, 66, 75
1, 432, Note_on_c, 1, 62, 75
1, 452, Note_on_c, 1, 66, 0
1, 452, Note_on_c, 1, 62, 0
1, 477, Note_on_c, 0, 69, 0
1, 528, Note_on_c, 0, 57, 75
1, 540, Note_on_c, 0, 57, 0
1, 540, Note_on_c, 0, 62, 75
1, 552, Note_on_c, 0, 62, 0
1, 552, Note_on_c, 0, 66, 76
1, 564, Note_on_c, 0, 66, 0
1, 564, Note_on_c, 0, 69, 77
1, 576, Note_on_c, 0, 69, 0
1, 576, Note_on_c, 0, 66, 78
1, 576, Note_on_c, 1, 50, 75
1, 576, Note_on_c, 1, 38, 75
1, 624, Note_on_c, 0, 66, 0
1, 624, Note_on_c, 0, 62, 84
1, 665, Note_on_c, 1, 50, 0
1, 665, Note_on_c, 1, 38, 0
1, 669, Note_on_c, 0, 62, 0
1, 672, Note_on_c, 0, 81, 82
1, 672, Note_on_c, 0, 78, 82
1, 692, Note_on_c, 0, 81, 0
1, 692, Note_on_c, 0, 78, 0
1, 720, Note_on_c, 0, 78, 80
1, 720, Note_on_c, 0, 74, 80
1, 720, Note_on_c, 1, 62, 75
1, 740, Note_on_c, 0, 78, 0
1, 740, Note_on_c, 0, 74, 0
1, 740, Note_on_c, 1, 62, 0
1, 768, Note_on_c, 0, 79, 78
1, 768, Note_on_c, 0, 76, 75
1, 768, Note_on_c, 1, 57, 75
1, 780, Note_on_c, 0, 79, 0
1, 780, Note_on_c, 0, 81, 78
1, 788, Note_on_c, 1, 57, 0
1, 792, Note_on_c, 0, 81, 0
1, 792, Note_on_c, 0, 79, 78
1, 813, Note_on_c, 0, 79, 0
1, 813, Note_on_c, 0, 76, 0
1, 816, Note_on_c, 0, 78, 76
1, 816, Note_on_c, 0, 74, 75
1, 816, Note_on_c, 1, 62, 75
1, 836, Note_on_c, 1, 62, 0
1, 861, Note_on_c, 0, 78, 0
1, 861, Note_on_c, 0, 74, 0
1, 912, Note_on_c, 0, 74, 75
1, 924, Note_on_c, 0, 74, 0
1, 924, Note_on_c, 0, 78, 75
1, 936, Note_on_c, 0, 78, 0
1, 936, Note_on_c, 0, 81, 75
1, 948, Note_on_c, 0, 81, 0
1, 948, Note_on_c, 0, 86, 75
1, 960, Note_on_c, 0, 86, 0
1, 960, Note_on_c, 0, 72, 75
1, 1008, Note_on_c, 1, 62, 75
1, 1008, Note_on_c, 1, 54, 75
1, 1028, Note_on_c, 1, 62, 0
1, 1028, Note_on_c, 1, 54, 0
1, 1056, Note_on_c, 1, 62, 75
1, 1056, Note_on_c, 1, 54, 75
1, 1076, Note_on_c, 1, 62, 0
1, 1076, Note_on_c, 1, 54, 0
1, 1100, Note_on_c, 0, 72, 0
1, 1104, Note_on_c, 0, 84, 75
1, 1116, Note_on_c, 0, 84, 0
1, 1116, Note_on_c, 0, 81, 75
1, 1128, Note_on_c, 0, 81, 0
1, 1128, Note_on_c, 0, 78, 75
1, 1140, Note_on_c, 0, 78, 0
1, 1140, Note_on_c, 0, 72, 75
1, 1152, Note_on_c, 0, 72, 0
1, 1152, Note_on_c, 0, 71, 75
1, 1200, Note_on_c, 1, 62, 69
1, 1200, Note_on_c, 1, 55, 69
1, 1220, Note_on_c, 1, 62, 0
1, 1220, Note_on_c, 1, 55, 0
1, 1248, Note_on_c, 1, 62, 69
1, 1248, Note_on_c, 1, 55, 69
1, 1268, Note_on_c, 1, 62, 0
1, 1268, Note_on_c, 1, 55, 0
1, 1292, Note_on_c, 0, 71, 0
1, 1296, Note_on_c, 0, 71, 75
1, 1308, Note_on_c, 0, 71, 0
1, 1308, Note_on_c, 0, 74, 75
1, 1320, Note_on_c, 0, 74, 0
1, 1320, Note_on_c, 0, 79, 75
1, 1332, Note_on_c, 0, 79, 0
1, 1332, Note_on_c, 0, 83, 75
1, 1344, Note_on_c, 0, 83, 0
1, 1344, Note_on_c, 0, 81, 75
1, 1344, Note_on_c, 0, 78, 75
1, 1344, Note_on_c, 1, 57, 75
1, 1364, Note_on_c, 0, 81, 0
1, 1364, Note_on_c, 0, 78, 0
1, 1392, Note_on_c, 0, 78, 75
1, 1392, Note_on_c, 0, 74, 75
1, 1412, Note_on_c, 0, 78, 0
1, 1412, Note_on_c, 0, 74, 0
1, 1433, Note_on_c, 1, 57, 0
1, 1440, Note_on_c, 0, 79, 75
1, 1440, Note_on_c, 0, 76, 75
1, 1440, Note_on_c, 1, 45, 75
1, 1460, Note_on_c, 0, 79, 0
1, 1460, Note_on_c, 0, 76, 0
1, 1488, Note_on_c, 0, 76, 75
1, 1488, Note_on_c, 0, 73, 75
1, 1508, Note_on_c, 0, 76, 0
1, 1508, Note_on_c, 0, 73, 0
1, 1529, Note_on_c, 1, 45, 0
1, 1536, Note_on_c, 0, 76, 75
1, 1536, Note_on_c, 0, 73, 75
1, 1536, Note_on_c, 1, 50, 75
1, 1625, Note_on_c, 1, 50, 0
1, 1632, Note_on_c, 0, 76, 0
1, 1632, Note_on_c, 0, 73, 0
1, 1632, Note_on_c, 0, 78, 75
1, 1632, Note_on_c, 0, 74, 75
1, 1632, Note_on_c, 1, 38, 75
1, 1677, Note_on_c, 0, 78, 0
1, 1677, Note_on_c, 0, 74, 0
1, 1677, Note_on_c, 1, 38, 0
1, 1680, Note_on_c, 0, 74, 75
1, 1692, Note_on_c, 0, 74, 0
1, 1692, Note_on_c, 0, 78, 75
1, 1704, Note_on_c, 0, 78, 0
1, 1704, Note_on_c, 0, 81, 75
1, 1716, Note_on_c, 0, 81, 0
1, 1716, Note_on_c, 0, 86, 75
1, 1728, Note_on_c, 0, 86, 0
1, 1728, Note_on_c, 0, 72, 75
1, 1776, Note_on_c, 1, 62, 69
1, 1776, Note_on_c, 1, 54, 69
1, 1796, Note_on_c, 1, 62, 0
1, 1796, Note_on_c, 1, 54, 0
1, 1824, Note_on_c, 1, 62, 69
1, 1824, Note_on_c, 1, 54, 69
1, 1844, Note_on_c, 1, 62, 0
1, 1844, Note_on_c, 1, 54, 0
1, 1868, Note_on_c, 0, 72, 0
1, 1872, Note_on_c, 0, 84, 75
1, 1884, Note_on_c, 0, 84, 0
1, 1884, Note_on_c, 0, 81, 75
1, 1896, Note_on_c, 0, 81, 0
1, 1896, Note_on_c, 0, 78, 75
1, 1908, Note_on_c, 0, 78, 0
1, 1908, Note_on_c, 0, 72, 75
1, 1920, Note_on_c, 0, 72, 0
1, 1920, Note_on_c, 0, 71, 75
1, 1968, Note_on_c, 1, 62, 69
1, 1968, Note_on_c, 1, 55, 69
1, 1988, Note_on_c, 1, 62, 0
1, 1988, Note_on_c, 1, 55, 0
1, 2016, Note_on_c, 1, 62, 69
1, 2016, Note_on_c, 1, 55, 69
1, 2036, Note_on_c, 1, 62, 0
1, 2036, Note_on_c, 1, 55, 0
1, 2060, Note_on_c, 0, 71, 0
1, 2064, Note_on_c, 0, 83, 75
1, 2079, Note_on_c, 0, 83, 0
1, 2080, Note_on_c, 0, 85, 75
1, 2095, Note_on_c, 0, 85, 0
1, 2096, Note_on_c, 0, 86, 75
1, 2111, Note_on_c, 0, 86, 0
1, 2112, Note_on_c, 0, 85, 91
1, 2112, Note_on_c, 1, 57, 75
1, 2128, Note_on_c, 0, 85, 0
1, 2128, Note_on_c, 0, 83, 75
1, 2143, Note_on_c, 0, 83, 0
1, 2144, Note_on_c, 0, 81, 75
1, 2157, Note_on_c, 1, 57, 0
1, 2159, Note_on_c, 0, 81, 0
1, 2160, Note_on_c, 0, 79, 75
1, 2175, Note_on_c, 0, 79, 0
1, 2176, Note_on_c, 0, 78, 75
1, 2191, Note_on_c, 0, 78, 0
1, 2192, Note_on_c, 0, 76, 75
1, 2207, Note_on_c, 0, 76, 0
1, 2208, Note_on_c, 0, 74, 75
1, 2208, Note_on_c, 1, 45, 75
1, 2223, Note_on_c, 0, 74, 0
1, 2224, Note_on_c, 0, 73, 75
1, 2239, Note_on_c, 0, 73, 0
1, 2240, Note_on_c, 0, 71, 75
1, 2253, Note_on_c, 1, 45, 0
1, 2255, Note_on_c, 0, 71, 0
1, 2256, Note_on_c, 0, 69, 75
1, 2268, Note_on_c, 0, 69, 0
1, 2268, Note_on_c, 0, 67, 75
1, 2280, Note_on_c, 0, 67, 0
1, 2280, Note_on_c, 0, 66, 75
1, 2292, Note_on_c, 0, 66, 0
1, 2292, Note_on_c, 0, 64, 75
1, 2304, Note_on_c, 0, 64, 0
1, 2304, Note_on_c, 0, 62, 91
1, 2304, Note_on_c, 1, 38, 75
1, 2393, Note_on_c, 1, 38, 0
1, 2400, Note_on_c, 0, 62, 0
1, 2448, Note_on_c, 0, 57, 77
1, 2496, Note_on_c, 0, 57, 0
1, 2496, Note_on_c, 0, 62, 63
1, 2520, Note_on_c, 0, 62, 0
1, 2520, Note_on_c, 0, 61, 65
1, 2543, Note_on_c, 0, 61, 0
1, 2544, Note_on_c, 0, 64, 66
1, 2568, Note_on_c, 0, 64, 0
1, 2568, Note_on_c, 0, 62, 68
1, 2591, Note_on_c, 0, 62, 0
1, 2592, Note_on_c, 0, 66, 69
1, 2616, Note_on_c, 0, 66, 0
1, 2616, Note_on_c, 0, 64, 70
1, 2639, Note_on_c, 0, 64, 0
1, 2640, Note_on_c, 0, 67, 72
1, 2664, Note_on_c, 0, 67, 0
1, 2664, Note_on_c, 0, 66, 73
1, 2687, Note_on_c, 0, 66, 0
1, 2688, Note_on_c, 0, 66, 75
1, 2688, Note_on_c, 0, 62, 75
1, 2736, Note_on_c, 1, 56, 75
1, 2784, Note_on_c, 0, 66, 0
1, 2784, Note_on_c, 0, 62, 0
1, 2784, Note_on_c, 0, 64, 75
1, 2784, Note_on_c, 0, 61, 75
1, 2784, Note_on_c, 1, 56, 0
1, 2784, Note_on_c, 1, 57, 75
1, 2829, Note_on_c, 0, 64, 0
1, 2829, Note_on_c, 0, 61, 0
1, 2829, Note_on_c, 1, 57, 0
1, 2832, Note_on_c, 0, 57, 85
1, 2880, Note_on_c, 0, 57, 0
1, 2880, Note_on_c, 0, 64, 70
1, 2904, Note_on_c, 0, 64, 0
1, 2904, Note_on_c, 0, 63, 70
1, 2927, Note_on_c, 0, 63, 0
1, 2928, Note_on_c, 0, 66, 71
1, 2952, Note_on_c, 0, 66, 0
1, 2952, Note_on_c, 0, 64, 72
1, 2975, Note_on_c, 0, 64, 0
1, 2976, Note_on_c, 0, 67, 72
1, 3000, Note_on_c, 0, 67, 0
1, 3000, Note_on_c, 0, 66, 73
1, 3023, Note_on_c, 0, 66, 0
1, 3024, Note_on_c, 0, 69, 73
1, 3048, Note_on_c, 0, 69, 0
1, 3048, Note_on_c, 0, 67, 74
1, 3071, Note_on_c, 0, 67, 0
1, 3072, Note_on_c, 0, 67, 75
1, 3072, Note_on_c, 0, 64, 75
1, 3120, Note_on_c, 1, 49, 75
1, 3168, Note_on_c, 0, 67, 0
1, 3168, Note_on_c, 0, 64, 0
1, 3168, Note_on_c, 0, 66, 75
1, 3168, Note_on_c, 0, 62, 75
1, 3168, Note_on_c, 1, 49, 0
1, 3168, Note_on_c, 1, 50, 75
1, 3213, Note_on_c, 0, 66, 0
1, 3213, Note_on_c, 0, 62, 0
1, 3213, Note_on_c, 1, 50, 0
1, 3216, Note_on_c, 0, 62, 85
1, 3264, Note_on_c, 0, 62, 0
1, 3264, Note_on_c, 0, 67, 70
1, 3288, Note_on_c, 0, 67, 0
1, 3288, Note_on_c, 0, 66, 70
1, 3311, Note_on_c, 0, 66, 0
1, 3312, Note_on_c, 0, 69, 71
1, 3336, Note_on_c, 0, 69, 0
1, 3336, Note_on_c, 0, 67, 72
1, 3359, Note_on_c, 0, 67, 0
1, 3360, Note_on_c, 0, 71, 72
1, 3384, Note_on_c, 0, 71, 0
1, 3384, Note_on_c, 0, 69, 73
1, 3407, Note_on_c, 0, 69, 0
1, 3408, Note_on_c, 0, 74, 73
1, 3432, Note_on_c, 0, 74, 0
1, 3432, Note_on_c, 0, 73, 74
1, 3455, Note_on_c, 0, 73, 0
1, 3456, Note_on_c, 0, 71, 75
1, 3456, Note_on_c, 1, 55, 61
1, 3476, Note_on_c, 0, 71, 0
1, 3479, Note_on_c, 1, 55, 0
1, 3480, Note_on_c, 1, 62, 61
1, 3503, Note_on_c, 1, 62, 0
1, 3504, Note_on_c, 0, 71, 75
1, 3504, Note_on_c, 1, 55, 61
1, 3527, Note_on_c, 1, 55, 0
1, 3528, Note_on_c, 0, 71, 0
1, 3528, Note_on_c, 0, 74, 75
1, 3528, Note_on_c, 1, 62, 61
1, 3551, Note_on_c, 0, 74, 0
1, 3551, Note_on_c, 1, 62, 0
1, 3552, Note_on_c, 0, 69, 75
1, 3552, Note_on_c, 1, 54, 61
1, 3572, Note_on_c, 0, 69, 0
1, 3575, Note_on_c, 1, 54, 0
1, 3576, Note_on_c, 1, 62, 61
1, 3599, Note_on_c, 1, 62, 0
1, 3600, Note_on_c, 1, 54, 61
1, 3623, Note_on_c, 1, 54, 0
1, 3624, Note_on_c, 1, 62, 61
1, 3647, Note_on_c, 1, 62, 0
1, 3648, Note_on_c, 0, 69, 75
1, 3648, Note_on_c, 1, 59, 61
1, 3654, Note_on_c, 0, 69, 0
1, 3654, Note_on_c, 0, 67, 75
1, 3660, Note_on_c, 0, 67, 0
1, 3660, Note_on_c, 0, 66, 75
1, 3666, Note_on_c, 0, 66, 0
1, 3666, Note_on_c, 0, 67, 75
1, 3671, Note_on_c, 1, 59, 0
1, 3672, Note_on_c, 1, 62, 61
1, 3693, Note_on_c, 0, 67, 0
1, 3695, Note_on_c, 1, 62, 0
1, 3696, Note_on_c, 0, 67, 75
1, 3696, Note_on_c, 1, 59, 61
1, 3719, Note_on_c, 1, 59, 0
1, 3720, Note_on_c, 0, 67, 0
1, 3720, Note_on_c, 0, 71, 75
1, 3720, Note_on_c, 1, 62, 61
1, 3743, Note_on_c, 0, 71, 0
1, 3743, Note_on_c, 1, 62, 0
1, 3744, Note_on_c, 0, 66, 75
1, 3744, Note_on_c, 1, 57, 61
1, 3764, Note_on_c, 0, 66, 0
1, 3767, Note_on_c, 1, 57, 0
1, 3768, Note_on_c, 1, 62, 61
1, 3791, Note_on_c, 1, 62, 0
1, 3792, Note_on_c, 1, 57, 61
1, 3815, Note_on_c, 1, 57, 0
1, 3816, Note_on_c, 1, 62, 61
1, 3839, Note_on_c, 1, 62, 0
1, 3840, Note_on_c, 0, 73, 75
1, 3840, Note_on_c, 1, 55, 61
1, 3846, Note_on_c, 0, 73, 0
1, 3846, Note_on_c, 0, 71, 75
1, 3852, Note_on_c, 0, 71, 0
1, 3852, Note_on_c, 0, 69, 75
1, 3858, Note_on_c, 0, 69, 0
1, 3858, Note_on_c, 0, 71, 75
1, 3863, Note_on_c, 1, 55, 0
1, 3864, Note_on_c, 1, 62, 61
1, 3885, Note_on_c, 0, 71, 0
1, 3887, Note_on_c, 1, 62, 0
1, 3888, Note_on_c, 0, 71, 75
1, 3888, Note_on_c, 1, 55, 61
1, 3911, Note_on_c, 1, 55, 0
1, 3912, Note_on_c, 0, 71, 0
1, 3912, Note_on_c, 0, 74, 75
1, 3912, Note_on_c, 1, 62, 61
1, 3935, Note_on_c, 0, 74, 0
1, 3935, Note_on_c, 1, 62, 0
1, 3936, Note_on_c, 0, 69, 75
1, 3936, Note_on_c, 1, 54, 61
1, 3956, Note_on_c, 0, 69, 0
1, 3959, Note_on_c, 1, 54, 0
1, 3960, Note_on_c, 1, 62, 61
1, 3983, Note_on_c, 1, 62, 0
1, 3984, Note_on_c, 1, 54, 61
1, 4007, Note_on_c, 1, 54, 0
1, 4008, Note_on_c, 1, 62, 61
1, 4031, Note_on_c, 1, 62, 0
1, 4032, Note_on_c, 0, 69, 75
1, 4032, Note_on_c, 1, 59, 61
1, 4038, Note_on_c, 0, 69, 0
1, 4038, Note_on_c, 0, 67, 75
1, 4044, Note_on_c, 0, 67, 0
1, 4044, Note_on_c, 0, 66, 75
1, 4050, Note_on_c, 0, 66, 0
1, 4050, Note_on_c, 0, 67, 75
1, 4055, Note_on_c, 1, 59, 0
1, 4056, Note_on_c, 1, 62, 61
1, 4077, Note_on_c, 0, 67, 0
1, 4079, Note_on_c, 1, 62, 0
1, 4080, Note_on_c, 0, 67, 75
1, 4080, Note_on_c, 1, 59, 61
1, 4103, Note_on_c, 1, 59, 0
1, 4104, Note_on_c, 0, 67, 0
1, 4104, Note_on_c, 0, 71, 75
1, 4104, Note_on_c, 1, 62, 61
1, 4127, Note_on_c, 0, 71, 0
1, 4127, Note_on_c, 1, 62, 0
1, 4128, Note_on_c, 0, 66, 75
1, 4128, Note_on_c, 1, 57, 61
1, 4148, Note_on_c, 0, 66, 0
1, 4151, Note_on_c, 1, 57, 0
1, 4152, Note_on_c, 1, 62, 61
1, 4175, Note_on_c, 1, 62, 0
1, 4176, Note_on_c, 1, 57, 61
1, 4199, Note_on_c, 1, 57, 0
1, 4200, Note_on_c, 1, 62, 61
1, 4223, Note_on_c, 1, 62, 0
1, 4224, Note_on_c, 0, 63, 75
1, 4224, Note_on_c, 1, 55, 75
1, 4247, Note_on_c, 0, 63, 0
1, 4248, Note_on_c, 0, 64, 77
1, 4271, Note_on_c, 0, 64, 0
1, 4272, Note_on_c, 0, 66, 79
1, 4295, Note_on_c, 0, 66, 0
1, 4296, Note_on_c, 0, 67, 81
1, 4313, Note_on_c, 1, 55, 0
1, 4319, Note_on_c, 0, 67, 0
1, 4320, Note_on_c, 0, 69, 84
1, 4343, Note_on_c, 0, 69, 0
1, 4344, Note_on_c, 0, 71, 81
1, 4367, Note_on_c, 0, 71, 0
1, 4368, Note_on_c, 0, 67, 79
1, 4368, Note_on_c, 1, 55, 75
1, 4368, Note_on_c, 1, 43, 75
1, 4391, Note_on_c, 0, 67, 0
1, 4392, Note_on_c, 0, 64, 77
1, 4413, Note_on_c, 1, 55, 0
1, 4413, Note_on_c, 1, 43, 0
1, 4415, Note_on_c, 0, 64, 0
1, 4416, Note_on_c, 0, 62, 75
1, 4416, Note_on_c, 1, 54, 75
1, 4416, Note_on_c, 1, 45, 75
1, 4608, Note_on_c, 0, 62, 0
1, 4608, Note_on_c, 0, 61, 63
1, 4608, Note_on_c, 1, 54, 0
1, 4608, Note_on_c, 1, 52, 63
1, 4628, Note_on_c, 0, 61, 0
1, 4653, Note_on_c, 1, 52, 0
1, 4653, Note_on_c, 1, 45, 0
1, 4656, Tempo, 750000
1, 4704, Tempo, 545454
1, 4752, Note_on_c, 0, 64, 84
1, 4764, Note_on_c, 0, 64, 0
1, 4764, Note_on_c, 0, 69, 84
1, 4776, Note_on_c, 0, 69, 0
1, 4776, Note_on_c, 0, 73, 84
1, 4788, Note_on_c, 0, 73, 0
1, 4788, Note_on_c, 0, 76, 84
1, 4800, Note_on_c, 0, 76, 0
1, 4800, Note_on_c, 0, 73, 84
1, 4800, Note_on_c, 1, 57, 84
1, 4800, Note_on_c, 1, 52, 84
1, 4800, Note_on_c, 1, 49, 84
1, 4800, Note_on_c, 1, 45, 84
1, 4845, Note_on_c, 0, 73, 0
1, 4845, Note_on_c, 1, 57, 0
1, 4845, Note_on_c, 1, 52, 0
1, 4845, Note_on_c, 1, 49, 0
1, 4845, Note_on_c, 1, 45, 0
1, 4848, Note_on_c, 0, 69, 84
1, 4860, Note_on_c, 0, 69, 0
1, 4860, Note_on_c, 0, 73, 84
1, 4872, Note_on_c, 0, 73, 0
1, 4872, Note_on_c, 0, 76, 84
1, 4884, Note_on_c, 0, 76, 0
1, 4884, Note_on_c, 0, 81, 84
1, 4896, Note_on_c, 0, 81, 0
1, 4896, Note_on_c, 0, 76, 84
1, 4896, Note_on_c, 1, 57, 84
1, 4896, Note_on_c, 1, 52, 84
1, 4896, Note_on_c, 1, 49, 84
1, 4896, Note_on_c, 1, 45, 84
1, 4941, Note_on_c, 0, 76, 0
1, 4941, Note_on_c, 1, 57, 0
1, 4941, Note_on_c, 1, 52, 0
1, 4941, Note_on_c, 1, 49, 0
1, 4941, Note_on_c, 1, 45, 0
1, 4944, Note_on_c, 0, 76, 84
1, 4956, Note_on_c, 0, 76, 0
1, 4956, Note_on_c, 0, 81, 84
1, 4968, Note_on_c, 0, 81, 0
1, 4968, Note_on_c, 0, 85, 84
1, 4980, Note_on_c, 0, 85, 0
1, 4980, Note_on_c, 0, 88, 84
1, 4992, Note_on_c, 0, 88, 0
1, 4992, Note_on_c, 0, 85, 84
1, 4992, Note_on_c, 1, 57, 84
1, 4992, Note_on_c, 1, 52, 84
1, 4992, Note_on_c, 1, 49, 84
1, 4992, Note_on_c, 1, 45, 84
1, 5037, Note_on_c, 0, 85, 0
1, 5037, Note_on_c, 1, 57, 0
1, 5037, Note_on_c, 1, 52, 0
1, 5037, Note_on_c, 1, 49, 0
1, 5037, Note_on_c, 1, 45, 0
1, 5136, Note_on_c, 0, 69, 75
1, 5148, Note_on_c, 0, 69, 0
1, 5148, Note_on_c, 0, 64, 75
1, 5160, Note_on_c, 0, 64, 0
1, 5160, Note_on_c, 0, 61, 75
1, 5172, Note_on_c, 0, 61, 0
1, 5172, Note_on_c, 0, 57, 75
1, 5184, Note_on_c, 0, 57, 0
1, 5184, Note_on_c, 0, 55, 75
1, 5184, Note_on_c, 1, 45, 75
1, 5207, Note_on_c, 1, 45, 0
1, 5208, Note_on_c, 1, 52, 75
1, 5231, Note_on_c, 1, 52, 0
1, 5232, Note_on_c, 1, 50, 75
1, 5255, Note_on_c, 1, 50, 0
1, 5256, Note_on_c, 1, 52, 75
1, 5279, Note_on_c, 1, 52, 0
1, 5280, Note_on_c, 1, 49, 75
1, 5303, Note_on_c, 1, 49, 0
1, 5304, Note_on_c, 1, 52, 75
1, 5327, Note_on_c, 1, 52, 0
1, 5328, Note_on_c, 1, 45, 75
1, 5351, Note_on_c, 1, 45, 0
1, 5352, Note_on_c, 1, 49, 75
1, 5361, Note_on_c, 0, 55, 0
1, 5375, Note_on_c, 1, 49, 0
1, 5376, Note_on_c, 0, 54, 75
1, 5376, Note_on_c, 1, 50, 75
1, 5399, Note_on_c, 0, 54, 0
1, 5400, Note_on_c, 0, 59, 75
1, 5423, Note_on_c, 0, 59, 0
1, 5424, Note_on_c, 0, 58, 75
1, 5447, Note_on_c, 0, 58, 0
1, 5448, Note_on_c, 0, 59, 75
1, 5465, Note_on_c, 1, 50, 0
1, 5471, Note_on_c, 0, 59, 0
1, 5472, Note_on_c, 0, 61, 75
1, 5495, Note_on_c, 0, 61, 0
1, 5496, Note_on_c, 0, 59, 75
1, 5519, Note_on_c, 0, 59, 0
1, 5520, Note_on_c, 0, 58, 75
1, 5543, Note_on_c, 0, 58, 0
1, 5544, Note_on_c, 0, 59, 75
1, 5567, Note_on_c, 0, 59, 0
1, 5568, Note_on_c, 0, 57, 75
1, 5568, Note_on_c, 1, 51, 75
1, 5591, Note_on_c, 1, 51, 0
1, 5592, Note_on_c, 1, 54, 75
1, 5615, Note_on_c, 1, 54, 0
1, 5616, Note_on_c, 1, 52, 75
1, 5639, Note_on_c, 1, 52, 0
1, 5640, Note_on_c, 1, 54, 75
1, 5663, Note_on_c, 1, 54, 0
1, 5664, Note_on_c, 1, 51, 75
1, 5687, Note_on_c, 1, 51, 0
1, 5688, Note_on_c, 1, 54, 75
1, 5711, Note_on_c, 1, 54, 0
1, 5712, Note_on_c, 1, 47, 75
1, 5735, Note_on_c, 1, 47, 0
1, 5736, Note_on_c, 1, 51, 75
1, 5745, Note_on_c, 0, 57, 0
1, 5759, Note_on_c, 1, 51, 0
1, 5760, Note_on_c, 0, 56, 75
1, 5760, Note_on_c, 1, 52, 75
1, 5783, Note_on_c, 0, 56, 0
1, 5784, Note_on_c, 0, 64, 75
1, 5807, Note_on_c, 0, 64, 0
1, 5808, Note_on_c, 0, 63, 75
1, 5831, Note_on_c, 0, 63, 0
1, 5832, Note_on_c, 0, 64, 75
1, 5849, Note_on_c, 1, 52, 0
1, 5855, Note_on_c, 0, 64, 0
1, 5856, Note_on_c, 0, 66, 75
1, 5879, Note_on_c, 0, 66, 0
1, 5880, Note_on_c, 0, 64, 75
1, 5903, Note_on_c, 0, 64, 0
1, 5904, Note_on_c, 0, 63, 75
1, 5927, Note_on_c, 0, 63, 0
1, 5928, Note_on_c, 0, 64, 75
1, 5951, Note_on_c, 0, 64, 0
1, 5952, Note_on_c, 0, 63, 75
1, 5952, Note_on_c, 1, 54, 61
1, 5975, Note_on_c, 1, 54, 0
1, 5976, Note_on_c, 1, 60, 61
1, 5999, Note_on_c, 1, 60, 0
1, 6000, Note_on_c, 0, 63, 0
1, 6000, Note_on_c, 0, 69, 75
1, 6000, Note_on_c, 1, 54, 61
1, 6023, Note_on_c, 1, 54, 0
1, 6024, Note_on_c, 1, 60, 61
1, 6045, Note_on_c, 0, 69, 0
1, 6047, Note_on_c, 1, 60, 0
1, 6048, Note_on_c, 1, 54, 61
1, 6071, Note_on_c, 1, 54, 0
1, 6072, Note_on_c, 1, 60, 61
1, 6095, Note_on_c, 1, 60, 0
1, 6096, Note_on_c, 0, 63, 75
1, 6096, Note_on_c, 1, 54, 61
1, 6119, Note_on_c, 1, 54, 0
1, 6120, Note_on_c, 1, 60, 61
1, 6143, Note_on_c, 1, 60, 0
1, 6144, Note_on_c, 0, 63, 0
1, 6144, Note_on_c, 0, 64, 75
1, 6144, Note_on_c, 1, 56, 61
1, 6164, Note_on_c, 0, 64, 0
1, 6167, Note_on_c, 1, 56, 0
1, 6168, Note_on_c, 1, 59, 61
1, 6191, Note_on_c, 1, 59, 0
1, 6192, Note_on_c, 0, 64, 75
1, 6192, Note_on_c, 1, 56, 61
1, 6215, Note_on_c, 1, 56, 0
1, 6216, Note_on_c, 0, 64, 0
1, 6216, Note_on_c, 0, 71, 75
1, 6216, Note_on_c, 1, 59, 61
1, 6239, Note_on_c, 0, 71, 0
1, 6239, Note_on_c, 1, 59, 0
1, 6240, Note_on_c, 0, 64, 75
1, 6240, Note_on_c, 1, 56, 61
1, 6263, Note_on_c, 1, 56, 0
1, 6264, Note_on_c, 1, 59, 61
1, 6285, Note_on_c, 0, 64, 0
1, 6287, Note_on_c, 1, 59, 0
1, 6288, Note_on_c, 0, 64, 75
1, 6288, Note_on_c, 1, 56, 61
1, 6311, Note_on_c, 1, 56, 0
1, 6312, Note_on_c, 1, 59, 61
1, 6335, Note_on_c, 1, 59, 0
1, 6336, Note_on_c, 0, 64, 0
1, 6336, Note_on_c, 0, 63, 75
1, 6336, Note_on_c, 1, 54, 61
1, 6359, Note_on_c, 1, 54, 0
1, 6360, Note_on_c, 1, 60, 61
1, 6381, Note_on_c, 0, 63, 0
1, 6383, Note_on_c, 1, 60, 0
1, 6384, Note_on_c, 0, 69, 75
1, 6384, Note_on_c, 1, 54, 61
1, 6404, Note_on_c, 0, 69, 0
1, 6407, Note_on_c, 1, 54, 0
1, 6408, Note_on_c, 1, 60, 61
1, 6431, Note_on_c, 1, 60, 0
1, 6432, Note_on_c, 1, 54, 61
1, 6455, Note_on_c, 1, 54, 0
1, 6456, Note_on_c, 1, 60, 61
1, 6479, Note_on_c, 1, 60, 0
1, 6480, Note_on_c, 0, 63, 75
1, 6480, Note_on_c, 1, 54, 61
1, 6503, Note_on_c, 1, 54, 0
1, 6504, Note_on_c, 1, 60, 61
1, 6527, Note_on_c, 1, 60, 0
1, 6528, Note_on_c, 0, 63, 0
1, 6528, Note_on_c, 0, 64, 75
1, 6528, Note_on_c, 1, 56, 61
1, 6548, Note_on_c, 0, 64, 0
1, 6551, Note_on_c, 1, 56, 0
1, 6552, Note_on_c, 1, 59, 61
1, 6575, Note_on_c, 1, 59, 0
1, 6576, Note_on_c, 0, 64, 75
1, 6576, Note_on_c, 1, 56, 61
1, 6599, Note_on_c, 1, 56, 0
1, 6600, Note_on_c, 0, 64, 0
1, 6600, Note_on_c, 0, 71, 75
1, 6600, Note_on_c, 1, 59, 61
1, 6623, Note_on_c, 0, 71, 0
1, 6623, Note_on_c, 1, 59, 0
1, 6624, Note_on_c, 0, 64, 75
1, 6624, Note_on_c, 1, 56, 61
1, 6647, Note_on_c, 1, 56, 0
1, 6648, Note_on_c, 1, 59, 61
1, 6669, Note_on_c, 0, 64, 0
1, 6671, Note_on_c, 1, 59, 0
1, 6672, Note_on_c, 0, 62, 75
1, 6672, Note_on_c, 1, 56, 61
1, 6678, Note_on_c, 0, 62, 0
1, 6678, Note_on_c, 0, 64, 75
1, 6684, Note_on_c, 0, 64, 0
1, 6684, Note_on_c, 0, 62, 75
1, 6695, Note_on_c, 1, 56, 0
1, 6696, Note_on_c, 1, 59, 61
1, 6717, Note_on_c, 0, 62, 0
1, 6719, Note_on_c, 1, 59, 0
1, 6720, Note_on_c, 0, 61, 75
1, 6720, Note_on_c, 1, 57, 61
1, 6743, Note_on_c, 1, 57, 0
1, 6744, Note_on_c, 1, 61, 61
1, 6765, Note_on_c, 0, 61, 0
1, 6767, Note_on_c, 1, 61, 0
1, 6768, Note_on_c, 0, 76, 75
1, 6768, Note_on_c, 1, 57, 61
1, 6791, Note_on_c, 1, 57, 0
1, 6792, Note_on_c, 1, 61, 61
1, 6813, Note_on_c, 0, 76, 0
1, 6815, Note_on_c, 1, 61, 0
1, 6816, Note_on_c, 1, 57, 61
1, 6839, Note_on_c, 1, 57, 0
1, 6840, Note_on_c, 1, 61, 61
1, 6863, Note_on_c, 1, 61, 0
1, 6864, Note_on_c, 0, 69, 75
1, 6864, Note_on_c, 1, 57, 61
1, 6887, Note_on_c, 1, 57, 0
1, 6888, Note_on_c, 1, 61, 61
1, 6911, Note_on_c, 1, 61, 0
1, 6912, Note_on_c, 0, 69, 0
1, 6912, Note_on_c, 0, 68, 75
1, 6912, Note_on_c, 1, 59, 61
1, 6932, Note_on_c, 0, 68, 0
1, 6935, Note_on_c, 1, 59, 0
1, 6936, Note_on_c, 1, 62, 61
1, 6959, Note_on_c, 1, 62, 0
1, 6960, Note_on_c, 0, 68, 75
1, 6960, Note_on_c, 1, 59, 61
1, 6983, Note_on_c, 1, 59, 0
1, 6984, Note_on_c, 0, 68, 0
1, 6984, Note_on_c, 0, 76, 75
1, 6984, Note_on_c, 1, 62, 61
1, 7007, Note_on_c, 0, 76, 0
1, 7007, Note_on_c, 1, 62, 0
1, 7008, Note_on_c, 0, 68, 75
1, 7008, Note_on_c, 1, 59, 61
1, 7028, Note_on_c, 0, 68, 0
1, 7031, Note_on_c, 1, 59, 0
1, 7032, Note_on_c, 1, 62, 61
1, 7055, Note_on_c, 1, 62, 0
1, 7056, Note_on_c, 0, 68, 75
1, 7056, Note_on_c, 1, 59, 61
1, 7079, Note_on_c, 1, 59, 0
1, 7080, Note_on_c, 1, 62, 61
1, 7103, Note_on_c, 1, 62, 0
1, 7104, Note_on_c, 0, 68, 0
1, 7104, Note_on_c, 0, 69, 75
1, 7104, Note_on_c, 1, 61, 61
1, 7124, Note_on_c, 0, 69, 0
1, 7127, Note_on_c, 1, 61, 0
1, 7128, Note_on_c, 1, 64, 61
1, 7151, Note_on_c, 1, 64, 0
1, 7152, Note_on_c, 0, 69, 75
1, 7152, Note_on_c, 1, 61, 61
1, 7175, Note_on_c, 1, 61, 0
1, 7176, Note_on_c, 0, 69, 0
1, 7176, Note_on_c, 0, 76, 75
1, 7176, Note_on_c, 1, 64, 61
1, 7199, Note_on_c, 0, 76, 0
1, 7199, Note_on_c, 1, 64, 0
1, 7200, Note_on_c, 0, 69, 75
1, 7200, Note_on_c, 1, 61, 61
1, 7220, Note_on_c, 0, 69, 0
1, 7223, Note_on_c, 1, 61, 0
1, 7224, Note_on_c, 1, 64, 61
1, 7247, Note_on_c, 1, 64, 0
1, 7248, Note_on_c, 0, 69, 75
1, 7248, Note_on_c, 1, 61, 61
1, 7271, Note_on_c, 1, 61, 0
1, 7272, Note_on_c, 1, 64, 61
1, 7295, Note_on_c, 1, 64, 0
1, 7296, Note_on_c, 0, 69, 0
1, 7296, Note_on_c, 0, 71, 75
1, 7296, Note_on_c, 1, 56, 61
1, 7316, Note_on_c, 0, 71, 0
1, 7319, Note_on_c, 1, 56, 0
1, 7320, Note_on_c, 1, 64, 61
1, 7343, Note_on_c, 1, 64, 0
1, 7344, Note_on_c, 0, 71, 75
1, 7344, Note_on_c, 1, 56, 61
1, 7367, Note_on_c, 1, 56, 0
1, 7368, Note_on_c, 0, 71, 0
1, 7368, Note_on_c, 0, 76, 75
1, 7368, Note_on_c, 1, 64, 61
1, 7391, Note_on_c, 0, 76, 0
1, 7391, Note_on_c, 1, 64, 0
1, 7392, Note_on_c, 0, 71, 75
1, 7392, Note_on_c, 1, 56, 61
1, 7415, Note_on_c, 1, 56, 0
1, 7416, Note_on_c, 1, 64, 61
1, 7437, Note_on_c, 0, 71, 0
1, 7439, Note_on_c, 1, 64, 0
1, 7440, Note_on_c, 0, 74, 75
1, 7440, Note_on_c, 1, 56, 61
1, 7463, Note_on_c, 1, 56, 0
1, 7464, Note_on_c, 1, 64, 61
1, 7485, Note_on_c, 0, 74, 0
1, 7487, Note_on_c, 1, 64, 0
1, 7488, Note_on_c, 0, 73, 75
1, 7488, Note_on_c, 1, 57, 75
1, 7511, Note_on_c, 0, 73, 0
1, 7512, Note_on_c, 0, 74, 75
1, 7535, Note_on_c, 0, 74, 0
1, 7536, Note_on_c, 0, 76, 75
1, 7559, Note_on_c, 0, 76, 0
1, 7560, Note_on_c, 0, 73, 75
1, 7577, Note_on_c, 1, 57, 0
1, 7583, Note_on_c, 0, 73, 0
1, 7584, Note_on_c, 0, 71, 75
1, 7607, Note_on_c, 0, 71, 0
1, 7608, Note_on_c, 0, 69, 75
1, 7631, Note_on_c, 0, 69, 0
1, 7632, Note_on_c, 0, 68, 75
1, 7655, Note_on_c, 0, 68, 0
1, 7656, Note_on_c, 0, 66, 75
1, 7679, Note_on_c, 0, 66, 0
1, 7680, Note_on_c, 0, 64, 75
1, 7680, Note_on_c, 1, 59, 75
1, 7680, Note_on_c, 1, 56, 75
1, 7703, Note_on_c, 0, 64, 0
1, 7704, Note_on_c, 0, 63, 75
1, 7727, Note_on_c, 0, 63, 0
1, 7728, Note_on_c, 0, 64, 75
1, 7751, Note_on_c, 0, 64, 0
1, 7752, Note_on_c, 0, 66, 75
1, 7769, Note_on_c, 1, 59, 0
1, 7769, Note_on_c, 1, 56, 0
1, 7775, Note_on_c, 0, 66, 0
1, 7776, Note_on_c, 0, 64, 75
1, 7799, Note_on_c, 0, 64, 0
1, 7800, Note_on_c, 0, 62, 75
1, 7823, Note_on_c, 0, 62, 0
1, 7824, Note_on_c, 0, 61, 75
1, 7847, Note_on_c, 0, 61, 0
1, 7848, Note_on_c, 0, 59, 75
1, 7871, Note_on_c, 0, 59, 0
1, 7872, Note_on_c, 0, 61, 75
1, 7872, Note_on_c, 1, 57, 75
1, 7872, Note_on_c, 1, 45, 75
1, 7895, Note_on_c, 0, 61, 0
1, 7896, Note_on_c, 0, 62, 75
1, 7919, Note_on_c, 0, 62, 0
1, 7920, Note_on_c, 0, 64, 75
1, 7943, Note_on_c, 0, 64, 0
1, 7944, Note_on_c, 0, 61, 75
1, 7961, Note_on_c, 1, 57, 0
1, 7961, Note_on_c, 1, 45, 0
1, 7967, Note_on_c, 0, 61, 0
1, 7968, Note_on_c, 0, 59, 75
1, 7991, Note_on_c, 0, 59, 0
1, 7992, Note_on_c, 0, 57, 75
1, 8015, Note_on_c, 0, 57, 0
1, 8016, Note_on_c, 0, 56, 75
1, 8039, Note_on_c, 0, 56, 0
1, 8040, Note_on_c, 0, 54, 75
1, 8063, Note_on_c, 0, 54, 0
1, 8064, Note_on_c, 1, 52, 75
1, 8064, Note_on_c, 1, 40, 75
1, 8087, Note_on_c, 1, 52, 0
1, 8088, Note_on_c, 1, 51, 75
1, 8111, Note_on_c, 1, 51, 0
1, 8112, Note_on_c, 1, 52, 75
1, 8135, Note_on_c, 1, 52, 0
1, 8136, Note_on_c, 1, 54, 75
1, 8153, Note_on_c, 1, 40, 0
1, 8159, Note_on_c, 1, 54, 0
1, 8160, Note_on_c, 1, 52, 75
1, 8183, Note_on_c, 1, 52, 0
1, 8184, Note_on_c, 1, 50, 75
1, 8207, Note_on_c, 1, 50, 0
1, 8208, Note_on_c, 1, 49, 75
1, 8231, Note_on_c, 1, 49, 0
1, 8232, Note_on_c, 1, 47, 75
1, 8255, Note_on_c, 1, 47, 0
1, 8256, Note_on_c, 0, 73, 75
1, 8256, Note_on_c, 1, 45, 75
1, 8279, Note_on_c, 0, 73, 0
1, 8280, Note_on_c, 0, 74, 75
1, 8303, Note_on_c, 0, 74, 0
1, 8304, Note_on_c, 0, 76, 75
1, 8327, Note_on_c, 0, 76, 0
1, 8328, Note_on_c, 0, 73, 75
1, 8345, Note_on_c, 1, 45, 0
1, 8351, Note_on_c, 0, 73, 0
1, 8352, Note_on_c, 0, 71, 75
1, 8375, Note_on_c, 0, 71, 0
1, 8376, Note_on_c, 0, 69, 75
1, 8399, Note_on_c, 0, 69, 0
1, 8400, Note_on_c, 0, 68, 75
1, 8423, Note_on_c, 0, 68, 0
1, 8424, Note_on_c, 0, 69, 75
1, 8447, Note_on_c, 0, 69, 0
1, 8448, Note_on_c, 0, 78, 75
1, 8448, Note_on_c, 1, 62, 75
1, 8471, Note_on_c, 0, 78, 0
1, 8472, Note_on_c, 0, 80, 75
1, 8495, Note_on_c, 0, 80, 0
1, 8496, Note_on_c, 0, 81, 75
1, 8519, Note_on_c, 0, 81, 0
1, 8520, Note_on_c, 0, 78, 75
1, 8537, Note_on_c, 1, 62, 0
1, 8543, Note_on_c, 0, 78, 0
1, 8544, Note_on_c, 0, 76, 75
1, 8567, Note_on_c, 0, 76, 0
1, 8568, Note_on_c, 0, 74, 75
1, 8591, Note_on_c, 0, 74, 0
1, 8592, Note_on_c, 0, 73, 75
1, 8615, Note_on_c, 0, 73, 0
1, 8616, Note_on_c, 0, 71, 75
1, 8639, Note_on_c, 0, 71, 0
1, 8640, Note_on_c, 0, 70, 75
1, 8640, Note_on_c, 1, 38, 75
1, 8664, Note_on_c, 0, 70, 0
1, 8664, Note_on_c, 0, 71, 75
1, 8687, Note_on_c, 0, 71, 0
1, 8688, Note_on_c, 0, 73, 75
1, 8712, Note_on_c, 0, 73, 0
1, 8712, Note_on_c, 0, 71, 75
1, 8722, Note_on_c, 0, 71, 0
1, 8729, Note_on_c, 1, 38, 0
1, 8736, Note_on_c, 0, 74, 75
1, 8760, Note_on_c, 0, 74, 0
1, 8760, Note_on_c, 0, 73, 75
1, 8770, Note_on_c, 0, 73, 0
1, 8784, Note_on_c, 0, 76, 75
1, 8808, Note_on_c, 0, 76, 0
1, 8808, Note_on_c, 0, 74, 75
1, 8818, Note_on_c, 0, 74, 0
1, 8832, Note_on_c, 0, 78, 75
1, 8877, Note_on_c, 0, 78, 0
1, 8928, Note_on_c, 0, 76, 75
1, 8951, Note_on_c, 0, 76, 0
1, 8952, Note_on_c, 0, 74, 75
1, 8975, Note_on_c, 0, 74, 0
1, 8976, Note_on_c, 0, 73, 75
1, 8999, Note_on_c, 0, 73, 0
1, 9000, Note_on_c, 0, 71, 75
1, 9023, Note_on_c, 0, 71, 0
1, 9024, Note_on_c, 0, 69, 75
1, 9072, Note_on_c, 1, 57, 75
1, 9072, Note_on_c, 1, 49, 75
1, 9113, Note_on_c, 0, 69, 0
1, 9117, Note_on_c, 1, 49, 0
1, 9120, Note_on_c, 0, 71, 75
1, 9120, Note_on_c, 1, 50, 75
1, 9131, Note_on_c, 0, 71, 0
1, 9131, Note_on_c, 0, 73, 75
1, 9142, Note_on_c, 0, 73, 0
1, 9142, Note_on_c, 0, 71, 75
1, 9153, Note_on_c, 0, 71, 0
1, 9153, Note_on_c, 0, 73, 75
1, 9161, Note_on_c, 1, 57, 0
1, 9164, Note_on_c, 0, 73, 0
1, 9164, Note_on_c, 0, 71, 75
1, 9165, Note_on_c, 1, 50, 0
1, 9168, Note_on_c, 1, 56, 75
1, 9168, Note_on_c, 1, 52, 75
1, 9175, Note_on_c, 0, 71, 0
1, 9175, Note_on_c, 0, 73, 75
1, 9186, Note_on_c, 0, 73, 0
1, 9186, Note_on_c, 0, 71, 75
1, 9196, Note_on_c, 0, 71, 0
1, 9196, Note_on_c, 0, 69, 75
1, 9206, Note_on_c, 0, 69, 0
1, 9206, Note_on_c, 0, 71, 75
1, 9213, Note_on_c, 1, 56, 0
1, 9213, Note_on_c, 1, 52, 0
1, 9216, Note_on_c, 0, 71, 0
1, 9216, Note_on_c, 0, 73, 75
1, 9216, Note_on_c, 1, 57, 75
1, 9216, Note_on_c, 1, 45, 75
1, 9239, Note_on_c, 0, 73, 0
1, 9240, Note_on_c, 0, 74, 75
1, 9261, Note_on_c, 1, 57, 0
1, 9261, Note_on_c, 1, 45, 0
1, 9263, Note_on_c, 0, 74, 0
1, 9264, Note_on_c, 0, 76, 75
1, 9287, Note_on_c, 0, 76, 0
1, 9288, Note_on_c, 0, 73, 75
1, 9311, Note_on_c, 0, 73, 0
1, 9312, Note_on_c, 0, 71, 75
1, 9312, Note_on_c, 1, 61, 75
1, 9335, Note_on_c, 0, 71, 0
1, 9336, Note_on_c, 0, 69, 75
1, 9357, Note_on_c, 1, 61, 0
1, 9359, Note_on_c, 0, 69, 0
1, 9360, Note_on_c, 0, 68, 75
1, 9383, Note_on_c, 0, 68, 0
1, 9384, Note_on_c, 0, 69, 75
1, 9407, Note_on_c, 0, 69, 0
1, 9408, Note_on_c, 0, 78, 75
1, 9408, Note_on_c, 1, 62, 75
1, 9431, Note_on_c, 0, 78, 0
1, 9432, Note_on_c, 0, 80, 74
1, 9455, Note_on_c, 0, 80, 0
1, 9456, Note_on_c, 0, 81, 73
1, 9479, Note_on_c, 0, 81, 0
1, 9480, Note_on_c, 0, 78, 73
1, 9497, Note_on_c, 1, 62, 0
1, 9503, Note_on_c, 0, 78, 0
1, 9504, Note_on_c, 0, 76, 72
1, 9527, Note_on_c, 0, 76, 0
1, 9528, Note_on_c, 0, 74, 71
1, 9551, Note_on_c, 0, 74, 0
1, 9552, Note_on_c, 0, 73, 71
1, 9575, Note_on_c, 0, 73, 0
1, 9576, Note_on_c, 0, 71, 70
1, 9599, Note_on_c, 0, 71, 0
1, 9600, Note_on_c, 0, 70, 69
1, 9600, Note_on_c, 1, 38, 75
1, 9624, Note_on_c, 0, 70, 0
1, 9624, Note_on_c, 0, 71, 69
1, 9647, Note_on_c, 0, 71, 0
1, 9648, Note_on_c, 0, 73, 69
1, 9672, Note_on_c, 0, 73, 0
1, 9672, Note_on_c, 0, 71, 69
1, 9682, Note_on_c, 0, 71, 0
1, 9689, Note_on_c, 1, 38, 0
1, 9696, Note_on_c, 0, 74, 69
1, 9720, Note_on_c, 0, 74, 0
1, 9720, Note_on_c, 0, 73, 69
1, 9730, Note_on_c, 0, 73, 0
1, 9744, Note_on_c, 0, 76, 69
1, 9768, Note_on_c, 0, 76, 0
1, 9768, Note_on_c, 0, 74, 69
1, 9778, Note_on_c, 0, 74, 0
1, 9792, Note_on_c, 0, 78, 69
1, 9837, Note_on_c, 0, 78, 0
1, 9936, Note_on_c, 0, 74, 61
1, 9984, Note_on_c, 0, 74, 0
1, 9984, Note_on_c, 0, 73, 61
1, 10004, Note_on_c, 0, 73, 0
1, 10032, Note_on_c, 0, 76, 61
1, 10080, Note_on_c, 0, 76, 0
1, 10080, Note_on_c, 0, 74, 61
1, 10100, Note_on_c, 0, 74, 0
1, 10128, Note_on_c, 0, 78, 61
1, 10265, Note_on_c, 0, 78, 0
1, 10368, Note_on_c, 0, 74, 53
1, 10464, Note_on_c, 0, 74, 0
1, 10464, Note_on_c, 0, 73, 53
1, 10503, Note_on_c, 0, 73, 0
1, 10560, Note_on_c, 0, 76, 53
1, 10656, Note_on_c, 0, 76, 0
1, 10656, Note_on_c, 0, 74, 53
1, 10695, Note_on_c, 0, 74, 0
1, 10752, Note_on_c, 0, 78, 53
1, 11033, Note_on_c, 0, 78, 0
1, 11088, Note_on_c, 0, 65, 84
1, 11100, Note_on_c, 0, 65, 0
1, 11100, Note_on_c, 0, 77, 84
1, 11133, Note_on_c, 0, 77, 0
1, 11136, Note_on_c, 0, 66, 84
1, 11148, Note_on_c, 0, 66, 0
1, 11148, Note_on_c, 0, 78, 84
1, 11181, Note_on_c, 0, 78, 0
1, 11184, Note_on_c, 0, 70, 84
1, 11196, Note_on_c, 0, 70, 0
1, 11196, Note_on_c, 0, 82, 84
1, 11229, Note_on_c, 0, 82, 0
1, 11232, Note_on_c, 0, 71, 84
1, 11244, Note_on_c, 0, 71, 0
1, 11244, Note_on_c, 0, 83, 84
1, 11277, Note_on_c, 0, 83, 0
1, 11280, Note_on_c, 0, 73, 84
1, 11292, Note_on_c, 0, 73, 0
1, 11292, Note_on_c, 0, 85, 84
1, 11325, Note_on_c, 0, 85, 0
1, 11328, Note_on_c, 0, 74, 84
1, 11328, Note_on_c, 1, 71, 61
1, 11328, Note_on_c, 1, 66, 61
1, 11328, Note_on_c, 1, 62, 61
1, 11340, Note_on_c, 0, 74, 0
1, 11340, Note_on_c, 0, 86, 100
1, 11373, Note_on_c, 1, 71, 0
1, 11373, Note_on_c, 1, 66, 0
1, 11373, Note_on_c, 1, 62, 0
1, 11376, Note_on_c, 1, 71, 61
1, 11376, Note_on_c, 1, 66, 61
1, 11376, Note_on_c, 1, 62, 61
1, 11400, Note_on_c, 0, 86, 0
1, 11400, Note_on_c, 0, 83, 84
1, 11421, Note_on_c, 1, 71, 0
1, 11421, Note_on_c, 1, 66, 0
1, 11421, Note_on_c, 1, 62, 0
1, 11423, Note_on_c, 0, 83, 0
1, 11424, Note_on_c, 0, 86, 84
1, 11424, Note_on_c, 1, 71, 61
1, 11424, Note_on_c, 1, 66, 61
1, 11424, Note_on_c, 1, 62, 61
1, 11447, Note_on_c, 0, 86, 0
1, 11448, Note_on_c, 0, 83, 84
1, 11469, Note_on_c, 1, 71, 0
1, 11469, Note_on_c, 1, 66, 0
1, 11469, Note_on_c, 1, 62, 0
1, 11471, Note_on_c, 0, 83, 0
1, 11472, Note_on_c, 0, 86, 84
1, 11472, Note_on_c, 1, 71, 61
1, 11472, Note_on_c, 1, 66, 61
1, 11472, Note_on_c, 1, 62, 61
1, 11495, Note_on_c, 0, 86, 0
1, 11496, Note_on_c, 0, 83, 84
1, 11517, Note_on_c, 1, 71, 0
1, 11517, Note_on_c, 1, 66, 0
1, 11517, Note_on_c, 1, 62, 0
1, 11519, Note_on_c, 0, 83, 0
1, 11520, Note_on_c, 0, 76, 84
1, 11520, Note_on_c, 1, 73, 61
1, 11520, Note_on_c, 1, 69, 61
1, 11520, Note_on_c, 1, 64, 61
1, 11565, Note_on_c, 1, 73, 0
1, 11565, Note_on_c, 1, 69, 0
1, 11565, Note_on_c, 1, 64, 0
1, 11568, Note_on_c, 1, 73, 61
1, 11568, Note_on_c, 1, 69, 61
1, 11568, Note_on_c, 1, 64, 61
1, 11587, Note_on_c, 0, 76, 0
1, 11592, Note_on_c, 0, 81, 84
1, 11604, Note_on_c, 0, 81, 0
1, 11604, Note_on_c, 0, 85, 84
1, 11613, Note_on_c, 1, 73, 0
1, 11613, Note_on_c, 1, 69, 0
1, 11613, Note_on_c, 1, 64, 0
1, 11616, Note_on_c, 0, 85, 0
1, 11616, Note_on_c, 0, 88, 100
1, 11616, Note_on_c, 1, 73, 61
1, 11616, Note_on_c, 1, 69, 61
1, 11616, Note_on_c, 1, 64, 61
1, 11661, Note_on_c, 1, 73, 0
1, 11661, Note_on_c, 1, 69, 0
1, 11661, Note_on_c, 1, 64, 0
1, 11664, Note_on_c, 1, 73, 61
1, 11664, Note_on_c, 1, 69, 61
1, 11664, Note_on_c, 1, 64, 61
1, 11688, Note_on_c, 0, 88, 0
1, 11688, Note_on_c, 0, 81, 84
1, 11700, Note_on_c, 0, 81, 0
1, 11700, Note_on_c, 0, 85, 84
1, 11709, Note_on_c, 1, 73, 0
1, 11709, Note_on_c, 1, 69, 0
1, 11709, Note_on_c, 1, 64, 0
1, 11712, Note_on_c, 0, 85, 0
1, 11712, Note_on_c, 0, 83, 84
1, 11712, Note_on_c, 1, 68, 61
1, 11712, Note_on_c, 1, 64, 61
1, 11724, Note_on_c, 0, 83, 0
1, 11725, Note_on_c, 0, 85, 84
1, 11737, Note_on_c, 0, 85, 0
1, 11738, Note_on_c, 0, 83, 84
1, 11750, Note_on_c, 0, 83, 0
1, 11751, Note_on_c, 0, 85, 84
1, 11757, Note_on_c, 1, 68, 0
1, 11757, Note_on_c, 1, 64, 0
1, 11760, Note_on_c, 1, 68, 61
1, 11760, Note_on_c, 1, 64, 61
1, 11763, Note_on_c, 0, 85, 0
1, 11764, Note_on_c, 0, 83, 84
1, 11776, Note_on_c, 0, 83, 0
1, 11777, Note_on_c, 0, 85, 84
1, 11789, Note_on_c, 0, 85, 0
1, 11790, Note_on_c, 0, 83, 84
1, 11802, Note_on_c, 0, 83, 0
1, 11803, Note_on_c, 0, 85, 84
1, 11805, Note_on_c, 1, 68, 0
1, 11805, Note_on_c, 1, 64, 0
1, 11808, Note_on_c, 1, 68, 61
1, 11808, Note_on_c, 1, 64, 61
1, 11815, Note_on_c, 0, 85, 0
1, 11816, Note_on_c, 0, 83, 84
1, 11828, Note_on_c, 0, 83, 0
1, 11829, Note_on_c, 0, 85, 84
1, 11841, Note_on_c, 0, 85, 0
1, 11842, Note_on_c, 0, 83, 84
1, 11853, Note_on_c, 1, 68, 0
1, 11853, Note_on_c, 1, 64, 0
1, 11854, Note_on_c, 0, 83, 0
1, 11855, Note_on_c, 0, 81, 84
1, 11856, Note_on_c, 1, 68, 61
1, 11856, Note_on_c, 1, 64, 61
1, 11880, Note_on_c, 0, 81, 0
1, 11880, Note_on_c, 0, 83, 84
1, 11901, Note_on_c, 1, 68, 0
1, 11901, Note_on_c, 1, 64, 0
1, 11904, Note_on_c, 0, 83, 0
1, 11904, Note_on_c, 0, 81, 84
1, 11904, Note_on_c, 1, 57, 69
1, 11927, Note_on_c, 1, 57, 0
1, 11928, Note_on_c, 1, 69, 69
1, 11951, Note_on_c, 1, 69, 0
1, 11952, Note_on_c, 1, 68, 69
1, 11975, Note_on_c, 1, 68, 0
1, 11976, Note_on_c, 1, 69, 69
1, 11993, Note_on_c, 0, 81, 0
1, 11999, Note_on_c, 1, 69, 0
1, 12000, Note_on_c, 1, 61, 69
1, 12023, Note_on_c, 1, 61, 0
1, 12024, Note_on_c, 1, 69, 69
1, 12047, Note_on_c, 1, 69, 0
1, 12048, Note_on_c, 0, 76, 84
1, 12048, Note_on_c, 1, 68, 69
1, 12071, Note_on_c, 1, 68, 0
1, 12072, Note_on_c, 1, 69, 69
1, 12093, Note_on_c, 0, 76, 0
1, 12095, Note_on_c, 1, 69, 0
1, 12096, Note_on_c, 0, 78, 84
1, 12096, Note_on_c, 1, 62, 69
1, 12108, Note_on_c, 0, 78, 0
1, 12108, Note_on_c, 0, 80, 84
1, 12119, Note_on_c, 1, 62, 0
1, 12120, Note_on_c, 0, 80, 0
1, 12120, Note_on_c, 0, 78, 84
1, 12120, Note_on_c, 1, 69, 69
1, 12141, Note_on_c, 0, 78, 0
1, 12143, Note_on_c, 1, 69, 0
1, 12144, Note_on_c, 0, 76, 84
1, 12144, Note_on_c, 1, 61, 69
1, 12167, Note_on_c, 1, 61, 0
1, 12168, Note_on_c, 1, 69, 69
1, 12189, Note_on_c, 0, 76, 0
1, 12191, Note_on_c, 1, 69, 0
1, 12192, Note_on_c, 0, 78, 84
1, 12192, Note_on_c, 1, 62, 69
1, 12204, Note_on_c, 0, 78, 0
1, 12204, Note_on_c, 0, 80, 84
1, 12215, Note_on_c, 1, 62, 0
1, 12216, Note_on_c, 0, 80, 0
1, 12216, Note_on_c, 0, 78, 84
1, 12216, Note_on_c, 1, 69, 69
1, 12237, Note_on_c, 0, 78, 0
1, 12239, Note_on_c, 1, 69, 0
1, 12240, Note_on_c, 0, 76, 84
1, 12240, Note_on_c, 1, 61, 69
1, 12263, Note_on_c, 1, 61, 0
1, 12264, Note_on_c, 1, 69, 69
1, 12285, Note_on_c, 0, 76, 0
1, 12287, Note_on_c, 1, 69, 0
1, 12288, Note_on_c, 0, 76, 100
1, 12288, Note_on_c, 1, 68, 69
1, 12288, Note_on_c, 1, 59, 69
1, 12300, Note_on_c, 0, 80, 100
1, 12312, Note_on_c, 0, 83, 100
1, 12324, Note_on_c, 0, 86, 100
1, 12377, Note_on_c, 1, 68, 0
1, 12377, Note_on_c, 1, 59, 0
1, 12384, Note_on_c, 0, 86, 0
1, 12384, Note_on_c, 0, 83, 0
1, 12384, Note_on_c, 0, 80, 0
1, 12384, Note_on_c, 0, 76, 0
1, 12432, Note_on_c, 0, 85, 84
1, 12432, Note_on_c, 1, 69, 69
1, 12432, Note_on_c, 1, 57, 69
1, 12477, Note_on_c, 0, 85, 0
1, 12477, Note_on_c, 1, 69, 0
1, 12477, Note_on_c, 1, 57, 0
1, 12480, Note_on_c, 0, 85, 84
1, 12480, Note_on_c, 1, 66, 69
1, 12480, Note_on_c, 1, 62, 69
1, 12492, Note_on_c, 0, 85, 0
1, 12492, Note_on_c, 0, 83, 84
1, 12504, Note_on_c, 0, 83, 0
1, 12504, Note_on_c, 0, 82, 84
1, 12516, Note_on_c, 0, 82, 0
1, 12516, Note_on_c, 0, 83, 84
1, 12525, Note_on_c, 1, 66, 0
1, 12525, Note_on_c, 1, 62, 0
1, 12528, Note_on_c, 0, 83, 0
1, 12528, Note_on_c, 0, 86, 84
1, 12573, Note_on_c, 0, 86, 0
1, 12576, Note_on_c, 0, 78, 84
1, 12576, Note_on_c, 1, 64, 69
1, 12576, Note_on_c, 1, 52, 69
1, 12588, Note_on_c, 0, 78, 0
1, 12588, Note_on_c, 0, 76, 84
1, 12600, Note_on_c, 0, 76, 0
1, 12600, Note_on_c, 0, 75, 84
1, 12612, Note_on_c, 0, 75, 0
1, 12612, Note_on_c, 0, 76, 84
1, 12621, Note_on_c, 1, 64, 0
1, 12621, Note_on_c, 1, 52, 0
1, 12624, Note_on_c, 0, 76, 0
1, 12624, Note_on_c, 0, 80, 84
1, 12624, Note_on_c, 0, 74, 84
1, 12669, Note_on_c, 0, 80, 0
1, 12669, Note_on_c, 0, 74, 0
1, 12672, Note_on_c, 0, 81, 84
1, 12672, Note_on_c, 0, 73, 84
1, 12672, Note_on_c, 1, 57, 69
1, 12695, Note_on_c, 1, 57, 0
1, 12696, Note_on_c, 1, 69, 69
1, 12719, Note_on_c, 1, 69, 0
1, 12720, Note_on_c, 1, 68, 69
1, 12743, Note_on_c, 1, 68, 0
1, 12744, Note_on_c, 1, 69, 69
1, 12761, Note_on_c, 0, 81, 0
1, 12761, Note_on_c, 0, 73, 0
1, 12767, Note_on_c, 1, 69, 0
1, 12768, Note_on_c, 1, 61, 69
1, 12791, Note_on_c, 1, 61, 0
1, 12792, Note_on_c, 1, 69, 69
1, 12815, Note_on_c, 1, 69, 0
1, 12816, Note_on_c, 0, 76, 84
1, 12816, Note_on_c, 1, 68, 69
1, 12839, Note_on_c, 1, 68, 0
1, 12840, Note_on_c, 1, 69, 69
1, 12861, Note_on_c, 0, 76, 0
1, 12863, Note_on_c, 1, 69, 0
1, 12864, Note_on_c, 0, 78, 84
1, 12864, Note_on_c, 1, 62, 69
1, 12876, Note_on_c, 0, 78, 0
1, 12876, Note_on_c, 0, 80, 84
1, 12887, Note_on_c, 1, 62, 0
1, 12888, Note_on_c, 0, 80, 0
1, 12888, Note_on_c, 0, 78, 84
1, 12888, Note_on_c, 1, 69, 69
1, 12909, Note_on_c, 0, 78, 0
1, 12911, Note_on_c, 1, 69, 0
1, 12912, Note_on_c, 0, 76, 84
1, 12912, Note_on_c, 1, 61, 69
1, 12935, Note_on_c, 1, 61, 0
1, 12936, Note_on_c, 1, 69, 69
1, 12957, Note_on_c, 0, 76, 0
1, 12959, Note_on_c, 1, 69, 0
1, 12960, Note_on_c, 0, 78, 84
1, 12960, Note_on_c, 1, 62, 69
1, 12972, Note_on_c, 0, 78, 0
1, 12972, Note_on_c, 0, 80, 84
1, 12983, Note_on_c, 1, 62, 0
1, 12984, Note_on_c, 0, 80, 0
1, 12984, Note_on_c, 0, 78, 84
1, 12984, Note_on_c, 1, 69, 69
1, 13005, Note_on_c, 0, 78, 0
1, 13007, Note_on_c, 1, 69, 0
1, 13008, Note_on_c, 0, 76, 84
1, 13008, Note_on_c, 1, 61, 69
1, 13031, Note_on_c, 1, 61, 0
1, 13032, Note_on_c, 1, 69, 69
1, 13053, Note_on_c, 0, 76, 0
1, 13055, Note_on_c, 1, 69, 0
1, 13056, Note_on_c, 0, 76, 100
1, 13056, Note_on_c, 1, 68, 69
1, 13056, Note_on_c, 1, 59, 69
1, 13068, Note_on_c, 0, 80, 100
1, 13080, Note_on_c, 0, 83, 100
1, 13092, Note_on_c, 0, 86, 100
1, 13145, Note_on_c, 1, 68, 0
1, 13145, Note_on_c, 1, 59, 0
1, 13152, Note_on_c, 0, 86, 0
1, 13152, Note_on_c, 0, 83, 0
1, 13152, Note_on_c, 0, 80, 0
1, 13152, Note_on_c, 0, 76, 0
1, 13200, Note_on_c, 0, 85, 84
1, 13200, Note_on_c, 1, 69, 69
1, 13200, Note_on_c, 1, 57, 69
1, 13245, Note_on_c, 0, 85, 0
1, 13245, Note_on_c, 1, 69, 0
1, 13245, Note_on_c, 1, 57, 0
1, 13248, Note_on_c, 0, 85, 84
1, 13248, Note_on_c, 1, 66, 69
1, 13248, Note_on_c, 1, 62, 69
1, 13260, Note_on_c, 0, 85, 0
1, 13260, Note_on_c, 0, 83, 84
1, 13272, Note_on_c, 0, 83, 0
1, 13272, Note_on_c, 0, 82, 84
1, 13284, Note_on_c, 0, 82, 0
1, 13284, Note_on_c, 0, 83, 84
1, 13293, Note_on_c, 1, 66, 0
1, 13293, Note_on_c, 1, 62, 0
1, 13296, Note_on_c, 0, 83, 0
1, 13296, Note_on_c, 0, 86, 84
1, 13341, Note_on_c, 0, 86, 0
1, 13344, Note_on_c, 0, 78, 84
1, 13344, Note_on_c, 1, 64, 69
1, 13344, Note_on_c, 1, 52, 69
1, 13356, Note_on_c, 0, 78, 0
1, 13356, Note_on_c, 0, 76, 84
1, 13368, Note_on_c, 0, 76, 0
1, 13368, Note_on_c, 0, 75, 84
1, 13380, Note_on_c, 0, 75, 0
1, 13380, Note_on_c, 0, 76, 84
1, 13389, Note_on_c, 1, 64, 0
1, 13389, Note_on_c, 1, 52, 0
1, 13392, Note_on_c, 0, 76, 0
1, 13392, Note_on_c, 0, 80, 84
1, 13392, Note_on_c, 0, 74, 84
1, 13437, Note_on_c, 0, 80, 0
1, 13437, Note_on_c, 0, 74, 0
1, 13440, Note_on_c, 0, 81, 84
1, 13440, Note_on_c, 0, 73, 84
1, 13440, Note_on_c, 1, 57, 69
1, 13440, Note_on_c, 1, 45, 69
1, 13485, Note_on_c, 0, 81, 0
1, 13485, Note_on_c, 0, 73, 0
1, 13485, Note_on_c, 1, 57, 0
1, 13485, Note_on_c, 1, 45, 0
1, 13536, Note_on_c, 1, 62, 84
1, 13536, Note_on_c, 1, 52, 84
1, 13560, Note_on_c, 0, 64, 82
1, 13581, Note_on_c, 1, 62, 0
1, 13581, Note_on_c, 1, 52, 0
1, 13583, Note_on_c, 0, 64, 0
1, 13584, Note_on_c, 0, 68, 80
1, 13607, Note_on_c, 0, 68, 0
1, 13608, Note_on_c, 0, 76, 78
1, 13631, Note_on_c, 0, 76, 0
1, 13632, Note_on_c, 1, 61, 77
1, 13632, Note_on_c, 1, 52, 77
1, 13656, Note_on_c, 0, 64, 74
1, 13677, Note_on_c, 1, 61, 0
1, 13677, Note_on_c, 1, 52, 0
1, 13679, Note_on_c, 0, 64, 0
1, 13680, Note_on_c, 0, 69, 72
1, 13703, Note_on_c, 0, 69, 0
1, 13704, Note_on_c, 0, 76, 70
1, 13727, Note_on_c, 0, 76, 0
1, 13728, Note_on_c, 1, 59, 70
1, 13728, Note_on_c, 1, 52, 70
1, 13752, Note_on_c, 0, 59, 66
1, 13773, Note_on_c, 1, 59, 0
1, 13773, Note_on_c, 1, 52, 0
1, 13775, Note_on_c, 0, 59, 0
1, 13776, Note_on_c, 0, 62, 64
1, 13799, Note_on_c, 0, 62, 0
1, 13800, Note_on_c, 0, 68, 62
1, 13823, Note_on_c, 0, 68, 0
1, 13824, Note_on_c, 0, 69, 60
1, 13824, Note_on_c, 0, 61, 60
1, 13824, Note_on_c, 1, 57, 63
1, 13824, Note_on_c, 1, 45, 63
1, 13913, Note_on_c, 0, 69, 0
1, 13913, Note_on_c, 0, 61, 0
1, 13913, Note_on_c, 1, 57, 0
1, 13913, Note_on_c, 1, 45, 0
1, 13968, Tempo, 545454
1, 13968, Note_on_c, 0, 57, 75
1, 13980, Note_on_c, 0, 57, 0
1, 13980, Note_on_c, 0, 62, 75
1, 13992, Note_on_c, 0, 62, 0
1, 13992, Note_on_c, 0, 66, 75
1, 14004, Note_on_c, 0, 66, 0
1, 14004, Note_on_c, 0, 69, 75
1, 14016, Note_on_c, 0, 69, 0
1, 14016, Note_on_c, 0, 66, 76
1, 14016, Note_on_c, 1, 50, 75
1, 14016, Note_on_c, 1, 38, 75
1, 14064, Note_on_c, 0, 66, 0
1, 14064, Note_on_c, 0, 62, 80
1, 14105, Note_on_c, 1, 50, 0
1, 14105, Note_on_c, 1, 38, 0
1, 14109, Note_on_c, 0, 62, 0
1, 14112, Note_on_c, 0, 74, 84
1, 14132, Note_on_c, 0, 74, 0
1, 14160, Note_on_c, 0, 69, 81
1, 14160, Note_on_c, 1, 66, 75
1, 14160, Note_on_c, 1, 62, 75
1, 14180, Note_on_c, 0, 69, 0
1, 14180, Note_on_c, 1, 66, 0
1, 14180, Note_on_c, 1, 62, 0
1, 14208, Note_on_c, 0, 71, 79
1, 14208, Note_on_c, 1, 67, 75
1, 14208, Note_on_c, 1, 62, 75
1, 14220, Note_on_c, 0, 71, 0
1, 14220, Note_on_c, 0, 73, 79
1, 14228, Note_on_c, 1, 67, 0
1, 14228, Note_on_c, 1, 62, 0
1, 14232, Note_on_c, 0, 73, 0
1, 14232, Note_on_c, 0, 71, 79
1, 14253, Note_on_c, 0, 71, 0
1, 14256, Note_on_c, 0, 69, 77
1, 14256, Note_on_c, 1, 66, 75
1, 14256, Note_on_c, 1, 62, 75
1, 14276, Note_on_c, 1, 66, 0
1, 14276, Note_on_c, 1, 62, 0
1, 14301, Note_on_c, 0, 69, 0
1, 14352, Note_on_c, 0, 57, 75
1, 14364, Note_on_c, 0, 57, 0
1, 14364, Note_on_c, 0, 62, 75
1, 14376, Note_on_c, 0, 62, 0
1, 14376, Note_on_c, 0, 66, 76
1, 14388, Note_on_c, 0, 66, 0
1, 14388, Note_on_c, 0, 69, 77
1, 14400, Note_on_c, 0, 69, 0
1, 14400, Note_on_c, 0, 66, 78
1, 14400, Note_on_c, 1, 50, 75
1, 14400, Note_on_c, 1, 38, 75
1, 14448, Note_on_c, 0, 66, 0
1, 14448, Note_on_c, 0, 62, 84
1, 14489, Note_on_c, 1, 50, 0
1, 14489, Note_on_c, 1, 38, 0
1, 14493, Note_on_c, 0, 62, 0
1, 14496, Note_on_c, 0, 81, 82
1, 14496, Note_on_c, 0, 78, 82
1, 14516, Note_on_c, 0, 81, 0
1, 14516, Note_on_c, 0, 78, 0
1, 14544, Note_on_c, 0, 78, 80
1, 14544, Note_on_c, 0, 74, 80
1, 14544, Note_on_c, 1, 62, 75
1, 14564, Note_on_c, 0, 78, 0
1, 14564, Note_on_c, 0, 74, 0
1, 14564, Note_on_c, 1, 62, 0
1, 14592, Note_on_c, 0, 79, 78
1, 14592, Note_on_c, 0, 76, 75
1, 14592, Note_on_c, 1, 57, 75
1, 14604, Note_on_c, 0, 79, 0
1, 14604, Note_on_c, 0, 81, 78
1, 14612, Note_on_c, 1, 57, 0
1, 14616, Note_on_c, 0, 81, 0
1, 14616, Note_on_c, 0, 79, 78
1, 14637, Note_on_c, 0, 79, 0
1, 14637, Note_on_c, 0, 76, 0
1, 14640, Note_on_c, 0, 78, 76
1, 14640, Note_on_c, 0, 74, 75
1, 14640, Note_on_c, 1, 62, 75
1, 14660, Note_on_c, 1, 62, 0
1, 14685, Note_on_c, 0, 78, 0
1, 14685, Note_on_c, 0, 74, 0
1, 14736, Note_on_c, 0, 74, 75
1, 14748, Note_on_c, 0, 74, 0
1, 14748, Note_on_c, 0, 78, 75
1, 14760, Note_on_c, 0, 78, 0
1, 14760, Note_on_c, 0, 81, 75
1, 14772, Note_on_c, 0, 81, 0
1, 14772, Note_on_c, 0, 86, 75
1, 14784, Note_on_c, 0, 86, 0
1, 14784, Note_on_c, 0, 72, 75
1, 14832, Note_on_c, 1, 62, 75
1, 14832, Note_on_c, 1, 54, 75
1, 14852, Note_on_c, 1, 62, 0
1, 14852, Note_on_c, 1, 54, 0
1, 14880, Note_on_c, 1, 62, 75
1, 14880, Note_on_c, 1, 54, 75
1, 14900, Note_on_c, 1, 62, 0
1, 14900, Note_on_c, 1, 54, 0
1, 14924, Note_on_c, 0, 72, 0
1, 14928, Note_on_c, 0, 84, 75
1, 14940, Note_on_c, 0, 84, 0
1, 14940, Note_on_c, 0, 81, 75
1, 14952, Note_on_c, 0, 81, 0
1, 14952, Note_on_c, 0, 78, 75
1, 14964, Note_on_c, 0, 78, 0
1, 14964, Note_on_c, 0, 72, 75
1, 14976, Note_on_c, 0, 72, 0
1, 14976, Note_on_c, 0, 71, 75
1, 15024, Note_on_c, 1, 62, 69
1, 15024, Note_on_c, 1, 55, 69
1, 15044, Note_on_c, 1, 62, 0
1, 15044, Note_on_c, 1, 55, 0
1, 15072, Note_on_c, 1, 62, 69
1, 15072, Note_on_c, 1, 55, 69
1, 15092, Note_on_c, 1, 62, 0
1, 15092, Note_on_c, 1, 55, 0
1, 15116, Note_on_c, 0, 71, 0
1, 15120, Note_on_c, 0, 71, 75
1, 15132, Note_on_c, 0, 71, 0
1, 15132, Note_on_c, 0, 74, 75
1, 15144, Note_on_c, 0, 74, 0
1, 15144, Note_on_c, 0, 79, 75
1, 15156, Note_on_c, 0, 79, 0
1, 15156, Note_on_c, 0, 83, 75
1, 15168, Note_on_c, 0, 83, 0
1, 15168, Note_on_c, 0, 81, 75
1, 15168, Note_on_c, 0, 78, 75
1, 15168, Note_on_c, 1, 57, 75
1, 15188, Note_on_c, 0, 81, 0
1, 15188, Note_on_c, 0, 78, 0
1, 15216, Note_on_c, 0, 78, 75
1, 15216, Note_on_c, 0, 74, 75
1, 15236, Note_on_c, 0, 78, 0
1, 15236, Note_on_c, 0, 74, 0
1, 15257, Note_on_c, 1, 57, 0
1, 15264, Note_on_c, 0, 79, 75
1, 15264, Note_on_c, 0, 76, 75
1, 15264, Note_on_c, 1, 45, 75
1, 15284, Note_on_c, 0, 79, 0
1, 15284, Note_on_c, 0, 76, 0
1, 15312, Note_on_c, 0, 76, 75
1, 15312, Note_on_c, 0, 73, 75
1, 15332, Note_on_c, 0, 76, 0
1, 15332, Note_on_c, 0, 73, 0
1, 15353, Note_on_c, 1, 45, 0
1, 15360, Note_on_c, 0, 76, 75
1, 15360, Note_on_c, 0, 73, 75
1, 15360, Note_on_c, 1, 50, 75
1, 15449, Note_on_c, 1, 50, 0
1, 15456, Note_on_c, 0, 76, 0
1, 15456, Note_on_c, 0, 73, 0
1, 15456, Note_on_c, 0, 78, 75
1, 15456, Note_on_c, 0, 74, 75
1, 15456, Note_on_c, 1, 38, 75
1, 15501, Note_on_c, 0, 78, 0
1, 15501, Note_on_c, 0, 74, 0
1, 15501, Note_on_c, 1, 38, 0
1, 15504, Note_on_c, 0, 74, 75
1, 15516, Note_on_c, 0, 74, 0
1, 15516, Note_on_c, 0, 78, 75
1, 15528, Note_on_c, 0, 78, 0
1, 15528, Note_on_c, 0, 81, 75
1, 15540, Note_on_c, 0, 81, 0
1, 15540, Note_on_c, 0, 86, 75
1, 15552, Note_on_c, 0, 86, 0
1, 15552, Note_on_c, 0, 72, 75
1, 15600, Note_on_c, 1, 62, 69
1, 15600, Note_on_c, 1, 54, 69
1, 15620, Note_on_c, 1, 62, 0
1, 15620, Note_on_c, 1, 54, 0
1, 15648, Note_on_c, 1, 62, 69
1, 15648, Note_on_c, 1, 54, 69
1, 15668, Note_on_c, 1, 62, 0
1, 15668, Note_on_c, 1, 54, 0
1, 15692, Note_on_c, 0, 72, 0
1, 15696, Note_on_c, 0, 84, 75
1, 15708, Note_on_c, 0, 84, 0
1, 15708, Note_on_c, 0, 81, 75
1, 15720, Note_on_c, 0, 81, 0
1, 15720, Note_on_c, 0, 78, 75
1, 15732, Note_on_c, 0, 78, 0
1, 15732, Note_on_c, 0, 72, 75
1, 15744, Note_on_c, 0, 72, 0
1, 15744, Note_on_c, 0, 71, 75
1, 15792, Note_on_c, 1, 62, 69
1, 15792, Note_on_c, 1, 55, 69
1, 15812, Note_on_c, 1, 62, 0
1, 15812, Note_on_c, 1, 55, 0
1, 15840, Note_on_c, 1, 62, 69
1, 15840, Note_on_c, 1, 55, 69
1, 15860, Note_on_c, 1, 62, 0
1, 15860, Note_on_c, 1, 55, 0
1, 15884, Note_on_c, 0, 71, 0
1, 15888, Note_on_c, 0, 83, 75
1, 15903, Note_on_c, 0, 83, 0
1, 15904, Note_on_c, 0, 85, 75
1, 15919, Note_on_c, 0, 85, 0
1, 15920, Note_on_c, 0, 86, 75
1, 15935, Note_on_c, 0, 86, 0
1, 15936, Note_on_c, 0, 85, 91
1, 15936, Note_on_c, 1, 57, 75
1, 15952, Note_on_c, 0, 85, 0
1, 15952, Note_on_c, 0, 83, 75
1, 15967, Note_on_c, 0, 83, 0
1, 15968, Note_on_c, 0, 81, 75
1, 15981, Note_on_c, 1, 57, 0
1, 15983, Note_on_c, 0, 81, 0
1, 15984, Note_on_c, 0, 79, 75
1, 15999, Note_on_c, 0, 79, 0
1, 16000, Note_on_c, 0, 78, 75
1, 16015, Note_on_c, 0, 78, 0
1, 16016, Note_on_c, 0, 76, 75
1, 16031, Note_on_c, 0, 76, 0
1, 16032, Note_on_c, 0, 74, 75
1, 16032, Note_on_c, 1, 45, 75
1, 16047, Note_on_c, 0, 74, 0
1, 16048, Note_on_c, 0, 73, 75
1, 16063, Note_on_c, 0, 73, 0
1, 16064, Note_on_c, 0, 71, 75
1, 16077, Note_on_c, 1, 45, 0
1, 16079, Note_on_c, 0, 71, 0
1, 16080, Note_on_c, 0, 69, 75
1, 16092, Note_on_c, 0, 69, 0
1, 16092, Note_on_c, 0, 67, 75
1, 16104, Note_on_c, 0, 67, 0
1, 16104, Note_on_c, 0, 66, 75
1, 16116, Note_on_c, 0, 66, 0
1, 16116, Note_on_c, 0, 64, 75
1, 16128, Note_on_c, 0, 64, 0
1, 16128, Note_on_c, 0, 62, 91
1, 16128, Note_on_c, 1, 38, 75
1, 16217, Note_on_c, 1, 38, 0
1, 16224, Note_on_c, 0, 62, 0
1, 16272, Note_on_c, 0, 57, 77
1, 16320, Note_on_c, 0, 57, 0
1, 16320, Note_on_c, 0, 62, 63
1, 16344, Note_on_c, 0, 62, 0
1, 16344, Note_on_c, 0, 61, 65
1, 16367, Note_on_c, 0, 61, 0
1, 16368, Note_on_c, 0, 64, 66
1, 16392, Note_on_c, 0, 64, 0
1, 16392, Note_on_c, 0, 62, 68
1, 16415, Note_on_c, 0, 62, 0
1, 16416, Note_on_c, 0, 66, 69
1, 16440, Note_on_c, 0, 66, 0
1, 16440, Note_on_c, 0, 64, 70
1, 16463, Note_on_c, 0, 64, 0
1, 16464, Note_on_c, 0, 67, 72
1, 16488, Note_on_c, 0, 67, 0
1, 16488, Note_on_c, 0, 66, 73
1, 16511, Note_on_c, 0, 66, 0
1, 16512, Note_on_c, 0, 66, 75
1, 16512, Note_on_c, 0, 62, 75
1, 16560, Note_on_c, 1, 56, 75
1, 16608, Note_on_c, 0, 66, 0
1, 16608, Note_on_c, 0, 62, 0
1, 16608, Note_on_c, 0, 64, 75
1, 16608, Note_on_c, 0, 61, 75
1, 16608, Note_on_c, 1, 56, 0
1, 16608, Note_on_c, 1, 57, 75
1, 16653, Note_on_c, 0, 64, 0
1, 16653, Note_on_c, 0, 61, 0
1, 16653, Note_on_c, 1, 57, 0
1, 16656, Note_on_c, 0, 57, 85
1, 16704, Note_on_c, 0, 57, 0
1, 16704, Note_on_c, 0, 64, 70
1, 16728, Note_on_c, 0, 64, 0
1, 16728, Note_on_c, 0, 63, 70
1, 16751, Note_on_c, 0, 63, 0
1, 16752, Note_on_c, 0, 66, 71
1, 16776, Note_on_c, 0, 66, 0
1, 16776, Note_on_c, 0, 64, 72
1, 16799, Note_on_c, 0, 64, 0
1, 16800, Note_on_c, 0, 67, 72
1, 16824, Note_on_c, 0, 67, 0
1, 16824, Note_on_c, 0, 66, 73
1, 16847, Note_on_c, 0, 66, 0
1, 16848, Note_on_c, 0, 69, 73
1, 16872, Note_on_c, 0, 69, 0
1, 16872, Note_on_c, 0, 67, 74
1, 16895, Note_on_c, 0, 67, 0
1, 16896, Note_on_c, 0, 67, 75
1, 16896, Note_on_c, 0, 64, 75
1, 16944, Note_on_c, 1, 49, 75
1, 16992, Note_on_c, 0, 67, 0
1, 16992, Note_on_c, 0, 64, 0
1, 16992, Note_on_c, 0, 66, 75
1, 16992, Note_on_c, 0, 62, 75
1, 16992, Note_on_c, 1, 49, 0
1, 16992, Note_on_c, 1, 50, 75
1, 17037, Note_on_c, 0, 66, 0
1, 17037, Note_on_c, 0, 62, 0
1, 17037, Note_on_c, 1, 50, 0
1, 17040, Note_on_c, 0, 62, 85
1, 17088, Note_on_c, 0, 62, 0
1, 17088, Note_on_c, 0, 67, 70
1, 17112, Note_on_c, 0, 67, 0
1, 17112, Note_on_c, 0, 66, 70
1, 17135, Note_on_c, 0, 66, 0
1, 17136, Note_on_c, 0, 69, 71
1, 17160, Note_on_c, 0, 69, 0
1, 17160, Note_on_c, 0, 67, 72
1, 17183, Note_on_c, 0, 67, 0
1, 17184, Note_on_c, 0, 71, 72
1, 17208, Note_on_c, 0, 71, 0
1, 17208, Note_on_c, 0, 69, 73
1, 17231, Note_on_c, 0, 69, 0
1, 17232, Note_on_c, 0, 74, 73
1, 17256, Note_on_c, 0, 74, 0
1, 17256, Note_on_c, 0, 73, 74
1, 17279, Note_on_c, 0, 73, 0
1, 17280, Note_on_c, 0, 71, 75
1, 17280, Note_on_c, 1, 55, 61
1, 17300, Note_on_c, 0, 71, 0
1, 17303, Note_on_c, 1, 55, 0
1, 17304, Note_on_c, 1, 62, 61
1, 17327, Note_on_c, 1, 62, 0
1, 17328, Note_on_c, 0, 71, 75
1, 17328, Note_on_c, 1, 55, 61
1, 17351, Note_on_c, 1, 55, 0
1, 17352, Note_on_c, 0, 71, 0
1, 17352, Note_on_c, 0, 74, 75
1, 17352, Note_on_c, 1, 62, 61
1, 17375, Note_on_c, 0, 74, 0
1, 17375, Note_on_c, 1, 62, 0
1, 17376, Note_on_c, 0, 69, 75
1, 17376, Note_on_c, 1, 54, 61
1, 17396, Note_on_c, 0, 69, 0
1, 17399, Note_on_c, 1, 54, 0
1, 17400, Note_on_c, 1, 62, 61
1, 17423, Note_on_c, 1, 62, 0
1, 17424, Note_on_c, 1, 54, 61
1, 17447, Note_on_c, 1, 54, 0
1, 17448, Note_on_c, 1, 62, 61
1, 17471, Note_on_c, 1, 62, 0
1, 17472, Note_on_c, 0, 69, 75
1, 17472, Note_on_c, 1, 59, 61
1, 17478, Note_on_c, 0, 69, 0
1, 17478, Note_on_c, 0, 67, 75
1, 17484, Note_on_c, 0, 67, 0
1, 17484, Note_on_c, 0, 66, 75
1, 17490, Note_on_c, 0, 66, 0
1, 17490, Note_on_c, 0, 67, 75
1, 17495, Note_on_c, 1, 59, 0
1, 17496, Note_on_c, 1, 62, 61
1, 17517, Note_on_c, 0, 67, 0
1, 17519, Note_on_c, 1, 62, 0
1, 17520, Note_on_c, 0, 67, 75
1, 17520, Note_on_c, 1, 59, 61
1, 17543, Note_on_c, 1, 59, 0
1, 17544, Note_on_c, 0, 67, 0
1, 17544, Note_on_c, 0, 71, 75
1, 17544, Note_on_c, 1, 62, 61
1, 17567, Note_on_c, 0, 71, 0
1, 17567, Note_on_c, 1, 62, 0
1, 17568, Note_on_c, 0, 66, 75
1, 17568, Note_on_c, 1, 57, 61
1, 17588, Note_on_c, 0, 66, 0
1, 17591, Note_on_c, 1, 57, 0
1, 17592, Note_on_c, 1, 62, 61
1, 17615, Note_on_c, 1, 62, 0
1, 17616, Note_on_c, 1, 57, 61
1, 17639, Note_on_c, 1, 57, 0
1, 17640, Note_on_c, 1, 62, 61
1, 17663, Note_on_c, 1, 62, 0
1, 17664, Note_on_c, 0, 73, 75
1, 17664, Note_on_c, 1, 55, 61
1, 17670, Note_on_c, 0, 73, 0
1, 17670, Note_on_c, 0, 71, 75
1, 17676, Note_on_c, 0, 71, 0
1, 17676, Note_on_c, 0, 69, 75
1, 17682, Note_on_c, 0, 69, 0
1, 17682, Note_on_c, 0, 71, 75
1, 17687, Note_on_c, 1, 55, 0
1, 17688, Note_on_c, 1, 62, 61
1, 17709, Note_on_c, 0, 71, 0
1, 17711, Note_on_c, 1, 62, 0
1, 17712, Note_on_c, 0, 71, 75
1, 17712, Note_on_c, 1, 55, 61
1, 17735, Note_on_c, 1, 55, 0
1, 17736, Note_on_c, 0, 71, 0
1, 17736, Note_on_c, 0, 74, 75
1, 17736, Note_on_c, 1, 62, 61
1, 17759, Note_on_c, 0, 74, 0
1, 17759, Note_on_c, 1, 62, 0
1, 17760, Note_on_c, 0, 69, 75
1, 17760, Note_on_c, 1, 54, 61
1, 17780, Note_on_c, 0, 69, 0
1, 17783, Note_on_c, 1, 54, 0
1, 17784, Note_on_c, 1, 62, 61
1, 17807, Note_on_c, 1, 62, 0
1, 17808, Note_on_c, 1, 54, 61
1, 17831, Note_on_c, 1, 54, 0
1, 17832, Note_on_c, 1, 62, 61
1, 17855, Note_on_c, 1, 62, 0
1, 17856, Note_on_c, 0, 69, 75
1, 17856, Note_on_c, 1, 59, 61
1, 17862, Note_on_c, 0, 69, 0
1, 17862, Note_on_c, 0, 67, 75
1, 17868, Note_on_c, 0, 67, 0
1, 17868, Note_on_c, 0, 66, 75
1, 17874, Note_on_c, 0, 66, 0
1, 17874, Note_on_c, 0, 67, 75
1, 17879, Note_on_c, 1, 59, 0
1, 17880, Note_on_c, 1, 62, 61
1, 17901, Note_on_c, 0, 67, 0
1, 17903, Note_on_c, 1, 62, 0
1, 17904, Note_on_c, 0, 67, 75
1, 17904, Note_on_c, 1, 59, 61
1, 17927, Note_on_c, 1, 59, 0
1, 17928, Note_on_c, 0, 67, 0
1, 17928, Note_on_c, 0, 71, 75
1, 17928, Note_on_c, 1, 62, 61
1, 17951, Note_on_c, 0, 71, 0
1, 17951, Note_on_c, 1, 62, 0
1, 17952, Note_on_c, 0, 66, 75
1, 17952, Note_on_c, 1, 57, 61
1, 17972, Note_on_c, 0, 66, 0
1, 17975, Note_on_c, 1, 57, 0
1, 17976, Note_on_c, 1, 62, 61
1, 17999, Note_on_c, 1, 62, 0
1, 18000, Note_on_c, 1, 57, 61
1, 18023, Note_on_c, 1, 57, 0
1, 18024, Note_on_c, 1, 62, 61
1, 18047, Note_on_c, 1, 62, 0
1, 18048, Note_on_c, 0, 63, 75
1, 18048, Note_on_c, 1, 55, 75
1, 18071, Note_on_c, 0, 63, 0
1, 18072, Note_on_c, 0, 64, 77
1, 18095, Note_on_c, 0, 64, 0
1, 18096, Note_on_c, 0, 66, 79
1, 18119, Note_on_c, 0, 66, 0
1, 18120, Note_on_c, 0, 67, 81
1, 18137, Note_on_c, 1, 55, 0
1, 18143, Note_on_c, 0, 67, 0
1, 18144, Note_on_c, 0, 69, 84
1, 18167, Note_on_c, 0, 69, 0
1, 18168, Note_on_c, 0, 71, 81
1, 18191, Note_on_c, 0, 71, 0
1, 18192, Note_on_c, 0, 67, 79
1, 18192, Note_on_c, 1, 55, 75
1, 18192, Note_on_c, 1, 43, 75
1, 18215, Note_on_c, 0, 67, 0
1, 18216, Note_on_c, 0, 64, 77
1, 18237, Note_on_c, 1, 55, 0
1, 18237, Note_on_c, 1, 43, 0
1, 18239, Note_on_c, 0, 64, 0
1, 18240, Note_on_c, 0, 62, 75
1, 18240, Note_on_c, 1, 54, 75
1, 18240, Note_on_c, 1, 45, 75
1, 18432, Note_on_c, 0, 62, 0
1, 18432, Note_on_c, 0, 61, 63
1, 18432, Note_on_c, 1, 54, 0
1, 18432, Note_on_c, 1, 52, 63
1, 18452, Note_on_c, 0, 61, 0
1, 18477, Note_on_c, 1, 52, 0
1, 18477, Note_on_c, 1, 45, 0
1, 18480, Tempo, 750000
1, 18528, Tempo, 545454
1, 18576, Note_on_c, 0, 64, 84
1, 18588, Note_on_c, 0, 64, 0
1, 18588, Note_on_c, 0, 69, 84
1, 18600, Note_on_c, 0, 69, 0
1, 18600, Note_on_c, 0, 73, 84
1, 18612, Note_on_c, 0, 73, 0
1, 18612, Note_on_c, 0, 76, 84
1, 18624, Note_on_c, 0, 76, 0
1, 18624, Note_on_c, 0, 73, 84
1, 18624, Note_on_c, 1, 57, 84
1, 18624, Note_on_c, 1, 52, 84
1, 18624, Note_on_c, 1, 49, 84
1, 18624, Note_on_c, 1, 45, 84
1, 18669, Note_on_c, 0, 73, 0
1, 18669, Note_on_c, 1, 57, 0
1, 18669, Note_on_c, 1, 52, 0
1, 18669, Note_on_c, 1, 49, 0
1, 18669, Note_on_c, 1, 45, 0
1, 18672, Note_on_c, 0, 69, 84
1, 18684, Note_on_c, 0, 69, 0
1, 18684, Note_on_c, 0, 73, 84
1, 18696, Note_on_c, 0, 73, 0
1, 18696, Note_on_c, 0, 76, 84
1, 18708, Note_on_c, 0, 76, 0
1, 18708, Note_on_c, 0, 81, 84
1, 18720, Note_on_c, 0, 81, 0
1, 18720, Note_on_c, 0, 76, 84
1, 18720, Note_on_c, 1, 57, 84
1, 18720, Note_on_c, 1, 52, 84
1, 18720, Note_on_c, 1, 49, 84
1, 18720, Note_on_c, 1, 45, 84
1, 18765, Note_on_c, 0, 76, 0
1, 18765, Note_on_c, 1, 57, 0
1, 18765, Note_on_c, 1, 52, 0
1, 18765, Note_on_c, 1, 49, 0
1, 18765, Note_on_c, 1, 45, 0
1, 18768, Note_on_c, 0, 76, 84
1, 18780, Note_on_c, 0, 76, 0
1, 18780, Note_on_c, 0, 81, 84
1, 18792, Note_on_c, 0, 81, 0
1, 18792, Note_on_c, 0, 85, 84
1, 18804, Note_on_c, 0, 85, 0
1, 18804, Note_on_c, 0, 88, 84
1, 18816, Note_on_c, 0, 88, 0
1, 18816, Note_on_c, 0, 85, 84
1, 18816, Note_on_c, 1, 57, 84
1, 18816, Note_on_c, 1, 52, 84
1, 18816, Note_on_c, 1, 49, 84
1, 18816, Note_on_c, 1, 45, 84
1, 18861, Note_on_c, 0, 85, 0
1, 18861, Note_on_c, 1, 57, 0
1, 18861, Note_on_c, 1, 52, 0
1, 18861, Note_on_c, 1, 49, 0
1, 18861, Note_on_c, 1, 45, 0
1, 18960, Note_on_c, 0, 69, 75
1, 18972, Note_on_c, 0, 69, 0
1, 18972, Note_on_c, 0, 64, 75
1, 18984, Note_on_c, 0, 64, 0
1, 18984, Note_on_c, 0, 61, 75
1, 18996, Note_on_c, 0, 61, 0
1, 18996, Note_on_c, 0, 57, 75
1, 19008, Note_on_c, 0, 57, 0
1, 19008, Note_on_c, 0, 55, 75
1, 19008, Note_on_c, 1, 45, 75
1, 19031, Note_on_c, 1, 45, 0
1, 19032, Note_on_c, 1, 52, 75
1, 19055, Note_on_c, 1, 52, 0
1, 19056, Note_on_c, 1, 50, 75
1, 19079, Note_on_c, 1, 50, 0
1, 19080, Note_on_c, 1, 52, 75
1, 19103, Note_on_c, 1, 52, 0
1, 19104, Note_on_c, 1, 49, 75
1, 19127, Note_on_c, 1, 49, 0
1, 19128, Note_on_c, 1, 52, 75
1, 19151, Note_on_c, 1, 52, 0
1, 19152, Note_on_c, 1, 45, 75
1, 19175, Note_on_c, 1, 45, 0
1, 19176, Note_on_c, 1, 49, 75
1, 19185, Note_on_c, 0, 55, 0
1, 19199, Note_on_c, 1, 49, 0
1, 19200, Note_on_c, 0, 54, 75
1, 19200, Note_on_c, 1, 50, 75
1, 19223, Note_on_c, 0, 54, 0
1, 19224, Note_on_c, 0, 59, 75
1, 19247, Note_on_c, 0, 59, 0
1, 19248, Note_on_c, 0, 58, 75
1, 19271, Note_on_c, 0, 58, 0
1, 19272, Note_on_c, 0, 59, 75
1, 19289, Note_on_c, 1, 50, 0
1, 19295, Note_on_c, 0, 59, 0
1, 19296, Note_on_c, 0, 61, 75
1, 19319, Note_on_c, 0, 61, 0
1, 19320, Note_on_c, 0, 59, 75
1, 19343, Note_on_c, 0, 59, 0
1, 19344, Note_on_c, 0, 58, 75
1, 19367, Note_on_c, 0, 58, 0
1, 19368, Note_on_c, 0, 59, 75
1, 19391, Note_on_c, 0, 59, 0
1, 19392, Note_on_c, 0, 57, 75
1, 19392, Note_on_c, 1, 51, 75
1, 19415, Note_on_c, 1, 51, 0
1, 19416, Note_on_c, 1, 54, 75
1, 19439, Note_on_c, 1, 54, 0
1, 19440, Note_on_c, 1, 52, 75
1, 19463, Note_on_c, 1, 52, 0
1, 19464, Note_on_c, 1, 54, 75
1, 19487, Note_on_c, 1, 54, 0
1, 19488, Note_on_c, 1, 51, 75
1, 19511, Note_on_c, 1, 51, 0
1, 19512, Note_on_c, 1, 54, 75
1, 19535, Note_on_c, 1, 54, 0
1, 19536, Note_on_c, 1, 47, 75
1, 19559, Note_on_c, 1, 47, 0
1, 19560, Note_on_c, 1, 51, 75
1, 19569, Note_on_c, 0, 57, 0
1, 19583, Note_on_c, 1, 51, 0
1, 19584, Note_on_c, 0, 56, 75
1, 19584, Note_on_c, 1, 52, 75
1, 19607, Note_on_c, 0, 56, 0
1, 19608, Note_on_c, 0, 64, 75
1, 19631, Note_on_c, 0, 64, 0
1, 19632, Note_on_c, 0, 63, 75
1, 19655, Note_on_c, 0, 63, 0
1, 19656, Note_on_c, 0, 64, 75
1, 19673, Note_on_c, 1, 52, 0
1, 19679, Note_on_c, 0, 64, 0
1, 19680, Note_on_c, 0, 66, 75
1, 19703, Note_on_c, 0, 66, 0
1, 19704, Note_on_c, 0, 64, 75
1, 19727, Note_on_c, 0, 64, 0
1, 19728, Note_on_c, 0, 63, 75
1, 19751, Note_on_c, 0, 63, 0
1, 19752, Note_on_c, 0, 64, 75
1, 19775, Note_on_c, 0, 64, 0
1, 19776, Note_on_c, 0, 63, 75
1, 19776, Note_on_c, 1, 54, 61
1, 19799, Note_on_c, 1, 54, 0
1, 19800, Note_on_c, 1, 60, 61
1, 19823, Note_on_c, 1, 60, 0
1, 19824, Note_on_c, 0, 63, 0
1, 19824, Note_on_c, 0, 69, 75
1, 19824, Note_on_c, 1, 54, 61
1, 19847, Note_on_c, 1, 54, 0
1, 19848, Note_on_c, 1, 60, 61
1, 19869, Note_on_c, 0, 69, 0
1, 19871, Note_on_c, 1, 60, 0
1, 19872, Note_on_c, 1, 54, 61
1, 19895, Note_on_c, 1, 54, 0
1, 19896, Note_on_c, 1, 60, 61
1, 19919, Note_on_c, 1, 60, 0
1, 19920, Note_on_c, 0, 63, 75
1, 19920, Note_on_c, 1, 54, 61
1, 19943, Note_on_c, 1, 54, 0
1, 19944, Note_on_c, 1, 60, 61
1, 19967, Note_on_c, 1, 60, 0
1, 19968, Note_on_c, 0, 63, 0
1, 19968, Note_on_c, 0, 64, 75
1, 19968, Note_on_c, 1, 56, 61
1, 19988, Note_on_c, 0, 64, 0
1, 19991, Note_on_c, 1, 56, 0
1, 19992, Note_on_c, 1, 59, 61
1, 20015, Note_on_c, 1, 59, 0
1, 20016, Note_on_c, 0, 64, 75
1, 20016, Note_on_c, 1, 56, 61
1, 20039, Note_on_c, 1, 56, 0
1, 20040, Note_on_c, 0, 64, 0
1, 20040, Note_on_c, 0, 71, 75
1, 20040, Note_on_c, 1, 59, 61
1, 20063, Note_on_c, 0, 71, 0
1, 20063, Note_on_c, 1, 59, 0
1, 20064, Note_on_c, 0, 64, 75
1, 20064, Note_on_c, 1, 56, 61
1, 20087, Note_on_c, 1, 56, 0
1, 20088, Note_on_c, 1, 59, 61
1, 20109, Note_on_c, 0, 64, 0
1, 20111, Note_on_c, 1, 59, 0
1, 20112, Note_on_c, 0, 64, 75
1, 20112, Note_on_c, 1, 56, 61
1, 20135, Note_on_c, 1, 56, 0
1, 20136, Note_on_c, 1, 59, 61
1, 20159, Note_on_c, 1, 59, 0
1, 20160, Note_on_c, 0, 64, 0
1, 20160, Note_on_c, 0, 63, 75
1, 20160, Note_on_c, 1, 54, 61
1, 20183, Note_on_c, 1, 54, 0
1, 20184, Note_on_c, 1, 60, 61
1, 20205, Note_on_c, 0, 63, 0
1, 20207, Note_on_c, 1, 60, 0
1, 20208, Note_on_c, 0, 69, 75
1, 20208, Note_on_c, 1, 54, 61
1, 20228, Note_on_c, 0, 69, 0
1, 20231, Note_on_c, 1, 54, 0
1, 20232, Note_on_c, 1, 60, 61
1, 20255, Note_on_c, 1, 60, 0
1, 20256, Note_on_c, 1, 54, 61
1, 20279, Note_on_c, 1, 54, 0
1, 20280, Note_on_c, 1, 60, 61
1, 20303, Note_on_c, 1, 60, 0
1, 20304, Note_on_c, 0, 63, 75
1, 20304, Note_on_c, 1, 54, 61
1, 20327, Note_on_c, 1, 54, 0
1, 20328, Note_on_c, 1, 60, 61
1, 20351, Note_on_c, 1, 60, 0
1, 20352, Note_on_c, 0, 63, 0
1, 20352, Note_on_c, 0, 64, 75
1, 20352, Note_on_c, 1, 56, 61
1, 20372, Note_on_c, 0, 64, 0
1, 20375, Note_on_c, 1, 56, 0
1, 20376, Note_on_c, 1, 59, 61
1, 20399, Note_on_c, 1, 59, 0
1, 20400, Note_on_c, 0, 64, 75
1, 20400, Note_on_c, 1, 56, 61
1, 20423, Note_on_c, 1, 56, 0
1, 20424, Note_on_c, 0, 64, 0
1, 20424, Note_on_c, 0, 71, 75
1, 20424, Note_on_c, 1, 59, 61
1, 20447, Note_on_c, 0, 71, 0
1, 20447, Note_on_c, 1, 59, 0
1, 20448, Note_on_c, 0, 64, 75
1, 20448, Note_on_c, 1, 56, 61
1, 20471, Note_on_c, 1, 56, 0
1, 20472, Note_on_c, 1, 59, 61
1, 20493, Note_on_c, 0, 64, 0
1, 20495, Note_on_c, 1, 59, 0
1, 20496, Note_on_c, 0, 62, 75
1, 20496, Note_on_c, 1, 56, 61
1, 20502, Note_on_c, 0, 62, 0
1, 20502, Note_on_c, 0, 64, 75
1, 20508, Note_on_c, 0, 64, 0
1, 20508, Note_on_c, 0, 62, 75
1, 20519, Note_on_c, 1, 56, 0
1, 20520, Note_on_c, 1, 59, 61
1, 20541, Note_on_c, 0, 62, 0
1, 20543, Note_on_c, 1, 59, 0
1, 20544, Note_on_c, 0, 61, 75
1, 20544, Note_on_c, 1, 57, 61
1, 20567, Note_on_c, 1, 57, 0
1, 20568, Note_on_c, 1, 61, 61
1, 20589, Note_on_c, 0, 61, 0
1, 20591, Note_on_c, 1, 61, 0
1, 20592, Note_on_c, 0, 76, 75
1, 20592, Note_on_c, 1, 57, 61
1, 20615, Note_on_c, 1, 57, 0
1, 20616, Note_on_c, 1, 61, 61
1, 20637, Note_on_c, 0, 76, 0
1, 20639, Note_on_c, 1, 61, 0
1, 20640, Note_on_c, 1, 57, 61
1, 20663, Note_on_c, 1, 57, 0
1, 20664, Note_on_c, 1, 61, 61
1, 20687, Note_on_c, 1, 61, 0
1, 20688, Note_on_c, 0, 69, 75
1, 20688, Note_on_c, 1, 57, 61
1, 20711, Note_on_c, 1, 57, 0
1, 20712, Note_on_c, 1, 61, 61
1, 20735, Note_on_c, 1, 61, 0
1, 20736, Note_on_c, 0, 69, 0
1, 20736, Note_on_c, 0, 68, 75
1, 20736, Note_on_c, 1, 59, 61
1, 20756, Note_on_c, 0, 68, 0
1, 20759, Note_on_c, 1, 59, 0
1, 20760, Note_on_c, 1, 62, 61
1, 20783, Note_on_c, 1, 62, 0
1, 20784, Note_on_c, 0, 68, 75
1, 20784, Note_on_c, 1, 59, 61
1, 20807, Note_on_c, 1, 59, 0
1, 20808, Note_on_c, 0, 68, 0
1, 20808, Note_on_c, 0, 76, 75
1, 20808, Note_on_c, 1, 62, 61
1, 20831, Note_on_c, 0, 76, 0
1, 20831, Note_on_c, 1, 62, 0
1, 20832, Note_on_c, 0, 68, 75
1, 20832, Note_on_c, 1, 59, 61
1, 20852, Note_on_c, 0, 68, 0
1, 20855, Note_on_c, 1, 59, 0
1, 20856, Note_on_c, 1, 62, 61
1, 20879, Note_on_c, 1, 62, 0
1, 20880, Note_on_c, 0, 68, 75
1, 20880, Note_on_c, 1, 59, 61
1, 20903, Note_on_c, 1, 59, 0
1, 20904, Note_on_c, 1, 62, 61
1, 20927, Note_on_c, 1, 62, 0
1, 20928, Note_on_c, 0, 68, 0
1, 20928, Note_on_c, 0, 69, 75
1, 20928, Note_on_c, 1, 61, 61
1, 20948, Note_on_c, 0, 69, 0
1, 20951, Note_on_c, 1, 61, 0
1, 20952, Note_on_c, 1, 64, 61
1, 20975, Note_on_c, 1, 64, 0
1, 20976, Note_on_c, 0, 69, 75
1, 20976, Note_on_c, 1, 61, 61
1, 20999, Note_on_c, 1, 61, 0
1, 21000, Note_on_c, 0, 69, 0
1, 21000, Note_on_c, 0, 76, 75
1, 21000, Note_on_c, 1, 64, 61
1, 21023, Note_on_c, 0, 76, 0
1, 21023, Note_on_c, 1, 64, 0
1, 21024, Note_on_c, 0, 69, 75
1, 21024, Note_on_c, 1, 61, 61
1, 21044, Note_on_c, 0, 69, 0
1, 21047, Note_on_c, 1, 61, 0
1, 21048, Note_on_c, 1, 64, 61
1, 21071, Note_on_c, 1, 64, 0
1, 21072, Note_on_c, 0, 69, 75
1, 21072, Note_on_c, 1, 61, 61
1, 21095, Note_on_c, 1, 61, 0
1, 21096, Note_on_c, 1, 64, 61
1, 21119, Note_on_c, 1, 64, 0
1, 21120, Note_on_c, 0, 69, 0
1, 21120, Note_on_c, 0, 71, 75
1, 21120, Note_on_c, 1, 56, 61
1, 21140, Note_on_c, 0, 71, 0
1, 21143, Note_on_c, 1, 56, 0
1, 21144, Note_on_c, 1, 64, 61
1, 21167, Note_on_c, 1, 64, 0
1, 21168, Note_on_c, 0, 71, 75
1, 21168, Note_on_c, 1, 56, 61
1, 21191, Note_on_c, 1, 56, 0
1, 21192, Note_on_c, 0, 71, 0
1, 21192, Note_on_c, 0, 76, 75
1, 21192, Note_on_c, 1, 64, 61
1, 21215, Note_on_c, 0, 76, 0
1, 21215, Note_on_c, 1, 64, 0
1, 21216, Note_on_c, 0, 71, 75
1, 21216, Note_on_c, 1, 56, 61
1, 21239, Note_on_c, 1, 56, 0
1, 21240, Note_on_c, 1, 64, 61
1, 21261, Note_on_c, 0, 71, 0
1, 21263, Note_on_c, 1, 64, 0
1, 21264, Note_on_c, 0, 74, 75
1, 21264, Note_on_c, 1, 56, 61
1, 21287, Note_on_c, 1, 56, 0
1, 21288, Note_on_c, 1, 64, 61
1, 21309, Note_on_c, 0, 74, 0
1, 21311, Note_on_c, 1, 64, 0
1, 21312, Note_on_c, 0, 73, 75
1, 21312, Note_on_c, 1, 57, 75
1, 21335, Note_on_c, 0, 73, 0
1, 21336, Note_on_c, 0, 74, 75
1, 21359, Note_on_c, 0, 74, 0
1, 21360, Note_on_c, 0, 76, 75
1, 21383, Note_on_c, 0, 76, 0
1, 21384, Note_on_c, 0, 73, 75
1, 21401, Note_on_c, 1, 57, 0
1, 21407, Note_on_c, 0, 73, 0
1, 21408, Note_on_c, 0, 71, 75
1, 21431, Note_on_c, 0, 71, 0
1, 21432, Note_on_c, 0, 69, 75
1, 21455, Note_on_c, 0, 69, 0
1, 21456, Note_on_c, 0, 68, 75
1, 21479, Note_on_c, 0, 68, 0
1, 21480, Note_on_c, 0, 66, 75
1, 21503, Note_on_c, 0, 66, 0
1, 21504, Note_on_c, 0, 64, 75
1, 21504, Note_on_c, 1, 59, 75
1, 21504, Note_on_c, 1, 56, 75
1, 21527, Note_on_c, 0, 64, 0
1, 21528, Note_on_c, 0, 63, 75
1, 21551, Note_on_c, 0, 63, 0
1, 21552, Note_on_c, 0, 64, 75
1, 21575, Note_on_c, 0, 64, 0
1, 21576, Note_on_c, 0, 66, 75
1, 21593, Note_on_c, 1, 59, 0
1, 21593, Note_on_c, 1, 56, 0
1, 21599, Note_on_c, 0, 66, 0
1, 21600, Note_on_c, 0, 64, 75
1, 21623, Note_on_c, 0, 64, 0
1, 21624, Note_on_c, 0, 62, 75
1, 21647, Note_on_c, 0, 62, 0
1, 21648, Note_on_c, 0, 61, 75
1, 21671, Note_on_c, 0, 61, 0
1, 21672, Note_on_c, 0, 59, 75
1, 21695, Note_on_c, 0, 59, 0
1, 21696, Note_on_c, 0, 61, 75
1, 21696, Note_on_c, 1, 57, 75
1, 21696, Note_on_c, 1, 45, 75
1, 21719, Note_on_c, 0, 61, 0
1, 21720, Note_on_c, 0, 62, 75
1, 21743, Note_on_c, 0, 62, 0
1, 21744, Note_on_c, 0, 64, 75
1, 21767, Note_on_c, 0, 64, 0
1, 21768, Note_on_c, 0, 61, 75
1, 21785, Note_on_c, 1, 57, 0
1, 21785, Note_on_c, 1, 45, 0
1, 21791, Note_on_c, 0, 61, 0
1, 21792, Note_on_c, 0, 59, 75
1, 21815, Note_on_c, 0, 59, 0
1, 21816, Note_on_c, 0, 57, 75
1, 21839, Note_on_c, 0, 57, 0
1, 21840, Note_on_c, 0, 56, 75
1, 21863, Note_on_c, 0, 56, 0
1, 21864, Note_on_c, 0, 54, 75
1, 21887, Note_on_c, 0, 54, 0
1, 21888, Note_on_c, 1, 52, 75
1, 21888, Note_on_c, 1, 40, 75
1, 21911, Note_on_c, 1, 52, 0
1, 21912, Note_on_c, 1, 51, 75
1, 21935, Note_on_c, 1, 51, 0
1, 21936, Note_on_c, 1, 52, 75
1, 21959, Note_on_c, 1, 52, 0
1, 21960, Note_on_c, 1, 54, 75
1, 21977, Note_on_c, 1, 40, 0
1, 21983, Note_on_c, 1, 54, 0
1, 21984, Note_on_c, 1, 52, 75
1, 22007, Note_on_c, 1, 52, 0
1, 22008, Note_on_c, 1, 50, 75
1, 22031, Note_on_c, 1, 50, 0
1, 22032, Note_on_c, 1, 49, 75
1, 22055, Note_on_c, 1, 49, 0
1, 22056, Note_on_c, 1, 47, 75
1, 22079, Note_on_c, 1, 47, 0
1, 22080, Note_on_c, 0, 73, 75
1, 22080, Note_on_c, 1, 45, 75
1, 22103, Note_on_c, 0, 73, 0
1, 22104, Note_on_c, 0, 74, 75
1, 22127, Note_on_c, 0, 74, 0
1, 22128, Note_on_c, 0, 76, 75
1, 22151, Note_on_c, 0, 76, 0
1, 22152, Note_on_c, 0, 73, 75
1, 22169, Note_on_c, 1, 45, 0
1, 22175, Note_on_c, 0, 73, 0
1, 22176, Note_on_c, 0, 71, 75
1, 22199, Note_on_c, 0, 71, 0
1, 22200, Note_on_c, 0, 69, 75
1, 22223, Note_on_c, 0, 69, 0
1, 22224, Note_on_c, 0, 68, 75
1, 22247, Note_on_c, 0, 68, 0
1, 22248, Note_on_c, 0, 69, 75
1, 22271, Note_on_c, 0, 69, 0
1, 22272, Note_on_c, 0, 78, 75
1, 22272, Note_on_c, 1, 62, 75
1, 22295, Note_on_c, 0, 78, 0
1, 22296, Note_on_c, 0, 80, 75
1, 22319, Note_on_c, 0, 80, 0
1, 22320, Note_on_c, 0, 81, 75
1, 22343, Note_on_c, 0, 81, 0
1, 22344, Note_on_c, 0, 78, 75
1, 22361, Note_on_c, 1, 62, 0
1, 22367, Note_on_c, 0, 78, 0
1, 22368, Note_on_c, 0, 76, 75
1, 22391, Note_on_c, 0, 76, 0
1, 22392, Note_on_c, 0, 74, 75
1, 22415, Note_on_c, 0, 74, 0
1, 22416, Note_on_c, 0, 73, 75
1, 22439, Note_on_c, 0, 73, 0
1, 22440, Note_on_c, 0, 71, 75
1, 22463, Note_on_c, 0, 71, 0
1, 22464, Note_on_c, 0, 70, 75
1, 22464, Note_on_c, 1, 38, 75
1, 22488, Note_on_c, 0, 70, 0
1, 22488, Note_on_c, 0, 71, 75
1, 22511, Note_on_c, 0, 71, 0
1, 22512, Note_on_c, 0, 73, 75
1, 22536, Note_on_c, 0, 73, 0
1, 22536, Note_on_c, 0, 71, 75
1, 22546, Note_on_c, 0, 71, 0
1, 22553, Note_on_c, 1, 38, 0
1, 22560, Note_on_c, 0, 74, 75
1, 22584, Note_on_c, 0, 74, 0
1, 22584, Note_on_c, 0, 73, 75
1, 22594, Note_on_c, 0, 73, 0
1, 22608, Note_on_c, 0, 76, 75
1, 22632, Note_on_c, 0, 76, 0
1, 22632, Note_on_c, 0, 74, 75
1, 22642, Note_on_c, 0, 74, 0
1, 22656, Note_on_c, 0, 78, 75
1, 22701, Note_on_c, 0, 78, 0
1, 22752, Note_on_c, 0, 76, 75
1, 22775, Note_on_c, 0, 76, 0
1, 22776, Note_on_c, 0, 74, 75
1, 22799, Note_on_c, 0, 74, 0
1, 22800, Note_on_c, 0, 73, 75
1, 22823, Note_on_c, 0, 73, 0
1, 22824, Note_on_c, 0, 71, 75
1, 22847, Note_on_c, 0, 71, 0
1, 22848, Note_on_c, 0, 69, 75
1, 22896, Note_on_c, 1, 57, 75
1, 22896, Note_on_c, 1, 49, 75
1, 22937, Note_on_c, 0, 69, 0
1, 22941, Note_on_c, 1, 49, 0
1, 22944, Note_on_c, 0, 71, 75
1, 22944, Note_on_c, 1, 50, 75
1, 22955, Note_on_c, 0, 71, 0
1, 22955, Note_on_c, 0, 73, 75
1, 22966, Note_on_c, 0, 73, 0
1, 22966, Note_on_c, 0, 71, 75
1, 22977, Note_on_c, 0, 71, 0
1, 22977, Note_on_c, 0, 73, 75
1, 22985, Note_on_c, 1, 57, 0
1, 22988, Note_on_c, 0, 73, 0
1, 22988, Note_on_c, 0, 71, 75
1, 22989, Note_on_c, 1, 50, 0
1, 22992, Note_on_c, 1, 56, 75
1, 22992, Note_on_c, 1, 52, 75
1, 22999, Note_on_c, 0, 71, 0
1, 22999, Note_on_c, 0, 73, 75
1, 23010, Note_on_c, 0, 73, 0
1, 23010, Note_on_c, 0, 71, 75
1, 23020, Note_on_c, 0, 71, 0
1, 23020, Note_on_c, 0, 69, 75
1, 23030, Note_on_c, 0, 69, 0
1, 23030, Note_on_c, 0, 71, 75
1, 23037, Note_on_c, 1, 56, 0
1, 23037, Note_on_c, 1, 52, 0
1, 23040, Note_on_c, 0, 71, 0
1, 23040, Note_on_c, 0, 73, 75
1, 23040, Note_on_c, 1, 57, 75
1, 23040, Note_on_c, 1, 45, 75
1, 23063, Note_on_c, 0, 73, 0
1, 23064, Note_on_c, 0, 74, 75
1, 23085, Note_on_c, 1, 57, 0
1, 23085, Note_on_c, 1, 45, 0
1, 23087, Note_on_c, 0, 74, 0
1, 23088, Note_on_c, 0, 76, 75
1, 23111, Note_on_c, 0, 76, 0
1, 23112, Note_on_c, 0, 73, 75
1, 23135, Note_on_c, 0, 73, 0
1, 23136, Note_on_c, 0, 71, 75
1, 23136, Note_on_c, 1, 61, 75
1, 23159, Note_on_c, 0, 71, 0
1, 23160, Note_on_c, 0, 69, 75
1, 23181, Note_on_c, 1, 61, 0
1, 23183, Note_on_c, 0, 69, 0
1, 23184, Note_on_c, 0, 68, 75
1, 23207, Note_on_c, 0, 68, 0
1, 23208, Note_on_c, 0, 69, 75
1, 23231, Note_on_c, 0, 69, 0
1, 23232, Note_on_c, 0, 78, 75
1, 23232, Note_on_c, 1, 62, 75
1, 23255, Note_on_c, 0, 78, 0
1, 23256, Note_on_c, 0, 80, 74
1, 23279, Note_on_c, 0, 80, 0
1, 23280, Note_on_c, 0, 81, 73
1, 23303, Note_on_c, 0, 81, 0
1, 23304, Note_on_c, 0, 78, 73
1, 23321, Note_on_c, 1, 62, 0
1, 23327, Note_on_c, 0, 78, 0
1, 23328, Note_on_c, 0, 76, 72
1, 23351, Note_on_c, 0, 76, 0
1, 23352, Note_on_c, 0, 74, 71
1, 23375, Note_on_c, 0, 74, 0
1, 23376, Note_on_c, 0, 73, 71
1, 23399, Note_on_c, 0, 73, 0
1, 23400, Note_on_c, 0, 71, 70
1, 23423, Note_on_c, 0, 71, 0
1, 23424, Note_on_c, 0, 70, 69
1, 23424, Note_on_c, 1, 38, 75
1, 23448, Note_on_c, 0, 70, 0
1, 23448, Note_on_c, 0, 71, 69
1, 23471, Note_on_c, 0, 71, 0
1, 23472, Note_on_c, 0, 73, 69
1, 23496, Note_on_c, 0, 73, 0
1, 23496, Note_on_c, 0, 71, 69
1, 23506, Note_on_c, 0, 71, 0
1, 23513, Note_on_c, 1, 38, 0
1, 23520, Note_on_c, 0, 74, 69
1, 23544, Note_on_c, 0, 74, 0
1, 23544, Note_on_c, 0, 73, 69
1, 23554, Note_on_c, 0, 73, 0
1, 23568, Note_on_c, 0, 76, 69
1, 23592, Note_on_c, 0, 76, 0
1, 23592, Note_on_c, 0, 74, 69
1, 23602, Note_on_c, 0, 74, 0
1, 23616, Note_on_c, 0, 78, 69
1, 23661, Note_on_c, 0, 78, 0
1, 23760, Note_on_c, 0, 74, 61
1, 23808, Note_on_c, 0, 74, 0
1, 23808, Note_on_c, 0, 73, 61
1, 23828, Note_on_c, 0, 73, 0
1, 23856, Note_on_c, 0, 76, 61
1, 23904, Note_on_c, 0, 76, 0
1, 23904, Note_on_c, 0, 74, 61
1, 23924, Note_on_c, 0, 74, 0
1, 23952, Note_on_c, 0, 78, 61
1, 24089, Note_on_c, 0, 78, 0
1, 24192, Note_on_c, 0, 74, 53
1, 24288, Note_on_c, 0, 74, 0
1, 24288, Note_on_c, 0, 73, 53
1, 24327, Note_on_c, 0, 73, 0
1, 24384, Note_on_c, 0, 76, 53
1, 24480, Note_on_c, 0, 76, 0
1, 24480, Note_on_c, 0, 74, 53
1, 24519, Note_on_c, 0, 74, 0
1, 24576, Note_on_c, 0, 78, 53
1, 24857, Note_on_c, 0, 78, 0
1, 24912, Note_on_c, 0, 65, 84
1, 24924, Note_on_c, 0, 65, 0
1, 24924, Note_on_c, 0, 77, 84
1, 24957, Note_on_c, 0, 77, 0
1, 24960, Note_on_c, 0, 66, 84
1, 24972, Note_on_c, 0, 66, 0
1, 24972, Note_on_c, 0, 78, 84
1, 25005, Note_on_c, 0, 78, 0
1, 25008, Note_on_c, 0, 70, 84
1, 25020, Note_on_c, 0, 70, 0
1, 25020, Note_on_c, 0, 82, 84
1, 25053, Note_on_c, 0, 82, 0
1, 25056, Note_on_c, 0, 71, 84
1, 25068, Note_on_c, 0, 71, 0
1, 25068, Note_on_c, 0, 83, 84
1, 25101, Note_on_c, 0, 83, 0
1, 25104, Note_on_c, 0, 73, 84
1, 25116, Note_on_c, 0, 73, 0
1, 25116, Note_on_c, 0, 85, 84
1, 25149, Note_on_c, 0, 85, 0
1, 25152, Note_on_c, 0, 74, 84
1, 25152, Note_on_c, 1, 71, 61
1, 25152, Note_on_c, 1, 66, 61
1, 25152, Note_on_c, 1, 62, 61
1, 25164, Note_on_c, 0, 74, 0
1, 25164, Note_on_c, 0, 86, 100
1, 25197, Note_on_c, 1, 71, 0
1, 25197, Note_on_c, 1, 66, 0
1, 25197, Note_on_c, 1, 62, 0
1, 25200, Note_on_c, 1, 71, 61
1, 25200, Note_on_c, 1, 66, 61
1, 25200, Note_on_c, 1, 62, 61
1, 25224, Note_on_c, 0, 86, 0
1, 25224, Note_on_c, 0, 83, 84
1, 25245, Note_on_c, 1, 71, 0
1, 25245, Note_on_c, 1, 66, 0
1, 25245, Note_on_c, 1, 62, 0
1, 25247, Note_on_c, 0, 83, 0
1, 25248, Note_on_c, 0, 86, 84
1, 25248, Note_on_c, 1, 71, 61
1, 25248, Note_on_c, 1, 66, 61
1, 25248, Note_on_c, 1, 62, 61
1, 25271, Note_on_c, 0, 86, 0
1, 25272, Note_on_c, 0, 83, 84
1, 25293, Note_on_c, 1, 71, 0
1, 25293, Note_on_c, 1, 66, 0
1, 25293, Note_on_c, 1, 62, 0
1, 25295, Note_on_c, 0, 83, 0
1, 25296, Note_on_c, 0, 86, 84
1, 25296, Note_on_c, 1, 71, 61
1, 25296, Note_on_c, 1, 66, 61
1, 25296, Note_on_c, 1, 62, 61
1, 25319, Note_on_c, 0, 86, 0
1, 25320, Note_on_c, 0, 83, 84
1, 25341, Note_on_c, 1, 71, 0
1, 25341, Note_on_c, 1, 66, 0
1, 25341, Note_on_c, 1, 62, 0
1, 25343, Note_on_c, 0, 83, 0
1, 25344, Note_on_c, 0, 76, 84
1, 25344, Note_on_c, 1, 73, 61
1, 25344, Note_on_c, 1, 69, 61
1, 25344, Note_on_c, 1, 64, 61
1, 25389, Note_on_c, 1, 73, 0
1, 25389, Note_on_c, 1, 69, 0
1, 25389, Note_on_c, 1, 64, 0
1, 25392, Note_on_c, 1, 73, 61
1, 25392, Note_on_c, 1, 69, 61
1, 25392, Note_on_c, 1, 64, 61
1, 25411, Note_on_c, 0, 76, 0
1, 25416, Note_on_c, 0, 81, 84
1, 25428, Note_on_c, 0, 81, 0
1, 25428, Note_on_c, 0, 85, 84
1, 25437, Note_on_c, 1, 73, 0
1, 25437, Note_on_c, 1, 69, 0
1, 25437, Note_on_c, 1, 64, 0
1, 25440, Note_on_c, 0, 85, 0
1, 25440, Note_on_c, 0, 88, 100
1, 25440, Note_on_c, 1, 73, 61
1, 25440, Note_on_c, 1, 69, 61
1, 25440, Note_on_c, 1, 64, 61
1, 25485, Note_on_c, 1, 73, 0
1, 25485, Note_on_c, 1, 69, 0
1, 25485, Note_on_c, 1, 64, 0
1, 25488, Note_on_c, 1, 73, 61
1, 25488, Note_on_c, 1, 69, 61
1, 25488, Note_on_c, 1, 64, 61
1, 25512, Note_on_c, 0, 88, 0
1, 25512, Note_on_c, 0, 81, 84
1, 25524, Note_on_c, 0, 81, 0
1, 25524, Note_on_c, 0, 85, 84
1, 25533, Note_on_c, 1, 73, 0
1, 25533, Note_on_c, 1, 69, 0
1, 25533, Note_on_c, 1, 64, 0
1, 25536, Note_on_c, 0, 85, 0
1, 25536, Note_on_c, 0, 83, 84
1, 25536, Note_on_c, 1, 68, 61
1, 25536, Note_on_c, 1, 64, 61
1, 25548, Note_on_c, 0, 83, 0
1, 25549, Note_on_c, 0, 85, 84
1, 25561, Note_on_c, 0, 85, 0
1, 25562, Note_on_c, 0, 83, 84
1, 25574, Note_on_c, 0, 83, 0
1, 25575, Note_on_c, 0, 85, 84
1, 25581, Note_on_c, 1, 68, 0
1, 25581, Note_on_c, 1, 64, 0
1, 25584, Note_on_c, 1, 68, 61
1, 25584, Note_on_c, 1, 64, 61
1, 25587, Note_on_c, 0, 85, 0
1, 25588, Note_on_c, 0, 83, 84
1, 25600, Note_on_c, 0, 83, 0
1, 25601, Note_on_c, 0, 85, 84
1, 25613, Note_on_c, 0, 85, 0
1, 25614, Note_on_c, 0, 83, 84
1, 25626, Note_on_c, 0, 83, 0
1, 25627, Note_on_c, 0, 85, 84
1, 25629, Note_on_c, 1, 68, 0
1, 25629, Note_on_c, 1, 64, 0
1, 25632, Note_on_c, 1, 68, 61
1, 25632, Note_on_c, 1, 64, 61
1, 25639, Note_on_c, 0, 85, 0
1, 25640, Note_on_c, 0, 83, 84
1, 25652, Note_on_c, 0, 83, 0
1, 25653, Note_on_c, 0, 85, 84
1, 25665, Note_on_c, 0, 85, 0
1, 25666, Note_on_c, 0, 83, 84
1, 25677, Note_on_c, 1, 68, 0
1, 25677, Note_on_c, 1, 64, 0
1, 25678, Note_on_c, 0, 83, 0
1, 25679, Note_on_c, 0, 81, 84
1, 25680, Note_on_c, 1, 68, 61
1, 25680, Note_on_c, 1, 64, 61
1, 25704, Note_on_c, 0, 81, 0
1, 25704, Note_on_c, 0, 83, 84
1, 25725, Note_on_c, 1, 68, 0
1, 25725, Note_on_c, 1, 64, 0
1, 25728, Note_on_c, 0, 83, 0
1, 25728, Note_on_c, 0, 81, 84
1, 25728, Note_on_c, 1, 57, 69
1, 25751, Note_on_c, 1, 57, 0
1, 25752, Note_on_c, 1, 69, 69
1, 25775, Note_on_c, 1, 69, 0
1, 25776, Note_on_c, 1, 68, 69
1, 25799, Note_on_c, 1, 68, 0
1, 25800, Note_on_c, 1, 69, 69
1, 25817, Note_on_c, 0, 81, 0
1, 25823, Note_on_c, 1, 69, 0
1, 25824, Note_on_c, 1, 61, 69
1, 25847, Note_on_c, 1, 61, 0
1, 25848, Note_on_c, 1, 69, 69
1, 25871, Note_on_c, 1, 69, 0
1, 25872, Note_on_c, 0, 76, 84
1, 25872, Note_on_c, 1, 68, 69
1, 25895, Note_on_c, 1, 68, 0
1, 25896, Note_on_c, 1, 69, 69
1, 25917, Note_on_c, 0, 76, 0
1, 25919, Note_on_c, 1, 69, 0
1, 25920, Note_on_c, 0, 78, 84
1, 25920, Note_on_c, 1, 62, 69
1, 25932, Note_on_c, 0, 78, 0
1, 25932, Note_on_c, 0, 80, 84
1, 25943, Note_on_c, 1, 62, 0
1, 25944, Note_on_c, 0, 80, 0
1, 25944, Note_on_c, 0, 78, 84
1, 25944, Note_on_c, 1, 69, 69
1, 25965, Note_on_c, 0, 78, 0
1, 25967, Note_on_c, 1, 69, 0
1, 25968, Note_on_c, 0, 76, 84
1, 25968, Note_on_c, 1, 61, 69
1, 25991, Note_on_c, 1, 61, 0
1, 25992, Note_on_c, 1, 69, 69
1, 26013, Note_on_c, 0, 76, 0
1, 26015, Note_on_c, 1, 69, 0
1, 26016, Note_on_c, 0, 78, 84
1, 26016, Note_on_c, 1, 62, 69
1, 26028, Note_on_c, 0, 78, 0
1, 26028, Note_on_c, 0, 80, 84
1, 26039, Note_on_c, 1, 62, 0
1, 26040, Note_on_c, 0, 80, 0
1, 26040, Note_on_c, 0, 78, 84
1, 26040, Note_on_c, 1, 69, 69
1, 26061, Note_on_c, 0, 78, 0
1, 26063, Note_on_c, 1, 69, 0
1, 26064, Note_on_c, 0, 76, 84
1, 26064, Note_on_c, 1, 61, 69
1, 26087, Note_on_c, 1, 61, 0
1, 26088, Note_on_c, 1, 69, 69
1, 26109, Note_on_c, 0, 76, 0
1, 26111, Note_on_c, 1, 69, 0
1, 26112, Note_on_c, 0, 76, 100
1, 26112, Note_on_c, 1, 68, 69
1, 26112, Note_on_c, 1, 59, 69
1, 26124, Note_on_c, 0, 80, 100
1, 26136, Note_on_c, 0, 83, 100
1, 26148, Note_on_c, 0, 86, 100
1, 26201, Note_on_c, 1, 68, 0
1, 26201, Note_on_c, 1, 59, 0
1, 26208, Note_on_c, 0, 86, 0
1, 26208, Note_on_c, 0, 83, 0
1, 26208, Note_on_c, 0, 80, 0
1, 26208, Note_on_c, 0, 76, 0
1, 26256, Note_on_c, 0, 85, 84
1, 26256, Note_on_c, 1, 69, 69
1, 26256, Note_on_c, 1, 57, 69
1, 26301, Note_on_c, 0, 85, 0
1, 26301, Note_on_c, 1, 69, 0
1, 26301, Note_on_c, 1, 57, 0
1, 26304, Note_on_c, 0, 85, 84
1, 26304, Note_on_c, 1, 66, 69
1, 26304, Note_on_c, 1, 62, 69
1, 26316, Note_on_c, 0, 85, 0
1, 26316, Note_on_c, 0, 83, 84
1, 26328, Note_on_c, 0, 83, 0
1, 26328, Note_on_c, 0, 82, 84
1, 26340, Note_on_c, 0, 82, 0
1, 26340, Note_on_c, 0, 83, 84
1, 26349, Note_on_c, 1, 66, 0
1, 26349, Note_on_c, 1, 62, 0
1, 26352, Note_on_c, 0, 83, 0
1, 26352, Note_on_c, 0, 86, 84
1, 26397, Note_on_c, 0, 86, 0
1, 26400, Note_on_c, 0, 78, 84
1, 26400, Note_on_c, 1, 64, 69
1, 26400, Note_on_c, 1, 52, 69
1, 26412, Note_on_c, 0, 78, 0
1, 26412, Note_on_c, 0, 76, 84
1, 26424, Note_on_c, 0, 76, 0
1, 26424, Note_on_c, 0, 75, 84
1, 26436, Note_on_c, 0, 75, 0
1, 26436, Note_on_c, 0, 76, 84
1, 26445, Note_on_c, 1, 64, 0
1, 26445, Note_on_c, 1, 52, 0
1, 26448, Note_on_c, 0, 76, 0
1, 26448, Note_on_c, 0, 80, 84
1, 26448, Note_on_c, 0, 74, 84
1, 26493, Note_on_c, 0, 80, 0
1, 26493, Note_on_c, 0, 74, 0
1, 26496, Note_on_c, 0, 81, 84
1, 26496, Note_on_c, 0, 73, 84
1, 26496, Note_on_c, 1, 57, 69
1, 26519, Note_on_c, 1, 57, 0
1, 26520, Note_on_c, 1, 69, 69
1, 26543, Note_on_c, 1, 69, 0
1, 26544, Note_on_c, 1, 68, 69
1, 26567, Note_on_c, 1, 68, 0
1, 26568, Note_on_c, 1, 69, 69
1, 26585, Note_on_c, 0, 81, 0
1, 26585, Note_on_c, 0, 73, 0
1, 26591, Note_on_c, 1, 69, 0
1, 26592, Note_on_c, 1, 61, 69
1, 26615, Note_on_c, 1, 61, 0
1, 26616, Note_on_c, 1, 69, 69
1, 26639, Note_on_c, 1, 69, 0
1, 26640, Note_on_c, 0, 76, 84
1, 26640, Note_on_c, 1, 68, 69
1, 26663, Note_on_c, 1, 68, 0
1, 26664, Note_on_c, 1, 69, 69
1, 26685, Note_on_c, 0, 76, 0
1, 26687, Note_on_c, 1, 69, 0
1, 26688, Note_on_c, 0, 78, 84
1, 26688, Note_on_c, 1, 62, 69
1, 26700, Note_on_c, 0, 78, 0
1, 26700, Note_on_c, 0, 80, 84
1, 26711, Note_on_c, 1, 62, 0
1, 26712, Note_on_c, 0, 80, 0
1, 26712, Note_on_c, 0, 78, 84
1, 26712, Note_on_c, 1, 69, 69
1, 26733, Note_on_c, 0, 78, 0
1, 26735, Note_on_c, 1, 69, 0
1, 26736, Note_on_c, 0, 76, 84
1, 26736, Note_on_c, 1, 61, 69
1, 26759, Note_on_c, 1, 61, 0
1, 26760, Note_on_c, 1, 69, 69
1, 26781, Note_on_c, 0, 76, 0
1, 26783, Note_on_c, 1, 69, 0
1, 26784, Note_on_c, 0, 78, 84
1, 26784, Note_on_c, 1, 62, 69
1, 26796, Note_on_c, 0, 78, 0
1, 26796, Note_on_c, 0, 80, 84
1, 26807, Note_on_c, 1, 62, 0
1, 26808, Note_on_c, 0, 80, 0
1, 26808, Note_on_c, 0, 78, 84
1, 26808, Note_on_c, 1, 69, 69
1, 26829, Note_on_c, 0, 78, 0
1, 26831, Note_on_c, 1, 69, 0
1, 26832, Note_on_c, 0, 76, 84
1, 26832, Note_on_c, 1, 61, 69
1, 26855, Note_on_c, 1, 61, 0
1, 26856, Note_on_c, 1, 69, 69
1, 26877, Note_on_c, 0, 76, 0
1, 26879, Note_on_c, 1, 69, 0
1, 26880, Note_on_c, 0, 76, 100
1, 26880, Note_on_c, 1, 68, 69
1, 26880, Note_on_c, 1, 59, 69
1, 26892, Note_on_c, 0, 80, 100
1, 26904, Note_on_c, 0, 83, 100
1, 26916, Note_on_c, 0, 86, 100
1, 26969, Note_on_c, 1, 68, 0
1, 26969, Note_on_c, 1, 59, 0
1, 26976, Note_on_c, 0, 86, 0
1, 26976, Note_on_c, 0, 83, 0
1, 26976, Note_on_c, 0, 80, 0
1, 26976, Note_on_c, 0, 76, 0
1, 27024, Note_on_c, 0, 85, 84
1, 27024, Note_on_c, 1, 69, 69
1, 27024, Note_on_c, 1, 57, 69
1, 27069, Note_on_c, 0, 85, 0
1, 27069, Note_on_c, 1, 69, 0
1, 27069, Note_on_c, 1, 57, 0
1, 27072, Note_on_c, 0, 85, 84
1, 27072, Note_on_c, 1, 66, 69
1, 27072, Note_on_c, 1, 62, 69
1, 27084, Note_on_c, 0, 85, 0
1, 27084, Note_on_c, 0, 83, 84
1, 27096, Note_on_c, 0, 83, 0
1, 27096, Note_on_c, 0, 82, 84
1, 27108, Note_on_c, 0, 82, 0
1, 27108, Note_on_c, 0, 83, 84
1, 27117, Note_on_c, 1, 66, 0
1, 27117, Note_on_c, 1, 62, 0
1, 27120, Note_on_c, 0, 83, 0
1, 27120, Note_on_c, 0, 86, 84
1, 27165, Note_on_c, 0, 86, 0
1, 27168, Note_on_c, 0, 78, 84
1, 27168, Note_on_c, 1, 64, 69
1, 27168, Note_on_c, 1, 52, 69
1, 27180, Note_on_c, 0, 78, 0
1, 27180, Note_on_c, 0, 76, 84
1, 27192, Note_on_c, 0, 76, 0
1, 27192, Note_on_c, 0, 75, 84
1, 27204, Note_on_c, 0, 75, 0
1, 27204, Note_on_c, 0, 76, 84
1, 27213, Note_on_c, 1, 64, 0
1, 27213, Note_on_c, 1, 52, 0
1, 27216, Note_on_c, 0, 76, 0
1, 27216, Note_on_c, 0, 80, 84
1, 27216, Note_on_c, 0, 74, 84
1, 27261, Note_on_c, 0, 80, 0
1, 27261, Note_on_c, 0, 74, 0
1, 27264, Note_on_c, 0, 81, 84
1, 27264, Note_on_c, 0, 73, 84
1, 27264, Note_on_c, 1, 57, 69
1, 27264, Note_on_c, 1, 45, 69
1, 27309, Note_on_c, 0, 81, 0
1, 27309, Note_on_c, 0, 73, 0
1, 27309, Note_on_c, 1, 57, 0
1, 27309, Note_on_c, 1, 45, 0
1, 27360, Note_on_c, 1, 62, 84
1, 27360, Note_on_c, 1, 52, 84
1, 27384, Note_on_c, 0, 64, 82
1, 27405, Note_on_c, 1, 62, 0
1, 27405, Note_on_c, 1, 52, 0
1, 27407, Note_on_c, 0, 64, 0
1, 27408, Note_on_c, 0, 68, 80
1, 27431, Note_on_c, 0, 68, 0
1, 27432, Note_on_c, 0, 76, 78
1, 27455, Note_on_c, 0, 76, 0
1, 27456, Note_on_c, 1, 61, 77
1, 27456, Note_on_c, 1, 52, 77
1, 27480, Note_on_c, 0, 64, 74
1, 27501, Note_on_c, 1, 61, 0
1, 27501, Note_on_c, 1, 52, 0
1, 27503, Note_on_c, 0, 64, 0
1, 27504, Note_on_c, 0, 69, 72
1, 27527, Note_on_c, 0, 69, 0
1, 27528, Note_on_c, 0, 76, 70
1, 27551, Note_on_c, 0, 76, 0
1, 27552, Note_on_c, 1, 59, 70
1, 27552, Note_on_c, 1, 52, 70
1, 27576, Note_on_c, 0, 59, 66
1, 27597, Note_on_c, 1, 59, 0
1, 27597, Note_on_c, 1, 52, 0
1, 27599, Note_on_c, 0, 59, 0
1, 27600, Note_on_c, 0, 62, 64
1, 27623, Note_on_c, 0, 62, 0
1, 27624, Note_on_c, 0, 68, 62
1, 27647, Note_on_c, 0, 68, 0
1, 27648, Note_on_c, 0, 69, 60
1, 27648, Note_on_c, 0, 61, 60
1, 27648, Note_on_c, 1, 57, 63
1, 27648, Note_on_c, 1, 45, 63
1, 27737, Note_on_c, 0, 69, 0
1, 27737, Note_on_c, 0, 61, 0
1, 27737, Note_on_c, 1, 57, 0
1, 27737, Note_on_c, 1, 45, 0
1, 27840, Note_on_c, 1, 42, 84
1, 27840, Note_on_c, 1, 30, 84
1, 28032, Note_on_c, 1, 30, 0
1, 28128, Note_on_c, 0, 55, 75
1, 28140, Note_on_c, 0, 55, 0
1, 28140, Note_on_c, 0, 54, 75
1, 28152, Note_on_c, 0, 54, 0
1, 28152, Note_on_c, 0, 53, 75
1, 28164, Note_on_c, 0, 53, 0
1, 28164, Note_on_c, 0, 54, 75
1, 28176, Note_on_c, 0, 54, 0
1, 28176, Note_on_c, 0, 58, 75
1, 28176, Note_on_c, 1, 52, 75
1, 28221, Note_on_c, 0, 58, 0
1, 28221, Note_on_c, 1, 52, 0
1, 28224, Note_on_c, 0, 61, 75
1, 28224, Note_on_c, 1, 50, 75
1, 28236, Note_on_c, 0, 61, 0
1, 28236, Note_on_c, 0, 59, 75
1, 28248, Note_on_c, 0, 59, 0
1, 28248, Note_on_c, 0, 58, 75
1, 28260, Note_on_c, 0, 58, 0
1, 28260, Note_on_c, 0, 59, 75
1, 28269, Note_on_c, 1, 50, 0
1, 28272, Note_on_c, 0, 59, 0
1, 28272, Note_on_c, 0, 62, 75
1, 28272, Note_on_c, 1, 47, 75
1, 28317, Note_on_c, 0, 62, 0
1, 28317, Note_on_c, 1, 47, 0
1, 28320, Note_on_c, 0, 62, 75
1, 28320, Note_on_c, 1, 46, 75
1, 28332, Note_on_c, 0, 62, 0
1, 28332, Note_on_c, 0, 61, 75
1, 28344, Note_on_c, 0, 61, 0
1, 28344, Note_on_c, 0, 59, 75
1, 28356, Note_on_c, 0, 59, 0
1, 28356, Note_on_c, 0, 61, 75
1, 28365, Note_on_c, 1, 46, 0
1, 28368, Note_on_c, 0, 61, 0
1, 28368, Note_on_c, 0, 64, 75
1, 28368, Note_on_c, 1, 49, 75
1, 28401, Note_on_c, 1, 42, 0
1, 28413, Note_on_c, 0, 64, 0
1, 28413, Note_on_c, 1, 49, 0
1, 28416, Note_on_c, 0, 64, 75
1, 28416, Note_on_c, 1, 47, 75
1, 28428, Note_on_c, 0, 64, 0
1, 28428, Note_on_c, 0, 62, 75
1, 28440, Note_on_c, 0, 62, 0
1, 28440, Note_on_c, 0, 61, 75
1, 28452, Note_on_c, 0, 61, 0
1, 28452, Note_on_c, 0, 62, 75
1, 28464, Note_on_c, 0, 62, 0
1, 28464, Note_on_c, 0, 66, 75
1, 28505, Note_on_c, 1, 47, 0
1, 28509, Note_on_c, 0, 66, 0
1, 28560, Note_on_c, 0, 62, 75
1, 28572, Note_on_c, 0, 62, 0
1, 28572, Note_on_c, 0, 66, 75
1, 28584, Note_on_c, 0, 66, 0
1, 28584, Note_on_c, 0, 71, 75
1, 28596, Note_on_c, 0, 71, 0
1, 28596, Note_on_c, 0, 74, 76
1, 28608, Note_on_c, 0, 74, 0
1, 28608, Note_on_c, 0, 71, 77
1, 28656, Note_on_c, 0, 71, 0
1, 28656, Note_on_c, 0, 66, 80
1, 28701, Note_on_c, 0, 66, 0
1, 28704, Note_on_c, 0, 78, 84
1, 28724, Note_on_c, 0, 78, 0
1, 28752, Note_on_c, 0, 71, 81
1, 28752, Note_on_c, 1, 66, 75
1, 28752, Note_on_c, 1, 62, 75
1, 28772, Note_on_c, 0, 71, 0
1, 28772, Note_on_c, 1, 66, 0
1, 28772, Note_on_c, 1, 62, 0
1, 28800, Note_on_c, 0, 73, 79
1, 28800, Note_on_c, 1, 67, 75
1, 28800, Note_on_c, 1, 64, 75
1, 28812, Note_on_c, 0, 73, 0
1, 28812, Note_on_c, 0, 74, 79
1, 28820, Note_on_c, 1, 67, 0
1, 28820, Note_on_c, 1, 64, 0
1, 28824, Note_on_c, 0, 74, 0
1, 28824, Note_on_c, 0, 73, 79
1, 28845, Note_on_c, 0, 73, 0
1, 28848, Note_on_c, 0, 71, 77
1, 28848, Note_on_c, 1, 66, 75
1, 28848, Note_on_c, 1, 62, 75
1, 28868, Note_on_c, 1, 66, 0
1, 28868, Note_on_c, 1, 62, 0
1, 28893, Note_on_c, 0, 71, 0
1, 28944, Note_on_c, 0, 62, 75
1, 28956, Note_on_c, 0, 62, 0
1, 28956, Note_on_c, 0, 66, 76
1, 28968, Note_on_c, 0, 66, 0
1, 28968, Note_on_c, 0, 71, 77
1, 28980, Note_on_c, 0, 71, 0
1, 28980, Note_on_c, 0, 74, 78
1, 28992, Note_on_c, 0, 74, 0
1, 28992, Note_on_c, 0, 71, 79
1, 29040, Note_on_c, 0, 71, 0
1, 29040, Note_on_c, 0, 66, 84
1, 29085, Note_on_c, 0, 66, 0
1, 29088, Note_on_c, 0, 83, 82
1, 29108, Note_on_c, 0, 83, 0
1, 29136, Note_on_c, 0, 78, 80
1, 29136, Note_on_c, 1, 74, 75
1, 29136, Note_on_c, 1, 71, 75
1, 29156, Note_on_c, 0, 78, 0
1, 29156, Note_on_c, 1, 74, 0
1, 29156, Note_on_c, 1, 71, 0
1, 29184, Note_on_c, 0, 79, 78
1, 29184, Note_on_c, 1, 73, 75
1, 29184, Note_on_c, 1, 70, 75
1, 29196, Note_on_c, 0, 79, 0
1, 29196, Note_on_c, 0, 81, 78
1, 29204, Note_on_c, 1, 73, 0
1, 29204, Note_on_c, 1, 70, 0
1, 29208, Note_on_c, 0, 81, 0
1, 29208, Note_on_c, 0, 79, 78
1, 29229, Note_on_c, 0, 79, 0
1, 29232, Note_on_c, 0, 78, 76
1, 29232, Note_on_c, 1, 74, 75
1, 29232, Note_on_c, 1, 71, 75
1, 29252, Note_on_c, 1, 74, 0
1, 29252, Note_on_c, 1, 71, 0
1, 29277, Note_on_c, 0, 78, 0
1, 29328, Note_on_c, 0, 71, 75
1, 29340, Note_on_c, 0, 71, 0
1, 29340, Note_on_c, 0, 74, 77
1, 29352, Note_on_c, 0, 74, 0
1, 29352, Note_on_c, 0, 78, 79
1, 29364, Note_on_c, 0, 78, 0
1, 29364, Note_on_c, 0, 83, 81
1, 29376, Note_on_c, 0, 83, 0
1, 29376, Note_on_c, 0, 78, 84
1, 29424, Note_on_c, 0, 78, 0
1, 29424, Note_on_c, 0, 74, 82
1, 29469, Note_on_c, 0, 74, 0
1, 29472, Note_on_c, 0, 79, 81
1, 29472, Note_on_c, 1, 74, 75
1, 29472, Note_on_c, 1, 71, 75
1, 29492, Note_on_c, 0, 79, 0
1, 29492, Note_on_c, 1, 74, 0
1, 29492, Note_on_c, 1, 71, 0
1, 29520, Note_on_c, 0, 78, 79
1, 29520, Note_on_c, 1, 73, 75
1, 29520, Note_on_c, 1, 69, 75
1, 29540, Note_on_c, 0, 78, 0
1, 29540, Note_on_c, 1, 73, 0
1, 29540, Note_on_c, 1, 69, 0
1, 29568, Note_on_c, 0, 76, 78
1, 29568, Note_on_c, 1, 71, 75
1, 29568, Note_on_c, 1, 67, 75
1, 29580, Note_on_c, 0, 76, 0
1, 29580, Note_on_c, 0, 78, 78
1, 29588, Note_on_c, 1, 71, 0
1, 29588, Note_on_c, 1, 67, 0
1, 29592, Note_on_c, 0, 78, 0
1, 29592, Note_on_c, 0, 76, 78
1, 29613, Note_on_c, 0, 76, 0
1, 29616, Note_on_c, 0, 74, 76
1, 29616, Note_on_c, 1, 69, 75
1, 29616, Note_on_c, 1, 66, 75
1, 29636, Note_on_c, 1, 69, 0
1, 29636, Note_on_c, 1, 66, 0
1, 29661, Note_on_c, 0, 74, 0
1, 29760, Note_on_c, 1, 50, 84
1, 29784, Note_on_c, 0, 60, 75
1, 29807, Note_on_c, 0, 60, 0
1, 29808, Note_on_c, 0, 59, 75
1, 29831, Note_on_c, 0, 59, 0
1, 29832, Note_on_c, 0, 60, 75
1, 29855, Note_on_c, 0, 60, 0
1, 29856, Note_on_c, 0, 62, 75
1, 29879, Note_on_c, 0, 62, 0
1, 29880, Note_on_c, 0, 60, 75
1, 29903, Note_on_c, 0, 60, 0
1, 29904, Note_on_c, 0, 64, 75
1, 29927, Note_on_c, 0, 64, 0
1, 29928, Note_on_c, 0, 60, 75
1, 29951, Note_on_c, 0, 60, 0
1, 29952, Note_on_c, 1, 59, 75
1, 29976, Note_on_c, 0, 67, 75
1, 29999, Note_on_c, 0, 67, 0
1, 30000, Note_on_c, 0, 66, 75
1, 30023, Note_on_c, 0, 66, 0
1, 30024, Note_on_c, 0, 67, 75
1, 30047, Note_on_c, 0, 67, 0
1, 30048, Note_on_c, 0, 69, 75
1, 30071, Note_on_c, 0, 69, 0
1, 30072, Note_on_c, 0, 67, 75
1, 30095, Note_on_c, 0, 67, 0
1, 30096, Note_on_c, 0, 71, 75
1, 30119, Note_on_c, 0, 71, 0
1, 30120, Note_on_c, 0, 67, 75
1, 30129, Note_on_c, 1, 50, 0
1, 30143, Note_on_c, 0, 67, 0
1, 30144, Note_on_c, 0, 66, 75
1, 30144, Note_on_c, 1, 51, 84
1, 30167, Note_on_c, 1, 59, 0
1, 30168, Note_on_c, 1, 57, 75
1, 30191, Note_on_c, 1, 57, 0
1, 30192, Note_on_c, 1, 56, 75
1, 30215, Note_on_c, 1, 56, 0
1, 30216, Note_on_c, 1, 57, 75
1, 30239, Note_on_c, 1, 57, 0
1, 30240, Note_on_c, 1, 59, 75
1, 30263, Note_on_c, 1, 59, 0
1, 30264, Note_on_c, 1, 57, 75
1, 30287, Note_on_c, 1, 57, 0
1, 30288, Note_on_c, 1, 60, 75
1, 30311, Note_on_c, 1, 60, 0
1, 30312, Note_on_c, 1, 57, 75
1, 30321, Note_on_c, 0, 66, 0
1, 30321, Note_on_c, 1, 51, 0
1, 30336, Note_on_c, 0, 59, 75
1, 30336, Note_on_c, 1, 52, 84
1, 30359, Note_on_c, 0, 59, 0
1, 30360, Note_on_c, 0, 64, 75
1, 30383, Note_on_c, 0, 64, 0
1, 30384, Note_on_c, 0, 63, 75
1, 30407, Note_on_c, 0, 63, 0
1, 30408, Note_on_c, 0, 64, 75
1, 30425, Note_on_c, 1, 57, 0
1, 30431, Note_on_c, 0, 64, 0
1, 30432, Note_on_c, 0, 66, 75
1, 30432, Note_on_c, 1, 55, 75
1, 30455, Note_on_c, 0, 66, 0
1, 30456, Note_on_c, 0, 64, 75
1, 30479, Note_on_c, 0, 64, 0
1, 30480, Note_on_c, 0, 67, 75
1, 30503, Note_on_c, 0, 67, 0
1, 30504, Note_on_c, 0, 64, 75
1, 30513, Note_on_c, 1, 52, 0
1, 30521, Note_on_c, 1, 55, 0
1, 30527, Note_on_c, 0, 64, 0
1, 30528, Note_on_c, 0, 76, 75
1, 30528, Note_on_c, 0, 67, 75
1, 30552, Note_on_c, 1, 61, 84
1, 30575, Note_on_c, 1, 61, 0
1, 30576, Note_on_c, 1, 59, 84
1, 30599, Note_on_c, 1, 59, 0
1, 30600, Note_on_c, 1, 61, 84
1, 30623, Note_on_c, 1, 61, 0
1, 30624, Note_on_c, 1, 62, 84
1, 30647, Note_on_c, 1, 62, 0
1, 30648, Note_on_c, 1, 61, 84
1, 30671, Note_on_c, 1, 61, 0
1, 30672, Note_on_c, 1, 64, 84
1, 30695, Note_on_c, 1, 64, 0
1, 30696, Note_on_c, 1, 59, 84
1, 30705, Note_on_c, 0, 76, 0
1, 30705, Note_on_c, 0, 67, 0
1, 30719, Note_on_c, 1, 59, 0
1, 30720, Note_on_c, 1, 66, 84
1, 30720, Note_on_c, 1, 58, 84
1, 30744, Note_on_c, 0, 76, 75
1, 30767, Note_on_c, 0, 76, 0
1, 30768, Note_on_c, 0, 75, 75
1, 30791, Note_on_c, 0, 75, 0
1, 30792, Note_on_c, 0, 76, 75
1, 30815, Note_on_c, 0, 76, 0
1, 30816, Note_on_c, 0, 78, 75
1, 30839, Note_on_c, 0, 78, 0
1, 30840, Note_on_c, 0, 76, 75
1, 30863, Note_on_c, 0, 76, 0
1, 30864, Note_on_c, 0, 79, 75
1, 30887, Note_on_c, 0, 79, 0
1, 30888, Note_on_c, 0, 76, 75
1, 30911, Note_on_c, 0, 76, 0
1, 30912, Note_on_c, 0, 74, 75
1, 30912, Note_on_c, 1, 58, 0
1, 30912, Note_on_c, 1, 59, 84
1, 30935, Note_on_c, 0, 74, 0
1, 30936, Note_on_c, 0, 83, 75
1, 30959, Note_on_c, 0, 83, 0
1, 30960, Note_on_c, 0, 82, 75
1, 30983, Note_on_c, 0, 82, 0
1, 30984, Note_on_c, 0, 83, 75
1, 31001, Note_on_c, 1, 66, 0
1, 31001, Note_on_c, 1, 59, 0
1, 31007, Note_on_c, 0, 83, 0
1, 31008, Note_on_c, 0, 85, 75
1, 31008, Note_on_c, 1, 65, 84
1, 31008, Note_on_c, 1, 55, 84
1, 31031, Note_on_c, 0, 85, 0
1, 31032, Note_on_c, 0, 83, 75
1, 31055, Note_on_c, 0, 83, 0
1, 31056, Note_on_c, 0, 86, 75
1, 31079, Note_on_c, 0, 86, 0
1, 31080, Note_on_c, 0, 83, 75
1, 31097, Note_on_c, 1, 65, 0
1, 31097, Note_on_c, 1, 55, 0
1, 31103, Note_on_c, 0, 83, 0
1, 31104, Note_on_c, 0, 82, 75
1, 31104, Note_on_c, 1, 66, 84
1, 31104, Note_on_c, 1, 54, 84
1, 31127, Note_on_c, 0, 82, 0
1, 31128, Note_on_c, 0, 85, 75
1, 31151, Note_on_c, 0, 85, 0
1, 31152, Note_on_c, 0, 78, 75
1, 31175, Note_on_c, 0, 78, 0
1, 31176, Note_on_c, 0, 82, 75
1, 31193, Note_on_c, 1, 66, 0
1, 31193, Note_on_c, 1, 54, 0
1, 31199, Note_on_c, 0, 82, 0
1, 31200, Note_on_c, 0, 73, 75
1, 31223, Note_on_c, 0, 73, 0
1, 31224, Note_on_c, 0, 78, 75
1, 31247, Note_on_c, 0, 78, 0
1, 31248, Note_on_c, 0, 70, 75
1, 31271, Note_on_c, 0, 70, 0
1, 31272, Note_on_c, 0, 73, 75
1, 31295, Note_on_c, 0, 73, 0
1, 31296, Note_on_c, 0, 66, 75
1, 31296, Note_on_c, 1, 42, 84
1, 31390, Note_on_c, 0, 66, 0
1, 31390, Note_on_c, 1, 42, 0
1, 31440, Note_on_c, 0, 66, 85
1, 31488, Note_on_c, 0, 66, 0
1, 31488, Note_on_c, 0, 71, 70
1, 31512, Note_on_c, 0, 71, 0
1, 31512, Note_on_c, 0, 70, 70
1, 31535, Note_on_c, 0, 70, 0
1, 31536, Note_on_c, 0, 73, 71
1, 31560, Note_on_c, 0, 73, 0
1, 31560, Note_on_c, 0, 71, 72
1, 31583, Note_on_c, 0, 71, 0
1, 31584, Note_on_c, 0, 74, 72
1, 31608, Note_on_c, 0, 74, 0
1, 31608, Note_on_c, 0, 73, 73
1, 31631, Note_on_c, 0, 73, 0
1, 31632, Note_on_c, 0, 76, 73
1, 31656, Note_on_c, 0, 76, 0
1, 31656, Note_on_c, 0, 74, 74
1, 31679, Note_on_c, 0, 74, 0
1, 31680, Note_on_c, 0, 74, 75
1, 31680, Note_on_c, 0, 71, 75
1, 31728, Note_on_c, 1, 53, 84
1, 31776, Note_on_c, 0, 74, 0
1, 31776, Note_on_c, 0, 71, 0
1, 31776, Note_on_c, 0, 73, 75
1, 31776, Note_on_c, 0, 70, 75
1, 31776, Note_on_c, 1, 53, 0
1, 31776, Note_on_c, 1, 54, 84
1, 31821, Note_on_c, 0, 73, 0
1, 31821, Note_on_c, 0, 70, 0
1, 31821, Note_on_c, 1, 54, 0
1, 31824, Note_on_c, 0, 66, 85
1, 31872, Note_on_c, 0, 66, 0
1, 31872, Note_on_c, 0, 73, 70
1, 31896, Note_on_c, 0, 73, 0
1, 31896, Note_on_c, 0, 71, 70
1, 31919, Note_on_c, 0, 71, 0
1, 31920, Note_on_c, 0, 74, 71
1, 31944, Note_on_c, 0, 74, 0
1, 31944, Note_on_c, 0, 73, 72
1, 31967, Note_on_c, 0, 73, 0
1, 31968, Note_on_c, 0, 76, 72
1, 31992, Note_on_c, 0, 76, 0
1, 31992, Note_on_c, 0, 74, 73
1, 32015, Note_on_c, 0, 74, 0
1, 32016, Note_on_c, 0, 78, 73
1, 32040, Note_on_c, 0, 78, 0
1, 32040, Note_on_c, 0, 76, 74
1, 32063, Note_on_c, 0, 76, 0
1, 32064, Note_on_c, 0, 76, 75
1, 32064, Note_on_c, 0, 73, 75
1, 32112, Note_on_c, 1, 58, 84
1, 32160, Note_on_c, 0, 76, 0
1, 32160, Note_on_c, 0, 73, 0
1, 32160, Note_on_c, 0, 74, 75
1, 32160, Note_on_c, 0, 71, 75
1, 32160, Note_on_c, 1, 58, 0
1, 32160, Note_on_c, 1, 59, 84
1, 32205, Note_on_c, 0, 74, 0
1, 32205, Note_on_c, 0, 71, 0
1, 32205, Note_on_c, 1, 59, 0
1, 32208, Note_on_c, 0, 71, 75
1, 32253, Note_on_c, 0, 71, 0
1, 32256, Note_on_c, 0, 76, 75
1, 32280, Note_on_c, 0, 76, 0
1, 32280, Note_on_c, 0, 75, 75
1, 32303, Note_on_c, 0, 75, 0
1, 32304, Note_on_c, 0, 78, 75
1, 32304, Note_on_c, 1, 59, 84
1, 32324, Note_on_c, 1, 59, 0
1, 32328, Note_on_c, 0, 78, 0
1, 32328, Note_on_c, 0, 76, 75
1, 32351, Note_on_c, 0, 76, 0
1, 32352, Note_on_c, 0, 79, 75
1, 32352, Note_on_c, 1, 64, 84
1, 32372, Note_on_c, 1, 64, 0
1, 32376, Note_on_c, 0, 79, 0
1, 32376, Note_on_c, 0, 78, 75
1, 32399, Note_on_c, 0, 78, 0
1, 32400, Note_on_c, 0, 81, 75
1, 32400, Note_on_c, 1, 66, 84
1, 32420, Note_on_c, 1, 66, 0
1, 32424, Note_on_c, 0, 81, 0
1, 32424, Note_on_c, 0, 79, 75
1, 32447, Note_on_c, 0, 79, 0
1, 32448, Note_on_c, 0, 83, 75
1, 32448, Note_on_c, 1, 67, 84
1, 32471, Note_on_c, 0, 83, 0
1, 32472, Note_on_c, 0, 81, 75
1, 32495, Note_on_c, 0, 81, 0
1, 32496, Note_on_c, 0, 79, 75
1, 32519, Note_on_c, 0, 79, 0
1, 32520, Note_on_c, 0, 78, 75
1, 32537, Note_on_c, 1, 67, 0
1, 32543, Note_on_c, 0, 78, 0
1, 32544, Note_on_c, 0, 76, 75
1, 32567, Note_on_c, 0, 76, 0
1, 32568, Note_on_c, 0, 74, 75
1, 32591, Note_on_c, 0, 74, 0
1, 32592, Note_on_c, 0, 73, 75
1, 32592, Note_on_c, 1, 52, 84
1, 32615, Note_on_c, 0, 73, 0
1, 32616, Note_on_c, 0, 71, 75
1, 32637, Note_on_c, 1, 52, 0
1, 32639, Note_on_c, 0, 71, 0
1, 32640, Note_on_c, 0, 73, 75
1, 32640, Note_on_c, 1, 57, 84
1, 32660, Note_on_c, 1, 57, 0
1, 32664, Note_on_c, 0, 73, 0
1, 32664, Note_on_c, 0, 71, 75
1, 32687, Note_on_c, 0, 71, 0
1, 32688, Note_on_c, 0, 74, 75
1, 32688, Note_on_c, 1, 59, 84
1, 32708, Note_on_c, 1, 59, 0
1, 32712, Note_on_c, 0, 74, 0
1, 32712, Note_on_c, 0, 73, 75
1, 32735, Note_on_c, 0, 73, 0
1, 32736, Note_on_c, 0, 76, 75
1, 32736, Note_on_c, 1, 61, 84
1, 32756, Note_on_c, 1, 61, 0
1, 32760, Note_on_c, 0, 76, 0
1, 32760, Note_on_c, 0, 74, 75
1, 32783, Note_on_c, 0, 74, 0
1, 32784, Note_on_c, 0, 78, 75
1, 32784, Note_on_c, 1, 62, 84
1, 32804, Note_on_c, 1, 62, 0
1, 32808, Note_on_c, 0, 78, 0
1, 32808, Note_on_c, 0, 76, 75
1, 32831, Note_on_c, 0, 76, 0
1, 32832, Note_on_c, 0, 79, 75
1, 32832, Note_on_c, 1, 64, 84
1, 32855, Note_on_c, 0, 79, 0
1, 32856, Note_on_c, 0, 78, 75
1, 32879, Note_on_c, 0, 78, 0
1, 32880, Note_on_c, 0, 76, 75
1, 32903, Note_on_c, 0, 76, 0
1, 32904, Note_on_c, 0, 74, 75
1, 32921, Note_on_c, 1, 64, 0
1, 32927, Note_on_c, 0, 74, 0
1, 32928, Note_on_c, 0, 73, 75
1, 32951, Note_on_c, 0, 73, 0
1, 32952, Note_on_c, 0, 71, 75
1, 32975, Note_on_c, 0, 71, 0
1, 32976, Note_on_c, 0, 69, 75
1, 32976, Note_on_c, 1, 45, 84
1, 32999, Note_on_c, 0, 69, 0
1, 33000, Note_on_c, 0, 67, 75
1, 33021, Note_on_c, 1, 45, 0
1, 33023, Note_on_c, 0, 67, 0
1, 33024, Note_on_c, 0, 66, 75
1, 33024, Note_on_c, 1, 50, 84
1, 33044, Note_on_c, 1, 50, 0
1, 33048, Note_on_c, 0, 66, 0
1, 33048, Note_on_c, 0, 64, 75
1, 33071, Note_on_c, 0, 64, 0
1, 33072, Note_on_c, 0, 67, 75
1, 33072, Note_on_c, 1, 52, 84
1, 33092, Note_on_c, 1, 52, 0
1, 33096, Note_on_c, 0, 67, 0
1, 33096, Note_on_c, 0, 66, 75
1, 33119, Note_on_c, 0, 66, 0
1, 33120, Note_on_c, 0, 69, 75
1, 33120, Note_on_c, 1, 54, 84
1, 33140, Note_on_c, 1, 54, 0
1, 33144, Note_on_c, 0, 69, 0
1, 33144, Note_on_c, 0, 67, 75
1, 33167, Note_on_c, 0, 67, 0
1, 33168, Note_on_c, 0, 71, 75
1, 33168, Note_on_c, 1, 55, 84
1, 33188, Note_on_c, 1, 55, 0
1, 33192, Note_on_c, 0, 71, 0
1, 33192, Note_on_c, 0, 69, 75
1, 33215, Note_on_c, 0, 69, 0
1, 33216, Note_on_c, 0, 72, 75
1, 33216, Note_on_c, 1, 57, 84
1, 33239, Note_on_c, 0, 72, 0
1, 33240, Note_on_c, 0, 71, 75
1, 33263, Note_on_c, 0, 71, 0
1, 33264, Note_on_c, 0, 69, 75
1, 33287, Note_on_c, 0, 69, 0
1, 33288, Note_on_c, 0, 67, 75
1, 33305, Note_on_c, 1, 57, 0
1, 33311, Note_on_c, 0, 67, 0
1, 33312, Note_on_c, 0, 66, 75
1, 33335, Note_on_c, 0, 66, 0
1, 33336, Note_on_c, 0, 64, 75
1, 33359, Note_on_c, 0, 64, 0
1, 33360, Note_on_c, 0, 62, 75
1, 33360, Note_on_c, 1, 50, 84
1, 33383, Note_on_c, 0, 62, 0
1, 33384, Note_on_c, 0, 60, 75
1, 33405, Note_on_c, 1, 50, 0
1, 33407, Note_on_c, 0, 60, 0
1, 33408, Note_on_c, 0, 59, 75
1, 33408, Note_on_c, 1, 55, 84
1, 33431, Note_on_c, 0, 59, 0
1, 33432, Note_on_c, 0, 71, 75
1, 33455, Note_on_c, 0, 71, 0
1, 33456, Note_on_c, 0, 70, 75
1, 33479, Note_on_c, 0, 70, 0
1, 33480, Note_on_c, 0, 71, 75
1, 33497, Note_on_c, 1, 55, 0
1, 33503, Note_on_c, 0, 71, 0
1, 33504, Note_on_c, 0, 69, 75
1, 33527, Note_on_c, 0, 69, 0
1, 33528, Note_on_c, 0, 67, 75
1, 33551, Note_on_c, 0, 67, 0
1, 33552, Note_on_c, 0, 66, 75
1, 33575, Note_on_c, 0, 66, 0
1, 33576, Note_on_c, 0, 64, 75
1, 33599, Note_on_c, 0, 64, 0
1, 33600, Note_on_c, 0, 63, 75
1, 33600, Note_on_c, 1, 43, 84
1, 33623, Note_on_c, 0, 63, 0
1, 33624, Note_on_c, 0, 64, 75
1, 33647, Note_on_c, 0, 64, 0
1, 33648, Note_on_c, 0, 66, 75
1, 33671, Note_on_c, 0, 66, 0
1, 33672, Note_on_c, 0, 64, 75
1, 33689, Note_on_c, 1, 43, 0
1, 33695, Note_on_c, 0, 64, 0
1, 33696, Note_on_c, 0, 67, 75
1, 33719, Note_on_c, 0, 67, 0
1, 33720, Note_on_c, 0, 66, 75
1, 33743, Note_on_c, 0, 66, 0
1, 33744, Note_on_c, 0, 64, 75
1, 33767, Note_on_c, 0, 64, 0
1, 33768, Note_on_c, 0, 62, 75
1, 33791, Note_on_c, 0, 62, 0
1, 33792, Note_on_c, 0, 62, 75
1, 33792, Note_on_c, 1, 45, 84
1, 33815, Note_on_c, 1, 45, 0
1, 33816, Note_on_c, 1, 47, 84
1, 33839, Note_on_c, 1, 47, 0
1, 33840, Note_on_c, 1, 49, 84
1, 33863, Note_on_c, 1, 49, 0
1, 33864, Note_on_c, 1, 50, 84
1, 33887, Note_on_c, 1, 50, 0
1, 33888, Note_on_c, 1, 52, 84
1, 33911, Note_on_c, 1, 52, 0
1, 33912, Note_on_c, 1, 54, 84
1, 33935, Note_on_c, 1, 54, 0
1, 33936, Note_on_c, 1, 55, 84
1, 33959, Note_on_c, 1, 55, 0
1, 33960, Note_on_c, 1, 54, 84
1, 33983, Note_on_c, 1, 54, 0
1, 33984, Note_on_c, 0, 62, 0
1, 33984, Note_on_c, 0, 61, 75
1, 33984, Note_on_c, 1, 52, 84
1, 34007, Note_on_c, 0, 61, 0
1, 34008, Note_on_c, 0, 57, 75
1, 34031, Note_on_c, 0, 57, 0
1, 34032, Note_on_c, 0, 64, 75
1, 34055, Note_on_c, 0, 64, 0
1, 34056, Note_on_c, 0, 61, 75
1, 34073, Note_on_c, 1, 52, 0
1, 34079, Note_on_c, 0, 61, 0
1, 34080, Note_on_c, 0, 69, 75
1, 34103, Note_on_c, 0, 69, 0
1, 34104, Note_on_c, 0, 64, 74
1, 34127, Note_on_c, 0, 64, 0
1, 34128, Note_on_c, 0, 73, 73
1, 34151, Note_on_c, 0, 73, 0
1, 34152, Note_on_c, 0, 69, 73
1, 34175, Note_on_c, 0, 69, 0
1, 34176, Note_on_c, 0, 76, 72
1, 34199, Note_on_c, 0, 76, 0
1, 34200, Note_on_c, 0, 73, 72
1, 34223, Note_on_c, 0, 73, 0
1, 34224, Note_on_c, 0, 79, 71
1, 34247, Note_on_c, 0, 79, 0
1, 34248, Note_on_c, 0, 76, 70
1, 34271, Note_on_c, 0, 76, 0
1, 34272, Note_on_c, 0, 83, 70
1, 34317, Note_on_c, 0, 83, 0
1, 34488, Note_on_c, 0, 82, 61
1, 34511, Note_on_c, 0, 82, 0
1, 34512, Note_on_c, 0, 83, 61
1, 34535, Note_on_c, 0, 83, 0
1, 34536, Note_on_c, 0, 82, 61
1, 34559, Note_on_c, 0, 82, 0
1, 34560, Note_on_c, 0, 83, 61
1, 34580, Note_on_c, 0, 83, 0
1, 34680, Note_on_c, 0, 82, 53
1, 34703, Note_on_c, 0, 82, 0
1, 34704, Note_on_c, 0, 83, 53
1, 34727, Note_on_c, 0, 83, 0
1, 34728, Note_on_c, 0, 82, 53
1, 34751, Note_on_c, 0, 82, 0
1, 34752, Note_on_c, 0, 83, 53
1, 34772, Note_on_c, 0, 83, 0
1, 34872, Note_on_c, 0, 82, 61
1, 34895, Note_on_c, 0, 82, 0
1, 34896, Note_on_c, 0, 83, 62
1, 34919, Note_on_c, 0, 83, 0
1, 34920, Note_on_c, 0, 82, 63
1, 34943, Note_on_c, 0, 82, 0
1, 34944, Note_on_c, 0, 83, 64
1, 34967, Note_on_c, 0, 83, 0
1, 34968, Note_on_c, 0, 85, 65
1, 34991, Note_on_c, 0, 85, 0
1, 34992, Note_on_c, 0, 86, 66
1, 35015, Note_on_c, 0, 86, 0
1, 35016, Note_on_c, 0, 85, 68
1, 35039, Note_on_c, 0, 85, 0
1, 35040, Note_on_c, 0, 83, 69
1, 35063, Note_on_c, 0, 83, 0
1, 35064, Note_on_c, 0, 81, 70
1, 35087, Note_on_c, 0, 81, 0
1, 35088, Note_on_c, 0, 79, 71
1, 35111, Note_on_c, 0, 79, 0
1, 35112, Note_on_c, 0, 78, 72
1, 35135, Note_on_c, 0, 78, 0
1, 35136, Note_on_c, 0, 79, 73
1, 35136, Note_on_c, 1, 71, 84
1, 35159, Note_on_c, 0, 79, 0
1, 35159, Note_on_c, 1, 71, 0
1, 35160, Note_on_c, 0, 81, 75
1, 35160, Note_on_c, 1, 73, 84
1, 35183, Note_on_c, 0, 81, 0
1, 35183, Note_on_c, 1, 73, 0
1, 35184, Note_on_c, 0, 83, 75
1, 35184, Note_on_c, 1, 74, 84
1, 35207, Note_on_c, 0, 83, 0
1, 35207, Note_on_c, 1, 74, 0
1, 35208, Note_on_c, 0, 81, 75
1, 35208, Note_on_c, 1, 73, 84
1, 35231, Note_on_c, 0, 81, 0
1, 35231, Note_on_c, 1, 73, 0
1, 35232, Note_on_c, 0, 79, 75
1, 35232, Note_on_c, 1, 71, 84
1, 35255, Note_on_c, 0, 79, 0
1, 35255, Note_on_c, 1, 71, 0
1, 35256, Note_on_c, 0, 78, 75
1, 35256, Note_on_c, 1, 69, 84
1, 35279, Note_on_c, 0, 78, 0
1, 35279, Note_on_c, 1, 69, 0
1, 35280, Note_on_c, 0, 76, 75
1, 35280, Note_on_c, 1, 67, 84
1, 35303, Note_on_c, 0, 76, 0
1, 35303, Note_on_c, 1, 67, 0
1, 35304, Note_on_c, 0, 75, 75
1, 35304, Note_on_c, 1, 66, 84
1, 35327, Note_on_c, 0, 75, 0
1, 35327, Note_on_c, 1, 66, 0
1, 35328, Note_on_c, 0, 76, 75
1, 35328, Note_on_c, 1, 67, 84
1, 35351, Note_on_c, 0, 76, 0
1, 35351, Note_on_c, 1, 67, 0
1, 35352, Note_on_c, 0, 78, 75
1, 35352, Note_on_c, 1, 69, 84
1, 35375, Note_on_c, 0, 78, 0
1, 35375, Note_on_c, 1, 69, 0
1, 35376, Note_on_c, 0, 79, 75
1, 35376, Note_on_c, 1, 71, 84
1, 35399, Note_on_c, 0, 79, 0
1, 35399, Note_on_c, 1, 71, 0
1, 35400, Note_on_c, 0, 78, 75
1, 35400, Note_on_c, 1, 69, 84
1, 35423, Note_on_c, 0, 78, 0
1, 35423, Note_on_c, 1, 69, 0
1, 35424, Note_on_c, 0, 76, 75
1, 35424, Note_on_c, 1, 67, 84
1, 35447, Note_on_c, 0, 76, 0
1, 35447, Note_on_c, 1, 67, 0
1, 35448, Note_on_c, 0, 74, 75
1, 35448, Note_on_c, 1, 66, 84
1, 35471, Note_on_c, 0, 74, 0
1, 35471, Note_on_c, 1, 66, 0
1, 35472, Note_on_c, 0, 73, 75
1, 35472, Note_on_c, 1, 64, 84
1, 35495, Note_on_c, 0, 73, 0
1, 35495, Note_on_c, 1, 64, 0
1, 35496, Note_on_c, 0, 71, 75
1, 35496, Note_on_c, 1, 62, 84
1, 35519, Note_on_c, 0, 71, 0
1, 35519, Note_on_c, 1, 62, 0
1, 35520, Note_on_c, 0, 69, 75
1, 35520, Note_on_c, 1, 61, 84
1, 35543, Note_on_c, 0, 69, 0
1, 35544, Note_on_c, 0, 71, 75
1, 35567, Note_on_c, 0, 71, 0
1, 35568, Note_on_c, 0, 68, 75
1, 35591, Note_on_c, 0, 68, 0
1, 35592, Note_on_c, 0, 71, 75
1, 35615, Note_on_c, 0, 71, 0
1, 35616, Note_on_c, 0, 69, 75
1, 35639, Note_on_c, 0, 69, 0
1, 35640, Note_on_c, 0, 71, 75
1, 35653, Note_on_c, 1, 61, 0
1, 35663, Note_on_c, 0, 71, 0
1, 35664, Note_on_c, 0, 68, 75
1, 35664, Note_on_c, 1, 62, 84
1, 35687, Note_on_c, 0, 68, 0
1, 35688, Note_on_c, 0, 71, 75
1, 35709, Note_on_c, 1, 62, 0
1, 35711, Note_on_c, 0, 71, 0
1, 35712, Note_on_c, 0, 69, 75
1, 35712, Note_on_c, 1, 61, 84
1, 35735, Note_on_c, 0, 69, 0
1, 35736, Note_on_c, 0, 71, 75
1, 35757, Note_on_c, 1, 61, 0
1, 35759, Note_on_c, 0, 71, 0
1, 35760, Note_on_c, 0, 68, 75
1, 35760, Note_on_c, 1, 62, 84
1, 35783, Note_on_c, 0, 68, 0
1, 35784, Note_on_c, 0, 71, 75
1, 35805, Note_on_c, 1, 62, 0
1, 35807, Note_on_c, 0, 71, 0
1, 35808, Note_on_c, 0, 69, 75
1, 35808, Note_on_c, 1, 61, 84
1, 35831, Note_on_c, 0, 69, 0
1, 35832, Note_on_c, 0, 71, 75
1, 35853, Note_on_c, 1, 61, 0
1, 35855, Note_on_c, 0, 71, 0
1, 35856, Note_on_c, 0, 66, 75
1, 35856, Note_on_c, 1, 63, 84
1, 35879, Note_on_c, 0, 66, 0
1, 35880, Note_on_c, 0, 69, 75
1, 35901, Note_on_c, 1, 63, 0
1, 35903, Note_on_c, 0, 69, 0
1, 35904, Note_on_c, 0, 67, 75
1, 35904, Note_on_c, 1, 64, 84
1, 35904, Note_on_c, 1, 57, 75
1, 35927, Note_on_c, 0, 67, 0
1, 35928, Note_on_c, 0, 69, 75
1, 35951, Note_on_c, 0, 69, 0
1, 35952, Note_on_c, 0, 66, 75
1, 35975, Note_on_c, 0, 66, 0
1, 35976, Note_on_c, 0, 69, 75
1, 35999, Note_on_c, 0, 69, 0
1, 36000, Note_on_c, 0, 67, 75
1, 36023, Note_on_c, 0, 67, 0
1, 36024, Note_on_c, 0, 69, 75
1, 36037, Note_on_c, 1, 64, 0
1, 36047, Note_on_c, 0, 69, 0
1, 36048, Note_on_c, 0, 66, 75
1, 36048, Note_on_c, 1, 63, 84
1, 36071, Note_on_c, 0, 66, 0
1, 36072, Note_on_c, 0, 69, 75
1, 36093, Note_on_c, 1, 63, 0
1, 36095, Note_on_c, 0, 69, 0
1, 36096, Note_on_c, 0, 67, 75
1, 36096, Note_on_c, 1, 64, 84
1, 36119, Note_on_c, 0, 67, 0
1, 36120, Note_on_c, 0, 69, 75
1, 36141, Note_on_c, 1, 64, 0
1, 36143, Note_on_c, 0, 69, 0
1, 36144, Note_on_c, 0, 66, 75
1, 36144, Note_on_c, 1, 63, 84
1, 36167, Note_on_c, 0, 66, 0
1, 36168, Note_on_c, 0, 69, 75
1, 36189, Note_on_c, 1, 63, 0
1, 36191, Note_on_c, 0, 69, 0
1, 36192, Note_on_c, 0, 67, 75
1, 36192, Note_on_c, 1, 64, 84
1, 36215, Note_on_c, 0, 67, 0
1, 36216, Note_on_c, 0, 69, 75
1, 36237, Note_on_c, 1, 64, 0
1, 36239, Note_on_c, 0, 69, 0
1, 36240, Note_on_c, 0, 66, 75
1, 36240, Note_on_c, 1, 63, 84
1, 36263, Note_on_c, 0, 66, 0
1, 36264, Note_on_c, 0, 69, 75
1, 36285, Note_on_c, 1, 63, 0
1, 36287, Note_on_c, 0, 69, 0
1, 36288, Note_on_c, 0, 67, 75
1, 36288, Note_on_c, 1, 64, 75
1, 36355, Note_on_c, 0, 67, 0
1, 36355, Note_on_c, 1, 64, 0
1, 36360, Note_on_c, 0, 66, 72
1, 36360, Note_on_c, 1, 63, 72
1, 36383, Note_on_c, 0, 66, 0
1, 36383, Note_on_c, 1, 63, 0
1, 36384, Note_on_c, 0, 67, 72
1, 36384, Note_on_c, 1, 64, 72
1, 36451, Note_on_c, 0, 67, 0
1, 36451, Note_on_c, 1, 64, 0
1, 36456, Note_on_c, 0, 66, 70
1, 36456, Note_on_c, 1, 63, 70
1, 36479, Note_on_c, 0, 66, 0
1, 36479, Note_on_c, 1, 63, 0
1, 36480, Note_on_c, 0, 67, 69
1, 36480, Note_on_c, 1, 64, 69
1, 36547, Note_on_c, 0, 67, 0
1, 36547, Note_on_c, 1, 64, 0
1, 36552, Note_on_c, 0, 66, 67
1, 36552, Note_on_c, 1, 63, 67
1, 36575, Note_on_c, 0, 66, 0
1, 36575, Note_on_c, 1, 63, 0
1, 36576, Note_on_c, 0, 67, 66
1, 36576, Note_on_c, 1, 64, 66
1, 36599, Note_on_c, 0, 67, 0
1, 36599, Note_on_c, 1, 64, 0
1, 36600, Note_on_c, 0, 66, 65
1, 36600, Note_on_c, 1, 63, 65
1, 36623, Note_on_c, 0, 66, 0
1, 36623, Note_on_c, 1, 63, 0
1, 36624, Note_on_c, 0, 67, 65
1, 36624, Note_on_c, 1, 64, 65
1, 36647, Note_on_c, 0, 67, 0
1, 36647, Note_on_c, 1, 64, 0
1, 36648, Note_on_c, 0, 66, 64
1, 36648, Note_on_c, 1, 63, 64
1, 36671, Note_on_c, 0, 66, 0
1, 36671, Note_on_c, 1, 63, 0
1, 36672, Note_on_c, 0, 67, 63
1, 36672, Note_on_c, 1, 64, 63
1, 36761, Note_on_c, 0, 67, 0
1, 36761, Note_on_c, 1, 64, 0
1, 36761, Note_on_c, 1, 57, 0
1, 36864, Note_on_c, 1, 57, 84
1, 36876, Note_on_c, 1, 57, 0
1, 36876, Note_on_c, 1, 61, 84
1, 36888, Note_on_c, 1, 61, 0
1, 36888, Note_on_c, 1, 64, 84
1, 36900, Note_on_c, 1, 64, 0
1, 36900, Note_on_c, 1, 67, 84
1, 36912, Note_on_c, 0, 69, 84
1, 36912, Note_on_c, 1, 67, 0
1, 36924, Note_on_c, 0, 69, 0
1, 36924, Note_on_c, 0, 73, 84
1, 36936, Note_on_c, 0, 73, 0
1, 36936, Note_on_c, 0, 76, 84
1, 36948, Note_on_c, 0, 76, 0
1, 36948, Note_on_c, 0, 79, 84
1, 36960, Note_on_c, 0, 79, 0
1, 37200, Note_on_c, 0, 57, 75
1, 37212, Note_on_c, 0, 57, 0
1, 37212, Note_on_c, 0, 62, 75
1, 37224, Note_on_c, 0, 62, 0
1, 37224, Note_on_c, 0, 66, 75
1, 37236, Note_on_c, 0, 66, 0
1, 37236, Note_on_c, 0, 69, 76
1, 37248, Note_on_c, 0, 69, 0
1, 37248, Note_on_c, 0, 66, 77
1, 37248, Note_on_c, 1, 50, 75
1, 37248, Note_on_c, 1, 38, 75
1, 37293, Note_on_c, 0, 66, 0
1, 37296, Note_on_c, 0, 62, 80
1, 37337, Note_on_c, 1, 50, 0
1, 37337, Note_on_c, 1, 38, 0
1, 37341, Note_on_c, 0, 62, 0
1, 37344, Note_on_c, 0, 74, 84
1, 37364, Note_on_c, 0, 74, 0
1, 37392, Note_on_c, 0, 69, 81
1, 37392, Note_on_c, 1, 66, 75
1, 37392, Note_on_c, 1, 62, 75
1, 37412, Note_on_c, 0, 69, 0
1, 37412, Note_on_c, 1, 66, 0
1, 37412, Note_on_c, 1, 62, 0
1, 37440, Note_on_c, 0, 71, 79
1, 37440, Note_on_c, 1, 67, 75
1, 37440, Note_on_c, 1, 62, 75
1, 37452, Note_on_c, 0, 71, 0
1, 37452, Note_on_c, 0, 73, 79
1, 37460, Note_on_c, 1, 67, 0
1, 37460, Note_on_c, 1, 62, 0
1, 37464, Note_on_c, 0, 73, 0
1, 37464, Note_on_c, 0, 71, 79
1, 37485, Note_on_c, 0, 71, 0
1, 37488, Note_on_c, 0, 69, 77
1, 37488, Note_on_c, 1, 66, 75
1, 37488, Note_on_c, 1, 62, 75
1, 37508, Note_on_c, 1, 66, 0
1, 37508, Note_on_c, 1, 62, 0
1, 37533, Note_on_c, 0, 69, 0
1, 37584, Note_on_c, 0, 57, 75
1, 37596, Note_on_c, 0, 57, 0
1, 37596, Note_on_c, 0, 62, 75
1, 37608, Note_on_c, 0, 62, 0
1, 37608, Note_on_c, 0, 66, 76
1, 37620, Note_on_c, 0, 66, 0
1, 37620, Note_on_c, 0, 69, 77
1, 37632, Note_on_c, 0, 69, 0
1, 37632, Note_on_c, 0, 66, 78
1, 37632, Note_on_c, 1, 50, 75
1, 37632, Note_on_c, 1, 38, 75
1, 37680, Note_on_c, 0, 66, 0
1, 37680, Note_on_c, 0, 62, 84
1, 37721, Note_on_c, 1, 50, 0
1, 37721, Note_on_c, 1, 38, 0
1, 37725, Note_on_c, 0, 62, 0
1, 37728, Note_on_c, 0, 81, 82
1, 37728, Note_on_c, 0, 78, 82
1, 37748, Note_on_c, 0, 81, 0
1, 37748, Note_on_c, 0, 78, 0
1, 37776, Note_on_c, 0, 78, 80
1, 37776, Note_on_c, 0, 74, 80
1, 37776, Note_on_c, 1, 62, 75
1, 37796, Note_on_c, 0, 78, 0
1, 37796, Note_on_c, 0, 74, 0
1, 37796, Note_on_c, 1, 62, 0
1, 37824, Note_on_c, 0, 79, 78
1, 37824, Note_on_c, 0, 76, 75
1, 37824, Note_on_c, 1, 57, 75
1, 37836, Note_on_c, 0, 79, 0
1, 37836, Note_on_c, 0, 81, 78
1, 37844, Note_on_c, 1, 57, 0
1, 37848, Note_on_c, 0, 81, 0
1, 37848, Note_on_c, 0, 79, 78
1, 37869, Note_on_c, 0, 79, 0
1, 37869, Note_on_c, 0, 76, 0
1, 37872, Note_on_c, 0, 78, 76
1, 37872, Note_on_c, 0, 74, 75
1, 37872, Note_on_c, 1, 62, 75
1, 37892, Note_on_c, 1, 62, 0
1, 37917, Note_on_c, 0, 78, 0
1, 37917, Note_on_c, 0, 74, 0
1, 37968, Note_on_c, 0, 74, 75
1, 37980, Note_on_c, 0, 74, 0
1, 37980, Note_on_c, 0, 78, 75
1, 37992, Note_on_c, 0, 78, 0
1, 37992, Note_on_c, 0, 81, 75
1, 38004, Note_on_c, 0, 81, 0
1, 38004, Note_on_c, 0, 86, 75
1, 38016, Note_on_c, 0, 86, 0
1, 38016, Note_on_c, 0, 72, 75
1, 38064, Note_on_c, 1, 62, 69
1, 38064, Note_on_c, 1, 54, 69
1, 38084, Note_on_c, 1, 62, 0
1, 38084, Note_on_c, 1, 54, 0
1, 38112, Note_on_c, 1, 62, 69
1, 38112, Note_on_c, 1, 54, 69
1, 38132, Note_on_c, 1, 62, 0
1, 38132, Note_on_c, 1, 54, 0
1, 38156, Note_on_c, 0, 72, 0
1, 38160, Note_on_c, 0, 84, 75
1, 38172, Note_on_c, 0, 84, 0
1, 38172, Note_on_c, 0, 81, 75
1, 38184, Note_on_c, 0, 81, 0
1, 38184, Note_on_c, 0, 78, 75
1, 38196, Note_on_c, 0, 78, 0
1, 38196, Note_on_c, 0, 72, 75
1, 38208, Note_on_c, 0, 72, 0
1, 38208, Note_on_c, 0, 71, 75
1, 38256, Note_on_c, 1, 62, 69
1, 38256, Note_on_c, 1, 55, 69
1, 38276, Note_on_c, 1, 62, 0
1, 38276, Note_on_c, 1, 55, 0
1, 38304, Note_on_c, 1, 62, 69
1, 38304, Note_on_c, 1, 55, 69
1, 38324, Note_on_c, 1, 62, 0
1, 38324, Note_on_c, 1, 55, 0
1, 38348, Note_on_c, 0, 71, 0
1, 38352, Note_on_c, 0, 71, 75
1, 38364, Note_on_c, 0, 71, 0
1, 38364, Note_on_c, 0, 74, 75
1, 38376, Note_on_c, 0, 74, 0
1, 38376, Note_on_c, 0, 79, 75
1, 38388, Note_on_c, 0, 79, 0
1, 38388, Note_on_c, 0, 83, 75
1, 38400, Note_on_c, 0, 83, 0
1, 38400, Note_on_c, 0, 81, 75
1, 38400, Note_on_c, 0, 78, 75
1, 38400, Note_on_c, 1, 57, 75
1, 38420, Note_on_c, 0, 81, 0
1, 38420, Note_on_c, 0, 78, 0
1, 38448, Note_on_c, 0, 78, 75
1, 38448, Note_on_c, 0, 74, 75
1, 38468, Note_on_c, 0, 78, 0
1, 38468, Note_on_c, 0, 74, 0
1, 38489, Note_on_c, 1, 57, 0
1, 38496, Note_on_c, 0, 79, 75
1, 38496, Note_on_c, 0, 76, 75
1, 38496, Note_on_c, 1, 45, 75
1, 38516, Note_on_c, 0, 79, 0
1, 38516, Note_on_c, 0, 76, 0
1, 38544, Note_on_c, 0, 76, 75
1, 38544, Note_on_c, 0, 73, 75
1, 38564, Note_on_c, 0, 76, 0
1, 38564, Note_on_c, 0, 73, 0
1, 38585, Note_on_c, 1, 45, 0
1, 38592, Note_on_c, 0, 76, 75
1, 38592, Note_on_c, 0, 73, 75
1, 38592, Note_on_c, 1, 50, 75
1, 38681, Note_on_c, 1, 50, 0
1, 38688, Note_on_c, 0, 76, 0
1, 38688, Note_on_c, 0, 73, 0
1, 38688, Note_on_c, 0, 78, 75
1, 38688, Note_on_c, 0, 74, 75
1, 38688, Note_on_c, 1, 38, 75
1, 38733, Note_on_c, 0, 78, 0
1, 38733, Note_on_c, 0, 74, 0
1, 38733, Note_on_c, 1, 38, 0
1, 38736, Note_on_c, 0, 74, 75
1, 38748, Note_on_c, 0, 74, 0
1, 38748, Note_on_c, 0, 78, 75
1, 38760, Note_on_c, 0, 78, 0
1, 38760, Note_on_c, 0, 81, 75
1, 38772, Note_on_c, 0, 81, 0
1, 38772, Note_on_c, 0, 86, 75
1, 38784, Note_on_c, 0, 86, 0
1, 38784, Note_on_c, 0, 72, 75
1, 38832, Note_on_c, 1, 62, 69
1, 38832, Note_on_c, 1, 54, 69
1, 38852, Note_on_c, 1, 62, 0
1, 38852, Note_on_c, 1, 54, 0
1, 38880, Note_on_c, 1, 62, 69
1, 38880, Note_on_c, 1, 54, 69
1, 38900, Note_on_c, 1, 62, 0
1, 38900, Note_on_c, 1, 54, 0
1, 38924, Note_on_c, 0, 72, 0
1, 38928, Note_on_c, 0, 84, 75
1, 38940, Note_on_c, 0, 84, 0
1, 38940, Note_on_c, 0, 81, 75
1, 38952, Note_on_c, 0, 81, 0
1, 38952, Note_on_c, 0, 78, 75
1, 38964, Note_on_c, 0, 78, 0
1, 38964, Note_on_c, 0, 72, 75
1, 38976, Note_on_c, 0, 72, 0
1, 38976, Note_on_c, 0, 71, 75
1, 39024, Note_on_c, 1, 62, 69
1, 39024, Note_on_c, 1, 55, 69
1, 39044, Note_on_c, 1, 62, 0
1, 39044, Note_on_c, 1, 55, 0
1, 39072, Note_on_c, 1, 62, 69
1, 39072, Note_on_c, 1, 55, 69
1, 39092, Note_on_c, 1, 62, 0
1, 39092, Note_on_c, 1, 55, 0
1, 39116, Note_on_c, 0, 71, 0
1, 39120, Note_on_c, 0, 83, 75
1, 39135, Note_on_c, 0, 83, 0
1, 39136, Note_on_c, 0, 85, 75
1, 39151, Note_on_c, 0, 85, 0
1, 39152, Note_on_c, 0, 86, 75
1, 39167, Note_on_c, 0, 86, 0
1, 39168, Note_on_c, 0, 85, 91
1, 39168, Note_on_c, 1, 57, 75
1, 39184, Note_on_c, 0, 85, 0
1, 39184, Note_on_c, 0, 83, 75
1, 39199, Note_on_c, 0, 83, 0
1, 39200, Note_on_c, 0, 81, 75
1, 39213, Note_on_c, 1, 57, 0
1, 39215, Note_on_c, 0, 81, 0
1, 39216, Note_on_c, 0, 79, 75
1, 39231, Note_on_c, 0, 79, 0
1, 39232, Note_on_c, 0, 78, 75
1, 39247, Note_on_c, 0, 78, 0
1, 39248, Note_on_c, 0, 76, 75
1, 39263, Note_on_c, 0, 76, 0
1, 39264, Note_on_c, 0, 74, 75
1, 39264, Note_on_c, 1, 45, 75
1, 39279, Note_on_c, 0, 74, 0
1, 39280, Note_on_c, 0, 73, 75
1, 39295, Note_on_c, 0, 73, 0
1, 39296, Note_on_c, 0, 71, 75
1, 39309, Note_on_c, 1, 45, 0
1, 39311, Note_on_c, 0, 71, 0
1, 39312, Note_on_c, 0, 69, 75
1, 39324, Note_on_c, 0, 69, 0
1, 39324, Note_on_c, 0, 67, 75
1, 39336, Note_on_c, 0, 67, 0
1, 39336, Note_on_c, 0, 66, 75
1, 39348, Note_on_c, 0, 66, 0
1, 39348, Note_on_c, 0, 64, 75
1, 39360, Note_on_c, 0, 64, 0
1, 39360, Note_on_c, 0, 62, 91
1, 39360, Note_on_c, 1, 38, 75
1, 39449, Note_on_c, 1, 38, 0
1, 39456, Note_on_c, 0, 62, 0
1, 39504, Note_on_c, 0, 57, 85
1, 39552, Note_on_c, 0, 57, 0
1, 39552, Note_on_c, 0, 62, 70
1, 39576, Note_on_c, 0, 62, 0
1, 39576, Note_on_c, 0, 61, 70
1, 39599, Note_on_c, 0, 61, 0
1, 39600, Note_on_c, 0, 64, 71
1, 39624, Note_on_c, 0, 64, 0
1, 39624, Note_on_c, 0, 62, 72
1, 39647, Note_on_c, 0, 62, 0
1, 39648, Note_on_c, 0, 66, 72
1, 39672, Note_on_c, 0, 66, 0
1, 39672, Note_on_c, 0, 64, 73
1, 39695, Note_on_c, 0, 64, 0
1, 39696, Note_on_c, 0, 67, 73
1, 39720, Note_on_c, 0, 67, 0
1, 39720, Note_on_c, 0, 66, 74
1, 39743, Note_on_c, 0, 66, 0
1, 39744, Note_on_c, 0, 66, 75
1, 39744, Note_on_c, 0, 62, 75
1, 39792, Note_on_c, 1, 56, 75
1, 39840, Note_on_c, 0, 66, 0
1, 39840, Note_on_c, 0, 62, 0
1, 39840, Note_on_c, 0, 64, 75
1, 39840, Note_on_c, 0, 61, 75
1, 39840, Note_on_c, 1, 56, 0
1, 39840, Note_on_c, 1, 57, 75
1, 39885, Note_on_c, 0, 64, 0
1, 39885, Note_on_c, 0, 61, 0
1, 39885, Note_on_c, 1, 57, 0
1, 39888, Note_on_c, 0, 57, 91
1, 39936, Note_on_c, 0, 57, 0
1, 39936, Note_on_c, 0, 64, 73
1, 39960, Note_on_c, 0, 64, 0
1, 39960, Note_on_c, 0, 63, 73
1, 39983, Note_on_c, 0, 63, 0
1, 39984, Note_on_c, 0, 66, 72
1, 40008, Note_on_c, 0, 66, 0
1, 40008, Note_on_c, 0, 64, 72
1, 40031, Note_on_c, 0, 64, 0
1, 40032, Note_on_c, 0, 67, 71
1, 40056, Note_on_c, 0, 67, 0
1, 40056, Note_on_c, 0, 66, 70
1, 40079, Note_on_c, 0, 66, 0
1, 40080, Note_on_c, 0, 69, 70
1, 40104, Note_on_c, 0, 69, 0
1, 40104, Note_on_c, 0, 67, 69
1, 40127, Note_on_c, 0, 67, 0
1, 40128, Note_on_c, 0, 67, 69
1, 40128, Note_on_c, 0, 64, 69
1, 40176, Note_on_c, 1, 58, 75
1, 40224, Note_on_c, 0, 67, 0
1, 40224, Note_on_c, 0, 64, 0
1, 40224, Note_on_c, 0, 66, 69
1, 40224, Note_on_c, 0, 62, 69
1, 40224, Note_on_c, 1, 58, 0
1, 40224, Note_on_c, 1, 59, 75
1, 40269, Note_on_c, 0, 66, 0
1, 40269, Note_on_c, 0, 62, 0
1, 40269, Note_on_c, 1, 59, 0
1, 40272, Note_on_c, 0, 62, 85
1, 40320, Note_on_c, 0, 62, 0
1, 40320, Note_on_c, 0, 67, 70
1, 40344, Note_on_c, 0, 67, 0
1, 40344, Note_on_c, 0, 66, 70
1, 40367, Note_on_c, 0, 66, 0
1, 40368, Note_on_c, 0, 69, 71
1, 40392, Note_on_c, 0, 69, 0
1, 40392, Note_on_c, 0, 67, 72
1, 40415, Note_on_c, 0, 67, 0
1, 40416, Note_on_c, 0, 71, 72
1, 40440, Note_on_c, 0, 71, 0
1, 40440, Note_on_c, 0, 69, 73
1, 40463, Note_on_c, 0, 69, 0
1, 40464, Note_on_c, 0, 74, 73
1, 40488, Note_on_c, 0, 74, 0
1, 40488, Note_on_c, 0, 73, 74
1, 40511, Note_on_c, 0, 73, 0
1, 40512, Note_on_c, 0, 71, 75
1, 40512, Note_on_c, 1, 55, 61
1, 40532, Note_on_c, 0, 71, 0
1, 40535, Note_on_c, 1, 55, 0
1, 40536, Note_on_c, 1, 62, 61
1, 40559, Note_on_c, 1, 62, 0
1, 40560, Note_on_c, 0, 71, 75
1, 40560, Note_on_c, 1, 55, 61
1, 40583, Note_on_c, 1, 55, 0
1, 40584, Note_on_c, 0, 71, 0
1, 40584, Note_on_c, 0, 74, 75
1, 40584, Note_on_c, 1, 62, 61
1, 40607, Note_on_c, 0, 74, 0
1, 40607, Note_on_c, 1, 62, 0
1, 40608, Note_on_c, 0, 69, 75
1, 40608, Note_on_c, 1, 54, 61
1, 40628, Note_on_c, 0, 69, 0
1, 40631, Note_on_c, 1, 54, 0
1, 40632, Note_on_c, 1, 62, 61
1, 40655, Note_on_c, 1, 62, 0
1, 40656, Note_on_c, 1, 54, 61
1, 40679, Note_on_c, 1, 54, 0
1, 40680, Note_on_c, 1, 62, 61
1, 40703, Note_on_c, 1, 62, 0
1, 40704, Note_on_c, 0, 69, 75
1, 40704, Note_on_c, 1, 59, 61
1, 40710, Note_on_c, 0, 69, 0
1, 40710, Note_on_c, 0, 67, 75
1, 40716, Note_on_c, 0, 67, 0
1, 40716, Note_on_c, 0, 66, 75
1, 40722, Note_on_c, 0, 66, 0
1, 40722, Note_on_c, 0, 67, 75
1, 40727, Note_on_c, 1, 59, 0
1, 40728, Note_on_c, 1, 62, 61
1, 40749, Note_on_c, 0, 67, 0
1, 40751, Note_on_c, 1, 62, 0
1, 40752, Note_on_c, 0, 67, 75
1, 40752, Note_on_c, 1, 59, 61
1, 40775, Note_on_c, 1, 59, 0
1, 40776, Note_on_c, 0, 67, 0
1, 40776, Note_on_c, 0, 71, 75
1, 40776, Note_on_c, 1, 62, 61
1, 40799, Note_on_c, 0, 71, 0
1, 40799, Note_on_c, 1, 62, 0
1, 40800, Note_on_c, 0, 66, 75
1, 40800, Note_on_c, 1, 57, 61
1, 40820, Note_on_c, 0, 66, 0
1, 40823, Note_on_c, 1, 57, 0
1, 40824, Note_on_c, 1, 62, 61
1, 40847, Note_on_c, 1, 62, 0
1, 40848, Note_on_c, 1, 57, 61
1, 40871, Note_on_c, 1, 57, 0
1, 40872, Note_on_c, 1, 62, 61
1, 40895, Note_on_c, 1, 62, 0
1, 40896, Note_on_c, 0, 73, 75
1, 40896, Note_on_c, 1, 55, 61
1, 40902, Note_on_c, 0, 73, 0
1, 40902, Note_on_c, 0, 71, 75
1, 40908, Note_on_c, 0, 71, 0
1, 40908, Note_on_c, 0, 69, 75
1, 40914, Note_on_c, 0, 69, 0
1, 40914, Note_on_c, 0, 71, 75
1, 40919, Note_on_c, 1, 55, 0
1, 40920, Note_on_c, 1, 62, 61
1, 40941, Note_on_c, 0, 71, 0
1, 40943, Note_on_c, 1, 62, 0
1, 40944, Note_on_c, 0, 71, 75
1, 40944, Note_on_c, 1, 55, 61
1, 40967, Note_on_c, 1, 55, 0
1, 40968, Note_on_c, 0, 71, 0
1, 40968, Note_on_c, 0, 74, 75
1, 40968, Note_on_c, 1, 62, 61
1, 40991, Note_on_c, 0, 74, 0
1, 40991, Note_on_c, 1, 62, 0
1, 40992, Note_on_c, 0, 69, 75
1, 40992, Note_on_c, 1, 54, 61
1, 41012, Note_on_c, 0, 69, 0
1, 41015, Note_on_c, 1, 54, 0
1, 41016, Note_on_c, 1, 62, 61
1, 41039, Note_on_c, 1, 62, 0
1, 41040, Note_on_c, 1, 54, 61
1, 41063, Note_on_c, 1, 54, 0
1, 41064, Note_on_c, 1, 62, 61
1, 41087, Note_on_c, 1, 62, 0
1, 41088, Note_on_c, 0, 69, 75
1, 41088, Note_on_c, 1, 59, 61
1, 41094, Note_on_c, 0, 69, 0
1, 41094, Note_on_c, 0, 67, 75
1, 41100, Note_on_c, 0, 67, 0
1, 41100, Note_on_c, 0, 66, 75
1, 41106, Note_on_c, 0, 66, 0
1, 41106, Note_on_c, 0, 67, 75
1, 41111, Note_on_c, 1, 59, 0
1, 41112, Note_on_c, 1, 62, 61
1, 41133, Note_on_c, 0, 67, 0
1, 41135, Note_on_c, 1, 62, 0
1, 41136, Note_on_c, 0, 67, 75
1, 41136, Note_on_c, 1, 59, 61
1, 41159, Note_on_c, 1, 59, 0
1, 41160, Note_on_c, 0, 67, 0
1, 41160, Note_on_c, 0, 71, 75
1, 41160, Note_on_c, 1, 62, 61
1, 41183, Note_on_c, 0, 71, 0
1, 41183, Note_on_c, 1, 62, 0
1, 41184, Note_on_c, 0, 66, 75
1, 41184, Note_on_c, 1, 57, 61
1, 41204, Note_on_c, 0, 66, 0
1, 41207, Note_on_c, 1, 57, 0
1, 41208, Note_on_c, 1, 62, 61
1, 41231, Note_on_c, 1, 62, 0
1, 41232, Note_on_c, 1, 57, 61
1, 41255, Note_on_c, 1, 57, 0
1, 41256, Note_on_c, 1, 62, 61
1, 41279, Note_on_c, 1, 62, 0
1, 41280, Note_on_c, 0, 63, 75
1, 41280, Note_on_c, 1, 55, 75
1, 41303, Note_on_c, 0, 63, 0
1, 41304, Note_on_c, 0, 64, 77
1, 41327, Note_on_c, 0, 64, 0
1, 41328, Note_on_c, 0, 66, 79
1, 41351, Note_on_c, 0, 66, 0
1, 41352, Note_on_c, 0, 67, 81
1, 41369, Note_on_c, 1, 55, 0
1, 41375, Note_on_c, 0, 67, 0
1, 41376, Note_on_c, 0, 69, 84
1, 41399, Note_on_c, 0, 69, 0
1, 41400, Note_on_c, 0, 71, 81
1, 41423, Note_on_c, 0, 71, 0
1, 41424, Note_on_c, 0, 67, 79
1, 41424, Note_on_c, 1, 55, 75
1, 41424, Note_on_c, 1, 43, 75
1, 41447, Note_on_c, 0, 67, 0
1, 41448, Note_on_c, 0, 64, 77
1, 41469, Note_on_c, 1, 55, 0
1, 41469, Note_on_c, 1, 43, 0
1, 41471, Note_on_c, 0, 64, 0
1, 41472, Note_on_c, 0, 62, 75
1, 41472, Note_on_c, 1, 54, 75
1, 41472, Note_on_c, 1, 45, 75
1, 41664, Note_on_c, 0, 62, 0
1, 41664, Note_on_c, 0, 61, 63
1, 41664, Note_on_c, 1, 54, 0
1, 41664, Note_on_c, 1, 52, 63
1, 41684, Note_on_c, 0, 61, 0
1, 41709, Note_on_c, 1, 52, 0
1, 41709, Note_on_c, 1, 45, 0
1, 41712, Tempo, 750000
1, 41760, Tempo, 545454
1, 41808, Note_on_c, 0, 57, 84
1, 41820, Note_on_c, 0, 57, 0
1, 41820, Note_on_c, 0, 61, 84
1, 41832, Note_on_c, 0, 61, 0
1, 41832, Note_on_c, 0, 64, 84
1, 41844, Note_on_c, 0, 64, 0
1, 41844, Note_on_c, 0, 67, 84
1, 41856, Note_on_c, 0, 67, 0
1, 41856, Note_on_c, 0, 64, 84
1, 41856, Note_on_c, 1, 57, 84
1, 41856, Note_on_c, 1, 52, 84
1, 41856, Note_on_c, 1, 49, 84
1, 41856, Note_on_c, 1, 45, 84
1, 41901, Note_on_c, 0, 64, 0
1, 41901, Note_on_c, 1, 57, 0
1, 41901, Note_on_c, 1, 52, 0
1, 41901, Note_on_c, 1, 49, 0
1, 41901, Note_on_c, 1, 45, 0
1, 41904, Note_on_c, 0, 64, 84
1, 41916, Note_on_c, 0, 64, 0
1, 41916, Note_on_c, 0, 67, 84
1, 41928, Note_on_c, 0, 67, 0
1, 41928, Note_on_c, 0, 73, 84
1, 41940, Note_on_c, 0, 73, 0
1, 41940, Note_on_c, 0, 76, 84
1, 41952, Note_on_c, 0, 76, 0
1, 41952, Note_on_c, 0, 73, 84
1, 41952, Note_on_c, 1, 57, 84
1, 41952, Note_on_c, 1, 52, 84
1, 41952, Note_on_c, 1, 49, 84
1, 41952, Note_on_c, 1, 45, 84
1, 41997, Note_on_c, 0, 73, 0
1, 41997, Note_on_c, 1, 57, 0
1, 41997, Note_on_c, 1, 52, 0
1, 41997, Note_on_c, 1, 49, 0
1, 41997, Note_on_c, 1, 45, 0
1, 42000, Note_on_c, 0, 67, 84
1, 42012, Note_on_c, 0, 67, 0
1, 42012, Note_on_c, 0, 73, 84
1, 42024, Note_on_c, 0, 73, 0
1, 42024, Note_on_c, 0, 76, 84
1, 42036, Note_on_c, 0, 76, 0
1, 42036, Note_on_c, 0, 79, 84
1, 42048, Note_on_c, 0, 79, 0
1, 42048, Note_on_c, 0, 76, 84
1, 42048, Note_on_c, 1, 57, 84
1, 42048, Note_on_c, 1, 52, 84
1, 42048, Note_on_c, 1, 49, 84
1, 42048, Note_on_c, 1, 45, 84
1, 42093, Note_on_c, 0, 76, 0
1, 42093, Note_on_c, 1, 57, 0
1, 42093, Note_on_c, 1, 52, 0
1, 42093, Note_on_c, 1, 49, 0
1, 42093, Note_on_c, 1, 45, 0
1, 42192, Note_on_c, 0, 67, 75
1, 42204, Note_on_c, 0, 67, 0
1, 42204, Note_on_c, 0, 64, 75
1, 42216, Note_on_c, 0, 64, 0
1, 42216, Note_on_c, 0, 61, 75
1, 42228, Note_on_c, 0, 61, 0
1, 42228, Note_on_c, 0, 57, 75
1, 42240, Note_on_c, 0, 57, 0
1, 42240, Note_on_c, 0, 55, 75
1, 42240, Note_on_c, 1, 45, 75
1, 42263, Note_on_c, 1, 45, 0
1, 42264, Note_on_c, 1, 52, 75
1, 42287, Note_on_c, 1, 52, 0
1, 42288, Note_on_c, 1, 50, 75
1, 42311, Note_on_c, 1, 50, 0
1, 42312, Note_on_c, 1, 52, 75
1, 42335, Note_on_c, 1, 52, 0
1, 42336, Note_on_c, 1, 49, 75
1, 42359, Note_on_c, 1, 49, 0
1, 42360, Note_on_c, 1, 52, 75
1, 42383, Note_on_c, 1, 52, 0
1, 42384, Note_on_c, 1, 45, 75
1, 42407, Note_on_c, 1, 45, 0
1, 42408, Note_on_c, 1, 49, 75
1, 42417, Note_on_c, 0, 55, 0
1, 42431, Note_on_c, 1, 49, 0
1, 42432, Note_on_c, 0, 54, 75
1, 42432, Note_on_c, 1, 50, 75
1, 42455, Note_on_c, 0, 54, 0
1, 42456, Note_on_c, 0, 62, 75
1, 42479, Note_on_c, 0, 62, 0
1, 42480, Note_on_c, 0, 61, 75
1, 42503, Note_on_c, 0, 61, 0
1, 42504, Note_on_c, 0, 62, 75
1, 42521, Note_on_c, 1, 50, 0
1, 42527, Note_on_c, 0, 62, 0
1, 42528, Note_on_c, 0, 64, 75
1, 42551, Note_on_c, 0, 64, 0
1, 42552, Note_on_c, 0, 62, 75
1, 42575, Note_on_c, 0, 62, 0
1, 42576, Note_on_c, 0, 61, 75
1, 42599, Note_on_c, 0, 61, 0
1, 42600, Note_on_c, 0, 62, 75
1, 42623, Note_on_c, 0, 62, 0
1, 42624, Note_on_c, 0, 60, 75
1, 42624, Note_on_c, 1, 50, 75
1, 42647, Note_on_c, 1, 50, 0
1, 42648, Note_on_c, 1, 57, 75
1, 42671, Note_on_c, 1, 57, 0
1, 42672, Note_on_c, 1, 55, 75
1, 42695, Note_on_c, 1, 55, 0
1, 42696, Note_on_c, 1, 57, 75
1, 42719, Note_on_c, 1, 57, 0
1, 42720, Note_on_c, 1, 54, 75
1, 42743, Note_on_c, 1, 54, 0
1, 42744, Note_on_c, 1, 57, 75
1, 42767, Note_on_c, 1, 57, 0
1, 42768, Note_on_c, 1, 50, 75
1, 42791, Note_on_c, 1, 50, 0
1, 42792, Note_on_c, 1, 54, 75
1, 42801, Note_on_c, 0, 60, 0
1, 42815, Note_on_c, 1, 54, 0
1, 42816, Note_on_c, 0, 59, 75
1, 42816, Note_on_c, 1, 55, 75
1, 42839, Note_on_c, 0, 59, 0
1, 42840, Note_on_c, 0, 64, 75
1, 42863, Note_on_c, 0, 64, 0
1, 42864, Note_on_c, 0, 63, 75
1, 42887, Note_on_c, 0, 63, 0
1, 42888, Note_on_c, 0, 64, 75
1, 42905, Note_on_c, 1, 55, 0
1, 42911, Note_on_c, 0, 64, 0
1, 42912, Note_on_c, 0, 66, 75
1, 42935, Note_on_c, 0, 66, 0
1, 42936, Note_on_c, 0, 64, 75
1, 42959, Note_on_c, 0, 64, 0
1, 42960, Note_on_c, 0, 63, 75
1, 42983, Note_on_c, 0, 63, 0
1, 42984, Note_on_c, 0, 64, 75
1, 43007, Note_on_c, 0, 64, 0
1, 43008, Note_on_c, 0, 62, 75
1, 43008, Note_on_c, 1, 52, 75
1, 43031, Note_on_c, 1, 52, 0
1, 43032, Note_on_c, 1, 59, 75
1, 43055, Note_on_c, 1, 59, 0
1, 43056, Note_on_c, 1, 57, 75
1, 43079, Note_on_c, 1, 57, 0
1, 43080, Note_on_c, 1, 59, 75
1, 43103, Note_on_c, 1, 59, 0
1, 43104, Note_on_c, 1, 56, 75
1, 43127, Note_on_c, 1, 56, 0
1, 43128, Note_on_c, 1, 59, 75
1, 43151, Note_on_c, 1, 59, 0
1, 43152, Note_on_c, 1, 52, 75
1, 43175, Note_on_c, 1, 52, 0
1, 43176, Note_on_c, 1, 56, 75
1, 43185, Note_on_c, 0, 62, 0
1, 43199, Note_on_c, 1, 56, 0
1, 43200, Note_on_c, 0, 61, 75
1, 43200, Note_on_c, 1, 57, 75
1, 43223, Note_on_c, 0, 61, 0
1, 43224, Note_on_c, 0, 69, 75
1, 43247, Note_on_c, 0, 69, 0
1, 43248, Note_on_c, 0, 68, 75
1, 43271, Note_on_c, 0, 68, 0
1, 43272, Note_on_c, 0, 69, 75
1, 43289, Note_on_c, 1, 57, 0
1, 43295, Note_on_c, 0, 69, 0
1, 43296, Note_on_c, 0, 71, 75
1, 43319, Note_on_c, 0, 71, 0
1, 43320, Note_on_c, 0, 69, 75
1, 43343, Note_on_c, 0, 69, 0
1, 43344, Note_on_c, 0, 68, 75
1, 43367, Note_on_c, 0, 68, 0
1, 43368, Note_on_c, 0, 69, 75
1, 43391, Note_on_c, 0, 69, 0
1, 43392, Note_on_c, 0, 68, 75
1, 43392, Note_on_c, 1, 59, 61
1, 43415, Note_on_c, 1, 59, 0
1, 43416, Note_on_c, 1, 65, 61
1, 43437, Note_on_c, 0, 68, 0
1, 43439, Note_on_c, 1, 65, 0
1, 43440, Note_on_c, 0, 74, 75
1, 43440, Note_on_c, 1, 59, 61
1, 43463, Note_on_c, 1, 59, 0
1, 43464, Note_on_c, 1, 65, 61
1, 43485, Note_on_c, 0, 74, 0
1, 43487, Note_on_c, 1, 65, 0
1, 43488, Note_on_c, 1, 59, 61
1, 43511, Note_on_c, 1, 59, 0
1, 43512, Note_on_c, 1, 65, 61
1, 43535, Note_on_c, 1, 65, 0
1, 43536, Note_on_c, 0, 68, 75
1, 43536, Note_on_c, 1, 59, 61
1, 43559, Note_on_c, 1, 59, 0
1, 43560, Note_on_c, 1, 65, 61
1, 43583, Note_on_c, 1, 65, 0
1, 43584, Note_on_c, 0, 68, 0
1, 43584, Note_on_c, 0, 69, 75
1, 43584, Note_on_c, 1, 61, 61
1, 43604, Note_on_c, 0, 69, 0
1, 43607, Note_on_c, 1, 61, 0
1, 43608, Note_on_c, 1, 64, 61
1, 43631, Note_on_c, 1, 64, 0
1, 43632, Note_on_c, 0, 69, 75
1, 43632, Note_on_c, 1, 61, 61
1, 43655, Note_on_c, 1, 61, 0
1, 43656, Note_on_c, 0, 69, 0
1, 43656, Note_on_c, 0, 76, 75
1, 43656, Note_on_c, 1, 64, 61
1, 43679, Note_on_c, 0, 76, 0
1, 43679, Note_on_c, 1, 64, 0
1, 43680, Note_on_c, 0, 69, 75
1, 43680, Note_on_c, 1, 61, 61
1, 43703, Note_on_c, 1, 61, 0
1, 43704, Note_on_c, 1, 64, 61
1, 43725, Note_on_c, 0, 69, 0
1, 43727, Note_on_c, 1, 64, 0
1, 43728, Note_on_c, 0, 69, 75
1, 43728, Note_on_c, 1, 61, 61
1, 43751, Note_on_c, 1, 61, 0
1, 43752, Note_on_c, 1, 64, 61
1, 43775, Note_on_c, 1, 64, 0
1, 43776, Note_on_c, 0, 69, 0
1, 43776, Note_on_c, 0, 68, 75
1, 43776, Note_on_c, 1, 59, 61
1, 43799, Note_on_c, 1, 59, 0
1, 43800, Note_on_c, 1, 65, 61
1, 43821, Note_on_c, 0, 68, 0
1, 43823, Note_on_c, 1, 65, 0
1, 43824, Note_on_c, 0, 74, 75
1, 43824, Note_on_c, 1, 59, 61
1, 43847, Note_on_c, 1, 59, 0
1, 43848, Note_on_c, 1, 65, 61
1, 43869, Note_on_c, 0, 74, 0
1, 43871, Note_on_c, 1, 65, 0
1, 43872, Note_on_c, 1, 59, 61
1, 43895, Note_on_c, 1, 59, 0
1, 43896, Note_on_c, 1, 65, 61
1, 43919, Note_on_c, 1, 65, 0
1, 43920, Note_on_c, 0, 68, 75
1, 43920, Note_on_c, 1, 59, 61
1, 43943, Note_on_c, 1, 59, 0
1, 43944, Note_on_c, 1, 65, 61
1, 43967, Note_on_c, 1, 65, 0
1, 43968, Note_on_c, 0, 68, 0
1, 43968, Note_on_c, 0, 69, 75
1, 43968, Note_on_c, 1, 61, 61
1, 43988, Note_on_c, 0, 69, 0
1, 43991, Note_on_c, 1, 61, 0
1, 43992, Note_on_c, 1, 64, 61
1, 44015, Note_on_c, 1, 64, 0
1, 44016, Note_on_c, 0, 69, 75
1, 44016, Note_on_c, 1, 61, 61
1, 44039, Note_on_c, 1, 61, 0
1, 44040, Note_on_c, 0, 69, 0
1, 44040, Note_on_c, 0, 76, 75
1, 44040, Note_on_c, 1, 64, 61
1, 44063, Note_on_c, 0, 76, 0
1, 44063, Note_on_c, 1, 64, 0
1, 44064, Note_on_c, 0, 69, 75
1, 44064, Note_on_c, 1, 61, 61
1, 44087, Note_on_c, 1, 61, 0
1, 44088, Note_on_c, 1, 64, 61
1, 44109, Note_on_c, 0, 69, 0
1, 44111, Note_on_c, 1, 64, 0
1, 44112, Note_on_c, 0, 67, 75
1, 44112, Note_on_c, 1, 61, 61
1, 44118, Note_on_c, 0, 67, 0
1, 44118, Note_on_c, 0, 69, 75
1, 44124, Note_on_c, 0, 69, 0
1, 44124, Note_on_c, 0, 67, 75
1, 44135, Note_on_c, 1, 61, 0
1, 44136, Note_on_c, 1, 64, 61
1, 44157, Note_on_c, 0, 67, 0
1, 44159, Note_on_c, 1, 64, 0
1, 44160, Note_on_c, 0, 66, 75
1, 44160, Note_on_c, 1, 62, 61
1, 44183, Note_on_c, 1, 62, 0
1, 44184, Note_on_c, 1, 66, 61
1, 44205, Note_on_c, 0, 66, 0
1, 44207, Note_on_c, 1, 66, 0
1, 44208, Note_on_c, 0, 81, 75
1, 44208, Note_on_c, 1, 62, 61
1, 44231, Note_on_c, 1, 62, 0
1, 44232, Note_on_c, 1, 66, 61
1, 44253, Note_on_c, 0, 81, 0
1, 44255, Note_on_c, 1, 66, 0
1, 44256, Note_on_c, 1, 62, 61
1, 44279, Note_on_c, 1, 62, 0
1, 44280, Note_on_c, 1, 66, 61
1, 44303, Note_on_c, 1, 66, 0
1, 44304, Note_on_c, 0, 74, 75
1, 44304, Note_on_c, 1, 62, 61
1, 44327, Note_on_c, 1, 62, 0
1, 44328, Note_on_c, 1, 66, 61
1, 44351, Note_on_c, 1, 66, 0
1, 44352, Note_on_c, 0, 74, 0
1, 44352, Note_on_c, 0, 73, 75
1, 44352, Note_on_c, 1, 64, 61
1, 44372, Note_on_c, 0, 73, 0
1, 44375, Note_on_c, 1, 64, 0
1, 44376, Note_on_c, 1, 67, 61
1, 44399, Note_on_c, 1, 67, 0
1, 44400, Note_on_c, 0, 73, 75
1, 44400, Note_on_c, 1, 64, 61
1, 44423, Note_on_c, 1, 64, 0
1, 44424, Note_on_c, 0, 73, 0
1, 44424, Note_on_c, 0, 81, 75
1, 44424, Note_on_c, 1, 67, 61
1, 44447, Note_on_c, 0, 81, 0
1, 44447, Note_on_c, 1, 67, 0
1, 44448, Note_on_c, 0, 73, 75
1, 44448, Note_on_c, 1, 64, 61
1, 44468, Note_on_c, 0, 73, 0
1, 44471, Note_on_c, 1, 64, 0
1, 44472, Note_on_c, 1, 67, 61
1, 44495, Note_on_c, 1, 67, 0
1, 44496, Note_on_c, 0, 73, 75
1, 44496, Note_on_c, 1, 64, 61
1, 44519, Note_on_c, 1, 64, 0
1, 44520, Note_on_c, 1, 67, 61
1, 44543, Note_on_c, 1, 67, 0
1, 44544, Note_on_c, 0, 73, 0
1, 44544, Note_on_c, 0, 74, 75
1, 44544, Note_on_c, 1, 66, 61
1, 44564, Note_on_c, 0, 74, 0
1, 44567, Note_on_c, 1, 66, 0
1, 44568, Note_on_c, 1, 69, 61
1, 44591, Note_on_c, 1, 69, 0
1, 44592, Note_on_c, 0, 74, 75
1, 44592, Note_on_c, 1, 66, 61
1, 44615, Note_on_c, 1, 66, 0
1, 44616, Note_on_c, 0, 74, 0
1, 44616, Note_on_c, 0, 81, 75
1, 44616, Note_on_c, 1, 69, 61
1, 44639, Note_on_c, 0, 81, 0
1, 44639, Note_on_c, 1, 69, 0
1, 44640, Note_on_c, 0, 74, 75
1, 44640, Note_on_c, 1, 66, 61
1, 44660, Note_on_c, 0, 74, 0
1, 44663, Note_on_c, 1, 66, 0
1, 44664, Note_on_c, 1, 69, 61
1, 44687, Note_on_c, 1, 69, 0
1, 44688, Note_on_c, 0, 74, 75
1, 44688, Note_on_c, 1, 66, 61
1, 44711, Note_on_c, 1, 66, 0
1, 44712, Note_on_c, 1, 69, 61
1, 44735, Note_on_c, 1, 69, 0
1, 44736, Note_on_c, 0, 74, 0
1, 44736, Note_on_c, 0, 76, 75
1, 44736, Note_on_c, 1, 61, 61
1, 44756, Note_on_c, 0, 76, 0
1, 44759, Note_on_c, 1, 61, 0
1, 44760, Note_on_c, 1, 69, 61
1, 44783, Note_on_c, 1, 69, 0
1, 44784, Note_on_c, 0, 76, 75
1, 44784, Note_on_c, 1, 61, 61
1, 44807, Note_on_c, 1, 61, 0
1, 44808, Note_on_c, 0, 76, 0
1, 44808, Note_on_c, 0, 81, 75
1, 44808, Note_on_c, 1, 69, 61
1, 44831, Note_on_c, 0, 81, 0
1, 44831, Note_on_c, 1, 69, 0
1, 44832, Note_on_c, 0, 76, 75
1, 44832, Note_on_c, 1, 61, 61
1, 44855, Note_on_c, 1, 61, 0
1, 44856, Note_on_c, 1, 69, 61
1, 44877, Note_on_c, 0, 76, 0
1, 44879, Note_on_c, 1, 69, 0
1, 44880, Note_on_c, 0, 79, 75
1, 44880, Note_on_c, 1, 61, 61
1, 44903, Note_on_c, 1, 61, 0
1, 44904, Note_on_c, 1, 69, 61
1, 44925, Note_on_c, 0, 79, 0
1, 44927, Note_on_c, 1, 69, 0
1, 44928, Note_on_c, 0, 78, 75
1, 44928, Note_on_c, 1, 62, 75
1, 44951, Note_on_c, 0, 78, 0
1, 44952, Note_on_c, 0, 79, 75
1, 44975, Note_on_c, 0, 79, 0
1, 44976, Note_on_c, 0, 81, 75
1, 44999, Note_on_c, 0, 81, 0
1, 45000, Note_on_c, 0, 78, 75
1, 45017, Note_on_c, 1, 62, 0
1, 45023, Note_on_c, 0, 78, 0
1, 45024, Note_on_c, 0, 76, 75
1, 45047, Note_on_c, 0, 76, 0
1, 45048, Note_on_c, 0, 74, 75
1, 45071, Note_on_c, 0, 74, 0
1, 45072, Note_on_c, 0, 73, 75
1, 45095, Note_on_c, 0, 73, 0
1, 45096, Note_on_c, 0, 71, 75
1, 45119, Note_on_c, 0, 71, 0
1, 45120, Note_on_c, 0, 69, 75
1, 45120, Note_on_c, 1, 64, 75
1, 45120, Note_on_c, 1, 61, 75
1, 45143, Note_on_c, 0, 69, 0
1, 45144, Note_on_c, 0, 68, 75
1, 45167, Note_on_c, 0, 68, 0
1, 45168, Note_on_c, 0, 69, 75
1, 45191, Note_on_c, 0, 69, 0
1, 45192, Note_on_c, 0, 71, 75
1, 45209, Note_on_c, 1, 64, 0
1, 45209, Note_on_c, 1, 61, 0
1, 45215, Note_on_c, 0, 71, 0
1, 45216, Note_on_c, 0, 69, 75
1, 45239, Note_on_c, 0, 69, 0
1, 45240, Note_on_c, 0, 67, 75
1, 45263, Note_on_c, 0, 67, 0
1, 45264, Note_on_c, 0, 66, 75
1, 45287, Note_on_c, 0, 66, 0
1, 45288, Note_on_c, 0, 64, 75
1, 45311, Note_on_c, 0, 64, 0
1, 45312, Note_on_c, 0, 66, 75
1, 45312, Note_on_c, 1, 50, 75
1, 45335, Note_on_c, 0, 66, 0
1, 45336, Note_on_c, 0, 67, 75
1, 45359, Note_on_c, 0, 67, 0
1, 45360, Note_on_c, 0, 69, 75
1, 45383, Note_on_c, 0, 69, 0
1, 45384, Note_on_c, 0, 66, 75
1, 45401, Note_on_c, 1, 50, 0
1, 45407, Note_on_c, 0, 66, 0
1, 45408, Note_on_c, 0, 64, 75
1, 45431, Note_on_c, 0, 64, 0
1, 45432, Note_on_c, 0, 62, 75
1, 45455, Note_on_c, 0, 62, 0
1, 45456, Note_on_c, 0, 61, 75
1, 45479, Note_on_c, 0, 61, 0
1, 45480, Note_on_c, 0, 59, 75
1, 45503, Note_on_c, 0, 59, 0
1, 45504, Note_on_c, 1, 57, 75
1, 45504, Note_on_c, 1, 45, 75
1, 45527, Note_on_c, 1, 57, 0
1, 45528, Note_on_c, 1, 56, 75
1, 45551, Note_on_c, 1, 56, 0
1, 45552, Note_on_c, 1, 57, 75
1, 45575, Note_on_c, 1, 57, 0
1, 45576, Note_on_c, 1, 59, 75
1, 45593, Note_on_c, 1, 45, 0
1, 45599, Note_on_c, 1, 59, 0
1, 45600, Note_on_c, 1, 57, 75
1, 45623, Note_on_c, 1, 57, 0
1, 45624, Note_on_c, 1, 55, 75
1, 45647, Note_on_c, 1, 55, 0
1, 45648, Note_on_c, 1, 54, 75
1, 45671, Note_on_c, 1, 54, 0
1, 45672, Note_on_c, 1, 52, 75
1, 45695, Note_on_c, 1, 52, 0
1, 45696, Note_on_c, 0, 78, 75
1, 45696, Note_on_c, 1, 50, 75
1, 45719, Note_on_c, 0, 78, 0
1, 45720, Note_on_c, 0, 79, 75
1, 45743, Note_on_c, 0, 79, 0
1, 45744, Note_on_c, 0, 81, 75
1, 45767, Note_on_c, 0, 81, 0
1, 45768, Note_on_c, 0, 78, 75
1, 45785, Note_on_c, 1, 50, 0
1, 45791, Note_on_c, 0, 78, 0
1, 45792, Note_on_c, 0, 76, 75
1, 45815, Note_on_c, 0, 76, 0
1, 45816, Note_on_c, 0, 74, 75
1, 45839, Note_on_c, 0, 74, 0
1, 45840, Note_on_c, 0, 73, 75
1, 45863, Note_on_c, 0, 73, 0
1, 45864, Note_on_c, 0, 74, 75
1, 45887, Note_on_c, 0, 74, 0
1, 45888, Note_on_c, 0, 83, 75
1, 45888, Note_on_c, 1, 67, 75
1, 45911, Note_on_c, 0, 83, 0
1, 45912, Note_on_c, 0, 85, 75
1, 45935, Note_on_c, 0, 85, 0
1, 45936, Note_on_c, 0, 86, 75
1, 45959, Note_on_c, 0, 86, 0
1, 45960, Note_on_c, 0, 83, 75
1, 45977, Note_on_c, 1, 67, 0
1, 45983, Note_on_c, 0, 83, 0
1, 45984, Note_on_c, 0, 81, 75
1, 46007, Note_on_c, 0, 81, 0
1, 46008, Note_on_c, 0, 79, 75
1, 46031, Note_on_c, 0, 79, 0
1, 46032, Note_on_c, 0, 78, 75
1, 46055, Note_on_c, 0, 78, 0
1, 46056, Note_on_c, 0, 76, 75
1, 46079, Note_on_c, 0, 76, 0
1, 46080, Note_on_c, 0, 75, 75
1, 46080, Note_on_c, 1, 55, 75
1, 46104, Note_on_c, 0, 75, 0
1, 46104, Note_on_c, 0, 76, 75
1, 46127, Note_on_c, 0, 76, 0
1, 46128, Note_on_c, 0, 78, 75
1, 46152, Note_on_c, 0, 78, 0
1, 46152, Note_on_c, 0, 76, 75
1, 46162, Note_on_c, 0, 76, 0
1, 46169, Note_on_c, 1, 55, 0
1, 46176, Note_on_c, 0, 79, 75
1, 46200, Note_on_c, 0, 79, 0
1, 46200, Note_on_c, 0, 78, 75
1, 46210, Note_on_c, 0, 78, 0
1, 46224, Note_on_c, 0, 81, 75
1, 46248, Note_on_c, 0, 81, 0
1, 46248, Note_on_c, 0, 79, 75
1, 46258, Note_on_c, 0, 79, 0
1, 46272, Note_on_c, 0, 83, 75
1, 46317, Note_on_c, 0, 83, 0
1, 46368, Note_on_c, 0, 81, 75
1, 46391, Note_on_c, 0, 81, 0
1, 46392, Note_on_c, 0, 79, 75
1, 46415, Note_on_c, 0, 79, 0
1, 46416, Note_on_c, 0, 78, 75
1, 46439, Note_on_c, 0, 78, 0
1, 46440, Note_on_c, 0, 76, 75
1, 46463, Note_on_c, 0, 76, 0
1, 46464, Note_on_c, 0, 74, 75
1, 46512, Note_on_c, 1, 62, 75
1, 46512, Note_on_c, 1, 54, 75
1, 46553, Note_on_c, 0, 74, 0
1, 46557, Note_on_c, 1, 54, 0
1, 46560, Note_on_c, 0, 76, 75
1, 46560, Note_on_c, 1, 55, 75
1, 46571, Note_on_c, 0, 76, 0
1, 46571, Note_on_c, 0, 78, 75
1, 46582, Note_on_c, 0, 78, 0
1, 46582, Note_on_c, 0, 76, 75
1, 46593, Note_on_c, 0, 76, 0
1, 46593, Note_on_c, 0, 78, 75
1, 46601, Note_on_c, 1, 62, 0
1, 46604, Note_on_c, 0, 78, 0
1, 46604, Note_on_c, 0, 76, 75
1, 46605, Note_on_c, 1, 55, 0
1, 46608, Note_on_c, 1, 61, 75
1, 46608, Note_on_c, 1, 57, 75
1, 46615, Note_on_c, 0, 76, 0
1, 46615, Note_on_c, 0, 78, 75
1, 46626, Note_on_c, 0, 78, 0
1, 46626, Note_on_c, 0, 76, 75
1, 46636, Note_on_c, 0, 76, 0
1, 46636, Note_on_c, 0, 74, 75
1, 46646, Note_on_c, 0, 74, 0
1, 46646, Note_on_c, 0, 76, 75
1, 46653, Note_on_c, 1, 61, 0
1, 46653, Note_on_c, 1, 57, 0
1, 46656, Note_on_c, 0, 76, 0
1, 46656, Note_on_c, 0, 78, 75
1, 46656, Note_on_c, 1, 62, 75
1, 46679, Note_on_c, 0, 78, 0
1, 46680, Note_on_c, 0, 79, 75
1, 46701, Note_on_c, 1, 62, 0
1, 46703, Note_on_c, 0, 79, 0
1, 46704, Note_on_c, 0, 81, 75
1, 46727, Note_on_c, 0, 81, 0
1, 46728, Note_on_c, 0, 78, 75
1, 46751, Note_on_c, 0, 78, 0
1, 46752, Note_on_c, 0, 76, 75
1, 46752, Note_on_c, 1, 66, 75
1, 46775, Note_on_c, 0, 76, 0
1, 46776, Note_on_c, 0, 74, 75
1, 46797, Note_on_c, 1, 66, 0
1, 46799, Note_on_c, 0, 74, 0
1, 46800, Note_on_c, 0, 73, 75
1, 46823, Note_on_c, 0, 73, 0
1, 46824, Note_on_c, 0, 74, 75
1, 46847, Note_on_c, 0, 74, 0
1, 46848, Note_on_c, 0, 83, 75
1, 46848, Note_on_c, 1, 67, 75
1, 46871, Note_on_c, 0, 83, 0
1, 46871, Note_on_c, 1, 67, 0
1, 46872, Note_on_c, 0, 85, 75
1, 46872, Note_on_c, 1, 69, 75
1, 46895, Note_on_c, 0, 85, 0
1, 46895, Note_on_c, 1, 69, 0
1, 46896, Note_on_c, 0, 86, 75
1, 46896, Note_on_c, 1, 71, 75
1, 46919, Note_on_c, 0, 86, 0
1, 46919, Note_on_c, 1, 71, 0
1, 46920, Note_on_c, 0, 85, 75
1, 46920, Note_on_c, 1, 69, 75
1, 46943, Note_on_c, 0, 85, 0
1, 46943, Note_on_c, 1, 69, 0
1, 46944, Note_on_c, 0, 83, 75
1, 46944, Note_on_c, 1, 67, 75
1, 46967, Note_on_c, 0, 83, 0
1, 46967, Note_on_c, 1, 67, 0
1, 46968, Note_on_c, 0, 81, 75
1, 46968, Note_on_c, 1, 66, 75
1, 46991, Note_on_c, 0, 81, 0
1, 46991, Note_on_c, 1, 66, 0
1, 46992, Note_on_c, 0, 79, 75
1, 46992, Note_on_c, 1, 64, 75
1, 47015, Note_on_c, 0, 79, 0
1, 47015, Note_on_c, 1, 64, 0
1, 47016, Note_on_c, 0, 78, 75
1, 47016, Note_on_c, 1, 62, 75
1, 47039, Note_on_c, 0, 78, 0
1, 47039, Note_on_c, 1, 62, 0
1, 47040, Note_on_c, 0, 76, 75
1, 47040, Note_on_c, 1, 61, 75
1, 47063, Note_on_c, 0, 76, 0
1, 47064, Note_on_c, 0, 78, 75
1, 47085, Note_on_c, 1, 61, 0
1, 47087, Note_on_c, 0, 78, 0
1, 47088, Note_on_c, 0, 79, 75
1, 47111, Note_on_c, 0, 79, 0
1, 47112, Note_on_c, 0, 76, 75
1, 47135, Note_on_c, 0, 76, 0
1, 47136, Note_on_c, 0, 74, 75
1, 47136, Note_on_c, 1, 64, 75
1, 47159, Note_on_c, 0, 74, 0
1, 47160, Note_on_c, 0, 73, 75
1, 47181, Note_on_c, 1, 64, 0
1, 47183, Note_on_c, 0, 73, 0
1, 47184, Note_on_c, 0, 71, 75
1, 47207, Note_on_c, 0, 71, 0
1, 47208, Note_on_c, 0, 73, 75
1, 47231, Note_on_c, 0, 73, 0
1, 47232, Note_on_c, 0, 81, 75
1, 47232, Note_on_c, 1, 66, 75
1, 47255, Note_on_c, 0, 81, 0
1, 47255, Note_on_c, 1, 66, 0
1, 47256, Note_on_c, 0, 83, 75
1, 47256, Note_on_c, 1, 67, 75
1, 47279, Note_on_c, 0, 83, 0
1, 47279, Note_on_c, 1, 67, 0
1, 47280, Note_on_c, 0, 85, 75
1, 47280, Note_on_c, 1, 69, 75
1, 47303, Note_on_c, 0, 85, 0
1, 47303, Note_on_c, 1, 69, 0
1, 47304, Note_on_c, 0, 83, 75
1, 47304, Note_on_c, 1, 67, 75
1, 47327, Note_on_c, 0, 83, 0
1, 47327, Note_on_c, 1, 67, 0
1, 47328, Note_on_c, 0, 81, 75
1, 47328, Note_on_c, 1, 66, 75
1, 47351, Note_on_c, 0, 81, 0
1, 47351, Note_on_c, 1, 66, 0
1, 47352, Note_on_c, 0, 79, 75
1, 47352, Note_on_c, 1, 64, 75
1, 47375, Note_on_c, 0, 79, 0
1, 47375, Note_on_c, 1, 64, 0
1, 47376, Note_on_c, 0, 78, 75
1, 47376, Note_on_c, 1, 62, 75
1, 47399, Note_on_c, 0, 78, 0
1, 47399, Note_on_c, 1, 62, 0
1, 47400, Note_on_c, 0, 76, 75
1, 47400, Note_on_c, 1, 61, 75
1, 47423, Note_on_c, 0, 76, 0
1, 47423, Note_on_c, 1, 61, 0
1, 47424, Note_on_c, 0, 74, 75
1, 47424, Note_on_c, 1, 59, 75
1, 47447, Note_on_c, 0, 74, 0
1, 47448, Note_on_c, 0, 76, 75
1, 47469, Note_on_c, 1, 59, 0
1, 47471, Note_on_c, 0, 76, 0
1, 47472, Note_on_c, 0, 78, 75
1, 47495, Note_on_c, 0, 78, 0
1, 47496, Note_on_c, 0, 74, 75
1, 47519, Note_on_c, 0, 74, 0
1, 47520, Note_on_c, 0, 73, 75
1, 47520, Note_on_c, 1, 62, 75
1, 47543, Note_on_c, 0, 73, 0
1, 47544, Note_on_c, 0, 71, 75
1, 47565, Note_on_c, 1, 62, 0
1, 47567, Note_on_c, 0, 71, 0
1, 47568, Note_on_c, 0, 70, 75
1, 47591, Note_on_c, 0, 70, 0
1, 47592, Note_on_c, 0, 71, 75
1, 47615, Note_on_c, 0, 71, 0
1, 47616, Note_on_c, 0, 79, 75
1, 47616, Note_on_c, 1, 64, 75
1, 47639, Note_on_c, 0, 79, 0
1, 47639, Note_on_c, 1, 64, 0
1, 47640, Note_on_c, 0, 81, 75
1, 47640, Note_on_c, 1, 66, 75
1, 47663, Note_on_c, 0, 81, 0
1, 47663, Note_on_c, 1, 66, 0
1, 47664, Note_on_c, 0, 83, 75
1, 47664, Note_on_c, 1, 67, 75
1, 47687, Note_on_c, 0, 83, 0
1, 47687, Note_on_c, 1, 67, 0
1, 47688, Note_on_c, 0, 81, 75
1, 47688, Note_on_c, 1, 66, 75
1, 47711, Note_on_c, 0, 81, 0
1, 47711, Note_on_c, 1, 66, 0
1, 47712, Note_on_c, 0, 79, 75
1, 47712, Note_on_c, 1, 64, 75
1, 47735, Note_on_c, 0, 79, 0
1, 47735, Note_on_c, 1, 64, 0
1, 47736, Note_on_c, 0, 78, 75
1, 47736, Note_on_c, 1, 62, 75
1, 47759, Note_on_c, 0, 78, 0
1, 47759, Note_on_c, 1, 62, 0
1, 47760, Note_on_c, 0, 76, 75
1, 47760, Note_on_c, 1, 61, 75
1, 47783, Note_on_c, 0, 76, 0
1, 47783, Note_on_c, 1, 61, 0
1, 47784, Note_on_c, 0, 74, 75
1, 47784, Note_on_c, 1, 59, 75
1, 47807, Note_on_c, 0, 74, 0
1, 47807, Note_on_c, 1, 59, 0
1, 47808, Note_on_c, 0, 73, 75
1, 47808, Note_on_c, 1, 57, 75
1, 47831, Note_on_c, 0, 73, 0
1, 47832, Note_on_c, 0, 74, 75
1, 47853, Note_on_c, 1, 57, 0
1, 47855, Note_on_c, 0, 74, 0
1, 47856, Note_on_c, 0, 76, 75
1, 47879, Note_on_c, 0, 76, 0
1, 47880, Note_on_c, 0, 74, 75
1, 47903, Note_on_c, 0, 74, 0
1, 47904, Note_on_c, 0, 73, 75
1, 47904, Note_on_c, 1, 61, 75
1, 47927, Note_on_c, 0, 73, 0
1, 47928, Note_on_c, 0, 71, 75
1, 47949, Note_on_c, 1, 61, 0
1, 47951, Note_on_c, 0, 71, 0
1, 47952, Note_on_c, 0, 69, 75
1, 47975, Note_on_c, 0, 69, 0
1, 47976, Note_on_c, 0, 67, 75
1, 47999, Note_on_c, 0, 67, 0
1, 48000, Note_on_c, 0, 66, 75
1, 48000, Note_on_c, 1, 62, 75
1, 48023, Note_on_c, 0, 66, 0
1, 48024, Note_on_c, 0, 67, 75
1, 48047, Note_on_c, 0, 67, 0
1, 48048, Note_on_c, 0, 69, 75
1, 48071, Note_on_c, 0, 69, 0
1, 48072, Note_on_c, 0, 66, 75
1, 48089, Note_on_c, 1, 62, 0
1, 48095, Note_on_c, 0, 66, 0
1, 48096, Note_on_c, 0, 64, 75
1, 48119, Note_on_c, 0, 64, 0
1, 48120, Note_on_c, 0, 62, 75
1, 48143, Note_on_c, 0, 62, 0
1, 48144, Note_on_c, 0, 61, 75
1, 48167, Note_on_c, 0, 61, 0
1, 48168, Note_on_c, 0, 62, 75
1, 48191, Note_on_c, 0, 62, 0
1, 48192, Note_on_c, 0, 71, 75
1, 48192, Note_on_c, 1, 55, 75
1, 48215, Note_on_c, 0, 71, 0
1, 48216, Note_on_c, 0, 73, 75
1, 48239, Note_on_c, 0, 73, 0
1, 48240, Note_on_c, 0, 74, 75
1, 48263, Note_on_c, 0, 74, 0
1, 48264, Note_on_c, 0, 71, 75
1, 48281, Note_on_c, 1, 55, 0
1, 48287, Note_on_c, 0, 71, 0
1, 48288, Note_on_c, 0, 69, 75
1, 48311, Note_on_c, 0, 69, 0
1, 48312, Note_on_c, 0, 67, 75
1, 48335, Note_on_c, 0, 67, 0
1, 48336, Note_on_c, 0, 66, 75
1, 48359, Note_on_c, 0, 66, 0
1, 48360, Note_on_c, 0, 64, 75
1, 48383, Note_on_c, 0, 64, 0
1, 48384, Note_on_c, 0, 63, 75
1, 48384, Note_on_c, 1, 43, 75
1, 48408, Note_on_c, 0, 63, 0
1, 48408, Note_on_c, 0, 64, 75
1, 48431, Note_on_c, 0, 64, 0
1, 48432, Note_on_c, 0, 66, 75
1, 48456, Note_on_c, 0, 66, 0
1, 48456, Note_on_c, 0, 64, 75
1, 48466, Note_on_c, 0, 64, 0
1, 48473, Note_on_c, 1, 43, 0
1, 48480, Note_on_c, 0, 67, 75
1, 48504, Note_on_c, 0, 67, 0
1, 48504, Note_on_c, 0, 66, 75
1, 48514, Note_on_c, 0, 66, 0
1, 48528, Note_on_c, 0, 69, 75
1, 48552, Note_on_c, 0, 69, 0
1, 48552, Note_on_c, 0, 67, 75
1, 48562, Note_on_c, 0, 67, 0
1, 48576, Note_on_c, 0, 71, 75
1, 48621, Note_on_c, 0, 71, 0
1, 48672, Note_on_c, 0, 79, 75
1, 48696, Note_on_c, 0, 79, 0
1, 48696, Note_on_c, 0, 78, 75
1, 48706, Note_on_c, 0, 78, 0
1, 48720, Note_on_c, 0, 81, 75
1, 48744, Note_on_c, 0, 81, 0
1, 48744, Note_on_c, 0, 79, 75
1, 48754, Note_on_c, 0, 79, 0
1, 48768, Note_on_c, 0, 83, 75
1, 48813, Note_on_c, 0, 83, 0
1, 48864, Note_on_c, 0, 55, 75
1, 48888, Note_on_c, 0, 55, 0
1, 48888, Note_on_c, 0, 54, 75
1, 48898, Note_on_c, 0, 54, 0
1, 48912, Note_on_c, 0, 57, 75
1, 48936, Note_on_c, 0, 57, 0
1, 48936, Note_on_c, 0, 55, 75
1, 48946, Note_on_c, 0, 55, 0
1, 48960, Note_on_c, 0, 59, 75
1, 49005, Note_on_c, 0, 59, 0
1, 49008, Tempo, 1000000
1, 49104, Tempo, 545454
1, 49104, Note_on_c, 0, 63, 84
1, 49116, Note_on_c, 0, 63, 0
1, 49116, Note_on_c, 0, 75, 84
1, 49149, Note_on_c, 0, 75, 0
1, 49152, Note_on_c, 0, 64, 84
1, 49164, Note_on_c, 0, 64, 0
1, 49164, Note_on_c, 0, 76, 84
1, 49197, Note_on_c, 0, 76, 0
1, 49200, Note_on_c, 0, 66, 84
1, 49212, Note_on_c, 0, 66, 0
1, 49212, Note_on_c, 0, 78, 84
1, 49245, Note_on_c, 0, 78, 0
1, 49248, Note_on_c, 0, 67, 84
1, 49260, Note_on_c, 0, 67, 0
1, 49260, Note_on_c, 0, 79, 84
1, 49293, Note_on_c, 0, 79, 0
1, 49296, Note_on_c, 0, 70, 84
1, 49308, Note_on_c, 0, 70, 0
1, 49308, Note_on_c, 0, 82, 84
1, 49341, Note_on_c, 0, 82, 0
1, 49344, Note_on_c, 0, 71, 84
1, 49356, Note_on_c, 0, 71, 0
1, 49356, Note_on_c, 0, 83, 84
1, 49389, Note_on_c, 0, 83, 0
1, 49392, Note_on_c, 0, 73, 84
1, 49404, Note_on_c, 0, 73, 0
1, 49404, Note_on_c, 0, 85, 84
1, 49437, Note_on_c, 0, 85, 0
1, 49440, Note_on_c, 0, 74, 84
1, 49452, Note_on_c, 0, 74, 0
1, 49452, Note_on_c, 0, 86, 84
1, 49485, Note_on_c, 0, 86, 0
1, 49488, Note_on_c, 0, 68, 84
1, 49500, Note_on_c, 0, 68, 0
1, 49500, Note_on_c, 0, 80, 84
1, 49533, Note_on_c, 0, 80, 0
1, 49536, Note_on_c, 0, 69, 84
1, 49536, Note_on_c, 1, 66, 61
1, 49536, Note_on_c, 1, 62, 61
1, 49536, Note_on_c, 1, 57, 61
1, 49548, Note_on_c, 0, 69, 0
1, 49548, Note_on_c, 0, 81, 84
1, 49581, Note_on_c, 1, 66, 0
1, 49581, Note_on_c, 1, 62, 0
1, 49581, Note_on_c, 1, 57, 0
1, 49584, Note_on_c, 1, 66, 61
1, 49584, Note_on_c, 1, 62, 61
1, 49584, Note_on_c, 1, 57, 61
1, 49629, Note_on_c, 1, 66, 0
1, 49629, Note_on_c, 1, 62, 0
1, 49629, Note_on_c, 1, 57, 0
1, 49632, Note_on_c, 1, 66, 61
1, 49632, Note_on_c, 1, 62, 61
1, 49632, Note_on_c, 1, 57, 61
1, 49669, Note_on_c, 0, 81, 0
1, 49677, Note_on_c, 1, 66, 0
1, 49677, Note_on_c, 1, 62, 0
1, 49677, Note_on_c, 1, 57, 0
1, 49680, Note_on_c, 0, 79, 84
1, 49680, Note_on_c, 1, 66, 61
1, 49680, Note_on_c, 1, 62, 61
1, 49680, Note_on_c, 1, 57, 61
1, 49692, Note_on_c, 0, 79, 0
1, 49692, Note_on_c, 0, 78, 84
1, 49704, Note_on_c, 0, 78, 0
1, 49704, Note_on_c, 0, 76, 84
1, 49716, Note_on_c, 0, 76, 0
1, 49716, Note_on_c, 0, 74, 84
1, 49725, Note_on_c, 1, 66, 0
1, 49725, Note_on_c, 1, 62, 0
1, 49725, Note_on_c, 1, 57, 0
1, 49728, Note_on_c, 0, 74, 0
1, 49728, Note_on_c, 0, 76, 84
1, 49728, Note_on_c, 1, 61, 61
1, 49728, Note_on_c, 1, 57, 61
1, 49740, Note_on_c, 0, 76, 0
1, 49741, Note_on_c, 0, 78, 84
1, 49753, Note_on_c, 0, 78, 0
1, 49754, Note_on_c, 0, 76, 84
1, 49766, Note_on_c, 0, 76, 0
1, 49767, Note_on_c, 0, 78, 84
1, 49773, Note_on_c, 1, 61, 0
1, 49773, Note_on_c, 1, 57, 0
1, 49776, Note_on_c, 1, 61, 61
1, 49776, Note_on_c, 1, 57, 61
1, 49779, Note_on_c, 0, 78, 0
1, 49780, Note_on_c, 0, 76, 84
1, 49792, Note_on_c, 0, 76, 0
1, 49793, Note_on_c, 0, 78, 84
1, 49805, Note_on_c, 0, 78, 0
1, 49806, Note_on_c, 0, 76, 84
1, 49818, Note_on_c, 0, 76, 0
1, 49819, Note_on_c, 0, 78, 84
1, 49821, Note_on_c, 1, 61, 0
1, 49821, Note_on_c, 1, 57, 0
1, 49824, Note_on_c, 1, 61, 61
1, 49824, Note_on_c, 1, 57, 61
1, 49831, Note_on_c, 0, 78, 0
1, 49832, Note_on_c, 0, 76, 84
1, 49844, Note_on_c, 0, 76, 0
1, 49845, Note_on_c, 0, 78, 84
1, 49857, Note_on_c, 0, 78, 0
1, 49858, Note_on_c, 0, 76, 84
1, 49869, Note_on_c, 1, 61, 0
1, 49869, Note_on_c, 1, 57, 0
1, 49870, Note_on_c, 0, 76, 0
1, 49871, Note_on_c, 0, 74, 84
1, 49872, Note_on_c, 1, 61, 61
1, 49872, Note_on_c, 1, 57, 61
1, 49896, Note_on_c, 0, 74, 0
1, 49896, Note_on_c, 0, 76, 84
1, 49917, Note_on_c, 1, 61, 0
1, 49917, Note_on_c, 1, 57, 0
1, 49920, Note_on_c, 0, 76, 0
1, 49920, Note_on_c, 0, 74, 84
1, 49920, Note_on_c, 1, 50, 69
1, 49943, Note_on_c, 1, 50, 0
1, 49944, Note_on_c, 1, 62, 69
1, 49967, Note_on_c, 1, 62, 0
1, 49968, Note_on_c, 1, 61, 69
1, 49991, Note_on_c, 1, 61, 0
1, 49992, Note_on_c, 1, 62, 69
1, 50009, Note_on_c, 0, 74, 0
1, 50015, Note_on_c, 1, 62, 0
1, 50016, Note_on_c, 1, 54, 69
1, 50039, Note_on_c, 1, 54, 0
1, 50040, Note_on_c, 1, 62, 69
1, 50063, Note_on_c, 1, 62, 0
1, 50064, Note_on_c, 0, 69, 84
1, 50064, Note_on_c, 1, 61, 69
1, 50087, Note_on_c, 1, 61, 0
1, 50088, Note_on_c, 1, 62, 69
1, 50109, Note_on_c, 0, 69, 0
1, 50111, Note_on_c, 1, 62, 0
1, 50112, Note_on_c, 0, 71, 84
1, 50112, Note_on_c, 1, 55, 69
1, 50124, Note_on_c, 0, 71, 0
1, 50124, Note_on_c, 0, 73, 84
1, 50135, Note_on_c, 1, 55, 0
1, 50136, Note_on_c, 0, 73, 0
1, 50136, Note_on_c, 0, 71, 84
1, 50136, Note_on_c, 1, 62, 69
1, 50157, Note_on_c, 0, 71, 0
1, 50159, Note_on_c, 1, 62, 0
1, 50160, Note_on_c, 0, 69, 84
1, 50160, Note_on_c, 1, 54, 69
1, 50183, Note_on_c, 1, 54, 0
1, 50184, Note_on_c, 1, 62, 69
1, 50205, Note_on_c, 0, 69, 0
1, 50207, Note_on_c, 1, 62, 0
1, 50208, Note_on_c, 0, 71, 84
1, 50208, Note_on_c, 1, 55, 69
1, 50220, Note_on_c, 0, 71, 0
1, 50220, Note_on_c, 0, 73, 84
1, 50231, Note_on_c, 1, 55, 0
1, 50232, Note_on_c, 0, 73, 0
1, 50232, Note_on_c, 0, 71, 84
1, 50232, Note_on_c, 1, 62, 69
1, 50253, Note_on_c, 0, 71, 0
1, 50255, Note_on_c, 1, 62, 0
1, 50256, Note_on_c, 0, 69, 84
1, 50256, Note_on_c, 1, 54, 69
1, 50279, Note_on_c, 1, 54, 0
1, 50280, Note_on_c, 1, 62, 69
1, 50301, Note_on_c, 0, 69, 0
1, 50303, Note_on_c, 1, 62, 0
1, 50304, Note_on_c, 0, 69, 100
1, 50304, Note_on_c, 1, 61, 69
1, 50304, Note_on_c, 1, 52, 69
1, 50316, Note_on_c, 0, 73, 100
1, 50328, Note_on_c, 0, 76, 100
1, 50340, Note_on_c, 0, 79, 100
1, 50393, Note_on_c, 1, 61, 0
1, 50393, Note_on_c, 1, 52, 0
1, 50400, Note_on_c, 0, 79, 0
1, 50400, Note_on_c, 0, 76, 0
1, 50400, Note_on_c, 0, 73, 0
1, 50400, Note_on_c, 0, 69, 0
1, 50448, Note_on_c, 0, 78, 84
1, 50448, Note_on_c, 1, 62, 69
1, 50448, Note_on_c, 1, 50, 69
1, 50493, Note_on_c, 0, 78, 0
1, 50493, Note_on_c, 1, 62, 0
1, 50493, Note_on_c, 1, 50, 0
1, 50496, Note_on_c, 0, 78, 84
1, 50496, Note_on_c, 1, 59, 69
1, 50496, Note_on_c, 1, 55, 69
1, 50508, Note_on_c, 0, 78, 0
1, 50508, Note_on_c, 0, 76, 84
1, 50520, Note_on_c, 0, 76, 0
1, 50520, Note_on_c, 0, 75, 84
1, 50532, Note_on_c, 0, 75, 0
1, 50532, Note_on_c, 0, 76, 84
1, 50541, Note_on_c, 1, 59, 0
1, 50541, Note_on_c, 1, 55, 0
1, 50544, Note_on_c, 0, 76, 0
1, 50544, Note_on_c, 0, 79, 84
1, 50589, Note_on_c, 0, 79, 0
1, 50592, Note_on_c, 0, 71, 84
1, 50592, Note_on_c, 1, 57, 69
1, 50592, Note_on_c, 1, 45, 69
1, 50604, Note_on_c, 0, 71, 0
1, 50604, Note_on_c, 0, 69, 84
1, 50616, Note_on_c, 0, 69, 0
1, 50616, Note_on_c, 0, 68, 84
1, 50628, Note_on_c, 0, 68, 0
1, 50628, Note_on_c, 0, 69, 84
1, 50637, Note_on_c, 1, 57, 0
1, 50637, Note_on_c, 1, 45, 0
1, 50640, Note_on_c, 0, 69, 0
1, 50640, Note_on_c, 0, 73, 84
1, 50640, Note_on_c, 0, 67, 84
1, 50685, Note_on_c, 0, 73, 0
1, 50685, Note_on_c, 0, 67, 0
1, 50688, Note_on_c, 0, 74, 84
1, 50688, Note_on_c, 0, 66, 84
1, 50688, Note_on_c, 1, 50, 69
1, 50711, Note_on_c, 1, 50, 0
1, 50712, Note_on_c, 1, 62, 69
1, 50735, Note_on_c, 1, 62, 0
1, 50736, Note_on_c, 1, 61, 69
1, 50759, Note_on_c, 1, 61, 0
1, 50760, Note_on_c, 1, 62, 69
1, 50777, Note_on_c, 0, 74, 0
1, 50777, Note_on_c, 0, 66, 0
1, 50783, Note_on_c, 1, 62, 0
1, 50784, Note_on_c, 1, 54, 69
1, 50807, Note_on_c, 1, 54, 0
1, 50808, Note_on_c, 1, 62, 69
1, 50831, Note_on_c, 1, 62, 0
1, 50832, Note_on_c, 0, 69, 84
1, 50832, Note_on_c, 1, 61, 69
1, 50855, Note_on_c, 1, 61, 0
1, 50856, Note_on_c, 1, 62, 69
1, 50877, Note_on_c, 0, 69, 0
1, 50879, Note_on_c, 1, 62, 0
1, 50880, Note_on_c, 0, 71, 84
1, 50880, Note_on_c, 1, 55, 69
1, 50892, Note_on_c, 0, 71, 0
1, 50892, Note_on_c, 0, 73, 84
1, 50903, Note_on_c, 1, 55, 0
1, 50904, Note_on_c, 0, 73, 0
1, 50904, Note_on_c, 0, 71, 84
1, 50904, Note_on_c, 1, 62, 69
1, 50925, Note_on_c, 0, 71, 0
1, 50927, Note_on_c, 1, 62, 0
1, 50928, Note_on_c, 0, 69, 84
1, 50928, Note_on_c, 1, 54, 69
1, 50951, Note_on_c, 1, 54, 0
1, 50952, Note_on_c, 1, 62, 69
1, 50973, Note_on_c, 0, 69, 0
1, 50975, Note_on_c, 1, 62, 0
1, 50976, Note_on_c, 0, 71, 84
1, 50976, Note_on_c, 1, 55, 69
1, 50988, Note_on_c, 0, 71, 0
1, 50988, Note_on_c, 0, 73, 84
1, 50999, Note_on_c, 1, 55, 0
1, 51000, Note_on_c, 0, 73, 0
1, 51000, Note_on_c, 0, 71, 84
1, 51000, Note_on_c, 1, 62, 69
1, 51021, Note_on_c, 0, 71, 0
1, 51023, Note_on_c, 1, 62, 0
1, 51024, Note_on_c, 0, 69, 84
1, 51024, Note_on_c, 1, 54, 69
1, 51047, Note_on_c, 1, 54, 0
1, 51048, Note_on_c, 1, 62, 69
1, 51069, Note_on_c, 0, 69, 0
1, 51071, Note_on_c, 1, 62, 0
1, 51072, Note_on_c, 0, 69, 100
1, 51072, Note_on_c, 1, 61, 69
1, 51072, Note_on_c, 1, 52, 69
1, 51084, Note_on_c, 0, 73, 100
1, 51096, Note_on_c, 0, 76, 100
1, 51108, Note_on_c, 0, 79, 100
1, 51161, Note_on_c, 1, 61, 0
1, 51161, Note_on_c, 1, 52, 0
1, 51168, Note_on_c, 0, 79, 0
1, 51168, Note_on_c, 0, 76, 0
1, 51168, Note_on_c, 0, 73, 0
1, 51168, Note_on_c, 0, 69, 0
1, 51216, Note_on_c, 0, 78, 84
1, 51216, Note_on_c, 1, 62, 69
1, 51216, Note_on_c, 1, 50, 69
1, 51261, Note_on_c, 0, 78, 0
1, 51261, Note_on_c, 1, 62, 0
1, 51261, Note_on_c, 1, 50, 0
1, 51264, Note_on_c, 0, 78, 84
1, 51264, Note_on_c, 1, 59, 69
1, 51264, Note_on_c, 1, 55, 69
1, 51276, Note_on_c, 0, 78, 0
1, 51276, Note_on_c, 0, 76, 84
1, 51288, Note_on_c, 0, 76, 0
1, 51288, Note_on_c, 0, 75, 84
1, 51300, Note_on_c, 0, 75, 0
1, 51300, Note_on_c, 0, 76, 84
1, 51309, Note_on_c, 1, 59, 0
1, 51309, Note_on_c, 1, 55, 0
1, 51312, Note_on_c, 0, 76, 0
1, 51312, Note_on_c, 0, 79, 84
1, 51357, Note_on_c, 0, 79, 0
1, 51360, Note_on_c, 0, 71, 84
1, 51360, Note_on_c, 1, 57, 69
1, 51360, Note_on_c, 1, 45, 69
1, 51372, Note_on_c, 0, 71, 0
1, 51372, Note_on_c, 0, 69, 84
1, 51384, Note_on_c, 0, 69, 0
1, 51384, Note_on_c, 0, 68, 84
1, 51396, Note_on_c, 0, 68, 0
1, 51396, Note_on_c, 0, 69, 84
1, 51405, Note_on_c, 1, 57, 0
1, 51405, Note_on_c, 1, 45, 0
1, 51408, Note_on_c, 0, 69, 0
1, 51408, Note_on_c, 0, 73, 84
1, 51408, Note_on_c, 0, 67, 84
1, 51453, Note_on_c, 0, 73, 0
1, 51453, Note_on_c, 0, 67, 0
1, 51456, Note_on_c, 0, 74, 84
1, 51456, Note_on_c, 0, 66, 84
1, 51456, Note_on_c, 1, 50, 69
1, 51456, Note_on_c, 1, 38, 69
1, 51501, Note_on_c, 0, 74, 0
1, 51501, Note_on_c, 0, 66, 0
1, 51501, Note_on_c, 1, 50, 0
1, 51501, Note_on_c, 1, 38, 0
1, 51552, Note_on_c, 1, 55, 84
1, 51552, Note_on_c, 1, 45, 84
1, 51576, Note_on_c, 0, 57, 81
1, 51597, Note_on_c, 1, 55, 0
1, 51597, Note_on_c, 1, 45, 0
1, 51599, Note_on_c, 0, 57, 0
1, 51600, Note_on_c, 0, 61, 78
1, 51623, Note_on_c, 0, 61, 0
1, 51624, Note_on_c, 0, 69, 76
1, 51647, Note_on_c, 0, 69, 0
1, 51648, Note_on_c, 1, 54, 76
1, 51648, Note_on_c, 1, 45, 76
1, 51672, Note_on_c, 0, 57, 71
1, 51693, Note_on_c, 1, 54, 0
1, 51693, Note_on_c, 1, 45, 0
1, 51695, Note_on_c, 0, 57, 0
1, 51696, Note_on_c, 0, 62, 68
1, 51719, Note_on_c, 0, 62, 0
1, 51720, Note_on_c, 0, 69, 65
1, 51743, Note_on_c, 0, 69, 0
1, 51744, Note_on_c, 1, 52, 68
1, 51744, Note_on_c, 1, 45, 68
1, 51768, Note_on_c, 0, 52, 60
1, 51789, Note_on_c, 1, 52, 0
1, 51789, Note_on_c, 1, 45, 0
1, 51791, Note_on_c, 0, 52, 0
1, 51792, Note_on_c, 0, 55, 58
1, 51815, Note_on_c, 0, 55, 0
1, 51816, Note_on_c, 0, 61, 55
1, 51839, Note_on_c, 0, 61, 0
1, 51840, Note_on_c, 0, 62, 53
1, 51840, Note_on_c, 0, 54, 53
1, 51840, Note_on_c, 1, 50, 60
1, 51840, Note_on_c, 1, 38, 60
1, 51929, Note_on_c, 0, 62, 0
1, 51929, Note_on_c, 0, 54, 0
1, 51929, Note_on_c, 1, 50, 0
1, 51929, Note_on_c, 1, 38, 0
1, 52032, Note_on_c, 1, 42, 84
1, 52032, Note_on_c, 1, 30, 84
1, 52224, Note_on_c, 1, 30, 0
1, 52320, Note_on_c, 0, 55, 75
1, 52332, Note_on_c, 0, 55, 0
1, 52332, Note_on_c, 0, 54, 75
1, 52344, Note_on_c, 0, 54, 0
1, 52344, Note_on_c, 0, 53, 75
1, 52356, Note_on_c, 0, 53, 0
1, 52356, Note_on_c, 0, 54, 75
1, 52368, Note_on_c, 0, 54, 0
1, 52368, Note_on_c, 0, 58, 75
1, 52368, Note_on_c, 1, 52, 75
1, 52413, Note_on_c, 0, 58, 0
1, 52413, Note_on_c, 1, 52, 0
1, 52416, Note_on_c, 0, 61, 75
1, 52416, Note_on_c, 1, 50, 75
1, 52428, Note_on_c, 0, 61, 0
1, 52428, Note_on_c, 0, 59, 75
1, 52440, Note_on_c, 0, 59, 0
1, 52440, Note_on_c, 0, 58, 75
1, 52452, Note_on_c, 0, 58, 0
1, 52452, Note_on_c, 0, 59, 75
1, 52461, Note_on_c, 1, 50, 0
1, 52464, Note_on_c, 0, 59, 0
1, 52464, Note_on_c, 0, 62, 75
1, 52464, Note_on_c, 1, 47, 75
1, 52509, Note_on_c, 0, 62, 0
1, 52509, Note_on_c, 1, 47, 0
1, 52512, Note_on_c, 0, 62, 75
1, 52512, Note_on_c, 1, 46, 75
1, 52524, Note_on_c, 0, 62, 0
1, 52524, Note_on_c, 0, 61, 75
1, 52536, Note_on_c, 0, 61, 0
1, 52536, Note_on_c, 0, 59, 75
1, 52548, Note_on_c, 0, 59, 0
1, 52548, Note_on_c, 0, 61, 75
1, 52557, Note_on_c, 1, 46, 0
1, 52560, Note_on_c, 0, 61, 0
1, 52560, Note_on_c, 0, 64, 75
1, 52560, Note_on_c, 1, 49, 75
1, 52593, Note_on_c, 1, 42, 0
1, 52605, Note_on_c, 0, 64, 0
1, 52605, Note_on_c, 1, 49, 0
1, 52608, Note_on_c, 0, 64, 75
1, 52608, Note_on_c, 1, 47, 75
1, 52620, Note_on_c, 0, 64, 0
1, 52620, Note_on_c, 0, 62, 75
1, 52632, Note_on_c, 0, 62, 0
1, 52632, Note_on_c, 0, 61, 75
1, 52644, Note_on_c, 0, 61, 0
1, 52644, Note_on_c, 0, 62, 75
1, 52656, Note_on_c, 0, 62, 0
1, 52656, Note_on_c, 0, 66, 75
1, 52697, Note_on_c, 1, 47, 0
1, 52701, Note_on_c, 0, 66, 0
1, 52752, Note_on_c, 0, 62, 75
1, 52764, Note_on_c, 0, 62, 0
1, 52764, Note_on_c, 0, 66, 75
1, 52776, Note_on_c, 0, 66, 0
1, 52776, Note_on_c, 0, 71, 75
1, 52788, Note_on_c, 0, 71, 0
1, 52788, Note_on_c, 0, 74, 76
1, 52800, Note_on_c, 0, 74, 0
1, 52800, Note_on_c, 0, 71, 77
1, 52848, Note_on_c, 0, 71, 0
1, 52848, Note_on_c, 0, 66, 80
1, 52893, Note_on_c, 0, 66, 0
1, 52896, Note_on_c, 0, 78, 84
1, 52916, Note_on_c, 0, 78, 0
1, 52944, Note_on_c, 0, 71, 81
1, 52944, Note_on_c, 1, 66, 75
1, 52944, Note_on_c, 1, 62, 75
1, 52964, Note_on_c, 0, 71, 0
1, 52964, Note_on_c, 1, 66, 0
1, 52964, Note_on_c, 1, 62, 0
1, 52992, Note_on_c, 0, 73, 79
1, 52992, Note_on_c, 1, 67, 75
1, 52992, Note_on_c, 1, 64, 75
1, 53004, Note_on_c, 0, 73, 0
1, 53004, Note_on_c, 0, 74, 79
1, 53012, Note_on_c, 1, 67, 0
1, 53012, Note_on_c, 1, 64, 0
1, 53016, Note_on_c, 0, 74, 0
1, 53016, Note_on_c, 0, 73, 79
1, 53037, Note_on_c, 0, 73, 0
1, 53040, Note_on_c, 0, 71, 77
1, 53040, Note_on_c, 1, 66, 75
1, 53040, Note_on_c, 1, 62, 75
1, 53060, Note_on_c, 1, 66, 0
1, 53060, Note_on_c, 1, 62, 0
1, 53085, Note_on_c, 0, 71, 0
1, 53136, Note_on_c, 0, 62, 75
1, 53148, Note_on_c, 0, 62, 0
1, 53148, Note_on_c, 0, 66, 76
1, 53160, Note_on_c, 0, 66, 0
1, 53160, Note_on_c, 0, 71, 77
1, 53172, Note_on_c, 0, 71, 0
1, 53172, Note_on_c, 0, 74, 78
1, 53184, Note_on_c, 0, 74, 0
1, 53184, Note_on_c, 0, 71, 79
1, 53232, Note_on_c, 0, 71, 0
1, 53232, Note_on_c, 0, 66, 84
1, 53277, Note_on_c, 0, 66, 0
1, 53280, Note_on_c, 0, 83, 82
1, 53300, Note_on_c, 0, 83, 0
1, 53328, Note_on_c, 0, 78, 80
1, 53328, Note_on_c, 1, 74, 75
1, 53328, Note_on_c, 1, 71, 75
1, 53348, Note_on_c, 0, 78, 0
1, 53348, Note_on_c, 1, 74, 0
1, 53348, Note_on_c, 1, 71, 0
1, 53376, Note_on_c, 0, 79, 78
1, 53376, Note_on_c, 1, 73, 75
1, 53376, Note_on_c, 1, 70, 75
1, 53388, Note_on_c, 0, 79, 0
1, 53388, Note_on_c, 0, 81, 78
1, 53396, Note_on_c, 1, 73, 0
1, 53396, Note_on_c, 1, 70, 0
1, 53400, Note_on_c, 0, 81, 0
1, 53400, Note_on_c, 0, 79, 78
1, 53421, Note_on_c, 0, 79, 0
1, 53424, Note_on_c, 0, 78, 76
1, 53424, Note_on_c, 1, 74, 75
1, 53424, Note_on_c, 1, 71, 75
1, 53444, Note_on_c, 1, 74, 0
1, 53444, Note_on_c, 1, 71, 0
1, 53469, Note_on_c, 0, 78, 0
1, 53520, Note_on_c, 0, 71, 75
1, 53532, Note_on_c, 0, 71, 0
1, 53532, Note_on_c, 0, 74, 77
1, 53544, Note_on_c, 0, 74, 0
1, 53544, Note_on_c, 0, 78, 79
1, 53556, Note_on_c, 0, 78, 0
1, 53556, Note_on_c, 0, 83, 81
1, 53568, Note_on_c, 0, 83, 0
1, 53568, Note_on_c, 0, 78, 84
1, 53616, Note_on_c, 0, 78, 0
1, 53616, Note_on_c, 0, 74, 82
1, 53661, Note_on_c, 0, 74, 0
1, 53664, Note_on_c, 0, 79, 81
1, 53664, Note_on_c, 1, 74, 75
1, 53664, Note_on_c, 1, 71, 75
1, 53684, Note_on_c, 0, 79, 0
1, 53684, Note_on_c, 1, 74, 0
1, 53684, Note_on_c, 1, 71, 0
1, 53712, Note_on_c, 0, 78, 79
1, 53712, Note_on_c, 1, 73, 75
1, 53712, Note_on_c, 1, 69, 75
1, 53732, Note_on_c, 0, 78, 0
1, 53732, Note_on_c, 1, 73, 0
1, 53732, Note_on_c, 1, 69, 0
1, 53760, Note_on_c, 0, 76, 78
1, 53760, Note_on_c, 1, 71, 75
1, 53760, Note_on_c, 1, 67, 75
1, 53772, Note_on_c, 0, 76, 0
1, 53772, Note_on_c, 0, 78, 78
1, 53780, Note_on_c, 1, 71, 0
1, 53780, Note_on_c, 1, 67, 0
1, 53784, Note_on_c, 0, 78, 0
1, 53784, Note_on_c, 0, 76, 78
1, 53805, Note_on_c, 0, 76, 0
1, 53808, Note_on_c, 0, 74, 76
1, 53808, Note_on_c, 1, 69, 75
1, 53808, Note_on_c, 1, 66, 75
1, 53828, Note_on_c, 1, 69, 0
1, 53828, Note_on_c, 1, 66, 0
1, 53853, Note_on_c, 0, 74, 0
1, 53952, Note_on_c, 1, 50, 84
1, 53976, Note_on_c, 0, 60, 75
1, 53999, Note_on_c, 0, 60, 0
1, 54000, Note_on_c, 0, 59, 75
1, 54023, Note_on_c, 0, 59, 0
1, 54024, Note_on_c, 0, 60, 75
1, 54047, Note_on_c, 0, 60, 0
1, 54048, Note_on_c, 0, 62, 75
1, 54071, Note_on_c, 0, 62, 0
1, 54072, Note_on_c, 0, 60, 75
1, 54095, Note_on_c, 0, 60, 0
1, 54096, Note_on_c, 0, 64, 75
1, 54119, Note_on_c, 0, 64, 0
1, 54120, Note_on_c, 0, 60, 75
1, 54143, Note_on_c, 0, 60, 0
1, 54144, Note_on_c, 1, 59, 75
1, 54168, Note_on_c, 0, 67, 75
1, 54191, Note_on_c, 0, 67, 0
1, 54192, Note_on_c, 0, 66, 75
1, 54215, Note_on_c, 0, 66, 0
1, 54216, Note_on_c, 0, 67, 75
1, 54239, Note_on_c, 0, 67, 0
1, 54240, Note_on_c, 0, 69, 75
1, 54263, Note_on_c, 0, 69, 0
1, 54264, Note_on_c, 0, 67, 75
1, 54287, Note_on_c, 0, 67, 0
1, 54288, Note_on_c, 0, 71, 75
1, 54311, Note_on_c, 0, 71, 0
1, 54312, Note_on_c, 0, 67, 75
1, 54321, Note_on_c, 1, 50, 0
1, 54335, Note_on_c, 0, 67, 0
1, 54336, Note_on_c, 0, 66, 75
1, 54336, Note_on_c, 1, 51, 84
1, 54359, Note_on_c, 1, 59, 0
1, 54360, Note_on_c, 1, 57, 75
1, 54383, Note_on_c, 1, 57, 0
1, 54384, Note_on_c, 1, 56, 75
1, 54407, Note_on_c, 1, 56, 0
1, 54408, Note_on_c, 1, 57, 75
1, 54431, Note_on_c, 1, 57, 0
1, 54432, Note_on_c, 1, 59, 75
1, 54455, Note_on_c, 1, 59, 0
1, 54456, Note_on_c, 1, 57, 75
1, 54479, Note_on_c, 1, 57, 0
1, 54480, Note_on_c, 1, 60, 75
1, 54503, Note_on_c, 1, 60, 0
1, 54504, Note_on_c, 1, 57, 75
1, 54513, Note_on_c, 0, 66, 0
1, 54513, Note_on_c, 1, 51, 0
1, 54528, Note_on_c, 0, 59, 75
1, 54528, Note_on_c, 1, 52, 84
1, 54551, Note_on_c, 0, 59, 0
1, 54552, Note_on_c, 0, 64, 75
1, 54575, Note_on_c, 0, 64, 0
1, 54576, Note_on_c, 0, 63, 75
1, 54599, Note_on_c, 0, 63, 0
1, 54600, Note_on_c, 0, 64, 75
1, 54617, Note_on_c, 1, 57, 0
1, 54623, Note_on_c, 0, 64, 0
1, 54624, Note_on_c, 0, 66, 75
1, 54624, Note_on_c, 1, 55, 75
1, 54647, Note_on_c, 0, 66, 0
1, 54648, Note_on_c, 0, 64, 75
1, 54671, Note_on_c, 0, 64, 0
1, 54672, Note_on_c, 0, 67, 75
1, 54695, Note_on_c, 0, 67, 0
1, 54696, Note_on_c, 0, 64, 75
1, 54705, Note_on_c, 1, 52, 0
1, 54713, Note_on_c, 1, 55, 0
1, 54719, Note_on_c, 0, 64, 0
1, 54720, Note_on_c, 0, 76, 75
1, 54720, Note_on_c, 0, 67, 75
1, 54744, Note_on_c, 1, 61, 84
1, 54767, Note_on_c, 1, 61, 0
1, 54768, Note_on_c, 1, 59, 84
1, 54791, Note_on_c, 1, 59, 0
1, 54792, Note_on_c, 1, 61, 84
1, 54815, Note_on_c, 1, 61, 0
1, 54816, Note_on_c, 1, 62, 84
1, 54839, Note_on_c, 1, 62, 0
1, 54840, Note_on_c, 1, 61, 84
1, 54863, Note_on_c, 1, 61, 0
1, 54864, Note_on_c, 1, 64, 84
1, 54887, Note_on_c, 1, 64, 0
1, 54888, Note_on_c, 1, 59, 84
1, 54897, Note_on_c, 0, 76, 0
1, 54897, Note_on_c, 0, 67, 0
1, 54911, Note_on_c, 1, 59, 0
1, 54912, Note_on_c, 1, 66, 84
1, 54912, Note_on_c, 1, 58, 84
1, 54936, Note_on_c, 0, 76, 75
1, 54959, Note_on_c, 0, 76, 0
1, 54960, Note_on_c, 0, 75, 75
1, 54983, Note_on_c, 0, 75, 0
1, 54984, Note_on_c, 0, 76, 75
1, 55007, Note_on_c, 0, 76, 0
1, 55008, Note_on_c, 0, 78, 75
1, 55031, Note_on_c, 0, 78, 0
1, 55032, Note_on_c, 0, 76, 75
1, 55055, Note_on_c, 0, 76, 0
1, 55056, Note_on_c, 0, 79, 75
1, 55079, Note_on_c, 0, 79, 0
1, 55080, Note_on_c, 0, 76, 75
1, 55103, Note_on_c, 0, 76, 0
1, 55104, Note_on_c, 0, 74, 75
1, 55104, Note_on_c, 1, 58, 0
1, 55104, Note_on_c, 1, 59, 84
1, 55127, Note_on_c, 0, 74, 0
1, 55128, Note_on_c, 0, 83, 75
1, 55151, Note_on_c, 0, 83, 0
1, 55152, Note_on_c, 0, 82, 75
1, 55175, Note_on_c, 0, 82, 0
1, 55176, Note_on_c, 0, 83, 75
1, 55193, Note_on_c, 1, 66, 0
1, 55193, Note_on_c, 1, 59, 0
1, 55199, Note_on_c, 0, 83, 0
1, 55200, Note_on_c, 0, 85, 75
1, 55200, Note_on_c, 1, 65, 84
1, 55200, Note_on_c, 1, 55, 84
1, 55223, Note_on_c, 0, 85, 0
1, 55224, Note_on_c, 0, 83, 75
1, 55247, Note_on_c, 0, 83, 0
1, 55248, Note_on_c, 0, 86, 75
1, 55271, Note_on_c, 0, 86, 0
1, 55272, Note_on_c, 0, 83, 75
1, 55289, Note_on_c, 1, 65, 0
1, 55289, Note_on_c, 1, 55, 0
1, 55295, Note_on_c, 0, 83, 0
1, 55296, Note_on_c, 0, 82, 75
1, 55296, Note_on_c, 1, 66, 84
1, 55296, Note_on_c, 1, 54, 84
1, 55319, Note_on_c, 0, 82, 0
1, 55320, Note_on_c, 0, 85, 75
1, 55343, Note_on_c, 0, 85, 0
1, 55344, Note_on_c, 0, 78, 75
1, 55367, Note_on_c, 0, 78, 0
1, 55368, Note_on_c, 0, 82, 75
1, 55385, Note_on_c, 1, 66, 0
1, 55385, Note_on_c, 1, 54, 0
1, 55391, Note_on_c, 0, 82, 0
1, 55392, Note_on_c, 0, 73, 75
1, 55415, Note_on_c, 0, 73, 0
1, 55416, Note_on_c, 0, 78, 75
1, 55439, Note_on_c, 0, 78, 0
1, 55440, Note_on_c, 0, 70, 75
1, 55463, Note_on_c, 0, 70, 0
1, 55464, Note_on_c, 0, 73, 75
1, 55487, Note_on_c, 0, 73, 0
1, 55488, Note_on_c, 0, 66, 75
1, 55488, Note_on_c, 1, 42, 84
1, 55582, Note_on_c, 0, 66, 0
1, 55582, Note_on_c, 1, 42, 0
1, 55632, Note_on_c, 0, 66, 85
1, 55680, Note_on_c, 0, 66, 0
1, 55680, Note_on_c, 0, 71, 70
1, 55704, Note_on_c, 0, 71, 0
1, 55704, Note_on_c, 0, 70, 70
1, 55727, Note_on_c, 0, 70, 0
1, 55728, Note_on_c, 0, 73, 71
1, 55752, Note_on_c, 0, 73, 0
1, 55752, Note_on_c, 0, 71, 72
1, 55775, Note_on_c, 0, 71, 0
1, 55776, Note_on_c, 0, 74, 72
1, 55800, Note_on_c, 0, 74, 0
1, 55800, Note_on_c, 0, 73, 73
1, 55823, Note_on_c, 0, 73, 0
1, 55824, Note_on_c, 0, 76, 73
1, 55848, Note_on_c, 0, 76, 0
1, 55848, Note_on_c, 0, 74, 74
1, 55871, Note_on_c, 0, 74, 0
1, 55872, Note_on_c, 0, 74, 75
1, 55872, Note_on_c, 0, 71, 75
1, 55920, Note_on_c, 1, 53, 84
1, 55968, Note_on_c, 0, 74, 0
1, 55968, Note_on_c, 0, 71, 0
1, 55968, Note_on_c, 0, 73, 75
1, 55968, Note_on_c, 0, 70, 75
1, 55968, Note_on_c, 1, 53, 0
1, 55968, Note_on_c, 1, 54, 84
1, 56013, Note_on_c, 0, 73, 0
1, 56013, Note_on_c, 0, 70, 0
1, 56013, Note_on_c, 1, 54, 0
1, 56016, Note_on_c, 0, 66, 85
1, 56064, Note_on_c, 0, 66, 0
1, 56064, Note_on_c, 0, 73, 70
1, 56088, Note_on_c, 0, 73, 0
1, 56088, Note_on_c, 0, 71, 70
1, 56111, Note_on_c, 0, 71, 0
1, 56112, Note_on_c, 0, 74, 71
1, 56136, Note_on_c, 0, 74, 0
1, 56136, Note_on_c, 0, 73, 72
1, 56159, Note_on_c, 0, 73, 0
1, 56160, Note_on_c, 0, 76, 72
1, 56184, Note_on_c, 0, 76, 0
1, 56184, Note_on_c, 0, 74, 73
1, 56207, Note_on_c, 0, 74, 0
1, 56208, Note_on_c, 0, 78, 73
1, 56232, Note_on_c, 0, 78, 0
1, 56232, Note_on_c, 0, 76, 74
1, 56255, Note_on_c, 0, 76, 0
1, 56256, Note_on_c, 0, 76, 75
1, 56256, Note_on_c, 0, 73, 75
1, 56304, Note_on_c, 1, 58, 84
1, 56352, Note_on_c, 0, 76, 0
1, 56352, Note_on_c, 0, 73, 0
1, 56352, Note_on_c, 0, 74, 75
1, 56352, Note_on_c, 0, 71, 75
1, 56352, Note_on_c, 1, 58, 0
1, 56352, Note_on_c, 1, 59, 84
1, 56397, Note_on_c, 0, 74, 0
1, 56397, Note_on_c, 0, 71, 0
1, 56397, Note_on_c, 1, 59, 0
1, 56400, Note_on_c, 0, 71, 75
1, 56445, Note_on_c, 0, 71, 0
1, 56448, Note_on_c, 0, 76, 75
1, 56472, Note_on_c, 0, 76, 0
1, 56472, Note_on_c, 0, 75, 75
1, 56495, Note_on_c, 0, 75, 0
1, 56496, Note_on_c, 0, 78, 75
1, 56496, Note_on_c, 1, 59, 84
1, 56516, Note_on_c, 1, 59, 0
1, 56520, Note_on_c, 0, 78, 0
1, 56520, Note_on_c, 0, 76, 75
1, 56543, Note_on_c, 0, 76, 0
1, 56544, Note_on_c, 0, 79, 75
1, 56544, Note_on_c, 1, 64, 84
1, 56564, Note_on_c, 1, 64, 0
1, 56568, Note_on_c, 0, 79, 0
1, 56568, Note_on_c, 0, 78, 75
1, 56591, Note_on_c, 0, 78, 0
1, 56592, Note_on_c, 0, 81, 75
1, 56592, Note_on_c, 1, 66, 84
1, 56612, Note_on_c, 1, 66, 0
1, 56616, Note_on_c, 0, 81, 0
1, 56616, Note_on_c, 0, 79, 75
1, 56639, Note_on_c, 0, 79, 0
1, 56640, Note_on_c, 0, 83, 75
1, 56640, Note_on_c, 1, 67, 84
1, 56663, Note_on_c, 0, 83, 0
1, 56664, Note_on_c, 0, 81, 75
1, 56687, Note_on_c, 0, 81, 0
1, 56688, Note_on_c, 0, 79, 75
1, 56711, Note_on_c, 0, 79, 0
1, 56712, Note_on_c, 0, 78, 75
1, 56729, Note_on_c, 1, 67, 0
1, 56735, Note_on_c, 0, 78, 0
1, 56736, Note_on_c, 0, 76, 75
1, 56759, Note_on_c, 0, 76, 0
1, 56760, Note_on_c, 0, 74, 75
1, 56783, Note_on_c, 0, 74, 0
1, 56784, Note_on_c, 0, 73, 75
1, 56784, Note_on_c, 1, 52, 84
1, 56807, Note_on_c, 0, 73, 0
1, 56808, Note_on_c, 0, 71, 75
1, 56829, Note_on_c, 1, 52, 0
1, 56831, Note_on_c, 0, 71, 0
1, 56832, Note_on_c, 0, 73, 75
1, 56832, Note_on_c, 1, 57, 84
1, 56852, Note_on_c, 1, 57, 0
1, 56856, Note_on_c, 0, 73, 0
1, 56856, Note_on_c, 0, 71, 75
1, 56879, Note_on_c, 0, 71, 0
1, 56880, Note_on_c, 0, 74, 75
1, 56880, Note_on_c, 1, 59, 84
1, 56900, Note_on_c, 1, 59, 0
1, 56904, Note_on_c, 0, 74, 0
1, 56904, Note_on_c, 0, 73, 75
1, 56927, Note_on_c, 0, 73, 0
1, 56928, Note_on_c, 0, 76, 75
1, 56928, Note_on_c, 1, 61, 84
1, 56948, Note_on_c, 1, 61, 0
1, 56952, Note_on_c, 0, 76, 0
1, 56952, Note_on_c, 0, 74, 75
1, 56975, Note_on_c, 0, 74, 0
1, 56976, Note_on_c, 0, 78, 75
1, 56976, Note_on_c, 1, 62, 84
1, 56996, Note_on_c, 1, 62, 0
1, 57000, Note_on_c, 0, 78, 0
1, 57000, Note_on_c, 0, 76, 75
1, 57023, Note_on_c, 0, 76, 0
1, 57024, Note_on_c, 0, 79, 75
1, 57024, Note_on_c, 1, 64, 84
1, 57047, Note_on_c, 0, 79, 0
1, 57048, Note_on_c, 0, 78, 75
1, 57071, Note_on_c, 0, 78, 0
1, 57072, Note_on_c, 0, 76, 75
1, 57095, Note_on_c, 0, 76, 0
1, 57096, Note_on_c, 0, 74, 75
1, 57113, Note_on_c, 1, 64, 0
1, 57119, Note_on_c, 0, 74, 0
1, 57120, Note_on_c, 0, 73, 75
1, 57143, Note_on_c, 0, 73, 0
1, 57144, Note_on_c, 0, 71, 75
1, 57167, Note_on_c, 0, 71, 0
1, 57168, Note_on_c, 0, 69, 75
1, 57168, Note_on_c, 1, 45, 84
1, 57191, Note_on_c, 0, 69, 0
1, 57192, Note_on_c, 0, 67, 75
1, 57213, Note_on_c, 1, 45, 0
1, 57215, Note_on_c, 0, 67, 0
1, 57216, Note_on_c, 0, 66, 75
1, 57216, Note_on_c, 1, 50, 84
1, 57236, Note_on_c, 1, 50, 0
1, 57240, Note_on_c, 0, 66, 0
1, 57240, Note_on_c, 0, 64, 75
1, 57263, Note_on_c, 0, 64, 0
1, 57264, Note_on_c, 0, 67, 75
1, 57264, Note_on_c, 1, 52, 84
1, 57284, Note_on_c, 1, 52, 0
1, 57288, Note_on_c, 0, 67, 0
1, 57288, Note_on_c, 0, 66, 75
1, 57311, Note_on_c, 0, 66, 0
1, 57312, Note_on_c, 0, 69, 75
1, 57312, Note_on_c, 1, 54, 84
1, 57332, Note_on_c, 1, 54, 0
1, 57336, Note_on_c, 0, 69, 0
1, 57336, Note_on_c, 0, 67, 75
1, 57359, Note_on_c, 0, 67, 0
1, 57360, Note_on_c, 0, 71, 75
1, 57360, Note_on_c, 1, 55, 84
1, 57380, Note_on_c, 1, 55, 0
1, 57384, Note_on_c, 0, 71, 0
1, 57384, Note_on_c, 0, 69, 75
1, 57407, Note_on_c, 0, 69, 0
1, 57408, Note_on_c, 0, 72, 75
1, 57408, Note_on_c, 1, 57, 84
1, 57431, Note_on_c, 0, 72, 0
1, 57432, Note_on_c, 0, 71, 75
1, 57455, Note_on_c, 0, 71, 0
1, 57456, Note_on_c, 0, 69, 75
1, 57479, Note_on_c, 0, 69, 0
1, 57480, Note_on_c, 0, 67, 75
1, 57497, Note_on_c, 1, 57, 0
1, 57503, Note_on_c, 0, 67, 0
1, 57504, Note_on_c, 0, 66, 75
1, 57527, Note_on_c, 0, 66, 0
1, 57528, Note_on_c, 0, 64, 75
1, 57551, Note_on_c, 0, 64, 0
1, 57552, Note_on_c, 0, 62, 75
1, 57552, Note_on_c, 1, 50, 84
1, 57575, Note_on_c, 0, 62, 0
1, 57576, Note_on_c, 0, 60, 75
1, 57597, Note_on_c, 1, 50, 0
1, 57599, Note_on_c, 0, 60, 0
1, 57600, Note_on_c, 0, 59, 75
1, 57600, Note_on_c, 1, 55, 84
1, 57623, Note_on_c, 0, 59, 0
1, 57624, Note_on_c, 0, 71, 75
1, 57647, Note_on_c, 0, 71, 0
1, 57648, Note_on_c, 0, 70, 75
1, 57671, Note_on_c, 0, 70, 0
1, 57672, Note_on_c, 0, 71, 75
1, 57689, Note_on_c, 1, 55, 0
1, 57695, Note_on_c, 0, 71, 0
1, 57696, Note_on_c, 0, 69, 75
1, 57719, Note_on_c, 0, 69, 0
1, 57720, Note_on_c, 0, 67, 75
1, 57743, Note_on_c, 0, 67, 0
1, 57744, Note_on_c, 0, 66, 75
1, 57767, Note_on_c, 0, 66, 0
1, 57768, Note_on_c, 0, 64, 75
1, 57791, Note_on_c, 0, 64, 0
1, 57792, Note_on_c, 0, 63, 75
1, 57792, Note_on_c, 1, 43, 84
1, 57815, Note_on_c, 0, 63, 0
1, 57816, Note_on_c, 0, 64, 75
1, 57839, Note_on_c, 0, 64, 0
1, 57840, Note_on_c, 0, 66, 75
1, 57863, Note_on_c, 0, 66, 0
1, 57864, Note_on_c, 0, 64, 75
1, 57881, Note_on_c, 1, 43, 0
1, 57887, Note_on_c, 0, 64, 0
1, 57888, Note_on_c, 0, 67, 75
1, 57911, Note_on_c, 0, 67, 0
1, 57912, Note_on_c, 0, 66, 75
1, 57935, Note_on_c, 0, 66, 0
1, 57936, Note_on_c, 0, 64, 75
1, 57959, Note_on_c, 0, 64, 0
1, 57960, Note_on_c, 0, 62, 75
1, 57983, Note_on_c, 0, 62, 0
1, 57984, Note_on_c, 0, 62, 75
1, 57984, Note_on_c, 1, 45, 84
1, 58007, Note_on_c, 1, 45, 0
1, 58008, Note_on_c, 1, 47, 84
1, 58031, Note_on_c, 1, 47, 0
1, 58032, Note_on_c, 1, 49, 84
1, 58055, Note_on_c, 1, 49, 0
1, 58056, Note_on_c, 1, 50, 84
1, 58079, Note_on_c, 1, 50, 0
1, 58080, Note_on_c, 1, 52, 84
1, 58103, Note_on_c, 1, 52, 0
1, 58104, Note_on_c, 1, 54, 84
1, 58127, Note_on_c, 1, 54, 0
1, 58128, Note_on_c, 1, 55, 84
1, 58151, Note_on_c, 1, 55, 0
1, 58152, Note_on_c, 1, 54, 84
1, 58175, Note_on_c, 1, 54, 0
1, 58176, Note_on_c, 0, 62, 0
1, 58176, Note_on_c, 0, 61, 75
1, 58176, Note_on_c, 1, 52, 84
1, 58199, Note_on_c, 0, 61, 0
1, 58200, Note_on_c, 0, 57, 75
1, 58223, Note_on_c, 0, 57, 0
1, 58224, Note_on_c, 0, 64, 75
1, 58247, Note_on_c, 0, 64, 0
1, 58248, Note_on_c, 0, 61, 75
1, 58265, Note_on_c, 1, 52, 0
1, 58271, Note_on_c, 0, 61, 0
1, 58272, Note_on_c, 0, 69, 75
1, 58295, Note_on_c, 0, 69, 0
1, 58296, Note_on_c, 0, 64, 74
1, 58319, Note_on_c, 0, 64, 0
1, 58320, Note_on_c, 0, 73, 73
1, 58343, Note_on_c, 0, 73, 0
1, 58344, Note_on_c, 0, 69, 73
1, 58367, Note_on_c, 0, 69, 0
1, 58368, Note_on_c, 0, 76, 72
1, 58391, Note_on_c, 0, 76, 0
1, 58392, Note_on_c, 0, 73, 72
1, 58415, Note_on_c, 0, 73, 0
1, 58416, Note_on_c, 0, 79, 71
1, 58439, Note_on_c, 0, 79, 0
1, 58440, Note_on_c, 0, 76, 70
1, 58463, Note_on_c, 0, 76, 0
1, 58464, Note_on_c, 0, 83, 70
1, 58509, Note_on_c, 0, 83, 0
1, 58680, Note_on_c, 0, 82, 61
1, 58703, Note_on_c, 0, 82, 0
1, 58704, Note_on_c, 0, 83, 61
1, 58727, Note_on_c, 0, 83, 0
1, 58728, Note_on_c, 0, 82, 61
1, 58751, Note_on_c, 0, 82, 0
1, 58752, Note_on_c, 0, 83, 61
1, 58772, Note_on_c, 0, 83, 0
1, 58872, Note_on_c, 0, 82, 53
1, 58895, Note_on_c, 0, 82, 0
1, 58896, Note_on_c, 0, 83, 53
1, 58919, Note_on_c, 0, 83, 0
1, 58920, Note_on_c, 0, 82, 53
1, 58943, Note_on_c, 0, 82, 0
1, 58944, Note_on_c, 0, 83, 53
1, 58964, Note_on_c, 0, 83, 0
1, 59064, Note_on_c, 0, 82, 61
1, 59087, Note_on_c, 0, 82, 0
1, 59088, Note_on_c, 0, 83, 62
1, 59111, Note_on_c, 0, 83, 0
1, 59112, Note_on_c, 0, 82, 63
1, 59135, Note_on_c, 0, 82, 0
1, 59136, Note_on_c, 0, 83, 64
1, 59159, Note_on_c, 0, 83, 0
1, 59160, Note_on_c, 0, 85, 65
1, 59183, Note_on_c, 0, 85, 0
1, 59184, Note_on_c, 0, 86, 66
1, 59207, Note_on_c, 0, 86, 0
1, 59208, Note_on_c, 0, 85, 68
1, 59231, Note_on_c, 0, 85, 0
1, 59232, Note_on_c, 0, 83, 69
1, 59255, Note_on_c, 0, 83, 0
1, 59256, Note_on_c, 0, 81, 70
1, 59279, Note_on_c, 0, 81, 0
1, 59280, Note_on_c, 0, 79, 71
1, 59303, Note_on_c, 0, 79, 0
1, 59304, Note_on_c, 0, 78, 72
1, 59327, Note_on_c, 0, 78, 0
1, 59328, Note_on_c, 0, 79, 73
1, 59328, Note_on_c, 1, 71, 84
1, 59351, Note_on_c, 0, 79, 0
1, 59351, Note_on_c, 1, 71, 0
1, 59352, Note_on_c, 0, 81, 75
1, 59352, Note_on_c, 1, 73, 84
1, 59375, Note_on_c, 0, 81, 0
1, 59375, Note_on_c, 1, 73, 0
1, 59376, Note_on_c, 0, 83, 75
1, 59376, Note_on_c, 1, 74, 84
1, 59399, Note_on_c, 0, 83, 0
1, 59399, Note_on_c, 1, 74, 0
1, 59400, Note_on_c, 0, 81, 75
1, 59400, Note_on_c, 1, 73, 84
1, 59423, Note_on_c, 0, 81, 0
1, 59423, Note_on_c, 1, 73, 0
1, 59424, Note_on_c, 0, 79, 75
1, 59424, Note_on_c, 1, 71, 84
1, 59447, Note_on_c, 0, 79, 0
1, 59447, Note_on_c, 1, 71, 0
1, 59448, Note_on_c, 0, 78, 75
1, 59448, Note_on_c, 1, 69, 84
1, 59471, Note_on_c, 0, 78, 0
1, 59471, Note_on_c, 1, 69, 0
1, 59472, Note_on_c, 0, 76, 75
1, 59472, Note_on_c, 1, 67, 84
1, 59495, Note_on_c, 0, 76, 0
1, 59495, Note_on_c, 1, 67, 0
1, 59496, Note_on_c, 0, 75, 75
1, 59496, Note_on_c, 1, 66, 84
1, 59519, Note_on_c, 0, 75, 0
1, 59519, Note_on_c, 1, 66, 0
1, 59520, Note_on_c, 0, 76, 75
1, 59520, Note_on_c, 1, 67, 84
1, 59543, Note_on_c, 0, 76, 0
1, 59543, Note_on_c, 1, 67, 0
1, 59544, Note_on_c, 0, 78, 75
1, 59544, Note_on_c, 1, 69, 84
1, 59567, Note_on_c, 0, 78, 0
1, 59567, Note_on_c, 1, 69, 0
1, 59568, Note_on_c, 0, 79, 75
1, 59568, Note_on_c, 1, 71, 84
1, 59591, Note_on_c, 0, 79, 0
1, 59591, Note_on_c, 1, 71, 0
1, 59592, Note_on_c, 0, 78, 75
1, 59592, Note_on_c, 1, 69, 84
1, 59615, Note_on_c, 0, 78, 0
1, 59615, Note_on_c, 1, 69, 0
1, 59616, Note_on_c, 0, 76, 75
1, 59616, Note_on_c, 1, 67, 84
1, 59639, Note_on_c, 0, 76, 0
1, 59639, Note_on_c, 1, 67, 0
1, 59640, Note_on_c, 0, 74, 75
1, 59640, Note_on_c, 1, 66, 84
1, 59663, Note_on_c, 0, 74, 0
1, 59663, Note_on_c, 1, 66, 0
1, 59664, Note_on_c, 0, 73, 75
1, 59664, Note_on_c, 1, 64, 84
1, 59687, Note_on_c, 0, 73, 0
1, 59687, Note_on_c, 1, 64, 0
1, 59688, Note_on_c, 0, 71, 75
1, 59688, Note_on_c, 1, 62, 84
1, 59711, Note_on_c, 0, 71, 0
1, 59711, Note_on_c, 1, 62, 0
1, 59712, Note_on_c, 0, 69, 75
1, 59712, Note_on_c, 1, 61, 84
1, 59735, Note_on_c, 0, 69, 0
1, 59736, Note_on_c, 0, 71, 75
1, 59759, Note_on_c, 0, 71, 0
1, 59760, Note_on_c, 0, 68, 75
1, 59783, Note_on_c, 0, 68, 0
1, 59784, Note_on_c, 0, 71, 75
1, 59807, Note_on_c, 0, 71, 0
1, 59808, Note_on_c, 0, 69, 75
1, 59831, Note_on_c, 0, 69, 0
1, 59832, Note_on_c, 0, 71, 75
1, 59845, Note_on_c, 1, 61, 0
1, 59855, Note_on_c, 0, 71, 0
1, 59856, Note_on_c, 0, 68, 75
1, 59856, Note_on_c, 1, 62, 84
1, 59879, Note_on_c, 0, 68, 0
1, 59880, Note_on_c, 0, 71, 75
1, 59901, Note_on_c, 1, 62, 0
1, 59903, Note_on_c, 0, 71, 0
1, 59904, Note_on_c, 0, 69, 75
1, 59904, Note_on_c, 1, 61, 84
1, 59927, Note_on_c, 0, 69, 0
1, 59928, Note_on_c, 0, 71, 75
1, 59949, Note_on_c, 1, 61, 0
1, 59951, Note_on_c, 0, 71, 0
1, 59952, Note_on_c, 0, 68, 75
1, 59952, Note_on_c, 1, 62, 84
1, 59975, Note_on_c, 0, 68, 0
1, 59976, Note_on_c, 0, 71, 75
1, 59997, Note_on_c, 1, 62, 0
1, 59999, Note_on_c, 0, 71, 0
1, 60000, Note_on_c, 0, 69, 75
1, 60000, Note_on_c, 1, 61, 84
1, 60023, Note_on_c, 0, 69, 0
1, 60024, Note_on_c, 0, 71, 75
1, 60045, Note_on_c, 1, 61, 0
1, 60047, Note_on_c, 0, 71, 0
1, 60048, Note_on_c, 0, 66, 75
1, 60048, Note_on_c, 1, 63, 84
1, 60071, Note_on_c, 0, 66, 0
1, 60072, Note_on_c, 0, 69, 75
1, 60093, Note_on_c, 1, 63, 0
1, 60095, Note_on_c, 0, 69, 0
1, 60096, Note_on_c, 0, 67, 75
1, 60096, Note_on_c, 1, 64, 84
1, 60096, Note_on_c, 1, 57, 75
1, 60119, Note_on_c, 0, 67, 0
1, 60120, Note_on_c, 0, 69, 75
1, 60143, Note_on_c, 0, 69, 0
1, 60144, Note_on_c, 0, 66, 75
1, 60167, Note_on_c, 0, 66, 0
1, 60168, Note_on_c, 0, 69, 75
1, 60191, Note_on_c, 0, 69, 0
1, 60192, Note_on_c, 0, 67, 75
1, 60215, Note_on_c, 0, 67, 0
1, 60216, Note_on_c, 0, 69, 75
1, 60229, Note_on_c, 1, 64, 0
1, 60239, Note_on_c, 0, 69, 0
1, 60240, Note_on_c, 0, 66, 75
1, 60240, Note_on_c, 1, 63, 84
1, 60263, Note_on_c, 0, 66, 0
1, 60264, Note_on_c, 0, 69, 75
1, 60285, Note_on_c, 1, 63, 0
1, 60287, Note_on_c, 0, 69, 0
1, 60288, Note_on_c, 0, 67, 75
1, 60288, Note_on_c, 1, 64, 84
1, 60311, Note_on_c, 0, 67, 0
1, 60312, Note_on_c, 0, 69, 75
1, 60333, Note_on_c, 1, 64, 0
1, 60335, Note_on_c, 0, 69, 0
1, 60336, Note_on_c, 0, 66, 75
1, 60336, Note_on_c, 1, 63, 84
1, 60359, Note_on_c, 0, 66, 0
1, 60360, Note_on_c, 0, 69, 75
1, 60381, Note_on_c, 1, 63, 0
1, 60383, Note_on_c, 0, 69, 0
1, 60384, Note_on_c, 0, 67, 75
1, 60384, Note_on_c, 1, 64, 84
1, 60407, Note_on_c, 0, 67, 0
1, 60408, Note_on_c, 0, 69, 75
1, 60429, Note_on_c, 1, 64, 0
1, 60431, Note_on_c, 0, 69, 0
1, 60432, Note_on_c, 0, 66, 75
1, 60432, Note_on_c, 1, 63, 84
1, 60455, Note_on_c, 0, 66, 0
1, 60456, Note_on_c, 0, 69, 75
1, 60477, Note_on_c, 1, 63, 0
1, 60479, Note_on_c, 0, 69, 0
1, 60480, Note_on_c, 0, 67, 75
1, 60480, Note_on_c, 1, 64, 75
1, 60547, Note_on_c, 0, 67, 0
1, 60547, Note_on_c, 1, 64, 0
1, 60552, Note_on_c, 0, 66, 72
1, 60552, Note_on_c, 1, 63, 72
1, 60575, Note_on_c, 0, 66, 0
1, 60575, Note_on_c, 1, 63, 0
1, 60576, Note_on_c, 0, 67, 72
1, 60576, Note_on_c, 1, 64, 72
1, 60643, Note_on_c, 0, 67, 0
1, 60643, Note_on_c, 1, 64, 0
1, 60648, Note_on_c, 0, 66, 70
1, 60648, Note_on_c, 1, 63, 70
1, 60671, Note_on_c, 0, 66, 0
1, 60671, Note_on_c, 1, 63, 0
1, 60672, Note_on_c, 0, 67, 69
1, 60672, Note_on_c, 1, 64, 69
1, 60739, Note_on_c, 0, 67, 0
1, 60739, Note_on_c, 1, 64, 0
1, 60744, Note_on_c, 0, 66, 67
1, 60744, Note_on_c, 1, 63, 67
1, 60767, Note_on_c, 0, 66, 0
1, 60767, Note_on_c, 1, 63, 0
1, 60768, Note_on_c, 0, 67, 66
1, 60768, Note_on_c, 1, 64, 66
1, 60791, Note_on_c, 0, 67, 0
1, 60791, Note_on_c, 1, 64, 0
1, 60792, Note_on_c, 0, 66, 65
1, 60792, Note_on_c, 1, 63, 65
1, 60815, Note_on_c, 0, 66, 0
1, 60815, Note_on_c, 1, 63, 0
1, 60816, Note_on_c, 0, 67, 65
1, 60816, Note_on_c, 1, 64, 65
1, 60839, Note_on_c, 0, 67, 0
1, 60839, Note_on_c, 1, 64, 0
1, 60840, Note_on_c, 0, 66, 64
1, 60840, Note_on_c, 1, 63, 64
1, 60863, Note_on_c, 0, 66, 0
1, 60863, Note_on_c, 1, 63, 0
1, 60864, Note_on_c, 0, 67, 63
1, 60864, Note_on_c, 1, 64, 63
1, 60953, Note_on_c, 0, 67, 0
1, 60953, Note_on_c, 1, 64, 0
1, 60953, Note_on_c, 1, 57, 0
1, 61056, Note_on_c, 1, 57, 84
1, 61068, Note_on_c, 1, 57, 0
1, 61068, Note_on_c, 1, 61, 84
1, 61080, Note_on_c, 1, 61, 0
1, 61080, Note_on_c, 1, 64, 84
1, 61092, Note_on_c, 1, 64, 0
1, 61092, Note_on_c, 1, 67, 84
1, 61104, Note_on_c, 0, 69, 84
1, 61104, Note_on_c, 1, 67, 0
1, 61116, Note_on_c, 0, 69, 0
1, 61116, Note_on_c, 0, 73, 84
1, 61128, Note_on_c, 0, 73, 0
1, 61128, Note_on_c, 0, 76, 84
1, 61140, Note_on_c, 0, 76, 0
1, 61140, Note_on_c, 0, 79, 84
1, 61152, Note_on_c, 0, 79, 0
1, 61392, Note_on_c, 0, 57, 75
1, 61404, Note_on_c, 0, 57, 0
1, 61404, Note_on_c, 0, 62, 75
1, 61416, Note_on_c, 0, 62, 0
1, 61416, Note_on_c, 0, 66, 75
1, 61428, Note_on_c, 0, 66, 0
1, 61428, Note_on_c, 0, 69, 76
1, 61440, Note_on_c, 0, 69, 0
1, 61440, Note_on_c, 0, 66, 77
1, 61440, Note_on_c, 1, 50, 75
1, 61440, Note_on_c, 1, 38, 75
1, 61485, Note_on_c, 0, 66, 0
1, 61488, Note_on_c, 0, 62, 80
1, 61529, Note_on_c, 1, 50, 0
1, 61529, Note_on_c, 1, 38, 0
1, 61533, Note_on_c, 0, 62, 0
1, 61536, Note_on_c, 0, 74, 84
1, 61556, Note_on_c, 0, 74, 0
1, 61584, Note_on_c, 0, 69, 81
1, 61584, Note_on_c, 1, 66, 75
1, 61584, Note_on_c, 1, 62, 75
1, 61604, Note_on_c, 0, 69, 0
1, 61604, Note_on_c, 1, 66, 0
1, 61604, Note_on_c, 1, 62, 0
1, 61632, Note_on_c, 0, 71, 79
1, 61632, Note_on_c, 1, 67, 75
1, 61632, Note_on_c, 1, 62, 75
1, 61644, Note_on_c, 0, 71, 0
1, 61644, Note_on_c, 0, 73, 79
1, 61652, Note_on_c, 1, 67, 0
1, 61652, Note_on_c, 1, 62, 0
1, 61656, Note_on_c, 0, 73, 0
1, 61656, Note_on_c, 0, 71, 79
1, 61677, Note_on_c, 0, 71, 0
1, 61680, Note_on_c, 0, 69, 77
1, 61680, Note_on_c, 1, 66, 75
1, 61680, Note_on_c, 1, 62, 75
1, 61700, Note_on_c, 1, 66, 0
1, 61700, Note_on_c, 1, 62, 0
1, 61725, Note_on_c, 0, 69, 0
1, 61776, Note_on_c, 0, 57, 75
1, 61788, Note_on_c, 0, 57, 0
1, 61788, Note_on_c, 0, 62, 75
1, 61800, Note_on_c, 0, 62, 0
1, 61800, Note_on_c, 0, 66, 76
1, 61812, Note_on_c, 0, 66, 0
1, 61812, Note_on_c, 0, 69, 77
1, 61824, Note_on_c, 0, 69, 0
1, 61824, Note_on_c, 0, 66, 78
1, 61824, Note_on_c, 1, 50, 75
1, 61824, Note_on_c, 1, 38, 75
1, 61872, Note_on_c, 0, 66, 0
1, 61872, Note_on_c, 0, 62, 84
1, 61913, Note_on_c, 1, 50, 0
1, 61913, Note_on_c, 1, 38, 0
1, 61917, Note_on_c, 0, 62, 0
1, 61920, Note_on_c, 0, 81, 82
1, 61920, Note_on_c, 0, 78, 82
1, 61940, Note_on_c, 0, 81, 0
1, 61940, Note_on_c, 0, 78, 0
1, 61968, Note_on_c, 0, 78, 80
1, 61968, Note_on_c, 0, 74, 80
1, 61968, Note_on_c, 1, 62, 75
1, 61988, Note_on_c, 0, 78, 0
1, 61988, Note_on_c, 0, 74, 0
1, 61988, Note_on_c, 1, 62, 0
1, 62016, Note_on_c, 0, 79, 78
1, 62016, Note_on_c, 0, 76, 75
1, 62016, Note_on_c, 1, 57, 75
1, 62028, Note_on_c, 0, 79, 0
1, 62028, Note_on_c, 0, 81, 78
1, 62036, Note_on_c, 1, 57, 0
1, 62040, Note_on_c, 0, 81, 0
1, 62040, Note_on_c, 0, 79, 78
1, 62061, Note_on_c, 0, 79, 0
1, 62061, Note_on_c, 0, 76, 0
1, 62064, Note_on_c, 0, 78, 76
1, 62064, Note_on_c, 0, 74, 75
1, 62064, Note_on_c, 1, 62, 75
1, 62084, Note_on_c, 1, 62, 0
1, 62109, Note_on_c, 0, 78, 0
1, 62109, Note_on_c, 0, 74, 0
1, 62160, Note_on_c, 0, 74, 75
1, 62172, Note_on_c, 0, 74, 0
1, 62172, Note_on_c, 0, 78, 75
1, 62184, Note_on_c, 0, 78, 0
1, 62184, Note_on_c, 0, 81, 75
1, 62196, Note_on_c, 0, 81, 0
1, 62196, Note_on_c, 0, 86, 75
1, 62208, Note_on_c, 0, 86, 0
1, 62208, Note_on_c, 0, 72, 75
1, 62256, Note_on_c, 1, 62, 69
1, 62256, Note_on_c, 1, 54, 69
1, 62276, Note_on_c, 1, 62, 0
1, 62276, Note_on_c, 1, 54, 0
1, 62304, Note_on_c, 1, 62, 69
1, 62304, Note_on_c, 1, 54, 69
1, 62324, Note_on_c, 1, 62, 0
1, 62324, Note_on_c, 1, 54, 0
1, 62348, Note_on_c, 0, 72, 0
1, 62352, Note_on_c, 0, 84, 75
1, 62364, Note_on_c, 0, 84, 0
1, 62364, Note_on_c, 0, 81, 75
1, 62376, Note_on_c, 0, 81, 0
1, 62376, Note_on_c, 0, 78, 75
1, 62388, Note_on_c, 0, 78, 0
1, 62388, Note_on_c, 0, 72, 75
1, 62400, Note_on_c, 0, 72, 0
1, 62400, Note_on_c, 0, 71, 75
1, 62448, Note_on_c, 1, 62, 69
1, 62448, Note_on_c, 1, 55, 69
1, 62468, Note_on_c, 1, 62, 0
1, 62468, Note_on_c, 1, 55, 0
1, 62496, Note_on_c, 1, 62, 69
1, 62496, Note_on_c, 1, 55, 69
1, 62516, Note_on_c, 1, 62, 0
1, 62516, Note_on_c, 1, 55, 0
1, 62540, Note_on_c, 0, 71, 0
1, 62544, Note_on_c, 0, 71, 75
1, 62556, Note_on_c, 0, 71, 0
1, 62556, Note_on_c, 0, 74, 75
1, 62568, Note_on_c, 0, 74, 0
1, 62568, Note_on_c, 0, 79, 75
1, 62580, Note_on_c, 0, 79, 0
1, 62580, Note_on_c, 0, 83, 75
1, 62592, Note_on_c, 0, 83, 0
1, 62592, Note_on_c, 0, 81, 75
1, 62592, Note_on_c, 0, 78, 75
1, 62592, Note_on_c, 1, 57, 75
1, 62612, Note_on_c, 0, 81, 0
1, 62612, Note_on_c, 0, 78, 0
1, 62640, Note_on_c, 0, 78, 75
1, 62640, Note_on_c, 0, 74, 75
1, 62660, Note_on_c, 0, 78, 0
1, 62660, Note_on_c, 0, 74, 0
1, 62681, Note_on_c, 1, 57, 0
1, 62688, Note_on_c, 0, 79, 75
1, 62688, Note_on_c, 0, 76, 75
1, 62688, Note_on_c, 1, 45, 75
1, 62708, Note_on_c, 0, 79, 0
1, 62708, Note_on_c, 0, 76, 0
1, 62736, Note_on_c, 0, 76, 75
1, 62736, Note_on_c, 0, 73, 75
1, 62756, Note_on_c, 0, 76, 0
1, 62756, Note_on_c, 0, 73, 0
1, 62777, Note_on_c, 1, 45, 0
1, 62784, Note_on_c, 0, 76, 75
1, 62784, Note_on_c, 0, 73, 75
1, 62784, Note_on_c, 1, 50, 75
1, 62873, Note_on_c, 1, 50, 0
1, 62880, Note_on_c, 0, 76, 0
1, 62880, Note_on_c, 0, 73, 0
1, 62880, Note_on_c, 0, 78, 75
1, 62880, Note_on_c, 0, 74, 75
1, 62880, Note_on_c, 1, 38, 75
1, 62925, Note_on_c, 0, 78, 0
1, 62925, Note_on_c, 0, 74, 0
1, 62925, Note_on_c, 1, 38, 0
1, 62928, Note_on_c, 0, 74, 75
1, 62940, Note_on_c, 0, 74, 0
1, 62940, Note_on_c, 0, 78, 75
1, 62952, Note_on_c, 0, 78, 0
1, 62952, Note_on_c, 0, 81, 75
1, 62964, Note_on_c, 0, 81, 0
1, 62964, Note_on_c, 0, 86, 75
1, 62976, Note_on_c, 0, 86, 0
1, 62976, Note_on_c, 0, 72, 75
1, 63024, Note_on_c, 1, 62, 69
1, 63024, Note_on_c, 1, 54, 69
1, 63044, Note_on_c, 1, 62, 0
1, 63044, Note_on_c, 1, 54, 0
1, 63072, Note_on_c, 1, 62, 69
1, 63072, Note_on_c, 1, 54, 69
1, 63092, Note_on_c, 1, 62, 0
1, 63092, Note_on_c, 1, 54, 0
1, 63116, Note_on_c, 0, 72, 0
1, 63120, Note_on_c, 0, 84, 75
1, 63132, Note_on_c, 0, 84, 0
1, 63132, Note_on_c, 0, 81, 75
1, 63144, Note_on_c, 0, 81, 0
1, 63144, Note_on_c, 0, 78, 75
1, 63156, Note_on_c, 0, 78, 0
1, 63156, Note_on_c, 0, 72, 75
1, 63168, Note_on_c, 0, 72, 0
1, 63168, Note_on_c, 0, 71, 75
1, 63216, Note_on_c, 1, 62, 69
1, 63216, Note_on_c, 1, 55, 69
1, 63236, Note_on_c, 1, 62, 0
1, 63236, Note_on_c, 1, 55, 0
1, 63264, Note_on_c, 1, 62, 69
1, 63264, Note_on_c, 1, 55, 69
1, 63284, Note_on_c, 1, 62, 0
1, 63284, Note_on_c, 1, 55, 0
1, 63308, Note_on_c, 0, 71, 0
1, 63312, Note_on_c, 0, 83, 75
1, 63327, Note_on_c, 0, 83, 0
1, 63328, Note_on_c, 0, 85, 75
1, 63343, Note_on_c, 0, 85, 0
1, 63344, Note_on_c, 0, 86, 75
1, 63359, Note_on_c, 0, 86, 0
1, 63360, Note_on_c, 0, 85, 91
1, 63360, Note_on_c, 1, 57, 75
1, 63376, Note_on_c, 0, 85, 0
1, 63376, Note_on_c, 0, 83, 75
1, 63391, Note_on_c, 0, 83, 0
1, 63392, Note_on_c, 0, 81, 75
1, 63405, Note_on_c, 1, 57, 0
1, 63407, Note_on_c, 0, 81, 0
1, 63408, Note_on_c, 0, 79, 75
1, 63423, Note_on_c, 0, 79, 0
1, 63424, Note_on_c, 0, 78, 75
1, 63439, Note_on_c, 0, 78, 0
1, 63440, Note_on_c, 0, 76, 75
1, 63455, Note_on_c, 0, 76, 0
1, 63456, Note_on_c, 0, 74, 75
1, 63456, Note_on_c, 1, 45, 75
1, 63471, Note_on_c, 0, 74, 0
1, 63472, Note_on_c, 0, 73, 75
1, 63487, Note_on_c, 0, 73, 0
1, 63488, Note_on_c, 0, 71, 75
1, 63501, Note_on_c, 1, 45, 0
1, 63503, Note_on_c, 0, 71, 0
1, 63504, Note_on_c, 0, 69, 75
1, 63516, Note_on_c, 0, 69, 0
1, 63516, Note_on_c, 0, 67, 75
1, 63528, Note_on_c, 0, 67, 0
1, 63528, Note_on_c, 0, 66, 75
1, 63540, Note_on_c, 0, 66, 0
1, 63540, Note_on_c, 0, 64, 75
1, 63552, Note_on_c, 0, 64, 0
1, 63552, Note_on_c, 0, 62, 91
1, 63552, Note_on_c, 1, 38, 75
1, 63641, Note_on_c, 1, 38, 0
1, 63648, Note_on_c, 0, 62, 0
1, 63696, Note_on_c, 0, 57, 85
1, 63744, Note_on_c, 0, 57, 0
1, 63744, Note_on_c, 0, 62, 70
1, 63768, Note_on_c, 0, 62, 0
1, 63768, Note_on_c, 0, 61, 70
1, 63791, Note_on_c, 0, 61, 0
1, 63792, Note_on_c, 0, 64, 71
1, 63816, Note_on_c, 0, 64, 0
1, 63816, Note_on_c, 0, 62, 72
1, 63839, Note_on_c, 0, 62, 0
1, 63840, Note_on_c, 0, 66, 72
1, 63864, Note_on_c, 0, 66, 0
1, 63864, Note_on_c, 0, 64, 73
1, 63887, Note_on_c, 0, 64, 0
1, 63888, Note_on_c, 0, 67, 73
1, 63912, Note_on_c, 0, 67, 0
1, 63912, Note_on_c, 0, 66, 74
1, 63935, Note_on_c, 0, 66, 0
1, 63936, Note_on_c, 0, 66, 75
1, 63936, Note_on_c, 0, 62, 75
1, 63984, Note_on_c, 1, 56, 75
1, 64032, Note_on_c, 0, 66, 0
1, 64032, Note_on_c, 0, 62, 0
1, 64032, Note_on_c, 0, 64, 75
1, 64032, Note_on_c, 0, 61, 75
1, 64032, Note_on_c, 1, 56, 0
1, 64032, Note_on_c, 1, 57, 75
1, 64077, Note_on_c, 0, 64, 0
1, 64077, Note_on_c, 0, 61, 0
1, 64077, Note_on_c, 1, 57, 0
1, 64080, Note_on_c, 0, 57, 91
1, 64128, Note_on_c, 0, 57, 0
1, 64128, Note_on_c, 0, 64, 73
1, 64152, Note_on_c, 0, 64, 0
1, 64152, Note_on_c, 0, 63, 73
1, 64175, Note_on_c, 0, 63, 0
1, 64176, Note_on_c, 0, 66, 72
1, 64200, Note_on_c, 0, 66, 0
1, 64200, Note_on_c, 0, 64, 72
1, 64223, Note_on_c, 0, 64, 0
1, 64224, Note_on_c, 0, 67, 71
1, 64248, Note_on_c, 0, 67, 0
1, 64248, Note_on_c, 0, 66, 70
1, 64271, Note_on_c, 0, 66, 0
1, 64272, Note_on_c, 0, 69, 70
1, 64296, Note_on_c, 0, 69, 0
1, 64296, Note_on_c, 0, 67, 69
1, 64319, Note_on_c, 0, 67, 0
1, 64320, Note_on_c, 0, 67, 69
1, 64320, Note_on_c, 0, 64, 69
1, 64368, Note_on_c, 1, 58, 75
1, 64416, Note_on_c, 0, 67, 0
1, 64416, Note_on_c, 0, 64, 0
1, 64416, Note_on_c, 0, 66, 69
1, 64416, Note_on_c, 0, 62, 69
1, 64416, Note_on_c, 1, 58, 0
1, 64416, Note_on_c, 1, 59, 75
1, 64461, Note_on_c, 0, 66, 0
1, 64461, Note_on_c, 0, 62, 0
1, 64461, Note_on_c, 1, 59, 0
1, 64464, Note_on_c, 0, 62, 85
1, 64512, Note_on_c, 0, 62, 0
1, 64512, Note_on_c, 0, 67, 70
1, 64536, Note_on_c, 0, 67, 0
1, 64536, Note_on_c, 0, 66, 70
1, 64559, Note_on_c, 0, 66, 0
1, 64560, Note_on_c, 0, 69, 71
1, 64584, Note_on_c, 0, 69, 0
1, 64584, Note_on_c, 0, 67, 72
1, 64607, Note_on_c, 0, 67, 0
1, 64608, Note_on_c, 0, 71, 72
1, 64632, Note_on_c, 0, 71, 0
1, 64632, Note_on_c, 0, 69, 73
1, 64655, Note_on_c, 0, 69, 0
1, 64656, Note_on_c, 0, 74, 73
1, 64680, Note_on_c, 0, 74, 0
1, 64680, Note_on_c, 0, 73, 74
1, 64703, Note_on_c, 0, 73, 0
1, 64704, Note_on_c, 0, 71, 75
1, 64704, Note_on_c, 1, 55, 61
1, 64724, Note_on_c, 0, 71, 0
1, 64727, Note_on_c, 1, 55, 0
1, 64728, Note_on_c, 1, 62, 61
1, 64751, Note_on_c, 1, 62, 0
1, 64752, Note_on_c, 0, 71, 75
1, 64752, Note_on_c, 1, 55, 61
1, 64775, Note_on_c, 1, 55, 0
1, 64776, Note_on_c, 0, 71, 0
1, 64776, Note_on_c, 0, 74, 75
1, 64776, Note_on_c, 1, 62, 61
1, 64799, Note_on_c, 0, 74, 0
1, 64799, Note_on_c, 1, 62, 0
1, 64800, Note_on_c, 0, 69, 75
1, 64800, Note_on_c, 1, 54, 61
1, 64820, Note_on_c, 0, 69, 0
1, 64823, Note_on_c, 1, 54, 0
1, 64824, Note_on_c, 1, 62, 61
1, 64847, Note_on_c, 1, 62, 0
1, 64848, Note_on_c, 1, 54, 61
1, 64871, Note_on_c, 1, 54, 0
1, 64872, Note_on_c, 1, 62, 61
1, 64895, Note_on_c, 1, 62, 0
1, 64896, Note_on_c, 0, 69, 75
1, 64896, Note_on_c, 1, 59, 61
1, 64902, Note_on_c, 0, 69, 0
1, 64902, Note_on_c, 0, 67, 75
1, 64908, Note_on_c, 0, 67, 0
1, 64908, Note_on_c, 0, 66, 75
1, 64914, Note_on_c, 0, 66, 0
1, 64914, Note_on_c, 0, 67, 75
1, 64919, Note_on_c, 1, 59, 0
1, 64920, Note_on_c, 1, 62, 61
1, 64941, Note_on_c, 0, 67, 0
1, 64943, Note_on_c, 1, 62, 0
1, 64944, Note_on_c, 0, 67, 75
1, 64944, Note_on_c, 1, 59, 61
1, 64967, Note_on_c, 1, 59, 0
1, 64968, Note_on_c, 0, 67, 0
1, 64968, Note_on_c, 0, 71, 75
1, 64968, Note_on_c, 1, 62, 61
1, 64991, Note_on_c, 0, 71, 0
1, 64991, Note_on_c, 1, 62, 0
1, 64992, Note_on_c, 0, 66, 75
1, 64992, Note_on_c, 1, 57, 61
1, 65012, Note_on_c, 0, 66, 0
1, 65015, Note_on_c, 1, 57, 0
1, 65016, Note_on_c, 1, 62, 61
1, 65039, Note_on_c, 1, 62, 0
1, 65040, Note_on_c, 1, 57, 61
1, 65063, Note_on_c, 1, 57, 0
1, 65064, Note_on_c, 1, 62, 61
1, 65087, Note_on_c, 1, 62, 0
1, 65088, Note_on_c, 0, 73, 75
1, 65088, Note_on_c, 1, 55, 61
1, 65094, Note_on_c, 0, 73, 0
1, 65094, Note_on_c, 0, 71, 75
1, 65100, Note_on_c, 0, 71, 0
1, 65100, Note_on_c, 0, 69, 75
1, 65106, Note_on_c, 0, 69, 0
1, 65106, Note_on_c, 0, 71, 75
1, 65111, Note_on_c, 1, 55, 0
1, 65112, Note_on_c, 1, 62, 61
1, 65133, Note_on_c, 0, 71, 0
1, 65135, Note_on_c, 1, 62, 0
1, 65136, Note_on_c, 0, 71, 75
1, 65136, Note_on_c, 1, 55, 61
1, 65159, Note_on_c, 1, 55, 0
1, 65160, Note_on_c, 0, 71, 0
1, 65160, Note_on_c, 0, 74, 75
1, 65160, Note_on_c, 1, 62, 61
1, 65183, Note_on_c, 0, 74, 0
1, 65183, Note_on_c, 1, 62, 0
1, 65184, Note_on_c, 0, 69, 75
1, 65184, Note_on_c, 1, 54, 61
1, 65204, Note_on_c, 0, 69, 0
1, 65207, Note_on_c, 1, 54, 0
1, 65208, Note_on_c, 1, 62, 61
1, 65231, Note_on_c, 1, 62, 0
1, 65232, Note_on_c, 1, 54, 61
1, 65255, Note_on_c, 1, 54, 0
1, 65256, Note_on_c, 1, 62, 61
1, 65279, Note_on_c, 1, 62, 0
1, 65280, Note_on_c, 0, 69, 75
1, 65280, Note_on_c, 1, 59, 61
1, 65286, Note_on_c, 0, 69, 0
1, 65286, Note_on_c, 0, 67, 75
1, 65292, Note_on_c, 0, 67, 0
1, 65292, Note_on_c, 0, 66, 75
1, 65298, Note_on_c, 0, 66, 0
1, 65298, Note_on_c, 0, 67, 75
1, 65303, Note_on_c, 1, 59, 0
1, 65304, Note_on_c, 1, 62, 61
1, 65325, Note_on_c, 0, 67, 0
1, 65327, Note_on_c, 1, 62, 0
1, 65328, Note_on_c, 0, 67, 75
1, 65328, Note_on_c, 1, 59, 61
1, 65351, Note_on_c, 1, 59, 0
1, 65352, Note_on_c, 0, 67, 0
1, 65352, Note_on_c, 0, 71, 75
1, 65352, Note_on_c, 1, 62, 61
1, 65375, Note_on_c, 0, 71, 0
1, 65375, Note_on_c, 1, 62, 0
1, 65376, Note_on_c, 0, 66, 75
1, 65376, Note_on_c, 1, 57, 61
1, 65396, Note_on_c, 0, 66, 0
1, 65399, Note_on_c, 1, 57, 0
1, 65400, Note_on_c, 1, 62, 61
1, 65423, Note_on_c, 1, 62, 0
1, 65424, Note_on_c, 1, 57, 61
1, 65447, Note_on_c, 1, 57, 0
1, 65448, Note_on_c, 1, 62, 61
1, 65471, Note_on_c, 1, 62, 0
1, 65472, Note_on_c, 0, 63, 75
1, 65472, Note_on_c, 1, 55, 75
1, 65495, Note_on_c, 0, 63, 0
1, 65496, Note_on_c, 0, 64, 77
1, 65519, Note_on_c, 0, 64, 0
1, 65520, Note_on_c, 0, 66, 79
1, 65543, Note_on_c, 0, 66, 0
1, 65544, Note_on_c, 0, 67, 81
1, 65561, Note_on_c, 1, 55, 0
1, 65567, Note_on_c, 0, 67, 0
1, 65568, Note_on_c, 0, 69, 84
1, 65591, Note_on_c, 0, 69, 0
1, 65592, Note_on_c, 0, 71, 81
1, 65615, Note_on_c, 0, 71, 0
1, 65616, Note_on_c, 0, 67, 79
1, 65616, Note_on_c, 1, 55, 75
1, 65616, Note_on_c, 1, 43, 75
1, 65639, Note_on_c, 0, 67, 0
1, 65640, Note_on_c, 0, 64, 77
1, 65661, Note_on_c, 1, 55, 0
1, 65661, Note_on_c, 1, 43, 0
1, 65663, Note_on_c, 0, 64, 0
1, 65664, Note_on_c, 0, 62, 75
1, 65664, Note_on_c, 1, 54, 75
1, 65664, Note_on_c, 1, 45, 75
1, 65856, Note_on_c, 0, 62, 0
1, 65856, Note_on_c, 0, 61, 63
1, 65856, Note_on_c, 1, 54, 0
1, 65856, Note_on_c, 1, 52, 63
1, 65876, Note_on_c, 0, 61, 0
1, 65901, Note_on_c, 1, 52, 0
1, 65901, Note_on_c, 1, 45, 0
1, 65904, Tempo, 750000
1, 65952, Tempo, 545454
1, 66000, Note_on_c, 0, 57, 84
1, 66012, Note_on_c, 0, 57, 0
1, 66012, Note_on_c, 0, 61, 84
1, 66024, Note_on_c, 0, 61, 0
1, 66024, Note_on_c, 0, 64, 84
1, 66036, Note_on_c, 0, 64, 0
1, 66036, Note_on_c, 0, 67, 84
1, 66048, Note_on_c, 0, 67, 0
1, 66048, Note_on_c, 0, 64, 84
1, 66048, Note_on_c, 1, 57, 84
1, 66048, Note_on_c, 1, 52, 84
1, 66048, Note_on_c, 1, 49, 84
1, 66048, Note_on_c, 1, 45, 84
1, 66093, Note_on_c, 0, 64, 0
1, 66093, Note_on_c, 1, 57, 0
1, 66093, Note_on_c, 1, 52, 0
1, 66093, Note_on_c, 1, 49, 0
1, 66093, Note_on_c, 1, 45, 0
1, 66096, Note_on_c, 0, 64, 84
1, 66108, Note_on_c, 0, 64, 0
1, 66108, Note_on_c, 0, 67, 84
1, 66120, Note_on_c, 0, 67, 0
1, 66120, Note_on_c, 0, 73, 84
1, 66132, Note_on_c, 0, 73, 0
1, 66132, Note_on_c, 0, 76, 84
1, 66144, Note_on_c, 0, 76, 0
1, 66144, Note_on_c, 0, 73, 84
1, 66144, Note_on_c, 1, 57, 84
1, 66144, Note_on_c, 1, 52, 84
1, 66144, Note_on_c, 1, 49, 84
1, 66144, Note_on_c, 1, 45, 84
1, 66189, Note_on_c, 0, 73, 0
1, 66189, Note_on_c, 1, 57, 0
1, 66189, Note_on_c, 1, 52, 0
1, 66189, Note_on_c, 1, 49, 0
1, 66189, Note_on_c, 1, 45, 0
1, 66192, Note_on_c, 0, 67, 84
1, 66204, Note_on_c, 0, 67, 0
1, 66204, Note_on_c, 0, 73, 84
1, 66216, Note_on_c, 0, 73, 0
1, 66216, Note_on_c, 0, 76, 84
1, 66228, Note_on_c, 0, 76, 0
1, 66228, Note_on_c, 0, 79, 84
1, 66240, Note_on_c, 0, 79, 0
1, 66240, Note_on_c, 0, 76, 84
1, 66240, Note_on_c, 1, 57, 84
1, 66240, Note_on_c, 1, 52, 84
1, 66240, Note_on_c, 1, 49, 84
1, 66240, Note_on_c, 1, 45, 84
1, 66285, Note_on_c, 0, 76, 0
1, 66285, Note_on_c, 1, 57, 0
1, 66285, Note_on_c, 1, 52, 0
1, 66285, Note_on_c, 1, 49, 0
1, 66285, Note_on_c, 1, 45, 0
1, 66384, Note_on_c, 0, 67, 75
1, 66396, Note_on_c, 0, 67, 0
1, 66396, Note_on_c, 0, 64, 75
1, 66408, Note_on_c, 0, 64, 0
1, 66408, Note_on_c, 0, 61, 75
1, 66420, Note_on_c, 0, 61, 0
1, 66420, Note_on_c, 0, 57, 75
1, 66432, Note_on_c, 0, 57, 0
1, 66432, Note_on_c, 0, 55, 75
1, 66432, Note_on_c, 1, 45, 75
1, 66455, Note_on_c, 1, 45, 0
1, 66456, Note_on_c, 1, 52, 75
1, 66479, Note_on_c, 1, 52, 0
1, 66480, Note_on_c, 1, 50, 75
1, 66503, Note_on_c, 1, 50, 0
1, 66504, Note_on_c, 1, 52, 75
1, 66527, Note_on_c, 1, 52, 0
1, 66528, Note_on_c, 1, 49, 75
1, 66551, Note_on_c, 1, 49, 0
1, 66552, Note_on_c, 1, 52, 75
1, 66575, Note_on_c, 1, 52, 0
1, 66576, Note_on_c, 1, 45, 75
1, 66599, Note_on_c, 1, 45, 0
1, 66600, Note_on_c, 1, 49, 75
1, 66609, Note_on_c, 0, 55, 0
1, 66623, Note_on_c, 1, 49, 0
1, 66624, Note_on_c, 0, 54, 75
1, 66624, Note_on_c, 1, 50, 75
1, 66647, Note_on_c, 0, 54, 0
1, 66648, Note_on_c, 0, 62, 75
1, 66671, Note_on_c, 0, 62, 0
1, 66672, Note_on_c, 0, 61, 75
1, 66695, Note_on_c, 0, 61, 0
1, 66696, Note_on_c, 0, 62, 75
1, 66713, Note_on_c, 1, 50, 0
1, 66719, Note_on_c, 0, 62, 0
1, 66720, Note_on_c, 0, 64, 75
1, 66743, Note_on_c, 0, 64, 0
1, 66744, Note_on_c, 0, 62, 75
1, 66767, Note_on_c, 0, 62, 0
1, 66768, Note_on_c, 0, 61, 75
1, 66791, Note_on_c, 0, 61, 0
1, 66792, Note_on_c, 0, 62, 75
1, 66815, Note_on_c, 0, 62, 0
1, 66816, Note_on_c, 0, 60, 75
1, 66816, Note_on_c, 1, 50, 75
1, 66839, Note_on_c, 1, 50, 0
1, 66840, Note_on_c, 1, 57, 75
1, 66863, Note_on_c, 1, 57, 0
1, 66864, Note_on_c, 1, 55, 75
1, 66887, Note_on_c, 1, 55, 0
1, 66888, Note_on_c, 1, 57, 75
1, 66911, Note_on_c, 1, 57, 0
1, 66912, Note_on_c, 1, 54, 75
1, 66935, Note_on_c, 1, 54, 0
1, 66936, Note_on_c, 1, 57, 75
1, 66959, Note_on_c, 1, 57, 0
1, 66960, Note_on_c, 1, 50, 75
1, 66983, Note_on_c, 1, 50, 0
1, 66984, Note_on_c, 1, 54, 75
1, 66993, Note_on_c, 0, 60, 0
1, 67007, Note_on_c, 1, 54, 0
1, 67008, Note_on_c, 0, 59, 75
1, 67008, Note_on_c, 1, 55, 75
1, 67031, Note_on_c, 0, 59, 0
1, 67032, Note_on_c, 0, 64, 75
1, 67055, Note_on_c, 0, 64, 0
1, 67056, Note_on_c, 0, 63, 75
1, 67079, Note_on_c, 0, 63, 0
1, 67080, Note_on_c, 0, 64, 75
1, 67097, Note_on_c, 1, 55, 0
1, 67103, Note_on_c, 0, 64, 0
1, 67104, Note_on_c, 0, 66, 75
1, 67127, Note_on_c, 0, 66, 0
1, 67128, Note_on_c, 0, 64, 75
1, 67151, Note_on_c, 0, 64, 0
1, 67152, Note_on_c, 0, 63, 75
1, 67175, Note_on_c, 0, 63, 0
1, 67176, Note_on_c, 0, 64, 75
1, 67199, Note_on_c, 0, 64, 0
1, 67200, Note_on_c, 0, 62, 75
1, 67200, Note_on_c, 1, 52, 75
1, 67223, Note_on_c, 1, 52, 0
1, 67224, Note_on_c, 1, 59, 75
1, 67247, Note_on_c, 1, 59, 0
1, 67248, Note_on_c, 1, 57, 75
1, 67271, Note_on_c, 1, 57, 0
1, 67272, Note_on_c, 1, 59, 75
1, 67295, Note_on_c, 1, 59, 0
1, 67296, Note_on_c, 1, 56, 75
1, 67319, Note_on_c, 1, 56, 0
1, 67320, Note_on_c, 1, 59, 75
1, 67343, Note_on_c, 1, 59, 0
1, 67344, Note_on_c, 1, 52, 75
1, 67367, Note_on_c, 1, 52, 0
1, 67368, Note_on_c, 1, 56, 75
1, 67377, Note_on_c, 0, 62, 0
1, 67391, Note_on_c, 1, 56, 0
1, 67392, Note_on_c, 0, 61, 75
1, 67392, Note_on_c, 1, 57, 75
1, 67415, Note_on_c, 0, 61, 0
1, 67416, Note_on_c, 0, 69, 75
1, 67439, Note_on_c, 0, 69, 0
1, 67440, Note_on_c, 0, 68, 75
1, 67463, Note_on_c, 0, 68, 0
1, 67464, Note_on_c, 0, 69, 75
1, 67481, Note_on_c, 1, 57, 0
1, 67487, Note_on_c, 0, 69, 0
1, 67488, Note_on_c, 0, 71, 75
1, 67511, Note_on_c, 0, 71, 0
1, 67512, Note_on_c, 0, 69, 75
1, 67535, Note_on_c, 0, 69, 0
1, 67536, Note_on_c, 0, 68, 75
1, 67559, Note_on_c, 0, 68, 0
1, 67560, Note_on_c, 0, 69, 75
1, 67583, Note_on_c, 0, 69, 0
1, 67584, Note_on_c, 0, 68, 75
1, 67584, Note_on_c, 1, 59, 61
1, 67607, Note_on_c, 1, 59, 0
1, 67608, Note_on_c, 1, 65, 61
1, 67629, Note_on_c, 0, 68, 0
1, 67631, Note_on_c, 1, 65, 0
1, 67632, Note_on_c, 0, 74, 75
1, 67632, Note_on_c, 1, 59, 61
1, 67655, Note_on_c, 1, 59, 0
1, 67656, Note_on_c, 1, 65, 61
1, 67677, Note_on_c, 0, 74, 0
1, 67679, Note_on_c, 1, 65, 0
1, 67680, Note_on_c, 1, 59, 61
1, 67703, Note_on_c, 1, 59, 0
1, 67704, Note_on_c, 1, 65, 61
1, 67727, Note_on_c, 1, 65, 0
1, 67728, Note_on_c, 0, 68, 75
1, 67728, Note_on_c, 1, 59, 61
1, 67751, Note_on_c, 1, 59, 0
1, 67752, Note_on_c, 1, 65, 61
1, 67775, Note_on_c, 1, 65, 0
1, 67776, Note_on_c, 0, 68, 0
1, 67776, Note_on_c, 0, 69, 75
1, 67776, Note_on_c, 1, 61, 61
1, 67796, Note_on_c, 0, 69, 0
1, 67799, Note_on_c, 1, 61, 0
1, 67800, Note_on_c, 1, 64, 61
1, 67823, Note_on_c, 1, 64, 0
1, 67824, Note_on_c, 0, 69, 75
1, 67824, Note_on_c, 1, 61, 61
1, 67847, Note_on_c, 1, 61, 0
1, 67848, Note_on_c, 0, 69, 0
1, 67848, Note_on_c, 0, 76, 75
1, 67848, Note_on_c, 1, 64, 61
1, 67871, Note_on_c, 0, 76, 0
1, 67871, Note_on_c, 1, 64, 0
1, 67872, Note_on_c, 0, 69, 75
1, 67872, Note_on_c, 1, 61, 61
1, 67895, Note_on_c, 1, 61, 0
1, 67896, Note_on_c, 1, 64, 61
1, 67917, Note_on_c, 0, 69, 0
1, 67919, Note_on_c, 1, 64, 0
1, 67920, Note_on_c, 0, 69, 75
1, 67920, Note_on_c, 1, 61, 61
1, 67943, Note_on_c, 1, 61, 0
1, 67944, Note_on_c, 1, 64, 61
1, 67967, Note_on_c, 1, 64, 0
1, 67968, Note_on_c, 0, 69, 0
1, 67968, Note_on_c, 0, 68, 75
1, 67968, Note_on_c, 1, 59, 61
1, 67991, Note_on_c, 1, 59, 0
1, 67992, Note_on_c, 1, 65, 61
1, 68013, Note_on_c, 0, 68, 0
1, 68015, Note_on_c, 1, 65, 0
1, 68016, Note_on_c, 0, 74, 75
1, 68016, Note_on_c, 1, 59, 61
1, 68039, Note_on_c, 1, 59, 0
1, 68040, Note_on_c, 1, 65, 61
1, 68061, Note_on_c, 0, 74, 0
1, 68063, Note_on_c, 1, 65, 0
1, 68064, Note_on_c, 1, 59, 61
1, 68087, Note_on_c, 1, 59, 0
1, 68088, Note_on_c, 1, 65, 61
1, 68111, Note_on_c, 1, 65, 0
1, 68112, Note_on_c, 0, 68, 75
1, 68112, Note_on_c, 1, 59, 61
1, 68135, Note_on_c, 1, 59, 0
1, 68136, Note_on_c, 1, 65, 61
1, 68159, Note_on_c, 1, 65, 0
1, 68160, Note_on_c, 0, 68, 0
1, 68160, Note_on_c, 0, 69, 75
1, 68160, Note_on_c, 1, 61, 61
1, 68180, Note_on_c, 0, 69, 0
1, 68183, Note_on_c, 1, 61, 0
1, 68184, Note_on_c, 1, 64, 61
1, 68207, Note_on_c, 1, 64, 0
1, 68208, Note_on_c, 0, 69, 75
1, 68208, Note_on_c, 1, 61, 61
1, 68231, Note_on_c, 1, 61, 0
1, 68232, Note_on_c, 0, 69, 0
1, 68232, Note_on_c, 0, 76, 75
1, 68232, Note_on_c, 1, 64, 61
1, 68255, Note_on_c, 0, 76, 0
1, 68255, Note_on_c, 1, 64, 0
1, 68256, Note_on_c, 0, 69, 75
1, 68256, Note_on_c, 1, 61, 61
1, 68279, Note_on_c, 1, 61, 0
1, 68280, Note_on_c, 1, 64, 61
1, 68301, Note_on_c, 0, 69, 0
1, 68303, Note_on_c, 1, 64, 0
1, 68304, Note_on_c, 0, 67, 75
1, 68304, Note_on_c, 1, 61, 61
1, 68310, Note_on_c, 0, 67, 0
1, 68310, Note_on_c, 0, 69, 75
1, 68316, Note_on_c, 0, 69, 0
1, 68316, Note_on_c, 0, 67, 75
1, 68327, Note_on_c, 1, 61, 0
1, 68328, Note_on_c, 1, 64, 61
1, 68349, Note_on_c, 0, 67, 0
1, 68351, Note_on_c, 1, 64, 0
1, 68352, Note_on_c, 0, 66, 75
1, 68352, Note_on_c, 1, 62, 61
1, 68375, Note_on_c, 1, 62, 0
1, 68376, Note_on_c, 1, 66, 61
1, 68397, Note_on_c, 0, 66, 0
1, 68399, Note_on_c, 1, 66, 0
1, 68400, Note_on_c, 0, 81, 75
1, 68400, Note_on_c, 1, 62, 61
1, 68423, Note_on_c, 1, 62, 0
1, 68424, Note_on_c, 1, 66, 61
1, 68445, Note_on_c, 0, 81, 0
1, 68447, Note_on_c, 1, 66, 0
1, 68448, Note_on_c, 1, 62, 61
1, 68471, Note_on_c, 1, 62, 0
1, 68472, Note_on_c, 1, 66, 61
1, 68495, Note_on_c, 1, 66, 0
1, 68496, Note_on_c, 0, 74, 75
1, 68496, Note_on_c, 1, 62, 61
1, 68519, Note_on_c, 1, 62, 0
1, 68520, Note_on_c, 1, 66, 61
1, 68543, Note_on_c, 1, 66, 0
1, 68544, Note_on_c, 0, 74, 0
1, 68544, Note_on_c, 0, 73, 75
1, 68544, Note_on_c, 1, 64, 61
1, 68564, Note_on_c, 0, 73, 0
1, 68567, Note_on_c, 1, 64, 0
1, 68568, Note_on_c, 1, 67, 61
1, 68591, Note_on_c, 1, 67, 0
1, 68592, Note_on_c, 0, 73, 75
1, 68592, Note_on_c, 1, 64, 61
1, 68615, Note_on_c, 1, 64, 0
1, 68616, Note_on_c, 0, 73, 0
1, 68616, Note_on_c, 0, 81, 75
1, 68616, Note_on_c, 1, 67, 61
1, 68639, Note_on_c, 0, 81, 0
1, 68639, Note_on_c, 1, 67, 0
1, 68640, Note_on_c, 0, 73, 75
1, 68640, Note_on_c, 1, 64, 61
1, 68660, Note_on_c, 0, 73, 0
1, 68663, Note_on_c, 1, 64, 0
1, 68664, Note_on_c, 1, 67, 61
1, 68687, Note_on_c, 1, 67, 0
1, 68688, Note_on_c, 0, 73, 75
1, 68688, Note_on_c, 1, 64, 61
1, 68711, Note_on_c, 1, 64, 0
1, 68712, Note_on_c, 1, 67, 61
1, 68735, Note_on_c, 1, 67, 0
1, 68736, Note_on_c, 0, 73, 0
1, 68736, Note_on_c, 0, 74, 75
1, 68736, Note_on_c, 1, 66, 61
1, 68756, Note_on_c, 0, 74, 0
1, 68759, Note_on_c, 1, 66, 0
1, 68760, Note_on_c, 1, 69, 61
1, 68783, Note_on_c, 1, 69, 0
1, 68784, Note_on_c, 0, 74, 75
1, 68784, Note_on_c, 1, 66, 61
1, 68807, Note_on_c, 1, 66, 0
1, 68808, Note_on_c, 0, 74, 0
1, 68808, Note_on_c, 0, 81, 75
1, 68808, Note_on_c, 1, 69, 61
1, 68831, Note_on_c, 0, 81, 0
1, 68831, Note_on_c, 1, 69, 0
1, 68832, Note_on_c, 0, 74, 75
1, 68832, Note_on_c, 1, 66, 61
1, 68852, Note_on_c, 0, 74, 0
1, 68855, Note_on_c, 1, 66, 0
1, 68856, Note_on_c, 1, 69, 61
1, 68879, Note_on_c, 1, 69, 0
1, 68880, Note_on_c, 0, 74, 75
1, 68880, Note_on_c, 1, 66, 61
1, 68903, Note_on_c, 1, 66, 0
1, 68904, Note_on_c, 1, 69, 61
1, 68927, Note_on_c, 1, 69, 0
1, 68928, Note_on_c, 0, 74, 0
1, 68928, Note_on_c, 0, 76, 75
1, 68928, Note_on_c, 1, 61, 61
1, 68948, Note_on_c, 0, 76, 0
1, 68951, Note_on_c, 1, 61, 0
1, 68952, Note_on_c, 1, 69, 61
1, 68975, Note_on_c, 1, 69, 0
1, 68976, Note_on_c, 0, 76, 75
1, 68976, Note_on_c, 1, 61, 61
1, 68999, Note_on_c, 1, 61, 0
1, 69000, Note_on_c, 0, 76, 0
1, 69000, Note_on_c, 0, 81, 75
1, 69000, Note_on_c, 1, 69, 61
1, 69023, Note_on_c, 0, 81, 0
1, 69023, Note_on_c, 1, 69, 0
1, 69024, Note_on_c, 0, 76, 75
1, 69024, Note_on_c, 1, 61, 61
1, 69047, Note_on_c, 1, 61, 0
1, 69048, Note_on_c, 1, 69, 61
1, 69069, Note_on_c, 0, 76, 0
1, 69071, Note_on_c, 1, 69, 0
1, 69072, Note_on_c, 0, 79, 75
1, 69072, Note_on_c, 1, 61, 61
1, 69095, Note_on_c, 1, 61, 0
1, 69096, Note_on_c, 1, 69, 61
1, 69117, Note_on_c, 0, 79, 0
1, 69119, Note_on_c, 1, 69, 0
1, 69120, Note_on_c, 0, 78, 75
1, 69120, Note_on_c, 1, 62, 75
1, 69143, Note_on_c, 0, 78, 0
1, 69144, Note_on_c, 0, 79, 75
1, 69167, Note_on_c, 0, 79, 0
1, 69168, Note_on_c, 0, 81, 75
1, 69191, Note_on_c, 0, 81, 0
1, 69192, Note_on_c, 0, 78, 75
1, 69209, Note_on_c, 1, 62, 0
1, 69215, Note_on_c, 0, 78, 0
1, 69216, Note_on_c, 0, 76, 75
1, 69239, Note_on_c, 0, 76, 0
1, 69240, Note_on_c, 0, 74, 75
1, 69263, Note_on_c, 0, 74, 0
1, 69264, Note_on_c, 0, 73, 75
1, 69287, Note_on_c, 0, 73, 0
1, 69288, Note_on_c, 0, 71, 75
1, 69311, Note_on_c, 0, 71, 0
1, 69312, Note_on_c, 0, 69, 75
1, 69312, Note_on_c, 1, 64, 75
1, 69312, Note_on_c, 1, 61, 75
1, 69335, Note_on_c, 0, 69, 0
1, 69336, Note_on_c, 0, 68, 75
1, 69359, Note_on_c, 0, 68, 0
1, 69360, Note_on_c, 0, 69, 75
1, 69383, Note_on_c, 0, 69, 0
1, 69384, Note_on_c, 0, 71, 75
1, 69401, Note_on_c, 1, 64, 0
1, 69401, Note_on_c, 1, 61, 0
1, 69407, Note_on_c, 0, 71, 0
1, 69408, Note_on_c, 0, 69, 75
1, 69431, Note_on_c, 0, 69, 0
1, 69432, Note_on_c, 0, 67, 75
1, 69455, Note_on_c, 0, 67, 0
1, 69456, Note_on_c, 0, 66, 75
1, 69479, Note_on_c, 0, 66, 0
1, 69480, Note_on_c, 0, 64, 75
1, 69503, Note_on_c, 0, 64, 0
1, 69504, Note_on_c, 0, 66, 75
1, 69504, Note_on_c, 1, 50, 75
1, 69527, Note_on_c, 0, 66, 0
1, 69528, Note_on_c, 0, 67, 75
1, 69551, Note_on_c, 0, 67, 0
1, 69552, Note_on_c, 0, 69, 75
1, 69575, Note_on_c, 0, 69, 0
1, 69576, Note_on_c, 0, 66, 75
1, 69593, Note_on_c, 1, 50, 0
1, 69599, Note_on_c, 0, 66, 0
1, 69600, Note_on_c, 0, 64, 75
1, 69623, Note_on_c, 0, 64, 0
1, 69624, Note_on_c, 0, 62, 75
1, 69647, Note_on_c, 0, 62, 0
1, 69648, Note_on_c, 0, 61, 75
1, 69671, Note_on_c, 0, 61, 0
1, 69672, Note_on_c, 0, 59, 75
1, 69695, Note_on_c, 0, 59, 0
1, 69696, Note_on_c, 1, 57, 75
1, 69696, Note_on_c, 1, 45, 75
1, 69719, Note_on_c, 1, 57, 0
1, 69720, Note_on_c, 1, 56, 75
1, 69743, Note_on_c, 1, 56, 0
1, 69744, Note_on_c, 1, 57, 75
1, 69767, Note_on_c, 1, 57, 0
1, 69768, Note_on_c, 1, 59, 75
1, 69785, Note_on_c, 1, 45, 0
1, 69791, Note_on_c, 1, 59, 0
1, 69792, Note_on_c, 1, 57, 75
1, 69815, Note_on_c, 1, 57, 0
1, 69816, Note_on_c, 1, 55, 75
1, 69839, Note_on_c, 1, 55, 0
1, 69840, Note_on_c, 1, 54, 75
1, 69863, Note_on_c, 1, 54, 0
1, 69864, Note_on_c, 1, 52, 75
1, 69887, Note_on_c, 1, 52, 0
1, 69888, Note_on_c, 0, 78, 75
1, 69888, Note_on_c, 1, 50, 75
1, 69911, Note_on_c, 0, 78, 0
1, 69912, Note_on_c, 0, 79, 75
1, 69935, Note_on_c, 0, 79, 0
1, 69936, Note_on_c, 0, 81, 75
1, 69959, Note_on_c, 0, 81, 0
1, 69960, Note_on_c, 0, 78, 75
1, 69977, Note_on_c, 1, 50, 0
1, 69983, Note_on_c, 0, 78, 0
1, 69984, Note_on_c, 0, 76, 75
1, 70007, Note_on_c, 0, 76, 0
1, 70008, Note_on_c, 0, 74, 75
1, 70031, Note_on_c, 0, 74, 0
1, 70032, Note_on_c, 0, 73, 75
1, 70055, Note_on_c, 0, 73, 0
1, 70056, Note_on_c, 0, 74, 75
1, 70079, Note_on_c, 0, 74, 0
1, 70080, Note_on_c, 0, 83, 75
1, 70080, Note_on_c, 1, 67, 75
1, 70103, Note_on_c, 0, 83, 0
1, 70104, Note_on_c, 0, 85, 75
1, 70127, Note_on_c, 0, 85, 0
1, 70128, Note_on_c, 0, 86, 75
1, 70151, Note_on_c, 0, 86, 0
1, 70152, Note_on_c, 0, 83, 75
1, 70169, Note_on_c, 1, 67, 0
1, 70175, Note_on_c, 0, 83, 0
1, 70176, Note_on_c, 0, 81, 75
1, 70199, Note_on_c, 0, 81, 0
1, 70200, Note_on_c, 0, 79, 75
1, 70223, Note_on_c, 0, 79, 0
1, 70224, Note_on_c, 0, 78, 75
1, 70247, Note_on_c, 0, 78, 0
1, 70248, Note_on_c, 0, 76, 75
1, 70271, Note_on_c, 0, 76, 0
1, 70272, Note_on_c, 0, 75, 75
1, 70272, Note_on_c, 1, 55, 75
1, 70296, Note_on_c, 0, 75, 0
1, 70296, Note_on_c, 0, 76, 75
1, 70319, Note_on_c, 0, 76, 0
1, 70320, Note_on_c, 0, 78, 75
1, 70344, Note_on_c, 0, 78, 0
1, 70344, Note_on_c, 0, 76, 75
1, 70354, Note_on_c, 0, 76, 0
1, 70361, Note_on_c, 1, 55, 0
1, 70368, Note_on_c, 0, 79, 75
1, 70392, Note_on_c, 0, 79, 0
1, 70392, Note_on_c, 0, 78, 75
1, 70402, Note_on_c, 0, 78, 0
1, 70416, Note_on_c, 0, 81, 75
1, 70440, Note_on_c, 0, 81, 0
1, 70440, Note_on_c, 0, 79, 75
1, 70450, Note_on_c, 0, 79, 0
1, 70464, Note_on_c, 0, 83, 75
1, 70509, Note_on_c, 0, 83, 0
1, 70560, Note_on_c, 0, 81, 75
1, 70583, Note_on_c, 0, 81, 0
1, 70584, Note_on_c, 0, 79, 75
1, 70607, Note_on_c, 0, 79, 0
1, 70608, Note_on_c, 0, 78, 75
1, 70631, Note_on_c, 0, 78, 0
1, 70632, Note_on_c, 0, 76, 75
1, 70655, Note_on_c, 0, 76, 0
1, 70656, Note_on_c, 0, 74, 75
1, 70704, Note_on_c, 1, 62, 75
1, 70704, Note_on_c, 1, 54, 75
1, 70745, Note_on_c, 0, 74, 0
1, 70749, Note_on_c, 1, 54, 0
1, 70752, Note_on_c, 0, 76, 75
1, 70752, Note_on_c, 1, 55, 75
1, 70763, Note_on_c, 0, 76, 0
1, 70763, Note_on_c, 0, 78, 75
1, 70774, Note_on_c, 0, 78, 0
1, 70774, Note_on_c, 0, 76, 75
1, 70785, Note_on_c, 0, 76, 0
1, 70785, Note_on_c, 0, 78, 75
1, 70793, Note_on_c, 1, 62, 0
1, 70796, Note_on_c, 0, 78, 0
1, 70796, Note_on_c, 0, 76, 75
1, 70797, Note_on_c, 1, 55, 0
1, 70800, Note_on_c, 1, 61, 75
1, 70800, Note_on_c, 1, 57, 75
1, 70807, Note_on_c, 0, 76, 0
1, 70807, Note_on_c, 0, 78, 75
1, 70818, Note_on_c, 0, 78, 0
1, 70818, Note_on_c, 0, 76, 75
1, 70828, Note_on_c, 0, 76, 0
1, 70828, Note_on_c, 0, 74, 75
1, 70838, Note_on_c, 0, 74, 0
1, 70838, Note_on_c, 0, 76, 75
1, 70845, Note_on_c, 1, 61, 0
1, 70845, Note_on_c, 1, 57, 0
1, 70848, Note_on_c, 0, 76, 0
1, 70848, Note_on_c, 0, 78, 75
1, 70848, Note_on_c, 1, 62, 75
1, 70871, Note_on_c, 0, 78, 0
1, 70872, Note_on_c, 0, 79, 75
1, 70893, Note_on_c, 1, 62, 0
1, 70895, Note_on_c, 0, 79, 0
1, 70896, Note_on_c, 0, 81, 75
1, 70919, Note_on_c, 0, 81, 0
1, 70920, Note_on_c, 0, 78, 75
1, 70943, Note_on_c, 0, 78, 0
1, 70944, Note_on_c, 0, 76, 75
1, 70944, Note_on_c, 1, 66, 75
1, 70967, Note_on_c, 0, 76, 0
1, 70968, Note_on_c, 0, 74, 75
1, 70989, Note_on_c, 1, 66, 0
1, 70991, Note_on_c, 0, 74, 0
1, 70992, Note_on_c, 0, 73, 75
1, 71015, Note_on_c, 0, 73, 0
1, 71016, Note_on_c, 0, 74, 75
1, 71039, Note_on_c, 0, 74, 0
1, 71040, Note_on_c, 0, 83, 75
1, 71040, Note_on_c, 1, 67, 75
1, 71063, Note_on_c, 0, 83, 0
1, 71063, Note_on_c, 1, 67, 0
1, 71064, Note_on_c, 0, 85, 75
1, 71064, Note_on_c, 1, 69, 75
1, 71087, Note_on_c, 0, 85, 0
1, 71087, Note_on_c, 1, 69, 0
1, 71088, Note_on_c, 0, 86, 75
1, 71088, Note_on_c, 1, 71, 75
1, 71111, Note_on_c, 0, 86, 0
1, 71111, Note_on_c, 1, 71, 0
1, 71112, Note_on_c, 0, 85, 75
1, 71112, Note_on_c, 1, 69, 75
1, 71135, Note_on_c, 0, 85, 0
1, 71135, Note_on_c, 1, 69, 0
1, 71136, Note_on_c, 0, 83, 75
1, 71136, Note_on_c, 1, 67, 75
1, 71159, Note_on_c, 0, 83, 0
1, 71159, Note_on_c, 1, 67, 0
1, 71160, Note_on_c, 0, 81, 75
1, 71160, Note_on_c, 1, 66, 75
1, 71183, Note_on_c, 0, 81, 0
1, 71183, Note_on_c, 1, 66, 0
1, 71184, Note_on_c, 0, 79, 75
1, 71184, Note_on_c, 1, 64, 75
1, 71207, Note_on_c, 0, 79, 0
1, 71207, Note_on_c, 1, 64, 0
1, 71208, Note_on_c, 0, 78, 75
1, 71208, Note_on_c, 1, 62, 75
1, 71231, Note_on_c, 0, 78, 0
1, 71231, Note_on_c, 1, 62, 0
1, 71232, Note_on_c, 0, 76, 75
1, 71232, Note_on_c, 1, 61, 75
1, 71255, Note_on_c, 0, 76, 0
1, 71256, Note_on_c, 0, 78, 75
1, 71277, Note_on_c, 1, 61, 0
1, 71279, Note_on_c, 0, 78, 0
1, 71280, Note_on_c, 0, 79, 75
1, 71303, Note_on_c, 0, 79, 0
1, 71304, Note_on_c, 0, 76, 75
1, 71327, Note_on_c, 0, 76, 0
1, 71328, Note_on_c, 0, 74, 75
1, 71328, Note_on_c, 1, 64, 75
1, 71351, Note_on_c, 0, 74, 0
1, 71352, Note_on_c, 0, 73, 75
1, 71373, Note_on_c, 1, 64, 0
1, 71375, Note_on_c, 0, 73, 0
1, 71376, Note_on_c, 0, 71, 75
1, 71399, Note_on_c, 0, 71, 0
1, 71400, Note_on_c, 0, 73, 75
1, 71423, Note_on_c, 0, 73, 0
1, 71424, Note_on_c, 0, 81, 75
1, 71424, Note_on_c, 1, 66, 75
1, 71447, Note_on_c, 0, 81, 0
1, 71447, Note_on_c, 1, 66, 0
1, 71448, Note_on_c, 0, 83, 75
1, 71448, Note_on_c, 1, 67, 75
1, 71471, Note_on_c, 0, 83, 0
1, 71471, Note_on_c, 1, 67, 0
1, 71472, Note_on_c, 0, 85, 75
1, 71472, Note_on_c, 1, 69, 75
1, 71495, Note_on_c, 0, 85, 0
1, 71495, Note_on_c, 1, 69, 0
1, 71496, Note_on_c, 0, 83, 75
1, 71496, Note_on_c, 1, 67, 75
1, 71519, Note_on_c, 0, 83, 0
1, 71519, Note_on_c, 1, 67, 0
1, 71520, Note_on_c, 0, 81, 75
1, 71520, Note_on_c, 1, 66, 75
1, 71543, Note_on_c, 0, 81, 0
1, 71543, Note_on_c, 1, 66, 0
1, 71544, Note_on_c, 0, 79, 75
1, 71544, Note_on_c, 1, 64, 75
1, 71567, Note_on_c, 0, 79, 0
1, 71567, Note_on_c, 1, 64, 0
1, 71568, Note_on_c, 0, 78, 75
1, 71568, Note_on_c, 1, 62, 75
1, 71591, Note_on_c, 0, 78, 0
1, 71591, Note_on_c, 1, 62, 0
1, 71592, Note_on_c, 0, 76, 75
1, 71592, Note_on_c, 1, 61, 75
1, 71615, Note_on_c, 0, 76, 0
1, 71615, Note_on_c, 1, 61, 0
1, 71616, Note_on_c, 0, 74, 75
1, 71616, Note_on_c, 1, 59, 75
1, 71639, Note_on_c, 0, 74, 0
1, 71640, Note_on_c, 0, 76, 75
1, 71661, Note_on_c, 1, 59, 0
1, 71663, Note_on_c, 0, 76, 0
1, 71664, Note_on_c, 0, 78, 75
1, 71687, Note_on_c, 0, 78, 0
1, 71688, Note_on_c, 0, 74, 75
1, 71711, Note_on_c, 0, 74, 0
1, 71712, Note_on_c, 0, 73, 75
1, 71712, Note_on_c, 1, 62, 75
1, 71735, Note_on_c, 0, 73, 0
1, 71736, Note_on_c, 0, 71, 75
1, 71757, Note_on_c, 1, 62, 0
1, 71759, Note_on_c, 0, 71, 0
1, 71760, Note_on_c, 0, 70, 75
1, 71783, Note_on_c, 0, 70, 0
1, 71784, Note_on_c, 0, 71, 75
1, 71807, Note_on_c, 0, 71, 0
1, 71808, Note_on_c, 0, 79, 75
1, 71808, Note_on_c, 1, 64, 75
1, 71831, Note_on_c, 0, 79, 0
1, 71831, Note_on_c, 1, 64, 0
1, 71832, Note_on_c, 0, 81, 75
1, 71832, Note_on_c, 1, 66, 75
1, 71855, Note_on_c, 0, 81, 0
1, 71855, Note_on_c, 1, 66, 0
1, 71856, Note_on_c, 0, 83, 75
1, 71856, Note_on_c, 1, 67, 75
1, 71879, Note_on_c, 0, 83, 0
1, 71879, Note_on_c, 1, 67, 0
1, 71880, Note_on_c, 0, 81, 75
1, 71880, Note_on_c, 1, 66, 75
1, 71903, Note_on_c, 0, 81, 0
1, 71903, Note_on_c, 1, 66, 0
1, 71904, Note_on_c, 0, 79, 75
1, 71904, Note_on_c, 1, 64, 75
1, 71927, Note_on_c, 0, 79, 0
1, 71927, Note_on_c, 1, 64, 0
1, 71928, Note_on_c, 0, 78, 75
1, 71928, Note_on_c, 1, 62, 75
1, 71951, Note_on_c, 0, 78, 0
1, 71951, Note_on_c, 1, 62, 0
1, 71952, Note_on_c, 0, 76, 75
1, 71952, Note_on_c, 1, 61, 75
1, 71975, Note_on_c, 0, 76, 0
1, 71975, Note_on_c, 1, 61, 0
1, 71976, Note_on_c, 0, 74, 75
1, 71976, Note_on_c, 1, 59, 75
1, 71999, Note_on_c, 0, 74, 0
1, 71999, Note_on_c, 1, 59, 0
1, 72000, Note_on_c, 0, 73, 75
1, 72000, Note_on_c, 1, 57, 75
1, 72023, Note_on_c, 0, 73, 0
1, 72024, Note_on_c, 0, 74, 75
1, 72045, Note_on_c, 1, 57, 0
1, 72047, Note_on_c, 0, 74, 0
1, 72048, Note_on_c, 0, 76, 75
1, 72071, Note_on_c, 0, 76, 0
1, 72072, Note_on_c, 0, 74, 75
1, 72095, Note_on_c, 0, 74, 0
1, 72096, Note_on_c, 0, 73, 75
1, 72096, Note_on_c, 1, 61, 75
1, 72119, Note_on_c, 0, 73, 0
1, 72120, Note_on_c, 0, 71, 75
1, 72141, Note_on_c, 1, 61, 0
1, 72143, Note_on_c, 0, 71, 0
1, 72144, Note_on_c, 0, 69, 75
1, 72167, Note_on_c, 0, 69, 0
1, 72168, Note_on_c, 0, 67, 75
1, 72191, Note_on_c, 0, 67, 0
1, 72192, Note_on_c, 0, 66, 75
1, 72192, Note_on_c, 1, 62, 75
1, 72215, Note_on_c, 0, 66, 0
1, 72216, Note_on_c, 0, 67, 75
1, 72239, Note_on_c, 0, 67, 0
1, 72240, Note_on_c, 0, 69, 75
1, 72263, Note_on_c, 0, 69, 0
1, 72264, Note_on_c, 0, 66, 75
1, 72281, Note_on_c, 1, 62, 0
1, 72287, Note_on_c, 0, 66, 0
1, 72288, Note_on_c, 0, 64, 75
1, 72311, Note_on_c, 0, 64, 0
1, 72312, Note_on_c, 0, 62, 75
1, 72335, Note_on_c, 0, 62, 0
1, 72336, Note_on_c, 0, 61, 75
1, 72359, Note_on_c, 0, 61, 0
1, 72360, Note_on_c, 0, 62, 75
1, 72383, Note_on_c, 0, 62, 0
1, 72384, Note_on_c, 0, 71, 75
1, 72384, Note_on_c, 1, 55, 75
1, 72407, Note_on_c, 0, 71, 0
1, 72408, Note_on_c, 0, 73, 75
1, 72431, Note_on_c, 0, 73, 0
1, 72432, Note_on_c, 0, 74, 75
1, 72455, Note_on_c, 0, 74, 0
1, 72456, Note_on_c, 0, 71, 75
1, 72473, Note_on_c, 1, 55, 0
1, 72479, Note_on_c, 0, 71, 0
1, 72480, Note_on_c, 0, 69, 75
1, 72503, Note_on_c, 0, 69, 0
1, 72504, Note_on_c, 0, 67, 75
1, 72527, Note_on_c, 0, 67, 0
1, 72528, Note_on_c, 0, 66, 75
1, 72551, Note_on_c, 0, 66, 0
1, 72552, Note_on_c, 0, 64, 75
1, 72575, Note_on_c, 0, 64, 0
1, 72576, Note_on_c, 0, 63, 75
1, 72576, Note_on_c, 1, 43, 75
1, 72600, Note_on_c, 0, 63, 0
1, 72600, Note_on_c, 0, 64, 75
1, 72623, Note_on_c, 0, 64, 0
1, 72624, Note_on_c, 0, 66, 75
1, 72648, Note_on_c, 0, 66, 0
1, 72648, Note_on_c, 0, 64, 75
1, 72658, Note_on_c, 0, 64, 0
1, 72665, Note_on_c, 1, 43, 0
1, 72672, Note_on_c, 0, 67, 75
1, 72696, Note_on_c, 0, 67, 0
1, 72696, Note_on_c, 0, 66, 75
1, 72706, Note_on_c, 0, 66, 0
1, 72720, Note_on_c, 0, 69, 75
1, 72744, Note_on_c, 0, 69, 0
1, 72744, Note_on_c, 0, 67, 75
1, 72754, Note_on_c, 0, 67, 0
1, 72768, Note_on_c, 0, 71, 75
1, 72813, Note_on_c, 0, 71, 0
1, 72864, Note_on_c, 0, 79, 75
1, 72888, Note_on_c, 0, 79, 0
1, 72888, Note_on_c, 0, 78, 75
1, 72898, Note_on_c, 0, 78, 0
1, 72912, Note_on_c, 0, 81, 75
1, 72936, Note_on_c, 0, 81, 0
1, 72936, Note_on_c, 0, 79, 75
1, 72946, Note_on_c, 0, 79, 0
1, 72960, Note_on_c, 0, 83, 75
1, 73005, Note_on_c, 0, 83, 0
1, 73056, Note_on_c, 0, 55, 75
1, 73080, Note_on_c, 0, 55, 0
1, 73080, Note_on_c, 0, 54, 75
1, 73090, Note_on_c, 0, 54, 0
1, 73104, Note_on_c, 0, 57, 75
1, 73128, Note_on_c, 0, 57, 0
1, 73128, Note_on_c, 0, 55, 75
1, 73138, Note_on_c, 0, 55, 0
1, 73152, Note_on_c, 0, 59, 75
1, 73197, Note_on_c, 0, 59, 0
1, 73200, Tempo, 1000000
1, 73296, Tempo, 545454
1, 73296, Note_on_c, 0, 63, 84
1, 73308, Note_on_c, 0, 63, 0
1, 73308, Note_on_c, 0, 75, 84
1, 73341, Note_on_c, 0, 75, 0
1, 73344, Note_on_c, 0, 64, 84
1, 73356, Note_on_c, 0, 64, 0
1, 73356, Note_on_c, 0, 76, 84
1, 73389, Note_on_c, 0, 76, 0
1, 73392, Note_on_c, 0, 66, 84
1, 73404, Note_on_c, 0, 66, 0
1, 73404, Note_on_c, 0, 78, 84
1, 73437, Note_on_c, 0, 78, 0
1, 73440, Note_on_c, 0, 67, 84
1, 73452, Note_on_c, 0, 67, 0
1, 73452, Note_on_c, 0, 79, 84
1, 73485, Note_on_c, 0, 79, 0
1, 73488, Note_on_c, 0, 70, 84
1, 73500, Note_on_c, 0, 70, 0
1, 73500, Note_on_c, 0, 82, 84
1, 73533, Note_on_c, 0, 82, 0
1, 73536, Note_on_c, 0, 71, 84
1, 73548, Note_on_c, 0, 71, 0
1, 73548, Note_on_c, 0, 83, 84
1, 73581, Note_on_c, 0, 83, 0
1, 73584, Note_on_c, 0, 73, 84
1, 73596, Note_on_c, 0, 73, 0
1, 73596, Note_on_c, 0, 85, 84
1, 73629, Note_on_c, 0, 85, 0
1, 73632, Note_on_c, 0, 74, 84
1, 73644, Note_on_c, 0, 74, 0
1, 73644, Note_on_c, 0, 86, 84
1, 73677, Note_on_c, 0, 86, 0
1, 73680, Note_on_c, 0, 68, 84
1, 73692, Note_on_c, 0, 68, 0
1, 73692, Note_on_c, 0, 80, 84
1, 73725, Note_on_c, 0, 80, 0
1, 73728, Note_on_c, 0, 69, 84
1, 73728, Note_on_c, 1, 66, 61
1, 73728, Note_on_c, 1, 62, 61
1, 73728, Note_on_c, 1, 57, 61
1, 73740, Note_on_c, 0, 69, 0
1, 73740, Note_on_c, 0, 81, 84
1, 73773, Note_on_c, 1, 66, 0
1, 73773, Note_on_c, 1, 62, 0
1, 73773, Note_on_c, 1, 57, 0
1, 73776, Note_on_c, 1, 66, 61
1, 73776, Note_on_c, 1, 62, 61
1, 73776, Note_on_c, 1, 57, 61
1, 73821, Note_on_c, 1, 66, 0
1, 73821, Note_on_c, 1, 62, 0
1, 73821, Note_on_c, 1, 57, 0
1, 73824, Note_on_c, 1, 66, 61
1, 73824, Note_on_c, 1, 62, 61
1, 73824, Note_on_c, 1, 57, 61
1, 73861, Note_on_c, 0, 81, 0
1, 73869, Note_on_c, 1, 66, 0
1, 73869, Note_on_c, 1, 62, 0
1, 73869, Note_on_c, 1, 57, 0
1, 73872, Note_on_c, 0, 79, 84
1, 73872, Note_on_c, 1, 66, 61
1, 73872, Note_on_c, 1, 62, 61
1, 73872, Note_on_c, 1, 57, 61
1, 73884, Note_on_c, 0, 79, 0
1, 73884, Note_on_c, 0, 78, 84
1, 73896, Note_on_c, 0, 78, 0
1, 73896, Note_on_c, 0, 76, 84
1, 73908, Note_on_c, 0, 76, 0
1, 73908, Note_on_c, 0, 74, 84
1, 73917, Note_on_c, 1, 66, 0
1, 73917, Note_on_c, 1, 62, 0
1, 73917, Note_on_c, 1, 57, 0
1, 73920, Note_on_c, 0, 74, 0
1, 73920, Note_on_c, 0, 76, 84
1, 73920, Note_on_c, 1, 61, 61
1, 73920, Note_on_c, 1, 57, 61
1, 73932, Note_on_c, 0, 76, 0
1, 73933, Note_on_c, 0, 78, 84
1, 73945, Note_on_c, 0, 78, 0
1, 73946, Note_on_c, 0, 76, 84
1, 73958, Note_on_c, 0, 76, 0
1, 73959, Note_on_c, 0, 78, 84
1, 73965, Note_on_c, 1, 61, 0
1, 73965, Note_on_c, 1, 57, 0
1, 73968, Note_on_c, 1, 61, 61
1, 73968, Note_on_c, 1, 57, 61
1, 73971, Note_on_c, 0, 78, 0
1, 73972, Note_on_c, 0, 76, 84
1, 73984, Note_on_c, 0, 76, 0
1, 73985, Note_on_c, 0, 78, 84
1, 73997, Note_on_c, 0, 78, 0
1, 73998, Note_on_c, 0, 76, 84
1, 74010, Note_on_c, 0, 76, 0
1, 74011, Note_on_c, 0, 78, 84
1, 74013, Note_on_c, 1, 61, 0
1, 74013, Note_on_c, 1, 57, 0
1, 74016, Note_on_c, 1, 61, 61
1, 74016, Note_on_c, 1, 57, 61
1, 74023, Note_on_c, 0, 78, 0
1, 74024, Note_on_c, 0, 76, 84
1, 74036, Note_on_c, 0, 76, 0
1, 74037, Note_on_c, 0, 78, 84
1, 74049, Note_on_c, 0, 78, 0
1, 74050, Note_on_c, 0, 76, 84
1, 74061, Note_on_c, 1, 61, 0
1, 74061, Note_on_c, 1, 57, 0
1, 74062, Note_on_c, 0, 76, 0
1, 74063, Note_on_c, 0, 74, 84
1, 74064, Note_on_c, 1, 61, 61
1, 74064, Note_on_c, 1, 57, 61
1, 74088, Note_on_c, 0, 74, 0
1, 74088, Note_on_c, 0, 76, 84
1, 74109, Note_on_c, 1, 61, 0
1, 74109, Note_on_c, 1, 57, 0
1, 74112, Note_on_c, 0, 76, 0
1, 74112, Note_on_c, 0, 74, 84
1, 74112, Note_on_c, 1, 50, 69
1, 74135, Note_on_c, 1, 50, 0
1, 74136, Note_on_c, 1, 62, 69
1, 74159, Note_on_c, 1, 62, 0
1, 74160, Note_on_c, 1, 61, 69
1, 74183, Note_on_c, 1, 61, 0
1, 74184, Note_on_c, 1, 62, 69
1, 74201, Note_on_c, 0, 74, 0
1, 74207, Note_on_c, 1, 62, 0
1, 74208, Note_on_c, 1, 54, 69
1, 74231, Note_on_c, 1, 54, 0
1, 74232, Note_on_c, 1, 62, 69
1, 74255, Note_on_c, 1, 62, 0
1, 74256, Note_on_c, 0, 69, 84
1, 74256, Note_on_c, 1, 61, 69
1, 74279, Note_on_c, 1, 61, 0
1, 74280, Note_on_c, 1, 62, 69
1, 74301, Note_on_c, 0, 69, 0
1, 74303, Note_on_c, 1, 62, 0
1, 74304, Note_on_c, 0, 71, 84
1, 74304, Note_on_c, 1, 55, 69
1, 74316, Note_on_c, 0, 71, 0
1, 74316, Note_on_c, 0, 73, 84
1, 74327, Note_on_c, 1, 55, 0
1, 74328, Note_on_c, 0, 73, 0
1, 74328, Note_on_c, 0, 71, 84
1, 74328, Note_on_c, 1, 62, 69
1, 74349, Note_on_c, 0, 71, 0
1, 74351, Note_on_c, 1, 62, 0
1, 74352, Note_on_c, 0, 69, 84
1, 74352, Note_on_c, 1, 54, 69
1, 74375, Note_on_c, 1, 54, 0
1, 74376, Note_on_c, 1, 62, 69
1, 74397, Note_on_c, 0, 69, 0
1, 74399, Note_on_c, 1, 62, 0
1, 74400, Note_on_c, 0, 71, 84
1, 74400, Note_on_c, 1, 55, 69
1, 74412, Note_on_c, 0, 71, 0
1, 74412, Note_on_c, 0, 73, 84
1, 74423, Note_on_c, 1, 55, 0
1, 74424, Note_on_c, 0, 73, 0
1, 74424, Note_on_c, 0, 71, 84
1, 74424, Note_on_c, 1, 62, 69
1, 74445, Note_on_c, 0, 71, 0
1, 74447, Note_on_c, 1, 62, 0
1, 74448, Note_on_c, 0, 69, 84
1, 74448, Note_on_c, 1, 54, 69
1, 74471, Note_on_c, 1, 54, 0
1, 74472, Note_on_c, 1, 62, 69
1, 74493, Note_on_c, 0, 69, 0
1, 74495, Note_on_c, 1, 62, 0
1, 74496, Note_on_c, 0, 69, 100
1, 74496, Note_on_c, 1, 61, 69
1, 74496, Note_on_c, 1, 52, 69
1, 74508, Note_on_c, 0, 73, 100
1, 74520, Note_on_c, 0, 76, 100
1, 74532, Note_on_c, 0, 79, 100
1, 74585, Note_on_c, 1, 61, 0
1, 74585, Note_on_c, 1, 52, 0
1, 74592, Note_on_c, 0, 79, 0
1, 74592, Note_on_c, 0, 76, 0
1, 74592, Note_on_c, 0, 73, 0
1, 74592, Note_on_c, 0, 69, 0
1, 74640, Note_on_c, 0, 78, 84
1, 74640, Note_on_c, 1, 62, 69
1, 74640, Note_on_c, 1, 50, 69
1, 74685, Note_on_c, 0, 78, 0
1, 74685, Note_on_c, 1, 62, 0
1, 74685, Note_on_c, 1, 50, 0
1, 74688, Note_on_c, 0, 78, 84
1, 74688, Note_on_c, 1, 59, 69
1, 74688, Note_on_c, 1, 55, 69
1, 74700, Note_on_c, 0, 78, 0
1, 74700, Note_on_c, 0, 76, 84
1, 74712, Note_on_c, 0, 76, 0
1, 74712, Note_on_c, 0, 75, 84
1, 74724, Note_on_c, 0, 75, 0
1, 74724, Note_on_c, 0, 76, 84
1, 74733, Note_on_c, 1, 59, 0
1, 74733, Note_on_c, 1, 55, 0
1, 74736, Note_on_c, 0, 76, 0
1, 74736, Note_on_c, 0, 79, 84
1, 74781, Note_on_c, 0, 79, 0
1, 74784, Note_on_c, 0, 71, 84
1, 74784, Note_on_c, 1, 57, 69
1, 74784, Note_on_c, 1, 45, 69
1, 74796, Note_on_c, 0, 71, 0
1, 74796, Note_on_c, 0, 69, 84
1, 74808, Note_on_c, 0, 69, 0
1, 74808, Note_on_c, 0, 68, 84
1, 74820, Note_on_c, 0, 68, 0
1, 74820, Note_on_c, 0, 69, 84
1, 74829, Note_on_c, 1, 57, 0
1, 74829, Note_on_c, 1, 45, 0
1, 74832, Note_on_c, 0, 69, 0
1, 74832, Note_on_c, 0, 73, 84
1, 74832, Note_on_c, 0, 67, 84
1, 74877, Note_on_c, 0, 73, 0
1, 74877, Note_on_c, 0, 67, 0
1, 74880, Note_on_c, 0, 74, 84
1, 74880, Note_on_c, 0, 66, 84
1, 74880, Note_on_c, 1, 50, 69
1, 74903, Note_on_c, 1, 50, 0
1, 74904, Note_on_c, 1, 62, 69
1, 74927, Note_on_c, 1, 62, 0
1, 74928, Note_on_c, 1, 61, 69
1, 74951, Note_on_c, 1, 61, 0
1, 74952, Note_on_c, 1, 62, 69
1, 74969, Note_on_c, 0, 74, 0
1, 74969, Note_on_c, 0, 66, 0
1, 74975, Note_on_c, 1, 62, 0
1, 74976, Note_on_c, 1, 54, 69
1, 74999, Note_on_c, 1, 54, 0
1, 75000, Note_on_c, 1, 62, 69
1, 75023, Note_on_c, 1, 62, 0
1, 75024, Note_on_c, 0, 69, 84
1, 75024, Note_on_c, 1, 61, 69
1, 75047, Note_on_c, 1, 61, 0
1, 75048, Note_on_c, 1, 62, 69
1, 75069, Note_on_c, 0, 69, 0
1, 75071, Note_on_c, 1, 62, 0
1, 75072, Note_on_c, 0, 71, 84
1, 75072, Note_on_c, 1, 55, 69
1, 75084, Note_on_c, 0, 71, 0
1, 75084, Note_on_c, 0, 73, 84
1, 75095, Note_on_c, 1, 55, 0
1, 75096, Note_on_c, 0, 73, 0
1, 75096, Note_on_c, 0, 71, 84
1, 75096, Note_on_c, 1, 62, 69
1, 75117, Note_on_c, 0, 71, 0
1, 75119, Note_on_c, 1, 62, 0
1, 75120, Note_on_c, 0, 69, 84
1, 75120, Note_on_c, 1, 54, 69
1, 75143, Note_on_c, 1, 54, 0
1, 75144, Note_on_c, 1, 62, 69
1, 75165, Note_on_c, 0, 69, 0
1, 75167, Note_on_c, 1, 62, 0
1, 75168, Note_on_c, 0, 71, 84
1, 75168, Note_on_c, 1, 55, 69
1, 75180, Note_on_c, 0, 71, 0
1, 75180, Note_on_c, 0, 73, 84
1, 75191, Note_on_c, 1, 55, 0
1, 75192, Note_on_c, 0, 73, 0
1, 75192, Note_on_c, 0, 71, 84
1, 75192, Note_on_c, 1, 62, 69
1, 75213, Note_on_c, 0, 71, 0
1, 75215, Note_on_c, 1, 62, 0
1, 75216, Note_on_c, 0, 69, 84
1, 75216, Note_on_c, 1, 54, 69
1, 75239, Note_on_c, 1, 54, 0
1, 75240, Note_on_c, 1, 62, 69
1, 75261, Note_on_c, 0, 69, 0
1, 75263, Note_on_c, 1, 62, 0
1, 75264, Note_on_c, 0, 69, 100
1, 75264, Note_on_c, 1, 61, 69
1, 75264, Note_on_c, 1, 52, 69
1, 75276, Note_on_c, 0, 73, 100
1, 75288, Note_on_c, 0, 76, 100
1, 75300, Note_on_c, 0, 79, 100
1, 75353, Note_on_c, 1, 61, 0
1, 75353, Note_on_c, 1, 52, 0
1, 75360, Note_on_c, 0, 79, 0
1, 75360, Note_on_c, 0, 76, 0
1, 75360, Note_on_c, 0, 73, 0
1, 75360, Note_on_c, 0, 69, 0
1, 75408, Note_on_c, 0, 78, 84
1, 75408, Note_on_c, 1, 62, 69
1, 75408, Note_on_c, 1, 50, 69
1, 75453, Note_on_c, 0, 78, 0
1, 75453, Note_on_c, 1, 62, 0
1, 75453, Note_on_c, 1, 50, 0
1, 75456, Note_on_c, 0, 78, 84
1, 75456, Note_on_c, 1, 59, 69
1, 75456, Note_on_c, 1, 55, 69
1, 75468, Note_on_c, 0, 78, 0
1, 75468, Note_on_c, 0, 76, 84
1, 75480, Note_on_c, 0, 76, 0
1, 75480, Note_on_c, 0, 75, 84
1, 75492, Note_on_c, 0, 75, 0
1, 75492, Note_on_c, 0, 76, 84
1, 75501, Note_on_c, 1, 59, 0
1, 75501, Note_on_c, 1, 55, 0
1, 75504, Note_on_c, 0, 76, 0
1, 75504, Note_on_c, 0, 79, 84
1, 75549, Note_on_c, 0, 79, 0
1, 75552, Note_on_c, 0, 71, 84
1, 75552, Note_on_c, 1, 57, 69
1, 75552, Note_on_c, 1, 45, 69
1, 75564, Note_on_c, 0, 71, 0
1, 75564, Note_on_c, 0, 69, 84
1, 75576, Note_on_c, 0, 69, 0
1, 75576, Note_on_c, 0, 68, 84
1, 75588, Note_on_c, 0, 68, 0
1, 75588, Note_on_c, 0, 69, 84
1, 75597, Note_on_c, 1, 57, 0
1, 75597, Note_on_c, 1, 45, 0
1, 75600, Note_on_c, 0, 69, 0
1, 75600, Note_on_c, 0, 73, 84
1, 75600, Note_on_c, 0, 67, 84
1, 75645, Note_on_c, 0, 73, 0
1, 75645, Note_on_c, 0, 67, 0
1, 75648, Note_on_c, 0, 74, 84
1, 75648, Note_on_c, 0, 66, 84
1, 75648, Note_on_c, 1, 50, 69
1, 75648, Note_on_c, 1, 38, 69
1, 75693, Note_on_c, 0, 74, 0
1, 75693, Note_on_c, 0, 66, 0
1, 75693, Note_on_c, 1, 50, 0
1, 75693, Note_on_c, 1, 38, 0
1, 75744, Note_on_c, 1, 55, 84
1, 75744, Note_on_c, 1, 45, 84
1, 75768, Note_on_c, 0, 57, 81
1, 75789, Note_on_c, 1, 55, 0
1, 75789, Note_on_c, 1, 45, 0
1, 75791, Note_on_c, 0, 57, 0
1, 75792, Note_on_c, 0, 61, 78
1, 75815, Note_on_c, 0, 61, 0
1, 75816, Note_on_c, 0, 69, 76
1, 75839, Note_on_c, 0, 69, 0
1, 75840, Note_on_c, 1, 54, 76
1, 75840, Note_on_c, 1, 45, 76
1, 75864, Note_on_c, 0, 57, 71
1, 75885, Note_on_c, 1, 54, 0
1, 75885, Note_on_c, 1, 45, 0
1, 75887, Note_on_c, 0, 57, 0
1, 75888, Note_on_c, 0, 62, 68
1, 75911, Note_on_c, 0, 62, 0
1, 75912, Note_on_c, 0, 69, 65
1, 75935, Note_on_c, 0, 69, 0
1, 75936, Note_on_c, 1, 52, 68
1, 75936, Note_on_c, 1, 45, 68
1, 75960, Note_on_c, 0, 52, 60
1, 75981, Note_on_c, 1, 52, 0
1, 75981, Note_on_c, 1, 45, 0
1, 75983, Note_on_c, 0, 52, 0
1, 75984, Note_on_c, 0, 55, 58
1, 76007, Note_on_c, 0, 55, 0
1, 76008, Note_on_c, 0, 61, 55
1, 76031, Note_on_c, 0, 61, 0
1, 76032, Note_on_c, 0, 62, 53
1, 76032, Note_on_c, 0, 54, 53
1, 76032, Note_on_c, 1, 50, 60
1, 76032, Note_on_c, 1, 38, 60
1, 76121, Note_on_c, 0, 62, 0
1, 76121, Note_on_c, 0, 54, 0
1, 76121, Note_on_c, 1, 50, 0
1, 76121, Note_on_c, 1, 38, 0
1, 76224, Note_on_c, 1, 50, 4
1, 76224, Note_on_c, 1, 38, 4
1, 76313, Note_on_c, 1, 50, 0
1, 76313, Note_on_c, 1, 38, 0
1, 76323, End_track
0, 0, End_of_file