0, 0, Header, 0, 1, 96
1, 0, Start_track
1, 0, Tempo, 1200000
1, 0, Note_on_c, 0, 64, 64
1, 0, Note_on_c, 1, 48, 64
1, 6, Note_on_c, 0, 67, 64
1, 6, Note_on_c, 1, 52, 64
1, 12, Note_on_c, 1, 55, 64
1, 18, Note_on_c, 0, 71, 64
1, 18, Note_on_c, 1, 60, 64
1, 24, Note_on_c, 0, 71, 0
1, 24, Note_on_c, 0, 72, 64
1, 24, Note_on_c, 0, 67, 0
1, 72, Note_on_c, 0, 67, 64
1, 78, Note_on_c, 0, 64, 0
1, 91, Note_on_c, 1, 60, 0
1, 91, Note_on_c, 1, 55, 0
1, 91, Note_on_c, 1, 52, 0
1, 91, Note_on_c, 1, 48, 0
1, 95, Note_on_c, 0, 72, 0
1, 95, Note_on_c, 0, 67, 0
1, 96, Note_on_c, 0, 79, 64
1, 96, Note_on_c, 1, 64, 64
1, 96, Note_on_c, 1, 60, 64
1, 141, Note_on_c, 0, 79, 0
1, 144, Note_on_c, 0, 77, 64
1, 156, Note_on_c, 0, 77, 0
1, 156, Note_on_c, 0, 76, 64
1, 168, Note_on_c, 0, 76, 0
1, 168, Note_on_c, 0, 74, 64
1, 180, Note_on_c, 0, 74, 0
1, 180, Note_on_c, 0, 72, 64
1, 185, Note_on_c, 1, 64, 0
1, 185, Note_on_c, 1, 60, 0
1, 192, Note_on_c, 0, 72, 0
1, 192, Note_on_c, 0, 71, 64
1, 192, Note_on_c, 1, 67, 64
1, 192, Note_on_c, 1, 62, 64
1, 212, Note_on_c, 0, 71, 0
1, 212, Note_on_c, 1, 67, 0
1, 212, Note_on_c, 1, 62, 0
1, 276, Note_on_c, 0, 67, 64
1, 288, Note_on_c, 0, 67, 0
1, 288, Note_on_c, 0, 72, 64
1, 322, Note_on_c, 0, 72, 0
1, 324, Note_on_c, 0, 67, 64
1, 336, Note_on_c, 0, 76, 64
1, 336, Note_on_c, 0, 67, 0
1, 336, Note_on_c, 0, 72, 64
1, 336, Note_on_c, 1, 60, 64
1, 370, Note_on_c, 0, 72, 0
1, 372, Note_on_c, 0, 67, 64
1, 381, Note_on_c, 0, 76, 0
1, 381, Note_on_c, 1, 60, 0
1, 384, Note_on_c, 0, 77, 64
1, 384, Note_on_c, 0, 67, 0
1, 384, Note_on_c, 0, 74, 64
1, 384, Note_on_c, 1, 59, 64
1, 418, Note_on_c, 0, 74, 0
1, 420, Note_on_c, 0, 67, 64
1, 429, Note_on_c, 0, 77, 0
1, 429, Note_on_c, 1, 59, 0
1, 432, Note_on_c, 0, 76, 64
1, 432, Note_on_c, 0, 67, 0
1, 432, Note_on_c, 0, 72, 64
1, 432, Note_on_c, 1, 60, 64
1, 466, Note_on_c, 0, 72, 0
1, 468, Note_on_c, 0, 67, 64
1, 477, Note_on_c, 0, 76, 0
1, 477, Note_on_c, 1, 60, 0
1, 480, Note_on_c, 0, 74, 64
1, 480, Note_on_c, 0, 67, 0
1, 480, Note_on_c, 0, 71, 64
1, 480, Note_on_c, 1, 55, 64
1, 525, Note_on_c, 0, 74, 0
1, 525, Note_on_c, 0, 71, 0
1, 525, Note_on_c, 1, 55, 0
1, 564, Note_on_c, 0, 60, 64
1, 576, Note_on_c, 0, 60, 0
1, 576, Note_on_c, 0, 72, 64
1, 624, Note_on_c, 1, 57, 64
1, 624, Note_on_c, 1, 57, 64
1, 654, Note_on_c, 0, 72, 0
1, 660, Note_on_c, 0, 74, 64
1, 666, Note_on_c, 0, 74, 0
1, 666, Note_on_c, 0, 72, 64
1, 669, Note_on_c, 1, 57, 0
1, 669, Note_on_c, 1, 57, 0
1, 672, Note_on_c, 0, 72, 0
1, 672, Note_on_c, 0, 71, 64
1, 672, Note_on_c, 1, 55, 64
1, 672, Note_on_c, 1, 55, 64
1, 706, Note_on_c, 0, 71, 0
1, 708, Note_on_c, 0, 72, 64
1, 714, Note_on_c, 0, 72, 0
1, 714, Note_on_c, 0, 71, 64
1, 717, Note_on_c, 1, 55, 0
1, 717, Note_on_c, 1, 55, 0
1, 720, Note_on_c, 0, 71, 0
1, 720, Note_on_c, 0, 69, 64
1, 720, Note_on_c, 1, 53, 64
1, 720, Note_on_c, 1, 53, 64
1, 754, Note_on_c, 0, 69, 0
1, 756, Note_on_c, 0, 71, 64
1, 762, Note_on_c, 0, 71, 0
1, 762, Note_on_c, 0, 69, 64
1, 765, Note_on_c, 1, 53, 0
1, 765, Note_on_c, 1, 53, 0
1, 768, Note_on_c, 0, 69, 0
1, 768, Note_on_c, 0, 67, 64
1, 768, Note_on_c, 1, 52, 64
1, 792, Note_on_c, 0, 67, 0
1, 792, Note_on_c, 0, 72, 64
1, 815, Note_on_c, 0, 72, 0
1, 816, Note_on_c, 0, 76, 64
1, 816, Note_on_c, 1, 60, 64
1, 826, Note_on_c, 0, 76, 0
1, 840, Note_on_c, 0, 79, 64
1, 850, Note_on_c, 0, 79, 0
1, 857, Note_on_c, 1, 52, 0
1, 864, Note_on_c, 0, 79, 64
1, 864, Note_on_c, 1, 53, 64
1, 887, Note_on_c, 0, 79, 0
1, 888, Note_on_c, 0, 69, 64
1, 909, Note_on_c, 1, 60, 0
1, 911, Note_on_c, 0, 69, 0
1, 912, Note_on_c, 0, 77, 64
1, 912, Note_on_c, 1, 62, 64
1, 935, Note_on_c, 0, 77, 0
1, 936, Note_on_c, 0, 74, 64
1, 953, Note_on_c, 1, 53, 0
1, 957, Note_on_c, 1, 62, 0
1, 959, Note_on_c, 0, 74, 0
1, 960, Note_on_c, 0, 72, 64
1, 960, Note_on_c, 1, 64, 64
1, 960, Note_on_c, 1, 55, 64
1, 1005, Note_on_c, 0, 72, 0
1, 1008, Note_on_c, 0, 72, 64
1, 1049, Note_on_c, 1, 64, 0
1, 1056, Note_on_c, 1, 65, 64
1, 1068, Note_on_c, 0, 72, 0
1, 1068, Note_on_c, 0, 71, 64
1, 1080, Note_on_c, 0, 71, 0
1, 1080, Note_on_c, 0, 77, 64
1, 1092, Note_on_c, 0, 77, 0
1, 1092, Note_on_c, 0, 76, 64
1, 1104, Note_on_c, 0, 76, 0
1, 1104, Note_on_c, 0, 77, 64
1, 1116, Note_on_c, 0, 77, 0
1, 1116, Note_on_c, 0, 74, 64
1, 1128, Note_on_c, 0, 74, 0
1, 1128, Note_on_c, 0, 72, 64
1, 1137, Note_on_c, 1, 55, 0
1, 1140, Note_on_c, 0, 72, 0
1, 1140, Note_on_c, 0, 71, 64
1, 1145, Note_on_c, 1, 65, 0
1, 1152, Note_on_c, 0, 71, 0
1, 1152, Note_on_c, 0, 71, 64
1, 1152, Note_on_c, 1, 65, 64
1, 1152, Note_on_c, 1, 60, 64
1, 1219, Note_on_c, 0, 71, 0
1, 1224, Note_on_c, 0, 74, 64
1, 1236, Note_on_c, 0, 74, 0
1, 1236, Note_on_c, 0, 72, 64
1, 1241, Note_on_c, 1, 65, 0
1, 1248, Note_on_c, 0, 72, 0
1, 1248, Note_on_c, 0, 72, 64
1, 1248, Note_on_c, 1, 64, 64
1, 1268, Note_on_c, 0, 72, 0
1, 1293, Note_on_c, 1, 64, 0
1, 1293, Note_on_c, 1, 60, 0
1, 1296, Note_on_c, 1, 36, 64
1, 1316, Note_on_c, 1, 36, 0
1, 1344, Note_on_c, 1, 40, 64
1, 1364, Note_on_c, 1, 40, 0
1, 1392, Note_on_c, 1, 43, 64
1, 1412, Note_on_c, 1, 43, 0
1, 1440, Note_on_c, 0, 64, 64
1, 1440, Note_on_c, 1, 48, 64
1, 1446, Note_on_c, 0, 67, 64
1, 1446, Note_on_c, 1, 52, 64
1, 1452, Note_on_c, 0, 72, 64
1, 1452, Note_on_c, 1, 55, 64
1, 1458, Note_on_c, 1, 60, 64
1, 1488, Note_on_c, 0, 67, 64
1, 1494, Note_on_c, 0, 67, 0
1, 1494, Note_on_c, 0, 69, 64
1, 1500, Note_on_c, 0, 69, 0
1, 1500, Note_on_c, 0, 67, 64
1, 1506, Note_on_c, 0, 67, 0
1, 1506, Note_on_c, 0, 66, 64
1, 1512, Note_on_c, 0, 66, 0
1, 1524, Note_on_c, 0, 67, 64
1, 1529, Note_on_c, 0, 67, 0
1, 1531, Note_on_c, 1, 60, 0
1, 1531, Note_on_c, 1, 55, 0
1, 1531, Note_on_c, 1, 52, 0
1, 1531, Note_on_c, 1, 48, 0
1, 1536, Note_on_c, 0, 79, 64
1, 1536, Note_on_c, 1, 64, 64
1, 1536, Note_on_c, 1, 60, 64
1, 1542, Note_on_c, 0, 72, 0
1, 1542, Note_on_c, 0, 67, 0
1, 1542, Note_on_c, 0, 64, 0
1, 1560, Note_on_c, 0, 79, 0
1, 1560, Note_on_c, 0, 81, 64
1, 1572, Note_on_c, 0, 81, 0
1, 1572, Note_on_c, 0, 79, 64
1, 1584, Note_on_c, 0, 79, 0
1, 1584, Note_on_c, 0, 77, 64
1, 1596, Note_on_c, 0, 77, 0
1, 1596, Note_on_c, 0, 76, 64
1, 1608, Note_on_c, 0, 76, 0
1, 1608, Note_on_c, 0, 74, 64
1, 1620, Note_on_c, 0, 74, 0
1, 1620, Note_on_c, 0, 72, 64
1, 1632, Note_on_c, 0, 72, 0
1, 1632, Note_on_c, 0, 71, 64
1, 1632, Note_on_c, 1, 64, 0
1, 1632, Note_on_c, 1, 60, 0
1, 1632, Note_on_c, 1, 65, 64
1, 1632, Note_on_c, 1, 62, 64
1, 1652, Note_on_c, 0, 71, 0
1, 1652, Note_on_c, 1, 65, 0
1, 1652, Note_on_c, 1, 62, 0
1, 1716, Note_on_c, 0, 67, 64
1, 1728, Note_on_c, 0, 67, 0
1, 1728, Note_on_c, 0, 72, 64
1, 1762, Note_on_c, 0, 72, 0
1, 1764, Note_on_c, 0, 67, 64
1, 1776, Note_on_c, 0, 76, 64
1, 1776, Note_on_c, 0, 67, 0
1, 1776, Note_on_c, 0, 72, 64
1, 1776, Note_on_c, 1, 60, 64
1, 1810, Note_on_c, 0, 72, 0
1, 1812, Note_on_c, 0, 67, 64
1, 1821, Note_on_c, 0, 76, 0
1, 1821, Note_on_c, 1, 60, 0
1, 1824, Note_on_c, 0, 77, 64
1, 1824, Note_on_c, 0, 67, 0
1, 1824, Note_on_c, 0, 74, 64
1, 1824, Note_on_c, 1, 59, 64
1, 1858, Note_on_c, 0, 74, 0
1, 1860, Note_on_c, 0, 67, 64
1, 1869, Note_on_c, 0, 77, 0
1, 1869, Note_on_c, 1, 59, 0
1, 1872, Note_on_c, 0, 76, 64
1, 1872, Note_on_c, 0, 67, 0
1, 1872, Note_on_c, 0, 72, 64
1, 1872, Note_on_c, 1, 60, 64
1, 1906, Note_on_c, 0, 72, 0
1, 1908, Note_on_c, 0, 67, 64
1, 1917, Note_on_c, 0, 76, 0
1, 1917, Note_on_c, 1, 60, 0
1, 1920, Note_on_c, 0, 74, 64
1, 1920, Note_on_c, 0, 67, 0
1, 1920, Note_on_c, 0, 71, 64
1, 1920, Note_on_c, 1, 55, 64
1, 1965, Note_on_c, 0, 74, 0
1, 1965, Note_on_c, 0, 71, 0
1, 1965, Note_on_c, 1, 55, 0
1, 2004, Note_on_c, 0, 60, 64
1, 2016, Note_on_c, 0, 60, 0
1, 2016, Note_on_c, 0, 74, 64
1, 2016, Note_on_c, 1, 55, 64
1, 2022, Note_on_c, 0, 74, 0
1, 2022, Note_on_c, 0, 73, 64
1, 2028, Note_on_c, 0, 73, 0
1, 2028, Note_on_c, 0, 74, 64
1, 2031, Note_on_c, 1, 55, 0
1, 2032, Note_on_c, 1, 59, 64
1, 2047, Note_on_c, 1, 59, 0
1, 2048, Note_on_c, 1, 62, 64
1, 2063, Note_on_c, 1, 62, 0
1, 2064, Note_on_c, 1, 55, 64
1, 2079, Note_on_c, 1, 55, 0
1, 2080, Note_on_c, 1, 59, 64
1, 2085, Note_on_c, 0, 74, 0
1, 2088, Note_on_c, 0, 71, 64
1, 2095, Note_on_c, 1, 59, 0
1, 2096, Note_on_c, 1, 62, 64
1, 2111, Note_on_c, 0, 71, 0
1, 2111, Note_on_c, 1, 62, 0
1, 2112, Note_on_c, 0, 83, 64
1, 2112, Note_on_c, 1, 55, 64
1, 2119, Note_on_c, 0, 83, 0
1, 2127, Note_on_c, 1, 55, 0
1, 2128, Note_on_c, 0, 86, 64
1, 2128, Note_on_c, 1, 59, 64
1, 2135, Note_on_c, 0, 86, 0
1, 2143, Note_on_c, 1, 59, 0
1, 2144, Note_on_c, 0, 84, 64
1, 2144, Note_on_c, 1, 62, 64
1, 2151, Note_on_c, 0, 84, 0
1, 2159, Note_on_c, 1, 62, 0
1, 2160, Note_on_c, 0, 83, 64
1, 2160, Note_on_c, 1, 55, 64
1, 2167, Note_on_c, 0, 83, 0
1, 2175, Note_on_c, 1, 55, 0
1, 2176, Note_on_c, 0, 81, 64
1, 2176, Note_on_c, 1, 59, 64
1, 2183, Note_on_c, 0, 81, 0
1, 2191, Note_on_c, 1, 59, 0
1, 2192, Note_on_c, 0, 79, 64
1, 2192, Note_on_c, 1, 62, 64
1, 2199, Note_on_c, 0, 79, 0
1, 2207, Note_on_c, 1, 62, 0
1, 2208, Note_on_c, 0, 78, 64
1, 2208, Note_on_c, 1, 55, 64
1, 2215, Note_on_c, 0, 78, 0
1, 2223, Note_on_c, 1, 55, 0
1, 2224, Note_on_c, 0, 76, 64
1, 2224, Note_on_c, 1, 59, 64
1, 2231, Note_on_c, 0, 76, 0
1, 2239, Note_on_c, 1, 59, 0
1, 2240, Note_on_c, 0, 74, 64
1, 2240, Note_on_c, 1, 62, 64
1, 2247, Note_on_c, 0, 74, 0
1, 2255, Note_on_c, 1, 62, 0
1, 2256, Note_on_c, 0, 72, 64
1, 2256, Note_on_c, 1, 55, 64
1, 2263, Note_on_c, 0, 72, 0
1, 2271, Note_on_c, 1, 55, 0
1, 2272, Note_on_c, 0, 71, 64
1, 2272, Note_on_c, 1, 59, 64
1, 2279, Note_on_c, 0, 71, 0
1, 2287, Note_on_c, 1, 59, 0
1, 2288, Note_on_c, 0, 69, 64
1, 2288, Note_on_c, 1, 62, 64
1, 2295, Note_on_c, 0, 69, 0
1, 2303, Note_on_c, 1, 62, 0
1, 2304, Note_on_c, 0, 67, 64
1, 2304, Note_on_c, 1, 57, 64
1, 2319, Note_on_c, 1, 57, 0
1, 2320, Note_on_c, 1, 60, 64
1, 2335, Note_on_c, 1, 60, 0
1, 2336, Note_on_c, 1, 62, 64
1, 2351, Note_on_c, 1, 62, 0
1, 2352, Note_on_c, 1, 57, 64
1, 2367, Note_on_c, 1, 57, 0
1, 2368, Note_on_c, 1, 60, 64
1, 2383, Note_on_c, 1, 60, 0
1, 2384, Note_on_c, 1, 62, 64
1, 2393, Note_on_c, 0, 67, 0
1, 2399, Note_on_c, 1, 62, 0
1, 2400, Note_on_c, 0, 66, 64
1, 2400, Note_on_c, 1, 57, 64
1, 2406, Note_on_c, 0, 66, 0
1, 2406, Note_on_c, 0, 67, 64
1, 2412, Note_on_c, 0, 67, 0
1, 2412, Note_on_c, 0, 66, 64
1, 2415, Note_on_c, 1, 57, 0
1, 2416, Note_on_c, 1, 60, 64
1, 2431, Note_on_c, 1, 60, 0
1, 2432, Note_on_c, 1, 62, 64
1, 2447, Note_on_c, 1, 62, 0
1, 2448, Note_on_c, 1, 57, 64
1, 2463, Note_on_c, 1, 57, 0
1, 2464, Note_on_c, 1, 60, 64
1, 2479, Note_on_c, 1, 60, 0
1, 2480, Note_on_c, 1, 62, 64
1, 2495, Note_on_c, 1, 62, 0
1, 2496, Note_on_c, 1, 57, 64
1, 2511, Note_on_c, 1, 57, 0
1, 2512, Note_on_c, 1, 60, 64
1, 2527, Note_on_c, 1, 60, 0
1, 2528, Note_on_c, 1, 62, 64
1, 2541, Note_on_c, 0, 66, 0
1, 2543, Note_on_c, 1, 62, 0
1, 2544, Note_on_c, 0, 67, 64
1, 2544, Note_on_c, 1, 57, 64
1, 2549, Note_on_c, 0, 67, 0
1, 2549, Note_on_c, 0, 69, 64
1, 2554, Note_on_c, 0, 69, 0
1, 2554, Note_on_c, 0, 71, 64
1, 2559, Note_on_c, 0, 71, 0
1, 2559, Note_on_c, 0, 72, 64
1, 2559, Note_on_c, 1, 57, 0
1, 2560, Note_on_c, 1, 60, 64
1, 2564, Note_on_c, 0, 72, 0
1, 2564, Note_on_c, 0, 74, 64
1, 2569, Note_on_c, 0, 74, 0
1, 2569, Note_on_c, 0, 76, 64
1, 2574, Note_on_c, 0, 76, 0
1, 2574, Note_on_c, 0, 78, 64
1, 2575, Note_on_c, 1, 60, 0
1, 2576, Note_on_c, 1, 62, 64
1, 2579, Note_on_c, 0, 78, 0
1, 2579, Note_on_c, 0, 79, 64
1, 2584, Note_on_c, 0, 79, 0
1, 2584, Note_on_c, 0, 81, 64
1, 2588, Note_on_c, 0, 81, 0
1, 2588, Note_on_c, 0, 83, 64
1, 2591, Note_on_c, 1, 62, 0
1, 2592, Note_on_c, 0, 83, 0
1, 2592, Note_on_c, 0, 84, 64
1, 2592, Note_on_c, 1, 54, 64
1, 2607, Note_on_c, 1, 54, 0
1, 2608, Note_on_c, 1, 57, 64
1, 2623, Note_on_c, 1, 57, 0
1, 2624, Note_on_c, 1, 62, 64
1, 2639, Note_on_c, 1, 62, 0
1, 2640, Note_on_c, 1, 54, 64
1, 2655, Note_on_c, 1, 54, 0
1, 2656, Note_on_c, 1, 57, 64
1, 2659, Note_on_c, 0, 84, 0
1, 2664, Note_on_c, 0, 81, 64
1, 2671, Note_on_c, 1, 57, 0
1, 2672, Note_on_c, 1, 62, 64
1, 2676, Note_on_c, 0, 81, 0
1, 2676, Note_on_c, 0, 83, 64
1, 2687, Note_on_c, 1, 62, 0
1, 2688, Note_on_c, 0, 83, 0
1, 2688, Note_on_c, 0, 84, 64
1, 2688, Note_on_c, 1, 54, 64
1, 2695, Note_on_c, 0, 84, 0
1, 2703, Note_on_c, 1, 54, 0
1, 2704, Note_on_c, 0, 88, 64
1, 2704, Note_on_c, 1, 57, 64
1, 2719, Note_on_c, 1, 57, 0
1, 2720, Note_on_c, 0, 88, 0
1, 2720, Note_on_c, 0, 86, 64
1, 2720, Note_on_c, 1, 62, 64
1, 2735, Note_on_c, 0, 86, 0
1, 2735, Note_on_c, 1, 62, 0
1, 2736, Note_on_c, 0, 84, 64
1, 2736, Note_on_c, 1, 54, 64
1, 2743, Note_on_c, 0, 84, 0
1, 2751, Note_on_c, 1, 54, 0
1, 2752, Note_on_c, 0, 83, 64
1, 2752, Note_on_c, 1, 57, 64
1, 2767, Note_on_c, 1, 57, 0
1, 2768, Note_on_c, 0, 83, 0
1, 2768, Note_on_c, 0, 81, 64
1, 2768, Note_on_c, 1, 62, 64
1, 2783, Note_on_c, 0, 81, 0
1, 2783, Note_on_c, 1, 62, 0
1, 2784, Note_on_c, 0, 79, 64
1, 2784, Note_on_c, 1, 54, 64
1, 2791, Note_on_c, 0, 79, 0
1, 2799, Note_on_c, 1, 54, 0
1, 2800, Note_on_c, 0, 78, 64
1, 2800, Note_on_c, 1, 57, 64
1, 2815, Note_on_c, 1, 57, 0
1, 2816, Note_on_c, 0, 78, 0
1, 2816, Note_on_c, 0, 76, 64
1, 2816, Note_on_c, 1, 62, 64
1, 2831, Note_on_c, 0, 76, 0
1, 2831, Note_on_c, 1, 62, 0
1, 2832, Note_on_c, 0, 74, 64
1, 2832, Note_on_c, 1, 54, 64
1, 2847, Note_on_c, 0, 74, 0
1, 2847, Note_on_c, 1, 54, 0
1, 2848, Note_on_c, 0, 72, 64
1, 2848, Note_on_c, 1, 57, 64
1, 2863, Note_on_c, 0, 72, 0
1, 2863, Note_on_c, 1, 57, 0
1, 2864, Note_on_c, 0, 81, 64
1, 2864, Note_on_c, 1, 62, 64
1, 2879, Note_on_c, 0, 81, 0
1, 2879, Note_on_c, 1, 62, 0
1, 2880, Note_on_c, 0, 74, 64
1, 2880, Note_on_c, 1, 55, 64
1, 2895, Note_on_c, 1, 55, 0
1, 2896, Note_on_c, 1, 59, 64
1, 2911, Note_on_c, 1, 59, 0
1, 2912, Note_on_c, 1, 62, 64
1, 2925, Note_on_c, 0, 74, 0
1, 2927, Note_on_c, 1, 62, 0
1, 2928, Note_on_c, 0, 72, 64
1, 2928, Note_on_c, 1, 55, 64
1, 2934, Note_on_c, 0, 72, 0
1, 2934, Note_on_c, 0, 74, 64
1, 2940, Note_on_c, 0, 74, 0
1, 2940, Note_on_c, 0, 72, 64
1, 2943, Note_on_c, 1, 55, 0
1, 2944, Note_on_c, 1, 59, 64
1, 2959, Note_on_c, 1, 59, 0
1, 2960, Note_on_c, 1, 62, 64
1, 2974, Note_on_c, 0, 72, 0
1, 2975, Note_on_c, 1, 62, 0
1, 2976, Note_on_c, 0, 71, 64
1, 2976, Note_on_c, 1, 55, 64
1, 2991, Note_on_c, 1, 55, 0
1, 2992, Note_on_c, 1, 59, 64
1, 3007, Note_on_c, 1, 59, 0
1, 3008, Note_on_c, 1, 62, 64
1, 3023, Note_on_c, 1, 62, 0
1, 3024, Note_on_c, 1, 55, 64
1, 3039, Note_on_c, 1, 55, 0
1, 3040, Note_on_c, 1, 59, 64
1, 3055, Note_on_c, 1, 59, 0
1, 3056, Note_on_c, 1, 62, 64
1, 3065, Note_on_c, 0, 71, 0
1, 3071, Note_on_c, 1, 62, 0
1, 3072, Note_on_c, 1, 55, 64
1, 3117, Note_on_c, 1, 55, 0
1, 3120, Note_on_c, 0, 66, 64
1, 3126, Note_on_c, 0, 66, 0
1, 3126, Note_on_c, 0, 67, 64
1, 3132, Note_on_c, 0, 67, 0
1, 3132, Note_on_c, 0, 69, 64
1, 3138, Note_on_c, 0, 69, 0
1, 3138, Note_on_c, 0, 71, 64
1, 3144, Note_on_c, 0, 71, 0
1, 3144, Note_on_c, 0, 72, 64
1, 3150, Note_on_c, 0, 72, 0
1, 3150, Note_on_c, 0, 74, 64
1, 3156, Note_on_c, 0, 74, 0
1, 3156, Note_on_c, 0, 76, 64
1, 3162, Note_on_c, 0, 76, 0
1, 3162, Note_on_c, 0, 78, 64
1, 3168, Note_on_c, 0, 78, 0
1, 3168, Note_on_c, 0, 79, 64
1, 3168, Note_on_c, 1, 52, 64
1, 3183, Note_on_c, 1, 52, 0
1, 3184, Note_on_c, 1, 55, 64
1, 3199, Note_on_c, 1, 55, 0
1, 3200, Note_on_c, 1, 59, 64
1, 3215, Note_on_c, 1, 59, 0
1, 3216, Note_on_c, 1, 60, 64
1, 3231, Note_on_c, 1, 60, 0
1, 3232, Note_on_c, 1, 62, 64
1, 3247, Note_on_c, 1, 62, 0
1, 3248, Note_on_c, 1, 63, 64
1, 3263, Note_on_c, 1, 63, 0
1, 3264, Note_on_c, 0, 74, 64
1, 3264, Note_on_c, 1, 64, 64
1, 3268, Note_on_c, 0, 74, 0
1, 3268, Note_on_c, 0, 72, 64
1, 3280, Note_on_c, 0, 72, 0
1, 3280, Note_on_c, 0, 71, 64
1, 3295, Note_on_c, 0, 71, 0
1, 3296, Note_on_c, 0, 72, 64
1, 3311, Note_on_c, 0, 72, 0
1, 3312, Note_on_c, 0, 76, 64
1, 3327, Note_on_c, 0, 76, 0
1, 3328, Note_on_c, 0, 74, 64
1, 3343, Note_on_c, 0, 74, 0
1, 3344, Note_on_c, 0, 72, 64
1, 3359, Note_on_c, 0, 72, 0
1, 3360, Note_on_c, 0, 79, 0
1, 3360, Note_on_c, 0, 78, 64
1, 3360, Note_on_c, 0, 72, 64
1, 3360, Note_on_c, 1, 64, 0
1, 3360, Note_on_c, 1, 62, 64
1, 3375, Note_on_c, 0, 72, 0
1, 3376, Note_on_c, 0, 70, 64
1, 3391, Note_on_c, 0, 70, 0
1, 3392, Note_on_c, 0, 71, 64
1, 3407, Note_on_c, 0, 71, 0
1, 3408, Note_on_c, 0, 74, 64
1, 3423, Note_on_c, 0, 74, 0
1, 3424, Note_on_c, 0, 72, 64
1, 3439, Note_on_c, 0, 72, 0
1, 3440, Note_on_c, 0, 71, 64
1, 3449, Note_on_c, 0, 78, 0
1, 3449, Note_on_c, 1, 62, 0
1, 3455, Note_on_c, 0, 71, 0
1, 3456, Note_on_c, 0, 76, 64
1, 3456, Note_on_c, 0, 71, 64
1, 3456, Note_on_c, 1, 48, 64
1, 3471, Note_on_c, 1, 48, 0
1, 3472, Note_on_c, 1, 52, 64
1, 3487, Note_on_c, 1, 52, 0
1, 3488, Note_on_c, 1, 56, 64
1, 3503, Note_on_c, 1, 56, 0
1, 3504, Note_on_c, 1, 57, 64
1, 3519, Note_on_c, 1, 57, 0
1, 3520, Note_on_c, 1, 58, 64
1, 3535, Note_on_c, 1, 58, 0
1, 3536, Note_on_c, 1, 59, 64
1, 3545, Note_on_c, 0, 71, 0
1, 3551, Note_on_c, 1, 59, 0
1, 3552, Note_on_c, 0, 71, 64
1, 3552, Note_on_c, 1, 60, 64
1, 3556, Note_on_c, 0, 71, 0
1, 3556, Note_on_c, 0, 69, 64
1, 3568, Note_on_c, 0, 69, 0
1, 3568, Note_on_c, 0, 68, 64
1, 3583, Note_on_c, 0, 68, 0
1, 3584, Note_on_c, 0, 69, 64
1, 3599, Note_on_c, 0, 69, 0
1, 3600, Note_on_c, 0, 72, 64
1, 3615, Note_on_c, 0, 72, 0
1, 3616, Note_on_c, 0, 71, 64
1, 3631, Note_on_c, 0, 71, 0
1, 3632, Note_on_c, 0, 69, 64
1, 3647, Note_on_c, 0, 69, 0
1, 3648, Note_on_c, 0, 76, 0
1, 3648, Note_on_c, 0, 74, 64
1, 3648, Note_on_c, 0, 69, 64
1, 3648, Note_on_c, 1, 60, 0
1, 3648, Note_on_c, 1, 59, 64
1, 3663, Note_on_c, 0, 69, 0
1, 3664, Note_on_c, 0, 66, 64
1, 3679, Note_on_c, 0, 66, 0
1, 3680, Note_on_c, 0, 67, 64
1, 3695, Note_on_c, 0, 67, 0
1, 3696, Note_on_c, 0, 71, 64
1, 3711, Note_on_c, 0, 71, 0
1, 3712, Note_on_c, 0, 69, 64
1, 3727, Note_on_c, 0, 69, 0
1, 3728, Note_on_c, 0, 67, 64
1, 3737, Note_on_c, 0, 74, 0
1, 3737, Note_on_c, 1, 59, 0
1, 3743, Note_on_c, 0, 67, 0
1, 3744, Note_on_c, 0, 73, 64
1, 3744, Note_on_c, 1, 57, 64
1, 3760, Note_on_c, 0, 67, 64
1, 3775, Note_on_c, 0, 67, 0
1, 3776, Note_on_c, 0, 69, 64
1, 3791, Note_on_c, 0, 69, 0
1, 3792, Note_on_c, 0, 70, 64
1, 3807, Note_on_c, 0, 70, 0
1, 3808, Note_on_c, 0, 69, 64
1, 3823, Note_on_c, 0, 69, 0
1, 3824, Note_on_c, 0, 67, 64
1, 3838, Note_on_c, 0, 73, 0
1, 3839, Note_on_c, 0, 67, 0
1, 3840, Note_on_c, 0, 73, 64
1, 3840, Note_on_c, 1, 64, 64
1, 3856, Note_on_c, 0, 67, 64
1, 3871, Note_on_c, 0, 67, 0
1, 3872, Note_on_c, 0, 69, 64
1, 3887, Note_on_c, 0, 69, 0
1, 3888, Note_on_c, 0, 70, 64
1, 3903, Note_on_c, 0, 70, 0
1, 3904, Note_on_c, 0, 69, 64
1, 3919, Note_on_c, 0, 69, 0
1, 3920, Note_on_c, 0, 67, 64
1, 3929, Note_on_c, 0, 73, 0
1, 3929, Note_on_c, 1, 64, 0
1, 3935, Note_on_c, 0, 67, 0
1, 3936, Note_on_c, 0, 76, 64
1, 3936, Note_on_c, 1, 61, 64
1, 3952, Note_on_c, 0, 67, 64
1, 3967, Note_on_c, 0, 67, 0
1, 3968, Note_on_c, 0, 69, 64
1, 3983, Note_on_c, 0, 69, 0
1, 3984, Note_on_c, 0, 70, 64
1, 3999, Note_on_c, 0, 70, 0
1, 4000, Note_on_c, 0, 69, 64
1, 4009, Note_on_c, 1, 57, 0
1, 4015, Note_on_c, 0, 69, 0
1, 4016, Note_on_c, 0, 67, 64
1, 4025, Note_on_c, 0, 76, 0
1, 4025, Note_on_c, 1, 61, 0
1, 4031, Note_on_c, 0, 67, 0
1, 4032, Note_on_c, 0, 72, 64
1, 4032, Note_on_c, 1, 50, 64
1, 4048, Note_on_c, 0, 66, 64
1, 4063, Note_on_c, 0, 66, 0
1, 4064, Note_on_c, 0, 67, 64
1, 4079, Note_on_c, 0, 67, 0
1, 4080, Note_on_c, 0, 69, 64
1, 4095, Note_on_c, 0, 69, 0
1, 4096, Note_on_c, 0, 67, 64
1, 4111, Note_on_c, 0, 67, 0
1, 4112, Note_on_c, 0, 66, 64
1, 4126, Note_on_c, 0, 72, 0
1, 4127, Note_on_c, 0, 66, 0
1, 4128, Note_on_c, 0, 72, 64
1, 4128, Note_on_c, 1, 63, 64
1, 4144, Note_on_c, 0, 66, 64
1, 4159, Note_on_c, 0, 66, 0
1, 4160, Note_on_c, 0, 67, 64
1, 4175, Note_on_c, 0, 67, 0
1, 4176, Note_on_c, 0, 69, 64
1, 4191, Note_on_c, 0, 69, 0
1, 4192, Note_on_c, 0, 67, 64
1, 4207, Note_on_c, 0, 67, 0
1, 4208, Note_on_c, 0, 66, 64
1, 4209, Note_on_c, 1, 50, 0
1, 4217, Note_on_c, 0, 72, 0
1, 4223, Note_on_c, 0, 66, 0
1, 4224, Note_on_c, 0, 72, 64
1, 4224, Note_on_c, 1, 63, 0
1, 4224, Note_on_c, 1, 57, 64
1, 4224, Note_on_c, 1, 54, 64
1, 4224, Note_on_c, 1, 50, 64
1, 4239, Note_on_c, 0, 72, 0
1, 4240, Note_on_c, 0, 60, 64
1, 4255, Note_on_c, 0, 60, 0
1, 4256, Note_on_c, 0, 62, 64
1, 4271, Note_on_c, 0, 62, 0
1, 4272, Note_on_c, 0, 64, 64
1, 4287, Note_on_c, 0, 64, 0
1, 4288, Note_on_c, 0, 62, 64
1, 4303, Note_on_c, 0, 62, 0
1, 4304, Note_on_c, 0, 60, 64
1, 4313, Note_on_c, 1, 57, 0
1, 4313, Note_on_c, 1, 54, 0
1, 4313, Note_on_c, 1, 50, 0
1, 4319, Note_on_c, 0, 60, 0
1, 4320, Note_on_c, 1, 59, 64
1, 4320, Note_on_c, 1, 55, 64
1, 4336, Note_on_c, 0, 86, 64
1, 4336, Note_on_c, 0, 83, 64
1, 4351, Note_on_c, 0, 86, 0
1, 4351, Note_on_c, 0, 83, 0
1, 4352, Note_on_c, 0, 84, 64
1, 4352, Note_on_c, 0, 81, 64
1, 4367, Note_on_c, 0, 84, 0
1, 4367, Note_on_c, 0, 81, 0
1, 4368, Note_on_c, 0, 83, 64
1, 4368, Note_on_c, 0, 79, 64
1, 4375, Note_on_c, 0, 83, 0
1, 4375, Note_on_c, 0, 79, 0
1, 4384, Note_on_c, 0, 83, 64
1, 4384, Note_on_c, 0, 79, 64
1, 4399, Note_on_c, 0, 83, 0
1, 4399, Note_on_c, 0, 79, 0
1, 4400, Note_on_c, 0, 81, 64
1, 4400, Note_on_c, 0, 78, 64
1, 4409, Note_on_c, 1, 59, 0
1, 4409, Note_on_c, 1, 55, 0
1, 4415, Note_on_c, 0, 81, 0
1, 4415, Note_on_c, 0, 78, 0
1, 4416, Note_on_c, 0, 79, 64
1, 4416, Note_on_c, 0, 76, 64
1, 4423, Note_on_c, 0, 79, 0
1, 4423, Note_on_c, 0, 76, 0
1, 4432, Note_on_c, 0, 79, 64
1, 4432, Note_on_c, 0, 76, 64
1, 4447, Note_on_c, 0, 79, 0
1, 4447, Note_on_c, 0, 76, 0
1, 4448, Note_on_c, 0, 78, 64
1, 4448, Note_on_c, 0, 74, 64
1, 4463, Note_on_c, 0, 78, 0
1, 4463, Note_on_c, 0, 74, 0
1, 4464, Note_on_c, 0, 76, 64
1, 4464, Note_on_c, 0, 72, 64
1, 4471, Note_on_c, 0, 76, 0
1, 4471, Note_on_c, 0, 72, 0
1, 4480, Note_on_c, 0, 76, 64
1, 4480, Note_on_c, 0, 72, 64
1, 4495, Note_on_c, 0, 76, 0
1, 4495, Note_on_c, 0, 72, 0
1, 4496, Note_on_c, 0, 74, 64
1, 4496, Note_on_c, 0, 71, 64
1, 4511, Note_on_c, 0, 74, 0
1, 4511, Note_on_c, 0, 71, 0
1, 4512, Note_on_c, 0, 72, 64
1, 4512, Note_on_c, 0, 69, 64
1, 4512, Note_on_c, 1, 38, 64
1, 4527, Note_on_c, 1, 38, 0
1, 4528, Note_on_c, 1, 50, 64
1, 4543, Note_on_c, 1, 50, 0
1, 4544, Note_on_c, 1, 54, 64
1, 4559, Note_on_c, 1, 54, 0
1, 4560, Note_on_c, 1, 57, 64
1, 4575, Note_on_c, 1, 57, 0
1, 4576, Note_on_c, 1, 62, 64
1, 4591, Note_on_c, 1, 62, 0
1, 4592, Note_on_c, 1, 66, 64
1, 4606, Note_on_c, 0, 72, 0
1, 4606, Note_on_c, 0, 69, 0
1, 4607, Note_on_c, 1, 66, 0
1, 4608, Note_on_c, 1, 67, 64
1, 4624, Note_on_c, 0, 71, 64
1, 4628, Note_on_c, 1, 67, 0
1, 4639, Note_on_c, 0, 71, 0
1, 4640, Note_on_c, 0, 74, 64
1, 4655, Note_on_c, 0, 74, 0
1, 4656, Note_on_c, 1, 60, 64
1, 4672, Note_on_c, 0, 64, 64
1, 4676, Note_on_c, 1, 60, 0
1, 4687, Note_on_c, 0, 64, 0
1, 4688, Note_on_c, 0, 72, 64
1, 4703, Note_on_c, 0, 72, 0
1, 4704, Note_on_c, 1, 59, 64
1, 4704, Note_on_c, 1, 50, 64
1, 4720, Note_on_c, 0, 62, 64
1, 4735, Note_on_c, 0, 62, 0
1, 4736, Note_on_c, 0, 67, 64
1, 4751, Note_on_c, 0, 67, 0
1, 4752, Note_on_c, 0, 71, 64
1, 4767, Note_on_c, 0, 71, 0
1, 4768, Note_on_c, 0, 74, 64
1, 4783, Note_on_c, 0, 74, 0
1, 4784, Note_on_c, 0, 71, 64
1, 4793, Note_on_c, 1, 59, 0
1, 4793, Note_on_c, 1, 50, 0
1, 4799, Note_on_c, 0, 71, 0
1, 4800, Note_on_c, 0, 72, 64
1, 4800, Note_on_c, 1, 57, 64
1, 4800, Note_on_c, 1, 50, 64
1, 4815, Note_on_c, 0, 72, 0
1, 4816, Note_on_c, 0, 69, 64
1, 4831, Note_on_c, 0, 69, 0
1, 4832, Note_on_c, 0, 66, 64
1, 4847, Note_on_c, 0, 66, 0
1, 4848, Note_on_c, 0, 62, 64
1, 4863, Note_on_c, 0, 62, 0
1, 4864, Note_on_c, 0, 60, 64
1, 4879, Note_on_c, 0, 60, 0
1, 4880, Note_on_c, 0, 69, 64
1, 4889, Note_on_c, 1, 57, 0
1, 4889, Note_on_c, 1, 50, 0
1, 4895, Note_on_c, 0, 69, 0
1, 4896, Note_on_c, 1, 59, 64
1, 4896, Note_on_c, 1, 55, 64
1, 4912, Note_on_c, 0, 86, 64
1, 4912, Note_on_c, 0, 83, 64
1, 4927, Note_on_c, 0, 86, 0
1, 4927, Note_on_c, 0, 83, 0
1, 4928, Note_on_c, 0, 84, 64
1, 4928, Note_on_c, 0, 81, 64
1, 4943, Note_on_c, 0, 84, 0
1, 4943, Note_on_c, 0, 81, 0
1, 4944, Note_on_c, 0, 83, 64
1, 4944, Note_on_c, 0, 79, 64
1, 4951, Note_on_c, 0, 83, 0
1, 4951, Note_on_c, 0, 79, 0
1, 4960, Note_on_c, 0, 83, 64
1, 4960, Note_on_c, 0, 79, 64
1, 4975, Note_on_c, 0, 83, 0
1, 4975, Note_on_c, 0, 79, 0
1, 4976, Note_on_c, 0, 81, 64
1, 4976, Note_on_c, 0, 78, 64
1, 4985, Note_on_c, 1, 59, 0
1, 4985, Note_on_c, 1, 55, 0
1, 4991, Note_on_c, 0, 81, 0
1, 4991, Note_on_c, 0, 78, 0
1, 4992, Note_on_c, 0, 79, 64
1, 4992, Note_on_c, 0, 76, 64
1, 4999, Note_on_c, 0, 79, 0
1, 4999, Note_on_c, 0, 76, 0
1, 5008, Note_on_c, 0, 79, 64
1, 5008, Note_on_c, 0, 76, 64
1, 5023, Note_on_c, 0, 79, 0
1, 5023, Note_on_c, 0, 76, 0
1, 5024, Note_on_c, 0, 78, 64
1, 5024, Note_on_c, 0, 74, 64
1, 5039, Note_on_c, 0, 78, 0
1, 5039, Note_on_c, 0, 74, 0
1, 5040, Note_on_c, 0, 76, 64
1, 5040, Note_on_c, 0, 72, 64
1, 5047, Note_on_c, 0, 76, 0
1, 5047, Note_on_c, 0, 72, 0
1, 5056, Note_on_c, 0, 76, 64
1, 5056, Note_on_c, 0, 72, 64
1, 5071, Note_on_c, 0, 76, 0
1, 5071, Note_on_c, 0, 72, 0
1, 5072, Note_on_c, 0, 74, 64
1, 5072, Note_on_c, 0, 71, 64
1, 5087, Note_on_c, 0, 74, 0
1, 5087, Note_on_c, 0, 71, 0
1, 5088, Note_on_c, 0, 72, 64
1, 5088, Note_on_c, 0, 69, 64
1, 5088, Note_on_c, 1, 38, 64
1, 5103, Note_on_c, 1, 38, 0
1, 5104, Note_on_c, 1, 50, 64
1, 5119, Note_on_c, 1, 50, 0
1, 5120, Note_on_c, 1, 54, 64
1, 5135, Note_on_c, 1, 54, 0
1, 5136, Note_on_c, 1, 57, 64
1, 5151, Note_on_c, 1, 57, 0
1, 5152, Note_on_c, 1, 62, 64
1, 5167, Note_on_c, 1, 62, 0
1, 5168, Note_on_c, 1, 66, 64
1, 5182, Note_on_c, 0, 72, 0
1, 5182, Note_on_c, 0, 69, 0
1, 5183, Note_on_c, 1, 66, 0
1, 5184, Note_on_c, 1, 67, 64
1, 5200, Note_on_c, 0, 71, 64
1, 5204, Note_on_c, 1, 67, 0
1, 5215, Note_on_c, 0, 71, 0
1, 5216, Note_on_c, 0, 74, 64
1, 5231, Note_on_c, 0, 74, 0
1, 5232, Note_on_c, 1, 60, 64
1, 5248, Note_on_c, 0, 64, 64
1, 5252, Note_on_c, 1, 60, 0
1, 5263, Note_on_c, 0, 64, 0
1, 5264, Note_on_c, 0, 72, 64
1, 5279, Note_on_c, 0, 72, 0
1, 5280, Note_on_c, 1, 59, 64
1, 5280, Note_on_c, 1, 50, 64
1, 5296, Note_on_c, 0, 62, 64
1, 5311, Note_on_c, 0, 62, 0
1, 5312, Note_on_c, 0, 67, 64
1, 5327, Note_on_c, 0, 67, 0
1, 5328, Note_on_c, 0, 71, 64
1, 5343, Note_on_c, 0, 71, 0
1, 5344, Note_on_c, 0, 74, 64
1, 5359, Note_on_c, 0, 74, 0
1, 5360, Note_on_c, 0, 71, 64
1, 5369, Note_on_c, 1, 59, 0
1, 5369, Note_on_c, 1, 50, 0
1, 5375, Note_on_c, 0, 71, 0
1, 5376, Note_on_c, 0, 72, 64
1, 5376, Note_on_c, 1, 38, 64
1, 5391, Note_on_c, 0, 72, 0
1, 5392, Note_on_c, 0, 69, 64
1, 5407, Note_on_c, 0, 69, 0
1, 5408, Note_on_c, 0, 66, 64
1, 5423, Note_on_c, 0, 66, 0
1, 5424, Note_on_c, 0, 62, 64
1, 5439, Note_on_c, 0, 62, 0
1, 5440, Note_on_c, 0, 60, 64
1, 5455, Note_on_c, 0, 60, 0
1, 5456, Note_on_c, 0, 69, 64
1, 5465, Note_on_c, 1, 38, 0
1, 5471, Note_on_c, 0, 69, 0
1, 5472, Note_on_c, 0, 60, 64
1, 5472, Note_on_c, 1, 54, 64
1, 5472, Note_on_c, 1, 40, 64
1, 5561, Note_on_c, 1, 54, 0
1, 5568, Note_on_c, 0, 60, 0
1, 5568, Note_on_c, 0, 59, 64
1, 5568, Note_on_c, 1, 55, 64
1, 5568, Note_on_c, 1, 52, 64
1, 5737, Note_on_c, 1, 40, 0
1, 5745, Note_on_c, 0, 59, 0
1, 5745, Note_on_c, 1, 55, 0
1, 5745, Note_on_c, 1, 52, 0
1, 5760, Note_on_c, 1, 48, 64
1, 5760, Note_on_c, 1, 36, 64
1, 5776, Note_on_c, 0, 68, 64
1, 5776, Note_on_c, 0, 56, 64
1, 5791, Note_on_c, 0, 68, 0
1, 5791, Note_on_c, 0, 56, 0
1, 5792, Note_on_c, 0, 69, 64
1, 5792, Note_on_c, 0, 57, 64
1, 5807, Note_on_c, 0, 69, 0
1, 5807, Note_on_c, 0, 57, 0
1, 5808, Note_on_c, 0, 71, 64
1, 5808, Note_on_c, 0, 59, 64
1, 5823, Note_on_c, 0, 71, 0
1, 5823, Note_on_c, 0, 59, 0
1, 5824, Note_on_c, 0, 72, 64
1, 5824, Note_on_c, 0, 60, 64
1, 5839, Note_on_c, 0, 72, 0
1, 5839, Note_on_c, 0, 60, 0
1, 5840, Note_on_c, 0, 74, 64
1, 5840, Note_on_c, 0, 62, 64
1, 5855, Note_on_c, 0, 74, 0
1, 5855, Note_on_c, 0, 62, 0
1, 5856, Note_on_c, 0, 76, 64
1, 5856, Note_on_c, 0, 64, 64
1, 5871, Note_on_c, 0, 76, 0
1, 5871, Note_on_c, 0, 64, 0
1, 5872, Note_on_c, 0, 78, 64
1, 5872, Note_on_c, 0, 66, 64
1, 5887, Note_on_c, 0, 78, 0
1, 5887, Note_on_c, 0, 66, 0
1, 5888, Note_on_c, 0, 80, 64
1, 5888, Note_on_c, 0, 68, 64
1, 5903, Note_on_c, 0, 80, 0
1, 5903, Note_on_c, 0, 68, 0
1, 5904, Note_on_c, 0, 81, 64
1, 5904, Note_on_c, 0, 69, 64
1, 5919, Note_on_c, 0, 81, 0
1, 5919, Note_on_c, 0, 69, 0
1, 5920, Note_on_c, 0, 83, 64
1, 5920, Note_on_c, 0, 71, 64
1, 5935, Note_on_c, 0, 83, 0
1, 5935, Note_on_c, 0, 71, 0
1, 5936, Note_on_c, 0, 84, 64
1, 5936, Note_on_c, 0, 72, 64
1, 5937, Note_on_c, 1, 48, 0
1, 5937, Note_on_c, 1, 36, 0
1, 5951, Note_on_c, 0, 84, 0
1, 5951, Note_on_c, 0, 72, 0
1, 5952, Note_on_c, 0, 86, 64
1, 5952, Note_on_c, 0, 74, 64
1, 5967, Note_on_c, 0, 86, 0
1, 5967, Note_on_c, 0, 74, 0
1, 5968, Note_on_c, 0, 88, 64
1, 5968, Note_on_c, 0, 76, 64
1, 5983, Note_on_c, 0, 88, 0
1, 5983, Note_on_c, 0, 76, 0
1, 5984, Note_on_c, 0, 86, 64
1, 5984, Note_on_c, 0, 74, 64
1, 5999, Note_on_c, 0, 86, 0
1, 5999, Note_on_c, 0, 74, 0
1, 6000, Note_on_c, 0, 84, 64
1, 6000, Note_on_c, 0, 72, 64
1, 6015, Note_on_c, 0, 84, 0
1, 6015, Note_on_c, 0, 72, 0
1, 6016, Note_on_c, 0, 83, 64
1, 6016, Note_on_c, 0, 71, 64
1, 6031, Note_on_c, 0, 83, 0
1, 6031, Note_on_c, 0, 71, 0
1, 6032, Note_on_c, 0, 81, 64
1, 6032, Note_on_c, 0, 69, 64
1, 6047, Note_on_c, 0, 81, 0
1, 6047, Note_on_c, 0, 69, 0
1, 6048, Note_on_c, 0, 79, 64
1, 6048, Note_on_c, 0, 67, 64
1, 6048, Note_on_c, 1, 59, 64
1, 6048, Note_on_c, 1, 55, 64
1, 6048, Note_on_c, 1, 50, 64
1, 6068, Note_on_c, 0, 79, 0
1, 6068, Note_on_c, 0, 67, 0
1, 6093, Note_on_c, 1, 59, 0
1, 6093, Note_on_c, 1, 55, 0
1, 6093, Note_on_c, 1, 50, 0
1, 6096, Note_on_c, 0, 86, 64
1, 6096, Note_on_c, 0, 74, 64
1, 6116, Note_on_c, 0, 86, 0
1, 6116, Note_on_c, 0, 74, 0
1, 6144, Note_on_c, 1, 71, 64
1, 6144, Note_on_c, 1, 67, 64
1, 6144, Note_on_c, 1, 62, 64
1, 6189, Note_on_c, 1, 71, 0
1, 6189, Note_on_c, 1, 67, 0
1, 6189, Note_on_c, 1, 62, 0
1, 6192, Note_on_c, 0, 84, 64
1, 6204, Note_on_c, 0, 84, 0
1, 6204, Note_on_c, 0, 83, 64
1, 6216, Note_on_c, 0, 83, 0
1, 6216, Note_on_c, 0, 81, 64
1, 6228, Note_on_c, 0, 81, 0
1, 6228, Note_on_c, 0, 79, 64
1, 6240, Note_on_c, 0, 79, 0
1, 6240, Note_on_c, 0, 83, 64
1, 6240, Note_on_c, 1, 72, 64
1, 6240, Note_on_c, 1, 69, 64
1, 6240, Note_on_c, 1, 66, 64
1, 6240, Note_on_c, 1, 62, 64
1, 6246, Note_on_c, 0, 83, 0
1, 6246, Note_on_c, 0, 81, 64
1, 6252, Note_on_c, 0, 81, 0
1, 6252, Note_on_c, 0, 83, 64
1, 6258, Note_on_c, 0, 83, 0
1, 6258, Note_on_c, 0, 81, 64
1, 6264, Note_on_c, 0, 81, 0
1, 6264, Note_on_c, 0, 83, 64
1, 6270, Note_on_c, 0, 83, 0
1, 6270, Note_on_c, 0, 81, 64
1, 6276, Note_on_c, 0, 81, 0
1, 6276, Note_on_c, 0, 83, 64
1, 6281, Note_on_c, 0, 83, 0
1, 6281, Note_on_c, 0, 81, 64
1, 6286, Note_on_c, 0, 81, 0
1, 6286, Note_on_c, 0, 83, 64
1, 6291, Note_on_c, 0, 83, 0
1, 6291, Note_on_c, 0, 81, 64
1, 6296, Note_on_c, 0, 81, 0
1, 6296, Note_on_c, 0, 83, 64
1, 6301, Note_on_c, 0, 83, 0
1, 6301, Note_on_c, 0, 81, 64
1, 6306, Note_on_c, 0, 81, 0
1, 6306, Note_on_c, 0, 83, 64
1, 6311, Note_on_c, 0, 83, 0
1, 6311, Note_on_c, 0, 81, 64
1, 6316, Note_on_c, 0, 81, 0
1, 6316, Note_on_c, 0, 83, 64
1, 6321, Note_on_c, 0, 83, 0
1, 6321, Note_on_c, 0, 81, 64
1, 6326, Note_on_c, 0, 81, 0
1, 6326, Note_on_c, 0, 79, 64
1, 6329, Note_on_c, 1, 72, 0
1, 6329, Note_on_c, 1, 69, 0
1, 6329, Note_on_c, 1, 66, 0
1, 6329, Note_on_c, 1, 62, 0
1, 6331, Note_on_c, 0, 79, 0
1, 6331, Note_on_c, 0, 81, 64
1, 6336, Note_on_c, 0, 81, 0
1, 6336, Note_on_c, 0, 79, 64
1, 6336, Note_on_c, 1, 43, 64
1, 6351, Note_on_c, 1, 43, 0
1, 6352, Note_on_c, 1, 55, 64
1, 6367, Note_on_c, 1, 55, 0
1, 6368, Note_on_c, 1, 54, 64
1, 6383, Note_on_c, 1, 54, 0
1, 6384, Note_on_c, 1, 55, 64
1, 6399, Note_on_c, 1, 55, 0
1, 6400, Note_on_c, 1, 59, 64
1, 6415, Note_on_c, 1, 59, 0
1, 6416, Note_on_c, 1, 57, 64
1, 6425, Note_on_c, 0, 79, 0
1, 6431, Note_on_c, 1, 57, 0
1, 6432, Note_on_c, 1, 55, 64
1, 6447, Note_on_c, 1, 55, 0
1, 6448, Note_on_c, 1, 65, 64
1, 6448, Note_on_c, 1, 62, 64
1, 6463, Note_on_c, 1, 65, 0
1, 6463, Note_on_c, 1, 62, 0
1, 6464, Note_on_c, 1, 64, 64
1, 6464, Note_on_c, 1, 60, 64
1, 6479, Note_on_c, 1, 64, 0
1, 6479, Note_on_c, 1, 60, 0
1, 6480, Note_on_c, 1, 62, 64
1, 6480, Note_on_c, 1, 59, 64
1, 6487, Note_on_c, 1, 62, 0
1, 6487, Note_on_c, 1, 59, 0
1, 6496, Note_on_c, 1, 62, 64
1, 6496, Note_on_c, 1, 59, 64
1, 6511, Note_on_c, 1, 62, 0
1, 6511, Note_on_c, 1, 59, 0
1, 6512, Note_on_c, 1, 60, 64
1, 6512, Note_on_c, 1, 57, 64
1, 6527, Note_on_c, 1, 60, 0
1, 6527, Note_on_c, 1, 57, 0
1, 6528, Note_on_c, 1, 59, 64
1, 6528, Note_on_c, 1, 55, 64
1, 6535, Note_on_c, 1, 59, 0
1, 6535, Note_on_c, 1, 55, 0
1, 6544, Note_on_c, 1, 59, 64
1, 6544, Note_on_c, 1, 55, 64
1, 6559, Note_on_c, 1, 59, 0
1, 6559, Note_on_c, 1, 55, 0
1, 6560, Note_on_c, 1, 57, 64
1, 6560, Note_on_c, 1, 53, 64
1, 6575, Note_on_c, 1, 57, 0
1, 6575, Note_on_c, 1, 53, 0
1, 6576, Note_on_c, 1, 55, 64
1, 6576, Note_on_c, 1, 52, 64
1, 6583, Note_on_c, 1, 55, 0
1, 6583, Note_on_c, 1, 52, 0
1, 6592, Note_on_c, 1, 55, 64
1, 6592, Note_on_c, 1, 52, 64
1, 6607, Note_on_c, 1, 55, 0
1, 6607, Note_on_c, 1, 52, 0
1, 6608, Note_on_c, 1, 53, 64
1, 6608, Note_on_c, 1, 50, 64
1, 6623, Note_on_c, 1, 53, 0
1, 6623, Note_on_c, 1, 50, 0
1, 6624, Note_on_c, 0, 64, 64
1, 6624, Note_on_c, 1, 48, 64
1, 6630, Note_on_c, 0, 67, 64
1, 6630, Note_on_c, 1, 52, 64
1, 6636, Note_on_c, 1, 55, 64
1, 6642, Note_on_c, 0, 71, 64
1, 6642, Note_on_c, 1, 60, 64
1, 6648, Note_on_c, 0, 71, 0
1, 6648, Note_on_c, 0, 72, 64
1, 6648, Note_on_c, 0, 67, 0
1, 6696, Note_on_c, 0, 67, 64
1, 6702, Note_on_c, 0, 64, 0
1, 6715, Note_on_c, 1, 60, 0
1, 6715, Note_on_c, 1, 55, 0
1, 6715, Note_on_c, 1, 52, 0
1, 6715, Note_on_c, 1, 48, 0
1, 6719, Note_on_c, 0, 72, 0
1, 6719, Note_on_c, 0, 67, 0
1, 6720, Note_on_c, 0, 79, 64
1, 6720, Note_on_c, 1, 64, 64
1, 6720, Note_on_c, 1, 60, 64
1, 6765, Note_on_c, 0, 79, 0
1, 6768, Note_on_c, 0, 77, 64
1, 6780, Note_on_c, 0, 77, 0
1, 6780, Note_on_c, 0, 76, 64
1, 6792, Note_on_c, 0, 76, 0
1, 6792, Note_on_c, 0, 74, 64
1, 6804, Note_on_c, 0, 74, 0
1, 6804, Note_on_c, 0, 72, 64
1, 6809, Note_on_c, 1, 64, 0
1, 6809, Note_on_c, 1, 60, 0
1, 6816, Note_on_c, 0, 72, 0
1, 6816, Note_on_c, 0, 71, 64
1, 6816, Note_on_c, 1, 67, 64
1, 6816, Note_on_c, 1, 62, 64
1, 6836, Note_on_c, 0, 71, 0
1, 6836, Note_on_c, 1, 67, 0
1, 6836, Note_on_c, 1, 62, 0
1, 6900, Note_on_c, 0, 67, 64
1, 6912, Note_on_c, 0, 67, 0
1, 6912, Note_on_c, 0, 72, 64
1, 6946, Note_on_c, 0, 72, 0
1, 6948, Note_on_c, 0, 67, 64
1, 6960, Note_on_c, 0, 76, 64
1, 6960, Note_on_c, 0, 67, 0
1, 6960, Note_on_c, 0, 72, 64
1, 6960, Note_on_c, 1, 60, 64
1, 6994, Note_on_c, 0, 72, 0
1, 6996, Note_on_c, 0, 67, 64
1, 7005, Note_on_c, 0, 76, 0
1, 7005, Note_on_c, 1, 60, 0
1, 7008, Note_on_c, 0, 77, 64
1, 7008, Note_on_c, 0, 67, 0
1, 7008, Note_on_c, 0, 74, 64
1, 7008, Note_on_c, 1, 59, 64
1, 7042, Note_on_c, 0, 74, 0
1, 7044, Note_on_c, 0, 67, 64
1, 7053, Note_on_c, 0, 77, 0
1, 7053, Note_on_c, 1, 59, 0
1, 7056, Note_on_c, 0, 76, 64
1, 7056, Note_on_c, 0, 67, 0
1, 7056, Note_on_c, 0, 72, 64
1, 7056, Note_on_c, 1, 60, 64
1, 7090, Note_on_c, 0, 72, 0
1, 7092, Note_on_c, 0, 67, 64
1, 7101, Note_on_c, 0, 76, 0
1, 7101, Note_on_c, 1, 60, 0
1, 7104, Note_on_c, 0, 74, 64
1, 7104, Note_on_c, 0, 67, 0
1, 7104, Note_on_c, 0, 71, 64
1, 7104, Note_on_c, 1, 55, 64
1, 7149, Note_on_c, 0, 74, 0
1, 7149, Note_on_c, 0, 71, 0
1, 7149, Note_on_c, 1, 55, 0
1, 7188, Note_on_c, 0, 60, 64
1, 7200, Note_on_c, 0, 60, 0
1, 7200, Note_on_c, 0, 72, 64
1, 7248, Note_on_c, 1, 57, 64
1, 7248, Note_on_c, 1, 57, 64
1, 7278, Note_on_c, 0, 72, 0
1, 7284, Note_on_c, 0, 74, 64
1, 7290, Note_on_c, 0, 74, 0
1, 7290, Note_on_c, 0, 72, 64
1, 7293, Note_on_c, 1, 57, 0
1, 7293, Note_on_c, 1, 57, 0
1, 7296, Note_on_c, 0, 72, 0
1, 7296, Note_on_c, 0, 71, 64
1, 7296, Note_on_c, 1, 55, 64
1, 7296, Note_on_c, 1, 55, 64
1, 7330, Note_on_c, 0, 71, 0
1, 7332, Note_on_c, 0, 72, 64
1, 7338, Note_on_c, 0, 72, 0
1, 7338, Note_on_c, 0, 71, 64
1, 7341, Note_on_c, 1, 55, 0
1, 7341, Note_on_c, 1, 55, 0
1, 7344, Note_on_c, 0, 71, 0
1, 7344, Note_on_c, 0, 69, 64
1, 7344, Note_on_c, 1, 53, 64
1, 7344, Note_on_c, 1, 53, 64
1, 7378, Note_on_c, 0, 69, 0
1, 7380, Note_on_c, 0, 71, 64
1, 7386, Note_on_c, 0, 71, 0
1, 7386, Note_on_c, 0, 69, 64
1, 7389, Note_on_c, 1, 53, 0
1, 7389, Note_on_c, 1, 53, 0
1, 7392, Note_on_c, 0, 69, 0
1, 7392, Note_on_c, 0, 67, 64
1, 7392, Note_on_c, 1, 52, 64
1, 7416, Note_on_c, 0, 67, 0
1, 7416, Note_on_c, 0, 72, 64
1, 7439, Note_on_c, 0, 72, 0
1, 7440, Note_on_c, 0, 76, 64
1, 7440, Note_on_c, 1, 60, 64
1, 7450, Note_on_c, 0, 76, 0
1, 7464, Note_on_c, 0, 79, 64
1, 7474, Note_on_c, 0, 79, 0
1, 7481, Note_on_c, 1, 52, 0
1, 7488, Note_on_c, 0, 79, 64
1, 7488, Note_on_c, 1, 53, 64
1, 7511, Note_on_c, 0, 79, 0
1, 7512, Note_on_c, 0, 69, 64
1, 7533, Note_on_c, 1, 60, 0
1, 7535, Note_on_c, 0, 69, 0
1, 7536, Note_on_c, 0, 77, 64
1, 7536, Note_on_c, 1, 62, 64
1, 7559, Note_on_c, 0, 77, 0
1, 7560, Note_on_c, 0, 74, 64
1, 7577, Note_on_c, 1, 53, 0
1, 7581, Note_on_c, 1, 62, 0
1, 7583, Note_on_c, 0, 74, 0
1, 7584, Note_on_c, 0, 72, 64
1, 7584, Note_on_c, 1, 64, 64
1, 7584, Note_on_c, 1, 55, 64
1, 7629, Note_on_c, 0, 72, 0
1, 7632, Note_on_c, 0, 72, 64
1, 7673, Note_on_c, 1, 64, 0
1, 7680, Note_on_c, 1, 65, 64
1, 7692, Note_on_c, 0, 72, 0
1, 7692, Note_on_c, 0, 71, 64
1, 7704, Note_on_c, 0, 71, 0
1, 7704, Note_on_c, 0, 77, 64
1, 7716, Note_on_c, 0, 77, 0
1, 7716, Note_on_c, 0, 76, 64
1, 7728, Note_on_c, 0, 76, 0
1, 7728, Note_on_c, 0, 77, 64
1, 7740, Note_on_c, 0, 77, 0
1, 7740, Note_on_c, 0, 74, 64
1, 7752, Note_on_c, 0, 74, 0
1, 7752, Note_on_c, 0, 72, 64
1, 7761, Note_on_c, 1, 55, 0
1, 7764, Note_on_c, 0, 72, 0
1, 7764, Note_on_c, 0, 71, 64
1, 7769, Note_on_c, 1, 65, 0
1, 7776, Note_on_c, 0, 71, 0
1, 7776, Note_on_c, 0, 71, 64
1, 7776, Note_on_c, 1, 65, 64
1, 7776, Note_on_c, 1, 60, 64
1, 7843, Note_on_c, 0, 71, 0
1, 7848, Note_on_c, 0, 74, 64
1, 7860, Note_on_c, 0, 74, 0
1, 7860, Note_on_c, 0, 72, 64
1, 7865, Note_on_c, 1, 65, 0
1, 7872, Note_on_c, 0, 72, 0
1, 7872, Note_on_c, 0, 72, 64
1, 7872, Note_on_c, 1, 64, 64
1, 7892, Note_on_c, 0, 72, 0
1, 7917, Note_on_c, 1, 64, 0
1, 7917, Note_on_c, 1, 60, 0
1, 7920, Note_on_c, 1, 36, 64
1, 7940, Note_on_c, 1, 36, 0
1, 7968, Note_on_c, 1, 40, 64
1, 7988, Note_on_c, 1, 40, 0
1, 8016, Note_on_c, 1, 43, 64
1, 8036, Note_on_c, 1, 43, 0
1, 8064, Note_on_c, 0, 64, 64
1, 8064, Note_on_c, 1, 48, 64
1, 8070, Note_on_c, 0, 67, 64
1, 8070, Note_on_c, 1, 52, 64
1, 8076, Note_on_c, 0, 72, 64
1, 8076, Note_on_c, 1, 55, 64
1, 8082, Note_on_c, 1, 60, 64
1, 8112, Note_on_c, 0, 67, 64
1, 8118, Note_on_c, 0, 67, 0
1, 8118, Note_on_c, 0, 69, 64
1, 8124, Note_on_c, 0, 69, 0
1, 8124, Note_on_c, 0, 67, 64
1, 8130, Note_on_c, 0, 67, 0
1, 8130, Note_on_c, 0, 66, 64
1, 8136, Note_on_c, 0, 66, 0
1, 8148, Note_on_c, 0, 67, 64
1, 8153, Note_on_c, 0, 67, 0
1, 8155, Note_on_c, 1, 60, 0
1, 8155, Note_on_c, 1, 55, 0
1, 8155, Note_on_c, 1, 52, 0
1, 8155, Note_on_c, 1, 48, 0
1, 8160, Note_on_c, 0, 79, 64
1, 8160, Note_on_c, 1, 64, 64
1, 8160, Note_on_c, 1, 60, 64
1, 8166, Note_on_c, 0, 72, 0
1, 8166, Note_on_c, 0, 67, 0
1, 8166, Note_on_c, 0, 64, 0
1, 8184, Note_on_c, 0, 79, 0
1, 8184, Note_on_c, 0, 81, 64
1, 8196, Note_on_c, 0, 81, 0
1, 8196, Note_on_c, 0, 79, 64
1, 8208, Note_on_c, 0, 79, 0
1, 8208, Note_on_c, 0, 77, 64
1, 8220, Note_on_c, 0, 77, 0
1, 8220, Note_on_c, 0, 76, 64
1, 8232, Note_on_c, 0, 76, 0
1, 8232, Note_on_c, 0, 74, 64
1, 8244, Note_on_c, 0, 74, 0
1, 8244, Note_on_c, 0, 72, 64
1, 8256, Note_on_c, 0, 72, 0
1, 8256, Note_on_c, 0, 71, 64
1, 8256, Note_on_c, 1, 64, 0
1, 8256, Note_on_c, 1, 60, 0
1, 8256, Note_on_c, 1, 65, 64
1, 8256, Note_on_c, 1, 62, 64
1, 8276, Note_on_c, 0, 71, 0
1, 8276, Note_on_c, 1, 65, 0
1, 8276, Note_on_c, 1, 62, 0
1, 8340, Note_on_c, 0, 67, 64
1, 8352, Note_on_c, 0, 67, 0
1, 8352, Note_on_c, 0, 72, 64
1, 8386, Note_on_c, 0, 72, 0
1, 8388, Note_on_c, 0, 67, 64
1, 8400, Note_on_c, 0, 76, 64
1, 8400, Note_on_c, 0, 67, 0
1, 8400, Note_on_c, 0, 72, 64
1, 8400, Note_on_c, 1, 60, 64
1, 8434, Note_on_c, 0, 72, 0
1, 8436, Note_on_c, 0, 67, 64
1, 8445, Note_on_c, 0, 76, 0
1, 8445, Note_on_c, 1, 60, 0
1, 8448, Note_on_c, 0, 77, 64
1, 8448, Note_on_c, 0, 67, 0
1, 8448, Note_on_c, 0, 74, 64
1, 8448, Note_on_c, 1, 59, 64
1, 8482, Note_on_c, 0, 74, 0
1, 8484, Note_on_c, 0, 67, 64
1, 8493, Note_on_c, 0, 77, 0
1, 8493, Note_on_c, 1, 59, 0
1, 8496, Note_on_c, 0, 76, 64
1, 8496, Note_on_c, 0, 67, 0
1, 8496, Note_on_c, 0, 72, 64
1, 8496, Note_on_c, 1, 60, 64
1, 8530, Note_on_c, 0, 72, 0
1, 8532, Note_on_c, 0, 67, 64
1, 8541, Note_on_c, 0, 76, 0
1, 8541, Note_on_c, 1, 60, 0
1, 8544, Note_on_c, 0, 74, 64
1, 8544, Note_on_c, 0, 67, 0
1, 8544, Note_on_c, 0, 71, 64
1, 8544, Note_on_c, 1, 55, 64
1, 8589, Note_on_c, 0, 74, 0
1, 8589, Note_on_c, 0, 71, 0
1, 8589, Note_on_c, 1, 55, 0
1, 8628, Note_on_c, 0, 60, 64
1, 8640, Note_on_c, 0, 60, 0
1, 8640, Note_on_c, 0, 74, 64
1, 8640, Note_on_c, 1, 55, 64
1, 8646, Note_on_c, 0, 74, 0
1, 8646, Note_on_c, 0, 73, 64
1, 8652, Note_on_c, 0, 73, 0
1, 8652, Note_on_c, 0, 74, 64
1, 8655, Note_on_c, 1, 55, 0
1, 8656, Note_on_c, 1, 59, 64
1, 8671, Note_on_c, 1, 59, 0
1, 8672, Note_on_c, 1, 62, 64
1, 8687, Note_on_c, 1, 62, 0
1, 8688, Note_on_c, 1, 55, 64
1, 8703, Note_on_c, 1, 55, 0
1, 8704, Note_on_c, 1, 59, 64
1, 8709, Note_on_c, 0, 74, 0
1, 8712, Note_on_c, 0, 71, 64
1, 8719, Note_on_c, 1, 59, 0
1, 8720, Note_on_c, 1, 62, 64
1, 8735, Note_on_c, 0, 71, 0
1, 8735, Note_on_c, 1, 62, 0
1, 8736, Note_on_c, 0, 83, 64
1, 8736, Note_on_c, 1, 55, 64
1, 8743, Note_on_c, 0, 83, 0
1, 8751, Note_on_c, 1, 55, 0
1, 8752, Note_on_c, 0, 86, 64
1, 8752, Note_on_c, 1, 59, 64
1, 8759, Note_on_c, 0, 86, 0
1, 8767, Note_on_c, 1, 59, 0
1, 8768, Note_on_c, 0, 84, 64
1, 8768, Note_on_c, 1, 62, 64
1, 8775, Note_on_c, 0, 84, 0
1, 8783, Note_on_c, 1, 62, 0
1, 8784, Note_on_c, 0, 83, 64
1, 8784, Note_on_c, 1, 55, 64
1, 8791, Note_on_c, 0, 83, 0
1, 8799, Note_on_c, 1, 55, 0
1, 8800, Note_on_c, 0, 81, 64
1, 8800, Note_on_c, 1, 59, 64
1, 8807, Note_on_c, 0, 81, 0
1, 8815, Note_on_c, 1, 59, 0
1, 8816, Note_on_c, 0, 79, 64
1, 8816, Note_on_c, 1, 62, 64
1, 8823, Note_on_c, 0, 79, 0
1, 8831, Note_on_c, 1, 62, 0
1, 8832, Note_on_c, 0, 78, 64
1, 8832, Note_on_c, 1, 55, 64
1, 8839, Note_on_c, 0, 78, 0
1, 8847, Note_on_c, 1, 55, 0
1, 8848, Note_on_c, 0, 76, 64
1, 8848, Note_on_c, 1, 59, 64
1, 8855, Note_on_c, 0, 76, 0
1, 8863, Note_on_c, 1, 59, 0
1, 8864, Note_on_c, 0, 74, 64
1, 8864, Note_on_c, 1, 62, 64
1, 8871, Note_on_c, 0, 74, 0
1, 8879, Note_on_c, 1, 62, 0
1, 8880, Note_on_c, 0, 72, 64
1, 8880, Note_on_c, 1, 55, 64
1, 8887, Note_on_c, 0, 72, 0
1, 8895, Note_on_c, 1, 55, 0
1, 8896, Note_on_c, 0, 71, 64
1, 8896, Note_on_c, 1, 59, 64
1, 8903, Note_on_c, 0, 71, 0
1, 8911, Note_on_c, 1, 59, 0
1, 8912, Note_on_c, 0, 69, 64
1, 8912, Note_on_c, 1, 62, 64
1, 8919, Note_on_c, 0, 69, 0
1, 8927, Note_on_c, 1, 62, 0
1, 8928, Note_on_c, 0, 67, 64
1, 8928, Note_on_c, 1, 57, 64
1, 8943, Note_on_c, 1, 57, 0
1, 8944, Note_on_c, 1, 60, 64
1, 8959, Note_on_c, 1, 60, 0
1, 8960, Note_on_c, 1, 62, 64
1, 8975, Note_on_c, 1, 62, 0
1, 8976, Note_on_c, 1, 57, 64
1, 8991, Note_on_c, 1, 57, 0
1, 8992, Note_on_c, 1, 60, 64
1, 9007, Note_on_c, 1, 60, 0
1, 9008, Note_on_c, 1, 62, 64
1, 9017, Note_on_c, 0, 67, 0
1, 9023, Note_on_c, 1, 62, 0
1, 9024, Note_on_c, 0, 66, 64
1, 9024, Note_on_c, 1, 57, 64
1, 9030, Note_on_c, 0, 66, 0
1, 9030, Note_on_c, 0, 67, 64
1, 9036, Note_on_c, 0, 67, 0
1, 9036, Note_on_c, 0, 66, 64
1, 9039, Note_on_c, 1, 57, 0
1, 9040, Note_on_c, 1, 60, 64
1, 9055, Note_on_c, 1, 60, 0
1, 9056, Note_on_c, 1, 62, 64
1, 9071, Note_on_c, 1, 62, 0
1, 9072, Note_on_c, 1, 57, 64
1, 9087, Note_on_c, 1, 57, 0
1, 9088, Note_on_c, 1, 60, 64
1, 9103, Note_on_c, 1, 60, 0
1, 9104, Note_on_c, 1, 62, 64
1, 9119, Note_on_c, 1, 62, 0
1, 9120, Note_on_c, 1, 57, 64
1, 9135, Note_on_c, 1, 57, 0
1, 9136, Note_on_c, 1, 60, 64
1, 9151, Note_on_c, 1, 60, 0
1, 9152, Note_on_c, 1, 62, 64
1, 9165, Note_on_c, 0, 66, 0
1, 9167, Note_on_c, 1, 62, 0
1, 9168, Note_on_c, 0, 67, 64
1, 9168, Note_on_c, 1, 57, 64
1, 9173, Note_on_c, 0, 67, 0
1, 9173, Note_on_c, 0, 69, 64
1, 9178, Note_on_c, 0, 69, 0
1, 9178, Note_on_c, 0, 71, 64
1, 9183, Note_on_c, 0, 71, 0
1, 9183, Note_on_c, 0, 72, 64
1, 9183, Note_on_c, 1, 57, 0
1, 9184, Note_on_c, 1, 60, 64
1, 9188, Note_on_c, 0, 72, 0
1, 9188, Note_on_c, 0, 74, 64
1, 9193, Note_on_c, 0, 74, 0
1, 9193, Note_on_c, 0, 76, 64
1, 9198, Note_on_c, 0, 76, 0
1, 9198, Note_on_c, 0, 78, 64
1, 9199, Note_on_c, 1, 60, 0
1, 9200, Note_on_c, 1, 62, 64
1, 9203, Note_on_c, 0, 78, 0
1, 9203, Note_on_c, 0, 79, 64
1, 9208, Note_on_c, 0, 79, 0
1, 9208, Note_on_c, 0, 81, 64
1, 9212, Note_on_c, 0, 81, 0
1, 9212, Note_on_c, 0, 83, 64
1, 9215, Note_on_c, 1, 62, 0
1, 9216, Note_on_c, 0, 83, 0
1, 9216, Note_on_c, 0, 84, 64
1, 9216, Note_on_c, 1, 54, 64
1, 9231, Note_on_c, 1, 54, 0
1, 9232, Note_on_c, 1, 57, 64
1, 9247, Note_on_c, 1, 57, 0
1, 9248, Note_on_c, 1, 62, 64
1, 9263, Note_on_c, 1, 62, 0
1, 9264, Note_on_c, 1, 54, 64
1, 9279, Note_on_c, 1, 54, 0
1, 9280, Note_on_c, 1, 57, 64
1, 9283, Note_on_c, 0, 84, 0
1, 9288, Note_on_c, 0, 81, 64
1, 9295, Note_on_c, 1, 57, 0
1, 9296, Note_on_c, 1, 62, 64
1, 9300, Note_on_c, 0, 81, 0
1, 9300, Note_on_c, 0, 83, 64
1, 9311, Note_on_c, 1, 62, 0
1, 9312, Note_on_c, 0, 83, 0
1, 9312, Note_on_c, 0, 84, 64
1, 9312, Note_on_c, 1, 54, 64
1, 9319, Note_on_c, 0, 84, 0
1, 9327, Note_on_c, 1, 54, 0
1, 9328, Note_on_c, 0, 88, 64
1, 9328, Note_on_c, 1, 57, 64
1, 9343, Note_on_c, 1, 57, 0
1, 9344, Note_on_c, 0, 88, 0
1, 9344, Note_on_c, 0, 86, 64
1, 9344, Note_on_c, 1, 62, 64
1, 9359, Note_on_c, 0, 86, 0
1, 9359, Note_on_c, 1, 62, 0
1, 9360, Note_on_c, 0, 84, 64
1, 9360, Note_on_c, 1, 54, 64
1, 9367, Note_on_c, 0, 84, 0
1, 9375, Note_on_c, 1, 54, 0
1, 9376, Note_on_c, 0, 83, 64
1, 9376, Note_on_c, 1, 57, 64
1, 9391, Note_on_c, 1, 57, 0
1, 9392, Note_on_c, 0, 83, 0
1, 9392, Note_on_c, 0, 81, 64
1, 9392, Note_on_c, 1, 62, 64
1, 9407, Note_on_c, 0, 81, 0
1, 9407, Note_on_c, 1, 62, 0
1, 9408, Note_on_c, 0, 79, 64
1, 9408, Note_on_c, 1, 54, 64
1, 9415, Note_on_c, 0, 79, 0
1, 9423, Note_on_c, 1, 54, 0
1, 9424, Note_on_c, 0, 78, 64
1, 9424, Note_on_c, 1, 57, 64
1, 9439, Note_on_c, 1, 57, 0
1, 9440, Note_on_c, 0, 78, 0
1, 9440, Note_on_c, 0, 76, 64
1, 9440, Note_on_c, 1, 62, 64
1, 9455, Note_on_c, 0, 76, 0
1, 9455, Note_on_c, 1, 62, 0
1, 9456, Note_on_c, 0, 74, 64
1, 9456, Note_on_c, 1, 54, 64
1, 9471, Note_on_c, 0, 74, 0
1, 9471, Note_on_c, 1, 54, 0
1, 9472, Note_on_c, 0, 72, 64
1, 9472, Note_on_c, 1, 57, 64
1, 9487, Note_on_c, 0, 72, 0
1, 9487, Note_on_c, 1, 57, 0
1, 9488, Note_on_c, 0, 81, 64
1, 9488, Note_on_c, 1, 62, 64
1, 9503, Note_on_c, 0, 81, 0
1, 9503, Note_on_c, 1, 62, 0
1, 9504, Note_on_c, 0, 74, 64
1, 9504, Note_on_c, 1, 55, 64
1, 9519, Note_on_c, 1, 55, 0
1, 9520, Note_on_c, 1, 59, 64
1, 9535, Note_on_c, 1, 59, 0
1, 9536, Note_on_c, 1, 62, 64
1, 9549, Note_on_c, 0, 74, 0
1, 9551, Note_on_c, 1, 62, 0
1, 9552, Note_on_c, 0, 72, 64
1, 9552, Note_on_c, 1, 55, 64
1, 9558, Note_on_c, 0, 72, 0
1, 9558, Note_on_c, 0, 74, 64
1, 9564, Note_on_c, 0, 74, 0
1, 9564, Note_on_c, 0, 72, 64
1, 9567, Note_on_c, 1, 55, 0
1, 9568, Note_on_c, 1, 59, 64
1, 9583, Note_on_c, 1, 59, 0
1, 9584, Note_on_c, 1, 62, 64
1, 9598, Note_on_c, 0, 72, 0
1, 9599, Note_on_c, 1, 62, 0
1, 9600, Note_on_c, 0, 71, 64
1, 9600, Note_on_c, 1, 55, 64
1, 9615, Note_on_c, 1, 55, 0
1, 9616, Note_on_c, 1, 59, 64
1, 9631, Note_on_c, 1, 59, 0
1, 9632, Note_on_c, 1, 62, 64
1, 9647, Note_on_c, 1, 62, 0
1, 9648, Note_on_c, 1, 55, 64
1, 9663, Note_on_c, 1, 55, 0
1, 9664, Note_on_c, 1, 59, 64
1, 9679, Note_on_c, 1, 59, 0
1, 9680, Note_on_c, 1, 62, 64
1, 9689, Note_on_c, 0, 71, 0
1, 9695, Note_on_c, 1, 62, 0
1, 9696, Note_on_c, 1, 55, 64
1, 9741, Note_on_c, 1, 55, 0
1, 9744, Note_on_c, 0, 66, 64
1, 9750, Note_on_c, 0, 66, 0
1, 9750, Note_on_c, 0, 67, 64
1, 9756, Note_on_c, 0, 67, 0
1, 9756, Note_on_c, 0, 69, 64
1, 9762, Note_on_c, 0, 69, 0
1, 9762, Note_on_c, 0, 71, 64
1, 9768, Note_on_c, 0, 71, 0
1, 9768, Note_on_c, 0, 72, 64
1, 9774, Note_on_c, 0, 72, 0
1, 9774, Note_on_c, 0, 74, 64
1, 9780, Note_on_c, 0, 74, 0
1, 9780, Note_on_c, 0, 76, 64
1, 9786, Note_on_c, 0, 76, 0
1, 9786, Note_on_c, 0, 78, 64
1, 9792, Note_on_c, 0, 78, 0
1, 9792, Note_on_c, 0, 79, 64
1, 9792, Note_on_c, 1, 52, 64
1, 9807, Note_on_c, 1, 52, 0
1, 9808, Note_on_c, 1, 55, 64
1, 9823, Note_on_c, 1, 55, 0
1, 9824, Note_on_c, 1, 59, 64
1, 9839, Note_on_c, 1, 59, 0
1, 9840, Note_on_c, 1, 60, 64
1, 9855, Note_on_c, 1, 60, 0
1, 9856, Note_on_c, 1, 62, 64
1, 9871, Note_on_c, 1, 62, 0
1, 9872, Note_on_c, 1, 63, 64
1, 9887, Note_on_c, 1, 63, 0
1, 9888, Note_on_c, 0, 74, 64
1, 9888, Note_on_c, 1, 64, 64
1, 9892, Note_on_c, 0, 74, 0
1, 9892, Note_on_c, 0, 72, 64
1, 9904, Note_on_c, 0, 72, 0
1, 9904, Note_on_c, 0, 71, 64
1, 9919, Note_on_c, 0, 71, 0
1, 9920, Note_on_c, 0, 72, 64
1, 9935, Note_on_c, 0, 72, 0
1, 9936, Note_on_c, 0, 76, 64
1, 9951, Note_on_c, 0, 76, 0
1, 9952, Note_on_c, 0, 74, 64
1, 9967, Note_on_c, 0, 74, 0
1, 9968, Note_on_c, 0, 72, 64
1, 9983, Note_on_c, 0, 72, 0
1, 9984, Note_on_c, 0, 79, 0
1, 9984, Note_on_c, 0, 78, 64
1, 9984, Note_on_c, 0, 72, 64
1, 9984, Note_on_c, 1, 64, 0
1, 9984, Note_on_c, 1, 62, 64
1, 9999, Note_on_c, 0, 72, 0
1, 10000, Note_on_c, 0, 70, 64
1, 10015, Note_on_c, 0, 70, 0
1, 10016, Note_on_c, 0, 71, 64
1, 10031, Note_on_c, 0, 71, 0
1, 10032, Note_on_c, 0, 74, 64
1, 10047, Note_on_c, 0, 74, 0
1, 10048, Note_on_c, 0, 72, 64
1, 10063, Note_on_c, 0, 72, 0
1, 10064, Note_on_c, 0, 71, 64
1, 10073, Note_on_c, 0, 78, 0
1, 10073, Note_on_c, 1, 62, 0
1, 10079, Note_on_c, 0, 71, 0
1, 10080, Note_on_c, 0, 76, 64
1, 10080, Note_on_c, 0, 71, 64
1, 10080, Note_on_c, 1, 48, 64
1, 10095, Note_on_c, 1, 48, 0
1, 10096, Note_on_c, 1, 52, 64
1, 10111, Note_on_c, 1, 52, 0
1, 10112, Note_on_c, 1, 56, 64
1, 10127, Note_on_c, 1, 56, 0
1, 10128, Note_on_c, 1, 57, 64
1, 10143, Note_on_c, 1, 57, 0
1, 10144, Note_on_c, 1, 58, 64
1, 10159, Note_on_c, 1, 58, 0
1, 10160, Note_on_c, 1, 59, 64
1, 10169, Note_on_c, 0, 71, 0
1, 10175, Note_on_c, 1, 59, 0
1, 10176, Note_on_c, 0, 71, 64
1, 10176, Note_on_c, 1, 60, 64
1, 10180, Note_on_c, 0, 71, 0
1, 10180, Note_on_c, 0, 69, 64
1, 10192, Note_on_c, 0, 69, 0
1, 10192, Note_on_c, 0, 68, 64
1, 10207, Note_on_c, 0, 68, 0
1, 10208, Note_on_c, 0, 69, 64
1, 10223, Note_on_c, 0, 69, 0
1, 10224, Note_on_c, 0, 72, 64
1, 10239, Note_on_c, 0, 72, 0
1, 10240, Note_on_c, 0, 71, 64
1, 10255, Note_on_c, 0, 71, 0
1, 10256, Note_on_c, 0, 69, 64
1, 10271, Note_on_c, 0, 69, 0
1, 10272, Note_on_c, 0, 76, 0
1, 10272, Note_on_c, 0, 74, 64
1, 10272, Note_on_c, 0, 69, 64
1, 10272, Note_on_c, 1, 60, 0
1, 10272, Note_on_c, 1, 59, 64
1, 10287, Note_on_c, 0, 69, 0
1, 10288, Note_on_c, 0, 66, 64
1, 10303, Note_on_c, 0, 66, 0
1, 10304, Note_on_c, 0, 67, 64
1, 10319, Note_on_c, 0, 67, 0
1, 10320, Note_on_c, 0, 71, 64
1, 10335, Note_on_c, 0, 71, 0
1, 10336, Note_on_c, 0, 69, 64
1, 10351, Note_on_c, 0, 69, 0
1, 10352, Note_on_c, 0, 67, 64
1, 10361, Note_on_c, 0, 74, 0
1, 10361, Note_on_c, 1, 59, 0
1, 10367, Note_on_c, 0, 67, 0
1, 10368, Note_on_c, 0, 73, 64
1, 10368, Note_on_c, 1, 57, 64
1, 10384, Note_on_c, 0, 67, 64
1, 10399, Note_on_c, 0, 67, 0
1, 10400, Note_on_c, 0, 69, 64
1, 10415, Note_on_c, 0, 69, 0
1, 10416, Note_on_c, 0, 70, 64
1, 10431, Note_on_c, 0, 70, 0
1, 10432, Note_on_c, 0, 69, 64
1, 10447, Note_on_c, 0, 69, 0
1, 10448, Note_on_c, 0, 67, 64
1, 10462, Note_on_c, 0, 73, 0
1, 10463, Note_on_c, 0, 67, 0
1, 10464, Note_on_c, 0, 73, 64
1, 10464, Note_on_c, 1, 64, 64
1, 10480, Note_on_c, 0, 67, 64
1, 10495, Note_on_c, 0, 67, 0
1, 10496, Note_on_c, 0, 69, 64
1, 10511, Note_on_c, 0, 69, 0
1, 10512, Note_on_c, 0, 70, 64
1, 10527, Note_on_c, 0, 70, 0
1, 10528, Note_on_c, 0, 69, 64
1, 10543, Note_on_c, 0, 69, 0
1, 10544, Note_on_c, 0, 67, 64
1, 10553, Note_on_c, 0, 73, 0
1, 10553, Note_on_c, 1, 64, 0
1, 10559, Note_on_c, 0, 67, 0
1, 10560, Note_on_c, 0, 76, 64
1, 10560, Note_on_c, 1, 61, 64
1, 10576, Note_on_c, 0, 67, 64
1, 10591, Note_on_c, 0, 67, 0
1, 10592, Note_on_c, 0, 69, 64
1, 10607, Note_on_c, 0, 69, 0
1, 10608, Note_on_c, 0, 70, 64
1, 10623, Note_on_c, 0, 70, 0
1, 10624, Note_on_c, 0, 69, 64
1, 10633, Note_on_c, 1, 57, 0
1, 10639, Note_on_c, 0, 69, 0
1, 10640, Note_on_c, 0, 67, 64
1, 10649, Note_on_c, 0, 76, 0
1, 10649, Note_on_c, 1, 61, 0
1, 10655, Note_on_c, 0, 67, 0
1, 10656, Note_on_c, 0, 72, 64
1, 10656, Note_on_c, 1, 50, 64
1, 10672, Note_on_c, 0, 66, 64
1, 10687, Note_on_c, 0, 66, 0
1, 10688, Note_on_c, 0, 67, 64
1, 10703, Note_on_c, 0, 67, 0
1, 10704, Note_on_c, 0, 69, 64
1, 10719, Note_on_c, 0, 69, 0
1, 10720, Note_on_c, 0, 67, 64
1, 10735, Note_on_c, 0, 67, 0
1, 10736, Note_on_c, 0, 66, 64
1, 10750, Note_on_c, 0, 72, 0
1, 10751, Note_on_c, 0, 66, 0
1, 10752, Note_on_c, 0, 72, 64
1, 10752, Note_on_c, 1, 63, 64
1, 10768, Note_on_c, 0, 66, 64
1, 10783, Note_on_c, 0, 66, 0
1, 10784, Note_on_c, 0, 67, 64
1, 10799, Note_on_c, 0, 67, 0
1, 10800, Note_on_c, 0, 69, 64
1, 10815, Note_on_c, 0, 69, 0
1, 10816, Note_on_c, 0, 67, 64
1, 10831, Note_on_c, 0, 67, 0
1, 10832, Note_on_c, 0, 66, 64
1, 10833, Note_on_c, 1, 50, 0
1, 10841, Note_on_c, 0, 72, 0
1, 10847, Note_on_c, 0, 66, 0
1, 10848, Note_on_c, 0, 72, 64
1, 10848, Note_on_c, 1, 63, 0
1, 10848, Note_on_c, 1, 57, 64
1, 10848, Note_on_c, 1, 54, 64
1, 10848, Note_on_c, 1, 50, 64
1, 10863, Note_on_c, 0, 72, 0
1, 10864, Note_on_c, 0, 60, 64
1, 10879, Note_on_c, 0, 60, 0
1, 10880, Note_on_c, 0, 62, 64
1, 10895, Note_on_c, 0, 62, 0
1, 10896, Note_on_c, 0, 64, 64
1, 10911, Note_on_c, 0, 64, 0
1, 10912, Note_on_c, 0, 62, 64
1, 10927, Note_on_c, 0, 62, 0
1, 10928, Note_on_c, 0, 60, 64
1, 10937, Note_on_c, 1, 57, 0
1, 10937, Note_on_c, 1, 54, 0
1, 10937, Note_on_c, 1, 50, 0
1, 10943, Note_on_c, 0, 60, 0
1, 10944, Note_on_c, 1, 59, 64
1, 10944, Note_on_c, 1, 55, 64
1, 10960, Note_on_c, 0, 86, 64
1, 10960, Note_on_c, 0, 83, 64
1, 10975, Note_on_c, 0, 86, 0
1, 10975, Note_on_c, 0, 83, 0
1, 10976, Note_on_c, 0, 84, 64
1, 10976, Note_on_c, 0, 81, 64
1, 10991, Note_on_c, 0, 84, 0
1, 10991, Note_on_c, 0, 81, 0
1, 10992, Note_on_c, 0, 83, 64
1, 10992, Note_on_c, 0, 79, 64
1, 10999, Note_on_c, 0, 83, 0
1, 10999, Note_on_c, 0, 79, 0
1, 11008, Note_on_c, 0, 83, 64
1, 11008, Note_on_c, 0, 79, 64
1, 11023, Note_on_c, 0, 83, 0
1, 11023, Note_on_c, 0, 79, 0
1, 11024, Note_on_c, 0, 81, 64
1, 11024, Note_on_c, 0, 78, 64
1, 11033, Note_on_c, 1, 59, 0
1, 11033, Note_on_c, 1, 55, 0
1, 11039, Note_on_c, 0, 81, 0
1, 11039, Note_on_c, 0, 78, 0
1, 11040, Note_on_c, 0, 79, 64
1, 11040, Note_on_c, 0, 76, 64
1, 11047, Note_on_c, 0, 79, 0
1, 11047, Note_on_c, 0, 76, 0
1, 11056, Note_on_c, 0, 79, 64
1, 11056, Note_on_c, 0, 76, 64
1, 11071, Note_on_c, 0, 79, 0
1, 11071, Note_on_c, 0, 76, 0
1, 11072, Note_on_c, 0, 78, 64
1, 11072, Note_on_c, 0, 74, 64
1, 11087, Note_on_c, 0, 78, 0
1, 11087, Note_on_c, 0, 74, 0
1, 11088, Note_on_c, 0, 76, 64
1, 11088, Note_on_c, 0, 72, 64
1, 11095, Note_on_c, 0, 76, 0
1, 11095, Note_on_c, 0, 72, 0
1, 11104, Note_on_c, 0, 76, 64
1, 11104, Note_on_c, 0, 72, 64
1, 11119, Note_on_c, 0, 76, 0
1, 11119, Note_on_c, 0, 72, 0
1, 11120, Note_on_c, 0, 74, 64
1, 11120, Note_on_c, 0, 71, 64
1, 11135, Note_on_c, 0, 74, 0
1, 11135, Note_on_c, 0, 71, 0
1, 11136, Note_on_c, 0, 72, 64
1, 11136, Note_on_c, 0, 69, 64
1, 11136, Note_on_c, 1, 38, 64
1, 11151, Note_on_c, 1, 38, 0
1, 11152, Note_on_c, 1, 50, 64
1, 11167, Note_on_c, 1, 50, 0
1, 11168, Note_on_c, 1, 54, 64
1, 11183, Note_on_c, 1, 54, 0
1, 11184, Note_on_c, 1, 57, 64
1, 11199, Note_on_c, 1, 57, 0
1, 11200, Note_on_c, 1, 62, 64
1, 11215, Note_on_c, 1, 62, 0
1, 11216, Note_on_c, 1, 66, 64
1, 11230, Note_on_c, 0, 72, 0
1, 11230, Note_on_c, 0, 69, 0
1, 11231, Note_on_c, 1, 66, 0
1, 11232, Note_on_c, 1, 67, 64
1, 11248, Note_on_c, 0, 71, 64
1, 11252, Note_on_c, 1, 67, 0
1, 11263, Note_on_c, 0, 71, 0
1, 11264, Note_on_c, 0, 74, 64
1, 11279, Note_on_c, 0, 74, 0
1, 11280, Note_on_c, 1, 60, 64
1, 11296, Note_on_c, 0, 64, 64
1, 11300, Note_on_c, 1, 60, 0
1, 11311, Note_on_c, 0, 64, 0
1, 11312, Note_on_c, 0, 72, 64
1, 11327, Note_on_c, 0, 72, 0
1, 11328, Note_on_c, 1, 59, 64
1, 11328, Note_on_c, 1, 50, 64
1, 11344, Note_on_c, 0, 62, 64
1, 11359, Note_on_c, 0, 62, 0
1, 11360, Note_on_c, 0, 67, 64
1, 11375, Note_on_c, 0, 67, 0
1, 11376, Note_on_c, 0, 71, 64
1, 11391, Note_on_c, 0, 71, 0
1, 11392, Note_on_c, 0, 74, 64
1, 11407, Note_on_c, 0, 74, 0
1, 11408, Note_on_c, 0, 71, 64
1, 11417, Note_on_c, 1, 59, 0
1, 11417, Note_on_c, 1, 50, 0
1, 11423, Note_on_c, 0, 71, 0
1, 11424, Note_on_c, 0, 72, 64
1, 11424, Note_on_c, 1, 57, 64
1, 11424, Note_on_c, 1, 50, 64
1, 11439, Note_on_c, 0, 72, 0
1, 11440, Note_on_c, 0, 69, 64
1, 11455, Note_on_c, 0, 69, 0
1, 11456, Note_on_c, 0, 66, 64
1, 11471, Note_on_c, 0, 66, 0
1, 11472, Note_on_c, 0, 62, 64
1, 11487, Note_on_c, 0, 62, 0
1, 11488, Note_on_c, 0, 60, 64
1, 11503, Note_on_c, 0, 60, 0
1, 11504, Note_on_c, 0, 69, 64
1, 11513, Note_on_c, 1, 57, 0
1, 11513, Note_on_c, 1, 50, 0
1, 11519, Note_on_c, 0, 69, 0
1, 11520, Note_on_c, 1, 59, 64
1, 11520, Note_on_c, 1, 55, 64
1, 11536, Note_on_c, 0, 86, 64
1, 11536, Note_on_c, 0, 83, 64
1, 11551, Note_on_c, 0, 86, 0
1, 11551, Note_on_c, 0, 83, 0
1, 11552, Note_on_c, 0, 84, 64
1, 11552, Note_on_c, 0, 81, 64
1, 11567, Note_on_c, 0, 84, 0
1, 11567, Note_on_c, 0, 81, 0
1, 11568, Note_on_c, 0, 83, 64
1, 11568, Note_on_c, 0, 79, 64
1, 11575, Note_on_c, 0, 83, 0
1, 11575, Note_on_c, 0, 79, 0
1, 11584, Note_on_c, 0, 83, 64
1, 11584, Note_on_c, 0, 79, 64
1, 11599, Note_on_c, 0, 83, 0
1, 11599, Note_on_c, 0, 79, 0
1, 11600, Note_on_c, 0, 81, 64
1, 11600, Note_on_c, 0, 78, 64
1, 11609, Note_on_c, 1, 59, 0
1, 11609, Note_on_c, 1, 55, 0
1, 11615, Note_on_c, 0, 81, 0
1, 11615, Note_on_c, 0, 78, 0
1, 11616, Note_on_c, 0, 79, 64
1, 11616, Note_on_c, 0, 76, 64
1, 11623, Note_on_c, 0, 79, 0
1, 11623, Note_on_c, 0, 76, 0
1, 11632, Note_on_c, 0, 79, 64
1, 11632, Note_on_c, 0, 76, 64
1, 11647, Note_on_c, 0, 79, 0
1, 11647, Note_on_c, 0, 76, 0
1, 11648, Note_on_c, 0, 78, 64
1, 11648, Note_on_c, 0, 74, 64
1, 11663, Note_on_c, 0, 78, 0
1, 11663, Note_on_c, 0, 74, 0
1, 11664, Note_on_c, 0, 76, 64
1, 11664, Note_on_c, 0, 72, 64
1, 11671, Note_on_c, 0, 76, 0
1, 11671, Note_on_c, 0, 72, 0
1, 11680, Note_on_c, 0, 76, 64
1, 11680, Note_on_c, 0, 72, 64
1, 11695, Note_on_c, 0, 76, 0
1, 11695, Note_on_c, 0, 72, 0
1, 11696, Note_on_c, 0, 74, 64
1, 11696, Note_on_c, 0, 71, 64
1, 11711, Note_on_c, 0, 74, 0
1, 11711, Note_on_c, 0, 71, 0
1, 11712, Note_on_c, 0, 72, 64
1, 11712, Note_on_c, 0, 69, 64
1, 11712, Note_on_c, 1, 38, 64
1, 11727, Note_on_c, 1, 38, 0
1, 11728, Note_on_c, 1, 50, 64
1, 11743, Note_on_c, 1, 50, 0
1, 11744, Note_on_c, 1, 54, 64
1, 11759, Note_on_c, 1, 54, 0
1, 11760, Note_on_c, 1, 57, 64
1, 11775, Note_on_c, 1, 57, 0
1, 11776, Note_on_c, 1, 62, 64
1, 11791, Note_on_c, 1, 62, 0
1, 11792, Note_on_c, 1, 66, 64
1, 11806, Note_on_c, 0, 72, 0
1, 11806, Note_on_c, 0, 69, 0
1, 11807, Note_on_c, 1, 66, 0
1, 11808, Note_on_c, 1, 67, 64
1, 11824, Note_on_c, 0, 71, 64
1, 11828, Note_on_c, 1, 67, 0
1, 11839, Note_on_c, 0, 71, 0
1, 11840, Note_on_c, 0, 74, 64
1, 11855, Note_on_c, 0, 74, 0
1, 11856, Note_on_c, 1, 60, 64
1, 11872, Note_on_c, 0, 64, 64
1, 11876, Note_on_c, 1, 60, 0
1, 11887, Note_on_c, 0, 64, 0
1, 11888, Note_on_c, 0, 72, 64
1, 11903, Note_on_c, 0, 72, 0
1, 11904, Note_on_c, 1, 59, 64
1, 11904, Note_on_c, 1, 50, 64
1, 11920, Note_on_c, 0, 62, 64
1, 11935, Note_on_c, 0, 62, 0
1, 11936, Note_on_c, 0, 67, 64
1, 11951, Note_on_c, 0, 67, 0
1, 11952, Note_on_c, 0, 71, 64
1, 11967, Note_on_c, 0, 71, 0
1, 11968, Note_on_c, 0, 74, 64
1, 11983, Note_on_c, 0, 74, 0
1, 11984, Note_on_c, 0, 71, 64
1, 11993, Note_on_c, 1, 59, 0
1, 11993, Note_on_c, 1, 50, 0
1, 11999, Note_on_c, 0, 71, 0
1, 12000, Note_on_c, 0, 72, 64
1, 12000, Note_on_c, 1, 38, 64
1, 12015, Note_on_c, 0, 72, 0
1, 12016, Note_on_c, 0, 69, 64
1, 12031, Note_on_c, 0, 69, 0
1, 12032, Note_on_c, 0, 66, 64
1, 12047, Note_on_c, 0, 66, 0
1, 12048, Note_on_c, 0, 62, 64
1, 12063, Note_on_c, 0, 62, 0
1, 12064, Note_on_c, 0, 60, 64
1, 12079, Note_on_c, 0, 60, 0
1, 12080, Note_on_c, 0, 69, 64
1, 12089, Note_on_c, 1, 38, 0
1, 12095, Note_on_c, 0, 69, 0
1, 12096, Note_on_c, 0, 60, 64
1, 12096, Note_on_c, 1, 54, 64
1, 12096, Note_on_c, 1, 40, 64
1, 12185, Note_on_c, 1, 54, 0
1, 12192, Note_on_c, 0, 60, 0
1, 12192, Note_on_c, 0, 59, 64
1, 12192, Note_on_c, 1, 55, 64
1, 12192, Note_on_c, 1, 52, 64
1, 12361, Note_on_c, 1, 40, 0
1, 12369, Note_on_c, 0, 59, 0
1, 12369, Note_on_c, 1, 55, 0
1, 12369, Note_on_c, 1, 52, 0
1, 12384, Note_on_c, 1, 48, 64
1, 12384, Note_on_c, 1, 36, 64
1, 12400, Note_on_c, 0, 68, 64
1, 12400, Note_on_c, 0, 56, 64
1, 12415, Note_on_c, 0, 68, 0
1, 12415, Note_on_c, 0, 56, 0
1, 12416, Note_on_c, 0, 69, 64
1, 12416, Note_on_c, 0, 57, 64
1, 12431, Note_on_c, 0, 69, 0
1, 12431, Note_on_c, 0, 57, 0
1, 12432, Note_on_c, 0, 71, 64
1, 12432, Note_on_c, 0, 59, 64
1, 12447, Note_on_c, 0, 71, 0
1, 12447, Note_on_c, 0, 59, 0
1, 12448, Note_on_c, 0, 72, 64
1, 12448, Note_on_c, 0, 60, 64
1, 12463, Note_on_c, 0, 72, 0
1, 12463, Note_on_c, 0, 60, 0
1, 12464, Note_on_c, 0, 74, 64
1, 12464, Note_on_c, 0, 62, 64
1, 12479, Note_on_c, 0, 74, 0
1, 12479, Note_on_c, 0, 62, 0
1, 12480, Note_on_c, 0, 76, 64
1, 12480, Note_on_c, 0, 64, 64
1, 12495, Note_on_c, 0, 76, 0
1, 12495, Note_on_c, 0, 64, 0
1, 12496, Note_on_c, 0, 78, 64
1, 12496, Note_on_c, 0, 66, 64
1, 12511, Note_on_c, 0, 78, 0
1, 12511, Note_on_c, 0, 66, 0
1, 12512, Note_on_c, 0, 80, 64
1, 12512, Note_on_c, 0, 68, 64
1, 12527, Note_on_c, 0, 80, 0
1, 12527, Note_on_c, 0, 68, 0
1, 12528, Note_on_c, 0, 81, 64
1, 12528, Note_on_c, 0, 69, 64
1, 12543, Note_on_c, 0, 81, 0
1, 12543, Note_on_c, 0, 69, 0
1, 12544, Note_on_c, 0, 83, 64
1, 12544, Note_on_c, 0, 71, 64
1, 12559, Note_on_c, 0, 83, 0
1, 12559, Note_on_c, 0, 71, 0
1, 12560, Note_on_c, 0, 84, 64
1, 12560, Note_on_c, 0, 72, 64
1, 12561, Note_on_c, 1, 48, 0
1, 12561, Note_on_c, 1, 36, 0
1, 12575, Note_on_c, 0, 84, 0
1, 12575, Note_on_c, 0, 72, 0
1, 12576, Note_on_c, 0, 86, 64
1, 12576, Note_on_c, 0, 74, 64
1, 12591, Note_on_c, 0, 86, 0
1, 12591, Note_on_c, 0, 74, 0
1, 12592, Note_on_c, 0, 88, 64
1, 12592, Note_on_c, 0, 76, 64
1, 12607, Note_on_c, 0, 88, 0
1, 12607, Note_on_c, 0, 76, 0
1, 12608, Note_on_c, 0, 86, 64
1, 12608, Note_on_c, 0, 74, 64
1, 12623, Note_on_c, 0, 86, 0
1, 12623, Note_on_c, 0, 74, 0
1, 12624, Note_on_c, 0, 84, 64
1, 12624, Note_on_c, 0, 72, 64
1, 12639, Note_on_c, 0, 84, 0
1, 12639, Note_on_c, 0, 72, 0
1, 12640, Note_on_c, 0, 83, 64
1, 12640, Note_on_c, 0, 71, 64
1, 12655, Note_on_c, 0, 83, 0
1, 12655, Note_on_c, 0, 71, 0
1, 12656, Note_on_c, 0, 81, 64
1, 12656, Note_on_c, 0, 69, 64
1, 12671, Note_on_c, 0, 81, 0
1, 12671, Note_on_c, 0, 69, 0
1, 12672, Note_on_c, 0, 79, 64
1, 12672, Note_on_c, 0, 67, 64
1, 12672, Note_on_c, 1, 59, 64
1, 12672, Note_on_c, 1, 55, 64
1, 12672, Note_on_c, 1, 50, 64
1, 12692, Note_on_c, 0, 79, 0
1, 12692, Note_on_c, 0, 67, 0
1, 12717, Note_on_c, 1, 59, 0
1, 12717, Note_on_c, 1, 55, 0
1, 12717, Note_on_c, 1, 50, 0
1, 12720, Note_on_c, 0, 86, 64
1, 12720, Note_on_c, 0, 74, 64
1, 12740, Note_on_c, 0, 86, 0
1, 12740, Note_on_c, 0, 74, 0
1, 12768, Note_on_c, 1, 71, 64
1, 12768, Note_on_c, 1, 67, 64
1, 12768, Note_on_c, 1, 62, 64
1, 12813, Note_on_c, 1, 71, 0
1, 12813, Note_on_c, 1, 67, 0
1, 12813, Note_on_c, 1, 62, 0
1, 12816, Note_on_c, 0, 84, 64
1, 12828, Note_on_c, 0, 84, 0
1, 12828, Note_on_c, 0, 83, 64
1, 12840, Note_on_c, 0, 83, 0
1, 12840, Note_on_c, 0, 81, 64
1, 12852, Note_on_c, 0, 81, 0
1, 12852, Note_on_c, 0, 79, 64
1, 12864, Note_on_c, 0, 79, 0
1, 12864, Note_on_c, 0, 83, 64
1, 12864, Note_on_c, 1, 72, 64
1, 12864, Note_on_c, 1, 69, 64
1, 12864, Note_on_c, 1, 66, 64
1, 12864, Note_on_c, 1, 62, 64
1, 12870, Note_on_c, 0, 83, 0
1, 12870, Note_on_c, 0, 81, 64
1, 12876, Note_on_c, 0, 81, 0
1, 12876, Note_on_c, 0, 83, 64
1, 12882, Note_on_c, 0, 83, 0
1, 12882, Note_on_c, 0, 81, 64
1, 12888, Note_on_c, 0, 81, 0
1, 12888, Note_on_c, 0, 83, 64
1, 12894, Note_on_c, 0, 83, 0
1, 12894, Note_on_c, 0, 81, 64
1, 12900, Note_on_c, 0, 81, 0
1, 12900, Note_on_c, 0, 83, 64
1, 12905, Note_on_c, 0, 83, 0
1, 12905, Note_on_c, 0, 81, 64
1, 12910, Note_on_c, 0, 81, 0
1, 12910, Note_on_c, 0, 83, 64
1, 12915, Note_on_c, 0, 83, 0
1, 12915, Note_on_c, 0, 81, 64
1, 12920, Note_on_c, 0, 81, 0
1, 12920, Note_on_c, 0, 83, 64
1, 12925, Note_on_c, 0, 83, 0
1, 12925, Note_on_c, 0, 81, 64
1, 12930, Note_on_c, 0, 81, 0
1, 12930, Note_on_c, 0, 83, 64
1, 12935, Note_on_c, 0, 83, 0
1, 12935, Note_on_c, 0, 81, 64
1, 12940, Note_on_c, 0, 81, 0
1, 12940, Note_on_c, 0, 83, 64
1, 12945, Note_on_c, 0, 83, 0
1, 12945, Note_on_c, 0, 81, 64
1, 12950, Note_on_c, 0, 81, 0
1, 12950, Note_on_c, 0, 79, 64
1, 12953, Note_on_c, 1, 72, 0
1, 12953, Note_on_c, 1, 69, 0
1, 12953, Note_on_c, 1, 66, 0
1, 12953, Note_on_c, 1, 62, 0
1, 12955, Note_on_c, 0, 79, 0
1, 12955, Note_on_c, 0, 81, 64
1, 12960, Note_on_c, 0, 81, 0
1, 12960, Note_on_c, 0, 79, 64
1, 12960, Note_on_c, 1, 55, 64
1, 12975, Note_on_c, 1, 55, 0
1, 12976, Note_on_c, 1, 58, 64
1, 12991, Note_on_c, 1, 58, 0
1, 12992, Note_on_c, 1, 62, 64
1, 13007, Note_on_c, 1, 62, 0
1, 13008, Note_on_c, 1, 55, 64
1, 13023, Note_on_c, 1, 55, 0
1, 13024, Note_on_c, 1, 58, 64
1, 13039, Note_on_c, 1, 58, 0
1, 13040, Note_on_c, 1, 62, 64
1, 13049, Note_on_c, 0, 79, 0
1, 13055, Note_on_c, 1, 62, 0
1, 13056, Note_on_c, 0, 82, 64
1, 13056, Note_on_c, 1, 55, 64
1, 13071, Note_on_c, 1, 55, 0
1, 13072, Note_on_c, 1, 58, 64
1, 13087, Note_on_c, 1, 58, 0
1, 13088, Note_on_c, 1, 62, 64
1, 13103, Note_on_c, 1, 62, 0
1, 13104, Note_on_c, 1, 55, 64
1, 13119, Note_on_c, 1, 55, 0
1, 13120, Note_on_c, 1, 58, 64
1, 13123, Note_on_c, 0, 82, 0
1, 13128, Note_on_c, 0, 79, 64
1, 13135, Note_on_c, 1, 58, 0
1, 13136, Note_on_c, 1, 62, 64
1, 13140, Note_on_c, 0, 79, 0
1, 13140, Note_on_c, 0, 81, 64
1, 13151, Note_on_c, 1, 62, 0
1, 13152, Note_on_c, 0, 81, 0
1, 13152, Note_on_c, 0, 82, 64
1, 13152, Note_on_c, 1, 55, 64
1, 13167, Note_on_c, 0, 82, 0
1, 13167, Note_on_c, 1, 55, 0
1, 13168, Note_on_c, 0, 81, 64
1, 13168, Note_on_c, 1, 58, 64
1, 13183, Note_on_c, 0, 81, 0
1, 13183, Note_on_c, 1, 58, 0
1, 13184, Note_on_c, 0, 79, 64
1, 13184, Note_on_c, 1, 62, 64
1, 13199, Note_on_c, 0, 79, 0
1, 13199, Note_on_c, 1, 62, 0
1, 13200, Note_on_c, 0, 77, 64
1, 13200, Note_on_c, 1, 55, 64
1, 13215, Note_on_c, 0, 77, 0
1, 13215, Note_on_c, 1, 55, 0
1, 13216, Note_on_c, 0, 76, 64
1, 13216, Note_on_c, 1, 58, 64
1, 13231, Note_on_c, 0, 76, 0
1, 13231, Note_on_c, 1, 58, 0
1, 13232, Note_on_c, 0, 74, 64
1, 13232, Note_on_c, 1, 62, 64
1, 13247, Note_on_c, 0, 74, 0
1, 13247, Note_on_c, 1, 62, 0
1, 13248, Note_on_c, 0, 73, 64
1, 13248, Note_on_c, 1, 57, 64
1, 13254, Note_on_c, 0, 73, 0
1, 13254, Note_on_c, 0, 74, 64
1, 13260, Note_on_c, 0, 74, 0
1, 13260, Note_on_c, 0, 73, 64
1, 13263, Note_on_c, 1, 57, 0
1, 13264, Note_on_c, 1, 64, 64
1, 13279, Note_on_c, 1, 64, 0
1, 13280, Note_on_c, 1, 67, 64
1, 13295, Note_on_c, 1, 67, 0
1, 13296, Note_on_c, 1, 57, 64
1, 13311, Note_on_c, 1, 57, 0
1, 13312, Note_on_c, 1, 64, 64
1, 13327, Note_on_c, 1, 64, 0
1, 13328, Note_on_c, 1, 67, 64
1, 13338, Note_on_c, 0, 73, 0
1, 13343, Note_on_c, 1, 67, 0
1, 13344, Note_on_c, 0, 88, 64
1, 13344, Note_on_c, 1, 57, 64
1, 13359, Note_on_c, 1, 57, 0
1, 13360, Note_on_c, 1, 64, 64
1, 13375, Note_on_c, 1, 64, 0
1, 13376, Note_on_c, 1, 67, 64
1, 13391, Note_on_c, 1, 67, 0
1, 13392, Note_on_c, 1, 57, 64
1, 13407, Note_on_c, 1, 57, 0
1, 13408, Note_on_c, 1, 64, 64
1, 13411, Note_on_c, 0, 88, 0
1, 13416, Note_on_c, 0, 85, 64
1, 13423, Note_on_c, 1, 64, 0
1, 13424, Note_on_c, 1, 67, 64
1, 13428, Note_on_c, 0, 85, 0
1, 13428, Note_on_c, 0, 86, 64
1, 13439, Note_on_c, 1, 67, 0
1, 13440, Note_on_c, 0, 86, 0
1, 13440, Note_on_c, 0, 88, 64
1, 13440, Note_on_c, 1, 57, 64
1, 13455, Note_on_c, 0, 88, 0
1, 13455, Note_on_c, 1, 57, 0
1, 13456, Note_on_c, 0, 86, 64
1, 13456, Note_on_c, 1, 64, 64
1, 13471, Note_on_c, 0, 86, 0
1, 13471, Note_on_c, 1, 64, 0
1, 13472, Note_on_c, 0, 85, 64
1, 13472, Note_on_c, 1, 67, 64
1, 13487, Note_on_c, 0, 85, 0
1, 13487, Note_on_c, 1, 67, 0
1, 13488, Note_on_c, 0, 82, 64
1, 13488, Note_on_c, 1, 57, 64
1, 13503, Note_on_c, 0, 82, 0
1, 13503, Note_on_c, 1, 57, 0
1, 13504, Note_on_c, 0, 81, 64
1, 13504, Note_on_c, 1, 64, 64
1, 13519, Note_on_c, 0, 81, 0
1, 13519, Note_on_c, 1, 64, 0
1, 13520, Note_on_c, 0, 79, 64
1, 13520, Note_on_c, 1, 67, 64
1, 13535, Note_on_c, 0, 79, 0
1, 13535, Note_on_c, 1, 67, 0
1, 13536, Note_on_c, 0, 79, 64
1, 13536, Note_on_c, 1, 50, 64
1, 13551, Note_on_c, 1, 50, 0
1, 13552, Note_on_c, 1, 57, 64
1, 13567, Note_on_c, 1, 57, 0
1, 13568, Note_on_c, 1, 62, 64
1, 13581, Note_on_c, 0, 79, 0
1, 13583, Note_on_c, 1, 62, 0
1, 13584, Note_on_c, 0, 77, 64
1, 13584, Note_on_c, 1, 50, 64
1, 13590, Note_on_c, 0, 77, 0
1, 13590, Note_on_c, 0, 79, 64
1, 13596, Note_on_c, 0, 79, 0
1, 13596, Note_on_c, 0, 77, 64
1, 13599, Note_on_c, 1, 50, 0
1, 13600, Note_on_c, 1, 57, 64
1, 13615, Note_on_c, 1, 57, 0
1, 13616, Note_on_c, 1, 62, 64
1, 13618, Note_on_c, 0, 77, 0
1, 13620, Note_on_c, 0, 79, 64
1, 13631, Note_on_c, 1, 62, 0
1, 13632, Note_on_c, 0, 79, 0
1, 13632, Note_on_c, 0, 81, 64
1, 13632, Note_on_c, 1, 53, 64
1, 13647, Note_on_c, 0, 81, 0
1, 13647, Note_on_c, 1, 53, 0
1, 13648, Note_on_c, 0, 82, 64
1, 13648, Note_on_c, 1, 57, 64
1, 13663, Note_on_c, 0, 82, 0
1, 13663, Note_on_c, 1, 57, 0
1, 13664, Note_on_c, 0, 79, 64
1, 13664, Note_on_c, 1, 62, 64
1, 13679, Note_on_c, 0, 79, 0
1, 13679, Note_on_c, 1, 62, 0
1, 13680, Note_on_c, 0, 81, 64
1, 13680, Note_on_c, 1, 53, 64
1, 13695, Note_on_c, 0, 81, 0
1, 13695, Note_on_c, 1, 53, 0
1, 13696, Note_on_c, 0, 82, 64
1, 13696, Note_on_c, 1, 57, 64
1, 13711, Note_on_c, 0, 82, 0
1, 13711, Note_on_c, 1, 57, 0
1, 13712, Note_on_c, 0, 79, 64
1, 13712, Note_on_c, 1, 62, 64
1, 13727, Note_on_c, 0, 79, 0
1, 13727, Note_on_c, 1, 62, 0
1, 13728, Note_on_c, 0, 81, 64
1, 13728, Note_on_c, 1, 53, 64
1, 13743, Note_on_c, 0, 81, 0
1, 13743, Note_on_c, 1, 53, 0
1, 13744, Note_on_c, 0, 79, 64
1, 13744, Note_on_c, 1, 57, 64
1, 13759, Note_on_c, 0, 79, 0
1, 13759, Note_on_c, 1, 57, 0
1, 13760, Note_on_c, 0, 77, 64
1, 13760, Note_on_c, 1, 62, 64
1, 13775, Note_on_c, 0, 77, 0
1, 13775, Note_on_c, 1, 62, 0
1, 13776, Note_on_c, 0, 76, 64
1, 13776, Note_on_c, 1, 54, 64
1, 13791, Note_on_c, 0, 76, 0
1, 13791, Note_on_c, 1, 54, 0
1, 13792, Note_on_c, 0, 74, 64
1, 13792, Note_on_c, 1, 57, 64
1, 13807, Note_on_c, 0, 74, 0
1, 13807, Note_on_c, 1, 57, 0
1, 13808, Note_on_c, 0, 72, 64
1, 13808, Note_on_c, 1, 62, 64
1, 13823, Note_on_c, 0, 72, 0
1, 13823, Note_on_c, 1, 62, 0
1, 13824, Note_on_c, 0, 72, 64
1, 13824, Note_on_c, 1, 55, 64
1, 13839, Note_on_c, 1, 55, 0
1, 13840, Note_on_c, 1, 59, 64
1, 13855, Note_on_c, 1, 59, 0
1, 13856, Note_on_c, 1, 62, 64
1, 13869, Note_on_c, 0, 72, 0
1, 13871, Note_on_c, 1, 62, 0
1, 13872, Note_on_c, 0, 71, 64
1, 13872, Note_on_c, 1, 55, 64
1, 13887, Note_on_c, 1, 55, 0
1, 13888, Note_on_c, 1, 59, 64
1, 13903, Note_on_c, 1, 59, 0
1, 13904, Note_on_c, 1, 62, 64
1, 13906, Note_on_c, 0, 71, 0
1, 13908, Note_on_c, 0, 86, 64
1, 13919, Note_on_c, 1, 62, 0
1, 13920, Note_on_c, 0, 86, 0
1, 13920, Note_on_c, 0, 86, 64
1, 13920, Note_on_c, 1, 55, 64
1, 13935, Note_on_c, 1, 55, 0
1, 13936, Note_on_c, 1, 59, 64
1, 13951, Note_on_c, 1, 59, 0
1, 13952, Note_on_c, 1, 62, 64
1, 13967, Note_on_c, 1, 62, 0
1, 13968, Note_on_c, 1, 55, 64
1, 13983, Note_on_c, 1, 55, 0
1, 13984, Note_on_c, 1, 59, 64
1, 13987, Note_on_c, 0, 86, 0
1, 13992, Note_on_c, 0, 83, 64
1, 13999, Note_on_c, 1, 59, 0
1, 14000, Note_on_c, 1, 62, 64
1, 14004, Note_on_c, 0, 83, 0
1, 14004, Note_on_c, 0, 84, 64
1, 14015, Note_on_c, 1, 62, 0
1, 14016, Note_on_c, 0, 84, 0
1, 14016, Note_on_c, 0, 86, 64
1, 14016, Note_on_c, 1, 55, 64
1, 14031, Note_on_c, 0, 86, 0
1, 14031, Note_on_c, 1, 55, 0
1, 14032, Note_on_c, 0, 84, 64
1, 14032, Note_on_c, 1, 59, 64
1, 14047, Note_on_c, 0, 84, 0
1, 14047, Note_on_c, 1, 59, 0
1, 14048, Note_on_c, 0, 83, 64
1, 14048, Note_on_c, 1, 62, 64
1, 14063, Note_on_c, 0, 83, 0
1, 14063, Note_on_c, 1, 62, 0
1, 14064, Note_on_c, 0, 81, 64
1, 14064, Note_on_c, 1, 55, 64
1, 14079, Note_on_c, 0, 81, 0
1, 14079, Note_on_c, 1, 55, 0
1, 14080, Note_on_c, 0, 79, 64
1, 14080, Note_on_c, 1, 59, 64
1, 14095, Note_on_c, 0, 79, 0
1, 14095, Note_on_c, 1, 59, 0
1, 14096, Note_on_c, 0, 77, 64
1, 14096, Note_on_c, 1, 62, 64
1, 14111, Note_on_c, 0, 77, 0
1, 14111, Note_on_c, 1, 62, 0
1, 14112, Note_on_c, 0, 77, 64
1, 14112, Note_on_c, 1, 55, 64
1, 14127, Note_on_c, 1, 55, 0
1, 14128, Note_on_c, 1, 60, 64
1, 14143, Note_on_c, 1, 60, 0
1, 14144, Note_on_c, 1, 64, 64
1, 14157, Note_on_c, 0, 77, 0
1, 14159, Note_on_c, 1, 64, 0
1, 14160, Note_on_c, 0, 76, 64
1, 14160, Note_on_c, 1, 55, 64
1, 14166, Note_on_c, 0, 76, 0
1, 14166, Note_on_c, 0, 77, 64
1, 14172, Note_on_c, 0, 77, 0
1, 14172, Note_on_c, 0, 76, 64
1, 14175, Note_on_c, 1, 55, 0
1, 14176, Note_on_c, 1, 60, 64
1, 14191, Note_on_c, 1, 60, 0
1, 14192, Note_on_c, 1, 64, 64
1, 14206, Note_on_c, 0, 76, 0
1, 14207, Note_on_c, 1, 64, 0
1, 14208, Note_on_c, 0, 84, 64
1, 14208, Note_on_c, 1, 55, 64
1, 14223, Note_on_c, 0, 84, 0
1, 14223, Note_on_c, 1, 55, 0
1, 14224, Note_on_c, 0, 88, 64
1, 14224, Note_on_c, 1, 60, 64
1, 14239, Note_on_c, 0, 88, 0
1, 14239, Note_on_c, 1, 60, 0
1, 14240, Note_on_c, 0, 86, 64
1, 14240, Note_on_c, 1, 64, 64
1, 14255, Note_on_c, 0, 86, 0
1, 14255, Note_on_c, 1, 64, 0
1, 14256, Note_on_c, 0, 84, 64
1, 14256, Note_on_c, 1, 55, 64
1, 14271, Note_on_c, 0, 84, 0
1, 14271, Note_on_c, 1, 55, 0
1, 14272, Note_on_c, 0, 88, 64
1, 14272, Note_on_c, 1, 60, 64
1, 14287, Note_on_c, 0, 88, 0
1, 14287, Note_on_c, 1, 60, 0
1, 14288, Note_on_c, 0, 86, 64
1, 14288, Note_on_c, 1, 64, 64
1, 14303, Note_on_c, 0, 86, 0
1, 14303, Note_on_c, 1, 64, 0
1, 14304, Note_on_c, 0, 84, 64
1, 14304, Note_on_c, 1, 55, 64
1, 14319, Note_on_c, 0, 84, 0
1, 14319, Note_on_c, 1, 55, 0
1, 14320, Note_on_c, 0, 83, 64
1, 14320, Note_on_c, 1, 60, 64
1, 14335, Note_on_c, 0, 83, 0
1, 14335, Note_on_c, 1, 60, 0
1, 14336, Note_on_c, 0, 81, 64
1, 14336, Note_on_c, 1, 64, 64
1, 14351, Note_on_c, 0, 81, 0
1, 14351, Note_on_c, 1, 64, 0
1, 14352, Note_on_c, 0, 79, 64
1, 14352, Note_on_c, 1, 55, 64
1, 14367, Note_on_c, 0, 79, 0
1, 14367, Note_on_c, 1, 55, 0
1, 14368, Note_on_c, 0, 77, 64
1, 14368, Note_on_c, 1, 60, 64
1, 14383, Note_on_c, 0, 77, 0
1, 14383, Note_on_c, 1, 60, 0
1, 14384, Note_on_c, 0, 76, 64
1, 14384, Note_on_c, 1, 64, 64
1, 14399, Note_on_c, 0, 76, 0
1, 14399, Note_on_c, 1, 64, 0
1, 14400, Note_on_c, 0, 77, 64
1, 14400, Note_on_c, 0, 74, 64
1, 14400, Note_on_c, 1, 55, 64
1, 14415, Note_on_c, 1, 55, 0
1, 14416, Note_on_c, 1, 59, 64
1, 14431, Note_on_c, 1, 59, 0
1, 14432, Note_on_c, 1, 60, 64
1, 14447, Note_on_c, 1, 60, 0
1, 14448, Note_on_c, 1, 62, 64
1, 14463, Note_on_c, 1, 62, 0
1, 14464, Note_on_c, 1, 64, 64
1, 14479, Note_on_c, 1, 64, 0
1, 14480, Note_on_c, 1, 65, 64
1, 14495, Note_on_c, 1, 65, 0
1, 14496, Note_on_c, 1, 66, 64
1, 14511, Note_on_c, 1, 66, 0
1, 14512, Note_on_c, 1, 67, 64
1, 14527, Note_on_c, 1, 67, 0
1, 14528, Note_on_c, 1, 68, 64
1, 14543, Note_on_c, 1, 68, 0
1, 14544, Note_on_c, 1, 69, 64
1, 14559, Note_on_c, 1, 69, 0
1, 14560, Note_on_c, 1, 70, 64
1, 14575, Note_on_c, 1, 70, 0
1, 14576, Note_on_c, 1, 71, 64
1, 14577, Note_on_c, 0, 77, 0
1, 14577, Note_on_c, 0, 74, 0
1, 14591, Note_on_c, 1, 71, 0
1, 14592, Note_on_c, 1, 72, 64
1, 14608, Note_on_c, 0, 76, 64
1, 14623, Note_on_c, 0, 76, 0
1, 14624, Note_on_c, 0, 79, 64
1, 14639, Note_on_c, 0, 79, 0
1, 14640, Note_on_c, 0, 84, 64
1, 14655, Note_on_c, 0, 84, 0
1, 14656, Note_on_c, 0, 79, 64
1, 14671, Note_on_c, 0, 79, 0
1, 14672, Note_on_c, 0, 76, 64
1, 14681, Note_on_c, 1, 72, 0
1, 14687, Note_on_c, 0, 76, 0
1, 14688, Note_on_c, 0, 76, 64
1, 14688, Note_on_c, 1, 69, 64
1, 14688, Note_on_c, 1, 65, 64
1, 14703, Note_on_c, 0, 76, 0
1, 14704, Note_on_c, 0, 77, 64
1, 14719, Note_on_c, 0, 77, 0
1, 14720, Note_on_c, 0, 73, 64
1, 14735, Note_on_c, 0, 73, 0
1, 14736, Note_on_c, 0, 74, 64
1, 14751, Note_on_c, 0, 74, 0
1, 14752, Note_on_c, 0, 82, 64
1, 14767, Note_on_c, 0, 82, 0
1, 14768, Note_on_c, 0, 81, 64
1, 14783, Note_on_c, 0, 81, 0
1, 14784, Note_on_c, 0, 80, 64
1, 14791, Note_on_c, 0, 80, 0
1, 14800, Note_on_c, 0, 81, 64
1, 14815, Note_on_c, 0, 81, 0
1, 14816, Note_on_c, 0, 79, 64
1, 14831, Note_on_c, 0, 79, 0
1, 14832, Note_on_c, 0, 77, 64
1, 14839, Note_on_c, 0, 77, 0
1, 14848, Note_on_c, 0, 79, 64
1, 14863, Note_on_c, 0, 79, 0
1, 14864, Note_on_c, 0, 77, 64
1, 14865, Note_on_c, 1, 65, 0
1, 14879, Note_on_c, 0, 77, 0
1, 14880, Note_on_c, 0, 76, 64
1, 14880, Note_on_c, 1, 66, 64
1, 14887, Note_on_c, 0, 76, 0
1, 14896, Note_on_c, 0, 77, 64
1, 14911, Note_on_c, 0, 77, 0
1, 14912, Note_on_c, 0, 76, 64
1, 14927, Note_on_c, 0, 76, 0
1, 14928, Note_on_c, 0, 74, 64
1, 14943, Note_on_c, 0, 74, 0
1, 14944, Note_on_c, 0, 72, 64
1, 14953, Note_on_c, 1, 69, 0
1, 14959, Note_on_c, 0, 72, 0
1, 14960, Note_on_c, 0, 81, 64
1, 14969, Note_on_c, 1, 66, 0
1, 14975, Note_on_c, 0, 81, 0
1, 14976, Note_on_c, 0, 74, 64
1, 14976, Note_on_c, 1, 67, 64
1, 14976, Note_on_c, 1, 67, 64
1, 15021, Note_on_c, 0, 74, 0
1, 15024, Note_on_c, 0, 72, 64
1, 15030, Note_on_c, 0, 72, 0
1, 15030, Note_on_c, 0, 74, 64
1, 15036, Note_on_c, 0, 74, 0
1, 15036, Note_on_c, 0, 72, 64
1, 15065, Note_on_c, 1, 67, 0
1, 15065, Note_on_c, 1, 67, 0
1, 15072, Note_on_c, 0, 72, 0
1, 15072, Note_on_c, 0, 71, 64
1, 15072, Note_on_c, 1, 55, 64
1, 15087, Note_on_c, 1, 55, 0
1, 15088, Note_on_c, 1, 65, 64
1, 15088, Note_on_c, 1, 62, 64
1, 15103, Note_on_c, 1, 65, 0
1, 15103, Note_on_c, 1, 62, 0
1, 15104, Note_on_c, 1, 64, 64
1, 15104, Note_on_c, 1, 60, 64
1, 15119, Note_on_c, 1, 64, 0
1, 15119, Note_on_c, 1, 60, 0
1, 15120, Note_on_c, 1, 62, 64
1, 15120, Note_on_c, 1, 59, 64
1, 15127, Note_on_c, 1, 62, 0
1, 15127, Note_on_c, 1, 59, 0
1, 15136, Note_on_c, 1, 62, 64
1, 15136, Note_on_c, 1, 59, 64
1, 15151, Note_on_c, 1, 62, 0
1, 15151, Note_on_c, 1, 59, 0
1, 15152, Note_on_c, 1, 60, 64
1, 15152, Note_on_c, 1, 57, 64
1, 15161, Note_on_c, 0, 71, 0
1, 15167, Note_on_c, 1, 60, 0
1, 15167, Note_on_c, 1, 57, 0
1, 15168, Note_on_c, 1, 59, 64
1, 15168, Note_on_c, 1, 55, 64
1, 15175, Note_on_c, 1, 59, 0
1, 15175, Note_on_c, 1, 55, 0
1, 15184, Note_on_c, 1, 59, 64
1, 15184, Note_on_c, 1, 55, 64
1, 15199, Note_on_c, 1, 59, 0
1, 15199, Note_on_c, 1, 55, 0
1, 15200, Note_on_c, 1, 57, 64
1, 15200, Note_on_c, 1, 53, 64
1, 15215, Note_on_c, 1, 57, 0
1, 15215, Note_on_c, 1, 53, 0
1, 15216, Note_on_c, 1, 55, 64
1, 15216, Note_on_c, 1, 52, 64
1, 15223, Note_on_c, 1, 55, 0
1, 15223, Note_on_c, 1, 52, 0
1, 15232, Note_on_c, 1, 55, 64
1, 15232, Note_on_c, 1, 52, 64
1, 15247, Note_on_c, 1, 55, 0
1, 15247, Note_on_c, 1, 52, 0
1, 15248, Note_on_c, 1, 53, 64
1, 15248, Note_on_c, 1, 50, 64
1, 15263, Note_on_c, 1, 53, 0
1, 15263, Note_on_c, 1, 50, 0
1, 15264, Note_on_c, 0, 72, 64
1, 15264, Note_on_c, 1, 48, 64
1, 15279, Note_on_c, 1, 48, 0
1, 15280, Note_on_c, 1, 52, 64
1, 15295, Note_on_c, 1, 52, 0
1, 15296, Note_on_c, 1, 55, 64
1, 15311, Note_on_c, 1, 55, 0
1, 15312, Note_on_c, 1, 48, 64
1, 15327, Note_on_c, 1, 48, 0
1, 15328, Note_on_c, 1, 52, 64
1, 15342, Note_on_c, 0, 72, 0
1, 15343, Note_on_c, 1, 52, 0
1, 15344, Note_on_c, 1, 55, 64
1, 15348, Note_on_c, 0, 67, 64
1, 15359, Note_on_c, 1, 55, 0
1, 15360, Note_on_c, 0, 67, 0
1, 15360, Note_on_c, 0, 76, 64
1, 15360, Note_on_c, 1, 48, 64
1, 15375, Note_on_c, 0, 76, 0
1, 15375, Note_on_c, 1, 48, 0
1, 15376, Note_on_c, 0, 79, 64
1, 15376, Note_on_c, 1, 52, 64
1, 15391, Note_on_c, 0, 79, 0
1, 15391, Note_on_c, 1, 52, 0
1, 15392, Note_on_c, 0, 77, 64
1, 15392, Note_on_c, 1, 55, 64
1, 15407, Note_on_c, 0, 77, 0
1, 15407, Note_on_c, 1, 55, 0
1, 15408, Note_on_c, 0, 76, 64
1, 15408, Note_on_c, 1, 48, 64
1, 15423, Note_on_c, 0, 76, 0
1, 15423, Note_on_c, 1, 48, 0
1, 15424, Note_on_c, 0, 74, 64
1, 15424, Note_on_c, 1, 52, 64
1, 15439, Note_on_c, 0, 74, 0
1, 15439, Note_on_c, 1, 52, 0
1, 15440, Note_on_c, 0, 72, 64
1, 15440, Note_on_c, 1, 55, 64
1, 15455, Note_on_c, 0, 72, 0
1, 15455, Note_on_c, 1, 55, 0
1, 15456, Note_on_c, 0, 71, 64
1, 15456, Note_on_c, 1, 48, 64
1, 15471, Note_on_c, 0, 71, 0
1, 15471, Note_on_c, 1, 48, 0
1, 15472, Note_on_c, 0, 69, 64
1, 15472, Note_on_c, 1, 52, 64
1, 15487, Note_on_c, 0, 69, 0
1, 15487, Note_on_c, 1, 52, 0
1, 15488, Note_on_c, 0, 67, 64
1, 15488, Note_on_c, 1, 55, 64
1, 15503, Note_on_c, 0, 67, 0
1, 15503, Note_on_c, 1, 55, 0
1, 15504, Note_on_c, 0, 65, 64
1, 15504, Note_on_c, 1, 48, 64
1, 15519, Note_on_c, 0, 65, 0
1, 15519, Note_on_c, 1, 48, 0
1, 15520, Note_on_c, 0, 64, 64
1, 15520, Note_on_c, 1, 52, 64
1, 15535, Note_on_c, 0, 64, 0
1, 15535, Note_on_c, 1, 52, 0
1, 15536, Note_on_c, 0, 62, 64
1, 15536, Note_on_c, 1, 55, 64
1, 15551, Note_on_c, 0, 62, 0
1, 15551, Note_on_c, 1, 55, 0
1, 15552, Note_on_c, 0, 60, 64
1, 15552, Note_on_c, 1, 50, 64
1, 15567, Note_on_c, 1, 50, 0
1, 15568, Note_on_c, 1, 53, 64
1, 15583, Note_on_c, 1, 53, 0
1, 15584, Note_on_c, 1, 55, 64
1, 15599, Note_on_c, 1, 55, 0
1, 15600, Note_on_c, 1, 50, 64
1, 15615, Note_on_c, 1, 50, 0
1, 15616, Note_on_c, 1, 53, 64
1, 15631, Note_on_c, 1, 53, 0
1, 15632, Note_on_c, 1, 55, 64
1, 15641, Note_on_c, 0, 60, 0
1, 15647, Note_on_c, 1, 55, 0
1, 15648, Note_on_c, 0, 59, 64
1, 15648, Note_on_c, 1, 50, 64
1, 15654, Note_on_c, 0, 59, 0
1, 15654, Note_on_c, 0, 60, 64
1, 15660, Note_on_c, 0, 60, 0
1, 15660, Note_on_c, 0, 59, 64
1, 15663, Note_on_c, 1, 50, 0
1, 15664, Note_on_c, 1, 53, 64
1, 15679, Note_on_c, 1, 53, 0
1, 15680, Note_on_c, 1, 55, 64
1, 15695, Note_on_c, 1, 55, 0
1, 15696, Note_on_c, 1, 50, 64
1, 15711, Note_on_c, 1, 50, 0
1, 15712, Note_on_c, 1, 53, 64
1, 15727, Note_on_c, 1, 53, 0
1, 15728, Note_on_c, 1, 55, 64
1, 15743, Note_on_c, 1, 55, 0
1, 15744, Note_on_c, 1, 50, 64
1, 15759, Note_on_c, 1, 50, 0
1, 15760, Note_on_c, 1, 53, 64
1, 15775, Note_on_c, 1, 53, 0
1, 15776, Note_on_c, 1, 55, 64
1, 15791, Note_on_c, 1, 55, 0
1, 15792, Note_on_c, 1, 50, 64
1, 15807, Note_on_c, 1, 50, 0
1, 15808, Note_on_c, 1, 53, 64
1, 15823, Note_on_c, 1, 53, 0
1, 15824, Note_on_c, 1, 55, 64
1, 15833, Note_on_c, 0, 59, 0
1, 15839, Note_on_c, 1, 55, 0
1, 15840, Note_on_c, 0, 77, 64
1, 15840, Note_on_c, 1, 47, 64
1, 15855, Note_on_c, 1, 47, 0
1, 15856, Note_on_c, 1, 50, 64
1, 15871, Note_on_c, 1, 50, 0
1, 15872, Note_on_c, 1, 55, 64
1, 15887, Note_on_c, 1, 55, 0
1, 15888, Note_on_c, 1, 47, 64
1, 15903, Note_on_c, 1, 47, 0
1, 15904, Note_on_c, 1, 50, 64
1, 15907, Note_on_c, 0, 77, 0
1, 15912, Note_on_c, 0, 74, 64
1, 15919, Note_on_c, 1, 50, 0
1, 15920, Note_on_c, 1, 55, 64
1, 15924, Note_on_c, 0, 74, 0
1, 15924, Note_on_c, 0, 76, 64
1, 15935, Note_on_c, 1, 55, 0
1, 15936, Note_on_c, 0, 76, 0
1, 15936, Note_on_c, 0, 77, 64
1, 15936, Note_on_c, 1, 47, 64
1, 15951, Note_on_c, 0, 77, 0
1, 15951, Note_on_c, 1, 47, 0
1, 15952, Note_on_c, 0, 86, 64
1, 15952, Note_on_c, 1, 50, 64
1, 15967, Note_on_c, 0, 86, 0
1, 15967, Note_on_c, 1, 50, 0
1, 15968, Note_on_c, 0, 84, 64
1, 15968, Note_on_c, 1, 55, 64
1, 15983, Note_on_c, 0, 84, 0
1, 15983, Note_on_c, 1, 55, 0
1, 15984, Note_on_c, 0, 83, 64
1, 15984, Note_on_c, 1, 47, 64
1, 15999, Note_on_c, 0, 83, 0
1, 15999, Note_on_c, 1, 47, 0
1, 16000, Note_on_c, 0, 89, 64
1, 16000, Note_on_c, 1, 50, 64
1, 16015, Note_on_c, 0, 89, 0
1, 16015, Note_on_c, 1, 50, 0
1, 16016, Note_on_c, 0, 88, 64
1, 16016, Note_on_c, 1, 55, 64
1, 16031, Note_on_c, 0, 88, 0
1, 16031, Note_on_c, 1, 55, 0
1, 16032, Note_on_c, 0, 86, 64
1, 16032, Note_on_c, 1, 47, 64
1, 16047, Note_on_c, 0, 86, 0
1, 16047, Note_on_c, 1, 47, 0
1, 16048, Note_on_c, 0, 84, 64
1, 16048, Note_on_c, 1, 50, 64
1, 16063, Note_on_c, 0, 84, 0
1, 16063, Note_on_c, 1, 50, 0
1, 16064, Note_on_c, 0, 83, 64
1, 16064, Note_on_c, 1, 55, 64
1, 16079, Note_on_c, 0, 83, 0
1, 16079, Note_on_c, 1, 55, 0
1, 16080, Note_on_c, 0, 81, 64
1, 16080, Note_on_c, 1, 47, 64
1, 16095, Note_on_c, 0, 81, 0
1, 16095, Note_on_c, 1, 47, 0
1, 16096, Note_on_c, 0, 79, 64
1, 16096, Note_on_c, 1, 50, 64
1, 16111, Note_on_c, 0, 79, 0
1, 16111, Note_on_c, 1, 50, 0
1, 16112, Note_on_c, 0, 77, 64
1, 16112, Note_on_c, 1, 55, 64
1, 16127, Note_on_c, 0, 77, 0
1, 16127, Note_on_c, 1, 55, 0
1, 16128, Note_on_c, 0, 79, 64
1, 16128, Note_on_c, 1, 48, 64
1, 16143, Note_on_c, 1, 48, 0
1, 16144, Note_on_c, 1, 52, 64
1, 16159, Note_on_c, 1, 52, 0
1, 16160, Note_on_c, 1, 55, 64
1, 16173, Note_on_c, 0, 79, 0
1, 16175, Note_on_c, 1, 55, 0
1, 16176, Note_on_c, 0, 77, 64
1, 16176, Note_on_c, 1, 48, 64
1, 16182, Note_on_c, 0, 77, 0
1, 16182, Note_on_c, 0, 79, 64
1, 16188, Note_on_c, 0, 79, 0
1, 16188, Note_on_c, 0, 77, 64
1, 16191, Note_on_c, 1, 48, 0
1, 16192, Note_on_c, 1, 52, 64
1, 16207, Note_on_c, 1, 52, 0
1, 16208, Note_on_c, 1, 55, 64
1, 16223, Note_on_c, 1, 55, 0
1, 16224, Note_on_c, 0, 77, 0
1, 16224, Note_on_c, 0, 76, 64
1, 16224, Note_on_c, 1, 48, 64
1, 16239, Note_on_c, 1, 48, 0
1, 16240, Note_on_c, 1, 52, 64
1, 16255, Note_on_c, 1, 52, 0
1, 16256, Note_on_c, 1, 55, 64
1, 16269, Note_on_c, 0, 76, 0
1, 16271, Note_on_c, 1, 55, 0
1, 16272, Note_on_c, 1, 48, 64
1, 16287, Note_on_c, 1, 48, 0
1, 16288, Note_on_c, 1, 52, 64
1, 16303, Note_on_c, 1, 52, 0
1, 16304, Note_on_c, 1, 55, 64
1, 16319, Note_on_c, 1, 55, 0
1, 16320, Note_on_c, 0, 72, 64
1, 16320, Note_on_c, 1, 48, 64
1, 16365, Note_on_c, 0, 72, 0
1, 16365, Note_on_c, 1, 48, 0
1, 16368, Note_on_c, 0, 74, 64
1, 16373, Note_on_c, 0, 74, 0
1, 16373, Note_on_c, 0, 76, 64
1, 16378, Note_on_c, 0, 76, 0
1, 16378, Note_on_c, 0, 74, 64
1, 16383, Note_on_c, 0, 74, 0
1, 16383, Note_on_c, 0, 72, 64
1, 16388, Note_on_c, 0, 72, 0
1, 16388, Note_on_c, 0, 74, 64
1, 16393, Note_on_c, 0, 74, 0
1, 16393, Note_on_c, 0, 76, 64
1, 16398, Note_on_c, 0, 76, 0
1, 16398, Note_on_c, 0, 77, 64
1, 16403, Note_on_c, 0, 77, 0
1, 16403, Note_on_c, 0, 79, 64
1, 16408, Note_on_c, 0, 79, 0
1, 16408, Note_on_c, 0, 81, 64
1, 16412, Note_on_c, 0, 81, 0
1, 16412, Note_on_c, 0, 83, 64
1, 16416, Note_on_c, 0, 83, 0
1, 16416, Note_on_c, 0, 84, 64
1, 16416, Note_on_c, 1, 57, 64
1, 16431, Note_on_c, 1, 57, 0
1, 16432, Note_on_c, 1, 60, 64
1, 16447, Note_on_c, 1, 60, 0
1, 16448, Note_on_c, 1, 64, 64
1, 16463, Note_on_c, 1, 64, 0
1, 16464, Note_on_c, 1, 65, 64
1, 16479, Note_on_c, 1, 65, 0
1, 16480, Note_on_c, 1, 67, 64
1, 16495, Note_on_c, 1, 67, 0
1, 16496, Note_on_c, 1, 68, 64
1, 16511, Note_on_c, 1, 68, 0
1, 16512, Note_on_c, 0, 79, 64
1, 16512, Note_on_c, 1, 69, 64
1, 16516, Note_on_c, 0, 79, 0
1, 16516, Note_on_c, 0, 77, 64
1, 16528, Note_on_c, 0, 77, 0
1, 16528, Note_on_c, 0, 76, 64
1, 16543, Note_on_c, 0, 76, 0
1, 16544, Note_on_c, 0, 77, 64
1, 16559, Note_on_c, 0, 77, 0
1, 16560, Note_on_c, 0, 81, 64
1, 16575, Note_on_c, 0, 81, 0
1, 16576, Note_on_c, 0, 79, 64
1, 16591, Note_on_c, 0, 79, 0
1, 16592, Note_on_c, 0, 77, 64
1, 16601, Note_on_c, 1, 69, 0
1, 16607, Note_on_c, 0, 77, 0
1, 16608, Note_on_c, 0, 84, 0
1, 16608, Note_on_c, 0, 83, 64
1, 16608, Note_on_c, 0, 77, 64
1, 16608, Note_on_c, 1, 67, 64
1, 16623, Note_on_c, 0, 77, 0
1, 16624, Note_on_c, 0, 75, 64
1, 16639, Note_on_c, 0, 75, 0
1, 16640, Note_on_c, 0, 76, 64
1, 16655, Note_on_c, 0, 76, 0
1, 16656, Note_on_c, 0, 79, 64
1, 16671, Note_on_c, 0, 79, 0
1, 16672, Note_on_c, 0, 77, 64
1, 16687, Note_on_c, 0, 77, 0
1, 16688, Note_on_c, 0, 76, 64
1, 16697, Note_on_c, 0, 83, 0
1, 16697, Note_on_c, 1, 67, 0
1, 16703, Note_on_c, 0, 76, 0
1, 16704, Note_on_c, 0, 81, 64
1, 16704, Note_on_c, 0, 76, 64
1, 16704, Note_on_c, 1, 53, 64
1, 16719, Note_on_c, 1, 53, 0
1, 16720, Note_on_c, 1, 57, 64
1, 16735, Note_on_c, 1, 57, 0
1, 16736, Note_on_c, 1, 61, 64
1, 16751, Note_on_c, 1, 61, 0
1, 16752, Note_on_c, 1, 62, 64
1, 16767, Note_on_c, 1, 62, 0
1, 16768, Note_on_c, 1, 63, 64
1, 16783, Note_on_c, 1, 63, 0
1, 16784, Note_on_c, 1, 64, 64
1, 16793, Note_on_c, 0, 76, 0
1, 16799, Note_on_c, 1, 64, 0
1, 16800, Note_on_c, 0, 76, 64
1, 16800, Note_on_c, 1, 65, 64
1, 16804, Note_on_c, 0, 76, 0
1, 16804, Note_on_c, 0, 74, 64
1, 16816, Note_on_c, 0, 74, 0
1, 16816, Note_on_c, 0, 73, 64
1, 16831, Note_on_c, 0, 73, 0
1, 16832, Note_on_c, 0, 74, 64
1, 16847, Note_on_c, 0, 74, 0
1, 16848, Note_on_c, 0, 77, 64
1, 16863, Note_on_c, 0, 77, 0
1, 16864, Note_on_c, 0, 76, 64
1, 16879, Note_on_c, 0, 76, 0
1, 16880, Note_on_c, 0, 74, 64
1, 16889, Note_on_c, 1, 65, 0
1, 16895, Note_on_c, 0, 74, 0
1, 16896, Note_on_c, 0, 81, 0
1, 16896, Note_on_c, 0, 79, 64
1, 16896, Note_on_c, 0, 74, 64
1, 16896, Note_on_c, 1, 64, 64
1, 16911, Note_on_c, 0, 74, 0
1, 16912, Note_on_c, 0, 71, 64
1, 16927, Note_on_c, 0, 71, 0
1, 16928, Note_on_c, 0, 72, 64
1, 16943, Note_on_c, 0, 72, 0
1, 16944, Note_on_c, 0, 76, 64
1, 16959, Note_on_c, 0, 76, 0
1, 16960, Note_on_c, 0, 74, 64
1, 16975, Note_on_c, 0, 74, 0
1, 16976, Note_on_c, 0, 72, 64
1, 16985, Note_on_c, 0, 79, 0
1, 16985, Note_on_c, 1, 64, 0
1, 16991, Note_on_c, 0, 72, 0
1, 16992, Note_on_c, 0, 78, 64
1, 16992, Note_on_c, 1, 62, 64
1, 17008, Note_on_c, 0, 72, 64
1, 17023, Note_on_c, 0, 72, 0
1, 17024, Note_on_c, 0, 74, 64
1, 17039, Note_on_c, 0, 74, 0
1, 17040, Note_on_c, 0, 75, 64
1, 17055, Note_on_c, 0, 75, 0
1, 17056, Note_on_c, 0, 74, 64
1, 17071, Note_on_c, 0, 74, 0
1, 17072, Note_on_c, 0, 72, 64
1, 17086, Note_on_c, 0, 78, 0
1, 17087, Note_on_c, 0, 72, 0
1, 17088, Note_on_c, 0, 78, 64
1, 17088, Note_on_c, 1, 69, 64
1, 17104, Note_on_c, 0, 72, 64
1, 17119, Note_on_c, 0, 72, 0
1, 17120, Note_on_c, 0, 74, 64
1, 17135, Note_on_c, 0, 74, 0
1, 17136, Note_on_c, 0, 75, 64
1, 17151, Note_on_c, 0, 75, 0
1, 17152, Note_on_c, 0, 74, 64
1, 17167, Note_on_c, 0, 74, 0
1, 17168, Note_on_c, 0, 72, 64
1, 17177, Note_on_c, 0, 78, 0
1, 17177, Note_on_c, 1, 69, 0
1, 17183, Note_on_c, 0, 72, 0
1, 17184, Note_on_c, 0, 81, 64
1, 17184, Note_on_c, 1, 66, 64
1, 17200, Note_on_c, 0, 72, 64
1, 17215, Note_on_c, 0, 72, 0
1, 17216, Note_on_c, 0, 74, 64
1, 17231, Note_on_c, 0, 74, 0
1, 17232, Note_on_c, 0, 75, 64
1, 17247, Note_on_c, 0, 75, 0
1, 17248, Note_on_c, 0, 74, 64
1, 17257, Note_on_c, 1, 62, 0
1, 17263, Note_on_c, 0, 74, 0
1, 17264, Note_on_c, 0, 72, 64
1, 17273, Note_on_c, 0, 81, 0
1, 17273, Note_on_c, 1, 66, 0
1, 17279, Note_on_c, 0, 72, 0
1, 17280, Note_on_c, 0, 77, 64
1, 17280, Note_on_c, 1, 55, 64
1, 17296, Note_on_c, 0, 71, 64
1, 17296, Note_on_c, 1, 62, 64
1, 17311, Note_on_c, 0, 71, 0
1, 17311, Note_on_c, 1, 62, 0
1, 17312, Note_on_c, 0, 72, 64
1, 17312, Note_on_c, 1, 63, 64
1, 17327, Note_on_c, 0, 72, 0
1, 17327, Note_on_c, 1, 63, 0
1, 17328, Note_on_c, 0, 74, 64
1, 17328, Note_on_c, 1, 65, 64
1, 17343, Note_on_c, 0, 74, 0
1, 17343, Note_on_c, 1, 65, 0
1, 17344, Note_on_c, 0, 72, 64
1, 17344, Note_on_c, 1, 63, 64
1, 17359, Note_on_c, 0, 72, 0
1, 17359, Note_on_c, 1, 63, 0
1, 17360, Note_on_c, 0, 71, 64
1, 17360, Note_on_c, 1, 62, 64
1, 17374, Note_on_c, 0, 77, 0
1, 17375, Note_on_c, 0, 71, 0
1, 17375, Note_on_c, 1, 62, 0
1, 17376, Note_on_c, 0, 77, 64
1, 17376, Note_on_c, 1, 68, 64
1, 17392, Note_on_c, 0, 71, 64
1, 17407, Note_on_c, 0, 71, 0
1, 17408, Note_on_c, 0, 72, 64
1, 17423, Note_on_c, 0, 72, 0
1, 17424, Note_on_c, 0, 74, 64
1, 17439, Note_on_c, 0, 74, 0
1, 17440, Note_on_c, 0, 72, 64
1, 17455, Note_on_c, 0, 72, 0
1, 17456, Note_on_c, 0, 71, 64
1, 17457, Note_on_c, 1, 55, 0
1, 17465, Note_on_c, 0, 77, 0
1, 17471, Note_on_c, 0, 71, 0
1, 17472, Note_on_c, 0, 77, 64
1, 17472, Note_on_c, 1, 68, 0
1, 17472, Note_on_c, 1, 62, 64
1, 17472, Note_on_c, 1, 59, 64
1, 17472, Note_on_c, 1, 55, 64
1, 17487, Note_on_c, 0, 77, 0
1, 17488, Note_on_c, 0, 65, 64
1, 17503, Note_on_c, 0, 65, 0
1, 17504, Note_on_c, 0, 67, 64
1, 17519, Note_on_c, 0, 67, 0
1, 17520, Note_on_c, 0, 69, 64
1, 17535, Note_on_c, 0, 69, 0
1, 17536, Note_on_c, 0, 67, 64
1, 17551, Note_on_c, 0, 67, 0
1, 17552, Note_on_c, 0, 65, 64
1, 17561, Note_on_c, 1, 62, 0
1, 17561, Note_on_c, 1, 59, 0
1, 17561, Note_on_c, 1, 55, 0
1, 17567, Note_on_c, 0, 65, 0
1, 17568, Note_on_c, 1, 64, 64
1, 17568, Note_on_c, 1, 60, 64
1, 17584, Note_on_c, 0, 79, 64
1, 17584, Note_on_c, 0, 76, 64
1, 17599, Note_on_c, 0, 79, 0
1, 17599, Note_on_c, 0, 76, 0
1, 17600, Note_on_c, 0, 77, 64
1, 17600, Note_on_c, 0, 74, 64
1, 17615, Note_on_c, 0, 77, 0
1, 17615, Note_on_c, 0, 74, 0
1, 17616, Note_on_c, 0, 76, 64
1, 17616, Note_on_c, 0, 72, 64
1, 17623, Note_on_c, 0, 76, 0
1, 17623, Note_on_c, 0, 72, 0
1, 17632, Note_on_c, 0, 76, 64
1, 17632, Note_on_c, 0, 72, 64
1, 17647, Note_on_c, 0, 76, 0
1, 17647, Note_on_c, 0, 72, 0
1, 17648, Note_on_c, 0, 74, 64
1, 17648, Note_on_c, 0, 71, 64
1, 17657, Note_on_c, 1, 64, 0
1, 17657, Note_on_c, 1, 60, 0
1, 17663, Note_on_c, 0, 74, 0
1, 17663, Note_on_c, 0, 71, 0
1, 17664, Note_on_c, 0, 72, 64
1, 17664, Note_on_c, 0, 69, 64
1, 17671, Note_on_c, 0, 72, 0
1, 17671, Note_on_c, 0, 69, 0
1, 17680, Note_on_c, 0, 72, 64
1, 17680, Note_on_c, 0, 69, 64
1, 17695, Note_on_c, 0, 72, 0
1, 17695, Note_on_c, 0, 69, 0
1, 17696, Note_on_c, 0, 71, 64
1, 17696, Note_on_c, 0, 67, 64
1, 17711, Note_on_c, 0, 71, 0
1, 17711, Note_on_c, 0, 67, 0
1, 17712, Note_on_c, 0, 69, 64
1, 17712, Note_on_c, 0, 65, 64
1, 17719, Note_on_c, 0, 69, 0
1, 17719, Note_on_c, 0, 65, 0
1, 17728, Note_on_c, 0, 69, 64
1, 17728, Note_on_c, 0, 65, 64
1, 17743, Note_on_c, 0, 69, 0
1, 17743, Note_on_c, 0, 65, 0
1, 17744, Note_on_c, 0, 67, 64
1, 17744, Note_on_c, 0, 64, 64
1, 17759, Note_on_c, 0, 67, 0
1, 17759, Note_on_c, 0, 64, 0
1, 17760, Note_on_c, 0, 65, 64
1, 17760, Note_on_c, 0, 62, 64
1, 17760, Note_on_c, 1, 43, 64
1, 17775, Note_on_c, 1, 43, 0
1, 17776, Note_on_c, 1, 47, 64
1, 17791, Note_on_c, 1, 47, 0
1, 17792, Note_on_c, 1, 50, 64
1, 17807, Note_on_c, 1, 50, 0
1, 17808, Note_on_c, 1, 55, 64
1, 17823, Note_on_c, 1, 55, 0
1, 17824, Note_on_c, 1, 59, 64
1, 17839, Note_on_c, 1, 59, 0
1, 17840, Note_on_c, 1, 55, 64
1, 17849, Note_on_c, 0, 65, 0
1, 17849, Note_on_c, 0, 62, 0
1, 17855, Note_on_c, 1, 55, 0
1, 17856, Note_on_c, 1, 60, 64
1, 17872, Note_on_c, 0, 64, 64
1, 17876, Note_on_c, 1, 60, 0
1, 17887, Note_on_c, 0, 64, 0
1, 17888, Note_on_c, 0, 67, 64
1, 17903, Note_on_c, 0, 67, 0
1, 17904, Note_on_c, 1, 53, 64
1, 17920, Note_on_c, 0, 57, 64
1, 17924, Note_on_c, 1, 53, 0
1, 17935, Note_on_c, 0, 57, 0
1, 17936, Note_on_c, 0, 65, 64
1, 17951, Note_on_c, 0, 65, 0
1, 17952, Note_on_c, 1, 52, 64
1, 17952, Note_on_c, 1, 43, 64
1, 17968, Note_on_c, 0, 55, 64
1, 17983, Note_on_c, 0, 55, 0
1, 17984, Note_on_c, 0, 60, 64
1, 17999, Note_on_c, 0, 60, 0
1, 18000, Note_on_c, 0, 64, 64
1, 18015, Note_on_c, 0, 64, 0
1, 18016, Note_on_c, 0, 67, 64
1, 18031, Note_on_c, 0, 67, 0
1, 18032, Note_on_c, 0, 64, 64
1, 18047, Note_on_c, 0, 64, 0
1, 18048, Note_on_c, 0, 65, 64
1, 18048, Note_on_c, 1, 52, 0
1, 18048, Note_on_c, 1, 50, 64
1, 18063, Note_on_c, 0, 65, 0
1, 18064, Note_on_c, 0, 62, 64
1, 18079, Note_on_c, 0, 62, 0
1, 18080, Note_on_c, 0, 59, 64
1, 18095, Note_on_c, 0, 59, 0
1, 18096, Note_on_c, 0, 55, 64
1, 18111, Note_on_c, 0, 55, 0
1, 18112, Note_on_c, 0, 53, 64
1, 18127, Note_on_c, 0, 53, 0
1, 18128, Note_on_c, 0, 62, 64
1, 18137, Note_on_c, 1, 50, 0
1, 18137, Note_on_c, 1, 43, 0
1, 18143, Note_on_c, 0, 62, 0
1, 18144, Note_on_c, 1, 52, 64
1, 18144, Note_on_c, 1, 48, 64
1, 18160, Note_on_c, 0, 79, 64
1, 18160, Note_on_c, 0, 76, 64
1, 18175, Note_on_c, 0, 79, 0
1, 18175, Note_on_c, 0, 76, 0
1, 18176, Note_on_c, 0, 77, 64
1, 18176, Note_on_c, 0, 74, 64
1, 18191, Note_on_c, 0, 77, 0
1, 18191, Note_on_c, 0, 74, 0
1, 18192, Note_on_c, 0, 76, 64
1, 18192, Note_on_c, 0, 72, 64
1, 18199, Note_on_c, 0, 76, 0
1, 18199, Note_on_c, 0, 72, 0
1, 18208, Note_on_c, 0, 88, 64
1, 18208, Note_on_c, 0, 84, 64
1, 18223, Note_on_c, 0, 88, 0
1, 18223, Note_on_c, 0, 84, 0
1, 18224, Note_on_c, 0, 86, 64
1, 18224, Note_on_c, 0, 83, 64
1, 18233, Note_on_c, 1, 52, 0
1, 18233, Note_on_c, 1, 48, 0
1, 18239, Note_on_c, 0, 86, 0
1, 18239, Note_on_c, 0, 83, 0
1, 18240, Note_on_c, 0, 84, 64
1, 18240, Note_on_c, 0, 81, 64
1, 18247, Note_on_c, 0, 84, 0
1, 18247, Note_on_c, 0, 81, 0
1, 18256, Note_on_c, 0, 84, 64
1, 18256, Note_on_c, 0, 81, 64
1, 18271, Note_on_c, 0, 84, 0
1, 18271, Note_on_c, 0, 81, 0
1, 18272, Note_on_c, 0, 83, 64
1, 18272, Note_on_c, 0, 79, 64
1, 18287, Note_on_c, 0, 83, 0
1, 18287, Note_on_c, 0, 79, 0
1, 18288, Note_on_c, 0, 81, 64
1, 18288, Note_on_c, 0, 77, 64
1, 18295, Note_on_c, 0, 81, 0
1, 18295, Note_on_c, 0, 77, 0
1, 18304, Note_on_c, 0, 81, 64
1, 18304, Note_on_c, 0, 77, 64
1, 18319, Note_on_c, 0, 81, 0
1, 18319, Note_on_c, 0, 77, 0
1, 18320, Note_on_c, 0, 79, 64
1, 18320, Note_on_c, 0, 76, 64
1, 18335, Note_on_c, 0, 79, 0
1, 18335, Note_on_c, 0, 76, 0
1, 18336, Note_on_c, 0, 77, 64
1, 18336, Note_on_c, 0, 74, 64
1, 18336, Note_on_c, 1, 55, 64
1, 18351, Note_on_c, 1, 55, 0
1, 18352, Note_on_c, 1, 59, 64
1, 18367, Note_on_c, 1, 59, 0
1, 18368, Note_on_c, 1, 62, 64
1, 18383, Note_on_c, 1, 62, 0
1, 18384, Note_on_c, 1, 67, 64
1, 18399, Note_on_c, 1, 67, 0
1, 18400, Note_on_c, 1, 71, 64
1, 18415, Note_on_c, 1, 71, 0
1, 18416, Note_on_c, 1, 67, 64
1, 18425, Note_on_c, 0, 77, 0
1, 18425, Note_on_c, 0, 74, 0
1, 18431, Note_on_c, 1, 67, 0
1, 18432, Note_on_c, 1, 72, 64
1, 18448, Note_on_c, 0, 76, 64
1, 18463, Note_on_c, 0, 76, 0
1, 18464, Note_on_c, 0, 79, 64
1, 18477, Note_on_c, 1, 72, 0
1, 18479, Note_on_c, 0, 79, 0
1, 18480, Note_on_c, 1, 65, 64
1, 18496, Note_on_c, 0, 69, 64
1, 18511, Note_on_c, 0, 69, 0
1, 18512, Note_on_c, 0, 77, 64
1, 18525, Note_on_c, 1, 65, 0
1, 18527, Note_on_c, 0, 77, 0
1, 18528, Note_on_c, 1, 64, 64
1, 18528, Note_on_c, 1, 55, 64
1, 18544, Note_on_c, 0, 67, 64
1, 18559, Note_on_c, 0, 67, 0
1, 18560, Note_on_c, 0, 72, 64
1, 18575, Note_on_c, 0, 72, 0
1, 18576, Note_on_c, 0, 76, 64
1, 18591, Note_on_c, 0, 76, 0
1, 18592, Note_on_c, 0, 79, 64
1, 18607, Note_on_c, 0, 79, 0
1, 18608, Note_on_c, 0, 76, 64
1, 18617, Note_on_c, 1, 64, 0
1, 18617, Note_on_c, 1, 55, 0
1, 18623, Note_on_c, 0, 76, 0
1, 18624, Note_on_c, 0, 77, 64
1, 18624, Note_on_c, 1, 43, 64
1, 18639, Note_on_c, 0, 77, 0
1, 18640, Note_on_c, 0, 74, 64
1, 18655, Note_on_c, 0, 74, 0
1, 18656, Note_on_c, 0, 71, 64
1, 18671, Note_on_c, 0, 71, 0
1, 18672, Note_on_c, 0, 67, 64
1, 18687, Note_on_c, 0, 67, 0
1, 18688, Note_on_c, 0, 65, 64
1, 18703, Note_on_c, 0, 65, 0
1, 18704, Note_on_c, 0, 74, 64
1, 18713, Note_on_c, 1, 43, 0
1, 18719, Note_on_c, 0, 74, 0
1, 18720, Note_on_c, 0, 65, 64
1, 18720, Note_on_c, 0, 59, 64
1, 18720, Note_on_c, 1, 45, 64
1, 18816, Note_on_c, 0, 65, 0
1, 18816, Note_on_c, 0, 59, 0
1, 18816, Note_on_c, 0, 64, 64
1, 18816, Note_on_c, 0, 60, 64
1, 18816, Note_on_c, 1, 33, 64
1, 18985, Note_on_c, 1, 45, 0
1, 18993, Note_on_c, 0, 64, 0
1, 18993, Note_on_c, 0, 60, 0
1, 18993, Note_on_c, 1, 33, 0
1, 19008, Note_on_c, 1, 41, 64
1, 19008, Note_on_c, 1, 29, 64
1, 19024, Note_on_c, 0, 73, 64
1, 19024, Note_on_c, 0, 61, 64
1, 19039, Note_on_c, 0, 73, 0
1, 19039, Note_on_c, 0, 61, 0
1, 19040, Note_on_c, 0, 74, 64
1, 19040, Note_on_c, 0, 62, 64
1, 19055, Note_on_c, 0, 74, 0
1, 19055, Note_on_c, 0, 62, 0
1, 19056, Note_on_c, 0, 76, 64
1, 19056, Note_on_c, 0, 64, 64
1, 19071, Note_on_c, 0, 76, 0
1, 19071, Note_on_c, 0, 64, 0
1, 19072, Note_on_c, 0, 77, 64
1, 19072, Note_on_c, 0, 65, 64
1, 19087, Note_on_c, 0, 77, 0
1, 19087, Note_on_c, 0, 65, 0
1, 19088, Note_on_c, 0, 79, 64
1, 19088, Note_on_c, 0, 67, 64
1, 19103, Note_on_c, 0, 79, 0
1, 19103, Note_on_c, 0, 67, 0
1, 19104, Note_on_c, 0, 81, 64
1, 19104, Note_on_c, 0, 69, 64
1, 19119, Note_on_c, 0, 81, 0
1, 19119, Note_on_c, 0, 69, 0
1, 19120, Note_on_c, 0, 82, 64
1, 19120, Note_on_c, 0, 70, 64
1, 19135, Note_on_c, 0, 82, 0
1, 19135, Note_on_c, 0, 70, 0
1, 19136, Note_on_c, 0, 81, 64
1, 19136, Note_on_c, 0, 69, 64
1, 19151, Note_on_c, 0, 81, 0
1, 19151, Note_on_c, 0, 69, 0
1, 19152, Note_on_c, 0, 79, 64
1, 19152, Note_on_c, 0, 67, 64
1, 19167, Note_on_c, 0, 79, 0
1, 19167, Note_on_c, 0, 67, 0
1, 19168, Note_on_c, 0, 77, 64
1, 19168, Note_on_c, 0, 65, 64
1, 19183, Note_on_c, 0, 77, 0
1, 19183, Note_on_c, 0, 65, 0
1, 19184, Note_on_c, 0, 76, 64
1, 19184, Note_on_c, 0, 64, 64
1, 19199, Note_on_c, 0, 76, 0
1, 19199, Note_on_c, 0, 64, 0
1, 19200, Note_on_c, 0, 74, 64
1, 19200, Note_on_c, 0, 62, 64
1, 19215, Note_on_c, 0, 74, 0
1, 19215, Note_on_c, 0, 62, 0
1, 19216, Note_on_c, 0, 81, 64
1, 19216, Note_on_c, 0, 69, 64
1, 19231, Note_on_c, 0, 81, 0
1, 19231, Note_on_c, 0, 69, 0
1, 19232, Note_on_c, 0, 79, 64
1, 19232, Note_on_c, 0, 67, 64
1, 19247, Note_on_c, 0, 79, 0
1, 19247, Note_on_c, 0, 67, 0
1, 19248, Note_on_c, 0, 77, 64
1, 19248, Note_on_c, 0, 65, 64
1, 19263, Note_on_c, 0, 77, 0
1, 19263, Note_on_c, 0, 65, 0
1, 19264, Note_on_c, 0, 76, 64
1, 19264, Note_on_c, 0, 64, 64
1, 19273, Note_on_c, 1, 41, 0
1, 19273, Note_on_c, 1, 29, 0
1, 19279, Note_on_c, 0, 76, 0
1, 19279, Note_on_c, 0, 64, 0
1, 19280, Note_on_c, 0, 74, 64
1, 19280, Note_on_c, 0, 62, 64
1, 19295, Note_on_c, 0, 74, 0
1, 19295, Note_on_c, 0, 62, 0
1, 19296, Note_on_c, 0, 72, 64
1, 19296, Note_on_c, 0, 60, 64
1, 19296, Note_on_c, 1, 52, 64
1, 19296, Note_on_c, 1, 48, 64
1, 19296, Note_on_c, 1, 43, 64
1, 19316, Note_on_c, 0, 72, 0
1, 19316, Note_on_c, 0, 60, 0
1, 19341, Note_on_c, 1, 52, 0
1, 19341, Note_on_c, 1, 48, 0
1, 19341, Note_on_c, 1, 43, 0
1, 19344, Note_on_c, 0, 79, 64
1, 19344, Note_on_c, 0, 67, 64
1, 19364, Note_on_c, 0, 79, 0
1, 19364, Note_on_c, 0, 67, 0
1, 19392, Note_on_c, 1, 64, 64
1, 19392, Note_on_c, 1, 60, 64
1, 19392, Note_on_c, 1, 55, 64
1, 19437, Note_on_c, 1, 64, 0
1, 19437, Note_on_c, 1, 60, 0
1, 19437, Note_on_c, 1, 55, 0
1, 19440, Note_on_c, 0, 77, 64
1, 19452, Note_on_c, 0, 77, 0
1, 19452, Note_on_c, 0, 76, 64
1, 19464, Note_on_c, 0, 76, 0
1, 19464, Note_on_c, 0, 74, 64
1, 19476, Note_on_c, 0, 74, 0
1, 19476, Note_on_c, 0, 72, 64
1, 19488, Note_on_c, 0, 72, 0
1, 19488, Note_on_c, 0, 76, 64
1, 19488, Note_on_c, 1, 65, 64
1, 19488, Note_on_c, 1, 62, 64
1, 19488, Note_on_c, 1, 59, 64
1, 19488, Note_on_c, 1, 55, 64
1, 19494, Note_on_c, 0, 76, 0
1, 19494, Note_on_c, 0, 74, 64
1, 19500, Note_on_c, 0, 74, 0
1, 19500, Note_on_c, 0, 76, 64
1, 19506, Note_on_c, 0, 76, 0
1, 19506, Note_on_c, 0, 74, 64
1, 19512, Note_on_c, 0, 74, 0
1, 19512, Note_on_c, 0, 76, 64
1, 19518, Note_on_c, 0, 76, 0
1, 19518, Note_on_c, 0, 74, 64
1, 19524, Note_on_c, 0, 74, 0
1, 19524, Note_on_c, 0, 76, 64
1, 19529, Note_on_c, 0, 76, 0
1, 19529, Note_on_c, 0, 74, 64
1, 19534, Note_on_c, 0, 74, 0
1, 19534, Note_on_c, 0, 76, 64
1, 19539, Note_on_c, 0, 76, 0
1, 19539, Note_on_c, 0, 74, 64
1, 19544, Note_on_c, 0, 74, 0
1, 19544, Note_on_c, 0, 76, 64
1, 19549, Note_on_c, 0, 76, 0
1, 19549, Note_on_c, 0, 74, 64
1, 19554, Note_on_c, 0, 74, 0
1, 19554, Note_on_c, 0, 76, 64
1, 19559, Note_on_c, 0, 76, 0
1, 19559, Note_on_c, 0, 74, 64
1, 19564, Note_on_c, 0, 74, 0
1, 19564, Note_on_c, 0, 76, 64
1, 19569, Note_on_c, 0, 76, 0
1, 19569, Note_on_c, 0, 74, 64
1, 19574, Note_on_c, 0, 74, 0
1, 19574, Note_on_c, 0, 72, 64
1, 19577, Note_on_c, 1, 65, 0
1, 19577, Note_on_c, 1, 62, 0
1, 19577, Note_on_c, 1, 59, 0
1, 19577, Note_on_c, 1, 55, 0
1, 19579, Note_on_c, 0, 72, 0
1, 19579, Note_on_c, 0, 74, 64
1, 19584, Note_on_c, 0, 74, 0
1, 19584, Note_on_c, 1, 64, 64
1, 19584, Note_on_c, 1, 60, 64
1, 19584, Note_on_c, 1, 57, 64
1, 19600, Note_on_c, 0, 72, 64
1, 19615, Note_on_c, 0, 72, 0
1, 19616, Note_on_c, 0, 76, 64
1, 19631, Note_on_c, 0, 76, 0
1, 19632, Note_on_c, 0, 84, 64
1, 19647, Note_on_c, 0, 84, 0
1, 19648, Note_on_c, 0, 76, 64
1, 19663, Note_on_c, 0, 76, 0
1, 19664, Note_on_c, 0, 72, 64
1, 19673, Note_on_c, 1, 64, 0
1, 19673, Note_on_c, 1, 60, 0
1, 19673, Note_on_c, 1, 57, 0
1, 19679, Note_on_c, 0, 72, 0
1, 19680, Note_on_c, 1, 64, 64
1, 19680, Note_on_c, 1, 60, 64
1, 19680, Note_on_c, 1, 55, 64
1, 19696, Note_on_c, 0, 72, 64
1, 19711, Note_on_c, 0, 72, 0
1, 19712, Note_on_c, 0, 76, 64
1, 19727, Note_on_c, 0, 76, 0
1, 19728, Note_on_c, 0, 84, 64
1, 19743, Note_on_c, 0, 84, 0
1, 19744, Note_on_c, 0, 76, 64
1, 19759, Note_on_c, 0, 76, 0
1, 19760, Note_on_c, 0, 72, 64
1, 19769, Note_on_c, 1, 64, 0
1, 19769, Note_on_c, 1, 60, 0
1, 19769, Note_on_c, 1, 55, 0
1, 19775, Note_on_c, 0, 72, 0
1, 19776, Note_on_c, 1, 63, 64
1, 19776, Note_on_c, 1, 60, 64
1, 19776, Note_on_c, 1, 54, 64
1, 19792, Note_on_c, 0, 72, 64
1, 19807, Note_on_c, 0, 72, 0
1, 19808, Note_on_c, 0, 81, 64
1, 19823, Note_on_c, 0, 81, 0
1, 19824, Note_on_c, 0, 84, 64
1, 19839, Note_on_c, 0, 84, 0
1, 19840, Note_on_c, 0, 81, 64
1, 19855, Note_on_c, 0, 81, 0
1, 19856, Note_on_c, 0, 72, 64
1, 19865, Note_on_c, 1, 63, 0
1, 19865, Note_on_c, 1, 60, 0
1, 19865, Note_on_c, 1, 54, 0
1, 19871, Note_on_c, 0, 72, 0
1, 19872, Note_on_c, 0, 84, 64
1, 19872, Note_on_c, 1, 64, 64
1, 19872, Note_on_c, 1, 60, 64
1, 19872, Note_on_c, 1, 55, 64
1, 20137, Note_on_c, 0, 84, 0
1, 20137, Note_on_c, 1, 64, 0
1, 20137, Note_on_c, 1, 60, 0
1, 20137, Note_on_c, 1, 55, 0
1, 20160, Note_on_c, 1, 43, 64
1, 20176, Note_on_c, 0, 88, 64
1, 20176, Note_on_c, 0, 84, 64
1, 20191, Note_on_c, 0, 88, 0
1, 20191, Note_on_c, 0, 84, 0
1, 20192, Note_on_c, 0, 86, 64
1, 20192, Note_on_c, 0, 83, 64
1, 20207, Note_on_c, 0, 86, 0
1, 20207, Note_on_c, 0, 83, 0
1, 20208, Note_on_c, 0, 84, 64
1, 20208, Note_on_c, 0, 81, 64
1, 20215, Note_on_c, 0, 84, 0
1, 20215, Note_on_c, 0, 81, 0
1, 20224, Note_on_c, 0, 84, 64
1, 20224, Note_on_c, 0, 81, 64
1, 20239, Note_on_c, 0, 84, 0
1, 20239, Note_on_c, 0, 81, 0
1, 20240, Note_on_c, 0, 83, 64
1, 20240, Note_on_c, 0, 79, 64
1, 20249, Note_on_c, 1, 43, 0
1, 20255, Note_on_c, 0, 83, 0
1, 20255, Note_on_c, 0, 79, 0
1, 20256, Note_on_c, 0, 81, 64
1, 20256, Note_on_c, 0, 77, 64
1, 20263, Note_on_c, 0, 81, 0
1, 20263, Note_on_c, 0, 77, 0
1, 20272, Note_on_c, 0, 81, 64
1, 20272, Note_on_c, 0, 77, 64
1, 20287, Note_on_c, 0, 81, 0
1, 20287, Note_on_c, 0, 77, 0
1, 20288, Note_on_c, 0, 79, 64
1, 20288, Note_on_c, 0, 76, 64
1, 20303, Note_on_c, 0, 79, 0
1, 20303, Note_on_c, 0, 76, 0
1, 20304, Note_on_c, 0, 77, 64
1, 20304, Note_on_c, 0, 74, 64
1, 20311, Note_on_c, 0, 77, 0
1, 20311, Note_on_c, 0, 74, 0
1, 20320, Note_on_c, 0, 77, 64
1, 20320, Note_on_c, 0, 74, 64
1, 20335, Note_on_c, 0, 77, 0
1, 20335, Note_on_c, 0, 74, 0
1, 20336, Note_on_c, 0, 76, 64
1, 20336, Note_on_c, 0, 72, 64
1, 20351, Note_on_c, 0, 76, 0
1, 20351, Note_on_c, 0, 72, 0
1, 20352, Note_on_c, 0, 74, 64
1, 20352, Note_on_c, 0, 71, 64
1, 20368, Note_on_c, 1, 69, 64
1, 20383, Note_on_c, 1, 69, 0
1, 20384, Note_on_c, 1, 67, 64
1, 20399, Note_on_c, 1, 67, 0
1, 20400, Note_on_c, 1, 65, 64
1, 20415, Note_on_c, 1, 65, 0
1, 20416, Note_on_c, 1, 64, 64
1, 20431, Note_on_c, 1, 64, 0
1, 20432, Note_on_c, 1, 62, 64
1, 20441, Note_on_c, 0, 74, 0
1, 20441, Note_on_c, 0, 71, 0
1, 20447, Note_on_c, 1, 62, 0
1, 20448, Note_on_c, 0, 76, 64
1, 20448, Note_on_c, 1, 60, 64
1, 20463, Note_on_c, 0, 76, 0
1, 20463, Note_on_c, 1, 60, 0
1, 20464, Note_on_c, 0, 79, 64
1, 20464, Note_on_c, 1, 64, 64
1, 20479, Note_on_c, 0, 79, 0
1, 20479, Note_on_c, 1, 64, 0
1, 20480, Note_on_c, 0, 77, 64
1, 20480, Note_on_c, 1, 62, 64
1, 20495, Note_on_c, 0, 77, 0
1, 20495, Note_on_c, 1, 62, 0
1, 20496, Note_on_c, 0, 76, 64
1, 20496, Note_on_c, 1, 60, 64
1, 20511, Note_on_c, 0, 76, 0
1, 20511, Note_on_c, 1, 60, 0
1, 20512, Note_on_c, 0, 82, 64
1, 20512, Note_on_c, 1, 67, 64
1, 20527, Note_on_c, 0, 82, 0
1, 20527, Note_on_c, 1, 67, 0
1, 20528, Note_on_c, 0, 81, 64
1, 20528, Note_on_c, 1, 65, 64
1, 20543, Note_on_c, 0, 81, 0
1, 20543, Note_on_c, 1, 65, 0
1, 20544, Note_on_c, 0, 79, 64
1, 20544, Note_on_c, 1, 64, 64
1, 20559, Note_on_c, 0, 79, 0
1, 20559, Note_on_c, 1, 64, 0
1, 20560, Note_on_c, 0, 86, 64
1, 20560, Note_on_c, 1, 70, 64
1, 20575, Note_on_c, 0, 86, 0
1, 20575, Note_on_c, 1, 70, 0
1, 20576, Note_on_c, 0, 84, 64
1, 20576, Note_on_c, 1, 69, 64
1, 20591, Note_on_c, 0, 84, 0
1, 20591, Note_on_c, 1, 69, 0
1, 20592, Note_on_c, 0, 82, 64
1, 20592, Note_on_c, 1, 67, 64
1, 20607, Note_on_c, 0, 82, 0
1, 20607, Note_on_c, 1, 67, 0
1, 20608, Note_on_c, 0, 81, 64
1, 20608, Note_on_c, 1, 65, 64
1, 20623, Note_on_c, 0, 81, 0
1, 20623, Note_on_c, 1, 65, 0
1, 20624, Note_on_c, 0, 79, 64
1, 20624, Note_on_c, 1, 64, 64
1, 20639, Note_on_c, 0, 79, 0
1, 20639, Note_on_c, 1, 64, 0
1, 20640, Note_on_c, 0, 77, 64
1, 20640, Note_on_c, 1, 62, 64
1, 20655, Note_on_c, 0, 77, 0
1, 20655, Note_on_c, 1, 62, 0
1, 20656, Note_on_c, 0, 76, 64
1, 20656, Note_on_c, 1, 60, 64
1, 20671, Note_on_c, 0, 76, 0
1, 20671, Note_on_c, 1, 60, 0
1, 20672, Note_on_c, 0, 74, 64
1, 20672, Note_on_c, 1, 58, 64
1, 20687, Note_on_c, 0, 74, 0
1, 20687, Note_on_c, 1, 58, 0
1, 20688, Note_on_c, 0, 72, 64
1, 20688, Note_on_c, 1, 57, 64
1, 20703, Note_on_c, 0, 72, 0
1, 20703, Note_on_c, 1, 57, 0
1, 20704, Note_on_c, 0, 74, 64
1, 20704, Note_on_c, 1, 58, 64
1, 20719, Note_on_c, 0, 74, 0
1, 20719, Note_on_c, 1, 58, 0
1, 20720, Note_on_c, 0, 70, 64
1, 20720, Note_on_c, 1, 55, 64
1, 20735, Note_on_c, 0, 70, 0
1, 20735, Note_on_c, 1, 55, 0
1, 20736, Note_on_c, 0, 69, 64
1, 20736, Note_on_c, 1, 53, 64
1, 20751, Note_on_c, 0, 69, 0
1, 20752, Note_on_c, 0, 81, 64
1, 20752, Note_on_c, 1, 57, 64
1, 20767, Note_on_c, 0, 81, 0
1, 20767, Note_on_c, 1, 57, 0
1, 20768, Note_on_c, 0, 79, 64
1, 20768, Note_on_c, 1, 61, 64
1, 20783, Note_on_c, 0, 79, 0
1, 20783, Note_on_c, 1, 61, 0
1, 20784, Note_on_c, 0, 77, 64
1, 20784, Note_on_c, 1, 62, 64
1, 20799, Note_on_c, 0, 77, 0
1, 20800, Note_on_c, 0, 76, 64
1, 20815, Note_on_c, 0, 76, 0
1, 20816, Note_on_c, 0, 74, 64
1, 20825, Note_on_c, 1, 53, 0
1, 20829, Note_on_c, 1, 62, 0
1, 20831, Note_on_c, 0, 74, 0
1, 20832, Note_on_c, 0, 73, 64
1, 20832, Note_on_c, 1, 52, 64
1, 20847, Note_on_c, 0, 73, 0
1, 20848, Note_on_c, 0, 82, 64
1, 20848, Note_on_c, 1, 55, 64
1, 20863, Note_on_c, 0, 82, 0
1, 20863, Note_on_c, 1, 55, 0
1, 20864, Note_on_c, 0, 81, 64
1, 20864, Note_on_c, 1, 58, 64
1, 20879, Note_on_c, 0, 81, 0
1, 20879, Note_on_c, 1, 58, 0
1, 20880, Note_on_c, 0, 79, 64
1, 20880, Note_on_c, 1, 61, 64
1, 20895, Note_on_c, 0, 79, 0
1, 20896, Note_on_c, 0, 88, 64
1, 20911, Note_on_c, 0, 88, 0
1, 20912, Note_on_c, 0, 86, 64
1, 20927, Note_on_c, 0, 86, 0
1, 20928, Note_on_c, 0, 85, 64
1, 20943, Note_on_c, 0, 85, 0
1, 20944, Note_on_c, 0, 82, 64
1, 20959, Note_on_c, 0, 82, 0
1, 20960, Note_on_c, 0, 81, 64
1, 20975, Note_on_c, 0, 81, 0
1, 20976, Note_on_c, 0, 79, 64
1, 20991, Note_on_c, 0, 79, 0
1, 20992, Note_on_c, 0, 77, 64
1, 21007, Note_on_c, 0, 77, 0
1, 21008, Note_on_c, 0, 76, 64
1, 21009, Note_on_c, 1, 52, 0
1, 21022, Note_on_c, 1, 61, 0
1, 21023, Note_on_c, 0, 76, 0
1, 21024, Note_on_c, 0, 74, 64
1, 21024, Note_on_c, 1, 53, 64
1, 21039, Note_on_c, 0, 74, 0
1, 21040, Note_on_c, 0, 81, 64
1, 21040, Note_on_c, 1, 57, 64
1, 21055, Note_on_c, 0, 81, 0
1, 21055, Note_on_c, 1, 57, 0
1, 21056, Note_on_c, 0, 79, 64
1, 21056, Note_on_c, 1, 61, 64
1, 21071, Note_on_c, 0, 79, 0
1, 21071, Note_on_c, 1, 61, 0
1, 21072, Note_on_c, 0, 77, 64
1, 21072, Note_on_c, 1, 62, 64
1, 21087, Note_on_c, 0, 77, 0
1, 21088, Note_on_c, 0, 76, 64
1, 21103, Note_on_c, 0, 76, 0
1, 21104, Note_on_c, 0, 74, 64
1, 21113, Note_on_c, 1, 53, 0
1, 21117, Note_on_c, 1, 62, 0
1, 21119, Note_on_c, 0, 74, 0
1, 21120, Note_on_c, 0, 73, 64
1, 21120, Note_on_c, 1, 52, 64
1, 21135, Note_on_c, 0, 73, 0
1, 21136, Note_on_c, 0, 82, 64
1, 21136, Note_on_c, 1, 55, 64
1, 21151, Note_on_c, 0, 82, 0
1, 21151, Note_on_c, 1, 55, 0
1, 21152, Note_on_c, 0, 81, 64
1, 21152, Note_on_c, 1, 58, 64
1, 21167, Note_on_c, 0, 81, 0
1, 21167, Note_on_c, 1, 58, 0
1, 21168, Note_on_c, 0, 79, 64
1, 21168, Note_on_c, 1, 61, 64
1, 21183, Note_on_c, 0, 79, 0
1, 21184, Note_on_c, 0, 88, 64
1, 21199, Note_on_c, 0, 88, 0
1, 21200, Note_on_c, 0, 86, 64
1, 21215, Note_on_c, 0, 86, 0
1, 21216, Note_on_c, 0, 85, 64
1, 21231, Note_on_c, 0, 85, 0
1, 21232, Note_on_c, 0, 82, 64
1, 21247, Note_on_c, 0, 82, 0
1, 21248, Note_on_c, 0, 81, 64
1, 21263, Note_on_c, 0, 81, 0
1, 21264, Note_on_c, 0, 79, 64
1, 21279, Note_on_c, 0, 79, 0
1, 21280, Note_on_c, 0, 77, 64
1, 21295, Note_on_c, 0, 77, 0
1, 21296, Note_on_c, 0, 76, 64
1, 21297, Note_on_c, 1, 52, 0
1, 21310, Note_on_c, 1, 61, 0
1, 21311, Note_on_c, 0, 76, 0
1, 21312, Note_on_c, 0, 75, 64
1, 21312, Note_on_c, 1, 54, 64
1, 21327, Note_on_c, 0, 75, 0
1, 21328, Note_on_c, 0, 84, 64
1, 21328, Note_on_c, 1, 57, 64
1, 21343, Note_on_c, 0, 84, 0
1, 21343, Note_on_c, 1, 57, 0
1, 21344, Note_on_c, 0, 83, 64
1, 21344, Note_on_c, 1, 60, 64
1, 21359, Note_on_c, 0, 83, 0
1, 21359, Note_on_c, 1, 60, 0
1, 21360, Note_on_c, 0, 81, 64
1, 21360, Note_on_c, 1, 63, 64
1, 21375, Note_on_c, 0, 81, 0
1, 21376, Note_on_c, 0, 79, 64
1, 21391, Note_on_c, 0, 79, 0
1, 21392, Note_on_c, 0, 78, 64
1, 21407, Note_on_c, 0, 78, 0
1, 21408, Note_on_c, 0, 76, 64
1, 21423, Note_on_c, 0, 76, 0
1, 21424, Note_on_c, 0, 75, 64
1, 21439, Note_on_c, 0, 75, 0
1, 21440, Note_on_c, 0, 81, 64
1, 21455, Note_on_c, 0, 81, 0
1, 21456, Note_on_c, 0, 79, 64
1, 21471, Note_on_c, 0, 79, 0
1, 21472, Note_on_c, 0, 78, 64
1, 21487, Note_on_c, 0, 78, 0
1, 21488, Note_on_c, 0, 84, 64
1, 21503, Note_on_c, 0, 84, 0
1, 21504, Note_on_c, 0, 83, 64
1, 21519, Note_on_c, 0, 83, 0
1, 21520, Note_on_c, 0, 81, 64
1, 21535, Note_on_c, 0, 81, 0
1, 21536, Note_on_c, 0, 79, 64
1, 21551, Note_on_c, 0, 79, 0
1, 21552, Note_on_c, 0, 78, 64
1, 21567, Note_on_c, 0, 78, 0
1, 21568, Note_on_c, 0, 76, 64
1, 21577, Note_on_c, 1, 54, 0
1, 21583, Note_on_c, 0, 76, 0
1, 21584, Note_on_c, 0, 75, 64
1, 21585, Note_on_c, 1, 63, 0
1, 21599, Note_on_c, 0, 75, 0
1, 21600, Note_on_c, 0, 76, 64
1, 21600, Note_on_c, 1, 55, 64
1, 21615, Note_on_c, 0, 76, 0
1, 21616, Note_on_c, 0, 83, 64
1, 21616, Note_on_c, 1, 59, 64
1, 21631, Note_on_c, 0, 83, 0
1, 21631, Note_on_c, 1, 59, 0
1, 21632, Note_on_c, 0, 81, 64
1, 21632, Note_on_c, 1, 63, 64
1, 21647, Note_on_c, 0, 81, 0
1, 21647, Note_on_c, 1, 63, 0
1, 21648, Note_on_c, 0, 79, 64
1, 21648, Note_on_c, 1, 64, 64
1, 21663, Note_on_c, 0, 79, 0
1, 21664, Note_on_c, 0, 78, 64
1, 21679, Note_on_c, 0, 78, 0
1, 21680, Note_on_c, 0, 76, 64
1, 21689, Note_on_c, 1, 55, 0
1, 21693, Note_on_c, 1, 64, 0
1, 21695, Note_on_c, 0, 76, 0
1, 21696, Note_on_c, 0, 77, 64
1, 21696, Note_on_c, 1, 55, 64
1, 21711, Note_on_c, 0, 77, 0
1, 21712, Note_on_c, 0, 86, 64
1, 21712, Note_on_c, 1, 59, 64
1, 21727, Note_on_c, 0, 86, 0
1, 21727, Note_on_c, 1, 59, 0
1, 21728, Note_on_c, 0, 84, 64
1, 21728, Note_on_c, 1, 62, 64
1, 21743, Note_on_c, 0, 84, 0
1, 21743, Note_on_c, 1, 62, 0
1, 21744, Note_on_c, 0, 83, 64
1, 21744, Note_on_c, 1, 65, 64
1, 21759, Note_on_c, 0, 83, 0
1, 21760, Note_on_c, 0, 81, 64
1, 21775, Note_on_c, 0, 81, 0
1, 21776, Note_on_c, 0, 79, 64
1, 21791, Note_on_c, 0, 79, 0
1, 21792, Note_on_c, 0, 77, 64
1, 21807, Note_on_c, 0, 77, 0
1, 21808, Note_on_c, 0, 89, 64
1, 21808, Note_on_c, 0, 86, 64
1, 21823, Note_on_c, 0, 89, 0
1, 21823, Note_on_c, 0, 86, 0
1, 21824, Note_on_c, 0, 88, 64
1, 21824, Note_on_c, 0, 84, 64
1, 21839, Note_on_c, 0, 88, 0
1, 21839, Note_on_c, 0, 84, 0
1, 21840, Note_on_c, 0, 86, 64
1, 21840, Note_on_c, 0, 83, 64
1, 21855, Note_on_c, 0, 86, 0
1, 21855, Note_on_c, 0, 83, 0
1, 21856, Note_on_c, 0, 86, 64
1, 21856, Note_on_c, 0, 83, 64
1, 21871, Note_on_c, 0, 86, 0
1, 21871, Note_on_c, 0, 83, 0
1, 21872, Note_on_c, 0, 84, 64
1, 21872, Note_on_c, 0, 81, 64
1, 21873, Note_on_c, 1, 55, 0
1, 21881, Note_on_c, 1, 65, 0
1, 21887, Note_on_c, 0, 84, 0
1, 21887, Note_on_c, 0, 81, 0
1, 21888, Note_on_c, 0, 83, 64
1, 21888, Note_on_c, 0, 79, 64
1, 21904, Note_on_c, 1, 71, 64
1, 21904, Note_on_c, 1, 67, 64
1, 21919, Note_on_c, 1, 71, 0
1, 21919, Note_on_c, 1, 67, 0
1, 21920, Note_on_c, 1, 72, 64
1, 21920, Note_on_c, 1, 69, 64
1, 21935, Note_on_c, 1, 72, 0
1, 21935, Note_on_c, 1, 69, 0
1, 21936, Note_on_c, 1, 74, 64
1, 21936, Note_on_c, 1, 71, 64
1, 21943, Note_on_c, 1, 74, 0
1, 21943, Note_on_c, 1, 71, 0
1, 21952, Note_on_c, 1, 74, 64
1, 21952, Note_on_c, 1, 71, 64
1, 21967, Note_on_c, 1, 74, 0
1, 21967, Note_on_c, 1, 71, 0
1, 21968, Note_on_c, 1, 76, 64
1, 21968, Note_on_c, 1, 72, 64
1, 21977, Note_on_c, 0, 83, 0
1, 21977, Note_on_c, 0, 79, 0
1, 21983, Note_on_c, 1, 76, 0
1, 21983, Note_on_c, 1, 72, 0
1, 21984, Note_on_c, 0, 83, 64
1, 21984, Note_on_c, 0, 79, 64
1, 21984, Note_on_c, 1, 77, 64
1, 21984, Note_on_c, 1, 74, 64
1, 21999, Note_on_c, 0, 83, 0
1, 21999, Note_on_c, 0, 79, 0
1, 22000, Note_on_c, 0, 89, 64
1, 22000, Note_on_c, 0, 86, 64
1, 22015, Note_on_c, 0, 89, 0
1, 22015, Note_on_c, 0, 86, 0
1, 22016, Note_on_c, 0, 88, 64
1, 22016, Note_on_c, 0, 84, 64
1, 22031, Note_on_c, 0, 88, 0
1, 22031, Note_on_c, 0, 84, 0
1, 22032, Note_on_c, 0, 86, 64
1, 22032, Note_on_c, 0, 83, 64
1, 22047, Note_on_c, 0, 86, 0
1, 22047, Note_on_c, 0, 83, 0
1, 22048, Note_on_c, 0, 86, 64
1, 22048, Note_on_c, 0, 83, 64
1, 22063, Note_on_c, 0, 86, 0
1, 22063, Note_on_c, 0, 83, 0
1, 22064, Note_on_c, 0, 84, 64
1, 22064, Note_on_c, 0, 81, 64
1, 22073, Note_on_c, 1, 77, 0
1, 22073, Note_on_c, 1, 74, 0
1, 22079, Note_on_c, 0, 84, 0
1, 22079, Note_on_c, 0, 81, 0
1, 22080, Note_on_c, 0, 83, 64
1, 22080, Note_on_c, 0, 79, 64
1, 22096, Note_on_c, 1, 71, 64
1, 22096, Note_on_c, 1, 67, 64
1, 22111, Note_on_c, 1, 71, 0
1, 22111, Note_on_c, 1, 67, 0
1, 22112, Note_on_c, 1, 72, 64
1, 22112, Note_on_c, 1, 69, 64
1, 22127, Note_on_c, 1, 72, 0
1, 22127, Note_on_c, 1, 69, 0
1, 22128, Note_on_c, 1, 74, 64
1, 22128, Note_on_c, 1, 71, 64
1, 22135, Note_on_c, 1, 74, 0
1, 22135, Note_on_c, 1, 71, 0
1, 22144, Note_on_c, 1, 74, 64
1, 22144, Note_on_c, 1, 71, 64
1, 22159, Note_on_c, 1, 74, 0
1, 22159, Note_on_c, 1, 71, 0
1, 22160, Note_on_c, 1, 76, 64
1, 22160, Note_on_c, 1, 72, 64
1, 22169, Note_on_c, 0, 83, 0
1, 22169, Note_on_c, 0, 79, 0
1, 22175, Note_on_c, 1, 76, 0
1, 22175, Note_on_c, 1, 72, 0
1, 22176, Note_on_c, 1, 77, 64
1, 22176, Note_on_c, 1, 74, 64
1, 22192, Note_on_c, 0, 79, 64
1, 22207, Note_on_c, 0, 79, 0
1, 22208, Note_on_c, 0, 81, 64
1, 22223, Note_on_c, 0, 81, 0
1, 22224, Note_on_c, 0, 83, 64
1, 22231, Note_on_c, 0, 83, 0
1, 22240, Note_on_c, 0, 83, 64
1, 22255, Note_on_c, 0, 83, 0
1, 22256, Note_on_c, 0, 84, 64
1, 22271, Note_on_c, 0, 84, 0
1, 22272, Note_on_c, 0, 86, 64
1, 22287, Note_on_c, 0, 86, 0
1, 22288, Note_on_c, 0, 83, 64
1, 22303, Note_on_c, 0, 83, 0
1, 22304, Note_on_c, 0, 79, 64
1, 22319, Note_on_c, 0, 79, 0
1, 22320, Note_on_c, 0, 86, 64
1, 22335, Note_on_c, 0, 86, 0
1, 22336, Note_on_c, 0, 83, 64
1, 22351, Note_on_c, 0, 83, 0
1, 22352, Note_on_c, 0, 79, 64
1, 22353, Note_on_c, 1, 77, 0
1, 22353, Note_on_c, 1, 74, 0
1, 22367, Note_on_c, 0, 79, 0
1, 22368, Note_on_c, 0, 87, 64
1, 22368, Note_on_c, 1, 75, 64
1, 22368, Note_on_c, 1, 72, 64
1, 22383, Note_on_c, 0, 87, 0
1, 22384, Note_on_c, 0, 84, 64
1, 22399, Note_on_c, 0, 84, 0
1, 22400, Note_on_c, 0, 79, 64
1, 22415, Note_on_c, 0, 79, 0
1, 22416, Note_on_c, 0, 87, 64
1, 22431, Note_on_c, 0, 87, 0
1, 22432, Note_on_c, 0, 84, 64
1, 22447, Note_on_c, 0, 84, 0
1, 22448, Note_on_c, 0, 79, 64
1, 22457, Note_on_c, 1, 75, 0
1, 22457, Note_on_c, 1, 72, 0
1, 22463, Note_on_c, 0, 79, 0
1, 22464, Note_on_c, 1, 77, 64
1, 22464, Note_on_c, 1, 74, 64
1, 22480, Note_on_c, 0, 79, 64
1, 22495, Note_on_c, 0, 79, 0
1, 22496, Note_on_c, 0, 81, 64
1, 22511, Note_on_c, 0, 81, 0
1, 22512, Note_on_c, 0, 83, 64
1, 22519, Note_on_c, 0, 83, 0
1, 22528, Note_on_c, 0, 83, 64
1, 22543, Note_on_c, 0, 83, 0
1, 22544, Note_on_c, 0, 84, 64
1, 22559, Note_on_c, 0, 84, 0
1, 22560, Note_on_c, 0, 86, 64
1, 22575, Note_on_c, 0, 86, 0
1, 22576, Note_on_c, 0, 83, 64
1, 22591, Note_on_c, 0, 83, 0
1, 22592, Note_on_c, 0, 79, 64
1, 22607, Note_on_c, 0, 79, 0
1, 22608, Note_on_c, 0, 86, 64
1, 22623, Note_on_c, 0, 86, 0
1, 22624, Note_on_c, 0, 83, 64
1, 22639, Note_on_c, 0, 83, 0
1, 22640, Note_on_c, 0, 79, 64
1, 22641, Note_on_c, 1, 77, 0
1, 22641, Note_on_c, 1, 74, 0
1, 22655, Note_on_c, 0, 79, 0
1, 22656, Note_on_c, 0, 87, 64
1, 22656, Note_on_c, 1, 75, 64
1, 22656, Note_on_c, 1, 72, 64
1, 22671, Note_on_c, 0, 87, 0
1, 22672, Note_on_c, 0, 84, 64
1, 22687, Note_on_c, 0, 84, 0
1, 22688, Note_on_c, 0, 79, 64
1, 22701, Note_on_c, 1, 75, 0
1, 22701, Note_on_c, 1, 72, 0
1, 22703, Note_on_c, 0, 79, 0
1, 22704, Note_on_c, 0, 87, 64
1, 22704, Note_on_c, 1, 72, 64
1, 22719, Note_on_c, 0, 87, 0
1, 22720, Note_on_c, 0, 81, 64
1, 22735, Note_on_c, 0, 81, 0
1, 22736, Note_on_c, 0, 78, 64
1, 22749, Note_on_c, 1, 72, 0
1, 22751, Note_on_c, 0, 78, 0
1, 22752, Note_on_c, 0, 86, 64
1, 22752, Note_on_c, 1, 71, 64
1, 22767, Note_on_c, 0, 86, 0
1, 22768, Note_on_c, 0, 80, 64
1, 22783, Note_on_c, 0, 80, 0
1, 22784, Note_on_c, 0, 77, 64
1, 22797, Note_on_c, 1, 71, 0
1, 22799, Note_on_c, 0, 77, 0
1, 22800, Note_on_c, 0, 85, 64
1, 22800, Note_on_c, 1, 70, 64
1, 22815, Note_on_c, 0, 85, 0
1, 22816, Note_on_c, 0, 79, 64
1, 22831, Note_on_c, 0, 79, 0
1, 22832, Note_on_c, 0, 76, 64
1, 22845, Note_on_c, 1, 70, 0
1, 22847, Note_on_c, 0, 76, 0
1, 22848, Note_on_c, 0, 84, 64
1, 22848, Note_on_c, 1, 69, 64
1, 22863, Note_on_c, 0, 84, 0
1, 22864, Note_on_c, 0, 78, 64
1, 22879, Note_on_c, 0, 78, 0
1, 22880, Note_on_c, 0, 75, 64
1, 22893, Note_on_c, 1, 69, 0
1, 22895, Note_on_c, 0, 75, 0
1, 22896, Note_on_c, 0, 84, 64
1, 22896, Note_on_c, 1, 67, 64
1, 22911, Note_on_c, 0, 84, 0
1, 22912, Note_on_c, 0, 79, 64
1, 22927, Note_on_c, 0, 79, 0
1, 22928, Note_on_c, 0, 75, 64
1, 22941, Note_on_c, 1, 67, 0
1, 22943, Note_on_c, 0, 75, 0
1, 22944, Note_on_c, 0, 84, 64
1, 22944, Note_on_c, 1, 66, 64
1, 22959, Note_on_c, 0, 84, 0
1, 22960, Note_on_c, 0, 81, 64
1, 22975, Note_on_c, 0, 81, 0
1, 22976, Note_on_c, 0, 75, 64
1, 22989, Note_on_c, 1, 66, 0
1, 22991, Note_on_c, 0, 75, 0
1, 22992, Note_on_c, 0, 84, 64
1, 22992, Note_on_c, 1, 66, 64
1, 23007, Note_on_c, 0, 84, 0
1, 23008, Note_on_c, 0, 81, 64
1, 23023, Note_on_c, 0, 81, 0
1, 23024, Note_on_c, 0, 75, 64
1, 23037, Note_on_c, 1, 66, 0
1, 23039, Note_on_c, 0, 75, 0
1, 23040, Tempo, 1333333
1, 23040, Note_on_c, 0, 84, 64
1, 23040, Note_on_c, 1, 67, 64
1, 23055, Note_on_c, 0, 84, 0
1, 23056, Note_on_c, 0, 79, 64
1, 23071, Note_on_c, 0, 79, 0
1, 23072, Note_on_c, 0, 76, 64
1, 23087, Note_on_c, 0, 76, 0
1, 23088, Note_on_c, 0, 84, 64
1, 23103, Note_on_c, 0, 84, 0
1, 23104, Note_on_c, 0, 79, 64
1, 23119, Note_on_c, 0, 79, 0
1, 23120, Note_on_c, 0, 76, 64
1, 23129, Note_on_c, 1, 67, 0
1, 23135, Note_on_c, 0, 76, 0
1, 23136, Tempo, 1500000
1, 23136, Note_on_c, 0, 84, 64
1, 23136, Note_on_c, 1, 55, 64
1, 23151, Note_on_c, 0, 84, 0
1, 23152, Note_on_c, 0, 79, 64
1, 23167, Note_on_c, 0, 79, 0
1, 23168, Note_on_c, 0, 76, 64
1, 23183, Note_on_c, 0, 76, 0
1, 23184, Note_on_c, 0, 84, 64
1, 23199, Note_on_c, 0, 84, 0
1, 23200, Note_on_c, 0, 79, 64
1, 23215, Note_on_c, 0, 79, 0
1, 23216, Note_on_c, 0, 76, 64
1, 23225, Note_on_c, 1, 55, 0
1, 23231, Note_on_c, 0, 76, 0
1, 23232, Tempo, 3000000
1, 23232, Note_on_c, 0, 84, 64
1, 23232, Note_on_c, 1, 43, 64
1, 23321, Note_on_c, 0, 84, 0
1, 23321, Note_on_c, 1, 43, 0
1, 23328, Tempo, 666666
1, 23328, Note_on_c, 0, 86, 64
1, 23328, Note_on_c, 0, 76, 64
1, 23339, Note_on_c, 0, 86, 0
1, 23339, Note_on_c, 0, 76, 0
1, 23339, Note_on_c, 0, 74, 64
1, 23350, Note_on_c, 0, 74, 0
1, 23350, Note_on_c, 0, 76, 64
1, 23361, Note_on_c, 0, 76, 0
1, 23361, Note_on_c, 0, 74, 64
1, 23372, Note_on_c, 0, 74, 0
1, 23372, Note_on_c, 0, 76, 64
1, 23383, Note_on_c, 0, 76, 0
1, 23383, Note_on_c, 0, 74, 64
1, 23394, Note_on_c, 0, 74, 0
1, 23394, Note_on_c, 0, 76, 64
1, 23405, Note_on_c, 0, 76, 0
1, 23405, Note_on_c, 0, 74, 64
1, 23416, Note_on_c, 0, 74, 0
1, 23416, Note_on_c, 0, 76, 64
1, 23424, Note_on_c, 1, 83, 64
1, 23426, Note_on_c, 0, 76, 0
1, 23426, Note_on_c, 0, 74, 64
1, 23436, Note_on_c, 0, 74, 0
1, 23436, Note_on_c, 0, 76, 64
1, 23436, Note_on_c, 1, 83, 0
1, 23436, Note_on_c, 1, 84, 64
1, 23446, Note_on_c, 0, 76, 0
1, 23446, Note_on_c, 0, 74, 64
1, 23448, Note_on_c, 1, 84, 0
1, 23448, Note_on_c, 1, 83, 64
1, 23456, Note_on_c, 0, 74, 0
1, 23456, Note_on_c, 0, 76, 64
1, 23460, Note_on_c, 1, 83, 0
1, 23460, Note_on_c, 1, 84, 64
1, 23466, Note_on_c, 0, 76, 0
1, 23466, Note_on_c, 0, 74, 64
1, 23472, Note_on_c, 1, 84, 0
1, 23472, Note_on_c, 1, 83, 64
1, 23476, Note_on_c, 0, 74, 0
1, 23476, Note_on_c, 0, 76, 64
1, 23484, Note_on_c, 1, 83, 0
1, 23484, Note_on_c, 1, 84, 64
1, 23486, Note_on_c, 0, 76, 0
1, 23486, Note_on_c, 0, 74, 64
1, 23496, Note_on_c, 0, 74, 0
1, 23496, Note_on_c, 0, 76, 64
1, 23496, Note_on_c, 1, 84, 0
1, 23496, Note_on_c, 1, 83, 64
1, 23506, Note_on_c, 0, 76, 0
1, 23506, Note_on_c, 0, 74, 64
1, 23508, Note_on_c, 1, 83, 0
1, 23508, Note_on_c, 1, 84, 64
1, 23516, Note_on_c, 0, 74, 0
1, 23516, Note_on_c, 0, 76, 64
1, 23520, Note_on_c, 1, 84, 0
1, 23520, Note_on_c, 1, 83, 64
1, 23526, Note_on_c, 0, 76, 0
1, 23526, Note_on_c, 0, 74, 64
1, 23532, Note_on_c, 1, 83, 0
1, 23532, Note_on_c, 1, 84, 64
1, 23536, Note_on_c, 0, 74, 0
1, 23536, Note_on_c, 0, 76, 64
1, 23544, Note_on_c, 1, 84, 0
1, 23544, Note_on_c, 1, 83, 64
1, 23546, Note_on_c, 0, 76, 0
1, 23546, Note_on_c, 0, 74, 64
1, 23556, Note_on_c, 0, 74, 0
1, 23556, Note_on_c, 0, 76, 64
1, 23556, Note_on_c, 1, 83, 0
1, 23556, Note_on_c, 1, 84, 64
1, 23566, Note_on_c, 0, 76, 0
1, 23566, Note_on_c, 0, 74, 64
1, 23568, Note_on_c, 1, 84, 0
1, 23568, Note_on_c, 1, 83, 64
1, 23576, Note_on_c, 0, 74, 0
1, 23576, Note_on_c, 0, 76, 64
1, 23580, Note_on_c, 1, 83, 0
1, 23580, Note_on_c, 1, 84, 64
1, 23586, Note_on_c, 0, 76, 0
1, 23586, Note_on_c, 0, 74, 64
1, 23592, Note_on_c, 1, 84, 0
1, 23592, Note_on_c, 1, 83, 64
1, 23596, Note_on_c, 0, 74, 0
1, 23596, Note_on_c, 0, 72, 64
1, 23601, Note_on_c, 1, 83, 0
1, 23606, Note_on_c, 0, 72, 0
1, 23606, Note_on_c, 0, 74, 64
1, 23616, Tempo, 1200000
1, 23616, Note_on_c, 0, 74, 0
1, 23616, Note_on_c, 0, 72, 64
1, 23616, Note_on_c, 1, 48, 64
1, 23631, Note_on_c, 1, 48, 0
1, 23632, Note_on_c, 1, 52, 64
1, 23647, Note_on_c, 1, 52, 0
1, 23648, Note_on_c, 1, 55, 64
1, 23663, Note_on_c, 1, 55, 0
1, 23664, Note_on_c, 1, 48, 64
1, 23679, Note_on_c, 1, 48, 0
1, 23680, Note_on_c, 1, 52, 64
1, 23695, Note_on_c, 1, 52, 0
1, 23696, Note_on_c, 1, 55, 64
1, 23705, Note_on_c, 0, 72, 0
1, 23711, Note_on_c, 1, 55, 0
1, 23712, Note_on_c, 1, 48, 64
1, 23727, Note_on_c, 1, 48, 0
1, 23728, Note_on_c, 0, 79, 64
1, 23728, Note_on_c, 1, 52, 64
1, 23743, Note_on_c, 0, 79, 0
1, 23743, Note_on_c, 1, 52, 0
1, 23744, Note_on_c, 0, 77, 64
1, 23744, Note_on_c, 1, 55, 64
1, 23759, Note_on_c, 0, 77, 0
1, 23759, Note_on_c, 1, 55, 0
1, 23760, Note_on_c, 0, 76, 64
1, 23760, Note_on_c, 1, 48, 64
1, 23775, Note_on_c, 0, 76, 0
1, 23775, Note_on_c, 1, 48, 0
1, 23776, Note_on_c, 0, 74, 64
1, 23776, Note_on_c, 1, 52, 64
1, 23791, Note_on_c, 0, 74, 0
1, 23791, Note_on_c, 1, 52, 0
1, 23792, Note_on_c, 0, 72, 64
1, 23792, Note_on_c, 1, 55, 64
1, 23807, Note_on_c, 0, 72, 0
1, 23807, Note_on_c, 1, 55, 0
1, 23808, Note_on_c, 0, 70, 64
1, 23808, Note_on_c, 1, 48, 64
1, 23823, Note_on_c, 0, 70, 0
1, 23823, Note_on_c, 1, 48, 0
1, 23824, Note_on_c, 0, 69, 64
1, 23824, Note_on_c, 1, 52, 64
1, 23839, Note_on_c, 0, 69, 0
1, 23839, Note_on_c, 1, 52, 0
1, 23840, Note_on_c, 0, 67, 64
1, 23840, Note_on_c, 1, 55, 64
1, 23855, Note_on_c, 0, 67, 0
1, 23855, Note_on_c, 1, 55, 0
1, 23856, Note_on_c, 0, 65, 64
1, 23856, Note_on_c, 1, 48, 64
1, 23871, Note_on_c, 0, 65, 0
1, 23871, Note_on_c, 1, 48, 0
1, 23872, Note_on_c, 0, 64, 64
1, 23872, Note_on_c, 1, 52, 64
1, 23887, Note_on_c, 0, 64, 0
1, 23887, Note_on_c, 1, 52, 0
1, 23888, Note_on_c, 0, 70, 64
1, 23888, Note_on_c, 1, 55, 64
1, 23903, Note_on_c, 0, 70, 0
1, 23903, Note_on_c, 1, 55, 0
1, 23904, Note_on_c, 0, 69, 64
1, 23904, Note_on_c, 1, 48, 64
1, 23919, Note_on_c, 0, 69, 0
1, 23919, Note_on_c, 1, 48, 0
1, 23920, Note_on_c, 0, 84, 64
1, 23920, Note_on_c, 1, 53, 64
1, 23935, Note_on_c, 0, 84, 0
1, 23935, Note_on_c, 1, 53, 0
1, 23936, Note_on_c, 0, 82, 64
1, 23936, Note_on_c, 1, 57, 64
1, 23951, Note_on_c, 0, 82, 0
1, 23951, Note_on_c, 1, 57, 0
1, 23952, Note_on_c, 0, 81, 64
1, 23952, Note_on_c, 1, 48, 64
1, 23967, Note_on_c, 0, 81, 0
1, 23967, Note_on_c, 1, 48, 0
1, 23968, Note_on_c, 0, 79, 64
1, 23968, Note_on_c, 1, 53, 64
1, 23983, Note_on_c, 0, 79, 0
1, 23983, Note_on_c, 1, 53, 0
1, 23984, Note_on_c, 0, 77, 64
1, 23984, Note_on_c, 1, 57, 64
1, 23999, Note_on_c, 0, 77, 0
1, 23999, Note_on_c, 1, 57, 0
1, 24000, Note_on_c, 0, 76, 64
1, 24000, Note_on_c, 1, 48, 64
1, 24015, Note_on_c, 0, 76, 0
1, 24015, Note_on_c, 1, 48, 0
1, 24016, Note_on_c, 0, 74, 64
1, 24016, Note_on_c, 1, 53, 64
1, 24031, Note_on_c, 0, 74, 0
1, 24031, Note_on_c, 1, 53, 0
1, 24032, Note_on_c, 0, 72, 64
1, 24032, Note_on_c, 1, 57, 64
1, 24047, Note_on_c, 0, 72, 0
1, 24047, Note_on_c, 1, 57, 0
1, 24048, Note_on_c, 0, 70, 64
1, 24048, Note_on_c, 1, 48, 64
1, 24063, Note_on_c, 0, 70, 0
1, 24063, Note_on_c, 1, 48, 0
1, 24064, Note_on_c, 0, 69, 64
1, 24064, Note_on_c, 1, 53, 64
1, 24079, Note_on_c, 0, 69, 0
1, 24079, Note_on_c, 1, 53, 0
1, 24080, Note_on_c, 0, 67, 64
1, 24080, Note_on_c, 1, 57, 64
1, 24095, Note_on_c, 0, 67, 0
1, 24095, Note_on_c, 1, 57, 0
1, 24096, Note_on_c, 0, 65, 64
1, 24096, Note_on_c, 1, 48, 64
1, 24111, Note_on_c, 0, 65, 0
1, 24111, Note_on_c, 1, 48, 0
1, 24112, Note_on_c, 0, 64, 64
1, 24112, Note_on_c, 1, 50, 64
1, 24127, Note_on_c, 0, 64, 0
1, 24127, Note_on_c, 1, 50, 0
1, 24128, Note_on_c, 0, 62, 64
1, 24128, Note_on_c, 1, 53, 64
1, 24143, Note_on_c, 0, 62, 0
1, 24143, Note_on_c, 1, 53, 0
1, 24144, Note_on_c, 0, 60, 64
1, 24144, Note_on_c, 1, 48, 64
1, 24159, Note_on_c, 0, 60, 0
1, 24159, Note_on_c, 1, 48, 0
1, 24160, Note_on_c, 0, 59, 64
1, 24160, Note_on_c, 1, 50, 64
1, 24175, Note_on_c, 0, 59, 0
1, 24175, Note_on_c, 1, 50, 0
1, 24176, Note_on_c, 0, 65, 64
1, 24176, Note_on_c, 1, 53, 64
1, 24191, Note_on_c, 0, 65, 0
1, 24191, Note_on_c, 1, 53, 0
1, 24192, Note_on_c, 0, 65, 64
1, 24192, Note_on_c, 0, 59, 64
1, 24192, Note_on_c, 1, 48, 64
1, 24288, Note_on_c, 0, 65, 0
1, 24288, Note_on_c, 0, 59, 0
1, 24288, Note_on_c, 0, 64, 64
1, 24288, Note_on_c, 0, 60, 64
1, 24288, Note_on_c, 0, 55, 64
1, 24288, Note_on_c, 1, 43, 64
1, 24288, Note_on_c, 1, 40, 64
1, 24288, Note_on_c, 1, 36, 64
1, 24465, Note_on_c, 0, 64, 0
1, 24465, Note_on_c, 0, 60, 0
1, 24465, Note_on_c, 0, 55, 0
1, 24465, Note_on_c, 1, 48, 0
1, 24465, Note_on_c, 1, 43, 0
1, 24465, Note_on_c, 1, 40, 0
1, 24465, Note_on_c, 1, 36, 0
1, 24475, End_track
0, 0, End_of_file