0, 0, Header, 0, 1, 1024
1, 0, Start_track
1, 0, Tempo, 750000
1, 0, Note_on_c, 0, 74, 42
1, 96, Note_on_c, 0, 72, 45
1, 125, Note_on_c, 0, 74, 0
1, 259, Note_on_c, 0, 71, 37
1, 290, Note_on_c, 0, 72, 0
1, 404, Note_on_c, 0, 69, 46
1, 411, Note_on_c, 0, 71, 0
1, 512, Note_on_c, 2, 67, 64
1, 536, Note_on_c, 0, 69, 0
1, 558, Note_on_c, 0, 67, 43
1, 1024, Note_on_c, 2, 67, 0
1, 1064, Note_on_c, 0, 76, 55
1, 1068, Note_on_c, 0, 79, 45
1, 1112, Note_on_c, 0, 67, 0
1, 1536, Note_on_c, 0, 79, 0
1, 1554, Note_on_c, 0, 74, 61
1, 1560, Note_on_c, 0, 78, 52
1, 1574, Note_on_c, 0, 76, 0
1, 2053, Note_on_c, 0, 76, 61
1, 2055, Note_on_c, 0, 72, 49
1, 2070, Note_on_c, 0, 74, 0
1, 2081, Note_on_c, 0, 78, 0
1, 2484, Note_on_c, 0, 72, 0
1, 2560, Note_on_c, 0, 76, 0
1, 2561, Note_on_c, 0, 74, 48
1, 2564, Note_on_c, 0, 71, 50
1, 3066, Note_on_c, 1, 55, 57
1, 3583, Note_on_c, 1, 43, 53
1, 3618, Note_on_c, 1, 55, 0
1, 4018, Note_on_c, 0, 74, 0
1, 4085, Note_on_c, 0, 76, 61
1, 4121, Note_on_c, 0, 71, 0
1, 4257, Note_on_c, 0, 74, 64
1, 4286, Note_on_c, 1, 43, 0
1, 4294, Note_on_c, 0, 76, 0
1, 4428, Note_on_c, 0, 72, 67
1, 4450, Note_on_c, 0, 74, 0
1, 4608, Note_on_c, 0, 72, 0
1, 4608, Note_on_c, 2, 71, 64
1, 4614, Note_on_c, 0, 71, 77
1, 5120, Note_on_c, 2, 71, 0
1, 5155, Note_on_c, 1, 55, 64
1, 5652, Note_on_c, 1, 43, 57
1, 5673, Note_on_c, 1, 55, 0
1, 5761, Note_on_c, 0, 71, 0
1, 6086, Note_on_c, 0, 71, 51
1, 6199, Note_on_c, 0, 69, 60
1, 6298, Note_on_c, 0, 71, 0
1, 6300, Note_on_c, 1, 43, 0
1, 6325, Note_on_c, 0, 67, 57
1, 6368, Note_on_c, 0, 69, 0
1, 6461, Note_on_c, 0, 66, 46
1, 6485, Note_on_c, 0, 67, 0
1, 6600, Note_on_c, 1, 48, 47
1, 6624, Note_on_c, 0, 64, 49
1, 6656, Note_on_c, 0, 66, 0
1, 7087, Note_on_c, 0, 64, 0
1, 7151, Note_on_c, 0, 72, 46
1, 7155, Note_on_c, 0, 76, 55
1, 7642, Note_on_c, 0, 74, 52
1, 7652, Note_on_c, 1, 50, 50
1, 7658, Note_on_c, 0, 71, 38
1, 7662, Note_on_c, 0, 76, 0
1, 7680, Note_on_c, 0, 72, 0
1, 7682, Note_on_c, 1, 48, 0
1, 8169, Note_on_c, 0, 72, 52
1, 8182, Note_on_c, 0, 69, 40
1, 8195, Note_on_c, 0, 74, 0
1, 8199, Note_on_c, 0, 71, 0
1, 8379, Note_on_c, 0, 69, 0
1, 8380, Note_on_c, 0, 72, 0
1, 8381, Note_on_c, 1, 50, 0
1, 8672, Note_on_c, 1, 55, 42
1, 8674, Note_on_c, 0, 72, 49
1, 8689, Note_on_c, 0, 69, 44
1, 8704, Note_on_c, 2, 72, 64
1, 9195, Note_on_c, 1, 50, 52
1, 9216, Note_on_c, 2, 72, 0
1, 9249, Note_on_c, 1, 55, 0
1, 9256, Note_on_c, 0, 72, 0
1, 9266, Note_on_c, 0, 69, 0
1, 9301, Note_on_c, 1, 50, 0
1, 9708, Note_on_c, 1, 43, 59
1, 9719, Note_on_c, 0, 67, 50
1, 9720, Note_on_c, 0, 71, 49
1, 9880, Note_on_c, 0, 71, 0
1, 9890, Note_on_c, 0, 67, 0
1, 10015, Note_on_c, 1, 43, 0
1, 10191, Note_on_c, 0, 71, 61
1, 10319, Note_on_c, 0, 69, 49
1, 10369, Note_on_c, 0, 71, 0
1, 10430, Note_on_c, 0, 67, 41
1, 10468, Note_on_c, 0, 69, 0
1, 10550, Note_on_c, 0, 66, 54
1, 10582, Note_on_c, 0, 67, 0
1, 10686, Note_on_c, 0, 66, 0
1, 10688, Note_on_c, 0, 64, 54
1, 10701, Note_on_c, 1, 48, 42
1, 11047, Note_on_c, 0, 64, 0
1, 11217, Note_on_c, 0, 76, 55
1, 11223, Note_on_c, 0, 72, 53
1, 11469, Note_on_c, 0, 72, 0
1, 11475, Note_on_c, 0, 76, 0
1, 11508, Note_on_c, 1, 48, 0
1, 11769, Note_on_c, 0, 71, 58
1, 11771, Note_on_c, 1, 50, 42
1, 11772, Note_on_c, 0, 74, 55
1, 11899, Note_on_c, 0, 74, 0
1, 11902, Note_on_c, 0, 71, 0
1, 12278, Note_on_c, 0, 60, 66
1, 12278, Note_on_c, 0, 66, 55
1, 12370, Note_on_c, 0, 60, 0
1, 12377, Note_on_c, 0, 66, 0
1, 12454, Note_on_c, 1, 50, 0
1, 12794, Note_on_c, 0, 67, 60
1, 12804, Note_on_c, 1, 59, 56
1, 12812, Note_on_c, 1, 55, 54
1, 13297, Note_on_c, 1, 50, 55
1, 13350, Note_on_c, 1, 55, 0
1, 13395, Note_on_c, 1, 59, 0
1, 13409, Note_on_c, 1, 50, 0
1, 13453, Note_on_c, 0, 67, 0
1, 13802, Note_on_c, 1, 43, 65
1, 14135, Note_on_c, 1, 43, 0
1, 14385, Note_on_c, 0, 74, 61
1, 14494, Note_on_c, 0, 72, 53
1, 14566, Note_on_c, 0, 74, 0
1, 14619, Note_on_c, 0, 71, 55
1, 14662, Note_on_c, 0, 72, 0
1, 14733, Note_on_c, 0, 69, 62
1, 14760, Note_on_c, 0, 71, 0
1, 14848, Note_on_c, 0, 67, 64
1, 14879, Note_on_c, 0, 69, 0
1, 15360, Note_on_c, 0, 67, 0
1, 15381, Note_on_c, 0, 79, 45
1, 15385, Note_on_c, 0, 76, 53
1, 15874, Note_on_c, 0, 74, 59
1, 15878, Note_on_c, 0, 78, 57
1, 15906, Note_on_c, 0, 79, 0
1, 15934, Note_on_c, 0, 76, 0
1, 16394, Note_on_c, 0, 76, 65
1, 16405, Note_on_c, 0, 72, 47
1, 16448, Note_on_c, 0, 74, 0
1, 16480, Note_on_c, 0, 78, 0
1, 16743, Note_on_c, 0, 72, 0
1, 16896, Note_on_c, 0, 76, 0
1, 16910, Note_on_c, 0, 71, 48
1, 16912, Note_on_c, 0, 74, 62
1, 17416, Note_on_c, 1, 55, 63
1, 17746, Note_on_c, 1, 55, 0
1, 17770, Note_on_c, 0, 71, 0
1, 17788, Note_on_c, 0, 74, 0
1, 17927, Note_on_c, 1, 43, 66
1, 18266, Note_on_c, 1, 43, 0
1, 18410, Note_on_c, 0, 74, 84
1, 18574, Note_on_c, 0, 79, 88
1, 18603, Note_on_c, 0, 74, 0
1, 18754, Note_on_c, 0, 83, 84
1, 18789, Note_on_c, 0, 79, 0
1, 18938, Note_on_c, 0, 81, 94
1, 18944, Note_on_c, 0, 83, 0
1, 19469, Note_on_c, 1, 54, 51
1, 19472, Note_on_c, 0, 62, 53
1, 19583, Note_on_c, 0, 62, 0
1, 19590, Note_on_c, 1, 54, 0
1, 19986, Note_on_c, 1, 54, 58
1, 19995, Note_on_c, 0, 62, 57
1, 20048, Note_on_c, 0, 81, 0
1, 20457, Note_on_c, 0, 79, 62
1, 20574, Note_on_c, 0, 78, 42
1, 20623, Note_on_c, 0, 79, 0
1, 20709, Note_on_c, 0, 76, 65
1, 20765, Note_on_c, 0, 78, 0
1, 20845, Note_on_c, 0, 74, 50
1, 20870, Note_on_c, 0, 76, 0
1, 20990, Note_on_c, 0, 74, 0
1, 20992, Note_on_c, 0, 62, 0
1, 20992, Note_on_c, 1, 54, 0
1, 20997, Note_on_c, 0, 73, 72
1, 21144, Note_on_c, 0, 73, 0
1, 21482, Note_on_c, 0, 76, 54
1, 21485, Note_on_c, 0, 79, 51
1, 21498, Note_on_c, 0, 61, 42
1, 21708, Note_on_c, 0, 61, 0
1, 21974, Note_on_c, 0, 61, 40
1, 22030, Note_on_c, 0, 76, 0
1, 22180, Note_on_c, 0, 61, 0
1, 22192, Note_on_c, 0, 79, 0
1, 22490, Note_on_c, 0, 62, 42
1, 22504, Note_on_c, 0, 78, 46
1, 22511, Note_on_c, 0, 74, 44
1, 22594, Note_on_c, 0, 78, 0
1, 22608, Note_on_c, 0, 74, 0
1, 22646, Note_on_c, 0, 62, 0
1, 23008, Note_on_c, 0, 78, 39
1, 23013, Note_on_c, 0, 74, 54
1, 23016, Note_on_c, 1, 57, 45
1, 23384, Note_on_c, 0, 78, 0
1, 23407, Note_on_c, 0, 74, 0
1, 23538, Note_on_c, 0, 73, 40
1, 23542, Note_on_c, 0, 76, 47
1, 23917, Note_on_c, 0, 76, 0
1, 23929, Note_on_c, 0, 73, 0
1, 24545, Note_on_c, 0, 69, 59
1, 24663, Note_on_c, 0, 67, 48
1, 24719, Note_on_c, 0, 69, 0
1, 24734, Note_on_c, 1, 57, 0
1, 24783, Note_on_c, 0, 66, 67
1, 24810, Note_on_c, 0, 67, 0
1, 24907, Note_on_c, 0, 64, 54
1, 24937, Note_on_c, 0, 66, 0
1, 25021, Note_on_c, 0, 64, 0
1, 25044, Note_on_c, 0, 62, 49
1, 25044, Note_on_c, 1, 50, 46
1, 25339, Note_on_c, 1, 50, 0
1, 25351, Note_on_c, 0, 62, 0
1, 25540, Note_on_c, 0, 74, 59
1, 25562, Note_on_c, 1, 59, 37
1, 25722, Note_on_c, 0, 74, 0
1, 25777, Note_on_c, 0, 62, 54
1, 25824, Note_on_c, 1, 59, 0
1, 25904, Note_on_c, 0, 62, 0
1, 26024, Note_on_c, 0, 73, 45
1, 26045, Note_on_c, 1, 57, 39
1, 26160, Note_on_c, 1, 57, 0
1, 26215, Note_on_c, 0, 73, 0
1, 26277, Note_on_c, 0, 62, 49
1, 26426, Note_on_c, 0, 62, 0
1, 26516, Note_on_c, 0, 71, 58
1, 26533, Note_on_c, 1, 55, 34
1, 26654, Note_on_c, 0, 71, 0
1, 26660, Note_on_c, 1, 55, 0
1, 26786, Note_on_c, 0, 62, 53
1, 26884, Note_on_c, 0, 62, 0
1, 27047, Note_on_c, 0, 69, 55
1, 27056, Note_on_c, 1, 54, 37
1, 27093, Note_on_c, 1, 54, 0
1, 27174, Note_on_c, 0, 69, 0
1, 27372, Note_on_c, 0, 62, 49
1, 27505, Note_on_c, 0, 62, 0
1, 27618, Note_on_c, 0, 67, 49
1, 27632, Note_on_c, 1, 52, 44
1, 27718, Note_on_c, 1, 52, 0
1, 27772, Note_on_c, 0, 67, 0
1, 27905, Note_on_c, 0, 62, 45
1, 28001, Note_on_c, 0, 62, 0
1, 28136, Note_on_c, 1, 50, 49
1, 28148, Note_on_c, 0, 66, 49
1, 28380, Note_on_c, 0, 66, 0
1, 28382, Note_on_c, 1, 50, 0
1, 28634, Note_on_c, 0, 69, 60
1, 28751, Note_on_c, 0, 67, 52
1, 28818, Note_on_c, 0, 69, 0
1, 28876, Note_on_c, 0, 66, 65
1, 28920, Note_on_c, 0, 67, 0
1, 29005, Note_on_c, 0, 64, 50
1, 29025, Note_on_c, 0, 66, 0
1, 29132, Note_on_c, 0, 64, 0
1, 29156, Note_on_c, 0, 62, 55
1, 29568, Note_on_c, 0, 62, 0
1, 29677, Note_on_c, 0, 74, 43
1, 29690, Note_on_c, 1, 59, 50
1, 29908, Note_on_c, 0, 74, 0
1, 29937, Note_on_c, 0, 62, 43
1, 29944, Note_on_c, 1, 59, 0
1, 30076, Note_on_c, 0, 62, 0
1, 30163, Note_on_c, 0, 73, 51
1, 30198, Note_on_c, 1, 57, 33
1, 30367, Note_on_c, 0, 73, 0
1, 30413, Note_on_c, 0, 62, 46
1, 30428, Note_on_c, 1, 57, 0
1, 30519, Note_on_c, 0, 62, 0
1, 30664, Note_on_c, 0, 71, 52
1, 30704, Note_on_c, 1, 55, 34
1, 30907, Note_on_c, 1, 55, 0
1, 30914, Note_on_c, 0, 71, 0
1, 30918, Note_on_c, 0, 62, 51
1, 31042, Note_on_c, 0, 62, 0
1, 31175, Note_on_c, 1, 54, 36
1, 31176, Note_on_c, 0, 69, 49
1, 31428, Note_on_c, 1, 54, 0
1, 31429, Note_on_c, 0, 62, 47
1, 31441, Note_on_c, 0, 69, 0
1, 31564, Note_on_c, 0, 62, 0
1, 31668, Note_on_c, 1, 52, 42
1, 31677, Note_on_c, 0, 67, 47
1, 31890, Note_on_c, 1, 52, 0
1, 31922, Note_on_c, 0, 67, 0
1, 31927, Note_on_c, 0, 62, 49
1, 32174, Note_on_c, 1, 50, 36
1, 32175, Note_on_c, 0, 62, 0
1, 32183, Note_on_c, 0, 66, 51
1, 32684, Note_on_c, 0, 69, 53
1, 32711, Note_on_c, 0, 66, 0
1, 32910, Note_on_c, 1, 50, 0
1, 33063, Note_on_c, 0, 69, 0
1, 33197, Note_on_c, 0, 67, 50
1, 33211, Note_on_c, 1, 49, 37
1, 33280, Note_on_c, 0, 67, 0
1, 33333, Note_on_c, 1, 49, 0
1, 33474, Note_on_c, 1, 57, 37
1, 33587, Note_on_c, 1, 57, 0
1, 33714, Note_on_c, 1, 49, 41
1, 33724, Note_on_c, 0, 64, 38
1, 33924, Note_on_c, 1, 49, 0
1, 33972, Note_on_c, 1, 57, 26
1, 34006, Note_on_c, 0, 64, 0
1, 34076, Note_on_c, 1, 57, 0
1, 34242, Note_on_c, 1, 49, 27
1, 34385, Note_on_c, 1, 49, 0
1, 34515, Note_on_c, 1, 57, 31
1, 34610, Note_on_c, 1, 57, 0
1, 34795, Note_on_c, 1, 49, 33
1, 34799, Note_on_c, 0, 79, 46
1, 34804, Note_on_c, 0, 76, 43
1, 35000, Note_on_c, 1, 49, 0
1, 35051, Note_on_c, 1, 57, 45
1, 35055, Note_on_c, 0, 76, 0
1, 35107, Note_on_c, 0, 79, 0
1, 35121, Note_on_c, 1, 57, 0
1, 35310, Note_on_c, 1, 50, 45
1, 35326, Note_on_c, 0, 78, 49
1, 35344, Note_on_c, 0, 74, 40
1, 35539, Note_on_c, 1, 50, 0
1, 35591, Note_on_c, 0, 78, 0
1, 35597, Note_on_c, 1, 57, 37
1, 35611, Note_on_c, 0, 74, 0
1, 35698, Note_on_c, 1, 57, 0
1, 35815, Note_on_c, 0, 81, 55
1, 35821, Note_on_c, 0, 78, 46
1, 35833, Note_on_c, 1, 50, 42
1, 35961, Note_on_c, 1, 50, 0
1, 36081, Note_on_c, 1, 57, 35
1, 36176, Note_on_c, 0, 81, 0
1, 36196, Note_on_c, 0, 78, 0
1, 36212, Note_on_c, 1, 57, 0
1, 36328, Note_on_c, 1, 50, 39
1, 36460, Note_on_c, 1, 50, 0
1, 36569, Note_on_c, 1, 57, 37
1, 36685, Note_on_c, 1, 57, 0
1, 36835, Note_on_c, 1, 50, 42
1, 36860, Note_on_c, 0, 69, 39
1, 36990, Note_on_c, 1, 50, 0
1, 37088, Note_on_c, 1, 57, 48
1, 37149, Note_on_c, 0, 69, 0
1, 37218, Note_on_c, 1, 57, 0
1, 37342, Note_on_c, 0, 67, 36
1, 37342, Note_on_c, 1, 49, 43
1, 37581, Note_on_c, 1, 49, 0
1, 37604, Note_on_c, 1, 57, 44
1, 37711, Note_on_c, 1, 57, 0
1, 37830, Note_on_c, 0, 67, 0
1, 37837, Note_on_c, 1, 49, 42
1, 37841, Note_on_c, 0, 64, 59
1, 38058, Note_on_c, 1, 49, 0
1, 38112, Note_on_c, 1, 57, 34
1, 38145, Note_on_c, 0, 64, 0
1, 38192, Note_on_c, 1, 57, 0
1, 38331, Note_on_c, 1, 49, 37
1, 38503, Note_on_c, 1, 49, 0
1, 38614, Note_on_c, 1, 57, 50
1, 38865, Note_on_c, 1, 49, 41
1, 38871, Note_on_c, 0, 79, 55
1, 38878, Note_on_c, 1, 57, 0
1, 38882, Note_on_c, 0, 76, 61
1, 39149, Note_on_c, 1, 57, 51
1, 39177, Note_on_c, 1, 49, 0
1, 39383, Note_on_c, 1, 57, 0
1, 39384, Note_on_c, 1, 50, 48
1, 39398, Note_on_c, 0, 74, 47
1, 39399, Note_on_c, 0, 78, 51
1, 39424, Note_on_c, 0, 76, 0
1, 39424, Note_on_c, 0, 79, 0
1, 39645, Note_on_c, 1, 57, 44
1, 39663, Note_on_c, 1, 50, 0
1, 39744, Note_on_c, 0, 78, 0
1, 39808, Note_on_c, 0, 74, 0
1, 39881, Note_on_c, 0, 78, 52
1, 39882, Note_on_c, 0, 81, 52
1, 39891, Note_on_c, 1, 50, 45
1, 39924, Note_on_c, 1, 57, 0
1, 40169, Note_on_c, 1, 57, 42
1, 40182, Note_on_c, 1, 50, 0
1, 40418, Note_on_c, 1, 50, 46
1, 40440, Note_on_c, 1, 57, 0
1, 40456, Note_on_c, 0, 81, 0
1, 40488, Note_on_c, 0, 78, 0
1, 40696, Note_on_c, 1, 57, 44
1, 40710, Note_on_c, 1, 50, 0
1, 40980, Note_on_c, 1, 50, 41
1, 41000, Note_on_c, 1, 57, 0
1, 41201, Note_on_c, 1, 50, 0
1, 41238, Note_on_c, 1, 57, 50
1, 41460, Note_on_c, 1, 49, 42
1, 41462, Note_on_c, 0, 67, 65
1, 41472, Note_on_c, 1, 57, 0
1, 41693, Note_on_c, 1, 57, 42
1, 41748, Note_on_c, 1, 49, 0
1, 41946, Note_on_c, 0, 64, 64
1, 41965, Note_on_c, 1, 49, 37
1, 41968, Note_on_c, 1, 57, 0
1, 42239, Note_on_c, 1, 57, 33
1, 42265, Note_on_c, 1, 49, 0
1, 42468, Note_on_c, 1, 49, 46
1, 42482, Note_on_c, 1, 57, 0
1, 42699, Note_on_c, 0, 64, 0
1, 42733, Note_on_c, 0, 67, 0
1, 42754, Note_on_c, 1, 57, 42
1, 42759, Note_on_c, 1, 49, 0
1, 42979, Note_on_c, 1, 57, 0
1, 42980, Note_on_c, 1, 49, 47
1, 42991, Note_on_c, 0, 79, 53
1, 42997, Note_on_c, 0, 76, 61
1, 43242, Note_on_c, 1, 49, 0
1, 43278, Note_on_c, 1, 57, 46
1, 43309, Note_on_c, 0, 76, 0
1, 43466, Note_on_c, 0, 79, 0
1, 43498, Note_on_c, 1, 50, 62
1, 43512, Note_on_c, 0, 78, 57
1, 43520, Note_on_c, 0, 74, 47
1, 43520, Note_on_c, 1, 57, 0
1, 43772, Note_on_c, 0, 78, 0
1, 43783, Note_on_c, 0, 74, 0
1, 44013, Note_on_c, 0, 69, 51
1, 44202, Note_on_c, 0, 71, 61
1, 44258, Note_on_c, 0, 69, 0
1, 44368, Note_on_c, 0, 73, 72
1, 44393, Note_on_c, 0, 71, 0
1, 44407, Note_on_c, 1, 50, 0
1, 44462, Note_on_c, 0, 73, 0
1, 44527, Note_on_c, 0, 74, 88
1, 44660, Note_on_c, 0, 74, 0
1, 44686, Note_on_c, 0, 76, 70
1, 44852, Note_on_c, 0, 78, 54
1, 44881, Note_on_c, 0, 76, 0
1, 45015, Note_on_c, 0, 79, 49
1, 45021, Note_on_c, 0, 78, 0
1, 45042, Note_on_c, 0, 61, 34
1, 45189, Note_on_c, 0, 79, 0
1, 45193, Note_on_c, 0, 78, 54
1, 45360, Note_on_c, 0, 79, 64
1, 45397, Note_on_c, 0, 78, 0
1, 45532, Note_on_c, 0, 78, 74
1, 45550, Note_on_c, 0, 62, 39
1, 45568, Note_on_c, 0, 61, 0
1, 45568, Note_on_c, 0, 79, 0
1, 45864, Note_on_c, 0, 78, 0
1, 46038, Note_on_c, 0, 69, 61
1, 46217, Note_on_c, 0, 71, 65
1, 46252, Note_on_c, 0, 69, 0
1, 46381, Note_on_c, 0, 73, 47
1, 46413, Note_on_c, 0, 71, 0
1, 46493, Note_on_c, 0, 73, 0
1, 46536, Note_on_c, 0, 74, 66
1, 46686, Note_on_c, 0, 74, 0
1, 46709, Note_on_c, 0, 76, 57
1, 46844, Note_on_c, 0, 62, 0
1, 46890, Note_on_c, 0, 78, 59
1, 46894, Note_on_c, 0, 76, 0
1, 47068, Note_on_c, 0, 76, 49
1, 47078, Note_on_c, 0, 78, 0
1, 47109, Note_on_c, 0, 61, 34
1, 47259, Note_on_c, 0, 78, 46
1, 47337, Note_on_c, 0, 76, 0
1, 47431, Note_on_c, 0, 79, 52
1, 47460, Note_on_c, 0, 78, 0
1, 47586, Note_on_c, 0, 61, 0
1, 47616, Note_on_c, 0, 79, 0
1, 47634, Note_on_c, 0, 78, 58
1, 47643, Note_on_c, 0, 62, 35
1, 48105, Note_on_c, 0, 81, 66
1, 48160, Note_on_c, 0, 78, 0
1, 48270, Note_on_c, 0, 79, 66
1, 48336, Note_on_c, 0, 81, 0
1, 48430, Note_on_c, 0, 78, 74
1, 48464, Note_on_c, 0, 79, 0
1, 48590, Note_on_c, 0, 78, 0
1, 48602, Note_on_c, 0, 62, 0
1, 48606, Note_on_c, 0, 83, 65
1, 48612, Note_on_c, 1, 55, 47
1, 49082, Note_on_c, 0, 79, 59
1, 49117, Note_on_c, 0, 83, 0
1, 49255, Note_on_c, 0, 78, 47
1, 49296, Note_on_c, 0, 79, 0
1, 49405, Note_on_c, 0, 76, 48
1, 49429, Note_on_c, 0, 78, 0
1, 49485, Note_on_c, 1, 55, 0
1, 49586, Note_on_c, 0, 76, 0
1, 49591, Note_on_c, 0, 74, 52
1, 49664, Note_on_c, 0, 74, 0
1, 50163, Note_on_c, 1, 54, 46
1, 50391, Note_on_c, 1, 54, 0
1, 50656, Note_on_c, 1, 55, 35
1, 50734, Note_on_c, 0, 78, 53
1, 50774, Note_on_c, 0, 76, 58
1, 50788, Note_on_c, 0, 78, 0
1, 50803, Note_on_c, 1, 55, 0
1, 50814, Note_on_c, 0, 78, 52
1, 50818, Note_on_c, 0, 76, 0
1, 50860, Note_on_c, 0, 76, 72
1, 50872, Note_on_c, 0, 78, 0
1, 50897, Note_on_c, 0, 78, 50
1, 50910, Note_on_c, 0, 76, 0
1, 50950, Note_on_c, 0, 78, 0
1, 50952, Note_on_c, 0, 76, 67
1, 50990, Note_on_c, 0, 78, 59
1, 51003, Note_on_c, 0, 76, 0
1, 51050, Note_on_c, 0, 76, 78
1, 51051, Note_on_c, 0, 78, 0
1, 51073, Note_on_c, 1, 57, 40
1, 51102, Note_on_c, 0, 78, 57
1, 51107, Note_on_c, 0, 76, 0
1, 51138, Note_on_c, 0, 78, 0
1, 51142, Note_on_c, 0, 76, 59
1, 51176, Note_on_c, 0, 78, 54
1, 51188, Note_on_c, 0, 76, 0
1, 51229, Note_on_c, 0, 76, 73
1, 51231, Note_on_c, 0, 78, 0
1, 51232, Note_on_c, 1, 57, 0
1, 51279, Note_on_c, 0, 78, 58
1, 51285, Note_on_c, 0, 76, 0
1, 51311, Note_on_c, 0, 78, 0
1, 51319, Note_on_c, 0, 76, 66
1, 51359, Note_on_c, 0, 78, 73
1, 51378, Note_on_c, 0, 76, 0
1, 51420, Note_on_c, 0, 76, 65
1, 51430, Note_on_c, 0, 78, 0
1, 51507, Note_on_c, 0, 74, 65
1, 51526, Note_on_c, 0, 76, 0
1, 51574, Note_on_c, 1, 50, 40
1, 51601, Note_on_c, 0, 76, 58
1, 51611, Note_on_c, 0, 74, 0
1, 51700, Note_on_c, 0, 74, 67
1, 51723, Note_on_c, 0, 76, 0
1, 51758, Note_on_c, 1, 50, 0
1, 51882, Note_on_c, 0, 74, 0
1, 52097, Note_on_c, 0, 81, 61
1, 52258, Note_on_c, 0, 79, 60
1, 52351, Note_on_c, 0, 81, 0
1, 52428, Note_on_c, 0, 78, 61
1, 52458, Note_on_c, 0, 79, 0
1, 52652, Note_on_c, 0, 83, 64
1, 52730, Note_on_c, 0, 78, 0
1, 52792, Note_on_c, 1, 55, 42
1, 53160, Note_on_c, 0, 79, 54
1, 53162, Note_on_c, 0, 83, 0
1, 53329, Note_on_c, 0, 78, 45
1, 53344, Note_on_c, 0, 79, 0
1, 53497, Note_on_c, 0, 76, 47
1, 53526, Note_on_c, 0, 78, 0
1, 53670, Note_on_c, 0, 74, 42
1, 53672, Note_on_c, 0, 76, 0
1, 53760, Note_on_c, 0, 74, 0
1, 53902, Note_on_c, 1, 55, 0
1, 54282, Note_on_c, 1, 54, 42
1, 54449, Note_on_c, 1, 54, 0
1, 54764, Note_on_c, 1, 55, 50
1, 54784, Note_on_c, 0, 78, 50
1, 54806, Note_on_c, 1, 55, 0
1, 54822, Note_on_c, 0, 76, 56
1, 54828, Note_on_c, 0, 78, 0
1, 54868, Note_on_c, 0, 76, 0
1, 54876, Note_on_c, 0, 78, 47
1, 54911, Note_on_c, 0, 76, 59
1, 54949, Note_on_c, 0, 76, 0
1, 54998, Note_on_c, 0, 76, 75
1, 55006, Note_on_c, 0, 78, 0
1, 55036, Note_on_c, 0, 78, 44
1, 55045, Note_on_c, 0, 76, 0
1, 55092, Note_on_c, 0, 78, 0
1, 55095, Note_on_c, 0, 76, 72
1, 55130, Note_on_c, 0, 76, 0
1, 55130, Note_on_c, 0, 78, 52
1, 55182, Note_on_c, 0, 78, 0
1, 55188, Note_on_c, 0, 76, 78
1, 55192, Note_on_c, 1, 57, 38
1, 55216, Note_on_c, 0, 78, 49
1, 55225, Note_on_c, 0, 76, 0
1, 55264, Note_on_c, 0, 78, 0
1, 55270, Note_on_c, 0, 76, 63
1, 55302, Note_on_c, 0, 78, 47
1, 55312, Note_on_c, 0, 76, 0
1, 55328, Note_on_c, 1, 57, 0
1, 55362, Note_on_c, 0, 76, 75
1, 55423, Note_on_c, 0, 78, 0
1, 55491, Note_on_c, 0, 78, 77
1, 55541, Note_on_c, 0, 76, 0
1, 55601, Note_on_c, 0, 76, 61
1, 55607, Note_on_c, 0, 78, 0
1, 55665, Note_on_c, 0, 74, 61
1, 55667, Note_on_c, 0, 76, 0
1, 55704, Note_on_c, 0, 74, 0
1, 55707, Note_on_c, 0, 76, 66
1, 55772, Note_on_c, 0, 76, 0
1, 55780, Note_on_c, 0, 74, 49
1, 55790, Note_on_c, 1, 50, 39
1, 56177, Note_on_c, 0, 74, 0
1, 56216, Note_on_c, 1, 50, 0
1, 56827, Note_on_c, 0, 74, 42
1, 56928, Note_on_c, 0, 72, 45
1, 56957, Note_on_c, 0, 74, 0
1, 57091, Note_on_c, 0, 71, 37
1, 57122, Note_on_c, 0, 72, 0
1, 57236, Note_on_c, 0, 69, 46
1, 57243, Note_on_c, 0, 71, 0
1, 57344, Note_on_c, 2, 67, 64
1, 57368, Note_on_c, 0, 69, 0
1, 57390, Note_on_c, 0, 67, 43
1, 57856, Note_on_c, 2, 67, 0
1, 57896, Note_on_c, 0, 76, 55
1, 57900, Note_on_c, 0, 79, 45
1, 57944, Note_on_c, 0, 67, 0
1, 58368, Note_on_c, 0, 79, 0
1, 58386, Note_on_c, 0, 74, 61
1, 58392, Note_on_c, 0, 78, 52
1, 58406, Note_on_c, 0, 76, 0
1, 58885, Note_on_c, 0, 76, 61
1, 58887, Note_on_c, 0, 72, 49
1, 58902, Note_on_c, 0, 74, 0
1, 58913, Note_on_c, 0, 78, 0
1, 59316, Note_on_c, 0, 72, 0
1, 59392, Note_on_c, 0, 76, 0
1, 59393, Note_on_c, 0, 74, 48
1, 59396, Note_on_c, 0, 71, 50
1, 59898, Note_on_c, 1, 55, 57
1, 60415, Note_on_c, 1, 43, 53
1, 60450, Note_on_c, 1, 55, 0
1, 60850, Note_on_c, 0, 74, 0
1, 60917, Note_on_c, 0, 76, 61
1, 60953, Note_on_c, 0, 71, 0
1, 61089, Note_on_c, 0, 74, 64
1, 61118, Note_on_c, 1, 43, 0
1, 61126, Note_on_c, 0, 76, 0
1, 61260, Note_on_c, 0, 72, 67
1, 61282, Note_on_c, 0, 74, 0
1, 61440, Note_on_c, 0, 72, 0
1, 61440, Note_on_c, 2, 71, 64
1, 61446, Note_on_c, 0, 71, 77
1, 61952, Note_on_c, 2, 71, 0
1, 61987, Note_on_c, 1, 55, 64
1, 62484, Note_on_c, 1, 43, 57
1, 62505, Note_on_c, 1, 55, 0
1, 62593, Note_on_c, 0, 71, 0
1, 62918, Note_on_c, 0, 71, 51
1, 63031, Note_on_c, 0, 69, 60
1, 63130, Note_on_c, 0, 71, 0
1, 63132, Note_on_c, 1, 43, 0
1, 63157, Note_on_c, 0, 67, 57
1, 63200, Note_on_c, 0, 69, 0
1, 63293, Note_on_c, 0, 66, 46
1, 63317, Note_on_c, 0, 67, 0
1, 63432, Note_on_c, 1, 48, 47
1, 63456, Note_on_c, 0, 64, 49
1, 63488, Note_on_c, 0, 66, 0
1, 63919, Note_on_c, 0, 64, 0
1, 63983, Note_on_c, 0, 72, 46
1, 63987, Note_on_c, 0, 76, 55
1, 64474, Note_on_c, 0, 74, 52
1, 64484, Note_on_c, 1, 50, 50
1, 64490, Note_on_c, 0, 71, 38
1, 64494, Note_on_c, 0, 76, 0
1, 64512, Note_on_c, 0, 72, 0
1, 64514, Note_on_c, 1, 48, 0
1, 65001, Note_on_c, 0, 72, 52
1, 65014, Note_on_c, 0, 69, 40
1, 65027, Note_on_c, 0, 74, 0
1, 65031, Note_on_c, 0, 71, 0
1, 65211, Note_on_c, 0, 69, 0
1, 65212, Note_on_c, 0, 72, 0
1, 65213, Note_on_c, 1, 50, 0
1, 65504, Note_on_c, 1, 55, 42
1, 65506, Note_on_c, 0, 72, 49
1, 65521, Note_on_c, 0, 69, 44
1, 65536, Note_on_c, 2, 72, 64
1, 66027, Note_on_c, 1, 50, 52
1, 66048, Note_on_c, 2, 72, 0
1, 66081, Note_on_c, 1, 55, 0
1, 66088, Note_on_c, 0, 72, 0
1, 66098, Note_on_c, 0, 69, 0
1, 66133, Note_on_c, 1, 50, 0
1, 66540, Note_on_c, 1, 43, 59
1, 66551, Note_on_c, 0, 67, 50
1, 66552, Note_on_c, 0, 71, 49
1, 66712, Note_on_c, 0, 71, 0
1, 66722, Note_on_c, 0, 67, 0
1, 66847, Note_on_c, 1, 43, 0
1, 67023, Note_on_c, 0, 71, 61
1, 67151, Note_on_c, 0, 69, 49
1, 67201, Note_on_c, 0, 71, 0
1, 67262, Note_on_c, 0, 67, 41
1, 67300, Note_on_c, 0, 69, 0
1, 67382, Note_on_c, 0, 66, 54
1, 67414, Note_on_c, 0, 67, 0
1, 67518, Note_on_c, 0, 66, 0
1, 67520, Note_on_c, 0, 64, 54
1, 67533, Note_on_c, 1, 48, 42
1, 67879, Note_on_c, 0, 64, 0
1, 68049, Note_on_c, 0, 76, 55
1, 68055, Note_on_c, 0, 72, 53
1, 68301, Note_on_c, 0, 72, 0
1, 68307, Note_on_c, 0, 76, 0
1, 68340, Note_on_c, 1, 48, 0
1, 68601, Note_on_c, 0, 71, 58
1, 68603, Note_on_c, 1, 50, 42
1, 68604, Note_on_c, 0, 74, 55
1, 68731, Note_on_c, 0, 74, 0
1, 68734, Note_on_c, 0, 71, 0
1, 69110, Note_on_c, 0, 60, 66
1, 69110, Note_on_c, 0, 66, 55
1, 69202, Note_on_c, 0, 60, 0
1, 69209, Note_on_c, 0, 66, 0
1, 69286, Note_on_c, 1, 50, 0
1, 69626, Note_on_c, 0, 67, 60
1, 69636, Note_on_c, 1, 59, 56
1, 69644, Note_on_c, 1, 55, 54
1, 70129, Note_on_c, 1, 50, 55
1, 70182, Note_on_c, 1, 55, 0
1, 70227, Note_on_c, 1, 59, 0
1, 70241, Note_on_c, 1, 50, 0
1, 70285, Note_on_c, 0, 67, 0
1, 70634, Note_on_c, 1, 43, 65
1, 70967, Note_on_c, 1, 43, 0
1, 71217, Note_on_c, 0, 74, 61
1, 71326, Note_on_c, 0, 72, 53
1, 71398, Note_on_c, 0, 74, 0
1, 71451, Note_on_c, 0, 71, 55
1, 71494, Note_on_c, 0, 72, 0
1, 71565, Note_on_c, 0, 69, 62
1, 71592, Note_on_c, 0, 71, 0
1, 71680, Note_on_c, 0, 67, 64
1, 71711, Note_on_c, 0, 69, 0
1, 72192, Note_on_c, 0, 67, 0
1, 72213, Note_on_c, 0, 79, 45
1, 72217, Note_on_c, 0, 76, 53
1, 72706, Note_on_c, 0, 74, 59
1, 72710, Note_on_c, 0, 78, 57
1, 72738, Note_on_c, 0, 79, 0
1, 72766, Note_on_c, 0, 76, 0
1, 73226, Note_on_c, 0, 76, 65
1, 73237, Note_on_c, 0, 72, 47
1, 73280, Note_on_c, 0, 74, 0
1, 73312, Note_on_c, 0, 78, 0
1, 73575, Note_on_c, 0, 72, 0
1, 73728, Note_on_c, 0, 76, 0
1, 73742, Note_on_c, 0, 71, 48
1, 73744, Note_on_c, 0, 74, 62
1, 74248, Note_on_c, 1, 55, 63
1, 74578, Note_on_c, 1, 55, 0
1, 74602, Note_on_c, 0, 71, 0
1, 74620, Note_on_c, 0, 74, 0
1, 74759, Note_on_c, 1, 43, 66
1, 75098, Note_on_c, 1, 43, 0
1, 75242, Note_on_c, 0, 74, 84
1, 75406, Note_on_c, 0, 79, 88
1, 75435, Note_on_c, 0, 74, 0
1, 75586, Note_on_c, 0, 83, 84
1, 75621, Note_on_c, 0, 79, 0
1, 75770, Note_on_c, 0, 81, 94
1, 75776, Note_on_c, 0, 83, 0
1, 76301, Note_on_c, 1, 54, 51
1, 76304, Note_on_c, 0, 62, 53
1, 76415, Note_on_c, 0, 62, 0
1, 76422, Note_on_c, 1, 54, 0
1, 76818, Note_on_c, 1, 54, 58
1, 76827, Note_on_c, 0, 62, 57
1, 76880, Note_on_c, 0, 81, 0
1, 77289, Note_on_c, 0, 79, 62
1, 77406, Note_on_c, 0, 78, 42
1, 77455, Note_on_c, 0, 79, 0
1, 77541, Note_on_c, 0, 76, 65
1, 77597, Note_on_c, 0, 78, 0
1, 77677, Note_on_c, 0, 74, 50
1, 77702, Note_on_c, 0, 76, 0
1, 77822, Note_on_c, 0, 74, 0
1, 77824, Note_on_c, 0, 62, 0
1, 77824, Note_on_c, 1, 54, 0
1, 77829, Note_on_c, 0, 73, 72
1, 77976, Note_on_c, 0, 73, 0
1, 78314, Note_on_c, 0, 76, 54
1, 78317, Note_on_c, 0, 79, 51
1, 78330, Note_on_c, 0, 61, 42
1, 78540, Note_on_c, 0, 61, 0
1, 78806, Note_on_c, 0, 61, 40
1, 78862, Note_on_c, 0, 76, 0
1, 79012, Note_on_c, 0, 61, 0
1, 79024, Note_on_c, 0, 79, 0
1, 79322, Note_on_c, 0, 62, 42
1, 79336, Note_on_c, 0, 78, 46
1, 79343, Note_on_c, 0, 74, 44
1, 79426, Note_on_c, 0, 78, 0
1, 79440, Note_on_c, 0, 74, 0
1, 79478, Note_on_c, 0, 62, 0
1, 79840, Note_on_c, 0, 78, 39
1, 79845, Note_on_c, 0, 74, 54
1, 79848, Note_on_c, 1, 57, 45
1, 80216, Note_on_c, 0, 78, 0
1, 80239, Note_on_c, 0, 74, 0
1, 80370, Note_on_c, 0, 73, 40
1, 80374, Note_on_c, 0, 76, 47
1, 80749, Note_on_c, 0, 76, 0
1, 80761, Note_on_c, 0, 73, 0
1, 81377, Note_on_c, 0, 69, 59
1, 81495, Note_on_c, 0, 67, 48
1, 81551, Note_on_c, 0, 69, 0
1, 81566, Note_on_c, 1, 57, 0
1, 81615, Note_on_c, 0, 66, 67
1, 81642, Note_on_c, 0, 67, 0
1, 81739, Note_on_c, 0, 64, 54
1, 81769, Note_on_c, 0, 66, 0
1, 81853, Note_on_c, 0, 64, 0
1, 81876, Note_on_c, 0, 62, 49
1, 81876, Note_on_c, 1, 50, 46
1, 82171, Note_on_c, 1, 50, 0
1, 82183, Note_on_c, 0, 62, 0
1, 82372, Note_on_c, 0, 74, 59
1, 82394, Note_on_c, 1, 59, 37
1, 82554, Note_on_c, 0, 74, 0
1, 82609, Note_on_c, 0, 62, 54
1, 82656, Note_on_c, 1, 59, 0
1, 82736, Note_on_c, 0, 62, 0
1, 82856, Note_on_c, 0, 73, 45
1, 82877, Note_on_c, 1, 57, 39
1, 82992, Note_on_c, 1, 57, 0
1, 83047, Note_on_c, 0, 73, 0
1, 83109, Note_on_c, 0, 62, 49
1, 83258, Note_on_c, 0, 62, 0
1, 83348, Note_on_c, 0, 71, 58
1, 83365, Note_on_c, 1, 55, 34
1, 83486, Note_on_c, 0, 71, 0
1, 83492, Note_on_c, 1, 55, 0
1, 83618, Note_on_c, 0, 62, 53
1, 83716, Note_on_c, 0, 62, 0
1, 83879, Note_on_c, 0, 69, 55
1, 83888, Note_on_c, 1, 54, 37
1, 83925, Note_on_c, 1, 54, 0
1, 84006, Note_on_c, 0, 69, 0
1, 84204, Note_on_c, 0, 62, 49
1, 84337, Note_on_c, 0, 62, 0
1, 84450, Note_on_c, 0, 67, 49
1, 84464, Note_on_c, 1, 52, 44
1, 84550, Note_on_c, 1, 52, 0
1, 84604, Note_on_c, 0, 67, 0
1, 84737, Note_on_c, 0, 62, 45
1, 84833, Note_on_c, 0, 62, 0
1, 84968, Note_on_c, 1, 50, 49
1, 84980, Note_on_c, 0, 66, 49
1, 85212, Note_on_c, 0, 66, 0
1, 85214, Note_on_c, 1, 50, 0
1, 85466, Note_on_c, 0, 69, 60
1, 85583, Note_on_c, 0, 67, 52
1, 85650, Note_on_c, 0, 69, 0
1, 85708, Note_on_c, 0, 66, 65
1, 85752, Note_on_c, 0, 67, 0
1, 85837, Note_on_c, 0, 64, 50
1, 85857, Note_on_c, 0, 66, 0
1, 85964, Note_on_c, 0, 64, 0
1, 85988, Note_on_c, 0, 62, 55
1, 86400, Note_on_c, 0, 62, 0
1, 86509, Note_on_c, 0, 74, 43
1, 86522, Note_on_c, 1, 59, 50
1, 86740, Note_on_c, 0, 74, 0
1, 86769, Note_on_c, 0, 62, 43
1, 86776, Note_on_c, 1, 59, 0
1, 86908, Note_on_c, 0, 62, 0
1, 86995, Note_on_c, 0, 73, 51
1, 87030, Note_on_c, 1, 57, 33
1, 87199, Note_on_c, 0, 73, 0
1, 87245, Note_on_c, 0, 62, 46
1, 87260, Note_on_c, 1, 57, 0
1, 87351, Note_on_c, 0, 62, 0
1, 87496, Note_on_c, 0, 71, 52
1, 87536, Note_on_c, 1, 55, 34
1, 87739, Note_on_c, 1, 55, 0
1, 87746, Note_on_c, 0, 71, 0
1, 87750, Note_on_c, 0, 62, 51
1, 87874, Note_on_c, 0, 62, 0
1, 88007, Note_on_c, 1, 54, 36
1, 88008, Note_on_c, 0, 69, 49
1, 88260, Note_on_c, 1, 54, 0
1, 88261, Note_on_c, 0, 62, 47
1, 88273, Note_on_c, 0, 69, 0
1, 88396, Note_on_c, 0, 62, 0
1, 88500, Note_on_c, 1, 52, 42
1, 88509, Note_on_c, 0, 67, 47
1, 88722, Note_on_c, 1, 52, 0
1, 88754, Note_on_c, 0, 67, 0
1, 88759, Note_on_c, 0, 62, 49
1, 89006, Note_on_c, 1, 50, 36
1, 89007, Note_on_c, 0, 62, 0
1, 89015, Note_on_c, 0, 66, 51
1, 89516, Note_on_c, 0, 69, 53
1, 89543, Note_on_c, 0, 66, 0
1, 89742, Note_on_c, 1, 50, 0
1, 89895, Note_on_c, 0, 69, 0
1, 90029, Note_on_c, 0, 67, 50
1, 90043, Note_on_c, 1, 49, 37
1, 90112, Note_on_c, 0, 67, 0
1, 90165, Note_on_c, 1, 49, 0
1, 90306, Note_on_c, 1, 57, 37
1, 90419, Note_on_c, 1, 57, 0
1, 90546, Note_on_c, 1, 49, 41
1, 90556, Note_on_c, 0, 64, 38
1, 90756, Note_on_c, 1, 49, 0
1, 90804, Note_on_c, 1, 57, 26
1, 90838, Note_on_c, 0, 64, 0
1, 90908, Note_on_c, 1, 57, 0
1, 91074, Note_on_c, 1, 49, 27
1, 91217, Note_on_c, 1, 49, 0
1, 91347, Note_on_c, 1, 57, 31
1, 91442, Note_on_c, 1, 57, 0
1, 91627, Note_on_c, 1, 49, 33
1, 91631, Note_on_c, 0, 79, 46
1, 91636, Note_on_c, 0, 76, 43
1, 91832, Note_on_c, 1, 49, 0
1, 91883, Note_on_c, 1, 57, 45
1, 91887, Note_on_c, 0, 76, 0
1, 91939, Note_on_c, 0, 79, 0
1, 91953, Note_on_c, 1, 57, 0
1, 92142, Note_on_c, 1, 50, 45
1, 92158, Note_on_c, 0, 78, 49
1, 92176, Note_on_c, 0, 74, 40
1, 92371, Note_on_c, 1, 50, 0
1, 92423, Note_on_c, 0, 78, 0
1, 92429, Note_on_c, 1, 57, 37
1, 92443, Note_on_c, 0, 74, 0
1, 92530, Note_on_c, 1, 57, 0
1, 92647, Note_on_c, 0, 81, 55
1, 92653, Note_on_c, 0, 78, 46
1, 92665, Note_on_c, 1, 50, 42
1, 92793, Note_on_c, 1, 50, 0
1, 92913, Note_on_c, 1, 57, 35
1, 93008, Note_on_c, 0, 81, 0
1, 93028, Note_on_c, 0, 78, 0
1, 93044, Note_on_c, 1, 57, 0
1, 93160, Note_on_c, 1, 50, 39
1, 93292, Note_on_c, 1, 50, 0
1, 93401, Note_on_c, 1, 57, 37
1, 93517, Note_on_c, 1, 57, 0
1, 93667, Note_on_c, 1, 50, 42
1, 93692, Note_on_c, 0, 69, 39
1, 93822, Note_on_c, 1, 50, 0
1, 93920, Note_on_c, 1, 57, 48
1, 93981, Note_on_c, 0, 69, 0
1, 94050, Note_on_c, 1, 57, 0
1, 94174, Note_on_c, 0, 67, 36
1, 94174, Note_on_c, 1, 49, 43
1, 94413, Note_on_c, 1, 49, 0
1, 94436, Note_on_c, 1, 57, 44
1, 94543, Note_on_c, 1, 57, 0
1, 94662, Note_on_c, 0, 67, 0
1, 94669, Note_on_c, 1, 49, 42
1, 94673, Note_on_c, 0, 64, 59
1, 94890, Note_on_c, 1, 49, 0
1, 94944, Note_on_c, 1, 57, 34
1, 94977, Note_on_c, 0, 64, 0
1, 95024, Note_on_c, 1, 57, 0
1, 95163, Note_on_c, 1, 49, 37
1, 95335, Note_on_c, 1, 49, 0
1, 95446, Note_on_c, 1, 57, 50
1, 95697, Note_on_c, 1, 49, 41
1, 95703, Note_on_c, 0, 79, 55
1, 95710, Note_on_c, 1, 57, 0
1, 95714, Note_on_c, 0, 76, 61
1, 95981, Note_on_c, 1, 57, 51
1, 96009, Note_on_c, 1, 49, 0
1, 96215, Note_on_c, 1, 57, 0
1, 96216, Note_on_c, 1, 50, 48
1, 96230, Note_on_c, 0, 74, 47
1, 96231, Note_on_c, 0, 78, 51
1, 96256, Note_on_c, 0, 76, 0
1, 96256, Note_on_c, 0, 79, 0
1, 96477, Note_on_c, 1, 57, 44
1, 96495, Note_on_c, 1, 50, 0
1, 96576, Note_on_c, 0, 78, 0
1, 96640, Note_on_c, 0, 74, 0
1, 96713, Note_on_c, 0, 78, 52
1, 96714, Note_on_c, 0, 81, 52
1, 96723, Note_on_c, 1, 50, 45
1, 96756, Note_on_c, 1, 57, 0
1, 97001, Note_on_c, 1, 57, 42
1, 97014, Note_on_c, 1, 50, 0
1, 97250, Note_on_c, 1, 50, 46
1, 97272, Note_on_c, 1, 57, 0
1, 97288, Note_on_c, 0, 81, 0
1, 97320, Note_on_c, 0, 78, 0
1, 97528, Note_on_c, 1, 57, 44
1, 97542, Note_on_c, 1, 50, 0
1, 97812, Note_on_c, 1, 50, 41
1, 97832, Note_on_c, 1, 57, 0
1, 98033, Note_on_c, 1, 50, 0
1, 98070, Note_on_c, 1, 57, 50
1, 98292, Note_on_c, 1, 49, 42
1, 98294, Note_on_c, 0, 67, 65
1, 98304, Note_on_c, 1, 57, 0
1, 98525, Note_on_c, 1, 57, 42
1, 98580, Note_on_c, 1, 49, 0
1, 98778, Note_on_c, 0, 64, 64
1, 98797, Note_on_c, 1, 49, 37
1, 98800, Note_on_c, 1, 57, 0
1, 99071, Note_on_c, 1, 57, 33
1, 99097, Note_on_c, 1, 49, 0
1, 99300, Note_on_c, 1, 49, 46
1, 99314, Note_on_c, 1, 57, 0
1, 99531, Note_on_c, 0, 64, 0
1, 99565, Note_on_c, 0, 67, 0
1, 99586, Note_on_c, 1, 57, 42
1, 99591, Note_on_c, 1, 49, 0
1, 99811, Note_on_c, 1, 57, 0
1, 99812, Note_on_c, 1, 49, 47
1, 99823, Note_on_c, 0, 79, 53
1, 99829, Note_on_c, 0, 76, 61
1, 100074, Note_on_c, 1, 49, 0
1, 100110, Note_on_c, 1, 57, 46
1, 100141, Note_on_c, 0, 76, 0
1, 100298, Note_on_c, 0, 79, 0
1, 100330, Note_on_c, 1, 50, 62
1, 100344, Note_on_c, 0, 78, 57
1, 100352, Note_on_c, 0, 74, 47
1, 100352, Note_on_c, 1, 57, 0
1, 100604, Note_on_c, 0, 78, 0
1, 100615, Note_on_c, 0, 74, 0
1, 100845, Note_on_c, 0, 69, 51
1, 101034, Note_on_c, 0, 71, 61
1, 101090, Note_on_c, 0, 69, 0
1, 101200, Note_on_c, 0, 73, 72
1, 101225, Note_on_c, 0, 71, 0
1, 101239, Note_on_c, 1, 50, 0
1, 101294, Note_on_c, 0, 73, 0
1, 101359, Note_on_c, 0, 74, 88
1, 101492, Note_on_c, 0, 74, 0
1, 101518, Note_on_c, 0, 76, 70
1, 101684, Note_on_c, 0, 78, 54
1, 101713, Note_on_c, 0, 76, 0
1, 101847, Note_on_c, 0, 79, 49
1, 101853, Note_on_c, 0, 78, 0
1, 101874, Note_on_c, 0, 61, 34
1, 102021, Note_on_c, 0, 79, 0
1, 102025, Note_on_c, 0, 78, 54
1, 102192, Note_on_c, 0, 79, 64
1, 102229, Note_on_c, 0, 78, 0
1, 102364, Note_on_c, 0, 78, 74
1, 102382, Note_on_c, 0, 62, 39
1, 102400, Note_on_c, 0, 61, 0
1, 102400, Note_on_c, 0, 79, 0
1, 102696, Note_on_c, 0, 78, 0
1, 102870, Note_on_c, 0, 69, 61
1, 103049, Note_on_c, 0, 71, 65
1, 103084, Note_on_c, 0, 69, 0
1, 103213, Note_on_c, 0, 73, 47
1, 103245, Note_on_c, 0, 71, 0
1, 103325, Note_on_c, 0, 73, 0
1, 103368, Note_on_c, 0, 74, 66
1, 103518, Note_on_c, 0, 74, 0
1, 103541, Note_on_c, 0, 76, 57
1, 103676, Note_on_c, 0, 62, 0
1, 103722, Note_on_c, 0, 78, 59
1, 103726, Note_on_c, 0, 76, 0
1, 103900, Note_on_c, 0, 76, 49
1, 103910, Note_on_c, 0, 78, 0
1, 103941, Note_on_c, 0, 61, 34
1, 104091, Note_on_c, 0, 78, 46
1, 104169, Note_on_c, 0, 76, 0
1, 104263, Note_on_c, 0, 79, 52
1, 104292, Note_on_c, 0, 78, 0
1, 104418, Note_on_c, 0, 61, 0
1, 104448, Note_on_c, 0, 79, 0
1, 104466, Note_on_c, 0, 78, 58
1, 104475, Note_on_c, 0, 62, 35
1, 104937, Note_on_c, 0, 81, 66
1, 104992, Note_on_c, 0, 78, 0
1, 105102, Note_on_c, 0, 79, 66
1, 105168, Note_on_c, 0, 81, 0
1, 105262, Note_on_c, 0, 78, 74
1, 105296, Note_on_c, 0, 79, 0
1, 105422, Note_on_c, 0, 78, 0
1, 105434, Note_on_c, 0, 62, 0
1, 105438, Note_on_c, 0, 83, 65
1, 105444, Note_on_c, 1, 55, 47
1, 105914, Note_on_c, 0, 79, 59
1, 105949, Note_on_c, 0, 83, 0
1, 106087, Note_on_c, 0, 78, 47
1, 106128, Note_on_c, 0, 79, 0
1, 106237, Note_on_c, 0, 76, 48
1, 106261, Note_on_c, 0, 78, 0
1, 106317, Note_on_c, 1, 55, 0
1, 106418, Note_on_c, 0, 76, 0
1, 106423, Note_on_c, 0, 74, 52
1, 106496, Note_on_c, 0, 74, 0
1, 106995, Note_on_c, 1, 54, 46
1, 107223, Note_on_c, 1, 54, 0
1, 107488, Note_on_c, 1, 55, 35
1, 107566, Note_on_c, 0, 78, 53
1, 107606, Note_on_c, 0, 76, 58
1, 107620, Note_on_c, 0, 78, 0
1, 107635, Note_on_c, 1, 55, 0
1, 107646, Note_on_c, 0, 78, 52
1, 107650, Note_on_c, 0, 76, 0
1, 107692, Note_on_c, 0, 76, 72
1, 107704, Note_on_c, 0, 78, 0
1, 107729, Note_on_c, 0, 78, 50
1, 107742, Note_on_c, 0, 76, 0
1, 107782, Note_on_c, 0, 78, 0
1, 107784, Note_on_c, 0, 76, 67
1, 107822, Note_on_c, 0, 78, 59
1, 107835, Note_on_c, 0, 76, 0
1, 107882, Note_on_c, 0, 76, 78
1, 107883, Note_on_c, 0, 78, 0
1, 107905, Note_on_c, 1, 57, 40
1, 107934, Note_on_c, 0, 78, 57
1, 107939, Note_on_c, 0, 76, 0
1, 107970, Note_on_c, 0, 78, 0
1, 107974, Note_on_c, 0, 76, 59
1, 108008, Note_on_c, 0, 78, 54
1, 108020, Note_on_c, 0, 76, 0
1, 108061, Note_on_c, 0, 76, 73
1, 108063, Note_on_c, 0, 78, 0
1, 108064, Note_on_c, 1, 57, 0
1, 108111, Note_on_c, 0, 78, 58
1, 108117, Note_on_c, 0, 76, 0
1, 108143, Note_on_c, 0, 78, 0
1, 108151, Note_on_c, 0, 76, 66
1, 108191, Note_on_c, 0, 78, 73
1, 108210, Note_on_c, 0, 76, 0
1, 108252, Note_on_c, 0, 76, 65
1, 108262, Note_on_c, 0, 78, 0
1, 108339, Note_on_c, 0, 74, 65
1, 108358, Note_on_c, 0, 76, 0
1, 108406, Note_on_c, 1, 50, 40
1, 108433, Note_on_c, 0, 76, 58
1, 108443, Note_on_c, 0, 74, 0
1, 108532, Note_on_c, 0, 74, 67
1, 108555, Note_on_c, 0, 76, 0
1, 108590, Note_on_c, 1, 50, 0
1, 108714, Note_on_c, 0, 74, 0
1, 108929, Note_on_c, 0, 81, 61
1, 109090, Note_on_c, 0, 79, 60
1, 109183, Note_on_c, 0, 81, 0
1, 109260, Note_on_c, 0, 78, 61
1, 109290, Note_on_c, 0, 79, 0
1, 109484, Note_on_c, 0, 83, 64
1, 109562, Note_on_c, 0, 78, 0
1, 109624, Note_on_c, 1, 55, 42
1, 109992, Note_on_c, 0, 79, 54
1, 109994, Note_on_c, 0, 83, 0
1, 110161, Note_on_c, 0, 78, 45
1, 110176, Note_on_c, 0, 79, 0
1, 110329, Note_on_c, 0, 76, 47
1, 110358, Note_on_c, 0, 78, 0
1, 110502, Note_on_c, 0, 74, 42
1, 110504, Note_on_c, 0, 76, 0
1, 110592, Note_on_c, 0, 74, 0
1, 110734, Note_on_c, 1, 55, 0
1, 111114, Note_on_c, 1, 54, 42
1, 111281, Note_on_c, 1, 54, 0
1, 111596, Note_on_c, 1, 55, 50
1, 111616, Note_on_c, 0, 78, 50
1, 111638, Note_on_c, 1, 55, 0
1, 111654, Note_on_c, 0, 76, 56
1, 111660, Note_on_c, 0, 78, 0
1, 111700, Note_on_c, 0, 76, 0
1, 111708, Note_on_c, 0, 78, 47
1, 111743, Note_on_c, 0, 76, 59
1, 111781, Note_on_c, 0, 76, 0
1, 111830, Note_on_c, 0, 76, 75
1, 111838, Note_on_c, 0, 78, 0
1, 111868, Note_on_c, 0, 78, 44
1, 111877, Note_on_c, 0, 76, 0
1, 111924, Note_on_c, 0, 78, 0
1, 111927, Note_on_c, 0, 76, 72
1, 111962, Note_on_c, 0, 76, 0
1, 111962, Note_on_c, 0, 78, 52
1, 112014, Note_on_c, 0, 78, 0
1, 112020, Note_on_c, 0, 76, 78
1, 112024, Note_on_c, 1, 57, 38
1, 112048, Note_on_c, 0, 78, 49
1, 112057, Note_on_c, 0, 76, 0
1, 112096, Note_on_c, 0, 78, 0
1, 112102, Note_on_c, 0, 76, 63
1, 112134, Note_on_c, 0, 78, 47
1, 112144, Note_on_c, 0, 76, 0
1, 112160, Note_on_c, 1, 57, 0
1, 112194, Note_on_c, 0, 76, 75
1, 112255, Note_on_c, 0, 78, 0
1, 112323, Note_on_c, 0, 78, 77
1, 112373, Note_on_c, 0, 76, 0
1, 112433, Note_on_c, 0, 76, 61
1, 112439, Note_on_c, 0, 78, 0
1, 112497, Note_on_c, 0, 74, 61
1, 112499, Note_on_c, 0, 76, 0
1, 112536, Note_on_c, 0, 74, 0
1, 112539, Note_on_c, 0, 76, 66
1, 112604, Note_on_c, 0, 76, 0
1, 112612, Note_on_c, 0, 74, 49
1, 112622, Note_on_c, 1, 50, 39
1, 113009, Note_on_c, 0, 74, 0
1, 113048, Note_on_c, 1, 50, 0
1, 113653, Note_on_c, 0, 69, 46
1, 113777, Note_on_c, 0, 67, 48
1, 113799, Note_on_c, 0, 69, 0
1, 113890, Note_on_c, 0, 66, 53
1, 113921, Note_on_c, 0, 67, 0
1, 114001, Note_on_c, 0, 64, 49
1, 114029, Note_on_c, 0, 66, 0
1, 114124, Note_on_c, 0, 64, 0
1, 114190, Note_on_c, 0, 62, 55
1, 114680, Note_on_c, 0, 74, 46
1, 114688, Note_on_c, 0, 71, 56
1, 114696, Note_on_c, 0, 62, 0
1, 115175, Note_on_c, 0, 73, 42
1, 115180, Note_on_c, 0, 69, 57
1, 115186, Note_on_c, 0, 74, 0
1, 115204, Note_on_c, 0, 71, 0
1, 115654, Note_on_c, 0, 69, 0
1, 115672, Note_on_c, 0, 71, 55
1, 115674, Note_on_c, 0, 73, 0
1, 115677, Note_on_c, 0, 67, 49
1, 116016, Note_on_c, 0, 67, 0
1, 116110, Note_on_c, 0, 71, 0
1, 116191, Note_on_c, 0, 69, 37
1, 116192, Note_on_c, 0, 66, 52
1, 116705, Note_on_c, 1, 50, 54
1, 116806, Note_on_c, 1, 50, 0
1, 117186, Note_on_c, 1, 38, 58
1, 117368, Note_on_c, 0, 69, 0
1, 117406, Note_on_c, 0, 66, 0
1, 117717, Note_on_c, 1, 38, 0
1, 117737, Note_on_c, 0, 71, 61
1, 117740, Note_on_c, 0, 67, 51
1, 118220, Note_on_c, 0, 67, 0
1, 118234, Note_on_c, 0, 69, 62
1, 118235, Note_on_c, 0, 72, 67
1, 118272, Note_on_c, 0, 71, 0
1, 118737, Note_on_c, 1, 50, 50
1, 118850, Note_on_c, 1, 50, 0
1, 119039, Note_on_c, 0, 69, 0
1, 119062, Note_on_c, 0, 72, 0
1, 119241, Note_on_c, 1, 38, 51
1, 119629, Note_on_c, 1, 38, 0
1, 119774, Note_on_c, 0, 76, 64
1, 119923, Note_on_c, 0, 74, 69
1, 119986, Note_on_c, 0, 76, 0
1, 120070, Note_on_c, 0, 72, 66
1, 120112, Note_on_c, 0, 74, 0
1, 120244, Note_on_c, 0, 71, 65
1, 120251, Note_on_c, 0, 72, 0
1, 120252, Note_on_c, 1, 55, 46
1, 120320, Note_on_c, 1, 55, 0
1, 120347, Note_on_c, 0, 71, 0
1, 120795, Note_on_c, 0, 79, 56
1, 121292, Note_on_c, 0, 78, 45
1, 121304, Note_on_c, 0, 79, 0
1, 121843, Note_on_c, 0, 78, 0
1, 121893, Note_on_c, 0, 76, 26
1, 121911, Note_on_c, 0, 72, 32
1, 122062, Note_on_c, 0, 76, 0
1, 122099, Note_on_c, 0, 72, 0
1, 122362, Note_on_c, 0, 74, 40
1, 122374, Note_on_c, 0, 71, 44
1, 122844, Note_on_c, 1, 55, 66
1, 122948, Note_on_c, 1, 55, 0
1, 123348, Note_on_c, 1, 43, 66
1, 123679, Note_on_c, 0, 71, 0
1, 123825, Note_on_c, 0, 74, 0
1, 123854, Note_on_c, 0, 76, 55
1, 123856, Note_on_c, 0, 72, 45
1, 124037, Note_on_c, 1, 43, 0
1, 124085, Note_on_c, 0, 72, 0
1, 124087, Note_on_c, 0, 76, 0
1, 124351, Note_on_c, 0, 77, 64
1, 124352, Note_on_c, 0, 74, 66
1, 124416, Note_on_c, 0, 77, 0
1, 124906, Note_on_c, 1, 55, 66
1, 125320, Note_on_c, 0, 74, 0
1, 125351, Note_on_c, 1, 55, 0
1, 125356, Note_on_c, 1, 43, 67
1, 125557, Note_on_c, 1, 43, 0
1, 125902, Note_on_c, 0, 81, 65
1, 126087, Note_on_c, 0, 79, 74
1, 126130, Note_on_c, 0, 81, 0
1, 126243, Note_on_c, 0, 77, 53
1, 126295, Note_on_c, 0, 79, 0
1, 126440, Note_on_c, 0, 77, 0
1, 126441, Note_on_c, 0, 76, 57
1, 126459, Note_on_c, 0, 60, 47
1, 126632, Note_on_c, 0, 60, 0
1, 126723, Note_on_c, 0, 67, 43
1, 126743, Note_on_c, 0, 76, 0
1, 126914, Note_on_c, 0, 67, 0
1, 126959, Note_on_c, 0, 60, 43
1, 126966, Note_on_c, 0, 79, 53
1, 127165, Note_on_c, 0, 60, 0
1, 127213, Note_on_c, 0, 67, 40
1, 127266, Note_on_c, 0, 79, 0
1, 127400, Note_on_c, 0, 67, 0
1, 127460, Note_on_c, 0, 60, 45
1, 127671, Note_on_c, 0, 60, 0
1, 127750, Note_on_c, 0, 67, 32
1, 127879, Note_on_c, 0, 67, 0
1, 127992, Note_on_c, 0, 79, 62
1, 128008, Note_on_c, 0, 60, 55
1, 128137, Note_on_c, 0, 60, 0
1, 128196, Note_on_c, 0, 79, 0
1, 128270, Note_on_c, 0, 67, 43
1, 128368, Note_on_c, 0, 67, 0
1, 128505, Note_on_c, 1, 59, 40
1, 128515, Note_on_c, 0, 77, 56
1, 128697, Note_on_c, 0, 77, 0
1, 128715, Note_on_c, 1, 59, 0
1, 128766, Note_on_c, 0, 67, 41
1, 128887, Note_on_c, 0, 67, 0
1, 128998, Note_on_c, 0, 74, 61
1, 129003, Note_on_c, 1, 59, 39
1, 129131, Note_on_c, 0, 74, 0
1, 129220, Note_on_c, 1, 59, 0
1, 129285, Note_on_c, 0, 67, 33
1, 129392, Note_on_c, 0, 67, 0
1, 129542, Note_on_c, 1, 59, 32
1, 129675, Note_on_c, 1, 59, 0
1, 129799, Note_on_c, 0, 67, 41
1, 129896, Note_on_c, 0, 67, 0
1, 130041, Note_on_c, 1, 59, 42
1, 130046, Note_on_c, 0, 77, 67
1, 130131, Note_on_c, 0, 77, 0
1, 130134, Note_on_c, 1, 59, 0
1, 130276, Note_on_c, 0, 67, 37
1, 130479, Note_on_c, 0, 67, 0
1, 130536, Note_on_c, 0, 76, 67
1, 130556, Note_on_c, 0, 60, 42
1, 130727, Note_on_c, 0, 60, 0
1, 130733, Note_on_c, 0, 76, 0
1, 130814, Note_on_c, 0, 67, 39
1, 130931, Note_on_c, 0, 67, 0
1, 131044, Note_on_c, 0, 60, 51
1, 131044, Note_on_c, 0, 79, 72
1, 131149, Note_on_c, 0, 79, 0
1, 131189, Note_on_c, 0, 60, 0
1, 131324, Note_on_c, 0, 67, 31
1, 131435, Note_on_c, 0, 67, 0
1, 131557, Note_on_c, 0, 60, 38
1, 131691, Note_on_c, 0, 60, 0
1, 131849, Note_on_c, 0, 67, 25
1, 131944, Note_on_c, 0, 67, 0
1, 132094, Note_on_c, 0, 79, 74
1, 132097, Note_on_c, 0, 60, 45
1, 132211, Note_on_c, 0, 79, 0
1, 132218, Note_on_c, 0, 60, 0
1, 132345, Note_on_c, 0, 67, 29
1, 132486, Note_on_c, 0, 67, 0
1, 132598, Note_on_c, 0, 77, 75
1, 132603, Note_on_c, 1, 59, 43
1, 132808, Note_on_c, 1, 59, 0
1, 132845, Note_on_c, 0, 67, 31
1, 133067, Note_on_c, 0, 67, 0
1, 133081, Note_on_c, 0, 74, 60
1, 133096, Note_on_c, 1, 59, 40
1, 133302, Note_on_c, 1, 59, 0
1, 133355, Note_on_c, 0, 67, 41
1, 133635, Note_on_c, 1, 59, 37
1, 133636, Note_on_c, 0, 67, 0
1, 133884, Note_on_c, 1, 59, 0
1, 133895, Note_on_c, 0, 67, 35
1, 133896, Note_on_c, 0, 77, 0
1, 134085, Note_on_c, 0, 74, 0
1, 134154, Note_on_c, 0, 77, 73
1, 134157, Note_on_c, 1, 59, 39
1, 134168, Note_on_c, 0, 67, 0
1, 134388, Note_on_c, 1, 59, 0
1, 134414, Note_on_c, 0, 67, 37
1, 134656, Note_on_c, 0, 77, 0
1, 134670, Note_on_c, 0, 67, 0
1, 134674, Note_on_c, 0, 76, 67
1, 134683, Note_on_c, 0, 60, 36
1, 134876, Note_on_c, 0, 60, 0
1, 134910, Note_on_c, 0, 67, 43
1, 135156, Note_on_c, 0, 60, 51
1, 135157, Note_on_c, 0, 79, 66
1, 135177, Note_on_c, 0, 67, 0
1, 135190, Note_on_c, 0, 76, 0
1, 135357, Note_on_c, 0, 60, 0
1, 135403, Note_on_c, 0, 67, 28
1, 135464, Note_on_c, 0, 79, 0
1, 135642, Note_on_c, 0, 60, 48
1, 135688, Note_on_c, 0, 67, 0
1, 135887, Note_on_c, 0, 60, 0
1, 135913, Note_on_c, 0, 67, 43
1, 136122, Note_on_c, 0, 67, 0
1, 136132, Note_on_c, 0, 60, 53
1, 136134, Note_on_c, 0, 76, 70
1, 136275, Note_on_c, 0, 76, 0
1, 136310, Note_on_c, 0, 60, 0
1, 136418, Note_on_c, 0, 67, 36
1, 136631, Note_on_c, 0, 67, 0
1, 136648, Note_on_c, 0, 61, 38
1, 136653, Note_on_c, 0, 76, 74
1, 136893, Note_on_c, 0, 69, 33
1, 136926, Note_on_c, 0, 61, 0
1, 137179, Note_on_c, 0, 81, 83
1, 137184, Note_on_c, 0, 61, 43
1, 137212, Note_on_c, 0, 69, 0
1, 137222, Note_on_c, 0, 76, 0
1, 137457, Note_on_c, 0, 69, 44
1, 137467, Note_on_c, 0, 61, 0
1, 137704, Note_on_c, 0, 61, 36
1, 137717, Note_on_c, 0, 69, 0
1, 137956, Note_on_c, 0, 69, 31
1, 137975, Note_on_c, 0, 61, 0
1, 138204, Note_on_c, 0, 79, 54
1, 138213, Note_on_c, 0, 61, 43
1, 138265, Note_on_c, 0, 69, 0
1, 138321, Note_on_c, 0, 81, 0
1, 138473, Note_on_c, 0, 61, 0
1, 138476, Note_on_c, 0, 69, 41
1, 138730, Note_on_c, 0, 62, 51
1, 138745, Note_on_c, 0, 78, 53
1, 138752, Note_on_c, 0, 79, 0
1, 138752, Note_on_c, 0, 69, 0
1, 138992, Note_on_c, 0, 69, 43
1, 139000, Note_on_c, 0, 62, 0
1, 139200, Note_on_c, 0, 69, 0
1, 139249, Note_on_c, 0, 62, 42
1, 139253, Note_on_c, 0, 78, 0
1, 139270, Note_on_c, 0, 74, 65
1, 139466, Note_on_c, 0, 62, 0
1, 139492, Note_on_c, 0, 69, 38
1, 139715, Note_on_c, 0, 69, 0
1, 139750, Note_on_c, 0, 62, 33
1, 139996, Note_on_c, 0, 69, 42
1, 140001, Note_on_c, 0, 62, 0
1, 140259, Note_on_c, 0, 78, 64
1, 140268, Note_on_c, 0, 69, 0
1, 140276, Note_on_c, 0, 62, 51
1, 140330, Note_on_c, 0, 74, 0
1, 140437, Note_on_c, 0, 62, 0
1, 140531, Note_on_c, 0, 69, 43
1, 140735, Note_on_c, 0, 69, 0
1, 140765, Note_on_c, 0, 61, 38
1, 140783, Note_on_c, 0, 76, 61
1, 140800, Note_on_c, 0, 78, 0
1, 141009, Note_on_c, 0, 61, 0
1, 141028, Note_on_c, 0, 69, 40
1, 141284, Note_on_c, 0, 61, 37
1, 141285, Note_on_c, 0, 69, 0
1, 141304, Note_on_c, 0, 81, 67
1, 141352, Note_on_c, 0, 76, 0
1, 141508, Note_on_c, 0, 61, 0
1, 141545, Note_on_c, 0, 69, 27
1, 141796, Note_on_c, 0, 61, 41
1, 141825, Note_on_c, 0, 69, 0
1, 142020, Note_on_c, 0, 61, 0
1, 142046, Note_on_c, 0, 69, 42
1, 142285, Note_on_c, 0, 81, 0
1, 142290, Note_on_c, 0, 69, 0
1, 142316, Note_on_c, 0, 61, 35
1, 142323, Note_on_c, 0, 79, 73
1, 142475, Note_on_c, 0, 61, 0
1, 142549, Note_on_c, 0, 69, 35
1, 142809, Note_on_c, 0, 69, 0
1, 142833, Note_on_c, 0, 62, 37
1, 142838, Note_on_c, 0, 78, 54
1, 142848, Note_on_c, 0, 79, 0
1, 143059, Note_on_c, 0, 62, 0
1, 143096, Note_on_c, 0, 69, 33
1, 143318, Note_on_c, 0, 78, 0
1, 143321, Note_on_c, 0, 69, 0
1, 143335, Note_on_c, 0, 74, 68
1, 143339, Note_on_c, 0, 62, 47
1, 143558, Note_on_c, 0, 62, 0
1, 143601, Note_on_c, 0, 69, 36
1, 143836, Note_on_c, 0, 69, 0
1, 143848, Note_on_c, 0, 62, 41
1, 144091, Note_on_c, 0, 62, 0
1, 144142, Note_on_c, 0, 69, 34
1, 144391, Note_on_c, 0, 78, 67
1, 144398, Note_on_c, 0, 62, 53
1, 144406, Note_on_c, 0, 69, 0
1, 144436, Note_on_c, 0, 74, 0
1, 144579, Note_on_c, 0, 62, 0
1, 144630, Note_on_c, 0, 78, 0
1, 144675, Note_on_c, 0, 69, 45
1, 144851, Note_on_c, 0, 69, 0
1, 144919, Note_on_c, 0, 63, 38
1, 144926, Note_on_c, 0, 78, 83
1, 145109, Note_on_c, 0, 63, 0
1, 145175, Note_on_c, 0, 71, 45
1, 145328, Note_on_c, 0, 71, 0
1, 145393, Note_on_c, 0, 78, 0
1, 145409, Note_on_c, 0, 83, 74
1, 145424, Note_on_c, 0, 63, 39
1, 145596, Note_on_c, 0, 63, 0
1, 145704, Note_on_c, 0, 71, 38
1, 145920, Note_on_c, 0, 71, 0
1, 145950, Note_on_c, 0, 63, 41
1, 146133, Note_on_c, 0, 63, 0
1, 146207, Note_on_c, 0, 71, 31
1, 146372, Note_on_c, 0, 71, 0
1, 146436, Note_on_c, 0, 81, 70
1, 146448, Note_on_c, 0, 63, 47
1, 146480, Note_on_c, 0, 83, 0
1, 146667, Note_on_c, 0, 63, 0
1, 146692, Note_on_c, 0, 71, 39
1, 146933, Note_on_c, 0, 71, 0
1, 146934, Note_on_c, 0, 79, 68
1, 146942, Note_on_c, 0, 64, 40
1, 146944, Note_on_c, 0, 81, 0
1, 147180, Note_on_c, 0, 64, 0
1, 147222, Note_on_c, 0, 71, 31
1, 147338, Note_on_c, 0, 71, 0
1, 147425, Note_on_c, 0, 79, 0
1, 147430, Note_on_c, 0, 76, 65
1, 147450, Note_on_c, 0, 64, 47
1, 147594, Note_on_c, 0, 64, 0
1, 147700, Note_on_c, 0, 71, 38
1, 147852, Note_on_c, 0, 71, 0
1, 147949, Note_on_c, 0, 64, 47
1, 148108, Note_on_c, 0, 64, 0
1, 148196, Note_on_c, 0, 71, 42
1, 148313, Note_on_c, 0, 71, 0
1, 148471, Note_on_c, 0, 79, 90
1, 148492, Note_on_c, 0, 64, 43
1, 148500, Note_on_c, 0, 76, 0
1, 148650, Note_on_c, 0, 64, 0
1, 148754, Note_on_c, 0, 71, 36
1, 148895, Note_on_c, 0, 71, 0
1, 148984, Note_on_c, 0, 63, 38
1, 148992, Note_on_c, 0, 79, 0
1, 148996, Note_on_c, 0, 78, 60
1, 149179, Note_on_c, 0, 63, 0
1, 149237, Note_on_c, 0, 71, 39
1, 149484, Note_on_c, 0, 83, 50
1, 149501, Note_on_c, 0, 71, 0
1, 149514, Note_on_c, 0, 63, 36
1, 149555, Note_on_c, 0, 78, 0
1, 149728, Note_on_c, 0, 63, 0
1, 149753, Note_on_c, 0, 71, 45
1, 149883, Note_on_c, 0, 71, 0
1, 149989, Note_on_c, 0, 63, 43
1, 150214, Note_on_c, 0, 63, 0
1, 150269, Note_on_c, 0, 71, 33
1, 150441, Note_on_c, 0, 71, 0
1, 150500, Note_on_c, 0, 63, 47
1, 150507, Note_on_c, 0, 81, 61
1, 150544, Note_on_c, 0, 83, 0
1, 150739, Note_on_c, 0, 63, 0
1, 150772, Note_on_c, 0, 71, 40
1, 150959, Note_on_c, 0, 71, 0
1, 151019, Note_on_c, 0, 64, 49
1, 151020, Note_on_c, 0, 79, 65
1, 151040, Note_on_c, 0, 81, 0
1, 151285, Note_on_c, 0, 79, 0
1, 151524, Note_on_c, 0, 71, 77
1, 151694, Note_on_c, 0, 73, 78
1, 151742, Note_on_c, 0, 71, 0
1, 151850, Note_on_c, 0, 75, 69
1, 151888, Note_on_c, 0, 73, 0
1, 152010, Note_on_c, 0, 76, 74
1, 152019, Note_on_c, 0, 75, 0
1, 152192, Note_on_c, 0, 78, 56
1, 152298, Note_on_c, 0, 64, 0
1, 152300, Note_on_c, 0, 76, 0
1, 152370, Note_on_c, 0, 79, 92
1, 152413, Note_on_c, 0, 78, 0
1, 152565, Note_on_c, 0, 78, 64
1, 152567, Note_on_c, 0, 63, 54
1, 152587, Note_on_c, 0, 79, 0
1, 152735, Note_on_c, 0, 79, 78
1, 152868, Note_on_c, 0, 78, 0
1, 152883, Note_on_c, 0, 81, 78
1, 152912, Note_on_c, 0, 79, 0
1, 153088, Note_on_c, 0, 63, 0
1, 153088, Note_on_c, 0, 81, 0
1, 153093, Note_on_c, 0, 64, 49
1, 153096, Note_on_c, 0, 79, 66
1, 153408, Note_on_c, 0, 79, 0
1, 153570, Note_on_c, 0, 71, 74
1, 153741, Note_on_c, 0, 73, 42
1, 153797, Note_on_c, 0, 71, 0
1, 153891, Note_on_c, 0, 75, 49
1, 153926, Note_on_c, 0, 73, 0
1, 154026, Note_on_c, 0, 75, 0
1, 154058, Note_on_c, 0, 76, 66
1, 154229, Note_on_c, 0, 78, 46
1, 154263, Note_on_c, 0, 76, 0
1, 154356, Note_on_c, 0, 64, 0
1, 154384, Note_on_c, 0, 79, 61
1, 154426, Note_on_c, 0, 78, 0
1, 154583, Note_on_c, 0, 78, 52
1, 154589, Note_on_c, 0, 63, 42
1, 154601, Note_on_c, 0, 79, 0
1, 154744, Note_on_c, 0, 79, 55
1, 154791, Note_on_c, 0, 78, 0
1, 154874, Note_on_c, 0, 63, 0
1, 154898, Note_on_c, 0, 81, 57
1, 154911, Note_on_c, 0, 79, 0
1, 155122, Note_on_c, 0, 79, 66
1, 155126, Note_on_c, 0, 64, 41
1, 155136, Note_on_c, 0, 81, 0
1, 155525, Note_on_c, 0, 64, 0
1, 155586, Note_on_c, 0, 83, 58
1, 155629, Note_on_c, 0, 79, 0
1, 155768, Note_on_c, 0, 81, 48
1, 155791, Note_on_c, 0, 83, 0
1, 155953, Note_on_c, 0, 81, 0
1, 155959, Note_on_c, 0, 79, 57
1, 156115, Note_on_c, 0, 79, 0
1, 156122, Note_on_c, 0, 84, 75
1, 156144, Note_on_c, 0, 69, 46
1, 156621, Note_on_c, 0, 81, 55
1, 156631, Note_on_c, 0, 84, 0
1, 156789, Note_on_c, 0, 79, 61
1, 156820, Note_on_c, 0, 81, 0
1, 156965, Note_on_c, 0, 78, 41
1, 156972, Note_on_c, 0, 79, 0
1, 157127, Note_on_c, 0, 76, 51
1, 157184, Note_on_c, 0, 69, 0
1, 157184, Note_on_c, 0, 78, 0
1, 157652, Note_on_c, 0, 67, 49
1, 157962, Note_on_c, 0, 67, 0
1, 158075, Note_on_c, 0, 76, 0
1, 158175, Note_on_c, 0, 78, 73
1, 158180, Note_on_c, 0, 69, 52
1, 158337, Note_on_c, 0, 78, 0
1, 158341, Note_on_c, 0, 79, 53
1, 158393, Note_on_c, 0, 69, 0
1, 158431, Note_on_c, 0, 78, 74
1, 158444, Note_on_c, 0, 79, 0
1, 158495, Note_on_c, 0, 78, 0
1, 158500, Note_on_c, 0, 79, 52
1, 158549, Note_on_c, 0, 78, 66
1, 158551, Note_on_c, 0, 79, 0
1, 158607, Note_on_c, 0, 79, 83
1, 158609, Note_on_c, 0, 78, 0
1, 158653, Note_on_c, 0, 71, 32
1, 158656, Note_on_c, 0, 78, 59
1, 158673, Note_on_c, 0, 79, 0
1, 158692, Note_on_c, 0, 79, 61
1, 158701, Note_on_c, 0, 78, 0
1, 158739, Note_on_c, 0, 79, 0
1, 158742, Note_on_c, 0, 78, 73
1, 158770, Note_on_c, 0, 71, 0
1, 158805, Note_on_c, 0, 78, 0
1, 158842, Note_on_c, 0, 78, 59
1, 158886, Note_on_c, 0, 79, 55
1, 158888, Note_on_c, 0, 78, 0
1, 159005, Note_on_c, 0, 78, 46
1, 159026, Note_on_c, 0, 79, 0
1, 159083, Note_on_c, 0, 76, 37
1, 159087, Note_on_c, 0, 78, 0
1, 159139, Note_on_c, 0, 78, 52
1, 159157, Note_on_c, 0, 76, 0
1, 159218, Note_on_c, 0, 64, 47
1, 159232, Note_on_c, 0, 78, 0
1, 159240, Note_on_c, 0, 76, 57
1, 159696, Note_on_c, 0, 83, 62
1, 159711, Note_on_c, 0, 76, 0
1, 159815, Note_on_c, 0, 64, 0
1, 159849, Note_on_c, 0, 81, 55
1, 159908, Note_on_c, 0, 83, 0
1, 160013, Note_on_c, 0, 81, 0
1, 160019, Note_on_c, 0, 79, 38
1, 160223, Note_on_c, 0, 79, 0
1, 160225, Note_on_c, 0, 84, 52
1, 160244, Note_on_c, 0, 69, 31
1, 160738, Note_on_c, 0, 81, 54
1, 160799, Note_on_c, 0, 84, 0
1, 160907, Note_on_c, 0, 79, 47
1, 160962, Note_on_c, 0, 81, 0
1, 161052, Note_on_c, 0, 78, 46
1, 161103, Note_on_c, 0, 79, 0
1, 161234, Note_on_c, 0, 76, 56
1, 161280, Note_on_c, 0, 69, 0
1, 161280, Note_on_c, 0, 78, 0
1, 161764, Note_on_c, 0, 67, 46
1, 162027, Note_on_c, 0, 67, 0
1, 162252, Note_on_c, 0, 78, 46
1, 162254, Note_on_c, 0, 69, 39
1, 162359, Note_on_c, 0, 76, 0
1, 162392, Note_on_c, 0, 79, 66
1, 162433, Note_on_c, 0, 78, 0
1, 162508, Note_on_c, 0, 78, 66
1, 162537, Note_on_c, 0, 79, 0
1, 162609, Note_on_c, 0, 79, 66
1, 162625, Note_on_c, 0, 78, 0
1, 162674, Note_on_c, 0, 69, 0
1, 162720, Note_on_c, 0, 78, 67
1, 162732, Note_on_c, 0, 79, 0
1, 162735, Note_on_c, 0, 71, 40
1, 162790, Note_on_c, 0, 79, 78
1, 162806, Note_on_c, 0, 78, 0
1, 162859, Note_on_c, 0, 78, 53
1, 162860, Note_on_c, 0, 79, 0
1, 162890, Note_on_c, 0, 71, 0
1, 162903, Note_on_c, 0, 79, 67
1, 162913, Note_on_c, 0, 78, 0
1, 162947, Note_on_c, 0, 79, 0
1, 162958, Note_on_c, 0, 78, 58
1, 163026, Note_on_c, 0, 78, 0
1, 163049, Note_on_c, 0, 78, 54
1, 163094, Note_on_c, 0, 79, 73
1, 163096, Note_on_c, 0, 78, 0
1, 163145, Note_on_c, 0, 78, 59
1, 163164, Note_on_c, 0, 79, 0
1, 163235, Note_on_c, 0, 78, 0
1, 163244, Note_on_c, 0, 76, 37
1, 163290, Note_on_c, 0, 76, 54
1, 163294, Note_on_c, 0, 64, 49
1, 163328, Note_on_c, 0, 76, 0
1, 164456, Note_on_c, 0, 64, 0
1, 164492, Note_on_c, 0, 76, 0
1, 164897, Note_on_c, 1, 59, 45
1, 165051, Note_on_c, 1, 57, 45
1, 165084, Note_on_c, 1, 59, 0
1, 165122, Note_on_c, 1, 55, 49
1, 165159, Note_on_c, 1, 57, 0
1, 165236, Note_on_c, 1, 54, 39
1, 165267, Note_on_c, 1, 55, 0
1, 165414, Note_on_c, 1, 54, 0
1, 165434, Note_on_c, 1, 52, 39
1, 165930, Note_on_c, 0, 79, 64
1, 165934, Note_on_c, 0, 71, 51
1, 166032, Note_on_c, 0, 71, 0
1, 166038, Note_on_c, 0, 79, 0
1, 166103, Note_on_c, 1, 52, 0
1, 166453, Note_on_c, 0, 79, 70
1, 166456, Note_on_c, 0, 71, 59
1, 166915, Note_on_c, 0, 64, 54
1, 167038, Note_on_c, 0, 62, 52
1, 167099, Note_on_c, 0, 64, 0
1, 167141, Note_on_c, 0, 61, 32
1, 167176, Note_on_c, 0, 62, 0
1, 167271, Note_on_c, 1, 59, 46
1, 167319, Note_on_c, 0, 61, 0
1, 167323, Note_on_c, 0, 71, 0
1, 167339, Note_on_c, 0, 79, 0
1, 167424, Note_on_c, 1, 59, 0
1, 167428, Note_on_c, 1, 57, 65
1, 167932, Note_on_c, 0, 81, 60
1, 167942, Note_on_c, 0, 73, 47
1, 168060, Note_on_c, 0, 73, 0
1, 168068, Note_on_c, 0, 81, 0
1, 168426, Note_on_c, 0, 81, 64
1, 168436, Note_on_c, 0, 73, 51
1, 168633, Note_on_c, 1, 57, 0
1, 168943, Note_on_c, 1, 57, 35
1, 169084, Note_on_c, 1, 55, 37
1, 169104, Note_on_c, 1, 57, 0
1, 169182, Note_on_c, 1, 54, 49
1, 169186, Note_on_c, 1, 55, 0
1, 169319, Note_on_c, 1, 52, 40
1, 169342, Note_on_c, 1, 54, 0
1, 169434, Note_on_c, 0, 81, 0
1, 169449, Note_on_c, 0, 73, 0
1, 169472, Note_on_c, 1, 52, 0
1, 169475, Note_on_c, 1, 50, 59
1, 169989, Note_on_c, 0, 78, 57
1, 169997, Note_on_c, 0, 69, 56
1, 170087, Note_on_c, 0, 69, 0
1, 170115, Note_on_c, 0, 78, 0
1, 170418, Note_on_c, 1, 50, 0
1, 170506, Note_on_c, 0, 78, 62
1, 170510, Note_on_c, 0, 69, 60
1, 171061, Note_on_c, 0, 62, 49
1, 171193, Note_on_c, 0, 60, 44
1, 171232, Note_on_c, 0, 62, 0
1, 171273, Note_on_c, 0, 69, 0
1, 171295, Note_on_c, 1, 59, 49
1, 171298, Note_on_c, 0, 78, 0
1, 171327, Note_on_c, 0, 60, 0
1, 171395, Note_on_c, 1, 57, 59
1, 171414, Note_on_c, 1, 59, 0
1, 171520, Note_on_c, 1, 57, 0
1, 171540, Note_on_c, 1, 55, 57
1, 172055, Note_on_c, 0, 79, 54
1, 172062, Note_on_c, 0, 71, 52
1, 172164, Note_on_c, 0, 71, 0
1, 172171, Note_on_c, 0, 79, 0
1, 172528, Note_on_c, 0, 79, 61
1, 172532, Note_on_c, 0, 71, 59
1, 172654, Note_on_c, 0, 79, 0
1, 172689, Note_on_c, 0, 71, 0
1, 172820, Note_on_c, 1, 55, 0
1, 173033, Note_on_c, 0, 74, 59
1, 173152, Note_on_c, 0, 72, 59
1, 173304, Note_on_c, 0, 71, 67
1, 173378, Note_on_c, 0, 72, 0
1, 173430, Note_on_c, 0, 74, 0
1, 173430, Note_on_c, 0, 69, 65
1, 173482, Note_on_c, 0, 71, 0
1, 173582, Note_on_c, 0, 69, 0
1, 173584, Note_on_c, 0, 67, 77
1, 174094, Note_on_c, 0, 67, 0
1, 174113, Note_on_c, 0, 79, 57
1, 174114, Note_on_c, 0, 76, 63
1, 174596, Note_on_c, 0, 78, 48
1, 174602, Note_on_c, 0, 74, 54
1, 174619, Note_on_c, 0, 79, 0
1, 174634, Note_on_c, 0, 76, 0
1, 175109, Note_on_c, 0, 76, 50
1, 175122, Note_on_c, 0, 72, 45
1, 175148, Note_on_c, 0, 74, 0
1, 175175, Note_on_c, 0, 78, 0
1, 175346, Note_on_c, 0, 72, 0
1, 175358, Note_on_c, 0, 76, 0
1, 175622, Note_on_c, 0, 74, 52
1, 175626, Note_on_c, 0, 71, 50
1, 176115, Note_on_c, 1, 55, 55
1, 176623, Note_on_c, 1, 43, 54
1, 176627, Note_on_c, 1, 55, 0
1, 176664, Note_on_c, 0, 74, 0
1, 176702, Note_on_c, 0, 71, 0
1, 177104, Note_on_c, 0, 76, 60
1, 177259, Note_on_c, 0, 74, 62
1, 177311, Note_on_c, 0, 76, 0
1, 177409, Note_on_c, 0, 72, 65
1, 177446, Note_on_c, 0, 74, 0
1, 177578, Note_on_c, 0, 71, 70
1, 177600, Note_on_c, 0, 72, 0
1, 177610, Note_on_c, 1, 43, 0
1, 177664, Note_on_c, 0, 71, 0
1, 178140, Note_on_c, 1, 55, 64
1, 178333, Note_on_c, 1, 55, 0
1, 178681, Note_on_c, 1, 43, 59
1, 179140, Note_on_c, 0, 71, 56
1, 179248, Note_on_c, 0, 69, 49
1, 179329, Note_on_c, 0, 71, 0
1, 179376, Note_on_c, 0, 67, 58
1, 179433, Note_on_c, 0, 69, 0
1, 179515, Note_on_c, 0, 66, 55
1, 179537, Note_on_c, 0, 67, 0
1, 179662, Note_on_c, 0, 64, 55
1, 179666, Note_on_c, 1, 48, 46
1, 179712, Note_on_c, 0, 66, 0
1, 179712, Note_on_c, 1, 43, 0
1, 180049, Note_on_c, 0, 64, 0
1, 180164, Note_on_c, 0, 76, 61
1, 180172, Note_on_c, 0, 72, 53
1, 180672, Note_on_c, 0, 72, 0
1, 180680, Note_on_c, 0, 71, 55
1, 180688, Note_on_c, 1, 50, 46
1, 180694, Note_on_c, 0, 74, 52
1, 180718, Note_on_c, 1, 48, 0
1, 180726, Note_on_c, 0, 76, 0
1, 181064, Note_on_c, 0, 71, 0
1, 181193, Note_on_c, 0, 74, 0
1, 181227, Note_on_c, 0, 72, 48
1, 181234, Note_on_c, 0, 69, 43
1, 181364, Note_on_c, 0, 69, 0
1, 181373, Note_on_c, 0, 72, 0
1, 181461, Note_on_c, 1, 50, 0
1, 181742, Note_on_c, 0, 72, 48
1, 181753, Note_on_c, 0, 69, 40
1, 181756, Note_on_c, 1, 55, 46
1, 182287, Note_on_c, 1, 50, 51
1, 182367, Note_on_c, 1, 55, 0
1, 182371, Note_on_c, 0, 72, 0
1, 182406, Note_on_c, 1, 50, 0
1, 182410, Note_on_c, 0, 69, 0
1, 182798, Note_on_c, 1, 43, 65
1, 182811, Note_on_c, 0, 71, 55
1, 182812, Note_on_c, 0, 67, 53
1, 182976, Note_on_c, 0, 71, 0
1, 183026, Note_on_c, 0, 67, 0
1, 183249, Note_on_c, 1, 43, 0
1, 183292, Note_on_c, 0, 71, 47
1, 183298, Note_on_c, 0, 69, 47
1, 183381, Note_on_c, 0, 69, 0
1, 183440, Note_on_c, 0, 69, 41
1, 183462, Note_on_c, 0, 71, 0
1, 183573, Note_on_c, 0, 67, 44
1, 183583, Note_on_c, 0, 69, 0
1, 183702, Note_on_c, 0, 66, 49
1, 183720, Note_on_c, 0, 67, 0
1, 183817, Note_on_c, 0, 66, 0
1, 183836, Note_on_c, 0, 64, 55
1, 183841, Note_on_c, 1, 48, 60
1, 184054, Note_on_c, 0, 64, 0
1, 184328, Note_on_c, 0, 69, 60
1, 184329, Note_on_c, 0, 72, 59
1, 184551, Note_on_c, 0, 72, 0
1, 184557, Note_on_c, 0, 69, 0
1, 184835, Note_on_c, 0, 72, 60
1, 184838, Note_on_c, 0, 69, 57
1, 185058, Note_on_c, 0, 72, 0
1, 185077, Note_on_c, 0, 69, 0
1, 185357, Note_on_c, 0, 71, 62
1, 185360, Note_on_c, 1, 49, 53
1, 185362, Note_on_c, 0, 67, 56
1, 185369, Note_on_c, 1, 48, 0
1, 185555, Note_on_c, 0, 71, 0
1, 185563, Note_on_c, 0, 67, 0
1, 185619, Note_on_c, 1, 49, 0
1, 185844, Note_on_c, 0, 67, 61
1, 185845, Note_on_c, 0, 71, 68
1, 185847, Note_on_c, 1, 50, 57
1, 186411, Note_on_c, 1, 50, 0
1, 186516, Note_on_c, 0, 71, 0
1, 186546, Note_on_c, 0, 67, 0
1, 186896, Note_on_c, 1, 38, 53
1, 186899, Note_on_c, 0, 66, 47
1, 186900, Note_on_c, 0, 69, 61
1, 186985, Note_on_c, 0, 69, 0
1, 187024, Note_on_c, 0, 66, 0
1, 187091, Note_on_c, 1, 38, 0
1, 187363, Note_on_c, 0, 74, 57
1, 187491, Note_on_c, 0, 72, 54
1, 187547, Note_on_c, 0, 74, 0
1, 187606, Note_on_c, 0, 71, 53
1, 187640, Note_on_c, 0, 72, 0
1, 187727, Note_on_c, 0, 69, 60
1, 187759, Note_on_c, 0, 71, 0
1, 187840, Note_on_c, 0, 69, 0
1, 187860, Note_on_c, 0, 67, 57
1, 188069, Note_on_c, 0, 67, 0
1, 188372, Note_on_c, 0, 79, 54
1, 188381, Note_on_c, 0, 64, 49
1, 188614, Note_on_c, 0, 67, 51
1, 188615, Note_on_c, 0, 79, 0
1, 188872, Note_on_c, 0, 78, 62
1, 188877, Note_on_c, 0, 62, 58
1, 188921, Note_on_c, 0, 67, 0
1, 188954, Note_on_c, 0, 64, 0
1, 189140, Note_on_c, 0, 67, 67
1, 189148, Note_on_c, 0, 78, 0
1, 189375, Note_on_c, 0, 67, 0
1, 189404, Note_on_c, 0, 76, 72
1, 189415, Note_on_c, 0, 60, 52
1, 189431, Note_on_c, 0, 62, 0
1, 189654, Note_on_c, 0, 67, 74
1, 189668, Note_on_c, 0, 76, 0
1, 189884, Note_on_c, 0, 67, 0
1, 189908, Note_on_c, 1, 59, 55
1, 189912, Note_on_c, 0, 74, 78
1, 189952, Note_on_c, 0, 60, 0
1, 190180, Note_on_c, 0, 67, 75
1, 190183, Note_on_c, 0, 74, 0
1, 190442, Note_on_c, 0, 72, 77
1, 190451, Note_on_c, 1, 57, 67
1, 190455, Note_on_c, 0, 67, 0
1, 190587, Note_on_c, 1, 59, 0
1, 190657, Note_on_c, 0, 72, 0
1, 190686, Note_on_c, 0, 67, 78
1, 190955, Note_on_c, 1, 55, 38
1, 190966, Note_on_c, 0, 71, 53
1, 190974, Note_on_c, 1, 57, 0
1, 191020, Note_on_c, 0, 67, 0
1, 191252, Note_on_c, 0, 71, 0
1, 191491, Note_on_c, 0, 74, 52
1, 191620, Note_on_c, 0, 72, 39
1, 191640, Note_on_c, 0, 74, 0
1, 191747, Note_on_c, 0, 72, 0
1, 191770, Note_on_c, 0, 71, 34
1, 191866, Note_on_c, 0, 69, 39
1, 191876, Note_on_c, 0, 71, 0
1, 192000, Note_on_c, 0, 69, 0
1, 192000, Note_on_c, 1, 55, 0
1, 192042, Note_on_c, 0, 67, 23
1, 192390, Note_on_c, 0, 67, 0
1, 192488, Note_on_c, 0, 79, 39
1, 192490, Note_on_c, 0, 64, 39
1, 192693, Note_on_c, 0, 79, 0
1, 192742, Note_on_c, 0, 67, 38
1, 192992, Note_on_c, 0, 78, 28
1, 193009, Note_on_c, 0, 67, 0
1, 193027, Note_on_c, 0, 62, 29
1, 193113, Note_on_c, 0, 64, 0
1, 193278, Note_on_c, 0, 67, 36
1, 193287, Note_on_c, 0, 78, 0
1, 193506, Note_on_c, 0, 76, 54
1, 193510, Note_on_c, 0, 67, 0
1, 193514, Note_on_c, 0, 60, 43
1, 193572, Note_on_c, 0, 62, 0
1, 193765, Note_on_c, 0, 67, 55
1, 193786, Note_on_c, 0, 76, 0
1, 194035, Note_on_c, 0, 74, 64
1, 194048, Note_on_c, 0, 60, 0
1, 194048, Note_on_c, 0, 67, 0
1, 194060, Note_on_c, 1, 59, 38
1, 194319, Note_on_c, 0, 67, 69
1, 194323, Note_on_c, 0, 74, 0
1, 194582, Note_on_c, 1, 57, 52
1, 194612, Note_on_c, 0, 72, 79
1, 194613, Note_on_c, 0, 71, 75
1, 194625, Note_on_c, 1, 59, 0
1, 194653, Note_on_c, 0, 71, 0
1, 194689, Note_on_c, 0, 67, 0
1, 194852, Note_on_c, 0, 72, 0
1, 194860, Note_on_c, 0, 67, 81
1, 195119, Note_on_c, 1, 55, 58
1, 195131, Note_on_c, 0, 71, 79
1, 195159, Note_on_c, 1, 57, 0
1, 195190, Note_on_c, 0, 67, 0
1, 195578, Note_on_c, 0, 74, 70
1, 195621, Note_on_c, 0, 71, 0
1, 195747, Note_on_c, 1, 55, 0
1, 196079, Note_on_c, 0, 72, 53
1, 196094, Note_on_c, 1, 54, 34
1, 196096, Note_on_c, 0, 74, 0
1, 196096, Note_on_c, 0, 69, 64
1, 196307, Note_on_c, 1, 54, 0
1, 196352, Note_on_c, 0, 69, 0
1, 196361, Note_on_c, 0, 62, 32
1, 196503, Note_on_c, 0, 62, 0
1, 196591, Note_on_c, 1, 54, 34
1, 196608, Note_on_c, 0, 66, 64
1, 196608, Note_on_c, 0, 69, 43
1, 196637, Note_on_c, 0, 72, 0
1, 196815, Note_on_c, 1, 54, 0
1, 196864, Note_on_c, 0, 66, 0
1, 196890, Note_on_c, 0, 62, 34
1, 197098, Note_on_c, 0, 62, 0
1, 197112, Note_on_c, 1, 54, 31
1, 197169, Note_on_c, 0, 69, 0
1, 197308, Note_on_c, 1, 54, 0
1, 197392, Note_on_c, 0, 62, 40
1, 197563, Note_on_c, 0, 62, 0
1, 197638, Note_on_c, 1, 54, 42
1, 197643, Note_on_c, 0, 69, 55
1, 197643, Note_on_c, 0, 72, 56
1, 197799, Note_on_c, 0, 69, 0
1, 197812, Note_on_c, 1, 54, 0
1, 198122, Note_on_c, 1, 55, 47
1, 198132, Note_on_c, 0, 71, 59
1, 198135, Note_on_c, 0, 67, 54
1, 198144, Note_on_c, 0, 72, 0
1, 198377, Note_on_c, 0, 62, 40
1, 198401, Note_on_c, 1, 55, 0
1, 198477, Note_on_c, 0, 71, 0
1, 198536, Note_on_c, 0, 67, 0
1, 198638, Note_on_c, 1, 55, 48
1, 198648, Note_on_c, 0, 71, 48
1, 198650, Note_on_c, 0, 74, 53
1, 198660, Note_on_c, 0, 62, 0
1, 198902, Note_on_c, 0, 62, 56
1, 198904, Note_on_c, 1, 55, 0
1, 199134, Note_on_c, 1, 55, 57
1, 199170, Note_on_c, 0, 62, 0
1, 199409, Note_on_c, 0, 62, 45
1, 199418, Note_on_c, 1, 55, 0
1, 199466, Note_on_c, 0, 71, 0
1, 199468, Note_on_c, 0, 74, 0
1, 199650, Note_on_c, 0, 74, 56
1, 199653, Note_on_c, 1, 55, 42
1, 199654, Note_on_c, 0, 71, 52
1, 199723, Note_on_c, 0, 62, 0
1, 199926, Note_on_c, 0, 62, 51
1, 199954, Note_on_c, 1, 55, 0
1, 200158, Note_on_c, 1, 54, 36
1, 200175, Note_on_c, 0, 72, 53
1, 200192, Note_on_c, 0, 71, 0
1, 200192, Note_on_c, 0, 74, 0
1, 200192, Note_on_c, 0, 62, 0
1, 200192, Note_on_c, 0, 69, 64
1, 200448, Note_on_c, 0, 69, 0
1, 200457, Note_on_c, 0, 62, 32
1, 200469, Note_on_c, 1, 54, 0
1, 200599, Note_on_c, 0, 62, 0
1, 200681, Note_on_c, 1, 54, 22
1, 200704, Note_on_c, 0, 66, 64
1, 200704, Note_on_c, 0, 69, 43
1, 200733, Note_on_c, 0, 72, 0
1, 200960, Note_on_c, 0, 66, 0
1, 200986, Note_on_c, 0, 62, 34
1, 201002, Note_on_c, 1, 54, 0
1, 201194, Note_on_c, 0, 62, 0
1, 201218, Note_on_c, 1, 54, 43
1, 201265, Note_on_c, 0, 69, 0
1, 201484, Note_on_c, 1, 54, 0
1, 201488, Note_on_c, 0, 62, 40
1, 201659, Note_on_c, 0, 62, 0
1, 201720, Note_on_c, 1, 54, 42
1, 201739, Note_on_c, 0, 69, 55
1, 201739, Note_on_c, 0, 72, 56
1, 201895, Note_on_c, 0, 69, 0
1, 201933, Note_on_c, 1, 54, 0
1, 202236, Note_on_c, 1, 55, 35
1, 202240, Note_on_c, 0, 72, 0
1, 202247, Note_on_c, 0, 71, 60
1, 202250, Note_on_c, 0, 67, 50
1, 202479, Note_on_c, 0, 62, 40
1, 202480, Note_on_c, 1, 55, 0
1, 202535, Note_on_c, 0, 71, 0
1, 202637, Note_on_c, 0, 67, 0
1, 202760, Note_on_c, 0, 71, 55
1, 202763, Note_on_c, 1, 55, 55
1, 202765, Note_on_c, 0, 74, 56
1, 202770, Note_on_c, 0, 62, 0
1, 203023, Note_on_c, 1, 55, 0
1, 203032, Note_on_c, 0, 62, 41
1, 203271, Note_on_c, 1, 55, 52
1, 203273, Note_on_c, 0, 62, 0
1, 203415, Note_on_c, 0, 74, 0
1, 203434, Note_on_c, 0, 71, 0
1, 203531, Note_on_c, 1, 55, 0
1, 203537, Note_on_c, 0, 62, 30
1, 203772, Note_on_c, 0, 74, 59
1, 203774, Note_on_c, 0, 62, 0
1, 203781, Note_on_c, 1, 55, 45
1, 204009, Note_on_c, 1, 55, 0
1, 204039, Note_on_c, 0, 62, 43
1, 204262, Note_on_c, 0, 62, 0
1, 204278, Note_on_c, 0, 74, 0
1, 204279, Note_on_c, 1, 54, 34
1, 204280, Note_on_c, 0, 72, 66
1, 204293, Note_on_c, 0, 71, 51
1, 204338, Note_on_c, 0, 71, 0
1, 204542, Note_on_c, 1, 54, 0
1, 204565, Note_on_c, 0, 62, 46
1, 204803, Note_on_c, 1, 54, 38
1, 204808, Note_on_c, 0, 69, 61
1, 204827, Note_on_c, 0, 72, 0
1, 204830, Note_on_c, 0, 62, 0
1, 205049, Note_on_c, 1, 54, 0
1, 205096, Note_on_c, 0, 62, 37
1, 205253, Note_on_c, 0, 62, 0
1, 205326, Note_on_c, 1, 54, 31
1, 205327, Note_on_c, 0, 69, 0
1, 205515, Note_on_c, 1, 54, 0
1, 205556, Note_on_c, 0, 62, 40
1, 205666, Note_on_c, 0, 62, 0
1, 205805, Note_on_c, 0, 72, 59
1, 205807, Note_on_c, 0, 69, 54
1, 205818, Note_on_c, 1, 54, 37
1, 206004, Note_on_c, 1, 54, 0
1, 206019, Note_on_c, 0, 69, 0
1, 206025, Note_on_c, 0, 72, 0
1, 206041, Note_on_c, 0, 62, 43
1, 206318, Note_on_c, 1, 55, 59
1, 206328, Note_on_c, 0, 71, 59
1, 206336, Note_on_c, 0, 62, 0
1, 206336, Note_on_c, 0, 67, 53
1, 206490, Note_on_c, 0, 71, 0
1, 206545, Note_on_c, 0, 67, 0
1, 206806, Note_on_c, 0, 62, 65
1, 206980, Note_on_c, 0, 64, 62
1, 207011, Note_on_c, 0, 62, 0
1, 207135, Note_on_c, 0, 66, 38
1, 207140, Note_on_c, 0, 64, 0
1, 207213, Note_on_c, 0, 66, 0
1, 207324, Note_on_c, 0, 67, 63
1, 207455, Note_on_c, 0, 67, 0
1, 207499, Note_on_c, 1, 55, 0
1, 207516, Note_on_c, 0, 69, 61
1, 207613, Note_on_c, 0, 69, 0
1, 207690, Note_on_c, 0, 71, 52
1, 207867, Note_on_c, 0, 69, 75
1, 207876, Note_on_c, 1, 54, 49
1, 207889, Note_on_c, 0, 71, 0
1, 208045, Note_on_c, 0, 71, 75
1, 208100, Note_on_c, 0, 69, 0
1, 208209, Note_on_c, 0, 72, 69
1, 208237, Note_on_c, 0, 71, 0
1, 208384, Note_on_c, 0, 72, 0
1, 208384, Note_on_c, 1, 54, 0
1, 208414, Note_on_c, 0, 71, 70
1, 208430, Note_on_c, 1, 55, 56
1, 208638, Note_on_c, 0, 71, 0
1, 208902, Note_on_c, 0, 62, 64
1, 209082, Note_on_c, 0, 64, 57
1, 209094, Note_on_c, 0, 62, 0
1, 209231, Note_on_c, 0, 66, 51
1, 209243, Note_on_c, 0, 64, 0
1, 209394, Note_on_c, 0, 66, 0
1, 209411, Note_on_c, 0, 67, 52
1, 209584, Note_on_c, 0, 67, 0
1, 209593, Note_on_c, 0, 69, 56
1, 209738, Note_on_c, 1, 55, 0
1, 209764, Note_on_c, 0, 71, 50
1, 209767, Note_on_c, 0, 69, 0
1, 209918, Note_on_c, 0, 71, 0
1, 209919, Note_on_c, 0, 69, 45
1, 209943, Note_on_c, 1, 54, 38
1, 210084, Note_on_c, 0, 71, 52
1, 210117, Note_on_c, 0, 69, 0
1, 210251, Note_on_c, 0, 72, 57
1, 210268, Note_on_c, 0, 71, 0
1, 210424, Note_on_c, 0, 71, 61
1, 210432, Note_on_c, 0, 72, 0
1, 210432, Note_on_c, 1, 54, 0
1, 210438, Note_on_c, 1, 55, 44
1, 210903, Note_on_c, 0, 74, 62
1, 210964, Note_on_c, 0, 71, 0
1, 211080, Note_on_c, 0, 72, 51
1, 211118, Note_on_c, 0, 74, 0
1, 211191, Note_on_c, 1, 55, 0
1, 211243, Note_on_c, 0, 71, 65
1, 211253, Note_on_c, 0, 72, 0
1, 211414, Note_on_c, 0, 60, 39
1, 211424, Note_on_c, 0, 76, 61
1, 211432, Note_on_c, 0, 71, 0
1, 211870, Note_on_c, 0, 76, 0
1, 211947, Note_on_c, 0, 72, 66
1, 212095, Note_on_c, 0, 71, 62
1, 212146, Note_on_c, 0, 72, 0
1, 212264, Note_on_c, 0, 71, 0
1, 212266, Note_on_c, 0, 69, 61
1, 212456, Note_on_c, 0, 69, 0
1, 212472, Note_on_c, 0, 67, 58
1, 212480, Note_on_c, 0, 60, 0
1, 212966, Note_on_c, 1, 59, 70
1, 213449, Note_on_c, 0, 60, 43
1, 213452, Note_on_c, 0, 67, 0
1, 213462, Note_on_c, 0, 69, 66
1, 213499, Note_on_c, 1, 59, 0
1, 213593, Note_on_c, 0, 71, 74
1, 213600, Note_on_c, 0, 69, 0
1, 213696, Note_on_c, 0, 69, 77
1, 213704, Note_on_c, 0, 71, 0
1, 213767, Note_on_c, 0, 71, 58
1, 213768, Note_on_c, 0, 69, 0
1, 213813, Note_on_c, 0, 60, 0
1, 213827, Note_on_c, 0, 69, 73
1, 213829, Note_on_c, 0, 71, 0
1, 213876, Note_on_c, 0, 71, 67
1, 213877, Note_on_c, 0, 69, 0
1, 213886, Note_on_c, 0, 62, 38
1, 213924, Note_on_c, 0, 69, 78
1, 213925, Note_on_c, 0, 71, 0
1, 213967, Note_on_c, 0, 71, 60
1, 213969, Note_on_c, 0, 69, 0
1, 214006, Note_on_c, 0, 62, 0
1, 214008, Note_on_c, 0, 71, 0
1, 214022, Note_on_c, 0, 69, 86
1, 214058, Note_on_c, 0, 71, 74
1, 214066, Note_on_c, 0, 69, 0
1, 214100, Note_on_c, 0, 71, 0
1, 214117, Note_on_c, 0, 69, 78
1, 214155, Note_on_c, 0, 71, 83
1, 214162, Note_on_c, 0, 69, 0
1, 214201, Note_on_c, 0, 71, 0
1, 214203, Note_on_c, 0, 69, 70
1, 214226, Note_on_c, 0, 71, 66
1, 214255, Note_on_c, 0, 69, 0
1, 214281, Note_on_c, 0, 69, 69
1, 214296, Note_on_c, 0, 71, 0
1, 214352, Note_on_c, 0, 67, 52
1, 214353, Note_on_c, 0, 69, 0
1, 214404, Note_on_c, 0, 69, 74
1, 214440, Note_on_c, 0, 67, 0
1, 214467, Note_on_c, 1, 55, 30
1, 214487, Note_on_c, 0, 67, 75
1, 214528, Note_on_c, 0, 69, 0
1, 215015, Note_on_c, 0, 74, 59
1, 215026, Note_on_c, 0, 67, 0
1, 215172, Note_on_c, 0, 72, 63
1, 215220, Note_on_c, 0, 74, 0
1, 215331, Note_on_c, 0, 71, 39
1, 215351, Note_on_c, 0, 72, 0
1, 215425, Note_on_c, 1, 55, 0
1, 215537, Note_on_c, 0, 60, 30
1, 215538, Note_on_c, 0, 76, 44
1, 215552, Note_on_c, 0, 71, 0
1, 216028, Note_on_c, 0, 76, 0
1, 216046, Note_on_c, 0, 72, 29
1, 216181, Note_on_c, 0, 71, 47
1, 216217, Note_on_c, 0, 72, 0
1, 216357, Note_on_c, 0, 71, 0
1, 216357, Note_on_c, 0, 69, 36
1, 216505, Note_on_c, 0, 69, 0
1, 216521, Note_on_c, 0, 67, 42
1, 216576, Note_on_c, 0, 60, 0
1, 217076, Note_on_c, 1, 59, 34
1, 217554, Note_on_c, 0, 69, 42
1, 217564, Note_on_c, 0, 60, 34
1, 217568, Note_on_c, 0, 67, 0
1, 217598, Note_on_c, 1, 59, 0
1, 217650, Note_on_c, 0, 71, 43
1, 217654, Note_on_c, 0, 69, 0
1, 217750, Note_on_c, 0, 69, 47
1, 217761, Note_on_c, 0, 71, 0
1, 217827, Note_on_c, 0, 71, 61
1, 217842, Note_on_c, 0, 69, 0
1, 217926, Note_on_c, 0, 69, 46
1, 217936, Note_on_c, 0, 71, 0
1, 217995, Note_on_c, 0, 71, 78
1, 217999, Note_on_c, 0, 69, 0
1, 218011, Note_on_c, 0, 60, 0
1, 218032, Note_on_c, 0, 62, 42
1, 218061, Note_on_c, 0, 69, 49
1, 218074, Note_on_c, 0, 71, 0
1, 218115, Note_on_c, 0, 71, 63
1, 218117, Note_on_c, 0, 69, 0
1, 218156, Note_on_c, 0, 71, 0
1, 218165, Note_on_c, 0, 69, 54
1, 218204, Note_on_c, 0, 62, 0
1, 218213, Note_on_c, 0, 69, 0
1, 218218, Note_on_c, 0, 71, 65
1, 218259, Note_on_c, 0, 71, 0
1, 218266, Note_on_c, 0, 69, 66
1, 218288, Note_on_c, 0, 71, 66
1, 218306, Note_on_c, 0, 69, 0
1, 218349, Note_on_c, 0, 69, 61
1, 218353, Note_on_c, 0, 71, 0
1, 218415, Note_on_c, 0, 67, 59
1, 218420, Note_on_c, 0, 69, 0
1, 218481, Note_on_c, 0, 69, 51
1, 218499, Note_on_c, 0, 67, 0
1, 218578, Note_on_c, 0, 67, 59
1, 218624, Note_on_c, 0, 69, 0
1, 218624, Note_on_c, 2, 67, 64
1, 218634, Note_on_c, 1, 55, 39
1, 218845, Note_on_c, 0, 67, 0
1, 218868, Note_on_c, 1, 55, 0
1, 219637, Note_on_c, 0, 69, 46
1, 219648, Note_on_c, 2, 67, 0
1, 219761, Note_on_c, 0, 67, 48
1, 219783, Note_on_c, 0, 69, 0
1, 219874, Note_on_c, 0, 66, 53
1, 219905, Note_on_c, 0, 67, 0
1, 219985, Note_on_c, 0, 64, 49
1, 220013, Note_on_c, 0, 66, 0
1, 220108, Note_on_c, 0, 64, 0
1, 220174, Note_on_c, 0, 62, 55
1, 220664, Note_on_c, 0, 74, 46
1, 220672, Note_on_c, 0, 71, 56
1, 220680, Note_on_c, 0, 62, 0
1, 221159, Note_on_c, 0, 73, 42
1, 221164, Note_on_c, 0, 69, 57
1, 221170, Note_on_c, 0, 74, 0
1, 221188, Note_on_c, 0, 71, 0
1, 221638, Note_on_c, 0, 69, 0
1, 221656, Note_on_c, 0, 71, 55
1, 221658, Note_on_c, 0, 73, 0
1, 221661, Note_on_c, 0, 67, 49
1, 222000, Note_on_c, 0, 67, 0
1, 222094, Note_on_c, 0, 71, 0
1, 222175, Note_on_c, 0, 69, 37
1, 222176, Note_on_c, 0, 66, 52
1, 222689, Note_on_c, 1, 50, 54
1, 222790, Note_on_c, 1, 50, 0
1, 223170, Note_on_c, 1, 38, 58
1, 223352, Note_on_c, 0, 69, 0
1, 223390, Note_on_c, 0, 66, 0
1, 223701, Note_on_c, 1, 38, 0
1, 223721, Note_on_c, 0, 71, 61
1, 223724, Note_on_c, 0, 67, 51
1, 224204, Note_on_c, 0, 67, 0
1, 224218, Note_on_c, 0, 69, 62
1, 224219, Note_on_c, 0, 72, 67
1, 224256, Note_on_c, 0, 71, 0
1, 224721, Note_on_c, 1, 50, 50
1, 224834, Note_on_c, 1, 50, 0
1, 225023, Note_on_c, 0, 69, 0
1, 225046, Note_on_c, 0, 72, 0
1, 225225, Note_on_c, 1, 38, 51
1, 225613, Note_on_c, 1, 38, 0
1, 225758, Note_on_c, 0, 76, 64
1, 225907, Note_on_c, 0, 74, 69
1, 225970, Note_on_c, 0, 76, 0
1, 226054, Note_on_c, 0, 72, 66
1, 226096, Note_on_c, 0, 74, 0
1, 226228, Note_on_c, 0, 71, 65
1, 226235, Note_on_c, 0, 72, 0
1, 226236, Note_on_c, 1, 55, 46
1, 226304, Note_on_c, 1, 55, 0
1, 226331, Note_on_c, 0, 71, 0
1, 226779, Note_on_c, 0, 79, 56
1, 227276, Note_on_c, 0, 78, 45
1, 227288, Note_on_c, 0, 79, 0
1, 227827, Note_on_c, 0, 78, 0
1, 227877, Note_on_c, 0, 76, 26
1, 227895, Note_on_c, 0, 72, 32
1, 228046, Note_on_c, 0, 76, 0
1, 228083, Note_on_c, 0, 72, 0
1, 228346, Note_on_c, 0, 74, 40
1, 228358, Note_on_c, 0, 71, 44
1, 228828, Note_on_c, 1, 55, 66
1, 228932, Note_on_c, 1, 55, 0
1, 229332, Note_on_c, 1, 43, 66
1, 229663, Note_on_c, 0, 71, 0
1, 229809, Note_on_c, 0, 74, 0
1, 229838, Note_on_c, 0, 76, 55
1, 229840, Note_on_c, 0, 72, 45
1, 230021, Note_on_c, 1, 43, 0
1, 230069, Note_on_c, 0, 72, 0
1, 230071, Note_on_c, 0, 76, 0
1, 230335, Note_on_c, 0, 77, 64
1, 230336, Note_on_c, 0, 74, 66
1, 230400, Note_on_c, 0, 77, 0
1, 230890, Note_on_c, 1, 55, 66
1, 231304, Note_on_c, 0, 74, 0
1, 231335, Note_on_c, 1, 55, 0
1, 231340, Note_on_c, 1, 43, 67
1, 231541, Note_on_c, 1, 43, 0
1, 231886, Note_on_c, 0, 81, 65
1, 232071, Note_on_c, 0, 79, 74
1, 232114, Note_on_c, 0, 81, 0
1, 232227, Note_on_c, 0, 77, 53
1, 232279, Note_on_c, 0, 79, 0
1, 232424, Note_on_c, 0, 77, 0
1, 232425, Note_on_c, 0, 76, 57
1, 232443, Note_on_c, 0, 60, 47
1, 232616, Note_on_c, 0, 60, 0
1, 232707, Note_on_c, 0, 67, 43
1, 232727, Note_on_c, 0, 76, 0
1, 232898, Note_on_c, 0, 67, 0
1, 232943, Note_on_c, 0, 60, 43
1, 232950, Note_on_c, 0, 79, 53
1, 233149, Note_on_c, 0, 60, 0
1, 233197, Note_on_c, 0, 67, 40
1, 233250, Note_on_c, 0, 79, 0
1, 233384, Note_on_c, 0, 67, 0
1, 233444, Note_on_c, 0, 60, 45
1, 233655, Note_on_c, 0, 60, 0
1, 233734, Note_on_c, 0, 67, 32
1, 233863, Note_on_c, 0, 67, 0
1, 233976, Note_on_c, 0, 79, 62
1, 233992, Note_on_c, 0, 60, 55
1, 234121, Note_on_c, 0, 60, 0
1, 234180, Note_on_c, 0, 79, 0
1, 234254, Note_on_c, 0, 67, 43
1, 234352, Note_on_c, 0, 67, 0
1, 234489, Note_on_c, 1, 59, 40
1, 234499, Note_on_c, 0, 77, 56
1, 234681, Note_on_c, 0, 77, 0
1, 234699, Note_on_c, 1, 59, 0
1, 234750, Note_on_c, 0, 67, 41
1, 234871, Note_on_c, 0, 67, 0
1, 234982, Note_on_c, 0, 74, 61
1, 234987, Note_on_c, 1, 59, 39
1, 235115, Note_on_c, 0, 74, 0
1, 235204, Note_on_c, 1, 59, 0
1, 235269, Note_on_c, 0, 67, 33
1, 235376, Note_on_c, 0, 67, 0
1, 235526, Note_on_c, 1, 59, 32
1, 235659, Note_on_c, 1, 59, 0
1, 235783, Note_on_c, 0, 67, 41
1, 235880, Note_on_c, 0, 67, 0
1, 236025, Note_on_c, 1, 59, 42
1, 236030, Note_on_c, 0, 77, 67
1, 236115, Note_on_c, 0, 77, 0
1, 236118, Note_on_c, 1, 59, 0
1, 236260, Note_on_c, 0, 67, 37
1, 236463, Note_on_c, 0, 67, 0
1, 236520, Note_on_c, 0, 76, 67
1, 236540, Note_on_c, 0, 60, 42
1, 236711, Note_on_c, 0, 60, 0
1, 236717, Note_on_c, 0, 76, 0
1, 236798, Note_on_c, 0, 67, 39
1, 236915, Note_on_c, 0, 67, 0
1, 237028, Note_on_c, 0, 60, 51
1, 237028, Note_on_c, 0, 79, 72
1, 237133, Note_on_c, 0, 79, 0
1, 237173, Note_on_c, 0, 60, 0
1, 237308, Note_on_c, 0, 67, 31
1, 237419, Note_on_c, 0, 67, 0
1, 237541, Note_on_c, 0, 60, 38
1, 237675, Note_on_c, 0, 60, 0
1, 237833, Note_on_c, 0, 67, 25
1, 237928, Note_on_c, 0, 67, 0
1, 238078, Note_on_c, 0, 79, 74
1, 238081, Note_on_c, 0, 60, 45
1, 238195, Note_on_c, 0, 79, 0
1, 238202, Note_on_c, 0, 60, 0
1, 238329, Note_on_c, 0, 67, 29
1, 238470, Note_on_c, 0, 67, 0
1, 238582, Note_on_c, 0, 77, 75
1, 238587, Note_on_c, 1, 59, 43
1, 238792, Note_on_c, 1, 59, 0
1, 238829, Note_on_c, 0, 67, 31
1, 239051, Note_on_c, 0, 67, 0
1, 239065, Note_on_c, 0, 74, 60
1, 239080, Note_on_c, 1, 59, 40
1, 239286, Note_on_c, 1, 59, 0
1, 239339, Note_on_c, 0, 67, 41
1, 239619, Note_on_c, 1, 59, 37
1, 239620, Note_on_c, 0, 67, 0
1, 239868, Note_on_c, 1, 59, 0
1, 239879, Note_on_c, 0, 67, 35
1, 239880, Note_on_c, 0, 77, 0
1, 240069, Note_on_c, 0, 74, 0
1, 240138, Note_on_c, 0, 77, 73
1, 240141, Note_on_c, 1, 59, 39
1, 240152, Note_on_c, 0, 67, 0
1, 240372, Note_on_c, 1, 59, 0
1, 240398, Note_on_c, 0, 67, 37
1, 240640, Note_on_c, 0, 77, 0
1, 240654, Note_on_c, 0, 67, 0
1, 240658, Note_on_c, 0, 76, 67
1, 240667, Note_on_c, 0, 60, 36
1, 240860, Note_on_c, 0, 60, 0
1, 240894, Note_on_c, 0, 67, 43
1, 241140, Note_on_c, 0, 60, 51
1, 241141, Note_on_c, 0, 79, 66
1, 241161, Note_on_c, 0, 67, 0
1, 241174, Note_on_c, 0, 76, 0
1, 241341, Note_on_c, 0, 60, 0
1, 241387, Note_on_c, 0, 67, 28
1, 241448, Note_on_c, 0, 79, 0
1, 241626, Note_on_c, 0, 60, 48
1, 241672, Note_on_c, 0, 67, 0
1, 241871, Note_on_c, 0, 60, 0
1, 241897, Note_on_c, 0, 67, 43
1, 242106, Note_on_c, 0, 67, 0
1, 242116, Note_on_c, 0, 60, 53
1, 242118, Note_on_c, 0, 76, 70
1, 242259, Note_on_c, 0, 76, 0
1, 242294, Note_on_c, 0, 60, 0
1, 242402, Note_on_c, 0, 67, 36
1, 242615, Note_on_c, 0, 67, 0
1, 242632, Note_on_c, 0, 61, 38
1, 242637, Note_on_c, 0, 76, 74
1, 242877, Note_on_c, 0, 69, 33
1, 242910, Note_on_c, 0, 61, 0
1, 243163, Note_on_c, 0, 81, 83
1, 243168, Note_on_c, 0, 61, 43
1, 243196, Note_on_c, 0, 69, 0
1, 243206, Note_on_c, 0, 76, 0
1, 243441, Note_on_c, 0, 69, 44
1, 243451, Note_on_c, 0, 61, 0
1, 243688, Note_on_c, 0, 61, 36
1, 243701, Note_on_c, 0, 69, 0
1, 243940, Note_on_c, 0, 69, 31
1, 243959, Note_on_c, 0, 61, 0
1, 244188, Note_on_c, 0, 79, 54
1, 244197, Note_on_c, 0, 61, 43
1, 244249, Note_on_c, 0, 69, 0
1, 244305, Note_on_c, 0, 81, 0
1, 244457, Note_on_c, 0, 61, 0
1, 244460, Note_on_c, 0, 69, 41
1, 244714, Note_on_c, 0, 62, 51
1, 244729, Note_on_c, 0, 78, 53
1, 244736, Note_on_c, 0, 79, 0
1, 244736, Note_on_c, 0, 69, 0
1, 244976, Note_on_c, 0, 69, 43
1, 244984, Note_on_c, 0, 62, 0
1, 245184, Note_on_c, 0, 69, 0
1, 245233, Note_on_c, 0, 62, 42
1, 245237, Note_on_c, 0, 78, 0
1, 245254, Note_on_c, 0, 74, 65
1, 245450, Note_on_c, 0, 62, 0
1, 245476, Note_on_c, 0, 69, 38
1, 245699, Note_on_c, 0, 69, 0
1, 245734, Note_on_c, 0, 62, 33
1, 245980, Note_on_c, 0, 69, 42
1, 245985, Note_on_c, 0, 62, 0
1, 246243, Note_on_c, 0, 78, 64
1, 246252, Note_on_c, 0, 69, 0
1, 246260, Note_on_c, 0, 62, 51
1, 246314, Note_on_c, 0, 74, 0
1, 246421, Note_on_c, 0, 62, 0
1, 246515, Note_on_c, 0, 69, 43
1, 246719, Note_on_c, 0, 69, 0
1, 246749, Note_on_c, 0, 61, 38
1, 246767, Note_on_c, 0, 76, 61
1, 246784, Note_on_c, 0, 78, 0
1, 246993, Note_on_c, 0, 61, 0
1, 247012, Note_on_c, 0, 69, 40
1, 247268, Note_on_c, 0, 61, 37
1, 247269, Note_on_c, 0, 69, 0
1, 247288, Note_on_c, 0, 81, 67
1, 247336, Note_on_c, 0, 76, 0
1, 247492, Note_on_c, 0, 61, 0
1, 247529, Note_on_c, 0, 69, 27
1, 247780, Note_on_c, 0, 61, 41
1, 247809, Note_on_c, 0, 69, 0
1, 248004, Note_on_c, 0, 61, 0
1, 248030, Note_on_c, 0, 69, 42
1, 248269, Note_on_c, 0, 81, 0
1, 248274, Note_on_c, 0, 69, 0
1, 248300, Note_on_c, 0, 61, 35
1, 248307, Note_on_c, 0, 79, 73
1, 248459, Note_on_c, 0, 61, 0
1, 248533, Note_on_c, 0, 69, 35
1, 248793, Note_on_c, 0, 69, 0
1, 248817, Note_on_c, 0, 62, 37
1, 248822, Note_on_c, 0, 78, 54
1, 248832, Note_on_c, 0, 79, 0
1, 249043, Note_on_c, 0, 62, 0
1, 249080, Note_on_c, 0, 69, 33
1, 249302, Note_on_c, 0, 78, 0
1, 249305, Note_on_c, 0, 69, 0
1, 249319, Note_on_c, 0, 74, 68
1, 249323, Note_on_c, 0, 62, 47
1, 249542, Note_on_c, 0, 62, 0
1, 249585, Note_on_c, 0, 69, 36
1, 249820, Note_on_c, 0, 69, 0
1, 249832, Note_on_c, 0, 62, 41
1, 250075, Note_on_c, 0, 62, 0
1, 250126, Note_on_c, 0, 69, 34
1, 250375, Note_on_c, 0, 78, 67
1, 250382, Note_on_c, 0, 62, 53
1, 250390, Note_on_c, 0, 69, 0
1, 250420, Note_on_c, 0, 74, 0
1, 250563, Note_on_c, 0, 62, 0
1, 250614, Note_on_c, 0, 78, 0
1, 250659, Note_on_c, 0, 69, 45
1, 250835, Note_on_c, 0, 69, 0
1, 250903, Note_on_c, 0, 63, 38
1, 250910, Note_on_c, 0, 78, 83
1, 251093, Note_on_c, 0, 63, 0
1, 251159, Note_on_c, 0, 71, 45
1, 251312, Note_on_c, 0, 71, 0
1, 251377, Note_on_c, 0, 78, 0
1, 251393, Note_on_c, 0, 83, 74
1, 251408, Note_on_c, 0, 63, 39
1, 251580, Note_on_c, 0, 63, 0
1, 251688, Note_on_c, 0, 71, 38
1, 251904, Note_on_c, 0, 71, 0
1, 251934, Note_on_c, 0, 63, 41
1, 252117, Note_on_c, 0, 63, 0
1, 252191, Note_on_c, 0, 71, 31
1, 252356, Note_on_c, 0, 71, 0
1, 252420, Note_on_c, 0, 81, 70
1, 252432, Note_on_c, 0, 63, 47
1, 252464, Note_on_c, 0, 83, 0
1, 252651, Note_on_c, 0, 63, 0
1, 252676, Note_on_c, 0, 71, 39
1, 252917, Note_on_c, 0, 71, 0
1, 252918, Note_on_c, 0, 79, 68
1, 252926, Note_on_c, 0, 64, 40
1, 252928, Note_on_c, 0, 81, 0
1, 253164, Note_on_c, 0, 64, 0
1, 253206, Note_on_c, 0, 71, 31
1, 253322, Note_on_c, 0, 71, 0
1, 253409, Note_on_c, 0, 79, 0
1, 253414, Note_on_c, 0, 76, 65
1, 253434, Note_on_c, 0, 64, 47
1, 253578, Note_on_c, 0, 64, 0
1, 253684, Note_on_c, 0, 71, 38
1, 253836, Note_on_c, 0, 71, 0
1, 253933, Note_on_c, 0, 64, 47
1, 254092, Note_on_c, 0, 64, 0
1, 254180, Note_on_c, 0, 71, 42
1, 254297, Note_on_c, 0, 71, 0
1, 254455, Note_on_c, 0, 79, 90
1, 254476, Note_on_c, 0, 64, 43
1, 254484, Note_on_c, 0, 76, 0
1, 254634, Note_on_c, 0, 64, 0
1, 254738, Note_on_c, 0, 71, 36
1, 254879, Note_on_c, 0, 71, 0
1, 254968, Note_on_c, 0, 63, 38
1, 254976, Note_on_c, 0, 79, 0
1, 254980, Note_on_c, 0, 78, 60
1, 255163, Note_on_c, 0, 63, 0
1, 255221, Note_on_c, 0, 71, 39
1, 255468, Note_on_c, 0, 83, 50
1, 255485, Note_on_c, 0, 71, 0
1, 255498, Note_on_c, 0, 63, 36
1, 255539, Note_on_c, 0, 78, 0
1, 255712, Note_on_c, 0, 63, 0
1, 255737, Note_on_c, 0, 71, 45
1, 255867, Note_on_c, 0, 71, 0
1, 255973, Note_on_c, 0, 63, 43
1, 256198, Note_on_c, 0, 63, 0
1, 256253, Note_on_c, 0, 71, 33
1, 256425, Note_on_c, 0, 71, 0
1, 256484, Note_on_c, 0, 63, 47
1, 256491, Note_on_c, 0, 81, 61
1, 256528, Note_on_c, 0, 83, 0
1, 256723, Note_on_c, 0, 63, 0
1, 256756, Note_on_c, 0, 71, 40
1, 256943, Note_on_c, 0, 71, 0
1, 257003, Note_on_c, 0, 64, 49
1, 257004, Note_on_c, 0, 79, 65
1, 257024, Note_on_c, 0, 81, 0
1, 257269, Note_on_c, 0, 79, 0
1, 257508, Note_on_c, 0, 71, 77
1, 257678, Note_on_c, 0, 73, 78
1, 257726, Note_on_c, 0, 71, 0
1, 257834, Note_on_c, 0, 75, 69
1, 257872, Note_on_c, 0, 73, 0
1, 257994, Note_on_c, 0, 76, 74
1, 258003, Note_on_c, 0, 75, 0
1, 258176, Note_on_c, 0, 78, 56
1, 258282, Note_on_c, 0, 64, 0
1, 258284, Note_on_c, 0, 76, 0
1, 258354, Note_on_c, 0, 79, 92
1, 258397, Note_on_c, 0, 78, 0
1, 258549, Note_on_c, 0, 78, 64
1, 258551, Note_on_c, 0, 63, 54
1, 258571, Note_on_c, 0, 79, 0
1, 258719, Note_on_c, 0, 79, 78
1, 258852, Note_on_c, 0, 78, 0
1, 258867, Note_on_c, 0, 81, 78
1, 258896, Note_on_c, 0, 79, 0
1, 259072, Note_on_c, 0, 63, 0
1, 259072, Note_on_c, 0, 81, 0
1, 259077, Note_on_c, 0, 64, 49
1, 259080, Note_on_c, 0, 79, 66
1, 259392, Note_on_c, 0, 79, 0
1, 259554, Note_on_c, 0, 71, 74
1, 259725, Note_on_c, 0, 73, 42
1, 259781, Note_on_c, 0, 71, 0
1, 259875, Note_on_c, 0, 75, 49
1, 259910, Note_on_c, 0, 73, 0
1, 260010, Note_on_c, 0, 75, 0
1, 260042, Note_on_c, 0, 76, 66
1, 260213, Note_on_c, 0, 78, 46
1, 260247, Note_on_c, 0, 76, 0
1, 260340, Note_on_c, 0, 64, 0
1, 260368, Note_on_c, 0, 79, 61
1, 260410, Note_on_c, 0, 78, 0
1, 260567, Note_on_c, 0, 78, 52
1, 260573, Note_on_c, 0, 63, 42
1, 260585, Note_on_c, 0, 79, 0
1, 260728, Note_on_c, 0, 79, 55
1, 260775, Note_on_c, 0, 78, 0
1, 260858, Note_on_c, 0, 63, 0
1, 260882, Note_on_c, 0, 81, 57
1, 260895, Note_on_c, 0, 79, 0
1, 261106, Note_on_c, 0, 79, 66
1, 261110, Note_on_c, 0, 64, 41
1, 261120, Note_on_c, 0, 81, 0
1, 261509, Note_on_c, 0, 64, 0
1, 261570, Note_on_c, 0, 83, 58
1, 261613, Note_on_c, 0, 79, 0
1, 261752, Note_on_c, 0, 81, 48
1, 261775, Note_on_c, 0, 83, 0
1, 261937, Note_on_c, 0, 81, 0
1, 261943, Note_on_c, 0, 79, 57
1, 262099, Note_on_c, 0, 79, 0
1, 262106, Note_on_c, 0, 84, 75
1, 262128, Note_on_c, 0, 69, 46
1, 262605, Note_on_c, 0, 81, 55
1, 262615, Note_on_c, 0, 84, 0
1, 262773, Note_on_c, 0, 79, 61
1, 262804, Note_on_c, 0, 81, 0
1, 262949, Note_on_c, 0, 78, 41
1, 262956, Note_on_c, 0, 79, 0
1, 263111, Note_on_c, 0, 76, 51
1, 263168, Note_on_c, 0, 69, 0
1, 263168, Note_on_c, 0, 78, 0
1, 263636, Note_on_c, 0, 67, 49
1, 263946, Note_on_c, 0, 67, 0
1, 264059, Note_on_c, 0, 76, 0
1, 264159, Note_on_c, 0, 78, 73
1, 264164, Note_on_c, 0, 69, 52
1, 264321, Note_on_c, 0, 78, 0
1, 264325, Note_on_c, 0, 79, 53
1, 264377, Note_on_c, 0, 69, 0
1, 264415, Note_on_c, 0, 78, 74
1, 264428, Note_on_c, 0, 79, 0
1, 264479, Note_on_c, 0, 78, 0
1, 264484, Note_on_c, 0, 79, 52
1, 264533, Note_on_c, 0, 78, 66
1, 264535, Note_on_c, 0, 79, 0
1, 264591, Note_on_c, 0, 79, 83
1, 264593, Note_on_c, 0, 78, 0
1, 264637, Note_on_c, 0, 71, 32
1, 264640, Note_on_c, 0, 78, 59
1, 264657, Note_on_c, 0, 79, 0
1, 264676, Note_on_c, 0, 79, 61
1, 264685, Note_on_c, 0, 78, 0
1, 264723, Note_on_c, 0, 79, 0
1, 264726, Note_on_c, 0, 78, 73
1, 264754, Note_on_c, 0, 71, 0
1, 264789, Note_on_c, 0, 78, 0
1, 264826, Note_on_c, 0, 78, 59
1, 264870, Note_on_c, 0, 79, 55
1, 264872, Note_on_c, 0, 78, 0
1, 264989, Note_on_c, 0, 78, 46
1, 265010, Note_on_c, 0, 79, 0
1, 265067, Note_on_c, 0, 76, 37
1, 265071, Note_on_c, 0, 78, 0
1, 265123, Note_on_c, 0, 78, 52
1, 265141, Note_on_c, 0, 76, 0
1, 265202, Note_on_c, 0, 64, 47
1, 265216, Note_on_c, 0, 78, 0
1, 265224, Note_on_c, 0, 76, 57
1, 265680, Note_on_c, 0, 83, 62
1, 265695, Note_on_c, 0, 76, 0
1, 265799, Note_on_c, 0, 64, 0
1, 265833, Note_on_c, 0, 81, 55
1, 265892, Note_on_c, 0, 83, 0
1, 265997, Note_on_c, 0, 81, 0
1, 266003, Note_on_c, 0, 79, 38
1, 266207, Note_on_c, 0, 79, 0
1, 266209, Note_on_c, 0, 84, 52
1, 266228, Note_on_c, 0, 69, 31
1, 266722, Note_on_c, 0, 81, 54
1, 266783, Note_on_c, 0, 84, 0
1, 266891, Note_on_c, 0, 79, 47
1, 266946, Note_on_c, 0, 81, 0
1, 267036, Note_on_c, 0, 78, 46
1, 267087, Note_on_c, 0, 79, 0
1, 267218, Note_on_c, 0, 76, 56
1, 267264, Note_on_c, 0, 69, 0
1, 267264, Note_on_c, 0, 78, 0
1, 267748, Note_on_c, 0, 67, 46
1, 268011, Note_on_c, 0, 67, 0
1, 268236, Note_on_c, 0, 78, 46
1, 268238, Note_on_c, 0, 69, 39
1, 268343, Note_on_c, 0, 76, 0
1, 268376, Note_on_c, 0, 79, 66
1, 268417, Note_on_c, 0, 78, 0
1, 268492, Note_on_c, 0, 78, 66
1, 268521, Note_on_c, 0, 79, 0
1, 268593, Note_on_c, 0, 79, 66
1, 268609, Note_on_c, 0, 78, 0
1, 268658, Note_on_c, 0, 69, 0
1, 268704, Note_on_c, 0, 78, 67
1, 268716, Note_on_c, 0, 79, 0
1, 268719, Note_on_c, 0, 71, 40
1, 268774, Note_on_c, 0, 79, 78
1, 268790, Note_on_c, 0, 78, 0
1, 268843, Note_on_c, 0, 78, 53
1, 268844, Note_on_c, 0, 79, 0
1, 268874, Note_on_c, 0, 71, 0
1, 268887, Note_on_c, 0, 79, 67
1, 268897, Note_on_c, 0, 78, 0
1, 268931, Note_on_c, 0, 79, 0
1, 268942, Note_on_c, 0, 78, 58
1, 269010, Note_on_c, 0, 78, 0
1, 269033, Note_on_c, 0, 78, 54
1, 269078, Note_on_c, 0, 79, 73
1, 269080, Note_on_c, 0, 78, 0
1, 269129, Note_on_c, 0, 78, 59
1, 269148, Note_on_c, 0, 79, 0
1, 269219, Note_on_c, 0, 78, 0
1, 269228, Note_on_c, 0, 76, 37
1, 269274, Note_on_c, 0, 76, 54
1, 269278, Note_on_c, 0, 64, 49
1, 269312, Note_on_c, 0, 76, 0
1, 270440, Note_on_c, 0, 64, 0
1, 270476, Note_on_c, 0, 76, 0
1, 270881, Note_on_c, 1, 59, 45
1, 271035, Note_on_c, 1, 57, 45
1, 271068, Note_on_c, 1, 59, 0
1, 271106, Note_on_c, 1, 55, 49
1, 271143, Note_on_c, 1, 57, 0
1, 271220, Note_on_c, 1, 54, 39
1, 271251, Note_on_c, 1, 55, 0
1, 271398, Note_on_c, 1, 54, 0
1, 271418, Note_on_c, 1, 52, 39
1, 271914, Note_on_c, 0, 79, 64
1, 271918, Note_on_c, 0, 71, 51
1, 272016, Note_on_c, 0, 71, 0
1, 272022, Note_on_c, 0, 79, 0
1, 272087, Note_on_c, 1, 52, 0
1, 272437, Note_on_c, 0, 79, 70
1, 272440, Note_on_c, 0, 71, 59
1, 272899, Note_on_c, 0, 64, 54
1, 273022, Note_on_c, 0, 62, 52
1, 273083, Note_on_c, 0, 64, 0
1, 273125, Note_on_c, 0, 61, 32
1, 273160, Note_on_c, 0, 62, 0
1, 273255, Note_on_c, 1, 59, 46
1, 273303, Note_on_c, 0, 61, 0
1, 273307, Note_on_c, 0, 71, 0
1, 273323, Note_on_c, 0, 79, 0
1, 273408, Note_on_c, 1, 59, 0
1, 273412, Note_on_c, 1, 57, 65
1, 273916, Note_on_c, 0, 81, 60
1, 273926, Note_on_c, 0, 73, 47
1, 274044, Note_on_c, 0, 73, 0
1, 274052, Note_on_c, 0, 81, 0
1, 274410, Note_on_c, 0, 81, 64
1, 274420, Note_on_c, 0, 73, 51
1, 274617, Note_on_c, 1, 57, 0
1, 274927, Note_on_c, 1, 57, 35
1, 275068, Note_on_c, 1, 55, 37
1, 275088, Note_on_c, 1, 57, 0
1, 275166, Note_on_c, 1, 54, 49
1, 275170, Note_on_c, 1, 55, 0
1, 275303, Note_on_c, 1, 52, 40
1, 275326, Note_on_c, 1, 54, 0
1, 275418, Note_on_c, 0, 81, 0
1, 275433, Note_on_c, 0, 73, 0
1, 275456, Note_on_c, 1, 52, 0
1, 275459, Note_on_c, 1, 50, 59
1, 275973, Note_on_c, 0, 78, 57
1, 275981, Note_on_c, 0, 69, 56
1, 276071, Note_on_c, 0, 69, 0
1, 276099, Note_on_c, 0, 78, 0
1, 276402, Note_on_c, 1, 50, 0
1, 276490, Note_on_c, 0, 78, 62
1, 276494, Note_on_c, 0, 69, 60
1, 277045, Note_on_c, 0, 62, 49
1, 277177, Note_on_c, 0, 60, 44
1, 277216, Note_on_c, 0, 62, 0
1, 277257, Note_on_c, 0, 69, 0
1, 277279, Note_on_c, 1, 59, 49
1, 277282, Note_on_c, 0, 78, 0
1, 277311, Note_on_c, 0, 60, 0
1, 277379, Note_on_c, 1, 57, 59
1, 277398, Note_on_c, 1, 59, 0
1, 277504, Note_on_c, 1, 57, 0
1, 277524, Note_on_c, 1, 55, 57
1, 278039, Note_on_c, 0, 79, 54
1, 278046, Note_on_c, 0, 71, 52
1, 278148, Note_on_c, 0, 71, 0
1, 278155, Note_on_c, 0, 79, 0
1, 278512, Note_on_c, 0, 79, 61
1, 278516, Note_on_c, 0, 71, 59
1, 278638, Note_on_c, 0, 79, 0
1, 278673, Note_on_c, 0, 71, 0
1, 278804, Note_on_c, 1, 55, 0
1, 279017, Note_on_c, 0, 74, 59
1, 279136, Note_on_c, 0, 72, 59
1, 279288, Note_on_c, 0, 71, 67
1, 279362, Note_on_c, 0, 72, 0
1, 279414, Note_on_c, 0, 74, 0
1, 279414, Note_on_c, 0, 69, 65
1, 279466, Note_on_c, 0, 71, 0
1, 279566, Note_on_c, 0, 69, 0
1, 279568, Note_on_c, 0, 67, 77
1, 280078, Note_on_c, 0, 67, 0
1, 280097, Note_on_c, 0, 79, 57
1, 280098, Note_on_c, 0, 76, 63
1, 280580, Note_on_c, 0, 78, 48
1, 280586, Note_on_c, 0, 74, 54
1, 280603, Note_on_c, 0, 79, 0
1, 280618, Note_on_c, 0, 76, 0
1, 281093, Note_on_c, 0, 76, 50
1, 281106, Note_on_c, 0, 72, 45
1, 281132, Note_on_c, 0, 74, 0
1, 281159, Note_on_c, 0, 78, 0
1, 281330, Note_on_c, 0, 72, 0
1, 281342, Note_on_c, 0, 76, 0
1, 281606, Note_on_c, 0, 74, 52
1, 281610, Note_on_c, 0, 71, 50
1, 282099, Note_on_c, 1, 55, 55
1, 282607, Note_on_c, 1, 43, 54
1, 282611, Note_on_c, 1, 55, 0
1, 282648, Note_on_c, 0, 74, 0
1, 282686, Note_on_c, 0, 71, 0
1, 283088, Note_on_c, 0, 76, 60
1, 283243, Note_on_c, 0, 74, 62
1, 283295, Note_on_c, 0, 76, 0
1, 283393, Note_on_c, 0, 72, 65
1, 283430, Note_on_c, 0, 74, 0
1, 283562, Note_on_c, 0, 71, 70
1, 283584, Note_on_c, 0, 72, 0
1, 283594, Note_on_c, 1, 43, 0
1, 283648, Note_on_c, 0, 71, 0
1, 284124, Note_on_c, 1, 55, 64
1, 284317, Note_on_c, 1, 55, 0
1, 284665, Note_on_c, 1, 43, 59
1, 285124, Note_on_c, 0, 71, 56
1, 285232, Note_on_c, 0, 69, 49
1, 285313, Note_on_c, 0, 71, 0
1, 285360, Note_on_c, 0, 67, 58
1, 285417, Note_on_c, 0, 69, 0
1, 285499, Note_on_c, 0, 66, 55
1, 285521, Note_on_c, 0, 67, 0
1, 285646, Note_on_c, 0, 64, 55
1, 285650, Note_on_c, 1, 48, 46
1, 285696, Note_on_c, 0, 66, 0
1, 285696, Note_on_c, 1, 43, 0
1, 286033, Note_on_c, 0, 64, 0
1, 286148, Note_on_c, 0, 76, 61
1, 286156, Note_on_c, 0, 72, 53
1, 286656, Note_on_c, 0, 72, 0
1, 286664, Note_on_c, 0, 71, 55
1, 286672, Note_on_c, 1, 50, 46
1, 286678, Note_on_c, 0, 74, 52
1, 286702, Note_on_c, 1, 48, 0
1, 286710, Note_on_c, 0, 76, 0
1, 287048, Note_on_c, 0, 71, 0
1, 287177, Note_on_c, 0, 74, 0
1, 287211, Note_on_c, 0, 72, 48
1, 287218, Note_on_c, 0, 69, 43
1, 287348, Note_on_c, 0, 69, 0
1, 287357, Note_on_c, 0, 72, 0
1, 287445, Note_on_c, 1, 50, 0
1, 287726, Note_on_c, 0, 72, 48
1, 287737, Note_on_c, 0, 69, 40
1, 287740, Note_on_c, 1, 55, 46
1, 288271, Note_on_c, 1, 50, 51
1, 288351, Note_on_c, 1, 55, 0
1, 288355, Note_on_c, 0, 72, 0
1, 288390, Note_on_c, 1, 50, 0
1, 288394, Note_on_c, 0, 69, 0
1, 288782, Note_on_c, 1, 43, 65
1, 288795, Note_on_c, 0, 71, 55
1, 288796, Note_on_c, 0, 67, 53
1, 288960, Note_on_c, 0, 71, 0
1, 289010, Note_on_c, 0, 67, 0
1, 289233, Note_on_c, 1, 43, 0
1, 289276, Note_on_c, 0, 71, 47
1, 289282, Note_on_c, 0, 69, 47
1, 289365, Note_on_c, 0, 69, 0
1, 289424, Note_on_c, 0, 69, 41
1, 289446, Note_on_c, 0, 71, 0
1, 289557, Note_on_c, 0, 67, 44
1, 289567, Note_on_c, 0, 69, 0
1, 289686, Note_on_c, 0, 66, 49
1, 289704, Note_on_c, 0, 67, 0
1, 289801, Note_on_c, 0, 66, 0
1, 289820, Note_on_c, 0, 64, 55
1, 289825, Note_on_c, 1, 48, 60
1, 290038, Note_on_c, 0, 64, 0
1, 290312, Note_on_c, 0, 69, 60
1, 290313, Note_on_c, 0, 72, 59
1, 290535, Note_on_c, 0, 72, 0
1, 290541, Note_on_c, 0, 69, 0
1, 290819, Note_on_c, 0, 72, 60
1, 290822, Note_on_c, 0, 69, 57
1, 291042, Note_on_c, 0, 72, 0
1, 291061, Note_on_c, 0, 69, 0
1, 291341, Note_on_c, 0, 71, 62
1, 291344, Note_on_c, 1, 49, 53
1, 291346, Note_on_c, 0, 67, 56
1, 291353, Note_on_c, 1, 48, 0
1, 291539, Note_on_c, 0, 71, 0
1, 291547, Note_on_c, 0, 67, 0
1, 291603, Note_on_c, 1, 49, 0
1, 291828, Note_on_c, 0, 67, 61
1, 291829, Note_on_c, 0, 71, 68
1, 291831, Note_on_c, 1, 50, 57
1, 292395, Note_on_c, 1, 50, 0
1, 292500, Note_on_c, 0, 71, 0
1, 292530, Note_on_c, 0, 67, 0
1, 292880, Note_on_c, 1, 38, 53
1, 292883, Note_on_c, 0, 66, 47
1, 292884, Note_on_c, 0, 69, 61
1, 292969, Note_on_c, 0, 69, 0
1, 293008, Note_on_c, 0, 66, 0
1, 293075, Note_on_c, 1, 38, 0
1, 293347, Note_on_c, 0, 74, 57
1, 293475, Note_on_c, 0, 72, 54
1, 293531, Note_on_c, 0, 74, 0
1, 293590, Note_on_c, 0, 71, 53
1, 293624, Note_on_c, 0, 72, 0
1, 293711, Note_on_c, 0, 69, 60
1, 293743, Note_on_c, 0, 71, 0
1, 293824, Note_on_c, 0, 69, 0
1, 293844, Note_on_c, 0, 67, 57
1, 294053, Note_on_c, 0, 67, 0
1, 294356, Note_on_c, 0, 79, 54
1, 294365, Note_on_c, 0, 64, 49
1, 294598, Note_on_c, 0, 67, 51
1, 294599, Note_on_c, 0, 79, 0
1, 294856, Note_on_c, 0, 78, 62
1, 294861, Note_on_c, 0, 62, 58
1, 294905, Note_on_c, 0, 67, 0
1, 294938, Note_on_c, 0, 64, 0
1, 295124, Note_on_c, 0, 67, 67
1, 295132, Note_on_c, 0, 78, 0
1, 295359, Note_on_c, 0, 67, 0
1, 295388, Note_on_c, 0, 76, 72
1, 295399, Note_on_c, 0, 60, 52
1, 295415, Note_on_c, 0, 62, 0
1, 295638, Note_on_c, 0, 67, 74
1, 295652, Note_on_c, 0, 76, 0
1, 295868, Note_on_c, 0, 67, 0
1, 295892, Note_on_c, 1, 59, 55
1, 295896, Note_on_c, 0, 74, 78
1, 295936, Note_on_c, 0, 60, 0
1, 296164, Note_on_c, 0, 67, 75
1, 296167, Note_on_c, 0, 74, 0
1, 296426, Note_on_c, 0, 72, 77
1, 296435, Note_on_c, 1, 57, 67
1, 296439, Note_on_c, 0, 67, 0
1, 296571, Note_on_c, 1, 59, 0
1, 296641, Note_on_c, 0, 72, 0
1, 296670, Note_on_c, 0, 67, 78
1, 296939, Note_on_c, 1, 55, 38
1, 296950, Note_on_c, 0, 71, 53
1, 296958, Note_on_c, 1, 57, 0
1, 297004, Note_on_c, 0, 67, 0
1, 297236, Note_on_c, 0, 71, 0
1, 297475, Note_on_c, 0, 74, 52
1, 297604, Note_on_c, 0, 72, 39
1, 297624, Note_on_c, 0, 74, 0
1, 297731, Note_on_c, 0, 72, 0
1, 297754, Note_on_c, 0, 71, 34
1, 297850, Note_on_c, 0, 69, 39
1, 297860, Note_on_c, 0, 71, 0
1, 297984, Note_on_c, 0, 69, 0
1, 297984, Note_on_c, 1, 55, 0
1, 298026, Note_on_c, 0, 67, 23
1, 298374, Note_on_c, 0, 67, 0
1, 298472, Note_on_c, 0, 79, 39
1, 298474, Note_on_c, 0, 64, 39
1, 298677, Note_on_c, 0, 79, 0
1, 298726, Note_on_c, 0, 67, 38
1, 298976, Note_on_c, 0, 78, 28
1, 298993, Note_on_c, 0, 67, 0
1, 299011, Note_on_c, 0, 62, 29
1, 299097, Note_on_c, 0, 64, 0
1, 299262, Note_on_c, 0, 67, 36
1, 299271, Note_on_c, 0, 78, 0
1, 299490, Note_on_c, 0, 76, 54
1, 299494, Note_on_c, 0, 67, 0
1, 299498, Note_on_c, 0, 60, 43
1, 299556, Note_on_c, 0, 62, 0
1, 299749, Note_on_c, 0, 67, 55
1, 299770, Note_on_c, 0, 76, 0
1, 300019, Note_on_c, 0, 74, 64
1, 300032, Note_on_c, 0, 60, 0
1, 300032, Note_on_c, 0, 67, 0
1, 300044, Note_on_c, 1, 59, 38
1, 300303, Note_on_c, 0, 67, 69
1, 300307, Note_on_c, 0, 74, 0
1, 300566, Note_on_c, 1, 57, 52
1, 300596, Note_on_c, 0, 72, 79
1, 300597, Note_on_c, 0, 71, 75
1, 300609, Note_on_c, 1, 59, 0
1, 300637, Note_on_c, 0, 71, 0
1, 300673, Note_on_c, 0, 67, 0
1, 300836, Note_on_c, 0, 72, 0
1, 300844, Note_on_c, 0, 67, 81
1, 301103, Note_on_c, 1, 55, 58
1, 301115, Note_on_c, 0, 71, 79
1, 301143, Note_on_c, 1, 57, 0
1, 301174, Note_on_c, 0, 67, 0
1, 301562, Note_on_c, 0, 74, 70
1, 301605, Note_on_c, 0, 71, 0
1, 301731, Note_on_c, 1, 55, 0
1, 302063, Note_on_c, 0, 72, 53
1, 302078, Note_on_c, 1, 54, 34
1, 302080, Note_on_c, 0, 74, 0
1, 302080, Note_on_c, 0, 69, 64
1, 302291, Note_on_c, 1, 54, 0
1, 302336, Note_on_c, 0, 69, 0
1, 302345, Note_on_c, 0, 62, 32
1, 302487, Note_on_c, 0, 62, 0
1, 302575, Note_on_c, 1, 54, 34
1, 302592, Note_on_c, 0, 66, 64
1, 302592, Note_on_c, 0, 69, 43
1, 302621, Note_on_c, 0, 72, 0
1, 302799, Note_on_c, 1, 54, 0
1, 302848, Note_on_c, 0, 66, 0
1, 302874, Note_on_c, 0, 62, 34
1, 303082, Note_on_c, 0, 62, 0
1, 303096, Note_on_c, 1, 54, 31
1, 303153, Note_on_c, 0, 69, 0
1, 303292, Note_on_c, 1, 54, 0
1, 303376, Note_on_c, 0, 62, 40
1, 303547, Note_on_c, 0, 62, 0
1, 303622, Note_on_c, 1, 54, 42
1, 303627, Note_on_c, 0, 69, 55
1, 303627, Note_on_c, 0, 72, 56
1, 303783, Note_on_c, 0, 69, 0
1, 303796, Note_on_c, 1, 54, 0
1, 304106, Note_on_c, 1, 55, 47
1, 304116, Note_on_c, 0, 71, 59
1, 304119, Note_on_c, 0, 67, 54
1, 304128, Note_on_c, 0, 72, 0
1, 304361, Note_on_c, 0, 62, 40
1, 304385, Note_on_c, 1, 55, 0
1, 304461, Note_on_c, 0, 71, 0
1, 304520, Note_on_c, 0, 67, 0
1, 304622, Note_on_c, 1, 55, 48
1, 304632, Note_on_c, 0, 71, 48
1, 304634, Note_on_c, 0, 74, 53
1, 304644, Note_on_c, 0, 62, 0
1, 304886, Note_on_c, 0, 62, 56
1, 304888, Note_on_c, 1, 55, 0
1, 305118, Note_on_c, 1, 55, 57
1, 305154, Note_on_c, 0, 62, 0
1, 305393, Note_on_c, 0, 62, 45
1, 305402, Note_on_c, 1, 55, 0
1, 305450, Note_on_c, 0, 71, 0
1, 305452, Note_on_c, 0, 74, 0
1, 305634, Note_on_c, 0, 74, 56
1, 305637, Note_on_c, 1, 55, 42
1, 305638, Note_on_c, 0, 71, 52
1, 305707, Note_on_c, 0, 62, 0
1, 305910, Note_on_c, 0, 62, 51
1, 305938, Note_on_c, 1, 55, 0
1, 306142, Note_on_c, 1, 54, 36
1, 306159, Note_on_c, 0, 72, 53
1, 306176, Note_on_c, 0, 71, 0
1, 306176, Note_on_c, 0, 74, 0
1, 306176, Note_on_c, 0, 62, 0
1, 306176, Note_on_c, 0, 69, 64
1, 306432, Note_on_c, 0, 69, 0
1, 306441, Note_on_c, 0, 62, 32
1, 306453, Note_on_c, 1, 54, 0
1, 306583, Note_on_c, 0, 62, 0
1, 306665, Note_on_c, 1, 54, 22
1, 306688, Note_on_c, 0, 66, 64
1, 306688, Note_on_c, 0, 69, 43
1, 306717, Note_on_c, 0, 72, 0
1, 306944, Note_on_c, 0, 66, 0
1, 306970, Note_on_c, 0, 62, 34
1, 306986, Note_on_c, 1, 54, 0
1, 307178, Note_on_c, 0, 62, 0
1, 307202, Note_on_c, 1, 54, 43
1, 307249, Note_on_c, 0, 69, 0
1, 307468, Note_on_c, 1, 54, 0
1, 307472, Note_on_c, 0, 62, 40
1, 307643, Note_on_c, 0, 62, 0
1, 307704, Note_on_c, 1, 54, 42
1, 307723, Note_on_c, 0, 69, 55
1, 307723, Note_on_c, 0, 72, 56
1, 307879, Note_on_c, 0, 69, 0
1, 307917, Note_on_c, 1, 54, 0
1, 308220, Note_on_c, 1, 55, 35
1, 308224, Note_on_c, 0, 72, 0
1, 308231, Note_on_c, 0, 71, 60
1, 308234, Note_on_c, 0, 67, 50
1, 308463, Note_on_c, 0, 62, 40
1, 308464, Note_on_c, 1, 55, 0
1, 308519, Note_on_c, 0, 71, 0
1, 308621, Note_on_c, 0, 67, 0
1, 308744, Note_on_c, 0, 71, 55
1, 308747, Note_on_c, 1, 55, 55
1, 308749, Note_on_c, 0, 74, 56
1, 308754, Note_on_c, 0, 62, 0
1, 309007, Note_on_c, 1, 55, 0
1, 309016, Note_on_c, 0, 62, 41
1, 309255, Note_on_c, 1, 55, 52
1, 309257, Note_on_c, 0, 62, 0
1, 309399, Note_on_c, 0, 74, 0
1, 309418, Note_on_c, 0, 71, 0
1, 309515, Note_on_c, 1, 55, 0
1, 309521, Note_on_c, 0, 62, 30
1, 309756, Note_on_c, 0, 74, 59
1, 309758, Note_on_c, 0, 62, 0
1, 309765, Note_on_c, 1, 55, 45
1, 309993, Note_on_c, 1, 55, 0
1, 310023, Note_on_c, 0, 62, 43
1, 310246, Note_on_c, 0, 62, 0
1, 310262, Note_on_c, 0, 74, 0
1, 310263, Note_on_c, 1, 54, 34
1, 310264, Note_on_c, 0, 72, 66
1, 310277, Note_on_c, 0, 71, 51
1, 310322, Note_on_c, 0, 71, 0
1, 310526, Note_on_c, 1, 54, 0
1, 310549, Note_on_c, 0, 62, 46
1, 310787, Note_on_c, 1, 54, 38
1, 310792, Note_on_c, 0, 69, 61
1, 310811, Note_on_c, 0, 72, 0
1, 310814, Note_on_c, 0, 62, 0
1, 311033, Note_on_c, 1, 54, 0
1, 311080, Note_on_c, 0, 62, 37
1, 311237, Note_on_c, 0, 62, 0
1, 311310, Note_on_c, 1, 54, 31
1, 311311, Note_on_c, 0, 69, 0
1, 311499, Note_on_c, 1, 54, 0
1, 311540, Note_on_c, 0, 62, 40
1, 311650, Note_on_c, 0, 62, 0
1, 311789, Note_on_c, 0, 72, 59
1, 311791, Note_on_c, 0, 69, 54
1, 311802, Note_on_c, 1, 54, 37
1, 311988, Note_on_c, 1, 54, 0
1, 312003, Note_on_c, 0, 69, 0
1, 312009, Note_on_c, 0, 72, 0
1, 312025, Note_on_c, 0, 62, 43
1, 312302, Note_on_c, 1, 55, 59
1, 312312, Note_on_c, 0, 71, 59
1, 312320, Note_on_c, 0, 62, 0
1, 312320, Note_on_c, 0, 67, 53
1, 312474, Note_on_c, 0, 71, 0
1, 312529, Note_on_c, 0, 67, 0
1, 312790, Note_on_c, 0, 62, 65
1, 312964, Note_on_c, 0, 64, 62
1, 312995, Note_on_c, 0, 62, 0
1, 313119, Note_on_c, 0, 66, 38
1, 313124, Note_on_c, 0, 64, 0
1, 313197, Note_on_c, 0, 66, 0
1, 313308, Note_on_c, 0, 67, 63
1, 313439, Note_on_c, 0, 67, 0
1, 313483, Note_on_c, 1, 55, 0
1, 313500, Note_on_c, 0, 69, 61
1, 313597, Note_on_c, 0, 69, 0
1, 313674, Note_on_c, 0, 71, 52
1, 313851, Note_on_c, 0, 69, 75
1, 313860, Note_on_c, 1, 54, 49
1, 313873, Note_on_c, 0, 71, 0
1, 314029, Note_on_c, 0, 71, 75
1, 314084, Note_on_c, 0, 69, 0
1, 314193, Note_on_c, 0, 72, 69
1, 314221, Note_on_c, 0, 71, 0
1, 314368, Note_on_c, 0, 72, 0
1, 314368, Note_on_c, 1, 54, 0
1, 314398, Note_on_c, 0, 71, 70
1, 314414, Note_on_c, 1, 55, 56
1, 314622, Note_on_c, 0, 71, 0
1, 314886, Note_on_c, 0, 62, 64
1, 315066, Note_on_c, 0, 64, 57
1, 315078, Note_on_c, 0, 62, 0
1, 315215, Note_on_c, 0, 66, 51
1, 315227, Note_on_c, 0, 64, 0
1, 315378, Note_on_c, 0, 66, 0
1, 315395, Note_on_c, 0, 67, 52
1, 315568, Note_on_c, 0, 67, 0
1, 315577, Note_on_c, 0, 69, 56
1, 315722, Note_on_c, 1, 55, 0
1, 315748, Note_on_c, 0, 71, 50
1, 315751, Note_on_c, 0, 69, 0
1, 315902, Note_on_c, 0, 71, 0
1, 315903, Note_on_c, 0, 69, 45
1, 315927, Note_on_c, 1, 54, 38
1, 316068, Note_on_c, 0, 71, 52
1, 316101, Note_on_c, 0, 69, 0
1, 316235, Note_on_c, 0, 72, 57
1, 316252, Note_on_c, 0, 71, 0
1, 316408, Note_on_c, 0, 71, 61
1, 316416, Note_on_c, 0, 72, 0
1, 316416, Note_on_c, 1, 54, 0
1, 316422, Note_on_c, 1, 55, 44
1, 316887, Note_on_c, 0, 74, 62
1, 316948, Note_on_c, 0, 71, 0
1, 317064, Note_on_c, 0, 72, 51
1, 317102, Note_on_c, 0, 74, 0
1, 317175, Note_on_c, 1, 55, 0
1, 317227, Note_on_c, 0, 71, 65
1, 317237, Note_on_c, 0, 72, 0
1, 317398, Note_on_c, 0, 60, 39
1, 317408, Note_on_c, 0, 76, 61
1, 317416, Note_on_c, 0, 71, 0
1, 317854, Note_on_c, 0, 76, 0
1, 317931, Note_on_c, 0, 72, 66
1, 318079, Note_on_c, 0, 71, 62
1, 318130, Note_on_c, 0, 72, 0
1, 318248, Note_on_c, 0, 71, 0
1, 318250, Note_on_c, 0, 69, 61
1, 318440, Note_on_c, 0, 69, 0
1, 318456, Note_on_c, 0, 67, 58
1, 318464, Note_on_c, 0, 60, 0
1, 318950, Note_on_c, 1, 59, 70
1, 319433, Note_on_c, 0, 60, 43
1, 319436, Note_on_c, 0, 67, 0
1, 319446, Note_on_c, 0, 69, 66
1, 319483, Note_on_c, 1, 59, 0
1, 319577, Note_on_c, 0, 71, 74
1, 319584, Note_on_c, 0, 69, 0
1, 319680, Note_on_c, 0, 69, 77
1, 319688, Note_on_c, 0, 71, 0
1, 319751, Note_on_c, 0, 71, 58
1, 319752, Note_on_c, 0, 69, 0
1, 319797, Note_on_c, 0, 60, 0
1, 319811, Note_on_c, 0, 69, 73
1, 319813, Note_on_c, 0, 71, 0
1, 319860, Note_on_c, 0, 71, 67
1, 319861, Note_on_c, 0, 69, 0
1, 319870, Note_on_c, 0, 62, 38
1, 319908, Note_on_c, 0, 69, 78
1, 319909, Note_on_c, 0, 71, 0
1, 319951, Note_on_c, 0, 71, 60
1, 319953, Note_on_c, 0, 69, 0
1, 319990, Note_on_c, 0, 62, 0
1, 319992, Note_on_c, 0, 71, 0
1, 320006, Note_on_c, 0, 69, 86
1, 320042, Note_on_c, 0, 71, 74
1, 320050, Note_on_c, 0, 69, 0
1, 320084, Note_on_c, 0, 71, 0
1, 320101, Note_on_c, 0, 69, 78
1, 320139, Note_on_c, 0, 71, 83
1, 320146, Note_on_c, 0, 69, 0
1, 320185, Note_on_c, 0, 71, 0
1, 320187, Note_on_c, 0, 69, 70
1, 320210, Note_on_c, 0, 71, 66
1, 320239, Note_on_c, 0, 69, 0
1, 320265, Note_on_c, 0, 69, 69
1, 320280, Note_on_c, 0, 71, 0
1, 320336, Note_on_c, 0, 67, 52
1, 320337, Note_on_c, 0, 69, 0
1, 320388, Note_on_c, 0, 69, 74
1, 320424, Note_on_c, 0, 67, 0
1, 320451, Note_on_c, 1, 55, 30
1, 320471, Note_on_c, 0, 67, 75
1, 320512, Note_on_c, 0, 69, 0
1, 320999, Note_on_c, 0, 74, 59
1, 321010, Note_on_c, 0, 67, 0
1, 321156, Note_on_c, 0, 72, 63
1, 321204, Note_on_c, 0, 74, 0
1, 321315, Note_on_c, 0, 71, 39
1, 321335, Note_on_c, 0, 72, 0
1, 321409, Note_on_c, 1, 55, 0
1, 321521, Note_on_c, 0, 60, 30
1, 321522, Note_on_c, 0, 76, 44
1, 321536, Note_on_c, 0, 71, 0
1, 322012, Note_on_c, 0, 76, 0
1, 322030, Note_on_c, 0, 72, 29
1, 322165, Note_on_c, 0, 71, 47
1, 322201, Note_on_c, 0, 72, 0
1, 322341, Note_on_c, 0, 71, 0
1, 322341, Note_on_c, 0, 69, 36
1, 322489, Note_on_c, 0, 69, 0
1, 322505, Note_on_c, 0, 67, 42
1, 322560, Note_on_c, 0, 60, 0
1, 323060, Note_on_c, 1, 59, 34
1, 323538, Note_on_c, 0, 69, 42
1, 323548, Note_on_c, 0, 60, 34
1, 323552, Note_on_c, 0, 67, 0
1, 323582, Note_on_c, 1, 59, 0
1, 323634, Note_on_c, 0, 71, 43
1, 323638, Note_on_c, 0, 69, 0
1, 323734, Note_on_c, 0, 69, 47
1, 323745, Note_on_c, 0, 71, 0
1, 323811, Note_on_c, 0, 71, 61
1, 323826, Note_on_c, 0, 69, 0
1, 323910, Note_on_c, 0, 69, 46
1, 323920, Note_on_c, 0, 71, 0
1, 323979, Note_on_c, 0, 71, 78
1, 323983, Note_on_c, 0, 69, 0
1, 323995, Note_on_c, 0, 60, 0
1, 324016, Note_on_c, 0, 62, 42
1, 324045, Note_on_c, 0, 69, 49
1, 324058, Note_on_c, 0, 71, 0
1, 324099, Note_on_c, 0, 71, 63
1, 324101, Note_on_c, 0, 69, 0
1, 324140, Note_on_c, 0, 71, 0
1, 324149, Note_on_c, 0, 69, 54
1, 324188, Note_on_c, 0, 62, 0
1, 324197, Note_on_c, 0, 69, 0
1, 324202, Note_on_c, 0, 71, 65
1, 324243, Note_on_c, 0, 71, 0
1, 324250, Note_on_c, 0, 69, 66
1, 324272, Note_on_c, 0, 71, 66
1, 324290, Note_on_c, 0, 69, 0
1, 324333, Note_on_c, 0, 69, 61
1, 324337, Note_on_c, 0, 71, 0
1, 324399, Note_on_c, 0, 67, 59
1, 324404, Note_on_c, 0, 69, 0
1, 324465, Note_on_c, 0, 69, 51
1, 324483, Note_on_c, 0, 67, 0
1, 324562, Note_on_c, 0, 67, 59
1, 324608, Note_on_c, 0, 69, 0
1, 324608, Note_on_c, 2, 67, 64
1, 324618, Note_on_c, 1, 55, 39
1, 324829, Note_on_c, 0, 67, 0
1, 324852, Note_on_c, 1, 55, 0
1, 325632, Note_on_c, 2, 67, 0
1, 325642, End_track
0, 0, End_of_file