0, 0, Header, 0, 1, 256
1, 0, Start_track
1, 0, Tempo, 1034482
1, 0, Tempo, 1034482
1, 704, Note_on_c, 1, 57, 66
1, 736, Note_on_c, 1, 57, 0
1, 736, Note_on_c, 1, 60, 82
1, 768, Note_on_c, 1, 60, 0
1, 768, Note_on_c, 1, 65, 115
1, 768, Note_on_c, 1, 41, 78
1, 787, Note_on_c, 1, 45, 78
1, 806, Note_on_c, 1, 48, 78
1, 825, Note_on_c, 1, 53, 78
1, 1024, Note_on_c, 1, 53, 0
1, 1024, Note_on_c, 1, 48, 0
1, 1024, Note_on_c, 1, 45, 0
1, 1024, Note_on_c, 1, 41, 0
1, 1024, Note_on_c, 1, 53, 62
1, 1024, Note_on_c, 1, 57, 62
1, 1056, Note_on_c, 1, 65, 0
1, 1056, Note_on_c, 1, 60, 65
1, 1088, Note_on_c, 1, 60, 0
1, 1088, Note_on_c, 1, 65, 85
1, 1120, Note_on_c, 1, 65, 0
1, 1120, Note_on_c, 1, 69, 89
1, 1152, Note_on_c, 1, 69, 0
1, 1152, Note_on_c, 1, 72, 87
1, 1248, Note_on_c, 1, 72, 0
1, 1248, Note_on_c, 1, 69, 70
1, 1280, Note_on_c, 1, 57, 0
1, 1280, Note_on_c, 1, 53, 0
1, 1280, Note_on_c, 1, 69, 0
1, 1280, Note_on_c, 1, 72, 80
1, 1280, Note_on_c, 1, 53, 70
1, 1280, Note_on_c, 1, 58, 70
1, 1280, Note_on_c, 1, 64, 70
1, 1344, Note_on_c, 1, 72, 0
1, 1344, Note_on_c, 1, 70, 75
1, 1408, Note_on_c, 1, 70, 0
1, 1408, Note_on_c, 1, 67, 69
1, 1472, Note_on_c, 1, 67, 0
1, 1472, Note_on_c, 1, 64, 67
1, 1536, Note_on_c, 1, 64, 0
1, 1536, Note_on_c, 1, 58, 0
1, 1536, Note_on_c, 1, 53, 0
1, 1536, Note_on_c, 1, 64, 0
1, 1536, Note_on_c, 1, 65, 75
1, 1536, Note_on_c, 1, 53, 56
1, 1536, Note_on_c, 1, 57, 56
1, 1536, Note_on_c, 1, 60, 56
1, 1600, Note_on_c, 1, 65, 0
1, 1600, Note_on_c, 1, 67, 81
1, 1621, Note_on_c, 1, 67, 0
1, 1621, Note_on_c, 1, 65, 73
1, 1642, Note_on_c, 1, 65, 0
1, 1642, Note_on_c, 1, 64, 70
1, 1664, Tempo, 1200000
1, 1664, Note_on_c, 1, 64, 0
1, 1664, Note_on_c, 1, 65, 80
1, 1740, Note_on_c, 1, 65, 0
1, 1760, Note_on_c, 1, 69, 88
1, 1792, Note_on_c, 1, 60, 0
1, 1792, Note_on_c, 1, 57, 0
1, 1792, Note_on_c, 1, 53, 0
1, 1792, Note_on_c, 1, 69, 0
1, 1792, Note_on_c, 1, 60, 61
1, 1984, Tempo, 1016949
1, 1984, Note_on_c, 1, 60, 0
1, 2048, Note_on_c, 1, 57, 69
1, 2080, Note_on_c, 1, 57, 0
1, 2080, Note_on_c, 1, 60, 81
1, 2112, Note_on_c, 1, 60, 0
1, 2112, Note_on_c, 1, 64, 89
1, 2144, Note_on_c, 1, 64, 0
1, 2144, Note_on_c, 1, 65, 81
1, 2176, Note_on_c, 1, 65, 0
1, 2176, Note_on_c, 1, 69, 86
1, 2208, Note_on_c, 1, 69, 0
1, 2208, Note_on_c, 1, 72, 82
1, 2240, Note_on_c, 1, 72, 0
1, 2240, Note_on_c, 1, 76, 84
1, 2272, Note_on_c, 1, 76, 0
1, 2272, Note_on_c, 1, 77, 79
1, 2304, Note_on_c, 1, 77, 0
1, 2304, Note_on_c, 1, 77, 98
1, 2304, Note_on_c, 1, 58, 55
1, 2304, Note_on_c, 1, 62, 55
1, 2368, Note_on_c, 1, 62, 0
1, 2368, Note_on_c, 1, 58, 0
1, 2560, Note_on_c, 1, 70, 54
1, 2560, Note_on_c, 1, 74, 54
1, 2624, Note_on_c, 1, 74, 0
1, 2624, Note_on_c, 1, 70, 0
1, 2624, Note_on_c, 1, 77, 0
1, 2624, Note_on_c, 1, 76, 79
1, 2688, Note_on_c, 1, 76, 0
1, 2688, Note_on_c, 1, 79, 77
1, 2752, Note_on_c, 1, 79, 0
1, 2752, Note_on_c, 1, 77, 72
1, 2816, Note_on_c, 1, 77, 0
1, 2816, Note_on_c, 1, 76, 69
1, 2880, Note_on_c, 1, 76, 0
1, 2880, Note_on_c, 1, 74, 73
1, 2944, Note_on_c, 1, 74, 0
1, 2944, Note_on_c, 1, 72, 73
1, 3008, Note_on_c, 1, 72, 0
1, 3008, Note_on_c, 1, 70, 69
1, 3072, Note_on_c, 1, 70, 0
1, 3072, Note_on_c, 1, 69, 75
1, 3072, Note_on_c, 1, 60, 52
1, 3072, Note_on_c, 1, 65, 52
1, 3136, Note_on_c, 1, 69, 0
1, 3136, Note_on_c, 1, 70, 80
1, 3200, Note_on_c, 1, 70, 0
1, 3200, Note_on_c, 1, 71, 78
1, 3264, Note_on_c, 1, 71, 0
1, 3264, Note_on_c, 1, 72, 78
1, 3285, Note_on_c, 1, 72, 0
1, 3285, Note_on_c, 1, 71, 77
1, 3306, Note_on_c, 1, 71, 0
1, 3306, Note_on_c, 1, 69, 74
1, 3328, Tempo, 1090909
1, 3328, Note_on_c, 1, 65, 0
1, 3328, Note_on_c, 1, 60, 0
1, 3328, Note_on_c, 1, 69, 0
1, 3328, Note_on_c, 1, 74, 83
1, 3328, Note_on_c, 1, 60, 58
1, 3328, Note_on_c, 1, 64, 58
1, 3360, Note_on_c, 1, 74, 0
1, 3360, Note_on_c, 1, 72, 74
1, 3392, Note_on_c, 1, 72, 0
1, 3392, Note_on_c, 1, 70, 68
1, 3424, Tempo, 1224489
1, 3424, Note_on_c, 1, 70, 0
1, 3424, Note_on_c, 1, 69, 68
1, 3456, Note_on_c, 1, 69, 0
1, 3456, Note_on_c, 1, 67, 75
1, 3456, Note_on_c, 1, 70, 75
1, 3552, Note_on_c, 1, 70, 0
1, 3552, Note_on_c, 1, 67, 0
1, 3552, Note_on_c, 1, 69, 71
1, 3584, Note_on_c, 1, 64, 0
1, 3584, Note_on_c, 1, 60, 0
1, 3584, Note_on_c, 1, 69, 0
1, 3584, Note_on_c, 1, 67, 67
1, 3712, Note_on_c, 1, 67, 0
1, 3808, Tempo, 1034482
1, 3808, Note_on_c, 1, 57, 68
1, 3824, Note_on_c, 1, 57, 0
1, 3824, Note_on_c, 1, 60, 84
1, 3840, Note_on_c, 1, 60, 0
1, 3840, Note_on_c, 1, 65, 109
1, 3840, Note_on_c, 1, 41, 80
1, 3859, Note_on_c, 1, 45, 80
1, 3878, Note_on_c, 1, 48, 80
1, 3897, Note_on_c, 1, 53, 80
1, 4096, Note_on_c, 1, 53, 0
1, 4096, Note_on_c, 1, 48, 0
1, 4096, Note_on_c, 1, 45, 0
1, 4096, Note_on_c, 1, 41, 0
1, 4096, Note_on_c, 1, 53, 63
1, 4096, Note_on_c, 1, 57, 63
1, 4128, Note_on_c, 1, 65, 0
1, 4128, Note_on_c, 1, 60, 69
1, 4160, Note_on_c, 1, 60, 0
1, 4160, Note_on_c, 1, 65, 85
1, 4192, Note_on_c, 1, 65, 0
1, 4192, Note_on_c, 1, 69, 91
1, 4224, Note_on_c, 1, 69, 0
1, 4224, Note_on_c, 1, 72, 84
1, 4256, Note_on_c, 1, 72, 0
1, 4256, Note_on_c, 1, 69, 68
1, 4288, Note_on_c, 1, 69, 0
1, 4288, Note_on_c, 1, 77, 88
1, 4320, Note_on_c, 1, 77, 0
1, 4320, Note_on_c, 1, 69, 62
1, 4352, Note_on_c, 1, 57, 0
1, 4352, Note_on_c, 1, 53, 0
1, 4352, Note_on_c, 1, 69, 0
1, 4352, Note_on_c, 1, 72, 82
1, 4352, Note_on_c, 1, 53, 75
1, 4352, Note_on_c, 1, 58, 75
1, 4352, Note_on_c, 1, 64, 75
1, 4384, Note_on_c, 1, 72, 0
1, 4384, Note_on_c, 1, 71, 74
1, 4416, Note_on_c, 1, 71, 0
1, 4416, Note_on_c, 1, 74, 81
1, 4448, Note_on_c, 1, 74, 0
1, 4448, Note_on_c, 1, 72, 69
1, 4480, Note_on_c, 1, 72, 0
1, 4480, Note_on_c, 1, 70, 68
1, 4512, Note_on_c, 1, 70, 0
1, 4512, Note_on_c, 1, 69, 75
1, 4544, Note_on_c, 1, 69, 0
1, 4544, Note_on_c, 1, 70, 75
1, 4576, Note_on_c, 1, 70, 0
1, 4576, Note_on_c, 1, 67, 72
1, 4608, Note_on_c, 1, 64, 0
1, 4608, Note_on_c, 1, 58, 0
1, 4608, Note_on_c, 1, 53, 0
1, 4608, Note_on_c, 1, 67, 0
1, 4608, Note_on_c, 1, 65, 75
1, 4608, Note_on_c, 1, 53, 60
1, 4608, Note_on_c, 1, 57, 60
1, 4672, Note_on_c, 1, 65, 0
1, 4672, Note_on_c, 1, 67, 81
1, 4693, Tempo, 1200000
1, 4693, Note_on_c, 1, 67, 0
1, 4693, Note_on_c, 1, 65, 68
1, 4714, Note_on_c, 1, 65, 0
1, 4714, Note_on_c, 1, 64, 75
1, 4736, Note_on_c, 1, 64, 0
1, 4736, Note_on_c, 1, 65, 77
1, 4812, Note_on_c, 1, 65, 0
1, 4832, Note_on_c, 1, 69, 86
1, 4864, Note_on_c, 1, 57, 0
1, 4864, Note_on_c, 1, 53, 0
1, 4864, Note_on_c, 1, 69, 0
1, 4864, Note_on_c, 1, 61, 64
1, 4864, Note_on_c, 1, 33, 64
1, 4864, Note_on_c, 1, 45, 64
1, 5376, Tempo, 1016949
1, 5376, Note_on_c, 1, 45, 0
1, 5376, Note_on_c, 1, 33, 0
1, 5376, Note_on_c, 1, 61, 0
1, 5376, Note_on_c, 1, 62, 78
1, 5376, Note_on_c, 1, 34, 73
1, 5376, Note_on_c, 1, 46, 73
1, 5513, Note_on_c, 1, 62, 0
1, 5513, Note_on_c, 1, 64, 82
1, 5522, Note_on_c, 1, 64, 0
1, 5522, Note_on_c, 1, 66, 82
1, 5531, Note_on_c, 1, 66, 0
1, 5531, Note_on_c, 1, 67, 76
1, 5540, Note_on_c, 1, 67, 0
1, 5540, Note_on_c, 1, 69, 80
1, 5549, Note_on_c, 1, 69, 0
1, 5549, Note_on_c, 1, 70, 80
1, 5558, Note_on_c, 1, 70, 0
1, 5558, Note_on_c, 1, 72, 79
1, 5568, Note_on_c, 1, 72, 0
1, 5568, Note_on_c, 1, 74, 78
1, 5577, Note_on_c, 1, 74, 0
1, 5577, Note_on_c, 1, 76, 83
1, 5586, Note_on_c, 1, 76, 0
1, 5586, Note_on_c, 1, 78, 81
1, 5595, Note_on_c, 1, 78, 0
1, 5595, Note_on_c, 1, 79, 82
1, 5604, Note_on_c, 1, 79, 0
1, 5604, Note_on_c, 1, 81, 81
1, 5613, Note_on_c, 1, 81, 0
1, 5613, Note_on_c, 1, 82, 80
1, 5622, Note_on_c, 1, 82, 0
1, 5622, Note_on_c, 1, 84, 81
1, 5632, Note_on_c, 1, 84, 0
1, 5632, Note_on_c, 1, 86, 80
1, 5683, Note_on_c, 1, 86, 0
1, 5760, Note_on_c, 1, 72, 49
1, 5792, Note_on_c, 1, 72, 0
1, 5792, Note_on_c, 1, 70, 67
1, 5888, Note_on_c, 1, 46, 0
1, 5888, Note_on_c, 1, 34, 0
1, 5888, Note_on_c, 1, 70, 0
1, 5888, Note_on_c, 1, 69, 75
1, 5888, Note_on_c, 1, 48, 70
1, 5888, Note_on_c, 1, 58, 70
1, 5920, Note_on_c, 1, 69, 0
1, 5920, Note_on_c, 1, 67, 69
1, 6016, Note_on_c, 1, 67, 0
1, 6016, Note_on_c, 1, 65, 68
1, 6048, Note_on_c, 1, 65, 0
1, 6048, Note_on_c, 1, 64, 70
1, 6144, Note_on_c, 1, 58, 0
1, 6144, Note_on_c, 1, 48, 0
1, 6144, Note_on_c, 1, 64, 0
1, 6144, Note_on_c, 1, 67, 79
1, 6144, Note_on_c, 1, 53, 61
1, 6144, Note_on_c, 1, 58, 61
1, 6400, Note_on_c, 1, 58, 0
1, 6400, Note_on_c, 1, 53, 0
1, 6400, Note_on_c, 1, 67, 0
1, 6400, Note_on_c, 1, 65, 75
1, 6400, Note_on_c, 1, 53, 57
1, 6400, Note_on_c, 1, 57, 57
1, 6451, Note_on_c, 1, 57, 0
1, 6451, Note_on_c, 1, 53, 0
1, 6451, Note_on_c, 1, 65, 0
1, 6592, Note_on_c, 1, 72, 67
1, 6656, Tempo, 1000000
1, 6656, Note_on_c, 1, 72, 0
1, 6656, Note_on_c, 1, 74, 79
1, 6720, Note_on_c, 1, 74, 0
1, 6720, Note_on_c, 1, 76, 87
1, 6784, Note_on_c, 1, 76, 0
1, 6784, Note_on_c, 1, 77, 82
1, 6848, Note_on_c, 1, 77, 0
1, 6848, Note_on_c, 1, 79, 85
1, 6912, Tempo, 967741
1, 6912, Note_on_c, 1, 79, 0
1, 6912, Note_on_c, 1, 81, 84
1, 6912, Note_on_c, 0, 65, 66
1, 6976, Note_on_c, 1, 71, 49
1, 7040, Note_on_c, 1, 71, 0
1, 7040, Note_on_c, 1, 72, 64
1, 7104, Note_on_c, 1, 72, 0
1, 7104, Note_on_c, 1, 74, 64
1, 7168, Note_on_c, 1, 74, 0
1, 7168, Note_on_c, 1, 72, 54
1, 7232, Note_on_c, 1, 81, 0
1, 7232, Note_on_c, 1, 80, 73
1, 7296, Note_on_c, 1, 80, 0
1, 7296, Note_on_c, 1, 81, 74
1, 7360, Note_on_c, 1, 81, 0
1, 7360, Note_on_c, 1, 82, 80
1, 7424, Note_on_c, 1, 82, 0
1, 7424, Note_on_c, 1, 81, 77
1, 7424, Note_on_c, 0, 65, 0
1, 7424, Note_on_c, 0, 65, 76
1, 7488, Note_on_c, 1, 81, 0
1, 7488, Note_on_c, 1, 84, 85
1, 7552, Note_on_c, 1, 84, 0
1, 7552, Note_on_c, 1, 83, 80
1, 7616, Note_on_c, 1, 83, 0
1, 7616, Note_on_c, 1, 81, 76
1, 7680, Note_on_c, 1, 81, 0
1, 7680, Note_on_c, 1, 79, 70
1, 7680, Note_on_c, 0, 65, 0
1, 7680, Note_on_c, 0, 64, 72
1, 7744, Note_on_c, 1, 72, 0
1, 7744, Note_on_c, 1, 71, 56
1, 7808, Note_on_c, 1, 71, 0
1, 7808, Note_on_c, 1, 72, 62
1, 7872, Note_on_c, 1, 72, 0
1, 7872, Note_on_c, 1, 74, 68
1, 7936, Note_on_c, 1, 74, 0
1, 7936, Note_on_c, 1, 72, 58
1, 8000, Note_on_c, 1, 79, 0
1, 8000, Note_on_c, 1, 78, 70
1, 8064, Note_on_c, 1, 78, 0
1, 8064, Note_on_c, 1, 79, 79
1, 8128, Note_on_c, 1, 79, 0
1, 8128, Note_on_c, 1, 81, 83
1, 8192, Note_on_c, 1, 81, 0
1, 8192, Note_on_c, 1, 79, 68
1, 8192, Note_on_c, 0, 64, 0
1, 8192, Note_on_c, 0, 64, 80
1, 8224, Note_on_c, 1, 79, 0
1, 8224, Note_on_c, 1, 84, 88
1, 8256, Note_on_c, 1, 84, 0
1, 8256, Note_on_c, 1, 88, 84
1, 8288, Note_on_c, 1, 88, 0
1, 8288, Note_on_c, 1, 86, 76
1, 8320, Note_on_c, 1, 86, 0
1, 8320, Note_on_c, 1, 84, 75
1, 8352, Note_on_c, 1, 84, 0
1, 8352, Note_on_c, 1, 83, 69
1, 8384, Note_on_c, 1, 83, 0
1, 8384, Note_on_c, 1, 81, 74
1, 8416, Note_on_c, 1, 81, 0
1, 8416, Note_on_c, 1, 79, 67
1, 8448, Note_on_c, 1, 72, 0
1, 8448, Note_on_c, 1, 79, 0
1, 8448, Note_on_c, 1, 79, 77
1, 8448, Note_on_c, 1, 69, 61
1, 8448, Note_on_c, 1, 72, 61
1, 8448, Note_on_c, 0, 64, 0
1, 8448, Note_on_c, 0, 62, 67
1, 8512, Note_on_c, 1, 72, 0
1, 8512, Note_on_c, 1, 69, 0
1, 8512, Note_on_c, 1, 68, 56
1, 8512, Note_on_c, 1, 71, 56
1, 8576, Note_on_c, 1, 71, 0
1, 8576, Note_on_c, 1, 68, 0
1, 8576, Note_on_c, 1, 69, 57
1, 8576, Note_on_c, 1, 72, 57
1, 8640, Note_on_c, 1, 72, 0
1, 8640, Note_on_c, 1, 69, 0
1, 8640, Note_on_c, 1, 71, 69
1, 8640, Note_on_c, 1, 74, 69
1, 8704, Note_on_c, 1, 74, 0
1, 8704, Note_on_c, 1, 71, 0
1, 8704, Note_on_c, 1, 79, 0
1, 8704, Note_on_c, 1, 69, 69
1, 8704, Note_on_c, 1, 72, 69
1, 8704, Note_on_c, 1, 78, 69
1, 8704, Note_on_c, 1, 62, 48
1, 8704, Note_on_c, 0, 62, 0
1, 8768, Note_on_c, 1, 62, 0
1, 8768, Note_on_c, 1, 63, 59
1, 8832, Note_on_c, 1, 63, 0
1, 8832, Note_on_c, 1, 62, 63
1, 8896, Note_on_c, 1, 62, 0
1, 8896, Note_on_c, 1, 60, 58
1, 8960, Note_on_c, 1, 60, 0
1, 8960, Note_on_c, 1, 78, 0
1, 8960, Note_on_c, 1, 72, 0
1, 8960, Note_on_c, 1, 69, 0
1, 8960, Note_on_c, 1, 67, 70
1, 8960, Note_on_c, 1, 74, 70
1, 8960, Note_on_c, 1, 77, 70
1, 8960, Note_on_c, 1, 59, 57
1, 9024, Note_on_c, 1, 59, 0
1, 9024, Note_on_c, 1, 55, 58
1, 9088, Note_on_c, 1, 55, 0
1, 9088, Note_on_c, 1, 60, 64
1, 9152, Note_on_c, 1, 60, 0
1, 9152, Note_on_c, 1, 77, 0
1, 9152, Note_on_c, 1, 74, 0
1, 9152, Note_on_c, 1, 67, 0
1, 9152, Note_on_c, 1, 72, 71
1, 9152, Note_on_c, 1, 76, 71
1, 9152, Note_on_c, 1, 54, 62
1, 9216, Note_on_c, 1, 54, 0
1, 9216, Note_on_c, 1, 76, 0
1, 9216, Note_on_c, 1, 72, 0
1, 9216, Note_on_c, 1, 72, 73
1, 9216, Note_on_c, 1, 76, 73
1, 9216, Note_on_c, 1, 55, 60
1, 9280, Note_on_c, 1, 76, 0
1, 9280, Note_on_c, 1, 72, 0
1, 9280, Note_on_c, 1, 70, 68
1, 9280, Note_on_c, 1, 73, 68
1, 9344, Note_on_c, 1, 73, 0
1, 9344, Note_on_c, 1, 70, 0
1, 9344, Note_on_c, 1, 71, 80
1, 9344, Note_on_c, 1, 74, 80
1, 9408, Note_on_c, 1, 74, 0
1, 9408, Note_on_c, 1, 71, 0
1, 9408, Note_on_c, 1, 72, 77
1, 9408, Note_on_c, 1, 76, 77
1, 9472, Note_on_c, 1, 55, 0
1, 9472, Note_on_c, 1, 76, 0
1, 9472, Note_on_c, 1, 72, 0
1, 9472, Note_on_c, 1, 71, 71
1, 9472, Note_on_c, 1, 74, 71
1, 9536, Note_on_c, 1, 42, 54
1, 9600, Note_on_c, 1, 42, 0
1, 9600, Note_on_c, 1, 74, 0
1, 9600, Note_on_c, 1, 71, 0
1, 9600, Note_on_c, 1, 43, 62
1, 9664, Note_on_c, 1, 43, 0
1, 9664, Note_on_c, 1, 45, 57
1, 9728, Note_on_c, 1, 45, 0
1, 9728, Note_on_c, 1, 43, 58
1, 9792, Note_on_c, 1, 55, 70
1, 9856, Note_on_c, 1, 43, 0
1, 9856, Note_on_c, 1, 55, 0
1, 9856, Note_on_c, 1, 59, 79
1, 9920, Note_on_c, 1, 59, 0
1, 9920, Note_on_c, 1, 62, 78
1, 9984, Note_on_c, 1, 62, 0
1, 9984, Note_on_c, 1, 65, 86
1, 10048, Note_on_c, 1, 43, 57
1, 10112, Note_on_c, 1, 43, 0
1, 10112, Note_on_c, 1, 38, 56
1, 10176, Note_on_c, 1, 38, 0
1, 10176, Note_on_c, 1, 35, 60
1, 10240, Note_on_c, 1, 35, 0
1, 10240, Note_on_c, 1, 31, 58
1, 10272, Note_on_c, 1, 65, 0
1, 10272, Note_on_c, 1, 55, 69
1, 10304, Note_on_c, 1, 55, 0
1, 10304, Note_on_c, 1, 59, 77
1, 10336, Note_on_c, 1, 59, 0
1, 10336, Note_on_c, 1, 62, 85
1, 10368, Note_on_c, 1, 62, 0
1, 10368, Note_on_c, 1, 65, 86
1, 10400, Note_on_c, 1, 65, 0
1, 10400, Note_on_c, 1, 59, 73
1, 10432, Note_on_c, 1, 59, 0
1, 10432, Note_on_c, 1, 62, 85
1, 10464, Note_on_c, 1, 62, 0
1, 10464, Note_on_c, 1, 65, 80
1, 10496, Note_on_c, 1, 31, 0
1, 10496, Note_on_c, 1, 65, 0
1, 10496, Note_on_c, 1, 69, 85
1, 10560, Note_on_c, 1, 69, 0
1, 10560, Note_on_c, 1, 65, 70
1, 10624, Note_on_c, 1, 65, 0
1, 10624, Note_on_c, 1, 64, 73
1, 10624, Note_on_c, 1, 53, 58
1, 10624, Note_on_c, 1, 59, 58
1, 10688, Note_on_c, 1, 64, 0
1, 10688, Note_on_c, 1, 62, 68
1, 10752, Note_on_c, 1, 59, 0
1, 10752, Note_on_c, 1, 53, 0
1, 10752, Note_on_c, 1, 62, 0
1, 10752, Note_on_c, 1, 69, 83
1, 10752, Note_on_c, 1, 52, 61
1, 10752, Note_on_c, 1, 60, 61
1, 10784, Note_on_c, 1, 69, 0
1, 10784, Note_on_c, 1, 67, 73
1, 10816, Note_on_c, 1, 67, 0
1, 10816, Note_on_c, 1, 71, 83
1, 10848, Note_on_c, 1, 71, 0
1, 10848, Note_on_c, 1, 69, 70
1, 10880, Note_on_c, 1, 69, 0
1, 10880, Note_on_c, 1, 72, 84
1, 10912, Note_on_c, 1, 72, 0
1, 10912, Note_on_c, 1, 71, 69
1, 10944, Note_on_c, 1, 71, 0
1, 10944, Note_on_c, 1, 74, 83
1, 10976, Note_on_c, 1, 74, 0
1, 10976, Note_on_c, 1, 72, 71
1, 11008, Note_on_c, 1, 60, 0
1, 11008, Note_on_c, 1, 52, 0
1, 11008, Note_on_c, 1, 72, 0
1, 11008, Note_on_c, 1, 67, 68
1, 11136, Note_on_c, 1, 67, 0
1, 11200, Note_on_c, 1, 55, 53
1, 11264, Note_on_c, 1, 55, 0
1, 11264, Note_on_c, 1, 54, 60
1, 11296, Note_on_c, 1, 54, 0
1, 11296, Note_on_c, 1, 55, 58
1, 11328, Note_on_c, 1, 55, 0
1, 11328, Note_on_c, 1, 57, 62
1, 11360, Note_on_c, 1, 57, 0
1, 11360, Note_on_c, 1, 55, 61
1, 11392, Note_on_c, 1, 55, 0
1, 11392, Note_on_c, 1, 53, 56
1, 11424, Note_on_c, 1, 53, 0
1, 11424, Note_on_c, 1, 52, 59
1, 11456, Note_on_c, 1, 52, 0
1, 11456, Note_on_c, 1, 50, 60
1, 11488, Note_on_c, 1, 50, 0
1, 11488, Note_on_c, 1, 48, 59
1, 11520, Note_on_c, 1, 48, 0
1, 11520, Note_on_c, 1, 47, 57
1, 11552, Note_on_c, 1, 67, 67
1, 11584, Note_on_c, 1, 67, 0
1, 11584, Note_on_c, 1, 71, 80
1, 11616, Note_on_c, 1, 71, 0
1, 11616, Note_on_c, 1, 74, 84
1, 11648, Note_on_c, 1, 47, 0
1, 11648, Note_on_c, 1, 74, 0
1, 11648, Note_on_c, 1, 77, 82
1, 11680, Note_on_c, 1, 55, 59
1, 11712, Note_on_c, 1, 55, 0
1, 11712, Note_on_c, 1, 59, 68
1, 11744, Note_on_c, 1, 59, 0
1, 11744, Note_on_c, 1, 62, 63
1, 11776, Note_on_c, 1, 62, 0
1, 11776, Note_on_c, 1, 65, 66
1, 11801, Note_on_c, 1, 77, 0
1, 11808, Note_on_c, 1, 67, 57
1, 11840, Note_on_c, 1, 67, 0
1, 11840, Note_on_c, 1, 71, 80
1, 11872, Note_on_c, 1, 71, 0
1, 11872, Note_on_c, 1, 74, 80
1, 11904, Note_on_c, 1, 74, 0
1, 11904, Note_on_c, 1, 77, 79
1, 11936, Note_on_c, 1, 77, 0
1, 11936, Note_on_c, 1, 71, 67
1, 11968, Note_on_c, 1, 71, 0
1, 11968, Note_on_c, 1, 74, 77
1, 12000, Note_on_c, 1, 74, 0
1, 12000, Note_on_c, 1, 77, 82
1, 12032, Note_on_c, 1, 65, 0
1, 12032, Note_on_c, 1, 77, 0
1, 12032, Note_on_c, 1, 81, 83
1, 12064, Note_on_c, 1, 81, 0
1, 12064, Note_on_c, 1, 80, 74
1, 12096, Note_on_c, 1, 80, 0
1, 12096, Note_on_c, 1, 83, 80
1, 12128, Note_on_c, 1, 83, 0
1, 12128, Note_on_c, 1, 81, 70
1, 12160, Note_on_c, 1, 81, 0
1, 12160, Note_on_c, 1, 79, 70
1, 12160, Note_on_c, 1, 65, 55
1, 12160, Note_on_c, 1, 71, 55
1, 12192, Note_on_c, 1, 79, 0
1, 12192, Note_on_c, 1, 77, 69
1, 12224, Note_on_c, 1, 77, 0
1, 12224, Note_on_c, 1, 76, 72
1, 12256, Note_on_c, 1, 76, 0
1, 12256, Note_on_c, 1, 74, 68
1, 12288, Note_on_c, 1, 71, 0
1, 12288, Note_on_c, 1, 65, 0
1, 12288, Note_on_c, 1, 74, 0
1, 12288, Note_on_c, 1, 81, 96
1, 12288, Note_on_c, 1, 64, 59
1, 12288, Note_on_c, 1, 72, 59
1, 12320, Note_on_c, 1, 81, 0
1, 12320, Note_on_c, 1, 79, 76
1, 12352, Note_on_c, 1, 79, 0
1, 12352, Note_on_c, 1, 83, 85
1, 12384, Note_on_c, 1, 83, 0
1, 12384, Note_on_c, 1, 81, 72
1, 12416, Note_on_c, 1, 81, 0
1, 12416, Note_on_c, 1, 84, 85
1, 12448, Note_on_c, 1, 84, 0
1, 12448, Note_on_c, 1, 83, 73
1, 12480, Note_on_c, 1, 83, 0
1, 12480, Note_on_c, 1, 86, 82
1, 12512, Note_on_c, 1, 86, 0
1, 12512, Note_on_c, 1, 84, 72
1, 12544, Note_on_c, 1, 84, 0
1, 12544, Note_on_c, 1, 79, 69
1, 12595, Note_on_c, 1, 79, 0
1, 12672, Note_on_c, 1, 72, 0
1, 12672, Note_on_c, 1, 64, 0
1, 12736, Tempo, 1000000
1, 12736, Note_on_c, 1, 79, 68
1, 12768, Note_on_c, 1, 79, 0
1, 12800, Note_on_c, 1, 84, 86
1, 12800, Note_on_c, 1, 52, 60
1, 12800, Note_on_c, 1, 55, 60
1, 12800, Note_on_c, 1, 60, 60
1, 12832, Note_on_c, 1, 84, 0
1, 12832, Note_on_c, 1, 83, 73
1, 12864, Note_on_c, 1, 83, 0
1, 12864, Note_on_c, 1, 86, 82
1, 12896, Note_on_c, 1, 86, 0
1, 12896, Note_on_c, 1, 84, 71
1, 12928, Note_on_c, 1, 84, 0
1, 12928, Note_on_c, 1, 88, 83
1, 12960, Note_on_c, 1, 88, 0
1, 12960, Note_on_c, 1, 84, 67
1, 12992, Note_on_c, 1, 84, 0
1, 12992, Note_on_c, 1, 79, 66
1, 13024, Note_on_c, 1, 79, 0
1, 13024, Note_on_c, 1, 88, 87
1, 13056, Tempo, 1034482
1, 13056, Note_on_c, 1, 60, 0
1, 13056, Note_on_c, 1, 55, 0
1, 13056, Note_on_c, 1, 52, 0
1, 13056, Note_on_c, 1, 88, 0
1, 13056, Note_on_c, 1, 84, 67
1, 13056, Note_on_c, 1, 53, 65
1, 13056, Note_on_c, 1, 57, 65
1, 13056, Note_on_c, 1, 60, 65
1, 13088, Note_on_c, 1, 84, 0
1, 13088, Note_on_c, 1, 81, 70
1, 13120, Note_on_c, 1, 81, 0
1, 13120, Note_on_c, 1, 89, 89
1, 13160, Note_on_c, 1, 60, 0
1, 13160, Note_on_c, 1, 57, 0
1, 13160, Note_on_c, 1, 53, 0
1, 13280, Note_on_c, 1, 89, 0
1, 13280, Note_on_c, 1, 72, 56
1, 13291, Note_on_c, 1, 72, 0
1, 13291, Note_on_c, 1, 74, 80
1, 13302, Note_on_c, 1, 74, 0
1, 13302, Note_on_c, 1, 76, 84
1, 13312, Note_on_c, 1, 76, 0
1, 13312, Note_on_c, 1, 74, 69
1, 13312, Note_on_c, 0, 55, 69
1, 13344, Note_on_c, 1, 74, 0
1, 13344, Note_on_c, 1, 76, 77
1, 13376, Note_on_c, 1, 76, 0
1, 13376, Note_on_c, 1, 74, 72
1, 13408, Note_on_c, 1, 74, 0
1, 13408, Note_on_c, 1, 76, 76
1, 13440, Note_on_c, 1, 76, 0
1, 13440, Note_on_c, 1, 74, 71
1, 13461, Note_on_c, 1, 74, 0
1, 13461, Note_on_c, 1, 76, 80
1, 13482, Note_on_c, 1, 76, 0
1, 13482, Note_on_c, 1, 74, 68
1, 13504, Note_on_c, 1, 74, 0
1, 13504, Note_on_c, 1, 76, 83
1, 13525, Note_on_c, 1, 76, 0
1, 13525, Note_on_c, 1, 74, 74
1, 13546, Note_on_c, 1, 74, 0
1, 13546, Note_on_c, 1, 76, 79
1, 13568, Note_on_c, 1, 76, 0
1, 13568, Note_on_c, 1, 74, 72
1, 13568, Note_on_c, 1, 59, 68
1, 13568, Note_on_c, 1, 65, 68
1, 13589, Note_on_c, 1, 74, 0
1, 13589, Note_on_c, 1, 76, 81
1, 13610, Note_on_c, 1, 76, 0
1, 13610, Note_on_c, 1, 74, 74
1, 13632, Note_on_c, 1, 74, 0
1, 13632, Note_on_c, 1, 76, 84
1, 13653, Note_on_c, 1, 76, 0
1, 13653, Note_on_c, 1, 74, 72
1, 13674, Note_on_c, 1, 74, 0
1, 13674, Note_on_c, 1, 76, 85
1, 13696, Note_on_c, 1, 76, 0
1, 13696, Note_on_c, 1, 74, 69
1, 13728, Note_on_c, 1, 74, 0
1, 13728, Note_on_c, 1, 76, 78
1, 13760, Note_on_c, 1, 76, 0
1, 13760, Note_on_c, 1, 72, 69
1, 13792, Note_on_c, 1, 72, 0
1, 13792, Note_on_c, 1, 74, 82
1, 13824, Note_on_c, 1, 65, 0
1, 13824, Note_on_c, 1, 59, 0
1, 13824, Note_on_c, 1, 74, 0
1, 13824, Note_on_c, 1, 72, 71
1, 13824, Note_on_c, 1, 64, 56
1, 13824, Note_on_c, 0, 55, 0
1, 13824, Note_on_c, 0, 60, 72
1, 13888, Tempo, 967741
1, 13888, Note_on_c, 1, 64, 0
1, 13888, Note_on_c, 1, 67, 62
1, 13952, Note_on_c, 1, 67, 0
1, 13952, Note_on_c, 1, 64, 55
1, 13952, Note_on_c, 0, 60, 0
1, 13952, Note_on_c, 0, 60, 66
1, 14016, Note_on_c, 1, 64, 0
1, 14016, Note_on_c, 1, 67, 67
1, 14080, Note_on_c, 1, 67, 0
1, 14080, Note_on_c, 1, 72, 0
1, 14080, Note_on_c, 1, 64, 53
1, 14080, Note_on_c, 0, 60, 0
1, 14080, Note_on_c, 0, 60, 64
1, 14112, Note_on_c, 1, 88, 69
1, 14128, Note_on_c, 1, 88, 0
1, 14144, Note_on_c, 1, 64, 0
1, 14144, Note_on_c, 1, 86, 69
1, 14144, Note_on_c, 1, 67, 61
1, 14160, Note_on_c, 1, 86, 0
1, 14176, Note_on_c, 1, 84, 68
1, 14192, Note_on_c, 1, 84, 0
1, 14208, Note_on_c, 1, 67, 0
1, 14208, Note_on_c, 1, 83, 72
1, 14208, Note_on_c, 1, 64, 59
1, 14208, Note_on_c, 0, 60, 0
1, 14208, Note_on_c, 0, 60, 56
1, 14224, Note_on_c, 1, 83, 0
1, 14240, Note_on_c, 1, 81, 70
1, 14256, Note_on_c, 1, 81, 0
1, 14272, Note_on_c, 1, 64, 0
1, 14272, Note_on_c, 1, 79, 71
1, 14272, Note_on_c, 1, 67, 64
1, 14288, Note_on_c, 1, 79, 0
1, 14304, Note_on_c, 1, 77, 69
1, 14320, Note_on_c, 1, 77, 0
1, 14336, Note_on_c, 1, 67, 0
1, 14336, Note_on_c, 1, 76, 71
1, 14336, Note_on_c, 1, 64, 55
1, 14336, Note_on_c, 0, 60, 0
1, 14336, Note_on_c, 0, 60, 56
1, 14400, Note_on_c, 1, 64, 0
1, 14400, Note_on_c, 1, 76, 0
1, 14400, Note_on_c, 1, 74, 73
1, 14400, Note_on_c, 1, 67, 65
1, 14464, Note_on_c, 1, 67, 0
1, 14464, Note_on_c, 1, 74, 0
1, 14464, Note_on_c, 1, 76, 76
1, 14464, Note_on_c, 1, 64, 57
1, 14464, Note_on_c, 0, 60, 0
1, 14464, Note_on_c, 0, 60, 61
1, 14528, Note_on_c, 1, 64, 0
1, 14528, Note_on_c, 1, 76, 0
1, 14528, Note_on_c, 1, 77, 80
1, 14528, Note_on_c, 1, 67, 67
1, 14592, Note_on_c, 1, 67, 0
1, 14592, Note_on_c, 1, 77, 0
1, 14592, Note_on_c, 1, 78, 82
1, 14592, Note_on_c, 1, 62, 55
1, 14592, Note_on_c, 0, 60, 0
1, 14592, Note_on_c, 0, 59, 57
1, 14656, Note_on_c, 1, 62, 0
1, 14656, Note_on_c, 1, 78, 0
1, 14656, Note_on_c, 1, 79, 78
1, 14656, Note_on_c, 1, 67, 70
1, 14720, Note_on_c, 1, 67, 0
1, 14720, Note_on_c, 1, 65, 58
1, 14720, Note_on_c, 0, 59, 0
1, 14720, Note_on_c, 0, 59, 70
1, 14720, Note_on_c, 0, 62, 70
1, 14784, Note_on_c, 1, 65, 0
1, 14784, Note_on_c, 1, 67, 64
1, 14848, Note_on_c, 1, 67, 0
1, 14848, Note_on_c, 1, 79, 0
1, 14848, Note_on_c, 1, 65, 60
1, 14848, Note_on_c, 0, 62, 0
1, 14848, Note_on_c, 0, 59, 0
1, 14848, Note_on_c, 0, 59, 66
1, 14848, Note_on_c, 0, 62, 66
1, 14880, Note_on_c, 1, 89, 64
1, 14896, Note_on_c, 1, 89, 0
1, 14912, Note_on_c, 1, 65, 0
1, 14912, Note_on_c, 1, 88, 71
1, 14912, Note_on_c, 1, 67, 62
1, 14928, Note_on_c, 1, 88, 0
1, 14944, Note_on_c, 1, 86, 68
1, 14960, Note_on_c, 1, 86, 0
1, 14976, Note_on_c, 1, 67, 0
1, 14976, Note_on_c, 1, 84, 75
1, 14976, Note_on_c, 1, 65, 59
1, 14976, Note_on_c, 0, 62, 0
1, 14976, Note_on_c, 0, 59, 0
1, 14976, Note_on_c, 0, 59, 60
1, 14976, Note_on_c, 0, 62, 60
1, 14992, Note_on_c, 1, 84, 0
1, 15008, Note_on_c, 1, 83, 71
1, 15024, Note_on_c, 1, 83, 0
1, 15040, Note_on_c, 1, 65, 0
1, 15040, Note_on_c, 1, 81, 74
1, 15040, Note_on_c, 1, 67, 66
1, 15056, Note_on_c, 1, 81, 0
1, 15072, Note_on_c, 1, 79, 75
1, 15088, Note_on_c, 1, 79, 0
1, 15104, Note_on_c, 1, 67, 0
1, 15104, Note_on_c, 1, 78, 74
1, 15104, Note_on_c, 1, 65, 56
1, 15104, Note_on_c, 0, 62, 0
1, 15104, Note_on_c, 0, 59, 0
1, 15104, Note_on_c, 0, 59, 63
1, 15104, Note_on_c, 0, 62, 63
1, 15168, Note_on_c, 1, 65, 0
1, 15168, Note_on_c, 1, 78, 0
1, 15168, Note_on_c, 1, 79, 78
1, 15168, Note_on_c, 1, 67, 66
1, 15232, Note_on_c, 1, 67, 0
1, 15232, Note_on_c, 1, 79, 0
1, 15232, Note_on_c, 1, 81, 79
1, 15232, Note_on_c, 1, 65, 58
1, 15232, Note_on_c, 0, 62, 0
1, 15232, Note_on_c, 0, 59, 0
1, 15232, Note_on_c, 0, 59, 64
1, 15232, Note_on_c, 0, 62, 64
1, 15296, Note_on_c, 1, 65, 0
1, 15296, Note_on_c, 1, 81, 0
1, 15296, Note_on_c, 1, 77, 70
1, 15296, Note_on_c, 1, 67, 66
1, 15360, Note_on_c, 1, 67, 0
1, 15360, Note_on_c, 1, 77, 0
1, 15360, Note_on_c, 1, 75, 71
1, 15360, Note_on_c, 1, 64, 57
1, 15360, Note_on_c, 0, 62, 0
1, 15360, Note_on_c, 0, 59, 0
1, 15360, Note_on_c, 0, 60, 53
1, 15424, Note_on_c, 1, 64, 0
1, 15424, Note_on_c, 1, 75, 0
1, 15424, Note_on_c, 1, 76, 79
1, 15424, Note_on_c, 1, 67, 66
1, 15488, Note_on_c, 1, 67, 0
1, 15488, Note_on_c, 1, 64, 57
1, 15488, Note_on_c, 0, 60, 0
1, 15488, Note_on_c, 0, 60, 63
1, 15552, Note_on_c, 1, 64, 0
1, 15552, Note_on_c, 1, 67, 66
1, 15616, Note_on_c, 1, 67, 0
1, 15616, Note_on_c, 1, 76, 0
1, 15616, Note_on_c, 1, 52, 60
1, 15616, Note_on_c, 0, 60, 0
1, 15616, Note_on_c, 0, 48, 60
1, 15648, Note_on_c, 1, 76, 68
1, 15648, Note_on_c, 1, 88, 68
1, 15664, Note_on_c, 1, 88, 0
1, 15664, Note_on_c, 1, 76, 0
1, 15680, Note_on_c, 1, 52, 0
1, 15680, Note_on_c, 1, 74, 71
1, 15680, Note_on_c, 1, 86, 71
1, 15680, Note_on_c, 1, 55, 61
1, 15696, Note_on_c, 1, 86, 0
1, 15696, Note_on_c, 1, 74, 0
1, 15712, Note_on_c, 1, 72, 72
1, 15712, Note_on_c, 1, 84, 72
1, 15728, Note_on_c, 1, 84, 0
1, 15728, Note_on_c, 1, 72, 0
1, 15744, Note_on_c, 1, 55, 0
1, 15744, Note_on_c, 1, 71, 67
1, 15744, Note_on_c, 1, 83, 67
1, 15744, Note_on_c, 1, 52, 62
1, 15744, Note_on_c, 0, 48, 0
1, 15744, Note_on_c, 0, 48, 62
1, 15760, Note_on_c, 1, 83, 0
1, 15760, Note_on_c, 1, 71, 0
1, 15776, Note_on_c, 1, 69, 69
1, 15776, Note_on_c, 1, 81, 69
1, 15792, Note_on_c, 1, 81, 0
1, 15792, Note_on_c, 1, 69, 0
1, 15808, Note_on_c, 1, 52, 0
1, 15808, Note_on_c, 1, 67, 68
1, 15808, Note_on_c, 1, 79, 68
1, 15808, Note_on_c, 1, 55, 62
1, 15824, Note_on_c, 1, 79, 0
1, 15824, Note_on_c, 1, 67, 0
1, 15840, Note_on_c, 1, 65, 67
1, 15840, Note_on_c, 1, 77, 67
1, 15856, Note_on_c, 1, 77, 0
1, 15856, Note_on_c, 1, 65, 0
1, 15872, Note_on_c, 1, 55, 0
1, 15872, Note_on_c, 1, 64, 69
1, 15872, Note_on_c, 1, 76, 69
1, 15872, Note_on_c, 1, 52, 63
1, 15872, Note_on_c, 0, 48, 0
1, 15872, Note_on_c, 0, 48, 63
1, 15936, Note_on_c, 1, 52, 0
1, 15936, Note_on_c, 1, 76, 0
1, 15936, Note_on_c, 1, 64, 0
1, 15936, Note_on_c, 1, 62, 70
1, 15936, Note_on_c, 1, 74, 70
1, 15936, Note_on_c, 1, 55, 64
1, 16000, Note_on_c, 1, 55, 0
1, 16000, Note_on_c, 1, 74, 0
1, 16000, Note_on_c, 1, 62, 0
1, 16000, Note_on_c, 1, 64, 84
1, 16000, Note_on_c, 1, 76, 84
1, 16000, Note_on_c, 1, 52, 64
1, 16000, Note_on_c, 0, 48, 0
1, 16000, Note_on_c, 0, 48, 65
1, 16064, Note_on_c, 1, 52, 0
1, 16064, Note_on_c, 1, 76, 0
1, 16064, Note_on_c, 1, 64, 0
1, 16064, Note_on_c, 1, 65, 81
1, 16064, Note_on_c, 1, 77, 81
1, 16064, Note_on_c, 1, 55, 65
1, 16128, Note_on_c, 1, 55, 0
1, 16128, Note_on_c, 1, 77, 0
1, 16128, Note_on_c, 1, 65, 0
1, 16128, Note_on_c, 1, 66, 82
1, 16128, Note_on_c, 1, 78, 82
1, 16128, Note_on_c, 1, 50, 66
1, 16128, Note_on_c, 0, 48, 0
1, 16128, Note_on_c, 0, 47, 66
1, 16192, Note_on_c, 1, 50, 0
1, 16192, Note_on_c, 1, 78, 0
1, 16192, Note_on_c, 1, 66, 0
1, 16192, Note_on_c, 1, 67, 82
1, 16192, Note_on_c, 1, 79, 82
1, 16192, Note_on_c, 1, 55, 66
1, 16256, Note_on_c, 1, 55, 0
1, 16256, Note_on_c, 1, 53, 67
1, 16256, Note_on_c, 0, 47, 0
1, 16256, Note_on_c, 0, 47, 68
1, 16256, Note_on_c, 0, 50, 68
1, 16320, Note_on_c, 1, 53, 0
1, 16320, Note_on_c, 1, 55, 68
1, 16384, Note_on_c, 1, 55, 0
1, 16384, Note_on_c, 1, 79, 0
1, 16384, Note_on_c, 1, 67, 0
1, 16384, Note_on_c, 1, 53, 68
1, 16384, Note_on_c, 0, 50, 0
1, 16384, Note_on_c, 0, 47, 0
1, 16384, Note_on_c, 0, 47, 69
1, 16384, Note_on_c, 0, 50, 69
1, 16416, Note_on_c, 1, 77, 67
1, 16416, Note_on_c, 1, 89, 67
1, 16432, Note_on_c, 1, 89, 0
1, 16432, Note_on_c, 1, 77, 0
1, 16448, Note_on_c, 1, 53, 0
1, 16448, Note_on_c, 1, 76, 71
1, 16448, Note_on_c, 1, 88, 71
1, 16448, Note_on_c, 1, 55, 69
1, 16464, Note_on_c, 1, 88, 0
1, 16464, Note_on_c, 1, 76, 0
1, 16480, Note_on_c, 1, 74, 73
1, 16480, Note_on_c, 1, 86, 73
1, 16496, Note_on_c, 1, 86, 0
1, 16496, Note_on_c, 1, 74, 0
1, 16512, Note_on_c, 1, 55, 0
1, 16512, Note_on_c, 1, 72, 73
1, 16512, Note_on_c, 1, 84, 73
1, 16512, Note_on_c, 1, 53, 70
1, 16512, Note_on_c, 0, 50, 0
1, 16512, Note_on_c, 0, 47, 0
1, 16512, Note_on_c, 0, 47, 70
1, 16512, Note_on_c, 0, 50, 70
1, 16528, Note_on_c, 1, 84, 0
1, 16528, Note_on_c, 1, 72, 0
1, 16544, Note_on_c, 1, 71, 72
1, 16544, Note_on_c, 1, 83, 72
1, 16560, Note_on_c, 1, 83, 0
1, 16560, Note_on_c, 1, 71, 0
1, 16576, Note_on_c, 1, 53, 0
1, 16576, Note_on_c, 1, 69, 69
1, 16576, Note_on_c, 1, 81, 69
1, 16576, Note_on_c, 1, 55, 70
1, 16592, Note_on_c, 1, 81, 0
1, 16592, Note_on_c, 1, 69, 0
1, 16608, Note_on_c, 1, 67, 68
1, 16608, Note_on_c, 1, 79, 68
1, 16624, Note_on_c, 1, 79, 0
1, 16624, Note_on_c, 1, 67, 0
1, 16640, Note_on_c, 1, 55, 0
1, 16640, Note_on_c, 1, 66, 67
1, 16640, Note_on_c, 1, 78, 67
1, 16640, Note_on_c, 1, 53, 71
1, 16640, Note_on_c, 0, 50, 0
1, 16640, Note_on_c, 0, 47, 0
1, 16640, Note_on_c, 0, 47, 72
1, 16640, Note_on_c, 0, 50, 72
1, 16672, Note_on_c, 1, 78, 0
1, 16672, Note_on_c, 1, 66, 0
1, 16704, Note_on_c, 1, 53, 0
1, 16704, Note_on_c, 1, 67, 77
1, 16704, Note_on_c, 1, 79, 77
1, 16704, Note_on_c, 1, 55, 72
1, 16768, Note_on_c, 1, 55, 0
1, 16768, Note_on_c, 1, 79, 0
1, 16768, Note_on_c, 1, 67, 0
1, 16768, Note_on_c, 1, 69, 82
1, 16768, Note_on_c, 1, 81, 82
1, 16768, Note_on_c, 1, 53, 72
1, 16768, Note_on_c, 0, 50, 0
1, 16768, Note_on_c, 0, 47, 0
1, 16768, Note_on_c, 0, 47, 76
1, 16768, Note_on_c, 0, 50, 76
1, 16832, Note_on_c, 1, 53, 0
1, 16832, Note_on_c, 1, 81, 0
1, 16832, Note_on_c, 1, 69, 0
1, 16832, Note_on_c, 1, 65, 72
1, 16832, Note_on_c, 1, 77, 72
1, 16832, Note_on_c, 1, 55, 76
1, 16896, Note_on_c, 1, 55, 0
1, 16896, Note_on_c, 1, 77, 0
1, 16896, Note_on_c, 1, 65, 0
1, 16896, Note_on_c, 1, 64, 76
1, 16896, Note_on_c, 1, 76, 76
1, 16896, Note_on_c, 0, 50, 0
1, 16896, Note_on_c, 0, 47, 0
1, 16896, Note_on_c, 0, 48, 99
1, 16896, Note_on_c, 0, 52, 99
1, 17024, Note_on_c, 1, 76, 0
1, 17024, Note_on_c, 1, 64, 0
1, 17024, Note_on_c, 1, 72, 80
1, 17024, Note_on_c, 1, 84, 80
1, 17136, Note_on_c, 1, 84, 0
1, 17136, Note_on_c, 1, 72, 0
1, 17152, Note_on_c, 1, 57, 84
1, 17152, Note_on_c, 0, 52, 0
1, 17152, Note_on_c, 0, 48, 0
1, 17177, Note_on_c, 1, 57, 0
1, 17177, Note_on_c, 1, 60, 84
1, 17203, Note_on_c, 1, 60, 0
1, 17203, Note_on_c, 1, 63, 85
1, 17228, Note_on_c, 1, 63, 0
1, 17228, Note_on_c, 1, 66, 86
1, 17254, Note_on_c, 1, 66, 0
1, 17254, Note_on_c, 1, 69, 87
1, 17280, Note_on_c, 1, 69, 0
1, 17280, Note_on_c, 1, 72, 87
1, 17312, Note_on_c, 1, 72, 0
1, 17312, Note_on_c, 1, 75, 94
1, 17344, Note_on_c, 1, 75, 0
1, 17344, Note_on_c, 1, 78, 97
1, 17376, Note_on_c, 1, 78, 0
1, 17376, Note_on_c, 1, 81, 97
1, 17408, Note_on_c, 1, 81, 0
1, 17408, Note_on_c, 0, 43, 94
1, 17536, Note_on_c, 1, 59, 49
1, 17536, Note_on_c, 1, 53, 53
1, 17632, Note_on_c, 1, 59, 0
1, 17632, Note_on_c, 1, 59, 60
1, 17648, Note_on_c, 1, 59, 0
1, 17664, Note_on_c, 1, 53, 0
1, 17664, Note_on_c, 1, 62, 92
1, 17664, Note_on_c, 1, 53, 83
1, 17664, Note_on_c, 0, 43, 0
1, 17664, Note_on_c, 0, 48, 61
1, 17920, Note_on_c, 1, 53, 0
1, 17920, Note_on_c, 1, 62, 0
1, 17920, Note_on_c, 1, 60, 61
1, 17920, Note_on_c, 1, 52, 55
1, 18022, Note_on_c, 1, 52, 0
1, 18022, Note_on_c, 1, 60, 0
1, 18150, Note_on_c, 0, 48, 0
1, 18432, Tempo, 1052631
1, 18432, Note_on_c, 0, 39, 57
1, 18496, Note_on_c, 1, 67, 56
1, 18560, Note_on_c, 1, 67, 0
1, 18560, Note_on_c, 1, 69, 60
1, 18624, Note_on_c, 1, 69, 0
1, 18624, Note_on_c, 1, 71, 61
1, 18688, Note_on_c, 1, 71, 0
1, 18688, Note_on_c, 1, 72, 68
1, 18752, Note_on_c, 1, 72, 0
1, 18752, Note_on_c, 1, 74, 67
1, 18816, Note_on_c, 1, 74, 0
1, 18816, Note_on_c, 1, 75, 65
1, 18880, Note_on_c, 1, 75, 0
1, 18880, Note_on_c, 1, 71, 56
1, 18944, Note_on_c, 1, 71, 0
1, 18944, Note_on_c, 1, 72, 65
1, 18944, Note_on_c, 0, 39, 0
1, 18944, Note_on_c, 0, 51, 70
1, 19008, Note_on_c, 1, 72, 0
1, 19008, Note_on_c, 1, 67, 50
1, 19072, Note_on_c, 1, 67, 0
1, 19072, Note_on_c, 1, 84, 74
1, 19136, Note_on_c, 1, 84, 0
1, 19136, Note_on_c, 1, 81, 59
1, 19200, Note_on_c, 1, 81, 0
1, 19200, Note_on_c, 1, 79, 80
1, 19200, Note_on_c, 0, 51, 0
1, 19200, Note_on_c, 0, 50, 62
1, 19264, Note_on_c, 1, 72, 56
1, 19328, Note_on_c, 1, 72, 0
1, 19328, Note_on_c, 1, 74, 61
1, 19392, Note_on_c, 1, 74, 0
1, 19392, Note_on_c, 1, 75, 60
1, 19456, Note_on_c, 1, 75, 0
1, 19456, Note_on_c, 1, 79, 0
1, 19456, Note_on_c, 1, 78, 53
1, 19456, Note_on_c, 1, 74, 59
1, 19520, Note_on_c, 1, 74, 0
1, 19520, Note_on_c, 1, 54, 60
1, 19520, Note_on_c, 1, 72, 60
1, 19560, Note_on_c, 1, 78, 0
1, 19584, Note_on_c, 1, 72, 0
1, 19584, Note_on_c, 1, 54, 0
1, 19584, Note_on_c, 1, 55, 58
1, 19584, Note_on_c, 1, 70, 58
1, 19648, Note_on_c, 1, 70, 0
1, 19648, Note_on_c, 1, 55, 0
1, 19648, Note_on_c, 1, 57, 62
1, 19648, Note_on_c, 1, 69, 62
1, 19712, Note_on_c, 1, 69, 0
1, 19712, Note_on_c, 1, 57, 0
1, 19712, Note_on_c, 1, 79, 63
1, 19712, Note_on_c, 1, 58, 57
1, 19712, Note_on_c, 1, 67, 57
1, 19776, Note_on_c, 1, 79, 0
1, 19776, Note_on_c, 1, 78, 57
1, 19840, Note_on_c, 1, 78, 0
1, 19840, Note_on_c, 1, 79, 64
1, 19904, Note_on_c, 1, 79, 0
1, 19904, Note_on_c, 1, 76, 57
1, 19968, Note_on_c, 1, 67, 0
1, 19968, Note_on_c, 1, 58, 0
1, 19968, Note_on_c, 1, 76, 0
1, 19968, Note_on_c, 1, 74, 51
1, 19968, Note_on_c, 0, 50, 0
1, 19968, Note_on_c, 0, 52, 60
1, 20032, Note_on_c, 1, 58, 60
1, 20032, Note_on_c, 1, 67, 60
1, 20096, Note_on_c, 1, 67, 0
1, 20096, Note_on_c, 1, 58, 0
1, 20096, Note_on_c, 1, 57, 62
1, 20096, Note_on_c, 1, 69, 62
1, 20160, Note_on_c, 1, 69, 0
1, 20160, Note_on_c, 1, 57, 0
1, 20160, Note_on_c, 1, 55, 63
1, 20160, Note_on_c, 1, 70, 63
1, 20224, Note_on_c, 1, 70, 0
1, 20224, Note_on_c, 1, 55, 0
1, 20224, Note_on_c, 1, 74, 0
1, 20224, Note_on_c, 1, 73, 55
1, 20224, Note_on_c, 1, 57, 64
1, 20224, Note_on_c, 1, 69, 64
1, 20288, Note_on_c, 1, 69, 0
1, 20288, Note_on_c, 1, 57, 0
1, 20288, Note_on_c, 1, 58, 66
1, 20288, Note_on_c, 1, 67, 66
1, 20352, Note_on_c, 1, 67, 0
1, 20352, Note_on_c, 1, 58, 0
1, 20352, Note_on_c, 1, 57, 67
1, 20352, Note_on_c, 1, 69, 67
1, 20416, Note_on_c, 1, 69, 0
1, 20416, Note_on_c, 1, 57, 0
1, 20416, Note_on_c, 1, 55, 68
1, 20416, Note_on_c, 1, 70, 68
1, 20480, Note_on_c, 1, 70, 0
1, 20480, Note_on_c, 1, 55, 0
1, 20480, Note_on_c, 1, 57, 69
1, 20480, Note_on_c, 1, 69, 69
1, 20544, Note_on_c, 1, 69, 0
1, 20544, Note_on_c, 1, 57, 0
1, 20544, Note_on_c, 1, 58, 71
1, 20544, Note_on_c, 1, 67, 71
1, 20608, Note_on_c, 1, 67, 0
1, 20608, Note_on_c, 1, 58, 0
1, 20608, Note_on_c, 1, 57, 72
1, 20608, Note_on_c, 1, 69, 72
1, 20672, Note_on_c, 1, 69, 0
1, 20672, Note_on_c, 1, 57, 0
1, 20672, Note_on_c, 1, 73, 0
1, 20672, Note_on_c, 1, 76, 64
1, 20672, Note_on_c, 1, 55, 82
1, 20672, Note_on_c, 1, 70, 82
1, 20736, Note_on_c, 1, 70, 0
1, 20736, Note_on_c, 1, 55, 0
1, 20736, Note_on_c, 1, 76, 0
1, 20736, Note_on_c, 1, 76, 60
1, 20736, Note_on_c, 1, 57, 68
1, 20736, Note_on_c, 0, 52, 0
1, 20736, Note_on_c, 0, 53, 68
1, 20800, Note_on_c, 1, 76, 0
1, 20800, Note_on_c, 1, 74, 56
1, 20864, Note_on_c, 1, 74, 0
1, 20864, Note_on_c, 1, 76, 65
1, 20928, Note_on_c, 1, 76, 0
1, 20928, Note_on_c, 1, 77, 65
1, 20992, Note_on_c, 1, 57, 0
1, 20992, Note_on_c, 1, 77, 0
1, 20992, Note_on_c, 1, 76, 62
1, 20992, Note_on_c, 1, 62, 80
1, 21056, Note_on_c, 1, 76, 0
1, 21056, Note_on_c, 1, 74, 58
1, 21120, Note_on_c, 1, 74, 0
1, 21120, Note_on_c, 1, 76, 63
1, 21184, Note_on_c, 1, 76, 0
1, 21184, Note_on_c, 1, 77, 64
1, 21248, Note_on_c, 1, 77, 0
1, 21248, Note_on_c, 1, 76, 60
1, 21248, Note_on_c, 0, 53, 0
1, 21248, Note_on_c, 0, 54, 77
1, 21312, Note_on_c, 1, 76, 0
1, 21312, Note_on_c, 1, 74, 58
1, 21376, Note_on_c, 1, 74, 0
1, 21376, Note_on_c, 1, 76, 66
1, 21440, Note_on_c, 1, 76, 0
1, 21440, Note_on_c, 1, 72, 55
1, 21504, Note_on_c, 1, 62, 0
1, 21504, Note_on_c, 1, 72, 0
1, 21504, Note_on_c, 1, 72, 58
1, 21504, Note_on_c, 1, 62, 84
1, 21504, Note_on_c, 1, 65, 84
1, 21504, Note_on_c, 0, 54, 0
1, 21504, Note_on_c, 0, 55, 74
1, 21568, Note_on_c, 1, 65, 0
1, 21568, Note_on_c, 1, 62, 0
1, 21568, Note_on_c, 1, 61, 73
1, 21568, Note_on_c, 1, 64, 73
1, 21632, Note_on_c, 1, 64, 0
1, 21632, Note_on_c, 1, 61, 0
1, 21632, Note_on_c, 1, 62, 74
1, 21632, Note_on_c, 1, 65, 74
1, 21696, Note_on_c, 1, 65, 0
1, 21696, Note_on_c, 1, 62, 0
1, 21696, Note_on_c, 1, 64, 76
1, 21696, Note_on_c, 1, 67, 76
1, 21760, Note_on_c, 1, 67, 0
1, 21760, Note_on_c, 1, 64, 0
1, 21760, Note_on_c, 1, 62, 77
1, 21760, Note_on_c, 1, 65, 77
1, 21824, Note_on_c, 1, 65, 0
1, 21824, Note_on_c, 1, 62, 0
1, 21824, Note_on_c, 1, 61, 78
1, 21824, Note_on_c, 1, 64, 78
1, 21888, Note_on_c, 1, 64, 0
1, 21888, Note_on_c, 1, 61, 0
1, 21888, Note_on_c, 1, 62, 80
1, 21888, Note_on_c, 1, 65, 80
1, 21952, Note_on_c, 1, 65, 0
1, 21952, Note_on_c, 1, 62, 0
1, 21952, Note_on_c, 1, 64, 81
1, 21952, Note_on_c, 1, 67, 81
1, 22016, Note_on_c, 1, 67, 0
1, 22016, Note_on_c, 1, 64, 0
1, 22016, Note_on_c, 1, 72, 0
1, 22016, Note_on_c, 1, 71, 59
1, 22016, Note_on_c, 1, 62, 82
1, 22016, Note_on_c, 1, 65, 82
1, 22080, Note_on_c, 1, 65, 0
1, 22080, Note_on_c, 1, 62, 0
1, 22080, Note_on_c, 1, 65, 83
1, 22080, Note_on_c, 1, 69, 83
1, 22144, Note_on_c, 1, 69, 0
1, 22144, Note_on_c, 1, 65, 0
1, 22144, Note_on_c, 1, 64, 85
1, 22144, Note_on_c, 1, 67, 85
1, 22208, Note_on_c, 1, 67, 0
1, 22208, Note_on_c, 1, 64, 0
1, 22208, Note_on_c, 1, 62, 76
1, 22208, Note_on_c, 1, 65, 76
1, 22272, Tempo, 1034482
1, 22272, Note_on_c, 1, 65, 0
1, 22272, Note_on_c, 1, 62, 0
1, 22272, Note_on_c, 1, 71, 0
1, 22272, Note_on_c, 1, 70, 60
1, 22272, Note_on_c, 0, 55, 0
1, 22272, Note_on_c, 0, 60, 97
1, 22272, Note_on_c, 0, 64, 97
1, 22336, Note_on_c, 1, 70, 0
1, 22336, Note_on_c, 1, 69, 63
1, 22400, Note_on_c, 1, 69, 0
1, 22400, Note_on_c, 1, 70, 66
1, 22464, Note_on_c, 1, 70, 0
1, 22464, Note_on_c, 1, 72, 68
1, 22528, Tempo, 1016949
1, 22528, Note_on_c, 1, 72, 0
1, 22528, Note_on_c, 1, 70, 71
1, 22528, Note_on_c, 0, 64, 0
1, 22528, Note_on_c, 0, 60, 0
1, 22528, Note_on_c, 0, 61, 72
1, 22528, Note_on_c, 0, 65, 72
1, 22592, Note_on_c, 1, 70, 0
1, 22592, Note_on_c, 1, 69, 70
1, 22656, Note_on_c, 1, 69, 0
1, 22656, Note_on_c, 1, 70, 73
1, 22720, Note_on_c, 1, 70, 0
1, 22720, Note_on_c, 1, 72, 76
1, 22784, Tempo, 1000000
1, 22784, Note_on_c, 1, 72, 0
1, 22784, Note_on_c, 1, 70, 78
1, 22848, Note_on_c, 1, 70, 0
1, 22848, Note_on_c, 1, 69, 81
1, 22912, Note_on_c, 1, 69, 0
1, 22912, Note_on_c, 1, 70, 83
1, 22976, Note_on_c, 1, 70, 0
1, 22976, Note_on_c, 1, 72, 93
1, 23040, Note_on_c, 1, 72, 0
1, 23040, Note_on_c, 1, 70, 86
1, 23040, Note_on_c, 0, 65, 0
1, 23040, Note_on_c, 0, 61, 0
1, 23040, Note_on_c, 0, 62, 77
1, 23040, Note_on_c, 0, 65, 77
1, 23104, Note_on_c, 1, 70, 0
1, 23104, Note_on_c, 1, 69, 88
1, 23168, Note_on_c, 1, 69, 0
1, 23168, Note_on_c, 1, 70, 91
1, 23232, Note_on_c, 1, 70, 0
1, 23232, Note_on_c, 1, 72, 93
1, 23296, Tempo, 983606
1, 23296, Note_on_c, 1, 72, 0
1, 23296, Note_on_c, 1, 70, 96
1, 23296, Note_on_c, 0, 65, 0
1, 23296, Note_on_c, 0, 62, 0
1, 23296, Note_on_c, 0, 63, 73
1, 23296, Note_on_c, 0, 66, 73
1, 23360, Note_on_c, 1, 70, 0
1, 23360, Note_on_c, 1, 69, 88
1, 23424, Note_on_c, 1, 69, 0
1, 23424, Note_on_c, 1, 70, 99
1, 23488, Note_on_c, 1, 70, 0
1, 23488, Note_on_c, 1, 72, 101
1, 23552, Tempo, 967741
1, 23552, Note_on_c, 1, 72, 0
1, 23552, Note_on_c, 1, 70, 104
1, 23616, Note_on_c, 1, 70, 0
1, 23616, Note_on_c, 1, 69, 106
1, 23680, Note_on_c, 1, 69, 0
1, 23680, Note_on_c, 1, 70, 109
1, 23744, Note_on_c, 1, 70, 0
1, 23744, Note_on_c, 1, 72, 120
1, 23808, Note_on_c, 1, 72, 0
1, 23808, Note_on_c, 1, 70, 102
1, 23808, Note_on_c, 0, 66, 0
1, 23808, Note_on_c, 0, 63, 0
1, 23808, Note_on_c, 0, 64, 76
1, 23808, Note_on_c, 0, 67, 76
1, 23840, Note_on_c, 1, 70, 0
1, 23840, Note_on_c, 1, 69, 107
1, 23872, Note_on_c, 1, 69, 0
1, 23872, Note_on_c, 1, 70, 114
1, 23904, Note_on_c, 1, 70, 0
1, 23904, Note_on_c, 1, 72, 116
1, 23936, Note_on_c, 1, 72, 0
1, 23936, Note_on_c, 1, 70, 103
1, 23968, Note_on_c, 1, 70, 0
1, 23968, Note_on_c, 1, 69, 105
1, 24000, Note_on_c, 1, 69, 0
1, 24000, Note_on_c, 1, 70, 121
1, 24032, Note_on_c, 1, 70, 0
1, 24032, Note_on_c, 1, 72, 115
1, 24064, Note_on_c, 1, 72, 0
1, 24064, Note_on_c, 1, 70, 107
1, 24096, Note_on_c, 1, 70, 0
1, 24096, Note_on_c, 1, 74, 123
1, 24128, Note_on_c, 1, 74, 0
1, 24128, Note_on_c, 1, 72, 102
1, 24160, Note_on_c, 1, 72, 0
1, 24160, Note_on_c, 1, 77, 124
1, 24192, Note_on_c, 1, 77, 0
1, 24192, Note_on_c, 1, 76, 108
1, 24224, Note_on_c, 1, 76, 0
1, 24224, Note_on_c, 1, 79, 121
1, 24256, Note_on_c, 1, 79, 0
1, 24256, Note_on_c, 1, 77, 105
1, 24288, Note_on_c, 1, 77, 0
1, 24288, Note_on_c, 1, 81, 117
1, 24320, Note_on_c, 1, 81, 0
1, 24320, Note_on_c, 1, 79, 107
1, 24352, Note_on_c, 1, 79, 0
1, 24352, Note_on_c, 1, 82, 119
1, 24384, Note_on_c, 1, 82, 0
1, 24384, Note_on_c, 1, 86, 126
1, 24416, Note_on_c, 1, 86, 0
1, 24416, Note_on_c, 1, 84, 109
1, 24448, Note_on_c, 1, 84, 0
1, 24448, Note_on_c, 1, 82, 106
1, 24480, Note_on_c, 1, 82, 0
1, 24480, Note_on_c, 1, 81, 106
1, 24512, Note_on_c, 1, 81, 0
1, 24512, Note_on_c, 1, 79, 106
1, 24544, Note_on_c, 1, 79, 0
1, 24544, Note_on_c, 1, 77, 103
1, 24576, Note_on_c, 1, 77, 0
1, 24576, Note_on_c, 1, 76, 106
1, 24576, Note_on_c, 0, 67, 0
1, 24576, Note_on_c, 0, 64, 0
1, 24608, Note_on_c, 1, 76, 0
1, 24608, Note_on_c, 1, 84, 127
1, 24640, Note_on_c, 1, 84, 0
1, 24640, Note_on_c, 1, 82, 108
1, 24672, Note_on_c, 1, 82, 0
1, 24672, Note_on_c, 1, 79, 104
1, 24704, Note_on_c, 1, 79, 0
1, 24704, Note_on_c, 1, 76, 97
1, 24736, Note_on_c, 1, 76, 0
1, 24736, Note_on_c, 1, 72, 98
1, 24768, Note_on_c, 1, 72, 0
1, 24768, Note_on_c, 1, 70, 102
1, 24800, Note_on_c, 1, 70, 0
1, 24800, Note_on_c, 1, 67, 99
1, 24832, Note_on_c, 1, 67, 0
1, 24832, Note_on_c, 1, 64, 95
1, 24864, Note_on_c, 1, 64, 0
1, 24864, Note_on_c, 1, 60, 98
1, 24896, Note_on_c, 1, 60, 0
1, 24896, Note_on_c, 1, 58, 108
1, 24928, Note_on_c, 1, 58, 0
1, 24928, Note_on_c, 1, 55, 107
1, 24960, Note_on_c, 1, 55, 0
1, 24960, Note_on_c, 1, 52, 106
1, 24992, Note_on_c, 1, 52, 0
1, 24992, Note_on_c, 1, 48, 105
1, 25024, Note_on_c, 1, 48, 0
1, 25024, Note_on_c, 1, 52, 118
1, 25056, Note_on_c, 1, 52, 0
1, 25056, Note_on_c, 1, 55, 116
1, 25088, Note_on_c, 1, 55, 0
1, 25088, Note_on_c, 1, 58, 117
1, 25109, Note_on_c, 1, 58, 0
1, 25109, Note_on_c, 1, 60, 118
1, 25130, Note_on_c, 1, 60, 0
1, 25130, Note_on_c, 1, 61, 111
1, 25152, Note_on_c, 1, 61, 0
1, 25152, Note_on_c, 1, 62, 113
1, 25173, Note_on_c, 1, 62, 0
1, 25173, Note_on_c, 1, 63, 115
1, 25194, Note_on_c, 1, 63, 0
1, 25194, Note_on_c, 1, 64, 121
1, 25216, Note_on_c, 1, 64, 0
1, 25216, Note_on_c, 1, 65, 121
1, 25237, Note_on_c, 1, 65, 0
1, 25237, Note_on_c, 1, 66, 116
1, 25258, Note_on_c, 1, 66, 0
1, 25258, Note_on_c, 1, 67, 117
1, 25280, Note_on_c, 1, 67, 0
1, 25280, Note_on_c, 1, 68, 120
1, 25312, Note_on_c, 1, 68, 0
1, 25312, Note_on_c, 1, 69, 117
1, 25344, Tempo, 1016949
1, 25344, Note_on_c, 1, 69, 0
1, 25344, Note_on_c, 1, 70, 111
1, 25472, Note_on_c, 1, 70, 0
1, 25472, Note_on_c, 1, 67, 105
1, 25600, Note_on_c, 1, 67, 0
1, 25600, Note_on_c, 1, 64, 91
1, 25600, Note_on_c, 0, 55, 42
1, 25600, Note_on_c, 0, 58, 42
1, 25600, Note_on_c, 0, 60, 42
1, 26062, Note_on_c, 1, 64, 0
1, 26087, Note_on_c, 1, 57, 90
1, 26100, Note_on_c, 1, 57, 0
1, 26100, Note_on_c, 1, 60, 106
1, 26112, Note_on_c, 1, 60, 0
1, 26112, Note_on_c, 1, 65, 127
1, 26112, Note_on_c, 0, 60, 0
1, 26112, Note_on_c, 0, 58, 0
1, 26112, Note_on_c, 0, 55, 0
1, 26112, Note_on_c, 0, 41, 64
1, 26132, Note_on_c, 0, 45, 64
1, 26152, Note_on_c, 0, 48, 64
1, 26172, Note_on_c, 0, 53, 64
1, 26368, Note_on_c, 0, 53, 0
1, 26368, Note_on_c, 0, 48, 0
1, 26368, Note_on_c, 0, 45, 0
1, 26368, Note_on_c, 0, 41, 0
1, 26368, Note_on_c, 0, 53, 44
1, 26368, Note_on_c, 0, 57, 44
1, 26400, Note_on_c, 1, 65, 0
1, 26400, Note_on_c, 1, 60, 82
1, 26432, Note_on_c, 1, 60, 0
1, 26432, Note_on_c, 1, 65, 109
1, 26464, Note_on_c, 1, 65, 0
1, 26464, Note_on_c, 1, 69, 111
1, 26496, Note_on_c, 1, 69, 0
1, 26496, Note_on_c, 1, 72, 111
1, 26592, Note_on_c, 1, 72, 0
1, 26592, Note_on_c, 1, 69, 93
1, 26624, Note_on_c, 1, 69, 0
1, 26624, Note_on_c, 1, 72, 106
1, 26624, Note_on_c, 0, 57, 0
1, 26624, Note_on_c, 0, 53, 0
1, 26624, Note_on_c, 0, 53, 47
1, 26624, Note_on_c, 0, 58, 47
1, 26624, Note_on_c, 0, 64, 47
1, 26688, Note_on_c, 1, 72, 0
1, 26688, Note_on_c, 1, 70, 91
1, 26752, Note_on_c, 1, 70, 0
1, 26752, Note_on_c, 1, 67, 90
1, 26816, Note_on_c, 1, 67, 0
1, 26816, Note_on_c, 1, 64, 91
1, 26880, Note_on_c, 1, 64, 0
1, 26880, Note_on_c, 1, 65, 108
1, 26880, Note_on_c, 0, 64, 0
1, 26880, Note_on_c, 0, 58, 0
1, 26880, Note_on_c, 0, 53, 0
1, 26880, Note_on_c, 0, 53, 39
1, 26880, Note_on_c, 0, 57, 39
1, 26936, Note_on_c, 1, 65, 0
1, 26944, Note_on_c, 1, 67, 103
1, 26965, Note_on_c, 1, 67, 0
1, 26965, Note_on_c, 1, 65, 95
1, 26986, Note_on_c, 1, 65, 0
1, 26986, Note_on_c, 1, 64, 96
1, 27008, Tempo, 1111111
1, 27008, Note_on_c, 1, 64, 0
1, 27008, Note_on_c, 1, 65, 99
1, 27104, Note_on_c, 1, 65, 0
1, 27104, Note_on_c, 1, 69, 108
1, 27136, Note_on_c, 1, 69, 0
1, 27136, Note_on_c, 1, 60, 79
1, 27136, Note_on_c, 0, 57, 0
1, 27136, Note_on_c, 0, 53, 0
1, 27264, Note_on_c, 1, 60, 0
1, 27392, Tempo, 1016949
1, 27392, Note_on_c, 1, 53, 89
1, 27424, Note_on_c, 1, 53, 0
1, 27424, Note_on_c, 1, 55, 101
1, 27440, Note_on_c, 1, 55, 0
1, 27440, Note_on_c, 1, 57, 107
1, 27456, Note_on_c, 1, 57, 0
1, 27456, Note_on_c, 1, 58, 101
1, 27472, Note_on_c, 1, 58, 0
1, 27472, Note_on_c, 1, 60, 107
1, 27488, Note_on_c, 1, 60, 0
1, 27488, Note_on_c, 1, 62, 104
1, 27504, Note_on_c, 1, 62, 0
1, 27504, Note_on_c, 1, 64, 107
1, 27520, Note_on_c, 1, 64, 0
1, 27520, Note_on_c, 1, 65, 103
1, 27536, Note_on_c, 1, 65, 0
1, 27536, Note_on_c, 1, 67, 106
1, 27552, Note_on_c, 1, 67, 0
1, 27552, Note_on_c, 1, 69, 105
1, 27568, Note_on_c, 1, 69, 0
1, 27568, Note_on_c, 1, 70, 110
1, 27584, Note_on_c, 1, 70, 0
1, 27584, Note_on_c, 1, 72, 103
1, 27600, Note_on_c, 1, 72, 0
1, 27600, Note_on_c, 1, 74, 106
1, 27616, Note_on_c, 1, 74, 0
1, 27616, Note_on_c, 1, 76, 97
1, 27627, Note_on_c, 1, 76, 0
1, 27627, Note_on_c, 1, 77, 104
1, 27637, Note_on_c, 1, 77, 0
1, 27637, Note_on_c, 1, 79, 101
1, 27648, Note_on_c, 1, 79, 0
1, 27648, Note_on_c, 1, 77, 118
1, 27648, Note_on_c, 0, 58, 66
1, 27648, Note_on_c, 0, 62, 66
1, 27712, Note_on_c, 0, 62, 0
1, 27712, Note_on_c, 0, 58, 0
1, 27904, Note_on_c, 1, 70, 115
1, 27904, Note_on_c, 1, 74, 115
1, 27936, Note_on_c, 1, 77, 0
1, 27936, Note_on_c, 1, 76, 91
1, 27968, Note_on_c, 1, 74, 0
1, 27968, Note_on_c, 1, 70, 0
1, 27968, Note_on_c, 1, 76, 0
1, 27968, Note_on_c, 1, 79, 107
1, 28000, Note_on_c, 1, 79, 0
1, 28000, Note_on_c, 1, 77, 93
1, 28032, Note_on_c, 1, 77, 0
1, 28032, Note_on_c, 1, 76, 92
1, 28064, Note_on_c, 1, 76, 0
1, 28064, Note_on_c, 1, 74, 89
1, 28096, Note_on_c, 1, 74, 0
1, 28096, Note_on_c, 1, 79, 109
1, 28128, Note_on_c, 1, 79, 0
1, 28128, Note_on_c, 1, 77, 96
1, 28160, Note_on_c, 1, 77, 0
1, 28160, Note_on_c, 1, 76, 94
1, 28192, Note_on_c, 1, 76, 0
1, 28192, Note_on_c, 1, 74, 94
1, 28224, Note_on_c, 1, 74, 0
1, 28224, Note_on_c, 1, 79, 111
1, 28256, Note_on_c, 1, 79, 0
1, 28256, Note_on_c, 1, 77, 97
1, 28288, Note_on_c, 1, 77, 0
1, 28288, Note_on_c, 1, 76, 94
1, 28320, Note_on_c, 1, 76, 0
1, 28320, Note_on_c, 1, 74, 89
1, 28352, Note_on_c, 1, 74, 0
1, 28352, Note_on_c, 1, 72, 94
1, 28384, Note_on_c, 1, 72, 0
1, 28384, Note_on_c, 1, 70, 95
1, 28416, Note_on_c, 1, 70, 0
1, 28416, Note_on_c, 1, 69, 88
1, 28416, Note_on_c, 1, 60, 84
1, 28416, Note_on_c, 1, 65, 84
1, 28448, Note_on_c, 1, 69, 0
1, 28448, Note_on_c, 1, 81, 127
1, 28480, Note_on_c, 1, 81, 0
1, 28480, Note_on_c, 1, 70, 77
1, 28512, Note_on_c, 1, 70, 0
1, 28512, Note_on_c, 1, 82, 121
1, 28544, Note_on_c, 1, 82, 0
1, 28544, Note_on_c, 1, 71, 78
1, 28576, Note_on_c, 1, 71, 0
1, 28576, Note_on_c, 1, 83, 120
1, 28608, Note_on_c, 1, 83, 0
1, 28608, Note_on_c, 1, 72, 76
1, 28640, Note_on_c, 1, 72, 0
1, 28640, Note_on_c, 1, 84, 120
1, 28672, Note_on_c, 1, 65, 0
1, 28672, Note_on_c, 1, 60, 0
1, 28672, Note_on_c, 1, 84, 0
1, 28672, Note_on_c, 1, 67, 77
1, 28672, Note_on_c, 1, 60, 93
1, 28672, Note_on_c, 1, 64, 93
1, 28723, Note_on_c, 1, 64, 0
1, 28723, Note_on_c, 1, 60, 0
1, 28800, Note_on_c, 1, 67, 0
1, 28864, Note_on_c, 0, 48, 41
1, 28896, Note_on_c, 0, 48, 0
1, 28896, Note_on_c, 0, 36, 37
1, 28928, Note_on_c, 0, 36, 0
1, 28928, Note_on_c, 0, 47, 47
1, 28960, Note_on_c, 0, 47, 0
1, 28960, Note_on_c, 0, 35, 39
1, 28992, Note_on_c, 0, 35, 0
1, 28992, Note_on_c, 0, 46, 49
1, 29024, Note_on_c, 0, 46, 0
1, 29024, Note_on_c, 0, 34, 36
1, 29056, Note_on_c, 0, 34, 0
1, 29056, Note_on_c, 0, 45, 47
1, 29088, Note_on_c, 0, 45, 0
1, 29088, Note_on_c, 0, 33, 40
1, 29120, Note_on_c, 0, 33, 0
1, 29120, Note_on_c, 0, 43, 43
1, 29152, Note_on_c, 0, 43, 0
1, 29152, Note_on_c, 0, 31, 39
1, 29159, Note_on_c, 1, 57, 88
1, 29172, Note_on_c, 1, 57, 0
1, 29172, Note_on_c, 1, 60, 105
1, 29184, Note_on_c, 1, 60, 0
1, 29184, Note_on_c, 1, 65, 114
1, 29184, Note_on_c, 0, 31, 0
1, 29184, Note_on_c, 0, 29, 44
1, 29184, Note_on_c, 0, 41, 44
1, 29440, Note_on_c, 0, 41, 0
1, 29440, Note_on_c, 0, 29, 0
1, 29440, Note_on_c, 0, 53, 50
1, 29440, Note_on_c, 0, 57, 50
1, 29472, Note_on_c, 1, 65, 0
1, 29472, Note_on_c, 1, 60, 85
1, 29504, Note_on_c, 1, 60, 0
1, 29504, Note_on_c, 1, 65, 109
1, 29536, Note_on_c, 1, 65, 0
1, 29536, Note_on_c, 1, 69, 109
1, 29568, Note_on_c, 1, 69, 0
1, 29568, Note_on_c, 1, 72, 112
1, 29600, Note_on_c, 1, 72, 0
1, 29600, Note_on_c, 1, 69, 90
1, 29632, Note_on_c, 1, 69, 0
1, 29632, Note_on_c, 1, 77, 117
1, 29664, Note_on_c, 1, 77, 0
1, 29664, Note_on_c, 1, 69, 84
1, 29696, Note_on_c, 1, 69, 0
1, 29696, Note_on_c, 1, 72, 106
1, 29696, Note_on_c, 0, 57, 0
1, 29696, Note_on_c, 0, 53, 0
1, 29696, Note_on_c, 0, 53, 52
1, 29696, Note_on_c, 0, 58, 52
1, 29696, Note_on_c, 0, 64, 52
1, 29728, Note_on_c, 1, 72, 0
1, 29728, Note_on_c, 1, 71, 92
1, 29760, Note_on_c, 1, 71, 0
1, 29760, Note_on_c, 1, 74, 103
1, 29792, Note_on_c, 1, 74, 0
1, 29792, Note_on_c, 1, 72, 90
1, 29824, Note_on_c, 1, 72, 0
1, 29824, Note_on_c, 1, 70, 96
1, 29856, Note_on_c, 1, 70, 0
1, 29856, Note_on_c, 1, 69, 94
1, 29888, Note_on_c, 1, 69, 0
1, 29888, Note_on_c, 1, 70, 107
1, 29920, Note_on_c, 1, 70, 0
1, 29920, Note_on_c, 1, 67, 88
1, 29952, Note_on_c, 1, 67, 0
1, 29952, Note_on_c, 1, 65, 98
1, 29952, Note_on_c, 0, 64, 0
1, 29952, Note_on_c, 0, 58, 0
1, 29952, Note_on_c, 0, 53, 0
1, 29952, Note_on_c, 0, 53, 39
1, 29952, Note_on_c, 0, 57, 39
1, 29952, Note_on_c, 0, 60, 39
1, 30008, Note_on_c, 1, 65, 0
1, 30016, Note_on_c, 1, 67, 105
1, 30037, Note_on_c, 1, 67, 0
1, 30037, Note_on_c, 1, 65, 90
1, 30058, Note_on_c, 1, 65, 0
1, 30058, Note_on_c, 1, 64, 99
1, 30080, Note_on_c, 1, 64, 0
1, 30080, Note_on_c, 1, 65, 100
1, 30176, Note_on_c, 1, 65, 0
1, 30176, Note_on_c, 1, 69, 112
1, 30208, Note_on_c, 1, 69, 0
1, 30208, Note_on_c, 1, 61, 84
1, 30208, Note_on_c, 0, 60, 0
1, 30208, Note_on_c, 0, 57, 0
1, 30208, Note_on_c, 0, 53, 0
1, 30208, Note_on_c, 0, 33, 40
1, 30208, Note_on_c, 0, 45, 40
1, 30400, Note_on_c, 1, 61, 0
1, 30400, Note_on_c, 1, 61, 95
1, 30432, Note_on_c, 1, 61, 0
1, 30432, Note_on_c, 1, 61, 99
1, 30464, Note_on_c, 1, 61, 0
1, 30464, Note_on_c, 1, 61, 97
1, 30528, Note_on_c, 1, 61, 0
1, 30528, Note_on_c, 1, 61, 102
1, 30560, Note_on_c, 1, 61, 0
1, 30560, Note_on_c, 1, 61, 101
1, 30592, Note_on_c, 1, 61, 0
1, 30592, Note_on_c, 1, 61, 98
1, 30688, Note_on_c, 1, 61, 0
1, 30688, Note_on_c, 1, 61, 98
1, 30720, Note_on_c, 1, 61, 0
1, 30720, Note_on_c, 1, 62, 103
1, 30720, Note_on_c, 0, 45, 0
1, 30720, Note_on_c, 0, 33, 0
1, 30720, Note_on_c, 0, 34, 42
1, 30720, Note_on_c, 0, 46, 42
1, 30856, Note_on_c, 1, 62, 0
1, 30856, Note_on_c, 1, 64, 107
1, 30864, Note_on_c, 1, 64, 0
1, 30864, Note_on_c, 1, 66, 109
1, 30872, Note_on_c, 1, 66, 0
1, 30872, Note_on_c, 1, 67, 106
1, 30880, Note_on_c, 1, 67, 0
1, 30880, Note_on_c, 1, 69, 109
1, 30888, Note_on_c, 1, 69, 0
1, 30888, Note_on_c, 1, 70, 103
1, 30896, Note_on_c, 1, 70, 0
1, 30896, Note_on_c, 1, 72, 98
1, 30904, Note_on_c, 1, 72, 0
1, 30904, Note_on_c, 1, 74, 106
1, 30912, Note_on_c, 1, 74, 0
1, 30912, Note_on_c, 1, 76, 109
1, 30920, Note_on_c, 1, 76, 0
1, 30920, Note_on_c, 1, 78, 111
1, 30928, Note_on_c, 1, 78, 0
1, 30928, Note_on_c, 1, 79, 100
1, 30936, Note_on_c, 1, 79, 0
1, 30936, Note_on_c, 1, 81, 107
1, 30944, Note_on_c, 1, 81, 0
1, 30944, Note_on_c, 1, 82, 100
1, 30952, Note_on_c, 1, 82, 0
1, 30952, Note_on_c, 1, 83, 103
1, 30960, Note_on_c, 1, 83, 0
1, 30960, Note_on_c, 1, 84, 104
1, 30968, Note_on_c, 1, 84, 0
1, 30968, Note_on_c, 1, 85, 107
1, 30976, Note_on_c, 1, 85, 0
1, 30976, Note_on_c, 1, 86, 108
1, 31104, Note_on_c, 1, 86, 0
1, 31232, Note_on_c, 0, 46, 0
1, 31232, Note_on_c, 0, 34, 0
1, 31232, Note_on_c, 0, 48, 49
1, 31232, Note_on_c, 0, 58, 49
1, 31284, Note_on_c, 1, 72, 88
1, 31296, Note_on_c, 1, 72, 0
1, 31296, Note_on_c, 1, 70, 92
1, 31349, Note_on_c, 1, 70, 0
1, 31349, Note_on_c, 1, 69, 93
1, 31360, Note_on_c, 1, 69, 0
1, 31360, Note_on_c, 1, 67, 89
1, 31413, Note_on_c, 1, 67, 0
1, 31413, Note_on_c, 1, 65, 91
1, 31424, Note_on_c, 1, 65, 0
1, 31424, Note_on_c, 1, 64, 95
1, 31488, Note_on_c, 1, 64, 0
1, 31488, Note_on_c, 1, 67, 102
1, 31488, Note_on_c, 0, 58, 0
1, 31488, Note_on_c, 0, 48, 0
1, 31488, Note_on_c, 0, 53, 42
1, 31488, Note_on_c, 0, 58, 42
1, 31744, Note_on_c, 1, 67, 0
1, 31744, Note_on_c, 1, 65, 91
1, 31744, Note_on_c, 0, 58, 0
1, 31744, Note_on_c, 0, 53, 0
1, 31744, Note_on_c, 0, 53, 43
1, 31744, Note_on_c, 0, 57, 43
1, 31795, Note_on_c, 1, 65, 0
1, 31795, Note_on_c, 0, 57, 0
1, 31795, Note_on_c, 0, 53, 0
1, 31872, Tempo, 1000000
1, 31936, Note_on_c, 1, 60, 87
1, 32000, Note_on_c, 1, 60, 0
1, 32000, Note_on_c, 1, 62, 103
1, 32064, Note_on_c, 1, 62, 0
1, 32064, Note_on_c, 1, 64, 106
1, 32128, Note_on_c, 1, 64, 0
1, 32128, Note_on_c, 1, 65, 107
1, 32192, Note_on_c, 1, 65, 0
1, 32192, Note_on_c, 1, 67, 107
1, 32256, Note_on_c, 1, 67, 0
1, 32256, Note_on_c, 1, 68, 99
1, 32320, Note_on_c, 0, 41, 42
1, 32352, Note_on_c, 0, 41, 0
1, 32384, Note_on_c, 0, 43, 43
1, 32416, Note_on_c, 0, 43, 0
1, 32448, Note_on_c, 0, 44, 41
1, 32480, Note_on_c, 0, 44, 0
1, 32512, Note_on_c, 1, 68, 0
1, 32512, Note_on_c, 1, 67, 93
1, 32512, Note_on_c, 0, 46, 48
1, 32544, Note_on_c, 0, 46, 0
1, 32576, Note_on_c, 0, 48, 47
1, 32608, Note_on_c, 0, 48, 0
1, 32640, Note_on_c, 1, 67, 0
1, 32640, Note_on_c, 1, 65, 91
1, 32640, Note_on_c, 0, 49, 47
1, 32672, Note_on_c, 0, 49, 0
1, 32704, Note_on_c, 0, 47, 43
1, 32736, Note_on_c, 0, 47, 0
1, 32768, Note_on_c, 1, 65, 0
1, 32768, Note_on_c, 1, 64, 91
1, 32768, Note_on_c, 0, 48, 45
1, 32800, Note_on_c, 0, 48, 0
1, 32832, Note_on_c, 0, 61, 49
1, 32864, Note_on_c, 0, 61, 0
1, 32896, Note_on_c, 1, 64, 0
1, 32896, Note_on_c, 1, 67, 106
1, 32896, Note_on_c, 0, 60, 39
1, 32928, Note_on_c, 0, 60, 0
1, 32960, Note_on_c, 0, 58, 39
1, 32992, Note_on_c, 0, 58, 0
1, 33024, Note_on_c, 1, 67, 0
1, 33024, Note_on_c, 1, 68, 99
1, 33024, Note_on_c, 1, 72, 99
1, 33088, Note_on_c, 0, 41, 43
1, 33152, Note_on_c, 0, 41, 0
1, 33152, Note_on_c, 0, 43, 44
1, 33216, Note_on_c, 0, 43, 0
1, 33216, Note_on_c, 0, 45, 46
1, 33280, Note_on_c, 1, 72, 0
1, 33280, Note_on_c, 1, 68, 0
1, 33280, Note_on_c, 1, 67, 105
1, 33280, Note_on_c, 1, 70, 105
1, 33280, Note_on_c, 0, 45, 0
1, 33280, Note_on_c, 0, 46, 47
1, 33344, Note_on_c, 0, 46, 0
1, 33344, Note_on_c, 0, 48, 48
1, 33408, Note_on_c, 1, 70, 0
1, 33408, Note_on_c, 1, 67, 0
1, 33408, Note_on_c, 1, 65, 108
1, 33408, Note_on_c, 1, 68, 108
1, 33408, Note_on_c, 0, 48, 0
1, 33408, Note_on_c, 0, 49, 50
1, 33472, Note_on_c, 0, 49, 0
1, 33472, Note_on_c, 0, 47, 51
1, 33536, Note_on_c, 1, 68, 0
1, 33536, Note_on_c, 1, 65, 0
1, 33536, Note_on_c, 1, 64, 104
1, 33536, Note_on_c, 1, 67, 104
1, 33536, Note_on_c, 0, 47, 0
1, 33536, Note_on_c, 0, 48, 53
1, 33587, Note_on_c, 0, 48, 0
1, 33600, Note_on_c, 0, 61, 54
1, 33664, Note_on_c, 1, 67, 0
1, 33664, Note_on_c, 1, 64, 0
1, 33664, Note_on_c, 1, 67, 127
1, 33664, Note_on_c, 1, 76, 127
1, 33664, Note_on_c, 0, 61, 0
1, 33664, Note_on_c, 0, 60, 57
1, 33728, Note_on_c, 0, 60, 0
1, 33728, Note_on_c, 0, 58, 54
1, 33760, Note_on_c, 0, 58, 0
1, 33792, Note_on_c, 1, 76, 0
1, 33792, Note_on_c, 1, 67, 0
1, 33792, Note_on_c, 1, 77, 122
1, 33792, Note_on_c, 0, 56, 56
1, 33792, Note_on_c, 0, 60, 56
1, 33856, Note_on_c, 1, 77, 0
1, 33856, Note_on_c, 1, 84, 127
1, 33920, Note_on_c, 1, 84, 0
1, 33920, Note_on_c, 1, 82, 106
1, 33984, Note_on_c, 1, 82, 0
1, 33984, Note_on_c, 1, 80, 109
1, 34048, Note_on_c, 1, 80, 0
1, 34048, Note_on_c, 1, 79, 107
1, 34048, Note_on_c, 0, 60, 0
1, 34048, Note_on_c, 0, 56, 0
1, 34048, Note_on_c, 0, 58, 62
1, 34048, Note_on_c, 0, 61, 62
1, 34112, Note_on_c, 1, 79, 0
1, 34112, Note_on_c, 1, 85, 127
1, 34176, Note_on_c, 1, 85, 0
1, 34176, Note_on_c, 1, 84, 110
1, 34240, Note_on_c, 1, 84, 0
1, 34240, Note_on_c, 1, 82, 103
1, 34304, Note_on_c, 1, 82, 0
1, 34304, Note_on_c, 1, 80, 102
1, 34368, Note_on_c, 1, 80, 0
1, 34368, Note_on_c, 1, 79, 108
1, 34432, Note_on_c, 1, 79, 0
1, 34432, Note_on_c, 1, 80, 113
1, 34432, Note_on_c, 0, 61, 0
1, 34432, Note_on_c, 0, 58, 0
1, 34432, Note_on_c, 0, 59, 59
1, 34432, Note_on_c, 0, 62, 59
1, 34496, Note_on_c, 1, 80, 0
1, 34496, Note_on_c, 1, 77, 98
1, 34560, Note_on_c, 1, 77, 0
1, 34560, Note_on_c, 1, 77, 111
1, 34560, Note_on_c, 0, 62, 0
1, 34560, Note_on_c, 0, 59, 0
1, 34560, Note_on_c, 0, 60, 53
1, 34816, Note_on_c, 1, 77, 0
1, 34816, Note_on_c, 1, 76, 103
1, 35072, Note_on_c, 1, 76, 0
1, 35072, Note_on_c, 1, 77, 117
1, 35097, Note_on_c, 1, 77, 0
1, 35136, Note_on_c, 1, 68, 97
1, 35136, Note_on_c, 1, 72, 97
1, 35200, Note_on_c, 1, 72, 0
1, 35200, Note_on_c, 1, 68, 0
1, 35200, Note_on_c, 1, 67, 99
1, 35200, Note_on_c, 1, 70, 99
1, 35264, Note_on_c, 1, 70, 0
1, 35264, Note_on_c, 1, 67, 0
1, 35264, Note_on_c, 1, 65, 103
1, 35264, Note_on_c, 1, 68, 103
1, 35328, Note_on_c, 1, 68, 0
1, 35328, Note_on_c, 1, 65, 0
1, 35328, Note_on_c, 1, 65, 107
1, 35328, Note_on_c, 1, 68, 107
1, 35328, Note_on_c, 0, 60, 0
1, 35328, Note_on_c, 0, 60, 55
1, 35392, Note_on_c, 0, 60, 0
1, 35392, Note_on_c, 0, 61, 57
1, 35456, Note_on_c, 0, 61, 0
1, 35456, Note_on_c, 0, 60, 58
1, 35520, Note_on_c, 0, 60, 0
1, 35520, Note_on_c, 0, 59, 59
1, 35584, Note_on_c, 1, 68, 0
1, 35584, Note_on_c, 1, 65, 0
1, 35584, Note_on_c, 1, 64, 104
1, 35584, Note_on_c, 1, 67, 104
1, 35584, Note_on_c, 0, 59, 0
1, 35584, Note_on_c, 0, 60, 60
1, 35648, Note_on_c, 0, 60, 0
1, 35648, Note_on_c, 0, 61, 61
1, 35712, Note_on_c, 0, 61, 0
1, 35712, Note_on_c, 0, 60, 62
1, 35776, Note_on_c, 0, 60, 0
1, 35776, Note_on_c, 0, 59, 63
1, 35840, Note_on_c, 1, 67, 0
1, 35840, Note_on_c, 1, 64, 0
1, 35840, Note_on_c, 0, 59, 0
1, 35840, Note_on_c, 0, 60, 65
1, 35904, Note_on_c, 0, 60, 0
1, 35904, Note_on_c, 0, 61, 66
1, 35968, Note_on_c, 1, 53, 104
1, 35968, Note_on_c, 1, 56, 104
1, 35968, Note_on_c, 0, 61, 0
1, 35968, Note_on_c, 0, 60, 67
1, 36032, Note_on_c, 0, 60, 0
1, 36032, Note_on_c, 0, 59, 62
1, 36096, Note_on_c, 1, 56, 0
1, 36096, Note_on_c, 1, 53, 0
1, 36096, Note_on_c, 1, 53, 111
1, 36096, Note_on_c, 1, 56, 111
1, 36096, Note_on_c, 0, 59, 0
1, 36096, Note_on_c, 0, 60, 68
1, 36160, Note_on_c, 0, 60, 0
1, 36160, Note_on_c, 0, 61, 69
1, 36224, Note_on_c, 0, 61, 0
1, 36224, Note_on_c, 0, 60, 70
1, 36288, Note_on_c, 0, 60, 0
1, 36288, Note_on_c, 0, 59, 71
1, 36352, Note_on_c, 1, 56, 0
1, 36352, Note_on_c, 1, 53, 0
1, 36352, Note_on_c, 1, 52, 114
1, 36352, Note_on_c, 1, 55, 114
1, 36352, Note_on_c, 0, 59, 0
1, 36352, Note_on_c, 0, 60, 72
1, 36416, Note_on_c, 0, 60, 0
1, 36416, Note_on_c, 0, 61, 73
1, 36480, Note_on_c, 0, 61, 0
1, 36480, Note_on_c, 0, 60, 74
1, 36544, Note_on_c, 0, 60, 0
1, 36544, Note_on_c, 0, 59, 75
1, 36608, Note_on_c, 1, 55, 0
1, 36608, Note_on_c, 1, 52, 0
1, 36608, Note_on_c, 0, 59, 0
1, 36608, Note_on_c, 0, 60, 77
1, 36633, Note_on_c, 0, 60, 0
1, 36672, Note_on_c, 1, 60, 118
1, 36736, Note_on_c, 1, 60, 0
1, 36736, Note_on_c, 1, 64, 119
1, 36800, Note_on_c, 1, 64, 0
1, 36800, Note_on_c, 1, 67, 119
1, 36851, Note_on_c, 1, 67, 0
1, 36864, Note_on_c, 1, 70, 120
1, 36928, Note_on_c, 0, 48, 71
1, 36992, Note_on_c, 0, 48, 0
1, 36992, Note_on_c, 0, 43, 73
1, 37056, Note_on_c, 0, 43, 0
1, 37056, Note_on_c, 0, 40, 79
1, 37120, Note_on_c, 0, 40, 0
1, 37120, Note_on_c, 0, 36, 73
1, 37152, Note_on_c, 1, 70, 0
1, 37152, Note_on_c, 1, 60, 123
1, 37184, Note_on_c, 1, 60, 0
1, 37184, Note_on_c, 1, 64, 124
1, 37216, Note_on_c, 1, 64, 0
1, 37216, Note_on_c, 1, 67, 127
1, 37248, Note_on_c, 1, 67, 0
1, 37248, Note_on_c, 1, 70, 127
1, 37280, Note_on_c, 1, 70, 0
1, 37280, Note_on_c, 1, 64, 108
1, 37312, Note_on_c, 1, 64, 0
1, 37312, Note_on_c, 1, 67, 127
1, 37344, Note_on_c, 1, 67, 0
1, 37344, Note_on_c, 1, 70, 127
1, 37376, Note_on_c, 1, 70, 0
1, 37376, Note_on_c, 1, 74, 127
1, 37376, Note_on_c, 0, 36, 0
1, 37440, Note_on_c, 1, 74, 0
1, 37440, Note_on_c, 1, 70, 115
1, 37504, Note_on_c, 1, 70, 0
1, 37504, Note_on_c, 1, 69, 121
1, 37504, Note_on_c, 0, 58, 75
1, 37504, Note_on_c, 0, 64, 75
1, 37568, Note_on_c, 1, 69, 0
1, 37568, Note_on_c, 1, 67, 109
1, 37632, Note_on_c, 1, 67, 0
1, 37632, Note_on_c, 1, 74, 127
1, 37632, Note_on_c, 0, 64, 0
1, 37632, Note_on_c, 0, 58, 0
1, 37632, Note_on_c, 0, 57, 88
1, 37632, Note_on_c, 0, 65, 88
1, 37664, Note_on_c, 1, 74, 0
1, 37664, Note_on_c, 1, 72, 121
1, 37696, Note_on_c, 1, 72, 0
1, 37696, Note_on_c, 1, 76, 127
1, 37728, Note_on_c, 1, 76, 0
1, 37728, Note_on_c, 1, 74, 117
1, 37760, Note_on_c, 1, 74, 0
1, 37760, Note_on_c, 1, 77, 127
1, 37792, Note_on_c, 1, 77, 0
1, 37792, Note_on_c, 1, 76, 119
1, 37824, Note_on_c, 1, 76, 0
1, 37824, Note_on_c, 1, 79, 127
1, 37856, Note_on_c, 1, 79, 0
1, 37856, Note_on_c, 1, 77, 116
1, 37888, Note_on_c, 1, 77, 0
1, 37888, Note_on_c, 1, 72, 107
1, 37888, Note_on_c, 0, 65, 0
1, 37888, Note_on_c, 0, 57, 0
1, 38016, Note_on_c, 1, 72, 0
1, 38080, Note_on_c, 0, 60, 74
1, 38144, Note_on_c, 0, 60, 0
1, 38144, Note_on_c, 0, 59, 76
1, 38176, Note_on_c, 0, 59, 0
1, 38176, Note_on_c, 0, 60, 84
1, 38208, Note_on_c, 0, 60, 0
1, 38208, Note_on_c, 0, 62, 84
1, 38240, Note_on_c, 0, 62, 0
1, 38240, Note_on_c, 0, 60, 77
1, 38272, Note_on_c, 0, 60, 0
1, 38272, Note_on_c, 0, 58, 76
1, 38304, Note_on_c, 0, 58, 0
1, 38304, Note_on_c, 0, 57, 84
1, 38336, Note_on_c, 0, 57, 0
1, 38336, Note_on_c, 0, 55, 76
1, 38368, Note_on_c, 0, 55, 0
1, 38368, Note_on_c, 0, 53, 79
1, 38400, Note_on_c, 0, 53, 0
1, 38400, Note_on_c, 0, 52, 76
1, 38432, Note_on_c, 1, 84, 108
1, 38448, Note_on_c, 0, 52, 0
1, 38464, Note_on_c, 1, 84, 0
1, 38464, Note_on_c, 1, 82, 114
1, 38496, Note_on_c, 1, 82, 0
1, 38496, Note_on_c, 1, 79, 110
1, 38528, Note_on_c, 1, 79, 0
1, 38528, Note_on_c, 1, 76, 110
1, 38560, Note_on_c, 1, 76, 0
1, 38560, Note_on_c, 1, 72, 109
1, 38592, Note_on_c, 1, 72, 0
1, 38592, Note_on_c, 1, 70, 110
1, 38624, Note_on_c, 1, 70, 0
1, 38624, Note_on_c, 1, 67, 108
1, 38656, Note_on_c, 1, 67, 0
1, 38656, Note_on_c, 1, 64, 111
1, 38688, Note_on_c, 1, 64, 0
1, 38688, Note_on_c, 1, 60, 105
1, 38720, Note_on_c, 1, 60, 0
1, 38720, Note_on_c, 1, 58, 118
1, 38752, Note_on_c, 1, 58, 0
1, 38752, Note_on_c, 1, 55, 119
1, 38784, Note_on_c, 1, 55, 0
1, 38784, Note_on_c, 0, 52, 71
1, 38816, Note_on_c, 0, 52, 0
1, 38816, Note_on_c, 0, 48, 73
1, 38848, Note_on_c, 0, 48, 0
1, 38848, Note_on_c, 0, 46, 77
1, 38880, Note_on_c, 0, 46, 0
1, 38880, Note_on_c, 0, 43, 81
1, 38912, Note_on_c, 0, 43, 0
1, 38912, Note_on_c, 0, 40, 84
1, 38944, Note_on_c, 0, 40, 0
1, 38944, Note_on_c, 0, 43, 84
1, 38976, Note_on_c, 0, 43, 0
1, 38976, Note_on_c, 0, 40, 76
1, 39008, Note_on_c, 0, 40, 0
1, 39008, Note_on_c, 0, 36, 77
1, 39040, Note_on_c, 0, 36, 0
1, 39040, Note_on_c, 0, 34, 76
1, 39072, Note_on_c, 1, 52, 113
1, 39104, Note_on_c, 1, 52, 0
1, 39104, Note_on_c, 1, 55, 126
1, 39136, Note_on_c, 1, 55, 0
1, 39136, Note_on_c, 1, 58, 127
1, 39168, Note_on_c, 1, 58, 0
1, 39168, Note_on_c, 1, 62, 127
1, 39168, Note_on_c, 0, 34, 0
1, 39168, Note_on_c, 0, 33, 83
1, 39200, Note_on_c, 1, 62, 0
1, 39200, Note_on_c, 1, 60, 117
1, 39232, Note_on_c, 1, 60, 0
1, 39232, Note_on_c, 1, 64, 127
1, 39264, Note_on_c, 1, 64, 0
1, 39264, Note_on_c, 1, 62, 117
1, 39296, Note_on_c, 1, 62, 0
1, 39296, Note_on_c, 1, 65, 127
1, 39328, Note_on_c, 1, 65, 0
1, 39328, Note_on_c, 1, 64, 118
1, 39360, Note_on_c, 1, 64, 0
1, 39360, Note_on_c, 1, 67, 127
1, 39392, Note_on_c, 1, 67, 0
1, 39392, Note_on_c, 1, 65, 122
1, 39424, Note_on_c, 1, 65, 0
1, 39424, Note_on_c, 1, 60, 104
1, 39552, Note_on_c, 1, 60, 0
1, 39552, Note_on_c, 0, 33, 0
1, 39616, Note_on_c, 1, 60, 113
1, 39680, Note_on_c, 1, 60, 0
1, 39680, Note_on_c, 1, 65, 127
1, 39680, Note_on_c, 0, 45, 71
1, 39680, Note_on_c, 0, 48, 71
1, 39680, Note_on_c, 0, 53, 71
1, 39712, Note_on_c, 1, 65, 0
1, 39712, Note_on_c, 1, 64, 118
1, 39744, Note_on_c, 1, 64, 0
1, 39744, Note_on_c, 1, 67, 127
1, 39776, Note_on_c, 1, 67, 0
1, 39776, Note_on_c, 1, 65, 120
1, 39808, Note_on_c, 1, 65, 0
1, 39808, Note_on_c, 1, 69, 127
1, 39840, Note_on_c, 1, 69, 0
1, 39840, Note_on_c, 1, 65, 110
1, 39872, Note_on_c, 1, 65, 0
1, 39872, Note_on_c, 1, 60, 107
1, 39904, Note_on_c, 1, 60, 0
1, 39904, Note_on_c, 1, 69, 127
1, 39936, Note_on_c, 1, 69, 0
1, 39936, Note_on_c, 1, 65, 115
1, 39936, Note_on_c, 0, 53, 0
1, 39936, Note_on_c, 0, 48, 0
1, 39936, Note_on_c, 0, 45, 0
1, 39936, Note_on_c, 0, 46, 74
1, 39936, Note_on_c, 0, 50, 74
1, 39936, Note_on_c, 0, 53, 74
1, 39968, Note_on_c, 1, 65, 0
1, 39968, Note_on_c, 1, 62, 113
1, 40000, Note_on_c, 1, 62, 0
1, 40000, Note_on_c, 1, 89, 127
1, 40192, Note_on_c, 1, 89, 0
1, 40192, Note_on_c, 1, 67, 97
1, 40192, Note_on_c, 0, 53, 0
1, 40192, Note_on_c, 0, 50, 0
1, 40192, Note_on_c, 0, 46, 0
1, 40192, Note_on_c, 0, 48, 77
1, 40224, Note_on_c, 1, 67, 0
1, 40224, Note_on_c, 1, 69, 127
1, 40256, Note_on_c, 1, 69, 0
1, 40256, Note_on_c, 1, 67, 114
1, 40288, Note_on_c, 1, 67, 0
1, 40288, Note_on_c, 1, 69, 127
1, 40320, Note_on_c, 1, 69, 0
1, 40320, Note_on_c, 1, 67, 116
1, 40341, Note_on_c, 1, 67, 0
1, 40341, Note_on_c, 1, 69, 127
1, 40362, Note_on_c, 1, 69, 0
1, 40362, Note_on_c, 1, 67, 120
1, 40384, Note_on_c, 1, 67, 0
1, 40384, Note_on_c, 1, 69, 127
1, 40405, Note_on_c, 1, 69, 0
1, 40405, Note_on_c, 1, 67, 117
1, 40426, Note_on_c, 1, 67, 0
1, 40426, Note_on_c, 1, 69, 127
1, 40448, Note_on_c, 1, 69, 0
1, 40448, Note_on_c, 1, 67, 117
1, 40448, Note_on_c, 0, 52, 86
1, 40448, Note_on_c, 0, 58, 86
1, 40469, Note_on_c, 1, 67, 0
1, 40469, Note_on_c, 1, 69, 127
1, 40490, Note_on_c, 1, 69, 0
1, 40490, Note_on_c, 1, 67, 118
1, 40512, Note_on_c, 1, 67, 0
1, 40512, Note_on_c, 1, 69, 127
1, 40533, Note_on_c, 1, 69, 0
1, 40533, Note_on_c, 1, 67, 117
1, 40554, Note_on_c, 1, 67, 0
1, 40554, Note_on_c, 1, 69, 127
1, 40576, Note_on_c, 1, 69, 0
1, 40576, Note_on_c, 1, 67, 117
1, 40608, Note_on_c, 1, 67, 0
1, 40608, Note_on_c, 1, 69, 127
1, 40640, Note_on_c, 1, 69, 0
1, 40640, Note_on_c, 1, 65, 113
1, 40672, Note_on_c, 1, 65, 0
1, 40672, Note_on_c, 1, 67, 127
1, 40704, Note_on_c, 1, 67, 0
1, 40704, Note_on_c, 1, 65, 116
1, 40704, Note_on_c, 1, 57, 58
1, 40704, Note_on_c, 0, 58, 0
1, 40704, Note_on_c, 0, 52, 0
1, 40704, Note_on_c, 0, 48, 0
1, 40704, Note_on_c, 0, 53, 56
1, 40768, Tempo, 967741
1, 40768, Note_on_c, 1, 57, 0
1, 40768, Note_on_c, 1, 60, 62
1, 40832, Note_on_c, 1, 60, 0
1, 40832, Note_on_c, 1, 57, 55
1, 40832, Note_on_c, 0, 53, 0
1, 40832, Note_on_c, 0, 53, 56
1, 40896, Note_on_c, 1, 57, 0
1, 40896, Note_on_c, 1, 60, 68
1, 40960, Note_on_c, 1, 60, 0
1, 40960, Note_on_c, 1, 65, 0
1, 40960, Note_on_c, 1, 57, 59
1, 40960, Note_on_c, 0, 53, 0
1, 40960, Note_on_c, 0, 53, 58
1, 40992, Note_on_c, 1, 81, 124
1, 41008, Note_on_c, 1, 81, 0
1, 41024, Note_on_c, 1, 57, 0
1, 41024, Note_on_c, 1, 79, 126
1, 41024, Note_on_c, 1, 60, 63
1, 41040, Note_on_c, 1, 79, 0
1, 41056, Note_on_c, 1, 77, 127
1, 41072, Note_on_c, 1, 77, 0
1, 41088, Note_on_c, 1, 60, 0
1, 41088, Note_on_c, 1, 76, 127
1, 41088, Note_on_c, 1, 57, 67
1, 41088, Note_on_c, 0, 53, 0
1, 41088, Note_on_c, 0, 53, 63
1, 41104, Note_on_c, 1, 76, 0
1, 41120, Note_on_c, 1, 74, 127
1, 41136, Note_on_c, 1, 74, 0
1, 41152, Note_on_c, 1, 57, 0
1, 41152, Note_on_c, 1, 72, 127
1, 41152, Note_on_c, 1, 60, 71
1, 41168, Note_on_c, 1, 72, 0
1, 41184, Note_on_c, 1, 70, 119
1, 41200, Note_on_c, 1, 70, 0
1, 41216, Note_on_c, 1, 60, 0
1, 41216, Note_on_c, 1, 69, 115
1, 41216, Note_on_c, 1, 57, 74
1, 41216, Note_on_c, 0, 53, 0
1, 41216, Note_on_c, 0, 53, 64
1, 41280, Note_on_c, 1, 57, 0
1, 41280, Note_on_c, 1, 69, 0
1, 41280, Note_on_c, 1, 67, 118
1, 41280, Note_on_c, 1, 60, 82
1, 41344, Note_on_c, 1, 60, 0
1, 41344, Note_on_c, 1, 67, 0
1, 41344, Note_on_c, 1, 69, 127
1, 41344, Note_on_c, 1, 57, 72
1, 41344, Note_on_c, 0, 53, 0
1, 41344, Note_on_c, 0, 53, 62
1, 41408, Note_on_c, 1, 57, 0
1, 41408, Note_on_c, 1, 69, 0
1, 41408, Note_on_c, 1, 70, 127
1, 41408, Note_on_c, 1, 60, 74
1, 41472, Note_on_c, 1, 60, 0
1, 41472, Note_on_c, 1, 70, 0
1, 41472, Note_on_c, 1, 71, 127
1, 41472, Note_on_c, 1, 55, 68
1, 41472, Note_on_c, 0, 53, 0
1, 41472, Note_on_c, 0, 52, 60
1, 41536, Note_on_c, 1, 55, 0
1, 41536, Note_on_c, 1, 71, 0
1, 41536, Note_on_c, 1, 72, 127
1, 41536, Note_on_c, 1, 60, 83
1, 41600, Note_on_c, 1, 60, 0
1, 41600, Note_on_c, 1, 58, 73
1, 41600, Note_on_c, 0, 52, 0
1, 41600, Note_on_c, 0, 52, 61
1, 41600, Note_on_c, 0, 55, 61
1, 41664, Note_on_c, 1, 58, 0
1, 41664, Note_on_c, 1, 60, 76
1, 41728, Note_on_c, 1, 60, 0
1, 41728, Note_on_c, 1, 72, 0
1, 41728, Note_on_c, 1, 58, 70
1, 41728, Note_on_c, 0, 55, 0
1, 41728, Note_on_c, 0, 52, 0
1, 41728, Note_on_c, 0, 52, 57
1, 41728, Note_on_c, 0, 55, 57
1, 41760, Note_on_c, 1, 82, 121
1, 41776, Note_on_c, 1, 82, 0
1, 41792, Note_on_c, 1, 58, 0
1, 41792, Note_on_c, 1, 81, 120
1, 41792, Note_on_c, 1, 60, 78
1, 41808, Note_on_c, 1, 81, 0
1, 41824, Note_on_c, 1, 79, 114
1, 41840, Note_on_c, 1, 79, 0
1, 41856, Note_on_c, 1, 60, 0
1, 41856, Note_on_c, 1, 77, 119
1, 41856, Note_on_c, 1, 58, 74
1, 41856, Note_on_c, 0, 55, 0
1, 41856, Note_on_c, 0, 52, 0
1, 41856, Note_on_c, 0, 52, 64
1, 41856, Note_on_c, 0, 55, 64
1, 41872, Note_on_c, 1, 77, 0
1, 41888, Note_on_c, 1, 76, 116
1, 41904, Note_on_c, 1, 76, 0
1, 41920, Note_on_c, 1, 58, 0
1, 41920, Note_on_c, 1, 74, 114
1, 41920, Note_on_c, 1, 60, 77
1, 41936, Note_on_c, 1, 74, 0
1, 41952, Note_on_c, 1, 72, 121
1, 41968, Note_on_c, 1, 72, 0
1, 41984, Note_on_c, 1, 60, 0
1, 41984, Note_on_c, 1, 71, 119
1, 41984, Note_on_c, 1, 55, 71
1, 41984, Note_on_c, 0, 55, 0
1, 41984, Note_on_c, 0, 52, 0
1, 41984, Note_on_c, 0, 52, 56
1, 42048, Note_on_c, 1, 55, 0
1, 42048, Note_on_c, 1, 71, 0
1, 42048, Note_on_c, 1, 72, 127
1, 42048, Note_on_c, 1, 60, 81
1, 42112, Note_on_c, 1, 60, 0
1, 42112, Note_on_c, 1, 72, 0
1, 42112, Note_on_c, 1, 74, 127
1, 42112, Note_on_c, 1, 58, 70
1, 42112, Note_on_c, 0, 52, 0
1, 42112, Note_on_c, 0, 52, 60
1, 42176, Note_on_c, 1, 58, 0
1, 42176, Note_on_c, 1, 74, 0
1, 42176, Note_on_c, 1, 70, 114
1, 42176, Note_on_c, 1, 60, 80
1, 42240, Note_on_c, 1, 60, 0
1, 42240, Note_on_c, 1, 70, 0
1, 42240, Note_on_c, 1, 68, 115
1, 42240, Note_on_c, 1, 57, 70
1, 42240, Note_on_c, 0, 52, 0
1, 42240, Note_on_c, 0, 53, 62
1, 42304, Note_on_c, 1, 57, 0
1, 42304, Note_on_c, 1, 68, 0
1, 42304, Note_on_c, 1, 69, 127
1, 42304, Note_on_c, 1, 60, 78
1, 42368, Note_on_c, 1, 60, 0
1, 42368, Note_on_c, 1, 57, 69
1, 42368, Note_on_c, 0, 53, 0
1, 42368, Note_on_c, 0, 53, 59
1, 42432, Note_on_c, 1, 57, 0
1, 42432, Note_on_c, 1, 60, 75
1, 42496, Note_on_c, 1, 60, 0
1, 42496, Note_on_c, 1, 69, 0
1, 42496, Note_on_c, 1, 45, 60
1, 42496, Note_on_c, 0, 53, 0
1, 42496, Note_on_c, 0, 41, 51
1, 42528, Note_on_c, 1, 60, 114
1, 42528, Note_on_c, 1, 72, 114
1, 42544, Note_on_c, 1, 72, 0
1, 42544, Note_on_c, 1, 60, 0
1, 42560, Note_on_c, 1, 45, 0
1, 42560, Note_on_c, 1, 62, 127
1, 42560, Note_on_c, 1, 74, 127
1, 42560, Note_on_c, 1, 48, 76
1, 42576, Note_on_c, 1, 74, 0
1, 42576, Note_on_c, 1, 62, 0
1, 42592, Note_on_c, 1, 64, 127
1, 42592, Note_on_c, 1, 76, 127
1, 42608, Note_on_c, 1, 76, 0
1, 42608, Note_on_c, 1, 64, 0
1, 42624, Note_on_c, 1, 48, 0
1, 42624, Note_on_c, 1, 65, 127
1, 42624, Note_on_c, 1, 77, 127
1, 42624, Note_on_c, 1, 45, 68
1, 42624, Note_on_c, 0, 41, 0
1, 42624, Note_on_c, 0, 41, 61
1, 42640, Note_on_c, 1, 77, 0
1, 42640, Note_on_c, 1, 65, 0
1, 42656, Note_on_c, 1, 67, 127
1, 42656, Note_on_c, 1, 79, 127
1, 42672, Note_on_c, 1, 79, 0
1, 42672, Note_on_c, 1, 67, 0
1, 42688, Note_on_c, 1, 45, 0
1, 42688, Note_on_c, 1, 69, 127
1, 42688, Note_on_c, 1, 81, 127
1, 42688, Note_on_c, 1, 48, 76
1, 42704, Note_on_c, 1, 81, 0
1, 42704, Note_on_c, 1, 69, 0
1, 42720, Note_on_c, 1, 70, 127
1, 42720, Note_on_c, 1, 82, 127
1, 42736, Note_on_c, 1, 82, 0
1, 42736, Note_on_c, 1, 70, 0
1, 42752, Note_on_c, 1, 48, 0
1, 42752, Note_on_c, 1, 72, 127
1, 42752, Note_on_c, 1, 84, 127
1, 42752, Note_on_c, 1, 45, 71
1, 42752, Note_on_c, 0, 41, 0
1, 42752, Note_on_c, 0, 41, 62
1, 42816, Note_on_c, 1, 45, 0
1, 42816, Note_on_c, 1, 84, 0
1, 42816, Note_on_c, 1, 72, 0
1, 42816, Note_on_c, 1, 74, 127
1, 42816, Note_on_c, 1, 86, 127
1, 42816, Note_on_c, 1, 48, 85
1, 42880, Note_on_c, 1, 48, 0
1, 42880, Note_on_c, 1, 86, 0
1, 42880, Note_on_c, 1, 74, 0
1, 42880, Note_on_c, 1, 76, 127
1, 42880, Note_on_c, 1, 88, 127
1, 42880, Note_on_c, 1, 45, 69
1, 42880, Note_on_c, 0, 41, 0
1, 42880, Note_on_c, 0, 41, 59
1, 42944, Note_on_c, 1, 45, 0
1, 42944, Note_on_c, 1, 88, 0
1, 42944, Note_on_c, 1, 76, 0
1, 42944, Note_on_c, 1, 77, 127
1, 42944, Note_on_c, 1, 89, 127
1, 42944, Note_on_c, 1, 48, 75
1, 43008, Note_on_c, 1, 48, 0
1, 43008, Note_on_c, 1, 89, 0
1, 43008, Note_on_c, 1, 77, 0
1, 43008, Note_on_c, 1, 77, 127
1, 43008, Note_on_c, 1, 89, 127
1, 43008, Note_on_c, 1, 46, 72
1, 43008, Note_on_c, 0, 41, 0
1, 43008, Note_on_c, 0, 43, 61
1, 43072, Note_on_c, 1, 46, 0
1, 43072, Note_on_c, 1, 48, 73
1, 43136, Note_on_c, 1, 48, 0
1, 43136, Note_on_c, 1, 46, 68
1, 43136, Note_on_c, 0, 43, 0
1, 43136, Note_on_c, 0, 43, 62
1, 43200, Note_on_c, 1, 46, 0
1, 43200, Note_on_c, 1, 89, 0
1, 43200, Note_on_c, 1, 77, 0
1, 43200, Note_on_c, 1, 76, 123
1, 43200, Note_on_c, 1, 88, 123
1, 43200, Note_on_c, 1, 48, 74
1, 43264, Note_on_c, 1, 48, 0
1, 43264, Note_on_c, 1, 48, 79
1, 43264, Note_on_c, 0, 43, 0
1, 43264, Note_on_c, 0, 43, 65
1, 43264, Note_on_c, 0, 46, 65
1, 43328, Note_on_c, 1, 48, 0
1, 43328, Note_on_c, 1, 88, 0
1, 43328, Note_on_c, 1, 76, 0
1, 43328, Note_on_c, 1, 74, 117
1, 43328, Note_on_c, 1, 86, 117
1, 43328, Note_on_c, 1, 52, 81
1, 43392, Note_on_c, 1, 52, 0
1, 43392, Note_on_c, 1, 48, 71
1, 43392, Note_on_c, 0, 46, 0
1, 43392, Note_on_c, 0, 43, 0
1, 43392, Note_on_c, 0, 43, 58
1, 43392, Note_on_c, 0, 46, 58
1, 43456, Note_on_c, 1, 48, 0
1, 43456, Note_on_c, 1, 86, 0
1, 43456, Note_on_c, 1, 74, 0
1, 43456, Note_on_c, 1, 72, 116
1, 43456, Note_on_c, 1, 84, 116
1, 43456, Note_on_c, 1, 52, 76
1, 43520, Note_on_c, 1, 52, 0
1, 43520, Note_on_c, 1, 48, 69
1, 43520, Note_on_c, 0, 46, 0
1, 43520, Note_on_c, 0, 43, 0
1, 43520, Note_on_c, 0, 43, 60
1, 43520, Note_on_c, 0, 46, 60
1, 43584, Note_on_c, 1, 48, 0
1, 43584, Note_on_c, 1, 84, 0
1, 43584, Note_on_c, 1, 72, 0
1, 43584, Note_on_c, 1, 70, 118
1, 43584, Note_on_c, 1, 82, 118
1, 43584, Note_on_c, 1, 52, 76
1, 43648, Note_on_c, 1, 52, 0
1, 43648, Note_on_c, 1, 48, 67
1, 43648, Note_on_c, 0, 46, 0
1, 43648, Note_on_c, 0, 43, 0
1, 43648, Note_on_c, 0, 45, 58
1, 43712, Note_on_c, 1, 48, 0
1, 43712, Note_on_c, 1, 82, 0
1, 43712, Note_on_c, 1, 70, 0
1, 43712, Note_on_c, 1, 69, 120
1, 43712, Note_on_c, 1, 81, 120
1, 43712, Note_on_c, 1, 53, 76
1, 43776, Note_on_c, 1, 53, 0
1, 43776, Note_on_c, 1, 50, 68
1, 43776, Note_on_c, 0, 45, 0
1, 43776, Note_on_c, 0, 46, 62
1, 43840, Note_on_c, 1, 50, 0
1, 43840, Note_on_c, 1, 81, 0
1, 43840, Note_on_c, 1, 69, 0
1, 43840, Note_on_c, 1, 67, 122
1, 43840, Note_on_c, 1, 79, 122
1, 43840, Note_on_c, 1, 55, 79
1, 43904, Note_on_c, 1, 55, 0
1, 43904, Note_on_c, 1, 51, 72
1, 43904, Note_on_c, 0, 46, 0
1, 43904, Note_on_c, 0, 48, 60
1, 43968, Note_on_c, 1, 51, 0
1, 43968, Note_on_c, 1, 79, 0
1, 43968, Note_on_c, 1, 67, 0
1, 43968, Note_on_c, 1, 66, 119
1, 43968, Note_on_c, 1, 78, 119
1, 43968, Note_on_c, 1, 55, 75
1, 44032, Note_on_c, 1, 55, 0
1, 44032, Note_on_c, 1, 50, 71
1, 44032, Note_on_c, 0, 48, 0
1, 44032, Note_on_c, 0, 46, 57
1, 44096, Note_on_c, 1, 50, 0
1, 44096, Note_on_c, 1, 78, 0
1, 44096, Note_on_c, 1, 66, 0
1, 44096, Note_on_c, 1, 67, 127
1, 44096, Note_on_c, 1, 79, 127
1, 44096, Note_on_c, 1, 55, 78
1, 44160, Note_on_c, 1, 55, 0
1, 44160, Note_on_c, 1, 50, 73
1, 44160, Note_on_c, 0, 46, 0
1, 44160, Note_on_c, 0, 47, 64
1, 44224, Note_on_c, 1, 50, 0
1, 44224, Note_on_c, 1, 79, 0
1, 44224, Note_on_c, 1, 67, 0
1, 44224, Note_on_c, 1, 65, 118
1, 44224, Note_on_c, 1, 77, 118
1, 44224, Note_on_c, 1, 56, 80
1, 44288, Note_on_c, 1, 56, 0
1, 44288, Note_on_c, 1, 52, 69
1, 44288, Note_on_c, 0, 47, 0
1, 44288, Note_on_c, 0, 48, 61
1, 44352, Note_on_c, 1, 52, 0
1, 44352, Note_on_c, 1, 77, 0
1, 44352, Note_on_c, 1, 65, 0
1, 44352, Note_on_c, 1, 64, 120
1, 44352, Note_on_c, 1, 76, 120
1, 44352, Note_on_c, 1, 55, 73
1, 44416, Note_on_c, 1, 55, 0
1, 44416, Note_on_c, 1, 55, 71
1, 44416, Note_on_c, 0, 48, 0
1, 44416, Note_on_c, 0, 52, 64
1, 44480, Note_on_c, 1, 55, 0
1, 44480, Note_on_c, 1, 76, 0
1, 44480, Note_on_c, 1, 64, 0
1, 44480, Note_on_c, 1, 70, 127
1, 44480, Note_on_c, 1, 82, 127
1, 44480, Note_on_c, 1, 60, 85
1, 44544, Note_on_c, 1, 60, 0
1, 44544, Note_on_c, 1, 57, 74
1, 44544, Note_on_c, 0, 52, 0
1, 44544, Note_on_c, 0, 53, 65
1, 44608, Note_on_c, 1, 57, 0
1, 44608, Note_on_c, 1, 82, 0
1, 44608, Note_on_c, 1, 70, 0
1, 44608, Note_on_c, 1, 69, 120
1, 44608, Note_on_c, 1, 81, 120
1, 44608, Note_on_c, 1, 60, 83
1, 44672, Note_on_c, 1, 60, 0
1, 44672, Note_on_c, 1, 60, 75
1, 44672, Note_on_c, 0, 53, 0
1, 44672, Note_on_c, 0, 57, 63
1, 44736, Note_on_c, 1, 60, 0
1, 44736, Note_on_c, 1, 81, 0
1, 44736, Note_on_c, 1, 69, 0
1, 44736, Note_on_c, 1, 73, 127
1, 44736, Note_on_c, 1, 85, 127
1, 44736, Note_on_c, 1, 65, 80
1, 44800, Note_on_c, 1, 65, 0
1, 44800, Note_on_c, 1, 62, 67
1, 44800, Note_on_c, 0, 57, 0
1, 44800, Note_on_c, 0, 58, 63
1, 44864, Note_on_c, 1, 62, 0
1, 44864, Note_on_c, 1, 85, 0
1, 44864, Note_on_c, 1, 73, 0
1, 44864, Note_on_c, 1, 74, 127
1, 44864, Note_on_c, 1, 86, 127
1, 44864, Note_on_c, 1, 65, 76
1, 44928, Note_on_c, 0, 58, 0
1, 45248, Note_on_c, 1, 65, 0
1, 45248, Note_on_c, 1, 86, 0
1, 45248, Note_on_c, 1, 74, 0
1, 45312, Note_on_c, 1, 71, 67
1, 45312, Note_on_c, 1, 74, 67
1, 45376, Note_on_c, 1, 74, 0
1, 45376, Note_on_c, 1, 71, 0
1, 45568, Note_on_c, 1, 80, 112
1, 45568, Note_on_c, 1, 89, 112
1, 45952, Note_on_c, 1, 89, 0
1, 45952, Note_on_c, 1, 80, 0
1, 46080, Note_on_c, 1, 60, 61
1, 46250, Note_on_c, 1, 60, 0
1, 46250, Note_on_c, 1, 65, 84
1, 46293, Note_on_c, 1, 65, 0
1, 46293, Note_on_c, 1, 69, 84
1, 46336, Note_on_c, 1, 69, 0
1, 46336, Note_on_c, 1, 72, 81
1, 46378, Note_on_c, 1, 72, 0
1, 46378, Note_on_c, 1, 77, 84
1, 46421, Note_on_c, 1, 77, 0
1, 46421, Note_on_c, 1, 81, 84
1, 46464, Note_on_c, 1, 81, 0
1, 46464, Note_on_c, 1, 84, 82
1, 46515, Note_on_c, 1, 84, 0
1, 46592, Note_on_c, 0, 36, 60
1, 46720, Note_on_c, 1, 58, 55
1, 46720, Note_on_c, 1, 64, 55
1, 46848, Tempo, 1052631
1, 46848, Note_on_c, 1, 64, 0
1, 46848, Note_on_c, 1, 58, 0
1, 46848, Note_on_c, 1, 58, 64
1, 46848, Note_on_c, 1, 67, 64
1, 46848, Note_on_c, 0, 36, 0
1, 46848, Note_on_c, 0, 41, 64
1, 46912, Note_on_c, 1, 49, 60
1, 46976, Note_on_c, 1, 49, 0
1, 46976, Note_on_c, 1, 48, 59
1, 47040, Note_on_c, 1, 48, 0
1, 47040, Note_on_c, 1, 52, 59
1, 47104, Tempo, 1090909
1, 47104, Note_on_c, 1, 52, 0
1, 47104, Note_on_c, 1, 67, 0
1, 47104, Note_on_c, 1, 58, 0
1, 47104, Note_on_c, 1, 57, 57
1, 47104, Note_on_c, 1, 65, 57
1, 47104, Note_on_c, 1, 53, 58
1, 47168, Note_on_c, 1, 65, 0
1, 47168, Note_on_c, 1, 57, 0
1, 47168, Note_on_c, 1, 60, 55
1, 47232, Note_on_c, 1, 60, 0
1, 47232, Note_on_c, 1, 69, 70
1, 47296, Note_on_c, 1, 69, 0
1, 47296, Note_on_c, 1, 65, 57
1, 47360, Note_on_c, 1, 53, 0
1, 47360, Note_on_c, 1, 65, 0
1, 47360, Note_on_c, 1, 72, 70
1, 47360, Note_on_c, 0, 41, 0
1, 47488, Note_on_c, 0, 36, 57
1, 47552, Note_on_c, 1, 72, 0
1, 47552, Note_on_c, 1, 58, 50
1, 47552, Note_on_c, 1, 64, 50
1, 47616, Tempo, 1153846
1, 47616, Note_on_c, 1, 64, 0
1, 47616, Note_on_c, 1, 58, 0
1, 47616, Note_on_c, 1, 58, 65
1, 47616, Note_on_c, 1, 67, 65
1, 47616, Note_on_c, 0, 36, 0
1, 47616, Note_on_c, 0, 41, 65
1, 47680, Note_on_c, 1, 49, 49
1, 47744, Note_on_c, 1, 49, 0
1, 47744, Note_on_c, 1, 48, 47
1, 47808, Note_on_c, 1, 48, 0
1, 47808, Note_on_c, 1, 52, 48
1, 47872, Note_on_c, 1, 52, 0
1, 47872, Note_on_c, 1, 67, 0
1, 47872, Note_on_c, 1, 58, 0
1, 47872, Note_on_c, 1, 57, 56
1, 47872, Note_on_c, 1, 65, 56
1, 47872, Note_on_c, 1, 53, 46
1, 47936, Note_on_c, 1, 65, 0
1, 47936, Note_on_c, 1, 57, 0
1, 47936, Note_on_c, 1, 60, 53
1, 48000, Note_on_c, 1, 60, 0
1, 48000, Note_on_c, 1, 69, 75
1, 48064, Tempo, 1250000
1, 48064, Note_on_c, 1, 69, 0
1, 48064, Note_on_c, 1, 65, 60
1, 48128, Note_on_c, 1, 53, 0
1, 48128, Note_on_c, 1, 65, 0
1, 48128, Note_on_c, 1, 74, 60
1, 48128, Note_on_c, 0, 41, 0
1, 48192, Note_on_c, 1, 74, 0
1, 48192, Note_on_c, 1, 72, 59
1, 48256, Note_on_c, 0, 36, 53
1, 48320, Note_on_c, 1, 72, 0
1, 48320, Note_on_c, 1, 58, 58
1, 48320, Note_on_c, 1, 64, 58
1, 48384, Note_on_c, 1, 64, 0
1, 48384, Note_on_c, 1, 58, 0
1, 48384, Note_on_c, 1, 58, 57
1, 48384, Note_on_c, 1, 67, 57
1, 48384, Note_on_c, 0, 36, 0
1, 48384, Note_on_c, 0, 41, 66
1, 48448, Note_on_c, 1, 49, 44
1, 48512, Note_on_c, 1, 49, 0
1, 48512, Note_on_c, 1, 48, 44
1, 48576, Note_on_c, 1, 48, 0
1, 48576, Note_on_c, 1, 52, 43
1, 48640, Note_on_c, 1, 52, 0
1, 48640, Note_on_c, 1, 67, 0
1, 48640, Note_on_c, 1, 58, 0
1, 48640, Note_on_c, 1, 57, 55
1, 48640, Note_on_c, 1, 65, 55
1, 48640, Note_on_c, 1, 53, 42
1, 48886, Note_on_c, 1, 65, 0
1, 48886, Note_on_c, 1, 57, 0
1, 48886, Note_on_c, 1, 60, 53
1, 48896, Note_on_c, 1, 60, 0
1, 48896, Note_on_c, 1, 69, 53
1, 49152, Note_on_c, 1, 53, 0
1, 49152, Note_on_c, 1, 69, 0
1, 49152, Note_on_c, 1, 45, 50
1, 49152, Note_on_c, 0, 41, 0
1, 49152, Note_on_c, 0, 29, 60
1, 49152, Note_on_c, 0, 41, 60
1, 49408, Note_on_c, 1, 45, 0
1, 49408, Note_on_c, 1, 53, 50
1, 50688, Note_on_c, 1, 53, 0
1, 50944, Note_on_c, 0, 41, 0
1, 50944, Note_on_c, 0, 29, 0
1, 51424, Note_on_c, 0, 5, 32
1, 51456, Note_on_c, 0, 5, 0
1, 51466, End_track
0, 0, End_of_file