0, 0, Header, 0, 1, 96
1, 0, Start_track
1, 0, Tempo, 100000
1, 288, Tempo, 375000
1, 288, Note_on_c, 0, 72, 79
1, 355, Note_on_c, 0, 72, 0
1, 360, Note_on_c, 0, 76, 79
1, 383, Note_on_c, 0, 76, 0
1, 384, Note_on_c, 0, 79, 79
1, 384, Note_on_c, 1, 64, 74
1, 384, Note_on_c, 1, 60, 74
1, 423, Note_on_c, 0, 79, 0
1, 423, Note_on_c, 1, 64, 0
1, 423, Note_on_c, 1, 60, 0
1, 480, Note_on_c, 0, 79, 79
1, 519, Note_on_c, 0, 79, 0
1, 576, Note_on_c, 0, 79, 79
1, 615, Note_on_c, 0, 79, 0
1, 672, Note_on_c, 0, 83, 85
1, 684, Note_on_c, 0, 83, 0
1, 684, Note_on_c, 0, 84, 85
1, 711, Note_on_c, 0, 84, 0
1, 768, Note_on_c, 0, 79, 79
1, 768, Note_on_c, 1, 64, 74
1, 768, Note_on_c, 1, 60, 74
1, 807, Note_on_c, 0, 79, 0
1, 807, Note_on_c, 1, 64, 0
1, 807, Note_on_c, 1, 60, 0
1, 864, Note_on_c, 0, 79, 79
1, 903, Note_on_c, 0, 79, 0
1, 960, Note_on_c, 0, 79, 79
1, 999, Note_on_c, 0, 79, 0
1, 1056, Note_on_c, 0, 76, 79
1, 1123, Note_on_c, 0, 76, 0
1, 1128, Note_on_c, 0, 72, 79
1, 1151, Note_on_c, 0, 72, 0
1, 1152, Note_on_c, 0, 71, 79
1, 1152, Note_on_c, 1, 65, 74
1, 1152, Note_on_c, 1, 62, 74
1, 1152, Note_on_c, 1, 55, 74
1, 1191, Note_on_c, 0, 71, 0
1, 1191, Note_on_c, 1, 65, 0
1, 1191, Note_on_c, 1, 62, 0
1, 1191, Note_on_c, 1, 55, 0
1, 1248, Note_on_c, 0, 71, 80
1, 1248, Note_on_c, 1, 65, 75
1, 1248, Note_on_c, 1, 62, 75
1, 1248, Note_on_c, 1, 55, 75
1, 1287, Note_on_c, 0, 71, 0
1, 1287, Note_on_c, 1, 65, 0
1, 1287, Note_on_c, 1, 62, 0
1, 1287, Note_on_c, 1, 55, 0
1, 1344, Note_on_c, 0, 72, 82
1, 1344, Note_on_c, 1, 64, 76
1, 1344, Note_on_c, 1, 60, 76
1, 1344, Note_on_c, 1, 55, 76
1, 1383, Note_on_c, 0, 72, 0
1, 1383, Note_on_c, 1, 64, 0
1, 1383, Note_on_c, 1, 60, 0
1, 1383, Note_on_c, 1, 55, 0
1, 1440, Note_on_c, 0, 72, 83
1, 1440, Note_on_c, 1, 64, 77
1, 1440, Note_on_c, 1, 60, 77
1, 1440, Note_on_c, 1, 55, 77
1, 1479, Note_on_c, 0, 72, 0
1, 1479, Note_on_c, 1, 64, 0
1, 1479, Note_on_c, 1, 60, 0
1, 1479, Note_on_c, 1, 55, 0
1, 1536, Note_on_c, 0, 74, 85
1, 1536, Note_on_c, 1, 62, 79
1, 1536, Note_on_c, 1, 59, 79
1, 1536, Note_on_c, 1, 55, 79
1, 1625, Note_on_c, 0, 74, 0
1, 1625, Note_on_c, 1, 62, 0
1, 1625, Note_on_c, 1, 59, 0
1, 1625, Note_on_c, 1, 55, 0
1, 1824, Note_on_c, 0, 67, 79
1, 1891, Note_on_c, 0, 67, 0
1, 1896, Note_on_c, 0, 74, 79
1, 1919, Note_on_c, 0, 74, 0
1, 1920, Note_on_c, 0, 77, 79
1, 1920, Note_on_c, 1, 67, 74
1, 1920, Note_on_c, 1, 59, 74
1, 1959, Note_on_c, 0, 77, 0
1, 1959, Note_on_c, 1, 67, 0
1, 1959, Note_on_c, 1, 59, 0
1, 2016, Note_on_c, 0, 77, 79
1, 2088, Note_on_c, 0, 77, 0
1, 2088, Note_on_c, 0, 79, 79
1, 2111, Note_on_c, 0, 79, 0
1, 2112, Note_on_c, 0, 76, 79
1, 2112, Note_on_c, 1, 67, 74
1, 2112, Note_on_c, 1, 60, 74
1, 2151, Note_on_c, 0, 76, 0
1, 2151, Note_on_c, 1, 67, 0
1, 2151, Note_on_c, 1, 60, 0
1, 2208, Note_on_c, 0, 76, 79
1, 2280, Note_on_c, 0, 76, 0
1, 2280, Note_on_c, 0, 77, 79
1, 2303, Note_on_c, 0, 77, 0
1, 2304, Note_on_c, 0, 74, 79
1, 2304, Note_on_c, 1, 67, 74
1, 2304, Note_on_c, 1, 65, 74
1, 2343, Note_on_c, 0, 74, 0
1, 2343, Note_on_c, 1, 67, 0
1, 2343, Note_on_c, 1, 65, 0
1, 2400, Note_on_c, 0, 74, 79
1, 2472, Note_on_c, 0, 74, 0
1, 2472, Note_on_c, 0, 76, 79
1, 2495, Note_on_c, 0, 76, 0
1, 2496, Note_on_c, 0, 72, 79
1, 2496, Note_on_c, 1, 67, 74
1, 2496, Note_on_c, 1, 64, 74
1, 2535, Note_on_c, 0, 72, 0
1, 2535, Note_on_c, 1, 67, 0
1, 2535, Note_on_c, 1, 64, 0
1, 2592, Note_on_c, 0, 72, 79
1, 2631, Note_on_c, 0, 72, 0
1, 2688, Note_on_c, 0, 74, 79
1, 2688, Note_on_c, 1, 65, 74
1, 2688, Note_on_c, 1, 53, 74
1, 2727, Note_on_c, 0, 74, 0
1, 2727, Note_on_c, 1, 65, 0
1, 2727, Note_on_c, 1, 53, 0
1, 2784, Note_on_c, 0, 74, 79
1, 2784, Note_on_c, 1, 65, 74
1, 2784, Note_on_c, 1, 53, 74
1, 2823, Note_on_c, 0, 74, 0
1, 2823, Note_on_c, 1, 65, 0
1, 2823, Note_on_c, 1, 53, 0
1, 2880, Note_on_c, 0, 71, 79
1, 2880, Note_on_c, 1, 62, 74
1, 2880, Note_on_c, 1, 55, 74
1, 2919, Note_on_c, 0, 71, 0
1, 2919, Note_on_c, 1, 62, 0
1, 2919, Note_on_c, 1, 55, 0
1, 2976, Note_on_c, 0, 71, 79
1, 2976, Note_on_c, 1, 62, 74
1, 2976, Note_on_c, 1, 55, 74
1, 3015, Note_on_c, 0, 71, 0
1, 3015, Note_on_c, 1, 62, 0
1, 3015, Note_on_c, 1, 55, 0
1, 3072, Note_on_c, 0, 72, 85
1, 3072, Note_on_c, 1, 60, 69
1, 3102, Note_on_c, 1, 60, 0
1, 3104, Note_on_c, 1, 64, 69
1, 3111, Note_on_c, 0, 72, 0
1, 3134, Note_on_c, 1, 64, 0
1, 3136, Note_on_c, 1, 67, 69
1, 3166, Note_on_c, 1, 67, 0
1, 3168, Note_on_c, 1, 60, 69
1, 3198, Note_on_c, 1, 60, 0
1, 3200, Note_on_c, 1, 64, 69
1, 3230, Note_on_c, 1, 64, 0
1, 3232, Note_on_c, 1, 67, 69
1, 3262, Note_on_c, 1, 67, 0
1, 3264, Note_on_c, 1, 60, 69
1, 3294, Note_on_c, 1, 60, 0
1, 3296, Note_on_c, 1, 64, 69
1, 3326, Note_on_c, 1, 64, 0
1, 3328, Note_on_c, 1, 67, 69
1, 3358, Note_on_c, 1, 67, 0
1, 3360, Note_on_c, 0, 72, 85
1, 3360, Note_on_c, 1, 60, 69
1, 3390, Note_on_c, 1, 60, 0
1, 3392, Note_on_c, 1, 64, 69
1, 3422, Note_on_c, 1, 64, 0
1, 3424, Note_on_c, 1, 67, 69
1, 3427, Note_on_c, 0, 72, 0
1, 3432, Note_on_c, 0, 76, 85
1, 3454, Note_on_c, 1, 67, 0
1, 3455, Note_on_c, 0, 76, 0
1, 3456, Note_on_c, 0, 79, 85
1, 3456, Note_on_c, 1, 60, 69
1, 3486, Note_on_c, 1, 60, 0
1, 3488, Note_on_c, 1, 64, 69
1, 3495, Note_on_c, 0, 79, 0
1, 3518, Note_on_c, 1, 64, 0
1, 3520, Note_on_c, 1, 67, 69
1, 3550, Note_on_c, 1, 67, 0
1, 3552, Note_on_c, 0, 79, 85
1, 3552, Note_on_c, 1, 60, 69
1, 3582, Note_on_c, 1, 60, 0
1, 3584, Note_on_c, 1, 64, 69
1, 3591, Note_on_c, 0, 79, 0
1, 3614, Note_on_c, 1, 64, 0
1, 3616, Note_on_c, 1, 67, 69
1, 3646, Note_on_c, 1, 67, 0
1, 3648, Note_on_c, 0, 79, 85
1, 3648, Note_on_c, 1, 60, 69
1, 3678, Note_on_c, 1, 60, 0
1, 3680, Note_on_c, 1, 64, 69
1, 3687, Note_on_c, 0, 79, 0
1, 3710, Note_on_c, 1, 64, 0
1, 3712, Note_on_c, 1, 67, 69
1, 3742, Note_on_c, 1, 67, 0
1, 3744, Note_on_c, 0, 83, 85
1, 3744, Note_on_c, 1, 60, 69
1, 3756, Note_on_c, 0, 83, 0
1, 3756, Note_on_c, 0, 84, 85
1, 3774, Note_on_c, 1, 60, 0
1, 3776, Note_on_c, 1, 64, 69
1, 3783, Note_on_c, 0, 84, 0
1, 3806, Note_on_c, 1, 64, 0
1, 3808, Note_on_c, 1, 67, 69
1, 3838, Note_on_c, 1, 67, 0
1, 3840, Note_on_c, 0, 79, 79
1, 3840, Note_on_c, 1, 60, 69
1, 3870, Note_on_c, 1, 60, 0
1, 3872, Note_on_c, 1, 64, 69
1, 3879, Note_on_c, 0, 79, 0
1, 3902, Note_on_c, 1, 64, 0
1, 3904, Note_on_c, 1, 67, 69
1, 3934, Note_on_c, 1, 67, 0
1, 3936, Note_on_c, 0, 79, 79
1, 3936, Note_on_c, 1, 60, 69
1, 3966, Note_on_c, 1, 60, 0
1, 3968, Note_on_c, 1, 64, 69
1, 3975, Note_on_c, 0, 79, 0
1, 3998, Note_on_c, 1, 64, 0
1, 4000, Note_on_c, 1, 67, 69
1, 4030, Note_on_c, 1, 67, 0
1, 4032, Note_on_c, 0, 79, 79
1, 4032, Note_on_c, 1, 60, 69
1, 4062, Note_on_c, 1, 60, 0
1, 4064, Note_on_c, 1, 64, 69
1, 4071, Note_on_c, 0, 79, 0
1, 4094, Note_on_c, 1, 64, 0
1, 4096, Note_on_c, 1, 67, 69
1, 4126, Note_on_c, 1, 67, 0
1, 4128, Note_on_c, 0, 77, 79
1, 4128, Note_on_c, 1, 60, 69
1, 4151, Note_on_c, 0, 77, 0
1, 4152, Note_on_c, 0, 76, 79
1, 4158, Note_on_c, 1, 60, 0
1, 4160, Note_on_c, 1, 64, 69
1, 4175, Note_on_c, 0, 76, 0
1, 4176, Note_on_c, 0, 74, 79
1, 4190, Note_on_c, 1, 64, 0
1, 4192, Note_on_c, 1, 67, 69
1, 4199, Note_on_c, 0, 74, 0
1, 4200, Note_on_c, 0, 72, 79
1, 4222, Note_on_c, 1, 67, 0
1, 4223, Note_on_c, 0, 72, 0
1, 4224, Note_on_c, 0, 71, 85
1, 4224, Note_on_c, 1, 62, 69
1, 4254, Note_on_c, 1, 62, 0
1, 4256, Note_on_c, 1, 65, 69
1, 4263, Note_on_c, 0, 71, 0
1, 4286, Note_on_c, 1, 65, 0
1, 4288, Note_on_c, 1, 67, 69
1, 4318, Note_on_c, 1, 67, 0
1, 4320, Note_on_c, 0, 71, 86
1, 4320, Note_on_c, 1, 62, 70
1, 4350, Note_on_c, 1, 62, 0
1, 4352, Note_on_c, 1, 65, 70
1, 4359, Note_on_c, 0, 71, 0
1, 4382, Note_on_c, 1, 65, 0
1, 4384, Note_on_c, 1, 67, 70
1, 4414, Note_on_c, 1, 67, 0
1, 4416, Note_on_c, 0, 72, 88
1, 4416, Note_on_c, 1, 60, 71
1, 4446, Note_on_c, 1, 60, 0
1, 4448, Note_on_c, 1, 64, 71
1, 4455, Note_on_c, 0, 72, 0
1, 4478, Note_on_c, 1, 64, 0
1, 4480, Note_on_c, 1, 67, 72
1, 4510, Note_on_c, 1, 67, 0
1, 4512, Note_on_c, 0, 72, 90
1, 4512, Note_on_c, 1, 60, 72
1, 4542, Note_on_c, 1, 60, 0
1, 4544, Note_on_c, 1, 64, 72
1, 4551, Note_on_c, 0, 72, 0
1, 4574, Note_on_c, 1, 64, 0
1, 4576, Note_on_c, 1, 67, 73
1, 4606, Note_on_c, 1, 67, 0
1, 4608, Note_on_c, 0, 74, 92
1, 4608, Note_on_c, 1, 59, 74
1, 4697, Note_on_c, 0, 74, 0
1, 4697, Note_on_c, 1, 59, 0
1, 4896, Note_on_c, 0, 67, 85
1, 4963, Note_on_c, 0, 67, 0
1, 4968, Note_on_c, 0, 74, 85
1, 4991, Note_on_c, 0, 74, 0
1, 4992, Note_on_c, 0, 77, 85
1, 4992, Note_on_c, 1, 55, 69
1, 5022, Note_on_c, 1, 55, 0
1, 5024, Note_on_c, 1, 59, 69
1, 5031, Note_on_c, 0, 77, 0
1, 5054, Note_on_c, 1, 59, 0
1, 5056, Note_on_c, 1, 62, 69
1, 5086, Note_on_c, 1, 62, 0
1, 5088, Note_on_c, 0, 77, 85
1, 5088, Note_on_c, 1, 55, 69
1, 5118, Note_on_c, 1, 55, 0
1, 5120, Note_on_c, 1, 59, 69
1, 5150, Note_on_c, 1, 59, 0
1, 5152, Note_on_c, 1, 62, 69
1, 5160, Note_on_c, 0, 77, 0
1, 5160, Note_on_c, 0, 79, 85
1, 5182, Note_on_c, 1, 62, 0
1, 5183, Note_on_c, 0, 79, 0
1, 5184, Note_on_c, 0, 76, 85
1, 5184, Note_on_c, 1, 55, 69
1, 5214, Note_on_c, 1, 55, 0
1, 5216, Note_on_c, 1, 60, 69
1, 5223, Note_on_c, 0, 76, 0
1, 5246, Note_on_c, 1, 60, 0
1, 5248, Note_on_c, 1, 64, 69
1, 5278, Note_on_c, 1, 64, 0
1, 5280, Note_on_c, 0, 76, 85
1, 5280, Note_on_c, 1, 55, 69
1, 5310, Note_on_c, 1, 55, 0
1, 5312, Note_on_c, 1, 60, 69
1, 5342, Note_on_c, 1, 60, 0
1, 5344, Note_on_c, 1, 64, 69
1, 5352, Note_on_c, 0, 76, 0
1, 5352, Note_on_c, 0, 77, 85
1, 5374, Note_on_c, 1, 64, 0
1, 5375, Note_on_c, 0, 77, 0
1, 5376, Note_on_c, 0, 74, 85
1, 5376, Note_on_c, 1, 55, 69
1, 5406, Note_on_c, 1, 55, 0
1, 5408, Note_on_c, 1, 62, 69
1, 5415, Note_on_c, 0, 74, 0
1, 5438, Note_on_c, 1, 62, 0
1, 5440, Note_on_c, 1, 65, 69
1, 5470, Note_on_c, 1, 65, 0
1, 5472, Note_on_c, 0, 74, 86
1, 5472, Note_on_c, 1, 55, 69
1, 5502, Note_on_c, 1, 55, 0
1, 5504, Note_on_c, 1, 62, 69
1, 5534, Note_on_c, 1, 62, 0
1, 5536, Note_on_c, 1, 65, 69
1, 5544, Note_on_c, 0, 74, 0
1, 5544, Note_on_c, 0, 76, 88
1, 5566, Note_on_c, 1, 65, 0
1, 5567, Note_on_c, 0, 76, 0
1, 5568, Note_on_c, 0, 72, 88
1, 5568, Note_on_c, 1, 57, 69
1, 5598, Note_on_c, 1, 57, 0
1, 5600, Note_on_c, 1, 60, 69
1, 5607, Note_on_c, 0, 72, 0
1, 5630, Note_on_c, 1, 60, 0
1, 5632, Note_on_c, 1, 64, 69
1, 5662, Note_on_c, 1, 64, 0
1, 5664, Note_on_c, 0, 72, 90
1, 5664, Note_on_c, 1, 57, 69
1, 5694, Note_on_c, 1, 57, 0
1, 5696, Note_on_c, 1, 60, 69
1, 5703, Note_on_c, 0, 72, 0
1, 5726, Note_on_c, 1, 60, 0
1, 5728, Note_on_c, 1, 64, 69
1, 5758, Note_on_c, 1, 64, 0
1, 5760, Note_on_c, 0, 74, 92
1, 5760, Note_on_c, 1, 53, 69
1, 5790, Note_on_c, 1, 53, 0
1, 5792, Note_on_c, 1, 57, 69
1, 5799, Note_on_c, 0, 74, 0
1, 5822, Note_on_c, 1, 57, 0
1, 5824, Note_on_c, 1, 62, 69
1, 5854, Note_on_c, 1, 62, 0
1, 5856, Note_on_c, 0, 74, 90
1, 5856, Note_on_c, 1, 53, 69
1, 5886, Note_on_c, 1, 53, 0
1, 5888, Note_on_c, 1, 57, 69
1, 5895, Note_on_c, 0, 74, 0
1, 5918, Note_on_c, 1, 57, 0
1, 5920, Note_on_c, 1, 62, 69
1, 5950, Note_on_c, 1, 62, 0
1, 5952, Note_on_c, 0, 71, 88
1, 5952, Note_on_c, 1, 55, 69
1, 5982, Note_on_c, 1, 55, 0
1, 5984, Note_on_c, 1, 62, 69
1, 5991, Note_on_c, 0, 71, 0
1, 6014, Note_on_c, 1, 62, 0
1, 6016, Note_on_c, 1, 65, 69
1, 6046, Note_on_c, 1, 65, 0
1, 6048, Note_on_c, 0, 71, 86
1, 6048, Note_on_c, 1, 55, 69
1, 6078, Note_on_c, 1, 55, 0
1, 6080, Note_on_c, 1, 62, 69
1, 6087, Note_on_c, 0, 71, 0
1, 6110, Note_on_c, 1, 62, 0
1, 6112, Note_on_c, 1, 65, 69
1, 6142, Note_on_c, 1, 65, 0
1, 6144, Note_on_c, 0, 72, 79
1, 6144, Note_on_c, 1, 64, 74
1, 6144, Note_on_c, 1, 60, 64
1, 6321, Note_on_c, 1, 64, 0
1, 6336, Note_on_c, 1, 70, 74
1, 6409, Note_on_c, 0, 72, 0
1, 6432, Note_on_c, 0, 76, 82
1, 6504, Note_on_c, 0, 76, 0
1, 6504, Note_on_c, 0, 79, 83
1, 6513, Note_on_c, 1, 70, 0
1, 6527, Note_on_c, 0, 79, 0
1, 6528, Note_on_c, 0, 77, 83
1, 6528, Note_on_c, 1, 69, 74
1, 6567, Note_on_c, 0, 77, 0
1, 6624, Note_on_c, 0, 77, 85
1, 6696, Note_on_c, 0, 77, 0
1, 6696, Note_on_c, 0, 81, 83
1, 6705, Note_on_c, 1, 69, 0
1, 6719, Note_on_c, 0, 81, 0
1, 6720, Note_on_c, 0, 71, 83
1, 6720, Note_on_c, 1, 65, 74
1, 6759, Note_on_c, 0, 71, 0
1, 6816, Note_on_c, 0, 71, 81
1, 6882, Note_on_c, 1, 60, 0
1, 6888, Note_on_c, 0, 71, 0
1, 6888, Note_on_c, 0, 74, 79
1, 6897, Note_on_c, 1, 65, 0
1, 6911, Note_on_c, 0, 74, 0
1, 6912, Note_on_c, 0, 72, 79
1, 6912, Note_on_c, 1, 64, 74
1, 6912, Note_on_c, 1, 60, 64
1, 6951, Note_on_c, 0, 72, 0
1, 7008, Note_on_c, 0, 72, 80
1, 7080, Note_on_c, 0, 72, 0
1, 7080, Note_on_c, 0, 76, 81
1, 7089, Note_on_c, 1, 64, 0
1, 7103, Note_on_c, 0, 76, 0
1, 7104, Note_on_c, 0, 79, 82
1, 7104, Note_on_c, 1, 70, 74
1, 7143, Note_on_c, 0, 79, 0
1, 7200, Note_on_c, 0, 84, 83
1, 7272, Note_on_c, 0, 84, 0
1, 7272, Note_on_c, 0, 76, 84
1, 7281, Note_on_c, 1, 70, 0
1, 7295, Note_on_c, 0, 76, 0
1, 7296, Note_on_c, 0, 77, 85
1, 7296, Note_on_c, 1, 69, 74
1, 7335, Note_on_c, 0, 77, 0
1, 7392, Note_on_c, 0, 81, 83
1, 7464, Note_on_c, 0, 81, 0
1, 7464, Note_on_c, 0, 72, 82
1, 7473, Note_on_c, 1, 69, 0
1, 7487, Note_on_c, 0, 72, 0
1, 7488, Note_on_c, 0, 71, 82
1, 7488, Note_on_c, 1, 65, 74
1, 7527, Note_on_c, 0, 71, 0
1, 7584, Note_on_c, 0, 77, 80
1, 7650, Note_on_c, 1, 60, 0
1, 7656, Note_on_c, 0, 77, 0
1, 7656, Note_on_c, 0, 71, 79
1, 7665, Note_on_c, 1, 65, 0
1, 7679, Note_on_c, 0, 71, 0
1, 7680, Note_on_c, 0, 72, 79
1, 7680, Note_on_c, 1, 60, 69
1, 7710, Note_on_c, 1, 60, 0
1, 7712, Note_on_c, 1, 64, 69
1, 7719, Note_on_c, 0, 72, 0
1, 7742, Note_on_c, 1, 64, 0
1, 7744, Note_on_c, 1, 67, 69
1, 7774, Note_on_c, 1, 67, 0
1, 7776, Note_on_c, 0, 72, 79
1, 7776, Note_on_c, 1, 60, 69
1, 7806, Note_on_c, 1, 60, 0
1, 7808, Note_on_c, 1, 64, 69
1, 7815, Note_on_c, 0, 72, 0
1, 7838, Note_on_c, 1, 64, 0
1, 7840, Note_on_c, 1, 67, 69
1, 7870, Note_on_c, 1, 67, 0
1, 7872, Note_on_c, 0, 72, 79
1, 7872, Note_on_c, 1, 60, 69
1, 7902, Note_on_c, 1, 60, 0
1, 7904, Note_on_c, 1, 64, 69
1, 7911, Note_on_c, 0, 72, 0
1, 7934, Note_on_c, 1, 64, 0
1, 7936, Note_on_c, 1, 67, 69
1, 7966, Note_on_c, 1, 67, 0
1, 7968, Note_on_c, 0, 76, 79
1, 7968, Note_on_c, 1, 59, 69
1, 7992, Note_on_c, 0, 76, 0
1, 7992, Note_on_c, 0, 74, 79
1, 7998, Note_on_c, 1, 59, 0
1, 8000, Note_on_c, 1, 62, 69
1, 8016, Note_on_c, 0, 74, 0
1, 8016, Note_on_c, 0, 72, 79
1, 8030, Note_on_c, 1, 62, 0
1, 8032, Note_on_c, 1, 67, 69
1, 8040, Note_on_c, 0, 72, 0
1, 8040, Note_on_c, 0, 74, 79
1, 8062, Note_on_c, 1, 67, 0
1, 8064, Note_on_c, 0, 74, 0
1, 8064, Note_on_c, 0, 76, 79
1, 8064, Note_on_c, 1, 60, 69
1, 8094, Note_on_c, 1, 60, 0
1, 8096, Note_on_c, 1, 64, 69
1, 8126, Note_on_c, 1, 64, 0
1, 8128, Note_on_c, 1, 67, 69
1, 8153, Note_on_c, 0, 76, 0
1, 8158, Note_on_c, 1, 67, 0
1, 8160, Note_on_c, 0, 72, 79
1, 8160, Note_on_c, 1, 60, 69
1, 8190, Note_on_c, 1, 60, 0
1, 8192, Note_on_c, 1, 64, 69
1, 8199, Note_on_c, 0, 72, 0
1, 8222, Note_on_c, 1, 64, 0
1, 8224, Note_on_c, 1, 67, 69
1, 8254, Note_on_c, 1, 67, 0
1, 8256, Note_on_c, 0, 72, 79
1, 8256, Note_on_c, 1, 60, 69
1, 8286, Note_on_c, 1, 60, 0
1, 8288, Note_on_c, 1, 64, 69
1, 8295, Note_on_c, 0, 72, 0
1, 8318, Note_on_c, 1, 64, 0
1, 8320, Note_on_c, 1, 67, 69
1, 8350, Note_on_c, 1, 67, 0
1, 8352, Note_on_c, 0, 76, 79
1, 8352, Note_on_c, 1, 59, 69
1, 8376, Note_on_c, 0, 76, 0
1, 8376, Note_on_c, 0, 74, 79
1, 8382, Note_on_c, 1, 59, 0
1, 8384, Note_on_c, 1, 62, 69
1, 8400, Note_on_c, 0, 74, 0
1, 8400, Note_on_c, 0, 72, 79
1, 8414, Note_on_c, 1, 62, 0
1, 8416, Note_on_c, 1, 67, 69
1, 8424, Note_on_c, 0, 72, 0
1, 8424, Note_on_c, 0, 74, 79
1, 8446, Note_on_c, 1, 67, 0
1, 8448, Note_on_c, 0, 74, 0
1, 8448, Note_on_c, 0, 76, 79
1, 8448, Note_on_c, 1, 60, 69
1, 8478, Note_on_c, 1, 60, 0
1, 8480, Note_on_c, 1, 64, 69
1, 8510, Note_on_c, 1, 64, 0
1, 8512, Note_on_c, 1, 67, 69
1, 8537, Note_on_c, 0, 76, 0
1, 8542, Note_on_c, 1, 67, 0
1, 8544, Note_on_c, 0, 72, 79
1, 8544, Note_on_c, 1, 60, 69
1, 8574, Note_on_c, 1, 60, 0
1, 8576, Note_on_c, 1, 64, 69
1, 8583, Note_on_c, 0, 72, 0
1, 8606, Note_on_c, 1, 64, 0
1, 8608, Note_on_c, 1, 67, 69
1, 8638, Note_on_c, 1, 67, 0
1, 8640, Note_on_c, 0, 72, 79
1, 8640, Note_on_c, 1, 60, 69
1, 8670, Note_on_c, 1, 60, 0
1, 8672, Note_on_c, 1, 64, 69
1, 8679, Note_on_c, 0, 72, 0
1, 8702, Note_on_c, 1, 64, 0
1, 8704, Note_on_c, 1, 67, 69
1, 8734, Note_on_c, 1, 67, 0
1, 8736, Note_on_c, 0, 76, 79
1, 8736, Note_on_c, 1, 59, 69
1, 8760, Note_on_c, 0, 76, 0
1, 8760, Note_on_c, 0, 74, 79
1, 8766, Note_on_c, 1, 59, 0
1, 8768, Note_on_c, 1, 62, 69
1, 8784, Note_on_c, 0, 74, 0
1, 8784, Note_on_c, 0, 72, 79
1, 8798, Note_on_c, 1, 62, 0
1, 8800, Note_on_c, 1, 67, 69
1, 8808, Note_on_c, 0, 72, 0
1, 8808, Note_on_c, 0, 74, 79
1, 8830, Note_on_c, 1, 67, 0
1, 8832, Note_on_c, 0, 74, 0
1, 8832, Note_on_c, 0, 76, 79
1, 8832, Note_on_c, 1, 60, 69
1, 8862, Note_on_c, 1, 60, 0
1, 8864, Note_on_c, 1, 64, 69
1, 8894, Note_on_c, 1, 64, 0
1, 8896, Note_on_c, 1, 67, 70
1, 8921, Note_on_c, 0, 76, 0
1, 8926, Note_on_c, 1, 67, 0
1, 8928, Note_on_c, 0, 76, 79
1, 8928, Note_on_c, 1, 60, 70
1, 8958, Note_on_c, 1, 60, 0
1, 8960, Note_on_c, 1, 64, 71
1, 8967, Note_on_c, 0, 76, 0
1, 8990, Note_on_c, 1, 64, 0
1, 8992, Note_on_c, 1, 67, 71
1, 9022, Note_on_c, 1, 67, 0
1, 9024, Note_on_c, 0, 76, 79
1, 9024, Note_on_c, 1, 60, 72
1, 9054, Note_on_c, 1, 60, 0
1, 9056, Note_on_c, 1, 64, 72
1, 9063, Note_on_c, 0, 76, 0
1, 9086, Note_on_c, 1, 64, 0
1, 9088, Note_on_c, 1, 67, 73
1, 9118, Note_on_c, 1, 67, 0
1, 9120, Note_on_c, 0, 79, 79
1, 9120, Note_on_c, 1, 60, 74
1, 9144, Note_on_c, 0, 79, 0
1, 9144, Note_on_c, 0, 78, 79
1, 9150, Note_on_c, 1, 60, 0
1, 9152, Note_on_c, 1, 62, 74
1, 9168, Note_on_c, 0, 78, 0
1, 9168, Note_on_c, 0, 76, 79
1, 9182, Note_on_c, 1, 62, 0
1, 9184, Note_on_c, 1, 66, 74
1, 9192, Note_on_c, 0, 76, 0
1, 9192, Note_on_c, 0, 78, 79
1, 9214, Note_on_c, 1, 66, 0
1, 9216, Note_on_c, 0, 78, 0
1, 9216, Note_on_c, 0, 79, 79
1, 9216, Note_on_c, 1, 59, 74
1, 9246, Note_on_c, 1, 59, 0
1, 9248, Note_on_c, 1, 62, 74
1, 9278, Note_on_c, 1, 62, 0
1, 9280, Note_on_c, 1, 67, 74
1, 9305, Note_on_c, 0, 79, 0
1, 9310, Note_on_c, 1, 67, 0
1, 9312, Note_on_c, 0, 79, 79
1, 9312, Note_on_c, 1, 59, 74
1, 9342, Note_on_c, 1, 59, 0
1, 9344, Note_on_c, 1, 62, 74
1, 9351, Note_on_c, 0, 79, 0
1, 9374, Note_on_c, 1, 62, 0
1, 9376, Note_on_c, 1, 67, 74
1, 9406, Note_on_c, 1, 67, 0
1, 9408, Note_on_c, 0, 79, 79
1, 9408, Note_on_c, 1, 59, 74
1, 9438, Note_on_c, 1, 59, 0
1, 9440, Note_on_c, 1, 62, 74
1, 9447, Note_on_c, 0, 79, 0
1, 9470, Note_on_c, 1, 62, 0
1, 9472, Note_on_c, 1, 67, 74
1, 9502, Note_on_c, 1, 67, 0
1, 9504, Note_on_c, 0, 83, 79
1, 9504, Note_on_c, 1, 54, 74
1, 9528, Note_on_c, 0, 83, 0
1, 9528, Note_on_c, 0, 81, 79
1, 9534, Note_on_c, 1, 54, 0
1, 9536, Note_on_c, 1, 57, 74
1, 9552, Note_on_c, 0, 81, 0
1, 9552, Note_on_c, 0, 79, 79
1, 9566, Note_on_c, 1, 57, 0
1, 9568, Note_on_c, 1, 60, 74
1, 9576, Note_on_c, 0, 79, 0
1, 9576, Note_on_c, 0, 81, 79
1, 9598, Note_on_c, 1, 60, 0
1, 9600, Note_on_c, 0, 81, 0
1, 9600, Note_on_c, 0, 83, 79
1, 9600, Note_on_c, 1, 55, 74
1, 9630, Note_on_c, 1, 55, 0
1, 9632, Note_on_c, 1, 59, 74
1, 9662, Note_on_c, 1, 59, 0
1, 9664, Note_on_c, 1, 62, 74
1, 9689, Note_on_c, 0, 83, 0
1, 9694, Note_on_c, 1, 62, 0
1, 9696, Note_on_c, 0, 79, 79
1, 9696, Note_on_c, 1, 55, 74
1, 9726, Note_on_c, 1, 55, 0
1, 9728, Note_on_c, 1, 59, 74
1, 9735, Note_on_c, 0, 79, 0
1, 9758, Note_on_c, 1, 59, 0
1, 9760, Note_on_c, 1, 62, 74
1, 9790, Note_on_c, 1, 62, 0
1, 9792, Note_on_c, 0, 79, 79
1, 9792, Note_on_c, 1, 55, 74
1, 9822, Note_on_c, 1, 55, 0
1, 9824, Note_on_c, 1, 59, 74
1, 9831, Note_on_c, 0, 79, 0
1, 9854, Note_on_c, 1, 59, 0
1, 9856, Note_on_c, 1, 62, 74
1, 9886, Note_on_c, 1, 62, 0
1, 9888, Note_on_c, 0, 83, 79
1, 9888, Note_on_c, 1, 54, 74
1, 9912, Note_on_c, 0, 83, 0
1, 9912, Note_on_c, 0, 81, 79
1, 9918, Note_on_c, 1, 54, 0
1, 9920, Note_on_c, 1, 57, 74
1, 9936, Note_on_c, 0, 81, 0
1, 9936, Note_on_c, 0, 79, 79
1, 9950, Note_on_c, 1, 57, 0
1, 9952, Note_on_c, 1, 60, 74
1, 9960, Note_on_c, 0, 79, 0
1, 9960, Note_on_c, 0, 81, 79
1, 9982, Note_on_c, 1, 60, 0
1, 9984, Note_on_c, 0, 81, 0
1, 9984, Note_on_c, 0, 83, 79
1, 9984, Note_on_c, 1, 55, 74
1, 10014, Note_on_c, 1, 55, 0
1, 10016, Note_on_c, 1, 59, 74
1, 10046, Note_on_c, 1, 59, 0
1, 10048, Note_on_c, 1, 62, 74
1, 10073, Note_on_c, 0, 83, 0
1, 10078, Note_on_c, 1, 62, 0
1, 10080, Note_on_c, 0, 79, 79
1, 10080, Note_on_c, 1, 55, 74
1, 10110, Note_on_c, 1, 55, 0
1, 10112, Note_on_c, 1, 59, 74
1, 10119, Note_on_c, 0, 79, 0
1, 10142, Note_on_c, 1, 59, 0
1, 10144, Note_on_c, 1, 62, 74
1, 10174, Note_on_c, 1, 62, 0
1, 10176, Note_on_c, 0, 79, 79
1, 10176, Note_on_c, 1, 55, 74
1, 10206, Note_on_c, 1, 55, 0
1, 10208, Note_on_c, 1, 59, 74
1, 10215, Note_on_c, 0, 79, 0
1, 10238, Note_on_c, 1, 59, 0
1, 10240, Note_on_c, 1, 62, 74
1, 10270, Note_on_c, 1, 62, 0
1, 10272, Note_on_c, 0, 79, 79
1, 10272, Note_on_c, 1, 55, 74
1, 10302, Note_on_c, 0, 79, 0
1, 10302, Note_on_c, 1, 55, 0
1, 10304, Note_on_c, 0, 83, 79
1, 10304, Note_on_c, 1, 59, 74
1, 10334, Note_on_c, 0, 83, 0
1, 10334, Note_on_c, 1, 59, 0
1, 10336, Note_on_c, 0, 86, 79
1, 10336, Note_on_c, 1, 62, 74
1, 10366, Note_on_c, 0, 86, 0
1, 10366, Note_on_c, 1, 62, 0
1, 10368, Note_on_c, 0, 84, 79
1, 10368, Note_on_c, 1, 54, 74
1, 10398, Note_on_c, 1, 54, 0
1, 10400, Note_on_c, 1, 57, 74
1, 10407, Note_on_c, 0, 84, 0
1, 10430, Note_on_c, 1, 57, 0
1, 10432, Note_on_c, 1, 62, 74
1, 10462, Note_on_c, 1, 62, 0
1, 10464, Note_on_c, 0, 84, 79
1, 10464, Note_on_c, 1, 54, 74
1, 10494, Note_on_c, 1, 54, 0
1, 10496, Note_on_c, 1, 57, 74
1, 10526, Note_on_c, 1, 57, 0
1, 10528, Note_on_c, 1, 62, 74
1, 10536, Note_on_c, 0, 84, 0
1, 10536, Note_on_c, 0, 86, 79
1, 10558, Note_on_c, 1, 62, 0
1, 10559, Note_on_c, 0, 86, 0
1, 10560, Note_on_c, 0, 83, 79
1, 10560, Note_on_c, 1, 55, 74
1, 10590, Note_on_c, 1, 55, 0
1, 10592, Note_on_c, 1, 59, 74
1, 10599, Note_on_c, 0, 83, 0
1, 10622, Note_on_c, 1, 59, 0
1, 10624, Note_on_c, 1, 62, 74
1, 10654, Note_on_c, 1, 62, 0
1, 10656, Note_on_c, 0, 83, 79
1, 10656, Note_on_c, 1, 55, 74
1, 10686, Note_on_c, 1, 55, 0
1, 10688, Note_on_c, 1, 59, 74
1, 10718, Note_on_c, 1, 59, 0
1, 10720, Note_on_c, 1, 62, 74
1, 10728, Note_on_c, 0, 83, 0
1, 10728, Note_on_c, 0, 84, 79
1, 10750, Note_on_c, 1, 62, 0
1, 10751, Note_on_c, 0, 84, 0
1, 10752, Note_on_c, 0, 81, 79
1, 10752, Note_on_c, 1, 60, 74
1, 10782, Note_on_c, 1, 60, 0
1, 10784, Note_on_c, 1, 62, 74
1, 10791, Note_on_c, 0, 81, 0
1, 10814, Note_on_c, 1, 62, 0
1, 10816, Note_on_c, 1, 66, 74
1, 10846, Note_on_c, 1, 66, 0
1, 10848, Note_on_c, 0, 81, 79
1, 10848, Note_on_c, 1, 60, 74
1, 10878, Note_on_c, 1, 60, 0
1, 10880, Note_on_c, 1, 62, 74
1, 10910, Note_on_c, 1, 62, 0
1, 10912, Note_on_c, 1, 66, 74
1, 10920, Note_on_c, 0, 81, 0
1, 10920, Note_on_c, 0, 83, 79
1, 10942, Note_on_c, 1, 66, 0
1, 10943, Note_on_c, 0, 83, 0
1, 10944, Note_on_c, 0, 79, 79
1, 10944, Note_on_c, 1, 59, 74
1, 10974, Note_on_c, 1, 59, 0
1, 10976, Note_on_c, 1, 62, 74
1, 10983, Note_on_c, 0, 79, 0
1, 11006, Note_on_c, 1, 62, 0
1, 11008, Note_on_c, 1, 67, 74
1, 11038, Note_on_c, 1, 67, 0
1, 11040, Note_on_c, 0, 79, 79
1, 11040, Note_on_c, 1, 59, 74
1, 11070, Note_on_c, 0, 79, 0
1, 11070, Note_on_c, 1, 59, 0
1, 11072, Note_on_c, 0, 83, 79
1, 11072, Note_on_c, 1, 62, 74
1, 11102, Note_on_c, 0, 83, 0
1, 11102, Note_on_c, 1, 62, 0
1, 11104, Note_on_c, 0, 86, 79
1, 11104, Note_on_c, 1, 67, 74
1, 11134, Note_on_c, 0, 86, 0
1, 11134, Note_on_c, 1, 67, 0
1, 11136, Note_on_c, 0, 84, 79
1, 11136, Note_on_c, 1, 54, 74
1, 11156, Note_on_c, 0, 84, 0
1, 11166, Note_on_c, 1, 54, 0
1, 11168, Note_on_c, 1, 57, 74
1, 11184, Note_on_c, 0, 86, 79
1, 11198, Note_on_c, 1, 57, 0
1, 11199, Note_on_c, 0, 86, 0
1, 11200, Note_on_c, 0, 84, 79
1, 11200, Note_on_c, 1, 62, 74
1, 11215, Note_on_c, 0, 84, 0
1, 11216, Note_on_c, 0, 83, 79
1, 11230, Note_on_c, 1, 62, 0
1, 11231, Note_on_c, 0, 83, 0
1, 11232, Note_on_c, 0, 84, 79
1, 11232, Note_on_c, 1, 54, 74
1, 11262, Note_on_c, 1, 54, 0
1, 11264, Note_on_c, 1, 57, 74
1, 11294, Note_on_c, 1, 57, 0
1, 11296, Note_on_c, 1, 62, 74
1, 11304, Note_on_c, 0, 84, 0
1, 11304, Note_on_c, 0, 86, 79
1, 11326, Note_on_c, 1, 62, 0
1, 11327, Note_on_c, 0, 86, 0
1, 11328, Note_on_c, 0, 83, 79
1, 11328, Note_on_c, 1, 55, 74
1, 11348, Note_on_c, 0, 83, 0
1, 11358, Note_on_c, 1, 55, 0
1, 11360, Note_on_c, 1, 59, 74
1, 11376, Note_on_c, 0, 84, 79
1, 11390, Note_on_c, 1, 59, 0
1, 11391, Note_on_c, 0, 84, 0
1, 11392, Note_on_c, 0, 83, 79
1, 11392, Note_on_c, 1, 62, 74
1, 11407, Note_on_c, 0, 83, 0
1, 11408, Note_on_c, 0, 81, 79
1, 11422, Note_on_c, 1, 62, 0
1, 11423, Note_on_c, 0, 81, 0
1, 11424, Note_on_c, 0, 83, 79
1, 11424, Note_on_c, 1, 55, 74
1, 11454, Note_on_c, 1, 55, 0
1, 11456, Note_on_c, 1, 59, 74
1, 11486, Note_on_c, 1, 59, 0
1, 11488, Note_on_c, 1, 62, 74
1, 11496, Note_on_c, 0, 83, 0
1, 11496, Note_on_c, 0, 84, 79
1, 11518, Note_on_c, 1, 62, 0
1, 11519, Note_on_c, 0, 84, 0
1, 11520, Note_on_c, 0, 81, 79
1, 11520, Note_on_c, 1, 60, 74
1, 11540, Note_on_c, 0, 81, 0
1, 11550, Note_on_c, 1, 60, 0
1, 11552, Note_on_c, 1, 62, 74
1, 11568, Note_on_c, 0, 83, 79
1, 11582, Note_on_c, 1, 62, 0
1, 11583, Note_on_c, 0, 83, 0
1, 11584, Note_on_c, 0, 81, 79
1, 11584, Note_on_c, 1, 66, 74
1, 11599, Note_on_c, 0, 81, 0
1, 11600, Note_on_c, 0, 79, 79
1, 11614, Note_on_c, 1, 66, 0
1, 11615, Note_on_c, 0, 79, 0
1, 11616, Note_on_c, 0, 81, 79
1, 11616, Note_on_c, 1, 60, 75
1, 11646, Note_on_c, 1, 60, 0
1, 11648, Note_on_c, 1, 62, 75
1, 11678, Note_on_c, 1, 62, 0
1, 11680, Note_on_c, 1, 66, 76
1, 11688, Note_on_c, 0, 81, 0
1, 11688, Note_on_c, 0, 83, 79
1, 11710, Note_on_c, 1, 66, 0
1, 11711, Note_on_c, 0, 83, 0
1, 11712, Note_on_c, 0, 79, 79
1, 11712, Note_on_c, 1, 59, 76
1, 11742, Note_on_c, 1, 59, 0
1, 11744, Note_on_c, 1, 62, 77
1, 11751, Note_on_c, 0, 79, 0
1, 11774, Note_on_c, 1, 62, 0
1, 11776, Note_on_c, 1, 67, 77
1, 11806, Note_on_c, 1, 67, 0
1, 11808, Note_on_c, 0, 86, 79
1, 11808, Note_on_c, 1, 59, 77
1, 11838, Note_on_c, 1, 59, 0
1, 11840, Note_on_c, 1, 62, 78
1, 11870, Note_on_c, 1, 62, 0
1, 11872, Note_on_c, 1, 67, 78
1, 11875, Note_on_c, 0, 86, 0
1, 11880, Note_on_c, 0, 83, 79
1, 11902, Note_on_c, 1, 67, 0
1, 11903, Note_on_c, 0, 83, 0
1, 11904, Note_on_c, 0, 81, 79
1, 11904, Note_on_c, 1, 60, 79
1, 11924, Note_on_c, 0, 81, 0
1, 11934, Note_on_c, 1, 60, 0
1, 11936, Note_on_c, 1, 64, 79
1, 11952, Note_on_c, 0, 83, 79
1, 11966, Note_on_c, 1, 64, 0
1, 11967, Note_on_c, 0, 83, 0
1, 11968, Note_on_c, 0, 81, 79
1, 11968, Note_on_c, 1, 69, 80
1, 11983, Note_on_c, 0, 81, 0
1, 11984, Note_on_c, 0, 79, 80
1, 11998, Note_on_c, 1, 69, 0
1, 11999, Note_on_c, 0, 79, 0
1, 12000, Note_on_c, 0, 81, 80
1, 12000, Note_on_c, 1, 60, 80
1, 12030, Note_on_c, 1, 60, 0
1, 12032, Note_on_c, 1, 64, 80
1, 12062, Note_on_c, 1, 64, 0
1, 12064, Note_on_c, 1, 69, 81
1, 12067, Note_on_c, 0, 81, 0
1, 12072, Note_on_c, 0, 83, 81
1, 12094, Note_on_c, 1, 69, 0
1, 12095, Note_on_c, 0, 83, 0
1, 12096, Note_on_c, 0, 79, 81
1, 12096, Note_on_c, 1, 61, 81
1, 12116, Note_on_c, 0, 79, 0
1, 12126, Note_on_c, 1, 61, 0
1, 12128, Note_on_c, 1, 64, 82
1, 12144, Note_on_c, 0, 81, 82
1, 12158, Note_on_c, 1, 64, 0
1, 12159, Note_on_c, 0, 81, 0
1, 12160, Note_on_c, 0, 79, 82
1, 12160, Note_on_c, 1, 69, 82
1, 12175, Note_on_c, 0, 79, 0
1, 12176, Note_on_c, 0, 78, 82
1, 12190, Note_on_c, 1, 69, 0
1, 12191, Note_on_c, 0, 78, 0
1, 12192, Note_on_c, 0, 79, 83
1, 12192, Note_on_c, 1, 61, 83
1, 12222, Note_on_c, 1, 61, 0
1, 12224, Note_on_c, 1, 64, 83
1, 12254, Note_on_c, 1, 64, 0
1, 12256, Note_on_c, 1, 69, 83
1, 12259, Note_on_c, 0, 79, 0
1, 12264, Note_on_c, 0, 81, 84
1, 12286, Note_on_c, 1, 69, 0
1, 12287, Note_on_c, 0, 81, 0
1, 12288, Note_on_c, 0, 78, 85
1, 12288, Note_on_c, 1, 62, 85
1, 12377, Note_on_c, 0, 78, 0
1, 12377, Note_on_c, 1, 62, 0
1, 12456, Note_on_c, 0, 74, 85
1, 12456, Note_on_c, 1, 62, 85
1, 12479, Note_on_c, 0, 74, 0
1, 12479, Note_on_c, 1, 62, 0
1, 12480, Note_on_c, 0, 78, 85
1, 12480, Note_on_c, 1, 66, 85
1, 12547, Note_on_c, 0, 78, 0
1, 12547, Note_on_c, 1, 66, 0
1, 12552, Note_on_c, 0, 74, 85
1, 12552, Note_on_c, 1, 62, 85
1, 12575, Note_on_c, 0, 74, 0
1, 12575, Note_on_c, 1, 62, 0
1, 12576, Note_on_c, 0, 81, 85
1, 12576, Note_on_c, 1, 69, 85
1, 12643, Note_on_c, 0, 81, 0
1, 12643, Note_on_c, 1, 69, 0
1, 12648, Note_on_c, 0, 78, 85
1, 12648, Note_on_c, 1, 66, 85
1, 12671, Note_on_c, 0, 78, 0
1, 12671, Note_on_c, 1, 66, 0
1, 12672, Note_on_c, 0, 86, 85
1, 12672, Note_on_c, 1, 74, 85
1, 12761, Note_on_c, 0, 86, 0
1, 12761, Note_on_c, 1, 74, 0
1, 12840, Note_on_c, 0, 62, 85
1, 12840, Note_on_c, 1, 50, 85
1, 12863, Note_on_c, 0, 62, 0
1, 12863, Note_on_c, 1, 50, 0
1, 12864, Note_on_c, 0, 66, 85
1, 12864, Note_on_c, 1, 54, 85
1, 12894, Note_on_c, 0, 66, 0
1, 12894, Note_on_c, 1, 54, 0
1, 12896, Note_on_c, 0, 62, 85
1, 12896, Note_on_c, 1, 50, 85
1, 12926, Note_on_c, 0, 62, 0
1, 12926, Note_on_c, 1, 50, 0
1, 12928, Note_on_c, 0, 66, 85
1, 12928, Note_on_c, 1, 54, 85
1, 12958, Note_on_c, 0, 66, 0
1, 12958, Note_on_c, 1, 54, 0
1, 12960, Note_on_c, 0, 69, 85
1, 12960, Note_on_c, 1, 57, 85
1, 12990, Note_on_c, 0, 69, 0
1, 12990, Note_on_c, 1, 57, 0
1, 12992, Note_on_c, 0, 66, 85
1, 12992, Note_on_c, 1, 54, 85
1, 13022, Note_on_c, 0, 66, 0
1, 13022, Note_on_c, 1, 54, 0
1, 13024, Note_on_c, 0, 69, 85
1, 13024, Note_on_c, 1, 57, 85
1, 13054, Note_on_c, 0, 69, 0
1, 13054, Note_on_c, 1, 57, 0
1, 13056, Note_on_c, 0, 74, 85
1, 13056, Note_on_c, 1, 62, 85
1, 13145, Note_on_c, 0, 74, 0
1, 13145, Note_on_c, 1, 62, 0
1, 13248, Note_on_c, 0, 50, 85
1, 13248, Note_on_c, 1, 38, 85
1, 13306, Note_on_c, 0, 50, 0
1, 13306, Note_on_c, 1, 38, 0
1, 13392, Note_on_c, 0, 50, 85
1, 13392, Note_on_c, 1, 38, 85
1, 13412, Note_on_c, 0, 50, 0
1, 13412, Note_on_c, 1, 38, 0
1, 13440, Note_on_c, 0, 50, 85
1, 13440, Note_on_c, 1, 38, 85
1, 13529, Note_on_c, 0, 50, 0
1, 13529, Note_on_c, 1, 38, 0
1, 13824, Note_on_c, 1, 59, 69
1, 13854, Note_on_c, 1, 59, 0
1, 13856, Note_on_c, 1, 62, 69
1, 13886, Note_on_c, 1, 62, 0
1, 13888, Note_on_c, 1, 67, 69
1, 13918, Note_on_c, 1, 67, 0
1, 13920, Note_on_c, 1, 59, 69
1, 13950, Note_on_c, 1, 59, 0
1, 13952, Note_on_c, 1, 62, 69
1, 13982, Note_on_c, 1, 62, 0
1, 13984, Note_on_c, 1, 67, 69
1, 14014, Note_on_c, 1, 67, 0
1, 14016, Note_on_c, 1, 59, 69
1, 14046, Note_on_c, 1, 59, 0
1, 14048, Note_on_c, 1, 62, 69
1, 14078, Note_on_c, 1, 62, 0
1, 14080, Note_on_c, 1, 67, 69
1, 14110, Note_on_c, 1, 67, 0
1, 14112, Note_on_c, 0, 76, 79
1, 14112, Note_on_c, 1, 60, 69
1, 14135, Note_on_c, 0, 76, 0
1, 14136, Note_on_c, 0, 74, 79
1, 14142, Note_on_c, 1, 60, 0
1, 14144, Note_on_c, 1, 62, 69
1, 14159, Note_on_c, 0, 74, 0
1, 14160, Note_on_c, 0, 73, 79
1, 14174, Note_on_c, 1, 62, 0
1, 14176, Note_on_c, 1, 66, 69
1, 14183, Note_on_c, 0, 73, 0
1, 14184, Note_on_c, 0, 74, 79
1, 14206, Note_on_c, 1, 66, 0
1, 14208, Note_on_c, 0, 74, 0
1, 14208, Note_on_c, 0, 79, 79
1, 14208, Note_on_c, 1, 59, 69
1, 14238, Note_on_c, 1, 59, 0
1, 14240, Note_on_c, 1, 62, 69
1, 14247, Note_on_c, 0, 79, 0
1, 14270, Note_on_c, 1, 62, 0
1, 14272, Note_on_c, 1, 67, 69
1, 14302, Note_on_c, 1, 67, 0
1, 14304, Note_on_c, 0, 79, 79
1, 14304, Note_on_c, 1, 59, 69
1, 14334, Note_on_c, 1, 59, 0
1, 14336, Note_on_c, 1, 62, 69
1, 14366, Note_on_c, 1, 62, 0
1, 14368, Note_on_c, 1, 67, 69
1, 14393, Note_on_c, 0, 79, 0
1, 14398, Note_on_c, 1, 67, 0
1, 14400, Note_on_c, 1, 59, 69
1, 14430, Note_on_c, 1, 59, 0
1, 14432, Note_on_c, 1, 62, 69
1, 14462, Note_on_c, 1, 62, 0
1, 14464, Note_on_c, 1, 67, 69
1, 14494, Note_on_c, 1, 67, 0
1, 14496, Note_on_c, 0, 76, 79
1, 14496, Note_on_c, 1, 60, 69
1, 14519, Note_on_c, 0, 76, 0
1, 14520, Note_on_c, 0, 74, 79
1, 14526, Note_on_c, 1, 60, 0
1, 14528, Note_on_c, 1, 62, 69
1, 14543, Note_on_c, 0, 74, 0
1, 14544, Note_on_c, 0, 73, 79
1, 14558, Note_on_c, 1, 62, 0
1, 14560, Note_on_c, 1, 66, 69
1, 14567, Note_on_c, 0, 73, 0
1, 14568, Note_on_c, 0, 74, 79
1, 14590, Note_on_c, 1, 66, 0
1, 14592, Note_on_c, 0, 74, 0
1, 14592, Note_on_c, 0, 79, 79
1, 14592, Note_on_c, 1, 59, 69
1, 14622, Note_on_c, 1, 59, 0
1, 14624, Note_on_c, 1, 62, 69
1, 14631, Note_on_c, 0, 79, 0
1, 14654, Note_on_c, 1, 62, 0
1, 14656, Note_on_c, 1, 67, 69
1, 14686, Note_on_c, 1, 67, 0
1, 14688, Note_on_c, 0, 79, 79
1, 14688, Note_on_c, 1, 59, 69
1, 14718, Note_on_c, 1, 59, 0
1, 14720, Note_on_c, 1, 62, 69
1, 14750, Note_on_c, 1, 62, 0
1, 14752, Note_on_c, 1, 67, 69
1, 14777, Note_on_c, 0, 79, 0
1, 14782, Note_on_c, 1, 67, 0
1, 14784, Note_on_c, 1, 59, 69
1, 14814, Note_on_c, 1, 59, 0
1, 14816, Note_on_c, 1, 62, 69
1, 14846, Note_on_c, 1, 62, 0
1, 14848, Note_on_c, 1, 67, 69
1, 14878, Note_on_c, 1, 67, 0
1, 14880, Note_on_c, 0, 76, 79
1, 14880, Note_on_c, 1, 60, 69
1, 14903, Note_on_c, 0, 76, 0
1, 14904, Note_on_c, 0, 74, 79
1, 14910, Note_on_c, 1, 60, 0
1, 14912, Note_on_c, 1, 62, 69
1, 14927, Note_on_c, 0, 74, 0
1, 14928, Note_on_c, 0, 73, 79
1, 14942, Note_on_c, 1, 62, 0
1, 14944, Note_on_c, 1, 66, 69
1, 14951, Note_on_c, 0, 73, 0
1, 14952, Note_on_c, 0, 74, 79
1, 14974, Note_on_c, 1, 66, 0
1, 14976, Note_on_c, 0, 74, 0
1, 14976, Note_on_c, 0, 79, 79
1, 14976, Note_on_c, 1, 59, 69
1, 15006, Note_on_c, 1, 59, 0
1, 15008, Note_on_c, 1, 62, 69
1, 15015, Note_on_c, 0, 79, 0
1, 15038, Note_on_c, 1, 62, 0
1, 15040, Note_on_c, 1, 67, 69
1, 15070, Note_on_c, 1, 67, 0
1, 15072, Note_on_c, 0, 81, 79
1, 15072, Note_on_c, 1, 59, 69
1, 15095, Note_on_c, 0, 81, 0
1, 15096, Note_on_c, 0, 79, 79
1, 15102, Note_on_c, 1, 59, 0
1, 15104, Note_on_c, 1, 62, 69
1, 15119, Note_on_c, 0, 79, 0
1, 15120, Note_on_c, 0, 78, 79
1, 15134, Note_on_c, 1, 62, 0
1, 15136, Note_on_c, 1, 67, 69
1, 15143, Note_on_c, 0, 78, 0
1, 15144, Note_on_c, 0, 79, 79
1, 15166, Note_on_c, 1, 67, 0
1, 15168, Note_on_c, 0, 79, 0
1, 15168, Note_on_c, 0, 81, 79
1, 15168, Note_on_c, 1, 54, 69
1, 15198, Note_on_c, 1, 54, 0
1, 15200, Note_on_c, 1, 57, 69
1, 15207, Note_on_c, 0, 81, 0
1, 15230, Note_on_c, 1, 57, 0
1, 15232, Note_on_c, 1, 62, 69
1, 15262, Note_on_c, 1, 62, 0
1, 15264, Note_on_c, 0, 83, 80
1, 15264, Note_on_c, 1, 54, 70
1, 15288, Note_on_c, 0, 83, 0
1, 15288, Note_on_c, 0, 81, 80
1, 15294, Note_on_c, 1, 54, 0
1, 15296, Note_on_c, 1, 57, 70
1, 15312, Note_on_c, 0, 81, 0
1, 15312, Note_on_c, 0, 79, 80
1, 15326, Note_on_c, 1, 57, 0
1, 15328, Note_on_c, 1, 62, 71
1, 15336, Note_on_c, 0, 79, 0
1, 15336, Note_on_c, 0, 81, 80
1, 15358, Note_on_c, 1, 62, 0
1, 15360, Note_on_c, 0, 81, 0
1, 15360, Note_on_c, 0, 83, 80
1, 15360, Note_on_c, 1, 55, 71
1, 15390, Note_on_c, 1, 55, 0
1, 15392, Note_on_c, 1, 59, 72
1, 15399, Note_on_c, 0, 83, 0
1, 15422, Note_on_c, 1, 59, 0
1, 15424, Note_on_c, 1, 62, 72
1, 15454, Note_on_c, 1, 62, 0
1, 15456, Note_on_c, 0, 84, 81
1, 15456, Note_on_c, 1, 55, 73
1, 15480, Note_on_c, 0, 84, 0
1, 15480, Note_on_c, 0, 83, 81
1, 15486, Note_on_c, 1, 55, 0
1, 15488, Note_on_c, 1, 59, 73
1, 15504, Note_on_c, 0, 83, 0
1, 15504, Note_on_c, 0, 81, 81
1, 15518, Note_on_c, 1, 59, 0
1, 15520, Note_on_c, 1, 62, 74
1, 15528, Note_on_c, 0, 81, 0
1, 15528, Note_on_c, 0, 83, 81
1, 15550, Note_on_c, 1, 62, 0
1, 15552, Note_on_c, 0, 83, 0
1, 15552, Note_on_c, 0, 84, 82
1, 15552, Note_on_c, 1, 52, 74
1, 15582, Note_on_c, 1, 52, 0
1, 15584, Note_on_c, 1, 55, 74
1, 15591, Note_on_c, 0, 84, 0
1, 15614, Note_on_c, 1, 55, 0
1, 15616, Note_on_c, 1, 60, 75
1, 15646, Note_on_c, 1, 60, 0
1, 15648, Note_on_c, 0, 86, 82
1, 15648, Note_on_c, 1, 52, 75
1, 15672, Note_on_c, 0, 86, 0
1, 15672, Note_on_c, 0, 84, 82
1, 15678, Note_on_c, 1, 52, 0
1, 15680, Note_on_c, 1, 55, 76
1, 15696, Note_on_c, 0, 84, 0
1, 15696, Note_on_c, 0, 83, 82
1, 15710, Note_on_c, 1, 55, 0
1, 15712, Note_on_c, 1, 60, 76
1, 15720, Note_on_c, 0, 83, 0
1, 15720, Note_on_c, 0, 84, 82
1, 15742, Note_on_c, 1, 60, 0
1, 15744, Note_on_c, 0, 84, 0
1, 15744, Note_on_c, 0, 86, 83
1, 15744, Note_on_c, 1, 47, 77
1, 15774, Note_on_c, 1, 47, 0
1, 15776, Note_on_c, 1, 50, 77
1, 15806, Note_on_c, 1, 50, 0
1, 15808, Note_on_c, 1, 55, 78
1, 15838, Note_on_c, 1, 55, 0
1, 15840, Note_on_c, 1, 47, 78
1, 15870, Note_on_c, 1, 47, 0
1, 15872, Note_on_c, 1, 50, 79
1, 15902, Note_on_c, 1, 50, 0
1, 15904, Note_on_c, 1, 55, 79
1, 15934, Note_on_c, 1, 55, 0
1, 15936, Note_on_c, 1, 47, 79
1, 16009, Note_on_c, 0, 86, 0
1, 16025, Note_on_c, 1, 47, 0
1, 16032, Note_on_c, 0, 87, 85
1, 16032, Note_on_c, 0, 75, 85
1, 16121, Note_on_c, 0, 87, 0
1, 16121, Note_on_c, 0, 75, 0
1, 16128, Note_on_c, 0, 88, 101
1, 16128, Note_on_c, 0, 76, 101
1, 16128, Note_on_c, 1, 48, 82
1, 16217, Note_on_c, 1, 48, 0
1, 16224, Note_on_c, 0, 88, 0
1, 16224, Note_on_c, 0, 76, 0
1, 16224, Note_on_c, 0, 80, 92
1, 16224, Note_on_c, 0, 68, 92
1, 16313, Note_on_c, 0, 80, 0
1, 16313, Note_on_c, 0, 68, 0
1, 16320, Note_on_c, 0, 81, 92
1, 16320, Note_on_c, 0, 69, 92
1, 16409, Note_on_c, 0, 81, 0
1, 16409, Note_on_c, 0, 69, 0
1, 16416, Note_on_c, 0, 83, 92
1, 16416, Note_on_c, 0, 71, 92
1, 16505, Note_on_c, 0, 83, 0
1, 16505, Note_on_c, 0, 71, 0
1, 16512, Note_on_c, 0, 84, 92
1, 16512, Note_on_c, 0, 72, 92
1, 16689, Note_on_c, 0, 84, 0
1, 16689, Note_on_c, 0, 72, 0
1, 16704, Note_on_c, 0, 86, 92
1, 16704, Note_on_c, 0, 74, 92
1, 16793, Note_on_c, 0, 86, 0
1, 16793, Note_on_c, 0, 74, 0
1, 16800, Note_on_c, 0, 88, 92
1, 16800, Note_on_c, 0, 76, 92
1, 16889, Note_on_c, 0, 88, 0
1, 16889, Note_on_c, 0, 76, 0
1, 16896, Note_on_c, 0, 79, 69
1, 16896, Note_on_c, 0, 74, 64
1, 16896, Note_on_c, 1, 71, 69
1, 16896, Note_on_c, 1, 62, 64
1, 17073, Note_on_c, 0, 79, 0
1, 17073, Note_on_c, 0, 74, 0
1, 17073, Note_on_c, 1, 71, 0
1, 17088, Note_on_c, 0, 83, 69
1, 17088, Note_on_c, 0, 78, 64
1, 17088, Note_on_c, 1, 72, 69
1, 17133, Note_on_c, 0, 83, 0
1, 17136, Note_on_c, 0, 81, 69
1, 17225, Note_on_c, 0, 81, 0
1, 17232, Note_on_c, 0, 79, 69
1, 17250, Note_on_c, 1, 62, 0
1, 17265, Note_on_c, 0, 78, 0
1, 17265, Note_on_c, 1, 72, 0
1, 17277, Note_on_c, 0, 79, 0
1, 17280, Note_on_c, 0, 79, 69
1, 17280, Note_on_c, 1, 71, 69
1, 17280, Note_on_c, 1, 67, 69
1, 17369, Note_on_c, 0, 79, 0
1, 17369, Note_on_c, 1, 71, 0
1, 17369, Note_on_c, 1, 67, 0
1, 17568, Note_on_c, 0, 83, 64
1, 17568, Note_on_c, 1, 79, 64
1, 17598, Note_on_c, 0, 83, 0
1, 17600, Note_on_c, 0, 87, 64
1, 17630, Note_on_c, 0, 87, 0
1, 17632, Note_on_c, 0, 88, 64
1, 17662, Note_on_c, 0, 88, 0
1, 17664, Note_on_c, 0, 86, 64
1, 17664, Note_on_c, 1, 79, 0
1, 17664, Note_on_c, 1, 81, 64
1, 17664, Note_on_c, 1, 78, 64
1, 17703, Note_on_c, 0, 86, 0
1, 17703, Note_on_c, 1, 81, 0
1, 17703, Note_on_c, 1, 78, 0
1, 17760, Note_on_c, 0, 86, 64
1, 17799, Note_on_c, 0, 86, 0
1, 17856, Note_on_c, 0, 86, 64
1, 17895, Note_on_c, 0, 86, 0
1, 17952, Note_on_c, 0, 79, 64
1, 17952, Note_on_c, 1, 76, 64
1, 17982, Note_on_c, 0, 79, 0
1, 17984, Note_on_c, 0, 83, 64
1, 18014, Note_on_c, 0, 83, 0
1, 18016, Note_on_c, 0, 84, 64
1, 18046, Note_on_c, 0, 84, 0
1, 18048, Note_on_c, 0, 83, 64
1, 18048, Note_on_c, 1, 76, 0
1, 18048, Note_on_c, 1, 78, 64
1, 18048, Note_on_c, 1, 74, 64
1, 18087, Note_on_c, 0, 83, 0
1, 18087, Note_on_c, 1, 78, 0
1, 18087, Note_on_c, 1, 74, 0
1, 18144, Note_on_c, 0, 83, 64
1, 18183, Note_on_c, 0, 83, 0
1, 18240, Note_on_c, 0, 83, 64
1, 18279, Note_on_c, 0, 83, 0
1, 18336, Note_on_c, 0, 76, 64
1, 18336, Note_on_c, 1, 72, 64
1, 18366, Note_on_c, 0, 76, 0
1, 18368, Note_on_c, 0, 80, 64
1, 18398, Note_on_c, 0, 80, 0
1, 18400, Note_on_c, 0, 81, 64
1, 18430, Note_on_c, 0, 81, 0
1, 18432, Note_on_c, 0, 79, 64
1, 18432, Note_on_c, 1, 72, 0
1, 18432, Note_on_c, 1, 74, 64
1, 18432, Note_on_c, 1, 71, 64
1, 18471, Note_on_c, 0, 79, 0
1, 18471, Note_on_c, 1, 74, 0
1, 18471, Note_on_c, 1, 71, 0
1, 18528, Note_on_c, 0, 79, 64
1, 18567, Note_on_c, 0, 79, 0
1, 18624, Note_on_c, 0, 79, 64
1, 18663, Note_on_c, 0, 79, 0
1, 18720, Note_on_c, 0, 83, 64
1, 18720, Note_on_c, 1, 71, 64
1, 18720, Note_on_c, 1, 67, 64
1, 18787, Note_on_c, 0, 83, 0
1, 18792, Note_on_c, 0, 79, 64
1, 18809, Note_on_c, 1, 71, 0
1, 18809, Note_on_c, 1, 67, 0
1, 18815, Note_on_c, 0, 79, 0
1, 18816, Note_on_c, 0, 76, 64
1, 18816, Note_on_c, 1, 72, 64
1, 18816, Note_on_c, 1, 60, 64
1, 18855, Note_on_c, 0, 76, 0
1, 18905, Note_on_c, 1, 72, 0
1, 18905, Note_on_c, 1, 60, 0
1, 18912, Note_on_c, 0, 84, 64
1, 18984, Note_on_c, 0, 84, 0
1, 18984, Note_on_c, 0, 81, 64
1, 19007, Note_on_c, 0, 81, 0
1, 19008, Note_on_c, 0, 78, 64
1, 19008, Note_on_c, 1, 69, 64
1, 19008, Note_on_c, 1, 62, 64
1, 19047, Note_on_c, 0, 78, 0
1, 19097, Note_on_c, 1, 69, 0
1, 19097, Note_on_c, 1, 62, 0
1, 19104, Note_on_c, 0, 81, 64
1, 19176, Note_on_c, 0, 81, 0
1, 19176, Note_on_c, 0, 78, 64
1, 19199, Note_on_c, 0, 78, 0
1, 19200, Note_on_c, 0, 79, 64
1, 19200, Note_on_c, 1, 71, 64
1, 19200, Note_on_c, 1, 67, 64
1, 19239, Note_on_c, 0, 79, 0
1, 19289, Note_on_c, 1, 71, 0
1, 19289, Note_on_c, 1, 67, 0
1, 19488, Note_on_c, 0, 83, 85
1, 19488, Note_on_c, 1, 79, 85
1, 19518, Note_on_c, 0, 83, 0
1, 19520, Note_on_c, 0, 87, 85
1, 19550, Note_on_c, 0, 87, 0
1, 19552, Note_on_c, 0, 88, 85
1, 19582, Note_on_c, 0, 88, 0
1, 19584, Note_on_c, 0, 81, 69
1, 19584, Note_on_c, 1, 79, 0
1, 19584, Note_on_c, 1, 78, 69
1, 19614, Note_on_c, 0, 81, 0
1, 19616, Note_on_c, 0, 85, 69
1, 19623, Note_on_c, 1, 78, 0
1, 19646, Note_on_c, 0, 85, 0
1, 19648, Note_on_c, 0, 86, 69
1, 19678, Note_on_c, 0, 86, 0
1, 19680, Note_on_c, 0, 81, 69
1, 19680, Note_on_c, 1, 78, 69
1, 19710, Note_on_c, 0, 81, 0
1, 19712, Note_on_c, 0, 85, 69
1, 19719, Note_on_c, 1, 78, 0
1, 19742, Note_on_c, 0, 85, 0
1, 19744, Note_on_c, 0, 86, 69
1, 19774, Note_on_c, 0, 86, 0
1, 19776, Note_on_c, 0, 81, 69
1, 19776, Note_on_c, 1, 78, 69
1, 19806, Note_on_c, 0, 81, 0
1, 19808, Note_on_c, 0, 85, 69
1, 19815, Note_on_c, 1, 78, 0
1, 19838, Note_on_c, 0, 85, 0
1, 19840, Note_on_c, 0, 86, 69
1, 19870, Note_on_c, 0, 86, 0
1, 19872, Note_on_c, 0, 83, 85
1, 19872, Note_on_c, 1, 79, 85
1, 19902, Note_on_c, 0, 83, 0
1, 19904, Note_on_c, 0, 87, 85
1, 19934, Note_on_c, 0, 87, 0
1, 19936, Note_on_c, 0, 88, 85
1, 19966, Note_on_c, 0, 88, 0
1, 19968, Note_on_c, 0, 81, 69
1, 19968, Note_on_c, 1, 79, 0
1, 19968, Note_on_c, 1, 78, 69
1, 19998, Note_on_c, 0, 81, 0
1, 20000, Note_on_c, 0, 85, 69
1, 20007, Note_on_c, 1, 78, 0
1, 20030, Note_on_c, 0, 85, 0
1, 20032, Note_on_c, 0, 86, 69
1, 20062, Note_on_c, 0, 86, 0
1, 20064, Note_on_c, 0, 81, 69
1, 20064, Note_on_c, 1, 78, 69
1, 20094, Note_on_c, 0, 81, 0
1, 20096, Note_on_c, 0, 85, 69
1, 20103, Note_on_c, 1, 78, 0
1, 20126, Note_on_c, 0, 85, 0
1, 20128, Note_on_c, 0, 86, 69
1, 20158, Note_on_c, 0, 86, 0
1, 20160, Note_on_c, 0, 81, 69
1, 20160, Note_on_c, 1, 78, 69
1, 20190, Note_on_c, 0, 81, 0
1, 20192, Note_on_c, 0, 85, 69
1, 20199, Note_on_c, 1, 78, 0
1, 20222, Note_on_c, 0, 85, 0
1, 20224, Note_on_c, 0, 86, 69
1, 20254, Note_on_c, 0, 86, 0
1, 20256, Note_on_c, 0, 79, 85
1, 20256, Note_on_c, 1, 76, 85
1, 20286, Note_on_c, 0, 79, 0
1, 20288, Note_on_c, 0, 83, 85
1, 20318, Note_on_c, 0, 83, 0
1, 20320, Note_on_c, 0, 84, 85
1, 20350, Note_on_c, 0, 84, 0
1, 20352, Note_on_c, 0, 78, 69
1, 20352, Note_on_c, 1, 76, 0
1, 20352, Note_on_c, 1, 74, 69
1, 20382, Note_on_c, 0, 78, 0
1, 20384, Note_on_c, 0, 82, 69
1, 20391, Note_on_c, 1, 74, 0
1, 20414, Note_on_c, 0, 82, 0
1, 20416, Note_on_c, 0, 83, 69
1, 20446, Note_on_c, 0, 83, 0
1, 20448, Note_on_c, 0, 78, 69
1, 20448, Note_on_c, 1, 74, 69
1, 20478, Note_on_c, 0, 78, 0
1, 20480, Note_on_c, 0, 82, 69
1, 20487, Note_on_c, 1, 74, 0
1, 20510, Note_on_c, 0, 82, 0
1, 20512, Note_on_c, 0, 83, 69
1, 20542, Note_on_c, 0, 83, 0
1, 20544, Note_on_c, 0, 78, 69
1, 20544, Note_on_c, 1, 74, 69
1, 20574, Note_on_c, 0, 78, 0
1, 20576, Note_on_c, 0, 82, 69
1, 20583, Note_on_c, 1, 74, 0
1, 20606, Note_on_c, 0, 82, 0
1, 20608, Note_on_c, 0, 83, 69
1, 20638, Note_on_c, 0, 83, 0
1, 20640, Note_on_c, 0, 79, 85
1, 20640, Note_on_c, 1, 76, 85
1, 20670, Note_on_c, 0, 79, 0
1, 20672, Note_on_c, 0, 83, 85
1, 20702, Note_on_c, 0, 83, 0
1, 20704, Note_on_c, 0, 84, 85
1, 20734, Note_on_c, 0, 84, 0
1, 20736, Note_on_c, 0, 78, 69
1, 20736, Note_on_c, 1, 76, 0
1, 20736, Note_on_c, 1, 74, 69
1, 20766, Note_on_c, 0, 78, 0
1, 20768, Note_on_c, 0, 82, 69
1, 20775, Note_on_c, 1, 74, 0
1, 20798, Note_on_c, 0, 82, 0
1, 20800, Note_on_c, 0, 83, 69
1, 20830, Note_on_c, 0, 83, 0
1, 20832, Note_on_c, 0, 78, 69
1, 20832, Note_on_c, 1, 74, 69
1, 20862, Note_on_c, 0, 78, 0
1, 20864, Note_on_c, 0, 82, 69
1, 20871, Note_on_c, 1, 74, 0
1, 20894, Note_on_c, 0, 82, 0
1, 20896, Note_on_c, 0, 83, 69
1, 20926, Note_on_c, 0, 83, 0
1, 20928, Note_on_c, 0, 78, 69
1, 20928, Note_on_c, 1, 74, 69
1, 20958, Note_on_c, 0, 78, 0
1, 20960, Note_on_c, 0, 82, 69
1, 20967, Note_on_c, 1, 74, 0
1, 20990, Note_on_c, 0, 82, 0
1, 20992, Note_on_c, 0, 83, 69
1, 21022, Note_on_c, 0, 83, 0
1, 21024, Note_on_c, 0, 76, 85
1, 21024, Note_on_c, 1, 72, 85
1, 21054, Note_on_c, 0, 76, 0
1, 21056, Note_on_c, 0, 80, 85
1, 21086, Note_on_c, 0, 80, 0
1, 21088, Note_on_c, 0, 81, 85
1, 21118, Note_on_c, 0, 81, 0
1, 21120, Note_on_c, 0, 74, 69
1, 21120, Note_on_c, 1, 72, 0
1, 21120, Note_on_c, 1, 71, 69
1, 21150, Note_on_c, 0, 74, 0
1, 21152, Note_on_c, 0, 78, 69
1, 21159, Note_on_c, 1, 71, 0
1, 21182, Note_on_c, 0, 78, 0
1, 21184, Note_on_c, 0, 79, 69
1, 21214, Note_on_c, 0, 79, 0
1, 21216, Note_on_c, 0, 74, 69
1, 21216, Note_on_c, 1, 71, 69
1, 21246, Note_on_c, 0, 74, 0
1, 21248, Note_on_c, 0, 78, 69
1, 21255, Note_on_c, 1, 71, 0
1, 21278, Note_on_c, 0, 78, 0
1, 21280, Note_on_c, 0, 79, 69
1, 21310, Note_on_c, 0, 79, 0
1, 21312, Note_on_c, 0, 74, 69
1, 21312, Note_on_c, 1, 71, 69
1, 21342, Note_on_c, 0, 74, 0
1, 21344, Note_on_c, 0, 78, 69
1, 21351, Note_on_c, 1, 71, 0
1, 21374, Note_on_c, 0, 78, 0
1, 21376, Note_on_c, 0, 79, 69
1, 21406, Note_on_c, 0, 79, 0
1, 21408, Note_on_c, 0, 76, 85
1, 21408, Note_on_c, 1, 72, 85
1, 21438, Note_on_c, 0, 76, 0
1, 21440, Note_on_c, 0, 80, 85
1, 21470, Note_on_c, 0, 80, 0
1, 21472, Note_on_c, 0, 81, 85
1, 21502, Note_on_c, 0, 81, 0
1, 21504, Note_on_c, 0, 74, 69
1, 21504, Note_on_c, 1, 72, 0
1, 21504, Note_on_c, 1, 71, 69
1, 21534, Note_on_c, 0, 74, 0
1, 21536, Note_on_c, 0, 78, 69
1, 21543, Note_on_c, 1, 71, 0
1, 21566, Note_on_c, 0, 78, 0
1, 21568, Note_on_c, 0, 79, 69
1, 21598, Note_on_c, 0, 79, 0
1, 21600, Note_on_c, 0, 74, 69
1, 21600, Note_on_c, 1, 71, 69
1, 21630, Note_on_c, 0, 74, 0
1, 21632, Note_on_c, 0, 78, 69
1, 21639, Note_on_c, 1, 71, 0
1, 21662, Note_on_c, 0, 78, 0
1, 21664, Note_on_c, 0, 79, 69
1, 21694, Note_on_c, 0, 79, 0
1, 21696, Note_on_c, 0, 74, 69
1, 21696, Note_on_c, 1, 71, 69
1, 21726, Note_on_c, 0, 74, 0
1, 21728, Note_on_c, 0, 78, 69
1, 21735, Note_on_c, 1, 71, 0
1, 21758, Note_on_c, 0, 78, 0
1, 21760, Note_on_c, 0, 79, 69
1, 21790, Note_on_c, 0, 79, 0
1, 21792, Note_on_c, 0, 76, 85
1, 21792, Note_on_c, 1, 72, 85
1, 21822, Note_on_c, 0, 76, 0
1, 21824, Note_on_c, 0, 80, 85
1, 21854, Note_on_c, 0, 80, 0
1, 21856, Note_on_c, 0, 81, 85
1, 21886, Note_on_c, 0, 81, 0
1, 21888, Note_on_c, 0, 74, 69
1, 21888, Note_on_c, 1, 72, 0
1, 21888, Note_on_c, 1, 71, 69
1, 21918, Note_on_c, 0, 74, 0
1, 21920, Note_on_c, 0, 78, 70
1, 21927, Note_on_c, 1, 71, 0
1, 21950, Note_on_c, 0, 78, 0
1, 21952, Note_on_c, 0, 79, 72
1, 21982, Note_on_c, 0, 79, 0
1, 21984, Note_on_c, 0, 74, 74
1, 21984, Note_on_c, 1, 66, 72
1, 22014, Note_on_c, 0, 74, 0
1, 22016, Note_on_c, 0, 80, 75
1, 22046, Note_on_c, 0, 80, 0
1, 22048, Note_on_c, 0, 81, 77
1, 22073, Note_on_c, 1, 66, 0
1, 22078, Note_on_c, 0, 81, 0
1, 22080, Note_on_c, 0, 74, 79
1, 22080, Note_on_c, 1, 67, 75
1, 22110, Note_on_c, 0, 74, 0
1, 22112, Note_on_c, 0, 82, 80
1, 22142, Note_on_c, 0, 82, 0
1, 22144, Note_on_c, 0, 83, 82
1, 22169, Note_on_c, 1, 67, 0
1, 22174, Note_on_c, 0, 83, 0
1, 22176, Note_on_c, 0, 74, 84
1, 22176, Note_on_c, 1, 69, 78
1, 22206, Note_on_c, 0, 74, 0
1, 22208, Note_on_c, 0, 83, 85
1, 22238, Note_on_c, 0, 83, 0
1, 22240, Note_on_c, 0, 84, 87
1, 22265, Note_on_c, 1, 69, 0
1, 22270, Note_on_c, 0, 84, 0
1, 22272, Note_on_c, 0, 74, 89
1, 22272, Note_on_c, 1, 71, 81
1, 22302, Note_on_c, 0, 74, 0
1, 22304, Note_on_c, 0, 85, 92
1, 22334, Note_on_c, 0, 85, 0
1, 22336, Note_on_c, 0, 86, 92
1, 22361, Note_on_c, 1, 71, 0
1, 22366, Note_on_c, 0, 86, 0
1, 22368, Note_on_c, 0, 84, 92
1, 22398, Note_on_c, 0, 84, 0
1, 22400, Note_on_c, 0, 83, 92
1, 22430, Note_on_c, 0, 83, 0
1, 22432, Note_on_c, 0, 81, 92
1, 22462, Note_on_c, 0, 81, 0
1, 22464, Note_on_c, 0, 79, 92
1, 22494, Note_on_c, 0, 79, 0
1, 22496, Note_on_c, 0, 78, 92
1, 22526, Note_on_c, 0, 78, 0
1, 22528, Note_on_c, 0, 76, 92
1, 22558, Note_on_c, 0, 76, 0
1, 22560, Note_on_c, 0, 74, 92
1, 22590, Note_on_c, 0, 74, 0
1, 22592, Note_on_c, 0, 72, 92
1, 22622, Note_on_c, 0, 72, 0
1, 22624, Note_on_c, 0, 71, 92
1, 22654, Note_on_c, 0, 71, 0
1, 22656, Note_on_c, 0, 69, 85
1, 22656, Note_on_c, 1, 48, 64
1, 22686, Note_on_c, 0, 69, 0
1, 22688, Note_on_c, 0, 76, 83
1, 22718, Note_on_c, 0, 76, 0
1, 22720, Note_on_c, 0, 74, 82
1, 22750, Note_on_c, 0, 74, 0
1, 22752, Note_on_c, 0, 72, 81
1, 22752, Note_on_c, 1, 60, 81
1, 22782, Note_on_c, 0, 72, 0
1, 22784, Note_on_c, 0, 71, 80
1, 22814, Note_on_c, 0, 71, 0
1, 22816, Note_on_c, 0, 69, 78
1, 22833, Note_on_c, 1, 48, 0
1, 22841, Note_on_c, 1, 60, 0
1, 22846, Note_on_c, 0, 69, 0
1, 22848, Note_on_c, 0, 67, 77
1, 22848, Note_on_c, 1, 59, 77
1, 22848, Note_on_c, 1, 50, 64
1, 22937, Note_on_c, 0, 67, 0
1, 22937, Note_on_c, 1, 59, 0
1, 22944, Note_on_c, 0, 66, 73
1, 22944, Note_on_c, 1, 57, 73
1, 22956, Note_on_c, 0, 66, 0
1, 22956, Note_on_c, 0, 67, 73
1, 22968, Note_on_c, 0, 67, 0
1, 22968, Note_on_c, 0, 66, 73
1, 23025, Note_on_c, 1, 50, 0
1, 23033, Note_on_c, 0, 66, 0
1, 23033, Note_on_c, 1, 57, 0
1, 23040, Note_on_c, 1, 55, 85
1, 23040, Note_on_c, 1, 50, 85
1, 23040, Note_on_c, 1, 47, 85
1, 23072, Note_on_c, 0, 85, 85
1, 23102, Note_on_c, 0, 85, 0
1, 23104, Note_on_c, 0, 86, 85
1, 23134, Note_on_c, 0, 86, 0
1, 23136, Note_on_c, 0, 84, 85
1, 23166, Note_on_c, 0, 84, 0
1, 23168, Note_on_c, 0, 83, 85
1, 23198, Note_on_c, 0, 83, 0
1, 23200, Note_on_c, 0, 81, 85
1, 23217, Note_on_c, 1, 55, 0
1, 23217, Note_on_c, 1, 50, 0
1, 23217, Note_on_c, 1, 47, 0
1, 23230, Note_on_c, 0, 81, 0
1, 23232, Note_on_c, 0, 79, 85
1, 23262, Note_on_c, 0, 79, 0
1, 23264, Note_on_c, 0, 78, 85
1, 23294, Note_on_c, 0, 78, 0
1, 23296, Note_on_c, 0, 76, 85
1, 23326, Note_on_c, 0, 76, 0
1, 23328, Note_on_c, 0, 74, 85
1, 23358, Note_on_c, 0, 74, 0
1, 23360, Note_on_c, 0, 72, 85
1, 23390, Note_on_c, 0, 72, 0
1, 23392, Note_on_c, 0, 71, 85
1, 23422, Note_on_c, 0, 71, 0
1, 23424, Note_on_c, 0, 69, 85
1, 23424, Note_on_c, 1, 48, 64
1, 23454, Note_on_c, 0, 69, 0
1, 23456, Note_on_c, 0, 76, 83
1, 23486, Note_on_c, 0, 76, 0
1, 23488, Note_on_c, 0, 74, 82
1, 23518, Note_on_c, 0, 74, 0
1, 23520, Note_on_c, 0, 72, 81
1, 23520, Note_on_c, 1, 60, 81
1, 23550, Note_on_c, 0, 72, 0
1, 23552, Note_on_c, 0, 71, 80
1, 23582, Note_on_c, 0, 71, 0
1, 23584, Note_on_c, 0, 69, 78
1, 23601, Note_on_c, 1, 48, 0
1, 23609, Note_on_c, 1, 60, 0
1, 23614, Note_on_c, 0, 69, 0
1, 23616, Note_on_c, 0, 67, 77
1, 23616, Note_on_c, 1, 59, 77
1, 23616, Note_on_c, 1, 50, 64
1, 23705, Note_on_c, 0, 67, 0
1, 23705, Note_on_c, 1, 59, 0
1, 23712, Note_on_c, 0, 66, 73
1, 23712, Note_on_c, 1, 57, 73
1, 23724, Note_on_c, 0, 66, 0
1, 23724, Note_on_c, 0, 67, 73
1, 23736, Note_on_c, 0, 67, 0
1, 23736, Note_on_c, 0, 66, 73
1, 23793, Note_on_c, 1, 50, 0
1, 23801, Note_on_c, 0, 66, 0
1, 23801, Note_on_c, 1, 57, 0
1, 23808, Note_on_c, 0, 67, 69
1, 23808, Note_on_c, 1, 55, 74
1, 23838, Note_on_c, 1, 55, 0
1, 23840, Note_on_c, 1, 59, 74
1, 23870, Note_on_c, 1, 59, 0
1, 23872, Note_on_c, 1, 62, 74
1, 23897, Note_on_c, 0, 67, 0
1, 23902, Note_on_c, 1, 62, 0
1, 23904, Note_on_c, 1, 55, 74
1, 23934, Note_on_c, 1, 55, 0
1, 23936, Note_on_c, 1, 59, 74
1, 23966, Note_on_c, 1, 59, 0
1, 23968, Note_on_c, 1, 62, 74
1, 23998, Note_on_c, 1, 62, 0
1, 24000, Note_on_c, 1, 55, 74
1, 24030, Note_on_c, 1, 55, 0
1, 24032, Note_on_c, 1, 59, 74
1, 24062, Note_on_c, 1, 59, 0
1, 24064, Note_on_c, 1, 62, 74
1, 24094, Note_on_c, 1, 62, 0
1, 24096, Note_on_c, 0, 74, 79
1, 24096, Note_on_c, 1, 50, 74
1, 24126, Note_on_c, 1, 50, 0
1, 24128, Note_on_c, 1, 54, 74
1, 24158, Note_on_c, 1, 54, 0
1, 24160, Note_on_c, 1, 62, 74
1, 24163, Note_on_c, 0, 74, 0
1, 24168, Note_on_c, 0, 78, 79
1, 24190, Note_on_c, 1, 62, 0
1, 24191, Note_on_c, 0, 78, 0
1, 24192, Note_on_c, 0, 79, 79
1, 24192, Note_on_c, 1, 55, 74
1, 24222, Note_on_c, 1, 55, 0
1, 24224, Note_on_c, 1, 59, 74
1, 24231, Note_on_c, 0, 79, 0
1, 24254, Note_on_c, 1, 59, 0
1, 24256, Note_on_c, 1, 62, 74
1, 24286, Note_on_c, 1, 62, 0
1, 24288, Note_on_c, 0, 79, 79
1, 24288, Note_on_c, 1, 55, 74
1, 24318, Note_on_c, 1, 55, 0
1, 24320, Note_on_c, 1, 59, 74
1, 24327, Note_on_c, 0, 79, 0
1, 24350, Note_on_c, 1, 59, 0
1, 24352, Note_on_c, 1, 62, 74
1, 24382, Note_on_c, 1, 62, 0
1, 24384, Note_on_c, 0, 79, 79
1, 24384, Note_on_c, 1, 55, 74
1, 24414, Note_on_c, 1, 55, 0
1, 24416, Note_on_c, 1, 59, 74
1, 24423, Note_on_c, 0, 79, 0
1, 24446, Note_on_c, 1, 59, 0
1, 24448, Note_on_c, 1, 62, 74
1, 24478, Note_on_c, 1, 62, 0
1, 24480, Note_on_c, 0, 83, 79
1, 24480, Note_on_c, 1, 50, 74
1, 24492, Note_on_c, 0, 83, 0
1, 24492, Note_on_c, 0, 81, 79
1, 24504, Note_on_c, 0, 81, 0
1, 24504, Note_on_c, 0, 79, 79
1, 24510, Note_on_c, 1, 50, 0
1, 24512, Note_on_c, 1, 54, 74
1, 24516, Note_on_c, 0, 79, 0
1, 24516, Note_on_c, 0, 81, 79
1, 24542, Note_on_c, 1, 54, 0
1, 24544, Note_on_c, 1, 62, 74
1, 24547, Note_on_c, 0, 81, 0
1, 24552, Note_on_c, 0, 86, 79
1, 24574, Note_on_c, 1, 62, 0
1, 24575, Note_on_c, 0, 86, 0
1, 24576, Note_on_c, 0, 83, 79
1, 24576, Note_on_c, 1, 55, 74
1, 24606, Note_on_c, 1, 55, 0
1, 24608, Note_on_c, 1, 59, 74
1, 24615, Note_on_c, 0, 83, 0
1, 24638, Note_on_c, 1, 59, 0
1, 24640, Note_on_c, 1, 62, 74
1, 24670, Note_on_c, 1, 62, 0
1, 24672, Note_on_c, 0, 79, 79
1, 24672, Note_on_c, 1, 55, 74
1, 24702, Note_on_c, 1, 55, 0
1, 24704, Note_on_c, 1, 59, 74
1, 24711, Note_on_c, 0, 79, 0
1, 24734, Note_on_c, 1, 59, 0
1, 24736, Note_on_c, 1, 62, 74
1, 24766, Note_on_c, 1, 62, 0
1, 24768, Note_on_c, 0, 79, 79
1, 24768, Note_on_c, 1, 55, 74
1, 24798, Note_on_c, 1, 55, 0
1, 24800, Note_on_c, 1, 59, 74
1, 24807, Note_on_c, 0, 79, 0
1, 24830, Note_on_c, 1, 59, 0
1, 24832, Note_on_c, 1, 62, 74
1, 24862, Note_on_c, 1, 62, 0
1, 24864, Note_on_c, 0, 74, 79
1, 24864, Note_on_c, 1, 50, 74
1, 24894, Note_on_c, 1, 50, 0
1, 24896, Note_on_c, 1, 54, 74
1, 24926, Note_on_c, 1, 54, 0
1, 24928, Note_on_c, 1, 62, 74
1, 24931, Note_on_c, 0, 74, 0
1, 24936, Note_on_c, 0, 78, 79
1, 24958, Note_on_c, 1, 62, 0
1, 24959, Note_on_c, 0, 78, 0
1, 24960, Note_on_c, 0, 79, 79
1, 24960, Note_on_c, 1, 55, 74
1, 24990, Note_on_c, 1, 55, 0
1, 24992, Note_on_c, 1, 59, 74
1, 24999, Note_on_c, 0, 79, 0
1, 25022, Note_on_c, 1, 59, 0
1, 25024, Note_on_c, 1, 62, 74
1, 25054, Note_on_c, 1, 62, 0
1, 25056, Note_on_c, 0, 79, 79
1, 25056, Note_on_c, 1, 55, 74
1, 25086, Note_on_c, 1, 55, 0
1, 25088, Note_on_c, 1, 59, 74
1, 25095, Note_on_c, 0, 79, 0
1, 25118, Note_on_c, 1, 59, 0
1, 25120, Note_on_c, 1, 62, 74
1, 25150, Note_on_c, 1, 62, 0
1, 25152, Note_on_c, 0, 79, 79
1, 25152, Note_on_c, 1, 55, 74
1, 25182, Note_on_c, 1, 55, 0
1, 25184, Note_on_c, 1, 59, 74
1, 25191, Note_on_c, 0, 79, 0
1, 25214, Note_on_c, 1, 59, 0
1, 25216, Note_on_c, 1, 62, 74
1, 25246, Note_on_c, 1, 62, 0
1, 25248, Note_on_c, 0, 83, 79
1, 25248, Note_on_c, 1, 50, 74
1, 25260, Note_on_c, 0, 83, 0
1, 25260, Note_on_c, 0, 81, 79
1, 25272, Note_on_c, 0, 81, 0
1, 25272, Note_on_c, 0, 79, 79
1, 25278, Note_on_c, 1, 50, 0
1, 25280, Note_on_c, 1, 54, 74
1, 25284, Note_on_c, 0, 79, 0
1, 25284, Note_on_c, 0, 81, 79
1, 25310, Note_on_c, 1, 54, 0
1, 25312, Note_on_c, 1, 62, 74
1, 25315, Note_on_c, 0, 81, 0
1, 25320, Note_on_c, 0, 86, 79
1, 25342, Note_on_c, 1, 62, 0
1, 25343, Note_on_c, 0, 86, 0
1, 25344, Note_on_c, 0, 79, 79
1, 25344, Note_on_c, 1, 55, 74
1, 25374, Note_on_c, 1, 55, 0
1, 25376, Note_on_c, 1, 59, 74
1, 25406, Note_on_c, 1, 59, 0
1, 25408, Note_on_c, 1, 62, 74
1, 25433, Note_on_c, 0, 79, 0
1, 25438, Note_on_c, 1, 62, 0
1, 25440, Note_on_c, 1, 55, 74
1, 25470, Note_on_c, 1, 55, 0
1, 25472, Note_on_c, 1, 59, 74
1, 25502, Note_on_c, 1, 59, 0
1, 25504, Note_on_c, 1, 62, 74
1, 25534, Note_on_c, 1, 62, 0
1, 25536, Note_on_c, 0, 74, 79
1, 25536, Note_on_c, 0, 71, 79
1, 25536, Note_on_c, 1, 55, 74
1, 25566, Note_on_c, 1, 55, 0
1, 25568, Note_on_c, 1, 59, 74
1, 25598, Note_on_c, 1, 59, 0
1, 25600, Note_on_c, 1, 62, 74
1, 25625, Note_on_c, 0, 74, 0
1, 25625, Note_on_c, 0, 71, 0
1, 25630, Note_on_c, 1, 62, 0
1, 25632, Note_on_c, 1, 55, 74
1, 25662, Note_on_c, 1, 55, 0
1, 25664, Note_on_c, 1, 59, 74
1, 25694, Note_on_c, 1, 59, 0
1, 25696, Note_on_c, 1, 62, 74
1, 25726, Note_on_c, 1, 62, 0
1, 25728, Note_on_c, 0, 71, 79
1, 25728, Note_on_c, 0, 67, 79
1, 25728, Note_on_c, 1, 55, 74
1, 25861, Note_on_c, 0, 71, 0
1, 25861, Note_on_c, 0, 67, 0
1, 25861, Note_on_c, 1, 55, 0
1, 26016, Note_on_c, 0, 72, 79
1, 26083, Note_on_c, 0, 72, 0
1, 26088, Note_on_c, 0, 76, 79
1, 26111, Note_on_c, 0, 76, 0
1, 26112, Note_on_c, 0, 79, 79
1, 26112, Note_on_c, 1, 64, 74
1, 26112, Note_on_c, 1, 60, 74
1, 26151, Note_on_c, 0, 79, 0
1, 26201, Note_on_c, 1, 64, 0
1, 26201, Note_on_c, 1, 60, 0
1, 26208, Note_on_c, 0, 79, 79
1, 26247, Note_on_c, 0, 79, 0
1, 26304, Note_on_c, 0, 79, 79
1, 26343, Note_on_c, 0, 79, 0
1, 26400, Note_on_c, 0, 83, 85
1, 26412, Note_on_c, 0, 83, 0
1, 26412, Note_on_c, 0, 84, 85
1, 26439, Note_on_c, 0, 84, 0
1, 26496, Note_on_c, 0, 79, 79
1, 26496, Note_on_c, 1, 64, 74
1, 26496, Note_on_c, 1, 60, 74
1, 26535, Note_on_c, 0, 79, 0
1, 26535, Note_on_c, 1, 64, 0
1, 26535, Note_on_c, 1, 60, 0
1, 26592, Note_on_c, 0, 79, 79
1, 26631, Note_on_c, 0, 79, 0
1, 26688, Note_on_c, 0, 79, 79
1, 26727, Note_on_c, 0, 79, 0
1, 26784, Note_on_c, 0, 76, 79
1, 26851, Note_on_c, 0, 76, 0
1, 26856, Note_on_c, 0, 72, 79
1, 26879, Note_on_c, 0, 72, 0
1, 26880, Note_on_c, 0, 71, 79
1, 26880, Note_on_c, 1, 65, 74
1, 26880, Note_on_c, 1, 62, 74
1, 26880, Note_on_c, 1, 55, 74
1, 26919, Note_on_c, 0, 71, 0
1, 26919, Note_on_c, 1, 65, 0
1, 26919, Note_on_c, 1, 62, 0
1, 26919, Note_on_c, 1, 55, 0
1, 26976, Note_on_c, 0, 71, 80
1, 26976, Note_on_c, 1, 65, 75
1, 26976, Note_on_c, 1, 62, 75
1, 26976, Note_on_c, 1, 55, 75
1, 27015, Note_on_c, 0, 71, 0
1, 27015, Note_on_c, 1, 65, 0
1, 27015, Note_on_c, 1, 62, 0
1, 27015, Note_on_c, 1, 55, 0
1, 27072, Note_on_c, 0, 72, 82
1, 27072, Note_on_c, 1, 64, 76
1, 27072, Note_on_c, 1, 60, 76
1, 27072, Note_on_c, 1, 55, 76
1, 27111, Note_on_c, 0, 72, 0
1, 27111, Note_on_c, 1, 64, 0
1, 27111, Note_on_c, 1, 60, 0
1, 27111, Note_on_c, 1, 55, 0
1, 27168, Note_on_c, 0, 72, 83
1, 27168, Note_on_c, 1, 64, 77
1, 27168, Note_on_c, 1, 60, 77
1, 27168, Note_on_c, 1, 55, 77
1, 27207, Note_on_c, 0, 72, 0
1, 27207, Note_on_c, 1, 64, 0
1, 27207, Note_on_c, 1, 60, 0
1, 27207, Note_on_c, 1, 55, 0
1, 27264, Note_on_c, 0, 74, 85
1, 27264, Note_on_c, 1, 62, 79
1, 27264, Note_on_c, 1, 59, 79
1, 27264, Note_on_c, 1, 55, 79
1, 27353, Note_on_c, 0, 74, 0
1, 27353, Note_on_c, 1, 62, 0
1, 27353, Note_on_c, 1, 59, 0
1, 27353, Note_on_c, 1, 55, 0
1, 27552, Note_on_c, 0, 67, 79
1, 27619, Note_on_c, 0, 67, 0
1, 27624, Note_on_c, 0, 74, 79
1, 27647, Note_on_c, 0, 74, 0
1, 27648, Note_on_c, 0, 77, 79
1, 27648, Note_on_c, 1, 67, 74
1, 27648, Note_on_c, 1, 59, 74
1, 27687, Note_on_c, 0, 77, 0
1, 27687, Note_on_c, 1, 67, 0
1, 27687, Note_on_c, 1, 59, 0
1, 27744, Note_on_c, 0, 77, 79
1, 27816, Note_on_c, 0, 77, 0
1, 27816, Note_on_c, 0, 79, 79
1, 27839, Note_on_c, 0, 79, 0
1, 27840, Note_on_c, 0, 76, 79
1, 27840, Note_on_c, 1, 67, 74
1, 27840, Note_on_c, 1, 60, 74
1, 27879, Note_on_c, 0, 76, 0
1, 27879, Note_on_c, 1, 67, 0
1, 27879, Note_on_c, 1, 60, 0
1, 27936, Note_on_c, 0, 76, 79
1, 28008, Note_on_c, 0, 76, 0
1, 28008, Note_on_c, 0, 77, 79
1, 28031, Note_on_c, 0, 77, 0
1, 28032, Note_on_c, 0, 74, 79
1, 28032, Note_on_c, 1, 67, 74
1, 28032, Note_on_c, 1, 65, 74
1, 28052, Note_on_c, 0, 74, 0
1, 28071, Note_on_c, 1, 67, 0
1, 28071, Note_on_c, 1, 65, 0
1, 28080, Note_on_c, 0, 76, 79
1, 28095, Note_on_c, 0, 76, 0
1, 28096, Note_on_c, 0, 74, 79
1, 28111, Note_on_c, 0, 74, 0
1, 28112, Note_on_c, 0, 72, 79
1, 28127, Note_on_c, 0, 72, 0
1, 28128, Note_on_c, 0, 74, 79
1, 28200, Note_on_c, 0, 74, 0
1, 28200, Note_on_c, 0, 76, 79
1, 28223, Note_on_c, 0, 76, 0
1, 28224, Note_on_c, 0, 72, 79
1, 28224, Note_on_c, 1, 67, 74
1, 28224, Note_on_c, 1, 64, 74
1, 28263, Note_on_c, 0, 72, 0
1, 28263, Note_on_c, 1, 67, 0
1, 28263, Note_on_c, 1, 64, 0
1, 28320, Note_on_c, 0, 72, 80
1, 28320, Note_on_c, 1, 67, 74
1, 28320, Note_on_c, 1, 64, 74
1, 28359, Note_on_c, 0, 72, 0
1, 28359, Note_on_c, 1, 67, 0
1, 28359, Note_on_c, 1, 64, 0
1, 28416, Note_on_c, 0, 74, 81
1, 28416, Note_on_c, 1, 65, 74
1, 28416, Note_on_c, 1, 53, 74
1, 28455, Note_on_c, 0, 74, 0
1, 28505, Note_on_c, 1, 65, 0
1, 28505, Note_on_c, 1, 53, 0
1, 28512, Note_on_c, 0, 74, 82
1, 28512, Note_on_c, 1, 65, 74
1, 28512, Note_on_c, 1, 53, 74
1, 28551, Note_on_c, 0, 74, 0
1, 28601, Note_on_c, 1, 65, 0
1, 28601, Note_on_c, 1, 53, 0
1, 28608, Note_on_c, 0, 71, 83
1, 28608, Note_on_c, 1, 62, 74
1, 28608, Note_on_c, 1, 55, 74
1, 28647, Note_on_c, 0, 71, 0
1, 28697, Note_on_c, 1, 62, 0
1, 28697, Note_on_c, 1, 55, 0
1, 28704, Note_on_c, 0, 71, 84
1, 28704, Note_on_c, 1, 62, 74
1, 28704, Note_on_c, 1, 55, 74
1, 28743, Note_on_c, 0, 71, 0
1, 28793, Note_on_c, 1, 62, 0
1, 28793, Note_on_c, 1, 55, 0
1, 28800, Note_on_c, 0, 72, 85
1, 28800, Note_on_c, 1, 60, 69
1, 28830, Note_on_c, 1, 60, 0
1, 28832, Note_on_c, 1, 64, 69
1, 28839, Note_on_c, 0, 72, 0
1, 28862, Note_on_c, 1, 64, 0
1, 28864, Note_on_c, 1, 67, 69
1, 28894, Note_on_c, 1, 67, 0
1, 28896, Note_on_c, 1, 60, 69
1, 28926, Note_on_c, 1, 60, 0
1, 28928, Note_on_c, 1, 64, 69
1, 28958, Note_on_c, 1, 64, 0
1, 28960, Note_on_c, 1, 67, 69
1, 28990, Note_on_c, 1, 67, 0
1, 28992, Note_on_c, 1, 60, 69
1, 29022, Note_on_c, 1, 60, 0
1, 29024, Note_on_c, 1, 64, 69
1, 29054, Note_on_c, 1, 64, 0
1, 29056, Note_on_c, 1, 67, 69
1, 29086, Note_on_c, 1, 67, 0
1, 29088, Note_on_c, 0, 72, 85
1, 29088, Note_on_c, 1, 60, 69
1, 29111, Note_on_c, 0, 72, 0
1, 29112, Note_on_c, 0, 74, 85
1, 29118, Note_on_c, 1, 60, 0
1, 29120, Note_on_c, 1, 64, 69
1, 29135, Note_on_c, 0, 74, 0
1, 29136, Note_on_c, 0, 76, 85
1, 29150, Note_on_c, 1, 64, 0
1, 29152, Note_on_c, 1, 67, 69
1, 29159, Note_on_c, 0, 76, 0
1, 29160, Note_on_c, 0, 77, 85
1, 29182, Note_on_c, 1, 67, 0
1, 29183, Note_on_c, 0, 77, 0
1, 29184, Note_on_c, 0, 79, 85
1, 29184, Note_on_c, 1, 60, 69
1, 29214, Note_on_c, 1, 60, 0
1, 29216, Note_on_c, 1, 64, 69
1, 29223, Note_on_c, 0, 79, 0
1, 29246, Note_on_c, 1, 64, 0
1, 29248, Note_on_c, 1, 67, 69
1, 29278, Note_on_c, 1, 67, 0
1, 29280, Note_on_c, 0, 79, 85
1, 29280, Note_on_c, 1, 60, 69
1, 29310, Note_on_c, 1, 60, 0
1, 29312, Note_on_c, 1, 64, 69
1, 29319, Note_on_c, 0, 79, 0
1, 29342, Note_on_c, 1, 64, 0
1, 29344, Note_on_c, 1, 67, 69
1, 29374, Note_on_c, 1, 67, 0
1, 29376, Note_on_c, 0, 79, 85
1, 29376, Note_on_c, 1, 60, 69
1, 29406, Note_on_c, 1, 60, 0
1, 29408, Note_on_c, 1, 64, 69
1, 29415, Note_on_c, 0, 79, 0
1, 29438, Note_on_c, 1, 64, 0
1, 29440, Note_on_c, 1, 67, 69
1, 29470, Note_on_c, 1, 67, 0
1, 29472, Note_on_c, 0, 83, 85
1, 29472, Note_on_c, 1, 60, 69
1, 29484, Note_on_c, 0, 83, 0
1, 29484, Note_on_c, 0, 84, 85
1, 29502, Note_on_c, 1, 60, 0
1, 29504, Note_on_c, 1, 64, 69
1, 29511, Note_on_c, 0, 84, 0
1, 29534, Note_on_c, 1, 64, 0
1, 29536, Note_on_c, 1, 67, 69
1, 29566, Note_on_c, 1, 67, 0
1, 29568, Note_on_c, 0, 79, 79
1, 29568, Note_on_c, 1, 60, 69
1, 29598, Note_on_c, 1, 60, 0
1, 29600, Note_on_c, 1, 64, 69
1, 29607, Note_on_c, 0, 79, 0
1, 29630, Note_on_c, 1, 64, 0
1, 29632, Note_on_c, 1, 67, 69
1, 29662, Note_on_c, 1, 67, 0
1, 29664, Note_on_c, 0, 79, 79
1, 29664, Note_on_c, 1, 60, 69
1, 29694, Note_on_c, 1, 60, 0
1, 29696, Note_on_c, 1, 64, 69
1, 29703, Note_on_c, 0, 79, 0
1, 29726, Note_on_c, 1, 64, 0
1, 29728, Note_on_c, 1, 67, 69
1, 29758, Note_on_c, 1, 67, 0
1, 29760, Note_on_c, 0, 79, 79
1, 29760, Note_on_c, 1, 60, 69
1, 29780, Note_on_c, 0, 79, 0
1, 29790, Note_on_c, 1, 60, 0
1, 29792, Note_on_c, 1, 64, 69
1, 29808, Note_on_c, 0, 81, 79
1, 29822, Note_on_c, 1, 64, 0
1, 29824, Note_on_c, 1, 67, 69
1, 29831, Note_on_c, 0, 81, 0
1, 29832, Note_on_c, 0, 79, 79
1, 29854, Note_on_c, 1, 67, 0
1, 29855, Note_on_c, 0, 79, 0
1, 29856, Note_on_c, 0, 77, 79
1, 29856, Note_on_c, 1, 60, 69
1, 29879, Note_on_c, 0, 77, 0
1, 29880, Note_on_c, 0, 76, 79
1, 29886, Note_on_c, 1, 60, 0
1, 29888, Note_on_c, 1, 64, 69
1, 29903, Note_on_c, 0, 76, 0
1, 29904, Note_on_c, 0, 74, 79
1, 29918, Note_on_c, 1, 64, 0
1, 29920, Note_on_c, 1, 67, 69
1, 29927, Note_on_c, 0, 74, 0
1, 29928, Note_on_c, 0, 72, 79
1, 29950, Note_on_c, 1, 67, 0
1, 29951, Note_on_c, 0, 72, 0
1, 29952, Note_on_c, 0, 71, 79
1, 29952, Note_on_c, 1, 62, 69
1, 29982, Note_on_c, 1, 62, 0
1, 29984, Note_on_c, 1, 65, 69
1, 30014, Note_on_c, 1, 65, 0
1, 30016, Note_on_c, 1, 67, 69
1, 30019, Note_on_c, 0, 71, 0
1, 30024, Note_on_c, 0, 79, 80
1, 30046, Note_on_c, 1, 67, 0
1, 30047, Note_on_c, 0, 79, 0
1, 30048, Note_on_c, 0, 81, 80
1, 30048, Note_on_c, 1, 62, 70
1, 30071, Note_on_c, 0, 81, 0
1, 30072, Note_on_c, 0, 79, 80
1, 30078, Note_on_c, 1, 62, 0
1, 30080, Note_on_c, 1, 65, 70
1, 30095, Note_on_c, 0, 79, 0
1, 30096, Note_on_c, 0, 78, 81
1, 30110, Note_on_c, 1, 65, 0
1, 30112, Note_on_c, 1, 67, 70
1, 30119, Note_on_c, 0, 78, 0
1, 30120, Note_on_c, 0, 79, 81
1, 30142, Note_on_c, 1, 67, 0
1, 30143, Note_on_c, 0, 79, 0
1, 30144, Note_on_c, 0, 72, 82
1, 30144, Note_on_c, 1, 60, 71
1, 30174, Note_on_c, 1, 60, 0
1, 30176, Note_on_c, 1, 64, 71
1, 30206, Note_on_c, 1, 64, 0
1, 30208, Note_on_c, 1, 67, 72
1, 30211, Note_on_c, 0, 72, 0
1, 30216, Note_on_c, 0, 79, 83
1, 30238, Note_on_c, 1, 67, 0
1, 30239, Note_on_c, 0, 79, 0
1, 30240, Note_on_c, 0, 81, 83
1, 30240, Note_on_c, 1, 60, 72
1, 30263, Note_on_c, 0, 81, 0
1, 30264, Note_on_c, 0, 79, 83
1, 30270, Note_on_c, 1, 60, 0
1, 30272, Note_on_c, 1, 64, 72
1, 30287, Note_on_c, 0, 79, 0
1, 30288, Note_on_c, 0, 78, 84
1, 30302, Note_on_c, 1, 64, 0
1, 30304, Note_on_c, 1, 67, 73
1, 30311, Note_on_c, 0, 78, 0
1, 30312, Note_on_c, 0, 79, 84
1, 30334, Note_on_c, 1, 67, 0
1, 30335, Note_on_c, 0, 79, 0
1, 30336, Note_on_c, 0, 74, 85
1, 30336, Note_on_c, 1, 59, 74
1, 30425, Note_on_c, 0, 74, 0
1, 30425, Note_on_c, 1, 59, 0
1, 30624, Note_on_c, 0, 67, 85
1, 30691, Note_on_c, 0, 67, 0
1, 30696, Note_on_c, 0, 74, 85
1, 30719, Note_on_c, 0, 74, 0
1, 30720, Note_on_c, 0, 77, 85
1, 30720, Note_on_c, 1, 55, 69
1, 30750, Note_on_c, 1, 55, 0
1, 30752, Note_on_c, 1, 59, 69
1, 30759, Note_on_c, 0, 77, 0
1, 30782, Note_on_c, 1, 59, 0
1, 30784, Note_on_c, 1, 62, 69
1, 30814, Note_on_c, 1, 62, 0
1, 30816, Note_on_c, 0, 77, 85
1, 30816, Note_on_c, 1, 55, 69
1, 30846, Note_on_c, 1, 55, 0
1, 30848, Note_on_c, 1, 59, 69
1, 30878, Note_on_c, 1, 59, 0
1, 30880, Note_on_c, 1, 62, 69
1, 30888, Note_on_c, 0, 77, 0
1, 30888, Note_on_c, 0, 79, 85
1, 30910, Note_on_c, 1, 62, 0
1, 30911, Note_on_c, 0, 79, 0
1, 30912, Note_on_c, 0, 76, 85
1, 30912, Note_on_c, 1, 55, 69
1, 30942, Note_on_c, 1, 55, 0
1, 30944, Note_on_c, 1, 60, 69
1, 30951, Note_on_c, 0, 76, 0
1, 30974, Note_on_c, 1, 60, 0
1, 30976, Note_on_c, 1, 64, 69
1, 31006, Note_on_c, 1, 64, 0
1, 31008, Note_on_c, 0, 76, 85
1, 31008, Note_on_c, 1, 55, 69
1, 31038, Note_on_c, 1, 55, 0
1, 31040, Note_on_c, 1, 60, 69
1, 31070, Note_on_c, 1, 60, 0
1, 31072, Note_on_c, 1, 64, 69
1, 31080, Note_on_c, 0, 76, 0
1, 31080, Note_on_c, 0, 77, 85
1, 31102, Note_on_c, 1, 64, 0
1, 31103, Note_on_c, 0, 77, 0
1, 31104, Note_on_c, 0, 74, 85
1, 31104, Note_on_c, 1, 55, 69
1, 31124, Note_on_c, 0, 74, 0
1, 31134, Note_on_c, 1, 55, 0
1, 31136, Note_on_c, 1, 62, 69
1, 31152, Note_on_c, 0, 76, 85
1, 31166, Note_on_c, 1, 62, 0
1, 31167, Note_on_c, 0, 76, 0
1, 31168, Note_on_c, 0, 74, 86
1, 31168, Note_on_c, 1, 65, 69
1, 31183, Note_on_c, 0, 74, 0
1, 31184, Note_on_c, 0, 72, 86
1, 31198, Note_on_c, 1, 65, 0
1, 31199, Note_on_c, 0, 72, 0
1, 31200, Note_on_c, 0, 74, 86
1, 31200, Note_on_c, 1, 55, 69
1, 31230, Note_on_c, 1, 55, 0
1, 31232, Note_on_c, 1, 62, 69
1, 31262, Note_on_c, 1, 62, 0
1, 31264, Note_on_c, 1, 65, 69
1, 31272, Note_on_c, 0, 74, 0
1, 31272, Note_on_c, 0, 76, 88
1, 31294, Note_on_c, 1, 65, 0
1, 31295, Note_on_c, 0, 76, 0
1, 31296, Note_on_c, 0, 72, 88
1, 31296, Note_on_c, 1, 57, 69
1, 31326, Note_on_c, 1, 57, 0
1, 31328, Note_on_c, 1, 60, 69
1, 31358, Note_on_c, 1, 60, 0
1, 31360, Note_on_c, 1, 64, 69
1, 31363, Note_on_c, 0, 72, 0
1, 31368, Note_on_c, 0, 74, 89
1, 31390, Note_on_c, 1, 64, 0
1, 31391, Note_on_c, 0, 74, 0
1, 31392, Note_on_c, 0, 76, 90
1, 31392, Note_on_c, 1, 57, 69
1, 31422, Note_on_c, 1, 57, 0
1, 31424, Note_on_c, 1, 60, 69
1, 31454, Note_on_c, 1, 60, 0
1, 31456, Note_on_c, 1, 64, 69
1, 31459, Note_on_c, 0, 76, 0
1, 31464, Note_on_c, 0, 72, 91
1, 31486, Note_on_c, 1, 64, 0
1, 31487, Note_on_c, 0, 72, 0
1, 31488, Note_on_c, 0, 74, 91
1, 31488, Note_on_c, 1, 53, 69
1, 31518, Note_on_c, 1, 53, 0
1, 31520, Note_on_c, 1, 57, 69
1, 31527, Note_on_c, 0, 74, 0
1, 31550, Note_on_c, 1, 57, 0
1, 31552, Note_on_c, 1, 62, 69
1, 31582, Note_on_c, 1, 62, 0
1, 31584, Note_on_c, 0, 74, 90
1, 31584, Note_on_c, 1, 53, 69
1, 31614, Note_on_c, 1, 53, 0
1, 31616, Note_on_c, 1, 57, 69
1, 31623, Note_on_c, 0, 74, 0
1, 31646, Note_on_c, 1, 57, 0
1, 31648, Note_on_c, 1, 62, 69
1, 31678, Note_on_c, 1, 62, 0
1, 31680, Note_on_c, 0, 67, 88
1, 31680, Note_on_c, 1, 55, 69
1, 31710, Note_on_c, 1, 55, 0
1, 31712, Note_on_c, 1, 62, 69
1, 31742, Note_on_c, 1, 62, 0
1, 31744, Note_on_c, 1, 65, 69
1, 31747, Note_on_c, 0, 67, 0
1, 31752, Note_on_c, 0, 69, 87
1, 31774, Note_on_c, 1, 65, 0
1, 31775, Note_on_c, 0, 69, 0
1, 31776, Note_on_c, 0, 71, 86
1, 31776, Note_on_c, 1, 55, 69
1, 31806, Note_on_c, 1, 55, 0
1, 31808, Note_on_c, 1, 62, 69
1, 31838, Note_on_c, 1, 62, 0
1, 31840, Note_on_c, 1, 65, 69
1, 31843, Note_on_c, 0, 71, 0
1, 31848, Note_on_c, 0, 67, 85
1, 31870, Note_on_c, 1, 65, 0
1, 31871, Note_on_c, 0, 67, 0
1, 31872, Note_on_c, 0, 72, 79
1, 31872, Note_on_c, 1, 64, 74
1, 31872, Note_on_c, 1, 60, 64
1, 32049, Note_on_c, 1, 64, 0
1, 32064, Note_on_c, 1, 70, 74
1, 32137, Note_on_c, 0, 72, 0
1, 32160, Note_on_c, 0, 84, 82
1, 32183, Note_on_c, 0, 84, 0
1, 32184, Note_on_c, 0, 83, 82
1, 32207, Note_on_c, 0, 83, 0
1, 32208, Note_on_c, 0, 81, 83
1, 32231, Note_on_c, 0, 81, 0
1, 32232, Note_on_c, 0, 79, 83
1, 32241, Note_on_c, 1, 70, 0
1, 32255, Note_on_c, 0, 79, 0
1, 32256, Note_on_c, 0, 77, 83
1, 32256, Note_on_c, 1, 69, 74
1, 32295, Note_on_c, 0, 77, 0
1, 32352, Note_on_c, 0, 77, 84
1, 32375, Note_on_c, 0, 77, 0
1, 32376, Note_on_c, 0, 76, 85
1, 32399, Note_on_c, 0, 76, 0
1, 32400, Note_on_c, 0, 74, 84
1, 32423, Note_on_c, 0, 74, 0
1, 32424, Note_on_c, 0, 72, 83
1, 32433, Note_on_c, 1, 69, 0
1, 32447, Note_on_c, 0, 72, 0
1, 32448, Note_on_c, 0, 71, 83
1, 32448, Note_on_c, 1, 65, 74
1, 32487, Note_on_c, 0, 71, 0
1, 32544, Note_on_c, 0, 71, 81
1, 32567, Note_on_c, 0, 71, 0
1, 32568, Note_on_c, 0, 72, 80
1, 32591, Note_on_c, 0, 72, 0
1, 32592, Note_on_c, 0, 74, 80
1, 32610, Note_on_c, 1, 60, 0
1, 32615, Note_on_c, 0, 74, 0
1, 32616, Note_on_c, 0, 71, 79
1, 32625, Note_on_c, 1, 65, 0
1, 32639, Note_on_c, 0, 71, 0
1, 32640, Note_on_c, 0, 72, 79
1, 32640, Note_on_c, 1, 64, 74
1, 32640, Note_on_c, 1, 60, 64
1, 32663, Note_on_c, 0, 72, 0
1, 32664, Note_on_c, 0, 74, 79
1, 32687, Note_on_c, 0, 74, 0
1, 32688, Note_on_c, 0, 72, 79
1, 32711, Note_on_c, 0, 72, 0
1, 32712, Note_on_c, 0, 71, 80
1, 32735, Note_on_c, 0, 71, 0
1, 32736, Note_on_c, 0, 72, 80
1, 32759, Note_on_c, 0, 72, 0
1, 32760, Note_on_c, 0, 74, 81
1, 32783, Note_on_c, 0, 74, 0
1, 32784, Note_on_c, 0, 76, 81
1, 32807, Note_on_c, 0, 76, 0
1, 32808, Note_on_c, 0, 77, 81
1, 32817, Note_on_c, 1, 64, 0
1, 32831, Note_on_c, 0, 77, 0
1, 32832, Note_on_c, 0, 78, 82
1, 32832, Note_on_c, 1, 70, 74
1, 32855, Note_on_c, 0, 78, 0
1, 32856, Note_on_c, 0, 79, 82
1, 32879, Note_on_c, 0, 79, 0
1, 32880, Note_on_c, 0, 78, 83
1, 32903, Note_on_c, 0, 78, 0
1, 32904, Note_on_c, 0, 79, 83
1, 32927, Note_on_c, 0, 79, 0
1, 32928, Note_on_c, 0, 84, 83
1, 32951, Note_on_c, 0, 84, 0
1, 32952, Note_on_c, 0, 82, 84
1, 32975, Note_on_c, 0, 82, 0
1, 32976, Note_on_c, 0, 81, 84
1, 32999, Note_on_c, 0, 81, 0
1, 33000, Note_on_c, 0, 79, 85
1, 33009, Note_on_c, 1, 70, 0
1, 33023, Note_on_c, 0, 79, 0
1, 33024, Note_on_c, 0, 77, 84
1, 33024, Note_on_c, 1, 69, 74
1, 33047, Note_on_c, 0, 77, 0
1, 33048, Note_on_c, 0, 79, 84
1, 33071, Note_on_c, 0, 79, 0
1, 33072, Note_on_c, 0, 81, 83
1, 33095, Note_on_c, 0, 81, 0
1, 33096, Note_on_c, 0, 79, 83
1, 33119, Note_on_c, 0, 79, 0
1, 33120, Note_on_c, 0, 77, 83
1, 33143, Note_on_c, 0, 77, 0
1, 33144, Note_on_c, 0, 76, 82
1, 33167, Note_on_c, 0, 76, 0
1, 33168, Note_on_c, 0, 74, 82
1, 33191, Note_on_c, 0, 74, 0
1, 33192, Note_on_c, 0, 72, 82
1, 33201, Note_on_c, 1, 69, 0
1, 33215, Note_on_c, 0, 72, 0
1, 33216, Note_on_c, 0, 71, 81
1, 33216, Note_on_c, 1, 65, 74
1, 33239, Note_on_c, 0, 71, 0
1, 33240, Note_on_c, 0, 69, 81
1, 33263, Note_on_c, 0, 69, 0
1, 33264, Note_on_c, 0, 67, 80
1, 33287, Note_on_c, 0, 67, 0
1, 33288, Note_on_c, 0, 69, 80
1, 33311, Note_on_c, 0, 69, 0
1, 33312, Note_on_c, 0, 71, 80
1, 33335, Note_on_c, 0, 71, 0
1, 33336, Note_on_c, 0, 72, 79
1, 33359, Note_on_c, 0, 72, 0
1, 33360, Note_on_c, 0, 74, 79
1, 33378, Note_on_c, 1, 60, 0
1, 33383, Note_on_c, 0, 74, 0
1, 33384, Note_on_c, 0, 71, 79
1, 33393, Note_on_c, 1, 65, 0
1, 33407, Note_on_c, 0, 71, 0
1, 33408, Note_on_c, 0, 72, 79
1, 33408, Note_on_c, 1, 60, 69
1, 33438, Note_on_c, 1, 60, 0
1, 33440, Note_on_c, 1, 64, 69
1, 33447, Note_on_c, 0, 72, 0
1, 33470, Note_on_c, 1, 64, 0
1, 33472, Note_on_c, 1, 67, 69
1, 33502, Note_on_c, 1, 67, 0
1, 33504, Note_on_c, 0, 72, 79
1, 33504, Note_on_c, 1, 60, 69
1, 33534, Note_on_c, 1, 60, 0
1, 33536, Note_on_c, 1, 64, 69
1, 33543, Note_on_c, 0, 72, 0
1, 33566, Note_on_c, 1, 64, 0
1, 33568, Note_on_c, 1, 67, 69
1, 33598, Note_on_c, 1, 67, 0
1, 33600, Note_on_c, 0, 72, 79
1, 33600, Note_on_c, 1, 60, 69
1, 33630, Note_on_c, 1, 60, 0
1, 33632, Note_on_c, 1, 64, 69
1, 33639, Note_on_c, 0, 72, 0
1, 33662, Note_on_c, 1, 64, 0
1, 33664, Note_on_c, 1, 67, 69
1, 33694, Note_on_c, 1, 67, 0
1, 33696, Note_on_c, 0, 76, 79
1, 33696, Note_on_c, 1, 59, 69
1, 33720, Note_on_c, 0, 76, 0
1, 33720, Note_on_c, 0, 74, 79
1, 33726, Note_on_c, 1, 59, 0
1, 33728, Note_on_c, 1, 62, 69
1, 33744, Note_on_c, 0, 74, 0
1, 33744, Note_on_c, 0, 72, 79
1, 33758, Note_on_c, 1, 62, 0
1, 33760, Note_on_c, 1, 67, 69
1, 33768, Note_on_c, 0, 72, 0
1, 33768, Note_on_c, 0, 74, 79
1, 33790, Note_on_c, 1, 67, 0
1, 33792, Note_on_c, 0, 74, 0
1, 33792, Note_on_c, 0, 76, 79
1, 33792, Note_on_c, 1, 60, 69
1, 33822, Note_on_c, 1, 60, 0
1, 33824, Note_on_c, 1, 64, 69
1, 33854, Note_on_c, 1, 64, 0
1, 33856, Note_on_c, 1, 67, 69
1, 33881, Note_on_c, 0, 76, 0
1, 33886, Note_on_c, 1, 67, 0
1, 33888, Note_on_c, 0, 72, 79
1, 33888, Note_on_c, 1, 60, 69
1, 33918, Note_on_c, 1, 60, 0
1, 33920, Note_on_c, 1, 64, 69
1, 33927, Note_on_c, 0, 72, 0
1, 33950, Note_on_c, 1, 64, 0
1, 33952, Note_on_c, 1, 67, 69
1, 33982, Note_on_c, 1, 67, 0
1, 33984, Note_on_c, 0, 72, 79
1, 33984, Note_on_c, 1, 60, 69
1, 34014, Note_on_c, 1, 60, 0
1, 34016, Note_on_c, 1, 64, 69
1, 34023, Note_on_c, 0, 72, 0
1, 34046, Note_on_c, 1, 64, 0
1, 34048, Note_on_c, 1, 67, 69
1, 34078, Note_on_c, 1, 67, 0
1, 34080, Note_on_c, 0, 76, 79
1, 34080, Note_on_c, 1, 59, 69
1, 34104, Note_on_c, 0, 76, 0
1, 34104, Note_on_c, 0, 74, 79
1, 34110, Note_on_c, 1, 59, 0
1, 34112, Note_on_c, 1, 62, 69
1, 34128, Note_on_c, 0, 74, 0
1, 34128, Note_on_c, 0, 72, 79
1, 34142, Note_on_c, 1, 62, 0
1, 34144, Note_on_c, 1, 67, 69
1, 34152, Note_on_c, 0, 72, 0
1, 34152, Note_on_c, 0, 74, 79
1, 34174, Note_on_c, 1, 67, 0
1, 34176, Note_on_c, 0, 74, 0
1, 34176, Note_on_c, 0, 76, 79
1, 34176, Note_on_c, 1, 60, 69
1, 34206, Note_on_c, 1, 60, 0
1, 34208, Note_on_c, 1, 64, 69
1, 34238, Note_on_c, 1, 64, 0
1, 34240, Note_on_c, 1, 67, 69
1, 34265, Note_on_c, 0, 76, 0
1, 34270, Note_on_c, 1, 67, 0
1, 34272, Note_on_c, 0, 72, 79
1, 34272, Note_on_c, 1, 60, 69
1, 34302, Note_on_c, 1, 60, 0
1, 34304, Note_on_c, 1, 64, 69
1, 34311, Note_on_c, 0, 72, 0
1, 34334, Note_on_c, 1, 64, 0
1, 34336, Note_on_c, 1, 67, 69
1, 34366, Note_on_c, 1, 67, 0
1, 34368, Note_on_c, 0, 72, 79
1, 34368, Note_on_c, 1, 60, 69
1, 34398, Note_on_c, 1, 60, 0
1, 34400, Note_on_c, 1, 64, 69
1, 34407, Note_on_c, 0, 72, 0
1, 34430, Note_on_c, 1, 64, 0
1, 34432, Note_on_c, 1, 67, 69
1, 34462, Note_on_c, 1, 67, 0
1, 34464, Note_on_c, 0, 76, 79
1, 34464, Note_on_c, 1, 59, 69
1, 34488, Note_on_c, 0, 76, 0
1, 34488, Note_on_c, 0, 74, 79
1, 34494, Note_on_c, 1, 59, 0
1, 34496, Note_on_c, 1, 62, 69
1, 34512, Note_on_c, 0, 74, 0
1, 34512, Note_on_c, 0, 72, 79
1, 34526, Note_on_c, 1, 62, 0
1, 34528, Note_on_c, 1, 67, 69
1, 34536, Note_on_c, 0, 72, 0
1, 34536, Note_on_c, 0, 74, 79
1, 34558, Note_on_c, 1, 67, 0
1, 34560, Note_on_c, 0, 74, 0
1, 34560, Note_on_c, 0, 76, 79
1, 34560, Note_on_c, 1, 60, 69
1, 34590, Note_on_c, 1, 60, 0
1, 34592, Note_on_c, 1, 64, 69
1, 34622, Note_on_c, 1, 64, 0
1, 34624, Note_on_c, 1, 67, 69
1, 34649, Note_on_c, 0, 76, 0
1, 34654, Note_on_c, 1, 67, 0
1, 34656, Note_on_c, 0, 76, 79
1, 34656, Note_on_c, 1, 60, 70
1, 34686, Note_on_c, 1, 60, 0
1, 34688, Note_on_c, 1, 64, 70
1, 34695, Note_on_c, 0, 76, 0
1, 34718, Note_on_c, 1, 64, 0
1, 34720, Note_on_c, 1, 67, 71
1, 34750, Note_on_c, 1, 67, 0
1, 34752, Note_on_c, 0, 76, 79
1, 34752, Note_on_c, 1, 60, 71
1, 34782, Note_on_c, 1, 60, 0
1, 34784, Note_on_c, 1, 64, 72
1, 34791, Note_on_c, 0, 76, 0
1, 34814, Note_on_c, 1, 64, 0
1, 34816, Note_on_c, 1, 67, 72
1, 34846, Note_on_c, 1, 67, 0
1, 34848, Note_on_c, 0, 79, 79
1, 34848, Note_on_c, 1, 60, 73
1, 34872, Note_on_c, 0, 79, 0
1, 34872, Note_on_c, 0, 78, 79
1, 34878, Note_on_c, 1, 60, 0
1, 34880, Note_on_c, 1, 62, 74
1, 34896, Note_on_c, 0, 78, 0
1, 34896, Note_on_c, 0, 76, 79
1, 34910, Note_on_c, 1, 62, 0
1, 34912, Note_on_c, 1, 66, 74
1, 34920, Note_on_c, 0, 76, 0
1, 34920, Note_on_c, 0, 78, 79
1, 34942, Note_on_c, 1, 66, 0
1, 34944, Note_on_c, 0, 78, 0
1, 34944, Note_on_c, 0, 79, 79
1, 34944, Note_on_c, 1, 59, 74
1, 34974, Note_on_c, 1, 59, 0
1, 34976, Note_on_c, 1, 62, 74
1, 35006, Note_on_c, 1, 62, 0
1, 35008, Note_on_c, 1, 67, 74
1, 35033, Note_on_c, 0, 79, 0
1, 35038, Note_on_c, 1, 67, 0
1, 35040, Note_on_c, 0, 79, 79
1, 35040, Note_on_c, 1, 59, 74
1, 35070, Note_on_c, 1, 59, 0
1, 35072, Note_on_c, 1, 62, 74
1, 35079, Note_on_c, 0, 79, 0
1, 35102, Note_on_c, 1, 62, 0
1, 35104, Note_on_c, 1, 67, 74
1, 35134, Note_on_c, 1, 67, 0
1, 35136, Note_on_c, 0, 79, 79
1, 35136, Note_on_c, 1, 59, 74
1, 35166, Note_on_c, 1, 59, 0
1, 35168, Note_on_c, 1, 62, 74
1, 35175, Note_on_c, 0, 79, 0
1, 35198, Note_on_c, 1, 62, 0
1, 35200, Note_on_c, 1, 67, 74
1, 35230, Note_on_c, 1, 67, 0
1, 35232, Note_on_c, 0, 83, 79
1, 35232, Note_on_c, 1, 54, 74
1, 35256, Note_on_c, 0, 83, 0
1, 35256, Note_on_c, 0, 81, 79
1, 35262, Note_on_c, 1, 54, 0
1, 35264, Note_on_c, 1, 57, 74
1, 35280, Note_on_c, 0, 81, 0
1, 35280, Note_on_c, 0, 79, 79
1, 35294, Note_on_c, 1, 57, 0
1, 35296, Note_on_c, 1, 60, 74
1, 35304, Note_on_c, 0, 79, 0
1, 35304, Note_on_c, 0, 81, 79
1, 35326, Note_on_c, 1, 60, 0
1, 35328, Note_on_c, 0, 81, 0
1, 35328, Note_on_c, 0, 83, 79
1, 35328, Note_on_c, 1, 55, 74
1, 35358, Note_on_c, 1, 55, 0
1, 35360, Note_on_c, 1, 59, 74
1, 35390, Note_on_c, 1, 59, 0
1, 35392, Note_on_c, 1, 62, 74
1, 35417, Note_on_c, 0, 83, 0
1, 35422, Note_on_c, 1, 62, 0
1, 35424, Note_on_c, 0, 79, 79
1, 35424, Note_on_c, 1, 55, 74
1, 35454, Note_on_c, 1, 55, 0
1, 35456, Note_on_c, 1, 59, 74
1, 35463, Note_on_c, 0, 79, 0
1, 35486, Note_on_c, 1, 59, 0
1, 35488, Note_on_c, 1, 62, 74
1, 35518, Note_on_c, 1, 62, 0
1, 35520, Note_on_c, 0, 79, 79
1, 35520, Note_on_c, 1, 55, 74
1, 35550, Note_on_c, 1, 55, 0
1, 35552, Note_on_c, 1, 59, 74
1, 35559, Note_on_c, 0, 79, 0
1, 35582, Note_on_c, 1, 59, 0
1, 35584, Note_on_c, 1, 62, 74
1, 35614, Note_on_c, 1, 62, 0
1, 35616, Note_on_c, 0, 83, 79
1, 35616, Note_on_c, 1, 54, 74
1, 35640, Note_on_c, 0, 83, 0
1, 35640, Note_on_c, 0, 81, 79
1, 35646, Note_on_c, 1, 54, 0
1, 35648, Note_on_c, 1, 57, 74
1, 35664, Note_on_c, 0, 81, 0
1, 35664, Note_on_c, 0, 79, 79
1, 35678, Note_on_c, 1, 57, 0
1, 35680, Note_on_c, 1, 60, 74
1, 35688, Note_on_c, 0, 79, 0
1, 35688, Note_on_c, 0, 81, 79
1, 35710, Note_on_c, 1, 60, 0
1, 35712, Note_on_c, 0, 81, 0
1, 35712, Note_on_c, 0, 83, 79
1, 35712, Note_on_c, 1, 55, 74
1, 35742, Note_on_c, 1, 55, 0
1, 35744, Note_on_c, 1, 59, 74
1, 35774, Note_on_c, 1, 59, 0
1, 35776, Note_on_c, 1, 62, 74
1, 35801, Note_on_c, 0, 83, 0
1, 35806, Note_on_c, 1, 62, 0
1, 35808, Note_on_c, 0, 79, 79
1, 35808, Note_on_c, 1, 55, 74
1, 35838, Note_on_c, 1, 55, 0
1, 35840, Note_on_c, 1, 59, 74
1, 35847, Note_on_c, 0, 79, 0
1, 35870, Note_on_c, 1, 59, 0
1, 35872, Note_on_c, 1, 62, 74
1, 35902, Note_on_c, 1, 62, 0
1, 35904, Note_on_c, 0, 79, 79
1, 35904, Note_on_c, 1, 55, 74
1, 35934, Note_on_c, 1, 55, 0
1, 35936, Note_on_c, 1, 59, 74
1, 35943, Note_on_c, 0, 79, 0
1, 35966, Note_on_c, 1, 59, 0
1, 35968, Note_on_c, 1, 62, 74
1, 35998, Note_on_c, 1, 62, 0
1, 36000, Note_on_c, 0, 79, 79
1, 36000, Note_on_c, 1, 55, 74
1, 36030, Note_on_c, 0, 79, 0
1, 36030, Note_on_c, 1, 55, 0
1, 36032, Note_on_c, 0, 83, 79
1, 36032, Note_on_c, 1, 59, 74
1, 36062, Note_on_c, 0, 83, 0
1, 36062, Note_on_c, 1, 59, 0
1, 36064, Note_on_c, 0, 86, 79
1, 36064, Note_on_c, 1, 62, 74
1, 36094, Note_on_c, 0, 86, 0
1, 36094, Note_on_c, 1, 62, 0
1, 36096, Note_on_c, 0, 84, 79
1, 36096, Note_on_c, 1, 54, 74
1, 36126, Note_on_c, 1, 54, 0
1, 36128, Note_on_c, 1, 57, 74
1, 36135, Note_on_c, 0, 84, 0
1, 36158, Note_on_c, 1, 57, 0
1, 36160, Note_on_c, 1, 62, 74
1, 36190, Note_on_c, 1, 62, 0
1, 36192, Note_on_c, 0, 84, 79
1, 36192, Note_on_c, 1, 54, 74
1, 36222, Note_on_c, 1, 54, 0
1, 36224, Note_on_c, 1, 57, 74
1, 36254, Note_on_c, 1, 57, 0
1, 36256, Note_on_c, 1, 62, 74
1, 36264, Note_on_c, 0, 84, 0
1, 36264, Note_on_c, 0, 86, 79
1, 36286, Note_on_c, 1, 62, 0
1, 36287, Note_on_c, 0, 86, 0
1, 36288, Note_on_c, 0, 83, 79
1, 36288, Note_on_c, 1, 55, 74
1, 36318, Note_on_c, 1, 55, 0
1, 36320, Note_on_c, 1, 59, 74
1, 36327, Note_on_c, 0, 83, 0
1, 36350, Note_on_c, 1, 59, 0
1, 36352, Note_on_c, 1, 62, 74
1, 36382, Note_on_c, 1, 62, 0
1, 36384, Note_on_c, 0, 83, 79
1, 36384, Note_on_c, 1, 55, 74
1, 36414, Note_on_c, 1, 55, 0
1, 36416, Note_on_c, 1, 59, 74
1, 36446, Note_on_c, 1, 59, 0
1, 36448, Note_on_c, 1, 62, 74
1, 36456, Note_on_c, 0, 83, 0
1, 36456, Note_on_c, 0, 84, 79
1, 36478, Note_on_c, 1, 62, 0
1, 36479, Note_on_c, 0, 84, 0
1, 36480, Note_on_c, 0, 81, 79
1, 36480, Note_on_c, 1, 60, 74
1, 36510, Note_on_c, 1, 60, 0
1, 36512, Note_on_c, 1, 62, 74
1, 36542, Note_on_c, 1, 62, 0
1, 36544, Note_on_c, 1, 66, 74
1, 36569, Note_on_c, 0, 81, 0
1, 36574, Note_on_c, 1, 66, 0
1, 36576, Note_on_c, 0, 81, 79
1, 36576, Note_on_c, 1, 60, 74
1, 36606, Note_on_c, 1, 60, 0
1, 36608, Note_on_c, 1, 62, 74
1, 36638, Note_on_c, 1, 62, 0
1, 36640, Note_on_c, 1, 66, 74
1, 36643, Note_on_c, 0, 81, 0
1, 36648, Note_on_c, 0, 83, 79
1, 36670, Note_on_c, 1, 66, 0
1, 36671, Note_on_c, 0, 83, 0
1, 36672, Note_on_c, 0, 79, 79
1, 36672, Note_on_c, 1, 59, 74
1, 36702, Note_on_c, 1, 59, 0
1, 36704, Note_on_c, 1, 62, 74
1, 36734, Note_on_c, 1, 62, 0
1, 36736, Note_on_c, 1, 67, 74
1, 36761, Note_on_c, 0, 79, 0
1, 36766, Note_on_c, 1, 67, 0
1, 36768, Note_on_c, 0, 79, 79
1, 36768, Note_on_c, 1, 59, 74
1, 36798, Note_on_c, 0, 79, 0
1, 36798, Note_on_c, 1, 59, 0
1, 36800, Note_on_c, 0, 83, 79
1, 36800, Note_on_c, 1, 62, 74
1, 36830, Note_on_c, 0, 83, 0
1, 36830, Note_on_c, 1, 62, 0
1, 36832, Note_on_c, 0, 86, 79
1, 36832, Note_on_c, 1, 67, 74
1, 36862, Note_on_c, 0, 86, 0
1, 36862, Note_on_c, 1, 67, 0
1, 36864, Note_on_c, 0, 84, 79
1, 36864, Note_on_c, 1, 54, 74
1, 36884, Note_on_c, 0, 84, 0
1, 36894, Note_on_c, 1, 54, 0
1, 36896, Note_on_c, 1, 57, 74
1, 36912, Note_on_c, 0, 86, 79
1, 36926, Note_on_c, 1, 57, 0
1, 36927, Note_on_c, 0, 86, 0
1, 36928, Note_on_c, 0, 84, 79
1, 36928, Note_on_c, 1, 62, 74
1, 36943, Note_on_c, 0, 84, 0
1, 36944, Note_on_c, 0, 83, 79
1, 36958, Note_on_c, 1, 62, 0
1, 36959, Note_on_c, 0, 83, 0
1, 36960, Note_on_c, 0, 84, 79
1, 36960, Note_on_c, 1, 54, 74
1, 36990, Note_on_c, 1, 54, 0
1, 36992, Note_on_c, 1, 57, 74
1, 37022, Note_on_c, 1, 57, 0
1, 37024, Note_on_c, 1, 62, 74
1, 37027, Note_on_c, 0, 84, 0
1, 37032, Note_on_c, 0, 86, 79
1, 37054, Note_on_c, 1, 62, 0
1, 37055, Note_on_c, 0, 86, 0
1, 37056, Note_on_c, 0, 83, 79
1, 37056, Note_on_c, 1, 55, 74
1, 37076, Note_on_c, 0, 83, 0
1, 37086, Note_on_c, 1, 55, 0
1, 37088, Note_on_c, 1, 59, 74
1, 37104, Note_on_c, 0, 84, 79
1, 37118, Note_on_c, 1, 59, 0
1, 37119, Note_on_c, 0, 84, 0
1, 37120, Note_on_c, 0, 83, 79
1, 37120, Note_on_c, 1, 62, 74
1, 37135, Note_on_c, 0, 83, 0
1, 37136, Note_on_c, 0, 81, 79
1, 37150, Note_on_c, 1, 62, 0
1, 37151, Note_on_c, 0, 81, 0
1, 37152, Note_on_c, 0, 83, 79
1, 37152, Note_on_c, 1, 55, 74
1, 37182, Note_on_c, 1, 55, 0
1, 37184, Note_on_c, 1, 59, 74
1, 37214, Note_on_c, 1, 59, 0
1, 37216, Note_on_c, 1, 62, 74
1, 37219, Note_on_c, 0, 83, 0
1, 37224, Note_on_c, 0, 84, 79
1, 37246, Note_on_c, 1, 62, 0
1, 37247, Note_on_c, 0, 84, 0
1, 37248, Note_on_c, 0, 81, 79
1, 37248, Note_on_c, 1, 60, 74
1, 37268, Note_on_c, 0, 81, 0
1, 37278, Note_on_c, 1, 60, 0
1, 37280, Note_on_c, 1, 62, 74
1, 37296, Note_on_c, 0, 83, 79
1, 37310, Note_on_c, 1, 62, 0
1, 37311, Note_on_c, 0, 83, 0
1, 37312, Note_on_c, 0, 81, 79
1, 37312, Note_on_c, 1, 66, 74
1, 37327, Note_on_c, 0, 81, 0
1, 37328, Note_on_c, 0, 79, 79
1, 37342, Note_on_c, 1, 66, 0
1, 37343, Note_on_c, 0, 79, 0
1, 37344, Note_on_c, 0, 81, 79
1, 37344, Note_on_c, 1, 60, 75
1, 37374, Note_on_c, 1, 60, 0
1, 37376, Note_on_c, 1, 62, 75
1, 37406, Note_on_c, 1, 62, 0
1, 37408, Note_on_c, 1, 66, 76
1, 37411, Note_on_c, 0, 81, 0
1, 37416, Note_on_c, 0, 83, 79
1, 37438, Note_on_c, 1, 66, 0
1, 37439, Note_on_c, 0, 83, 0
1, 37440, Note_on_c, 0, 79, 79
1, 37440, Note_on_c, 1, 59, 76
1, 37470, Note_on_c, 1, 59, 0
1, 37472, Note_on_c, 1, 62, 77
1, 37479, Note_on_c, 0, 79, 0
1, 37502, Note_on_c, 1, 62, 0
1, 37504, Note_on_c, 1, 67, 77
1, 37534, Note_on_c, 1, 67, 0
1, 37536, Note_on_c, 0, 86, 79
1, 37536, Note_on_c, 1, 59, 77
1, 37566, Note_on_c, 1, 59, 0
1, 37568, Note_on_c, 1, 62, 78
1, 37598, Note_on_c, 1, 62, 0
1, 37600, Note_on_c, 1, 67, 78
1, 37603, Note_on_c, 0, 86, 0
1, 37608, Note_on_c, 0, 83, 79
1, 37630, Note_on_c, 1, 67, 0
1, 37631, Note_on_c, 0, 83, 0
1, 37632, Note_on_c, 0, 81, 79
1, 37632, Note_on_c, 1, 60, 79
1, 37652, Note_on_c, 0, 81, 0
1, 37662, Note_on_c, 1, 60, 0
1, 37664, Note_on_c, 1, 64, 79
1, 37680, Note_on_c, 0, 83, 79
1, 37694, Note_on_c, 1, 64, 0
1, 37695, Note_on_c, 0, 83, 0
1, 37696, Note_on_c, 0, 81, 79
1, 37696, Note_on_c, 1, 69, 80
1, 37711, Note_on_c, 0, 81, 0
1, 37712, Note_on_c, 0, 79, 80
1, 37726, Note_on_c, 1, 69, 0
1, 37727, Note_on_c, 0, 79, 0
1, 37728, Note_on_c, 0, 81, 80
1, 37728, Note_on_c, 1, 60, 80
1, 37758, Note_on_c, 1, 60, 0
1, 37760, Note_on_c, 1, 64, 80
1, 37790, Note_on_c, 1, 64, 0
1, 37792, Note_on_c, 1, 69, 81
1, 37795, Note_on_c, 0, 81, 0
1, 37800, Note_on_c, 0, 83, 81
1, 37822, Note_on_c, 1, 69, 0
1, 37823, Note_on_c, 0, 83, 0
1, 37824, Note_on_c, 0, 79, 81
1, 37824, Note_on_c, 1, 61, 81
1, 37844, Note_on_c, 0, 79, 0
1, 37854, Note_on_c, 1, 61, 0
1, 37856, Note_on_c, 1, 64, 82
1, 37872, Note_on_c, 0, 81, 82
1, 37886, Note_on_c, 1, 64, 0
1, 37887, Note_on_c, 0, 81, 0
1, 37888, Note_on_c, 0, 79, 82
1, 37888, Note_on_c, 1, 69, 82
1, 37903, Note_on_c, 0, 79, 0
1, 37904, Note_on_c, 0, 78, 82
1, 37918, Note_on_c, 1, 69, 0
1, 37919, Note_on_c, 0, 78, 0
1, 37920, Note_on_c, 0, 79, 83
1, 37920, Note_on_c, 1, 61, 83
1, 37950, Note_on_c, 1, 61, 0
1, 37952, Note_on_c, 1, 64, 83
1, 37982, Note_on_c, 1, 64, 0
1, 37984, Note_on_c, 1, 69, 83
1, 37987, Note_on_c, 0, 79, 0
1, 37992, Note_on_c, 0, 81, 84
1, 38014, Note_on_c, 1, 69, 0
1, 38015, Note_on_c, 0, 81, 0
1, 38016, Note_on_c, 0, 78, 85
1, 38016, Note_on_c, 1, 62, 85
1, 38105, Note_on_c, 0, 78, 0
1, 38105, Note_on_c, 1, 62, 0
1, 38184, Note_on_c, 0, 74, 85
1, 38184, Note_on_c, 1, 62, 85
1, 38207, Note_on_c, 0, 74, 0
1, 38207, Note_on_c, 1, 62, 0
1, 38208, Note_on_c, 0, 78, 85
1, 38208, Note_on_c, 1, 66, 85
1, 38275, Note_on_c, 0, 78, 0
1, 38275, Note_on_c, 1, 66, 0
1, 38280, Note_on_c, 0, 74, 85
1, 38280, Note_on_c, 1, 62, 85
1, 38303, Note_on_c, 0, 74, 0
1, 38303, Note_on_c, 1, 62, 0
1, 38304, Note_on_c, 0, 81, 85
1, 38304, Note_on_c, 1, 69, 85
1, 38371, Note_on_c, 0, 81, 0
1, 38371, Note_on_c, 1, 69, 0
1, 38376, Note_on_c, 0, 78, 85
1, 38376, Note_on_c, 1, 66, 85
1, 38399, Note_on_c, 0, 78, 0
1, 38399, Note_on_c, 1, 66, 0
1, 38400, Note_on_c, 0, 86, 85
1, 38400, Note_on_c, 1, 74, 85
1, 38400, Note_on_c, 1, 74, 64
1, 38489, Note_on_c, 0, 86, 0
1, 38489, Note_on_c, 1, 74, 0
1, 38489, Note_on_c, 1, 74, 0
1, 38568, Note_on_c, 0, 62, 85
1, 38568, Note_on_c, 1, 50, 85
1, 38591, Note_on_c, 0, 62, 0
1, 38591, Note_on_c, 1, 50, 0
1, 38592, Note_on_c, 0, 66, 85
1, 38592, Note_on_c, 1, 54, 85
1, 38622, Note_on_c, 0, 66, 0
1, 38622, Note_on_c, 1, 54, 0
1, 38624, Note_on_c, 0, 62, 85
1, 38624, Note_on_c, 1, 50, 85
1, 38654, Note_on_c, 0, 62, 0
1, 38654, Note_on_c, 1, 50, 0
1, 38656, Note_on_c, 0, 66, 85
1, 38656, Note_on_c, 1, 54, 85
1, 38686, Note_on_c, 0, 66, 0
1, 38686, Note_on_c, 1, 54, 0
1, 38688, Note_on_c, 0, 69, 85
1, 38688, Note_on_c, 1, 57, 85
1, 38718, Note_on_c, 0, 69, 0
1, 38718, Note_on_c, 1, 57, 0
1, 38720, Note_on_c, 0, 66, 85
1, 38720, Note_on_c, 1, 54, 85
1, 38750, Note_on_c, 0, 66, 0
1, 38750, Note_on_c, 1, 54, 0
1, 38752, Note_on_c, 0, 69, 85
1, 38752, Note_on_c, 1, 57, 85
1, 38782, Note_on_c, 0, 69, 0
1, 38782, Note_on_c, 1, 57, 0
1, 38784, Note_on_c, 0, 74, 85
1, 38784, Note_on_c, 1, 62, 85
1, 38873, Note_on_c, 0, 74, 0
1, 38873, Note_on_c, 1, 62, 0
1, 38976, Note_on_c, 0, 50, 85
1, 38976, Note_on_c, 1, 38, 85
1, 39034, Note_on_c, 0, 50, 0
1, 39034, Note_on_c, 1, 38, 0
1, 39120, Note_on_c, 0, 50, 85
1, 39120, Note_on_c, 1, 38, 85
1, 39140, Note_on_c, 0, 50, 0
1, 39140, Note_on_c, 1, 38, 0
1, 39168, Note_on_c, 0, 50, 85
1, 39168, Note_on_c, 1, 38, 85
1, 39257, Note_on_c, 0, 50, 0
1, 39257, Note_on_c, 1, 38, 0
1, 39552, Note_on_c, 1, 59, 69
1, 39582, Note_on_c, 1, 59, 0
1, 39584, Note_on_c, 1, 62, 69
1, 39614, Note_on_c, 1, 62, 0
1, 39616, Note_on_c, 1, 67, 69
1, 39646, Note_on_c, 1, 67, 0
1, 39648, Note_on_c, 1, 59, 69
1, 39678, Note_on_c, 1, 59, 0
1, 39680, Note_on_c, 1, 62, 69
1, 39710, Note_on_c, 1, 62, 0
1, 39712, Note_on_c, 1, 67, 69
1, 39742, Note_on_c, 1, 67, 0
1, 39744, Note_on_c, 1, 59, 69
1, 39774, Note_on_c, 1, 59, 0
1, 39776, Note_on_c, 1, 62, 69
1, 39806, Note_on_c, 1, 62, 0
1, 39808, Note_on_c, 1, 67, 69
1, 39838, Note_on_c, 1, 67, 0
1, 39840, Note_on_c, 0, 76, 79
1, 39840, Note_on_c, 1, 60, 69
1, 39863, Note_on_c, 0, 76, 0
1, 39864, Note_on_c, 0, 74, 79
1, 39870, Note_on_c, 1, 60, 0
1, 39872, Note_on_c, 1, 62, 69
1, 39887, Note_on_c, 0, 74, 0
1, 39888, Note_on_c, 0, 73, 79
1, 39902, Note_on_c, 1, 62, 0
1, 39904, Note_on_c, 1, 66, 69
1, 39911, Note_on_c, 0, 73, 0
1, 39912, Note_on_c, 0, 74, 79
1, 39934, Note_on_c, 1, 66, 0
1, 39936, Note_on_c, 0, 74, 0
1, 39936, Note_on_c, 0, 79, 79
1, 39936, Note_on_c, 1, 59, 69
1, 39966, Note_on_c, 1, 59, 0
1, 39968, Note_on_c, 1, 62, 69
1, 39975, Note_on_c, 0, 79, 0
1, 39998, Note_on_c, 1, 62, 0
1, 40000, Note_on_c, 1, 67, 69
1, 40030, Note_on_c, 1, 67, 0
1, 40032, Note_on_c, 0, 79, 79
1, 40032, Note_on_c, 1, 59, 69
1, 40062, Note_on_c, 1, 59, 0
1, 40064, Note_on_c, 1, 62, 69
1, 40094, Note_on_c, 1, 62, 0
1, 40096, Note_on_c, 1, 67, 69
1, 40121, Note_on_c, 0, 79, 0
1, 40126, Note_on_c, 1, 67, 0
1, 40128, Note_on_c, 1, 59, 69
1, 40158, Note_on_c, 1, 59, 0
1, 40160, Note_on_c, 1, 62, 69
1, 40190, Note_on_c, 1, 62, 0
1, 40192, Note_on_c, 1, 67, 69
1, 40222, Note_on_c, 1, 67, 0
1, 40224, Note_on_c, 0, 76, 79
1, 40224, Note_on_c, 1, 60, 69
1, 40247, Note_on_c, 0, 76, 0
1, 40248, Note_on_c, 0, 74, 79
1, 40254, Note_on_c, 1, 60, 0
1, 40256, Note_on_c, 1, 62, 69
1, 40271, Note_on_c, 0, 74, 0
1, 40272, Note_on_c, 0, 73, 79
1, 40286, Note_on_c, 1, 62, 0
1, 40288, Note_on_c, 1, 66, 69
1, 40295, Note_on_c, 0, 73, 0
1, 40296, Note_on_c, 0, 74, 79
1, 40318, Note_on_c, 1, 66, 0
1, 40320, Note_on_c, 0, 74, 0
1, 40320, Note_on_c, 0, 79, 79
1, 40320, Note_on_c, 1, 59, 69
1, 40350, Note_on_c, 1, 59, 0
1, 40352, Note_on_c, 1, 62, 69
1, 40359, Note_on_c, 0, 79, 0
1, 40382, Note_on_c, 1, 62, 0
1, 40384, Note_on_c, 1, 67, 69
1, 40414, Note_on_c, 1, 67, 0
1, 40416, Note_on_c, 0, 79, 79
1, 40416, Note_on_c, 1, 59, 69
1, 40446, Note_on_c, 1, 59, 0
1, 40448, Note_on_c, 1, 62, 69
1, 40478, Note_on_c, 1, 62, 0
1, 40480, Note_on_c, 1, 67, 69
1, 40505, Note_on_c, 0, 79, 0
1, 40510, Note_on_c, 1, 67, 0
1, 40512, Note_on_c, 1, 59, 69
1, 40542, Note_on_c, 1, 59, 0
1, 40544, Note_on_c, 1, 62, 69
1, 40574, Note_on_c, 1, 62, 0
1, 40576, Note_on_c, 1, 67, 69
1, 40606, Note_on_c, 1, 67, 0
1, 40608, Note_on_c, 0, 76, 79
1, 40608, Note_on_c, 1, 60, 69
1, 40631, Note_on_c, 0, 76, 0
1, 40632, Note_on_c, 0, 74, 79
1, 40638, Note_on_c, 1, 60, 0
1, 40640, Note_on_c, 1, 62, 69
1, 40655, Note_on_c, 0, 74, 0
1, 40656, Note_on_c, 0, 73, 79
1, 40670, Note_on_c, 1, 62, 0
1, 40672, Note_on_c, 1, 66, 69
1, 40679, Note_on_c, 0, 73, 0
1, 40680, Note_on_c, 0, 74, 79
1, 40702, Note_on_c, 1, 66, 0
1, 40704, Note_on_c, 0, 74, 0
1, 40704, Note_on_c, 0, 79, 79
1, 40704, Note_on_c, 1, 59, 69
1, 40704, Note_on_c, 1, 59, 64
1, 40734, Note_on_c, 1, 59, 0
1, 40734, Note_on_c, 1, 59, 0
1, 40736, Note_on_c, 1, 62, 69
1, 40736, Note_on_c, 1, 62, 64
1, 40743, Note_on_c, 0, 79, 0
1, 40766, Note_on_c, 1, 62, 0
1, 40766, Note_on_c, 1, 62, 0
1, 40768, Note_on_c, 1, 67, 69
1, 40768, Note_on_c, 1, 67, 64
1, 40798, Note_on_c, 1, 67, 0
1, 40798, Note_on_c, 1, 67, 0
1, 40800, Note_on_c, 0, 81, 79
1, 40800, Note_on_c, 1, 59, 69
1, 40800, Note_on_c, 1, 59, 64
1, 40823, Note_on_c, 0, 81, 0
1, 40824, Note_on_c, 0, 79, 79
1, 40830, Note_on_c, 1, 59, 0
1, 40830, Note_on_c, 1, 59, 0
1, 40832, Note_on_c, 1, 62, 69
1, 40832, Note_on_c, 1, 62, 64
1, 40847, Note_on_c, 0, 79, 0
1, 40848, Note_on_c, 0, 78, 79
1, 40862, Note_on_c, 1, 62, 0
1, 40862, Note_on_c, 1, 62, 0
1, 40864, Note_on_c, 1, 67, 69
1, 40864, Note_on_c, 1, 67, 64
1, 40871, Note_on_c, 0, 78, 0
1, 40872, Note_on_c, 0, 79, 79
1, 40894, Note_on_c, 1, 67, 0
1, 40894, Note_on_c, 1, 67, 0
1, 40896, Note_on_c, 0, 79, 0
1, 40896, Note_on_c, 0, 81, 80
1, 40896, Note_on_c, 1, 54, 69
1, 40926, Note_on_c, 1, 54, 0
1, 40928, Note_on_c, 1, 57, 69
1, 40935, Note_on_c, 0, 81, 0
1, 40958, Note_on_c, 1, 57, 0
1, 40960, Note_on_c, 1, 62, 70
1, 40990, Note_on_c, 1, 62, 0
1, 40992, Note_on_c, 0, 83, 80
1, 40992, Note_on_c, 1, 54, 70
1, 41016, Note_on_c, 0, 83, 0
1, 41016, Note_on_c, 0, 81, 80
1, 41022, Note_on_c, 1, 54, 0
1, 41024, Note_on_c, 1, 57, 71
1, 41040, Note_on_c, 0, 81, 0
1, 41040, Note_on_c, 0, 79, 80
1, 41054, Note_on_c, 1, 57, 0
1, 41056, Note_on_c, 1, 62, 71
1, 41064, Note_on_c, 0, 79, 0
1, 41064, Note_on_c, 0, 81, 80
1, 41086, Note_on_c, 1, 62, 0
1, 41088, Note_on_c, 0, 81, 0
1, 41088, Note_on_c, 0, 83, 81
1, 41088, Note_on_c, 1, 55, 72
1, 41118, Note_on_c, 1, 55, 0
1, 41120, Note_on_c, 1, 59, 72
1, 41127, Note_on_c, 0, 83, 0
1, 41150, Note_on_c, 1, 59, 0
1, 41152, Note_on_c, 1, 62, 73
1, 41182, Note_on_c, 1, 62, 0
1, 41184, Note_on_c, 0, 84, 81
1, 41184, Note_on_c, 1, 55, 74
1, 41208, Note_on_c, 0, 84, 0
1, 41208, Note_on_c, 0, 83, 81
1, 41214, Note_on_c, 1, 55, 0
1, 41216, Note_on_c, 1, 59, 74
1, 41232, Note_on_c, 0, 83, 0
1, 41232, Note_on_c, 0, 81, 81
1, 41246, Note_on_c, 1, 59, 0
1, 41248, Note_on_c, 1, 62, 75
1, 41256, Note_on_c, 0, 81, 0
1, 41256, Note_on_c, 0, 83, 81
1, 41278, Note_on_c, 1, 62, 0
1, 41280, Note_on_c, 0, 83, 0
1, 41280, Note_on_c, 0, 84, 82
1, 41280, Note_on_c, 1, 52, 75
1, 41310, Note_on_c, 1, 52, 0
1, 41312, Note_on_c, 1, 55, 76
1, 41319, Note_on_c, 0, 84, 0
1, 41342, Note_on_c, 1, 55, 0
1, 41344, Note_on_c, 1, 60, 76
1, 41374, Note_on_c, 1, 60, 0
1, 41376, Note_on_c, 0, 86, 82
1, 41376, Note_on_c, 1, 52, 77
1, 41400, Note_on_c, 0, 86, 0
1, 41400, Note_on_c, 0, 84, 82
1, 41406, Note_on_c, 1, 52, 0
1, 41408, Note_on_c, 1, 55, 77
1, 41424, Note_on_c, 0, 84, 0
1, 41424, Note_on_c, 0, 83, 82
1, 41438, Note_on_c, 1, 55, 0
1, 41440, Note_on_c, 1, 60, 78
1, 41448, Note_on_c, 0, 83, 0
1, 41448, Note_on_c, 0, 84, 82
1, 41470, Note_on_c, 1, 60, 0
1, 41472, Note_on_c, 0, 84, 0
1, 41472, Note_on_c, 0, 86, 83
1, 41472, Note_on_c, 1, 47, 79
1, 41502, Note_on_c, 1, 47, 0
1, 41504, Note_on_c, 1, 50, 79
1, 41534, Note_on_c, 1, 50, 0
1, 41536, Note_on_c, 1, 55, 80
1, 41566, Note_on_c, 1, 55, 0
1, 41568, Note_on_c, 1, 47, 80
1, 41598, Note_on_c, 1, 47, 0
1, 41600, Note_on_c, 1, 50, 81
1, 41630, Note_on_c, 1, 50, 0
1, 41632, Note_on_c, 1, 55, 81
1, 41662, Note_on_c, 1, 55, 0
1, 41664, Note_on_c, 1, 47, 82
1, 41737, Note_on_c, 0, 86, 0
1, 41753, Note_on_c, 1, 47, 0
1, 41760, Note_on_c, 0, 87, 85
1, 41760, Note_on_c, 0, 75, 85
1, 41856, Note_on_c, 0, 87, 0
1, 41856, Note_on_c, 0, 75, 0
1, 41856, Note_on_c, 0, 88, 101
1, 41856, Note_on_c, 0, 76, 101
1, 41856, Note_on_c, 1, 48, 85
1, 41945, Note_on_c, 1, 48, 0
1, 41952, Note_on_c, 0, 88, 0
1, 41952, Note_on_c, 0, 76, 0
1, 41952, Note_on_c, 0, 80, 92
1, 41952, Note_on_c, 0, 68, 92
1, 42041, Note_on_c, 0, 80, 0
1, 42041, Note_on_c, 0, 68, 0
1, 42048, Note_on_c, 0, 81, 92
1, 42048, Note_on_c, 0, 69, 92
1, 42137, Note_on_c, 0, 81, 0
1, 42137, Note_on_c, 0, 69, 0
1, 42144, Note_on_c, 0, 83, 92
1, 42144, Note_on_c, 0, 71, 92
1, 42233, Note_on_c, 0, 83, 0
1, 42233, Note_on_c, 0, 71, 0
1, 42240, Note_on_c, 0, 84, 108
1, 42240, Note_on_c, 0, 72, 108
1, 42432, Note_on_c, 0, 84, 0
1, 42432, Note_on_c, 0, 72, 0
1, 42432, Note_on_c, 0, 87, 92
1, 42432, Note_on_c, 0, 75, 92
1, 42521, Note_on_c, 0, 87, 0
1, 42521, Note_on_c, 0, 75, 0
1, 42528, Note_on_c, 0, 88, 92
1, 42528, Note_on_c, 0, 76, 92
1, 42617, Note_on_c, 0, 88, 0
1, 42617, Note_on_c, 0, 76, 0
1, 42624, Note_on_c, 0, 79, 69
1, 42624, Note_on_c, 0, 74, 69
1, 42624, Note_on_c, 1, 71, 69
1, 42624, Note_on_c, 1, 62, 64
1, 42801, Note_on_c, 0, 79, 0
1, 42801, Note_on_c, 0, 74, 0
1, 42801, Note_on_c, 1, 71, 0
1, 42816, Note_on_c, 0, 83, 69
1, 42816, Note_on_c, 0, 78, 69
1, 42816, Note_on_c, 1, 72, 69
1, 42861, Note_on_c, 0, 83, 0
1, 42864, Note_on_c, 0, 81, 69
1, 42953, Note_on_c, 0, 81, 0
1, 42960, Note_on_c, 0, 79, 69
1, 42978, Note_on_c, 1, 62, 0
1, 42993, Note_on_c, 0, 78, 0
1, 42993, Note_on_c, 1, 72, 0
1, 43005, Note_on_c, 0, 79, 0
1, 43008, Note_on_c, 0, 79, 69
1, 43008, Note_on_c, 1, 71, 69
1, 43008, Note_on_c, 1, 67, 69
1, 43097, Note_on_c, 0, 79, 0
1, 43097, Note_on_c, 1, 71, 0
1, 43097, Note_on_c, 1, 67, 0
1, 43296, Note_on_c, 0, 83, 64
1, 43296, Note_on_c, 1, 79, 64
1, 43326, Note_on_c, 0, 83, 0
1, 43328, Note_on_c, 0, 87, 64
1, 43358, Note_on_c, 0, 87, 0
1, 43360, Note_on_c, 0, 88, 64
1, 43390, Note_on_c, 0, 88, 0
1, 43392, Note_on_c, 0, 86, 64
1, 43392, Note_on_c, 1, 79, 0
1, 43392, Note_on_c, 1, 81, 64
1, 43392, Note_on_c, 1, 78, 64
1, 43431, Note_on_c, 0, 86, 0
1, 43431, Note_on_c, 1, 81, 0
1, 43431, Note_on_c, 1, 78, 0
1, 43488, Note_on_c, 0, 86, 64
1, 43527, Note_on_c, 0, 86, 0
1, 43584, Note_on_c, 0, 86, 64
1, 43623, Note_on_c, 0, 86, 0
1, 43680, Note_on_c, 0, 79, 64
1, 43680, Note_on_c, 1, 76, 64
1, 43710, Note_on_c, 0, 79, 0
1, 43712, Note_on_c, 0, 83, 64
1, 43742, Note_on_c, 0, 83, 0
1, 43744, Note_on_c, 0, 84, 64
1, 43774, Note_on_c, 0, 84, 0
1, 43776, Note_on_c, 0, 83, 64
1, 43776, Note_on_c, 1, 76, 0
1, 43776, Note_on_c, 1, 78, 64
1, 43776, Note_on_c, 1, 74, 64
1, 43815, Note_on_c, 0, 83, 0
1, 43815, Note_on_c, 1, 78, 0
1, 43815, Note_on_c, 1, 74, 0
1, 43872, Note_on_c, 0, 83, 64
1, 43911, Note_on_c, 0, 83, 0
1, 43968, Note_on_c, 0, 83, 64
1, 44007, Note_on_c, 0, 83, 0
1, 44064, Note_on_c, 0, 76, 64
1, 44064, Note_on_c, 1, 72, 64
1, 44094, Note_on_c, 0, 76, 0
1, 44096, Note_on_c, 0, 80, 64
1, 44126, Note_on_c, 0, 80, 0
1, 44128, Note_on_c, 0, 81, 64
1, 44158, Note_on_c, 0, 81, 0
1, 44160, Note_on_c, 0, 79, 64
1, 44160, Note_on_c, 1, 72, 0
1, 44160, Note_on_c, 1, 74, 64
1, 44160, Note_on_c, 1, 71, 64
1, 44199, Note_on_c, 0, 79, 0
1, 44199, Note_on_c, 1, 74, 0
1, 44199, Note_on_c, 1, 71, 0
1, 44256, Note_on_c, 0, 79, 64
1, 44295, Note_on_c, 0, 79, 0
1, 44352, Note_on_c, 0, 79, 64
1, 44391, Note_on_c, 0, 79, 0
1, 44448, Note_on_c, 0, 83, 64
1, 44448, Note_on_c, 1, 71, 64
1, 44448, Note_on_c, 1, 67, 64
1, 44515, Note_on_c, 0, 83, 0
1, 44520, Note_on_c, 0, 79, 64
1, 44537, Note_on_c, 1, 71, 0
1, 44537, Note_on_c, 1, 67, 0
1, 44543, Note_on_c, 0, 79, 0
1, 44544, Note_on_c, 0, 76, 64
1, 44544, Note_on_c, 1, 72, 64
1, 44544, Note_on_c, 1, 60, 64
1, 44583, Note_on_c, 0, 76, 0
1, 44633, Note_on_c, 1, 72, 0
1, 44633, Note_on_c, 1, 60, 0
1, 44640, Note_on_c, 0, 84, 64
1, 44712, Note_on_c, 0, 84, 0
1, 44712, Note_on_c, 0, 81, 64
1, 44735, Note_on_c, 0, 81, 0
1, 44736, Note_on_c, 0, 78, 64
1, 44736, Note_on_c, 1, 69, 64
1, 44736, Note_on_c, 1, 62, 64
1, 44775, Note_on_c, 0, 78, 0
1, 44825, Note_on_c, 1, 69, 0
1, 44825, Note_on_c, 1, 62, 0
1, 44832, Note_on_c, 0, 81, 64
1, 44904, Note_on_c, 0, 81, 0
1, 44904, Note_on_c, 0, 78, 64
1, 44927, Note_on_c, 0, 78, 0
1, 44928, Note_on_c, 0, 79, 64
1, 44928, Note_on_c, 1, 71, 64
1, 44928, Note_on_c, 1, 67, 64
1, 44967, Note_on_c, 0, 79, 0
1, 45017, Note_on_c, 1, 71, 0
1, 45017, Note_on_c, 1, 67, 0
1, 45216, Note_on_c, 0, 83, 85
1, 45216, Note_on_c, 1, 79, 85
1, 45246, Note_on_c, 0, 83, 0
1, 45248, Note_on_c, 0, 87, 85
1, 45278, Note_on_c, 0, 87, 0
1, 45280, Note_on_c, 0, 88, 85
1, 45310, Note_on_c, 0, 88, 0
1, 45312, Note_on_c, 0, 81, 69
1, 45312, Note_on_c, 1, 79, 0
1, 45312, Note_on_c, 1, 78, 69
1, 45342, Note_on_c, 0, 81, 0
1, 45344, Note_on_c, 0, 85, 69
1, 45351, Note_on_c, 1, 78, 0
1, 45374, Note_on_c, 0, 85, 0
1, 45376, Note_on_c, 0, 86, 69
1, 45406, Note_on_c, 0, 86, 0
1, 45408, Note_on_c, 0, 81, 69
1, 45408, Note_on_c, 1, 78, 69
1, 45438, Note_on_c, 0, 81, 0
1, 45440, Note_on_c, 0, 85, 69
1, 45447, Note_on_c, 1, 78, 0
1, 45470, Note_on_c, 0, 85, 0
1, 45472, Note_on_c, 0, 86, 69
1, 45502, Note_on_c, 0, 86, 0
1, 45504, Note_on_c, 0, 81, 69
1, 45504, Note_on_c, 1, 78, 69
1, 45534, Note_on_c, 0, 81, 0
1, 45536, Note_on_c, 0, 85, 69
1, 45543, Note_on_c, 1, 78, 0
1, 45566, Note_on_c, 0, 85, 0
1, 45568, Note_on_c, 0, 86, 69
1, 45598, Note_on_c, 0, 86, 0
1, 45600, Note_on_c, 0, 83, 85
1, 45600, Note_on_c, 1, 79, 85
1, 45630, Note_on_c, 0, 83, 0
1, 45632, Note_on_c, 0, 87, 85
1, 45662, Note_on_c, 0, 87, 0
1, 45664, Note_on_c, 0, 88, 85
1, 45694, Note_on_c, 0, 88, 0
1, 45696, Note_on_c, 0, 81, 69
1, 45696, Note_on_c, 1, 79, 0
1, 45696, Note_on_c, 1, 78, 69
1, 45726, Note_on_c, 0, 81, 0
1, 45728, Note_on_c, 0, 85, 69
1, 45735, Note_on_c, 1, 78, 0
1, 45758, Note_on_c, 0, 85, 0
1, 45760, Note_on_c, 0, 86, 69
1, 45790, Note_on_c, 0, 86, 0
1, 45792, Note_on_c, 0, 81, 69
1, 45792, Note_on_c, 1, 78, 69
1, 45822, Note_on_c, 0, 81, 0
1, 45824, Note_on_c, 0, 85, 69
1, 45831, Note_on_c, 1, 78, 0
1, 45854, Note_on_c, 0, 85, 0
1, 45856, Note_on_c, 0, 86, 69
1, 45886, Note_on_c, 0, 86, 0
1, 45888, Note_on_c, 0, 81, 69
1, 45888, Note_on_c, 1, 78, 69
1, 45918, Note_on_c, 0, 81, 0
1, 45920, Note_on_c, 0, 85, 69
1, 45927, Note_on_c, 1, 78, 0
1, 45950, Note_on_c, 0, 85, 0
1, 45952, Note_on_c, 0, 86, 69
1, 45982, Note_on_c, 0, 86, 0
1, 45984, Note_on_c, 0, 79, 85
1, 45984, Note_on_c, 1, 76, 85
1, 46014, Note_on_c, 0, 79, 0
1, 46016, Note_on_c, 0, 83, 85
1, 46046, Note_on_c, 0, 83, 0
1, 46048, Note_on_c, 0, 84, 85
1, 46078, Note_on_c, 0, 84, 0
1, 46080, Note_on_c, 0, 78, 69
1, 46080, Note_on_c, 1, 76, 0
1, 46080, Note_on_c, 1, 74, 69
1, 46110, Note_on_c, 0, 78, 0
1, 46112, Note_on_c, 0, 82, 69
1, 46119, Note_on_c, 1, 74, 0
1, 46142, Note_on_c, 0, 82, 0
1, 46144, Note_on_c, 0, 83, 69
1, 46174, Note_on_c, 0, 83, 0
1, 46176, Note_on_c, 0, 78, 69
1, 46176, Note_on_c, 1, 74, 69
1, 46206, Note_on_c, 0, 78, 0
1, 46208, Note_on_c, 0, 82, 69
1, 46215, Note_on_c, 1, 74, 0
1, 46238, Note_on_c, 0, 82, 0
1, 46240, Note_on_c, 0, 83, 69
1, 46270, Note_on_c, 0, 83, 0
1, 46272, Note_on_c, 0, 78, 69
1, 46272, Note_on_c, 1, 74, 69
1, 46302, Note_on_c, 0, 78, 0
1, 46304, Note_on_c, 0, 82, 69
1, 46311, Note_on_c, 1, 74, 0
1, 46334, Note_on_c, 0, 82, 0
1, 46336, Note_on_c, 0, 83, 69
1, 46366, Note_on_c, 0, 83, 0
1, 46368, Note_on_c, 0, 79, 85
1, 46368, Note_on_c, 1, 76, 85
1, 46398, Note_on_c, 0, 79, 0
1, 46400, Note_on_c, 0, 83, 85
1, 46430, Note_on_c, 0, 83, 0
1, 46432, Note_on_c, 0, 84, 85
1, 46462, Note_on_c, 0, 84, 0
1, 46464, Note_on_c, 0, 78, 69
1, 46464, Note_on_c, 1, 76, 0
1, 46464, Note_on_c, 1, 74, 69
1, 46494, Note_on_c, 0, 78, 0
1, 46496, Note_on_c, 0, 82, 69
1, 46503, Note_on_c, 1, 74, 0
1, 46526, Note_on_c, 0, 82, 0
1, 46528, Note_on_c, 0, 83, 69
1, 46558, Note_on_c, 0, 83, 0
1, 46560, Note_on_c, 0, 78, 69
1, 46560, Note_on_c, 1, 74, 69
1, 46590, Note_on_c, 0, 78, 0
1, 46592, Note_on_c, 0, 82, 69
1, 46599, Note_on_c, 1, 74, 0
1, 46622, Note_on_c, 0, 82, 0
1, 46624, Note_on_c, 0, 83, 69
1, 46654, Note_on_c, 0, 83, 0
1, 46656, Note_on_c, 0, 78, 69
1, 46656, Note_on_c, 1, 74, 69
1, 46686, Note_on_c, 0, 78, 0
1, 46688, Note_on_c, 0, 82, 69
1, 46695, Note_on_c, 1, 74, 0
1, 46718, Note_on_c, 0, 82, 0
1, 46720, Note_on_c, 0, 83, 69
1, 46750, Note_on_c, 0, 83, 0
1, 46752, Note_on_c, 0, 76, 85
1, 46752, Note_on_c, 1, 72, 85
1, 46782, Note_on_c, 0, 76, 0
1, 46784, Note_on_c, 0, 80, 85
1, 46814, Note_on_c, 0, 80, 0
1, 46816, Note_on_c, 0, 81, 85
1, 46846, Note_on_c, 0, 81, 0
1, 46848, Note_on_c, 0, 74, 69
1, 46848, Note_on_c, 1, 72, 0
1, 46848, Note_on_c, 1, 71, 69
1, 46878, Note_on_c, 0, 74, 0
1, 46880, Note_on_c, 0, 78, 69
1, 46887, Note_on_c, 1, 71, 0
1, 46910, Note_on_c, 0, 78, 0
1, 46912, Note_on_c, 0, 79, 69
1, 46942, Note_on_c, 0, 79, 0
1, 46944, Note_on_c, 0, 74, 69
1, 46944, Note_on_c, 1, 71, 69
1, 46974, Note_on_c, 0, 74, 0
1, 46976, Note_on_c, 0, 78, 69
1, 46983, Note_on_c, 1, 71, 0
1, 47006, Note_on_c, 0, 78, 0
1, 47008, Note_on_c, 0, 79, 69
1, 47038, Note_on_c, 0, 79, 0
1, 47040, Note_on_c, 0, 74, 69
1, 47040, Note_on_c, 1, 71, 69
1, 47070, Note_on_c, 0, 74, 0
1, 47072, Note_on_c, 0, 78, 69
1, 47079, Note_on_c, 1, 71, 0
1, 47102, Note_on_c, 0, 78, 0
1, 47104, Note_on_c, 0, 79, 69
1, 47134, Note_on_c, 0, 79, 0
1, 47136, Note_on_c, 0, 76, 85
1, 47136, Note_on_c, 1, 72, 85
1, 47166, Note_on_c, 0, 76, 0
1, 47168, Note_on_c, 0, 80, 85
1, 47198, Note_on_c, 0, 80, 0
1, 47200, Note_on_c, 0, 81, 85
1, 47230, Note_on_c, 0, 81, 0
1, 47232, Note_on_c, 0, 74, 69
1, 47232, Note_on_c, 1, 72, 0
1, 47232, Note_on_c, 1, 71, 69
1, 47262, Note_on_c, 0, 74, 0
1, 47264, Note_on_c, 0, 78, 69
1, 47271, Note_on_c, 1, 71, 0
1, 47294, Note_on_c, 0, 78, 0
1, 47296, Note_on_c, 0, 79, 69
1, 47326, Note_on_c, 0, 79, 0
1, 47328, Note_on_c, 0, 74, 69
1, 47328, Note_on_c, 1, 71, 69
1, 47358, Note_on_c, 0, 74, 0
1, 47360, Note_on_c, 0, 78, 69
1, 47367, Note_on_c, 1, 71, 0
1, 47390, Note_on_c, 0, 78, 0
1, 47392, Note_on_c, 0, 79, 70
1, 47422, Note_on_c, 0, 79, 0
1, 47424, Note_on_c, 0, 74, 71
1, 47424, Note_on_c, 1, 71, 71
1, 47454, Note_on_c, 0, 74, 0
1, 47456, Note_on_c, 0, 78, 71
1, 47463, Note_on_c, 1, 71, 0
1, 47486, Note_on_c, 0, 78, 0
1, 47488, Note_on_c, 0, 79, 72
1, 47518, Note_on_c, 0, 79, 0
1, 47520, Note_on_c, 0, 76, 73
1, 47520, Note_on_c, 1, 72, 73
1, 47550, Note_on_c, 0, 76, 0
1, 47552, Note_on_c, 0, 80, 73
1, 47582, Note_on_c, 0, 80, 0
1, 47584, Note_on_c, 0, 81, 74
1, 47614, Note_on_c, 0, 81, 0
1, 47616, Note_on_c, 0, 74, 75
1, 47616, Note_on_c, 1, 72, 0
1, 47616, Note_on_c, 1, 71, 75
1, 47646, Note_on_c, 0, 74, 0
1, 47648, Note_on_c, 0, 78, 75
1, 47655, Note_on_c, 1, 71, 0
1, 47678, Note_on_c, 0, 78, 0
1, 47680, Note_on_c, 0, 79, 76
1, 47710, Note_on_c, 0, 79, 0
1, 47712, Note_on_c, 0, 74, 77
1, 47712, Note_on_c, 1, 66, 77
1, 47742, Note_on_c, 0, 74, 0
1, 47744, Note_on_c, 0, 80, 77
1, 47774, Note_on_c, 0, 80, 0
1, 47776, Note_on_c, 0, 81, 78
1, 47801, Note_on_c, 1, 66, 0
1, 47806, Note_on_c, 0, 81, 0
1, 47808, Note_on_c, 0, 74, 79
1, 47808, Note_on_c, 1, 67, 79
1, 47838, Note_on_c, 0, 74, 0
1, 47840, Note_on_c, 0, 82, 79
1, 47870, Note_on_c, 0, 82, 0
1, 47872, Note_on_c, 0, 83, 80
1, 47897, Note_on_c, 1, 67, 0
1, 47902, Note_on_c, 0, 83, 0
1, 47904, Note_on_c, 0, 74, 81
1, 47904, Note_on_c, 1, 69, 81
1, 47934, Note_on_c, 0, 74, 0
1, 47936, Note_on_c, 0, 83, 81
1, 47966, Note_on_c, 0, 83, 0
1, 47968, Note_on_c, 0, 84, 82
1, 47993, Note_on_c, 1, 69, 0
1, 47998, Note_on_c, 0, 84, 0
1, 48000, Note_on_c, 0, 74, 83
1, 48000, Note_on_c, 1, 71, 83
1, 48030, Note_on_c, 0, 74, 0
1, 48032, Note_on_c, 0, 85, 85
1, 48062, Note_on_c, 0, 85, 0
1, 48064, Note_on_c, 0, 86, 85
1, 48089, Note_on_c, 1, 71, 0
1, 48094, Note_on_c, 0, 86, 0
1, 48096, Note_on_c, 0, 84, 85
1, 48126, Note_on_c, 0, 84, 0
1, 48128, Note_on_c, 0, 83, 85
1, 48158, Note_on_c, 0, 83, 0
1, 48160, Note_on_c, 0, 81, 85
1, 48190, Note_on_c, 0, 81, 0
1, 48192, Note_on_c, 0, 79, 85
1, 48222, Note_on_c, 0, 79, 0
1, 48224, Note_on_c, 0, 78, 85
1, 48254, Note_on_c, 0, 78, 0
1, 48256, Note_on_c, 0, 76, 85
1, 48286, Note_on_c, 0, 76, 0
1, 48288, Note_on_c, 0, 74, 85
1, 48318, Note_on_c, 0, 74, 0
1, 48320, Note_on_c, 0, 72, 85
1, 48350, Note_on_c, 0, 72, 0
1, 48352, Note_on_c, 0, 71, 85
1, 48382, Note_on_c, 0, 71, 0
1, 48384, Note_on_c, 0, 69, 85
1, 48384, Note_on_c, 1, 48, 64
1, 48414, Note_on_c, 0, 69, 0
1, 48416, Note_on_c, 0, 76, 83
1, 48446, Note_on_c, 0, 76, 0
1, 48448, Note_on_c, 0, 74, 82
1, 48478, Note_on_c, 0, 74, 0
1, 48480, Note_on_c, 0, 72, 81
1, 48480, Note_on_c, 1, 60, 81
1, 48510, Note_on_c, 0, 72, 0
1, 48512, Note_on_c, 0, 71, 80
1, 48542, Note_on_c, 0, 71, 0
1, 48544, Note_on_c, 0, 69, 78
1, 48561, Note_on_c, 1, 48, 0
1, 48569, Note_on_c, 1, 60, 0
1, 48574, Note_on_c, 0, 69, 0
1, 48576, Note_on_c, 0, 67, 77
1, 48576, Note_on_c, 1, 59, 77
1, 48576, Note_on_c, 1, 50, 64
1, 48665, Note_on_c, 0, 67, 0
1, 48665, Note_on_c, 1, 59, 0
1, 48672, Note_on_c, 0, 66, 73
1, 48672, Note_on_c, 1, 57, 73
1, 48684, Note_on_c, 0, 66, 0
1, 48684, Note_on_c, 0, 67, 73
1, 48696, Note_on_c, 0, 67, 0
1, 48696, Note_on_c, 0, 66, 73
1, 48753, Note_on_c, 1, 50, 0
1, 48761, Note_on_c, 0, 66, 0
1, 48761, Note_on_c, 1, 57, 0
1, 48768, Note_on_c, 1, 55, 85
1, 48768, Note_on_c, 1, 50, 85
1, 48768, Note_on_c, 1, 47, 85
1, 48800, Note_on_c, 0, 85, 85
1, 48830, Note_on_c, 0, 85, 0
1, 48832, Note_on_c, 0, 86, 85
1, 48862, Note_on_c, 0, 86, 0
1, 48864, Note_on_c, 0, 84, 85
1, 48894, Note_on_c, 0, 84, 0
1, 48896, Note_on_c, 0, 83, 85
1, 48926, Note_on_c, 0, 83, 0
1, 48928, Note_on_c, 0, 81, 85
1, 48945, Note_on_c, 1, 55, 0
1, 48945, Note_on_c, 1, 50, 0
1, 48945, Note_on_c, 1, 47, 0
1, 48958, Note_on_c, 0, 81, 0
1, 48960, Note_on_c, 0, 79, 85
1, 48990, Note_on_c, 0, 79, 0
1, 48992, Note_on_c, 0, 78, 85
1, 49022, Note_on_c, 0, 78, 0
1, 49024, Note_on_c, 0, 76, 85
1, 49054, Note_on_c, 0, 76, 0
1, 49056, Note_on_c, 0, 74, 85
1, 49086, Note_on_c, 0, 74, 0
1, 49088, Note_on_c, 0, 72, 85
1, 49118, Note_on_c, 0, 72, 0
1, 49120, Note_on_c, 0, 71, 85
1, 49150, Note_on_c, 0, 71, 0
1, 49152, Note_on_c, 0, 69, 85
1, 49152, Note_on_c, 1, 48, 64
1, 49182, Note_on_c, 0, 69, 0
1, 49184, Note_on_c, 0, 76, 83
1, 49214, Note_on_c, 0, 76, 0
1, 49216, Note_on_c, 0, 74, 82
1, 49246, Note_on_c, 0, 74, 0
1, 49248, Note_on_c, 0, 72, 81
1, 49248, Note_on_c, 1, 60, 81
1, 49278, Note_on_c, 0, 72, 0
1, 49280, Note_on_c, 0, 71, 80
1, 49310, Note_on_c, 0, 71, 0
1, 49312, Note_on_c, 0, 69, 78
1, 49329, Note_on_c, 1, 48, 0
1, 49337, Note_on_c, 1, 60, 0
1, 49342, Note_on_c, 0, 69, 0
1, 49344, Note_on_c, 0, 67, 77
1, 49344, Note_on_c, 1, 59, 77
1, 49344, Note_on_c, 1, 50, 64
1, 49433, Note_on_c, 0, 67, 0
1, 49433, Note_on_c, 1, 59, 0
1, 49440, Note_on_c, 0, 66, 73
1, 49440, Note_on_c, 1, 57, 73
1, 49452, Note_on_c, 0, 66, 0
1, 49452, Note_on_c, 0, 67, 73
1, 49464, Note_on_c, 0, 67, 0
1, 49464, Note_on_c, 0, 66, 73
1, 49521, Note_on_c, 1, 50, 0
1, 49529, Note_on_c, 0, 66, 0
1, 49529, Note_on_c, 1, 57, 0
1, 49536, Note_on_c, 0, 67, 69
1, 49536, Note_on_c, 1, 55, 74
1, 49566, Note_on_c, 1, 55, 0
1, 49568, Note_on_c, 1, 59, 74
1, 49598, Note_on_c, 1, 59, 0
1, 49600, Note_on_c, 1, 62, 74
1, 49625, Note_on_c, 0, 67, 0
1, 49630, Note_on_c, 1, 62, 0
1, 49632, Note_on_c, 1, 55, 74
1, 49662, Note_on_c, 1, 55, 0
1, 49664, Note_on_c, 1, 59, 74
1, 49694, Note_on_c, 1, 59, 0
1, 49696, Note_on_c, 1, 62, 74
1, 49726, Note_on_c, 1, 62, 0
1, 49728, Note_on_c, 1, 55, 74
1, 49758, Note_on_c, 1, 55, 0
1, 49760, Note_on_c, 1, 59, 74
1, 49790, Note_on_c, 1, 59, 0
1, 49792, Note_on_c, 1, 62, 74
1, 49822, Note_on_c, 1, 62, 0
1, 49824, Note_on_c, 0, 74, 79
1, 49824, Note_on_c, 1, 50, 74
1, 49854, Note_on_c, 1, 50, 0
1, 49856, Note_on_c, 1, 54, 74
1, 49886, Note_on_c, 1, 54, 0
1, 49888, Note_on_c, 1, 62, 74
1, 49891, Note_on_c, 0, 74, 0
1, 49896, Note_on_c, 0, 78, 79
1, 49918, Note_on_c, 1, 62, 0
1, 49919, Note_on_c, 0, 78, 0
1, 49920, Note_on_c, 0, 79, 79
1, 49920, Note_on_c, 1, 55, 74
1, 49950, Note_on_c, 1, 55, 0
1, 49952, Note_on_c, 1, 59, 74
1, 49959, Note_on_c, 0, 79, 0
1, 49982, Note_on_c, 1, 59, 0
1, 49984, Note_on_c, 1, 62, 74
1, 50014, Note_on_c, 1, 62, 0
1, 50016, Note_on_c, 0, 79, 79
1, 50016, Note_on_c, 1, 55, 74
1, 50046, Note_on_c, 1, 55, 0
1, 50048, Note_on_c, 1, 59, 74
1, 50055, Note_on_c, 0, 79, 0
1, 50078, Note_on_c, 1, 59, 0
1, 50080, Note_on_c, 1, 62, 74
1, 50110, Note_on_c, 1, 62, 0
1, 50112, Note_on_c, 0, 79, 79
1, 50112, Note_on_c, 1, 55, 74
1, 50142, Note_on_c, 1, 55, 0
1, 50144, Note_on_c, 1, 59, 74
1, 50151, Note_on_c, 0, 79, 0
1, 50174, Note_on_c, 1, 59, 0
1, 50176, Note_on_c, 1, 62, 74
1, 50206, Note_on_c, 1, 62, 0
1, 50208, Note_on_c, 0, 83, 79
1, 50208, Note_on_c, 1, 50, 74
1, 50220, Note_on_c, 0, 83, 0
1, 50220, Note_on_c, 0, 81, 79
1, 50232, Note_on_c, 0, 81, 0
1, 50232, Note_on_c, 0, 79, 79
1, 50238, Note_on_c, 1, 50, 0
1, 50240, Note_on_c, 1, 54, 74
1, 50244, Note_on_c, 0, 79, 0
1, 50244, Note_on_c, 0, 81, 79
1, 50270, Note_on_c, 1, 54, 0
1, 50272, Note_on_c, 1, 62, 74
1, 50275, Note_on_c, 0, 81, 0
1, 50280, Note_on_c, 0, 86, 79
1, 50302, Note_on_c, 1, 62, 0
1, 50303, Note_on_c, 0, 86, 0
1, 50304, Note_on_c, 0, 83, 79
1, 50304, Note_on_c, 1, 55, 74
1, 50334, Note_on_c, 1, 55, 0
1, 50336, Note_on_c, 1, 59, 74
1, 50343, Note_on_c, 0, 83, 0
1, 50366, Note_on_c, 1, 59, 0
1, 50368, Note_on_c, 1, 62, 74
1, 50398, Note_on_c, 1, 62, 0
1, 50400, Note_on_c, 0, 79, 79
1, 50400, Note_on_c, 1, 55, 74
1, 50430, Note_on_c, 1, 55, 0
1, 50432, Note_on_c, 1, 59, 74
1, 50439, Note_on_c, 0, 79, 0
1, 50462, Note_on_c, 1, 59, 0
1, 50464, Note_on_c, 1, 62, 74
1, 50494, Note_on_c, 1, 62, 0
1, 50496, Note_on_c, 0, 79, 79
1, 50496, Note_on_c, 1, 55, 74
1, 50526, Note_on_c, 1, 55, 0
1, 50528, Note_on_c, 1, 59, 74
1, 50535, Note_on_c, 0, 79, 0
1, 50558, Note_on_c, 1, 59, 0
1, 50560, Note_on_c, 1, 62, 74
1, 50590, Note_on_c, 1, 62, 0
1, 50592, Note_on_c, 0, 74, 79
1, 50592, Note_on_c, 1, 50, 74
1, 50622, Note_on_c, 1, 50, 0
1, 50624, Note_on_c, 1, 54, 74
1, 50654, Note_on_c, 1, 54, 0
1, 50656, Note_on_c, 1, 62, 74
1, 50659, Note_on_c, 0, 74, 0
1, 50664, Note_on_c, 0, 78, 79
1, 50686, Note_on_c, 1, 62, 0
1, 50687, Note_on_c, 0, 78, 0
1, 50688, Note_on_c, 0, 79, 79
1, 50688, Note_on_c, 1, 55, 74
1, 50718, Note_on_c, 1, 55, 0
1, 50720, Note_on_c, 1, 59, 74
1, 50727, Note_on_c, 0, 79, 0
1, 50750, Note_on_c, 1, 59, 0
1, 50752, Note_on_c, 1, 62, 74
1, 50782, Note_on_c, 1, 62, 0
1, 50784, Note_on_c, 0, 79, 79
1, 50784, Note_on_c, 1, 55, 74
1, 50814, Note_on_c, 1, 55, 0
1, 50816, Note_on_c, 1, 59, 74
1, 50823, Note_on_c, 0, 79, 0
1, 50846, Note_on_c, 1, 59, 0
1, 50848, Note_on_c, 1, 62, 74
1, 50878, Note_on_c, 1, 62, 0
1, 50880, Note_on_c, 0, 79, 79
1, 50880, Note_on_c, 1, 55, 74
1, 50910, Note_on_c, 1, 55, 0
1, 50912, Note_on_c, 1, 59, 74
1, 50919, Note_on_c, 0, 79, 0
1, 50942, Note_on_c, 1, 59, 0
1, 50944, Note_on_c, 1, 62, 74
1, 50974, Note_on_c, 1, 62, 0
1, 50976, Note_on_c, 0, 83, 79
1, 50976, Note_on_c, 1, 50, 74
1, 50988, Note_on_c, 0, 83, 0
1, 50988, Note_on_c, 0, 81, 79
1, 51000, Note_on_c, 0, 81, 0
1, 51000, Note_on_c, 0, 79, 79
1, 51006, Note_on_c, 1, 50, 0
1, 51008, Note_on_c, 1, 54, 74
1, 51012, Note_on_c, 0, 79, 0
1, 51012, Note_on_c, 0, 81, 79
1, 51038, Note_on_c, 1, 54, 0
1, 51040, Note_on_c, 1, 62, 74
1, 51043, Note_on_c, 0, 81, 0
1, 51048, Note_on_c, 0, 86, 79
1, 51070, Note_on_c, 1, 62, 0
1, 51071, Note_on_c, 0, 86, 0
1, 51072, Note_on_c, 0, 79, 79
1, 51072, Note_on_c, 1, 55, 74
1, 51102, Note_on_c, 1, 55, 0
1, 51104, Note_on_c, 1, 59, 73
1, 51134, Note_on_c, 1, 59, 0
1, 51136, Note_on_c, 1, 62, 73
1, 51161, Note_on_c, 0, 79, 0
1, 51166, Note_on_c, 1, 62, 0
1, 51168, Note_on_c, 1, 55, 73
1, 51198, Note_on_c, 1, 55, 0
1, 51200, Note_on_c, 1, 59, 72
1, 51230, Note_on_c, 1, 59, 0
1, 51232, Note_on_c, 1, 62, 72
1, 51262, Note_on_c, 1, 62, 0
1, 51264, Note_on_c, 0, 74, 77
1, 51264, Note_on_c, 0, 71, 77
1, 51264, Note_on_c, 1, 55, 72
1, 51294, Note_on_c, 1, 55, 0
1, 51296, Note_on_c, 1, 59, 72
1, 51326, Note_on_c, 1, 59, 0
1, 51328, Note_on_c, 1, 62, 71
1, 51353, Note_on_c, 0, 74, 0
1, 51353, Note_on_c, 0, 71, 0
1, 51358, Note_on_c, 1, 62, 0
1, 51360, Note_on_c, 1, 55, 71
1, 51390, Note_on_c, 1, 55, 0
1, 51392, Note_on_c, 1, 59, 71
1, 51422, Note_on_c, 1, 59, 0
1, 51424, Note_on_c, 1, 62, 70
1, 51454, Note_on_c, 1, 62, 0
1, 51456, Note_on_c, 0, 71, 75
1, 51456, Note_on_c, 0, 67, 75
1, 51456, Note_on_c, 1, 55, 70
1, 51589, Note_on_c, 0, 71, 0
1, 51589, Note_on_c, 0, 67, 0
1, 51589, Note_on_c, 1, 55, 0
1, 51744, Note_on_c, 0, 79, 79
1, 51816, Note_on_c, 0, 79, 0
1, 51816, Note_on_c, 0, 81, 79
1, 51839, Note_on_c, 0, 81, 0
1, 51840, Note_on_c, 0, 77, 79
1, 51840, Note_on_c, 1, 67, 74
1, 51840, Note_on_c, 1, 59, 74
1, 51879, Note_on_c, 0, 77, 0
1, 51879, Note_on_c, 1, 67, 0
1, 51879, Note_on_c, 1, 59, 0
1, 51936, Note_on_c, 0, 77, 79
1, 52008, Note_on_c, 0, 77, 0
1, 52008, Note_on_c, 0, 79, 79
1, 52031, Note_on_c, 0, 79, 0
1, 52032, Note_on_c, 0, 76, 79
1, 52032, Note_on_c, 1, 67, 74
1, 52032, Note_on_c, 1, 60, 74
1, 52071, Note_on_c, 0, 76, 0
1, 52071, Note_on_c, 1, 67, 0
1, 52071, Note_on_c, 1, 60, 0
1, 52128, Note_on_c, 0, 76, 79
1, 52200, Note_on_c, 0, 76, 0
1, 52200, Note_on_c, 0, 77, 79
1, 52223, Note_on_c, 0, 77, 0
1, 52224, Note_on_c, 0, 74, 79
1, 52224, Note_on_c, 1, 67, 74
1, 52224, Note_on_c, 1, 65, 74
1, 52263, Note_on_c, 0, 74, 0
1, 52263, Note_on_c, 1, 67, 0
1, 52263, Note_on_c, 1, 65, 0
1, 52320, Note_on_c, 0, 74, 79
1, 52392, Note_on_c, 0, 74, 0
1, 52392, Note_on_c, 0, 76, 79
1, 52415, Note_on_c, 0, 76, 0
1, 52416, Note_on_c, 0, 72, 79
1, 52416, Note_on_c, 1, 67, 74
1, 52416, Note_on_c, 1, 64, 74
1, 52455, Note_on_c, 0, 72, 0
1, 52455, Note_on_c, 1, 67, 0
1, 52455, Note_on_c, 1, 64, 0
1, 52512, Note_on_c, 0, 76, 79
1, 52512, Note_on_c, 0, 72, 69
1, 52584, Note_on_c, 0, 76, 0
1, 52584, Note_on_c, 0, 77, 79
1, 52601, Note_on_c, 0, 72, 0
1, 52607, Note_on_c, 0, 77, 0
1, 52608, Note_on_c, 0, 74, 85
1, 52608, Note_on_c, 0, 71, 69
1, 52608, Note_on_c, 1, 52, 85
1, 52608, Note_on_c, 1, 40, 85
1, 52647, Note_on_c, 0, 74, 0
1, 52647, Note_on_c, 0, 71, 0
1, 52647, Note_on_c, 1, 52, 0
1, 52647, Note_on_c, 1, 40, 0
1, 52704, Note_on_c, 0, 74, 85
1, 52704, Note_on_c, 0, 71, 69
1, 52776, Note_on_c, 0, 74, 0
1, 52776, Note_on_c, 0, 76, 85
1, 52793, Note_on_c, 0, 71, 0
1, 52799, Note_on_c, 0, 76, 0
1, 52800, Note_on_c, 0, 72, 85
1, 52800, Note_on_c, 0, 69, 69
1, 52800, Note_on_c, 1, 52, 85
1, 52800, Note_on_c, 1, 40, 85
1, 52839, Note_on_c, 0, 69, 0
1, 52839, Note_on_c, 1, 52, 0
1, 52839, Note_on_c, 1, 40, 0
1, 52894, Note_on_c, 0, 72, 0
1, 52896, Note_on_c, 0, 72, 85
1, 52896, Note_on_c, 0, 69, 69
1, 52968, Note_on_c, 0, 72, 0
1, 52968, Note_on_c, 0, 74, 85
1, 52985, Note_on_c, 0, 69, 0
1, 52991, Note_on_c, 0, 74, 0
1, 52992, Note_on_c, 0, 71, 85
1, 52992, Note_on_c, 0, 68, 69
1, 52992, Note_on_c, 1, 52, 85
1, 52992, Note_on_c, 1, 40, 85
1, 53553, Note_on_c, 0, 71, 0
1, 53553, Note_on_c, 0, 68, 0
1, 53553, Note_on_c, 1, 52, 0
1, 53553, Note_on_c, 1, 40, 0
1, 53664, Note_on_c, 0, 77, 79
1, 53687, Note_on_c, 0, 77, 0
1, 53688, Note_on_c, 0, 79, 79
1, 53711, Note_on_c, 0, 79, 0
1, 53712, Note_on_c, 0, 81, 79
1, 53735, Note_on_c, 0, 81, 0
1, 53736, Note_on_c, 0, 82, 79
1, 53759, Note_on_c, 0, 82, 0
1, 53760, Note_on_c, 0, 84, 79
1, 53760, Note_on_c, 1, 53, 69
1, 53790, Note_on_c, 1, 53, 0
1, 53792, Note_on_c, 1, 57, 69
1, 53799, Note_on_c, 0, 84, 0
1, 53822, Note_on_c, 1, 57, 0
1, 53824, Note_on_c, 1, 60, 69
1, 53854, Note_on_c, 1, 60, 0
1, 53856, Note_on_c, 0, 84, 79
1, 53856, Note_on_c, 1, 53, 69
1, 53886, Note_on_c, 1, 53, 0
1, 53888, Note_on_c, 1, 57, 69
1, 53895, Note_on_c, 0, 84, 0
1, 53918, Note_on_c, 1, 57, 0
1, 53920, Note_on_c, 1, 60, 69
1, 53950, Note_on_c, 1, 60, 0
1, 53952, Note_on_c, 0, 84, 79
1, 53952, Note_on_c, 1, 53, 69
1, 53982, Note_on_c, 1, 53, 0
1, 53984, Note_on_c, 1, 57, 69
1, 53991, Note_on_c, 0, 84, 0
1, 54014, Note_on_c, 1, 57, 0
1, 54016, Note_on_c, 1, 60, 69
1, 54046, Note_on_c, 1, 60, 0
1, 54048, Note_on_c, 0, 88, 85
1, 54048, Note_on_c, 1, 53, 69
1, 54060, Note_on_c, 0, 88, 0
1, 54060, Note_on_c, 0, 89, 85
1, 54078, Note_on_c, 1, 53, 0
1, 54080, Note_on_c, 1, 57, 69
1, 54087, Note_on_c, 0, 89, 0
1, 54110, Note_on_c, 1, 57, 0
1, 54112, Note_on_c, 1, 60, 69
1, 54142, Note_on_c, 1, 60, 0
1, 54144, Note_on_c, 0, 84, 79
1, 54144, Note_on_c, 1, 53, 69
1, 54174, Note_on_c, 1, 53, 0
1, 54176, Note_on_c, 1, 57, 69
1, 54183, Note_on_c, 0, 84, 0
1, 54206, Note_on_c, 1, 57, 0
1, 54208, Note_on_c, 1, 60, 69
1, 54238, Note_on_c, 1, 60, 0
1, 54240, Note_on_c, 0, 84, 79
1, 54240, Note_on_c, 1, 53, 69
1, 54270, Note_on_c, 1, 53, 0
1, 54272, Note_on_c, 1, 57, 69
1, 54279, Note_on_c, 0, 84, 0
1, 54302, Note_on_c, 1, 57, 0
1, 54304, Note_on_c, 1, 60, 69
1, 54334, Note_on_c, 1, 60, 0
1, 54336, Note_on_c, 0, 84, 79
1, 54336, Note_on_c, 1, 53, 69
1, 54356, Note_on_c, 0, 84, 0
1, 54366, Note_on_c, 1, 53, 0
1, 54368, Note_on_c, 1, 57, 69
1, 54384, Note_on_c, 0, 86, 79
1, 54398, Note_on_c, 1, 57, 0
1, 54400, Note_on_c, 1, 60, 69
1, 54407, Note_on_c, 0, 86, 0
1, 54408, Note_on_c, 0, 84, 79
1, 54430, Note_on_c, 1, 60, 0
1, 54431, Note_on_c, 0, 84, 0
1, 54432, Note_on_c, 0, 82, 79
1, 54432, Note_on_c, 1, 53, 69
1, 54455, Note_on_c, 0, 82, 0
1, 54456, Note_on_c, 0, 81, 79
1, 54462, Note_on_c, 1, 53, 0
1, 54464, Note_on_c, 1, 57, 69
1, 54479, Note_on_c, 0, 81, 0
1, 54480, Note_on_c, 0, 79, 79
1, 54494, Note_on_c, 1, 57, 0
1, 54496, Note_on_c, 1, 60, 69
1, 54503, Note_on_c, 0, 79, 0
1, 54504, Note_on_c, 0, 77, 79
1, 54526, Note_on_c, 1, 60, 0
1, 54527, Note_on_c, 0, 77, 0
1, 54528, Note_on_c, 0, 76, 79
1, 54528, Note_on_c, 1, 55, 69
1, 54558, Note_on_c, 1, 55, 0
1, 54560, Note_on_c, 1, 58, 69
1, 54567, Note_on_c, 0, 76, 0
1, 54590, Note_on_c, 1, 58, 0
1, 54592, Note_on_c, 1, 60, 69
1, 54622, Note_on_c, 1, 60, 0
1, 54624, Note_on_c, 0, 76, 80
1, 54624, Note_on_c, 1, 55, 69
1, 54654, Note_on_c, 1, 55, 0
1, 54656, Note_on_c, 1, 58, 69
1, 54663, Note_on_c, 0, 76, 0
1, 54686, Note_on_c, 1, 58, 0
1, 54688, Note_on_c, 1, 60, 69
1, 54718, Note_on_c, 1, 60, 0
1, 54720, Note_on_c, 0, 77, 82
1, 54720, Note_on_c, 1, 53, 69
1, 54750, Note_on_c, 1, 53, 0
1, 54752, Note_on_c, 1, 57, 69
1, 54759, Note_on_c, 0, 77, 0
1, 54782, Note_on_c, 1, 57, 0
1, 54784, Note_on_c, 1, 60, 69
1, 54814, Note_on_c, 1, 60, 0
1, 54816, Note_on_c, 0, 77, 83
1, 54816, Note_on_c, 1, 53, 69
1, 54846, Note_on_c, 1, 53, 0
1, 54848, Note_on_c, 1, 57, 69
1, 54855, Note_on_c, 0, 77, 0
1, 54878, Note_on_c, 1, 57, 0
1, 54880, Note_on_c, 1, 60, 69
1, 54910, Note_on_c, 1, 60, 0
1, 54912, Note_on_c, 0, 78, 101
1, 54912, Note_on_c, 1, 52, 69
1, 54942, Note_on_c, 1, 52, 0
1, 54944, Note_on_c, 1, 55, 69
1, 54974, Note_on_c, 1, 55, 0
1, 54976, Note_on_c, 1, 60, 69
1, 55006, Note_on_c, 1, 60, 0
1, 55008, Note_on_c, 0, 78, 0
1, 55008, Note_on_c, 0, 79, 85
1, 55008, Note_on_c, 1, 52, 69
1, 55038, Note_on_c, 1, 52, 0
1, 55040, Note_on_c, 1, 55, 69
1, 55070, Note_on_c, 1, 55, 0
1, 55072, Note_on_c, 1, 60, 69
1, 55097, Note_on_c, 0, 79, 0
1, 55102, Note_on_c, 1, 60, 0
1, 55104, Note_on_c, 1, 52, 69
1, 55134, Note_on_c, 1, 52, 0
1, 55136, Note_on_c, 1, 55, 69
1, 55166, Note_on_c, 1, 55, 0
1, 55168, Note_on_c, 1, 60, 69
1, 55198, Note_on_c, 1, 60, 0
1, 55200, Note_on_c, 0, 72, 85
1, 55200, Note_on_c, 1, 52, 69
1, 55230, Note_on_c, 1, 52, 0
1, 55232, Note_on_c, 1, 55, 69
1, 55262, Note_on_c, 1, 55, 0
1, 55264, Note_on_c, 1, 60, 69
1, 55272, Note_on_c, 0, 72, 0
1, 55272, Note_on_c, 0, 79, 85
1, 55294, Note_on_c, 1, 60, 0
1, 55295, Note_on_c, 0, 79, 0
1, 55296, Note_on_c, 0, 82, 85
1, 55296, Note_on_c, 1, 52, 69
1, 55326, Note_on_c, 1, 52, 0
1, 55328, Note_on_c, 1, 55, 69
1, 55335, Note_on_c, 0, 82, 0
1, 55358, Note_on_c, 1, 55, 0
1, 55360, Note_on_c, 1, 60, 69
1, 55390, Note_on_c, 1, 60, 0
1, 55392, Note_on_c, 0, 82, 86
1, 55392, Note_on_c, 1, 52, 69
1, 55422, Note_on_c, 1, 52, 0
1, 55424, Note_on_c, 1, 55, 69
1, 55454, Note_on_c, 1, 55, 0
1, 55456, Note_on_c, 1, 60, 69
1, 55464, Note_on_c, 0, 82, 0
1, 55464, Note_on_c, 0, 84, 88
1, 55486, Note_on_c, 1, 60, 0
1, 55487, Note_on_c, 0, 84, 0
1, 55488, Note_on_c, 0, 81, 88
1, 55488, Note_on_c, 1, 53, 69
1, 55518, Note_on_c, 1, 53, 0
1, 55520, Note_on_c, 1, 57, 69
1, 55527, Note_on_c, 0, 81, 0
1, 55550, Note_on_c, 1, 57, 0
1, 55552, Note_on_c, 1, 60, 69
1, 55582, Note_on_c, 1, 60, 0
1, 55584, Note_on_c, 0, 81, 90
1, 55584, Note_on_c, 1, 53, 69
1, 55614, Note_on_c, 1, 53, 0
1, 55616, Note_on_c, 1, 57, 69
1, 55646, Note_on_c, 1, 57, 0
1, 55648, Note_on_c, 1, 60, 69
1, 55656, Note_on_c, 0, 81, 0
1, 55656, Note_on_c, 0, 82, 92
1, 55678, Note_on_c, 1, 60, 0
1, 55679, Note_on_c, 0, 82, 0
1, 55680, Note_on_c, 0, 79, 92
1, 55680, Note_on_c, 1, 58, 69
1, 55700, Note_on_c, 0, 79, 0
1, 55710, Note_on_c, 1, 58, 0
1, 55712, Note_on_c, 1, 60, 69
1, 55728, Note_on_c, 0, 81, 92
1, 55742, Note_on_c, 1, 60, 0
1, 55743, Note_on_c, 0, 81, 0
1, 55744, Note_on_c, 0, 79, 92
1, 55744, Note_on_c, 1, 64, 69
1, 55759, Note_on_c, 0, 79, 0
1, 55760, Note_on_c, 0, 78, 92
1, 55774, Note_on_c, 1, 64, 0
1, 55775, Note_on_c, 0, 78, 0
1, 55776, Note_on_c, 0, 79, 92
1, 55776, Note_on_c, 1, 58, 69
1, 55806, Note_on_c, 1, 58, 0
1, 55808, Note_on_c, 1, 60, 69
1, 55838, Note_on_c, 1, 60, 0
1, 55840, Note_on_c, 1, 64, 69
1, 55848, Note_on_c, 0, 79, 0
1, 55848, Note_on_c, 0, 81, 92
1, 55870, Note_on_c, 1, 64, 0
1, 55871, Note_on_c, 0, 81, 0
1, 55872, Note_on_c, 0, 77, 92
1, 55872, Note_on_c, 1, 57, 69
1, 55902, Note_on_c, 1, 57, 0
1, 55904, Note_on_c, 1, 60, 69
1, 55911, Note_on_c, 0, 77, 0
1, 55934, Note_on_c, 1, 60, 0
1, 55936, Note_on_c, 1, 65, 69
1, 55966, Note_on_c, 1, 65, 0
1, 55968, Note_on_c, 0, 77, 92
1, 55968, Note_on_c, 1, 57, 69
1, 55998, Note_on_c, 1, 57, 0
1, 56000, Note_on_c, 1, 60, 69
1, 56007, Note_on_c, 0, 77, 0
1, 56030, Note_on_c, 1, 60, 0
1, 56032, Note_on_c, 1, 65, 69
1, 56062, Note_on_c, 1, 65, 0
1, 56064, Note_on_c, 0, 79, 92
1, 56064, Note_on_c, 1, 58, 69
1, 56094, Note_on_c, 1, 58, 0
1, 56096, Note_on_c, 1, 62, 69
1, 56103, Note_on_c, 0, 79, 0
1, 56126, Note_on_c, 1, 62, 0
1, 56128, Note_on_c, 1, 65, 69
1, 56158, Note_on_c, 1, 65, 0
1, 56160, Note_on_c, 0, 79, 92
1, 56160, Note_on_c, 1, 58, 69
1, 56190, Note_on_c, 1, 58, 0
1, 56192, Note_on_c, 1, 62, 69
1, 56199, Note_on_c, 0, 79, 0
1, 56222, Note_on_c, 1, 62, 0
1, 56224, Note_on_c, 1, 65, 69
1, 56254, Note_on_c, 1, 65, 0
1, 56256, Note_on_c, 0, 72, 86
1, 56256, Note_on_c, 1, 60, 69
1, 56286, Note_on_c, 1, 60, 0
1, 56288, Note_on_c, 1, 64, 69
1, 56318, Note_on_c, 1, 64, 0
1, 56320, Note_on_c, 1, 67, 69
1, 56323, Note_on_c, 0, 72, 0
1, 56328, Note_on_c, 0, 74, 81
1, 56350, Note_on_c, 1, 67, 0
1, 56351, Note_on_c, 0, 74, 0
1, 56352, Note_on_c, 0, 76, 80
1, 56352, Note_on_c, 1, 60, 69
1, 56382, Note_on_c, 1, 60, 0
1, 56384, Note_on_c, 1, 64, 69
1, 56414, Note_on_c, 1, 64, 0
1, 56416, Note_on_c, 1, 67, 69
1, 56419, Note_on_c, 0, 76, 0
1, 56424, Note_on_c, 0, 72, 75
1, 56446, Note_on_c, 1, 67, 0
1, 56447, Note_on_c, 0, 72, 0
1, 56448, Note_on_c, 0, 77, 74
1, 56448, Note_on_c, 1, 65, 69
1, 56478, Note_on_c, 0, 77, 0
1, 56480, Note_on_c, 0, 72, 74
1, 56510, Note_on_c, 0, 72, 0
1, 56512, Note_on_c, 0, 69, 74
1, 56537, Note_on_c, 1, 65, 0
1, 56542, Note_on_c, 0, 69, 0
1, 56544, Note_on_c, 0, 77, 74
1, 56574, Note_on_c, 0, 77, 0
1, 56576, Note_on_c, 0, 72, 74
1, 56606, Note_on_c, 0, 72, 0
1, 56608, Note_on_c, 0, 69, 74
1, 56638, Note_on_c, 0, 69, 0
1, 56640, Note_on_c, 0, 77, 74
1, 56670, Note_on_c, 0, 77, 0
1, 56672, Note_on_c, 0, 72, 74
1, 56702, Note_on_c, 0, 72, 0
1, 56704, Note_on_c, 0, 69, 74
1, 56734, Note_on_c, 0, 69, 0
1, 56736, Note_on_c, 0, 76, 85
1, 56736, Note_on_c, 1, 67, 85
1, 56736, Note_on_c, 1, 60, 85
1, 56766, Note_on_c, 0, 76, 0
1, 56768, Note_on_c, 0, 72, 85
1, 56798, Note_on_c, 0, 72, 0
1, 56800, Note_on_c, 0, 70, 85
1, 56825, Note_on_c, 1, 67, 0
1, 56825, Note_on_c, 1, 60, 0
1, 56830, Note_on_c, 0, 70, 0
1, 56832, Note_on_c, 0, 77, 74
1, 56832, Note_on_c, 1, 65, 74
1, 56862, Note_on_c, 0, 77, 0
1, 56864, Note_on_c, 0, 72, 74
1, 56871, Note_on_c, 1, 65, 0
1, 56894, Note_on_c, 0, 72, 0
1, 56896, Note_on_c, 0, 69, 74
1, 56926, Note_on_c, 0, 69, 0
1, 56928, Note_on_c, 0, 77, 69
1, 56958, Note_on_c, 0, 77, 0
1, 56960, Note_on_c, 0, 72, 69
1, 56990, Note_on_c, 0, 72, 0
1, 56992, Note_on_c, 0, 69, 69
1, 57022, Note_on_c, 0, 69, 0
1, 57024, Note_on_c, 0, 77, 69
1, 57054, Note_on_c, 0, 77, 0
1, 57056, Note_on_c, 0, 72, 69
1, 57086, Note_on_c, 0, 72, 0
1, 57088, Note_on_c, 0, 69, 69
1, 57118, Note_on_c, 0, 69, 0
1, 57120, Note_on_c, 0, 76, 85
1, 57120, Note_on_c, 1, 67, 85
1, 57120, Note_on_c, 1, 60, 85
1, 57150, Note_on_c, 0, 76, 0
1, 57152, Note_on_c, 0, 72, 85
1, 57182, Note_on_c, 0, 72, 0
1, 57184, Note_on_c, 0, 70, 85
1, 57209, Note_on_c, 1, 67, 0
1, 57209, Note_on_c, 1, 60, 0
1, 57214, Note_on_c, 0, 70, 0
1, 57216, Note_on_c, 0, 77, 74
1, 57216, Note_on_c, 1, 65, 74
1, 57246, Note_on_c, 0, 77, 0
1, 57248, Note_on_c, 0, 72, 74
1, 57255, Note_on_c, 1, 65, 0
1, 57278, Note_on_c, 0, 72, 0
1, 57280, Note_on_c, 0, 69, 74
1, 57310, Note_on_c, 0, 69, 0
1, 57312, Note_on_c, 0, 77, 69
1, 57342, Note_on_c, 0, 77, 0
1, 57344, Note_on_c, 0, 72, 69
1, 57374, Note_on_c, 0, 72, 0
1, 57376, Note_on_c, 0, 69, 69
1, 57406, Note_on_c, 0, 69, 0
1, 57408, Note_on_c, 0, 77, 69
1, 57438, Note_on_c, 0, 77, 0
1, 57440, Note_on_c, 0, 72, 69
1, 57470, Note_on_c, 0, 72, 0
1, 57472, Note_on_c, 0, 69, 69
1, 57502, Note_on_c, 0, 69, 0
1, 57504, Note_on_c, 0, 78, 85
1, 57504, Note_on_c, 1, 69, 85
1, 57504, Note_on_c, 1, 62, 85
1, 57534, Note_on_c, 0, 78, 0
1, 57536, Note_on_c, 0, 74, 85
1, 57566, Note_on_c, 0, 74, 0
1, 57568, Note_on_c, 0, 72, 85
1, 57593, Note_on_c, 1, 69, 0
1, 57593, Note_on_c, 1, 62, 0
1, 57598, Note_on_c, 0, 72, 0
1, 57600, Note_on_c, 0, 79, 79
1, 57600, Note_on_c, 1, 67, 79
1, 57630, Note_on_c, 0, 79, 0
1, 57632, Note_on_c, 0, 74, 79
1, 57639, Note_on_c, 1, 67, 0
1, 57662, Note_on_c, 0, 74, 0
1, 57664, Note_on_c, 0, 71, 79
1, 57694, Note_on_c, 0, 71, 0
1, 57696, Note_on_c, 0, 79, 74
1, 57726, Note_on_c, 0, 79, 0
1, 57728, Note_on_c, 0, 74, 74
1, 57758, Note_on_c, 0, 74, 0
1, 57760, Note_on_c, 0, 71, 74
1, 57790, Note_on_c, 0, 71, 0
1, 57792, Note_on_c, 0, 79, 74
1, 57822, Note_on_c, 0, 79, 0
1, 57824, Note_on_c, 0, 74, 74
1, 57854, Note_on_c, 0, 74, 0
1, 57856, Note_on_c, 0, 71, 74
1, 57886, Note_on_c, 0, 71, 0
1, 57888, Note_on_c, 0, 80, 85
1, 57888, Note_on_c, 1, 71, 85
1, 57888, Note_on_c, 1, 64, 85
1, 57918, Note_on_c, 0, 80, 0
1, 57920, Note_on_c, 0, 76, 85
1, 57950, Note_on_c, 0, 76, 0
1, 57952, Note_on_c, 0, 74, 85
1, 57977, Note_on_c, 1, 71, 0
1, 57977, Note_on_c, 1, 64, 0
1, 57982, Note_on_c, 0, 74, 0
1, 57984, Note_on_c, 0, 81, 79
1, 57984, Note_on_c, 1, 69, 74
1, 58014, Note_on_c, 0, 81, 0
1, 58016, Note_on_c, 0, 76, 79
1, 58023, Note_on_c, 1, 69, 0
1, 58046, Note_on_c, 0, 76, 0
1, 58048, Note_on_c, 0, 72, 79
1, 58078, Note_on_c, 0, 72, 0
1, 58080, Note_on_c, 0, 81, 79
1, 58110, Note_on_c, 0, 81, 0
1, 58112, Note_on_c, 0, 76, 79
1, 58142, Note_on_c, 0, 76, 0
1, 58144, Note_on_c, 0, 72, 79
1, 58174, Note_on_c, 0, 72, 0
1, 58176, Note_on_c, 0, 81, 80
1, 58206, Note_on_c, 0, 81, 0
1, 58208, Note_on_c, 0, 76, 81
1, 58238, Note_on_c, 0, 76, 0
1, 58240, Note_on_c, 0, 72, 82
1, 58270, Note_on_c, 0, 72, 0
1, 58272, Note_on_c, 0, 83, 83
1, 58272, Note_on_c, 1, 68, 85
1, 58302, Note_on_c, 0, 83, 0
1, 58304, Note_on_c, 0, 80, 85
1, 58334, Note_on_c, 0, 80, 0
1, 58336, Note_on_c, 0, 76, 85
1, 58361, Note_on_c, 1, 68, 0
1, 58366, Note_on_c, 0, 76, 0
1, 58368, Note_on_c, 0, 84, 85
1, 58368, Note_on_c, 1, 69, 85
1, 58398, Note_on_c, 0, 84, 0
1, 58400, Note_on_c, 0, 81, 85
1, 58430, Note_on_c, 0, 81, 0
1, 58432, Note_on_c, 0, 76, 85
1, 58457, Note_on_c, 1, 69, 0
1, 58462, Note_on_c, 0, 76, 0
1, 58464, Note_on_c, 0, 86, 85
1, 58464, Note_on_c, 1, 71, 85
1, 58494, Note_on_c, 0, 86, 0
1, 58496, Note_on_c, 0, 83, 85
1, 58526, Note_on_c, 0, 83, 0
1, 58528, Note_on_c, 0, 76, 85
1, 58553, Note_on_c, 1, 71, 0
1, 58558, Note_on_c, 0, 76, 0
1, 58560, Note_on_c, 0, 88, 85
1, 58560, Note_on_c, 1, 72, 85
1, 58590, Note_on_c, 0, 88, 0
1, 58592, Note_on_c, 0, 84, 85
1, 58622, Note_on_c, 0, 84, 0
1, 58624, Note_on_c, 0, 76, 85
1, 58649, Note_on_c, 1, 72, 0
1, 58654, Note_on_c, 0, 76, 0
1, 58656, Note_on_c, 0, 84, 85
1, 58656, Note_on_c, 1, 69, 85
1, 58686, Note_on_c, 0, 84, 0
1, 58688, Note_on_c, 0, 81, 85
1, 58718, Note_on_c, 0, 81, 0
1, 58720, Note_on_c, 0, 76, 85
1, 58745, Note_on_c, 1, 69, 0
1, 58750, Note_on_c, 0, 76, 0
1, 58752, Note_on_c, 0, 83, 85
1, 58752, Note_on_c, 1, 68, 85
1, 58752, Note_on_c, 1, 64, 64
1, 58782, Note_on_c, 0, 83, 0
1, 58784, Note_on_c, 0, 80, 85
1, 58814, Note_on_c, 0, 80, 0
1, 58816, Note_on_c, 0, 76, 85
1, 58841, Note_on_c, 1, 68, 0
1, 58846, Note_on_c, 0, 76, 0
1, 58848, Note_on_c, 0, 84, 85
1, 58848, Note_on_c, 1, 69, 85
1, 58878, Note_on_c, 0, 84, 0
1, 58880, Note_on_c, 0, 81, 85
1, 58910, Note_on_c, 0, 81, 0
1, 58912, Note_on_c, 0, 76, 85
1, 58929, Note_on_c, 1, 64, 0
1, 58937, Note_on_c, 1, 69, 0
1, 58942, Note_on_c, 0, 76, 0
1, 58944, Note_on_c, 0, 83, 85
1, 58944, Note_on_c, 1, 68, 85
1, 58974, Note_on_c, 0, 83, 0
1, 58976, Note_on_c, 0, 80, 85
1, 59006, Note_on_c, 0, 80, 0
1, 59008, Note_on_c, 0, 76, 85
1, 59033, Note_on_c, 1, 68, 0
1, 59038, Note_on_c, 0, 76, 0
1, 59040, Note_on_c, 0, 88, 85
1, 59040, Note_on_c, 1, 64, 85
1, 59070, Note_on_c, 0, 88, 0
1, 59072, Note_on_c, 0, 83, 85
1, 59102, Note_on_c, 0, 83, 0
1, 59104, Note_on_c, 0, 80, 85
1, 59129, Note_on_c, 1, 64, 0
1, 59134, Note_on_c, 0, 80, 0
1, 59136, Note_on_c, 0, 88, 85
1, 59136, Note_on_c, 1, 65, 85
1, 59166, Note_on_c, 0, 88, 0
1, 59168, Note_on_c, 0, 84, 85
1, 59198, Note_on_c, 0, 84, 0
1, 59200, Note_on_c, 0, 81, 85
1, 59225, Note_on_c, 1, 65, 0
1, 59230, Note_on_c, 0, 81, 0
1, 59232, Note_on_c, 0, 88, 85
1, 59232, Note_on_c, 1, 69, 85
1, 59262, Note_on_c, 0, 88, 0
1, 59264, Note_on_c, 0, 84, 85
1, 59294, Note_on_c, 0, 84, 0
1, 59296, Note_on_c, 0, 81, 85
1, 59321, Note_on_c, 1, 69, 0
1, 59326, Note_on_c, 0, 81, 0
1, 59328, Note_on_c, 0, 86, 85
1, 59328, Note_on_c, 1, 71, 85
1, 59358, Note_on_c, 0, 86, 0
1, 59360, Note_on_c, 0, 83, 85
1, 59390, Note_on_c, 0, 83, 0
1, 59392, Note_on_c, 0, 81, 85
1, 59417, Note_on_c, 1, 71, 0
1, 59422, Note_on_c, 0, 81, 0
1, 59424, Note_on_c, 0, 86, 85
1, 59424, Note_on_c, 1, 74, 85
1, 59454, Note_on_c, 0, 86, 0
1, 59456, Note_on_c, 0, 83, 85
1, 59486, Note_on_c, 0, 83, 0
1, 59488, Note_on_c, 0, 81, 85
1, 59513, Note_on_c, 1, 74, 0
1, 59518, Note_on_c, 0, 81, 0
1, 59520, Note_on_c, 0, 86, 85
1, 59520, Note_on_c, 1, 64, 85
1, 59550, Note_on_c, 0, 86, 0
1, 59552, Note_on_c, 0, 83, 85
1, 59582, Note_on_c, 0, 83, 0
1, 59584, Note_on_c, 0, 80, 85
1, 59609, Note_on_c, 1, 64, 0
1, 59614, Note_on_c, 0, 80, 0
1, 59616, Note_on_c, 0, 86, 85
1, 59616, Note_on_c, 1, 68, 85
1, 59646, Note_on_c, 0, 86, 0
1, 59648, Note_on_c, 0, 83, 85
1, 59678, Note_on_c, 0, 83, 0
1, 59680, Note_on_c, 0, 80, 85
1, 59705, Note_on_c, 1, 68, 0
1, 59710, Note_on_c, 0, 80, 0
1, 59712, Note_on_c, 0, 85, 85
1, 59712, Note_on_c, 1, 69, 85
1, 59742, Note_on_c, 0, 85, 0
1, 59744, Note_on_c, 0, 81, 85
1, 59774, Note_on_c, 0, 81, 0
1, 59776, Note_on_c, 0, 79, 85
1, 59801, Note_on_c, 1, 69, 0
1, 59806, Note_on_c, 0, 79, 0
1, 59808, Note_on_c, 0, 85, 85
1, 59808, Note_on_c, 1, 73, 85
1, 59838, Note_on_c, 0, 85, 0
1, 59840, Note_on_c, 0, 81, 85
1, 59870, Note_on_c, 0, 81, 0
1, 59872, Note_on_c, 0, 79, 85
1, 59897, Note_on_c, 1, 73, 0
1, 59902, Note_on_c, 0, 79, 0
1, 59904, Note_on_c, 0, 84, 85
1, 59904, Note_on_c, 1, 62, 85
1, 59934, Note_on_c, 0, 84, 0
1, 59936, Note_on_c, 0, 81, 85
1, 59966, Note_on_c, 0, 81, 0
1, 59968, Note_on_c, 0, 78, 85
1, 59993, Note_on_c, 1, 62, 0
1, 59998, Note_on_c, 0, 78, 0
1, 60000, Note_on_c, 0, 84, 85
1, 60000, Note_on_c, 1, 66, 85
1, 60030, Note_on_c, 0, 84, 0
1, 60032, Note_on_c, 0, 81, 85
1, 60062, Note_on_c, 0, 81, 0
1, 60064, Note_on_c, 0, 78, 85
1, 60089, Note_on_c, 1, 66, 0
1, 60094, Note_on_c, 0, 78, 0
1, 60096, Note_on_c, 0, 83, 85
1, 60096, Note_on_c, 1, 67, 85
1, 60126, Note_on_c, 0, 83, 0
1, 60128, Note_on_c, 0, 79, 85
1, 60158, Note_on_c, 0, 79, 0
1, 60160, Note_on_c, 0, 77, 85
1, 60185, Note_on_c, 1, 67, 0
1, 60190, Note_on_c, 0, 77, 0
1, 60192, Note_on_c, 0, 83, 85
1, 60192, Note_on_c, 1, 71, 85
1, 60222, Note_on_c, 0, 83, 0
1, 60224, Note_on_c, 0, 79, 85
1, 60254, Note_on_c, 0, 79, 0
1, 60256, Note_on_c, 0, 77, 85
1, 60281, Note_on_c, 1, 71, 0
1, 60286, Note_on_c, 0, 77, 0
1, 60288, Note_on_c, 0, 82, 85
1, 60288, Note_on_c, 1, 60, 85
1, 60318, Note_on_c, 0, 82, 0
1, 60320, Note_on_c, 0, 79, 85
1, 60350, Note_on_c, 0, 79, 0
1, 60352, Note_on_c, 0, 76, 85
1, 60377, Note_on_c, 1, 60, 0
1, 60382, Note_on_c, 0, 76, 0
1, 60384, Note_on_c, 0, 82, 85
1, 60384, Note_on_c, 1, 64, 85
1, 60414, Note_on_c, 0, 82, 0
1, 60416, Note_on_c, 0, 79, 85
1, 60446, Note_on_c, 0, 79, 0
1, 60448, Note_on_c, 0, 76, 85
1, 60473, Note_on_c, 1, 64, 0
1, 60478, Note_on_c, 0, 76, 0
1, 60480, Note_on_c, 0, 81, 85
1, 60480, Note_on_c, 1, 65, 85
1, 60510, Note_on_c, 0, 81, 0
1, 60512, Note_on_c, 0, 77, 85
1, 60542, Note_on_c, 0, 77, 0
1, 60544, Note_on_c, 0, 72, 85
1, 60569, Note_on_c, 1, 65, 0
1, 60574, Note_on_c, 0, 72, 0
1, 60576, Note_on_c, 0, 81, 85
1, 60576, Note_on_c, 1, 69, 85
1, 60606, Note_on_c, 0, 81, 0
1, 60608, Note_on_c, 0, 77, 85
1, 60638, Note_on_c, 0, 77, 0
1, 60640, Note_on_c, 0, 72, 85
1, 60665, Note_on_c, 1, 69, 0
1, 60670, Note_on_c, 0, 72, 0
1, 60672, Note_on_c, 0, 82, 85
1, 60672, Note_on_c, 1, 64, 85
1, 60702, Note_on_c, 0, 82, 0
1, 60704, Note_on_c, 0, 79, 85
1, 60734, Note_on_c, 0, 79, 0
1, 60736, Note_on_c, 0, 72, 85
1, 60761, Note_on_c, 1, 64, 0
1, 60766, Note_on_c, 0, 72, 0
1, 60768, Note_on_c, 0, 82, 85
1, 60768, Note_on_c, 1, 60, 85
1, 60798, Note_on_c, 0, 82, 0
1, 60800, Note_on_c, 0, 79, 85
1, 60830, Note_on_c, 0, 79, 0
1, 60832, Note_on_c, 0, 72, 85
1, 60857, Note_on_c, 1, 60, 0
1, 60862, Note_on_c, 0, 72, 0
1, 60864, Note_on_c, 0, 81, 85
1, 60864, Note_on_c, 1, 65, 85
1, 60894, Note_on_c, 0, 81, 0
1, 60896, Note_on_c, 0, 77, 85
1, 60926, Note_on_c, 0, 77, 0
1, 60928, Note_on_c, 0, 72, 85
1, 60953, Note_on_c, 1, 65, 0
1, 60958, Note_on_c, 0, 72, 0
1, 60960, Note_on_c, 0, 81, 85
1, 60960, Note_on_c, 1, 69, 85
1, 60990, Note_on_c, 0, 81, 0
1, 60992, Note_on_c, 0, 77, 85
1, 61022, Note_on_c, 0, 77, 0
1, 61024, Note_on_c, 0, 72, 85
1, 61049, Note_on_c, 1, 69, 0
1, 61054, Note_on_c, 0, 72, 0
1, 61056, Note_on_c, 0, 81, 85
1, 61056, Note_on_c, 1, 53, 92
1, 61056, Note_on_c, 1, 41, 92
1, 61086, Note_on_c, 0, 81, 0
1, 61088, Note_on_c, 0, 77, 85
1, 61118, Note_on_c, 0, 77, 0
1, 61120, Note_on_c, 0, 72, 85
1, 61145, Note_on_c, 1, 53, 0
1, 61145, Note_on_c, 1, 41, 0
1, 61150, Note_on_c, 0, 72, 0
1, 61152, Note_on_c, 0, 81, 85
1, 61152, Note_on_c, 1, 57, 92
1, 61152, Note_on_c, 1, 45, 92
1, 61182, Note_on_c, 0, 81, 0
1, 61184, Note_on_c, 0, 77, 85
1, 61214, Note_on_c, 0, 77, 0
1, 61216, Note_on_c, 0, 72, 85
1, 61241, Note_on_c, 1, 57, 0
1, 61241, Note_on_c, 1, 45, 0
1, 61246, Note_on_c, 0, 72, 0
1, 61248, Note_on_c, 0, 81, 85
1, 61248, Note_on_c, 1, 52, 92
1, 61248, Note_on_c, 1, 40, 92
1, 61278, Note_on_c, 0, 81, 0
1, 61280, Note_on_c, 0, 76, 85
1, 61310, Note_on_c, 0, 76, 0
1, 61312, Note_on_c, 0, 72, 85
1, 61337, Note_on_c, 1, 52, 0
1, 61337, Note_on_c, 1, 40, 0
1, 61342, Note_on_c, 0, 72, 0
1, 61344, Note_on_c, 0, 81, 85
1, 61344, Note_on_c, 1, 57, 92
1, 61344, Note_on_c, 1, 45, 92
1, 61374, Note_on_c, 0, 81, 0
1, 61376, Note_on_c, 0, 76, 85
1, 61406, Note_on_c, 0, 76, 0
1, 61408, Note_on_c, 0, 72, 85
1, 61433, Note_on_c, 1, 57, 0
1, 61433, Note_on_c, 1, 45, 0
1, 61438, Note_on_c, 0, 72, 0
1, 61440, Note_on_c, 0, 81, 85
1, 61440, Note_on_c, 1, 51, 92
1, 61440, Note_on_c, 1, 39, 92
1, 61470, Note_on_c, 0, 81, 0
1, 61472, Note_on_c, 0, 78, 85
1, 61502, Note_on_c, 0, 78, 0
1, 61504, Note_on_c, 0, 72, 85
1, 61529, Note_on_c, 1, 51, 0
1, 61529, Note_on_c, 1, 39, 0
1, 61534, Note_on_c, 0, 72, 0
1, 61536, Note_on_c, 0, 81, 85
1, 61536, Note_on_c, 1, 54, 92
1, 61536, Note_on_c, 1, 42, 92
1, 61566, Note_on_c, 0, 81, 0
1, 61568, Note_on_c, 0, 78, 85
1, 61598, Note_on_c, 0, 78, 0
1, 61600, Note_on_c, 0, 72, 85
1, 61625, Note_on_c, 1, 54, 0
1, 61625, Note_on_c, 1, 42, 0
1, 61630, Note_on_c, 0, 72, 0
1, 61632, Note_on_c, 0, 81, 85
1, 61632, Note_on_c, 1, 57, 92
1, 61632, Note_on_c, 1, 45, 92
1, 61662, Note_on_c, 0, 81, 0
1, 61664, Note_on_c, 0, 78, 85
1, 61694, Note_on_c, 0, 78, 0
1, 61696, Note_on_c, 0, 72, 85
1, 61721, Note_on_c, 1, 57, 0
1, 61721, Note_on_c, 1, 45, 0
1, 61726, Note_on_c, 0, 72, 0
1, 61728, Note_on_c, 0, 81, 85
1, 61728, Note_on_c, 1, 60, 92
1, 61728, Note_on_c, 1, 48, 92
1, 61758, Note_on_c, 0, 81, 0
1, 61760, Note_on_c, 0, 78, 85
1, 61790, Note_on_c, 0, 78, 0
1, 61792, Note_on_c, 0, 72, 85
1, 61817, Note_on_c, 1, 60, 0
1, 61817, Note_on_c, 1, 48, 0
1, 61822, Note_on_c, 0, 72, 0
1, 61824, Note_on_c, 0, 81, 85
1, 61824, Note_on_c, 1, 63, 92
1, 61824, Note_on_c, 1, 51, 92
1, 61854, Note_on_c, 0, 81, 0
1, 61856, Note_on_c, 0, 78, 85
1, 61886, Note_on_c, 0, 78, 0
1, 61888, Note_on_c, 0, 72, 85
1, 61913, Note_on_c, 1, 63, 0
1, 61913, Note_on_c, 1, 51, 0
1, 61918, Note_on_c, 0, 72, 0
1, 61920, Note_on_c, 0, 81, 85
1, 61920, Note_on_c, 1, 66, 92
1, 61920, Note_on_c, 1, 54, 92
1, 61950, Note_on_c, 0, 81, 0
1, 61952, Note_on_c, 0, 78, 85
1, 61982, Note_on_c, 0, 78, 0
1, 61984, Note_on_c, 0, 72, 85
1, 62009, Note_on_c, 1, 66, 0
1, 62009, Note_on_c, 1, 54, 0
1, 62014, Note_on_c, 0, 72, 0
1, 62016, Note_on_c, 0, 81, 85
1, 62016, Note_on_c, 1, 69, 92
1, 62016, Note_on_c, 1, 57, 92
1, 62046, Note_on_c, 0, 81, 0
1, 62048, Note_on_c, 0, 78, 85
1, 62078, Note_on_c, 0, 78, 0
1, 62080, Note_on_c, 0, 72, 85
1, 62105, Note_on_c, 1, 69, 0
1, 62105, Note_on_c, 1, 57, 0
1, 62110, Note_on_c, 0, 72, 0
1, 62112, Note_on_c, 0, 81, 85
1, 62112, Note_on_c, 1, 51, 92
1, 62112, Note_on_c, 1, 39, 92
1, 62142, Note_on_c, 0, 81, 0
1, 62144, Note_on_c, 0, 78, 85
1, 62174, Note_on_c, 0, 78, 0
1, 62176, Note_on_c, 0, 72, 85
1, 62201, Note_on_c, 1, 51, 0
1, 62201, Note_on_c, 1, 39, 0
1, 62206, Note_on_c, 0, 72, 0
1, 62208, Note_on_c, 0, 81, 85
1, 62208, Note_on_c, 1, 52, 92
1, 62208, Note_on_c, 1, 40, 92
1, 62238, Note_on_c, 0, 81, 0
1, 62240, Note_on_c, 0, 76, 85
1, 62270, Note_on_c, 0, 76, 0
1, 62272, Note_on_c, 0, 72, 85
1, 62302, Note_on_c, 0, 72, 0
1, 62304, Note_on_c, 0, 81, 85
1, 62334, Note_on_c, 0, 81, 0
1, 62336, Note_on_c, 0, 76, 85
1, 62366, Note_on_c, 0, 76, 0
1, 62368, Note_on_c, 0, 72, 85
1, 62398, Note_on_c, 0, 72, 0
1, 62400, Note_on_c, 0, 80, 85
1, 62430, Note_on_c, 0, 80, 0
1, 62432, Note_on_c, 0, 74, 85
1, 62462, Note_on_c, 0, 74, 0
1, 62464, Note_on_c, 0, 71, 85
1, 62494, Note_on_c, 0, 71, 0
1, 62496, Note_on_c, 0, 80, 85
1, 62526, Note_on_c, 0, 80, 0
1, 62528, Note_on_c, 0, 74, 85
1, 62558, Note_on_c, 0, 74, 0
1, 62560, Note_on_c, 0, 71, 85
1, 62590, Note_on_c, 0, 71, 0
1, 62592, Note_on_c, 0, 77, 85
1, 62622, Note_on_c, 0, 77, 0
1, 62624, Note_on_c, 0, 72, 85
1, 62654, Note_on_c, 0, 72, 0
1, 62656, Note_on_c, 0, 69, 85
1, 62686, Note_on_c, 0, 69, 0
1, 62688, Note_on_c, 0, 77, 85
1, 62718, Note_on_c, 0, 77, 0
1, 62720, Note_on_c, 0, 72, 85
1, 62750, Note_on_c, 0, 72, 0
1, 62752, Note_on_c, 0, 69, 85
1, 62782, Note_on_c, 0, 69, 0
1, 62784, Note_on_c, 0, 76, 85
1, 62814, Note_on_c, 0, 76, 0
1, 62816, Note_on_c, 0, 71, 85
1, 62846, Note_on_c, 0, 71, 0
1, 62848, Note_on_c, 0, 68, 85
1, 62878, Note_on_c, 0, 68, 0
1, 62880, Note_on_c, 0, 76, 85
1, 62910, Note_on_c, 0, 76, 0
1, 62912, Note_on_c, 0, 71, 85
1, 62942, Note_on_c, 0, 71, 0
1, 62944, Note_on_c, 0, 68, 85
1, 62974, Note_on_c, 0, 68, 0
1, 62976, Note_on_c, 0, 75, 85
1, 63006, Note_on_c, 0, 75, 0
1, 63008, Note_on_c, 0, 69, 85
1, 63038, Note_on_c, 0, 69, 0
1, 63040, Note_on_c, 0, 66, 85
1, 63070, Note_on_c, 0, 66, 0
1, 63072, Note_on_c, 0, 75, 85
1, 63102, Note_on_c, 0, 75, 0
1, 63104, Note_on_c, 0, 69, 85
1, 63134, Note_on_c, 0, 69, 0
1, 63136, Note_on_c, 0, 66, 85
1, 63166, Note_on_c, 0, 66, 0
1, 63168, Note_on_c, 0, 74, 85
1, 63198, Note_on_c, 0, 74, 0
1, 63200, Note_on_c, 0, 71, 85
1, 63230, Note_on_c, 0, 71, 0
1, 63232, Note_on_c, 0, 68, 85
1, 63262, Note_on_c, 0, 68, 0
1, 63264, Note_on_c, 0, 74, 85
1, 63294, Note_on_c, 0, 74, 0
1, 63296, Note_on_c, 0, 71, 85
1, 63326, Note_on_c, 0, 71, 0
1, 63328, Note_on_c, 0, 68, 85
1, 63330, Note_on_c, 1, 52, 0
1, 63330, Note_on_c, 1, 40, 0
1, 63358, Note_on_c, 0, 68, 0
1, 63360, Note_on_c, 0, 72, 85
1, 63360, Note_on_c, 1, 57, 92
1, 63360, Note_on_c, 1, 45, 92
1, 63390, Note_on_c, 0, 72, 0
1, 63392, Note_on_c, 0, 69, 85
1, 63422, Note_on_c, 0, 69, 0
1, 63424, Note_on_c, 0, 64, 85
1, 63454, Note_on_c, 0, 64, 0
1, 63456, Note_on_c, 0, 72, 85
1, 63486, Note_on_c, 0, 72, 0
1, 63488, Note_on_c, 0, 69, 85
1, 63518, Note_on_c, 0, 69, 0
1, 63520, Note_on_c, 0, 64, 85
1, 63537, Note_on_c, 1, 57, 0
1, 63537, Note_on_c, 1, 45, 0
1, 63550, Note_on_c, 0, 64, 0
1, 63552, Note_on_c, 0, 69, 85
1, 63552, Note_on_c, 1, 48, 92
1, 63552, Note_on_c, 1, 36, 92
1, 63582, Note_on_c, 0, 69, 0
1, 63584, Note_on_c, 0, 64, 85
1, 63614, Note_on_c, 0, 64, 0
1, 63616, Note_on_c, 0, 60, 85
1, 63646, Note_on_c, 0, 60, 0
1, 63648, Note_on_c, 0, 69, 85
1, 63678, Note_on_c, 0, 69, 0
1, 63680, Note_on_c, 0, 64, 85
1, 63710, Note_on_c, 0, 64, 0
1, 63712, Note_on_c, 0, 60, 85
1, 63729, Note_on_c, 1, 48, 0
1, 63729, Note_on_c, 1, 36, 0
1, 63742, Note_on_c, 0, 60, 0
1, 63744, Note_on_c, 0, 70, 85
1, 63744, Note_on_c, 1, 50, 92
1, 63744, Note_on_c, 1, 38, 92
1, 63774, Note_on_c, 0, 70, 0
1, 63776, Note_on_c, 0, 65, 85
1, 63806, Note_on_c, 0, 65, 0
1, 63808, Note_on_c, 0, 62, 85
1, 63838, Note_on_c, 0, 62, 0
1, 63840, Note_on_c, 0, 70, 85
1, 63870, Note_on_c, 0, 70, 0
1, 63872, Note_on_c, 0, 65, 85
1, 63902, Note_on_c, 0, 65, 0
1, 63904, Note_on_c, 0, 62, 85
1, 63921, Note_on_c, 1, 50, 0
1, 63921, Note_on_c, 1, 38, 0
1, 63934, Note_on_c, 0, 62, 0
1, 63936, Note_on_c, 0, 68, 85
1, 63936, Note_on_c, 1, 52, 92
1, 63936, Note_on_c, 1, 40, 92
1, 63966, Note_on_c, 0, 68, 0
1, 63968, Note_on_c, 0, 62, 85
1, 63998, Note_on_c, 0, 62, 0
1, 64000, Note_on_c, 0, 59, 85
1, 64030, Note_on_c, 0, 59, 0
1, 64032, Note_on_c, 0, 68, 85
1, 64062, Note_on_c, 0, 68, 0
1, 64064, Note_on_c, 0, 62, 85
1, 64094, Note_on_c, 0, 62, 0
1, 64096, Note_on_c, 0, 59, 85
1, 64113, Note_on_c, 1, 52, 0
1, 64113, Note_on_c, 1, 40, 0
1, 64126, Note_on_c, 0, 59, 0
1, 64128, Note_on_c, 0, 67, 85
1, 64128, Note_on_c, 1, 45, 64
1, 64158, Note_on_c, 0, 67, 0
1, 64160, Note_on_c, 0, 64, 84
1, 64190, Note_on_c, 0, 64, 0
1, 64192, Note_on_c, 0, 61, 84
1, 64222, Note_on_c, 0, 61, 0
1, 64224, Note_on_c, 0, 67, 83
1, 64224, Note_on_c, 1, 49, 64
1, 64254, Note_on_c, 0, 67, 0
1, 64256, Note_on_c, 0, 64, 83
1, 64286, Note_on_c, 0, 64, 0
1, 64288, Note_on_c, 0, 61, 82
1, 64318, Note_on_c, 0, 61, 0
1, 64320, Note_on_c, 0, 67, 82
1, 64320, Note_on_c, 1, 52, 64
1, 64350, Note_on_c, 0, 67, 0
1, 64352, Note_on_c, 0, 64, 81
1, 64382, Note_on_c, 0, 64, 0
1, 64384, Note_on_c, 0, 61, 81
1, 64414, Note_on_c, 0, 61, 0
1, 64416, Note_on_c, 0, 67, 80
1, 64416, Note_on_c, 1, 55, 64
1, 64446, Note_on_c, 0, 67, 0
1, 64448, Note_on_c, 0, 64, 80
1, 64478, Note_on_c, 0, 64, 0
1, 64480, Note_on_c, 0, 61, 79
1, 64510, Note_on_c, 0, 61, 0
1, 64512, Tempo, 1000000
1, 64512, Note_on_c, 0, 58, 79
1, 64518, Note_on_c, 0, 61, 79
1, 64524, Note_on_c, 0, 64, 79
1, 64530, Note_on_c, 0, 67, 79
1, 64697, Note_on_c, 0, 67, 0
1, 64697, Note_on_c, 0, 64, 0
1, 64697, Note_on_c, 0, 61, 0
1, 64697, Note_on_c, 0, 58, 0
1, 64704, Note_on_c, 0, 65, 69
1, 64704, Note_on_c, 1, 57, 69
1, 64793, Note_on_c, 0, 65, 0
1, 64793, Note_on_c, 1, 57, 0
1, 64800, Note_on_c, 0, 64, 69
1, 64800, Note_on_c, 1, 55, 69
1, 64866, Note_on_c, 1, 55, 0
1, 64866, Note_on_c, 1, 52, 0
1, 64866, Note_on_c, 1, 49, 0
1, 64866, Note_on_c, 1, 45, 0
1, 64889, Note_on_c, 0, 64, 0
1, 64889, Note_on_c, 1, 55, 0
1, 64896, Tempo, 375000
1, 64896, Note_on_c, 0, 65, 85
1, 64896, Note_on_c, 1, 53, 85
1, 64896, Note_on_c, 1, 50, 85
1, 64926, Note_on_c, 0, 65, 0
1, 64928, Note_on_c, 0, 62, 85
1, 64958, Note_on_c, 0, 62, 0
1, 64960, Note_on_c, 0, 57, 85
1, 64990, Note_on_c, 0, 57, 0
1, 64992, Note_on_c, 0, 65, 85
1, 65022, Note_on_c, 0, 65, 0
1, 65024, Note_on_c, 0, 62, 85
1, 65054, Note_on_c, 0, 62, 0
1, 65056, Note_on_c, 0, 57, 85
1, 65086, Note_on_c, 0, 57, 0
1, 65088, Note_on_c, 0, 65, 85
1, 65118, Note_on_c, 0, 65, 0
1, 65120, Note_on_c, 0, 62, 85
1, 65150, Note_on_c, 0, 62, 0
1, 65152, Note_on_c, 0, 57, 85
1, 65161, Note_on_c, 1, 53, 0
1, 65161, Note_on_c, 1, 50, 0
1, 65182, Note_on_c, 0, 57, 0
1, 65184, Note_on_c, 0, 65, 85
1, 65184, Note_on_c, 1, 52, 85
1, 65184, Note_on_c, 1, 48, 85
1, 65214, Note_on_c, 0, 65, 0
1, 65216, Note_on_c, 0, 62, 85
1, 65246, Note_on_c, 0, 62, 0
1, 65248, Note_on_c, 0, 57, 85
1, 65273, Note_on_c, 1, 52, 0
1, 65273, Note_on_c, 1, 48, 0
1, 65278, Note_on_c, 0, 57, 0
1, 65280, Note_on_c, 0, 65, 85
1, 65280, Note_on_c, 1, 50, 85
1, 65280, Note_on_c, 1, 47, 85
1, 65310, Note_on_c, 0, 65, 0
1, 65312, Note_on_c, 0, 62, 85
1, 65342, Note_on_c, 0, 62, 0
1, 65344, Note_on_c, 0, 55, 85
1, 65374, Note_on_c, 0, 55, 0
1, 65376, Note_on_c, 0, 65, 85
1, 65406, Note_on_c, 0, 65, 0
1, 65408, Note_on_c, 0, 62, 85
1, 65438, Note_on_c, 0, 62, 0
1, 65440, Note_on_c, 0, 55, 85
1, 65470, Note_on_c, 0, 55, 0
1, 65472, Note_on_c, 0, 65, 85
1, 65502, Note_on_c, 0, 65, 0
1, 65504, Note_on_c, 0, 62, 85
1, 65534, Note_on_c, 0, 62, 0
1, 65536, Note_on_c, 0, 55, 85
1, 65545, Note_on_c, 1, 50, 0
1, 65545, Note_on_c, 1, 47, 0
1, 65566, Note_on_c, 0, 55, 0
1, 65568, Note_on_c, 0, 65, 85
1, 65568, Note_on_c, 1, 48, 85
1, 65568, Note_on_c, 1, 45, 85
1, 65598, Note_on_c, 0, 65, 0
1, 65600, Note_on_c, 0, 62, 85
1, 65630, Note_on_c, 0, 62, 0
1, 65632, Note_on_c, 0, 55, 85
1, 65657, Note_on_c, 1, 48, 0
1, 65657, Note_on_c, 1, 45, 0
1, 65662, Note_on_c, 0, 55, 0
1, 65664, Note_on_c, 0, 65, 85
1, 65664, Note_on_c, 0, 62, 85
1, 65664, Note_on_c, 0, 55, 85
1, 65664, Note_on_c, 1, 47, 69
1, 65664, Note_on_c, 1, 43, 69
1, 65929, Note_on_c, 0, 65, 0
1, 65929, Note_on_c, 0, 62, 0
1, 65929, Note_on_c, 0, 55, 0
1, 65952, Note_on_c, 0, 55, 69
1, 66024, Note_on_c, 0, 55, 0
1, 66024, Note_on_c, 0, 59, 69
1, 66047, Note_on_c, 0, 59, 0
1, 66048, Note_on_c, 0, 62, 69
1, 66087, Note_on_c, 0, 62, 0
1, 66144, Note_on_c, 0, 59, 69
1, 66216, Note_on_c, 0, 59, 0
1, 66216, Note_on_c, 0, 62, 70
1, 66239, Note_on_c, 0, 62, 0
1, 66240, Note_on_c, 0, 65, 70
1, 66279, Note_on_c, 0, 65, 0
1, 66336, Note_on_c, 0, 62, 71
1, 66402, Note_on_c, 1, 47, 0
1, 66402, Note_on_c, 1, 43, 0
1, 66408, Note_on_c, 0, 62, 0
1, 66408, Note_on_c, 0, 65, 72
1, 66431, Note_on_c, 0, 65, 0
1, 66432, Note_on_c, 0, 71, 72
1, 66471, Note_on_c, 0, 71, 0
1, 66528, Note_on_c, 0, 65, 73
1, 66600, Note_on_c, 0, 65, 0
1, 66600, Note_on_c, 0, 71, 73
1, 66623, Note_on_c, 0, 71, 0
1, 66624, Note_on_c, 0, 74, 74
1, 66663, Note_on_c, 0, 74, 0
1, 66720, Note_on_c, 0, 77, 74
1, 66743, Note_on_c, 0, 77, 0
1, 66744, Note_on_c, 0, 76, 73
1, 66767, Note_on_c, 0, 76, 0
1, 66768, Note_on_c, 0, 74, 73
1, 66791, Note_on_c, 0, 74, 0
1, 66792, Note_on_c, 0, 72, 73
1, 66815, Note_on_c, 0, 72, 0
1, 66816, Note_on_c, 0, 71, 73
1, 66855, Note_on_c, 0, 71, 0
1, 66912, Note_on_c, 0, 74, 72
1, 66935, Note_on_c, 0, 74, 0
1, 66936, Note_on_c, 0, 72, 71
1, 66959, Note_on_c, 0, 72, 0
1, 66960, Note_on_c, 0, 71, 71
1, 66983, Note_on_c, 0, 71, 0
1, 66984, Note_on_c, 0, 69, 71
1, 67007, Note_on_c, 0, 69, 0
1, 67008, Note_on_c, 0, 67, 71
1, 67047, Note_on_c, 0, 67, 0
1, 67104, Note_on_c, 0, 71, 70
1, 67127, Note_on_c, 0, 71, 0
1, 67128, Note_on_c, 0, 69, 69
1, 67151, Note_on_c, 0, 69, 0
1, 67152, Note_on_c, 0, 67, 69
1, 67175, Note_on_c, 0, 67, 0
1, 67176, Note_on_c, 0, 66, 69
1, 67199, Note_on_c, 0, 66, 0
1, 67200, Note_on_c, 0, 67, 69
1, 67200, Note_on_c, 1, 59, 74
1, 67200, Note_on_c, 1, 55, 74
1, 67230, Note_on_c, 0, 67, 0
1, 67232, Note_on_c, 0, 74, 69
1, 67262, Note_on_c, 0, 74, 0
1, 67264, Note_on_c, 0, 71, 69
1, 67294, Note_on_c, 0, 71, 0
1, 67296, Note_on_c, 0, 67, 69
1, 67326, Note_on_c, 0, 67, 0
1, 67328, Note_on_c, 0, 71, 69
1, 67358, Note_on_c, 0, 71, 0
1, 67360, Note_on_c, 0, 67, 69
1, 67390, Note_on_c, 0, 67, 0
1, 67392, Note_on_c, 0, 62, 69
1, 67422, Note_on_c, 0, 62, 0
1, 67424, Note_on_c, 0, 67, 69
1, 67454, Note_on_c, 0, 67, 0
1, 67456, Note_on_c, 0, 62, 69
1, 67486, Note_on_c, 0, 62, 0
1, 67488, Note_on_c, 0, 59, 69
1, 67518, Note_on_c, 0, 59, 0
1, 67520, Note_on_c, 0, 62, 69
1, 67550, Note_on_c, 0, 62, 0
1, 67552, Note_on_c, 0, 59, 69
1, 67554, Note_on_c, 1, 59, 0
1, 67554, Note_on_c, 1, 55, 0
1, 67582, Note_on_c, 0, 59, 0
1, 67584, Note_on_c, 0, 55, 69
1, 67673, Note_on_c, 0, 55, 0
1, 67680, Note_on_c, 0, 57, 70
1, 67725, Note_on_c, 0, 57, 0
1, 67728, Note_on_c, 0, 59, 70
1, 67773, Note_on_c, 0, 59, 0
1, 67776, Note_on_c, 0, 60, 71
1, 67821, Note_on_c, 0, 60, 0
1, 67824, Note_on_c, 0, 62, 72
1, 67869, Note_on_c, 0, 62, 0
1, 67872, Note_on_c, 0, 64, 72
1, 67917, Note_on_c, 0, 64, 0
1, 67920, Note_on_c, 0, 66, 73
1, 67965, Note_on_c, 0, 66, 0
1, 67968, Note_on_c, 0, 67, 85
1, 67968, Note_on_c, 1, 55, 85
1, 67988, Note_on_c, 0, 67, 0
1, 67988, Note_on_c, 1, 55, 0
1, 68016, Note_on_c, 0, 67, 85
1, 68016, Note_on_c, 1, 55, 85
1, 68061, Note_on_c, 0, 67, 0
1, 68061, Note_on_c, 1, 55, 0
1, 68064, Note_on_c, 0, 69, 85
1, 68064, Note_on_c, 1, 57, 85
1, 68109, Note_on_c, 0, 69, 0
1, 68109, Note_on_c, 1, 57, 0
1, 68112, Note_on_c, 0, 71, 85
1, 68112, Note_on_c, 1, 59, 85
1, 68157, Note_on_c, 0, 71, 0
1, 68157, Note_on_c, 1, 59, 0
1, 68160, Note_on_c, 0, 72, 85
1, 68160, Note_on_c, 1, 60, 85
1, 68205, Note_on_c, 0, 72, 0
1, 68205, Note_on_c, 1, 60, 0
1, 68208, Note_on_c, 0, 74, 85
1, 68208, Note_on_c, 1, 62, 85
1, 68253, Note_on_c, 0, 74, 0
1, 68253, Note_on_c, 1, 62, 0
1, 68256, Note_on_c, 0, 76, 85
1, 68256, Note_on_c, 1, 64, 85
1, 68301, Note_on_c, 0, 76, 0
1, 68301, Note_on_c, 1, 64, 0
1, 68304, Note_on_c, 0, 78, 85
1, 68304, Note_on_c, 1, 66, 85
1, 68349, Note_on_c, 0, 78, 0
1, 68349, Note_on_c, 1, 66, 0
1, 68352, Note_on_c, 0, 79, 85
1, 68352, Note_on_c, 1, 67, 85
1, 68370, Note_on_c, 0, 79, 0
1, 68370, Note_on_c, 0, 81, 85
1, 68388, Note_on_c, 0, 81, 0
1, 68388, Note_on_c, 0, 79, 85
1, 68406, Note_on_c, 0, 79, 0
1, 68406, Note_on_c, 0, 81, 85
1, 68424, Note_on_c, 0, 81, 0
1, 68424, Note_on_c, 0, 79, 85
1, 68442, Note_on_c, 0, 79, 0
1, 68442, Note_on_c, 0, 81, 85
1, 68460, Note_on_c, 0, 81, 0
1, 68460, Note_on_c, 0, 79, 85
1, 68478, Note_on_c, 0, 79, 0
1, 68478, Note_on_c, 0, 81, 85
1, 68496, Note_on_c, 0, 81, 0
1, 68496, Note_on_c, 0, 79, 85
1, 68514, Note_on_c, 0, 79, 0
1, 68514, Note_on_c, 0, 81, 85
1, 68532, Note_on_c, 0, 81, 0
1, 68532, Note_on_c, 0, 79, 85
1, 68550, Note_on_c, 0, 79, 0
1, 68550, Note_on_c, 0, 81, 85
1, 68568, Note_on_c, 0, 81, 0
1, 68568, Note_on_c, 0, 79, 85
1, 68586, Note_on_c, 0, 79, 0
1, 68586, Note_on_c, 0, 81, 85
1, 68604, Note_on_c, 0, 81, 0
1, 68604, Note_on_c, 0, 79, 85
1, 68617, Note_on_c, 0, 79, 0
1, 68617, Note_on_c, 1, 67, 0
1, 68640, Note_on_c, 0, 78, 85
1, 68685, Note_on_c, 0, 78, 0
1, 68688, Note_on_c, 0, 79, 85
1, 68733, Note_on_c, 0, 79, 0
1, 68736, Note_on_c, 0, 67, 85
1, 69046, Note_on_c, 0, 67, 0
1, 69408, Note_on_c, 0, 60, 79
1, 69475, Note_on_c, 0, 60, 0
1, 69480, Note_on_c, 0, 64, 79
1, 69503, Note_on_c, 0, 64, 0
1, 69504, Note_on_c, 0, 67, 79
1, 69504, Note_on_c, 1, 52, 74
1, 69504, Note_on_c, 1, 48, 74
1, 69543, Note_on_c, 0, 67, 0
1, 69543, Note_on_c, 1, 52, 0
1, 69543, Note_on_c, 1, 48, 0
1, 69600, Note_on_c, 0, 67, 79
1, 69639, Note_on_c, 0, 67, 0
1, 69696, Note_on_c, 0, 67, 79
1, 69735, Note_on_c, 0, 67, 0
1, 69792, Note_on_c, 0, 71, 85
1, 69804, Note_on_c, 0, 71, 0
1, 69804, Note_on_c, 0, 72, 85
1, 69831, Note_on_c, 0, 72, 0
1, 69888, Note_on_c, 0, 67, 79
1, 69888, Note_on_c, 1, 52, 74
1, 69888, Note_on_c, 1, 48, 74
1, 69927, Note_on_c, 0, 67, 0
1, 69927, Note_on_c, 1, 52, 0
1, 69927, Note_on_c, 1, 48, 0
1, 69984, Note_on_c, 0, 67, 79
1, 70023, Note_on_c, 0, 67, 0
1, 70080, Note_on_c, 0, 67, 79
1, 70119, Note_on_c, 0, 67, 0
1, 70176, Note_on_c, 0, 64, 79
1, 70243, Note_on_c, 0, 64, 0
1, 70248, Note_on_c, 0, 60, 79
1, 70271, Note_on_c, 0, 60, 0
1, 70272, Note_on_c, 0, 59, 79
1, 70272, Note_on_c, 1, 53, 74
1, 70272, Note_on_c, 1, 50, 74
1, 70272, Note_on_c, 1, 43, 74
1, 70311, Note_on_c, 0, 59, 0
1, 70311, Note_on_c, 1, 53, 0
1, 70311, Note_on_c, 1, 50, 0
1, 70311, Note_on_c, 1, 43, 0
1, 70368, Note_on_c, 0, 59, 80
1, 70368, Note_on_c, 1, 53, 75
1, 70368, Note_on_c, 1, 50, 75
1, 70368, Note_on_c, 1, 43, 75
1, 70407, Note_on_c, 0, 59, 0
1, 70407, Note_on_c, 1, 53, 0
1, 70407, Note_on_c, 1, 50, 0
1, 70407, Note_on_c, 1, 43, 0
1, 70464, Note_on_c, 0, 60, 82
1, 70464, Note_on_c, 1, 52, 76
1, 70464, Note_on_c, 1, 48, 76
1, 70464, Note_on_c, 1, 43, 76
1, 70503, Note_on_c, 0, 60, 0
1, 70503, Note_on_c, 1, 52, 0
1, 70503, Note_on_c, 1, 48, 0
1, 70503, Note_on_c, 1, 43, 0
1, 70560, Note_on_c, 0, 60, 83
1, 70560, Note_on_c, 1, 52, 77
1, 70560, Note_on_c, 1, 48, 77
1, 70560, Note_on_c, 1, 43, 77
1, 70599, Note_on_c, 0, 60, 0
1, 70599, Note_on_c, 1, 52, 0
1, 70599, Note_on_c, 1, 48, 0
1, 70599, Note_on_c, 1, 43, 0
1, 70656, Note_on_c, 0, 62, 85
1, 70656, Note_on_c, 1, 50, 79
1, 70656, Note_on_c, 1, 47, 79
1, 70656, Note_on_c, 1, 43, 79
1, 70745, Note_on_c, 0, 62, 0
1, 70745, Note_on_c, 1, 50, 0
1, 70745, Note_on_c, 1, 47, 0
1, 70745, Note_on_c, 1, 43, 0
1, 70944, Note_on_c, 0, 55, 79
1, 71011, Note_on_c, 0, 55, 0
1, 71016, Note_on_c, 0, 62, 79
1, 71039, Note_on_c, 0, 62, 0
1, 71040, Note_on_c, 0, 65, 79
1, 71040, Note_on_c, 1, 55, 74
1, 71040, Note_on_c, 1, 47, 74
1, 71079, Note_on_c, 0, 65, 0
1, 71079, Note_on_c, 1, 55, 0
1, 71079, Note_on_c, 1, 47, 0
1, 71136, Note_on_c, 0, 65, 79
1, 71208, Note_on_c, 0, 65, 0
1, 71208, Note_on_c, 0, 67, 80
1, 71231, Note_on_c, 0, 67, 0
1, 71232, Note_on_c, 0, 64, 80
1, 71232, Note_on_c, 1, 55, 74
1, 71232, Note_on_c, 1, 48, 74
1, 71271, Note_on_c, 0, 64, 0
1, 71271, Note_on_c, 1, 55, 0
1, 71271, Note_on_c, 1, 48, 0
1, 71328, Note_on_c, 0, 64, 82
1, 71400, Note_on_c, 0, 64, 0
1, 71400, Note_on_c, 0, 65, 83
1, 71423, Note_on_c, 0, 65, 0
1, 71424, Note_on_c, 0, 62, 84
1, 71424, Note_on_c, 1, 55, 74
1, 71424, Note_on_c, 1, 53, 74
1, 71463, Note_on_c, 0, 62, 0
1, 71463, Note_on_c, 1, 55, 0
1, 71463, Note_on_c, 1, 53, 0
1, 71520, Note_on_c, 0, 62, 84
1, 71592, Note_on_c, 0, 62, 0
1, 71592, Note_on_c, 0, 64, 82
1, 71615, Note_on_c, 0, 64, 0
1, 71616, Note_on_c, 0, 60, 82
1, 71616, Note_on_c, 1, 55, 74
1, 71616, Note_on_c, 1, 52, 74
1, 71655, Note_on_c, 0, 60, 0
1, 71655, Note_on_c, 1, 55, 0
1, 71655, Note_on_c, 1, 52, 0
1, 71712, Note_on_c, 0, 60, 80
1, 71751, Note_on_c, 0, 60, 0
1, 71808, Note_on_c, 0, 62, 79
1, 71808, Note_on_c, 1, 53, 74
1, 71808, Note_on_c, 1, 41, 74
1, 71847, Note_on_c, 0, 62, 0
1, 71847, Note_on_c, 1, 53, 0
1, 71847, Note_on_c, 1, 41, 0
1, 71904, Note_on_c, 0, 62, 79
1, 71904, Note_on_c, 1, 53, 74
1, 71904, Note_on_c, 1, 41, 74
1, 71943, Note_on_c, 0, 62, 0
1, 71943, Note_on_c, 1, 53, 0
1, 71943, Note_on_c, 1, 41, 0
1, 72000, Note_on_c, 0, 59, 79
1, 72000, Note_on_c, 1, 50, 74
1, 72000, Note_on_c, 1, 43, 74
1, 72039, Note_on_c, 0, 59, 0
1, 72039, Note_on_c, 1, 50, 0
1, 72039, Note_on_c, 1, 43, 0
1, 72096, Note_on_c, 0, 59, 79
1, 72096, Note_on_c, 1, 50, 74
1, 72096, Note_on_c, 1, 43, 74
1, 72135, Note_on_c, 0, 59, 0
1, 72135, Note_on_c, 1, 50, 0
1, 72135, Note_on_c, 1, 43, 0
1, 72192, Note_on_c, 1, 60, 74
1, 72222, Note_on_c, 1, 60, 0
1, 72224, Note_on_c, 1, 63, 74
1, 72254, Note_on_c, 1, 63, 0
1, 72256, Note_on_c, 1, 67, 74
1, 72286, Note_on_c, 1, 67, 0
1, 72288, Note_on_c, 1, 60, 74
1, 72318, Note_on_c, 1, 60, 0
1, 72320, Note_on_c, 1, 63, 74
1, 72350, Note_on_c, 1, 63, 0
1, 72352, Note_on_c, 1, 67, 74
1, 72382, Note_on_c, 1, 67, 0
1, 72384, Note_on_c, 1, 60, 74
1, 72414, Note_on_c, 1, 60, 0
1, 72416, Note_on_c, 1, 63, 74
1, 72446, Note_on_c, 1, 63, 0
1, 72448, Note_on_c, 1, 67, 74
1, 72478, Note_on_c, 1, 67, 0
1, 72480, Note_on_c, 0, 72, 85
1, 72480, Note_on_c, 1, 60, 74
1, 72503, Note_on_c, 0, 72, 0
1, 72504, Note_on_c, 0, 74, 85
1, 72510, Note_on_c, 1, 60, 0
1, 72512, Note_on_c, 1, 63, 74
1, 72527, Note_on_c, 0, 74, 0
1, 72528, Note_on_c, 0, 75, 85
1, 72542, Note_on_c, 1, 63, 0
1, 72544, Note_on_c, 1, 67, 74
1, 72551, Note_on_c, 0, 75, 0
1, 72552, Note_on_c, 0, 77, 85
1, 72574, Note_on_c, 1, 67, 0
1, 72575, Note_on_c, 0, 77, 0
1, 72576, Note_on_c, 0, 79, 85
1, 72576, Note_on_c, 1, 60, 74
1, 72606, Note_on_c, 1, 60, 0
1, 72608, Note_on_c, 1, 63, 74
1, 72615, Note_on_c, 0, 79, 0
1, 72638, Note_on_c, 1, 63, 0
1, 72640, Note_on_c, 1, 67, 74
1, 72670, Note_on_c, 1, 67, 0
1, 72672, Note_on_c, 0, 79, 85
1, 72672, Note_on_c, 1, 60, 74
1, 72702, Note_on_c, 1, 60, 0
1, 72704, Note_on_c, 1, 63, 74
1, 72711, Note_on_c, 0, 79, 0
1, 72734, Note_on_c, 1, 63, 0
1, 72736, Note_on_c, 1, 67, 74
1, 72766, Note_on_c, 1, 67, 0
1, 72768, Note_on_c, 0, 79, 85
1, 72768, Note_on_c, 1, 60, 74
1, 72798, Note_on_c, 1, 60, 0
1, 72800, Note_on_c, 1, 63, 74
1, 72807, Note_on_c, 0, 79, 0
1, 72830, Note_on_c, 1, 63, 0
1, 72832, Note_on_c, 1, 67, 74
1, 72862, Note_on_c, 1, 67, 0
1, 72864, Note_on_c, 0, 83, 85
1, 72864, Note_on_c, 1, 60, 74
1, 72876, Note_on_c, 0, 83, 0
1, 72876, Note_on_c, 0, 84, 85
1, 72894, Note_on_c, 1, 60, 0
1, 72896, Note_on_c, 1, 63, 74
1, 72903, Note_on_c, 0, 84, 0
1, 72926, Note_on_c, 1, 63, 0
1, 72928, Note_on_c, 1, 67, 74
1, 72958, Note_on_c, 1, 67, 0
1, 72960, Note_on_c, 0, 79, 85
1, 72960, Note_on_c, 1, 60, 74
1, 72990, Note_on_c, 1, 60, 0
1, 72992, Note_on_c, 1, 63, 74
1, 72999, Note_on_c, 0, 79, 0
1, 73022, Note_on_c, 1, 63, 0
1, 73024, Note_on_c, 1, 67, 74
1, 73054, Note_on_c, 1, 67, 0
1, 73056, Note_on_c, 0, 79, 85
1, 73056, Note_on_c, 1, 60, 74
1, 73086, Note_on_c, 1, 60, 0
1, 73088, Note_on_c, 1, 63, 74
1, 73095, Note_on_c, 0, 79, 0
1, 73118, Note_on_c, 1, 63, 0
1, 73120, Note_on_c, 1, 67, 74
1, 73150, Note_on_c, 1, 67, 0
1, 73152, Note_on_c, 0, 79, 85
1, 73152, Note_on_c, 1, 60, 74
1, 73182, Note_on_c, 1, 60, 0
1, 73184, Note_on_c, 1, 63, 74
1, 73191, Note_on_c, 0, 79, 0
1, 73214, Note_on_c, 1, 63, 0
1, 73216, Note_on_c, 1, 67, 74
1, 73246, Note_on_c, 1, 67, 0
1, 73248, Note_on_c, 0, 72, 85
1, 73248, Note_on_c, 1, 60, 74
1, 73271, Note_on_c, 0, 72, 0
1, 73272, Note_on_c, 0, 74, 85
1, 73278, Note_on_c, 1, 60, 0
1, 73280, Note_on_c, 1, 63, 74
1, 73295, Note_on_c, 0, 74, 0
1, 73296, Note_on_c, 0, 76, 85
1, 73310, Note_on_c, 1, 63, 0
1, 73312, Note_on_c, 1, 67, 74
1, 73319, Note_on_c, 0, 76, 0
1, 73320, Note_on_c, 0, 77, 85
1, 73342, Note_on_c, 1, 67, 0
1, 73343, Note_on_c, 0, 77, 0
1, 73344, Note_on_c, 0, 79, 85
1, 73344, Note_on_c, 1, 58, 74
1, 73374, Note_on_c, 1, 58, 0
1, 73376, Note_on_c, 1, 64, 74
1, 73383, Note_on_c, 0, 79, 0
1, 73406, Note_on_c, 1, 64, 0
1, 73408, Note_on_c, 1, 67, 74
1, 73438, Note_on_c, 1, 67, 0
1, 73440, Note_on_c, 0, 79, 85
1, 73440, Note_on_c, 1, 58, 74
1, 73470, Note_on_c, 1, 58, 0
1, 73472, Note_on_c, 1, 64, 74
1, 73479, Note_on_c, 0, 79, 0
1, 73502, Note_on_c, 1, 64, 0
1, 73504, Note_on_c, 1, 67, 74
1, 73534, Note_on_c, 1, 67, 0
1, 73536, Note_on_c, 0, 79, 85
1, 73536, Note_on_c, 1, 58, 74
1, 73566, Note_on_c, 1, 58, 0
1, 73568, Note_on_c, 1, 64, 74
1, 73575, Note_on_c, 0, 79, 0
1, 73598, Note_on_c, 1, 64, 0
1, 73600, Note_on_c, 1, 67, 74
1, 73630, Note_on_c, 1, 67, 0
1, 73632, Note_on_c, 0, 83, 85
1, 73632, Note_on_c, 1, 58, 74
1, 73644, Note_on_c, 0, 83, 0
1, 73644, Note_on_c, 0, 84, 85
1, 73662, Note_on_c, 1, 58, 0
1, 73664, Note_on_c, 1, 64, 74
1, 73671, Note_on_c, 0, 84, 0
1, 73694, Note_on_c, 1, 64, 0
1, 73696, Note_on_c, 1, 67, 74
1, 73726, Note_on_c, 1, 67, 0
1, 73728, Note_on_c, 0, 79, 85
1, 73728, Note_on_c, 1, 58, 74
1, 73758, Note_on_c, 1, 58, 0
1, 73760, Note_on_c, 1, 64, 74
1, 73767, Note_on_c, 0, 79, 0
1, 73790, Note_on_c, 1, 64, 0
1, 73792, Note_on_c, 1, 67, 74
1, 73822, Note_on_c, 1, 67, 0
1, 73824, Note_on_c, 0, 79, 85
1, 73824, Note_on_c, 1, 58, 74
1, 73854, Note_on_c, 1, 58, 0
1, 73856, Note_on_c, 1, 64, 74
1, 73863, Note_on_c, 0, 79, 0
1, 73886, Note_on_c, 1, 64, 0
1, 73888, Note_on_c, 1, 67, 74
1, 73918, Note_on_c, 1, 67, 0
1, 73920, Note_on_c, 0, 79, 85
1, 73920, Note_on_c, 1, 58, 74
1, 73950, Note_on_c, 1, 58, 0
1, 73952, Note_on_c, 1, 64, 74
1, 73959, Note_on_c, 0, 79, 0
1, 73982, Note_on_c, 1, 64, 0
1, 73984, Note_on_c, 1, 67, 74
1, 74014, Note_on_c, 1, 67, 0
1, 74016, Note_on_c, 0, 73, 85
1, 74016, Note_on_c, 1, 58, 74
1, 74039, Note_on_c, 0, 73, 0
1, 74040, Note_on_c, 0, 74, 85
1, 74046, Note_on_c, 1, 58, 0
1, 74048, Note_on_c, 1, 64, 74
1, 74063, Note_on_c, 0, 74, 0
1, 74064, Note_on_c, 0, 76, 85
1, 74078, Note_on_c, 1, 64, 0
1, 74080, Note_on_c, 1, 67, 74
1, 74087, Note_on_c, 0, 76, 0
1, 74088, Note_on_c, 0, 77, 85
1, 74110, Note_on_c, 1, 67, 0
1, 74111, Note_on_c, 0, 77, 0
1, 74112, Note_on_c, 0, 79, 85
1, 74112, Note_on_c, 1, 57, 74
1, 74142, Note_on_c, 1, 57, 0
1, 74144, Note_on_c, 1, 64, 74
1, 74151, Note_on_c, 0, 79, 0
1, 74174, Note_on_c, 1, 64, 0
1, 74176, Note_on_c, 1, 67, 74
1, 74206, Note_on_c, 1, 67, 0
1, 74208, Note_on_c, 0, 79, 85
1, 74208, Note_on_c, 1, 57, 74
1, 74238, Note_on_c, 1, 57, 0
1, 74240, Note_on_c, 1, 64, 74
1, 74247, Note_on_c, 0, 79, 0
1, 74270, Note_on_c, 1, 64, 0
1, 74272, Note_on_c, 1, 67, 74
1, 74302, Note_on_c, 1, 67, 0
1, 74304, Note_on_c, 0, 79, 85
1, 74304, Note_on_c, 1, 57, 74
1, 74334, Note_on_c, 1, 57, 0
1, 74336, Note_on_c, 1, 64, 74
1, 74343, Note_on_c, 0, 79, 0
1, 74366, Note_on_c, 1, 64, 0
1, 74368, Note_on_c, 1, 67, 74
1, 74398, Note_on_c, 1, 67, 0
1, 74400, Note_on_c, 0, 79, 85
1, 74400, Note_on_c, 1, 57, 74
1, 74430, Note_on_c, 0, 79, 0
1, 74430, Note_on_c, 1, 57, 0
1, 74432, Note_on_c, 0, 85, 85
1, 74432, Note_on_c, 1, 64, 74
1, 74462, Note_on_c, 0, 85, 0
1, 74462, Note_on_c, 1, 64, 0
1, 74464, Note_on_c, 0, 88, 85
1, 74464, Note_on_c, 1, 67, 74
1, 74494, Note_on_c, 0, 88, 0
1, 74494, Note_on_c, 1, 67, 0
1, 74496, Note_on_c, 0, 77, 85
1, 74496, Note_on_c, 1, 57, 74
1, 74526, Note_on_c, 1, 57, 0
1, 74528, Note_on_c, 1, 62, 74
1, 74535, Note_on_c, 0, 77, 0
1, 74558, Note_on_c, 1, 62, 0
1, 74560, Note_on_c, 1, 65, 74
1, 74590, Note_on_c, 1, 65, 0
1, 74592, Note_on_c, 0, 77, 85
1, 74592, Note_on_c, 1, 57, 74
1, 74622, Note_on_c, 1, 57, 0
1, 74624, Note_on_c, 1, 62, 74
1, 74631, Note_on_c, 0, 77, 0
1, 74654, Note_on_c, 1, 62, 0
1, 74656, Note_on_c, 1, 65, 74
1, 74686, Note_on_c, 1, 65, 0
1, 74688, Note_on_c, 0, 77, 85
1, 74688, Note_on_c, 1, 57, 74
1, 74718, Note_on_c, 1, 57, 0
1, 74720, Note_on_c, 1, 62, 74
1, 74727, Note_on_c, 0, 77, 0
1, 74750, Note_on_c, 1, 62, 0
1, 74752, Note_on_c, 1, 65, 74
1, 74782, Note_on_c, 1, 65, 0
1, 74784, Note_on_c, 0, 77, 85
1, 74784, Note_on_c, 1, 57, 74
1, 74814, Note_on_c, 0, 77, 0
1, 74814, Note_on_c, 1, 57, 0
1, 74816, Note_on_c, 0, 81, 85
1, 74816, Note_on_c, 1, 62, 74
1, 74846, Note_on_c, 0, 81, 0
1, 74846, Note_on_c, 1, 62, 0
1, 74848, Note_on_c, 0, 86, 85
1, 74848, Note_on_c, 1, 65, 74
1, 74878, Note_on_c, 0, 86, 0
1, 74878, Note_on_c, 1, 65, 0
1, 74880, Note_on_c, 0, 77, 85
1, 74880, Note_on_c, 1, 55, 74
1, 74910, Note_on_c, 1, 55, 0
1, 74912, Note_on_c, 1, 59, 74
1, 74919, Note_on_c, 0, 77, 0
1, 74942, Note_on_c, 1, 59, 0
1, 74944, Note_on_c, 1, 62, 74
1, 74974, Note_on_c, 1, 62, 0
1, 74976, Note_on_c, 0, 77, 85
1, 74976, Note_on_c, 1, 55, 74
1, 75006, Note_on_c, 1, 55, 0
1, 75008, Note_on_c, 1, 59, 74
1, 75038, Note_on_c, 1, 59, 0
1, 75040, Note_on_c, 1, 62, 74
1, 75043, Note_on_c, 0, 77, 0
1, 75048, Note_on_c, 0, 79, 85
1, 75070, Note_on_c, 1, 62, 0
1, 75071, Note_on_c, 0, 79, 0
1, 75072, Note_on_c, 0, 76, 85
1, 75072, Note_on_c, 1, 55, 74
1, 75102, Note_on_c, 1, 55, 0
1, 75104, Note_on_c, 1, 60, 74
1, 75111, Note_on_c, 0, 76, 0
1, 75134, Note_on_c, 1, 60, 0
1, 75136, Note_on_c, 1, 64, 74
1, 75166, Note_on_c, 1, 64, 0
1, 75168, Note_on_c, 0, 76, 85
1, 75168, Note_on_c, 1, 55, 74
1, 75198, Note_on_c, 1, 55, 0
1, 75200, Note_on_c, 1, 60, 74
1, 75230, Note_on_c, 1, 60, 0
1, 75232, Note_on_c, 1, 64, 74
1, 75235, Note_on_c, 0, 76, 0
1, 75240, Note_on_c, 0, 77, 85
1, 75262, Note_on_c, 1, 64, 0
1, 75263, Note_on_c, 0, 77, 0
1, 75264, Note_on_c, 0, 74, 85
1, 75264, Note_on_c, 1, 55, 74
1, 75294, Note_on_c, 1, 55, 0
1, 75296, Note_on_c, 1, 62, 74
1, 75303, Note_on_c, 0, 74, 0
1, 75326, Note_on_c, 1, 62, 0
1, 75328, Note_on_c, 1, 65, 74
1, 75358, Note_on_c, 1, 65, 0
1, 75360, Note_on_c, 0, 74, 85
1, 75360, Note_on_c, 1, 55, 74
1, 75390, Note_on_c, 1, 55, 0
1, 75392, Note_on_c, 1, 62, 74
1, 75422, Note_on_c, 1, 62, 0
1, 75424, Note_on_c, 1, 65, 74
1, 75427, Note_on_c, 0, 74, 0
1, 75432, Note_on_c, 0, 76, 85
1, 75454, Note_on_c, 1, 65, 0
1, 75455, Note_on_c, 0, 76, 0
1, 75456, Note_on_c, 0, 72, 85
1, 75456, Note_on_c, 1, 55, 74
1, 75486, Note_on_c, 1, 55, 0
1, 75488, Note_on_c, 1, 60, 74
1, 75495, Note_on_c, 0, 72, 0
1, 75518, Note_on_c, 1, 60, 0
1, 75520, Note_on_c, 1, 64, 74
1, 75550, Note_on_c, 1, 64, 0
1, 75552, Note_on_c, 0, 72, 85
1, 75552, Note_on_c, 1, 55, 74
1, 75582, Note_on_c, 0, 72, 0
1, 75582, Note_on_c, 1, 55, 0
1, 75584, Note_on_c, 0, 76, 85
1, 75584, Note_on_c, 1, 60, 74
1, 75614, Note_on_c, 0, 76, 0
1, 75614, Note_on_c, 1, 60, 0
1, 75616, Note_on_c, 0, 79, 85
1, 75616, Note_on_c, 1, 64, 74
1, 75646, Note_on_c, 0, 79, 0
1, 75646, Note_on_c, 1, 64, 0
1, 75648, Note_on_c, 0, 77, 85
1, 75648, Note_on_c, 1, 55, 74
1, 75668, Note_on_c, 0, 77, 0
1, 75678, Note_on_c, 1, 55, 0
1, 75680, Note_on_c, 1, 59, 74
1, 75696, Note_on_c, 0, 79, 85
1, 75710, Note_on_c, 1, 59, 0
1, 75711, Note_on_c, 0, 79, 0
1, 75712, Note_on_c, 0, 77, 85
1, 75712, Note_on_c, 1, 62, 74
1, 75727, Note_on_c, 0, 77, 0
1, 75728, Note_on_c, 0, 76, 85
1, 75742, Note_on_c, 1, 62, 0
1, 75743, Note_on_c, 0, 76, 0
1, 75744, Note_on_c, 0, 77, 85
1, 75744, Note_on_c, 1, 55, 74
1, 75774, Note_on_c, 1, 55, 0
1, 75776, Note_on_c, 1, 59, 75
1, 75806, Note_on_c, 1, 59, 0
1, 75808, Note_on_c, 1, 62, 75
1, 75811, Note_on_c, 0, 77, 0
1, 75816, Note_on_c, 0, 79, 86
1, 75838, Note_on_c, 1, 62, 0
1, 75839, Note_on_c, 0, 79, 0
1, 75840, Note_on_c, 0, 76, 86
1, 75840, Note_on_c, 1, 55, 76
1, 75860, Note_on_c, 0, 76, 0
1, 75870, Note_on_c, 1, 55, 0
1, 75872, Note_on_c, 1, 60, 76
1, 75888, Note_on_c, 0, 77, 86
1, 75902, Note_on_c, 1, 60, 0
1, 75903, Note_on_c, 0, 77, 0
1, 75904, Note_on_c, 0, 76, 86
1, 75904, Note_on_c, 1, 64, 77
1, 75919, Note_on_c, 0, 76, 0
1, 75920, Note_on_c, 0, 74, 86
1, 75934, Note_on_c, 1, 64, 0
1, 75935, Note_on_c, 0, 74, 0
1, 75936, Note_on_c, 0, 76, 87
1, 75936, Note_on_c, 1, 55, 77
1, 75966, Note_on_c, 1, 55, 0
1, 75968, Note_on_c, 1, 60, 78
1, 75998, Note_on_c, 1, 60, 0
1, 76000, Note_on_c, 1, 64, 78
1, 76003, Note_on_c, 0, 76, 0
1, 76008, Note_on_c, 0, 77, 87
1, 76030, Note_on_c, 1, 64, 0
1, 76031, Note_on_c, 0, 77, 0
1, 76032, Note_on_c, 0, 74, 88
1, 76032, Note_on_c, 1, 55, 78
1, 76052, Note_on_c, 0, 74, 0
1, 76062, Note_on_c, 1, 55, 0
1, 76064, Note_on_c, 1, 62, 79
1, 76080, Note_on_c, 0, 76, 88
1, 76094, Note_on_c, 1, 62, 0
1, 76095, Note_on_c, 0, 76, 0
1, 76096, Note_on_c, 0, 74, 88
1, 76096, Note_on_c, 1, 65, 79
1, 76111, Note_on_c, 0, 74, 0
1, 76112, Note_on_c, 0, 72, 88
1, 76126, Note_on_c, 1, 65, 0
1, 76127, Note_on_c, 0, 72, 0
1, 76128, Note_on_c, 0, 74, 88
1, 76128, Note_on_c, 1, 55, 80
1, 76158, Note_on_c, 1, 55, 0
1, 76160, Note_on_c, 1, 62, 80
1, 76190, Note_on_c, 1, 62, 0
1, 76192, Note_on_c, 1, 65, 81
1, 76195, Note_on_c, 0, 74, 0
1, 76200, Note_on_c, 0, 76, 89
1, 76222, Note_on_c, 1, 65, 0
1, 76223, Note_on_c, 0, 76, 0
1, 76224, Note_on_c, 0, 72, 89
1, 76224, Note_on_c, 1, 55, 81
1, 76244, Note_on_c, 0, 72, 0
1, 76254, Note_on_c, 1, 55, 0
1, 76256, Note_on_c, 1, 60, 82
1, 76272, Note_on_c, 0, 74, 90
1, 76286, Note_on_c, 1, 60, 0
1, 76287, Note_on_c, 0, 74, 0
1, 76288, Note_on_c, 0, 72, 90
1, 76288, Note_on_c, 1, 64, 82
1, 76303, Note_on_c, 0, 72, 0
1, 76304, Note_on_c, 0, 71, 90
1, 76318, Note_on_c, 1, 64, 0
1, 76319, Note_on_c, 0, 71, 0
1, 76320, Note_on_c, 0, 72, 90
1, 76320, Note_on_c, 1, 55, 82
1, 76350, Note_on_c, 1, 55, 0
1, 76352, Note_on_c, 1, 60, 83
1, 76382, Note_on_c, 1, 60, 0
1, 76384, Note_on_c, 1, 64, 83
1, 76387, Note_on_c, 0, 72, 0
1, 76392, Note_on_c, 0, 74, 91
1, 76414, Note_on_c, 1, 64, 0
1, 76415, Note_on_c, 0, 74, 0
1, 76416, Note_on_c, 0, 71, 92
1, 76416, Note_on_c, 1, 55, 85
1, 76505, Note_on_c, 0, 71, 0
1, 76505, Note_on_c, 1, 55, 0
1, 76584, Note_on_c, 0, 67, 92
1, 76584, Note_on_c, 1, 55, 85
1, 76607, Note_on_c, 0, 67, 0
1, 76607, Note_on_c, 1, 55, 0
1, 76608, Note_on_c, 0, 71, 92
1, 76608, Note_on_c, 1, 59, 85
1, 76675, Note_on_c, 0, 71, 0
1, 76675, Note_on_c, 1, 59, 0
1, 76680, Note_on_c, 0, 67, 92
1, 76680, Note_on_c, 1, 55, 85
1, 76703, Note_on_c, 0, 67, 0
1, 76703, Note_on_c, 1, 55, 0
1, 76704, Note_on_c, 0, 74, 92
1, 76704, Note_on_c, 1, 62, 85
1, 76771, Note_on_c, 0, 74, 0
1, 76771, Note_on_c, 1, 62, 0
1, 76776, Note_on_c, 0, 71, 92
1, 76776, Note_on_c, 1, 59, 85
1, 76799, Note_on_c, 0, 71, 0
1, 76799, Note_on_c, 1, 59, 0
1, 76800, Note_on_c, 0, 79, 92
1, 76800, Note_on_c, 1, 67, 85
1, 76800, Note_on_c, 1, 67, 64
1, 76889, Note_on_c, 0, 79, 0
1, 76889, Note_on_c, 1, 67, 0
1, 76889, Note_on_c, 1, 67, 0
1, 76968, Note_on_c, 0, 55, 92
1, 76968, Note_on_c, 1, 43, 64
1, 76991, Note_on_c, 0, 55, 0
1, 76991, Note_on_c, 1, 43, 0
1, 76992, Note_on_c, 0, 59, 92
1, 76992, Note_on_c, 1, 47, 64
1, 77022, Note_on_c, 0, 59, 0
1, 77022, Note_on_c, 1, 47, 0
1, 77024, Note_on_c, 0, 55, 92
1, 77024, Note_on_c, 1, 43, 64
1, 77054, Note_on_c, 0, 55, 0
1, 77054, Note_on_c, 1, 43, 0
1, 77056, Note_on_c, 0, 59, 92
1, 77056, Note_on_c, 1, 47, 64
1, 77086, Note_on_c, 0, 59, 0
1, 77086, Note_on_c, 1, 47, 0
1, 77088, Note_on_c, 0, 62, 92
1, 77088, Note_on_c, 1, 50, 64
1, 77118, Note_on_c, 0, 62, 0
1, 77118, Note_on_c, 1, 50, 0
1, 77120, Note_on_c, 0, 59, 92
1, 77120, Note_on_c, 1, 47, 64
1, 77150, Note_on_c, 0, 59, 0
1, 77150, Note_on_c, 1, 47, 0
1, 77152, Note_on_c, 0, 62, 92
1, 77152, Note_on_c, 1, 50, 64
1, 77182, Note_on_c, 0, 62, 0
1, 77182, Note_on_c, 1, 50, 0
1, 77184, Note_on_c, 0, 67, 92
1, 77184, Note_on_c, 1, 55, 64
1, 77273, Note_on_c, 0, 67, 0
1, 77273, Note_on_c, 1, 55, 0
1, 77376, Note_on_c, 0, 43, 92
1, 77376, Note_on_c, 1, 31, 64
1, 77434, Note_on_c, 0, 43, 0
1, 77434, Note_on_c, 1, 31, 0
1, 77520, Note_on_c, 0, 43, 92
1, 77520, Note_on_c, 1, 31, 64
1, 77540, Note_on_c, 0, 43, 0
1, 77540, Note_on_c, 1, 31, 0
1, 77568, Note_on_c, 0, 43, 92
1, 77568, Note_on_c, 1, 31, 64
1, 77657, Note_on_c, 0, 43, 0
1, 77657, Note_on_c, 1, 31, 0
1, 77952, Note_on_c, 1, 52, 69
1, 77982, Note_on_c, 1, 52, 0
1, 77984, Note_on_c, 1, 55, 69
1, 78014, Note_on_c, 1, 55, 0
1, 78016, Note_on_c, 1, 60, 69
1, 78046, Note_on_c, 1, 60, 0
1, 78048, Note_on_c, 1, 52, 69
1, 78078, Note_on_c, 1, 52, 0
1, 78080, Note_on_c, 1, 55, 69
1, 78110, Note_on_c, 1, 55, 0
1, 78112, Note_on_c, 1, 60, 69
1, 78142, Note_on_c, 1, 60, 0
1, 78144, Note_on_c, 1, 52, 69
1, 78174, Note_on_c, 1, 52, 0
1, 78176, Note_on_c, 1, 55, 69
1, 78206, Note_on_c, 1, 55, 0
1, 78208, Note_on_c, 1, 60, 69
1, 78238, Note_on_c, 1, 60, 0
1, 78240, Note_on_c, 0, 69, 79
1, 78240, Note_on_c, 1, 53, 69
1, 78263, Note_on_c, 0, 69, 0
1, 78264, Note_on_c, 0, 67, 79
1, 78270, Note_on_c, 1, 53, 0
1, 78272, Note_on_c, 1, 55, 69
1, 78287, Note_on_c, 0, 67, 0
1, 78288, Note_on_c, 0, 66, 79
1, 78302, Note_on_c, 1, 55, 0
1, 78304, Note_on_c, 1, 59, 69
1, 78311, Note_on_c, 0, 66, 0
1, 78312, Note_on_c, 0, 67, 79
1, 78334, Note_on_c, 1, 59, 0
1, 78336, Note_on_c, 0, 67, 0
1, 78336, Note_on_c, 0, 72, 79
1, 78336, Note_on_c, 1, 52, 69
1, 78366, Note_on_c, 1, 52, 0
1, 78368, Note_on_c, 1, 55, 69
1, 78375, Note_on_c, 0, 72, 0
1, 78398, Note_on_c, 1, 55, 0
1, 78400, Note_on_c, 1, 60, 69
1, 78430, Note_on_c, 1, 60, 0
1, 78432, Note_on_c, 0, 72, 79
1, 78432, Note_on_c, 1, 52, 69
1, 78462, Note_on_c, 1, 52, 0
1, 78464, Note_on_c, 1, 55, 69
1, 78471, Note_on_c, 0, 72, 0
1, 78494, Note_on_c, 1, 55, 0
1, 78496, Note_on_c, 1, 60, 69
1, 78526, Note_on_c, 1, 60, 0
1, 78528, Note_on_c, 1, 52, 69
1, 78558, Note_on_c, 1, 52, 0
1, 78560, Note_on_c, 1, 55, 69
1, 78590, Note_on_c, 1, 55, 0
1, 78592, Note_on_c, 1, 60, 69
1, 78622, Note_on_c, 1, 60, 0
1, 78624, Note_on_c, 0, 69, 79
1, 78624, Note_on_c, 1, 53, 69
1, 78647, Note_on_c, 0, 69, 0
1, 78648, Note_on_c, 0, 67, 79
1, 78654, Note_on_c, 1, 53, 0
1, 78656, Note_on_c, 1, 55, 69
1, 78671, Note_on_c, 0, 67, 0
1, 78672, Note_on_c, 0, 66, 79
1, 78686, Note_on_c, 1, 55, 0
1, 78688, Note_on_c, 1, 59, 69
1, 78695, Note_on_c, 0, 66, 0
1, 78696, Note_on_c, 0, 67, 79
1, 78718, Note_on_c, 1, 59, 0
1, 78720, Note_on_c, 0, 67, 0
1, 78720, Note_on_c, 0, 72, 79
1, 78720, Note_on_c, 1, 52, 69
1, 78750, Note_on_c, 1, 52, 0
1, 78752, Note_on_c, 1, 55, 69
1, 78759, Note_on_c, 0, 72, 0
1, 78782, Note_on_c, 1, 55, 0
1, 78784, Note_on_c, 1, 60, 69
1, 78814, Note_on_c, 1, 60, 0
1, 78816, Note_on_c, 0, 72, 79
1, 78816, Note_on_c, 1, 52, 69
1, 78846, Note_on_c, 1, 52, 0
1, 78848, Note_on_c, 1, 55, 69
1, 78855, Note_on_c, 0, 72, 0
1, 78878, Note_on_c, 1, 55, 0
1, 78880, Note_on_c, 1, 60, 69
1, 78910, Note_on_c, 1, 60, 0
1, 78912, Note_on_c, 1, 52, 69
1, 78942, Note_on_c, 1, 52, 0
1, 78944, Note_on_c, 1, 55, 69
1, 78974, Note_on_c, 1, 55, 0
1, 78976, Note_on_c, 1, 60, 69
1, 79006, Note_on_c, 1, 60, 0
1, 79008, Note_on_c, 0, 69, 79
1, 79008, Note_on_c, 1, 53, 69
1, 79031, Note_on_c, 0, 69, 0
1, 79032, Note_on_c, 0, 67, 79
1, 79038, Note_on_c, 1, 53, 0
1, 79040, Note_on_c, 1, 55, 69
1, 79055, Note_on_c, 0, 67, 0
1, 79056, Note_on_c, 0, 66, 79
1, 79070, Note_on_c, 1, 55, 0
1, 79072, Note_on_c, 1, 59, 69
1, 79079, Note_on_c, 0, 66, 0
1, 79080, Note_on_c, 0, 67, 79
1, 79102, Note_on_c, 1, 59, 0
1, 79104, Note_on_c, 0, 67, 0
1, 79104, Note_on_c, 0, 72, 79
1, 79104, Note_on_c, 1, 52, 69
1, 79134, Note_on_c, 1, 52, 0
1, 79136, Note_on_c, 1, 55, 69
1, 79143, Note_on_c, 0, 72, 0
1, 79166, Note_on_c, 1, 55, 0
1, 79168, Note_on_c, 1, 60, 69
1, 79198, Note_on_c, 1, 60, 0
1, 79200, Note_on_c, 0, 74, 79
1, 79200, Note_on_c, 1, 52, 69
1, 79224, Note_on_c, 0, 74, 0
1, 79224, Note_on_c, 0, 72, 79
1, 79230, Note_on_c, 1, 52, 0
1, 79232, Note_on_c, 1, 55, 69
1, 79248, Note_on_c, 0, 72, 0
1, 79248, Note_on_c, 0, 71, 79
1, 79262, Note_on_c, 1, 55, 0
1, 79264, Note_on_c, 1, 60, 69
1, 79272, Note_on_c, 0, 71, 0
1, 79272, Note_on_c, 0, 72, 79
1, 79294, Note_on_c, 1, 60, 0
1, 79296, Note_on_c, 0, 72, 0
1, 79296, Note_on_c, 0, 74, 79
1, 79296, Note_on_c, 1, 47, 69
1, 79326, Note_on_c, 1, 47, 0
1, 79328, Note_on_c, 1, 50, 69
1, 79335, Note_on_c, 0, 74, 0
1, 79358, Note_on_c, 1, 50, 0
1, 79360, Note_on_c, 1, 55, 70
1, 79390, Note_on_c, 1, 55, 0
1, 79392, Note_on_c, 0, 76, 80
1, 79392, Note_on_c, 1, 47, 70
1, 79416, Note_on_c, 0, 76, 0
1, 79416, Note_on_c, 0, 74, 80
1, 79422, Note_on_c, 1, 47, 0
1, 79424, Note_on_c, 1, 50, 71
1, 79440, Note_on_c, 0, 74, 0
1, 79440, Note_on_c, 0, 72, 80
1, 79454, Note_on_c, 1, 50, 0
1, 79456, Note_on_c, 1, 55, 71
1, 79464, Note_on_c, 0, 72, 0
1, 79464, Note_on_c, 0, 74, 80
1, 79486, Note_on_c, 1, 55, 0
1, 79488, Note_on_c, 0, 74, 0
1, 79488, Note_on_c, 0, 76, 80
1, 79488, Note_on_c, 1, 48, 72
1, 79518, Note_on_c, 1, 48, 0
1, 79520, Note_on_c, 1, 52, 72
1, 79527, Note_on_c, 0, 76, 0
1, 79550, Note_on_c, 1, 52, 0
1, 79552, Note_on_c, 1, 55, 73
1, 79582, Note_on_c, 1, 55, 0
1, 79584, Note_on_c, 0, 77, 81
1, 79584, Note_on_c, 1, 48, 74
1, 79608, Note_on_c, 0, 77, 0
1, 79608, Note_on_c, 0, 76, 81
1, 79614, Note_on_c, 1, 48, 0
1, 79616, Note_on_c, 1, 52, 74
1, 79632, Note_on_c, 0, 76, 0
1, 79632, Note_on_c, 0, 74, 81
1, 79646, Note_on_c, 1, 52, 0
1, 79648, Note_on_c, 1, 55, 75
1, 79656, Note_on_c, 0, 74, 0
1, 79656, Note_on_c, 0, 76, 81
1, 79678, Note_on_c, 1, 55, 0
1, 79680, Note_on_c, 0, 76, 0
1, 79680, Note_on_c, 0, 77, 82
1, 79680, Note_on_c, 1, 50, 75
1, 79710, Note_on_c, 1, 50, 0
1, 79712, Note_on_c, 1, 53, 76
1, 79719, Note_on_c, 0, 77, 0
1, 79742, Note_on_c, 1, 53, 0
1, 79744, Note_on_c, 1, 59, 76
1, 79774, Note_on_c, 1, 59, 0
1, 79776, Note_on_c, 0, 79, 82
1, 79776, Note_on_c, 1, 50, 77
1, 79800, Note_on_c, 0, 79, 0
1, 79800, Note_on_c, 0, 77, 82
1, 79806, Note_on_c, 1, 50, 0
1, 79808, Note_on_c, 1, 53, 77
1, 79824, Note_on_c, 0, 77, 0
1, 79824, Note_on_c, 0, 76, 82
1, 79838, Note_on_c, 1, 53, 0
1, 79840, Note_on_c, 1, 59, 78
1, 79848, Note_on_c, 0, 76, 0
1, 79848, Note_on_c, 0, 77, 82
1, 79870, Note_on_c, 1, 59, 0
1, 79872, Note_on_c, 0, 77, 0
1, 79872, Note_on_c, 0, 79, 83
1, 79872, Note_on_c, 1, 52, 79
1, 79902, Note_on_c, 1, 52, 0
1, 79904, Note_on_c, 1, 55, 79
1, 79934, Note_on_c, 1, 55, 0
1, 79936, Note_on_c, 1, 60, 80
1, 79966, Note_on_c, 1, 60, 0
1, 79968, Note_on_c, 1, 52, 80
1, 79998, Note_on_c, 1, 52, 0
1, 80000, Note_on_c, 1, 55, 81
1, 80030, Note_on_c, 1, 55, 0
1, 80032, Note_on_c, 1, 60, 81
1, 80062, Note_on_c, 1, 60, 0
1, 80064, Note_on_c, 1, 52, 82
1, 80137, Note_on_c, 0, 79, 0
1, 80153, Note_on_c, 1, 52, 0
1, 80160, Note_on_c, 0, 80, 101
1, 80160, Note_on_c, 0, 68, 101
1, 80256, Note_on_c, 0, 80, 0
1, 80256, Note_on_c, 0, 68, 0
1, 80256, Note_on_c, 0, 81, 85
1, 80256, Note_on_c, 0, 69, 85
1, 80256, Note_on_c, 1, 53, 85
1, 80256, Note_on_c, 1, 41, 85
1, 80345, Note_on_c, 0, 81, 0
1, 80345, Note_on_c, 0, 69, 0
1, 80345, Note_on_c, 1, 53, 0
1, 80345, Note_on_c, 1, 41, 0
1, 80352, Note_on_c, 0, 83, 86
1, 80352, Note_on_c, 0, 71, 86
1, 80441, Note_on_c, 0, 83, 0
1, 80441, Note_on_c, 0, 71, 0
1, 80448, Note_on_c, 0, 84, 87
1, 80448, Note_on_c, 0, 72, 87
1, 80537, Note_on_c, 0, 84, 0
1, 80537, Note_on_c, 0, 72, 0
1, 80544, Note_on_c, 0, 85, 89
1, 80544, Note_on_c, 0, 73, 89
1, 80633, Note_on_c, 0, 85, 0
1, 80633, Note_on_c, 0, 73, 0
1, 80640, Note_on_c, 0, 86, 90
1, 80640, Note_on_c, 0, 74, 90
1, 80640, Note_on_c, 0, 74, 69
1, 80729, Note_on_c, 0, 86, 0
1, 80729, Note_on_c, 0, 74, 0
1, 80729, Note_on_c, 0, 74, 0
1, 80736, Note_on_c, 0, 88, 92
1, 80736, Note_on_c, 0, 76, 92
1, 80736, Note_on_c, 0, 76, 69
1, 80825, Note_on_c, 0, 88, 0
1, 80825, Note_on_c, 0, 76, 0
1, 80825, Note_on_c, 0, 76, 0
1, 80832, Note_on_c, 0, 89, 92
1, 80832, Note_on_c, 0, 77, 69
1, 80921, Note_on_c, 0, 89, 0
1, 80928, Note_on_c, 0, 86, 92
1, 81009, Note_on_c, 0, 77, 0
1, 81017, Note_on_c, 0, 86, 0
1, 81024, Note_on_c, 0, 84, 69
1, 81024, Note_on_c, 0, 79, 69
1, 81024, Note_on_c, 1, 76, 69
1, 81024, Note_on_c, 1, 67, 69
1, 81201, Note_on_c, 0, 84, 0
1, 81201, Note_on_c, 0, 79, 0
1, 81201, Note_on_c, 1, 76, 0
1, 81216, Note_on_c, 0, 88, 69
1, 81216, Note_on_c, 0, 83, 69
1, 81216, Note_on_c, 1, 77, 69
1, 81261, Note_on_c, 0, 88, 0
1, 81264, Note_on_c, 0, 86, 69
1, 81353, Note_on_c, 0, 86, 0
1, 81360, Note_on_c, 0, 84, 69
1, 81378, Note_on_c, 1, 67, 0
1, 81393, Note_on_c, 0, 83, 0
1, 81393, Note_on_c, 1, 77, 0
1, 81405, Note_on_c, 0, 84, 0
1, 81408, Note_on_c, 0, 84, 69
1, 81408, Note_on_c, 1, 76, 69
1, 81408, Note_on_c, 1, 72, 69
1, 81497, Note_on_c, 0, 84, 0
1, 81497, Note_on_c, 1, 76, 0
1, 81497, Note_on_c, 1, 72, 0
1, 81696, Note_on_c, 0, 76, 64
1, 81696, Note_on_c, 1, 72, 64
1, 81726, Note_on_c, 0, 76, 0
1, 81728, Note_on_c, 0, 80, 64
1, 81758, Note_on_c, 0, 80, 0
1, 81760, Note_on_c, 0, 81, 64
1, 81792, Note_on_c, 0, 81, 0
1, 81792, Note_on_c, 0, 79, 64
1, 81792, Note_on_c, 1, 72, 0
1, 81792, Note_on_c, 1, 74, 64
1, 81792, Note_on_c, 1, 71, 64
1, 81831, Note_on_c, 0, 79, 0
1, 81881, Note_on_c, 1, 74, 0
1, 81881, Note_on_c, 1, 71, 0
1, 81888, Note_on_c, 0, 79, 64
1, 81927, Note_on_c, 0, 79, 0
1, 81984, Note_on_c, 0, 79, 64
1, 82023, Note_on_c, 0, 79, 0
1, 82080, Note_on_c, 0, 72, 64
1, 82080, Note_on_c, 1, 69, 64
1, 82110, Note_on_c, 0, 72, 0
1, 82112, Note_on_c, 0, 76, 64
1, 82142, Note_on_c, 0, 76, 0
1, 82144, Note_on_c, 0, 77, 64
1, 82176, Note_on_c, 0, 77, 0
1, 82176, Note_on_c, 0, 76, 64
1, 82176, Note_on_c, 1, 69, 0
1, 82176, Note_on_c, 1, 71, 64
1, 82176, Note_on_c, 1, 67, 64
1, 82215, Note_on_c, 0, 76, 0
1, 82265, Note_on_c, 1, 71, 0
1, 82265, Note_on_c, 1, 67, 0
1, 82272, Note_on_c, 0, 76, 64
1, 82311, Note_on_c, 0, 76, 0
1, 82368, Note_on_c, 0, 76, 64
1, 82407, Note_on_c, 0, 76, 0
1, 82464, Note_on_c, 0, 69, 64
1, 82464, Note_on_c, 1, 65, 64
1, 82496, Note_on_c, 0, 69, 0
1, 82496, Note_on_c, 0, 73, 64
1, 82526, Note_on_c, 0, 73, 0
1, 82528, Note_on_c, 0, 74, 64
1, 82560, Note_on_c, 0, 74, 0
1, 82560, Note_on_c, 0, 72, 64
1, 82560, Note_on_c, 1, 65, 0
1, 82560, Note_on_c, 1, 67, 64
1, 82560, Note_on_c, 1, 64, 64
1, 82599, Note_on_c, 0, 72, 0
1, 82649, Note_on_c, 1, 67, 0
1, 82649, Note_on_c, 1, 64, 0
1, 82656, Note_on_c, 0, 72, 67
1, 82695, Note_on_c, 0, 72, 0
1, 82752, Note_on_c, 0, 72, 71
1, 82791, Note_on_c, 0, 72, 0
1, 82848, Note_on_c, 0, 76, 75
1, 82848, Note_on_c, 1, 64, 64
1, 82848, Note_on_c, 1, 60, 64
1, 82920, Note_on_c, 0, 76, 0
1, 82920, Note_on_c, 0, 72, 78
1, 82937, Note_on_c, 1, 64, 0
1, 82937, Note_on_c, 1, 60, 0
1, 82943, Note_on_c, 0, 72, 0
1, 82944, Note_on_c, 0, 69, 79
1, 82944, Note_on_c, 1, 65, 64
1, 82944, Note_on_c, 1, 53, 64
1, 82983, Note_on_c, 0, 69, 0
1, 83033, Note_on_c, 1, 65, 0
1, 83033, Note_on_c, 1, 53, 0
1, 83040, Note_on_c, 0, 77, 75
1, 83112, Note_on_c, 0, 77, 0
1, 83112, Note_on_c, 0, 74, 72
1, 83135, Note_on_c, 0, 74, 0
1, 83136, Note_on_c, 0, 71, 71
1, 83136, Note_on_c, 1, 62, 64
1, 83136, Note_on_c, 1, 55, 64
1, 83175, Note_on_c, 0, 71, 0
1, 83225, Note_on_c, 1, 62, 0
1, 83225, Note_on_c, 1, 55, 0
1, 83232, Note_on_c, 0, 74, 67
1, 83304, Note_on_c, 0, 74, 0
1, 83304, Note_on_c, 0, 71, 64
1, 83327, Note_on_c, 0, 71, 0
1, 83328, Note_on_c, 0, 72, 64
1, 83328, Note_on_c, 1, 64, 64
1, 83328, Note_on_c, 1, 60, 64
1, 83417, Note_on_c, 0, 72, 0
1, 83417, Note_on_c, 1, 64, 0
1, 83417, Note_on_c, 1, 60, 0
1, 83616, Note_on_c, 0, 76, 85
1, 83616, Note_on_c, 1, 72, 85
1, 83646, Note_on_c, 0, 76, 0
1, 83648, Note_on_c, 0, 80, 85
1, 83678, Note_on_c, 0, 80, 0
1, 83680, Note_on_c, 0, 81, 85
1, 83710, Note_on_c, 0, 81, 0
1, 83712, Note_on_c, 0, 74, 69
1, 83712, Note_on_c, 1, 72, 0
1, 83712, Note_on_c, 1, 71, 69
1, 83742, Note_on_c, 0, 74, 0
1, 83744, Note_on_c, 0, 78, 69
1, 83751, Note_on_c, 1, 71, 0
1, 83774, Note_on_c, 0, 78, 0
1, 83776, Note_on_c, 0, 79, 69
1, 83806, Note_on_c, 0, 79, 0
1, 83808, Note_on_c, 0, 74, 69
1, 83808, Note_on_c, 1, 71, 69
1, 83838, Note_on_c, 0, 74, 0
1, 83840, Note_on_c, 0, 78, 69
1, 83847, Note_on_c, 1, 71, 0
1, 83870, Note_on_c, 0, 78, 0
1, 83872, Note_on_c, 0, 79, 69
1, 83902, Note_on_c, 0, 79, 0
1, 83904, Note_on_c, 0, 74, 69
1, 83904, Note_on_c, 1, 71, 69
1, 83934, Note_on_c, 0, 74, 0
1, 83936, Note_on_c, 0, 78, 69
1, 83943, Note_on_c, 1, 71, 0
1, 83966, Note_on_c, 0, 78, 0
1, 83968, Note_on_c, 0, 79, 69
1, 83998, Note_on_c, 0, 79, 0
1, 84000, Note_on_c, 0, 76, 85
1, 84000, Note_on_c, 1, 72, 85
1, 84023, Note_on_c, 0, 76, 0
1, 84024, Note_on_c, 0, 78, 85
1, 84047, Note_on_c, 0, 78, 0
1, 84048, Note_on_c, 0, 80, 85
1, 84071, Note_on_c, 0, 80, 0
1, 84072, Note_on_c, 0, 81, 85
1, 84095, Note_on_c, 0, 81, 0
1, 84096, Note_on_c, 0, 74, 69
1, 84096, Note_on_c, 1, 72, 0
1, 84096, Note_on_c, 1, 71, 69
1, 84126, Note_on_c, 0, 74, 0
1, 84128, Note_on_c, 0, 78, 69
1, 84135, Note_on_c, 1, 71, 0
1, 84158, Note_on_c, 0, 78, 0
1, 84160, Note_on_c, 0, 79, 69
1, 84190, Note_on_c, 0, 79, 0
1, 84192, Note_on_c, 0, 74, 69
1, 84192, Note_on_c, 1, 71, 69
1, 84222, Note_on_c, 0, 74, 0
1, 84224, Note_on_c, 0, 78, 69
1, 84231, Note_on_c, 1, 71, 0
1, 84254, Note_on_c, 0, 78, 0
1, 84256, Note_on_c, 0, 79, 69
1, 84286, Note_on_c, 0, 79, 0
1, 84288, Note_on_c, 0, 74, 69
1, 84288, Note_on_c, 1, 71, 69
1, 84318, Note_on_c, 0, 74, 0
1, 84320, Note_on_c, 0, 78, 69
1, 84327, Note_on_c, 1, 71, 0
1, 84350, Note_on_c, 0, 78, 0
1, 84352, Note_on_c, 0, 79, 69
1, 84382, Note_on_c, 0, 79, 0
1, 84384, Note_on_c, 0, 72, 85
1, 84384, Note_on_c, 1, 69, 85
1, 84407, Note_on_c, 0, 72, 0
1, 84408, Note_on_c, 0, 74, 85
1, 84431, Note_on_c, 0, 74, 0
1, 84432, Note_on_c, 0, 76, 85
1, 84455, Note_on_c, 0, 76, 0
1, 84456, Note_on_c, 0, 77, 85
1, 84479, Note_on_c, 0, 77, 0
1, 84480, Note_on_c, 0, 71, 69
1, 84480, Note_on_c, 1, 69, 0
1, 84480, Note_on_c, 1, 67, 69
1, 84510, Note_on_c, 0, 71, 0
1, 84512, Note_on_c, 0, 75, 69
1, 84519, Note_on_c, 1, 67, 0
1, 84542, Note_on_c, 0, 75, 0
1, 84544, Note_on_c, 0, 76, 69
1, 84574, Note_on_c, 0, 76, 0
1, 84576, Note_on_c, 0, 71, 69
1, 84576, Note_on_c, 1, 67, 69
1, 84606, Note_on_c, 0, 71, 0
1, 84608, Note_on_c, 0, 75, 69
1, 84615, Note_on_c, 1, 67, 0
1, 84638, Note_on_c, 0, 75, 0
1, 84640, Note_on_c, 0, 76, 69
1, 84670, Note_on_c, 0, 76, 0
1, 84672, Note_on_c, 0, 71, 69
1, 84672, Note_on_c, 1, 67, 69
1, 84702, Note_on_c, 0, 71, 0
1, 84704, Note_on_c, 0, 75, 69
1, 84711, Note_on_c, 1, 67, 0
1, 84734, Note_on_c, 0, 75, 0
1, 84736, Note_on_c, 0, 76, 69
1, 84766, Note_on_c, 0, 76, 0
1, 84768, Note_on_c, 0, 72, 85
1, 84768, Note_on_c, 1, 69, 85
1, 84791, Note_on_c, 0, 72, 0
1, 84792, Note_on_c, 0, 74, 85
1, 84815, Note_on_c, 0, 74, 0
1, 84816, Note_on_c, 0, 76, 85
1, 84839, Note_on_c, 0, 76, 0
1, 84840, Note_on_c, 0, 77, 85
1, 84863, Note_on_c, 0, 77, 0
1, 84864, Note_on_c, 0, 71, 69
1, 84864, Note_on_c, 1, 69, 0
1, 84864, Note_on_c, 1, 67, 69
1, 84894, Note_on_c, 0, 71, 0
1, 84896, Note_on_c, 0, 75, 69
1, 84903, Note_on_c, 1, 67, 0
1, 84926, Note_on_c, 0, 75, 0
1, 84928, Note_on_c, 0, 76, 69
1, 84958, Note_on_c, 0, 76, 0
1, 84960, Note_on_c, 0, 71, 69
1, 84960, Note_on_c, 1, 67, 69
1, 84990, Note_on_c, 0, 71, 0
1, 84992, Note_on_c, 0, 75, 69
1, 84999, Note_on_c, 1, 67, 0
1, 85022, Note_on_c, 0, 75, 0
1, 85024, Note_on_c, 0, 76, 69
1, 85054, Note_on_c, 0, 76, 0
1, 85056, Note_on_c, 0, 71, 69
1, 85056, Note_on_c, 1, 67, 69
1, 85086, Note_on_c, 0, 71, 0
1, 85088, Note_on_c, 0, 75, 69
1, 85095, Note_on_c, 1, 67, 0
1, 85118, Note_on_c, 0, 75, 0
1, 85120, Note_on_c, 0, 76, 69
1, 85150, Note_on_c, 0, 76, 0
1, 85152, Note_on_c, 0, 69, 85
1, 85152, Note_on_c, 1, 65, 85
1, 85175, Note_on_c, 0, 69, 0
1, 85176, Note_on_c, 0, 71, 85
1, 85199, Note_on_c, 0, 71, 0
1, 85200, Note_on_c, 0, 73, 85
1, 85223, Note_on_c, 0, 73, 0
1, 85224, Note_on_c, 0, 74, 85
1, 85247, Note_on_c, 0, 74, 0
1, 85248, Note_on_c, 0, 67, 69
1, 85248, Note_on_c, 1, 65, 0
1, 85248, Note_on_c, 1, 64, 69
1, 85278, Note_on_c, 0, 67, 0
1, 85280, Note_on_c, 0, 71, 69
1, 85287, Note_on_c, 1, 64, 0
1, 85310, Note_on_c, 0, 71, 0
1, 85312, Note_on_c, 0, 72, 69
1, 85342, Note_on_c, 0, 72, 0
1, 85344, Note_on_c, 0, 67, 69
1, 85344, Note_on_c, 1, 64, 69
1, 85374, Note_on_c, 0, 67, 0
1, 85376, Note_on_c, 0, 71, 69
1, 85383, Note_on_c, 1, 64, 0
1, 85406, Note_on_c, 0, 71, 0
1, 85408, Note_on_c, 0, 72, 69
1, 85438, Note_on_c, 0, 72, 0
1, 85440, Note_on_c, 0, 67, 69
1, 85440, Note_on_c, 1, 64, 69
1, 85470, Note_on_c, 0, 67, 0
1, 85472, Note_on_c, 0, 71, 69
1, 85479, Note_on_c, 1, 64, 0
1, 85502, Note_on_c, 0, 71, 0
1, 85504, Note_on_c, 0, 72, 69
1, 85534, Note_on_c, 0, 72, 0
1, 85536, Note_on_c, 0, 69, 85
1, 85536, Note_on_c, 1, 65, 85
1, 85559, Note_on_c, 0, 69, 0
1, 85560, Note_on_c, 0, 71, 85
1, 85583, Note_on_c, 0, 71, 0
1, 85584, Note_on_c, 0, 73, 85
1, 85607, Note_on_c, 0, 73, 0
1, 85608, Note_on_c, 0, 74, 85
1, 85631, Note_on_c, 0, 74, 0
1, 85632, Note_on_c, 0, 67, 69
1, 85632, Note_on_c, 1, 65, 0
1, 85632, Note_on_c, 1, 64, 69
1, 85662, Note_on_c, 0, 67, 0
1, 85664, Note_on_c, 0, 71, 69
1, 85671, Note_on_c, 1, 64, 0
1, 85694, Note_on_c, 0, 71, 0
1, 85696, Note_on_c, 0, 72, 69
1, 85726, Note_on_c, 0, 72, 0
1, 85728, Note_on_c, 0, 67, 69
1, 85728, Note_on_c, 1, 64, 69
1, 85758, Note_on_c, 0, 67, 0
1, 85760, Note_on_c, 0, 71, 69
1, 85767, Note_on_c, 1, 64, 0
1, 85790, Note_on_c, 0, 71, 0
1, 85792, Note_on_c, 0, 72, 69
1, 85822, Note_on_c, 0, 72, 0
1, 85824, Note_on_c, 0, 67, 69
1, 85824, Note_on_c, 1, 64, 69
1, 85854, Note_on_c, 0, 67, 0
1, 85856, Note_on_c, 0, 71, 69
1, 85863, Note_on_c, 1, 64, 0
1, 85886, Note_on_c, 0, 71, 0
1, 85888, Note_on_c, 0, 72, 69
1, 85918, Note_on_c, 0, 72, 0
1, 85920, Note_on_c, 0, 69, 85
1, 85920, Note_on_c, 1, 65, 85
1, 85943, Note_on_c, 0, 69, 0
1, 85944, Note_on_c, 0, 71, 85
1, 85967, Note_on_c, 0, 71, 0
1, 85968, Note_on_c, 0, 73, 85
1, 85991, Note_on_c, 0, 73, 0
1, 85992, Note_on_c, 0, 74, 85
1, 86015, Note_on_c, 0, 74, 0
1, 86016, Note_on_c, 0, 67, 69
1, 86016, Note_on_c, 1, 65, 0
1, 86016, Note_on_c, 1, 64, 69
1, 86046, Note_on_c, 0, 67, 0
1, 86048, Note_on_c, 0, 71, 69
1, 86055, Note_on_c, 1, 64, 0
1, 86078, Note_on_c, 0, 71, 0
1, 86080, Note_on_c, 0, 72, 69
1, 86110, Note_on_c, 0, 72, 0
1, 86112, Note_on_c, 0, 67, 69
1, 86112, Note_on_c, 1, 59, 69
1, 86142, Note_on_c, 0, 67, 0
1, 86144, Note_on_c, 0, 73, 70
1, 86174, Note_on_c, 0, 73, 0
1, 86176, Note_on_c, 0, 74, 72
1, 86201, Note_on_c, 1, 59, 0
1, 86206, Note_on_c, 0, 74, 0
1, 86208, Note_on_c, 0, 67, 73
1, 86208, Note_on_c, 1, 60, 73
1, 86238, Note_on_c, 0, 67, 0
1, 86240, Note_on_c, 0, 75, 75
1, 86270, Note_on_c, 0, 75, 0
1, 86272, Note_on_c, 0, 76, 76
1, 86297, Note_on_c, 1, 60, 0
1, 86302, Note_on_c, 0, 76, 0
1, 86304, Note_on_c, 0, 67, 78
1, 86304, Note_on_c, 1, 62, 77
1, 86334, Note_on_c, 0, 67, 0
1, 86336, Note_on_c, 0, 76, 79
1, 86366, Note_on_c, 0, 76, 0
1, 86368, Note_on_c, 0, 77, 81
1, 86393, Note_on_c, 1, 62, 0
1, 86398, Note_on_c, 0, 77, 0
1, 86400, Note_on_c, 0, 67, 82
1, 86400, Note_on_c, 1, 64, 81
1, 86430, Note_on_c, 0, 67, 0
1, 86432, Note_on_c, 0, 78, 85
1, 86462, Note_on_c, 0, 78, 0
1, 86464, Note_on_c, 0, 79, 85
1, 86489, Note_on_c, 1, 64, 0
1, 86494, Note_on_c, 0, 79, 0
1, 86496, Note_on_c, 0, 77, 85
1, 86526, Note_on_c, 0, 77, 0
1, 86528, Note_on_c, 0, 76, 85
1, 86558, Note_on_c, 0, 76, 0
1, 86560, Note_on_c, 0, 74, 85
1, 86590, Note_on_c, 0, 74, 0
1, 86592, Note_on_c, 0, 72, 85
1, 86622, Note_on_c, 0, 72, 0
1, 86624, Note_on_c, 0, 71, 85
1, 86654, Note_on_c, 0, 71, 0
1, 86656, Note_on_c, 0, 69, 85
1, 86686, Note_on_c, 0, 69, 0
1, 86688, Note_on_c, 0, 67, 85
1, 86718, Note_on_c, 0, 67, 0
1, 86720, Note_on_c, 0, 65, 85
1, 86750, Note_on_c, 0, 65, 0
1, 86752, Note_on_c, 0, 64, 85
1, 86782, Note_on_c, 0, 64, 0
1, 86784, Note_on_c, 0, 62, 85
1, 86784, Note_on_c, 1, 41, 69
1, 86814, Note_on_c, 0, 62, 0
1, 86816, Note_on_c, 0, 69, 83
1, 86846, Note_on_c, 0, 69, 0
1, 86848, Note_on_c, 0, 67, 82
1, 86878, Note_on_c, 0, 67, 0
1, 86880, Note_on_c, 0, 65, 81
1, 86880, Note_on_c, 1, 53, 81
1, 86910, Note_on_c, 0, 65, 0
1, 86912, Note_on_c, 0, 64, 80
1, 86942, Note_on_c, 0, 64, 0
1, 86944, Note_on_c, 0, 62, 78
1, 86961, Note_on_c, 1, 41, 0
1, 86969, Note_on_c, 1, 53, 0
1, 86974, Note_on_c, 0, 62, 0
1, 86976, Note_on_c, 0, 60, 77
1, 86976, Note_on_c, 1, 52, 77
1, 86976, Note_on_c, 1, 43, 69
1, 87065, Note_on_c, 0, 60, 0
1, 87065, Note_on_c, 1, 52, 0
1, 87072, Note_on_c, 0, 59, 73
1, 87072, Note_on_c, 1, 50, 73
1, 87084, Note_on_c, 0, 59, 0
1, 87084, Note_on_c, 0, 60, 73
1, 87096, Note_on_c, 0, 60, 0
1, 87096, Note_on_c, 0, 59, 73
1, 87153, Note_on_c, 1, 43, 0
1, 87161, Note_on_c, 0, 59, 0
1, 87161, Note_on_c, 1, 50, 0
1, 87168, Note_on_c, 1, 48, 85
1, 87168, Note_on_c, 1, 43, 85
1, 87168, Note_on_c, 1, 40, 85
1, 87200, Note_on_c, 0, 78, 85
1, 87230, Note_on_c, 0, 78, 0
1, 87232, Note_on_c, 0, 79, 85
1, 87262, Note_on_c, 0, 79, 0
1, 87264, Note_on_c, 0, 77, 85
1, 87294, Note_on_c, 0, 77, 0
1, 87296, Note_on_c, 0, 76, 85
1, 87326, Note_on_c, 0, 76, 0
1, 87328, Note_on_c, 0, 74, 85
1, 87345, Note_on_c, 1, 48, 0
1, 87345, Note_on_c, 1, 43, 0
1, 87345, Note_on_c, 1, 40, 0
1, 87358, Note_on_c, 0, 74, 0
1, 87360, Note_on_c, 0, 72, 85
1, 87390, Note_on_c, 0, 72, 0
1, 87392, Note_on_c, 0, 71, 85
1, 87422, Note_on_c, 0, 71, 0
1, 87424, Note_on_c, 0, 69, 85
1, 87454, Note_on_c, 0, 69, 0
1, 87456, Note_on_c, 0, 67, 85
1, 87486, Note_on_c, 0, 67, 0
1, 87488, Note_on_c, 0, 65, 85
1, 87518, Note_on_c, 0, 65, 0
1, 87520, Note_on_c, 0, 64, 85
1, 87550, Note_on_c, 0, 64, 0
1, 87552, Note_on_c, 0, 62, 85
1, 87552, Note_on_c, 0, 62, 69
1, 87552, Note_on_c, 1, 57, 85
1, 87552, Note_on_c, 1, 53, 85
1, 87552, Note_on_c, 1, 57, 69
1, 87552, Note_on_c, 1, 53, 69
1, 87729, Note_on_c, 0, 62, 0
1, 87729, Note_on_c, 0, 62, 0
1, 87729, Note_on_c, 1, 57, 0
1, 87729, Note_on_c, 1, 53, 0
1, 87729, Note_on_c, 1, 57, 0
1, 87729, Note_on_c, 1, 53, 0
1, 87744, Tempo, 1000000
1, 87744, Note_on_c, 0, 72, 92
1, 87744, Note_on_c, 1, 54, 85
1, 87750, Note_on_c, 0, 75, 92
1, 87750, Note_on_c, 1, 57, 85
1, 87756, Note_on_c, 0, 78, 92
1, 87756, Note_on_c, 1, 60, 85
1, 87762, Note_on_c, 0, 81, 92
1, 87762, Note_on_c, 1, 63, 85
1, 87923, Note_on_c, 0, 81, 0
1, 87923, Note_on_c, 0, 78, 0
1, 87923, Note_on_c, 0, 75, 0
1, 87923, Note_on_c, 0, 72, 0
1, 87923, Note_on_c, 1, 63, 0
1, 87923, Note_on_c, 1, 60, 0
1, 87923, Note_on_c, 1, 57, 0
1, 87923, Note_on_c, 1, 54, 0
1, 87936, Tempo, 375000
1, 87936, Note_on_c, 1, 57, 69
1, 87968, Note_on_c, 0, 69, 69
1, 87981, Note_on_c, 1, 57, 0
1, 87998, Note_on_c, 0, 69, 0
1, 88000, Note_on_c, 0, 81, 69
1, 88030, Note_on_c, 0, 81, 0
1, 88032, Note_on_c, 1, 54, 69
1, 88064, Note_on_c, 0, 66, 69
1, 88077, Note_on_c, 1, 54, 0
1, 88094, Note_on_c, 0, 66, 0
1, 88096, Note_on_c, 0, 78, 69
1, 88126, Note_on_c, 0, 78, 0
1, 88128, Note_on_c, 1, 51, 69
1, 88160, Note_on_c, 0, 63, 69
1, 88173, Note_on_c, 1, 51, 0
1, 88190, Note_on_c, 0, 63, 0
1, 88192, Note_on_c, 0, 75, 69
1, 88222, Note_on_c, 0, 75, 0
1, 88224, Note_on_c, 1, 48, 69
1, 88256, Note_on_c, 0, 60, 69
1, 88269, Note_on_c, 1, 48, 0
1, 88286, Note_on_c, 0, 60, 0
1, 88288, Note_on_c, 0, 72, 69
1, 88318, Note_on_c, 0, 72, 0
1, 88320, Note_on_c, 1, 45, 69
1, 88352, Note_on_c, 0, 57, 69
1, 88365, Note_on_c, 1, 45, 0
1, 88382, Note_on_c, 0, 57, 0
1, 88384, Note_on_c, 0, 69, 69
1, 88414, Note_on_c, 0, 69, 0
1, 88416, Note_on_c, 1, 42, 69
1, 88448, Note_on_c, 0, 54, 69
1, 88461, Note_on_c, 1, 42, 0
1, 88478, Note_on_c, 0, 54, 0
1, 88480, Note_on_c, 0, 66, 69
1, 88510, Note_on_c, 0, 66, 0
1, 88512, Note_on_c, 1, 39, 69
1, 88544, Note_on_c, 1, 51, 69
1, 88557, Note_on_c, 1, 39, 0
1, 88574, Note_on_c, 1, 51, 0
1, 88576, Note_on_c, 1, 63, 69
1, 88606, Note_on_c, 1, 63, 0
1, 88608, Note_on_c, 1, 36, 69
1, 88640, Note_on_c, 1, 48, 69
1, 88653, Note_on_c, 1, 36, 0
1, 88670, Note_on_c, 1, 48, 0
1, 88672, Note_on_c, 1, 60, 69
1, 88702, Note_on_c, 1, 60, 0
1, 88704, Note_on_c, 1, 55, 69
1, 88734, Note_on_c, 1, 55, 0
1, 88736, Note_on_c, 1, 60, 69
1, 88766, Note_on_c, 1, 60, 0
1, 88768, Note_on_c, 1, 64, 69
1, 88798, Note_on_c, 1, 64, 0
1, 88800, Note_on_c, 1, 55, 69
1, 88830, Note_on_c, 1, 55, 0
1, 88832, Note_on_c, 1, 60, 69
1, 88862, Note_on_c, 1, 60, 0
1, 88864, Note_on_c, 1, 64, 69
1, 88894, Note_on_c, 1, 64, 0
1, 88896, Note_on_c, 1, 55, 69
1, 88926, Note_on_c, 1, 55, 0
1, 88928, Note_on_c, 1, 60, 69
1, 88958, Note_on_c, 1, 60, 0
1, 88960, Note_on_c, 1, 64, 69
1, 88990, Note_on_c, 1, 64, 0
1, 88992, Note_on_c, 0, 72, 69
1, 88992, Note_on_c, 1, 55, 69
1, 89015, Note_on_c, 0, 72, 0
1, 89016, Note_on_c, 0, 74, 69
1, 89022, Note_on_c, 1, 55, 0
1, 89024, Note_on_c, 1, 60, 69
1, 89039, Note_on_c, 0, 74, 0
1, 89040, Note_on_c, 0, 76, 69
1, 89054, Note_on_c, 1, 60, 0
1, 89056, Note_on_c, 1, 64, 69
1, 89063, Note_on_c, 0, 76, 0
1, 89064, Note_on_c, 0, 77, 69
1, 89086, Note_on_c, 1, 64, 0
1, 89087, Note_on_c, 0, 77, 0
1, 89088, Note_on_c, 0, 79, 69
1, 89088, Note_on_c, 1, 55, 69
1, 89118, Note_on_c, 1, 55, 0
1, 89120, Note_on_c, 1, 60, 69
1, 89127, Note_on_c, 0, 79, 0
1, 89150, Note_on_c, 1, 60, 0
1, 89152, Note_on_c, 1, 64, 69
1, 89182, Note_on_c, 1, 64, 0
1, 89184, Note_on_c, 0, 79, 69
1, 89184, Note_on_c, 1, 55, 69
1, 89214, Note_on_c, 1, 55, 0
1, 89216, Note_on_c, 1, 60, 69
1, 89223, Note_on_c, 0, 79, 0
1, 89246, Note_on_c, 1, 60, 0
1, 89248, Note_on_c, 1, 64, 69
1, 89278, Note_on_c, 1, 64, 0
1, 89280, Note_on_c, 0, 79, 69
1, 89280, Note_on_c, 1, 55, 69
1, 89310, Note_on_c, 1, 55, 0
1, 89312, Note_on_c, 1, 60, 69
1, 89319, Note_on_c, 0, 79, 0
1, 89342, Note_on_c, 1, 60, 0
1, 89344, Note_on_c, 1, 64, 69
1, 89374, Note_on_c, 1, 64, 0
1, 89376, Note_on_c, 0, 83, 85
1, 89376, Note_on_c, 1, 55, 69
1, 89388, Note_on_c, 0, 83, 0
1, 89388, Note_on_c, 0, 84, 85
1, 89406, Note_on_c, 1, 55, 0
1, 89408, Note_on_c, 1, 60, 69
1, 89415, Note_on_c, 0, 84, 0
1, 89438, Note_on_c, 1, 60, 0
1, 89440, Note_on_c, 1, 64, 69
1, 89470, Note_on_c, 1, 64, 0
1, 89472, Note_on_c, 0, 79, 79
1, 89472, Note_on_c, 1, 55, 69
1, 89502, Note_on_c, 1, 55, 0
1, 89504, Note_on_c, 1, 60, 69
1, 89511, Note_on_c, 0, 79, 0
1, 89534, Note_on_c, 1, 60, 0
1, 89536, Note_on_c, 1, 64, 69
1, 89566, Note_on_c, 1, 64, 0
1, 89568, Note_on_c, 0, 79, 79
1, 89568, Note_on_c, 1, 55, 69
1, 89598, Note_on_c, 1, 55, 0
1, 89600, Note_on_c, 1, 60, 69
1, 89607, Note_on_c, 0, 79, 0
1, 89630, Note_on_c, 1, 60, 0
1, 89632, Note_on_c, 1, 64, 69
1, 89662, Note_on_c, 1, 64, 0
1, 89664, Note_on_c, 0, 79, 79
1, 89664, Note_on_c, 1, 55, 69
1, 89684, Note_on_c, 0, 79, 0
1, 89694, Note_on_c, 1, 55, 0
1, 89696, Note_on_c, 1, 60, 69
1, 89712, Note_on_c, 0, 81, 79
1, 89726, Note_on_c, 1, 60, 0
1, 89728, Note_on_c, 1, 64, 69
1, 89735, Note_on_c, 0, 81, 0
1, 89736, Note_on_c, 0, 79, 79
1, 89758, Note_on_c, 1, 64, 0
1, 89759, Note_on_c, 0, 79, 0
1, 89760, Note_on_c, 0, 77, 79
1, 89760, Note_on_c, 1, 55, 69
1, 89783, Note_on_c, 0, 77, 0
1, 89784, Note_on_c, 0, 76, 79
1, 89790, Note_on_c, 1, 55, 0
1, 89792, Note_on_c, 1, 60, 69
1, 89807, Note_on_c, 0, 76, 0
1, 89808, Note_on_c, 0, 74, 79
1, 89822, Note_on_c, 1, 60, 0
1, 89824, Note_on_c, 1, 64, 69
1, 89831, Note_on_c, 0, 74, 0
1, 89832, Note_on_c, 0, 72, 79
1, 89854, Note_on_c, 1, 64, 0
1, 89855, Note_on_c, 0, 72, 0
1, 89856, Note_on_c, 0, 71, 79
1, 89856, Note_on_c, 1, 55, 69
1, 89886, Note_on_c, 1, 55, 0
1, 89888, Note_on_c, 1, 62, 69
1, 89918, Note_on_c, 1, 62, 0
1, 89920, Note_on_c, 1, 65, 69
1, 89923, Note_on_c, 0, 71, 0
1, 89928, Note_on_c, 0, 79, 80
1, 89950, Note_on_c, 1, 65, 0
1, 89951, Note_on_c, 0, 79, 0
1, 89952, Note_on_c, 0, 81, 80
1, 89952, Note_on_c, 1, 55, 70
1, 89975, Note_on_c, 0, 81, 0
1, 89976, Note_on_c, 0, 79, 80
1, 89982, Note_on_c, 1, 55, 0
1, 89984, Note_on_c, 1, 62, 70
1, 89999, Note_on_c, 0, 79, 0
1, 90000, Note_on_c, 0, 78, 81
1, 90014, Note_on_c, 1, 62, 0
1, 90016, Note_on_c, 1, 65, 70
1, 90023, Note_on_c, 0, 78, 0
1, 90024, Note_on_c, 0, 79, 81
1, 90046, Note_on_c, 1, 65, 0
1, 90047, Note_on_c, 0, 79, 0
1, 90048, Note_on_c, 0, 72, 82
1, 90048, Note_on_c, 1, 55, 71
1, 90078, Note_on_c, 1, 55, 0
1, 90080, Note_on_c, 1, 60, 71
1, 90110, Note_on_c, 1, 60, 0
1, 90112, Note_on_c, 1, 64, 72
1, 90115, Note_on_c, 0, 72, 0
1, 90120, Note_on_c, 0, 79, 83
1, 90142, Note_on_c, 1, 64, 0
1, 90143, Note_on_c, 0, 79, 0
1, 90144, Note_on_c, 0, 81, 83
1, 90144, Note_on_c, 1, 55, 72
1, 90167, Note_on_c, 0, 81, 0
1, 90168, Note_on_c, 0, 79, 83
1, 90174, Note_on_c, 1, 55, 0
1, 90176, Note_on_c, 1, 60, 72
1, 90191, Note_on_c, 0, 79, 0
1, 90192, Note_on_c, 0, 78, 84
1, 90206, Note_on_c, 1, 60, 0
1, 90208, Note_on_c, 1, 64, 73
1, 90215, Note_on_c, 0, 78, 0
1, 90216, Note_on_c, 0, 79, 84
1, 90238, Note_on_c, 1, 64, 0
1, 90239, Note_on_c, 0, 79, 0
1, 90240, Note_on_c, 0, 74, 85
1, 90240, Note_on_c, 1, 55, 74
1, 90270, Note_on_c, 1, 55, 0
1, 90272, Note_on_c, 1, 59, 74
1, 90302, Note_on_c, 1, 59, 0
1, 90304, Note_on_c, 1, 62, 74
1, 90329, Note_on_c, 0, 74, 0
1, 90334, Note_on_c, 1, 62, 0
1, 90336, Note_on_c, 1, 55, 74
1, 90366, Note_on_c, 1, 55, 0
1, 90368, Note_on_c, 1, 59, 74
1, 90398, Note_on_c, 1, 59, 0
1, 90400, Note_on_c, 1, 62, 74
1, 90430, Note_on_c, 1, 62, 0
1, 90432, Note_on_c, 1, 55, 74
1, 90462, Note_on_c, 1, 55, 0
1, 90464, Note_on_c, 1, 59, 74
1, 90494, Note_on_c, 1, 59, 0
1, 90496, Note_on_c, 1, 62, 74
1, 90526, Note_on_c, 1, 62, 0
1, 90528, Note_on_c, 0, 67, 79
1, 90528, Note_on_c, 1, 55, 74
1, 90558, Note_on_c, 1, 55, 0
1, 90560, Note_on_c, 1, 59, 74
1, 90590, Note_on_c, 1, 59, 0
1, 90592, Note_on_c, 1, 62, 74
1, 90595, Note_on_c, 0, 67, 0
1, 90600, Note_on_c, 0, 74, 79
1, 90622, Note_on_c, 1, 62, 0
1, 90623, Note_on_c, 0, 74, 0
1, 90624, Note_on_c, 0, 77, 79
1, 90624, Note_on_c, 1, 55, 74
1, 90654, Note_on_c, 1, 55, 0
1, 90656, Note_on_c, 1, 59, 74
1, 90663, Note_on_c, 0, 77, 0
1, 90686, Note_on_c, 1, 59, 0
1, 90688, Note_on_c, 1, 62, 74
1, 90718, Note_on_c, 1, 62, 0
1, 90720, Note_on_c, 0, 77, 79
1, 90720, Note_on_c, 1, 55, 74
1, 90750, Note_on_c, 1, 55, 0
1, 90752, Note_on_c, 1, 59, 74
1, 90782, Note_on_c, 1, 59, 0
1, 90784, Note_on_c, 1, 62, 74
1, 90792, Note_on_c, 0, 77, 0
1, 90792, Note_on_c, 0, 79, 79
1, 90814, Note_on_c, 1, 62, 0
1, 90815, Note_on_c, 0, 79, 0
1, 90816, Note_on_c, 0, 76, 79
1, 90816, Note_on_c, 1, 55, 74
1, 90846, Note_on_c, 1, 55, 0
1, 90848, Note_on_c, 1, 60, 74
1, 90855, Note_on_c, 0, 76, 0
1, 90878, Note_on_c, 1, 60, 0
1, 90880, Note_on_c, 1, 64, 74
1, 90910, Note_on_c, 1, 64, 0
1, 90912, Note_on_c, 0, 76, 79
1, 90912, Note_on_c, 1, 55, 74
1, 90942, Note_on_c, 1, 55, 0
1, 90944, Note_on_c, 1, 60, 74
1, 90974, Note_on_c, 1, 60, 0
1, 90976, Note_on_c, 1, 64, 74
1, 90984, Note_on_c, 0, 76, 0
1, 90984, Note_on_c, 0, 77, 79
1, 91006, Note_on_c, 1, 64, 0
1, 91007, Note_on_c, 0, 77, 0
1, 91008, Note_on_c, 0, 74, 79
1, 91008, Note_on_c, 1, 55, 74
1, 91028, Note_on_c, 0, 74, 0
1, 91038, Note_on_c, 1, 55, 0
1, 91040, Note_on_c, 1, 62, 74
1, 91056, Note_on_c, 0, 76, 79
1, 91070, Note_on_c, 1, 62, 0
1, 91071, Note_on_c, 0, 76, 0
1, 91072, Note_on_c, 0, 74, 79
1, 91072, Note_on_c, 1, 65, 74
1, 91087, Note_on_c, 0, 74, 0
1, 91088, Note_on_c, 0, 72, 79
1, 91102, Note_on_c, 1, 65, 0
1, 91103, Note_on_c, 0, 72, 0
1, 91104, Note_on_c, 0, 74, 79
1, 91104, Note_on_c, 1, 55, 74
1, 91134, Note_on_c, 1, 55, 0
1, 91136, Note_on_c, 1, 62, 74
1, 91166, Note_on_c, 1, 62, 0
1, 91168, Note_on_c, 1, 65, 74
1, 91176, Note_on_c, 0, 74, 0
1, 91176, Note_on_c, 0, 76, 80
1, 91198, Note_on_c, 1, 65, 0
1, 91199, Note_on_c, 0, 76, 0
1, 91200, Note_on_c, 0, 72, 80
1, 91200, Note_on_c, 1, 57, 74
1, 91230, Note_on_c, 1, 57, 0
1, 91232, Note_on_c, 1, 60, 74
1, 91262, Note_on_c, 1, 60, 0
1, 91264, Note_on_c, 1, 64, 74
1, 91267, Note_on_c, 0, 72, 0
1, 91272, Note_on_c, 0, 74, 80
1, 91294, Note_on_c, 1, 64, 0
1, 91295, Note_on_c, 0, 74, 0
1, 91296, Note_on_c, 0, 76, 81
1, 91296, Note_on_c, 1, 57, 74
1, 91326, Note_on_c, 1, 57, 0
1, 91328, Note_on_c, 1, 60, 74
1, 91358, Note_on_c, 1, 60, 0
1, 91360, Note_on_c, 1, 64, 74
1, 91363, Note_on_c, 0, 76, 0
1, 91368, Note_on_c, 0, 72, 81
1, 91390, Note_on_c, 1, 64, 0
1, 91391, Note_on_c, 0, 72, 0
1, 91392, Note_on_c, 0, 74, 81
1, 91392, Note_on_c, 1, 53, 74
1, 91422, Note_on_c, 1, 53, 0
1, 91424, Note_on_c, 1, 57, 74
1, 91431, Note_on_c, 0, 74, 0
1, 91454, Note_on_c, 1, 57, 0
1, 91456, Note_on_c, 1, 62, 74
1, 91486, Note_on_c, 1, 62, 0
1, 91488, Note_on_c, 0, 74, 82
1, 91488, Note_on_c, 1, 53, 74
1, 91518, Note_on_c, 1, 53, 0
1, 91520, Note_on_c, 1, 57, 74
1, 91527, Note_on_c, 0, 74, 0
1, 91550, Note_on_c, 1, 57, 0
1, 91552, Note_on_c, 1, 62, 74
1, 91582, Note_on_c, 1, 62, 0
1, 91584, Note_on_c, 0, 79, 99
1, 91584, Note_on_c, 0, 71, 69
1, 91584, Note_on_c, 1, 55, 74
1, 91614, Note_on_c, 1, 55, 0
1, 91616, Note_on_c, 1, 62, 74
1, 91646, Note_on_c, 1, 62, 0
1, 91648, Note_on_c, 1, 65, 74
1, 91678, Note_on_c, 1, 65, 0
1, 91680, Note_on_c, 1, 55, 74
1, 91703, Note_on_c, 0, 79, 0
1, 91704, Note_on_c, 0, 77, 84
1, 91710, Note_on_c, 1, 55, 0
1, 91712, Note_on_c, 1, 62, 74
1, 91727, Note_on_c, 0, 77, 0
1, 91728, Note_on_c, 0, 76, 84
1, 91742, Note_on_c, 1, 62, 0
1, 91744, Note_on_c, 1, 65, 74
1, 91751, Note_on_c, 0, 76, 0
1, 91752, Note_on_c, 0, 74, 84
1, 91761, Note_on_c, 0, 71, 0
1, 91774, Note_on_c, 1, 65, 0
1, 91775, Note_on_c, 0, 74, 0
1, 91776, Note_on_c, 0, 72, 85
1, 91776, Note_on_c, 1, 60, 79
1, 91806, Note_on_c, 1, 60, 0
1, 91808, Note_on_c, 1, 64, 79
1, 91838, Note_on_c, 1, 64, 0
1, 91840, Note_on_c, 1, 67, 79
1, 91865, Note_on_c, 0, 72, 0
1, 91870, Note_on_c, 1, 67, 0
1, 91872, Note_on_c, 1, 60, 79
1, 91902, Note_on_c, 1, 60, 0
1, 91904, Note_on_c, 1, 64, 79
1, 91934, Note_on_c, 1, 64, 0
1, 91936, Note_on_c, 1, 67, 79
1, 91966, Note_on_c, 1, 67, 0
1, 91968, Note_on_c, 1, 60, 79
1, 91998, Note_on_c, 1, 60, 0
1, 92000, Note_on_c, 1, 64, 79
1, 92030, Note_on_c, 1, 64, 0
1, 92032, Note_on_c, 1, 67, 79
1, 92062, Note_on_c, 1, 67, 0
1, 92064, Note_on_c, 0, 79, 92
1, 92064, Note_on_c, 1, 55, 79
1, 92094, Note_on_c, 1, 55, 0
1, 92096, Note_on_c, 1, 59, 79
1, 92126, Note_on_c, 1, 59, 0
1, 92128, Note_on_c, 1, 67, 79
1, 92136, Note_on_c, 0, 79, 0
1, 92136, Note_on_c, 0, 83, 92
1, 92158, Note_on_c, 1, 67, 0
1, 92159, Note_on_c, 0, 83, 0
1, 92160, Note_on_c, 0, 84, 92
1, 92160, Note_on_c, 1, 60, 79
1, 92190, Note_on_c, 1, 60, 0
1, 92192, Note_on_c, 1, 64, 79
1, 92199, Note_on_c, 0, 84, 0
1, 92222, Note_on_c, 1, 64, 0
1, 92224, Note_on_c, 1, 67, 79
1, 92254, Note_on_c, 1, 67, 0
1, 92256, Note_on_c, 0, 84, 92
1, 92256, Note_on_c, 1, 60, 79
1, 92286, Note_on_c, 1, 60, 0
1, 92288, Note_on_c, 1, 64, 79
1, 92295, Note_on_c, 0, 84, 0
1, 92318, Note_on_c, 1, 64, 0
1, 92320, Note_on_c, 1, 67, 79
1, 92350, Note_on_c, 1, 67, 0
1, 92352, Note_on_c, 0, 84, 92
1, 92352, Note_on_c, 1, 60, 79
1, 92382, Note_on_c, 1, 60, 0
1, 92384, Note_on_c, 1, 64, 79
1, 92391, Note_on_c, 0, 84, 0
1, 92414, Note_on_c, 1, 64, 0
1, 92416, Note_on_c, 1, 67, 79
1, 92446, Note_on_c, 1, 67, 0
1, 92448, Note_on_c, 0, 88, 92
1, 92448, Note_on_c, 1, 55, 79
1, 92472, Note_on_c, 0, 88, 0
1, 92472, Note_on_c, 0, 86, 92
1, 92478, Note_on_c, 1, 55, 0
1, 92480, Note_on_c, 1, 59, 79
1, 92496, Note_on_c, 0, 86, 0
1, 92496, Note_on_c, 0, 84, 92
1, 92510, Note_on_c, 1, 59, 0
1, 92512, Note_on_c, 1, 67, 79
1, 92520, Note_on_c, 0, 84, 0
1, 92520, Note_on_c, 0, 86, 92
1, 92542, Note_on_c, 1, 67, 0
1, 92544, Note_on_c, 0, 86, 0
1, 92544, Note_on_c, 0, 88, 92
1, 92544, Note_on_c, 1, 60, 79
1, 92574, Note_on_c, 1, 60, 0
1, 92576, Note_on_c, 1, 64, 79
1, 92583, Note_on_c, 0, 88, 0
1, 92606, Note_on_c, 1, 64, 0
1, 92608, Note_on_c, 1, 67, 79
1, 92638, Note_on_c, 1, 67, 0
1, 92640, Note_on_c, 0, 84, 92
1, 92640, Note_on_c, 1, 60, 79
1, 92670, Note_on_c, 1, 60, 0
1, 92672, Note_on_c, 1, 64, 79
1, 92679, Note_on_c, 0, 84, 0
1, 92702, Note_on_c, 1, 64, 0
1, 92704, Note_on_c, 1, 67, 79
1, 92734, Note_on_c, 1, 67, 0
1, 92736, Note_on_c, 0, 84, 92
1, 92736, Note_on_c, 1, 60, 79
1, 92766, Note_on_c, 1, 60, 0
1, 92768, Note_on_c, 1, 64, 79
1, 92775, Note_on_c, 0, 84, 0
1, 92798, Note_on_c, 1, 64, 0
1, 92800, Note_on_c, 1, 67, 79
1, 92830, Note_on_c, 1, 67, 0
1, 92832, Note_on_c, 0, 79, 92
1, 92832, Note_on_c, 1, 55, 79
1, 92862, Note_on_c, 1, 55, 0
1, 92864, Note_on_c, 1, 59, 79
1, 92894, Note_on_c, 1, 59, 0
1, 92896, Note_on_c, 1, 67, 79
1, 92904, Note_on_c, 0, 79, 0
1, 92904, Note_on_c, 0, 83, 92
1, 92926, Note_on_c, 1, 67, 0
1, 92927, Note_on_c, 0, 83, 0
1, 92928, Note_on_c, 0, 84, 92
1, 92928, Note_on_c, 1, 60, 79
1, 92958, Note_on_c, 1, 60, 0
1, 92960, Note_on_c, 1, 64, 79
1, 92967, Note_on_c, 0, 84, 0
1, 92990, Note_on_c, 1, 64, 0
1, 92992, Note_on_c, 1, 67, 79
1, 93022, Note_on_c, 1, 67, 0
1, 93024, Note_on_c, 0, 84, 92
1, 93024, Note_on_c, 1, 60, 79
1, 93054, Note_on_c, 1, 60, 0
1, 93056, Note_on_c, 1, 64, 79
1, 93063, Note_on_c, 0, 84, 0
1, 93086, Note_on_c, 1, 64, 0
1, 93088, Note_on_c, 1, 67, 79
1, 93118, Note_on_c, 1, 67, 0
1, 93120, Note_on_c, 0, 84, 92
1, 93120, Note_on_c, 1, 60, 79
1, 93150, Note_on_c, 1, 60, 0
1, 93152, Note_on_c, 1, 64, 79
1, 93159, Note_on_c, 0, 84, 0
1, 93182, Note_on_c, 1, 64, 0
1, 93184, Note_on_c, 1, 67, 79
1, 93214, Note_on_c, 1, 67, 0
1, 93216, Note_on_c, 0, 88, 92
1, 93216, Note_on_c, 1, 55, 79
1, 93228, Note_on_c, 0, 88, 0
1, 93228, Note_on_c, 0, 86, 92
1, 93240, Note_on_c, 0, 86, 0
1, 93240, Note_on_c, 0, 84, 92
1, 93246, Note_on_c, 1, 55, 0
1, 93248, Note_on_c, 1, 59, 79
1, 93252, Note_on_c, 0, 84, 0
1, 93252, Note_on_c, 0, 86, 92
1, 93278, Note_on_c, 1, 59, 0
1, 93280, Note_on_c, 1, 67, 79
1, 93283, Note_on_c, 0, 86, 0
1, 93288, Note_on_c, 0, 88, 92
1, 93310, Note_on_c, 1, 67, 0
1, 93311, Note_on_c, 0, 88, 0
1, 93312, Note_on_c, 0, 84, 92
1, 93312, Note_on_c, 1, 60, 79
1, 93342, Note_on_c, 1, 60, 0
1, 93344, Note_on_c, 1, 64, 79
1, 93374, Note_on_c, 1, 64, 0
1, 93376, Note_on_c, 1, 67, 79
1, 93401, Note_on_c, 0, 84, 0
1, 93406, Note_on_c, 1, 67, 0
1, 93408, Note_on_c, 1, 60, 79
1, 93438, Note_on_c, 1, 60, 0
1, 93440, Note_on_c, 1, 64, 79
1, 93470, Note_on_c, 1, 64, 0
1, 93472, Note_on_c, 1, 67, 79
1, 93502, Note_on_c, 1, 67, 0
1, 93504, Note_on_c, 1, 60, 79
1, 93534, Note_on_c, 1, 60, 0
1, 93536, Note_on_c, 1, 64, 79
1, 93566, Note_on_c, 1, 64, 0
1, 93568, Note_on_c, 1, 67, 79
1, 93598, Note_on_c, 1, 67, 0
1, 93600, Note_on_c, 0, 79, 92
1, 93600, Note_on_c, 1, 55, 79
1, 93630, Note_on_c, 1, 55, 0
1, 93632, Note_on_c, 1, 59, 79
1, 93662, Note_on_c, 1, 59, 0
1, 93664, Note_on_c, 1, 67, 79
1, 93672, Note_on_c, 0, 79, 0
1, 93672, Note_on_c, 0, 83, 92
1, 93694, Note_on_c, 1, 67, 0
1, 93695, Note_on_c, 0, 83, 0
1, 93696, Note_on_c, 0, 84, 92
1, 93696, Note_on_c, 1, 60, 79
1, 93726, Note_on_c, 1, 60, 0
1, 93728, Note_on_c, 1, 64, 79
1, 93735, Note_on_c, 0, 84, 0
1, 93758, Note_on_c, 1, 64, 0
1, 93760, Note_on_c, 1, 67, 79
1, 93790, Note_on_c, 1, 67, 0
1, 93792, Note_on_c, 0, 84, 92
1, 93792, Note_on_c, 1, 60, 79
1, 93822, Note_on_c, 1, 60, 0
1, 93824, Note_on_c, 1, 64, 79
1, 93831, Note_on_c, 0, 84, 0
1, 93854, Note_on_c, 1, 64, 0
1, 93856, Note_on_c, 1, 67, 79
1, 93886, Note_on_c, 1, 67, 0
1, 93888, Note_on_c, 0, 84, 92
1, 93888, Note_on_c, 1, 60, 79
1, 93918, Note_on_c, 1, 60, 0
1, 93920, Note_on_c, 1, 64, 79
1, 93927, Note_on_c, 0, 84, 0
1, 93950, Note_on_c, 1, 64, 0
1, 93952, Note_on_c, 1, 67, 79
1, 93982, Note_on_c, 1, 67, 0
1, 93984, Note_on_c, 0, 88, 92
1, 93984, Note_on_c, 1, 55, 79
1, 94008, Note_on_c, 0, 88, 0
1, 94008, Note_on_c, 0, 86, 92
1, 94014, Note_on_c, 1, 55, 0
1, 94016, Note_on_c, 1, 59, 79
1, 94032, Note_on_c, 0, 86, 0
1, 94032, Note_on_c, 0, 84, 92
1, 94046, Note_on_c, 1, 59, 0
1, 94048, Note_on_c, 1, 67, 79
1, 94056, Note_on_c, 0, 84, 0
1, 94056, Note_on_c, 0, 86, 92
1, 94078, Note_on_c, 1, 67, 0
1, 94080, Note_on_c, 0, 86, 0
1, 94080, Note_on_c, 0, 88, 92
1, 94080, Note_on_c, 1, 60, 79
1, 94110, Note_on_c, 1, 60, 0
1, 94112, Note_on_c, 1, 64, 79
1, 94119, Note_on_c, 0, 88, 0
1, 94142, Note_on_c, 1, 64, 0
1, 94144, Note_on_c, 1, 67, 79
1, 94174, Note_on_c, 1, 67, 0
1, 94176, Note_on_c, 0, 84, 92
1, 94176, Note_on_c, 1, 60, 79
1, 94206, Note_on_c, 1, 60, 0
1, 94208, Note_on_c, 1, 64, 79
1, 94215, Note_on_c, 0, 84, 0
1, 94238, Note_on_c, 1, 64, 0
1, 94240, Note_on_c, 1, 67, 79
1, 94270, Note_on_c, 1, 67, 0
1, 94272, Note_on_c, 0, 84, 92
1, 94272, Note_on_c, 1, 60, 79
1, 94302, Note_on_c, 1, 60, 0
1, 94304, Note_on_c, 1, 64, 79
1, 94311, Note_on_c, 0, 84, 0
1, 94334, Note_on_c, 1, 64, 0
1, 94336, Note_on_c, 1, 67, 79
1, 94366, Note_on_c, 1, 67, 0
1, 94368, Note_on_c, 0, 79, 92
1, 94368, Note_on_c, 1, 55, 79
1, 94398, Note_on_c, 1, 55, 0
1, 94400, Note_on_c, 1, 59, 79
1, 94430, Note_on_c, 1, 59, 0
1, 94432, Note_on_c, 1, 67, 79
1, 94440, Note_on_c, 0, 79, 0
1, 94440, Note_on_c, 0, 83, 92
1, 94462, Note_on_c, 1, 67, 0
1, 94463, Note_on_c, 0, 83, 0
1, 94464, Note_on_c, 0, 84, 92
1, 94464, Note_on_c, 1, 60, 79
1, 94494, Note_on_c, 1, 60, 0
1, 94496, Note_on_c, 1, 64, 79
1, 94503, Note_on_c, 0, 84, 0
1, 94526, Note_on_c, 1, 64, 0
1, 94528, Note_on_c, 1, 67, 79
1, 94558, Note_on_c, 1, 67, 0
1, 94560, Note_on_c, 0, 84, 92
1, 94560, Note_on_c, 1, 60, 79
1, 94590, Note_on_c, 1, 60, 0
1, 94592, Note_on_c, 1, 64, 79
1, 94599, Note_on_c, 0, 84, 0
1, 94622, Note_on_c, 1, 64, 0
1, 94624, Note_on_c, 1, 67, 79
1, 94654, Note_on_c, 1, 67, 0
1, 94656, Note_on_c, 0, 84, 92
1, 94656, Note_on_c, 1, 60, 79
1, 94686, Note_on_c, 1, 60, 0
1, 94688, Note_on_c, 1, 64, 79
1, 94695, Note_on_c, 0, 84, 0
1, 94718, Note_on_c, 1, 64, 0
1, 94720, Note_on_c, 1, 67, 79
1, 94750, Note_on_c, 1, 67, 0
1, 94752, Note_on_c, 0, 88, 92
1, 94752, Note_on_c, 1, 55, 79
1, 94764, Note_on_c, 0, 88, 0
1, 94764, Note_on_c, 0, 86, 92
1, 94776, Note_on_c, 0, 86, 0
1, 94776, Note_on_c, 0, 84, 92
1, 94782, Note_on_c, 1, 55, 0
1, 94784, Note_on_c, 1, 59, 79
1, 94788, Note_on_c, 0, 84, 0
1, 94788, Note_on_c, 0, 86, 92
1, 94814, Note_on_c, 1, 59, 0
1, 94816, Note_on_c, 1, 67, 79
1, 94819, Note_on_c, 0, 86, 0
1, 94824, Note_on_c, 0, 88, 92
1, 94846, Note_on_c, 1, 67, 0
1, 94847, Note_on_c, 0, 88, 0
1, 94848, Note_on_c, 0, 84, 92
1, 94848, Note_on_c, 1, 60, 79
1, 94878, Note_on_c, 1, 60, 0
1, 94880, Note_on_c, 1, 64, 79
1, 94910, Note_on_c, 1, 64, 0
1, 94912, Note_on_c, 1, 67, 79
1, 94937, Note_on_c, 0, 84, 0
1, 94942, Note_on_c, 1, 67, 0
1, 94944, Note_on_c, 1, 60, 79
1, 94974, Note_on_c, 1, 60, 0
1, 94976, Note_on_c, 1, 64, 79
1, 95006, Note_on_c, 1, 64, 0
1, 95008, Note_on_c, 1, 67, 79
1, 95038, Note_on_c, 1, 67, 0
1, 95040, Note_on_c, 0, 79, 92
1, 95040, Note_on_c, 0, 76, 92
1, 95040, Note_on_c, 1, 60, 79
1, 95070, Note_on_c, 1, 60, 0
1, 95072, Note_on_c, 1, 64, 79
1, 95102, Note_on_c, 1, 64, 0
1, 95104, Note_on_c, 1, 67, 79
1, 95129, Note_on_c, 0, 79, 0
1, 95129, Note_on_c, 0, 76, 0
1, 95134, Note_on_c, 1, 67, 0
1, 95136, Note_on_c, 1, 60, 79
1, 95166, Note_on_c, 1, 60, 0
1, 95168, Note_on_c, 1, 64, 79
1, 95198, Note_on_c, 1, 64, 0
1, 95200, Note_on_c, 1, 67, 79
1, 95230, Note_on_c, 1, 67, 0
1, 95232, Note_on_c, 0, 76, 92
1, 95232, Note_on_c, 0, 72, 92
1, 95232, Note_on_c, 0, 76, 69
1, 95232, Note_on_c, 1, 60, 79
1, 95262, Note_on_c, 1, 60, 0
1, 95264, Note_on_c, 1, 64, 79
1, 95294, Note_on_c, 1, 64, 0
1, 95296, Note_on_c, 1, 67, 79
1, 95321, Note_on_c, 0, 76, 0
1, 95321, Note_on_c, 0, 72, 0
1, 95321, Note_on_c, 0, 76, 0
1, 95326, Note_on_c, 1, 67, 0
1, 95328, Note_on_c, 1, 60, 79
1, 95358, Note_on_c, 1, 60, 0
1, 95360, Note_on_c, 1, 64, 79
1, 95390, Note_on_c, 1, 64, 0
1, 95392, Note_on_c, 1, 67, 79
1, 95422, Note_on_c, 1, 67, 0
1, 95424, Note_on_c, 0, 55, 92
1, 95424, Note_on_c, 0, 52, 92
1, 95424, Note_on_c, 1, 60, 79
1, 95454, Note_on_c, 1, 60, 0
1, 95456, Note_on_c, 1, 64, 79
1, 95486, Note_on_c, 1, 64, 0
1, 95488, Note_on_c, 1, 67, 79
1, 95513, Note_on_c, 0, 55, 0
1, 95513, Note_on_c, 0, 52, 0
1, 95518, Note_on_c, 1, 67, 0
1, 95520, Note_on_c, 1, 60, 79
1, 95550, Note_on_c, 1, 60, 0
1, 95552, Note_on_c, 1, 64, 79
1, 95582, Note_on_c, 1, 64, 0
1, 95584, Note_on_c, 1, 67, 79
1, 95614, Note_on_c, 1, 67, 0
1, 95616, Note_on_c, 0, 52, 92
1, 95616, Note_on_c, 0, 48, 92
1, 95616, Note_on_c, 0, 52, 69
1, 95616, Note_on_c, 0, 48, 69
1, 95616, Note_on_c, 1, 60, 79
1, 95705, Note_on_c, 0, 52, 0
1, 95705, Note_on_c, 0, 48, 0
1, 95749, Note_on_c, 0, 52, 0
1, 95749, Note_on_c, 0, 48, 0
1, 95749, Note_on_c, 1, 60, 0
1, 95904, Note_on_c, 0, 79, 79
1, 95976, Note_on_c, 0, 79, 0
1, 95976, Note_on_c, 0, 81, 79
1, 95999, Note_on_c, 0, 81, 0
1, 96000, Note_on_c, 0, 77, 79
1, 96000, Note_on_c, 1, 67, 74
1, 96000, Note_on_c, 1, 59, 74
1, 96039, Note_on_c, 0, 77, 0
1, 96039, Note_on_c, 1, 67, 0
1, 96039, Note_on_c, 1, 59, 0
1, 96096, Note_on_c, 0, 77, 79
1, 96168, Note_on_c, 0, 77, 0
1, 96168, Note_on_c, 0, 79, 79
1, 96191, Note_on_c, 0, 79, 0
1, 96192, Note_on_c, 0, 76, 79
1, 96192, Note_on_c, 1, 67, 74
1, 96192, Note_on_c, 1, 60, 74
1, 96231, Note_on_c, 0, 76, 0
1, 96231, Note_on_c, 1, 67, 0
1, 96231, Note_on_c, 1, 60, 0
1, 96288, Note_on_c, 0, 76, 79
1, 96360, Note_on_c, 0, 76, 0
1, 96360, Note_on_c, 0, 77, 79
1, 96383, Note_on_c, 0, 77, 0
1, 96384, Note_on_c, 0, 74, 79
1, 96384, Note_on_c, 1, 67, 74
1, 96384, Note_on_c, 1, 65, 74
1, 96423, Note_on_c, 0, 74, 0
1, 96423, Note_on_c, 1, 67, 0
1, 96423, Note_on_c, 1, 65, 0
1, 96480, Note_on_c, 0, 74, 79
1, 96552, Note_on_c, 0, 74, 0
1, 96552, Note_on_c, 0, 76, 79
1, 96575, Note_on_c, 0, 76, 0
1, 96576, Note_on_c, 0, 72, 79
1, 96576, Note_on_c, 1, 67, 74
1, 96576, Note_on_c, 1, 64, 74
1, 96615, Note_on_c, 0, 72, 0
1, 96615, Note_on_c, 1, 67, 0
1, 96615, Note_on_c, 1, 64, 0
1, 96672, Note_on_c, 0, 76, 79
1, 96672, Note_on_c, 0, 72, 69
1, 96744, Note_on_c, 0, 76, 0
1, 96744, Note_on_c, 0, 77, 79
1, 96761, Note_on_c, 0, 72, 0
1, 96767, Note_on_c, 0, 77, 0
1, 96768, Note_on_c, 0, 74, 85
1, 96768, Note_on_c, 0, 71, 69
1, 96768, Note_on_c, 1, 52, 85
1, 96768, Note_on_c, 1, 40, 85
1, 96807, Note_on_c, 0, 74, 0
1, 96807, Note_on_c, 0, 71, 0
1, 96807, Note_on_c, 1, 52, 0
1, 96807, Note_on_c, 1, 40, 0
1, 96864, Note_on_c, 0, 74, 85
1, 96864, Note_on_c, 0, 71, 69
1, 96936, Note_on_c, 0, 74, 0
1, 96936, Note_on_c, 0, 76, 85
1, 96953, Note_on_c, 0, 71, 0
1, 96959, Note_on_c, 0, 76, 0
1, 96960, Note_on_c, 0, 72, 85
1, 96960, Note_on_c, 0, 69, 69
1, 96960, Note_on_c, 1, 52, 85
1, 96960, Note_on_c, 1, 40, 85
1, 96999, Note_on_c, 0, 69, 0
1, 96999, Note_on_c, 1, 52, 0
1, 96999, Note_on_c, 1, 40, 0
1, 97054, Note_on_c, 0, 72, 0
1, 97056, Note_on_c, 0, 72, 85
1, 97056, Note_on_c, 0, 69, 69
1, 97128, Note_on_c, 0, 72, 0
1, 97128, Note_on_c, 0, 74, 85
1, 97145, Note_on_c, 0, 69, 0
1, 97151, Note_on_c, 0, 74, 0
1, 97152, Note_on_c, 0, 71, 85
1, 97152, Note_on_c, 0, 68, 69
1, 97152, Note_on_c, 1, 52, 85
1, 97152, Note_on_c, 1, 40, 85
1, 97713, Note_on_c, 0, 71, 0
1, 97713, Note_on_c, 0, 68, 0
1, 97713, Note_on_c, 1, 52, 0
1, 97713, Note_on_c, 1, 40, 0
1, 97824, Note_on_c, 0, 77, 79
1, 97847, Note_on_c, 0, 77, 0
1, 97848, Note_on_c, 0, 79, 79
1, 97871, Note_on_c, 0, 79, 0
1, 97872, Note_on_c, 0, 81, 79
1, 97895, Note_on_c, 0, 81, 0
1, 97896, Note_on_c, 0, 82, 79
1, 97919, Note_on_c, 0, 82, 0
1, 97920, Note_on_c, 0, 84, 79
1, 97920, Note_on_c, 1, 53, 69
1, 97950, Note_on_c, 1, 53, 0
1, 97952, Note_on_c, 1, 57, 69
1, 97959, Note_on_c, 0, 84, 0
1, 97982, Note_on_c, 1, 57, 0
1, 97984, Note_on_c, 1, 60, 69
1, 98014, Note_on_c, 1, 60, 0
1, 98016, Note_on_c, 0, 84, 79
1, 98016, Note_on_c, 1, 53, 69
1, 98046, Note_on_c, 1, 53, 0
1, 98048, Note_on_c, 1, 57, 69
1, 98055, Note_on_c, 0, 84, 0
1, 98078, Note_on_c, 1, 57, 0
1, 98080, Note_on_c, 1, 60, 69
1, 98110, Note_on_c, 1, 60, 0
1, 98112, Note_on_c, 0, 84, 79
1, 98112, Note_on_c, 1, 53, 69
1, 98142, Note_on_c, 1, 53, 0
1, 98144, Note_on_c, 1, 57, 69
1, 98151, Note_on_c, 0, 84, 0
1, 98174, Note_on_c, 1, 57, 0
1, 98176, Note_on_c, 1, 60, 69
1, 98206, Note_on_c, 1, 60, 0
1, 98208, Note_on_c, 0, 88, 85
1, 98208, Note_on_c, 1, 53, 69
1, 98220, Note_on_c, 0, 88, 0
1, 98220, Note_on_c, 0, 89, 85
1, 98238, Note_on_c, 1, 53, 0
1, 98240, Note_on_c, 1, 57, 69
1, 98247, Note_on_c, 0, 89, 0
1, 98270, Note_on_c, 1, 57, 0
1, 98272, Note_on_c, 1, 60, 69
1, 98302, Note_on_c, 1, 60, 0
1, 98304, Note_on_c, 0, 84, 79
1, 98304, Note_on_c, 1, 53, 69
1, 98334, Note_on_c, 1, 53, 0
1, 98336, Note_on_c, 1, 57, 69
1, 98343, Note_on_c, 0, 84, 0
1, 98366, Note_on_c, 1, 57, 0
1, 98368, Note_on_c, 1, 60, 69
1, 98398, Note_on_c, 1, 60, 0
1, 98400, Note_on_c, 0, 84, 79
1, 98400, Note_on_c, 1, 53, 69
1, 98430, Note_on_c, 1, 53, 0
1, 98432, Note_on_c, 1, 57, 69
1, 98439, Note_on_c, 0, 84, 0
1, 98462, Note_on_c, 1, 57, 0
1, 98464, Note_on_c, 1, 60, 69
1, 98494, Note_on_c, 1, 60, 0
1, 98496, Note_on_c, 0, 84, 79
1, 98496, Note_on_c, 1, 53, 69
1, 98516, Note_on_c, 0, 84, 0
1, 98526, Note_on_c, 1, 53, 0
1, 98528, Note_on_c, 1, 57, 69
1, 98544, Note_on_c, 0, 86, 79
1, 98558, Note_on_c, 1, 57, 0
1, 98560, Note_on_c, 1, 60, 69
1, 98567, Note_on_c, 0, 86, 0
1, 98568, Note_on_c, 0, 84, 79
1, 98590, Note_on_c, 1, 60, 0
1, 98591, Note_on_c, 0, 84, 0
1, 98592, Note_on_c, 0, 82, 79
1, 98592, Note_on_c, 1, 53, 69
1, 98615, Note_on_c, 0, 82, 0
1, 98616, Note_on_c, 0, 81, 79
1, 98622, Note_on_c, 1, 53, 0
1, 98624, Note_on_c, 1, 57, 69
1, 98639, Note_on_c, 0, 81, 0
1, 98640, Note_on_c, 0, 79, 79
1, 98654, Note_on_c, 1, 57, 0
1, 98656, Note_on_c, 1, 60, 69
1, 98663, Note_on_c, 0, 79, 0
1, 98664, Note_on_c, 0, 77, 79
1, 98686, Note_on_c, 1, 60, 0
1, 98687, Note_on_c, 0, 77, 0
1, 98688, Note_on_c, 0, 76, 79
1, 98688, Note_on_c, 1, 55, 69
1, 98718, Note_on_c, 1, 55, 0
1, 98720, Note_on_c, 1, 58, 69
1, 98727, Note_on_c, 0, 76, 0
1, 98750, Note_on_c, 1, 58, 0
1, 98752, Note_on_c, 1, 60, 69
1, 98782, Note_on_c, 1, 60, 0
1, 98784, Note_on_c, 0, 76, 80
1, 98784, Note_on_c, 1, 55, 69
1, 98814, Note_on_c, 1, 55, 0
1, 98816, Note_on_c, 1, 58, 69
1, 98823, Note_on_c, 0, 76, 0
1, 98846, Note_on_c, 1, 58, 0
1, 98848, Note_on_c, 1, 60, 69
1, 98878, Note_on_c, 1, 60, 0
1, 98880, Note_on_c, 0, 77, 82
1, 98880, Note_on_c, 1, 53, 69
1, 98910, Note_on_c, 1, 53, 0
1, 98912, Note_on_c, 1, 57, 69
1, 98919, Note_on_c, 0, 77, 0
1, 98942, Note_on_c, 1, 57, 0
1, 98944, Note_on_c, 1, 60, 69
1, 98974, Note_on_c, 1, 60, 0
1, 98976, Note_on_c, 0, 77, 83
1, 98976, Note_on_c, 1, 53, 69
1, 99006, Note_on_c, 1, 53, 0
1, 99008, Note_on_c, 1, 57, 69
1, 99015, Note_on_c, 0, 77, 0
1, 99038, Note_on_c, 1, 57, 0
1, 99040, Note_on_c, 1, 60, 69
1, 99070, Note_on_c, 1, 60, 0
1, 99072, Note_on_c, 0, 78, 101
1, 99072, Note_on_c, 1, 52, 69
1, 99102, Note_on_c, 1, 52, 0
1, 99104, Note_on_c, 1, 55, 69
1, 99134, Note_on_c, 1, 55, 0
1, 99136, Note_on_c, 1, 60, 69
1, 99166, Note_on_c, 1, 60, 0
1, 99168, Note_on_c, 0, 78, 0
1, 99168, Note_on_c, 0, 79, 85
1, 99168, Note_on_c, 1, 52, 69
1, 99198, Note_on_c, 1, 52, 0
1, 99200, Note_on_c, 1, 55, 69
1, 99230, Note_on_c, 1, 55, 0
1, 99232, Note_on_c, 1, 60, 69
1, 99257, Note_on_c, 0, 79, 0
1, 99262, Note_on_c, 1, 60, 0
1, 99264, Note_on_c, 1, 52, 69
1, 99294, Note_on_c, 1, 52, 0
1, 99296, Note_on_c, 1, 55, 69
1, 99326, Note_on_c, 1, 55, 0
1, 99328, Note_on_c, 1, 60, 69
1, 99358, Note_on_c, 1, 60, 0
1, 99360, Note_on_c, 0, 72, 85
1, 99360, Note_on_c, 1, 52, 69
1, 99390, Note_on_c, 1, 52, 0
1, 99392, Note_on_c, 1, 55, 69
1, 99422, Note_on_c, 1, 55, 0
1, 99424, Note_on_c, 1, 60, 69
1, 99432, Note_on_c, 0, 72, 0
1, 99432, Note_on_c, 0, 79, 85
1, 99454, Note_on_c, 1, 60, 0
1, 99455, Note_on_c, 0, 79, 0
1, 99456, Note_on_c, 0, 82, 85
1, 99456, Note_on_c, 1, 52, 69
1, 99486, Note_on_c, 1, 52, 0
1, 99488, Note_on_c, 1, 55, 69
1, 99495, Note_on_c, 0, 82, 0
1, 99518, Note_on_c, 1, 55, 0
1, 99520, Note_on_c, 1, 60, 69
1, 99550, Note_on_c, 1, 60, 0
1, 99552, Note_on_c, 0, 82, 86
1, 99552, Note_on_c, 1, 52, 69
1, 99582, Note_on_c, 1, 52, 0
1, 99584, Note_on_c, 1, 55, 69
1, 99614, Note_on_c, 1, 55, 0
1, 99616, Note_on_c, 1, 60, 69
1, 99624, Note_on_c, 0, 82, 0
1, 99624, Note_on_c, 0, 84, 88
1, 99646, Note_on_c, 1, 60, 0
1, 99647, Note_on_c, 0, 84, 0
1, 99648, Note_on_c, 0, 81, 88
1, 99648, Note_on_c, 1, 53, 69
1, 99678, Note_on_c, 1, 53, 0
1, 99680, Note_on_c, 1, 57, 69
1, 99687, Note_on_c, 0, 81, 0
1, 99710, Note_on_c, 1, 57, 0
1, 99712, Note_on_c, 1, 60, 69
1, 99742, Note_on_c, 1, 60, 0
1, 99744, Note_on_c, 0, 81, 90
1, 99744, Note_on_c, 1, 53, 69
1, 99774, Note_on_c, 1, 53, 0
1, 99776, Note_on_c, 1, 57, 69
1, 99806, Note_on_c, 1, 57, 0
1, 99808, Note_on_c, 1, 60, 69
1, 99816, Note_on_c, 0, 81, 0
1, 99816, Note_on_c, 0, 82, 92
1, 99838, Note_on_c, 1, 60, 0
1, 99839, Note_on_c, 0, 82, 0
1, 99840, Note_on_c, 0, 79, 92
1, 99840, Note_on_c, 1, 58, 69
1, 99860, Note_on_c, 0, 79, 0
1, 99870, Note_on_c, 1, 58, 0
1, 99872, Note_on_c, 1, 60, 69
1, 99888, Note_on_c, 0, 81, 92
1, 99902, Note_on_c, 1, 60, 0
1, 99903, Note_on_c, 0, 81, 0
1, 99904, Note_on_c, 0, 79, 92
1, 99904, Note_on_c, 1, 64, 69
1, 99919, Note_on_c, 0, 79, 0
1, 99920, Note_on_c, 0, 78, 92
1, 99934, Note_on_c, 1, 64, 0
1, 99935, Note_on_c, 0, 78, 0
1, 99936, Note_on_c, 0, 79, 92
1, 99936, Note_on_c, 1, 58, 69
1, 99966, Note_on_c, 1, 58, 0
1, 99968, Note_on_c, 1, 60, 69
1, 99998, Note_on_c, 1, 60, 0
1, 100000, Note_on_c, 1, 64, 69
1, 100008, Note_on_c, 0, 79, 0
1, 100008, Note_on_c, 0, 81, 92
1, 100030, Note_on_c, 1, 64, 0
1, 100031, Note_on_c, 0, 81, 0
1, 100032, Note_on_c, 0, 77, 92
1, 100032, Note_on_c, 1, 57, 69
1, 100062, Note_on_c, 1, 57, 0
1, 100064, Note_on_c, 1, 60, 69
1, 100071, Note_on_c, 0, 77, 0
1, 100094, Note_on_c, 1, 60, 0
1, 100096, Note_on_c, 1, 65, 69
1, 100126, Note_on_c, 1, 65, 0
1, 100128, Note_on_c, 0, 77, 92
1, 100128, Note_on_c, 1, 57, 69
1, 100158, Note_on_c, 1, 57, 0
1, 100160, Note_on_c, 1, 60, 69
1, 100167, Note_on_c, 0, 77, 0
1, 100190, Note_on_c, 1, 60, 0
1, 100192, Note_on_c, 1, 65, 69
1, 100222, Note_on_c, 1, 65, 0
1, 100224, Note_on_c, 0, 79, 92
1, 100224, Note_on_c, 1, 58, 69
1, 100254, Note_on_c, 1, 58, 0
1, 100256, Note_on_c, 1, 62, 69
1, 100263, Note_on_c, 0, 79, 0
1, 100286, Note_on_c, 1, 62, 0
1, 100288, Note_on_c, 1, 65, 69
1, 100318, Note_on_c, 1, 65, 0
1, 100320, Note_on_c, 0, 79, 92
1, 100320, Note_on_c, 1, 58, 69
1, 100350, Note_on_c, 1, 58, 0
1, 100352, Note_on_c, 1, 62, 69
1, 100359, Note_on_c, 0, 79, 0
1, 100382, Note_on_c, 1, 62, 0
1, 100384, Note_on_c, 1, 65, 69
1, 100414, Note_on_c, 1, 65, 0
1, 100416, Note_on_c, 0, 72, 86
1, 100416, Note_on_c, 1, 60, 69
1, 100446, Note_on_c, 1, 60, 0
1, 100448, Note_on_c, 1, 64, 69
1, 100478, Note_on_c, 1, 64, 0
1, 100480, Note_on_c, 1, 67, 69
1, 100483, Note_on_c, 0, 72, 0
1, 100488, Note_on_c, 0, 74, 81
1, 100510, Note_on_c, 1, 67, 0
1, 100511, Note_on_c, 0, 74, 0
1, 100512, Note_on_c, 0, 76, 80
1, 100512, Note_on_c, 1, 60, 69
1, 100542, Note_on_c, 1, 60, 0
1, 100544, Note_on_c, 1, 64, 69
1, 100574, Note_on_c, 1, 64, 0
1, 100576, Note_on_c, 1, 67, 69
1, 100579, Note_on_c, 0, 76, 0
1, 100584, Note_on_c, 0, 72, 75
1, 100606, Note_on_c, 1, 67, 0
1, 100607, Note_on_c, 0, 72, 0
1, 100608, Note_on_c, 0, 77, 74
1, 100608, Note_on_c, 1, 65, 69
1, 100638, Note_on_c, 0, 77, 0
1, 100640, Note_on_c, 0, 72, 74
1, 100670, Note_on_c, 0, 72, 0
1, 100672, Note_on_c, 0, 69, 74
1, 100697, Note_on_c, 1, 65, 0
1, 100702, Note_on_c, 0, 69, 0
1, 100704, Note_on_c, 0, 77, 74
1, 100734, Note_on_c, 0, 77, 0
1, 100736, Note_on_c, 0, 72, 74
1, 100766, Note_on_c, 0, 72, 0
1, 100768, Note_on_c, 0, 69, 74
1, 100798, Note_on_c, 0, 69, 0
1, 100800, Note_on_c, 0, 77, 74
1, 100830, Note_on_c, 0, 77, 0
1, 100832, Note_on_c, 0, 72, 74
1, 100862, Note_on_c, 0, 72, 0
1, 100864, Note_on_c, 0, 69, 74
1, 100894, Note_on_c, 0, 69, 0
1, 100896, Note_on_c, 0, 76, 85
1, 100896, Note_on_c, 1, 67, 85
1, 100896, Note_on_c, 1, 60, 85
1, 100926, Note_on_c, 0, 76, 0
1, 100928, Note_on_c, 0, 72, 85
1, 100958, Note_on_c, 0, 72, 0
1, 100960, Note_on_c, 0, 70, 85
1, 100985, Note_on_c, 1, 67, 0
1, 100985, Note_on_c, 1, 60, 0
1, 100990, Note_on_c, 0, 70, 0
1, 100992, Note_on_c, 0, 77, 74
1, 100992, Note_on_c, 1, 65, 74
1, 101022, Note_on_c, 0, 77, 0
1, 101024, Note_on_c, 0, 72, 74
1, 101031, Note_on_c, 1, 65, 0
1, 101054, Note_on_c, 0, 72, 0
1, 101056, Note_on_c, 0, 69, 74
1, 101086, Note_on_c, 0, 69, 0
1, 101088, Note_on_c, 0, 77, 69
1, 101118, Note_on_c, 0, 77, 0
1, 101120, Note_on_c, 0, 72, 69
1, 101150, Note_on_c, 0, 72, 0
1, 101152, Note_on_c, 0, 69, 69
1, 101182, Note_on_c, 0, 69, 0
1, 101184, Note_on_c, 0, 77, 69
1, 101214, Note_on_c, 0, 77, 0
1, 101216, Note_on_c, 0, 72, 69
1, 101246, Note_on_c, 0, 72, 0
1, 101248, Note_on_c, 0, 69, 69
1, 101278, Note_on_c, 0, 69, 0
1, 101280, Note_on_c, 0, 76, 85
1, 101280, Note_on_c, 1, 67, 85
1, 101280, Note_on_c, 1, 60, 85
1, 101310, Note_on_c, 0, 76, 0
1, 101312, Note_on_c, 0, 72, 85
1, 101342, Note_on_c, 0, 72, 0
1, 101344, Note_on_c, 0, 70, 85
1, 101369, Note_on_c, 1, 67, 0
1, 101369, Note_on_c, 1, 60, 0
1, 101374, Note_on_c, 0, 70, 0
1, 101376, Note_on_c, 0, 77, 74
1, 101376, Note_on_c, 1, 65, 74
1, 101406, Note_on_c, 0, 77, 0
1, 101408, Note_on_c, 0, 72, 74
1, 101415, Note_on_c, 1, 65, 0
1, 101438, Note_on_c, 0, 72, 0
1, 101440, Note_on_c, 0, 69, 74
1, 101470, Note_on_c, 0, 69, 0
1, 101472, Note_on_c, 0, 77, 69
1, 101502, Note_on_c, 0, 77, 0
1, 101504, Note_on_c, 0, 72, 69
1, 101534, Note_on_c, 0, 72, 0
1, 101536, Note_on_c, 0, 69, 69
1, 101566, Note_on_c, 0, 69, 0
1, 101568, Note_on_c, 0, 77, 69
1, 101598, Note_on_c, 0, 77, 0
1, 101600, Note_on_c, 0, 72, 69
1, 101630, Note_on_c, 0, 72, 0
1, 101632, Note_on_c, 0, 69, 69
1, 101662, Note_on_c, 0, 69, 0
1, 101664, Note_on_c, 0, 78, 85
1, 101664, Note_on_c, 1, 69, 85
1, 101664, Note_on_c, 1, 62, 85
1, 101694, Note_on_c, 0, 78, 0
1, 101696, Note_on_c, 0, 74, 85
1, 101726, Note_on_c, 0, 74, 0
1, 101728, Note_on_c, 0, 72, 85
1, 101753, Note_on_c, 1, 69, 0
1, 101753, Note_on_c, 1, 62, 0
1, 101758, Note_on_c, 0, 72, 0
1, 101760, Note_on_c, 0, 79, 79
1, 101760, Note_on_c, 1, 67, 79
1, 101790, Note_on_c, 0, 79, 0
1, 101792, Note_on_c, 0, 74, 79
1, 101799, Note_on_c, 1, 67, 0
1, 101822, Note_on_c, 0, 74, 0
1, 101824, Note_on_c, 0, 71, 79
1, 101854, Note_on_c, 0, 71, 0
1, 101856, Note_on_c, 0, 79, 74
1, 101886, Note_on_c, 0, 79, 0
1, 101888, Note_on_c, 0, 74, 74
1, 101918, Note_on_c, 0, 74, 0
1, 101920, Note_on_c, 0, 71, 74
1, 101950, Note_on_c, 0, 71, 0
1, 101952, Note_on_c, 0, 79, 74
1, 101982, Note_on_c, 0, 79, 0
1, 101984, Note_on_c, 0, 74, 74
1, 102014, Note_on_c, 0, 74, 0
1, 102016, Note_on_c, 0, 71, 74
1, 102046, Note_on_c, 0, 71, 0
1, 102048, Note_on_c, 0, 80, 85
1, 102048, Note_on_c, 1, 71, 85
1, 102048, Note_on_c, 1, 64, 85
1, 102078, Note_on_c, 0, 80, 0
1, 102080, Note_on_c, 0, 76, 85
1, 102110, Note_on_c, 0, 76, 0
1, 102112, Note_on_c, 0, 74, 85
1, 102137, Note_on_c, 1, 71, 0
1, 102137, Note_on_c, 1, 64, 0
1, 102142, Note_on_c, 0, 74, 0
1, 102144, Note_on_c, 0, 81, 79
1, 102144, Note_on_c, 1, 69, 74
1, 102174, Note_on_c, 0, 81, 0
1, 102176, Note_on_c, 0, 76, 79
1, 102183, Note_on_c, 1, 69, 0
1, 102206, Note_on_c, 0, 76, 0
1, 102208, Note_on_c, 0, 72, 79
1, 102238, Note_on_c, 0, 72, 0
1, 102240, Note_on_c, 0, 81, 79
1, 102270, Note_on_c, 0, 81, 0
1, 102272, Note_on_c, 0, 76, 79
1, 102302, Note_on_c, 0, 76, 0
1, 102304, Note_on_c, 0, 72, 79
1, 102334, Note_on_c, 0, 72, 0
1, 102336, Note_on_c, 0, 81, 80
1, 102366, Note_on_c, 0, 81, 0
1, 102368, Note_on_c, 0, 76, 81
1, 102398, Note_on_c, 0, 76, 0
1, 102400, Note_on_c, 0, 72, 82
1, 102430, Note_on_c, 0, 72, 0
1, 102432, Note_on_c, 0, 83, 83
1, 102432, Note_on_c, 1, 68, 85
1, 102462, Note_on_c, 0, 83, 0
1, 102464, Note_on_c, 0, 80, 85
1, 102494, Note_on_c, 0, 80, 0
1, 102496, Note_on_c, 0, 76, 85
1, 102521, Note_on_c, 1, 68, 0
1, 102526, Note_on_c, 0, 76, 0
1, 102528, Note_on_c, 0, 84, 85
1, 102528, Note_on_c, 1, 69, 85
1, 102558, Note_on_c, 0, 84, 0
1, 102560, Note_on_c, 0, 81, 85
1, 102590, Note_on_c, 0, 81, 0
1, 102592, Note_on_c, 0, 76, 85
1, 102617, Note_on_c, 1, 69, 0
1, 102622, Note_on_c, 0, 76, 0
1, 102624, Note_on_c, 0, 86, 85
1, 102624, Note_on_c, 1, 71, 85
1, 102654, Note_on_c, 0, 86, 0
1, 102656, Note_on_c, 0, 83, 85
1, 102686, Note_on_c, 0, 83, 0
1, 102688, Note_on_c, 0, 76, 85
1, 102713, Note_on_c, 1, 71, 0
1, 102718, Note_on_c, 0, 76, 0
1, 102720, Note_on_c, 0, 88, 85
1, 102720, Note_on_c, 1, 72, 85
1, 102750, Note_on_c, 0, 88, 0
1, 102752, Note_on_c, 0, 84, 85
1, 102782, Note_on_c, 0, 84, 0
1, 102784, Note_on_c, 0, 76, 85
1, 102809, Note_on_c, 1, 72, 0
1, 102814, Note_on_c, 0, 76, 0
1, 102816, Note_on_c, 0, 84, 85
1, 102816, Note_on_c, 1, 69, 85
1, 102846, Note_on_c, 0, 84, 0
1, 102848, Note_on_c, 0, 81, 85
1, 102878, Note_on_c, 0, 81, 0
1, 102880, Note_on_c, 0, 76, 85
1, 102905, Note_on_c, 1, 69, 0
1, 102910, Note_on_c, 0, 76, 0
1, 102912, Note_on_c, 0, 83, 85
1, 102912, Note_on_c, 1, 68, 85
1, 102912, Note_on_c, 1, 64, 64
1, 102942, Note_on_c, 0, 83, 0
1, 102944, Note_on_c, 0, 80, 85
1, 102974, Note_on_c, 0, 80, 0
1, 102976, Note_on_c, 0, 76, 85
1, 103001, Note_on_c, 1, 68, 0
1, 103006, Note_on_c, 0, 76, 0
1, 103008, Note_on_c, 0, 84, 85
1, 103008, Note_on_c, 1, 69, 85
1, 103038, Note_on_c, 0, 84, 0
1, 103040, Note_on_c, 0, 81, 85
1, 103070, Note_on_c, 0, 81, 0
1, 103072, Note_on_c, 0, 76, 85
1, 103089, Note_on_c, 1, 64, 0
1, 103097, Note_on_c, 1, 69, 0
1, 103102, Note_on_c, 0, 76, 0
1, 103104, Note_on_c, 0, 83, 85
1, 103104, Note_on_c, 1, 68, 85
1, 103134, Note_on_c, 0, 83, 0
1, 103136, Note_on_c, 0, 80, 85
1, 103166, Note_on_c, 0, 80, 0
1, 103168, Note_on_c, 0, 76, 85
1, 103193, Note_on_c, 1, 68, 0
1, 103198, Note_on_c, 0, 76, 0
1, 103200, Note_on_c, 0, 88, 85
1, 103200, Note_on_c, 1, 64, 85
1, 103230, Note_on_c, 0, 88, 0
1, 103232, Note_on_c, 0, 83, 85
1, 103262, Note_on_c, 0, 83, 0
1, 103264, Note_on_c, 0, 80, 85
1, 103289, Note_on_c, 1, 64, 0
1, 103294, Note_on_c, 0, 80, 0
1, 103296, Note_on_c, 0, 88, 85
1, 103296, Note_on_c, 1, 65, 85
1, 103326, Note_on_c, 0, 88, 0
1, 103328, Note_on_c, 0, 84, 85
1, 103358, Note_on_c, 0, 84, 0
1, 103360, Note_on_c, 0, 81, 85
1, 103385, Note_on_c, 1, 65, 0
1, 103390, Note_on_c, 0, 81, 0
1, 103392, Note_on_c, 0, 88, 85
1, 103392, Note_on_c, 1, 69, 85
1, 103422, Note_on_c, 0, 88, 0
1, 103424, Note_on_c, 0, 84, 85
1, 103454, Note_on_c, 0, 84, 0
1, 103456, Note_on_c, 0, 81, 85
1, 103481, Note_on_c, 1, 69, 0
1, 103486, Note_on_c, 0, 81, 0
1, 103488, Note_on_c, 0, 86, 85
1, 103488, Note_on_c, 1, 71, 85
1, 103518, Note_on_c, 0, 86, 0
1, 103520, Note_on_c, 0, 83, 85
1, 103550, Note_on_c, 0, 83, 0
1, 103552, Note_on_c, 0, 81, 85
1, 103577, Note_on_c, 1, 71, 0
1, 103582, Note_on_c, 0, 81, 0
1, 103584, Note_on_c, 0, 86, 85
1, 103584, Note_on_c, 1, 74, 85
1, 103614, Note_on_c, 0, 86, 0
1, 103616, Note_on_c, 0, 83, 85
1, 103646, Note_on_c, 0, 83, 0
1, 103648, Note_on_c, 0, 81, 85
1, 103673, Note_on_c, 1, 74, 0
1, 103678, Note_on_c, 0, 81, 0
1, 103680, Note_on_c, 0, 86, 85
1, 103680, Note_on_c, 1, 64, 85
1, 103710, Note_on_c, 0, 86, 0
1, 103712, Note_on_c, 0, 83, 85
1, 103742, Note_on_c, 0, 83, 0
1, 103744, Note_on_c, 0, 80, 85
1, 103769, Note_on_c, 1, 64, 0
1, 103774, Note_on_c, 0, 80, 0
1, 103776, Note_on_c, 0, 86, 85
1, 103776, Note_on_c, 1, 68, 85
1, 103806, Note_on_c, 0, 86, 0
1, 103808, Note_on_c, 0, 83, 85
1, 103838, Note_on_c, 0, 83, 0
1, 103840, Note_on_c, 0, 80, 85
1, 103865, Note_on_c, 1, 68, 0
1, 103870, Note_on_c, 0, 80, 0
1, 103872, Note_on_c, 0, 85, 85
1, 103872, Note_on_c, 1, 69, 85
1, 103902, Note_on_c, 0, 85, 0
1, 103904, Note_on_c, 0, 81, 85
1, 103934, Note_on_c, 0, 81, 0
1, 103936, Note_on_c, 0, 79, 85
1, 103961, Note_on_c, 1, 69, 0
1, 103966, Note_on_c, 0, 79, 0
1, 103968, Note_on_c, 0, 85, 85
1, 103968, Note_on_c, 1, 73, 85
1, 103998, Note_on_c, 0, 85, 0
1, 104000, Note_on_c, 0, 81, 85
1, 104030, Note_on_c, 0, 81, 0
1, 104032, Note_on_c, 0, 79, 85
1, 104057, Note_on_c, 1, 73, 0
1, 104062, Note_on_c, 0, 79, 0
1, 104064, Note_on_c, 0, 84, 85
1, 104064, Note_on_c, 1, 62, 85
1, 104094, Note_on_c, 0, 84, 0
1, 104096, Note_on_c, 0, 81, 85
1, 104126, Note_on_c, 0, 81, 0
1, 104128, Note_on_c, 0, 78, 85
1, 104153, Note_on_c, 1, 62, 0
1, 104158, Note_on_c, 0, 78, 0
1, 104160, Note_on_c, 0, 84, 85
1, 104160, Note_on_c, 1, 66, 85
1, 104190, Note_on_c, 0, 84, 0
1, 104192, Note_on_c, 0, 81, 85
1, 104222, Note_on_c, 0, 81, 0
1, 104224, Note_on_c, 0, 78, 85
1, 104249, Note_on_c, 1, 66, 0
1, 104254, Note_on_c, 0, 78, 0
1, 104256, Note_on_c, 0, 83, 85
1, 104256, Note_on_c, 1, 67, 85
1, 104286, Note_on_c, 0, 83, 0
1, 104288, Note_on_c, 0, 79, 85
1, 104318, Note_on_c, 0, 79, 0
1, 104320, Note_on_c, 0, 77, 85
1, 104345, Note_on_c, 1, 67, 0
1, 104350, Note_on_c, 0, 77, 0
1, 104352, Note_on_c, 0, 83, 85
1, 104352, Note_on_c, 1, 71, 85
1, 104382, Note_on_c, 0, 83, 0
1, 104384, Note_on_c, 0, 79, 85
1, 104414, Note_on_c, 0, 79, 0
1, 104416, Note_on_c, 0, 77, 85
1, 104441, Note_on_c, 1, 71, 0
1, 104446, Note_on_c, 0, 77, 0
1, 104448, Note_on_c, 0, 82, 85
1, 104448, Note_on_c, 1, 60, 85
1, 104478, Note_on_c, 0, 82, 0
1, 104480, Note_on_c, 0, 79, 85
1, 104510, Note_on_c, 0, 79, 0
1, 104512, Note_on_c, 0, 76, 85
1, 104537, Note_on_c, 1, 60, 0
1, 104542, Note_on_c, 0, 76, 0
1, 104544, Note_on_c, 0, 82, 85
1, 104544, Note_on_c, 1, 64, 85
1, 104574, Note_on_c, 0, 82, 0
1, 104576, Note_on_c, 0, 79, 85
1, 104606, Note_on_c, 0, 79, 0
1, 104608, Note_on_c, 0, 76, 85
1, 104633, Note_on_c, 1, 64, 0
1, 104638, Note_on_c, 0, 76, 0
1, 104640, Note_on_c, 0, 81, 85
1, 104640, Note_on_c, 1, 65, 85
1, 104670, Note_on_c, 0, 81, 0
1, 104672, Note_on_c, 0, 77, 85
1, 104702, Note_on_c, 0, 77, 0
1, 104704, Note_on_c, 0, 72, 85
1, 104729, Note_on_c, 1, 65, 0
1, 104734, Note_on_c, 0, 72, 0
1, 104736, Note_on_c, 0, 81, 85
1, 104736, Note_on_c, 1, 69, 85
1, 104766, Note_on_c, 0, 81, 0
1, 104768, Note_on_c, 0, 77, 85
1, 104798, Note_on_c, 0, 77, 0
1, 104800, Note_on_c, 0, 72, 85
1, 104825, Note_on_c, 1, 69, 0
1, 104830, Note_on_c, 0, 72, 0
1, 104832, Note_on_c, 0, 82, 85
1, 104832, Note_on_c, 1, 64, 85
1, 104862, Note_on_c, 0, 82, 0
1, 104864, Note_on_c, 0, 79, 85
1, 104894, Note_on_c, 0, 79, 0
1, 104896, Note_on_c, 0, 72, 85
1, 104921, Note_on_c, 1, 64, 0
1, 104926, Note_on_c, 0, 72, 0
1, 104928, Note_on_c, 0, 82, 85
1, 104928, Note_on_c, 1, 60, 85
1, 104958, Note_on_c, 0, 82, 0
1, 104960, Note_on_c, 0, 79, 85
1, 104990, Note_on_c, 0, 79, 0
1, 104992, Note_on_c, 0, 72, 85
1, 105017, Note_on_c, 1, 60, 0
1, 105022, Note_on_c, 0, 72, 0
1, 105024, Note_on_c, 0, 81, 85
1, 105024, Note_on_c, 1, 65, 85
1, 105054, Note_on_c, 0, 81, 0
1, 105056, Note_on_c, 0, 77, 85
1, 105086, Note_on_c, 0, 77, 0
1, 105088, Note_on_c, 0, 72, 85
1, 105113, Note_on_c, 1, 65, 0
1, 105118, Note_on_c, 0, 72, 0
1, 105120, Note_on_c, 0, 81, 85
1, 105120, Note_on_c, 1, 69, 85
1, 105150, Note_on_c, 0, 81, 0
1, 105152, Note_on_c, 0, 77, 85
1, 105182, Note_on_c, 0, 77, 0
1, 105184, Note_on_c, 0, 72, 85
1, 105209, Note_on_c, 1, 69, 0
1, 105214, Note_on_c, 0, 72, 0
1, 105216, Note_on_c, 0, 81, 85
1, 105216, Note_on_c, 1, 53, 92
1, 105216, Note_on_c, 1, 41, 92
1, 105246, Note_on_c, 0, 81, 0
1, 105248, Note_on_c, 0, 77, 85
1, 105278, Note_on_c, 0, 77, 0
1, 105280, Note_on_c, 0, 72, 85
1, 105305, Note_on_c, 1, 53, 0
1, 105305, Note_on_c, 1, 41, 0
1, 105310, Note_on_c, 0, 72, 0
1, 105312, Note_on_c, 0, 81, 85
1, 105312, Note_on_c, 1, 57, 92
1, 105312, Note_on_c, 1, 45, 92
1, 105342, Note_on_c, 0, 81, 0
1, 105344, Note_on_c, 0, 77, 85
1, 105374, Note_on_c, 0, 77, 0
1, 105376, Note_on_c, 0, 72, 85
1, 105401, Note_on_c, 1, 57, 0
1, 105401, Note_on_c, 1, 45, 0
1, 105406, Note_on_c, 0, 72, 0
1, 105408, Note_on_c, 0, 81, 85
1, 105408, Note_on_c, 1, 52, 92
1, 105408, Note_on_c, 1, 40, 92
1, 105438, Note_on_c, 0, 81, 0
1, 105440, Note_on_c, 0, 76, 85
1, 105470, Note_on_c, 0, 76, 0
1, 105472, Note_on_c, 0, 72, 85
1, 105497, Note_on_c, 1, 52, 0
1, 105497, Note_on_c, 1, 40, 0
1, 105502, Note_on_c, 0, 72, 0
1, 105504, Note_on_c, 0, 81, 85
1, 105504, Note_on_c, 1, 57, 92
1, 105504, Note_on_c, 1, 45, 92
1, 105534, Note_on_c, 0, 81, 0
1, 105536, Note_on_c, 0, 76, 85
1, 105566, Note_on_c, 0, 76, 0
1, 105568, Note_on_c, 0, 72, 85
1, 105593, Note_on_c, 1, 57, 0
1, 105593, Note_on_c, 1, 45, 0
1, 105598, Note_on_c, 0, 72, 0
1, 105600, Note_on_c, 0, 81, 85
1, 105600, Note_on_c, 1, 51, 92
1, 105600, Note_on_c, 1, 39, 92
1, 105630, Note_on_c, 0, 81, 0
1, 105632, Note_on_c, 0, 78, 85
1, 105662, Note_on_c, 0, 78, 0
1, 105664, Note_on_c, 0, 72, 85
1, 105689, Note_on_c, 1, 51, 0
1, 105689, Note_on_c, 1, 39, 0
1, 105694, Note_on_c, 0, 72, 0
1, 105696, Note_on_c, 0, 81, 85
1, 105696, Note_on_c, 1, 54, 92
1, 105696, Note_on_c, 1, 42, 92
1, 105726, Note_on_c, 0, 81, 0
1, 105728, Note_on_c, 0, 78, 85
1, 105758, Note_on_c, 0, 78, 0
1, 105760, Note_on_c, 0, 72, 85
1, 105785, Note_on_c, 1, 54, 0
1, 105785, Note_on_c, 1, 42, 0
1, 105790, Note_on_c, 0, 72, 0
1, 105792, Note_on_c, 0, 81, 85
1, 105792, Note_on_c, 1, 57, 92
1, 105792, Note_on_c, 1, 45, 92
1, 105822, Note_on_c, 0, 81, 0
1, 105824, Note_on_c, 0, 78, 85
1, 105854, Note_on_c, 0, 78, 0
1, 105856, Note_on_c, 0, 72, 85
1, 105881, Note_on_c, 1, 57, 0
1, 105881, Note_on_c, 1, 45, 0
1, 105886, Note_on_c, 0, 72, 0
1, 105888, Note_on_c, 0, 81, 85
1, 105888, Note_on_c, 1, 60, 92
1, 105888, Note_on_c, 1, 48, 92
1, 105918, Note_on_c, 0, 81, 0
1, 105920, Note_on_c, 0, 78, 85
1, 105950, Note_on_c, 0, 78, 0
1, 105952, Note_on_c, 0, 72, 85
1, 105977, Note_on_c, 1, 60, 0
1, 105977, Note_on_c, 1, 48, 0
1, 105982, Note_on_c, 0, 72, 0
1, 105984, Note_on_c, 0, 81, 85
1, 105984, Note_on_c, 1, 63, 92
1, 105984, Note_on_c, 1, 51, 92
1, 106014, Note_on_c, 0, 81, 0
1, 106016, Note_on_c, 0, 78, 85
1, 106046, Note_on_c, 0, 78, 0
1, 106048, Note_on_c, 0, 72, 85
1, 106073, Note_on_c, 1, 63, 0
1, 106073, Note_on_c, 1, 51, 0
1, 106078, Note_on_c, 0, 72, 0
1, 106080, Note_on_c, 0, 81, 85
1, 106080, Note_on_c, 1, 66, 92
1, 106080, Note_on_c, 1, 54, 92
1, 106110, Note_on_c, 0, 81, 0
1, 106112, Note_on_c, 0, 78, 85
1, 106142, Note_on_c, 0, 78, 0
1, 106144, Note_on_c, 0, 72, 85
1, 106169, Note_on_c, 1, 66, 0
1, 106169, Note_on_c, 1, 54, 0
1, 106174, Note_on_c, 0, 72, 0
1, 106176, Note_on_c, 0, 81, 85
1, 106176, Note_on_c, 1, 69, 92
1, 106176, Note_on_c, 1, 57, 92
1, 106206, Note_on_c, 0, 81, 0
1, 106208, Note_on_c, 0, 78, 85
1, 106238, Note_on_c, 0, 78, 0
1, 106240, Note_on_c, 0, 72, 85
1, 106265, Note_on_c, 1, 69, 0
1, 106265, Note_on_c, 1, 57, 0
1, 106270, Note_on_c, 0, 72, 0
1, 106272, Note_on_c, 0, 81, 85
1, 106272, Note_on_c, 1, 51, 92
1, 106272, Note_on_c, 1, 39, 92
1, 106302, Note_on_c, 0, 81, 0
1, 106304, Note_on_c, 0, 78, 85
1, 106334, Note_on_c, 0, 78, 0
1, 106336, Note_on_c, 0, 72, 85
1, 106361, Note_on_c, 1, 51, 0
1, 106361, Note_on_c, 1, 39, 0
1, 106366, Note_on_c, 0, 72, 0
1, 106368, Note_on_c, 0, 81, 85
1, 106368, Note_on_c, 1, 52, 92
1, 106368, Note_on_c, 1, 40, 92
1, 106398, Note_on_c, 0, 81, 0
1, 106400, Note_on_c, 0, 76, 85
1, 106430, Note_on_c, 0, 76, 0
1, 106432, Note_on_c, 0, 72, 85
1, 106462, Note_on_c, 0, 72, 0
1, 106464, Note_on_c, 0, 81, 85
1, 106494, Note_on_c, 0, 81, 0
1, 106496, Note_on_c, 0, 76, 85
1, 106526, Note_on_c, 0, 76, 0
1, 106528, Note_on_c, 0, 72, 85
1, 106558, Note_on_c, 0, 72, 0
1, 106560, Note_on_c, 0, 80, 85
1, 106590, Note_on_c, 0, 80, 0
1, 106592, Note_on_c, 0, 74, 85
1, 106622, Note_on_c, 0, 74, 0
1, 106624, Note_on_c, 0, 71, 85
1, 106654, Note_on_c, 0, 71, 0
1, 106656, Note_on_c, 0, 80, 85
1, 106686, Note_on_c, 0, 80, 0
1, 106688, Note_on_c, 0, 74, 85
1, 106718, Note_on_c, 0, 74, 0
1, 106720, Note_on_c, 0, 71, 85
1, 106750, Note_on_c, 0, 71, 0
1, 106752, Note_on_c, 0, 77, 85
1, 106782, Note_on_c, 0, 77, 0
1, 106784, Note_on_c, 0, 72, 85
1, 106814, Note_on_c, 0, 72, 0
1, 106816, Note_on_c, 0, 69, 85
1, 106846, Note_on_c, 0, 69, 0
1, 106848, Note_on_c, 0, 77, 85
1, 106878, Note_on_c, 0, 77, 0
1, 106880, Note_on_c, 0, 72, 85
1, 106910, Note_on_c, 0, 72, 0
1, 106912, Note_on_c, 0, 69, 85
1, 106942, Note_on_c, 0, 69, 0
1, 106944, Note_on_c, 0, 76, 85
1, 106974, Note_on_c, 0, 76, 0
1, 106976, Note_on_c, 0, 71, 85
1, 107006, Note_on_c, 0, 71, 0
1, 107008, Note_on_c, 0, 68, 85
1, 107038, Note_on_c, 0, 68, 0
1, 107040, Note_on_c, 0, 76, 85
1, 107070, Note_on_c, 0, 76, 0
1, 107072, Note_on_c, 0, 71, 85
1, 107102, Note_on_c, 0, 71, 0
1, 107104, Note_on_c, 0, 68, 85
1, 107134, Note_on_c, 0, 68, 0
1, 107136, Note_on_c, 0, 75, 85
1, 107166, Note_on_c, 0, 75, 0
1, 107168, Note_on_c, 0, 69, 85
1, 107198, Note_on_c, 0, 69, 0
1, 107200, Note_on_c, 0, 66, 85
1, 107230, Note_on_c, 0, 66, 0
1, 107232, Note_on_c, 0, 75, 85
1, 107262, Note_on_c, 0, 75, 0
1, 107264, Note_on_c, 0, 69, 85
1, 107294, Note_on_c, 0, 69, 0
1, 107296, Note_on_c, 0, 66, 85
1, 107326, Note_on_c, 0, 66, 0
1, 107328, Note_on_c, 0, 74, 85
1, 107358, Note_on_c, 0, 74, 0
1, 107360, Note_on_c, 0, 71, 85
1, 107390, Note_on_c, 0, 71, 0
1, 107392, Note_on_c, 0, 68, 85
1, 107422, Note_on_c, 0, 68, 0
1, 107424, Note_on_c, 0, 74, 85
1, 107454, Note_on_c, 0, 74, 0
1, 107456, Note_on_c, 0, 71, 85
1, 107486, Note_on_c, 0, 71, 0
1, 107488, Note_on_c, 0, 68, 85
1, 107490, Note_on_c, 1, 52, 0
1, 107490, Note_on_c, 1, 40, 0
1, 107518, Note_on_c, 0, 68, 0
1, 107520, Note_on_c, 0, 72, 85
1, 107520, Note_on_c, 1, 57, 92
1, 107520, Note_on_c, 1, 45, 92
1, 107550, Note_on_c, 0, 72, 0
1, 107552, Note_on_c, 0, 69, 85
1, 107582, Note_on_c, 0, 69, 0
1, 107584, Note_on_c, 0, 64, 85
1, 107614, Note_on_c, 0, 64, 0
1, 107616, Note_on_c, 0, 72, 85
1, 107646, Note_on_c, 0, 72, 0
1, 107648, Note_on_c, 0, 69, 85
1, 107678, Note_on_c, 0, 69, 0
1, 107680, Note_on_c, 0, 64, 85
1, 107697, Note_on_c, 1, 57, 0
1, 107697, Note_on_c, 1, 45, 0
1, 107710, Note_on_c, 0, 64, 0
1, 107712, Note_on_c, 0, 69, 85
1, 107712, Note_on_c, 1, 48, 92
1, 107712, Note_on_c, 1, 36, 92
1, 107742, Note_on_c, 0, 69, 0
1, 107744, Note_on_c, 0, 64, 85
1, 107774, Note_on_c, 0, 64, 0
1, 107776, Note_on_c, 0, 60, 85
1, 107806, Note_on_c, 0, 60, 0
1, 107808, Note_on_c, 0, 69, 85
1, 107838, Note_on_c, 0, 69, 0
1, 107840, Note_on_c, 0, 64, 85
1, 107870, Note_on_c, 0, 64, 0
1, 107872, Note_on_c, 0, 60, 85
1, 107889, Note_on_c, 1, 48, 0
1, 107889, Note_on_c, 1, 36, 0
1, 107902, Note_on_c, 0, 60, 0
1, 107904, Note_on_c, 0, 70, 85
1, 107904, Note_on_c, 1, 50, 92
1, 107904, Note_on_c, 1, 38, 92
1, 107934, Note_on_c, 0, 70, 0
1, 107936, Note_on_c, 0, 65, 85
1, 107966, Note_on_c, 0, 65, 0
1, 107968, Note_on_c, 0, 62, 85
1, 107998, Note_on_c, 0, 62, 0
1, 108000, Note_on_c, 0, 70, 85
1, 108030, Note_on_c, 0, 70, 0
1, 108032, Note_on_c, 0, 65, 85
1, 108062, Note_on_c, 0, 65, 0
1, 108064, Note_on_c, 0, 62, 85
1, 108081, Note_on_c, 1, 50, 0
1, 108081, Note_on_c, 1, 38, 0
1, 108094, Note_on_c, 0, 62, 0
1, 108096, Note_on_c, 0, 68, 85
1, 108096, Note_on_c, 1, 52, 92
1, 108096, Note_on_c, 1, 40, 92
1, 108126, Note_on_c, 0, 68, 0
1, 108128, Note_on_c, 0, 62, 85
1, 108158, Note_on_c, 0, 62, 0
1, 108160, Note_on_c, 0, 59, 85
1, 108190, Note_on_c, 0, 59, 0
1, 108192, Note_on_c, 0, 68, 85
1, 108222, Note_on_c, 0, 68, 0
1, 108224, Note_on_c, 0, 62, 85
1, 108254, Note_on_c, 0, 62, 0
1, 108256, Note_on_c, 0, 59, 85
1, 108273, Note_on_c, 1, 52, 0
1, 108273, Note_on_c, 1, 40, 0
1, 108286, Note_on_c, 0, 59, 0
1, 108288, Note_on_c, 0, 67, 85
1, 108288, Note_on_c, 1, 45, 64
1, 108318, Note_on_c, 0, 67, 0
1, 108320, Note_on_c, 0, 64, 84
1, 108350, Note_on_c, 0, 64, 0
1, 108352, Note_on_c, 0, 61, 84
1, 108382, Note_on_c, 0, 61, 0
1, 108384, Note_on_c, 0, 67, 83
1, 108384, Note_on_c, 1, 49, 64
1, 108414, Note_on_c, 0, 67, 0
1, 108416, Note_on_c, 0, 64, 83
1, 108446, Note_on_c, 0, 64, 0
1, 108448, Note_on_c, 0, 61, 82
1, 108478, Note_on_c, 0, 61, 0
1, 108480, Note_on_c, 0, 67, 82
1, 108480, Note_on_c, 1, 52, 64
1, 108510, Note_on_c, 0, 67, 0
1, 108512, Note_on_c, 0, 64, 81
1, 108542, Note_on_c, 0, 64, 0
1, 108544, Note_on_c, 0, 61, 81
1, 108574, Note_on_c, 0, 61, 0
1, 108576, Note_on_c, 0, 67, 80
1, 108576, Note_on_c, 1, 55, 64
1, 108606, Note_on_c, 0, 67, 0
1, 108608, Note_on_c, 0, 64, 80
1, 108638, Note_on_c, 0, 64, 0
1, 108640, Note_on_c, 0, 61, 79
1, 108670, Note_on_c, 0, 61, 0
1, 108672, Tempo, 1000000
1, 108672, Note_on_c, 0, 58, 79
1, 108678, Note_on_c, 0, 61, 79
1, 108684, Note_on_c, 0, 64, 79
1, 108690, Note_on_c, 0, 67, 79
1, 108857, Note_on_c, 0, 67, 0
1, 108857, Note_on_c, 0, 64, 0
1, 108857, Note_on_c, 0, 61, 0
1, 108857, Note_on_c, 0, 58, 0
1, 108864, Note_on_c, 0, 65, 69
1, 108864, Note_on_c, 1, 57, 69
1, 108953, Note_on_c, 0, 65, 0
1, 108953, Note_on_c, 1, 57, 0
1, 108960, Note_on_c, 0, 64, 69
1, 108960, Note_on_c, 1, 55, 69
1, 109026, Note_on_c, 1, 55, 0
1, 109026, Note_on_c, 1, 52, 0
1, 109026, Note_on_c, 1, 49, 0
1, 109026, Note_on_c, 1, 45, 0
1, 109049, Note_on_c, 0, 64, 0
1, 109049, Note_on_c, 1, 55, 0
1, 109056, Tempo, 375000
1, 109056, Note_on_c, 0, 65, 85
1, 109056, Note_on_c, 1, 53, 85
1, 109056, Note_on_c, 1, 50, 85
1, 109086, Note_on_c, 0, 65, 0
1, 109088, Note_on_c, 0, 62, 85
1, 109118, Note_on_c, 0, 62, 0
1, 109120, Note_on_c, 0, 57, 85
1, 109150, Note_on_c, 0, 57, 0
1, 109152, Note_on_c, 0, 65, 85
1, 109182, Note_on_c, 0, 65, 0
1, 109184, Note_on_c, 0, 62, 85
1, 109214, Note_on_c, 0, 62, 0
1, 109216, Note_on_c, 0, 57, 85
1, 109246, Note_on_c, 0, 57, 0
1, 109248, Note_on_c, 0, 65, 85
1, 109278, Note_on_c, 0, 65, 0
1, 109280, Note_on_c, 0, 62, 85
1, 109310, Note_on_c, 0, 62, 0
1, 109312, Note_on_c, 0, 57, 85
1, 109321, Note_on_c, 1, 53, 0
1, 109321, Note_on_c, 1, 50, 0
1, 109342, Note_on_c, 0, 57, 0
1, 109344, Note_on_c, 0, 65, 85
1, 109344, Note_on_c, 1, 52, 85
1, 109344, Note_on_c, 1, 48, 85
1, 109374, Note_on_c, 0, 65, 0
1, 109376, Note_on_c, 0, 62, 85
1, 109406, Note_on_c, 0, 62, 0
1, 109408, Note_on_c, 0, 57, 85
1, 109433, Note_on_c, 1, 52, 0
1, 109433, Note_on_c, 1, 48, 0
1, 109438, Note_on_c, 0, 57, 0
1, 109440, Note_on_c, 0, 65, 85
1, 109440, Note_on_c, 1, 50, 85
1, 109440, Note_on_c, 1, 47, 85
1, 109470, Note_on_c, 0, 65, 0
1, 109472, Note_on_c, 0, 62, 85
1, 109502, Note_on_c, 0, 62, 0
1, 109504, Note_on_c, 0, 55, 85
1, 109534, Note_on_c, 0, 55, 0
1, 109536, Note_on_c, 0, 65, 85
1, 109566, Note_on_c, 0, 65, 0
1, 109568, Note_on_c, 0, 62, 85
1, 109598, Note_on_c, 0, 62, 0
1, 109600, Note_on_c, 0, 55, 85
1, 109630, Note_on_c, 0, 55, 0
1, 109632, Note_on_c, 0, 65, 85
1, 109662, Note_on_c, 0, 65, 0
1, 109664, Note_on_c, 0, 62, 85
1, 109694, Note_on_c, 0, 62, 0
1, 109696, Note_on_c, 0, 55, 85
1, 109705, Note_on_c, 1, 50, 0
1, 109705, Note_on_c, 1, 47, 0
1, 109726, Note_on_c, 0, 55, 0
1, 109728, Note_on_c, 0, 65, 85
1, 109728, Note_on_c, 1, 48, 85
1, 109728, Note_on_c, 1, 45, 85
1, 109758, Note_on_c, 0, 65, 0
1, 109760, Note_on_c, 0, 62, 85
1, 109790, Note_on_c, 0, 62, 0
1, 109792, Note_on_c, 0, 55, 85
1, 109817, Note_on_c, 1, 48, 0
1, 109817, Note_on_c, 1, 45, 0
1, 109822, Note_on_c, 0, 55, 0
1, 109824, Note_on_c, 0, 65, 85
1, 109824, Note_on_c, 0, 62, 85
1, 109824, Note_on_c, 0, 55, 85
1, 109824, Note_on_c, 1, 47, 69
1, 109824, Note_on_c, 1, 43, 69
1, 110089, Note_on_c, 0, 65, 0
1, 110089, Note_on_c, 0, 62, 0
1, 110089, Note_on_c, 0, 55, 0
1, 110112, Note_on_c, 0, 55, 69
1, 110184, Note_on_c, 0, 55, 0
1, 110184, Note_on_c, 0, 59, 69
1, 110207, Note_on_c, 0, 59, 0
1, 110208, Note_on_c, 0, 62, 69
1, 110247, Note_on_c, 0, 62, 0
1, 110304, Note_on_c, 0, 59, 69
1, 110376, Note_on_c, 0, 59, 0
1, 110376, Note_on_c, 0, 62, 70
1, 110399, Note_on_c, 0, 62, 0
1, 110400, Note_on_c, 0, 65, 70
1, 110439, Note_on_c, 0, 65, 0
1, 110496, Note_on_c, 0, 62, 71
1, 110562, Note_on_c, 1, 47, 0
1, 110562, Note_on_c, 1, 43, 0
1, 110568, Note_on_c, 0, 62, 0
1, 110568, Note_on_c, 0, 65, 72
1, 110591, Note_on_c, 0, 65, 0
1, 110592, Note_on_c, 0, 71, 72
1, 110631, Note_on_c, 0, 71, 0
1, 110688, Note_on_c, 0, 65, 73
1, 110760, Note_on_c, 0, 65, 0
1, 110760, Note_on_c, 0, 71, 73
1, 110783, Note_on_c, 0, 71, 0
1, 110784, Note_on_c, 0, 74, 74
1, 110823, Note_on_c, 0, 74, 0
1, 110880, Note_on_c, 0, 77, 74
1, 110903, Note_on_c, 0, 77, 0
1, 110904, Note_on_c, 0, 76, 73
1, 110927, Note_on_c, 0, 76, 0
1, 110928, Note_on_c, 0, 74, 73
1, 110951, Note_on_c, 0, 74, 0
1, 110952, Note_on_c, 0, 72, 73
1, 110975, Note_on_c, 0, 72, 0
1, 110976, Note_on_c, 0, 71, 73
1, 111015, Note_on_c, 0, 71, 0
1, 111072, Note_on_c, 0, 74, 72
1, 111095, Note_on_c, 0, 74, 0
1, 111096, Note_on_c, 0, 72, 71
1, 111119, Note_on_c, 0, 72, 0
1, 111120, Note_on_c, 0, 71, 71
1, 111143, Note_on_c, 0, 71, 0
1, 111144, Note_on_c, 0, 69, 71
1, 111167, Note_on_c, 0, 69, 0
1, 111168, Note_on_c, 0, 67, 71
1, 111207, Note_on_c, 0, 67, 0
1, 111264, Note_on_c, 0, 71, 70
1, 111287, Note_on_c, 0, 71, 0
1, 111288, Note_on_c, 0, 69, 69
1, 111311, Note_on_c, 0, 69, 0
1, 111312, Note_on_c, 0, 67, 69
1, 111335, Note_on_c, 0, 67, 0
1, 111336, Note_on_c, 0, 66, 69
1, 111359, Note_on_c, 0, 66, 0
1, 111360, Note_on_c, 0, 67, 69
1, 111360, Note_on_c, 1, 59, 74
1, 111360, Note_on_c, 1, 55, 74
1, 111390, Note_on_c, 0, 67, 0
1, 111392, Note_on_c, 0, 74, 69
1, 111422, Note_on_c, 0, 74, 0
1, 111424, Note_on_c, 0, 71, 69
1, 111454, Note_on_c, 0, 71, 0
1, 111456, Note_on_c, 0, 67, 69
1, 111486, Note_on_c, 0, 67, 0
1, 111488, Note_on_c, 0, 71, 69
1, 111518, Note_on_c, 0, 71, 0
1, 111520, Note_on_c, 0, 67, 69
1, 111550, Note_on_c, 0, 67, 0
1, 111552, Note_on_c, 0, 62, 69
1, 111582, Note_on_c, 0, 62, 0
1, 111584, Note_on_c, 0, 67, 69
1, 111614, Note_on_c, 0, 67, 0
1, 111616, Note_on_c, 0, 62, 69
1, 111646, Note_on_c, 0, 62, 0
1, 111648, Note_on_c, 0, 59, 69
1, 111678, Note_on_c, 0, 59, 0
1, 111680, Note_on_c, 0, 62, 69
1, 111710, Note_on_c, 0, 62, 0
1, 111712, Note_on_c, 0, 59, 69
1, 111714, Note_on_c, 1, 59, 0
1, 111714, Note_on_c, 1, 55, 0
1, 111742, Note_on_c, 0, 59, 0
1, 111744, Note_on_c, 0, 55, 69
1, 111833, Note_on_c, 0, 55, 0
1, 111840, Note_on_c, 0, 57, 70
1, 111885, Note_on_c, 0, 57, 0
1, 111888, Note_on_c, 0, 59, 70
1, 111933, Note_on_c, 0, 59, 0
1, 111936, Note_on_c, 0, 60, 71
1, 111981, Note_on_c, 0, 60, 0
1, 111984, Note_on_c, 0, 62, 72
1, 112029, Note_on_c, 0, 62, 0
1, 112032, Note_on_c, 0, 64, 72
1, 112077, Note_on_c, 0, 64, 0
1, 112080, Note_on_c, 0, 66, 73
1, 112125, Note_on_c, 0, 66, 0
1, 112128, Note_on_c, 0, 67, 85
1, 112128, Note_on_c, 1, 55, 85
1, 112148, Note_on_c, 0, 67, 0
1, 112148, Note_on_c, 1, 55, 0
1, 112176, Note_on_c, 0, 67, 85
1, 112176, Note_on_c, 1, 55, 85
1, 112221, Note_on_c, 0, 67, 0
1, 112221, Note_on_c, 1, 55, 0
1, 112224, Note_on_c, 0, 69, 85
1, 112224, Note_on_c, 1, 57, 85
1, 112269, Note_on_c, 0, 69, 0
1, 112269, Note_on_c, 1, 57, 0
1, 112272, Note_on_c, 0, 71, 85
1, 112272, Note_on_c, 1, 59, 85
1, 112317, Note_on_c, 0, 71, 0
1, 112317, Note_on_c, 1, 59, 0
1, 112320, Note_on_c, 0, 72, 85
1, 112320, Note_on_c, 1, 60, 85
1, 112365, Note_on_c, 0, 72, 0
1, 112365, Note_on_c, 1, 60, 0
1, 112368, Note_on_c, 0, 74, 85
1, 112368, Note_on_c, 1, 62, 85
1, 112413, Note_on_c, 0, 74, 0
1, 112413, Note_on_c, 1, 62, 0
1, 112416, Note_on_c, 0, 76, 85
1, 112416, Note_on_c, 1, 64, 85
1, 112461, Note_on_c, 0, 76, 0
1, 112461, Note_on_c, 1, 64, 0
1, 112464, Note_on_c, 0, 78, 85
1, 112464, Note_on_c, 1, 66, 85
1, 112509, Note_on_c, 0, 78, 0
1, 112509, Note_on_c, 1, 66, 0
1, 112512, Note_on_c, 0, 79, 85
1, 112512, Note_on_c, 1, 67, 85
1, 112530, Note_on_c, 0, 79, 0
1, 112530, Note_on_c, 0, 81, 85
1, 112548, Note_on_c, 0, 81, 0
1, 112548, Note_on_c, 0, 79, 85
1, 112566, Note_on_c, 0, 79, 0
1, 112566, Note_on_c, 0, 81, 85
1, 112584, Note_on_c, 0, 81, 0
1, 112584, Note_on_c, 0, 79, 85
1, 112602, Note_on_c, 0, 79, 0
1, 112602, Note_on_c, 0, 81, 85
1, 112620, Note_on_c, 0, 81, 0
1, 112620, Note_on_c, 0, 79, 85
1, 112638, Note_on_c, 0, 79, 0
1, 112638, Note_on_c, 0, 81, 85
1, 112656, Note_on_c, 0, 81, 0
1, 112656, Note_on_c, 0, 79, 85
1, 112674, Note_on_c, 0, 79, 0
1, 112674, Note_on_c, 0, 81, 85
1, 112692, Note_on_c, 0, 81, 0
1, 112692, Note_on_c, 0, 79, 85
1, 112710, Note_on_c, 0, 79, 0
1, 112710, Note_on_c, 0, 81, 85
1, 112728, Note_on_c, 0, 81, 0
1, 112728, Note_on_c, 0, 79, 85
1, 112746, Note_on_c, 0, 79, 0
1, 112746, Note_on_c, 0, 81, 85
1, 112764, Note_on_c, 0, 81, 0
1, 112764, Note_on_c, 0, 79, 85
1, 112777, Note_on_c, 0, 79, 0
1, 112777, Note_on_c, 1, 67, 0
1, 112800, Note_on_c, 0, 78, 85
1, 112845, Note_on_c, 0, 78, 0
1, 112848, Note_on_c, 0, 79, 85
1, 112893, Note_on_c, 0, 79, 0
1, 112896, Note_on_c, 0, 67, 85
1, 113206, Note_on_c, 0, 67, 0
1, 113568, Note_on_c, 0, 60, 79
1, 113635, Note_on_c, 0, 60, 0
1, 113640, Note_on_c, 0, 64, 79
1, 113663, Note_on_c, 0, 64, 0
1, 113664, Note_on_c, 0, 67, 79
1, 113664, Note_on_c, 1, 52, 74
1, 113664, Note_on_c, 1, 48, 74
1, 113703, Note_on_c, 0, 67, 0
1, 113703, Note_on_c, 1, 52, 0
1, 113703, Note_on_c, 1, 48, 0
1, 113760, Note_on_c, 0, 67, 79
1, 113799, Note_on_c, 0, 67, 0
1, 113856, Note_on_c, 0, 67, 79
1, 113895, Note_on_c, 0, 67, 0
1, 113952, Note_on_c, 0, 71, 85
1, 113964, Note_on_c, 0, 71, 0
1, 113964, Note_on_c, 0, 72, 85
1, 113991, Note_on_c, 0, 72, 0
1, 114048, Note_on_c, 0, 67, 79
1, 114048, Note_on_c, 1, 52, 74
1, 114048, Note_on_c, 1, 48, 74
1, 114087, Note_on_c, 0, 67, 0
1, 114087, Note_on_c, 1, 52, 0
1, 114087, Note_on_c, 1, 48, 0
1, 114144, Note_on_c, 0, 67, 79
1, 114183, Note_on_c, 0, 67, 0
1, 114240, Note_on_c, 0, 67, 79
1, 114279, Note_on_c, 0, 67, 0
1, 114336, Note_on_c, 0, 64, 79
1, 114403, Note_on_c, 0, 64, 0
1, 114408, Note_on_c, 0, 60, 79
1, 114431, Note_on_c, 0, 60, 0
1, 114432, Note_on_c, 0, 59, 79
1, 114432, Note_on_c, 1, 53, 74
1, 114432, Note_on_c, 1, 50, 74
1, 114432, Note_on_c, 1, 43, 74
1, 114471, Note_on_c, 0, 59, 0
1, 114471, Note_on_c, 1, 53, 0
1, 114471, Note_on_c, 1, 50, 0
1, 114471, Note_on_c, 1, 43, 0
1, 114528, Note_on_c, 0, 59, 80
1, 114528, Note_on_c, 1, 53, 75
1, 114528, Note_on_c, 1, 50, 75
1, 114528, Note_on_c, 1, 43, 75
1, 114567, Note_on_c, 0, 59, 0
1, 114567, Note_on_c, 1, 53, 0
1, 114567, Note_on_c, 1, 50, 0
1, 114567, Note_on_c, 1, 43, 0
1, 114624, Note_on_c, 0, 60, 82
1, 114624, Note_on_c, 1, 52, 76
1, 114624, Note_on_c, 1, 48, 76
1, 114624, Note_on_c, 1, 43, 76
1, 114663, Note_on_c, 0, 60, 0
1, 114663, Note_on_c, 1, 52, 0
1, 114663, Note_on_c, 1, 48, 0
1, 114663, Note_on_c, 1, 43, 0
1, 114720, Note_on_c, 0, 60, 83
1, 114720, Note_on_c, 1, 52, 77
1, 114720, Note_on_c, 1, 48, 77
1, 114720, Note_on_c, 1, 43, 77
1, 114759, Note_on_c, 0, 60, 0
1, 114759, Note_on_c, 1, 52, 0
1, 114759, Note_on_c, 1, 48, 0
1, 114759, Note_on_c, 1, 43, 0
1, 114816, Note_on_c, 0, 62, 85
1, 114816, Note_on_c, 1, 50, 79
1, 114816, Note_on_c, 1, 47, 79
1, 114816, Note_on_c, 1, 43, 79
1, 114905, Note_on_c, 0, 62, 0
1, 114905, Note_on_c, 1, 50, 0
1, 114905, Note_on_c, 1, 47, 0
1, 114905, Note_on_c, 1, 43, 0
1, 115104, Note_on_c, 0, 55, 79
1, 115171, Note_on_c, 0, 55, 0
1, 115176, Note_on_c, 0, 62, 79
1, 115199, Note_on_c, 0, 62, 0
1, 115200, Note_on_c, 0, 65, 79
1, 115200, Note_on_c, 1, 55, 74
1, 115200, Note_on_c, 1, 47, 74
1, 115239, Note_on_c, 0, 65, 0
1, 115239, Note_on_c, 1, 55, 0
1, 115239, Note_on_c, 1, 47, 0
1, 115296, Note_on_c, 0, 65, 79
1, 115368, Note_on_c, 0, 65, 0
1, 115368, Note_on_c, 0, 67, 80
1, 115391, Note_on_c, 0, 67, 0
1, 115392, Note_on_c, 0, 64, 80
1, 115392, Note_on_c, 1, 55, 74
1, 115392, Note_on_c, 1, 48, 74
1, 115431, Note_on_c, 0, 64, 0
1, 115431, Note_on_c, 1, 55, 0
1, 115431, Note_on_c, 1, 48, 0
1, 115488, Note_on_c, 0, 64, 82
1, 115560, Note_on_c, 0, 64, 0
1, 115560, Note_on_c, 0, 65, 83
1, 115583, Note_on_c, 0, 65, 0
1, 115584, Note_on_c, 0, 62, 84
1, 115584, Note_on_c, 1, 55, 74
1, 115584, Note_on_c, 1, 53, 74
1, 115623, Note_on_c, 0, 62, 0
1, 115623, Note_on_c, 1, 55, 0
1, 115623, Note_on_c, 1, 53, 0
1, 115680, Note_on_c, 0, 62, 84
1, 115752, Note_on_c, 0, 62, 0
1, 115752, Note_on_c, 0, 64, 82
1, 115775, Note_on_c, 0, 64, 0
1, 115776, Note_on_c, 0, 60, 82
1, 115776, Note_on_c, 1, 55, 74
1, 115776, Note_on_c, 1, 52, 74
1, 115815, Note_on_c, 0, 60, 0
1, 115815, Note_on_c, 1, 55, 0
1, 115815, Note_on_c, 1, 52, 0
1, 115872, Note_on_c, 0, 60, 80
1, 115911, Note_on_c, 0, 60, 0
1, 115968, Note_on_c, 0, 62, 79
1, 115968, Note_on_c, 1, 53, 74
1, 115968, Note_on_c, 1, 41, 74
1, 116007, Note_on_c, 0, 62, 0
1, 116007, Note_on_c, 1, 53, 0
1, 116007, Note_on_c, 1, 41, 0
1, 116064, Note_on_c, 0, 62, 79
1, 116064, Note_on_c, 1, 53, 74
1, 116064, Note_on_c, 1, 41, 74
1, 116103, Note_on_c, 0, 62, 0
1, 116103, Note_on_c, 1, 53, 0
1, 116103, Note_on_c, 1, 41, 0
1, 116160, Note_on_c, 0, 59, 79
1, 116160, Note_on_c, 1, 50, 74
1, 116160, Note_on_c, 1, 43, 74
1, 116199, Note_on_c, 0, 59, 0
1, 116199, Note_on_c, 1, 50, 0
1, 116199, Note_on_c, 1, 43, 0
1, 116256, Note_on_c, 0, 59, 79
1, 116256, Note_on_c, 1, 50, 74
1, 116256, Note_on_c, 1, 43, 74
1, 116295, Note_on_c, 0, 59, 0
1, 116295, Note_on_c, 1, 50, 0
1, 116295, Note_on_c, 1, 43, 0
1, 116352, Note_on_c, 1, 60, 74
1, 116382, Note_on_c, 1, 60, 0
1, 116384, Note_on_c, 1, 63, 74
1, 116414, Note_on_c, 1, 63, 0
1, 116416, Note_on_c, 1, 67, 74
1, 116446, Note_on_c, 1, 67, 0
1, 116448, Note_on_c, 1, 60, 74
1, 116478, Note_on_c, 1, 60, 0
1, 116480, Note_on_c, 1, 63, 74
1, 116510, Note_on_c, 1, 63, 0
1, 116512, Note_on_c, 1, 67, 74
1, 116542, Note_on_c, 1, 67, 0
1, 116544, Note_on_c, 1, 60, 74
1, 116574, Note_on_c, 1, 60, 0
1, 116576, Note_on_c, 1, 63, 74
1, 116606, Note_on_c, 1, 63, 0
1, 116608, Note_on_c, 1, 67, 74
1, 116638, Note_on_c, 1, 67, 0
1, 116640, Note_on_c, 0, 72, 85
1, 116640, Note_on_c, 1, 60, 74
1, 116663, Note_on_c, 0, 72, 0
1, 116664, Note_on_c, 0, 74, 85
1, 116670, Note_on_c, 1, 60, 0
1, 116672, Note_on_c, 1, 63, 74
1, 116687, Note_on_c, 0, 74, 0
1, 116688, Note_on_c, 0, 75, 85
1, 116702, Note_on_c, 1, 63, 0
1, 116704, Note_on_c, 1, 67, 74
1, 116711, Note_on_c, 0, 75, 0
1, 116712, Note_on_c, 0, 77, 85
1, 116734, Note_on_c, 1, 67, 0
1, 116735, Note_on_c, 0, 77, 0
1, 116736, Note_on_c, 0, 79, 85
1, 116736, Note_on_c, 1, 60, 74
1, 116766, Note_on_c, 1, 60, 0
1, 116768, Note_on_c, 1, 63, 74
1, 116775, Note_on_c, 0, 79, 0
1, 116798, Note_on_c, 1, 63, 0
1, 116800, Note_on_c, 1, 67, 74
1, 116830, Note_on_c, 1, 67, 0
1, 116832, Note_on_c, 0, 79, 85
1, 116832, Note_on_c, 1, 60, 74
1, 116862, Note_on_c, 1, 60, 0
1, 116864, Note_on_c, 1, 63, 74
1, 116871, Note_on_c, 0, 79, 0
1, 116894, Note_on_c, 1, 63, 0
1, 116896, Note_on_c, 1, 67, 74
1, 116926, Note_on_c, 1, 67, 0
1, 116928, Note_on_c, 0, 79, 85
1, 116928, Note_on_c, 1, 60, 74
1, 116958, Note_on_c, 1, 60, 0
1, 116960, Note_on_c, 1, 63, 74
1, 116967, Note_on_c, 0, 79, 0
1, 116990, Note_on_c, 1, 63, 0
1, 116992, Note_on_c, 1, 67, 74
1, 117022, Note_on_c, 1, 67, 0
1, 117024, Note_on_c, 0, 83, 85
1, 117024, Note_on_c, 1, 60, 74
1, 117036, Note_on_c, 0, 83, 0
1, 117036, Note_on_c, 0, 84, 85
1, 117054, Note_on_c, 1, 60, 0
1, 117056, Note_on_c, 1, 63, 74
1, 117063, Note_on_c, 0, 84, 0
1, 117086, Note_on_c, 1, 63, 0
1, 117088, Note_on_c, 1, 67, 74
1, 117118, Note_on_c, 1, 67, 0
1, 117120, Note_on_c, 0, 79, 85
1, 117120, Note_on_c, 1, 60, 74
1, 117150, Note_on_c, 1, 60, 0
1, 117152, Note_on_c, 1, 63, 74
1, 117159, Note_on_c, 0, 79, 0
1, 117182, Note_on_c, 1, 63, 0
1, 117184, Note_on_c, 1, 67, 74
1, 117214, Note_on_c, 1, 67, 0
1, 117216, Note_on_c, 0, 79, 85
1, 117216, Note_on_c, 1, 60, 74
1, 117246, Note_on_c, 1, 60, 0
1, 117248, Note_on_c, 1, 63, 74
1, 117255, Note_on_c, 0, 79, 0
1, 117278, Note_on_c, 1, 63, 0
1, 117280, Note_on_c, 1, 67, 74
1, 117310, Note_on_c, 1, 67, 0
1, 117312, Note_on_c, 0, 79, 85
1, 117312, Note_on_c, 1, 60, 74
1, 117342, Note_on_c, 1, 60, 0
1, 117344, Note_on_c, 1, 63, 74
1, 117351, Note_on_c, 0, 79, 0
1, 117374, Note_on_c, 1, 63, 0
1, 117376, Note_on_c, 1, 67, 74
1, 117406, Note_on_c, 1, 67, 0
1, 117408, Note_on_c, 0, 72, 85
1, 117408, Note_on_c, 1, 60, 74
1, 117431, Note_on_c, 0, 72, 0
1, 117432, Note_on_c, 0, 74, 85
1, 117438, Note_on_c, 1, 60, 0
1, 117440, Note_on_c, 1, 63, 74
1, 117455, Note_on_c, 0, 74, 0
1, 117456, Note_on_c, 0, 76, 85
1, 117470, Note_on_c, 1, 63, 0
1, 117472, Note_on_c, 1, 67, 74
1, 117479, Note_on_c, 0, 76, 0
1, 117480, Note_on_c, 0, 77, 85
1, 117502, Note_on_c, 1, 67, 0
1, 117503, Note_on_c, 0, 77, 0
1, 117504, Note_on_c, 0, 79, 85
1, 117504, Note_on_c, 1, 58, 74
1, 117534, Note_on_c, 1, 58, 0
1, 117536, Note_on_c, 1, 64, 74
1, 117543, Note_on_c, 0, 79, 0
1, 117566, Note_on_c, 1, 64, 0
1, 117568, Note_on_c, 1, 67, 74
1, 117598, Note_on_c, 1, 67, 0
1, 117600, Note_on_c, 0, 79, 85
1, 117600, Note_on_c, 1, 58, 74
1, 117630, Note_on_c, 1, 58, 0
1, 117632, Note_on_c, 1, 64, 74
1, 117639, Note_on_c, 0, 79, 0
1, 117662, Note_on_c, 1, 64, 0
1, 117664, Note_on_c, 1, 67, 74
1, 117694, Note_on_c, 1, 67, 0
1, 117696, Note_on_c, 0, 79, 85
1, 117696, Note_on_c, 1, 58, 74
1, 117726, Note_on_c, 1, 58, 0
1, 117728, Note_on_c, 1, 64, 74
1, 117735, Note_on_c, 0, 79, 0
1, 117758, Note_on_c, 1, 64, 0
1, 117760, Note_on_c, 1, 67, 74
1, 117790, Note_on_c, 1, 67, 0
1, 117792, Note_on_c, 0, 83, 85
1, 117792, Note_on_c, 1, 58, 74
1, 117804, Note_on_c, 0, 83, 0
1, 117804, Note_on_c, 0, 84, 85
1, 117822, Note_on_c, 1, 58, 0
1, 117824, Note_on_c, 1, 64, 74
1, 117831, Note_on_c, 0, 84, 0
1, 117854, Note_on_c, 1, 64, 0
1, 117856, Note_on_c, 1, 67, 74
1, 117886, Note_on_c, 1, 67, 0
1, 117888, Note_on_c, 0, 79, 85
1, 117888, Note_on_c, 1, 58, 74
1, 117918, Note_on_c, 1, 58, 0
1, 117920, Note_on_c, 1, 64, 74
1, 117927, Note_on_c, 0, 79, 0
1, 117950, Note_on_c, 1, 64, 0
1, 117952, Note_on_c, 1, 67, 74
1, 117982, Note_on_c, 1, 67, 0
1, 117984, Note_on_c, 0, 79, 85
1, 117984, Note_on_c, 1, 58, 74
1, 118014, Note_on_c, 1, 58, 0
1, 118016, Note_on_c, 1, 64, 74
1, 118023, Note_on_c, 0, 79, 0
1, 118046, Note_on_c, 1, 64, 0
1, 118048, Note_on_c, 1, 67, 74
1, 118078, Note_on_c, 1, 67, 0
1, 118080, Note_on_c, 0, 79, 85
1, 118080, Note_on_c, 1, 58, 74
1, 118110, Note_on_c, 1, 58, 0
1, 118112, Note_on_c, 1, 64, 74
1, 118119, Note_on_c, 0, 79, 0
1, 118142, Note_on_c, 1, 64, 0
1, 118144, Note_on_c, 1, 67, 74
1, 118174, Note_on_c, 1, 67, 0
1, 118176, Note_on_c, 0, 73, 85
1, 118176, Note_on_c, 1, 58, 74
1, 118199, Note_on_c, 0, 73, 0
1, 118200, Note_on_c, 0, 74, 85
1, 118206, Note_on_c, 1, 58, 0
1, 118208, Note_on_c, 1, 64, 74
1, 118223, Note_on_c, 0, 74, 0
1, 118224, Note_on_c, 0, 76, 85
1, 118238, Note_on_c, 1, 64, 0
1, 118240, Note_on_c, 1, 67, 74
1, 118247, Note_on_c, 0, 76, 0
1, 118248, Note_on_c, 0, 77, 85
1, 118270, Note_on_c, 1, 67, 0
1, 118271, Note_on_c, 0, 77, 0
1, 118272, Note_on_c, 0, 79, 85
1, 118272, Note_on_c, 1, 57, 74
1, 118302, Note_on_c, 1, 57, 0
1, 118304, Note_on_c, 1, 64, 74
1, 118311, Note_on_c, 0, 79, 0
1, 118334, Note_on_c, 1, 64, 0
1, 118336, Note_on_c, 1, 67, 74
1, 118366, Note_on_c, 1, 67, 0
1, 118368, Note_on_c, 0, 79, 85
1, 118368, Note_on_c, 1, 57, 74
1, 118398, Note_on_c, 1, 57, 0
1, 118400, Note_on_c, 1, 64, 74
1, 118407, Note_on_c, 0, 79, 0
1, 118430, Note_on_c, 1, 64, 0
1, 118432, Note_on_c, 1, 67, 74
1, 118462, Note_on_c, 1, 67, 0
1, 118464, Note_on_c, 0, 79, 85
1, 118464, Note_on_c, 1, 57, 74
1, 118494, Note_on_c, 1, 57, 0
1, 118496, Note_on_c, 1, 64, 74
1, 118503, Note_on_c, 0, 79, 0
1, 118526, Note_on_c, 1, 64, 0
1, 118528, Note_on_c, 1, 67, 74
1, 118558, Note_on_c, 1, 67, 0
1, 118560, Note_on_c, 0, 79, 85
1, 118560, Note_on_c, 1, 57, 74
1, 118590, Note_on_c, 0, 79, 0
1, 118590, Note_on_c, 1, 57, 0
1, 118592, Note_on_c, 0, 85, 85
1, 118592, Note_on_c, 1, 64, 74
1, 118622, Note_on_c, 0, 85, 0
1, 118622, Note_on_c, 1, 64, 0
1, 118624, Note_on_c, 0, 88, 85
1, 118624, Note_on_c, 1, 67, 74
1, 118654, Note_on_c, 0, 88, 0
1, 118654, Note_on_c, 1, 67, 0
1, 118656, Note_on_c, 0, 77, 85
1, 118656, Note_on_c, 1, 57, 74
1, 118686, Note_on_c, 1, 57, 0
1, 118688, Note_on_c, 1, 62, 74
1, 118695, Note_on_c, 0, 77, 0
1, 118718, Note_on_c, 1, 62, 0
1, 118720, Note_on_c, 1, 65, 74
1, 118750, Note_on_c, 1, 65, 0
1, 118752, Note_on_c, 0, 77, 85
1, 118752, Note_on_c, 1, 57, 74
1, 118782, Note_on_c, 1, 57, 0
1, 118784, Note_on_c, 1, 62, 74
1, 118791, Note_on_c, 0, 77, 0
1, 118814, Note_on_c, 1, 62, 0
1, 118816, Note_on_c, 1, 65, 74
1, 118846, Note_on_c, 1, 65, 0
1, 118848, Note_on_c, 0, 77, 85
1, 118848, Note_on_c, 1, 57, 74
1, 118878, Note_on_c, 1, 57, 0
1, 118880, Note_on_c, 1, 62, 74
1, 118887, Note_on_c, 0, 77, 0
1, 118910, Note_on_c, 1, 62, 0
1, 118912, Note_on_c, 1, 65, 74
1, 118942, Note_on_c, 1, 65, 0
1, 118944, Note_on_c, 0, 77, 85
1, 118944, Note_on_c, 1, 57, 74
1, 118974, Note_on_c, 0, 77, 0
1, 118974, Note_on_c, 1, 57, 0
1, 118976, Note_on_c, 0, 81, 85
1, 118976, Note_on_c, 1, 62, 74
1, 119006, Note_on_c, 0, 81, 0
1, 119006, Note_on_c, 1, 62, 0
1, 119008, Note_on_c, 0, 86, 85
1, 119008, Note_on_c, 1, 65, 74
1, 119038, Note_on_c, 0, 86, 0
1, 119038, Note_on_c, 1, 65, 0
1, 119040, Note_on_c, 0, 77, 85
1, 119040, Note_on_c, 1, 55, 74
1, 119070, Note_on_c, 1, 55, 0
1, 119072, Note_on_c, 1, 59, 74
1, 119079, Note_on_c, 0, 77, 0
1, 119102, Note_on_c, 1, 59, 0
1, 119104, Note_on_c, 1, 62, 74
1, 119134, Note_on_c, 1, 62, 0
1, 119136, Note_on_c, 0, 77, 85
1, 119136, Note_on_c, 1, 55, 74
1, 119166, Note_on_c, 1, 55, 0
1, 119168, Note_on_c, 1, 59, 74
1, 119198, Note_on_c, 1, 59, 0
1, 119200, Note_on_c, 1, 62, 74
1, 119203, Note_on_c, 0, 77, 0
1, 119208, Note_on_c, 0, 79, 85
1, 119230, Note_on_c, 1, 62, 0
1, 119231, Note_on_c, 0, 79, 0
1, 119232, Note_on_c, 0, 76, 85
1, 119232, Note_on_c, 1, 55, 74
1, 119262, Note_on_c, 1, 55, 0
1, 119264, Note_on_c, 1, 60, 74
1, 119271, Note_on_c, 0, 76, 0
1, 119294, Note_on_c, 1, 60, 0
1, 119296, Note_on_c, 1, 64, 74
1, 119326, Note_on_c, 1, 64, 0
1, 119328, Note_on_c, 0, 76, 85
1, 119328, Note_on_c, 1, 55, 74
1, 119358, Note_on_c, 1, 55, 0
1, 119360, Note_on_c, 1, 60, 74
1, 119390, Note_on_c, 1, 60, 0
1, 119392, Note_on_c, 1, 64, 74
1, 119395, Note_on_c, 0, 76, 0
1, 119400, Note_on_c, 0, 77, 85
1, 119422, Note_on_c, 1, 64, 0
1, 119423, Note_on_c, 0, 77, 0
1, 119424, Note_on_c, 0, 74, 85
1, 119424, Note_on_c, 1, 55, 74
1, 119454, Note_on_c, 1, 55, 0
1, 119456, Note_on_c, 1, 62, 74
1, 119463, Note_on_c, 0, 74, 0
1, 119486, Note_on_c, 1, 62, 0
1, 119488, Note_on_c, 1, 65, 74
1, 119518, Note_on_c, 1, 65, 0
1, 119520, Note_on_c, 0, 74, 85
1, 119520, Note_on_c, 1, 55, 74
1, 119550, Note_on_c, 1, 55, 0
1, 119552, Note_on_c, 1, 62, 74
1, 119582, Note_on_c, 1, 62, 0
1, 119584, Note_on_c, 1, 65, 74
1, 119587, Note_on_c, 0, 74, 0
1, 119592, Note_on_c, 0, 76, 85
1, 119614, Note_on_c, 1, 65, 0
1, 119615, Note_on_c, 0, 76, 0
1, 119616, Note_on_c, 0, 72, 85
1, 119616, Note_on_c, 1, 55, 74
1, 119646, Note_on_c, 1, 55, 0
1, 119648, Note_on_c, 1, 60, 74
1, 119655, Note_on_c, 0, 72, 0
1, 119678, Note_on_c, 1, 60, 0
1, 119680, Note_on_c, 1, 64, 74
1, 119710, Note_on_c, 1, 64, 0
1, 119712, Note_on_c, 0, 72, 85
1, 119712, Note_on_c, 1, 55, 74
1, 119742, Note_on_c, 0, 72, 0
1, 119742, Note_on_c, 1, 55, 0
1, 119744, Note_on_c, 0, 76, 85
1, 119744, Note_on_c, 1, 60, 74
1, 119774, Note_on_c, 0, 76, 0
1, 119774, Note_on_c, 1, 60, 0
1, 119776, Note_on_c, 0, 79, 85
1, 119776, Note_on_c, 1, 64, 74
1, 119806, Note_on_c, 0, 79, 0
1, 119806, Note_on_c, 1, 64, 0
1, 119808, Note_on_c, 0, 77, 85
1, 119808, Note_on_c, 1, 55, 74
1, 119828, Note_on_c, 0, 77, 0
1, 119838, Note_on_c, 1, 55, 0
1, 119840, Note_on_c, 1, 59, 74
1, 119856, Note_on_c, 0, 79, 85
1, 119870, Note_on_c, 1, 59, 0
1, 119871, Note_on_c, 0, 79, 0
1, 119872, Note_on_c, 0, 77, 85
1, 119872, Note_on_c, 1, 62, 74
1, 119887, Note_on_c, 0, 77, 0
1, 119888, Note_on_c, 0, 76, 85
1, 119902, Note_on_c, 1, 62, 0
1, 119903, Note_on_c, 0, 76, 0
1, 119904, Note_on_c, 0, 77, 85
1, 119904, Note_on_c, 1, 55, 74
1, 119934, Note_on_c, 1, 55, 0
1, 119936, Note_on_c, 1, 59, 75
1, 119966, Note_on_c, 1, 59, 0
1, 119968, Note_on_c, 1, 62, 75
1, 119971, Note_on_c, 0, 77, 0
1, 119976, Note_on_c, 0, 79, 86
1, 119998, Note_on_c, 1, 62, 0
1, 119999, Note_on_c, 0, 79, 0
1, 120000, Note_on_c, 0, 76, 86
1, 120000, Note_on_c, 1, 55, 76
1, 120020, Note_on_c, 0, 76, 0
1, 120030, Note_on_c, 1, 55, 0
1, 120032, Note_on_c, 1, 60, 76
1, 120048, Note_on_c, 0, 77, 86
1, 120062, Note_on_c, 1, 60, 0
1, 120063, Note_on_c, 0, 77, 0
1, 120064, Note_on_c, 0, 76, 86
1, 120064, Note_on_c, 1, 64, 77
1, 120079, Note_on_c, 0, 76, 0
1, 120080, Note_on_c, 0, 74, 86
1, 120094, Note_on_c, 1, 64, 0
1, 120095, Note_on_c, 0, 74, 0
1, 120096, Note_on_c, 0, 76, 87
1, 120096, Note_on_c, 1, 55, 77
1, 120126, Note_on_c, 1, 55, 0
1, 120128, Note_on_c, 1, 60, 78
1, 120158, Note_on_c, 1, 60, 0
1, 120160, Note_on_c, 1, 64, 78
1, 120163, Note_on_c, 0, 76, 0
1, 120168, Note_on_c, 0, 77, 87
1, 120190, Note_on_c, 1, 64, 0
1, 120191, Note_on_c, 0, 77, 0
1, 120192, Note_on_c, 0, 74, 88
1, 120192, Note_on_c, 1, 55, 78
1, 120212, Note_on_c, 0, 74, 0
1, 120222, Note_on_c, 1, 55, 0
1, 120224, Note_on_c, 1, 62, 79
1, 120240, Note_on_c, 0, 76, 88
1, 120254, Note_on_c, 1, 62, 0
1, 120255, Note_on_c, 0, 76, 0
1, 120256, Note_on_c, 0, 74, 88
1, 120256, Note_on_c, 1, 65, 79
1, 120271, Note_on_c, 0, 74, 0
1, 120272, Note_on_c, 0, 72, 88
1, 120286, Note_on_c, 1, 65, 0
1, 120287, Note_on_c, 0, 72, 0
1, 120288, Note_on_c, 0, 74, 88
1, 120288, Note_on_c, 1, 55, 80
1, 120318, Note_on_c, 1, 55, 0
1, 120320, Note_on_c, 1, 62, 80
1, 120350, Note_on_c, 1, 62, 0
1, 120352, Note_on_c, 1, 65, 81
1, 120355, Note_on_c, 0, 74, 0
1, 120360, Note_on_c, 0, 76, 89
1, 120382, Note_on_c, 1, 65, 0
1, 120383, Note_on_c, 0, 76, 0
1, 120384, Note_on_c, 0, 72, 89
1, 120384, Note_on_c, 1, 55, 81
1, 120404, Note_on_c, 0, 72, 0
1, 120414, Note_on_c, 1, 55, 0
1, 120416, Note_on_c, 1, 60, 82
1, 120432, Note_on_c, 0, 74, 90
1, 120446, Note_on_c, 1, 60, 0
1, 120447, Note_on_c, 0, 74, 0
1, 120448, Note_on_c, 0, 72, 90
1, 120448, Note_on_c, 1, 64, 82
1, 120463, Note_on_c, 0, 72, 0
1, 120464, Note_on_c, 0, 71, 90
1, 120478, Note_on_c, 1, 64, 0
1, 120479, Note_on_c, 0, 71, 0
1, 120480, Note_on_c, 0, 72, 90
1, 120480, Note_on_c, 1, 55, 82
1, 120510, Note_on_c, 1, 55, 0
1, 120512, Note_on_c, 1, 60, 83
1, 120542, Note_on_c, 1, 60, 0
1, 120544, Note_on_c, 1, 64, 83
1, 120547, Note_on_c, 0, 72, 0
1, 120552, Note_on_c, 0, 74, 91
1, 120574, Note_on_c, 1, 64, 0
1, 120575, Note_on_c, 0, 74, 0
1, 120576, Note_on_c, 0, 71, 92
1, 120576, Note_on_c, 1, 55, 85
1, 120665, Note_on_c, 0, 71, 0
1, 120665, Note_on_c, 1, 55, 0
1, 120744, Note_on_c, 0, 67, 92
1, 120744, Note_on_c, 1, 55, 85
1, 120767, Note_on_c, 0, 67, 0
1, 120767, Note_on_c, 1, 55, 0
1, 120768, Note_on_c, 0, 71, 92
1, 120768, Note_on_c, 1, 59, 85
1, 120835, Note_on_c, 0, 71, 0
1, 120835, Note_on_c, 1, 59, 0
1, 120840, Note_on_c, 0, 67, 92
1, 120840, Note_on_c, 1, 55, 85
1, 120863, Note_on_c, 0, 67, 0
1, 120863, Note_on_c, 1, 55, 0
1, 120864, Note_on_c, 0, 74, 92
1, 120864, Note_on_c, 1, 62, 85
1, 120931, Note_on_c, 0, 74, 0
1, 120931, Note_on_c, 1, 62, 0
1, 120936, Note_on_c, 0, 71, 92
1, 120936, Note_on_c, 1, 59, 85
1, 120959, Note_on_c, 0, 71, 0
1, 120959, Note_on_c, 1, 59, 0
1, 120960, Note_on_c, 0, 79, 92
1, 120960, Note_on_c, 1, 67, 85
1, 120960, Note_on_c, 1, 67, 64
1, 121049, Note_on_c, 0, 79, 0
1, 121049, Note_on_c, 1, 67, 0
1, 121049, Note_on_c, 1, 67, 0
1, 121128, Note_on_c, 0, 55, 92
1, 121128, Note_on_c, 1, 43, 64
1, 121151, Note_on_c, 0, 55, 0
1, 121151, Note_on_c, 1, 43, 0
1, 121152, Note_on_c, 0, 59, 92
1, 121152, Note_on_c, 1, 47, 64
1, 121182, Note_on_c, 0, 59, 0
1, 121182, Note_on_c, 1, 47, 0
1, 121184, Note_on_c, 0, 55, 92
1, 121184, Note_on_c, 1, 43, 64
1, 121214, Note_on_c, 0, 55, 0
1, 121214, Note_on_c, 1, 43, 0
1, 121216, Note_on_c, 0, 59, 92
1, 121216, Note_on_c, 1, 47, 64
1, 121246, Note_on_c, 0, 59, 0
1, 121246, Note_on_c, 1, 47, 0
1, 121248, Note_on_c, 0, 62, 92
1, 121248, Note_on_c, 1, 50, 64
1, 121278, Note_on_c, 0, 62, 0
1, 121278, Note_on_c, 1, 50, 0
1, 121280, Note_on_c, 0, 59, 92
1, 121280, Note_on_c, 1, 47, 64
1, 121310, Note_on_c, 0, 59, 0
1, 121310, Note_on_c, 1, 47, 0
1, 121312, Note_on_c, 0, 62, 92
1, 121312, Note_on_c, 1, 50, 64
1, 121342, Note_on_c, 0, 62, 0
1, 121342, Note_on_c, 1, 50, 0
1, 121344, Note_on_c, 0, 67, 92
1, 121344, Note_on_c, 1, 55, 64
1, 121433, Note_on_c, 0, 67, 0
1, 121433, Note_on_c, 1, 55, 0
1, 121536, Note_on_c, 0, 43, 92
1, 121536, Note_on_c, 1, 31, 64
1, 121594, Note_on_c, 0, 43, 0
1, 121594, Note_on_c, 1, 31, 0
1, 121680, Note_on_c, 0, 43, 92
1, 121680, Note_on_c, 1, 31, 64
1, 121700, Note_on_c, 0, 43, 0
1, 121700, Note_on_c, 1, 31, 0
1, 121728, Note_on_c, 0, 43, 92
1, 121728, Note_on_c, 1, 31, 64
1, 121817, Note_on_c, 0, 43, 0
1, 121817, Note_on_c, 1, 31, 0
1, 122112, Note_on_c, 1, 52, 69
1, 122142, Note_on_c, 1, 52, 0
1, 122144, Note_on_c, 1, 55, 69
1, 122174, Note_on_c, 1, 55, 0
1, 122176, Note_on_c, 1, 60, 69
1, 122206, Note_on_c, 1, 60, 0
1, 122208, Note_on_c, 1, 52, 69
1, 122238, Note_on_c, 1, 52, 0
1, 122240, Note_on_c, 1, 55, 69
1, 122270, Note_on_c, 1, 55, 0
1, 122272, Note_on_c, 1, 60, 69
1, 122302, Note_on_c, 1, 60, 0
1, 122304, Note_on_c, 1, 52, 69
1, 122334, Note_on_c, 1, 52, 0
1, 122336, Note_on_c, 1, 55, 69
1, 122366, Note_on_c, 1, 55, 0
1, 122368, Note_on_c, 1, 60, 69
1, 122398, Note_on_c, 1, 60, 0
1, 122400, Note_on_c, 0, 69, 79
1, 122400, Note_on_c, 1, 53, 69
1, 122423, Note_on_c, 0, 69, 0
1, 122424, Note_on_c, 0, 67, 79
1, 122430, Note_on_c, 1, 53, 0
1, 122432, Note_on_c, 1, 55, 69
1, 122447, Note_on_c, 0, 67, 0
1, 122448, Note_on_c, 0, 66, 79
1, 122462, Note_on_c, 1, 55, 0
1, 122464, Note_on_c, 1, 59, 69
1, 122471, Note_on_c, 0, 66, 0
1, 122472, Note_on_c, 0, 67, 79
1, 122494, Note_on_c, 1, 59, 0
1, 122496, Note_on_c, 0, 67, 0
1, 122496, Note_on_c, 0, 72, 79
1, 122496, Note_on_c, 1, 52, 69
1, 122526, Note_on_c, 1, 52, 0
1, 122528, Note_on_c, 1, 55, 69
1, 122535, Note_on_c, 0, 72, 0
1, 122558, Note_on_c, 1, 55, 0
1, 122560, Note_on_c, 1, 60, 69
1, 122590, Note_on_c, 1, 60, 0
1, 122592, Note_on_c, 0, 72, 79
1, 122592, Note_on_c, 1, 52, 69
1, 122622, Note_on_c, 1, 52, 0
1, 122624, Note_on_c, 1, 55, 69
1, 122631, Note_on_c, 0, 72, 0
1, 122654, Note_on_c, 1, 55, 0
1, 122656, Note_on_c, 1, 60, 69
1, 122686, Note_on_c, 1, 60, 0
1, 122688, Note_on_c, 1, 52, 69
1, 122718, Note_on_c, 1, 52, 0
1, 122720, Note_on_c, 1, 55, 69
1, 122750, Note_on_c, 1, 55, 0
1, 122752, Note_on_c, 1, 60, 69
1, 122782, Note_on_c, 1, 60, 0
1, 122784, Note_on_c, 0, 69, 79
1, 122784, Note_on_c, 1, 53, 69
1, 122807, Note_on_c, 0, 69, 0
1, 122808, Note_on_c, 0, 67, 79
1, 122814, Note_on_c, 1, 53, 0
1, 122816, Note_on_c, 1, 55, 69
1, 122831, Note_on_c, 0, 67, 0
1, 122832, Note_on_c, 0, 66, 79
1, 122846, Note_on_c, 1, 55, 0
1, 122848, Note_on_c, 1, 59, 69
1, 122855, Note_on_c, 0, 66, 0
1, 122856, Note_on_c, 0, 67, 79
1, 122878, Note_on_c, 1, 59, 0
1, 122880, Note_on_c, 0, 67, 0
1, 122880, Note_on_c, 0, 72, 79
1, 122880, Note_on_c, 1, 52, 69
1, 122910, Note_on_c, 1, 52, 0
1, 122912, Note_on_c, 1, 55, 69
1, 122919, Note_on_c, 0, 72, 0
1, 122942, Note_on_c, 1, 55, 0
1, 122944, Note_on_c, 1, 60, 69
1, 122974, Note_on_c, 1, 60, 0
1, 122976, Note_on_c, 0, 72, 79
1, 122976, Note_on_c, 1, 52, 69
1, 123006, Note_on_c, 1, 52, 0
1, 123008, Note_on_c, 1, 55, 69
1, 123015, Note_on_c, 0, 72, 0
1, 123038, Note_on_c, 1, 55, 0
1, 123040, Note_on_c, 1, 60, 69
1, 123070, Note_on_c, 1, 60, 0
1, 123072, Note_on_c, 1, 52, 69
1, 123102, Note_on_c, 1, 52, 0
1, 123104, Note_on_c, 1, 55, 69
1, 123134, Note_on_c, 1, 55, 0
1, 123136, Note_on_c, 1, 60, 69
1, 123166, Note_on_c, 1, 60, 0
1, 123168, Note_on_c, 0, 69, 79
1, 123168, Note_on_c, 1, 53, 69
1, 123191, Note_on_c, 0, 69, 0
1, 123192, Note_on_c, 0, 67, 79
1, 123198, Note_on_c, 1, 53, 0
1, 123200, Note_on_c, 1, 55, 69
1, 123215, Note_on_c, 0, 67, 0
1, 123216, Note_on_c, 0, 66, 79
1, 123230, Note_on_c, 1, 55, 0
1, 123232, Note_on_c, 1, 59, 69
1, 123239, Note_on_c, 0, 66, 0
1, 123240, Note_on_c, 0, 67, 79
1, 123262, Note_on_c, 1, 59, 0
1, 123264, Note_on_c, 0, 67, 0
1, 123264, Note_on_c, 0, 72, 79
1, 123264, Note_on_c, 1, 52, 69
1, 123294, Note_on_c, 1, 52, 0
1, 123296, Note_on_c, 1, 55, 69
1, 123303, Note_on_c, 0, 72, 0
1, 123326, Note_on_c, 1, 55, 0
1, 123328, Note_on_c, 1, 60, 69
1, 123358, Note_on_c, 1, 60, 0
1, 123360, Note_on_c, 0, 74, 79
1, 123360, Note_on_c, 1, 52, 69
1, 123384, Note_on_c, 0, 74, 0
1, 123384, Note_on_c, 0, 72, 79
1, 123390, Note_on_c, 1, 52, 0
1, 123392, Note_on_c, 1, 55, 69
1, 123408, Note_on_c, 0, 72, 0
1, 123408, Note_on_c, 0, 71, 79
1, 123422, Note_on_c, 1, 55, 0
1, 123424, Note_on_c, 1, 60, 69
1, 123432, Note_on_c, 0, 71, 0
1, 123432, Note_on_c, 0, 72, 79
1, 123454, Note_on_c, 1, 60, 0
1, 123456, Note_on_c, 0, 72, 0
1, 123456, Note_on_c, 0, 74, 79
1, 123456, Note_on_c, 1, 47, 69
1, 123486, Note_on_c, 1, 47, 0
1, 123488, Note_on_c, 1, 50, 69
1, 123495, Note_on_c, 0, 74, 0
1, 123518, Note_on_c, 1, 50, 0
1, 123520, Note_on_c, 1, 55, 70
1, 123550, Note_on_c, 1, 55, 0
1, 123552, Note_on_c, 0, 76, 80
1, 123552, Note_on_c, 1, 47, 70
1, 123576, Note_on_c, 0, 76, 0
1, 123576, Note_on_c, 0, 74, 80
1, 123582, Note_on_c, 1, 47, 0
1, 123584, Note_on_c, 1, 50, 71
1, 123600, Note_on_c, 0, 74, 0
1, 123600, Note_on_c, 0, 72, 80
1, 123614, Note_on_c, 1, 50, 0
1, 123616, Note_on_c, 1, 55, 71
1, 123624, Note_on_c, 0, 72, 0
1, 123624, Note_on_c, 0, 74, 80
1, 123646, Note_on_c, 1, 55, 0
1, 123648, Note_on_c, 0, 74, 0
1, 123648, Note_on_c, 0, 76, 80
1, 123648, Note_on_c, 1, 48, 72
1, 123678, Note_on_c, 1, 48, 0
1, 123680, Note_on_c, 1, 52, 72
1, 123687, Note_on_c, 0, 76, 0
1, 123710, Note_on_c, 1, 52, 0
1, 123712, Note_on_c, 1, 55, 73
1, 123742, Note_on_c, 1, 55, 0
1, 123744, Note_on_c, 0, 77, 81
1, 123744, Note_on_c, 1, 48, 74
1, 123768, Note_on_c, 0, 77, 0
1, 123768, Note_on_c, 0, 76, 81
1, 123774, Note_on_c, 1, 48, 0
1, 123776, Note_on_c, 1, 52, 74
1, 123792, Note_on_c, 0, 76, 0
1, 123792, Note_on_c, 0, 74, 81
1, 123806, Note_on_c, 1, 52, 0
1, 123808, Note_on_c, 1, 55, 75
1, 123816, Note_on_c, 0, 74, 0
1, 123816, Note_on_c, 0, 76, 81
1, 123838, Note_on_c, 1, 55, 0
1, 123840, Note_on_c, 0, 76, 0
1, 123840, Note_on_c, 0, 77, 82
1, 123840, Note_on_c, 1, 50, 75
1, 123870, Note_on_c, 1, 50, 0
1, 123872, Note_on_c, 1, 53, 76
1, 123879, Note_on_c, 0, 77, 0
1, 123902, Note_on_c, 1, 53, 0
1, 123904, Note_on_c, 1, 59, 76
1, 123934, Note_on_c, 1, 59, 0
1, 123936, Note_on_c, 0, 79, 82
1, 123936, Note_on_c, 1, 50, 77
1, 123960, Note_on_c, 0, 79, 0
1, 123960, Note_on_c, 0, 77, 82
1, 123966, Note_on_c, 1, 50, 0
1, 123968, Note_on_c, 1, 53, 77
1, 123984, Note_on_c, 0, 77, 0
1, 123984, Note_on_c, 0, 76, 82
1, 123998, Note_on_c, 1, 53, 0
1, 124000, Note_on_c, 1, 59, 78
1, 124008, Note_on_c, 0, 76, 0
1, 124008, Note_on_c, 0, 77, 82
1, 124030, Note_on_c, 1, 59, 0
1, 124032, Note_on_c, 0, 77, 0
1, 124032, Note_on_c, 0, 79, 83
1, 124032, Note_on_c, 1, 52, 79
1, 124062, Note_on_c, 1, 52, 0
1, 124064, Note_on_c, 1, 55, 79
1, 124094, Note_on_c, 1, 55, 0
1, 124096, Note_on_c, 1, 60, 80
1, 124126, Note_on_c, 1, 60, 0
1, 124128, Note_on_c, 1, 52, 80
1, 124158, Note_on_c, 1, 52, 0
1, 124160, Note_on_c, 1, 55, 81
1, 124190, Note_on_c, 1, 55, 0
1, 124192, Note_on_c, 1, 60, 81
1, 124222, Note_on_c, 1, 60, 0
1, 124224, Note_on_c, 1, 52, 82
1, 124297, Note_on_c, 0, 79, 0
1, 124313, Note_on_c, 1, 52, 0
1, 124320, Note_on_c, 0, 80, 101
1, 124320, Note_on_c, 0, 68, 101
1, 124416, Note_on_c, 0, 80, 0
1, 124416, Note_on_c, 0, 68, 0
1, 124416, Note_on_c, 0, 81, 85
1, 124416, Note_on_c, 0, 69, 85
1, 124416, Note_on_c, 1, 53, 85
1, 124416, Note_on_c, 1, 41, 85
1, 124505, Note_on_c, 0, 81, 0
1, 124505, Note_on_c, 0, 69, 0
1, 124505, Note_on_c, 1, 53, 0
1, 124505, Note_on_c, 1, 41, 0
1, 124512, Note_on_c, 0, 83, 86
1, 124512, Note_on_c, 0, 71, 86
1, 124601, Note_on_c, 0, 83, 0
1, 124601, Note_on_c, 0, 71, 0
1, 124608, Note_on_c, 0, 84, 87
1, 124608, Note_on_c, 0, 72, 87
1, 124697, Note_on_c, 0, 84, 0
1, 124697, Note_on_c, 0, 72, 0
1, 124704, Note_on_c, 0, 85, 89
1, 124704, Note_on_c, 0, 73, 89
1, 124793, Note_on_c, 0, 85, 0
1, 124793, Note_on_c, 0, 73, 0
1, 124800, Note_on_c, 0, 86, 90
1, 124800, Note_on_c, 0, 74, 90
1, 124800, Note_on_c, 0, 74, 69
1, 124889, Note_on_c, 0, 86, 0
1, 124889, Note_on_c, 0, 74, 0
1, 124889, Note_on_c, 0, 74, 0
1, 124896, Note_on_c, 0, 88, 92
1, 124896, Note_on_c, 0, 76, 92
1, 124896, Note_on_c, 0, 76, 69
1, 124985, Note_on_c, 0, 88, 0
1, 124985, Note_on_c, 0, 76, 0
1, 124985, Note_on_c, 0, 76, 0
1, 124992, Note_on_c, 0, 89, 92
1, 124992, Note_on_c, 0, 77, 69
1, 125081, Note_on_c, 0, 89, 0
1, 125088, Note_on_c, 0, 86, 92
1, 125169, Note_on_c, 0, 77, 0
1, 125177, Note_on_c, 0, 86, 0
1, 125184, Note_on_c, 0, 84, 69
1, 125184, Note_on_c, 0, 79, 69
1, 125184, Note_on_c, 1, 76, 69
1, 125184, Note_on_c, 1, 67, 69
1, 125361, Note_on_c, 0, 84, 0
1, 125361, Note_on_c, 0, 79, 0
1, 125361, Note_on_c, 1, 76, 0
1, 125376, Note_on_c, 0, 88, 69
1, 125376, Note_on_c, 0, 83, 69
1, 125376, Note_on_c, 1, 77, 69
1, 125421, Note_on_c, 0, 88, 0
1, 125424, Note_on_c, 0, 86, 69
1, 125513, Note_on_c, 0, 86, 0
1, 125520, Note_on_c, 0, 84, 69
1, 125538, Note_on_c, 1, 67, 0
1, 125553, Note_on_c, 0, 83, 0
1, 125553, Note_on_c, 1, 77, 0
1, 125565, Note_on_c, 0, 84, 0
1, 125568, Note_on_c, 0, 84, 69
1, 125568, Note_on_c, 1, 76, 69
1, 125568, Note_on_c, 1, 72, 69
1, 125657, Note_on_c, 0, 84, 0
1, 125657, Note_on_c, 1, 76, 0
1, 125657, Note_on_c, 1, 72, 0
1, 125856, Note_on_c, 0, 76, 64
1, 125856, Note_on_c, 1, 72, 64
1, 125886, Note_on_c, 0, 76, 0
1, 125888, Note_on_c, 0, 80, 64
1, 125918, Note_on_c, 0, 80, 0
1, 125920, Note_on_c, 0, 81, 64
1, 125952, Note_on_c, 0, 81, 0
1, 125952, Note_on_c, 0, 79, 64
1, 125952, Note_on_c, 1, 72, 0
1, 125952, Note_on_c, 1, 74, 64
1, 125952, Note_on_c, 1, 71, 64
1, 125991, Note_on_c, 0, 79, 0
1, 126041, Note_on_c, 1, 74, 0
1, 126041, Note_on_c, 1, 71, 0
1, 126048, Note_on_c, 0, 79, 64
1, 126087, Note_on_c, 0, 79, 0
1, 126144, Note_on_c, 0, 79, 64
1, 126183, Note_on_c, 0, 79, 0
1, 126240, Note_on_c, 0, 72, 64
1, 126240, Note_on_c, 1, 69, 64
1, 126270, Note_on_c, 0, 72, 0
1, 126272, Note_on_c, 0, 76, 64
1, 126302, Note_on_c, 0, 76, 0
1, 126304, Note_on_c, 0, 77, 64
1, 126336, Note_on_c, 0, 77, 0
1, 126336, Note_on_c, 0, 76, 64
1, 126336, Note_on_c, 1, 69, 0
1, 126336, Note_on_c, 1, 71, 64
1, 126336, Note_on_c, 1, 67, 64
1, 126375, Note_on_c, 0, 76, 0
1, 126425, Note_on_c, 1, 71, 0
1, 126425, Note_on_c, 1, 67, 0
1, 126432, Note_on_c, 0, 76, 64
1, 126471, Note_on_c, 0, 76, 0
1, 126528, Note_on_c, 0, 76, 64
1, 126567, Note_on_c, 0, 76, 0
1, 126624, Note_on_c, 0, 69, 64
1, 126624, Note_on_c, 1, 65, 64
1, 126656, Note_on_c, 0, 69, 0
1, 126656, Note_on_c, 0, 73, 64
1, 126686, Note_on_c, 0, 73, 0
1, 126688, Note_on_c, 0, 74, 64
1, 126720, Note_on_c, 0, 74, 0
1, 126720, Note_on_c, 0, 72, 64
1, 126720, Note_on_c, 1, 65, 0
1, 126720, Note_on_c, 1, 67, 64
1, 126720, Note_on_c, 1, 64, 64
1, 126759, Note_on_c, 0, 72, 0
1, 126809, Note_on_c, 1, 67, 0
1, 126809, Note_on_c, 1, 64, 0
1, 126816, Note_on_c, 0, 72, 67
1, 126855, Note_on_c, 0, 72, 0
1, 126912, Note_on_c, 0, 72, 71
1, 126951, Note_on_c, 0, 72, 0
1, 127008, Note_on_c, 0, 76, 75
1, 127008, Note_on_c, 1, 64, 64
1, 127008, Note_on_c, 1, 60, 64
1, 127080, Note_on_c, 0, 76, 0
1, 127080, Note_on_c, 0, 72, 78
1, 127097, Note_on_c, 1, 64, 0
1, 127097, Note_on_c, 1, 60, 0
1, 127103, Note_on_c, 0, 72, 0
1, 127104, Note_on_c, 0, 69, 79
1, 127104, Note_on_c, 1, 65, 64
1, 127104, Note_on_c, 1, 53, 64
1, 127143, Note_on_c, 0, 69, 0
1, 127193, Note_on_c, 1, 65, 0
1, 127193, Note_on_c, 1, 53, 0
1, 127200, Note_on_c, 0, 77, 75
1, 127272, Note_on_c, 0, 77, 0
1, 127272, Note_on_c, 0, 74, 72
1, 127295, Note_on_c, 0, 74, 0
1, 127296, Note_on_c, 0, 71, 71
1, 127296, Note_on_c, 1, 62, 64
1, 127296, Note_on_c, 1, 55, 64
1, 127335, Note_on_c, 0, 71, 0
1, 127385, Note_on_c, 1, 62, 0
1, 127385, Note_on_c, 1, 55, 0
1, 127392, Note_on_c, 0, 74, 67
1, 127464, Note_on_c, 0, 74, 0
1, 127464, Note_on_c, 0, 71, 64
1, 127487, Note_on_c, 0, 71, 0
1, 127488, Note_on_c, 0, 72, 64
1, 127488, Note_on_c, 1, 64, 64
1, 127488, Note_on_c, 1, 60, 64
1, 127577, Note_on_c, 0, 72, 0
1, 127577, Note_on_c, 1, 64, 0
1, 127577, Note_on_c, 1, 60, 0
1, 127776, Note_on_c, 0, 76, 85
1, 127776, Note_on_c, 1, 72, 85
1, 127806, Note_on_c, 0, 76, 0
1, 127808, Note_on_c, 0, 80, 85
1, 127838, Note_on_c, 0, 80, 0
1, 127840, Note_on_c, 0, 81, 85
1, 127870, Note_on_c, 0, 81, 0
1, 127872, Note_on_c, 0, 74, 69
1, 127872, Note_on_c, 1, 72, 0
1, 127872, Note_on_c, 1, 71, 69
1, 127902, Note_on_c, 0, 74, 0
1, 127904, Note_on_c, 0, 78, 69
1, 127911, Note_on_c, 1, 71, 0
1, 127934, Note_on_c, 0, 78, 0
1, 127936, Note_on_c, 0, 79, 69
1, 127966, Note_on_c, 0, 79, 0
1, 127968, Note_on_c, 0, 74, 69
1, 127968, Note_on_c, 1, 71, 69
1, 127998, Note_on_c, 0, 74, 0
1, 128000, Note_on_c, 0, 78, 69
1, 128007, Note_on_c, 1, 71, 0
1, 128030, Note_on_c, 0, 78, 0
1, 128032, Note_on_c, 0, 79, 69
1, 128062, Note_on_c, 0, 79, 0
1, 128064, Note_on_c, 0, 74, 69
1, 128064, Note_on_c, 1, 71, 69
1, 128094, Note_on_c, 0, 74, 0
1, 128096, Note_on_c, 0, 78, 69
1, 128103, Note_on_c, 1, 71, 0
1, 128126, Note_on_c, 0, 78, 0
1, 128128, Note_on_c, 0, 79, 69
1, 128158, Note_on_c, 0, 79, 0
1, 128160, Note_on_c, 0, 76, 85
1, 128160, Note_on_c, 1, 72, 85
1, 128183, Note_on_c, 0, 76, 0
1, 128184, Note_on_c, 0, 78, 85
1, 128207, Note_on_c, 0, 78, 0
1, 128208, Note_on_c, 0, 80, 85
1, 128231, Note_on_c, 0, 80, 0
1, 128232, Note_on_c, 0, 81, 85
1, 128255, Note_on_c, 0, 81, 0
1, 128256, Note_on_c, 0, 74, 69
1, 128256, Note_on_c, 1, 72, 0
1, 128256, Note_on_c, 1, 71, 69
1, 128286, Note_on_c, 0, 74, 0
1, 128288, Note_on_c, 0, 78, 69
1, 128295, Note_on_c, 1, 71, 0
1, 128318, Note_on_c, 0, 78, 0
1, 128320, Note_on_c, 0, 79, 69
1, 128350, Note_on_c, 0, 79, 0
1, 128352, Note_on_c, 0, 74, 69
1, 128352, Note_on_c, 1, 71, 69
1, 128382, Note_on_c, 0, 74, 0
1, 128384, Note_on_c, 0, 78, 69
1, 128391, Note_on_c, 1, 71, 0
1, 128414, Note_on_c, 0, 78, 0
1, 128416, Note_on_c, 0, 79, 69
1, 128446, Note_on_c, 0, 79, 0
1, 128448, Note_on_c, 0, 74, 69
1, 128448, Note_on_c, 1, 71, 69
1, 128478, Note_on_c, 0, 74, 0
1, 128480, Note_on_c, 0, 78, 69
1, 128487, Note_on_c, 1, 71, 0
1, 128510, Note_on_c, 0, 78, 0
1, 128512, Note_on_c, 0, 79, 69
1, 128542, Note_on_c, 0, 79, 0
1, 128544, Note_on_c, 0, 72, 85
1, 128544, Note_on_c, 1, 69, 85
1, 128567, Note_on_c, 0, 72, 0
1, 128568, Note_on_c, 0, 74, 85
1, 128591, Note_on_c, 0, 74, 0
1, 128592, Note_on_c, 0, 76, 85
1, 128615, Note_on_c, 0, 76, 0
1, 128616, Note_on_c, 0, 77, 85
1, 128639, Note_on_c, 0, 77, 0
1, 128640, Note_on_c, 0, 71, 69
1, 128640, Note_on_c, 1, 69, 0
1, 128640, Note_on_c, 1, 67, 69
1, 128670, Note_on_c, 0, 71, 0
1, 128672, Note_on_c, 0, 75, 69
1, 128679, Note_on_c, 1, 67, 0
1, 128702, Note_on_c, 0, 75, 0
1, 128704, Note_on_c, 0, 76, 69
1, 128734, Note_on_c, 0, 76, 0
1, 128736, Note_on_c, 0, 71, 69
1, 128736, Note_on_c, 1, 67, 69
1, 128766, Note_on_c, 0, 71, 0
1, 128768, Note_on_c, 0, 75, 69
1, 128775, Note_on_c, 1, 67, 0
1, 128798, Note_on_c, 0, 75, 0
1, 128800, Note_on_c, 0, 76, 69
1, 128830, Note_on_c, 0, 76, 0
1, 128832, Note_on_c, 0, 71, 69
1, 128832, Note_on_c, 1, 67, 69
1, 128862, Note_on_c, 0, 71, 0
1, 128864, Note_on_c, 0, 75, 69
1, 128871, Note_on_c, 1, 67, 0
1, 128894, Note_on_c, 0, 75, 0
1, 128896, Note_on_c, 0, 76, 69
1, 128926, Note_on_c, 0, 76, 0
1, 128928, Note_on_c, 0, 72, 85
1, 128928, Note_on_c, 1, 69, 85
1, 128951, Note_on_c, 0, 72, 0
1, 128952, Note_on_c, 0, 74, 85
1, 128975, Note_on_c, 0, 74, 0
1, 128976, Note_on_c, 0, 76, 85
1, 128999, Note_on_c, 0, 76, 0
1, 129000, Note_on_c, 0, 77, 85
1, 129023, Note_on_c, 0, 77, 0
1, 129024, Note_on_c, 0, 71, 69
1, 129024, Note_on_c, 1, 69, 0
1, 129024, Note_on_c, 1, 67, 69
1, 129054, Note_on_c, 0, 71, 0
1, 129056, Note_on_c, 0, 75, 69
1, 129063, Note_on_c, 1, 67, 0
1, 129086, Note_on_c, 0, 75, 0
1, 129088, Note_on_c, 0, 76, 69
1, 129118, Note_on_c, 0, 76, 0
1, 129120, Note_on_c, 0, 71, 69
1, 129120, Note_on_c, 1, 67, 69
1, 129150, Note_on_c, 0, 71, 0
1, 129152, Note_on_c, 0, 75, 69
1, 129159, Note_on_c, 1, 67, 0
1, 129182, Note_on_c, 0, 75, 0
1, 129184, Note_on_c, 0, 76, 69
1, 129214, Note_on_c, 0, 76, 0
1, 129216, Note_on_c, 0, 71, 69
1, 129216, Note_on_c, 1, 67, 69
1, 129246, Note_on_c, 0, 71, 0
1, 129248, Note_on_c, 0, 75, 69
1, 129255, Note_on_c, 1, 67, 0
1, 129278, Note_on_c, 0, 75, 0
1, 129280, Note_on_c, 0, 76, 69
1, 129310, Note_on_c, 0, 76, 0
1, 129312, Note_on_c, 0, 69, 85
1, 129312, Note_on_c, 1, 65, 85
1, 129335, Note_on_c, 0, 69, 0
1, 129336, Note_on_c, 0, 71, 85
1, 129359, Note_on_c, 0, 71, 0
1, 129360, Note_on_c, 0, 73, 85
1, 129383, Note_on_c, 0, 73, 0
1, 129384, Note_on_c, 0, 74, 85
1, 129407, Note_on_c, 0, 74, 0
1, 129408, Note_on_c, 0, 67, 69
1, 129408, Note_on_c, 1, 65, 0
1, 129408, Note_on_c, 1, 64, 69
1, 129438, Note_on_c, 0, 67, 0
1, 129440, Note_on_c, 0, 71, 69
1, 129447, Note_on_c, 1, 64, 0
1, 129470, Note_on_c, 0, 71, 0
1, 129472, Note_on_c, 0, 72, 69
1, 129502, Note_on_c, 0, 72, 0
1, 129504, Note_on_c, 0, 67, 69
1, 129504, Note_on_c, 1, 64, 69
1, 129534, Note_on_c, 0, 67, 0
1, 129536, Note_on_c, 0, 71, 69
1, 129543, Note_on_c, 1, 64, 0
1, 129566, Note_on_c, 0, 71, 0
1, 129568, Note_on_c, 0, 72, 69
1, 129598, Note_on_c, 0, 72, 0
1, 129600, Note_on_c, 0, 67, 69
1, 129600, Note_on_c, 1, 64, 69
1, 129630, Note_on_c, 0, 67, 0
1, 129632, Note_on_c, 0, 71, 69
1, 129639, Note_on_c, 1, 64, 0
1, 129662, Note_on_c, 0, 71, 0
1, 129664, Note_on_c, 0, 72, 69
1, 129694, Note_on_c, 0, 72, 0
1, 129696, Note_on_c, 0, 69, 85
1, 129696, Note_on_c, 1, 65, 85
1, 129719, Note_on_c, 0, 69, 0
1, 129720, Note_on_c, 0, 71, 85
1, 129743, Note_on_c, 0, 71, 0
1, 129744, Note_on_c, 0, 73, 85
1, 129767, Note_on_c, 0, 73, 0
1, 129768, Note_on_c, 0, 74, 85
1, 129791, Note_on_c, 0, 74, 0
1, 129792, Note_on_c, 0, 67, 69
1, 129792, Note_on_c, 1, 65, 0
1, 129792, Note_on_c, 1, 64, 69
1, 129822, Note_on_c, 0, 67, 0
1, 129824, Note_on_c, 0, 71, 69
1, 129831, Note_on_c, 1, 64, 0
1, 129854, Note_on_c, 0, 71, 0
1, 129856, Note_on_c, 0, 72, 69
1, 129886, Note_on_c, 0, 72, 0
1, 129888, Note_on_c, 0, 67, 69
1, 129888, Note_on_c, 1, 64, 69
1, 129918, Note_on_c, 0, 67, 0
1, 129920, Note_on_c, 0, 71, 69
1, 129927, Note_on_c, 1, 64, 0
1, 129950, Note_on_c, 0, 71, 0
1, 129952, Note_on_c, 0, 72, 69
1, 129982, Note_on_c, 0, 72, 0
1, 129984, Note_on_c, 0, 67, 69
1, 129984, Note_on_c, 1, 64, 69
1, 130014, Note_on_c, 0, 67, 0
1, 130016, Note_on_c, 0, 71, 69
1, 130023, Note_on_c, 1, 64, 0
1, 130046, Note_on_c, 0, 71, 0
1, 130048, Note_on_c, 0, 72, 69
1, 130078, Note_on_c, 0, 72, 0
1, 130080, Note_on_c, 0, 69, 85
1, 130080, Note_on_c, 1, 65, 85
1, 130103, Note_on_c, 0, 69, 0
1, 130104, Note_on_c, 0, 71, 85
1, 130127, Note_on_c, 0, 71, 0
1, 130128, Note_on_c, 0, 73, 85
1, 130151, Note_on_c, 0, 73, 0
1, 130152, Note_on_c, 0, 74, 85
1, 130175, Note_on_c, 0, 74, 0
1, 130176, Note_on_c, 0, 67, 69
1, 130176, Note_on_c, 1, 65, 0
1, 130176, Note_on_c, 1, 64, 69
1, 130206, Note_on_c, 0, 67, 0
1, 130208, Note_on_c, 0, 71, 69
1, 130215, Note_on_c, 1, 64, 0
1, 130238, Note_on_c, 0, 71, 0
1, 130240, Note_on_c, 0, 72, 69
1, 130270, Note_on_c, 0, 72, 0
1, 130272, Note_on_c, 0, 67, 69
1, 130272, Note_on_c, 1, 59, 69
1, 130302, Note_on_c, 0, 67, 0
1, 130304, Note_on_c, 0, 73, 70
1, 130334, Note_on_c, 0, 73, 0
1, 130336, Note_on_c, 0, 74, 72
1, 130361, Note_on_c, 1, 59, 0
1, 130366, Note_on_c, 0, 74, 0
1, 130368, Note_on_c, 0, 67, 73
1, 130368, Note_on_c, 1, 60, 73
1, 130398, Note_on_c, 0, 67, 0
1, 130400, Note_on_c, 0, 75, 75
1, 130430, Note_on_c, 0, 75, 0
1, 130432, Note_on_c, 0, 76, 76
1, 130457, Note_on_c, 1, 60, 0
1, 130462, Note_on_c, 0, 76, 0
1, 130464, Note_on_c, 0, 67, 78
1, 130464, Note_on_c, 1, 62, 77
1, 130494, Note_on_c, 0, 67, 0
1, 130496, Note_on_c, 0, 76, 79
1, 130526, Note_on_c, 0, 76, 0
1, 130528, Note_on_c, 0, 77, 81
1, 130553, Note_on_c, 1, 62, 0
1, 130558, Note_on_c, 0, 77, 0
1, 130560, Note_on_c, 0, 67, 82
1, 130560, Note_on_c, 1, 64, 81
1, 130590, Note_on_c, 0, 67, 0
1, 130592, Note_on_c, 0, 78, 85
1, 130622, Note_on_c, 0, 78, 0
1, 130624, Note_on_c, 0, 79, 85
1, 130649, Note_on_c, 1, 64, 0
1, 130654, Note_on_c, 0, 79, 0
1, 130656, Note_on_c, 0, 77, 85
1, 130686, Note_on_c, 0, 77, 0
1, 130688, Note_on_c, 0, 76, 85
1, 130718, Note_on_c, 0, 76, 0
1, 130720, Note_on_c, 0, 74, 85
1, 130750, Note_on_c, 0, 74, 0
1, 130752, Note_on_c, 0, 72, 85
1, 130782, Note_on_c, 0, 72, 0
1, 130784, Note_on_c, 0, 71, 85
1, 130814, Note_on_c, 0, 71, 0
1, 130816, Note_on_c, 0, 69, 85
1, 130846, Note_on_c, 0, 69, 0
1, 130848, Note_on_c, 0, 67, 85
1, 130878, Note_on_c, 0, 67, 0
1, 130880, Note_on_c, 0, 65, 85
1, 130910, Note_on_c, 0, 65, 0
1, 130912, Note_on_c, 0, 64, 85
1, 130942, Note_on_c, 0, 64, 0
1, 130944, Note_on_c, 0, 62, 85
1, 130944, Note_on_c, 1, 41, 69
1, 130974, Note_on_c, 0, 62, 0
1, 130976, Note_on_c, 0, 69, 83
1, 131006, Note_on_c, 0, 69, 0
1, 131008, Note_on_c, 0, 67, 82
1, 131038, Note_on_c, 0, 67, 0
1, 131040, Note_on_c, 0, 65, 81
1, 131040, Note_on_c, 1, 53, 81
1, 131070, Note_on_c, 0, 65, 0
1, 131072, Note_on_c, 0, 64, 80
1, 131102, Note_on_c, 0, 64, 0
1, 131104, Note_on_c, 0, 62, 78
1, 131121, Note_on_c, 1, 41, 0
1, 131129, Note_on_c, 1, 53, 0
1, 131134, Note_on_c, 0, 62, 0
1, 131136, Note_on_c, 0, 60, 77
1, 131136, Note_on_c, 1, 52, 77
1, 131136, Note_on_c, 1, 43, 69
1, 131225, Note_on_c, 0, 60, 0
1, 131225, Note_on_c, 1, 52, 0
1, 131232, Note_on_c, 0, 59, 73
1, 131232, Note_on_c, 1, 50, 73
1, 131244, Note_on_c, 0, 59, 0
1, 131244, Note_on_c, 0, 60, 73
1, 131256, Note_on_c, 0, 60, 0
1, 131256, Note_on_c, 0, 59, 73
1, 131313, Note_on_c, 1, 43, 0
1, 131321, Note_on_c, 0, 59, 0
1, 131321, Note_on_c, 1, 50, 0
1, 131328, Note_on_c, 1, 48, 85
1, 131328, Note_on_c, 1, 43, 85
1, 131328, Note_on_c, 1, 40, 85
1, 131360, Note_on_c, 0, 78, 85
1, 131390, Note_on_c, 0, 78, 0
1, 131392, Note_on_c, 0, 79, 85
1, 131422, Note_on_c, 0, 79, 0
1, 131424, Note_on_c, 0, 77, 85
1, 131454, Note_on_c, 0, 77, 0
1, 131456, Note_on_c, 0, 76, 85
1, 131486, Note_on_c, 0, 76, 0
1, 131488, Note_on_c, 0, 74, 85
1, 131505, Note_on_c, 1, 48, 0
1, 131505, Note_on_c, 1, 43, 0
1, 131505, Note_on_c, 1, 40, 0
1, 131518, Note_on_c, 0, 74, 0
1, 131520, Note_on_c, 0, 72, 85
1, 131550, Note_on_c, 0, 72, 0
1, 131552, Note_on_c, 0, 71, 85
1, 131582, Note_on_c, 0, 71, 0
1, 131584, Note_on_c, 0, 69, 85
1, 131614, Note_on_c, 0, 69, 0
1, 131616, Note_on_c, 0, 67, 85
1, 131646, Note_on_c, 0, 67, 0
1, 131648, Note_on_c, 0, 65, 85
1, 131678, Note_on_c, 0, 65, 0
1, 131680, Note_on_c, 0, 64, 85
1, 131710, Note_on_c, 0, 64, 0
1, 131712, Note_on_c, 0, 62, 85
1, 131712, Note_on_c, 0, 62, 69
1, 131712, Note_on_c, 1, 57, 85
1, 131712, Note_on_c, 1, 53, 85
1, 131712, Note_on_c, 1, 57, 69
1, 131712, Note_on_c, 1, 53, 69
1, 131889, Note_on_c, 0, 62, 0
1, 131889, Note_on_c, 0, 62, 0
1, 131889, Note_on_c, 1, 57, 0
1, 131889, Note_on_c, 1, 53, 0
1, 131889, Note_on_c, 1, 57, 0
1, 131889, Note_on_c, 1, 53, 0
1, 131904, Tempo, 1000000
1, 131904, Note_on_c, 0, 72, 92
1, 131904, Note_on_c, 1, 54, 85
1, 131910, Note_on_c, 0, 75, 92
1, 131910, Note_on_c, 1, 57, 85
1, 131916, Note_on_c, 0, 78, 92
1, 131916, Note_on_c, 1, 60, 85
1, 131922, Note_on_c, 0, 81, 92
1, 131922, Note_on_c, 1, 63, 85
1, 132083, Note_on_c, 0, 81, 0
1, 132083, Note_on_c, 0, 78, 0
1, 132083, Note_on_c, 0, 75, 0
1, 132083, Note_on_c, 0, 72, 0
1, 132083, Note_on_c, 1, 63, 0
1, 132083, Note_on_c, 1, 60, 0
1, 132083, Note_on_c, 1, 57, 0
1, 132083, Note_on_c, 1, 54, 0
1, 132096, Tempo, 375000
1, 132096, Note_on_c, 1, 57, 69
1, 132128, Note_on_c, 0, 69, 69
1, 132141, Note_on_c, 1, 57, 0
1, 132158, Note_on_c, 0, 69, 0
1, 132160, Note_on_c, 0, 81, 69
1, 132190, Note_on_c, 0, 81, 0
1, 132192, Note_on_c, 1, 54, 69
1, 132224, Note_on_c, 0, 66, 69
1, 132237, Note_on_c, 1, 54, 0
1, 132254, Note_on_c, 0, 66, 0
1, 132256, Note_on_c, 0, 78, 69
1, 132286, Note_on_c, 0, 78, 0
1, 132288, Note_on_c, 1, 51, 69
1, 132320, Note_on_c, 0, 63, 69
1, 132333, Note_on_c, 1, 51, 0
1, 132350, Note_on_c, 0, 63, 0
1, 132352, Note_on_c, 0, 75, 69
1, 132382, Note_on_c, 0, 75, 0
1, 132384, Note_on_c, 1, 48, 69
1, 132416, Note_on_c, 0, 60, 69
1, 132429, Note_on_c, 1, 48, 0
1, 132446, Note_on_c, 0, 60, 0
1, 132448, Note_on_c, 0, 72, 69
1, 132478, Note_on_c, 0, 72, 0
1, 132480, Note_on_c, 1, 45, 69
1, 132512, Note_on_c, 0, 57, 69
1, 132525, Note_on_c, 1, 45, 0
1, 132542, Note_on_c, 0, 57, 0
1, 132544, Note_on_c, 0, 69, 69
1, 132574, Note_on_c, 0, 69, 0
1, 132576, Note_on_c, 1, 42, 69
1, 132608, Note_on_c, 0, 54, 69
1, 132621, Note_on_c, 1, 42, 0
1, 132638, Note_on_c, 0, 54, 0
1, 132640, Note_on_c, 0, 66, 69
1, 132670, Note_on_c, 0, 66, 0
1, 132672, Note_on_c, 1, 39, 69
1, 132704, Note_on_c, 1, 51, 69
1, 132717, Note_on_c, 1, 39, 0
1, 132734, Note_on_c, 1, 51, 0
1, 132736, Note_on_c, 1, 63, 69
1, 132766, Note_on_c, 1, 63, 0
1, 132768, Note_on_c, 1, 36, 69
1, 132800, Note_on_c, 1, 48, 69
1, 132813, Note_on_c, 1, 36, 0
1, 132830, Note_on_c, 1, 48, 0
1, 132832, Note_on_c, 1, 60, 69
1, 132862, Note_on_c, 1, 60, 0
1, 132864, Note_on_c, 1, 55, 69
1, 132894, Note_on_c, 1, 55, 0
1, 132896, Note_on_c, 1, 60, 69
1, 132926, Note_on_c, 1, 60, 0
1, 132928, Note_on_c, 1, 64, 69
1, 132958, Note_on_c, 1, 64, 0
1, 132960, Note_on_c, 1, 55, 69
1, 132990, Note_on_c, 1, 55, 0
1, 132992, Note_on_c, 1, 60, 69
1, 133022, Note_on_c, 1, 60, 0
1, 133024, Note_on_c, 1, 64, 69
1, 133054, Note_on_c, 1, 64, 0
1, 133056, Note_on_c, 1, 55, 69
1, 133086, Note_on_c, 1, 55, 0
1, 133088, Note_on_c, 1, 60, 69
1, 133118, Note_on_c, 1, 60, 0
1, 133120, Note_on_c, 1, 64, 69
1, 133150, Note_on_c, 1, 64, 0
1, 133152, Note_on_c, 0, 72, 69
1, 133152, Note_on_c, 1, 55, 69
1, 133175, Note_on_c, 0, 72, 0
1, 133176, Note_on_c, 0, 74, 69
1, 133182, Note_on_c, 1, 55, 0
1, 133184, Note_on_c, 1, 60, 69
1, 133199, Note_on_c, 0, 74, 0
1, 133200, Note_on_c, 0, 76, 69
1, 133214, Note_on_c, 1, 60, 0
1, 133216, Note_on_c, 1, 64, 69
1, 133223, Note_on_c, 0, 76, 0
1, 133224, Note_on_c, 0, 77, 69
1, 133246, Note_on_c, 1, 64, 0
1, 133247, Note_on_c, 0, 77, 0
1, 133248, Note_on_c, 0, 79, 69
1, 133248, Note_on_c, 1, 55, 69
1, 133278, Note_on_c, 1, 55, 0
1, 133280, Note_on_c, 1, 60, 69
1, 133287, Note_on_c, 0, 79, 0
1, 133310, Note_on_c, 1, 60, 0
1, 133312, Note_on_c, 1, 64, 69
1, 133342, Note_on_c, 1, 64, 0
1, 133344, Note_on_c, 0, 79, 69
1, 133344, Note_on_c, 1, 55, 69
1, 133374, Note_on_c, 1, 55, 0
1, 133376, Note_on_c, 1, 60, 69
1, 133383, Note_on_c, 0, 79, 0
1, 133406, Note_on_c, 1, 60, 0
1, 133408, Note_on_c, 1, 64, 69
1, 133438, Note_on_c, 1, 64, 0
1, 133440, Note_on_c, 0, 79, 69
1, 133440, Note_on_c, 1, 55, 69
1, 133470, Note_on_c, 1, 55, 0
1, 133472, Note_on_c, 1, 60, 69
1, 133479, Note_on_c, 0, 79, 0
1, 133502, Note_on_c, 1, 60, 0
1, 133504, Note_on_c, 1, 64, 69
1, 133534, Note_on_c, 1, 64, 0
1, 133536, Note_on_c, 0, 83, 85
1, 133536, Note_on_c, 1, 55, 69
1, 133548, Note_on_c, 0, 83, 0
1, 133548, Note_on_c, 0, 84, 85
1, 133566, Note_on_c, 1, 55, 0
1, 133568, Note_on_c, 1, 60, 69
1, 133575, Note_on_c, 0, 84, 0
1, 133598, Note_on_c, 1, 60, 0
1, 133600, Note_on_c, 1, 64, 69
1, 133630, Note_on_c, 1, 64, 0
1, 133632, Note_on_c, 0, 79, 79
1, 133632, Note_on_c, 1, 55, 69
1, 133662, Note_on_c, 1, 55, 0
1, 133664, Note_on_c, 1, 60, 69
1, 133671, Note_on_c, 0, 79, 0
1, 133694, Note_on_c, 1, 60, 0
1, 133696, Note_on_c, 1, 64, 69
1, 133726, Note_on_c, 1, 64, 0
1, 133728, Note_on_c, 0, 79, 79
1, 133728, Note_on_c, 1, 55, 69
1, 133758, Note_on_c, 1, 55, 0
1, 133760, Note_on_c, 1, 60, 69
1, 133767, Note_on_c, 0, 79, 0
1, 133790, Note_on_c, 1, 60, 0
1, 133792, Note_on_c, 1, 64, 69
1, 133822, Note_on_c, 1, 64, 0
1, 133824, Note_on_c, 0, 79, 79
1, 133824, Note_on_c, 1, 55, 69
1, 133844, Note_on_c, 0, 79, 0
1, 133854, Note_on_c, 1, 55, 0
1, 133856, Note_on_c, 1, 60, 69
1, 133872, Note_on_c, 0, 81, 79
1, 133886, Note_on_c, 1, 60, 0
1, 133888, Note_on_c, 1, 64, 69
1, 133895, Note_on_c, 0, 81, 0
1, 133896, Note_on_c, 0, 79, 79
1, 133918, Note_on_c, 1, 64, 0
1, 133919, Note_on_c, 0, 79, 0
1, 133920, Note_on_c, 0, 77, 79
1, 133920, Note_on_c, 1, 55, 69
1, 133943, Note_on_c, 0, 77, 0
1, 133944, Note_on_c, 0, 76, 79
1, 133950, Note_on_c, 1, 55, 0
1, 133952, Note_on_c, 1, 60, 69
1, 133967, Note_on_c, 0, 76, 0
1, 133968, Note_on_c, 0, 74, 79
1, 133982, Note_on_c, 1, 60, 0
1, 133984, Note_on_c, 1, 64, 69
1, 133991, Note_on_c, 0, 74, 0
1, 133992, Note_on_c, 0, 72, 79
1, 134014, Note_on_c, 1, 64, 0
1, 134015, Note_on_c, 0, 72, 0
1, 134016, Note_on_c, 0, 71, 79
1, 134016, Note_on_c, 1, 55, 69
1, 134046, Note_on_c, 1, 55, 0
1, 134048, Note_on_c, 1, 62, 69
1, 134078, Note_on_c, 1, 62, 0
1, 134080, Note_on_c, 1, 65, 69
1, 134083, Note_on_c, 0, 71, 0
1, 134088, Note_on_c, 0, 79, 80
1, 134110, Note_on_c, 1, 65, 0
1, 134111, Note_on_c, 0, 79, 0
1, 134112, Note_on_c, 0, 81, 80
1, 134112, Note_on_c, 1, 55, 70
1, 134135, Note_on_c, 0, 81, 0
1, 134136, Note_on_c, 0, 79, 80
1, 134142, Note_on_c, 1, 55, 0
1, 134144, Note_on_c, 1, 62, 70
1, 134159, Note_on_c, 0, 79, 0
1, 134160, Note_on_c, 0, 78, 81
1, 134174, Note_on_c, 1, 62, 0
1, 134176, Note_on_c, 1, 65, 70
1, 134183, Note_on_c, 0, 78, 0
1, 134184, Note_on_c, 0, 79, 81
1, 134206, Note_on_c, 1, 65, 0
1, 134207, Note_on_c, 0, 79, 0
1, 134208, Note_on_c, 0, 72, 82
1, 134208, Note_on_c, 1, 55, 71
1, 134238, Note_on_c, 1, 55, 0
1, 134240, Note_on_c, 1, 60, 71
1, 134270, Note_on_c, 1, 60, 0
1, 134272, Note_on_c, 1, 64, 72
1, 134275, Note_on_c, 0, 72, 0
1, 134280, Note_on_c, 0, 79, 83
1, 134302, Note_on_c, 1, 64, 0
1, 134303, Note_on_c, 0, 79, 0
1, 134304, Note_on_c, 0, 81, 83
1, 134304, Note_on_c, 1, 55, 72
1, 134327, Note_on_c, 0, 81, 0
1, 134328, Note_on_c, 0, 79, 83
1, 134334, Note_on_c, 1, 55, 0
1, 134336, Note_on_c, 1, 60, 72
1, 134351, Note_on_c, 0, 79, 0
1, 134352, Note_on_c, 0, 78, 84
1, 134366, Note_on_c, 1, 60, 0
1, 134368, Note_on_c, 1, 64, 73
1, 134375, Note_on_c, 0, 78, 0
1, 134376, Note_on_c, 0, 79, 84
1, 134398, Note_on_c, 1, 64, 0
1, 134399, Note_on_c, 0, 79, 0
1, 134400, Note_on_c, 0, 74, 85
1, 134400, Note_on_c, 1, 55, 74
1, 134430, Note_on_c, 1, 55, 0
1, 134432, Note_on_c, 1, 59, 74
1, 134462, Note_on_c, 1, 59, 0
1, 134464, Note_on_c, 1, 62, 74
1, 134489, Note_on_c, 0, 74, 0
1, 134494, Note_on_c, 1, 62, 0
1, 134496, Note_on_c, 1, 55, 74
1, 134526, Note_on_c, 1, 55, 0
1, 134528, Note_on_c, 1, 59, 74
1, 134558, Note_on_c, 1, 59, 0
1, 134560, Note_on_c, 1, 62, 74
1, 134590, Note_on_c, 1, 62, 0
1, 134592, Note_on_c, 1, 55, 74
1, 134622, Note_on_c, 1, 55, 0
1, 134624, Note_on_c, 1, 59, 74
1, 134654, Note_on_c, 1, 59, 0
1, 134656, Note_on_c, 1, 62, 74
1, 134686, Note_on_c, 1, 62, 0
1, 134688, Note_on_c, 0, 67, 79
1, 134688, Note_on_c, 1, 55, 74
1, 134718, Note_on_c, 1, 55, 0
1, 134720, Note_on_c, 1, 59, 74
1, 134750, Note_on_c, 1, 59, 0
1, 134752, Note_on_c, 1, 62, 74
1, 134755, Note_on_c, 0, 67, 0
1, 134760, Note_on_c, 0, 74, 79
1, 134782, Note_on_c, 1, 62, 0
1, 134783, Note_on_c, 0, 74, 0
1, 134784, Note_on_c, 0, 77, 79
1, 134784, Note_on_c, 1, 55, 74
1, 134814, Note_on_c, 1, 55, 0
1, 134816, Note_on_c, 1, 59, 74
1, 134823, Note_on_c, 0, 77, 0
1, 134846, Note_on_c, 1, 59, 0
1, 134848, Note_on_c, 1, 62, 74
1, 134878, Note_on_c, 1, 62, 0
1, 134880, Note_on_c, 0, 77, 79
1, 134880, Note_on_c, 1, 55, 74
1, 134910, Note_on_c, 1, 55, 0
1, 134912, Note_on_c, 1, 59, 74
1, 134942, Note_on_c, 1, 59, 0
1, 134944, Note_on_c, 1, 62, 74
1, 134952, Note_on_c, 0, 77, 0
1, 134952, Note_on_c, 0, 79, 79
1, 134974, Note_on_c, 1, 62, 0
1, 134975, Note_on_c, 0, 79, 0
1, 134976, Note_on_c, 0, 76, 79
1, 134976, Note_on_c, 1, 55, 74
1, 135006, Note_on_c, 1, 55, 0
1, 135008, Note_on_c, 1, 60, 74
1, 135015, Note_on_c, 0, 76, 0
1, 135038, Note_on_c, 1, 60, 0
1, 135040, Note_on_c, 1, 64, 74
1, 135070, Note_on_c, 1, 64, 0
1, 135072, Note_on_c, 0, 76, 79
1, 135072, Note_on_c, 1, 55, 74
1, 135102, Note_on_c, 1, 55, 0
1, 135104, Note_on_c, 1, 60, 74
1, 135134, Note_on_c, 1, 60, 0
1, 135136, Note_on_c, 1, 64, 74
1, 135144, Note_on_c, 0, 76, 0
1, 135144, Note_on_c, 0, 77, 79
1, 135166, Note_on_c, 1, 64, 0
1, 135167, Note_on_c, 0, 77, 0
1, 135168, Note_on_c, 0, 74, 79
1, 135168, Note_on_c, 1, 55, 74
1, 135188, Note_on_c, 0, 74, 0
1, 135198, Note_on_c, 1, 55, 0
1, 135200, Note_on_c, 1, 62, 74
1, 135216, Note_on_c, 0, 76, 79
1, 135230, Note_on_c, 1, 62, 0
1, 135231, Note_on_c, 0, 76, 0
1, 135232, Note_on_c, 0, 74, 79
1, 135232, Note_on_c, 1, 65, 74
1, 135247, Note_on_c, 0, 74, 0
1, 135248, Note_on_c, 0, 72, 79
1, 135262, Note_on_c, 1, 65, 0
1, 135263, Note_on_c, 0, 72, 0
1, 135264, Note_on_c, 0, 74, 79
1, 135264, Note_on_c, 1, 55, 74
1, 135294, Note_on_c, 1, 55, 0
1, 135296, Note_on_c, 1, 62, 74
1, 135326, Note_on_c, 1, 62, 0
1, 135328, Note_on_c, 1, 65, 74
1, 135336, Note_on_c, 0, 74, 0
1, 135336, Note_on_c, 0, 76, 80
1, 135358, Note_on_c, 1, 65, 0
1, 135359, Note_on_c, 0, 76, 0
1, 135360, Note_on_c, 0, 72, 80
1, 135360, Note_on_c, 1, 57, 74
1, 135390, Note_on_c, 1, 57, 0
1, 135392, Note_on_c, 1, 60, 74
1, 135422, Note_on_c, 1, 60, 0
1, 135424, Note_on_c, 1, 64, 74
1, 135427, Note_on_c, 0, 72, 0
1, 135432, Note_on_c, 0, 74, 80
1, 135454, Note_on_c, 1, 64, 0
1, 135455, Note_on_c, 0, 74, 0
1, 135456, Note_on_c, 0, 76, 81
1, 135456, Note_on_c, 1, 57, 74
1, 135486, Note_on_c, 1, 57, 0
1, 135488, Note_on_c, 1, 60, 74
1, 135518, Note_on_c, 1, 60, 0
1, 135520, Note_on_c, 1, 64, 74
1, 135523, Note_on_c, 0, 76, 0
1, 135528, Note_on_c, 0, 72, 81
1, 135550, Note_on_c, 1, 64, 0
1, 135551, Note_on_c, 0, 72, 0
1, 135552, Note_on_c, 0, 74, 81
1, 135552, Note_on_c, 1, 53, 74
1, 135582, Note_on_c, 1, 53, 0
1, 135584, Note_on_c, 1, 57, 74
1, 135591, Note_on_c, 0, 74, 0
1, 135614, Note_on_c, 1, 57, 0
1, 135616, Note_on_c, 1, 62, 74
1, 135646, Note_on_c, 1, 62, 0
1, 135648, Note_on_c, 0, 74, 82
1, 135648, Note_on_c, 1, 53, 74
1, 135678, Note_on_c, 1, 53, 0
1, 135680, Note_on_c, 1, 57, 74
1, 135687, Note_on_c, 0, 74, 0
1, 135710, Note_on_c, 1, 57, 0
1, 135712, Note_on_c, 1, 62, 74
1, 135742, Note_on_c, 1, 62, 0
1, 135744, Note_on_c, 0, 79, 99
1, 135744, Note_on_c, 0, 71, 69
1, 135744, Note_on_c, 1, 55, 74
1, 135774, Note_on_c, 1, 55, 0
1, 135776, Note_on_c, 1, 62, 74
1, 135806, Note_on_c, 1, 62, 0
1, 135808, Note_on_c, 1, 65, 74
1, 135838, Note_on_c, 1, 65, 0
1, 135840, Note_on_c, 1, 55, 74
1, 135863, Note_on_c, 0, 79, 0
1, 135864, Note_on_c, 0, 77, 84
1, 135870, Note_on_c, 1, 55, 0
1, 135872, Note_on_c, 1, 62, 74
1, 135887, Note_on_c, 0, 77, 0
1, 135888, Note_on_c, 0, 76, 84
1, 135902, Note_on_c, 1, 62, 0
1, 135904, Note_on_c, 1, 65, 74
1, 135911, Note_on_c, 0, 76, 0
1, 135912, Note_on_c, 0, 74, 84
1, 135921, Note_on_c, 0, 71, 0
1, 135934, Note_on_c, 1, 65, 0
1, 135935, Note_on_c, 0, 74, 0
1, 135936, Note_on_c, 0, 72, 85
1, 135936, Note_on_c, 1, 60, 79
1, 135966, Note_on_c, 1, 60, 0
1, 135968, Note_on_c, 1, 64, 79
1, 135998, Note_on_c, 1, 64, 0
1, 136000, Note_on_c, 1, 67, 79
1, 136025, Note_on_c, 0, 72, 0
1, 136030, Note_on_c, 1, 67, 0
1, 136032, Note_on_c, 1, 60, 79
1, 136062, Note_on_c, 1, 60, 0
1, 136064, Note_on_c, 1, 64, 79
1, 136094, Note_on_c, 1, 64, 0
1, 136096, Note_on_c, 1, 67, 79
1, 136126, Note_on_c, 1, 67, 0
1, 136128, Note_on_c, 1, 60, 79
1, 136158, Note_on_c, 1, 60, 0
1, 136160, Note_on_c, 1, 64, 79
1, 136190, Note_on_c, 1, 64, 0
1, 136192, Note_on_c, 1, 67, 79
1, 136222, Note_on_c, 1, 67, 0
1, 136224, Note_on_c, 0, 79, 92
1, 136224, Note_on_c, 1, 55, 79
1, 136254, Note_on_c, 1, 55, 0
1, 136256, Note_on_c, 1, 59, 79
1, 136286, Note_on_c, 1, 59, 0
1, 136288, Note_on_c, 1, 67, 79
1, 136296, Note_on_c, 0, 79, 0
1, 136296, Note_on_c, 0, 83, 92
1, 136318, Note_on_c, 1, 67, 0
1, 136319, Note_on_c, 0, 83, 0
1, 136320, Note_on_c, 0, 84, 92
1, 136320, Note_on_c, 1, 60, 79
1, 136350, Note_on_c, 1, 60, 0
1, 136352, Note_on_c, 1, 64, 79
1, 136359, Note_on_c, 0, 84, 0
1, 136382, Note_on_c, 1, 64, 0
1, 136384, Note_on_c, 1, 67, 79
1, 136414, Note_on_c, 1, 67, 0
1, 136416, Note_on_c, 0, 84, 92
1, 136416, Note_on_c, 1, 60, 79
1, 136446, Note_on_c, 1, 60, 0
1, 136448, Note_on_c, 1, 64, 79
1, 136455, Note_on_c, 0, 84, 0
1, 136478, Note_on_c, 1, 64, 0
1, 136480, Note_on_c, 1, 67, 79
1, 136510, Note_on_c, 1, 67, 0
1, 136512, Note_on_c, 0, 84, 92
1, 136512, Note_on_c, 1, 60, 79
1, 136542, Note_on_c, 1, 60, 0
1, 136544, Note_on_c, 1, 64, 79
1, 136551, Note_on_c, 0, 84, 0
1, 136574, Note_on_c, 1, 64, 0
1, 136576, Note_on_c, 1, 67, 79
1, 136606, Note_on_c, 1, 67, 0
1, 136608, Note_on_c, 0, 88, 92
1, 136608, Note_on_c, 1, 55, 79
1, 136632, Note_on_c, 0, 88, 0
1, 136632, Note_on_c, 0, 86, 92
1, 136638, Note_on_c, 1, 55, 0
1, 136640, Note_on_c, 1, 59, 79
1, 136656, Note_on_c, 0, 86, 0
1, 136656, Note_on_c, 0, 84, 92
1, 136670, Note_on_c, 1, 59, 0
1, 136672, Note_on_c, 1, 67, 79
1, 136680, Note_on_c, 0, 84, 0
1, 136680, Note_on_c, 0, 86, 92
1, 136702, Note_on_c, 1, 67, 0
1, 136704, Note_on_c, 0, 86, 0
1, 136704, Note_on_c, 0, 88, 92
1, 136704, Note_on_c, 1, 60, 79
1, 136734, Note_on_c, 1, 60, 0
1, 136736, Note_on_c, 1, 64, 79
1, 136743, Note_on_c, 0, 88, 0
1, 136766, Note_on_c, 1, 64, 0
1, 136768, Note_on_c, 1, 67, 79
1, 136798, Note_on_c, 1, 67, 0
1, 136800, Note_on_c, 0, 84, 92
1, 136800, Note_on_c, 1, 60, 79
1, 136830, Note_on_c, 1, 60, 0
1, 136832, Note_on_c, 1, 64, 79
1, 136839, Note_on_c, 0, 84, 0
1, 136862, Note_on_c, 1, 64, 0
1, 136864, Note_on_c, 1, 67, 79
1, 136894, Note_on_c, 1, 67, 0
1, 136896, Note_on_c, 0, 84, 92
1, 136896, Note_on_c, 1, 60, 79
1, 136926, Note_on_c, 1, 60, 0
1, 136928, Note_on_c, 1, 64, 79
1, 136935, Note_on_c, 0, 84, 0
1, 136958, Note_on_c, 1, 64, 0
1, 136960, Note_on_c, 1, 67, 79
1, 136990, Note_on_c, 1, 67, 0
1, 136992, Note_on_c, 0, 79, 92
1, 136992, Note_on_c, 1, 55, 79
1, 137022, Note_on_c, 1, 55, 0
1, 137024, Note_on_c, 1, 59, 79
1, 137054, Note_on_c, 1, 59, 0
1, 137056, Note_on_c, 1, 67, 79
1, 137064, Note_on_c, 0, 79, 0
1, 137064, Note_on_c, 0, 83, 92
1, 137086, Note_on_c, 1, 67, 0
1, 137087, Note_on_c, 0, 83, 0
1, 137088, Note_on_c, 0, 84, 92
1, 137088, Note_on_c, 1, 60, 79
1, 137118, Note_on_c, 1, 60, 0
1, 137120, Note_on_c, 1, 64, 79
1, 137127, Note_on_c, 0, 84, 0
1, 137150, Note_on_c, 1, 64, 0
1, 137152, Note_on_c, 1, 67, 79
1, 137182, Note_on_c, 1, 67, 0
1, 137184, Note_on_c, 0, 84, 92
1, 137184, Note_on_c, 1, 60, 79
1, 137214, Note_on_c, 1, 60, 0
1, 137216, Note_on_c, 1, 64, 79
1, 137223, Note_on_c, 0, 84, 0
1, 137246, Note_on_c, 1, 64, 0
1, 137248, Note_on_c, 1, 67, 79
1, 137278, Note_on_c, 1, 67, 0
1, 137280, Note_on_c, 0, 84, 92
1, 137280, Note_on_c, 1, 60, 79
1, 137310, Note_on_c, 1, 60, 0
1, 137312, Note_on_c, 1, 64, 79
1, 137319, Note_on_c, 0, 84, 0
1, 137342, Note_on_c, 1, 64, 0
1, 137344, Note_on_c, 1, 67, 79
1, 137374, Note_on_c, 1, 67, 0
1, 137376, Note_on_c, 0, 88, 92
1, 137376, Note_on_c, 1, 55, 79
1, 137388, Note_on_c, 0, 88, 0
1, 137388, Note_on_c, 0, 86, 92
1, 137400, Note_on_c, 0, 86, 0
1, 137400, Note_on_c, 0, 84, 92
1, 137406, Note_on_c, 1, 55, 0
1, 137408, Note_on_c, 1, 59, 79
1, 137412, Note_on_c, 0, 84, 0
1, 137412, Note_on_c, 0, 86, 92
1, 137438, Note_on_c, 1, 59, 0
1, 137440, Note_on_c, 1, 67, 79
1, 137443, Note_on_c, 0, 86, 0
1, 137448, Note_on_c, 0, 88, 92
1, 137470, Note_on_c, 1, 67, 0
1, 137471, Note_on_c, 0, 88, 0
1, 137472, Note_on_c, 0, 84, 92
1, 137472, Note_on_c, 1, 60, 79
1, 137502, Note_on_c, 1, 60, 0
1, 137504, Note_on_c, 1, 64, 79
1, 137534, Note_on_c, 1, 64, 0
1, 137536, Note_on_c, 1, 67, 79
1, 137561, Note_on_c, 0, 84, 0
1, 137566, Note_on_c, 1, 67, 0
1, 137568, Note_on_c, 1, 60, 79
1, 137598, Note_on_c, 1, 60, 0
1, 137600, Note_on_c, 1, 64, 79
1, 137630, Note_on_c, 1, 64, 0
1, 137632, Note_on_c, 1, 67, 79
1, 137662, Note_on_c, 1, 67, 0
1, 137664, Note_on_c, 1, 60, 79
1, 137694, Note_on_c, 1, 60, 0
1, 137696, Note_on_c, 1, 64, 79
1, 137726, Note_on_c, 1, 64, 0
1, 137728, Note_on_c, 1, 67, 79
1, 137758, Note_on_c, 1, 67, 0
1, 137760, Note_on_c, 0, 79, 92
1, 137760, Note_on_c, 1, 55, 79
1, 137790, Note_on_c, 1, 55, 0
1, 137792, Note_on_c, 1, 59, 79
1, 137822, Note_on_c, 1, 59, 0
1, 137824, Note_on_c, 1, 67, 79
1, 137832, Note_on_c, 0, 79, 0
1, 137832, Note_on_c, 0, 83, 92
1, 137854, Note_on_c, 1, 67, 0
1, 137855, Note_on_c, 0, 83, 0
1, 137856, Note_on_c, 0, 84, 92
1, 137856, Note_on_c, 1, 60, 79
1, 137886, Note_on_c, 1, 60, 0
1, 137888, Note_on_c, 1, 64, 79
1, 137895, Note_on_c, 0, 84, 0
1, 137918, Note_on_c, 1, 64, 0
1, 137920, Note_on_c, 1, 67, 79
1, 137950, Note_on_c, 1, 67, 0
1, 137952, Note_on_c, 0, 84, 92
1, 137952, Note_on_c, 1, 60, 79
1, 137982, Note_on_c, 1, 60, 0
1, 137984, Note_on_c, 1, 64, 79
1, 137991, Note_on_c, 0, 84, 0
1, 138014, Note_on_c, 1, 64, 0
1, 138016, Note_on_c, 1, 67, 79
1, 138046, Note_on_c, 1, 67, 0
1, 138048, Note_on_c, 0, 84, 92
1, 138048, Note_on_c, 1, 60, 79
1, 138078, Note_on_c, 1, 60, 0
1, 138080, Note_on_c, 1, 64, 79
1, 138087, Note_on_c, 0, 84, 0
1, 138110, Note_on_c, 1, 64, 0
1, 138112, Note_on_c, 1, 67, 79
1, 138142, Note_on_c, 1, 67, 0
1, 138144, Note_on_c, 0, 88, 92
1, 138144, Note_on_c, 1, 55, 79
1, 138168, Note_on_c, 0, 88, 0
1, 138168, Note_on_c, 0, 86, 92
1, 138174, Note_on_c, 1, 55, 0
1, 138176, Note_on_c, 1, 59, 79
1, 138192, Note_on_c, 0, 86, 0
1, 138192, Note_on_c, 0, 84, 92
1, 138206, Note_on_c, 1, 59, 0
1, 138208, Note_on_c, 1, 67, 79
1, 138216, Note_on_c, 0, 84, 0
1, 138216, Note_on_c, 0, 86, 92
1, 138238, Note_on_c, 1, 67, 0
1, 138240, Note_on_c, 0, 86, 0
1, 138240, Note_on_c, 0, 88, 92
1, 138240, Note_on_c, 1, 60, 79
1, 138270, Note_on_c, 1, 60, 0
1, 138272, Note_on_c, 1, 64, 79
1, 138279, Note_on_c, 0, 88, 0
1, 138302, Note_on_c, 1, 64, 0
1, 138304, Note_on_c, 1, 67, 79
1, 138334, Note_on_c, 1, 67, 0
1, 138336, Note_on_c, 0, 84, 92
1, 138336, Note_on_c, 1, 60, 79
1, 138366, Note_on_c, 1, 60, 0
1, 138368, Note_on_c, 1, 64, 79
1, 138375, Note_on_c, 0, 84, 0
1, 138398, Note_on_c, 1, 64, 0
1, 138400, Note_on_c, 1, 67, 79
1, 138430, Note_on_c, 1, 67, 0
1, 138432, Note_on_c, 0, 84, 92
1, 138432, Note_on_c, 1, 60, 79
1, 138462, Note_on_c, 1, 60, 0
1, 138464, Note_on_c, 1, 64, 79
1, 138471, Note_on_c, 0, 84, 0
1, 138494, Note_on_c, 1, 64, 0
1, 138496, Note_on_c, 1, 67, 79
1, 138526, Note_on_c, 1, 67, 0
1, 138528, Note_on_c, 0, 79, 92
1, 138528, Note_on_c, 1, 55, 79
1, 138558, Note_on_c, 1, 55, 0
1, 138560, Note_on_c, 1, 59, 79
1, 138590, Note_on_c, 1, 59, 0
1, 138592, Note_on_c, 1, 67, 79
1, 138600, Note_on_c, 0, 79, 0
1, 138600, Note_on_c, 0, 83, 92
1, 138622, Note_on_c, 1, 67, 0
1, 138623, Note_on_c, 0, 83, 0
1, 138624, Note_on_c, 0, 84, 92
1, 138624, Note_on_c, 1, 60, 79
1, 138654, Note_on_c, 1, 60, 0
1, 138656, Note_on_c, 1, 64, 79
1, 138663, Note_on_c, 0, 84, 0
1, 138686, Note_on_c, 1, 64, 0
1, 138688, Note_on_c, 1, 67, 79
1, 138718, Note_on_c, 1, 67, 0
1, 138720, Note_on_c, 0, 84, 92
1, 138720, Note_on_c, 1, 60, 79
1, 138750, Note_on_c, 1, 60, 0
1, 138752, Note_on_c, 1, 64, 79
1, 138759, Note_on_c, 0, 84, 0
1, 138782, Note_on_c, 1, 64, 0
1, 138784, Note_on_c, 1, 67, 79
1, 138814, Note_on_c, 1, 67, 0
1, 138816, Note_on_c, 0, 84, 92
1, 138816, Note_on_c, 1, 60, 79
1, 138846, Note_on_c, 1, 60, 0
1, 138848, Note_on_c, 1, 64, 79
1, 138855, Note_on_c, 0, 84, 0
1, 138878, Note_on_c, 1, 64, 0
1, 138880, Note_on_c, 1, 67, 79
1, 138910, Note_on_c, 1, 67, 0
1, 138912, Note_on_c, 0, 88, 92
1, 138912, Note_on_c, 1, 55, 79
1, 138924, Note_on_c, 0, 88, 0
1, 138924, Note_on_c, 0, 86, 92
1, 138936, Note_on_c, 0, 86, 0
1, 138936, Note_on_c, 0, 84, 92
1, 138942, Note_on_c, 1, 55, 0
1, 138944, Note_on_c, 1, 59, 79
1, 138948, Note_on_c, 0, 84, 0
1, 138948, Note_on_c, 0, 86, 92
1, 138974, Note_on_c, 1, 59, 0
1, 138976, Note_on_c, 1, 67, 79
1, 138979, Note_on_c, 0, 86, 0
1, 138984, Note_on_c, 0, 88, 92
1, 139006, Note_on_c, 1, 67, 0
1, 139007, Note_on_c, 0, 88, 0
1, 139008, Note_on_c, 0, 84, 92
1, 139008, Note_on_c, 1, 60, 79
1, 139038, Note_on_c, 1, 60, 0
1, 139040, Note_on_c, 1, 64, 79
1, 139070, Note_on_c, 1, 64, 0
1, 139072, Note_on_c, 1, 67, 79
1, 139097, Note_on_c, 0, 84, 0
1, 139102, Note_on_c, 1, 67, 0
1, 139104, Note_on_c, 1, 60, 79
1, 139134, Note_on_c, 1, 60, 0
1, 139136, Note_on_c, 1, 64, 79
1, 139166, Note_on_c, 1, 64, 0
1, 139168, Note_on_c, 1, 67, 79
1, 139198, Note_on_c, 1, 67, 0
1, 139200, Note_on_c, 0, 79, 92
1, 139200, Note_on_c, 0, 76, 92
1, 139200, Note_on_c, 1, 60, 79
1, 139230, Note_on_c, 1, 60, 0
1, 139232, Note_on_c, 1, 64, 79
1, 139262, Note_on_c, 1, 64, 0
1, 139264, Note_on_c, 1, 67, 79
1, 139289, Note_on_c, 0, 79, 0
1, 139289, Note_on_c, 0, 76, 0
1, 139294, Note_on_c, 1, 67, 0
1, 139296, Note_on_c, 1, 60, 79
1, 139326, Note_on_c, 1, 60, 0
1, 139328, Note_on_c, 1, 64, 79
1, 139358, Note_on_c, 1, 64, 0
1, 139360, Note_on_c, 1, 67, 79
1, 139390, Note_on_c, 1, 67, 0
1, 139392, Note_on_c, 0, 76, 92
1, 139392, Note_on_c, 0, 72, 92
1, 139392, Note_on_c, 0, 76, 69
1, 139392, Note_on_c, 1, 60, 79
1, 139422, Note_on_c, 1, 60, 0
1, 139424, Note_on_c, 1, 64, 79
1, 139454, Note_on_c, 1, 64, 0
1, 139456, Note_on_c, 1, 67, 79
1, 139481, Note_on_c, 0, 76, 0
1, 139481, Note_on_c, 0, 72, 0
1, 139481, Note_on_c, 0, 76, 0
1, 139486, Note_on_c, 1, 67, 0
1, 139488, Note_on_c, 1, 60, 79
1, 139518, Note_on_c, 1, 60, 0
1, 139520, Note_on_c, 1, 64, 79
1, 139550, Note_on_c, 1, 64, 0
1, 139552, Note_on_c, 1, 67, 79
1, 139582, Note_on_c, 1, 67, 0
1, 139584, Note_on_c, 0, 55, 92
1, 139584, Note_on_c, 0, 52, 92
1, 139584, Note_on_c, 1, 60, 79
1, 139614, Note_on_c, 1, 60, 0
1, 139616, Note_on_c, 1, 64, 79
1, 139646, Note_on_c, 1, 64, 0
1, 139648, Note_on_c, 1, 67, 79
1, 139673, Note_on_c, 0, 55, 0
1, 139673, Note_on_c, 0, 52, 0
1, 139678, Note_on_c, 1, 67, 0
1, 139680, Note_on_c, 1, 60, 79
1, 139710, Note_on_c, 1, 60, 0
1, 139712, Note_on_c, 1, 64, 79
1, 139742, Note_on_c, 1, 64, 0
1, 139744, Note_on_c, 1, 67, 79
1, 139774, Note_on_c, 1, 67, 0
1, 139776, Note_on_c, 0, 52, 85
1, 139776, Note_on_c, 0, 48, 85
1, 139776, Note_on_c, 1, 60, 85
1, 139909, Note_on_c, 0, 52, 0
1, 139909, Note_on_c, 0, 48, 0
1, 139909, Note_on_c, 1, 60, 0
1, 140160, Note_on_c, 1, 60, 0
1, 140249, Note_on_c, 1, 60, 0
1, 140259, End_track
0, 0, End_of_file