0, 0, Header, 0, 1, 96
1, 0, Start_track
1, 0, Tempo, 705882
1, 0, Note_on_c, 0, 79, 74
1, 0, Note_on_c, 0, 75, 74
1, 48, Note_on_c, 1, 48, 74
1, 96, Note_on_c, 1, 48, 0
1, 96, Note_on_c, 1, 60, 74
1, 116, Note_on_c, 1, 60, 0
1, 144, Note_on_c, 0, 79, 0
1, 144, Note_on_c, 0, 75, 0
1, 144, Note_on_c, 0, 77, 74
1, 144, Note_on_c, 0, 74, 74
1, 189, Note_on_c, 0, 77, 0
1, 189, Note_on_c, 0, 74, 0
1, 192, Note_on_c, 0, 80, 74
1, 192, Note_on_c, 0, 77, 74
1, 240, Note_on_c, 1, 48, 74
1, 288, Note_on_c, 1, 48, 0
1, 288, Note_on_c, 1, 60, 74
1, 308, Note_on_c, 1, 60, 0
1, 336, Note_on_c, 0, 80, 0
1, 336, Note_on_c, 0, 77, 0
1, 336, Note_on_c, 0, 79, 74
1, 336, Note_on_c, 0, 75, 74
1, 381, Note_on_c, 0, 79, 0
1, 381, Note_on_c, 0, 75, 0
1, 384, Note_on_c, 0, 77, 74
1, 384, Note_on_c, 0, 68, 74
1, 429, Note_on_c, 0, 77, 0
1, 429, Note_on_c, 0, 68, 0
1, 432, Note_on_c, 0, 75, 75
1, 432, Note_on_c, 0, 67, 75
1, 432, Note_on_c, 1, 48, 74
1, 477, Note_on_c, 0, 75, 0
1, 477, Note_on_c, 0, 67, 0
1, 477, Note_on_c, 1, 48, 0
1, 480, Note_on_c, 0, 74, 76
1, 480, Note_on_c, 0, 65, 76
1, 480, Note_on_c, 1, 53, 74
1, 525, Note_on_c, 0, 74, 0
1, 525, Note_on_c, 0, 65, 0
1, 525, Note_on_c, 1, 53, 0
1, 528, Note_on_c, 0, 72, 77
1, 528, Note_on_c, 0, 63, 77
1, 528, Note_on_c, 1, 54, 74
1, 573, Note_on_c, 0, 72, 0
1, 573, Note_on_c, 0, 63, 0
1, 573, Note_on_c, 1, 54, 0
1, 576, Note_on_c, 0, 71, 79
1, 576, Note_on_c, 0, 63, 64
1, 576, Note_on_c, 1, 55, 74
1, 582, Note_on_c, 0, 71, 0
1, 582, Note_on_c, 0, 72, 79
1, 588, Note_on_c, 0, 72, 0
1, 588, Note_on_c, 0, 74, 79
1, 594, Note_on_c, 0, 74, 0
1, 594, Note_on_c, 0, 72, 79
1, 665, Note_on_c, 0, 63, 0
1, 665, Note_on_c, 1, 55, 0
1, 672, Note_on_c, 0, 72, 0
1, 672, Note_on_c, 0, 71, 75
1, 672, Note_on_c, 0, 62, 64
1, 672, Note_on_c, 1, 43, 74
1, 717, Note_on_c, 0, 71, 0
1, 717, Note_on_c, 0, 62, 0
1, 717, Note_on_c, 1, 43, 0
1, 720, Note_on_c, 0, 68, 64
1, 720, Note_on_c, 1, 63, 74
1, 720, Note_on_c, 1, 60, 74
1, 765, Note_on_c, 0, 68, 0
1, 765, Note_on_c, 1, 63, 0
1, 765, Note_on_c, 1, 60, 0
1, 768, Note_on_c, 0, 67, 74
1, 768, Note_on_c, 1, 62, 74
1, 768, Note_on_c, 1, 59, 74
1, 774, Note_on_c, 0, 67, 0
1, 774, Note_on_c, 0, 68, 74
1, 780, Note_on_c, 0, 68, 0
1, 780, Note_on_c, 0, 70, 74
1, 786, Note_on_c, 0, 70, 0
1, 786, Note_on_c, 0, 68, 74
1, 864, Note_on_c, 0, 68, 0
1, 864, Note_on_c, 0, 67, 74
1, 884, Note_on_c, 0, 67, 0
1, 901, Note_on_c, 1, 62, 0
1, 901, Note_on_c, 1, 59, 0
1, 912, Note_on_c, 0, 72, 74
1, 912, Note_on_c, 1, 67, 74
1, 912, Note_on_c, 1, 63, 74
1, 957, Note_on_c, 0, 72, 0
1, 957, Note_on_c, 1, 67, 0
1, 957, Note_on_c, 1, 63, 0
1, 960, Note_on_c, 0, 71, 74
1, 960, Note_on_c, 1, 65, 74
1, 960, Note_on_c, 1, 62, 74
1, 966, Note_on_c, 0, 71, 0
1, 966, Note_on_c, 0, 72, 74
1, 972, Note_on_c, 0, 72, 0
1, 972, Note_on_c, 0, 74, 74
1, 978, Note_on_c, 0, 74, 0
1, 978, Note_on_c, 0, 72, 74
1, 1056, Note_on_c, 0, 72, 0
1, 1056, Note_on_c, 0, 71, 74
1, 1066, Note_on_c, 0, 71, 0
1, 1080, Note_on_c, 0, 80, 74
1, 1093, Note_on_c, 1, 65, 0
1, 1093, Note_on_c, 1, 62, 0
1, 1103, Note_on_c, 0, 80, 0
1, 1104, Note_on_c, 0, 79, 74
1, 1104, Note_on_c, 1, 67, 74
1, 1104, Note_on_c, 1, 59, 74
1, 1127, Note_on_c, 0, 79, 0
1, 1128, Note_on_c, 0, 77, 74
1, 1151, Note_on_c, 0, 77, 0
1, 1152, Note_on_c, 0, 77, 74
1, 1152, Note_on_c, 1, 59, 0
1, 1152, Note_on_c, 1, 60, 64
1, 1175, Note_on_c, 0, 77, 0
1, 1176, Note_on_c, 0, 75, 74
1, 1197, Note_on_c, 1, 60, 0
1, 1199, Note_on_c, 0, 75, 0
1, 1200, Note_on_c, 0, 74, 74
1, 1200, Note_on_c, 1, 63, 64
1, 1206, Note_on_c, 0, 74, 0
1, 1206, Note_on_c, 0, 75, 74
1, 1212, Note_on_c, 0, 75, 0
1, 1212, Note_on_c, 0, 74, 74
1, 1223, Note_on_c, 0, 74, 0
1, 1224, Note_on_c, 0, 72, 74
1, 1241, Note_on_c, 1, 67, 0
1, 1245, Note_on_c, 1, 63, 0
1, 1247, Note_on_c, 0, 72, 0
1, 1248, Note_on_c, 0, 71, 74
1, 1248, Note_on_c, 1, 65, 74
1, 1248, Note_on_c, 1, 62, 64
1, 1293, Note_on_c, 0, 71, 0
1, 1293, Note_on_c, 1, 65, 0
1, 1293, Note_on_c, 1, 62, 0
1, 1296, Note_on_c, 0, 72, 76
1, 1296, Note_on_c, 1, 63, 74
1, 1296, Note_on_c, 1, 60, 64
1, 1341, Note_on_c, 0, 72, 0
1, 1341, Note_on_c, 1, 63, 0
1, 1341, Note_on_c, 1, 60, 0
1, 1344, Note_on_c, 0, 75, 79
1, 1344, Note_on_c, 1, 60, 74
1, 1344, Note_on_c, 1, 55, 64
1, 1411, Note_on_c, 0, 75, 0
1, 1416, Note_on_c, 0, 77, 76
1, 1428, Note_on_c, 0, 77, 0
1, 1428, Note_on_c, 0, 75, 76
1, 1440, Note_on_c, 0, 75, 0
1, 1440, Note_on_c, 0, 74, 75
1, 1440, Note_on_c, 1, 60, 0
1, 1440, Note_on_c, 1, 59, 74
1, 1477, Note_on_c, 1, 55, 0
1, 1485, Note_on_c, 0, 74, 0
1, 1485, Note_on_c, 1, 59, 0
1, 1536, Note_on_c, 0, 67, 74
1, 1536, Note_on_c, 0, 63, 74
1, 1584, Note_on_c, 1, 36, 74
1, 1632, Note_on_c, 1, 36, 0
1, 1632, Note_on_c, 1, 48, 74
1, 1652, Note_on_c, 1, 48, 0
1, 1680, Note_on_c, 0, 67, 0
1, 1680, Note_on_c, 0, 63, 0
1, 1680, Note_on_c, 0, 65, 74
1, 1680, Note_on_c, 0, 62, 74
1, 1725, Note_on_c, 0, 65, 0
1, 1725, Note_on_c, 0, 62, 0
1, 1728, Note_on_c, 0, 68, 74
1, 1728, Note_on_c, 0, 65, 74
1, 1776, Note_on_c, 1, 36, 74
1, 1824, Note_on_c, 1, 36, 0
1, 1824, Note_on_c, 1, 48, 74
1, 1844, Note_on_c, 1, 48, 0
1, 1872, Note_on_c, 0, 68, 0
1, 1872, Note_on_c, 0, 65, 0
1, 1872, Note_on_c, 0, 67, 74
1, 1872, Note_on_c, 0, 63, 74
1, 1917, Note_on_c, 0, 67, 0
1, 1917, Note_on_c, 0, 63, 0
1, 1920, Note_on_c, 0, 72, 74
1, 1968, Note_on_c, 1, 67, 74
1, 1968, Note_on_c, 1, 63, 74
1, 2013, Note_on_c, 1, 67, 0
1, 2013, Note_on_c, 1, 63, 0
1, 2016, Note_on_c, 1, 65, 74
1, 2016, Note_on_c, 1, 62, 74
1, 2050, Note_on_c, 0, 72, 0
1, 2052, Note_on_c, 0, 71, 74
1, 2061, Note_on_c, 1, 65, 0
1, 2061, Note_on_c, 1, 62, 0
1, 2064, Note_on_c, 0, 71, 0
1, 2064, Note_on_c, 0, 74, 74
1, 2064, Note_on_c, 1, 68, 74
1, 2064, Note_on_c, 1, 65, 74
1, 2098, Note_on_c, 0, 74, 0
1, 2100, Note_on_c, 0, 72, 74
1, 2109, Note_on_c, 1, 68, 0
1, 2109, Note_on_c, 1, 65, 0
1, 2112, Note_on_c, 0, 72, 0
1, 2112, Note_on_c, 0, 75, 74
1, 2112, Note_on_c, 1, 67, 74
1, 2112, Note_on_c, 1, 63, 74
1, 2132, Note_on_c, 0, 75, 0
1, 2157, Note_on_c, 1, 67, 0
1, 2157, Note_on_c, 1, 63, 0
1, 2208, Note_on_c, 0, 72, 74
1, 2220, Note_on_c, 0, 72, 0
1, 2220, Note_on_c, 0, 74, 74
1, 2232, Note_on_c, 0, 74, 0
1, 2232, Note_on_c, 0, 75, 75
1, 2244, Note_on_c, 0, 75, 0
1, 2244, Note_on_c, 0, 77, 75
1, 2256, Note_on_c, 0, 77, 0
1, 2256, Note_on_c, 0, 79, 76
1, 2268, Note_on_c, 0, 79, 0
1, 2268, Note_on_c, 0, 80, 77
1, 2280, Note_on_c, 0, 80, 0
1, 2280, Note_on_c, 0, 82, 77
1, 2292, Note_on_c, 0, 82, 0
1, 2292, Note_on_c, 0, 84, 78
1, 2304, Note_on_c, 0, 84, 0
1, 2304, Note_on_c, 0, 82, 95
1, 2352, Note_on_c, 1, 72, 74
1, 2352, Note_on_c, 1, 65, 74
1, 2376, Note_on_c, 0, 82, 0
1, 2376, Note_on_c, 0, 80, 79
1, 2382, Note_on_c, 0, 80, 0
1, 2382, Note_on_c, 0, 82, 79
1, 2388, Note_on_c, 0, 82, 0
1, 2388, Note_on_c, 0, 80, 79
1, 2397, Note_on_c, 1, 72, 0
1, 2397, Note_on_c, 1, 65, 0
1, 2399, Note_on_c, 0, 80, 0
1, 2400, Note_on_c, 0, 79, 79
1, 2448, Note_on_c, 1, 72, 74
1, 2448, Note_on_c, 1, 63, 74
1, 2467, Note_on_c, 0, 79, 0
1, 2472, Note_on_c, 0, 84, 79
1, 2493, Note_on_c, 1, 72, 0
1, 2493, Note_on_c, 1, 63, 0
1, 2495, Note_on_c, 0, 84, 0
1, 2496, Note_on_c, 0, 79, 79
1, 2544, Note_on_c, 1, 71, 74
1, 2544, Note_on_c, 1, 62, 74
1, 2563, Note_on_c, 0, 79, 0
1, 2568, Note_on_c, 0, 77, 79
1, 2574, Note_on_c, 0, 77, 0
1, 2574, Note_on_c, 0, 79, 79
1, 2580, Note_on_c, 0, 79, 0
1, 2580, Note_on_c, 0, 77, 79
1, 2589, Note_on_c, 1, 71, 0
1, 2589, Note_on_c, 1, 62, 0
1, 2591, Note_on_c, 0, 77, 0
1, 2592, Note_on_c, 0, 75, 79
1, 2637, Note_on_c, 0, 75, 0
1, 2640, Note_on_c, 1, 72, 74
1, 2640, Note_on_c, 1, 60, 74
1, 2685, Note_on_c, 1, 72, 0
1, 2685, Note_on_c, 1, 60, 0
1, 2688, Note_on_c, 1, 68, 74
1, 2688, Note_on_c, 1, 65, 74
1, 2712, Note_on_c, 0, 73, 79
1, 2735, Note_on_c, 0, 73, 0
1, 2736, Note_on_c, 0, 75, 79
1, 2742, Note_on_c, 0, 75, 0
1, 2742, Note_on_c, 0, 73, 79
1, 2748, Note_on_c, 0, 73, 0
1, 2748, Note_on_c, 0, 72, 79
1, 2754, Note_on_c, 0, 72, 0
1, 2754, Note_on_c, 0, 73, 79
1, 2760, Note_on_c, 0, 73, 0
1, 2760, Note_on_c, 0, 80, 79
1, 2777, Note_on_c, 1, 68, 0
1, 2777, Note_on_c, 1, 65, 0
1, 2783, Note_on_c, 0, 80, 0
1, 2784, Note_on_c, 0, 72, 79
1, 2784, Note_on_c, 1, 63, 74
1, 2784, Note_on_c, 1, 55, 74
1, 2804, Note_on_c, 1, 63, 0
1, 2804, Note_on_c, 1, 55, 0
1, 2829, Note_on_c, 0, 72, 0
1, 2832, Note_on_c, 0, 71, 79
1, 2832, Note_on_c, 1, 62, 74
1, 2832, Note_on_c, 1, 55, 74
1, 2838, Note_on_c, 0, 71, 0
1, 2838, Note_on_c, 0, 72, 79
1, 2844, Note_on_c, 0, 72, 0
1, 2844, Note_on_c, 0, 71, 79
1, 2852, Note_on_c, 1, 62, 0
1, 2852, Note_on_c, 1, 55, 0
1, 2879, Note_on_c, 0, 71, 0
1, 2880, Note_on_c, 0, 72, 79
1, 2880, Note_on_c, 1, 60, 74
1, 2880, Note_on_c, 1, 48, 74
1, 2919, Note_on_c, 0, 72, 0
1, 2969, Note_on_c, 1, 60, 0
1, 2969, Note_on_c, 1, 48, 0
1, 3072, Note_on_c, 0, 63, 99
1, 3168, Note_on_c, 1, 61, 79
1, 3168, Note_on_c, 1, 58, 79
1, 3168, Note_on_c, 1, 51, 79
1, 3191, Note_on_c, 0, 63, 0
1, 3192, Note_on_c, 0, 63, 83
1, 3215, Note_on_c, 0, 63, 0
1, 3216, Note_on_c, 0, 65, 83
1, 3228, Note_on_c, 0, 65, 0
1, 3228, Note_on_c, 0, 63, 83
1, 3240, Note_on_c, 0, 63, 0
1, 3240, Note_on_c, 0, 62, 83
1, 3252, Note_on_c, 0, 62, 0
1, 3252, Note_on_c, 0, 63, 83
1, 3257, Note_on_c, 1, 61, 0
1, 3257, Note_on_c, 1, 58, 0
1, 3257, Note_on_c, 1, 51, 0
1, 3264, Note_on_c, 0, 63, 0
1, 3264, Note_on_c, 0, 68, 83
1, 3264, Note_on_c, 1, 60, 79
1, 3264, Note_on_c, 1, 56, 79
1, 3264, Note_on_c, 1, 51, 79
1, 3287, Note_on_c, 0, 68, 0
1, 3288, Note_on_c, 0, 63, 83
1, 3311, Note_on_c, 0, 63, 0
1, 3312, Note_on_c, 0, 65, 83
1, 3324, Note_on_c, 0, 65, 0
1, 3324, Note_on_c, 0, 63, 83
1, 3336, Note_on_c, 0, 63, 0
1, 3336, Note_on_c, 0, 62, 83
1, 3348, Note_on_c, 0, 62, 0
1, 3348, Note_on_c, 0, 63, 83
1, 3353, Note_on_c, 1, 60, 0
1, 3353, Note_on_c, 1, 56, 0
1, 3353, Note_on_c, 1, 51, 0
1, 3360, Note_on_c, 0, 63, 0
1, 3360, Note_on_c, 0, 70, 83
1, 3360, Note_on_c, 1, 61, 79
1, 3360, Note_on_c, 1, 55, 79
1, 3360, Note_on_c, 1, 51, 79
1, 3383, Note_on_c, 0, 70, 0
1, 3384, Note_on_c, 0, 63, 83
1, 3407, Note_on_c, 0, 63, 0
1, 3408, Note_on_c, 0, 65, 83
1, 3420, Note_on_c, 0, 65, 0
1, 3420, Note_on_c, 0, 63, 83
1, 3432, Note_on_c, 0, 63, 0
1, 3432, Note_on_c, 0, 62, 83
1, 3444, Note_on_c, 0, 62, 0
1, 3444, Note_on_c, 0, 63, 83
1, 3449, Note_on_c, 1, 61, 0
1, 3449, Note_on_c, 1, 55, 0
1, 3449, Note_on_c, 1, 51, 0
1, 3456, Note_on_c, 0, 63, 0
1, 3456, Note_on_c, 0, 72, 83
1, 3456, Note_on_c, 1, 60, 79
1, 3456, Note_on_c, 1, 56, 79
1, 3501, Note_on_c, 0, 72, 0
1, 3501, Note_on_c, 1, 60, 0
1, 3501, Note_on_c, 1, 56, 0
1, 3552, Note_on_c, 0, 74, 74
1, 3575, Note_on_c, 0, 74, 0
1, 3576, Note_on_c, 0, 75, 75
1, 3599, Note_on_c, 0, 75, 0
1, 3600, Note_on_c, 0, 77, 76
1, 3623, Note_on_c, 0, 77, 0
1, 3624, Note_on_c, 0, 75, 77
1, 3647, Note_on_c, 0, 75, 0
1, 3648, Note_on_c, 0, 73, 79
1, 3671, Note_on_c, 0, 73, 0
1, 3672, Note_on_c, 0, 72, 77
1, 3695, Note_on_c, 0, 72, 0
1, 3696, Note_on_c, 0, 70, 76
1, 3719, Note_on_c, 0, 70, 0
1, 3720, Note_on_c, 0, 68, 75
1, 3743, Note_on_c, 0, 68, 0
1, 3744, Note_on_c, 0, 67, 74
1, 3764, Note_on_c, 0, 67, 0
1, 3792, Note_on_c, 0, 70, 83
1, 3812, Note_on_c, 0, 70, 0
1, 3840, Note_on_c, 0, 68, 68
1, 3860, Note_on_c, 0, 68, 0
1, 3888, Note_on_c, 0, 73, 83
1, 3908, Note_on_c, 0, 73, 0
1, 3936, Note_on_c, 0, 72, 68
1, 3956, Note_on_c, 0, 72, 0
1, 3984, Note_on_c, 0, 77, 83
1, 4004, Note_on_c, 0, 77, 0
1, 4032, Note_on_c, 0, 75, 68
1, 4151, Note_on_c, 0, 75, 0
1, 4152, Note_on_c, 0, 73, 68
1, 4175, Note_on_c, 0, 73, 0
1, 4176, Note_on_c, 0, 72, 68
1, 4199, Note_on_c, 0, 72, 0
1, 4200, Note_on_c, 0, 70, 68
1, 4223, Note_on_c, 0, 70, 0
1, 4224, Note_on_c, 0, 70, 83
1, 4320, Note_on_c, 0, 70, 0
1, 4320, Note_on_c, 0, 69, 83
1, 4320, Note_on_c, 1, 63, 79
1, 4320, Note_on_c, 1, 60, 79
1, 4320, Note_on_c, 1, 53, 79
1, 4343, Note_on_c, 0, 69, 0
1, 4344, Note_on_c, 0, 65, 83
1, 4367, Note_on_c, 0, 65, 0
1, 4368, Note_on_c, 0, 67, 83
1, 4380, Note_on_c, 0, 67, 0
1, 4380, Note_on_c, 0, 65, 83
1, 4392, Note_on_c, 0, 65, 0
1, 4392, Note_on_c, 0, 63, 83
1, 4404, Note_on_c, 0, 63, 0
1, 4404, Note_on_c, 0, 65, 83
1, 4409, Note_on_c, 1, 63, 0
1, 4409, Note_on_c, 1, 60, 0
1, 4409, Note_on_c, 1, 53, 0
1, 4416, Note_on_c, 0, 65, 0
1, 4416, Note_on_c, 0, 70, 83
1, 4416, Note_on_c, 1, 62, 79
1, 4416, Note_on_c, 1, 58, 79
1, 4416, Note_on_c, 1, 53, 79
1, 4439, Note_on_c, 0, 70, 0
1, 4440, Note_on_c, 0, 65, 83
1, 4463, Note_on_c, 0, 65, 0
1, 4464, Note_on_c, 0, 67, 83
1, 4476, Note_on_c, 0, 67, 0
1, 4476, Note_on_c, 0, 65, 83
1, 4488, Note_on_c, 0, 65, 0
1, 4488, Note_on_c, 0, 63, 83
1, 4500, Note_on_c, 0, 63, 0
1, 4500, Note_on_c, 0, 65, 83
1, 4505, Note_on_c, 1, 62, 0
1, 4505, Note_on_c, 1, 58, 0
1, 4505, Note_on_c, 1, 53, 0
1, 4512, Note_on_c, 0, 65, 0
1, 4512, Note_on_c, 0, 72, 83
1, 4512, Note_on_c, 1, 63, 79
1, 4512, Note_on_c, 1, 57, 79
1, 4512, Note_on_c, 1, 53, 79
1, 4535, Note_on_c, 0, 72, 0
1, 4536, Note_on_c, 0, 65, 83
1, 4559, Note_on_c, 0, 65, 0
1, 4560, Note_on_c, 0, 67, 83
1, 4572, Note_on_c, 0, 67, 0
1, 4572, Note_on_c, 0, 65, 83
1, 4584, Note_on_c, 0, 65, 0
1, 4584, Note_on_c, 0, 63, 83
1, 4596, Note_on_c, 0, 63, 0
1, 4596, Note_on_c, 0, 65, 83
1, 4601, Note_on_c, 1, 63, 0
1, 4601, Note_on_c, 1, 57, 0
1, 4601, Note_on_c, 1, 53, 0
1, 4608, Note_on_c, 0, 65, 0
1, 4608, Note_on_c, 0, 74, 83
1, 4608, Note_on_c, 1, 62, 79
1, 4608, Note_on_c, 1, 58, 79
1, 4653, Note_on_c, 0, 74, 0
1, 4653, Note_on_c, 1, 62, 0
1, 4653, Note_on_c, 1, 58, 0
1, 4704, Note_on_c, 0, 76, 74
1, 4727, Note_on_c, 0, 76, 0
1, 4728, Note_on_c, 0, 77, 75
1, 4751, Note_on_c, 0, 77, 0
1, 4752, Note_on_c, 0, 79, 76
1, 4775, Note_on_c, 0, 79, 0
1, 4776, Note_on_c, 0, 77, 77
1, 4799, Note_on_c, 0, 77, 0
1, 4800, Note_on_c, 0, 75, 79
1, 4823, Note_on_c, 0, 75, 0
1, 4824, Note_on_c, 0, 74, 77
1, 4847, Note_on_c, 0, 74, 0
1, 4848, Note_on_c, 0, 72, 76
1, 4871, Note_on_c, 0, 72, 0
1, 4872, Note_on_c, 0, 70, 75
1, 4895, Note_on_c, 0, 70, 0
1, 4896, Note_on_c, 0, 69, 74
1, 4916, Note_on_c, 0, 69, 0
1, 4944, Note_on_c, 0, 72, 83
1, 4964, Note_on_c, 0, 72, 0
1, 4992, Note_on_c, 0, 70, 68
1, 5012, Note_on_c, 0, 70, 0
1, 5040, Note_on_c, 0, 75, 83
1, 5060, Note_on_c, 0, 75, 0
1, 5088, Note_on_c, 0, 74, 68
1, 5108, Note_on_c, 0, 74, 0
1, 5136, Note_on_c, 0, 79, 83
1, 5156, Note_on_c, 0, 79, 0
1, 5184, Note_on_c, 0, 77, 68
1, 5273, Note_on_c, 0, 77, 0
1, 5280, Note_on_c, 0, 75, 68
1, 5303, Note_on_c, 0, 75, 0
1, 5304, Note_on_c, 0, 74, 68
1, 5327, Note_on_c, 0, 74, 0
1, 5328, Note_on_c, 0, 72, 68
1, 5351, Note_on_c, 0, 72, 0
1, 5352, Note_on_c, 0, 70, 68
1, 5375, Note_on_c, 0, 70, 0
1, 5376, Note_on_c, 0, 68, 74
1, 5376, Note_on_c, 0, 65, 74
1, 5424, Note_on_c, 1, 46, 74
1, 5469, Note_on_c, 1, 46, 0
1, 5472, Note_on_c, 1, 50, 74
1, 5517, Note_on_c, 1, 50, 0
1, 5520, Note_on_c, 1, 53, 74
1, 5565, Note_on_c, 1, 53, 0
1, 5568, Note_on_c, 1, 58, 74
1, 5607, Note_on_c, 1, 58, 0
1, 5613, Note_on_c, 0, 68, 0
1, 5613, Note_on_c, 0, 65, 0
1, 5616, Note_on_c, 0, 68, 74
1, 5616, Note_on_c, 0, 65, 74
1, 5661, Note_on_c, 0, 68, 0
1, 5661, Note_on_c, 0, 65, 0
1, 5664, Note_on_c, 0, 70, 74
1, 5664, Note_on_c, 0, 67, 74
1, 5687, Note_on_c, 0, 70, 0
1, 5687, Note_on_c, 0, 67, 0
1, 5688, Note_on_c, 0, 68, 74
1, 5688, Note_on_c, 0, 65, 74
1, 5711, Note_on_c, 0, 68, 0
1, 5711, Note_on_c, 0, 65, 0
1, 5712, Note_on_c, 0, 67, 74
1, 5712, Note_on_c, 0, 63, 74
1, 5735, Note_on_c, 0, 67, 0
1, 5735, Note_on_c, 0, 63, 0
1, 5736, Note_on_c, 0, 65, 74
1, 5736, Note_on_c, 0, 62, 74
1, 5759, Note_on_c, 0, 65, 0
1, 5759, Note_on_c, 0, 62, 0
1, 5760, Note_on_c, 0, 66, 90
1, 5760, Note_on_c, 0, 62, 90
1, 5808, Note_on_c, 1, 46, 74
1, 5853, Note_on_c, 1, 46, 0
1, 5856, Note_on_c, 0, 66, 0
1, 5856, Note_on_c, 0, 62, 0
1, 5856, Note_on_c, 0, 67, 74
1, 5856, Note_on_c, 0, 63, 74
1, 5856, Note_on_c, 1, 51, 74
1, 5901, Note_on_c, 1, 51, 0
1, 5904, Note_on_c, 1, 55, 74
1, 5949, Note_on_c, 1, 55, 0
1, 5952, Note_on_c, 1, 58, 74
1, 5991, Note_on_c, 1, 58, 0
1, 5997, Note_on_c, 0, 67, 0
1, 5997, Note_on_c, 0, 63, 0
1, 6000, Note_on_c, 0, 82, 74
1, 6000, Note_on_c, 0, 79, 74
1, 6045, Note_on_c, 0, 82, 0
1, 6045, Note_on_c, 0, 79, 0
1, 6048, Note_on_c, 0, 84, 74
1, 6048, Note_on_c, 0, 80, 74
1, 6071, Note_on_c, 0, 84, 0
1, 6071, Note_on_c, 0, 80, 0
1, 6072, Note_on_c, 0, 82, 74
1, 6072, Note_on_c, 0, 79, 74
1, 6095, Note_on_c, 0, 82, 0
1, 6095, Note_on_c, 0, 79, 0
1, 6096, Note_on_c, 0, 80, 74
1, 6096, Note_on_c, 0, 77, 74
1, 6119, Note_on_c, 0, 80, 0
1, 6119, Note_on_c, 0, 77, 0
1, 6120, Note_on_c, 0, 79, 74
1, 6120, Note_on_c, 0, 76, 74
1, 6143, Note_on_c, 0, 79, 0
1, 6143, Note_on_c, 0, 76, 0
1, 6144, Note_on_c, 0, 79, 90
1, 6144, Note_on_c, 0, 76, 90
1, 6192, Note_on_c, 1, 46, 74
1, 6237, Note_on_c, 1, 46, 0
1, 6240, Note_on_c, 0, 79, 0
1, 6240, Note_on_c, 0, 76, 0
1, 6240, Note_on_c, 0, 80, 74
1, 6240, Note_on_c, 0, 77, 74
1, 6240, Note_on_c, 1, 50, 74
1, 6263, Note_on_c, 1, 50, 0
1, 6264, Note_on_c, 1, 46, 74
1, 6287, Note_on_c, 1, 46, 0
1, 6288, Note_on_c, 1, 53, 74
1, 6311, Note_on_c, 1, 53, 0
1, 6312, Note_on_c, 1, 50, 74
1, 6335, Note_on_c, 1, 50, 0
1, 6336, Note_on_c, 1, 58, 74
1, 6375, Note_on_c, 1, 58, 0
1, 6381, Note_on_c, 0, 80, 0
1, 6381, Note_on_c, 0, 77, 0
1, 6384, Note_on_c, 0, 80, 74
1, 6384, Note_on_c, 0, 77, 74
1, 6429, Note_on_c, 0, 80, 0
1, 6429, Note_on_c, 0, 77, 0
1, 6432, Note_on_c, 0, 82, 74
1, 6432, Note_on_c, 0, 78, 74
1, 6455, Note_on_c, 0, 82, 0
1, 6455, Note_on_c, 0, 78, 0
1, 6456, Note_on_c, 0, 80, 74
1, 6456, Note_on_c, 0, 77, 74
1, 6479, Note_on_c, 0, 80, 0
1, 6479, Note_on_c, 0, 77, 0
1, 6480, Note_on_c, 0, 78, 74
1, 6480, Note_on_c, 0, 75, 74
1, 6503, Note_on_c, 0, 78, 0
1, 6503, Note_on_c, 0, 75, 0
1, 6504, Note_on_c, 0, 77, 74
1, 6504, Note_on_c, 0, 74, 74
1, 6527, Note_on_c, 0, 77, 0
1, 6527, Note_on_c, 0, 74, 0
1, 6528, Note_on_c, 0, 78, 68
1, 6528, Note_on_c, 0, 75, 68
1, 6576, Note_on_c, 1, 57, 70
1, 6599, Note_on_c, 1, 57, 0
1, 6600, Note_on_c, 1, 45, 72
1, 6622, Note_on_c, 0, 78, 0
1, 6622, Note_on_c, 0, 75, 0
1, 6623, Note_on_c, 1, 45, 0
1, 6624, Note_on_c, 0, 79, 73
1, 6624, Note_on_c, 0, 75, 73
1, 6672, Note_on_c, 1, 58, 76
1, 6695, Note_on_c, 1, 58, 0
1, 6696, Note_on_c, 1, 46, 78
1, 6718, Note_on_c, 0, 79, 0
1, 6718, Note_on_c, 0, 75, 0
1, 6719, Note_on_c, 1, 46, 0
1, 6720, Note_on_c, 0, 80, 78
1, 6720, Note_on_c, 0, 75, 78
1, 6768, Note_on_c, 1, 60, 82
1, 6791, Note_on_c, 1, 60, 0
1, 6792, Note_on_c, 1, 48, 83
1, 6814, Note_on_c, 0, 80, 0
1, 6814, Note_on_c, 0, 75, 0
1, 6815, Note_on_c, 1, 48, 0
1, 6816, Note_on_c, 0, 81, 83
1, 6816, Note_on_c, 0, 75, 83
1, 6864, Note_on_c, 1, 59, 88
1, 6887, Note_on_c, 1, 59, 0
1, 6888, Note_on_c, 1, 47, 88
1, 6910, Note_on_c, 0, 81, 0
1, 6910, Note_on_c, 0, 75, 0
1, 6911, Note_on_c, 1, 47, 0
1, 6912, Note_on_c, 1, 46, 83
1, 6935, Note_on_c, 1, 46, 0
1, 6936, Note_on_c, 1, 58, 83
1, 6959, Note_on_c, 1, 58, 0
1, 6960, Note_on_c, 0, 74, 83
1, 6983, Note_on_c, 0, 74, 0
1, 6984, Note_on_c, 0, 82, 83
1, 7007, Note_on_c, 0, 82, 0
1, 7008, Note_on_c, 0, 80, 83
1, 7031, Note_on_c, 0, 80, 0
1, 7032, Note_on_c, 0, 79, 83
1, 7055, Note_on_c, 0, 79, 0
1, 7056, Note_on_c, 0, 77, 83
1, 7079, Note_on_c, 0, 77, 0
1, 7080, Note_on_c, 0, 75, 83
1, 7103, Note_on_c, 0, 75, 0
1, 7104, Note_on_c, 0, 74, 83
1, 7127, Note_on_c, 0, 74, 0
1, 7128, Note_on_c, 0, 72, 83
1, 7151, Note_on_c, 0, 72, 0
1, 7152, Note_on_c, 0, 70, 83
1, 7175, Note_on_c, 0, 70, 0
1, 7176, Note_on_c, 1, 68, 83
1, 7199, Note_on_c, 1, 68, 0
1, 7200, Note_on_c, 1, 67, 83
1, 7223, Note_on_c, 1, 67, 0
1, 7224, Note_on_c, 1, 65, 83
1, 7247, Note_on_c, 1, 65, 0
1, 7248, Note_on_c, 1, 63, 83
1, 7271, Note_on_c, 1, 63, 0
1, 7272, Note_on_c, 1, 62, 83
1, 7295, Note_on_c, 1, 62, 0
1, 7296, Note_on_c, 1, 60, 83
1, 7319, Note_on_c, 1, 60, 0
1, 7320, Note_on_c, 1, 58, 83
1, 7343, Note_on_c, 1, 58, 0
1, 7344, Note_on_c, 1, 56, 83
1, 7367, Note_on_c, 1, 56, 0
1, 7368, Note_on_c, 0, 84, 99
1, 7392, Note_on_c, 0, 84, 0
1, 7392, Note_on_c, 0, 82, 80
1, 7415, Note_on_c, 0, 82, 0
1, 7416, Note_on_c, 0, 80, 78
1, 7439, Note_on_c, 0, 80, 0
1, 7440, Note_on_c, 0, 79, 75
1, 7463, Note_on_c, 0, 79, 0
1, 7464, Note_on_c, 0, 77, 73
1, 7487, Note_on_c, 0, 77, 0
1, 7488, Note_on_c, 0, 76, 70
1, 7511, Note_on_c, 0, 76, 0
1, 7512, Note_on_c, 0, 77, 68
1, 7535, Note_on_c, 0, 77, 0
1, 7536, Note_on_c, 0, 78, 71
1, 7559, Note_on_c, 0, 78, 0
1, 7560, Note_on_c, 0, 77, 75
1, 7583, Note_on_c, 0, 77, 0
1, 7584, Note_on_c, 0, 79, 79
1, 7607, Note_on_c, 0, 79, 0
1, 7608, Note_on_c, 0, 77, 76
1, 7631, Note_on_c, 0, 77, 0
1, 7632, Note_on_c, 0, 80, 73
1, 7655, Note_on_c, 0, 80, 0
1, 7656, Note_on_c, 0, 77, 70
1, 7679, Note_on_c, 0, 77, 0
1, 7680, Note_on_c, 0, 76, 68
1, 7703, Note_on_c, 0, 76, 0
1, 7704, Note_on_c, 0, 77, 71
1, 7727, Note_on_c, 0, 77, 0
1, 7728, Note_on_c, 0, 78, 75
1, 7751, Note_on_c, 0, 78, 0
1, 7752, Note_on_c, 0, 77, 79
1, 7775, Note_on_c, 0, 77, 0
1, 7776, Note_on_c, 0, 79, 76
1, 7799, Note_on_c, 0, 79, 0
1, 7800, Note_on_c, 0, 77, 74
1, 7823, Note_on_c, 0, 77, 0
1, 7824, Note_on_c, 0, 80, 72
1, 7847, Note_on_c, 0, 80, 0
1, 7848, Note_on_c, 0, 77, 70
1, 7871, Note_on_c, 0, 77, 0
1, 7872, Note_on_c, 0, 76, 68
1, 7895, Note_on_c, 0, 76, 0
1, 7896, Note_on_c, 0, 77, 70
1, 7919, Note_on_c, 0, 77, 0
1, 7920, Note_on_c, 0, 78, 73
1, 7943, Note_on_c, 0, 78, 0
1, 7944, Note_on_c, 0, 77, 76
1, 7967, Note_on_c, 0, 77, 0
1, 7968, Note_on_c, 0, 79, 79
1, 7991, Note_on_c, 0, 79, 0
1, 7992, Note_on_c, 0, 77, 76
1, 8015, Note_on_c, 0, 77, 0
1, 8016, Note_on_c, 0, 80, 73
1, 8039, Note_on_c, 0, 80, 0
1, 8040, Note_on_c, 0, 77, 70
1, 8063, Note_on_c, 0, 77, 0
1, 8064, Note_on_c, 0, 75, 68
1, 8112, Note_on_c, 1, 68, 62
1, 8112, Note_on_c, 1, 65, 62
1, 8112, Note_on_c, 1, 58, 62
1, 8159, Note_on_c, 1, 68, 0
1, 8159, Note_on_c, 1, 65, 0
1, 8159, Note_on_c, 1, 58, 0
1, 8160, Note_on_c, 1, 68, 65
1, 8160, Note_on_c, 1, 65, 65
1, 8160, Note_on_c, 1, 58, 65
1, 8207, Note_on_c, 1, 68, 0
1, 8207, Note_on_c, 1, 65, 0
1, 8207, Note_on_c, 1, 58, 0
1, 8208, Note_on_c, 1, 68, 68
1, 8208, Note_on_c, 1, 65, 68
1, 8208, Note_on_c, 1, 58, 68
1, 8255, Note_on_c, 1, 68, 0
1, 8255, Note_on_c, 1, 65, 0
1, 8255, Note_on_c, 1, 58, 0
1, 8256, Note_on_c, 1, 68, 71
1, 8256, Note_on_c, 1, 65, 71
1, 8256, Note_on_c, 1, 58, 71
1, 8271, Note_on_c, 0, 75, 0
1, 8272, Note_on_c, 0, 74, 83
1, 8287, Note_on_c, 0, 74, 0
1, 8288, Note_on_c, 0, 75, 83
1, 8303, Note_on_c, 0, 75, 0
1, 8304, Note_on_c, 0, 77, 83
1, 8319, Note_on_c, 0, 77, 0
1, 8320, Note_on_c, 0, 75, 83
1, 8335, Note_on_c, 0, 75, 0
1, 8336, Note_on_c, 0, 74, 83
1, 8351, Note_on_c, 0, 74, 0
1, 8352, Note_on_c, 0, 80, 83
1, 8367, Note_on_c, 0, 80, 0
1, 8368, Note_on_c, 0, 79, 83
1, 8383, Note_on_c, 0, 79, 0
1, 8384, Note_on_c, 0, 77, 83
1, 8399, Note_on_c, 0, 77, 0
1, 8400, Note_on_c, 0, 84, 83
1, 8415, Note_on_c, 0, 84, 0
1, 8416, Note_on_c, 0, 80, 83
1, 8431, Note_on_c, 0, 80, 0
1, 8432, Note_on_c, 0, 77, 83
1, 8443, Note_on_c, 1, 68, 0
1, 8443, Note_on_c, 1, 65, 0
1, 8443, Note_on_c, 1, 58, 0
1, 8447, Note_on_c, 0, 77, 0
1, 8448, Note_on_c, 0, 75, 83
1, 8496, Note_on_c, 1, 59, 79
1, 8511, Note_on_c, 1, 59, 0
1, 8512, Note_on_c, 1, 65, 79
1, 8527, Note_on_c, 1, 65, 0
1, 8528, Note_on_c, 1, 68, 79
1, 8543, Note_on_c, 1, 68, 0
1, 8544, Note_on_c, 1, 59, 79
1, 8559, Note_on_c, 1, 59, 0
1, 8560, Note_on_c, 1, 65, 79
1, 8575, Note_on_c, 1, 65, 0
1, 8576, Note_on_c, 1, 68, 79
1, 8591, Note_on_c, 1, 68, 0
1, 8592, Note_on_c, 1, 59, 79
1, 8607, Note_on_c, 1, 59, 0
1, 8608, Note_on_c, 1, 65, 79
1, 8623, Note_on_c, 1, 65, 0
1, 8624, Note_on_c, 1, 68, 79
1, 8639, Note_on_c, 1, 68, 0
1, 8640, Note_on_c, 1, 59, 79
1, 8655, Note_on_c, 0, 75, 0
1, 8656, Note_on_c, 0, 74, 83
1, 8671, Note_on_c, 0, 74, 0
1, 8672, Note_on_c, 0, 75, 83
1, 8687, Note_on_c, 0, 75, 0
1, 8688, Note_on_c, 0, 77, 83
1, 8703, Note_on_c, 0, 77, 0
1, 8704, Note_on_c, 0, 75, 83
1, 8719, Note_on_c, 0, 75, 0
1, 8720, Note_on_c, 0, 74, 83
1, 8735, Note_on_c, 0, 74, 0
1, 8736, Note_on_c, 0, 80, 83
1, 8751, Note_on_c, 0, 80, 0
1, 8752, Note_on_c, 0, 78, 83
1, 8767, Note_on_c, 0, 78, 0
1, 8768, Note_on_c, 0, 77, 83
1, 8783, Note_on_c, 0, 77, 0
1, 8784, Note_on_c, 0, 83, 83
1, 8799, Note_on_c, 0, 83, 0
1, 8800, Note_on_c, 0, 80, 83
1, 8815, Note_on_c, 0, 80, 0
1, 8816, Note_on_c, 0, 77, 83
1, 8817, Note_on_c, 1, 59, 0
1, 8831, Note_on_c, 0, 77, 0
1, 8832, Note_on_c, 0, 75, 83
1, 8880, Note_on_c, 1, 59, 74
1, 8895, Note_on_c, 1, 59, 0
1, 8896, Note_on_c, 1, 65, 74
1, 8911, Note_on_c, 1, 65, 0
1, 8912, Note_on_c, 1, 68, 74
1, 8927, Note_on_c, 1, 68, 0
1, 8928, Note_on_c, 1, 59, 74
1, 8943, Note_on_c, 1, 59, 0
1, 8944, Note_on_c, 1, 65, 74
1, 8959, Note_on_c, 1, 65, 0
1, 8960, Note_on_c, 1, 68, 74
1, 8975, Note_on_c, 1, 68, 0
1, 8976, Note_on_c, 1, 59, 74
1, 8991, Note_on_c, 1, 59, 0
1, 8992, Note_on_c, 1, 65, 74
1, 9007, Note_on_c, 1, 65, 0
1, 9008, Note_on_c, 1, 68, 74
1, 9024, Note_on_c, 1, 59, 74
1, 9157, Note_on_c, 0, 75, 0
1, 9168, Note_on_c, 0, 74, 68
1, 9192, Note_on_c, 0, 74, 0
1, 9192, Note_on_c, 0, 75, 68
1, 9216, Note_on_c, 0, 75, 0
1, 9216, Note_on_c, 0, 77, 68
1, 9240, Note_on_c, 0, 77, 0
1, 9240, Note_on_c, 0, 75, 68
1, 9264, Note_on_c, 0, 75, 0
1, 9264, Note_on_c, 0, 74, 68
1, 9288, Note_on_c, 0, 74, 0
1, 9288, Note_on_c, 0, 80, 68
1, 9312, Note_on_c, 0, 80, 0
1, 9312, Note_on_c, 0, 78, 68
1, 9336, Note_on_c, 0, 78, 0
1, 9336, Note_on_c, 0, 77, 68
1, 9360, Note_on_c, 0, 77, 0
1, 9360, Note_on_c, 0, 83, 68
1, 9500, Note_on_c, 0, 83, 0
1, 9504, Note_on_c, 0, 82, 68
1, 9524, Note_on_c, 0, 82, 0
1, 9524, Note_on_c, 0, 80, 68
1, 9543, Note_on_c, 0, 80, 0
1, 9543, Note_on_c, 0, 78, 68
1, 9562, Note_on_c, 0, 78, 0
1, 9562, Note_on_c, 0, 77, 68
1, 9581, Note_on_c, 0, 77, 0
1, 9581, Note_on_c, 0, 75, 68
1, 9648, Note_on_c, 1, 58, 64
1, 9694, Note_on_c, 1, 68, 0
1, 9694, Note_on_c, 1, 59, 0
1, 9696, Note_on_c, 1, 68, 74
1, 9740, Note_on_c, 0, 75, 0
1, 9744, Note_on_c, 0, 74, 68
1, 9792, Note_on_c, 0, 84, 64
1, 9839, Note_on_c, 1, 58, 0
1, 9840, Note_on_c, 1, 58, 64
1, 9883, Note_on_c, 1, 68, 0
1, 9888, Note_on_c, 1, 68, 74
1, 9935, Note_on_c, 0, 74, 0
1, 9936, Note_on_c, 0, 74, 68
1, 9979, Note_on_c, 0, 84, 0
1, 9984, Note_on_c, 0, 84, 64
1, 10171, Note_on_c, 0, 74, 0
1, 10171, Note_on_c, 0, 84, 0
1, 10171, Note_on_c, 1, 68, 0
1, 10171, Note_on_c, 1, 58, 0
1, 10176, Note_on_c, 1, 51, 99
1, 10176, Note_on_c, 1, 46, 99
1, 10176, Note_on_c, 1, 43, 99
1, 10224, Note_on_c, 0, 79, 83
1, 10236, Note_on_c, 0, 79, 0
1, 10236, Note_on_c, 0, 75, 83
1, 10251, Note_on_c, 0, 75, 0
1, 10272, Note_on_c, 0, 75, 83
1, 10272, Note_on_c, 1, 51, 0
1, 10272, Note_on_c, 1, 46, 0
1, 10272, Note_on_c, 1, 43, 0
1, 10284, Note_on_c, 0, 75, 0
1, 10284, Note_on_c, 0, 70, 83
1, 10299, Note_on_c, 0, 70, 0
1, 10320, Note_on_c, 0, 70, 83
1, 10332, Note_on_c, 0, 70, 0
1, 10332, Note_on_c, 0, 67, 83
1, 10347, Note_on_c, 0, 67, 0
1, 10368, Note_on_c, 1, 51, 99
1, 10368, Note_on_c, 1, 48, 99
1, 10368, Note_on_c, 1, 44, 99
1, 10416, Note_on_c, 0, 72, 83
1, 10428, Note_on_c, 0, 72, 0
1, 10428, Note_on_c, 0, 68, 83
1, 10443, Note_on_c, 0, 68, 0
1, 10464, Note_on_c, 0, 68, 83
1, 10464, Note_on_c, 1, 51, 0
1, 10464, Note_on_c, 1, 48, 0
1, 10464, Note_on_c, 1, 44, 0
1, 10476, Note_on_c, 0, 68, 0
1, 10476, Note_on_c, 0, 65, 83
1, 10491, Note_on_c, 0, 65, 0
1, 10512, Note_on_c, 0, 65, 83
1, 10524, Note_on_c, 0, 65, 0
1, 10524, Note_on_c, 0, 60, 83
1, 10539, Note_on_c, 0, 60, 0
1, 10560, Note_on_c, 0, 63, 83
1, 10608, Note_on_c, 1, 55, 83
1, 10608, Note_on_c, 1, 46, 83
1, 10655, Note_on_c, 1, 55, 0
1, 10655, Note_on_c, 1, 46, 0
1, 10656, Note_on_c, 1, 55, 83
1, 10656, Note_on_c, 1, 46, 83
1, 10679, Note_on_c, 0, 63, 0
1, 10680, Note_on_c, 0, 62, 83
1, 10703, Note_on_c, 0, 62, 0
1, 10703, Note_on_c, 1, 55, 0
1, 10703, Note_on_c, 1, 46, 0
1, 10704, Note_on_c, 0, 68, 83
1, 10704, Note_on_c, 1, 53, 83
1, 10704, Note_on_c, 1, 46, 83
1, 10719, Note_on_c, 0, 68, 0
1, 10720, Note_on_c, 0, 65, 83
1, 10735, Note_on_c, 0, 65, 0
1, 10736, Note_on_c, 0, 62, 83
1, 10751, Note_on_c, 0, 62, 0
1, 10751, Note_on_c, 1, 53, 0
1, 10751, Note_on_c, 1, 46, 0
1, 10752, Note_on_c, 1, 51, 99
1, 10752, Note_on_c, 1, 46, 99
1, 10752, Note_on_c, 1, 43, 99
1, 10776, Note_on_c, 0, 75, 83
1, 10799, Note_on_c, 0, 75, 0
1, 10800, Note_on_c, 0, 77, 83
1, 10806, Note_on_c, 0, 77, 0
1, 10806, Note_on_c, 0, 75, 83
1, 10812, Note_on_c, 0, 75, 0
1, 10812, Note_on_c, 0, 74, 83
1, 10818, Note_on_c, 0, 74, 0
1, 10818, Note_on_c, 0, 75, 83
1, 10824, Note_on_c, 0, 75, 0
1, 10824, Note_on_c, 0, 75, 83
1, 10834, Note_on_c, 0, 75, 0
1, 10836, Note_on_c, 0, 79, 83
1, 10848, Note_on_c, 0, 79, 0
1, 10848, Note_on_c, 0, 70, 83
1, 10848, Note_on_c, 1, 51, 0
1, 10848, Note_on_c, 1, 46, 0
1, 10848, Note_on_c, 1, 43, 0
1, 10882, Note_on_c, 0, 70, 0
1, 10884, Note_on_c, 0, 70, 83
1, 10896, Note_on_c, 0, 70, 0
1, 10896, Note_on_c, 0, 72, 83
1, 10902, Note_on_c, 0, 72, 0
1, 10902, Note_on_c, 0, 70, 83
1, 10908, Note_on_c, 0, 70, 0
1, 10908, Note_on_c, 0, 68, 83
1, 10914, Note_on_c, 0, 68, 0
1, 10914, Note_on_c, 0, 70, 83
1, 10920, Note_on_c, 0, 70, 0
1, 10920, Note_on_c, 0, 70, 83
1, 10930, Note_on_c, 0, 70, 0
1, 10932, Note_on_c, 0, 75, 83
1, 10944, Note_on_c, 0, 75, 0
1, 10944, Note_on_c, 0, 65, 83
1, 10944, Note_on_c, 1, 51, 99
1, 10944, Note_on_c, 1, 48, 99
1, 10944, Note_on_c, 1, 44, 99
1, 10978, Note_on_c, 0, 65, 0
1, 10980, Note_on_c, 0, 65, 83
1, 10992, Note_on_c, 0, 65, 0
1, 10992, Note_on_c, 0, 67, 83
1, 10998, Note_on_c, 0, 67, 0
1, 10998, Note_on_c, 0, 65, 83
1, 11004, Note_on_c, 0, 65, 0
1, 11004, Note_on_c, 0, 63, 83
1, 11010, Note_on_c, 0, 63, 0
1, 11010, Note_on_c, 0, 65, 83
1, 11016, Note_on_c, 0, 65, 0
1, 11016, Note_on_c, 0, 65, 83
1, 11026, Note_on_c, 0, 65, 0
1, 11028, Note_on_c, 0, 72, 83
1, 11040, Note_on_c, 0, 72, 0
1, 11040, Note_on_c, 0, 60, 83
1, 11040, Note_on_c, 1, 51, 0
1, 11040, Note_on_c, 1, 48, 0
1, 11040, Note_on_c, 1, 44, 0
1, 11074, Note_on_c, 0, 60, 0
1, 11076, Note_on_c, 0, 60, 83
1, 11088, Note_on_c, 0, 60, 0
1, 11088, Note_on_c, 0, 62, 83
1, 11094, Note_on_c, 0, 62, 0
1, 11094, Note_on_c, 0, 60, 83
1, 11100, Note_on_c, 0, 60, 0
1, 11100, Note_on_c, 0, 58, 83
1, 11106, Note_on_c, 0, 58, 0
1, 11106, Note_on_c, 0, 60, 83
1, 11112, Note_on_c, 0, 60, 0
1, 11112, Note_on_c, 0, 60, 83
1, 11122, Note_on_c, 0, 60, 0
1, 11124, Note_on_c, 0, 68, 83
1, 11136, Note_on_c, 0, 68, 0
1, 11136, Note_on_c, 0, 63, 83
1, 11184, Note_on_c, 1, 55, 83
1, 11184, Note_on_c, 1, 46, 83
1, 11231, Note_on_c, 1, 55, 0
1, 11231, Note_on_c, 1, 46, 0
1, 11232, Note_on_c, 1, 55, 83
1, 11232, Note_on_c, 1, 46, 83
1, 11255, Note_on_c, 0, 63, 0
1, 11256, Note_on_c, 0, 62, 83
1, 11279, Note_on_c, 0, 62, 0
1, 11279, Note_on_c, 1, 55, 0
1, 11279, Note_on_c, 1, 46, 0
1, 11280, Note_on_c, 0, 68, 83
1, 11280, Note_on_c, 1, 53, 83
1, 11280, Note_on_c, 1, 46, 83
1, 11295, Note_on_c, 0, 68, 0
1, 11296, Note_on_c, 0, 65, 83
1, 11311, Note_on_c, 0, 65, 0
1, 11312, Note_on_c, 0, 62, 83
1, 11327, Note_on_c, 0, 62, 0
1, 11327, Note_on_c, 1, 53, 0
1, 11327, Note_on_c, 1, 46, 0
1, 11328, Note_on_c, 0, 70, 83
1, 11376, Note_on_c, 1, 55, 83
1, 11376, Note_on_c, 1, 46, 83
1, 11423, Note_on_c, 1, 55, 0
1, 11423, Note_on_c, 1, 46, 0
1, 11424, Note_on_c, 1, 55, 81
1, 11424, Note_on_c, 1, 46, 81
1, 11439, Note_on_c, 0, 70, 0
1, 11440, Note_on_c, 0, 67, 82
1, 11455, Note_on_c, 0, 67, 0
1, 11456, Note_on_c, 0, 63, 82
1, 11471, Note_on_c, 0, 63, 0
1, 11471, Note_on_c, 1, 55, 0
1, 11471, Note_on_c, 1, 46, 0
1, 11472, Note_on_c, 0, 68, 81
1, 11472, Note_on_c, 1, 53, 80
1, 11472, Note_on_c, 1, 46, 80
1, 11487, Note_on_c, 0, 68, 0
1, 11488, Note_on_c, 0, 65, 81
1, 11503, Note_on_c, 0, 65, 0
1, 11504, Note_on_c, 0, 62, 80
1, 11519, Note_on_c, 0, 62, 0
1, 11519, Note_on_c, 1, 53, 0
1, 11519, Note_on_c, 1, 46, 0
1, 11520, Note_on_c, 0, 70, 68
1, 11568, Note_on_c, 1, 55, 68
1, 11568, Note_on_c, 1, 46, 68
1, 11615, Note_on_c, 1, 55, 0
1, 11615, Note_on_c, 1, 46, 0
1, 11616, Note_on_c, 1, 55, 68
1, 11616, Note_on_c, 1, 46, 68
1, 11631, Note_on_c, 0, 70, 0
1, 11632, Note_on_c, 0, 67, 68
1, 11647, Note_on_c, 0, 67, 0
1, 11648, Note_on_c, 0, 63, 69
1, 11663, Note_on_c, 0, 63, 0
1, 11663, Note_on_c, 1, 55, 0
1, 11663, Note_on_c, 1, 46, 0
1, 11664, Note_on_c, 0, 68, 70
1, 11664, Note_on_c, 1, 53, 71
1, 11664, Note_on_c, 1, 46, 71
1, 11679, Note_on_c, 0, 68, 0
1, 11680, Note_on_c, 0, 65, 71
1, 11695, Note_on_c, 0, 65, 0
1, 11696, Note_on_c, 0, 62, 71
1, 11711, Note_on_c, 0, 62, 0
1, 11711, Note_on_c, 1, 53, 0
1, 11711, Note_on_c, 1, 46, 0
1, 11712, Note_on_c, 0, 70, 83
1, 11760, Note_on_c, 1, 55, 83
1, 11760, Note_on_c, 1, 46, 83
1, 11807, Note_on_c, 1, 55, 0
1, 11807, Note_on_c, 1, 46, 0
1, 11808, Note_on_c, 1, 55, 83
1, 11808, Note_on_c, 1, 46, 83
1, 11823, Note_on_c, 0, 70, 0
1, 11824, Note_on_c, 0, 67, 83
1, 11839, Note_on_c, 0, 67, 0
1, 11840, Note_on_c, 0, 63, 83
1, 11855, Note_on_c, 0, 63, 0
1, 11855, Note_on_c, 1, 55, 0
1, 11855, Note_on_c, 1, 46, 0
1, 11856, Note_on_c, 0, 72, 83
1, 11856, Note_on_c, 1, 53, 83
1, 11856, Note_on_c, 1, 46, 83
1, 11871, Note_on_c, 0, 72, 0
1, 11872, Note_on_c, 0, 68, 83
1, 11887, Note_on_c, 0, 68, 0
1, 11888, Note_on_c, 0, 65, 83
1, 11903, Note_on_c, 0, 65, 0
1, 11903, Note_on_c, 1, 53, 0
1, 11903, Note_on_c, 1, 46, 0
1, 11904, Note_on_c, 0, 74, 83
1, 11904, Note_on_c, 1, 53, 83
1, 11904, Note_on_c, 1, 46, 83
1, 11919, Note_on_c, 0, 74, 0
1, 11920, Note_on_c, 0, 68, 83
1, 11935, Note_on_c, 0, 68, 0
1, 11936, Note_on_c, 0, 65, 83
1, 11951, Note_on_c, 0, 65, 0
1, 11951, Note_on_c, 1, 53, 0
1, 11951, Note_on_c, 1, 46, 0
1, 11952, Note_on_c, 0, 75, 83
1, 11952, Note_on_c, 1, 55, 84
1, 11952, Note_on_c, 1, 46, 84
1, 11967, Note_on_c, 0, 75, 0
1, 11968, Note_on_c, 0, 70, 84
1, 11983, Note_on_c, 0, 70, 0
1, 11984, Note_on_c, 0, 67, 84
1, 11999, Note_on_c, 0, 67, 0
1, 11999, Note_on_c, 1, 55, 0
1, 11999, Note_on_c, 1, 46, 0
1, 12000, Note_on_c, 0, 77, 84
1, 12000, Note_on_c, 1, 50, 85
1, 12000, Note_on_c, 1, 46, 85
1, 12015, Note_on_c, 0, 77, 0
1, 12016, Note_on_c, 0, 74, 85
1, 12031, Note_on_c, 0, 74, 0
1, 12032, Note_on_c, 0, 70, 85
1, 12047, Note_on_c, 0, 70, 0
1, 12047, Note_on_c, 1, 50, 0
1, 12047, Note_on_c, 1, 46, 0
1, 12048, Note_on_c, 0, 79, 85
1, 12048, Note_on_c, 1, 51, 86
1, 12048, Note_on_c, 1, 46, 86
1, 12063, Note_on_c, 0, 79, 0
1, 12064, Note_on_c, 0, 75, 86
1, 12079, Note_on_c, 0, 75, 0
1, 12080, Note_on_c, 0, 70, 86
1, 12095, Note_on_c, 0, 70, 0
1, 12095, Note_on_c, 1, 51, 0
1, 12095, Note_on_c, 1, 46, 0
1, 12096, Note_on_c, 0, 80, 88
1, 12096, Note_on_c, 1, 53, 88
1, 12096, Note_on_c, 1, 46, 88
1, 12135, Note_on_c, 0, 80, 0
1, 12185, Note_on_c, 1, 53, 0
1, 12185, Note_on_c, 1, 46, 0
1, 12288, Note_on_c, 1, 63, 68
1, 12303, Note_on_c, 1, 63, 0
1, 12304, Note_on_c, 1, 67, 68
1, 12319, Note_on_c, 1, 67, 0
1, 12320, Note_on_c, 1, 70, 68
1, 12335, Note_on_c, 1, 70, 0
1, 12336, Note_on_c, 1, 63, 68
1, 12351, Note_on_c, 1, 63, 0
1, 12352, Note_on_c, 1, 67, 68
1, 12367, Note_on_c, 1, 67, 0
1, 12368, Note_on_c, 1, 70, 68
1, 12383, Note_on_c, 1, 70, 0
1, 12384, Note_on_c, 1, 63, 68
1, 12399, Note_on_c, 1, 63, 0
1, 12400, Note_on_c, 1, 67, 68
1, 12415, Note_on_c, 1, 67, 0
1, 12416, Note_on_c, 1, 70, 68
1, 12431, Note_on_c, 1, 70, 0
1, 12432, Note_on_c, 0, 80, 68
1, 12432, Note_on_c, 1, 63, 68
1, 12444, Note_on_c, 0, 80, 0
1, 12444, Note_on_c, 0, 79, 68
1, 12447, Note_on_c, 1, 63, 0
1, 12448, Note_on_c, 1, 67, 68
1, 12456, Note_on_c, 0, 79, 0
1, 12456, Note_on_c, 0, 77, 68
1, 12463, Note_on_c, 1, 67, 0
1, 12464, Note_on_c, 1, 70, 68
1, 12468, Note_on_c, 0, 77, 0
1, 12468, Note_on_c, 0, 75, 68
1, 12479, Note_on_c, 1, 70, 0
1, 12480, Note_on_c, 0, 75, 0
1, 12480, Note_on_c, 0, 74, 69
1, 12480, Note_on_c, 1, 65, 68
1, 12495, Note_on_c, 1, 65, 0
1, 12496, Note_on_c, 1, 68, 69
1, 12500, Note_on_c, 0, 74, 0
1, 12511, Note_on_c, 1, 68, 0
1, 12512, Note_on_c, 1, 70, 69
1, 12527, Note_on_c, 1, 70, 0
1, 12528, Note_on_c, 1, 65, 69
1, 12543, Note_on_c, 1, 65, 0
1, 12544, Note_on_c, 1, 68, 69
1, 12559, Note_on_c, 1, 68, 0
1, 12560, Note_on_c, 1, 70, 70
1, 12575, Note_on_c, 1, 70, 0
1, 12576, Note_on_c, 1, 62, 70
1, 12591, Note_on_c, 1, 62, 0
1, 12592, Note_on_c, 1, 65, 70
1, 12607, Note_on_c, 1, 65, 0
1, 12608, Note_on_c, 1, 70, 70
1, 12623, Note_on_c, 1, 70, 0
1, 12624, Note_on_c, 0, 86, 72
1, 12624, Note_on_c, 1, 62, 71
1, 12636, Note_on_c, 0, 86, 0
1, 12636, Note_on_c, 0, 84, 72
1, 12639, Note_on_c, 1, 62, 0
1, 12640, Note_on_c, 1, 65, 71
1, 12648, Note_on_c, 0, 84, 0
1, 12648, Note_on_c, 0, 82, 72
1, 12655, Note_on_c, 1, 65, 0
1, 12656, Note_on_c, 1, 70, 71
1, 12660, Note_on_c, 0, 82, 0
1, 12660, Note_on_c, 0, 80, 73
1, 12671, Note_on_c, 1, 70, 0
1, 12672, Note_on_c, 0, 80, 0
1, 12672, Note_on_c, 0, 79, 73
1, 12672, Note_on_c, 1, 63, 72
1, 12687, Note_on_c, 1, 63, 0
1, 12688, Note_on_c, 1, 67, 72
1, 12692, Note_on_c, 0, 79, 0
1, 12703, Note_on_c, 1, 67, 0
1, 12704, Note_on_c, 1, 70, 72
1, 12719, Note_on_c, 1, 70, 0
1, 12720, Note_on_c, 1, 63, 72
1, 12735, Note_on_c, 1, 63, 0
1, 12736, Note_on_c, 1, 67, 73
1, 12751, Note_on_c, 1, 67, 0
1, 12752, Note_on_c, 1, 70, 73
1, 12767, Note_on_c, 1, 70, 0
1, 12768, Note_on_c, 1, 63, 73
1, 12783, Note_on_c, 1, 63, 0
1, 12784, Note_on_c, 1, 67, 73
1, 12799, Note_on_c, 1, 67, 0
1, 12800, Note_on_c, 1, 70, 74
1, 12815, Note_on_c, 1, 70, 0
1, 12816, Note_on_c, 0, 80, 76
1, 12816, Note_on_c, 1, 63, 74
1, 12828, Note_on_c, 0, 80, 0
1, 12828, Note_on_c, 0, 79, 76
1, 12831, Note_on_c, 1, 63, 0
1, 12832, Note_on_c, 1, 67, 74
1, 12840, Note_on_c, 0, 79, 0
1, 12840, Note_on_c, 0, 77, 77
1, 12847, Note_on_c, 1, 67, 0
1, 12848, Note_on_c, 1, 70, 74
1, 12852, Note_on_c, 0, 77, 0
1, 12852, Note_on_c, 0, 75, 77
1, 12863, Note_on_c, 1, 70, 0
1, 12864, Note_on_c, 0, 75, 0
1, 12864, Note_on_c, 0, 74, 77
1, 12864, Note_on_c, 1, 65, 75
1, 12879, Note_on_c, 1, 65, 0
1, 12880, Note_on_c, 1, 68, 75
1, 12884, Note_on_c, 0, 74, 0
1, 12895, Note_on_c, 1, 68, 0
1, 12896, Note_on_c, 1, 70, 75
1, 12911, Note_on_c, 1, 70, 0
1, 12912, Note_on_c, 1, 65, 76
1, 12927, Note_on_c, 1, 65, 0
1, 12928, Note_on_c, 1, 68, 76
1, 12943, Note_on_c, 1, 68, 0
1, 12944, Note_on_c, 1, 70, 76
1, 12959, Note_on_c, 1, 70, 0
1, 12960, Note_on_c, 1, 62, 76
1, 12975, Note_on_c, 1, 62, 0
1, 12976, Note_on_c, 1, 65, 77
1, 12991, Note_on_c, 1, 65, 0
1, 12992, Note_on_c, 1, 70, 77
1, 13007, Note_on_c, 1, 70, 0
1, 13008, Note_on_c, 0, 86, 80
1, 13008, Note_on_c, 1, 62, 77
1, 13020, Note_on_c, 0, 86, 0
1, 13020, Note_on_c, 0, 84, 81
1, 13023, Note_on_c, 1, 62, 0
1, 13024, Note_on_c, 1, 65, 77
1, 13032, Note_on_c, 0, 84, 0
1, 13032, Note_on_c, 0, 82, 81
1, 13039, Note_on_c, 1, 65, 0
1, 13040, Note_on_c, 1, 70, 78
1, 13044, Note_on_c, 0, 82, 0
1, 13044, Note_on_c, 0, 80, 81
1, 13055, Note_on_c, 1, 70, 0
1, 13056, Note_on_c, 0, 80, 0
1, 13056, Note_on_c, 0, 79, 81
1, 13056, Note_on_c, 1, 63, 78
1, 13071, Note_on_c, 1, 63, 0
1, 13072, Note_on_c, 1, 67, 78
1, 13076, Note_on_c, 0, 79, 0
1, 13087, Note_on_c, 1, 67, 0
1, 13088, Note_on_c, 1, 70, 78
1, 13103, Note_on_c, 1, 70, 0
1, 13104, Note_on_c, 0, 80, 83
1, 13104, Note_on_c, 1, 63, 83
1, 13116, Note_on_c, 0, 80, 0
1, 13116, Note_on_c, 0, 79, 83
1, 13119, Note_on_c, 1, 63, 0
1, 13120, Note_on_c, 1, 67, 83
1, 13128, Note_on_c, 0, 79, 0
1, 13128, Note_on_c, 0, 77, 83
1, 13135, Note_on_c, 1, 67, 0
1, 13136, Note_on_c, 1, 70, 83
1, 13140, Note_on_c, 0, 77, 0
1, 13140, Note_on_c, 0, 75, 83
1, 13151, Note_on_c, 1, 70, 0
1, 13152, Note_on_c, 0, 75, 0
1, 13152, Note_on_c, 0, 74, 83
1, 13152, Note_on_c, 1, 65, 83
1, 13167, Note_on_c, 1, 65, 0
1, 13168, Note_on_c, 1, 68, 83
1, 13172, Note_on_c, 0, 74, 0
1, 13183, Note_on_c, 1, 68, 0
1, 13184, Note_on_c, 1, 70, 83
1, 13199, Note_on_c, 1, 70, 0
1, 13200, Note_on_c, 0, 86, 83
1, 13200, Note_on_c, 1, 62, 83
1, 13212, Note_on_c, 0, 86, 0
1, 13212, Note_on_c, 0, 84, 83
1, 13215, Note_on_c, 1, 62, 0
1, 13216, Note_on_c, 1, 65, 83
1, 13224, Note_on_c, 0, 84, 0
1, 13224, Note_on_c, 0, 82, 83
1, 13231, Note_on_c, 1, 65, 0
1, 13232, Note_on_c, 1, 70, 83
1, 13236, Note_on_c, 0, 82, 0
1, 13236, Note_on_c, 0, 80, 83
1, 13247, Note_on_c, 1, 70, 0
1, 13248, Note_on_c, 0, 80, 0
1, 13248, Note_on_c, 0, 79, 83
1, 13248, Note_on_c, 1, 63, 83
1, 13263, Note_on_c, 1, 63, 0
1, 13264, Note_on_c, 1, 67, 83
1, 13268, Note_on_c, 0, 79, 0
1, 13279, Note_on_c, 1, 67, 0
1, 13280, Note_on_c, 1, 70, 83
1, 13295, Note_on_c, 1, 70, 0
1, 13296, Note_on_c, 0, 80, 83
1, 13296, Note_on_c, 1, 63, 83
1, 13308, Note_on_c, 0, 80, 0
1, 13308, Note_on_c, 0, 79, 83
1, 13311, Note_on_c, 1, 63, 0
1, 13312, Note_on_c, 1, 67, 83
1, 13320, Note_on_c, 0, 79, 0
1, 13320, Note_on_c, 0, 77, 83
1, 13327, Note_on_c, 1, 67, 0
1, 13328, Note_on_c, 1, 70, 83
1, 13332, Note_on_c, 0, 77, 0
1, 13332, Note_on_c, 0, 75, 83
1, 13343, Note_on_c, 1, 70, 0
1, 13344, Note_on_c, 0, 75, 0
1, 13344, Note_on_c, 0, 74, 83
1, 13344, Note_on_c, 1, 65, 83
1, 13359, Note_on_c, 1, 65, 0
1, 13360, Note_on_c, 1, 68, 83
1, 13364, Note_on_c, 0, 74, 0
1, 13375, Note_on_c, 1, 68, 0
1, 13376, Note_on_c, 1, 70, 83
1, 13391, Note_on_c, 1, 70, 0
1, 13392, Note_on_c, 0, 86, 83
1, 13392, Note_on_c, 1, 62, 83
1, 13404, Note_on_c, 0, 86, 0
1, 13404, Note_on_c, 0, 84, 83
1, 13407, Note_on_c, 1, 62, 0
1, 13408, Note_on_c, 1, 65, 83
1, 13416, Note_on_c, 0, 84, 0
1, 13416, Note_on_c, 0, 82, 83
1, 13423, Note_on_c, 1, 65, 0
1, 13424, Note_on_c, 1, 70, 83
1, 13428, Note_on_c, 0, 82, 0
1, 13428, Note_on_c, 0, 80, 83
1, 13439, Note_on_c, 1, 70, 0
1, 13440, Note_on_c, 0, 80, 0
1, 13440, Note_on_c, 0, 79, 83
1, 13440, Note_on_c, 1, 63, 83
1, 13460, Note_on_c, 0, 79, 0
1, 13488, Note_on_c, 0, 87, 83
1, 13503, Note_on_c, 0, 87, 0
1, 13504, Note_on_c, 0, 86, 83
1, 13519, Note_on_c, 0, 86, 0
1, 13520, Note_on_c, 0, 84, 83
1, 13529, Note_on_c, 1, 63, 0
1, 13535, Note_on_c, 0, 84, 0
1, 13536, Note_on_c, 0, 82, 83
1, 13551, Note_on_c, 0, 82, 0
1, 13552, Note_on_c, 0, 80, 83
1, 13567, Note_on_c, 0, 80, 0
1, 13568, Note_on_c, 0, 79, 83
1, 13583, Note_on_c, 0, 79, 0
1, 13584, Note_on_c, 0, 77, 83
1, 13599, Note_on_c, 0, 77, 0
1, 13600, Note_on_c, 0, 75, 83
1, 13615, Note_on_c, 0, 75, 0
1, 13616, Note_on_c, 0, 74, 83
1, 13631, Note_on_c, 0, 74, 0
1, 13632, Note_on_c, 0, 72, 83
1, 13632, Note_on_c, 1, 56, 83
1, 13652, Note_on_c, 0, 72, 0
1, 13704, Note_on_c, 0, 76, 83
1, 13721, Note_on_c, 1, 56, 0
1, 13727, Note_on_c, 0, 76, 0
1, 13728, Note_on_c, 0, 77, 83
1, 13751, Note_on_c, 0, 77, 0
1, 13752, Note_on_c, 0, 78, 83
1, 13775, Note_on_c, 0, 78, 0
1, 13776, Note_on_c, 0, 79, 84
1, 13799, Note_on_c, 0, 79, 0
1, 13800, Note_on_c, 0, 80, 84
1, 13823, Note_on_c, 0, 80, 0
1, 13824, Note_on_c, 0, 81, 85
1, 13847, Note_on_c, 0, 81, 0
1, 13848, Note_on_c, 0, 82, 86
1, 13871, Note_on_c, 0, 82, 0
1, 13872, Note_on_c, 0, 83, 86
1, 13895, Note_on_c, 0, 83, 0
1, 13896, Note_on_c, 0, 84, 87
1, 13919, Note_on_c, 0, 84, 0
1, 13920, Note_on_c, 0, 82, 88
1, 13943, Note_on_c, 0, 82, 0
1, 13944, Note_on_c, 0, 80, 87
1, 13967, Note_on_c, 0, 80, 0
1, 13968, Note_on_c, 0, 79, 86
1, 13991, Note_on_c, 0, 79, 0
1, 13992, Note_on_c, 0, 77, 86
1, 14015, Note_on_c, 0, 77, 0
1, 14016, Note_on_c, 0, 75, 85
1, 14064, Note_on_c, 1, 67, 74
1, 14064, Note_on_c, 1, 58, 74
1, 14109, Note_on_c, 1, 67, 0
1, 14109, Note_on_c, 1, 58, 0
1, 14112, Note_on_c, 1, 67, 72
1, 14112, Note_on_c, 1, 58, 72
1, 14135, Note_on_c, 0, 75, 0
1, 14136, Note_on_c, 0, 74, 83
1, 14157, Note_on_c, 1, 67, 0
1, 14157, Note_on_c, 1, 58, 0
1, 14159, Note_on_c, 0, 74, 0
1, 14160, Note_on_c, 0, 80, 83
1, 14160, Note_on_c, 1, 65, 70
1, 14160, Note_on_c, 1, 58, 70
1, 14175, Note_on_c, 0, 80, 0
1, 14176, Note_on_c, 0, 77, 83
1, 14191, Note_on_c, 0, 77, 0
1, 14192, Note_on_c, 0, 74, 83
1, 14205, Note_on_c, 1, 65, 0
1, 14205, Note_on_c, 1, 58, 0
1, 14207, Note_on_c, 0, 74, 0
1, 14208, Note_on_c, 0, 75, 83
1, 14208, Note_on_c, 1, 63, 68
1, 14255, Note_on_c, 0, 75, 0
1, 14255, Note_on_c, 1, 63, 0
1, 14304, Note_on_c, 0, 70, 74
1, 14304, Note_on_c, 0, 67, 74
1, 14371, Note_on_c, 0, 70, 0
1, 14371, Note_on_c, 0, 67, 0
1, 14376, Note_on_c, 0, 74, 74
1, 14382, Note_on_c, 0, 74, 0
1, 14382, Note_on_c, 0, 72, 74
1, 14382, Note_on_c, 0, 68, 74
1, 14399, Note_on_c, 0, 72, 0
1, 14399, Note_on_c, 0, 68, 0
1, 14400, Note_on_c, 0, 70, 74
1, 14400, Note_on_c, 0, 67, 74
1, 14400, Note_on_c, 1, 39, 68
1, 14489, Note_on_c, 0, 70, 0
1, 14489, Note_on_c, 0, 67, 0
1, 14489, Note_on_c, 1, 39, 0
1, 14592, Note_on_c, 0, 79, 74
1, 14592, Note_on_c, 0, 75, 74
1, 14640, Note_on_c, 1, 48, 74
1, 14688, Note_on_c, 1, 48, 0
1, 14688, Note_on_c, 1, 60, 74
1, 14708, Note_on_c, 1, 60, 0
1, 14736, Note_on_c, 0, 79, 0
1, 14736, Note_on_c, 0, 75, 0
1, 14736, Note_on_c, 0, 77, 74
1, 14736, Note_on_c, 0, 74, 74
1, 14781, Note_on_c, 0, 77, 0
1, 14781, Note_on_c, 0, 74, 0
1, 14784, Note_on_c, 0, 80, 74
1, 14784, Note_on_c, 0, 77, 74
1, 14832, Note_on_c, 1, 48, 74
1, 14880, Note_on_c, 1, 48, 0
1, 14880, Note_on_c, 1, 60, 74
1, 14900, Note_on_c, 1, 60, 0
1, 14928, Note_on_c, 0, 80, 0
1, 14928, Note_on_c, 0, 77, 0
1, 14928, Note_on_c, 0, 79, 74
1, 14928, Note_on_c, 0, 75, 74
1, 14973, Note_on_c, 0, 79, 0
1, 14973, Note_on_c, 0, 75, 0
1, 14976, Note_on_c, 0, 77, 74
1, 14976, Note_on_c, 0, 68, 74
1, 15021, Note_on_c, 0, 77, 0
1, 15021, Note_on_c, 0, 68, 0
1, 15024, Note_on_c, 0, 75, 75
1, 15024, Note_on_c, 0, 67, 75
1, 15024, Note_on_c, 1, 48, 74
1, 15069, Note_on_c, 0, 75, 0
1, 15069, Note_on_c, 0, 67, 0
1, 15069, Note_on_c, 1, 48, 0
1, 15072, Note_on_c, 0, 74, 76
1, 15072, Note_on_c, 0, 65, 76
1, 15072, Note_on_c, 1, 53, 74
1, 15117, Note_on_c, 0, 74, 0
1, 15117, Note_on_c, 0, 65, 0
1, 15117, Note_on_c, 1, 53, 0
1, 15120, Note_on_c, 0, 72, 77
1, 15120, Note_on_c, 0, 63, 77
1, 15120, Note_on_c, 1, 54, 74
1, 15165, Note_on_c, 0, 72, 0
1, 15165, Note_on_c, 0, 63, 0
1, 15165, Note_on_c, 1, 54, 0
1, 15168, Note_on_c, 0, 71, 79
1, 15168, Note_on_c, 0, 63, 64
1, 15168, Note_on_c, 1, 55, 74
1, 15174, Note_on_c, 0, 71, 0
1, 15174, Note_on_c, 0, 72, 79
1, 15180, Note_on_c, 0, 72, 0
1, 15180, Note_on_c, 0, 74, 79
1, 15186, Note_on_c, 0, 74, 0
1, 15186, Note_on_c, 0, 72, 79
1, 15257, Note_on_c, 0, 63, 0
1, 15257, Note_on_c, 1, 55, 0
1, 15264, Note_on_c, 0, 72, 0
1, 15264, Note_on_c, 0, 71, 75
1, 15264, Note_on_c, 0, 62, 64
1, 15264, Note_on_c, 1, 43, 74
1, 15309, Note_on_c, 0, 71, 0
1, 15309, Note_on_c, 0, 62, 0
1, 15309, Note_on_c, 1, 43, 0
1, 15312, Note_on_c, 0, 68, 64
1, 15312, Note_on_c, 1, 63, 74
1, 15312, Note_on_c, 1, 60, 74
1, 15357, Note_on_c, 0, 68, 0
1, 15357, Note_on_c, 1, 63, 0
1, 15357, Note_on_c, 1, 60, 0
1, 15360, Note_on_c, 0, 67, 74
1, 15360, Note_on_c, 1, 62, 74
1, 15360, Note_on_c, 1, 59, 74
1, 15366, Note_on_c, 0, 67, 0
1, 15366, Note_on_c, 0, 68, 74
1, 15372, Note_on_c, 0, 68, 0
1, 15372, Note_on_c, 0, 70, 74
1, 15378, Note_on_c, 0, 70, 0
1, 15378, Note_on_c, 0, 68, 74
1, 15456, Note_on_c, 0, 68, 0
1, 15456, Note_on_c, 0, 67, 74
1, 15476, Note_on_c, 0, 67, 0
1, 15493, Note_on_c, 1, 62, 0
1, 15493, Note_on_c, 1, 59, 0
1, 15504, Note_on_c, 0, 72, 74
1, 15504, Note_on_c, 1, 67, 74
1, 15504, Note_on_c, 1, 63, 74
1, 15549, Note_on_c, 0, 72, 0
1, 15549, Note_on_c, 1, 67, 0
1, 15549, Note_on_c, 1, 63, 0
1, 15552, Note_on_c, 0, 71, 74
1, 15552, Note_on_c, 1, 65, 74
1, 15552, Note_on_c, 1, 62, 74
1, 15558, Note_on_c, 0, 71, 0
1, 15558, Note_on_c, 0, 72, 74
1, 15564, Note_on_c, 0, 72, 0
1, 15564, Note_on_c, 0, 74, 74
1, 15570, Note_on_c, 0, 74, 0
1, 15570, Note_on_c, 0, 72, 74
1, 15648, Note_on_c, 0, 72, 0
1, 15648, Note_on_c, 0, 71, 74
1, 15658, Note_on_c, 0, 71, 0
1, 15672, Note_on_c, 0, 80, 74
1, 15685, Note_on_c, 1, 65, 0
1, 15685, Note_on_c, 1, 62, 0
1, 15695, Note_on_c, 0, 80, 0
1, 15696, Note_on_c, 0, 79, 74
1, 15696, Note_on_c, 1, 67, 74
1, 15696, Note_on_c, 1, 59, 74
1, 15719, Note_on_c, 0, 79, 0
1, 15720, Note_on_c, 0, 77, 74
1, 15743, Note_on_c, 0, 77, 0
1, 15744, Note_on_c, 0, 77, 74
1, 15744, Note_on_c, 1, 59, 0
1, 15744, Note_on_c, 1, 60, 64
1, 15767, Note_on_c, 0, 77, 0
1, 15768, Note_on_c, 0, 75, 74
1, 15789, Note_on_c, 1, 60, 0
1, 15791, Note_on_c, 0, 75, 0
1, 15792, Note_on_c, 0, 74, 74
1, 15792, Note_on_c, 1, 63, 64
1, 15798, Note_on_c, 0, 74, 0
1, 15798, Note_on_c, 0, 75, 74
1, 15804, Note_on_c, 0, 75, 0
1, 15804, Note_on_c, 0, 74, 74
1, 15815, Note_on_c, 0, 74, 0
1, 15816, Note_on_c, 0, 72, 74
1, 15833, Note_on_c, 1, 67, 0
1, 15837, Note_on_c, 1, 63, 0
1, 15839, Note_on_c, 0, 72, 0
1, 15840, Note_on_c, 0, 71, 74
1, 15840, Note_on_c, 1, 65, 74
1, 15840, Note_on_c, 1, 62, 64
1, 15885, Note_on_c, 0, 71, 0
1, 15885, Note_on_c, 1, 65, 0
1, 15885, Note_on_c, 1, 62, 0
1, 15888, Note_on_c, 0, 72, 76
1, 15888, Note_on_c, 1, 63, 74
1, 15888, Note_on_c, 1, 60, 64
1, 15933, Note_on_c, 0, 72, 0
1, 15933, Note_on_c, 1, 63, 0
1, 15933, Note_on_c, 1, 60, 0
1, 15936, Note_on_c, 0, 75, 79
1, 15936, Note_on_c, 1, 60, 74
1, 15936, Note_on_c, 1, 55, 64
1, 16003, Note_on_c, 0, 75, 0
1, 16008, Note_on_c, 0, 77, 76
1, 16020, Note_on_c, 0, 77, 0
1, 16020, Note_on_c, 0, 75, 76
1, 16032, Note_on_c, 0, 75, 0
1, 16032, Note_on_c, 0, 74, 75
1, 16032, Note_on_c, 1, 60, 0
1, 16032, Note_on_c, 1, 59, 74
1, 16069, Note_on_c, 1, 55, 0
1, 16077, Note_on_c, 0, 74, 0
1, 16077, Note_on_c, 1, 59, 0
1, 16128, Note_on_c, 0, 67, 74
1, 16128, Note_on_c, 0, 63, 74
1, 16176, Note_on_c, 1, 36, 74
1, 16224, Note_on_c, 1, 36, 0
1, 16224, Note_on_c, 1, 48, 74
1, 16244, Note_on_c, 1, 48, 0
1, 16272, Note_on_c, 0, 67, 0
1, 16272, Note_on_c, 0, 63, 0
1, 16272, Note_on_c, 0, 65, 74
1, 16272, Note_on_c, 0, 62, 74
1, 16317, Note_on_c, 0, 65, 0
1, 16317, Note_on_c, 0, 62, 0
1, 16320, Note_on_c, 0, 68, 74
1, 16320, Note_on_c, 0, 65, 74
1, 16368, Note_on_c, 1, 36, 74
1, 16416, Note_on_c, 1, 36, 0
1, 16416, Note_on_c, 1, 48, 74
1, 16436, Note_on_c, 1, 48, 0
1, 16464, Note_on_c, 0, 68, 0
1, 16464, Note_on_c, 0, 65, 0
1, 16464, Note_on_c, 0, 67, 74
1, 16464, Note_on_c, 0, 63, 74
1, 16509, Note_on_c, 0, 67, 0
1, 16509, Note_on_c, 0, 63, 0
1, 16512, Note_on_c, 0, 72, 74
1, 16560, Note_on_c, 1, 67, 74
1, 16560, Note_on_c, 1, 63, 74
1, 16605, Note_on_c, 1, 67, 0
1, 16605, Note_on_c, 1, 63, 0
1, 16608, Note_on_c, 1, 65, 74
1, 16608, Note_on_c, 1, 62, 74
1, 16642, Note_on_c, 0, 72, 0
1, 16644, Note_on_c, 0, 71, 74
1, 16653, Note_on_c, 1, 65, 0
1, 16653, Note_on_c, 1, 62, 0
1, 16656, Note_on_c, 0, 71, 0
1, 16656, Note_on_c, 0, 74, 74
1, 16656, Note_on_c, 1, 68, 74
1, 16656, Note_on_c, 1, 65, 74
1, 16690, Note_on_c, 0, 74, 0
1, 16692, Note_on_c, 0, 72, 74
1, 16701, Note_on_c, 1, 68, 0
1, 16701, Note_on_c, 1, 65, 0
1, 16704, Note_on_c, 0, 72, 0
1, 16704, Note_on_c, 0, 75, 74
1, 16704, Note_on_c, 1, 67, 74
1, 16704, Note_on_c, 1, 63, 74
1, 16724, Note_on_c, 0, 75, 0
1, 16749, Note_on_c, 1, 67, 0
1, 16749, Note_on_c, 1, 63, 0
1, 16800, Note_on_c, 0, 72, 74
1, 16812, Note_on_c, 0, 72, 0
1, 16812, Note_on_c, 0, 74, 74
1, 16824, Note_on_c, 0, 74, 0
1, 16824, Note_on_c, 0, 75, 75
1, 16836, Note_on_c, 0, 75, 0
1, 16836, Note_on_c, 0, 77, 75
1, 16848, Note_on_c, 0, 77, 0
1, 16848, Note_on_c, 0, 79, 76
1, 16860, Note_on_c, 0, 79, 0
1, 16860, Note_on_c, 0, 80, 77
1, 16872, Note_on_c, 0, 80, 0
1, 16872, Note_on_c, 0, 82, 77
1, 16884, Note_on_c, 0, 82, 0
1, 16884, Note_on_c, 0, 84, 78
1, 16896, Note_on_c, 0, 84, 0
1, 16896, Note_on_c, 0, 82, 95
1, 16944, Note_on_c, 1, 72, 74
1, 16944, Note_on_c, 1, 65, 74
1, 16968, Note_on_c, 0, 82, 0
1, 16968, Note_on_c, 0, 80, 79
1, 16974, Note_on_c, 0, 80, 0
1, 16974, Note_on_c, 0, 82, 79
1, 16980, Note_on_c, 0, 82, 0
1, 16980, Note_on_c, 0, 80, 79
1, 16989, Note_on_c, 1, 72, 0
1, 16989, Note_on_c, 1, 65, 0
1, 16991, Note_on_c, 0, 80, 0
1, 16992, Note_on_c, 0, 79, 79
1, 17040, Note_on_c, 1, 72, 74
1, 17040, Note_on_c, 1, 63, 74
1, 17059, Note_on_c, 0, 79, 0
1, 17064, Note_on_c, 0, 84, 79
1, 17085, Note_on_c, 1, 72, 0
1, 17085, Note_on_c, 1, 63, 0
1, 17087, Note_on_c, 0, 84, 0
1, 17088, Note_on_c, 0, 79, 79
1, 17136, Note_on_c, 1, 71, 74
1, 17136, Note_on_c, 1, 62, 74
1, 17155, Note_on_c, 0, 79, 0
1, 17160, Note_on_c, 0, 77, 79
1, 17166, Note_on_c, 0, 77, 0
1, 17166, Note_on_c, 0, 79, 79
1, 17172, Note_on_c, 0, 79, 0
1, 17172, Note_on_c, 0, 77, 79
1, 17181, Note_on_c, 1, 71, 0
1, 17181, Note_on_c, 1, 62, 0
1, 17183, Note_on_c, 0, 77, 0
1, 17184, Note_on_c, 0, 75, 79
1, 17229, Note_on_c, 0, 75, 0
1, 17232, Note_on_c, 1, 72, 74
1, 17232, Note_on_c, 1, 60, 74
1, 17277, Note_on_c, 1, 72, 0
1, 17277, Note_on_c, 1, 60, 0
1, 17280, Note_on_c, 1, 68, 74
1, 17280, Note_on_c, 1, 65, 74
1, 17304, Note_on_c, 0, 73, 79
1, 17327, Note_on_c, 0, 73, 0
1, 17328, Note_on_c, 0, 75, 79
1, 17334, Note_on_c, 0, 75, 0
1, 17334, Note_on_c, 0, 73, 79
1, 17340, Note_on_c, 0, 73, 0
1, 17340, Note_on_c, 0, 72, 79
1, 17346, Note_on_c, 0, 72, 0
1, 17346, Note_on_c, 0, 73, 79
1, 17352, Note_on_c, 0, 73, 0
1, 17352, Note_on_c, 0, 80, 79
1, 17369, Note_on_c, 1, 68, 0
1, 17369, Note_on_c, 1, 65, 0
1, 17375, Note_on_c, 0, 80, 0
1, 17376, Note_on_c, 0, 72, 79
1, 17376, Note_on_c, 1, 63, 74
1, 17376, Note_on_c, 1, 55, 74
1, 17396, Note_on_c, 1, 63, 0
1, 17396, Note_on_c, 1, 55, 0
1, 17421, Note_on_c, 0, 72, 0
1, 17424, Note_on_c, 0, 71, 79
1, 17424, Note_on_c, 1, 62, 74
1, 17424, Note_on_c, 1, 55, 74
1, 17430, Note_on_c, 0, 71, 0
1, 17430, Note_on_c, 0, 72, 79
1, 17436, Note_on_c, 0, 72, 0
1, 17436, Note_on_c, 0, 71, 79
1, 17444, Note_on_c, 1, 62, 0
1, 17444, Note_on_c, 1, 55, 0
1, 17471, Note_on_c, 0, 71, 0
1, 17472, Note_on_c, 0, 72, 79
1, 17472, Note_on_c, 1, 60, 74
1, 17472, Note_on_c, 1, 48, 74
1, 17511, Note_on_c, 0, 72, 0
1, 17561, Note_on_c, 1, 60, 0
1, 17561, Note_on_c, 1, 48, 0
1, 17664, Note_on_c, 0, 63, 99
1, 17760, Note_on_c, 1, 61, 79
1, 17760, Note_on_c, 1, 58, 79
1, 17760, Note_on_c, 1, 51, 79
1, 17783, Note_on_c, 0, 63, 0
1, 17784, Note_on_c, 0, 63, 83
1, 17807, Note_on_c, 0, 63, 0
1, 17808, Note_on_c, 0, 65, 83
1, 17820, Note_on_c, 0, 65, 0
1, 17820, Note_on_c, 0, 63, 83
1, 17832, Note_on_c, 0, 63, 0
1, 17832, Note_on_c, 0, 62, 83
1, 17844, Note_on_c, 0, 62, 0
1, 17844, Note_on_c, 0, 63, 83
1, 17849, Note_on_c, 1, 61, 0
1, 17849, Note_on_c, 1, 58, 0
1, 17849, Note_on_c, 1, 51, 0
1, 17856, Note_on_c, 0, 63, 0
1, 17856, Note_on_c, 0, 68, 83
1, 17856, Note_on_c, 1, 60, 79
1, 17856, Note_on_c, 1, 56, 79
1, 17856, Note_on_c, 1, 51, 79
1, 17879, Note_on_c, 0, 68, 0
1, 17880, Note_on_c, 0, 63, 83
1, 17903, Note_on_c, 0, 63, 0
1, 17904, Note_on_c, 0, 65, 83
1, 17916, Note_on_c, 0, 65, 0
1, 17916, Note_on_c, 0, 63, 83
1, 17928, Note_on_c, 0, 63, 0
1, 17928, Note_on_c, 0, 62, 83
1, 17940, Note_on_c, 0, 62, 0
1, 17940, Note_on_c, 0, 63, 83
1, 17945, Note_on_c, 1, 60, 0
1, 17945, Note_on_c, 1, 56, 0
1, 17945, Note_on_c, 1, 51, 0
1, 17952, Note_on_c, 0, 63, 0
1, 17952, Note_on_c, 0, 70, 83
1, 17952, Note_on_c, 1, 61, 79
1, 17952, Note_on_c, 1, 55, 79
1, 17952, Note_on_c, 1, 51, 79
1, 17975, Note_on_c, 0, 70, 0
1, 17976, Note_on_c, 0, 63, 83
1, 17999, Note_on_c, 0, 63, 0
1, 18000, Note_on_c, 0, 65, 83
1, 18012, Note_on_c, 0, 65, 0
1, 18012, Note_on_c, 0, 63, 83
1, 18024, Note_on_c, 0, 63, 0
1, 18024, Note_on_c, 0, 62, 83
1, 18036, Note_on_c, 0, 62, 0
1, 18036, Note_on_c, 0, 63, 83
1, 18041, Note_on_c, 1, 61, 0
1, 18041, Note_on_c, 1, 55, 0
1, 18041, Note_on_c, 1, 51, 0
1, 18048, Note_on_c, 0, 63, 0
1, 18048, Note_on_c, 0, 72, 83
1, 18048, Note_on_c, 1, 60, 79
1, 18048, Note_on_c, 1, 56, 79
1, 18093, Note_on_c, 0, 72, 0
1, 18093, Note_on_c, 1, 60, 0
1, 18093, Note_on_c, 1, 56, 0
1, 18144, Note_on_c, 0, 74, 74
1, 18167, Note_on_c, 0, 74, 0
1, 18168, Note_on_c, 0, 75, 75
1, 18191, Note_on_c, 0, 75, 0
1, 18192, Note_on_c, 0, 77, 76
1, 18215, Note_on_c, 0, 77, 0
1, 18216, Note_on_c, 0, 75, 77
1, 18239, Note_on_c, 0, 75, 0
1, 18240, Note_on_c, 0, 73, 79
1, 18263, Note_on_c, 0, 73, 0
1, 18264, Note_on_c, 0, 72, 77
1, 18287, Note_on_c, 0, 72, 0
1, 18288, Note_on_c, 0, 70, 76
1, 18311, Note_on_c, 0, 70, 0
1, 18312, Note_on_c, 0, 68, 75
1, 18335, Note_on_c, 0, 68, 0
1, 18336, Note_on_c, 0, 67, 74
1, 18356, Note_on_c, 0, 67, 0
1, 18384, Note_on_c, 0, 70, 83
1, 18404, Note_on_c, 0, 70, 0
1, 18432, Note_on_c, 0, 68, 68
1, 18452, Note_on_c, 0, 68, 0
1, 18480, Note_on_c, 0, 73, 83
1, 18500, Note_on_c, 0, 73, 0
1, 18528, Note_on_c, 0, 72, 68
1, 18548, Note_on_c, 0, 72, 0
1, 18576, Note_on_c, 0, 77, 83
1, 18596, Note_on_c, 0, 77, 0
1, 18624, Note_on_c, 0, 75, 68
1, 18743, Note_on_c, 0, 75, 0
1, 18744, Note_on_c, 0, 73, 68
1, 18767, Note_on_c, 0, 73, 0
1, 18768, Note_on_c, 0, 72, 68
1, 18791, Note_on_c, 0, 72, 0
1, 18792, Note_on_c, 0, 70, 68
1, 18815, Note_on_c, 0, 70, 0
1, 18816, Note_on_c, 0, 70, 83
1, 18912, Note_on_c, 0, 70, 0
1, 18912, Note_on_c, 0, 69, 83
1, 18912, Note_on_c, 1, 63, 79
1, 18912, Note_on_c, 1, 60, 79
1, 18912, Note_on_c, 1, 53, 79
1, 18935, Note_on_c, 0, 69, 0
1, 18936, Note_on_c, 0, 65, 83
1, 18959, Note_on_c, 0, 65, 0
1, 18960, Note_on_c, 0, 67, 83
1, 18972, Note_on_c, 0, 67, 0
1, 18972, Note_on_c, 0, 65, 83
1, 18984, Note_on_c, 0, 65, 0
1, 18984, Note_on_c, 0, 63, 83
1, 18996, Note_on_c, 0, 63, 0
1, 18996, Note_on_c, 0, 65, 83
1, 19001, Note_on_c, 1, 63, 0
1, 19001, Note_on_c, 1, 60, 0
1, 19001, Note_on_c, 1, 53, 0
1, 19008, Note_on_c, 0, 65, 0
1, 19008, Note_on_c, 0, 70, 83
1, 19008, Note_on_c, 1, 62, 79
1, 19008, Note_on_c, 1, 58, 79
1, 19008, Note_on_c, 1, 53, 79
1, 19031, Note_on_c, 0, 70, 0
1, 19032, Note_on_c, 0, 65, 83
1, 19055, Note_on_c, 0, 65, 0
1, 19056, Note_on_c, 0, 67, 83
1, 19068, Note_on_c, 0, 67, 0
1, 19068, Note_on_c, 0, 65, 83
1, 19080, Note_on_c, 0, 65, 0
1, 19080, Note_on_c, 0, 63, 83
1, 19092, Note_on_c, 0, 63, 0
1, 19092, Note_on_c, 0, 65, 83
1, 19097, Note_on_c, 1, 62, 0
1, 19097, Note_on_c, 1, 58, 0
1, 19097, Note_on_c, 1, 53, 0
1, 19104, Note_on_c, 0, 65, 0
1, 19104, Note_on_c, 0, 72, 83
1, 19104, Note_on_c, 1, 63, 79
1, 19104, Note_on_c, 1, 57, 79
1, 19104, Note_on_c, 1, 53, 79
1, 19127, Note_on_c, 0, 72, 0
1, 19128, Note_on_c, 0, 65, 83
1, 19151, Note_on_c, 0, 65, 0
1, 19152, Note_on_c, 0, 67, 83
1, 19164, Note_on_c, 0, 67, 0
1, 19164, Note_on_c, 0, 65, 83
1, 19176, Note_on_c, 0, 65, 0
1, 19176, Note_on_c, 0, 63, 83
1, 19188, Note_on_c, 0, 63, 0
1, 19188, Note_on_c, 0, 65, 83
1, 19193, Note_on_c, 1, 63, 0
1, 19193, Note_on_c, 1, 57, 0
1, 19193, Note_on_c, 1, 53, 0
1, 19200, Note_on_c, 0, 65, 0
1, 19200, Note_on_c, 0, 74, 83
1, 19200, Note_on_c, 1, 62, 79
1, 19200, Note_on_c, 1, 58, 79
1, 19245, Note_on_c, 0, 74, 0
1, 19245, Note_on_c, 1, 62, 0
1, 19245, Note_on_c, 1, 58, 0
1, 19296, Note_on_c, 0, 76, 74
1, 19319, Note_on_c, 0, 76, 0
1, 19320, Note_on_c, 0, 77, 75
1, 19343, Note_on_c, 0, 77, 0
1, 19344, Note_on_c, 0, 79, 76
1, 19367, Note_on_c, 0, 79, 0
1, 19368, Note_on_c, 0, 77, 77
1, 19391, Note_on_c, 0, 77, 0
1, 19392, Note_on_c, 0, 75, 79
1, 19415, Note_on_c, 0, 75, 0
1, 19416, Note_on_c, 0, 74, 77
1, 19439, Note_on_c, 0, 74, 0
1, 19440, Note_on_c, 0, 72, 76
1, 19463, Note_on_c, 0, 72, 0
1, 19464, Note_on_c, 0, 70, 75
1, 19487, Note_on_c, 0, 70, 0
1, 19488, Note_on_c, 0, 69, 74
1, 19508, Note_on_c, 0, 69, 0
1, 19536, Note_on_c, 0, 72, 83
1, 19556, Note_on_c, 0, 72, 0
1, 19584, Note_on_c, 0, 70, 68
1, 19604, Note_on_c, 0, 70, 0
1, 19632, Note_on_c, 0, 75, 83
1, 19652, Note_on_c, 0, 75, 0
1, 19680, Note_on_c, 0, 74, 68
1, 19700, Note_on_c, 0, 74, 0
1, 19728, Note_on_c, 0, 79, 83
1, 19748, Note_on_c, 0, 79, 0
1, 19776, Note_on_c, 0, 77, 68
1, 19865, Note_on_c, 0, 77, 0
1, 19872, Note_on_c, 0, 75, 68
1, 19895, Note_on_c, 0, 75, 0
1, 19896, Note_on_c, 0, 74, 68
1, 19919, Note_on_c, 0, 74, 0
1, 19920, Note_on_c, 0, 72, 68
1, 19943, Note_on_c, 0, 72, 0
1, 19944, Note_on_c, 0, 70, 68
1, 19967, Note_on_c, 0, 70, 0
1, 19968, Note_on_c, 0, 68, 74
1, 19968, Note_on_c, 0, 65, 74
1, 20016, Note_on_c, 1, 46, 74
1, 20061, Note_on_c, 1, 46, 0
1, 20064, Note_on_c, 1, 50, 74
1, 20109, Note_on_c, 1, 50, 0
1, 20112, Note_on_c, 1, 53, 74
1, 20157, Note_on_c, 1, 53, 0
1, 20160, Note_on_c, 1, 58, 74
1, 20199, Note_on_c, 1, 58, 0
1, 20205, Note_on_c, 0, 68, 0
1, 20205, Note_on_c, 0, 65, 0
1, 20208, Note_on_c, 0, 68, 74
1, 20208, Note_on_c, 0, 65, 74
1, 20253, Note_on_c, 0, 68, 0
1, 20253, Note_on_c, 0, 65, 0
1, 20256, Note_on_c, 0, 70, 74
1, 20256, Note_on_c, 0, 67, 74
1, 20279, Note_on_c, 0, 70, 0
1, 20279, Note_on_c, 0, 67, 0
1, 20280, Note_on_c, 0, 68, 74
1, 20280, Note_on_c, 0, 65, 74
1, 20303, Note_on_c, 0, 68, 0
1, 20303, Note_on_c, 0, 65, 0
1, 20304, Note_on_c, 0, 67, 74
1, 20304, Note_on_c, 0, 63, 74
1, 20327, Note_on_c, 0, 67, 0
1, 20327, Note_on_c, 0, 63, 0
1, 20328, Note_on_c, 0, 65, 74
1, 20328, Note_on_c, 0, 62, 74
1, 20351, Note_on_c, 0, 65, 0
1, 20351, Note_on_c, 0, 62, 0
1, 20352, Note_on_c, 0, 66, 90
1, 20352, Note_on_c, 0, 62, 90
1, 20400, Note_on_c, 1, 46, 74
1, 20445, Note_on_c, 1, 46, 0
1, 20448, Note_on_c, 0, 66, 0
1, 20448, Note_on_c, 0, 62, 0
1, 20448, Note_on_c, 0, 67, 74
1, 20448, Note_on_c, 0, 63, 74
1, 20448, Note_on_c, 1, 51, 74
1, 20493, Note_on_c, 1, 51, 0
1, 20496, Note_on_c, 1, 55, 74
1, 20541, Note_on_c, 1, 55, 0
1, 20544, Note_on_c, 1, 58, 74
1, 20583, Note_on_c, 1, 58, 0
1, 20589, Note_on_c, 0, 67, 0
1, 20589, Note_on_c, 0, 63, 0
1, 20592, Note_on_c, 0, 82, 74
1, 20592, Note_on_c, 0, 79, 74
1, 20637, Note_on_c, 0, 82, 0
1, 20637, Note_on_c, 0, 79, 0
1, 20640, Note_on_c, 0, 84, 74
1, 20640, Note_on_c, 0, 80, 74
1, 20663, Note_on_c, 0, 84, 0
1, 20663, Note_on_c, 0, 80, 0
1, 20664, Note_on_c, 0, 82, 74
1, 20664, Note_on_c, 0, 79, 74
1, 20687, Note_on_c, 0, 82, 0
1, 20687, Note_on_c, 0, 79, 0
1, 20688, Note_on_c, 0, 80, 74
1, 20688, Note_on_c, 0, 77, 74
1, 20711, Note_on_c, 0, 80, 0
1, 20711, Note_on_c, 0, 77, 0
1, 20712, Note_on_c, 0, 79, 74
1, 20712, Note_on_c, 0, 76, 74
1, 20735, Note_on_c, 0, 79, 0
1, 20735, Note_on_c, 0, 76, 0
1, 20736, Note_on_c, 0, 79, 90
1, 20736, Note_on_c, 0, 76, 90
1, 20784, Note_on_c, 1, 46, 74
1, 20829, Note_on_c, 1, 46, 0
1, 20832, Note_on_c, 0, 79, 0
1, 20832, Note_on_c, 0, 76, 0
1, 20832, Note_on_c, 0, 80, 74
1, 20832, Note_on_c, 0, 77, 74
1, 20832, Note_on_c, 1, 50, 74
1, 20855, Note_on_c, 1, 50, 0
1, 20856, Note_on_c, 1, 46, 74
1, 20879, Note_on_c, 1, 46, 0
1, 20880, Note_on_c, 1, 53, 74
1, 20903, Note_on_c, 1, 53, 0
1, 20904, Note_on_c, 1, 50, 74
1, 20927, Note_on_c, 1, 50, 0
1, 20928, Note_on_c, 1, 58, 74
1, 20967, Note_on_c, 1, 58, 0
1, 20973, Note_on_c, 0, 80, 0
1, 20973, Note_on_c, 0, 77, 0
1, 20976, Note_on_c, 0, 80, 74
1, 20976, Note_on_c, 0, 77, 74
1, 21021, Note_on_c, 0, 80, 0
1, 21021, Note_on_c, 0, 77, 0
1, 21024, Note_on_c, 0, 82, 74
1, 21024, Note_on_c, 0, 78, 74
1, 21047, Note_on_c, 0, 82, 0
1, 21047, Note_on_c, 0, 78, 0
1, 21048, Note_on_c, 0, 80, 74
1, 21048, Note_on_c, 0, 77, 74
1, 21071, Note_on_c, 0, 80, 0
1, 21071, Note_on_c, 0, 77, 0
1, 21072, Note_on_c, 0, 78, 74
1, 21072, Note_on_c, 0, 75, 74
1, 21095, Note_on_c, 0, 78, 0
1, 21095, Note_on_c, 0, 75, 0
1, 21096, Note_on_c, 0, 77, 74
1, 21096, Note_on_c, 0, 74, 74
1, 21119, Note_on_c, 0, 77, 0
1, 21119, Note_on_c, 0, 74, 0
1, 21120, Note_on_c, 0, 78, 68
1, 21120, Note_on_c, 0, 75, 68
1, 21168, Note_on_c, 1, 57, 70
1, 21191, Note_on_c, 1, 57, 0
1, 21192, Note_on_c, 1, 45, 72
1, 21214, Note_on_c, 0, 78, 0
1, 21214, Note_on_c, 0, 75, 0
1, 21215, Note_on_c, 1, 45, 0
1, 21216, Note_on_c, 0, 79, 73
1, 21216, Note_on_c, 0, 75, 73
1, 21264, Note_on_c, 1, 58, 76
1, 21287, Note_on_c, 1, 58, 0
1, 21288, Note_on_c, 1, 46, 78
1, 21310, Note_on_c, 0, 79, 0
1, 21310, Note_on_c, 0, 75, 0
1, 21311, Note_on_c, 1, 46, 0
1, 21312, Note_on_c, 0, 80, 78
1, 21312, Note_on_c, 0, 75, 78
1, 21360, Note_on_c, 1, 60, 82
1, 21383, Note_on_c, 1, 60, 0
1, 21384, Note_on_c, 1, 48, 83
1, 21406, Note_on_c, 0, 80, 0
1, 21406, Note_on_c, 0, 75, 0
1, 21407, Note_on_c, 1, 48, 0
1, 21408, Note_on_c, 0, 81, 83
1, 21408, Note_on_c, 0, 75, 83
1, 21456, Note_on_c, 1, 59, 88
1, 21479, Note_on_c, 1, 59, 0
1, 21480, Note_on_c, 1, 47, 88
1, 21502, Note_on_c, 0, 81, 0
1, 21502, Note_on_c, 0, 75, 0
1, 21503, Note_on_c, 1, 47, 0
1, 21504, Note_on_c, 1, 46, 83
1, 21527, Note_on_c, 1, 46, 0
1, 21528, Note_on_c, 1, 58, 83
1, 21551, Note_on_c, 1, 58, 0
1, 21552, Note_on_c, 0, 74, 83
1, 21575, Note_on_c, 0, 74, 0
1, 21576, Note_on_c, 0, 82, 83
1, 21599, Note_on_c, 0, 82, 0
1, 21600, Note_on_c, 0, 80, 83
1, 21623, Note_on_c, 0, 80, 0
1, 21624, Note_on_c, 0, 79, 83
1, 21647, Note_on_c, 0, 79, 0
1, 21648, Note_on_c, 0, 77, 83
1, 21671, Note_on_c, 0, 77, 0
1, 21672, Note_on_c, 0, 75, 83
1, 21695, Note_on_c, 0, 75, 0
1, 21696, Note_on_c, 0, 74, 83
1, 21719, Note_on_c, 0, 74, 0
1, 21720, Note_on_c, 0, 72, 83
1, 21743, Note_on_c, 0, 72, 0
1, 21744, Note_on_c, 0, 70, 83
1, 21767, Note_on_c, 0, 70, 0
1, 21768, Note_on_c, 1, 68, 83
1, 21791, Note_on_c, 1, 68, 0
1, 21792, Note_on_c, 1, 67, 83
1, 21815, Note_on_c, 1, 67, 0
1, 21816, Note_on_c, 1, 65, 83
1, 21839, Note_on_c, 1, 65, 0
1, 21840, Note_on_c, 1, 63, 83
1, 21863, Note_on_c, 1, 63, 0
1, 21864, Note_on_c, 1, 62, 83
1, 21887, Note_on_c, 1, 62, 0
1, 21888, Note_on_c, 1, 60, 83
1, 21911, Note_on_c, 1, 60, 0
1, 21912, Note_on_c, 1, 58, 83
1, 21935, Note_on_c, 1, 58, 0
1, 21936, Note_on_c, 1, 56, 83
1, 21959, Note_on_c, 1, 56, 0
1, 21960, Note_on_c, 0, 84, 99
1, 21984, Note_on_c, 0, 84, 0
1, 21984, Note_on_c, 0, 82, 80
1, 22007, Note_on_c, 0, 82, 0
1, 22008, Note_on_c, 0, 80, 78
1, 22031, Note_on_c, 0, 80, 0
1, 22032, Note_on_c, 0, 79, 75
1, 22055, Note_on_c, 0, 79, 0
1, 22056, Note_on_c, 0, 77, 73
1, 22079, Note_on_c, 0, 77, 0
1, 22080, Note_on_c, 0, 76, 70
1, 22103, Note_on_c, 0, 76, 0
1, 22104, Note_on_c, 0, 77, 68
1, 22127, Note_on_c, 0, 77, 0
1, 22128, Note_on_c, 0, 78, 71
1, 22151, Note_on_c, 0, 78, 0
1, 22152, Note_on_c, 0, 77, 75
1, 22175, Note_on_c, 0, 77, 0
1, 22176, Note_on_c, 0, 79, 79
1, 22199, Note_on_c, 0, 79, 0
1, 22200, Note_on_c, 0, 77, 76
1, 22223, Note_on_c, 0, 77, 0
1, 22224, Note_on_c, 0, 80, 73
1, 22247, Note_on_c, 0, 80, 0
1, 22248, Note_on_c, 0, 77, 70
1, 22271, Note_on_c, 0, 77, 0
1, 22272, Note_on_c, 0, 76, 68
1, 22295, Note_on_c, 0, 76, 0
1, 22296, Note_on_c, 0, 77, 71
1, 22319, Note_on_c, 0, 77, 0
1, 22320, Note_on_c, 0, 78, 75
1, 22343, Note_on_c, 0, 78, 0
1, 22344, Note_on_c, 0, 77, 79
1, 22367, Note_on_c, 0, 77, 0
1, 22368, Note_on_c, 0, 79, 76
1, 22391, Note_on_c, 0, 79, 0
1, 22392, Note_on_c, 0, 77, 74
1, 22415, Note_on_c, 0, 77, 0
1, 22416, Note_on_c, 0, 80, 72
1, 22439, Note_on_c, 0, 80, 0
1, 22440, Note_on_c, 0, 77, 70
1, 22463, Note_on_c, 0, 77, 0
1, 22464, Note_on_c, 0, 76, 68
1, 22487, Note_on_c, 0, 76, 0
1, 22488, Note_on_c, 0, 77, 70
1, 22511, Note_on_c, 0, 77, 0
1, 22512, Note_on_c, 0, 78, 73
1, 22535, Note_on_c, 0, 78, 0
1, 22536, Note_on_c, 0, 77, 76
1, 22559, Note_on_c, 0, 77, 0
1, 22560, Note_on_c, 0, 79, 79
1, 22583, Note_on_c, 0, 79, 0
1, 22584, Note_on_c, 0, 77, 76
1, 22607, Note_on_c, 0, 77, 0
1, 22608, Note_on_c, 0, 80, 73
1, 22631, Note_on_c, 0, 80, 0
1, 22632, Note_on_c, 0, 77, 70
1, 22655, Note_on_c, 0, 77, 0
1, 22656, Note_on_c, 0, 75, 68
1, 22704, Note_on_c, 1, 68, 62
1, 22704, Note_on_c, 1, 65, 62
1, 22704, Note_on_c, 1, 58, 62
1, 22751, Note_on_c, 1, 68, 0
1, 22751, Note_on_c, 1, 65, 0
1, 22751, Note_on_c, 1, 58, 0
1, 22752, Note_on_c, 1, 68, 65
1, 22752, Note_on_c, 1, 65, 65
1, 22752, Note_on_c, 1, 58, 65
1, 22799, Note_on_c, 1, 68, 0
1, 22799, Note_on_c, 1, 65, 0
1, 22799, Note_on_c, 1, 58, 0
1, 22800, Note_on_c, 1, 68, 68
1, 22800, Note_on_c, 1, 65, 68
1, 22800, Note_on_c, 1, 58, 68
1, 22847, Note_on_c, 1, 68, 0
1, 22847, Note_on_c, 1, 65, 0
1, 22847, Note_on_c, 1, 58, 0
1, 22848, Note_on_c, 1, 68, 71
1, 22848, Note_on_c, 1, 65, 71
1, 22848, Note_on_c, 1, 58, 71
1, 22863, Note_on_c, 0, 75, 0
1, 22864, Note_on_c, 0, 74, 83
1, 22879, Note_on_c, 0, 74, 0
1, 22880, Note_on_c, 0, 75, 83
1, 22895, Note_on_c, 0, 75, 0
1, 22896, Note_on_c, 0, 77, 83
1, 22911, Note_on_c, 0, 77, 0
1, 22912, Note_on_c, 0, 75, 83
1, 22927, Note_on_c, 0, 75, 0
1, 22928, Note_on_c, 0, 74, 83
1, 22943, Note_on_c, 0, 74, 0
1, 22944, Note_on_c, 0, 80, 83
1, 22959, Note_on_c, 0, 80, 0
1, 22960, Note_on_c, 0, 79, 83
1, 22975, Note_on_c, 0, 79, 0
1, 22976, Note_on_c, 0, 77, 83
1, 22991, Note_on_c, 0, 77, 0
1, 22992, Note_on_c, 0, 84, 83
1, 23007, Note_on_c, 0, 84, 0
1, 23008, Note_on_c, 0, 80, 83
1, 23023, Note_on_c, 0, 80, 0
1, 23024, Note_on_c, 0, 77, 83
1, 23035, Note_on_c, 1, 68, 0
1, 23035, Note_on_c, 1, 65, 0
1, 23035, Note_on_c, 1, 58, 0
1, 23039, Note_on_c, 0, 77, 0
1, 23040, Note_on_c, 0, 75, 83
1, 23088, Note_on_c, 1, 59, 79
1, 23103, Note_on_c, 1, 59, 0
1, 23104, Note_on_c, 1, 65, 79
1, 23119, Note_on_c, 1, 65, 0
1, 23120, Note_on_c, 1, 68, 79
1, 23135, Note_on_c, 1, 68, 0
1, 23136, Note_on_c, 1, 59, 79
1, 23151, Note_on_c, 1, 59, 0
1, 23152, Note_on_c, 1, 65, 79
1, 23167, Note_on_c, 1, 65, 0
1, 23168, Note_on_c, 1, 68, 79
1, 23183, Note_on_c, 1, 68, 0
1, 23184, Note_on_c, 1, 59, 79
1, 23199, Note_on_c, 1, 59, 0
1, 23200, Note_on_c, 1, 65, 79
1, 23215, Note_on_c, 1, 65, 0
1, 23216, Note_on_c, 1, 68, 79
1, 23231, Note_on_c, 1, 68, 0
1, 23232, Note_on_c, 1, 59, 79
1, 23247, Note_on_c, 0, 75, 0
1, 23248, Note_on_c, 0, 74, 83
1, 23263, Note_on_c, 0, 74, 0
1, 23264, Note_on_c, 0, 75, 83
1, 23279, Note_on_c, 0, 75, 0
1, 23280, Note_on_c, 0, 77, 83
1, 23295, Note_on_c, 0, 77, 0
1, 23296, Note_on_c, 0, 75, 83
1, 23311, Note_on_c, 0, 75, 0
1, 23312, Note_on_c, 0, 74, 83
1, 23327, Note_on_c, 0, 74, 0
1, 23328, Note_on_c, 0, 80, 83
1, 23343, Note_on_c, 0, 80, 0
1, 23344, Note_on_c, 0, 78, 83
1, 23359, Note_on_c, 0, 78, 0
1, 23360, Note_on_c, 0, 77, 83
1, 23375, Note_on_c, 0, 77, 0
1, 23376, Note_on_c, 0, 83, 83
1, 23391, Note_on_c, 0, 83, 0
1, 23392, Note_on_c, 0, 80, 83
1, 23407, Note_on_c, 0, 80, 0
1, 23408, Note_on_c, 0, 77, 83
1, 23409, Note_on_c, 1, 59, 0
1, 23423, Note_on_c, 0, 77, 0
1, 23424, Note_on_c, 0, 75, 83
1, 23472, Note_on_c, 1, 59, 74
1, 23487, Note_on_c, 1, 59, 0
1, 23488, Note_on_c, 1, 65, 74
1, 23503, Note_on_c, 1, 65, 0
1, 23504, Note_on_c, 1, 68, 74
1, 23519, Note_on_c, 1, 68, 0
1, 23520, Note_on_c, 1, 59, 74
1, 23535, Note_on_c, 1, 59, 0
1, 23536, Note_on_c, 1, 65, 74
1, 23551, Note_on_c, 1, 65, 0
1, 23552, Note_on_c, 1, 68, 74
1, 23567, Note_on_c, 1, 68, 0
1, 23568, Note_on_c, 1, 59, 74
1, 23583, Note_on_c, 1, 59, 0
1, 23584, Note_on_c, 1, 65, 74
1, 23599, Note_on_c, 1, 65, 0
1, 23600, Note_on_c, 1, 68, 74
1, 23616, Note_on_c, 1, 59, 74
1, 23749, Note_on_c, 0, 75, 0
1, 23760, Note_on_c, 0, 74, 68
1, 23784, Note_on_c, 0, 74, 0
1, 23784, Note_on_c, 0, 75, 68
1, 23808, Note_on_c, 0, 75, 0
1, 23808, Note_on_c, 0, 77, 68
1, 23832, Note_on_c, 0, 77, 0
1, 23832, Note_on_c, 0, 75, 68
1, 23856, Note_on_c, 0, 75, 0
1, 23856, Note_on_c, 0, 74, 68
1, 23880, Note_on_c, 0, 74, 0
1, 23880, Note_on_c, 0, 80, 68
1, 23904, Note_on_c, 0, 80, 0
1, 23904, Note_on_c, 0, 78, 68
1, 23928, Note_on_c, 0, 78, 0
1, 23928, Note_on_c, 0, 77, 68
1, 23952, Note_on_c, 0, 77, 0
1, 23952, Note_on_c, 0, 83, 68
1, 24092, Note_on_c, 0, 83, 0
1, 24096, Note_on_c, 0, 82, 68
1, 24116, Note_on_c, 0, 82, 0
1, 24116, Note_on_c, 0, 80, 68
1, 24135, Note_on_c, 0, 80, 0
1, 24135, Note_on_c, 0, 78, 68
1, 24154, Note_on_c, 0, 78, 0
1, 24154, Note_on_c, 0, 77, 68
1, 24173, Note_on_c, 0, 77, 0
1, 24173, Note_on_c, 0, 75, 68
1, 24240, Note_on_c, 1, 58, 64
1, 24286, Note_on_c, 1, 68, 0
1, 24286, Note_on_c, 1, 59, 0
1, 24288, Note_on_c, 1, 68, 74
1, 24332, Note_on_c, 0, 75, 0
1, 24336, Note_on_c, 0, 74, 68
1, 24384, Note_on_c, 0, 84, 64
1, 24431, Note_on_c, 1, 58, 0
1, 24432, Note_on_c, 1, 58, 64
1, 24475, Note_on_c, 1, 68, 0
1, 24480, Note_on_c, 1, 68, 74
1, 24527, Note_on_c, 0, 74, 0
1, 24528, Note_on_c, 0, 74, 68
1, 24571, Note_on_c, 0, 84, 0
1, 24576, Note_on_c, 0, 84, 64
1, 24763, Note_on_c, 0, 74, 0
1, 24763, Note_on_c, 0, 84, 0
1, 24763, Note_on_c, 1, 68, 0
1, 24763, Note_on_c, 1, 58, 0
1, 24768, Note_on_c, 1, 51, 99
1, 24768, Note_on_c, 1, 46, 99
1, 24768, Note_on_c, 1, 43, 99
1, 24816, Note_on_c, 0, 79, 83
1, 24828, Note_on_c, 0, 79, 0
1, 24828, Note_on_c, 0, 75, 83
1, 24843, Note_on_c, 0, 75, 0
1, 24864, Note_on_c, 0, 75, 83
1, 24864, Note_on_c, 1, 51, 0
1, 24864, Note_on_c, 1, 46, 0
1, 24864, Note_on_c, 1, 43, 0
1, 24876, Note_on_c, 0, 75, 0
1, 24876, Note_on_c, 0, 70, 83
1, 24891, Note_on_c, 0, 70, 0
1, 24912, Note_on_c, 0, 70, 83
1, 24924, Note_on_c, 0, 70, 0
1, 24924, Note_on_c, 0, 67, 83
1, 24939, Note_on_c, 0, 67, 0
1, 24960, Note_on_c, 1, 51, 99
1, 24960, Note_on_c, 1, 48, 99
1, 24960, Note_on_c, 1, 44, 99
1, 25008, Note_on_c, 0, 72, 83
1, 25020, Note_on_c, 0, 72, 0
1, 25020, Note_on_c, 0, 68, 83
1, 25035, Note_on_c, 0, 68, 0
1, 25056, Note_on_c, 0, 68, 83
1, 25056, Note_on_c, 1, 51, 0
1, 25056, Note_on_c, 1, 48, 0
1, 25056, Note_on_c, 1, 44, 0
1, 25068, Note_on_c, 0, 68, 0
1, 25068, Note_on_c, 0, 65, 83
1, 25083, Note_on_c, 0, 65, 0
1, 25104, Note_on_c, 0, 65, 83
1, 25116, Note_on_c, 0, 65, 0
1, 25116, Note_on_c, 0, 60, 83
1, 25131, Note_on_c, 0, 60, 0
1, 25152, Note_on_c, 0, 63, 83
1, 25200, Note_on_c, 1, 55, 83
1, 25200, Note_on_c, 1, 46, 83
1, 25247, Note_on_c, 1, 55, 0
1, 25247, Note_on_c, 1, 46, 0
1, 25248, Note_on_c, 1, 55, 83
1, 25248, Note_on_c, 1, 46, 83
1, 25271, Note_on_c, 0, 63, 0
1, 25272, Note_on_c, 0, 62, 83
1, 25295, Note_on_c, 0, 62, 0
1, 25295, Note_on_c, 1, 55, 0
1, 25295, Note_on_c, 1, 46, 0
1, 25296, Note_on_c, 0, 68, 83
1, 25296, Note_on_c, 1, 53, 83
1, 25296, Note_on_c, 1, 46, 83
1, 25311, Note_on_c, 0, 68, 0
1, 25312, Note_on_c, 0, 65, 83
1, 25327, Note_on_c, 0, 65, 0
1, 25328, Note_on_c, 0, 62, 83
1, 25343, Note_on_c, 0, 62, 0
1, 25343, Note_on_c, 1, 53, 0
1, 25343, Note_on_c, 1, 46, 0
1, 25344, Note_on_c, 1, 51, 99
1, 25344, Note_on_c, 1, 46, 99
1, 25344, Note_on_c, 1, 43, 99
1, 25368, Note_on_c, 0, 75, 83
1, 25391, Note_on_c, 0, 75, 0
1, 25392, Note_on_c, 0, 77, 83
1, 25398, Note_on_c, 0, 77, 0
1, 25398, Note_on_c, 0, 75, 83
1, 25404, Note_on_c, 0, 75, 0
1, 25404, Note_on_c, 0, 74, 83
1, 25410, Note_on_c, 0, 74, 0
1, 25410, Note_on_c, 0, 75, 83
1, 25416, Note_on_c, 0, 75, 0
1, 25416, Note_on_c, 0, 75, 83
1, 25426, Note_on_c, 0, 75, 0
1, 25428, Note_on_c, 0, 79, 83
1, 25440, Note_on_c, 0, 79, 0
1, 25440, Note_on_c, 0, 70, 83
1, 25440, Note_on_c, 1, 51, 0
1, 25440, Note_on_c, 1, 46, 0
1, 25440, Note_on_c, 1, 43, 0
1, 25474, Note_on_c, 0, 70, 0
1, 25476, Note_on_c, 0, 70, 83
1, 25488, Note_on_c, 0, 70, 0
1, 25488, Note_on_c, 0, 72, 83
1, 25494, Note_on_c, 0, 72, 0
1, 25494, Note_on_c, 0, 70, 83
1, 25500, Note_on_c, 0, 70, 0
1, 25500, Note_on_c, 0, 68, 83
1, 25506, Note_on_c, 0, 68, 0
1, 25506, Note_on_c, 0, 70, 83
1, 25512, Note_on_c, 0, 70, 0
1, 25512, Note_on_c, 0, 70, 83
1, 25522, Note_on_c, 0, 70, 0
1, 25524, Note_on_c, 0, 75, 83
1, 25536, Note_on_c, 0, 75, 0
1, 25536, Note_on_c, 0, 65, 83
1, 25536, Note_on_c, 1, 51, 99
1, 25536, Note_on_c, 1, 48, 99
1, 25536, Note_on_c, 1, 44, 99
1, 25570, Note_on_c, 0, 65, 0
1, 25572, Note_on_c, 0, 65, 83
1, 25584, Note_on_c, 0, 65, 0
1, 25584, Note_on_c, 0, 67, 83
1, 25590, Note_on_c, 0, 67, 0
1, 25590, Note_on_c, 0, 65, 83
1, 25596, Note_on_c, 0, 65, 0
1, 25596, Note_on_c, 0, 63, 83
1, 25602, Note_on_c, 0, 63, 0
1, 25602, Note_on_c, 0, 65, 83
1, 25608, Note_on_c, 0, 65, 0
1, 25608, Note_on_c, 0, 65, 83
1, 25618, Note_on_c, 0, 65, 0
1, 25620, Note_on_c, 0, 72, 83
1, 25632, Note_on_c, 0, 72, 0
1, 25632, Note_on_c, 0, 60, 83
1, 25632, Note_on_c, 1, 51, 0
1, 25632, Note_on_c, 1, 48, 0
1, 25632, Note_on_c, 1, 44, 0
1, 25666, Note_on_c, 0, 60, 0
1, 25668, Note_on_c, 0, 60, 83
1, 25680, Note_on_c, 0, 60, 0
1, 25680, Note_on_c, 0, 62, 83
1, 25686, Note_on_c, 0, 62, 0
1, 25686, Note_on_c, 0, 60, 83
1, 25692, Note_on_c, 0, 60, 0
1, 25692, Note_on_c, 0, 58, 83
1, 25698, Note_on_c, 0, 58, 0
1, 25698, Note_on_c, 0, 60, 83
1, 25704, Note_on_c, 0, 60, 0
1, 25704, Note_on_c, 0, 60, 83
1, 25714, Note_on_c, 0, 60, 0
1, 25716, Note_on_c, 0, 68, 83
1, 25728, Note_on_c, 0, 68, 0
1, 25728, Note_on_c, 0, 63, 83
1, 25776, Note_on_c, 1, 55, 83
1, 25776, Note_on_c, 1, 46, 83
1, 25823, Note_on_c, 1, 55, 0
1, 25823, Note_on_c, 1, 46, 0
1, 25824, Note_on_c, 1, 55, 83
1, 25824, Note_on_c, 1, 46, 83
1, 25847, Note_on_c, 0, 63, 0
1, 25848, Note_on_c, 0, 62, 83
1, 25871, Note_on_c, 0, 62, 0
1, 25871, Note_on_c, 1, 55, 0
1, 25871, Note_on_c, 1, 46, 0
1, 25872, Note_on_c, 0, 68, 83
1, 25872, Note_on_c, 1, 53, 83
1, 25872, Note_on_c, 1, 46, 83
1, 25887, Note_on_c, 0, 68, 0
1, 25888, Note_on_c, 0, 65, 83
1, 25903, Note_on_c, 0, 65, 0
1, 25904, Note_on_c, 0, 62, 83
1, 25919, Note_on_c, 0, 62, 0
1, 25919, Note_on_c, 1, 53, 0
1, 25919, Note_on_c, 1, 46, 0
1, 25920, Note_on_c, 0, 70, 83
1, 25968, Note_on_c, 1, 55, 83
1, 25968, Note_on_c, 1, 46, 83
1, 26015, Note_on_c, 1, 55, 0
1, 26015, Note_on_c, 1, 46, 0
1, 26016, Note_on_c, 1, 55, 81
1, 26016, Note_on_c, 1, 46, 81
1, 26031, Note_on_c, 0, 70, 0
1, 26032, Note_on_c, 0, 67, 82
1, 26047, Note_on_c, 0, 67, 0
1, 26048, Note_on_c, 0, 63, 82
1, 26063, Note_on_c, 0, 63, 0
1, 26063, Note_on_c, 1, 55, 0
1, 26063, Note_on_c, 1, 46, 0
1, 26064, Note_on_c, 0, 68, 81
1, 26064, Note_on_c, 1, 53, 80
1, 26064, Note_on_c, 1, 46, 80
1, 26079, Note_on_c, 0, 68, 0
1, 26080, Note_on_c, 0, 65, 81
1, 26095, Note_on_c, 0, 65, 0
1, 26096, Note_on_c, 0, 62, 80
1, 26111, Note_on_c, 0, 62, 0
1, 26111, Note_on_c, 1, 53, 0
1, 26111, Note_on_c, 1, 46, 0
1, 26112, Note_on_c, 0, 70, 68
1, 26160, Note_on_c, 1, 55, 68
1, 26160, Note_on_c, 1, 46, 68
1, 26207, Note_on_c, 1, 55, 0
1, 26207, Note_on_c, 1, 46, 0
1, 26208, Note_on_c, 1, 55, 68
1, 26208, Note_on_c, 1, 46, 68
1, 26223, Note_on_c, 0, 70, 0
1, 26224, Note_on_c, 0, 67, 68
1, 26239, Note_on_c, 0, 67, 0
1, 26240, Note_on_c, 0, 63, 69
1, 26255, Note_on_c, 0, 63, 0
1, 26255, Note_on_c, 1, 55, 0
1, 26255, Note_on_c, 1, 46, 0
1, 26256, Note_on_c, 0, 68, 70
1, 26256, Note_on_c, 1, 53, 71
1, 26256, Note_on_c, 1, 46, 71
1, 26271, Note_on_c, 0, 68, 0
1, 26272, Note_on_c, 0, 65, 71
1, 26287, Note_on_c, 0, 65, 0
1, 26288, Note_on_c, 0, 62, 71
1, 26303, Note_on_c, 0, 62, 0
1, 26303, Note_on_c, 1, 53, 0
1, 26303, Note_on_c, 1, 46, 0
1, 26304, Note_on_c, 0, 70, 83
1, 26352, Note_on_c, 1, 55, 83
1, 26352, Note_on_c, 1, 46, 83
1, 26399, Note_on_c, 1, 55, 0
1, 26399, Note_on_c, 1, 46, 0
1, 26400, Note_on_c, 1, 55, 83
1, 26400, Note_on_c, 1, 46, 83
1, 26415, Note_on_c, 0, 70, 0
1, 26416, Note_on_c, 0, 67, 83
1, 26431, Note_on_c, 0, 67, 0
1, 26432, Note_on_c, 0, 63, 83
1, 26447, Note_on_c, 0, 63, 0
1, 26447, Note_on_c, 1, 55, 0
1, 26447, Note_on_c, 1, 46, 0
1, 26448, Note_on_c, 0, 72, 83
1, 26448, Note_on_c, 1, 53, 83
1, 26448, Note_on_c, 1, 46, 83
1, 26463, Note_on_c, 0, 72, 0
1, 26464, Note_on_c, 0, 68, 83
1, 26479, Note_on_c, 0, 68, 0
1, 26480, Note_on_c, 0, 65, 83
1, 26495, Note_on_c, 0, 65, 0
1, 26495, Note_on_c, 1, 53, 0
1, 26495, Note_on_c, 1, 46, 0
1, 26496, Note_on_c, 0, 74, 83
1, 26496, Note_on_c, 1, 53, 83
1, 26496, Note_on_c, 1, 46, 83
1, 26511, Note_on_c, 0, 74, 0
1, 26512, Note_on_c, 0, 68, 83
1, 26527, Note_on_c, 0, 68, 0
1, 26528, Note_on_c, 0, 65, 83
1, 26543, Note_on_c, 0, 65, 0
1, 26543, Note_on_c, 1, 53, 0
1, 26543, Note_on_c, 1, 46, 0
1, 26544, Note_on_c, 0, 75, 83
1, 26544, Note_on_c, 1, 55, 84
1, 26544, Note_on_c, 1, 46, 84
1, 26559, Note_on_c, 0, 75, 0
1, 26560, Note_on_c, 0, 70, 84
1, 26575, Note_on_c, 0, 70, 0
1, 26576, Note_on_c, 0, 67, 84
1, 26591, Note_on_c, 0, 67, 0
1, 26591, Note_on_c, 1, 55, 0
1, 26591, Note_on_c, 1, 46, 0
1, 26592, Note_on_c, 0, 77, 84
1, 26592, Note_on_c, 1, 50, 85
1, 26592, Note_on_c, 1, 46, 85
1, 26607, Note_on_c, 0, 77, 0
1, 26608, Note_on_c, 0, 74, 85
1, 26623, Note_on_c, 0, 74, 0
1, 26624, Note_on_c, 0, 70, 85
1, 26639, Note_on_c, 0, 70, 0
1, 26639, Note_on_c, 1, 50, 0
1, 26639, Note_on_c, 1, 46, 0
1, 26640, Note_on_c, 0, 79, 85
1, 26640, Note_on_c, 1, 51, 86
1, 26640, Note_on_c, 1, 46, 86
1, 26655, Note_on_c, 0, 79, 0
1, 26656, Note_on_c, 0, 75, 86
1, 26671, Note_on_c, 0, 75, 0
1, 26672, Note_on_c, 0, 70, 86
1, 26687, Note_on_c, 0, 70, 0
1, 26687, Note_on_c, 1, 51, 0
1, 26687, Note_on_c, 1, 46, 0
1, 26688, Note_on_c, 0, 80, 88
1, 26688, Note_on_c, 1, 53, 88
1, 26688, Note_on_c, 1, 46, 88
1, 26727, Note_on_c, 0, 80, 0
1, 26777, Note_on_c, 1, 53, 0
1, 26777, Note_on_c, 1, 46, 0
1, 26880, Note_on_c, 1, 63, 68
1, 26895, Note_on_c, 1, 63, 0
1, 26896, Note_on_c, 1, 67, 68
1, 26911, Note_on_c, 1, 67, 0
1, 26912, Note_on_c, 1, 70, 68
1, 26927, Note_on_c, 1, 70, 0
1, 26928, Note_on_c, 1, 63, 68
1, 26943, Note_on_c, 1, 63, 0
1, 26944, Note_on_c, 1, 67, 68
1, 26959, Note_on_c, 1, 67, 0
1, 26960, Note_on_c, 1, 70, 68
1, 26975, Note_on_c, 1, 70, 0
1, 26976, Note_on_c, 1, 63, 68
1, 26991, Note_on_c, 1, 63, 0
1, 26992, Note_on_c, 1, 67, 68
1, 27007, Note_on_c, 1, 67, 0
1, 27008, Note_on_c, 1, 70, 68
1, 27023, Note_on_c, 1, 70, 0
1, 27024, Note_on_c, 0, 80, 68
1, 27024, Note_on_c, 1, 63, 68
1, 27036, Note_on_c, 0, 80, 0
1, 27036, Note_on_c, 0, 79, 68
1, 27039, Note_on_c, 1, 63, 0
1, 27040, Note_on_c, 1, 67, 68
1, 27048, Note_on_c, 0, 79, 0
1, 27048, Note_on_c, 0, 77, 68
1, 27055, Note_on_c, 1, 67, 0
1, 27056, Note_on_c, 1, 70, 68
1, 27060, Note_on_c, 0, 77, 0
1, 27060, Note_on_c, 0, 75, 68
1, 27071, Note_on_c, 1, 70, 0
1, 27072, Note_on_c, 0, 75, 0
1, 27072, Note_on_c, 0, 74, 69
1, 27072, Note_on_c, 1, 65, 68
1, 27087, Note_on_c, 1, 65, 0
1, 27088, Note_on_c, 1, 68, 69
1, 27092, Note_on_c, 0, 74, 0
1, 27103, Note_on_c, 1, 68, 0
1, 27104, Note_on_c, 1, 70, 69
1, 27119, Note_on_c, 1, 70, 0
1, 27120, Note_on_c, 1, 65, 69
1, 27135, Note_on_c, 1, 65, 0
1, 27136, Note_on_c, 1, 68, 69
1, 27151, Note_on_c, 1, 68, 0
1, 27152, Note_on_c, 1, 70, 70
1, 27167, Note_on_c, 1, 70, 0
1, 27168, Note_on_c, 1, 62, 70
1, 27183, Note_on_c, 1, 62, 0
1, 27184, Note_on_c, 1, 65, 70
1, 27199, Note_on_c, 1, 65, 0
1, 27200, Note_on_c, 1, 70, 70
1, 27215, Note_on_c, 1, 70, 0
1, 27216, Note_on_c, 0, 86, 72
1, 27216, Note_on_c, 1, 62, 71
1, 27228, Note_on_c, 0, 86, 0
1, 27228, Note_on_c, 0, 84, 72
1, 27231, Note_on_c, 1, 62, 0
1, 27232, Note_on_c, 1, 65, 71
1, 27240, Note_on_c, 0, 84, 0
1, 27240, Note_on_c, 0, 82, 72
1, 27247, Note_on_c, 1, 65, 0
1, 27248, Note_on_c, 1, 70, 71
1, 27252, Note_on_c, 0, 82, 0
1, 27252, Note_on_c, 0, 80, 73
1, 27263, Note_on_c, 1, 70, 0
1, 27264, Note_on_c, 0, 80, 0
1, 27264, Note_on_c, 0, 79, 73
1, 27264, Note_on_c, 1, 63, 72
1, 27279, Note_on_c, 1, 63, 0
1, 27280, Note_on_c, 1, 67, 72
1, 27284, Note_on_c, 0, 79, 0
1, 27295, Note_on_c, 1, 67, 0
1, 27296, Note_on_c, 1, 70, 72
1, 27311, Note_on_c, 1, 70, 0
1, 27312, Note_on_c, 1, 63, 72
1, 27327, Note_on_c, 1, 63, 0
1, 27328, Note_on_c, 1, 67, 73
1, 27343, Note_on_c, 1, 67, 0
1, 27344, Note_on_c, 1, 70, 73
1, 27359, Note_on_c, 1, 70, 0
1, 27360, Note_on_c, 1, 63, 73
1, 27375, Note_on_c, 1, 63, 0
1, 27376, Note_on_c, 1, 67, 73
1, 27391, Note_on_c, 1, 67, 0
1, 27392, Note_on_c, 1, 70, 74
1, 27407, Note_on_c, 1, 70, 0
1, 27408, Note_on_c, 0, 80, 76
1, 27408, Note_on_c, 1, 63, 74
1, 27420, Note_on_c, 0, 80, 0
1, 27420, Note_on_c, 0, 79, 76
1, 27423, Note_on_c, 1, 63, 0
1, 27424, Note_on_c, 1, 67, 74
1, 27432, Note_on_c, 0, 79, 0
1, 27432, Note_on_c, 0, 77, 77
1, 27439, Note_on_c, 1, 67, 0
1, 27440, Note_on_c, 1, 70, 74
1, 27444, Note_on_c, 0, 77, 0
1, 27444, Note_on_c, 0, 75, 77
1, 27455, Note_on_c, 1, 70, 0
1, 27456, Note_on_c, 0, 75, 0
1, 27456, Note_on_c, 0, 74, 77
1, 27456, Note_on_c, 1, 65, 75
1, 27471, Note_on_c, 1, 65, 0
1, 27472, Note_on_c, 1, 68, 75
1, 27476, Note_on_c, 0, 74, 0
1, 27487, Note_on_c, 1, 68, 0
1, 27488, Note_on_c, 1, 70, 75
1, 27503, Note_on_c, 1, 70, 0
1, 27504, Note_on_c, 1, 65, 76
1, 27519, Note_on_c, 1, 65, 0
1, 27520, Note_on_c, 1, 68, 76
1, 27535, Note_on_c, 1, 68, 0
1, 27536, Note_on_c, 1, 70, 76
1, 27551, Note_on_c, 1, 70, 0
1, 27552, Note_on_c, 1, 62, 76
1, 27567, Note_on_c, 1, 62, 0
1, 27568, Note_on_c, 1, 65, 77
1, 27583, Note_on_c, 1, 65, 0
1, 27584, Note_on_c, 1, 70, 77
1, 27599, Note_on_c, 1, 70, 0
1, 27600, Note_on_c, 0, 86, 80
1, 27600, Note_on_c, 1, 62, 77
1, 27612, Note_on_c, 0, 86, 0
1, 27612, Note_on_c, 0, 84, 81
1, 27615, Note_on_c, 1, 62, 0
1, 27616, Note_on_c, 1, 65, 77
1, 27624, Note_on_c, 0, 84, 0
1, 27624, Note_on_c, 0, 82, 81
1, 27631, Note_on_c, 1, 65, 0
1, 27632, Note_on_c, 1, 70, 78
1, 27636, Note_on_c, 0, 82, 0
1, 27636, Note_on_c, 0, 80, 81
1, 27647, Note_on_c, 1, 70, 0
1, 27648, Note_on_c, 0, 80, 0
1, 27648, Note_on_c, 0, 79, 81
1, 27648, Note_on_c, 1, 63, 78
1, 27663, Note_on_c, 1, 63, 0
1, 27664, Note_on_c, 1, 67, 78
1, 27668, Note_on_c, 0, 79, 0
1, 27679, Note_on_c, 1, 67, 0
1, 27680, Note_on_c, 1, 70, 78
1, 27695, Note_on_c, 1, 70, 0
1, 27696, Note_on_c, 0, 80, 83
1, 27696, Note_on_c, 1, 63, 83
1, 27708, Note_on_c, 0, 80, 0
1, 27708, Note_on_c, 0, 79, 83
1, 27711, Note_on_c, 1, 63, 0
1, 27712, Note_on_c, 1, 67, 83
1, 27720, Note_on_c, 0, 79, 0
1, 27720, Note_on_c, 0, 77, 83
1, 27727, Note_on_c, 1, 67, 0
1, 27728, Note_on_c, 1, 70, 83
1, 27732, Note_on_c, 0, 77, 0
1, 27732, Note_on_c, 0, 75, 83
1, 27743, Note_on_c, 1, 70, 0
1, 27744, Note_on_c, 0, 75, 0
1, 27744, Note_on_c, 0, 74, 83
1, 27744, Note_on_c, 1, 65, 83
1, 27759, Note_on_c, 1, 65, 0
1, 27760, Note_on_c, 1, 68, 83
1, 27764, Note_on_c, 0, 74, 0
1, 27775, Note_on_c, 1, 68, 0
1, 27776, Note_on_c, 1, 70, 83
1, 27791, Note_on_c, 1, 70, 0
1, 27792, Note_on_c, 0, 86, 83
1, 27792, Note_on_c, 1, 62, 83
1, 27804, Note_on_c, 0, 86, 0
1, 27804, Note_on_c, 0, 84, 83
1, 27807, Note_on_c, 1, 62, 0
1, 27808, Note_on_c, 1, 65, 83
1, 27816, Note_on_c, 0, 84, 0
1, 27816, Note_on_c, 0, 82, 83
1, 27823, Note_on_c, 1, 65, 0
1, 27824, Note_on_c, 1, 70, 83
1, 27828, Note_on_c, 0, 82, 0
1, 27828, Note_on_c, 0, 80, 83
1, 27839, Note_on_c, 1, 70, 0
1, 27840, Note_on_c, 0, 80, 0
1, 27840, Note_on_c, 0, 79, 83
1, 27840, Note_on_c, 1, 63, 83
1, 27855, Note_on_c, 1, 63, 0
1, 27856, Note_on_c, 1, 67, 83
1, 27860, Note_on_c, 0, 79, 0
1, 27871, Note_on_c, 1, 67, 0
1, 27872, Note_on_c, 1, 70, 83
1, 27887, Note_on_c, 1, 70, 0
1, 27888, Note_on_c, 0, 80, 83
1, 27888, Note_on_c, 1, 63, 83
1, 27900, Note_on_c, 0, 80, 0
1, 27900, Note_on_c, 0, 79, 83
1, 27903, Note_on_c, 1, 63, 0
1, 27904, Note_on_c, 1, 67, 83
1, 27912, Note_on_c, 0, 79, 0
1, 27912, Note_on_c, 0, 77, 83
1, 27919, Note_on_c, 1, 67, 0
1, 27920, Note_on_c, 1, 70, 83
1, 27924, Note_on_c, 0, 77, 0
1, 27924, Note_on_c, 0, 75, 83
1, 27935, Note_on_c, 1, 70, 0
1, 27936, Note_on_c, 0, 75, 0
1, 27936, Note_on_c, 0, 74, 83
1, 27936, Note_on_c, 1, 65, 83
1, 27951, Note_on_c, 1, 65, 0
1, 27952, Note_on_c, 1, 68, 83
1, 27956, Note_on_c, 0, 74, 0
1, 27967, Note_on_c, 1, 68, 0
1, 27968, Note_on_c, 1, 70, 83
1, 27983, Note_on_c, 1, 70, 0
1, 27984, Note_on_c, 0, 86, 83
1, 27984, Note_on_c, 1, 62, 83
1, 27996, Note_on_c, 0, 86, 0
1, 27996, Note_on_c, 0, 84, 83
1, 27999, Note_on_c, 1, 62, 0
1, 28000, Note_on_c, 1, 65, 83
1, 28008, Note_on_c, 0, 84, 0
1, 28008, Note_on_c, 0, 82, 83
1, 28015, Note_on_c, 1, 65, 0
1, 28016, Note_on_c, 1, 70, 83
1, 28020, Note_on_c, 0, 82, 0
1, 28020, Note_on_c, 0, 80, 83
1, 28031, Note_on_c, 1, 70, 0
1, 28032, Note_on_c, 0, 80, 0
1, 28032, Note_on_c, 0, 79, 83
1, 28032, Note_on_c, 1, 63, 83
1, 28052, Note_on_c, 0, 79, 0
1, 28080, Note_on_c, 0, 87, 83
1, 28095, Note_on_c, 0, 87, 0
1, 28096, Note_on_c, 0, 86, 83
1, 28111, Note_on_c, 0, 86, 0
1, 28112, Note_on_c, 0, 84, 83
1, 28121, Note_on_c, 1, 63, 0
1, 28127, Note_on_c, 0, 84, 0
1, 28128, Note_on_c, 0, 82, 83
1, 28143, Note_on_c, 0, 82, 0
1, 28144, Note_on_c, 0, 80, 83
1, 28159, Note_on_c, 0, 80, 0
1, 28160, Note_on_c, 0, 79, 83
1, 28175, Note_on_c, 0, 79, 0
1, 28176, Note_on_c, 0, 77, 83
1, 28191, Note_on_c, 0, 77, 0
1, 28192, Note_on_c, 0, 75, 83
1, 28207, Note_on_c, 0, 75, 0
1, 28208, Note_on_c, 0, 74, 83
1, 28223, Note_on_c, 0, 74, 0
1, 28224, Note_on_c, 0, 72, 83
1, 28224, Note_on_c, 1, 56, 83
1, 28244, Note_on_c, 0, 72, 0
1, 28296, Note_on_c, 0, 76, 83
1, 28313, Note_on_c, 1, 56, 0
1, 28319, Note_on_c, 0, 76, 0
1, 28320, Note_on_c, 0, 77, 83
1, 28343, Note_on_c, 0, 77, 0
1, 28344, Note_on_c, 0, 78, 83
1, 28367, Note_on_c, 0, 78, 0
1, 28368, Note_on_c, 0, 79, 84
1, 28391, Note_on_c, 0, 79, 0
1, 28392, Note_on_c, 0, 80, 84
1, 28415, Note_on_c, 0, 80, 0
1, 28416, Note_on_c, 0, 81, 85
1, 28439, Note_on_c, 0, 81, 0
1, 28440, Note_on_c, 0, 82, 86
1, 28463, Note_on_c, 0, 82, 0
1, 28464, Note_on_c, 0, 83, 86
1, 28487, Note_on_c, 0, 83, 0
1, 28488, Note_on_c, 0, 84, 87
1, 28511, Note_on_c, 0, 84, 0
1, 28512, Note_on_c, 0, 82, 88
1, 28535, Note_on_c, 0, 82, 0
1, 28536, Note_on_c, 0, 80, 87
1, 28559, Note_on_c, 0, 80, 0
1, 28560, Note_on_c, 0, 79, 86
1, 28583, Note_on_c, 0, 79, 0
1, 28584, Note_on_c, 0, 77, 86
1, 28607, Note_on_c, 0, 77, 0
1, 28608, Note_on_c, 0, 75, 85
1, 28656, Note_on_c, 1, 67, 74
1, 28656, Note_on_c, 1, 58, 74
1, 28701, Note_on_c, 1, 67, 0
1, 28701, Note_on_c, 1, 58, 0
1, 28704, Note_on_c, 1, 67, 72
1, 28704, Note_on_c, 1, 58, 72
1, 28727, Note_on_c, 0, 75, 0
1, 28728, Note_on_c, 0, 74, 83
1, 28749, Note_on_c, 1, 67, 0
1, 28749, Note_on_c, 1, 58, 0
1, 28751, Note_on_c, 0, 74, 0
1, 28752, Note_on_c, 0, 80, 83
1, 28752, Note_on_c, 1, 65, 70
1, 28752, Note_on_c, 1, 58, 70
1, 28767, Note_on_c, 0, 80, 0
1, 28768, Note_on_c, 0, 77, 83
1, 28783, Note_on_c, 0, 77, 0
1, 28784, Note_on_c, 0, 74, 83
1, 28797, Note_on_c, 1, 65, 0
1, 28797, Note_on_c, 1, 58, 0
1, 28799, Note_on_c, 0, 74, 0
1, 28800, Note_on_c, 0, 75, 83
1, 28800, Note_on_c, 1, 63, 68
1, 28847, Note_on_c, 0, 75, 0
1, 28847, Note_on_c, 1, 63, 0
1, 28896, Note_on_c, 0, 70, 74
1, 28896, Note_on_c, 0, 67, 74
1, 28963, Note_on_c, 0, 70, 0
1, 28963, Note_on_c, 0, 67, 0
1, 28968, Note_on_c, 0, 74, 74
1, 28974, Note_on_c, 0, 74, 0
1, 28974, Note_on_c, 0, 72, 74
1, 28974, Note_on_c, 0, 68, 74
1, 28991, Note_on_c, 0, 72, 0
1, 28991, Note_on_c, 0, 68, 0
1, 28992, Note_on_c, 0, 70, 74
1, 28992, Note_on_c, 0, 67, 74
1, 28992, Note_on_c, 1, 39, 68
1, 29081, Note_on_c, 0, 70, 0
1, 29081, Note_on_c, 0, 67, 0
1, 29081, Note_on_c, 1, 39, 0
1, 29184, Note_on_c, 0, 82, 79
1, 29184, Note_on_c, 0, 79, 79
1, 29232, Note_on_c, 1, 51, 79
1, 29280, Note_on_c, 1, 51, 0
1, 29280, Note_on_c, 1, 63, 79
1, 29300, Note_on_c, 1, 63, 0
1, 29328, Note_on_c, 0, 82, 0
1, 29328, Note_on_c, 0, 79, 0
1, 29328, Note_on_c, 0, 80, 79
1, 29328, Note_on_c, 0, 77, 79
1, 29373, Note_on_c, 0, 80, 0
1, 29373, Note_on_c, 0, 77, 0
1, 29376, Note_on_c, 0, 84, 79
1, 29376, Note_on_c, 0, 80, 79
1, 29424, Note_on_c, 1, 51, 79
1, 29472, Note_on_c, 1, 51, 0
1, 29472, Note_on_c, 1, 63, 79
1, 29492, Note_on_c, 1, 63, 0
1, 29520, Note_on_c, 0, 84, 0
1, 29520, Note_on_c, 0, 80, 0
1, 29520, Note_on_c, 0, 82, 79
1, 29520, Note_on_c, 0, 79, 79
1, 29565, Note_on_c, 0, 82, 0
1, 29565, Note_on_c, 0, 79, 0
1, 29568, Note_on_c, 0, 85, 99
1, 29568, Note_on_c, 0, 82, 99
1, 29616, Note_on_c, 1, 36, 83
1, 29661, Note_on_c, 1, 36, 0
1, 29664, Note_on_c, 1, 48, 83
1, 29712, Note_on_c, 0, 85, 0
1, 29712, Note_on_c, 0, 82, 0
1, 29712, Note_on_c, 0, 84, 83
1, 29712, Note_on_c, 0, 80, 83
1, 29757, Note_on_c, 0, 84, 0
1, 29757, Note_on_c, 0, 80, 0
1, 29760, Note_on_c, 0, 82, 83
1, 29760, Note_on_c, 0, 79, 83
1, 29805, Note_on_c, 0, 82, 0
1, 29805, Note_on_c, 0, 79, 0
1, 29808, Note_on_c, 0, 80, 83
1, 29808, Note_on_c, 0, 77, 83
1, 29853, Note_on_c, 0, 80, 0
1, 29853, Note_on_c, 0, 77, 0
1, 29856, Note_on_c, 0, 79, 83
1, 29856, Note_on_c, 0, 76, 83
1, 29901, Note_on_c, 0, 79, 0
1, 29901, Note_on_c, 0, 76, 0
1, 29904, Note_on_c, 0, 82, 83
1, 29904, Note_on_c, 0, 79, 83
1, 29929, Note_on_c, 1, 48, 0
1, 29949, Note_on_c, 0, 82, 0
1, 29949, Note_on_c, 0, 79, 0
1, 29952, Note_on_c, 0, 80, 83
1, 29952, Note_on_c, 0, 77, 64
1, 29952, Note_on_c, 1, 68, 74
1, 29952, Note_on_c, 1, 65, 74
1, 29997, Note_on_c, 0, 80, 0
1, 29997, Note_on_c, 0, 77, 0
1, 30000, Note_on_c, 0, 72, 64
1, 30048, Note_on_c, 0, 72, 0
1, 30048, Note_on_c, 0, 84, 64
1, 30068, Note_on_c, 0, 84, 0
1, 30096, Note_on_c, 1, 68, 0
1, 30096, Note_on_c, 1, 65, 0
1, 30096, Note_on_c, 1, 67, 74
1, 30096, Note_on_c, 1, 64, 74
1, 30141, Note_on_c, 1, 67, 0
1, 30141, Note_on_c, 1, 64, 0
1, 30144, Note_on_c, 1, 70, 74
1, 30144, Note_on_c, 1, 67, 74
1, 30192, Note_on_c, 0, 72, 64
1, 30240, Note_on_c, 0, 72, 0
1, 30240, Note_on_c, 0, 84, 64
1, 30260, Note_on_c, 0, 84, 0
1, 30288, Note_on_c, 1, 70, 0
1, 30288, Note_on_c, 1, 67, 0
1, 30288, Note_on_c, 1, 68, 74
1, 30288, Note_on_c, 1, 65, 74
1, 30333, Note_on_c, 1, 68, 0
1, 30333, Note_on_c, 1, 65, 0
1, 30336, Note_on_c, 1, 72, 74
1, 30336, Note_on_c, 1, 68, 74
1, 30384, Note_on_c, 0, 77, 83
1, 30432, Note_on_c, 0, 77, 0
1, 30432, Note_on_c, 0, 89, 83
1, 30452, Note_on_c, 0, 89, 0
1, 30469, Note_on_c, 1, 72, 0
1, 30469, Note_on_c, 1, 68, 0
1, 30480, Note_on_c, 0, 75, 83
1, 30480, Note_on_c, 1, 70, 74
1, 30480, Note_on_c, 1, 67, 74
1, 30503, Note_on_c, 0, 75, 0
1, 30504, Note_on_c, 0, 87, 83
1, 30525, Note_on_c, 1, 70, 0
1, 30525, Note_on_c, 1, 67, 0
1, 30527, Note_on_c, 0, 87, 0
1, 30528, Note_on_c, 0, 73, 83
1, 30528, Note_on_c, 1, 68, 74
1, 30528, Note_on_c, 1, 65, 74
1, 30551, Note_on_c, 0, 73, 0
1, 30552, Note_on_c, 0, 85, 83
1, 30573, Note_on_c, 1, 68, 0
1, 30573, Note_on_c, 1, 65, 0
1, 30575, Note_on_c, 0, 85, 0
1, 30576, Note_on_c, 0, 72, 83
1, 30576, Note_on_c, 1, 67, 74
1, 30576, Note_on_c, 1, 63, 74
1, 30599, Note_on_c, 0, 72, 0
1, 30600, Note_on_c, 0, 84, 83
1, 30621, Note_on_c, 1, 67, 0
1, 30621, Note_on_c, 1, 63, 0
1, 30623, Note_on_c, 0, 84, 0
1, 30624, Note_on_c, 0, 70, 83
1, 30624, Note_on_c, 1, 65, 74
1, 30624, Note_on_c, 1, 61, 74
1, 30647, Note_on_c, 0, 70, 0
1, 30648, Note_on_c, 0, 82, 83
1, 30669, Note_on_c, 1, 65, 0
1, 30669, Note_on_c, 1, 61, 0
1, 30671, Note_on_c, 0, 82, 0
1, 30672, Note_on_c, 0, 68, 83
1, 30672, Note_on_c, 1, 63, 74
1, 30672, Note_on_c, 1, 60, 74
1, 30695, Note_on_c, 0, 68, 0
1, 30696, Note_on_c, 0, 80, 83
1, 30717, Note_on_c, 1, 63, 0
1, 30717, Note_on_c, 1, 60, 0
1, 30719, Note_on_c, 0, 80, 0
1, 30720, Note_on_c, 0, 67, 83
1, 30720, Note_on_c, 1, 61, 74
1, 30720, Note_on_c, 1, 58, 74
1, 30743, Note_on_c, 0, 67, 0
1, 30744, Note_on_c, 0, 79, 83
1, 30765, Note_on_c, 1, 61, 0
1, 30765, Note_on_c, 1, 58, 0
1, 30767, Note_on_c, 0, 79, 0
1, 30768, Note_on_c, 0, 65, 83
1, 30768, Note_on_c, 1, 60, 74
1, 30768, Note_on_c, 1, 56, 74
1, 30791, Note_on_c, 0, 65, 0
1, 30792, Note_on_c, 0, 77, 83
1, 30813, Note_on_c, 1, 60, 0
1, 30813, Note_on_c, 1, 56, 0
1, 30815, Note_on_c, 0, 77, 0
1, 30816, Note_on_c, 0, 63, 83
1, 30816, Note_on_c, 1, 58, 74
1, 30816, Note_on_c, 1, 55, 74
1, 30839, Note_on_c, 0, 63, 0
1, 30840, Note_on_c, 0, 75, 83
1, 30861, Note_on_c, 1, 58, 0
1, 30861, Note_on_c, 1, 55, 0
1, 30863, Note_on_c, 0, 75, 0
1, 30864, Note_on_c, 0, 62, 83
1, 30864, Note_on_c, 1, 56, 74
1, 30864, Note_on_c, 1, 53, 74
1, 30887, Note_on_c, 0, 62, 0
1, 30888, Note_on_c, 0, 74, 83
1, 30909, Note_on_c, 1, 56, 0
1, 30909, Note_on_c, 1, 53, 0
1, 30911, Note_on_c, 0, 74, 0
1, 30912, Note_on_c, 0, 63, 83
1, 30912, Note_on_c, 1, 58, 83
1, 30912, Note_on_c, 1, 55, 83
1, 30935, Note_on_c, 0, 63, 0
1, 30936, Note_on_c, 0, 75, 83
1, 30959, Note_on_c, 0, 75, 0
1, 30960, Note_on_c, 0, 73, 83
1, 30983, Note_on_c, 0, 73, 0
1, 30984, Note_on_c, 0, 77, 83
1, 31007, Note_on_c, 0, 77, 0
1, 31008, Note_on_c, 0, 75, 83
1, 31031, Note_on_c, 0, 75, 0
1, 31032, Note_on_c, 0, 72, 83
1, 31055, Note_on_c, 0, 72, 0
1, 31056, Note_on_c, 0, 73, 83
1, 31079, Note_on_c, 0, 73, 0
1, 31080, Note_on_c, 0, 70, 83
1, 31089, Note_on_c, 1, 58, 0
1, 31089, Note_on_c, 1, 55, 0
1, 31103, Note_on_c, 0, 70, 0
1, 31104, Note_on_c, 0, 72, 79
1, 31104, Note_on_c, 0, 68, 79
1, 31152, Note_on_c, 1, 44, 79
1, 31200, Note_on_c, 1, 44, 0
1, 31200, Note_on_c, 1, 56, 79
1, 31220, Note_on_c, 1, 56, 0
1, 31248, Note_on_c, 0, 72, 0
1, 31248, Note_on_c, 0, 68, 0
1, 31248, Note_on_c, 0, 70, 79
1, 31248, Note_on_c, 0, 67, 79
1, 31293, Note_on_c, 0, 70, 0
1, 31293, Note_on_c, 0, 67, 0
1, 31296, Note_on_c, 0, 73, 79
1, 31296, Note_on_c, 0, 70, 79
1, 31344, Note_on_c, 1, 44, 79
1, 31392, Note_on_c, 1, 44, 0
1, 31392, Note_on_c, 1, 56, 79
1, 31412, Note_on_c, 1, 56, 0
1, 31440, Note_on_c, 0, 73, 0
1, 31440, Note_on_c, 0, 70, 0
1, 31440, Note_on_c, 0, 72, 79
1, 31440, Note_on_c, 0, 68, 79
1, 31485, Note_on_c, 0, 72, 0
1, 31485, Note_on_c, 0, 68, 0
1, 31488, Note_on_c, 0, 75, 79
1, 31488, Note_on_c, 0, 72, 79
1, 31536, Note_on_c, 1, 42, 79
1, 31584, Note_on_c, 1, 42, 0
1, 31584, Note_on_c, 1, 54, 79
1, 31604, Note_on_c, 1, 54, 0
1, 31632, Note_on_c, 0, 75, 0
1, 31632, Note_on_c, 0, 72, 0
1, 31632, Note_on_c, 0, 73, 80
1, 31632, Note_on_c, 0, 70, 80
1, 31677, Note_on_c, 0, 73, 0
1, 31677, Note_on_c, 0, 70, 0
1, 31680, Note_on_c, 0, 77, 81
1, 31680, Note_on_c, 0, 73, 81
1, 31728, Note_on_c, 1, 42, 81
1, 31776, Note_on_c, 1, 42, 0
1, 31776, Note_on_c, 1, 54, 82
1, 31796, Note_on_c, 1, 54, 0
1, 31824, Note_on_c, 0, 77, 0
1, 31824, Note_on_c, 0, 73, 0
1, 31824, Note_on_c, 0, 75, 82
1, 31824, Note_on_c, 0, 72, 82
1, 31869, Note_on_c, 0, 75, 0
1, 31869, Note_on_c, 0, 72, 0
1, 31872, Note_on_c, 0, 78, 83
1, 31872, Note_on_c, 0, 75, 83
1, 31920, Note_on_c, 1, 41, 88
1, 31965, Note_on_c, 1, 41, 0
1, 31968, Note_on_c, 1, 53, 88
1, 32005, Note_on_c, 0, 78, 0
1, 32005, Note_on_c, 0, 75, 0
1, 32016, Note_on_c, 0, 77, 83
1, 32016, Note_on_c, 0, 73, 83
1, 32061, Note_on_c, 0, 77, 0
1, 32061, Note_on_c, 0, 73, 0
1, 32064, Note_on_c, 0, 75, 83
1, 32064, Note_on_c, 0, 72, 83
1, 32109, Note_on_c, 0, 75, 0
1, 32109, Note_on_c, 0, 72, 0
1, 32112, Note_on_c, 0, 73, 83
1, 32112, Note_on_c, 0, 70, 83
1, 32157, Note_on_c, 0, 73, 0
1, 32157, Note_on_c, 0, 70, 0
1, 32160, Note_on_c, 0, 72, 83
1, 32160, Note_on_c, 0, 69, 83
1, 32205, Note_on_c, 0, 72, 0
1, 32205, Note_on_c, 0, 69, 0
1, 32208, Note_on_c, 0, 70, 83
1, 32208, Note_on_c, 0, 65, 83
1, 32208, Note_on_c, 1, 61, 79
1, 32253, Note_on_c, 0, 70, 0
1, 32253, Note_on_c, 0, 65, 0
1, 32253, Note_on_c, 1, 61, 0
1, 32256, Note_on_c, 0, 69, 83
1, 32256, Note_on_c, 0, 63, 83
1, 32256, Note_on_c, 1, 60, 79
1, 32301, Note_on_c, 0, 69, 0
1, 32301, Note_on_c, 0, 63, 0
1, 32301, Note_on_c, 1, 60, 0
1, 32304, Note_on_c, 0, 66, 83
1, 32304, Note_on_c, 0, 61, 83
1, 32304, Note_on_c, 1, 58, 79
1, 32349, Note_on_c, 0, 66, 0
1, 32349, Note_on_c, 0, 61, 0
1, 32349, Note_on_c, 1, 58, 0
1, 32352, Note_on_c, 0, 65, 83
1, 32352, Note_on_c, 0, 60, 83
1, 32352, Note_on_c, 1, 57, 79
1, 32397, Note_on_c, 0, 65, 0
1, 32397, Note_on_c, 0, 60, 0
1, 32397, Note_on_c, 1, 57, 0
1, 32400, Note_on_c, 0, 64, 83
1, 32400, Note_on_c, 0, 58, 83
1, 32400, Note_on_c, 1, 55, 79
1, 32445, Note_on_c, 0, 64, 0
1, 32445, Note_on_c, 0, 58, 0
1, 32445, Note_on_c, 1, 55, 0
1, 32448, Note_on_c, 0, 63, 83
1, 32448, Note_on_c, 0, 60, 83
1, 32448, Note_on_c, 1, 57, 79
1, 32625, Note_on_c, 0, 63, 0
1, 32625, Note_on_c, 0, 60, 0
1, 32625, Note_on_c, 1, 57, 0
1, 32625, Note_on_c, 1, 53, 0
1, 32640, Note_on_c, 1, 58, 68
1, 32655, Note_on_c, 1, 58, 0
1, 32656, Note_on_c, 1, 61, 68
1, 32671, Note_on_c, 1, 61, 0
1, 32672, Note_on_c, 1, 65, 68
1, 32687, Note_on_c, 1, 65, 0
1, 32688, Note_on_c, 1, 58, 68
1, 32703, Note_on_c, 1, 58, 0
1, 32704, Note_on_c, 1, 61, 68
1, 32719, Note_on_c, 1, 61, 0
1, 32720, Note_on_c, 1, 65, 68
1, 32735, Note_on_c, 1, 65, 0
1, 32736, Note_on_c, 1, 58, 68
1, 32751, Note_on_c, 1, 58, 0
1, 32752, Note_on_c, 1, 61, 68
1, 32767, Note_on_c, 1, 61, 0
1, 32768, Note_on_c, 1, 65, 68
1, 32783, Note_on_c, 1, 65, 0
1, 32784, Note_on_c, 0, 75, 74
1, 32784, Note_on_c, 1, 58, 68
1, 32796, Note_on_c, 0, 75, 0
1, 32796, Note_on_c, 0, 73, 74
1, 32799, Note_on_c, 1, 58, 0
1, 32800, Note_on_c, 1, 61, 68
1, 32808, Note_on_c, 0, 73, 0
1, 32808, Note_on_c, 0, 72, 74
1, 32815, Note_on_c, 1, 61, 0
1, 32816, Note_on_c, 1, 65, 68
1, 32820, Note_on_c, 0, 72, 0
1, 32820, Note_on_c, 0, 70, 74
1, 32831, Note_on_c, 1, 65, 0
1, 32832, Note_on_c, 0, 70, 0
1, 32832, Note_on_c, 0, 69, 74
1, 32832, Note_on_c, 1, 60, 68
1, 32847, Note_on_c, 1, 60, 0
1, 32848, Note_on_c, 1, 63, 68
1, 32852, Note_on_c, 0, 69, 0
1, 32863, Note_on_c, 1, 63, 0
1, 32864, Note_on_c, 1, 65, 68
1, 32879, Note_on_c, 1, 65, 0
1, 32880, Note_on_c, 1, 60, 68
1, 32895, Note_on_c, 1, 60, 0
1, 32896, Note_on_c, 1, 63, 68
1, 32911, Note_on_c, 1, 63, 0
1, 32912, Note_on_c, 1, 65, 68
1, 32927, Note_on_c, 1, 65, 0
1, 32928, Note_on_c, 1, 57, 68
1, 32943, Note_on_c, 1, 57, 0
1, 32944, Note_on_c, 1, 60, 68
1, 32959, Note_on_c, 1, 60, 0
1, 32960, Note_on_c, 1, 65, 68
1, 32975, Note_on_c, 1, 65, 0
1, 32976, Note_on_c, 0, 80, 74
1, 32976, Note_on_c, 1, 57, 68
1, 32988, Note_on_c, 0, 80, 0
1, 32988, Note_on_c, 0, 78, 74
1, 32991, Note_on_c, 1, 57, 0
1, 32992, Note_on_c, 1, 60, 68
1, 33000, Note_on_c, 0, 78, 0
1, 33000, Note_on_c, 0, 77, 74
1, 33007, Note_on_c, 1, 60, 0
1, 33008, Note_on_c, 1, 65, 68
1, 33012, Note_on_c, 0, 77, 0
1, 33012, Note_on_c, 0, 75, 74
1, 33023, Note_on_c, 1, 65, 0
1, 33024, Note_on_c, 0, 75, 0
1, 33024, Note_on_c, 0, 73, 74
1, 33024, Note_on_c, 1, 58, 68
1, 33039, Note_on_c, 1, 58, 0
1, 33040, Note_on_c, 1, 61, 68
1, 33044, Note_on_c, 0, 73, 0
1, 33055, Note_on_c, 1, 61, 0
1, 33056, Note_on_c, 1, 65, 68
1, 33071, Note_on_c, 1, 65, 0
1, 33072, Note_on_c, 1, 58, 68
1, 33087, Note_on_c, 1, 58, 0
1, 33088, Note_on_c, 1, 61, 68
1, 33103, Note_on_c, 1, 61, 0
1, 33104, Note_on_c, 1, 65, 68
1, 33119, Note_on_c, 1, 65, 0
1, 33120, Note_on_c, 1, 58, 68
1, 33135, Note_on_c, 1, 58, 0
1, 33136, Note_on_c, 1, 61, 68
1, 33151, Note_on_c, 1, 61, 0
1, 33152, Note_on_c, 1, 65, 68
1, 33167, Note_on_c, 1, 65, 0
1, 33168, Note_on_c, 0, 75, 74
1, 33168, Note_on_c, 1, 58, 68
1, 33180, Note_on_c, 0, 75, 0
1, 33180, Note_on_c, 0, 73, 74
1, 33183, Note_on_c, 1, 58, 0
1, 33184, Note_on_c, 1, 61, 68
1, 33192, Note_on_c, 0, 73, 0
1, 33192, Note_on_c, 0, 72, 74
1, 33199, Note_on_c, 1, 61, 0
1, 33200, Note_on_c, 1, 65, 68
1, 33204, Note_on_c, 0, 72, 0
1, 33204, Note_on_c, 0, 70, 74
1, 33215, Note_on_c, 1, 65, 0
1, 33216, Note_on_c, 0, 70, 0
1, 33216, Note_on_c, 0, 69, 74
1, 33216, Note_on_c, 1, 60, 68
1, 33231, Note_on_c, 1, 60, 0
1, 33232, Note_on_c, 1, 63, 68
1, 33236, Note_on_c, 0, 69, 0
1, 33247, Note_on_c, 1, 63, 0
1, 33248, Note_on_c, 1, 65, 68
1, 33263, Note_on_c, 1, 65, 0
1, 33264, Note_on_c, 1, 60, 68
1, 33279, Note_on_c, 1, 60, 0
1, 33280, Note_on_c, 1, 63, 68
1, 33295, Note_on_c, 1, 63, 0
1, 33296, Note_on_c, 1, 65, 68
1, 33311, Note_on_c, 1, 65, 0
1, 33312, Note_on_c, 1, 57, 68
1, 33327, Note_on_c, 1, 57, 0
1, 33328, Note_on_c, 1, 60, 68
1, 33343, Note_on_c, 1, 60, 0
1, 33344, Note_on_c, 1, 65, 68
1, 33359, Note_on_c, 1, 65, 0
1, 33360, Note_on_c, 0, 80, 74
1, 33360, Note_on_c, 1, 57, 68
1, 33372, Note_on_c, 0, 80, 0
1, 33372, Note_on_c, 0, 78, 74
1, 33375, Note_on_c, 1, 57, 0
1, 33376, Note_on_c, 1, 60, 68
1, 33384, Note_on_c, 0, 78, 0
1, 33384, Note_on_c, 0, 77, 74
1, 33391, Note_on_c, 1, 60, 0
1, 33392, Note_on_c, 1, 65, 68
1, 33396, Note_on_c, 0, 77, 0
1, 33396, Note_on_c, 0, 75, 74
1, 33407, Note_on_c, 1, 65, 0
1, 33408, Note_on_c, 0, 75, 0
1, 33408, Note_on_c, 0, 73, 74
1, 33408, Note_on_c, 1, 58, 68
1, 33423, Note_on_c, 1, 58, 0
1, 33424, Note_on_c, 1, 61, 68
1, 33428, Note_on_c, 0, 73, 0
1, 33439, Note_on_c, 1, 61, 0
1, 33440, Note_on_c, 1, 65, 68
1, 33455, Note_on_c, 1, 65, 0
1, 33456, Note_on_c, 1, 58, 68
1, 33471, Note_on_c, 1, 58, 0
1, 33472, Note_on_c, 1, 61, 68
1, 33487, Note_on_c, 1, 61, 0
1, 33488, Note_on_c, 1, 65, 68
1, 33503, Note_on_c, 1, 65, 0
1, 33504, Note_on_c, 1, 58, 68
1, 33519, Note_on_c, 1, 58, 0
1, 33520, Note_on_c, 1, 61, 68
1, 33535, Note_on_c, 1, 61, 0
1, 33536, Note_on_c, 1, 65, 68
1, 33551, Note_on_c, 1, 65, 0
1, 33552, Note_on_c, 0, 78, 74
1, 33552, Note_on_c, 1, 58, 68
1, 33564, Note_on_c, 0, 78, 0
1, 33564, Note_on_c, 0, 77, 74
1, 33567, Note_on_c, 1, 58, 0
1, 33568, Note_on_c, 1, 61, 68
1, 33576, Note_on_c, 0, 77, 0
1, 33576, Note_on_c, 0, 75, 74
1, 33583, Note_on_c, 1, 61, 0
1, 33584, Note_on_c, 1, 65, 68
1, 33588, Note_on_c, 0, 75, 0
1, 33588, Note_on_c, 0, 73, 74
1, 33599, Note_on_c, 1, 65, 0
1, 33600, Note_on_c, 0, 73, 0
1, 33600, Note_on_c, 0, 72, 74
1, 33600, Note_on_c, 1, 56, 68
1, 33615, Note_on_c, 1, 56, 0
1, 33616, Note_on_c, 1, 63, 68
1, 33620, Note_on_c, 0, 72, 0
1, 33631, Note_on_c, 1, 63, 0
1, 33632, Note_on_c, 1, 66, 68
1, 33647, Note_on_c, 1, 66, 0
1, 33648, Note_on_c, 1, 56, 68
1, 33663, Note_on_c, 1, 56, 0
1, 33664, Note_on_c, 1, 63, 68
1, 33679, Note_on_c, 1, 63, 0
1, 33680, Note_on_c, 1, 66, 68
1, 33695, Note_on_c, 1, 66, 0
1, 33696, Note_on_c, 1, 56, 68
1, 33711, Note_on_c, 1, 56, 0
1, 33712, Note_on_c, 1, 60, 68
1, 33727, Note_on_c, 1, 60, 0
1, 33728, Note_on_c, 1, 66, 68
1, 33743, Note_on_c, 1, 66, 0
1, 33744, Note_on_c, 0, 84, 74
1, 33744, Note_on_c, 1, 56, 68
1, 33756, Note_on_c, 0, 84, 0
1, 33756, Note_on_c, 0, 82, 74
1, 33759, Note_on_c, 1, 56, 0
1, 33760, Note_on_c, 1, 60, 68
1, 33768, Note_on_c, 0, 82, 0
1, 33768, Note_on_c, 0, 80, 74
1, 33775, Note_on_c, 1, 60, 0
1, 33776, Note_on_c, 1, 66, 68
1, 33780, Note_on_c, 0, 80, 0
1, 33780, Note_on_c, 0, 78, 74
1, 33791, Note_on_c, 1, 66, 0
1, 33792, Note_on_c, 0, 78, 0
1, 33792, Note_on_c, 0, 77, 74
1, 33792, Note_on_c, 1, 61, 68
1, 33807, Note_on_c, 1, 61, 0
1, 33808, Note_on_c, 1, 65, 68
1, 33812, Note_on_c, 0, 77, 0
1, 33823, Note_on_c, 1, 65, 0
1, 33824, Note_on_c, 1, 68, 68
1, 33839, Note_on_c, 1, 68, 0
1, 33840, Note_on_c, 1, 61, 68
1, 33855, Note_on_c, 1, 61, 0
1, 33856, Note_on_c, 1, 65, 68
1, 33871, Note_on_c, 1, 65, 0
1, 33872, Note_on_c, 1, 68, 68
1, 33887, Note_on_c, 1, 68, 0
1, 33888, Note_on_c, 1, 61, 68
1, 33903, Note_on_c, 1, 61, 0
1, 33904, Note_on_c, 1, 65, 68
1, 33919, Note_on_c, 1, 65, 0
1, 33920, Note_on_c, 1, 68, 68
1, 33935, Note_on_c, 1, 68, 0
1, 33936, Note_on_c, 0, 78, 74
1, 33936, Note_on_c, 1, 61, 68
1, 33948, Note_on_c, 0, 78, 0
1, 33948, Note_on_c, 0, 77, 74
1, 33951, Note_on_c, 1, 61, 0
1, 33952, Note_on_c, 1, 65, 68
1, 33960, Note_on_c, 0, 77, 0
1, 33960, Note_on_c, 0, 75, 74
1, 33967, Note_on_c, 1, 65, 0
1, 33968, Note_on_c, 1, 68, 68
1, 33972, Note_on_c, 0, 75, 0
1, 33972, Note_on_c, 0, 73, 74
1, 33983, Note_on_c, 1, 68, 0
1, 33984, Note_on_c, 0, 73, 0
1, 33984, Note_on_c, 0, 72, 74
1, 33984, Note_on_c, 1, 63, 68
1, 33999, Note_on_c, 1, 63, 0
1, 34000, Note_on_c, 1, 66, 68
1, 34004, Note_on_c, 0, 72, 0
1, 34015, Note_on_c, 1, 66, 0
1, 34016, Note_on_c, 1, 68, 68
1, 34031, Note_on_c, 1, 68, 0
1, 34032, Note_on_c, 1, 63, 68
1, 34047, Note_on_c, 1, 63, 0
1, 34048, Note_on_c, 1, 66, 68
1, 34063, Note_on_c, 1, 66, 0
1, 34064, Note_on_c, 1, 68, 68
1, 34079, Note_on_c, 1, 68, 0
1, 34080, Note_on_c, 1, 60, 68
1, 34095, Note_on_c, 1, 60, 0
1, 34096, Note_on_c, 1, 63, 68
1, 34111, Note_on_c, 1, 63, 0
1, 34112, Note_on_c, 1, 68, 68
1, 34127, Note_on_c, 1, 68, 0
1, 34128, Note_on_c, 0, 84, 74
1, 34128, Note_on_c, 1, 60, 68
1, 34140, Note_on_c, 0, 84, 0
1, 34140, Note_on_c, 0, 82, 74
1, 34143, Note_on_c, 1, 60, 0
1, 34144, Note_on_c, 1, 63, 68
1, 34152, Note_on_c, 0, 82, 0
1, 34152, Note_on_c, 0, 80, 74
1, 34159, Note_on_c, 1, 63, 0
1, 34160, Note_on_c, 1, 68, 68
1, 34164, Note_on_c, 0, 80, 0
1, 34164, Note_on_c, 0, 78, 74
1, 34175, Note_on_c, 1, 68, 0
1, 34176, Note_on_c, 0, 78, 0
1, 34176, Note_on_c, 0, 77, 74
1, 34176, Note_on_c, 1, 61, 68
1, 34196, Note_on_c, 0, 77, 0
1, 34224, Note_on_c, 0, 89, 90
1, 34240, Note_on_c, 0, 89, 0
1, 34240, Note_on_c, 0, 87, 74
1, 34255, Note_on_c, 0, 87, 0
1, 34256, Note_on_c, 0, 85, 74
1, 34265, Note_on_c, 1, 61, 0
1, 34271, Note_on_c, 0, 85, 0
1, 34272, Note_on_c, 0, 84, 74
1, 34287, Note_on_c, 0, 84, 0
1, 34288, Note_on_c, 0, 82, 74
1, 34303, Note_on_c, 0, 82, 0
1, 34304, Note_on_c, 0, 80, 74
1, 34319, Note_on_c, 0, 80, 0
1, 34320, Note_on_c, 0, 78, 74
1, 34335, Note_on_c, 0, 78, 0
1, 34336, Note_on_c, 0, 77, 74
1, 34351, Note_on_c, 0, 77, 0
1, 34352, Note_on_c, 0, 75, 74
1, 34367, Note_on_c, 0, 75, 0
1, 34368, Note_on_c, 0, 73, 74
1, 34388, Note_on_c, 0, 73, 0
1, 34416, Note_on_c, 0, 77, 83
1, 34416, Note_on_c, 1, 65, 83
1, 34431, Note_on_c, 0, 77, 0
1, 34431, Note_on_c, 1, 65, 0
1, 34432, Note_on_c, 0, 75, 83
1, 34432, Note_on_c, 1, 63, 83
1, 34447, Note_on_c, 0, 75, 0
1, 34447, Note_on_c, 1, 63, 0
1, 34448, Note_on_c, 0, 73, 83
1, 34448, Note_on_c, 1, 61, 83
1, 34463, Note_on_c, 0, 73, 0
1, 34463, Note_on_c, 1, 61, 0
1, 34464, Note_on_c, 0, 72, 83
1, 34464, Note_on_c, 1, 60, 83
1, 34479, Note_on_c, 0, 72, 0
1, 34479, Note_on_c, 1, 60, 0
1, 34480, Note_on_c, 0, 70, 83
1, 34480, Note_on_c, 1, 58, 83
1, 34495, Note_on_c, 0, 70, 0
1, 34495, Note_on_c, 1, 58, 0
1, 34496, Note_on_c, 0, 68, 83
1, 34496, Note_on_c, 1, 56, 83
1, 34511, Note_on_c, 0, 68, 0
1, 34511, Note_on_c, 1, 56, 0
1, 34512, Note_on_c, 0, 66, 83
1, 34512, Note_on_c, 1, 54, 83
1, 34527, Note_on_c, 0, 66, 0
1, 34527, Note_on_c, 1, 54, 0
1, 34528, Note_on_c, 0, 65, 83
1, 34528, Note_on_c, 1, 53, 83
1, 34543, Note_on_c, 0, 65, 0
1, 34543, Note_on_c, 1, 53, 0
1, 34544, Note_on_c, 0, 63, 83
1, 34544, Note_on_c, 1, 51, 83
1, 34559, Note_on_c, 0, 63, 0
1, 34559, Note_on_c, 1, 51, 0
1, 34560, Note_on_c, 0, 61, 83
1, 34560, Note_on_c, 1, 49, 83
1, 34649, Note_on_c, 0, 61, 0
1, 34649, Note_on_c, 1, 49, 0
1, 34656, Note_on_c, 0, 59, 83
1, 34656, Note_on_c, 1, 47, 83
1, 34665, Note_on_c, 0, 59, 0
1, 34665, Note_on_c, 0, 61, 83
1, 34667, Note_on_c, 1, 47, 0
1, 34667, Note_on_c, 1, 49, 83
1, 34674, Note_on_c, 0, 61, 0
1, 34674, Note_on_c, 0, 59, 83
1, 34678, Note_on_c, 1, 49, 0
1, 34678, Note_on_c, 1, 47, 83
1, 34683, Note_on_c, 0, 59, 0
1, 34683, Note_on_c, 0, 61, 83
1, 34689, Note_on_c, 1, 47, 0
1, 34689, Note_on_c, 1, 49, 83
1, 34692, Note_on_c, 0, 61, 0
1, 34692, Note_on_c, 0, 59, 83
1, 34700, Note_on_c, 1, 49, 0
1, 34700, Note_on_c, 1, 47, 83
1, 34701, Note_on_c, 0, 59, 0
1, 34701, Note_on_c, 0, 61, 83
1, 34710, Note_on_c, 0, 61, 0
1, 34710, Note_on_c, 0, 59, 83
1, 34711, Note_on_c, 1, 47, 0
1, 34711, Note_on_c, 1, 49, 83
1, 34719, Note_on_c, 0, 59, 0
1, 34719, Note_on_c, 0, 61, 83
1, 34722, Note_on_c, 1, 49, 0
1, 34722, Note_on_c, 1, 47, 83
1, 34728, Note_on_c, 0, 61, 0
1, 34728, Note_on_c, 0, 59, 83
1, 34732, Note_on_c, 1, 47, 0
1, 34732, Note_on_c, 1, 46, 83
1, 34736, Note_on_c, 0, 59, 0
1, 34736, Note_on_c, 0, 58, 83
1, 34742, Note_on_c, 1, 46, 0
1, 34742, Note_on_c, 1, 47, 83
1, 34744, Note_on_c, 0, 58, 0
1, 34744, Note_on_c, 0, 59, 83
1, 34752, Note_on_c, 0, 59, 0
1, 34752, Note_on_c, 0, 58, 83
1, 34752, Note_on_c, 1, 47, 0
1, 34752, Note_on_c, 1, 46, 83
1, 34752, Note_on_c, 1, 34, 83
1, 34767, Note_on_c, 0, 58, 0
1, 34768, Note_on_c, 0, 62, 83
1, 34783, Note_on_c, 0, 62, 0
1, 34784, Note_on_c, 0, 65, 83
1, 34799, Note_on_c, 0, 65, 0
1, 34800, Note_on_c, 0, 62, 83
1, 34815, Note_on_c, 0, 62, 0
1, 34816, Note_on_c, 0, 65, 83
1, 34831, Note_on_c, 0, 65, 0
1, 34832, Note_on_c, 0, 70, 84
1, 34847, Note_on_c, 0, 70, 0
1, 34848, Note_on_c, 0, 65, 84
1, 34863, Note_on_c, 0, 65, 0
1, 34864, Note_on_c, 0, 70, 84
1, 34879, Note_on_c, 0, 70, 0
1, 34880, Note_on_c, 0, 74, 84
1, 34895, Note_on_c, 0, 74, 0
1, 34896, Note_on_c, 0, 70, 84
1, 34911, Note_on_c, 0, 70, 0
1, 34912, Note_on_c, 0, 74, 85
1, 34927, Note_on_c, 0, 74, 0
1, 34928, Note_on_c, 0, 77, 85
1, 34929, Note_on_c, 1, 46, 0
1, 34929, Note_on_c, 1, 34, 0
1, 34943, Note_on_c, 0, 77, 0
1, 34944, Note_on_c, 0, 74, 85
1, 34959, Note_on_c, 0, 74, 0
1, 34960, Note_on_c, 0, 77, 85
1, 34975, Note_on_c, 0, 77, 0
1, 34976, Note_on_c, 0, 80, 85
1, 34991, Note_on_c, 0, 80, 0
1, 34992, Note_on_c, 0, 77, 86
1, 35007, Note_on_c, 0, 77, 0
1, 35008, Note_on_c, 0, 80, 86
1, 35023, Note_on_c, 0, 80, 0
1, 35024, Note_on_c, 0, 83, 86
1, 35039, Note_on_c, 0, 83, 0
1, 35040, Note_on_c, 0, 82, 83
1, 35055, Note_on_c, 0, 82, 0
1, 35056, Note_on_c, 0, 80, 81
1, 35071, Note_on_c, 0, 80, 0
1, 35072, Note_on_c, 0, 78, 80
1, 35087, Note_on_c, 0, 78, 0
1, 35088, Note_on_c, 0, 77, 79
1, 35103, Note_on_c, 0, 77, 0
1, 35104, Note_on_c, 0, 75, 78
1, 35119, Note_on_c, 0, 75, 0
1, 35120, Note_on_c, 0, 74, 76
1, 35135, Note_on_c, 0, 74, 0
1, 35136, Note_on_c, 0, 75, 75
1, 35136, Note_on_c, 1, 63, 62
1, 35151, Note_on_c, 1, 63, 0
1, 35152, Note_on_c, 1, 66, 62
1, 35167, Note_on_c, 1, 66, 0
1, 35168, Note_on_c, 1, 70, 62
1, 35181, Note_on_c, 0, 75, 0
1, 35183, Note_on_c, 1, 70, 0
1, 35184, Note_on_c, 1, 63, 62
1, 35199, Note_on_c, 1, 63, 0
1, 35200, Note_on_c, 1, 66, 62
1, 35215, Note_on_c, 1, 66, 0
1, 35216, Note_on_c, 1, 70, 62
1, 35231, Note_on_c, 1, 70, 0
1, 35232, Note_on_c, 1, 63, 62
1, 35247, Note_on_c, 1, 63, 0
1, 35248, Note_on_c, 1, 66, 62
1, 35263, Note_on_c, 1, 66, 0
1, 35264, Note_on_c, 1, 70, 62
1, 35279, Note_on_c, 1, 70, 0
1, 35280, Note_on_c, 0, 80, 68
1, 35280, Note_on_c, 1, 63, 62
1, 35292, Note_on_c, 0, 80, 0
1, 35292, Note_on_c, 0, 78, 68
1, 35295, Note_on_c, 1, 63, 0
1, 35296, Note_on_c, 1, 66, 62
1, 35304, Note_on_c, 0, 78, 0
1, 35304, Note_on_c, 0, 77, 68
1, 35311, Note_on_c, 1, 66, 0
1, 35312, Note_on_c, 1, 70, 62
1, 35316, Note_on_c, 0, 77, 0
1, 35316, Note_on_c, 0, 75, 68
1, 35327, Note_on_c, 1, 70, 0
1, 35328, Note_on_c, 0, 75, 0
1, 35328, Note_on_c, 0, 74, 68
1, 35328, Note_on_c, 1, 65, 62
1, 35343, Note_on_c, 1, 65, 0
1, 35344, Note_on_c, 1, 68, 62
1, 35348, Note_on_c, 0, 74, 0
1, 35359, Note_on_c, 1, 68, 0
1, 35360, Note_on_c, 1, 70, 62
1, 35375, Note_on_c, 1, 70, 0
1, 35376, Note_on_c, 1, 65, 62
1, 35391, Note_on_c, 1, 65, 0
1, 35392, Note_on_c, 1, 68, 62
1, 35407, Note_on_c, 1, 68, 0
1, 35408, Note_on_c, 1, 70, 62
1, 35423, Note_on_c, 1, 70, 0
1, 35424, Note_on_c, 1, 62, 62
1, 35439, Note_on_c, 1, 62, 0
1, 35440, Note_on_c, 1, 65, 62
1, 35455, Note_on_c, 1, 65, 0
1, 35456, Note_on_c, 1, 70, 62
1, 35471, Note_on_c, 1, 70, 0
1, 35472, Note_on_c, 0, 85, 68
1, 35472, Note_on_c, 1, 62, 62
1, 35484, Note_on_c, 0, 85, 0
1, 35484, Note_on_c, 0, 83, 68
1, 35487, Note_on_c, 1, 62, 0
1, 35488, Note_on_c, 1, 65, 62
1, 35496, Note_on_c, 0, 83, 0
1, 35496, Note_on_c, 0, 82, 68
1, 35503, Note_on_c, 1, 65, 0
1, 35504, Note_on_c, 1, 70, 62
1, 35508, Note_on_c, 0, 82, 0
1, 35508, Note_on_c, 0, 80, 68
1, 35519, Note_on_c, 1, 70, 0
1, 35520, Note_on_c, 0, 80, 0
1, 35520, Note_on_c, 0, 78, 68
1, 35520, Note_on_c, 1, 63, 62
1, 35535, Note_on_c, 1, 63, 0
1, 35536, Note_on_c, 1, 66, 62
1, 35540, Note_on_c, 0, 78, 0
1, 35551, Note_on_c, 1, 66, 0
1, 35552, Note_on_c, 1, 70, 62
1, 35567, Note_on_c, 1, 70, 0
1, 35568, Note_on_c, 1, 63, 62
1, 35583, Note_on_c, 1, 63, 0
1, 35584, Note_on_c, 1, 66, 62
1, 35599, Note_on_c, 1, 66, 0
1, 35600, Note_on_c, 1, 70, 62
1, 35615, Note_on_c, 1, 70, 0
1, 35616, Note_on_c, 1, 63, 62
1, 35631, Note_on_c, 1, 63, 0
1, 35632, Note_on_c, 1, 66, 62
1, 35647, Note_on_c, 1, 66, 0
1, 35648, Note_on_c, 1, 70, 62
1, 35663, Note_on_c, 1, 70, 0
1, 35664, Note_on_c, 0, 80, 68
1, 35664, Note_on_c, 1, 63, 62
1, 35676, Note_on_c, 0, 80, 0
1, 35676, Note_on_c, 0, 78, 68
1, 35679, Note_on_c, 1, 63, 0
1, 35680, Note_on_c, 1, 66, 62
1, 35688, Note_on_c, 0, 78, 0
1, 35688, Note_on_c, 0, 77, 68
1, 35695, Note_on_c, 1, 66, 0
1, 35696, Note_on_c, 1, 70, 62
1, 35700, Note_on_c, 0, 77, 0
1, 35700, Note_on_c, 0, 75, 68
1, 35711, Note_on_c, 1, 70, 0
1, 35712, Note_on_c, 0, 75, 0
1, 35712, Note_on_c, 0, 74, 68
1, 35712, Note_on_c, 1, 65, 62
1, 35727, Note_on_c, 1, 65, 0
1, 35728, Note_on_c, 1, 68, 62
1, 35732, Note_on_c, 0, 74, 0
1, 35743, Note_on_c, 1, 68, 0
1, 35744, Note_on_c, 1, 70, 62
1, 35759, Note_on_c, 1, 70, 0
1, 35760, Note_on_c, 1, 65, 62
1, 35775, Note_on_c, 1, 65, 0
1, 35776, Note_on_c, 1, 68, 62
1, 35791, Note_on_c, 1, 68, 0
1, 35792, Note_on_c, 1, 70, 62
1, 35807, Note_on_c, 1, 70, 0
1, 35808, Note_on_c, 1, 62, 62
1, 35823, Note_on_c, 1, 62, 0
1, 35824, Note_on_c, 1, 65, 62
1, 35839, Note_on_c, 1, 65, 0
1, 35840, Note_on_c, 1, 70, 62
1, 35855, Note_on_c, 1, 70, 0
1, 35856, Note_on_c, 0, 85, 68
1, 35856, Note_on_c, 1, 62, 62
1, 35868, Note_on_c, 0, 85, 0
1, 35868, Note_on_c, 0, 83, 68
1, 35871, Note_on_c, 1, 62, 0
1, 35872, Note_on_c, 1, 65, 62
1, 35880, Note_on_c, 0, 83, 0
1, 35880, Note_on_c, 0, 82, 68
1, 35887, Note_on_c, 1, 65, 0
1, 35888, Note_on_c, 1, 70, 62
1, 35892, Note_on_c, 0, 82, 0
1, 35892, Note_on_c, 0, 80, 68
1, 35903, Note_on_c, 1, 70, 0
1, 35904, Note_on_c, 0, 80, 0
1, 35904, Note_on_c, 0, 78, 68
1, 35904, Note_on_c, 1, 63, 68
1, 35919, Note_on_c, 1, 63, 0
1, 35920, Note_on_c, 1, 66, 68
1, 35935, Note_on_c, 1, 66, 0
1, 35936, Note_on_c, 1, 70, 69
1, 35951, Note_on_c, 1, 70, 0
1, 35952, Note_on_c, 1, 63, 70
1, 35967, Note_on_c, 1, 63, 0
1, 35968, Note_on_c, 1, 66, 71
1, 35983, Note_on_c, 1, 66, 0
1, 35984, Note_on_c, 1, 70, 71
1, 35993, Note_on_c, 0, 78, 0
1, 35999, Note_on_c, 1, 70, 0
1, 36000, Note_on_c, 0, 79, 83
1, 36000, Note_on_c, 1, 63, 74
1, 36009, Note_on_c, 0, 79, 0
1, 36009, Note_on_c, 0, 80, 83
1, 36015, Note_on_c, 1, 63, 0
1, 36016, Note_on_c, 1, 70, 74
1, 36018, Note_on_c, 0, 80, 0
1, 36018, Note_on_c, 0, 79, 83
1, 36027, Note_on_c, 0, 79, 0
1, 36027, Note_on_c, 0, 80, 83
1, 36031, Note_on_c, 1, 70, 0
1, 36032, Note_on_c, 1, 73, 74
1, 36036, Note_on_c, 0, 80, 0
1, 36036, Note_on_c, 0, 79, 83
1, 36045, Note_on_c, 0, 79, 0
1, 36045, Note_on_c, 0, 80, 83
1, 36047, Note_on_c, 1, 73, 0
1, 36048, Note_on_c, 1, 63, 74
1, 36054, Note_on_c, 0, 80, 0
1, 36054, Note_on_c, 0, 79, 83
1, 36063, Note_on_c, 0, 79, 0
1, 36063, Note_on_c, 0, 80, 83
1, 36063, Note_on_c, 1, 63, 0
1, 36064, Note_on_c, 1, 70, 74
1, 36072, Note_on_c, 0, 80, 0
1, 36072, Note_on_c, 0, 79, 83
1, 36079, Note_on_c, 1, 70, 0
1, 36080, Note_on_c, 0, 79, 0
1, 36080, Note_on_c, 0, 77, 83
1, 36080, Note_on_c, 1, 73, 74
1, 36088, Note_on_c, 0, 77, 0
1, 36088, Note_on_c, 0, 79, 83
1, 36095, Note_on_c, 1, 73, 0
1, 36096, Note_on_c, 0, 79, 0
1, 36096, Note_on_c, 0, 80, 83
1, 36096, Note_on_c, 1, 63, 74
1, 36111, Note_on_c, 1, 63, 0
1, 36112, Note_on_c, 1, 68, 74
1, 36119, Note_on_c, 0, 80, 0
1, 36120, Note_on_c, 0, 82, 83
1, 36127, Note_on_c, 1, 68, 0
1, 36128, Note_on_c, 0, 82, 0
1, 36128, Note_on_c, 0, 80, 83
1, 36128, Note_on_c, 1, 71, 74
1, 36136, Note_on_c, 0, 80, 0
1, 36136, Note_on_c, 0, 79, 83
1, 36143, Note_on_c, 1, 71, 0
1, 36144, Note_on_c, 0, 79, 0
1, 36144, Note_on_c, 0, 80, 83
1, 36144, Note_on_c, 1, 63, 74
1, 36159, Note_on_c, 1, 63, 0
1, 36160, Note_on_c, 1, 68, 74
1, 36167, Note_on_c, 0, 80, 0
1, 36168, Note_on_c, 0, 82, 83
1, 36175, Note_on_c, 1, 68, 0
1, 36176, Note_on_c, 1, 71, 74
1, 36191, Note_on_c, 0, 82, 0
1, 36191, Note_on_c, 1, 71, 0
1, 36192, Note_on_c, 0, 85, 83
1, 36192, Note_on_c, 1, 63, 74
1, 36207, Note_on_c, 1, 63, 0
1, 36208, Note_on_c, 1, 68, 74
1, 36215, Note_on_c, 0, 85, 0
1, 36216, Note_on_c, 0, 83, 83
1, 36223, Note_on_c, 1, 68, 0
1, 36224, Note_on_c, 1, 71, 74
1, 36239, Note_on_c, 0, 83, 0
1, 36239, Note_on_c, 1, 71, 0
1, 36240, Note_on_c, 0, 82, 83
1, 36240, Note_on_c, 1, 63, 74
1, 36255, Note_on_c, 1, 63, 0
1, 36256, Note_on_c, 1, 68, 74
1, 36263, Note_on_c, 0, 82, 0
1, 36264, Note_on_c, 0, 80, 83
1, 36271, Note_on_c, 1, 68, 0
1, 36272, Note_on_c, 1, 71, 74
1, 36287, Note_on_c, 0, 80, 0
1, 36287, Note_on_c, 1, 71, 0
1, 36288, Note_on_c, 0, 78, 83
1, 36288, Note_on_c, 1, 61, 74
1, 36303, Note_on_c, 1, 61, 0
1, 36304, Note_on_c, 1, 68, 74
1, 36319, Note_on_c, 1, 68, 0
1, 36320, Note_on_c, 1, 71, 74
1, 36335, Note_on_c, 1, 71, 0
1, 36336, Note_on_c, 1, 61, 74
1, 36351, Note_on_c, 1, 61, 0
1, 36352, Note_on_c, 1, 68, 74
1, 36367, Note_on_c, 1, 68, 0
1, 36368, Note_on_c, 1, 71, 74
1, 36377, Note_on_c, 0, 78, 0
1, 36383, Note_on_c, 1, 71, 0
1, 36384, Note_on_c, 0, 77, 83
1, 36384, Note_on_c, 1, 61, 74
1, 36393, Note_on_c, 0, 77, 0
1, 36393, Note_on_c, 0, 78, 83
1, 36399, Note_on_c, 1, 61, 0
1, 36400, Note_on_c, 1, 68, 74
1, 36402, Note_on_c, 0, 78, 0
1, 36402, Note_on_c, 0, 77, 83
1, 36411, Note_on_c, 0, 77, 0
1, 36411, Note_on_c, 0, 78, 83
1, 36415, Note_on_c, 1, 68, 0
1, 36416, Note_on_c, 1, 71, 74
1, 36420, Note_on_c, 0, 78, 0
1, 36420, Note_on_c, 0, 77, 83
1, 36429, Note_on_c, 0, 77, 0
1, 36429, Note_on_c, 0, 78, 83
1, 36431, Note_on_c, 1, 71, 0
1, 36432, Note_on_c, 1, 61, 74
1, 36438, Note_on_c, 0, 78, 0
1, 36438, Note_on_c, 0, 77, 83
1, 36447, Note_on_c, 0, 77, 0
1, 36447, Note_on_c, 0, 78, 83
1, 36447, Note_on_c, 1, 61, 0
1, 36448, Note_on_c, 1, 68, 74
1, 36456, Note_on_c, 0, 78, 0
1, 36456, Note_on_c, 0, 77, 83
1, 36463, Note_on_c, 1, 68, 0
1, 36464, Note_on_c, 0, 77, 0
1, 36464, Note_on_c, 0, 75, 83
1, 36464, Note_on_c, 1, 71, 74
1, 36472, Note_on_c, 0, 75, 0
1, 36472, Note_on_c, 0, 77, 83
1, 36479, Note_on_c, 1, 71, 0
1, 36480, Note_on_c, 0, 77, 0
1, 36480, Note_on_c, 0, 78, 83
1, 36480, Note_on_c, 1, 61, 74
1, 36495, Note_on_c, 1, 61, 0
1, 36496, Note_on_c, 1, 66, 74
1, 36503, Note_on_c, 0, 78, 0
1, 36504, Note_on_c, 0, 80, 83
1, 36511, Note_on_c, 1, 66, 0
1, 36512, Note_on_c, 0, 80, 0
1, 36512, Note_on_c, 0, 78, 83
1, 36512, Note_on_c, 1, 70, 74
1, 36520, Note_on_c, 0, 78, 0
1, 36520, Note_on_c, 0, 77, 83
1, 36527, Note_on_c, 1, 70, 0
1, 36528, Note_on_c, 0, 77, 0
1, 36528, Note_on_c, 0, 78, 83
1, 36528, Note_on_c, 1, 61, 74
1, 36543, Note_on_c, 1, 61, 0
1, 36544, Note_on_c, 1, 66, 74
1, 36551, Note_on_c, 0, 78, 0
1, 36552, Note_on_c, 0, 80, 83
1, 36559, Note_on_c, 1, 66, 0
1, 36560, Note_on_c, 1, 70, 74
1, 36575, Note_on_c, 0, 80, 0
1, 36575, Note_on_c, 1, 70, 0
1, 36576, Note_on_c, 0, 83, 83
1, 36576, Note_on_c, 1, 61, 74
1, 36591, Note_on_c, 1, 61, 0
1, 36592, Note_on_c, 1, 66, 74
1, 36599, Note_on_c, 0, 83, 0
1, 36600, Note_on_c, 0, 82, 83
1, 36607, Note_on_c, 1, 66, 0
1, 36608, Note_on_c, 1, 70, 74
1, 36623, Note_on_c, 0, 82, 0
1, 36623, Note_on_c, 1, 70, 0
1, 36624, Note_on_c, 0, 80, 83
1, 36624, Note_on_c, 1, 61, 74
1, 36639, Note_on_c, 1, 61, 0
1, 36640, Note_on_c, 1, 66, 74
1, 36647, Note_on_c, 0, 80, 0
1, 36648, Note_on_c, 0, 78, 83
1, 36655, Note_on_c, 1, 66, 0
1, 36656, Note_on_c, 1, 70, 74
1, 36671, Note_on_c, 0, 78, 0
1, 36671, Note_on_c, 1, 70, 0
1, 36672, Note_on_c, 0, 77, 83
1, 36672, Note_on_c, 1, 59, 74
1, 36687, Note_on_c, 1, 59, 0
1, 36688, Note_on_c, 1, 66, 74
1, 36703, Note_on_c, 1, 66, 0
1, 36704, Note_on_c, 1, 70, 74
1, 36719, Note_on_c, 1, 70, 0
1, 36720, Note_on_c, 1, 59, 74
1, 36735, Note_on_c, 1, 59, 0
1, 36736, Note_on_c, 1, 66, 74
1, 36751, Note_on_c, 1, 66, 0
1, 36752, Note_on_c, 1, 70, 74
1, 36761, Note_on_c, 0, 77, 0
1, 36767, Note_on_c, 1, 70, 0
1, 36768, Note_on_c, 0, 75, 83
1, 36768, Note_on_c, 1, 59, 74
1, 36777, Note_on_c, 0, 75, 0
1, 36777, Note_on_c, 0, 77, 83
1, 36783, Note_on_c, 1, 59, 0
1, 36784, Note_on_c, 1, 66, 74
1, 36786, Note_on_c, 0, 77, 0
1, 36786, Note_on_c, 0, 75, 83
1, 36795, Note_on_c, 0, 75, 0
1, 36795, Note_on_c, 0, 77, 83
1, 36799, Note_on_c, 1, 66, 0
1, 36800, Note_on_c, 1, 70, 74
1, 36804, Note_on_c, 0, 77, 0
1, 36804, Note_on_c, 0, 75, 83
1, 36813, Note_on_c, 0, 75, 0
1, 36813, Note_on_c, 0, 77, 83
1, 36815, Note_on_c, 1, 70, 0
1, 36816, Note_on_c, 1, 59, 74
1, 36822, Note_on_c, 0, 77, 0
1, 36822, Note_on_c, 0, 75, 83
1, 36831, Note_on_c, 0, 75, 0
1, 36831, Note_on_c, 0, 77, 83
1, 36831, Note_on_c, 1, 59, 0
1, 36832, Note_on_c, 1, 66, 74
1, 36840, Note_on_c, 0, 77, 0
1, 36840, Note_on_c, 0, 75, 83
1, 36847, Note_on_c, 1, 66, 0
1, 36848, Note_on_c, 0, 75, 0
1, 36848, Note_on_c, 0, 74, 83
1, 36848, Note_on_c, 1, 70, 74
1, 36856, Note_on_c, 0, 74, 0
1, 36856, Note_on_c, 0, 75, 83
1, 36863, Note_on_c, 1, 70, 0
1, 36864, Note_on_c, 0, 75, 0
1, 36864, Note_on_c, 0, 77, 83
1, 36864, Note_on_c, 1, 59, 74
1, 36879, Note_on_c, 1, 59, 0
1, 36880, Note_on_c, 1, 65, 74
1, 36887, Note_on_c, 0, 77, 0
1, 36888, Note_on_c, 0, 78, 83
1, 36895, Note_on_c, 1, 65, 0
1, 36896, Note_on_c, 0, 78, 0
1, 36896, Note_on_c, 0, 77, 83
1, 36896, Note_on_c, 1, 68, 74
1, 36904, Note_on_c, 0, 77, 0
1, 36904, Note_on_c, 0, 75, 83
1, 36911, Note_on_c, 1, 68, 0
1, 36912, Note_on_c, 0, 75, 0
1, 36912, Note_on_c, 0, 77, 83
1, 36912, Note_on_c, 1, 59, 74
1, 36927, Note_on_c, 1, 59, 0
1, 36928, Note_on_c, 1, 65, 74
1, 36935, Note_on_c, 0, 77, 0
1, 36936, Note_on_c, 0, 78, 83
1, 36943, Note_on_c, 1, 65, 0
1, 36944, Note_on_c, 1, 68, 74
1, 36959, Note_on_c, 0, 78, 0
1, 36959, Note_on_c, 1, 68, 0
1, 36960, Note_on_c, 0, 82, 83
1, 36960, Note_on_c, 1, 59, 74
1, 36975, Note_on_c, 1, 59, 0
1, 36976, Note_on_c, 1, 65, 74
1, 36983, Note_on_c, 0, 82, 0
1, 36984, Note_on_c, 0, 80, 83
1, 36991, Note_on_c, 1, 65, 0
1, 36992, Note_on_c, 1, 68, 74
1, 37007, Note_on_c, 0, 80, 0
1, 37007, Note_on_c, 1, 68, 0
1, 37008, Note_on_c, 0, 78, 83
1, 37008, Note_on_c, 1, 59, 74
1, 37023, Note_on_c, 1, 59, 0
1, 37024, Note_on_c, 1, 65, 74
1, 37031, Note_on_c, 0, 78, 0
1, 37032, Note_on_c, 0, 77, 83
1, 37039, Note_on_c, 1, 65, 0
1, 37040, Note_on_c, 1, 68, 74
1, 37055, Note_on_c, 0, 77, 0
1, 37055, Note_on_c, 1, 68, 0
1, 37056, Note_on_c, 0, 75, 83
1, 37056, Note_on_c, 1, 58, 74
1, 37071, Note_on_c, 1, 58, 0
1, 37072, Note_on_c, 1, 65, 74
1, 37087, Note_on_c, 1, 65, 0
1, 37088, Note_on_c, 1, 68, 74
1, 37103, Note_on_c, 1, 68, 0
1, 37104, Note_on_c, 1, 58, 74
1, 37119, Note_on_c, 1, 58, 0
1, 37120, Note_on_c, 1, 65, 74
1, 37135, Note_on_c, 1, 65, 0
1, 37136, Note_on_c, 1, 68, 74
1, 37145, Note_on_c, 0, 75, 0
1, 37151, Note_on_c, 1, 68, 0
1, 37152, Note_on_c, 0, 74, 83
1, 37152, Note_on_c, 1, 58, 74
1, 37161, Note_on_c, 0, 74, 0
1, 37161, Note_on_c, 0, 75, 83
1, 37167, Note_on_c, 1, 58, 0
1, 37168, Note_on_c, 1, 65, 74
1, 37170, Note_on_c, 0, 75, 0
1, 37170, Note_on_c, 0, 74, 83
1, 37179, Note_on_c, 0, 74, 0
1, 37179, Note_on_c, 0, 75, 83
1, 37183, Note_on_c, 1, 65, 0
1, 37184, Note_on_c, 1, 68, 74
1, 37188, Note_on_c, 0, 75, 0
1, 37188, Note_on_c, 0, 74, 83
1, 37197, Note_on_c, 0, 74, 0
1, 37197, Note_on_c, 0, 75, 83
1, 37199, Note_on_c, 1, 68, 0
1, 37200, Note_on_c, 1, 58, 74
1, 37206, Note_on_c, 0, 75, 0
1, 37206, Note_on_c, 0, 74, 83
1, 37215, Note_on_c, 0, 74, 0
1, 37215, Note_on_c, 0, 75, 83
1, 37215, Note_on_c, 1, 58, 0
1, 37216, Note_on_c, 1, 65, 74
1, 37224, Note_on_c, 0, 75, 0
1, 37224, Note_on_c, 0, 74, 83
1, 37231, Note_on_c, 1, 65, 0
1, 37232, Note_on_c, 0, 74, 0
1, 37232, Note_on_c, 0, 72, 83
1, 37232, Note_on_c, 1, 68, 74
1, 37240, Note_on_c, 0, 72, 0
1, 37240, Note_on_c, 0, 74, 83
1, 37247, Note_on_c, 1, 68, 0
1, 37248, Note_on_c, 0, 74, 0
1, 37248, Note_on_c, 0, 75, 83
1, 37248, Note_on_c, 1, 58, 74
1, 37263, Note_on_c, 1, 58, 0
1, 37264, Note_on_c, 1, 63, 74
1, 37279, Note_on_c, 1, 63, 0
1, 37280, Note_on_c, 1, 67, 74
1, 37295, Note_on_c, 1, 67, 0
1, 37296, Note_on_c, 1, 58, 74
1, 37311, Note_on_c, 1, 58, 0
1, 37312, Note_on_c, 1, 63, 74
1, 37327, Note_on_c, 1, 63, 0
1, 37328, Note_on_c, 1, 67, 74
1, 37337, Note_on_c, 0, 75, 0
1, 37343, Note_on_c, 1, 67, 0
1, 37344, Note_on_c, 1, 58, 74
1, 37359, Note_on_c, 1, 58, 0
1, 37360, Note_on_c, 1, 63, 74
1, 37368, Note_on_c, 0, 75, 83
1, 37375, Note_on_c, 1, 63, 0
1, 37376, Note_on_c, 1, 67, 74
1, 37391, Note_on_c, 0, 75, 0
1, 37391, Note_on_c, 1, 67, 0
1, 37392, Note_on_c, 0, 77, 83
1, 37392, Note_on_c, 1, 58, 74
1, 37400, Note_on_c, 0, 77, 0
1, 37400, Note_on_c, 0, 75, 83
1, 37407, Note_on_c, 1, 58, 0
1, 37408, Note_on_c, 0, 75, 0
1, 37408, Note_on_c, 0, 77, 83
1, 37408, Note_on_c, 1, 63, 74
1, 37416, Note_on_c, 0, 77, 0
1, 37416, Note_on_c, 0, 75, 83
1, 37423, Note_on_c, 1, 63, 0
1, 37424, Note_on_c, 0, 75, 0
1, 37424, Note_on_c, 0, 74, 83
1, 37424, Note_on_c, 1, 67, 74
1, 37432, Note_on_c, 0, 74, 0
1, 37432, Note_on_c, 0, 75, 83
1, 37439, Note_on_c, 1, 67, 0
1, 37440, Note_on_c, 0, 75, 0
1, 37440, Note_on_c, 0, 79, 83
1, 37440, Note_on_c, 1, 60, 74
1, 37455, Note_on_c, 1, 60, 0
1, 37456, Note_on_c, 1, 63, 74
1, 37471, Note_on_c, 1, 63, 0
1, 37472, Note_on_c, 1, 67, 74
1, 37485, Note_on_c, 0, 79, 0
1, 37487, Note_on_c, 1, 67, 0
1, 37488, Note_on_c, 0, 75, 83
1, 37488, Note_on_c, 1, 60, 74
1, 37503, Note_on_c, 1, 60, 0
1, 37504, Note_on_c, 1, 63, 74
1, 37519, Note_on_c, 1, 63, 0
1, 37520, Note_on_c, 1, 67, 74
1, 37533, Note_on_c, 0, 75, 0
1, 37535, Note_on_c, 1, 67, 0
1, 37536, Note_on_c, 1, 60, 74
1, 37551, Note_on_c, 1, 60, 0
1, 37552, Note_on_c, 1, 63, 74
1, 37560, Note_on_c, 0, 75, 83
1, 37567, Note_on_c, 1, 63, 0
1, 37568, Note_on_c, 1, 67, 74
1, 37583, Note_on_c, 0, 75, 0
1, 37583, Note_on_c, 1, 67, 0
1, 37584, Note_on_c, 0, 77, 83
1, 37584, Note_on_c, 1, 60, 74
1, 37592, Note_on_c, 0, 77, 0
1, 37592, Note_on_c, 0, 75, 83
1, 37599, Note_on_c, 1, 60, 0
1, 37600, Note_on_c, 0, 75, 0
1, 37600, Note_on_c, 0, 77, 83
1, 37600, Note_on_c, 1, 63, 74
1, 37608, Note_on_c, 0, 77, 0
1, 37608, Note_on_c, 0, 75, 83
1, 37615, Note_on_c, 1, 63, 0
1, 37616, Note_on_c, 0, 75, 0
1, 37616, Note_on_c, 0, 74, 83
1, 37616, Note_on_c, 1, 67, 74
1, 37624, Note_on_c, 0, 74, 0
1, 37624, Note_on_c, 0, 75, 83
1, 37631, Note_on_c, 1, 67, 0
1, 37632, Note_on_c, 0, 75, 0
1, 37632, Note_on_c, 0, 79, 83
1, 37632, Note_on_c, 1, 58, 74
1, 37647, Note_on_c, 1, 58, 0
1, 37648, Note_on_c, 1, 63, 74
1, 37663, Note_on_c, 1, 63, 0
1, 37664, Note_on_c, 1, 67, 74
1, 37677, Note_on_c, 0, 79, 0
1, 37679, Note_on_c, 1, 67, 0
1, 37680, Note_on_c, 0, 75, 83
1, 37680, Note_on_c, 1, 58, 74
1, 37695, Note_on_c, 1, 58, 0
1, 37696, Note_on_c, 1, 63, 74
1, 37711, Note_on_c, 1, 63, 0
1, 37712, Note_on_c, 1, 67, 74
1, 37725, Note_on_c, 0, 75, 0
1, 37727, Note_on_c, 1, 67, 0
1, 37728, Note_on_c, 1, 58, 74
1, 37743, Note_on_c, 1, 58, 0
1, 37744, Note_on_c, 1, 63, 74
1, 37752, Note_on_c, 0, 75, 83
1, 37759, Note_on_c, 1, 63, 0
1, 37760, Note_on_c, 1, 67, 74
1, 37775, Note_on_c, 0, 75, 0
1, 37775, Note_on_c, 1, 67, 0
1, 37776, Note_on_c, 0, 77, 83
1, 37776, Note_on_c, 1, 58, 74
1, 37784, Note_on_c, 0, 77, 0
1, 37784, Note_on_c, 0, 75, 83
1, 37791, Note_on_c, 1, 58, 0
1, 37792, Note_on_c, 0, 75, 0
1, 37792, Note_on_c, 0, 77, 83
1, 37792, Note_on_c, 1, 63, 74
1, 37800, Note_on_c, 0, 77, 0
1, 37800, Note_on_c, 0, 75, 83
1, 37807, Note_on_c, 1, 63, 0
1, 37808, Note_on_c, 0, 75, 0
1, 37808, Note_on_c, 0, 74, 83
1, 37808, Note_on_c, 1, 67, 74
1, 37816, Note_on_c, 0, 74, 0
1, 37816, Note_on_c, 0, 75, 83
1, 37823, Note_on_c, 1, 67, 0
1, 37824, Note_on_c, 0, 75, 0
1, 37824, Note_on_c, 0, 84, 83
1, 37824, Note_on_c, 1, 57, 74
1, 37839, Note_on_c, 1, 57, 0
1, 37840, Note_on_c, 1, 63, 74
1, 37855, Note_on_c, 1, 63, 0
1, 37856, Note_on_c, 1, 67, 74
1, 37869, Note_on_c, 0, 84, 0
1, 37871, Note_on_c, 1, 67, 0
1, 37872, Note_on_c, 0, 75, 83
1, 37872, Note_on_c, 1, 57, 74
1, 37887, Note_on_c, 1, 57, 0
1, 37888, Note_on_c, 1, 63, 74
1, 37903, Note_on_c, 1, 63, 0
1, 37904, Note_on_c, 1, 67, 74
1, 37917, Note_on_c, 0, 75, 0
1, 37919, Note_on_c, 1, 67, 0
1, 37920, Note_on_c, 1, 57, 74
1, 37935, Note_on_c, 1, 57, 0
1, 37936, Note_on_c, 1, 63, 74
1, 37944, Note_on_c, 0, 75, 83
1, 37951, Note_on_c, 1, 63, 0
1, 37952, Note_on_c, 1, 67, 74
1, 37967, Note_on_c, 0, 75, 0
1, 37967, Note_on_c, 1, 67, 0
1, 37968, Note_on_c, 0, 77, 83
1, 37968, Note_on_c, 1, 57, 74
1, 37976, Note_on_c, 0, 77, 0
1, 37976, Note_on_c, 0, 75, 83
1, 37983, Note_on_c, 1, 57, 0
1, 37984, Note_on_c, 0, 75, 0
1, 37984, Note_on_c, 0, 77, 83
1, 37984, Note_on_c, 1, 63, 74
1, 37992, Note_on_c, 0, 77, 0
1, 37992, Note_on_c, 0, 75, 83
1, 37999, Note_on_c, 1, 63, 0
1, 38000, Note_on_c, 0, 75, 0
1, 38000, Note_on_c, 0, 74, 83
1, 38000, Note_on_c, 1, 67, 74
1, 38008, Note_on_c, 0, 74, 0
1, 38008, Note_on_c, 0, 75, 83
1, 38015, Note_on_c, 1, 67, 0
1, 38016, Note_on_c, 0, 75, 0
1, 38016, Note_on_c, 0, 70, 79
1, 38016, Note_on_c, 1, 58, 74
1, 38031, Note_on_c, 0, 70, 0
1, 38031, Note_on_c, 1, 58, 0
1, 38032, Note_on_c, 0, 75, 79
1, 38032, Note_on_c, 1, 63, 74
1, 38047, Note_on_c, 0, 75, 0
1, 38047, Note_on_c, 1, 63, 0
1, 38048, Note_on_c, 0, 79, 79
1, 38048, Note_on_c, 1, 67, 74
1, 38063, Note_on_c, 0, 79, 0
1, 38063, Note_on_c, 1, 67, 0
1, 38064, Note_on_c, 0, 70, 79
1, 38064, Note_on_c, 1, 58, 75
1, 38079, Note_on_c, 0, 70, 0
1, 38079, Note_on_c, 1, 58, 0
1, 38080, Note_on_c, 0, 75, 80
1, 38080, Note_on_c, 1, 63, 75
1, 38095, Note_on_c, 0, 75, 0
1, 38095, Note_on_c, 1, 63, 0
1, 38096, Note_on_c, 0, 79, 80
1, 38096, Note_on_c, 1, 67, 76
1, 38111, Note_on_c, 0, 79, 0
1, 38111, Note_on_c, 1, 67, 0
1, 38112, Note_on_c, 0, 71, 80
1, 38112, Note_on_c, 1, 59, 76
1, 38127, Note_on_c, 0, 71, 0
1, 38127, Note_on_c, 1, 59, 0
1, 38128, Note_on_c, 0, 75, 80
1, 38128, Note_on_c, 1, 63, 76
1, 38143, Note_on_c, 0, 75, 0
1, 38143, Note_on_c, 1, 63, 0
1, 38144, Note_on_c, 0, 79, 81
1, 38144, Note_on_c, 1, 67, 77
1, 38159, Note_on_c, 0, 79, 0
1, 38159, Note_on_c, 1, 67, 0
1, 38160, Note_on_c, 0, 71, 81
1, 38160, Note_on_c, 1, 59, 77
1, 38175, Note_on_c, 0, 71, 0
1, 38175, Note_on_c, 1, 59, 0
1, 38176, Note_on_c, 0, 75, 81
1, 38176, Note_on_c, 1, 63, 78
1, 38191, Note_on_c, 0, 75, 0
1, 38191, Note_on_c, 1, 63, 0
1, 38192, Note_on_c, 0, 79, 82
1, 38192, Note_on_c, 1, 67, 78
1, 38207, Note_on_c, 0, 79, 0
1, 38207, Note_on_c, 1, 67, 0
1, 38208, Note_on_c, 0, 72, 82
1, 38208, Note_on_c, 1, 60, 79
1, 38223, Note_on_c, 0, 72, 0
1, 38223, Note_on_c, 1, 60, 0
1, 38224, Note_on_c, 0, 75, 82
1, 38224, Note_on_c, 1, 63, 79
1, 38239, Note_on_c, 0, 75, 0
1, 38239, Note_on_c, 1, 63, 0
1, 38240, Note_on_c, 0, 79, 82
1, 38240, Note_on_c, 1, 67, 79
1, 38255, Note_on_c, 0, 79, 0
1, 38255, Note_on_c, 1, 67, 0
1, 38256, Note_on_c, 0, 72, 83
1, 38256, Note_on_c, 1, 60, 80
1, 38271, Note_on_c, 0, 72, 0
1, 38271, Note_on_c, 1, 60, 0
1, 38272, Note_on_c, 0, 75, 83
1, 38272, Note_on_c, 1, 63, 80
1, 38287, Note_on_c, 0, 75, 0
1, 38287, Note_on_c, 1, 63, 0
1, 38288, Note_on_c, 0, 79, 83
1, 38288, Note_on_c, 1, 67, 81
1, 38303, Note_on_c, 0, 79, 0
1, 38303, Note_on_c, 1, 67, 0
1, 38304, Note_on_c, 0, 73, 83
1, 38304, Note_on_c, 1, 61, 81
1, 38319, Note_on_c, 0, 73, 0
1, 38319, Note_on_c, 1, 61, 0
1, 38320, Note_on_c, 0, 76, 84
1, 38320, Note_on_c, 1, 64, 82
1, 38335, Note_on_c, 0, 76, 0
1, 38335, Note_on_c, 1, 64, 0
1, 38336, Note_on_c, 0, 79, 84
1, 38336, Note_on_c, 1, 67, 82
1, 38351, Note_on_c, 0, 79, 0
1, 38351, Note_on_c, 1, 67, 0
1, 38352, Note_on_c, 0, 73, 84
1, 38352, Note_on_c, 1, 61, 82
1, 38367, Note_on_c, 0, 73, 0
1, 38367, Note_on_c, 1, 61, 0
1, 38368, Note_on_c, 0, 76, 85
1, 38368, Note_on_c, 1, 64, 83
1, 38383, Note_on_c, 0, 76, 0
1, 38383, Note_on_c, 1, 64, 0
1, 38384, Note_on_c, 0, 79, 85
1, 38384, Note_on_c, 1, 67, 83
1, 38399, Note_on_c, 0, 79, 0
1, 38399, Note_on_c, 1, 67, 0
1, 38400, Note_on_c, 0, 74, 85
1, 38400, Note_on_c, 1, 62, 84
1, 38415, Note_on_c, 0, 74, 0
1, 38415, Note_on_c, 1, 62, 0
1, 38416, Note_on_c, 0, 79, 88
1, 38416, Note_on_c, 1, 67, 88
1, 38431, Note_on_c, 0, 79, 0
1, 38431, Note_on_c, 1, 67, 0
1, 38432, Note_on_c, 0, 82, 88
1, 38432, Note_on_c, 1, 70, 88
1, 38447, Note_on_c, 0, 82, 0
1, 38447, Note_on_c, 1, 70, 0
1, 38448, Note_on_c, 0, 86, 88
1, 38448, Note_on_c, 1, 74, 88
1, 38463, Note_on_c, 0, 86, 0
1, 38463, Note_on_c, 1, 74, 0
1, 38464, Note_on_c, 0, 82, 88
1, 38464, Note_on_c, 1, 70, 88
1, 38479, Note_on_c, 0, 82, 0
1, 38479, Note_on_c, 1, 70, 0
1, 38480, Note_on_c, 0, 79, 88
1, 38480, Note_on_c, 1, 67, 88
1, 38495, Note_on_c, 0, 79, 0
1, 38495, Note_on_c, 1, 67, 0
1, 38496, Note_on_c, 0, 74, 88
1, 38496, Note_on_c, 1, 62, 88
1, 38511, Note_on_c, 0, 74, 0
1, 38511, Note_on_c, 1, 62, 0
1, 38512, Note_on_c, 0, 79, 88
1, 38512, Note_on_c, 1, 67, 88
1, 38527, Note_on_c, 0, 79, 0
1, 38527, Note_on_c, 1, 67, 0
1, 38528, Note_on_c, 0, 82, 88
1, 38528, Note_on_c, 1, 70, 88
1, 38543, Note_on_c, 0, 82, 0
1, 38543, Note_on_c, 1, 70, 0
1, 38544, Note_on_c, 0, 86, 88
1, 38544, Note_on_c, 1, 74, 88
1, 38559, Note_on_c, 0, 86, 0
1, 38559, Note_on_c, 1, 74, 0
1, 38560, Note_on_c, 0, 82, 88
1, 38560, Note_on_c, 1, 70, 88
1, 38575, Note_on_c, 0, 82, 0
1, 38575, Note_on_c, 1, 70, 0
1, 38576, Note_on_c, 0, 79, 88
1, 38576, Note_on_c, 1, 67, 88
1, 38591, Note_on_c, 0, 79, 0
1, 38591, Note_on_c, 1, 67, 0
1, 38592, Note_on_c, 0, 74, 88
1, 38592, Note_on_c, 1, 62, 88
1, 38607, Note_on_c, 0, 74, 0
1, 38607, Note_on_c, 1, 62, 0
1, 38608, Note_on_c, 0, 78, 88
1, 38608, Note_on_c, 1, 66, 88
1, 38623, Note_on_c, 0, 78, 0
1, 38623, Note_on_c, 1, 66, 0
1, 38624, Note_on_c, 0, 81, 88
1, 38624, Note_on_c, 1, 69, 88
1, 38639, Note_on_c, 0, 81, 0
1, 38639, Note_on_c, 1, 69, 0
1, 38640, Note_on_c, 0, 84, 88
1, 38640, Note_on_c, 1, 72, 88
1, 38655, Note_on_c, 0, 84, 0
1, 38655, Note_on_c, 1, 72, 0
1, 38656, Note_on_c, 0, 81, 88
1, 38656, Note_on_c, 1, 69, 88
1, 38671, Note_on_c, 0, 81, 0
1, 38671, Note_on_c, 1, 69, 0
1, 38672, Note_on_c, 0, 78, 88
1, 38672, Note_on_c, 1, 66, 88
1, 38687, Note_on_c, 0, 78, 0
1, 38687, Note_on_c, 1, 66, 0
1, 38688, Note_on_c, 0, 74, 88
1, 38688, Note_on_c, 1, 62, 88
1, 38703, Note_on_c, 0, 74, 0
1, 38703, Note_on_c, 1, 62, 0
1, 38704, Note_on_c, 0, 78, 88
1, 38704, Note_on_c, 1, 66, 88
1, 38719, Note_on_c, 0, 78, 0
1, 38719, Note_on_c, 1, 66, 0
1, 38720, Note_on_c, 0, 81, 88
1, 38720, Note_on_c, 1, 69, 88
1, 38735, Note_on_c, 0, 81, 0
1, 38735, Note_on_c, 1, 69, 0
1, 38736, Note_on_c, 0, 84, 88
1, 38736, Note_on_c, 1, 72, 88
1, 38751, Note_on_c, 0, 84, 0
1, 38751, Note_on_c, 1, 72, 0
1, 38752, Note_on_c, 0, 81, 88
1, 38752, Note_on_c, 1, 69, 88
1, 38767, Note_on_c, 0, 81, 0
1, 38767, Note_on_c, 1, 69, 0
1, 38768, Note_on_c, 0, 78, 88
1, 38768, Note_on_c, 1, 66, 88
1, 38783, Note_on_c, 0, 78, 0
1, 38783, Note_on_c, 1, 66, 0
1, 38784, Note_on_c, 0, 79, 88
1, 38784, Note_on_c, 1, 67, 88
1, 38799, Note_on_c, 0, 79, 0
1, 38800, Note_on_c, 0, 82, 88
1, 38815, Note_on_c, 0, 82, 0
1, 38816, Note_on_c, 0, 81, 88
1, 38831, Note_on_c, 0, 81, 0
1, 38832, Note_on_c, 0, 79, 88
1, 38847, Note_on_c, 0, 79, 0
1, 38848, Note_on_c, 0, 77, 88
1, 38863, Note_on_c, 0, 77, 0
1, 38864, Note_on_c, 0, 75, 88
1, 38873, Note_on_c, 1, 67, 0
1, 38879, Note_on_c, 0, 75, 0
1, 38880, Note_on_c, 0, 74, 88
1, 38895, Note_on_c, 0, 74, 0
1, 38896, Note_on_c, 0, 72, 88
1, 38911, Note_on_c, 0, 72, 0
1, 38912, Note_on_c, 0, 70, 88
1, 38927, Note_on_c, 0, 70, 0
1, 38928, Note_on_c, 0, 69, 88
1, 38943, Note_on_c, 0, 69, 0
1, 38944, Note_on_c, 0, 67, 88
1, 38959, Note_on_c, 0, 67, 0
1, 38960, Note_on_c, 0, 65, 88
1, 38975, Note_on_c, 0, 65, 0
1, 38976, Note_on_c, 0, 63, 88
1, 38976, Note_on_c, 1, 51, 88
1, 38976, Note_on_c, 1, 39, 88
1, 38991, Note_on_c, 0, 63, 0
1, 38992, Note_on_c, 0, 67, 88
1, 39007, Note_on_c, 0, 67, 0
1, 39008, Note_on_c, 0, 70, 88
1, 39023, Note_on_c, 0, 70, 0
1, 39024, Note_on_c, 0, 63, 88
1, 39039, Note_on_c, 0, 63, 0
1, 39040, Note_on_c, 0, 67, 88
1, 39055, Note_on_c, 0, 67, 0
1, 39056, Note_on_c, 0, 70, 88
1, 39071, Note_on_c, 0, 70, 0
1, 39072, Note_on_c, 0, 62, 88
1, 39072, Note_on_c, 1, 51, 0
1, 39072, Note_on_c, 1, 39, 0
1, 39072, Note_on_c, 1, 50, 88
1, 39072, Note_on_c, 1, 38, 88
1, 39087, Note_on_c, 0, 62, 0
1, 39088, Note_on_c, 0, 67, 88
1, 39103, Note_on_c, 0, 67, 0
1, 39104, Note_on_c, 0, 70, 88
1, 39119, Note_on_c, 0, 70, 0
1, 39120, Note_on_c, 0, 62, 88
1, 39135, Note_on_c, 0, 62, 0
1, 39136, Note_on_c, 0, 67, 88
1, 39151, Note_on_c, 0, 67, 0
1, 39152, Note_on_c, 0, 70, 88
1, 39161, Note_on_c, 1, 50, 0
1, 39161, Note_on_c, 1, 38, 0
1, 39167, Note_on_c, 0, 70, 0
1, 39168, Note_on_c, 0, 61, 88
1, 39168, Note_on_c, 1, 49, 88
1, 39168, Note_on_c, 1, 37, 88
1, 39183, Note_on_c, 0, 61, 0
1, 39184, Note_on_c, 0, 67, 88
1, 39199, Note_on_c, 0, 67, 0
1, 39200, Note_on_c, 0, 70, 88
1, 39215, Note_on_c, 0, 70, 0
1, 39216, Note_on_c, 0, 61, 88
1, 39231, Note_on_c, 0, 61, 0
1, 39232, Note_on_c, 0, 67, 88
1, 39247, Note_on_c, 0, 67, 0
1, 39248, Note_on_c, 0, 70, 88
1, 39263, Note_on_c, 0, 70, 0
1, 39264, Note_on_c, 0, 61, 88
1, 39279, Note_on_c, 0, 61, 0
1, 39280, Note_on_c, 0, 67, 88
1, 39295, Note_on_c, 0, 67, 0
1, 39296, Note_on_c, 0, 70, 88
1, 39311, Note_on_c, 0, 70, 0
1, 39312, Note_on_c, 0, 61, 88
1, 39327, Note_on_c, 0, 61, 0
1, 39328, Note_on_c, 0, 67, 88
1, 39343, Note_on_c, 0, 67, 0
1, 39344, Note_on_c, 0, 70, 88
1, 39345, Note_on_c, 1, 49, 0
1, 39345, Note_on_c, 1, 37, 0
1, 39359, Note_on_c, 0, 70, 0
1, 39360, Note_on_c, 0, 62, 88
1, 39360, Note_on_c, 1, 50, 88
1, 39360, Note_on_c, 1, 38, 88
1, 39375, Note_on_c, 0, 62, 0
1, 39376, Note_on_c, 0, 67, 88
1, 39391, Note_on_c, 0, 67, 0
1, 39392, Note_on_c, 0, 70, 88
1, 39407, Note_on_c, 0, 70, 0
1, 39408, Note_on_c, 0, 74, 88
1, 39423, Note_on_c, 0, 74, 0
1, 39424, Note_on_c, 0, 70, 88
1, 39439, Note_on_c, 0, 70, 0
1, 39440, Note_on_c, 0, 67, 88
1, 39449, Note_on_c, 1, 50, 0
1, 39449, Note_on_c, 1, 38, 0
1, 39455, Note_on_c, 0, 67, 0
1, 39456, Note_on_c, 0, 62, 88
1, 39476, Note_on_c, 0, 62, 0
1, 39504, Note_on_c, 0, 66, 88
1, 39504, Note_on_c, 0, 60, 88
1, 39524, Note_on_c, 0, 66, 0
1, 39524, Note_on_c, 0, 60, 0
1, 39552, Note_on_c, 1, 43, 88
1, 39552, Note_on_c, 1, 31, 88
1, 39641, Note_on_c, 1, 43, 0
1, 39641, Note_on_c, 1, 31, 0
1, 39648, Note_on_c, 0, 79, 74
1, 39671, Note_on_c, 0, 79, 0
1, 39672, Note_on_c, 0, 78, 75
1, 39695, Note_on_c, 0, 78, 0
1, 39696, Note_on_c, 0, 81, 76
1, 39719, Note_on_c, 0, 81, 0
1, 39720, Note_on_c, 0, 79, 77
1, 39743, Note_on_c, 0, 79, 0
1, 39744, Note_on_c, 0, 82, 79
1, 39767, Note_on_c, 0, 82, 0
1, 39768, Note_on_c, 0, 81, 77
1, 39791, Note_on_c, 0, 81, 0
1, 39792, Note_on_c, 0, 79, 76
1, 39815, Note_on_c, 0, 79, 0
1, 39816, Note_on_c, 0, 77, 75
1, 39839, Note_on_c, 0, 77, 0
1, 39840, Note_on_c, 0, 75, 74
1, 39885, Note_on_c, 0, 75, 0
1, 39888, Note_on_c, 0, 74, 74
1, 39933, Note_on_c, 0, 74, 0
1, 39936, Note_on_c, 0, 74, 74
1, 40032, Note_on_c, 0, 74, 0
1, 40032, Note_on_c, 0, 73, 83
1, 40032, Note_on_c, 1, 67, 79
1, 40032, Note_on_c, 1, 64, 79
1, 40032, Note_on_c, 1, 57, 79
1, 40055, Note_on_c, 0, 73, 0
1, 40056, Note_on_c, 0, 69, 83
1, 40079, Note_on_c, 0, 69, 0
1, 40080, Note_on_c, 0, 70, 83
1, 40092, Note_on_c, 0, 70, 0
1, 40092, Note_on_c, 0, 69, 83
1, 40104, Note_on_c, 0, 69, 0
1, 40104, Note_on_c, 0, 68, 83
1, 40116, Note_on_c, 0, 68, 0
1, 40116, Note_on_c, 0, 69, 83
1, 40121, Note_on_c, 1, 67, 0
1, 40121, Note_on_c, 1, 64, 0
1, 40121, Note_on_c, 1, 57, 0
1, 40128, Note_on_c, 0, 69, 0
1, 40128, Note_on_c, 0, 74, 83
1, 40128, Note_on_c, 1, 65, 79
1, 40128, Note_on_c, 1, 62, 79
1, 40128, Note_on_c, 1, 57, 79
1, 40151, Note_on_c, 0, 74, 0
1, 40152, Note_on_c, 0, 69, 83
1, 40175, Note_on_c, 0, 69, 0
1, 40176, Note_on_c, 0, 70, 83
1, 40188, Note_on_c, 0, 70, 0
1, 40188, Note_on_c, 0, 69, 83
1, 40200, Note_on_c, 0, 69, 0
1, 40200, Note_on_c, 0, 68, 83
1, 40212, Note_on_c, 0, 68, 0
1, 40212, Note_on_c, 0, 69, 83
1, 40217, Note_on_c, 1, 65, 0
1, 40217, Note_on_c, 1, 62, 0
1, 40217, Note_on_c, 1, 57, 0
1, 40224, Note_on_c, 0, 69, 0
1, 40224, Note_on_c, 0, 76, 83
1, 40224, Note_on_c, 1, 67, 79
1, 40224, Note_on_c, 1, 61, 79
1, 40224, Note_on_c, 1, 57, 79
1, 40247, Note_on_c, 0, 76, 0
1, 40248, Note_on_c, 0, 69, 83
1, 40271, Note_on_c, 0, 69, 0
1, 40272, Note_on_c, 0, 70, 83
1, 40284, Note_on_c, 0, 70, 0
1, 40284, Note_on_c, 0, 69, 83
1, 40296, Note_on_c, 0, 69, 0
1, 40296, Note_on_c, 0, 68, 83
1, 40308, Note_on_c, 0, 68, 0
1, 40308, Note_on_c, 0, 69, 83
1, 40313, Note_on_c, 1, 67, 0
1, 40313, Note_on_c, 1, 61, 0
1, 40313, Note_on_c, 1, 57, 0
1, 40320, Note_on_c, 0, 69, 0
1, 40320, Note_on_c, 0, 77, 83
1, 40320, Note_on_c, 1, 65, 79
1, 40320, Note_on_c, 1, 62, 79
1, 40365, Note_on_c, 0, 77, 0
1, 40365, Note_on_c, 1, 65, 0
1, 40365, Note_on_c, 1, 62, 0
1, 40416, Note_on_c, 0, 77, 74
1, 40439, Note_on_c, 0, 77, 0
1, 40440, Note_on_c, 0, 76, 74
1, 40463, Note_on_c, 0, 76, 0
1, 40464, Note_on_c, 0, 79, 75
1, 40487, Note_on_c, 0, 79, 0
1, 40488, Note_on_c, 0, 77, 77
1, 40511, Note_on_c, 0, 77, 0
1, 40512, Note_on_c, 0, 80, 79
1, 40535, Note_on_c, 0, 80, 0
1, 40536, Note_on_c, 0, 79, 77
1, 40559, Note_on_c, 0, 79, 0
1, 40560, Note_on_c, 0, 77, 76
1, 40583, Note_on_c, 0, 77, 0
1, 40584, Note_on_c, 0, 75, 75
1, 40607, Note_on_c, 0, 75, 0
1, 40608, Note_on_c, 0, 74, 74
1, 40653, Note_on_c, 0, 74, 0
1, 40656, Note_on_c, 0, 72, 74
1, 40701, Note_on_c, 0, 72, 0
1, 40704, Note_on_c, 0, 72, 74
1, 40800, Note_on_c, 0, 72, 0
1, 40800, Note_on_c, 0, 71, 83
1, 40800, Note_on_c, 1, 65, 79
1, 40800, Note_on_c, 1, 62, 79
1, 40800, Note_on_c, 1, 55, 79
1, 40823, Note_on_c, 0, 71, 0
1, 40824, Note_on_c, 0, 67, 83
1, 40847, Note_on_c, 0, 67, 0
1, 40848, Note_on_c, 0, 68, 83
1, 40860, Note_on_c, 0, 68, 0
1, 40860, Note_on_c, 0, 67, 83
1, 40872, Note_on_c, 0, 67, 0
1, 40872, Note_on_c, 0, 66, 83
1, 40884, Note_on_c, 0, 66, 0
1, 40884, Note_on_c, 0, 67, 83
1, 40889, Note_on_c, 1, 65, 0
1, 40889, Note_on_c, 1, 62, 0
1, 40889, Note_on_c, 1, 55, 0
1, 40896, Note_on_c, 0, 67, 0
1, 40896, Note_on_c, 0, 72, 83
1, 40896, Note_on_c, 1, 63, 79
1, 40896, Note_on_c, 1, 60, 79
1, 40896, Note_on_c, 1, 55, 79
1, 40919, Note_on_c, 0, 72, 0
1, 40920, Note_on_c, 0, 67, 83
1, 40943, Note_on_c, 0, 67, 0
1, 40944, Note_on_c, 0, 68, 83
1, 40956, Note_on_c, 0, 68, 0
1, 40956, Note_on_c, 0, 67, 83
1, 40968, Note_on_c, 0, 67, 0
1, 40968, Note_on_c, 0, 66, 83
1, 40980, Note_on_c, 0, 66, 0
1, 40980, Note_on_c, 0, 67, 83
1, 40985, Note_on_c, 1, 63, 0
1, 40985, Note_on_c, 1, 60, 0
1, 40985, Note_on_c, 1, 55, 0
1, 40992, Note_on_c, 0, 67, 0
1, 40992, Note_on_c, 0, 74, 83
1, 40992, Note_on_c, 1, 65, 79
1, 40992, Note_on_c, 1, 59, 79
1, 40992, Note_on_c, 1, 55, 79
1, 41015, Note_on_c, 0, 74, 0
1, 41016, Note_on_c, 0, 67, 83
1, 41039, Note_on_c, 0, 67, 0
1, 41040, Note_on_c, 0, 68, 83
1, 41052, Note_on_c, 0, 68, 0
1, 41052, Note_on_c, 0, 67, 83
1, 41064, Note_on_c, 0, 67, 0
1, 41064, Note_on_c, 0, 66, 83
1, 41076, Note_on_c, 0, 66, 0
1, 41076, Note_on_c, 0, 67, 83
1, 41081, Note_on_c, 1, 65, 0
1, 41081, Note_on_c, 1, 59, 0
1, 41081, Note_on_c, 1, 55, 0
1, 41088, Note_on_c, 0, 67, 0
1, 41088, Note_on_c, 0, 79, 79
1, 41088, Note_on_c, 0, 75, 79
1, 41136, Note_on_c, 1, 48, 79
1, 41184, Note_on_c, 1, 48, 0
1, 41184, Note_on_c, 1, 60, 79
1, 41204, Note_on_c, 1, 60, 0
1, 41232, Note_on_c, 0, 79, 0
1, 41232, Note_on_c, 0, 75, 0
1, 41232, Note_on_c, 0, 77, 79
1, 41232, Note_on_c, 0, 74, 79
1, 41277, Note_on_c, 0, 77, 0
1, 41277, Note_on_c, 0, 74, 0
1, 41280, Note_on_c, 0, 80, 79
1, 41280, Note_on_c, 0, 77, 79
1, 41328, Note_on_c, 1, 48, 79
1, 41376, Note_on_c, 1, 48, 0
1, 41376, Note_on_c, 1, 60, 79
1, 41396, Note_on_c, 1, 60, 0
1, 41424, Note_on_c, 0, 80, 0
1, 41424, Note_on_c, 0, 77, 0
1, 41424, Note_on_c, 0, 79, 79
1, 41424, Note_on_c, 0, 75, 79
1, 41469, Note_on_c, 0, 79, 0
1, 41469, Note_on_c, 0, 75, 0
1, 41472, Note_on_c, 0, 77, 79
1, 41472, Note_on_c, 0, 68, 79
1, 41517, Note_on_c, 0, 77, 0
1, 41517, Note_on_c, 0, 68, 0
1, 41520, Note_on_c, 0, 75, 80
1, 41520, Note_on_c, 0, 67, 80
1, 41520, Note_on_c, 1, 48, 79
1, 41565, Note_on_c, 0, 75, 0
1, 41565, Note_on_c, 0, 67, 0
1, 41565, Note_on_c, 1, 48, 0
1, 41568, Note_on_c, 0, 74, 81
1, 41568, Note_on_c, 0, 65, 81
1, 41568, Note_on_c, 1, 53, 79
1, 41613, Note_on_c, 0, 74, 0
1, 41613, Note_on_c, 0, 65, 0
1, 41613, Note_on_c, 1, 53, 0
1, 41616, Note_on_c, 0, 72, 82
1, 41616, Note_on_c, 0, 63, 82
1, 41616, Note_on_c, 1, 54, 79
1, 41661, Note_on_c, 0, 72, 0
1, 41661, Note_on_c, 0, 63, 0
1, 41661, Note_on_c, 1, 54, 0
1, 41664, Note_on_c, 0, 71, 83
1, 41664, Note_on_c, 0, 63, 64
1, 41664, Note_on_c, 1, 55, 79
1, 41670, Note_on_c, 0, 71, 0
1, 41670, Note_on_c, 0, 72, 83
1, 41676, Note_on_c, 0, 72, 0
1, 41676, Note_on_c, 0, 74, 83
1, 41682, Note_on_c, 0, 74, 0
1, 41682, Note_on_c, 0, 72, 83
1, 41753, Note_on_c, 0, 63, 0
1, 41753, Note_on_c, 1, 55, 0
1, 41760, Note_on_c, 0, 72, 0
1, 41760, Note_on_c, 0, 71, 80
1, 41760, Note_on_c, 0, 62, 64
1, 41760, Note_on_c, 1, 43, 79
1, 41780, Note_on_c, 0, 71, 0
1, 41805, Note_on_c, 0, 62, 0
1, 41805, Note_on_c, 1, 43, 0
1, 41808, Note_on_c, 0, 68, 64
1, 41808, Note_on_c, 1, 63, 79
1, 41808, Note_on_c, 1, 60, 79
1, 41853, Note_on_c, 0, 68, 0
1, 41853, Note_on_c, 1, 63, 0
1, 41853, Note_on_c, 1, 60, 0
1, 41856, Note_on_c, 0, 67, 79
1, 41856, Note_on_c, 1, 62, 79
1, 41856, Note_on_c, 1, 59, 79
1, 41862, Note_on_c, 0, 67, 0
1, 41862, Note_on_c, 0, 68, 79
1, 41868, Note_on_c, 0, 68, 0
1, 41868, Note_on_c, 0, 70, 79
1, 41874, Note_on_c, 0, 70, 0
1, 41874, Note_on_c, 0, 68, 79
1, 41952, Note_on_c, 0, 68, 0
1, 41952, Note_on_c, 0, 67, 79
1, 41972, Note_on_c, 0, 67, 0
1, 41989, Note_on_c, 1, 62, 0
1, 41989, Note_on_c, 1, 59, 0
1, 42000, Note_on_c, 0, 72, 79
1, 42000, Note_on_c, 1, 67, 79
1, 42000, Note_on_c, 1, 63, 79
1, 42045, Note_on_c, 0, 72, 0
1, 42045, Note_on_c, 1, 67, 0
1, 42045, Note_on_c, 1, 63, 0
1, 42048, Note_on_c, 0, 71, 79
1, 42048, Note_on_c, 1, 65, 79
1, 42048, Note_on_c, 1, 62, 79
1, 42054, Note_on_c, 0, 71, 0
1, 42054, Note_on_c, 0, 72, 79
1, 42060, Note_on_c, 0, 72, 0
1, 42060, Note_on_c, 0, 74, 79
1, 42066, Note_on_c, 0, 74, 0
1, 42066, Note_on_c, 0, 72, 79
1, 42144, Note_on_c, 0, 72, 0
1, 42144, Note_on_c, 0, 71, 79
1, 42154, Note_on_c, 0, 71, 0
1, 42168, Note_on_c, 0, 80, 79
1, 42181, Note_on_c, 1, 65, 0
1, 42181, Note_on_c, 1, 62, 0
1, 42191, Note_on_c, 0, 80, 0
1, 42192, Note_on_c, 0, 79, 79
1, 42192, Note_on_c, 1, 67, 79
1, 42192, Note_on_c, 1, 59, 79
1, 42215, Note_on_c, 0, 79, 0
1, 42216, Note_on_c, 0, 77, 79
1, 42239, Note_on_c, 0, 77, 0
1, 42240, Note_on_c, 0, 77, 79
1, 42240, Note_on_c, 1, 59, 0
1, 42240, Note_on_c, 1, 60, 88
1, 42263, Note_on_c, 0, 77, 0
1, 42264, Note_on_c, 0, 75, 79
1, 42285, Note_on_c, 1, 60, 0
1, 42287, Note_on_c, 0, 75, 0
1, 42288, Note_on_c, 0, 74, 80
1, 42288, Note_on_c, 1, 63, 88
1, 42294, Note_on_c, 0, 74, 0
1, 42294, Note_on_c, 0, 75, 80
1, 42300, Note_on_c, 0, 75, 0
1, 42300, Note_on_c, 0, 74, 80
1, 42311, Note_on_c, 0, 74, 0
1, 42312, Note_on_c, 0, 72, 80
1, 42329, Note_on_c, 1, 67, 0
1, 42333, Note_on_c, 1, 63, 0
1, 42335, Note_on_c, 0, 72, 0
1, 42336, Note_on_c, 0, 71, 81
1, 42336, Note_on_c, 1, 65, 79
1, 42336, Note_on_c, 1, 62, 88
1, 42381, Note_on_c, 0, 71, 0
1, 42381, Note_on_c, 1, 65, 0
1, 42381, Note_on_c, 1, 62, 0
1, 42384, Note_on_c, 0, 72, 82
1, 42384, Note_on_c, 1, 63, 79
1, 42384, Note_on_c, 1, 60, 88
1, 42429, Note_on_c, 0, 72, 0
1, 42429, Note_on_c, 1, 63, 0
1, 42429, Note_on_c, 1, 60, 0
1, 42432, Note_on_c, 0, 75, 83
1, 42432, Note_on_c, 1, 60, 79
1, 42432, Note_on_c, 1, 55, 88
1, 42499, Note_on_c, 0, 75, 0
1, 42504, Note_on_c, 0, 77, 81
1, 42516, Note_on_c, 0, 77, 0
1, 42516, Note_on_c, 0, 75, 80
1, 42528, Note_on_c, 0, 75, 0
1, 42528, Note_on_c, 0, 74, 80
1, 42528, Note_on_c, 1, 60, 0
1, 42528, Note_on_c, 1, 59, 79
1, 42565, Note_on_c, 1, 55, 0
1, 42573, Note_on_c, 0, 74, 0
1, 42573, Note_on_c, 1, 59, 0
1, 42624, Note_on_c, 1, 63, 79
1, 42624, Note_on_c, 1, 60, 79
1, 42672, Note_on_c, 0, 67, 79
1, 42720, Note_on_c, 0, 67, 0
1, 42720, Note_on_c, 0, 79, 79
1, 42740, Note_on_c, 0, 79, 0
1, 42768, Note_on_c, 1, 63, 0
1, 42768, Note_on_c, 1, 60, 0
1, 42768, Note_on_c, 1, 62, 79
1, 42768, Note_on_c, 1, 59, 79
1, 42813, Note_on_c, 1, 62, 0
1, 42813, Note_on_c, 1, 59, 0
1, 42816, Note_on_c, 1, 65, 79
1, 42816, Note_on_c, 1, 62, 79
1, 42864, Note_on_c, 0, 68, 80
1, 42912, Note_on_c, 0, 68, 0
1, 42912, Note_on_c, 0, 80, 80
1, 42932, Note_on_c, 0, 80, 0
1, 42960, Note_on_c, 1, 65, 0
1, 42960, Note_on_c, 1, 62, 0
1, 42960, Note_on_c, 1, 63, 80
1, 42960, Note_on_c, 1, 60, 80
1, 43005, Note_on_c, 1, 63, 0
1, 43005, Note_on_c, 1, 60, 0
1, 43008, Note_on_c, 1, 67, 80
1, 43008, Note_on_c, 1, 63, 80
1, 43056, Note_on_c, 0, 71, 81
1, 43104, Note_on_c, 0, 71, 0
1, 43104, Note_on_c, 0, 83, 81
1, 43124, Note_on_c, 0, 83, 0
1, 43152, Note_on_c, 1, 67, 0
1, 43152, Note_on_c, 1, 63, 0
1, 43152, Note_on_c, 1, 65, 81
1, 43152, Note_on_c, 1, 62, 81
1, 43197, Note_on_c, 1, 65, 0
1, 43197, Note_on_c, 1, 62, 0
1, 43200, Note_on_c, 1, 68, 81
1, 43200, Note_on_c, 1, 65, 81
1, 43248, Note_on_c, 0, 72, 82
1, 43296, Note_on_c, 0, 72, 0
1, 43296, Note_on_c, 0, 84, 82
1, 43316, Note_on_c, 0, 84, 0
1, 43344, Note_on_c, 1, 68, 0
1, 43344, Note_on_c, 1, 65, 0
1, 43344, Note_on_c, 1, 67, 82
1, 43344, Note_on_c, 1, 63, 82
1, 43389, Note_on_c, 1, 67, 0
1, 43389, Note_on_c, 1, 63, 0
1, 43392, Note_on_c, 1, 70, 83
1, 43392, Note_on_c, 1, 67, 83
1, 43440, Note_on_c, 0, 73, 83
1, 43488, Note_on_c, 0, 85, 83
1, 43536, Note_on_c, 0, 85, 0
1, 43536, Note_on_c, 0, 73, 0
1, 43536, Note_on_c, 0, 86, 83
1, 43536, Note_on_c, 0, 74, 83
1, 43536, Note_on_c, 1, 70, 0
1, 43536, Note_on_c, 1, 67, 0
1, 43536, Note_on_c, 1, 69, 83
1, 43536, Note_on_c, 1, 66, 83
1, 43556, Note_on_c, 0, 86, 0
1, 43556, Note_on_c, 0, 74, 0
1, 43581, Note_on_c, 1, 69, 0
1, 43581, Note_on_c, 1, 66, 0
1, 43584, Note_on_c, 0, 83, 88
1, 43584, Note_on_c, 0, 71, 88
1, 43584, Note_on_c, 1, 68, 88
1, 43584, Note_on_c, 1, 65, 88
1, 43632, Note_on_c, 0, 83, 0
1, 43632, Note_on_c, 0, 71, 0
1, 43632, Note_on_c, 0, 84, 88
1, 43632, Note_on_c, 0, 72, 88
1, 43632, Note_on_c, 1, 68, 0
1, 43632, Note_on_c, 1, 65, 0
1, 43632, Note_on_c, 1, 67, 88
1, 43632, Note_on_c, 1, 64, 88
1, 43652, Note_on_c, 0, 84, 0
1, 43652, Note_on_c, 0, 72, 0
1, 43677, Note_on_c, 1, 67, 0
1, 43677, Note_on_c, 1, 64, 0
1, 43680, Note_on_c, 0, 81, 88
1, 43680, Note_on_c, 0, 69, 88
1, 43680, Note_on_c, 1, 66, 88
1, 43680, Note_on_c, 1, 63, 88
1, 43728, Note_on_c, 0, 81, 0
1, 43728, Note_on_c, 0, 69, 0
1, 43728, Note_on_c, 0, 82, 88
1, 43728, Note_on_c, 0, 70, 88
1, 43728, Note_on_c, 1, 66, 0
1, 43728, Note_on_c, 1, 63, 0
1, 43728, Note_on_c, 1, 65, 88
1, 43728, Note_on_c, 1, 62, 88
1, 43748, Note_on_c, 0, 82, 0
1, 43748, Note_on_c, 0, 70, 0
1, 43773, Note_on_c, 1, 65, 0
1, 43773, Note_on_c, 1, 62, 0
1, 43968, Note_on_c, 1, 63, 62
1, 43968, Note_on_c, 1, 60, 62
1, 44016, Note_on_c, 0, 80, 62
1, 44016, Note_on_c, 0, 68, 62
1, 44061, Note_on_c, 0, 80, 0
1, 44061, Note_on_c, 0, 68, 0
1, 44064, Note_on_c, 0, 79, 62
1, 44064, Note_on_c, 0, 67, 62
1, 44109, Note_on_c, 0, 79, 0
1, 44109, Note_on_c, 0, 67, 0
1, 44112, Note_on_c, 0, 78, 62
1, 44112, Note_on_c, 0, 66, 62
1, 44145, Note_on_c, 1, 63, 0
1, 44145, Note_on_c, 1, 60, 0
1, 44157, Note_on_c, 0, 78, 0
1, 44157, Note_on_c, 0, 66, 0
1, 44160, Note_on_c, 0, 78, 62
1, 44160, Note_on_c, 0, 66, 64
1, 44160, Note_on_c, 1, 62, 62
1, 44160, Note_on_c, 1, 59, 62
1, 44300, Note_on_c, 0, 78, 0
1, 44304, Note_on_c, 0, 80, 62
1, 44327, Note_on_c, 0, 80, 0
1, 44328, Note_on_c, 0, 79, 62
1, 44351, Note_on_c, 0, 79, 0
1, 44352, Note_on_c, 0, 79, 62
1, 44352, Note_on_c, 0, 66, 0
1, 44352, Note_on_c, 0, 67, 64
1, 44372, Note_on_c, 0, 79, 0
1, 44372, Note_on_c, 0, 67, 0
1, 44397, Note_on_c, 1, 62, 0
1, 44397, Note_on_c, 1, 59, 0
1, 44400, Note_on_c, 0, 67, 79
1, 44445, Note_on_c, 0, 67, 0
1, 44448, Note_on_c, 0, 71, 79
1, 44493, Note_on_c, 0, 71, 0
1, 44496, Note_on_c, 0, 74, 79
1, 44541, Note_on_c, 0, 74, 0
1, 44544, Note_on_c, 0, 77, 79
1, 44544, Note_on_c, 0, 74, 79
1, 44592, Note_on_c, 1, 43, 79
1, 44637, Note_on_c, 1, 43, 0
1, 44640, Note_on_c, 1, 47, 79
1, 44685, Note_on_c, 1, 47, 0
1, 44688, Note_on_c, 1, 50, 79
1, 44733, Note_on_c, 1, 50, 0
1, 44736, Note_on_c, 1, 55, 79
1, 44775, Note_on_c, 1, 55, 0
1, 44781, Note_on_c, 0, 77, 0
1, 44781, Note_on_c, 0, 74, 0
1, 44784, Note_on_c, 0, 77, 79
1, 44784, Note_on_c, 0, 74, 79
1, 44829, Note_on_c, 0, 77, 0
1, 44829, Note_on_c, 0, 74, 0
1, 44832, Note_on_c, 0, 79, 79
1, 44832, Note_on_c, 0, 75, 79
1, 44855, Note_on_c, 0, 79, 0
1, 44855, Note_on_c, 0, 75, 0
1, 44856, Note_on_c, 0, 77, 79
1, 44856, Note_on_c, 0, 74, 79
1, 44879, Note_on_c, 0, 77, 0
1, 44879, Note_on_c, 0, 74, 0
1, 44880, Note_on_c, 0, 75, 79
1, 44880, Note_on_c, 0, 72, 79
1, 44903, Note_on_c, 0, 75, 0
1, 44903, Note_on_c, 0, 72, 0
1, 44904, Note_on_c, 0, 74, 79
1, 44904, Note_on_c, 0, 71, 79
1, 44927, Note_on_c, 0, 74, 0
1, 44927, Note_on_c, 0, 71, 0
1, 44928, Note_on_c, 0, 74, 95
1, 44928, Note_on_c, 0, 71, 95
1, 44976, Note_on_c, 1, 43, 79
1, 45021, Note_on_c, 1, 43, 0
1, 45024, Note_on_c, 0, 74, 0
1, 45024, Note_on_c, 0, 71, 0
1, 45024, Note_on_c, 0, 75, 79
1, 45024, Note_on_c, 0, 72, 79
1, 45024, Note_on_c, 1, 48, 79
1, 45069, Note_on_c, 1, 48, 0
1, 45072, Note_on_c, 1, 51, 79
1, 45117, Note_on_c, 1, 51, 0
1, 45120, Note_on_c, 1, 55, 79
1, 45159, Note_on_c, 1, 55, 0
1, 45165, Note_on_c, 0, 75, 0
1, 45165, Note_on_c, 0, 72, 0
1, 45168, Note_on_c, 0, 79, 79
1, 45168, Note_on_c, 0, 75, 79
1, 45213, Note_on_c, 0, 79, 0
1, 45213, Note_on_c, 0, 75, 0
1, 45216, Note_on_c, 0, 80, 79
1, 45216, Note_on_c, 0, 77, 79
1, 45239, Note_on_c, 0, 80, 0
1, 45239, Note_on_c, 0, 77, 0
1, 45240, Note_on_c, 0, 79, 79
1, 45240, Note_on_c, 0, 75, 79
1, 45263, Note_on_c, 0, 79, 0
1, 45263, Note_on_c, 0, 75, 0
1, 45264, Note_on_c, 0, 77, 79
1, 45264, Note_on_c, 0, 74, 79
1, 45287, Note_on_c, 0, 77, 0
1, 45287, Note_on_c, 0, 74, 0
1, 45288, Note_on_c, 0, 75, 79
1, 45288, Note_on_c, 0, 72, 79
1, 45311, Note_on_c, 0, 75, 0
1, 45311, Note_on_c, 0, 72, 0
1, 45312, Note_on_c, 0, 76, 95
1, 45312, Note_on_c, 0, 73, 95
1, 45360, Note_on_c, 1, 43, 79
1, 45405, Note_on_c, 1, 43, 0
1, 45408, Note_on_c, 0, 76, 0
1, 45408, Note_on_c, 0, 73, 0
1, 45408, Note_on_c, 0, 77, 79
1, 45408, Note_on_c, 0, 74, 79
1, 45408, Note_on_c, 1, 47, 79
1, 45431, Note_on_c, 1, 47, 0
1, 45432, Note_on_c, 1, 43, 79
1, 45455, Note_on_c, 1, 43, 0
1, 45456, Note_on_c, 1, 50, 79
1, 45479, Note_on_c, 1, 50, 0
1, 45480, Note_on_c, 1, 47, 79
1, 45503, Note_on_c, 1, 47, 0
1, 45504, Note_on_c, 1, 55, 79
1, 45543, Note_on_c, 1, 55, 0
1, 45549, Note_on_c, 0, 77, 0
1, 45549, Note_on_c, 0, 74, 0
1, 45552, Note_on_c, 0, 77, 79
1, 45552, Note_on_c, 0, 74, 79
1, 45597, Note_on_c, 0, 77, 0
1, 45597, Note_on_c, 0, 74, 0
1, 45600, Note_on_c, 0, 79, 79
1, 45600, Note_on_c, 0, 75, 79
1, 45623, Note_on_c, 0, 79, 0
1, 45623, Note_on_c, 0, 75, 0
1, 45624, Note_on_c, 0, 77, 79
1, 45624, Note_on_c, 0, 74, 79
1, 45647, Note_on_c, 0, 77, 0
1, 45647, Note_on_c, 0, 74, 0
1, 45648, Note_on_c, 0, 75, 79
1, 45648, Note_on_c, 0, 72, 79
1, 45671, Note_on_c, 0, 75, 0
1, 45671, Note_on_c, 0, 72, 0
1, 45672, Note_on_c, 0, 74, 79
1, 45672, Note_on_c, 0, 71, 79
1, 45695, Note_on_c, 0, 74, 0
1, 45695, Note_on_c, 0, 71, 0
1, 45696, Note_on_c, 0, 75, 68
1, 45696, Note_on_c, 0, 72, 68
1, 45744, Note_on_c, 1, 60, 70
1, 45767, Note_on_c, 1, 60, 0
1, 45768, Note_on_c, 1, 48, 72
1, 45790, Note_on_c, 0, 75, 0
1, 45790, Note_on_c, 0, 72, 0
1, 45791, Note_on_c, 1, 48, 0
1, 45792, Note_on_c, 0, 76, 73
1, 45792, Note_on_c, 0, 73, 73
1, 45840, Note_on_c, 1, 58, 76
1, 45863, Note_on_c, 1, 58, 0
1, 45864, Note_on_c, 1, 46, 78
1, 45886, Note_on_c, 0, 76, 0
1, 45886, Note_on_c, 0, 73, 0
1, 45887, Note_on_c, 1, 46, 0
1, 45888, Note_on_c, 0, 77, 78
1, 45888, Note_on_c, 0, 72, 78
1, 45936, Note_on_c, 1, 57, 82
1, 45959, Note_on_c, 1, 57, 0
1, 45960, Note_on_c, 1, 45, 83
1, 45982, Note_on_c, 0, 77, 0
1, 45982, Note_on_c, 0, 72, 0
1, 45983, Note_on_c, 1, 45, 0
1, 45984, Note_on_c, 0, 78, 83
1, 45984, Note_on_c, 0, 72, 83
1, 46032, Note_on_c, 1, 56, 88
1, 46055, Note_on_c, 1, 56, 0
1, 46056, Note_on_c, 1, 44, 88
1, 46078, Note_on_c, 0, 78, 0
1, 46078, Note_on_c, 0, 72, 0
1, 46079, Note_on_c, 1, 44, 0
1, 46080, Note_on_c, 1, 43, 83
1, 46103, Note_on_c, 1, 43, 0
1, 46104, Note_on_c, 1, 55, 83
1, 46127, Note_on_c, 1, 55, 0
1, 46128, Note_on_c, 0, 71, 83
1, 46151, Note_on_c, 0, 71, 0
1, 46152, Note_on_c, 0, 79, 83
1, 46175, Note_on_c, 0, 79, 0
1, 46176, Note_on_c, 0, 77, 83
1, 46199, Note_on_c, 0, 77, 0
1, 46200, Note_on_c, 0, 75, 83
1, 46223, Note_on_c, 0, 75, 0
1, 46224, Note_on_c, 0, 74, 83
1, 46247, Note_on_c, 0, 74, 0
1, 46248, Note_on_c, 0, 72, 83
1, 46271, Note_on_c, 0, 72, 0
1, 46272, Note_on_c, 0, 71, 83
1, 46295, Note_on_c, 0, 71, 0
1, 46296, Note_on_c, 0, 68, 83
1, 46319, Note_on_c, 0, 68, 0
1, 46320, Note_on_c, 0, 67, 83
1, 46343, Note_on_c, 0, 67, 0
1, 46344, Note_on_c, 0, 65, 83
1, 46367, Note_on_c, 0, 65, 0
1, 46368, Note_on_c, 0, 63, 83
1, 46391, Note_on_c, 0, 63, 0
1, 46392, Note_on_c, 0, 62, 83
1, 46415, Note_on_c, 0, 62, 0
1, 46416, Note_on_c, 0, 60, 83
1, 46439, Note_on_c, 0, 60, 0
1, 46440, Note_on_c, 0, 59, 83
1, 46463, Note_on_c, 0, 59, 0
1, 46464, Note_on_c, 1, 56, 83
1, 46487, Note_on_c, 1, 56, 0
1, 46488, Note_on_c, 1, 55, 83
1, 46511, Note_on_c, 1, 55, 0
1, 46512, Note_on_c, 1, 53, 83
1, 46535, Note_on_c, 1, 53, 0
1, 46536, Note_on_c, 0, 80, 83
1, 46559, Note_on_c, 0, 80, 0
1, 46560, Note_on_c, 0, 79, 80
1, 46583, Note_on_c, 0, 79, 0
1, 46584, Note_on_c, 0, 77, 78
1, 46607, Note_on_c, 0, 77, 0
1, 46608, Note_on_c, 0, 75, 75
1, 46631, Note_on_c, 0, 75, 0
1, 46632, Note_on_c, 0, 74, 73
1, 46655, Note_on_c, 0, 74, 0
1, 46656, Note_on_c, 0, 73, 70
1, 46679, Note_on_c, 0, 73, 0
1, 46680, Note_on_c, 0, 74, 68
1, 46703, Note_on_c, 0, 74, 0
1, 46704, Note_on_c, 0, 75, 68
1, 46727, Note_on_c, 0, 75, 0
1, 46728, Note_on_c, 0, 74, 68
1, 46751, Note_on_c, 0, 74, 0
1, 46752, Note_on_c, 0, 77, 69
1, 46775, Note_on_c, 0, 77, 0
1, 46776, Note_on_c, 0, 75, 69
1, 46799, Note_on_c, 0, 75, 0
1, 46800, Note_on_c, 0, 79, 70
1, 46823, Note_on_c, 0, 79, 0
1, 46824, Note_on_c, 0, 77, 70
1, 46847, Note_on_c, 0, 77, 0
1, 46848, Note_on_c, 0, 80, 71
1, 46871, Note_on_c, 0, 80, 0
1, 46872, Note_on_c, 0, 79, 71
1, 46895, Note_on_c, 0, 79, 0
1, 46896, Note_on_c, 0, 82, 72
1, 46919, Note_on_c, 0, 82, 0
1, 46920, Note_on_c, 0, 80, 72
1, 46943, Note_on_c, 0, 80, 0
1, 46944, Note_on_c, 0, 79, 73
1, 46967, Note_on_c, 0, 79, 0
1, 46968, Note_on_c, 0, 77, 73
1, 46991, Note_on_c, 0, 77, 0
1, 46992, Note_on_c, 0, 75, 74
1, 47015, Note_on_c, 0, 75, 0
1, 47016, Note_on_c, 0, 74, 74
1, 47039, Note_on_c, 0, 74, 0
1, 47040, Note_on_c, 0, 73, 68
1, 47063, Note_on_c, 0, 73, 0
1, 47064, Note_on_c, 0, 74, 69
1, 47087, Note_on_c, 0, 74, 0
1, 47088, Note_on_c, 0, 75, 71
1, 47111, Note_on_c, 0, 75, 0
1, 47112, Note_on_c, 0, 74, 73
1, 47135, Note_on_c, 0, 74, 0
1, 47136, Note_on_c, 0, 77, 75
1, 47159, Note_on_c, 0, 77, 0
1, 47160, Note_on_c, 0, 75, 77
1, 47183, Note_on_c, 0, 75, 0
1, 47184, Note_on_c, 0, 74, 79
1, 47207, Note_on_c, 0, 74, 0
1, 47208, Note_on_c, 0, 72, 81
1, 47231, Note_on_c, 0, 72, 0
1, 47232, Note_on_c, 0, 72, 83
1, 47280, Note_on_c, 1, 65, 68
1, 47280, Note_on_c, 1, 62, 68
1, 47280, Note_on_c, 1, 55, 68
1, 47327, Note_on_c, 1, 65, 0
1, 47327, Note_on_c, 1, 62, 0
1, 47327, Note_on_c, 1, 55, 0
1, 47328, Note_on_c, 1, 65, 70
1, 47328, Note_on_c, 1, 62, 70
1, 47328, Note_on_c, 1, 55, 70
1, 47375, Note_on_c, 1, 65, 0
1, 47375, Note_on_c, 1, 62, 0
1, 47375, Note_on_c, 1, 55, 0
1, 47376, Note_on_c, 1, 65, 72
1, 47376, Note_on_c, 1, 62, 72
1, 47376, Note_on_c, 1, 55, 72
1, 47423, Note_on_c, 1, 65, 0
1, 47423, Note_on_c, 1, 62, 0
1, 47423, Note_on_c, 1, 55, 0
1, 47424, Note_on_c, 1, 65, 74
1, 47424, Note_on_c, 1, 62, 74
1, 47424, Note_on_c, 1, 55, 74
1, 47439, Note_on_c, 0, 72, 0
1, 47440, Note_on_c, 0, 71, 83
1, 47455, Note_on_c, 0, 71, 0
1, 47456, Note_on_c, 0, 72, 83
1, 47471, Note_on_c, 0, 72, 0
1, 47472, Note_on_c, 0, 74, 83
1, 47487, Note_on_c, 0, 74, 0
1, 47488, Note_on_c, 0, 72, 83
1, 47503, Note_on_c, 0, 72, 0
1, 47504, Note_on_c, 0, 71, 83
1, 47519, Note_on_c, 0, 71, 0
1, 47520, Note_on_c, 0, 77, 83
1, 47535, Note_on_c, 0, 77, 0
1, 47536, Note_on_c, 0, 75, 83
1, 47551, Note_on_c, 0, 75, 0
1, 47552, Note_on_c, 0, 74, 83
1, 47567, Note_on_c, 0, 74, 0
1, 47568, Note_on_c, 0, 80, 83
1, 47583, Note_on_c, 0, 80, 0
1, 47584, Note_on_c, 0, 77, 83
1, 47599, Note_on_c, 0, 77, 0
1, 47600, Note_on_c, 0, 74, 83
1, 47611, Note_on_c, 1, 65, 0
1, 47611, Note_on_c, 1, 62, 0
1, 47611, Note_on_c, 1, 55, 0
1, 47615, Note_on_c, 0, 74, 0
1, 47616, Note_on_c, 0, 72, 83
1, 47664, Note_on_c, 1, 56, 79
1, 47679, Note_on_c, 1, 56, 0
1, 47680, Note_on_c, 1, 62, 79
1, 47695, Note_on_c, 1, 62, 0
1, 47696, Note_on_c, 1, 65, 79
1, 47711, Note_on_c, 1, 65, 0
1, 47712, Note_on_c, 1, 56, 79
1, 47727, Note_on_c, 1, 56, 0
1, 47728, Note_on_c, 1, 62, 79
1, 47743, Note_on_c, 1, 62, 0
1, 47744, Note_on_c, 1, 65, 79
1, 47759, Note_on_c, 1, 65, 0
1, 47760, Note_on_c, 1, 56, 79
1, 47775, Note_on_c, 1, 56, 0
1, 47776, Note_on_c, 1, 62, 79
1, 47791, Note_on_c, 1, 62, 0
1, 47792, Note_on_c, 1, 65, 79
1, 47807, Note_on_c, 1, 65, 0
1, 47808, Note_on_c, 1, 56, 79
1, 47823, Note_on_c, 0, 72, 0
1, 47824, Note_on_c, 0, 71, 83
1, 47839, Note_on_c, 0, 71, 0
1, 47840, Note_on_c, 0, 72, 83
1, 47855, Note_on_c, 0, 72, 0
1, 47856, Note_on_c, 0, 74, 83
1, 47871, Note_on_c, 0, 74, 0
1, 47872, Note_on_c, 0, 72, 83
1, 47887, Note_on_c, 0, 72, 0
1, 47888, Note_on_c, 0, 71, 83
1, 47903, Note_on_c, 0, 71, 0
1, 47904, Note_on_c, 0, 77, 83
1, 47919, Note_on_c, 0, 77, 0
1, 47920, Note_on_c, 0, 75, 83
1, 47935, Note_on_c, 0, 75, 0
1, 47936, Note_on_c, 0, 74, 83
1, 47951, Note_on_c, 0, 74, 0
1, 47952, Note_on_c, 0, 80, 83
1, 47967, Note_on_c, 0, 80, 0
1, 47968, Note_on_c, 0, 77, 83
1, 47983, Note_on_c, 0, 77, 0
1, 47984, Note_on_c, 0, 74, 83
1, 47985, Note_on_c, 1, 56, 0
1, 47999, Note_on_c, 0, 74, 0
1, 48000, Note_on_c, 0, 72, 83
1, 48048, Note_on_c, 1, 56, 74
1, 48063, Note_on_c, 1, 56, 0
1, 48064, Note_on_c, 1, 62, 74
1, 48079, Note_on_c, 1, 62, 0
1, 48080, Note_on_c, 1, 65, 74
1, 48095, Note_on_c, 1, 65, 0
1, 48096, Note_on_c, 1, 56, 74
1, 48111, Note_on_c, 1, 56, 0
1, 48112, Note_on_c, 1, 62, 74
1, 48127, Note_on_c, 1, 62, 0
1, 48128, Note_on_c, 1, 65, 74
1, 48143, Note_on_c, 1, 65, 0
1, 48144, Note_on_c, 1, 56, 74
1, 48159, Note_on_c, 1, 56, 0
1, 48160, Note_on_c, 1, 62, 74
1, 48175, Note_on_c, 1, 62, 0
1, 48176, Note_on_c, 1, 65, 74
1, 48191, Note_on_c, 1, 65, 0
1, 48192, Note_on_c, 1, 56, 83
1, 48332, Note_on_c, 0, 72, 0
1, 48336, Note_on_c, 0, 71, 68
1, 48360, Note_on_c, 0, 71, 0
1, 48360, Note_on_c, 0, 72, 68
1, 48384, Note_on_c, 0, 72, 0
1, 48384, Note_on_c, 0, 74, 68
1, 48408, Note_on_c, 0, 74, 0
1, 48408, Note_on_c, 0, 72, 68
1, 48432, Note_on_c, 0, 72, 0
1, 48432, Note_on_c, 0, 71, 68
1, 48456, Note_on_c, 0, 71, 0
1, 48456, Note_on_c, 0, 77, 68
1, 48480, Note_on_c, 0, 77, 0
1, 48480, Note_on_c, 0, 75, 68
1, 48504, Note_on_c, 0, 75, 0
1, 48504, Note_on_c, 0, 74, 68
1, 48528, Note_on_c, 0, 74, 0
1, 48528, Note_on_c, 0, 80, 68
1, 48668, Note_on_c, 0, 80, 0
1, 48672, Note_on_c, 0, 79, 68
1, 48692, Note_on_c, 0, 79, 0
1, 48692, Note_on_c, 0, 77, 68
1, 48711, Note_on_c, 0, 77, 0
1, 48711, Note_on_c, 0, 75, 68
1, 48730, Note_on_c, 0, 75, 0
1, 48730, Note_on_c, 0, 74, 68
1, 48749, Note_on_c, 0, 74, 0
1, 48749, Note_on_c, 0, 72, 68
1, 48816, Note_on_c, 1, 55, 62
1, 48862, Note_on_c, 1, 56, 0
1, 48864, Note_on_c, 1, 65, 62
1, 48908, Note_on_c, 0, 72, 0
1, 48912, Note_on_c, 0, 71, 62
1, 48960, Note_on_c, 0, 80, 62
1, 49007, Note_on_c, 1, 55, 0
1, 49008, Note_on_c, 1, 55, 62
1, 49051, Note_on_c, 1, 65, 0
1, 49056, Note_on_c, 1, 65, 62
1, 49103, Note_on_c, 0, 71, 0
1, 49104, Note_on_c, 0, 71, 62
1, 49147, Note_on_c, 0, 80, 0
1, 49151, Note_on_c, 0, 71, 0
1, 49152, Note_on_c, 0, 80, 62
1, 49339, Note_on_c, 0, 80, 0
1, 49339, Note_on_c, 1, 65, 0
1, 49339, Note_on_c, 1, 55, 0
1, 49344, Note_on_c, 1, 60, 99
1, 49344, Note_on_c, 1, 55, 99
1, 49344, Note_on_c, 1, 51, 99
1, 49392, Note_on_c, 0, 84, 83
1, 49404, Note_on_c, 0, 84, 0
1, 49404, Note_on_c, 0, 79, 83
1, 49419, Note_on_c, 0, 79, 0
1, 49440, Note_on_c, 0, 79, 83
1, 49440, Note_on_c, 1, 60, 0
1, 49440, Note_on_c, 1, 55, 0
1, 49440, Note_on_c, 1, 51, 0
1, 49452, Note_on_c, 0, 79, 0
1, 49452, Note_on_c, 0, 75, 83
1, 49467, Note_on_c, 0, 75, 0
1, 49488, Note_on_c, 0, 75, 83
1, 49500, Note_on_c, 0, 75, 0
1, 49500, Note_on_c, 0, 72, 83
1, 49515, Note_on_c, 0, 72, 0
1, 49536, Note_on_c, 1, 60, 99
1, 49536, Note_on_c, 1, 56, 99
1, 49536, Note_on_c, 1, 53, 99
1, 49584, Note_on_c, 0, 84, 83
1, 49596, Note_on_c, 0, 84, 0
1, 49596, Note_on_c, 0, 80, 83
1, 49611, Note_on_c, 0, 80, 0
1, 49632, Note_on_c, 0, 80, 83
1, 49632, Note_on_c, 1, 60, 0
1, 49632, Note_on_c, 1, 56, 0
1, 49632, Note_on_c, 1, 53, 0
1, 49644, Note_on_c, 0, 80, 0
1, 49644, Note_on_c, 0, 77, 83
1, 49659, Note_on_c, 0, 77, 0
1, 49680, Note_on_c, 0, 77, 83
1, 49692, Note_on_c, 0, 77, 0
1, 49692, Note_on_c, 0, 74, 83
1, 49707, Note_on_c, 0, 74, 0
1, 49728, Note_on_c, 0, 72, 79
1, 49776, Note_on_c, 1, 63, 79
1, 49776, Note_on_c, 1, 55, 79
1, 49823, Note_on_c, 1, 63, 0
1, 49823, Note_on_c, 1, 55, 0
1, 49824, Note_on_c, 1, 63, 79
1, 49824, Note_on_c, 1, 55, 79
1, 49847, Note_on_c, 0, 72, 0
1, 49848, Note_on_c, 0, 71, 79
1, 49871, Note_on_c, 0, 71, 0
1, 49871, Note_on_c, 1, 63, 0
1, 49871, Note_on_c, 1, 55, 0
1, 49872, Note_on_c, 0, 77, 79
1, 49872, Note_on_c, 1, 62, 81
1, 49872, Note_on_c, 1, 55, 81
1, 49887, Note_on_c, 0, 77, 0
1, 49888, Note_on_c, 0, 74, 79
1, 49903, Note_on_c, 0, 74, 0
1, 49904, Note_on_c, 0, 71, 79
1, 49919, Note_on_c, 0, 71, 0
1, 49919, Note_on_c, 1, 62, 0
1, 49919, Note_on_c, 1, 55, 0
1, 49920, Note_on_c, 0, 79, 83
1, 49968, Note_on_c, 1, 63, 83
1, 49968, Note_on_c, 1, 55, 83
1, 50015, Note_on_c, 1, 63, 0
1, 50015, Note_on_c, 1, 55, 0
1, 50016, Note_on_c, 1, 63, 83
1, 50016, Note_on_c, 1, 55, 83
1, 50031, Note_on_c, 0, 79, 0
1, 50032, Note_on_c, 0, 75, 82
1, 50047, Note_on_c, 0, 75, 0
1, 50048, Note_on_c, 0, 72, 81
1, 50063, Note_on_c, 0, 72, 0
1, 50063, Note_on_c, 1, 63, 0
1, 50063, Note_on_c, 1, 55, 0
1, 50064, Note_on_c, 0, 77, 81
1, 50064, Note_on_c, 1, 62, 81
1, 50064, Note_on_c, 1, 55, 81
1, 50079, Note_on_c, 0, 77, 0
1, 50080, Note_on_c, 0, 74, 80
1, 50095, Note_on_c, 0, 74, 0
1, 50096, Note_on_c, 0, 71, 79
1, 50111, Note_on_c, 0, 71, 0
1, 50111, Note_on_c, 1, 62, 0
1, 50111, Note_on_c, 1, 55, 0
1, 50112, Note_on_c, 0, 79, 68
1, 50160, Note_on_c, 1, 63, 68
1, 50160, Note_on_c, 1, 55, 68
1, 50207, Note_on_c, 1, 63, 0
1, 50207, Note_on_c, 1, 55, 0
1, 50208, Note_on_c, 1, 63, 68
1, 50208, Note_on_c, 1, 55, 68
1, 50223, Note_on_c, 0, 79, 0
1, 50224, Note_on_c, 0, 75, 68
1, 50239, Note_on_c, 0, 75, 0
1, 50240, Note_on_c, 0, 72, 69
1, 50255, Note_on_c, 0, 72, 0
1, 50255, Note_on_c, 1, 63, 0
1, 50255, Note_on_c, 1, 55, 0
1, 50256, Note_on_c, 0, 77, 70
1, 50256, Note_on_c, 1, 62, 71
1, 50256, Note_on_c, 1, 55, 71
1, 50271, Note_on_c, 0, 77, 0
1, 50272, Note_on_c, 0, 74, 71
1, 50287, Note_on_c, 0, 74, 0
1, 50288, Note_on_c, 0, 71, 71
1, 50303, Note_on_c, 0, 71, 0
1, 50303, Note_on_c, 1, 62, 0
1, 50303, Note_on_c, 1, 55, 0
1, 50304, Note_on_c, 0, 79, 83
1, 50352, Note_on_c, 1, 63, 83
1, 50352, Note_on_c, 1, 55, 83
1, 50399, Note_on_c, 1, 63, 0
1, 50399, Note_on_c, 1, 55, 0
1, 50400, Note_on_c, 1, 63, 83
1, 50400, Note_on_c, 1, 55, 83
1, 50415, Note_on_c, 0, 79, 0
1, 50416, Note_on_c, 0, 75, 83
1, 50431, Note_on_c, 0, 75, 0
1, 50432, Note_on_c, 0, 72, 83
1, 50447, Note_on_c, 0, 72, 0
1, 50447, Note_on_c, 1, 63, 0
1, 50447, Note_on_c, 1, 55, 0
1, 50448, Note_on_c, 0, 80, 83
1, 50448, Note_on_c, 1, 65, 83
1, 50448, Note_on_c, 1, 55, 83
1, 50463, Note_on_c, 0, 80, 0
1, 50464, Note_on_c, 0, 77, 83
1, 50479, Note_on_c, 0, 77, 0
1, 50480, Note_on_c, 0, 74, 83
1, 50495, Note_on_c, 0, 74, 0
1, 50495, Note_on_c, 1, 65, 0
1, 50495, Note_on_c, 1, 55, 0
1, 50496, Note_on_c, 0, 83, 83
1, 50496, Note_on_c, 1, 62, 83
1, 50496, Note_on_c, 1, 55, 83
1, 50511, Note_on_c, 0, 83, 0
1, 50512, Note_on_c, 0, 77, 83
1, 50527, Note_on_c, 0, 77, 0
1, 50528, Note_on_c, 0, 74, 83
1, 50543, Note_on_c, 0, 74, 0
1, 50543, Note_on_c, 1, 62, 0
1, 50543, Note_on_c, 1, 55, 0
1, 50544, Note_on_c, 0, 84, 83
1, 50544, Note_on_c, 1, 63, 83
1, 50544, Note_on_c, 1, 55, 83
1, 50559, Note_on_c, 0, 84, 0
1, 50560, Note_on_c, 0, 79, 83
1, 50575, Note_on_c, 0, 79, 0
1, 50576, Note_on_c, 0, 75, 83
1, 50591, Note_on_c, 0, 75, 0
1, 50591, Note_on_c, 1, 63, 0
1, 50591, Note_on_c, 1, 55, 0
1, 50592, Note_on_c, 0, 86, 88
1, 50592, Note_on_c, 1, 59, 88
1, 50592, Note_on_c, 1, 55, 88
1, 50607, Note_on_c, 0, 86, 0
1, 50608, Note_on_c, 0, 83, 88
1, 50623, Note_on_c, 0, 83, 0
1, 50624, Note_on_c, 0, 79, 88
1, 50639, Note_on_c, 0, 79, 0
1, 50639, Note_on_c, 1, 59, 0
1, 50639, Note_on_c, 1, 55, 0
1, 50640, Note_on_c, 0, 87, 88
1, 50640, Note_on_c, 1, 60, 88
1, 50640, Note_on_c, 1, 55, 88
1, 50655, Note_on_c, 0, 87, 0
1, 50656, Note_on_c, 0, 84, 88
1, 50671, Note_on_c, 0, 84, 0
1, 50672, Note_on_c, 0, 79, 88
1, 50687, Note_on_c, 0, 79, 0
1, 50687, Note_on_c, 1, 60, 0
1, 50687, Note_on_c, 1, 55, 0
1, 50688, Note_on_c, 0, 89, 88
1, 50688, Note_on_c, 1, 62, 88
1, 50688, Note_on_c, 1, 55, 88
1, 50727, Note_on_c, 0, 89, 0
1, 50777, Note_on_c, 1, 62, 0
1, 50777, Note_on_c, 1, 55, 0
1, 50880, Note_on_c, 1, 60, 68
1, 50895, Note_on_c, 1, 60, 0
1, 50896, Note_on_c, 1, 63, 68
1, 50911, Note_on_c, 1, 63, 0
1, 50912, Note_on_c, 1, 67, 68
1, 50927, Note_on_c, 1, 67, 0
1, 50928, Note_on_c, 1, 60, 68
1, 50943, Note_on_c, 1, 60, 0
1, 50944, Note_on_c, 1, 63, 68
1, 50959, Note_on_c, 1, 63, 0
1, 50960, Note_on_c, 1, 67, 68
1, 50975, Note_on_c, 1, 67, 0
1, 50976, Note_on_c, 1, 60, 68
1, 50991, Note_on_c, 1, 60, 0
1, 50992, Note_on_c, 1, 63, 68
1, 51007, Note_on_c, 1, 63, 0
1, 51008, Note_on_c, 1, 67, 68
1, 51023, Note_on_c, 1, 67, 0
1, 51024, Note_on_c, 0, 77, 62
1, 51024, Note_on_c, 1, 60, 68
1, 51036, Note_on_c, 0, 77, 0
1, 51036, Note_on_c, 0, 75, 62
1, 51039, Note_on_c, 1, 60, 0
1, 51040, Note_on_c, 1, 63, 68
1, 51048, Note_on_c, 0, 75, 0
1, 51048, Note_on_c, 0, 74, 62
1, 51055, Note_on_c, 1, 63, 0
1, 51056, Note_on_c, 1, 67, 68
1, 51060, Note_on_c, 0, 74, 0
1, 51060, Note_on_c, 0, 72, 63
1, 51071, Note_on_c, 1, 67, 0
1, 51072, Note_on_c, 0, 72, 0
1, 51072, Note_on_c, 0, 71, 63
1, 51072, Note_on_c, 1, 62, 68
1, 51087, Note_on_c, 1, 62, 0
1, 51088, Note_on_c, 1, 65, 69
1, 51092, Note_on_c, 0, 71, 0
1, 51103, Note_on_c, 1, 65, 0
1, 51104, Note_on_c, 1, 67, 69
1, 51119, Note_on_c, 1, 67, 0
1, 51120, Note_on_c, 1, 62, 69
1, 51135, Note_on_c, 1, 62, 0
1, 51136, Note_on_c, 1, 65, 69
1, 51151, Note_on_c, 1, 65, 0
1, 51152, Note_on_c, 1, 67, 70
1, 51167, Note_on_c, 1, 67, 0
1, 51168, Note_on_c, 1, 59, 70
1, 51183, Note_on_c, 1, 59, 0
1, 51184, Note_on_c, 1, 62, 70
1, 51199, Note_on_c, 1, 62, 0
1, 51200, Note_on_c, 1, 67, 70
1, 51215, Note_on_c, 1, 67, 0
1, 51216, Note_on_c, 0, 82, 68
1, 51216, Note_on_c, 1, 59, 71
1, 51228, Note_on_c, 0, 82, 0
1, 51228, Note_on_c, 0, 80, 68
1, 51231, Note_on_c, 1, 59, 0
1, 51232, Note_on_c, 1, 62, 71
1, 51240, Note_on_c, 0, 80, 0
1, 51240, Note_on_c, 0, 79, 68
1, 51247, Note_on_c, 1, 62, 0
1, 51248, Note_on_c, 1, 67, 71
1, 51252, Note_on_c, 0, 79, 0
1, 51252, Note_on_c, 0, 77, 69
1, 51263, Note_on_c, 1, 67, 0
1, 51264, Note_on_c, 0, 77, 0
1, 51264, Note_on_c, 0, 75, 69
1, 51264, Note_on_c, 1, 60, 72
1, 51279, Note_on_c, 1, 60, 0
1, 51280, Note_on_c, 1, 63, 72
1, 51284, Note_on_c, 0, 75, 0
1, 51295, Note_on_c, 1, 63, 0
1, 51296, Note_on_c, 1, 67, 72
1, 51311, Note_on_c, 1, 67, 0
1, 51312, Note_on_c, 1, 60, 72
1, 51327, Note_on_c, 1, 60, 0
1, 51328, Note_on_c, 1, 63, 73
1, 51343, Note_on_c, 1, 63, 0
1, 51344, Note_on_c, 1, 67, 73
1, 51359, Note_on_c, 1, 67, 0
1, 51360, Note_on_c, 1, 60, 73
1, 51375, Note_on_c, 1, 60, 0
1, 51376, Note_on_c, 1, 63, 73
1, 51391, Note_on_c, 1, 63, 0
1, 51392, Note_on_c, 1, 67, 74
1, 51407, Note_on_c, 1, 67, 0
1, 51408, Note_on_c, 0, 77, 74
1, 51408, Note_on_c, 1, 60, 74
1, 51420, Note_on_c, 0, 77, 0
1, 51420, Note_on_c, 0, 75, 74
1, 51423, Note_on_c, 1, 60, 0
1, 51424, Note_on_c, 1, 63, 74
1, 51432, Note_on_c, 0, 75, 0
1, 51432, Note_on_c, 0, 74, 74
1, 51439, Note_on_c, 1, 63, 0
1, 51440, Note_on_c, 1, 67, 74
1, 51444, Note_on_c, 0, 74, 0
1, 51444, Note_on_c, 0, 72, 75
1, 51455, Note_on_c, 1, 67, 0
1, 51456, Note_on_c, 0, 72, 0
1, 51456, Note_on_c, 0, 71, 75
1, 51456, Note_on_c, 1, 62, 75
1, 51471, Note_on_c, 1, 62, 0
1, 51472, Note_on_c, 1, 65, 75
1, 51476, Note_on_c, 0, 71, 0
1, 51487, Note_on_c, 1, 65, 0
1, 51488, Note_on_c, 1, 67, 75
1, 51503, Note_on_c, 1, 67, 0
1, 51504, Note_on_c, 1, 62, 76
1, 51519, Note_on_c, 1, 62, 0
1, 51520, Note_on_c, 1, 65, 76
1, 51535, Note_on_c, 1, 65, 0
1, 51536, Note_on_c, 1, 67, 76
1, 51551, Note_on_c, 1, 67, 0
1, 51552, Note_on_c, 1, 59, 76
1, 51567, Note_on_c, 1, 59, 0
1, 51568, Note_on_c, 1, 62, 77
1, 51583, Note_on_c, 1, 62, 0
1, 51584, Note_on_c, 1, 67, 77
1, 51599, Note_on_c, 1, 67, 0
1, 51600, Note_on_c, 0, 82, 80
1, 51600, Note_on_c, 1, 59, 77
1, 51612, Note_on_c, 0, 82, 0
1, 51612, Note_on_c, 0, 80, 80
1, 51615, Note_on_c, 1, 59, 0
1, 51616, Note_on_c, 1, 62, 77
1, 51624, Note_on_c, 0, 80, 0
1, 51624, Note_on_c, 0, 79, 80
1, 51631, Note_on_c, 1, 62, 0
1, 51632, Note_on_c, 1, 67, 78
1, 51636, Note_on_c, 0, 79, 0
1, 51636, Note_on_c, 0, 77, 81
1, 51647, Note_on_c, 1, 67, 0
1, 51648, Note_on_c, 0, 77, 0
1, 51648, Note_on_c, 0, 75, 81
1, 51648, Note_on_c, 1, 60, 78
1, 51663, Note_on_c, 1, 60, 0
1, 51664, Note_on_c, 1, 63, 78
1, 51668, Note_on_c, 0, 75, 0
1, 51679, Note_on_c, 1, 63, 0
1, 51680, Note_on_c, 1, 67, 78
1, 51695, Note_on_c, 1, 67, 0
1, 51696, Note_on_c, 0, 77, 83
1, 51696, Note_on_c, 1, 60, 83
1, 51708, Note_on_c, 0, 77, 0
1, 51708, Note_on_c, 0, 75, 83
1, 51711, Note_on_c, 1, 60, 0
1, 51712, Note_on_c, 1, 63, 83
1, 51720, Note_on_c, 0, 75, 0
1, 51720, Note_on_c, 0, 74, 83
1, 51727, Note_on_c, 1, 63, 0
1, 51728, Note_on_c, 1, 67, 83
1, 51732, Note_on_c, 0, 74, 0
1, 51732, Note_on_c, 0, 72, 83
1, 51743, Note_on_c, 1, 67, 0
1, 51744, Note_on_c, 0, 72, 0
1, 51744, Note_on_c, 0, 71, 83
1, 51744, Note_on_c, 1, 62, 83
1, 51759, Note_on_c, 1, 62, 0
1, 51760, Note_on_c, 1, 65, 83
1, 51764, Note_on_c, 0, 71, 0
1, 51775, Note_on_c, 1, 65, 0
1, 51776, Note_on_c, 1, 67, 83
1, 51791, Note_on_c, 1, 67, 0
1, 51792, Note_on_c, 0, 82, 83
1, 51792, Note_on_c, 1, 59, 83
1, 51804, Note_on_c, 0, 82, 0
1, 51804, Note_on_c, 0, 80, 83
1, 51807, Note_on_c, 1, 59, 0
1, 51808, Note_on_c, 1, 62, 83
1, 51816, Note_on_c, 0, 80, 0
1, 51816, Note_on_c, 0, 79, 83
1, 51823, Note_on_c, 1, 62, 0
1, 51824, Note_on_c, 1, 67, 83
1, 51828, Note_on_c, 0, 79, 0
1, 51828, Note_on_c, 0, 77, 83
1, 51839, Note_on_c, 1, 67, 0
1, 51840, Note_on_c, 0, 77, 0
1, 51840, Note_on_c, 0, 75, 83
1, 51840, Note_on_c, 1, 60, 83
1, 51855, Note_on_c, 1, 60, 0
1, 51856, Note_on_c, 1, 63, 83
1, 51860, Note_on_c, 0, 75, 0
1, 51871, Note_on_c, 1, 63, 0
1, 51872, Note_on_c, 1, 67, 83
1, 51887, Note_on_c, 1, 67, 0
1, 51888, Note_on_c, 0, 77, 83
1, 51888, Note_on_c, 1, 60, 83
1, 51900, Note_on_c, 0, 77, 0
1, 51900, Note_on_c, 0, 75, 83
1, 51903, Note_on_c, 1, 60, 0
1, 51904, Note_on_c, 1, 63, 83
1, 51912, Note_on_c, 0, 75, 0
1, 51912, Note_on_c, 0, 74, 83
1, 51919, Note_on_c, 1, 63, 0
1, 51920, Note_on_c, 1, 67, 83
1, 51924, Note_on_c, 0, 74, 0
1, 51924, Note_on_c, 0, 72, 83
1, 51935, Note_on_c, 1, 67, 0
1, 51936, Note_on_c, 0, 72, 0
1, 51936, Note_on_c, 0, 71, 83
1, 51936, Note_on_c, 1, 62, 83
1, 51951, Note_on_c, 1, 62, 0
1, 51952, Note_on_c, 1, 65, 83
1, 51956, Note_on_c, 0, 71, 0
1, 51967, Note_on_c, 1, 65, 0
1, 51968, Note_on_c, 1, 67, 83
1, 51983, Note_on_c, 1, 67, 0
1, 51984, Note_on_c, 0, 82, 83
1, 51984, Note_on_c, 1, 59, 83
1, 51996, Note_on_c, 0, 82, 0
1, 51996, Note_on_c, 0, 80, 83
1, 51999, Note_on_c, 1, 59, 0
1, 52000, Note_on_c, 1, 62, 83
1, 52008, Note_on_c, 0, 80, 0
1, 52008, Note_on_c, 0, 79, 83
1, 52015, Note_on_c, 1, 62, 0
1, 52016, Note_on_c, 1, 67, 83
1, 52020, Note_on_c, 0, 79, 0
1, 52020, Note_on_c, 0, 77, 83
1, 52031, Note_on_c, 1, 67, 0
1, 52032, Note_on_c, 0, 77, 0
1, 52032, Note_on_c, 0, 75, 83
1, 52032, Note_on_c, 1, 60, 83
1, 52052, Note_on_c, 0, 75, 0
1, 52077, Note_on_c, 1, 60, 0
1, 52080, Note_on_c, 0, 89, 83
1, 52095, Note_on_c, 0, 89, 0
1, 52096, Note_on_c, 0, 87, 82
1, 52111, Note_on_c, 0, 87, 0
1, 52112, Note_on_c, 0, 86, 82
1, 52127, Note_on_c, 0, 86, 0
1, 52128, Note_on_c, 0, 84, 82
1, 52143, Note_on_c, 0, 84, 0
1, 52144, Note_on_c, 0, 82, 81
1, 52159, Note_on_c, 0, 82, 0
1, 52160, Note_on_c, 0, 80, 81
1, 52175, Note_on_c, 0, 80, 0
1, 52176, Note_on_c, 0, 79, 81
1, 52191, Note_on_c, 0, 79, 0
1, 52192, Note_on_c, 0, 77, 80
1, 52207, Note_on_c, 0, 77, 0
1, 52208, Note_on_c, 0, 75, 80
1, 52223, Note_on_c, 0, 75, 0
1, 52224, Note_on_c, 0, 74, 79
1, 52224, Note_on_c, 1, 56, 83
1, 52224, Note_on_c, 1, 53, 83
1, 52269, Note_on_c, 0, 74, 0
1, 52296, Note_on_c, 0, 73, 79
1, 52313, Note_on_c, 1, 56, 0
1, 52313, Note_on_c, 1, 53, 0
1, 52319, Note_on_c, 0, 73, 0
1, 52320, Note_on_c, 0, 74, 79
1, 52343, Note_on_c, 0, 74, 0
1, 52344, Note_on_c, 0, 75, 79
1, 52367, Note_on_c, 0, 75, 0
1, 52368, Note_on_c, 0, 76, 80
1, 52391, Note_on_c, 0, 76, 0
1, 52392, Note_on_c, 0, 77, 81
1, 52415, Note_on_c, 0, 77, 0
1, 52416, Note_on_c, 0, 78, 81
1, 52439, Note_on_c, 0, 78, 0
1, 52440, Note_on_c, 0, 79, 82
1, 52463, Note_on_c, 0, 79, 0
1, 52464, Note_on_c, 0, 82, 83
1, 52470, Note_on_c, 0, 82, 0
1, 52470, Note_on_c, 0, 84, 83
1, 52476, Note_on_c, 0, 84, 0
1, 52476, Note_on_c, 0, 82, 83
1, 52487, Note_on_c, 0, 82, 0
1, 52488, Note_on_c, 0, 80, 83
1, 52511, Note_on_c, 0, 80, 0
1, 52512, Note_on_c, 0, 79, 83
1, 52535, Note_on_c, 0, 79, 0
1, 52536, Note_on_c, 0, 77, 82
1, 52559, Note_on_c, 0, 77, 0
1, 52560, Note_on_c, 0, 75, 82
1, 52583, Note_on_c, 0, 75, 0
1, 52584, Note_on_c, 0, 74, 81
1, 52607, Note_on_c, 0, 74, 0
1, 52608, Note_on_c, 0, 72, 81
1, 52656, Note_on_c, 1, 63, 74
1, 52656, Note_on_c, 1, 55, 74
1, 52701, Note_on_c, 1, 63, 0
1, 52701, Note_on_c, 1, 55, 0
1, 52704, Note_on_c, 1, 63, 74
1, 52704, Note_on_c, 1, 55, 74
1, 52727, Note_on_c, 0, 72, 0
1, 52728, Note_on_c, 0, 71, 79
1, 52749, Note_on_c, 1, 63, 0
1, 52749, Note_on_c, 1, 55, 0
1, 52751, Note_on_c, 0, 71, 0
1, 52752, Note_on_c, 0, 77, 79
1, 52752, Note_on_c, 1, 62, 74
1, 52752, Note_on_c, 1, 55, 74
1, 52767, Note_on_c, 0, 77, 0
1, 52768, Note_on_c, 0, 74, 79
1, 52783, Note_on_c, 0, 74, 0
1, 52784, Note_on_c, 0, 71, 79
1, 52797, Note_on_c, 1, 62, 0
1, 52797, Note_on_c, 1, 55, 0
1, 52799, Note_on_c, 0, 71, 0
1, 52800, Note_on_c, 0, 72, 79
1, 52800, Note_on_c, 1, 60, 74
1, 52800, Note_on_c, 1, 48, 74
1, 52845, Note_on_c, 0, 72, 0
1, 52845, Note_on_c, 1, 60, 0
1, 52845, Note_on_c, 1, 48, 0
1, 52848, Note_on_c, 1, 60, 74
1, 52848, Note_on_c, 1, 48, 74
1, 52893, Note_on_c, 1, 60, 0
1, 52893, Note_on_c, 1, 48, 0
1, 52896, Note_on_c, 0, 79, 79
1, 52896, Note_on_c, 0, 75, 79
1, 52896, Note_on_c, 1, 60, 74
1, 52896, Note_on_c, 1, 48, 74
1, 52941, Note_on_c, 1, 60, 0
1, 52941, Note_on_c, 1, 48, 0
1, 52944, Note_on_c, 1, 60, 74
1, 52944, Note_on_c, 1, 48, 74
1, 52968, Note_on_c, 0, 79, 0
1, 52968, Note_on_c, 0, 75, 0
1, 52968, Note_on_c, 0, 80, 79
1, 52968, Note_on_c, 0, 77, 79
1, 52989, Note_on_c, 1, 60, 0
1, 52989, Note_on_c, 1, 48, 0
1, 52991, Note_on_c, 0, 80, 0
1, 52991, Note_on_c, 0, 77, 0
1, 52992, Note_on_c, 0, 79, 79
1, 52992, Note_on_c, 0, 75, 79
1, 52992, Note_on_c, 1, 60, 74
1, 52992, Note_on_c, 1, 48, 74
1, 53012, Note_on_c, 0, 79, 0
1, 53012, Note_on_c, 0, 75, 0
1, 53037, Note_on_c, 1, 60, 0
1, 53037, Note_on_c, 1, 48, 0
1, 53040, Note_on_c, 1, 60, 74
1, 53040, Note_on_c, 1, 48, 74
1, 53085, Note_on_c, 1, 60, 0
1, 53085, Note_on_c, 1, 48, 0
1, 53088, Note_on_c, 0, 75, 79
1, 53088, Note_on_c, 0, 67, 79
1, 53088, Note_on_c, 1, 60, 74
1, 53088, Note_on_c, 1, 48, 74
1, 53108, Note_on_c, 0, 75, 0
1, 53108, Note_on_c, 0, 67, 0
1, 53133, Note_on_c, 1, 60, 0
1, 53133, Note_on_c, 1, 48, 0
1, 53136, Note_on_c, 0, 71, 79
1, 53136, Note_on_c, 0, 65, 79
1, 53136, Note_on_c, 1, 60, 74
1, 53136, Note_on_c, 1, 48, 74
1, 53156, Note_on_c, 0, 71, 0
1, 53156, Note_on_c, 0, 65, 0
1, 53181, Note_on_c, 1, 60, 0
1, 53181, Note_on_c, 1, 48, 0
1, 53184, Note_on_c, 0, 72, 79
1, 53184, Note_on_c, 0, 63, 79
1, 53184, Note_on_c, 1, 48, 83
1, 53184, Note_on_c, 1, 36, 83
1, 53229, Note_on_c, 0, 72, 0
1, 53229, Note_on_c, 0, 63, 0
1, 53229, Note_on_c, 1, 48, 0
1, 53229, Note_on_c, 1, 36, 0
1, 53232, Note_on_c, 1, 48, 80
1, 53232, Note_on_c, 1, 36, 80
1, 53277, Note_on_c, 1, 48, 0
1, 53277, Note_on_c, 1, 36, 0
1, 53280, Note_on_c, 0, 67, 74
1, 53280, Note_on_c, 0, 63, 74
1, 53280, Note_on_c, 1, 48, 77
1, 53280, Note_on_c, 1, 36, 77
1, 53325, Note_on_c, 1, 48, 0
1, 53325, Note_on_c, 1, 36, 0
1, 53328, Note_on_c, 1, 48, 74
1, 53328, Note_on_c, 1, 36, 74
1, 53352, Note_on_c, 0, 67, 0
1, 53352, Note_on_c, 0, 63, 0
1, 53352, Note_on_c, 0, 68, 74
1, 53352, Note_on_c, 0, 65, 74
1, 53373, Note_on_c, 1, 48, 0
1, 53373, Note_on_c, 1, 36, 0
1, 53375, Note_on_c, 0, 68, 0
1, 53375, Note_on_c, 0, 65, 0
1, 53376, Note_on_c, 0, 67, 74
1, 53376, Note_on_c, 0, 63, 74
1, 53376, Note_on_c, 1, 48, 74
1, 53376, Note_on_c, 1, 36, 74
1, 53396, Note_on_c, 0, 67, 0
1, 53396, Note_on_c, 0, 63, 0
1, 53421, Note_on_c, 1, 48, 0
1, 53421, Note_on_c, 1, 36, 0
1, 53424, Note_on_c, 1, 48, 74
1, 53424, Note_on_c, 1, 36, 74
1, 53469, Note_on_c, 1, 48, 0
1, 53469, Note_on_c, 1, 36, 0
1, 53472, Note_on_c, 0, 63, 74
1, 53472, Note_on_c, 0, 55, 74
1, 53472, Note_on_c, 1, 48, 74
1, 53472, Note_on_c, 1, 36, 74
1, 53492, Note_on_c, 0, 63, 0
1, 53492, Note_on_c, 0, 55, 0
1, 53517, Note_on_c, 1, 48, 0
1, 53517, Note_on_c, 1, 36, 0
1, 53520, Note_on_c, 0, 59, 74
1, 53520, Note_on_c, 0, 53, 74
1, 53520, Note_on_c, 1, 48, 74
1, 53520, Note_on_c, 1, 36, 74
1, 53540, Note_on_c, 0, 59, 0
1, 53540, Note_on_c, 0, 53, 0
1, 53565, Note_on_c, 1, 48, 0
1, 53565, Note_on_c, 1, 36, 0
1, 53568, Note_on_c, 0, 60, 74
1, 53568, Note_on_c, 0, 51, 74
1, 53568, Note_on_c, 1, 48, 74
1, 53568, Note_on_c, 1, 36, 74
1, 53657, Note_on_c, 0, 60, 0
1, 53657, Note_on_c, 0, 51, 0
1, 53657, Note_on_c, 1, 48, 0
1, 53657, Note_on_c, 1, 36, 0
1, 53760, Note_on_c, 0, 82, 79
1, 53760, Note_on_c, 0, 79, 79
1, 53808, Note_on_c, 1, 51, 79
1, 53856, Note_on_c, 1, 51, 0
1, 53856, Note_on_c, 1, 63, 79
1, 53876, Note_on_c, 1, 63, 0
1, 53904, Note_on_c, 0, 82, 0
1, 53904, Note_on_c, 0, 79, 0
1, 53904, Note_on_c, 0, 80, 79
1, 53904, Note_on_c, 0, 77, 79
1, 53949, Note_on_c, 0, 80, 0
1, 53949, Note_on_c, 0, 77, 0
1, 53952, Note_on_c, 0, 84, 79
1, 53952, Note_on_c, 0, 80, 79
1, 54000, Note_on_c, 1, 51, 79
1, 54048, Note_on_c, 1, 51, 0
1, 54048, Note_on_c, 1, 63, 79
1, 54068, Note_on_c, 1, 63, 0
1, 54096, Note_on_c, 0, 84, 0
1, 54096, Note_on_c, 0, 80, 0
1, 54096, Note_on_c, 0, 82, 79
1, 54096, Note_on_c, 0, 79, 79
1, 54141, Note_on_c, 0, 82, 0
1, 54141, Note_on_c, 0, 79, 0
1, 54144, Note_on_c, 0, 85, 99
1, 54144, Note_on_c, 0, 82, 99
1, 54192, Note_on_c, 1, 36, 83
1, 54237, Note_on_c, 1, 36, 0
1, 54240, Note_on_c, 1, 48, 83
1, 54288, Note_on_c, 0, 85, 0
1, 54288, Note_on_c, 0, 82, 0
1, 54288, Note_on_c, 0, 84, 83
1, 54288, Note_on_c, 0, 80, 83
1, 54333, Note_on_c, 0, 84, 0
1, 54333, Note_on_c, 0, 80, 0
1, 54336, Note_on_c, 0, 82, 83
1, 54336, Note_on_c, 0, 79, 83
1, 54381, Note_on_c, 0, 82, 0
1, 54381, Note_on_c, 0, 79, 0
1, 54384, Note_on_c, 0, 80, 83
1, 54384, Note_on_c, 0, 77, 83
1, 54429, Note_on_c, 0, 80, 0
1, 54429, Note_on_c, 0, 77, 0
1, 54432, Note_on_c, 0, 79, 83
1, 54432, Note_on_c, 0, 76, 83
1, 54477, Note_on_c, 0, 79, 0
1, 54477, Note_on_c, 0, 76, 0
1, 54480, Note_on_c, 0, 82, 83
1, 54480, Note_on_c, 0, 79, 83
1, 54505, Note_on_c, 1, 48, 0
1, 54525, Note_on_c, 0, 82, 0
1, 54525, Note_on_c, 0, 79, 0
1, 54528, Note_on_c, 0, 80, 83
1, 54528, Note_on_c, 0, 77, 64
1, 54528, Note_on_c, 1, 68, 74
1, 54528, Note_on_c, 1, 65, 74
1, 54573, Note_on_c, 0, 80, 0
1, 54573, Note_on_c, 0, 77, 0
1, 54576, Note_on_c, 0, 72, 64
1, 54624, Note_on_c, 0, 72, 0
1, 54624, Note_on_c, 0, 84, 64
1, 54644, Note_on_c, 0, 84, 0
1, 54672, Note_on_c, 1, 68, 0
1, 54672, Note_on_c, 1, 65, 0
1, 54672, Note_on_c, 1, 67, 74
1, 54672, Note_on_c, 1, 64, 74
1, 54717, Note_on_c, 1, 67, 0
1, 54717, Note_on_c, 1, 64, 0
1, 54720, Note_on_c, 1, 70, 74
1, 54720, Note_on_c, 1, 67, 74
1, 54768, Note_on_c, 0, 72, 64
1, 54816, Note_on_c, 0, 72, 0
1, 54816, Note_on_c, 0, 84, 64
1, 54836, Note_on_c, 0, 84, 0
1, 54864, Note_on_c, 1, 70, 0
1, 54864, Note_on_c, 1, 67, 0
1, 54864, Note_on_c, 1, 68, 74
1, 54864, Note_on_c, 1, 65, 74
1, 54909, Note_on_c, 1, 68, 0
1, 54909, Note_on_c, 1, 65, 0
1, 54912, Note_on_c, 1, 72, 74
1, 54912, Note_on_c, 1, 68, 74
1, 54960, Note_on_c, 0, 77, 83
1, 55008, Note_on_c, 0, 77, 0
1, 55008, Note_on_c, 0, 89, 83
1, 55028, Note_on_c, 0, 89, 0
1, 55045, Note_on_c, 1, 72, 0
1, 55045, Note_on_c, 1, 68, 0
1, 55056, Note_on_c, 0, 75, 83
1, 55056, Note_on_c, 1, 70, 74
1, 55056, Note_on_c, 1, 67, 74
1, 55079, Note_on_c, 0, 75, 0
1, 55080, Note_on_c, 0, 87, 83
1, 55101, Note_on_c, 1, 70, 0
1, 55101, Note_on_c, 1, 67, 0
1, 55103, Note_on_c, 0, 87, 0
1, 55104, Note_on_c, 0, 73, 83
1, 55104, Note_on_c, 1, 68, 74
1, 55104, Note_on_c, 1, 65, 74
1, 55127, Note_on_c, 0, 73, 0
1, 55128, Note_on_c, 0, 85, 83
1, 55149, Note_on_c, 1, 68, 0
1, 55149, Note_on_c, 1, 65, 0
1, 55151, Note_on_c, 0, 85, 0
1, 55152, Note_on_c, 0, 72, 83
1, 55152, Note_on_c, 1, 67, 74
1, 55152, Note_on_c, 1, 63, 74
1, 55175, Note_on_c, 0, 72, 0
1, 55176, Note_on_c, 0, 84, 83
1, 55197, Note_on_c, 1, 67, 0
1, 55197, Note_on_c, 1, 63, 0
1, 55199, Note_on_c, 0, 84, 0
1, 55200, Note_on_c, 0, 70, 83
1, 55200, Note_on_c, 1, 65, 74
1, 55200, Note_on_c, 1, 61, 74
1, 55223, Note_on_c, 0, 70, 0
1, 55224, Note_on_c, 0, 82, 83
1, 55245, Note_on_c, 1, 65, 0
1, 55245, Note_on_c, 1, 61, 0
1, 55247, Note_on_c, 0, 82, 0
1, 55248, Note_on_c, 0, 68, 83
1, 55248, Note_on_c, 1, 63, 74
1, 55248, Note_on_c, 1, 60, 74
1, 55271, Note_on_c, 0, 68, 0
1, 55272, Note_on_c, 0, 80, 83
1, 55293, Note_on_c, 1, 63, 0
1, 55293, Note_on_c, 1, 60, 0
1, 55295, Note_on_c, 0, 80, 0
1, 55296, Note_on_c, 0, 67, 83
1, 55296, Note_on_c, 1, 61, 74
1, 55296, Note_on_c, 1, 58, 74
1, 55319, Note_on_c, 0, 67, 0
1, 55320, Note_on_c, 0, 79, 83
1, 55341, Note_on_c, 1, 61, 0
1, 55341, Note_on_c, 1, 58, 0
1, 55343, Note_on_c, 0, 79, 0
1, 55344, Note_on_c, 0, 65, 83
1, 55344, Note_on_c, 1, 60, 74
1, 55344, Note_on_c, 1, 56, 74
1, 55367, Note_on_c, 0, 65, 0
1, 55368, Note_on_c, 0, 77, 83
1, 55389, Note_on_c, 1, 60, 0
1, 55389, Note_on_c, 1, 56, 0
1, 55391, Note_on_c, 0, 77, 0
1, 55392, Note_on_c, 0, 63, 83
1, 55392, Note_on_c, 1, 58, 74
1, 55392, Note_on_c, 1, 55, 74
1, 55415, Note_on_c, 0, 63, 0
1, 55416, Note_on_c, 0, 75, 83
1, 55437, Note_on_c, 1, 58, 0
1, 55437, Note_on_c, 1, 55, 0
1, 55439, Note_on_c, 0, 75, 0
1, 55440, Note_on_c, 0, 62, 83
1, 55440, Note_on_c, 1, 56, 74
1, 55440, Note_on_c, 1, 53, 74
1, 55463, Note_on_c, 0, 62, 0
1, 55464, Note_on_c, 0, 74, 83
1, 55485, Note_on_c, 1, 56, 0
1, 55485, Note_on_c, 1, 53, 0
1, 55487, Note_on_c, 0, 74, 0
1, 55488, Note_on_c, 0, 63, 83
1, 55488, Note_on_c, 1, 58, 83
1, 55488, Note_on_c, 1, 55, 83
1, 55511, Note_on_c, 0, 63, 0
1, 55512, Note_on_c, 0, 75, 83
1, 55535, Note_on_c, 0, 75, 0
1, 55536, Note_on_c, 0, 73, 83
1, 55559, Note_on_c, 0, 73, 0
1, 55560, Note_on_c, 0, 77, 83
1, 55583, Note_on_c, 0, 77, 0
1, 55584, Note_on_c, 0, 75, 83
1, 55607, Note_on_c, 0, 75, 0
1, 55608, Note_on_c, 0, 72, 83
1, 55631, Note_on_c, 0, 72, 0
1, 55632, Note_on_c, 0, 73, 83
1, 55655, Note_on_c, 0, 73, 0
1, 55656, Note_on_c, 0, 70, 83
1, 55665, Note_on_c, 1, 58, 0
1, 55665, Note_on_c, 1, 55, 0
1, 55679, Note_on_c, 0, 70, 0
1, 55680, Note_on_c, 0, 72, 79
1, 55680, Note_on_c, 0, 68, 79
1, 55728, Note_on_c, 1, 44, 79
1, 55776, Note_on_c, 1, 44, 0
1, 55776, Note_on_c, 1, 56, 79
1, 55796, Note_on_c, 1, 56, 0
1, 55824, Note_on_c, 0, 72, 0
1, 55824, Note_on_c, 0, 68, 0
1, 55824, Note_on_c, 0, 70, 79
1, 55824, Note_on_c, 0, 67, 79
1, 55869, Note_on_c, 0, 70, 0
1, 55869, Note_on_c, 0, 67, 0
1, 55872, Note_on_c, 0, 73, 79
1, 55872, Note_on_c, 0, 70, 79
1, 55920, Note_on_c, 1, 44, 79
1, 55968, Note_on_c, 1, 44, 0
1, 55968, Note_on_c, 1, 56, 79
1, 55988, Note_on_c, 1, 56, 0
1, 56016, Note_on_c, 0, 73, 0
1, 56016, Note_on_c, 0, 70, 0
1, 56016, Note_on_c, 0, 72, 79
1, 56016, Note_on_c, 0, 68, 79
1, 56061, Note_on_c, 0, 72, 0
1, 56061, Note_on_c, 0, 68, 0
1, 56064, Note_on_c, 0, 75, 79
1, 56064, Note_on_c, 0, 72, 79
1, 56112, Note_on_c, 1, 42, 79
1, 56160, Note_on_c, 1, 42, 0
1, 56160, Note_on_c, 1, 54, 79
1, 56180, Note_on_c, 1, 54, 0
1, 56208, Note_on_c, 0, 75, 0
1, 56208, Note_on_c, 0, 72, 0
1, 56208, Note_on_c, 0, 73, 80
1, 56208, Note_on_c, 0, 70, 80
1, 56253, Note_on_c, 0, 73, 0
1, 56253, Note_on_c, 0, 70, 0
1, 56256, Note_on_c, 0, 77, 81
1, 56256, Note_on_c, 0, 73, 81
1, 56304, Note_on_c, 1, 42, 81
1, 56352, Note_on_c, 1, 42, 0
1, 56352, Note_on_c, 1, 54, 82
1, 56372, Note_on_c, 1, 54, 0
1, 56400, Note_on_c, 0, 77, 0
1, 56400, Note_on_c, 0, 73, 0
1, 56400, Note_on_c, 0, 75, 82
1, 56400, Note_on_c, 0, 72, 82
1, 56445, Note_on_c, 0, 75, 0
1, 56445, Note_on_c, 0, 72, 0
1, 56448, Note_on_c, 0, 78, 83
1, 56448, Note_on_c, 0, 75, 83
1, 56496, Note_on_c, 1, 41, 88
1, 56541, Note_on_c, 1, 41, 0
1, 56544, Note_on_c, 1, 53, 88
1, 56581, Note_on_c, 0, 78, 0
1, 56581, Note_on_c, 0, 75, 0
1, 56592, Note_on_c, 0, 77, 83
1, 56592, Note_on_c, 0, 73, 83
1, 56637, Note_on_c, 0, 77, 0
1, 56637, Note_on_c, 0, 73, 0
1, 56640, Note_on_c, 0, 75, 83
1, 56640, Note_on_c, 0, 72, 83
1, 56685, Note_on_c, 0, 75, 0
1, 56685, Note_on_c, 0, 72, 0
1, 56688, Note_on_c, 0, 73, 83
1, 56688, Note_on_c, 0, 70, 83
1, 56733, Note_on_c, 0, 73, 0
1, 56733, Note_on_c, 0, 70, 0
1, 56736, Note_on_c, 0, 72, 83
1, 56736, Note_on_c, 0, 69, 83
1, 56781, Note_on_c, 0, 72, 0
1, 56781, Note_on_c, 0, 69, 0
1, 56784, Note_on_c, 0, 70, 83
1, 56784, Note_on_c, 0, 65, 83
1, 56784, Note_on_c, 1, 61, 79
1, 56829, Note_on_c, 0, 70, 0
1, 56829, Note_on_c, 0, 65, 0
1, 56829, Note_on_c, 1, 61, 0
1, 56832, Note_on_c, 0, 69, 83
1, 56832, Note_on_c, 0, 63, 83
1, 56832, Note_on_c, 1, 60, 79
1, 56877, Note_on_c, 0, 69, 0
1, 56877, Note_on_c, 0, 63, 0
1, 56877, Note_on_c, 1, 60, 0
1, 56880, Note_on_c, 0, 66, 83
1, 56880, Note_on_c, 0, 61, 83
1, 56880, Note_on_c, 1, 58, 79
1, 56925, Note_on_c, 0, 66, 0
1, 56925, Note_on_c, 0, 61, 0
1, 56925, Note_on_c, 1, 58, 0
1, 56928, Note_on_c, 0, 65, 83
1, 56928, Note_on_c, 0, 60, 83
1, 56928, Note_on_c, 1, 57, 79
1, 56973, Note_on_c, 0, 65, 0
1, 56973, Note_on_c, 0, 60, 0
1, 56973, Note_on_c, 1, 57, 0
1, 56976, Note_on_c, 0, 64, 83
1, 56976, Note_on_c, 0, 58, 83
1, 56976, Note_on_c, 1, 55, 79
1, 57021, Note_on_c, 0, 64, 0
1, 57021, Note_on_c, 0, 58, 0
1, 57021, Note_on_c, 1, 55, 0
1, 57024, Note_on_c, 0, 63, 83
1, 57024, Note_on_c, 0, 60, 83
1, 57024, Note_on_c, 1, 57, 79
1, 57201, Note_on_c, 0, 63, 0
1, 57201, Note_on_c, 0, 60, 0
1, 57201, Note_on_c, 1, 57, 0
1, 57201, Note_on_c, 1, 53, 0
1, 57216, Note_on_c, 1, 58, 68
1, 57231, Note_on_c, 1, 58, 0
1, 57232, Note_on_c, 1, 61, 68
1, 57247, Note_on_c, 1, 61, 0
1, 57248, Note_on_c, 1, 65, 68
1, 57263, Note_on_c, 1, 65, 0
1, 57264, Note_on_c, 1, 58, 68
1, 57279, Note_on_c, 1, 58, 0
1, 57280, Note_on_c, 1, 61, 68
1, 57295, Note_on_c, 1, 61, 0
1, 57296, Note_on_c, 1, 65, 68
1, 57311, Note_on_c, 1, 65, 0
1, 57312, Note_on_c, 1, 58, 68
1, 57327, Note_on_c, 1, 58, 0
1, 57328, Note_on_c, 1, 61, 68
1, 57343, Note_on_c, 1, 61, 0
1, 57344, Note_on_c, 1, 65, 68
1, 57359, Note_on_c, 1, 65, 0
1, 57360, Note_on_c, 0, 75, 74
1, 57360, Note_on_c, 1, 58, 68
1, 57372, Note_on_c, 0, 75, 0
1, 57372, Note_on_c, 0, 73, 74
1, 57375, Note_on_c, 1, 58, 0
1, 57376, Note_on_c, 1, 61, 68
1, 57384, Note_on_c, 0, 73, 0
1, 57384, Note_on_c, 0, 72, 74
1, 57391, Note_on_c, 1, 61, 0
1, 57392, Note_on_c, 1, 65, 68
1, 57396, Note_on_c, 0, 72, 0
1, 57396, Note_on_c, 0, 70, 74
1, 57407, Note_on_c, 1, 65, 0
1, 57408, Note_on_c, 0, 70, 0
1, 57408, Note_on_c, 0, 69, 74
1, 57408, Note_on_c, 1, 60, 68
1, 57423, Note_on_c, 1, 60, 0
1, 57424, Note_on_c, 1, 63, 68
1, 57428, Note_on_c, 0, 69, 0
1, 57439, Note_on_c, 1, 63, 0
1, 57440, Note_on_c, 1, 65, 68
1, 57455, Note_on_c, 1, 65, 0
1, 57456, Note_on_c, 1, 60, 68
1, 57471, Note_on_c, 1, 60, 0
1, 57472, Note_on_c, 1, 63, 68
1, 57487, Note_on_c, 1, 63, 0
1, 57488, Note_on_c, 1, 65, 68
1, 57503, Note_on_c, 1, 65, 0
1, 57504, Note_on_c, 1, 57, 68
1, 57519, Note_on_c, 1, 57, 0
1, 57520, Note_on_c, 1, 60, 68
1, 57535, Note_on_c, 1, 60, 0
1, 57536, Note_on_c, 1, 65, 68
1, 57551, Note_on_c, 1, 65, 0
1, 57552, Note_on_c, 0, 80, 74
1, 57552, Note_on_c, 1, 57, 68
1, 57564, Note_on_c, 0, 80, 0
1, 57564, Note_on_c, 0, 78, 74
1, 57567, Note_on_c, 1, 57, 0
1, 57568, Note_on_c, 1, 60, 68
1, 57576, Note_on_c, 0, 78, 0
1, 57576, Note_on_c, 0, 77, 74
1, 57583, Note_on_c, 1, 60, 0
1, 57584, Note_on_c, 1, 65, 68
1, 57588, Note_on_c, 0, 77, 0
1, 57588, Note_on_c, 0, 75, 74
1, 57599, Note_on_c, 1, 65, 0
1, 57600, Note_on_c, 0, 75, 0
1, 57600, Note_on_c, 0, 73, 74
1, 57600, Note_on_c, 1, 58, 68
1, 57615, Note_on_c, 1, 58, 0
1, 57616, Note_on_c, 1, 61, 68
1, 57620, Note_on_c, 0, 73, 0
1, 57631, Note_on_c, 1, 61, 0
1, 57632, Note_on_c, 1, 65, 68
1, 57647, Note_on_c, 1, 65, 0
1, 57648, Note_on_c, 1, 58, 68
1, 57663, Note_on_c, 1, 58, 0
1, 57664, Note_on_c, 1, 61, 68
1, 57679, Note_on_c, 1, 61, 0
1, 57680, Note_on_c, 1, 65, 68
1, 57695, Note_on_c, 1, 65, 0
1, 57696, Note_on_c, 1, 58, 68
1, 57711, Note_on_c, 1, 58, 0
1, 57712, Note_on_c, 1, 61, 68
1, 57727, Note_on_c, 1, 61, 0
1, 57728, Note_on_c, 1, 65, 68
1, 57743, Note_on_c, 1, 65, 0
1, 57744, Note_on_c, 0, 75, 74
1, 57744, Note_on_c, 1, 58, 68
1, 57756, Note_on_c, 0, 75, 0
1, 57756, Note_on_c, 0, 73, 74
1, 57759, Note_on_c, 1, 58, 0
1, 57760, Note_on_c, 1, 61, 68
1, 57768, Note_on_c, 0, 73, 0
1, 57768, Note_on_c, 0, 72, 74
1, 57775, Note_on_c, 1, 61, 0
1, 57776, Note_on_c, 1, 65, 68
1, 57780, Note_on_c, 0, 72, 0
1, 57780, Note_on_c, 0, 70, 74
1, 57791, Note_on_c, 1, 65, 0
1, 57792, Note_on_c, 0, 70, 0
1, 57792, Note_on_c, 0, 69, 74
1, 57792, Note_on_c, 1, 60, 68
1, 57807, Note_on_c, 1, 60, 0
1, 57808, Note_on_c, 1, 63, 68
1, 57812, Note_on_c, 0, 69, 0
1, 57823, Note_on_c, 1, 63, 0
1, 57824, Note_on_c, 1, 65, 68
1, 57839, Note_on_c, 1, 65, 0
1, 57840, Note_on_c, 1, 60, 68
1, 57855, Note_on_c, 1, 60, 0
1, 57856, Note_on_c, 1, 63, 68
1, 57871, Note_on_c, 1, 63, 0
1, 57872, Note_on_c, 1, 65, 68
1, 57887, Note_on_c, 1, 65, 0
1, 57888, Note_on_c, 1, 57, 68
1, 57903, Note_on_c, 1, 57, 0
1, 57904, Note_on_c, 1, 60, 68
1, 57919, Note_on_c, 1, 60, 0
1, 57920, Note_on_c, 1, 65, 68
1, 57935, Note_on_c, 1, 65, 0
1, 57936, Note_on_c, 0, 80, 74
1, 57936, Note_on_c, 1, 57, 68
1, 57948, Note_on_c, 0, 80, 0
1, 57948, Note_on_c, 0, 78, 74
1, 57951, Note_on_c, 1, 57, 0
1, 57952, Note_on_c, 1, 60, 68
1, 57960, Note_on_c, 0, 78, 0
1, 57960, Note_on_c, 0, 77, 74
1, 57967, Note_on_c, 1, 60, 0
1, 57968, Note_on_c, 1, 65, 68
1, 57972, Note_on_c, 0, 77, 0
1, 57972, Note_on_c, 0, 75, 74
1, 57983, Note_on_c, 1, 65, 0
1, 57984, Note_on_c, 0, 75, 0
1, 57984, Note_on_c, 0, 73, 74
1, 57984, Note_on_c, 1, 58, 68
1, 57999, Note_on_c, 1, 58, 0
1, 58000, Note_on_c, 1, 61, 68
1, 58004, Note_on_c, 0, 73, 0
1, 58015, Note_on_c, 1, 61, 0
1, 58016, Note_on_c, 1, 65, 68
1, 58031, Note_on_c, 1, 65, 0
1, 58032, Note_on_c, 1, 58, 68
1, 58047, Note_on_c, 1, 58, 0
1, 58048, Note_on_c, 1, 61, 68
1, 58063, Note_on_c, 1, 61, 0
1, 58064, Note_on_c, 1, 65, 68
1, 58079, Note_on_c, 1, 65, 0
1, 58080, Note_on_c, 1, 58, 68
1, 58095, Note_on_c, 1, 58, 0
1, 58096, Note_on_c, 1, 61, 68
1, 58111, Note_on_c, 1, 61, 0
1, 58112, Note_on_c, 1, 65, 68
1, 58127, Note_on_c, 1, 65, 0
1, 58128, Note_on_c, 0, 78, 74
1, 58128, Note_on_c, 1, 58, 68
1, 58140, Note_on_c, 0, 78, 0
1, 58140, Note_on_c, 0, 77, 74
1, 58143, Note_on_c, 1, 58, 0
1, 58144, Note_on_c, 1, 61, 68
1, 58152, Note_on_c, 0, 77, 0
1, 58152, Note_on_c, 0, 75, 74
1, 58159, Note_on_c, 1, 61, 0
1, 58160, Note_on_c, 1, 65, 68
1, 58164, Note_on_c, 0, 75, 0
1, 58164, Note_on_c, 0, 73, 74
1, 58175, Note_on_c, 1, 65, 0
1, 58176, Note_on_c, 0, 73, 0
1, 58176, Note_on_c, 0, 72, 74
1, 58176, Note_on_c, 1, 56, 68
1, 58191, Note_on_c, 1, 56, 0
1, 58192, Note_on_c, 1, 63, 68
1, 58196, Note_on_c, 0, 72, 0
1, 58207, Note_on_c, 1, 63, 0
1, 58208, Note_on_c, 1, 66, 68
1, 58223, Note_on_c, 1, 66, 0
1, 58224, Note_on_c, 1, 56, 68
1, 58239, Note_on_c, 1, 56, 0
1, 58240, Note_on_c, 1, 63, 68
1, 58255, Note_on_c, 1, 63, 0
1, 58256, Note_on_c, 1, 66, 68
1, 58271, Note_on_c, 1, 66, 0
1, 58272, Note_on_c, 1, 56, 68
1, 58287, Note_on_c, 1, 56, 0
1, 58288, Note_on_c, 1, 60, 68
1, 58303, Note_on_c, 1, 60, 0
1, 58304, Note_on_c, 1, 66, 68
1, 58319, Note_on_c, 1, 66, 0
1, 58320, Note_on_c, 0, 84, 74
1, 58320, Note_on_c, 1, 56, 68
1, 58332, Note_on_c, 0, 84, 0
1, 58332, Note_on_c, 0, 82, 74
1, 58335, Note_on_c, 1, 56, 0
1, 58336, Note_on_c, 1, 60, 68
1, 58344, Note_on_c, 0, 82, 0
1, 58344, Note_on_c, 0, 80, 74
1, 58351, Note_on_c, 1, 60, 0
1, 58352, Note_on_c, 1, 66, 68
1, 58356, Note_on_c, 0, 80, 0
1, 58356, Note_on_c, 0, 78, 74
1, 58367, Note_on_c, 1, 66, 0
1, 58368, Note_on_c, 0, 78, 0
1, 58368, Note_on_c, 0, 77, 74
1, 58368, Note_on_c, 1, 61, 68
1, 58383, Note_on_c, 1, 61, 0
1, 58384, Note_on_c, 1, 65, 68
1, 58388, Note_on_c, 0, 77, 0
1, 58399, Note_on_c, 1, 65, 0
1, 58400, Note_on_c, 1, 68, 68
1, 58415, Note_on_c, 1, 68, 0
1, 58416, Note_on_c, 1, 61, 68
1, 58431, Note_on_c, 1, 61, 0
1, 58432, Note_on_c, 1, 65, 68
1, 58447, Note_on_c, 1, 65, 0
1, 58448, Note_on_c, 1, 68, 68
1, 58463, Note_on_c, 1, 68, 0
1, 58464, Note_on_c, 1, 61, 68
1, 58479, Note_on_c, 1, 61, 0
1, 58480, Note_on_c, 1, 65, 68
1, 58495, Note_on_c, 1, 65, 0
1, 58496, Note_on_c, 1, 68, 68
1, 58511, Note_on_c, 1, 68, 0
1, 58512, Note_on_c, 0, 78, 74
1, 58512, Note_on_c, 1, 61, 68
1, 58524, Note_on_c, 0, 78, 0
1, 58524, Note_on_c, 0, 77, 74
1, 58527, Note_on_c, 1, 61, 0
1, 58528, Note_on_c, 1, 65, 68
1, 58536, Note_on_c, 0, 77, 0
1, 58536, Note_on_c, 0, 75, 74
1, 58543, Note_on_c, 1, 65, 0
1, 58544, Note_on_c, 1, 68, 68
1, 58548, Note_on_c, 0, 75, 0
1, 58548, Note_on_c, 0, 73, 74
1, 58559, Note_on_c, 1, 68, 0
1, 58560, Note_on_c, 0, 73, 0
1, 58560, Note_on_c, 0, 72, 74
1, 58560, Note_on_c, 1, 63, 68
1, 58575, Note_on_c, 1, 63, 0
1, 58576, Note_on_c, 1, 66, 68
1, 58580, Note_on_c, 0, 72, 0
1, 58591, Note_on_c, 1, 66, 0
1, 58592, Note_on_c, 1, 68, 68
1, 58607, Note_on_c, 1, 68, 0
1, 58608, Note_on_c, 1, 63, 68
1, 58623, Note_on_c, 1, 63, 0
1, 58624, Note_on_c, 1, 66, 68
1, 58639, Note_on_c, 1, 66, 0
1, 58640, Note_on_c, 1, 68, 68
1, 58655, Note_on_c, 1, 68, 0
1, 58656, Note_on_c, 1, 60, 68
1, 58671, Note_on_c, 1, 60, 0
1, 58672, Note_on_c, 1, 63, 68
1, 58687, Note_on_c, 1, 63, 0
1, 58688, Note_on_c, 1, 68, 68
1, 58703, Note_on_c, 1, 68, 0
1, 58704, Note_on_c, 0, 84, 74
1, 58704, Note_on_c, 1, 60, 68
1, 58716, Note_on_c, 0, 84, 0
1, 58716, Note_on_c, 0, 82, 74
1, 58719, Note_on_c, 1, 60, 0
1, 58720, Note_on_c, 1, 63, 68
1, 58728, Note_on_c, 0, 82, 0
1, 58728, Note_on_c, 0, 80, 74
1, 58735, Note_on_c, 1, 63, 0
1, 58736, Note_on_c, 1, 68, 68
1, 58740, Note_on_c, 0, 80, 0
1, 58740, Note_on_c, 0, 78, 74
1, 58751, Note_on_c, 1, 68, 0
1, 58752, Note_on_c, 0, 78, 0
1, 58752, Note_on_c, 0, 77, 74
1, 58752, Note_on_c, 1, 61, 68
1, 58772, Note_on_c, 0, 77, 0
1, 58800, Note_on_c, 0, 89, 90
1, 58816, Note_on_c, 0, 89, 0
1, 58816, Note_on_c, 0, 87, 74
1, 58831, Note_on_c, 0, 87, 0
1, 58832, Note_on_c, 0, 85, 74
1, 58841, Note_on_c, 1, 61, 0
1, 58847, Note_on_c, 0, 85, 0
1, 58848, Note_on_c, 0, 84, 74
1, 58863, Note_on_c, 0, 84, 0
1, 58864, Note_on_c, 0, 82, 74
1, 58879, Note_on_c, 0, 82, 0
1, 58880, Note_on_c, 0, 80, 74
1, 58895, Note_on_c, 0, 80, 0
1, 58896, Note_on_c, 0, 78, 74
1, 58911, Note_on_c, 0, 78, 0
1, 58912, Note_on_c, 0, 77, 74
1, 58927, Note_on_c, 0, 77, 0
1, 58928, Note_on_c, 0, 75, 74
1, 58943, Note_on_c, 0, 75, 0
1, 58944, Note_on_c, 0, 73, 74
1, 58964, Note_on_c, 0, 73, 0
1, 58992, Note_on_c, 0, 77, 83
1, 58992, Note_on_c, 1, 65, 83
1, 59007, Note_on_c, 0, 77, 0
1, 59007, Note_on_c, 1, 65, 0
1, 59008, Note_on_c, 0, 75, 83
1, 59008, Note_on_c, 1, 63, 83
1, 59023, Note_on_c, 0, 75, 0
1, 59023, Note_on_c, 1, 63, 0
1, 59024, Note_on_c, 0, 73, 83
1, 59024, Note_on_c, 1, 61, 83
1, 59039, Note_on_c, 0, 73, 0
1, 59039, Note_on_c, 1, 61, 0
1, 59040, Note_on_c, 0, 72, 83
1, 59040, Note_on_c, 1, 60, 83
1, 59055, Note_on_c, 0, 72, 0
1, 59055, Note_on_c, 1, 60, 0
1, 59056, Note_on_c, 0, 70, 83
1, 59056, Note_on_c, 1, 58, 83
1, 59071, Note_on_c, 0, 70, 0
1, 59071, Note_on_c, 1, 58, 0
1, 59072, Note_on_c, 0, 68, 83
1, 59072, Note_on_c, 1, 56, 83
1, 59087, Note_on_c, 0, 68, 0
1, 59087, Note_on_c, 1, 56, 0
1, 59088, Note_on_c, 0, 66, 83
1, 59088, Note_on_c, 1, 54, 83
1, 59103, Note_on_c, 0, 66, 0
1, 59103, Note_on_c, 1, 54, 0
1, 59104, Note_on_c, 0, 65, 83
1, 59104, Note_on_c, 1, 53, 83
1, 59119, Note_on_c, 0, 65, 0
1, 59119, Note_on_c, 1, 53, 0
1, 59120, Note_on_c, 0, 63, 83
1, 59120, Note_on_c, 1, 51, 83
1, 59135, Note_on_c, 0, 63, 0
1, 59135, Note_on_c, 1, 51, 0
1, 59136, Note_on_c, 0, 61, 83
1, 59136, Note_on_c, 1, 49, 83
1, 59225, Note_on_c, 0, 61, 0
1, 59225, Note_on_c, 1, 49, 0
1, 59232, Note_on_c, 0, 59, 83
1, 59232, Note_on_c, 1, 47, 83
1, 59241, Note_on_c, 0, 59, 0
1, 59241, Note_on_c, 0, 61, 83
1, 59243, Note_on_c, 1, 47, 0
1, 59243, Note_on_c, 1, 49, 83
1, 59250, Note_on_c, 0, 61, 0
1, 59250, Note_on_c, 0, 59, 83
1, 59254, Note_on_c, 1, 49, 0
1, 59254, Note_on_c, 1, 47, 83
1, 59259, Note_on_c, 0, 59, 0
1, 59259, Note_on_c, 0, 61, 83
1, 59265, Note_on_c, 1, 47, 0
1, 59265, Note_on_c, 1, 49, 83
1, 59268, Note_on_c, 0, 61, 0
1, 59268, Note_on_c, 0, 59, 83
1, 59276, Note_on_c, 1, 49, 0
1, 59276, Note_on_c, 1, 47, 83
1, 59277, Note_on_c, 0, 59, 0
1, 59277, Note_on_c, 0, 61, 83
1, 59286, Note_on_c, 0, 61, 0
1, 59286, Note_on_c, 0, 59, 83
1, 59287, Note_on_c, 1, 47, 0
1, 59287, Note_on_c, 1, 49, 83
1, 59295, Note_on_c, 0, 59, 0
1, 59295, Note_on_c, 0, 61, 83
1, 59298, Note_on_c, 1, 49, 0
1, 59298, Note_on_c, 1, 47, 83
1, 59304, Note_on_c, 0, 61, 0
1, 59304, Note_on_c, 0, 59, 83
1, 59308, Note_on_c, 1, 47, 0
1, 59308, Note_on_c, 1, 46, 83
1, 59312, Note_on_c, 0, 59, 0
1, 59312, Note_on_c, 0, 58, 83
1, 59318, Note_on_c, 1, 46, 0
1, 59318, Note_on_c, 1, 47, 83
1, 59320, Note_on_c, 0, 58, 0
1, 59320, Note_on_c, 0, 59, 83
1, 59328, Note_on_c, 0, 59, 0
1, 59328, Note_on_c, 0, 58, 83
1, 59328, Note_on_c, 1, 47, 0
1, 59328, Note_on_c, 1, 46, 83
1, 59328, Note_on_c, 1, 34, 83
1, 59343, Note_on_c, 0, 58, 0
1, 59344, Note_on_c, 0, 62, 83
1, 59359, Note_on_c, 0, 62, 0
1, 59360, Note_on_c, 0, 65, 83
1, 59375, Note_on_c, 0, 65, 0
1, 59376, Note_on_c, 0, 62, 83
1, 59391, Note_on_c, 0, 62, 0
1, 59392, Note_on_c, 0, 65, 83
1, 59407, Note_on_c, 0, 65, 0
1, 59408, Note_on_c, 0, 70, 84
1, 59423, Note_on_c, 0, 70, 0
1, 59424, Note_on_c, 0, 65, 84
1, 59439, Note_on_c, 0, 65, 0
1, 59440, Note_on_c, 0, 70, 84
1, 59455, Note_on_c, 0, 70, 0
1, 59456, Note_on_c, 0, 74, 84
1, 59471, Note_on_c, 0, 74, 0
1, 59472, Note_on_c, 0, 70, 84
1, 59487, Note_on_c, 0, 70, 0
1, 59488, Note_on_c, 0, 74, 85
1, 59503, Note_on_c, 0, 74, 0
1, 59504, Note_on_c, 0, 77, 85
1, 59505, Note_on_c, 1, 46, 0
1, 59505, Note_on_c, 1, 34, 0
1, 59519, Note_on_c, 0, 77, 0
1, 59520, Note_on_c, 0, 74, 85
1, 59535, Note_on_c, 0, 74, 0
1, 59536, Note_on_c, 0, 77, 85
1, 59551, Note_on_c, 0, 77, 0
1, 59552, Note_on_c, 0, 80, 85
1, 59567, Note_on_c, 0, 80, 0
1, 59568, Note_on_c, 0, 77, 86
1, 59583, Note_on_c, 0, 77, 0
1, 59584, Note_on_c, 0, 80, 86
1, 59599, Note_on_c, 0, 80, 0
1, 59600, Note_on_c, 0, 83, 86
1, 59615, Note_on_c, 0, 83, 0
1, 59616, Note_on_c, 0, 82, 83
1, 59631, Note_on_c, 0, 82, 0
1, 59632, Note_on_c, 0, 80, 81
1, 59647, Note_on_c, 0, 80, 0
1, 59648, Note_on_c, 0, 78, 80
1, 59663, Note_on_c, 0, 78, 0
1, 59664, Note_on_c, 0, 77, 79
1, 59679, Note_on_c, 0, 77, 0
1, 59680, Note_on_c, 0, 75, 78
1, 59695, Note_on_c, 0, 75, 0
1, 59696, Note_on_c, 0, 74, 76
1, 59711, Note_on_c, 0, 74, 0
1, 59712, Note_on_c, 0, 75, 75
1, 59712, Note_on_c, 1, 63, 62
1, 59727, Note_on_c, 1, 63, 0
1, 59728, Note_on_c, 1, 66, 62
1, 59743, Note_on_c, 1, 66, 0
1, 59744, Note_on_c, 1, 70, 62
1, 59757, Note_on_c, 0, 75, 0
1, 59759, Note_on_c, 1, 70, 0
1, 59760, Note_on_c, 1, 63, 62
1, 59775, Note_on_c, 1, 63, 0
1, 59776, Note_on_c, 1, 66, 62
1, 59791, Note_on_c, 1, 66, 0
1, 59792, Note_on_c, 1, 70, 62
1, 59807, Note_on_c, 1, 70, 0
1, 59808, Note_on_c, 1, 63, 62
1, 59823, Note_on_c, 1, 63, 0
1, 59824, Note_on_c, 1, 66, 62
1, 59839, Note_on_c, 1, 66, 0
1, 59840, Note_on_c, 1, 70, 62
1, 59855, Note_on_c, 1, 70, 0
1, 59856, Note_on_c, 0, 80, 68
1, 59856, Note_on_c, 1, 63, 62
1, 59868, Note_on_c, 0, 80, 0
1, 59868, Note_on_c, 0, 78, 68
1, 59871, Note_on_c, 1, 63, 0
1, 59872, Note_on_c, 1, 66, 62
1, 59880, Note_on_c, 0, 78, 0
1, 59880, Note_on_c, 0, 77, 68
1, 59887, Note_on_c, 1, 66, 0
1, 59888, Note_on_c, 1, 70, 62
1, 59892, Note_on_c, 0, 77, 0
1, 59892, Note_on_c, 0, 75, 68
1, 59903, Note_on_c, 1, 70, 0
1, 59904, Note_on_c, 0, 75, 0
1, 59904, Note_on_c, 0, 74, 68
1, 59904, Note_on_c, 1, 65, 62
1, 59919, Note_on_c, 1, 65, 0
1, 59920, Note_on_c, 1, 68, 62
1, 59924, Note_on_c, 0, 74, 0
1, 59935, Note_on_c, 1, 68, 0
1, 59936, Note_on_c, 1, 70, 62
1, 59951, Note_on_c, 1, 70, 0
1, 59952, Note_on_c, 1, 65, 62
1, 59967, Note_on_c, 1, 65, 0
1, 59968, Note_on_c, 1, 68, 62
1, 59983, Note_on_c, 1, 68, 0
1, 59984, Note_on_c, 1, 70, 62
1, 59999, Note_on_c, 1, 70, 0
1, 60000, Note_on_c, 1, 62, 62
1, 60015, Note_on_c, 1, 62, 0
1, 60016, Note_on_c, 1, 65, 62
1, 60031, Note_on_c, 1, 65, 0
1, 60032, Note_on_c, 1, 70, 62
1, 60047, Note_on_c, 1, 70, 0
1, 60048, Note_on_c, 0, 85, 68
1, 60048, Note_on_c, 1, 62, 62
1, 60060, Note_on_c, 0, 85, 0
1, 60060, Note_on_c, 0, 83, 68
1, 60063, Note_on_c, 1, 62, 0
1, 60064, Note_on_c, 1, 65, 62
1, 60072, Note_on_c, 0, 83, 0
1, 60072, Note_on_c, 0, 82, 68
1, 60079, Note_on_c, 1, 65, 0
1, 60080, Note_on_c, 1, 70, 62
1, 60084, Note_on_c, 0, 82, 0
1, 60084, Note_on_c, 0, 80, 68
1, 60095, Note_on_c, 1, 70, 0
1, 60096, Note_on_c, 0, 80, 0
1, 60096, Note_on_c, 0, 78, 68
1, 60096, Note_on_c, 1, 63, 62
1, 60111, Note_on_c, 1, 63, 0
1, 60112, Note_on_c, 1, 66, 62
1, 60116, Note_on_c, 0, 78, 0
1, 60127, Note_on_c, 1, 66, 0
1, 60128, Note_on_c, 1, 70, 62
1, 60143, Note_on_c, 1, 70, 0
1, 60144, Note_on_c, 1, 63, 62
1, 60159, Note_on_c, 1, 63, 0
1, 60160, Note_on_c, 1, 66, 62
1, 60175, Note_on_c, 1, 66, 0
1, 60176, Note_on_c, 1, 70, 62
1, 60191, Note_on_c, 1, 70, 0
1, 60192, Note_on_c, 1, 63, 62
1, 60207, Note_on_c, 1, 63, 0
1, 60208, Note_on_c, 1, 66, 62
1, 60223, Note_on_c, 1, 66, 0
1, 60224, Note_on_c, 1, 70, 62
1, 60239, Note_on_c, 1, 70, 0
1, 60240, Note_on_c, 0, 80, 68
1, 60240, Note_on_c, 1, 63, 62
1, 60252, Note_on_c, 0, 80, 0
1, 60252, Note_on_c, 0, 78, 68
1, 60255, Note_on_c, 1, 63, 0
1, 60256, Note_on_c, 1, 66, 62
1, 60264, Note_on_c, 0, 78, 0
1, 60264, Note_on_c, 0, 77, 68
1, 60271, Note_on_c, 1, 66, 0
1, 60272, Note_on_c, 1, 70, 62
1, 60276, Note_on_c, 0, 77, 0
1, 60276, Note_on_c, 0, 75, 68
1, 60287, Note_on_c, 1, 70, 0
1, 60288, Note_on_c, 0, 75, 0
1, 60288, Note_on_c, 0, 74, 68
1, 60288, Note_on_c, 1, 65, 62
1, 60303, Note_on_c, 1, 65, 0
1, 60304, Note_on_c, 1, 68, 62
1, 60308, Note_on_c, 0, 74, 0
1, 60319, Note_on_c, 1, 68, 0
1, 60320, Note_on_c, 1, 70, 62
1, 60335, Note_on_c, 1, 70, 0
1, 60336, Note_on_c, 1, 65, 62
1, 60351, Note_on_c, 1, 65, 0
1, 60352, Note_on_c, 1, 68, 62
1, 60367, Note_on_c, 1, 68, 0
1, 60368, Note_on_c, 1, 70, 62
1, 60383, Note_on_c, 1, 70, 0
1, 60384, Note_on_c, 1, 62, 62
1, 60399, Note_on_c, 1, 62, 0
1, 60400, Note_on_c, 1, 65, 62
1, 60415, Note_on_c, 1, 65, 0
1, 60416, Note_on_c, 1, 70, 62
1, 60431, Note_on_c, 1, 70, 0
1, 60432, Note_on_c, 0, 85, 68
1, 60432, Note_on_c, 1, 62, 62
1, 60444, Note_on_c, 0, 85, 0
1, 60444, Note_on_c, 0, 83, 68
1, 60447, Note_on_c, 1, 62, 0
1, 60448, Note_on_c, 1, 65, 62
1, 60456, Note_on_c, 0, 83, 0
1, 60456, Note_on_c, 0, 82, 68
1, 60463, Note_on_c, 1, 65, 0
1, 60464, Note_on_c, 1, 70, 62
1, 60468, Note_on_c, 0, 82, 0
1, 60468, Note_on_c, 0, 80, 68
1, 60479, Note_on_c, 1, 70, 0
1, 60480, Note_on_c, 0, 80, 0
1, 60480, Note_on_c, 0, 78, 68
1, 60480, Note_on_c, 1, 63, 68
1, 60495, Note_on_c, 1, 63, 0
1, 60496, Note_on_c, 1, 66, 68
1, 60511, Note_on_c, 1, 66, 0
1, 60512, Note_on_c, 1, 70, 69
1, 60527, Note_on_c, 1, 70, 0
1, 60528, Note_on_c, 1, 63, 70
1, 60543, Note_on_c, 1, 63, 0
1, 60544, Note_on_c, 1, 66, 71
1, 60559, Note_on_c, 1, 66, 0
1, 60560, Note_on_c, 1, 70, 71
1, 60569, Note_on_c, 0, 78, 0
1, 60575, Note_on_c, 1, 70, 0
1, 60576, Note_on_c, 0, 79, 83
1, 60576, Note_on_c, 1, 63, 74
1, 60585, Note_on_c, 0, 79, 0
1, 60585, Note_on_c, 0, 80, 83
1, 60591, Note_on_c, 1, 63, 0
1, 60592, Note_on_c, 1, 70, 74
1, 60594, Note_on_c, 0, 80, 0
1, 60594, Note_on_c, 0, 79, 83
1, 60603, Note_on_c, 0, 79, 0
1, 60603, Note_on_c, 0, 80, 83
1, 60607, Note_on_c, 1, 70, 0
1, 60608, Note_on_c, 1, 73, 74
1, 60612, Note_on_c, 0, 80, 0
1, 60612, Note_on_c, 0, 79, 83
1, 60621, Note_on_c, 0, 79, 0
1, 60621, Note_on_c, 0, 80, 83
1, 60623, Note_on_c, 1, 73, 0
1, 60624, Note_on_c, 1, 63, 74
1, 60630, Note_on_c, 0, 80, 0
1, 60630, Note_on_c, 0, 79, 83
1, 60639, Note_on_c, 0, 79, 0
1, 60639, Note_on_c, 0, 80, 83
1, 60639, Note_on_c, 1, 63, 0
1, 60640, Note_on_c, 1, 70, 74
1, 60648, Note_on_c, 0, 80, 0
1, 60648, Note_on_c, 0, 79, 83
1, 60655, Note_on_c, 1, 70, 0
1, 60656, Note_on_c, 0, 79, 0
1, 60656, Note_on_c, 0, 77, 83
1, 60656, Note_on_c, 1, 73, 74
1, 60664, Note_on_c, 0, 77, 0
1, 60664, Note_on_c, 0, 79, 83
1, 60671, Note_on_c, 1, 73, 0
1, 60672, Note_on_c, 0, 79, 0
1, 60672, Note_on_c, 0, 80, 83
1, 60672, Note_on_c, 1, 63, 74
1, 60687, Note_on_c, 1, 63, 0
1, 60688, Note_on_c, 1, 68, 74
1, 60695, Note_on_c, 0, 80, 0
1, 60696, Note_on_c, 0, 82, 83
1, 60703, Note_on_c, 1, 68, 0
1, 60704, Note_on_c, 0, 82, 0
1, 60704, Note_on_c, 0, 80, 83
1, 60704, Note_on_c, 1, 71, 74
1, 60712, Note_on_c, 0, 80, 0
1, 60712, Note_on_c, 0, 79, 83
1, 60719, Note_on_c, 1, 71, 0
1, 60720, Note_on_c, 0, 79, 0
1, 60720, Note_on_c, 0, 80, 83
1, 60720, Note_on_c, 1, 63, 74
1, 60735, Note_on_c, 1, 63, 0
1, 60736, Note_on_c, 1, 68, 74
1, 60743, Note_on_c, 0, 80, 0
1, 60744, Note_on_c, 0, 82, 83
1, 60751, Note_on_c, 1, 68, 0
1, 60752, Note_on_c, 1, 71, 74
1, 60767, Note_on_c, 0, 82, 0
1, 60767, Note_on_c, 1, 71, 0
1, 60768, Note_on_c, 0, 85, 83
1, 60768, Note_on_c, 1, 63, 74
1, 60783, Note_on_c, 1, 63, 0
1, 60784, Note_on_c, 1, 68, 74
1, 60791, Note_on_c, 0, 85, 0
1, 60792, Note_on_c, 0, 83, 83
1, 60799, Note_on_c, 1, 68, 0
1, 60800, Note_on_c, 1, 71, 74
1, 60815, Note_on_c, 0, 83, 0
1, 60815, Note_on_c, 1, 71, 0
1, 60816, Note_on_c, 0, 82, 83
1, 60816, Note_on_c, 1, 63, 74
1, 60831, Note_on_c, 1, 63, 0
1, 60832, Note_on_c, 1, 68, 74
1, 60839, Note_on_c, 0, 82, 0
1, 60840, Note_on_c, 0, 80, 83
1, 60847, Note_on_c, 1, 68, 0
1, 60848, Note_on_c, 1, 71, 74
1, 60863, Note_on_c, 0, 80, 0
1, 60863, Note_on_c, 1, 71, 0
1, 60864, Note_on_c, 0, 78, 83
1, 60864, Note_on_c, 1, 61, 74
1, 60879, Note_on_c, 1, 61, 0
1, 60880, Note_on_c, 1, 68, 74
1, 60895, Note_on_c, 1, 68, 0
1, 60896, Note_on_c, 1, 71, 74
1, 60911, Note_on_c, 1, 71, 0
1, 60912, Note_on_c, 1, 61, 74
1, 60927, Note_on_c, 1, 61, 0
1, 60928, Note_on_c, 1, 68, 74
1, 60943, Note_on_c, 1, 68, 0
1, 60944, Note_on_c, 1, 71, 74
1, 60953, Note_on_c, 0, 78, 0
1, 60959, Note_on_c, 1, 71, 0
1, 60960, Note_on_c, 0, 77, 83
1, 60960, Note_on_c, 1, 61, 74
1, 60969, Note_on_c, 0, 77, 0
1, 60969, Note_on_c, 0, 78, 83
1, 60975, Note_on_c, 1, 61, 0
1, 60976, Note_on_c, 1, 68, 74
1, 60978, Note_on_c, 0, 78, 0
1, 60978, Note_on_c, 0, 77, 83
1, 60987, Note_on_c, 0, 77, 0
1, 60987, Note_on_c, 0, 78, 83
1, 60991, Note_on_c, 1, 68, 0
1, 60992, Note_on_c, 1, 71, 74
1, 60996, Note_on_c, 0, 78, 0
1, 60996, Note_on_c, 0, 77, 83
1, 61005, Note_on_c, 0, 77, 0
1, 61005, Note_on_c, 0, 78, 83
1, 61007, Note_on_c, 1, 71, 0
1, 61008, Note_on_c, 1, 61, 74
1, 61014, Note_on_c, 0, 78, 0
1, 61014, Note_on_c, 0, 77, 83
1, 61023, Note_on_c, 0, 77, 0
1, 61023, Note_on_c, 0, 78, 83
1, 61023, Note_on_c, 1, 61, 0
1, 61024, Note_on_c, 1, 68, 74
1, 61032, Note_on_c, 0, 78, 0
1, 61032, Note_on_c, 0, 77, 83
1, 61039, Note_on_c, 1, 68, 0
1, 61040, Note_on_c, 0, 77, 0
1, 61040, Note_on_c, 0, 75, 83
1, 61040, Note_on_c, 1, 71, 74
1, 61048, Note_on_c, 0, 75, 0
1, 61048, Note_on_c, 0, 77, 83
1, 61055, Note_on_c, 1, 71, 0
1, 61056, Note_on_c, 0, 77, 0
1, 61056, Note_on_c, 0, 78, 83
1, 61056, Note_on_c, 1, 61, 74
1, 61071, Note_on_c, 1, 61, 0
1, 61072, Note_on_c, 1, 66, 74
1, 61079, Note_on_c, 0, 78, 0
1, 61080, Note_on_c, 0, 80, 83
1, 61087, Note_on_c, 1, 66, 0
1, 61088, Note_on_c, 0, 80, 0
1, 61088, Note_on_c, 0, 78, 83
1, 61088, Note_on_c, 1, 70, 74
1, 61096, Note_on_c, 0, 78, 0
1, 61096, Note_on_c, 0, 77, 83
1, 61103, Note_on_c, 1, 70, 0
1, 61104, Note_on_c, 0, 77, 0
1, 61104, Note_on_c, 0, 78, 83
1, 61104, Note_on_c, 1, 61, 74
1, 61119, Note_on_c, 1, 61, 0
1, 61120, Note_on_c, 1, 66, 74
1, 61127, Note_on_c, 0, 78, 0
1, 61128, Note_on_c, 0, 80, 83
1, 61135, Note_on_c, 1, 66, 0
1, 61136, Note_on_c, 1, 70, 74
1, 61151, Note_on_c, 0, 80, 0
1, 61151, Note_on_c, 1, 70, 0
1, 61152, Note_on_c, 0, 83, 83
1, 61152, Note_on_c, 1, 61, 74
1, 61167, Note_on_c, 1, 61, 0
1, 61168, Note_on_c, 1, 66, 74
1, 61175, Note_on_c, 0, 83, 0
1, 61176, Note_on_c, 0, 82, 83
1, 61183, Note_on_c, 1, 66, 0
1, 61184, Note_on_c, 1, 70, 74
1, 61199, Note_on_c, 0, 82, 0
1, 61199, Note_on_c, 1, 70, 0
1, 61200, Note_on_c, 0, 80, 83
1, 61200, Note_on_c, 1, 61, 74
1, 61215, Note_on_c, 1, 61, 0
1, 61216, Note_on_c, 1, 66, 74
1, 61223, Note_on_c, 0, 80, 0
1, 61224, Note_on_c, 0, 78, 83
1, 61231, Note_on_c, 1, 66, 0
1, 61232, Note_on_c, 1, 70, 74
1, 61247, Note_on_c, 0, 78, 0
1, 61247, Note_on_c, 1, 70, 0
1, 61248, Note_on_c, 0, 77, 83
1, 61248, Note_on_c, 1, 59, 74
1, 61263, Note_on_c, 1, 59, 0
1, 61264, Note_on_c, 1, 66, 74
1, 61279, Note_on_c, 1, 66, 0
1, 61280, Note_on_c, 1, 70, 74
1, 61295, Note_on_c, 1, 70, 0
1, 61296, Note_on_c, 1, 59, 74
1, 61311, Note_on_c, 1, 59, 0
1, 61312, Note_on_c, 1, 66, 74
1, 61327, Note_on_c, 1, 66, 0
1, 61328, Note_on_c, 1, 70, 74
1, 61337, Note_on_c, 0, 77, 0
1, 61343, Note_on_c, 1, 70, 0
1, 61344, Note_on_c, 0, 75, 83
1, 61344, Note_on_c, 1, 59, 74
1, 61353, Note_on_c, 0, 75, 0
1, 61353, Note_on_c, 0, 77, 83
1, 61359, Note_on_c, 1, 59, 0
1, 61360, Note_on_c, 1, 66, 74
1, 61362, Note_on_c, 0, 77, 0
1, 61362, Note_on_c, 0, 75, 83
1, 61371, Note_on_c, 0, 75, 0
1, 61371, Note_on_c, 0, 77, 83
1, 61375, Note_on_c, 1, 66, 0
1, 61376, Note_on_c, 1, 70, 74
1, 61380, Note_on_c, 0, 77, 0
1, 61380, Note_on_c, 0, 75, 83
1, 61389, Note_on_c, 0, 75, 0
1, 61389, Note_on_c, 0, 77, 83
1, 61391, Note_on_c, 1, 70, 0
1, 61392, Note_on_c, 1, 59, 74
1, 61398, Note_on_c, 0, 77, 0
1, 61398, Note_on_c, 0, 75, 83
1, 61407, Note_on_c, 0, 75, 0
1, 61407, Note_on_c, 0, 77, 83
1, 61407, Note_on_c, 1, 59, 0
1, 61408, Note_on_c, 1, 66, 74
1, 61416, Note_on_c, 0, 77, 0
1, 61416, Note_on_c, 0, 75, 83
1, 61423, Note_on_c, 1, 66, 0
1, 61424, Note_on_c, 0, 75, 0
1, 61424, Note_on_c, 0, 74, 83
1, 61424, Note_on_c, 1, 70, 74
1, 61432, Note_on_c, 0, 74, 0
1, 61432, Note_on_c, 0, 75, 83
1, 61439, Note_on_c, 1, 70, 0
1, 61440, Note_on_c, 0, 75, 0
1, 61440, Note_on_c, 0, 77, 83
1, 61440, Note_on_c, 1, 59, 74
1, 61455, Note_on_c, 1, 59, 0
1, 61456, Note_on_c, 1, 65, 74
1, 61463, Note_on_c, 0, 77, 0
1, 61464, Note_on_c, 0, 78, 83
1, 61471, Note_on_c, 1, 65, 0
1, 61472, Note_on_c, 0, 78, 0
1, 61472, Note_on_c, 0, 77, 83
1, 61472, Note_on_c, 1, 68, 74
1, 61480, Note_on_c, 0, 77, 0
1, 61480, Note_on_c, 0, 75, 83
1, 61487, Note_on_c, 1, 68, 0
1, 61488, Note_on_c, 0, 75, 0
1, 61488, Note_on_c, 0, 77, 83
1, 61488, Note_on_c, 1, 59, 74
1, 61503, Note_on_c, 1, 59, 0
1, 61504, Note_on_c, 1, 65, 74
1, 61511, Note_on_c, 0, 77, 0
1, 61512, Note_on_c, 0, 78, 83
1, 61519, Note_on_c, 1, 65, 0
1, 61520, Note_on_c, 1, 68, 74
1, 61535, Note_on_c, 0, 78, 0
1, 61535, Note_on_c, 1, 68, 0
1, 61536, Note_on_c, 0, 82, 83
1, 61536, Note_on_c, 1, 59, 74
1, 61551, Note_on_c, 1, 59, 0
1, 61552, Note_on_c, 1, 65, 74
1, 61559, Note_on_c, 0, 82, 0
1, 61560, Note_on_c, 0, 80, 83
1, 61567, Note_on_c, 1, 65, 0
1, 61568, Note_on_c, 1, 68, 74
1, 61583, Note_on_c, 0, 80, 0
1, 61583, Note_on_c, 1, 68, 0
1, 61584, Note_on_c, 0, 78, 83
1, 61584, Note_on_c, 1, 59, 74
1, 61599, Note_on_c, 1, 59, 0
1, 61600, Note_on_c, 1, 65, 74
1, 61607, Note_on_c, 0, 78, 0
1, 61608, Note_on_c, 0, 77, 83
1, 61615, Note_on_c, 1, 65, 0
1, 61616, Note_on_c, 1, 68, 74
1, 61631, Note_on_c, 0, 77, 0
1, 61631, Note_on_c, 1, 68, 0
1, 61632, Note_on_c, 0, 75, 83
1, 61632, Note_on_c, 1, 58, 74
1, 61647, Note_on_c, 1, 58, 0
1, 61648, Note_on_c, 1, 65, 74
1, 61663, Note_on_c, 1, 65, 0
1, 61664, Note_on_c, 1, 68, 74
1, 61679, Note_on_c, 1, 68, 0
1, 61680, Note_on_c, 1, 58, 74
1, 61695, Note_on_c, 1, 58, 0
1, 61696, Note_on_c, 1, 65, 74
1, 61711, Note_on_c, 1, 65, 0
1, 61712, Note_on_c, 1, 68, 74
1, 61721, Note_on_c, 0, 75, 0
1, 61727, Note_on_c, 1, 68, 0
1, 61728, Note_on_c, 0, 74, 83
1, 61728, Note_on_c, 1, 58, 74
1, 61737, Note_on_c, 0, 74, 0
1, 61737, Note_on_c, 0, 75, 83
1, 61743, Note_on_c, 1, 58, 0
1, 61744, Note_on_c, 1, 65, 74
1, 61746, Note_on_c, 0, 75, 0
1, 61746, Note_on_c, 0, 74, 83
1, 61755, Note_on_c, 0, 74, 0
1, 61755, Note_on_c, 0, 75, 83
1, 61759, Note_on_c, 1, 65, 0
1, 61760, Note_on_c, 1, 68, 74
1, 61764, Note_on_c, 0, 75, 0
1, 61764, Note_on_c, 0, 74, 83
1, 61773, Note_on_c, 0, 74, 0
1, 61773, Note_on_c, 0, 75, 83
1, 61775, Note_on_c, 1, 68, 0
1, 61776, Note_on_c, 1, 58, 74
1, 61782, Note_on_c, 0, 75, 0
1, 61782, Note_on_c, 0, 74, 83
1, 61791, Note_on_c, 0, 74, 0
1, 61791, Note_on_c, 0, 75, 83
1, 61791, Note_on_c, 1, 58, 0
1, 61792, Note_on_c, 1, 65, 74
1, 61800, Note_on_c, 0, 75, 0
1, 61800, Note_on_c, 0, 74, 83
1, 61807, Note_on_c, 1, 65, 0
1, 61808, Note_on_c, 0, 74, 0
1, 61808, Note_on_c, 0, 72, 83
1, 61808, Note_on_c, 1, 68, 74
1, 61816, Note_on_c, 0, 72, 0
1, 61816, Note_on_c, 0, 74, 83
1, 61823, Note_on_c, 1, 68, 0
1, 61824, Note_on_c, 0, 74, 0
1, 61824, Note_on_c, 0, 75, 83
1, 61824, Note_on_c, 1, 58, 74
1, 61839, Note_on_c, 1, 58, 0
1, 61840, Note_on_c, 1, 63, 74
1, 61855, Note_on_c, 1, 63, 0
1, 61856, Note_on_c, 1, 67, 74
1, 61871, Note_on_c, 1, 67, 0
1, 61872, Note_on_c, 1, 58, 74
1, 61887, Note_on_c, 1, 58, 0
1, 61888, Note_on_c, 1, 63, 74
1, 61903, Note_on_c, 1, 63, 0
1, 61904, Note_on_c, 1, 67, 74
1, 61913, Note_on_c, 0, 75, 0
1, 61919, Note_on_c, 1, 67, 0
1, 61920, Note_on_c, 1, 58, 74
1, 61935, Note_on_c, 1, 58, 0
1, 61936, Note_on_c, 1, 63, 74
1, 61944, Note_on_c, 0, 75, 83
1, 61951, Note_on_c, 1, 63, 0
1, 61952, Note_on_c, 1, 67, 74
1, 61967, Note_on_c, 0, 75, 0
1, 61967, Note_on_c, 1, 67, 0
1, 61968, Note_on_c, 0, 77, 83
1, 61968, Note_on_c, 1, 58, 74
1, 61976, Note_on_c, 0, 77, 0
1, 61976, Note_on_c, 0, 75, 83
1, 61983, Note_on_c, 1, 58, 0
1, 61984, Note_on_c, 0, 75, 0
1, 61984, Note_on_c, 0, 77, 83
1, 61984, Note_on_c, 1, 63, 74
1, 61992, Note_on_c, 0, 77, 0
1, 61992, Note_on_c, 0, 75, 83
1, 61999, Note_on_c, 1, 63, 0
1, 62000, Note_on_c, 0, 75, 0
1, 62000, Note_on_c, 0, 74, 83
1, 62000, Note_on_c, 1, 67, 74
1, 62008, Note_on_c, 0, 74, 0
1, 62008, Note_on_c, 0, 75, 83
1, 62015, Note_on_c, 1, 67, 0
1, 62016, Note_on_c, 0, 75, 0
1, 62016, Note_on_c, 0, 79, 83
1, 62016, Note_on_c, 1, 60, 74
1, 62031, Note_on_c, 1, 60, 0
1, 62032, Note_on_c, 1, 63, 74
1, 62047, Note_on_c, 1, 63, 0
1, 62048, Note_on_c, 1, 67, 74
1, 62061, Note_on_c, 0, 79, 0
1, 62063, Note_on_c, 1, 67, 0
1, 62064, Note_on_c, 0, 75, 83
1, 62064, Note_on_c, 1, 60, 74
1, 62079, Note_on_c, 1, 60, 0
1, 62080, Note_on_c, 1, 63, 74
1, 62095, Note_on_c, 1, 63, 0
1, 62096, Note_on_c, 1, 67, 74
1, 62109, Note_on_c, 0, 75, 0
1, 62111, Note_on_c, 1, 67, 0
1, 62112, Note_on_c, 1, 60, 74
1, 62127, Note_on_c, 1, 60, 0
1, 62128, Note_on_c, 1, 63, 74
1, 62136, Note_on_c, 0, 75, 83
1, 62143, Note_on_c, 1, 63, 0
1, 62144, Note_on_c, 1, 67, 74
1, 62159, Note_on_c, 0, 75, 0
1, 62159, Note_on_c, 1, 67, 0
1, 62160, Note_on_c, 0, 77, 83
1, 62160, Note_on_c, 1, 60, 74
1, 62168, Note_on_c, 0, 77, 0
1, 62168, Note_on_c, 0, 75, 83
1, 62175, Note_on_c, 1, 60, 0
1, 62176, Note_on_c, 0, 75, 0
1, 62176, Note_on_c, 0, 77, 83
1, 62176, Note_on_c, 1, 63, 74
1, 62184, Note_on_c, 0, 77, 0
1, 62184, Note_on_c, 0, 75, 83
1, 62191, Note_on_c, 1, 63, 0
1, 62192, Note_on_c, 0, 75, 0
1, 62192, Note_on_c, 0, 74, 83
1, 62192, Note_on_c, 1, 67, 74
1, 62200, Note_on_c, 0, 74, 0
1, 62200, Note_on_c, 0, 75, 83
1, 62207, Note_on_c, 1, 67, 0
1, 62208, Note_on_c, 0, 75, 0
1, 62208, Note_on_c, 0, 79, 83
1, 62208, Note_on_c, 1, 58, 74
1, 62223, Note_on_c, 1, 58, 0
1, 62224, Note_on_c, 1, 63, 74
1, 62239, Note_on_c, 1, 63, 0
1, 62240, Note_on_c, 1, 67, 74
1, 62253, Note_on_c, 0, 79, 0
1, 62255, Note_on_c, 1, 67, 0
1, 62256, Note_on_c, 0, 75, 83
1, 62256, Note_on_c, 1, 58, 74
1, 62271, Note_on_c, 1, 58, 0
1, 62272, Note_on_c, 1, 63, 74
1, 62287, Note_on_c, 1, 63, 0
1, 62288, Note_on_c, 1, 67, 74
1, 62301, Note_on_c, 0, 75, 0
1, 62303, Note_on_c, 1, 67, 0
1, 62304, Note_on_c, 1, 58, 74
1, 62319, Note_on_c, 1, 58, 0
1, 62320, Note_on_c, 1, 63, 74
1, 62328, Note_on_c, 0, 75, 83
1, 62335, Note_on_c, 1, 63, 0
1, 62336, Note_on_c, 1, 67, 74
1, 62351, Note_on_c, 0, 75, 0
1, 62351, Note_on_c, 1, 67, 0
1, 62352, Note_on_c, 0, 77, 83
1, 62352, Note_on_c, 1, 58, 74
1, 62360, Note_on_c, 0, 77, 0
1, 62360, Note_on_c, 0, 75, 83
1, 62367, Note_on_c, 1, 58, 0
1, 62368, Note_on_c, 0, 75, 0
1, 62368, Note_on_c, 0, 77, 83
1, 62368, Note_on_c, 1, 63, 74
1, 62376, Note_on_c, 0, 77, 0
1, 62376, Note_on_c, 0, 75, 83
1, 62383, Note_on_c, 1, 63, 0
1, 62384, Note_on_c, 0, 75, 0
1, 62384, Note_on_c, 0, 74, 83
1, 62384, Note_on_c, 1, 67, 74
1, 62392, Note_on_c, 0, 74, 0
1, 62392, Note_on_c, 0, 75, 83
1, 62399, Note_on_c, 1, 67, 0
1, 62400, Note_on_c, 0, 75, 0
1, 62400, Note_on_c, 0, 84, 83
1, 62400, Note_on_c, 1, 57, 74
1, 62415, Note_on_c, 1, 57, 0
1, 62416, Note_on_c, 1, 63, 74
1, 62431, Note_on_c, 1, 63, 0
1, 62432, Note_on_c, 1, 67, 74
1, 62445, Note_on_c, 0, 84, 0
1, 62447, Note_on_c, 1, 67, 0
1, 62448, Note_on_c, 0, 75, 83
1, 62448, Note_on_c, 1, 57, 74
1, 62463, Note_on_c, 1, 57, 0
1, 62464, Note_on_c, 1, 63, 74
1, 62479, Note_on_c, 1, 63, 0
1, 62480, Note_on_c, 1, 67, 74
1, 62493, Note_on_c, 0, 75, 0
1, 62495, Note_on_c, 1, 67, 0
1, 62496, Note_on_c, 1, 57, 74
1, 62511, Note_on_c, 1, 57, 0
1, 62512, Note_on_c, 1, 63, 74
1, 62520, Note_on_c, 0, 75, 83
1, 62527, Note_on_c, 1, 63, 0
1, 62528, Note_on_c, 1, 67, 74
1, 62543, Note_on_c, 0, 75, 0
1, 62543, Note_on_c, 1, 67, 0
1, 62544, Note_on_c, 0, 77, 83
1, 62544, Note_on_c, 1, 57, 74
1, 62552, Note_on_c, 0, 77, 0
1, 62552, Note_on_c, 0, 75, 83
1, 62559, Note_on_c, 1, 57, 0
1, 62560, Note_on_c, 0, 75, 0
1, 62560, Note_on_c, 0, 77, 83
1, 62560, Note_on_c, 1, 63, 74
1, 62568, Note_on_c, 0, 77, 0
1, 62568, Note_on_c, 0, 75, 83
1, 62575, Note_on_c, 1, 63, 0
1, 62576, Note_on_c, 0, 75, 0
1, 62576, Note_on_c, 0, 74, 83
1, 62576, Note_on_c, 1, 67, 74
1, 62584, Note_on_c, 0, 74, 0
1, 62584, Note_on_c, 0, 75, 83
1, 62591, Note_on_c, 1, 67, 0
1, 62592, Note_on_c, 0, 75, 0
1, 62592, Note_on_c, 0, 70, 79
1, 62592, Note_on_c, 1, 58, 74
1, 62607, Note_on_c, 0, 70, 0
1, 62607, Note_on_c, 1, 58, 0
1, 62608, Note_on_c, 0, 75, 79
1, 62608, Note_on_c, 1, 63, 74
1, 62623, Note_on_c, 0, 75, 0
1, 62623, Note_on_c, 1, 63, 0
1, 62624, Note_on_c, 0, 79, 79
1, 62624, Note_on_c, 1, 67, 74
1, 62639, Note_on_c, 0, 79, 0
1, 62639, Note_on_c, 1, 67, 0
1, 62640, Note_on_c, 0, 70, 79
1, 62640, Note_on_c, 1, 58, 75
1, 62655, Note_on_c, 0, 70, 0
1, 62655, Note_on_c, 1, 58, 0
1, 62656, Note_on_c, 0, 75, 80
1, 62656, Note_on_c, 1, 63, 75
1, 62671, Note_on_c, 0, 75, 0
1, 62671, Note_on_c, 1, 63, 0
1, 62672, Note_on_c, 0, 79, 80
1, 62672, Note_on_c, 1, 67, 76
1, 62687, Note_on_c, 0, 79, 0
1, 62687, Note_on_c, 1, 67, 0
1, 62688, Note_on_c, 0, 71, 80
1, 62688, Note_on_c, 1, 59, 76
1, 62703, Note_on_c, 0, 71, 0
1, 62703, Note_on_c, 1, 59, 0
1, 62704, Note_on_c, 0, 75, 80
1, 62704, Note_on_c, 1, 63, 76
1, 62719, Note_on_c, 0, 75, 0
1, 62719, Note_on_c, 1, 63, 0
1, 62720, Note_on_c, 0, 79, 81
1, 62720, Note_on_c, 1, 67, 77
1, 62735, Note_on_c, 0, 79, 0
1, 62735, Note_on_c, 1, 67, 0
1, 62736, Note_on_c, 0, 71, 81
1, 62736, Note_on_c, 1, 59, 77
1, 62751, Note_on_c, 0, 71, 0
1, 62751, Note_on_c, 1, 59, 0
1, 62752, Note_on_c, 0, 75, 81
1, 62752, Note_on_c, 1, 63, 78
1, 62767, Note_on_c, 0, 75, 0
1, 62767, Note_on_c, 1, 63, 0
1, 62768, Note_on_c, 0, 79, 82
1, 62768, Note_on_c, 1, 67, 78
1, 62783, Note_on_c, 0, 79, 0
1, 62783, Note_on_c, 1, 67, 0
1, 62784, Note_on_c, 0, 72, 82
1, 62784, Note_on_c, 1, 60, 79
1, 62799, Note_on_c, 0, 72, 0
1, 62799, Note_on_c, 1, 60, 0
1, 62800, Note_on_c, 0, 75, 82
1, 62800, Note_on_c, 1, 63, 79
1, 62815, Note_on_c, 0, 75, 0
1, 62815, Note_on_c, 1, 63, 0
1, 62816, Note_on_c, 0, 79, 82
1, 62816, Note_on_c, 1, 67, 79
1, 62831, Note_on_c, 0, 79, 0
1, 62831, Note_on_c, 1, 67, 0
1, 62832, Note_on_c, 0, 72, 83
1, 62832, Note_on_c, 1, 60, 80
1, 62847, Note_on_c, 0, 72, 0
1, 62847, Note_on_c, 1, 60, 0
1, 62848, Note_on_c, 0, 75, 83
1, 62848, Note_on_c, 1, 63, 80
1, 62863, Note_on_c, 0, 75, 0
1, 62863, Note_on_c, 1, 63, 0
1, 62864, Note_on_c, 0, 79, 83
1, 62864, Note_on_c, 1, 67, 81
1, 62879, Note_on_c, 0, 79, 0
1, 62879, Note_on_c, 1, 67, 0
1, 62880, Note_on_c, 0, 73, 83
1, 62880, Note_on_c, 1, 61, 81
1, 62895, Note_on_c, 0, 73, 0
1, 62895, Note_on_c, 1, 61, 0
1, 62896, Note_on_c, 0, 76, 84
1, 62896, Note_on_c, 1, 64, 82
1, 62911, Note_on_c, 0, 76, 0
1, 62911, Note_on_c, 1, 64, 0
1, 62912, Note_on_c, 0, 79, 84
1, 62912, Note_on_c, 1, 67, 82
1, 62927, Note_on_c, 0, 79, 0
1, 62927, Note_on_c, 1, 67, 0
1, 62928, Note_on_c, 0, 73, 84
1, 62928, Note_on_c, 1, 61, 82
1, 62943, Note_on_c, 0, 73, 0
1, 62943, Note_on_c, 1, 61, 0
1, 62944, Note_on_c, 0, 76, 85
1, 62944, Note_on_c, 1, 64, 83
1, 62959, Note_on_c, 0, 76, 0
1, 62959, Note_on_c, 1, 64, 0
1, 62960, Note_on_c, 0, 79, 85
1, 62960, Note_on_c, 1, 67, 83
1, 62975, Note_on_c, 0, 79, 0
1, 62975, Note_on_c, 1, 67, 0
1, 62976, Note_on_c, 0, 74, 85
1, 62976, Note_on_c, 1, 62, 84
1, 62991, Note_on_c, 0, 74, 0
1, 62991, Note_on_c, 1, 62, 0
1, 62992, Note_on_c, 0, 79, 88
1, 62992, Note_on_c, 1, 67, 88
1, 63007, Note_on_c, 0, 79, 0
1, 63007, Note_on_c, 1, 67, 0
1, 63008, Note_on_c, 0, 82, 88
1, 63008, Note_on_c, 1, 70, 88
1, 63023, Note_on_c, 0, 82, 0
1, 63023, Note_on_c, 1, 70, 0
1, 63024, Note_on_c, 0, 86, 88
1, 63024, Note_on_c, 1, 74, 88
1, 63039, Note_on_c, 0, 86, 0
1, 63039, Note_on_c, 1, 74, 0
1, 63040, Note_on_c, 0, 82, 88
1, 63040, Note_on_c, 1, 70, 88
1, 63055, Note_on_c, 0, 82, 0
1, 63055, Note_on_c, 1, 70, 0
1, 63056, Note_on_c, 0, 79, 88
1, 63056, Note_on_c, 1, 67, 88
1, 63071, Note_on_c, 0, 79, 0
1, 63071, Note_on_c, 1, 67, 0
1, 63072, Note_on_c, 0, 74, 88
1, 63072, Note_on_c, 1, 62, 88
1, 63087, Note_on_c, 0, 74, 0
1, 63087, Note_on_c, 1, 62, 0
1, 63088, Note_on_c, 0, 79, 88
1, 63088, Note_on_c, 1, 67, 88
1, 63103, Note_on_c, 0, 79, 0
1, 63103, Note_on_c, 1, 67, 0
1, 63104, Note_on_c, 0, 82, 88
1, 63104, Note_on_c, 1, 70, 88
1, 63119, Note_on_c, 0, 82, 0
1, 63119, Note_on_c, 1, 70, 0
1, 63120, Note_on_c, 0, 86, 88
1, 63120, Note_on_c, 1, 74, 88
1, 63135, Note_on_c, 0, 86, 0
1, 63135, Note_on_c, 1, 74, 0
1, 63136, Note_on_c, 0, 82, 88
1, 63136, Note_on_c, 1, 70, 88
1, 63151, Note_on_c, 0, 82, 0
1, 63151, Note_on_c, 1, 70, 0
1, 63152, Note_on_c, 0, 79, 88
1, 63152, Note_on_c, 1, 67, 88
1, 63167, Note_on_c, 0, 79, 0
1, 63167, Note_on_c, 1, 67, 0
1, 63168, Note_on_c, 0, 74, 88
1, 63168, Note_on_c, 1, 62, 88
1, 63183, Note_on_c, 0, 74, 0
1, 63183, Note_on_c, 1, 62, 0
1, 63184, Note_on_c, 0, 78, 88
1, 63184, Note_on_c, 1, 66, 88
1, 63199, Note_on_c, 0, 78, 0
1, 63199, Note_on_c, 1, 66, 0
1, 63200, Note_on_c, 0, 81, 88
1, 63200, Note_on_c, 1, 69, 88
1, 63215, Note_on_c, 0, 81, 0
1, 63215, Note_on_c, 1, 69, 0
1, 63216, Note_on_c, 0, 84, 88
1, 63216, Note_on_c, 1, 72, 88
1, 63231, Note_on_c, 0, 84, 0
1, 63231, Note_on_c, 1, 72, 0
1, 63232, Note_on_c, 0, 81, 88
1, 63232, Note_on_c, 1, 69, 88
1, 63247, Note_on_c, 0, 81, 0
1, 63247, Note_on_c, 1, 69, 0
1, 63248, Note_on_c, 0, 78, 88
1, 63248, Note_on_c, 1, 66, 88
1, 63263, Note_on_c, 0, 78, 0
1, 63263, Note_on_c, 1, 66, 0
1, 63264, Note_on_c, 0, 74, 88
1, 63264, Note_on_c, 1, 62, 88
1, 63279, Note_on_c, 0, 74, 0
1, 63279, Note_on_c, 1, 62, 0
1, 63280, Note_on_c, 0, 78, 88
1, 63280, Note_on_c, 1, 66, 88
1, 63295, Note_on_c, 0, 78, 0
1, 63295, Note_on_c, 1, 66, 0
1, 63296, Note_on_c, 0, 81, 88
1, 63296, Note_on_c, 1, 69, 88
1, 63311, Note_on_c, 0, 81, 0
1, 63311, Note_on_c, 1, 69, 0
1, 63312, Note_on_c, 0, 84, 88
1, 63312, Note_on_c, 1, 72, 88
1, 63327, Note_on_c, 0, 84, 0
1, 63327, Note_on_c, 1, 72, 0
1, 63328, Note_on_c, 0, 81, 88
1, 63328, Note_on_c, 1, 69, 88
1, 63343, Note_on_c, 0, 81, 0
1, 63343, Note_on_c, 1, 69, 0
1, 63344, Note_on_c, 0, 78, 88
1, 63344, Note_on_c, 1, 66, 88
1, 63359, Note_on_c, 0, 78, 0
1, 63359, Note_on_c, 1, 66, 0
1, 63360, Note_on_c, 0, 79, 88
1, 63360, Note_on_c, 1, 67, 88
1, 63375, Note_on_c, 0, 79, 0
1, 63376, Note_on_c, 0, 82, 88
1, 63391, Note_on_c, 0, 82, 0
1, 63392, Note_on_c, 0, 81, 88
1, 63407, Note_on_c, 0, 81, 0
1, 63408, Note_on_c, 0, 79, 88
1, 63423, Note_on_c, 0, 79, 0
1, 63424, Note_on_c, 0, 77, 88
1, 63439, Note_on_c, 0, 77, 0
1, 63440, Note_on_c, 0, 75, 88
1, 63449, Note_on_c, 1, 67, 0
1, 63455, Note_on_c, 0, 75, 0
1, 63456, Note_on_c, 0, 74, 88
1, 63471, Note_on_c, 0, 74, 0
1, 63472, Note_on_c, 0, 72, 88
1, 63487, Note_on_c, 0, 72, 0
1, 63488, Note_on_c, 0, 70, 88
1, 63503, Note_on_c, 0, 70, 0
1, 63504, Note_on_c, 0, 69, 88
1, 63519, Note_on_c, 0, 69, 0
1, 63520, Note_on_c, 0, 67, 88
1, 63535, Note_on_c, 0, 67, 0
1, 63536, Note_on_c, 0, 65, 88
1, 63551, Note_on_c, 0, 65, 0
1, 63552, Note_on_c, 0, 63, 88
1, 63552, Note_on_c, 1, 51, 88
1, 63552, Note_on_c, 1, 39, 88
1, 63567, Note_on_c, 0, 63, 0
1, 63568, Note_on_c, 0, 67, 88
1, 63583, Note_on_c, 0, 67, 0
1, 63584, Note_on_c, 0, 70, 88
1, 63599, Note_on_c, 0, 70, 0
1, 63600, Note_on_c, 0, 63, 88
1, 63615, Note_on_c, 0, 63, 0
1, 63616, Note_on_c, 0, 67, 88
1, 63631, Note_on_c, 0, 67, 0
1, 63632, Note_on_c, 0, 70, 88
1, 63647, Note_on_c, 0, 70, 0
1, 63648, Note_on_c, 0, 62, 88
1, 63648, Note_on_c, 1, 51, 0
1, 63648, Note_on_c, 1, 39, 0
1, 63648, Note_on_c, 1, 50, 88
1, 63648, Note_on_c, 1, 38, 88
1, 63663, Note_on_c, 0, 62, 0
1, 63664, Note_on_c, 0, 67, 88
1, 63679, Note_on_c, 0, 67, 0
1, 63680, Note_on_c, 0, 70, 88
1, 63695, Note_on_c, 0, 70, 0
1, 63696, Note_on_c, 0, 62, 88
1, 63711, Note_on_c, 0, 62, 0
1, 63712, Note_on_c, 0, 67, 88
1, 63727, Note_on_c, 0, 67, 0
1, 63728, Note_on_c, 0, 70, 88
1, 63737, Note_on_c, 1, 50, 0
1, 63737, Note_on_c, 1, 38, 0
1, 63743, Note_on_c, 0, 70, 0
1, 63744, Note_on_c, 0, 61, 88
1, 63744, Note_on_c, 1, 49, 88
1, 63744, Note_on_c, 1, 37, 88
1, 63759, Note_on_c, 0, 61, 0
1, 63760, Note_on_c, 0, 67, 88
1, 63775, Note_on_c, 0, 67, 0
1, 63776, Note_on_c, 0, 70, 88
1, 63791, Note_on_c, 0, 70, 0
1, 63792, Note_on_c, 0, 61, 88
1, 63807, Note_on_c, 0, 61, 0
1, 63808, Note_on_c, 0, 67, 88
1, 63823, Note_on_c, 0, 67, 0
1, 63824, Note_on_c, 0, 70, 88
1, 63839, Note_on_c, 0, 70, 0
1, 63840, Note_on_c, 0, 61, 88
1, 63855, Note_on_c, 0, 61, 0
1, 63856, Note_on_c, 0, 67, 88
1, 63871, Note_on_c, 0, 67, 0
1, 63872, Note_on_c, 0, 70, 88
1, 63887, Note_on_c, 0, 70, 0
1, 63888, Note_on_c, 0, 61, 88
1, 63903, Note_on_c, 0, 61, 0
1, 63904, Note_on_c, 0, 67, 88
1, 63919, Note_on_c, 0, 67, 0
1, 63920, Note_on_c, 0, 70, 88
1, 63921, Note_on_c, 1, 49, 0
1, 63921, Note_on_c, 1, 37, 0
1, 63935, Note_on_c, 0, 70, 0
1, 63936, Note_on_c, 0, 62, 88
1, 63936, Note_on_c, 1, 50, 88
1, 63936, Note_on_c, 1, 38, 88
1, 63951, Note_on_c, 0, 62, 0
1, 63952, Note_on_c, 0, 67, 88
1, 63967, Note_on_c, 0, 67, 0
1, 63968, Note_on_c, 0, 70, 88
1, 63983, Note_on_c, 0, 70, 0
1, 63984, Note_on_c, 0, 74, 88
1, 63999, Note_on_c, 0, 74, 0
1, 64000, Note_on_c, 0, 70, 88
1, 64015, Note_on_c, 0, 70, 0
1, 64016, Note_on_c, 0, 67, 88
1, 64025, Note_on_c, 1, 50, 0
1, 64025, Note_on_c, 1, 38, 0
1, 64031, Note_on_c, 0, 67, 0
1, 64032, Note_on_c, 0, 62, 88
1, 64052, Note_on_c, 0, 62, 0
1, 64080, Note_on_c, 0, 66, 88
1, 64080, Note_on_c, 0, 60, 88
1, 64100, Note_on_c, 0, 66, 0
1, 64100, Note_on_c, 0, 60, 0
1, 64128, Note_on_c, 1, 43, 88
1, 64128, Note_on_c, 1, 31, 88
1, 64217, Note_on_c, 1, 43, 0
1, 64217, Note_on_c, 1, 31, 0
1, 64224, Note_on_c, 0, 79, 74
1, 64247, Note_on_c, 0, 79, 0
1, 64248, Note_on_c, 0, 78, 75
1, 64271, Note_on_c, 0, 78, 0
1, 64272, Note_on_c, 0, 81, 76
1, 64295, Note_on_c, 0, 81, 0
1, 64296, Note_on_c, 0, 79, 77
1, 64319, Note_on_c, 0, 79, 0
1, 64320, Note_on_c, 0, 82, 79
1, 64343, Note_on_c, 0, 82, 0
1, 64344, Note_on_c, 0, 81, 77
1, 64367, Note_on_c, 0, 81, 0
1, 64368, Note_on_c, 0, 79, 76
1, 64391, Note_on_c, 0, 79, 0
1, 64392, Note_on_c, 0, 77, 75
1, 64415, Note_on_c, 0, 77, 0
1, 64416, Note_on_c, 0, 75, 74
1, 64461, Note_on_c, 0, 75, 0
1, 64464, Note_on_c, 0, 74, 74
1, 64509, Note_on_c, 0, 74, 0
1, 64512, Note_on_c, 0, 74, 74
1, 64608, Note_on_c, 0, 74, 0
1, 64608, Note_on_c, 0, 73, 83
1, 64608, Note_on_c, 1, 67, 79
1, 64608, Note_on_c, 1, 64, 79
1, 64608, Note_on_c, 1, 57, 79
1, 64631, Note_on_c, 0, 73, 0
1, 64632, Note_on_c, 0, 69, 83
1, 64655, Note_on_c, 0, 69, 0
1, 64656, Note_on_c, 0, 70, 83
1, 64668, Note_on_c, 0, 70, 0
1, 64668, Note_on_c, 0, 69, 83
1, 64680, Note_on_c, 0, 69, 0
1, 64680, Note_on_c, 0, 68, 83
1, 64692, Note_on_c, 0, 68, 0
1, 64692, Note_on_c, 0, 69, 83
1, 64697, Note_on_c, 1, 67, 0
1, 64697, Note_on_c, 1, 64, 0
1, 64697, Note_on_c, 1, 57, 0
1, 64704, Note_on_c, 0, 69, 0
1, 64704, Note_on_c, 0, 74, 83
1, 64704, Note_on_c, 1, 65, 79
1, 64704, Note_on_c, 1, 62, 79
1, 64704, Note_on_c, 1, 57, 79
1, 64727, Note_on_c, 0, 74, 0
1, 64728, Note_on_c, 0, 69, 83
1, 64751, Note_on_c, 0, 69, 0
1, 64752, Note_on_c, 0, 70, 83
1, 64764, Note_on_c, 0, 70, 0
1, 64764, Note_on_c, 0, 69, 83
1, 64776, Note_on_c, 0, 69, 0
1, 64776, Note_on_c, 0, 68, 83
1, 64788, Note_on_c, 0, 68, 0
1, 64788, Note_on_c, 0, 69, 83
1, 64793, Note_on_c, 1, 65, 0
1, 64793, Note_on_c, 1, 62, 0
1, 64793, Note_on_c, 1, 57, 0
1, 64800, Note_on_c, 0, 69, 0
1, 64800, Note_on_c, 0, 76, 83
1, 64800, Note_on_c, 1, 67, 79
1, 64800, Note_on_c, 1, 61, 79
1, 64800, Note_on_c, 1, 57, 79
1, 64823, Note_on_c, 0, 76, 0
1, 64824, Note_on_c, 0, 69, 83
1, 64847, Note_on_c, 0, 69, 0
1, 64848, Note_on_c, 0, 70, 83
1, 64860, Note_on_c, 0, 70, 0
1, 64860, Note_on_c, 0, 69, 83
1, 64872, Note_on_c, 0, 69, 0
1, 64872, Note_on_c, 0, 68, 83
1, 64884, Note_on_c, 0, 68, 0
1, 64884, Note_on_c, 0, 69, 83
1, 64889, Note_on_c, 1, 67, 0
1, 64889, Note_on_c, 1, 61, 0
1, 64889, Note_on_c, 1, 57, 0
1, 64896, Note_on_c, 0, 69, 0
1, 64896, Note_on_c, 0, 77, 83
1, 64896, Note_on_c, 1, 65, 79
1, 64896, Note_on_c, 1, 62, 79
1, 64941, Note_on_c, 0, 77, 0
1, 64941, Note_on_c, 1, 65, 0
1, 64941, Note_on_c, 1, 62, 0
1, 64992, Note_on_c, 0, 77, 74
1, 65015, Note_on_c, 0, 77, 0
1, 65016, Note_on_c, 0, 76, 74
1, 65039, Note_on_c, 0, 76, 0
1, 65040, Note_on_c, 0, 79, 75
1, 65063, Note_on_c, 0, 79, 0
1, 65064, Note_on_c, 0, 77, 77
1, 65087, Note_on_c, 0, 77, 0
1, 65088, Note_on_c, 0, 80, 79
1, 65111, Note_on_c, 0, 80, 0
1, 65112, Note_on_c, 0, 79, 77
1, 65135, Note_on_c, 0, 79, 0
1, 65136, Note_on_c, 0, 77, 76
1, 65159, Note_on_c, 0, 77, 0
1, 65160, Note_on_c, 0, 75, 75
1, 65183, Note_on_c, 0, 75, 0
1, 65184, Note_on_c, 0, 74, 74
1, 65229, Note_on_c, 0, 74, 0
1, 65232, Note_on_c, 0, 72, 74
1, 65277, Note_on_c, 0, 72, 0
1, 65280, Note_on_c, 0, 72, 74
1, 65376, Note_on_c, 0, 72, 0
1, 65376, Note_on_c, 0, 71, 83
1, 65376, Note_on_c, 1, 65, 79
1, 65376, Note_on_c, 1, 62, 79
1, 65376, Note_on_c, 1, 55, 79
1, 65399, Note_on_c, 0, 71, 0
1, 65400, Note_on_c, 0, 67, 83
1, 65423, Note_on_c, 0, 67, 0
1, 65424, Note_on_c, 0, 68, 83
1, 65436, Note_on_c, 0, 68, 0
1, 65436, Note_on_c, 0, 67, 83
1, 65448, Note_on_c, 0, 67, 0
1, 65448, Note_on_c, 0, 66, 83
1, 65460, Note_on_c, 0, 66, 0
1, 65460, Note_on_c, 0, 67, 83
1, 65465, Note_on_c, 1, 65, 0
1, 65465, Note_on_c, 1, 62, 0
1, 65465, Note_on_c, 1, 55, 0
1, 65472, Note_on_c, 0, 67, 0
1, 65472, Note_on_c, 0, 72, 83
1, 65472, Note_on_c, 1, 63, 79
1, 65472, Note_on_c, 1, 60, 79
1, 65472, Note_on_c, 1, 55, 79
1, 65495, Note_on_c, 0, 72, 0
1, 65496, Note_on_c, 0, 67, 83
1, 65519, Note_on_c, 0, 67, 0
1, 65520, Note_on_c, 0, 68, 83
1, 65532, Note_on_c, 0, 68, 0
1, 65532, Note_on_c, 0, 67, 83
1, 65544, Note_on_c, 0, 67, 0
1, 65544, Note_on_c, 0, 66, 83
1, 65556, Note_on_c, 0, 66, 0
1, 65556, Note_on_c, 0, 67, 83
1, 65561, Note_on_c, 1, 63, 0
1, 65561, Note_on_c, 1, 60, 0
1, 65561, Note_on_c, 1, 55, 0
1, 65568, Note_on_c, 0, 67, 0
1, 65568, Note_on_c, 0, 74, 83
1, 65568, Note_on_c, 1, 65, 79
1, 65568, Note_on_c, 1, 59, 79
1, 65568, Note_on_c, 1, 55, 79
1, 65591, Note_on_c, 0, 74, 0
1, 65592, Note_on_c, 0, 67, 83
1, 65615, Note_on_c, 0, 67, 0
1, 65616, Note_on_c, 0, 68, 83
1, 65628, Note_on_c, 0, 68, 0
1, 65628, Note_on_c, 0, 67, 83
1, 65640, Note_on_c, 0, 67, 0
1, 65640, Note_on_c, 0, 66, 83
1, 65652, Note_on_c, 0, 66, 0
1, 65652, Note_on_c, 0, 67, 83
1, 65657, Note_on_c, 1, 65, 0
1, 65657, Note_on_c, 1, 59, 0
1, 65657, Note_on_c, 1, 55, 0
1, 65664, Note_on_c, 0, 67, 0
1, 65664, Note_on_c, 0, 79, 79
1, 65664, Note_on_c, 0, 75, 79
1, 65712, Note_on_c, 1, 48, 79
1, 65760, Note_on_c, 1, 48, 0
1, 65760, Note_on_c, 1, 60, 79
1, 65780, Note_on_c, 1, 60, 0
1, 65808, Note_on_c, 0, 79, 0
1, 65808, Note_on_c, 0, 75, 0
1, 65808, Note_on_c, 0, 77, 79
1, 65808, Note_on_c, 0, 74, 79
1, 65853, Note_on_c, 0, 77, 0
1, 65853, Note_on_c, 0, 74, 0
1, 65856, Note_on_c, 0, 80, 79
1, 65856, Note_on_c, 0, 77, 79
1, 65904, Note_on_c, 1, 48, 79
1, 65952, Note_on_c, 1, 48, 0
1, 65952, Note_on_c, 1, 60, 79
1, 65972, Note_on_c, 1, 60, 0
1, 66000, Note_on_c, 0, 80, 0
1, 66000, Note_on_c, 0, 77, 0
1, 66000, Note_on_c, 0, 79, 79
1, 66000, Note_on_c, 0, 75, 79
1, 66045, Note_on_c, 0, 79, 0
1, 66045, Note_on_c, 0, 75, 0
1, 66048, Note_on_c, 0, 77, 79
1, 66048, Note_on_c, 0, 68, 79
1, 66093, Note_on_c, 0, 77, 0
1, 66093, Note_on_c, 0, 68, 0
1, 66096, Note_on_c, 0, 75, 80
1, 66096, Note_on_c, 0, 67, 80
1, 66096, Note_on_c, 1, 48, 79
1, 66141, Note_on_c, 0, 75, 0
1, 66141, Note_on_c, 0, 67, 0
1, 66141, Note_on_c, 1, 48, 0
1, 66144, Note_on_c, 0, 74, 81
1, 66144, Note_on_c, 0, 65, 81
1, 66144, Note_on_c, 1, 53, 79
1, 66189, Note_on_c, 0, 74, 0
1, 66189, Note_on_c, 0, 65, 0
1, 66189, Note_on_c, 1, 53, 0
1, 66192, Note_on_c, 0, 72, 82
1, 66192, Note_on_c, 0, 63, 82
1, 66192, Note_on_c, 1, 54, 79
1, 66237, Note_on_c, 0, 72, 0
1, 66237, Note_on_c, 0, 63, 0
1, 66237, Note_on_c, 1, 54, 0
1, 66240, Note_on_c, 0, 71, 83
1, 66240, Note_on_c, 0, 63, 64
1, 66240, Note_on_c, 1, 55, 79
1, 66246, Note_on_c, 0, 71, 0
1, 66246, Note_on_c, 0, 72, 83
1, 66252, Note_on_c, 0, 72, 0
1, 66252, Note_on_c, 0, 74, 83
1, 66258, Note_on_c, 0, 74, 0
1, 66258, Note_on_c, 0, 72, 83
1, 66329, Note_on_c, 0, 63, 0
1, 66329, Note_on_c, 1, 55, 0
1, 66336, Note_on_c, 0, 72, 0
1, 66336, Note_on_c, 0, 71, 80
1, 66336, Note_on_c, 0, 62, 64
1, 66336, Note_on_c, 1, 43, 79
1, 66356, Note_on_c, 0, 71, 0
1, 66381, Note_on_c, 0, 62, 0
1, 66381, Note_on_c, 1, 43, 0
1, 66384, Note_on_c, 0, 68, 64
1, 66384, Note_on_c, 1, 63, 79
1, 66384, Note_on_c, 1, 60, 79
1, 66429, Note_on_c, 0, 68, 0
1, 66429, Note_on_c, 1, 63, 0
1, 66429, Note_on_c, 1, 60, 0
1, 66432, Note_on_c, 0, 67, 79
1, 66432, Note_on_c, 1, 62, 79
1, 66432, Note_on_c, 1, 59, 79
1, 66438, Note_on_c, 0, 67, 0
1, 66438, Note_on_c, 0, 68, 79
1, 66444, Note_on_c, 0, 68, 0
1, 66444, Note_on_c, 0, 70, 79
1, 66450, Note_on_c, 0, 70, 0
1, 66450, Note_on_c, 0, 68, 79
1, 66528, Note_on_c, 0, 68, 0
1, 66528, Note_on_c, 0, 67, 79
1, 66548, Note_on_c, 0, 67, 0
1, 66565, Note_on_c, 1, 62, 0
1, 66565, Note_on_c, 1, 59, 0
1, 66576, Note_on_c, 0, 72, 79
1, 66576, Note_on_c, 1, 67, 79
1, 66576, Note_on_c, 1, 63, 79
1, 66621, Note_on_c, 0, 72, 0
1, 66621, Note_on_c, 1, 67, 0
1, 66621, Note_on_c, 1, 63, 0
1, 66624, Note_on_c, 0, 71, 79
1, 66624, Note_on_c, 1, 65, 79
1, 66624, Note_on_c, 1, 62, 79
1, 66630, Note_on_c, 0, 71, 0
1, 66630, Note_on_c, 0, 72, 79
1, 66636, Note_on_c, 0, 72, 0
1, 66636, Note_on_c, 0, 74, 79
1, 66642, Note_on_c, 0, 74, 0
1, 66642, Note_on_c, 0, 72, 79
1, 66720, Note_on_c, 0, 72, 0
1, 66720, Note_on_c, 0, 71, 79
1, 66730, Note_on_c, 0, 71, 0
1, 66744, Note_on_c, 0, 80, 79
1, 66757, Note_on_c, 1, 65, 0
1, 66757, Note_on_c, 1, 62, 0
1, 66767, Note_on_c, 0, 80, 0
1, 66768, Note_on_c, 0, 79, 79
1, 66768, Note_on_c, 1, 67, 79
1, 66768, Note_on_c, 1, 59, 79
1, 66791, Note_on_c, 0, 79, 0
1, 66792, Note_on_c, 0, 77, 79
1, 66815, Note_on_c, 0, 77, 0
1, 66816, Note_on_c, 0, 77, 79
1, 66816, Note_on_c, 1, 59, 0
1, 66816, Note_on_c, 1, 60, 88
1, 66839, Note_on_c, 0, 77, 0
1, 66840, Note_on_c, 0, 75, 79
1, 66861, Note_on_c, 1, 60, 0
1, 66863, Note_on_c, 0, 75, 0
1, 66864, Note_on_c, 0, 74, 80
1, 66864, Note_on_c, 1, 63, 88
1, 66870, Note_on_c, 0, 74, 0
1, 66870, Note_on_c, 0, 75, 80
1, 66876, Note_on_c, 0, 75, 0
1, 66876, Note_on_c, 0, 74, 80
1, 66887, Note_on_c, 0, 74, 0
1, 66888, Note_on_c, 0, 72, 80
1, 66905, Note_on_c, 1, 67, 0
1, 66909, Note_on_c, 1, 63, 0
1, 66911, Note_on_c, 0, 72, 0
1, 66912, Note_on_c, 0, 71, 81
1, 66912, Note_on_c, 1, 65, 79
1, 66912, Note_on_c, 1, 62, 88
1, 66957, Note_on_c, 0, 71, 0
1, 66957, Note_on_c, 1, 65, 0
1, 66957, Note_on_c, 1, 62, 0
1, 66960, Note_on_c, 0, 72, 82
1, 66960, Note_on_c, 1, 63, 79
1, 66960, Note_on_c, 1, 60, 88
1, 67005, Note_on_c, 0, 72, 0
1, 67005, Note_on_c, 1, 63, 0
1, 67005, Note_on_c, 1, 60, 0
1, 67008, Note_on_c, 0, 75, 83
1, 67008, Note_on_c, 1, 60, 79
1, 67008, Note_on_c, 1, 55, 88
1, 67075, Note_on_c, 0, 75, 0
1, 67080, Note_on_c, 0, 77, 81
1, 67092, Note_on_c, 0, 77, 0
1, 67092, Note_on_c, 0, 75, 80
1, 67104, Note_on_c, 0, 75, 0
1, 67104, Note_on_c, 0, 74, 80
1, 67104, Note_on_c, 1, 60, 0
1, 67104, Note_on_c, 1, 59, 79
1, 67141, Note_on_c, 1, 55, 0
1, 67149, Note_on_c, 0, 74, 0
1, 67149, Note_on_c, 1, 59, 0
1, 67200, Note_on_c, 1, 63, 79
1, 67200, Note_on_c, 1, 60, 79
1, 67248, Note_on_c, 0, 67, 79
1, 67296, Note_on_c, 0, 67, 0
1, 67296, Note_on_c, 0, 79, 79
1, 67316, Note_on_c, 0, 79, 0
1, 67344, Note_on_c, 1, 63, 0
1, 67344, Note_on_c, 1, 60, 0
1, 67344, Note_on_c, 1, 62, 79
1, 67344, Note_on_c, 1, 59, 79
1, 67389, Note_on_c, 1, 62, 0
1, 67389, Note_on_c, 1, 59, 0
1, 67392, Note_on_c, 1, 65, 79
1, 67392, Note_on_c, 1, 62, 79
1, 67440, Note_on_c, 0, 68, 80
1, 67488, Note_on_c, 0, 68, 0
1, 67488, Note_on_c, 0, 80, 80
1, 67508, Note_on_c, 0, 80, 0
1, 67536, Note_on_c, 1, 65, 0
1, 67536, Note_on_c, 1, 62, 0
1, 67536, Note_on_c, 1, 63, 80
1, 67536, Note_on_c, 1, 60, 80
1, 67581, Note_on_c, 1, 63, 0
1, 67581, Note_on_c, 1, 60, 0
1, 67584, Note_on_c, 1, 67, 80
1, 67584, Note_on_c, 1, 63, 80
1, 67632, Note_on_c, 0, 71, 81
1, 67680, Note_on_c, 0, 71, 0
1, 67680, Note_on_c, 0, 83, 81
1, 67700, Note_on_c, 0, 83, 0
1, 67728, Note_on_c, 1, 67, 0
1, 67728, Note_on_c, 1, 63, 0
1, 67728, Note_on_c, 1, 65, 81
1, 67728, Note_on_c, 1, 62, 81
1, 67773, Note_on_c, 1, 65, 0
1, 67773, Note_on_c, 1, 62, 0
1, 67776, Note_on_c, 1, 68, 81
1, 67776, Note_on_c, 1, 65, 81
1, 67824, Note_on_c, 0, 72, 82
1, 67872, Note_on_c, 0, 72, 0
1, 67872, Note_on_c, 0, 84, 82
1, 67892, Note_on_c, 0, 84, 0
1, 67920, Note_on_c, 1, 68, 0
1, 67920, Note_on_c, 1, 65, 0
1, 67920, Note_on_c, 1, 67, 82
1, 67920, Note_on_c, 1, 63, 82
1, 67965, Note_on_c, 1, 67, 0
1, 67965, Note_on_c, 1, 63, 0
1, 67968, Note_on_c, 1, 70, 83
1, 67968, Note_on_c, 1, 67, 83
1, 68016, Note_on_c, 0, 73, 83
1, 68064, Note_on_c, 0, 85, 83
1, 68112, Note_on_c, 0, 85, 0
1, 68112, Note_on_c, 0, 73, 0
1, 68112, Note_on_c, 0, 86, 83
1, 68112, Note_on_c, 0, 74, 83
1, 68112, Note_on_c, 1, 70, 0
1, 68112, Note_on_c, 1, 67, 0
1, 68112, Note_on_c, 1, 69, 83
1, 68112, Note_on_c, 1, 66, 83
1, 68132, Note_on_c, 0, 86, 0
1, 68132, Note_on_c, 0, 74, 0
1, 68157, Note_on_c, 1, 69, 0
1, 68157, Note_on_c, 1, 66, 0
1, 68160, Note_on_c, 0, 83, 88
1, 68160, Note_on_c, 0, 71, 88
1, 68160, Note_on_c, 1, 68, 88
1, 68160, Note_on_c, 1, 65, 88
1, 68208, Note_on_c, 0, 83, 0
1, 68208, Note_on_c, 0, 71, 0
1, 68208, Note_on_c, 0, 84, 88
1, 68208, Note_on_c, 0, 72, 88
1, 68208, Note_on_c, 1, 68, 0
1, 68208, Note_on_c, 1, 65, 0
1, 68208, Note_on_c, 1, 67, 88
1, 68208, Note_on_c, 1, 64, 88
1, 68228, Note_on_c, 0, 84, 0
1, 68228, Note_on_c, 0, 72, 0
1, 68253, Note_on_c, 1, 67, 0
1, 68253, Note_on_c, 1, 64, 0
1, 68256, Note_on_c, 0, 81, 88
1, 68256, Note_on_c, 0, 69, 88
1, 68256, Note_on_c, 1, 66, 88
1, 68256, Note_on_c, 1, 63, 88
1, 68304, Note_on_c, 0, 81, 0
1, 68304, Note_on_c, 0, 69, 0
1, 68304, Note_on_c, 0, 82, 88
1, 68304, Note_on_c, 0, 70, 88
1, 68304, Note_on_c, 1, 66, 0
1, 68304, Note_on_c, 1, 63, 0
1, 68304, Note_on_c, 1, 65, 88
1, 68304, Note_on_c, 1, 62, 88
1, 68324, Note_on_c, 0, 82, 0
1, 68324, Note_on_c, 0, 70, 0
1, 68349, Note_on_c, 1, 65, 0
1, 68349, Note_on_c, 1, 62, 0
1, 68544, Note_on_c, 1, 63, 62
1, 68544, Note_on_c, 1, 60, 62
1, 68592, Note_on_c, 0, 80, 62
1, 68592, Note_on_c, 0, 68, 62
1, 68637, Note_on_c, 0, 80, 0
1, 68637, Note_on_c, 0, 68, 0
1, 68640, Note_on_c, 0, 79, 62
1, 68640, Note_on_c, 0, 67, 62
1, 68685, Note_on_c, 0, 79, 0
1, 68685, Note_on_c, 0, 67, 0
1, 68688, Note_on_c, 0, 78, 62
1, 68688, Note_on_c, 0, 66, 62
1, 68721, Note_on_c, 1, 63, 0
1, 68721, Note_on_c, 1, 60, 0
1, 68733, Note_on_c, 0, 78, 0
1, 68733, Note_on_c, 0, 66, 0
1, 68736, Note_on_c, 0, 78, 62
1, 68736, Note_on_c, 0, 66, 64
1, 68736, Note_on_c, 1, 62, 62
1, 68736, Note_on_c, 1, 59, 62
1, 68876, Note_on_c, 0, 78, 0
1, 68880, Note_on_c, 0, 80, 62
1, 68903, Note_on_c, 0, 80, 0
1, 68904, Note_on_c, 0, 79, 62
1, 68927, Note_on_c, 0, 79, 0
1, 68928, Note_on_c, 0, 79, 62
1, 68928, Note_on_c, 0, 66, 0
1, 68928, Note_on_c, 0, 67, 64
1, 68948, Note_on_c, 0, 79, 0
1, 68948, Note_on_c, 0, 67, 0
1, 68973, Note_on_c, 1, 62, 0
1, 68973, Note_on_c, 1, 59, 0
1, 68976, Note_on_c, 0, 67, 79
1, 69021, Note_on_c, 0, 67, 0
1, 69024, Note_on_c, 0, 71, 79
1, 69069, Note_on_c, 0, 71, 0
1, 69072, Note_on_c, 0, 74, 79
1, 69117, Note_on_c, 0, 74, 0
1, 69120, Note_on_c, 0, 77, 79
1, 69120, Note_on_c, 0, 74, 79
1, 69168, Note_on_c, 1, 43, 79
1, 69213, Note_on_c, 1, 43, 0
1, 69216, Note_on_c, 1, 47, 79
1, 69261, Note_on_c, 1, 47, 0
1, 69264, Note_on_c, 1, 50, 79
1, 69309, Note_on_c, 1, 50, 0
1, 69312, Note_on_c, 1, 55, 79
1, 69351, Note_on_c, 1, 55, 0
1, 69357, Note_on_c, 0, 77, 0
1, 69357, Note_on_c, 0, 74, 0
1, 69360, Note_on_c, 0, 77, 79
1, 69360, Note_on_c, 0, 74, 79
1, 69405, Note_on_c, 0, 77, 0
1, 69405, Note_on_c, 0, 74, 0
1, 69408, Note_on_c, 0, 79, 79
1, 69408, Note_on_c, 0, 75, 79
1, 69431, Note_on_c, 0, 79, 0
1, 69431, Note_on_c, 0, 75, 0
1, 69432, Note_on_c, 0, 77, 79
1, 69432, Note_on_c, 0, 74, 79
1, 69455, Note_on_c, 0, 77, 0
1, 69455, Note_on_c, 0, 74, 0
1, 69456, Note_on_c, 0, 75, 79
1, 69456, Note_on_c, 0, 72, 79
1, 69479, Note_on_c, 0, 75, 0
1, 69479, Note_on_c, 0, 72, 0
1, 69480, Note_on_c, 0, 74, 79
1, 69480, Note_on_c, 0, 71, 79
1, 69503, Note_on_c, 0, 74, 0
1, 69503, Note_on_c, 0, 71, 0
1, 69504, Note_on_c, 0, 74, 95
1, 69504, Note_on_c, 0, 71, 95
1, 69552, Note_on_c, 1, 43, 79
1, 69597, Note_on_c, 1, 43, 0
1, 69600, Note_on_c, 0, 74, 0
1, 69600, Note_on_c, 0, 71, 0
1, 69600, Note_on_c, 0, 75, 79
1, 69600, Note_on_c, 0, 72, 79
1, 69600, Note_on_c, 1, 48, 79
1, 69645, Note_on_c, 1, 48, 0
1, 69648, Note_on_c, 1, 51, 79
1, 69693, Note_on_c, 1, 51, 0
1, 69696, Note_on_c, 1, 55, 79
1, 69735, Note_on_c, 1, 55, 0
1, 69741, Note_on_c, 0, 75, 0
1, 69741, Note_on_c, 0, 72, 0
1, 69744, Note_on_c, 0, 79, 79
1, 69744, Note_on_c, 0, 75, 79
1, 69789, Note_on_c, 0, 79, 0
1, 69789, Note_on_c, 0, 75, 0
1, 69792, Note_on_c, 0, 80, 79
1, 69792, Note_on_c, 0, 77, 79
1, 69815, Note_on_c, 0, 80, 0
1, 69815, Note_on_c, 0, 77, 0
1, 69816, Note_on_c, 0, 79, 79
1, 69816, Note_on_c, 0, 75, 79
1, 69839, Note_on_c, 0, 79, 0
1, 69839, Note_on_c, 0, 75, 0
1, 69840, Note_on_c, 0, 77, 79
1, 69840, Note_on_c, 0, 74, 79
1, 69863, Note_on_c, 0, 77, 0
1, 69863, Note_on_c, 0, 74, 0
1, 69864, Note_on_c, 0, 75, 79
1, 69864, Note_on_c, 0, 72, 79
1, 69887, Note_on_c, 0, 75, 0
1, 69887, Note_on_c, 0, 72, 0
1, 69888, Note_on_c, 0, 76, 95
1, 69888, Note_on_c, 0, 73, 95
1, 69936, Note_on_c, 1, 43, 79
1, 69981, Note_on_c, 1, 43, 0
1, 69984, Note_on_c, 0, 76, 0
1, 69984, Note_on_c, 0, 73, 0
1, 69984, Note_on_c, 0, 77, 79
1, 69984, Note_on_c, 0, 74, 79
1, 69984, Note_on_c, 1, 47, 79
1, 70007, Note_on_c, 1, 47, 0
1, 70008, Note_on_c, 1, 43, 79
1, 70031, Note_on_c, 1, 43, 0
1, 70032, Note_on_c, 1, 50, 79
1, 70055, Note_on_c, 1, 50, 0
1, 70056, Note_on_c, 1, 47, 79
1, 70079, Note_on_c, 1, 47, 0
1, 70080, Note_on_c, 1, 55, 79
1, 70119, Note_on_c, 1, 55, 0
1, 70125, Note_on_c, 0, 77, 0
1, 70125, Note_on_c, 0, 74, 0
1, 70128, Note_on_c, 0, 77, 79
1, 70128, Note_on_c, 0, 74, 79
1, 70173, Note_on_c, 0, 77, 0
1, 70173, Note_on_c, 0, 74, 0
1, 70176, Note_on_c, 0, 79, 79
1, 70176, Note_on_c, 0, 75, 79
1, 70199, Note_on_c, 0, 79, 0
1, 70199, Note_on_c, 0, 75, 0
1, 70200, Note_on_c, 0, 77, 79
1, 70200, Note_on_c, 0, 74, 79
1, 70223, Note_on_c, 0, 77, 0
1, 70223, Note_on_c, 0, 74, 0
1, 70224, Note_on_c, 0, 75, 79
1, 70224, Note_on_c, 0, 72, 79
1, 70247, Note_on_c, 0, 75, 0
1, 70247, Note_on_c, 0, 72, 0
1, 70248, Note_on_c, 0, 74, 79
1, 70248, Note_on_c, 0, 71, 79
1, 70271, Note_on_c, 0, 74, 0
1, 70271, Note_on_c, 0, 71, 0
1, 70272, Note_on_c, 0, 75, 68
1, 70272, Note_on_c, 0, 72, 68
1, 70320, Note_on_c, 1, 60, 70
1, 70343, Note_on_c, 1, 60, 0
1, 70344, Note_on_c, 1, 48, 72
1, 70366, Note_on_c, 0, 75, 0
1, 70366, Note_on_c, 0, 72, 0
1, 70367, Note_on_c, 1, 48, 0
1, 70368, Note_on_c, 0, 76, 73
1, 70368, Note_on_c, 0, 73, 73
1, 70416, Note_on_c, 1, 58, 76
1, 70439, Note_on_c, 1, 58, 0
1, 70440, Note_on_c, 1, 46, 78
1, 70462, Note_on_c, 0, 76, 0
1, 70462, Note_on_c, 0, 73, 0
1, 70463, Note_on_c, 1, 46, 0
1, 70464, Note_on_c, 0, 77, 78
1, 70464, Note_on_c, 0, 72, 78
1, 70512, Note_on_c, 1, 57, 82
1, 70535, Note_on_c, 1, 57, 0
1, 70536, Note_on_c, 1, 45, 83
1, 70558, Note_on_c, 0, 77, 0
1, 70558, Note_on_c, 0, 72, 0
1, 70559, Note_on_c, 1, 45, 0
1, 70560, Note_on_c, 0, 78, 83
1, 70560, Note_on_c, 0, 72, 83
1, 70608, Note_on_c, 1, 56, 88
1, 70631, Note_on_c, 1, 56, 0
1, 70632, Note_on_c, 1, 44, 88
1, 70654, Note_on_c, 0, 78, 0
1, 70654, Note_on_c, 0, 72, 0
1, 70655, Note_on_c, 1, 44, 0
1, 70656, Note_on_c, 1, 43, 83
1, 70679, Note_on_c, 1, 43, 0
1, 70680, Note_on_c, 1, 55, 83
1, 70703, Note_on_c, 1, 55, 0
1, 70704, Note_on_c, 0, 71, 83
1, 70727, Note_on_c, 0, 71, 0
1, 70728, Note_on_c, 0, 79, 83
1, 70751, Note_on_c, 0, 79, 0
1, 70752, Note_on_c, 0, 77, 83
1, 70775, Note_on_c, 0, 77, 0
1, 70776, Note_on_c, 0, 75, 83
1, 70799, Note_on_c, 0, 75, 0
1, 70800, Note_on_c, 0, 74, 83
1, 70823, Note_on_c, 0, 74, 0
1, 70824, Note_on_c, 0, 72, 83
1, 70847, Note_on_c, 0, 72, 0
1, 70848, Note_on_c, 0, 71, 83
1, 70871, Note_on_c, 0, 71, 0
1, 70872, Note_on_c, 0, 68, 83
1, 70895, Note_on_c, 0, 68, 0
1, 70896, Note_on_c, 0, 67, 83
1, 70919, Note_on_c, 0, 67, 0
1, 70920, Note_on_c, 0, 65, 83
1, 70943, Note_on_c, 0, 65, 0
1, 70944, Note_on_c, 0, 63, 83
1, 70967, Note_on_c, 0, 63, 0
1, 70968, Note_on_c, 0, 62, 83
1, 70991, Note_on_c, 0, 62, 0
1, 70992, Note_on_c, 0, 60, 83
1, 71015, Note_on_c, 0, 60, 0
1, 71016, Note_on_c, 0, 59, 83
1, 71039, Note_on_c, 0, 59, 0
1, 71040, Note_on_c, 1, 56, 83
1, 71063, Note_on_c, 1, 56, 0
1, 71064, Note_on_c, 1, 55, 83
1, 71087, Note_on_c, 1, 55, 0
1, 71088, Note_on_c, 1, 53, 83
1, 71111, Note_on_c, 1, 53, 0
1, 71112, Note_on_c, 0, 80, 83
1, 71135, Note_on_c, 0, 80, 0
1, 71136, Note_on_c, 0, 79, 80
1, 71159, Note_on_c, 0, 79, 0
1, 71160, Note_on_c, 0, 77, 78
1, 71183, Note_on_c, 0, 77, 0
1, 71184, Note_on_c, 0, 75, 75
1, 71207, Note_on_c, 0, 75, 0
1, 71208, Note_on_c, 0, 74, 73
1, 71231, Note_on_c, 0, 74, 0
1, 71232, Note_on_c, 0, 73, 70
1, 71255, Note_on_c, 0, 73, 0
1, 71256, Note_on_c, 0, 74, 68
1, 71279, Note_on_c, 0, 74, 0
1, 71280, Note_on_c, 0, 75, 68
1, 71303, Note_on_c, 0, 75, 0
1, 71304, Note_on_c, 0, 74, 68
1, 71327, Note_on_c, 0, 74, 0
1, 71328, Note_on_c, 0, 77, 69
1, 71351, Note_on_c, 0, 77, 0
1, 71352, Note_on_c, 0, 75, 69
1, 71375, Note_on_c, 0, 75, 0
1, 71376, Note_on_c, 0, 79, 70
1, 71399, Note_on_c, 0, 79, 0
1, 71400, Note_on_c, 0, 77, 70
1, 71423, Note_on_c, 0, 77, 0
1, 71424, Note_on_c, 0, 80, 71
1, 71447, Note_on_c, 0, 80, 0
1, 71448, Note_on_c, 0, 79, 71
1, 71471, Note_on_c, 0, 79, 0
1, 71472, Note_on_c, 0, 82, 72
1, 71495, Note_on_c, 0, 82, 0
1, 71496, Note_on_c, 0, 80, 72
1, 71519, Note_on_c, 0, 80, 0
1, 71520, Note_on_c, 0, 79, 73
1, 71543, Note_on_c, 0, 79, 0
1, 71544, Note_on_c, 0, 77, 73
1, 71567, Note_on_c, 0, 77, 0
1, 71568, Note_on_c, 0, 75, 74
1, 71591, Note_on_c, 0, 75, 0
1, 71592, Note_on_c, 0, 74, 74
1, 71615, Note_on_c, 0, 74, 0
1, 71616, Note_on_c, 0, 73, 68
1, 71639, Note_on_c, 0, 73, 0
1, 71640, Note_on_c, 0, 74, 69
1, 71663, Note_on_c, 0, 74, 0
1, 71664, Note_on_c, 0, 75, 71
1, 71687, Note_on_c, 0, 75, 0
1, 71688, Note_on_c, 0, 74, 73
1, 71711, Note_on_c, 0, 74, 0
1, 71712, Note_on_c, 0, 77, 75
1, 71735, Note_on_c, 0, 77, 0
1, 71736, Note_on_c, 0, 75, 77
1, 71759, Note_on_c, 0, 75, 0
1, 71760, Note_on_c, 0, 74, 79
1, 71783, Note_on_c, 0, 74, 0
1, 71784, Note_on_c, 0, 72, 81
1, 71807, Note_on_c, 0, 72, 0
1, 71808, Note_on_c, 0, 72, 83
1, 71856, Note_on_c, 1, 65, 68
1, 71856, Note_on_c, 1, 62, 68
1, 71856, Note_on_c, 1, 55, 68
1, 71903, Note_on_c, 1, 65, 0
1, 71903, Note_on_c, 1, 62, 0
1, 71903, Note_on_c, 1, 55, 0
1, 71904, Note_on_c, 1, 65, 70
1, 71904, Note_on_c, 1, 62, 70
1, 71904, Note_on_c, 1, 55, 70
1, 71951, Note_on_c, 1, 65, 0
1, 71951, Note_on_c, 1, 62, 0
1, 71951, Note_on_c, 1, 55, 0
1, 71952, Note_on_c, 1, 65, 72
1, 71952, Note_on_c, 1, 62, 72
1, 71952, Note_on_c, 1, 55, 72
1, 71999, Note_on_c, 1, 65, 0
1, 71999, Note_on_c, 1, 62, 0
1, 71999, Note_on_c, 1, 55, 0
1, 72000, Note_on_c, 1, 65, 74
1, 72000, Note_on_c, 1, 62, 74
1, 72000, Note_on_c, 1, 55, 74
1, 72015, Note_on_c, 0, 72, 0
1, 72016, Note_on_c, 0, 71, 83
1, 72031, Note_on_c, 0, 71, 0
1, 72032, Note_on_c, 0, 72, 83
1, 72047, Note_on_c, 0, 72, 0
1, 72048, Note_on_c, 0, 74, 83
1, 72063, Note_on_c, 0, 74, 0
1, 72064, Note_on_c, 0, 72, 83
1, 72079, Note_on_c, 0, 72, 0
1, 72080, Note_on_c, 0, 71, 83
1, 72095, Note_on_c, 0, 71, 0
1, 72096, Note_on_c, 0, 77, 83
1, 72111, Note_on_c, 0, 77, 0
1, 72112, Note_on_c, 0, 75, 83
1, 72127, Note_on_c, 0, 75, 0
1, 72128, Note_on_c, 0, 74, 83
1, 72143, Note_on_c, 0, 74, 0
1, 72144, Note_on_c, 0, 80, 83
1, 72159, Note_on_c, 0, 80, 0
1, 72160, Note_on_c, 0, 77, 83
1, 72175, Note_on_c, 0, 77, 0
1, 72176, Note_on_c, 0, 74, 83
1, 72187, Note_on_c, 1, 65, 0
1, 72187, Note_on_c, 1, 62, 0
1, 72187, Note_on_c, 1, 55, 0
1, 72191, Note_on_c, 0, 74, 0
1, 72192, Note_on_c, 0, 72, 83
1, 72240, Note_on_c, 1, 56, 79
1, 72255, Note_on_c, 1, 56, 0
1, 72256, Note_on_c, 1, 62, 79
1, 72271, Note_on_c, 1, 62, 0
1, 72272, Note_on_c, 1, 65, 79
1, 72287, Note_on_c, 1, 65, 0
1, 72288, Note_on_c, 1, 56, 79
1, 72303, Note_on_c, 1, 56, 0
1, 72304, Note_on_c, 1, 62, 79
1, 72319, Note_on_c, 1, 62, 0
1, 72320, Note_on_c, 1, 65, 79
1, 72335, Note_on_c, 1, 65, 0
1, 72336, Note_on_c, 1, 56, 79
1, 72351, Note_on_c, 1, 56, 0
1, 72352, Note_on_c, 1, 62, 79
1, 72367, Note_on_c, 1, 62, 0
1, 72368, Note_on_c, 1, 65, 79
1, 72383, Note_on_c, 1, 65, 0
1, 72384, Note_on_c, 1, 56, 79
1, 72399, Note_on_c, 0, 72, 0
1, 72400, Note_on_c, 0, 71, 83
1, 72415, Note_on_c, 0, 71, 0
1, 72416, Note_on_c, 0, 72, 83
1, 72431, Note_on_c, 0, 72, 0
1, 72432, Note_on_c, 0, 74, 83
1, 72447, Note_on_c, 0, 74, 0
1, 72448, Note_on_c, 0, 72, 83
1, 72463, Note_on_c, 0, 72, 0
1, 72464, Note_on_c, 0, 71, 83
1, 72479, Note_on_c, 0, 71, 0
1, 72480, Note_on_c, 0, 77, 83
1, 72495, Note_on_c, 0, 77, 0
1, 72496, Note_on_c, 0, 75, 83
1, 72511, Note_on_c, 0, 75, 0
1, 72512, Note_on_c, 0, 74, 83
1, 72527, Note_on_c, 0, 74, 0
1, 72528, Note_on_c, 0, 80, 83
1, 72543, Note_on_c, 0, 80, 0
1, 72544, Note_on_c, 0, 77, 83
1, 72559, Note_on_c, 0, 77, 0
1, 72560, Note_on_c, 0, 74, 83
1, 72561, Note_on_c, 1, 56, 0
1, 72575, Note_on_c, 0, 74, 0
1, 72576, Note_on_c, 0, 72, 83
1, 72624, Note_on_c, 1, 56, 74
1, 72639, Note_on_c, 1, 56, 0
1, 72640, Note_on_c, 1, 62, 74
1, 72655, Note_on_c, 1, 62, 0
1, 72656, Note_on_c, 1, 65, 74
1, 72671, Note_on_c, 1, 65, 0
1, 72672, Note_on_c, 1, 56, 74
1, 72687, Note_on_c, 1, 56, 0
1, 72688, Note_on_c, 1, 62, 74
1, 72703, Note_on_c, 1, 62, 0
1, 72704, Note_on_c, 1, 65, 74
1, 72719, Note_on_c, 1, 65, 0
1, 72720, Note_on_c, 1, 56, 74
1, 72735, Note_on_c, 1, 56, 0
1, 72736, Note_on_c, 1, 62, 74
1, 72751, Note_on_c, 1, 62, 0
1, 72752, Note_on_c, 1, 65, 74
1, 72767, Note_on_c, 1, 65, 0
1, 72768, Note_on_c, 1, 56, 83
1, 72908, Note_on_c, 0, 72, 0
1, 72912, Note_on_c, 0, 71, 68
1, 72936, Note_on_c, 0, 71, 0
1, 72936, Note_on_c, 0, 72, 68
1, 72960, Note_on_c, 0, 72, 0
1, 72960, Note_on_c, 0, 74, 68
1, 72984, Note_on_c, 0, 74, 0
1, 72984, Note_on_c, 0, 72, 68
1, 73008, Note_on_c, 0, 72, 0
1, 73008, Note_on_c, 0, 71, 68
1, 73032, Note_on_c, 0, 71, 0
1, 73032, Note_on_c, 0, 77, 68
1, 73056, Note_on_c, 0, 77, 0
1, 73056, Note_on_c, 0, 75, 68
1, 73080, Note_on_c, 0, 75, 0
1, 73080, Note_on_c, 0, 74, 68
1, 73104, Note_on_c, 0, 74, 0
1, 73104, Note_on_c, 0, 80, 68
1, 73244, Note_on_c, 0, 80, 0
1, 73248, Note_on_c, 0, 79, 68
1, 73268, Note_on_c, 0, 79, 0
1, 73268, Note_on_c, 0, 77, 68
1, 73287, Note_on_c, 0, 77, 0
1, 73287, Note_on_c, 0, 75, 68
1, 73306, Note_on_c, 0, 75, 0
1, 73306, Note_on_c, 0, 74, 68
1, 73325, Note_on_c, 0, 74, 0
1, 73325, Note_on_c, 0, 72, 68
1, 73392, Note_on_c, 1, 55, 62
1, 73438, Note_on_c, 1, 56, 0
1, 73440, Note_on_c, 1, 65, 62
1, 73484, Note_on_c, 0, 72, 0
1, 73488, Note_on_c, 0, 71, 62
1, 73536, Note_on_c, 0, 80, 62
1, 73583, Note_on_c, 1, 55, 0
1, 73584, Note_on_c, 1, 55, 62
1, 73627, Note_on_c, 1, 65, 0
1, 73632, Note_on_c, 1, 65, 62
1, 73679, Note_on_c, 0, 71, 0
1, 73680, Note_on_c, 0, 71, 62
1, 73723, Note_on_c, 0, 80, 0
1, 73727, Note_on_c, 0, 71, 0
1, 73728, Note_on_c, 0, 80, 62
1, 73915, Note_on_c, 0, 80, 0
1, 73915, Note_on_c, 1, 65, 0
1, 73915, Note_on_c, 1, 55, 0
1, 73920, Note_on_c, 1, 60, 99
1, 73920, Note_on_c, 1, 55, 99
1, 73920, Note_on_c, 1, 51, 99
1, 73968, Note_on_c, 0, 84, 83
1, 73980, Note_on_c, 0, 84, 0
1, 73980, Note_on_c, 0, 79, 83
1, 73995, Note_on_c, 0, 79, 0
1, 74016, Note_on_c, 0, 79, 83
1, 74016, Note_on_c, 1, 60, 0
1, 74016, Note_on_c, 1, 55, 0
1, 74016, Note_on_c, 1, 51, 0
1, 74028, Note_on_c, 0, 79, 0
1, 74028, Note_on_c, 0, 75, 83
1, 74043, Note_on_c, 0, 75, 0
1, 74064, Note_on_c, 0, 75, 83
1, 74076, Note_on_c, 0, 75, 0
1, 74076, Note_on_c, 0, 72, 83
1, 74091, Note_on_c, 0, 72, 0
1, 74112, Note_on_c, 1, 60, 99
1, 74112, Note_on_c, 1, 56, 99
1, 74112, Note_on_c, 1, 53, 99
1, 74160, Note_on_c, 0, 84, 83
1, 74172, Note_on_c, 0, 84, 0
1, 74172, Note_on_c, 0, 80, 83
1, 74187, Note_on_c, 0, 80, 0
1, 74208, Note_on_c, 0, 80, 83
1, 74208, Note_on_c, 1, 60, 0
1, 74208, Note_on_c, 1, 56, 0
1, 74208, Note_on_c, 1, 53, 0
1, 74220, Note_on_c, 0, 80, 0
1, 74220, Note_on_c, 0, 77, 83
1, 74235, Note_on_c, 0, 77, 0
1, 74256, Note_on_c, 0, 77, 83
1, 74268, Note_on_c, 0, 77, 0
1, 74268, Note_on_c, 0, 74, 83
1, 74283, Note_on_c, 0, 74, 0
1, 74304, Note_on_c, 0, 72, 79
1, 74352, Note_on_c, 1, 63, 79
1, 74352, Note_on_c, 1, 55, 79
1, 74399, Note_on_c, 1, 63, 0
1, 74399, Note_on_c, 1, 55, 0
1, 74400, Note_on_c, 1, 63, 79
1, 74400, Note_on_c, 1, 55, 79
1, 74423, Note_on_c, 0, 72, 0
1, 74424, Note_on_c, 0, 71, 79
1, 74447, Note_on_c, 0, 71, 0
1, 74447, Note_on_c, 1, 63, 0
1, 74447, Note_on_c, 1, 55, 0
1, 74448, Note_on_c, 0, 77, 79
1, 74448, Note_on_c, 1, 62, 81
1, 74448, Note_on_c, 1, 55, 81
1, 74463, Note_on_c, 0, 77, 0
1, 74464, Note_on_c, 0, 74, 79
1, 74479, Note_on_c, 0, 74, 0
1, 74480, Note_on_c, 0, 71, 79
1, 74495, Note_on_c, 0, 71, 0
1, 74495, Note_on_c, 1, 62, 0
1, 74495, Note_on_c, 1, 55, 0
1, 74496, Note_on_c, 0, 79, 83
1, 74544, Note_on_c, 1, 63, 83
1, 74544, Note_on_c, 1, 55, 83
1, 74591, Note_on_c, 1, 63, 0
1, 74591, Note_on_c, 1, 55, 0
1, 74592, Note_on_c, 1, 63, 83
1, 74592, Note_on_c, 1, 55, 83
1, 74607, Note_on_c, 0, 79, 0
1, 74608, Note_on_c, 0, 75, 82
1, 74623, Note_on_c, 0, 75, 0
1, 74624, Note_on_c, 0, 72, 81
1, 74639, Note_on_c, 0, 72, 0
1, 74639, Note_on_c, 1, 63, 0
1, 74639, Note_on_c, 1, 55, 0
1, 74640, Note_on_c, 0, 77, 81
1, 74640, Note_on_c, 1, 62, 81
1, 74640, Note_on_c, 1, 55, 81
1, 74655, Note_on_c, 0, 77, 0
1, 74656, Note_on_c, 0, 74, 80
1, 74671, Note_on_c, 0, 74, 0
1, 74672, Note_on_c, 0, 71, 79
1, 74687, Note_on_c, 0, 71, 0
1, 74687, Note_on_c, 1, 62, 0
1, 74687, Note_on_c, 1, 55, 0
1, 74688, Note_on_c, 0, 79, 68
1, 74736, Note_on_c, 1, 63, 68
1, 74736, Note_on_c, 1, 55, 68
1, 74783, Note_on_c, 1, 63, 0
1, 74783, Note_on_c, 1, 55, 0
1, 74784, Note_on_c, 1, 63, 68
1, 74784, Note_on_c, 1, 55, 68
1, 74799, Note_on_c, 0, 79, 0
1, 74800, Note_on_c, 0, 75, 68
1, 74815, Note_on_c, 0, 75, 0
1, 74816, Note_on_c, 0, 72, 69
1, 74831, Note_on_c, 0, 72, 0
1, 74831, Note_on_c, 1, 63, 0
1, 74831, Note_on_c, 1, 55, 0
1, 74832, Note_on_c, 0, 77, 70
1, 74832, Note_on_c, 1, 62, 71
1, 74832, Note_on_c, 1, 55, 71
1, 74847, Note_on_c, 0, 77, 0
1, 74848, Note_on_c, 0, 74, 71
1, 74863, Note_on_c, 0, 74, 0
1, 74864, Note_on_c, 0, 71, 71
1, 74879, Note_on_c, 0, 71, 0
1, 74879, Note_on_c, 1, 62, 0
1, 74879, Note_on_c, 1, 55, 0
1, 74880, Note_on_c, 0, 79, 83
1, 74928, Note_on_c, 1, 63, 83
1, 74928, Note_on_c, 1, 55, 83
1, 74975, Note_on_c, 1, 63, 0
1, 74975, Note_on_c, 1, 55, 0
1, 74976, Note_on_c, 1, 63, 83
1, 74976, Note_on_c, 1, 55, 83
1, 74991, Note_on_c, 0, 79, 0
1, 74992, Note_on_c, 0, 75, 83
1, 75007, Note_on_c, 0, 75, 0
1, 75008, Note_on_c, 0, 72, 83
1, 75023, Note_on_c, 0, 72, 0
1, 75023, Note_on_c, 1, 63, 0
1, 75023, Note_on_c, 1, 55, 0
1, 75024, Note_on_c, 0, 80, 83
1, 75024, Note_on_c, 1, 65, 83
1, 75024, Note_on_c, 1, 55, 83
1, 75039, Note_on_c, 0, 80, 0
1, 75040, Note_on_c, 0, 77, 83
1, 75055, Note_on_c, 0, 77, 0
1, 75056, Note_on_c, 0, 74, 83
1, 75071, Note_on_c, 0, 74, 0
1, 75071, Note_on_c, 1, 65, 0
1, 75071, Note_on_c, 1, 55, 0
1, 75072, Note_on_c, 0, 83, 83
1, 75072, Note_on_c, 1, 62, 83
1, 75072, Note_on_c, 1, 55, 83
1, 75087, Note_on_c, 0, 83, 0
1, 75088, Note_on_c, 0, 77, 83
1, 75103, Note_on_c, 0, 77, 0
1, 75104, Note_on_c, 0, 74, 83
1, 75119, Note_on_c, 0, 74, 0
1, 75119, Note_on_c, 1, 62, 0
1, 75119, Note_on_c, 1, 55, 0
1, 75120, Note_on_c, 0, 84, 83
1, 75120, Note_on_c, 1, 63, 83
1, 75120, Note_on_c, 1, 55, 83
1, 75135, Note_on_c, 0, 84, 0
1, 75136, Note_on_c, 0, 79, 83
1, 75151, Note_on_c, 0, 79, 0
1, 75152, Note_on_c, 0, 75, 83
1, 75167, Note_on_c, 0, 75, 0
1, 75167, Note_on_c, 1, 63, 0
1, 75167, Note_on_c, 1, 55, 0
1, 75168, Note_on_c, 0, 86, 88
1, 75168, Note_on_c, 1, 59, 88
1, 75168, Note_on_c, 1, 55, 88
1, 75183, Note_on_c, 0, 86, 0
1, 75184, Note_on_c, 0, 83, 88
1, 75199, Note_on_c, 0, 83, 0
1, 75200, Note_on_c, 0, 79, 88
1, 75215, Note_on_c, 0, 79, 0
1, 75215, Note_on_c, 1, 59, 0
1, 75215, Note_on_c, 1, 55, 0
1, 75216, Note_on_c, 0, 87, 88
1, 75216, Note_on_c, 1, 60, 88
1, 75216, Note_on_c, 1, 55, 88
1, 75231, Note_on_c, 0, 87, 0
1, 75232, Note_on_c, 0, 84, 88
1, 75247, Note_on_c, 0, 84, 0
1, 75248, Note_on_c, 0, 79, 88
1, 75263, Note_on_c, 0, 79, 0
1, 75263, Note_on_c, 1, 60, 0
1, 75263, Note_on_c, 1, 55, 0
1, 75264, Note_on_c, 0, 89, 88
1, 75264, Note_on_c, 1, 62, 88
1, 75264, Note_on_c, 1, 55, 88
1, 75303, Note_on_c, 0, 89, 0
1, 75353, Note_on_c, 1, 62, 0
1, 75353, Note_on_c, 1, 55, 0
1, 75456, Note_on_c, 1, 60, 68
1, 75471, Note_on_c, 1, 60, 0
1, 75472, Note_on_c, 1, 63, 68
1, 75487, Note_on_c, 1, 63, 0
1, 75488, Note_on_c, 1, 67, 68
1, 75503, Note_on_c, 1, 67, 0
1, 75504, Note_on_c, 1, 60, 68
1, 75519, Note_on_c, 1, 60, 0
1, 75520, Note_on_c, 1, 63, 68
1, 75535, Note_on_c, 1, 63, 0
1, 75536, Note_on_c, 1, 67, 68
1, 75551, Note_on_c, 1, 67, 0
1, 75552, Note_on_c, 1, 60, 68
1, 75567, Note_on_c, 1, 60, 0
1, 75568, Note_on_c, 1, 63, 68
1, 75583, Note_on_c, 1, 63, 0
1, 75584, Note_on_c, 1, 67, 68
1, 75599, Note_on_c, 1, 67, 0
1, 75600, Note_on_c, 0, 77, 62
1, 75600, Note_on_c, 1, 60, 68
1, 75612, Note_on_c, 0, 77, 0
1, 75612, Note_on_c, 0, 75, 62
1, 75615, Note_on_c, 1, 60, 0
1, 75616, Note_on_c, 1, 63, 68
1, 75624, Note_on_c, 0, 75, 0
1, 75624, Note_on_c, 0, 74, 62
1, 75631, Note_on_c, 1, 63, 0
1, 75632, Note_on_c, 1, 67, 68
1, 75636, Note_on_c, 0, 74, 0
1, 75636, Note_on_c, 0, 72, 63
1, 75647, Note_on_c, 1, 67, 0
1, 75648, Note_on_c, 0, 72, 0
1, 75648, Note_on_c, 0, 71, 63
1, 75648, Note_on_c, 1, 62, 68
1, 75663, Note_on_c, 1, 62, 0
1, 75664, Note_on_c, 1, 65, 69
1, 75668, Note_on_c, 0, 71, 0
1, 75679, Note_on_c, 1, 65, 0
1, 75680, Note_on_c, 1, 67, 69
1, 75695, Note_on_c, 1, 67, 0
1, 75696, Note_on_c, 1, 62, 69
1, 75711, Note_on_c, 1, 62, 0
1, 75712, Note_on_c, 1, 65, 69
1, 75727, Note_on_c, 1, 65, 0
1, 75728, Note_on_c, 1, 67, 70
1, 75743, Note_on_c, 1, 67, 0
1, 75744, Note_on_c, 1, 59, 70
1, 75759, Note_on_c, 1, 59, 0
1, 75760, Note_on_c, 1, 62, 70
1, 75775, Note_on_c, 1, 62, 0
1, 75776, Note_on_c, 1, 67, 70
1, 75791, Note_on_c, 1, 67, 0
1, 75792, Note_on_c, 0, 82, 68
1, 75792, Note_on_c, 1, 59, 71
1, 75804, Note_on_c, 0, 82, 0
1, 75804, Note_on_c, 0, 80, 68
1, 75807, Note_on_c, 1, 59, 0
1, 75808, Note_on_c, 1, 62, 71
1, 75816, Note_on_c, 0, 80, 0
1, 75816, Note_on_c, 0, 79, 68
1, 75823, Note_on_c, 1, 62, 0
1, 75824, Note_on_c, 1, 67, 71
1, 75828, Note_on_c, 0, 79, 0
1, 75828, Note_on_c, 0, 77, 69
1, 75839, Note_on_c, 1, 67, 0
1, 75840, Note_on_c, 0, 77, 0
1, 75840, Note_on_c, 0, 75, 69
1, 75840, Note_on_c, 1, 60, 72
1, 75855, Note_on_c, 1, 60, 0
1, 75856, Note_on_c, 1, 63, 72
1, 75860, Note_on_c, 0, 75, 0
1, 75871, Note_on_c, 1, 63, 0
1, 75872, Note_on_c, 1, 67, 72
1, 75887, Note_on_c, 1, 67, 0
1, 75888, Note_on_c, 1, 60, 72
1, 75903, Note_on_c, 1, 60, 0
1, 75904, Note_on_c, 1, 63, 73
1, 75919, Note_on_c, 1, 63, 0
1, 75920, Note_on_c, 1, 67, 73
1, 75935, Note_on_c, 1, 67, 0
1, 75936, Note_on_c, 1, 60, 73
1, 75951, Note_on_c, 1, 60, 0
1, 75952, Note_on_c, 1, 63, 73
1, 75967, Note_on_c, 1, 63, 0
1, 75968, Note_on_c, 1, 67, 74
1, 75983, Note_on_c, 1, 67, 0
1, 75984, Note_on_c, 0, 77, 74
1, 75984, Note_on_c, 1, 60, 74
1, 75996, Note_on_c, 0, 77, 0
1, 75996, Note_on_c, 0, 75, 74
1, 75999, Note_on_c, 1, 60, 0
1, 76000, Note_on_c, 1, 63, 74
1, 76008, Note_on_c, 0, 75, 0
1, 76008, Note_on_c, 0, 74, 74
1, 76015, Note_on_c, 1, 63, 0
1, 76016, Note_on_c, 1, 67, 74
1, 76020, Note_on_c, 0, 74, 0
1, 76020, Note_on_c, 0, 72, 75
1, 76031, Note_on_c, 1, 67, 0
1, 76032, Note_on_c, 0, 72, 0
1, 76032, Note_on_c, 0, 71, 75
1, 76032, Note_on_c, 1, 62, 75
1, 76047, Note_on_c, 1, 62, 0
1, 76048, Note_on_c, 1, 65, 75
1, 76052, Note_on_c, 0, 71, 0
1, 76063, Note_on_c, 1, 65, 0
1, 76064, Note_on_c, 1, 67, 75
1, 76079, Note_on_c, 1, 67, 0
1, 76080, Note_on_c, 1, 62, 76
1, 76095, Note_on_c, 1, 62, 0
1, 76096, Note_on_c, 1, 65, 76
1, 76111, Note_on_c, 1, 65, 0
1, 76112, Note_on_c, 1, 67, 76
1, 76127, Note_on_c, 1, 67, 0
1, 76128, Note_on_c, 1, 59, 76
1, 76143, Note_on_c, 1, 59, 0
1, 76144, Note_on_c, 1, 62, 77
1, 76159, Note_on_c, 1, 62, 0
1, 76160, Note_on_c, 1, 67, 77
1, 76175, Note_on_c, 1, 67, 0
1, 76176, Note_on_c, 0, 82, 80
1, 76176, Note_on_c, 1, 59, 77
1, 76188, Note_on_c, 0, 82, 0
1, 76188, Note_on_c, 0, 80, 80
1, 76191, Note_on_c, 1, 59, 0
1, 76192, Note_on_c, 1, 62, 77
1, 76200, Note_on_c, 0, 80, 0
1, 76200, Note_on_c, 0, 79, 80
1, 76207, Note_on_c, 1, 62, 0
1, 76208, Note_on_c, 1, 67, 78
1, 76212, Note_on_c, 0, 79, 0
1, 76212, Note_on_c, 0, 77, 81
1, 76223, Note_on_c, 1, 67, 0
1, 76224, Note_on_c, 0, 77, 0
1, 76224, Note_on_c, 0, 75, 81
1, 76224, Note_on_c, 1, 60, 78
1, 76239, Note_on_c, 1, 60, 0
1, 76240, Note_on_c, 1, 63, 78
1, 76244, Note_on_c, 0, 75, 0
1, 76255, Note_on_c, 1, 63, 0
1, 76256, Note_on_c, 1, 67, 78
1, 76271, Note_on_c, 1, 67, 0
1, 76272, Note_on_c, 0, 77, 83
1, 76272, Note_on_c, 1, 60, 83
1, 76284, Note_on_c, 0, 77, 0
1, 76284, Note_on_c, 0, 75, 83
1, 76287, Note_on_c, 1, 60, 0
1, 76288, Note_on_c, 1, 63, 83
1, 76296, Note_on_c, 0, 75, 0
1, 76296, Note_on_c, 0, 74, 83
1, 76303, Note_on_c, 1, 63, 0
1, 76304, Note_on_c, 1, 67, 83
1, 76308, Note_on_c, 0, 74, 0
1, 76308, Note_on_c, 0, 72, 83
1, 76319, Note_on_c, 1, 67, 0
1, 76320, Note_on_c, 0, 72, 0
1, 76320, Note_on_c, 0, 71, 83
1, 76320, Note_on_c, 1, 62, 83
1, 76335, Note_on_c, 1, 62, 0
1, 76336, Note_on_c, 1, 65, 83
1, 76340, Note_on_c, 0, 71, 0
1, 76351, Note_on_c, 1, 65, 0
1, 76352, Note_on_c, 1, 67, 83
1, 76367, Note_on_c, 1, 67, 0
1, 76368, Note_on_c, 0, 82, 83
1, 76368, Note_on_c, 1, 59, 83
1, 76380, Note_on_c, 0, 82, 0
1, 76380, Note_on_c, 0, 80, 83
1, 76383, Note_on_c, 1, 59, 0
1, 76384, Note_on_c, 1, 62, 83
1, 76392, Note_on_c, 0, 80, 0
1, 76392, Note_on_c, 0, 79, 83
1, 76399, Note_on_c, 1, 62, 0
1, 76400, Note_on_c, 1, 67, 83
1, 76404, Note_on_c, 0, 79, 0
1, 76404, Note_on_c, 0, 77, 83
1, 76415, Note_on_c, 1, 67, 0
1, 76416, Note_on_c, 0, 77, 0
1, 76416, Note_on_c, 0, 75, 83
1, 76416, Note_on_c, 1, 60, 83
1, 76431, Note_on_c, 1, 60, 0
1, 76432, Note_on_c, 1, 63, 83
1, 76436, Note_on_c, 0, 75, 0
1, 76447, Note_on_c, 1, 63, 0
1, 76448, Note_on_c, 1, 67, 83
1, 76463, Note_on_c, 1, 67, 0
1, 76464, Note_on_c, 0, 77, 83
1, 76464, Note_on_c, 1, 60, 83
1, 76476, Note_on_c, 0, 77, 0
1, 76476, Note_on_c, 0, 75, 83
1, 76479, Note_on_c, 1, 60, 0
1, 76480, Note_on_c, 1, 63, 83
1, 76488, Note_on_c, 0, 75, 0
1, 76488, Note_on_c, 0, 74, 83
1, 76495, Note_on_c, 1, 63, 0
1, 76496, Note_on_c, 1, 67, 83
1, 76500, Note_on_c, 0, 74, 0
1, 76500, Note_on_c, 0, 72, 83
1, 76511, Note_on_c, 1, 67, 0
1, 76512, Note_on_c, 0, 72, 0
1, 76512, Note_on_c, 0, 71, 83
1, 76512, Note_on_c, 1, 62, 83
1, 76527, Note_on_c, 1, 62, 0
1, 76528, Note_on_c, 1, 65, 83
1, 76532, Note_on_c, 0, 71, 0
1, 76543, Note_on_c, 1, 65, 0
1, 76544, Note_on_c, 1, 67, 83
1, 76559, Note_on_c, 1, 67, 0
1, 76560, Note_on_c, 0, 82, 83
1, 76560, Note_on_c, 1, 59, 83
1, 76572, Note_on_c, 0, 82, 0
1, 76572, Note_on_c, 0, 80, 83
1, 76575, Note_on_c, 1, 59, 0
1, 76576, Note_on_c, 1, 62, 83
1, 76584, Note_on_c, 0, 80, 0
1, 76584, Note_on_c, 0, 79, 83
1, 76591, Note_on_c, 1, 62, 0
1, 76592, Note_on_c, 1, 67, 83
1, 76596, Note_on_c, 0, 79, 0
1, 76596, Note_on_c, 0, 77, 83
1, 76607, Note_on_c, 1, 67, 0
1, 76608, Note_on_c, 0, 77, 0
1, 76608, Note_on_c, 0, 75, 83
1, 76608, Note_on_c, 1, 60, 83
1, 76628, Note_on_c, 0, 75, 0
1, 76653, Note_on_c, 1, 60, 0
1, 76656, Note_on_c, 0, 89, 83
1, 76671, Note_on_c, 0, 89, 0
1, 76672, Note_on_c, 0, 87, 82
1, 76687, Note_on_c, 0, 87, 0
1, 76688, Note_on_c, 0, 86, 82
1, 76703, Note_on_c, 0, 86, 0
1, 76704, Note_on_c, 0, 84, 82
1, 76719, Note_on_c, 0, 84, 0
1, 76720, Note_on_c, 0, 82, 81
1, 76735, Note_on_c, 0, 82, 0
1, 76736, Note_on_c, 0, 80, 81
1, 76751, Note_on_c, 0, 80, 0
1, 76752, Note_on_c, 0, 79, 81
1, 76767, Note_on_c, 0, 79, 0
1, 76768, Note_on_c, 0, 77, 80
1, 76783, Note_on_c, 0, 77, 0
1, 76784, Note_on_c, 0, 75, 80
1, 76799, Note_on_c, 0, 75, 0
1, 76800, Note_on_c, 0, 74, 79
1, 76800, Note_on_c, 1, 56, 83
1, 76800, Note_on_c, 1, 53, 83
1, 76845, Note_on_c, 0, 74, 0
1, 76872, Note_on_c, 0, 73, 79
1, 76889, Note_on_c, 1, 56, 0
1, 76889, Note_on_c, 1, 53, 0
1, 76895, Note_on_c, 0, 73, 0
1, 76896, Note_on_c, 0, 74, 79
1, 76919, Note_on_c, 0, 74, 0
1, 76920, Note_on_c, 0, 75, 79
1, 76943, Note_on_c, 0, 75, 0
1, 76944, Note_on_c, 0, 76, 80
1, 76967, Note_on_c, 0, 76, 0
1, 76968, Note_on_c, 0, 77, 81
1, 76991, Note_on_c, 0, 77, 0
1, 76992, Note_on_c, 0, 78, 81
1, 77015, Note_on_c, 0, 78, 0
1, 77016, Note_on_c, 0, 79, 82
1, 77039, Note_on_c, 0, 79, 0
1, 77040, Note_on_c, 0, 82, 83
1, 77046, Note_on_c, 0, 82, 0
1, 77046, Note_on_c, 0, 84, 83
1, 77052, Note_on_c, 0, 84, 0
1, 77052, Note_on_c, 0, 82, 83
1, 77063, Note_on_c, 0, 82, 0
1, 77064, Note_on_c, 0, 80, 83
1, 77087, Note_on_c, 0, 80, 0
1, 77088, Note_on_c, 0, 79, 83
1, 77111, Note_on_c, 0, 79, 0
1, 77112, Note_on_c, 0, 77, 82
1, 77135, Note_on_c, 0, 77, 0
1, 77136, Note_on_c, 0, 75, 82
1, 77159, Note_on_c, 0, 75, 0
1, 77160, Note_on_c, 0, 74, 81
1, 77183, Note_on_c, 0, 74, 0
1, 77184, Note_on_c, 0, 72, 81
1, 77232, Note_on_c, 1, 63, 74
1, 77232, Note_on_c, 1, 55, 74
1, 77277, Note_on_c, 1, 63, 0
1, 77277, Note_on_c, 1, 55, 0
1, 77280, Note_on_c, 1, 63, 74
1, 77280, Note_on_c, 1, 55, 74
1, 77303, Note_on_c, 0, 72, 0
1, 77304, Note_on_c, 0, 71, 79
1, 77325, Note_on_c, 1, 63, 0
1, 77325, Note_on_c, 1, 55, 0
1, 77327, Note_on_c, 0, 71, 0
1, 77328, Note_on_c, 0, 77, 79
1, 77328, Note_on_c, 1, 62, 74
1, 77328, Note_on_c, 1, 55, 74
1, 77343, Note_on_c, 0, 77, 0
1, 77344, Note_on_c, 0, 74, 79
1, 77359, Note_on_c, 0, 74, 0
1, 77360, Note_on_c, 0, 71, 79
1, 77373, Note_on_c, 1, 62, 0
1, 77373, Note_on_c, 1, 55, 0
1, 77375, Note_on_c, 0, 71, 0
1, 77376, Note_on_c, 0, 72, 79
1, 77376, Note_on_c, 1, 60, 74
1, 77376, Note_on_c, 1, 48, 74
1, 77421, Note_on_c, 0, 72, 0
1, 77421, Note_on_c, 1, 60, 0
1, 77421, Note_on_c, 1, 48, 0
1, 77424, Note_on_c, 1, 60, 74
1, 77424, Note_on_c, 1, 48, 74
1, 77469, Note_on_c, 1, 60, 0
1, 77469, Note_on_c, 1, 48, 0
1, 77472, Note_on_c, 0, 79, 79
1, 77472, Note_on_c, 0, 75, 79
1, 77472, Note_on_c, 1, 60, 74
1, 77472, Note_on_c, 1, 48, 74
1, 77517, Note_on_c, 1, 60, 0
1, 77517, Note_on_c, 1, 48, 0
1, 77520, Note_on_c, 1, 60, 74
1, 77520, Note_on_c, 1, 48, 74
1, 77544, Note_on_c, 0, 79, 0
1, 77544, Note_on_c, 0, 75, 0
1, 77544, Note_on_c, 0, 80, 79
1, 77544, Note_on_c, 0, 77, 79
1, 77565, Note_on_c, 1, 60, 0
1, 77565, Note_on_c, 1, 48, 0
1, 77567, Note_on_c, 0, 80, 0
1, 77567, Note_on_c, 0, 77, 0
1, 77568, Note_on_c, 0, 79, 79
1, 77568, Note_on_c, 0, 75, 79
1, 77568, Note_on_c, 1, 60, 74
1, 77568, Note_on_c, 1, 48, 74
1, 77588, Note_on_c, 0, 79, 0
1, 77588, Note_on_c, 0, 75, 0
1, 77613, Note_on_c, 1, 60, 0
1, 77613, Note_on_c, 1, 48, 0
1, 77616, Note_on_c, 1, 60, 74
1, 77616, Note_on_c, 1, 48, 74
1, 77661, Note_on_c, 1, 60, 0
1, 77661, Note_on_c, 1, 48, 0
1, 77664, Note_on_c, 0, 75, 79
1, 77664, Note_on_c, 0, 67, 79
1, 77664, Note_on_c, 1, 60, 74
1, 77664, Note_on_c, 1, 48, 74
1, 77684, Note_on_c, 0, 75, 0
1, 77684, Note_on_c, 0, 67, 0
1, 77709, Note_on_c, 1, 60, 0
1, 77709, Note_on_c, 1, 48, 0
1, 77712, Note_on_c, 0, 71, 79
1, 77712, Note_on_c, 0, 65, 79
1, 77712, Note_on_c, 1, 60, 74
1, 77712, Note_on_c, 1, 48, 74
1, 77732, Note_on_c, 0, 71, 0
1, 77732, Note_on_c, 0, 65, 0
1, 77757, Note_on_c, 1, 60, 0
1, 77757, Note_on_c, 1, 48, 0
1, 77760, Note_on_c, 0, 72, 79
1, 77760, Note_on_c, 0, 63, 79
1, 77760, Note_on_c, 1, 48, 83
1, 77760, Note_on_c, 1, 36, 83
1, 77805, Note_on_c, 0, 72, 0
1, 77805, Note_on_c, 0, 63, 0
1, 77805, Note_on_c, 1, 48, 0
1, 77805, Note_on_c, 1, 36, 0
1, 77808, Note_on_c, 1, 48, 80
1, 77808, Note_on_c, 1, 36, 80
1, 77853, Note_on_c, 1, 48, 0
1, 77853, Note_on_c, 1, 36, 0
1, 77856, Note_on_c, 0, 67, 74
1, 77856, Note_on_c, 0, 63, 74
1, 77856, Note_on_c, 1, 48, 77
1, 77856, Note_on_c, 1, 36, 77
1, 77901, Note_on_c, 1, 48, 0
1, 77901, Note_on_c, 1, 36, 0
1, 77904, Note_on_c, 1, 48, 74
1, 77904, Note_on_c, 1, 36, 74
1, 77928, Note_on_c, 0, 67, 0
1, 77928, Note_on_c, 0, 63, 0
1, 77928, Note_on_c, 0, 68, 74
1, 77928, Note_on_c, 0, 65, 74
1, 77949, Note_on_c, 1, 48, 0
1, 77949, Note_on_c, 1, 36, 0
1, 77951, Note_on_c, 0, 68, 0
1, 77951, Note_on_c, 0, 65, 0
1, 77952, Note_on_c, 0, 67, 74
1, 77952, Note_on_c, 0, 63, 74
1, 77952, Note_on_c, 1, 48, 74
1, 77952, Note_on_c, 1, 36, 74
1, 77972, Note_on_c, 0, 67, 0
1, 77972, Note_on_c, 0, 63, 0
1, 77997, Note_on_c, 1, 48, 0
1, 77997, Note_on_c, 1, 36, 0
1, 78000, Note_on_c, 1, 48, 74
1, 78000, Note_on_c, 1, 36, 74
1, 78045, Note_on_c, 1, 48, 0
1, 78045, Note_on_c, 1, 36, 0
1, 78048, Note_on_c, 0, 63, 74
1, 78048, Note_on_c, 0, 55, 74
1, 78048, Note_on_c, 1, 48, 74
1, 78048, Note_on_c, 1, 36, 74
1, 78068, Note_on_c, 0, 63, 0
1, 78068, Note_on_c, 0, 55, 0
1, 78093, Note_on_c, 1, 48, 0
1, 78093, Note_on_c, 1, 36, 0
1, 78096, Note_on_c, 0, 59, 74
1, 78096, Note_on_c, 0, 53, 74
1, 78096, Note_on_c, 1, 48, 74
1, 78096, Note_on_c, 1, 36, 74
1, 78116, Note_on_c, 0, 59, 0
1, 78116, Note_on_c, 0, 53, 0
1, 78141, Note_on_c, 1, 48, 0
1, 78141, Note_on_c, 1, 36, 0
1, 78144, Note_on_c, 0, 60, 74
1, 78144, Note_on_c, 0, 51, 74
1, 78144, Note_on_c, 1, 48, 74
1, 78144, Note_on_c, 1, 36, 74
1, 78321, Note_on_c, 0, 60, 0
1, 78321, Note_on_c, 0, 51, 0
1, 78321, Note_on_c, 1, 48, 0
1, 78321, Note_on_c, 1, 36, 0
1, 78336, Note_on_c, 1, 36, 0
1, 78513, Note_on_c, 1, 36, 0
1, 78523, End_track
0, 0, End_of_file