0, 0, Header, 0, 1, 96
1, 0, Start_track
1, 0, Tempo, 428571
1, 0, Note_on_c, 0, 73, 78
1, 0, Note_on_c, 1, 64, 78
1, 0, Note_on_c, 1, 61, 78
1, 89, Note_on_c, 1, 64, 0
1, 89, Note_on_c, 1, 61, 0
1, 96, Note_on_c, 1, 52, 78
1, 96, Note_on_c, 1, 49, 78
1, 119, Note_on_c, 0, 73, 0
1, 120, Note_on_c, 0, 75, 78
1, 143, Note_on_c, 0, 75, 0
1, 144, Note_on_c, 0, 73, 78
1, 167, Note_on_c, 0, 73, 0
1, 168, Note_on_c, 0, 72, 78
1, 185, Note_on_c, 1, 52, 0
1, 185, Note_on_c, 1, 49, 0
1, 191, Note_on_c, 0, 72, 0
1, 192, Note_on_c, 0, 73, 78
1, 215, Note_on_c, 0, 73, 0
1, 216, Note_on_c, 0, 75, 78
1, 239, Note_on_c, 0, 75, 0
1, 240, Note_on_c, 0, 76, 78
1, 263, Note_on_c, 0, 76, 0
1, 264, Note_on_c, 0, 78, 78
1, 287, Note_on_c, 0, 78, 0
1, 288, Note_on_c, 0, 80, 94
1, 288, Note_on_c, 1, 64, 78
1, 288, Note_on_c, 1, 61, 78
1, 327, Note_on_c, 0, 80, 0
1, 377, Note_on_c, 1, 64, 0
1, 377, Note_on_c, 1, 61, 0
1, 384, Note_on_c, 0, 80, 78
1, 423, Note_on_c, 0, 80, 0
1, 480, Note_on_c, 0, 80, 78
1, 519, Note_on_c, 0, 80, 0
1, 576, Note_on_c, 0, 79, 78
1, 576, Note_on_c, 1, 63, 78
1, 576, Note_on_c, 1, 61, 64
1, 753, Note_on_c, 1, 61, 0
1, 768, Note_on_c, 0, 79, 0
1, 768, Note_on_c, 0, 80, 78
1, 768, Note_on_c, 1, 60, 64
1, 841, Note_on_c, 1, 63, 0
1, 857, Note_on_c, 0, 80, 0
1, 857, Note_on_c, 1, 60, 0
1, 864, Note_on_c, 0, 75, 78
1, 864, Note_on_c, 1, 69, 64
1, 864, Note_on_c, 1, 66, 64
1, 1144, Note_on_c, 0, 75, 0
1, 1144, Note_on_c, 1, 69, 0
1, 1144, Note_on_c, 1, 66, 0
1, 1152, Note_on_c, 0, 78, 78
1, 1152, Note_on_c, 1, 63, 78
1, 1152, Note_on_c, 1, 60, 78
1, 1241, Note_on_c, 1, 63, 0
1, 1241, Note_on_c, 1, 60, 0
1, 1248, Note_on_c, 1, 51, 78
1, 1248, Note_on_c, 1, 48, 78
1, 1293, Note_on_c, 0, 78, 0
1, 1296, Note_on_c, 0, 81, 78
1, 1319, Note_on_c, 0, 81, 0
1, 1320, Note_on_c, 0, 80, 78
1, 1337, Note_on_c, 1, 51, 0
1, 1337, Note_on_c, 1, 48, 0
1, 1343, Note_on_c, 0, 80, 0
1, 1344, Note_on_c, 0, 78, 78
1, 1367, Note_on_c, 0, 78, 0
1, 1368, Note_on_c, 0, 76, 78
1, 1391, Note_on_c, 0, 76, 0
1, 1392, Note_on_c, 0, 75, 78
1, 1415, Note_on_c, 0, 75, 0
1, 1416, Note_on_c, 0, 78, 78
1, 1439, Note_on_c, 0, 78, 0
1, 1440, Note_on_c, 0, 76, 78
1, 1440, Note_on_c, 1, 52, 78
1, 1440, Note_on_c, 1, 49, 78
1, 1529, Note_on_c, 0, 76, 0
1, 1529, Note_on_c, 1, 52, 0
1, 1529, Note_on_c, 1, 49, 0
1, 1536, Note_on_c, 0, 73, 78
1, 1625, Note_on_c, 0, 73, 0
1, 1632, Note_on_c, 0, 73, 78
1, 1632, Note_on_c, 1, 61, 78
1, 1632, Note_on_c, 1, 57, 78
1, 1721, Note_on_c, 0, 73, 0
1, 1721, Note_on_c, 1, 61, 0
1, 1721, Note_on_c, 1, 57, 0
1, 1728, Note_on_c, 0, 80, 78
1, 1728, Note_on_c, 1, 63, 78
1, 1728, Note_on_c, 1, 54, 78
1, 1746, Note_on_c, 0, 80, 0
1, 1746, Note_on_c, 0, 78, 78
1, 1764, Note_on_c, 0, 78, 0
1, 1764, Note_on_c, 0, 77, 78
1, 1782, Note_on_c, 0, 77, 0
1, 1782, Note_on_c, 0, 78, 78
1, 1905, Note_on_c, 1, 63, 0
1, 1905, Note_on_c, 1, 54, 0
1, 1920, Note_on_c, 0, 78, 0
1, 1920, Note_on_c, 0, 80, 78
1, 1920, Note_on_c, 1, 60, 78
1, 1920, Note_on_c, 1, 56, 78
1, 1959, Note_on_c, 0, 80, 0
1, 2009, Note_on_c, 1, 60, 0
1, 2009, Note_on_c, 1, 56, 0
1, 2016, Note_on_c, 0, 73, 78
1, 2016, Note_on_c, 1, 61, 78
1, 2016, Note_on_c, 1, 49, 78
1, 2149, Note_on_c, 0, 73, 0
1, 2149, Note_on_c, 1, 61, 0
1, 2149, Note_on_c, 1, 49, 0
1, 2304, Note_on_c, 0, 73, 78
1, 2304, Note_on_c, 1, 64, 78
1, 2304, Note_on_c, 1, 61, 78
1, 2393, Note_on_c, 1, 64, 0
1, 2393, Note_on_c, 1, 61, 0
1, 2400, Note_on_c, 1, 52, 78
1, 2400, Note_on_c, 1, 49, 78
1, 2423, Note_on_c, 0, 73, 0
1, 2424, Note_on_c, 0, 75, 78
1, 2447, Note_on_c, 0, 75, 0
1, 2448, Note_on_c, 0, 73, 78
1, 2471, Note_on_c, 0, 73, 0
1, 2472, Note_on_c, 0, 72, 78
1, 2489, Note_on_c, 1, 52, 0
1, 2489, Note_on_c, 1, 49, 0
1, 2495, Note_on_c, 0, 72, 0
1, 2496, Note_on_c, 0, 73, 78
1, 2519, Note_on_c, 0, 73, 0
1, 2520, Note_on_c, 0, 75, 78
1, 2543, Note_on_c, 0, 75, 0
1, 2544, Note_on_c, 0, 76, 78
1, 2567, Note_on_c, 0, 76, 0
1, 2568, Note_on_c, 0, 78, 78
1, 2591, Note_on_c, 0, 78, 0
1, 2592, Note_on_c, 0, 80, 94
1, 2592, Note_on_c, 1, 64, 78
1, 2592, Note_on_c, 1, 61, 78
1, 2631, Note_on_c, 0, 80, 0
1, 2681, Note_on_c, 1, 64, 0
1, 2681, Note_on_c, 1, 61, 0
1, 2688, Note_on_c, 0, 80, 78
1, 2727, Note_on_c, 0, 80, 0
1, 2784, Note_on_c, 0, 80, 78
1, 2823, Note_on_c, 0, 80, 0
1, 2880, Note_on_c, 0, 79, 78
1, 2880, Note_on_c, 1, 63, 78
1, 2880, Note_on_c, 1, 61, 64
1, 3057, Note_on_c, 1, 61, 0
1, 3072, Note_on_c, 0, 79, 0
1, 3072, Note_on_c, 0, 80, 78
1, 3072, Note_on_c, 1, 60, 64
1, 3145, Note_on_c, 1, 63, 0
1, 3161, Note_on_c, 0, 80, 0
1, 3161, Note_on_c, 1, 60, 0
1, 3168, Note_on_c, 0, 75, 78
1, 3168, Note_on_c, 1, 69, 64
1, 3168, Note_on_c, 1, 66, 64
1, 3448, Note_on_c, 0, 75, 0
1, 3448, Note_on_c, 1, 69, 0
1, 3448, Note_on_c, 1, 66, 0
1, 3456, Note_on_c, 0, 78, 78
1, 3456, Note_on_c, 1, 63, 78
1, 3456, Note_on_c, 1, 60, 78
1, 3545, Note_on_c, 1, 63, 0
1, 3545, Note_on_c, 1, 60, 0
1, 3552, Note_on_c, 1, 51, 78
1, 3552, Note_on_c, 1, 48, 78
1, 3597, Note_on_c, 0, 78, 0
1, 3600, Note_on_c, 0, 81, 78
1, 3623, Note_on_c, 0, 81, 0
1, 3624, Note_on_c, 0, 80, 78
1, 3641, Note_on_c, 1, 51, 0
1, 3641, Note_on_c, 1, 48, 0
1, 3647, Note_on_c, 0, 80, 0
1, 3648, Note_on_c, 0, 78, 78
1, 3671, Note_on_c, 0, 78, 0
1, 3672, Note_on_c, 0, 76, 78
1, 3695, Note_on_c, 0, 76, 0
1, 3696, Note_on_c, 0, 75, 78
1, 3719, Note_on_c, 0, 75, 0
1, 3720, Note_on_c, 0, 78, 78
1, 3743, Note_on_c, 0, 78, 0
1, 3744, Note_on_c, 0, 76, 78
1, 3744, Note_on_c, 1, 52, 78
1, 3744, Note_on_c, 1, 49, 78
1, 3833, Note_on_c, 0, 76, 0
1, 3833, Note_on_c, 1, 52, 0
1, 3833, Note_on_c, 1, 49, 0
1, 3840, Note_on_c, 0, 73, 78
1, 3929, Note_on_c, 0, 73, 0
1, 3936, Note_on_c, 0, 73, 78
1, 3936, Note_on_c, 1, 61, 78
1, 3936, Note_on_c, 1, 57, 78
1, 4025, Note_on_c, 0, 73, 0
1, 4025, Note_on_c, 1, 61, 0
1, 4025, Note_on_c, 1, 57, 0
1, 4032, Note_on_c, 0, 80, 78
1, 4032, Note_on_c, 1, 63, 78
1, 4032, Note_on_c, 1, 54, 78
1, 4050, Note_on_c, 0, 80, 0
1, 4050, Note_on_c, 0, 78, 78
1, 4068, Note_on_c, 0, 78, 0
1, 4068, Note_on_c, 0, 77, 78
1, 4086, Note_on_c, 0, 77, 0
1, 4086, Note_on_c, 0, 78, 78
1, 4209, Note_on_c, 1, 63, 0
1, 4209, Note_on_c, 1, 54, 0
1, 4224, Note_on_c, 0, 78, 0
1, 4224, Note_on_c, 0, 80, 78
1, 4224, Note_on_c, 1, 60, 78
1, 4224, Note_on_c, 1, 56, 78
1, 4263, Note_on_c, 0, 80, 0
1, 4313, Note_on_c, 1, 60, 0
1, 4313, Note_on_c, 1, 56, 0
1, 4320, Note_on_c, 0, 73, 78
1, 4320, Note_on_c, 1, 61, 78
1, 4320, Note_on_c, 1, 49, 78
1, 4453, Note_on_c, 0, 73, 0
1, 4453, Note_on_c, 1, 61, 0
1, 4453, Note_on_c, 1, 49, 0
1, 4608, Note_on_c, 0, 76, 78
1, 4608, Note_on_c, 1, 68, 78
1, 4608, Note_on_c, 1, 64, 78
1, 4697, Note_on_c, 1, 68, 0
1, 4697, Note_on_c, 1, 64, 0
1, 4704, Note_on_c, 1, 56, 78
1, 4704, Note_on_c, 1, 52, 78
1, 4727, Note_on_c, 0, 76, 0
1, 4728, Note_on_c, 0, 78, 78
1, 4751, Note_on_c, 0, 78, 0
1, 4752, Note_on_c, 0, 76, 78
1, 4775, Note_on_c, 0, 76, 0
1, 4776, Note_on_c, 0, 75, 78
1, 4793, Note_on_c, 1, 56, 0
1, 4793, Note_on_c, 1, 52, 0
1, 4799, Note_on_c, 0, 75, 0
1, 4800, Note_on_c, 0, 76, 78
1, 4823, Note_on_c, 0, 76, 0
1, 4824, Note_on_c, 0, 78, 78
1, 4847, Note_on_c, 0, 78, 0
1, 4848, Note_on_c, 0, 80, 78
1, 4871, Note_on_c, 0, 80, 0
1, 4872, Note_on_c, 0, 81, 78
1, 4895, Note_on_c, 0, 81, 0
1, 4896, Note_on_c, 0, 83, 94
1, 4896, Note_on_c, 1, 62, 78
1, 4896, Note_on_c, 1, 56, 78
1, 4935, Note_on_c, 0, 83, 0
1, 4992, Note_on_c, 0, 83, 78
1, 5031, Note_on_c, 0, 83, 0
1, 5088, Note_on_c, 0, 83, 78
1, 5127, Note_on_c, 0, 83, 0
1, 5184, Note_on_c, 0, 76, 78
1, 5184, Note_on_c, 1, 56, 0
1, 5184, Note_on_c, 1, 57, 78
1, 5273, Note_on_c, 1, 62, 0
1, 5280, Note_on_c, 1, 61, 78
1, 5303, Note_on_c, 0, 76, 0
1, 5304, Note_on_c, 0, 78, 80
1, 5327, Note_on_c, 0, 78, 0
1, 5328, Note_on_c, 0, 76, 80
1, 5351, Note_on_c, 0, 76, 0
1, 5352, Note_on_c, 0, 75, 80
1, 5375, Note_on_c, 0, 75, 0
1, 5376, Note_on_c, 0, 76, 81
1, 5399, Note_on_c, 0, 76, 0
1, 5400, Note_on_c, 0, 78, 81
1, 5423, Note_on_c, 0, 78, 0
1, 5424, Note_on_c, 0, 80, 82
1, 5447, Note_on_c, 0, 80, 0
1, 5448, Note_on_c, 0, 81, 82
1, 5449, Note_on_c, 1, 57, 0
1, 5457, Note_on_c, 1, 61, 0
1, 5460, Note_on_c, 0, 81, 0
1, 5460, Note_on_c, 0, 83, 82
1, 5472, Note_on_c, 0, 83, 0
1, 5472, Note_on_c, 0, 85, 99
1, 5511, Note_on_c, 0, 85, 0
1, 5568, Note_on_c, 0, 85, 83
1, 5568, Note_on_c, 1, 57, 78
1, 5568, Note_on_c, 1, 54, 78
1, 5607, Note_on_c, 0, 85, 0
1, 5657, Note_on_c, 1, 57, 0
1, 5657, Note_on_c, 1, 54, 0
1, 5664, Note_on_c, 0, 85, 83
1, 5664, Note_on_c, 1, 56, 80
1, 5664, Note_on_c, 1, 52, 80
1, 5703, Note_on_c, 0, 85, 0
1, 5753, Note_on_c, 1, 56, 0
1, 5753, Note_on_c, 1, 52, 0
1, 5760, Note_on_c, 0, 83, 83
1, 5760, Note_on_c, 1, 54, 83
1, 5760, Note_on_c, 1, 51, 83
1, 5849, Note_on_c, 1, 54, 0
1, 5849, Note_on_c, 1, 51, 0
1, 5856, Note_on_c, 1, 66, 83
1, 5856, Note_on_c, 1, 63, 83
1, 5879, Note_on_c, 0, 83, 0
1, 5880, Note_on_c, 0, 85, 83
1, 5903, Note_on_c, 0, 85, 0
1, 5904, Note_on_c, 0, 83, 83
1, 5927, Note_on_c, 0, 83, 0
1, 5928, Note_on_c, 0, 82, 83
1, 5945, Note_on_c, 1, 66, 0
1, 5945, Note_on_c, 1, 63, 0
1, 5951, Note_on_c, 0, 82, 0
1, 5952, Note_on_c, 0, 83, 83
1, 5975, Note_on_c, 0, 83, 0
1, 5976, Note_on_c, 0, 85, 83
1, 5999, Note_on_c, 0, 85, 0
1, 6000, Note_on_c, 0, 83, 83
1, 6023, Note_on_c, 0, 83, 0
1, 6024, Note_on_c, 0, 81, 83
1, 6047, Note_on_c, 0, 81, 0
1, 6048, Note_on_c, 0, 80, 83
1, 6048, Note_on_c, 1, 56, 83
1, 6048, Note_on_c, 1, 52, 83
1, 6093, Note_on_c, 0, 80, 0
1, 6093, Note_on_c, 1, 56, 0
1, 6093, Note_on_c, 1, 52, 0
1, 6144, Note_on_c, 0, 78, 81
1, 6144, Note_on_c, 1, 57, 81
1, 6144, Note_on_c, 1, 54, 81
1, 6189, Note_on_c, 0, 78, 0
1, 6189, Note_on_c, 1, 57, 0
1, 6189, Note_on_c, 1, 54, 0
1, 6240, Note_on_c, 0, 76, 79
1, 6240, Note_on_c, 1, 59, 79
1, 6240, Note_on_c, 1, 56, 79
1, 6285, Note_on_c, 0, 76, 0
1, 6285, Note_on_c, 1, 59, 0
1, 6285, Note_on_c, 1, 56, 0
1, 6336, Note_on_c, 0, 83, 71
1, 6336, Note_on_c, 1, 54, 80
1, 6336, Note_on_c, 1, 51, 80
1, 6432, Note_on_c, 1, 54, 0
1, 6432, Note_on_c, 1, 51, 0
1, 6432, Note_on_c, 1, 66, 64
1, 6432, Note_on_c, 1, 63, 64
1, 6455, Note_on_c, 0, 83, 0
1, 6456, Note_on_c, 0, 85, 71
1, 6479, Note_on_c, 0, 85, 0
1, 6480, Note_on_c, 0, 83, 71
1, 6503, Note_on_c, 0, 83, 0
1, 6504, Note_on_c, 0, 82, 71
1, 6521, Note_on_c, 1, 66, 0
1, 6521, Note_on_c, 1, 63, 0
1, 6527, Note_on_c, 0, 82, 0
1, 6528, Note_on_c, 0, 83, 71
1, 6551, Note_on_c, 0, 83, 0
1, 6552, Note_on_c, 0, 85, 71
1, 6575, Note_on_c, 0, 85, 0
1, 6576, Note_on_c, 0, 83, 71
1, 6599, Note_on_c, 0, 83, 0
1, 6600, Note_on_c, 0, 81, 71
1, 6623, Note_on_c, 0, 81, 0
1, 6624, Note_on_c, 0, 80, 71
1, 6624, Note_on_c, 1, 56, 64
1, 6624, Note_on_c, 1, 52, 64
1, 6647, Note_on_c, 0, 80, 0
1, 6648, Note_on_c, 0, 83, 71
1, 6669, Note_on_c, 1, 56, 0
1, 6669, Note_on_c, 1, 52, 0
1, 6671, Note_on_c, 0, 83, 0
1, 6672, Note_on_c, 0, 81, 71
1, 6695, Note_on_c, 0, 81, 0
1, 6696, Note_on_c, 0, 80, 71
1, 6719, Note_on_c, 0, 80, 0
1, 6720, Note_on_c, 0, 78, 71
1, 6720, Note_on_c, 1, 57, 64
1, 6720, Note_on_c, 1, 54, 64
1, 6743, Note_on_c, 0, 78, 0
1, 6744, Note_on_c, 0, 81, 71
1, 6765, Note_on_c, 1, 57, 0
1, 6765, Note_on_c, 1, 54, 0
1, 6767, Note_on_c, 0, 81, 0
1, 6768, Note_on_c, 0, 80, 71
1, 6791, Note_on_c, 0, 80, 0
1, 6792, Note_on_c, 0, 78, 71
1, 6815, Note_on_c, 0, 78, 0
1, 6816, Note_on_c, 0, 76, 71
1, 6816, Note_on_c, 1, 59, 64
1, 6816, Note_on_c, 1, 56, 64
1, 6839, Note_on_c, 0, 76, 0
1, 6840, Note_on_c, 0, 80, 71
1, 6861, Note_on_c, 1, 59, 0
1, 6861, Note_on_c, 1, 56, 0
1, 6863, Note_on_c, 0, 80, 0
1, 6864, Note_on_c, 0, 78, 71
1, 6887, Note_on_c, 0, 78, 0
1, 6888, Note_on_c, 0, 76, 71
1, 6911, Note_on_c, 0, 76, 0
1, 6912, Note_on_c, 0, 75, 71
1, 6912, Note_on_c, 1, 57, 64
1, 7001, Note_on_c, 0, 75, 0
1, 7008, Note_on_c, 0, 73, 71
1, 7097, Note_on_c, 0, 73, 0
1, 7104, Note_on_c, 0, 85, 71
1, 7104, Note_on_c, 1, 69, 64
1, 7177, Note_on_c, 1, 57, 0
1, 7193, Note_on_c, 0, 85, 0
1, 7193, Note_on_c, 1, 69, 0
1, 7200, Note_on_c, 0, 76, 71
1, 7200, Note_on_c, 1, 68, 64
1, 7200, Note_on_c, 1, 59, 64
1, 7377, Note_on_c, 0, 76, 0
1, 7377, Note_on_c, 1, 68, 0
1, 7392, Note_on_c, 0, 80, 71
1, 7392, Note_on_c, 0, 75, 64
1, 7392, Note_on_c, 1, 69, 64
1, 7415, Note_on_c, 0, 80, 0
1, 7416, Note_on_c, 0, 78, 71
1, 7461, Note_on_c, 0, 78, 0
1, 7464, Note_on_c, 0, 76, 71
1, 7465, Note_on_c, 1, 59, 0
1, 7481, Note_on_c, 0, 75, 0
1, 7481, Note_on_c, 1, 69, 0
1, 7487, Note_on_c, 0, 76, 0
1, 7488, Note_on_c, 0, 76, 71
1, 7488, Note_on_c, 1, 68, 64
1, 7488, Note_on_c, 1, 64, 64
1, 7577, Note_on_c, 0, 76, 0
1, 7577, Note_on_c, 1, 68, 0
1, 7577, Note_on_c, 1, 64, 0
1, 7680, Note_on_c, 0, 84, 71
1, 7703, Note_on_c, 0, 84, 0
1, 7704, Note_on_c, 0, 85, 71
1, 7727, Note_on_c, 0, 85, 0
1, 7728, Note_on_c, 0, 84, 71
1, 7751, Note_on_c, 0, 84, 0
1, 7752, Note_on_c, 0, 85, 71
1, 7775, Note_on_c, 0, 85, 0
1, 7776, Note_on_c, 0, 76, 71
1, 7776, Note_on_c, 1, 68, 64
1, 7776, Note_on_c, 1, 59, 64
1, 7953, Note_on_c, 0, 76, 0
1, 7953, Note_on_c, 1, 68, 0
1, 7953, Note_on_c, 1, 59, 0
1, 7968, Note_on_c, 0, 80, 83
1, 7968, Note_on_c, 0, 75, 83
1, 7968, Note_on_c, 1, 69, 83
1, 7968, Note_on_c, 1, 66, 83
1, 7968, Note_on_c, 1, 63, 83
1, 7968, Note_on_c, 1, 60, 83
1, 7991, Note_on_c, 0, 80, 0
1, 7992, Note_on_c, 0, 78, 82
1, 8037, Note_on_c, 0, 78, 0
1, 8040, Note_on_c, 0, 76, 82
1, 8062, Note_on_c, 0, 75, 0
1, 8062, Note_on_c, 1, 69, 0
1, 8062, Note_on_c, 1, 66, 0
1, 8062, Note_on_c, 1, 63, 0
1, 8062, Note_on_c, 1, 60, 0
1, 8063, Note_on_c, 0, 76, 0
1, 8064, Note_on_c, 0, 76, 81
1, 8064, Note_on_c, 0, 73, 81
1, 8064, Note_on_c, 1, 68, 81
1, 8064, Note_on_c, 1, 64, 81
1, 8064, Note_on_c, 1, 61, 81
1, 8153, Note_on_c, 0, 76, 0
1, 8153, Note_on_c, 0, 73, 0
1, 8153, Note_on_c, 1, 68, 0
1, 8153, Note_on_c, 1, 64, 0
1, 8153, Note_on_c, 1, 61, 0
1, 8160, Note_on_c, 0, 75, 80
1, 8160, Note_on_c, 0, 72, 80
1, 8160, Note_on_c, 1, 66, 80
1, 8160, Note_on_c, 1, 63, 80
1, 8249, Note_on_c, 0, 75, 0
1, 8249, Note_on_c, 0, 72, 0
1, 8249, Note_on_c, 1, 66, 0
1, 8249, Note_on_c, 1, 63, 0
1, 8256, Note_on_c, 0, 73, 79
1, 8256, Note_on_c, 1, 68, 79
1, 8256, Note_on_c, 1, 64, 79
1, 8345, Note_on_c, 0, 73, 0
1, 8345, Note_on_c, 1, 68, 0
1, 8345, Note_on_c, 1, 64, 0
1, 8352, Note_on_c, 0, 76, 78
1, 8352, Note_on_c, 1, 69, 78
1, 8352, Note_on_c, 1, 66, 78
1, 8364, Note_on_c, 0, 76, 0
1, 8364, Note_on_c, 0, 75, 78
1, 8376, Note_on_c, 0, 75, 0
1, 8376, Note_on_c, 0, 73, 78
1, 8388, Note_on_c, 0, 73, 0
1, 8388, Note_on_c, 0, 75, 78
1, 8441, Note_on_c, 0, 75, 0
1, 8448, Note_on_c, 0, 78, 77
1, 8537, Note_on_c, 0, 78, 0
1, 8544, Note_on_c, 0, 81, 75
1, 8617, Note_on_c, 1, 69, 0
1, 8617, Note_on_c, 1, 66, 0
1, 8633, Note_on_c, 0, 81, 0
1, 8640, Note_on_c, 0, 73, 74
1, 8640, Note_on_c, 1, 64, 74
1, 8640, Note_on_c, 1, 56, 64
1, 8817, Note_on_c, 0, 73, 0
1, 8817, Note_on_c, 1, 64, 0
1, 8832, Note_on_c, 0, 72, 72
1, 8832, Note_on_c, 1, 63, 72
1, 8905, Note_on_c, 1, 56, 0
1, 8921, Note_on_c, 0, 72, 0
1, 8921, Note_on_c, 1, 63, 0
1, 8928, Note_on_c, 0, 73, 78
1, 8928, Note_on_c, 1, 64, 78
1, 8928, Note_on_c, 1, 61, 78
1, 9017, Note_on_c, 1, 64, 0
1, 9017, Note_on_c, 1, 61, 0
1, 9024, Note_on_c, 1, 52, 78
1, 9024, Note_on_c, 1, 49, 78
1, 9047, Note_on_c, 0, 73, 0
1, 9048, Note_on_c, 0, 75, 78
1, 9071, Note_on_c, 0, 75, 0
1, 9072, Note_on_c, 0, 73, 78
1, 9095, Note_on_c, 0, 73, 0
1, 9096, Note_on_c, 0, 72, 78
1, 9113, Note_on_c, 1, 52, 0
1, 9113, Note_on_c, 1, 49, 0
1, 9119, Note_on_c, 0, 72, 0
1, 9120, Note_on_c, 0, 73, 78
1, 9143, Note_on_c, 0, 73, 0
1, 9144, Note_on_c, 0, 75, 78
1, 9167, Note_on_c, 0, 75, 0
1, 9168, Note_on_c, 0, 76, 78
1, 9191, Note_on_c, 0, 76, 0
1, 9192, Note_on_c, 0, 78, 78
1, 9215, Note_on_c, 0, 78, 0
1, 9216, Note_on_c, 0, 80, 94
1, 9216, Note_on_c, 1, 64, 78
1, 9216, Note_on_c, 1, 61, 78
1, 9255, Note_on_c, 0, 80, 0
1, 9305, Note_on_c, 1, 64, 0
1, 9305, Note_on_c, 1, 61, 0
1, 9312, Note_on_c, 0, 80, 78
1, 9351, Note_on_c, 0, 80, 0
1, 9408, Note_on_c, 0, 80, 78
1, 9447, Note_on_c, 0, 80, 0
1, 9504, Note_on_c, 0, 79, 78
1, 9504, Note_on_c, 1, 63, 78
1, 9504, Note_on_c, 1, 61, 64
1, 9681, Note_on_c, 1, 61, 0
1, 9696, Note_on_c, 0, 79, 0
1, 9696, Note_on_c, 0, 80, 78
1, 9696, Note_on_c, 1, 60, 64
1, 9769, Note_on_c, 1, 63, 0
1, 9785, Note_on_c, 0, 80, 0
1, 9785, Note_on_c, 1, 60, 0
1, 9792, Note_on_c, 0, 75, 78
1, 9792, Note_on_c, 1, 69, 64
1, 9792, Note_on_c, 1, 66, 64
1, 10072, Note_on_c, 0, 75, 0
1, 10072, Note_on_c, 1, 69, 0
1, 10072, Note_on_c, 1, 66, 0
1, 10080, Note_on_c, 0, 78, 78
1, 10080, Note_on_c, 1, 63, 78
1, 10080, Note_on_c, 1, 60, 78
1, 10169, Note_on_c, 1, 63, 0
1, 10169, Note_on_c, 1, 60, 0
1, 10176, Note_on_c, 1, 51, 78
1, 10176, Note_on_c, 1, 48, 78
1, 10221, Note_on_c, 0, 78, 0
1, 10224, Note_on_c, 0, 81, 78
1, 10247, Note_on_c, 0, 81, 0
1, 10248, Note_on_c, 0, 80, 78
1, 10265, Note_on_c, 1, 51, 0
1, 10265, Note_on_c, 1, 48, 0
1, 10271, Note_on_c, 0, 80, 0
1, 10272, Note_on_c, 0, 78, 78
1, 10295, Note_on_c, 0, 78, 0
1, 10296, Note_on_c, 0, 76, 78
1, 10319, Note_on_c, 0, 76, 0
1, 10320, Note_on_c, 0, 75, 78
1, 10343, Note_on_c, 0, 75, 0
1, 10344, Note_on_c, 0, 78, 78
1, 10367, Note_on_c, 0, 78, 0
1, 10368, Note_on_c, 0, 76, 78
1, 10368, Note_on_c, 1, 52, 78
1, 10368, Note_on_c, 1, 49, 78
1, 10457, Note_on_c, 0, 76, 0
1, 10457, Note_on_c, 1, 52, 0
1, 10457, Note_on_c, 1, 49, 0
1, 10464, Note_on_c, 0, 73, 78
1, 10553, Note_on_c, 0, 73, 0
1, 10560, Note_on_c, 0, 73, 78
1, 10560, Note_on_c, 1, 61, 78
1, 10560, Note_on_c, 1, 57, 78
1, 10649, Note_on_c, 0, 73, 0
1, 10649, Note_on_c, 1, 61, 0
1, 10649, Note_on_c, 1, 57, 0
1, 10656, Note_on_c, 0, 80, 78
1, 10656, Note_on_c, 1, 63, 78
1, 10656, Note_on_c, 1, 54, 78
1, 10674, Note_on_c, 0, 80, 0
1, 10674, Note_on_c, 0, 78, 78
1, 10692, Note_on_c, 0, 78, 0
1, 10692, Note_on_c, 0, 77, 78
1, 10710, Note_on_c, 0, 77, 0
1, 10710, Note_on_c, 0, 78, 78
1, 10833, Note_on_c, 1, 63, 0
1, 10833, Note_on_c, 1, 54, 0
1, 10848, Note_on_c, 0, 78, 0
1, 10848, Note_on_c, 0, 80, 78
1, 10848, Note_on_c, 1, 60, 78
1, 10848, Note_on_c, 1, 56, 78
1, 10937, Note_on_c, 0, 80, 0
1, 10937, Note_on_c, 1, 60, 0
1, 10937, Note_on_c, 1, 56, 0
1, 10944, Note_on_c, 0, 73, 78
1, 10944, Note_on_c, 1, 61, 78
1, 10944, Note_on_c, 1, 49, 78
1, 11077, Note_on_c, 0, 73, 0
1, 11077, Note_on_c, 1, 61, 0
1, 11077, Note_on_c, 1, 49, 0
1, 11232, Note_on_c, 0, 76, 78
1, 11232, Note_on_c, 1, 68, 78
1, 11232, Note_on_c, 1, 64, 78
1, 11321, Note_on_c, 1, 68, 0
1, 11321, Note_on_c, 1, 64, 0
1, 11328, Note_on_c, 1, 56, 78
1, 11328, Note_on_c, 1, 52, 78
1, 11351, Note_on_c, 0, 76, 0
1, 11352, Note_on_c, 0, 78, 78
1, 11375, Note_on_c, 0, 78, 0
1, 11376, Note_on_c, 0, 76, 78
1, 11399, Note_on_c, 0, 76, 0
1, 11400, Note_on_c, 0, 75, 78
1, 11417, Note_on_c, 1, 56, 0
1, 11417, Note_on_c, 1, 52, 0
1, 11423, Note_on_c, 0, 75, 0
1, 11424, Note_on_c, 0, 76, 78
1, 11447, Note_on_c, 0, 76, 0
1, 11448, Note_on_c, 0, 78, 78
1, 11471, Note_on_c, 0, 78, 0
1, 11472, Note_on_c, 0, 80, 78
1, 11495, Note_on_c, 0, 80, 0
1, 11496, Note_on_c, 0, 81, 78
1, 11519, Note_on_c, 0, 81, 0
1, 11520, Note_on_c, 0, 83, 94
1, 11520, Note_on_c, 1, 62, 78
1, 11520, Note_on_c, 1, 56, 78
1, 11559, Note_on_c, 0, 83, 0
1, 11616, Note_on_c, 0, 83, 78
1, 11655, Note_on_c, 0, 83, 0
1, 11712, Note_on_c, 0, 83, 78
1, 11751, Note_on_c, 0, 83, 0
1, 11808, Note_on_c, 0, 76, 78
1, 11808, Note_on_c, 1, 56, 0
1, 11808, Note_on_c, 1, 57, 78
1, 11897, Note_on_c, 1, 62, 0
1, 11904, Note_on_c, 1, 61, 78
1, 11927, Note_on_c, 0, 76, 0
1, 11928, Note_on_c, 0, 78, 80
1, 11951, Note_on_c, 0, 78, 0
1, 11952, Note_on_c, 0, 76, 80
1, 11975, Note_on_c, 0, 76, 0
1, 11976, Note_on_c, 0, 75, 80
1, 11999, Note_on_c, 0, 75, 0
1, 12000, Note_on_c, 0, 76, 81
1, 12023, Note_on_c, 0, 76, 0
1, 12024, Note_on_c, 0, 78, 81
1, 12047, Note_on_c, 0, 78, 0
1, 12048, Note_on_c, 0, 80, 82
1, 12071, Note_on_c, 0, 80, 0
1, 12072, Note_on_c, 0, 81, 82
1, 12073, Note_on_c, 1, 57, 0
1, 12081, Note_on_c, 1, 61, 0
1, 12084, Note_on_c, 0, 81, 0
1, 12084, Note_on_c, 0, 83, 82
1, 12096, Note_on_c, 0, 83, 0
1, 12096, Note_on_c, 0, 85, 99
1, 12135, Note_on_c, 0, 85, 0
1, 12192, Note_on_c, 0, 85, 83
1, 12192, Note_on_c, 1, 57, 78
1, 12192, Note_on_c, 1, 54, 78
1, 12231, Note_on_c, 0, 85, 0
1, 12281, Note_on_c, 1, 57, 0
1, 12281, Note_on_c, 1, 54, 0
1, 12288, Note_on_c, 0, 85, 83
1, 12288, Note_on_c, 1, 56, 80
1, 12288, Note_on_c, 1, 52, 80
1, 12327, Note_on_c, 0, 85, 0
1, 12377, Note_on_c, 1, 56, 0
1, 12377, Note_on_c, 1, 52, 0
1, 12384, Note_on_c, 0, 83, 83
1, 12384, Note_on_c, 1, 54, 83
1, 12384, Note_on_c, 1, 51, 83
1, 12473, Note_on_c, 1, 54, 0
1, 12473, Note_on_c, 1, 51, 0
1, 12480, Note_on_c, 1, 66, 83
1, 12480, Note_on_c, 1, 63, 83
1, 12503, Note_on_c, 0, 83, 0
1, 12504, Note_on_c, 0, 85, 83
1, 12527, Note_on_c, 0, 85, 0
1, 12528, Note_on_c, 0, 83, 83
1, 12551, Note_on_c, 0, 83, 0
1, 12552, Note_on_c, 0, 82, 83
1, 12569, Note_on_c, 1, 66, 0
1, 12569, Note_on_c, 1, 63, 0
1, 12575, Note_on_c, 0, 82, 0
1, 12576, Note_on_c, 0, 83, 83
1, 12599, Note_on_c, 0, 83, 0
1, 12600, Note_on_c, 0, 85, 83
1, 12623, Note_on_c, 0, 85, 0
1, 12624, Note_on_c, 0, 83, 83
1, 12647, Note_on_c, 0, 83, 0
1, 12648, Note_on_c, 0, 81, 83
1, 12671, Note_on_c, 0, 81, 0
1, 12672, Note_on_c, 0, 80, 83
1, 12672, Note_on_c, 1, 56, 83
1, 12672, Note_on_c, 1, 52, 83
1, 12717, Note_on_c, 0, 80, 0
1, 12717, Note_on_c, 1, 56, 0
1, 12717, Note_on_c, 1, 52, 0
1, 12768, Note_on_c, 0, 78, 81
1, 12768, Note_on_c, 1, 57, 81
1, 12768, Note_on_c, 1, 54, 81
1, 12813, Note_on_c, 0, 78, 0
1, 12813, Note_on_c, 1, 57, 0
1, 12813, Note_on_c, 1, 54, 0
1, 12864, Note_on_c, 0, 76, 79
1, 12864, Note_on_c, 1, 59, 79
1, 12864, Note_on_c, 1, 56, 79
1, 12909, Note_on_c, 0, 76, 0
1, 12909, Note_on_c, 1, 59, 0
1, 12909, Note_on_c, 1, 56, 0
1, 12960, Note_on_c, 0, 83, 71
1, 12960, Note_on_c, 1, 54, 80
1, 12960, Note_on_c, 1, 51, 80
1, 13056, Note_on_c, 1, 54, 0
1, 13056, Note_on_c, 1, 51, 0
1, 13056, Note_on_c, 1, 66, 64
1, 13056, Note_on_c, 1, 63, 64
1, 13079, Note_on_c, 0, 83, 0
1, 13080, Note_on_c, 0, 85, 71
1, 13103, Note_on_c, 0, 85, 0
1, 13104, Note_on_c, 0, 83, 71
1, 13127, Note_on_c, 0, 83, 0
1, 13128, Note_on_c, 0, 82, 71
1, 13145, Note_on_c, 1, 66, 0
1, 13145, Note_on_c, 1, 63, 0
1, 13151, Note_on_c, 0, 82, 0
1, 13152, Note_on_c, 0, 83, 71
1, 13175, Note_on_c, 0, 83, 0
1, 13176, Note_on_c, 0, 85, 71
1, 13199, Note_on_c, 0, 85, 0
1, 13200, Note_on_c, 0, 83, 71
1, 13223, Note_on_c, 0, 83, 0
1, 13224, Note_on_c, 0, 81, 71
1, 13247, Note_on_c, 0, 81, 0
1, 13248, Note_on_c, 0, 80, 71
1, 13248, Note_on_c, 1, 56, 64
1, 13248, Note_on_c, 1, 52, 64
1, 13271, Note_on_c, 0, 80, 0
1, 13272, Note_on_c, 0, 83, 71
1, 13293, Note_on_c, 1, 56, 0
1, 13293, Note_on_c, 1, 52, 0
1, 13295, Note_on_c, 0, 83, 0
1, 13296, Note_on_c, 0, 81, 71
1, 13319, Note_on_c, 0, 81, 0
1, 13320, Note_on_c, 0, 80, 71
1, 13343, Note_on_c, 0, 80, 0
1, 13344, Note_on_c, 0, 78, 71
1, 13344, Note_on_c, 1, 57, 64
1, 13344, Note_on_c, 1, 54, 64
1, 13367, Note_on_c, 0, 78, 0
1, 13368, Note_on_c, 0, 81, 71
1, 13389, Note_on_c, 1, 57, 0
1, 13389, Note_on_c, 1, 54, 0
1, 13391, Note_on_c, 0, 81, 0
1, 13392, Note_on_c, 0, 80, 71
1, 13415, Note_on_c, 0, 80, 0
1, 13416, Note_on_c, 0, 78, 71
1, 13439, Note_on_c, 0, 78, 0
1, 13440, Note_on_c, 0, 76, 71
1, 13440, Note_on_c, 1, 59, 64
1, 13440, Note_on_c, 1, 56, 64
1, 13463, Note_on_c, 0, 76, 0
1, 13464, Note_on_c, 0, 80, 71
1, 13485, Note_on_c, 1, 59, 0
1, 13485, Note_on_c, 1, 56, 0
1, 13487, Note_on_c, 0, 80, 0
1, 13488, Note_on_c, 0, 78, 71
1, 13511, Note_on_c, 0, 78, 0
1, 13512, Note_on_c, 0, 76, 71
1, 13535, Note_on_c, 0, 76, 0
1, 13536, Note_on_c, 0, 75, 71
1, 13536, Note_on_c, 1, 57, 64
1, 13625, Note_on_c, 0, 75, 0
1, 13632, Note_on_c, 0, 73, 71
1, 13721, Note_on_c, 0, 73, 0
1, 13728, Note_on_c, 0, 85, 71
1, 13728, Note_on_c, 1, 69, 64
1, 13801, Note_on_c, 1, 57, 0
1, 13817, Note_on_c, 0, 85, 0
1, 13817, Note_on_c, 1, 69, 0
1, 13824, Note_on_c, 0, 76, 71
1, 13824, Note_on_c, 1, 68, 64
1, 13824, Note_on_c, 1, 59, 64
1, 14001, Note_on_c, 0, 76, 0
1, 14001, Note_on_c, 1, 68, 0
1, 14016, Note_on_c, 0, 80, 71
1, 14016, Note_on_c, 0, 75, 64
1, 14016, Note_on_c, 1, 69, 64
1, 14039, Note_on_c, 0, 80, 0
1, 14040, Note_on_c, 0, 78, 71
1, 14085, Note_on_c, 0, 78, 0
1, 14088, Note_on_c, 0, 76, 71
1, 14089, Note_on_c, 1, 59, 0
1, 14105, Note_on_c, 0, 75, 0
1, 14105, Note_on_c, 1, 69, 0
1, 14111, Note_on_c, 0, 76, 0
1, 14112, Note_on_c, 0, 76, 71
1, 14112, Note_on_c, 1, 68, 64
1, 14112, Note_on_c, 1, 64, 64
1, 14201, Note_on_c, 0, 76, 0
1, 14201, Note_on_c, 1, 68, 0
1, 14201, Note_on_c, 1, 64, 0
1, 14304, Note_on_c, 0, 84, 71
1, 14327, Note_on_c, 0, 84, 0
1, 14328, Note_on_c, 0, 85, 71
1, 14351, Note_on_c, 0, 85, 0
1, 14352, Note_on_c, 0, 84, 71
1, 14375, Note_on_c, 0, 84, 0
1, 14376, Note_on_c, 0, 85, 71
1, 14399, Note_on_c, 0, 85, 0
1, 14400, Note_on_c, 0, 76, 71
1, 14400, Note_on_c, 1, 68, 64
1, 14400, Note_on_c, 1, 59, 64
1, 14577, Note_on_c, 0, 76, 0
1, 14577, Note_on_c, 1, 68, 0
1, 14577, Note_on_c, 1, 59, 0
1, 14592, Note_on_c, 0, 80, 83
1, 14592, Note_on_c, 0, 75, 83
1, 14592, Note_on_c, 1, 69, 83
1, 14592, Note_on_c, 1, 66, 83
1, 14592, Note_on_c, 1, 63, 83
1, 14592, Note_on_c, 1, 60, 83
1, 14615, Note_on_c, 0, 80, 0
1, 14616, Note_on_c, 0, 78, 82
1, 14661, Note_on_c, 0, 78, 0
1, 14664, Note_on_c, 0, 76, 82
1, 14686, Note_on_c, 0, 75, 0
1, 14686, Note_on_c, 1, 69, 0
1, 14686, Note_on_c, 1, 66, 0
1, 14686, Note_on_c, 1, 63, 0
1, 14686, Note_on_c, 1, 60, 0
1, 14687, Note_on_c, 0, 76, 0
1, 14688, Note_on_c, 0, 76, 81
1, 14688, Note_on_c, 0, 73, 81
1, 14688, Note_on_c, 1, 68, 81
1, 14688, Note_on_c, 1, 64, 81
1, 14688, Note_on_c, 1, 61, 81
1, 14777, Note_on_c, 0, 76, 0
1, 14777, Note_on_c, 0, 73, 0
1, 14777, Note_on_c, 1, 68, 0
1, 14777, Note_on_c, 1, 64, 0
1, 14777, Note_on_c, 1, 61, 0
1, 14784, Note_on_c, 0, 75, 80
1, 14784, Note_on_c, 0, 72, 80
1, 14784, Note_on_c, 1, 66, 80
1, 14784, Note_on_c, 1, 63, 80
1, 14873, Note_on_c, 0, 75, 0
1, 14873, Note_on_c, 0, 72, 0
1, 14873, Note_on_c, 1, 66, 0
1, 14873, Note_on_c, 1, 63, 0
1, 14880, Note_on_c, 0, 73, 79
1, 14880, Note_on_c, 1, 68, 79
1, 14880, Note_on_c, 1, 64, 79
1, 14969, Note_on_c, 0, 73, 0
1, 14969, Note_on_c, 1, 68, 0
1, 14969, Note_on_c, 1, 64, 0
1, 14976, Note_on_c, 0, 76, 78
1, 14976, Note_on_c, 1, 69, 78
1, 14976, Note_on_c, 1, 66, 78
1, 14988, Note_on_c, 0, 76, 0
1, 14988, Note_on_c, 0, 75, 78
1, 15000, Note_on_c, 0, 75, 0
1, 15000, Note_on_c, 0, 73, 78
1, 15012, Note_on_c, 0, 73, 0
1, 15012, Note_on_c, 0, 75, 78
1, 15065, Note_on_c, 0, 75, 0
1, 15072, Note_on_c, 0, 78, 77
1, 15161, Note_on_c, 0, 78, 0
1, 15168, Note_on_c, 0, 81, 75
1, 15241, Note_on_c, 1, 69, 0
1, 15241, Note_on_c, 1, 66, 0
1, 15257, Note_on_c, 0, 81, 0
1, 15264, Note_on_c, 0, 73, 74
1, 15264, Note_on_c, 1, 64, 74
1, 15264, Note_on_c, 1, 56, 64
1, 15441, Note_on_c, 0, 73, 0
1, 15441, Note_on_c, 1, 64, 0
1, 15456, Note_on_c, 0, 72, 72
1, 15456, Note_on_c, 1, 63, 72
1, 15529, Note_on_c, 1, 56, 0
1, 15545, Note_on_c, 0, 72, 0
1, 15545, Note_on_c, 1, 63, 0
1, 15552, Note_on_c, 0, 73, 78
1, 15552, Note_on_c, 1, 64, 78
1, 15552, Note_on_c, 1, 61, 78
1, 15641, Note_on_c, 1, 64, 0
1, 15641, Note_on_c, 1, 61, 0
1, 15648, Note_on_c, 1, 52, 78
1, 15648, Note_on_c, 1, 49, 78
1, 15671, Note_on_c, 0, 73, 0
1, 15672, Note_on_c, 0, 75, 78
1, 15695, Note_on_c, 0, 75, 0
1, 15696, Note_on_c, 0, 73, 78
1, 15719, Note_on_c, 0, 73, 0
1, 15720, Note_on_c, 0, 72, 78
1, 15737, Note_on_c, 1, 52, 0
1, 15737, Note_on_c, 1, 49, 0
1, 15743, Note_on_c, 0, 72, 0
1, 15744, Note_on_c, 0, 73, 78
1, 15767, Note_on_c, 0, 73, 0
1, 15768, Note_on_c, 0, 75, 78
1, 15791, Note_on_c, 0, 75, 0
1, 15792, Note_on_c, 0, 76, 78
1, 15815, Note_on_c, 0, 76, 0
1, 15816, Note_on_c, 0, 78, 78
1, 15839, Note_on_c, 0, 78, 0
1, 15840, Note_on_c, 0, 80, 94
1, 15840, Note_on_c, 1, 64, 78
1, 15840, Note_on_c, 1, 61, 78
1, 15879, Note_on_c, 0, 80, 0
1, 15929, Note_on_c, 1, 64, 0
1, 15929, Note_on_c, 1, 61, 0
1, 15936, Note_on_c, 0, 80, 78
1, 15975, Note_on_c, 0, 80, 0
1, 16032, Note_on_c, 0, 80, 78
1, 16071, Note_on_c, 0, 80, 0
1, 16128, Note_on_c, 0, 79, 78
1, 16128, Note_on_c, 1, 63, 78
1, 16128, Note_on_c, 1, 61, 64
1, 16305, Note_on_c, 1, 61, 0
1, 16320, Note_on_c, 0, 79, 0
1, 16320, Note_on_c, 0, 80, 78
1, 16320, Note_on_c, 1, 60, 64
1, 16393, Note_on_c, 1, 63, 0
1, 16409, Note_on_c, 0, 80, 0
1, 16409, Note_on_c, 1, 60, 0
1, 16416, Note_on_c, 0, 75, 78
1, 16416, Note_on_c, 1, 69, 64
1, 16416, Note_on_c, 1, 66, 64
1, 16696, Note_on_c, 0, 75, 0
1, 16696, Note_on_c, 1, 69, 0
1, 16696, Note_on_c, 1, 66, 0
1, 16704, Note_on_c, 0, 78, 78
1, 16704, Note_on_c, 1, 63, 78
1, 16704, Note_on_c, 1, 60, 78
1, 16793, Note_on_c, 1, 63, 0
1, 16793, Note_on_c, 1, 60, 0
1, 16800, Note_on_c, 1, 51, 78
1, 16800, Note_on_c, 1, 48, 78
1, 16845, Note_on_c, 0, 78, 0
1, 16848, Note_on_c, 0, 81, 78
1, 16871, Note_on_c, 0, 81, 0
1, 16872, Note_on_c, 0, 80, 78
1, 16889, Note_on_c, 1, 51, 0
1, 16889, Note_on_c, 1, 48, 0
1, 16895, Note_on_c, 0, 80, 0
1, 16896, Note_on_c, 0, 78, 78
1, 16919, Note_on_c, 0, 78, 0
1, 16920, Note_on_c, 0, 76, 78
1, 16943, Note_on_c, 0, 76, 0
1, 16944, Note_on_c, 0, 75, 78
1, 16967, Note_on_c, 0, 75, 0
1, 16968, Note_on_c, 0, 78, 78
1, 16991, Note_on_c, 0, 78, 0
1, 16992, Note_on_c, 0, 76, 78
1, 16992, Note_on_c, 1, 52, 78
1, 16992, Note_on_c, 1, 49, 78
1, 17081, Note_on_c, 0, 76, 0
1, 17081, Note_on_c, 1, 52, 0
1, 17081, Note_on_c, 1, 49, 0
1, 17088, Note_on_c, 0, 73, 78
1, 17177, Note_on_c, 0, 73, 0
1, 17184, Note_on_c, 0, 73, 78
1, 17184, Note_on_c, 1, 61, 78
1, 17184, Note_on_c, 1, 57, 78
1, 17273, Note_on_c, 0, 73, 0
1, 17273, Note_on_c, 1, 61, 0
1, 17273, Note_on_c, 1, 57, 0
1, 17280, Note_on_c, 0, 80, 78
1, 17280, Note_on_c, 1, 63, 78
1, 17280, Note_on_c, 1, 54, 78
1, 17298, Note_on_c, 0, 80, 0
1, 17298, Note_on_c, 0, 78, 78
1, 17316, Note_on_c, 0, 78, 0
1, 17316, Note_on_c, 0, 77, 78
1, 17334, Note_on_c, 0, 77, 0
1, 17334, Note_on_c, 0, 78, 78
1, 17457, Note_on_c, 1, 63, 0
1, 17457, Note_on_c, 1, 54, 0
1, 17472, Note_on_c, 0, 78, 0
1, 17472, Note_on_c, 0, 80, 78
1, 17472, Note_on_c, 1, 60, 78
1, 17472, Note_on_c, 1, 56, 78
1, 17561, Note_on_c, 0, 80, 0
1, 17561, Note_on_c, 1, 60, 0
1, 17561, Note_on_c, 1, 56, 0
1, 17568, Note_on_c, 0, 73, 78
1, 17568, Note_on_c, 1, 61, 78
1, 17568, Note_on_c, 1, 49, 78
1, 17701, Note_on_c, 0, 73, 0
1, 17701, Note_on_c, 1, 61, 0
1, 17701, Note_on_c, 1, 49, 0
1, 17856, Note_on_c, 0, 68, 71
1, 17856, Note_on_c, 0, 65, 71
1, 18048, Note_on_c, 0, 68, 0
1, 18048, Note_on_c, 0, 65, 0
1, 18048, Note_on_c, 0, 70, 71
1, 18048, Note_on_c, 0, 66, 71
1, 18137, Note_on_c, 0, 70, 0
1, 18137, Note_on_c, 0, 66, 0
1, 18144, Note_on_c, 0, 68, 71
1, 18144, Note_on_c, 0, 65, 71
1, 18144, Note_on_c, 1, 56, 64
1, 18233, Note_on_c, 0, 68, 0
1, 18233, Note_on_c, 0, 65, 0
1, 18240, Note_on_c, 0, 66, 71
1, 18240, Note_on_c, 0, 63, 71
1, 18329, Note_on_c, 0, 66, 0
1, 18329, Note_on_c, 0, 63, 0
1, 18336, Note_on_c, 0, 65, 71
1, 18336, Note_on_c, 0, 61, 71
1, 18336, Note_on_c, 1, 56, 0
1, 18336, Note_on_c, 1, 58, 64
1, 18425, Note_on_c, 0, 65, 0
1, 18425, Note_on_c, 0, 61, 0
1, 18425, Note_on_c, 1, 58, 0
1, 18432, Note_on_c, 0, 63, 71
1, 18432, Note_on_c, 0, 61, 71
1, 18432, Note_on_c, 1, 54, 64
1, 18471, Note_on_c, 0, 63, 0
1, 18471, Note_on_c, 0, 61, 0
1, 18471, Note_on_c, 1, 54, 0
1, 18528, Note_on_c, 0, 63, 71
1, 18528, Note_on_c, 0, 61, 71
1, 18528, Note_on_c, 1, 54, 64
1, 18624, Note_on_c, 0, 63, 0
1, 18624, Note_on_c, 0, 65, 71
1, 18624, Note_on_c, 1, 54, 0
1, 18624, Note_on_c, 1, 53, 64
1, 18713, Note_on_c, 0, 65, 0
1, 18713, Note_on_c, 1, 53, 0
1, 18720, Note_on_c, 0, 68, 71
1, 18720, Note_on_c, 1, 51, 64
1, 18809, Note_on_c, 0, 68, 0
1, 18809, Note_on_c, 0, 61, 0
1, 18809, Note_on_c, 1, 51, 0
1, 18816, Note_on_c, 0, 66, 71
1, 18816, Note_on_c, 0, 60, 71
1, 18816, Note_on_c, 1, 56, 64
1, 18828, Note_on_c, 0, 66, 0
1, 18828, Note_on_c, 0, 68, 71
1, 18840, Note_on_c, 0, 68, 0
1, 18840, Note_on_c, 0, 66, 71
1, 18905, Note_on_c, 0, 66, 0
1, 18905, Note_on_c, 0, 60, 0
1, 18905, Note_on_c, 1, 56, 0
1, 18912, Note_on_c, 0, 65, 71
1, 18912, Note_on_c, 0, 61, 71
1, 18912, Note_on_c, 1, 49, 64
1, 19001, Note_on_c, 0, 65, 0
1, 19001, Note_on_c, 0, 61, 0
1, 19001, Note_on_c, 1, 49, 0
1, 19008, Note_on_c, 0, 63, 71
1, 19008, Note_on_c, 0, 60, 71
1, 19104, Note_on_c, 1, 44, 64
1, 19104, Note_on_c, 1, 32, 64
1, 19185, Note_on_c, 0, 63, 0
1, 19185, Note_on_c, 0, 60, 0
1, 19200, Note_on_c, 0, 66, 71
1, 19200, Note_on_c, 0, 61, 71
1, 19200, Note_on_c, 1, 44, 0
1, 19200, Note_on_c, 1, 32, 0
1, 19200, Note_on_c, 1, 43, 64
1, 19200, Note_on_c, 1, 31, 64
1, 19223, Note_on_c, 0, 66, 0
1, 19224, Note_on_c, 0, 65, 71
1, 19289, Note_on_c, 0, 61, 0
1, 19289, Note_on_c, 1, 43, 0
1, 19289, Note_on_c, 1, 31, 0
1, 19291, Note_on_c, 0, 65, 0
1, 19296, Note_on_c, 0, 63, 71
1, 19296, Note_on_c, 0, 60, 71
1, 19296, Note_on_c, 1, 44, 64
1, 19296, Note_on_c, 1, 32, 64
1, 19385, Note_on_c, 0, 63, 0
1, 19385, Note_on_c, 0, 60, 0
1, 19385, Note_on_c, 1, 44, 0
1, 19385, Note_on_c, 1, 32, 0
1, 19392, Note_on_c, 0, 68, 71
1, 19481, Note_on_c, 0, 68, 0
1, 19488, Note_on_c, 0, 68, 71
1, 19577, Note_on_c, 0, 68, 0
1, 19584, Note_on_c, 0, 63, 58
1, 19584, Note_on_c, 0, 60, 58
1, 19680, Note_on_c, 1, 44, 58
1, 19680, Note_on_c, 1, 32, 58
1, 19761, Note_on_c, 0, 63, 0
1, 19761, Note_on_c, 0, 60, 0
1, 19776, Note_on_c, 0, 66, 58
1, 19776, Note_on_c, 0, 61, 58
1, 19776, Note_on_c, 1, 44, 0
1, 19776, Note_on_c, 1, 32, 0
1, 19776, Note_on_c, 1, 43, 58
1, 19776, Note_on_c, 1, 31, 58
1, 19799, Note_on_c, 0, 66, 0
1, 19800, Note_on_c, 0, 65, 58
1, 19865, Note_on_c, 0, 61, 0
1, 19865, Note_on_c, 1, 43, 0
1, 19865, Note_on_c, 1, 31, 0
1, 19867, Note_on_c, 0, 65, 0
1, 19872, Note_on_c, 0, 63, 58
1, 19872, Note_on_c, 0, 60, 58
1, 19872, Note_on_c, 1, 44, 58
1, 19872, Note_on_c, 1, 32, 58
1, 19961, Note_on_c, 0, 63, 0
1, 19961, Note_on_c, 0, 60, 0
1, 19961, Note_on_c, 1, 44, 0
1, 19961, Note_on_c, 1, 32, 0
1, 19968, Note_on_c, 0, 68, 71
1, 20057, Note_on_c, 0, 68, 0
1, 20064, Note_on_c, 0, 66, 71
1, 20064, Note_on_c, 1, 56, 64
1, 20064, Note_on_c, 1, 48, 64
1, 20153, Note_on_c, 0, 66, 0
1, 20153, Note_on_c, 1, 56, 0
1, 20153, Note_on_c, 1, 48, 0
1, 20160, Note_on_c, 0, 64, 71
1, 20160, Note_on_c, 1, 56, 64
1, 20160, Note_on_c, 1, 49, 64
1, 20256, Note_on_c, 0, 64, 0
1, 20256, Note_on_c, 0, 65, 71
1, 20337, Note_on_c, 1, 56, 0
1, 20345, Note_on_c, 0, 65, 0
1, 20352, Note_on_c, 0, 73, 71
1, 20352, Note_on_c, 1, 58, 64
1, 20397, Note_on_c, 0, 73, 0
1, 20400, Note_on_c, 0, 70, 71
1, 20425, Note_on_c, 1, 49, 0
1, 20441, Note_on_c, 1, 58, 0
1, 20445, Note_on_c, 0, 70, 0
1, 20448, Note_on_c, 0, 68, 71
1, 20448, Note_on_c, 1, 60, 64
1, 20448, Note_on_c, 1, 51, 64
1, 20537, Note_on_c, 0, 68, 0
1, 20544, Note_on_c, 0, 75, 71
1, 20633, Note_on_c, 0, 75, 0
1, 20640, Note_on_c, 0, 72, 71
1, 20713, Note_on_c, 1, 60, 0
1, 20729, Note_on_c, 0, 72, 0
1, 20736, Note_on_c, 0, 73, 71
1, 20736, Note_on_c, 1, 58, 64
1, 20825, Note_on_c, 0, 73, 0
1, 20832, Note_on_c, 0, 70, 71
1, 20913, Note_on_c, 1, 58, 0
1, 20921, Note_on_c, 0, 70, 0
1, 20928, Note_on_c, 0, 67, 71
1, 20928, Note_on_c, 1, 61, 64
1, 21001, Note_on_c, 1, 51, 0
1, 21017, Note_on_c, 0, 67, 0
1, 21017, Note_on_c, 1, 61, 0
1, 21024, Note_on_c, 0, 67, 71
1, 21024, Note_on_c, 1, 61, 64
1, 21024, Note_on_c, 1, 56, 64
1, 21201, Note_on_c, 1, 61, 0
1, 21216, Note_on_c, 0, 67, 0
1, 21216, Note_on_c, 0, 68, 71
1, 21216, Note_on_c, 1, 60, 64
1, 21289, Note_on_c, 1, 56, 0
1, 21305, Note_on_c, 0, 68, 0
1, 21305, Note_on_c, 1, 60, 0
1, 21312, Note_on_c, 0, 68, 71
1, 21312, Note_on_c, 0, 65, 71
1, 21504, Note_on_c, 0, 68, 0
1, 21504, Note_on_c, 0, 65, 0
1, 21504, Note_on_c, 0, 70, 71
1, 21504, Note_on_c, 0, 66, 71
1, 21593, Note_on_c, 0, 70, 0
1, 21593, Note_on_c, 0, 66, 0
1, 21600, Note_on_c, 0, 68, 71
1, 21600, Note_on_c, 0, 65, 71
1, 21600, Note_on_c, 1, 56, 64
1, 21689, Note_on_c, 0, 68, 0
1, 21689, Note_on_c, 0, 65, 0
1, 21696, Note_on_c, 0, 66, 71
1, 21696, Note_on_c, 0, 63, 71
1, 21785, Note_on_c, 0, 66, 0
1, 21785, Note_on_c, 0, 63, 0
1, 21792, Note_on_c, 0, 65, 71
1, 21792, Note_on_c, 0, 61, 71
1, 21792, Note_on_c, 1, 56, 0
1, 21792, Note_on_c, 1, 58, 64
1, 21881, Note_on_c, 0, 65, 0
1, 21881, Note_on_c, 0, 61, 0
1, 21881, Note_on_c, 1, 58, 0
1, 21888, Note_on_c, 0, 63, 71
1, 21888, Note_on_c, 0, 61, 71
1, 21888, Note_on_c, 1, 54, 64
1, 21927, Note_on_c, 0, 63, 0
1, 21927, Note_on_c, 0, 61, 0
1, 21927, Note_on_c, 1, 54, 0
1, 21984, Note_on_c, 0, 63, 71
1, 21984, Note_on_c, 0, 61, 71
1, 21984, Note_on_c, 1, 54, 64
1, 22080, Note_on_c, 0, 63, 0
1, 22080, Note_on_c, 0, 65, 71
1, 22080, Note_on_c, 1, 54, 0
1, 22080, Note_on_c, 1, 53, 64
1, 22169, Note_on_c, 0, 65, 0
1, 22169, Note_on_c, 1, 53, 0
1, 22176, Note_on_c, 0, 68, 71
1, 22176, Note_on_c, 1, 51, 64
1, 22265, Note_on_c, 0, 68, 0
1, 22265, Note_on_c, 0, 61, 0
1, 22265, Note_on_c, 1, 51, 0
1, 22272, Note_on_c, 0, 66, 71
1, 22272, Note_on_c, 0, 60, 71
1, 22272, Note_on_c, 1, 56, 64
1, 22284, Note_on_c, 0, 66, 0
1, 22284, Note_on_c, 0, 68, 71
1, 22296, Note_on_c, 0, 68, 0
1, 22296, Note_on_c, 0, 66, 71
1, 22361, Note_on_c, 0, 66, 0
1, 22361, Note_on_c, 0, 60, 0
1, 22361, Note_on_c, 1, 56, 0
1, 22368, Note_on_c, 0, 65, 71
1, 22368, Note_on_c, 0, 61, 71
1, 22368, Note_on_c, 1, 49, 64
1, 22457, Note_on_c, 0, 65, 0
1, 22457, Note_on_c, 0, 61, 0
1, 22457, Note_on_c, 1, 49, 0
1, 22464, Note_on_c, 0, 63, 71
1, 22464, Note_on_c, 0, 60, 71
1, 22560, Note_on_c, 1, 44, 64
1, 22560, Note_on_c, 1, 32, 64
1, 22641, Note_on_c, 0, 63, 0
1, 22641, Note_on_c, 0, 60, 0
1, 22656, Note_on_c, 0, 66, 71
1, 22656, Note_on_c, 0, 61, 71
1, 22656, Note_on_c, 1, 44, 0
1, 22656, Note_on_c, 1, 32, 0
1, 22656, Note_on_c, 1, 43, 64
1, 22656, Note_on_c, 1, 31, 64
1, 22679, Note_on_c, 0, 66, 0
1, 22680, Note_on_c, 0, 65, 71
1, 22745, Note_on_c, 0, 61, 0
1, 22745, Note_on_c, 1, 43, 0
1, 22745, Note_on_c, 1, 31, 0
1, 22747, Note_on_c, 0, 65, 0
1, 22752, Note_on_c, 0, 63, 71
1, 22752, Note_on_c, 0, 60, 71
1, 22752, Note_on_c, 1, 44, 64
1, 22752, Note_on_c, 1, 32, 64
1, 22841, Note_on_c, 0, 63, 0
1, 22841, Note_on_c, 0, 60, 0
1, 22841, Note_on_c, 1, 44, 0
1, 22841, Note_on_c, 1, 32, 0
1, 22848, Note_on_c, 0, 68, 71
1, 22937, Note_on_c, 0, 68, 0
1, 22944, Note_on_c, 0, 68, 71
1, 23033, Note_on_c, 0, 68, 0
1, 23040, Note_on_c, 0, 63, 58
1, 23040, Note_on_c, 0, 60, 58
1, 23136, Note_on_c, 1, 44, 58
1, 23136, Note_on_c, 1, 32, 58
1, 23217, Note_on_c, 0, 63, 0
1, 23217, Note_on_c, 0, 60, 0
1, 23232, Note_on_c, 0, 66, 58
1, 23232, Note_on_c, 0, 61, 58
1, 23232, Note_on_c, 1, 44, 0
1, 23232, Note_on_c, 1, 32, 0
1, 23232, Note_on_c, 1, 43, 58
1, 23232, Note_on_c, 1, 31, 58
1, 23255, Note_on_c, 0, 66, 0
1, 23256, Note_on_c, 0, 65, 58
1, 23321, Note_on_c, 0, 61, 0
1, 23321, Note_on_c, 1, 43, 0
1, 23321, Note_on_c, 1, 31, 0
1, 23323, Note_on_c, 0, 65, 0
1, 23328, Note_on_c, 0, 63, 58
1, 23328, Note_on_c, 0, 60, 58
1, 23328, Note_on_c, 1, 44, 58
1, 23328, Note_on_c, 1, 32, 58
1, 23417, Note_on_c, 0, 63, 0
1, 23417, Note_on_c, 0, 60, 0
1, 23417, Note_on_c, 1, 44, 0
1, 23417, Note_on_c, 1, 32, 0
1, 23424, Note_on_c, 0, 68, 71
1, 23513, Note_on_c, 0, 68, 0
1, 23520, Note_on_c, 0, 66, 71
1, 23520, Note_on_c, 1, 56, 64
1, 23520, Note_on_c, 1, 48, 64
1, 23609, Note_on_c, 0, 66, 0
1, 23609, Note_on_c, 1, 56, 0
1, 23609, Note_on_c, 1, 48, 0
1, 23616, Note_on_c, 0, 64, 71
1, 23616, Note_on_c, 1, 56, 64
1, 23616, Note_on_c, 1, 49, 64
1, 23712, Note_on_c, 0, 64, 0
1, 23712, Note_on_c, 0, 65, 71
1, 23793, Note_on_c, 1, 56, 0
1, 23801, Note_on_c, 0, 65, 0
1, 23808, Note_on_c, 0, 73, 71
1, 23808, Note_on_c, 1, 58, 64
1, 23853, Note_on_c, 0, 73, 0
1, 23856, Note_on_c, 0, 70, 71
1, 23881, Note_on_c, 1, 49, 0
1, 23897, Note_on_c, 1, 58, 0
1, 23901, Note_on_c, 0, 70, 0
1, 23904, Note_on_c, 0, 68, 71
1, 23904, Note_on_c, 1, 60, 64
1, 23904, Note_on_c, 1, 51, 64
1, 23993, Note_on_c, 0, 68, 0
1, 24000, Note_on_c, 0, 75, 71
1, 24089, Note_on_c, 0, 75, 0
1, 24096, Note_on_c, 0, 72, 71
1, 24169, Note_on_c, 1, 60, 0
1, 24185, Note_on_c, 0, 72, 0
1, 24192, Note_on_c, 0, 73, 71
1, 24192, Note_on_c, 1, 58, 64
1, 24281, Note_on_c, 0, 73, 0
1, 24288, Note_on_c, 0, 70, 71
1, 24369, Note_on_c, 1, 58, 0
1, 24377, Note_on_c, 0, 70, 0
1, 24384, Note_on_c, 0, 67, 71
1, 24384, Note_on_c, 1, 61, 64
1, 24457, Note_on_c, 1, 51, 0
1, 24473, Note_on_c, 0, 67, 0
1, 24473, Note_on_c, 1, 61, 0
1, 24480, Note_on_c, 0, 67, 71
1, 24480, Note_on_c, 1, 61, 64
1, 24480, Note_on_c, 1, 56, 64
1, 24657, Note_on_c, 1, 61, 0
1, 24672, Note_on_c, 0, 67, 0
1, 24672, Note_on_c, 0, 68, 71
1, 24672, Note_on_c, 1, 60, 64
1, 24745, Note_on_c, 1, 56, 0
1, 24761, Note_on_c, 0, 68, 0
1, 24761, Note_on_c, 1, 60, 0
1, 24768, Note_on_c, 0, 68, 71
1, 24945, Note_on_c, 0, 68, 0
1, 24960, Note_on_c, 0, 73, 71
1, 24972, Note_on_c, 0, 73, 0
1, 24972, Note_on_c, 0, 71, 71
1, 24984, Note_on_c, 0, 71, 0
1, 24984, Note_on_c, 0, 70, 71
1, 24996, Note_on_c, 0, 70, 0
1, 24996, Note_on_c, 0, 71, 71
1, 25049, Note_on_c, 0, 71, 0
1, 25056, Note_on_c, 0, 62, 71
1, 25056, Note_on_c, 1, 59, 64
1, 25056, Note_on_c, 1, 56, 64
1, 25233, Note_on_c, 0, 62, 0
1, 25233, Note_on_c, 1, 59, 0
1, 25233, Note_on_c, 1, 56, 0
1, 25248, Note_on_c, 0, 63, 71
1, 25248, Note_on_c, 1, 58, 64
1, 25248, Note_on_c, 1, 54, 64
1, 25293, Note_on_c, 0, 63, 0
1, 25296, Note_on_c, 0, 64, 71
1, 25337, Note_on_c, 1, 58, 0
1, 25337, Note_on_c, 1, 54, 0
1, 25341, Note_on_c, 0, 64, 0
1, 25344, Note_on_c, 0, 65, 71
1, 25389, Note_on_c, 0, 65, 0
1, 25392, Note_on_c, 0, 66, 71
1, 25437, Note_on_c, 0, 66, 0
1, 25440, Note_on_c, 0, 67, 71
1, 25485, Note_on_c, 0, 67, 0
1, 25488, Note_on_c, 0, 68, 71
1, 25533, Note_on_c, 0, 68, 0
1, 25536, Note_on_c, 0, 69, 71
1, 25581, Note_on_c, 0, 69, 0
1, 25584, Note_on_c, 0, 70, 71
1, 25629, Note_on_c, 0, 70, 0
1, 25632, Note_on_c, 0, 61, 71
1, 25721, Note_on_c, 0, 61, 0
1, 25728, Note_on_c, 0, 60, 71
1, 25728, Note_on_c, 1, 56, 64
1, 25728, Note_on_c, 1, 54, 64
1, 25740, Note_on_c, 0, 60, 0
1, 25740, Note_on_c, 0, 61, 71
1, 25752, Note_on_c, 0, 61, 0
1, 25752, Note_on_c, 0, 60, 71
1, 25817, Note_on_c, 0, 60, 0
1, 25817, Note_on_c, 1, 54, 0
1, 25824, Note_on_c, 0, 61, 71
1, 25824, Note_on_c, 1, 53, 64
1, 25854, Note_on_c, 0, 61, 0
1, 25856, Note_on_c, 0, 65, 71
1, 25886, Note_on_c, 0, 65, 0
1, 25888, Note_on_c, 0, 68, 71
1, 25905, Note_on_c, 1, 56, 0
1, 25913, Note_on_c, 1, 53, 0
1, 25918, Note_on_c, 0, 68, 0
1, 25920, Note_on_c, 0, 68, 71
1, 25920, Note_on_c, 1, 56, 64
1, 25920, Note_on_c, 1, 48, 64
1, 26009, Note_on_c, 0, 68, 0
1, 26016, Note_on_c, 0, 66, 71
1, 26016, Note_on_c, 0, 63, 71
1, 26097, Note_on_c, 1, 48, 0
1, 26105, Note_on_c, 0, 66, 0
1, 26105, Note_on_c, 0, 63, 0
1, 26112, Note_on_c, 0, 65, 71
1, 26112, Note_on_c, 0, 61, 71
1, 26112, Note_on_c, 1, 49, 64
1, 26185, Note_on_c, 1, 56, 0
1, 26201, Note_on_c, 0, 65, 0
1, 26201, Note_on_c, 0, 61, 0
1, 26201, Note_on_c, 1, 49, 0
1, 26208, Note_on_c, 0, 65, 71
1, 26208, Note_on_c, 0, 61, 71
1, 26208, Note_on_c, 1, 56, 64
1, 26208, Note_on_c, 1, 44, 64
1, 26400, Note_on_c, 0, 65, 0
1, 26400, Note_on_c, 0, 61, 0
1, 26400, Note_on_c, 0, 63, 71
1, 26400, Note_on_c, 0, 60, 71
1, 26473, Note_on_c, 1, 56, 0
1, 26473, Note_on_c, 1, 44, 0
1, 26489, Note_on_c, 0, 63, 0
1, 26489, Note_on_c, 0, 60, 0
1, 26496, Note_on_c, 0, 68, 71
1, 26496, Note_on_c, 0, 65, 71
1, 26673, Note_on_c, 0, 68, 0
1, 26673, Note_on_c, 0, 65, 0
1, 26688, Note_on_c, 0, 70, 71
1, 26688, Note_on_c, 0, 66, 71
1, 26777, Note_on_c, 0, 70, 0
1, 26777, Note_on_c, 0, 66, 0
1, 26784, Note_on_c, 0, 67, 71
1, 26784, Note_on_c, 0, 63, 58
1, 26784, Note_on_c, 1, 61, 64
1, 26961, Note_on_c, 0, 67, 0
1, 26961, Note_on_c, 1, 61, 0
1, 26976, Note_on_c, 0, 68, 71
1, 26976, Note_on_c, 1, 60, 64
1, 27049, Note_on_c, 0, 63, 0
1, 27065, Note_on_c, 0, 68, 0
1, 27065, Note_on_c, 1, 60, 0
1, 27072, Note_on_c, 0, 65, 71
1, 27072, Note_on_c, 0, 61, 58
1, 27072, Note_on_c, 1, 59, 64
1, 27249, Note_on_c, 0, 65, 0
1, 27249, Note_on_c, 1, 59, 0
1, 27264, Note_on_c, 0, 66, 71
1, 27264, Note_on_c, 1, 58, 64
1, 27337, Note_on_c, 0, 61, 0
1, 27353, Note_on_c, 0, 66, 0
1, 27353, Note_on_c, 1, 58, 0
1, 27360, Note_on_c, 0, 66, 71
1, 27360, Note_on_c, 0, 60, 58
1, 27360, Note_on_c, 1, 56, 64
1, 27449, Note_on_c, 0, 66, 0
1, 27456, Note_on_c, 0, 65, 71
1, 27456, Note_on_c, 1, 48, 64
1, 27468, Note_on_c, 0, 65, 0
1, 27468, Note_on_c, 0, 63, 71
1, 27480, Note_on_c, 0, 63, 0
1, 27480, Note_on_c, 0, 62, 71
1, 27492, Note_on_c, 0, 62, 0
1, 27492, Note_on_c, 0, 63, 71
1, 27537, Note_on_c, 0, 60, 0
1, 27537, Note_on_c, 1, 56, 0
1, 27545, Note_on_c, 0, 63, 0
1, 27545, Note_on_c, 1, 48, 0
1, 27552, Note_on_c, 0, 65, 71
1, 27552, Note_on_c, 1, 56, 64
1, 27552, Note_on_c, 1, 49, 64
1, 27641, Note_on_c, 0, 65, 0
1, 27641, Note_on_c, 1, 56, 0
1, 27641, Note_on_c, 1, 49, 0
1, 27648, Note_on_c, 0, 63, 71
1, 27648, Note_on_c, 0, 58, 58
1, 27648, Note_on_c, 1, 54, 64
1, 27648, Note_on_c, 1, 42, 64
1, 27744, Note_on_c, 0, 63, 0
1, 27744, Note_on_c, 0, 66, 71
1, 27783, Note_on_c, 0, 66, 0
1, 27825, Note_on_c, 0, 58, 0
1, 27825, Note_on_c, 1, 54, 0
1, 27825, Note_on_c, 1, 42, 0
1, 27840, Note_on_c, 0, 60, 71
1, 27840, Note_on_c, 1, 54, 64
1, 27840, Note_on_c, 1, 51, 64
1, 27840, Note_on_c, 1, 44, 64
1, 27879, Note_on_c, 0, 60, 0
1, 27929, Note_on_c, 1, 54, 0
1, 27929, Note_on_c, 1, 51, 0
1, 27929, Note_on_c, 1, 44, 0
1, 27936, Note_on_c, 0, 61, 71
1, 27936, Note_on_c, 1, 53, 64
1, 27936, Note_on_c, 1, 49, 64
1, 27936, Note_on_c, 1, 37, 64
1, 28113, Note_on_c, 0, 61, 0
1, 28113, Note_on_c, 1, 53, 0
1, 28113, Note_on_c, 1, 49, 0
1, 28113, Note_on_c, 1, 37, 0
1, 28224, Note_on_c, 0, 68, 71
1, 28401, Note_on_c, 0, 68, 0
1, 28416, Note_on_c, 0, 73, 71
1, 28428, Note_on_c, 0, 73, 0
1, 28428, Note_on_c, 0, 71, 71
1, 28440, Note_on_c, 0, 71, 0
1, 28440, Note_on_c, 0, 70, 71
1, 28452, Note_on_c, 0, 70, 0
1, 28452, Note_on_c, 0, 71, 71
1, 28505, Note_on_c, 0, 71, 0
1, 28512, Note_on_c, 0, 62, 71
1, 28512, Note_on_c, 1, 59, 64
1, 28512, Note_on_c, 1, 56, 64
1, 28689, Note_on_c, 0, 62, 0
1, 28689, Note_on_c, 1, 59, 0
1, 28689, Note_on_c, 1, 56, 0
1, 28704, Note_on_c, 0, 63, 71
1, 28704, Note_on_c, 1, 58, 64
1, 28704, Note_on_c, 1, 54, 64
1, 28749, Note_on_c, 0, 63, 0
1, 28752, Note_on_c, 0, 64, 71
1, 28793, Note_on_c, 1, 58, 0
1, 28793, Note_on_c, 1, 54, 0
1, 28797, Note_on_c, 0, 64, 0
1, 28800, Note_on_c, 0, 65, 71
1, 28845, Note_on_c, 0, 65, 0
1, 28848, Note_on_c, 0, 66, 71
1, 28893, Note_on_c, 0, 66, 0
1, 28896, Note_on_c, 0, 67, 71
1, 28941, Note_on_c, 0, 67, 0
1, 28944, Note_on_c, 0, 68, 71
1, 28989, Note_on_c, 0, 68, 0
1, 28992, Note_on_c, 0, 69, 71
1, 29037, Note_on_c, 0, 69, 0
1, 29040, Note_on_c, 0, 70, 71
1, 29085, Note_on_c, 0, 70, 0
1, 29088, Note_on_c, 0, 61, 71
1, 29177, Note_on_c, 0, 61, 0
1, 29184, Note_on_c, 0, 60, 71
1, 29184, Note_on_c, 1, 56, 64
1, 29184, Note_on_c, 1, 54, 64
1, 29196, Note_on_c, 0, 60, 0
1, 29196, Note_on_c, 0, 61, 71
1, 29208, Note_on_c, 0, 61, 0
1, 29208, Note_on_c, 0, 60, 71
1, 29273, Note_on_c, 0, 60, 0
1, 29273, Note_on_c, 1, 54, 0
1, 29280, Note_on_c, 0, 61, 71
1, 29280, Note_on_c, 1, 53, 64
1, 29310, Note_on_c, 0, 61, 0
1, 29312, Note_on_c, 0, 65, 71
1, 29342, Note_on_c, 0, 65, 0
1, 29344, Note_on_c, 0, 68, 71
1, 29361, Note_on_c, 1, 56, 0
1, 29369, Note_on_c, 1, 53, 0
1, 29374, Note_on_c, 0, 68, 0
1, 29376, Note_on_c, 0, 68, 71
1, 29376, Note_on_c, 1, 56, 64
1, 29376, Note_on_c, 1, 48, 64
1, 29465, Note_on_c, 0, 68, 0
1, 29472, Note_on_c, 0, 66, 71
1, 29472, Note_on_c, 0, 63, 71
1, 29553, Note_on_c, 1, 48, 0
1, 29561, Note_on_c, 0, 66, 0
1, 29561, Note_on_c, 0, 63, 0
1, 29568, Note_on_c, 0, 65, 71
1, 29568, Note_on_c, 0, 61, 71
1, 29568, Note_on_c, 1, 49, 64
1, 29641, Note_on_c, 1, 56, 0
1, 29657, Note_on_c, 0, 65, 0
1, 29657, Note_on_c, 0, 61, 0
1, 29657, Note_on_c, 1, 49, 0
1, 29664, Note_on_c, 0, 65, 71
1, 29664, Note_on_c, 0, 61, 71
1, 29664, Note_on_c, 1, 56, 64
1, 29664, Note_on_c, 1, 44, 64
1, 29856, Note_on_c, 0, 65, 0
1, 29856, Note_on_c, 0, 61, 0
1, 29856, Note_on_c, 0, 63, 71
1, 29856, Note_on_c, 0, 60, 71
1, 29929, Note_on_c, 1, 56, 0
1, 29929, Note_on_c, 1, 44, 0
1, 29945, Note_on_c, 0, 63, 0
1, 29945, Note_on_c, 0, 60, 0
1, 29952, Note_on_c, 0, 68, 71
1, 29952, Note_on_c, 0, 65, 71
1, 30129, Note_on_c, 0, 68, 0
1, 30129, Note_on_c, 0, 65, 0
1, 30144, Note_on_c, 0, 70, 71
1, 30144, Note_on_c, 0, 66, 71
1, 30233, Note_on_c, 0, 70, 0
1, 30233, Note_on_c, 0, 66, 0
1, 30240, Note_on_c, 0, 67, 71
1, 30240, Note_on_c, 0, 63, 58
1, 30240, Note_on_c, 1, 61, 64
1, 30417, Note_on_c, 0, 67, 0
1, 30417, Note_on_c, 1, 61, 0
1, 30432, Note_on_c, 0, 68, 71
1, 30432, Note_on_c, 1, 60, 64
1, 30505, Note_on_c, 0, 63, 0
1, 30521, Note_on_c, 0, 68, 0
1, 30521, Note_on_c, 1, 60, 0
1, 30528, Note_on_c, 0, 65, 71
1, 30528, Note_on_c, 0, 61, 58
1, 30528, Note_on_c, 1, 59, 64
1, 30705, Note_on_c, 0, 65, 0
1, 30705, Note_on_c, 1, 59, 0
1, 30720, Note_on_c, 0, 66, 71
1, 30720, Note_on_c, 1, 58, 64
1, 30793, Note_on_c, 0, 61, 0
1, 30809, Note_on_c, 0, 66, 0
1, 30809, Note_on_c, 1, 58, 0
1, 30816, Note_on_c, 0, 66, 71
1, 30816, Note_on_c, 0, 60, 58
1, 30816, Note_on_c, 1, 56, 64
1, 30905, Note_on_c, 0, 66, 0
1, 30912, Note_on_c, 0, 65, 71
1, 30912, Note_on_c, 1, 48, 64
1, 30924, Note_on_c, 0, 65, 0
1, 30924, Note_on_c, 0, 63, 71
1, 30936, Note_on_c, 0, 63, 0
1, 30936, Note_on_c, 0, 62, 71
1, 30948, Note_on_c, 0, 62, 0
1, 30948, Note_on_c, 0, 63, 71
1, 30993, Note_on_c, 0, 60, 0
1, 30993, Note_on_c, 1, 56, 0
1, 31001, Note_on_c, 0, 63, 0
1, 31001, Note_on_c, 1, 48, 0
1, 31008, Note_on_c, 0, 65, 71
1, 31008, Note_on_c, 1, 56, 64
1, 31008, Note_on_c, 1, 49, 64
1, 31097, Note_on_c, 0, 65, 0
1, 31097, Note_on_c, 1, 56, 0
1, 31097, Note_on_c, 1, 49, 0
1, 31104, Note_on_c, 0, 63, 71
1, 31104, Note_on_c, 0, 58, 58
1, 31104, Note_on_c, 1, 54, 64
1, 31104, Note_on_c, 1, 42, 64
1, 31200, Note_on_c, 0, 63, 0
1, 31200, Note_on_c, 0, 66, 71
1, 31239, Note_on_c, 0, 66, 0
1, 31281, Note_on_c, 0, 58, 0
1, 31281, Note_on_c, 1, 54, 0
1, 31281, Note_on_c, 1, 42, 0
1, 31296, Note_on_c, 0, 60, 71
1, 31296, Note_on_c, 1, 54, 64
1, 31296, Note_on_c, 1, 51, 64
1, 31296, Note_on_c, 1, 44, 64
1, 31335, Note_on_c, 0, 60, 0
1, 31385, Note_on_c, 1, 54, 0
1, 31385, Note_on_c, 1, 51, 0
1, 31385, Note_on_c, 1, 44, 0
1, 31392, Note_on_c, 0, 61, 71
1, 31392, Note_on_c, 1, 53, 64
1, 31392, Note_on_c, 1, 49, 64
1, 31392, Note_on_c, 1, 37, 64
1, 31569, Note_on_c, 0, 61, 0
1, 31569, Note_on_c, 1, 53, 0
1, 31569, Note_on_c, 1, 49, 0
1, 31569, Note_on_c, 1, 37, 0
1, 31680, Note_on_c, 0, 73, 78
1, 31680, Note_on_c, 1, 64, 78
1, 31680, Note_on_c, 1, 61, 78
1, 31769, Note_on_c, 1, 64, 0
1, 31769, Note_on_c, 1, 61, 0
1, 31776, Note_on_c, 1, 52, 78
1, 31776, Note_on_c, 1, 49, 78
1, 31799, Note_on_c, 0, 73, 0
1, 31800, Note_on_c, 0, 75, 78
1, 31823, Note_on_c, 0, 75, 0
1, 31824, Note_on_c, 0, 73, 78
1, 31847, Note_on_c, 0, 73, 0
1, 31848, Note_on_c, 0, 72, 78
1, 31865, Note_on_c, 1, 52, 0
1, 31865, Note_on_c, 1, 49, 0
1, 31871, Note_on_c, 0, 72, 0
1, 31872, Note_on_c, 0, 73, 78
1, 31895, Note_on_c, 0, 73, 0
1, 31896, Note_on_c, 0, 75, 78
1, 31919, Note_on_c, 0, 75, 0
1, 31920, Note_on_c, 0, 76, 78
1, 31943, Note_on_c, 0, 76, 0
1, 31944, Note_on_c, 0, 78, 78
1, 31967, Note_on_c, 0, 78, 0
1, 31968, Note_on_c, 0, 80, 94
1, 31968, Note_on_c, 1, 64, 78
1, 31968, Note_on_c, 1, 61, 78
1, 32007, Note_on_c, 0, 80, 0
1, 32057, Note_on_c, 1, 64, 0
1, 32057, Note_on_c, 1, 61, 0
1, 32064, Note_on_c, 0, 80, 78
1, 32103, Note_on_c, 0, 80, 0
1, 32160, Note_on_c, 0, 80, 78
1, 32199, Note_on_c, 0, 80, 0
1, 32256, Note_on_c, 0, 79, 78
1, 32256, Note_on_c, 1, 63, 78
1, 32256, Note_on_c, 1, 61, 64
1, 32433, Note_on_c, 1, 61, 0
1, 32448, Note_on_c, 0, 79, 0
1, 32448, Note_on_c, 0, 80, 78
1, 32448, Note_on_c, 1, 60, 64
1, 32521, Note_on_c, 1, 63, 0
1, 32537, Note_on_c, 0, 80, 0
1, 32537, Note_on_c, 1, 60, 0
1, 32544, Note_on_c, 0, 75, 78
1, 32544, Note_on_c, 1, 69, 64
1, 32544, Note_on_c, 1, 66, 64
1, 32824, Note_on_c, 0, 75, 0
1, 32824, Note_on_c, 1, 69, 0
1, 32824, Note_on_c, 1, 66, 0
1, 32832, Note_on_c, 0, 78, 78
1, 32832, Note_on_c, 1, 63, 78
1, 32832, Note_on_c, 1, 60, 78
1, 32921, Note_on_c, 1, 63, 0
1, 32921, Note_on_c, 1, 60, 0
1, 32928, Note_on_c, 1, 51, 78
1, 32928, Note_on_c, 1, 48, 78
1, 32973, Note_on_c, 0, 78, 0
1, 32976, Note_on_c, 0, 81, 78
1, 32999, Note_on_c, 0, 81, 0
1, 33000, Note_on_c, 0, 80, 78
1, 33017, Note_on_c, 1, 51, 0
1, 33017, Note_on_c, 1, 48, 0
1, 33023, Note_on_c, 0, 80, 0
1, 33024, Note_on_c, 0, 78, 78
1, 33047, Note_on_c, 0, 78, 0
1, 33048, Note_on_c, 0, 76, 78
1, 33071, Note_on_c, 0, 76, 0
1, 33072, Note_on_c, 0, 75, 78
1, 33095, Note_on_c, 0, 75, 0
1, 33096, Note_on_c, 0, 78, 78
1, 33119, Note_on_c, 0, 78, 0
1, 33120, Note_on_c, 0, 76, 78
1, 33120, Note_on_c, 1, 52, 78
1, 33120, Note_on_c, 1, 49, 78
1, 33209, Note_on_c, 0, 76, 0
1, 33209, Note_on_c, 1, 52, 0
1, 33209, Note_on_c, 1, 49, 0
1, 33216, Note_on_c, 0, 73, 78
1, 33305, Note_on_c, 0, 73, 0
1, 33312, Note_on_c, 0, 73, 78
1, 33312, Note_on_c, 1, 61, 78
1, 33312, Note_on_c, 1, 57, 78
1, 33401, Note_on_c, 0, 73, 0
1, 33401, Note_on_c, 1, 61, 0
1, 33401, Note_on_c, 1, 57, 0
1, 33408, Note_on_c, 0, 80, 78
1, 33408, Note_on_c, 1, 63, 78
1, 33408, Note_on_c, 1, 54, 78
1, 33426, Note_on_c, 0, 80, 0
1, 33426, Note_on_c, 0, 78, 78
1, 33444, Note_on_c, 0, 78, 0
1, 33444, Note_on_c, 0, 77, 78
1, 33462, Note_on_c, 0, 77, 0
1, 33462, Note_on_c, 0, 78, 78
1, 33585, Note_on_c, 1, 63, 0
1, 33585, Note_on_c, 1, 54, 0
1, 33600, Note_on_c, 0, 78, 0
1, 33600, Note_on_c, 0, 80, 78
1, 33600, Note_on_c, 1, 60, 78
1, 33600, Note_on_c, 1, 56, 78
1, 33639, Note_on_c, 0, 80, 0
1, 33689, Note_on_c, 1, 60, 0
1, 33689, Note_on_c, 1, 56, 0
1, 33696, Note_on_c, 0, 73, 78
1, 33696, Note_on_c, 1, 61, 78
1, 33696, Note_on_c, 1, 49, 78
1, 33829, Note_on_c, 0, 73, 0
1, 33829, Note_on_c, 1, 61, 0
1, 33829, Note_on_c, 1, 49, 0
1, 33984, Note_on_c, 0, 73, 78
1, 33984, Note_on_c, 1, 64, 78
1, 33984, Note_on_c, 1, 61, 78
1, 34073, Note_on_c, 1, 64, 0
1, 34073, Note_on_c, 1, 61, 0
1, 34080, Note_on_c, 1, 52, 78
1, 34080, Note_on_c, 1, 49, 78
1, 34103, Note_on_c, 0, 73, 0
1, 34104, Note_on_c, 0, 75, 78
1, 34127, Note_on_c, 0, 75, 0
1, 34128, Note_on_c, 0, 73, 78
1, 34151, Note_on_c, 0, 73, 0
1, 34152, Note_on_c, 0, 72, 78
1, 34169, Note_on_c, 1, 52, 0
1, 34169, Note_on_c, 1, 49, 0
1, 34175, Note_on_c, 0, 72, 0
1, 34176, Note_on_c, 0, 73, 78
1, 34199, Note_on_c, 0, 73, 0
1, 34200, Note_on_c, 0, 75, 78
1, 34223, Note_on_c, 0, 75, 0
1, 34224, Note_on_c, 0, 76, 78
1, 34247, Note_on_c, 0, 76, 0
1, 34248, Note_on_c, 0, 78, 78
1, 34271, Note_on_c, 0, 78, 0
1, 34272, Note_on_c, 0, 80, 94
1, 34272, Note_on_c, 1, 64, 78
1, 34272, Note_on_c, 1, 61, 78
1, 34311, Note_on_c, 0, 80, 0
1, 34361, Note_on_c, 1, 64, 0
1, 34361, Note_on_c, 1, 61, 0
1, 34368, Note_on_c, 0, 80, 78
1, 34407, Note_on_c, 0, 80, 0
1, 34464, Note_on_c, 0, 80, 78
1, 34503, Note_on_c, 0, 80, 0
1, 34560, Note_on_c, 0, 79, 78
1, 34560, Note_on_c, 1, 63, 78
1, 34560, Note_on_c, 1, 61, 64
1, 34737, Note_on_c, 1, 61, 0
1, 34752, Note_on_c, 0, 79, 0
1, 34752, Note_on_c, 0, 80, 78
1, 34752, Note_on_c, 1, 60, 64
1, 34825, Note_on_c, 1, 63, 0
1, 34841, Note_on_c, 0, 80, 0
1, 34841, Note_on_c, 1, 60, 0
1, 34848, Note_on_c, 0, 75, 78
1, 34848, Note_on_c, 1, 69, 64
1, 34848, Note_on_c, 1, 66, 64
1, 35128, Note_on_c, 0, 75, 0
1, 35128, Note_on_c, 1, 69, 0
1, 35128, Note_on_c, 1, 66, 0
1, 35136, Note_on_c, 0, 78, 78
1, 35136, Note_on_c, 1, 63, 78
1, 35136, Note_on_c, 1, 60, 78
1, 35225, Note_on_c, 1, 63, 0
1, 35225, Note_on_c, 1, 60, 0
1, 35232, Note_on_c, 1, 51, 78
1, 35232, Note_on_c, 1, 48, 78
1, 35277, Note_on_c, 0, 78, 0
1, 35280, Note_on_c, 0, 81, 78
1, 35303, Note_on_c, 0, 81, 0
1, 35304, Note_on_c, 0, 80, 78
1, 35321, Note_on_c, 1, 51, 0
1, 35321, Note_on_c, 1, 48, 0
1, 35327, Note_on_c, 0, 80, 0
1, 35328, Note_on_c, 0, 78, 78
1, 35351, Note_on_c, 0, 78, 0
1, 35352, Note_on_c, 0, 76, 78
1, 35375, Note_on_c, 0, 76, 0
1, 35376, Note_on_c, 0, 75, 78
1, 35399, Note_on_c, 0, 75, 0
1, 35400, Note_on_c, 0, 78, 78
1, 35423, Note_on_c, 0, 78, 0
1, 35424, Note_on_c, 0, 76, 78
1, 35424, Note_on_c, 1, 52, 78
1, 35424, Note_on_c, 1, 49, 78
1, 35513, Note_on_c, 0, 76, 0
1, 35513, Note_on_c, 1, 52, 0
1, 35513, Note_on_c, 1, 49, 0
1, 35520, Note_on_c, 0, 73, 78
1, 35609, Note_on_c, 0, 73, 0
1, 35616, Note_on_c, 0, 73, 78
1, 35616, Note_on_c, 1, 61, 78
1, 35616, Note_on_c, 1, 57, 78
1, 35705, Note_on_c, 0, 73, 0
1, 35705, Note_on_c, 1, 61, 0
1, 35705, Note_on_c, 1, 57, 0
1, 35712, Note_on_c, 0, 80, 78
1, 35712, Note_on_c, 1, 63, 78
1, 35712, Note_on_c, 1, 54, 78
1, 35730, Note_on_c, 0, 80, 0
1, 35730, Note_on_c, 0, 78, 78
1, 35748, Note_on_c, 0, 78, 0
1, 35748, Note_on_c, 0, 77, 78
1, 35766, Note_on_c, 0, 77, 0
1, 35766, Note_on_c, 0, 78, 78
1, 35889, Note_on_c, 1, 63, 0
1, 35889, Note_on_c, 1, 54, 0
1, 35904, Note_on_c, 0, 78, 0
1, 35904, Note_on_c, 0, 80, 78
1, 35904, Note_on_c, 1, 60, 78
1, 35904, Note_on_c, 1, 56, 78
1, 35943, Note_on_c, 0, 80, 0
1, 35993, Note_on_c, 1, 60, 0
1, 35993, Note_on_c, 1, 56, 0
1, 36000, Note_on_c, 0, 73, 78
1, 36000, Note_on_c, 1, 61, 78
1, 36000, Note_on_c, 1, 49, 78
1, 36133, Note_on_c, 0, 73, 0
1, 36133, Note_on_c, 1, 61, 0
1, 36133, Note_on_c, 1, 49, 0
1, 36288, Note_on_c, 0, 76, 78
1, 36288, Note_on_c, 1, 68, 78
1, 36288, Note_on_c, 1, 64, 78
1, 36377, Note_on_c, 1, 68, 0
1, 36377, Note_on_c, 1, 64, 0
1, 36384, Note_on_c, 1, 56, 78
1, 36384, Note_on_c, 1, 52, 78
1, 36407, Note_on_c, 0, 76, 0
1, 36408, Note_on_c, 0, 78, 78
1, 36431, Note_on_c, 0, 78, 0
1, 36432, Note_on_c, 0, 76, 78
1, 36455, Note_on_c, 0, 76, 0
1, 36456, Note_on_c, 0, 75, 78
1, 36473, Note_on_c, 1, 56, 0
1, 36473, Note_on_c, 1, 52, 0
1, 36479, Note_on_c, 0, 75, 0
1, 36480, Note_on_c, 0, 76, 78
1, 36503, Note_on_c, 0, 76, 0
1, 36504, Note_on_c, 0, 78, 78
1, 36527, Note_on_c, 0, 78, 0
1, 36528, Note_on_c, 0, 80, 78
1, 36551, Note_on_c, 0, 80, 0
1, 36552, Note_on_c, 0, 81, 78
1, 36575, Note_on_c, 0, 81, 0
1, 36576, Note_on_c, 0, 83, 94
1, 36576, Note_on_c, 1, 62, 78
1, 36576, Note_on_c, 1, 56, 78
1, 36615, Note_on_c, 0, 83, 0
1, 36672, Note_on_c, 0, 83, 78
1, 36711, Note_on_c, 0, 83, 0
1, 36768, Note_on_c, 0, 83, 78
1, 36807, Note_on_c, 0, 83, 0
1, 36864, Note_on_c, 0, 76, 78
1, 36864, Note_on_c, 1, 56, 0
1, 36864, Note_on_c, 1, 57, 78
1, 36953, Note_on_c, 1, 62, 0
1, 36960, Note_on_c, 1, 61, 78
1, 36983, Note_on_c, 0, 76, 0
1, 36984, Note_on_c, 0, 78, 80
1, 37007, Note_on_c, 0, 78, 0
1, 37008, Note_on_c, 0, 76, 80
1, 37031, Note_on_c, 0, 76, 0
1, 37032, Note_on_c, 0, 75, 80
1, 37055, Note_on_c, 0, 75, 0
1, 37056, Note_on_c, 0, 76, 81
1, 37079, Note_on_c, 0, 76, 0
1, 37080, Note_on_c, 0, 78, 81
1, 37103, Note_on_c, 0, 78, 0
1, 37104, Note_on_c, 0, 80, 82
1, 37127, Note_on_c, 0, 80, 0
1, 37128, Note_on_c, 0, 81, 82
1, 37129, Note_on_c, 1, 57, 0
1, 37137, Note_on_c, 1, 61, 0
1, 37140, Note_on_c, 0, 81, 0
1, 37140, Note_on_c, 0, 83, 82
1, 37152, Note_on_c, 0, 83, 0
1, 37152, Note_on_c, 0, 85, 99
1, 37191, Note_on_c, 0, 85, 0
1, 37248, Note_on_c, 0, 85, 83
1, 37248, Note_on_c, 1, 57, 78
1, 37248, Note_on_c, 1, 54, 78
1, 37287, Note_on_c, 0, 85, 0
1, 37337, Note_on_c, 1, 57, 0
1, 37337, Note_on_c, 1, 54, 0
1, 37344, Note_on_c, 0, 85, 83
1, 37344, Note_on_c, 1, 56, 80
1, 37344, Note_on_c, 1, 52, 80
1, 37383, Note_on_c, 0, 85, 0
1, 37433, Note_on_c, 1, 56, 0
1, 37433, Note_on_c, 1, 52, 0
1, 37440, Note_on_c, 0, 83, 83
1, 37440, Note_on_c, 1, 54, 83
1, 37440, Note_on_c, 1, 51, 83
1, 37529, Note_on_c, 1, 54, 0
1, 37529, Note_on_c, 1, 51, 0
1, 37536, Note_on_c, 1, 66, 83
1, 37536, Note_on_c, 1, 63, 83
1, 37559, Note_on_c, 0, 83, 0
1, 37560, Note_on_c, 0, 85, 83
1, 37583, Note_on_c, 0, 85, 0
1, 37584, Note_on_c, 0, 83, 83
1, 37607, Note_on_c, 0, 83, 0
1, 37608, Note_on_c, 0, 82, 83
1, 37625, Note_on_c, 1, 66, 0
1, 37625, Note_on_c, 1, 63, 0
1, 37631, Note_on_c, 0, 82, 0
1, 37632, Note_on_c, 0, 83, 83
1, 37655, Note_on_c, 0, 83, 0
1, 37656, Note_on_c, 0, 85, 83
1, 37679, Note_on_c, 0, 85, 0
1, 37680, Note_on_c, 0, 83, 83
1, 37703, Note_on_c, 0, 83, 0
1, 37704, Note_on_c, 0, 81, 83
1, 37727, Note_on_c, 0, 81, 0
1, 37728, Note_on_c, 0, 80, 83
1, 37728, Note_on_c, 1, 56, 83
1, 37728, Note_on_c, 1, 52, 83
1, 37773, Note_on_c, 0, 80, 0
1, 37773, Note_on_c, 1, 56, 0
1, 37773, Note_on_c, 1, 52, 0
1, 37824, Note_on_c, 0, 78, 81
1, 37824, Note_on_c, 1, 57, 81
1, 37824, Note_on_c, 1, 54, 81
1, 37869, Note_on_c, 0, 78, 0
1, 37869, Note_on_c, 1, 57, 0
1, 37869, Note_on_c, 1, 54, 0
1, 37920, Note_on_c, 0, 76, 79
1, 37920, Note_on_c, 1, 59, 79
1, 37920, Note_on_c, 1, 56, 79
1, 37965, Note_on_c, 0, 76, 0
1, 37965, Note_on_c, 1, 59, 0
1, 37965, Note_on_c, 1, 56, 0
1, 38016, Note_on_c, 0, 83, 71
1, 38016, Note_on_c, 1, 54, 80
1, 38016, Note_on_c, 1, 51, 80
1, 38112, Note_on_c, 1, 54, 0
1, 38112, Note_on_c, 1, 51, 0
1, 38112, Note_on_c, 1, 66, 64
1, 38112, Note_on_c, 1, 63, 64
1, 38135, Note_on_c, 0, 83, 0
1, 38136, Note_on_c, 0, 85, 71
1, 38159, Note_on_c, 0, 85, 0
1, 38160, Note_on_c, 0, 83, 71
1, 38183, Note_on_c, 0, 83, 0
1, 38184, Note_on_c, 0, 82, 71
1, 38201, Note_on_c, 1, 66, 0
1, 38201, Note_on_c, 1, 63, 0
1, 38207, Note_on_c, 0, 82, 0
1, 38208, Note_on_c, 0, 83, 71
1, 38231, Note_on_c, 0, 83, 0
1, 38232, Note_on_c, 0, 85, 71
1, 38255, Note_on_c, 0, 85, 0
1, 38256, Note_on_c, 0, 83, 71
1, 38279, Note_on_c, 0, 83, 0
1, 38280, Note_on_c, 0, 81, 71
1, 38303, Note_on_c, 0, 81, 0
1, 38304, Note_on_c, 0, 80, 71
1, 38304, Note_on_c, 1, 56, 64
1, 38304, Note_on_c, 1, 52, 64
1, 38327, Note_on_c, 0, 80, 0
1, 38328, Note_on_c, 0, 83, 71
1, 38349, Note_on_c, 1, 56, 0
1, 38349, Note_on_c, 1, 52, 0
1, 38351, Note_on_c, 0, 83, 0
1, 38352, Note_on_c, 0, 81, 71
1, 38375, Note_on_c, 0, 81, 0
1, 38376, Note_on_c, 0, 80, 71
1, 38399, Note_on_c, 0, 80, 0
1, 38400, Note_on_c, 0, 78, 71
1, 38400, Note_on_c, 1, 57, 64
1, 38400, Note_on_c, 1, 54, 64
1, 38423, Note_on_c, 0, 78, 0
1, 38424, Note_on_c, 0, 81, 71
1, 38445, Note_on_c, 1, 57, 0
1, 38445, Note_on_c, 1, 54, 0
1, 38447, Note_on_c, 0, 81, 0
1, 38448, Note_on_c, 0, 80, 71
1, 38471, Note_on_c, 0, 80, 0
1, 38472, Note_on_c, 0, 78, 71
1, 38495, Note_on_c, 0, 78, 0
1, 38496, Note_on_c, 0, 76, 71
1, 38496, Note_on_c, 1, 59, 64
1, 38496, Note_on_c, 1, 56, 64
1, 38519, Note_on_c, 0, 76, 0
1, 38520, Note_on_c, 0, 80, 71
1, 38541, Note_on_c, 1, 59, 0
1, 38541, Note_on_c, 1, 56, 0
1, 38543, Note_on_c, 0, 80, 0
1, 38544, Note_on_c, 0, 78, 71
1, 38567, Note_on_c, 0, 78, 0
1, 38568, Note_on_c, 0, 76, 71
1, 38591, Note_on_c, 0, 76, 0
1, 38592, Note_on_c, 0, 75, 71
1, 38592, Note_on_c, 1, 57, 64
1, 38681, Note_on_c, 0, 75, 0
1, 38688, Note_on_c, 0, 73, 71
1, 38777, Note_on_c, 0, 73, 0
1, 38784, Note_on_c, 0, 85, 71
1, 38784, Note_on_c, 1, 69, 64
1, 38857, Note_on_c, 1, 57, 0
1, 38873, Note_on_c, 0, 85, 0
1, 38873, Note_on_c, 1, 69, 0
1, 38880, Note_on_c, 0, 76, 71
1, 38880, Note_on_c, 1, 68, 64
1, 38880, Note_on_c, 1, 59, 64
1, 39057, Note_on_c, 0, 76, 0
1, 39057, Note_on_c, 1, 68, 0
1, 39072, Note_on_c, 0, 80, 71
1, 39072, Note_on_c, 0, 75, 58
1, 39072, Note_on_c, 1, 69, 64
1, 39095, Note_on_c, 0, 80, 0
1, 39096, Note_on_c, 0, 78, 71
1, 39141, Note_on_c, 0, 78, 0
1, 39144, Note_on_c, 0, 76, 71
1, 39145, Note_on_c, 1, 59, 0
1, 39161, Note_on_c, 0, 75, 0
1, 39161, Note_on_c, 1, 69, 0
1, 39167, Note_on_c, 0, 76, 0
1, 39168, Note_on_c, 0, 76, 71
1, 39168, Note_on_c, 1, 68, 64
1, 39168, Note_on_c, 1, 64, 64
1, 39257, Note_on_c, 0, 76, 0
1, 39257, Note_on_c, 1, 68, 0
1, 39257, Note_on_c, 1, 64, 0
1, 39360, Note_on_c, 0, 84, 71
1, 39383, Note_on_c, 0, 84, 0
1, 39384, Note_on_c, 0, 85, 71
1, 39407, Note_on_c, 0, 85, 0
1, 39408, Note_on_c, 0, 84, 71
1, 39431, Note_on_c, 0, 84, 0
1, 39432, Note_on_c, 0, 85, 71
1, 39455, Note_on_c, 0, 85, 0
1, 39456, Note_on_c, 0, 76, 71
1, 39456, Note_on_c, 1, 68, 64
1, 39456, Note_on_c, 1, 59, 64
1, 39633, Note_on_c, 0, 76, 0
1, 39633, Note_on_c, 1, 68, 0
1, 39633, Note_on_c, 1, 59, 0
1, 39648, Note_on_c, 0, 80, 83
1, 39648, Note_on_c, 0, 75, 83
1, 39648, Note_on_c, 1, 69, 83
1, 39648, Note_on_c, 1, 66, 83
1, 39648, Note_on_c, 1, 63, 83
1, 39648, Note_on_c, 1, 60, 83
1, 39671, Note_on_c, 0, 80, 0
1, 39672, Note_on_c, 0, 78, 82
1, 39717, Note_on_c, 0, 78, 0
1, 39720, Note_on_c, 0, 76, 82
1, 39742, Note_on_c, 0, 75, 0
1, 39742, Note_on_c, 1, 69, 0
1, 39742, Note_on_c, 1, 66, 0
1, 39742, Note_on_c, 1, 63, 0
1, 39742, Note_on_c, 1, 60, 0
1, 39743, Note_on_c, 0, 76, 0
1, 39744, Note_on_c, 0, 76, 81
1, 39744, Note_on_c, 0, 73, 81
1, 39744, Note_on_c, 1, 68, 81
1, 39744, Note_on_c, 1, 64, 81
1, 39744, Note_on_c, 1, 61, 81
1, 39833, Note_on_c, 0, 76, 0
1, 39833, Note_on_c, 0, 73, 0
1, 39833, Note_on_c, 1, 68, 0
1, 39833, Note_on_c, 1, 64, 0
1, 39833, Note_on_c, 1, 61, 0
1, 39840, Note_on_c, 0, 75, 80
1, 39840, Note_on_c, 0, 72, 80
1, 39840, Note_on_c, 1, 66, 80
1, 39840, Note_on_c, 1, 63, 80
1, 39929, Note_on_c, 0, 75, 0
1, 39929, Note_on_c, 0, 72, 0
1, 39929, Note_on_c, 1, 66, 0
1, 39929, Note_on_c, 1, 63, 0
1, 39936, Note_on_c, 0, 73, 79
1, 39936, Note_on_c, 1, 68, 79
1, 39936, Note_on_c, 1, 64, 79
1, 40025, Note_on_c, 0, 73, 0
1, 40025, Note_on_c, 1, 68, 0
1, 40025, Note_on_c, 1, 64, 0
1, 40032, Note_on_c, 0, 76, 78
1, 40032, Note_on_c, 1, 69, 78
1, 40032, Note_on_c, 1, 66, 78
1, 40044, Note_on_c, 0, 76, 0
1, 40044, Note_on_c, 0, 75, 78
1, 40056, Note_on_c, 0, 75, 0
1, 40056, Note_on_c, 0, 73, 78
1, 40068, Note_on_c, 0, 73, 0
1, 40068, Note_on_c, 0, 75, 78
1, 40121, Note_on_c, 0, 75, 0
1, 40128, Note_on_c, 0, 78, 77
1, 40217, Note_on_c, 0, 78, 0
1, 40224, Note_on_c, 0, 81, 75
1, 40297, Note_on_c, 1, 69, 0
1, 40297, Note_on_c, 1, 66, 0
1, 40313, Note_on_c, 0, 81, 0
1, 40320, Note_on_c, 0, 73, 74
1, 40320, Note_on_c, 1, 64, 74
1, 40320, Note_on_c, 1, 56, 64
1, 40497, Note_on_c, 0, 73, 0
1, 40497, Note_on_c, 1, 64, 0
1, 40512, Note_on_c, 0, 72, 72
1, 40512, Note_on_c, 1, 63, 72
1, 40585, Note_on_c, 1, 56, 0
1, 40601, Note_on_c, 0, 72, 0
1, 40601, Note_on_c, 1, 63, 0
1, 40608, Note_on_c, 0, 73, 78
1, 40608, Note_on_c, 1, 64, 78
1, 40608, Note_on_c, 1, 61, 78
1, 40697, Note_on_c, 1, 64, 0
1, 40697, Note_on_c, 1, 61, 0
1, 40704, Note_on_c, 1, 52, 78
1, 40704, Note_on_c, 1, 49, 78
1, 40727, Note_on_c, 0, 73, 0
1, 40728, Note_on_c, 0, 75, 78
1, 40751, Note_on_c, 0, 75, 0
1, 40752, Note_on_c, 0, 73, 78
1, 40775, Note_on_c, 0, 73, 0
1, 40776, Note_on_c, 0, 72, 78
1, 40793, Note_on_c, 1, 52, 0
1, 40793, Note_on_c, 1, 49, 0
1, 40799, Note_on_c, 0, 72, 0
1, 40800, Note_on_c, 0, 73, 78
1, 40823, Note_on_c, 0, 73, 0
1, 40824, Note_on_c, 0, 75, 78
1, 40847, Note_on_c, 0, 75, 0
1, 40848, Note_on_c, 0, 76, 78
1, 40871, Note_on_c, 0, 76, 0
1, 40872, Note_on_c, 0, 78, 78
1, 40895, Note_on_c, 0, 78, 0
1, 40896, Note_on_c, 0, 80, 94
1, 40896, Note_on_c, 1, 64, 78
1, 40896, Note_on_c, 1, 61, 78
1, 40935, Note_on_c, 0, 80, 0
1, 40985, Note_on_c, 1, 64, 0
1, 40985, Note_on_c, 1, 61, 0
1, 40992, Note_on_c, 0, 80, 78
1, 41031, Note_on_c, 0, 80, 0
1, 41088, Note_on_c, 0, 80, 78
1, 41127, Note_on_c, 0, 80, 0
1, 41184, Note_on_c, 0, 79, 78
1, 41184, Note_on_c, 1, 63, 78
1, 41184, Note_on_c, 1, 61, 64
1, 41361, Note_on_c, 1, 61, 0
1, 41376, Note_on_c, 0, 79, 0
1, 41376, Note_on_c, 0, 80, 78
1, 41376, Note_on_c, 1, 60, 64
1, 41449, Note_on_c, 1, 63, 0
1, 41465, Note_on_c, 0, 80, 0
1, 41465, Note_on_c, 1, 60, 0
1, 41472, Note_on_c, 0, 75, 78
1, 41472, Note_on_c, 1, 69, 64
1, 41472, Note_on_c, 1, 66, 64
1, 41752, Note_on_c, 0, 75, 0
1, 41752, Note_on_c, 1, 69, 0
1, 41752, Note_on_c, 1, 66, 0
1, 41760, Note_on_c, 0, 78, 78
1, 41760, Note_on_c, 1, 63, 78
1, 41760, Note_on_c, 1, 60, 78
1, 41849, Note_on_c, 1, 63, 0
1, 41849, Note_on_c, 1, 60, 0
1, 41856, Note_on_c, 1, 51, 78
1, 41856, Note_on_c, 1, 48, 78
1, 41901, Note_on_c, 0, 78, 0
1, 41904, Note_on_c, 0, 81, 78
1, 41927, Note_on_c, 0, 81, 0
1, 41928, Note_on_c, 0, 80, 78
1, 41945, Note_on_c, 1, 51, 0
1, 41945, Note_on_c, 1, 48, 0
1, 41951, Note_on_c, 0, 80, 0
1, 41952, Note_on_c, 0, 78, 78
1, 41975, Note_on_c, 0, 78, 0
1, 41976, Note_on_c, 0, 76, 78
1, 41999, Note_on_c, 0, 76, 0
1, 42000, Note_on_c, 0, 75, 78
1, 42023, Note_on_c, 0, 75, 0
1, 42024, Note_on_c, 0, 78, 78
1, 42047, Note_on_c, 0, 78, 0
1, 42048, Note_on_c, 0, 76, 78
1, 42048, Note_on_c, 1, 52, 78
1, 42048, Note_on_c, 1, 49, 78
1, 42137, Note_on_c, 0, 76, 0
1, 42137, Note_on_c, 1, 52, 0
1, 42137, Note_on_c, 1, 49, 0
1, 42144, Note_on_c, 0, 73, 78
1, 42233, Note_on_c, 0, 73, 0
1, 42240, Note_on_c, 0, 73, 78
1, 42240, Note_on_c, 1, 61, 78
1, 42240, Note_on_c, 1, 57, 78
1, 42329, Note_on_c, 0, 73, 0
1, 42329, Note_on_c, 1, 61, 0
1, 42329, Note_on_c, 1, 57, 0
1, 42336, Note_on_c, 0, 80, 78
1, 42336, Note_on_c, 1, 63, 78
1, 42336, Note_on_c, 1, 54, 78
1, 42354, Note_on_c, 0, 80, 0
1, 42354, Note_on_c, 0, 78, 78
1, 42372, Note_on_c, 0, 78, 0
1, 42372, Note_on_c, 0, 77, 78
1, 42390, Note_on_c, 0, 77, 0
1, 42390, Note_on_c, 0, 78, 78
1, 42513, Note_on_c, 1, 63, 0
1, 42513, Note_on_c, 1, 54, 0
1, 42528, Note_on_c, 0, 78, 0
1, 42528, Note_on_c, 0, 80, 78
1, 42528, Note_on_c, 1, 60, 78
1, 42528, Note_on_c, 1, 56, 78
1, 42617, Note_on_c, 0, 80, 0
1, 42617, Note_on_c, 1, 60, 0
1, 42617, Note_on_c, 1, 56, 0
1, 42624, Note_on_c, 0, 73, 78
1, 42624, Note_on_c, 1, 61, 78
1, 42624, Note_on_c, 1, 49, 78
1, 42757, Note_on_c, 0, 73, 0
1, 42757, Note_on_c, 1, 61, 0
1, 42757, Note_on_c, 1, 49, 0
1, 42912, Note_on_c, 0, 76, 78
1, 42912, Note_on_c, 1, 68, 78
1, 42912, Note_on_c, 1, 64, 78
1, 43001, Note_on_c, 1, 68, 0
1, 43001, Note_on_c, 1, 64, 0
1, 43008, Note_on_c, 1, 56, 78
1, 43008, Note_on_c, 1, 52, 78
1, 43031, Note_on_c, 0, 76, 0
1, 43032, Note_on_c, 0, 78, 78
1, 43055, Note_on_c, 0, 78, 0
1, 43056, Note_on_c, 0, 76, 78
1, 43079, Note_on_c, 0, 76, 0
1, 43080, Note_on_c, 0, 75, 78
1, 43097, Note_on_c, 1, 56, 0
1, 43097, Note_on_c, 1, 52, 0
1, 43103, Note_on_c, 0, 75, 0
1, 43104, Note_on_c, 0, 76, 78
1, 43127, Note_on_c, 0, 76, 0
1, 43128, Note_on_c, 0, 78, 78
1, 43151, Note_on_c, 0, 78, 0
1, 43152, Note_on_c, 0, 80, 78
1, 43175, Note_on_c, 0, 80, 0
1, 43176, Note_on_c, 0, 81, 78
1, 43199, Note_on_c, 0, 81, 0
1, 43200, Note_on_c, 0, 83, 94
1, 43200, Note_on_c, 1, 62, 78
1, 43200, Note_on_c, 1, 56, 78
1, 43239, Note_on_c, 0, 83, 0
1, 43296, Note_on_c, 0, 83, 78
1, 43335, Note_on_c, 0, 83, 0
1, 43392, Note_on_c, 0, 83, 78
1, 43431, Note_on_c, 0, 83, 0
1, 43488, Note_on_c, 0, 76, 78
1, 43488, Note_on_c, 1, 56, 0
1, 43488, Note_on_c, 1, 57, 78
1, 43577, Note_on_c, 1, 62, 0
1, 43584, Note_on_c, 1, 61, 78
1, 43607, Note_on_c, 0, 76, 0
1, 43608, Note_on_c, 0, 78, 80
1, 43631, Note_on_c, 0, 78, 0
1, 43632, Note_on_c, 0, 76, 80
1, 43655, Note_on_c, 0, 76, 0
1, 43656, Note_on_c, 0, 75, 80
1, 43679, Note_on_c, 0, 75, 0
1, 43680, Note_on_c, 0, 76, 81
1, 43703, Note_on_c, 0, 76, 0
1, 43704, Note_on_c, 0, 78, 81
1, 43727, Note_on_c, 0, 78, 0
1, 43728, Note_on_c, 0, 80, 82
1, 43751, Note_on_c, 0, 80, 0
1, 43752, Note_on_c, 0, 81, 82
1, 43753, Note_on_c, 1, 57, 0
1, 43761, Note_on_c, 1, 61, 0
1, 43764, Note_on_c, 0, 81, 0
1, 43764, Note_on_c, 0, 83, 82
1, 43776, Note_on_c, 0, 83, 0
1, 43776, Note_on_c, 0, 85, 99
1, 43815, Note_on_c, 0, 85, 0
1, 43872, Note_on_c, 0, 85, 83
1, 43872, Note_on_c, 1, 57, 78
1, 43872, Note_on_c, 1, 54, 78
1, 43911, Note_on_c, 0, 85, 0
1, 43961, Note_on_c, 1, 57, 0
1, 43961, Note_on_c, 1, 54, 0
1, 43968, Note_on_c, 0, 85, 83
1, 43968, Note_on_c, 1, 56, 80
1, 43968, Note_on_c, 1, 52, 80
1, 44007, Note_on_c, 0, 85, 0
1, 44057, Note_on_c, 1, 56, 0
1, 44057, Note_on_c, 1, 52, 0
1, 44064, Note_on_c, 0, 83, 83
1, 44064, Note_on_c, 1, 54, 83
1, 44064, Note_on_c, 1, 51, 83
1, 44153, Note_on_c, 1, 54, 0
1, 44153, Note_on_c, 1, 51, 0
1, 44160, Note_on_c, 1, 66, 83
1, 44160, Note_on_c, 1, 63, 83
1, 44183, Note_on_c, 0, 83, 0
1, 44184, Note_on_c, 0, 85, 83
1, 44207, Note_on_c, 0, 85, 0
1, 44208, Note_on_c, 0, 83, 83
1, 44231, Note_on_c, 0, 83, 0
1, 44232, Note_on_c, 0, 82, 83
1, 44249, Note_on_c, 1, 66, 0
1, 44249, Note_on_c, 1, 63, 0
1, 44255, Note_on_c, 0, 82, 0
1, 44256, Note_on_c, 0, 83, 83
1, 44279, Note_on_c, 0, 83, 0
1, 44280, Note_on_c, 0, 85, 83
1, 44303, Note_on_c, 0, 85, 0
1, 44304, Note_on_c, 0, 83, 83
1, 44327, Note_on_c, 0, 83, 0
1, 44328, Note_on_c, 0, 81, 83
1, 44351, Note_on_c, 0, 81, 0
1, 44352, Note_on_c, 0, 80, 83
1, 44352, Note_on_c, 1, 56, 83
1, 44352, Note_on_c, 1, 52, 83
1, 44397, Note_on_c, 0, 80, 0
1, 44397, Note_on_c, 1, 56, 0
1, 44397, Note_on_c, 1, 52, 0
1, 44448, Note_on_c, 0, 78, 81
1, 44448, Note_on_c, 1, 57, 81
1, 44448, Note_on_c, 1, 54, 81
1, 44493, Note_on_c, 0, 78, 0
1, 44493, Note_on_c, 1, 57, 0
1, 44493, Note_on_c, 1, 54, 0
1, 44544, Note_on_c, 0, 76, 79
1, 44544, Note_on_c, 1, 59, 79
1, 44544, Note_on_c, 1, 56, 79
1, 44589, Note_on_c, 0, 76, 0
1, 44589, Note_on_c, 1, 59, 0
1, 44589, Note_on_c, 1, 56, 0
1, 44640, Note_on_c, 0, 83, 71
1, 44640, Note_on_c, 1, 54, 80
1, 44640, Note_on_c, 1, 51, 80
1, 44736, Note_on_c, 1, 54, 0
1, 44736, Note_on_c, 1, 51, 0
1, 44736, Note_on_c, 1, 66, 64
1, 44736, Note_on_c, 1, 63, 64
1, 44759, Note_on_c, 0, 83, 0
1, 44760, Note_on_c, 0, 85, 71
1, 44783, Note_on_c, 0, 85, 0
1, 44784, Note_on_c, 0, 83, 71
1, 44807, Note_on_c, 0, 83, 0
1, 44808, Note_on_c, 0, 82, 71
1, 44825, Note_on_c, 1, 66, 0
1, 44825, Note_on_c, 1, 63, 0
1, 44831, Note_on_c, 0, 82, 0
1, 44832, Note_on_c, 0, 83, 71
1, 44855, Note_on_c, 0, 83, 0
1, 44856, Note_on_c, 0, 85, 71
1, 44879, Note_on_c, 0, 85, 0
1, 44880, Note_on_c, 0, 83, 71
1, 44903, Note_on_c, 0, 83, 0
1, 44904, Note_on_c, 0, 81, 71
1, 44927, Note_on_c, 0, 81, 0
1, 44928, Note_on_c, 0, 80, 71
1, 44928, Note_on_c, 1, 56, 64
1, 44928, Note_on_c, 1, 52, 64
1, 44951, Note_on_c, 0, 80, 0
1, 44952, Note_on_c, 0, 83, 71
1, 44973, Note_on_c, 1, 56, 0
1, 44973, Note_on_c, 1, 52, 0
1, 44975, Note_on_c, 0, 83, 0
1, 44976, Note_on_c, 0, 81, 71
1, 44999, Note_on_c, 0, 81, 0
1, 45000, Note_on_c, 0, 80, 71
1, 45023, Note_on_c, 0, 80, 0
1, 45024, Note_on_c, 0, 78, 71
1, 45024, Note_on_c, 1, 57, 64
1, 45024, Note_on_c, 1, 54, 64
1, 45047, Note_on_c, 0, 78, 0
1, 45048, Note_on_c, 0, 81, 71
1, 45069, Note_on_c, 1, 57, 0
1, 45069, Note_on_c, 1, 54, 0
1, 45071, Note_on_c, 0, 81, 0
1, 45072, Note_on_c, 0, 80, 71
1, 45095, Note_on_c, 0, 80, 0
1, 45096, Note_on_c, 0, 78, 71
1, 45119, Note_on_c, 0, 78, 0
1, 45120, Note_on_c, 0, 76, 71
1, 45120, Note_on_c, 1, 59, 64
1, 45120, Note_on_c, 1, 56, 64
1, 45143, Note_on_c, 0, 76, 0
1, 45144, Note_on_c, 0, 80, 71
1, 45165, Note_on_c, 1, 59, 0
1, 45165, Note_on_c, 1, 56, 0
1, 45167, Note_on_c, 0, 80, 0
1, 45168, Note_on_c, 0, 78, 71
1, 45191, Note_on_c, 0, 78, 0
1, 45192, Note_on_c, 0, 76, 71
1, 45215, Note_on_c, 0, 76, 0
1, 45216, Note_on_c, 0, 75, 71
1, 45216, Note_on_c, 1, 57, 64
1, 45305, Note_on_c, 0, 75, 0
1, 45312, Note_on_c, 0, 73, 71
1, 45401, Note_on_c, 0, 73, 0
1, 45408, Note_on_c, 0, 85, 71
1, 45408, Note_on_c, 1, 69, 64
1, 45481, Note_on_c, 1, 57, 0
1, 45497, Note_on_c, 0, 85, 0
1, 45497, Note_on_c, 1, 69, 0
1, 45504, Note_on_c, 0, 76, 71
1, 45504, Note_on_c, 1, 68, 64
1, 45504, Note_on_c, 1, 59, 64
1, 45681, Note_on_c, 0, 76, 0
1, 45681, Note_on_c, 1, 68, 0
1, 45696, Note_on_c, 0, 80, 71
1, 45696, Note_on_c, 0, 75, 58
1, 45696, Note_on_c, 1, 69, 64
1, 45719, Note_on_c, 0, 80, 0
1, 45720, Note_on_c, 0, 78, 71
1, 45765, Note_on_c, 0, 78, 0
1, 45768, Note_on_c, 0, 76, 71
1, 45769, Note_on_c, 1, 59, 0
1, 45785, Note_on_c, 0, 75, 0
1, 45785, Note_on_c, 1, 69, 0
1, 45791, Note_on_c, 0, 76, 0
1, 45792, Note_on_c, 0, 76, 71
1, 45792, Note_on_c, 1, 68, 64
1, 45792, Note_on_c, 1, 64, 64
1, 45881, Note_on_c, 0, 76, 0
1, 45881, Note_on_c, 1, 68, 0
1, 45881, Note_on_c, 1, 64, 0
1, 45984, Note_on_c, 0, 84, 71
1, 46007, Note_on_c, 0, 84, 0
1, 46008, Note_on_c, 0, 85, 71
1, 46031, Note_on_c, 0, 85, 0
1, 46032, Note_on_c, 0, 84, 71
1, 46055, Note_on_c, 0, 84, 0
1, 46056, Note_on_c, 0, 85, 71
1, 46079, Note_on_c, 0, 85, 0
1, 46080, Note_on_c, 0, 76, 71
1, 46080, Note_on_c, 1, 68, 64
1, 46080, Note_on_c, 1, 59, 64
1, 46257, Note_on_c, 0, 76, 0
1, 46257, Note_on_c, 1, 68, 0
1, 46257, Note_on_c, 1, 59, 0
1, 46272, Note_on_c, 0, 80, 83
1, 46272, Note_on_c, 0, 75, 83
1, 46272, Note_on_c, 1, 69, 83
1, 46272, Note_on_c, 1, 66, 83
1, 46272, Note_on_c, 1, 63, 83
1, 46272, Note_on_c, 1, 60, 83
1, 46295, Note_on_c, 0, 80, 0
1, 46296, Note_on_c, 0, 78, 82
1, 46341, Note_on_c, 0, 78, 0
1, 46344, Note_on_c, 0, 76, 82
1, 46366, Note_on_c, 0, 75, 0
1, 46366, Note_on_c, 1, 69, 0
1, 46366, Note_on_c, 1, 66, 0
1, 46366, Note_on_c, 1, 63, 0
1, 46366, Note_on_c, 1, 60, 0
1, 46367, Note_on_c, 0, 76, 0
1, 46368, Note_on_c, 0, 76, 81
1, 46368, Note_on_c, 0, 73, 81
1, 46368, Note_on_c, 1, 68, 81
1, 46368, Note_on_c, 1, 64, 81
1, 46368, Note_on_c, 1, 61, 81
1, 46457, Note_on_c, 0, 76, 0
1, 46457, Note_on_c, 0, 73, 0
1, 46457, Note_on_c, 1, 68, 0
1, 46457, Note_on_c, 1, 64, 0
1, 46457, Note_on_c, 1, 61, 0
1, 46464, Note_on_c, 0, 75, 80
1, 46464, Note_on_c, 0, 72, 80
1, 46464, Note_on_c, 1, 66, 80
1, 46464, Note_on_c, 1, 63, 80
1, 46553, Note_on_c, 0, 75, 0
1, 46553, Note_on_c, 0, 72, 0
1, 46553, Note_on_c, 1, 66, 0
1, 46553, Note_on_c, 1, 63, 0
1, 46560, Note_on_c, 0, 73, 79
1, 46560, Note_on_c, 1, 68, 79
1, 46560, Note_on_c, 1, 64, 79
1, 46649, Note_on_c, 0, 73, 0
1, 46649, Note_on_c, 1, 68, 0
1, 46649, Note_on_c, 1, 64, 0
1, 46656, Note_on_c, 0, 76, 78
1, 46656, Note_on_c, 1, 69, 78
1, 46656, Note_on_c, 1, 66, 78
1, 46668, Note_on_c, 0, 76, 0
1, 46668, Note_on_c, 0, 75, 78
1, 46680, Note_on_c, 0, 75, 0
1, 46680, Note_on_c, 0, 73, 78
1, 46692, Note_on_c, 0, 73, 0
1, 46692, Note_on_c, 0, 75, 78
1, 46745, Note_on_c, 0, 75, 0
1, 46752, Note_on_c, 0, 78, 77
1, 46841, Note_on_c, 0, 78, 0
1, 46848, Note_on_c, 0, 81, 75
1, 46921, Note_on_c, 1, 69, 0
1, 46921, Note_on_c, 1, 66, 0
1, 46937, Note_on_c, 0, 81, 0
1, 46944, Note_on_c, 0, 73, 74
1, 46944, Note_on_c, 1, 64, 74
1, 46944, Note_on_c, 1, 56, 64
1, 47121, Note_on_c, 0, 73, 0
1, 47121, Note_on_c, 1, 64, 0
1, 47136, Note_on_c, 0, 72, 72
1, 47136, Note_on_c, 1, 63, 72
1, 47209, Note_on_c, 1, 56, 0
1, 47225, Note_on_c, 0, 72, 0
1, 47225, Note_on_c, 1, 63, 0
1, 47232, Note_on_c, 0, 73, 78
1, 47232, Note_on_c, 1, 64, 78
1, 47232, Note_on_c, 1, 61, 78
1, 47321, Note_on_c, 1, 64, 0
1, 47321, Note_on_c, 1, 61, 0
1, 47328, Note_on_c, 1, 52, 78
1, 47328, Note_on_c, 1, 49, 78
1, 47351, Note_on_c, 0, 73, 0
1, 47352, Note_on_c, 0, 75, 78
1, 47375, Note_on_c, 0, 75, 0
1, 47376, Note_on_c, 0, 73, 78
1, 47399, Note_on_c, 0, 73, 0
1, 47400, Note_on_c, 0, 72, 78
1, 47417, Note_on_c, 1, 52, 0
1, 47417, Note_on_c, 1, 49, 0
1, 47423, Note_on_c, 0, 72, 0
1, 47424, Note_on_c, 0, 73, 78
1, 47447, Note_on_c, 0, 73, 0
1, 47448, Note_on_c, 0, 75, 78
1, 47471, Note_on_c, 0, 75, 0
1, 47472, Note_on_c, 0, 76, 78
1, 47495, Note_on_c, 0, 76, 0
1, 47496, Note_on_c, 0, 78, 78
1, 47519, Note_on_c, 0, 78, 0
1, 47520, Note_on_c, 0, 80, 94
1, 47520, Note_on_c, 1, 64, 78
1, 47520, Note_on_c, 1, 61, 78
1, 47559, Note_on_c, 0, 80, 0
1, 47609, Note_on_c, 1, 64, 0
1, 47609, Note_on_c, 1, 61, 0
1, 47616, Note_on_c, 0, 80, 78
1, 47655, Note_on_c, 0, 80, 0
1, 47712, Note_on_c, 0, 80, 78
1, 47751, Note_on_c, 0, 80, 0
1, 47808, Note_on_c, 0, 79, 78
1, 47808, Note_on_c, 1, 63, 78
1, 47808, Note_on_c, 1, 61, 64
1, 47985, Note_on_c, 1, 61, 0
1, 48000, Note_on_c, 0, 79, 0
1, 48000, Note_on_c, 0, 80, 78
1, 48000, Note_on_c, 1, 60, 64
1, 48073, Note_on_c, 1, 63, 0
1, 48089, Note_on_c, 0, 80, 0
1, 48089, Note_on_c, 1, 60, 0
1, 48096, Note_on_c, 0, 75, 78
1, 48096, Note_on_c, 1, 69, 64
1, 48096, Note_on_c, 1, 66, 64
1, 48376, Note_on_c, 0, 75, 0
1, 48376, Note_on_c, 1, 69, 0
1, 48376, Note_on_c, 1, 66, 0
1, 48384, Note_on_c, 0, 78, 78
1, 48384, Note_on_c, 1, 63, 78
1, 48384, Note_on_c, 1, 60, 78
1, 48473, Note_on_c, 1, 63, 0
1, 48473, Note_on_c, 1, 60, 0
1, 48480, Note_on_c, 1, 51, 78
1, 48480, Note_on_c, 1, 48, 78
1, 48525, Note_on_c, 0, 78, 0
1, 48528, Note_on_c, 0, 81, 78
1, 48551, Note_on_c, 0, 81, 0
1, 48552, Note_on_c, 0, 80, 78
1, 48569, Note_on_c, 1, 51, 0
1, 48569, Note_on_c, 1, 48, 0
1, 48575, Note_on_c, 0, 80, 0
1, 48576, Note_on_c, 0, 78, 78
1, 48599, Note_on_c, 0, 78, 0
1, 48600, Note_on_c, 0, 76, 78
1, 48623, Note_on_c, 0, 76, 0
1, 48624, Note_on_c, 0, 75, 78
1, 48647, Note_on_c, 0, 75, 0
1, 48648, Note_on_c, 0, 78, 78
1, 48671, Note_on_c, 0, 78, 0
1, 48672, Note_on_c, 0, 76, 78
1, 48672, Note_on_c, 1, 52, 78
1, 48672, Note_on_c, 1, 49, 78
1, 48761, Note_on_c, 0, 76, 0
1, 48761, Note_on_c, 1, 52, 0
1, 48761, Note_on_c, 1, 49, 0
1, 48768, Note_on_c, 0, 73, 78
1, 48857, Note_on_c, 0, 73, 0
1, 48864, Note_on_c, 0, 73, 78
1, 48864, Note_on_c, 1, 61, 78
1, 48864, Note_on_c, 1, 57, 78
1, 48953, Note_on_c, 0, 73, 0
1, 48953, Note_on_c, 1, 61, 0
1, 48953, Note_on_c, 1, 57, 0
1, 48960, Note_on_c, 0, 80, 78
1, 48960, Note_on_c, 1, 63, 78
1, 48960, Note_on_c, 1, 54, 78
1, 48978, Note_on_c, 0, 80, 0
1, 48978, Note_on_c, 0, 78, 78
1, 48996, Note_on_c, 0, 78, 0
1, 48996, Note_on_c, 0, 77, 78
1, 49014, Note_on_c, 0, 77, 0
1, 49014, Note_on_c, 0, 78, 78
1, 49137, Note_on_c, 1, 63, 0
1, 49137, Note_on_c, 1, 54, 0
1, 49152, Note_on_c, 0, 78, 0
1, 49152, Note_on_c, 0, 80, 78
1, 49152, Note_on_c, 1, 60, 78
1, 49152, Note_on_c, 1, 56, 78
1, 49241, Note_on_c, 0, 80, 0
1, 49241, Note_on_c, 1, 60, 0
1, 49241, Note_on_c, 1, 56, 0
1, 49248, Note_on_c, 0, 73, 78
1, 49248, Note_on_c, 1, 61, 78
1, 49248, Note_on_c, 1, 49, 78
1, 49425, Note_on_c, 0, 73, 0
1, 49425, Note_on_c, 1, 61, 0
1, 49425, Note_on_c, 1, 49, 0
1, 49536, Note_on_c, 1, 49, 4
1, 49713, Note_on_c, 1, 49, 0
1, 49723, End_track
0, 0, End_of_file