0, 0, Header, 0, 1, 96
1, 0, Start_track
1, 0, Tempo, 428571
1, 0, Note_on_c, 1, 40, 65
1, 20, Note_on_c, 1, 40, 0
1, 48, Note_on_c, 1, 43, 65
1, 68, Note_on_c, 1, 43, 0
1, 96, Note_on_c, 1, 47, 65
1, 116, Note_on_c, 1, 47, 0
1, 144, Note_on_c, 1, 52, 65
1, 189, Note_on_c, 1, 52, 0
1, 192, Note_on_c, 0, 67, 65
1, 192, Note_on_c, 0, 59, 65
1, 240, Note_on_c, 0, 67, 0
1, 240, Note_on_c, 0, 59, 0
1, 240, Note_on_c, 0, 63, 65
1, 240, Note_on_c, 0, 57, 65
1, 285, Note_on_c, 0, 63, 0
1, 285, Note_on_c, 0, 57, 0
1, 288, Note_on_c, 0, 64, 65
1, 288, Note_on_c, 0, 55, 65
1, 288, Note_on_c, 1, 40, 65
1, 308, Note_on_c, 1, 40, 0
1, 333, Note_on_c, 0, 64, 0
1, 333, Note_on_c, 0, 55, 0
1, 336, Note_on_c, 1, 43, 65
1, 356, Note_on_c, 1, 43, 0
1, 384, Note_on_c, 1, 47, 65
1, 404, Note_on_c, 1, 47, 0
1, 432, Note_on_c, 1, 52, 65
1, 477, Note_on_c, 1, 52, 0
1, 480, Note_on_c, 0, 71, 65
1, 480, Note_on_c, 0, 67, 65
1, 528, Note_on_c, 0, 71, 0
1, 528, Note_on_c, 0, 67, 0
1, 528, Note_on_c, 0, 69, 65
1, 528, Note_on_c, 0, 66, 65
1, 573, Note_on_c, 0, 69, 0
1, 573, Note_on_c, 0, 66, 0
1, 576, Note_on_c, 0, 67, 65
1, 576, Note_on_c, 0, 64, 65
1, 576, Note_on_c, 1, 40, 65
1, 596, Note_on_c, 1, 40, 0
1, 621, Note_on_c, 0, 67, 0
1, 621, Note_on_c, 0, 64, 0
1, 624, Note_on_c, 1, 43, 65
1, 644, Note_on_c, 1, 43, 0
1, 672, Note_on_c, 1, 47, 65
1, 692, Note_on_c, 1, 47, 0
1, 720, Note_on_c, 1, 52, 65
1, 765, Note_on_c, 1, 52, 0
1, 768, Note_on_c, 0, 79, 65
1, 768, Note_on_c, 0, 71, 65
1, 816, Note_on_c, 0, 79, 0
1, 816, Note_on_c, 0, 71, 0
1, 816, Note_on_c, 0, 78, 65
1, 816, Note_on_c, 0, 69, 65
1, 861, Note_on_c, 0, 78, 0
1, 861, Note_on_c, 0, 69, 0
1, 864, Note_on_c, 0, 76, 65
1, 864, Note_on_c, 0, 67, 65
1, 864, Note_on_c, 1, 48, 65
1, 909, Note_on_c, 1, 48, 0
1, 912, Note_on_c, 1, 52, 65
1, 957, Note_on_c, 1, 52, 0
1, 960, Note_on_c, 1, 55, 65
1, 1005, Note_on_c, 1, 55, 0
1, 1008, Note_on_c, 1, 60, 65
1, 1053, Note_on_c, 0, 76, 0
1, 1053, Note_on_c, 0, 67, 0
1, 1056, Note_on_c, 0, 72, 65
1, 1056, Note_on_c, 0, 69, 65
1, 1101, Note_on_c, 0, 72, 0
1, 1101, Note_on_c, 0, 69, 0
1, 1104, Note_on_c, 0, 69, 65
1, 1104, Note_on_c, 0, 66, 65
1, 1149, Note_on_c, 0, 69, 0
1, 1149, Note_on_c, 0, 66, 0
1, 1152, Note_on_c, 0, 66, 65
1, 1152, Note_on_c, 0, 63, 65
1, 1197, Note_on_c, 1, 60, 0
1, 1200, Note_on_c, 1, 51, 65
1, 1245, Note_on_c, 1, 51, 0
1, 1248, Note_on_c, 1, 54, 65
1, 1293, Note_on_c, 1, 54, 0
1, 1296, Note_on_c, 1, 59, 65
1, 1341, Note_on_c, 0, 66, 0
1, 1341, Note_on_c, 0, 63, 0
1, 1344, Note_on_c, 0, 71, 65
1, 1389, Note_on_c, 0, 71, 0
1, 1392, Note_on_c, 0, 69, 65
1, 1429, Note_on_c, 1, 59, 0
1, 1437, Note_on_c, 0, 69, 0
1, 1440, Note_on_c, 0, 69, 65
1, 1440, Note_on_c, 0, 66, 65
1, 1488, Note_on_c, 1, 52, 65
1, 1536, Note_on_c, 0, 69, 0
1, 1536, Note_on_c, 0, 66, 0
1, 1536, Note_on_c, 0, 67, 65
1, 1536, Note_on_c, 0, 64, 65
1, 1536, Note_on_c, 1, 52, 0
1, 1536, Note_on_c, 1, 58, 65
1, 1581, Note_on_c, 0, 67, 0
1, 1581, Note_on_c, 0, 64, 0
1, 1581, Note_on_c, 1, 58, 0
1, 1584, Note_on_c, 0, 66, 65
1, 1584, Note_on_c, 1, 59, 65
1, 1604, Note_on_c, 0, 66, 0
1, 1604, Note_on_c, 1, 59, 0
1, 1632, Note_on_c, 0, 70, 65
1, 1680, Note_on_c, 0, 70, 0
1, 1680, Note_on_c, 0, 71, 65
1, 1725, Note_on_c, 0, 71, 0
1, 1728, Note_on_c, 0, 69, 65
1, 1728, Note_on_c, 0, 66, 65
1, 1776, Note_on_c, 1, 52, 65
1, 1824, Note_on_c, 0, 69, 0
1, 1824, Note_on_c, 0, 66, 0
1, 1824, Note_on_c, 0, 67, 65
1, 1824, Note_on_c, 0, 64, 65
1, 1824, Note_on_c, 1, 52, 0
1, 1824, Note_on_c, 1, 58, 65
1, 1869, Note_on_c, 0, 67, 0
1, 1869, Note_on_c, 0, 64, 0
1, 1869, Note_on_c, 1, 58, 0
1, 1872, Note_on_c, 0, 66, 65
1, 1872, Note_on_c, 1, 59, 65
1, 1892, Note_on_c, 0, 66, 0
1, 1892, Note_on_c, 1, 59, 0
1, 1920, Note_on_c, 0, 70, 65
1, 1968, Note_on_c, 0, 70, 0
1, 1968, Note_on_c, 0, 71, 65
1, 2013, Note_on_c, 0, 71, 0
1, 2016, Note_on_c, 0, 69, 65
1, 2016, Note_on_c, 0, 66, 64
1, 2064, Note_on_c, 1, 52, 65
1, 2105, Note_on_c, 0, 66, 0
1, 2112, Note_on_c, 0, 69, 0
1, 2112, Note_on_c, 0, 67, 65
1, 2112, Note_on_c, 0, 64, 64
1, 2112, Note_on_c, 1, 52, 0
1, 2112, Note_on_c, 1, 58, 65
1, 2124, Note_on_c, 0, 67, 0
1, 2124, Note_on_c, 0, 69, 65
1, 2136, Note_on_c, 0, 69, 0
1, 2136, Note_on_c, 0, 67, 65
1, 2148, Note_on_c, 0, 67, 0
1, 2148, Note_on_c, 0, 69, 65
1, 2157, Note_on_c, 0, 69, 0
1, 2157, Note_on_c, 0, 64, 0
1, 2157, Note_on_c, 1, 58, 0
1, 2160, Note_on_c, 0, 66, 65
1, 2160, Note_on_c, 0, 63, 64
1, 2160, Note_on_c, 1, 59, 65
1, 2205, Note_on_c, 0, 66, 0
1, 2205, Note_on_c, 0, 63, 0
1, 2205, Note_on_c, 1, 59, 0
1, 2304, Note_on_c, 1, 40, 65
1, 2324, Note_on_c, 1, 40, 0
1, 2352, Note_on_c, 1, 43, 65
1, 2372, Note_on_c, 1, 43, 0
1, 2400, Note_on_c, 1, 47, 65
1, 2420, Note_on_c, 1, 47, 0
1, 2448, Note_on_c, 1, 52, 65
1, 2493, Note_on_c, 1, 52, 0
1, 2496, Note_on_c, 0, 67, 65
1, 2496, Note_on_c, 0, 59, 65
1, 2544, Note_on_c, 0, 67, 0
1, 2544, Note_on_c, 0, 59, 0
1, 2544, Note_on_c, 0, 63, 65
1, 2544, Note_on_c, 0, 57, 65
1, 2589, Note_on_c, 0, 63, 0
1, 2589, Note_on_c, 0, 57, 0
1, 2592, Note_on_c, 0, 64, 65
1, 2592, Note_on_c, 0, 55, 65
1, 2592, Note_on_c, 1, 40, 65
1, 2612, Note_on_c, 1, 40, 0
1, 2637, Note_on_c, 0, 64, 0
1, 2637, Note_on_c, 0, 55, 0
1, 2640, Note_on_c, 1, 43, 65
1, 2660, Note_on_c, 1, 43, 0
1, 2688, Note_on_c, 1, 47, 65
1, 2708, Note_on_c, 1, 47, 0
1, 2736, Note_on_c, 1, 52, 65
1, 2781, Note_on_c, 1, 52, 0
1, 2784, Note_on_c, 0, 71, 65
1, 2784, Note_on_c, 0, 67, 65
1, 2832, Note_on_c, 0, 71, 0
1, 2832, Note_on_c, 0, 67, 0
1, 2832, Note_on_c, 0, 69, 65
1, 2832, Note_on_c, 0, 66, 65
1, 2877, Note_on_c, 0, 69, 0
1, 2877, Note_on_c, 0, 66, 0
1, 2880, Note_on_c, 0, 67, 65
1, 2880, Note_on_c, 0, 64, 65
1, 2880, Note_on_c, 1, 40, 65
1, 2900, Note_on_c, 1, 40, 0
1, 2925, Note_on_c, 0, 67, 0
1, 2925, Note_on_c, 0, 64, 0
1, 2928, Note_on_c, 1, 43, 65
1, 2948, Note_on_c, 1, 43, 0
1, 2976, Note_on_c, 1, 47, 65
1, 2996, Note_on_c, 1, 47, 0
1, 3024, Note_on_c, 1, 52, 65
1, 3069, Note_on_c, 1, 52, 0
1, 3072, Note_on_c, 0, 76, 65
1, 3072, Note_on_c, 0, 68, 65
1, 3120, Note_on_c, 0, 76, 0
1, 3120, Note_on_c, 0, 68, 0
1, 3120, Note_on_c, 0, 74, 65
1, 3120, Note_on_c, 0, 71, 65
1, 3165, Note_on_c, 0, 74, 0
1, 3165, Note_on_c, 0, 71, 0
1, 3168, Note_on_c, 0, 72, 65
1, 3168, Note_on_c, 0, 69, 65
1, 3168, Note_on_c, 1, 40, 65
1, 3188, Note_on_c, 1, 40, 0
1, 3213, Note_on_c, 0, 72, 0
1, 3213, Note_on_c, 0, 69, 0
1, 3216, Note_on_c, 1, 45, 65
1, 3236, Note_on_c, 1, 45, 0
1, 3264, Note_on_c, 1, 48, 65
1, 3284, Note_on_c, 1, 48, 0
1, 3312, Note_on_c, 1, 52, 65
1, 3357, Note_on_c, 1, 52, 0
1, 3360, Note_on_c, 0, 72, 65
1, 3360, Note_on_c, 0, 69, 65
1, 3408, Note_on_c, 0, 72, 0
1, 3408, Note_on_c, 0, 69, 0
1, 3408, Note_on_c, 0, 76, 65
1, 3408, Note_on_c, 0, 67, 65
1, 3453, Note_on_c, 0, 76, 0
1, 3453, Note_on_c, 0, 67, 0
1, 3456, Note_on_c, 0, 74, 65
1, 3456, Note_on_c, 0, 66, 65
1, 3456, Note_on_c, 1, 38, 65
1, 3476, Note_on_c, 1, 38, 0
1, 3501, Note_on_c, 0, 74, 0
1, 3501, Note_on_c, 0, 66, 0
1, 3504, Note_on_c, 1, 42, 65
1, 3524, Note_on_c, 1, 42, 0
1, 3552, Note_on_c, 1, 45, 65
1, 3572, Note_on_c, 1, 45, 0
1, 3600, Note_on_c, 1, 50, 65
1, 3645, Note_on_c, 1, 50, 0
1, 3648, Note_on_c, 0, 69, 65
1, 3648, Note_on_c, 0, 66, 65
1, 3696, Note_on_c, 0, 66, 0
1, 3696, Note_on_c, 0, 72, 65
1, 3741, Note_on_c, 0, 72, 0
1, 3741, Note_on_c, 0, 69, 0
1, 3744, Note_on_c, 0, 71, 94
1, 3744, Note_on_c, 0, 67, 94
1, 3744, Note_on_c, 1, 43, 78
1, 3744, Note_on_c, 1, 31, 78
1, 3789, Note_on_c, 1, 43, 0
1, 3789, Note_on_c, 1, 31, 0
1, 3792, Note_on_c, 0, 71, 0
1, 3792, Note_on_c, 0, 67, 0
1, 3792, Note_on_c, 1, 47, 78
1, 3792, Note_on_c, 1, 35, 78
1, 3837, Note_on_c, 1, 47, 0
1, 3837, Note_on_c, 1, 35, 0
1, 3840, Note_on_c, 1, 50, 78
1, 3840, Note_on_c, 1, 38, 78
1, 3885, Note_on_c, 1, 50, 0
1, 3885, Note_on_c, 1, 38, 0
1, 3888, Note_on_c, 1, 55, 78
1, 3888, Note_on_c, 1, 43, 78
1, 3912, Note_on_c, 0, 62, 78
1, 3933, Note_on_c, 1, 55, 0
1, 3933, Note_on_c, 1, 43, 0
1, 3935, Note_on_c, 0, 62, 0
1, 3936, Note_on_c, 0, 74, 78
1, 3959, Note_on_c, 0, 74, 0
1, 3960, Note_on_c, 0, 71, 78
1, 3983, Note_on_c, 0, 71, 0
1, 3984, Note_on_c, 0, 69, 78
1, 4007, Note_on_c, 0, 69, 0
1, 4008, Note_on_c, 0, 67, 78
1, 4031, Note_on_c, 0, 67, 0
1, 4032, Note_on_c, 0, 66, 78
1, 4032, Note_on_c, 1, 45, 78
1, 4032, Note_on_c, 1, 33, 78
1, 4077, Note_on_c, 0, 66, 0
1, 4077, Note_on_c, 1, 45, 0
1, 4077, Note_on_c, 1, 33, 0
1, 4080, Note_on_c, 1, 48, 78
1, 4080, Note_on_c, 1, 36, 78
1, 4125, Note_on_c, 1, 48, 0
1, 4125, Note_on_c, 1, 36, 0
1, 4128, Note_on_c, 1, 50, 78
1, 4128, Note_on_c, 1, 38, 78
1, 4173, Note_on_c, 1, 50, 0
1, 4173, Note_on_c, 1, 38, 0
1, 4176, Note_on_c, 1, 54, 78
1, 4176, Note_on_c, 1, 42, 78
1, 4200, Note_on_c, 0, 62, 78
1, 4221, Note_on_c, 1, 54, 0
1, 4221, Note_on_c, 1, 42, 0
1, 4223, Note_on_c, 0, 62, 0
1, 4224, Note_on_c, 0, 74, 78
1, 4247, Note_on_c, 0, 74, 0
1, 4248, Note_on_c, 0, 72, 76
1, 4271, Note_on_c, 0, 72, 0
1, 4272, Note_on_c, 0, 71, 74
1, 4295, Note_on_c, 0, 71, 0
1, 4296, Note_on_c, 0, 69, 73
1, 4319, Note_on_c, 0, 69, 0
1, 4320, Note_on_c, 0, 71, 69
1, 4320, Note_on_c, 1, 55, 65
1, 4365, Note_on_c, 0, 71, 0
1, 4368, Note_on_c, 1, 59, 65
1, 4416, Note_on_c, 1, 62, 65
1, 4464, Note_on_c, 1, 67, 65
1, 4488, Note_on_c, 0, 74, 69
1, 4511, Note_on_c, 0, 74, 0
1, 4512, Note_on_c, 0, 86, 69
1, 4535, Note_on_c, 0, 86, 0
1, 4536, Note_on_c, 0, 83, 69
1, 4559, Note_on_c, 0, 83, 0
1, 4560, Note_on_c, 0, 81, 69
1, 4583, Note_on_c, 0, 81, 0
1, 4584, Note_on_c, 0, 79, 69
1, 4597, Note_on_c, 1, 67, 0
1, 4597, Note_on_c, 1, 62, 0
1, 4597, Note_on_c, 1, 59, 0
1, 4597, Note_on_c, 1, 55, 0
1, 4607, Note_on_c, 0, 79, 0
1, 4608, Note_on_c, 0, 79, 69
1, 4608, Note_on_c, 1, 57, 65
1, 4656, Note_on_c, 1, 60, 65
1, 4704, Note_on_c, 0, 79, 0
1, 4704, Note_on_c, 0, 78, 69
1, 4704, Note_on_c, 1, 62, 65
1, 4749, Note_on_c, 0, 78, 0
1, 4752, Note_on_c, 1, 66, 65
1, 4776, Note_on_c, 0, 74, 69
1, 4799, Note_on_c, 0, 74, 0
1, 4800, Note_on_c, 0, 86, 69
1, 4823, Note_on_c, 0, 86, 0
1, 4824, Note_on_c, 0, 84, 69
1, 4847, Note_on_c, 0, 84, 0
1, 4848, Note_on_c, 0, 83, 69
1, 4871, Note_on_c, 0, 83, 0
1, 4872, Note_on_c, 0, 81, 69
1, 4885, Note_on_c, 1, 66, 0
1, 4885, Note_on_c, 1, 62, 0
1, 4885, Note_on_c, 1, 60, 0
1, 4885, Note_on_c, 1, 57, 0
1, 4895, Note_on_c, 0, 81, 0
1, 4896, Note_on_c, 0, 81, 69
1, 4896, Note_on_c, 1, 55, 65
1, 4944, Note_on_c, 1, 59, 65
1, 4992, Note_on_c, 0, 81, 0
1, 4992, Note_on_c, 0, 83, 69
1, 4992, Note_on_c, 1, 62, 65
1, 5037, Note_on_c, 0, 83, 0
1, 5040, Note_on_c, 1, 67, 65
1, 5064, Note_on_c, 0, 74, 69
1, 5087, Note_on_c, 0, 74, 0
1, 5088, Note_on_c, 0, 86, 69
1, 5111, Note_on_c, 0, 86, 0
1, 5112, Note_on_c, 0, 83, 69
1, 5135, Note_on_c, 0, 83, 0
1, 5136, Note_on_c, 0, 81, 69
1, 5159, Note_on_c, 0, 81, 0
1, 5160, Note_on_c, 0, 79, 69
1, 5173, Note_on_c, 1, 67, 0
1, 5173, Note_on_c, 1, 62, 0
1, 5173, Note_on_c, 1, 59, 0
1, 5173, Note_on_c, 1, 55, 0
1, 5183, Note_on_c, 0, 79, 0
1, 5184, Note_on_c, 0, 88, 69
1, 5184, Note_on_c, 1, 60, 65
1, 5207, Note_on_c, 0, 88, 0
1, 5208, Note_on_c, 0, 76, 69
1, 5229, Note_on_c, 1, 60, 0
1, 5231, Note_on_c, 0, 76, 0
1, 5232, Note_on_c, 0, 84, 69
1, 5232, Note_on_c, 1, 69, 65
1, 5255, Note_on_c, 0, 84, 0
1, 5256, Note_on_c, 0, 88, 69
1, 5277, Note_on_c, 1, 69, 0
1, 5279, Note_on_c, 0, 88, 0
1, 5280, Note_on_c, 0, 83, 69
1, 5280, Note_on_c, 1, 67, 65
1, 5303, Note_on_c, 0, 83, 0
1, 5304, Note_on_c, 0, 88, 69
1, 5325, Note_on_c, 1, 67, 0
1, 5327, Note_on_c, 0, 88, 0
1, 5328, Note_on_c, 0, 81, 69
1, 5328, Note_on_c, 1, 66, 65
1, 5351, Note_on_c, 0, 81, 0
1, 5352, Note_on_c, 0, 83, 69
1, 5375, Note_on_c, 0, 83, 0
1, 5376, Note_on_c, 0, 84, 69
1, 5399, Note_on_c, 0, 84, 0
1, 5400, Note_on_c, 0, 86, 69
1, 5417, Note_on_c, 1, 66, 0
1, 5423, Note_on_c, 0, 86, 0
1, 5424, Note_on_c, 0, 88, 69
1, 5447, Note_on_c, 0, 88, 0
1, 5448, Note_on_c, 0, 84, 69
1, 5471, Note_on_c, 0, 84, 0
1, 5472, Note_on_c, 0, 86, 69
1, 5472, Note_on_c, 1, 59, 65
1, 5495, Note_on_c, 0, 86, 0
1, 5496, Note_on_c, 0, 74, 69
1, 5517, Note_on_c, 1, 59, 0
1, 5519, Note_on_c, 0, 74, 0
1, 5520, Note_on_c, 0, 83, 69
1, 5520, Note_on_c, 1, 67, 65
1, 5543, Note_on_c, 0, 83, 0
1, 5544, Note_on_c, 0, 86, 69
1, 5565, Note_on_c, 1, 67, 0
1, 5567, Note_on_c, 0, 86, 0
1, 5568, Note_on_c, 0, 81, 69
1, 5568, Note_on_c, 1, 66, 65
1, 5591, Note_on_c, 0, 81, 0
1, 5592, Note_on_c, 0, 86, 69
1, 5613, Note_on_c, 1, 66, 0
1, 5615, Note_on_c, 0, 86, 0
1, 5616, Note_on_c, 0, 79, 69
1, 5616, Note_on_c, 1, 64, 65
1, 5639, Note_on_c, 0, 79, 0
1, 5640, Note_on_c, 0, 81, 69
1, 5663, Note_on_c, 0, 81, 0
1, 5664, Note_on_c, 0, 83, 69
1, 5687, Note_on_c, 0, 83, 0
1, 5688, Note_on_c, 0, 84, 69
1, 5705, Note_on_c, 1, 64, 0
1, 5711, Note_on_c, 0, 84, 0
1, 5712, Note_on_c, 0, 86, 69
1, 5735, Note_on_c, 0, 86, 0
1, 5736, Note_on_c, 0, 83, 69
1, 5759, Note_on_c, 0, 83, 0
1, 5760, Note_on_c, 0, 84, 69
1, 5760, Note_on_c, 1, 57, 65
1, 5783, Note_on_c, 0, 84, 0
1, 5784, Note_on_c, 0, 72, 69
1, 5805, Note_on_c, 1, 57, 0
1, 5807, Note_on_c, 0, 72, 0
1, 5808, Note_on_c, 0, 81, 69
1, 5808, Note_on_c, 1, 66, 65
1, 5831, Note_on_c, 0, 81, 0
1, 5832, Note_on_c, 0, 84, 69
1, 5853, Note_on_c, 1, 66, 0
1, 5855, Note_on_c, 0, 84, 0
1, 5856, Note_on_c, 0, 79, 69
1, 5856, Note_on_c, 1, 64, 65
1, 5879, Note_on_c, 0, 79, 0
1, 5880, Note_on_c, 0, 84, 69
1, 5901, Note_on_c, 1, 64, 0
1, 5903, Note_on_c, 0, 84, 0
1, 5904, Note_on_c, 0, 78, 69
1, 5904, Note_on_c, 1, 62, 65
1, 5927, Note_on_c, 0, 78, 0
1, 5928, Note_on_c, 0, 84, 69
1, 5949, Note_on_c, 1, 62, 0
1, 5951, Note_on_c, 0, 84, 0
1, 5952, Note_on_c, 0, 79, 69
1, 5952, Note_on_c, 1, 64, 65
1, 5975, Note_on_c, 0, 79, 0
1, 5976, Note_on_c, 0, 84, 69
1, 5997, Note_on_c, 1, 64, 0
1, 5999, Note_on_c, 0, 84, 0
1, 6000, Note_on_c, 0, 81, 69
1, 6000, Note_on_c, 1, 66, 65
1, 6023, Note_on_c, 0, 81, 0
1, 6024, Note_on_c, 0, 84, 69
1, 6045, Note_on_c, 1, 66, 0
1, 6047, Note_on_c, 0, 84, 0
1, 6048, Note_on_c, 0, 83, 69
1, 6048, Note_on_c, 1, 55, 65
1, 6071, Note_on_c, 1, 55, 0
1, 6072, Note_on_c, 1, 67, 65
1, 6093, Note_on_c, 0, 83, 0
1, 6095, Note_on_c, 1, 67, 0
1, 6096, Note_on_c, 0, 86, 69
1, 6096, Note_on_c, 1, 57, 65
1, 6108, Note_on_c, 0, 86, 0
1, 6108, Note_on_c, 0, 84, 69
1, 6119, Note_on_c, 1, 57, 0
1, 6120, Note_on_c, 0, 84, 0
1, 6120, Note_on_c, 0, 83, 69
1, 6120, Note_on_c, 1, 67, 65
1, 6132, Note_on_c, 0, 83, 0
1, 6132, Note_on_c, 0, 84, 69
1, 6143, Note_on_c, 1, 67, 0
1, 6144, Note_on_c, 0, 84, 0
1, 6144, Note_on_c, 0, 86, 69
1, 6144, Note_on_c, 1, 59, 65
1, 6167, Note_on_c, 1, 59, 0
1, 6168, Note_on_c, 1, 67, 65
1, 6189, Note_on_c, 0, 86, 0
1, 6191, Note_on_c, 1, 67, 0
1, 6192, Note_on_c, 0, 81, 69
1, 6192, Note_on_c, 1, 60, 65
1, 6215, Note_on_c, 1, 60, 0
1, 6216, Note_on_c, 1, 67, 65
1, 6237, Note_on_c, 0, 81, 0
1, 6239, Note_on_c, 1, 67, 0
1, 6240, Note_on_c, 0, 81, 69
1, 6240, Note_on_c, 1, 60, 65
1, 6263, Note_on_c, 1, 60, 0
1, 6264, Note_on_c, 1, 67, 65
1, 6285, Note_on_c, 0, 81, 0
1, 6287, Note_on_c, 1, 67, 0
1, 6288, Note_on_c, 0, 81, 69
1, 6288, Note_on_c, 1, 60, 65
1, 6311, Note_on_c, 1, 60, 0
1, 6312, Note_on_c, 1, 67, 65
1, 6333, Note_on_c, 0, 81, 0
1, 6335, Note_on_c, 1, 67, 0
1, 6336, Note_on_c, 0, 83, 69
1, 6336, Note_on_c, 1, 55, 65
1, 6359, Note_on_c, 1, 55, 0
1, 6360, Note_on_c, 1, 67, 65
1, 6381, Note_on_c, 0, 83, 0
1, 6383, Note_on_c, 1, 67, 0
1, 6384, Note_on_c, 0, 86, 69
1, 6384, Note_on_c, 1, 57, 65
1, 6396, Note_on_c, 0, 86, 0
1, 6396, Note_on_c, 0, 84, 69
1, 6407, Note_on_c, 1, 57, 0
1, 6408, Note_on_c, 0, 84, 0
1, 6408, Note_on_c, 0, 83, 69
1, 6408, Note_on_c, 1, 67, 65
1, 6420, Note_on_c, 0, 83, 0
1, 6420, Note_on_c, 0, 84, 69
1, 6431, Note_on_c, 1, 67, 0
1, 6432, Note_on_c, 0, 84, 0
1, 6432, Note_on_c, 0, 86, 69
1, 6432, Note_on_c, 1, 59, 65
1, 6455, Note_on_c, 1, 59, 0
1, 6456, Note_on_c, 1, 67, 65
1, 6477, Note_on_c, 0, 86, 0
1, 6479, Note_on_c, 1, 67, 0
1, 6480, Note_on_c, 0, 81, 69
1, 6480, Note_on_c, 1, 60, 65
1, 6503, Note_on_c, 1, 60, 0
1, 6504, Note_on_c, 1, 67, 65
1, 6525, Note_on_c, 0, 81, 0
1, 6527, Note_on_c, 1, 67, 0
1, 6528, Note_on_c, 0, 81, 69
1, 6528, Note_on_c, 1, 60, 65
1, 6551, Note_on_c, 1, 60, 0
1, 6552, Note_on_c, 1, 67, 65
1, 6573, Note_on_c, 0, 81, 0
1, 6575, Note_on_c, 1, 67, 0
1, 6576, Note_on_c, 0, 81, 69
1, 6576, Note_on_c, 1, 60, 65
1, 6599, Note_on_c, 1, 60, 0
1, 6600, Note_on_c, 1, 67, 65
1, 6621, Note_on_c, 0, 81, 0
1, 6623, Note_on_c, 1, 67, 0
1, 6624, Note_on_c, 0, 83, 69
1, 6624, Note_on_c, 1, 55, 65
1, 6647, Note_on_c, 1, 55, 0
1, 6648, Note_on_c, 1, 67, 65
1, 6669, Note_on_c, 0, 83, 0
1, 6671, Note_on_c, 1, 67, 0
1, 6672, Note_on_c, 0, 86, 69
1, 6672, Note_on_c, 1, 57, 65
1, 6684, Note_on_c, 0, 86, 0
1, 6684, Note_on_c, 0, 84, 69
1, 6695, Note_on_c, 1, 57, 0
1, 6696, Note_on_c, 0, 84, 0
1, 6696, Note_on_c, 0, 83, 69
1, 6696, Note_on_c, 1, 67, 65
1, 6708, Note_on_c, 0, 83, 0
1, 6708, Note_on_c, 0, 84, 69
1, 6719, Note_on_c, 1, 67, 0
1, 6720, Note_on_c, 0, 84, 0
1, 6720, Note_on_c, 0, 86, 69
1, 6720, Note_on_c, 1, 59, 65
1, 6743, Note_on_c, 1, 59, 0
1, 6744, Note_on_c, 1, 67, 65
1, 6765, Note_on_c, 0, 86, 0
1, 6767, Note_on_c, 1, 67, 0
1, 6768, Note_on_c, 0, 81, 69
1, 6768, Note_on_c, 1, 60, 65
1, 6791, Note_on_c, 1, 60, 0
1, 6792, Note_on_c, 1, 67, 65
1, 6813, Note_on_c, 0, 81, 0
1, 6815, Note_on_c, 1, 67, 0
1, 6816, Note_on_c, 0, 81, 69
1, 6816, Note_on_c, 1, 60, 65
1, 6839, Note_on_c, 1, 60, 0
1, 6840, Note_on_c, 1, 67, 65
1, 6861, Note_on_c, 0, 81, 0
1, 6863, Note_on_c, 1, 67, 0
1, 6864, Note_on_c, 0, 81, 69
1, 6864, Note_on_c, 1, 60, 65
1, 6887, Note_on_c, 1, 60, 0
1, 6888, Note_on_c, 1, 67, 65
1, 6909, Note_on_c, 0, 81, 0
1, 6911, Note_on_c, 1, 67, 0
1, 6912, Note_on_c, 0, 79, 69
1, 6912, Note_on_c, 1, 61, 65
1, 6935, Note_on_c, 1, 61, 0
1, 6936, Note_on_c, 1, 70, 65
1, 6957, Note_on_c, 0, 79, 0
1, 6959, Note_on_c, 1, 70, 0
1, 6960, Note_on_c, 0, 79, 69
1, 6960, Note_on_c, 1, 61, 65
1, 6983, Note_on_c, 1, 61, 0
1, 6984, Note_on_c, 1, 70, 65
1, 7005, Note_on_c, 0, 79, 0
1, 7007, Note_on_c, 1, 70, 0
1, 7008, Note_on_c, 0, 79, 69
1, 7008, Note_on_c, 1, 61, 65
1, 7031, Note_on_c, 1, 61, 0
1, 7032, Note_on_c, 1, 70, 65
1, 7053, Note_on_c, 0, 79, 0
1, 7055, Note_on_c, 1, 70, 0
1, 7056, Note_on_c, 0, 78, 69
1, 7056, Note_on_c, 1, 62, 65
1, 7079, Note_on_c, 1, 62, 0
1, 7080, Note_on_c, 1, 69, 65
1, 7101, Note_on_c, 0, 78, 0
1, 7103, Note_on_c, 1, 69, 0
1, 7104, Note_on_c, 0, 78, 69
1, 7104, Note_on_c, 1, 62, 65
1, 7127, Note_on_c, 1, 62, 0
1, 7128, Note_on_c, 1, 69, 65
1, 7149, Note_on_c, 0, 78, 0
1, 7151, Note_on_c, 1, 69, 0
1, 7152, Note_on_c, 0, 78, 69
1, 7152, Note_on_c, 1, 62, 65
1, 7175, Note_on_c, 1, 62, 0
1, 7176, Note_on_c, 1, 69, 65
1, 7197, Note_on_c, 0, 78, 0
1, 7199, Note_on_c, 1, 69, 0
1, 7200, Note_on_c, 0, 73, 69
1, 7200, Note_on_c, 1, 64, 65
1, 7223, Note_on_c, 1, 64, 0
1, 7224, Note_on_c, 1, 67, 65
1, 7245, Note_on_c, 0, 73, 0
1, 7247, Note_on_c, 1, 67, 0
1, 7248, Note_on_c, 0, 73, 69
1, 7248, Note_on_c, 1, 64, 65
1, 7271, Note_on_c, 1, 64, 0
1, 7272, Note_on_c, 1, 67, 65
1, 7293, Note_on_c, 0, 73, 0
1, 7295, Note_on_c, 1, 67, 0
1, 7296, Note_on_c, 0, 73, 69
1, 7296, Note_on_c, 1, 64, 65
1, 7319, Note_on_c, 1, 64, 0
1, 7320, Note_on_c, 1, 67, 65
1, 7341, Note_on_c, 0, 73, 0
1, 7343, Note_on_c, 1, 67, 0
1, 7344, Note_on_c, 0, 74, 69
1, 7344, Note_on_c, 1, 66, 65
1, 7367, Note_on_c, 0, 74, 0
1, 7368, Note_on_c, 0, 69, 69
1, 7389, Note_on_c, 1, 66, 0
1, 7391, Note_on_c, 0, 69, 0
1, 7392, Note_on_c, 0, 71, 69
1, 7415, Note_on_c, 0, 71, 0
1, 7416, Note_on_c, 0, 73, 69
1, 7439, Note_on_c, 0, 73, 0
1, 7440, Note_on_c, 0, 74, 70
1, 7463, Note_on_c, 0, 74, 0
1, 7464, Note_on_c, 0, 76, 70
1, 7487, Note_on_c, 0, 76, 0
1, 7488, Note_on_c, 0, 78, 71
1, 7511, Note_on_c, 0, 78, 0
1, 7512, Note_on_c, 0, 74, 71
1, 7512, Note_on_c, 1, 62, 73
1, 7535, Note_on_c, 0, 74, 0
1, 7535, Note_on_c, 1, 62, 0
1, 7536, Note_on_c, 0, 76, 72
1, 7536, Note_on_c, 1, 64, 73
1, 7559, Note_on_c, 0, 76, 0
1, 7559, Note_on_c, 1, 64, 0
1, 7560, Note_on_c, 0, 78, 72
1, 7560, Note_on_c, 1, 66, 73
1, 7583, Note_on_c, 0, 78, 0
1, 7583, Note_on_c, 1, 66, 0
1, 7584, Note_on_c, 0, 79, 73
1, 7584, Note_on_c, 1, 67, 74
1, 7607, Note_on_c, 0, 79, 0
1, 7607, Note_on_c, 1, 67, 0
1, 7608, Note_on_c, 0, 81, 73
1, 7608, Note_on_c, 1, 69, 74
1, 7631, Note_on_c, 0, 81, 0
1, 7631, Note_on_c, 1, 69, 0
1, 7632, Note_on_c, 0, 83, 74
1, 7632, Note_on_c, 1, 71, 74
1, 7655, Note_on_c, 0, 83, 0
1, 7655, Note_on_c, 1, 71, 0
1, 7656, Note_on_c, 0, 81, 74
1, 7656, Note_on_c, 1, 69, 75
1, 7679, Note_on_c, 0, 81, 0
1, 7679, Note_on_c, 1, 69, 0
1, 7680, Note_on_c, 0, 79, 75
1, 7680, Note_on_c, 1, 67, 75
1, 7703, Note_on_c, 0, 79, 0
1, 7703, Note_on_c, 1, 67, 0
1, 7704, Note_on_c, 0, 81, 75
1, 7704, Note_on_c, 1, 69, 76
1, 7727, Note_on_c, 0, 81, 0
1, 7727, Note_on_c, 1, 69, 0
1, 7728, Note_on_c, 0, 83, 76
1, 7728, Note_on_c, 1, 71, 76
1, 7751, Note_on_c, 0, 83, 0
1, 7751, Note_on_c, 1, 71, 0
1, 7752, Note_on_c, 0, 85, 76
1, 7752, Note_on_c, 1, 73, 76
1, 7775, Note_on_c, 0, 85, 0
1, 7775, Note_on_c, 1, 73, 0
1, 7776, Note_on_c, 0, 86, 93
1, 7776, Note_on_c, 1, 74, 77
1, 7821, Note_on_c, 1, 74, 0
1, 7824, Note_on_c, 0, 86, 0
1, 7824, Note_on_c, 0, 81, 78
1, 7824, Note_on_c, 1, 69, 78
1, 7869, Note_on_c, 0, 81, 0
1, 7869, Note_on_c, 1, 69, 0
1, 7872, Note_on_c, 0, 78, 78
1, 7872, Note_on_c, 1, 66, 78
1, 7917, Note_on_c, 0, 78, 0
1, 7917, Note_on_c, 1, 66, 0
1, 7920, Note_on_c, 0, 74, 78
1, 7920, Note_on_c, 1, 62, 78
1, 7965, Note_on_c, 0, 74, 0
1, 7965, Note_on_c, 1, 62, 0
1, 7968, Note_on_c, 0, 69, 78
1, 7968, Note_on_c, 1, 57, 78
1, 8013, Note_on_c, 0, 69, 0
1, 8013, Note_on_c, 1, 57, 0
1, 8016, Note_on_c, 0, 66, 78
1, 8016, Note_on_c, 1, 54, 78
1, 8061, Note_on_c, 0, 66, 0
1, 8061, Note_on_c, 1, 54, 0
1, 8064, Note_on_c, 0, 62, 78
1, 8064, Note_on_c, 1, 50, 78
1, 8197, Note_on_c, 0, 62, 0
1, 8197, Note_on_c, 1, 50, 0
1, 8352, Note_on_c, 1, 43, 73
1, 8352, Note_on_c, 1, 31, 73
1, 8400, Note_on_c, 0, 74, 73
1, 8400, Note_on_c, 0, 71, 73
1, 8441, Note_on_c, 1, 43, 0
1, 8441, Note_on_c, 1, 31, 0
1, 8445, Note_on_c, 0, 74, 0
1, 8445, Note_on_c, 0, 71, 0
1, 8448, Note_on_c, 0, 72, 73
1, 8448, Note_on_c, 0, 69, 73
1, 8493, Note_on_c, 0, 72, 0
1, 8493, Note_on_c, 0, 69, 0
1, 8496, Note_on_c, 0, 71, 73
1, 8496, Note_on_c, 0, 67, 73
1, 8541, Note_on_c, 0, 71, 0
1, 8541, Note_on_c, 0, 67, 0
1, 8544, Note_on_c, 0, 83, 73
1, 8544, Note_on_c, 0, 74, 73
1, 8589, Note_on_c, 0, 83, 0
1, 8589, Note_on_c, 0, 74, 0
1, 8592, Note_on_c, 0, 79, 73
1, 8592, Note_on_c, 0, 71, 73
1, 8592, Note_on_c, 1, 59, 69
1, 8592, Note_on_c, 1, 55, 69
1, 8637, Note_on_c, 0, 79, 0
1, 8637, Note_on_c, 0, 71, 0
1, 8637, Note_on_c, 1, 59, 0
1, 8637, Note_on_c, 1, 55, 0
1, 8640, Note_on_c, 0, 78, 73
1, 8640, Note_on_c, 0, 69, 73
1, 8640, Note_on_c, 1, 60, 69
1, 8640, Note_on_c, 1, 57, 69
1, 8685, Note_on_c, 0, 78, 0
1, 8685, Note_on_c, 0, 69, 0
1, 8688, Note_on_c, 0, 84, 73
1, 8688, Note_on_c, 0, 81, 73
1, 8729, Note_on_c, 1, 60, 0
1, 8729, Note_on_c, 1, 57, 0
1, 8733, Note_on_c, 0, 84, 0
1, 8733, Note_on_c, 0, 81, 0
1, 8736, Note_on_c, 0, 83, 73
1, 8736, Note_on_c, 0, 79, 73
1, 8781, Note_on_c, 0, 83, 0
1, 8781, Note_on_c, 0, 79, 0
1, 8784, Note_on_c, 0, 81, 73
1, 8784, Note_on_c, 0, 78, 73
1, 8829, Note_on_c, 0, 81, 0
1, 8829, Note_on_c, 0, 78, 0
1, 8832, Note_on_c, 0, 88, 73
1, 8832, Note_on_c, 0, 84, 73
1, 8832, Note_on_c, 1, 66, 69
1, 8832, Note_on_c, 1, 62, 69
1, 8877, Note_on_c, 0, 88, 0
1, 8877, Note_on_c, 0, 84, 0
1, 8880, Note_on_c, 0, 84, 73
1, 8880, Note_on_c, 0, 81, 73
1, 8880, Note_on_c, 1, 62, 0
1, 8880, Note_on_c, 1, 69, 69
1, 8925, Note_on_c, 0, 84, 0
1, 8925, Note_on_c, 0, 81, 0
1, 8925, Note_on_c, 1, 69, 0
1, 8925, Note_on_c, 1, 66, 0
1, 8928, Note_on_c, 0, 83, 73
1, 8928, Note_on_c, 0, 79, 64
1, 8928, Note_on_c, 1, 71, 69
1, 8928, Note_on_c, 1, 67, 69
1, 8973, Note_on_c, 0, 83, 0
1, 8976, Note_on_c, 0, 86, 73
1, 9017, Note_on_c, 0, 79, 0
1, 9017, Note_on_c, 1, 71, 0
1, 9017, Note_on_c, 1, 67, 0
1, 9024, Note_on_c, 0, 74, 64
1, 9024, Note_on_c, 1, 71, 69
1, 9069, Note_on_c, 0, 74, 0
1, 9069, Note_on_c, 1, 71, 0
1, 9072, Note_on_c, 0, 76, 64
1, 9072, Note_on_c, 1, 72, 69
1, 9117, Note_on_c, 0, 76, 0
1, 9117, Note_on_c, 1, 72, 0
1, 9120, Note_on_c, 0, 80, 64
1, 9120, Note_on_c, 1, 71, 69
1, 9161, Note_on_c, 0, 86, 0
1, 9165, Note_on_c, 0, 80, 0
1, 9165, Note_on_c, 1, 71, 0
1, 9168, Note_on_c, 0, 84, 73
1, 9168, Note_on_c, 0, 81, 64
1, 9168, Note_on_c, 1, 69, 69
1, 9213, Note_on_c, 0, 81, 0
1, 9213, Note_on_c, 1, 69, 0
1, 9216, Note_on_c, 0, 75, 64
1, 9216, Note_on_c, 1, 67, 69
1, 9261, Note_on_c, 0, 75, 0
1, 9261, Note_on_c, 1, 67, 0
1, 9264, Note_on_c, 0, 74, 64
1, 9264, Note_on_c, 1, 66, 69
1, 9305, Note_on_c, 0, 84, 0
1, 9309, Note_on_c, 1, 66, 0
1, 9312, Note_on_c, 0, 83, 73
1, 9312, Note_on_c, 1, 67, 69
1, 9353, Note_on_c, 0, 74, 0
1, 9357, Note_on_c, 0, 83, 0
1, 9357, Note_on_c, 1, 67, 0
1, 9360, Note_on_c, 0, 81, 73
1, 9360, Note_on_c, 0, 76, 64
1, 9360, Note_on_c, 1, 72, 69
1, 9360, Note_on_c, 1, 60, 64
1, 9405, Note_on_c, 0, 81, 0
1, 9405, Note_on_c, 0, 76, 0
1, 9405, Note_on_c, 1, 72, 0
1, 9408, Note_on_c, 0, 83, 73
1, 9408, Note_on_c, 0, 74, 64
1, 9408, Note_on_c, 1, 71, 69
1, 9453, Note_on_c, 0, 83, 0
1, 9453, Note_on_c, 0, 74, 0
1, 9453, Note_on_c, 1, 71, 0
1, 9456, Note_on_c, 0, 84, 73
1, 9456, Note_on_c, 0, 72, 64
1, 9456, Note_on_c, 1, 69, 69
1, 9493, Note_on_c, 1, 60, 0
1, 9501, Note_on_c, 0, 84, 0
1, 9501, Note_on_c, 0, 72, 0
1, 9501, Note_on_c, 1, 69, 0
1, 9504, Note_on_c, 0, 79, 73
1, 9504, Note_on_c, 0, 74, 64
1, 9504, Note_on_c, 1, 71, 69
1, 9504, Note_on_c, 1, 62, 64
1, 9637, Note_on_c, 0, 74, 0
1, 9637, Note_on_c, 1, 71, 0
1, 9648, Note_on_c, 0, 72, 64
1, 9648, Note_on_c, 1, 69, 69
1, 9693, Note_on_c, 0, 79, 0
1, 9696, Note_on_c, 0, 81, 73
1, 9741, Note_on_c, 0, 81, 0
1, 9744, Note_on_c, 0, 78, 73
1, 9769, Note_on_c, 1, 62, 0
1, 9781, Note_on_c, 0, 72, 0
1, 9781, Note_on_c, 1, 69, 0
1, 9789, Note_on_c, 0, 78, 0
1, 9792, Note_on_c, 0, 79, 73
1, 9792, Note_on_c, 0, 71, 64
1, 9792, Note_on_c, 1, 67, 69
1, 9792, Note_on_c, 1, 67, 64
1, 9925, Note_on_c, 0, 79, 0
1, 9925, Note_on_c, 0, 71, 0
1, 9925, Note_on_c, 1, 67, 0
1, 9925, Note_on_c, 1, 67, 0
1, 10080, Note_on_c, 1, 43, 73
1, 10080, Note_on_c, 1, 31, 73
1, 10128, Note_on_c, 0, 74, 73
1, 10128, Note_on_c, 0, 71, 73
1, 10169, Note_on_c, 1, 43, 0
1, 10169, Note_on_c, 1, 31, 0
1, 10173, Note_on_c, 0, 74, 0
1, 10173, Note_on_c, 0, 71, 0
1, 10176, Note_on_c, 0, 72, 73
1, 10176, Note_on_c, 0, 69, 73
1, 10221, Note_on_c, 0, 72, 0
1, 10221, Note_on_c, 0, 69, 0
1, 10224, Note_on_c, 0, 71, 73
1, 10224, Note_on_c, 0, 67, 73
1, 10269, Note_on_c, 0, 71, 0
1, 10269, Note_on_c, 0, 67, 0
1, 10272, Note_on_c, 0, 83, 73
1, 10272, Note_on_c, 0, 74, 73
1, 10317, Note_on_c, 0, 83, 0
1, 10317, Note_on_c, 0, 74, 0
1, 10320, Note_on_c, 0, 79, 73
1, 10320, Note_on_c, 0, 71, 73
1, 10320, Note_on_c, 1, 59, 69
1, 10320, Note_on_c, 1, 55, 69
1, 10365, Note_on_c, 0, 79, 0
1, 10365, Note_on_c, 0, 71, 0
1, 10365, Note_on_c, 1, 59, 0
1, 10365, Note_on_c, 1, 55, 0
1, 10368, Note_on_c, 0, 78, 73
1, 10368, Note_on_c, 0, 69, 73
1, 10368, Note_on_c, 1, 60, 69
1, 10368, Note_on_c, 1, 57, 69
1, 10413, Note_on_c, 0, 78, 0
1, 10413, Note_on_c, 0, 69, 0
1, 10416, Note_on_c, 0, 84, 73
1, 10416, Note_on_c, 0, 81, 73
1, 10457, Note_on_c, 1, 60, 0
1, 10457, Note_on_c, 1, 57, 0
1, 10461, Note_on_c, 0, 84, 0
1, 10461, Note_on_c, 0, 81, 0
1, 10464, Note_on_c, 0, 83, 73
1, 10464, Note_on_c, 0, 79, 73
1, 10509, Note_on_c, 0, 83, 0
1, 10509, Note_on_c, 0, 79, 0
1, 10512, Note_on_c, 0, 81, 73
1, 10512, Note_on_c, 0, 78, 73
1, 10557, Note_on_c, 0, 81, 0
1, 10557, Note_on_c, 0, 78, 0
1, 10560, Note_on_c, 0, 88, 73
1, 10560, Note_on_c, 0, 84, 73
1, 10560, Note_on_c, 1, 66, 69
1, 10560, Note_on_c, 1, 62, 69
1, 10605, Note_on_c, 0, 88, 0
1, 10605, Note_on_c, 0, 84, 0
1, 10608, Note_on_c, 0, 84, 73
1, 10608, Note_on_c, 0, 81, 73
1, 10608, Note_on_c, 1, 62, 0
1, 10608, Note_on_c, 1, 69, 69
1, 10653, Note_on_c, 0, 84, 0
1, 10653, Note_on_c, 0, 81, 0
1, 10653, Note_on_c, 1, 69, 0
1, 10653, Note_on_c, 1, 66, 0
1, 10656, Note_on_c, 0, 83, 73
1, 10656, Note_on_c, 0, 79, 64
1, 10656, Note_on_c, 1, 71, 69
1, 10656, Note_on_c, 1, 67, 69
1, 10701, Note_on_c, 0, 83, 0
1, 10704, Note_on_c, 0, 86, 73
1, 10745, Note_on_c, 0, 79, 0
1, 10745, Note_on_c, 1, 71, 0
1, 10745, Note_on_c, 1, 67, 0
1, 10752, Note_on_c, 0, 74, 64
1, 10752, Note_on_c, 1, 71, 69
1, 10797, Note_on_c, 0, 74, 0
1, 10797, Note_on_c, 1, 71, 0
1, 10800, Note_on_c, 0, 76, 64
1, 10800, Note_on_c, 1, 72, 69
1, 10845, Note_on_c, 0, 76, 0
1, 10845, Note_on_c, 1, 72, 0
1, 10848, Note_on_c, 0, 80, 64
1, 10848, Note_on_c, 1, 71, 69
1, 10889, Note_on_c, 0, 86, 0
1, 10893, Note_on_c, 0, 80, 0
1, 10893, Note_on_c, 1, 71, 0
1, 10896, Note_on_c, 0, 84, 73
1, 10896, Note_on_c, 0, 81, 64
1, 10896, Note_on_c, 1, 69, 69
1, 10941, Note_on_c, 0, 81, 0
1, 10941, Note_on_c, 1, 69, 0
1, 10944, Note_on_c, 0, 75, 64
1, 10944, Note_on_c, 1, 67, 69
1, 10989, Note_on_c, 0, 75, 0
1, 10989, Note_on_c, 1, 67, 0
1, 10992, Note_on_c, 0, 74, 64
1, 10992, Note_on_c, 1, 66, 69
1, 11033, Note_on_c, 0, 84, 0
1, 11037, Note_on_c, 1, 66, 0
1, 11040, Note_on_c, 0, 83, 73
1, 11040, Note_on_c, 1, 67, 69
1, 11081, Note_on_c, 0, 74, 0
1, 11085, Note_on_c, 1, 67, 0
1, 11088, Note_on_c, 0, 72, 64
1, 11088, Note_on_c, 1, 64, 69
1, 11129, Note_on_c, 0, 83, 0
1, 11133, Note_on_c, 1, 64, 0
1, 11136, Note_on_c, 0, 81, 73
1, 11136, Note_on_c, 1, 66, 69
1, 11177, Note_on_c, 0, 72, 0
1, 11181, Note_on_c, 1, 66, 0
1, 11184, Note_on_c, 0, 71, 64
1, 11184, Note_on_c, 1, 63, 69
1, 11225, Note_on_c, 0, 81, 0
1, 11229, Note_on_c, 1, 63, 0
1, 11232, Note_on_c, 0, 79, 73
1, 11232, Note_on_c, 1, 64, 69
1, 11252, Note_on_c, 0, 79, 0
1, 11277, Note_on_c, 0, 71, 0
1, 11277, Note_on_c, 1, 64, 0
1, 11280, Note_on_c, 0, 79, 73
1, 11280, Note_on_c, 0, 69, 64
1, 11280, Note_on_c, 1, 60, 69
1, 11300, Note_on_c, 0, 79, 0
1, 11325, Note_on_c, 0, 69, 0
1, 11325, Note_on_c, 1, 60, 0
1, 11328, Note_on_c, 0, 79, 73
1, 11328, Note_on_c, 0, 70, 64
1, 11328, Note_on_c, 1, 61, 69
1, 11348, Note_on_c, 0, 79, 0
1, 11373, Note_on_c, 0, 70, 0
1, 11373, Note_on_c, 1, 61, 0
1, 11376, Note_on_c, 0, 79, 73
1, 11376, Note_on_c, 0, 71, 64
1, 11376, Note_on_c, 1, 62, 69
1, 11396, Note_on_c, 0, 79, 0
1, 11421, Note_on_c, 0, 71, 0
1, 11421, Note_on_c, 1, 62, 0
1, 11424, Note_on_c, 0, 79, 73
1, 11424, Note_on_c, 0, 72, 64
1, 11424, Note_on_c, 1, 63, 69
1, 11444, Note_on_c, 0, 79, 0
1, 11469, Note_on_c, 0, 72, 0
1, 11469, Note_on_c, 1, 63, 0
1, 11472, Note_on_c, 0, 79, 73
1, 11472, Note_on_c, 0, 73, 64
1, 11472, Note_on_c, 1, 64, 69
1, 11492, Note_on_c, 0, 79, 0
1, 11517, Note_on_c, 0, 73, 0
1, 11517, Note_on_c, 1, 64, 0
1, 11520, Note_on_c, 0, 79, 73
1, 11520, Note_on_c, 0, 74, 64
1, 11520, Note_on_c, 1, 71, 69
1, 11520, Note_on_c, 1, 62, 64
1, 11653, Note_on_c, 0, 74, 0
1, 11653, Note_on_c, 1, 71, 0
1, 11664, Note_on_c, 0, 72, 64
1, 11664, Note_on_c, 1, 69, 69
1, 11709, Note_on_c, 0, 79, 0
1, 11712, Note_on_c, 0, 81, 73
1, 11757, Note_on_c, 0, 81, 0
1, 11760, Note_on_c, 0, 78, 73
1, 11785, Note_on_c, 1, 62, 0
1, 11797, Note_on_c, 0, 72, 0
1, 11797, Note_on_c, 1, 69, 0
1, 11805, Note_on_c, 0, 78, 0
1, 11808, Note_on_c, 0, 79, 78
1, 11808, Note_on_c, 1, 67, 64
1, 11808, Note_on_c, 1, 55, 64
1, 11831, Note_on_c, 0, 79, 0
1, 11832, Note_on_c, 0, 74, 78
1, 11855, Note_on_c, 0, 74, 0
1, 11856, Note_on_c, 0, 71, 78
1, 11879, Note_on_c, 0, 71, 0
1, 11880, Note_on_c, 0, 74, 78
1, 11897, Note_on_c, 1, 67, 0
1, 11897, Note_on_c, 1, 55, 0
1, 11903, Note_on_c, 0, 74, 0
1, 11904, Note_on_c, 0, 72, 78
1, 11904, Note_on_c, 1, 66, 64
1, 11904, Note_on_c, 1, 62, 64
1, 11927, Note_on_c, 0, 72, 0
1, 11928, Note_on_c, 0, 74, 78
1, 11949, Note_on_c, 1, 66, 0
1, 11949, Note_on_c, 1, 62, 0
1, 11951, Note_on_c, 0, 74, 0
1, 11952, Note_on_c, 0, 71, 78
1, 11952, Note_on_c, 1, 67, 64
1, 11952, Note_on_c, 1, 55, 64
1, 11975, Note_on_c, 0, 71, 0
1, 11976, Note_on_c, 0, 74, 78
1, 11999, Note_on_c, 0, 74, 0
1, 12000, Note_on_c, 0, 79, 78
1, 12023, Note_on_c, 0, 79, 0
1, 12024, Note_on_c, 0, 74, 78
1, 12041, Note_on_c, 1, 67, 0
1, 12041, Note_on_c, 1, 55, 0
1, 12047, Note_on_c, 0, 74, 0
1, 12048, Note_on_c, 0, 81, 78
1, 12048, Note_on_c, 1, 66, 64
1, 12048, Note_on_c, 1, 62, 64
1, 12071, Note_on_c, 0, 81, 0
1, 12072, Note_on_c, 0, 74, 78
1, 12093, Note_on_c, 1, 66, 0
1, 12093, Note_on_c, 1, 62, 0
1, 12095, Note_on_c, 0, 74, 0
1, 12096, Note_on_c, 0, 83, 78
1, 12096, Note_on_c, 1, 67, 64
1, 12096, Note_on_c, 1, 55, 64
1, 12119, Note_on_c, 0, 83, 0
1, 12120, Note_on_c, 0, 74, 78
1, 12143, Note_on_c, 0, 74, 0
1, 12144, Note_on_c, 0, 71, 78
1, 12167, Note_on_c, 0, 71, 0
1, 12168, Note_on_c, 0, 74, 78
1, 12185, Note_on_c, 1, 67, 0
1, 12185, Note_on_c, 1, 55, 0
1, 12191, Note_on_c, 0, 74, 0
1, 12192, Note_on_c, 0, 72, 78
1, 12192, Note_on_c, 1, 66, 64
1, 12192, Note_on_c, 1, 62, 64
1, 12215, Note_on_c, 0, 72, 0
1, 12216, Note_on_c, 0, 74, 78
1, 12237, Note_on_c, 1, 66, 0
1, 12237, Note_on_c, 1, 62, 0
1, 12239, Note_on_c, 0, 74, 0
1, 12240, Note_on_c, 0, 71, 78
1, 12240, Note_on_c, 1, 67, 64
1, 12240, Note_on_c, 1, 55, 64
1, 12263, Note_on_c, 0, 71, 0
1, 12264, Note_on_c, 0, 74, 78
1, 12287, Note_on_c, 0, 74, 0
1, 12288, Note_on_c, 0, 79, 78
1, 12311, Note_on_c, 0, 79, 0
1, 12312, Note_on_c, 0, 74, 78
1, 12329, Note_on_c, 1, 67, 0
1, 12329, Note_on_c, 1, 55, 0
1, 12335, Note_on_c, 0, 74, 0
1, 12336, Note_on_c, 0, 81, 78
1, 12336, Note_on_c, 1, 66, 64
1, 12336, Note_on_c, 1, 62, 64
1, 12359, Note_on_c, 0, 81, 0
1, 12360, Note_on_c, 0, 74, 78
1, 12381, Note_on_c, 1, 66, 0
1, 12381, Note_on_c, 1, 62, 0
1, 12383, Note_on_c, 0, 74, 0
1, 12384, Note_on_c, 0, 83, 78
1, 12384, Note_on_c, 1, 67, 64
1, 12384, Note_on_c, 1, 55, 64
1, 12407, Note_on_c, 0, 83, 0
1, 12408, Note_on_c, 0, 74, 78
1, 12431, Note_on_c, 0, 74, 0
1, 12432, Note_on_c, 0, 71, 78
1, 12455, Note_on_c, 0, 71, 0
1, 12456, Note_on_c, 0, 74, 78
1, 12473, Note_on_c, 1, 67, 0
1, 12473, Note_on_c, 1, 55, 0
1, 12479, Note_on_c, 0, 74, 0
1, 12480, Note_on_c, 0, 72, 78
1, 12480, Note_on_c, 1, 66, 64
1, 12480, Note_on_c, 1, 62, 64
1, 12503, Note_on_c, 0, 72, 0
1, 12504, Note_on_c, 0, 74, 78
1, 12525, Note_on_c, 1, 66, 0
1, 12525, Note_on_c, 1, 62, 0
1, 12527, Note_on_c, 0, 74, 0
1, 12528, Note_on_c, 0, 71, 78
1, 12528, Note_on_c, 1, 67, 64
1, 12528, Note_on_c, 1, 55, 64
1, 12551, Note_on_c, 0, 71, 0
1, 12552, Note_on_c, 0, 74, 78
1, 12575, Note_on_c, 0, 74, 0
1, 12576, Note_on_c, 0, 79, 78
1, 12599, Note_on_c, 0, 79, 0
1, 12600, Note_on_c, 0, 74, 78
1, 12617, Note_on_c, 1, 67, 0
1, 12617, Note_on_c, 1, 55, 0
1, 12623, Note_on_c, 0, 74, 0
1, 12624, Note_on_c, 0, 81, 78
1, 12624, Note_on_c, 1, 66, 64
1, 12624, Note_on_c, 1, 62, 64
1, 12647, Note_on_c, 0, 81, 0
1, 12648, Note_on_c, 0, 74, 78
1, 12669, Note_on_c, 1, 66, 0
1, 12669, Note_on_c, 1, 62, 0
1, 12671, Note_on_c, 0, 74, 0
1, 12672, Note_on_c, 0, 83, 78
1, 12672, Note_on_c, 1, 67, 78
1, 12672, Note_on_c, 1, 55, 78
1, 12717, Note_on_c, 0, 83, 0
1, 12720, Note_on_c, 0, 83, 78
1, 12720, Note_on_c, 0, 79, 78
1, 12761, Note_on_c, 1, 67, 0
1, 12761, Note_on_c, 1, 55, 0
1, 12765, Note_on_c, 0, 83, 0
1, 12765, Note_on_c, 0, 79, 0
1, 12768, Note_on_c, 0, 86, 78
1, 12768, Note_on_c, 0, 83, 78
1, 12813, Note_on_c, 0, 86, 0
1, 12813, Note_on_c, 0, 83, 0
1, 12816, Note_on_c, 0, 83, 78
1, 12816, Note_on_c, 0, 79, 78
1, 12861, Note_on_c, 0, 83, 0
1, 12861, Note_on_c, 0, 79, 0
1, 12960, Note_on_c, 1, 40, 65
1, 12980, Note_on_c, 1, 40, 0
1, 13008, Note_on_c, 1, 43, 65
1, 13028, Note_on_c, 1, 43, 0
1, 13056, Note_on_c, 1, 47, 65
1, 13076, Note_on_c, 1, 47, 0
1, 13104, Note_on_c, 1, 52, 65
1, 13149, Note_on_c, 1, 52, 0
1, 13152, Note_on_c, 0, 67, 65
1, 13152, Note_on_c, 0, 59, 65
1, 13200, Note_on_c, 0, 67, 0
1, 13200, Note_on_c, 0, 59, 0
1, 13200, Note_on_c, 0, 63, 65
1, 13200, Note_on_c, 0, 57, 65
1, 13245, Note_on_c, 0, 63, 0
1, 13245, Note_on_c, 0, 57, 0
1, 13248, Note_on_c, 0, 64, 65
1, 13248, Note_on_c, 0, 55, 65
1, 13248, Note_on_c, 1, 40, 65
1, 13268, Note_on_c, 1, 40, 0
1, 13293, Note_on_c, 0, 64, 0
1, 13293, Note_on_c, 0, 55, 0
1, 13296, Note_on_c, 1, 43, 65
1, 13316, Note_on_c, 1, 43, 0
1, 13344, Note_on_c, 1, 47, 65
1, 13364, Note_on_c, 1, 47, 0
1, 13392, Note_on_c, 1, 52, 65
1, 13437, Note_on_c, 1, 52, 0
1, 13440, Note_on_c, 0, 71, 65
1, 13440, Note_on_c, 0, 67, 65
1, 13488, Note_on_c, 0, 71, 0
1, 13488, Note_on_c, 0, 67, 0
1, 13488, Note_on_c, 0, 69, 65
1, 13488, Note_on_c, 0, 66, 65
1, 13533, Note_on_c, 0, 69, 0
1, 13533, Note_on_c, 0, 66, 0
1, 13536, Note_on_c, 0, 67, 65
1, 13536, Note_on_c, 0, 64, 65
1, 13536, Note_on_c, 1, 40, 65
1, 13556, Note_on_c, 1, 40, 0
1, 13581, Note_on_c, 0, 67, 0
1, 13581, Note_on_c, 0, 64, 0
1, 13584, Note_on_c, 1, 43, 65
1, 13604, Note_on_c, 1, 43, 0
1, 13632, Note_on_c, 1, 47, 65
1, 13652, Note_on_c, 1, 47, 0
1, 13680, Note_on_c, 1, 52, 65
1, 13725, Note_on_c, 1, 52, 0
1, 13728, Note_on_c, 0, 79, 65
1, 13728, Note_on_c, 0, 71, 65
1, 13776, Note_on_c, 0, 79, 0
1, 13776, Note_on_c, 0, 71, 0
1, 13776, Note_on_c, 0, 78, 65
1, 13776, Note_on_c, 0, 69, 65
1, 13821, Note_on_c, 0, 78, 0
1, 13821, Note_on_c, 0, 69, 0
1, 13824, Note_on_c, 0, 76, 65
1, 13824, Note_on_c, 0, 67, 65
1, 13824, Note_on_c, 1, 48, 65
1, 13869, Note_on_c, 1, 48, 0
1, 13872, Note_on_c, 1, 52, 65
1, 13917, Note_on_c, 1, 52, 0
1, 13920, Note_on_c, 1, 55, 65
1, 13965, Note_on_c, 1, 55, 0
1, 13968, Note_on_c, 1, 60, 65
1, 14013, Note_on_c, 0, 76, 0
1, 14013, Note_on_c, 0, 67, 0
1, 14016, Note_on_c, 0, 72, 65
1, 14016, Note_on_c, 0, 69, 65
1, 14061, Note_on_c, 0, 72, 0
1, 14061, Note_on_c, 0, 69, 0
1, 14064, Note_on_c, 0, 69, 65
1, 14064, Note_on_c, 0, 66, 65
1, 14109, Note_on_c, 0, 69, 0
1, 14109, Note_on_c, 0, 66, 0
1, 14112, Note_on_c, 0, 66, 65
1, 14112, Note_on_c, 0, 63, 65
1, 14157, Note_on_c, 1, 60, 0
1, 14160, Note_on_c, 1, 51, 65
1, 14205, Note_on_c, 1, 51, 0
1, 14208, Note_on_c, 1, 54, 65
1, 14253, Note_on_c, 1, 54, 0
1, 14256, Note_on_c, 1, 59, 65
1, 14301, Note_on_c, 0, 66, 0
1, 14301, Note_on_c, 0, 63, 0
1, 14304, Note_on_c, 0, 71, 65
1, 14349, Note_on_c, 0, 71, 0
1, 14352, Note_on_c, 0, 69, 65
1, 14389, Note_on_c, 1, 59, 0
1, 14397, Note_on_c, 0, 69, 0
1, 14400, Note_on_c, 0, 69, 65
1, 14400, Note_on_c, 0, 66, 65
1, 14448, Note_on_c, 1, 52, 65
1, 14496, Note_on_c, 0, 69, 0
1, 14496, Note_on_c, 0, 66, 0
1, 14496, Note_on_c, 0, 67, 65
1, 14496, Note_on_c, 0, 64, 65
1, 14496, Note_on_c, 1, 52, 0
1, 14496, Note_on_c, 1, 58, 65
1, 14541, Note_on_c, 0, 67, 0
1, 14541, Note_on_c, 0, 64, 0
1, 14541, Note_on_c, 1, 58, 0
1, 14544, Note_on_c, 0, 66, 65
1, 14544, Note_on_c, 1, 59, 65
1, 14564, Note_on_c, 0, 66, 0
1, 14564, Note_on_c, 1, 59, 0
1, 14592, Note_on_c, 0, 70, 65
1, 14640, Note_on_c, 0, 70, 0
1, 14640, Note_on_c, 0, 71, 65
1, 14685, Note_on_c, 0, 71, 0
1, 14688, Note_on_c, 0, 69, 65
1, 14688, Note_on_c, 0, 66, 65
1, 14736, Note_on_c, 1, 52, 65
1, 14784, Note_on_c, 0, 69, 0
1, 14784, Note_on_c, 0, 66, 0
1, 14784, Note_on_c, 0, 67, 65
1, 14784, Note_on_c, 0, 64, 65
1, 14784, Note_on_c, 1, 52, 0
1, 14784, Note_on_c, 1, 58, 65
1, 14829, Note_on_c, 0, 67, 0
1, 14829, Note_on_c, 0, 64, 0
1, 14829, Note_on_c, 1, 58, 0
1, 14832, Note_on_c, 0, 66, 65
1, 14832, Note_on_c, 1, 59, 65
1, 14852, Note_on_c, 0, 66, 0
1, 14852, Note_on_c, 1, 59, 0
1, 14880, Note_on_c, 0, 70, 65
1, 14928, Note_on_c, 0, 70, 0
1, 14928, Note_on_c, 0, 71, 65
1, 14973, Note_on_c, 0, 71, 0
1, 14976, Note_on_c, 0, 69, 65
1, 14976, Note_on_c, 0, 66, 64
1, 15024, Note_on_c, 1, 52, 65
1, 15065, Note_on_c, 0, 66, 0
1, 15072, Note_on_c, 0, 69, 0
1, 15072, Note_on_c, 0, 67, 65
1, 15072, Note_on_c, 0, 64, 64
1, 15072, Note_on_c, 1, 52, 0
1, 15072, Note_on_c, 1, 58, 65
1, 15084, Note_on_c, 0, 67, 0
1, 15084, Note_on_c, 0, 69, 65
1, 15096, Note_on_c, 0, 69, 0
1, 15096, Note_on_c, 0, 67, 65
1, 15108, Note_on_c, 0, 67, 0
1, 15108, Note_on_c, 0, 69, 65
1, 15117, Note_on_c, 0, 69, 0
1, 15117, Note_on_c, 0, 64, 0
1, 15117, Note_on_c, 1, 58, 0
1, 15120, Note_on_c, 0, 66, 65
1, 15120, Note_on_c, 0, 63, 64
1, 15120, Note_on_c, 1, 59, 65
1, 15165, Note_on_c, 0, 66, 0
1, 15165, Note_on_c, 0, 63, 0
1, 15165, Note_on_c, 1, 59, 0
1, 15264, Note_on_c, 1, 40, 65
1, 15284, Note_on_c, 1, 40, 0
1, 15312, Note_on_c, 1, 43, 65
1, 15332, Note_on_c, 1, 43, 0
1, 15360, Note_on_c, 1, 47, 65
1, 15380, Note_on_c, 1, 47, 0
1, 15408, Note_on_c, 1, 52, 65
1, 15453, Note_on_c, 1, 52, 0
1, 15456, Note_on_c, 0, 67, 65
1, 15456, Note_on_c, 0, 59, 65
1, 15504, Note_on_c, 0, 67, 0
1, 15504, Note_on_c, 0, 59, 0
1, 15504, Note_on_c, 0, 63, 65
1, 15504, Note_on_c, 0, 57, 65
1, 15549, Note_on_c, 0, 63, 0
1, 15549, Note_on_c, 0, 57, 0
1, 15552, Note_on_c, 0, 64, 65
1, 15552, Note_on_c, 0, 55, 65
1, 15552, Note_on_c, 1, 40, 65
1, 15572, Note_on_c, 1, 40, 0
1, 15597, Note_on_c, 0, 64, 0
1, 15597, Note_on_c, 0, 55, 0
1, 15600, Note_on_c, 1, 43, 65
1, 15620, Note_on_c, 1, 43, 0
1, 15648, Note_on_c, 1, 47, 65
1, 15668, Note_on_c, 1, 47, 0
1, 15696, Note_on_c, 1, 52, 65
1, 15741, Note_on_c, 1, 52, 0
1, 15744, Note_on_c, 0, 71, 65
1, 15744, Note_on_c, 0, 67, 65
1, 15792, Note_on_c, 0, 71, 0
1, 15792, Note_on_c, 0, 67, 0
1, 15792, Note_on_c, 0, 69, 65
1, 15792, Note_on_c, 0, 66, 65
1, 15837, Note_on_c, 0, 69, 0
1, 15837, Note_on_c, 0, 66, 0
1, 15840, Note_on_c, 0, 67, 65
1, 15840, Note_on_c, 0, 64, 65
1, 15840, Note_on_c, 1, 40, 65
1, 15860, Note_on_c, 1, 40, 0
1, 15885, Note_on_c, 0, 67, 0
1, 15885, Note_on_c, 0, 64, 0
1, 15888, Note_on_c, 1, 43, 65
1, 15908, Note_on_c, 1, 43, 0
1, 15936, Note_on_c, 1, 47, 65
1, 15956, Note_on_c, 1, 47, 0
1, 15984, Note_on_c, 1, 52, 65
1, 16029, Note_on_c, 1, 52, 0
1, 16032, Note_on_c, 0, 76, 65
1, 16032, Note_on_c, 0, 68, 65
1, 16080, Note_on_c, 0, 76, 0
1, 16080, Note_on_c, 0, 68, 0
1, 16080, Note_on_c, 0, 74, 65
1, 16080, Note_on_c, 0, 71, 65
1, 16125, Note_on_c, 0, 74, 0
1, 16125, Note_on_c, 0, 71, 0
1, 16128, Note_on_c, 0, 72, 65
1, 16128, Note_on_c, 0, 69, 65
1, 16128, Note_on_c, 1, 40, 65
1, 16148, Note_on_c, 1, 40, 0
1, 16173, Note_on_c, 0, 72, 0
1, 16173, Note_on_c, 0, 69, 0
1, 16176, Note_on_c, 1, 45, 65
1, 16196, Note_on_c, 1, 45, 0
1, 16224, Note_on_c, 1, 48, 65
1, 16244, Note_on_c, 1, 48, 0
1, 16272, Note_on_c, 1, 52, 65
1, 16317, Note_on_c, 1, 52, 0
1, 16320, Note_on_c, 0, 72, 65
1, 16320, Note_on_c, 0, 69, 65
1, 16368, Note_on_c, 0, 72, 0
1, 16368, Note_on_c, 0, 69, 0
1, 16368, Note_on_c, 0, 76, 65
1, 16368, Note_on_c, 0, 67, 65
1, 16413, Note_on_c, 0, 76, 0
1, 16413, Note_on_c, 0, 67, 0
1, 16416, Note_on_c, 0, 74, 65
1, 16416, Note_on_c, 0, 66, 65
1, 16416, Note_on_c, 1, 38, 65
1, 16436, Note_on_c, 1, 38, 0
1, 16461, Note_on_c, 0, 74, 0
1, 16461, Note_on_c, 0, 66, 0
1, 16464, Note_on_c, 1, 42, 65
1, 16484, Note_on_c, 1, 42, 0
1, 16512, Note_on_c, 1, 45, 65
1, 16532, Note_on_c, 1, 45, 0
1, 16560, Note_on_c, 1, 50, 65
1, 16605, Note_on_c, 1, 50, 0
1, 16608, Note_on_c, 0, 69, 65
1, 16608, Note_on_c, 0, 66, 65
1, 16656, Note_on_c, 0, 66, 0
1, 16656, Note_on_c, 0, 72, 65
1, 16701, Note_on_c, 0, 72, 0
1, 16701, Note_on_c, 0, 69, 0
1, 16704, Note_on_c, 0, 71, 94
1, 16704, Note_on_c, 0, 67, 94
1, 16704, Note_on_c, 1, 43, 78
1, 16704, Note_on_c, 1, 31, 78
1, 16749, Note_on_c, 1, 43, 0
1, 16749, Note_on_c, 1, 31, 0
1, 16752, Note_on_c, 0, 71, 0
1, 16752, Note_on_c, 0, 67, 0
1, 16752, Note_on_c, 1, 47, 78
1, 16752, Note_on_c, 1, 35, 78
1, 16797, Note_on_c, 1, 47, 0
1, 16797, Note_on_c, 1, 35, 0
1, 16800, Note_on_c, 1, 50, 78
1, 16800, Note_on_c, 1, 38, 78
1, 16845, Note_on_c, 1, 50, 0
1, 16845, Note_on_c, 1, 38, 0
1, 16848, Note_on_c, 1, 55, 78
1, 16848, Note_on_c, 1, 43, 78
1, 16872, Note_on_c, 0, 62, 78
1, 16893, Note_on_c, 1, 55, 0
1, 16893, Note_on_c, 1, 43, 0
1, 16895, Note_on_c, 0, 62, 0
1, 16896, Note_on_c, 0, 74, 78
1, 16919, Note_on_c, 0, 74, 0
1, 16920, Note_on_c, 0, 71, 78
1, 16943, Note_on_c, 0, 71, 0
1, 16944, Note_on_c, 0, 69, 78
1, 16967, Note_on_c, 0, 69, 0
1, 16968, Note_on_c, 0, 67, 78
1, 16991, Note_on_c, 0, 67, 0
1, 16992, Note_on_c, 0, 66, 78
1, 16992, Note_on_c, 1, 45, 78
1, 16992, Note_on_c, 1, 33, 78
1, 17037, Note_on_c, 0, 66, 0
1, 17037, Note_on_c, 1, 45, 0
1, 17037, Note_on_c, 1, 33, 0
1, 17040, Note_on_c, 1, 48, 78
1, 17040, Note_on_c, 1, 36, 78
1, 17085, Note_on_c, 1, 48, 0
1, 17085, Note_on_c, 1, 36, 0
1, 17088, Note_on_c, 1, 50, 78
1, 17088, Note_on_c, 1, 38, 78
1, 17133, Note_on_c, 1, 50, 0
1, 17133, Note_on_c, 1, 38, 0
1, 17136, Note_on_c, 1, 54, 78
1, 17136, Note_on_c, 1, 42, 78
1, 17160, Note_on_c, 0, 62, 78
1, 17181, Note_on_c, 1, 54, 0
1, 17181, Note_on_c, 1, 42, 0
1, 17183, Note_on_c, 0, 62, 0
1, 17184, Note_on_c, 0, 74, 78
1, 17207, Note_on_c, 0, 74, 0
1, 17208, Note_on_c, 0, 72, 76
1, 17231, Note_on_c, 0, 72, 0
1, 17232, Note_on_c, 0, 71, 74
1, 17255, Note_on_c, 0, 71, 0
1, 17256, Note_on_c, 0, 69, 73
1, 17279, Note_on_c, 0, 69, 0
1, 17280, Note_on_c, 0, 71, 69
1, 17280, Note_on_c, 1, 55, 65
1, 17325, Note_on_c, 0, 71, 0
1, 17328, Note_on_c, 1, 59, 65
1, 17376, Note_on_c, 1, 62, 65
1, 17424, Note_on_c, 1, 67, 65
1, 17448, Note_on_c, 0, 74, 69
1, 17471, Note_on_c, 0, 74, 0
1, 17472, Note_on_c, 0, 86, 69
1, 17495, Note_on_c, 0, 86, 0
1, 17496, Note_on_c, 0, 83, 69
1, 17519, Note_on_c, 0, 83, 0
1, 17520, Note_on_c, 0, 81, 69
1, 17543, Note_on_c, 0, 81, 0
1, 17544, Note_on_c, 0, 79, 69
1, 17557, Note_on_c, 1, 67, 0
1, 17557, Note_on_c, 1, 62, 0
1, 17557, Note_on_c, 1, 59, 0
1, 17557, Note_on_c, 1, 55, 0
1, 17567, Note_on_c, 0, 79, 0
1, 17568, Note_on_c, 0, 79, 69
1, 17568, Note_on_c, 1, 57, 65
1, 17616, Note_on_c, 1, 60, 65
1, 17664, Note_on_c, 0, 79, 0
1, 17664, Note_on_c, 0, 78, 69
1, 17664, Note_on_c, 1, 62, 65
1, 17709, Note_on_c, 0, 78, 0
1, 17712, Note_on_c, 1, 66, 65
1, 17736, Note_on_c, 0, 74, 69
1, 17759, Note_on_c, 0, 74, 0
1, 17760, Note_on_c, 0, 86, 69
1, 17783, Note_on_c, 0, 86, 0
1, 17784, Note_on_c, 0, 84, 69
1, 17807, Note_on_c, 0, 84, 0
1, 17808, Note_on_c, 0, 83, 69
1, 17831, Note_on_c, 0, 83, 0
1, 17832, Note_on_c, 0, 81, 69
1, 17845, Note_on_c, 1, 66, 0
1, 17845, Note_on_c, 1, 62, 0
1, 17845, Note_on_c, 1, 60, 0
1, 17845, Note_on_c, 1, 57, 0
1, 17855, Note_on_c, 0, 81, 0
1, 17856, Note_on_c, 0, 81, 69
1, 17856, Note_on_c, 1, 55, 65
1, 17904, Note_on_c, 1, 59, 65
1, 17952, Note_on_c, 0, 81, 0
1, 17952, Note_on_c, 0, 83, 69
1, 17952, Note_on_c, 1, 62, 65
1, 17997, Note_on_c, 0, 83, 0
1, 18000, Note_on_c, 1, 67, 65
1, 18024, Note_on_c, 0, 74, 69
1, 18047, Note_on_c, 0, 74, 0
1, 18048, Note_on_c, 0, 86, 69
1, 18071, Note_on_c, 0, 86, 0
1, 18072, Note_on_c, 0, 83, 69
1, 18095, Note_on_c, 0, 83, 0
1, 18096, Note_on_c, 0, 81, 69
1, 18119, Note_on_c, 0, 81, 0
1, 18120, Note_on_c, 0, 79, 69
1, 18133, Note_on_c, 1, 67, 0
1, 18133, Note_on_c, 1, 62, 0
1, 18133, Note_on_c, 1, 59, 0
1, 18133, Note_on_c, 1, 55, 0
1, 18143, Note_on_c, 0, 79, 0
1, 18144, Note_on_c, 0, 88, 69
1, 18144, Note_on_c, 1, 60, 65
1, 18167, Note_on_c, 0, 88, 0
1, 18168, Note_on_c, 0, 76, 69
1, 18189, Note_on_c, 1, 60, 0
1, 18191, Note_on_c, 0, 76, 0
1, 18192, Note_on_c, 0, 84, 69
1, 18192, Note_on_c, 1, 69, 65
1, 18215, Note_on_c, 0, 84, 0
1, 18216, Note_on_c, 0, 88, 69
1, 18237, Note_on_c, 1, 69, 0
1, 18239, Note_on_c, 0, 88, 0
1, 18240, Note_on_c, 0, 83, 69
1, 18240, Note_on_c, 1, 67, 65
1, 18263, Note_on_c, 0, 83, 0
1, 18264, Note_on_c, 0, 88, 69
1, 18285, Note_on_c, 1, 67, 0
1, 18287, Note_on_c, 0, 88, 0
1, 18288, Note_on_c, 0, 81, 69
1, 18288, Note_on_c, 1, 66, 65
1, 18311, Note_on_c, 0, 81, 0
1, 18312, Note_on_c, 0, 83, 69
1, 18335, Note_on_c, 0, 83, 0
1, 18336, Note_on_c, 0, 84, 69
1, 18359, Note_on_c, 0, 84, 0
1, 18360, Note_on_c, 0, 86, 69
1, 18377, Note_on_c, 1, 66, 0
1, 18383, Note_on_c, 0, 86, 0
1, 18384, Note_on_c, 0, 88, 69
1, 18407, Note_on_c, 0, 88, 0
1, 18408, Note_on_c, 0, 84, 69
1, 18431, Note_on_c, 0, 84, 0
1, 18432, Note_on_c, 0, 86, 69
1, 18432, Note_on_c, 1, 59, 65
1, 18455, Note_on_c, 0, 86, 0
1, 18456, Note_on_c, 0, 74, 69
1, 18477, Note_on_c, 1, 59, 0
1, 18479, Note_on_c, 0, 74, 0
1, 18480, Note_on_c, 0, 83, 69
1, 18480, Note_on_c, 1, 67, 65
1, 18503, Note_on_c, 0, 83, 0
1, 18504, Note_on_c, 0, 86, 69
1, 18525, Note_on_c, 1, 67, 0
1, 18527, Note_on_c, 0, 86, 0
1, 18528, Note_on_c, 0, 81, 69
1, 18528, Note_on_c, 1, 66, 65
1, 18551, Note_on_c, 0, 81, 0
1, 18552, Note_on_c, 0, 86, 69
1, 18573, Note_on_c, 1, 66, 0
1, 18575, Note_on_c, 0, 86, 0
1, 18576, Note_on_c, 0, 79, 69
1, 18576, Note_on_c, 1, 64, 65
1, 18599, Note_on_c, 0, 79, 0
1, 18600, Note_on_c, 0, 81, 69
1, 18623, Note_on_c, 0, 81, 0
1, 18624, Note_on_c, 0, 83, 69
1, 18647, Note_on_c, 0, 83, 0
1, 18648, Note_on_c, 0, 84, 69
1, 18665, Note_on_c, 1, 64, 0
1, 18671, Note_on_c, 0, 84, 0
1, 18672, Note_on_c, 0, 86, 69
1, 18695, Note_on_c, 0, 86, 0
1, 18696, Note_on_c, 0, 83, 69
1, 18719, Note_on_c, 0, 83, 0
1, 18720, Note_on_c, 0, 84, 69
1, 18720, Note_on_c, 1, 57, 65
1, 18743, Note_on_c, 0, 84, 0
1, 18744, Note_on_c, 0, 72, 69
1, 18765, Note_on_c, 1, 57, 0
1, 18767, Note_on_c, 0, 72, 0
1, 18768, Note_on_c, 0, 81, 69
1, 18768, Note_on_c, 1, 66, 65
1, 18791, Note_on_c, 0, 81, 0
1, 18792, Note_on_c, 0, 84, 69
1, 18813, Note_on_c, 1, 66, 0
1, 18815, Note_on_c, 0, 84, 0
1, 18816, Note_on_c, 0, 79, 69
1, 18816, Note_on_c, 1, 64, 65
1, 18839, Note_on_c, 0, 79, 0
1, 18840, Note_on_c, 0, 84, 69
1, 18861, Note_on_c, 1, 64, 0
1, 18863, Note_on_c, 0, 84, 0
1, 18864, Note_on_c, 0, 78, 69
1, 18864, Note_on_c, 1, 62, 65
1, 18887, Note_on_c, 0, 78, 0
1, 18888, Note_on_c, 0, 84, 69
1, 18909, Note_on_c, 1, 62, 0
1, 18911, Note_on_c, 0, 84, 0
1, 18912, Note_on_c, 0, 79, 69
1, 18912, Note_on_c, 1, 64, 65
1, 18935, Note_on_c, 0, 79, 0
1, 18936, Note_on_c, 0, 84, 69
1, 18957, Note_on_c, 1, 64, 0
1, 18959, Note_on_c, 0, 84, 0
1, 18960, Note_on_c, 0, 81, 69
1, 18960, Note_on_c, 1, 66, 65
1, 18983, Note_on_c, 0, 81, 0
1, 18984, Note_on_c, 0, 84, 69
1, 19005, Note_on_c, 1, 66, 0
1, 19007, Note_on_c, 0, 84, 0
1, 19008, Note_on_c, 0, 83, 69
1, 19008, Note_on_c, 1, 55, 65
1, 19031, Note_on_c, 1, 55, 0
1, 19032, Note_on_c, 1, 67, 65
1, 19053, Note_on_c, 0, 83, 0
1, 19055, Note_on_c, 1, 67, 0
1, 19056, Note_on_c, 0, 86, 69
1, 19056, Note_on_c, 1, 57, 65
1, 19068, Note_on_c, 0, 86, 0
1, 19068, Note_on_c, 0, 84, 69
1, 19079, Note_on_c, 1, 57, 0
1, 19080, Note_on_c, 0, 84, 0
1, 19080, Note_on_c, 0, 83, 69
1, 19080, Note_on_c, 1, 67, 65
1, 19092, Note_on_c, 0, 83, 0
1, 19092, Note_on_c, 0, 84, 69
1, 19103, Note_on_c, 1, 67, 0
1, 19104, Note_on_c, 0, 84, 0
1, 19104, Note_on_c, 0, 86, 69
1, 19104, Note_on_c, 1, 59, 65
1, 19127, Note_on_c, 1, 59, 0
1, 19128, Note_on_c, 1, 67, 65
1, 19149, Note_on_c, 0, 86, 0
1, 19151, Note_on_c, 1, 67, 0
1, 19152, Note_on_c, 0, 81, 69
1, 19152, Note_on_c, 1, 60, 65
1, 19175, Note_on_c, 1, 60, 0
1, 19176, Note_on_c, 1, 67, 65
1, 19197, Note_on_c, 0, 81, 0
1, 19199, Note_on_c, 1, 67, 0
1, 19200, Note_on_c, 0, 81, 69
1, 19200, Note_on_c, 1, 60, 65
1, 19223, Note_on_c, 1, 60, 0
1, 19224, Note_on_c, 1, 67, 65
1, 19245, Note_on_c, 0, 81, 0
1, 19247, Note_on_c, 1, 67, 0
1, 19248, Note_on_c, 0, 81, 69
1, 19248, Note_on_c, 1, 60, 65
1, 19271, Note_on_c, 1, 60, 0
1, 19272, Note_on_c, 1, 67, 65
1, 19293, Note_on_c, 0, 81, 0
1, 19295, Note_on_c, 1, 67, 0
1, 19296, Note_on_c, 0, 83, 69
1, 19296, Note_on_c, 1, 55, 65
1, 19319, Note_on_c, 1, 55, 0
1, 19320, Note_on_c, 1, 67, 65
1, 19341, Note_on_c, 0, 83, 0
1, 19343, Note_on_c, 1, 67, 0
1, 19344, Note_on_c, 0, 86, 69
1, 19344, Note_on_c, 1, 57, 65
1, 19356, Note_on_c, 0, 86, 0
1, 19356, Note_on_c, 0, 84, 69
1, 19367, Note_on_c, 1, 57, 0
1, 19368, Note_on_c, 0, 84, 0
1, 19368, Note_on_c, 0, 83, 69
1, 19368, Note_on_c, 1, 67, 65
1, 19380, Note_on_c, 0, 83, 0
1, 19380, Note_on_c, 0, 84, 69
1, 19391, Note_on_c, 1, 67, 0
1, 19392, Note_on_c, 0, 84, 0
1, 19392, Note_on_c, 0, 86, 69
1, 19392, Note_on_c, 1, 59, 65
1, 19415, Note_on_c, 1, 59, 0
1, 19416, Note_on_c, 1, 67, 65
1, 19437, Note_on_c, 0, 86, 0
1, 19439, Note_on_c, 1, 67, 0
1, 19440, Note_on_c, 0, 81, 69
1, 19440, Note_on_c, 1, 60, 65
1, 19463, Note_on_c, 1, 60, 0
1, 19464, Note_on_c, 1, 67, 65
1, 19485, Note_on_c, 0, 81, 0
1, 19487, Note_on_c, 1, 67, 0
1, 19488, Note_on_c, 0, 81, 69
1, 19488, Note_on_c, 1, 60, 65
1, 19511, Note_on_c, 1, 60, 0
1, 19512, Note_on_c, 1, 67, 65
1, 19533, Note_on_c, 0, 81, 0
1, 19535, Note_on_c, 1, 67, 0
1, 19536, Note_on_c, 0, 81, 69
1, 19536, Note_on_c, 1, 60, 65
1, 19559, Note_on_c, 1, 60, 0
1, 19560, Note_on_c, 1, 67, 65
1, 19581, Note_on_c, 0, 81, 0
1, 19583, Note_on_c, 1, 67, 0
1, 19584, Note_on_c, 0, 83, 69
1, 19584, Note_on_c, 1, 55, 65
1, 19607, Note_on_c, 1, 55, 0
1, 19608, Note_on_c, 1, 67, 65
1, 19629, Note_on_c, 0, 83, 0
1, 19631, Note_on_c, 1, 67, 0
1, 19632, Note_on_c, 0, 86, 69
1, 19632, Note_on_c, 1, 57, 65
1, 19644, Note_on_c, 0, 86, 0
1, 19644, Note_on_c, 0, 84, 69
1, 19655, Note_on_c, 1, 57, 0
1, 19656, Note_on_c, 0, 84, 0
1, 19656, Note_on_c, 0, 83, 69
1, 19656, Note_on_c, 1, 67, 65
1, 19668, Note_on_c, 0, 83, 0
1, 19668, Note_on_c, 0, 84, 69
1, 19679, Note_on_c, 1, 67, 0
1, 19680, Note_on_c, 0, 84, 0
1, 19680, Note_on_c, 0, 86, 69
1, 19680, Note_on_c, 1, 59, 65
1, 19703, Note_on_c, 1, 59, 0
1, 19704, Note_on_c, 1, 67, 65
1, 19725, Note_on_c, 0, 86, 0
1, 19727, Note_on_c, 1, 67, 0
1, 19728, Note_on_c, 0, 81, 69
1, 19728, Note_on_c, 1, 60, 65
1, 19751, Note_on_c, 1, 60, 0
1, 19752, Note_on_c, 1, 67, 65
1, 19773, Note_on_c, 0, 81, 0
1, 19775, Note_on_c, 1, 67, 0
1, 19776, Note_on_c, 0, 81, 69
1, 19776, Note_on_c, 1, 60, 65
1, 19799, Note_on_c, 1, 60, 0
1, 19800, Note_on_c, 1, 67, 65
1, 19821, Note_on_c, 0, 81, 0
1, 19823, Note_on_c, 1, 67, 0
1, 19824, Note_on_c, 0, 81, 69
1, 19824, Note_on_c, 1, 60, 65
1, 19847, Note_on_c, 1, 60, 0
1, 19848, Note_on_c, 1, 67, 65
1, 19869, Note_on_c, 0, 81, 0
1, 19871, Note_on_c, 1, 67, 0
1, 19872, Note_on_c, 0, 79, 69
1, 19872, Note_on_c, 1, 61, 65
1, 19895, Note_on_c, 1, 61, 0
1, 19896, Note_on_c, 1, 70, 65
1, 19917, Note_on_c, 0, 79, 0
1, 19919, Note_on_c, 1, 70, 0
1, 19920, Note_on_c, 0, 79, 69
1, 19920, Note_on_c, 1, 61, 65
1, 19943, Note_on_c, 1, 61, 0
1, 19944, Note_on_c, 1, 70, 65
1, 19965, Note_on_c, 0, 79, 0
1, 19967, Note_on_c, 1, 70, 0
1, 19968, Note_on_c, 0, 79, 69
1, 19968, Note_on_c, 1, 61, 65
1, 19991, Note_on_c, 1, 61, 0
1, 19992, Note_on_c, 1, 70, 65
1, 20013, Note_on_c, 0, 79, 0
1, 20015, Note_on_c, 1, 70, 0
1, 20016, Note_on_c, 0, 78, 69
1, 20016, Note_on_c, 1, 62, 65
1, 20039, Note_on_c, 1, 62, 0
1, 20040, Note_on_c, 1, 69, 65
1, 20061, Note_on_c, 0, 78, 0
1, 20063, Note_on_c, 1, 69, 0
1, 20064, Note_on_c, 0, 78, 69
1, 20064, Note_on_c, 1, 62, 65
1, 20087, Note_on_c, 1, 62, 0
1, 20088, Note_on_c, 1, 69, 65
1, 20109, Note_on_c, 0, 78, 0
1, 20111, Note_on_c, 1, 69, 0
1, 20112, Note_on_c, 0, 78, 69
1, 20112, Note_on_c, 1, 62, 65
1, 20135, Note_on_c, 1, 62, 0
1, 20136, Note_on_c, 1, 69, 65
1, 20157, Note_on_c, 0, 78, 0
1, 20159, Note_on_c, 1, 69, 0
1, 20160, Note_on_c, 0, 73, 69
1, 20160, Note_on_c, 1, 64, 65
1, 20183, Note_on_c, 1, 64, 0
1, 20184, Note_on_c, 1, 67, 65
1, 20205, Note_on_c, 0, 73, 0
1, 20207, Note_on_c, 1, 67, 0
1, 20208, Note_on_c, 0, 73, 69
1, 20208, Note_on_c, 1, 64, 65
1, 20231, Note_on_c, 1, 64, 0
1, 20232, Note_on_c, 1, 67, 65
1, 20253, Note_on_c, 0, 73, 0
1, 20255, Note_on_c, 1, 67, 0
1, 20256, Note_on_c, 0, 73, 69
1, 20256, Note_on_c, 1, 64, 65
1, 20279, Note_on_c, 1, 64, 0
1, 20280, Note_on_c, 1, 67, 65
1, 20301, Note_on_c, 0, 73, 0
1, 20303, Note_on_c, 1, 67, 0
1, 20304, Note_on_c, 0, 74, 69
1, 20304, Note_on_c, 1, 66, 65
1, 20327, Note_on_c, 0, 74, 0
1, 20328, Note_on_c, 0, 69, 69
1, 20349, Note_on_c, 1, 66, 0
1, 20351, Note_on_c, 0, 69, 0
1, 20352, Note_on_c, 0, 71, 69
1, 20375, Note_on_c, 0, 71, 0
1, 20376, Note_on_c, 0, 73, 69
1, 20399, Note_on_c, 0, 73, 0
1, 20400, Note_on_c, 0, 74, 70
1, 20423, Note_on_c, 0, 74, 0
1, 20424, Note_on_c, 0, 76, 70
1, 20447, Note_on_c, 0, 76, 0
1, 20448, Note_on_c, 0, 78, 71
1, 20471, Note_on_c, 0, 78, 0
1, 20472, Note_on_c, 0, 74, 71
1, 20472, Note_on_c, 1, 62, 73
1, 20495, Note_on_c, 0, 74, 0
1, 20495, Note_on_c, 1, 62, 0
1, 20496, Note_on_c, 0, 76, 72
1, 20496, Note_on_c, 1, 64, 73
1, 20519, Note_on_c, 0, 76, 0
1, 20519, Note_on_c, 1, 64, 0
1, 20520, Note_on_c, 0, 78, 72
1, 20520, Note_on_c, 1, 66, 73
1, 20543, Note_on_c, 0, 78, 0
1, 20543, Note_on_c, 1, 66, 0
1, 20544, Note_on_c, 0, 79, 73
1, 20544, Note_on_c, 1, 67, 74
1, 20567, Note_on_c, 0, 79, 0
1, 20567, Note_on_c, 1, 67, 0
1, 20568, Note_on_c, 0, 81, 73
1, 20568, Note_on_c, 1, 69, 74
1, 20591, Note_on_c, 0, 81, 0
1, 20591, Note_on_c, 1, 69, 0
1, 20592, Note_on_c, 0, 83, 74
1, 20592, Note_on_c, 1, 71, 74
1, 20615, Note_on_c, 0, 83, 0
1, 20615, Note_on_c, 1, 71, 0
1, 20616, Note_on_c, 0, 81, 74
1, 20616, Note_on_c, 1, 69, 75
1, 20639, Note_on_c, 0, 81, 0
1, 20639, Note_on_c, 1, 69, 0
1, 20640, Note_on_c, 0, 79, 75
1, 20640, Note_on_c, 1, 67, 75
1, 20663, Note_on_c, 0, 79, 0
1, 20663, Note_on_c, 1, 67, 0
1, 20664, Note_on_c, 0, 81, 75
1, 20664, Note_on_c, 1, 69, 76
1, 20687, Note_on_c, 0, 81, 0
1, 20687, Note_on_c, 1, 69, 0
1, 20688, Note_on_c, 0, 83, 76
1, 20688, Note_on_c, 1, 71, 76
1, 20711, Note_on_c, 0, 83, 0
1, 20711, Note_on_c, 1, 71, 0
1, 20712, Note_on_c, 0, 85, 76
1, 20712, Note_on_c, 1, 73, 76
1, 20735, Note_on_c, 0, 85, 0
1, 20735, Note_on_c, 1, 73, 0
1, 20736, Note_on_c, 0, 86, 93
1, 20736, Note_on_c, 1, 74, 77
1, 20781, Note_on_c, 1, 74, 0
1, 20784, Note_on_c, 0, 86, 0
1, 20784, Note_on_c, 0, 81, 78
1, 20784, Note_on_c, 1, 69, 78
1, 20829, Note_on_c, 0, 81, 0
1, 20829, Note_on_c, 1, 69, 0
1, 20832, Note_on_c, 0, 78, 78
1, 20832, Note_on_c, 1, 66, 78
1, 20877, Note_on_c, 0, 78, 0
1, 20877, Note_on_c, 1, 66, 0
1, 20880, Note_on_c, 0, 74, 78
1, 20880, Note_on_c, 1, 62, 78
1, 20925, Note_on_c, 0, 74, 0
1, 20925, Note_on_c, 1, 62, 0
1, 20928, Note_on_c, 0, 69, 78
1, 20928, Note_on_c, 1, 57, 78
1, 20973, Note_on_c, 0, 69, 0
1, 20973, Note_on_c, 1, 57, 0
1, 20976, Note_on_c, 0, 66, 78
1, 20976, Note_on_c, 1, 54, 78
1, 21021, Note_on_c, 0, 66, 0
1, 21021, Note_on_c, 1, 54, 0
1, 21024, Note_on_c, 0, 62, 78
1, 21024, Note_on_c, 1, 50, 78
1, 21157, Note_on_c, 0, 62, 0
1, 21157, Note_on_c, 1, 50, 0
1, 21312, Note_on_c, 1, 43, 73
1, 21312, Note_on_c, 1, 31, 73
1, 21360, Note_on_c, 0, 74, 73
1, 21360, Note_on_c, 0, 71, 73
1, 21401, Note_on_c, 1, 43, 0
1, 21401, Note_on_c, 1, 31, 0
1, 21405, Note_on_c, 0, 74, 0
1, 21405, Note_on_c, 0, 71, 0
1, 21408, Note_on_c, 0, 72, 73
1, 21408, Note_on_c, 0, 69, 73
1, 21453, Note_on_c, 0, 72, 0
1, 21453, Note_on_c, 0, 69, 0
1, 21456, Note_on_c, 0, 71, 73
1, 21456, Note_on_c, 0, 67, 73
1, 21501, Note_on_c, 0, 71, 0
1, 21501, Note_on_c, 0, 67, 0
1, 21504, Note_on_c, 0, 83, 73
1, 21504, Note_on_c, 0, 74, 73
1, 21549, Note_on_c, 0, 83, 0
1, 21549, Note_on_c, 0, 74, 0
1, 21552, Note_on_c, 0, 79, 73
1, 21552, Note_on_c, 0, 71, 73
1, 21552, Note_on_c, 1, 59, 69
1, 21552, Note_on_c, 1, 55, 69
1, 21597, Note_on_c, 0, 79, 0
1, 21597, Note_on_c, 0, 71, 0
1, 21597, Note_on_c, 1, 59, 0
1, 21597, Note_on_c, 1, 55, 0
1, 21600, Note_on_c, 0, 78, 73
1, 21600, Note_on_c, 0, 69, 73
1, 21600, Note_on_c, 1, 60, 69
1, 21600, Note_on_c, 1, 57, 69
1, 21645, Note_on_c, 0, 78, 0
1, 21645, Note_on_c, 0, 69, 0
1, 21648, Note_on_c, 0, 84, 73
1, 21648, Note_on_c, 0, 81, 73
1, 21689, Note_on_c, 1, 60, 0
1, 21689, Note_on_c, 1, 57, 0
1, 21693, Note_on_c, 0, 84, 0
1, 21693, Note_on_c, 0, 81, 0
1, 21696, Note_on_c, 0, 83, 73
1, 21696, Note_on_c, 0, 79, 73
1, 21741, Note_on_c, 0, 83, 0
1, 21741, Note_on_c, 0, 79, 0
1, 21744, Note_on_c, 0, 81, 73
1, 21744, Note_on_c, 0, 78, 73
1, 21789, Note_on_c, 0, 81, 0
1, 21789, Note_on_c, 0, 78, 0
1, 21792, Note_on_c, 0, 88, 73
1, 21792, Note_on_c, 0, 84, 73
1, 21792, Note_on_c, 1, 66, 69
1, 21792, Note_on_c, 1, 62, 69
1, 21837, Note_on_c, 0, 88, 0
1, 21837, Note_on_c, 0, 84, 0
1, 21840, Note_on_c, 0, 84, 73
1, 21840, Note_on_c, 0, 81, 73
1, 21840, Note_on_c, 1, 62, 0
1, 21840, Note_on_c, 1, 69, 69
1, 21885, Note_on_c, 0, 84, 0
1, 21885, Note_on_c, 0, 81, 0
1, 21885, Note_on_c, 1, 69, 0
1, 21885, Note_on_c, 1, 66, 0
1, 21888, Note_on_c, 0, 83, 73
1, 21888, Note_on_c, 0, 79, 64
1, 21888, Note_on_c, 1, 71, 69
1, 21888, Note_on_c, 1, 67, 69
1, 21933, Note_on_c, 0, 83, 0
1, 21936, Note_on_c, 0, 86, 73
1, 21977, Note_on_c, 0, 79, 0
1, 21977, Note_on_c, 1, 71, 0
1, 21977, Note_on_c, 1, 67, 0
1, 21984, Note_on_c, 0, 74, 64
1, 21984, Note_on_c, 1, 71, 69
1, 22029, Note_on_c, 0, 74, 0
1, 22029, Note_on_c, 1, 71, 0
1, 22032, Note_on_c, 0, 76, 64
1, 22032, Note_on_c, 1, 72, 69
1, 22077, Note_on_c, 0, 76, 0
1, 22077, Note_on_c, 1, 72, 0
1, 22080, Note_on_c, 0, 80, 64
1, 22080, Note_on_c, 1, 71, 69
1, 22121, Note_on_c, 0, 86, 0
1, 22125, Note_on_c, 0, 80, 0
1, 22125, Note_on_c, 1, 71, 0
1, 22128, Note_on_c, 0, 84, 73
1, 22128, Note_on_c, 0, 81, 64
1, 22128, Note_on_c, 1, 69, 69
1, 22173, Note_on_c, 0, 81, 0
1, 22173, Note_on_c, 1, 69, 0
1, 22176, Note_on_c, 0, 75, 64
1, 22176, Note_on_c, 1, 67, 69
1, 22221, Note_on_c, 0, 75, 0
1, 22221, Note_on_c, 1, 67, 0
1, 22224, Note_on_c, 0, 74, 64
1, 22224, Note_on_c, 1, 66, 69
1, 22265, Note_on_c, 0, 84, 0
1, 22269, Note_on_c, 1, 66, 0
1, 22272, Note_on_c, 0, 83, 73
1, 22272, Note_on_c, 1, 67, 69
1, 22313, Note_on_c, 0, 74, 0
1, 22317, Note_on_c, 0, 83, 0
1, 22317, Note_on_c, 1, 67, 0
1, 22320, Note_on_c, 0, 81, 73
1, 22320, Note_on_c, 0, 76, 64
1, 22320, Note_on_c, 1, 72, 69
1, 22320, Note_on_c, 1, 60, 64
1, 22365, Note_on_c, 0, 81, 0
1, 22365, Note_on_c, 0, 76, 0
1, 22365, Note_on_c, 1, 72, 0
1, 22368, Note_on_c, 0, 83, 73
1, 22368, Note_on_c, 0, 74, 64
1, 22368, Note_on_c, 1, 71, 69
1, 22413, Note_on_c, 0, 83, 0
1, 22413, Note_on_c, 0, 74, 0
1, 22413, Note_on_c, 1, 71, 0
1, 22416, Note_on_c, 0, 84, 73
1, 22416, Note_on_c, 0, 72, 64
1, 22416, Note_on_c, 1, 69, 69
1, 22453, Note_on_c, 1, 60, 0
1, 22461, Note_on_c, 0, 84, 0
1, 22461, Note_on_c, 0, 72, 0
1, 22461, Note_on_c, 1, 69, 0
1, 22464, Note_on_c, 0, 79, 73
1, 22464, Note_on_c, 0, 74, 64
1, 22464, Note_on_c, 1, 71, 69
1, 22464, Note_on_c, 1, 62, 64
1, 22597, Note_on_c, 0, 74, 0
1, 22597, Note_on_c, 1, 71, 0
1, 22608, Note_on_c, 0, 72, 64
1, 22608, Note_on_c, 1, 69, 69
1, 22653, Note_on_c, 0, 79, 0
1, 22656, Note_on_c, 0, 81, 73
1, 22701, Note_on_c, 0, 81, 0
1, 22704, Note_on_c, 0, 78, 73
1, 22729, Note_on_c, 1, 62, 0
1, 22741, Note_on_c, 0, 72, 0
1, 22741, Note_on_c, 1, 69, 0
1, 22749, Note_on_c, 0, 78, 0
1, 22752, Note_on_c, 0, 79, 73
1, 22752, Note_on_c, 0, 71, 64
1, 22752, Note_on_c, 1, 67, 69
1, 22752, Note_on_c, 1, 67, 64
1, 22885, Note_on_c, 0, 79, 0
1, 22885, Note_on_c, 0, 71, 0
1, 22885, Note_on_c, 1, 67, 0
1, 22885, Note_on_c, 1, 67, 0
1, 23040, Note_on_c, 1, 43, 73
1, 23040, Note_on_c, 1, 31, 73
1, 23088, Note_on_c, 0, 74, 73
1, 23088, Note_on_c, 0, 71, 73
1, 23129, Note_on_c, 1, 43, 0
1, 23129, Note_on_c, 1, 31, 0
1, 23133, Note_on_c, 0, 74, 0
1, 23133, Note_on_c, 0, 71, 0
1, 23136, Note_on_c, 0, 72, 73
1, 23136, Note_on_c, 0, 69, 73
1, 23181, Note_on_c, 0, 72, 0
1, 23181, Note_on_c, 0, 69, 0
1, 23184, Note_on_c, 0, 71, 73
1, 23184, Note_on_c, 0, 67, 73
1, 23229, Note_on_c, 0, 71, 0
1, 23229, Note_on_c, 0, 67, 0
1, 23232, Note_on_c, 0, 83, 73
1, 23232, Note_on_c, 0, 74, 73
1, 23277, Note_on_c, 0, 83, 0
1, 23277, Note_on_c, 0, 74, 0
1, 23280, Note_on_c, 0, 79, 73
1, 23280, Note_on_c, 0, 71, 73
1, 23280, Note_on_c, 1, 59, 69
1, 23280, Note_on_c, 1, 55, 69
1, 23325, Note_on_c, 0, 79, 0
1, 23325, Note_on_c, 0, 71, 0
1, 23325, Note_on_c, 1, 59, 0
1, 23325, Note_on_c, 1, 55, 0
1, 23328, Note_on_c, 0, 78, 73
1, 23328, Note_on_c, 0, 69, 73
1, 23328, Note_on_c, 1, 60, 69
1, 23328, Note_on_c, 1, 57, 69
1, 23373, Note_on_c, 0, 78, 0
1, 23373, Note_on_c, 0, 69, 0
1, 23376, Note_on_c, 0, 84, 73
1, 23376, Note_on_c, 0, 81, 73
1, 23417, Note_on_c, 1, 60, 0
1, 23417, Note_on_c, 1, 57, 0
1, 23421, Note_on_c, 0, 84, 0
1, 23421, Note_on_c, 0, 81, 0
1, 23424, Note_on_c, 0, 83, 73
1, 23424, Note_on_c, 0, 79, 73
1, 23469, Note_on_c, 0, 83, 0
1, 23469, Note_on_c, 0, 79, 0
1, 23472, Note_on_c, 0, 81, 73
1, 23472, Note_on_c, 0, 78, 73
1, 23517, Note_on_c, 0, 81, 0
1, 23517, Note_on_c, 0, 78, 0
1, 23520, Note_on_c, 0, 88, 73
1, 23520, Note_on_c, 0, 84, 73
1, 23520, Note_on_c, 1, 66, 69
1, 23520, Note_on_c, 1, 62, 69
1, 23565, Note_on_c, 0, 88, 0
1, 23565, Note_on_c, 0, 84, 0
1, 23568, Note_on_c, 0, 84, 73
1, 23568, Note_on_c, 0, 81, 73
1, 23568, Note_on_c, 1, 62, 0
1, 23568, Note_on_c, 1, 69, 69
1, 23613, Note_on_c, 0, 84, 0
1, 23613, Note_on_c, 0, 81, 0
1, 23613, Note_on_c, 1, 69, 0
1, 23613, Note_on_c, 1, 66, 0
1, 23616, Note_on_c, 0, 83, 73
1, 23616, Note_on_c, 0, 79, 64
1, 23616, Note_on_c, 1, 71, 69
1, 23616, Note_on_c, 1, 67, 69
1, 23661, Note_on_c, 0, 83, 0
1, 23664, Note_on_c, 0, 86, 73
1, 23705, Note_on_c, 0, 79, 0
1, 23705, Note_on_c, 1, 71, 0
1, 23705, Note_on_c, 1, 67, 0
1, 23712, Note_on_c, 0, 74, 64
1, 23712, Note_on_c, 1, 71, 69
1, 23757, Note_on_c, 0, 74, 0
1, 23757, Note_on_c, 1, 71, 0
1, 23760, Note_on_c, 0, 76, 64
1, 23760, Note_on_c, 1, 72, 69
1, 23805, Note_on_c, 0, 76, 0
1, 23805, Note_on_c, 1, 72, 0
1, 23808, Note_on_c, 0, 80, 64
1, 23808, Note_on_c, 1, 71, 69
1, 23849, Note_on_c, 0, 86, 0
1, 23853, Note_on_c, 0, 80, 0
1, 23853, Note_on_c, 1, 71, 0
1, 23856, Note_on_c, 0, 84, 73
1, 23856, Note_on_c, 0, 81, 64
1, 23856, Note_on_c, 1, 69, 69
1, 23901, Note_on_c, 0, 81, 0
1, 23901, Note_on_c, 1, 69, 0
1, 23904, Note_on_c, 0, 75, 64
1, 23904, Note_on_c, 1, 67, 69
1, 23949, Note_on_c, 0, 75, 0
1, 23949, Note_on_c, 1, 67, 0
1, 23952, Note_on_c, 0, 74, 64
1, 23952, Note_on_c, 1, 66, 69
1, 23993, Note_on_c, 0, 84, 0
1, 23997, Note_on_c, 1, 66, 0
1, 24000, Note_on_c, 0, 83, 73
1, 24000, Note_on_c, 1, 67, 69
1, 24041, Note_on_c, 0, 74, 0
1, 24045, Note_on_c, 1, 67, 0
1, 24048, Note_on_c, 0, 72, 64
1, 24048, Note_on_c, 1, 64, 69
1, 24089, Note_on_c, 0, 83, 0
1, 24093, Note_on_c, 1, 64, 0
1, 24096, Note_on_c, 0, 81, 73
1, 24096, Note_on_c, 1, 66, 69
1, 24137, Note_on_c, 0, 72, 0
1, 24141, Note_on_c, 1, 66, 0
1, 24144, Note_on_c, 0, 71, 64
1, 24144, Note_on_c, 1, 63, 69
1, 24185, Note_on_c, 0, 81, 0
1, 24189, Note_on_c, 1, 63, 0
1, 24192, Note_on_c, 0, 79, 73
1, 24192, Note_on_c, 1, 64, 69
1, 24212, Note_on_c, 0, 79, 0
1, 24237, Note_on_c, 0, 71, 0
1, 24237, Note_on_c, 1, 64, 0
1, 24240, Note_on_c, 0, 79, 73
1, 24240, Note_on_c, 0, 69, 64
1, 24240, Note_on_c, 1, 60, 69
1, 24260, Note_on_c, 0, 79, 0
1, 24285, Note_on_c, 0, 69, 0
1, 24285, Note_on_c, 1, 60, 0
1, 24288, Note_on_c, 0, 79, 73
1, 24288, Note_on_c, 0, 70, 64
1, 24288, Note_on_c, 1, 61, 69
1, 24308, Note_on_c, 0, 79, 0
1, 24333, Note_on_c, 0, 70, 0
1, 24333, Note_on_c, 1, 61, 0
1, 24336, Note_on_c, 0, 79, 73
1, 24336, Note_on_c, 0, 71, 64
1, 24336, Note_on_c, 1, 62, 69
1, 24356, Note_on_c, 0, 79, 0
1, 24381, Note_on_c, 0, 71, 0
1, 24381, Note_on_c, 1, 62, 0
1, 24384, Note_on_c, 0, 79, 73
1, 24384, Note_on_c, 0, 72, 64
1, 24384, Note_on_c, 1, 63, 69
1, 24404, Note_on_c, 0, 79, 0
1, 24429, Note_on_c, 0, 72, 0
1, 24429, Note_on_c, 1, 63, 0
1, 24432, Note_on_c, 0, 79, 73
1, 24432, Note_on_c, 0, 73, 64
1, 24432, Note_on_c, 1, 64, 69
1, 24452, Note_on_c, 0, 79, 0
1, 24477, Note_on_c, 0, 73, 0
1, 24477, Note_on_c, 1, 64, 0
1, 24480, Note_on_c, 0, 79, 73
1, 24480, Note_on_c, 0, 74, 64
1, 24480, Note_on_c, 1, 71, 69
1, 24480, Note_on_c, 1, 62, 64
1, 24613, Note_on_c, 0, 74, 0
1, 24613, Note_on_c, 1, 71, 0
1, 24624, Note_on_c, 0, 72, 64
1, 24624, Note_on_c, 1, 69, 69
1, 24669, Note_on_c, 0, 79, 0
1, 24672, Note_on_c, 0, 81, 73
1, 24717, Note_on_c, 0, 81, 0
1, 24720, Note_on_c, 0, 78, 73
1, 24745, Note_on_c, 1, 62, 0
1, 24757, Note_on_c, 0, 72, 0
1, 24757, Note_on_c, 1, 69, 0
1, 24765, Note_on_c, 0, 78, 0
1, 24768, Note_on_c, 0, 79, 78
1, 24768, Note_on_c, 1, 67, 64
1, 24768, Note_on_c, 1, 55, 64
1, 24791, Note_on_c, 0, 79, 0
1, 24792, Note_on_c, 0, 74, 78
1, 24815, Note_on_c, 0, 74, 0
1, 24816, Note_on_c, 0, 71, 78
1, 24839, Note_on_c, 0, 71, 0
1, 24840, Note_on_c, 0, 74, 78
1, 24857, Note_on_c, 1, 67, 0
1, 24857, Note_on_c, 1, 55, 0
1, 24863, Note_on_c, 0, 74, 0
1, 24864, Note_on_c, 0, 72, 78
1, 24864, Note_on_c, 1, 66, 64
1, 24864, Note_on_c, 1, 62, 64
1, 24887, Note_on_c, 0, 72, 0
1, 24888, Note_on_c, 0, 74, 78
1, 24909, Note_on_c, 1, 66, 0
1, 24909, Note_on_c, 1, 62, 0
1, 24911, Note_on_c, 0, 74, 0
1, 24912, Note_on_c, 0, 71, 78
1, 24912, Note_on_c, 1, 67, 64
1, 24912, Note_on_c, 1, 55, 64
1, 24935, Note_on_c, 0, 71, 0
1, 24936, Note_on_c, 0, 74, 78
1, 24959, Note_on_c, 0, 74, 0
1, 24960, Note_on_c, 0, 79, 78
1, 24983, Note_on_c, 0, 79, 0
1, 24984, Note_on_c, 0, 74, 78
1, 25001, Note_on_c, 1, 67, 0
1, 25001, Note_on_c, 1, 55, 0
1, 25007, Note_on_c, 0, 74, 0
1, 25008, Note_on_c, 0, 81, 78
1, 25008, Note_on_c, 1, 66, 64
1, 25008, Note_on_c, 1, 62, 64
1, 25031, Note_on_c, 0, 81, 0
1, 25032, Note_on_c, 0, 74, 78
1, 25053, Note_on_c, 1, 66, 0
1, 25053, Note_on_c, 1, 62, 0
1, 25055, Note_on_c, 0, 74, 0
1, 25056, Note_on_c, 0, 83, 78
1, 25056, Note_on_c, 1, 67, 64
1, 25056, Note_on_c, 1, 55, 64
1, 25079, Note_on_c, 0, 83, 0
1, 25080, Note_on_c, 0, 74, 78
1, 25103, Note_on_c, 0, 74, 0
1, 25104, Note_on_c, 0, 71, 78
1, 25127, Note_on_c, 0, 71, 0
1, 25128, Note_on_c, 0, 74, 78
1, 25145, Note_on_c, 1, 67, 0
1, 25145, Note_on_c, 1, 55, 0
1, 25151, Note_on_c, 0, 74, 0
1, 25152, Note_on_c, 0, 72, 78
1, 25152, Note_on_c, 1, 66, 64
1, 25152, Note_on_c, 1, 62, 64
1, 25175, Note_on_c, 0, 72, 0
1, 25176, Note_on_c, 0, 74, 78
1, 25197, Note_on_c, 1, 66, 0
1, 25197, Note_on_c, 1, 62, 0
1, 25199, Note_on_c, 0, 74, 0
1, 25200, Note_on_c, 0, 71, 78
1, 25200, Note_on_c, 1, 67, 64
1, 25200, Note_on_c, 1, 55, 64
1, 25223, Note_on_c, 0, 71, 0
1, 25224, Note_on_c, 0, 74, 78
1, 25247, Note_on_c, 0, 74, 0
1, 25248, Note_on_c, 0, 79, 78
1, 25271, Note_on_c, 0, 79, 0
1, 25272, Note_on_c, 0, 74, 78
1, 25289, Note_on_c, 1, 67, 0
1, 25289, Note_on_c, 1, 55, 0
1, 25295, Note_on_c, 0, 74, 0
1, 25296, Note_on_c, 0, 81, 78
1, 25296, Note_on_c, 1, 66, 64
1, 25296, Note_on_c, 1, 62, 64
1, 25319, Note_on_c, 0, 81, 0
1, 25320, Note_on_c, 0, 74, 78
1, 25341, Note_on_c, 1, 66, 0
1, 25341, Note_on_c, 1, 62, 0
1, 25343, Note_on_c, 0, 74, 0
1, 25344, Note_on_c, 0, 83, 78
1, 25344, Note_on_c, 1, 67, 64
1, 25344, Note_on_c, 1, 55, 64
1, 25367, Note_on_c, 0, 83, 0
1, 25368, Note_on_c, 0, 74, 78
1, 25391, Note_on_c, 0, 74, 0
1, 25392, Note_on_c, 0, 71, 78
1, 25415, Note_on_c, 0, 71, 0
1, 25416, Note_on_c, 0, 74, 78
1, 25433, Note_on_c, 1, 67, 0
1, 25433, Note_on_c, 1, 55, 0
1, 25439, Note_on_c, 0, 74, 0
1, 25440, Note_on_c, 0, 72, 78
1, 25440, Note_on_c, 1, 66, 64
1, 25440, Note_on_c, 1, 62, 64
1, 25463, Note_on_c, 0, 72, 0
1, 25464, Note_on_c, 0, 74, 78
1, 25485, Note_on_c, 1, 66, 0
1, 25485, Note_on_c, 1, 62, 0
1, 25487, Note_on_c, 0, 74, 0
1, 25488, Note_on_c, 0, 71, 78
1, 25488, Note_on_c, 1, 67, 64
1, 25488, Note_on_c, 1, 55, 64
1, 25511, Note_on_c, 0, 71, 0
1, 25512, Note_on_c, 0, 74, 78
1, 25535, Note_on_c, 0, 74, 0
1, 25536, Note_on_c, 0, 79, 78
1, 25559, Note_on_c, 0, 79, 0
1, 25560, Note_on_c, 0, 74, 78
1, 25577, Note_on_c, 1, 67, 0
1, 25577, Note_on_c, 1, 55, 0
1, 25583, Note_on_c, 0, 74, 0
1, 25584, Note_on_c, 0, 81, 78
1, 25584, Note_on_c, 1, 66, 64
1, 25584, Note_on_c, 1, 62, 64
1, 25607, Note_on_c, 0, 81, 0
1, 25608, Note_on_c, 0, 74, 78
1, 25629, Note_on_c, 1, 66, 0
1, 25629, Note_on_c, 1, 62, 0
1, 25631, Note_on_c, 0, 74, 0
1, 25632, Note_on_c, 0, 83, 78
1, 25632, Note_on_c, 1, 67, 78
1, 25632, Note_on_c, 1, 55, 78
1, 25677, Note_on_c, 0, 83, 0
1, 25680, Note_on_c, 0, 83, 78
1, 25680, Note_on_c, 0, 79, 78
1, 25721, Note_on_c, 1, 67, 0
1, 25721, Note_on_c, 1, 55, 0
1, 25725, Note_on_c, 0, 83, 0
1, 25725, Note_on_c, 0, 79, 0
1, 25728, Note_on_c, 0, 86, 78
1, 25728, Note_on_c, 0, 83, 78
1, 25773, Note_on_c, 0, 86, 0
1, 25773, Note_on_c, 0, 83, 0
1, 25776, Note_on_c, 0, 83, 78
1, 25776, Note_on_c, 0, 79, 78
1, 25821, Note_on_c, 0, 83, 0
1, 25821, Note_on_c, 0, 79, 0
1, 25920, Note_on_c, 1, 40, 65
1, 25940, Note_on_c, 1, 40, 0
1, 25968, Note_on_c, 1, 44, 65
1, 25988, Note_on_c, 1, 44, 0
1, 26016, Note_on_c, 1, 47, 65
1, 26036, Note_on_c, 1, 47, 0
1, 26064, Note_on_c, 1, 52, 65
1, 26109, Note_on_c, 1, 52, 0
1, 26112, Note_on_c, 0, 64, 65
1, 26112, Note_on_c, 0, 56, 65
1, 26160, Note_on_c, 0, 64, 0
1, 26160, Note_on_c, 0, 56, 0
1, 26160, Note_on_c, 0, 62, 65
1, 26160, Note_on_c, 0, 59, 65
1, 26205, Note_on_c, 0, 62, 0
1, 26205, Note_on_c, 0, 59, 0
1, 26208, Note_on_c, 0, 60, 65
1, 26208, Note_on_c, 0, 57, 65
1, 26208, Note_on_c, 1, 40, 65
1, 26228, Note_on_c, 1, 40, 0
1, 26253, Note_on_c, 0, 60, 0
1, 26253, Note_on_c, 0, 57, 0
1, 26256, Note_on_c, 1, 45, 65
1, 26276, Note_on_c, 1, 45, 0
1, 26304, Note_on_c, 1, 48, 65
1, 26324, Note_on_c, 1, 48, 0
1, 26352, Note_on_c, 1, 52, 65
1, 26397, Note_on_c, 1, 52, 0
1, 26400, Note_on_c, 0, 72, 65
1, 26400, Note_on_c, 0, 64, 65
1, 26448, Note_on_c, 0, 72, 0
1, 26448, Note_on_c, 0, 64, 0
1, 26448, Note_on_c, 0, 69, 65
1, 26448, Note_on_c, 0, 60, 65
1, 26493, Note_on_c, 0, 69, 0
1, 26493, Note_on_c, 0, 60, 0
1, 26496, Note_on_c, 0, 68, 65
1, 26496, Note_on_c, 0, 59, 65
1, 26496, Note_on_c, 1, 40, 65
1, 26516, Note_on_c, 1, 40, 0
1, 26541, Note_on_c, 0, 68, 0
1, 26541, Note_on_c, 0, 59, 0
1, 26544, Note_on_c, 1, 44, 65
1, 26564, Note_on_c, 1, 44, 0
1, 26592, Note_on_c, 1, 47, 65
1, 26612, Note_on_c, 1, 47, 0
1, 26640, Note_on_c, 1, 52, 65
1, 26685, Note_on_c, 1, 52, 0
1, 26688, Note_on_c, 0, 76, 65
1, 26688, Note_on_c, 0, 68, 65
1, 26736, Note_on_c, 0, 76, 0
1, 26736, Note_on_c, 0, 68, 0
1, 26736, Note_on_c, 0, 74, 65
1, 26736, Note_on_c, 0, 71, 65
1, 26781, Note_on_c, 0, 74, 0
1, 26781, Note_on_c, 0, 71, 0
1, 26784, Note_on_c, 0, 72, 65
1, 26784, Note_on_c, 0, 69, 65
1, 26784, Note_on_c, 1, 40, 65
1, 26804, Note_on_c, 1, 40, 0
1, 26829, Note_on_c, 0, 72, 0
1, 26829, Note_on_c, 0, 69, 0
1, 26832, Note_on_c, 1, 45, 65
1, 26852, Note_on_c, 1, 45, 0
1, 26880, Note_on_c, 1, 48, 65
1, 26900, Note_on_c, 1, 48, 0
1, 26928, Note_on_c, 1, 52, 65
1, 26973, Note_on_c, 1, 52, 0
1, 26976, Note_on_c, 0, 81, 65
1, 26976, Note_on_c, 0, 72, 65
1, 27024, Note_on_c, 0, 81, 0
1, 27024, Note_on_c, 0, 72, 0
1, 27024, Note_on_c, 0, 75, 65
1, 27024, Note_on_c, 0, 69, 65
1, 27069, Note_on_c, 0, 75, 0
1, 27069, Note_on_c, 0, 69, 0
1, 27072, Note_on_c, 0, 76, 65
1, 27072, Note_on_c, 0, 68, 65
1, 27072, Note_on_c, 1, 40, 65
1, 27092, Note_on_c, 1, 40, 0
1, 27117, Note_on_c, 0, 76, 0
1, 27117, Note_on_c, 0, 68, 0
1, 27120, Note_on_c, 1, 44, 65
1, 27140, Note_on_c, 1, 44, 0
1, 27168, Note_on_c, 1, 47, 65
1, 27188, Note_on_c, 1, 47, 0
1, 27216, Note_on_c, 1, 52, 65
1, 27261, Note_on_c, 1, 52, 0
1, 27360, Note_on_c, 1, 48, 78
1, 27360, Note_on_c, 1, 36, 78
1, 27405, Note_on_c, 1, 48, 0
1, 27405, Note_on_c, 1, 36, 0
1, 27408, Note_on_c, 1, 52, 78
1, 27408, Note_on_c, 1, 40, 78
1, 27453, Note_on_c, 1, 52, 0
1, 27453, Note_on_c, 1, 40, 0
1, 27456, Note_on_c, 1, 55, 78
1, 27456, Note_on_c, 1, 43, 78
1, 27501, Note_on_c, 1, 55, 0
1, 27501, Note_on_c, 1, 43, 0
1, 27504, Note_on_c, 1, 60, 78
1, 27504, Note_on_c, 1, 48, 78
1, 27528, Note_on_c, 0, 67, 78
1, 27551, Note_on_c, 0, 67, 0
1, 27552, Note_on_c, 0, 79, 78
1, 27575, Note_on_c, 0, 79, 0
1, 27576, Note_on_c, 0, 76, 78
1, 27593, Note_on_c, 1, 60, 0
1, 27593, Note_on_c, 1, 48, 0
1, 27599, Note_on_c, 0, 76, 0
1, 27600, Note_on_c, 0, 74, 78
1, 27623, Note_on_c, 0, 74, 0
1, 27624, Note_on_c, 0, 72, 78
1, 27647, Note_on_c, 0, 72, 0
1, 27648, Note_on_c, 0, 71, 78
1, 27648, Note_on_c, 1, 50, 78
1, 27648, Note_on_c, 1, 38, 78
1, 27693, Note_on_c, 0, 71, 0
1, 27693, Note_on_c, 1, 50, 0
1, 27693, Note_on_c, 1, 38, 0
1, 27696, Note_on_c, 1, 53, 78
1, 27696, Note_on_c, 1, 41, 78
1, 27741, Note_on_c, 1, 53, 0
1, 27741, Note_on_c, 1, 41, 0
1, 27744, Note_on_c, 1, 55, 78
1, 27744, Note_on_c, 1, 43, 78
1, 27789, Note_on_c, 1, 55, 0
1, 27789, Note_on_c, 1, 43, 0
1, 27792, Note_on_c, 1, 59, 78
1, 27792, Note_on_c, 1, 47, 78
1, 27816, Note_on_c, 0, 67, 78
1, 27837, Note_on_c, 1, 59, 0
1, 27837, Note_on_c, 1, 47, 0
1, 27839, Note_on_c, 0, 67, 0
1, 27840, Note_on_c, 0, 79, 78
1, 27863, Note_on_c, 0, 79, 0
1, 27864, Note_on_c, 0, 77, 78
1, 27887, Note_on_c, 0, 77, 0
1, 27888, Note_on_c, 0, 76, 78
1, 27911, Note_on_c, 0, 76, 0
1, 27912, Note_on_c, 0, 74, 78
1, 27935, Note_on_c, 0, 74, 0
1, 27936, Note_on_c, 0, 76, 69
1, 27936, Note_on_c, 1, 48, 65
1, 27984, Note_on_c, 1, 52, 65
1, 28025, Note_on_c, 0, 76, 0
1, 28032, Note_on_c, 1, 55, 65
1, 28080, Note_on_c, 1, 60, 65
1, 28104, Note_on_c, 0, 67, 69
1, 28127, Note_on_c, 0, 67, 0
1, 28128, Note_on_c, 0, 79, 69
1, 28151, Note_on_c, 0, 79, 0
1, 28152, Note_on_c, 0, 76, 69
1, 28175, Note_on_c, 0, 76, 0
1, 28176, Note_on_c, 0, 74, 69
1, 28199, Note_on_c, 0, 74, 0
1, 28200, Note_on_c, 0, 72, 69
1, 28213, Note_on_c, 1, 60, 0
1, 28213, Note_on_c, 1, 55, 0
1, 28213, Note_on_c, 1, 52, 0
1, 28213, Note_on_c, 1, 48, 0
1, 28223, Note_on_c, 0, 72, 0
1, 28224, Note_on_c, 0, 72, 69
1, 28224, Note_on_c, 1, 50, 66
1, 28272, Note_on_c, 1, 53, 66
1, 28320, Note_on_c, 0, 72, 0
1, 28320, Note_on_c, 0, 71, 69
1, 28320, Note_on_c, 1, 55, 66
1, 28365, Note_on_c, 0, 71, 0
1, 28368, Note_on_c, 1, 62, 66
1, 28392, Note_on_c, 0, 67, 70
1, 28415, Note_on_c, 0, 67, 0
1, 28416, Note_on_c, 0, 79, 70
1, 28439, Note_on_c, 0, 79, 0
1, 28440, Note_on_c, 0, 77, 70
1, 28463, Note_on_c, 0, 77, 0
1, 28464, Note_on_c, 0, 76, 70
1, 28487, Note_on_c, 0, 76, 0
1, 28488, Note_on_c, 0, 74, 70
1, 28501, Note_on_c, 1, 62, 0
1, 28501, Note_on_c, 1, 55, 0
1, 28501, Note_on_c, 1, 53, 0
1, 28501, Note_on_c, 1, 50, 0
1, 28511, Note_on_c, 0, 74, 0
1, 28512, Note_on_c, 0, 74, 70
1, 28512, Note_on_c, 1, 52, 67
1, 28560, Note_on_c, 1, 55, 67
1, 28608, Note_on_c, 0, 74, 0
1, 28608, Note_on_c, 0, 73, 71
1, 28608, Note_on_c, 1, 58, 67
1, 28653, Note_on_c, 0, 73, 0
1, 28656, Note_on_c, 1, 61, 67
1, 28680, Note_on_c, 0, 82, 71
1, 28703, Note_on_c, 0, 82, 0
1, 28704, Note_on_c, 0, 81, 71
1, 28727, Note_on_c, 0, 81, 0
1, 28728, Note_on_c, 0, 79, 71
1, 28751, Note_on_c, 0, 79, 0
1, 28752, Note_on_c, 0, 77, 71
1, 28775, Note_on_c, 0, 77, 0
1, 28776, Note_on_c, 0, 76, 71
1, 28789, Note_on_c, 1, 61, 0
1, 28789, Note_on_c, 1, 58, 0
1, 28789, Note_on_c, 1, 55, 0
1, 28789, Note_on_c, 1, 52, 0
1, 28799, Note_on_c, 0, 76, 0
1, 28800, Note_on_c, 0, 76, 71
1, 28800, Note_on_c, 1, 53, 68
1, 28848, Note_on_c, 1, 57, 68
1, 28896, Note_on_c, 0, 76, 0
1, 28896, Note_on_c, 0, 74, 72
1, 28896, Note_on_c, 1, 61, 68
1, 28941, Note_on_c, 0, 74, 0
1, 28944, Note_on_c, 1, 61, 0
1, 28944, Note_on_c, 1, 62, 68
1, 28968, Note_on_c, 0, 69, 72
1, 28991, Note_on_c, 0, 69, 0
1, 28992, Note_on_c, 0, 81, 72
1, 29015, Note_on_c, 0, 81, 0
1, 29016, Note_on_c, 0, 77, 72
1, 29039, Note_on_c, 0, 77, 0
1, 29040, Note_on_c, 0, 76, 72
1, 29063, Note_on_c, 0, 76, 0
1, 29064, Note_on_c, 0, 74, 72
1, 29077, Note_on_c, 1, 62, 0
1, 29077, Note_on_c, 1, 57, 0
1, 29077, Note_on_c, 1, 53, 0
1, 29087, Note_on_c, 0, 74, 0
1, 29088, Note_on_c, 0, 74, 72
1, 29088, Note_on_c, 1, 52, 69
1, 29136, Note_on_c, 1, 55, 69
1, 29184, Note_on_c, 0, 74, 0
1, 29184, Note_on_c, 0, 73, 73
1, 29184, Note_on_c, 1, 58, 69
1, 29229, Note_on_c, 0, 73, 0
1, 29232, Note_on_c, 1, 61, 69
1, 29256, Note_on_c, 0, 82, 73
1, 29279, Note_on_c, 0, 82, 0
1, 29280, Note_on_c, 0, 81, 73
1, 29303, Note_on_c, 0, 81, 0
1, 29304, Note_on_c, 0, 79, 73
1, 29327, Note_on_c, 0, 79, 0
1, 29328, Note_on_c, 0, 77, 73
1, 29351, Note_on_c, 0, 77, 0
1, 29352, Note_on_c, 0, 76, 74
1, 29365, Note_on_c, 1, 61, 0
1, 29365, Note_on_c, 1, 58, 0
1, 29365, Note_on_c, 1, 55, 0
1, 29365, Note_on_c, 1, 52, 0
1, 29375, Note_on_c, 0, 76, 0
1, 29376, Note_on_c, 0, 76, 74
1, 29376, Note_on_c, 1, 54, 70
1, 29424, Note_on_c, 1, 57, 70
1, 29472, Note_on_c, 0, 76, 0
1, 29472, Note_on_c, 0, 75, 74
1, 29472, Note_on_c, 1, 60, 70
1, 29517, Note_on_c, 0, 75, 0
1, 29520, Note_on_c, 1, 63, 70
1, 29544, Note_on_c, 0, 84, 74
1, 29567, Note_on_c, 0, 84, 0
1, 29568, Note_on_c, 0, 83, 74
1, 29591, Note_on_c, 0, 83, 0
1, 29592, Note_on_c, 0, 81, 75
1, 29615, Note_on_c, 0, 81, 0
1, 29616, Note_on_c, 0, 79, 75
1, 29639, Note_on_c, 0, 79, 0
1, 29640, Note_on_c, 0, 78, 75
1, 29653, Note_on_c, 1, 63, 0
1, 29653, Note_on_c, 1, 60, 0
1, 29653, Note_on_c, 1, 57, 0
1, 29653, Note_on_c, 1, 54, 0
1, 29663, Note_on_c, 0, 78, 0
1, 29664, Note_on_c, 0, 78, 75
1, 29664, Note_on_c, 1, 55, 71
1, 29712, Note_on_c, 1, 59, 71
1, 29760, Note_on_c, 0, 78, 0
1, 29760, Note_on_c, 0, 76, 75
1, 29760, Note_on_c, 1, 63, 71
1, 29805, Note_on_c, 0, 76, 0
1, 29808, Note_on_c, 1, 63, 0
1, 29808, Note_on_c, 1, 64, 71
1, 29832, Note_on_c, 0, 71, 75
1, 29855, Note_on_c, 0, 71, 0
1, 29856, Note_on_c, 0, 83, 76
1, 29879, Note_on_c, 0, 83, 0
1, 29880, Note_on_c, 0, 79, 76
1, 29903, Note_on_c, 0, 79, 0
1, 29904, Note_on_c, 0, 78, 76
1, 29927, Note_on_c, 0, 78, 0
1, 29928, Note_on_c, 0, 76, 76
1, 29941, Note_on_c, 1, 64, 0
1, 29941, Note_on_c, 1, 59, 0
1, 29941, Note_on_c, 1, 55, 0
1, 29951, Note_on_c, 0, 76, 0
1, 29952, Note_on_c, 0, 83, 76
1, 29952, Note_on_c, 1, 54, 72
1, 30000, Note_on_c, 1, 58, 72
1, 30048, Note_on_c, 0, 83, 0
1, 30048, Note_on_c, 0, 82, 76
1, 30048, Note_on_c, 1, 61, 72
1, 30093, Note_on_c, 0, 82, 0
1, 30096, Note_on_c, 1, 64, 72
1, 30120, Note_on_c, 0, 79, 77
1, 30143, Note_on_c, 0, 79, 0
1, 30144, Note_on_c, 0, 78, 77
1, 30167, Note_on_c, 0, 78, 0
1, 30168, Note_on_c, 0, 76, 77
1, 30191, Note_on_c, 0, 76, 0
1, 30192, Note_on_c, 0, 74, 77
1, 30215, Note_on_c, 0, 74, 0
1, 30216, Note_on_c, 0, 73, 77
1, 30229, Note_on_c, 1, 64, 0
1, 30229, Note_on_c, 1, 61, 0
1, 30229, Note_on_c, 1, 58, 0
1, 30229, Note_on_c, 1, 54, 0
1, 30239, Note_on_c, 0, 73, 0
1, 30240, Note_on_c, 0, 76, 77
1, 30240, Note_on_c, 1, 59, 73
1, 30288, Note_on_c, 1, 62, 73
1, 30336, Note_on_c, 0, 76, 0
1, 30336, Note_on_c, 0, 74, 78
1, 30336, Note_on_c, 1, 66, 73
1, 30381, Note_on_c, 0, 74, 0
1, 30384, Note_on_c, 1, 71, 73
1, 30408, Note_on_c, 0, 74, 78
1, 30431, Note_on_c, 0, 74, 0
1, 30432, Note_on_c, 0, 78, 78
1, 30455, Note_on_c, 0, 78, 0
1, 30456, Note_on_c, 0, 74, 78
1, 30479, Note_on_c, 0, 74, 0
1, 30480, Note_on_c, 0, 73, 78
1, 30503, Note_on_c, 0, 73, 0
1, 30504, Note_on_c, 0, 71, 78
1, 30517, Note_on_c, 1, 71, 0
1, 30517, Note_on_c, 1, 66, 0
1, 30517, Note_on_c, 1, 62, 0
1, 30517, Note_on_c, 1, 59, 0
1, 30527, Note_on_c, 0, 71, 0
1, 30528, Note_on_c, 0, 71, 78
1, 30528, Note_on_c, 1, 61, 73
1, 30576, Note_on_c, 1, 64, 73
1, 30624, Note_on_c, 0, 71, 0
1, 30624, Note_on_c, 0, 70, 78
1, 30624, Note_on_c, 1, 67, 73
1, 30669, Note_on_c, 0, 70, 0
1, 30672, Note_on_c, 1, 70, 73
1, 30696, Note_on_c, 0, 79, 78
1, 30719, Note_on_c, 0, 79, 0
1, 30720, Note_on_c, 0, 78, 78
1, 30743, Note_on_c, 0, 78, 0
1, 30744, Note_on_c, 0, 76, 78
1, 30767, Note_on_c, 0, 76, 0
1, 30768, Note_on_c, 0, 74, 78
1, 30791, Note_on_c, 0, 74, 0
1, 30792, Note_on_c, 0, 73, 78
1, 30805, Note_on_c, 1, 70, 0
1, 30805, Note_on_c, 1, 67, 0
1, 30805, Note_on_c, 1, 64, 0
1, 30805, Note_on_c, 1, 61, 0
1, 30815, Note_on_c, 0, 73, 0
1, 30816, Note_on_c, 0, 76, 78
1, 30816, Note_on_c, 1, 62, 73
1, 30864, Note_on_c, 1, 66, 73
1, 30912, Note_on_c, 0, 76, 0
1, 30912, Note_on_c, 0, 74, 78
1, 30912, Note_on_c, 1, 70, 73
1, 30957, Note_on_c, 0, 74, 0
1, 30960, Note_on_c, 1, 70, 0
1, 30960, Note_on_c, 1, 71, 73
1, 30984, Note_on_c, 0, 83, 78
1, 31007, Note_on_c, 0, 83, 0
1, 31008, Note_on_c, 0, 82, 78
1, 31031, Note_on_c, 0, 82, 0
1, 31032, Note_on_c, 0, 83, 78
1, 31055, Note_on_c, 0, 83, 0
1, 31056, Note_on_c, 0, 86, 78
1, 31079, Note_on_c, 0, 86, 0
1, 31080, Note_on_c, 0, 83, 78
1, 31093, Note_on_c, 1, 71, 0
1, 31093, Note_on_c, 1, 66, 0
1, 31093, Note_on_c, 1, 62, 0
1, 31103, Note_on_c, 0, 83, 0
1, 31104, Note_on_c, 0, 79, 73
1, 31104, Note_on_c, 1, 64, 69
1, 31127, Note_on_c, 0, 79, 0
1, 31128, Note_on_c, 0, 83, 73
1, 31149, Note_on_c, 1, 64, 0
1, 31151, Note_on_c, 0, 83, 0
1, 31152, Note_on_c, 0, 78, 73
1, 31152, Note_on_c, 1, 62, 69
1, 31175, Note_on_c, 0, 78, 0
1, 31176, Note_on_c, 0, 83, 73
1, 31197, Note_on_c, 1, 62, 0
1, 31199, Note_on_c, 0, 83, 0
1, 31200, Note_on_c, 0, 76, 73
1, 31200, Note_on_c, 1, 61, 69
1, 31223, Note_on_c, 0, 76, 0
1, 31224, Note_on_c, 0, 83, 73
1, 31245, Note_on_c, 1, 61, 0
1, 31247, Note_on_c, 0, 83, 0
1, 31248, Note_on_c, 0, 74, 73
1, 31248, Note_on_c, 1, 59, 69
1, 31271, Note_on_c, 0, 74, 0
1, 31272, Note_on_c, 0, 83, 73
1, 31295, Note_on_c, 0, 83, 0
1, 31296, Note_on_c, 0, 82, 73
1, 31319, Note_on_c, 0, 82, 0
1, 31320, Note_on_c, 0, 83, 73
1, 31337, Note_on_c, 1, 59, 0
1, 31343, Note_on_c, 0, 83, 0
1, 31344, Note_on_c, 0, 86, 73
1, 31367, Note_on_c, 0, 86, 0
1, 31368, Note_on_c, 0, 83, 73
1, 31391, Note_on_c, 0, 83, 0
1, 31392, Note_on_c, 0, 76, 73
1, 31392, Note_on_c, 1, 67, 69
1, 31415, Note_on_c, 0, 76, 0
1, 31416, Note_on_c, 0, 83, 73
1, 31437, Note_on_c, 1, 67, 0
1, 31439, Note_on_c, 0, 83, 0
1, 31440, Note_on_c, 0, 74, 73
1, 31440, Note_on_c, 1, 66, 69
1, 31463, Note_on_c, 0, 74, 0
1, 31464, Note_on_c, 0, 83, 73
1, 31485, Note_on_c, 1, 66, 0
1, 31487, Note_on_c, 0, 83, 0
1, 31488, Note_on_c, 0, 73, 73
1, 31488, Note_on_c, 1, 64, 69
1, 31511, Note_on_c, 0, 73, 0
1, 31512, Note_on_c, 0, 83, 73
1, 31533, Note_on_c, 1, 64, 0
1, 31535, Note_on_c, 0, 83, 0
1, 31536, Note_on_c, 0, 71, 73
1, 31536, Note_on_c, 1, 62, 69
1, 31559, Note_on_c, 0, 71, 0
1, 31560, Note_on_c, 0, 83, 73
1, 31583, Note_on_c, 0, 83, 0
1, 31584, Note_on_c, 0, 82, 73
1, 31607, Note_on_c, 0, 82, 0
1, 31608, Note_on_c, 0, 83, 73
1, 31625, Note_on_c, 1, 62, 0
1, 31631, Note_on_c, 0, 83, 0
1, 31632, Note_on_c, 0, 86, 73
1, 31655, Note_on_c, 0, 86, 0
1, 31656, Note_on_c, 0, 83, 73
1, 31679, Note_on_c, 0, 83, 0
1, 31680, Note_on_c, 0, 79, 73
1, 31680, Note_on_c, 1, 76, 69
1, 31703, Note_on_c, 0, 79, 0
1, 31704, Note_on_c, 0, 83, 73
1, 31725, Note_on_c, 1, 76, 0
1, 31727, Note_on_c, 0, 83, 0
1, 31728, Note_on_c, 0, 78, 73
1, 31728, Note_on_c, 1, 74, 69
1, 31751, Note_on_c, 0, 78, 0
1, 31752, Note_on_c, 0, 83, 73
1, 31773, Note_on_c, 1, 74, 0
1, 31775, Note_on_c, 0, 83, 0
1, 31776, Note_on_c, 0, 76, 73
1, 31776, Note_on_c, 1, 73, 69
1, 31799, Note_on_c, 0, 76, 0
1, 31800, Note_on_c, 0, 83, 73
1, 31821, Note_on_c, 1, 73, 0
1, 31823, Note_on_c, 0, 83, 0
1, 31824, Note_on_c, 0, 74, 73
1, 31824, Note_on_c, 1, 71, 69
1, 31847, Note_on_c, 0, 74, 0
1, 31848, Note_on_c, 0, 83, 73
1, 31871, Note_on_c, 0, 83, 0
1, 31872, Note_on_c, 0, 82, 73
1, 31895, Note_on_c, 0, 82, 0
1, 31896, Note_on_c, 0, 83, 73
1, 31913, Note_on_c, 1, 71, 0
1, 31919, Note_on_c, 0, 83, 0
1, 31920, Note_on_c, 0, 86, 73
1, 31943, Note_on_c, 0, 86, 0
1, 31944, Note_on_c, 0, 83, 73
1, 31967, Note_on_c, 0, 83, 0
1, 31968, Note_on_c, 0, 76, 73
1, 31968, Note_on_c, 1, 67, 69
1, 31991, Note_on_c, 0, 76, 0
1, 31992, Note_on_c, 0, 83, 73
1, 32013, Note_on_c, 1, 67, 0
1, 32015, Note_on_c, 0, 83, 0
1, 32016, Note_on_c, 0, 74, 73
1, 32016, Note_on_c, 1, 66, 69
1, 32039, Note_on_c, 0, 74, 0
1, 32040, Note_on_c, 0, 83, 73
1, 32061, Note_on_c, 1, 66, 0
1, 32063, Note_on_c, 0, 83, 0
1, 32064, Note_on_c, 0, 73, 73
1, 32064, Note_on_c, 1, 64, 69
1, 32087, Note_on_c, 0, 73, 0
1, 32088, Note_on_c, 0, 83, 73
1, 32109, Note_on_c, 1, 64, 0
1, 32111, Note_on_c, 0, 83, 0
1, 32112, Note_on_c, 0, 71, 73
1, 32112, Note_on_c, 1, 62, 69
1, 32135, Note_on_c, 1, 62, 0
1, 32136, Note_on_c, 1, 66, 69
1, 32159, Note_on_c, 1, 66, 0
1, 32160, Note_on_c, 1, 62, 69
1, 32183, Note_on_c, 1, 62, 0
1, 32184, Note_on_c, 1, 66, 69
1, 32201, Note_on_c, 0, 71, 0
1, 32207, Note_on_c, 1, 66, 0
1, 32208, Note_on_c, 0, 83, 73
1, 32208, Note_on_c, 1, 62, 69
1, 32231, Note_on_c, 1, 62, 0
1, 32232, Note_on_c, 1, 66, 69
1, 32253, Note_on_c, 0, 83, 0
1, 32255, Note_on_c, 1, 66, 0
1, 32256, Note_on_c, 0, 73, 73
1, 32256, Note_on_c, 1, 64, 69
1, 32279, Note_on_c, 1, 64, 0
1, 32280, Note_on_c, 1, 67, 69
1, 32303, Note_on_c, 1, 67, 0
1, 32304, Note_on_c, 1, 64, 69
1, 32327, Note_on_c, 1, 64, 0
1, 32328, Note_on_c, 1, 67, 69
1, 32345, Note_on_c, 0, 73, 0
1, 32351, Note_on_c, 1, 67, 0
1, 32352, Note_on_c, 0, 79, 73
1, 32352, Note_on_c, 1, 64, 69
1, 32375, Note_on_c, 1, 64, 0
1, 32376, Note_on_c, 1, 67, 69
1, 32397, Note_on_c, 0, 79, 0
1, 32399, Note_on_c, 1, 67, 0
1, 32400, Note_on_c, 0, 78, 73
1, 32400, Note_on_c, 1, 66, 69
1, 32423, Note_on_c, 1, 66, 0
1, 32424, Note_on_c, 1, 70, 69
1, 32447, Note_on_c, 1, 70, 0
1, 32448, Note_on_c, 1, 66, 69
1, 32471, Note_on_c, 1, 66, 0
1, 32472, Note_on_c, 1, 70, 69
1, 32489, Note_on_c, 0, 78, 0
1, 32495, Note_on_c, 1, 70, 0
1, 32496, Note_on_c, 0, 76, 73
1, 32496, Note_on_c, 1, 66, 69
1, 32519, Note_on_c, 1, 66, 0
1, 32520, Note_on_c, 1, 70, 69
1, 32541, Note_on_c, 0, 76, 0
1, 32543, Note_on_c, 1, 70, 0
1, 32544, Note_on_c, 0, 76, 73
1, 32544, Note_on_c, 1, 67, 69
1, 32567, Note_on_c, 1, 67, 0
1, 32568, Note_on_c, 1, 71, 69
1, 32591, Note_on_c, 1, 71, 0
1, 32592, Note_on_c, 1, 67, 69
1, 32615, Note_on_c, 1, 67, 0
1, 32616, Note_on_c, 1, 71, 69
1, 32633, Note_on_c, 0, 76, 0
1, 32639, Note_on_c, 1, 71, 0
1, 32640, Note_on_c, 0, 74, 73
1, 32640, Note_on_c, 1, 67, 69
1, 32663, Note_on_c, 1, 67, 0
1, 32664, Note_on_c, 1, 71, 69
1, 32685, Note_on_c, 0, 74, 0
1, 32687, Note_on_c, 1, 71, 0
1, 32688, Note_on_c, 0, 71, 73
1, 32688, Note_on_c, 1, 62, 69
1, 32711, Note_on_c, 1, 62, 0
1, 32712, Note_on_c, 1, 66, 69
1, 32735, Note_on_c, 1, 66, 0
1, 32736, Note_on_c, 1, 62, 69
1, 32759, Note_on_c, 1, 62, 0
1, 32760, Note_on_c, 1, 66, 69
1, 32777, Note_on_c, 0, 71, 0
1, 32783, Note_on_c, 1, 66, 0
1, 32784, Note_on_c, 0, 83, 73
1, 32784, Note_on_c, 1, 62, 69
1, 32807, Note_on_c, 1, 62, 0
1, 32808, Note_on_c, 1, 66, 69
1, 32829, Note_on_c, 0, 83, 0
1, 32831, Note_on_c, 1, 66, 0
1, 32832, Note_on_c, 0, 73, 73
1, 32832, Note_on_c, 1, 64, 69
1, 32855, Note_on_c, 1, 64, 0
1, 32856, Note_on_c, 1, 67, 69
1, 32879, Note_on_c, 1, 67, 0
1, 32880, Note_on_c, 1, 64, 69
1, 32903, Note_on_c, 1, 64, 0
1, 32904, Note_on_c, 1, 67, 69
1, 32921, Note_on_c, 0, 73, 0
1, 32927, Note_on_c, 1, 67, 0
1, 32928, Note_on_c, 0, 79, 73
1, 32928, Note_on_c, 1, 64, 69
1, 32951, Note_on_c, 1, 64, 0
1, 32952, Note_on_c, 1, 67, 69
1, 32973, Note_on_c, 0, 79, 0
1, 32975, Note_on_c, 1, 67, 0
1, 32976, Note_on_c, 1, 66, 69
1, 33021, Note_on_c, 1, 66, 0
1, 33024, Note_on_c, 0, 78, 73
1, 33069, Note_on_c, 0, 78, 0
1, 33072, Note_on_c, 0, 70, 73
1, 33117, Note_on_c, 0, 70, 0
1, 33120, Note_on_c, 0, 71, 73
1, 33120, Note_on_c, 1, 59, 69
1, 33140, Note_on_c, 0, 71, 0
1, 33168, Note_on_c, 0, 74, 73
1, 33188, Note_on_c, 0, 74, 0
1, 33209, Note_on_c, 1, 59, 0
1, 33216, Note_on_c, 0, 78, 73
1, 33236, Note_on_c, 0, 78, 0
1, 33264, Note_on_c, 0, 83, 73
1, 33284, Note_on_c, 0, 83, 0
1, 33312, Note_on_c, 1, 66, 69
1, 33312, Note_on_c, 1, 62, 69
1, 33357, Note_on_c, 1, 66, 0
1, 33357, Note_on_c, 1, 62, 0
1, 33360, Note_on_c, 1, 64, 69
1, 33360, Note_on_c, 1, 61, 69
1, 33405, Note_on_c, 1, 64, 0
1, 33405, Note_on_c, 1, 61, 0
1, 33408, Note_on_c, 0, 71, 73
1, 33408, Note_on_c, 1, 62, 69
1, 33408, Note_on_c, 1, 59, 69
1, 33428, Note_on_c, 0, 71, 0
1, 33453, Note_on_c, 1, 62, 0
1, 33453, Note_on_c, 1, 59, 0
1, 33456, Note_on_c, 0, 74, 73
1, 33476, Note_on_c, 0, 74, 0
1, 33504, Note_on_c, 0, 78, 73
1, 33524, Note_on_c, 0, 78, 0
1, 33552, Note_on_c, 0, 83, 73
1, 33572, Note_on_c, 0, 83, 0
1, 33600, Note_on_c, 1, 62, 73
1, 33600, Note_on_c, 1, 59, 73
1, 33645, Note_on_c, 1, 62, 0
1, 33645, Note_on_c, 1, 59, 0
1, 33648, Note_on_c, 1, 60, 73
1, 33648, Note_on_c, 1, 57, 73
1, 33693, Note_on_c, 1, 60, 0
1, 33693, Note_on_c, 1, 57, 0
1, 33696, Note_on_c, 0, 71, 73
1, 33696, Note_on_c, 1, 59, 73
1, 33696, Note_on_c, 1, 55, 73
1, 33716, Note_on_c, 0, 71, 0
1, 33741, Note_on_c, 1, 59, 0
1, 33741, Note_on_c, 1, 55, 0
1, 33744, Note_on_c, 0, 74, 73
1, 33764, Note_on_c, 0, 74, 0
1, 33792, Note_on_c, 0, 79, 73
1, 33812, Note_on_c, 0, 79, 0
1, 33840, Note_on_c, 0, 83, 73
1, 33860, Note_on_c, 0, 83, 0
1, 33888, Note_on_c, 1, 59, 73
1, 33888, Note_on_c, 1, 55, 73
1, 33933, Note_on_c, 1, 59, 0
1, 33933, Note_on_c, 1, 55, 0
1, 33936, Note_on_c, 1, 57, 73
1, 33936, Note_on_c, 1, 54, 73
1, 33981, Note_on_c, 1, 57, 0
1, 33981, Note_on_c, 1, 54, 0
1, 33984, Note_on_c, 0, 71, 73
1, 33984, Note_on_c, 1, 55, 73
1, 33984, Note_on_c, 1, 52, 73
1, 34004, Note_on_c, 0, 71, 0
1, 34029, Note_on_c, 1, 55, 0
1, 34029, Note_on_c, 1, 52, 0
1, 34032, Note_on_c, 0, 76, 73
1, 34052, Note_on_c, 0, 76, 0
1, 34080, Note_on_c, 0, 79, 73
1, 34100, Note_on_c, 0, 79, 0
1, 34128, Note_on_c, 0, 83, 73
1, 34148, Note_on_c, 0, 83, 0
1, 34176, Note_on_c, 1, 55, 73
1, 34176, Note_on_c, 1, 52, 73
1, 34221, Note_on_c, 1, 55, 0
1, 34221, Note_on_c, 1, 52, 0
1, 34224, Note_on_c, 1, 53, 73
1, 34224, Note_on_c, 1, 50, 73
1, 34269, Note_on_c, 1, 53, 0
1, 34269, Note_on_c, 1, 50, 0
1, 34272, Note_on_c, 0, 72, 73
1, 34272, Note_on_c, 1, 52, 73
1, 34272, Note_on_c, 1, 48, 73
1, 34292, Note_on_c, 0, 72, 0
1, 34317, Note_on_c, 1, 52, 0
1, 34317, Note_on_c, 1, 48, 0
1, 34320, Note_on_c, 0, 76, 73
1, 34340, Note_on_c, 0, 76, 0
1, 34368, Note_on_c, 0, 79, 73
1, 34388, Note_on_c, 0, 79, 0
1, 34416, Note_on_c, 0, 84, 73
1, 34436, Note_on_c, 0, 84, 0
1, 34464, Note_on_c, 1, 52, 73
1, 34464, Note_on_c, 1, 48, 73
1, 34509, Note_on_c, 1, 52, 0
1, 34509, Note_on_c, 1, 48, 0
1, 34512, Note_on_c, 1, 50, 73
1, 34512, Note_on_c, 1, 47, 73
1, 34557, Note_on_c, 1, 50, 0
1, 34557, Note_on_c, 1, 47, 0
1, 34560, Note_on_c, 0, 72, 73
1, 34560, Note_on_c, 1, 48, 73
1, 34560, Note_on_c, 1, 45, 73
1, 34580, Note_on_c, 0, 72, 0
1, 34605, Note_on_c, 1, 48, 0
1, 34605, Note_on_c, 1, 45, 0
1, 34608, Note_on_c, 0, 76, 73
1, 34628, Note_on_c, 0, 76, 0
1, 34656, Note_on_c, 0, 81, 73
1, 34676, Note_on_c, 0, 81, 0
1, 34704, Note_on_c, 0, 84, 73
1, 34724, Note_on_c, 0, 84, 0
1, 34752, Note_on_c, 1, 48, 73
1, 34752, Note_on_c, 1, 45, 73
1, 34797, Note_on_c, 1, 48, 0
1, 34797, Note_on_c, 1, 45, 0
1, 34800, Note_on_c, 1, 47, 73
1, 34800, Note_on_c, 1, 43, 73
1, 34845, Note_on_c, 1, 47, 0
1, 34845, Note_on_c, 1, 43, 0
1, 34848, Note_on_c, 0, 72, 73
1, 34848, Note_on_c, 1, 45, 73
1, 34848, Note_on_c, 1, 42, 73
1, 34868, Note_on_c, 0, 72, 0
1, 34893, Note_on_c, 1, 45, 0
1, 34893, Note_on_c, 1, 42, 0
1, 34896, Note_on_c, 0, 78, 73
1, 34916, Note_on_c, 0, 78, 0
1, 34944, Note_on_c, 0, 81, 73
1, 34964, Note_on_c, 0, 81, 0
1, 34992, Note_on_c, 0, 84, 73
1, 35012, Note_on_c, 0, 84, 0
1, 35040, Note_on_c, 1, 45, 72
1, 35040, Note_on_c, 1, 42, 72
1, 35085, Note_on_c, 1, 45, 0
1, 35085, Note_on_c, 1, 42, 0
1, 35088, Note_on_c, 1, 43, 72
1, 35088, Note_on_c, 1, 40, 72
1, 35133, Note_on_c, 1, 43, 0
1, 35133, Note_on_c, 1, 40, 0
1, 35136, Note_on_c, 0, 71, 71
1, 35136, Note_on_c, 1, 42, 71
1, 35136, Note_on_c, 1, 39, 71
1, 35156, Note_on_c, 0, 71, 0
1, 35184, Note_on_c, 0, 75, 71
1, 35204, Note_on_c, 0, 75, 0
1, 35232, Note_on_c, 0, 78, 70
1, 35252, Note_on_c, 0, 78, 0
1, 35280, Note_on_c, 0, 83, 70
1, 35413, Note_on_c, 0, 83, 0
1, 35413, Note_on_c, 1, 42, 0
1, 35413, Note_on_c, 1, 39, 0
1, 35424, Note_on_c, 1, 40, 65
1, 35444, Note_on_c, 1, 40, 0
1, 35472, Note_on_c, 1, 43, 65
1, 35492, Note_on_c, 1, 43, 0
1, 35520, Note_on_c, 1, 47, 65
1, 35540, Note_on_c, 1, 47, 0
1, 35568, Note_on_c, 1, 52, 65
1, 35613, Note_on_c, 1, 52, 0
1, 35616, Note_on_c, 0, 67, 65
1, 35616, Note_on_c, 0, 59, 65
1, 35664, Note_on_c, 0, 67, 0
1, 35664, Note_on_c, 0, 59, 0
1, 35664, Note_on_c, 0, 63, 65
1, 35664, Note_on_c, 0, 57, 65
1, 35709, Note_on_c, 0, 63, 0
1, 35709, Note_on_c, 0, 57, 0
1, 35712, Note_on_c, 0, 64, 65
1, 35712, Note_on_c, 0, 55, 65
1, 35712, Note_on_c, 1, 40, 65
1, 35732, Note_on_c, 1, 40, 0
1, 35757, Note_on_c, 0, 64, 0
1, 35757, Note_on_c, 0, 55, 0
1, 35760, Note_on_c, 1, 43, 65
1, 35780, Note_on_c, 1, 43, 0
1, 35808, Note_on_c, 1, 47, 65
1, 35828, Note_on_c, 1, 47, 0
1, 35856, Note_on_c, 1, 52, 65
1, 35901, Note_on_c, 1, 52, 0
1, 35904, Note_on_c, 0, 71, 65
1, 35904, Note_on_c, 0, 67, 65
1, 35952, Note_on_c, 0, 71, 0
1, 35952, Note_on_c, 0, 67, 0
1, 35952, Note_on_c, 0, 69, 65
1, 35952, Note_on_c, 0, 66, 65
1, 35997, Note_on_c, 0, 69, 0
1, 35997, Note_on_c, 0, 66, 0
1, 36000, Note_on_c, 0, 67, 65
1, 36000, Note_on_c, 0, 64, 65
1, 36000, Note_on_c, 1, 52, 65
1, 36045, Note_on_c, 0, 67, 0
1, 36045, Note_on_c, 0, 64, 0
1, 36048, Note_on_c, 1, 55, 65
1, 36096, Note_on_c, 1, 59, 65
1, 36144, Note_on_c, 1, 64, 65
1, 36168, Note_on_c, 0, 83, 73
1, 36191, Note_on_c, 0, 83, 0
1, 36192, Note_on_c, 0, 81, 73
1, 36215, Note_on_c, 0, 81, 0
1, 36216, Note_on_c, 0, 79, 73
1, 36239, Note_on_c, 0, 79, 0
1, 36240, Note_on_c, 0, 78, 73
1, 36263, Note_on_c, 0, 78, 0
1, 36264, Note_on_c, 0, 76, 73
1, 36277, Note_on_c, 1, 64, 0
1, 36277, Note_on_c, 1, 59, 0
1, 36277, Note_on_c, 1, 55, 0
1, 36277, Note_on_c, 1, 52, 0
1, 36287, Note_on_c, 0, 76, 0
1, 36288, Note_on_c, 0, 76, 73
1, 36288, Note_on_c, 1, 54, 73
1, 36336, Note_on_c, 1, 57, 73
1, 36384, Note_on_c, 0, 76, 0
1, 36384, Note_on_c, 0, 75, 73
1, 36384, Note_on_c, 1, 60, 73
1, 36429, Note_on_c, 0, 75, 0
1, 36432, Note_on_c, 1, 63, 73
1, 36456, Note_on_c, 0, 84, 73
1, 36479, Note_on_c, 0, 84, 0
1, 36480, Note_on_c, 0, 83, 73
1, 36503, Note_on_c, 0, 83, 0
1, 36504, Note_on_c, 0, 81, 73
1, 36527, Note_on_c, 0, 81, 0
1, 36528, Note_on_c, 0, 79, 73
1, 36551, Note_on_c, 0, 79, 0
1, 36552, Note_on_c, 0, 78, 73
1, 36565, Note_on_c, 1, 63, 0
1, 36565, Note_on_c, 1, 60, 0
1, 36565, Note_on_c, 1, 57, 0
1, 36565, Note_on_c, 1, 54, 0
1, 36575, Note_on_c, 0, 78, 0
1, 36576, Note_on_c, 0, 78, 73
1, 36576, Note_on_c, 1, 55, 73
1, 36624, Note_on_c, 1, 59, 73
1, 36672, Note_on_c, 0, 78, 0
1, 36672, Note_on_c, 0, 76, 73
1, 36672, Note_on_c, 1, 63, 73
1, 36717, Note_on_c, 0, 76, 0
1, 36720, Note_on_c, 1, 63, 0
1, 36720, Note_on_c, 1, 64, 73
1, 36744, Note_on_c, 0, 83, 73
1, 36767, Note_on_c, 0, 83, 0
1, 36768, Note_on_c, 0, 81, 73
1, 36791, Note_on_c, 0, 81, 0
1, 36792, Note_on_c, 0, 79, 73
1, 36815, Note_on_c, 0, 79, 0
1, 36816, Note_on_c, 0, 78, 73
1, 36839, Note_on_c, 0, 78, 0
1, 36840, Note_on_c, 0, 76, 73
1, 36853, Note_on_c, 1, 64, 0
1, 36853, Note_on_c, 1, 59, 0
1, 36853, Note_on_c, 1, 55, 0
1, 36863, Note_on_c, 0, 76, 0
1, 36864, Note_on_c, 0, 84, 73
1, 36864, Note_on_c, 1, 57, 73
1, 36887, Note_on_c, 0, 84, 0
1, 36888, Note_on_c, 0, 72, 73
1, 36909, Note_on_c, 1, 57, 0
1, 36911, Note_on_c, 0, 72, 0
1, 36912, Note_on_c, 0, 81, 73
1, 36912, Note_on_c, 1, 66, 73
1, 36935, Note_on_c, 0, 81, 0
1, 36936, Note_on_c, 0, 84, 73
1, 36957, Note_on_c, 1, 66, 0
1, 36959, Note_on_c, 0, 84, 0
1, 36960, Note_on_c, 0, 79, 73
1, 36960, Note_on_c, 1, 64, 73
1, 36983, Note_on_c, 0, 79, 0
1, 36984, Note_on_c, 0, 84, 73
1, 37005, Note_on_c, 1, 64, 0
1, 37007, Note_on_c, 0, 84, 0
1, 37008, Note_on_c, 0, 78, 73
1, 37008, Note_on_c, 1, 62, 73
1, 37031, Note_on_c, 0, 78, 0
1, 37032, Note_on_c, 0, 81, 73
1, 37055, Note_on_c, 0, 81, 0
1, 37056, Note_on_c, 0, 86, 73
1, 37079, Note_on_c, 0, 86, 0
1, 37080, Note_on_c, 0, 84, 73
1, 37097, Note_on_c, 1, 62, 0
1, 37103, Note_on_c, 0, 84, 0
1, 37104, Note_on_c, 0, 83, 73
1, 37127, Note_on_c, 0, 83, 0
1, 37128, Note_on_c, 0, 81, 73
1, 37151, Note_on_c, 0, 81, 0
1, 37152, Note_on_c, 0, 83, 73
1, 37152, Note_on_c, 1, 55, 73
1, 37175, Note_on_c, 0, 83, 0
1, 37176, Note_on_c, 0, 71, 73
1, 37197, Note_on_c, 1, 55, 0
1, 37199, Note_on_c, 0, 71, 0
1, 37200, Note_on_c, 0, 79, 73
1, 37200, Note_on_c, 1, 64, 73
1, 37223, Note_on_c, 0, 79, 0
1, 37224, Note_on_c, 0, 83, 73
1, 37245, Note_on_c, 1, 64, 0
1, 37247, Note_on_c, 0, 83, 0
1, 37248, Note_on_c, 0, 78, 73
1, 37248, Note_on_c, 1, 62, 73
1, 37271, Note_on_c, 0, 78, 0
1, 37272, Note_on_c, 0, 83, 73
1, 37293, Note_on_c, 1, 62, 0
1, 37295, Note_on_c, 0, 83, 0
1, 37296, Note_on_c, 0, 76, 73
1, 37296, Note_on_c, 1, 60, 73
1, 37319, Note_on_c, 0, 76, 0
1, 37320, Note_on_c, 0, 79, 73
1, 37343, Note_on_c, 0, 79, 0
1, 37344, Note_on_c, 0, 84, 73
1, 37367, Note_on_c, 0, 84, 0
1, 37368, Note_on_c, 0, 83, 73
1, 37385, Note_on_c, 1, 60, 0
1, 37391, Note_on_c, 0, 83, 0
1, 37392, Note_on_c, 0, 81, 73
1, 37415, Note_on_c, 0, 81, 0
1, 37416, Note_on_c, 0, 79, 73
1, 37439, Note_on_c, 0, 79, 0
1, 37440, Note_on_c, 0, 81, 73
1, 37440, Note_on_c, 1, 54, 73
1, 37463, Note_on_c, 0, 81, 0
1, 37464, Note_on_c, 0, 69, 73
1, 37485, Note_on_c, 1, 54, 0
1, 37487, Note_on_c, 0, 69, 0
1, 37488, Note_on_c, 0, 78, 73
1, 37488, Note_on_c, 1, 63, 73
1, 37511, Note_on_c, 0, 78, 0
1, 37512, Note_on_c, 0, 81, 73
1, 37533, Note_on_c, 1, 63, 0
1, 37535, Note_on_c, 0, 81, 0
1, 37536, Note_on_c, 0, 76, 73
1, 37536, Note_on_c, 1, 61, 73
1, 37559, Note_on_c, 0, 76, 0
1, 37560, Note_on_c, 0, 81, 73
1, 37581, Note_on_c, 1, 61, 0
1, 37583, Note_on_c, 0, 81, 0
1, 37584, Note_on_c, 0, 75, 73
1, 37584, Note_on_c, 1, 59, 73
1, 37607, Note_on_c, 0, 75, 0
1, 37608, Note_on_c, 0, 78, 73
1, 37631, Note_on_c, 0, 78, 0
1, 37632, Note_on_c, 0, 83, 73
1, 37655, Note_on_c, 0, 83, 0
1, 37656, Note_on_c, 0, 81, 73
1, 37673, Note_on_c, 1, 59, 0
1, 37679, Note_on_c, 0, 81, 0
1, 37680, Note_on_c, 0, 79, 73
1, 37703, Note_on_c, 0, 79, 0
1, 37704, Note_on_c, 0, 78, 73
1, 37727, Note_on_c, 0, 78, 0
1, 37728, Note_on_c, 0, 79, 73
1, 37728, Note_on_c, 1, 52, 73
1, 37751, Note_on_c, 1, 52, 0
1, 37752, Note_on_c, 1, 64, 73
1, 37773, Note_on_c, 0, 79, 0
1, 37775, Note_on_c, 1, 64, 0
1, 37776, Note_on_c, 0, 83, 73
1, 37776, Note_on_c, 1, 54, 73
1, 37788, Note_on_c, 0, 83, 0
1, 37788, Note_on_c, 0, 81, 73
1, 37799, Note_on_c, 1, 54, 0
1, 37800, Note_on_c, 0, 81, 0
1, 37800, Note_on_c, 0, 79, 73
1, 37800, Note_on_c, 1, 64, 73
1, 37812, Note_on_c, 0, 79, 0
1, 37812, Note_on_c, 0, 81, 73
1, 37823, Note_on_c, 1, 64, 0
1, 37824, Note_on_c, 0, 81, 0
1, 37824, Note_on_c, 0, 83, 73
1, 37824, Note_on_c, 1, 55, 73
1, 37847, Note_on_c, 1, 55, 0
1, 37848, Note_on_c, 1, 64, 73
1, 37869, Note_on_c, 0, 83, 0
1, 37871, Note_on_c, 1, 64, 0
1, 37872, Note_on_c, 0, 78, 73
1, 37872, Note_on_c, 1, 57, 73
1, 37895, Note_on_c, 1, 57, 0
1, 37896, Note_on_c, 1, 64, 73
1, 37917, Note_on_c, 0, 78, 0
1, 37919, Note_on_c, 1, 64, 0
1, 37920, Note_on_c, 0, 78, 73
1, 37920, Note_on_c, 1, 57, 73
1, 37943, Note_on_c, 1, 57, 0
1, 37944, Note_on_c, 1, 64, 73
1, 37965, Note_on_c, 0, 78, 0
1, 37967, Note_on_c, 1, 64, 0
1, 37968, Note_on_c, 0, 78, 73
1, 37968, Note_on_c, 1, 57, 73
1, 37991, Note_on_c, 1, 57, 0
1, 37992, Note_on_c, 1, 64, 73
1, 38013, Note_on_c, 0, 78, 0
1, 38015, Note_on_c, 1, 64, 0
1, 38016, Note_on_c, 0, 79, 73
1, 38016, Note_on_c, 1, 52, 73
1, 38039, Note_on_c, 1, 52, 0
1, 38040, Note_on_c, 1, 64, 73
1, 38061, Note_on_c, 0, 79, 0
1, 38063, Note_on_c, 1, 64, 0
1, 38064, Note_on_c, 0, 83, 73
1, 38064, Note_on_c, 1, 54, 73
1, 38076, Note_on_c, 0, 83, 0
1, 38076, Note_on_c, 0, 81, 73
1, 38087, Note_on_c, 1, 54, 0
1, 38088, Note_on_c, 0, 81, 0
1, 38088, Note_on_c, 0, 79, 73
1, 38088, Note_on_c, 1, 64, 73
1, 38100, Note_on_c, 0, 79, 0
1, 38100, Note_on_c, 0, 81, 73
1, 38111, Note_on_c, 1, 64, 0
1, 38112, Note_on_c, 0, 81, 0
1, 38112, Note_on_c, 0, 83, 73
1, 38112, Note_on_c, 1, 55, 73
1, 38135, Note_on_c, 1, 55, 0
1, 38136, Note_on_c, 1, 64, 73
1, 38157, Note_on_c, 0, 83, 0
1, 38159, Note_on_c, 1, 64, 0
1, 38160, Note_on_c, 0, 78, 73
1, 38160, Note_on_c, 1, 57, 73
1, 38183, Note_on_c, 1, 57, 0
1, 38184, Note_on_c, 1, 64, 73
1, 38205, Note_on_c, 0, 78, 0
1, 38207, Note_on_c, 1, 64, 0
1, 38208, Note_on_c, 0, 78, 73
1, 38208, Note_on_c, 1, 57, 73
1, 38231, Note_on_c, 1, 57, 0
1, 38232, Note_on_c, 1, 64, 73
1, 38253, Note_on_c, 0, 78, 0
1, 38255, Note_on_c, 1, 64, 0
1, 38256, Note_on_c, 0, 78, 73
1, 38256, Note_on_c, 1, 57, 73
1, 38279, Note_on_c, 1, 57, 0
1, 38280, Note_on_c, 1, 64, 73
1, 38301, Note_on_c, 0, 78, 0
1, 38303, Note_on_c, 1, 64, 0
1, 38304, Note_on_c, 0, 79, 73
1, 38304, Note_on_c, 1, 52, 73
1, 38327, Note_on_c, 1, 52, 0
1, 38328, Note_on_c, 1, 64, 73
1, 38349, Note_on_c, 0, 79, 0
1, 38351, Note_on_c, 1, 64, 0
1, 38352, Note_on_c, 0, 83, 73
1, 38352, Note_on_c, 1, 54, 73
1, 38364, Note_on_c, 0, 83, 0
1, 38364, Note_on_c, 0, 81, 73
1, 38375, Note_on_c, 1, 54, 0
1, 38376, Note_on_c, 0, 81, 0
1, 38376, Note_on_c, 0, 79, 73
1, 38376, Note_on_c, 1, 64, 73
1, 38388, Note_on_c, 0, 79, 0
1, 38388, Note_on_c, 0, 81, 73
1, 38399, Note_on_c, 1, 64, 0
1, 38400, Note_on_c, 0, 81, 0
1, 38400, Note_on_c, 0, 83, 73
1, 38400, Note_on_c, 1, 55, 73
1, 38423, Note_on_c, 1, 55, 0
1, 38424, Note_on_c, 1, 64, 73
1, 38445, Note_on_c, 0, 83, 0
1, 38447, Note_on_c, 1, 64, 0
1, 38448, Note_on_c, 0, 78, 73
1, 38448, Note_on_c, 1, 57, 73
1, 38471, Note_on_c, 1, 57, 0
1, 38472, Note_on_c, 1, 64, 73
1, 38493, Note_on_c, 0, 78, 0
1, 38495, Note_on_c, 1, 64, 0
1, 38496, Note_on_c, 0, 78, 73
1, 38496, Note_on_c, 1, 57, 73
1, 38519, Note_on_c, 1, 57, 0
1, 38520, Note_on_c, 1, 64, 73
1, 38541, Note_on_c, 0, 78, 0
1, 38543, Note_on_c, 1, 64, 0
1, 38544, Note_on_c, 0, 78, 73
1, 38544, Note_on_c, 1, 57, 73
1, 38567, Note_on_c, 1, 57, 0
1, 38568, Note_on_c, 1, 64, 73
1, 38589, Note_on_c, 0, 78, 0
1, 38591, Note_on_c, 1, 64, 0
1, 38592, Note_on_c, 0, 76, 73
1, 38592, Note_on_c, 1, 58, 73
1, 38615, Note_on_c, 1, 58, 0
1, 38616, Note_on_c, 1, 67, 73
1, 38637, Note_on_c, 0, 76, 0
1, 38639, Note_on_c, 1, 67, 0
1, 38640, Note_on_c, 0, 76, 73
1, 38640, Note_on_c, 1, 58, 73
1, 38663, Note_on_c, 1, 58, 0
1, 38664, Note_on_c, 1, 67, 73
1, 38685, Note_on_c, 0, 76, 0
1, 38687, Note_on_c, 1, 67, 0
1, 38688, Note_on_c, 0, 76, 73
1, 38688, Note_on_c, 1, 58, 73
1, 38711, Note_on_c, 1, 58, 0
1, 38712, Note_on_c, 1, 67, 73
1, 38733, Note_on_c, 0, 76, 0
1, 38735, Note_on_c, 1, 67, 0
1, 38736, Note_on_c, 0, 75, 73
1, 38736, Note_on_c, 1, 59, 73
1, 38759, Note_on_c, 1, 59, 0
1, 38760, Note_on_c, 1, 66, 73
1, 38781, Note_on_c, 0, 75, 0
1, 38783, Note_on_c, 1, 66, 0
1, 38784, Note_on_c, 0, 75, 73
1, 38784, Note_on_c, 1, 59, 73
1, 38807, Note_on_c, 1, 59, 0
1, 38808, Note_on_c, 1, 66, 73
1, 38829, Note_on_c, 0, 75, 0
1, 38831, Note_on_c, 1, 66, 0
1, 38832, Note_on_c, 0, 75, 73
1, 38832, Note_on_c, 1, 59, 73
1, 38855, Note_on_c, 1, 59, 0
1, 38856, Note_on_c, 1, 66, 73
1, 38877, Note_on_c, 0, 75, 0
1, 38879, Note_on_c, 1, 66, 0
1, 38880, Note_on_c, 0, 70, 73
1, 38880, Note_on_c, 1, 60, 73
1, 38903, Note_on_c, 1, 60, 0
1, 38904, Note_on_c, 1, 64, 73
1, 38925, Note_on_c, 0, 70, 0
1, 38927, Note_on_c, 1, 64, 0
1, 38928, Note_on_c, 0, 70, 73
1, 38928, Note_on_c, 1, 60, 73
1, 38951, Note_on_c, 1, 60, 0
1, 38952, Note_on_c, 1, 64, 73
1, 38973, Note_on_c, 0, 70, 0
1, 38975, Note_on_c, 1, 64, 0
1, 38976, Note_on_c, 0, 70, 73
1, 38976, Note_on_c, 1, 60, 73
1, 38999, Note_on_c, 1, 60, 0
1, 39000, Note_on_c, 1, 64, 73
1, 39021, Note_on_c, 0, 70, 0
1, 39023, Note_on_c, 1, 64, 0
1, 39024, Note_on_c, 1, 59, 73
1, 39048, Note_on_c, 0, 71, 73
1, 39071, Note_on_c, 0, 71, 0
1, 39072, Note_on_c, 0, 73, 73
1, 39095, Note_on_c, 0, 73, 0
1, 39096, Note_on_c, 0, 75, 73
1, 39113, Note_on_c, 1, 59, 0
1, 39119, Note_on_c, 0, 75, 0
1, 39120, Note_on_c, 0, 76, 73
1, 39143, Note_on_c, 0, 76, 0
1, 39144, Note_on_c, 0, 78, 73
1, 39167, Note_on_c, 0, 78, 0
1, 39168, Note_on_c, 0, 79, 73
1, 39191, Note_on_c, 0, 79, 0
1, 39192, Note_on_c, 0, 71, 73
1, 39192, Note_on_c, 1, 59, 73
1, 39215, Note_on_c, 0, 71, 0
1, 39215, Note_on_c, 1, 59, 0
1, 39216, Note_on_c, 0, 73, 73
1, 39216, Note_on_c, 1, 61, 73
1, 39239, Note_on_c, 0, 73, 0
1, 39239, Note_on_c, 1, 61, 0
1, 39240, Note_on_c, 0, 75, 73
1, 39240, Note_on_c, 1, 63, 73
1, 39263, Note_on_c, 0, 75, 0
1, 39263, Note_on_c, 1, 63, 0
1, 39264, Note_on_c, 0, 76, 74
1, 39264, Note_on_c, 1, 64, 74
1, 39287, Note_on_c, 0, 76, 0
1, 39287, Note_on_c, 1, 64, 0
1, 39288, Note_on_c, 0, 78, 74
1, 39288, Note_on_c, 1, 66, 74
1, 39311, Note_on_c, 0, 78, 0
1, 39311, Note_on_c, 1, 66, 0
1, 39312, Note_on_c, 0, 79, 74
1, 39312, Note_on_c, 1, 67, 74
1, 39335, Note_on_c, 0, 79, 0
1, 39335, Note_on_c, 1, 67, 0
1, 39336, Note_on_c, 0, 78, 75
1, 39336, Note_on_c, 1, 66, 75
1, 39359, Note_on_c, 0, 78, 0
1, 39359, Note_on_c, 1, 66, 0
1, 39360, Note_on_c, 0, 76, 75
1, 39360, Note_on_c, 1, 64, 75
1, 39383, Note_on_c, 0, 76, 0
1, 39383, Note_on_c, 1, 64, 0
1, 39384, Note_on_c, 0, 78, 76
1, 39384, Note_on_c, 1, 66, 76
1, 39407, Note_on_c, 0, 78, 0
1, 39407, Note_on_c, 1, 66, 0
1, 39408, Note_on_c, 0, 79, 76
1, 39408, Note_on_c, 1, 67, 76
1, 39431, Note_on_c, 0, 79, 0
1, 39431, Note_on_c, 1, 67, 0
1, 39432, Note_on_c, 0, 81, 76
1, 39432, Note_on_c, 1, 69, 76
1, 39455, Note_on_c, 0, 81, 0
1, 39455, Note_on_c, 1, 69, 0
1, 39456, Note_on_c, 0, 83, 77
1, 39456, Note_on_c, 1, 71, 77
1, 39501, Note_on_c, 0, 83, 0
1, 39501, Note_on_c, 1, 71, 0
1, 39504, Note_on_c, 0, 78, 78
1, 39504, Note_on_c, 1, 66, 78
1, 39549, Note_on_c, 0, 78, 0
1, 39549, Note_on_c, 1, 66, 0
1, 39552, Note_on_c, 0, 75, 78
1, 39552, Note_on_c, 1, 63, 78
1, 39597, Note_on_c, 0, 75, 0
1, 39597, Note_on_c, 1, 63, 0
1, 39600, Note_on_c, 0, 71, 78
1, 39600, Note_on_c, 1, 59, 78
1, 39645, Note_on_c, 0, 71, 0
1, 39645, Note_on_c, 1, 59, 0
1, 39648, Note_on_c, 0, 66, 78
1, 39648, Note_on_c, 1, 54, 78
1, 39693, Note_on_c, 0, 66, 0
1, 39693, Note_on_c, 1, 54, 0
1, 39696, Note_on_c, 0, 63, 78
1, 39696, Note_on_c, 1, 51, 78
1, 39741, Note_on_c, 0, 63, 0
1, 39741, Note_on_c, 1, 51, 0
1, 39744, Note_on_c, 0, 59, 78
1, 39744, Note_on_c, 1, 47, 78
1, 39981, Note_on_c, 0, 59, 0
1, 39981, Note_on_c, 1, 47, 0
1, 40032, Note_on_c, 1, 40, 73
1, 40080, Note_on_c, 0, 71, 73
1, 40080, Note_on_c, 0, 67, 73
1, 40121, Note_on_c, 1, 40, 0
1, 40125, Note_on_c, 0, 71, 0
1, 40125, Note_on_c, 0, 67, 0
1, 40128, Note_on_c, 0, 69, 73
1, 40128, Note_on_c, 0, 66, 73
1, 40173, Note_on_c, 0, 69, 0
1, 40173, Note_on_c, 0, 66, 0
1, 40176, Note_on_c, 0, 67, 73
1, 40176, Note_on_c, 0, 64, 73
1, 40221, Note_on_c, 0, 67, 0
1, 40221, Note_on_c, 0, 64, 0
1, 40224, Note_on_c, 0, 79, 73
1, 40224, Note_on_c, 0, 71, 73
1, 40269, Note_on_c, 0, 79, 0
1, 40269, Note_on_c, 0, 71, 0
1, 40272, Note_on_c, 0, 76, 73
1, 40272, Note_on_c, 0, 67, 73
1, 40272, Note_on_c, 1, 55, 69
1, 40272, Note_on_c, 1, 52, 69
1, 40317, Note_on_c, 0, 76, 0
1, 40317, Note_on_c, 0, 67, 0
1, 40317, Note_on_c, 1, 55, 0
1, 40317, Note_on_c, 1, 52, 0
1, 40320, Note_on_c, 0, 75, 73
1, 40320, Note_on_c, 0, 66, 73
1, 40320, Note_on_c, 1, 57, 69
1, 40320, Note_on_c, 1, 54, 69
1, 40365, Note_on_c, 0, 75, 0
1, 40365, Note_on_c, 0, 66, 0
1, 40368, Note_on_c, 0, 81, 73
1, 40368, Note_on_c, 0, 78, 73
1, 40409, Note_on_c, 1, 57, 0
1, 40409, Note_on_c, 1, 54, 0
1, 40413, Note_on_c, 0, 81, 0
1, 40413, Note_on_c, 0, 78, 0
1, 40416, Note_on_c, 0, 79, 73
1, 40416, Note_on_c, 0, 76, 73
1, 40461, Note_on_c, 0, 79, 0
1, 40461, Note_on_c, 0, 76, 0
1, 40464, Note_on_c, 0, 78, 73
1, 40464, Note_on_c, 0, 75, 73
1, 40509, Note_on_c, 0, 78, 0
1, 40509, Note_on_c, 0, 75, 0
1, 40512, Note_on_c, 0, 84, 73
1, 40512, Note_on_c, 0, 81, 73
1, 40512, Note_on_c, 1, 63, 69
1, 40512, Note_on_c, 1, 59, 69
1, 40557, Note_on_c, 0, 84, 0
1, 40557, Note_on_c, 0, 81, 0
1, 40560, Note_on_c, 0, 81, 73
1, 40560, Note_on_c, 0, 78, 73
1, 40560, Note_on_c, 1, 59, 0
1, 40560, Note_on_c, 1, 66, 69
1, 40605, Note_on_c, 0, 81, 0
1, 40605, Note_on_c, 0, 78, 0
1, 40605, Note_on_c, 1, 66, 0
1, 40605, Note_on_c, 1, 63, 0
1, 40608, Note_on_c, 0, 79, 73
1, 40608, Note_on_c, 0, 76, 73
1, 40608, Note_on_c, 1, 67, 69
1, 40608, Note_on_c, 1, 64, 73
1, 40653, Note_on_c, 0, 79, 0
1, 40656, Note_on_c, 0, 83, 73
1, 40697, Note_on_c, 0, 76, 0
1, 40697, Note_on_c, 1, 67, 0
1, 40697, Note_on_c, 1, 64, 0
1, 40704, Note_on_c, 0, 71, 73
1, 40704, Note_on_c, 1, 67, 69
1, 40749, Note_on_c, 0, 71, 0
1, 40749, Note_on_c, 1, 67, 0
1, 40752, Note_on_c, 0, 72, 73
1, 40752, Note_on_c, 1, 69, 69
1, 40789, Note_on_c, 0, 83, 0
1, 40797, Note_on_c, 1, 69, 0
1, 40800, Note_on_c, 0, 81, 73
1, 40800, Note_on_c, 1, 66, 69
1, 40845, Note_on_c, 1, 66, 0
1, 40848, Note_on_c, 1, 64, 69
1, 40885, Note_on_c, 0, 72, 0
1, 40893, Note_on_c, 1, 64, 0
1, 40896, Note_on_c, 0, 71, 73
1, 40896, Note_on_c, 1, 63, 69
1, 40941, Note_on_c, 0, 81, 0
1, 40941, Note_on_c, 1, 63, 0
1, 40944, Note_on_c, 0, 79, 73
1, 40944, Note_on_c, 1, 64, 69
1, 40989, Note_on_c, 0, 79, 0
1, 40989, Note_on_c, 1, 64, 0
1, 40992, Note_on_c, 0, 76, 73
1, 40992, Note_on_c, 1, 71, 69
1, 40992, Note_on_c, 1, 67, 73
1, 41029, Note_on_c, 0, 71, 0
1, 41037, Note_on_c, 0, 76, 0
1, 41037, Note_on_c, 1, 71, 0
1, 41037, Note_on_c, 1, 67, 0
1, 41040, Note_on_c, 0, 76, 73
1, 41040, Note_on_c, 0, 69, 73
1, 41040, Note_on_c, 1, 72, 69
1, 41040, Note_on_c, 1, 69, 73
1, 41085, Note_on_c, 0, 76, 0
1, 41088, Note_on_c, 0, 77, 73
1, 41133, Note_on_c, 0, 77, 0
1, 41136, Note_on_c, 0, 81, 73
1, 41173, Note_on_c, 0, 69, 0
1, 41173, Note_on_c, 1, 72, 0
1, 41173, Note_on_c, 1, 69, 0
1, 41181, Note_on_c, 0, 81, 0
1, 41184, Note_on_c, 0, 76, 73
1, 41184, Note_on_c, 0, 71, 73
1, 41184, Note_on_c, 1, 67, 69
1, 41184, Note_on_c, 1, 59, 73
1, 41317, Note_on_c, 0, 71, 0
1, 41317, Note_on_c, 1, 67, 0
1, 41328, Note_on_c, 0, 69, 73
1, 41328, Note_on_c, 1, 66, 69
1, 41373, Note_on_c, 0, 76, 0
1, 41376, Note_on_c, 0, 78, 73
1, 41421, Note_on_c, 0, 78, 0
1, 41424, Note_on_c, 0, 75, 73
1, 41449, Note_on_c, 1, 59, 0
1, 41461, Note_on_c, 0, 69, 0
1, 41461, Note_on_c, 1, 66, 0
1, 41469, Note_on_c, 0, 75, 0
1, 41472, Note_on_c, 0, 76, 73
1, 41472, Note_on_c, 0, 67, 73
1, 41472, Note_on_c, 1, 64, 69
1, 41472, Note_on_c, 1, 64, 73
1, 41605, Note_on_c, 0, 76, 0
1, 41605, Note_on_c, 0, 67, 0
1, 41605, Note_on_c, 1, 64, 0
1, 41605, Note_on_c, 1, 64, 0
1, 41760, Note_on_c, 1, 40, 73
1, 41808, Note_on_c, 0, 71, 73
1, 41808, Note_on_c, 0, 67, 73
1, 41849, Note_on_c, 1, 40, 0
1, 41853, Note_on_c, 0, 71, 0
1, 41853, Note_on_c, 0, 67, 0
1, 41856, Note_on_c, 0, 69, 73
1, 41856, Note_on_c, 0, 66, 73
1, 41901, Note_on_c, 0, 69, 0
1, 41901, Note_on_c, 0, 66, 0
1, 41904, Note_on_c, 0, 67, 73
1, 41904, Note_on_c, 0, 64, 73
1, 41949, Note_on_c, 0, 67, 0
1, 41949, Note_on_c, 0, 64, 0
1, 41952, Note_on_c, 0, 79, 73
1, 41952, Note_on_c, 0, 71, 73
1, 41997, Note_on_c, 0, 79, 0
1, 41997, Note_on_c, 0, 71, 0
1, 42000, Note_on_c, 0, 76, 73
1, 42000, Note_on_c, 0, 67, 73
1, 42000, Note_on_c, 1, 55, 69
1, 42000, Note_on_c, 1, 52, 69
1, 42045, Note_on_c, 0, 76, 0
1, 42045, Note_on_c, 0, 67, 0
1, 42045, Note_on_c, 1, 55, 0
1, 42045, Note_on_c, 1, 52, 0
1, 42048, Note_on_c, 0, 75, 73
1, 42048, Note_on_c, 0, 66, 73
1, 42048, Note_on_c, 1, 57, 69
1, 42048, Note_on_c, 1, 54, 69
1, 42093, Note_on_c, 0, 75, 0
1, 42093, Note_on_c, 0, 66, 0
1, 42096, Note_on_c, 0, 81, 73
1, 42096, Note_on_c, 0, 78, 73
1, 42137, Note_on_c, 1, 57, 0
1, 42137, Note_on_c, 1, 54, 0
1, 42141, Note_on_c, 0, 81, 0
1, 42141, Note_on_c, 0, 78, 0
1, 42144, Note_on_c, 0, 79, 73
1, 42144, Note_on_c, 0, 76, 73
1, 42189, Note_on_c, 0, 79, 0
1, 42189, Note_on_c, 0, 76, 0
1, 42192, Note_on_c, 0, 78, 73
1, 42192, Note_on_c, 0, 75, 73
1, 42237, Note_on_c, 0, 78, 0
1, 42237, Note_on_c, 0, 75, 0
1, 42240, Note_on_c, 0, 84, 73
1, 42240, Note_on_c, 0, 81, 73
1, 42240, Note_on_c, 1, 63, 69
1, 42240, Note_on_c, 1, 59, 69
1, 42285, Note_on_c, 0, 84, 0
1, 42285, Note_on_c, 0, 81, 0
1, 42288, Note_on_c, 0, 81, 73
1, 42288, Note_on_c, 0, 78, 73
1, 42288, Note_on_c, 1, 59, 0
1, 42288, Note_on_c, 1, 66, 69
1, 42333, Note_on_c, 0, 81, 0
1, 42333, Note_on_c, 0, 78, 0
1, 42333, Note_on_c, 1, 66, 0
1, 42333, Note_on_c, 1, 63, 0
1, 42336, Note_on_c, 0, 79, 73
1, 42336, Note_on_c, 0, 76, 73
1, 42336, Note_on_c, 1, 67, 69
1, 42336, Note_on_c, 1, 64, 73
1, 42381, Note_on_c, 0, 79, 0
1, 42384, Note_on_c, 0, 83, 73
1, 42425, Note_on_c, 0, 76, 0
1, 42425, Note_on_c, 1, 67, 0
1, 42425, Note_on_c, 1, 64, 0
1, 42432, Note_on_c, 0, 71, 73
1, 42432, Note_on_c, 1, 67, 69
1, 42477, Note_on_c, 0, 71, 0
1, 42477, Note_on_c, 1, 67, 0
1, 42480, Note_on_c, 0, 72, 73
1, 42480, Note_on_c, 1, 69, 69
1, 42517, Note_on_c, 0, 83, 0
1, 42525, Note_on_c, 1, 69, 0
1, 42528, Note_on_c, 0, 81, 73
1, 42528, Note_on_c, 1, 66, 69
1, 42573, Note_on_c, 1, 66, 0
1, 42576, Note_on_c, 1, 64, 69
1, 42613, Note_on_c, 0, 72, 0
1, 42621, Note_on_c, 1, 64, 0
1, 42624, Note_on_c, 0, 71, 73
1, 42624, Note_on_c, 1, 63, 69
1, 42669, Note_on_c, 0, 81, 0
1, 42669, Note_on_c, 1, 63, 0
1, 42672, Note_on_c, 0, 79, 73
1, 42672, Note_on_c, 1, 64, 69
1, 42713, Note_on_c, 0, 71, 0
1, 42717, Note_on_c, 1, 64, 0
1, 42720, Note_on_c, 0, 76, 73
1, 42720, Note_on_c, 1, 67, 69
1, 42761, Note_on_c, 0, 79, 0
1, 42765, Note_on_c, 1, 67, 0
1, 42768, Note_on_c, 0, 77, 73
1, 42768, Note_on_c, 1, 69, 69
1, 42809, Note_on_c, 0, 76, 0
1, 42813, Note_on_c, 1, 69, 0
1, 42816, Note_on_c, 0, 74, 73
1, 42816, Note_on_c, 1, 71, 69
1, 42861, Note_on_c, 1, 71, 0
1, 42864, Note_on_c, 1, 69, 69
1, 42901, Note_on_c, 0, 77, 0
1, 42905, Note_on_c, 0, 74, 0
1, 42909, Note_on_c, 1, 69, 0
1, 42912, Note_on_c, 0, 76, 73
1, 42912, Note_on_c, 0, 74, 73
1, 42912, Note_on_c, 1, 68, 69
1, 42957, Note_on_c, 0, 74, 0
1, 42957, Note_on_c, 1, 68, 0
1, 42960, Note_on_c, 0, 72, 73
1, 42960, Note_on_c, 1, 69, 69
1, 43005, Note_on_c, 1, 69, 0
1, 43008, Note_on_c, 1, 67, 69
1, 43045, Note_on_c, 0, 76, 0
1, 43053, Note_on_c, 1, 67, 0
1, 43056, Note_on_c, 0, 74, 73
1, 43056, Note_on_c, 1, 66, 69
1, 43093, Note_on_c, 0, 72, 0
1, 43101, Note_on_c, 1, 66, 0
1, 43104, Note_on_c, 0, 71, 73
1, 43104, Note_on_c, 1, 67, 69
1, 43149, Note_on_c, 1, 67, 0
1, 43152, Note_on_c, 1, 66, 69
1, 43189, Note_on_c, 0, 74, 0
1, 43193, Note_on_c, 0, 71, 0
1, 43197, Note_on_c, 1, 66, 0
1, 43200, Note_on_c, 0, 72, 73
1, 43200, Note_on_c, 0, 71, 73
1, 43200, Note_on_c, 1, 64, 69
1, 43245, Note_on_c, 0, 71, 0
1, 43245, Note_on_c, 1, 64, 0
1, 43248, Note_on_c, 0, 69, 73
1, 43248, Note_on_c, 1, 66, 69
1, 43293, Note_on_c, 1, 66, 0
1, 43296, Note_on_c, 1, 64, 69
1, 43333, Note_on_c, 0, 72, 0
1, 43337, Note_on_c, 0, 69, 0
1, 43341, Note_on_c, 1, 64, 0
1, 43344, Note_on_c, 0, 71, 73
1, 43344, Note_on_c, 0, 69, 73
1, 43344, Note_on_c, 1, 63, 69
1, 43389, Note_on_c, 0, 69, 0
1, 43389, Note_on_c, 1, 63, 0
1, 43392, Note_on_c, 0, 67, 73
1, 43392, Note_on_c, 1, 64, 69
1, 43433, Note_on_c, 0, 71, 0
1, 43437, Note_on_c, 0, 67, 0
1, 43437, Note_on_c, 1, 64, 0
1, 43440, Note_on_c, 0, 76, 73
1, 43440, Note_on_c, 0, 64, 73
1, 43440, Note_on_c, 1, 55, 69
1, 43485, Note_on_c, 0, 76, 0
1, 43485, Note_on_c, 0, 64, 0
1, 43485, Note_on_c, 1, 55, 0
1, 43488, Note_on_c, 0, 76, 73
1, 43488, Note_on_c, 0, 65, 73
1, 43488, Note_on_c, 1, 56, 69
1, 43508, Note_on_c, 0, 76, 0
1, 43533, Note_on_c, 0, 65, 0
1, 43533, Note_on_c, 1, 56, 0
1, 43536, Note_on_c, 0, 76, 73
1, 43536, Note_on_c, 0, 66, 73
1, 43536, Note_on_c, 1, 57, 69
1, 43556, Note_on_c, 0, 76, 0
1, 43581, Note_on_c, 0, 66, 0
1, 43581, Note_on_c, 1, 57, 0
1, 43584, Note_on_c, 0, 76, 73
1, 43584, Note_on_c, 0, 67, 73
1, 43584, Note_on_c, 1, 58, 69
1, 43604, Note_on_c, 0, 76, 0
1, 43629, Note_on_c, 0, 67, 0
1, 43629, Note_on_c, 1, 58, 0
1, 43632, Note_on_c, 0, 76, 73
1, 43632, Note_on_c, 0, 68, 73
1, 43632, Note_on_c, 1, 59, 69
1, 43652, Note_on_c, 0, 76, 0
1, 43677, Note_on_c, 0, 68, 0
1, 43677, Note_on_c, 1, 59, 0
1, 43680, Note_on_c, 0, 76, 73
1, 43680, Note_on_c, 0, 69, 73
1, 43680, Note_on_c, 1, 60, 69
1, 43700, Note_on_c, 0, 76, 0
1, 43725, Note_on_c, 0, 69, 0
1, 43725, Note_on_c, 1, 60, 0
1, 43728, Note_on_c, 0, 76, 73
1, 43728, Note_on_c, 0, 70, 73
1, 43728, Note_on_c, 1, 61, 69
1, 43748, Note_on_c, 0, 76, 0
1, 43773, Note_on_c, 0, 70, 0
1, 43773, Note_on_c, 1, 61, 0
1, 43776, Note_on_c, 0, 76, 73
1, 43776, Note_on_c, 0, 71, 73
1, 43776, Note_on_c, 1, 67, 69
1, 43776, Note_on_c, 1, 59, 73
1, 43909, Note_on_c, 0, 71, 0
1, 43909, Note_on_c, 1, 67, 0
1, 43920, Note_on_c, 0, 69, 73
1, 43920, Note_on_c, 1, 66, 69
1, 43965, Note_on_c, 0, 76, 0
1, 43968, Note_on_c, 0, 78, 73
1, 44013, Note_on_c, 0, 78, 0
1, 44016, Note_on_c, 0, 75, 73
1, 44041, Note_on_c, 1, 59, 0
1, 44053, Note_on_c, 0, 69, 0
1, 44053, Note_on_c, 1, 66, 0
1, 44061, Note_on_c, 0, 75, 0
1, 44064, Note_on_c, 0, 76, 78
1, 44064, Note_on_c, 1, 64, 78
1, 44064, Note_on_c, 1, 52, 78
1, 44087, Note_on_c, 0, 76, 0
1, 44088, Note_on_c, 0, 71, 78
1, 44111, Note_on_c, 0, 71, 0
1, 44112, Note_on_c, 0, 67, 78
1, 44135, Note_on_c, 0, 67, 0
1, 44136, Note_on_c, 0, 71, 78
1, 44153, Note_on_c, 1, 64, 0
1, 44153, Note_on_c, 1, 52, 0
1, 44159, Note_on_c, 0, 71, 0
1, 44160, Note_on_c, 0, 69, 78
1, 44160, Note_on_c, 1, 63, 78
1, 44160, Note_on_c, 1, 59, 78
1, 44183, Note_on_c, 0, 69, 0
1, 44184, Note_on_c, 0, 71, 78
1, 44205, Note_on_c, 1, 63, 0
1, 44205, Note_on_c, 1, 59, 0
1, 44207, Note_on_c, 0, 71, 0
1, 44208, Note_on_c, 0, 67, 78
1, 44208, Note_on_c, 1, 64, 78
1, 44208, Note_on_c, 1, 52, 78
1, 44231, Note_on_c, 0, 67, 0
1, 44232, Note_on_c, 0, 71, 78
1, 44255, Note_on_c, 0, 71, 0
1, 44256, Note_on_c, 0, 76, 78
1, 44279, Note_on_c, 0, 76, 0
1, 44280, Note_on_c, 0, 71, 78
1, 44297, Note_on_c, 1, 64, 0
1, 44297, Note_on_c, 1, 52, 0
1, 44303, Note_on_c, 0, 71, 0
1, 44304, Note_on_c, 0, 78, 78
1, 44304, Note_on_c, 1, 63, 78
1, 44304, Note_on_c, 1, 59, 78
1, 44327, Note_on_c, 0, 78, 0
1, 44328, Note_on_c, 0, 71, 78
1, 44349, Note_on_c, 1, 63, 0
1, 44349, Note_on_c, 1, 59, 0
1, 44351, Note_on_c, 0, 71, 0
1, 44352, Note_on_c, 0, 79, 78
1, 44352, Note_on_c, 1, 64, 78
1, 44352, Note_on_c, 1, 52, 78
1, 44375, Note_on_c, 0, 79, 0
1, 44376, Note_on_c, 0, 71, 78
1, 44399, Note_on_c, 0, 71, 0
1, 44400, Note_on_c, 0, 67, 78
1, 44423, Note_on_c, 0, 67, 0
1, 44424, Note_on_c, 0, 71, 78
1, 44441, Note_on_c, 1, 64, 0
1, 44441, Note_on_c, 1, 52, 0
1, 44447, Note_on_c, 0, 71, 0
1, 44448, Note_on_c, 0, 69, 78
1, 44448, Note_on_c, 1, 63, 78
1, 44448, Note_on_c, 1, 59, 78
1, 44471, Note_on_c, 0, 69, 0
1, 44472, Note_on_c, 0, 71, 78
1, 44493, Note_on_c, 1, 63, 0
1, 44493, Note_on_c, 1, 59, 0
1, 44495, Note_on_c, 0, 71, 0
1, 44496, Note_on_c, 0, 67, 78
1, 44496, Note_on_c, 1, 64, 78
1, 44496, Note_on_c, 1, 52, 78
1, 44519, Note_on_c, 0, 67, 0
1, 44520, Note_on_c, 0, 71, 78
1, 44543, Note_on_c, 0, 71, 0
1, 44544, Note_on_c, 0, 76, 78
1, 44567, Note_on_c, 0, 76, 0
1, 44568, Note_on_c, 0, 71, 78
1, 44585, Note_on_c, 1, 64, 0
1, 44585, Note_on_c, 1, 52, 0
1, 44591, Note_on_c, 0, 71, 0
1, 44592, Note_on_c, 0, 78, 78
1, 44592, Note_on_c, 1, 63, 78
1, 44592, Note_on_c, 1, 59, 78
1, 44615, Note_on_c, 0, 78, 0
1, 44616, Note_on_c, 0, 71, 78
1, 44637, Note_on_c, 1, 63, 0
1, 44637, Note_on_c, 1, 59, 0
1, 44639, Note_on_c, 0, 71, 0
1, 44640, Note_on_c, 0, 79, 73
1, 44640, Note_on_c, 1, 64, 69
1, 44663, Note_on_c, 1, 64, 0
1, 44664, Note_on_c, 1, 71, 69
1, 44687, Note_on_c, 1, 71, 0
1, 44688, Note_on_c, 1, 67, 69
1, 44711, Note_on_c, 1, 67, 0
1, 44712, Note_on_c, 1, 71, 69
1, 44735, Note_on_c, 1, 71, 0
1, 44736, Note_on_c, 1, 64, 69
1, 44759, Note_on_c, 1, 64, 0
1, 44760, Note_on_c, 1, 71, 69
1, 44773, Note_on_c, 0, 79, 0
1, 44783, Note_on_c, 1, 71, 0
1, 44784, Note_on_c, 0, 77, 73
1, 44784, Note_on_c, 1, 62, 69
1, 44807, Note_on_c, 1, 62, 0
1, 44808, Note_on_c, 1, 71, 69
1, 44831, Note_on_c, 1, 71, 0
1, 44832, Note_on_c, 1, 67, 69
1, 44855, Note_on_c, 1, 67, 0
1, 44856, Note_on_c, 1, 71, 69
1, 44879, Note_on_c, 1, 71, 0
1, 44880, Note_on_c, 1, 62, 69
1, 44903, Note_on_c, 1, 62, 0
1, 44904, Note_on_c, 1, 71, 69
1, 44917, Note_on_c, 0, 77, 0
1, 44927, Note_on_c, 1, 71, 0
1, 44928, Note_on_c, 0, 76, 78
1, 44928, Note_on_c, 1, 60, 78
1, 44951, Note_on_c, 0, 76, 0
1, 44952, Note_on_c, 0, 79, 78
1, 44975, Note_on_c, 0, 79, 0
1, 44976, Note_on_c, 0, 76, 78
1, 44999, Note_on_c, 0, 76, 0
1, 45000, Note_on_c, 0, 79, 78
1, 45017, Note_on_c, 1, 60, 0
1, 45023, Note_on_c, 0, 79, 0
1, 45024, Note_on_c, 0, 77, 78
1, 45024, Note_on_c, 1, 71, 78
1, 45024, Note_on_c, 1, 67, 78
1, 45047, Note_on_c, 0, 77, 0
1, 45048, Note_on_c, 0, 79, 78
1, 45069, Note_on_c, 1, 71, 0
1, 45069, Note_on_c, 1, 67, 0
1, 45071, Note_on_c, 0, 79, 0
1, 45072, Note_on_c, 0, 76, 78
1, 45072, Note_on_c, 1, 72, 78
1, 45072, Note_on_c, 1, 60, 78
1, 45095, Note_on_c, 0, 76, 0
1, 45096, Note_on_c, 0, 79, 78
1, 45119, Note_on_c, 0, 79, 0
1, 45120, Note_on_c, 0, 84, 78
1, 45143, Note_on_c, 0, 84, 0
1, 45144, Note_on_c, 0, 79, 78
1, 45161, Note_on_c, 1, 72, 0
1, 45161, Note_on_c, 1, 60, 0
1, 45167, Note_on_c, 0, 79, 0
1, 45168, Note_on_c, 0, 86, 78
1, 45168, Note_on_c, 1, 71, 78
1, 45168, Note_on_c, 1, 67, 78
1, 45191, Note_on_c, 0, 86, 0
1, 45192, Note_on_c, 0, 79, 78
1, 45213, Note_on_c, 1, 71, 0
1, 45213, Note_on_c, 1, 67, 0
1, 45215, Note_on_c, 0, 79, 0
1, 45216, Note_on_c, 0, 88, 78
1, 45216, Note_on_c, 1, 72, 78
1, 45216, Note_on_c, 1, 60, 78
1, 45239, Note_on_c, 0, 88, 0
1, 45240, Note_on_c, 0, 79, 78
1, 45263, Note_on_c, 0, 79, 0
1, 45264, Note_on_c, 0, 76, 78
1, 45287, Note_on_c, 0, 76, 0
1, 45288, Note_on_c, 0, 79, 78
1, 45305, Note_on_c, 1, 72, 0
1, 45305, Note_on_c, 1, 60, 0
1, 45311, Note_on_c, 0, 79, 0
1, 45312, Note_on_c, 0, 77, 78
1, 45312, Note_on_c, 1, 71, 78
1, 45312, Note_on_c, 1, 67, 78
1, 45335, Note_on_c, 0, 77, 0
1, 45336, Note_on_c, 0, 79, 78
1, 45357, Note_on_c, 1, 71, 0
1, 45357, Note_on_c, 1, 67, 0
1, 45359, Note_on_c, 0, 79, 0
1, 45360, Note_on_c, 0, 88, 78
1, 45360, Note_on_c, 1, 72, 78
1, 45360, Note_on_c, 1, 60, 78
1, 45383, Note_on_c, 0, 88, 0
1, 45384, Note_on_c, 0, 79, 78
1, 45407, Note_on_c, 0, 79, 0
1, 45408, Note_on_c, 0, 84, 78
1, 45431, Note_on_c, 0, 84, 0
1, 45432, Note_on_c, 0, 79, 78
1, 45449, Note_on_c, 1, 72, 0
1, 45449, Note_on_c, 1, 60, 0
1, 45455, Note_on_c, 0, 79, 0
1, 45456, Note_on_c, 0, 86, 78
1, 45456, Note_on_c, 1, 71, 78
1, 45456, Note_on_c, 1, 67, 78
1, 45479, Note_on_c, 0, 86, 0
1, 45480, Note_on_c, 0, 79, 78
1, 45501, Note_on_c, 1, 71, 0
1, 45501, Note_on_c, 1, 67, 0
1, 45503, Note_on_c, 0, 79, 0
1, 45504, Note_on_c, 0, 88, 73
1, 45504, Note_on_c, 1, 72, 69
1, 45527, Note_on_c, 1, 72, 0
1, 45528, Note_on_c, 1, 76, 69
1, 45549, Note_on_c, 0, 88, 0
1, 45551, Note_on_c, 1, 76, 0
1, 45552, Note_on_c, 0, 81, 73
1, 45552, Note_on_c, 1, 72, 69
1, 45575, Note_on_c, 1, 72, 0
1, 45576, Note_on_c, 1, 76, 69
1, 45597, Note_on_c, 0, 81, 0
1, 45599, Note_on_c, 1, 76, 0
1, 45600, Note_on_c, 0, 81, 73
1, 45600, Note_on_c, 1, 72, 69
1, 45623, Note_on_c, 1, 72, 0
1, 45624, Note_on_c, 1, 76, 69
1, 45645, Note_on_c, 0, 81, 0
1, 45647, Note_on_c, 1, 76, 0
1, 45648, Note_on_c, 0, 86, 73
1, 45648, Note_on_c, 1, 71, 69
1, 45671, Note_on_c, 1, 71, 0
1, 45672, Note_on_c, 1, 74, 69
1, 45693, Note_on_c, 0, 86, 0
1, 45695, Note_on_c, 1, 74, 0
1, 45696, Note_on_c, 0, 80, 73
1, 45696, Note_on_c, 1, 71, 69
1, 45719, Note_on_c, 1, 71, 0
1, 45720, Note_on_c, 1, 74, 69
1, 45741, Note_on_c, 0, 80, 0
1, 45743, Note_on_c, 1, 74, 0
1, 45744, Note_on_c, 0, 80, 73
1, 45744, Note_on_c, 1, 71, 69
1, 45767, Note_on_c, 1, 71, 0
1, 45768, Note_on_c, 1, 74, 69
1, 45789, Note_on_c, 0, 80, 0
1, 45791, Note_on_c, 1, 74, 0
1, 45792, Note_on_c, 0, 84, 73
1, 45792, Note_on_c, 1, 69, 69
1, 45815, Note_on_c, 1, 69, 0
1, 45816, Note_on_c, 1, 72, 69
1, 45837, Note_on_c, 0, 84, 0
1, 45839, Note_on_c, 1, 72, 0
1, 45840, Note_on_c, 0, 77, 73
1, 45840, Note_on_c, 1, 69, 69
1, 45863, Note_on_c, 1, 69, 0
1, 45864, Note_on_c, 1, 72, 69
1, 45885, Note_on_c, 0, 77, 0
1, 45887, Note_on_c, 1, 72, 0
1, 45888, Note_on_c, 0, 77, 73
1, 45888, Note_on_c, 1, 69, 69
1, 45911, Note_on_c, 1, 69, 0
1, 45912, Note_on_c, 1, 72, 69
1, 45933, Note_on_c, 0, 77, 0
1, 45935, Note_on_c, 1, 72, 0
1, 45936, Note_on_c, 0, 83, 73
1, 45936, Note_on_c, 1, 67, 69
1, 45959, Note_on_c, 1, 67, 0
1, 45960, Note_on_c, 1, 71, 69
1, 45981, Note_on_c, 0, 83, 0
1, 45983, Note_on_c, 1, 71, 0
1, 45984, Note_on_c, 0, 76, 73
1, 45984, Note_on_c, 1, 67, 69
1, 46007, Note_on_c, 1, 67, 0
1, 46008, Note_on_c, 1, 71, 69
1, 46029, Note_on_c, 0, 76, 0
1, 46031, Note_on_c, 1, 71, 0
1, 46032, Note_on_c, 0, 76, 73
1, 46032, Note_on_c, 1, 67, 69
1, 46055, Note_on_c, 1, 67, 0
1, 46056, Note_on_c, 1, 71, 69
1, 46077, Note_on_c, 0, 76, 0
1, 46079, Note_on_c, 1, 71, 0
1, 46080, Note_on_c, 0, 81, 73
1, 46080, Note_on_c, 1, 66, 69
1, 46103, Note_on_c, 1, 66, 0
1, 46104, Note_on_c, 1, 69, 69
1, 46125, Note_on_c, 0, 81, 0
1, 46127, Note_on_c, 1, 69, 0
1, 46128, Note_on_c, 0, 75, 73
1, 46128, Note_on_c, 1, 66, 69
1, 46151, Note_on_c, 1, 66, 0
1, 46152, Note_on_c, 1, 69, 69
1, 46173, Note_on_c, 0, 75, 0
1, 46175, Note_on_c, 1, 69, 0
1, 46176, Note_on_c, 0, 75, 73
1, 46176, Note_on_c, 1, 66, 69
1, 46199, Note_on_c, 1, 66, 0
1, 46200, Note_on_c, 1, 69, 69
1, 46221, Note_on_c, 0, 75, 0
1, 46223, Note_on_c, 1, 69, 0
1, 46224, Note_on_c, 0, 79, 73
1, 46224, Note_on_c, 1, 64, 69
1, 46247, Note_on_c, 1, 64, 0
1, 46248, Note_on_c, 1, 67, 69
1, 46269, Note_on_c, 0, 79, 0
1, 46271, Note_on_c, 1, 67, 0
1, 46272, Note_on_c, 0, 70, 73
1, 46272, Note_on_c, 1, 64, 69
1, 46295, Note_on_c, 1, 64, 0
1, 46296, Note_on_c, 1, 67, 69
1, 46317, Note_on_c, 0, 70, 0
1, 46319, Note_on_c, 1, 67, 0
1, 46320, Note_on_c, 0, 70, 73
1, 46320, Note_on_c, 1, 64, 69
1, 46343, Note_on_c, 1, 64, 0
1, 46344, Note_on_c, 1, 67, 69
1, 46365, Note_on_c, 0, 70, 0
1, 46367, Note_on_c, 1, 67, 0
1, 46368, Note_on_c, 0, 78, 73
1, 46368, Note_on_c, 1, 63, 69
1, 46391, Note_on_c, 1, 63, 0
1, 46392, Note_on_c, 1, 66, 69
1, 46413, Note_on_c, 0, 78, 0
1, 46415, Note_on_c, 1, 66, 0
1, 46416, Note_on_c, 0, 71, 73
1, 46416, Note_on_c, 1, 63, 69
1, 46439, Note_on_c, 1, 63, 0
1, 46440, Note_on_c, 1, 66, 69
1, 46461, Note_on_c, 0, 71, 0
1, 46463, Note_on_c, 1, 66, 0
1, 46464, Note_on_c, 0, 71, 73
1, 46464, Note_on_c, 1, 63, 69
1, 46487, Note_on_c, 1, 63, 0
1, 46488, Note_on_c, 1, 66, 69
1, 46509, Note_on_c, 0, 71, 0
1, 46511, Note_on_c, 1, 66, 0
1, 46512, Note_on_c, 0, 81, 73
1, 46512, Note_on_c, 1, 63, 69
1, 46535, Note_on_c, 1, 63, 0
1, 46536, Note_on_c, 1, 66, 69
1, 46557, Note_on_c, 0, 81, 0
1, 46559, Note_on_c, 1, 66, 0
1, 46560, Note_on_c, 0, 69, 73
1, 46560, Note_on_c, 1, 63, 69
1, 46583, Note_on_c, 1, 63, 0
1, 46584, Note_on_c, 1, 66, 69
1, 46605, Note_on_c, 0, 69, 0
1, 46607, Note_on_c, 1, 66, 0
1, 46608, Note_on_c, 0, 69, 73
1, 46608, Note_on_c, 1, 63, 69
1, 46631, Note_on_c, 1, 63, 0
1, 46632, Note_on_c, 1, 66, 69
1, 46653, Note_on_c, 0, 69, 0
1, 46655, Note_on_c, 1, 66, 0
1, 46656, Note_on_c, 0, 79, 78
1, 46656, Note_on_c, 1, 64, 78
1, 46656, Note_on_c, 1, 52, 78
1, 46679, Note_on_c, 0, 79, 0
1, 46680, Note_on_c, 0, 71, 78
1, 46703, Note_on_c, 0, 71, 0
1, 46704, Note_on_c, 0, 67, 78
1, 46727, Note_on_c, 0, 67, 0
1, 46728, Note_on_c, 0, 71, 78
1, 46745, Note_on_c, 1, 64, 0
1, 46745, Note_on_c, 1, 52, 0
1, 46751, Note_on_c, 0, 71, 0
1, 46752, Note_on_c, 0, 69, 78
1, 46752, Note_on_c, 1, 63, 78
1, 46752, Note_on_c, 1, 59, 78
1, 46775, Note_on_c, 0, 69, 0
1, 46776, Note_on_c, 0, 71, 78
1, 46797, Note_on_c, 1, 63, 0
1, 46797, Note_on_c, 1, 59, 0
1, 46799, Note_on_c, 0, 71, 0
1, 46800, Note_on_c, 0, 67, 78
1, 46800, Note_on_c, 1, 64, 78
1, 46800, Note_on_c, 1, 52, 78
1, 46823, Note_on_c, 0, 67, 0
1, 46824, Note_on_c, 0, 71, 78
1, 46847, Note_on_c, 0, 71, 0
1, 46848, Note_on_c, 0, 76, 78
1, 46871, Note_on_c, 0, 76, 0
1, 46872, Note_on_c, 0, 71, 78
1, 46889, Note_on_c, 1, 64, 0
1, 46889, Note_on_c, 1, 52, 0
1, 46895, Note_on_c, 0, 71, 0
1, 46896, Note_on_c, 0, 78, 78
1, 46896, Note_on_c, 1, 63, 78
1, 46896, Note_on_c, 1, 59, 78
1, 46919, Note_on_c, 0, 78, 0
1, 46920, Note_on_c, 0, 71, 78
1, 46941, Note_on_c, 1, 63, 0
1, 46941, Note_on_c, 1, 59, 0
1, 46943, Note_on_c, 0, 71, 0
1, 46944, Note_on_c, 0, 79, 78
1, 46944, Note_on_c, 1, 64, 78
1, 46944, Note_on_c, 1, 52, 78
1, 46967, Note_on_c, 0, 79, 0
1, 46968, Note_on_c, 0, 71, 78
1, 46991, Note_on_c, 0, 71, 0
1, 46992, Note_on_c, 0, 67, 78
1, 47015, Note_on_c, 0, 67, 0
1, 47016, Note_on_c, 0, 71, 78
1, 47033, Note_on_c, 1, 64, 0
1, 47033, Note_on_c, 1, 52, 0
1, 47039, Note_on_c, 0, 71, 0
1, 47040, Note_on_c, 0, 69, 78
1, 47040, Note_on_c, 1, 63, 78
1, 47040, Note_on_c, 1, 59, 78
1, 47063, Note_on_c, 0, 69, 0
1, 47064, Note_on_c, 0, 71, 78
1, 47085, Note_on_c, 1, 63, 0
1, 47085, Note_on_c, 1, 59, 0
1, 47087, Note_on_c, 0, 71, 0
1, 47088, Note_on_c, 0, 67, 78
1, 47088, Note_on_c, 1, 64, 78
1, 47088, Note_on_c, 1, 52, 78
1, 47111, Note_on_c, 0, 67, 0
1, 47112, Note_on_c, 0, 71, 78
1, 47135, Note_on_c, 0, 71, 0
1, 47136, Note_on_c, 0, 76, 78
1, 47159, Note_on_c, 0, 76, 0
1, 47160, Note_on_c, 0, 71, 78
1, 47177, Note_on_c, 1, 64, 0
1, 47177, Note_on_c, 1, 52, 0
1, 47183, Note_on_c, 0, 71, 0
1, 47184, Note_on_c, 0, 78, 78
1, 47184, Note_on_c, 1, 63, 78
1, 47184, Note_on_c, 1, 59, 78
1, 47207, Note_on_c, 0, 78, 0
1, 47208, Note_on_c, 0, 71, 78
1, 47229, Note_on_c, 1, 63, 0
1, 47229, Note_on_c, 1, 59, 0
1, 47231, Note_on_c, 0, 71, 0
1, 47232, Note_on_c, 0, 79, 78
1, 47232, Note_on_c, 1, 64, 78
1, 47232, Note_on_c, 1, 52, 78
1, 47255, Note_on_c, 0, 79, 0
1, 47256, Note_on_c, 0, 71, 78
1, 47279, Note_on_c, 0, 71, 0
1, 47280, Note_on_c, 0, 67, 78
1, 47303, Note_on_c, 0, 67, 0
1, 47304, Note_on_c, 0, 71, 78
1, 47321, Note_on_c, 1, 64, 0
1, 47321, Note_on_c, 1, 52, 0
1, 47327, Note_on_c, 0, 71, 0
1, 47328, Note_on_c, 0, 67, 78
1, 47351, Note_on_c, 0, 67, 0
1, 47352, Note_on_c, 0, 71, 78
1, 47375, Note_on_c, 0, 71, 0
1, 47376, Note_on_c, 0, 76, 78
1, 47376, Note_on_c, 1, 60, 78
1, 47376, Note_on_c, 1, 48, 78
1, 47399, Note_on_c, 0, 76, 0
1, 47400, Note_on_c, 0, 72, 78
1, 47423, Note_on_c, 0, 72, 0
1, 47424, Note_on_c, 0, 67, 78
1, 47447, Note_on_c, 0, 67, 0
1, 47448, Note_on_c, 0, 72, 78
1, 47465, Note_on_c, 1, 60, 0
1, 47465, Note_on_c, 1, 48, 0
1, 47471, Note_on_c, 0, 72, 0
1, 47472, Note_on_c, 0, 67, 78
1, 47495, Note_on_c, 0, 67, 0
1, 47496, Note_on_c, 0, 72, 78
1, 47519, Note_on_c, 0, 72, 0
1, 47520, Note_on_c, 0, 66, 78
1, 47520, Note_on_c, 1, 57, 78
1, 47520, Note_on_c, 1, 45, 78
1, 47543, Note_on_c, 0, 66, 0
1, 47544, Note_on_c, 0, 72, 78
1, 47567, Note_on_c, 0, 72, 0
1, 47568, Note_on_c, 0, 76, 78
1, 47591, Note_on_c, 0, 76, 0
1, 47592, Note_on_c, 0, 72, 78
1, 47609, Note_on_c, 1, 57, 0
1, 47609, Note_on_c, 1, 45, 0
1, 47615, Note_on_c, 0, 72, 0
1, 47616, Note_on_c, 0, 76, 78
1, 47639, Note_on_c, 0, 76, 0
1, 47640, Note_on_c, 0, 72, 78
1, 47663, Note_on_c, 0, 72, 0
1, 47664, Note_on_c, 0, 66, 78
1, 47664, Note_on_c, 1, 59, 78
1, 47664, Note_on_c, 1, 47, 78
1, 47687, Note_on_c, 0, 66, 0
1, 47688, Note_on_c, 0, 71, 78
1, 47711, Note_on_c, 0, 71, 0
1, 47712, Note_on_c, 0, 75, 78
1, 47735, Note_on_c, 0, 75, 0
1, 47736, Note_on_c, 0, 71, 78
1, 47753, Note_on_c, 1, 59, 0
1, 47753, Note_on_c, 1, 47, 0
1, 47759, Note_on_c, 0, 71, 0
1, 47760, Note_on_c, 0, 75, 78
1, 47783, Note_on_c, 0, 75, 0
1, 47784, Note_on_c, 0, 71, 78
1, 47807, Note_on_c, 0, 71, 0
1, 47808, Note_on_c, 0, 79, 78
1, 47808, Note_on_c, 1, 52, 78
1, 47808, Note_on_c, 1, 40, 78
1, 47831, Note_on_c, 0, 79, 0
1, 47832, Note_on_c, 0, 71, 78
1, 47855, Note_on_c, 0, 71, 0
1, 47856, Note_on_c, 0, 67, 78
1, 47879, Note_on_c, 0, 67, 0
1, 47880, Note_on_c, 0, 71, 78
1, 47897, Note_on_c, 1, 52, 0
1, 47897, Note_on_c, 1, 40, 0
1, 47903, Note_on_c, 0, 71, 0
1, 47904, Note_on_c, 0, 67, 78
1, 47927, Note_on_c, 0, 67, 0
1, 47928, Note_on_c, 0, 71, 78
1, 47951, Note_on_c, 0, 71, 0
1, 47952, Note_on_c, 0, 76, 78
1, 47952, Note_on_c, 1, 60, 78
1, 47952, Note_on_c, 1, 48, 78
1, 47975, Note_on_c, 0, 76, 0
1, 47976, Note_on_c, 0, 72, 78
1, 47999, Note_on_c, 0, 72, 0
1, 48000, Note_on_c, 0, 67, 78
1, 48023, Note_on_c, 0, 67, 0
1, 48024, Note_on_c, 0, 72, 78
1, 48041, Note_on_c, 1, 60, 0
1, 48041, Note_on_c, 1, 48, 0
1, 48047, Note_on_c, 0, 72, 0
1, 48048, Note_on_c, 0, 67, 78
1, 48071, Note_on_c, 0, 67, 0
1, 48072, Note_on_c, 0, 72, 78
1, 48095, Note_on_c, 0, 72, 0
1, 48096, Note_on_c, 0, 66, 78
1, 48096, Note_on_c, 1, 57, 78
1, 48096, Note_on_c, 1, 45, 78
1, 48119, Note_on_c, 0, 66, 0
1, 48120, Note_on_c, 0, 72, 78
1, 48143, Note_on_c, 0, 72, 0
1, 48144, Note_on_c, 0, 76, 78
1, 48167, Note_on_c, 0, 76, 0
1, 48168, Note_on_c, 0, 72, 78
1, 48185, Note_on_c, 1, 57, 0
1, 48185, Note_on_c, 1, 45, 0
1, 48191, Note_on_c, 0, 72, 0
1, 48192, Note_on_c, 0, 76, 78
1, 48215, Note_on_c, 0, 76, 0
1, 48216, Note_on_c, 0, 72, 78
1, 48239, Note_on_c, 0, 72, 0
1, 48240, Note_on_c, 0, 66, 78
1, 48240, Note_on_c, 1, 59, 78
1, 48240, Note_on_c, 1, 47, 78
1, 48263, Note_on_c, 0, 66, 0
1, 48264, Note_on_c, 0, 71, 78
1, 48287, Note_on_c, 0, 71, 0
1, 48288, Note_on_c, 0, 75, 78
1, 48311, Note_on_c, 0, 75, 0
1, 48312, Note_on_c, 0, 71, 78
1, 48329, Note_on_c, 1, 59, 0
1, 48329, Note_on_c, 1, 47, 0
1, 48335, Note_on_c, 0, 71, 0
1, 48336, Note_on_c, 0, 75, 78
1, 48359, Note_on_c, 0, 75, 0
1, 48360, Note_on_c, 0, 71, 78
1, 48383, Note_on_c, 0, 71, 0
1, 48384, Note_on_c, 1, 40, 65
1, 48404, Note_on_c, 1, 40, 0
1, 48432, Note_on_c, 1, 43, 65
1, 48452, Note_on_c, 1, 43, 0
1, 48480, Note_on_c, 1, 47, 65
1, 48500, Note_on_c, 1, 47, 0
1, 48528, Note_on_c, 1, 52, 65
1, 48573, Note_on_c, 1, 52, 0
1, 48576, Note_on_c, 0, 67, 65
1, 48576, Note_on_c, 0, 59, 65
1, 48624, Note_on_c, 0, 67, 0
1, 48624, Note_on_c, 0, 59, 0
1, 48624, Note_on_c, 0, 63, 65
1, 48624, Note_on_c, 0, 57, 65
1, 48669, Note_on_c, 0, 63, 0
1, 48669, Note_on_c, 0, 57, 0
1, 48672, Note_on_c, 0, 64, 65
1, 48672, Note_on_c, 0, 55, 65
1, 48672, Note_on_c, 1, 40, 65
1, 48692, Note_on_c, 1, 40, 0
1, 48717, Note_on_c, 0, 64, 0
1, 48717, Note_on_c, 0, 55, 0
1, 48720, Note_on_c, 1, 43, 65
1, 48740, Note_on_c, 1, 43, 0
1, 48768, Note_on_c, 1, 47, 65
1, 48788, Note_on_c, 1, 47, 0
1, 48816, Note_on_c, 1, 52, 65
1, 48861, Note_on_c, 1, 52, 0
1, 48864, Note_on_c, 0, 71, 65
1, 48864, Note_on_c, 0, 67, 65
1, 48912, Note_on_c, 0, 71, 0
1, 48912, Note_on_c, 0, 67, 0
1, 48912, Note_on_c, 0, 69, 65
1, 48912, Note_on_c, 0, 66, 65
1, 48957, Note_on_c, 0, 69, 0
1, 48957, Note_on_c, 0, 66, 0
1, 48960, Note_on_c, 0, 67, 65
1, 48960, Note_on_c, 0, 64, 65
1, 48960, Note_on_c, 1, 40, 65
1, 48980, Note_on_c, 1, 40, 0
1, 49005, Note_on_c, 0, 67, 0
1, 49005, Note_on_c, 0, 64, 0
1, 49008, Note_on_c, 1, 43, 65
1, 49028, Note_on_c, 1, 43, 0
1, 49056, Note_on_c, 1, 47, 65
1, 49076, Note_on_c, 1, 47, 0
1, 49104, Note_on_c, 1, 52, 65
1, 49149, Note_on_c, 1, 52, 0
1, 49152, Note_on_c, 0, 83, 65
1, 49152, Note_on_c, 0, 79, 65
1, 49200, Note_on_c, 0, 83, 0
1, 49200, Note_on_c, 0, 79, 0
1, 49200, Note_on_c, 0, 81, 65
1, 49200, Note_on_c, 0, 78, 65
1, 49245, Note_on_c, 0, 81, 0
1, 49245, Note_on_c, 0, 78, 0
1, 49248, Note_on_c, 0, 79, 65
1, 49248, Note_on_c, 0, 76, 65
1, 49268, Note_on_c, 0, 79, 0
1, 49268, Note_on_c, 0, 76, 0
1, 49296, Note_on_c, 0, 88, 60
1, 49296, Note_on_c, 0, 76, 60
1, 49316, Note_on_c, 0, 88, 0
1, 49316, Note_on_c, 0, 76, 0
1, 49344, Note_on_c, 0, 88, 60
1, 49344, Note_on_c, 0, 76, 60
1, 49364, Note_on_c, 0, 88, 0
1, 49364, Note_on_c, 0, 76, 0
1, 49392, Note_on_c, 0, 88, 60
1, 49392, Note_on_c, 0, 76, 60
1, 49412, Note_on_c, 0, 88, 0
1, 49412, Note_on_c, 0, 76, 0
1, 49536, Note_on_c, 1, 40, 65
1, 49556, Note_on_c, 1, 40, 0
1, 49584, Note_on_c, 1, 44, 65
1, 49604, Note_on_c, 1, 44, 0
1, 49632, Note_on_c, 1, 47, 65
1, 49652, Note_on_c, 1, 47, 0
1, 49680, Note_on_c, 1, 52, 65
1, 49725, Note_on_c, 1, 52, 0
1, 49728, Note_on_c, 0, 64, 65
1, 49728, Note_on_c, 0, 56, 65
1, 49776, Note_on_c, 0, 64, 0
1, 49776, Note_on_c, 0, 56, 0
1, 49776, Note_on_c, 0, 62, 65
1, 49776, Note_on_c, 0, 59, 65
1, 49821, Note_on_c, 0, 62, 0
1, 49821, Note_on_c, 0, 59, 0
1, 49824, Note_on_c, 0, 60, 65
1, 49824, Note_on_c, 0, 57, 65
1, 49824, Note_on_c, 1, 40, 65
1, 49844, Note_on_c, 1, 40, 0
1, 49869, Note_on_c, 0, 60, 0
1, 49869, Note_on_c, 0, 57, 0
1, 49872, Note_on_c, 1, 45, 65
1, 49892, Note_on_c, 1, 45, 0
1, 49920, Note_on_c, 1, 48, 65
1, 49940, Note_on_c, 1, 48, 0
1, 49968, Note_on_c, 1, 52, 65
1, 50013, Note_on_c, 1, 52, 0
1, 50016, Note_on_c, 0, 72, 65
1, 50016, Note_on_c, 0, 64, 65
1, 50064, Note_on_c, 0, 72, 0
1, 50064, Note_on_c, 0, 64, 0
1, 50064, Note_on_c, 0, 69, 65
1, 50064, Note_on_c, 0, 60, 65
1, 50109, Note_on_c, 0, 69, 0
1, 50109, Note_on_c, 0, 60, 0
1, 50112, Note_on_c, 0, 68, 65
1, 50112, Note_on_c, 0, 59, 65
1, 50112, Note_on_c, 1, 40, 65
1, 50132, Note_on_c, 1, 40, 0
1, 50157, Note_on_c, 0, 68, 0
1, 50157, Note_on_c, 0, 59, 0
1, 50160, Note_on_c, 1, 44, 65
1, 50180, Note_on_c, 1, 44, 0
1, 50208, Note_on_c, 1, 47, 65
1, 50228, Note_on_c, 1, 47, 0
1, 50256, Note_on_c, 1, 52, 65
1, 50301, Note_on_c, 1, 52, 0
1, 50304, Note_on_c, 0, 76, 65
1, 50304, Note_on_c, 0, 68, 65
1, 50352, Note_on_c, 0, 76, 0
1, 50352, Note_on_c, 0, 68, 0
1, 50352, Note_on_c, 0, 74, 65
1, 50352, Note_on_c, 0, 71, 65
1, 50397, Note_on_c, 0, 74, 0
1, 50397, Note_on_c, 0, 71, 0
1, 50400, Note_on_c, 0, 72, 65
1, 50400, Note_on_c, 0, 69, 65
1, 50400, Note_on_c, 1, 40, 65
1, 50420, Note_on_c, 1, 40, 0
1, 50445, Note_on_c, 0, 72, 0
1, 50445, Note_on_c, 0, 69, 0
1, 50448, Note_on_c, 1, 45, 65
1, 50468, Note_on_c, 1, 45, 0
1, 50496, Note_on_c, 1, 48, 65
1, 50516, Note_on_c, 1, 48, 0
1, 50544, Note_on_c, 1, 52, 65
1, 50589, Note_on_c, 1, 52, 0
1, 50592, Note_on_c, 0, 81, 65
1, 50592, Note_on_c, 0, 72, 65
1, 50640, Note_on_c, 0, 81, 0
1, 50640, Note_on_c, 0, 72, 0
1, 50640, Note_on_c, 0, 75, 65
1, 50640, Note_on_c, 0, 69, 65
1, 50685, Note_on_c, 0, 75, 0
1, 50685, Note_on_c, 0, 69, 0
1, 50688, Note_on_c, 0, 76, 65
1, 50688, Note_on_c, 0, 68, 65
1, 50688, Note_on_c, 1, 40, 65
1, 50708, Note_on_c, 1, 40, 0
1, 50733, Note_on_c, 0, 76, 0
1, 50733, Note_on_c, 0, 68, 0
1, 50736, Note_on_c, 1, 44, 65
1, 50756, Note_on_c, 1, 44, 0
1, 50784, Note_on_c, 1, 47, 65
1, 50804, Note_on_c, 1, 47, 0
1, 50832, Note_on_c, 1, 52, 65
1, 50877, Note_on_c, 1, 52, 0
1, 50976, Note_on_c, 1, 48, 78
1, 50976, Note_on_c, 1, 36, 78
1, 51021, Note_on_c, 1, 48, 0
1, 51021, Note_on_c, 1, 36, 0
1, 51024, Note_on_c, 1, 52, 78
1, 51024, Note_on_c, 1, 40, 78
1, 51069, Note_on_c, 1, 52, 0
1, 51069, Note_on_c, 1, 40, 0
1, 51072, Note_on_c, 1, 55, 78
1, 51072, Note_on_c, 1, 43, 78
1, 51117, Note_on_c, 1, 55, 0
1, 51117, Note_on_c, 1, 43, 0
1, 51120, Note_on_c, 1, 60, 78
1, 51120, Note_on_c, 1, 48, 78
1, 51144, Note_on_c, 0, 67, 78
1, 51167, Note_on_c, 0, 67, 0
1, 51168, Note_on_c, 0, 79, 78
1, 51191, Note_on_c, 0, 79, 0
1, 51192, Note_on_c, 0, 76, 78
1, 51209, Note_on_c, 1, 60, 0
1, 51209, Note_on_c, 1, 48, 0
1, 51215, Note_on_c, 0, 76, 0
1, 51216, Note_on_c, 0, 74, 78
1, 51239, Note_on_c, 0, 74, 0
1, 51240, Note_on_c, 0, 72, 78
1, 51263, Note_on_c, 0, 72, 0
1, 51264, Note_on_c, 0, 71, 78
1, 51264, Note_on_c, 1, 50, 78
1, 51264, Note_on_c, 1, 38, 78
1, 51309, Note_on_c, 0, 71, 0
1, 51309, Note_on_c, 1, 50, 0
1, 51309, Note_on_c, 1, 38, 0
1, 51312, Note_on_c, 1, 53, 78
1, 51312, Note_on_c, 1, 41, 78
1, 51357, Note_on_c, 1, 53, 0
1, 51357, Note_on_c, 1, 41, 0
1, 51360, Note_on_c, 1, 55, 78
1, 51360, Note_on_c, 1, 43, 78
1, 51405, Note_on_c, 1, 55, 0
1, 51405, Note_on_c, 1, 43, 0
1, 51408, Note_on_c, 1, 59, 78
1, 51408, Note_on_c, 1, 47, 78
1, 51432, Note_on_c, 0, 67, 78
1, 51453, Note_on_c, 1, 59, 0
1, 51453, Note_on_c, 1, 47, 0
1, 51455, Note_on_c, 0, 67, 0
1, 51456, Note_on_c, 0, 79, 78
1, 51479, Note_on_c, 0, 79, 0
1, 51480, Note_on_c, 0, 77, 78
1, 51503, Note_on_c, 0, 77, 0
1, 51504, Note_on_c, 0, 76, 78
1, 51527, Note_on_c, 0, 76, 0
1, 51528, Note_on_c, 0, 74, 78
1, 51551, Note_on_c, 0, 74, 0
1, 51552, Note_on_c, 0, 76, 69
1, 51552, Note_on_c, 1, 48, 65
1, 51600, Note_on_c, 1, 52, 65
1, 51641, Note_on_c, 0, 76, 0
1, 51648, Note_on_c, 1, 55, 65
1, 51696, Note_on_c, 1, 60, 65
1, 51720, Note_on_c, 0, 67, 69
1, 51743, Note_on_c, 0, 67, 0
1, 51744, Note_on_c, 0, 79, 69
1, 51767, Note_on_c, 0, 79, 0
1, 51768, Note_on_c, 0, 76, 69
1, 51791, Note_on_c, 0, 76, 0
1, 51792, Note_on_c, 0, 74, 69
1, 51815, Note_on_c, 0, 74, 0
1, 51816, Note_on_c, 0, 72, 69
1, 51829, Note_on_c, 1, 60, 0
1, 51829, Note_on_c, 1, 55, 0
1, 51829, Note_on_c, 1, 52, 0
1, 51829, Note_on_c, 1, 48, 0
1, 51839, Note_on_c, 0, 72, 0
1, 51840, Note_on_c, 0, 72, 69
1, 51840, Note_on_c, 1, 50, 66
1, 51888, Note_on_c, 1, 53, 66
1, 51936, Note_on_c, 0, 72, 0
1, 51936, Note_on_c, 0, 71, 69
1, 51936, Note_on_c, 1, 55, 66
1, 51981, Note_on_c, 0, 71, 0
1, 51984, Note_on_c, 1, 62, 66
1, 52008, Note_on_c, 0, 67, 70
1, 52031, Note_on_c, 0, 67, 0
1, 52032, Note_on_c, 0, 79, 70
1, 52055, Note_on_c, 0, 79, 0
1, 52056, Note_on_c, 0, 77, 70
1, 52079, Note_on_c, 0, 77, 0
1, 52080, Note_on_c, 0, 76, 70
1, 52103, Note_on_c, 0, 76, 0
1, 52104, Note_on_c, 0, 74, 70
1, 52117, Note_on_c, 1, 62, 0
1, 52117, Note_on_c, 1, 55, 0
1, 52117, Note_on_c, 1, 53, 0
1, 52117, Note_on_c, 1, 50, 0
1, 52127, Note_on_c, 0, 74, 0
1, 52128, Note_on_c, 0, 74, 70
1, 52128, Note_on_c, 1, 52, 67
1, 52176, Note_on_c, 1, 55, 67
1, 52224, Note_on_c, 0, 74, 0
1, 52224, Note_on_c, 0, 73, 71
1, 52224, Note_on_c, 1, 58, 67
1, 52269, Note_on_c, 0, 73, 0
1, 52272, Note_on_c, 1, 61, 67
1, 52296, Note_on_c, 0, 82, 71
1, 52319, Note_on_c, 0, 82, 0
1, 52320, Note_on_c, 0, 81, 71
1, 52343, Note_on_c, 0, 81, 0
1, 52344, Note_on_c, 0, 79, 71
1, 52367, Note_on_c, 0, 79, 0
1, 52368, Note_on_c, 0, 77, 71
1, 52391, Note_on_c, 0, 77, 0
1, 52392, Note_on_c, 0, 76, 71
1, 52405, Note_on_c, 1, 61, 0
1, 52405, Note_on_c, 1, 58, 0
1, 52405, Note_on_c, 1, 55, 0
1, 52405, Note_on_c, 1, 52, 0
1, 52415, Note_on_c, 0, 76, 0
1, 52416, Note_on_c, 0, 76, 71
1, 52416, Note_on_c, 1, 53, 68
1, 52464, Note_on_c, 1, 57, 68
1, 52512, Note_on_c, 0, 76, 0
1, 52512, Note_on_c, 0, 74, 72
1, 52512, Note_on_c, 1, 61, 68
1, 52557, Note_on_c, 0, 74, 0
1, 52560, Note_on_c, 1, 61, 0
1, 52560, Note_on_c, 1, 62, 68
1, 52584, Note_on_c, 0, 69, 72
1, 52607, Note_on_c, 0, 69, 0
1, 52608, Note_on_c, 0, 81, 72
1, 52631, Note_on_c, 0, 81, 0
1, 52632, Note_on_c, 0, 77, 72
1, 52655, Note_on_c, 0, 77, 0
1, 52656, Note_on_c, 0, 76, 72
1, 52679, Note_on_c, 0, 76, 0
1, 52680, Note_on_c, 0, 74, 72
1, 52693, Note_on_c, 1, 62, 0
1, 52693, Note_on_c, 1, 57, 0
1, 52693, Note_on_c, 1, 53, 0
1, 52703, Note_on_c, 0, 74, 0
1, 52704, Note_on_c, 0, 74, 72
1, 52704, Note_on_c, 1, 52, 69
1, 52752, Note_on_c, 1, 55, 69
1, 52800, Note_on_c, 0, 74, 0
1, 52800, Note_on_c, 0, 73, 73
1, 52800, Note_on_c, 1, 58, 69
1, 52845, Note_on_c, 0, 73, 0
1, 52848, Note_on_c, 1, 61, 69
1, 52872, Note_on_c, 0, 82, 73
1, 52895, Note_on_c, 0, 82, 0
1, 52896, Note_on_c, 0, 81, 73
1, 52919, Note_on_c, 0, 81, 0
1, 52920, Note_on_c, 0, 79, 73
1, 52943, Note_on_c, 0, 79, 0
1, 52944, Note_on_c, 0, 77, 73
1, 52967, Note_on_c, 0, 77, 0
1, 52968, Note_on_c, 0, 76, 74
1, 52981, Note_on_c, 1, 61, 0
1, 52981, Note_on_c, 1, 58, 0
1, 52981, Note_on_c, 1, 55, 0
1, 52981, Note_on_c, 1, 52, 0
1, 52991, Note_on_c, 0, 76, 0
1, 52992, Note_on_c, 0, 76, 74
1, 52992, Note_on_c, 1, 54, 70
1, 53040, Note_on_c, 1, 57, 70
1, 53088, Note_on_c, 0, 76, 0
1, 53088, Note_on_c, 0, 75, 74
1, 53088, Note_on_c, 1, 60, 70
1, 53133, Note_on_c, 0, 75, 0
1, 53136, Note_on_c, 1, 63, 70
1, 53160, Note_on_c, 0, 84, 74
1, 53183, Note_on_c, 0, 84, 0
1, 53184, Note_on_c, 0, 83, 74
1, 53207, Note_on_c, 0, 83, 0
1, 53208, Note_on_c, 0, 81, 75
1, 53231, Note_on_c, 0, 81, 0
1, 53232, Note_on_c, 0, 79, 75
1, 53255, Note_on_c, 0, 79, 0
1, 53256, Note_on_c, 0, 78, 75
1, 53269, Note_on_c, 1, 63, 0
1, 53269, Note_on_c, 1, 60, 0
1, 53269, Note_on_c, 1, 57, 0
1, 53269, Note_on_c, 1, 54, 0
1, 53279, Note_on_c, 0, 78, 0
1, 53280, Note_on_c, 0, 78, 75
1, 53280, Note_on_c, 1, 55, 71
1, 53328, Note_on_c, 1, 59, 71
1, 53376, Note_on_c, 0, 78, 0
1, 53376, Note_on_c, 0, 76, 75
1, 53376, Note_on_c, 1, 63, 71
1, 53421, Note_on_c, 0, 76, 0
1, 53424, Note_on_c, 1, 63, 0
1, 53424, Note_on_c, 1, 64, 71
1, 53448, Note_on_c, 0, 71, 75
1, 53471, Note_on_c, 0, 71, 0
1, 53472, Note_on_c, 0, 83, 76
1, 53495, Note_on_c, 0, 83, 0
1, 53496, Note_on_c, 0, 79, 76
1, 53519, Note_on_c, 0, 79, 0
1, 53520, Note_on_c, 0, 78, 76
1, 53543, Note_on_c, 0, 78, 0
1, 53544, Note_on_c, 0, 76, 76
1, 53557, Note_on_c, 1, 64, 0
1, 53557, Note_on_c, 1, 59, 0
1, 53557, Note_on_c, 1, 55, 0
1, 53567, Note_on_c, 0, 76, 0
1, 53568, Note_on_c, 0, 83, 76
1, 53568, Note_on_c, 1, 54, 72
1, 53616, Note_on_c, 1, 58, 72
1, 53664, Note_on_c, 0, 83, 0
1, 53664, Note_on_c, 0, 82, 76
1, 53664, Note_on_c, 1, 61, 72
1, 53709, Note_on_c, 0, 82, 0
1, 53712, Note_on_c, 1, 64, 72
1, 53736, Note_on_c, 0, 79, 77
1, 53759, Note_on_c, 0, 79, 0
1, 53760, Note_on_c, 0, 78, 77
1, 53783, Note_on_c, 0, 78, 0
1, 53784, Note_on_c, 0, 76, 77
1, 53807, Note_on_c, 0, 76, 0
1, 53808, Note_on_c, 0, 74, 77
1, 53831, Note_on_c, 0, 74, 0
1, 53832, Note_on_c, 0, 73, 77
1, 53845, Note_on_c, 1, 64, 0
1, 53845, Note_on_c, 1, 61, 0
1, 53845, Note_on_c, 1, 58, 0
1, 53845, Note_on_c, 1, 54, 0
1, 53855, Note_on_c, 0, 73, 0
1, 53856, Note_on_c, 0, 76, 77
1, 53856, Note_on_c, 1, 59, 73
1, 53904, Note_on_c, 1, 62, 73
1, 53952, Note_on_c, 0, 76, 0
1, 53952, Note_on_c, 0, 74, 78
1, 53952, Note_on_c, 1, 66, 73
1, 53997, Note_on_c, 0, 74, 0
1, 54000, Note_on_c, 1, 71, 73
1, 54024, Note_on_c, 0, 74, 78
1, 54047, Note_on_c, 0, 74, 0
1, 54048, Note_on_c, 0, 78, 78
1, 54071, Note_on_c, 0, 78, 0
1, 54072, Note_on_c, 0, 74, 78
1, 54095, Note_on_c, 0, 74, 0
1, 54096, Note_on_c, 0, 73, 78
1, 54119, Note_on_c, 0, 73, 0
1, 54120, Note_on_c, 0, 71, 78
1, 54133, Note_on_c, 1, 71, 0
1, 54133, Note_on_c, 1, 66, 0
1, 54133, Note_on_c, 1, 62, 0
1, 54133, Note_on_c, 1, 59, 0
1, 54143, Note_on_c, 0, 71, 0
1, 54144, Note_on_c, 0, 71, 78
1, 54144, Note_on_c, 1, 61, 73
1, 54192, Note_on_c, 1, 64, 73
1, 54240, Note_on_c, 0, 71, 0
1, 54240, Note_on_c, 0, 70, 78
1, 54240, Note_on_c, 1, 67, 73
1, 54285, Note_on_c, 0, 70, 0
1, 54288, Note_on_c, 1, 70, 73
1, 54312, Note_on_c, 0, 79, 78
1, 54335, Note_on_c, 0, 79, 0
1, 54336, Note_on_c, 0, 78, 78
1, 54359, Note_on_c, 0, 78, 0
1, 54360, Note_on_c, 0, 76, 78
1, 54383, Note_on_c, 0, 76, 0
1, 54384, Note_on_c, 0, 74, 78
1, 54407, Note_on_c, 0, 74, 0
1, 54408, Note_on_c, 0, 73, 78
1, 54421, Note_on_c, 1, 70, 0
1, 54421, Note_on_c, 1, 67, 0
1, 54421, Note_on_c, 1, 64, 0
1, 54421, Note_on_c, 1, 61, 0
1, 54431, Note_on_c, 0, 73, 0
1, 54432, Note_on_c, 0, 76, 78
1, 54432, Note_on_c, 1, 62, 73
1, 54480, Note_on_c, 1, 66, 73
1, 54528, Note_on_c, 0, 76, 0
1, 54528, Note_on_c, 0, 74, 78
1, 54528, Note_on_c, 1, 70, 73
1, 54573, Note_on_c, 0, 74, 0
1, 54576, Note_on_c, 1, 70, 0
1, 54576, Note_on_c, 1, 71, 73
1, 54600, Note_on_c, 0, 83, 78
1, 54623, Note_on_c, 0, 83, 0
1, 54624, Note_on_c, 0, 82, 78
1, 54647, Note_on_c, 0, 82, 0
1, 54648, Note_on_c, 0, 83, 78
1, 54671, Note_on_c, 0, 83, 0
1, 54672, Note_on_c, 0, 86, 78
1, 54695, Note_on_c, 0, 86, 0
1, 54696, Note_on_c, 0, 83, 78
1, 54709, Note_on_c, 1, 71, 0
1, 54709, Note_on_c, 1, 66, 0
1, 54709, Note_on_c, 1, 62, 0
1, 54719, Note_on_c, 0, 83, 0
1, 54720, Note_on_c, 0, 79, 73
1, 54720, Note_on_c, 1, 64, 69
1, 54743, Note_on_c, 0, 79, 0
1, 54744, Note_on_c, 0, 83, 73
1, 54765, Note_on_c, 1, 64, 0
1, 54767, Note_on_c, 0, 83, 0
1, 54768, Note_on_c, 0, 78, 73
1, 54768, Note_on_c, 1, 62, 69
1, 54791, Note_on_c, 0, 78, 0
1, 54792, Note_on_c, 0, 83, 73
1, 54813, Note_on_c, 1, 62, 0
1, 54815, Note_on_c, 0, 83, 0
1, 54816, Note_on_c, 0, 76, 73
1, 54816, Note_on_c, 1, 61, 69
1, 54839, Note_on_c, 0, 76, 0
1, 54840, Note_on_c, 0, 83, 73
1, 54861, Note_on_c, 1, 61, 0
1, 54863, Note_on_c, 0, 83, 0
1, 54864, Note_on_c, 0, 74, 73
1, 54864, Note_on_c, 1, 59, 69
1, 54887, Note_on_c, 0, 74, 0
1, 54888, Note_on_c, 0, 83, 73
1, 54911, Note_on_c, 0, 83, 0
1, 54912, Note_on_c, 0, 82, 73
1, 54935, Note_on_c, 0, 82, 0
1, 54936, Note_on_c, 0, 83, 73
1, 54953, Note_on_c, 1, 59, 0
1, 54959, Note_on_c, 0, 83, 0
1, 54960, Note_on_c, 0, 86, 73
1, 54983, Note_on_c, 0, 86, 0
1, 54984, Note_on_c, 0, 83, 73
1, 55007, Note_on_c, 0, 83, 0
1, 55008, Note_on_c, 0, 76, 73
1, 55008, Note_on_c, 1, 67, 69
1, 55031, Note_on_c, 0, 76, 0
1, 55032, Note_on_c, 0, 83, 73
1, 55053, Note_on_c, 1, 67, 0
1, 55055, Note_on_c, 0, 83, 0
1, 55056, Note_on_c, 0, 74, 73
1, 55056, Note_on_c, 1, 66, 69
1, 55079, Note_on_c, 0, 74, 0
1, 55080, Note_on_c, 0, 83, 73
1, 55101, Note_on_c, 1, 66, 0
1, 55103, Note_on_c, 0, 83, 0
1, 55104, Note_on_c, 0, 73, 73
1, 55104, Note_on_c, 1, 64, 69
1, 55127, Note_on_c, 0, 73, 0
1, 55128, Note_on_c, 0, 83, 73
1, 55149, Note_on_c, 1, 64, 0
1, 55151, Note_on_c, 0, 83, 0
1, 55152, Note_on_c, 0, 71, 73
1, 55152, Note_on_c, 1, 62, 69
1, 55175, Note_on_c, 0, 71, 0
1, 55176, Note_on_c, 0, 83, 73
1, 55199, Note_on_c, 0, 83, 0
1, 55200, Note_on_c, 0, 82, 73
1, 55223, Note_on_c, 0, 82, 0
1, 55224, Note_on_c, 0, 83, 73
1, 55241, Note_on_c, 1, 62, 0
1, 55247, Note_on_c, 0, 83, 0
1, 55248, Note_on_c, 0, 86, 73
1, 55271, Note_on_c, 0, 86, 0
1, 55272, Note_on_c, 0, 83, 73
1, 55295, Note_on_c, 0, 83, 0
1, 55296, Note_on_c, 0, 79, 73
1, 55296, Note_on_c, 1, 76, 69
1, 55319, Note_on_c, 0, 79, 0
1, 55320, Note_on_c, 0, 83, 73
1, 55341, Note_on_c, 1, 76, 0
1, 55343, Note_on_c, 0, 83, 0
1, 55344, Note_on_c, 0, 78, 73
1, 55344, Note_on_c, 1, 74, 69
1, 55367, Note_on_c, 0, 78, 0
1, 55368, Note_on_c, 0, 83, 73
1, 55389, Note_on_c, 1, 74, 0
1, 55391, Note_on_c, 0, 83, 0
1, 55392, Note_on_c, 0, 76, 73
1, 55392, Note_on_c, 1, 73, 69
1, 55415, Note_on_c, 0, 76, 0
1, 55416, Note_on_c, 0, 83, 73
1, 55437, Note_on_c, 1, 73, 0
1, 55439, Note_on_c, 0, 83, 0
1, 55440, Note_on_c, 0, 74, 73
1, 55440, Note_on_c, 1, 71, 69
1, 55463, Note_on_c, 0, 74, 0
1, 55464, Note_on_c, 0, 83, 73
1, 55487, Note_on_c, 0, 83, 0
1, 55488, Note_on_c, 0, 82, 73
1, 55511, Note_on_c, 0, 82, 0
1, 55512, Note_on_c, 0, 83, 73
1, 55529, Note_on_c, 1, 71, 0
1, 55535, Note_on_c, 0, 83, 0
1, 55536, Note_on_c, 0, 86, 73
1, 55559, Note_on_c, 0, 86, 0
1, 55560, Note_on_c, 0, 83, 73
1, 55583, Note_on_c, 0, 83, 0
1, 55584, Note_on_c, 0, 76, 73
1, 55584, Note_on_c, 1, 67, 69
1, 55607, Note_on_c, 0, 76, 0
1, 55608, Note_on_c, 0, 83, 73
1, 55629, Note_on_c, 1, 67, 0
1, 55631, Note_on_c, 0, 83, 0
1, 55632, Note_on_c, 0, 74, 73
1, 55632, Note_on_c, 1, 66, 69
1, 55655, Note_on_c, 0, 74, 0
1, 55656, Note_on_c, 0, 83, 73
1, 55677, Note_on_c, 1, 66, 0
1, 55679, Note_on_c, 0, 83, 0
1, 55680, Note_on_c, 0, 73, 73
1, 55680, Note_on_c, 1, 64, 69
1, 55703, Note_on_c, 0, 73, 0
1, 55704, Note_on_c, 0, 83, 73
1, 55725, Note_on_c, 1, 64, 0
1, 55727, Note_on_c, 0, 83, 0
1, 55728, Note_on_c, 0, 71, 73
1, 55728, Note_on_c, 1, 62, 69
1, 55751, Note_on_c, 1, 62, 0
1, 55752, Note_on_c, 1, 66, 69
1, 55775, Note_on_c, 1, 66, 0
1, 55776, Note_on_c, 1, 62, 69
1, 55799, Note_on_c, 1, 62, 0
1, 55800, Note_on_c, 1, 66, 69
1, 55817, Note_on_c, 0, 71, 0
1, 55823, Note_on_c, 1, 66, 0
1, 55824, Note_on_c, 0, 83, 73
1, 55824, Note_on_c, 1, 62, 69
1, 55847, Note_on_c, 1, 62, 0
1, 55848, Note_on_c, 1, 66, 69
1, 55869, Note_on_c, 0, 83, 0
1, 55871, Note_on_c, 1, 66, 0
1, 55872, Note_on_c, 0, 73, 73
1, 55872, Note_on_c, 1, 64, 69
1, 55895, Note_on_c, 1, 64, 0
1, 55896, Note_on_c, 1, 67, 69
1, 55919, Note_on_c, 1, 67, 0
1, 55920, Note_on_c, 1, 64, 69
1, 55943, Note_on_c, 1, 64, 0
1, 55944, Note_on_c, 1, 67, 69
1, 55961, Note_on_c, 0, 73, 0
1, 55967, Note_on_c, 1, 67, 0
1, 55968, Note_on_c, 0, 79, 73
1, 55968, Note_on_c, 1, 64, 69
1, 55991, Note_on_c, 1, 64, 0
1, 55992, Note_on_c, 1, 67, 69
1, 56013, Note_on_c, 0, 79, 0
1, 56015, Note_on_c, 1, 67, 0
1, 56016, Note_on_c, 0, 78, 73
1, 56016, Note_on_c, 1, 66, 69
1, 56039, Note_on_c, 1, 66, 0
1, 56040, Note_on_c, 1, 70, 69
1, 56063, Note_on_c, 1, 70, 0
1, 56064, Note_on_c, 1, 66, 69
1, 56087, Note_on_c, 1, 66, 0
1, 56088, Note_on_c, 1, 70, 69
1, 56105, Note_on_c, 0, 78, 0
1, 56111, Note_on_c, 1, 70, 0
1, 56112, Note_on_c, 0, 76, 73
1, 56112, Note_on_c, 1, 66, 69
1, 56135, Note_on_c, 1, 66, 0
1, 56136, Note_on_c, 1, 70, 69
1, 56157, Note_on_c, 0, 76, 0
1, 56159, Note_on_c, 1, 70, 0
1, 56160, Note_on_c, 0, 76, 73
1, 56160, Note_on_c, 1, 67, 69
1, 56183, Note_on_c, 1, 67, 0
1, 56184, Note_on_c, 1, 71, 69
1, 56207, Note_on_c, 1, 71, 0
1, 56208, Note_on_c, 1, 67, 69
1, 56231, Note_on_c, 1, 67, 0
1, 56232, Note_on_c, 1, 71, 69
1, 56249, Note_on_c, 0, 76, 0
1, 56255, Note_on_c, 1, 71, 0
1, 56256, Note_on_c, 0, 74, 73
1, 56256, Note_on_c, 1, 67, 69
1, 56279, Note_on_c, 1, 67, 0
1, 56280, Note_on_c, 1, 71, 69
1, 56301, Note_on_c, 0, 74, 0
1, 56303, Note_on_c, 1, 71, 0
1, 56304, Note_on_c, 0, 71, 73
1, 56304, Note_on_c, 1, 62, 69
1, 56327, Note_on_c, 1, 62, 0
1, 56328, Note_on_c, 1, 66, 69
1, 56351, Note_on_c, 1, 66, 0
1, 56352, Note_on_c, 1, 62, 69
1, 56375, Note_on_c, 1, 62, 0
1, 56376, Note_on_c, 1, 66, 69
1, 56393, Note_on_c, 0, 71, 0
1, 56399, Note_on_c, 1, 66, 0
1, 56400, Note_on_c, 0, 83, 73
1, 56400, Note_on_c, 1, 62, 69
1, 56423, Note_on_c, 1, 62, 0
1, 56424, Note_on_c, 1, 66, 69
1, 56445, Note_on_c, 0, 83, 0
1, 56447, Note_on_c, 1, 66, 0
1, 56448, Note_on_c, 0, 73, 73
1, 56448, Note_on_c, 1, 64, 69
1, 56471, Note_on_c, 1, 64, 0
1, 56472, Note_on_c, 1, 67, 69
1, 56495, Note_on_c, 1, 67, 0
1, 56496, Note_on_c, 1, 64, 69
1, 56519, Note_on_c, 1, 64, 0
1, 56520, Note_on_c, 1, 67, 69
1, 56537, Note_on_c, 0, 73, 0
1, 56543, Note_on_c, 1, 67, 0
1, 56544, Note_on_c, 0, 79, 73
1, 56544, Note_on_c, 1, 64, 69
1, 56567, Note_on_c, 1, 64, 0
1, 56568, Note_on_c, 1, 67, 69
1, 56589, Note_on_c, 0, 79, 0
1, 56591, Note_on_c, 1, 67, 0
1, 56592, Note_on_c, 1, 66, 69
1, 56637, Note_on_c, 1, 66, 0
1, 56640, Note_on_c, 0, 78, 73
1, 56685, Note_on_c, 0, 78, 0
1, 56688, Note_on_c, 0, 70, 73
1, 56733, Note_on_c, 0, 70, 0
1, 56736, Note_on_c, 0, 71, 73
1, 56736, Note_on_c, 1, 59, 69
1, 56756, Note_on_c, 0, 71, 0
1, 56784, Note_on_c, 0, 74, 73
1, 56804, Note_on_c, 0, 74, 0
1, 56825, Note_on_c, 1, 59, 0
1, 56832, Note_on_c, 0, 78, 73
1, 56852, Note_on_c, 0, 78, 0
1, 56880, Note_on_c, 0, 83, 73
1, 56900, Note_on_c, 0, 83, 0
1, 56928, Note_on_c, 1, 66, 69
1, 56928, Note_on_c, 1, 62, 69
1, 56973, Note_on_c, 1, 66, 0
1, 56973, Note_on_c, 1, 62, 0
1, 56976, Note_on_c, 1, 64, 69
1, 56976, Note_on_c, 1, 61, 69
1, 57021, Note_on_c, 1, 64, 0
1, 57021, Note_on_c, 1, 61, 0
1, 57024, Note_on_c, 0, 71, 73
1, 57024, Note_on_c, 1, 62, 69
1, 57024, Note_on_c, 1, 59, 69
1, 57044, Note_on_c, 0, 71, 0
1, 57069, Note_on_c, 1, 62, 0
1, 57069, Note_on_c, 1, 59, 0
1, 57072, Note_on_c, 0, 74, 73
1, 57092, Note_on_c, 0, 74, 0
1, 57120, Note_on_c, 0, 78, 73
1, 57140, Note_on_c, 0, 78, 0
1, 57168, Note_on_c, 0, 83, 73
1, 57188, Note_on_c, 0, 83, 0
1, 57216, Note_on_c, 1, 62, 73
1, 57216, Note_on_c, 1, 59, 73
1, 57261, Note_on_c, 1, 62, 0
1, 57261, Note_on_c, 1, 59, 0
1, 57264, Note_on_c, 1, 60, 73
1, 57264, Note_on_c, 1, 57, 73
1, 57309, Note_on_c, 1, 60, 0
1, 57309, Note_on_c, 1, 57, 0
1, 57312, Note_on_c, 0, 71, 73
1, 57312, Note_on_c, 1, 59, 73
1, 57312, Note_on_c, 1, 55, 73
1, 57332, Note_on_c, 0, 71, 0
1, 57357, Note_on_c, 1, 59, 0
1, 57357, Note_on_c, 1, 55, 0
1, 57360, Note_on_c, 0, 74, 73
1, 57380, Note_on_c, 0, 74, 0
1, 57408, Note_on_c, 0, 79, 73
1, 57428, Note_on_c, 0, 79, 0
1, 57456, Note_on_c, 0, 83, 73
1, 57476, Note_on_c, 0, 83, 0
1, 57504, Note_on_c, 1, 59, 73
1, 57504, Note_on_c, 1, 55, 73
1, 57549, Note_on_c, 1, 59, 0
1, 57549, Note_on_c, 1, 55, 0
1, 57552, Note_on_c, 1, 57, 73
1, 57552, Note_on_c, 1, 54, 73
1, 57597, Note_on_c, 1, 57, 0
1, 57597, Note_on_c, 1, 54, 0
1, 57600, Note_on_c, 0, 71, 73
1, 57600, Note_on_c, 1, 55, 73
1, 57600, Note_on_c, 1, 52, 73
1, 57620, Note_on_c, 0, 71, 0
1, 57645, Note_on_c, 1, 55, 0
1, 57645, Note_on_c, 1, 52, 0
1, 57648, Note_on_c, 0, 76, 73
1, 57668, Note_on_c, 0, 76, 0
1, 57696, Note_on_c, 0, 79, 73
1, 57716, Note_on_c, 0, 79, 0
1, 57744, Note_on_c, 0, 83, 73
1, 57764, Note_on_c, 0, 83, 0
1, 57792, Note_on_c, 1, 55, 73
1, 57792, Note_on_c, 1, 52, 73
1, 57837, Note_on_c, 1, 55, 0
1, 57837, Note_on_c, 1, 52, 0
1, 57840, Note_on_c, 1, 53, 73
1, 57840, Note_on_c, 1, 50, 73
1, 57885, Note_on_c, 1, 53, 0
1, 57885, Note_on_c, 1, 50, 0
1, 57888, Note_on_c, 0, 72, 73
1, 57888, Note_on_c, 1, 52, 73
1, 57888, Note_on_c, 1, 48, 73
1, 57908, Note_on_c, 0, 72, 0
1, 57933, Note_on_c, 1, 52, 0
1, 57933, Note_on_c, 1, 48, 0
1, 57936, Note_on_c, 0, 76, 73
1, 57956, Note_on_c, 0, 76, 0
1, 57984, Note_on_c, 0, 79, 73
1, 58004, Note_on_c, 0, 79, 0
1, 58032, Note_on_c, 0, 84, 73
1, 58052, Note_on_c, 0, 84, 0
1, 58080, Note_on_c, 1, 52, 73
1, 58080, Note_on_c, 1, 48, 73
1, 58125, Note_on_c, 1, 52, 0
1, 58125, Note_on_c, 1, 48, 0
1, 58128, Note_on_c, 1, 50, 73
1, 58128, Note_on_c, 1, 47, 73
1, 58173, Note_on_c, 1, 50, 0
1, 58173, Note_on_c, 1, 47, 0
1, 58176, Note_on_c, 0, 72, 73
1, 58176, Note_on_c, 1, 48, 73
1, 58176, Note_on_c, 1, 45, 73
1, 58196, Note_on_c, 0, 72, 0
1, 58221, Note_on_c, 1, 48, 0
1, 58221, Note_on_c, 1, 45, 0
1, 58224, Note_on_c, 0, 76, 73
1, 58244, Note_on_c, 0, 76, 0
1, 58272, Note_on_c, 0, 81, 73
1, 58292, Note_on_c, 0, 81, 0
1, 58320, Note_on_c, 0, 84, 73
1, 58340, Note_on_c, 0, 84, 0
1, 58368, Note_on_c, 1, 48, 73
1, 58368, Note_on_c, 1, 45, 73
1, 58413, Note_on_c, 1, 48, 0
1, 58413, Note_on_c, 1, 45, 0
1, 58416, Note_on_c, 1, 47, 73
1, 58416, Note_on_c, 1, 43, 73
1, 58461, Note_on_c, 1, 47, 0
1, 58461, Note_on_c, 1, 43, 0
1, 58464, Note_on_c, 0, 72, 73
1, 58464, Note_on_c, 1, 45, 73
1, 58464, Note_on_c, 1, 42, 73
1, 58484, Note_on_c, 0, 72, 0
1, 58509, Note_on_c, 1, 45, 0
1, 58509, Note_on_c, 1, 42, 0
1, 58512, Note_on_c, 0, 78, 73
1, 58532, Note_on_c, 0, 78, 0
1, 58560, Note_on_c, 0, 81, 73
1, 58580, Note_on_c, 0, 81, 0
1, 58608, Note_on_c, 0, 84, 73
1, 58628, Note_on_c, 0, 84, 0
1, 58656, Note_on_c, 1, 45, 72
1, 58656, Note_on_c, 1, 42, 72
1, 58701, Note_on_c, 1, 45, 0
1, 58701, Note_on_c, 1, 42, 0
1, 58704, Note_on_c, 1, 43, 72
1, 58704, Note_on_c, 1, 40, 72
1, 58749, Note_on_c, 1, 43, 0
1, 58749, Note_on_c, 1, 40, 0
1, 58752, Note_on_c, 0, 71, 71
1, 58752, Note_on_c, 1, 42, 71
1, 58752, Note_on_c, 1, 39, 71
1, 58772, Note_on_c, 0, 71, 0
1, 58800, Note_on_c, 0, 75, 71
1, 58820, Note_on_c, 0, 75, 0
1, 58848, Note_on_c, 0, 78, 70
1, 58868, Note_on_c, 0, 78, 0
1, 58896, Note_on_c, 0, 83, 70
1, 59029, Note_on_c, 0, 83, 0
1, 59029, Note_on_c, 1, 42, 0
1, 59029, Note_on_c, 1, 39, 0
1, 59040, Note_on_c, 1, 40, 65
1, 59060, Note_on_c, 1, 40, 0
1, 59088, Note_on_c, 1, 43, 65
1, 59108, Note_on_c, 1, 43, 0
1, 59136, Note_on_c, 1, 47, 65
1, 59156, Note_on_c, 1, 47, 0
1, 59184, Note_on_c, 1, 52, 65
1, 59229, Note_on_c, 1, 52, 0
1, 59232, Note_on_c, 0, 67, 65
1, 59232, Note_on_c, 0, 59, 65
1, 59280, Note_on_c, 0, 67, 0
1, 59280, Note_on_c, 0, 59, 0
1, 59280, Note_on_c, 0, 63, 65
1, 59280, Note_on_c, 0, 57, 65
1, 59325, Note_on_c, 0, 63, 0
1, 59325, Note_on_c, 0, 57, 0
1, 59328, Note_on_c, 0, 64, 65
1, 59328, Note_on_c, 0, 55, 65
1, 59328, Note_on_c, 1, 40, 65
1, 59348, Note_on_c, 1, 40, 0
1, 59373, Note_on_c, 0, 64, 0
1, 59373, Note_on_c, 0, 55, 0
1, 59376, Note_on_c, 1, 43, 65
1, 59396, Note_on_c, 1, 43, 0
1, 59424, Note_on_c, 1, 47, 65
1, 59444, Note_on_c, 1, 47, 0
1, 59472, Note_on_c, 1, 52, 65
1, 59517, Note_on_c, 1, 52, 0
1, 59520, Note_on_c, 0, 71, 65
1, 59520, Note_on_c, 0, 67, 65
1, 59568, Note_on_c, 0, 71, 0
1, 59568, Note_on_c, 0, 67, 0
1, 59568, Note_on_c, 0, 69, 65
1, 59568, Note_on_c, 0, 66, 65
1, 59613, Note_on_c, 0, 69, 0
1, 59613, Note_on_c, 0, 66, 0
1, 59616, Note_on_c, 0, 67, 65
1, 59616, Note_on_c, 0, 64, 65
1, 59616, Note_on_c, 1, 52, 65
1, 59661, Note_on_c, 0, 67, 0
1, 59661, Note_on_c, 0, 64, 0
1, 59664, Note_on_c, 1, 55, 65
1, 59712, Note_on_c, 1, 59, 65
1, 59760, Note_on_c, 1, 64, 65
1, 59784, Note_on_c, 0, 83, 73
1, 59807, Note_on_c, 0, 83, 0
1, 59808, Note_on_c, 0, 81, 73
1, 59831, Note_on_c, 0, 81, 0
1, 59832, Note_on_c, 0, 79, 73
1, 59855, Note_on_c, 0, 79, 0
1, 59856, Note_on_c, 0, 78, 73
1, 59879, Note_on_c, 0, 78, 0
1, 59880, Note_on_c, 0, 76, 73
1, 59893, Note_on_c, 1, 64, 0
1, 59893, Note_on_c, 1, 59, 0
1, 59893, Note_on_c, 1, 55, 0
1, 59893, Note_on_c, 1, 52, 0
1, 59903, Note_on_c, 0, 76, 0
1, 59904, Note_on_c, 0, 76, 73
1, 59904, Note_on_c, 1, 54, 73
1, 59952, Note_on_c, 1, 57, 73
1, 60000, Note_on_c, 0, 76, 0
1, 60000, Note_on_c, 0, 75, 73
1, 60000, Note_on_c, 1, 60, 73
1, 60045, Note_on_c, 0, 75, 0
1, 60048, Note_on_c, 1, 63, 73
1, 60072, Note_on_c, 0, 84, 73
1, 60095, Note_on_c, 0, 84, 0
1, 60096, Note_on_c, 0, 83, 73
1, 60119, Note_on_c, 0, 83, 0
1, 60120, Note_on_c, 0, 81, 73
1, 60143, Note_on_c, 0, 81, 0
1, 60144, Note_on_c, 0, 79, 73
1, 60167, Note_on_c, 0, 79, 0
1, 60168, Note_on_c, 0, 78, 73
1, 60181, Note_on_c, 1, 63, 0
1, 60181, Note_on_c, 1, 60, 0
1, 60181, Note_on_c, 1, 57, 0
1, 60181, Note_on_c, 1, 54, 0
1, 60191, Note_on_c, 0, 78, 0
1, 60192, Note_on_c, 0, 78, 73
1, 60192, Note_on_c, 1, 55, 73
1, 60240, Note_on_c, 1, 59, 73
1, 60288, Note_on_c, 0, 78, 0
1, 60288, Note_on_c, 0, 76, 73
1, 60288, Note_on_c, 1, 63, 73
1, 60333, Note_on_c, 0, 76, 0
1, 60336, Note_on_c, 1, 63, 0
1, 60336, Note_on_c, 1, 64, 73
1, 60360, Note_on_c, 0, 83, 73
1, 60383, Note_on_c, 0, 83, 0
1, 60384, Note_on_c, 0, 81, 73
1, 60407, Note_on_c, 0, 81, 0
1, 60408, Note_on_c, 0, 79, 73
1, 60431, Note_on_c, 0, 79, 0
1, 60432, Note_on_c, 0, 78, 73
1, 60455, Note_on_c, 0, 78, 0
1, 60456, Note_on_c, 0, 76, 73
1, 60469, Note_on_c, 1, 64, 0
1, 60469, Note_on_c, 1, 59, 0
1, 60469, Note_on_c, 1, 55, 0
1, 60479, Note_on_c, 0, 76, 0
1, 60480, Note_on_c, 0, 84, 73
1, 60480, Note_on_c, 1, 57, 73
1, 60503, Note_on_c, 0, 84, 0
1, 60504, Note_on_c, 0, 72, 73
1, 60525, Note_on_c, 1, 57, 0
1, 60527, Note_on_c, 0, 72, 0
1, 60528, Note_on_c, 0, 81, 73
1, 60528, Note_on_c, 1, 66, 73
1, 60551, Note_on_c, 0, 81, 0
1, 60552, Note_on_c, 0, 84, 73
1, 60573, Note_on_c, 1, 66, 0
1, 60575, Note_on_c, 0, 84, 0
1, 60576, Note_on_c, 0, 79, 73
1, 60576, Note_on_c, 1, 64, 73
1, 60599, Note_on_c, 0, 79, 0
1, 60600, Note_on_c, 0, 84, 73
1, 60621, Note_on_c, 1, 64, 0
1, 60623, Note_on_c, 0, 84, 0
1, 60624, Note_on_c, 0, 78, 73
1, 60624, Note_on_c, 1, 62, 73
1, 60647, Note_on_c, 0, 78, 0
1, 60648, Note_on_c, 0, 81, 73
1, 60671, Note_on_c, 0, 81, 0
1, 60672, Note_on_c, 0, 86, 73
1, 60695, Note_on_c, 0, 86, 0
1, 60696, Note_on_c, 0, 84, 73
1, 60713, Note_on_c, 1, 62, 0
1, 60719, Note_on_c, 0, 84, 0
1, 60720, Note_on_c, 0, 83, 73
1, 60743, Note_on_c, 0, 83, 0
1, 60744, Note_on_c, 0, 81, 73
1, 60767, Note_on_c, 0, 81, 0
1, 60768, Note_on_c, 0, 83, 73
1, 60768, Note_on_c, 1, 55, 73
1, 60791, Note_on_c, 0, 83, 0
1, 60792, Note_on_c, 0, 71, 73
1, 60813, Note_on_c, 1, 55, 0
1, 60815, Note_on_c, 0, 71, 0
1, 60816, Note_on_c, 0, 79, 73
1, 60816, Note_on_c, 1, 64, 73
1, 60839, Note_on_c, 0, 79, 0
1, 60840, Note_on_c, 0, 83, 73
1, 60861, Note_on_c, 1, 64, 0
1, 60863, Note_on_c, 0, 83, 0
1, 60864, Note_on_c, 0, 78, 73
1, 60864, Note_on_c, 1, 62, 73
1, 60887, Note_on_c, 0, 78, 0
1, 60888, Note_on_c, 0, 83, 73
1, 60909, Note_on_c, 1, 62, 0
1, 60911, Note_on_c, 0, 83, 0
1, 60912, Note_on_c, 0, 76, 73
1, 60912, Note_on_c, 1, 60, 73
1, 60935, Note_on_c, 0, 76, 0
1, 60936, Note_on_c, 0, 79, 73
1, 60959, Note_on_c, 0, 79, 0
1, 60960, Note_on_c, 0, 84, 73
1, 60983, Note_on_c, 0, 84, 0
1, 60984, Note_on_c, 0, 83, 73
1, 61001, Note_on_c, 1, 60, 0
1, 61007, Note_on_c, 0, 83, 0
1, 61008, Note_on_c, 0, 81, 73
1, 61031, Note_on_c, 0, 81, 0
1, 61032, Note_on_c, 0, 79, 73
1, 61055, Note_on_c, 0, 79, 0
1, 61056, Note_on_c, 0, 81, 73
1, 61056, Note_on_c, 1, 54, 73
1, 61079, Note_on_c, 0, 81, 0
1, 61080, Note_on_c, 0, 69, 73
1, 61101, Note_on_c, 1, 54, 0
1, 61103, Note_on_c, 0, 69, 0
1, 61104, Note_on_c, 0, 78, 73
1, 61104, Note_on_c, 1, 63, 73
1, 61127, Note_on_c, 0, 78, 0
1, 61128, Note_on_c, 0, 81, 73
1, 61149, Note_on_c, 1, 63, 0
1, 61151, Note_on_c, 0, 81, 0
1, 61152, Note_on_c, 0, 76, 73
1, 61152, Note_on_c, 1, 61, 73
1, 61175, Note_on_c, 0, 76, 0
1, 61176, Note_on_c, 0, 81, 73
1, 61197, Note_on_c, 1, 61, 0
1, 61199, Note_on_c, 0, 81, 0
1, 61200, Note_on_c, 0, 75, 73
1, 61200, Note_on_c, 1, 59, 73
1, 61223, Note_on_c, 0, 75, 0
1, 61224, Note_on_c, 0, 78, 73
1, 61247, Note_on_c, 0, 78, 0
1, 61248, Note_on_c, 0, 83, 73
1, 61271, Note_on_c, 0, 83, 0
1, 61272, Note_on_c, 0, 81, 73
1, 61289, Note_on_c, 1, 59, 0
1, 61295, Note_on_c, 0, 81, 0
1, 61296, Note_on_c, 0, 79, 73
1, 61319, Note_on_c, 0, 79, 0
1, 61320, Note_on_c, 0, 78, 73
1, 61343, Note_on_c, 0, 78, 0
1, 61344, Note_on_c, 0, 79, 73
1, 61344, Note_on_c, 1, 52, 73
1, 61367, Note_on_c, 1, 52, 0
1, 61368, Note_on_c, 1, 64, 73
1, 61389, Note_on_c, 0, 79, 0
1, 61391, Note_on_c, 1, 64, 0
1, 61392, Note_on_c, 0, 83, 73
1, 61392, Note_on_c, 1, 54, 73
1, 61404, Note_on_c, 0, 83, 0
1, 61404, Note_on_c, 0, 81, 73
1, 61415, Note_on_c, 1, 54, 0
1, 61416, Note_on_c, 0, 81, 0
1, 61416, Note_on_c, 0, 79, 73
1, 61416, Note_on_c, 1, 64, 73
1, 61428, Note_on_c, 0, 79, 0
1, 61428, Note_on_c, 0, 81, 73
1, 61439, Note_on_c, 1, 64, 0
1, 61440, Note_on_c, 0, 81, 0
1, 61440, Note_on_c, 0, 83, 73
1, 61440, Note_on_c, 1, 55, 73
1, 61463, Note_on_c, 1, 55, 0
1, 61464, Note_on_c, 1, 64, 73
1, 61485, Note_on_c, 0, 83, 0
1, 61487, Note_on_c, 1, 64, 0
1, 61488, Note_on_c, 0, 78, 73
1, 61488, Note_on_c, 1, 57, 73
1, 61511, Note_on_c, 1, 57, 0
1, 61512, Note_on_c, 1, 64, 73
1, 61533, Note_on_c, 0, 78, 0
1, 61535, Note_on_c, 1, 64, 0
1, 61536, Note_on_c, 0, 78, 73
1, 61536, Note_on_c, 1, 57, 73
1, 61559, Note_on_c, 1, 57, 0
1, 61560, Note_on_c, 1, 64, 73
1, 61581, Note_on_c, 0, 78, 0
1, 61583, Note_on_c, 1, 64, 0
1, 61584, Note_on_c, 0, 78, 73
1, 61584, Note_on_c, 1, 57, 73
1, 61607, Note_on_c, 1, 57, 0
1, 61608, Note_on_c, 1, 64, 73
1, 61629, Note_on_c, 0, 78, 0
1, 61631, Note_on_c, 1, 64, 0
1, 61632, Note_on_c, 0, 79, 73
1, 61632, Note_on_c, 1, 52, 73
1, 61655, Note_on_c, 1, 52, 0
1, 61656, Note_on_c, 1, 64, 73
1, 61677, Note_on_c, 0, 79, 0
1, 61679, Note_on_c, 1, 64, 0
1, 61680, Note_on_c, 0, 83, 73
1, 61680, Note_on_c, 1, 54, 73
1, 61692, Note_on_c, 0, 83, 0
1, 61692, Note_on_c, 0, 81, 73
1, 61703, Note_on_c, 1, 54, 0
1, 61704, Note_on_c, 0, 81, 0
1, 61704, Note_on_c, 0, 79, 73
1, 61704, Note_on_c, 1, 64, 73
1, 61716, Note_on_c, 0, 79, 0
1, 61716, Note_on_c, 0, 81, 73
1, 61727, Note_on_c, 1, 64, 0
1, 61728, Note_on_c, 0, 81, 0
1, 61728, Note_on_c, 0, 83, 73
1, 61728, Note_on_c, 1, 55, 73
1, 61751, Note_on_c, 1, 55, 0
1, 61752, Note_on_c, 1, 64, 73
1, 61773, Note_on_c, 0, 83, 0
1, 61775, Note_on_c, 1, 64, 0
1, 61776, Note_on_c, 0, 78, 73
1, 61776, Note_on_c, 1, 57, 73
1, 61799, Note_on_c, 1, 57, 0
1, 61800, Note_on_c, 1, 64, 73
1, 61821, Note_on_c, 0, 78, 0
1, 61823, Note_on_c, 1, 64, 0
1, 61824, Note_on_c, 0, 78, 73
1, 61824, Note_on_c, 1, 57, 73
1, 61847, Note_on_c, 1, 57, 0
1, 61848, Note_on_c, 1, 64, 73
1, 61869, Note_on_c, 0, 78, 0
1, 61871, Note_on_c, 1, 64, 0
1, 61872, Note_on_c, 0, 78, 73
1, 61872, Note_on_c, 1, 57, 73
1, 61895, Note_on_c, 1, 57, 0
1, 61896, Note_on_c, 1, 64, 73
1, 61917, Note_on_c, 0, 78, 0
1, 61919, Note_on_c, 1, 64, 0
1, 61920, Note_on_c, 0, 79, 73
1, 61920, Note_on_c, 1, 52, 73
1, 61943, Note_on_c, 1, 52, 0
1, 61944, Note_on_c, 1, 64, 73
1, 61965, Note_on_c, 0, 79, 0
1, 61967, Note_on_c, 1, 64, 0
1, 61968, Note_on_c, 0, 83, 73
1, 61968, Note_on_c, 1, 54, 73
1, 61980, Note_on_c, 0, 83, 0
1, 61980, Note_on_c, 0, 81, 73
1, 61991, Note_on_c, 1, 54, 0
1, 61992, Note_on_c, 0, 81, 0
1, 61992, Note_on_c, 0, 79, 73
1, 61992, Note_on_c, 1, 64, 73
1, 62004, Note_on_c, 0, 79, 0
1, 62004, Note_on_c, 0, 81, 73
1, 62015, Note_on_c, 1, 64, 0
1, 62016, Note_on_c, 0, 81, 0
1, 62016, Note_on_c, 0, 83, 73
1, 62016, Note_on_c, 1, 55, 73
1, 62039, Note_on_c, 1, 55, 0
1, 62040, Note_on_c, 1, 64, 73
1, 62061, Note_on_c, 0, 83, 0
1, 62063, Note_on_c, 1, 64, 0
1, 62064, Note_on_c, 0, 78, 73
1, 62064, Note_on_c, 1, 57, 73
1, 62087, Note_on_c, 1, 57, 0
1, 62088, Note_on_c, 1, 64, 73
1, 62109, Note_on_c, 0, 78, 0
1, 62111, Note_on_c, 1, 64, 0
1, 62112, Note_on_c, 0, 78, 73
1, 62112, Note_on_c, 1, 57, 73
1, 62135, Note_on_c, 1, 57, 0
1, 62136, Note_on_c, 1, 64, 73
1, 62157, Note_on_c, 0, 78, 0
1, 62159, Note_on_c, 1, 64, 0
1, 62160, Note_on_c, 0, 78, 73
1, 62160, Note_on_c, 1, 57, 73
1, 62183, Note_on_c, 1, 57, 0
1, 62184, Note_on_c, 1, 64, 73
1, 62205, Note_on_c, 0, 78, 0
1, 62207, Note_on_c, 1, 64, 0
1, 62208, Note_on_c, 0, 76, 73
1, 62208, Note_on_c, 1, 58, 73
1, 62231, Note_on_c, 1, 58, 0
1, 62232, Note_on_c, 1, 67, 73
1, 62253, Note_on_c, 0, 76, 0
1, 62255, Note_on_c, 1, 67, 0
1, 62256, Note_on_c, 0, 76, 73
1, 62256, Note_on_c, 1, 58, 73
1, 62279, Note_on_c, 1, 58, 0
1, 62280, Note_on_c, 1, 67, 73
1, 62301, Note_on_c, 0, 76, 0
1, 62303, Note_on_c, 1, 67, 0
1, 62304, Note_on_c, 0, 76, 73
1, 62304, Note_on_c, 1, 58, 73
1, 62327, Note_on_c, 1, 58, 0
1, 62328, Note_on_c, 1, 67, 73
1, 62349, Note_on_c, 0, 76, 0
1, 62351, Note_on_c, 1, 67, 0
1, 62352, Note_on_c, 0, 75, 73
1, 62352, Note_on_c, 1, 59, 73
1, 62375, Note_on_c, 1, 59, 0
1, 62376, Note_on_c, 1, 66, 73
1, 62397, Note_on_c, 0, 75, 0
1, 62399, Note_on_c, 1, 66, 0
1, 62400, Note_on_c, 0, 75, 73
1, 62400, Note_on_c, 1, 59, 73
1, 62423, Note_on_c, 1, 59, 0
1, 62424, Note_on_c, 1, 66, 73
1, 62445, Note_on_c, 0, 75, 0
1, 62447, Note_on_c, 1, 66, 0
1, 62448, Note_on_c, 0, 75, 73
1, 62448, Note_on_c, 1, 59, 73
1, 62471, Note_on_c, 1, 59, 0
1, 62472, Note_on_c, 1, 66, 73
1, 62493, Note_on_c, 0, 75, 0
1, 62495, Note_on_c, 1, 66, 0
1, 62496, Note_on_c, 0, 70, 73
1, 62496, Note_on_c, 1, 60, 73
1, 62519, Note_on_c, 1, 60, 0
1, 62520, Note_on_c, 1, 64, 73
1, 62541, Note_on_c, 0, 70, 0
1, 62543, Note_on_c, 1, 64, 0
1, 62544, Note_on_c, 0, 70, 73
1, 62544, Note_on_c, 1, 60, 73
1, 62567, Note_on_c, 1, 60, 0
1, 62568, Note_on_c, 1, 64, 73
1, 62589, Note_on_c, 0, 70, 0
1, 62591, Note_on_c, 1, 64, 0
1, 62592, Note_on_c, 0, 70, 73
1, 62592, Note_on_c, 1, 60, 73
1, 62615, Note_on_c, 1, 60, 0
1, 62616, Note_on_c, 1, 64, 73
1, 62637, Note_on_c, 0, 70, 0
1, 62639, Note_on_c, 1, 64, 0
1, 62640, Note_on_c, 1, 59, 73
1, 62664, Note_on_c, 0, 71, 73
1, 62687, Note_on_c, 0, 71, 0
1, 62688, Note_on_c, 0, 73, 73
1, 62711, Note_on_c, 0, 73, 0
1, 62712, Note_on_c, 0, 75, 73
1, 62729, Note_on_c, 1, 59, 0
1, 62735, Note_on_c, 0, 75, 0
1, 62736, Note_on_c, 0, 76, 73
1, 62759, Note_on_c, 0, 76, 0
1, 62760, Note_on_c, 0, 78, 73
1, 62783, Note_on_c, 0, 78, 0
1, 62784, Note_on_c, 0, 79, 73
1, 62807, Note_on_c, 0, 79, 0
1, 62808, Note_on_c, 0, 71, 73
1, 62808, Note_on_c, 1, 59, 73
1, 62831, Note_on_c, 0, 71, 0
1, 62831, Note_on_c, 1, 59, 0
1, 62832, Note_on_c, 0, 73, 73
1, 62832, Note_on_c, 1, 61, 73
1, 62855, Note_on_c, 0, 73, 0
1, 62855, Note_on_c, 1, 61, 0
1, 62856, Note_on_c, 0, 75, 73
1, 62856, Note_on_c, 1, 63, 73
1, 62879, Note_on_c, 0, 75, 0
1, 62879, Note_on_c, 1, 63, 0
1, 62880, Note_on_c, 0, 76, 74
1, 62880, Note_on_c, 1, 64, 74
1, 62903, Note_on_c, 0, 76, 0
1, 62903, Note_on_c, 1, 64, 0
1, 62904, Note_on_c, 0, 78, 74
1, 62904, Note_on_c, 1, 66, 74
1, 62927, Note_on_c, 0, 78, 0
1, 62927, Note_on_c, 1, 66, 0
1, 62928, Note_on_c, 0, 79, 74
1, 62928, Note_on_c, 1, 67, 74
1, 62951, Note_on_c, 0, 79, 0
1, 62951, Note_on_c, 1, 67, 0
1, 62952, Note_on_c, 0, 78, 75
1, 62952, Note_on_c, 1, 66, 75
1, 62975, Note_on_c, 0, 78, 0
1, 62975, Note_on_c, 1, 66, 0
1, 62976, Note_on_c, 0, 76, 75
1, 62976, Note_on_c, 1, 64, 75
1, 62999, Note_on_c, 0, 76, 0
1, 62999, Note_on_c, 1, 64, 0
1, 63000, Note_on_c, 0, 78, 76
1, 63000, Note_on_c, 1, 66, 76
1, 63023, Note_on_c, 0, 78, 0
1, 63023, Note_on_c, 1, 66, 0
1, 63024, Note_on_c, 0, 79, 76
1, 63024, Note_on_c, 1, 67, 76
1, 63047, Note_on_c, 0, 79, 0
1, 63047, Note_on_c, 1, 67, 0
1, 63048, Note_on_c, 0, 81, 76
1, 63048, Note_on_c, 1, 69, 76
1, 63071, Note_on_c, 0, 81, 0
1, 63071, Note_on_c, 1, 69, 0
1, 63072, Note_on_c, 0, 83, 77
1, 63072, Note_on_c, 1, 71, 77
1, 63117, Note_on_c, 0, 83, 0
1, 63117, Note_on_c, 1, 71, 0
1, 63120, Note_on_c, 0, 78, 78
1, 63120, Note_on_c, 1, 66, 78
1, 63165, Note_on_c, 0, 78, 0
1, 63165, Note_on_c, 1, 66, 0
1, 63168, Note_on_c, 0, 75, 78
1, 63168, Note_on_c, 1, 63, 78
1, 63213, Note_on_c, 0, 75, 0
1, 63213, Note_on_c, 1, 63, 0
1, 63216, Note_on_c, 0, 71, 78
1, 63216, Note_on_c, 1, 59, 78
1, 63261, Note_on_c, 0, 71, 0
1, 63261, Note_on_c, 1, 59, 0
1, 63264, Note_on_c, 0, 66, 78
1, 63264, Note_on_c, 1, 54, 78
1, 63309, Note_on_c, 0, 66, 0
1, 63309, Note_on_c, 1, 54, 0
1, 63312, Note_on_c, 0, 63, 78
1, 63312, Note_on_c, 1, 51, 78
1, 63357, Note_on_c, 0, 63, 0
1, 63357, Note_on_c, 1, 51, 0
1, 63360, Note_on_c, 0, 59, 78
1, 63360, Note_on_c, 1, 47, 78
1, 63597, Note_on_c, 0, 59, 0
1, 63597, Note_on_c, 1, 47, 0
1, 63648, Note_on_c, 1, 40, 73
1, 63696, Note_on_c, 0, 71, 73
1, 63696, Note_on_c, 0, 67, 73
1, 63737, Note_on_c, 1, 40, 0
1, 63741, Note_on_c, 0, 71, 0
1, 63741, Note_on_c, 0, 67, 0
1, 63744, Note_on_c, 0, 69, 73
1, 63744, Note_on_c, 0, 66, 73
1, 63789, Note_on_c, 0, 69, 0
1, 63789, Note_on_c, 0, 66, 0
1, 63792, Note_on_c, 0, 67, 73
1, 63792, Note_on_c, 0, 64, 73
1, 63837, Note_on_c, 0, 67, 0
1, 63837, Note_on_c, 0, 64, 0
1, 63840, Note_on_c, 0, 79, 73
1, 63840, Note_on_c, 0, 71, 73
1, 63885, Note_on_c, 0, 79, 0
1, 63885, Note_on_c, 0, 71, 0
1, 63888, Note_on_c, 0, 76, 73
1, 63888, Note_on_c, 0, 67, 73
1, 63888, Note_on_c, 1, 55, 69
1, 63888, Note_on_c, 1, 52, 69
1, 63933, Note_on_c, 0, 76, 0
1, 63933, Note_on_c, 0, 67, 0
1, 63933, Note_on_c, 1, 55, 0
1, 63933, Note_on_c, 1, 52, 0
1, 63936, Note_on_c, 0, 75, 73
1, 63936, Note_on_c, 0, 66, 73
1, 63936, Note_on_c, 1, 57, 69
1, 63936, Note_on_c, 1, 54, 69
1, 63981, Note_on_c, 0, 75, 0
1, 63981, Note_on_c, 0, 66, 0
1, 63984, Note_on_c, 0, 81, 73
1, 63984, Note_on_c, 0, 78, 73
1, 64025, Note_on_c, 1, 57, 0
1, 64025, Note_on_c, 1, 54, 0
1, 64029, Note_on_c, 0, 81, 0
1, 64029, Note_on_c, 0, 78, 0
1, 64032, Note_on_c, 0, 79, 73
1, 64032, Note_on_c, 0, 76, 73
1, 64077, Note_on_c, 0, 79, 0
1, 64077, Note_on_c, 0, 76, 0
1, 64080, Note_on_c, 0, 78, 73
1, 64080, Note_on_c, 0, 75, 73
1, 64125, Note_on_c, 0, 78, 0
1, 64125, Note_on_c, 0, 75, 0
1, 64128, Note_on_c, 0, 84, 73
1, 64128, Note_on_c, 0, 81, 73
1, 64128, Note_on_c, 1, 63, 69
1, 64128, Note_on_c, 1, 59, 69
1, 64173, Note_on_c, 0, 84, 0
1, 64173, Note_on_c, 0, 81, 0
1, 64176, Note_on_c, 0, 81, 73
1, 64176, Note_on_c, 0, 78, 73
1, 64176, Note_on_c, 1, 59, 0
1, 64176, Note_on_c, 1, 66, 69
1, 64221, Note_on_c, 0, 81, 0
1, 64221, Note_on_c, 0, 78, 0
1, 64221, Note_on_c, 1, 66, 0
1, 64221, Note_on_c, 1, 63, 0
1, 64224, Note_on_c, 0, 79, 73
1, 64224, Note_on_c, 0, 76, 73
1, 64224, Note_on_c, 1, 67, 69
1, 64224, Note_on_c, 1, 64, 73
1, 64269, Note_on_c, 0, 79, 0
1, 64272, Note_on_c, 0, 83, 73
1, 64313, Note_on_c, 0, 76, 0
1, 64313, Note_on_c, 1, 67, 0
1, 64313, Note_on_c, 1, 64, 0
1, 64320, Note_on_c, 0, 71, 73
1, 64320, Note_on_c, 1, 67, 69
1, 64365, Note_on_c, 0, 71, 0
1, 64365, Note_on_c, 1, 67, 0
1, 64368, Note_on_c, 0, 72, 73
1, 64368, Note_on_c, 1, 69, 69
1, 64405, Note_on_c, 0, 83, 0
1, 64413, Note_on_c, 1, 69, 0
1, 64416, Note_on_c, 0, 81, 73
1, 64416, Note_on_c, 1, 66, 69
1, 64461, Note_on_c, 1, 66, 0
1, 64464, Note_on_c, 1, 64, 69
1, 64501, Note_on_c, 0, 72, 0
1, 64509, Note_on_c, 1, 64, 0
1, 64512, Note_on_c, 0, 71, 73
1, 64512, Note_on_c, 1, 63, 69
1, 64557, Note_on_c, 0, 81, 0
1, 64557, Note_on_c, 1, 63, 0
1, 64560, Note_on_c, 0, 79, 73
1, 64560, Note_on_c, 1, 64, 69
1, 64605, Note_on_c, 0, 79, 0
1, 64605, Note_on_c, 1, 64, 0
1, 64608, Note_on_c, 0, 76, 73
1, 64608, Note_on_c, 1, 71, 69
1, 64608, Note_on_c, 1, 67, 73
1, 64645, Note_on_c, 0, 71, 0
1, 64653, Note_on_c, 0, 76, 0
1, 64653, Note_on_c, 1, 71, 0
1, 64653, Note_on_c, 1, 67, 0
1, 64656, Note_on_c, 0, 76, 73
1, 64656, Note_on_c, 0, 69, 73
1, 64656, Note_on_c, 1, 72, 69
1, 64656, Note_on_c, 1, 69, 73
1, 64701, Note_on_c, 0, 76, 0
1, 64704, Note_on_c, 0, 77, 73
1, 64749, Note_on_c, 0, 77, 0
1, 64752, Note_on_c, 0, 81, 73
1, 64789, Note_on_c, 0, 69, 0
1, 64789, Note_on_c, 1, 72, 0
1, 64789, Note_on_c, 1, 69, 0
1, 64797, Note_on_c, 0, 81, 0
1, 64800, Note_on_c, 0, 76, 73
1, 64800, Note_on_c, 0, 71, 73
1, 64800, Note_on_c, 1, 67, 69
1, 64800, Note_on_c, 1, 59, 73
1, 64933, Note_on_c, 0, 71, 0
1, 64933, Note_on_c, 1, 67, 0
1, 64944, Note_on_c, 0, 69, 73
1, 64944, Note_on_c, 1, 66, 69
1, 64989, Note_on_c, 0, 76, 0
1, 64992, Note_on_c, 0, 78, 73
1, 65037, Note_on_c, 0, 78, 0
1, 65040, Note_on_c, 0, 75, 73
1, 65065, Note_on_c, 1, 59, 0
1, 65077, Note_on_c, 0, 69, 0
1, 65077, Note_on_c, 1, 66, 0
1, 65085, Note_on_c, 0, 75, 0
1, 65088, Note_on_c, 0, 76, 73
1, 65088, Note_on_c, 0, 67, 73
1, 65088, Note_on_c, 1, 64, 69
1, 65088, Note_on_c, 1, 64, 73
1, 65221, Note_on_c, 0, 76, 0
1, 65221, Note_on_c, 0, 67, 0
1, 65221, Note_on_c, 1, 64, 0
1, 65221, Note_on_c, 1, 64, 0
1, 65376, Note_on_c, 1, 40, 73
1, 65424, Note_on_c, 0, 71, 73
1, 65424, Note_on_c, 0, 67, 73
1, 65465, Note_on_c, 1, 40, 0
1, 65469, Note_on_c, 0, 71, 0
1, 65469, Note_on_c, 0, 67, 0
1, 65472, Note_on_c, 0, 69, 73
1, 65472, Note_on_c, 0, 66, 73
1, 65517, Note_on_c, 0, 69, 0
1, 65517, Note_on_c, 0, 66, 0
1, 65520, Note_on_c, 0, 67, 73
1, 65520, Note_on_c, 0, 64, 73
1, 65565, Note_on_c, 0, 67, 0
1, 65565, Note_on_c, 0, 64, 0
1, 65568, Note_on_c, 0, 79, 73
1, 65568, Note_on_c, 0, 71, 73
1, 65613, Note_on_c, 0, 79, 0
1, 65613, Note_on_c, 0, 71, 0
1, 65616, Note_on_c, 0, 76, 73
1, 65616, Note_on_c, 0, 67, 73
1, 65616, Note_on_c, 1, 55, 69
1, 65616, Note_on_c, 1, 52, 69
1, 65661, Note_on_c, 0, 76, 0
1, 65661, Note_on_c, 0, 67, 0
1, 65661, Note_on_c, 1, 55, 0
1, 65661, Note_on_c, 1, 52, 0
1, 65664, Note_on_c, 0, 75, 73
1, 65664, Note_on_c, 0, 66, 73
1, 65664, Note_on_c, 1, 57, 69
1, 65664, Note_on_c, 1, 54, 69
1, 65709, Note_on_c, 0, 75, 0
1, 65709, Note_on_c, 0, 66, 0
1, 65712, Note_on_c, 0, 81, 73
1, 65712, Note_on_c, 0, 78, 73
1, 65753, Note_on_c, 1, 57, 0
1, 65753, Note_on_c, 1, 54, 0
1, 65757, Note_on_c, 0, 81, 0
1, 65757, Note_on_c, 0, 78, 0
1, 65760, Note_on_c, 0, 79, 73
1, 65760, Note_on_c, 0, 76, 73
1, 65805, Note_on_c, 0, 79, 0
1, 65805, Note_on_c, 0, 76, 0
1, 65808, Note_on_c, 0, 78, 73
1, 65808, Note_on_c, 0, 75, 73
1, 65853, Note_on_c, 0, 78, 0
1, 65853, Note_on_c, 0, 75, 0
1, 65856, Note_on_c, 0, 84, 73
1, 65856, Note_on_c, 0, 81, 73
1, 65856, Note_on_c, 1, 63, 69
1, 65856, Note_on_c, 1, 59, 69
1, 65901, Note_on_c, 0, 84, 0
1, 65901, Note_on_c, 0, 81, 0
1, 65904, Note_on_c, 0, 81, 73
1, 65904, Note_on_c, 0, 78, 73
1, 65904, Note_on_c, 1, 59, 0
1, 65904, Note_on_c, 1, 66, 69
1, 65949, Note_on_c, 0, 81, 0
1, 65949, Note_on_c, 0, 78, 0
1, 65949, Note_on_c, 1, 66, 0
1, 65949, Note_on_c, 1, 63, 0
1, 65952, Note_on_c, 0, 79, 73
1, 65952, Note_on_c, 0, 76, 73
1, 65952, Note_on_c, 1, 67, 69
1, 65952, Note_on_c, 1, 64, 73
1, 65997, Note_on_c, 0, 79, 0
1, 66000, Note_on_c, 0, 83, 73
1, 66041, Note_on_c, 0, 76, 0
1, 66041, Note_on_c, 1, 67, 0
1, 66041, Note_on_c, 1, 64, 0
1, 66048, Note_on_c, 0, 71, 73
1, 66048, Note_on_c, 1, 67, 69
1, 66093, Note_on_c, 0, 71, 0
1, 66093, Note_on_c, 1, 67, 0
1, 66096, Note_on_c, 0, 72, 73
1, 66096, Note_on_c, 1, 69, 69
1, 66133, Note_on_c, 0, 83, 0
1, 66141, Note_on_c, 1, 69, 0
1, 66144, Note_on_c, 0, 81, 73
1, 66144, Note_on_c, 1, 66, 69
1, 66189, Note_on_c, 1, 66, 0
1, 66192, Note_on_c, 1, 64, 69
1, 66229, Note_on_c, 0, 72, 0
1, 66237, Note_on_c, 1, 64, 0
1, 66240, Note_on_c, 0, 71, 73
1, 66240, Note_on_c, 1, 63, 69
1, 66285, Note_on_c, 0, 81, 0
1, 66285, Note_on_c, 1, 63, 0
1, 66288, Note_on_c, 0, 79, 73
1, 66288, Note_on_c, 1, 64, 69
1, 66329, Note_on_c, 0, 71, 0
1, 66333, Note_on_c, 1, 64, 0
1, 66336, Note_on_c, 0, 76, 73
1, 66336, Note_on_c, 1, 67, 69
1, 66377, Note_on_c, 0, 79, 0
1, 66381, Note_on_c, 1, 67, 0
1, 66384, Note_on_c, 0, 77, 73
1, 66384, Note_on_c, 1, 69, 69
1, 66425, Note_on_c, 0, 76, 0
1, 66429, Note_on_c, 1, 69, 0
1, 66432, Note_on_c, 0, 74, 73
1, 66432, Note_on_c, 1, 71, 69
1, 66477, Note_on_c, 1, 71, 0
1, 66480, Note_on_c, 1, 69, 69
1, 66517, Note_on_c, 0, 77, 0
1, 66521, Note_on_c, 0, 74, 0
1, 66525, Note_on_c, 1, 69, 0
1, 66528, Note_on_c, 0, 76, 73
1, 66528, Note_on_c, 0, 74, 73
1, 66528, Note_on_c, 1, 68, 69
1, 66573, Note_on_c, 0, 74, 0
1, 66573, Note_on_c, 1, 68, 0
1, 66576, Note_on_c, 0, 72, 73
1, 66576, Note_on_c, 1, 69, 69
1, 66621, Note_on_c, 1, 69, 0
1, 66624, Note_on_c, 1, 67, 69
1, 66661, Note_on_c, 0, 76, 0
1, 66669, Note_on_c, 1, 67, 0
1, 66672, Note_on_c, 0, 74, 73
1, 66672, Note_on_c, 1, 66, 69
1, 66709, Note_on_c, 0, 72, 0
1, 66717, Note_on_c, 1, 66, 0
1, 66720, Note_on_c, 0, 71, 73
1, 66720, Note_on_c, 1, 67, 69
1, 66765, Note_on_c, 1, 67, 0
1, 66768, Note_on_c, 1, 66, 69
1, 66805, Note_on_c, 0, 74, 0
1, 66809, Note_on_c, 0, 71, 0
1, 66813, Note_on_c, 1, 66, 0
1, 66816, Note_on_c, 0, 72, 73
1, 66816, Note_on_c, 0, 71, 73
1, 66816, Note_on_c, 1, 64, 69
1, 66861, Note_on_c, 0, 71, 0
1, 66861, Note_on_c, 1, 64, 0
1, 66864, Note_on_c, 0, 69, 73
1, 66864, Note_on_c, 1, 66, 69
1, 66909, Note_on_c, 1, 66, 0
1, 66912, Note_on_c, 1, 64, 69
1, 66949, Note_on_c, 0, 72, 0
1, 66953, Note_on_c, 0, 69, 0
1, 66957, Note_on_c, 1, 64, 0
1, 66960, Note_on_c, 0, 71, 73
1, 66960, Note_on_c, 0, 69, 73
1, 66960, Note_on_c, 1, 63, 69
1, 67005, Note_on_c, 0, 69, 0
1, 67005, Note_on_c, 1, 63, 0
1, 67008, Note_on_c, 0, 67, 73
1, 67008, Note_on_c, 1, 64, 69
1, 67049, Note_on_c, 0, 71, 0
1, 67053, Note_on_c, 0, 67, 0
1, 67053, Note_on_c, 1, 64, 0
1, 67056, Note_on_c, 0, 76, 73
1, 67056, Note_on_c, 0, 64, 73
1, 67056, Note_on_c, 1, 55, 69
1, 67101, Note_on_c, 0, 76, 0
1, 67101, Note_on_c, 0, 64, 0
1, 67101, Note_on_c, 1, 55, 0
1, 67104, Note_on_c, 0, 76, 73
1, 67104, Note_on_c, 0, 65, 73
1, 67104, Note_on_c, 1, 56, 69
1, 67124, Note_on_c, 0, 76, 0
1, 67149, Note_on_c, 0, 65, 0
1, 67149, Note_on_c, 1, 56, 0
1, 67152, Note_on_c, 0, 76, 73
1, 67152, Note_on_c, 0, 66, 73
1, 67152, Note_on_c, 1, 57, 69
1, 67172, Note_on_c, 0, 76, 0
1, 67197, Note_on_c, 0, 66, 0
1, 67197, Note_on_c, 1, 57, 0
1, 67200, Note_on_c, 0, 76, 73
1, 67200, Note_on_c, 0, 67, 73
1, 67200, Note_on_c, 1, 58, 69
1, 67220, Note_on_c, 0, 76, 0
1, 67245, Note_on_c, 0, 67, 0
1, 67245, Note_on_c, 1, 58, 0
1, 67248, Note_on_c, 0, 76, 73
1, 67248, Note_on_c, 0, 68, 73
1, 67248, Note_on_c, 1, 59, 69
1, 67268, Note_on_c, 0, 76, 0
1, 67293, Note_on_c, 0, 68, 0
1, 67293, Note_on_c, 1, 59, 0
1, 67296, Note_on_c, 0, 76, 73
1, 67296, Note_on_c, 0, 69, 73
1, 67296, Note_on_c, 1, 60, 69
1, 67316, Note_on_c, 0, 76, 0
1, 67341, Note_on_c, 0, 69, 0
1, 67341, Note_on_c, 1, 60, 0
1, 67344, Note_on_c, 0, 76, 73
1, 67344, Note_on_c, 0, 70, 73
1, 67344, Note_on_c, 1, 61, 69
1, 67364, Note_on_c, 0, 76, 0
1, 67389, Note_on_c, 0, 70, 0
1, 67389, Note_on_c, 1, 61, 0
1, 67392, Note_on_c, 0, 76, 73
1, 67392, Note_on_c, 0, 71, 73
1, 67392, Note_on_c, 1, 67, 69
1, 67392, Note_on_c, 1, 59, 73
1, 67525, Note_on_c, 0, 71, 0
1, 67525, Note_on_c, 1, 67, 0
1, 67536, Note_on_c, 0, 69, 73
1, 67536, Note_on_c, 1, 66, 69
1, 67581, Note_on_c, 0, 76, 0
1, 67584, Note_on_c, 0, 78, 73
1, 67629, Note_on_c, 0, 78, 0
1, 67632, Note_on_c, 0, 75, 73
1, 67657, Note_on_c, 1, 59, 0
1, 67669, Note_on_c, 0, 69, 0
1, 67669, Note_on_c, 1, 66, 0
1, 67677, Note_on_c, 0, 75, 0
1, 67680, Note_on_c, 0, 76, 78
1, 67680, Note_on_c, 1, 64, 78
1, 67680, Note_on_c, 1, 52, 78
1, 67703, Note_on_c, 0, 76, 0
1, 67704, Note_on_c, 0, 71, 78
1, 67727, Note_on_c, 0, 71, 0
1, 67728, Note_on_c, 0, 67, 78
1, 67751, Note_on_c, 0, 67, 0
1, 67752, Note_on_c, 0, 71, 78
1, 67769, Note_on_c, 1, 64, 0
1, 67769, Note_on_c, 1, 52, 0
1, 67775, Note_on_c, 0, 71, 0
1, 67776, Note_on_c, 0, 69, 78
1, 67776, Note_on_c, 1, 63, 78
1, 67776, Note_on_c, 1, 59, 78
1, 67799, Note_on_c, 0, 69, 0
1, 67800, Note_on_c, 0, 71, 78
1, 67821, Note_on_c, 1, 63, 0
1, 67821, Note_on_c, 1, 59, 0
1, 67823, Note_on_c, 0, 71, 0
1, 67824, Note_on_c, 0, 67, 78
1, 67824, Note_on_c, 1, 64, 78
1, 67824, Note_on_c, 1, 52, 78
1, 67847, Note_on_c, 0, 67, 0
1, 67848, Note_on_c, 0, 71, 78
1, 67871, Note_on_c, 0, 71, 0
1, 67872, Note_on_c, 0, 76, 78
1, 67895, Note_on_c, 0, 76, 0
1, 67896, Note_on_c, 0, 71, 78
1, 67913, Note_on_c, 1, 64, 0
1, 67913, Note_on_c, 1, 52, 0
1, 67919, Note_on_c, 0, 71, 0
1, 67920, Note_on_c, 0, 78, 78
1, 67920, Note_on_c, 1, 63, 78
1, 67920, Note_on_c, 1, 59, 78
1, 67943, Note_on_c, 0, 78, 0
1, 67944, Note_on_c, 0, 71, 78
1, 67965, Note_on_c, 1, 63, 0
1, 67965, Note_on_c, 1, 59, 0
1, 67967, Note_on_c, 0, 71, 0
1, 67968, Note_on_c, 0, 79, 78
1, 67968, Note_on_c, 1, 64, 78
1, 67968, Note_on_c, 1, 52, 78
1, 67991, Note_on_c, 0, 79, 0
1, 67992, Note_on_c, 0, 71, 78
1, 68015, Note_on_c, 0, 71, 0
1, 68016, Note_on_c, 0, 67, 78
1, 68039, Note_on_c, 0, 67, 0
1, 68040, Note_on_c, 0, 71, 78
1, 68057, Note_on_c, 1, 64, 0
1, 68057, Note_on_c, 1, 52, 0
1, 68063, Note_on_c, 0, 71, 0
1, 68064, Note_on_c, 0, 69, 78
1, 68064, Note_on_c, 1, 63, 78
1, 68064, Note_on_c, 1, 59, 78
1, 68087, Note_on_c, 0, 69, 0
1, 68088, Note_on_c, 0, 71, 78
1, 68109, Note_on_c, 1, 63, 0
1, 68109, Note_on_c, 1, 59, 0
1, 68111, Note_on_c, 0, 71, 0
1, 68112, Note_on_c, 0, 67, 78
1, 68112, Note_on_c, 1, 64, 78
1, 68112, Note_on_c, 1, 52, 78
1, 68135, Note_on_c, 0, 67, 0
1, 68136, Note_on_c, 0, 71, 78
1, 68159, Note_on_c, 0, 71, 0
1, 68160, Note_on_c, 0, 76, 78
1, 68183, Note_on_c, 0, 76, 0
1, 68184, Note_on_c, 0, 71, 78
1, 68201, Note_on_c, 1, 64, 0
1, 68201, Note_on_c, 1, 52, 0
1, 68207, Note_on_c, 0, 71, 0
1, 68208, Note_on_c, 0, 78, 78
1, 68208, Note_on_c, 1, 63, 78
1, 68208, Note_on_c, 1, 59, 78
1, 68231, Note_on_c, 0, 78, 0
1, 68232, Note_on_c, 0, 71, 78
1, 68253, Note_on_c, 1, 63, 0
1, 68253, Note_on_c, 1, 59, 0
1, 68255, Note_on_c, 0, 71, 0
1, 68256, Note_on_c, 0, 79, 73
1, 68256, Note_on_c, 1, 64, 69
1, 68279, Note_on_c, 1, 64, 0
1, 68280, Note_on_c, 1, 71, 69
1, 68303, Note_on_c, 1, 71, 0
1, 68304, Note_on_c, 1, 67, 69
1, 68327, Note_on_c, 1, 67, 0
1, 68328, Note_on_c, 1, 71, 69
1, 68351, Note_on_c, 1, 71, 0
1, 68352, Note_on_c, 1, 64, 69
1, 68375, Note_on_c, 1, 64, 0
1, 68376, Note_on_c, 1, 71, 69
1, 68389, Note_on_c, 0, 79, 0
1, 68399, Note_on_c, 1, 71, 0
1, 68400, Note_on_c, 0, 77, 73
1, 68400, Note_on_c, 1, 62, 69
1, 68423, Note_on_c, 1, 62, 0
1, 68424, Note_on_c, 1, 71, 69
1, 68447, Note_on_c, 1, 71, 0
1, 68448, Note_on_c, 1, 67, 69
1, 68471, Note_on_c, 1, 67, 0
1, 68472, Note_on_c, 1, 71, 69
1, 68495, Note_on_c, 1, 71, 0
1, 68496, Note_on_c, 1, 62, 69
1, 68519, Note_on_c, 1, 62, 0
1, 68520, Note_on_c, 1, 71, 69
1, 68533, Note_on_c, 0, 77, 0
1, 68543, Note_on_c, 1, 71, 0
1, 68544, Note_on_c, 0, 76, 78
1, 68544, Note_on_c, 1, 60, 78
1, 68567, Note_on_c, 0, 76, 0
1, 68568, Note_on_c, 0, 79, 78
1, 68591, Note_on_c, 0, 79, 0
1, 68592, Note_on_c, 0, 76, 78
1, 68615, Note_on_c, 0, 76, 0
1, 68616, Note_on_c, 0, 79, 78
1, 68633, Note_on_c, 1, 60, 0
1, 68639, Note_on_c, 0, 79, 0
1, 68640, Note_on_c, 0, 77, 78
1, 68640, Note_on_c, 1, 71, 78
1, 68640, Note_on_c, 1, 67, 78
1, 68663, Note_on_c, 0, 77, 0
1, 68664, Note_on_c, 0, 79, 78
1, 68685, Note_on_c, 1, 71, 0
1, 68685, Note_on_c, 1, 67, 0
1, 68687, Note_on_c, 0, 79, 0
1, 68688, Note_on_c, 0, 76, 78
1, 68688, Note_on_c, 1, 72, 78
1, 68688, Note_on_c, 1, 60, 78
1, 68711, Note_on_c, 0, 76, 0
1, 68712, Note_on_c, 0, 79, 78
1, 68735, Note_on_c, 0, 79, 0
1, 68736, Note_on_c, 0, 84, 78
1, 68759, Note_on_c, 0, 84, 0
1, 68760, Note_on_c, 0, 79, 78
1, 68777, Note_on_c, 1, 72, 0
1, 68777, Note_on_c, 1, 60, 0
1, 68783, Note_on_c, 0, 79, 0
1, 68784, Note_on_c, 0, 86, 78
1, 68784, Note_on_c, 1, 71, 78
1, 68784, Note_on_c, 1, 67, 78
1, 68807, Note_on_c, 0, 86, 0
1, 68808, Note_on_c, 0, 79, 78
1, 68829, Note_on_c, 1, 71, 0
1, 68829, Note_on_c, 1, 67, 0
1, 68831, Note_on_c, 0, 79, 0
1, 68832, Note_on_c, 0, 88, 78
1, 68832, Note_on_c, 1, 72, 78
1, 68832, Note_on_c, 1, 60, 78
1, 68855, Note_on_c, 0, 88, 0
1, 68856, Note_on_c, 0, 79, 78
1, 68879, Note_on_c, 0, 79, 0
1, 68880, Note_on_c, 0, 76, 78
1, 68903, Note_on_c, 0, 76, 0
1, 68904, Note_on_c, 0, 79, 78
1, 68921, Note_on_c, 1, 72, 0
1, 68921, Note_on_c, 1, 60, 0
1, 68927, Note_on_c, 0, 79, 0
1, 68928, Note_on_c, 0, 77, 78
1, 68928, Note_on_c, 1, 71, 78
1, 68928, Note_on_c, 1, 67, 78
1, 68951, Note_on_c, 0, 77, 0
1, 68952, Note_on_c, 0, 79, 78
1, 68973, Note_on_c, 1, 71, 0
1, 68973, Note_on_c, 1, 67, 0
1, 68975, Note_on_c, 0, 79, 0
1, 68976, Note_on_c, 0, 88, 78
1, 68976, Note_on_c, 1, 72, 78
1, 68976, Note_on_c, 1, 60, 78
1, 68999, Note_on_c, 0, 88, 0
1, 69000, Note_on_c, 0, 79, 78
1, 69023, Note_on_c, 0, 79, 0
1, 69024, Note_on_c, 0, 84, 78
1, 69047, Note_on_c, 0, 84, 0
1, 69048, Note_on_c, 0, 79, 78
1, 69065, Note_on_c, 1, 72, 0
1, 69065, Note_on_c, 1, 60, 0
1, 69071, Note_on_c, 0, 79, 0
1, 69072, Note_on_c, 0, 86, 78
1, 69072, Note_on_c, 1, 71, 78
1, 69072, Note_on_c, 1, 67, 78
1, 69095, Note_on_c, 0, 86, 0
1, 69096, Note_on_c, 0, 79, 78
1, 69117, Note_on_c, 1, 71, 0
1, 69117, Note_on_c, 1, 67, 0
1, 69119, Note_on_c, 0, 79, 0
1, 69120, Note_on_c, 0, 88, 73
1, 69120, Note_on_c, 1, 72, 69
1, 69143, Note_on_c, 1, 72, 0
1, 69144, Note_on_c, 1, 76, 69
1, 69165, Note_on_c, 0, 88, 0
1, 69167, Note_on_c, 1, 76, 0
1, 69168, Note_on_c, 0, 81, 73
1, 69168, Note_on_c, 1, 72, 69
1, 69191, Note_on_c, 1, 72, 0
1, 69192, Note_on_c, 1, 76, 69
1, 69213, Note_on_c, 0, 81, 0
1, 69215, Note_on_c, 1, 76, 0
1, 69216, Note_on_c, 0, 81, 73
1, 69216, Note_on_c, 1, 72, 69
1, 69239, Note_on_c, 1, 72, 0
1, 69240, Note_on_c, 1, 76, 69
1, 69261, Note_on_c, 0, 81, 0
1, 69263, Note_on_c, 1, 76, 0
1, 69264, Note_on_c, 0, 86, 73
1, 69264, Note_on_c, 1, 71, 69
1, 69287, Note_on_c, 1, 71, 0
1, 69288, Note_on_c, 1, 74, 69
1, 69309, Note_on_c, 0, 86, 0
1, 69311, Note_on_c, 1, 74, 0
1, 69312, Note_on_c, 0, 80, 73
1, 69312, Note_on_c, 1, 71, 69
1, 69335, Note_on_c, 1, 71, 0
1, 69336, Note_on_c, 1, 74, 69
1, 69357, Note_on_c, 0, 80, 0
1, 69359, Note_on_c, 1, 74, 0
1, 69360, Note_on_c, 0, 80, 73
1, 69360, Note_on_c, 1, 71, 69
1, 69383, Note_on_c, 1, 71, 0
1, 69384, Note_on_c, 1, 74, 69
1, 69405, Note_on_c, 0, 80, 0
1, 69407, Note_on_c, 1, 74, 0
1, 69408, Note_on_c, 0, 84, 73
1, 69408, Note_on_c, 1, 69, 69
1, 69431, Note_on_c, 1, 69, 0
1, 69432, Note_on_c, 1, 72, 69
1, 69453, Note_on_c, 0, 84, 0
1, 69455, Note_on_c, 1, 72, 0
1, 69456, Note_on_c, 0, 77, 73
1, 69456, Note_on_c, 1, 69, 69
1, 69479, Note_on_c, 1, 69, 0
1, 69480, Note_on_c, 1, 72, 69
1, 69501, Note_on_c, 0, 77, 0
1, 69503, Note_on_c, 1, 72, 0
1, 69504, Note_on_c, 0, 77, 73
1, 69504, Note_on_c, 1, 69, 69
1, 69527, Note_on_c, 1, 69, 0
1, 69528, Note_on_c, 1, 72, 69
1, 69549, Note_on_c, 0, 77, 0
1, 69551, Note_on_c, 1, 72, 0
1, 69552, Note_on_c, 0, 83, 73
1, 69552, Note_on_c, 1, 67, 69
1, 69575, Note_on_c, 1, 67, 0
1, 69576, Note_on_c, 1, 71, 69
1, 69597, Note_on_c, 0, 83, 0
1, 69599, Note_on_c, 1, 71, 0
1, 69600, Note_on_c, 0, 76, 73
1, 69600, Note_on_c, 1, 67, 69
1, 69623, Note_on_c, 1, 67, 0
1, 69624, Note_on_c, 1, 71, 69
1, 69645, Note_on_c, 0, 76, 0
1, 69647, Note_on_c, 1, 71, 0
1, 69648, Note_on_c, 0, 76, 73
1, 69648, Note_on_c, 1, 67, 69
1, 69671, Note_on_c, 1, 67, 0
1, 69672, Note_on_c, 1, 71, 69
1, 69693, Note_on_c, 0, 76, 0
1, 69695, Note_on_c, 1, 71, 0
1, 69696, Note_on_c, 0, 81, 73
1, 69696, Note_on_c, 1, 66, 69
1, 69719, Note_on_c, 1, 66, 0
1, 69720, Note_on_c, 1, 69, 69
1, 69741, Note_on_c, 0, 81, 0
1, 69743, Note_on_c, 1, 69, 0
1, 69744, Note_on_c, 0, 75, 73
1, 69744, Note_on_c, 1, 66, 69
1, 69767, Note_on_c, 1, 66, 0
1, 69768, Note_on_c, 1, 69, 69
1, 69789, Note_on_c, 0, 75, 0
1, 69791, Note_on_c, 1, 69, 0
1, 69792, Note_on_c, 0, 75, 73
1, 69792, Note_on_c, 1, 66, 69
1, 69815, Note_on_c, 1, 66, 0
1, 69816, Note_on_c, 1, 69, 69
1, 69837, Note_on_c, 0, 75, 0
1, 69839, Note_on_c, 1, 69, 0
1, 69840, Note_on_c, 0, 79, 73
1, 69840, Note_on_c, 1, 64, 69
1, 69863, Note_on_c, 1, 64, 0
1, 69864, Note_on_c, 1, 67, 69
1, 69885, Note_on_c, 0, 79, 0
1, 69887, Note_on_c, 1, 67, 0
1, 69888, Note_on_c, 0, 70, 73
1, 69888, Note_on_c, 1, 64, 69
1, 69911, Note_on_c, 1, 64, 0
1, 69912, Note_on_c, 1, 67, 69
1, 69933, Note_on_c, 0, 70, 0
1, 69935, Note_on_c, 1, 67, 0
1, 69936, Note_on_c, 0, 70, 73
1, 69936, Note_on_c, 1, 64, 69
1, 69959, Note_on_c, 1, 64, 0
1, 69960, Note_on_c, 1, 67, 69
1, 69981, Note_on_c, 0, 70, 0
1, 69983, Note_on_c, 1, 67, 0
1, 69984, Note_on_c, 0, 78, 73
1, 69984, Note_on_c, 1, 63, 69
1, 70007, Note_on_c, 1, 63, 0
1, 70008, Note_on_c, 1, 66, 69
1, 70029, Note_on_c, 0, 78, 0
1, 70031, Note_on_c, 1, 66, 0
1, 70032, Note_on_c, 0, 71, 73
1, 70032, Note_on_c, 1, 63, 69
1, 70055, Note_on_c, 1, 63, 0
1, 70056, Note_on_c, 1, 66, 69
1, 70077, Note_on_c, 0, 71, 0
1, 70079, Note_on_c, 1, 66, 0
1, 70080, Note_on_c, 0, 71, 73
1, 70080, Note_on_c, 1, 63, 69
1, 70103, Note_on_c, 1, 63, 0
1, 70104, Note_on_c, 1, 66, 69
1, 70125, Note_on_c, 0, 71, 0
1, 70127, Note_on_c, 1, 66, 0
1, 70128, Note_on_c, 0, 81, 73
1, 70128, Note_on_c, 1, 63, 69
1, 70151, Note_on_c, 1, 63, 0
1, 70152, Note_on_c, 1, 66, 69
1, 70173, Note_on_c, 0, 81, 0
1, 70175, Note_on_c, 1, 66, 0
1, 70176, Note_on_c, 0, 69, 73
1, 70176, Note_on_c, 1, 63, 69
1, 70199, Note_on_c, 1, 63, 0
1, 70200, Note_on_c, 1, 66, 69
1, 70221, Note_on_c, 0, 69, 0
1, 70223, Note_on_c, 1, 66, 0
1, 70224, Note_on_c, 0, 69, 73
1, 70224, Note_on_c, 1, 63, 69
1, 70247, Note_on_c, 1, 63, 0
1, 70248, Note_on_c, 1, 66, 69
1, 70269, Note_on_c, 0, 69, 0
1, 70271, Note_on_c, 1, 66, 0
1, 70272, Note_on_c, 0, 79, 78
1, 70272, Note_on_c, 1, 64, 78
1, 70272, Note_on_c, 1, 52, 78
1, 70295, Note_on_c, 0, 79, 0
1, 70296, Note_on_c, 0, 71, 78
1, 70319, Note_on_c, 0, 71, 0
1, 70320, Note_on_c, 0, 67, 78
1, 70343, Note_on_c, 0, 67, 0
1, 70344, Note_on_c, 0, 71, 78
1, 70361, Note_on_c, 1, 64, 0
1, 70361, Note_on_c, 1, 52, 0
1, 70367, Note_on_c, 0, 71, 0
1, 70368, Note_on_c, 0, 69, 78
1, 70368, Note_on_c, 1, 63, 78
1, 70368, Note_on_c, 1, 59, 78
1, 70391, Note_on_c, 0, 69, 0
1, 70392, Note_on_c, 0, 71, 78
1, 70413, Note_on_c, 1, 63, 0
1, 70413, Note_on_c, 1, 59, 0
1, 70415, Note_on_c, 0, 71, 0
1, 70416, Note_on_c, 0, 67, 78
1, 70416, Note_on_c, 1, 64, 78
1, 70416, Note_on_c, 1, 52, 78
1, 70439, Note_on_c, 0, 67, 0
1, 70440, Note_on_c, 0, 71, 78
1, 70463, Note_on_c, 0, 71, 0
1, 70464, Note_on_c, 0, 76, 78
1, 70487, Note_on_c, 0, 76, 0
1, 70488, Note_on_c, 0, 71, 78
1, 70505, Note_on_c, 1, 64, 0
1, 70505, Note_on_c, 1, 52, 0
1, 70511, Note_on_c, 0, 71, 0
1, 70512, Note_on_c, 0, 78, 78
1, 70512, Note_on_c, 1, 63, 78
1, 70512, Note_on_c, 1, 59, 78
1, 70535, Note_on_c, 0, 78, 0
1, 70536, Note_on_c, 0, 71, 78
1, 70557, Note_on_c, 1, 63, 0
1, 70557, Note_on_c, 1, 59, 0
1, 70559, Note_on_c, 0, 71, 0
1, 70560, Note_on_c, 0, 79, 78
1, 70560, Note_on_c, 1, 64, 78
1, 70560, Note_on_c, 1, 52, 78
1, 70583, Note_on_c, 0, 79, 0
1, 70584, Note_on_c, 0, 71, 78
1, 70607, Note_on_c, 0, 71, 0
1, 70608, Note_on_c, 0, 67, 78
1, 70631, Note_on_c, 0, 67, 0
1, 70632, Note_on_c, 0, 71, 78
1, 70649, Note_on_c, 1, 64, 0
1, 70649, Note_on_c, 1, 52, 0
1, 70655, Note_on_c, 0, 71, 0
1, 70656, Note_on_c, 0, 69, 78
1, 70656, Note_on_c, 1, 63, 78
1, 70656, Note_on_c, 1, 59, 78
1, 70679, Note_on_c, 0, 69, 0
1, 70680, Note_on_c, 0, 71, 78
1, 70701, Note_on_c, 1, 63, 0
1, 70701, Note_on_c, 1, 59, 0
1, 70703, Note_on_c, 0, 71, 0
1, 70704, Note_on_c, 0, 67, 78
1, 70704, Note_on_c, 1, 64, 78
1, 70704, Note_on_c, 1, 52, 78
1, 70727, Note_on_c, 0, 67, 0
1, 70728, Note_on_c, 0, 71, 78
1, 70751, Note_on_c, 0, 71, 0
1, 70752, Note_on_c, 0, 76, 78
1, 70775, Note_on_c, 0, 76, 0
1, 70776, Note_on_c, 0, 71, 78
1, 70793, Note_on_c, 1, 64, 0
1, 70793, Note_on_c, 1, 52, 0
1, 70799, Note_on_c, 0, 71, 0
1, 70800, Note_on_c, 0, 78, 78
1, 70800, Note_on_c, 1, 63, 78
1, 70800, Note_on_c, 1, 59, 78
1, 70823, Note_on_c, 0, 78, 0
1, 70824, Note_on_c, 0, 71, 78
1, 70845, Note_on_c, 1, 63, 0
1, 70845, Note_on_c, 1, 59, 0
1, 70847, Note_on_c, 0, 71, 0
1, 70848, Note_on_c, 0, 79, 78
1, 70848, Note_on_c, 1, 64, 78
1, 70848, Note_on_c, 1, 52, 78
1, 70871, Note_on_c, 0, 79, 0
1, 70872, Note_on_c, 0, 71, 78
1, 70895, Note_on_c, 0, 71, 0
1, 70896, Note_on_c, 0, 67, 78
1, 70919, Note_on_c, 0, 67, 0
1, 70920, Note_on_c, 0, 71, 78
1, 70937, Note_on_c, 1, 64, 0
1, 70937, Note_on_c, 1, 52, 0
1, 70943, Note_on_c, 0, 71, 0
1, 70944, Note_on_c, 0, 67, 78
1, 70967, Note_on_c, 0, 67, 0
1, 70968, Note_on_c, 0, 71, 78
1, 70991, Note_on_c, 0, 71, 0
1, 70992, Note_on_c, 0, 76, 78
1, 70992, Note_on_c, 1, 60, 78
1, 70992, Note_on_c, 1, 48, 78
1, 71015, Note_on_c, 0, 76, 0
1, 71016, Note_on_c, 0, 72, 78
1, 71039, Note_on_c, 0, 72, 0
1, 71040, Note_on_c, 0, 67, 78
1, 71063, Note_on_c, 0, 67, 0
1, 71064, Note_on_c, 0, 72, 78
1, 71081, Note_on_c, 1, 60, 0
1, 71081, Note_on_c, 1, 48, 0
1, 71087, Note_on_c, 0, 72, 0
1, 71088, Note_on_c, 0, 67, 78
1, 71111, Note_on_c, 0, 67, 0
1, 71112, Note_on_c, 0, 72, 78
1, 71135, Note_on_c, 0, 72, 0
1, 71136, Note_on_c, 0, 66, 78
1, 71136, Note_on_c, 1, 57, 78
1, 71136, Note_on_c, 1, 45, 78
1, 71159, Note_on_c, 0, 66, 0
1, 71160, Note_on_c, 0, 72, 78
1, 71183, Note_on_c, 0, 72, 0
1, 71184, Note_on_c, 0, 76, 78
1, 71207, Note_on_c, 0, 76, 0
1, 71208, Note_on_c, 0, 72, 78
1, 71225, Note_on_c, 1, 57, 0
1, 71225, Note_on_c, 1, 45, 0
1, 71231, Note_on_c, 0, 72, 0
1, 71232, Note_on_c, 0, 76, 78
1, 71255, Note_on_c, 0, 76, 0
1, 71256, Note_on_c, 0, 72, 78
1, 71279, Note_on_c, 0, 72, 0
1, 71280, Note_on_c, 0, 66, 78
1, 71280, Note_on_c, 1, 59, 78
1, 71280, Note_on_c, 1, 47, 78
1, 71303, Note_on_c, 0, 66, 0
1, 71304, Note_on_c, 0, 71, 78
1, 71327, Note_on_c, 0, 71, 0
1, 71328, Note_on_c, 0, 75, 78
1, 71351, Note_on_c, 0, 75, 0
1, 71352, Note_on_c, 0, 71, 78
1, 71369, Note_on_c, 1, 59, 0
1, 71369, Note_on_c, 1, 47, 0
1, 71375, Note_on_c, 0, 71, 0
1, 71376, Note_on_c, 0, 75, 78
1, 71399, Note_on_c, 0, 75, 0
1, 71400, Note_on_c, 0, 71, 78
1, 71423, Note_on_c, 0, 71, 0
1, 71424, Note_on_c, 0, 79, 78
1, 71424, Note_on_c, 1, 52, 78
1, 71424, Note_on_c, 1, 40, 78
1, 71447, Note_on_c, 0, 79, 0
1, 71448, Note_on_c, 0, 71, 78
1, 71471, Note_on_c, 0, 71, 0
1, 71472, Note_on_c, 0, 67, 78
1, 71495, Note_on_c, 0, 67, 0
1, 71496, Note_on_c, 0, 71, 78
1, 71513, Note_on_c, 1, 52, 0
1, 71513, Note_on_c, 1, 40, 0
1, 71519, Note_on_c, 0, 71, 0
1, 71520, Note_on_c, 0, 67, 78
1, 71543, Note_on_c, 0, 67, 0
1, 71544, Note_on_c, 0, 71, 78
1, 71567, Note_on_c, 0, 71, 0
1, 71568, Note_on_c, 0, 76, 78
1, 71568, Note_on_c, 1, 60, 78
1, 71568, Note_on_c, 1, 48, 78
1, 71591, Note_on_c, 0, 76, 0
1, 71592, Note_on_c, 0, 72, 78
1, 71615, Note_on_c, 0, 72, 0
1, 71616, Note_on_c, 0, 67, 78
1, 71639, Note_on_c, 0, 67, 0
1, 71640, Note_on_c, 0, 72, 78
1, 71657, Note_on_c, 1, 60, 0
1, 71657, Note_on_c, 1, 48, 0
1, 71663, Note_on_c, 0, 72, 0
1, 71664, Note_on_c, 0, 67, 78
1, 71687, Note_on_c, 0, 67, 0
1, 71688, Note_on_c, 0, 72, 78
1, 71711, Note_on_c, 0, 72, 0
1, 71712, Note_on_c, 0, 66, 78
1, 71712, Note_on_c, 1, 57, 78
1, 71712, Note_on_c, 1, 45, 78
1, 71735, Note_on_c, 0, 66, 0
1, 71736, Note_on_c, 0, 72, 78
1, 71759, Note_on_c, 0, 72, 0
1, 71760, Note_on_c, 0, 76, 78
1, 71783, Note_on_c, 0, 76, 0
1, 71784, Note_on_c, 0, 72, 78
1, 71801, Note_on_c, 1, 57, 0
1, 71801, Note_on_c, 1, 45, 0
1, 71807, Note_on_c, 0, 72, 0
1, 71808, Note_on_c, 0, 76, 78
1, 71831, Note_on_c, 0, 76, 0
1, 71832, Note_on_c, 0, 72, 78
1, 71855, Note_on_c, 0, 72, 0
1, 71856, Note_on_c, 0, 66, 78
1, 71856, Note_on_c, 1, 59, 78
1, 71856, Note_on_c, 1, 47, 78
1, 71879, Note_on_c, 0, 66, 0
1, 71880, Note_on_c, 0, 71, 78
1, 71903, Note_on_c, 0, 71, 0
1, 71904, Note_on_c, 0, 75, 78
1, 71927, Note_on_c, 0, 75, 0
1, 71928, Note_on_c, 0, 71, 78
1, 71945, Note_on_c, 1, 59, 0
1, 71945, Note_on_c, 1, 47, 0
1, 71951, Note_on_c, 0, 71, 0
1, 71952, Note_on_c, 0, 75, 78
1, 71975, Note_on_c, 0, 75, 0
1, 71976, Note_on_c, 0, 71, 78
1, 71999, Note_on_c, 0, 71, 0
1, 72000, Note_on_c, 1, 40, 65
1, 72020, Note_on_c, 1, 40, 0
1, 72048, Note_on_c, 1, 43, 65
1, 72068, Note_on_c, 1, 43, 0
1, 72096, Note_on_c, 1, 47, 65
1, 72116, Note_on_c, 1, 47, 0
1, 72144, Note_on_c, 1, 52, 65
1, 72189, Note_on_c, 1, 52, 0
1, 72192, Note_on_c, 0, 67, 65
1, 72192, Note_on_c, 0, 59, 65
1, 72240, Note_on_c, 0, 67, 0
1, 72240, Note_on_c, 0, 59, 0
1, 72240, Note_on_c, 0, 63, 65
1, 72240, Note_on_c, 0, 57, 65
1, 72285, Note_on_c, 0, 63, 0
1, 72285, Note_on_c, 0, 57, 0
1, 72288, Note_on_c, 0, 64, 65
1, 72288, Note_on_c, 0, 55, 65
1, 72288, Note_on_c, 1, 40, 65
1, 72308, Note_on_c, 1, 40, 0
1, 72333, Note_on_c, 0, 64, 0
1, 72333, Note_on_c, 0, 55, 0
1, 72336, Note_on_c, 1, 43, 65
1, 72356, Note_on_c, 1, 43, 0
1, 72384, Note_on_c, 1, 47, 65
1, 72404, Note_on_c, 1, 47, 0
1, 72432, Note_on_c, 1, 52, 65
1, 72477, Note_on_c, 1, 52, 0
1, 72480, Note_on_c, 0, 71, 65
1, 72480, Note_on_c, 0, 67, 65
1, 72528, Note_on_c, 0, 71, 0
1, 72528, Note_on_c, 0, 67, 0
1, 72528, Note_on_c, 0, 69, 65
1, 72528, Note_on_c, 0, 66, 65
1, 72573, Note_on_c, 0, 69, 0
1, 72573, Note_on_c, 0, 66, 0
1, 72576, Note_on_c, 0, 67, 65
1, 72576, Note_on_c, 0, 64, 65
1, 72576, Note_on_c, 1, 40, 65
1, 72596, Note_on_c, 1, 40, 0
1, 72621, Note_on_c, 0, 67, 0
1, 72621, Note_on_c, 0, 64, 0
1, 72624, Note_on_c, 1, 43, 65
1, 72644, Note_on_c, 1, 43, 0
1, 72672, Note_on_c, 1, 47, 65
1, 72692, Note_on_c, 1, 47, 0
1, 72720, Note_on_c, 1, 52, 65
1, 72765, Note_on_c, 1, 52, 0
1, 72768, Note_on_c, 0, 83, 65
1, 72768, Note_on_c, 0, 79, 65
1, 72816, Note_on_c, 0, 83, 0
1, 72816, Note_on_c, 0, 79, 0
1, 72816, Note_on_c, 0, 81, 65
1, 72816, Note_on_c, 0, 78, 65
1, 72861, Note_on_c, 0, 81, 0
1, 72861, Note_on_c, 0, 78, 0
1, 72864, Note_on_c, 0, 79, 65
1, 72864, Note_on_c, 0, 76, 65
1, 72884, Note_on_c, 0, 79, 0
1, 72884, Note_on_c, 0, 76, 0
1, 72912, Note_on_c, 0, 88, 60
1, 72912, Note_on_c, 0, 76, 60
1, 72932, Note_on_c, 0, 88, 0
1, 72932, Note_on_c, 0, 76, 0
1, 72960, Note_on_c, 0, 88, 60
1, 72960, Note_on_c, 0, 76, 60
1, 72980, Note_on_c, 0, 88, 0
1, 72980, Note_on_c, 0, 76, 0
1, 73008, Note_on_c, 0, 88, 60
1, 73008, Note_on_c, 0, 76, 60
1, 73028, Note_on_c, 0, 88, 0
1, 73028, Note_on_c, 0, 76, 0
1, 73152, Note_on_c, 0, 76, 4
1, 73197, Note_on_c, 0, 76, 0
1, 73207, End_track
0, 0, End_of_file