0, 0, Header, 0, 1, 96
1, 0, Start_track
1, 0, Tempo, 400000
1, 144, Note_on_c, 0, 72, 64
1, 167, Note_on_c, 0, 72, 0
1, 168, Note_on_c, 0, 73, 64
1, 191, Note_on_c, 0, 73, 0
1, 192, Note_on_c, 0, 75, 75
1, 212, Note_on_c, 0, 75, 0
1, 240, Note_on_c, 0, 75, 76
1, 260, Note_on_c, 0, 75, 0
1, 288, Note_on_c, 0, 75, 77
1, 308, Note_on_c, 0, 75, 0
1, 336, Note_on_c, 0, 80, 78
1, 356, Note_on_c, 0, 80, 0
1, 384, Note_on_c, 0, 75, 80
1, 432, Note_on_c, 1, 60, 64
1, 477, Note_on_c, 1, 60, 0
1, 480, Note_on_c, 1, 58, 64
1, 517, Note_on_c, 0, 75, 0
1, 525, Note_on_c, 1, 58, 0
1, 528, Note_on_c, 0, 73, 75
1, 528, Note_on_c, 1, 56, 64
1, 551, Note_on_c, 0, 73, 0
1, 552, Note_on_c, 0, 72, 75
1, 573, Note_on_c, 1, 56, 0
1, 575, Note_on_c, 0, 72, 0
1, 576, Note_on_c, 0, 70, 75
1, 576, Note_on_c, 1, 55, 64
1, 621, Note_on_c, 1, 55, 0
1, 624, Note_on_c, 1, 51, 64
1, 665, Note_on_c, 0, 70, 0
1, 669, Note_on_c, 1, 51, 0
1, 672, Note_on_c, 0, 72, 75
1, 672, Note_on_c, 1, 56, 64
1, 717, Note_on_c, 1, 56, 0
1, 720, Note_on_c, 1, 51, 64
1, 761, Note_on_c, 0, 72, 0
1, 765, Note_on_c, 1, 51, 0
1, 768, Note_on_c, 0, 75, 75
1, 768, Note_on_c, 1, 58, 64
1, 813, Note_on_c, 0, 75, 0
1, 813, Note_on_c, 1, 58, 0
1, 816, Note_on_c, 0, 73, 75
1, 816, Note_on_c, 1, 51, 64
1, 828, Note_on_c, 0, 73, 0
1, 828, Note_on_c, 0, 72, 75
1, 840, Note_on_c, 0, 72, 0
1, 840, Note_on_c, 0, 73, 75
1, 861, Note_on_c, 0, 73, 0
1, 861, Note_on_c, 1, 51, 0
1, 864, Note_on_c, 0, 72, 75
1, 864, Note_on_c, 1, 56, 64
1, 884, Note_on_c, 0, 72, 0
1, 909, Note_on_c, 1, 56, 0
1, 912, Note_on_c, 0, 72, 75
1, 935, Note_on_c, 0, 72, 0
1, 936, Note_on_c, 0, 73, 75
1, 959, Note_on_c, 0, 73, 0
1, 960, Note_on_c, 0, 75, 75
1, 980, Note_on_c, 0, 75, 0
1, 1008, Note_on_c, 0, 75, 76
1, 1028, Note_on_c, 0, 75, 0
1, 1056, Note_on_c, 0, 75, 77
1, 1076, Note_on_c, 0, 75, 0
1, 1104, Note_on_c, 0, 80, 78
1, 1124, Note_on_c, 0, 80, 0
1, 1152, Note_on_c, 0, 75, 80
1, 1200, Note_on_c, 1, 60, 64
1, 1245, Note_on_c, 1, 60, 0
1, 1248, Note_on_c, 1, 58, 64
1, 1285, Note_on_c, 0, 75, 0
1, 1293, Note_on_c, 1, 58, 0
1, 1296, Note_on_c, 0, 73, 76
1, 1296, Note_on_c, 1, 56, 64
1, 1319, Note_on_c, 0, 73, 0
1, 1320, Note_on_c, 0, 72, 75
1, 1341, Note_on_c, 1, 56, 0
1, 1343, Note_on_c, 0, 72, 0
1, 1344, Note_on_c, 0, 70, 75
1, 1344, Note_on_c, 1, 61, 64
1, 1389, Note_on_c, 0, 70, 0
1, 1389, Note_on_c, 1, 61, 0
1, 1392, Note_on_c, 0, 73, 75
1, 1392, Note_on_c, 1, 58, 64
1, 1437, Note_on_c, 0, 73, 0
1, 1437, Note_on_c, 1, 58, 0
1, 1440, Note_on_c, 0, 67, 75
1, 1440, Note_on_c, 1, 63, 64
1, 1485, Note_on_c, 0, 67, 0
1, 1485, Note_on_c, 1, 63, 0
1, 1488, Note_on_c, 0, 70, 75
1, 1488, Note_on_c, 1, 51, 64
1, 1533, Note_on_c, 0, 70, 0
1, 1533, Note_on_c, 1, 51, 0
1, 1536, Note_on_c, 0, 68, 75
1, 1536, Note_on_c, 1, 56, 64
1, 1581, Note_on_c, 1, 56, 0
1, 1584, Note_on_c, 1, 51, 64
1, 1625, Note_on_c, 0, 68, 0
1, 1629, Note_on_c, 1, 51, 0
1, 1632, Note_on_c, 1, 44, 64
1, 1677, Note_on_c, 1, 44, 0
1, 1680, Note_on_c, 0, 72, 64
1, 1703, Note_on_c, 0, 72, 0
1, 1704, Note_on_c, 0, 73, 64
1, 1727, Note_on_c, 0, 73, 0
1, 1728, Note_on_c, 0, 75, 75
1, 1748, Note_on_c, 0, 75, 0
1, 1776, Note_on_c, 0, 75, 76
1, 1796, Note_on_c, 0, 75, 0
1, 1824, Note_on_c, 0, 75, 77
1, 1844, Note_on_c, 0, 75, 0
1, 1872, Note_on_c, 0, 80, 78
1, 1892, Note_on_c, 0, 80, 0
1, 1920, Note_on_c, 0, 75, 80
1, 1968, Note_on_c, 1, 60, 64
1, 2013, Note_on_c, 1, 60, 0
1, 2016, Note_on_c, 1, 58, 64
1, 2053, Note_on_c, 0, 75, 0
1, 2061, Note_on_c, 1, 58, 0
1, 2064, Note_on_c, 0, 73, 75
1, 2064, Note_on_c, 1, 56, 64
1, 2087, Note_on_c, 0, 73, 0
1, 2088, Note_on_c, 0, 72, 75
1, 2109, Note_on_c, 1, 56, 0
1, 2111, Note_on_c, 0, 72, 0
1, 2112, Note_on_c, 0, 70, 75
1, 2112, Note_on_c, 1, 55, 64
1, 2157, Note_on_c, 1, 55, 0
1, 2160, Note_on_c, 1, 51, 64
1, 2201, Note_on_c, 0, 70, 0
1, 2205, Note_on_c, 1, 51, 0
1, 2208, Note_on_c, 0, 72, 75
1, 2208, Note_on_c, 1, 56, 64
1, 2253, Note_on_c, 1, 56, 0
1, 2256, Note_on_c, 1, 51, 64
1, 2297, Note_on_c, 0, 72, 0
1, 2301, Note_on_c, 1, 51, 0
1, 2304, Note_on_c, 0, 75, 75
1, 2304, Note_on_c, 1, 58, 64
1, 2349, Note_on_c, 0, 75, 0
1, 2349, Note_on_c, 1, 58, 0
1, 2352, Note_on_c, 0, 73, 75
1, 2352, Note_on_c, 1, 51, 64
1, 2364, Note_on_c, 0, 73, 0
1, 2364, Note_on_c, 0, 72, 75
1, 2376, Note_on_c, 0, 72, 0
1, 2376, Note_on_c, 0, 73, 75
1, 2397, Note_on_c, 0, 73, 0
1, 2397, Note_on_c, 1, 51, 0
1, 2400, Note_on_c, 0, 72, 75
1, 2400, Note_on_c, 1, 56, 64
1, 2420, Note_on_c, 0, 72, 0
1, 2445, Note_on_c, 1, 56, 0
1, 2448, Note_on_c, 0, 72, 75
1, 2471, Note_on_c, 0, 72, 0
1, 2472, Note_on_c, 0, 73, 75
1, 2495, Note_on_c, 0, 73, 0
1, 2496, Note_on_c, 0, 75, 75
1, 2516, Note_on_c, 0, 75, 0
1, 2544, Note_on_c, 0, 75, 76
1, 2564, Note_on_c, 0, 75, 0
1, 2592, Note_on_c, 0, 75, 77
1, 2612, Note_on_c, 0, 75, 0
1, 2640, Note_on_c, 0, 80, 78
1, 2660, Note_on_c, 0, 80, 0
1, 2688, Note_on_c, 0, 75, 80
1, 2736, Note_on_c, 1, 60, 64
1, 2781, Note_on_c, 1, 60, 0
1, 2784, Note_on_c, 1, 58, 64
1, 2821, Note_on_c, 0, 75, 0
1, 2829, Note_on_c, 1, 58, 0
1, 2832, Note_on_c, 0, 73, 76
1, 2832, Note_on_c, 1, 56, 64
1, 2855, Note_on_c, 0, 73, 0
1, 2856, Note_on_c, 0, 72, 75
1, 2877, Note_on_c, 1, 56, 0
1, 2879, Note_on_c, 0, 72, 0
1, 2880, Note_on_c, 0, 70, 75
1, 2880, Note_on_c, 1, 61, 64
1, 2925, Note_on_c, 0, 70, 0
1, 2925, Note_on_c, 1, 61, 0
1, 2928, Note_on_c, 0, 73, 75
1, 2928, Note_on_c, 1, 58, 64
1, 2973, Note_on_c, 0, 73, 0
1, 2973, Note_on_c, 1, 58, 0
1, 2976, Note_on_c, 0, 67, 75
1, 2976, Note_on_c, 1, 63, 64
1, 3021, Note_on_c, 0, 67, 0
1, 3021, Note_on_c, 1, 63, 0
1, 3024, Note_on_c, 0, 70, 75
1, 3024, Note_on_c, 1, 51, 64
1, 3069, Note_on_c, 0, 70, 0
1, 3069, Note_on_c, 1, 51, 0
1, 3072, Note_on_c, 0, 68, 75
1, 3072, Note_on_c, 1, 56, 64
1, 3117, Note_on_c, 1, 56, 0
1, 3120, Note_on_c, 1, 51, 64
1, 3161, Note_on_c, 0, 68, 0
1, 3165, Note_on_c, 1, 51, 0
1, 3168, Note_on_c, 1, 44, 64
1, 3213, Note_on_c, 1, 44, 0
1, 3216, Note_on_c, 0, 75, 75
1, 3261, Note_on_c, 0, 75, 0
1, 3264, Note_on_c, 0, 77, 75
1, 3309, Note_on_c, 0, 77, 0
1, 3312, Note_on_c, 0, 75, 75
1, 3357, Note_on_c, 0, 75, 0
1, 3360, Note_on_c, 0, 74, 75
1, 3405, Note_on_c, 0, 74, 0
1, 3408, Note_on_c, 0, 83, 75
1, 3408, Note_on_c, 1, 74, 64
1, 3408, Note_on_c, 1, 68, 64
1, 3453, Note_on_c, 0, 83, 0
1, 3456, Note_on_c, 0, 82, 75
1, 3456, Note_on_c, 1, 74, 0
1, 3456, Note_on_c, 1, 68, 0
1, 3456, Note_on_c, 1, 75, 64
1, 3456, Note_on_c, 1, 67, 64
1, 3476, Note_on_c, 0, 82, 0
1, 3504, Note_on_c, 0, 79, 75
1, 3545, Note_on_c, 1, 75, 0
1, 3545, Note_on_c, 1, 67, 0
1, 3549, Note_on_c, 0, 79, 0
1, 3552, Note_on_c, 0, 75, 75
1, 3597, Note_on_c, 0, 75, 0
1, 3600, Note_on_c, 0, 72, 75
1, 3645, Note_on_c, 0, 72, 0
1, 3648, Note_on_c, 0, 75, 75
1, 3654, Note_on_c, 0, 75, 0
1, 3654, Note_on_c, 0, 73, 75
1, 3693, Note_on_c, 0, 73, 0
1, 3696, Note_on_c, 0, 72, 75
1, 3741, Note_on_c, 0, 72, 0
1, 3744, Note_on_c, 0, 71, 75
1, 3789, Note_on_c, 0, 71, 0
1, 3792, Note_on_c, 0, 80, 75
1, 3792, Note_on_c, 1, 71, 64
1, 3792, Note_on_c, 1, 65, 64
1, 3837, Note_on_c, 0, 80, 0
1, 3840, Note_on_c, 0, 79, 75
1, 3840, Note_on_c, 1, 71, 0
1, 3840, Note_on_c, 1, 65, 0
1, 3840, Note_on_c, 1, 72, 64
1, 3840, Note_on_c, 1, 63, 64
1, 3860, Note_on_c, 0, 79, 0
1, 3888, Note_on_c, 0, 75, 75
1, 3929, Note_on_c, 1, 72, 0
1, 3929, Note_on_c, 1, 63, 0
1, 3933, Note_on_c, 0, 75, 0
1, 3936, Note_on_c, 0, 72, 75
1, 3981, Note_on_c, 0, 72, 0
1, 3984, Note_on_c, 0, 68, 75
1, 4029, Note_on_c, 0, 68, 0
1, 4032, Note_on_c, 0, 72, 75
1, 4038, Note_on_c, 0, 72, 0
1, 4038, Note_on_c, 0, 70, 75
1, 4077, Note_on_c, 0, 70, 0
1, 4080, Note_on_c, 0, 68, 75
1, 4125, Note_on_c, 0, 68, 0
1, 4128, Note_on_c, 0, 67, 75
1, 4173, Note_on_c, 0, 67, 0
1, 4176, Note_on_c, 0, 77, 75
1, 4176, Note_on_c, 1, 67, 64
1, 4176, Note_on_c, 1, 61, 64
1, 4221, Note_on_c, 0, 77, 0
1, 4224, Note_on_c, 0, 75, 75
1, 4224, Note_on_c, 1, 67, 0
1, 4224, Note_on_c, 1, 61, 0
1, 4224, Note_on_c, 1, 68, 64
1, 4224, Note_on_c, 1, 60, 64
1, 4244, Note_on_c, 0, 75, 0
1, 4272, Note_on_c, 0, 72, 75
1, 4313, Note_on_c, 1, 68, 0
1, 4313, Note_on_c, 1, 60, 0
1, 4317, Note_on_c, 0, 72, 0
1, 4320, Note_on_c, 0, 68, 75
1, 4365, Note_on_c, 0, 68, 0
1, 4368, Note_on_c, 0, 75, 75
1, 4413, Note_on_c, 0, 75, 0
1, 4416, Note_on_c, 0, 74, 75
1, 4416, Note_on_c, 1, 68, 64
1, 4416, Note_on_c, 1, 58, 64
1, 4461, Note_on_c, 0, 74, 0
1, 4464, Note_on_c, 0, 77, 75
1, 4505, Note_on_c, 1, 68, 0
1, 4505, Note_on_c, 1, 58, 0
1, 4509, Note_on_c, 0, 77, 0
1, 4512, Note_on_c, 0, 80, 76
1, 4557, Note_on_c, 0, 80, 0
1, 4560, Note_on_c, 0, 74, 76
1, 4605, Note_on_c, 0, 74, 0
1, 4608, Note_on_c, 0, 75, 77
1, 4608, Note_on_c, 1, 67, 64
1, 4608, Note_on_c, 1, 63, 64
1, 4653, Note_on_c, 0, 75, 0
1, 4656, Note_on_c, 0, 77, 78
1, 4671, Note_on_c, 0, 77, 0
1, 4672, Note_on_c, 0, 75, 78
1, 4687, Note_on_c, 0, 75, 0
1, 4688, Note_on_c, 0, 74, 78
1, 4697, Note_on_c, 1, 67, 0
1, 4697, Note_on_c, 1, 63, 0
1, 4703, Note_on_c, 0, 74, 0
1, 4704, Note_on_c, 0, 75, 78
1, 4749, Note_on_c, 0, 75, 0
1, 4752, Note_on_c, 0, 75, 79
1, 4797, Note_on_c, 0, 75, 0
1, 4800, Note_on_c, 0, 74, 80
1, 4800, Note_on_c, 1, 68, 64
1, 4800, Note_on_c, 1, 58, 64
1, 4845, Note_on_c, 0, 74, 0
1, 4848, Note_on_c, 0, 77, 80
1, 4889, Note_on_c, 1, 68, 0
1, 4889, Note_on_c, 1, 58, 0
1, 4893, Note_on_c, 0, 77, 0
1, 4896, Note_on_c, 0, 80, 80
1, 4941, Note_on_c, 0, 80, 0
1, 4944, Note_on_c, 0, 74, 80
1, 4989, Note_on_c, 0, 74, 0
1, 4992, Note_on_c, 0, 77, 80
1, 5184, Note_on_c, 0, 77, 0
1, 5184, Note_on_c, 0, 75, 80
1, 5184, Note_on_c, 1, 39, 64
1, 5421, Note_on_c, 0, 75, 0
1, 5421, Note_on_c, 1, 39, 0
1, 5520, Note_on_c, 0, 72, 75
1, 5543, Note_on_c, 0, 72, 0
1, 5544, Note_on_c, 0, 73, 75
1, 5567, Note_on_c, 0, 73, 0
1, 5568, Note_on_c, 0, 75, 75
1, 5588, Note_on_c, 0, 75, 0
1, 5616, Note_on_c, 0, 75, 76
1, 5636, Note_on_c, 0, 75, 0
1, 5664, Note_on_c, 0, 75, 77
1, 5684, Note_on_c, 0, 75, 0
1, 5712, Note_on_c, 0, 80, 78
1, 5732, Note_on_c, 0, 80, 0
1, 5760, Note_on_c, 0, 75, 80
1, 5808, Note_on_c, 1, 60, 64
1, 5853, Note_on_c, 1, 60, 0
1, 5856, Note_on_c, 1, 58, 64
1, 5893, Note_on_c, 0, 75, 0
1, 5901, Note_on_c, 1, 58, 0
1, 5904, Note_on_c, 0, 73, 80
1, 5904, Note_on_c, 1, 56, 64
1, 5927, Note_on_c, 0, 73, 0
1, 5928, Note_on_c, 0, 72, 80
1, 5949, Note_on_c, 1, 56, 0
1, 5951, Note_on_c, 0, 72, 0
1, 5952, Note_on_c, 0, 70, 80
1, 5952, Note_on_c, 1, 55, 64
1, 5972, Note_on_c, 0, 70, 0
1, 5997, Note_on_c, 1, 55, 0
1, 6000, Note_on_c, 0, 70, 80
1, 6000, Note_on_c, 1, 51, 64
1, 6045, Note_on_c, 1, 51, 0
1, 6048, Note_on_c, 0, 70, 0
1, 6048, Note_on_c, 0, 72, 80
1, 6048, Note_on_c, 1, 56, 64
1, 6093, Note_on_c, 0, 72, 0
1, 6093, Note_on_c, 1, 56, 0
1, 6096, Note_on_c, 0, 72, 80
1, 6096, Note_on_c, 1, 51, 64
1, 6116, Note_on_c, 0, 72, 0
1, 6141, Note_on_c, 1, 51, 0
1, 6144, Note_on_c, 0, 75, 80
1, 6144, Note_on_c, 1, 58, 64
1, 6189, Note_on_c, 0, 75, 0
1, 6189, Note_on_c, 1, 58, 0
1, 6192, Note_on_c, 0, 73, 80
1, 6192, Note_on_c, 1, 51, 64
1, 6204, Note_on_c, 0, 73, 0
1, 6204, Note_on_c, 0, 72, 80
1, 6216, Note_on_c, 0, 72, 0
1, 6216, Note_on_c, 0, 73, 80
1, 6237, Note_on_c, 0, 73, 0
1, 6237, Note_on_c, 1, 51, 0
1, 6240, Note_on_c, 0, 72, 80
1, 6240, Note_on_c, 1, 56, 64
1, 6260, Note_on_c, 0, 72, 0
1, 6285, Note_on_c, 1, 56, 0
1, 6288, Note_on_c, 0, 72, 80
1, 6311, Note_on_c, 0, 72, 0
1, 6312, Note_on_c, 0, 73, 80
1, 6335, Note_on_c, 0, 73, 0
1, 6336, Note_on_c, 0, 75, 80
1, 6356, Note_on_c, 0, 75, 0
1, 6384, Note_on_c, 0, 75, 81
1, 6404, Note_on_c, 0, 75, 0
1, 6432, Note_on_c, 0, 75, 83
1, 6452, Note_on_c, 0, 75, 0
1, 6480, Note_on_c, 0, 80, 84
1, 6500, Note_on_c, 0, 80, 0
1, 6528, Note_on_c, 0, 75, 86
1, 6576, Note_on_c, 1, 60, 64
1, 6621, Note_on_c, 1, 60, 0
1, 6624, Note_on_c, 1, 58, 64
1, 6661, Note_on_c, 0, 75, 0
1, 6669, Note_on_c, 1, 58, 0
1, 6672, Note_on_c, 0, 73, 81
1, 6672, Note_on_c, 1, 56, 64
1, 6695, Note_on_c, 0, 73, 0
1, 6696, Note_on_c, 0, 72, 80
1, 6717, Note_on_c, 1, 56, 0
1, 6719, Note_on_c, 0, 72, 0
1, 6720, Note_on_c, 0, 70, 80
1, 6720, Note_on_c, 1, 61, 64
1, 6743, Note_on_c, 0, 70, 0
1, 6744, Note_on_c, 0, 73, 80
1, 6765, Note_on_c, 1, 61, 0
1, 6767, Note_on_c, 0, 73, 0
1, 6768, Note_on_c, 0, 70, 80
1, 6768, Note_on_c, 1, 58, 64
1, 6791, Note_on_c, 0, 70, 0
1, 6792, Note_on_c, 0, 73, 80
1, 6813, Note_on_c, 1, 58, 0
1, 6815, Note_on_c, 0, 73, 0
1, 6816, Note_on_c, 0, 67, 80
1, 6816, Note_on_c, 1, 63, 64
1, 6861, Note_on_c, 0, 67, 0
1, 6861, Note_on_c, 1, 63, 0
1, 6864, Note_on_c, 0, 70, 80
1, 6864, Note_on_c, 1, 51, 64
1, 6909, Note_on_c, 0, 70, 0
1, 6909, Note_on_c, 1, 51, 0
1, 6912, Note_on_c, 0, 68, 80
1, 6912, Note_on_c, 1, 56, 64
1, 6957, Note_on_c, 1, 56, 0
1, 6960, Note_on_c, 1, 51, 64
1, 7001, Note_on_c, 0, 68, 0
1, 7005, Note_on_c, 1, 51, 0
1, 7008, Note_on_c, 1, 44, 64
1, 7053, Note_on_c, 1, 44, 0
1, 7056, Note_on_c, 0, 75, 75
1, 7101, Note_on_c, 0, 75, 0
1, 7104, Note_on_c, 0, 77, 75
1, 7149, Note_on_c, 0, 77, 0
1, 7152, Note_on_c, 0, 75, 75
1, 7197, Note_on_c, 0, 75, 0
1, 7200, Note_on_c, 0, 74, 75
1, 7245, Note_on_c, 0, 74, 0
1, 7248, Note_on_c, 0, 83, 75
1, 7248, Note_on_c, 1, 74, 64
1, 7248, Note_on_c, 1, 68, 64
1, 7293, Note_on_c, 0, 83, 0
1, 7296, Note_on_c, 0, 82, 75
1, 7296, Note_on_c, 1, 74, 0
1, 7296, Note_on_c, 1, 68, 0
1, 7296, Note_on_c, 1, 75, 64
1, 7296, Note_on_c, 1, 67, 64
1, 7316, Note_on_c, 0, 82, 0
1, 7344, Note_on_c, 0, 79, 75
1, 7385, Note_on_c, 1, 75, 0
1, 7385, Note_on_c, 1, 67, 0
1, 7389, Note_on_c, 0, 79, 0
1, 7392, Note_on_c, 0, 75, 75
1, 7437, Note_on_c, 0, 75, 0
1, 7440, Note_on_c, 0, 72, 75
1, 7485, Note_on_c, 0, 72, 0
1, 7488, Note_on_c, 0, 75, 75
1, 7494, Note_on_c, 0, 75, 0
1, 7494, Note_on_c, 0, 73, 75
1, 7533, Note_on_c, 0, 73, 0
1, 7536, Note_on_c, 0, 72, 75
1, 7581, Note_on_c, 0, 72, 0
1, 7584, Note_on_c, 0, 71, 75
1, 7629, Note_on_c, 0, 71, 0
1, 7632, Note_on_c, 0, 80, 75
1, 7632, Note_on_c, 1, 71, 64
1, 7632, Note_on_c, 1, 65, 64
1, 7677, Note_on_c, 0, 80, 0
1, 7680, Note_on_c, 0, 79, 75
1, 7680, Note_on_c, 1, 71, 0
1, 7680, Note_on_c, 1, 65, 0
1, 7680, Note_on_c, 1, 72, 64
1, 7680, Note_on_c, 1, 63, 64
1, 7700, Note_on_c, 0, 79, 0
1, 7728, Note_on_c, 0, 75, 75
1, 7769, Note_on_c, 1, 72, 0
1, 7769, Note_on_c, 1, 63, 0
1, 7773, Note_on_c, 0, 75, 0
1, 7776, Note_on_c, 0, 72, 75
1, 7821, Note_on_c, 0, 72, 0
1, 7824, Note_on_c, 0, 68, 75
1, 7869, Note_on_c, 0, 68, 0
1, 7872, Note_on_c, 0, 72, 75
1, 7878, Note_on_c, 0, 72, 0
1, 7878, Note_on_c, 0, 70, 75
1, 7917, Note_on_c, 0, 70, 0
1, 7920, Note_on_c, 0, 68, 75
1, 7965, Note_on_c, 0, 68, 0
1, 7968, Note_on_c, 0, 67, 75
1, 8013, Note_on_c, 0, 67, 0
1, 8016, Note_on_c, 0, 77, 75
1, 8016, Note_on_c, 1, 67, 64
1, 8016, Note_on_c, 1, 61, 64
1, 8061, Note_on_c, 0, 77, 0
1, 8064, Note_on_c, 0, 75, 75
1, 8064, Note_on_c, 1, 67, 0
1, 8064, Note_on_c, 1, 61, 0
1, 8064, Note_on_c, 1, 68, 64
1, 8064, Note_on_c, 1, 60, 64
1, 8084, Note_on_c, 0, 75, 0
1, 8112, Note_on_c, 0, 72, 75
1, 8153, Note_on_c, 1, 68, 0
1, 8153, Note_on_c, 1, 60, 0
1, 8157, Note_on_c, 0, 72, 0
1, 8160, Note_on_c, 0, 68, 75
1, 8205, Note_on_c, 0, 68, 0
1, 8208, Note_on_c, 0, 75, 75
1, 8253, Note_on_c, 0, 75, 0
1, 8256, Note_on_c, 0, 74, 75
1, 8256, Note_on_c, 1, 68, 64
1, 8256, Note_on_c, 1, 58, 64
1, 8301, Note_on_c, 0, 74, 0
1, 8304, Note_on_c, 0, 77, 75
1, 8345, Note_on_c, 1, 68, 0
1, 8345, Note_on_c, 1, 58, 0
1, 8349, Note_on_c, 0, 77, 0
1, 8352, Note_on_c, 0, 80, 76
1, 8397, Note_on_c, 0, 80, 0
1, 8400, Note_on_c, 0, 74, 76
1, 8445, Note_on_c, 0, 74, 0
1, 8448, Note_on_c, 0, 75, 77
1, 8448, Note_on_c, 1, 67, 64
1, 8448, Note_on_c, 1, 63, 64
1, 8493, Note_on_c, 0, 75, 0
1, 8496, Note_on_c, 0, 77, 78
1, 8511, Note_on_c, 0, 77, 0
1, 8512, Note_on_c, 0, 75, 78
1, 8527, Note_on_c, 0, 75, 0
1, 8528, Note_on_c, 0, 74, 78
1, 8537, Note_on_c, 1, 67, 0
1, 8537, Note_on_c, 1, 63, 0
1, 8543, Note_on_c, 0, 74, 0
1, 8544, Note_on_c, 0, 75, 78
1, 8589, Note_on_c, 0, 75, 0
1, 8592, Note_on_c, 0, 75, 79
1, 8637, Note_on_c, 0, 75, 0
1, 8640, Note_on_c, 0, 74, 80
1, 8640, Note_on_c, 1, 68, 64
1, 8640, Note_on_c, 1, 58, 64
1, 8685, Note_on_c, 0, 74, 0
1, 8688, Note_on_c, 0, 77, 80
1, 8729, Note_on_c, 1, 68, 0
1, 8729, Note_on_c, 1, 58, 0
1, 8733, Note_on_c, 0, 77, 0
1, 8736, Note_on_c, 0, 80, 80
1, 8781, Note_on_c, 0, 80, 0
1, 8784, Note_on_c, 0, 74, 80
1, 8829, Note_on_c, 0, 74, 0
1, 8832, Note_on_c, 0, 77, 80
1, 9024, Note_on_c, 0, 77, 0
1, 9024, Note_on_c, 0, 75, 80
1, 9024, Note_on_c, 1, 39, 64
1, 9261, Note_on_c, 0, 75, 0
1, 9261, Note_on_c, 1, 39, 0
1, 9360, Note_on_c, 0, 72, 75
1, 9383, Note_on_c, 0, 72, 0
1, 9384, Note_on_c, 0, 73, 75
1, 9407, Note_on_c, 0, 73, 0
1, 9408, Note_on_c, 0, 75, 75
1, 9428, Note_on_c, 0, 75, 0
1, 9456, Note_on_c, 0, 75, 76
1, 9476, Note_on_c, 0, 75, 0
1, 9504, Note_on_c, 0, 75, 77
1, 9524, Note_on_c, 0, 75, 0
1, 9552, Note_on_c, 0, 80, 78
1, 9572, Note_on_c, 0, 80, 0
1, 9600, Note_on_c, 0, 75, 80
1, 9648, Note_on_c, 1, 60, 64
1, 9693, Note_on_c, 1, 60, 0
1, 9696, Note_on_c, 1, 58, 64
1, 9733, Note_on_c, 0, 75, 0
1, 9741, Note_on_c, 1, 58, 0
1, 9744, Note_on_c, 0, 73, 80
1, 9744, Note_on_c, 1, 56, 64
1, 9767, Note_on_c, 0, 73, 0
1, 9768, Note_on_c, 0, 72, 80
1, 9789, Note_on_c, 1, 56, 0
1, 9791, Note_on_c, 0, 72, 0
1, 9792, Note_on_c, 0, 70, 80
1, 9792, Note_on_c, 1, 55, 64
1, 9812, Note_on_c, 0, 70, 0
1, 9837, Note_on_c, 1, 55, 0
1, 9840, Note_on_c, 0, 70, 80
1, 9840, Note_on_c, 1, 51, 64
1, 9885, Note_on_c, 1, 51, 0
1, 9888, Note_on_c, 0, 70, 0
1, 9888, Note_on_c, 0, 72, 80
1, 9888, Note_on_c, 1, 56, 64
1, 9933, Note_on_c, 0, 72, 0
1, 9933, Note_on_c, 1, 56, 0
1, 9936, Note_on_c, 0, 72, 80
1, 9936, Note_on_c, 1, 51, 64
1, 9956, Note_on_c, 0, 72, 0
1, 9981, Note_on_c, 1, 51, 0
1, 9984, Note_on_c, 0, 75, 80
1, 9984, Note_on_c, 1, 58, 64
1, 10029, Note_on_c, 0, 75, 0
1, 10029, Note_on_c, 1, 58, 0
1, 10032, Note_on_c, 0, 73, 80
1, 10032, Note_on_c, 1, 51, 64
1, 10044, Note_on_c, 0, 73, 0
1, 10044, Note_on_c, 0, 72, 80
1, 10056, Note_on_c, 0, 72, 0
1, 10056, Note_on_c, 0, 73, 80
1, 10077, Note_on_c, 0, 73, 0
1, 10077, Note_on_c, 1, 51, 0
1, 10080, Note_on_c, 0, 72, 80
1, 10080, Note_on_c, 1, 56, 64
1, 10100, Note_on_c, 0, 72, 0
1, 10125, Note_on_c, 1, 56, 0
1, 10128, Note_on_c, 0, 72, 80
1, 10151, Note_on_c, 0, 72, 0
1, 10152, Note_on_c, 0, 73, 80
1, 10175, Note_on_c, 0, 73, 0
1, 10176, Note_on_c, 0, 75, 80
1, 10196, Note_on_c, 0, 75, 0
1, 10224, Note_on_c, 0, 75, 81
1, 10244, Note_on_c, 0, 75, 0
1, 10272, Note_on_c, 0, 75, 83
1, 10292, Note_on_c, 0, 75, 0
1, 10320, Note_on_c, 0, 80, 84
1, 10340, Note_on_c, 0, 80, 0
1, 10368, Note_on_c, 0, 75, 86
1, 10416, Note_on_c, 1, 60, 64
1, 10461, Note_on_c, 1, 60, 0
1, 10464, Note_on_c, 1, 58, 64
1, 10501, Note_on_c, 0, 75, 0
1, 10509, Note_on_c, 1, 58, 0
1, 10512, Note_on_c, 0, 73, 81
1, 10512, Note_on_c, 1, 56, 64
1, 10535, Note_on_c, 0, 73, 0
1, 10536, Note_on_c, 0, 72, 80
1, 10557, Note_on_c, 1, 56, 0
1, 10559, Note_on_c, 0, 72, 0
1, 10560, Note_on_c, 0, 70, 80
1, 10560, Note_on_c, 1, 61, 64
1, 10583, Note_on_c, 0, 70, 0
1, 10584, Note_on_c, 0, 73, 80
1, 10605, Note_on_c, 1, 61, 0
1, 10607, Note_on_c, 0, 73, 0
1, 10608, Note_on_c, 0, 70, 80
1, 10608, Note_on_c, 1, 58, 64
1, 10631, Note_on_c, 0, 70, 0
1, 10632, Note_on_c, 0, 73, 80
1, 10653, Note_on_c, 1, 58, 0
1, 10655, Note_on_c, 0, 73, 0
1, 10656, Note_on_c, 0, 67, 80
1, 10656, Note_on_c, 1, 63, 64
1, 10701, Note_on_c, 0, 67, 0
1, 10701, Note_on_c, 1, 63, 0
1, 10704, Note_on_c, 0, 70, 80
1, 10704, Note_on_c, 1, 51, 64
1, 10749, Note_on_c, 0, 70, 0
1, 10749, Note_on_c, 1, 51, 0
1, 10752, Note_on_c, 0, 68, 80
1, 10752, Note_on_c, 1, 56, 64
1, 10797, Note_on_c, 1, 56, 0
1, 10800, Note_on_c, 1, 51, 64
1, 10841, Note_on_c, 0, 68, 0
1, 10845, Note_on_c, 1, 51, 0
1, 10848, Note_on_c, 1, 44, 64
1, 10893, Note_on_c, 1, 44, 0
1, 10896, Note_on_c, 0, 60, 80
1, 10919, Note_on_c, 0, 60, 0
1, 10920, Note_on_c, 0, 61, 80
1, 10943, Note_on_c, 0, 61, 0
1, 10944, Note_on_c, 0, 63, 80
1, 10964, Note_on_c, 0, 63, 0
1, 10992, Note_on_c, 0, 63, 81
1, 11012, Note_on_c, 0, 63, 0
1, 11040, Note_on_c, 0, 63, 83
1, 11060, Note_on_c, 0, 63, 0
1, 11088, Note_on_c, 0, 68, 84
1, 11108, Note_on_c, 0, 68, 0
1, 11136, Note_on_c, 0, 63, 86
1, 11184, Note_on_c, 1, 60, 64
1, 11225, Note_on_c, 0, 63, 0
1, 11229, Note_on_c, 1, 60, 0
1, 11232, Note_on_c, 1, 58, 64
1, 11277, Note_on_c, 1, 58, 0
1, 11280, Note_on_c, 0, 72, 80
1, 11280, Note_on_c, 1, 56, 64
1, 11325, Note_on_c, 0, 72, 0
1, 11325, Note_on_c, 1, 56, 0
1, 11328, Note_on_c, 0, 70, 80
1, 11328, Note_on_c, 1, 55, 64
1, 11373, Note_on_c, 0, 70, 0
1, 11376, Note_on_c, 0, 75, 80
1, 11417, Note_on_c, 1, 55, 0
1, 11421, Note_on_c, 0, 75, 0
1, 11424, Note_on_c, 0, 79, 80
1, 11469, Note_on_c, 0, 79, 0
1, 11472, Note_on_c, 0, 67, 80
1, 11472, Note_on_c, 1, 51, 64
1, 11517, Note_on_c, 0, 67, 0
1, 11517, Note_on_c, 1, 51, 0
1, 11520, Note_on_c, 0, 70, 80
1, 11520, Note_on_c, 1, 53, 64
1, 11565, Note_on_c, 1, 53, 0
1, 11568, Note_on_c, 0, 70, 0
1, 11568, Note_on_c, 0, 68, 80
1, 11568, Note_on_c, 1, 56, 64
1, 11613, Note_on_c, 0, 68, 0
1, 11613, Note_on_c, 1, 56, 0
1, 11616, Note_on_c, 1, 62, 64
1, 11661, Note_on_c, 1, 62, 0
1, 11664, Note_on_c, 0, 65, 80
1, 11664, Note_on_c, 1, 50, 64
1, 11709, Note_on_c, 0, 65, 0
1, 11709, Note_on_c, 1, 50, 0
1, 11712, Note_on_c, 0, 67, 80
1, 11712, Note_on_c, 1, 51, 64
1, 11757, Note_on_c, 0, 67, 0
1, 11757, Note_on_c, 1, 51, 0
1, 11760, Note_on_c, 0, 70, 80
1, 11760, Note_on_c, 1, 43, 64
1, 11805, Note_on_c, 0, 70, 0
1, 11805, Note_on_c, 1, 43, 0
1, 11808, Note_on_c, 0, 72, 80
1, 11808, Note_on_c, 1, 44, 64
1, 11853, Note_on_c, 0, 72, 0
1, 11853, Note_on_c, 1, 44, 0
1, 11856, Note_on_c, 0, 63, 80
1, 11856, Note_on_c, 1, 45, 64
1, 11901, Note_on_c, 0, 63, 0
1, 11901, Note_on_c, 1, 45, 0
1, 11904, Note_on_c, 0, 63, 80
1, 11904, Note_on_c, 1, 46, 64
1, 11952, Note_on_c, 0, 63, 0
1, 11952, Note_on_c, 0, 62, 80
1, 11993, Note_on_c, 1, 46, 0
1, 11997, Note_on_c, 0, 62, 0
1, 12048, Note_on_c, 0, 70, 80
1, 12048, Note_on_c, 1, 67, 64
1, 12093, Note_on_c, 0, 70, 0
1, 12093, Note_on_c, 1, 67, 0
1, 12096, Note_on_c, 0, 68, 80
1, 12096, Note_on_c, 1, 65, 64
1, 12119, Note_on_c, 0, 68, 0
1, 12120, Note_on_c, 0, 70, 80
1, 12141, Note_on_c, 1, 65, 0
1, 12143, Note_on_c, 0, 70, 0
1, 12144, Note_on_c, 0, 67, 80
1, 12144, Note_on_c, 1, 63, 64
1, 12167, Note_on_c, 0, 67, 0
1, 12168, Note_on_c, 0, 70, 80
1, 12189, Note_on_c, 1, 63, 0
1, 12191, Note_on_c, 0, 70, 0
1, 12192, Note_on_c, 0, 65, 80
1, 12192, Note_on_c, 1, 62, 64
1, 12237, Note_on_c, 0, 65, 0
1, 12237, Note_on_c, 1, 62, 0
1, 12240, Note_on_c, 0, 74, 80
1, 12240, Note_on_c, 1, 56, 64
1, 12263, Note_on_c, 1, 56, 0
1, 12264, Note_on_c, 1, 58, 64
1, 12285, Note_on_c, 0, 74, 0
1, 12287, Note_on_c, 1, 58, 0
1, 12288, Note_on_c, 0, 75, 80
1, 12288, Note_on_c, 1, 55, 64
1, 12311, Note_on_c, 1, 55, 0
1, 12312, Note_on_c, 1, 58, 64
1, 12333, Note_on_c, 0, 75, 0
1, 12335, Note_on_c, 1, 58, 0
1, 12336, Note_on_c, 0, 77, 80
1, 12336, Note_on_c, 1, 53, 64
1, 12359, Note_on_c, 1, 53, 0
1, 12360, Note_on_c, 1, 58, 64
1, 12381, Note_on_c, 0, 77, 0
1, 12383, Note_on_c, 1, 58, 0
1, 12384, Note_on_c, 0, 79, 80
1, 12384, Note_on_c, 1, 51, 64
1, 12429, Note_on_c, 0, 79, 0
1, 12429, Note_on_c, 1, 51, 0
1, 12432, Note_on_c, 0, 70, 80
1, 12432, Note_on_c, 1, 67, 64
1, 12477, Note_on_c, 0, 70, 0
1, 12477, Note_on_c, 1, 67, 0
1, 12480, Note_on_c, 0, 68, 80
1, 12480, Note_on_c, 1, 65, 64
1, 12503, Note_on_c, 0, 68, 0
1, 12504, Note_on_c, 0, 70, 80
1, 12525, Note_on_c, 1, 65, 0
1, 12527, Note_on_c, 0, 70, 0
1, 12528, Note_on_c, 0, 67, 80
1, 12528, Note_on_c, 1, 63, 64
1, 12551, Note_on_c, 0, 67, 0
1, 12552, Note_on_c, 0, 70, 80
1, 12573, Note_on_c, 1, 63, 0
1, 12575, Note_on_c, 0, 70, 0
1, 12576, Note_on_c, 0, 65, 80
1, 12576, Note_on_c, 1, 62, 64
1, 12621, Note_on_c, 0, 65, 0
1, 12621, Note_on_c, 1, 62, 0
1, 12624, Note_on_c, 0, 74, 80
1, 12624, Note_on_c, 1, 56, 64
1, 12647, Note_on_c, 1, 56, 0
1, 12648, Note_on_c, 1, 58, 64
1, 12669, Note_on_c, 0, 74, 0
1, 12671, Note_on_c, 1, 58, 0
1, 12672, Note_on_c, 0, 75, 80
1, 12672, Note_on_c, 1, 55, 64
1, 12695, Note_on_c, 1, 55, 0
1, 12696, Note_on_c, 1, 58, 64
1, 12717, Note_on_c, 0, 75, 0
1, 12719, Note_on_c, 1, 58, 0
1, 12720, Note_on_c, 0, 77, 80
1, 12720, Note_on_c, 1, 53, 64
1, 12743, Note_on_c, 1, 53, 0
1, 12744, Note_on_c, 1, 58, 64
1, 12765, Note_on_c, 0, 77, 0
1, 12767, Note_on_c, 1, 58, 0
1, 12768, Note_on_c, 0, 79, 80
1, 12768, Note_on_c, 1, 51, 64
1, 12813, Note_on_c, 0, 79, 0
1, 12813, Note_on_c, 1, 51, 0
1, 12816, Note_on_c, 0, 79, 80
1, 12816, Note_on_c, 1, 63, 64
1, 12839, Note_on_c, 0, 79, 0
1, 12839, Note_on_c, 1, 63, 0
1, 12840, Note_on_c, 0, 80, 80
1, 12840, Note_on_c, 1, 65, 64
1, 12863, Note_on_c, 0, 80, 0
1, 12863, Note_on_c, 1, 65, 0
1, 12864, Note_on_c, 0, 82, 80
1, 12864, Note_on_c, 1, 67, 64
1, 12884, Note_on_c, 0, 82, 0
1, 12884, Note_on_c, 1, 67, 0
1, 12912, Note_on_c, 0, 79, 80
1, 12912, Note_on_c, 1, 63, 64
1, 12935, Note_on_c, 0, 79, 0
1, 12935, Note_on_c, 1, 63, 0
1, 12936, Note_on_c, 0, 80, 80
1, 12936, Note_on_c, 1, 65, 64
1, 12959, Note_on_c, 0, 80, 0
1, 12959, Note_on_c, 1, 65, 0
1, 12960, Note_on_c, 0, 82, 80
1, 12960, Note_on_c, 1, 67, 64
1, 12980, Note_on_c, 0, 82, 0
1, 12980, Note_on_c, 1, 67, 0
1, 13008, Note_on_c, 0, 79, 80
1, 13008, Note_on_c, 1, 63, 64
1, 13031, Note_on_c, 0, 79, 0
1, 13031, Note_on_c, 1, 63, 0
1, 13032, Note_on_c, 0, 80, 80
1, 13032, Note_on_c, 1, 65, 64
1, 13055, Note_on_c, 0, 80, 0
1, 13055, Note_on_c, 1, 65, 0
1, 13056, Note_on_c, 0, 82, 80
1, 13056, Note_on_c, 1, 67, 64
1, 13095, Note_on_c, 0, 82, 0
1, 13095, Note_on_c, 1, 67, 0
1, 13200, Note_on_c, 0, 75, 80
1, 13200, Note_on_c, 1, 67, 64
1, 13223, Note_on_c, 0, 75, 0
1, 13223, Note_on_c, 1, 67, 0
1, 13224, Note_on_c, 0, 77, 80
1, 13224, Note_on_c, 1, 68, 64
1, 13247, Note_on_c, 0, 77, 0
1, 13247, Note_on_c, 1, 68, 0
1, 13248, Note_on_c, 0, 79, 80
1, 13248, Note_on_c, 1, 70, 64
1, 13268, Note_on_c, 0, 79, 0
1, 13268, Note_on_c, 1, 70, 0
1, 13296, Note_on_c, 0, 75, 80
1, 13296, Note_on_c, 1, 67, 64
1, 13319, Note_on_c, 0, 75, 0
1, 13319, Note_on_c, 1, 67, 0
1, 13320, Note_on_c, 0, 77, 80
1, 13320, Note_on_c, 1, 68, 64
1, 13343, Note_on_c, 0, 77, 0
1, 13343, Note_on_c, 1, 68, 0
1, 13344, Note_on_c, 0, 79, 80
1, 13344, Note_on_c, 1, 70, 64
1, 13364, Note_on_c, 0, 79, 0
1, 13364, Note_on_c, 1, 70, 0
1, 13392, Note_on_c, 0, 75, 80
1, 13392, Note_on_c, 1, 67, 64
1, 13415, Note_on_c, 0, 75, 0
1, 13415, Note_on_c, 1, 67, 0
1, 13416, Note_on_c, 0, 77, 80
1, 13416, Note_on_c, 1, 68, 64
1, 13439, Note_on_c, 0, 77, 0
1, 13439, Note_on_c, 1, 68, 0
1, 13440, Note_on_c, 0, 79, 80
1, 13440, Note_on_c, 1, 70, 64
1, 13479, Note_on_c, 0, 79, 0
1, 13479, Note_on_c, 1, 70, 0
1, 13584, Note_on_c, 0, 79, 80
1, 13584, Note_on_c, 1, 63, 64
1, 13607, Note_on_c, 0, 79, 0
1, 13607, Note_on_c, 1, 63, 0
1, 13608, Note_on_c, 0, 80, 80
1, 13608, Note_on_c, 1, 65, 64
1, 13631, Note_on_c, 0, 80, 0
1, 13631, Note_on_c, 1, 65, 0
1, 13632, Note_on_c, 0, 82, 80
1, 13632, Note_on_c, 1, 67, 64
1, 13652, Note_on_c, 0, 82, 0
1, 13652, Note_on_c, 1, 67, 0
1, 13680, Note_on_c, 0, 79, 80
1, 13680, Note_on_c, 1, 63, 64
1, 13703, Note_on_c, 0, 79, 0
1, 13703, Note_on_c, 1, 63, 0
1, 13704, Note_on_c, 0, 80, 80
1, 13704, Note_on_c, 1, 65, 64
1, 13727, Note_on_c, 0, 80, 0
1, 13727, Note_on_c, 1, 65, 0
1, 13728, Note_on_c, 0, 82, 80
1, 13728, Note_on_c, 1, 67, 64
1, 13748, Note_on_c, 0, 82, 0
1, 13748, Note_on_c, 1, 67, 0
1, 13776, Note_on_c, 0, 79, 75
1, 13776, Note_on_c, 1, 63, 64
1, 13799, Note_on_c, 0, 79, 0
1, 13799, Note_on_c, 1, 63, 0
1, 13800, Note_on_c, 0, 80, 76
1, 13800, Note_on_c, 1, 65, 64
1, 13823, Note_on_c, 0, 80, 0
1, 13823, Note_on_c, 1, 65, 0
1, 13824, Note_on_c, 0, 82, 77
1, 13824, Note_on_c, 1, 67, 64
1, 13869, Note_on_c, 0, 82, 0
1, 13872, Note_on_c, 0, 84, 80
1, 13895, Note_on_c, 0, 84, 0
1, 13896, Note_on_c, 0, 82, 80
1, 13913, Note_on_c, 1, 67, 0
1, 13919, Note_on_c, 0, 82, 0
1, 13920, Note_on_c, 0, 80, 80
1, 13943, Note_on_c, 0, 80, 0
1, 13944, Note_on_c, 0, 79, 80
1, 13967, Note_on_c, 0, 79, 0
1, 13968, Note_on_c, 0, 77, 80
1, 13968, Note_on_c, 1, 55, 64
1, 13991, Note_on_c, 0, 77, 0
1, 13992, Note_on_c, 0, 75, 80
1, 14013, Note_on_c, 1, 55, 0
1, 14015, Note_on_c, 0, 75, 0
1, 14016, Note_on_c, 0, 77, 80
1, 14016, Note_on_c, 1, 56, 64
1, 14061, Note_on_c, 0, 77, 0
1, 14064, Note_on_c, 0, 82, 80
1, 14087, Note_on_c, 0, 82, 0
1, 14088, Note_on_c, 0, 80, 80
1, 14105, Note_on_c, 1, 56, 0
1, 14111, Note_on_c, 0, 80, 0
1, 14112, Note_on_c, 0, 79, 80
1, 14135, Note_on_c, 0, 79, 0
1, 14136, Note_on_c, 0, 77, 80
1, 14159, Note_on_c, 0, 77, 0
1, 14160, Note_on_c, 0, 75, 80
1, 14160, Note_on_c, 1, 58, 64
1, 14183, Note_on_c, 0, 75, 0
1, 14184, Note_on_c, 0, 74, 80
1, 14205, Note_on_c, 1, 58, 0
1, 14207, Note_on_c, 0, 74, 0
1, 14208, Note_on_c, 0, 75, 80
1, 14208, Note_on_c, 1, 60, 64
1, 14253, Note_on_c, 0, 75, 0
1, 14256, Note_on_c, 0, 84, 80
1, 14279, Note_on_c, 0, 84, 0
1, 14280, Note_on_c, 0, 82, 80
1, 14297, Note_on_c, 1, 60, 0
1, 14303, Note_on_c, 0, 82, 0
1, 14304, Note_on_c, 0, 80, 80
1, 14327, Note_on_c, 0, 80, 0
1, 14328, Note_on_c, 0, 79, 80
1, 14351, Note_on_c, 0, 79, 0
1, 14352, Note_on_c, 0, 77, 80
1, 14352, Note_on_c, 1, 55, 64
1, 14375, Note_on_c, 0, 77, 0
1, 14376, Note_on_c, 0, 76, 80
1, 14397, Note_on_c, 1, 55, 0
1, 14399, Note_on_c, 0, 76, 0
1, 14400, Note_on_c, 0, 77, 80
1, 14400, Note_on_c, 1, 56, 64
1, 14445, Note_on_c, 0, 77, 0
1, 14448, Note_on_c, 0, 82, 80
1, 14471, Note_on_c, 0, 82, 0
1, 14472, Note_on_c, 0, 80, 80
1, 14489, Note_on_c, 1, 56, 0
1, 14495, Note_on_c, 0, 80, 0
1, 14496, Note_on_c, 0, 79, 80
1, 14519, Note_on_c, 0, 79, 0
1, 14520, Note_on_c, 0, 77, 80
1, 14543, Note_on_c, 0, 77, 0
1, 14544, Note_on_c, 0, 75, 80
1, 14544, Note_on_c, 1, 58, 64
1, 14567, Note_on_c, 0, 75, 0
1, 14568, Note_on_c, 0, 74, 80
1, 14589, Note_on_c, 1, 58, 0
1, 14591, Note_on_c, 0, 74, 0
1, 14592, Note_on_c, 0, 75, 80
1, 14592, Note_on_c, 1, 63, 64
1, 14637, Note_on_c, 1, 63, 0
1, 14640, Note_on_c, 1, 67, 64
1, 14685, Note_on_c, 1, 67, 0
1, 14688, Note_on_c, 1, 70, 64
1, 14733, Note_on_c, 1, 70, 0
1, 14736, Note_on_c, 1, 67, 64
1, 14781, Note_on_c, 1, 67, 0
1, 14784, Note_on_c, 1, 63, 64
1, 14829, Note_on_c, 0, 75, 0
1, 14832, Note_on_c, 0, 79, 80
1, 14877, Note_on_c, 0, 79, 0
1, 14880, Note_on_c, 0, 82, 80
1, 14925, Note_on_c, 0, 82, 0
1, 14928, Note_on_c, 0, 75, 80
1, 14973, Note_on_c, 0, 75, 0
1, 14976, Note_on_c, 0, 74, 80
1, 14976, Note_on_c, 1, 65, 64
1, 15021, Note_on_c, 1, 65, 0
1, 15024, Note_on_c, 1, 68, 64
1, 15069, Note_on_c, 1, 68, 0
1, 15072, Note_on_c, 1, 70, 64
1, 15117, Note_on_c, 1, 70, 0
1, 15120, Note_on_c, 1, 68, 64
1, 15165, Note_on_c, 1, 68, 0
1, 15168, Note_on_c, 1, 65, 64
1, 15213, Note_on_c, 0, 74, 0
1, 15216, Note_on_c, 0, 77, 80
1, 15261, Note_on_c, 0, 77, 0
1, 15264, Note_on_c, 0, 80, 80
1, 15309, Note_on_c, 0, 80, 0
1, 15312, Note_on_c, 0, 74, 80
1, 15345, Note_on_c, 1, 65, 0
1, 15357, Note_on_c, 0, 74, 0
1, 15360, Note_on_c, 0, 75, 80
1, 15360, Note_on_c, 1, 63, 64
1, 15405, Note_on_c, 1, 63, 0
1, 15405, Note_on_c, 1, 63, 0
1, 15408, Note_on_c, 1, 67, 64
1, 15453, Note_on_c, 1, 67, 0
1, 15456, Note_on_c, 1, 70, 64
1, 15501, Note_on_c, 1, 70, 0
1, 15504, Note_on_c, 1, 67, 64
1, 15549, Note_on_c, 1, 67, 0
1, 15552, Note_on_c, 1, 63, 64
1, 15597, Note_on_c, 0, 75, 0
1, 15600, Note_on_c, 0, 79, 80
1, 15645, Note_on_c, 0, 79, 0
1, 15648, Note_on_c, 0, 82, 80
1, 15693, Note_on_c, 0, 82, 0
1, 15696, Note_on_c, 0, 75, 80
1, 15741, Note_on_c, 0, 75, 0
1, 15744, Note_on_c, 0, 74, 80
1, 15744, Note_on_c, 1, 65, 64
1, 15789, Note_on_c, 1, 65, 0
1, 15792, Note_on_c, 1, 68, 64
1, 15837, Note_on_c, 1, 68, 0
1, 15840, Note_on_c, 1, 70, 64
1, 15885, Note_on_c, 1, 70, 0
1, 15888, Note_on_c, 1, 68, 64
1, 15933, Note_on_c, 1, 68, 0
1, 15936, Note_on_c, 1, 65, 64
1, 15981, Note_on_c, 0, 74, 0
1, 15984, Note_on_c, 0, 77, 80
1, 16029, Note_on_c, 0, 77, 0
1, 16032, Note_on_c, 0, 80, 80
1, 16077, Note_on_c, 0, 80, 0
1, 16080, Note_on_c, 0, 74, 80
1, 16113, Note_on_c, 1, 65, 0
1, 16125, Note_on_c, 0, 74, 0
1, 16128, Note_on_c, 0, 73, 80
1, 16176, Note_on_c, 1, 67, 64
1, 16221, Note_on_c, 1, 67, 0
1, 16224, Note_on_c, 1, 70, 64
1, 16272, Note_on_c, 1, 67, 64
1, 16320, Note_on_c, 1, 73, 64
1, 16365, Note_on_c, 0, 73, 0
1, 16368, Note_on_c, 0, 79, 80
1, 16413, Note_on_c, 0, 79, 0
1, 16416, Note_on_c, 0, 82, 80
1, 16461, Note_on_c, 0, 82, 0
1, 16464, Note_on_c, 0, 79, 80
1, 16509, Note_on_c, 0, 79, 0
1, 16512, Note_on_c, 0, 85, 80
1, 16793, Note_on_c, 0, 85, 0
1, 16793, Note_on_c, 1, 73, 0
1, 16793, Note_on_c, 1, 63, 0
1, 16793, Note_on_c, 1, 70, 0
1, 16793, Note_on_c, 1, 67, 0
1, 16848, Note_on_c, 0, 72, 75
1, 16871, Note_on_c, 0, 72, 0
1, 16872, Note_on_c, 0, 73, 75
1, 16895, Note_on_c, 0, 73, 0
1, 16896, Note_on_c, 0, 75, 75
1, 16916, Note_on_c, 0, 75, 0
1, 16944, Note_on_c, 0, 75, 76
1, 16964, Note_on_c, 0, 75, 0
1, 16992, Note_on_c, 0, 75, 77
1, 17012, Note_on_c, 0, 75, 0
1, 17040, Note_on_c, 0, 80, 78
1, 17060, Note_on_c, 0, 80, 0
1, 17088, Note_on_c, 0, 75, 80
1, 17136, Note_on_c, 1, 60, 64
1, 17181, Note_on_c, 1, 60, 0
1, 17184, Note_on_c, 1, 58, 64
1, 17221, Note_on_c, 0, 75, 0
1, 17229, Note_on_c, 1, 58, 0
1, 17232, Note_on_c, 0, 73, 76
1, 17232, Note_on_c, 1, 56, 64
1, 17255, Note_on_c, 0, 73, 0
1, 17256, Note_on_c, 0, 72, 75
1, 17277, Note_on_c, 1, 56, 0
1, 17279, Note_on_c, 0, 72, 0
1, 17280, Note_on_c, 0, 70, 75
1, 17280, Note_on_c, 1, 55, 64
1, 17300, Note_on_c, 0, 70, 0
1, 17325, Note_on_c, 1, 55, 0
1, 17328, Note_on_c, 0, 70, 75
1, 17328, Note_on_c, 1, 51, 64
1, 17373, Note_on_c, 1, 51, 0
1, 17376, Note_on_c, 0, 70, 0
1, 17376, Note_on_c, 0, 72, 75
1, 17376, Note_on_c, 1, 56, 64
1, 17396, Note_on_c, 0, 72, 0
1, 17421, Note_on_c, 1, 56, 0
1, 17424, Note_on_c, 0, 72, 75
1, 17424, Note_on_c, 1, 51, 64
1, 17469, Note_on_c, 0, 72, 0
1, 17469, Note_on_c, 1, 51, 0
1, 17472, Note_on_c, 0, 75, 75
1, 17472, Note_on_c, 1, 58, 64
1, 17517, Note_on_c, 0, 75, 0
1, 17517, Note_on_c, 1, 58, 0
1, 17520, Note_on_c, 0, 73, 75
1, 17520, Note_on_c, 1, 51, 64
1, 17532, Note_on_c, 0, 73, 0
1, 17532, Note_on_c, 0, 72, 75
1, 17544, Note_on_c, 0, 72, 0
1, 17544, Note_on_c, 0, 73, 75
1, 17565, Note_on_c, 0, 73, 0
1, 17565, Note_on_c, 1, 51, 0
1, 17568, Note_on_c, 0, 72, 75
1, 17568, Note_on_c, 1, 56, 64
1, 17588, Note_on_c, 0, 72, 0
1, 17613, Note_on_c, 1, 56, 0
1, 17616, Note_on_c, 0, 72, 75
1, 17639, Note_on_c, 0, 72, 0
1, 17640, Note_on_c, 0, 73, 75
1, 17663, Note_on_c, 0, 73, 0
1, 17664, Note_on_c, 0, 75, 75
1, 17684, Note_on_c, 0, 75, 0
1, 17712, Note_on_c, 0, 75, 76
1, 17732, Note_on_c, 0, 75, 0
1, 17760, Note_on_c, 0, 75, 77
1, 17780, Note_on_c, 0, 75, 0
1, 17808, Note_on_c, 0, 80, 78
1, 17828, Note_on_c, 0, 80, 0
1, 17856, Note_on_c, 0, 75, 80
1, 17904, Note_on_c, 1, 60, 64
1, 17949, Note_on_c, 1, 60, 0
1, 17952, Note_on_c, 1, 58, 64
1, 17989, Note_on_c, 0, 75, 0
1, 17997, Note_on_c, 1, 58, 0
1, 18000, Note_on_c, 0, 73, 76
1, 18000, Note_on_c, 1, 56, 64
1, 18023, Note_on_c, 0, 73, 0
1, 18024, Note_on_c, 0, 72, 75
1, 18045, Note_on_c, 1, 56, 0
1, 18047, Note_on_c, 0, 72, 0
1, 18048, Note_on_c, 0, 70, 75
1, 18048, Note_on_c, 1, 61, 64
1, 18093, Note_on_c, 0, 70, 0
1, 18093, Note_on_c, 1, 61, 0
1, 18096, Note_on_c, 0, 73, 75
1, 18096, Note_on_c, 1, 58, 64
1, 18141, Note_on_c, 0, 73, 0
1, 18141, Note_on_c, 1, 58, 0
1, 18144, Note_on_c, 0, 67, 75
1, 18144, Note_on_c, 1, 63, 64
1, 18189, Note_on_c, 0, 67, 0
1, 18189, Note_on_c, 1, 63, 0
1, 18192, Note_on_c, 0, 70, 75
1, 18192, Note_on_c, 1, 51, 64
1, 18237, Note_on_c, 0, 70, 0
1, 18237, Note_on_c, 1, 51, 0
1, 18240, Note_on_c, 0, 68, 75
1, 18240, Note_on_c, 1, 56, 64
1, 18285, Note_on_c, 1, 56, 0
1, 18288, Note_on_c, 1, 51, 64
1, 18329, Note_on_c, 0, 68, 0
1, 18333, Note_on_c, 1, 51, 0
1, 18336, Note_on_c, 1, 44, 64
1, 18381, Note_on_c, 1, 44, 0
1, 18384, Note_on_c, 0, 72, 75
1, 18407, Note_on_c, 0, 72, 0
1, 18408, Note_on_c, 0, 73, 75
1, 18431, Note_on_c, 0, 73, 0
1, 18432, Note_on_c, 0, 75, 75
1, 18452, Note_on_c, 0, 75, 0
1, 18480, Note_on_c, 0, 80, 77
1, 18503, Note_on_c, 0, 80, 0
1, 18504, Note_on_c, 0, 84, 78
1, 18527, Note_on_c, 0, 84, 0
1, 18528, Note_on_c, 0, 82, 80
1, 18551, Note_on_c, 0, 82, 0
1, 18552, Note_on_c, 0, 80, 78
1, 18575, Note_on_c, 0, 80, 0
1, 18576, Note_on_c, 0, 79, 77
1, 18599, Note_on_c, 0, 79, 0
1, 18600, Note_on_c, 0, 77, 76
1, 18623, Note_on_c, 0, 77, 0
1, 18624, Note_on_c, 0, 75, 75
1, 18672, Note_on_c, 1, 60, 64
1, 18717, Note_on_c, 1, 60, 0
1, 18720, Note_on_c, 1, 58, 64
1, 18757, Note_on_c, 0, 75, 0
1, 18765, Note_on_c, 1, 58, 0
1, 18768, Note_on_c, 0, 73, 75
1, 18768, Note_on_c, 1, 56, 64
1, 18791, Note_on_c, 0, 73, 0
1, 18792, Note_on_c, 0, 72, 75
1, 18813, Note_on_c, 1, 56, 0
1, 18815, Note_on_c, 0, 72, 0
1, 18816, Note_on_c, 0, 70, 75
1, 18816, Note_on_c, 1, 55, 64
1, 18839, Note_on_c, 0, 70, 0
1, 18840, Note_on_c, 0, 75, 75
1, 18861, Note_on_c, 1, 55, 0
1, 18863, Note_on_c, 0, 75, 0
1, 18864, Note_on_c, 0, 70, 75
1, 18864, Note_on_c, 1, 51, 64
1, 18887, Note_on_c, 0, 70, 0
1, 18888, Note_on_c, 0, 75, 75
1, 18909, Note_on_c, 1, 51, 0
1, 18911, Note_on_c, 0, 75, 0
1, 18912, Note_on_c, 0, 72, 75
1, 18912, Note_on_c, 1, 56, 64
1, 18935, Note_on_c, 0, 72, 0
1, 18936, Note_on_c, 0, 75, 75
1, 18957, Note_on_c, 1, 56, 0
1, 18959, Note_on_c, 0, 75, 0
1, 18960, Note_on_c, 0, 72, 75
1, 18960, Note_on_c, 1, 51, 64
1, 18983, Note_on_c, 0, 72, 0
1, 18984, Note_on_c, 0, 75, 75
1, 19005, Note_on_c, 1, 51, 0
1, 19007, Note_on_c, 0, 75, 0
1, 19008, Note_on_c, 0, 75, 75
1, 19008, Note_on_c, 1, 58, 64
1, 19053, Note_on_c, 0, 75, 0
1, 19053, Note_on_c, 1, 58, 0
1, 19056, Note_on_c, 0, 73, 75
1, 19056, Note_on_c, 1, 51, 64
1, 19068, Note_on_c, 0, 73, 0
1, 19068, Note_on_c, 0, 72, 75
1, 19080, Note_on_c, 0, 72, 0
1, 19080, Note_on_c, 0, 73, 75
1, 19101, Note_on_c, 0, 73, 0
1, 19101, Note_on_c, 1, 51, 0
1, 19104, Note_on_c, 0, 72, 75
1, 19104, Note_on_c, 1, 56, 64
1, 19124, Note_on_c, 0, 72, 0
1, 19149, Note_on_c, 1, 56, 0
1, 19152, Note_on_c, 0, 72, 75
1, 19175, Note_on_c, 0, 72, 0
1, 19176, Note_on_c, 0, 73, 75
1, 19199, Note_on_c, 0, 73, 0
1, 19200, Note_on_c, 0, 75, 75
1, 19220, Note_on_c, 0, 75, 0
1, 19248, Note_on_c, 0, 80, 77
1, 19271, Note_on_c, 0, 80, 0
1, 19272, Note_on_c, 0, 84, 78
1, 19295, Note_on_c, 0, 84, 0
1, 19296, Note_on_c, 0, 82, 80
1, 19319, Note_on_c, 0, 82, 0
1, 19320, Note_on_c, 0, 80, 78
1, 19343, Note_on_c, 0, 80, 0
1, 19344, Note_on_c, 0, 79, 77
1, 19367, Note_on_c, 0, 79, 0
1, 19368, Note_on_c, 0, 77, 76
1, 19391, Note_on_c, 0, 77, 0
1, 19392, Note_on_c, 0, 75, 75
1, 19440, Note_on_c, 1, 60, 64
1, 19485, Note_on_c, 1, 60, 0
1, 19488, Note_on_c, 1, 58, 64
1, 19525, Note_on_c, 0, 75, 0
1, 19533, Note_on_c, 1, 58, 0
1, 19536, Note_on_c, 0, 73, 75
1, 19536, Note_on_c, 1, 56, 64
1, 19559, Note_on_c, 0, 73, 0
1, 19560, Note_on_c, 0, 72, 75
1, 19581, Note_on_c, 1, 56, 0
1, 19583, Note_on_c, 0, 72, 0
1, 19584, Note_on_c, 0, 70, 75
1, 19584, Note_on_c, 1, 61, 64
1, 19607, Note_on_c, 0, 70, 0
1, 19608, Note_on_c, 0, 73, 75
1, 19629, Note_on_c, 1, 61, 0
1, 19631, Note_on_c, 0, 73, 0
1, 19632, Note_on_c, 0, 70, 75
1, 19632, Note_on_c, 1, 58, 64
1, 19655, Note_on_c, 0, 70, 0
1, 19656, Note_on_c, 0, 73, 75
1, 19677, Note_on_c, 1, 58, 0
1, 19679, Note_on_c, 0, 73, 0
1, 19680, Note_on_c, 0, 67, 75
1, 19680, Note_on_c, 1, 63, 64
1, 19725, Note_on_c, 0, 67, 0
1, 19725, Note_on_c, 1, 63, 0
1, 19728, Note_on_c, 0, 70, 75
1, 19728, Note_on_c, 1, 51, 64
1, 19773, Note_on_c, 0, 70, 0
1, 19773, Note_on_c, 1, 51, 0
1, 19776, Note_on_c, 0, 68, 75
1, 19776, Note_on_c, 1, 56, 64
1, 19821, Note_on_c, 1, 56, 0
1, 19824, Note_on_c, 1, 51, 64
1, 19865, Note_on_c, 0, 68, 0
1, 19869, Note_on_c, 1, 51, 0
1, 19872, Note_on_c, 1, 44, 64
1, 19917, Note_on_c, 1, 44, 0
1, 19920, Note_on_c, 0, 75, 75
1, 19965, Note_on_c, 0, 75, 0
1, 19968, Note_on_c, 0, 77, 75
1, 19991, Note_on_c, 0, 77, 0
1, 19992, Note_on_c, 0, 80, 75
1, 20015, Note_on_c, 0, 80, 0
1, 20016, Note_on_c, 0, 77, 75
1, 20039, Note_on_c, 0, 77, 0
1, 20040, Note_on_c, 0, 75, 75
1, 20063, Note_on_c, 0, 75, 0
1, 20064, Note_on_c, 0, 74, 75
1, 20109, Note_on_c, 0, 74, 0
1, 20112, Note_on_c, 0, 83, 75
1, 20112, Note_on_c, 1, 74, 64
1, 20112, Note_on_c, 1, 68, 64
1, 20132, Note_on_c, 0, 83, 0
1, 20160, Note_on_c, 1, 74, 0
1, 20160, Note_on_c, 1, 68, 0
1, 20160, Note_on_c, 1, 75, 64
1, 20160, Note_on_c, 1, 67, 64
1, 20205, Note_on_c, 1, 75, 0
1, 20205, Note_on_c, 1, 67, 0
1, 20208, Note_on_c, 0, 82, 75
1, 20231, Note_on_c, 0, 82, 0
1, 20232, Note_on_c, 0, 79, 75
1, 20255, Note_on_c, 0, 79, 0
1, 20256, Note_on_c, 0, 75, 75
1, 20276, Note_on_c, 0, 75, 0
1, 20304, Note_on_c, 0, 72, 75
1, 20352, Note_on_c, 0, 72, 0
1, 20352, Note_on_c, 0, 73, 75
1, 20375, Note_on_c, 0, 73, 0
1, 20376, Note_on_c, 0, 77, 75
1, 20399, Note_on_c, 0, 77, 0
1, 20400, Note_on_c, 0, 73, 75
1, 20423, Note_on_c, 0, 73, 0
1, 20424, Note_on_c, 0, 72, 75
1, 20447, Note_on_c, 0, 72, 0
1, 20448, Note_on_c, 0, 71, 75
1, 20493, Note_on_c, 0, 71, 0
1, 20496, Note_on_c, 0, 80, 75
1, 20496, Note_on_c, 1, 71, 64
1, 20496, Note_on_c, 1, 65, 64
1, 20516, Note_on_c, 0, 80, 0
1, 20544, Note_on_c, 1, 71, 0
1, 20544, Note_on_c, 1, 65, 0
1, 20544, Note_on_c, 1, 72, 64
1, 20544, Note_on_c, 1, 63, 64
1, 20589, Note_on_c, 1, 72, 0
1, 20589, Note_on_c, 1, 63, 0
1, 20592, Note_on_c, 0, 79, 75
1, 20615, Note_on_c, 0, 79, 0
1, 20616, Note_on_c, 0, 75, 75
1, 20639, Note_on_c, 0, 75, 0
1, 20640, Note_on_c, 0, 72, 75
1, 20660, Note_on_c, 0, 72, 0
1, 20688, Note_on_c, 0, 68, 75
1, 20736, Note_on_c, 0, 68, 0
1, 20736, Note_on_c, 0, 70, 75
1, 20759, Note_on_c, 0, 70, 0
1, 20760, Note_on_c, 0, 73, 75
1, 20783, Note_on_c, 0, 73, 0
1, 20784, Note_on_c, 0, 70, 75
1, 20807, Note_on_c, 0, 70, 0
1, 20808, Note_on_c, 0, 68, 75
1, 20831, Note_on_c, 0, 68, 0
1, 20832, Note_on_c, 0, 67, 75
1, 20877, Note_on_c, 0, 67, 0
1, 20880, Note_on_c, 0, 77, 75
1, 20880, Note_on_c, 1, 67, 64
1, 20880, Note_on_c, 1, 61, 64
1, 20900, Note_on_c, 0, 77, 0
1, 20928, Note_on_c, 1, 67, 0
1, 20928, Note_on_c, 1, 61, 0
1, 20928, Note_on_c, 1, 68, 64
1, 20928, Note_on_c, 1, 60, 64
1, 20973, Note_on_c, 1, 68, 0
1, 20973, Note_on_c, 1, 60, 0
1, 20976, Note_on_c, 0, 75, 75
1, 20999, Note_on_c, 0, 75, 0
1, 21000, Note_on_c, 0, 72, 75
1, 21023, Note_on_c, 0, 72, 0
1, 21024, Note_on_c, 0, 68, 75
1, 21069, Note_on_c, 0, 68, 0
1, 21072, Note_on_c, 0, 75, 75
1, 21117, Note_on_c, 0, 75, 0
1, 21120, Note_on_c, 1, 68, 64
1, 21120, Note_on_c, 1, 58, 64
1, 21168, Note_on_c, 0, 74, 75
1, 21191, Note_on_c, 0, 74, 0
1, 21192, Note_on_c, 0, 77, 75
1, 21209, Note_on_c, 1, 68, 0
1, 21209, Note_on_c, 1, 58, 0
1, 21215, Note_on_c, 0, 77, 0
1, 21216, Note_on_c, 0, 80, 75
1, 21261, Note_on_c, 0, 80, 0
1, 21264, Note_on_c, 0, 74, 75
1, 21309, Note_on_c, 0, 74, 0
1, 21312, Note_on_c, 1, 67, 64
1, 21312, Note_on_c, 1, 63, 64
1, 21360, Note_on_c, 0, 75, 76
1, 21383, Note_on_c, 0, 75, 0
1, 21384, Note_on_c, 0, 79, 77
1, 21401, Note_on_c, 1, 67, 0
1, 21401, Note_on_c, 1, 63, 0
1, 21407, Note_on_c, 0, 79, 0
1, 21408, Note_on_c, 0, 82, 77
1, 21453, Note_on_c, 0, 82, 0
1, 21456, Note_on_c, 0, 75, 77
1, 21501, Note_on_c, 0, 75, 0
1, 21504, Note_on_c, 1, 68, 64
1, 21504, Note_on_c, 1, 58, 64
1, 21552, Note_on_c, 0, 74, 78
1, 21575, Note_on_c, 0, 74, 0
1, 21576, Note_on_c, 0, 77, 78
1, 21593, Note_on_c, 1, 68, 0
1, 21593, Note_on_c, 1, 58, 0
1, 21599, Note_on_c, 0, 77, 0
1, 21600, Note_on_c, 0, 80, 79
1, 21645, Note_on_c, 0, 80, 0
1, 21648, Note_on_c, 0, 74, 79
1, 21693, Note_on_c, 0, 74, 0
1, 21696, Note_on_c, 0, 77, 80
1, 21888, Note_on_c, 0, 77, 0
1, 21888, Note_on_c, 0, 75, 80
1, 21888, Note_on_c, 1, 39, 64
1, 22125, Note_on_c, 0, 75, 0
1, 22125, Note_on_c, 1, 39, 0
1, 22224, Note_on_c, 0, 72, 75
1, 22247, Note_on_c, 0, 72, 0
1, 22248, Note_on_c, 0, 73, 75
1, 22271, Note_on_c, 0, 73, 0
1, 22272, Note_on_c, 0, 75, 75
1, 22292, Note_on_c, 0, 75, 0
1, 22320, Note_on_c, 0, 80, 77
1, 22343, Note_on_c, 0, 80, 0
1, 22344, Note_on_c, 0, 84, 78
1, 22367, Note_on_c, 0, 84, 0
1, 22368, Note_on_c, 0, 82, 80
1, 22391, Note_on_c, 0, 82, 0
1, 22392, Note_on_c, 0, 80, 78
1, 22415, Note_on_c, 0, 80, 0
1, 22416, Note_on_c, 0, 79, 77
1, 22439, Note_on_c, 0, 79, 0
1, 22440, Note_on_c, 0, 77, 76
1, 22463, Note_on_c, 0, 77, 0
1, 22464, Note_on_c, 0, 75, 75
1, 22512, Note_on_c, 1, 60, 64
1, 22557, Note_on_c, 1, 60, 0
1, 22560, Note_on_c, 1, 58, 64
1, 22597, Note_on_c, 0, 75, 0
1, 22605, Note_on_c, 1, 58, 0
1, 22608, Note_on_c, 0, 73, 75
1, 22608, Note_on_c, 1, 56, 64
1, 22631, Note_on_c, 0, 73, 0
1, 22632, Note_on_c, 0, 72, 75
1, 22653, Note_on_c, 1, 56, 0
1, 22655, Note_on_c, 0, 72, 0
1, 22656, Note_on_c, 0, 70, 75
1, 22656, Note_on_c, 1, 55, 64
1, 22679, Note_on_c, 0, 70, 0
1, 22680, Note_on_c, 0, 75, 75
1, 22701, Note_on_c, 1, 55, 0
1, 22703, Note_on_c, 0, 75, 0
1, 22704, Note_on_c, 0, 70, 75
1, 22704, Note_on_c, 1, 51, 64
1, 22727, Note_on_c, 0, 70, 0
1, 22728, Note_on_c, 0, 75, 75
1, 22749, Note_on_c, 1, 51, 0
1, 22751, Note_on_c, 0, 75, 0
1, 22752, Note_on_c, 0, 72, 75
1, 22752, Note_on_c, 1, 56, 64
1, 22775, Note_on_c, 0, 72, 0
1, 22776, Note_on_c, 0, 75, 75
1, 22797, Note_on_c, 1, 56, 0
1, 22799, Note_on_c, 0, 75, 0
1, 22800, Note_on_c, 0, 72, 75
1, 22800, Note_on_c, 1, 51, 64
1, 22823, Note_on_c, 0, 72, 0
1, 22824, Note_on_c, 0, 75, 75
1, 22845, Note_on_c, 1, 51, 0
1, 22847, Note_on_c, 0, 75, 0
1, 22848, Note_on_c, 0, 75, 75
1, 22848, Note_on_c, 1, 58, 64
1, 22893, Note_on_c, 0, 75, 0
1, 22893, Note_on_c, 1, 58, 0
1, 22896, Note_on_c, 0, 73, 75
1, 22896, Note_on_c, 1, 51, 64
1, 22908, Note_on_c, 0, 73, 0
1, 22908, Note_on_c, 0, 72, 75
1, 22920, Note_on_c, 0, 72, 0
1, 22920, Note_on_c, 0, 73, 75
1, 22941, Note_on_c, 0, 73, 0
1, 22941, Note_on_c, 1, 51, 0
1, 22944, Note_on_c, 0, 72, 75
1, 22944, Note_on_c, 1, 56, 64
1, 22964, Note_on_c, 0, 72, 0
1, 22989, Note_on_c, 1, 56, 0
1, 22992, Note_on_c, 0, 72, 75
1, 23015, Note_on_c, 0, 72, 0
1, 23016, Note_on_c, 0, 73, 75
1, 23039, Note_on_c, 0, 73, 0
1, 23040, Note_on_c, 0, 75, 75
1, 23060, Note_on_c, 0, 75, 0
1, 23088, Note_on_c, 0, 80, 77
1, 23111, Note_on_c, 0, 80, 0
1, 23112, Note_on_c, 0, 84, 78
1, 23135, Note_on_c, 0, 84, 0
1, 23136, Note_on_c, 0, 82, 80
1, 23159, Note_on_c, 0, 82, 0
1, 23160, Note_on_c, 0, 80, 78
1, 23183, Note_on_c, 0, 80, 0
1, 23184, Note_on_c, 0, 79, 77
1, 23207, Note_on_c, 0, 79, 0
1, 23208, Note_on_c, 0, 77, 76
1, 23231, Note_on_c, 0, 77, 0
1, 23232, Note_on_c, 0, 75, 75
1, 23280, Note_on_c, 1, 60, 64
1, 23325, Note_on_c, 1, 60, 0
1, 23328, Note_on_c, 1, 58, 64
1, 23365, Note_on_c, 0, 75, 0
1, 23373, Note_on_c, 1, 58, 0
1, 23376, Note_on_c, 0, 73, 75
1, 23376, Note_on_c, 1, 56, 64
1, 23399, Note_on_c, 0, 73, 0
1, 23400, Note_on_c, 0, 72, 75
1, 23421, Note_on_c, 1, 56, 0
1, 23423, Note_on_c, 0, 72, 0
1, 23424, Note_on_c, 0, 70, 75
1, 23424, Note_on_c, 1, 61, 64
1, 23447, Note_on_c, 0, 70, 0
1, 23448, Note_on_c, 0, 73, 75
1, 23469, Note_on_c, 1, 61, 0
1, 23471, Note_on_c, 0, 73, 0
1, 23472, Note_on_c, 0, 70, 75
1, 23472, Note_on_c, 1, 58, 64
1, 23495, Note_on_c, 0, 70, 0
1, 23496, Note_on_c, 0, 73, 75
1, 23517, Note_on_c, 1, 58, 0
1, 23519, Note_on_c, 0, 73, 0
1, 23520, Note_on_c, 0, 67, 75
1, 23520, Note_on_c, 1, 63, 64
1, 23565, Note_on_c, 0, 67, 0
1, 23565, Note_on_c, 1, 63, 0
1, 23568, Note_on_c, 0, 70, 75
1, 23568, Note_on_c, 1, 51, 64
1, 23613, Note_on_c, 0, 70, 0
1, 23613, Note_on_c, 1, 51, 0
1, 23616, Note_on_c, 0, 68, 75
1, 23616, Note_on_c, 1, 56, 64
1, 23661, Note_on_c, 1, 56, 0
1, 23664, Note_on_c, 1, 51, 64
1, 23705, Note_on_c, 0, 68, 0
1, 23709, Note_on_c, 1, 51, 0
1, 23712, Note_on_c, 1, 44, 64
1, 23757, Note_on_c, 1, 44, 0
1, 23760, Note_on_c, 0, 75, 75
1, 23805, Note_on_c, 0, 75, 0
1, 23808, Note_on_c, 0, 77, 75
1, 23831, Note_on_c, 0, 77, 0
1, 23832, Note_on_c, 0, 80, 75
1, 23855, Note_on_c, 0, 80, 0
1, 23856, Note_on_c, 0, 77, 75
1, 23879, Note_on_c, 0, 77, 0
1, 23880, Note_on_c, 0, 75, 75
1, 23903, Note_on_c, 0, 75, 0
1, 23904, Note_on_c, 0, 74, 75
1, 23949, Note_on_c, 0, 74, 0
1, 23952, Note_on_c, 0, 83, 75
1, 23952, Note_on_c, 1, 74, 64
1, 23952, Note_on_c, 1, 68, 64
1, 23972, Note_on_c, 0, 83, 0
1, 24000, Note_on_c, 1, 74, 0
1, 24000, Note_on_c, 1, 68, 0
1, 24000, Note_on_c, 1, 75, 64
1, 24000, Note_on_c, 1, 67, 64
1, 24045, Note_on_c, 1, 75, 0
1, 24045, Note_on_c, 1, 67, 0
1, 24048, Note_on_c, 0, 82, 75
1, 24071, Note_on_c, 0, 82, 0
1, 24072, Note_on_c, 0, 79, 75
1, 24095, Note_on_c, 0, 79, 0
1, 24096, Note_on_c, 0, 75, 75
1, 24116, Note_on_c, 0, 75, 0
1, 24144, Note_on_c, 0, 72, 75
1, 24192, Note_on_c, 0, 72, 0
1, 24192, Note_on_c, 0, 73, 75
1, 24215, Note_on_c, 0, 73, 0
1, 24216, Note_on_c, 0, 77, 75
1, 24239, Note_on_c, 0, 77, 0
1, 24240, Note_on_c, 0, 73, 75
1, 24263, Note_on_c, 0, 73, 0
1, 24264, Note_on_c, 0, 72, 75
1, 24287, Note_on_c, 0, 72, 0
1, 24288, Note_on_c, 0, 71, 75
1, 24333, Note_on_c, 0, 71, 0
1, 24336, Note_on_c, 0, 80, 75
1, 24336, Note_on_c, 1, 71, 64
1, 24336, Note_on_c, 1, 65, 64
1, 24356, Note_on_c, 0, 80, 0
1, 24384, Note_on_c, 1, 71, 0
1, 24384, Note_on_c, 1, 65, 0
1, 24384, Note_on_c, 1, 72, 64
1, 24384, Note_on_c, 1, 63, 64
1, 24429, Note_on_c, 1, 72, 0
1, 24429, Note_on_c, 1, 63, 0
1, 24432, Note_on_c, 0, 79, 75
1, 24455, Note_on_c, 0, 79, 0
1, 24456, Note_on_c, 0, 75, 75
1, 24479, Note_on_c, 0, 75, 0
1, 24480, Note_on_c, 0, 72, 75
1, 24500, Note_on_c, 0, 72, 0
1, 24528, Note_on_c, 0, 68, 75
1, 24576, Note_on_c, 0, 68, 0
1, 24576, Note_on_c, 0, 70, 75
1, 24599, Note_on_c, 0, 70, 0
1, 24600, Note_on_c, 0, 73, 75
1, 24623, Note_on_c, 0, 73, 0
1, 24624, Note_on_c, 0, 70, 75
1, 24647, Note_on_c, 0, 70, 0
1, 24648, Note_on_c, 0, 68, 75
1, 24671, Note_on_c, 0, 68, 0
1, 24672, Note_on_c, 0, 67, 75
1, 24717, Note_on_c, 0, 67, 0
1, 24720, Note_on_c, 0, 77, 75
1, 24720, Note_on_c, 1, 67, 64
1, 24720, Note_on_c, 1, 61, 64
1, 24740, Note_on_c, 0, 77, 0
1, 24768, Note_on_c, 1, 67, 0
1, 24768, Note_on_c, 1, 61, 0
1, 24768, Note_on_c, 1, 68, 64
1, 24768, Note_on_c, 1, 60, 64
1, 24813, Note_on_c, 1, 68, 0
1, 24813, Note_on_c, 1, 60, 0
1, 24816, Note_on_c, 0, 75, 75
1, 24839, Note_on_c, 0, 75, 0
1, 24840, Note_on_c, 0, 72, 75
1, 24863, Note_on_c, 0, 72, 0
1, 24864, Note_on_c, 0, 68, 75
1, 24909, Note_on_c, 0, 68, 0
1, 24912, Note_on_c, 0, 75, 75
1, 24957, Note_on_c, 0, 75, 0
1, 24960, Note_on_c, 1, 68, 64
1, 24960, Note_on_c, 1, 58, 64
1, 25008, Note_on_c, 0, 74, 75
1, 25031, Note_on_c, 0, 74, 0
1, 25032, Note_on_c, 0, 77, 75
1, 25049, Note_on_c, 1, 68, 0
1, 25049, Note_on_c, 1, 58, 0
1, 25055, Note_on_c, 0, 77, 0
1, 25056, Note_on_c, 0, 80, 75
1, 25101, Note_on_c, 0, 80, 0
1, 25104, Note_on_c, 0, 74, 75
1, 25149, Note_on_c, 0, 74, 0
1, 25152, Note_on_c, 1, 67, 64
1, 25152, Note_on_c, 1, 63, 64
1, 25200, Note_on_c, 0, 75, 76
1, 25223, Note_on_c, 0, 75, 0
1, 25224, Note_on_c, 0, 79, 77
1, 25241, Note_on_c, 1, 67, 0
1, 25241, Note_on_c, 1, 63, 0
1, 25247, Note_on_c, 0, 79, 0
1, 25248, Note_on_c, 0, 82, 77
1, 25293, Note_on_c, 0, 82, 0
1, 25296, Note_on_c, 0, 75, 77
1, 25341, Note_on_c, 0, 75, 0
1, 25344, Note_on_c, 1, 68, 64
1, 25344, Note_on_c, 1, 58, 64
1, 25392, Note_on_c, 0, 74, 78
1, 25415, Note_on_c, 0, 74, 0
1, 25416, Note_on_c, 0, 77, 78
1, 25433, Note_on_c, 1, 68, 0
1, 25433, Note_on_c, 1, 58, 0
1, 25439, Note_on_c, 0, 77, 0
1, 25440, Note_on_c, 0, 80, 79
1, 25485, Note_on_c, 0, 80, 0
1, 25488, Note_on_c, 0, 74, 79
1, 25533, Note_on_c, 0, 74, 0
1, 25536, Note_on_c, 0, 77, 80
1, 25728, Note_on_c, 0, 77, 0
1, 25728, Note_on_c, 0, 75, 80
1, 25728, Note_on_c, 1, 39, 64
1, 25965, Note_on_c, 0, 75, 0
1, 25965, Note_on_c, 1, 39, 0
1, 26064, Note_on_c, 0, 72, 75
1, 26087, Note_on_c, 0, 72, 0
1, 26088, Note_on_c, 0, 73, 75
1, 26111, Note_on_c, 0, 73, 0
1, 26112, Note_on_c, 0, 75, 75
1, 26132, Note_on_c, 0, 75, 0
1, 26160, Note_on_c, 0, 80, 77
1, 26183, Note_on_c, 0, 80, 0
1, 26184, Note_on_c, 0, 84, 78
1, 26207, Note_on_c, 0, 84, 0
1, 26208, Note_on_c, 0, 82, 80
1, 26231, Note_on_c, 0, 82, 0
1, 26232, Note_on_c, 0, 80, 78
1, 26255, Note_on_c, 0, 80, 0
1, 26256, Note_on_c, 0, 79, 77
1, 26279, Note_on_c, 0, 79, 0
1, 26280, Note_on_c, 0, 77, 76
1, 26303, Note_on_c, 0, 77, 0
1, 26304, Note_on_c, 0, 75, 75
1, 26352, Note_on_c, 1, 60, 64
1, 26397, Note_on_c, 1, 60, 0
1, 26400, Note_on_c, 1, 58, 64
1, 26437, Note_on_c, 0, 75, 0
1, 26445, Note_on_c, 1, 58, 0
1, 26448, Note_on_c, 0, 73, 75
1, 26448, Note_on_c, 1, 56, 64
1, 26471, Note_on_c, 0, 73, 0
1, 26472, Note_on_c, 0, 72, 75
1, 26493, Note_on_c, 1, 56, 0
1, 26495, Note_on_c, 0, 72, 0
1, 26496, Note_on_c, 0, 70, 75
1, 26496, Note_on_c, 1, 55, 64
1, 26519, Note_on_c, 0, 70, 0
1, 26520, Note_on_c, 0, 75, 75
1, 26541, Note_on_c, 1, 55, 0
1, 26543, Note_on_c, 0, 75, 0
1, 26544, Note_on_c, 0, 70, 75
1, 26544, Note_on_c, 1, 51, 64
1, 26567, Note_on_c, 0, 70, 0
1, 26568, Note_on_c, 0, 75, 75
1, 26589, Note_on_c, 1, 51, 0
1, 26591, Note_on_c, 0, 75, 0
1, 26592, Note_on_c, 0, 72, 75
1, 26592, Note_on_c, 1, 56, 64
1, 26615, Note_on_c, 0, 72, 0
1, 26616, Note_on_c, 0, 75, 75
1, 26637, Note_on_c, 1, 56, 0
1, 26639, Note_on_c, 0, 75, 0
1, 26640, Note_on_c, 0, 72, 75
1, 26640, Note_on_c, 1, 51, 64
1, 26663, Note_on_c, 0, 72, 0
1, 26664, Note_on_c, 0, 75, 75
1, 26685, Note_on_c, 1, 51, 0
1, 26687, Note_on_c, 0, 75, 0
1, 26688, Note_on_c, 0, 75, 75
1, 26688, Note_on_c, 1, 58, 64
1, 26733, Note_on_c, 0, 75, 0
1, 26733, Note_on_c, 1, 58, 0
1, 26736, Note_on_c, 0, 73, 75
1, 26736, Note_on_c, 1, 51, 64
1, 26748, Note_on_c, 0, 73, 0
1, 26748, Note_on_c, 0, 72, 75
1, 26760, Note_on_c, 0, 72, 0
1, 26760, Note_on_c, 0, 73, 75
1, 26781, Note_on_c, 0, 73, 0
1, 26781, Note_on_c, 1, 51, 0
1, 26784, Note_on_c, 0, 72, 75
1, 26784, Note_on_c, 1, 56, 64
1, 26804, Note_on_c, 0, 72, 0
1, 26829, Note_on_c, 1, 56, 0
1, 26832, Note_on_c, 0, 72, 75
1, 26855, Note_on_c, 0, 72, 0
1, 26856, Note_on_c, 0, 73, 75
1, 26879, Note_on_c, 0, 73, 0
1, 26880, Note_on_c, 0, 75, 75
1, 26900, Note_on_c, 0, 75, 0
1, 26928, Note_on_c, 0, 80, 77
1, 26951, Note_on_c, 0, 80, 0
1, 26952, Note_on_c, 0, 84, 78
1, 26975, Note_on_c, 0, 84, 0
1, 26976, Note_on_c, 0, 82, 80
1, 26999, Note_on_c, 0, 82, 0
1, 27000, Note_on_c, 0, 80, 78
1, 27023, Note_on_c, 0, 80, 0
1, 27024, Note_on_c, 0, 79, 77
1, 27047, Note_on_c, 0, 79, 0
1, 27048, Note_on_c, 0, 77, 76
1, 27071, Note_on_c, 0, 77, 0
1, 27072, Note_on_c, 0, 75, 75
1, 27120, Note_on_c, 1, 60, 64
1, 27165, Note_on_c, 1, 60, 0
1, 27168, Note_on_c, 1, 58, 64
1, 27205, Note_on_c, 0, 75, 0
1, 27213, Note_on_c, 1, 58, 0
1, 27216, Note_on_c, 0, 73, 75
1, 27216, Note_on_c, 1, 56, 64
1, 27239, Note_on_c, 0, 73, 0
1, 27240, Note_on_c, 0, 72, 75
1, 27261, Note_on_c, 1, 56, 0
1, 27263, Note_on_c, 0, 72, 0
1, 27264, Note_on_c, 0, 70, 75
1, 27264, Note_on_c, 1, 61, 64
1, 27287, Note_on_c, 0, 70, 0
1, 27288, Note_on_c, 0, 73, 75
1, 27309, Note_on_c, 1, 61, 0
1, 27311, Note_on_c, 0, 73, 0
1, 27312, Note_on_c, 0, 70, 75
1, 27312, Note_on_c, 1, 58, 64
1, 27335, Note_on_c, 0, 70, 0
1, 27336, Note_on_c, 0, 73, 75
1, 27357, Note_on_c, 1, 58, 0
1, 27359, Note_on_c, 0, 73, 0
1, 27360, Note_on_c, 0, 67, 75
1, 27360, Note_on_c, 1, 63, 64
1, 27405, Note_on_c, 0, 67, 0
1, 27405, Note_on_c, 1, 63, 0
1, 27408, Note_on_c, 0, 70, 75
1, 27408, Note_on_c, 1, 51, 64
1, 27453, Note_on_c, 0, 70, 0
1, 27453, Note_on_c, 1, 51, 0
1, 27456, Note_on_c, 0, 68, 75
1, 27456, Note_on_c, 1, 56, 64
1, 27501, Note_on_c, 1, 56, 0
1, 27504, Note_on_c, 1, 51, 64
1, 27545, Note_on_c, 0, 68, 0
1, 27549, Note_on_c, 1, 51, 0
1, 27552, Note_on_c, 1, 44, 64
1, 27597, Note_on_c, 1, 44, 0
1, 27600, Note_on_c, 0, 72, 75
1, 27645, Note_on_c, 0, 72, 0
1, 27648, Note_on_c, 0, 77, 75
1, 27648, Note_on_c, 1, 68, 64
1, 27671, Note_on_c, 0, 77, 0
1, 27672, Note_on_c, 0, 72, 75
1, 27693, Note_on_c, 1, 68, 0
1, 27695, Note_on_c, 0, 72, 0
1, 27696, Note_on_c, 0, 76, 75
1, 27696, Note_on_c, 1, 67, 64
1, 27719, Note_on_c, 0, 76, 0
1, 27720, Note_on_c, 0, 72, 75
1, 27741, Note_on_c, 1, 67, 0
1, 27743, Note_on_c, 0, 72, 0
1, 27744, Note_on_c, 0, 77, 75
1, 27744, Note_on_c, 1, 68, 64
1, 27767, Note_on_c, 0, 77, 0
1, 27768, Note_on_c, 0, 72, 75
1, 27789, Note_on_c, 1, 68, 0
1, 27791, Note_on_c, 0, 72, 0
1, 27792, Note_on_c, 0, 80, 75
1, 27792, Note_on_c, 1, 65, 64
1, 27815, Note_on_c, 0, 80, 0
1, 27816, Note_on_c, 0, 72, 75
1, 27837, Note_on_c, 1, 65, 0
1, 27839, Note_on_c, 0, 72, 0
1, 27840, Note_on_c, 0, 79, 75
1, 27840, Note_on_c, 1, 64, 64
1, 27863, Note_on_c, 0, 79, 0
1, 27864, Note_on_c, 0, 72, 75
1, 27887, Note_on_c, 0, 72, 0
1, 27888, Note_on_c, 0, 83, 75
1, 27911, Note_on_c, 0, 83, 0
1, 27912, Note_on_c, 0, 72, 75
1, 27929, Note_on_c, 1, 64, 0
1, 27935, Note_on_c, 0, 72, 0
1, 27936, Note_on_c, 0, 84, 75
1, 27959, Note_on_c, 0, 84, 0
1, 27960, Note_on_c, 0, 72, 75
1, 27983, Note_on_c, 0, 72, 0
1, 27984, Note_on_c, 0, 82, 75
1, 28007, Note_on_c, 0, 82, 0
1, 28008, Note_on_c, 0, 72, 75
1, 28031, Note_on_c, 0, 72, 0
1, 28032, Note_on_c, 0, 80, 75
1, 28032, Note_on_c, 1, 65, 64
1, 28055, Note_on_c, 0, 80, 0
1, 28056, Note_on_c, 0, 72, 75
1, 28077, Note_on_c, 1, 65, 0
1, 28079, Note_on_c, 0, 72, 0
1, 28080, Note_on_c, 0, 79, 75
1, 28080, Note_on_c, 1, 67, 64
1, 28103, Note_on_c, 0, 79, 0
1, 28104, Note_on_c, 0, 72, 75
1, 28125, Note_on_c, 1, 67, 0
1, 28127, Note_on_c, 0, 72, 0
1, 28128, Note_on_c, 0, 77, 75
1, 28128, Note_on_c, 1, 68, 64
1, 28151, Note_on_c, 0, 77, 0
1, 28152, Note_on_c, 0, 72, 75
1, 28173, Note_on_c, 1, 68, 0
1, 28175, Note_on_c, 0, 72, 0
1, 28176, Note_on_c, 0, 79, 75
1, 28199, Note_on_c, 0, 79, 0
1, 28200, Note_on_c, 0, 72, 75
1, 28223, Note_on_c, 0, 72, 0
1, 28224, Note_on_c, 0, 76, 75
1, 28224, Note_on_c, 1, 60, 64
1, 28247, Note_on_c, 0, 76, 0
1, 28248, Note_on_c, 0, 72, 75
1, 28269, Note_on_c, 1, 60, 0
1, 28271, Note_on_c, 0, 72, 0
1, 28272, Note_on_c, 0, 77, 75
1, 28272, Note_on_c, 1, 62, 64
1, 28295, Note_on_c, 0, 77, 0
1, 28296, Note_on_c, 0, 72, 75
1, 28317, Note_on_c, 1, 62, 0
1, 28319, Note_on_c, 0, 72, 0
1, 28320, Note_on_c, 0, 79, 75
1, 28320, Note_on_c, 1, 64, 64
1, 28365, Note_on_c, 0, 79, 0
1, 28365, Note_on_c, 1, 64, 0
1, 28368, Note_on_c, 0, 72, 75
1, 28391, Note_on_c, 0, 72, 0
1, 28392, Note_on_c, 0, 84, 75
1, 28415, Note_on_c, 0, 84, 0
1, 28416, Note_on_c, 0, 85, 75
1, 28439, Note_on_c, 0, 85, 0
1, 28440, Note_on_c, 0, 73, 75
1, 28463, Note_on_c, 0, 73, 0
1, 28464, Note_on_c, 0, 84, 75
1, 28487, Note_on_c, 0, 84, 0
1, 28488, Note_on_c, 0, 72, 75
1, 28511, Note_on_c, 0, 72, 0
1, 28512, Note_on_c, 0, 82, 75
1, 28535, Note_on_c, 0, 82, 0
1, 28536, Note_on_c, 0, 70, 75
1, 28559, Note_on_c, 0, 70, 0
1, 28560, Note_on_c, 0, 80, 75
1, 28583, Note_on_c, 0, 80, 0
1, 28584, Note_on_c, 0, 68, 75
1, 28607, Note_on_c, 0, 68, 0
1, 28608, Note_on_c, 0, 79, 75
1, 28608, Note_on_c, 1, 60, 64
1, 28608, Note_on_c, 1, 55, 64
1, 28608, Note_on_c, 1, 52, 64
1, 28631, Note_on_c, 0, 79, 0
1, 28632, Note_on_c, 0, 67, 75
1, 28655, Note_on_c, 0, 67, 0
1, 28656, Note_on_c, 0, 83, 75
1, 28679, Note_on_c, 0, 83, 0
1, 28680, Note_on_c, 0, 71, 75
1, 28703, Note_on_c, 0, 71, 0
1, 28704, Note_on_c, 0, 84, 75
1, 28727, Note_on_c, 0, 84, 0
1, 28728, Note_on_c, 0, 72, 75
1, 28751, Note_on_c, 0, 72, 0
1, 28752, Note_on_c, 0, 82, 75
1, 28775, Note_on_c, 0, 82, 0
1, 28776, Note_on_c, 0, 70, 75
1, 28785, Note_on_c, 1, 60, 0
1, 28785, Note_on_c, 1, 55, 0
1, 28785, Note_on_c, 1, 52, 0
1, 28799, Note_on_c, 0, 70, 0
1, 28800, Note_on_c, 0, 80, 75
1, 28800, Note_on_c, 1, 60, 64
1, 28800, Note_on_c, 1, 53, 64
1, 28823, Note_on_c, 0, 80, 0
1, 28824, Note_on_c, 0, 68, 75
1, 28847, Note_on_c, 0, 68, 0
1, 28848, Note_on_c, 0, 77, 75
1, 28871, Note_on_c, 0, 77, 0
1, 28872, Note_on_c, 0, 65, 75
1, 28889, Note_on_c, 1, 60, 0
1, 28889, Note_on_c, 1, 53, 0
1, 28895, Note_on_c, 0, 65, 0
1, 28896, Note_on_c, 0, 79, 75
1, 28896, Note_on_c, 1, 60, 64
1, 28896, Note_on_c, 1, 48, 64
1, 28919, Note_on_c, 0, 79, 0
1, 28920, Note_on_c, 0, 67, 75
1, 28943, Note_on_c, 0, 67, 0
1, 28944, Note_on_c, 0, 76, 75
1, 28967, Note_on_c, 0, 76, 0
1, 28968, Note_on_c, 0, 64, 75
1, 28985, Note_on_c, 1, 60, 0
1, 28985, Note_on_c, 1, 48, 0
1, 28991, Note_on_c, 0, 64, 0
1, 28992, Note_on_c, 0, 65, 75
1, 28992, Note_on_c, 1, 53, 64
1, 28992, Note_on_c, 1, 41, 64
1, 29015, Note_on_c, 0, 65, 0
1, 29016, Note_on_c, 0, 77, 75
1, 29081, Note_on_c, 1, 53, 0
1, 29081, Note_on_c, 1, 41, 0
1, 29083, Note_on_c, 0, 77, 0
1, 29136, Note_on_c, 0, 72, 75
1, 29181, Note_on_c, 0, 72, 0
1, 29184, Note_on_c, 0, 77, 75
1, 29184, Note_on_c, 1, 68, 64
1, 29207, Note_on_c, 0, 77, 0
1, 29208, Note_on_c, 0, 72, 75
1, 29229, Note_on_c, 1, 68, 0
1, 29231, Note_on_c, 0, 72, 0
1, 29232, Note_on_c, 0, 76, 75
1, 29232, Note_on_c, 1, 67, 64
1, 29255, Note_on_c, 0, 76, 0
1, 29256, Note_on_c, 0, 72, 75
1, 29277, Note_on_c, 1, 67, 0
1, 29279, Note_on_c, 0, 72, 0
1, 29280, Note_on_c, 0, 77, 75
1, 29280, Note_on_c, 1, 68, 64
1, 29303, Note_on_c, 0, 77, 0
1, 29304, Note_on_c, 0, 72, 75
1, 29325, Note_on_c, 1, 68, 0
1, 29327, Note_on_c, 0, 72, 0
1, 29328, Note_on_c, 0, 80, 75
1, 29328, Note_on_c, 1, 65, 64
1, 29351, Note_on_c, 0, 80, 0
1, 29352, Note_on_c, 0, 72, 75
1, 29373, Note_on_c, 1, 65, 0
1, 29375, Note_on_c, 0, 72, 0
1, 29376, Note_on_c, 0, 79, 75
1, 29376, Note_on_c, 1, 64, 64
1, 29399, Note_on_c, 0, 79, 0
1, 29400, Note_on_c, 0, 72, 75
1, 29423, Note_on_c, 0, 72, 0
1, 29424, Note_on_c, 0, 83, 75
1, 29447, Note_on_c, 0, 83, 0
1, 29448, Note_on_c, 0, 72, 75
1, 29465, Note_on_c, 1, 64, 0
1, 29471, Note_on_c, 0, 72, 0
1, 29472, Note_on_c, 0, 84, 75
1, 29495, Note_on_c, 0, 84, 0
1, 29496, Note_on_c, 0, 72, 75
1, 29519, Note_on_c, 0, 72, 0
1, 29520, Note_on_c, 0, 82, 75
1, 29543, Note_on_c, 0, 82, 0
1, 29544, Note_on_c, 0, 72, 75
1, 29567, Note_on_c, 0, 72, 0
1, 29568, Note_on_c, 0, 80, 75
1, 29568, Note_on_c, 1, 65, 64
1, 29591, Note_on_c, 0, 80, 0
1, 29592, Note_on_c, 0, 72, 75
1, 29613, Note_on_c, 1, 65, 0
1, 29615, Note_on_c, 0, 72, 0
1, 29616, Note_on_c, 0, 79, 75
1, 29616, Note_on_c, 1, 67, 64
1, 29639, Note_on_c, 0, 79, 0
1, 29640, Note_on_c, 0, 72, 75
1, 29661, Note_on_c, 1, 67, 0
1, 29663, Note_on_c, 0, 72, 0
1, 29664, Note_on_c, 0, 77, 75
1, 29664, Note_on_c, 1, 68, 64
1, 29687, Note_on_c, 0, 77, 0
1, 29688, Note_on_c, 0, 72, 75
1, 29709, Note_on_c, 1, 68, 0
1, 29711, Note_on_c, 0, 72, 0
1, 29712, Note_on_c, 0, 79, 75
1, 29735, Note_on_c, 0, 79, 0
1, 29736, Note_on_c, 0, 72, 75
1, 29759, Note_on_c, 0, 72, 0
1, 29760, Note_on_c, 0, 76, 75
1, 29760, Note_on_c, 1, 60, 64
1, 29783, Note_on_c, 0, 76, 0
1, 29784, Note_on_c, 0, 72, 75
1, 29805, Note_on_c, 1, 60, 0
1, 29807, Note_on_c, 0, 72, 0
1, 29808, Note_on_c, 0, 77, 75
1, 29808, Note_on_c, 1, 62, 64
1, 29831, Note_on_c, 0, 77, 0
1, 29832, Note_on_c, 0, 72, 75
1, 29853, Note_on_c, 1, 62, 0
1, 29855, Note_on_c, 0, 72, 0
1, 29856, Note_on_c, 0, 79, 75
1, 29856, Note_on_c, 1, 64, 64
1, 29901, Note_on_c, 0, 79, 0
1, 29901, Note_on_c, 1, 64, 0
1, 29904, Note_on_c, 0, 72, 75
1, 29927, Note_on_c, 0, 72, 0
1, 29928, Note_on_c, 0, 84, 75
1, 29951, Note_on_c, 0, 84, 0
1, 29952, Note_on_c, 0, 85, 75
1, 29975, Note_on_c, 0, 85, 0
1, 29976, Note_on_c, 0, 73, 75
1, 29999, Note_on_c, 0, 73, 0
1, 30000, Note_on_c, 0, 84, 75
1, 30023, Note_on_c, 0, 84, 0
1, 30024, Note_on_c, 0, 72, 75
1, 30047, Note_on_c, 0, 72, 0
1, 30048, Note_on_c, 0, 82, 75
1, 30071, Note_on_c, 0, 82, 0
1, 30072, Note_on_c, 0, 70, 75
1, 30095, Note_on_c, 0, 70, 0
1, 30096, Note_on_c, 0, 80, 75
1, 30119, Note_on_c, 0, 80, 0
1, 30120, Note_on_c, 0, 68, 75
1, 30143, Note_on_c, 0, 68, 0
1, 30144, Note_on_c, 0, 79, 75
1, 30144, Note_on_c, 1, 60, 64
1, 30144, Note_on_c, 1, 55, 64
1, 30144, Note_on_c, 1, 52, 64
1, 30167, Note_on_c, 0, 79, 0
1, 30168, Note_on_c, 0, 67, 75
1, 30191, Note_on_c, 0, 67, 0
1, 30192, Note_on_c, 0, 83, 75
1, 30215, Note_on_c, 0, 83, 0
1, 30216, Note_on_c, 0, 71, 75
1, 30239, Note_on_c, 0, 71, 0
1, 30240, Note_on_c, 0, 84, 75
1, 30263, Note_on_c, 0, 84, 0
1, 30264, Note_on_c, 0, 72, 75
1, 30287, Note_on_c, 0, 72, 0
1, 30288, Note_on_c, 0, 82, 75
1, 30311, Note_on_c, 0, 82, 0
1, 30312, Note_on_c, 0, 70, 75
1, 30321, Note_on_c, 1, 60, 0
1, 30321, Note_on_c, 1, 55, 0
1, 30321, Note_on_c, 1, 52, 0
1, 30335, Note_on_c, 0, 70, 0
1, 30336, Note_on_c, 0, 80, 75
1, 30336, Note_on_c, 1, 60, 64
1, 30336, Note_on_c, 1, 53, 64
1, 30359, Note_on_c, 0, 80, 0
1, 30360, Note_on_c, 0, 68, 75
1, 30383, Note_on_c, 0, 68, 0
1, 30384, Note_on_c, 0, 77, 75
1, 30407, Note_on_c, 0, 77, 0
1, 30408, Note_on_c, 0, 65, 75
1, 30425, Note_on_c, 1, 60, 0
1, 30425, Note_on_c, 1, 53, 0
1, 30431, Note_on_c, 0, 65, 0
1, 30432, Note_on_c, 0, 79, 75
1, 30432, Note_on_c, 1, 60, 64
1, 30432, Note_on_c, 1, 48, 64
1, 30455, Note_on_c, 0, 79, 0
1, 30456, Note_on_c, 0, 67, 75
1, 30479, Note_on_c, 0, 67, 0
1, 30480, Note_on_c, 0, 76, 75
1, 30503, Note_on_c, 0, 76, 0
1, 30504, Note_on_c, 0, 64, 75
1, 30521, Note_on_c, 1, 60, 0
1, 30521, Note_on_c, 1, 48, 0
1, 30527, Note_on_c, 0, 64, 0
1, 30528, Note_on_c, 0, 65, 75
1, 30528, Note_on_c, 1, 53, 64
1, 30528, Note_on_c, 1, 41, 64
1, 30551, Note_on_c, 0, 65, 0
1, 30552, Note_on_c, 0, 77, 75
1, 30617, Note_on_c, 1, 53, 0
1, 30617, Note_on_c, 1, 41, 0
1, 30619, Note_on_c, 0, 77, 0
1, 30672, Note_on_c, 0, 84, 75
1, 30717, Note_on_c, 0, 84, 0
1, 30720, Note_on_c, 0, 82, 75
1, 30720, Note_on_c, 1, 64, 64
1, 30743, Note_on_c, 1, 64, 0
1, 30744, Note_on_c, 1, 72, 64
1, 30765, Note_on_c, 0, 82, 0
1, 30767, Note_on_c, 1, 72, 0
1, 30768, Note_on_c, 0, 79, 75
1, 30768, Note_on_c, 1, 64, 64
1, 30791, Note_on_c, 1, 64, 0
1, 30792, Note_on_c, 1, 72, 64
1, 30813, Note_on_c, 0, 79, 0
1, 30815, Note_on_c, 1, 72, 0
1, 30816, Note_on_c, 0, 80, 75
1, 30816, Note_on_c, 1, 65, 64
1, 30839, Note_on_c, 1, 65, 0
1, 30840, Note_on_c, 1, 72, 64
1, 30861, Note_on_c, 0, 80, 0
1, 30863, Note_on_c, 1, 72, 0
1, 30864, Note_on_c, 0, 77, 75
1, 30864, Note_on_c, 1, 65, 64
1, 30887, Note_on_c, 1, 65, 0
1, 30888, Note_on_c, 1, 72, 64
1, 30909, Note_on_c, 0, 77, 0
1, 30911, Note_on_c, 1, 72, 0
1, 30912, Note_on_c, 0, 76, 75
1, 30912, Note_on_c, 1, 60, 64
1, 30935, Note_on_c, 1, 60, 0
1, 30936, Note_on_c, 1, 72, 64
1, 30957, Note_on_c, 0, 76, 0
1, 30959, Note_on_c, 1, 72, 0
1, 30960, Note_on_c, 0, 80, 75
1, 30960, Note_on_c, 1, 62, 64
1, 30966, Note_on_c, 0, 80, 0
1, 30966, Note_on_c, 0, 79, 75
1, 30972, Note_on_c, 0, 79, 0
1, 30972, Note_on_c, 0, 77, 75
1, 30978, Note_on_c, 0, 77, 0
1, 30978, Note_on_c, 0, 77, 75
1, 30983, Note_on_c, 1, 62, 0
1, 30984, Note_on_c, 1, 72, 64
1, 31005, Note_on_c, 0, 77, 0
1, 31007, Note_on_c, 1, 72, 0
1, 31008, Note_on_c, 0, 79, 75
1, 31008, Note_on_c, 1, 64, 64
1, 31053, Note_on_c, 0, 79, 0
1, 31053, Note_on_c, 1, 64, 0
1, 31056, Note_on_c, 0, 84, 75
1, 31101, Note_on_c, 0, 84, 0
1, 31104, Note_on_c, 0, 82, 75
1, 31104, Note_on_c, 1, 64, 64
1, 31127, Note_on_c, 1, 64, 0
1, 31128, Note_on_c, 1, 72, 64
1, 31149, Note_on_c, 0, 82, 0
1, 31151, Note_on_c, 1, 72, 0
1, 31152, Note_on_c, 0, 79, 75
1, 31152, Note_on_c, 1, 64, 64
1, 31175, Note_on_c, 1, 64, 0
1, 31176, Note_on_c, 1, 72, 64
1, 31197, Note_on_c, 0, 79, 0
1, 31199, Note_on_c, 1, 72, 0
1, 31200, Note_on_c, 0, 80, 75
1, 31200, Note_on_c, 1, 65, 64
1, 31223, Note_on_c, 1, 65, 0
1, 31224, Note_on_c, 1, 72, 64
1, 31245, Note_on_c, 0, 80, 0
1, 31247, Note_on_c, 1, 72, 0
1, 31248, Note_on_c, 0, 77, 75
1, 31248, Note_on_c, 1, 65, 64
1, 31271, Note_on_c, 1, 65, 0
1, 31272, Note_on_c, 1, 72, 64
1, 31293, Note_on_c, 0, 77, 0
1, 31295, Note_on_c, 1, 72, 0
1, 31296, Note_on_c, 0, 84, 91
1, 31296, Note_on_c, 1, 60, 64
1, 31319, Note_on_c, 1, 60, 0
1, 31320, Note_on_c, 1, 64, 64
1, 31343, Note_on_c, 1, 64, 0
1, 31344, Note_on_c, 1, 67, 64
1, 31367, Note_on_c, 1, 67, 0
1, 31368, Note_on_c, 1, 72, 64
1, 31391, Note_on_c, 1, 72, 0
1, 31392, Note_on_c, 0, 84, 0
1, 31392, Note_on_c, 1, 60, 64
1, 31437, Note_on_c, 1, 60, 0
1, 31440, Note_on_c, 0, 84, 75
1, 31485, Note_on_c, 0, 84, 0
1, 31488, Note_on_c, 0, 82, 75
1, 31488, Note_on_c, 1, 64, 64
1, 31511, Note_on_c, 1, 64, 0
1, 31512, Note_on_c, 1, 72, 64
1, 31533, Note_on_c, 0, 82, 0
1, 31535, Note_on_c, 1, 72, 0
1, 31536, Note_on_c, 0, 79, 75
1, 31536, Note_on_c, 1, 64, 64
1, 31559, Note_on_c, 1, 64, 0
1, 31560, Note_on_c, 1, 72, 64
1, 31581, Note_on_c, 0, 79, 0
1, 31583, Note_on_c, 1, 72, 0
1, 31584, Note_on_c, 0, 80, 75
1, 31584, Note_on_c, 1, 65, 64
1, 31607, Note_on_c, 1, 65, 0
1, 31608, Note_on_c, 1, 72, 64
1, 31629, Note_on_c, 0, 80, 0
1, 31631, Note_on_c, 1, 72, 0
1, 31632, Note_on_c, 0, 77, 75
1, 31632, Note_on_c, 1, 65, 64
1, 31655, Note_on_c, 1, 65, 0
1, 31656, Note_on_c, 1, 72, 64
1, 31677, Note_on_c, 0, 77, 0
1, 31679, Note_on_c, 1, 72, 0
1, 31680, Note_on_c, 0, 76, 75
1, 31680, Note_on_c, 1, 60, 64
1, 31703, Note_on_c, 1, 60, 0
1, 31704, Note_on_c, 1, 72, 64
1, 31725, Note_on_c, 0, 76, 0
1, 31727, Note_on_c, 1, 72, 0
1, 31728, Note_on_c, 0, 80, 75
1, 31728, Note_on_c, 1, 62, 64
1, 31734, Note_on_c, 0, 80, 0
1, 31734, Note_on_c, 0, 79, 75
1, 31740, Note_on_c, 0, 79, 0
1, 31740, Note_on_c, 0, 77, 75
1, 31746, Note_on_c, 0, 77, 0
1, 31746, Note_on_c, 0, 77, 75
1, 31751, Note_on_c, 1, 62, 0
1, 31752, Note_on_c, 1, 72, 64
1, 31773, Note_on_c, 0, 77, 0
1, 31775, Note_on_c, 1, 72, 0
1, 31776, Note_on_c, 0, 79, 75
1, 31776, Note_on_c, 1, 64, 64
1, 31821, Note_on_c, 0, 79, 0
1, 31821, Note_on_c, 1, 64, 0
1, 31824, Note_on_c, 0, 84, 75
1, 31869, Note_on_c, 0, 84, 0
1, 31872, Note_on_c, 0, 82, 75
1, 31872, Note_on_c, 1, 64, 64
1, 31895, Note_on_c, 1, 64, 0
1, 31896, Note_on_c, 1, 72, 64
1, 31917, Note_on_c, 0, 82, 0
1, 31919, Note_on_c, 1, 72, 0
1, 31920, Note_on_c, 0, 79, 75
1, 31920, Note_on_c, 1, 64, 64
1, 31943, Note_on_c, 1, 64, 0
1, 31944, Note_on_c, 1, 72, 64
1, 31965, Note_on_c, 0, 79, 0
1, 31967, Note_on_c, 1, 72, 0
1, 31968, Note_on_c, 0, 80, 75
1, 31968, Note_on_c, 1, 65, 64
1, 31991, Note_on_c, 1, 65, 0
1, 31992, Note_on_c, 1, 72, 64
1, 32013, Note_on_c, 0, 80, 0
1, 32015, Note_on_c, 1, 72, 0
1, 32016, Note_on_c, 0, 77, 75
1, 32016, Note_on_c, 1, 65, 64
1, 32039, Note_on_c, 1, 65, 0
1, 32040, Note_on_c, 1, 72, 64
1, 32061, Note_on_c, 0, 77, 0
1, 32063, Note_on_c, 1, 72, 0
1, 32064, Note_on_c, 0, 84, 91
1, 32064, Note_on_c, 1, 60, 64
1, 32153, Note_on_c, 1, 60, 0
1, 32160, Note_on_c, 0, 84, 0
1, 32208, Note_on_c, 0, 84, 75
1, 32208, Note_on_c, 1, 80, 64
1, 32253, Note_on_c, 0, 84, 0
1, 32253, Note_on_c, 1, 80, 0
1, 32256, Note_on_c, 0, 85, 75
1, 32256, Note_on_c, 1, 82, 64
1, 32301, Note_on_c, 0, 85, 0
1, 32301, Note_on_c, 1, 82, 0
1, 32304, Note_on_c, 0, 84, 75
1, 32304, Note_on_c, 1, 80, 64
1, 32349, Note_on_c, 0, 84, 0
1, 32349, Note_on_c, 1, 80, 0
1, 32352, Note_on_c, 0, 82, 75
1, 32352, Note_on_c, 1, 79, 64
1, 32397, Note_on_c, 0, 82, 0
1, 32397, Note_on_c, 1, 79, 0
1, 32400, Note_on_c, 0, 80, 75
1, 32400, Note_on_c, 1, 77, 64
1, 32445, Note_on_c, 0, 80, 0
1, 32445, Note_on_c, 1, 77, 0
1, 32448, Note_on_c, 0, 79, 75
1, 32448, Note_on_c, 1, 76, 64
1, 32493, Note_on_c, 0, 79, 0
1, 32496, Note_on_c, 0, 83, 75
1, 32537, Note_on_c, 1, 76, 0
1, 32541, Note_on_c, 0, 83, 0
1, 32544, Note_on_c, 0, 84, 75
1, 32589, Note_on_c, 0, 84, 0
1, 32592, Note_on_c, 1, 68, 64
1, 32615, Note_on_c, 1, 68, 0
1, 32616, Note_on_c, 0, 72, 75
1, 32639, Note_on_c, 0, 72, 0
1, 32640, Note_on_c, 1, 70, 64
1, 32663, Note_on_c, 1, 70, 0
1, 32664, Note_on_c, 0, 73, 75
1, 32687, Note_on_c, 0, 73, 0
1, 32688, Note_on_c, 1, 68, 64
1, 32711, Note_on_c, 1, 68, 0
1, 32712, Note_on_c, 0, 72, 75
1, 32735, Note_on_c, 0, 72, 0
1, 32736, Note_on_c, 1, 67, 64
1, 32759, Note_on_c, 1, 67, 0
1, 32760, Note_on_c, 0, 70, 75
1, 32783, Note_on_c, 0, 70, 0
1, 32784, Note_on_c, 1, 65, 64
1, 32807, Note_on_c, 1, 65, 0
1, 32808, Note_on_c, 0, 68, 75
1, 32831, Note_on_c, 0, 68, 0
1, 32832, Note_on_c, 1, 64, 64
1, 32832, Note_on_c, 1, 60, 64
1, 32856, Note_on_c, 0, 67, 75
1, 32879, Note_on_c, 0, 67, 0
1, 32880, Note_on_c, 0, 68, 75
1, 32903, Note_on_c, 0, 68, 0
1, 32904, Note_on_c, 0, 67, 75
1, 32921, Note_on_c, 1, 64, 0
1, 32921, Note_on_c, 1, 60, 0
1, 32927, Note_on_c, 0, 67, 0
1, 32928, Note_on_c, 0, 72, 75
1, 32951, Note_on_c, 0, 72, 0
1, 32952, Note_on_c, 0, 70, 75
1, 32975, Note_on_c, 0, 70, 0
1, 32976, Note_on_c, 0, 68, 75
1, 32999, Note_on_c, 0, 68, 0
1, 33000, Note_on_c, 0, 67, 75
1, 33023, Note_on_c, 0, 67, 0
1, 33024, Note_on_c, 1, 65, 64
1, 33024, Note_on_c, 1, 60, 64
1, 33048, Note_on_c, 0, 68, 75
1, 33071, Note_on_c, 0, 68, 0
1, 33072, Note_on_c, 0, 70, 75
1, 33095, Note_on_c, 0, 70, 0
1, 33096, Note_on_c, 0, 68, 75
1, 33113, Note_on_c, 1, 65, 0
1, 33113, Note_on_c, 1, 60, 0
1, 33119, Note_on_c, 0, 68, 0
1, 33120, Note_on_c, 0, 73, 75
1, 33143, Note_on_c, 0, 73, 0
1, 33144, Note_on_c, 0, 72, 75
1, 33167, Note_on_c, 0, 72, 0
1, 33168, Note_on_c, 0, 70, 75
1, 33191, Note_on_c, 0, 70, 0
1, 33192, Note_on_c, 0, 68, 75
1, 33215, Note_on_c, 0, 68, 0
1, 33216, Note_on_c, 1, 64, 64
1, 33216, Note_on_c, 1, 60, 64
1, 33240, Note_on_c, 0, 67, 75
1, 33263, Note_on_c, 0, 67, 0
1, 33264, Note_on_c, 0, 68, 75
1, 33287, Note_on_c, 0, 68, 0
1, 33288, Note_on_c, 0, 67, 75
1, 33305, Note_on_c, 1, 64, 0
1, 33305, Note_on_c, 1, 60, 0
1, 33311, Note_on_c, 0, 67, 0
1, 33312, Note_on_c, 0, 72, 75
1, 33335, Note_on_c, 0, 72, 0
1, 33336, Note_on_c, 0, 70, 75
1, 33359, Note_on_c, 0, 70, 0
1, 33360, Note_on_c, 0, 68, 75
1, 33383, Note_on_c, 0, 68, 0
1, 33384, Note_on_c, 0, 67, 75
1, 33407, Note_on_c, 0, 67, 0
1, 33408, Note_on_c, 1, 65, 64
1, 33408, Note_on_c, 1, 60, 64
1, 33432, Note_on_c, 0, 68, 75
1, 33455, Note_on_c, 0, 68, 0
1, 33456, Note_on_c, 0, 70, 75
1, 33479, Note_on_c, 0, 70, 0
1, 33480, Note_on_c, 0, 68, 75
1, 33497, Note_on_c, 1, 65, 0
1, 33497, Note_on_c, 1, 60, 0
1, 33503, Note_on_c, 0, 68, 0
1, 33504, Note_on_c, 0, 73, 75
1, 33527, Note_on_c, 0, 73, 0
1, 33528, Note_on_c, 0, 72, 75
1, 33551, Note_on_c, 0, 72, 0
1, 33552, Note_on_c, 0, 70, 75
1, 33575, Note_on_c, 0, 70, 0
1, 33576, Note_on_c, 0, 68, 75
1, 33599, Note_on_c, 0, 68, 0
1, 33600, Note_on_c, 1, 64, 64
1, 33600, Note_on_c, 1, 60, 64
1, 33624, Note_on_c, 0, 67, 75
1, 33647, Note_on_c, 0, 67, 0
1, 33648, Note_on_c, 0, 68, 75
1, 33671, Note_on_c, 0, 68, 0
1, 33672, Note_on_c, 0, 67, 75
1, 33689, Note_on_c, 1, 64, 0
1, 33689, Note_on_c, 1, 60, 0
1, 33695, Note_on_c, 0, 67, 0
1, 33696, Note_on_c, 0, 72, 75
1, 33719, Note_on_c, 0, 72, 0
1, 33720, Note_on_c, 0, 70, 75
1, 33743, Note_on_c, 0, 70, 0
1, 33744, Note_on_c, 0, 68, 75
1, 33767, Note_on_c, 0, 68, 0
1, 33768, Note_on_c, 0, 67, 75
1, 33791, Note_on_c, 0, 67, 0
1, 33792, Note_on_c, 0, 68, 80
1, 33792, Note_on_c, 1, 62, 80
1, 33792, Note_on_c, 1, 59, 80
1, 33815, Note_on_c, 0, 68, 0
1, 33816, Note_on_c, 0, 65, 80
1, 33839, Note_on_c, 0, 65, 0
1, 33840, Note_on_c, 0, 68, 80
1, 33863, Note_on_c, 0, 68, 0
1, 33864, Note_on_c, 0, 71, 80
1, 33881, Note_on_c, 1, 62, 0
1, 33881, Note_on_c, 1, 59, 0
1, 33887, Note_on_c, 0, 71, 0
1, 33888, Note_on_c, 0, 74, 80
1, 33911, Note_on_c, 0, 74, 0
1, 33912, Note_on_c, 0, 71, 80
1, 33935, Note_on_c, 0, 71, 0
1, 33936, Note_on_c, 0, 74, 80
1, 33959, Note_on_c, 0, 74, 0
1, 33960, Note_on_c, 0, 77, 80
1, 33983, Note_on_c, 0, 77, 0
1, 33984, Note_on_c, 0, 80, 80
1, 34007, Note_on_c, 0, 80, 0
1, 34008, Note_on_c, 0, 74, 80
1, 34031, Note_on_c, 0, 74, 0
1, 34032, Note_on_c, 0, 77, 80
1, 34055, Note_on_c, 0, 77, 0
1, 34056, Note_on_c, 0, 80, 80
1, 34079, Note_on_c, 0, 80, 0
1, 34080, Note_on_c, 0, 83, 80
1, 34103, Note_on_c, 0, 83, 0
1, 34104, Note_on_c, 0, 77, 80
1, 34127, Note_on_c, 0, 77, 0
1, 34128, Note_on_c, 0, 80, 80
1, 34151, Note_on_c, 0, 80, 0
1, 34152, Note_on_c, 0, 83, 80
1, 34175, Note_on_c, 0, 83, 0
1, 34176, Note_on_c, 0, 86, 80
1, 34265, Note_on_c, 0, 86, 0
1, 34560, Note_on_c, 1, 46, 96
1, 34560, Note_on_c, 1, 34, 96
1, 34584, Note_on_c, 0, 64, 80
1, 34607, Note_on_c, 0, 64, 0
1, 34608, Note_on_c, 0, 67, 80
1, 34631, Note_on_c, 0, 67, 0
1, 34632, Note_on_c, 0, 70, 80
1, 34655, Note_on_c, 0, 70, 0
1, 34656, Note_on_c, 0, 73, 80
1, 34656, Note_on_c, 1, 46, 0
1, 34656, Note_on_c, 1, 34, 0
1, 34679, Note_on_c, 0, 73, 0
1, 34680, Note_on_c, 0, 64, 80
1, 34703, Note_on_c, 0, 64, 0
1, 34704, Note_on_c, 0, 67, 80
1, 34727, Note_on_c, 0, 67, 0
1, 34728, Note_on_c, 0, 70, 80
1, 34751, Note_on_c, 0, 70, 0
1, 34752, Note_on_c, 0, 73, 80
1, 34775, Note_on_c, 0, 73, 0
1, 34776, Note_on_c, 0, 64, 80
1, 34799, Note_on_c, 0, 64, 0
1, 34800, Note_on_c, 0, 67, 80
1, 34823, Note_on_c, 0, 67, 0
1, 34824, Note_on_c, 0, 70, 80
1, 34847, Note_on_c, 0, 70, 0
1, 34848, Note_on_c, 0, 73, 80
1, 34871, Note_on_c, 0, 73, 0
1, 34872, Note_on_c, 0, 64, 80
1, 34895, Note_on_c, 0, 64, 0
1, 34896, Note_on_c, 0, 67, 80
1, 34919, Note_on_c, 0, 67, 0
1, 34920, Note_on_c, 0, 70, 80
1, 34943, Note_on_c, 0, 70, 0
1, 34944, Note_on_c, 0, 73, 80
1, 34944, Note_on_c, 1, 43, 96
1, 34944, Note_on_c, 1, 31, 96
1, 34967, Note_on_c, 0, 73, 0
1, 34968, Note_on_c, 0, 63, 80
1, 34991, Note_on_c, 0, 63, 0
1, 34992, Note_on_c, 0, 67, 80
1, 35015, Note_on_c, 0, 67, 0
1, 35016, Note_on_c, 0, 70, 80
1, 35039, Note_on_c, 0, 70, 0
1, 35040, Note_on_c, 0, 73, 80
1, 35040, Note_on_c, 1, 43, 0
1, 35040, Note_on_c, 1, 31, 0
1, 35063, Note_on_c, 0, 73, 0
1, 35064, Note_on_c, 0, 63, 80
1, 35087, Note_on_c, 0, 63, 0
1, 35088, Note_on_c, 0, 67, 80
1, 35111, Note_on_c, 0, 67, 0
1, 35112, Note_on_c, 0, 70, 80
1, 35135, Note_on_c, 0, 70, 0
1, 35136, Note_on_c, 0, 73, 80
1, 35159, Note_on_c, 0, 73, 0
1, 35160, Note_on_c, 0, 63, 80
1, 35183, Note_on_c, 0, 63, 0
1, 35184, Note_on_c, 0, 67, 80
1, 35207, Note_on_c, 0, 67, 0
1, 35208, Note_on_c, 0, 70, 80
1, 35231, Note_on_c, 0, 70, 0
1, 35232, Note_on_c, 0, 73, 80
1, 35255, Note_on_c, 0, 73, 0
1, 35256, Note_on_c, 0, 63, 80
1, 35279, Note_on_c, 0, 63, 0
1, 35280, Note_on_c, 0, 67, 80
1, 35303, Note_on_c, 0, 67, 0
1, 35304, Note_on_c, 0, 70, 80
1, 35327, Note_on_c, 0, 70, 0
1, 35328, Note_on_c, 0, 73, 80
1, 35417, Note_on_c, 0, 73, 0
1, 35664, Note_on_c, 0, 72, 80
1, 35687, Note_on_c, 0, 72, 0
1, 35688, Note_on_c, 0, 73, 80
1, 35711, Note_on_c, 0, 73, 0
1, 35712, Note_on_c, 0, 75, 75
1, 35732, Note_on_c, 0, 75, 0
1, 35760, Note_on_c, 0, 75, 76
1, 35780, Note_on_c, 0, 75, 0
1, 35808, Note_on_c, 0, 75, 77
1, 35828, Note_on_c, 0, 75, 0
1, 35856, Note_on_c, 0, 80, 78
1, 35876, Note_on_c, 0, 80, 0
1, 35904, Note_on_c, 0, 75, 80
1, 35952, Note_on_c, 1, 60, 75
1, 35997, Note_on_c, 1, 60, 0
1, 36000, Note_on_c, 1, 58, 75
1, 36037, Note_on_c, 0, 75, 0
1, 36045, Note_on_c, 1, 58, 0
1, 36048, Note_on_c, 0, 73, 76
1, 36048, Note_on_c, 1, 56, 75
1, 36071, Note_on_c, 0, 73, 0
1, 36072, Note_on_c, 0, 72, 75
1, 36093, Note_on_c, 1, 56, 0
1, 36095, Note_on_c, 0, 72, 0
1, 36096, Note_on_c, 1, 55, 75
1, 36141, Note_on_c, 1, 55, 0
1, 36144, Note_on_c, 0, 70, 75
1, 36144, Note_on_c, 1, 51, 75
1, 36189, Note_on_c, 0, 70, 0
1, 36189, Note_on_c, 1, 51, 0
1, 36192, Note_on_c, 1, 56, 75
1, 36237, Note_on_c, 1, 56, 0
1, 36240, Note_on_c, 0, 72, 75
1, 36240, Note_on_c, 1, 51, 75
1, 36285, Note_on_c, 0, 72, 0
1, 36285, Note_on_c, 1, 51, 0
1, 36288, Note_on_c, 0, 75, 75
1, 36288, Note_on_c, 1, 58, 75
1, 36333, Note_on_c, 0, 75, 0
1, 36333, Note_on_c, 1, 58, 0
1, 36336, Note_on_c, 0, 73, 75
1, 36336, Note_on_c, 1, 51, 75
1, 36348, Note_on_c, 0, 73, 0
1, 36348, Note_on_c, 0, 72, 75
1, 36360, Note_on_c, 0, 72, 0
1, 36360, Note_on_c, 0, 73, 75
1, 36381, Note_on_c, 0, 73, 0
1, 36381, Note_on_c, 1, 51, 0
1, 36384, Note_on_c, 0, 72, 75
1, 36384, Note_on_c, 1, 56, 75
1, 36404, Note_on_c, 0, 72, 0
1, 36429, Note_on_c, 1, 56, 0
1, 36432, Note_on_c, 0, 72, 75
1, 36455, Note_on_c, 0, 72, 0
1, 36456, Note_on_c, 0, 73, 75
1, 36479, Note_on_c, 0, 73, 0
1, 36480, Note_on_c, 0, 75, 75
1, 36500, Note_on_c, 0, 75, 0
1, 36528, Note_on_c, 0, 77, 75
1, 36548, Note_on_c, 0, 77, 0
1, 36576, Note_on_c, 0, 79, 75
1, 36596, Note_on_c, 0, 79, 0
1, 36624, Note_on_c, 0, 80, 75
1, 36644, Note_on_c, 0, 80, 0
1, 36672, Note_on_c, 0, 75, 75
1, 36720, Note_on_c, 1, 60, 75
1, 36765, Note_on_c, 1, 60, 0
1, 36768, Note_on_c, 1, 58, 75
1, 36805, Note_on_c, 0, 75, 0
1, 36813, Note_on_c, 1, 58, 0
1, 36816, Note_on_c, 0, 73, 71
1, 36816, Note_on_c, 1, 56, 75
1, 36839, Note_on_c, 0, 73, 0
1, 36840, Note_on_c, 0, 72, 70
1, 36861, Note_on_c, 1, 56, 0
1, 36863, Note_on_c, 0, 72, 0
1, 36864, Note_on_c, 1, 61, 75
1, 36909, Note_on_c, 1, 61, 0
1, 36912, Note_on_c, 0, 70, 70
1, 36912, Note_on_c, 1, 58, 75
1, 36957, Note_on_c, 0, 70, 0
1, 36957, Note_on_c, 1, 58, 0
1, 36960, Note_on_c, 1, 63, 75
1, 37005, Note_on_c, 1, 63, 0
1, 37008, Note_on_c, 0, 67, 70
1, 37008, Note_on_c, 1, 51, 75
1, 37053, Note_on_c, 0, 67, 0
1, 37053, Note_on_c, 1, 51, 0
1, 37056, Note_on_c, 1, 56, 75
1, 37101, Note_on_c, 1, 56, 0
1, 37104, Note_on_c, 0, 68, 70
1, 37104, Note_on_c, 1, 51, 75
1, 37149, Note_on_c, 0, 68, 0
1, 37149, Note_on_c, 1, 51, 0
1, 37152, Note_on_c, 1, 44, 75
1, 37197, Note_on_c, 1, 44, 0
1, 37200, Note_on_c, 0, 75, 70
1, 37245, Note_on_c, 0, 75, 0
1, 37248, Note_on_c, 0, 77, 70
1, 37271, Note_on_c, 0, 77, 0
1, 37272, Note_on_c, 0, 75, 70
1, 37295, Note_on_c, 0, 75, 0
1, 37296, Note_on_c, 0, 74, 70
1, 37319, Note_on_c, 0, 74, 0
1, 37320, Note_on_c, 0, 75, 70
1, 37343, Note_on_c, 0, 75, 0
1, 37344, Note_on_c, 0, 74, 70
1, 37367, Note_on_c, 0, 74, 0
1, 37368, Note_on_c, 0, 77, 70
1, 37391, Note_on_c, 0, 77, 0
1, 37392, Note_on_c, 0, 80, 70
1, 37392, Note_on_c, 1, 68, 75
1, 37415, Note_on_c, 0, 80, 0
1, 37416, Note_on_c, 0, 83, 70
1, 37439, Note_on_c, 0, 83, 0
1, 37440, Note_on_c, 0, 82, 70
1, 37440, Note_on_c, 1, 68, 0
1, 37440, Note_on_c, 1, 67, 75
1, 37485, Note_on_c, 0, 82, 0
1, 37488, Note_on_c, 0, 75, 70
1, 37529, Note_on_c, 1, 67, 0
1, 37533, Note_on_c, 0, 75, 0
1, 37536, Note_on_c, 0, 75, 70
1, 37581, Note_on_c, 0, 75, 0
1, 37584, Note_on_c, 0, 72, 70
1, 37629, Note_on_c, 0, 72, 0
1, 37632, Note_on_c, 0, 73, 70
1, 37655, Note_on_c, 0, 73, 0
1, 37656, Note_on_c, 0, 72, 70
1, 37679, Note_on_c, 0, 72, 0
1, 37680, Note_on_c, 0, 71, 70
1, 37703, Note_on_c, 0, 71, 0
1, 37704, Note_on_c, 0, 72, 70
1, 37727, Note_on_c, 0, 72, 0
1, 37728, Note_on_c, 0, 71, 70
1, 37751, Note_on_c, 0, 71, 0
1, 37752, Note_on_c, 0, 74, 70
1, 37775, Note_on_c, 0, 74, 0
1, 37776, Note_on_c, 0, 77, 70
1, 37776, Note_on_c, 1, 65, 75
1, 37799, Note_on_c, 0, 77, 0
1, 37800, Note_on_c, 0, 80, 70
1, 37823, Note_on_c, 0, 80, 0
1, 37824, Note_on_c, 0, 79, 70
1, 37824, Note_on_c, 1, 65, 0
1, 37824, Note_on_c, 1, 63, 75
1, 37869, Note_on_c, 0, 79, 0
1, 37872, Note_on_c, 0, 72, 70
1, 37913, Note_on_c, 1, 63, 0
1, 37917, Note_on_c, 0, 72, 0
1, 37920, Note_on_c, 0, 72, 70
1, 37965, Note_on_c, 0, 72, 0
1, 37968, Note_on_c, 0, 68, 70
1, 38013, Note_on_c, 0, 68, 0
1, 38016, Note_on_c, 0, 70, 70
1, 38039, Note_on_c, 0, 70, 0
1, 38040, Note_on_c, 0, 68, 70
1, 38063, Note_on_c, 0, 68, 0
1, 38064, Note_on_c, 0, 67, 70
1, 38087, Note_on_c, 0, 67, 0
1, 38088, Note_on_c, 0, 68, 70
1, 38111, Note_on_c, 0, 68, 0
1, 38112, Note_on_c, 0, 67, 70
1, 38135, Note_on_c, 0, 67, 0
1, 38136, Note_on_c, 0, 70, 70
1, 38159, Note_on_c, 0, 70, 0
1, 38160, Note_on_c, 0, 73, 70
1, 38160, Note_on_c, 1, 61, 75
1, 38183, Note_on_c, 0, 73, 0
1, 38184, Note_on_c, 0, 77, 70
1, 38207, Note_on_c, 0, 77, 0
1, 38208, Note_on_c, 0, 75, 70
1, 38208, Note_on_c, 1, 61, 0
1, 38208, Note_on_c, 1, 60, 75
1, 38253, Note_on_c, 0, 75, 0
1, 38256, Note_on_c, 0, 68, 71
1, 38297, Note_on_c, 1, 60, 0
1, 38301, Note_on_c, 0, 68, 0
1, 38304, Note_on_c, 0, 68, 73
1, 38349, Note_on_c, 0, 68, 0
1, 38352, Note_on_c, 0, 75, 75
1, 38397, Note_on_c, 0, 75, 0
1, 38400, Note_on_c, 0, 74, 75
1, 38400, Note_on_c, 1, 68, 75
1, 38400, Note_on_c, 1, 58, 75
1, 38423, Note_on_c, 0, 74, 0
1, 38424, Note_on_c, 0, 77, 75
1, 38447, Note_on_c, 0, 77, 0
1, 38448, Note_on_c, 0, 80, 75
1, 38471, Note_on_c, 0, 80, 0
1, 38472, Note_on_c, 0, 84, 75
1, 38489, Note_on_c, 1, 68, 0
1, 38489, Note_on_c, 1, 58, 0
1, 38495, Note_on_c, 0, 84, 0
1, 38496, Note_on_c, 0, 82, 75
1, 38519, Note_on_c, 0, 82, 0
1, 38520, Note_on_c, 0, 80, 75
1, 38543, Note_on_c, 0, 80, 0
1, 38544, Note_on_c, 0, 79, 75
1, 38567, Note_on_c, 0, 79, 0
1, 38568, Note_on_c, 0, 77, 75
1, 38591, Note_on_c, 0, 77, 0
1, 38592, Note_on_c, 0, 75, 75
1, 38592, Note_on_c, 1, 67, 75
1, 38592, Note_on_c, 1, 63, 75
1, 38615, Note_on_c, 0, 75, 0
1, 38616, Note_on_c, 0, 77, 75
1, 38639, Note_on_c, 0, 77, 0
1, 38640, Note_on_c, 0, 75, 75
1, 38663, Note_on_c, 0, 75, 0
1, 38664, Note_on_c, 0, 74, 75
1, 38681, Note_on_c, 1, 67, 0
1, 38681, Note_on_c, 1, 63, 0
1, 38687, Note_on_c, 0, 74, 0
1, 38688, Note_on_c, 0, 75, 75
1, 38711, Note_on_c, 0, 75, 0
1, 38712, Note_on_c, 0, 79, 75
1, 38735, Note_on_c, 0, 79, 0
1, 38736, Note_on_c, 0, 77, 75
1, 38759, Note_on_c, 0, 77, 0
1, 38760, Note_on_c, 0, 75, 75
1, 38783, Note_on_c, 0, 75, 0
1, 38784, Note_on_c, 0, 74, 75
1, 38784, Note_on_c, 1, 68, 75
1, 38784, Note_on_c, 1, 58, 75
1, 38807, Note_on_c, 0, 74, 0
1, 38808, Note_on_c, 0, 77, 75
1, 38831, Note_on_c, 0, 77, 0
1, 38832, Note_on_c, 0, 80, 75
1, 38855, Note_on_c, 0, 80, 0
1, 38856, Note_on_c, 0, 84, 75
1, 38873, Note_on_c, 1, 68, 0
1, 38873, Note_on_c, 1, 58, 0
1, 38879, Note_on_c, 0, 84, 0
1, 38880, Note_on_c, 0, 82, 75
1, 38903, Note_on_c, 0, 82, 0
1, 38904, Note_on_c, 0, 80, 75
1, 38927, Note_on_c, 0, 80, 0
1, 38928, Note_on_c, 0, 79, 75
1, 38951, Note_on_c, 0, 79, 0
1, 38952, Note_on_c, 0, 77, 75
1, 38975, Note_on_c, 0, 77, 0
1, 38976, Note_on_c, 0, 75, 75
1, 38976, Note_on_c, 1, 67, 75
1, 38976, Note_on_c, 1, 63, 75
1, 38999, Note_on_c, 0, 75, 0
1, 39000, Note_on_c, 0, 77, 75
1, 39023, Note_on_c, 0, 77, 0
1, 39024, Note_on_c, 0, 75, 75
1, 39047, Note_on_c, 0, 75, 0
1, 39048, Note_on_c, 0, 74, 75
1, 39065, Note_on_c, 1, 67, 0
1, 39065, Note_on_c, 1, 63, 0
1, 39071, Note_on_c, 0, 74, 0
1, 39072, Note_on_c, 0, 75, 75
1, 39095, Note_on_c, 0, 75, 0
1, 39096, Note_on_c, 0, 79, 75
1, 39119, Note_on_c, 0, 79, 0
1, 39120, Note_on_c, 0, 77, 75
1, 39143, Note_on_c, 0, 77, 0
1, 39144, Note_on_c, 0, 75, 75
1, 39167, Note_on_c, 0, 75, 0
1, 39168, Note_on_c, 0, 74, 75
1, 39168, Note_on_c, 1, 68, 75
1, 39168, Note_on_c, 1, 58, 75
1, 39191, Note_on_c, 0, 74, 0
1, 39192, Note_on_c, 0, 77, 75
1, 39215, Note_on_c, 0, 77, 0
1, 39216, Note_on_c, 0, 80, 75
1, 39239, Note_on_c, 0, 80, 0
1, 39240, Note_on_c, 0, 84, 75
1, 39257, Note_on_c, 1, 68, 0
1, 39257, Note_on_c, 1, 58, 0
1, 39263, Note_on_c, 0, 84, 0
1, 39264, Note_on_c, 0, 82, 75
1, 39287, Note_on_c, 0, 82, 0
1, 39288, Note_on_c, 0, 80, 75
1, 39311, Note_on_c, 0, 80, 0
1, 39312, Note_on_c, 0, 79, 75
1, 39335, Note_on_c, 0, 79, 0
1, 39336, Note_on_c, 0, 77, 75
1, 39359, Note_on_c, 0, 77, 0
1, 39360, Note_on_c, 0, 75, 75
1, 39360, Note_on_c, 1, 67, 75
1, 39360, Note_on_c, 1, 63, 75
1, 39383, Note_on_c, 0, 75, 0
1, 39384, Note_on_c, 0, 77, 75
1, 39407, Note_on_c, 0, 77, 0
1, 39408, Note_on_c, 0, 74, 75
1, 39431, Note_on_c, 0, 74, 0
1, 39432, Note_on_c, 0, 77, 75
1, 39449, Note_on_c, 1, 67, 0
1, 39449, Note_on_c, 1, 63, 0
1, 39455, Note_on_c, 0, 77, 0
1, 39456, Note_on_c, 0, 75, 75
1, 39479, Note_on_c, 0, 75, 0
1, 39480, Note_on_c, 0, 77, 75
1, 39503, Note_on_c, 0, 77, 0
1, 39504, Note_on_c, 0, 74, 75
1, 39527, Note_on_c, 0, 74, 0
1, 39528, Note_on_c, 0, 77, 75
1, 39551, Note_on_c, 0, 77, 0
1, 39552, Note_on_c, 0, 75, 75
1, 39600, Note_on_c, 1, 51, 75
1, 39645, Note_on_c, 1, 51, 0
1, 39648, Note_on_c, 1, 55, 75
1, 39693, Note_on_c, 1, 55, 0
1, 39696, Note_on_c, 1, 58, 75
1, 39729, Note_on_c, 0, 75, 0
1, 39741, Note_on_c, 1, 58, 0
1, 39744, Note_on_c, 0, 73, 75
1, 39744, Note_on_c, 1, 63, 75
1, 39767, Note_on_c, 0, 73, 0
1, 39768, Note_on_c, 0, 75, 75
1, 39791, Note_on_c, 0, 75, 0
1, 39792, Note_on_c, 0, 72, 75
1, 39815, Note_on_c, 0, 72, 0
1, 39816, Note_on_c, 0, 75, 75
1, 39833, Note_on_c, 1, 63, 0
1, 39839, Note_on_c, 0, 75, 0
1, 39840, Note_on_c, 0, 73, 75
1, 39863, Note_on_c, 0, 73, 0
1, 39864, Note_on_c, 0, 75, 75
1, 39887, Note_on_c, 0, 75, 0
1, 39888, Note_on_c, 0, 72, 75
1, 39911, Note_on_c, 0, 72, 0
1, 39912, Note_on_c, 0, 75, 75
1, 39935, Note_on_c, 0, 75, 0
1, 39936, Note_on_c, 0, 73, 75
1, 40261, Note_on_c, 0, 73, 0
1, 40272, Note_on_c, 0, 72, 75
1, 40295, Note_on_c, 0, 72, 0
1, 40296, Note_on_c, 0, 73, 75
1, 40319, Note_on_c, 0, 73, 0
1, 40320, Note_on_c, 0, 75, 75
1, 40340, Note_on_c, 0, 75, 0
1, 40368, Note_on_c, 0, 75, 75
1, 40388, Note_on_c, 0, 75, 0
1, 40416, Note_on_c, 0, 75, 75
1, 40439, Note_on_c, 0, 75, 0
1, 40440, Note_on_c, 0, 80, 76
1, 40463, Note_on_c, 0, 80, 0
1, 40464, Note_on_c, 0, 84, 77
1, 40487, Note_on_c, 0, 84, 0
1, 40488, Note_on_c, 0, 80, 78
1, 40511, Note_on_c, 0, 80, 0
1, 40512, Note_on_c, 0, 75, 80
1, 40560, Note_on_c, 1, 60, 75
1, 40605, Note_on_c, 1, 60, 0
1, 40608, Note_on_c, 1, 58, 75
1, 40645, Note_on_c, 0, 75, 0
1, 40653, Note_on_c, 1, 58, 0
1, 40656, Note_on_c, 0, 73, 76
1, 40656, Note_on_c, 1, 56, 75
1, 40679, Note_on_c, 0, 73, 0
1, 40680, Note_on_c, 0, 72, 75
1, 40701, Note_on_c, 1, 56, 0
1, 40703, Note_on_c, 0, 72, 0
1, 40704, Note_on_c, 1, 55, 75
1, 40749, Note_on_c, 1, 55, 0
1, 40752, Note_on_c, 0, 70, 75
1, 40752, Note_on_c, 1, 51, 75
1, 40797, Note_on_c, 0, 70, 0
1, 40797, Note_on_c, 1, 51, 0
1, 40800, Note_on_c, 1, 56, 75
1, 40845, Note_on_c, 1, 56, 0
1, 40848, Note_on_c, 0, 72, 75
1, 40848, Note_on_c, 1, 51, 75
1, 40893, Note_on_c, 0, 72, 0
1, 40893, Note_on_c, 1, 51, 0
1, 40896, Note_on_c, 0, 75, 75
1, 40896, Note_on_c, 1, 58, 75
1, 40941, Note_on_c, 0, 75, 0
1, 40941, Note_on_c, 1, 58, 0
1, 40944, Note_on_c, 0, 73, 75
1, 40944, Note_on_c, 1, 51, 75
1, 40956, Note_on_c, 0, 73, 0
1, 40956, Note_on_c, 0, 72, 75
1, 40968, Note_on_c, 0, 72, 0
1, 40968, Note_on_c, 0, 73, 75
1, 40989, Note_on_c, 0, 73, 0
1, 40989, Note_on_c, 1, 51, 0
1, 40992, Note_on_c, 0, 72, 75
1, 40992, Note_on_c, 1, 56, 75
1, 41012, Note_on_c, 0, 72, 0
1, 41037, Note_on_c, 1, 56, 0
1, 41040, Note_on_c, 0, 72, 75
1, 41063, Note_on_c, 0, 72, 0
1, 41064, Note_on_c, 0, 73, 75
1, 41087, Note_on_c, 0, 73, 0
1, 41088, Note_on_c, 0, 75, 75
1, 41108, Note_on_c, 0, 75, 0
1, 41136, Note_on_c, 0, 77, 76
1, 41156, Note_on_c, 0, 77, 0
1, 41184, Note_on_c, 0, 79, 77
1, 41204, Note_on_c, 0, 79, 0
1, 41232, Note_on_c, 0, 80, 78
1, 41252, Note_on_c, 0, 80, 0
1, 41280, Note_on_c, 0, 75, 80
1, 41328, Note_on_c, 1, 60, 75
1, 41373, Note_on_c, 1, 60, 0
1, 41376, Note_on_c, 1, 58, 75
1, 41413, Note_on_c, 0, 75, 0
1, 41421, Note_on_c, 1, 58, 0
1, 41424, Note_on_c, 0, 73, 76
1, 41424, Note_on_c, 1, 56, 75
1, 41447, Note_on_c, 0, 73, 0
1, 41448, Note_on_c, 0, 72, 75
1, 41469, Note_on_c, 1, 56, 0
1, 41471, Note_on_c, 0, 72, 0
1, 41472, Note_on_c, 1, 61, 75
1, 41517, Note_on_c, 1, 61, 0
1, 41520, Note_on_c, 0, 70, 75
1, 41520, Note_on_c, 1, 58, 75
1, 41565, Note_on_c, 0, 70, 0
1, 41565, Note_on_c, 1, 58, 0
1, 41568, Note_on_c, 1, 63, 75
1, 41613, Note_on_c, 1, 63, 0
1, 41616, Note_on_c, 0, 67, 75
1, 41616, Note_on_c, 1, 51, 75
1, 41661, Note_on_c, 0, 67, 0
1, 41661, Note_on_c, 1, 51, 0
1, 41664, Note_on_c, 1, 56, 75
1, 41709, Note_on_c, 1, 56, 0
1, 41712, Note_on_c, 0, 68, 75
1, 41712, Note_on_c, 1, 51, 75
1, 41757, Note_on_c, 0, 68, 0
1, 41757, Note_on_c, 1, 51, 0
1, 41760, Note_on_c, 1, 44, 75
1, 41805, Note_on_c, 1, 44, 0
1, 41808, Note_on_c, 0, 75, 75
1, 41853, Note_on_c, 0, 75, 0
1, 41856, Note_on_c, 0, 77, 70
1, 41879, Note_on_c, 0, 77, 0
1, 41880, Note_on_c, 0, 75, 70
1, 41903, Note_on_c, 0, 75, 0
1, 41904, Note_on_c, 0, 74, 70
1, 41927, Note_on_c, 0, 74, 0
1, 41928, Note_on_c, 0, 75, 70
1, 41951, Note_on_c, 0, 75, 0
1, 41952, Note_on_c, 0, 74, 70
1, 41975, Note_on_c, 0, 74, 0
1, 41976, Note_on_c, 0, 77, 70
1, 41999, Note_on_c, 0, 77, 0
1, 42000, Note_on_c, 0, 80, 70
1, 42000, Note_on_c, 1, 68, 75
1, 42023, Note_on_c, 0, 80, 0
1, 42024, Note_on_c, 0, 83, 70
1, 42047, Note_on_c, 0, 83, 0
1, 42048, Note_on_c, 0, 82, 70
1, 42048, Note_on_c, 1, 68, 0
1, 42048, Note_on_c, 1, 67, 75
1, 42093, Note_on_c, 0, 82, 0
1, 42096, Note_on_c, 0, 75, 70
1, 42137, Note_on_c, 1, 67, 0
1, 42141, Note_on_c, 0, 75, 0
1, 42144, Note_on_c, 0, 75, 70
1, 42189, Note_on_c, 0, 75, 0
1, 42192, Note_on_c, 0, 72, 70
1, 42237, Note_on_c, 0, 72, 0
1, 42240, Note_on_c, 0, 73, 70
1, 42263, Note_on_c, 0, 73, 0
1, 42264, Note_on_c, 0, 72, 70
1, 42287, Note_on_c, 0, 72, 0
1, 42288, Note_on_c, 0, 71, 70
1, 42311, Note_on_c, 0, 71, 0
1, 42312, Note_on_c, 0, 72, 70
1, 42335, Note_on_c, 0, 72, 0
1, 42336, Note_on_c, 0, 71, 70
1, 42359, Note_on_c, 0, 71, 0
1, 42360, Note_on_c, 0, 74, 70
1, 42383, Note_on_c, 0, 74, 0
1, 42384, Note_on_c, 0, 77, 70
1, 42384, Note_on_c, 1, 65, 75
1, 42407, Note_on_c, 0, 77, 0
1, 42408, Note_on_c, 0, 80, 70
1, 42431, Note_on_c, 0, 80, 0
1, 42432, Note_on_c, 0, 79, 70
1, 42432, Note_on_c, 1, 65, 0
1, 42432, Note_on_c, 1, 63, 75
1, 42477, Note_on_c, 0, 79, 0
1, 42480, Note_on_c, 0, 72, 70
1, 42521, Note_on_c, 1, 63, 0
1, 42525, Note_on_c, 0, 72, 0
1, 42528, Note_on_c, 0, 72, 70
1, 42573, Note_on_c, 0, 72, 0
1, 42576, Note_on_c, 0, 68, 70
1, 42621, Note_on_c, 0, 68, 0
1, 42624, Note_on_c, 0, 70, 70
1, 42647, Note_on_c, 0, 70, 0
1, 42648, Note_on_c, 0, 68, 70
1, 42671, Note_on_c, 0, 68, 0
1, 42672, Note_on_c, 0, 67, 70
1, 42695, Note_on_c, 0, 67, 0
1, 42696, Note_on_c, 0, 68, 70
1, 42719, Note_on_c, 0, 68, 0
1, 42720, Note_on_c, 0, 67, 70
1, 42743, Note_on_c, 0, 67, 0
1, 42744, Note_on_c, 0, 70, 70
1, 42767, Note_on_c, 0, 70, 0
1, 42768, Note_on_c, 0, 73, 70
1, 42768, Note_on_c, 1, 61, 75
1, 42791, Note_on_c, 0, 73, 0
1, 42792, Note_on_c, 0, 77, 70
1, 42815, Note_on_c, 0, 77, 0
1, 42816, Note_on_c, 0, 75, 70
1, 42816, Note_on_c, 1, 61, 0
1, 42816, Note_on_c, 1, 60, 75
1, 42861, Note_on_c, 0, 75, 0
1, 42864, Note_on_c, 0, 68, 71
1, 42905, Note_on_c, 1, 60, 0
1, 42909, Note_on_c, 0, 68, 0
1, 42912, Note_on_c, 0, 68, 73
1, 42957, Note_on_c, 0, 68, 0
1, 42960, Note_on_c, 0, 75, 75
1, 43005, Note_on_c, 0, 75, 0
1, 43008, Note_on_c, 0, 74, 75
1, 43008, Note_on_c, 1, 68, 75
1, 43008, Note_on_c, 1, 58, 75
1, 43031, Note_on_c, 0, 74, 0
1, 43032, Note_on_c, 0, 77, 75
1, 43055, Note_on_c, 0, 77, 0
1, 43056, Note_on_c, 0, 80, 75
1, 43079, Note_on_c, 0, 80, 0
1, 43080, Note_on_c, 0, 84, 75
1, 43097, Note_on_c, 1, 68, 0
1, 43097, Note_on_c, 1, 58, 0
1, 43103, Note_on_c, 0, 84, 0
1, 43104, Note_on_c, 0, 82, 75
1, 43127, Note_on_c, 0, 82, 0
1, 43128, Note_on_c, 0, 80, 75
1, 43151, Note_on_c, 0, 80, 0
1, 43152, Note_on_c, 0, 79, 75
1, 43175, Note_on_c, 0, 79, 0
1, 43176, Note_on_c, 0, 77, 75
1, 43199, Note_on_c, 0, 77, 0
1, 43200, Note_on_c, 0, 75, 75
1, 43200, Note_on_c, 1, 67, 75
1, 43200, Note_on_c, 1, 63, 75
1, 43223, Note_on_c, 0, 75, 0
1, 43224, Note_on_c, 0, 77, 75
1, 43247, Note_on_c, 0, 77, 0
1, 43248, Note_on_c, 0, 75, 75
1, 43271, Note_on_c, 0, 75, 0
1, 43272, Note_on_c, 0, 74, 75
1, 43289, Note_on_c, 1, 67, 0
1, 43289, Note_on_c, 1, 63, 0
1, 43295, Note_on_c, 0, 74, 0
1, 43296, Note_on_c, 0, 75, 75
1, 43319, Note_on_c, 0, 75, 0
1, 43320, Note_on_c, 0, 79, 75
1, 43343, Note_on_c, 0, 79, 0
1, 43344, Note_on_c, 0, 77, 75
1, 43367, Note_on_c, 0, 77, 0
1, 43368, Note_on_c, 0, 75, 75
1, 43391, Note_on_c, 0, 75, 0
1, 43392, Note_on_c, 0, 74, 75
1, 43392, Note_on_c, 1, 68, 75
1, 43392, Note_on_c, 1, 58, 75
1, 43415, Note_on_c, 0, 74, 0
1, 43416, Note_on_c, 0, 77, 75
1, 43439, Note_on_c, 0, 77, 0
1, 43440, Note_on_c, 0, 80, 75
1, 43463, Note_on_c, 0, 80, 0
1, 43464, Note_on_c, 0, 84, 75
1, 43481, Note_on_c, 1, 68, 0
1, 43481, Note_on_c, 1, 58, 0
1, 43487, Note_on_c, 0, 84, 0
1, 43488, Note_on_c, 0, 82, 75
1, 43511, Note_on_c, 0, 82, 0
1, 43512, Note_on_c, 0, 80, 75
1, 43535, Note_on_c, 0, 80, 0
1, 43536, Note_on_c, 0, 79, 75
1, 43559, Note_on_c, 0, 79, 0
1, 43560, Note_on_c, 0, 77, 75
1, 43583, Note_on_c, 0, 77, 0
1, 43584, Note_on_c, 0, 75, 75
1, 43584, Note_on_c, 1, 67, 75
1, 43584, Note_on_c, 1, 63, 75
1, 43607, Note_on_c, 0, 75, 0
1, 43608, Note_on_c, 0, 77, 75
1, 43631, Note_on_c, 0, 77, 0
1, 43632, Note_on_c, 0, 75, 75
1, 43655, Note_on_c, 0, 75, 0
1, 43656, Note_on_c, 0, 74, 75
1, 43673, Note_on_c, 1, 67, 0
1, 43673, Note_on_c, 1, 63, 0
1, 43679, Note_on_c, 0, 74, 0
1, 43680, Note_on_c, 0, 75, 75
1, 43703, Note_on_c, 0, 75, 0
1, 43704, Note_on_c, 0, 79, 75
1, 43727, Note_on_c, 0, 79, 0
1, 43728, Note_on_c, 0, 77, 75
1, 43751, Note_on_c, 0, 77, 0
1, 43752, Note_on_c, 0, 75, 75
1, 43775, Note_on_c, 0, 75, 0
1, 43776, Note_on_c, 0, 74, 75
1, 43776, Note_on_c, 1, 68, 75
1, 43776, Note_on_c, 1, 58, 75
1, 43799, Note_on_c, 0, 74, 0
1, 43800, Note_on_c, 0, 77, 75
1, 43823, Note_on_c, 0, 77, 0
1, 43824, Note_on_c, 0, 80, 75
1, 43847, Note_on_c, 0, 80, 0
1, 43848, Note_on_c, 0, 84, 75
1, 43865, Note_on_c, 1, 68, 0
1, 43865, Note_on_c, 1, 58, 0
1, 43871, Note_on_c, 0, 84, 0
1, 43872, Note_on_c, 0, 82, 75
1, 43895, Note_on_c, 0, 82, 0
1, 43896, Note_on_c, 0, 80, 75
1, 43919, Note_on_c, 0, 80, 0
1, 43920, Note_on_c, 0, 79, 75
1, 43943, Note_on_c, 0, 79, 0
1, 43944, Note_on_c, 0, 77, 75
1, 43967, Note_on_c, 0, 77, 0
1, 43968, Note_on_c, 0, 75, 75
1, 43968, Note_on_c, 1, 67, 75
1, 43968, Note_on_c, 1, 63, 75
1, 43991, Note_on_c, 0, 75, 0
1, 43992, Note_on_c, 0, 77, 75
1, 44015, Note_on_c, 0, 77, 0
1, 44016, Note_on_c, 0, 74, 75
1, 44039, Note_on_c, 0, 74, 0
1, 44040, Note_on_c, 0, 77, 75
1, 44057, Note_on_c, 1, 67, 0
1, 44057, Note_on_c, 1, 63, 0
1, 44063, Note_on_c, 0, 77, 0
1, 44064, Note_on_c, 0, 75, 75
1, 44087, Note_on_c, 0, 75, 0
1, 44088, Note_on_c, 0, 77, 75
1, 44111, Note_on_c, 0, 77, 0
1, 44112, Note_on_c, 0, 74, 75
1, 44135, Note_on_c, 0, 74, 0
1, 44136, Note_on_c, 0, 77, 75
1, 44159, Note_on_c, 0, 77, 0
1, 44160, Note_on_c, 0, 75, 75
1, 44208, Note_on_c, 1, 51, 75
1, 44253, Note_on_c, 1, 51, 0
1, 44256, Note_on_c, 1, 55, 75
1, 44301, Note_on_c, 1, 55, 0
1, 44304, Note_on_c, 1, 58, 75
1, 44337, Note_on_c, 0, 75, 0
1, 44349, Note_on_c, 1, 58, 0
1, 44352, Note_on_c, 0, 73, 75
1, 44352, Note_on_c, 1, 63, 75
1, 44375, Note_on_c, 0, 73, 0
1, 44376, Note_on_c, 0, 75, 75
1, 44399, Note_on_c, 0, 75, 0
1, 44400, Note_on_c, 0, 72, 75
1, 44423, Note_on_c, 0, 72, 0
1, 44424, Note_on_c, 0, 75, 75
1, 44441, Note_on_c, 1, 63, 0
1, 44447, Note_on_c, 0, 75, 0
1, 44448, Note_on_c, 0, 73, 75
1, 44471, Note_on_c, 0, 73, 0
1, 44472, Note_on_c, 0, 75, 75
1, 44495, Note_on_c, 0, 75, 0
1, 44496, Note_on_c, 0, 72, 75
1, 44519, Note_on_c, 0, 72, 0
1, 44520, Note_on_c, 0, 75, 75
1, 44543, Note_on_c, 0, 75, 0
1, 44544, Note_on_c, 0, 73, 75
1, 44869, Note_on_c, 0, 73, 0
1, 44880, Note_on_c, 0, 72, 75
1, 44903, Note_on_c, 0, 72, 0
1, 44904, Note_on_c, 0, 73, 75
1, 44927, Note_on_c, 0, 73, 0
1, 44928, Note_on_c, 0, 75, 75
1, 44948, Note_on_c, 0, 75, 0
1, 44976, Note_on_c, 0, 75, 75
1, 44996, Note_on_c, 0, 75, 0
1, 45024, Note_on_c, 0, 75, 75
1, 45047, Note_on_c, 0, 75, 0
1, 45048, Note_on_c, 0, 80, 76
1, 45071, Note_on_c, 0, 80, 0
1, 45072, Note_on_c, 0, 84, 77
1, 45095, Note_on_c, 0, 84, 0
1, 45096, Note_on_c, 0, 80, 78
1, 45119, Note_on_c, 0, 80, 0
1, 45120, Note_on_c, 0, 75, 80
1, 45168, Note_on_c, 1, 60, 75
1, 45213, Note_on_c, 1, 60, 0
1, 45216, Note_on_c, 1, 58, 75
1, 45253, Note_on_c, 0, 75, 0
1, 45261, Note_on_c, 1, 58, 0
1, 45264, Note_on_c, 0, 73, 76
1, 45264, Note_on_c, 1, 56, 75
1, 45287, Note_on_c, 0, 73, 0
1, 45288, Note_on_c, 0, 72, 75
1, 45309, Note_on_c, 1, 56, 0
1, 45311, Note_on_c, 0, 72, 0
1, 45312, Note_on_c, 1, 55, 75
1, 45357, Note_on_c, 1, 55, 0
1, 45360, Note_on_c, 0, 70, 75
1, 45360, Note_on_c, 1, 51, 75
1, 45405, Note_on_c, 0, 70, 0
1, 45405, Note_on_c, 1, 51, 0
1, 45408, Note_on_c, 1, 56, 75
1, 45453, Note_on_c, 1, 56, 0
1, 45456, Note_on_c, 0, 72, 75
1, 45456, Note_on_c, 1, 51, 75
1, 45501, Note_on_c, 0, 72, 0
1, 45501, Note_on_c, 1, 51, 0
1, 45504, Note_on_c, 0, 75, 75
1, 45504, Note_on_c, 1, 58, 75
1, 45549, Note_on_c, 0, 75, 0
1, 45549, Note_on_c, 1, 58, 0
1, 45552, Note_on_c, 0, 73, 75
1, 45552, Note_on_c, 1, 51, 75
1, 45564, Note_on_c, 0, 73, 0
1, 45564, Note_on_c, 0, 72, 75
1, 45576, Note_on_c, 0, 72, 0
1, 45576, Note_on_c, 0, 73, 75
1, 45597, Note_on_c, 0, 73, 0
1, 45597, Note_on_c, 1, 51, 0
1, 45600, Note_on_c, 0, 72, 75
1, 45600, Note_on_c, 1, 56, 75
1, 45620, Note_on_c, 0, 72, 0
1, 45645, Note_on_c, 1, 56, 0
1, 45648, Note_on_c, 0, 72, 75
1, 45671, Note_on_c, 0, 72, 0
1, 45672, Note_on_c, 0, 73, 75
1, 45695, Note_on_c, 0, 73, 0
1, 45696, Note_on_c, 0, 75, 75
1, 45716, Note_on_c, 0, 75, 0
1, 45744, Note_on_c, 0, 77, 76
1, 45764, Note_on_c, 0, 77, 0
1, 45792, Note_on_c, 0, 79, 77
1, 45812, Note_on_c, 0, 79, 0
1, 45840, Note_on_c, 0, 80, 78
1, 45860, Note_on_c, 0, 80, 0
1, 45888, Note_on_c, 0, 75, 80
1, 45936, Note_on_c, 1, 60, 75
1, 45981, Note_on_c, 1, 60, 0
1, 45984, Note_on_c, 1, 58, 75
1, 46021, Note_on_c, 0, 75, 0
1, 46029, Note_on_c, 1, 58, 0
1, 46032, Note_on_c, 0, 73, 76
1, 46032, Note_on_c, 1, 56, 75
1, 46055, Note_on_c, 0, 73, 0
1, 46056, Note_on_c, 0, 72, 75
1, 46077, Note_on_c, 1, 56, 0
1, 46079, Note_on_c, 0, 72, 0
1, 46080, Note_on_c, 1, 61, 75
1, 46125, Note_on_c, 1, 61, 0
1, 46128, Note_on_c, 0, 70, 75
1, 46128, Note_on_c, 1, 58, 75
1, 46173, Note_on_c, 0, 70, 0
1, 46173, Note_on_c, 1, 58, 0
1, 46176, Note_on_c, 1, 63, 75
1, 46221, Note_on_c, 1, 63, 0
1, 46224, Note_on_c, 0, 67, 75
1, 46224, Note_on_c, 1, 51, 75
1, 46269, Note_on_c, 0, 67, 0
1, 46269, Note_on_c, 1, 51, 0
1, 46272, Note_on_c, 1, 56, 75
1, 46317, Note_on_c, 1, 56, 0
1, 46320, Note_on_c, 0, 68, 75
1, 46320, Note_on_c, 1, 44, 75
1, 46365, Note_on_c, 0, 68, 0
1, 46365, Note_on_c, 1, 44, 0
1, 46368, Note_on_c, 0, 77, 80
1, 46368, Note_on_c, 1, 61, 64
1, 46368, Note_on_c, 1, 56, 64
1, 46391, Note_on_c, 0, 77, 0
1, 46392, Note_on_c, 0, 80, 80
1, 46413, Note_on_c, 1, 61, 0
1, 46413, Note_on_c, 1, 56, 0
1, 46415, Note_on_c, 0, 80, 0
1, 46416, Note_on_c, 0, 77, 80
1, 46416, Note_on_c, 1, 61, 64
1, 46416, Note_on_c, 1, 56, 64
1, 46439, Note_on_c, 0, 77, 0
1, 46440, Note_on_c, 0, 80, 80
1, 46461, Note_on_c, 1, 61, 0
1, 46461, Note_on_c, 1, 56, 0
1, 46463, Note_on_c, 0, 80, 0
1, 46464, Note_on_c, 0, 75, 80
1, 46464, Note_on_c, 1, 60, 64
1, 46464, Note_on_c, 1, 56, 64
1, 46509, Note_on_c, 0, 75, 0
1, 46509, Note_on_c, 1, 60, 0
1, 46509, Note_on_c, 1, 56, 0
1, 46512, Note_on_c, 1, 60, 64
1, 46512, Note_on_c, 1, 56, 64
1, 46557, Note_on_c, 1, 60, 0
1, 46557, Note_on_c, 1, 56, 0
1, 46560, Note_on_c, 0, 73, 80
1, 46560, Note_on_c, 1, 65, 64
1, 46560, Note_on_c, 1, 56, 64
1, 46583, Note_on_c, 0, 73, 0
1, 46584, Note_on_c, 0, 80, 80
1, 46605, Note_on_c, 1, 65, 0
1, 46605, Note_on_c, 1, 56, 0
1, 46607, Note_on_c, 0, 80, 0
1, 46608, Note_on_c, 0, 73, 80
1, 46608, Note_on_c, 1, 65, 64
1, 46608, Note_on_c, 1, 56, 64
1, 46631, Note_on_c, 0, 73, 0
1, 46632, Note_on_c, 0, 80, 80
1, 46653, Note_on_c, 1, 65, 0
1, 46653, Note_on_c, 1, 56, 0
1, 46655, Note_on_c, 0, 80, 0
1, 46656, Note_on_c, 0, 72, 80
1, 46656, Note_on_c, 1, 63, 64
1, 46656, Note_on_c, 1, 56, 64
1, 46701, Note_on_c, 0, 72, 0
1, 46701, Note_on_c, 1, 63, 0
1, 46701, Note_on_c, 1, 56, 0
1, 46704, Note_on_c, 1, 63, 64
1, 46704, Note_on_c, 1, 56, 64
1, 46749, Note_on_c, 1, 63, 0
1, 46749, Note_on_c, 1, 56, 0
1, 46752, Note_on_c, 0, 77, 80
1, 46752, Note_on_c, 1, 61, 64
1, 46752, Note_on_c, 1, 56, 64
1, 46775, Note_on_c, 0, 77, 0
1, 46776, Note_on_c, 0, 80, 80
1, 46797, Note_on_c, 1, 61, 0
1, 46797, Note_on_c, 1, 56, 0
1, 46799, Note_on_c, 0, 80, 0
1, 46800, Note_on_c, 0, 77, 80
1, 46800, Note_on_c, 1, 61, 64
1, 46800, Note_on_c, 1, 56, 64
1, 46823, Note_on_c, 0, 77, 0
1, 46824, Note_on_c, 0, 80, 80
1, 46845, Note_on_c, 1, 61, 0
1, 46845, Note_on_c, 1, 56, 0
1, 46847, Note_on_c, 0, 80, 0
1, 46848, Note_on_c, 0, 75, 80
1, 46848, Note_on_c, 1, 60, 64
1, 46848, Note_on_c, 1, 56, 64
1, 46893, Note_on_c, 0, 75, 0
1, 46893, Note_on_c, 1, 60, 0
1, 46893, Note_on_c, 1, 56, 0
1, 47040, Note_on_c, 1, 58, 75
1, 47040, Note_on_c, 1, 50, 75
1, 47064, Note_on_c, 0, 70, 75
1, 47087, Note_on_c, 0, 70, 0
1, 47088, Note_on_c, 0, 69, 75
1, 47111, Note_on_c, 0, 69, 0
1, 47112, Note_on_c, 0, 70, 75
1, 47129, Note_on_c, 1, 58, 0
1, 47129, Note_on_c, 1, 50, 0
1, 47135, Note_on_c, 0, 70, 0
1, 47136, Note_on_c, 0, 77, 75
1, 47181, Note_on_c, 0, 77, 0
1, 47184, Note_on_c, 0, 70, 75
1, 47229, Note_on_c, 0, 70, 0
1, 47232, Note_on_c, 1, 58, 75
1, 47232, Note_on_c, 1, 50, 75
1, 47256, Note_on_c, 0, 68, 75
1, 47279, Note_on_c, 0, 68, 0
1, 47280, Note_on_c, 0, 67, 75
1, 47303, Note_on_c, 0, 67, 0
1, 47304, Note_on_c, 0, 68, 75
1, 47321, Note_on_c, 1, 58, 0
1, 47321, Note_on_c, 1, 50, 0
1, 47327, Note_on_c, 0, 68, 0
1, 47328, Note_on_c, 0, 77, 75
1, 47373, Note_on_c, 0, 77, 0
1, 47376, Note_on_c, 0, 68, 75
1, 47421, Note_on_c, 0, 68, 0
1, 47424, Note_on_c, 0, 67, 75
1, 47424, Note_on_c, 1, 51, 75
1, 47447, Note_on_c, 0, 67, 0
1, 47448, Note_on_c, 0, 75, 75
1, 47469, Note_on_c, 1, 51, 0
1, 47471, Note_on_c, 0, 75, 0
1, 47472, Note_on_c, 0, 68, 75
1, 47472, Note_on_c, 1, 53, 75
1, 47495, Note_on_c, 0, 68, 0
1, 47496, Note_on_c, 0, 75, 75
1, 47517, Note_on_c, 1, 53, 0
1, 47519, Note_on_c, 0, 75, 0
1, 47520, Note_on_c, 0, 70, 75
1, 47520, Note_on_c, 1, 55, 75
1, 47543, Note_on_c, 0, 70, 0
1, 47544, Note_on_c, 0, 75, 75
1, 47565, Note_on_c, 1, 55, 0
1, 47567, Note_on_c, 0, 75, 0
1, 47568, Note_on_c, 0, 72, 75
1, 47568, Note_on_c, 1, 56, 75
1, 47591, Note_on_c, 0, 72, 0
1, 47592, Note_on_c, 0, 75, 75
1, 47613, Note_on_c, 1, 56, 0
1, 47615, Note_on_c, 0, 75, 0
1, 47616, Note_on_c, 0, 73, 75
1, 47616, Note_on_c, 1, 58, 75
1, 47639, Note_on_c, 0, 73, 0
1, 47640, Note_on_c, 0, 75, 75
1, 47661, Note_on_c, 1, 58, 0
1, 47663, Note_on_c, 0, 75, 0
1, 47664, Note_on_c, 0, 72, 75
1, 47664, Note_on_c, 1, 56, 75
1, 47687, Note_on_c, 0, 72, 0
1, 47688, Note_on_c, 0, 75, 75
1, 47709, Note_on_c, 1, 56, 0
1, 47711, Note_on_c, 0, 75, 0
1, 47712, Note_on_c, 0, 73, 75
1, 47712, Note_on_c, 1, 58, 75
1, 47735, Note_on_c, 0, 73, 0
1, 47736, Note_on_c, 0, 75, 75
1, 47757, Note_on_c, 1, 58, 0
1, 47759, Note_on_c, 0, 75, 0
1, 47760, Note_on_c, 0, 70, 75
1, 47760, Note_on_c, 1, 55, 75
1, 47783, Note_on_c, 0, 70, 0
1, 47784, Note_on_c, 0, 75, 75
1, 47805, Note_on_c, 1, 55, 0
1, 47807, Note_on_c, 0, 75, 0
1, 47808, Note_on_c, 0, 72, 75
1, 47808, Note_on_c, 1, 56, 75
1, 47831, Note_on_c, 0, 72, 0
1, 47832, Note_on_c, 0, 80, 75
1, 47853, Note_on_c, 1, 56, 0
1, 47855, Note_on_c, 0, 80, 0
1, 47856, Note_on_c, 0, 73, 75
1, 47856, Note_on_c, 1, 58, 75
1, 47879, Note_on_c, 0, 73, 0
1, 47880, Note_on_c, 0, 80, 75
1, 47901, Note_on_c, 1, 58, 0
1, 47903, Note_on_c, 0, 80, 0
1, 47904, Note_on_c, 0, 75, 76
1, 47904, Note_on_c, 1, 60, 76
1, 47927, Note_on_c, 0, 75, 0
1, 47928, Note_on_c, 0, 80, 76
1, 47949, Note_on_c, 1, 60, 0
1, 47951, Note_on_c, 0, 80, 0
1, 47952, Note_on_c, 0, 77, 76
1, 47952, Note_on_c, 1, 61, 76
1, 47975, Note_on_c, 0, 77, 0
1, 47976, Note_on_c, 0, 80, 77
1, 47997, Note_on_c, 1, 61, 0
1, 47999, Note_on_c, 0, 80, 0
1, 48000, Note_on_c, 0, 78, 77
1, 48000, Note_on_c, 1, 63, 77
1, 48023, Note_on_c, 0, 78, 0
1, 48024, Note_on_c, 0, 80, 77
1, 48045, Note_on_c, 1, 63, 0
1, 48047, Note_on_c, 0, 80, 0
1, 48048, Note_on_c, 0, 77, 78
1, 48048, Note_on_c, 1, 61, 78
1, 48071, Note_on_c, 0, 77, 0
1, 48072, Note_on_c, 0, 80, 78
1, 48093, Note_on_c, 1, 61, 0
1, 48095, Note_on_c, 0, 80, 0
1, 48096, Note_on_c, 0, 78, 78
1, 48096, Note_on_c, 1, 63, 78
1, 48119, Note_on_c, 0, 78, 0
1, 48120, Note_on_c, 0, 80, 79
1, 48141, Note_on_c, 1, 63, 0
1, 48143, Note_on_c, 0, 80, 0
1, 48144, Note_on_c, 0, 75, 79
1, 48144, Note_on_c, 1, 60, 79
1, 48167, Note_on_c, 0, 75, 0
1, 48168, Note_on_c, 0, 80, 79
1, 48189, Note_on_c, 1, 60, 0
1, 48191, Note_on_c, 0, 80, 0
1, 48192, Note_on_c, 1, 61, 80
1, 48216, Note_on_c, 0, 77, 80
1, 48239, Note_on_c, 0, 77, 0
1, 48240, Note_on_c, 0, 80, 80
1, 48263, Note_on_c, 0, 80, 0
1, 48264, Note_on_c, 0, 77, 80
1, 48281, Note_on_c, 1, 61, 0
1, 48287, Note_on_c, 0, 77, 0
1, 48288, Note_on_c, 0, 85, 80
1, 48311, Note_on_c, 0, 85, 0
1, 48312, Note_on_c, 0, 77, 80
1, 48335, Note_on_c, 0, 77, 0
1, 48336, Note_on_c, 0, 80, 80
1, 48359, Note_on_c, 0, 80, 0
1, 48360, Note_on_c, 0, 77, 80
1, 48383, Note_on_c, 0, 77, 0
1, 48384, Note_on_c, 1, 68, 80
1, 48408, Note_on_c, 0, 75, 80
1, 48429, Note_on_c, 1, 68, 0
1, 48431, Note_on_c, 0, 75, 0
1, 48432, Note_on_c, 0, 85, 80
1, 48455, Note_on_c, 0, 85, 0
1, 48456, Note_on_c, 0, 75, 80
1, 48479, Note_on_c, 0, 75, 0
1, 48480, Note_on_c, 1, 69, 80
1, 48504, Note_on_c, 0, 75, 80
1, 48525, Note_on_c, 1, 69, 0
1, 48527, Note_on_c, 0, 75, 0
1, 48528, Note_on_c, 0, 84, 80
1, 48551, Note_on_c, 0, 84, 0
1, 48552, Note_on_c, 0, 75, 80
1, 48575, Note_on_c, 0, 75, 0
1, 48576, Note_on_c, 1, 70, 80
1, 48600, Note_on_c, 0, 73, 80
1, 48623, Note_on_c, 0, 73, 0
1, 48624, Note_on_c, 0, 77, 80
1, 48647, Note_on_c, 0, 77, 0
1, 48648, Note_on_c, 0, 73, 80
1, 48665, Note_on_c, 1, 70, 0
1, 48671, Note_on_c, 0, 73, 0
1, 48672, Note_on_c, 0, 82, 80
1, 48695, Note_on_c, 0, 82, 0
1, 48696, Note_on_c, 0, 73, 80
1, 48719, Note_on_c, 0, 73, 0
1, 48720, Note_on_c, 0, 77, 80
1, 48743, Note_on_c, 0, 77, 0
1, 48744, Note_on_c, 0, 73, 80
1, 48767, Note_on_c, 0, 73, 0
1, 48768, Note_on_c, 1, 65, 80
1, 48792, Note_on_c, 0, 72, 80
1, 48813, Note_on_c, 1, 65, 0
1, 48815, Note_on_c, 0, 72, 0
1, 48816, Note_on_c, 0, 82, 80
1, 48839, Note_on_c, 0, 82, 0
1, 48840, Note_on_c, 0, 72, 80
1, 48863, Note_on_c, 0, 72, 0
1, 48864, Note_on_c, 1, 65, 80
1, 48888, Note_on_c, 0, 71, 80
1, 48909, Note_on_c, 1, 65, 0
1, 48911, Note_on_c, 0, 71, 0
1, 48912, Note_on_c, 0, 80, 80
1, 48935, Note_on_c, 0, 80, 0
1, 48936, Note_on_c, 0, 71, 80
1, 48959, Note_on_c, 0, 71, 0
1, 48960, Note_on_c, 1, 66, 80
1, 48984, Note_on_c, 0, 70, 80
1, 49005, Note_on_c, 1, 66, 0
1, 49007, Note_on_c, 0, 70, 0
1, 49008, Note_on_c, 0, 80, 80
1, 49031, Note_on_c, 0, 80, 0
1, 49032, Note_on_c, 0, 70, 80
1, 49055, Note_on_c, 0, 70, 0
1, 49056, Note_on_c, 1, 63, 80
1, 49080, Note_on_c, 0, 70, 80
1, 49101, Note_on_c, 1, 63, 0
1, 49103, Note_on_c, 0, 70, 0
1, 49104, Note_on_c, 0, 78, 80
1, 49127, Note_on_c, 0, 78, 0
1, 49128, Note_on_c, 0, 70, 80
1, 49151, Note_on_c, 0, 70, 0
1, 49152, Note_on_c, 1, 60, 80
1, 49176, Note_on_c, 0, 68, 80
1, 49197, Note_on_c, 1, 60, 0
1, 49199, Note_on_c, 0, 68, 0
1, 49200, Note_on_c, 0, 78, 80
1, 49223, Note_on_c, 0, 78, 0
1, 49224, Note_on_c, 0, 68, 80
1, 49247, Note_on_c, 0, 68, 0
1, 49248, Note_on_c, 1, 61, 80
1, 49272, Note_on_c, 0, 68, 80
1, 49293, Note_on_c, 1, 61, 0
1, 49295, Note_on_c, 0, 68, 0
1, 49296, Note_on_c, 0, 77, 80
1, 49319, Note_on_c, 0, 77, 0
1, 49320, Note_on_c, 0, 68, 80
1, 49343, Note_on_c, 0, 68, 0
1, 49344, Note_on_c, 1, 58, 80
1, 49368, Note_on_c, 0, 66, 80
1, 49389, Note_on_c, 1, 58, 0
1, 49391, Note_on_c, 0, 66, 0
1, 49392, Note_on_c, 0, 77, 80
1, 49415, Note_on_c, 0, 77, 0
1, 49416, Note_on_c, 0, 66, 80
1, 49439, Note_on_c, 0, 66, 0
1, 49440, Note_on_c, 1, 60, 80
1, 49464, Note_on_c, 0, 66, 80
1, 49485, Note_on_c, 1, 60, 0
1, 49487, Note_on_c, 0, 66, 0
1, 49488, Note_on_c, 0, 75, 80
1, 49511, Note_on_c, 0, 75, 0
1, 49512, Note_on_c, 0, 66, 80
1, 49535, Note_on_c, 0, 66, 0
1, 49536, Note_on_c, 1, 57, 80
1, 49560, Note_on_c, 0, 65, 80
1, 49581, Note_on_c, 1, 57, 0
1, 49583, Note_on_c, 0, 65, 0
1, 49584, Note_on_c, 0, 75, 80
1, 49607, Note_on_c, 0, 75, 0
1, 49608, Note_on_c, 0, 65, 80
1, 49631, Note_on_c, 0, 65, 0
1, 49632, Note_on_c, 1, 58, 80
1, 49656, Note_on_c, 0, 65, 80
1, 49677, Note_on_c, 1, 58, 0
1, 49679, Note_on_c, 0, 65, 0
1, 49680, Note_on_c, 0, 73, 80
1, 49703, Note_on_c, 0, 73, 0
1, 49704, Note_on_c, 0, 65, 80
1, 49727, Note_on_c, 0, 65, 0
1, 49728, Note_on_c, 1, 55, 80
1, 49752, Note_on_c, 0, 63, 80
1, 49773, Note_on_c, 1, 55, 0
1, 49775, Note_on_c, 0, 63, 0
1, 49776, Note_on_c, 0, 73, 80
1, 49799, Note_on_c, 0, 73, 0
1, 49800, Note_on_c, 0, 63, 80
1, 49823, Note_on_c, 0, 63, 0
1, 49824, Note_on_c, 1, 56, 80
1, 49848, Note_on_c, 0, 63, 80
1, 49869, Note_on_c, 1, 56, 0
1, 49871, Note_on_c, 0, 63, 0
1, 49872, Note_on_c, 0, 72, 80
1, 49895, Note_on_c, 0, 72, 0
1, 49896, Note_on_c, 0, 63, 80
1, 49919, Note_on_c, 0, 63, 0
1, 49920, Note_on_c, 1, 53, 80
1, 49944, Note_on_c, 0, 62, 80
1, 49965, Note_on_c, 1, 53, 0
1, 49967, Note_on_c, 0, 62, 0
1, 49968, Note_on_c, 0, 71, 80
1, 49991, Note_on_c, 0, 71, 0
1, 49992, Note_on_c, 0, 62, 80
1, 50015, Note_on_c, 0, 62, 0
1, 50016, Note_on_c, 1, 56, 80
1, 50040, Note_on_c, 0, 62, 80
1, 50061, Note_on_c, 1, 56, 0
1, 50063, Note_on_c, 0, 62, 0
1, 50064, Note_on_c, 0, 71, 80
1, 50087, Note_on_c, 0, 71, 0
1, 50088, Note_on_c, 0, 62, 80
1, 50111, Note_on_c, 0, 62, 0
1, 50112, Note_on_c, 1, 59, 80
1, 50136, Note_on_c, 0, 62, 80
1, 50157, Note_on_c, 1, 59, 0
1, 50159, Note_on_c, 0, 62, 0
1, 50160, Note_on_c, 0, 71, 80
1, 50183, Note_on_c, 0, 71, 0
1, 50184, Note_on_c, 0, 62, 80
1, 50207, Note_on_c, 0, 62, 0
1, 50208, Note_on_c, 1, 56, 80
1, 50232, Note_on_c, 0, 62, 80
1, 50253, Note_on_c, 1, 56, 0
1, 50255, Note_on_c, 0, 62, 0
1, 50256, Note_on_c, 0, 71, 80
1, 50279, Note_on_c, 0, 71, 0
1, 50280, Note_on_c, 0, 62, 80
1, 50303, Note_on_c, 0, 62, 0
1, 50304, Note_on_c, 1, 53, 80
1, 50328, Note_on_c, 0, 62, 80
1, 50349, Note_on_c, 1, 53, 0
1, 50351, Note_on_c, 0, 62, 0
1, 50352, Note_on_c, 0, 71, 80
1, 50375, Note_on_c, 0, 71, 0
1, 50376, Note_on_c, 0, 62, 80
1, 50399, Note_on_c, 0, 62, 0
1, 50400, Note_on_c, 1, 56, 80
1, 50424, Note_on_c, 0, 62, 80
1, 50445, Note_on_c, 1, 56, 0
1, 50447, Note_on_c, 0, 62, 0
1, 50448, Note_on_c, 0, 71, 80
1, 50471, Note_on_c, 0, 71, 0
1, 50472, Note_on_c, 0, 62, 80
1, 50495, Note_on_c, 0, 62, 0
1, 50496, Note_on_c, 1, 59, 80
1, 50520, Note_on_c, 0, 62, 80
1, 50541, Note_on_c, 1, 59, 0
1, 50543, Note_on_c, 0, 62, 0
1, 50544, Note_on_c, 0, 71, 80
1, 50567, Note_on_c, 0, 71, 0
1, 50568, Note_on_c, 0, 62, 80
1, 50591, Note_on_c, 0, 62, 0
1, 50592, Note_on_c, 1, 56, 80
1, 50616, Note_on_c, 0, 62, 80
1, 50637, Note_on_c, 1, 56, 0
1, 50639, Note_on_c, 0, 62, 0
1, 50640, Note_on_c, 0, 71, 80
1, 50663, Note_on_c, 0, 71, 0
1, 50664, Note_on_c, 0, 62, 80
1, 50687, Note_on_c, 0, 62, 0
1, 50688, Note_on_c, 1, 51, 80
1, 50688, Note_on_c, 1, 39, 80
1, 50712, Note_on_c, 0, 61, 80
1, 50733, Note_on_c, 1, 51, 0
1, 50733, Note_on_c, 1, 39, 0
1, 50735, Note_on_c, 0, 61, 0
1, 50736, Note_on_c, 0, 70, 80
1, 50759, Note_on_c, 0, 70, 0
1, 50760, Note_on_c, 0, 61, 80
1, 50783, Note_on_c, 0, 61, 0
1, 50784, Note_on_c, 1, 55, 80
1, 50808, Note_on_c, 0, 61, 80
1, 50829, Note_on_c, 1, 55, 0
1, 50831, Note_on_c, 0, 61, 0
1, 50832, Note_on_c, 0, 70, 80
1, 50855, Note_on_c, 0, 70, 0
1, 50856, Note_on_c, 0, 61, 80
1, 50879, Note_on_c, 0, 61, 0
1, 50880, Note_on_c, 1, 58, 80
1, 50904, Note_on_c, 0, 61, 80
1, 50925, Note_on_c, 1, 58, 0
1, 50927, Note_on_c, 0, 61, 0
1, 50928, Note_on_c, 0, 70, 80
1, 50951, Note_on_c, 0, 70, 0
1, 50952, Note_on_c, 0, 61, 80
1, 50975, Note_on_c, 0, 61, 0
1, 50976, Note_on_c, 1, 55, 80
1, 51000, Note_on_c, 0, 61, 80
1, 51021, Note_on_c, 1, 55, 0
1, 51023, Note_on_c, 0, 61, 0
1, 51024, Note_on_c, 0, 70, 80
1, 51047, Note_on_c, 0, 70, 0
1, 51048, Note_on_c, 0, 61, 80
1, 51071, Note_on_c, 0, 61, 0
1, 51072, Note_on_c, 1, 51, 80
1, 51072, Note_on_c, 1, 39, 80
1, 51096, Note_on_c, 0, 61, 80
1, 51117, Note_on_c, 1, 51, 0
1, 51117, Note_on_c, 1, 39, 0
1, 51119, Note_on_c, 0, 61, 0
1, 51120, Note_on_c, 0, 70, 80
1, 51143, Note_on_c, 0, 70, 0
1, 51144, Note_on_c, 0, 61, 80
1, 51167, Note_on_c, 0, 61, 0
1, 51168, Note_on_c, 1, 55, 80
1, 51192, Note_on_c, 0, 61, 80
1, 51213, Note_on_c, 1, 55, 0
1, 51215, Note_on_c, 0, 61, 0
1, 51216, Note_on_c, 0, 70, 80
1, 51239, Note_on_c, 0, 70, 0
1, 51240, Note_on_c, 0, 61, 80
1, 51263, Note_on_c, 0, 61, 0
1, 51264, Note_on_c, 1, 58, 80
1, 51288, Note_on_c, 0, 61, 80
1, 51309, Note_on_c, 1, 58, 0
1, 51311, Note_on_c, 0, 61, 0
1, 51312, Note_on_c, 0, 70, 80
1, 51335, Note_on_c, 0, 70, 0
1, 51336, Note_on_c, 0, 61, 80
1, 51359, Note_on_c, 0, 61, 0
1, 51360, Note_on_c, 1, 55, 80
1, 51384, Note_on_c, 0, 61, 80
1, 51405, Note_on_c, 1, 55, 0
1, 51407, Note_on_c, 0, 61, 0
1, 51408, Note_on_c, 0, 70, 80
1, 51431, Note_on_c, 0, 70, 0
1, 51432, Note_on_c, 0, 61, 80
1, 51455, Note_on_c, 0, 61, 0
1, 51456, Note_on_c, 1, 51, 80
1, 51456, Note_on_c, 1, 39, 80
1, 51693, Note_on_c, 1, 51, 0
1, 51693, Note_on_c, 1, 39, 0
1, 51792, Note_on_c, 0, 60, 80
1, 51815, Note_on_c, 0, 60, 0
1, 51816, Note_on_c, 0, 61, 80
1, 51839, Note_on_c, 0, 61, 0
1, 51840, Note_on_c, 0, 63, 75
1, 51860, Note_on_c, 0, 63, 0
1, 51888, Note_on_c, 0, 63, 76
1, 51908, Note_on_c, 0, 63, 0
1, 51936, Note_on_c, 0, 63, 77
1, 51956, Note_on_c, 0, 63, 0
1, 51984, Note_on_c, 0, 68, 78
1, 52004, Note_on_c, 0, 68, 0
1, 52032, Note_on_c, 0, 63, 80
1, 52080, Note_on_c, 1, 48, 80
1, 52125, Note_on_c, 1, 48, 0
1, 52128, Note_on_c, 1, 46, 80
1, 52165, Note_on_c, 0, 63, 0
1, 52173, Note_on_c, 1, 46, 0
1, 52176, Note_on_c, 0, 61, 76
1, 52176, Note_on_c, 1, 44, 80
1, 52199, Note_on_c, 0, 61, 0
1, 52200, Note_on_c, 0, 60, 75
1, 52221, Note_on_c, 1, 44, 0
1, 52223, Note_on_c, 0, 60, 0
1, 52224, Note_on_c, 0, 58, 75
1, 52224, Note_on_c, 1, 43, 80
1, 52269, Note_on_c, 1, 43, 0
1, 52272, Note_on_c, 1, 39, 80
1, 52313, Note_on_c, 0, 58, 0
1, 52317, Note_on_c, 1, 39, 0
1, 52320, Note_on_c, 0, 60, 75
1, 52320, Note_on_c, 1, 44, 80
1, 52365, Note_on_c, 1, 44, 0
1, 52368, Note_on_c, 1, 39, 80
1, 52409, Note_on_c, 0, 60, 0
1, 52413, Note_on_c, 1, 39, 0
1, 52416, Note_on_c, 0, 63, 75
1, 52416, Note_on_c, 1, 46, 80
1, 52461, Note_on_c, 0, 63, 0
1, 52461, Note_on_c, 1, 46, 0
1, 52464, Note_on_c, 0, 61, 75
1, 52464, Note_on_c, 1, 39, 80
1, 52476, Note_on_c, 0, 61, 0
1, 52476, Note_on_c, 0, 60, 75
1, 52488, Note_on_c, 0, 60, 0
1, 52488, Note_on_c, 0, 61, 75
1, 52509, Note_on_c, 0, 61, 0
1, 52509, Note_on_c, 1, 39, 0
1, 52512, Note_on_c, 0, 60, 75
1, 52512, Note_on_c, 1, 44, 80
1, 52532, Note_on_c, 0, 60, 0
1, 52557, Note_on_c, 1, 44, 0
1, 52560, Note_on_c, 0, 60, 75
1, 52583, Note_on_c, 0, 60, 0
1, 52584, Note_on_c, 0, 61, 75
1, 52607, Note_on_c, 0, 61, 0
1, 52608, Note_on_c, 0, 63, 75
1, 52628, Note_on_c, 0, 63, 0
1, 52656, Note_on_c, 0, 63, 76
1, 52676, Note_on_c, 0, 63, 0
1, 52704, Note_on_c, 0, 63, 77
1, 52724, Note_on_c, 0, 63, 0
1, 52752, Note_on_c, 0, 68, 78
1, 52772, Note_on_c, 0, 68, 0
1, 52800, Note_on_c, 0, 63, 80
1, 52848, Note_on_c, 1, 48, 80
1, 52893, Note_on_c, 1, 48, 0
1, 52896, Note_on_c, 1, 46, 80
1, 52933, Note_on_c, 0, 63, 0
1, 52941, Note_on_c, 1, 46, 0
1, 52944, Note_on_c, 0, 61, 76
1, 52944, Note_on_c, 1, 44, 80
1, 52967, Note_on_c, 0, 61, 0
1, 52968, Note_on_c, 0, 60, 75
1, 52989, Note_on_c, 1, 44, 0
1, 52991, Note_on_c, 0, 60, 0
1, 52992, Note_on_c, 0, 58, 75
1, 52992, Note_on_c, 1, 49, 80
1, 53037, Note_on_c, 0, 58, 0
1, 53037, Note_on_c, 1, 49, 0
1, 53040, Note_on_c, 0, 61, 75
1, 53040, Note_on_c, 1, 46, 80
1, 53085, Note_on_c, 0, 61, 0
1, 53085, Note_on_c, 1, 46, 0
1, 53088, Note_on_c, 0, 55, 75
1, 53088, Note_on_c, 1, 51, 80
1, 53133, Note_on_c, 0, 55, 0
1, 53133, Note_on_c, 1, 51, 0
1, 53136, Note_on_c, 0, 58, 75
1, 53136, Note_on_c, 1, 39, 80
1, 53181, Note_on_c, 0, 58, 0
1, 53181, Note_on_c, 1, 39, 0
1, 53184, Note_on_c, 0, 56, 75
1, 53184, Note_on_c, 1, 44, 80
1, 53229, Note_on_c, 1, 44, 0
1, 53232, Note_on_c, 1, 39, 80
1, 53273, Note_on_c, 0, 56, 0
1, 53277, Note_on_c, 1, 39, 0
1, 53280, Note_on_c, 1, 32, 80
1, 53325, Note_on_c, 1, 32, 0
1, 53328, Note_on_c, 0, 72, 75
1, 53351, Note_on_c, 0, 72, 0
1, 53352, Note_on_c, 0, 73, 75
1, 53375, Note_on_c, 0, 73, 0
1, 53376, Note_on_c, 0, 75, 75
1, 53396, Note_on_c, 0, 75, 0
1, 53424, Note_on_c, 0, 75, 76
1, 53444, Note_on_c, 0, 75, 0
1, 53472, Note_on_c, 0, 75, 77
1, 53492, Note_on_c, 0, 75, 0
1, 53520, Note_on_c, 0, 87, 94
1, 53540, Note_on_c, 0, 87, 0
1, 53568, Note_on_c, 0, 75, 80
1, 53616, Note_on_c, 1, 60, 80
1, 53661, Note_on_c, 1, 60, 0
1, 53664, Note_on_c, 1, 58, 80
1, 53701, Note_on_c, 0, 75, 0
1, 53709, Note_on_c, 1, 58, 0
1, 53712, Note_on_c, 0, 73, 76
1, 53712, Note_on_c, 1, 56, 80
1, 53735, Note_on_c, 0, 73, 0
1, 53736, Note_on_c, 0, 72, 75
1, 53757, Note_on_c, 1, 56, 0
1, 53759, Note_on_c, 0, 72, 0
1, 53760, Note_on_c, 0, 70, 75
1, 53760, Note_on_c, 1, 55, 80
1, 53780, Note_on_c, 0, 70, 0
1, 53805, Note_on_c, 1, 55, 0
1, 53808, Note_on_c, 0, 87, 91
1, 53808, Note_on_c, 1, 51, 80
1, 53828, Note_on_c, 0, 87, 0
1, 53853, Note_on_c, 1, 51, 0
1, 53856, Note_on_c, 0, 72, 75
1, 53856, Note_on_c, 1, 56, 80
1, 53876, Note_on_c, 0, 72, 0
1, 53901, Note_on_c, 1, 56, 0
1, 53904, Note_on_c, 0, 87, 91
1, 53904, Note_on_c, 1, 51, 80
1, 53924, Note_on_c, 0, 87, 0
1, 53949, Note_on_c, 1, 51, 0
1, 53952, Note_on_c, 0, 75, 75
1, 53952, Note_on_c, 1, 58, 80
1, 53997, Note_on_c, 0, 75, 0
1, 53997, Note_on_c, 1, 58, 0
1, 54000, Note_on_c, 0, 73, 75
1, 54000, Note_on_c, 1, 51, 80
1, 54012, Note_on_c, 0, 73, 0
1, 54012, Note_on_c, 0, 72, 75
1, 54024, Note_on_c, 0, 72, 0
1, 54024, Note_on_c, 0, 73, 75
1, 54045, Note_on_c, 0, 73, 0
1, 54045, Note_on_c, 1, 51, 0
1, 54048, Note_on_c, 0, 72, 75
1, 54048, Note_on_c, 1, 56, 80
1, 54068, Note_on_c, 0, 72, 0
1, 54093, Note_on_c, 1, 56, 0
1, 54096, Note_on_c, 0, 72, 75
1, 54119, Note_on_c, 0, 72, 0
1, 54120, Note_on_c, 0, 73, 75
1, 54143, Note_on_c, 0, 73, 0
1, 54144, Note_on_c, 0, 75, 75
1, 54164, Note_on_c, 0, 75, 0
1, 54192, Note_on_c, 0, 75, 76
1, 54212, Note_on_c, 0, 75, 0
1, 54240, Note_on_c, 0, 75, 77
1, 54260, Note_on_c, 0, 75, 0
1, 54288, Note_on_c, 0, 87, 94
1, 54308, Note_on_c, 0, 87, 0
1, 54336, Note_on_c, 0, 75, 80
1, 54384, Note_on_c, 1, 60, 80
1, 54429, Note_on_c, 1, 60, 0
1, 54432, Note_on_c, 1, 58, 80
1, 54469, Note_on_c, 0, 75, 0
1, 54477, Note_on_c, 1, 58, 0
1, 54480, Note_on_c, 0, 73, 76
1, 54480, Note_on_c, 1, 56, 80
1, 54503, Note_on_c, 0, 73, 0
1, 54504, Note_on_c, 0, 72, 75
1, 54525, Note_on_c, 1, 56, 0
1, 54527, Note_on_c, 0, 72, 0
1, 54528, Note_on_c, 0, 70, 75
1, 54528, Note_on_c, 1, 61, 80
1, 54573, Note_on_c, 0, 70, 0
1, 54573, Note_on_c, 1, 61, 0
1, 54576, Note_on_c, 0, 85, 75
1, 54576, Note_on_c, 1, 58, 80
1, 54621, Note_on_c, 0, 85, 0
1, 54621, Note_on_c, 1, 58, 0
1, 54624, Note_on_c, 0, 67, 75
1, 54624, Note_on_c, 1, 63, 80
1, 54669, Note_on_c, 0, 67, 0
1, 54669, Note_on_c, 1, 63, 0
1, 54672, Note_on_c, 0, 70, 75
1, 54672, Note_on_c, 1, 51, 80
1, 54717, Note_on_c, 0, 70, 0
1, 54717, Note_on_c, 1, 51, 0
1, 54720, Note_on_c, 0, 68, 75
1, 54720, Note_on_c, 1, 56, 80
1, 54765, Note_on_c, 1, 56, 0
1, 54768, Note_on_c, 1, 51, 80
1, 54809, Note_on_c, 0, 68, 0
1, 54813, Note_on_c, 1, 51, 0
1, 54816, Note_on_c, 1, 44, 80
1, 54861, Note_on_c, 1, 44, 0
1, 54864, Note_on_c, 0, 75, 75
1, 54909, Note_on_c, 0, 75, 0
1, 54912, Note_on_c, 0, 77, 75
1, 54957, Note_on_c, 0, 77, 0
1, 54960, Note_on_c, 0, 75, 75
1, 55005, Note_on_c, 0, 75, 0
1, 55008, Note_on_c, 0, 74, 75
1, 55053, Note_on_c, 0, 74, 0
1, 55056, Note_on_c, 0, 83, 91
1, 55056, Note_on_c, 1, 74, 80
1, 55056, Note_on_c, 1, 68, 80
1, 55104, Note_on_c, 1, 74, 0
1, 55104, Note_on_c, 1, 68, 0
1, 55104, Note_on_c, 1, 75, 80
1, 55104, Note_on_c, 1, 67, 80
1, 55149, Note_on_c, 0, 83, 0
1, 55152, Note_on_c, 0, 81, 75
1, 55193, Note_on_c, 1, 75, 0
1, 55193, Note_on_c, 1, 67, 0
1, 55197, Note_on_c, 0, 81, 0
1, 55200, Note_on_c, 0, 82, 75
1, 55245, Note_on_c, 0, 82, 0
1, 55248, Note_on_c, 0, 72, 75
1, 55293, Note_on_c, 0, 72, 0
1, 55296, Note_on_c, 0, 73, 75
1, 55341, Note_on_c, 0, 73, 0
1, 55344, Note_on_c, 0, 72, 75
1, 55389, Note_on_c, 0, 72, 0
1, 55392, Note_on_c, 0, 71, 75
1, 55437, Note_on_c, 0, 71, 0
1, 55440, Note_on_c, 0, 80, 91
1, 55440, Note_on_c, 1, 71, 80
1, 55440, Note_on_c, 1, 65, 80
1, 55488, Note_on_c, 1, 71, 0
1, 55488, Note_on_c, 1, 65, 0
1, 55488, Note_on_c, 1, 72, 80
1, 55488, Note_on_c, 1, 63, 80
1, 55533, Note_on_c, 0, 80, 0
1, 55536, Note_on_c, 0, 78, 75
1, 55577, Note_on_c, 1, 72, 0
1, 55577, Note_on_c, 1, 63, 0
1, 55581, Note_on_c, 0, 78, 0
1, 55584, Note_on_c, 0, 79, 75
1, 55629, Note_on_c, 0, 79, 0
1, 55632, Note_on_c, 0, 68, 75
1, 55677, Note_on_c, 0, 68, 0
1, 55680, Note_on_c, 0, 70, 75
1, 55725, Note_on_c, 0, 70, 0
1, 55728, Note_on_c, 0, 68, 75
1, 55773, Note_on_c, 0, 68, 0
1, 55776, Note_on_c, 0, 67, 75
1, 55821, Note_on_c, 0, 67, 0
1, 55824, Note_on_c, 0, 77, 91
1, 55824, Note_on_c, 1, 67, 80
1, 55824, Note_on_c, 1, 61, 80
1, 55872, Note_on_c, 1, 67, 0
1, 55872, Note_on_c, 1, 61, 0
1, 55872, Note_on_c, 1, 68, 80
1, 55872, Note_on_c, 1, 60, 80
1, 55917, Note_on_c, 0, 77, 0
1, 55920, Note_on_c, 0, 74, 75
1, 55961, Note_on_c, 1, 68, 0
1, 55961, Note_on_c, 1, 60, 0
1, 55965, Note_on_c, 0, 74, 0
1, 55968, Note_on_c, 0, 75, 75
1, 56013, Note_on_c, 0, 75, 0
1, 56016, Note_on_c, 0, 75, 75
1, 56064, Note_on_c, 1, 65, 80
1, 56064, Note_on_c, 1, 58, 80
1, 56109, Note_on_c, 0, 75, 0
1, 56112, Note_on_c, 0, 74, 75
1, 56153, Note_on_c, 1, 65, 0
1, 56153, Note_on_c, 1, 58, 0
1, 56157, Note_on_c, 0, 74, 0
1, 56160, Note_on_c, 0, 80, 75
1, 56205, Note_on_c, 0, 80, 0
1, 56208, Note_on_c, 0, 80, 75
1, 56256, Note_on_c, 1, 67, 82
1, 56256, Note_on_c, 1, 63, 82
1, 56301, Note_on_c, 0, 80, 0
1, 56304, Note_on_c, 0, 79, 75
1, 56345, Note_on_c, 1, 67, 0
1, 56345, Note_on_c, 1, 63, 0
1, 56349, Note_on_c, 0, 79, 0
1, 56352, Note_on_c, 0, 82, 75
1, 56397, Note_on_c, 0, 82, 0
1, 56400, Note_on_c, 0, 75, 75
1, 56448, Note_on_c, 1, 65, 84
1, 56448, Note_on_c, 1, 58, 84
1, 56493, Note_on_c, 0, 75, 0
1, 56496, Note_on_c, 0, 74, 75
1, 56537, Note_on_c, 1, 65, 0
1, 56537, Note_on_c, 1, 58, 0
1, 56541, Note_on_c, 0, 74, 0
1, 56544, Note_on_c, 0, 80, 75
1, 56564, Note_on_c, 0, 80, 0
1, 56592, Note_on_c, 0, 80, 75
1, 56637, Note_on_c, 0, 80, 0
1, 56640, Note_on_c, 0, 80, 75
1, 56784, Note_on_c, 1, 63, 86
1, 56921, Note_on_c, 1, 63, 0
1, 56928, Note_on_c, 1, 51, 86
1, 57069, Note_on_c, 1, 51, 0
1, 57072, Note_on_c, 1, 39, 86
1, 57130, Note_on_c, 1, 39, 0
1, 57201, Note_on_c, 0, 80, 0
1, 57216, Note_on_c, 0, 78, 75
1, 57349, Note_on_c, 0, 78, 0
1, 57360, Note_on_c, 0, 79, 75
1, 57497, Note_on_c, 0, 79, 0
1, 57504, Note_on_c, 0, 74, 75
1, 57645, Note_on_c, 0, 74, 0
1, 57648, Note_on_c, 0, 77, 75
1, 57837, Note_on_c, 0, 77, 0
1, 57840, Note_on_c, 0, 75, 75
1, 57973, Note_on_c, 0, 75, 0
1, 57984, Note_on_c, 0, 75, 75
1, 58309, Note_on_c, 0, 75, 0
1, 58320, Note_on_c, 0, 72, 75
1, 58343, Note_on_c, 0, 72, 0
1, 58344, Note_on_c, 0, 73, 75
1, 58367, Note_on_c, 0, 73, 0
1, 58368, Note_on_c, 0, 75, 75
1, 58388, Note_on_c, 0, 75, 0
1, 58416, Note_on_c, 0, 75, 76
1, 58436, Note_on_c, 0, 75, 0
1, 58464, Note_on_c, 0, 75, 77
1, 58484, Note_on_c, 0, 75, 0
1, 58512, Note_on_c, 0, 87, 94
1, 58532, Note_on_c, 0, 87, 0
1, 58560, Note_on_c, 0, 75, 80
1, 58608, Note_on_c, 1, 60, 86
1, 58653, Note_on_c, 1, 60, 0
1, 58656, Note_on_c, 1, 58, 86
1, 58693, Note_on_c, 0, 75, 0
1, 58701, Note_on_c, 1, 58, 0
1, 58704, Note_on_c, 0, 73, 76
1, 58704, Note_on_c, 1, 56, 86
1, 58727, Note_on_c, 0, 73, 0
1, 58728, Note_on_c, 0, 72, 75
1, 58749, Note_on_c, 1, 56, 0
1, 58751, Note_on_c, 0, 72, 0
1, 58752, Note_on_c, 0, 70, 75
1, 58752, Note_on_c, 1, 55, 86
1, 58772, Note_on_c, 0, 70, 0
1, 58797, Note_on_c, 1, 55, 0
1, 58800, Note_on_c, 0, 87, 91
1, 58800, Note_on_c, 1, 51, 86
1, 58820, Note_on_c, 0, 87, 0
1, 58845, Note_on_c, 1, 51, 0
1, 58848, Note_on_c, 0, 72, 75
1, 58848, Note_on_c, 1, 56, 86
1, 58868, Note_on_c, 0, 72, 0
1, 58893, Note_on_c, 1, 56, 0
1, 58896, Note_on_c, 0, 87, 91
1, 58896, Note_on_c, 1, 51, 86
1, 58916, Note_on_c, 0, 87, 0
1, 58941, Note_on_c, 1, 51, 0
1, 58944, Note_on_c, 0, 75, 75
1, 58944, Note_on_c, 1, 58, 86
1, 58989, Note_on_c, 0, 75, 0
1, 58989, Note_on_c, 1, 58, 0
1, 58992, Note_on_c, 0, 73, 75
1, 58992, Note_on_c, 1, 51, 86
1, 59004, Note_on_c, 0, 73, 0
1, 59004, Note_on_c, 0, 72, 75
1, 59016, Note_on_c, 0, 72, 0
1, 59016, Note_on_c, 0, 73, 75
1, 59037, Note_on_c, 0, 73, 0
1, 59037, Note_on_c, 1, 51, 0
1, 59040, Note_on_c, 0, 72, 75
1, 59040, Note_on_c, 1, 56, 86
1, 59060, Note_on_c, 0, 72, 0
1, 59085, Note_on_c, 1, 56, 0
1, 59088, Note_on_c, 0, 72, 75
1, 59111, Note_on_c, 0, 72, 0
1, 59112, Note_on_c, 0, 73, 75
1, 59135, Note_on_c, 0, 73, 0
1, 59136, Note_on_c, 0, 75, 75
1, 59156, Note_on_c, 0, 75, 0
1, 59184, Note_on_c, 0, 75, 76
1, 59204, Note_on_c, 0, 75, 0
1, 59232, Note_on_c, 0, 75, 77
1, 59252, Note_on_c, 0, 75, 0
1, 59280, Note_on_c, 0, 87, 94
1, 59300, Note_on_c, 0, 87, 0
1, 59328, Note_on_c, 0, 75, 80
1, 59376, Note_on_c, 1, 60, 86
1, 59421, Note_on_c, 1, 60, 0
1, 59424, Note_on_c, 1, 58, 86
1, 59461, Note_on_c, 0, 75, 0
1, 59469, Note_on_c, 1, 58, 0
1, 59472, Note_on_c, 0, 73, 76
1, 59472, Note_on_c, 1, 56, 86
1, 59495, Note_on_c, 0, 73, 0
1, 59496, Note_on_c, 0, 72, 75
1, 59517, Note_on_c, 1, 56, 0
1, 59519, Note_on_c, 0, 72, 0
1, 59520, Note_on_c, 0, 70, 75
1, 59520, Note_on_c, 1, 61, 86
1, 59565, Note_on_c, 0, 70, 0
1, 59565, Note_on_c, 1, 61, 0
1, 59568, Note_on_c, 0, 85, 91
1, 59568, Note_on_c, 1, 58, 86
1, 59613, Note_on_c, 1, 58, 0
1, 59616, Note_on_c, 0, 85, 0
1, 59616, Note_on_c, 0, 67, 75
1, 59616, Note_on_c, 1, 63, 86
1, 59661, Note_on_c, 0, 67, 0
1, 59661, Note_on_c, 1, 63, 0
1, 59664, Note_on_c, 0, 70, 75
1, 59664, Note_on_c, 1, 51, 86
1, 59709, Note_on_c, 0, 70, 0
1, 59709, Note_on_c, 1, 51, 0
1, 59712, Note_on_c, 0, 68, 75
1, 59712, Note_on_c, 1, 56, 86
1, 59757, Note_on_c, 1, 56, 0
1, 59760, Note_on_c, 1, 51, 86
1, 59801, Note_on_c, 0, 68, 0
1, 59805, Note_on_c, 1, 51, 0
1, 59808, Note_on_c, 1, 44, 86
1, 59853, Note_on_c, 1, 44, 0
1, 59856, Note_on_c, 0, 75, 75
1, 59901, Note_on_c, 0, 75, 0
1, 59904, Note_on_c, 0, 77, 75
1, 59949, Note_on_c, 0, 77, 0
1, 59952, Note_on_c, 0, 75, 75
1, 59997, Note_on_c, 0, 75, 0
1, 60000, Note_on_c, 0, 74, 75
1, 60045, Note_on_c, 0, 74, 0
1, 60048, Note_on_c, 0, 83, 91
1, 60048, Note_on_c, 1, 74, 80
1, 60048, Note_on_c, 1, 68, 80
1, 60096, Note_on_c, 1, 74, 0
1, 60096, Note_on_c, 1, 68, 0
1, 60096, Note_on_c, 1, 75, 80
1, 60096, Note_on_c, 1, 67, 80
1, 60141, Note_on_c, 0, 83, 0
1, 60144, Note_on_c, 0, 81, 75
1, 60185, Note_on_c, 1, 75, 0
1, 60185, Note_on_c, 1, 67, 0
1, 60189, Note_on_c, 0, 81, 0
1, 60192, Note_on_c, 0, 82, 75
1, 60237, Note_on_c, 0, 82, 0
1, 60240, Note_on_c, 0, 72, 75
1, 60285, Note_on_c, 0, 72, 0
1, 60288, Note_on_c, 0, 73, 75
1, 60333, Note_on_c, 0, 73, 0
1, 60336, Note_on_c, 0, 72, 75
1, 60381, Note_on_c, 0, 72, 0
1, 60384, Note_on_c, 0, 71, 75
1, 60429, Note_on_c, 0, 71, 0
1, 60432, Note_on_c, 0, 80, 91
1, 60432, Note_on_c, 1, 71, 80
1, 60432, Note_on_c, 1, 65, 80
1, 60480, Note_on_c, 1, 71, 0
1, 60480, Note_on_c, 1, 65, 0
1, 60480, Note_on_c, 1, 72, 80
1, 60480, Note_on_c, 1, 63, 80
1, 60525, Note_on_c, 0, 80, 0
1, 60528, Note_on_c, 0, 78, 75
1, 60569, Note_on_c, 1, 72, 0
1, 60569, Note_on_c, 1, 63, 0
1, 60573, Note_on_c, 0, 78, 0
1, 60576, Note_on_c, 0, 79, 75
1, 60621, Note_on_c, 0, 79, 0
1, 60624, Note_on_c, 0, 68, 75
1, 60669, Note_on_c, 0, 68, 0
1, 60672, Note_on_c, 0, 70, 75
1, 60717, Note_on_c, 0, 70, 0
1, 60720, Note_on_c, 0, 68, 75
1, 60765, Note_on_c, 0, 68, 0
1, 60768, Note_on_c, 0, 67, 75
1, 60813, Note_on_c, 0, 67, 0
1, 60816, Note_on_c, 0, 77, 91
1, 60816, Note_on_c, 1, 67, 80
1, 60816, Note_on_c, 1, 61, 80
1, 60864, Note_on_c, 1, 67, 0
1, 60864, Note_on_c, 1, 61, 0
1, 60864, Note_on_c, 1, 68, 80
1, 60864, Note_on_c, 1, 60, 80
1, 60909, Note_on_c, 0, 77, 0
1, 60912, Note_on_c, 0, 74, 75
1, 60953, Note_on_c, 1, 68, 0
1, 60953, Note_on_c, 1, 60, 0
1, 60957, Note_on_c, 0, 74, 0
1, 60960, Note_on_c, 0, 75, 75
1, 61005, Note_on_c, 0, 75, 0
1, 61008, Note_on_c, 0, 75, 75
1, 61056, Note_on_c, 1, 65, 80
1, 61056, Note_on_c, 1, 58, 80
1, 61101, Note_on_c, 0, 75, 0
1, 61104, Note_on_c, 0, 74, 75
1, 61145, Note_on_c, 1, 65, 0
1, 61145, Note_on_c, 1, 58, 0
1, 61149, Note_on_c, 0, 74, 0
1, 61152, Note_on_c, 0, 80, 75
1, 61197, Note_on_c, 0, 80, 0
1, 61200, Note_on_c, 0, 80, 75
1, 61248, Note_on_c, 1, 67, 82
1, 61248, Note_on_c, 1, 63, 82
1, 61293, Note_on_c, 0, 80, 0
1, 61296, Note_on_c, 0, 79, 75
1, 61337, Note_on_c, 1, 67, 0
1, 61337, Note_on_c, 1, 63, 0
1, 61341, Note_on_c, 0, 79, 0
1, 61344, Note_on_c, 0, 82, 75
1, 61389, Note_on_c, 0, 82, 0
1, 61392, Note_on_c, 0, 75, 75
1, 61440, Note_on_c, 1, 65, 84
1, 61440, Note_on_c, 1, 58, 84
1, 61485, Note_on_c, 0, 75, 0
1, 61488, Note_on_c, 0, 74, 75
1, 61529, Note_on_c, 1, 65, 0
1, 61529, Note_on_c, 1, 58, 0
1, 61533, Note_on_c, 0, 74, 0
1, 61536, Note_on_c, 0, 80, 75
1, 61556, Note_on_c, 0, 80, 0
1, 61584, Note_on_c, 0, 80, 75
1, 61629, Note_on_c, 0, 80, 0
1, 61632, Note_on_c, 0, 80, 75
1, 61776, Note_on_c, 1, 63, 86
1, 61913, Note_on_c, 1, 63, 0
1, 61920, Note_on_c, 1, 51, 86
1, 62061, Note_on_c, 1, 51, 0
1, 62064, Note_on_c, 1, 39, 86
1, 62122, Note_on_c, 1, 39, 0
1, 62193, Note_on_c, 0, 80, 0
1, 62208, Note_on_c, 0, 78, 75
1, 62341, Note_on_c, 0, 78, 0
1, 62352, Note_on_c, 0, 79, 75
1, 62489, Note_on_c, 0, 79, 0
1, 62496, Note_on_c, 0, 74, 75
1, 62637, Note_on_c, 0, 74, 0
1, 62640, Note_on_c, 0, 77, 75
1, 62829, Note_on_c, 0, 77, 0
1, 62832, Note_on_c, 0, 75, 75
1, 62965, Note_on_c, 0, 75, 0
1, 62976, Note_on_c, 0, 75, 75
1, 63301, Note_on_c, 0, 75, 0
1, 63312, Note_on_c, 0, 72, 75
1, 63335, Note_on_c, 0, 72, 0
1, 63336, Note_on_c, 0, 73, 75
1, 63359, Note_on_c, 0, 73, 0
1, 63360, Note_on_c, 0, 75, 75
1, 63380, Note_on_c, 0, 75, 0
1, 63408, Note_on_c, 0, 75, 76
1, 63428, Note_on_c, 0, 75, 0
1, 63456, Note_on_c, 0, 75, 77
1, 63476, Note_on_c, 0, 75, 0
1, 63504, Note_on_c, 0, 87, 94
1, 63524, Note_on_c, 0, 87, 0
1, 63552, Note_on_c, 0, 75, 80
1, 63600, Note_on_c, 1, 60, 86
1, 63645, Note_on_c, 1, 60, 0
1, 63648, Note_on_c, 1, 58, 86
1, 63685, Note_on_c, 0, 75, 0
1, 63693, Note_on_c, 1, 58, 0
1, 63696, Note_on_c, 0, 73, 76
1, 63696, Note_on_c, 1, 56, 86
1, 63719, Note_on_c, 0, 73, 0
1, 63720, Note_on_c, 0, 72, 75
1, 63741, Note_on_c, 1, 56, 0
1, 63743, Note_on_c, 0, 72, 0
1, 63744, Note_on_c, 0, 70, 75
1, 63744, Note_on_c, 1, 55, 86
1, 63764, Note_on_c, 0, 70, 0
1, 63789, Note_on_c, 1, 55, 0
1, 63792, Note_on_c, 0, 87, 91
1, 63792, Note_on_c, 1, 51, 86
1, 63812, Note_on_c, 0, 87, 0
1, 63837, Note_on_c, 1, 51, 0
1, 63840, Note_on_c, 0, 72, 75
1, 63840, Note_on_c, 1, 56, 86
1, 63860, Note_on_c, 0, 72, 0
1, 63885, Note_on_c, 1, 56, 0
1, 63888, Note_on_c, 0, 87, 91
1, 63888, Note_on_c, 1, 51, 86
1, 63908, Note_on_c, 0, 87, 0
1, 63933, Note_on_c, 1, 51, 0
1, 63936, Note_on_c, 0, 75, 75
1, 63936, Note_on_c, 1, 58, 86
1, 63981, Note_on_c, 0, 75, 0
1, 63981, Note_on_c, 1, 58, 0
1, 63984, Note_on_c, 0, 73, 75
1, 63984, Note_on_c, 1, 51, 86
1, 63996, Note_on_c, 0, 73, 0
1, 63996, Note_on_c, 0, 72, 75
1, 64008, Note_on_c, 0, 72, 0
1, 64008, Note_on_c, 0, 73, 75
1, 64029, Note_on_c, 0, 73, 0
1, 64029, Note_on_c, 1, 51, 0
1, 64032, Note_on_c, 0, 72, 75
1, 64032, Note_on_c, 1, 56, 86
1, 64052, Note_on_c, 0, 72, 0
1, 64077, Note_on_c, 1, 56, 0
1, 64080, Note_on_c, 0, 72, 75
1, 64103, Note_on_c, 0, 72, 0
1, 64104, Note_on_c, 0, 73, 75
1, 64127, Note_on_c, 0, 73, 0
1, 64128, Note_on_c, 0, 75, 75
1, 64148, Note_on_c, 0, 75, 0
1, 64176, Note_on_c, 0, 75, 76
1, 64196, Note_on_c, 0, 75, 0
1, 64224, Note_on_c, 0, 75, 77
1, 64244, Note_on_c, 0, 75, 0
1, 64272, Note_on_c, 0, 87, 94
1, 64292, Note_on_c, 0, 87, 0
1, 64320, Note_on_c, 0, 75, 80
1, 64368, Note_on_c, 1, 60, 86
1, 64413, Note_on_c, 1, 60, 0
1, 64416, Note_on_c, 1, 58, 86
1, 64453, Note_on_c, 0, 75, 0
1, 64461, Note_on_c, 1, 58, 0
1, 64464, Note_on_c, 0, 73, 76
1, 64464, Note_on_c, 1, 56, 86
1, 64487, Note_on_c, 0, 73, 0
1, 64488, Note_on_c, 0, 72, 75
1, 64509, Note_on_c, 1, 56, 0
1, 64511, Note_on_c, 0, 72, 0
1, 64512, Note_on_c, 0, 70, 75
1, 64512, Note_on_c, 1, 61, 86
1, 64557, Note_on_c, 0, 70, 0
1, 64557, Note_on_c, 1, 61, 0
1, 64560, Note_on_c, 0, 85, 91
1, 64560, Note_on_c, 1, 58, 86
1, 64605, Note_on_c, 1, 58, 0
1, 64608, Note_on_c, 0, 85, 0
1, 64608, Note_on_c, 0, 67, 75
1, 64608, Note_on_c, 1, 63, 86
1, 64653, Note_on_c, 0, 67, 0
1, 64653, Note_on_c, 1, 63, 0
1, 64656, Note_on_c, 0, 70, 75
1, 64656, Note_on_c, 1, 51, 86
1, 64701, Note_on_c, 0, 70, 0
1, 64701, Note_on_c, 1, 51, 0
1, 64704, Note_on_c, 0, 68, 75
1, 64704, Note_on_c, 1, 56, 86
1, 64749, Note_on_c, 0, 68, 0
1, 64749, Note_on_c, 1, 56, 0
1, 64752, Note_on_c, 1, 44, 86
1, 64797, Note_on_c, 1, 44, 0
1, 64800, Note_on_c, 0, 77, 80
1, 64800, Note_on_c, 1, 61, 64
1, 64800, Note_on_c, 1, 56, 64
1, 64823, Note_on_c, 0, 77, 0
1, 64824, Note_on_c, 0, 80, 80
1, 64845, Note_on_c, 1, 61, 0
1, 64845, Note_on_c, 1, 56, 0
1, 64847, Note_on_c, 0, 80, 0
1, 64848, Note_on_c, 0, 77, 80
1, 64848, Note_on_c, 1, 61, 64
1, 64848, Note_on_c, 1, 56, 64
1, 64871, Note_on_c, 0, 77, 0
1, 64872, Note_on_c, 0, 80, 80
1, 64893, Note_on_c, 1, 61, 0
1, 64893, Note_on_c, 1, 56, 0
1, 64895, Note_on_c, 0, 80, 0
1, 64896, Note_on_c, 0, 75, 80
1, 64896, Note_on_c, 1, 60, 64
1, 64896, Note_on_c, 1, 56, 64
1, 64941, Note_on_c, 0, 75, 0
1, 64941, Note_on_c, 1, 60, 0
1, 64941, Note_on_c, 1, 56, 0
1, 64944, Note_on_c, 1, 60, 64
1, 64944, Note_on_c, 1, 56, 64
1, 64989, Note_on_c, 1, 60, 0
1, 64989, Note_on_c, 1, 56, 0
1, 64992, Note_on_c, 0, 73, 80
1, 64992, Note_on_c, 1, 65, 64
1, 64992, Note_on_c, 1, 56, 64
1, 65015, Note_on_c, 0, 73, 0
1, 65016, Note_on_c, 0, 80, 80
1, 65037, Note_on_c, 1, 65, 0
1, 65037, Note_on_c, 1, 56, 0
1, 65039, Note_on_c, 0, 80, 0
1, 65040, Note_on_c, 0, 73, 80
1, 65040, Note_on_c, 1, 65, 64
1, 65040, Note_on_c, 1, 56, 64
1, 65063, Note_on_c, 0, 73, 0
1, 65064, Note_on_c, 0, 80, 80
1, 65085, Note_on_c, 1, 65, 0
1, 65085, Note_on_c, 1, 56, 0
1, 65087, Note_on_c, 0, 80, 0
1, 65088, Note_on_c, 0, 72, 80
1, 65088, Note_on_c, 1, 63, 64
1, 65088, Note_on_c, 1, 56, 64
1, 65133, Note_on_c, 0, 72, 0
1, 65133, Note_on_c, 1, 63, 0
1, 65133, Note_on_c, 1, 56, 0
1, 65136, Note_on_c, 1, 63, 64
1, 65136, Note_on_c, 1, 56, 64
1, 65181, Note_on_c, 1, 63, 0
1, 65181, Note_on_c, 1, 56, 0
1, 65184, Note_on_c, 0, 77, 80
1, 65184, Note_on_c, 1, 61, 64
1, 65184, Note_on_c, 1, 56, 64
1, 65207, Note_on_c, 0, 77, 0
1, 65208, Note_on_c, 0, 80, 80
1, 65229, Note_on_c, 1, 61, 0
1, 65229, Note_on_c, 1, 56, 0
1, 65231, Note_on_c, 0, 80, 0
1, 65232, Note_on_c, 0, 77, 80
1, 65232, Note_on_c, 1, 61, 64
1, 65232, Note_on_c, 1, 56, 64
1, 65255, Note_on_c, 0, 77, 0
1, 65256, Note_on_c, 0, 80, 80
1, 65277, Note_on_c, 1, 61, 0
1, 65277, Note_on_c, 1, 56, 0
1, 65279, Note_on_c, 0, 80, 0
1, 65280, Note_on_c, 0, 75, 80
1, 65280, Note_on_c, 1, 60, 64
1, 65280, Note_on_c, 1, 56, 64
1, 65325, Note_on_c, 0, 75, 0
1, 65325, Note_on_c, 1, 60, 0
1, 65325, Note_on_c, 1, 56, 0
1, 65408, Note_on_c, 0, 84, 64
1, 65438, Note_on_c, 0, 84, 0
1, 65440, Note_on_c, 0, 82, 64
1, 65470, Note_on_c, 0, 82, 0
1, 65472, Note_on_c, 0, 80, 64
1, 65472, Note_on_c, 1, 48, 58
1, 65472, Note_on_c, 1, 36, 58
1, 65502, Note_on_c, 0, 80, 0
1, 65504, Note_on_c, 0, 79, 64
1, 65534, Note_on_c, 0, 79, 0
1, 65536, Note_on_c, 0, 77, 64
1, 65561, Note_on_c, 1, 48, 0
1, 65561, Note_on_c, 1, 36, 0
1, 65566, Note_on_c, 0, 77, 0
1, 65568, Note_on_c, 0, 75, 64
1, 65598, Note_on_c, 0, 75, 0
1, 65600, Note_on_c, 0, 73, 64
1, 65630, Note_on_c, 0, 73, 0
1, 65632, Note_on_c, 0, 72, 64
1, 65662, Note_on_c, 0, 72, 0
1, 65664, Note_on_c, 0, 70, 64
1, 65664, Note_on_c, 1, 49, 58
1, 65664, Note_on_c, 1, 37, 58
1, 65709, Note_on_c, 0, 70, 0
1, 65753, Note_on_c, 1, 49, 0
1, 65753, Note_on_c, 1, 37, 0
1, 65792, Note_on_c, 0, 70, 64
1, 65822, Note_on_c, 0, 70, 0
1, 65824, Note_on_c, 0, 68, 64
1, 65854, Note_on_c, 0, 68, 0
1, 65856, Note_on_c, 0, 67, 64
1, 65856, Note_on_c, 1, 51, 58
1, 65856, Note_on_c, 1, 39, 58
1, 65886, Note_on_c, 0, 67, 0
1, 65888, Note_on_c, 0, 65, 64
1, 65918, Note_on_c, 0, 65, 0
1, 65920, Note_on_c, 0, 63, 64
1, 65945, Note_on_c, 1, 51, 0
1, 65945, Note_on_c, 1, 39, 0
1, 65950, Note_on_c, 0, 63, 0
1, 65952, Note_on_c, 0, 61, 64
1, 65982, Note_on_c, 0, 61, 0
1, 65984, Note_on_c, 0, 60, 64
1, 66014, Note_on_c, 0, 60, 0
1, 66016, Note_on_c, 0, 58, 64
1, 66046, Note_on_c, 0, 58, 0
1, 66048, Note_on_c, 0, 56, 64
1, 66048, Note_on_c, 1, 44, 58
1, 66048, Note_on_c, 1, 32, 58
1, 66093, Note_on_c, 0, 56, 0
1, 66096, Note_on_c, 0, 56, 64
1, 66137, Note_on_c, 1, 44, 0
1, 66137, Note_on_c, 1, 32, 0
1, 66141, Note_on_c, 0, 56, 0
1, 66144, Note_on_c, 0, 56, 64
1, 66167, Note_on_c, 0, 56, 0
1, 66168, Note_on_c, 0, 60, 64
1, 66191, Note_on_c, 0, 60, 0
1, 66192, Note_on_c, 0, 63, 64
1, 66215, Note_on_c, 0, 63, 0
1, 66216, Note_on_c, 0, 60, 64
1, 66239, Note_on_c, 0, 60, 0
1, 66240, Note_on_c, 0, 56, 64
1, 66285, Note_on_c, 0, 56, 0
1, 66288, Note_on_c, 0, 56, 64
1, 66333, Note_on_c, 0, 56, 0
1, 66336, Note_on_c, 0, 56, 64
1, 66359, Note_on_c, 0, 56, 0
1, 66360, Note_on_c, 0, 60, 64
1, 66383, Note_on_c, 0, 60, 0
1, 66384, Note_on_c, 0, 63, 64
1, 66407, Note_on_c, 0, 63, 0
1, 66408, Note_on_c, 0, 60, 64
1, 66431, Note_on_c, 0, 60, 0
1, 66432, Note_on_c, 0, 56, 64
1, 66521, Note_on_c, 0, 56, 0
1, 66528, Note_on_c, 0, 60, 86
1, 66528, Note_on_c, 1, 44, 86
1, 66528, Note_on_c, 1, 32, 86
1, 66540, Note_on_c, 0, 63, 86
1, 66552, Note_on_c, 0, 68, 86
1, 66617, Note_on_c, 1, 44, 0
1, 66617, Note_on_c, 1, 32, 0
1, 66623, Note_on_c, 0, 68, 0
1, 66623, Note_on_c, 0, 63, 0
1, 66623, Note_on_c, 0, 60, 0
1, 66624, Note_on_c, 1, 44, 4
1, 66624, Note_on_c, 1, 32, 4
1, 66713, Note_on_c, 1, 44, 0
1, 66713, Note_on_c, 1, 32, 0
1, 66723, End_track
0, 0, End_of_file