0, 0, Header, 0, 1, 96
1, 0, Start_track
1, 0, Tempo, 645161
1, 0, Note_on_c, 0, 61, 85
1, 0, Note_on_c, 1, 49, 85
1, 0, Note_on_c, 1, 37, 85
1, 45, Note_on_c, 0, 61, 0
1, 45, Note_on_c, 1, 49, 0
1, 45, Note_on_c, 1, 37, 0
1, 48, Note_on_c, 0, 61, 85
1, 48, Note_on_c, 1, 49, 85
1, 60, Note_on_c, 0, 61, 0
1, 60, Note_on_c, 0, 60, 85
1, 60, Note_on_c, 1, 49, 0
1, 60, Note_on_c, 1, 48, 85
1, 72, Note_on_c, 0, 60, 0
1, 72, Note_on_c, 0, 61, 85
1, 72, Note_on_c, 1, 48, 0
1, 72, Note_on_c, 1, 49, 85
1, 84, Note_on_c, 0, 61, 0
1, 84, Note_on_c, 0, 63, 85
1, 84, Note_on_c, 1, 49, 0
1, 84, Note_on_c, 1, 51, 85
1, 96, Note_on_c, 0, 63, 0
1, 96, Note_on_c, 0, 64, 85
1, 96, Note_on_c, 1, 51, 0
1, 96, Note_on_c, 1, 52, 85
1, 116, Note_on_c, 0, 64, 0
1, 116, Note_on_c, 1, 52, 0
1, 144, Note_on_c, 0, 63, 85
1, 144, Note_on_c, 1, 51, 85
1, 164, Note_on_c, 0, 63, 0
1, 164, Note_on_c, 1, 51, 0
1, 192, Note_on_c, 0, 61, 85
1, 192, Note_on_c, 1, 49, 85
1, 212, Note_on_c, 0, 61, 0
1, 212, Note_on_c, 1, 49, 0
1, 240, Note_on_c, 0, 56, 85
1, 240, Note_on_c, 1, 44, 85
1, 260, Note_on_c, 0, 56, 0
1, 260, Note_on_c, 1, 44, 0
1, 288, Note_on_c, 0, 61, 85
1, 288, Note_on_c, 1, 49, 85
1, 308, Note_on_c, 0, 61, 0
1, 308, Note_on_c, 1, 49, 0
1, 336, Note_on_c, 0, 64, 85
1, 336, Note_on_c, 1, 52, 85
1, 356, Note_on_c, 0, 64, 0
1, 356, Note_on_c, 1, 52, 0
1, 384, Note_on_c, 0, 61, 85
1, 384, Note_on_c, 1, 49, 85
1, 429, Note_on_c, 0, 61, 0
1, 432, Note_on_c, 0, 68, 70
1, 473, Note_on_c, 1, 49, 0
1, 477, Note_on_c, 0, 68, 0
1, 480, Note_on_c, 0, 68, 70
1, 525, Note_on_c, 0, 68, 0
1, 528, Note_on_c, 0, 68, 70
1, 573, Note_on_c, 0, 68, 0
1, 576, Note_on_c, 0, 69, 70
1, 582, Note_on_c, 0, 69, 0
1, 582, Note_on_c, 0, 68, 70
1, 588, Note_on_c, 0, 68, 0
1, 588, Note_on_c, 0, 67, 70
1, 594, Note_on_c, 0, 67, 0
1, 594, Note_on_c, 0, 68, 70
1, 624, Note_on_c, 1, 64, 63
1, 624, Note_on_c, 1, 61, 63
1, 665, Note_on_c, 0, 68, 0
1, 669, Note_on_c, 1, 64, 0
1, 669, Note_on_c, 1, 61, 0
1, 672, Note_on_c, 1, 63, 63
1, 672, Note_on_c, 1, 60, 63
1, 717, Note_on_c, 1, 63, 0
1, 717, Note_on_c, 1, 60, 0
1, 720, Note_on_c, 1, 64, 63
1, 720, Note_on_c, 1, 61, 63
1, 765, Note_on_c, 1, 64, 0
1, 765, Note_on_c, 1, 61, 0
1, 768, Note_on_c, 1, 66, 63
1, 768, Note_on_c, 1, 63, 63
1, 807, Note_on_c, 1, 66, 0
1, 807, Note_on_c, 1, 63, 0
1, 816, Note_on_c, 0, 68, 70
1, 861, Note_on_c, 0, 68, 0
1, 864, Note_on_c, 0, 68, 70
1, 909, Note_on_c, 0, 68, 0
1, 912, Note_on_c, 0, 68, 70
1, 957, Note_on_c, 0, 68, 0
1, 960, Note_on_c, 0, 69, 70
1, 966, Note_on_c, 0, 69, 0
1, 966, Note_on_c, 0, 68, 70
1, 972, Note_on_c, 0, 68, 0
1, 972, Note_on_c, 0, 66, 70
1, 978, Note_on_c, 0, 66, 0
1, 978, Note_on_c, 0, 68, 70
1, 1008, Note_on_c, 1, 66, 63
1, 1008, Note_on_c, 1, 63, 63
1, 1049, Note_on_c, 0, 68, 0
1, 1053, Note_on_c, 1, 66, 0
1, 1053, Note_on_c, 1, 63, 0
1, 1056, Note_on_c, 1, 64, 63
1, 1056, Note_on_c, 1, 61, 63
1, 1101, Note_on_c, 1, 64, 0
1, 1101, Note_on_c, 1, 61, 0
1, 1104, Note_on_c, 1, 66, 63
1, 1104, Note_on_c, 1, 63, 63
1, 1149, Note_on_c, 1, 66, 0
1, 1149, Note_on_c, 1, 63, 0
1, 1152, Note_on_c, 1, 68, 63
1, 1152, Note_on_c, 1, 64, 63
1, 1191, Note_on_c, 1, 68, 0
1, 1191, Note_on_c, 1, 64, 0
1, 1200, Note_on_c, 0, 73, 70
1, 1245, Note_on_c, 0, 73, 0
1, 1248, Note_on_c, 0, 73, 70
1, 1293, Note_on_c, 0, 73, 0
1, 1296, Note_on_c, 0, 73, 70
1, 1341, Note_on_c, 0, 73, 0
1, 1344, Note_on_c, 0, 75, 70
1, 1350, Note_on_c, 0, 75, 0
1, 1350, Note_on_c, 0, 73, 70
1, 1356, Note_on_c, 0, 73, 0
1, 1356, Note_on_c, 0, 72, 70
1, 1362, Note_on_c, 0, 72, 0
1, 1362, Note_on_c, 0, 73, 70
1, 1389, Note_on_c, 0, 73, 0
1, 1392, Note_on_c, 0, 76, 70
1, 1392, Note_on_c, 1, 56, 63
1, 1392, Note_on_c, 1, 52, 63
1, 1437, Note_on_c, 0, 76, 0
1, 1437, Note_on_c, 1, 56, 0
1, 1437, Note_on_c, 1, 52, 0
1, 1440, Note_on_c, 0, 76, 70
1, 1440, Note_on_c, 1, 56, 63
1, 1440, Note_on_c, 1, 52, 63
1, 1485, Note_on_c, 0, 76, 0
1, 1485, Note_on_c, 1, 56, 0
1, 1485, Note_on_c, 1, 52, 0
1, 1488, Note_on_c, 0, 76, 71
1, 1488, Note_on_c, 1, 56, 63
1, 1488, Note_on_c, 1, 52, 63
1, 1533, Note_on_c, 0, 76, 0
1, 1533, Note_on_c, 1, 56, 0
1, 1533, Note_on_c, 1, 52, 0
1, 1536, Note_on_c, 0, 76, 88
1, 1584, Note_on_c, 1, 57, 63
1, 1584, Note_on_c, 1, 54, 63
1, 1629, Note_on_c, 1, 57, 0
1, 1629, Note_on_c, 1, 54, 0
1, 1632, Note_on_c, 0, 76, 0
1, 1632, Note_on_c, 0, 74, 75
1, 1632, Note_on_c, 1, 57, 63
1, 1632, Note_on_c, 1, 54, 63
1, 1677, Note_on_c, 0, 74, 0
1, 1677, Note_on_c, 1, 57, 0
1, 1677, Note_on_c, 1, 54, 0
1, 1680, Note_on_c, 0, 81, 76
1, 1680, Note_on_c, 1, 57, 63
1, 1680, Note_on_c, 1, 54, 63
1, 1700, Note_on_c, 0, 81, 0
1, 1725, Note_on_c, 1, 57, 0
1, 1725, Note_on_c, 1, 54, 0
1, 1728, Note_on_c, 0, 73, 78
1, 1776, Note_on_c, 1, 64, 63
1, 1776, Note_on_c, 1, 56, 64
1, 1821, Note_on_c, 1, 64, 0
1, 1824, Note_on_c, 1, 63, 63
1, 1847, Note_on_c, 0, 73, 0
1, 1848, Note_on_c, 0, 72, 74
1, 1869, Note_on_c, 1, 63, 0
1, 1871, Note_on_c, 0, 72, 0
1, 1872, Note_on_c, 0, 75, 74
1, 1872, Note_on_c, 1, 66, 63
1, 1895, Note_on_c, 0, 75, 0
1, 1896, Note_on_c, 0, 72, 73
1, 1909, Note_on_c, 1, 56, 0
1, 1917, Note_on_c, 1, 66, 0
1, 1919, Note_on_c, 0, 72, 0
1, 1920, Note_on_c, 0, 73, 72
1, 1920, Note_on_c, 1, 64, 63
1, 1920, Note_on_c, 1, 61, 63
1, 2009, Note_on_c, 0, 73, 0
1, 2009, Note_on_c, 1, 64, 0
1, 2009, Note_on_c, 1, 61, 0
1, 2064, Note_on_c, 0, 69, 70
1, 2076, Note_on_c, 0, 69, 0
1, 2076, Note_on_c, 0, 66, 70
1, 2110, Note_on_c, 0, 66, 0
1, 2112, Note_on_c, 0, 68, 71
1, 2124, Note_on_c, 0, 68, 0
1, 2124, Note_on_c, 0, 64, 72
1, 2158, Note_on_c, 0, 64, 0
1, 2160, Note_on_c, 0, 66, 73
1, 2172, Note_on_c, 0, 66, 0
1, 2172, Note_on_c, 0, 63, 74
1, 2206, Note_on_c, 0, 63, 0
1, 2208, Note_on_c, 0, 64, 75
1, 2220, Note_on_c, 0, 64, 0
1, 2220, Note_on_c, 0, 61, 76
1, 2254, Note_on_c, 0, 61, 0
1, 2256, Note_on_c, 0, 63, 77
1, 2268, Note_on_c, 0, 63, 0
1, 2268, Note_on_c, 0, 60, 78
1, 2302, Note_on_c, 0, 60, 0
1, 2304, Note_on_c, 0, 61, 78
1, 2304, Note_on_c, 1, 49, 78
1, 2304, Note_on_c, 1, 37, 78
1, 2349, Note_on_c, 0, 61, 0
1, 2349, Note_on_c, 1, 49, 0
1, 2349, Note_on_c, 1, 37, 0
1, 2352, Note_on_c, 0, 61, 78
1, 2352, Note_on_c, 1, 49, 78
1, 2364, Note_on_c, 0, 61, 0
1, 2364, Note_on_c, 0, 60, 78
1, 2364, Note_on_c, 1, 49, 0
1, 2364, Note_on_c, 1, 48, 78
1, 2376, Note_on_c, 0, 60, 0
1, 2376, Note_on_c, 0, 61, 78
1, 2376, Note_on_c, 1, 48, 0
1, 2376, Note_on_c, 1, 49, 78
1, 2388, Note_on_c, 0, 61, 0
1, 2388, Note_on_c, 0, 63, 78
1, 2388, Note_on_c, 1, 49, 0
1, 2388, Note_on_c, 1, 51, 78
1, 2400, Note_on_c, 0, 63, 0
1, 2400, Note_on_c, 0, 64, 78
1, 2400, Note_on_c, 1, 51, 0
1, 2400, Note_on_c, 1, 52, 78
1, 2420, Note_on_c, 0, 64, 0
1, 2420, Note_on_c, 1, 52, 0
1, 2448, Note_on_c, 0, 63, 78
1, 2448, Note_on_c, 1, 51, 78
1, 2468, Note_on_c, 0, 63, 0
1, 2468, Note_on_c, 1, 51, 0
1, 2496, Note_on_c, 0, 61, 78
1, 2496, Note_on_c, 1, 49, 78
1, 2516, Note_on_c, 0, 61, 0
1, 2516, Note_on_c, 1, 49, 0
1, 2544, Note_on_c, 0, 56, 78
1, 2544, Note_on_c, 1, 44, 78
1, 2564, Note_on_c, 0, 56, 0
1, 2564, Note_on_c, 1, 44, 0
1, 2592, Note_on_c, 0, 61, 78
1, 2592, Note_on_c, 1, 49, 78
1, 2612, Note_on_c, 0, 61, 0
1, 2612, Note_on_c, 1, 49, 0
1, 2640, Note_on_c, 0, 64, 78
1, 2640, Note_on_c, 1, 52, 78
1, 2660, Note_on_c, 0, 64, 0
1, 2660, Note_on_c, 1, 52, 0
1, 2688, Note_on_c, 0, 57, 78
1, 2688, Note_on_c, 1, 45, 78
1, 2688, Note_on_c, 1, 33, 78
1, 2733, Note_on_c, 0, 57, 0
1, 2733, Note_on_c, 1, 45, 0
1, 2733, Note_on_c, 1, 33, 0
1, 2736, Note_on_c, 0, 57, 78
1, 2736, Note_on_c, 1, 45, 78
1, 2748, Note_on_c, 0, 57, 0
1, 2748, Note_on_c, 0, 56, 78
1, 2748, Note_on_c, 1, 45, 0
1, 2748, Note_on_c, 1, 44, 78
1, 2760, Note_on_c, 0, 56, 0
1, 2760, Note_on_c, 0, 57, 78
1, 2760, Note_on_c, 1, 44, 0
1, 2760, Note_on_c, 1, 45, 78
1, 2772, Note_on_c, 0, 57, 0
1, 2772, Note_on_c, 0, 59, 78
1, 2772, Note_on_c, 1, 45, 0
1, 2772, Note_on_c, 1, 47, 78
1, 2784, Note_on_c, 0, 59, 0
1, 2784, Note_on_c, 0, 61, 78
1, 2784, Note_on_c, 1, 47, 0
1, 2784, Note_on_c, 1, 49, 78
1, 2804, Note_on_c, 0, 61, 0
1, 2804, Note_on_c, 1, 49, 0
1, 2832, Note_on_c, 0, 59, 78
1, 2832, Note_on_c, 1, 47, 78
1, 2852, Note_on_c, 0, 59, 0
1, 2852, Note_on_c, 1, 47, 0
1, 2880, Note_on_c, 0, 57, 78
1, 2880, Note_on_c, 1, 45, 78
1, 2900, Note_on_c, 0, 57, 0
1, 2900, Note_on_c, 1, 45, 0
1, 2928, Note_on_c, 0, 52, 78
1, 2928, Note_on_c, 1, 40, 78
1, 2948, Note_on_c, 0, 52, 0
1, 2948, Note_on_c, 1, 40, 0
1, 2976, Note_on_c, 0, 57, 78
1, 2976, Note_on_c, 1, 45, 78
1, 2996, Note_on_c, 0, 57, 0
1, 2996, Note_on_c, 1, 45, 0
1, 3024, Note_on_c, 0, 61, 78
1, 3024, Note_on_c, 1, 49, 78
1, 3044, Note_on_c, 0, 61, 0
1, 3044, Note_on_c, 1, 49, 0
1, 3072, Note_on_c, 1, 51, 101
1, 3072, Note_on_c, 1, 39, 80
1, 3216, Note_on_c, 1, 51, 0
1, 3216, Note_on_c, 1, 54, 85
1, 3216, Note_on_c, 1, 39, 0
1, 3216, Note_on_c, 1, 42, 64
1, 3239, Note_on_c, 1, 54, 0
1, 3239, Note_on_c, 1, 42, 0
1, 3240, Note_on_c, 1, 58, 85
1, 3240, Note_on_c, 1, 46, 64
1, 3263, Note_on_c, 1, 58, 0
1, 3263, Note_on_c, 1, 46, 0
1, 3264, Note_on_c, 0, 59, 85
1, 3264, Note_on_c, 1, 47, 85
1, 3284, Note_on_c, 0, 59, 0
1, 3284, Note_on_c, 1, 47, 0
1, 3312, Note_on_c, 0, 63, 85
1, 3312, Note_on_c, 1, 51, 85
1, 3332, Note_on_c, 0, 63, 0
1, 3332, Note_on_c, 1, 51, 0
1, 3360, Note_on_c, 0, 66, 85
1, 3360, Note_on_c, 1, 54, 85
1, 3380, Note_on_c, 0, 66, 0
1, 3380, Note_on_c, 1, 54, 0
1, 3408, Note_on_c, 0, 70, 85
1, 3408, Note_on_c, 1, 58, 85
1, 3428, Note_on_c, 0, 70, 0
1, 3428, Note_on_c, 1, 58, 0
1, 3456, Note_on_c, 0, 70, 101
1, 3456, Note_on_c, 1, 58, 101
1, 3552, Note_on_c, 0, 70, 0
1, 3552, Note_on_c, 0, 71, 85
1, 3552, Note_on_c, 1, 58, 0
1, 3552, Note_on_c, 1, 59, 85
1, 3575, Note_on_c, 0, 71, 0
1, 3576, Note_on_c, 0, 73, 85
1, 3588, Note_on_c, 0, 73, 0
1, 3588, Note_on_c, 0, 75, 85
1, 3600, Note_on_c, 0, 75, 0
1, 3600, Note_on_c, 0, 76, 85
1, 3612, Note_on_c, 0, 76, 0
1, 3612, Note_on_c, 0, 78, 85
1, 3624, Note_on_c, 0, 78, 0
1, 3624, Note_on_c, 0, 80, 85
1, 3636, Note_on_c, 0, 80, 0
1, 3636, Note_on_c, 0, 82, 85
1, 3648, Note_on_c, 0, 82, 0
1, 3648, Note_on_c, 0, 83, 101
1, 3693, Note_on_c, 1, 59, 0
1, 3696, Note_on_c, 0, 83, 0
1, 3696, Note_on_c, 0, 81, 78
1, 3696, Note_on_c, 0, 78, 78
1, 3696, Note_on_c, 1, 66, 78
1, 3696, Note_on_c, 1, 63, 78
1, 3719, Note_on_c, 0, 81, 0
1, 3719, Note_on_c, 0, 78, 0
1, 3720, Note_on_c, 0, 71, 78
1, 3741, Note_on_c, 1, 66, 0
1, 3741, Note_on_c, 1, 63, 0
1, 3743, Note_on_c, 0, 71, 0
1, 3744, Note_on_c, 0, 81, 78
1, 3744, Note_on_c, 0, 78, 78
1, 3744, Note_on_c, 1, 66, 78
1, 3744, Note_on_c, 1, 63, 78
1, 3767, Note_on_c, 0, 81, 0
1, 3767, Note_on_c, 0, 78, 0
1, 3768, Note_on_c, 0, 71, 76
1, 3789, Note_on_c, 1, 66, 0
1, 3789, Note_on_c, 1, 63, 0
1, 3791, Note_on_c, 0, 71, 0
1, 3792, Note_on_c, 0, 81, 74
1, 3792, Note_on_c, 0, 78, 74
1, 3792, Note_on_c, 1, 66, 74
1, 3792, Note_on_c, 1, 63, 74
1, 3815, Note_on_c, 0, 81, 0
1, 3815, Note_on_c, 0, 78, 0
1, 3816, Note_on_c, 0, 71, 72
1, 3837, Note_on_c, 1, 66, 0
1, 3837, Note_on_c, 1, 63, 0
1, 3839, Note_on_c, 0, 71, 0
1, 3840, Note_on_c, 0, 81, 70
1, 3840, Note_on_c, 0, 78, 70
1, 3840, Note_on_c, 1, 66, 70
1, 3840, Note_on_c, 1, 63, 70
1, 4105, Note_on_c, 0, 81, 0
1, 4105, Note_on_c, 0, 78, 0
1, 4105, Note_on_c, 1, 66, 0
1, 4105, Note_on_c, 1, 63, 0
1, 4224, Note_on_c, 0, 64, 78
1, 4247, Note_on_c, 0, 64, 0
1, 4248, Note_on_c, 0, 66, 78
1, 4256, Note_on_c, 0, 66, 0
1, 4256, Note_on_c, 0, 64, 78
1, 4264, Note_on_c, 0, 64, 0
1, 4264, Note_on_c, 0, 63, 78
1, 4272, Note_on_c, 0, 63, 0
1, 4272, Note_on_c, 0, 64, 78
1, 4295, Note_on_c, 0, 64, 0
1, 4296, Note_on_c, 0, 66, 78
1, 4319, Note_on_c, 0, 66, 0
1, 4320, Note_on_c, 0, 68, 78
1, 4365, Note_on_c, 0, 68, 0
1, 4368, Note_on_c, 0, 66, 78
1, 4413, Note_on_c, 0, 66, 0
1, 4416, Note_on_c, 0, 64, 78
1, 4416, Note_on_c, 1, 52, 78
1, 4439, Note_on_c, 1, 52, 0
1, 4440, Note_on_c, 1, 51, 78
1, 4461, Note_on_c, 0, 64, 0
1, 4463, Note_on_c, 1, 51, 0
1, 4464, Note_on_c, 0, 59, 78
1, 4464, Note_on_c, 1, 49, 78
1, 4487, Note_on_c, 1, 49, 0
1, 4488, Note_on_c, 1, 47, 78
1, 4509, Note_on_c, 0, 59, 0
1, 4511, Note_on_c, 1, 47, 0
1, 4512, Note_on_c, 0, 64, 78
1, 4512, Note_on_c, 1, 45, 78
1, 4535, Note_on_c, 1, 45, 0
1, 4536, Note_on_c, 1, 44, 78
1, 4557, Note_on_c, 0, 64, 0
1, 4559, Note_on_c, 1, 44, 0
1, 4560, Note_on_c, 0, 68, 78
1, 4560, Note_on_c, 1, 42, 78
1, 4583, Note_on_c, 1, 42, 0
1, 4584, Note_on_c, 1, 40, 78
1, 4605, Note_on_c, 0, 68, 0
1, 4607, Note_on_c, 1, 40, 0
1, 4608, Note_on_c, 0, 66, 78
1, 4608, Note_on_c, 1, 39, 78
1, 4631, Note_on_c, 0, 66, 0
1, 4632, Note_on_c, 0, 68, 78
1, 4640, Note_on_c, 0, 68, 0
1, 4640, Note_on_c, 0, 66, 78
1, 4648, Note_on_c, 0, 66, 0
1, 4648, Note_on_c, 0, 64, 78
1, 4656, Note_on_c, 0, 64, 0
1, 4656, Note_on_c, 0, 66, 78
1, 4679, Note_on_c, 0, 66, 0
1, 4680, Note_on_c, 0, 68, 78
1, 4697, Note_on_c, 1, 39, 0
1, 4703, Note_on_c, 0, 68, 0
1, 4704, Note_on_c, 0, 69, 78
1, 4749, Note_on_c, 0, 69, 0
1, 4752, Note_on_c, 0, 68, 78
1, 4797, Note_on_c, 0, 68, 0
1, 4800, Note_on_c, 0, 66, 78
1, 4800, Note_on_c, 1, 57, 78
1, 4823, Note_on_c, 1, 57, 0
1, 4824, Note_on_c, 1, 56, 78
1, 4845, Note_on_c, 0, 66, 0
1, 4847, Note_on_c, 1, 56, 0
1, 4848, Note_on_c, 0, 59, 78
1, 4848, Note_on_c, 1, 54, 78
1, 4871, Note_on_c, 1, 54, 0
1, 4872, Note_on_c, 1, 52, 78
1, 4893, Note_on_c, 0, 59, 0
1, 4895, Note_on_c, 1, 52, 0
1, 4896, Note_on_c, 0, 66, 78
1, 4896, Note_on_c, 1, 51, 78
1, 4919, Note_on_c, 1, 51, 0
1, 4920, Note_on_c, 1, 49, 78
1, 4941, Note_on_c, 0, 66, 0
1, 4943, Note_on_c, 1, 49, 0
1, 4944, Note_on_c, 0, 69, 78
1, 4944, Note_on_c, 1, 47, 78
1, 4967, Note_on_c, 1, 47, 0
1, 4968, Note_on_c, 1, 51, 78
1, 4989, Note_on_c, 0, 69, 0
1, 4991, Note_on_c, 1, 51, 0
1, 4992, Note_on_c, 0, 68, 78
1, 4992, Note_on_c, 1, 52, 78
1, 5015, Note_on_c, 0, 68, 0
1, 5016, Note_on_c, 0, 69, 78
1, 5024, Note_on_c, 0, 69, 0
1, 5024, Note_on_c, 0, 68, 78
1, 5032, Note_on_c, 0, 68, 0
1, 5032, Note_on_c, 0, 66, 78
1, 5040, Note_on_c, 0, 66, 0
1, 5040, Note_on_c, 0, 68, 78
1, 5063, Note_on_c, 0, 68, 0
1, 5064, Note_on_c, 0, 69, 78
1, 5081, Note_on_c, 1, 52, 0
1, 5087, Note_on_c, 0, 69, 0
1, 5088, Note_on_c, 0, 71, 78
1, 5133, Note_on_c, 0, 71, 0
1, 5136, Note_on_c, 0, 69, 78
1, 5181, Note_on_c, 0, 69, 0
1, 5184, Note_on_c, 0, 68, 78
1, 5184, Note_on_c, 1, 62, 78
1, 5207, Note_on_c, 1, 62, 0
1, 5208, Note_on_c, 1, 61, 78
1, 5229, Note_on_c, 0, 68, 0
1, 5231, Note_on_c, 1, 61, 0
1, 5232, Note_on_c, 0, 64, 78
1, 5232, Note_on_c, 1, 59, 78
1, 5255, Note_on_c, 1, 59, 0
1, 5256, Note_on_c, 1, 57, 78
1, 5277, Note_on_c, 0, 64, 0
1, 5279, Note_on_c, 1, 57, 0
1, 5280, Note_on_c, 0, 68, 78
1, 5280, Note_on_c, 1, 56, 78
1, 5303, Note_on_c, 1, 56, 0
1, 5304, Note_on_c, 1, 54, 78
1, 5325, Note_on_c, 0, 68, 0
1, 5327, Note_on_c, 1, 54, 0
1, 5328, Note_on_c, 0, 71, 78
1, 5328, Note_on_c, 1, 52, 78
1, 5351, Note_on_c, 1, 52, 0
1, 5352, Note_on_c, 1, 50, 78
1, 5373, Note_on_c, 0, 71, 0
1, 5375, Note_on_c, 1, 50, 0
1, 5376, Note_on_c, 0, 69, 78
1, 5376, Note_on_c, 1, 49, 78
1, 5399, Note_on_c, 1, 49, 0
1, 5400, Note_on_c, 1, 50, 78
1, 5421, Note_on_c, 0, 69, 0
1, 5423, Note_on_c, 1, 50, 0
1, 5424, Note_on_c, 0, 64, 78
1, 5424, Note_on_c, 1, 52, 78
1, 5447, Note_on_c, 1, 52, 0
1, 5448, Note_on_c, 1, 50, 78
1, 5469, Note_on_c, 0, 64, 0
1, 5471, Note_on_c, 1, 50, 0
1, 5472, Note_on_c, 0, 69, 78
1, 5472, Note_on_c, 1, 49, 78
1, 5495, Note_on_c, 1, 49, 0
1, 5496, Note_on_c, 1, 47, 78
1, 5517, Note_on_c, 0, 69, 0
1, 5519, Note_on_c, 1, 47, 0
1, 5520, Note_on_c, 0, 73, 78
1, 5520, Note_on_c, 1, 45, 78
1, 5543, Note_on_c, 1, 45, 0
1, 5544, Note_on_c, 1, 44, 78
1, 5565, Note_on_c, 0, 73, 0
1, 5567, Note_on_c, 1, 44, 0
1, 5568, Note_on_c, 0, 69, 78
1, 5568, Note_on_c, 1, 42, 78
1, 5591, Note_on_c, 1, 42, 0
1, 5592, Note_on_c, 1, 44, 78
1, 5613, Note_on_c, 0, 69, 0
1, 5615, Note_on_c, 1, 44, 0
1, 5616, Note_on_c, 0, 73, 78
1, 5616, Note_on_c, 1, 45, 78
1, 5639, Note_on_c, 1, 45, 0
1, 5640, Note_on_c, 1, 44, 78
1, 5661, Note_on_c, 0, 73, 0
1, 5663, Note_on_c, 1, 44, 0
1, 5664, Note_on_c, 0, 81, 78
1, 5664, Note_on_c, 1, 42, 78
1, 5687, Note_on_c, 1, 42, 0
1, 5688, Note_on_c, 1, 40, 78
1, 5709, Note_on_c, 0, 81, 0
1, 5711, Note_on_c, 1, 40, 0
1, 5712, Note_on_c, 0, 81, 80
1, 5712, Note_on_c, 1, 39, 78
1, 5735, Note_on_c, 1, 39, 0
1, 5736, Note_on_c, 1, 37, 78
1, 5757, Note_on_c, 0, 81, 0
1, 5759, Note_on_c, 1, 37, 0
1, 5760, Note_on_c, 0, 81, 99
1, 5760, Note_on_c, 1, 35, 78
1, 5784, Note_on_c, 0, 81, 0
1, 5784, Note_on_c, 0, 80, 85
1, 5807, Note_on_c, 0, 80, 0
1, 5808, Note_on_c, 0, 78, 85
1, 5831, Note_on_c, 0, 78, 0
1, 5832, Note_on_c, 0, 76, 85
1, 5849, Note_on_c, 1, 35, 0
1, 5855, Note_on_c, 0, 76, 0
1, 5856, Note_on_c, 0, 75, 85
1, 5879, Note_on_c, 0, 75, 0
1, 5880, Note_on_c, 0, 73, 85
1, 5903, Note_on_c, 0, 73, 0
1, 5904, Note_on_c, 0, 71, 85
1, 5904, Note_on_c, 1, 39, 78
1, 5927, Note_on_c, 0, 71, 0
1, 5928, Note_on_c, 0, 69, 85
1, 5949, Note_on_c, 1, 39, 0
1, 5951, Note_on_c, 0, 69, 0
1, 5952, Note_on_c, 0, 68, 85
1, 5952, Note_on_c, 1, 40, 78
1, 5972, Note_on_c, 1, 40, 0
1, 5976, Note_on_c, 0, 68, 0
1, 5976, Note_on_c, 0, 71, 84
1, 6000, Note_on_c, 0, 71, 0
1, 6000, Note_on_c, 0, 69, 83
1, 6000, Note_on_c, 1, 44, 79
1, 6020, Note_on_c, 1, 44, 0
1, 6024, Note_on_c, 0, 69, 0
1, 6024, Note_on_c, 0, 68, 82
1, 6048, Note_on_c, 0, 68, 0
1, 6048, Note_on_c, 0, 66, 81
1, 6048, Note_on_c, 1, 45, 81
1, 6068, Note_on_c, 1, 45, 0
1, 6072, Note_on_c, 0, 66, 0
1, 6072, Note_on_c, 0, 64, 80
1, 6096, Note_on_c, 0, 64, 0
1, 6096, Note_on_c, 0, 63, 79
1, 6096, Note_on_c, 1, 46, 83
1, 6116, Note_on_c, 1, 46, 0
1, 6120, Note_on_c, 0, 63, 0
1, 6120, Note_on_c, 0, 61, 78
1, 6143, Note_on_c, 0, 61, 0
1, 6144, Note_on_c, 0, 59, 78
1, 6144, Note_on_c, 1, 47, 85
1, 6189, Note_on_c, 0, 59, 0
1, 6192, Note_on_c, 0, 71, 70
1, 6233, Note_on_c, 1, 47, 0
1, 6237, Note_on_c, 0, 71, 0
1, 6240, Note_on_c, 0, 71, 70
1, 6285, Note_on_c, 0, 71, 0
1, 6288, Note_on_c, 0, 71, 70
1, 6333, Note_on_c, 0, 71, 0
1, 6336, Note_on_c, 0, 73, 70
1, 6342, Note_on_c, 0, 73, 0
1, 6342, Note_on_c, 0, 71, 70
1, 6348, Note_on_c, 0, 71, 0
1, 6348, Note_on_c, 0, 70, 70
1, 6354, Note_on_c, 0, 70, 0
1, 6354, Note_on_c, 0, 71, 70
1, 6384, Note_on_c, 1, 68, 63
1, 6384, Note_on_c, 1, 64, 63
1, 6425, Note_on_c, 0, 71, 0
1, 6429, Note_on_c, 1, 68, 0
1, 6429, Note_on_c, 1, 64, 0
1, 6432, Note_on_c, 1, 66, 63
1, 6432, Note_on_c, 1, 63, 63
1, 6477, Note_on_c, 1, 66, 0
1, 6477, Note_on_c, 1, 63, 0
1, 6480, Note_on_c, 1, 68, 63
1, 6480, Note_on_c, 1, 64, 63
1, 6525, Note_on_c, 1, 68, 0
1, 6525, Note_on_c, 1, 64, 0
1, 6528, Note_on_c, 1, 69, 63
1, 6528, Note_on_c, 1, 66, 63
1, 6567, Note_on_c, 1, 69, 0
1, 6567, Note_on_c, 1, 66, 0
1, 6576, Note_on_c, 0, 71, 70
1, 6621, Note_on_c, 0, 71, 0
1, 6624, Note_on_c, 0, 71, 70
1, 6669, Note_on_c, 0, 71, 0
1, 6672, Note_on_c, 0, 71, 70
1, 6717, Note_on_c, 0, 71, 0
1, 6720, Note_on_c, 0, 73, 70
1, 6726, Note_on_c, 0, 73, 0
1, 6726, Note_on_c, 0, 71, 70
1, 6732, Note_on_c, 0, 71, 0
1, 6732, Note_on_c, 0, 70, 70
1, 6738, Note_on_c, 0, 70, 0
1, 6738, Note_on_c, 0, 71, 70
1, 6768, Note_on_c, 1, 69, 63
1, 6768, Note_on_c, 1, 66, 63
1, 6809, Note_on_c, 0, 71, 0
1, 6813, Note_on_c, 1, 69, 0
1, 6813, Note_on_c, 1, 66, 0
1, 6816, Note_on_c, 1, 68, 63
1, 6816, Note_on_c, 1, 64, 63
1, 6861, Note_on_c, 1, 68, 0
1, 6861, Note_on_c, 1, 64, 0
1, 6864, Note_on_c, 1, 69, 63
1, 6864, Note_on_c, 1, 66, 63
1, 6909, Note_on_c, 1, 69, 0
1, 6909, Note_on_c, 1, 66, 0
1, 6912, Note_on_c, 1, 71, 63
1, 6912, Note_on_c, 1, 68, 63
1, 6951, Note_on_c, 1, 71, 0
1, 6951, Note_on_c, 1, 68, 0
1, 6960, Note_on_c, 0, 76, 70
1, 7005, Note_on_c, 0, 76, 0
1, 7008, Note_on_c, 0, 76, 70
1, 7053, Note_on_c, 0, 76, 0
1, 7056, Note_on_c, 0, 76, 70
1, 7101, Note_on_c, 0, 76, 0
1, 7104, Note_on_c, 0, 78, 70
1, 7110, Note_on_c, 0, 78, 0
1, 7110, Note_on_c, 0, 76, 70
1, 7116, Note_on_c, 0, 76, 0
1, 7116, Note_on_c, 0, 76, 70
1, 7122, Note_on_c, 0, 76, 0
1, 7122, Note_on_c, 0, 76, 86
1, 7152, Note_on_c, 0, 76, 0
1, 7152, Note_on_c, 0, 77, 70
1, 7152, Note_on_c, 0, 74, 70
1, 7152, Note_on_c, 1, 71, 63
1, 7152, Note_on_c, 1, 68, 63
1, 7172, Note_on_c, 0, 77, 0
1, 7172, Note_on_c, 0, 74, 0
1, 7172, Note_on_c, 1, 71, 0
1, 7172, Note_on_c, 1, 68, 0
1, 7200, Note_on_c, 0, 77, 73
1, 7200, Note_on_c, 0, 74, 73
1, 7200, Note_on_c, 1, 71, 67
1, 7200, Note_on_c, 1, 68, 67
1, 7220, Note_on_c, 0, 77, 0
1, 7220, Note_on_c, 0, 74, 0
1, 7220, Note_on_c, 1, 71, 0
1, 7220, Note_on_c, 1, 68, 0
1, 7248, Note_on_c, 0, 77, 76
1, 7248, Note_on_c, 0, 74, 76
1, 7248, Note_on_c, 1, 71, 71
1, 7248, Note_on_c, 1, 68, 71
1, 7268, Note_on_c, 0, 77, 0
1, 7268, Note_on_c, 0, 74, 0
1, 7268, Note_on_c, 1, 71, 0
1, 7268, Note_on_c, 1, 68, 0
1, 7296, Note_on_c, 0, 77, 79
1, 7296, Note_on_c, 0, 74, 79
1, 7296, Note_on_c, 1, 71, 76
1, 7296, Note_on_c, 1, 68, 76
1, 7392, Note_on_c, 0, 77, 0
1, 7392, Note_on_c, 0, 74, 0
1, 7392, Note_on_c, 0, 78, 63
1, 7392, Note_on_c, 0, 73, 63
1, 7392, Note_on_c, 1, 71, 0
1, 7392, Note_on_c, 1, 68, 0
1, 7392, Note_on_c, 1, 69, 63
1, 7392, Note_on_c, 1, 66, 63
1, 7412, Note_on_c, 0, 78, 0
1, 7412, Note_on_c, 0, 73, 0
1, 7412, Note_on_c, 1, 69, 0
1, 7412, Note_on_c, 1, 66, 0
1, 7440, Note_on_c, 0, 80, 63
1, 7440, Note_on_c, 0, 74, 63
1, 7440, Note_on_c, 1, 71, 63
1, 7440, Note_on_c, 1, 65, 63
1, 7460, Note_on_c, 0, 80, 0
1, 7460, Note_on_c, 0, 74, 0
1, 7460, Note_on_c, 1, 71, 0
1, 7460, Note_on_c, 1, 65, 0
1, 7488, Note_on_c, 0, 80, 85
1, 7488, Note_on_c, 0, 74, 85
1, 7488, Note_on_c, 1, 71, 85
1, 7488, Note_on_c, 1, 65, 85
1, 7584, Note_on_c, 0, 80, 0
1, 7584, Note_on_c, 0, 74, 0
1, 7584, Note_on_c, 0, 81, 63
1, 7584, Note_on_c, 0, 73, 63
1, 7584, Note_on_c, 1, 71, 0
1, 7584, Note_on_c, 1, 65, 0
1, 7584, Note_on_c, 1, 69, 63
1, 7584, Note_on_c, 1, 66, 63
1, 7604, Note_on_c, 0, 81, 0
1, 7604, Note_on_c, 0, 73, 0
1, 7604, Note_on_c, 1, 69, 0
1, 7604, Note_on_c, 1, 66, 0
1, 7632, Note_on_c, 0, 75, 63
1, 7632, Note_on_c, 0, 72, 63
1, 7632, Note_on_c, 1, 69, 63
1, 7632, Note_on_c, 1, 66, 63
1, 7652, Note_on_c, 0, 75, 0
1, 7652, Note_on_c, 0, 72, 0
1, 7652, Note_on_c, 1, 69, 0
1, 7652, Note_on_c, 1, 66, 0
1, 7680, Note_on_c, 0, 75, 85
1, 7680, Note_on_c, 0, 72, 85
1, 7680, Note_on_c, 1, 69, 85
1, 7680, Note_on_c, 1, 66, 85
1, 7776, Note_on_c, 0, 75, 0
1, 7776, Note_on_c, 0, 72, 0
1, 7776, Note_on_c, 0, 76, 63
1, 7776, Note_on_c, 0, 71, 63
1, 7776, Note_on_c, 1, 69, 0
1, 7776, Note_on_c, 1, 66, 0
1, 7776, Note_on_c, 1, 68, 63
1, 7776, Note_on_c, 1, 64, 63
1, 7796, Note_on_c, 0, 76, 0
1, 7796, Note_on_c, 0, 71, 0
1, 7796, Note_on_c, 1, 68, 0
1, 7796, Note_on_c, 1, 64, 0
1, 7824, Note_on_c, 0, 78, 63
1, 7824, Note_on_c, 0, 72, 63
1, 7824, Note_on_c, 1, 69, 63
1, 7824, Note_on_c, 1, 63, 63
1, 7844, Note_on_c, 0, 78, 0
1, 7844, Note_on_c, 0, 72, 0
1, 7844, Note_on_c, 1, 69, 0
1, 7844, Note_on_c, 1, 63, 0
1, 7872, Note_on_c, 0, 78, 85
1, 7872, Note_on_c, 0, 72, 85
1, 7872, Note_on_c, 1, 69, 85
1, 7872, Note_on_c, 1, 63, 85
1, 7968, Note_on_c, 0, 78, 0
1, 7968, Note_on_c, 0, 72, 0
1, 7968, Note_on_c, 0, 80, 63
1, 7968, Note_on_c, 0, 71, 63
1, 7968, Note_on_c, 1, 69, 0
1, 7968, Note_on_c, 1, 63, 0
1, 7968, Note_on_c, 1, 68, 85
1, 7968, Note_on_c, 1, 64, 85
1, 7988, Note_on_c, 0, 80, 0
1, 7988, Note_on_c, 0, 71, 0
1, 8013, Note_on_c, 1, 68, 0
1, 8013, Note_on_c, 1, 64, 0
1, 8016, Note_on_c, 0, 83, 85
1, 8016, Note_on_c, 0, 71, 85
1, 8016, Note_on_c, 1, 64, 85
1, 8016, Note_on_c, 1, 56, 85
1, 8036, Note_on_c, 0, 83, 0
1, 8036, Note_on_c, 0, 71, 0
1, 8036, Note_on_c, 1, 64, 0
1, 8036, Note_on_c, 1, 56, 0
1, 8064, Note_on_c, 0, 83, 101
1, 8064, Note_on_c, 0, 71, 101
1, 8064, Note_on_c, 1, 64, 85
1, 8064, Note_on_c, 1, 56, 64
1, 8153, Note_on_c, 1, 56, 0
1, 8160, Note_on_c, 0, 83, 0
1, 8160, Note_on_c, 0, 71, 0
1, 8160, Note_on_c, 0, 82, 85
1, 8160, Note_on_c, 0, 70, 85
1, 8160, Note_on_c, 1, 55, 64
1, 8205, Note_on_c, 0, 82, 0
1, 8205, Note_on_c, 0, 70, 0
1, 8205, Note_on_c, 1, 55, 0
1, 8208, Note_on_c, 0, 83, 85
1, 8208, Note_on_c, 0, 71, 85
1, 8208, Note_on_c, 1, 56, 64
1, 8241, Note_on_c, 1, 64, 0
1, 8253, Note_on_c, 0, 83, 0
1, 8253, Note_on_c, 0, 71, 0
1, 8253, Note_on_c, 1, 56, 0
1, 8256, Note_on_c, 0, 84, 101
1, 8256, Note_on_c, 0, 72, 101
1, 8256, Note_on_c, 1, 64, 85
1, 8256, Note_on_c, 1, 57, 64
1, 8352, Note_on_c, 0, 84, 0
1, 8352, Note_on_c, 0, 72, 0
1, 8352, Note_on_c, 0, 85, 85
1, 8352, Note_on_c, 0, 73, 85
1, 8389, Note_on_c, 1, 64, 0
1, 8389, Note_on_c, 1, 57, 0
1, 8397, Note_on_c, 0, 85, 0
1, 8397, Note_on_c, 0, 73, 0
1, 8400, Note_on_c, 0, 83, 85
1, 8400, Note_on_c, 0, 71, 85
1, 8400, Note_on_c, 1, 64, 85
1, 8400, Note_on_c, 1, 56, 64
1, 8420, Note_on_c, 0, 83, 0
1, 8420, Note_on_c, 0, 71, 0
1, 8445, Note_on_c, 1, 64, 0
1, 8445, Note_on_c, 1, 56, 0
1, 8448, Note_on_c, 0, 83, 101
1, 8448, Note_on_c, 0, 71, 101
1, 8448, Note_on_c, 1, 63, 85
1, 8448, Note_on_c, 1, 54, 85
1, 8493, Note_on_c, 1, 63, 0
1, 8493, Note_on_c, 1, 54, 0
1, 8496, Note_on_c, 0, 83, 0
1, 8496, Note_on_c, 0, 71, 0
1, 8496, Note_on_c, 0, 81, 85
1, 8496, Note_on_c, 0, 69, 85
1, 8519, Note_on_c, 0, 81, 0
1, 8519, Note_on_c, 0, 69, 0
1, 8544, Note_on_c, 0, 81, 85
1, 8544, Note_on_c, 0, 69, 85
1, 8544, Note_on_c, 1, 64, 85
1, 8544, Note_on_c, 1, 52, 85
1, 8589, Note_on_c, 1, 64, 0
1, 8589, Note_on_c, 1, 52, 0
1, 8592, Note_on_c, 0, 81, 0
1, 8592, Note_on_c, 0, 69, 0
1, 8592, Note_on_c, 0, 80, 85
1, 8592, Note_on_c, 0, 68, 85
1, 8615, Note_on_c, 0, 80, 0
1, 8615, Note_on_c, 0, 68, 0
1, 8640, Note_on_c, 0, 80, 85
1, 8640, Note_on_c, 0, 68, 85
1, 8640, Note_on_c, 1, 61, 85
1, 8640, Note_on_c, 1, 57, 85
1, 8685, Note_on_c, 1, 61, 0
1, 8685, Note_on_c, 1, 57, 0
1, 8688, Note_on_c, 0, 80, 0
1, 8688, Note_on_c, 0, 68, 0
1, 8688, Note_on_c, 0, 78, 85
1, 8688, Note_on_c, 0, 66, 85
1, 8711, Note_on_c, 0, 78, 0
1, 8711, Note_on_c, 0, 66, 0
1, 8736, Note_on_c, 0, 81, 70
1, 8781, Note_on_c, 0, 81, 0
1, 8784, Note_on_c, 0, 75, 70
1, 8784, Note_on_c, 1, 69, 63
1, 8784, Note_on_c, 1, 59, 63
1, 8829, Note_on_c, 0, 75, 0
1, 8829, Note_on_c, 1, 69, 0
1, 8829, Note_on_c, 1, 59, 0
1, 8832, Note_on_c, 0, 75, 70
1, 8832, Note_on_c, 1, 69, 63
1, 8832, Note_on_c, 1, 61, 63
1, 8921, Note_on_c, 0, 75, 0
1, 8928, Note_on_c, 0, 78, 70
1, 8995, Note_on_c, 0, 78, 0
1, 9000, Note_on_c, 0, 76, 70
1, 9023, Note_on_c, 0, 76, 0
1, 9024, Note_on_c, 0, 76, 70
1, 9024, Note_on_c, 1, 69, 0
1, 9024, Note_on_c, 1, 68, 63
1, 9157, Note_on_c, 0, 76, 0
1, 9168, Note_on_c, 0, 76, 70
1, 9180, Note_on_c, 0, 76, 0
1, 9180, Note_on_c, 0, 75, 72
1, 9192, Note_on_c, 0, 75, 0
1, 9192, Note_on_c, 0, 73, 74
1, 9201, Note_on_c, 1, 68, 0
1, 9201, Note_on_c, 1, 61, 0
1, 9204, Note_on_c, 0, 73, 0
1, 9204, Note_on_c, 0, 71, 76
1, 9216, Note_on_c, 0, 71, 0
1, 9216, Note_on_c, 0, 70, 85
1, 9216, Note_on_c, 1, 67, 85
1, 9216, Note_on_c, 1, 64, 85
1, 9216, Note_on_c, 1, 61, 85
1, 9305, Note_on_c, 0, 70, 0
1, 9305, Note_on_c, 1, 67, 0
1, 9305, Note_on_c, 1, 64, 0
1, 9305, Note_on_c, 1, 61, 0
1, 9312, Note_on_c, 0, 76, 85
1, 9324, Note_on_c, 0, 76, 0
1, 9324, Note_on_c, 0, 88, 85
1, 9357, Note_on_c, 0, 88, 0
1, 9360, Note_on_c, 0, 73, 85
1, 9372, Note_on_c, 0, 73, 0
1, 9372, Note_on_c, 0, 85, 85
1, 9405, Note_on_c, 0, 85, 0
1, 9408, Note_on_c, 0, 70, 85
1, 9420, Note_on_c, 0, 70, 0
1, 9420, Note_on_c, 0, 82, 85
1, 9453, Note_on_c, 0, 82, 0
1, 9456, Note_on_c, 0, 67, 85
1, 9468, Note_on_c, 0, 67, 0
1, 9468, Note_on_c, 0, 79, 85
1, 9501, Note_on_c, 0, 79, 0
1, 9504, Note_on_c, 0, 64, 85
1, 9516, Note_on_c, 0, 64, 0
1, 9516, Note_on_c, 0, 76, 85
1, 9549, Note_on_c, 0, 76, 0
1, 9552, Note_on_c, 0, 61, 85
1, 9564, Note_on_c, 0, 61, 0
1, 9564, Note_on_c, 0, 73, 85
1, 9597, Note_on_c, 0, 73, 0
1, 9600, Note_on_c, 0, 70, 106
1, 9600, Note_on_c, 0, 58, 106
1, 9600, Note_on_c, 1, 46, 106
1, 9600, Note_on_c, 1, 34, 106
1, 9792, Note_on_c, 0, 70, 0
1, 9792, Note_on_c, 0, 58, 0
1, 9792, Note_on_c, 0, 69, 85
1, 9792, Note_on_c, 0, 57, 85
1, 9792, Note_on_c, 1, 46, 0
1, 9792, Note_on_c, 1, 34, 0
1, 9792, Note_on_c, 1, 45, 85
1, 9792, Note_on_c, 1, 33, 85
1, 9969, Note_on_c, 0, 69, 0
1, 9969, Note_on_c, 0, 57, 0
1, 9969, Note_on_c, 1, 45, 0
1, 9969, Note_on_c, 1, 33, 0
1, 9984, Note_on_c, 0, 56, 78
1, 9984, Note_on_c, 1, 44, 78
1, 9984, Note_on_c, 1, 32, 78
1, 10007, Note_on_c, 0, 56, 0
1, 10008, Note_on_c, 0, 68, 78
1, 10031, Note_on_c, 0, 68, 0
1, 10032, Note_on_c, 0, 59, 78
1, 10055, Note_on_c, 0, 59, 0
1, 10056, Note_on_c, 0, 71, 78
1, 10073, Note_on_c, 1, 44, 0
1, 10073, Note_on_c, 1, 32, 0
1, 10079, Note_on_c, 0, 71, 0
1, 10080, Note_on_c, 0, 69, 78
1, 10103, Note_on_c, 0, 69, 0
1, 10104, Note_on_c, 0, 68, 78
1, 10127, Note_on_c, 0, 68, 0
1, 10128, Note_on_c, 0, 66, 78
1, 10151, Note_on_c, 0, 66, 0
1, 10152, Note_on_c, 0, 64, 78
1, 10175, Note_on_c, 0, 64, 0
1, 10176, Note_on_c, 0, 61, 78
1, 10176, Note_on_c, 1, 45, 78
1, 10176, Note_on_c, 1, 33, 78
1, 10199, Note_on_c, 0, 61, 0
1, 10200, Note_on_c, 0, 73, 78
1, 10223, Note_on_c, 0, 73, 0
1, 10224, Note_on_c, 0, 64, 78
1, 10247, Note_on_c, 0, 64, 0
1, 10248, Note_on_c, 0, 76, 78
1, 10265, Note_on_c, 1, 45, 0
1, 10265, Note_on_c, 1, 33, 0
1, 10271, Note_on_c, 0, 76, 0
1, 10272, Note_on_c, 0, 75, 78
1, 10295, Note_on_c, 0, 75, 0
1, 10296, Note_on_c, 0, 73, 78
1, 10319, Note_on_c, 0, 73, 0
1, 10320, Note_on_c, 0, 71, 78
1, 10343, Note_on_c, 0, 71, 0
1, 10344, Note_on_c, 0, 69, 78
1, 10367, Note_on_c, 0, 69, 0
1, 10368, Note_on_c, 0, 68, 78
1, 10368, Note_on_c, 1, 52, 78
1, 10368, Note_on_c, 1, 47, 78
1, 10457, Note_on_c, 0, 68, 0
1, 10457, Note_on_c, 1, 52, 0
1, 10457, Note_on_c, 1, 47, 0
1, 10464, Note_on_c, 0, 71, 78
1, 10464, Note_on_c, 1, 51, 78
1, 10464, Note_on_c, 1, 47, 78
1, 10487, Note_on_c, 0, 71, 0
1, 10488, Note_on_c, 0, 69, 78
1, 10511, Note_on_c, 0, 69, 0
1, 10512, Note_on_c, 0, 68, 78
1, 10535, Note_on_c, 0, 68, 0
1, 10536, Note_on_c, 0, 66, 78
1, 10553, Note_on_c, 1, 51, 0
1, 10553, Note_on_c, 1, 47, 0
1, 10559, Note_on_c, 0, 66, 0
1, 10560, Note_on_c, 0, 68, 78
1, 10560, Note_on_c, 1, 40, 78
1, 10583, Note_on_c, 0, 68, 0
1, 10583, Note_on_c, 1, 40, 0
1, 10584, Note_on_c, 0, 80, 78
1, 10584, Note_on_c, 1, 52, 78
1, 10607, Note_on_c, 0, 80, 0
1, 10607, Note_on_c, 1, 52, 0
1, 10608, Note_on_c, 0, 71, 78
1, 10608, Note_on_c, 1, 44, 78
1, 10631, Note_on_c, 0, 71, 0
1, 10631, Note_on_c, 1, 44, 0
1, 10632, Note_on_c, 0, 83, 78
1, 10632, Note_on_c, 1, 56, 78
1, 10655, Note_on_c, 0, 83, 0
1, 10655, Note_on_c, 1, 56, 0
1, 10656, Note_on_c, 0, 81, 78
1, 10679, Note_on_c, 0, 81, 0
1, 10680, Note_on_c, 0, 80, 78
1, 10703, Note_on_c, 0, 80, 0
1, 10704, Note_on_c, 0, 78, 78
1, 10727, Note_on_c, 0, 78, 0
1, 10728, Note_on_c, 0, 76, 78
1, 10751, Note_on_c, 0, 76, 0
1, 10752, Note_on_c, 0, 73, 78
1, 10752, Note_on_c, 0, 64, 64
1, 10752, Note_on_c, 1, 45, 78
1, 10775, Note_on_c, 0, 73, 0
1, 10775, Note_on_c, 1, 45, 0
1, 10776, Note_on_c, 0, 85, 78
1, 10776, Note_on_c, 1, 57, 78
1, 10799, Note_on_c, 0, 85, 0
1, 10799, Note_on_c, 1, 57, 0
1, 10800, Note_on_c, 0, 76, 78
1, 10800, Note_on_c, 1, 49, 78
1, 10823, Note_on_c, 0, 76, 0
1, 10823, Note_on_c, 1, 49, 0
1, 10824, Note_on_c, 0, 88, 78
1, 10824, Note_on_c, 1, 61, 78
1, 10847, Note_on_c, 0, 88, 0
1, 10847, Note_on_c, 1, 61, 0
1, 10896, Note_on_c, 0, 85, 78
1, 10908, Note_on_c, 0, 85, 0
1, 10908, Note_on_c, 0, 84, 78
1, 10920, Note_on_c, 0, 84, 0
1, 10920, Note_on_c, 0, 85, 78
1, 10932, Note_on_c, 0, 85, 0
1, 10932, Note_on_c, 0, 87, 78
1, 10944, Note_on_c, 0, 87, 0
1, 10944, Note_on_c, 0, 88, 78
1, 10964, Note_on_c, 0, 88, 0
1, 10992, Note_on_c, 0, 81, 78
1, 11012, Note_on_c, 0, 81, 0
1, 11040, Note_on_c, 0, 85, 78
1, 11060, Note_on_c, 0, 85, 0
1, 11062, Note_on_c, 0, 64, 0
1, 11088, Note_on_c, 0, 78, 78
1, 11108, Note_on_c, 0, 78, 0
1, 11136, Note_on_c, 0, 71, 78
1, 11136, Note_on_c, 1, 59, 85
1, 11136, Note_on_c, 1, 63, 85
1, 11136, Note_on_c, 1, 66, 85
1, 11136, Note_on_c, 1, 69, 85
1, 11142, Note_on_c, 0, 71, 0
1, 11142, Note_on_c, 0, 75, 78
1, 11148, Note_on_c, 0, 75, 0
1, 11148, Note_on_c, 0, 78, 78
1, 11154, Note_on_c, 0, 78, 0
1, 11154, Note_on_c, 0, 80, 78
1, 11160, Note_on_c, 0, 80, 0
1, 11160, Note_on_c, 0, 81, 78
1, 11175, Note_on_c, 0, 81, 0
1, 11175, Note_on_c, 1, 69, 0
1, 11175, Note_on_c, 1, 66, 0
1, 11175, Note_on_c, 1, 63, 0
1, 11175, Note_on_c, 1, 59, 0
1, 11232, Note_on_c, 0, 73, 78
1, 11232, Note_on_c, 1, 61, 85
1, 11232, Note_on_c, 1, 64, 85
1, 11232, Note_on_c, 1, 68, 85
1, 11238, Note_on_c, 0, 73, 0
1, 11238, Note_on_c, 0, 75, 78
1, 11244, Note_on_c, 0, 75, 0
1, 11244, Note_on_c, 0, 76, 78
1, 11250, Note_on_c, 0, 76, 0
1, 11250, Note_on_c, 0, 80, 78
1, 11271, Note_on_c, 0, 80, 0
1, 11271, Note_on_c, 1, 68, 0
1, 11271, Note_on_c, 1, 64, 0
1, 11271, Note_on_c, 1, 61, 0
1, 11328, Note_on_c, 0, 69, 78
1, 11328, Note_on_c, 1, 57, 85
1, 11328, Note_on_c, 1, 61, 85
1, 11328, Note_on_c, 1, 66, 85
1, 11334, Note_on_c, 0, 69, 0
1, 11334, Note_on_c, 0, 73, 78
1, 11340, Note_on_c, 0, 73, 0
1, 11340, Note_on_c, 0, 77, 78
1, 11346, Note_on_c, 0, 77, 0
1, 11346, Note_on_c, 0, 78, 78
1, 11367, Note_on_c, 0, 78, 0
1, 11367, Note_on_c, 1, 66, 0
1, 11367, Note_on_c, 1, 61, 0
1, 11367, Note_on_c, 1, 57, 0
1, 11472, Note_on_c, 0, 75, 78
1, 11472, Note_on_c, 1, 69, 78
1, 11472, Note_on_c, 1, 59, 78
1, 11506, Note_on_c, 0, 75, 0
1, 11508, Note_on_c, 0, 71, 78
1, 11520, Note_on_c, 0, 71, 0
1, 11520, Note_on_c, 0, 76, 78
1, 11520, Note_on_c, 1, 69, 0
1, 11520, Note_on_c, 1, 59, 0
1, 11520, Note_on_c, 1, 68, 78
1, 11520, Note_on_c, 1, 64, 78
1, 11540, Note_on_c, 0, 76, 0
1, 11559, Note_on_c, 1, 68, 0
1, 11559, Note_on_c, 1, 64, 0
1, 11568, Note_on_c, 0, 83, 78
1, 11568, Note_on_c, 0, 80, 78
1, 11616, Note_on_c, 0, 83, 0
1, 11616, Note_on_c, 0, 76, 78
1, 11661, Note_on_c, 0, 80, 0
1, 11661, Note_on_c, 0, 76, 0
1, 11664, Note_on_c, 0, 75, 78
1, 11664, Note_on_c, 1, 69, 78
1, 11664, Note_on_c, 1, 59, 78
1, 11698, Note_on_c, 0, 75, 0
1, 11700, Note_on_c, 0, 71, 78
1, 11712, Note_on_c, 0, 71, 0
1, 11712, Note_on_c, 0, 76, 78
1, 11712, Note_on_c, 1, 69, 0
1, 11712, Note_on_c, 1, 59, 0
1, 11712, Note_on_c, 1, 68, 78
1, 11712, Note_on_c, 1, 64, 78
1, 11732, Note_on_c, 0, 76, 0
1, 11751, Note_on_c, 1, 68, 0
1, 11751, Note_on_c, 1, 64, 0
1, 11760, Note_on_c, 0, 78, 78
1, 11760, Note_on_c, 0, 75, 78
1, 11808, Note_on_c, 0, 78, 0
1, 11808, Note_on_c, 0, 75, 0
1, 11808, Note_on_c, 0, 80, 78
1, 11808, Note_on_c, 0, 76, 78
1, 11853, Note_on_c, 0, 80, 0
1, 11853, Note_on_c, 0, 76, 0
1, 11856, Note_on_c, 0, 75, 70
1, 11856, Note_on_c, 1, 69, 70
1, 11856, Note_on_c, 1, 59, 70
1, 11890, Note_on_c, 0, 75, 0
1, 11892, Note_on_c, 0, 71, 70
1, 11904, Note_on_c, 0, 71, 0
1, 11904, Note_on_c, 0, 76, 70
1, 11904, Note_on_c, 1, 69, 0
1, 11904, Note_on_c, 1, 59, 0
1, 11904, Note_on_c, 1, 68, 70
1, 11904, Note_on_c, 1, 64, 70
1, 11924, Note_on_c, 0, 76, 0
1, 11943, Note_on_c, 1, 68, 0
1, 11943, Note_on_c, 1, 64, 0
1, 11952, Note_on_c, 0, 83, 70
1, 11952, Note_on_c, 0, 80, 70
1, 12000, Note_on_c, 0, 83, 0
1, 12000, Note_on_c, 0, 76, 70
1, 12045, Note_on_c, 0, 80, 0
1, 12045, Note_on_c, 0, 76, 0
1, 12048, Note_on_c, 0, 75, 70
1, 12048, Note_on_c, 1, 69, 70
1, 12048, Note_on_c, 1, 59, 70
1, 12082, Note_on_c, 0, 75, 0
1, 12084, Note_on_c, 0, 71, 70
1, 12096, Note_on_c, 0, 71, 0
1, 12096, Note_on_c, 0, 76, 70
1, 12096, Note_on_c, 1, 69, 0
1, 12096, Note_on_c, 1, 59, 0
1, 12096, Note_on_c, 1, 68, 70
1, 12096, Note_on_c, 1, 64, 70
1, 12116, Note_on_c, 0, 76, 0
1, 12135, Note_on_c, 1, 68, 0
1, 12135, Note_on_c, 1, 64, 0
1, 12144, Note_on_c, 0, 78, 70
1, 12144, Note_on_c, 0, 75, 70
1, 12192, Note_on_c, 0, 78, 0
1, 12192, Note_on_c, 0, 75, 0
1, 12192, Note_on_c, 0, 80, 70
1, 12192, Note_on_c, 0, 76, 70
1, 12237, Note_on_c, 0, 80, 0
1, 12237, Note_on_c, 0, 76, 0
1, 12240, Note_on_c, 0, 75, 63
1, 12240, Note_on_c, 1, 69, 63
1, 12240, Note_on_c, 1, 59, 63
1, 12274, Note_on_c, 0, 75, 0
1, 12276, Note_on_c, 0, 71, 63
1, 12288, Note_on_c, 0, 71, 0
1, 12288, Note_on_c, 0, 76, 63
1, 12288, Note_on_c, 1, 69, 0
1, 12288, Note_on_c, 1, 59, 0
1, 12288, Note_on_c, 1, 68, 63
1, 12288, Note_on_c, 1, 64, 63
1, 12308, Note_on_c, 0, 76, 0
1, 12308, Note_on_c, 1, 68, 0
1, 12308, Note_on_c, 1, 64, 0
1, 12384, Note_on_c, 0, 87, 55
1, 12384, Note_on_c, 0, 78, 55
1, 12384, Note_on_c, 1, 59, 55
1, 12404, Note_on_c, 0, 87, 0
1, 12404, Note_on_c, 0, 78, 0
1, 12404, Note_on_c, 1, 59, 0
1, 12480, Note_on_c, 0, 88, 55
1, 12480, Note_on_c, 0, 80, 55
1, 12480, Note_on_c, 1, 52, 64
1, 12519, Note_on_c, 0, 88, 0
1, 12519, Note_on_c, 0, 80, 0
1, 12519, Note_on_c, 1, 52, 0
1, 12672, Note_on_c, 0, 61, 85
1, 12672, Note_on_c, 1, 49, 85
1, 12672, Note_on_c, 1, 37, 85
1, 12717, Note_on_c, 0, 61, 0
1, 12717, Note_on_c, 1, 49, 0
1, 12717, Note_on_c, 1, 37, 0
1, 12720, Note_on_c, 0, 61, 85
1, 12720, Note_on_c, 1, 49, 85
1, 12732, Note_on_c, 0, 61, 0
1, 12732, Note_on_c, 0, 60, 85
1, 12732, Note_on_c, 1, 49, 0
1, 12732, Note_on_c, 1, 48, 85
1, 12744, Note_on_c, 0, 60, 0
1, 12744, Note_on_c, 0, 61, 85
1, 12744, Note_on_c, 1, 48, 0
1, 12744, Note_on_c, 1, 49, 85
1, 12756, Note_on_c, 0, 61, 0
1, 12756, Note_on_c, 0, 63, 85
1, 12756, Note_on_c, 1, 49, 0
1, 12756, Note_on_c, 1, 51, 85
1, 12768, Note_on_c, 0, 63, 0
1, 12768, Note_on_c, 0, 64, 85
1, 12768, Note_on_c, 1, 51, 0
1, 12768, Note_on_c, 1, 52, 85
1, 12788, Note_on_c, 0, 64, 0
1, 12788, Note_on_c, 1, 52, 0
1, 12816, Note_on_c, 0, 63, 85
1, 12816, Note_on_c, 1, 51, 85
1, 12836, Note_on_c, 0, 63, 0
1, 12836, Note_on_c, 1, 51, 0
1, 12864, Note_on_c, 0, 61, 85
1, 12864, Note_on_c, 1, 49, 85
1, 12884, Note_on_c, 0, 61, 0
1, 12884, Note_on_c, 1, 49, 0
1, 12912, Note_on_c, 0, 56, 85
1, 12912, Note_on_c, 1, 44, 85
1, 12932, Note_on_c, 0, 56, 0
1, 12932, Note_on_c, 1, 44, 0
1, 12960, Note_on_c, 0, 61, 85
1, 12960, Note_on_c, 1, 49, 85
1, 12980, Note_on_c, 0, 61, 0
1, 12980, Note_on_c, 1, 49, 0
1, 13008, Note_on_c, 0, 64, 85
1, 13008, Note_on_c, 1, 52, 85
1, 13028, Note_on_c, 0, 64, 0
1, 13028, Note_on_c, 1, 52, 0
1, 13056, Note_on_c, 0, 61, 85
1, 13056, Note_on_c, 1, 49, 85
1, 13101, Note_on_c, 0, 61, 0
1, 13104, Note_on_c, 0, 68, 70
1, 13145, Note_on_c, 1, 49, 0
1, 13149, Note_on_c, 0, 68, 0
1, 13152, Note_on_c, 0, 68, 70
1, 13197, Note_on_c, 0, 68, 0
1, 13200, Note_on_c, 0, 68, 70
1, 13245, Note_on_c, 0, 68, 0
1, 13248, Note_on_c, 0, 69, 70
1, 13254, Note_on_c, 0, 69, 0
1, 13254, Note_on_c, 0, 68, 70
1, 13260, Note_on_c, 0, 68, 0
1, 13260, Note_on_c, 0, 67, 70
1, 13266, Note_on_c, 0, 67, 0
1, 13266, Note_on_c, 0, 68, 70
1, 13296, Note_on_c, 1, 64, 63
1, 13296, Note_on_c, 1, 61, 63
1, 13337, Note_on_c, 0, 68, 0
1, 13341, Note_on_c, 1, 64, 0
1, 13341, Note_on_c, 1, 61, 0
1, 13344, Note_on_c, 1, 63, 63
1, 13344, Note_on_c, 1, 60, 63
1, 13389, Note_on_c, 1, 63, 0
1, 13389, Note_on_c, 1, 60, 0
1, 13392, Note_on_c, 1, 64, 63
1, 13392, Note_on_c, 1, 61, 63
1, 13437, Note_on_c, 1, 64, 0
1, 13437, Note_on_c, 1, 61, 0
1, 13440, Note_on_c, 1, 66, 63
1, 13440, Note_on_c, 1, 63, 63
1, 13479, Note_on_c, 1, 66, 0
1, 13479, Note_on_c, 1, 63, 0
1, 13488, Note_on_c, 0, 68, 70
1, 13533, Note_on_c, 0, 68, 0
1, 13536, Note_on_c, 0, 68, 70
1, 13581, Note_on_c, 0, 68, 0
1, 13584, Note_on_c, 0, 68, 70
1, 13629, Note_on_c, 0, 68, 0
1, 13632, Note_on_c, 0, 69, 70
1, 13638, Note_on_c, 0, 69, 0
1, 13638, Note_on_c, 0, 68, 70
1, 13644, Note_on_c, 0, 68, 0
1, 13644, Note_on_c, 0, 66, 70
1, 13650, Note_on_c, 0, 66, 0
1, 13650, Note_on_c, 0, 68, 70
1, 13680, Note_on_c, 1, 66, 63
1, 13680, Note_on_c, 1, 63, 63
1, 13721, Note_on_c, 0, 68, 0
1, 13725, Note_on_c, 1, 66, 0
1, 13725, Note_on_c, 1, 63, 0
1, 13728, Note_on_c, 1, 64, 63
1, 13728, Note_on_c, 1, 61, 63
1, 13773, Note_on_c, 1, 64, 0
1, 13773, Note_on_c, 1, 61, 0
1, 13776, Note_on_c, 1, 66, 63
1, 13776, Note_on_c, 1, 63, 63
1, 13821, Note_on_c, 1, 66, 0
1, 13821, Note_on_c, 1, 63, 0
1, 13824, Note_on_c, 1, 68, 63
1, 13824, Note_on_c, 1, 64, 63
1, 13863, Note_on_c, 1, 68, 0
1, 13863, Note_on_c, 1, 64, 0
1, 13872, Note_on_c, 0, 73, 70
1, 13917, Note_on_c, 0, 73, 0
1, 13920, Note_on_c, 0, 73, 70
1, 13965, Note_on_c, 0, 73, 0
1, 13968, Note_on_c, 0, 73, 70
1, 14013, Note_on_c, 0, 73, 0
1, 14016, Note_on_c, 0, 75, 70
1, 14022, Note_on_c, 0, 75, 0
1, 14022, Note_on_c, 0, 73, 70
1, 14028, Note_on_c, 0, 73, 0
1, 14028, Note_on_c, 0, 72, 70
1, 14034, Note_on_c, 0, 72, 0
1, 14034, Note_on_c, 0, 73, 70
1, 14061, Note_on_c, 0, 73, 0
1, 14064, Note_on_c, 0, 76, 70
1, 14064, Note_on_c, 1, 56, 63
1, 14064, Note_on_c, 1, 52, 63
1, 14109, Note_on_c, 0, 76, 0
1, 14109, Note_on_c, 1, 56, 0
1, 14109, Note_on_c, 1, 52, 0
1, 14112, Note_on_c, 0, 76, 70
1, 14112, Note_on_c, 1, 56, 63
1, 14112, Note_on_c, 1, 52, 63
1, 14157, Note_on_c, 0, 76, 0
1, 14157, Note_on_c, 1, 56, 0
1, 14157, Note_on_c, 1, 52, 0
1, 14160, Note_on_c, 0, 76, 71
1, 14160, Note_on_c, 1, 56, 63
1, 14160, Note_on_c, 1, 52, 63
1, 14205, Note_on_c, 0, 76, 0
1, 14205, Note_on_c, 1, 56, 0
1, 14205, Note_on_c, 1, 52, 0
1, 14208, Note_on_c, 0, 76, 88
1, 14256, Note_on_c, 1, 57, 63
1, 14256, Note_on_c, 1, 54, 63
1, 14301, Note_on_c, 1, 57, 0
1, 14301, Note_on_c, 1, 54, 0
1, 14304, Note_on_c, 0, 76, 0
1, 14304, Note_on_c, 0, 74, 75
1, 14304, Note_on_c, 1, 57, 63
1, 14304, Note_on_c, 1, 54, 63
1, 14349, Note_on_c, 0, 74, 0
1, 14349, Note_on_c, 1, 57, 0
1, 14349, Note_on_c, 1, 54, 0
1, 14352, Note_on_c, 0, 81, 76
1, 14352, Note_on_c, 1, 57, 63
1, 14352, Note_on_c, 1, 54, 63
1, 14372, Note_on_c, 0, 81, 0
1, 14397, Note_on_c, 1, 57, 0
1, 14397, Note_on_c, 1, 54, 0
1, 14400, Note_on_c, 0, 73, 78
1, 14448, Note_on_c, 1, 64, 63
1, 14448, Note_on_c, 1, 56, 64
1, 14493, Note_on_c, 1, 64, 0
1, 14496, Note_on_c, 1, 63, 63
1, 14519, Note_on_c, 0, 73, 0
1, 14520, Note_on_c, 0, 72, 74
1, 14541, Note_on_c, 1, 63, 0
1, 14543, Note_on_c, 0, 72, 0
1, 14544, Note_on_c, 0, 75, 74
1, 14544, Note_on_c, 1, 66, 63
1, 14567, Note_on_c, 0, 75, 0
1, 14568, Note_on_c, 0, 72, 73
1, 14581, Note_on_c, 1, 56, 0
1, 14589, Note_on_c, 1, 66, 0
1, 14591, Note_on_c, 0, 72, 0
1, 14592, Note_on_c, 0, 73, 72
1, 14592, Note_on_c, 1, 64, 63
1, 14592, Note_on_c, 1, 61, 63
1, 14681, Note_on_c, 0, 73, 0
1, 14681, Note_on_c, 1, 64, 0
1, 14681, Note_on_c, 1, 61, 0
1, 14736, Note_on_c, 0, 69, 70
1, 14748, Note_on_c, 0, 69, 0
1, 14748, Note_on_c, 0, 66, 70
1, 14782, Note_on_c, 0, 66, 0
1, 14784, Note_on_c, 0, 68, 71
1, 14796, Note_on_c, 0, 68, 0
1, 14796, Note_on_c, 0, 64, 72
1, 14830, Note_on_c, 0, 64, 0
1, 14832, Note_on_c, 0, 66, 73
1, 14844, Note_on_c, 0, 66, 0
1, 14844, Note_on_c, 0, 63, 74
1, 14878, Note_on_c, 0, 63, 0
1, 14880, Note_on_c, 0, 64, 75
1, 14892, Note_on_c, 0, 64, 0
1, 14892, Note_on_c, 0, 61, 76
1, 14926, Note_on_c, 0, 61, 0
1, 14928, Note_on_c, 0, 63, 77
1, 14940, Note_on_c, 0, 63, 0
1, 14940, Note_on_c, 0, 60, 78
1, 14974, Note_on_c, 0, 60, 0
1, 14976, Note_on_c, 0, 61, 78
1, 14976, Note_on_c, 1, 49, 78
1, 14976, Note_on_c, 1, 37, 78
1, 15021, Note_on_c, 0, 61, 0
1, 15021, Note_on_c, 1, 49, 0
1, 15021, Note_on_c, 1, 37, 0
1, 15024, Note_on_c, 0, 61, 78
1, 15024, Note_on_c, 1, 49, 78
1, 15036, Note_on_c, 0, 61, 0
1, 15036, Note_on_c, 0, 60, 78
1, 15036, Note_on_c, 1, 49, 0
1, 15036, Note_on_c, 1, 48, 78
1, 15048, Note_on_c, 0, 60, 0
1, 15048, Note_on_c, 0, 61, 78
1, 15048, Note_on_c, 1, 48, 0
1, 15048, Note_on_c, 1, 49, 78
1, 15060, Note_on_c, 0, 61, 0
1, 15060, Note_on_c, 0, 63, 78
1, 15060, Note_on_c, 1, 49, 0
1, 15060, Note_on_c, 1, 51, 78
1, 15072, Note_on_c, 0, 63, 0
1, 15072, Note_on_c, 0, 64, 78
1, 15072, Note_on_c, 1, 51, 0
1, 15072, Note_on_c, 1, 52, 78
1, 15092, Note_on_c, 0, 64, 0
1, 15092, Note_on_c, 1, 52, 0
1, 15120, Note_on_c, 0, 63, 78
1, 15120, Note_on_c, 1, 51, 78
1, 15140, Note_on_c, 0, 63, 0
1, 15140, Note_on_c, 1, 51, 0
1, 15168, Note_on_c, 0, 61, 78
1, 15168, Note_on_c, 1, 49, 78
1, 15188, Note_on_c, 0, 61, 0
1, 15188, Note_on_c, 1, 49, 0
1, 15216, Note_on_c, 0, 56, 78
1, 15216, Note_on_c, 1, 44, 78
1, 15236, Note_on_c, 0, 56, 0
1, 15236, Note_on_c, 1, 44, 0
1, 15264, Note_on_c, 0, 61, 78
1, 15264, Note_on_c, 1, 49, 78
1, 15284, Note_on_c, 0, 61, 0
1, 15284, Note_on_c, 1, 49, 0
1, 15312, Note_on_c, 0, 64, 78
1, 15312, Note_on_c, 1, 52, 78
1, 15332, Note_on_c, 0, 64, 0
1, 15332, Note_on_c, 1, 52, 0
1, 15360, Note_on_c, 0, 57, 78
1, 15360, Note_on_c, 1, 45, 78
1, 15360, Note_on_c, 1, 33, 78
1, 15405, Note_on_c, 0, 57, 0
1, 15405, Note_on_c, 1, 45, 0
1, 15405, Note_on_c, 1, 33, 0
1, 15408, Note_on_c, 0, 57, 78
1, 15408, Note_on_c, 1, 45, 78
1, 15420, Note_on_c, 0, 57, 0
1, 15420, Note_on_c, 0, 56, 78
1, 15420, Note_on_c, 1, 45, 0
1, 15420, Note_on_c, 1, 44, 78
1, 15432, Note_on_c, 0, 56, 0
1, 15432, Note_on_c, 0, 57, 78
1, 15432, Note_on_c, 1, 44, 0
1, 15432, Note_on_c, 1, 45, 78
1, 15444, Note_on_c, 0, 57, 0
1, 15444, Note_on_c, 0, 59, 78
1, 15444, Note_on_c, 1, 45, 0
1, 15444, Note_on_c, 1, 47, 78
1, 15456, Note_on_c, 0, 59, 0
1, 15456, Note_on_c, 0, 61, 78
1, 15456, Note_on_c, 1, 47, 0
1, 15456, Note_on_c, 1, 49, 78
1, 15476, Note_on_c, 0, 61, 0
1, 15476, Note_on_c, 1, 49, 0
1, 15504, Note_on_c, 0, 59, 78
1, 15504, Note_on_c, 1, 47, 78
1, 15524, Note_on_c, 0, 59, 0
1, 15524, Note_on_c, 1, 47, 0
1, 15552, Note_on_c, 0, 57, 78
1, 15552, Note_on_c, 1, 45, 78
1, 15572, Note_on_c, 0, 57, 0
1, 15572, Note_on_c, 1, 45, 0
1, 15600, Note_on_c, 0, 52, 78
1, 15600, Note_on_c, 1, 40, 78
1, 15620, Note_on_c, 0, 52, 0
1, 15620, Note_on_c, 1, 40, 0
1, 15648, Note_on_c, 0, 57, 78
1, 15648, Note_on_c, 1, 45, 78
1, 15668, Note_on_c, 0, 57, 0
1, 15668, Note_on_c, 1, 45, 0
1, 15696, Note_on_c, 0, 61, 78
1, 15696, Note_on_c, 1, 49, 78
1, 15716, Note_on_c, 0, 61, 0
1, 15716, Note_on_c, 1, 49, 0
1, 15744, Note_on_c, 1, 51, 101
1, 15744, Note_on_c, 1, 39, 80
1, 15888, Note_on_c, 1, 51, 0
1, 15888, Note_on_c, 1, 54, 85
1, 15888, Note_on_c, 1, 39, 0
1, 15888, Note_on_c, 1, 42, 64
1, 15911, Note_on_c, 1, 54, 0
1, 15911, Note_on_c, 1, 42, 0
1, 15912, Note_on_c, 1, 58, 85
1, 15912, Note_on_c, 1, 46, 64
1, 15935, Note_on_c, 1, 58, 0
1, 15935, Note_on_c, 1, 46, 0
1, 15936, Note_on_c, 0, 59, 85
1, 15936, Note_on_c, 1, 47, 85
1, 15956, Note_on_c, 0, 59, 0
1, 15956, Note_on_c, 1, 47, 0
1, 15984, Note_on_c, 0, 63, 85
1, 15984, Note_on_c, 1, 51, 85
1, 16004, Note_on_c, 0, 63, 0
1, 16004, Note_on_c, 1, 51, 0
1, 16032, Note_on_c, 0, 66, 85
1, 16032, Note_on_c, 1, 54, 85
1, 16052, Note_on_c, 0, 66, 0
1, 16052, Note_on_c, 1, 54, 0
1, 16080, Note_on_c, 0, 70, 85
1, 16080, Note_on_c, 1, 58, 85
1, 16100, Note_on_c, 0, 70, 0
1, 16100, Note_on_c, 1, 58, 0
1, 16128, Note_on_c, 0, 70, 101
1, 16128, Note_on_c, 1, 58, 101
1, 16224, Note_on_c, 0, 70, 0
1, 16224, Note_on_c, 0, 71, 85
1, 16224, Note_on_c, 1, 58, 0
1, 16224, Note_on_c, 1, 59, 85
1, 16247, Note_on_c, 0, 71, 0
1, 16248, Note_on_c, 0, 73, 85
1, 16260, Note_on_c, 0, 73, 0
1, 16260, Note_on_c, 0, 75, 85
1, 16272, Note_on_c, 0, 75, 0
1, 16272, Note_on_c, 0, 76, 85
1, 16284, Note_on_c, 0, 76, 0
1, 16284, Note_on_c, 0, 78, 85
1, 16296, Note_on_c, 0, 78, 0
1, 16296, Note_on_c, 0, 80, 85
1, 16308, Note_on_c, 0, 80, 0
1, 16308, Note_on_c, 0, 82, 85
1, 16320, Note_on_c, 0, 82, 0
1, 16320, Note_on_c, 0, 83, 101
1, 16365, Note_on_c, 1, 59, 0
1, 16368, Note_on_c, 0, 83, 0
1, 16368, Note_on_c, 0, 81, 78
1, 16368, Note_on_c, 0, 78, 78
1, 16368, Note_on_c, 1, 66, 78
1, 16368, Note_on_c, 1, 63, 78
1, 16391, Note_on_c, 0, 81, 0
1, 16391, Note_on_c, 0, 78, 0
1, 16392, Note_on_c, 0, 71, 78
1, 16413, Note_on_c, 1, 66, 0
1, 16413, Note_on_c, 1, 63, 0
1, 16415, Note_on_c, 0, 71, 0
1, 16416, Note_on_c, 0, 81, 78
1, 16416, Note_on_c, 0, 78, 78
1, 16416, Note_on_c, 1, 66, 78
1, 16416, Note_on_c, 1, 63, 78
1, 16439, Note_on_c, 0, 81, 0
1, 16439, Note_on_c, 0, 78, 0
1, 16440, Note_on_c, 0, 71, 76
1, 16461, Note_on_c, 1, 66, 0
1, 16461, Note_on_c, 1, 63, 0
1, 16463, Note_on_c, 0, 71, 0
1, 16464, Note_on_c, 0, 81, 74
1, 16464, Note_on_c, 0, 78, 74
1, 16464, Note_on_c, 1, 66, 74
1, 16464, Note_on_c, 1, 63, 74
1, 16487, Note_on_c, 0, 81, 0
1, 16487, Note_on_c, 0, 78, 0
1, 16488, Note_on_c, 0, 71, 72
1, 16509, Note_on_c, 1, 66, 0
1, 16509, Note_on_c, 1, 63, 0
1, 16511, Note_on_c, 0, 71, 0
1, 16512, Note_on_c, 0, 81, 70
1, 16512, Note_on_c, 0, 78, 70
1, 16512, Note_on_c, 1, 66, 70
1, 16512, Note_on_c, 1, 63, 70
1, 16777, Note_on_c, 0, 81, 0
1, 16777, Note_on_c, 0, 78, 0
1, 16777, Note_on_c, 1, 66, 0
1, 16777, Note_on_c, 1, 63, 0
1, 16896, Note_on_c, 0, 64, 78
1, 16919, Note_on_c, 0, 64, 0
1, 16920, Note_on_c, 0, 66, 78
1, 16928, Note_on_c, 0, 66, 0
1, 16928, Note_on_c, 0, 64, 78
1, 16936, Note_on_c, 0, 64, 0
1, 16936, Note_on_c, 0, 63, 78
1, 16944, Note_on_c, 0, 63, 0
1, 16944, Note_on_c, 0, 64, 78
1, 16967, Note_on_c, 0, 64, 0
1, 16968, Note_on_c, 0, 66, 78
1, 16991, Note_on_c, 0, 66, 0
1, 16992, Note_on_c, 0, 68, 78
1, 17037, Note_on_c, 0, 68, 0
1, 17040, Note_on_c, 0, 66, 78
1, 17085, Note_on_c, 0, 66, 0
1, 17088, Note_on_c, 0, 64, 78
1, 17088, Note_on_c, 1, 52, 78
1, 17111, Note_on_c, 1, 52, 0
1, 17112, Note_on_c, 1, 51, 78
1, 17133, Note_on_c, 0, 64, 0
1, 17135, Note_on_c, 1, 51, 0
1, 17136, Note_on_c, 0, 59, 78
1, 17136, Note_on_c, 1, 49, 78
1, 17159, Note_on_c, 1, 49, 0
1, 17160, Note_on_c, 1, 47, 78
1, 17181, Note_on_c, 0, 59, 0
1, 17183, Note_on_c, 1, 47, 0
1, 17184, Note_on_c, 0, 64, 78
1, 17184, Note_on_c, 1, 45, 78
1, 17207, Note_on_c, 1, 45, 0
1, 17208, Note_on_c, 1, 44, 78
1, 17229, Note_on_c, 0, 64, 0
1, 17231, Note_on_c, 1, 44, 0
1, 17232, Note_on_c, 0, 68, 78
1, 17232, Note_on_c, 1, 42, 78
1, 17255, Note_on_c, 1, 42, 0
1, 17256, Note_on_c, 1, 40, 78
1, 17277, Note_on_c, 0, 68, 0
1, 17279, Note_on_c, 1, 40, 0
1, 17280, Note_on_c, 0, 66, 78
1, 17280, Note_on_c, 1, 39, 78
1, 17303, Note_on_c, 0, 66, 0
1, 17304, Note_on_c, 0, 68, 78
1, 17312, Note_on_c, 0, 68, 0
1, 17312, Note_on_c, 0, 66, 78
1, 17320, Note_on_c, 0, 66, 0
1, 17320, Note_on_c, 0, 64, 78
1, 17328, Note_on_c, 0, 64, 0
1, 17328, Note_on_c, 0, 66, 78
1, 17351, Note_on_c, 0, 66, 0
1, 17352, Note_on_c, 0, 68, 78
1, 17369, Note_on_c, 1, 39, 0
1, 17375, Note_on_c, 0, 68, 0
1, 17376, Note_on_c, 0, 69, 78
1, 17421, Note_on_c, 0, 69, 0
1, 17424, Note_on_c, 0, 68, 78
1, 17469, Note_on_c, 0, 68, 0
1, 17472, Note_on_c, 0, 66, 78
1, 17472, Note_on_c, 1, 57, 78
1, 17495, Note_on_c, 1, 57, 0
1, 17496, Note_on_c, 1, 56, 78
1, 17517, Note_on_c, 0, 66, 0
1, 17519, Note_on_c, 1, 56, 0
1, 17520, Note_on_c, 0, 59, 78
1, 17520, Note_on_c, 1, 54, 78
1, 17543, Note_on_c, 1, 54, 0
1, 17544, Note_on_c, 1, 52, 78
1, 17565, Note_on_c, 0, 59, 0
1, 17567, Note_on_c, 1, 52, 0
1, 17568, Note_on_c, 0, 66, 78
1, 17568, Note_on_c, 1, 51, 78
1, 17591, Note_on_c, 1, 51, 0
1, 17592, Note_on_c, 1, 49, 78
1, 17613, Note_on_c, 0, 66, 0
1, 17615, Note_on_c, 1, 49, 0
1, 17616, Note_on_c, 0, 69, 78
1, 17616, Note_on_c, 1, 47, 78
1, 17639, Note_on_c, 1, 47, 0
1, 17640, Note_on_c, 1, 51, 78
1, 17661, Note_on_c, 0, 69, 0
1, 17663, Note_on_c, 1, 51, 0
1, 17664, Note_on_c, 0, 68, 78
1, 17664, Note_on_c, 1, 52, 78
1, 17687, Note_on_c, 0, 68, 0
1, 17688, Note_on_c, 0, 69, 78
1, 17696, Note_on_c, 0, 69, 0
1, 17696, Note_on_c, 0, 68, 78
1, 17704, Note_on_c, 0, 68, 0
1, 17704, Note_on_c, 0, 66, 78
1, 17712, Note_on_c, 0, 66, 0
1, 17712, Note_on_c, 0, 68, 78
1, 17735, Note_on_c, 0, 68, 0
1, 17736, Note_on_c, 0, 69, 78
1, 17753, Note_on_c, 1, 52, 0
1, 17759, Note_on_c, 0, 69, 0
1, 17760, Note_on_c, 0, 71, 78
1, 17805, Note_on_c, 0, 71, 0
1, 17808, Note_on_c, 0, 69, 78
1, 17853, Note_on_c, 0, 69, 0
1, 17856, Note_on_c, 0, 68, 78
1, 17856, Note_on_c, 1, 62, 78
1, 17879, Note_on_c, 1, 62, 0
1, 17880, Note_on_c, 1, 61, 78
1, 17901, Note_on_c, 0, 68, 0
1, 17903, Note_on_c, 1, 61, 0
1, 17904, Note_on_c, 0, 64, 78
1, 17904, Note_on_c, 1, 59, 78
1, 17927, Note_on_c, 1, 59, 0
1, 17928, Note_on_c, 1, 57, 78
1, 17949, Note_on_c, 0, 64, 0
1, 17951, Note_on_c, 1, 57, 0
1, 17952, Note_on_c, 0, 68, 78
1, 17952, Note_on_c, 1, 56, 78
1, 17975, Note_on_c, 1, 56, 0
1, 17976, Note_on_c, 1, 54, 78
1, 17997, Note_on_c, 0, 68, 0
1, 17999, Note_on_c, 1, 54, 0
1, 18000, Note_on_c, 0, 71, 78
1, 18000, Note_on_c, 1, 52, 78
1, 18023, Note_on_c, 1, 52, 0
1, 18024, Note_on_c, 1, 50, 78
1, 18045, Note_on_c, 0, 71, 0
1, 18047, Note_on_c, 1, 50, 0
1, 18048, Note_on_c, 0, 69, 78
1, 18048, Note_on_c, 1, 49, 78
1, 18071, Note_on_c, 1, 49, 0
1, 18072, Note_on_c, 1, 50, 78
1, 18093, Note_on_c, 0, 69, 0
1, 18095, Note_on_c, 1, 50, 0
1, 18096, Note_on_c, 0, 64, 78
1, 18096, Note_on_c, 1, 52, 78
1, 18119, Note_on_c, 1, 52, 0
1, 18120, Note_on_c, 1, 50, 78
1, 18141, Note_on_c, 0, 64, 0
1, 18143, Note_on_c, 1, 50, 0
1, 18144, Note_on_c, 0, 69, 78
1, 18144, Note_on_c, 1, 49, 78
1, 18167, Note_on_c, 1, 49, 0
1, 18168, Note_on_c, 1, 47, 78
1, 18189, Note_on_c, 0, 69, 0
1, 18191, Note_on_c, 1, 47, 0
1, 18192, Note_on_c, 0, 73, 78
1, 18192, Note_on_c, 1, 45, 78
1, 18215, Note_on_c, 1, 45, 0
1, 18216, Note_on_c, 1, 44, 78
1, 18237, Note_on_c, 0, 73, 0
1, 18239, Note_on_c, 1, 44, 0
1, 18240, Note_on_c, 0, 69, 78
1, 18240, Note_on_c, 1, 42, 78
1, 18263, Note_on_c, 1, 42, 0
1, 18264, Note_on_c, 1, 44, 78
1, 18285, Note_on_c, 0, 69, 0
1, 18287, Note_on_c, 1, 44, 0
1, 18288, Note_on_c, 0, 73, 78
1, 18288, Note_on_c, 1, 45, 78
1, 18311, Note_on_c, 1, 45, 0
1, 18312, Note_on_c, 1, 44, 78
1, 18333, Note_on_c, 0, 73, 0
1, 18335, Note_on_c, 1, 44, 0
1, 18336, Note_on_c, 0, 81, 78
1, 18336, Note_on_c, 1, 42, 78
1, 18359, Note_on_c, 1, 42, 0
1, 18360, Note_on_c, 1, 40, 78
1, 18381, Note_on_c, 0, 81, 0
1, 18383, Note_on_c, 1, 40, 0
1, 18384, Note_on_c, 0, 81, 80
1, 18384, Note_on_c, 1, 39, 78
1, 18407, Note_on_c, 1, 39, 0
1, 18408, Note_on_c, 1, 37, 78
1, 18429, Note_on_c, 0, 81, 0
1, 18431, Note_on_c, 1, 37, 0
1, 18432, Note_on_c, 0, 81, 99
1, 18432, Note_on_c, 1, 35, 78
1, 18456, Note_on_c, 0, 81, 0
1, 18456, Note_on_c, 0, 80, 85
1, 18479, Note_on_c, 0, 80, 0
1, 18480, Note_on_c, 0, 78, 85
1, 18503, Note_on_c, 0, 78, 0
1, 18504, Note_on_c, 0, 76, 85
1, 18521, Note_on_c, 1, 35, 0
1, 18527, Note_on_c, 0, 76, 0
1, 18528, Note_on_c, 0, 75, 85
1, 18551, Note_on_c, 0, 75, 0
1, 18552, Note_on_c, 0, 73, 85
1, 18575, Note_on_c, 0, 73, 0
1, 18576, Note_on_c, 0, 71, 85
1, 18576, Note_on_c, 1, 39, 78
1, 18599, Note_on_c, 0, 71, 0
1, 18600, Note_on_c, 0, 69, 85
1, 18621, Note_on_c, 1, 39, 0
1, 18623, Note_on_c, 0, 69, 0
1, 18624, Note_on_c, 0, 68, 85
1, 18624, Note_on_c, 1, 40, 78
1, 18644, Note_on_c, 1, 40, 0
1, 18648, Note_on_c, 0, 68, 0
1, 18648, Note_on_c, 0, 71, 84
1, 18672, Note_on_c, 0, 71, 0
1, 18672, Note_on_c, 0, 69, 83
1, 18672, Note_on_c, 1, 44, 79
1, 18692, Note_on_c, 1, 44, 0
1, 18696, Note_on_c, 0, 69, 0
1, 18696, Note_on_c, 0, 68, 82
1, 18720, Note_on_c, 0, 68, 0
1, 18720, Note_on_c, 0, 66, 81
1, 18720, Note_on_c, 1, 45, 81
1, 18740, Note_on_c, 1, 45, 0
1, 18744, Note_on_c, 0, 66, 0
1, 18744, Note_on_c, 0, 64, 80
1, 18768, Note_on_c, 0, 64, 0
1, 18768, Note_on_c, 0, 63, 79
1, 18768, Note_on_c, 1, 46, 83
1, 18788, Note_on_c, 1, 46, 0
1, 18792, Note_on_c, 0, 63, 0
1, 18792, Note_on_c, 0, 61, 78
1, 18815, Note_on_c, 0, 61, 0
1, 18816, Note_on_c, 0, 59, 78
1, 18816, Note_on_c, 1, 47, 85
1, 18861, Note_on_c, 0, 59, 0
1, 18864, Note_on_c, 0, 71, 70
1, 18905, Note_on_c, 1, 47, 0
1, 18909, Note_on_c, 0, 71, 0
1, 18912, Note_on_c, 0, 71, 70
1, 18957, Note_on_c, 0, 71, 0
1, 18960, Note_on_c, 0, 71, 70
1, 19005, Note_on_c, 0, 71, 0
1, 19008, Note_on_c, 0, 73, 70
1, 19014, Note_on_c, 0, 73, 0
1, 19014, Note_on_c, 0, 71, 70
1, 19020, Note_on_c, 0, 71, 0
1, 19020, Note_on_c, 0, 70, 70
1, 19026, Note_on_c, 0, 70, 0
1, 19026, Note_on_c, 0, 71, 70
1, 19056, Note_on_c, 1, 68, 63
1, 19056, Note_on_c, 1, 64, 63
1, 19097, Note_on_c, 0, 71, 0
1, 19101, Note_on_c, 1, 68, 0
1, 19101, Note_on_c, 1, 64, 0
1, 19104, Note_on_c, 1, 66, 63
1, 19104, Note_on_c, 1, 63, 63
1, 19149, Note_on_c, 1, 66, 0
1, 19149, Note_on_c, 1, 63, 0
1, 19152, Note_on_c, 1, 68, 63
1, 19152, Note_on_c, 1, 64, 63
1, 19197, Note_on_c, 1, 68, 0
1, 19197, Note_on_c, 1, 64, 0
1, 19200, Note_on_c, 1, 69, 63
1, 19200, Note_on_c, 1, 66, 63
1, 19239, Note_on_c, 1, 69, 0
1, 19239, Note_on_c, 1, 66, 0
1, 19248, Note_on_c, 0, 71, 70
1, 19293, Note_on_c, 0, 71, 0
1, 19296, Note_on_c, 0, 71, 70
1, 19341, Note_on_c, 0, 71, 0
1, 19344, Note_on_c, 0, 71, 70
1, 19389, Note_on_c, 0, 71, 0
1, 19392, Note_on_c, 0, 73, 70
1, 19398, Note_on_c, 0, 73, 0
1, 19398, Note_on_c, 0, 71, 70
1, 19404, Note_on_c, 0, 71, 0
1, 19404, Note_on_c, 0, 70, 70
1, 19410, Note_on_c, 0, 70, 0
1, 19410, Note_on_c, 0, 71, 70
1, 19440, Note_on_c, 1, 69, 63
1, 19440, Note_on_c, 1, 66, 63
1, 19481, Note_on_c, 0, 71, 0
1, 19485, Note_on_c, 1, 69, 0
1, 19485, Note_on_c, 1, 66, 0
1, 19488, Note_on_c, 1, 68, 63
1, 19488, Note_on_c, 1, 64, 63
1, 19533, Note_on_c, 1, 68, 0
1, 19533, Note_on_c, 1, 64, 0
1, 19536, Note_on_c, 1, 69, 63
1, 19536, Note_on_c, 1, 66, 63
1, 19581, Note_on_c, 1, 69, 0
1, 19581, Note_on_c, 1, 66, 0
1, 19584, Note_on_c, 1, 71, 63
1, 19584, Note_on_c, 1, 68, 63
1, 19623, Note_on_c, 1, 71, 0
1, 19623, Note_on_c, 1, 68, 0
1, 19632, Note_on_c, 0, 76, 70
1, 19677, Note_on_c, 0, 76, 0
1, 19680, Note_on_c, 0, 76, 70
1, 19725, Note_on_c, 0, 76, 0
1, 19728, Note_on_c, 0, 76, 70
1, 19773, Note_on_c, 0, 76, 0
1, 19776, Note_on_c, 0, 78, 70
1, 19782, Note_on_c, 0, 78, 0
1, 19782, Note_on_c, 0, 76, 70
1, 19788, Note_on_c, 0, 76, 0
1, 19788, Note_on_c, 0, 76, 70
1, 19794, Note_on_c, 0, 76, 0
1, 19794, Note_on_c, 0, 76, 86
1, 19824, Note_on_c, 0, 76, 0
1, 19824, Note_on_c, 0, 77, 70
1, 19824, Note_on_c, 0, 74, 70
1, 19824, Note_on_c, 1, 71, 63
1, 19824, Note_on_c, 1, 68, 63
1, 19844, Note_on_c, 0, 77, 0
1, 19844, Note_on_c, 0, 74, 0
1, 19844, Note_on_c, 1, 71, 0
1, 19844, Note_on_c, 1, 68, 0
1, 19872, Note_on_c, 0, 77, 73
1, 19872, Note_on_c, 0, 74, 73
1, 19872, Note_on_c, 1, 71, 67
1, 19872, Note_on_c, 1, 68, 67
1, 19892, Note_on_c, 0, 77, 0
1, 19892, Note_on_c, 0, 74, 0
1, 19892, Note_on_c, 1, 71, 0
1, 19892, Note_on_c, 1, 68, 0
1, 19920, Note_on_c, 0, 77, 76
1, 19920, Note_on_c, 0, 74, 76
1, 19920, Note_on_c, 1, 71, 71
1, 19920, Note_on_c, 1, 68, 71
1, 19940, Note_on_c, 0, 77, 0
1, 19940, Note_on_c, 0, 74, 0
1, 19940, Note_on_c, 1, 71, 0
1, 19940, Note_on_c, 1, 68, 0
1, 19968, Note_on_c, 0, 77, 79
1, 19968, Note_on_c, 0, 74, 79
1, 19968, Note_on_c, 1, 71, 76
1, 19968, Note_on_c, 1, 68, 76
1, 20064, Note_on_c, 0, 77, 0
1, 20064, Note_on_c, 0, 74, 0
1, 20064, Note_on_c, 0, 78, 63
1, 20064, Note_on_c, 0, 73, 63
1, 20064, Note_on_c, 1, 71, 0
1, 20064, Note_on_c, 1, 68, 0
1, 20064, Note_on_c, 1, 69, 63
1, 20064, Note_on_c, 1, 66, 63
1, 20084, Note_on_c, 0, 78, 0
1, 20084, Note_on_c, 0, 73, 0
1, 20084, Note_on_c, 1, 69, 0
1, 20084, Note_on_c, 1, 66, 0
1, 20112, Note_on_c, 0, 80, 63
1, 20112, Note_on_c, 0, 74, 63
1, 20112, Note_on_c, 1, 71, 63
1, 20112, Note_on_c, 1, 65, 63
1, 20132, Note_on_c, 0, 80, 0
1, 20132, Note_on_c, 0, 74, 0
1, 20132, Note_on_c, 1, 71, 0
1, 20132, Note_on_c, 1, 65, 0
1, 20160, Note_on_c, 0, 80, 85
1, 20160, Note_on_c, 0, 74, 85
1, 20160, Note_on_c, 1, 71, 85
1, 20160, Note_on_c, 1, 65, 85
1, 20256, Note_on_c, 0, 80, 0
1, 20256, Note_on_c, 0, 74, 0
1, 20256, Note_on_c, 0, 81, 63
1, 20256, Note_on_c, 0, 73, 63
1, 20256, Note_on_c, 1, 71, 0
1, 20256, Note_on_c, 1, 65, 0
1, 20256, Note_on_c, 1, 69, 63
1, 20256, Note_on_c, 1, 66, 63
1, 20276, Note_on_c, 0, 81, 0
1, 20276, Note_on_c, 0, 73, 0
1, 20276, Note_on_c, 1, 69, 0
1, 20276, Note_on_c, 1, 66, 0
1, 20304, Note_on_c, 0, 75, 63
1, 20304, Note_on_c, 0, 72, 63
1, 20304, Note_on_c, 1, 69, 63
1, 20304, Note_on_c, 1, 66, 63
1, 20324, Note_on_c, 0, 75, 0
1, 20324, Note_on_c, 0, 72, 0
1, 20324, Note_on_c, 1, 69, 0
1, 20324, Note_on_c, 1, 66, 0
1, 20352, Note_on_c, 0, 75, 85
1, 20352, Note_on_c, 0, 72, 85
1, 20352, Note_on_c, 1, 69, 85
1, 20352, Note_on_c, 1, 66, 85
1, 20448, Note_on_c, 0, 75, 0
1, 20448, Note_on_c, 0, 72, 0
1, 20448, Note_on_c, 0, 76, 63
1, 20448, Note_on_c, 0, 71, 63
1, 20448, Note_on_c, 1, 69, 0
1, 20448, Note_on_c, 1, 66, 0
1, 20448, Note_on_c, 1, 68, 63
1, 20448, Note_on_c, 1, 64, 63
1, 20468, Note_on_c, 0, 76, 0
1, 20468, Note_on_c, 0, 71, 0
1, 20468, Note_on_c, 1, 68, 0
1, 20468, Note_on_c, 1, 64, 0
1, 20496, Note_on_c, 0, 78, 63
1, 20496, Note_on_c, 0, 72, 63
1, 20496, Note_on_c, 1, 69, 63
1, 20496, Note_on_c, 1, 63, 63
1, 20516, Note_on_c, 0, 78, 0
1, 20516, Note_on_c, 0, 72, 0
1, 20516, Note_on_c, 1, 69, 0
1, 20516, Note_on_c, 1, 63, 0
1, 20544, Note_on_c, 0, 78, 85
1, 20544, Note_on_c, 0, 72, 85
1, 20544, Note_on_c, 1, 69, 85
1, 20544, Note_on_c, 1, 63, 85
1, 20640, Note_on_c, 0, 78, 0
1, 20640, Note_on_c, 0, 72, 0
1, 20640, Note_on_c, 0, 80, 63
1, 20640, Note_on_c, 0, 71, 63
1, 20640, Note_on_c, 1, 69, 0
1, 20640, Note_on_c, 1, 63, 0
1, 20640, Note_on_c, 1, 68, 85
1, 20640, Note_on_c, 1, 64, 85
1, 20660, Note_on_c, 0, 80, 0
1, 20660, Note_on_c, 0, 71, 0
1, 20685, Note_on_c, 1, 68, 0
1, 20685, Note_on_c, 1, 64, 0
1, 20688, Note_on_c, 0, 83, 85
1, 20688, Note_on_c, 0, 71, 85
1, 20688, Note_on_c, 1, 64, 85
1, 20688, Note_on_c, 1, 56, 85
1, 20708, Note_on_c, 0, 83, 0
1, 20708, Note_on_c, 0, 71, 0
1, 20708, Note_on_c, 1, 64, 0
1, 20708, Note_on_c, 1, 56, 0
1, 20736, Note_on_c, 0, 83, 101
1, 20736, Note_on_c, 0, 71, 101
1, 20736, Note_on_c, 1, 64, 85
1, 20736, Note_on_c, 1, 56, 64
1, 20825, Note_on_c, 1, 56, 0
1, 20832, Note_on_c, 0, 83, 0
1, 20832, Note_on_c, 0, 71, 0
1, 20832, Note_on_c, 0, 82, 85
1, 20832, Note_on_c, 0, 70, 85
1, 20832, Note_on_c, 1, 55, 64
1, 20877, Note_on_c, 0, 82, 0
1, 20877, Note_on_c, 0, 70, 0
1, 20877, Note_on_c, 1, 55, 0
1, 20880, Note_on_c, 0, 83, 85
1, 20880, Note_on_c, 0, 71, 85
1, 20880, Note_on_c, 1, 56, 64
1, 20913, Note_on_c, 1, 64, 0
1, 20925, Note_on_c, 0, 83, 0
1, 20925, Note_on_c, 0, 71, 0
1, 20925, Note_on_c, 1, 56, 0
1, 20928, Note_on_c, 0, 84, 101
1, 20928, Note_on_c, 0, 72, 101
1, 20928, Note_on_c, 1, 64, 85
1, 20928, Note_on_c, 1, 57, 64
1, 21024, Note_on_c, 0, 84, 0
1, 21024, Note_on_c, 0, 72, 0
1, 21024, Note_on_c, 0, 85, 85
1, 21024, Note_on_c, 0, 73, 85
1, 21061, Note_on_c, 1, 64, 0
1, 21061, Note_on_c, 1, 57, 0
1, 21069, Note_on_c, 0, 85, 0
1, 21069, Note_on_c, 0, 73, 0
1, 21072, Note_on_c, 0, 83, 85
1, 21072, Note_on_c, 0, 71, 85
1, 21072, Note_on_c, 1, 64, 85
1, 21072, Note_on_c, 1, 56, 64
1, 21092, Note_on_c, 0, 83, 0
1, 21092, Note_on_c, 0, 71, 0
1, 21117, Note_on_c, 1, 64, 0
1, 21117, Note_on_c, 1, 56, 0
1, 21120, Note_on_c, 0, 83, 101
1, 21120, Note_on_c, 0, 71, 101
1, 21120, Note_on_c, 1, 63, 85
1, 21120, Note_on_c, 1, 54, 85
1, 21165, Note_on_c, 1, 63, 0
1, 21165, Note_on_c, 1, 54, 0
1, 21168, Note_on_c, 0, 83, 0
1, 21168, Note_on_c, 0, 71, 0
1, 21168, Note_on_c, 0, 81, 85
1, 21168, Note_on_c, 0, 69, 85
1, 21191, Note_on_c, 0, 81, 0
1, 21191, Note_on_c, 0, 69, 0
1, 21216, Note_on_c, 0, 81, 85
1, 21216, Note_on_c, 0, 69, 85
1, 21216, Note_on_c, 1, 64, 85
1, 21216, Note_on_c, 1, 52, 85
1, 21261, Note_on_c, 1, 64, 0
1, 21261, Note_on_c, 1, 52, 0
1, 21264, Note_on_c, 0, 81, 0
1, 21264, Note_on_c, 0, 69, 0
1, 21264, Note_on_c, 0, 80, 85
1, 21264, Note_on_c, 0, 68, 85
1, 21287, Note_on_c, 0, 80, 0
1, 21287, Note_on_c, 0, 68, 0
1, 21312, Note_on_c, 0, 80, 85
1, 21312, Note_on_c, 0, 68, 85
1, 21312, Note_on_c, 1, 61, 85
1, 21312, Note_on_c, 1, 57, 85
1, 21357, Note_on_c, 1, 61, 0
1, 21357, Note_on_c, 1, 57, 0
1, 21360, Note_on_c, 0, 80, 0
1, 21360, Note_on_c, 0, 68, 0
1, 21360, Note_on_c, 0, 78, 85
1, 21360, Note_on_c, 0, 66, 85
1, 21383, Note_on_c, 0, 78, 0
1, 21383, Note_on_c, 0, 66, 0
1, 21408, Note_on_c, 0, 81, 70
1, 21453, Note_on_c, 0, 81, 0
1, 21456, Note_on_c, 0, 75, 70
1, 21456, Note_on_c, 1, 69, 63
1, 21456, Note_on_c, 1, 59, 63
1, 21501, Note_on_c, 0, 75, 0
1, 21501, Note_on_c, 1, 69, 0
1, 21501, Note_on_c, 1, 59, 0
1, 21504, Note_on_c, 0, 75, 70
1, 21504, Note_on_c, 1, 69, 63
1, 21504, Note_on_c, 1, 61, 63
1, 21593, Note_on_c, 0, 75, 0
1, 21600, Note_on_c, 0, 78, 70
1, 21667, Note_on_c, 0, 78, 0
1, 21672, Note_on_c, 0, 76, 70
1, 21695, Note_on_c, 0, 76, 0
1, 21696, Note_on_c, 0, 76, 70
1, 21696, Note_on_c, 1, 69, 0
1, 21696, Note_on_c, 1, 68, 63
1, 21829, Note_on_c, 0, 76, 0
1, 21840, Note_on_c, 0, 76, 70
1, 21852, Note_on_c, 0, 76, 0
1, 21852, Note_on_c, 0, 75, 72
1, 21864, Note_on_c, 0, 75, 0
1, 21864, Note_on_c, 0, 73, 74
1, 21873, Note_on_c, 1, 68, 0
1, 21873, Note_on_c, 1, 61, 0
1, 21876, Note_on_c, 0, 73, 0
1, 21876, Note_on_c, 0, 71, 76
1, 21888, Note_on_c, 0, 71, 0
1, 21888, Note_on_c, 0, 70, 85
1, 21888, Note_on_c, 1, 67, 85
1, 21888, Note_on_c, 1, 64, 85
1, 21888, Note_on_c, 1, 61, 85
1, 21977, Note_on_c, 0, 70, 0
1, 21977, Note_on_c, 1, 67, 0
1, 21977, Note_on_c, 1, 64, 0
1, 21977, Note_on_c, 1, 61, 0
1, 21984, Note_on_c, 0, 76, 85
1, 21996, Note_on_c, 0, 76, 0
1, 21996, Note_on_c, 0, 88, 85
1, 22029, Note_on_c, 0, 88, 0
1, 22032, Note_on_c, 0, 73, 85
1, 22044, Note_on_c, 0, 73, 0
1, 22044, Note_on_c, 0, 85, 85
1, 22077, Note_on_c, 0, 85, 0
1, 22080, Note_on_c, 0, 70, 85
1, 22092, Note_on_c, 0, 70, 0
1, 22092, Note_on_c, 0, 82, 85
1, 22125, Note_on_c, 0, 82, 0
1, 22128, Note_on_c, 0, 67, 85
1, 22140, Note_on_c, 0, 67, 0
1, 22140, Note_on_c, 0, 79, 85
1, 22173, Note_on_c, 0, 79, 0
1, 22176, Note_on_c, 0, 64, 85
1, 22188, Note_on_c, 0, 64, 0
1, 22188, Note_on_c, 0, 76, 85
1, 22221, Note_on_c, 0, 76, 0
1, 22224, Note_on_c, 0, 61, 85
1, 22236, Note_on_c, 0, 61, 0
1, 22236, Note_on_c, 0, 73, 85
1, 22269, Note_on_c, 0, 73, 0
1, 22272, Note_on_c, 0, 70, 106
1, 22272, Note_on_c, 0, 58, 106
1, 22272, Note_on_c, 1, 46, 106
1, 22272, Note_on_c, 1, 34, 106
1, 22464, Note_on_c, 0, 70, 0
1, 22464, Note_on_c, 0, 58, 0
1, 22464, Note_on_c, 0, 69, 85
1, 22464, Note_on_c, 0, 57, 85
1, 22464, Note_on_c, 1, 46, 0
1, 22464, Note_on_c, 1, 34, 0
1, 22464, Note_on_c, 1, 45, 85
1, 22464, Note_on_c, 1, 33, 85
1, 22641, Note_on_c, 0, 69, 0
1, 22641, Note_on_c, 0, 57, 0
1, 22641, Note_on_c, 1, 45, 0
1, 22641, Note_on_c, 1, 33, 0
1, 22656, Note_on_c, 0, 56, 78
1, 22656, Note_on_c, 1, 44, 78
1, 22656, Note_on_c, 1, 32, 78
1, 22679, Note_on_c, 0, 56, 0
1, 22680, Note_on_c, 0, 68, 78
1, 22703, Note_on_c, 0, 68, 0
1, 22704, Note_on_c, 0, 59, 78
1, 22727, Note_on_c, 0, 59, 0
1, 22728, Note_on_c, 0, 71, 78
1, 22745, Note_on_c, 1, 44, 0
1, 22745, Note_on_c, 1, 32, 0
1, 22751, Note_on_c, 0, 71, 0
1, 22752, Note_on_c, 0, 69, 78
1, 22775, Note_on_c, 0, 69, 0
1, 22776, Note_on_c, 0, 68, 78
1, 22799, Note_on_c, 0, 68, 0
1, 22800, Note_on_c, 0, 66, 78
1, 22823, Note_on_c, 0, 66, 0
1, 22824, Note_on_c, 0, 64, 78
1, 22847, Note_on_c, 0, 64, 0
1, 22848, Note_on_c, 0, 61, 78
1, 22848, Note_on_c, 1, 45, 78
1, 22848, Note_on_c, 1, 33, 78
1, 22871, Note_on_c, 0, 61, 0
1, 22872, Note_on_c, 0, 73, 78
1, 22895, Note_on_c, 0, 73, 0
1, 22896, Note_on_c, 0, 64, 78
1, 22919, Note_on_c, 0, 64, 0
1, 22920, Note_on_c, 0, 76, 78
1, 22937, Note_on_c, 1, 45, 0
1, 22937, Note_on_c, 1, 33, 0
1, 22943, Note_on_c, 0, 76, 0
1, 22944, Note_on_c, 0, 75, 78
1, 22967, Note_on_c, 0, 75, 0
1, 22968, Note_on_c, 0, 73, 78
1, 22991, Note_on_c, 0, 73, 0
1, 22992, Note_on_c, 0, 71, 78
1, 23015, Note_on_c, 0, 71, 0
1, 23016, Note_on_c, 0, 69, 78
1, 23039, Note_on_c, 0, 69, 0
1, 23040, Note_on_c, 0, 68, 78
1, 23040, Note_on_c, 1, 52, 78
1, 23040, Note_on_c, 1, 47, 78
1, 23129, Note_on_c, 0, 68, 0
1, 23129, Note_on_c, 1, 52, 0
1, 23129, Note_on_c, 1, 47, 0
1, 23136, Note_on_c, 0, 71, 78
1, 23136, Note_on_c, 1, 51, 78
1, 23136, Note_on_c, 1, 47, 78
1, 23159, Note_on_c, 0, 71, 0
1, 23160, Note_on_c, 0, 69, 78
1, 23183, Note_on_c, 0, 69, 0
1, 23184, Note_on_c, 0, 68, 78
1, 23207, Note_on_c, 0, 68, 0
1, 23208, Note_on_c, 0, 66, 78
1, 23225, Note_on_c, 1, 51, 0
1, 23225, Note_on_c, 1, 47, 0
1, 23231, Note_on_c, 0, 66, 0
1, 23232, Note_on_c, 0, 68, 78
1, 23232, Note_on_c, 1, 40, 78
1, 23255, Note_on_c, 0, 68, 0
1, 23255, Note_on_c, 1, 40, 0
1, 23256, Note_on_c, 0, 80, 78
1, 23256, Note_on_c, 1, 52, 78
1, 23279, Note_on_c, 0, 80, 0
1, 23279, Note_on_c, 1, 52, 0
1, 23280, Note_on_c, 0, 71, 78
1, 23280, Note_on_c, 1, 44, 78
1, 23303, Note_on_c, 0, 71, 0
1, 23303, Note_on_c, 1, 44, 0
1, 23304, Note_on_c, 0, 83, 78
1, 23304, Note_on_c, 1, 56, 78
1, 23327, Note_on_c, 0, 83, 0
1, 23327, Note_on_c, 1, 56, 0
1, 23328, Note_on_c, 0, 81, 78
1, 23351, Note_on_c, 0, 81, 0
1, 23352, Note_on_c, 0, 80, 78
1, 23375, Note_on_c, 0, 80, 0
1, 23376, Note_on_c, 0, 78, 78
1, 23399, Note_on_c, 0, 78, 0
1, 23400, Note_on_c, 0, 76, 78
1, 23423, Note_on_c, 0, 76, 0
1, 23424, Note_on_c, 0, 73, 78
1, 23424, Note_on_c, 0, 64, 64
1, 23424, Note_on_c, 1, 45, 78
1, 23447, Note_on_c, 0, 73, 0
1, 23447, Note_on_c, 1, 45, 0
1, 23448, Note_on_c, 0, 85, 78
1, 23448, Note_on_c, 1, 57, 78
1, 23471, Note_on_c, 0, 85, 0
1, 23471, Note_on_c, 1, 57, 0
1, 23472, Note_on_c, 0, 76, 78
1, 23472, Note_on_c, 1, 49, 78
1, 23495, Note_on_c, 0, 76, 0
1, 23495, Note_on_c, 1, 49, 0
1, 23496, Note_on_c, 0, 88, 78
1, 23496, Note_on_c, 1, 61, 78
1, 23519, Note_on_c, 0, 88, 0
1, 23519, Note_on_c, 1, 61, 0
1, 23568, Note_on_c, 0, 85, 78
1, 23580, Note_on_c, 0, 85, 0
1, 23580, Note_on_c, 0, 84, 78
1, 23592, Note_on_c, 0, 84, 0
1, 23592, Note_on_c, 0, 85, 78
1, 23604, Note_on_c, 0, 85, 0
1, 23604, Note_on_c, 0, 87, 78
1, 23616, Note_on_c, 0, 87, 0
1, 23616, Note_on_c, 0, 88, 78
1, 23636, Note_on_c, 0, 88, 0
1, 23664, Note_on_c, 0, 81, 78
1, 23684, Note_on_c, 0, 81, 0
1, 23712, Note_on_c, 0, 85, 78
1, 23732, Note_on_c, 0, 85, 0
1, 23734, Note_on_c, 0, 64, 0
1, 23760, Note_on_c, 0, 78, 78
1, 23780, Note_on_c, 0, 78, 0
1, 23808, Note_on_c, 0, 71, 78
1, 23808, Note_on_c, 1, 59, 85
1, 23808, Note_on_c, 1, 63, 85
1, 23808, Note_on_c, 1, 66, 85
1, 23808, Note_on_c, 1, 69, 85
1, 23814, Note_on_c, 0, 71, 0
1, 23814, Note_on_c, 0, 75, 78
1, 23820, Note_on_c, 0, 75, 0
1, 23820, Note_on_c, 0, 78, 78
1, 23826, Note_on_c, 0, 78, 0
1, 23826, Note_on_c, 0, 80, 78
1, 23832, Note_on_c, 0, 80, 0
1, 23832, Note_on_c, 0, 81, 78
1, 23847, Note_on_c, 0, 81, 0
1, 23847, Note_on_c, 1, 69, 0
1, 23847, Note_on_c, 1, 66, 0
1, 23847, Note_on_c, 1, 63, 0
1, 23847, Note_on_c, 1, 59, 0
1, 23904, Note_on_c, 0, 73, 78
1, 23904, Note_on_c, 1, 61, 85
1, 23904, Note_on_c, 1, 64, 85
1, 23904, Note_on_c, 1, 68, 85
1, 23910, Note_on_c, 0, 73, 0
1, 23910, Note_on_c, 0, 75, 78
1, 23916, Note_on_c, 0, 75, 0
1, 23916, Note_on_c, 0, 76, 78
1, 23922, Note_on_c, 0, 76, 0
1, 23922, Note_on_c, 0, 80, 78
1, 23943, Note_on_c, 0, 80, 0
1, 23943, Note_on_c, 1, 68, 0
1, 23943, Note_on_c, 1, 64, 0
1, 23943, Note_on_c, 1, 61, 0
1, 24000, Note_on_c, 0, 69, 78
1, 24000, Note_on_c, 1, 57, 85
1, 24000, Note_on_c, 1, 61, 85
1, 24000, Note_on_c, 1, 66, 85
1, 24006, Note_on_c, 0, 69, 0
1, 24006, Note_on_c, 0, 73, 78
1, 24012, Note_on_c, 0, 73, 0
1, 24012, Note_on_c, 0, 77, 78
1, 24018, Note_on_c, 0, 77, 0
1, 24018, Note_on_c, 0, 78, 78
1, 24039, Note_on_c, 0, 78, 0
1, 24039, Note_on_c, 1, 66, 0
1, 24039, Note_on_c, 1, 61, 0
1, 24039, Note_on_c, 1, 57, 0
1, 24144, Note_on_c, 0, 75, 78
1, 24144, Note_on_c, 1, 69, 78
1, 24144, Note_on_c, 1, 59, 78
1, 24178, Note_on_c, 0, 75, 0
1, 24180, Note_on_c, 0, 71, 78
1, 24192, Note_on_c, 0, 71, 0
1, 24192, Note_on_c, 0, 76, 78
1, 24192, Note_on_c, 1, 69, 0
1, 24192, Note_on_c, 1, 59, 0
1, 24192, Note_on_c, 1, 68, 78
1, 24192, Note_on_c, 1, 64, 78
1, 24212, Note_on_c, 0, 76, 0
1, 24231, Note_on_c, 1, 68, 0
1, 24231, Note_on_c, 1, 64, 0
1, 24240, Note_on_c, 0, 83, 78
1, 24240, Note_on_c, 0, 80, 78
1, 24288, Note_on_c, 0, 83, 0
1, 24288, Note_on_c, 0, 76, 78
1, 24333, Note_on_c, 0, 80, 0
1, 24333, Note_on_c, 0, 76, 0
1, 24336, Note_on_c, 0, 75, 78
1, 24336, Note_on_c, 1, 69, 78
1, 24336, Note_on_c, 1, 59, 78
1, 24370, Note_on_c, 0, 75, 0
1, 24372, Note_on_c, 0, 71, 78
1, 24384, Note_on_c, 0, 71, 0
1, 24384, Note_on_c, 0, 76, 78
1, 24384, Note_on_c, 1, 69, 0
1, 24384, Note_on_c, 1, 59, 0
1, 24384, Note_on_c, 1, 68, 78
1, 24384, Note_on_c, 1, 64, 78
1, 24404, Note_on_c, 0, 76, 0
1, 24423, Note_on_c, 1, 68, 0
1, 24423, Note_on_c, 1, 64, 0
1, 24432, Note_on_c, 0, 78, 78
1, 24432, Note_on_c, 0, 75, 78
1, 24480, Note_on_c, 0, 78, 0
1, 24480, Note_on_c, 0, 75, 0
1, 24480, Note_on_c, 0, 80, 78
1, 24480, Note_on_c, 0, 76, 78
1, 24525, Note_on_c, 0, 80, 0
1, 24525, Note_on_c, 0, 76, 0
1, 24528, Note_on_c, 0, 75, 70
1, 24528, Note_on_c, 1, 69, 70
1, 24528, Note_on_c, 1, 59, 70
1, 24562, Note_on_c, 0, 75, 0
1, 24564, Note_on_c, 0, 71, 70
1, 24576, Note_on_c, 0, 71, 0
1, 24576, Note_on_c, 0, 76, 70
1, 24576, Note_on_c, 1, 69, 0
1, 24576, Note_on_c, 1, 59, 0
1, 24576, Note_on_c, 1, 68, 70
1, 24576, Note_on_c, 1, 64, 70
1, 24596, Note_on_c, 0, 76, 0
1, 24615, Note_on_c, 1, 68, 0
1, 24615, Note_on_c, 1, 64, 0
1, 24624, Note_on_c, 0, 83, 70
1, 24624, Note_on_c, 0, 80, 70
1, 24672, Note_on_c, 0, 83, 0
1, 24672, Note_on_c, 0, 76, 70
1, 24717, Note_on_c, 0, 80, 0
1, 24717, Note_on_c, 0, 76, 0
1, 24720, Note_on_c, 0, 75, 70
1, 24720, Note_on_c, 1, 69, 70
1, 24720, Note_on_c, 1, 59, 70
1, 24754, Note_on_c, 0, 75, 0
1, 24756, Note_on_c, 0, 71, 70
1, 24768, Note_on_c, 0, 71, 0
1, 24768, Note_on_c, 0, 76, 70
1, 24768, Note_on_c, 1, 69, 0
1, 24768, Note_on_c, 1, 59, 0
1, 24768, Note_on_c, 1, 68, 70
1, 24768, Note_on_c, 1, 64, 70
1, 24788, Note_on_c, 0, 76, 0
1, 24807, Note_on_c, 1, 68, 0
1, 24807, Note_on_c, 1, 64, 0
1, 24816, Note_on_c, 0, 78, 70
1, 24816, Note_on_c, 0, 75, 70
1, 24864, Note_on_c, 0, 78, 0
1, 24864, Note_on_c, 0, 75, 0
1, 24864, Note_on_c, 0, 80, 70
1, 24864, Note_on_c, 0, 76, 70
1, 24909, Note_on_c, 0, 80, 0
1, 24909, Note_on_c, 0, 76, 0
1, 24912, Note_on_c, 0, 75, 63
1, 24912, Note_on_c, 1, 69, 63
1, 24912, Note_on_c, 1, 59, 63
1, 24946, Note_on_c, 0, 75, 0
1, 24948, Note_on_c, 0, 71, 63
1, 24960, Note_on_c, 0, 71, 0
1, 24960, Note_on_c, 0, 76, 63
1, 24960, Note_on_c, 1, 69, 0
1, 24960, Note_on_c, 1, 59, 0
1, 24960, Note_on_c, 1, 68, 63
1, 24960, Note_on_c, 1, 64, 63
1, 24980, Note_on_c, 0, 76, 0
1, 24980, Note_on_c, 1, 68, 0
1, 24980, Note_on_c, 1, 64, 0
1, 25056, Note_on_c, 0, 87, 55
1, 25056, Note_on_c, 0, 78, 55
1, 25056, Note_on_c, 1, 59, 55
1, 25076, Note_on_c, 0, 87, 0
1, 25076, Note_on_c, 0, 78, 0
1, 25076, Note_on_c, 1, 59, 0
1, 25152, Note_on_c, 0, 88, 55
1, 25152, Note_on_c, 0, 80, 55
1, 25152, Note_on_c, 1, 52, 64
1, 25191, Note_on_c, 0, 88, 0
1, 25191, Note_on_c, 0, 80, 0
1, 25191, Note_on_c, 1, 52, 0
1, 25344, Note_on_c, 0, 76, 78
1, 25367, Note_on_c, 0, 76, 0
1, 25368, Note_on_c, 0, 78, 78
1, 25376, Note_on_c, 0, 78, 0
1, 25376, Note_on_c, 0, 76, 78
1, 25384, Note_on_c, 0, 76, 0
1, 25384, Note_on_c, 0, 75, 78
1, 25392, Note_on_c, 0, 75, 0
1, 25392, Note_on_c, 0, 76, 78
1, 25415, Note_on_c, 0, 76, 0
1, 25416, Note_on_c, 0, 78, 78
1, 25439, Note_on_c, 0, 78, 0
1, 25440, Note_on_c, 0, 80, 78
1, 25485, Note_on_c, 0, 80, 0
1, 25488, Note_on_c, 0, 78, 78
1, 25533, Note_on_c, 0, 78, 0
1, 25536, Note_on_c, 0, 76, 78
1, 25536, Note_on_c, 1, 64, 78
1, 25559, Note_on_c, 1, 64, 0
1, 25560, Note_on_c, 1, 63, 78
1, 25581, Note_on_c, 0, 76, 0
1, 25583, Note_on_c, 1, 63, 0
1, 25584, Note_on_c, 0, 71, 78
1, 25584, Note_on_c, 1, 61, 78
1, 25607, Note_on_c, 1, 61, 0
1, 25608, Note_on_c, 1, 59, 78
1, 25629, Note_on_c, 0, 71, 0
1, 25631, Note_on_c, 1, 59, 0
1, 25632, Note_on_c, 0, 76, 78
1, 25632, Note_on_c, 1, 57, 78
1, 25655, Note_on_c, 1, 57, 0
1, 25656, Note_on_c, 1, 56, 78
1, 25677, Note_on_c, 0, 76, 0
1, 25679, Note_on_c, 1, 56, 0
1, 25680, Note_on_c, 0, 80, 78
1, 25680, Note_on_c, 1, 54, 78
1, 25703, Note_on_c, 1, 54, 0
1, 25704, Note_on_c, 1, 52, 78
1, 25725, Note_on_c, 0, 80, 0
1, 25727, Note_on_c, 1, 52, 0
1, 25728, Note_on_c, 0, 78, 78
1, 25728, Note_on_c, 1, 51, 78
1, 25751, Note_on_c, 0, 78, 0
1, 25752, Note_on_c, 0, 80, 78
1, 25760, Note_on_c, 0, 80, 0
1, 25760, Note_on_c, 0, 78, 78
1, 25768, Note_on_c, 0, 78, 0
1, 25768, Note_on_c, 0, 76, 78
1, 25776, Note_on_c, 0, 76, 0
1, 25776, Note_on_c, 0, 78, 78
1, 25799, Note_on_c, 0, 78, 0
1, 25800, Note_on_c, 0, 80, 78
1, 25817, Note_on_c, 1, 51, 0
1, 25823, Note_on_c, 0, 80, 0
1, 25824, Note_on_c, 0, 81, 78
1, 25869, Note_on_c, 0, 81, 0
1, 25872, Note_on_c, 0, 80, 78
1, 25917, Note_on_c, 0, 80, 0
1, 25920, Note_on_c, 0, 78, 78
1, 25920, Note_on_c, 1, 69, 64
1, 25943, Note_on_c, 1, 69, 0
1, 25944, Note_on_c, 1, 68, 64
1, 25965, Note_on_c, 0, 78, 0
1, 25967, Note_on_c, 1, 68, 0
1, 25968, Note_on_c, 0, 71, 78
1, 25968, Note_on_c, 1, 66, 64
1, 25991, Note_on_c, 1, 66, 0
1, 25992, Note_on_c, 1, 64, 64
1, 26013, Note_on_c, 0, 71, 0
1, 26015, Note_on_c, 1, 64, 0
1, 26016, Note_on_c, 0, 78, 78
1, 26016, Note_on_c, 1, 63, 64
1, 26039, Note_on_c, 1, 63, 0
1, 26040, Note_on_c, 1, 61, 64
1, 26061, Note_on_c, 0, 78, 0
1, 26063, Note_on_c, 1, 61, 0
1, 26064, Note_on_c, 0, 81, 78
1, 26064, Note_on_c, 1, 59, 64
1, 26087, Note_on_c, 1, 59, 0
1, 26088, Note_on_c, 1, 63, 64
1, 26109, Note_on_c, 0, 81, 0
1, 26111, Note_on_c, 1, 63, 0
1, 26112, Note_on_c, 0, 80, 78
1, 26112, Note_on_c, 1, 64, 64
1, 26135, Note_on_c, 0, 80, 0
1, 26136, Note_on_c, 0, 81, 78
1, 26144, Note_on_c, 0, 81, 0
1, 26144, Note_on_c, 0, 80, 78
1, 26152, Note_on_c, 0, 80, 0
1, 26152, Note_on_c, 0, 78, 78
1, 26160, Note_on_c, 0, 78, 0
1, 26160, Note_on_c, 0, 80, 78
1, 26183, Note_on_c, 0, 80, 0
1, 26184, Note_on_c, 0, 81, 78
1, 26207, Note_on_c, 0, 81, 0
1, 26208, Note_on_c, 0, 83, 78
1, 26231, Note_on_c, 0, 83, 0
1, 26232, Note_on_c, 0, 81, 78
1, 26245, Note_on_c, 1, 64, 0
1, 26255, Note_on_c, 0, 81, 0
1, 26256, Note_on_c, 0, 80, 78
1, 26256, Note_on_c, 1, 62, 64
1, 26279, Note_on_c, 0, 80, 0
1, 26280, Note_on_c, 0, 78, 78
1, 26301, Note_on_c, 1, 62, 0
1, 26303, Note_on_c, 0, 78, 0
1, 26304, Note_on_c, 0, 77, 78
1, 26304, Note_on_c, 1, 61, 64
1, 26327, Note_on_c, 0, 77, 0
1, 26328, Note_on_c, 0, 80, 79
1, 26351, Note_on_c, 0, 80, 0
1, 26352, Note_on_c, 0, 83, 81
1, 26375, Note_on_c, 0, 83, 0
1, 26376, Note_on_c, 0, 86, 83
1, 26393, Note_on_c, 1, 61, 0
1, 26399, Note_on_c, 0, 86, 0
1, 26400, Note_on_c, 0, 85, 85
1, 26400, Note_on_c, 1, 65, 64
1, 26423, Note_on_c, 0, 85, 0
1, 26424, Note_on_c, 0, 83, 83
1, 26447, Note_on_c, 0, 83, 0
1, 26448, Note_on_c, 0, 81, 81
1, 26471, Note_on_c, 0, 81, 0
1, 26472, Note_on_c, 0, 80, 79
1, 26489, Note_on_c, 1, 65, 0
1, 26495, Note_on_c, 0, 80, 0
1, 26496, Note_on_c, 0, 78, 78
1, 26496, Note_on_c, 1, 66, 85
1, 26519, Note_on_c, 0, 78, 0
1, 26519, Note_on_c, 1, 66, 0
1, 26520, Note_on_c, 0, 80, 78
1, 26520, Note_on_c, 1, 68, 85
1, 26528, Note_on_c, 0, 80, 0
1, 26528, Note_on_c, 0, 78, 78
1, 26528, Note_on_c, 1, 68, 0
1, 26528, Note_on_c, 1, 66, 85
1, 26536, Note_on_c, 0, 78, 0
1, 26536, Note_on_c, 0, 77, 78
1, 26536, Note_on_c, 1, 66, 0
1, 26536, Note_on_c, 1, 65, 85
1, 26544, Note_on_c, 0, 77, 0
1, 26544, Note_on_c, 0, 78, 78
1, 26544, Note_on_c, 1, 65, 0
1, 26544, Note_on_c, 1, 66, 85
1, 26567, Note_on_c, 0, 78, 0
1, 26567, Note_on_c, 1, 66, 0
1, 26568, Note_on_c, 0, 80, 78
1, 26568, Note_on_c, 1, 68, 85
1, 26591, Note_on_c, 0, 80, 0
1, 26591, Note_on_c, 1, 68, 0
1, 26592, Note_on_c, 0, 81, 78
1, 26592, Note_on_c, 1, 69, 85
1, 26637, Note_on_c, 0, 81, 0
1, 26637, Note_on_c, 1, 69, 0
1, 26640, Note_on_c, 0, 80, 78
1, 26640, Note_on_c, 1, 68, 85
1, 26685, Note_on_c, 0, 80, 0
1, 26685, Note_on_c, 1, 68, 0
1, 26688, Note_on_c, 0, 78, 78
1, 26688, Note_on_c, 1, 66, 85
1, 26708, Note_on_c, 0, 78, 0
1, 26708, Note_on_c, 1, 66, 0
1, 26736, Note_on_c, 0, 73, 78
1, 26736, Note_on_c, 1, 61, 85
1, 26756, Note_on_c, 0, 73, 0
1, 26756, Note_on_c, 1, 61, 0
1, 26784, Note_on_c, 0, 78, 78
1, 26784, Note_on_c, 1, 66, 85
1, 26804, Note_on_c, 0, 78, 0
1, 26804, Note_on_c, 1, 66, 0
1, 26832, Note_on_c, 0, 81, 78
1, 26832, Note_on_c, 1, 69, 85
1, 26852, Note_on_c, 0, 81, 0
1, 26852, Note_on_c, 1, 69, 0
1, 26880, Note_on_c, 0, 78, 78
1, 26880, Note_on_c, 1, 66, 85
1, 26925, Note_on_c, 0, 78, 0
1, 26928, Note_on_c, 0, 85, 70
1, 26969, Note_on_c, 1, 66, 0
1, 26973, Note_on_c, 0, 85, 0
1, 26976, Note_on_c, 0, 85, 70
1, 27021, Note_on_c, 0, 85, 0
1, 27024, Note_on_c, 0, 85, 70
1, 27069, Note_on_c, 0, 85, 0
1, 27072, Note_on_c, 0, 87, 70
1, 27078, Note_on_c, 0, 87, 0
1, 27078, Note_on_c, 0, 85, 70
1, 27084, Note_on_c, 0, 85, 0
1, 27084, Note_on_c, 0, 84, 70
1, 27090, Note_on_c, 0, 84, 0
1, 27090, Note_on_c, 0, 85, 70
1, 27120, Note_on_c, 1, 69, 63
1, 27120, Note_on_c, 1, 66, 63
1, 27161, Note_on_c, 0, 85, 0
1, 27165, Note_on_c, 1, 69, 0
1, 27165, Note_on_c, 1, 66, 0
1, 27168, Note_on_c, 1, 68, 63
1, 27168, Note_on_c, 1, 65, 63
1, 27213, Note_on_c, 1, 68, 0
1, 27213, Note_on_c, 1, 65, 0
1, 27216, Note_on_c, 1, 69, 63
1, 27216, Note_on_c, 1, 66, 63
1, 27261, Note_on_c, 1, 69, 0
1, 27261, Note_on_c, 1, 66, 0
1, 27264, Note_on_c, 1, 71, 63
1, 27264, Note_on_c, 1, 68, 63
1, 27303, Note_on_c, 1, 71, 0
1, 27303, Note_on_c, 1, 68, 0
1, 27312, Note_on_c, 0, 85, 70
1, 27357, Note_on_c, 0, 85, 0
1, 27360, Note_on_c, 0, 85, 70
1, 27405, Note_on_c, 0, 85, 0
1, 27408, Note_on_c, 0, 85, 70
1, 27453, Note_on_c, 0, 85, 0
1, 27456, Note_on_c, 0, 87, 70
1, 27462, Note_on_c, 0, 87, 0
1, 27462, Note_on_c, 0, 85, 70
1, 27468, Note_on_c, 0, 85, 0
1, 27468, Note_on_c, 0, 84, 70
1, 27474, Note_on_c, 0, 84, 0
1, 27474, Note_on_c, 0, 85, 70
1, 27504, Note_on_c, 1, 71, 63
1, 27504, Note_on_c, 1, 68, 63
1, 27545, Note_on_c, 0, 85, 0
1, 27549, Note_on_c, 1, 71, 0
1, 27549, Note_on_c, 1, 68, 0
1, 27552, Note_on_c, 1, 69, 63
1, 27552, Note_on_c, 1, 66, 63
1, 27597, Note_on_c, 1, 69, 0
1, 27597, Note_on_c, 1, 66, 0
1, 27600, Note_on_c, 1, 71, 63
1, 27600, Note_on_c, 1, 68, 63
1, 27645, Note_on_c, 1, 71, 0
1, 27645, Note_on_c, 1, 68, 0
1, 27648, Note_on_c, 1, 73, 63
1, 27648, Note_on_c, 1, 69, 63
1, 27687, Note_on_c, 1, 73, 0
1, 27687, Note_on_c, 1, 69, 0
1, 27696, Note_on_c, 0, 78, 70
1, 27741, Note_on_c, 0, 78, 0
1, 27744, Note_on_c, 0, 78, 70
1, 27789, Note_on_c, 0, 78, 0
1, 27792, Note_on_c, 0, 78, 70
1, 27837, Note_on_c, 0, 78, 0
1, 27840, Note_on_c, 0, 80, 70
1, 27846, Note_on_c, 0, 80, 0
1, 27846, Note_on_c, 0, 78, 70
1, 27852, Note_on_c, 0, 78, 0
1, 27852, Note_on_c, 0, 77, 70
1, 27858, Note_on_c, 0, 77, 0
1, 27858, Note_on_c, 0, 78, 86
1, 27888, Note_on_c, 0, 78, 0
1, 27888, Note_on_c, 0, 81, 85
1, 27888, Note_on_c, 0, 73, 85
1, 27888, Note_on_c, 0, 69, 85
1, 27888, Note_on_c, 1, 64, 85
1, 27888, Note_on_c, 1, 61, 85
1, 27888, Note_on_c, 1, 57, 85
1, 27933, Note_on_c, 0, 81, 0
1, 27933, Note_on_c, 0, 73, 0
1, 27933, Note_on_c, 0, 69, 0
1, 27933, Note_on_c, 1, 64, 0
1, 27933, Note_on_c, 1, 61, 0
1, 27933, Note_on_c, 1, 57, 0
1, 27936, Note_on_c, 0, 81, 85
1, 27936, Note_on_c, 0, 73, 85
1, 27936, Note_on_c, 0, 69, 85
1, 27936, Note_on_c, 1, 64, 85
1, 27936, Note_on_c, 1, 61, 85
1, 27936, Note_on_c, 1, 57, 85
1, 27981, Note_on_c, 0, 81, 0
1, 27981, Note_on_c, 0, 73, 0
1, 27981, Note_on_c, 0, 69, 0
1, 27981, Note_on_c, 1, 64, 0
1, 27981, Note_on_c, 1, 61, 0
1, 27981, Note_on_c, 1, 57, 0
1, 27984, Note_on_c, 0, 81, 85
1, 27984, Note_on_c, 0, 73, 85
1, 27984, Note_on_c, 0, 69, 85
1, 27984, Note_on_c, 1, 64, 85
1, 27984, Note_on_c, 1, 61, 85
1, 27984, Note_on_c, 1, 57, 85
1, 28029, Note_on_c, 0, 81, 0
1, 28029, Note_on_c, 0, 73, 0
1, 28029, Note_on_c, 0, 69, 0
1, 28029, Note_on_c, 1, 64, 0
1, 28029, Note_on_c, 1, 61, 0
1, 28029, Note_on_c, 1, 57, 0
1, 28032, Note_on_c, 0, 81, 85
1, 28032, Note_on_c, 0, 73, 64
1, 28032, Note_on_c, 0, 69, 64
1, 28032, Note_on_c, 1, 64, 85
1, 28032, Note_on_c, 1, 61, 85
1, 28032, Note_on_c, 1, 57, 85
1, 28077, Note_on_c, 0, 81, 0
1, 28077, Note_on_c, 0, 73, 0
1, 28077, Note_on_c, 0, 69, 0
1, 28077, Note_on_c, 1, 64, 0
1, 28077, Note_on_c, 1, 61, 0
1, 28077, Note_on_c, 1, 57, 0
1, 28080, Note_on_c, 0, 79, 85
1, 28080, Note_on_c, 0, 76, 64
1, 28080, Note_on_c, 1, 64, 85
1, 28080, Note_on_c, 1, 61, 85
1, 28103, Note_on_c, 0, 76, 0
1, 28104, Note_on_c, 0, 69, 64
1, 28125, Note_on_c, 0, 79, 0
1, 28125, Note_on_c, 1, 64, 0
1, 28125, Note_on_c, 1, 61, 0
1, 28127, Note_on_c, 0, 69, 0
1, 28128, Note_on_c, 0, 79, 85
1, 28128, Note_on_c, 0, 76, 64
1, 28128, Note_on_c, 1, 64, 85
1, 28128, Note_on_c, 1, 61, 85
1, 28151, Note_on_c, 0, 76, 0
1, 28152, Note_on_c, 0, 69, 64
1, 28173, Note_on_c, 0, 79, 0
1, 28173, Note_on_c, 1, 64, 0
1, 28173, Note_on_c, 1, 61, 0
1, 28175, Note_on_c, 0, 69, 0
1, 28176, Note_on_c, 0, 79, 85
1, 28176, Note_on_c, 0, 76, 64
1, 28176, Note_on_c, 1, 64, 85
1, 28176, Note_on_c, 1, 61, 85
1, 28199, Note_on_c, 0, 76, 0
1, 28200, Note_on_c, 0, 69, 64
1, 28221, Note_on_c, 0, 79, 0
1, 28221, Note_on_c, 1, 64, 0
1, 28221, Note_on_c, 1, 61, 0
1, 28223, Note_on_c, 0, 69, 0
1, 28224, Note_on_c, 0, 79, 85
1, 28224, Note_on_c, 0, 76, 64
1, 28224, Note_on_c, 0, 69, 64
1, 28224, Note_on_c, 1, 64, 85
1, 28224, Note_on_c, 1, 61, 85
1, 28313, Note_on_c, 0, 79, 0
1, 28313, Note_on_c, 0, 76, 0
1, 28313, Note_on_c, 0, 69, 0
1, 28313, Note_on_c, 1, 64, 0
1, 28313, Note_on_c, 1, 61, 0
1, 28416, Note_on_c, 1, 64, 63
1, 28416, Note_on_c, 1, 61, 63
1, 28464, Note_on_c, 0, 79, 63
1, 28464, Note_on_c, 0, 76, 64
1, 28487, Note_on_c, 0, 76, 0
1, 28488, Note_on_c, 0, 69, 64
1, 28505, Note_on_c, 1, 64, 0
1, 28505, Note_on_c, 1, 61, 0
1, 28509, Note_on_c, 0, 79, 0
1, 28511, Note_on_c, 0, 69, 0
1, 28512, Note_on_c, 0, 79, 63
1, 28512, Note_on_c, 0, 76, 64
1, 28535, Note_on_c, 0, 76, 0
1, 28536, Note_on_c, 0, 69, 64
1, 28557, Note_on_c, 0, 79, 0
1, 28559, Note_on_c, 0, 69, 0
1, 28560, Note_on_c, 0, 79, 63
1, 28560, Note_on_c, 0, 76, 64
1, 28583, Note_on_c, 0, 76, 0
1, 28584, Note_on_c, 0, 69, 64
1, 28605, Note_on_c, 0, 79, 0
1, 28607, Note_on_c, 0, 69, 0
1, 28608, Note_on_c, 0, 79, 63
1, 28608, Note_on_c, 0, 76, 64
1, 28653, Note_on_c, 0, 79, 0
1, 28653, Note_on_c, 0, 76, 0
1, 28656, Note_on_c, 0, 79, 85
1, 28656, Note_on_c, 0, 73, 64
1, 28656, Note_on_c, 1, 64, 85
1, 28656, Note_on_c, 1, 57, 85
1, 28679, Note_on_c, 0, 73, 0
1, 28680, Note_on_c, 0, 69, 64
1, 28701, Note_on_c, 0, 79, 0
1, 28701, Note_on_c, 1, 64, 0
1, 28701, Note_on_c, 1, 57, 0
1, 28703, Note_on_c, 0, 69, 0
1, 28704, Note_on_c, 0, 79, 85
1, 28704, Note_on_c, 0, 73, 64
1, 28704, Note_on_c, 1, 64, 85
1, 28704, Note_on_c, 1, 57, 85
1, 28727, Note_on_c, 0, 73, 0
1, 28728, Note_on_c, 0, 69, 64
1, 28749, Note_on_c, 0, 79, 0
1, 28749, Note_on_c, 1, 64, 0
1, 28749, Note_on_c, 1, 57, 0
1, 28751, Note_on_c, 0, 69, 0
1, 28752, Note_on_c, 0, 79, 85
1, 28752, Note_on_c, 0, 73, 64
1, 28752, Note_on_c, 1, 61, 85
1, 28752, Note_on_c, 1, 57, 85
1, 28775, Note_on_c, 0, 73, 0
1, 28776, Note_on_c, 0, 69, 64
1, 28797, Note_on_c, 0, 79, 0
1, 28797, Note_on_c, 1, 61, 0
1, 28797, Note_on_c, 1, 57, 0
1, 28799, Note_on_c, 0, 69, 0
1, 28800, Note_on_c, 0, 80, 85
1, 28800, Note_on_c, 0, 75, 64
1, 28800, Note_on_c, 0, 72, 64
1, 28800, Note_on_c, 1, 63, 85
1, 28800, Note_on_c, 1, 60, 85
1, 28800, Note_on_c, 1, 56, 85
1, 28845, Note_on_c, 0, 80, 0
1, 28845, Note_on_c, 0, 75, 0
1, 28845, Note_on_c, 0, 72, 0
1, 28845, Note_on_c, 1, 63, 0
1, 28845, Note_on_c, 1, 60, 0
1, 28845, Note_on_c, 1, 56, 0
1, 28848, Note_on_c, 0, 80, 85
1, 28848, Note_on_c, 0, 75, 64
1, 28848, Note_on_c, 1, 63, 85
1, 28848, Note_on_c, 1, 60, 85
1, 28848, Note_on_c, 1, 56, 85
1, 28871, Note_on_c, 0, 75, 0
1, 28872, Note_on_c, 0, 72, 64
1, 28893, Note_on_c, 0, 80, 0
1, 28893, Note_on_c, 1, 63, 0
1, 28893, Note_on_c, 1, 60, 0
1, 28893, Note_on_c, 1, 56, 0
1, 28895, Note_on_c, 0, 72, 0
1, 28896, Note_on_c, 0, 80, 85
1, 28896, Note_on_c, 0, 75, 64
1, 28896, Note_on_c, 1, 63, 85
1, 28896, Note_on_c, 1, 60, 85
1, 28896, Note_on_c, 1, 56, 85
1, 28919, Note_on_c, 0, 75, 0
1, 28920, Note_on_c, 0, 72, 64
1, 28941, Note_on_c, 0, 80, 0
1, 28941, Note_on_c, 1, 63, 0
1, 28941, Note_on_c, 1, 60, 0
1, 28941, Note_on_c, 1, 56, 0
1, 28943, Note_on_c, 0, 72, 0
1, 28944, Note_on_c, 0, 80, 85
1, 28944, Note_on_c, 0, 75, 64
1, 28944, Note_on_c, 1, 63, 85
1, 28944, Note_on_c, 1, 60, 85
1, 28944, Note_on_c, 1, 56, 85
1, 28967, Note_on_c, 0, 75, 0
1, 28968, Note_on_c, 0, 72, 64
1, 28989, Note_on_c, 0, 80, 0
1, 28989, Note_on_c, 1, 63, 0
1, 28989, Note_on_c, 1, 60, 0
1, 28989, Note_on_c, 1, 56, 0
1, 28991, Note_on_c, 0, 72, 0
1, 28992, Note_on_c, 0, 80, 85
1, 28992, Note_on_c, 0, 75, 64
1, 28992, Note_on_c, 1, 63, 85
1, 28992, Note_on_c, 1, 60, 85
1, 28992, Note_on_c, 1, 56, 85
1, 29081, Note_on_c, 0, 80, 0
1, 29081, Note_on_c, 0, 75, 0
1, 29081, Note_on_c, 1, 63, 0
1, 29081, Note_on_c, 1, 60, 0
1, 29081, Note_on_c, 1, 56, 0
1, 29184, Note_on_c, 0, 56, 78
1, 29184, Note_on_c, 1, 44, 78
1, 29229, Note_on_c, 0, 56, 0
1, 29229, Note_on_c, 1, 44, 0
1, 29232, Note_on_c, 0, 56, 78
1, 29232, Note_on_c, 1, 44, 78
1, 29244, Note_on_c, 0, 56, 0
1, 29244, Note_on_c, 0, 55, 78
1, 29244, Note_on_c, 1, 44, 0
1, 29244, Note_on_c, 1, 43, 78
1, 29256, Note_on_c, 0, 55, 0
1, 29256, Note_on_c, 0, 56, 78
1, 29256, Note_on_c, 1, 43, 0
1, 29256, Note_on_c, 1, 44, 78
1, 29268, Note_on_c, 0, 56, 0
1, 29268, Note_on_c, 0, 58, 78
1, 29268, Note_on_c, 1, 44, 0
1, 29268, Note_on_c, 1, 46, 78
1, 29280, Note_on_c, 0, 58, 0
1, 29280, Note_on_c, 0, 59, 78
1, 29280, Note_on_c, 1, 46, 0
1, 29280, Note_on_c, 1, 47, 78
1, 29325, Note_on_c, 0, 59, 0
1, 29325, Note_on_c, 1, 47, 0
1, 29328, Note_on_c, 0, 58, 78
1, 29328, Note_on_c, 1, 46, 78
1, 29373, Note_on_c, 0, 58, 0
1, 29373, Note_on_c, 1, 46, 0
1, 29376, Note_on_c, 0, 56, 78
1, 29376, Note_on_c, 1, 44, 78
1, 29396, Note_on_c, 0, 56, 0
1, 29396, Note_on_c, 1, 44, 0
1, 29424, Note_on_c, 0, 51, 78
1, 29424, Note_on_c, 1, 39, 78
1, 29444, Note_on_c, 0, 51, 0
1, 29444, Note_on_c, 1, 39, 0
1, 29472, Note_on_c, 0, 56, 78
1, 29472, Note_on_c, 1, 44, 78
1, 29492, Note_on_c, 0, 56, 0
1, 29492, Note_on_c, 1, 44, 0
1, 29520, Note_on_c, 0, 59, 78
1, 29520, Note_on_c, 1, 47, 78
1, 29540, Note_on_c, 0, 59, 0
1, 29540, Note_on_c, 1, 47, 0
1, 29568, Note_on_c, 0, 56, 78
1, 29568, Note_on_c, 1, 44, 78
1, 29613, Note_on_c, 0, 56, 0
1, 29616, Note_on_c, 0, 63, 70
1, 29657, Note_on_c, 1, 44, 0
1, 29661, Note_on_c, 0, 63, 0
1, 29664, Note_on_c, 0, 63, 70
1, 29709, Note_on_c, 0, 63, 0
1, 29712, Note_on_c, 0, 63, 70
1, 29757, Note_on_c, 0, 63, 0
1, 29760, Note_on_c, 0, 64, 70
1, 29766, Note_on_c, 0, 64, 0
1, 29766, Note_on_c, 0, 63, 70
1, 29772, Note_on_c, 0, 63, 0
1, 29772, Note_on_c, 0, 62, 70
1, 29778, Note_on_c, 0, 62, 0
1, 29778, Note_on_c, 0, 63, 70
1, 29808, Note_on_c, 1, 59, 63
1, 29808, Note_on_c, 1, 56, 63
1, 29849, Note_on_c, 0, 63, 0
1, 29853, Note_on_c, 1, 59, 0
1, 29853, Note_on_c, 1, 56, 0
1, 29856, Note_on_c, 1, 58, 63
1, 29856, Note_on_c, 1, 55, 63
1, 29901, Note_on_c, 1, 58, 0
1, 29901, Note_on_c, 1, 55, 0
1, 29904, Note_on_c, 1, 59, 63
1, 29904, Note_on_c, 1, 56, 63
1, 29949, Note_on_c, 1, 59, 0
1, 29949, Note_on_c, 1, 56, 0
1, 29952, Note_on_c, 1, 61, 63
1, 29952, Note_on_c, 1, 58, 63
1, 29991, Note_on_c, 1, 61, 0
1, 29991, Note_on_c, 1, 58, 0
1, 30000, Note_on_c, 0, 63, 70
1, 30045, Note_on_c, 0, 63, 0
1, 30048, Note_on_c, 0, 63, 70
1, 30093, Note_on_c, 0, 63, 0
1, 30096, Note_on_c, 0, 63, 70
1, 30141, Note_on_c, 0, 63, 0
1, 30144, Note_on_c, 0, 64, 70
1, 30150, Note_on_c, 0, 64, 0
1, 30150, Note_on_c, 0, 63, 70
1, 30156, Note_on_c, 0, 63, 0
1, 30156, Note_on_c, 0, 62, 70
1, 30162, Note_on_c, 0, 62, 0
1, 30162, Note_on_c, 0, 63, 70
1, 30192, Note_on_c, 1, 61, 63
1, 30192, Note_on_c, 1, 58, 63
1, 30233, Note_on_c, 0, 63, 0
1, 30237, Note_on_c, 1, 61, 0
1, 30237, Note_on_c, 1, 58, 0
1, 30240, Note_on_c, 1, 59, 63
1, 30240, Note_on_c, 1, 56, 63
1, 30285, Note_on_c, 1, 59, 0
1, 30285, Note_on_c, 1, 56, 0
1, 30288, Note_on_c, 1, 61, 63
1, 30288, Note_on_c, 1, 58, 63
1, 30333, Note_on_c, 1, 61, 0
1, 30333, Note_on_c, 1, 58, 0
1, 30336, Note_on_c, 1, 63, 63
1, 30336, Note_on_c, 1, 59, 63
1, 30375, Note_on_c, 1, 63, 0
1, 30375, Note_on_c, 1, 59, 0
1, 30384, Note_on_c, 0, 68, 70
1, 30429, Note_on_c, 0, 68, 0
1, 30432, Note_on_c, 0, 68, 70
1, 30477, Note_on_c, 0, 68, 0
1, 30480, Note_on_c, 0, 68, 70
1, 30525, Note_on_c, 0, 68, 0
1, 30528, Note_on_c, 0, 69, 70
1, 30534, Note_on_c, 0, 69, 0
1, 30534, Note_on_c, 0, 68, 70
1, 30540, Note_on_c, 0, 68, 0
1, 30540, Note_on_c, 0, 67, 70
1, 30546, Note_on_c, 0, 67, 0
1, 30546, Note_on_c, 0, 68, 86
1, 30576, Note_on_c, 0, 68, 0
1, 30576, Note_on_c, 0, 71, 70
1, 30576, Note_on_c, 1, 51, 63
1, 30576, Note_on_c, 1, 47, 63
1, 30621, Note_on_c, 0, 71, 0
1, 30621, Note_on_c, 1, 51, 0
1, 30621, Note_on_c, 1, 47, 0
1, 30624, Note_on_c, 0, 71, 70
1, 30624, Note_on_c, 1, 51, 63
1, 30624, Note_on_c, 1, 47, 63
1, 30669, Note_on_c, 0, 71, 0
1, 30669, Note_on_c, 1, 51, 0
1, 30669, Note_on_c, 1, 47, 0
1, 30672, Note_on_c, 0, 71, 70
1, 30672, Note_on_c, 1, 51, 63
1, 30672, Note_on_c, 1, 47, 63
1, 30717, Note_on_c, 0, 71, 0
1, 30717, Note_on_c, 1, 51, 0
1, 30717, Note_on_c, 1, 47, 0
1, 30720, Note_on_c, 0, 71, 86
1, 30768, Note_on_c, 1, 52, 63
1, 30768, Note_on_c, 1, 49, 63
1, 30813, Note_on_c, 1, 52, 0
1, 30813, Note_on_c, 1, 49, 0
1, 30816, Note_on_c, 0, 71, 0
1, 30816, Note_on_c, 0, 70, 70
1, 30816, Note_on_c, 1, 52, 63
1, 30816, Note_on_c, 1, 49, 63
1, 30836, Note_on_c, 0, 70, 0
1, 30861, Note_on_c, 1, 52, 0
1, 30861, Note_on_c, 1, 49, 0
1, 30864, Note_on_c, 0, 76, 71
1, 30864, Note_on_c, 1, 52, 63
1, 30864, Note_on_c, 1, 49, 63
1, 30884, Note_on_c, 0, 76, 0
1, 30909, Note_on_c, 1, 52, 0
1, 30909, Note_on_c, 1, 49, 0
1, 30912, Note_on_c, 0, 68, 87
1, 30960, Note_on_c, 1, 58, 64
1, 30960, Note_on_c, 1, 51, 64
1, 31005, Note_on_c, 1, 58, 0
1, 31005, Note_on_c, 1, 51, 0
1, 31008, Note_on_c, 0, 68, 0
1, 31008, Note_on_c, 0, 67, 72
1, 31008, Note_on_c, 1, 58, 64
1, 31008, Note_on_c, 1, 51, 64
1, 31028, Note_on_c, 0, 67, 0
1, 31053, Note_on_c, 1, 58, 0
1, 31053, Note_on_c, 1, 51, 0
1, 31056, Note_on_c, 0, 73, 72
1, 31056, Note_on_c, 1, 58, 64
1, 31056, Note_on_c, 1, 51, 64
1, 31076, Note_on_c, 0, 73, 0
1, 31101, Note_on_c, 1, 58, 0
1, 31101, Note_on_c, 1, 51, 0
1, 31104, Note_on_c, 0, 73, 88
1, 31152, Note_on_c, 1, 56, 65
1, 31152, Note_on_c, 1, 44, 65
1, 31197, Note_on_c, 1, 56, 0
1, 31197, Note_on_c, 1, 44, 0
1, 31200, Note_on_c, 0, 73, 0
1, 31200, Note_on_c, 0, 72, 73
1, 31200, Note_on_c, 1, 56, 65
1, 31200, Note_on_c, 1, 44, 65
1, 31220, Note_on_c, 0, 72, 0
1, 31245, Note_on_c, 1, 56, 0
1, 31245, Note_on_c, 1, 44, 0
1, 31248, Note_on_c, 0, 78, 73
1, 31248, Note_on_c, 1, 56, 66
1, 31248, Note_on_c, 1, 44, 66
1, 31268, Note_on_c, 0, 78, 0
1, 31293, Note_on_c, 1, 56, 0
1, 31293, Note_on_c, 1, 44, 0
1, 31296, Note_on_c, 0, 66, 90
1, 31344, Note_on_c, 1, 56, 66
1, 31344, Note_on_c, 1, 49, 66
1, 31389, Note_on_c, 1, 56, 0
1, 31389, Note_on_c, 1, 49, 0
1, 31392, Note_on_c, 0, 66, 0
1, 31392, Note_on_c, 0, 65, 74
1, 31392, Note_on_c, 1, 56, 66
1, 31392, Note_on_c, 1, 49, 66
1, 31412, Note_on_c, 0, 65, 0
1, 31437, Note_on_c, 1, 56, 0
1, 31437, Note_on_c, 1, 49, 0
1, 31440, Note_on_c, 0, 71, 75
1, 31440, Note_on_c, 1, 56, 67
1, 31440, Note_on_c, 1, 49, 67
1, 31460, Note_on_c, 0, 71, 0
1, 31485, Note_on_c, 1, 56, 0
1, 31485, Note_on_c, 1, 49, 0
1, 31488, Note_on_c, 0, 71, 91
1, 31536, Note_on_c, 1, 54, 67
1, 31536, Note_on_c, 1, 42, 67
1, 31581, Note_on_c, 1, 54, 0
1, 31581, Note_on_c, 1, 42, 0
1, 31584, Note_on_c, 0, 71, 0
1, 31584, Note_on_c, 0, 70, 76
1, 31584, Note_on_c, 1, 54, 68
1, 31584, Note_on_c, 1, 42, 68
1, 31604, Note_on_c, 0, 70, 0
1, 31629, Note_on_c, 1, 54, 0
1, 31629, Note_on_c, 1, 42, 0
1, 31632, Note_on_c, 0, 76, 76
1, 31632, Note_on_c, 1, 54, 68
1, 31632, Note_on_c, 1, 42, 68
1, 31652, Note_on_c, 0, 76, 0
1, 31677, Note_on_c, 1, 54, 0
1, 31677, Note_on_c, 1, 42, 0
1, 31680, Note_on_c, 0, 64, 92
1, 31728, Note_on_c, 1, 54, 69
1, 31728, Note_on_c, 1, 47, 69
1, 31773, Note_on_c, 1, 54, 0
1, 31773, Note_on_c, 1, 47, 0
1, 31776, Note_on_c, 0, 64, 0
1, 31776, Note_on_c, 0, 63, 77
1, 31776, Note_on_c, 1, 54, 69
1, 31776, Note_on_c, 1, 47, 69
1, 31796, Note_on_c, 0, 63, 0
1, 31821, Note_on_c, 1, 54, 0
1, 31821, Note_on_c, 1, 47, 0
1, 31824, Note_on_c, 0, 69, 77
1, 31824, Note_on_c, 1, 54, 69
1, 31824, Note_on_c, 1, 47, 69
1, 31844, Note_on_c, 0, 69, 0
1, 31869, Note_on_c, 1, 54, 0
1, 31869, Note_on_c, 1, 47, 0
1, 31872, Note_on_c, 0, 64, 78
1, 31872, Note_on_c, 1, 52, 70
1, 31872, Note_on_c, 1, 40, 70
1, 31895, Note_on_c, 0, 64, 0
1, 31896, Note_on_c, 0, 76, 78
1, 31919, Note_on_c, 0, 76, 0
1, 31920, Note_on_c, 0, 68, 78
1, 31920, Note_on_c, 1, 52, 0
1, 31920, Note_on_c, 1, 40, 0
1, 31920, Note_on_c, 1, 56, 70
1, 31943, Note_on_c, 0, 68, 0
1, 31944, Note_on_c, 0, 76, 78
1, 31965, Note_on_c, 1, 56, 0
1, 31967, Note_on_c, 0, 76, 0
1, 31968, Note_on_c, 0, 71, 78
1, 31968, Note_on_c, 1, 59, 70
1, 31991, Note_on_c, 0, 71, 0
1, 31992, Note_on_c, 0, 76, 78
1, 32013, Note_on_c, 1, 59, 0
1, 32015, Note_on_c, 0, 76, 0
1, 32016, Note_on_c, 0, 68, 78
1, 32016, Note_on_c, 1, 56, 70
1, 32039, Note_on_c, 0, 68, 0
1, 32040, Note_on_c, 0, 76, 78
1, 32061, Note_on_c, 1, 56, 0
1, 32063, Note_on_c, 0, 76, 0
1, 32064, Note_on_c, 0, 64, 78
1, 32064, Note_on_c, 1, 52, 70
1, 32087, Note_on_c, 0, 64, 0
1, 32088, Note_on_c, 0, 76, 78
1, 32111, Note_on_c, 0, 76, 0
1, 32112, Note_on_c, 0, 68, 78
1, 32135, Note_on_c, 0, 68, 0
1, 32136, Note_on_c, 0, 76, 78
1, 32153, Note_on_c, 1, 52, 0
1, 32159, Note_on_c, 0, 76, 0
1, 32160, Note_on_c, 0, 71, 78
1, 32183, Note_on_c, 0, 71, 0
1, 32184, Note_on_c, 0, 76, 78
1, 32207, Note_on_c, 0, 76, 0
1, 32208, Note_on_c, 0, 68, 78
1, 32231, Note_on_c, 0, 68, 0
1, 32232, Note_on_c, 0, 76, 78
1, 32255, Note_on_c, 0, 76, 0
1, 32256, Note_on_c, 0, 65, 78
1, 32256, Note_on_c, 1, 53, 71
1, 32256, Note_on_c, 1, 41, 71
1, 32279, Note_on_c, 0, 65, 0
1, 32280, Note_on_c, 0, 74, 78
1, 32303, Note_on_c, 0, 74, 0
1, 32304, Note_on_c, 0, 68, 79
1, 32304, Note_on_c, 1, 53, 0
1, 32304, Note_on_c, 1, 41, 0
1, 32304, Note_on_c, 1, 56, 72
1, 32327, Note_on_c, 0, 68, 0
1, 32328, Note_on_c, 0, 74, 79
1, 32349, Note_on_c, 1, 56, 0
1, 32351, Note_on_c, 0, 74, 0
1, 32352, Note_on_c, 0, 71, 79
1, 32352, Note_on_c, 1, 59, 72
1, 32375, Note_on_c, 0, 71, 0
1, 32376, Note_on_c, 0, 74, 79
1, 32397, Note_on_c, 1, 59, 0
1, 32399, Note_on_c, 0, 74, 0
1, 32400, Note_on_c, 0, 68, 79
1, 32400, Note_on_c, 1, 56, 72
1, 32423, Note_on_c, 0, 68, 0
1, 32424, Note_on_c, 0, 74, 79
1, 32445, Note_on_c, 1, 56, 0
1, 32447, Note_on_c, 0, 74, 0
1, 32448, Note_on_c, 0, 65, 79
1, 32448, Note_on_c, 1, 53, 73
1, 32471, Note_on_c, 0, 65, 0
1, 32472, Note_on_c, 0, 74, 79
1, 32495, Note_on_c, 0, 74, 0
1, 32496, Note_on_c, 0, 68, 79
1, 32519, Note_on_c, 0, 68, 0
1, 32520, Note_on_c, 0, 74, 79
1, 32537, Note_on_c, 1, 53, 0
1, 32543, Note_on_c, 0, 74, 0
1, 32544, Note_on_c, 0, 71, 79
1, 32567, Note_on_c, 0, 71, 0
1, 32568, Note_on_c, 0, 74, 79
1, 32591, Note_on_c, 0, 74, 0
1, 32592, Note_on_c, 0, 68, 79
1, 32615, Note_on_c, 0, 68, 0
1, 32616, Note_on_c, 0, 74, 79
1, 32639, Note_on_c, 0, 74, 0
1, 32640, Note_on_c, 0, 66, 79
1, 32640, Note_on_c, 1, 54, 74
1, 32640, Note_on_c, 1, 42, 74
1, 32663, Note_on_c, 0, 66, 0
1, 32664, Note_on_c, 0, 78, 79
1, 32687, Note_on_c, 0, 78, 0
1, 32688, Note_on_c, 0, 69, 80
1, 32688, Note_on_c, 1, 54, 0
1, 32688, Note_on_c, 1, 42, 0
1, 32688, Note_on_c, 1, 57, 74
1, 32711, Note_on_c, 0, 69, 0
1, 32712, Note_on_c, 0, 78, 80
1, 32733, Note_on_c, 1, 57, 0
1, 32735, Note_on_c, 0, 78, 0
1, 32736, Note_on_c, 0, 73, 80
1, 32736, Note_on_c, 1, 61, 74
1, 32759, Note_on_c, 0, 73, 0
1, 32760, Note_on_c, 0, 78, 80
1, 32781, Note_on_c, 1, 61, 0
1, 32783, Note_on_c, 0, 78, 0
1, 32784, Note_on_c, 0, 69, 80
1, 32784, Note_on_c, 1, 57, 74
1, 32807, Note_on_c, 0, 69, 0
1, 32808, Note_on_c, 0, 78, 80
1, 32829, Note_on_c, 1, 57, 0
1, 32831, Note_on_c, 0, 78, 0
1, 32832, Note_on_c, 0, 66, 80
1, 32832, Note_on_c, 1, 54, 75
1, 32855, Note_on_c, 0, 66, 0
1, 32856, Note_on_c, 0, 78, 80
1, 32879, Note_on_c, 0, 78, 0
1, 32880, Note_on_c, 0, 69, 80
1, 32903, Note_on_c, 0, 69, 0
1, 32904, Note_on_c, 0, 78, 80
1, 32921, Note_on_c, 1, 54, 0
1, 32927, Note_on_c, 0, 78, 0
1, 32928, Note_on_c, 0, 73, 80
1, 32951, Note_on_c, 0, 73, 0
1, 32952, Note_on_c, 0, 78, 80
1, 32975, Note_on_c, 0, 78, 0
1, 32976, Note_on_c, 0, 69, 80
1, 32999, Note_on_c, 0, 69, 0
1, 33000, Note_on_c, 0, 78, 80
1, 33023, Note_on_c, 0, 78, 0
1, 33024, Note_on_c, 0, 67, 80
1, 33024, Note_on_c, 1, 55, 76
1, 33024, Note_on_c, 1, 43, 76
1, 33047, Note_on_c, 0, 67, 0
1, 33048, Note_on_c, 0, 76, 80
1, 33071, Note_on_c, 0, 76, 0
1, 33072, Note_on_c, 0, 70, 81
1, 33072, Note_on_c, 1, 55, 0
1, 33072, Note_on_c, 1, 43, 0
1, 33072, Note_on_c, 1, 58, 76
1, 33095, Note_on_c, 0, 70, 0
1, 33096, Note_on_c, 0, 76, 81
1, 33117, Note_on_c, 1, 58, 0
1, 33119, Note_on_c, 0, 76, 0
1, 33120, Note_on_c, 0, 73, 81
1, 33120, Note_on_c, 1, 61, 76
1, 33143, Note_on_c, 0, 73, 0
1, 33144, Note_on_c, 0, 76, 81
1, 33165, Note_on_c, 1, 61, 0
1, 33167, Note_on_c, 0, 76, 0
1, 33168, Note_on_c, 0, 70, 81
1, 33168, Note_on_c, 1, 58, 77
1, 33191, Note_on_c, 0, 70, 0
1, 33192, Note_on_c, 0, 76, 81
1, 33213, Note_on_c, 1, 58, 0
1, 33215, Note_on_c, 0, 76, 0
1, 33216, Note_on_c, 0, 67, 81
1, 33216, Note_on_c, 1, 55, 77
1, 33239, Note_on_c, 0, 67, 0
1, 33240, Note_on_c, 0, 76, 81
1, 33263, Note_on_c, 0, 76, 0
1, 33264, Note_on_c, 0, 70, 81
1, 33287, Note_on_c, 0, 70, 0
1, 33288, Note_on_c, 0, 76, 81
1, 33305, Note_on_c, 1, 55, 0
1, 33311, Note_on_c, 0, 76, 0
1, 33312, Note_on_c, 0, 73, 81
1, 33335, Note_on_c, 0, 73, 0
1, 33336, Note_on_c, 0, 76, 81
1, 33359, Note_on_c, 0, 76, 0
1, 33360, Note_on_c, 0, 70, 81
1, 33383, Note_on_c, 0, 70, 0
1, 33384, Note_on_c, 0, 76, 81
1, 33407, Note_on_c, 0, 76, 0
1, 33408, Note_on_c, 0, 68, 81
1, 33408, Note_on_c, 1, 56, 74
1, 33431, Note_on_c, 0, 68, 0
1, 33432, Note_on_c, 0, 80, 82
1, 33455, Note_on_c, 0, 80, 0
1, 33456, Note_on_c, 0, 71, 82
1, 33456, Note_on_c, 1, 59, 78
1, 33479, Note_on_c, 0, 71, 0
1, 33480, Note_on_c, 0, 80, 82
1, 33501, Note_on_c, 1, 59, 0
1, 33503, Note_on_c, 0, 80, 0
1, 33504, Note_on_c, 0, 75, 82
1, 33504, Note_on_c, 1, 63, 79
1, 33527, Note_on_c, 0, 75, 0
1, 33528, Note_on_c, 0, 80, 82
1, 33549, Note_on_c, 1, 63, 0
1, 33551, Note_on_c, 0, 80, 0
1, 33552, Note_on_c, 0, 71, 82
1, 33552, Note_on_c, 1, 59, 79
1, 33575, Note_on_c, 0, 71, 0
1, 33576, Note_on_c, 0, 80, 82
1, 33585, Note_on_c, 1, 56, 0
1, 33597, Note_on_c, 1, 59, 0
1, 33599, Note_on_c, 0, 80, 0
1, 33600, Note_on_c, 0, 68, 82
1, 33600, Note_on_c, 1, 56, 75
1, 33623, Note_on_c, 0, 68, 0
1, 33624, Note_on_c, 0, 80, 82
1, 33647, Note_on_c, 0, 80, 0
1, 33648, Note_on_c, 0, 71, 82
1, 33648, Note_on_c, 1, 59, 79
1, 33671, Note_on_c, 0, 71, 0
1, 33672, Note_on_c, 0, 80, 82
1, 33693, Note_on_c, 1, 59, 0
1, 33695, Note_on_c, 0, 80, 0
1, 33696, Note_on_c, 0, 75, 82
1, 33696, Note_on_c, 1, 63, 80
1, 33719, Note_on_c, 0, 75, 0
1, 33720, Note_on_c, 0, 80, 82
1, 33741, Note_on_c, 1, 63, 0
1, 33743, Note_on_c, 0, 80, 0
1, 33744, Note_on_c, 0, 71, 82
1, 33744, Note_on_c, 1, 59, 80
1, 33767, Note_on_c, 0, 71, 0
1, 33768, Note_on_c, 0, 80, 82
1, 33777, Note_on_c, 1, 56, 0
1, 33789, Note_on_c, 1, 59, 0
1, 33791, Note_on_c, 0, 80, 0
1, 33792, Note_on_c, 0, 69, 82
1, 33792, Note_on_c, 1, 54, 77
1, 33815, Note_on_c, 0, 69, 0
1, 33816, Note_on_c, 0, 81, 83
1, 33839, Note_on_c, 0, 81, 0
1, 33840, Note_on_c, 0, 72, 83
1, 33840, Note_on_c, 1, 57, 80
1, 33863, Note_on_c, 0, 72, 0
1, 33864, Note_on_c, 0, 81, 83
1, 33885, Note_on_c, 1, 57, 0
1, 33887, Note_on_c, 0, 81, 0
1, 33888, Note_on_c, 0, 75, 83
1, 33888, Note_on_c, 1, 60, 81
1, 33911, Note_on_c, 0, 75, 0
1, 33912, Note_on_c, 0, 81, 83
1, 33933, Note_on_c, 1, 60, 0
1, 33935, Note_on_c, 0, 81, 0
1, 33936, Note_on_c, 0, 72, 83
1, 33936, Note_on_c, 1, 57, 81
1, 33959, Note_on_c, 0, 72, 0
1, 33960, Note_on_c, 0, 81, 83
1, 33969, Note_on_c, 1, 54, 0
1, 33981, Note_on_c, 1, 57, 0
1, 33983, Note_on_c, 0, 81, 0
1, 33984, Note_on_c, 0, 69, 83
1, 33984, Note_on_c, 1, 54, 79
1, 34007, Note_on_c, 0, 69, 0
1, 34008, Note_on_c, 0, 81, 83
1, 34031, Note_on_c, 0, 81, 0
1, 34032, Note_on_c, 0, 72, 83
1, 34032, Note_on_c, 1, 57, 82
1, 34055, Note_on_c, 0, 72, 0
1, 34056, Note_on_c, 0, 81, 83
1, 34077, Note_on_c, 1, 57, 0
1, 34079, Note_on_c, 0, 81, 0
1, 34080, Note_on_c, 0, 75, 83
1, 34080, Note_on_c, 1, 60, 82
1, 34103, Note_on_c, 0, 75, 0
1, 34104, Note_on_c, 0, 81, 83
1, 34125, Note_on_c, 1, 60, 0
1, 34127, Note_on_c, 0, 81, 0
1, 34128, Note_on_c, 0, 72, 83
1, 34128, Note_on_c, 1, 57, 82
1, 34151, Note_on_c, 0, 72, 0
1, 34152, Note_on_c, 0, 81, 83
1, 34161, Note_on_c, 1, 54, 0
1, 34173, Note_on_c, 1, 57, 0
1, 34175, Note_on_c, 0, 81, 0
1, 34176, Note_on_c, 0, 69, 83
1, 34176, Note_on_c, 1, 53, 81
1, 34199, Note_on_c, 0, 69, 0
1, 34200, Note_on_c, 0, 81, 84
1, 34223, Note_on_c, 0, 81, 0
1, 34224, Note_on_c, 0, 72, 84
1, 34224, Note_on_c, 1, 57, 83
1, 34247, Note_on_c, 0, 72, 0
1, 34248, Note_on_c, 0, 81, 84
1, 34269, Note_on_c, 1, 57, 0
1, 34271, Note_on_c, 0, 81, 0
1, 34272, Note_on_c, 0, 75, 84
1, 34272, Note_on_c, 1, 60, 83
1, 34295, Note_on_c, 0, 75, 0
1, 34296, Note_on_c, 0, 81, 84
1, 34317, Note_on_c, 1, 60, 0
1, 34319, Note_on_c, 0, 81, 0
1, 34320, Note_on_c, 0, 72, 84
1, 34320, Note_on_c, 1, 57, 83
1, 34343, Note_on_c, 0, 72, 0
1, 34344, Note_on_c, 0, 81, 84
1, 34353, Note_on_c, 1, 53, 0
1, 34365, Note_on_c, 1, 57, 0
1, 34367, Note_on_c, 0, 81, 0
1, 34368, Note_on_c, 0, 69, 84
1, 34368, Note_on_c, 1, 53, 83
1, 34391, Note_on_c, 0, 69, 0
1, 34392, Note_on_c, 0, 81, 84
1, 34415, Note_on_c, 0, 81, 0
1, 34416, Note_on_c, 0, 72, 84
1, 34416, Note_on_c, 1, 57, 84
1, 34439, Note_on_c, 0, 72, 0
1, 34440, Note_on_c, 0, 81, 84
1, 34461, Note_on_c, 1, 57, 0
1, 34463, Note_on_c, 0, 81, 0
1, 34464, Note_on_c, 0, 75, 84
1, 34464, Note_on_c, 1, 60, 84
1, 34487, Note_on_c, 0, 75, 0
1, 34488, Note_on_c, 0, 81, 84
1, 34509, Note_on_c, 1, 60, 0
1, 34511, Note_on_c, 0, 81, 0
1, 34512, Note_on_c, 0, 72, 84
1, 34512, Note_on_c, 1, 57, 84
1, 34535, Note_on_c, 0, 72, 0
1, 34536, Note_on_c, 0, 81, 84
1, 34545, Note_on_c, 1, 53, 0
1, 34557, Note_on_c, 1, 57, 0
1, 34559, Note_on_c, 0, 81, 0
1, 34560, Note_on_c, 0, 69, 85
1, 34560, Note_on_c, 1, 52, 85
1, 34583, Note_on_c, 0, 69, 0
1, 34584, Note_on_c, 0, 81, 85
1, 34607, Note_on_c, 0, 81, 0
1, 34608, Note_on_c, 0, 73, 85
1, 34608, Note_on_c, 1, 57, 85
1, 34631, Note_on_c, 0, 73, 0
1, 34632, Note_on_c, 0, 81, 85
1, 34653, Note_on_c, 1, 57, 0
1, 34655, Note_on_c, 0, 81, 0
1, 34656, Note_on_c, 0, 76, 85
1, 34656, Note_on_c, 1, 61, 85
1, 34679, Note_on_c, 0, 76, 0
1, 34680, Note_on_c, 0, 81, 85
1, 34701, Note_on_c, 1, 61, 0
1, 34703, Note_on_c, 0, 81, 0
1, 34704, Note_on_c, 0, 73, 85
1, 34704, Note_on_c, 1, 57, 85
1, 34727, Note_on_c, 0, 73, 0
1, 34728, Note_on_c, 0, 81, 85
1, 34737, Note_on_c, 1, 52, 0
1, 34749, Note_on_c, 1, 57, 0
1, 34751, Note_on_c, 0, 81, 0
1, 34752, Note_on_c, 0, 69, 85
1, 34752, Note_on_c, 1, 52, 85
1, 34775, Note_on_c, 0, 69, 0
1, 34776, Note_on_c, 0, 81, 85
1, 34799, Note_on_c, 0, 81, 0
1, 34800, Note_on_c, 0, 73, 85
1, 34800, Note_on_c, 1, 57, 85
1, 34823, Note_on_c, 0, 73, 0
1, 34824, Note_on_c, 0, 81, 85
1, 34845, Note_on_c, 1, 57, 0
1, 34847, Note_on_c, 0, 81, 0
1, 34848, Note_on_c, 0, 76, 85
1, 34848, Note_on_c, 1, 61, 85
1, 34871, Note_on_c, 0, 76, 0
1, 34872, Note_on_c, 0, 81, 85
1, 34893, Note_on_c, 1, 61, 0
1, 34895, Note_on_c, 0, 81, 0
1, 34896, Note_on_c, 0, 73, 85
1, 34896, Note_on_c, 1, 57, 85
1, 34919, Note_on_c, 0, 73, 0
1, 34920, Note_on_c, 0, 81, 85
1, 34929, Note_on_c, 1, 52, 0
1, 34941, Note_on_c, 1, 57, 0
1, 34943, Note_on_c, 0, 81, 0
1, 34944, Note_on_c, 0, 69, 85
1, 34944, Note_on_c, 1, 51, 85
1, 34967, Note_on_c, 0, 69, 0
1, 34968, Note_on_c, 0, 81, 85
1, 34991, Note_on_c, 0, 81, 0
1, 34992, Note_on_c, 0, 72, 85
1, 34992, Note_on_c, 1, 57, 85
1, 35015, Note_on_c, 0, 72, 0
1, 35016, Note_on_c, 0, 81, 85
1, 35037, Note_on_c, 1, 57, 0
1, 35039, Note_on_c, 0, 81, 0
1, 35040, Note_on_c, 0, 75, 85
1, 35040, Note_on_c, 1, 60, 85
1, 35063, Note_on_c, 0, 75, 0
1, 35064, Note_on_c, 0, 81, 85
1, 35085, Note_on_c, 1, 60, 0
1, 35087, Note_on_c, 0, 81, 0
1, 35088, Note_on_c, 0, 72, 85
1, 35088, Note_on_c, 1, 57, 85
1, 35111, Note_on_c, 0, 72, 0
1, 35112, Note_on_c, 0, 81, 85
1, 35121, Note_on_c, 1, 51, 0
1, 35133, Note_on_c, 1, 57, 0
1, 35135, Note_on_c, 0, 81, 0
1, 35136, Note_on_c, 0, 69, 85
1, 35136, Note_on_c, 1, 51, 85
1, 35159, Note_on_c, 0, 69, 0
1, 35160, Note_on_c, 0, 81, 85
1, 35183, Note_on_c, 0, 81, 0
1, 35184, Note_on_c, 0, 72, 85
1, 35184, Note_on_c, 1, 57, 85
1, 35207, Note_on_c, 0, 72, 0
1, 35208, Note_on_c, 0, 81, 85
1, 35229, Note_on_c, 1, 57, 0
1, 35231, Note_on_c, 0, 81, 0
1, 35232, Note_on_c, 0, 75, 85
1, 35232, Note_on_c, 1, 60, 85
1, 35255, Note_on_c, 0, 75, 0
1, 35256, Note_on_c, 0, 81, 85
1, 35277, Note_on_c, 1, 60, 0
1, 35279, Note_on_c, 0, 81, 0
1, 35280, Note_on_c, 0, 72, 85
1, 35280, Note_on_c, 1, 57, 85
1, 35303, Note_on_c, 0, 72, 0
1, 35304, Note_on_c, 0, 81, 85
1, 35313, Note_on_c, 1, 51, 0
1, 35325, Note_on_c, 1, 57, 0
1, 35327, Note_on_c, 0, 81, 0
1, 35328, Note_on_c, 0, 68, 85
1, 35328, Note_on_c, 1, 52, 85
1, 35351, Note_on_c, 0, 68, 0
1, 35352, Note_on_c, 0, 80, 84
1, 35375, Note_on_c, 0, 80, 0
1, 35376, Note_on_c, 0, 73, 84
1, 35376, Note_on_c, 1, 56, 69
1, 35399, Note_on_c, 0, 73, 0
1, 35400, Note_on_c, 0, 80, 84
1, 35421, Note_on_c, 1, 56, 0
1, 35423, Note_on_c, 0, 80, 0
1, 35424, Note_on_c, 0, 76, 84
1, 35424, Note_on_c, 1, 61, 69
1, 35447, Note_on_c, 0, 76, 0
1, 35448, Note_on_c, 0, 80, 83
1, 35469, Note_on_c, 1, 61, 0
1, 35471, Note_on_c, 0, 80, 0
1, 35472, Note_on_c, 0, 73, 83
1, 35472, Note_on_c, 1, 56, 68
1, 35495, Note_on_c, 0, 73, 0
1, 35496, Note_on_c, 0, 80, 83
1, 35505, Note_on_c, 1, 52, 0
1, 35517, Note_on_c, 1, 56, 0
1, 35519, Note_on_c, 0, 80, 0
1, 35520, Note_on_c, 0, 68, 83
1, 35520, Note_on_c, 1, 52, 85
1, 35543, Note_on_c, 0, 68, 0
1, 35544, Note_on_c, 0, 80, 83
1, 35567, Note_on_c, 0, 80, 0
1, 35568, Note_on_c, 0, 73, 82
1, 35568, Note_on_c, 1, 56, 67
1, 35591, Note_on_c, 0, 73, 0
1, 35592, Note_on_c, 0, 80, 82
1, 35613, Note_on_c, 1, 56, 0
1, 35615, Note_on_c, 0, 80, 0
1, 35616, Note_on_c, 0, 76, 82
1, 35616, Note_on_c, 1, 61, 67
1, 35639, Note_on_c, 0, 76, 0
1, 35640, Note_on_c, 0, 80, 82
1, 35661, Note_on_c, 1, 61, 0
1, 35663, Note_on_c, 0, 80, 0
1, 35664, Note_on_c, 0, 73, 81
1, 35664, Note_on_c, 1, 56, 66
1, 35687, Note_on_c, 0, 73, 0
1, 35688, Note_on_c, 0, 80, 81
1, 35697, Note_on_c, 1, 52, 0
1, 35709, Note_on_c, 1, 56, 0
1, 35711, Note_on_c, 0, 80, 0
1, 35712, Note_on_c, 0, 68, 81
1, 35712, Note_on_c, 1, 48, 85
1, 35735, Note_on_c, 0, 68, 0
1, 35736, Note_on_c, 0, 78, 81
1, 35759, Note_on_c, 0, 78, 0
1, 35760, Note_on_c, 0, 75, 81
1, 35760, Note_on_c, 1, 51, 66
1, 35783, Note_on_c, 0, 75, 0
1, 35784, Note_on_c, 0, 78, 80
1, 35805, Note_on_c, 1, 51, 0
1, 35807, Note_on_c, 0, 78, 0
1, 35808, Note_on_c, 0, 68, 80
1, 35808, Note_on_c, 1, 56, 65
1, 35831, Note_on_c, 0, 68, 0
1, 35832, Note_on_c, 0, 78, 80
1, 35853, Note_on_c, 1, 56, 0
1, 35855, Note_on_c, 0, 78, 0
1, 35856, Note_on_c, 0, 75, 80
1, 35856, Note_on_c, 1, 51, 65
1, 35879, Note_on_c, 0, 75, 0
1, 35880, Note_on_c, 0, 78, 79
1, 35889, Note_on_c, 1, 48, 0
1, 35901, Note_on_c, 1, 51, 0
1, 35903, Note_on_c, 0, 78, 0
1, 35904, Note_on_c, 0, 68, 79
1, 35904, Note_on_c, 1, 49, 85
1, 35927, Note_on_c, 0, 68, 0
1, 35928, Note_on_c, 0, 76, 79
1, 35951, Note_on_c, 0, 76, 0
1, 35952, Note_on_c, 0, 73, 79
1, 35952, Note_on_c, 1, 52, 64
1, 35975, Note_on_c, 0, 73, 0
1, 35976, Note_on_c, 0, 76, 79
1, 35997, Note_on_c, 1, 52, 0
1, 35999, Note_on_c, 0, 76, 0
1, 36000, Note_on_c, 0, 68, 78
1, 36000, Note_on_c, 1, 56, 63
1, 36023, Note_on_c, 0, 68, 0
1, 36024, Note_on_c, 0, 76, 78
1, 36045, Note_on_c, 1, 56, 0
1, 36047, Note_on_c, 0, 76, 0
1, 36048, Note_on_c, 0, 73, 78
1, 36048, Note_on_c, 1, 52, 63
1, 36071, Note_on_c, 0, 73, 0
1, 36072, Note_on_c, 0, 76, 78
1, 36081, Note_on_c, 1, 49, 0
1, 36093, Note_on_c, 1, 52, 0
1, 36095, Note_on_c, 0, 76, 0
1, 36096, Note_on_c, 0, 75, 78
1, 36096, Note_on_c, 1, 60, 63
1, 36096, Note_on_c, 1, 56, 63
1, 36119, Note_on_c, 0, 75, 0
1, 36120, Note_on_c, 0, 68, 78
1, 36141, Note_on_c, 1, 60, 0
1, 36141, Note_on_c, 1, 56, 0
1, 36143, Note_on_c, 0, 68, 0
1, 36144, Note_on_c, 0, 75, 77
1, 36144, Note_on_c, 1, 60, 63
1, 36144, Note_on_c, 1, 56, 63
1, 36167, Note_on_c, 0, 75, 0
1, 36168, Note_on_c, 0, 68, 77
1, 36189, Note_on_c, 1, 60, 0
1, 36189, Note_on_c, 1, 56, 0
1, 36191, Note_on_c, 0, 68, 0
1, 36192, Note_on_c, 0, 80, 77
1, 36192, Note_on_c, 1, 64, 62
1, 36192, Note_on_c, 1, 56, 62
1, 36215, Note_on_c, 0, 80, 0
1, 36216, Note_on_c, 0, 68, 76
1, 36237, Note_on_c, 1, 64, 0
1, 36237, Note_on_c, 1, 56, 0
1, 36239, Note_on_c, 0, 68, 0
1, 36240, Note_on_c, 0, 80, 76
1, 36240, Note_on_c, 1, 64, 61
1, 36240, Note_on_c, 1, 56, 61
1, 36263, Note_on_c, 0, 80, 0
1, 36264, Note_on_c, 0, 68, 76
1, 36285, Note_on_c, 1, 64, 0
1, 36285, Note_on_c, 1, 56, 0
1, 36287, Note_on_c, 0, 68, 0
1, 36288, Note_on_c, 0, 78, 76
1, 36288, Note_on_c, 1, 63, 61
1, 36288, Note_on_c, 1, 56, 61
1, 36311, Note_on_c, 0, 78, 0
1, 36312, Note_on_c, 0, 68, 75
1, 36333, Note_on_c, 1, 63, 0
1, 36333, Note_on_c, 1, 56, 0
1, 36335, Note_on_c, 0, 68, 0
1, 36336, Note_on_c, 0, 78, 75
1, 36336, Note_on_c, 1, 63, 60
1, 36336, Note_on_c, 1, 56, 60
1, 36359, Note_on_c, 0, 78, 0
1, 36360, Note_on_c, 0, 68, 75
1, 36381, Note_on_c, 1, 63, 0
1, 36381, Note_on_c, 1, 56, 0
1, 36383, Note_on_c, 0, 68, 0
1, 36384, Note_on_c, 0, 76, 75
1, 36384, Note_on_c, 1, 61, 60
1, 36384, Note_on_c, 1, 56, 60
1, 36407, Note_on_c, 0, 76, 0
1, 36408, Note_on_c, 0, 68, 74
1, 36429, Note_on_c, 1, 61, 0
1, 36429, Note_on_c, 1, 56, 0
1, 36431, Note_on_c, 0, 68, 0
1, 36432, Note_on_c, 0, 76, 74
1, 36432, Note_on_c, 1, 61, 59
1, 36432, Note_on_c, 1, 56, 59
1, 36455, Note_on_c, 0, 76, 0
1, 36456, Note_on_c, 0, 68, 74
1, 36477, Note_on_c, 1, 61, 0
1, 36477, Note_on_c, 1, 56, 0
1, 36479, Note_on_c, 0, 68, 0
1, 36480, Note_on_c, 0, 75, 74
1, 36480, Note_on_c, 1, 60, 59
1, 36480, Note_on_c, 1, 56, 59
1, 36503, Note_on_c, 0, 75, 0
1, 36504, Note_on_c, 0, 68, 73
1, 36525, Note_on_c, 1, 60, 0
1, 36525, Note_on_c, 1, 56, 0
1, 36527, Note_on_c, 0, 68, 0
1, 36528, Note_on_c, 0, 75, 73
1, 36528, Note_on_c, 1, 60, 58
1, 36528, Note_on_c, 1, 56, 58
1, 36551, Note_on_c, 0, 75, 0
1, 36552, Note_on_c, 0, 68, 73
1, 36573, Note_on_c, 1, 60, 0
1, 36573, Note_on_c, 1, 56, 0
1, 36575, Note_on_c, 0, 68, 0
1, 36576, Note_on_c, 0, 73, 73
1, 36576, Note_on_c, 1, 64, 58
1, 36576, Note_on_c, 1, 56, 58
1, 36599, Note_on_c, 0, 73, 0
1, 36600, Note_on_c, 0, 68, 72
1, 36621, Note_on_c, 1, 64, 0
1, 36621, Note_on_c, 1, 56, 0
1, 36623, Note_on_c, 0, 68, 0
1, 36624, Note_on_c, 0, 73, 72
1, 36624, Note_on_c, 1, 64, 57
1, 36624, Note_on_c, 1, 56, 57
1, 36647, Note_on_c, 0, 73, 0
1, 36648, Note_on_c, 0, 68, 72
1, 36669, Note_on_c, 1, 64, 0
1, 36669, Note_on_c, 1, 56, 0
1, 36671, Note_on_c, 0, 68, 0
1, 36672, Note_on_c, 0, 72, 72
1, 36672, Note_on_c, 1, 63, 57
1, 36672, Note_on_c, 1, 56, 57
1, 36695, Note_on_c, 0, 72, 0
1, 36696, Note_on_c, 0, 68, 71
1, 36717, Note_on_c, 1, 63, 0
1, 36717, Note_on_c, 1, 56, 0
1, 36719, Note_on_c, 0, 68, 0
1, 36720, Note_on_c, 0, 72, 71
1, 36720, Note_on_c, 1, 63, 56
1, 36720, Note_on_c, 1, 56, 56
1, 36743, Note_on_c, 0, 72, 0
1, 36744, Note_on_c, 0, 68, 71
1, 36765, Note_on_c, 1, 63, 0
1, 36765, Note_on_c, 1, 56, 0
1, 36767, Note_on_c, 0, 68, 0
1, 36768, Note_on_c, 0, 73, 71
1, 36768, Note_on_c, 1, 61, 56
1, 36768, Note_on_c, 1, 56, 56
1, 36791, Note_on_c, 0, 73, 0
1, 36792, Note_on_c, 0, 68, 70
1, 36813, Note_on_c, 1, 61, 0
1, 36813, Note_on_c, 1, 56, 0
1, 36815, Note_on_c, 0, 68, 0
1, 36816, Note_on_c, 0, 73, 70
1, 36816, Note_on_c, 1, 61, 55
1, 36816, Note_on_c, 1, 56, 55
1, 36839, Note_on_c, 0, 73, 0
1, 36840, Note_on_c, 0, 68, 70
1, 36861, Note_on_c, 1, 61, 0
1, 36861, Note_on_c, 1, 56, 0
1, 36863, Note_on_c, 0, 68, 0
1, 36864, Note_on_c, 0, 75, 70
1, 36864, Note_on_c, 1, 60, 63
1, 36864, Note_on_c, 1, 56, 63
1, 36953, Note_on_c, 0, 75, 0
1, 36953, Note_on_c, 1, 60, 0
1, 36953, Note_on_c, 1, 56, 0
1, 36960, Note_on_c, 0, 68, 70
1, 36960, Note_on_c, 0, 63, 70
1, 36960, Note_on_c, 0, 60, 70
1, 36960, Note_on_c, 1, 56, 63
1, 36960, Note_on_c, 1, 44, 63
1, 37027, Note_on_c, 0, 68, 0
1, 37027, Note_on_c, 0, 63, 0
1, 37027, Note_on_c, 0, 60, 0
1, 37027, Note_on_c, 1, 56, 0
1, 37027, Note_on_c, 1, 44, 0
1, 37032, Note_on_c, 0, 68, 70
1, 37032, Note_on_c, 0, 63, 70
1, 37032, Note_on_c, 0, 60, 70
1, 37032, Note_on_c, 1, 56, 63
1, 37032, Note_on_c, 1, 44, 63
1, 37055, Note_on_c, 0, 68, 0
1, 37055, Note_on_c, 0, 63, 0
1, 37055, Note_on_c, 0, 60, 0
1, 37055, Note_on_c, 1, 56, 0
1, 37055, Note_on_c, 1, 44, 0
1, 37056, Note_on_c, 0, 68, 70
1, 37056, Note_on_c, 0, 63, 70
1, 37056, Note_on_c, 0, 60, 70
1, 37056, Note_on_c, 1, 56, 63
1, 37056, Note_on_c, 1, 44, 63
1, 37145, Note_on_c, 0, 68, 0
1, 37145, Note_on_c, 0, 63, 0
1, 37145, Note_on_c, 0, 60, 0
1, 37145, Note_on_c, 1, 56, 0
1, 37145, Note_on_c, 1, 44, 0
1, 37248, Note_on_c, 0, 61, 85
1, 37248, Note_on_c, 1, 49, 85
1, 37248, Note_on_c, 1, 37, 85
1, 37293, Note_on_c, 0, 61, 0
1, 37293, Note_on_c, 1, 49, 0
1, 37293, Note_on_c, 1, 37, 0
1, 37296, Note_on_c, 0, 61, 85
1, 37296, Note_on_c, 1, 49, 85
1, 37308, Note_on_c, 0, 61, 0
1, 37308, Note_on_c, 0, 60, 85
1, 37308, Note_on_c, 1, 49, 0
1, 37308, Note_on_c, 1, 48, 85
1, 37320, Note_on_c, 0, 60, 0
1, 37320, Note_on_c, 0, 61, 85
1, 37320, Note_on_c, 1, 48, 0
1, 37320, Note_on_c, 1, 49, 85
1, 37332, Note_on_c, 0, 61, 0
1, 37332, Note_on_c, 0, 63, 85
1, 37332, Note_on_c, 1, 49, 0
1, 37332, Note_on_c, 1, 51, 85
1, 37344, Note_on_c, 0, 63, 0
1, 37344, Note_on_c, 0, 64, 85
1, 37344, Note_on_c, 1, 51, 0
1, 37344, Note_on_c, 1, 52, 85
1, 37364, Note_on_c, 0, 64, 0
1, 37364, Note_on_c, 1, 52, 0
1, 37392, Note_on_c, 0, 63, 85
1, 37392, Note_on_c, 1, 51, 85
1, 37412, Note_on_c, 0, 63, 0
1, 37412, Note_on_c, 1, 51, 0
1, 37440, Note_on_c, 0, 61, 85
1, 37440, Note_on_c, 1, 49, 85
1, 37460, Note_on_c, 0, 61, 0
1, 37460, Note_on_c, 1, 49, 0
1, 37488, Note_on_c, 0, 56, 85
1, 37488, Note_on_c, 1, 44, 85
1, 37508, Note_on_c, 0, 56, 0
1, 37508, Note_on_c, 1, 44, 0
1, 37536, Note_on_c, 0, 61, 85
1, 37536, Note_on_c, 1, 49, 85
1, 37556, Note_on_c, 0, 61, 0
1, 37556, Note_on_c, 1, 49, 0
1, 37584, Note_on_c, 0, 64, 85
1, 37584, Note_on_c, 1, 52, 85
1, 37604, Note_on_c, 0, 64, 0
1, 37604, Note_on_c, 1, 52, 0
1, 37632, Note_on_c, 0, 61, 85
1, 37632, Note_on_c, 1, 49, 85
1, 37632, Note_on_c, 1, 49, 85
1, 37677, Note_on_c, 0, 61, 0
1, 37680, Note_on_c, 0, 68, 70
1, 37721, Note_on_c, 1, 49, 0
1, 37721, Note_on_c, 1, 49, 0
1, 37725, Note_on_c, 0, 68, 0
1, 37728, Note_on_c, 0, 68, 70
1, 37773, Note_on_c, 0, 68, 0
1, 37776, Note_on_c, 0, 68, 70
1, 37821, Note_on_c, 0, 68, 0
1, 37824, Note_on_c, 0, 69, 70
1, 37830, Note_on_c, 0, 69, 0
1, 37830, Note_on_c, 0, 68, 70
1, 37836, Note_on_c, 0, 68, 0
1, 37836, Note_on_c, 0, 67, 70
1, 37842, Note_on_c, 0, 67, 0
1, 37842, Note_on_c, 0, 68, 70
1, 37872, Note_on_c, 1, 64, 63
1, 37872, Note_on_c, 1, 61, 63
1, 37913, Note_on_c, 0, 68, 0
1, 37917, Note_on_c, 1, 64, 0
1, 37917, Note_on_c, 1, 61, 0
1, 37920, Note_on_c, 1, 63, 63
1, 37920, Note_on_c, 1, 60, 63
1, 37965, Note_on_c, 1, 63, 0
1, 37965, Note_on_c, 1, 60, 0
1, 37968, Note_on_c, 1, 64, 63
1, 37968, Note_on_c, 1, 61, 63
1, 38013, Note_on_c, 1, 64, 0
1, 38013, Note_on_c, 1, 61, 0
1, 38016, Note_on_c, 1, 66, 63
1, 38016, Note_on_c, 1, 63, 63
1, 38055, Note_on_c, 1, 66, 0
1, 38055, Note_on_c, 1, 63, 0
1, 38064, Note_on_c, 0, 68, 70
1, 38109, Note_on_c, 0, 68, 0
1, 38112, Note_on_c, 0, 68, 70
1, 38157, Note_on_c, 0, 68, 0
1, 38160, Note_on_c, 0, 68, 70
1, 38205, Note_on_c, 0, 68, 0
1, 38208, Note_on_c, 0, 69, 70
1, 38214, Note_on_c, 0, 69, 0
1, 38214, Note_on_c, 0, 68, 70
1, 38220, Note_on_c, 0, 68, 0
1, 38220, Note_on_c, 0, 67, 70
1, 38226, Note_on_c, 0, 67, 0
1, 38226, Note_on_c, 0, 68, 70
1, 38256, Note_on_c, 1, 66, 63
1, 38256, Note_on_c, 1, 63, 63
1, 38297, Note_on_c, 0, 68, 0
1, 38301, Note_on_c, 1, 66, 0
1, 38301, Note_on_c, 1, 63, 0
1, 38304, Note_on_c, 1, 64, 63
1, 38304, Note_on_c, 1, 61, 63
1, 38349, Note_on_c, 1, 64, 0
1, 38349, Note_on_c, 1, 61, 0
1, 38352, Note_on_c, 1, 66, 63
1, 38352, Note_on_c, 1, 63, 63
1, 38397, Note_on_c, 1, 66, 0
1, 38397, Note_on_c, 1, 63, 0
1, 38400, Note_on_c, 1, 68, 63
1, 38400, Note_on_c, 1, 64, 63
1, 38439, Note_on_c, 1, 68, 0
1, 38439, Note_on_c, 1, 64, 0
1, 38448, Note_on_c, 0, 76, 70
1, 38448, Note_on_c, 0, 73, 70
1, 38493, Note_on_c, 0, 76, 0
1, 38493, Note_on_c, 0, 73, 0
1, 38496, Note_on_c, 0, 75, 70
1, 38496, Note_on_c, 0, 72, 70
1, 38541, Note_on_c, 0, 75, 0
1, 38541, Note_on_c, 0, 72, 0
1, 38544, Note_on_c, 0, 76, 70
1, 38544, Note_on_c, 0, 73, 70
1, 38589, Note_on_c, 0, 76, 0
1, 38589, Note_on_c, 0, 73, 0
1, 38592, Note_on_c, 0, 78, 70
1, 38592, Note_on_c, 0, 75, 70
1, 38631, Note_on_c, 0, 78, 0
1, 38631, Note_on_c, 0, 75, 0
1, 38640, Note_on_c, 1, 69, 63
1, 38640, Note_on_c, 1, 66, 63
1, 38685, Note_on_c, 1, 69, 0
1, 38685, Note_on_c, 1, 66, 0
1, 38688, Note_on_c, 1, 68, 63
1, 38688, Note_on_c, 1, 64, 63
1, 38733, Note_on_c, 1, 68, 0
1, 38733, Note_on_c, 1, 64, 0
1, 38736, Note_on_c, 1, 69, 63
1, 38736, Note_on_c, 1, 66, 63
1, 38781, Note_on_c, 1, 69, 0
1, 38781, Note_on_c, 1, 66, 0
1, 38784, Note_on_c, 1, 71, 63
1, 38784, Note_on_c, 1, 68, 63
1, 38823, Note_on_c, 1, 71, 0
1, 38823, Note_on_c, 1, 68, 0
1, 38832, Note_on_c, 0, 80, 70
1, 38832, Note_on_c, 0, 77, 70
1, 38877, Note_on_c, 0, 80, 0
1, 38877, Note_on_c, 0, 77, 0
1, 38880, Note_on_c, 0, 78, 70
1, 38880, Note_on_c, 0, 75, 70
1, 38925, Note_on_c, 0, 78, 0
1, 38925, Note_on_c, 0, 75, 0
1, 38928, Note_on_c, 0, 80, 70
1, 38928, Note_on_c, 0, 77, 70
1, 38973, Note_on_c, 0, 80, 0
1, 38973, Note_on_c, 0, 77, 0
1, 38976, Note_on_c, 0, 81, 70
1, 38976, Note_on_c, 0, 78, 70
1, 39015, Note_on_c, 0, 81, 0
1, 39015, Note_on_c, 0, 78, 0
1, 39024, Note_on_c, 1, 73, 63
1, 39024, Note_on_c, 1, 69, 63
1, 39069, Note_on_c, 1, 73, 0
1, 39069, Note_on_c, 1, 69, 0
1, 39072, Note_on_c, 1, 71, 63
1, 39072, Note_on_c, 1, 68, 63
1, 39117, Note_on_c, 1, 71, 0
1, 39117, Note_on_c, 1, 68, 0
1, 39120, Note_on_c, 1, 73, 63
1, 39120, Note_on_c, 1, 69, 63
1, 39165, Note_on_c, 1, 73, 0
1, 39165, Note_on_c, 1, 69, 0
1, 39168, Note_on_c, 1, 69, 63
1, 39168, Note_on_c, 1, 66, 63
1, 39207, Note_on_c, 1, 69, 0
1, 39207, Note_on_c, 1, 66, 0
1, 39216, Note_on_c, 0, 85, 70
1, 39216, Note_on_c, 0, 81, 70
1, 39261, Note_on_c, 0, 85, 0
1, 39261, Note_on_c, 0, 81, 0
1, 39264, Note_on_c, 0, 83, 70
1, 39264, Note_on_c, 0, 80, 70
1, 39309, Note_on_c, 0, 83, 0
1, 39309, Note_on_c, 0, 80, 0
1, 39312, Note_on_c, 0, 85, 70
1, 39312, Note_on_c, 0, 81, 70
1, 39357, Note_on_c, 0, 85, 0
1, 39357, Note_on_c, 0, 81, 0
1, 39360, Note_on_c, 0, 81, 70
1, 39360, Note_on_c, 0, 78, 70
1, 39380, Note_on_c, 0, 81, 0
1, 39380, Note_on_c, 0, 78, 0
1, 39408, Note_on_c, 0, 81, 70
1, 39408, Note_on_c, 1, 73, 63
1, 39453, Note_on_c, 0, 81, 0
1, 39453, Note_on_c, 1, 73, 0
1, 39456, Note_on_c, 0, 80, 70
1, 39456, Note_on_c, 1, 71, 63
1, 39501, Note_on_c, 0, 80, 0
1, 39501, Note_on_c, 1, 71, 0
1, 39504, Note_on_c, 0, 81, 70
1, 39504, Note_on_c, 1, 73, 63
1, 39549, Note_on_c, 0, 81, 0
1, 39549, Note_on_c, 1, 73, 0
1, 39552, Note_on_c, 0, 78, 70
1, 39552, Note_on_c, 1, 69, 63
1, 39572, Note_on_c, 0, 78, 0
1, 39572, Note_on_c, 1, 69, 0
1, 39600, Note_on_c, 0, 78, 70
1, 39600, Note_on_c, 1, 73, 63
1, 39600, Note_on_c, 1, 69, 63
1, 39645, Note_on_c, 0, 78, 0
1, 39645, Note_on_c, 1, 73, 0
1, 39645, Note_on_c, 1, 69, 0
1, 39648, Note_on_c, 0, 77, 70
1, 39648, Note_on_c, 1, 71, 63
1, 39648, Note_on_c, 1, 68, 63
1, 39693, Note_on_c, 0, 77, 0
1, 39693, Note_on_c, 1, 71, 0
1, 39693, Note_on_c, 1, 68, 0
1, 39696, Note_on_c, 0, 78, 70
1, 39696, Note_on_c, 1, 73, 63
1, 39696, Note_on_c, 1, 69, 63
1, 39741, Note_on_c, 0, 78, 0
1, 39741, Note_on_c, 1, 73, 0
1, 39741, Note_on_c, 1, 69, 0
1, 39744, Note_on_c, 0, 74, 70
1, 39744, Note_on_c, 1, 69, 63
1, 39744, Note_on_c, 1, 66, 63
1, 39764, Note_on_c, 0, 74, 0
1, 39783, Note_on_c, 1, 69, 0
1, 39783, Note_on_c, 1, 66, 0
1, 39792, Note_on_c, 0, 74, 70
1, 39837, Note_on_c, 0, 74, 0
1, 39840, Note_on_c, 0, 78, 71
1, 39840, Note_on_c, 1, 57, 63
1, 39840, Note_on_c, 1, 54, 63
1, 39885, Note_on_c, 0, 78, 0
1, 39888, Note_on_c, 0, 81, 73
1, 39929, Note_on_c, 1, 57, 0
1, 39929, Note_on_c, 1, 54, 0
1, 39933, Note_on_c, 0, 81, 0
1, 39936, Note_on_c, 0, 73, 74
1, 39936, Note_on_c, 1, 56, 85
1, 39984, Note_on_c, 1, 64, 63
1, 40029, Note_on_c, 1, 64, 0
1, 40032, Note_on_c, 1, 63, 63
1, 40055, Note_on_c, 0, 73, 0
1, 40056, Note_on_c, 0, 72, 76
1, 40077, Note_on_c, 1, 63, 0
1, 40079, Note_on_c, 0, 72, 0
1, 40080, Note_on_c, 0, 75, 74
1, 40080, Note_on_c, 1, 66, 63
1, 40103, Note_on_c, 0, 75, 0
1, 40104, Note_on_c, 0, 72, 72
1, 40113, Note_on_c, 1, 56, 0
1, 40125, Note_on_c, 1, 66, 0
1, 40127, Note_on_c, 0, 72, 0
1, 40128, Note_on_c, 0, 73, 70
1, 40128, Note_on_c, 1, 64, 63
1, 40128, Note_on_c, 1, 61, 63
1, 40217, Note_on_c, 0, 73, 0
1, 40217, Note_on_c, 1, 64, 0
1, 40217, Note_on_c, 1, 61, 0
1, 40272, Note_on_c, 0, 69, 85
1, 40272, Note_on_c, 1, 48, 85
1, 40272, Note_on_c, 1, 36, 85
1, 40284, Note_on_c, 0, 69, 0
1, 40284, Note_on_c, 0, 66, 85
1, 40317, Note_on_c, 1, 48, 0
1, 40317, Note_on_c, 1, 36, 0
1, 40318, Note_on_c, 0, 66, 0
1, 40320, Note_on_c, 0, 68, 85
1, 40320, Note_on_c, 1, 49, 85
1, 40320, Note_on_c, 1, 37, 85
1, 40332, Note_on_c, 0, 68, 0
1, 40332, Note_on_c, 0, 64, 85
1, 40366, Note_on_c, 0, 64, 0
1, 40368, Note_on_c, 0, 66, 85
1, 40380, Note_on_c, 0, 66, 0
1, 40380, Note_on_c, 0, 63, 85
1, 40409, Note_on_c, 1, 49, 0
1, 40409, Note_on_c, 1, 37, 0
1, 40414, Note_on_c, 0, 63, 0
1, 40416, Note_on_c, 0, 64, 85
1, 40428, Note_on_c, 0, 64, 0
1, 40428, Note_on_c, 0, 61, 85
1, 40462, Note_on_c, 0, 61, 0
1, 40464, Note_on_c, 0, 76, 85
1, 40464, Note_on_c, 1, 55, 85
1, 40464, Note_on_c, 1, 43, 85
1, 40476, Note_on_c, 0, 76, 0
1, 40476, Note_on_c, 0, 73, 85
1, 40509, Note_on_c, 1, 55, 0
1, 40509, Note_on_c, 1, 43, 0
1, 40510, Note_on_c, 0, 73, 0
1, 40512, Note_on_c, 0, 75, 85
1, 40512, Note_on_c, 1, 56, 85
1, 40512, Note_on_c, 1, 44, 85
1, 40524, Note_on_c, 0, 75, 0
1, 40524, Note_on_c, 0, 72, 85
1, 40558, Note_on_c, 0, 72, 0
1, 40560, Note_on_c, 0, 73, 85
1, 40572, Note_on_c, 0, 73, 0
1, 40572, Note_on_c, 0, 70, 85
1, 40601, Note_on_c, 1, 56, 0
1, 40601, Note_on_c, 1, 44, 0
1, 40606, Note_on_c, 0, 70, 0
1, 40608, Note_on_c, 0, 72, 85
1, 40620, Note_on_c, 0, 72, 0
1, 40620, Note_on_c, 0, 68, 85
1, 40654, Note_on_c, 0, 68, 0
1, 40656, Note_on_c, 0, 81, 85
1, 40656, Note_on_c, 1, 60, 85
1, 40656, Note_on_c, 1, 48, 85
1, 40668, Note_on_c, 0, 81, 0
1, 40668, Note_on_c, 0, 78, 85
1, 40701, Note_on_c, 1, 60, 0
1, 40701, Note_on_c, 1, 48, 0
1, 40702, Note_on_c, 0, 78, 0
1, 40704, Note_on_c, 0, 80, 85
1, 40704, Note_on_c, 1, 61, 85
1, 40704, Note_on_c, 1, 49, 85
1, 40716, Note_on_c, 0, 80, 0
1, 40716, Note_on_c, 0, 76, 83
1, 40750, Note_on_c, 0, 76, 0
1, 40752, Note_on_c, 0, 78, 80
1, 40764, Note_on_c, 0, 78, 0
1, 40764, Note_on_c, 0, 75, 79
1, 40793, Note_on_c, 1, 61, 0
1, 40793, Note_on_c, 1, 49, 0
1, 40798, Note_on_c, 0, 75, 0
1, 40800, Note_on_c, 0, 76, 75
1, 40812, Note_on_c, 0, 76, 0
1, 40812, Note_on_c, 0, 73, 74
1, 40846, Note_on_c, 0, 73, 0
1, 40848, Note_on_c, 0, 85, 71
1, 40848, Note_on_c, 1, 64, 63
1, 40860, Note_on_c, 0, 85, 0
1, 40860, Note_on_c, 0, 80, 70
1, 40893, Note_on_c, 1, 64, 0
1, 40894, Note_on_c, 0, 80, 0
1, 40896, Note_on_c, 0, 81, 70
1, 40896, Note_on_c, 1, 66, 63
1, 40908, Note_on_c, 0, 81, 0
1, 40908, Note_on_c, 0, 78, 70
1, 40941, Note_on_c, 1, 66, 0
1, 40942, Note_on_c, 0, 78, 0
1, 40944, Note_on_c, 0, 80, 70
1, 40944, Note_on_c, 1, 68, 63
1, 40956, Note_on_c, 0, 80, 0
1, 40956, Note_on_c, 0, 76, 70
1, 40989, Note_on_c, 1, 68, 0
1, 40990, Note_on_c, 0, 76, 0
1, 40992, Note_on_c, 0, 78, 70
1, 40992, Note_on_c, 1, 69, 63
1, 41004, Note_on_c, 0, 78, 0
1, 41004, Note_on_c, 0, 75, 70
1, 41037, Note_on_c, 1, 69, 0
1, 41038, Note_on_c, 0, 75, 0
1, 41040, Note_on_c, 0, 76, 70
1, 41040, Note_on_c, 1, 68, 63
1, 41052, Note_on_c, 0, 76, 0
1, 41052, Note_on_c, 0, 73, 70
1, 41085, Note_on_c, 1, 68, 0
1, 41086, Note_on_c, 0, 73, 0
1, 41088, Note_on_c, 0, 75, 70
1, 41088, Note_on_c, 1, 66, 63
1, 41100, Note_on_c, 0, 75, 0
1, 41100, Note_on_c, 0, 73, 70
1, 41133, Note_on_c, 1, 66, 0
1, 41134, Note_on_c, 0, 73, 0
1, 41136, Note_on_c, 0, 75, 72
1, 41136, Note_on_c, 1, 66, 66
1, 41148, Note_on_c, 0, 75, 0
1, 41148, Note_on_c, 0, 73, 72
1, 41181, Note_on_c, 1, 66, 0
1, 41182, Note_on_c, 0, 73, 0
1, 41184, Note_on_c, 0, 76, 74
1, 41184, Note_on_c, 1, 68, 70
1, 41196, Note_on_c, 0, 76, 0
1, 41196, Note_on_c, 0, 73, 74
1, 41229, Note_on_c, 1, 68, 0
1, 41230, Note_on_c, 0, 73, 0
1, 41232, Note_on_c, 0, 76, 76
1, 41232, Note_on_c, 1, 68, 74
1, 41244, Note_on_c, 0, 76, 0
1, 41244, Note_on_c, 0, 73, 76
1, 41277, Note_on_c, 1, 68, 0
1, 41278, Note_on_c, 0, 73, 0
1, 41280, Note_on_c, 0, 78, 78
1, 41280, Note_on_c, 1, 69, 78
1, 41292, Note_on_c, 0, 78, 0
1, 41292, Note_on_c, 0, 73, 77
1, 41325, Note_on_c, 1, 69, 0
1, 41326, Note_on_c, 0, 73, 0
1, 41328, Note_on_c, 0, 78, 76
1, 41328, Note_on_c, 1, 69, 74
1, 41340, Note_on_c, 0, 78, 0
1, 41340, Note_on_c, 0, 73, 75
1, 41373, Note_on_c, 1, 69, 0
1, 41374, Note_on_c, 0, 73, 0
1, 41376, Note_on_c, 0, 76, 74
1, 41376, Note_on_c, 1, 68, 70
1, 41388, Note_on_c, 0, 76, 0
1, 41388, Note_on_c, 0, 73, 73
1, 41421, Note_on_c, 1, 68, 0
1, 41422, Note_on_c, 0, 73, 0
1, 41424, Note_on_c, 0, 76, 72
1, 41424, Note_on_c, 1, 68, 66
1, 41436, Note_on_c, 0, 76, 0
1, 41436, Note_on_c, 0, 73, 71
1, 41469, Note_on_c, 1, 68, 0
1, 41470, Note_on_c, 0, 73, 0
1, 41472, Note_on_c, 0, 75, 70
1, 41472, Note_on_c, 1, 66, 63
1, 41484, Note_on_c, 0, 75, 0
1, 41484, Note_on_c, 0, 73, 70
1, 41517, Note_on_c, 1, 66, 0
1, 41518, Note_on_c, 0, 73, 0
1, 41520, Note_on_c, 0, 75, 72
1, 41520, Note_on_c, 1, 66, 63
1, 41532, Note_on_c, 0, 75, 0
1, 41532, Note_on_c, 0, 73, 73
1, 41565, Note_on_c, 1, 66, 0
1, 41566, Note_on_c, 0, 73, 0
1, 41568, Note_on_c, 0, 76, 74
1, 41568, Note_on_c, 1, 68, 64
1, 41580, Note_on_c, 0, 76, 0
1, 41580, Note_on_c, 0, 73, 75
1, 41613, Note_on_c, 1, 68, 0
1, 41614, Note_on_c, 0, 73, 0
1, 41616, Note_on_c, 0, 76, 77
1, 41616, Note_on_c, 1, 68, 65
1, 41628, Note_on_c, 0, 76, 0
1, 41628, Note_on_c, 0, 73, 78
1, 41661, Note_on_c, 1, 68, 0
1, 41662, Note_on_c, 0, 73, 0
1, 41664, Note_on_c, 0, 78, 76
1, 41664, Note_on_c, 1, 69, 66
1, 41676, Note_on_c, 0, 78, 0
1, 41676, Note_on_c, 0, 73, 76
1, 41709, Note_on_c, 1, 69, 0
1, 41710, Note_on_c, 0, 73, 0
1, 41712, Note_on_c, 0, 78, 75
1, 41712, Note_on_c, 1, 69, 67
1, 41724, Note_on_c, 0, 78, 0
1, 41724, Note_on_c, 0, 73, 74
1, 41757, Note_on_c, 1, 69, 0
1, 41758, Note_on_c, 0, 73, 0
1, 41760, Note_on_c, 0, 76, 73
1, 41760, Note_on_c, 1, 68, 68
1, 41772, Note_on_c, 0, 76, 0
1, 41772, Note_on_c, 0, 73, 72
1, 41805, Note_on_c, 1, 68, 0
1, 41806, Note_on_c, 0, 73, 0
1, 41808, Note_on_c, 0, 76, 71
1, 41808, Note_on_c, 1, 68, 69
1, 41820, Note_on_c, 0, 76, 0
1, 41820, Note_on_c, 0, 73, 71
1, 41853, Note_on_c, 1, 68, 0
1, 41854, Note_on_c, 0, 73, 0
1, 41856, Note_on_c, 0, 75, 70
1, 41856, Note_on_c, 1, 67, 70
1, 41868, Note_on_c, 0, 75, 0
1, 41868, Note_on_c, 0, 73, 70
1, 41901, Note_on_c, 1, 67, 0
1, 41902, Note_on_c, 0, 73, 0
1, 41904, Note_on_c, 0, 75, 71
1, 41904, Note_on_c, 1, 67, 71
1, 41916, Note_on_c, 0, 75, 0
1, 41916, Note_on_c, 0, 73, 72
1, 41949, Note_on_c, 1, 67, 0
1, 41950, Note_on_c, 0, 73, 0
1, 41952, Note_on_c, 0, 75, 73
1, 41952, Note_on_c, 1, 67, 72
1, 41964, Note_on_c, 0, 75, 0
1, 41964, Note_on_c, 0, 73, 73
1, 41997, Note_on_c, 1, 67, 0
1, 41998, Note_on_c, 0, 73, 0
1, 42000, Note_on_c, 0, 75, 74
1, 42000, Note_on_c, 1, 67, 74
1, 42012, Note_on_c, 0, 75, 0
1, 42012, Note_on_c, 0, 73, 75
1, 42045, Note_on_c, 1, 67, 0
1, 42046, Note_on_c, 0, 73, 0
1, 42048, Note_on_c, 0, 72, 76
1, 42048, Note_on_c, 1, 68, 75
1, 42093, Note_on_c, 0, 72, 0
1, 42096, Note_on_c, 0, 68, 70
1, 42137, Note_on_c, 1, 68, 0
1, 42141, Note_on_c, 0, 68, 0
1, 42144, Note_on_c, 0, 68, 70
1, 42189, Note_on_c, 0, 68, 0
1, 42192, Note_on_c, 0, 68, 70
1, 42237, Note_on_c, 0, 68, 0
1, 42240, Note_on_c, 0, 69, 70
1, 42246, Note_on_c, 0, 69, 0
1, 42246, Note_on_c, 0, 68, 70
1, 42252, Note_on_c, 0, 68, 0
1, 42252, Note_on_c, 0, 67, 70
1, 42258, Note_on_c, 0, 67, 0
1, 42258, Note_on_c, 0, 68, 70
1, 42288, Note_on_c, 1, 64, 63
1, 42288, Note_on_c, 1, 61, 63
1, 42329, Note_on_c, 0, 68, 0
1, 42333, Note_on_c, 1, 64, 0
1, 42333, Note_on_c, 1, 61, 0
1, 42336, Note_on_c, 1, 63, 63
1, 42336, Note_on_c, 1, 60, 63
1, 42381, Note_on_c, 1, 63, 0
1, 42381, Note_on_c, 1, 60, 0
1, 42384, Note_on_c, 1, 64, 63
1, 42384, Note_on_c, 1, 61, 63
1, 42429, Note_on_c, 1, 64, 0
1, 42429, Note_on_c, 1, 61, 0
1, 42432, Note_on_c, 1, 66, 63
1, 42432, Note_on_c, 1, 63, 63
1, 42471, Note_on_c, 1, 66, 0
1, 42471, Note_on_c, 1, 63, 0
1, 42480, Note_on_c, 0, 68, 70
1, 42525, Note_on_c, 0, 68, 0
1, 42528, Note_on_c, 0, 68, 70
1, 42573, Note_on_c, 0, 68, 0
1, 42576, Note_on_c, 0, 68, 70
1, 42621, Note_on_c, 0, 68, 0
1, 42624, Note_on_c, 0, 69, 70
1, 42630, Note_on_c, 0, 69, 0
1, 42630, Note_on_c, 0, 68, 70
1, 42636, Note_on_c, 0, 68, 0
1, 42636, Note_on_c, 0, 67, 70
1, 42642, Note_on_c, 0, 67, 0
1, 42642, Note_on_c, 0, 68, 70
1, 42672, Note_on_c, 1, 66, 63
1, 42672, Note_on_c, 1, 63, 63
1, 42713, Note_on_c, 0, 68, 0
1, 42717, Note_on_c, 1, 66, 0
1, 42717, Note_on_c, 1, 63, 0
1, 42720, Note_on_c, 1, 64, 63
1, 42720, Note_on_c, 1, 61, 63
1, 42765, Note_on_c, 1, 64, 0
1, 42765, Note_on_c, 1, 61, 0
1, 42768, Note_on_c, 1, 66, 63
1, 42768, Note_on_c, 1, 63, 63
1, 42813, Note_on_c, 1, 66, 0
1, 42813, Note_on_c, 1, 63, 0
1, 42816, Note_on_c, 1, 68, 63
1, 42816, Note_on_c, 1, 64, 63
1, 42855, Note_on_c, 1, 68, 0
1, 42855, Note_on_c, 1, 64, 0
1, 42864, Note_on_c, 0, 73, 70
1, 42909, Note_on_c, 0, 73, 0
1, 42912, Note_on_c, 0, 73, 70
1, 42957, Note_on_c, 0, 73, 0
1, 42960, Note_on_c, 0, 73, 70
1, 43005, Note_on_c, 0, 73, 0
1, 43008, Note_on_c, 0, 73, 63
1, 43053, Note_on_c, 0, 73, 0
1, 43056, Note_on_c, 0, 74, 63
1, 43056, Note_on_c, 0, 71, 63
1, 43056, Note_on_c, 1, 68, 63
1, 43056, Note_on_c, 1, 65, 63
1, 43076, Note_on_c, 0, 74, 0
1, 43076, Note_on_c, 0, 71, 0
1, 43076, Note_on_c, 1, 68, 0
1, 43076, Note_on_c, 1, 65, 0
1, 43104, Note_on_c, 0, 74, 63
1, 43104, Note_on_c, 0, 71, 63
1, 43104, Note_on_c, 1, 68, 63
1, 43104, Note_on_c, 1, 65, 63
1, 43124, Note_on_c, 0, 74, 0
1, 43124, Note_on_c, 0, 71, 0
1, 43124, Note_on_c, 1, 68, 0
1, 43124, Note_on_c, 1, 65, 0
1, 43152, Note_on_c, 0, 74, 63
1, 43152, Note_on_c, 0, 71, 63
1, 43152, Note_on_c, 1, 68, 63
1, 43152, Note_on_c, 1, 65, 63
1, 43172, Note_on_c, 0, 74, 0
1, 43172, Note_on_c, 0, 71, 0
1, 43172, Note_on_c, 1, 68, 0
1, 43172, Note_on_c, 1, 65, 0
1, 43200, Note_on_c, 0, 74, 79
1, 43200, Note_on_c, 0, 71, 79
1, 43200, Note_on_c, 1, 68, 63
1, 43200, Note_on_c, 1, 65, 63
1, 43296, Note_on_c, 0, 74, 0
1, 43296, Note_on_c, 0, 71, 0
1, 43296, Note_on_c, 0, 73, 63
1, 43296, Note_on_c, 0, 69, 63
1, 43296, Note_on_c, 1, 68, 0
1, 43296, Note_on_c, 1, 65, 0
1, 43296, Note_on_c, 1, 66, 63
1, 43316, Note_on_c, 0, 73, 0
1, 43316, Note_on_c, 0, 69, 0
1, 43341, Note_on_c, 1, 66, 0
1, 43344, Note_on_c, 0, 77, 63
1, 43344, Note_on_c, 0, 71, 63
1, 43344, Note_on_c, 1, 68, 63
1, 43344, Note_on_c, 1, 61, 63
1, 43364, Note_on_c, 0, 77, 0
1, 43364, Note_on_c, 0, 71, 0
1, 43364, Note_on_c, 1, 68, 0
1, 43364, Note_on_c, 1, 61, 0
1, 43392, Note_on_c, 0, 77, 63
1, 43392, Note_on_c, 0, 71, 63
1, 43392, Note_on_c, 1, 68, 63
1, 43392, Note_on_c, 1, 61, 63
1, 43488, Note_on_c, 0, 77, 0
1, 43488, Note_on_c, 0, 71, 0
1, 43488, Note_on_c, 0, 78, 63
1, 43488, Note_on_c, 0, 69, 63
1, 43488, Note_on_c, 1, 68, 0
1, 43488, Note_on_c, 1, 61, 0
1, 43488, Note_on_c, 1, 66, 63
1, 43508, Note_on_c, 0, 78, 0
1, 43508, Note_on_c, 0, 69, 0
1, 43508, Note_on_c, 1, 66, 0
1, 43536, Note_on_c, 0, 76, 63
1, 43536, Note_on_c, 0, 73, 63
1, 43536, Note_on_c, 1, 70, 63
1, 43536, Note_on_c, 1, 67, 63
1, 43556, Note_on_c, 0, 76, 0
1, 43556, Note_on_c, 0, 73, 0
1, 43556, Note_on_c, 1, 70, 0
1, 43556, Note_on_c, 1, 67, 0
1, 43584, Note_on_c, 0, 76, 63
1, 43584, Note_on_c, 0, 73, 63
1, 43584, Note_on_c, 1, 70, 63
1, 43584, Note_on_c, 1, 67, 63
1, 43680, Note_on_c, 0, 76, 0
1, 43680, Note_on_c, 0, 73, 0
1, 43680, Note_on_c, 0, 75, 63
1, 43680, Note_on_c, 0, 72, 63
1, 43680, Note_on_c, 1, 70, 0
1, 43680, Note_on_c, 1, 67, 0
1, 43680, Note_on_c, 1, 68, 63
1, 43700, Note_on_c, 0, 75, 0
1, 43700, Note_on_c, 0, 72, 0
1, 43700, Note_on_c, 1, 68, 0
1, 43728, Note_on_c, 0, 79, 63
1, 43728, Note_on_c, 0, 73, 63
1, 43728, Note_on_c, 1, 70, 63
1, 43728, Note_on_c, 1, 63, 63
1, 43748, Note_on_c, 0, 79, 0
1, 43748, Note_on_c, 0, 73, 0
1, 43748, Note_on_c, 1, 70, 0
1, 43748, Note_on_c, 1, 63, 0
1, 43776, Note_on_c, 0, 79, 63
1, 43776, Note_on_c, 0, 73, 63
1, 43776, Note_on_c, 1, 70, 63
1, 43776, Note_on_c, 1, 63, 63
1, 43872, Note_on_c, 0, 79, 0
1, 43872, Note_on_c, 0, 73, 0
1, 43872, Note_on_c, 0, 80, 63
1, 43872, Note_on_c, 0, 72, 63
1, 43872, Note_on_c, 1, 70, 0
1, 43872, Note_on_c, 1, 63, 0
1, 43872, Note_on_c, 1, 68, 63
1, 43892, Note_on_c, 0, 80, 0
1, 43892, Note_on_c, 0, 72, 0
1, 43892, Note_on_c, 1, 68, 0
1, 43920, Note_on_c, 0, 80, 63
1, 43920, Note_on_c, 0, 68, 63
1, 43920, Note_on_c, 1, 61, 63
1, 43920, Note_on_c, 1, 52, 63
1, 43940, Note_on_c, 0, 80, 0
1, 43940, Note_on_c, 0, 68, 0
1, 43940, Note_on_c, 1, 61, 0
1, 43940, Note_on_c, 1, 52, 0
1, 43968, Note_on_c, 0, 80, 79
1, 43968, Note_on_c, 0, 68, 79
1, 43968, Note_on_c, 1, 61, 63
1, 43968, Note_on_c, 1, 52, 63
1, 44064, Note_on_c, 0, 80, 0
1, 44064, Note_on_c, 0, 68, 0
1, 44064, Note_on_c, 0, 85, 63
1, 44064, Note_on_c, 0, 73, 63
1, 44101, Note_on_c, 1, 61, 0
1, 44101, Note_on_c, 1, 52, 0
1, 44109, Note_on_c, 0, 85, 0
1, 44109, Note_on_c, 0, 73, 0
1, 44112, Note_on_c, 0, 83, 63
1, 44112, Note_on_c, 0, 71, 63
1, 44112, Note_on_c, 1, 61, 63
1, 44112, Note_on_c, 1, 53, 63
1, 44132, Note_on_c, 0, 83, 0
1, 44132, Note_on_c, 0, 71, 0
1, 44157, Note_on_c, 1, 61, 0
1, 44157, Note_on_c, 1, 53, 0
1, 44160, Note_on_c, 0, 83, 79
1, 44160, Note_on_c, 0, 71, 79
1, 44160, Note_on_c, 1, 61, 63
1, 44160, Note_on_c, 1, 54, 63
1, 44205, Note_on_c, 1, 61, 0
1, 44205, Note_on_c, 1, 54, 0
1, 44208, Note_on_c, 0, 83, 0
1, 44208, Note_on_c, 0, 71, 0
1, 44208, Note_on_c, 0, 81, 63
1, 44208, Note_on_c, 0, 69, 63
1, 44231, Note_on_c, 0, 81, 0
1, 44231, Note_on_c, 0, 69, 0
1, 44256, Note_on_c, 0, 81, 63
1, 44256, Note_on_c, 0, 69, 63
1, 44256, Note_on_c, 1, 61, 63
1, 44256, Note_on_c, 1, 56, 63
1, 44301, Note_on_c, 1, 61, 0
1, 44301, Note_on_c, 1, 56, 0
1, 44304, Note_on_c, 0, 81, 0
1, 44304, Note_on_c, 0, 69, 0
1, 44304, Note_on_c, 0, 80, 63
1, 44304, Note_on_c, 0, 68, 63
1, 44327, Note_on_c, 0, 80, 0
1, 44327, Note_on_c, 0, 68, 0
1, 44352, Note_on_c, 0, 80, 63
1, 44352, Note_on_c, 0, 68, 63
1, 44352, Note_on_c, 1, 61, 63
1, 44352, Note_on_c, 1, 57, 63
1, 44397, Note_on_c, 1, 61, 0
1, 44397, Note_on_c, 1, 57, 0
1, 44400, Note_on_c, 0, 80, 0
1, 44400, Note_on_c, 0, 68, 0
1, 44400, Note_on_c, 0, 78, 63
1, 44400, Note_on_c, 0, 66, 63
1, 44423, Note_on_c, 0, 78, 0
1, 44423, Note_on_c, 0, 66, 0
1, 44496, Note_on_c, 0, 83, 78
1, 44496, Note_on_c, 0, 71, 78
1, 44496, Note_on_c, 1, 61, 78
1, 44496, Note_on_c, 1, 53, 78
1, 44516, Note_on_c, 0, 83, 0
1, 44516, Note_on_c, 0, 71, 0
1, 44541, Note_on_c, 1, 61, 0
1, 44541, Note_on_c, 1, 53, 0
1, 44544, Note_on_c, 0, 83, 92
1, 44544, Note_on_c, 0, 71, 92
1, 44544, Note_on_c, 1, 61, 76
1, 44544, Note_on_c, 1, 54, 76
1, 44589, Note_on_c, 1, 61, 0
1, 44589, Note_on_c, 1, 54, 0
1, 44592, Note_on_c, 0, 83, 0
1, 44592, Note_on_c, 0, 71, 0
1, 44592, Note_on_c, 0, 81, 74
1, 44592, Note_on_c, 0, 69, 74
1, 44615, Note_on_c, 0, 81, 0
1, 44615, Note_on_c, 0, 69, 0
1, 44640, Note_on_c, 0, 81, 73
1, 44640, Note_on_c, 0, 69, 73
1, 44640, Note_on_c, 1, 61, 73
1, 44640, Note_on_c, 1, 56, 73
1, 44685, Note_on_c, 1, 61, 0
1, 44685, Note_on_c, 1, 56, 0
1, 44688, Note_on_c, 0, 81, 0
1, 44688, Note_on_c, 0, 69, 0
1, 44688, Note_on_c, 0, 80, 71
1, 44688, Note_on_c, 0, 68, 71
1, 44711, Note_on_c, 0, 80, 0
1, 44711, Note_on_c, 0, 68, 0
1, 44736, Note_on_c, 0, 80, 69
1, 44736, Note_on_c, 0, 68, 69
1, 44736, Note_on_c, 1, 61, 69
1, 44736, Note_on_c, 1, 57, 69
1, 44781, Note_on_c, 1, 61, 0
1, 44781, Note_on_c, 1, 57, 0
1, 44784, Note_on_c, 0, 80, 0
1, 44784, Note_on_c, 0, 68, 0
1, 44784, Note_on_c, 0, 78, 68
1, 44784, Note_on_c, 0, 66, 68
1, 44807, Note_on_c, 0, 78, 0
1, 44807, Note_on_c, 0, 66, 0
1, 44880, Note_on_c, 0, 78, 64
1, 44900, Note_on_c, 0, 78, 0
1, 44928, Note_on_c, 0, 78, 79
1, 44976, Note_on_c, 0, 78, 0
1, 44976, Note_on_c, 0, 76, 63
1, 44999, Note_on_c, 0, 76, 0
1, 45024, Note_on_c, 0, 76, 63
1, 45072, Note_on_c, 0, 76, 0
1, 45072, Note_on_c, 0, 75, 63
1, 45095, Note_on_c, 0, 75, 0
1, 45120, Note_on_c, 0, 75, 63
1, 45120, Note_on_c, 1, 69, 63
1, 45120, Note_on_c, 1, 66, 63
1, 45143, Note_on_c, 0, 75, 0
1, 45144, Note_on_c, 0, 78, 63
1, 45167, Note_on_c, 0, 78, 0
1, 45168, Note_on_c, 0, 76, 63
1, 45191, Note_on_c, 0, 76, 0
1, 45192, Note_on_c, 0, 80, 63
1, 45215, Note_on_c, 0, 80, 0
1, 45216, Note_on_c, 0, 78, 63
1, 45239, Note_on_c, 0, 78, 0
1, 45240, Note_on_c, 0, 81, 63
1, 45263, Note_on_c, 0, 81, 0
1, 45264, Note_on_c, 0, 80, 63
1, 45287, Note_on_c, 0, 80, 0
1, 45288, Note_on_c, 0, 83, 63
1, 45311, Note_on_c, 0, 83, 0
1, 45312, Note_on_c, 0, 81, 79
1, 45423, Note_on_c, 0, 81, 0
1, 45424, Note_on_c, 0, 80, 63
1, 45439, Note_on_c, 0, 80, 0
1, 45440, Note_on_c, 0, 78, 63
1, 45455, Note_on_c, 0, 78, 0
1, 45456, Note_on_c, 0, 76, 63
1, 45471, Note_on_c, 0, 76, 0
1, 45472, Note_on_c, 0, 75, 63
1, 45487, Note_on_c, 0, 75, 0
1, 45488, Note_on_c, 0, 73, 63
1, 45503, Note_on_c, 0, 73, 0
1, 45504, Note_on_c, 0, 72, 63
1, 45666, Note_on_c, 1, 69, 0
1, 45666, Note_on_c, 1, 66, 0
1, 45681, Note_on_c, 0, 72, 0
1, 45792, Note_on_c, 0, 75, 85
1, 45815, Note_on_c, 0, 75, 0
1, 45816, Note_on_c, 0, 87, 85
1, 45839, Note_on_c, 0, 87, 0
1, 45840, Note_on_c, 0, 72, 85
1, 45863, Note_on_c, 0, 72, 0
1, 45864, Note_on_c, 0, 84, 87
1, 45887, Note_on_c, 0, 84, 0
1, 45888, Note_on_c, 0, 69, 89
1, 45911, Note_on_c, 0, 69, 0
1, 45912, Note_on_c, 0, 81, 91
1, 45935, Note_on_c, 0, 81, 0
1, 45936, Note_on_c, 0, 66, 93
1, 45959, Note_on_c, 0, 66, 0
1, 45960, Note_on_c, 0, 78, 95
1, 45983, Note_on_c, 0, 78, 0
1, 45984, Note_on_c, 0, 63, 97
1, 46007, Note_on_c, 0, 63, 0
1, 46008, Note_on_c, 0, 75, 99
1, 46031, Note_on_c, 0, 75, 0
1, 46032, Note_on_c, 0, 60, 101
1, 46055, Note_on_c, 0, 60, 0
1, 46056, Note_on_c, 0, 72, 103
1, 46079, Note_on_c, 0, 72, 0
1, 46080, Note_on_c, 0, 69, 106
1, 46080, Note_on_c, 0, 57, 106
1, 46080, Note_on_c, 1, 45, 106
1, 46080, Note_on_c, 1, 33, 106
1, 46257, Note_on_c, 0, 69, 0
1, 46257, Note_on_c, 0, 57, 0
1, 46257, Note_on_c, 1, 45, 0
1, 46257, Note_on_c, 1, 33, 0
1, 46272, Note_on_c, 0, 68, 106
1, 46272, Note_on_c, 0, 56, 106
1, 46272, Note_on_c, 1, 44, 106
1, 46272, Note_on_c, 1, 32, 106
1, 46361, Note_on_c, 0, 68, 0
1, 46361, Note_on_c, 0, 56, 0
1, 46361, Note_on_c, 1, 44, 0
1, 46361, Note_on_c, 1, 32, 0
1, 46368, Note_on_c, 0, 66, 93
1, 46368, Note_on_c, 0, 54, 93
1, 46368, Note_on_c, 1, 42, 92
1, 46368, Note_on_c, 1, 30, 92
1, 46457, Note_on_c, 0, 66, 0
1, 46457, Note_on_c, 0, 54, 0
1, 46457, Note_on_c, 1, 42, 0
1, 46457, Note_on_c, 1, 30, 0
1, 46464, Note_on_c, 0, 52, 81
1, 46464, Note_on_c, 1, 40, 78
1, 46487, Note_on_c, 0, 52, 0
1, 46488, Note_on_c, 0, 64, 78
1, 46511, Note_on_c, 0, 64, 0
1, 46512, Note_on_c, 0, 56, 78
1, 46535, Note_on_c, 0, 56, 0
1, 46536, Note_on_c, 0, 68, 78
1, 46553, Note_on_c, 1, 40, 0
1, 46559, Note_on_c, 0, 68, 0
1, 46560, Note_on_c, 0, 60, 78
1, 46583, Note_on_c, 0, 60, 0
1, 46584, Note_on_c, 0, 61, 78
1, 46607, Note_on_c, 0, 61, 0
1, 46608, Note_on_c, 0, 63, 78
1, 46631, Note_on_c, 0, 63, 0
1, 46632, Note_on_c, 0, 61, 78
1, 46655, Note_on_c, 0, 61, 0
1, 46656, Note_on_c, 0, 57, 78
1, 46656, Note_on_c, 1, 54, 78
1, 46656, Note_on_c, 1, 42, 78
1, 46679, Note_on_c, 0, 57, 0
1, 46680, Note_on_c, 0, 69, 78
1, 46703, Note_on_c, 0, 69, 0
1, 46704, Note_on_c, 0, 61, 78
1, 46727, Note_on_c, 0, 61, 0
1, 46728, Note_on_c, 0, 73, 78
1, 46745, Note_on_c, 1, 54, 0
1, 46745, Note_on_c, 1, 42, 0
1, 46751, Note_on_c, 0, 73, 0
1, 46752, Note_on_c, 0, 65, 78
1, 46775, Note_on_c, 0, 65, 0
1, 46776, Note_on_c, 0, 66, 78
1, 46799, Note_on_c, 0, 66, 0
1, 46800, Note_on_c, 0, 68, 78
1, 46823, Note_on_c, 0, 68, 0
1, 46824, Note_on_c, 0, 66, 78
1, 46847, Note_on_c, 0, 66, 0
1, 46848, Note_on_c, 0, 64, 78
1, 46848, Note_on_c, 1, 49, 78
1, 46848, Note_on_c, 1, 44, 85
1, 46937, Note_on_c, 0, 64, 0
1, 46937, Note_on_c, 1, 49, 0
1, 46944, Note_on_c, 0, 68, 78
1, 46944, Note_on_c, 1, 48, 78
1, 46967, Note_on_c, 0, 68, 0
1, 46968, Note_on_c, 0, 66, 78
1, 46991, Note_on_c, 0, 66, 0
1, 46992, Note_on_c, 0, 64, 78
1, 47015, Note_on_c, 0, 64, 0
1, 47016, Note_on_c, 0, 63, 78
1, 47025, Note_on_c, 1, 44, 0
1, 47033, Note_on_c, 1, 48, 0
1, 47039, Note_on_c, 0, 63, 0
1, 47040, Note_on_c, 0, 64, 78
1, 47040, Note_on_c, 1, 37, 78
1, 47063, Note_on_c, 0, 64, 0
1, 47064, Note_on_c, 0, 76, 78
1, 47085, Note_on_c, 1, 37, 0
1, 47087, Note_on_c, 0, 76, 0
1, 47088, Note_on_c, 0, 68, 78
1, 47088, Note_on_c, 1, 40, 78
1, 47111, Note_on_c, 0, 68, 0
1, 47112, Note_on_c, 0, 80, 78
1, 47133, Note_on_c, 1, 40, 0
1, 47135, Note_on_c, 0, 80, 0
1, 47136, Note_on_c, 0, 72, 78
1, 47160, Note_on_c, 0, 72, 0
1, 47160, Note_on_c, 0, 73, 78
1, 47183, Note_on_c, 0, 73, 0
1, 47184, Note_on_c, 0, 75, 78
1, 47207, Note_on_c, 0, 75, 0
1, 47208, Note_on_c, 0, 73, 78
1, 47231, Note_on_c, 0, 73, 0
1, 47232, Note_on_c, 0, 69, 78
1, 47232, Note_on_c, 1, 54, 78
1, 47232, Note_on_c, 1, 42, 78
1, 47255, Note_on_c, 0, 69, 0
1, 47256, Note_on_c, 0, 81, 78
1, 47277, Note_on_c, 1, 54, 0
1, 47277, Note_on_c, 1, 42, 0
1, 47279, Note_on_c, 0, 81, 0
1, 47280, Note_on_c, 0, 73, 78
1, 47280, Note_on_c, 1, 57, 78
1, 47280, Note_on_c, 1, 45, 78
1, 47303, Note_on_c, 0, 73, 0
1, 47304, Note_on_c, 0, 85, 78
1, 47325, Note_on_c, 1, 57, 0
1, 47325, Note_on_c, 1, 45, 0
1, 47327, Note_on_c, 0, 85, 0
1, 47328, Note_on_c, 0, 72, 78
1, 47328, Note_on_c, 1, 56, 78
1, 47328, Note_on_c, 1, 44, 78
1, 47351, Note_on_c, 0, 72, 0
1, 47352, Note_on_c, 0, 84, 78
1, 47373, Note_on_c, 1, 56, 0
1, 47373, Note_on_c, 1, 44, 0
1, 47375, Note_on_c, 0, 84, 0
1, 47376, Note_on_c, 0, 75, 78
1, 47376, Note_on_c, 1, 54, 78
1, 47376, Note_on_c, 1, 42, 78
1, 47399, Note_on_c, 0, 75, 0
1, 47400, Note_on_c, 0, 87, 78
1, 47421, Note_on_c, 1, 54, 0
1, 47421, Note_on_c, 1, 42, 0
1, 47423, Note_on_c, 0, 87, 0
1, 47424, Note_on_c, 0, 73, 78
1, 47424, Note_on_c, 1, 52, 78
1, 47424, Note_on_c, 1, 40, 78
1, 47447, Note_on_c, 0, 73, 0
1, 47448, Note_on_c, 0, 85, 78
1, 47471, Note_on_c, 0, 85, 0
1, 47472, Note_on_c, 0, 76, 79
1, 47495, Note_on_c, 0, 76, 0
1, 47496, Note_on_c, 0, 88, 80
1, 47513, Note_on_c, 1, 52, 0
1, 47513, Note_on_c, 1, 40, 0
1, 47519, Note_on_c, 0, 88, 0
1, 47520, Note_on_c, 0, 75, 81
1, 47543, Note_on_c, 0, 75, 0
1, 47544, Note_on_c, 0, 87, 82
1, 47567, Note_on_c, 0, 87, 0
1, 47568, Note_on_c, 0, 73, 83
1, 47591, Note_on_c, 0, 73, 0
1, 47592, Note_on_c, 0, 85, 84
1, 47615, Note_on_c, 0, 85, 0
1, 47616, Note_on_c, 0, 71, 85
1, 47639, Note_on_c, 0, 71, 0
1, 47640, Note_on_c, 0, 83, 84
1, 47663, Note_on_c, 0, 83, 0
1, 47664, Note_on_c, 0, 69, 83
1, 47687, Note_on_c, 0, 69, 0
1, 47688, Note_on_c, 0, 81, 82
1, 47711, Note_on_c, 0, 81, 0
1, 47712, Note_on_c, 0, 68, 81
1, 47735, Note_on_c, 0, 68, 0
1, 47736, Note_on_c, 0, 80, 80
1, 47759, Note_on_c, 0, 80, 0
1, 47760, Note_on_c, 0, 67, 79
1, 47760, Note_on_c, 1, 64, 70
1, 47760, Note_on_c, 1, 61, 70
1, 47783, Note_on_c, 0, 67, 0
1, 47784, Note_on_c, 0, 79, 78
1, 47807, Note_on_c, 0, 79, 0
1, 47808, Note_on_c, 0, 68, 78
1, 47808, Note_on_c, 1, 64, 0
1, 47808, Note_on_c, 1, 61, 0
1, 47808, Note_on_c, 1, 63, 70
1, 47808, Note_on_c, 1, 60, 70
1, 47828, Note_on_c, 1, 63, 0
1, 47828, Note_on_c, 1, 60, 0
1, 47831, Note_on_c, 0, 68, 0
1, 47832, Note_on_c, 0, 80, 78
1, 47855, Note_on_c, 0, 80, 0
1, 47856, Note_on_c, 0, 67, 78
1, 47856, Note_on_c, 1, 64, 70
1, 47856, Note_on_c, 1, 61, 70
1, 47879, Note_on_c, 0, 67, 0
1, 47880, Note_on_c, 0, 79, 78
1, 47903, Note_on_c, 0, 79, 0
1, 47904, Note_on_c, 0, 68, 78
1, 47904, Note_on_c, 1, 64, 0
1, 47904, Note_on_c, 1, 61, 0
1, 47904, Note_on_c, 1, 63, 70
1, 47904, Note_on_c, 1, 60, 70
1, 47924, Note_on_c, 1, 63, 0
1, 47924, Note_on_c, 1, 60, 0
1, 47927, Note_on_c, 0, 68, 0
1, 47928, Note_on_c, 0, 80, 78
1, 47951, Note_on_c, 0, 80, 0
1, 47952, Note_on_c, 0, 67, 78
1, 47952, Note_on_c, 1, 64, 70
1, 47952, Note_on_c, 1, 61, 70
1, 47975, Note_on_c, 0, 67, 0
1, 47976, Note_on_c, 0, 79, 78
1, 47999, Note_on_c, 0, 79, 0
1, 48000, Note_on_c, 0, 68, 78
1, 48000, Note_on_c, 1, 64, 0
1, 48000, Note_on_c, 1, 61, 0
1, 48000, Note_on_c, 1, 63, 70
1, 48000, Note_on_c, 1, 60, 70
1, 48020, Note_on_c, 1, 63, 0
1, 48020, Note_on_c, 1, 60, 0
1, 48023, Note_on_c, 0, 68, 0
1, 48024, Note_on_c, 0, 80, 78
1, 48047, Note_on_c, 0, 80, 0
1, 48144, Note_on_c, 0, 72, 78
1, 48156, Note_on_c, 0, 72, 0
1, 48156, Note_on_c, 0, 70, 78
1, 48168, Note_on_c, 0, 70, 0
1, 48168, Note_on_c, 0, 72, 78
1, 48180, Note_on_c, 0, 72, 0
1, 48180, Note_on_c, 0, 73, 78
1, 48192, Note_on_c, 0, 73, 0
1, 48192, Note_on_c, 0, 75, 78
1, 48192, Note_on_c, 1, 60, 78
1, 48192, Note_on_c, 1, 56, 78
1, 48192, Note_on_c, 1, 54, 78
1, 48212, Note_on_c, 0, 75, 0
1, 48237, Note_on_c, 1, 60, 0
1, 48237, Note_on_c, 1, 56, 0
1, 48237, Note_on_c, 1, 54, 0
1, 48240, Note_on_c, 0, 75, 78
1, 48252, Note_on_c, 0, 75, 0
1, 48252, Note_on_c, 0, 73, 78
1, 48264, Note_on_c, 0, 73, 0
1, 48264, Note_on_c, 0, 75, 78
1, 48276, Note_on_c, 0, 75, 0
1, 48276, Note_on_c, 0, 76, 78
1, 48288, Note_on_c, 0, 76, 0
1, 48288, Note_on_c, 0, 78, 78
1, 48288, Note_on_c, 1, 60, 78
1, 48288, Note_on_c, 1, 56, 78
1, 48288, Note_on_c, 1, 54, 78
1, 48308, Note_on_c, 0, 78, 0
1, 48333, Note_on_c, 1, 60, 0
1, 48333, Note_on_c, 1, 56, 0
1, 48333, Note_on_c, 1, 54, 0
1, 48336, Note_on_c, 0, 78, 78
1, 48348, Note_on_c, 0, 78, 0
1, 48348, Note_on_c, 0, 76, 78
1, 48360, Note_on_c, 0, 76, 0
1, 48360, Note_on_c, 0, 78, 78
1, 48372, Note_on_c, 0, 78, 0
1, 48372, Note_on_c, 0, 80, 78
1, 48384, Note_on_c, 0, 80, 0
1, 48384, Note_on_c, 0, 81, 78
1, 48384, Note_on_c, 1, 60, 78
1, 48384, Note_on_c, 1, 56, 78
1, 48384, Note_on_c, 1, 54, 78
1, 48404, Note_on_c, 0, 81, 0
1, 48429, Note_on_c, 1, 60, 0
1, 48429, Note_on_c, 1, 56, 0
1, 48429, Note_on_c, 1, 54, 0
1, 48432, Note_on_c, 0, 75, 78
1, 48452, Note_on_c, 0, 75, 0
1, 48480, Note_on_c, 0, 78, 78
1, 48500, Note_on_c, 0, 78, 0
1, 48528, Note_on_c, 0, 72, 78
1, 48548, Note_on_c, 0, 72, 0
1, 48576, Note_on_c, 0, 68, 101
1, 48576, Note_on_c, 0, 73, 101
1, 48576, Note_on_c, 0, 76, 101
1, 48576, Note_on_c, 0, 80, 101
1, 48576, Note_on_c, 1, 52, 85
1, 48576, Note_on_c, 1, 56, 85
1, 48576, Note_on_c, 1, 61, 85
1, 48621, Note_on_c, 1, 61, 0
1, 48621, Note_on_c, 1, 56, 0
1, 48621, Note_on_c, 1, 52, 0
1, 48624, Note_on_c, 0, 80, 0
1, 48624, Note_on_c, 0, 76, 0
1, 48624, Note_on_c, 0, 73, 0
1, 48624, Note_on_c, 0, 68, 0
1, 48672, Note_on_c, 0, 69, 85
1, 48672, Note_on_c, 1, 54, 85
1, 48680, Note_on_c, 0, 75, 85
1, 48680, Note_on_c, 1, 57, 85
1, 48688, Note_on_c, 0, 78, 85
1, 48688, Note_on_c, 1, 63, 85
1, 48717, Note_on_c, 0, 78, 0
1, 48717, Note_on_c, 0, 75, 0
1, 48717, Note_on_c, 0, 69, 0
1, 48717, Note_on_c, 1, 63, 0
1, 48717, Note_on_c, 1, 57, 0
1, 48717, Note_on_c, 1, 54, 0
1, 48768, Note_on_c, 0, 68, 85
1, 48768, Note_on_c, 1, 56, 85
1, 48776, Note_on_c, 0, 73, 85
1, 48776, Note_on_c, 1, 61, 85
1, 48784, Note_on_c, 0, 76, 85
1, 48784, Note_on_c, 1, 64, 85
1, 48813, Note_on_c, 0, 76, 0
1, 48813, Note_on_c, 0, 73, 0
1, 48813, Note_on_c, 0, 68, 0
1, 48813, Note_on_c, 1, 64, 0
1, 48813, Note_on_c, 1, 61, 0
1, 48813, Note_on_c, 1, 56, 0
1, 48912, Note_on_c, 0, 75, 78
1, 48912, Note_on_c, 1, 66, 78
1, 48912, Note_on_c, 1, 56, 78
1, 48948, Note_on_c, 0, 75, 0
1, 48948, Note_on_c, 0, 72, 78
1, 48960, Note_on_c, 0, 72, 0
1, 48960, Note_on_c, 0, 73, 78
1, 48960, Note_on_c, 1, 66, 0
1, 48960, Note_on_c, 1, 56, 0
1, 48960, Note_on_c, 1, 64, 78
1, 48960, Note_on_c, 1, 61, 78
1, 48980, Note_on_c, 0, 73, 0
1, 48999, Note_on_c, 1, 64, 0
1, 48999, Note_on_c, 1, 61, 0
1, 49008, Note_on_c, 0, 80, 78
1, 49008, Note_on_c, 0, 76, 78
1, 49056, Note_on_c, 0, 80, 0
1, 49056, Note_on_c, 0, 73, 78
1, 49101, Note_on_c, 0, 76, 0
1, 49101, Note_on_c, 0, 73, 0
1, 49104, Note_on_c, 0, 72, 78
1, 49104, Note_on_c, 1, 66, 78
1, 49104, Note_on_c, 1, 56, 78
1, 49138, Note_on_c, 0, 72, 0
1, 49140, Note_on_c, 0, 68, 78
1, 49152, Note_on_c, 0, 68, 0
1, 49152, Note_on_c, 0, 73, 78
1, 49152, Note_on_c, 1, 66, 0
1, 49152, Note_on_c, 1, 56, 0
1, 49152, Note_on_c, 1, 64, 78
1, 49152, Note_on_c, 1, 61, 78
1, 49172, Note_on_c, 0, 73, 0
1, 49191, Note_on_c, 1, 64, 0
1, 49191, Note_on_c, 1, 61, 0
1, 49200, Note_on_c, 0, 75, 78
1, 49200, Note_on_c, 0, 72, 78
1, 49248, Note_on_c, 0, 75, 0
1, 49248, Note_on_c, 0, 72, 0
1, 49248, Note_on_c, 0, 76, 78
1, 49248, Note_on_c, 0, 73, 78
1, 49293, Note_on_c, 0, 76, 0
1, 49293, Note_on_c, 0, 73, 0
1, 49296, Note_on_c, 0, 75, 78
1, 49296, Note_on_c, 1, 66, 78
1, 49296, Note_on_c, 1, 56, 78
1, 49330, Note_on_c, 0, 75, 0
1, 49332, Note_on_c, 0, 72, 78
1, 49344, Note_on_c, 0, 72, 0
1, 49344, Note_on_c, 0, 73, 70
1, 49344, Note_on_c, 1, 66, 0
1, 49344, Note_on_c, 1, 56, 0
1, 49344, Note_on_c, 1, 64, 70
1, 49344, Note_on_c, 1, 61, 70
1, 49364, Note_on_c, 0, 73, 0
1, 49383, Note_on_c, 1, 64, 0
1, 49383, Note_on_c, 1, 61, 0
1, 49392, Note_on_c, 0, 80, 70
1, 49392, Note_on_c, 0, 76, 70
1, 49440, Note_on_c, 0, 80, 0
1, 49440, Note_on_c, 0, 73, 70
1, 49485, Note_on_c, 0, 76, 0
1, 49485, Note_on_c, 0, 73, 0
1, 49488, Note_on_c, 0, 72, 70
1, 49488, Note_on_c, 1, 66, 70
1, 49488, Note_on_c, 1, 56, 70
1, 49522, Note_on_c, 0, 72, 0
1, 49524, Note_on_c, 0, 68, 70
1, 49536, Note_on_c, 0, 68, 0
1, 49536, Note_on_c, 0, 73, 70
1, 49536, Note_on_c, 1, 66, 0
1, 49536, Note_on_c, 1, 56, 0
1, 49536, Note_on_c, 1, 64, 70
1, 49536, Note_on_c, 1, 61, 70
1, 49556, Note_on_c, 0, 73, 0
1, 49556, Note_on_c, 1, 64, 0
1, 49556, Note_on_c, 1, 61, 0
1, 49632, Note_on_c, 0, 84, 63
1, 49632, Note_on_c, 0, 75, 63
1, 49632, Note_on_c, 1, 56, 63
1, 49652, Note_on_c, 0, 84, 0
1, 49652, Note_on_c, 0, 75, 0
1, 49652, Note_on_c, 1, 56, 0
1, 49728, Note_on_c, 0, 85, 63
1, 49728, Note_on_c, 0, 76, 63
1, 49728, Note_on_c, 1, 49, 63
1, 49767, Note_on_c, 0, 85, 0
1, 49767, Note_on_c, 0, 76, 0
1, 49767, Note_on_c, 1, 49, 0
1, 49920, Note_on_c, 0, 76, 78
1, 49943, Note_on_c, 0, 76, 0
1, 49944, Note_on_c, 0, 78, 78
1, 49952, Note_on_c, 0, 78, 0
1, 49952, Note_on_c, 0, 76, 78
1, 49960, Note_on_c, 0, 76, 0
1, 49960, Note_on_c, 0, 75, 78
1, 49968, Note_on_c, 0, 75, 0
1, 49968, Note_on_c, 0, 76, 78
1, 49991, Note_on_c, 0, 76, 0
1, 49992, Note_on_c, 0, 78, 78
1, 50015, Note_on_c, 0, 78, 0
1, 50016, Note_on_c, 0, 80, 78
1, 50061, Note_on_c, 0, 80, 0
1, 50064, Note_on_c, 0, 78, 78
1, 50109, Note_on_c, 0, 78, 0
1, 50112, Note_on_c, 0, 76, 78
1, 50112, Note_on_c, 1, 64, 78
1, 50135, Note_on_c, 1, 64, 0
1, 50136, Note_on_c, 1, 63, 78
1, 50157, Note_on_c, 0, 76, 0
1, 50159, Note_on_c, 1, 63, 0
1, 50160, Note_on_c, 0, 71, 78
1, 50160, Note_on_c, 1, 61, 78
1, 50183, Note_on_c, 1, 61, 0
1, 50184, Note_on_c, 1, 59, 78
1, 50205, Note_on_c, 0, 71, 0
1, 50207, Note_on_c, 1, 59, 0
1, 50208, Note_on_c, 0, 76, 78
1, 50208, Note_on_c, 1, 57, 78
1, 50231, Note_on_c, 1, 57, 0
1, 50232, Note_on_c, 1, 56, 78
1, 50253, Note_on_c, 0, 76, 0
1, 50255, Note_on_c, 1, 56, 0
1, 50256, Note_on_c, 0, 80, 78
1, 50256, Note_on_c, 1, 54, 78
1, 50279, Note_on_c, 1, 54, 0
1, 50280, Note_on_c, 1, 52, 78
1, 50301, Note_on_c, 0, 80, 0
1, 50303, Note_on_c, 1, 52, 0
1, 50304, Note_on_c, 0, 78, 78
1, 50304, Note_on_c, 1, 51, 78
1, 50327, Note_on_c, 0, 78, 0
1, 50328, Note_on_c, 0, 80, 78
1, 50336, Note_on_c, 0, 80, 0
1, 50336, Note_on_c, 0, 78, 78
1, 50344, Note_on_c, 0, 78, 0
1, 50344, Note_on_c, 0, 76, 78
1, 50352, Note_on_c, 0, 76, 0
1, 50352, Note_on_c, 0, 78, 78
1, 50375, Note_on_c, 0, 78, 0
1, 50376, Note_on_c, 0, 80, 78
1, 50393, Note_on_c, 1, 51, 0
1, 50399, Note_on_c, 0, 80, 0
1, 50400, Note_on_c, 0, 81, 78
1, 50445, Note_on_c, 0, 81, 0
1, 50448, Note_on_c, 0, 80, 78
1, 50493, Note_on_c, 0, 80, 0
1, 50496, Note_on_c, 0, 78, 78
1, 50496, Note_on_c, 1, 69, 64
1, 50519, Note_on_c, 1, 69, 0
1, 50520, Note_on_c, 1, 68, 64
1, 50541, Note_on_c, 0, 78, 0
1, 50543, Note_on_c, 1, 68, 0
1, 50544, Note_on_c, 0, 71, 78
1, 50544, Note_on_c, 1, 66, 64
1, 50567, Note_on_c, 1, 66, 0
1, 50568, Note_on_c, 1, 64, 64
1, 50589, Note_on_c, 0, 71, 0
1, 50591, Note_on_c, 1, 64, 0
1, 50592, Note_on_c, 0, 78, 78
1, 50592, Note_on_c, 1, 63, 64
1, 50615, Note_on_c, 1, 63, 0
1, 50616, Note_on_c, 1, 61, 64
1, 50637, Note_on_c, 0, 78, 0
1, 50639, Note_on_c, 1, 61, 0
1, 50640, Note_on_c, 0, 81, 78
1, 50640, Note_on_c, 1, 59, 64
1, 50663, Note_on_c, 1, 59, 0
1, 50664, Note_on_c, 1, 63, 64
1, 50685, Note_on_c, 0, 81, 0
1, 50687, Note_on_c, 1, 63, 0
1, 50688, Note_on_c, 0, 80, 78
1, 50688, Note_on_c, 1, 64, 64
1, 50711, Note_on_c, 0, 80, 0
1, 50712, Note_on_c, 0, 81, 78
1, 50720, Note_on_c, 0, 81, 0
1, 50720, Note_on_c, 0, 80, 78
1, 50728, Note_on_c, 0, 80, 0
1, 50728, Note_on_c, 0, 78, 78
1, 50736, Note_on_c, 0, 78, 0
1, 50736, Note_on_c, 0, 80, 78
1, 50759, Note_on_c, 0, 80, 0
1, 50760, Note_on_c, 0, 81, 78
1, 50783, Note_on_c, 0, 81, 0
1, 50784, Note_on_c, 0, 83, 78
1, 50807, Note_on_c, 0, 83, 0
1, 50808, Note_on_c, 0, 81, 78
1, 50821, Note_on_c, 1, 64, 0
1, 50831, Note_on_c, 0, 81, 0
1, 50832, Note_on_c, 0, 80, 78
1, 50832, Note_on_c, 1, 62, 64
1, 50855, Note_on_c, 0, 80, 0
1, 50856, Note_on_c, 0, 78, 78
1, 50877, Note_on_c, 1, 62, 0
1, 50879, Note_on_c, 0, 78, 0
1, 50880, Note_on_c, 0, 77, 78
1, 50880, Note_on_c, 1, 61, 64
1, 50903, Note_on_c, 0, 77, 0
1, 50904, Note_on_c, 0, 80, 79
1, 50927, Note_on_c, 0, 80, 0
1, 50928, Note_on_c, 0, 83, 81
1, 50951, Note_on_c, 0, 83, 0
1, 50952, Note_on_c, 0, 86, 83
1, 50969, Note_on_c, 1, 61, 0
1, 50975, Note_on_c, 0, 86, 0
1, 50976, Note_on_c, 0, 85, 85
1, 50976, Note_on_c, 1, 65, 64
1, 50999, Note_on_c, 0, 85, 0
1, 51000, Note_on_c, 0, 83, 83
1, 51023, Note_on_c, 0, 83, 0
1, 51024, Note_on_c, 0, 81, 81
1, 51047, Note_on_c, 0, 81, 0
1, 51048, Note_on_c, 0, 80, 79
1, 51065, Note_on_c, 1, 65, 0
1, 51071, Note_on_c, 0, 80, 0
1, 51072, Note_on_c, 0, 78, 78
1, 51072, Note_on_c, 1, 66, 85
1, 51095, Note_on_c, 0, 78, 0
1, 51095, Note_on_c, 1, 66, 0
1, 51096, Note_on_c, 0, 80, 78
1, 51096, Note_on_c, 1, 68, 85
1, 51104, Note_on_c, 0, 80, 0
1, 51104, Note_on_c, 0, 78, 78
1, 51104, Note_on_c, 1, 68, 0
1, 51104, Note_on_c, 1, 66, 85
1, 51112, Note_on_c, 0, 78, 0
1, 51112, Note_on_c, 0, 77, 78
1, 51112, Note_on_c, 1, 66, 0
1, 51112, Note_on_c, 1, 65, 85
1, 51120, Note_on_c, 0, 77, 0
1, 51120, Note_on_c, 0, 78, 78
1, 51120, Note_on_c, 1, 65, 0
1, 51120, Note_on_c, 1, 66, 85
1, 51143, Note_on_c, 0, 78, 0
1, 51143, Note_on_c, 1, 66, 0
1, 51144, Note_on_c, 0, 80, 78
1, 51144, Note_on_c, 1, 68, 85
1, 51167, Note_on_c, 0, 80, 0
1, 51167, Note_on_c, 1, 68, 0
1, 51168, Note_on_c, 0, 81, 78
1, 51168, Note_on_c, 1, 69, 85
1, 51213, Note_on_c, 0, 81, 0
1, 51213, Note_on_c, 1, 69, 0
1, 51216, Note_on_c, 0, 80, 78
1, 51216, Note_on_c, 1, 68, 85
1, 51261, Note_on_c, 0, 80, 0
1, 51261, Note_on_c, 1, 68, 0
1, 51264, Note_on_c, 0, 78, 78
1, 51264, Note_on_c, 1, 66, 85
1, 51284, Note_on_c, 0, 78, 0
1, 51284, Note_on_c, 1, 66, 0
1, 51312, Note_on_c, 0, 73, 78
1, 51312, Note_on_c, 1, 61, 85
1, 51332, Note_on_c, 0, 73, 0
1, 51332, Note_on_c, 1, 61, 0
1, 51360, Note_on_c, 0, 78, 78
1, 51360, Note_on_c, 1, 66, 85
1, 51380, Note_on_c, 0, 78, 0
1, 51380, Note_on_c, 1, 66, 0
1, 51408, Note_on_c, 0, 81, 78
1, 51408, Note_on_c, 1, 69, 85
1, 51428, Note_on_c, 0, 81, 0
1, 51428, Note_on_c, 1, 69, 0
1, 51456, Note_on_c, 0, 78, 78
1, 51456, Note_on_c, 1, 66, 85
1, 51501, Note_on_c, 0, 78, 0
1, 51504, Note_on_c, 0, 85, 70
1, 51545, Note_on_c, 1, 66, 0
1, 51549, Note_on_c, 0, 85, 0
1, 51552, Note_on_c, 0, 85, 70
1, 51597, Note_on_c, 0, 85, 0
1, 51600, Note_on_c, 0, 85, 70
1, 51645, Note_on_c, 0, 85, 0
1, 51648, Note_on_c, 0, 87, 70
1, 51654, Note_on_c, 0, 87, 0
1, 51654, Note_on_c, 0, 85, 70
1, 51660, Note_on_c, 0, 85, 0
1, 51660, Note_on_c, 0, 84, 70
1, 51666, Note_on_c, 0, 84, 0
1, 51666, Note_on_c, 0, 85, 70
1, 51696, Note_on_c, 1, 69, 63
1, 51696, Note_on_c, 1, 66, 63
1, 51737, Note_on_c, 0, 85, 0
1, 51741, Note_on_c, 1, 69, 0
1, 51741, Note_on_c, 1, 66, 0
1, 51744, Note_on_c, 1, 68, 63
1, 51744, Note_on_c, 1, 65, 63
1, 51789, Note_on_c, 1, 68, 0
1, 51789, Note_on_c, 1, 65, 0
1, 51792, Note_on_c, 1, 69, 63
1, 51792, Note_on_c, 1, 66, 63
1, 51837, Note_on_c, 1, 69, 0
1, 51837, Note_on_c, 1, 66, 0
1, 51840, Note_on_c, 1, 71, 63
1, 51840, Note_on_c, 1, 68, 63
1, 51879, Note_on_c, 1, 71, 0
1, 51879, Note_on_c, 1, 68, 0
1, 51888, Note_on_c, 0, 85, 70
1, 51933, Note_on_c, 0, 85, 0
1, 51936, Note_on_c, 0, 85, 70
1, 51981, Note_on_c, 0, 85, 0
1, 51984, Note_on_c, 0, 85, 70
1, 52029, Note_on_c, 0, 85, 0
1, 52032, Note_on_c, 0, 87, 70
1, 52038, Note_on_c, 0, 87, 0
1, 52038, Note_on_c, 0, 85, 70
1, 52044, Note_on_c, 0, 85, 0
1, 52044, Note_on_c, 0, 84, 70
1, 52050, Note_on_c, 0, 84, 0
1, 52050, Note_on_c, 0, 85, 70
1, 52080, Note_on_c, 1, 71, 63
1, 52080, Note_on_c, 1, 68, 63
1, 52121, Note_on_c, 0, 85, 0
1, 52125, Note_on_c, 1, 71, 0
1, 52125, Note_on_c, 1, 68, 0
1, 52128, Note_on_c, 1, 69, 63
1, 52128, Note_on_c, 1, 66, 63
1, 52173, Note_on_c, 1, 69, 0
1, 52173, Note_on_c, 1, 66, 0
1, 52176, Note_on_c, 1, 71, 63
1, 52176, Note_on_c, 1, 68, 63
1, 52221, Note_on_c, 1, 71, 0
1, 52221, Note_on_c, 1, 68, 0
1, 52224, Note_on_c, 1, 73, 63
1, 52224, Note_on_c, 1, 69, 63
1, 52263, Note_on_c, 1, 73, 0
1, 52263, Note_on_c, 1, 69, 0
1, 52272, Note_on_c, 0, 78, 70
1, 52317, Note_on_c, 0, 78, 0
1, 52320, Note_on_c, 0, 78, 70
1, 52365, Note_on_c, 0, 78, 0
1, 52368, Note_on_c, 0, 78, 70
1, 52413, Note_on_c, 0, 78, 0
1, 52416, Note_on_c, 0, 80, 70
1, 52422, Note_on_c, 0, 80, 0
1, 52422, Note_on_c, 0, 78, 70
1, 52428, Note_on_c, 0, 78, 0
1, 52428, Note_on_c, 0, 77, 70
1, 52434, Note_on_c, 0, 77, 0
1, 52434, Note_on_c, 0, 78, 86
1, 52464, Note_on_c, 0, 78, 0
1, 52464, Note_on_c, 0, 81, 85
1, 52464, Note_on_c, 0, 73, 85
1, 52464, Note_on_c, 0, 69, 85
1, 52464, Note_on_c, 1, 64, 85
1, 52464, Note_on_c, 1, 61, 85
1, 52464, Note_on_c, 1, 57, 85
1, 52509, Note_on_c, 0, 81, 0
1, 52509, Note_on_c, 0, 73, 0
1, 52509, Note_on_c, 0, 69, 0
1, 52509, Note_on_c, 1, 64, 0
1, 52509, Note_on_c, 1, 61, 0
1, 52509, Note_on_c, 1, 57, 0
1, 52512, Note_on_c, 0, 81, 85
1, 52512, Note_on_c, 0, 73, 85
1, 52512, Note_on_c, 0, 69, 85
1, 52512, Note_on_c, 1, 64, 85
1, 52512, Note_on_c, 1, 61, 85
1, 52512, Note_on_c, 1, 57, 85
1, 52557, Note_on_c, 0, 81, 0
1, 52557, Note_on_c, 0, 73, 0
1, 52557, Note_on_c, 0, 69, 0
1, 52557, Note_on_c, 1, 64, 0
1, 52557, Note_on_c, 1, 61, 0
1, 52557, Note_on_c, 1, 57, 0
1, 52560, Note_on_c, 0, 81, 85
1, 52560, Note_on_c, 0, 73, 85
1, 52560, Note_on_c, 0, 69, 85
1, 52560, Note_on_c, 1, 64, 85
1, 52560, Note_on_c, 1, 61, 85
1, 52560, Note_on_c, 1, 57, 85
1, 52605, Note_on_c, 0, 81, 0
1, 52605, Note_on_c, 0, 73, 0
1, 52605, Note_on_c, 0, 69, 0
1, 52605, Note_on_c, 1, 64, 0
1, 52605, Note_on_c, 1, 61, 0
1, 52605, Note_on_c, 1, 57, 0
1, 52608, Note_on_c, 0, 81, 85
1, 52608, Note_on_c, 0, 73, 64
1, 52608, Note_on_c, 0, 69, 64
1, 52608, Note_on_c, 1, 64, 85
1, 52608, Note_on_c, 1, 61, 85
1, 52608, Note_on_c, 1, 57, 85
1, 52653, Note_on_c, 0, 81, 0
1, 52653, Note_on_c, 0, 73, 0
1, 52653, Note_on_c, 0, 69, 0
1, 52653, Note_on_c, 1, 64, 0
1, 52653, Note_on_c, 1, 61, 0
1, 52653, Note_on_c, 1, 57, 0
1, 52656, Note_on_c, 0, 79, 85
1, 52656, Note_on_c, 0, 76, 64
1, 52656, Note_on_c, 1, 64, 85
1, 52656, Note_on_c, 1, 61, 85
1, 52679, Note_on_c, 0, 76, 0
1, 52680, Note_on_c, 0, 69, 64
1, 52701, Note_on_c, 0, 79, 0
1, 52701, Note_on_c, 1, 64, 0
1, 52701, Note_on_c, 1, 61, 0
1, 52703, Note_on_c, 0, 69, 0
1, 52704, Note_on_c, 0, 79, 85
1, 52704, Note_on_c, 0, 76, 64
1, 52704, Note_on_c, 1, 64, 85
1, 52704, Note_on_c, 1, 61, 85
1, 52727, Note_on_c, 0, 76, 0
1, 52728, Note_on_c, 0, 69, 64
1, 52749, Note_on_c, 0, 79, 0
1, 52749, Note_on_c, 1, 64, 0
1, 52749, Note_on_c, 1, 61, 0
1, 52751, Note_on_c, 0, 69, 0
1, 52752, Note_on_c, 0, 79, 85
1, 52752, Note_on_c, 0, 76, 64
1, 52752, Note_on_c, 1, 64, 85
1, 52752, Note_on_c, 1, 61, 85
1, 52775, Note_on_c, 0, 76, 0
1, 52776, Note_on_c, 0, 69, 64
1, 52797, Note_on_c, 0, 79, 0
1, 52797, Note_on_c, 1, 64, 0
1, 52797, Note_on_c, 1, 61, 0
1, 52799, Note_on_c, 0, 69, 0
1, 52800, Note_on_c, 0, 79, 85
1, 52800, Note_on_c, 0, 76, 64
1, 52800, Note_on_c, 0, 69, 64
1, 52800, Note_on_c, 1, 64, 85
1, 52800, Note_on_c, 1, 61, 85
1, 52889, Note_on_c, 0, 79, 0
1, 52889, Note_on_c, 0, 76, 0
1, 52889, Note_on_c, 0, 69, 0
1, 52889, Note_on_c, 1, 64, 0
1, 52889, Note_on_c, 1, 61, 0
1, 52992, Note_on_c, 1, 64, 63
1, 52992, Note_on_c, 1, 61, 63
1, 53040, Note_on_c, 0, 79, 63
1, 53040, Note_on_c, 0, 76, 64
1, 53063, Note_on_c, 0, 76, 0
1, 53064, Note_on_c, 0, 69, 64
1, 53081, Note_on_c, 1, 64, 0
1, 53081, Note_on_c, 1, 61, 0
1, 53085, Note_on_c, 0, 79, 0
1, 53087, Note_on_c, 0, 69, 0
1, 53088, Note_on_c, 0, 79, 63
1, 53088, Note_on_c, 0, 76, 64
1, 53111, Note_on_c, 0, 76, 0
1, 53112, Note_on_c, 0, 69, 64
1, 53133, Note_on_c, 0, 79, 0
1, 53135, Note_on_c, 0, 69, 0
1, 53136, Note_on_c, 0, 79, 63
1, 53136, Note_on_c, 0, 76, 64
1, 53159, Note_on_c, 0, 76, 0
1, 53160, Note_on_c, 0, 69, 64
1, 53181, Note_on_c, 0, 79, 0
1, 53183, Note_on_c, 0, 69, 0
1, 53184, Note_on_c, 0, 79, 63
1, 53184, Note_on_c, 0, 76, 64
1, 53229, Note_on_c, 0, 79, 0
1, 53229, Note_on_c, 0, 76, 0
1, 53232, Note_on_c, 0, 79, 85
1, 53232, Note_on_c, 0, 73, 64
1, 53232, Note_on_c, 1, 64, 85
1, 53232, Note_on_c, 1, 57, 85
1, 53255, Note_on_c, 0, 73, 0
1, 53256, Note_on_c, 0, 69, 64
1, 53277, Note_on_c, 0, 79, 0
1, 53277, Note_on_c, 1, 64, 0
1, 53277, Note_on_c, 1, 57, 0
1, 53279, Note_on_c, 0, 69, 0
1, 53280, Note_on_c, 0, 79, 85
1, 53280, Note_on_c, 0, 73, 64
1, 53280, Note_on_c, 1, 64, 85
1, 53280, Note_on_c, 1, 57, 85
1, 53303, Note_on_c, 0, 73, 0
1, 53304, Note_on_c, 0, 69, 64
1, 53325, Note_on_c, 0, 79, 0
1, 53325, Note_on_c, 1, 64, 0
1, 53325, Note_on_c, 1, 57, 0
1, 53327, Note_on_c, 0, 69, 0
1, 53328, Note_on_c, 0, 79, 85
1, 53328, Note_on_c, 0, 73, 64
1, 53328, Note_on_c, 1, 61, 85
1, 53328, Note_on_c, 1, 57, 85
1, 53351, Note_on_c, 0, 73, 0
1, 53352, Note_on_c, 0, 69, 64
1, 53373, Note_on_c, 0, 79, 0
1, 53373, Note_on_c, 1, 61, 0
1, 53373, Note_on_c, 1, 57, 0
1, 53375, Note_on_c, 0, 69, 0
1, 53376, Note_on_c, 0, 80, 85
1, 53376, Note_on_c, 0, 75, 64
1, 53376, Note_on_c, 0, 72, 64
1, 53376, Note_on_c, 1, 63, 85
1, 53376, Note_on_c, 1, 60, 85
1, 53376, Note_on_c, 1, 56, 85
1, 53421, Note_on_c, 0, 80, 0
1, 53421, Note_on_c, 0, 75, 0
1, 53421, Note_on_c, 0, 72, 0
1, 53421, Note_on_c, 1, 63, 0
1, 53421, Note_on_c, 1, 60, 0
1, 53421, Note_on_c, 1, 56, 0
1, 53424, Note_on_c, 0, 80, 85
1, 53424, Note_on_c, 0, 75, 64
1, 53424, Note_on_c, 1, 63, 85
1, 53424, Note_on_c, 1, 60, 85
1, 53424, Note_on_c, 1, 56, 85
1, 53447, Note_on_c, 0, 75, 0
1, 53448, Note_on_c, 0, 72, 64
1, 53469, Note_on_c, 0, 80, 0
1, 53469, Note_on_c, 1, 63, 0
1, 53469, Note_on_c, 1, 60, 0
1, 53469, Note_on_c, 1, 56, 0
1, 53471, Note_on_c, 0, 72, 0
1, 53472, Note_on_c, 0, 80, 85
1, 53472, Note_on_c, 0, 75, 64
1, 53472, Note_on_c, 1, 63, 85
1, 53472, Note_on_c, 1, 60, 85
1, 53472, Note_on_c, 1, 56, 85
1, 53495, Note_on_c, 0, 75, 0
1, 53496, Note_on_c, 0, 72, 64
1, 53517, Note_on_c, 0, 80, 0
1, 53517, Note_on_c, 1, 63, 0
1, 53517, Note_on_c, 1, 60, 0
1, 53517, Note_on_c, 1, 56, 0
1, 53519, Note_on_c, 0, 72, 0
1, 53520, Note_on_c, 0, 80, 85
1, 53520, Note_on_c, 0, 75, 64
1, 53520, Note_on_c, 1, 63, 85
1, 53520, Note_on_c, 1, 60, 85
1, 53520, Note_on_c, 1, 56, 85
1, 53543, Note_on_c, 0, 75, 0
1, 53544, Note_on_c, 0, 72, 64
1, 53565, Note_on_c, 0, 80, 0
1, 53565, Note_on_c, 1, 63, 0
1, 53565, Note_on_c, 1, 60, 0
1, 53565, Note_on_c, 1, 56, 0
1, 53567, Note_on_c, 0, 72, 0
1, 53568, Note_on_c, 0, 80, 85
1, 53568, Note_on_c, 0, 75, 64
1, 53568, Note_on_c, 1, 63, 85
1, 53568, Note_on_c, 1, 60, 85
1, 53568, Note_on_c, 1, 56, 85
1, 53657, Note_on_c, 0, 80, 0
1, 53657, Note_on_c, 0, 75, 0
1, 53657, Note_on_c, 1, 63, 0
1, 53657, Note_on_c, 1, 60, 0
1, 53657, Note_on_c, 1, 56, 0
1, 53760, Note_on_c, 0, 56, 78
1, 53760, Note_on_c, 1, 44, 78
1, 53805, Note_on_c, 0, 56, 0
1, 53805, Note_on_c, 1, 44, 0
1, 53808, Note_on_c, 0, 56, 78
1, 53808, Note_on_c, 1, 44, 78
1, 53820, Note_on_c, 0, 56, 0
1, 53820, Note_on_c, 0, 55, 78
1, 53820, Note_on_c, 1, 44, 0
1, 53820, Note_on_c, 1, 43, 78
1, 53832, Note_on_c, 0, 55, 0
1, 53832, Note_on_c, 0, 56, 78
1, 53832, Note_on_c, 1, 43, 0
1, 53832, Note_on_c, 1, 44, 78
1, 53844, Note_on_c, 0, 56, 0
1, 53844, Note_on_c, 0, 58, 78
1, 53844, Note_on_c, 1, 44, 0
1, 53844, Note_on_c, 1, 46, 78
1, 53856, Note_on_c, 0, 58, 0
1, 53856, Note_on_c, 0, 59, 78
1, 53856, Note_on_c, 1, 46, 0
1, 53856, Note_on_c, 1, 47, 78
1, 53901, Note_on_c, 0, 59, 0
1, 53901, Note_on_c, 1, 47, 0
1, 53904, Note_on_c, 0, 58, 78
1, 53904, Note_on_c, 1, 46, 78
1, 53949, Note_on_c, 0, 58, 0
1, 53949, Note_on_c, 1, 46, 0
1, 53952, Note_on_c, 0, 56, 78
1, 53952, Note_on_c, 1, 44, 78
1, 53972, Note_on_c, 0, 56, 0
1, 53972, Note_on_c, 1, 44, 0
1, 54000, Note_on_c, 0, 51, 78
1, 54000, Note_on_c, 1, 39, 78
1, 54020, Note_on_c, 0, 51, 0
1, 54020, Note_on_c, 1, 39, 0
1, 54048, Note_on_c, 0, 56, 78
1, 54048, Note_on_c, 1, 44, 78
1, 54068, Note_on_c, 0, 56, 0
1, 54068, Note_on_c, 1, 44, 0
1, 54096, Note_on_c, 0, 59, 78
1, 54096, Note_on_c, 1, 47, 78
1, 54116, Note_on_c, 0, 59, 0
1, 54116, Note_on_c, 1, 47, 0
1, 54144, Note_on_c, 0, 56, 78
1, 54144, Note_on_c, 1, 44, 78
1, 54189, Note_on_c, 0, 56, 0
1, 54192, Note_on_c, 0, 63, 70
1, 54233, Note_on_c, 1, 44, 0
1, 54237, Note_on_c, 0, 63, 0
1, 54240, Note_on_c, 0, 63, 70
1, 54285, Note_on_c, 0, 63, 0
1, 54288, Note_on_c, 0, 63, 70
1, 54333, Note_on_c, 0, 63, 0
1, 54336, Note_on_c, 0, 64, 70
1, 54342, Note_on_c, 0, 64, 0
1, 54342, Note_on_c, 0, 63, 70
1, 54348, Note_on_c, 0, 63, 0
1, 54348, Note_on_c, 0, 62, 70
1, 54354, Note_on_c, 0, 62, 0
1, 54354, Note_on_c, 0, 63, 70
1, 54384, Note_on_c, 1, 59, 63
1, 54384, Note_on_c, 1, 56, 63
1, 54425, Note_on_c, 0, 63, 0
1, 54429, Note_on_c, 1, 59, 0
1, 54429, Note_on_c, 1, 56, 0
1, 54432, Note_on_c, 1, 58, 63
1, 54432, Note_on_c, 1, 55, 63
1, 54477, Note_on_c, 1, 58, 0
1, 54477, Note_on_c, 1, 55, 0
1, 54480, Note_on_c, 1, 59, 63
1, 54480, Note_on_c, 1, 56, 63
1, 54525, Note_on_c, 1, 59, 0
1, 54525, Note_on_c, 1, 56, 0
1, 54528, Note_on_c, 1, 61, 63
1, 54528, Note_on_c, 1, 58, 63
1, 54567, Note_on_c, 1, 61, 0
1, 54567, Note_on_c, 1, 58, 0
1, 54576, Note_on_c, 0, 63, 70
1, 54621, Note_on_c, 0, 63, 0
1, 54624, Note_on_c, 0, 63, 70
1, 54669, Note_on_c, 0, 63, 0
1, 54672, Note_on_c, 0, 63, 70
1, 54717, Note_on_c, 0, 63, 0
1, 54720, Note_on_c, 0, 64, 70
1, 54726, Note_on_c, 0, 64, 0
1, 54726, Note_on_c, 0, 63, 70
1, 54732, Note_on_c, 0, 63, 0
1, 54732, Note_on_c, 0, 62, 70
1, 54738, Note_on_c, 0, 62, 0
1, 54738, Note_on_c, 0, 63, 70
1, 54768, Note_on_c, 1, 61, 63
1, 54768, Note_on_c, 1, 58, 63
1, 54809, Note_on_c, 0, 63, 0
1, 54813, Note_on_c, 1, 61, 0
1, 54813, Note_on_c, 1, 58, 0
1, 54816, Note_on_c, 1, 59, 63
1, 54816, Note_on_c, 1, 56, 63
1, 54861, Note_on_c, 1, 59, 0
1, 54861, Note_on_c, 1, 56, 0
1, 54864, Note_on_c, 1, 61, 63
1, 54864, Note_on_c, 1, 58, 63
1, 54909, Note_on_c, 1, 61, 0
1, 54909, Note_on_c, 1, 58, 0
1, 54912, Note_on_c, 1, 63, 63
1, 54912, Note_on_c, 1, 59, 63
1, 54951, Note_on_c, 1, 63, 0
1, 54951, Note_on_c, 1, 59, 0
1, 54960, Note_on_c, 0, 68, 70
1, 55005, Note_on_c, 0, 68, 0
1, 55008, Note_on_c, 0, 68, 70
1, 55053, Note_on_c, 0, 68, 0
1, 55056, Note_on_c, 0, 68, 70
1, 55101, Note_on_c, 0, 68, 0
1, 55104, Note_on_c, 0, 69, 70
1, 55110, Note_on_c, 0, 69, 0
1, 55110, Note_on_c, 0, 68, 70
1, 55116, Note_on_c, 0, 68, 0
1, 55116, Note_on_c, 0, 67, 70
1, 55122, Note_on_c, 0, 67, 0
1, 55122, Note_on_c, 0, 68, 86
1, 55152, Note_on_c, 0, 68, 0
1, 55152, Note_on_c, 0, 71, 70
1, 55152, Note_on_c, 1, 51, 63
1, 55152, Note_on_c, 1, 47, 63
1, 55197, Note_on_c, 0, 71, 0
1, 55197, Note_on_c, 1, 51, 0
1, 55197, Note_on_c, 1, 47, 0
1, 55200, Note_on_c, 0, 71, 70
1, 55200, Note_on_c, 1, 51, 63
1, 55200, Note_on_c, 1, 47, 63
1, 55245, Note_on_c, 0, 71, 0
1, 55245, Note_on_c, 1, 51, 0
1, 55245, Note_on_c, 1, 47, 0
1, 55248, Note_on_c, 0, 71, 70
1, 55248, Note_on_c, 1, 51, 63
1, 55248, Note_on_c, 1, 47, 63
1, 55293, Note_on_c, 0, 71, 0
1, 55293, Note_on_c, 1, 51, 0
1, 55293, Note_on_c, 1, 47, 0
1, 55296, Note_on_c, 0, 71, 86
1, 55344, Note_on_c, 1, 52, 63
1, 55344, Note_on_c, 1, 49, 63
1, 55389, Note_on_c, 1, 52, 0
1, 55389, Note_on_c, 1, 49, 0
1, 55392, Note_on_c, 0, 71, 0
1, 55392, Note_on_c, 0, 70, 70
1, 55392, Note_on_c, 1, 52, 63
1, 55392, Note_on_c, 1, 49, 63
1, 55412, Note_on_c, 0, 70, 0
1, 55437, Note_on_c, 1, 52, 0
1, 55437, Note_on_c, 1, 49, 0
1, 55440, Note_on_c, 0, 76, 71
1, 55440, Note_on_c, 1, 52, 63
1, 55440, Note_on_c, 1, 49, 63
1, 55460, Note_on_c, 0, 76, 0
1, 55485, Note_on_c, 1, 52, 0
1, 55485, Note_on_c, 1, 49, 0
1, 55488, Note_on_c, 0, 68, 87
1, 55536, Note_on_c, 1, 58, 64
1, 55536, Note_on_c, 1, 51, 64
1, 55581, Note_on_c, 1, 58, 0
1, 55581, Note_on_c, 1, 51, 0
1, 55584, Note_on_c, 0, 68, 0
1, 55584, Note_on_c, 0, 67, 72
1, 55584, Note_on_c, 1, 58, 64
1, 55584, Note_on_c, 1, 51, 64
1, 55604, Note_on_c, 0, 67, 0
1, 55629, Note_on_c, 1, 58, 0
1, 55629, Note_on_c, 1, 51, 0
1, 55632, Note_on_c, 0, 73, 72
1, 55632, Note_on_c, 1, 58, 64
1, 55632, Note_on_c, 1, 51, 64
1, 55652, Note_on_c, 0, 73, 0
1, 55677, Note_on_c, 1, 58, 0
1, 55677, Note_on_c, 1, 51, 0
1, 55680, Note_on_c, 0, 73, 88
1, 55728, Note_on_c, 1, 56, 65
1, 55728, Note_on_c, 1, 44, 65
1, 55773, Note_on_c, 1, 56, 0
1, 55773, Note_on_c, 1, 44, 0
1, 55776, Note_on_c, 0, 73, 0
1, 55776, Note_on_c, 0, 72, 73
1, 55776, Note_on_c, 1, 56, 65
1, 55776, Note_on_c, 1, 44, 65
1, 55796, Note_on_c, 0, 72, 0
1, 55821, Note_on_c, 1, 56, 0
1, 55821, Note_on_c, 1, 44, 0
1, 55824, Note_on_c, 0, 78, 73
1, 55824, Note_on_c, 1, 56, 66
1, 55824, Note_on_c, 1, 44, 66
1, 55844, Note_on_c, 0, 78, 0
1, 55869, Note_on_c, 1, 56, 0
1, 55869, Note_on_c, 1, 44, 0
1, 55872, Note_on_c, 0, 66, 90
1, 55920, Note_on_c, 1, 56, 66
1, 55920, Note_on_c, 1, 49, 66
1, 55965, Note_on_c, 1, 56, 0
1, 55965, Note_on_c, 1, 49, 0
1, 55968, Note_on_c, 0, 66, 0
1, 55968, Note_on_c, 0, 65, 74
1, 55968, Note_on_c, 1, 56, 66
1, 55968, Note_on_c, 1, 49, 66
1, 55988, Note_on_c, 0, 65, 0
1, 56013, Note_on_c, 1, 56, 0
1, 56013, Note_on_c, 1, 49, 0
1, 56016, Note_on_c, 0, 71, 75
1, 56016, Note_on_c, 1, 56, 67
1, 56016, Note_on_c, 1, 49, 67
1, 56036, Note_on_c, 0, 71, 0
1, 56061, Note_on_c, 1, 56, 0
1, 56061, Note_on_c, 1, 49, 0
1, 56064, Note_on_c, 0, 71, 91
1, 56112, Note_on_c, 1, 54, 67
1, 56112, Note_on_c, 1, 42, 67
1, 56157, Note_on_c, 1, 54, 0
1, 56157, Note_on_c, 1, 42, 0
1, 56160, Note_on_c, 0, 71, 0
1, 56160, Note_on_c, 0, 70, 76
1, 56160, Note_on_c, 1, 54, 68
1, 56160, Note_on_c, 1, 42, 68
1, 56180, Note_on_c, 0, 70, 0
1, 56205, Note_on_c, 1, 54, 0
1, 56205, Note_on_c, 1, 42, 0
1, 56208, Note_on_c, 0, 76, 76
1, 56208, Note_on_c, 1, 54, 68
1, 56208, Note_on_c, 1, 42, 68
1, 56228, Note_on_c, 0, 76, 0
1, 56253, Note_on_c, 1, 54, 0
1, 56253, Note_on_c, 1, 42, 0
1, 56256, Note_on_c, 0, 64, 92
1, 56304, Note_on_c, 1, 54, 69
1, 56304, Note_on_c, 1, 47, 69
1, 56349, Note_on_c, 1, 54, 0
1, 56349, Note_on_c, 1, 47, 0
1, 56352, Note_on_c, 0, 64, 0
1, 56352, Note_on_c, 0, 63, 77
1, 56352, Note_on_c, 1, 54, 69
1, 56352, Note_on_c, 1, 47, 69
1, 56372, Note_on_c, 0, 63, 0
1, 56397, Note_on_c, 1, 54, 0
1, 56397, Note_on_c, 1, 47, 0
1, 56400, Note_on_c, 0, 69, 77
1, 56400, Note_on_c, 1, 54, 69
1, 56400, Note_on_c, 1, 47, 69
1, 56420, Note_on_c, 0, 69, 0
1, 56445, Note_on_c, 1, 54, 0
1, 56445, Note_on_c, 1, 47, 0
1, 56448, Note_on_c, 0, 64, 78
1, 56448, Note_on_c, 1, 52, 70
1, 56448, Note_on_c, 1, 40, 70
1, 56471, Note_on_c, 0, 64, 0
1, 56472, Note_on_c, 0, 76, 78
1, 56495, Note_on_c, 0, 76, 0
1, 56496, Note_on_c, 0, 68, 78
1, 56496, Note_on_c, 1, 52, 0
1, 56496, Note_on_c, 1, 40, 0
1, 56496, Note_on_c, 1, 56, 70
1, 56519, Note_on_c, 0, 68, 0
1, 56520, Note_on_c, 0, 76, 78
1, 56541, Note_on_c, 1, 56, 0
1, 56543, Note_on_c, 0, 76, 0
1, 56544, Note_on_c, 0, 71, 78
1, 56544, Note_on_c, 1, 59, 70
1, 56567, Note_on_c, 0, 71, 0
1, 56568, Note_on_c, 0, 76, 78
1, 56589, Note_on_c, 1, 59, 0
1, 56591, Note_on_c, 0, 76, 0
1, 56592, Note_on_c, 0, 68, 78
1, 56592, Note_on_c, 1, 56, 70
1, 56615, Note_on_c, 0, 68, 0
1, 56616, Note_on_c, 0, 76, 78
1, 56637, Note_on_c, 1, 56, 0
1, 56639, Note_on_c, 0, 76, 0
1, 56640, Note_on_c, 0, 64, 78
1, 56640, Note_on_c, 1, 52, 70
1, 56663, Note_on_c, 0, 64, 0
1, 56664, Note_on_c, 0, 76, 78
1, 56687, Note_on_c, 0, 76, 0
1, 56688, Note_on_c, 0, 68, 78
1, 56711, Note_on_c, 0, 68, 0
1, 56712, Note_on_c, 0, 76, 78
1, 56729, Note_on_c, 1, 52, 0
1, 56735, Note_on_c, 0, 76, 0
1, 56736, Note_on_c, 0, 71, 78
1, 56759, Note_on_c, 0, 71, 0
1, 56760, Note_on_c, 0, 76, 78
1, 56783, Note_on_c, 0, 76, 0
1, 56784, Note_on_c, 0, 68, 78
1, 56807, Note_on_c, 0, 68, 0
1, 56808, Note_on_c, 0, 76, 78
1, 56831, Note_on_c, 0, 76, 0
1, 56832, Note_on_c, 0, 65, 78
1, 56832, Note_on_c, 1, 53, 71
1, 56832, Note_on_c, 1, 41, 71
1, 56855, Note_on_c, 0, 65, 0
1, 56856, Note_on_c, 0, 74, 78
1, 56879, Note_on_c, 0, 74, 0
1, 56880, Note_on_c, 0, 68, 79
1, 56880, Note_on_c, 1, 53, 0
1, 56880, Note_on_c, 1, 41, 0
1, 56880, Note_on_c, 1, 56, 72
1, 56903, Note_on_c, 0, 68, 0
1, 56904, Note_on_c, 0, 74, 79
1, 56925, Note_on_c, 1, 56, 0
1, 56927, Note_on_c, 0, 74, 0
1, 56928, Note_on_c, 0, 71, 79
1, 56928, Note_on_c, 1, 59, 72
1, 56951, Note_on_c, 0, 71, 0
1, 56952, Note_on_c, 0, 74, 79
1, 56973, Note_on_c, 1, 59, 0
1, 56975, Note_on_c, 0, 74, 0
1, 56976, Note_on_c, 0, 68, 79
1, 56976, Note_on_c, 1, 56, 72
1, 56999, Note_on_c, 0, 68, 0
1, 57000, Note_on_c, 0, 74, 79
1, 57021, Note_on_c, 1, 56, 0
1, 57023, Note_on_c, 0, 74, 0
1, 57024, Note_on_c, 0, 65, 79
1, 57024, Note_on_c, 1, 53, 73
1, 57047, Note_on_c, 0, 65, 0
1, 57048, Note_on_c, 0, 74, 79
1, 57071, Note_on_c, 0, 74, 0
1, 57072, Note_on_c, 0, 68, 79
1, 57095, Note_on_c, 0, 68, 0
1, 57096, Note_on_c, 0, 74, 79
1, 57113, Note_on_c, 1, 53, 0
1, 57119, Note_on_c, 0, 74, 0
1, 57120, Note_on_c, 0, 71, 79
1, 57143, Note_on_c, 0, 71, 0
1, 57144, Note_on_c, 0, 74, 79
1, 57167, Note_on_c, 0, 74, 0
1, 57168, Note_on_c, 0, 68, 79
1, 57191, Note_on_c, 0, 68, 0
1, 57192, Note_on_c, 0, 74, 79
1, 57215, Note_on_c, 0, 74, 0
1, 57216, Note_on_c, 0, 66, 79
1, 57216, Note_on_c, 1, 54, 74
1, 57216, Note_on_c, 1, 42, 74
1, 57239, Note_on_c, 0, 66, 0
1, 57240, Note_on_c, 0, 78, 79
1, 57263, Note_on_c, 0, 78, 0
1, 57264, Note_on_c, 0, 69, 80
1, 57264, Note_on_c, 1, 54, 0
1, 57264, Note_on_c, 1, 42, 0
1, 57264, Note_on_c, 1, 57, 74
1, 57287, Note_on_c, 0, 69, 0
1, 57288, Note_on_c, 0, 78, 80
1, 57309, Note_on_c, 1, 57, 0
1, 57311, Note_on_c, 0, 78, 0
1, 57312, Note_on_c, 0, 73, 80
1, 57312, Note_on_c, 1, 61, 74
1, 57335, Note_on_c, 0, 73, 0
1, 57336, Note_on_c, 0, 78, 80
1, 57357, Note_on_c, 1, 61, 0
1, 57359, Note_on_c, 0, 78, 0
1, 57360, Note_on_c, 0, 69, 80
1, 57360, Note_on_c, 1, 57, 74
1, 57383, Note_on_c, 0, 69, 0
1, 57384, Note_on_c, 0, 78, 80
1, 57405, Note_on_c, 1, 57, 0
1, 57407, Note_on_c, 0, 78, 0
1, 57408, Note_on_c, 0, 66, 80
1, 57408, Note_on_c, 1, 54, 75
1, 57431, Note_on_c, 0, 66, 0
1, 57432, Note_on_c, 0, 78, 80
1, 57455, Note_on_c, 0, 78, 0
1, 57456, Note_on_c, 0, 69, 80
1, 57479, Note_on_c, 0, 69, 0
1, 57480, Note_on_c, 0, 78, 80
1, 57497, Note_on_c, 1, 54, 0
1, 57503, Note_on_c, 0, 78, 0
1, 57504, Note_on_c, 0, 73, 80
1, 57527, Note_on_c, 0, 73, 0
1, 57528, Note_on_c, 0, 78, 80
1, 57551, Note_on_c, 0, 78, 0
1, 57552, Note_on_c, 0, 69, 80
1, 57575, Note_on_c, 0, 69, 0
1, 57576, Note_on_c, 0, 78, 80
1, 57599, Note_on_c, 0, 78, 0
1, 57600, Note_on_c, 0, 67, 80
1, 57600, Note_on_c, 1, 55, 76
1, 57600, Note_on_c, 1, 43, 76
1, 57623, Note_on_c, 0, 67, 0
1, 57624, Note_on_c, 0, 76, 80
1, 57647, Note_on_c, 0, 76, 0
1, 57648, Note_on_c, 0, 70, 81
1, 57648, Note_on_c, 1, 55, 0
1, 57648, Note_on_c, 1, 43, 0
1, 57648, Note_on_c, 1, 58, 76
1, 57671, Note_on_c, 0, 70, 0
1, 57672, Note_on_c, 0, 76, 81
1, 57693, Note_on_c, 1, 58, 0
1, 57695, Note_on_c, 0, 76, 0
1, 57696, Note_on_c, 0, 73, 81
1, 57696, Note_on_c, 1, 61, 76
1, 57719, Note_on_c, 0, 73, 0
1, 57720, Note_on_c, 0, 76, 81
1, 57741, Note_on_c, 1, 61, 0
1, 57743, Note_on_c, 0, 76, 0
1, 57744, Note_on_c, 0, 70, 81
1, 57744, Note_on_c, 1, 58, 77
1, 57767, Note_on_c, 0, 70, 0
1, 57768, Note_on_c, 0, 76, 81
1, 57789, Note_on_c, 1, 58, 0
1, 57791, Note_on_c, 0, 76, 0
1, 57792, Note_on_c, 0, 67, 81
1, 57792, Note_on_c, 1, 55, 77
1, 57815, Note_on_c, 0, 67, 0
1, 57816, Note_on_c, 0, 76, 81
1, 57839, Note_on_c, 0, 76, 0
1, 57840, Note_on_c, 0, 70, 81
1, 57863, Note_on_c, 0, 70, 0
1, 57864, Note_on_c, 0, 76, 81
1, 57881, Note_on_c, 1, 55, 0
1, 57887, Note_on_c, 0, 76, 0
1, 57888, Note_on_c, 0, 73, 81
1, 57911, Note_on_c, 0, 73, 0
1, 57912, Note_on_c, 0, 76, 81
1, 57935, Note_on_c, 0, 76, 0
1, 57936, Note_on_c, 0, 70, 81
1, 57959, Note_on_c, 0, 70, 0
1, 57960, Note_on_c, 0, 76, 81
1, 57983, Note_on_c, 0, 76, 0
1, 57984, Note_on_c, 0, 68, 81
1, 57984, Note_on_c, 1, 56, 74
1, 58007, Note_on_c, 0, 68, 0
1, 58008, Note_on_c, 0, 80, 82
1, 58031, Note_on_c, 0, 80, 0
1, 58032, Note_on_c, 0, 71, 82
1, 58032, Note_on_c, 1, 59, 78
1, 58055, Note_on_c, 0, 71, 0
1, 58056, Note_on_c, 0, 80, 82
1, 58077, Note_on_c, 1, 59, 0
1, 58079, Note_on_c, 0, 80, 0
1, 58080, Note_on_c, 0, 75, 82
1, 58080, Note_on_c, 1, 63, 79
1, 58103, Note_on_c, 0, 75, 0
1, 58104, Note_on_c, 0, 80, 82
1, 58125, Note_on_c, 1, 63, 0
1, 58127, Note_on_c, 0, 80, 0
1, 58128, Note_on_c, 0, 71, 82
1, 58128, Note_on_c, 1, 59, 79
1, 58151, Note_on_c, 0, 71, 0
1, 58152, Note_on_c, 0, 80, 82
1, 58161, Note_on_c, 1, 56, 0
1, 58173, Note_on_c, 1, 59, 0
1, 58175, Note_on_c, 0, 80, 0
1, 58176, Note_on_c, 0, 68, 82
1, 58176, Note_on_c, 1, 56, 75
1, 58199, Note_on_c, 0, 68, 0
1, 58200, Note_on_c, 0, 80, 82
1, 58223, Note_on_c, 0, 80, 0
1, 58224, Note_on_c, 0, 71, 82
1, 58224, Note_on_c, 1, 59, 79
1, 58247, Note_on_c, 0, 71, 0
1, 58248, Note_on_c, 0, 80, 82
1, 58269, Note_on_c, 1, 59, 0
1, 58271, Note_on_c, 0, 80, 0
1, 58272, Note_on_c, 0, 75, 82
1, 58272, Note_on_c, 1, 63, 80
1, 58295, Note_on_c, 0, 75, 0
1, 58296, Note_on_c, 0, 80, 82
1, 58317, Note_on_c, 1, 63, 0
1, 58319, Note_on_c, 0, 80, 0
1, 58320, Note_on_c, 0, 71, 82
1, 58320, Note_on_c, 1, 59, 80
1, 58343, Note_on_c, 0, 71, 0
1, 58344, Note_on_c, 0, 80, 82
1, 58353, Note_on_c, 1, 56, 0
1, 58365, Note_on_c, 1, 59, 0
1, 58367, Note_on_c, 0, 80, 0
1, 58368, Note_on_c, 0, 69, 82
1, 58368, Note_on_c, 1, 54, 77
1, 58391, Note_on_c, 0, 69, 0
1, 58392, Note_on_c, 0, 81, 83
1, 58415, Note_on_c, 0, 81, 0
1, 58416, Note_on_c, 0, 72, 83
1, 58416, Note_on_c, 1, 57, 80
1, 58439, Note_on_c, 0, 72, 0
1, 58440, Note_on_c, 0, 81, 83
1, 58461, Note_on_c, 1, 57, 0
1, 58463, Note_on_c, 0, 81, 0
1, 58464, Note_on_c, 0, 75, 83
1, 58464, Note_on_c, 1, 60, 81
1, 58487, Note_on_c, 0, 75, 0
1, 58488, Note_on_c, 0, 81, 83
1, 58509, Note_on_c, 1, 60, 0
1, 58511, Note_on_c, 0, 81, 0
1, 58512, Note_on_c, 0, 72, 83
1, 58512, Note_on_c, 1, 57, 81
1, 58535, Note_on_c, 0, 72, 0
1, 58536, Note_on_c, 0, 81, 83
1, 58545, Note_on_c, 1, 54, 0
1, 58557, Note_on_c, 1, 57, 0
1, 58559, Note_on_c, 0, 81, 0
1, 58560, Note_on_c, 0, 69, 83
1, 58560, Note_on_c, 1, 54, 79
1, 58583, Note_on_c, 0, 69, 0
1, 58584, Note_on_c, 0, 81, 83
1, 58607, Note_on_c, 0, 81, 0
1, 58608, Note_on_c, 0, 72, 83
1, 58608, Note_on_c, 1, 57, 82
1, 58631, Note_on_c, 0, 72, 0
1, 58632, Note_on_c, 0, 81, 83
1, 58653, Note_on_c, 1, 57, 0
1, 58655, Note_on_c, 0, 81, 0
1, 58656, Note_on_c, 0, 75, 83
1, 58656, Note_on_c, 1, 60, 82
1, 58679, Note_on_c, 0, 75, 0
1, 58680, Note_on_c, 0, 81, 83
1, 58701, Note_on_c, 1, 60, 0
1, 58703, Note_on_c, 0, 81, 0
1, 58704, Note_on_c, 0, 72, 83
1, 58704, Note_on_c, 1, 57, 82
1, 58727, Note_on_c, 0, 72, 0
1, 58728, Note_on_c, 0, 81, 83
1, 58737, Note_on_c, 1, 54, 0
1, 58749, Note_on_c, 1, 57, 0
1, 58751, Note_on_c, 0, 81, 0
1, 58752, Note_on_c, 0, 69, 83
1, 58752, Note_on_c, 1, 53, 81
1, 58775, Note_on_c, 0, 69, 0
1, 58776, Note_on_c, 0, 81, 84
1, 58799, Note_on_c, 0, 81, 0
1, 58800, Note_on_c, 0, 72, 84
1, 58800, Note_on_c, 1, 57, 83
1, 58823, Note_on_c, 0, 72, 0
1, 58824, Note_on_c, 0, 81, 84
1, 58845, Note_on_c, 1, 57, 0
1, 58847, Note_on_c, 0, 81, 0
1, 58848, Note_on_c, 0, 75, 84
1, 58848, Note_on_c, 1, 60, 83
1, 58871, Note_on_c, 0, 75, 0
1, 58872, Note_on_c, 0, 81, 84
1, 58893, Note_on_c, 1, 60, 0
1, 58895, Note_on_c, 0, 81, 0
1, 58896, Note_on_c, 0, 72, 84
1, 58896, Note_on_c, 1, 57, 83
1, 58919, Note_on_c, 0, 72, 0
1, 58920, Note_on_c, 0, 81, 84
1, 58929, Note_on_c, 1, 53, 0
1, 58941, Note_on_c, 1, 57, 0
1, 58943, Note_on_c, 0, 81, 0
1, 58944, Note_on_c, 0, 69, 84
1, 58944, Note_on_c, 1, 53, 83
1, 58967, Note_on_c, 0, 69, 0
1, 58968, Note_on_c, 0, 81, 84
1, 58991, Note_on_c, 0, 81, 0
1, 58992, Note_on_c, 0, 72, 84
1, 58992, Note_on_c, 1, 57, 84
1, 59015, Note_on_c, 0, 72, 0
1, 59016, Note_on_c, 0, 81, 84
1, 59037, Note_on_c, 1, 57, 0
1, 59039, Note_on_c, 0, 81, 0
1, 59040, Note_on_c, 0, 75, 84
1, 59040, Note_on_c, 1, 60, 84
1, 59063, Note_on_c, 0, 75, 0
1, 59064, Note_on_c, 0, 81, 84
1, 59085, Note_on_c, 1, 60, 0
1, 59087, Note_on_c, 0, 81, 0
1, 59088, Note_on_c, 0, 72, 84
1, 59088, Note_on_c, 1, 57, 84
1, 59111, Note_on_c, 0, 72, 0
1, 59112, Note_on_c, 0, 81, 84
1, 59121, Note_on_c, 1, 53, 0
1, 59133, Note_on_c, 1, 57, 0
1, 59135, Note_on_c, 0, 81, 0
1, 59136, Note_on_c, 0, 69, 85
1, 59136, Note_on_c, 1, 52, 85
1, 59159, Note_on_c, 0, 69, 0
1, 59160, Note_on_c, 0, 81, 85
1, 59183, Note_on_c, 0, 81, 0
1, 59184, Note_on_c, 0, 73, 85
1, 59184, Note_on_c, 1, 57, 85
1, 59207, Note_on_c, 0, 73, 0
1, 59208, Note_on_c, 0, 81, 85
1, 59229, Note_on_c, 1, 57, 0
1, 59231, Note_on_c, 0, 81, 0
1, 59232, Note_on_c, 0, 76, 85
1, 59232, Note_on_c, 1, 61, 85
1, 59255, Note_on_c, 0, 76, 0
1, 59256, Note_on_c, 0, 81, 85
1, 59277, Note_on_c, 1, 61, 0
1, 59279, Note_on_c, 0, 81, 0
1, 59280, Note_on_c, 0, 73, 85
1, 59280, Note_on_c, 1, 57, 85
1, 59303, Note_on_c, 0, 73, 0
1, 59304, Note_on_c, 0, 81, 85
1, 59313, Note_on_c, 1, 52, 0
1, 59325, Note_on_c, 1, 57, 0
1, 59327, Note_on_c, 0, 81, 0
1, 59328, Note_on_c, 0, 69, 85
1, 59328, Note_on_c, 1, 52, 85
1, 59351, Note_on_c, 0, 69, 0
1, 59352, Note_on_c, 0, 81, 85
1, 59375, Note_on_c, 0, 81, 0
1, 59376, Note_on_c, 0, 73, 85
1, 59376, Note_on_c, 1, 57, 85
1, 59399, Note_on_c, 0, 73, 0
1, 59400, Note_on_c, 0, 81, 85
1, 59421, Note_on_c, 1, 57, 0
1, 59423, Note_on_c, 0, 81, 0
1, 59424, Note_on_c, 0, 76, 85
1, 59424, Note_on_c, 1, 61, 85
1, 59447, Note_on_c, 0, 76, 0
1, 59448, Note_on_c, 0, 81, 85
1, 59469, Note_on_c, 1, 61, 0
1, 59471, Note_on_c, 0, 81, 0
1, 59472, Note_on_c, 0, 73, 85
1, 59472, Note_on_c, 1, 57, 85
1, 59495, Note_on_c, 0, 73, 0
1, 59496, Note_on_c, 0, 81, 85
1, 59505, Note_on_c, 1, 52, 0
1, 59517, Note_on_c, 1, 57, 0
1, 59519, Note_on_c, 0, 81, 0
1, 59520, Note_on_c, 0, 69, 85
1, 59520, Note_on_c, 1, 51, 85
1, 59543, Note_on_c, 0, 69, 0
1, 59544, Note_on_c, 0, 81, 85
1, 59567, Note_on_c, 0, 81, 0
1, 59568, Note_on_c, 0, 72, 85
1, 59568, Note_on_c, 1, 57, 85
1, 59591, Note_on_c, 0, 72, 0
1, 59592, Note_on_c, 0, 81, 85
1, 59613, Note_on_c, 1, 57, 0
1, 59615, Note_on_c, 0, 81, 0
1, 59616, Note_on_c, 0, 75, 85
1, 59616, Note_on_c, 1, 60, 85
1, 59639, Note_on_c, 0, 75, 0
1, 59640, Note_on_c, 0, 81, 85
1, 59661, Note_on_c, 1, 60, 0
1, 59663, Note_on_c, 0, 81, 0
1, 59664, Note_on_c, 0, 72, 85
1, 59664, Note_on_c, 1, 57, 85
1, 59687, Note_on_c, 0, 72, 0
1, 59688, Note_on_c, 0, 81, 85
1, 59697, Note_on_c, 1, 51, 0
1, 59709, Note_on_c, 1, 57, 0
1, 59711, Note_on_c, 0, 81, 0
1, 59712, Note_on_c, 0, 69, 85
1, 59712, Note_on_c, 1, 51, 85
1, 59735, Note_on_c, 0, 69, 0
1, 59736, Note_on_c, 0, 81, 85
1, 59759, Note_on_c, 0, 81, 0
1, 59760, Note_on_c, 0, 72, 85
1, 59760, Note_on_c, 1, 57, 85
1, 59783, Note_on_c, 0, 72, 0
1, 59784, Note_on_c, 0, 81, 85
1, 59805, Note_on_c, 1, 57, 0
1, 59807, Note_on_c, 0, 81, 0
1, 59808, Note_on_c, 0, 75, 85
1, 59808, Note_on_c, 1, 60, 85
1, 59831, Note_on_c, 0, 75, 0
1, 59832, Note_on_c, 0, 81, 85
1, 59853, Note_on_c, 1, 60, 0
1, 59855, Note_on_c, 0, 81, 0
1, 59856, Note_on_c, 0, 72, 85
1, 59856, Note_on_c, 1, 57, 85
1, 59879, Note_on_c, 0, 72, 0
1, 59880, Note_on_c, 0, 81, 85
1, 59889, Note_on_c, 1, 51, 0
1, 59901, Note_on_c, 1, 57, 0
1, 59903, Note_on_c, 0, 81, 0
1, 59904, Note_on_c, 0, 68, 85
1, 59904, Note_on_c, 1, 52, 85
1, 59927, Note_on_c, 0, 68, 0
1, 59928, Note_on_c, 0, 80, 84
1, 59951, Note_on_c, 0, 80, 0
1, 59952, Note_on_c, 0, 73, 84
1, 59952, Note_on_c, 1, 56, 69
1, 59975, Note_on_c, 0, 73, 0
1, 59976, Note_on_c, 0, 80, 84
1, 59997, Note_on_c, 1, 56, 0
1, 59999, Note_on_c, 0, 80, 0
1, 60000, Note_on_c, 0, 76, 84
1, 60000, Note_on_c, 1, 61, 69
1, 60023, Note_on_c, 0, 76, 0
1, 60024, Note_on_c, 0, 80, 83
1, 60045, Note_on_c, 1, 61, 0
1, 60047, Note_on_c, 0, 80, 0
1, 60048, Note_on_c, 0, 73, 83
1, 60048, Note_on_c, 1, 56, 68
1, 60071, Note_on_c, 0, 73, 0
1, 60072, Note_on_c, 0, 80, 83
1, 60081, Note_on_c, 1, 52, 0
1, 60093, Note_on_c, 1, 56, 0
1, 60095, Note_on_c, 0, 80, 0
1, 60096, Note_on_c, 0, 68, 83
1, 60096, Note_on_c, 1, 52, 85
1, 60119, Note_on_c, 0, 68, 0
1, 60120, Note_on_c, 0, 80, 83
1, 60143, Note_on_c, 0, 80, 0
1, 60144, Note_on_c, 0, 73, 82
1, 60144, Note_on_c, 1, 56, 67
1, 60167, Note_on_c, 0, 73, 0
1, 60168, Note_on_c, 0, 80, 82
1, 60189, Note_on_c, 1, 56, 0
1, 60191, Note_on_c, 0, 80, 0
1, 60192, Note_on_c, 0, 76, 82
1, 60192, Note_on_c, 1, 61, 67
1, 60215, Note_on_c, 0, 76, 0
1, 60216, Note_on_c, 0, 80, 82
1, 60237, Note_on_c, 1, 61, 0
1, 60239, Note_on_c, 0, 80, 0
1, 60240, Note_on_c, 0, 73, 81
1, 60240, Note_on_c, 1, 56, 66
1, 60263, Note_on_c, 0, 73, 0
1, 60264, Note_on_c, 0, 80, 81
1, 60273, Note_on_c, 1, 52, 0
1, 60285, Note_on_c, 1, 56, 0
1, 60287, Note_on_c, 0, 80, 0
1, 60288, Note_on_c, 0, 68, 81
1, 60288, Note_on_c, 1, 48, 85
1, 60311, Note_on_c, 0, 68, 0
1, 60312, Note_on_c, 0, 78, 81
1, 60335, Note_on_c, 0, 78, 0
1, 60336, Note_on_c, 0, 75, 81
1, 60336, Note_on_c, 1, 51, 66
1, 60359, Note_on_c, 0, 75, 0
1, 60360, Note_on_c, 0, 78, 80
1, 60381, Note_on_c, 1, 51, 0
1, 60383, Note_on_c, 0, 78, 0
1, 60384, Note_on_c, 0, 68, 80
1, 60384, Note_on_c, 1, 56, 65
1, 60407, Note_on_c, 0, 68, 0
1, 60408, Note_on_c, 0, 78, 80
1, 60429, Note_on_c, 1, 56, 0
1, 60431, Note_on_c, 0, 78, 0
1, 60432, Note_on_c, 0, 75, 80
1, 60432, Note_on_c, 1, 51, 65
1, 60455, Note_on_c, 0, 75, 0
1, 60456, Note_on_c, 0, 78, 79
1, 60465, Note_on_c, 1, 48, 0
1, 60477, Note_on_c, 1, 51, 0
1, 60479, Note_on_c, 0, 78, 0
1, 60480, Note_on_c, 0, 68, 79
1, 60480, Note_on_c, 1, 49, 85
1, 60503, Note_on_c, 0, 68, 0
1, 60504, Note_on_c, 0, 76, 79
1, 60527, Note_on_c, 0, 76, 0
1, 60528, Note_on_c, 0, 73, 79
1, 60528, Note_on_c, 1, 52, 64
1, 60551, Note_on_c, 0, 73, 0
1, 60552, Note_on_c, 0, 76, 79
1, 60573, Note_on_c, 1, 52, 0
1, 60575, Note_on_c, 0, 76, 0
1, 60576, Note_on_c, 0, 68, 78
1, 60576, Note_on_c, 1, 56, 63
1, 60599, Note_on_c, 0, 68, 0
1, 60600, Note_on_c, 0, 76, 78
1, 60621, Note_on_c, 1, 56, 0
1, 60623, Note_on_c, 0, 76, 0
1, 60624, Note_on_c, 0, 73, 78
1, 60624, Note_on_c, 1, 52, 63
1, 60647, Note_on_c, 0, 73, 0
1, 60648, Note_on_c, 0, 76, 78
1, 60657, Note_on_c, 1, 49, 0
1, 60669, Note_on_c, 1, 52, 0
1, 60671, Note_on_c, 0, 76, 0
1, 60672, Note_on_c, 0, 75, 78
1, 60672, Note_on_c, 1, 60, 63
1, 60672, Note_on_c, 1, 56, 63
1, 60695, Note_on_c, 0, 75, 0
1, 60696, Note_on_c, 0, 68, 78
1, 60717, Note_on_c, 1, 60, 0
1, 60717, Note_on_c, 1, 56, 0
1, 60719, Note_on_c, 0, 68, 0
1, 60720, Note_on_c, 0, 75, 77
1, 60720, Note_on_c, 1, 60, 63
1, 60720, Note_on_c, 1, 56, 63
1, 60743, Note_on_c, 0, 75, 0
1, 60744, Note_on_c, 0, 68, 77
1, 60765, Note_on_c, 1, 60, 0
1, 60765, Note_on_c, 1, 56, 0
1, 60767, Note_on_c, 0, 68, 0
1, 60768, Note_on_c, 0, 80, 77
1, 60768, Note_on_c, 1, 64, 62
1, 60768, Note_on_c, 1, 56, 62
1, 60791, Note_on_c, 0, 80, 0
1, 60792, Note_on_c, 0, 68, 76
1, 60813, Note_on_c, 1, 64, 0
1, 60813, Note_on_c, 1, 56, 0
1, 60815, Note_on_c, 0, 68, 0
1, 60816, Note_on_c, 0, 80, 76
1, 60816, Note_on_c, 1, 64, 61
1, 60816, Note_on_c, 1, 56, 61
1, 60839, Note_on_c, 0, 80, 0
1, 60840, Note_on_c, 0, 68, 76
1, 60861, Note_on_c, 1, 64, 0
1, 60861, Note_on_c, 1, 56, 0
1, 60863, Note_on_c, 0, 68, 0
1, 60864, Note_on_c, 0, 78, 76
1, 60864, Note_on_c, 1, 63, 61
1, 60864, Note_on_c, 1, 56, 61
1, 60887, Note_on_c, 0, 78, 0
1, 60888, Note_on_c, 0, 68, 75
1, 60909, Note_on_c, 1, 63, 0
1, 60909, Note_on_c, 1, 56, 0
1, 60911, Note_on_c, 0, 68, 0
1, 60912, Note_on_c, 0, 78, 75
1, 60912, Note_on_c, 1, 63, 60
1, 60912, Note_on_c, 1, 56, 60
1, 60935, Note_on_c, 0, 78, 0
1, 60936, Note_on_c, 0, 68, 75
1, 60957, Note_on_c, 1, 63, 0
1, 60957, Note_on_c, 1, 56, 0
1, 60959, Note_on_c, 0, 68, 0
1, 60960, Note_on_c, 0, 76, 75
1, 60960, Note_on_c, 1, 61, 60
1, 60960, Note_on_c, 1, 56, 60
1, 60983, Note_on_c, 0, 76, 0
1, 60984, Note_on_c, 0, 68, 74
1, 61005, Note_on_c, 1, 61, 0
1, 61005, Note_on_c, 1, 56, 0
1, 61007, Note_on_c, 0, 68, 0
1, 61008, Note_on_c, 0, 76, 74
1, 61008, Note_on_c, 1, 61, 59
1, 61008, Note_on_c, 1, 56, 59
1, 61031, Note_on_c, 0, 76, 0
1, 61032, Note_on_c, 0, 68, 74
1, 61053, Note_on_c, 1, 61, 0
1, 61053, Note_on_c, 1, 56, 0
1, 61055, Note_on_c, 0, 68, 0
1, 61056, Note_on_c, 0, 75, 74
1, 61056, Note_on_c, 1, 60, 59
1, 61056, Note_on_c, 1, 56, 59
1, 61079, Note_on_c, 0, 75, 0
1, 61080, Note_on_c, 0, 68, 73
1, 61101, Note_on_c, 1, 60, 0
1, 61101, Note_on_c, 1, 56, 0
1, 61103, Note_on_c, 0, 68, 0
1, 61104, Note_on_c, 0, 75, 73
1, 61104, Note_on_c, 1, 60, 58
1, 61104, Note_on_c, 1, 56, 58
1, 61127, Note_on_c, 0, 75, 0
1, 61128, Note_on_c, 0, 68, 73
1, 61149, Note_on_c, 1, 60, 0
1, 61149, Note_on_c, 1, 56, 0
1, 61151, Note_on_c, 0, 68, 0
1, 61152, Note_on_c, 0, 73, 73
1, 61152, Note_on_c, 1, 64, 58
1, 61152, Note_on_c, 1, 56, 58
1, 61175, Note_on_c, 0, 73, 0
1, 61176, Note_on_c, 0, 68, 72
1, 61197, Note_on_c, 1, 64, 0
1, 61197, Note_on_c, 1, 56, 0
1, 61199, Note_on_c, 0, 68, 0
1, 61200, Note_on_c, 0, 73, 72
1, 61200, Note_on_c, 1, 64, 57
1, 61200, Note_on_c, 1, 56, 57
1, 61223, Note_on_c, 0, 73, 0
1, 61224, Note_on_c, 0, 68, 72
1, 61245, Note_on_c, 1, 64, 0
1, 61245, Note_on_c, 1, 56, 0
1, 61247, Note_on_c, 0, 68, 0
1, 61248, Note_on_c, 0, 72, 72
1, 61248, Note_on_c, 1, 63, 57
1, 61248, Note_on_c, 1, 56, 57
1, 61271, Note_on_c, 0, 72, 0
1, 61272, Note_on_c, 0, 68, 71
1, 61293, Note_on_c, 1, 63, 0
1, 61293, Note_on_c, 1, 56, 0
1, 61295, Note_on_c, 0, 68, 0
1, 61296, Note_on_c, 0, 72, 71
1, 61296, Note_on_c, 1, 63, 56
1, 61296, Note_on_c, 1, 56, 56
1, 61319, Note_on_c, 0, 72, 0
1, 61320, Note_on_c, 0, 68, 71
1, 61341, Note_on_c, 1, 63, 0
1, 61341, Note_on_c, 1, 56, 0
1, 61343, Note_on_c, 0, 68, 0
1, 61344, Note_on_c, 0, 73, 71
1, 61344, Note_on_c, 1, 61, 56
1, 61344, Note_on_c, 1, 56, 56
1, 61367, Note_on_c, 0, 73, 0
1, 61368, Note_on_c, 0, 68, 70
1, 61389, Note_on_c, 1, 61, 0
1, 61389, Note_on_c, 1, 56, 0
1, 61391, Note_on_c, 0, 68, 0
1, 61392, Note_on_c, 0, 73, 70
1, 61392, Note_on_c, 1, 61, 55
1, 61392, Note_on_c, 1, 56, 55
1, 61415, Note_on_c, 0, 73, 0
1, 61416, Note_on_c, 0, 68, 70
1, 61437, Note_on_c, 1, 61, 0
1, 61437, Note_on_c, 1, 56, 0
1, 61439, Note_on_c, 0, 68, 0
1, 61440, Note_on_c, 0, 75, 70
1, 61440, Note_on_c, 1, 60, 63
1, 61440, Note_on_c, 1, 56, 63
1, 61529, Note_on_c, 0, 75, 0
1, 61529, Note_on_c, 1, 60, 0
1, 61529, Note_on_c, 1, 56, 0
1, 61536, Note_on_c, 0, 68, 70
1, 61536, Note_on_c, 0, 63, 70
1, 61536, Note_on_c, 0, 60, 70
1, 61536, Note_on_c, 1, 56, 63
1, 61536, Note_on_c, 1, 44, 63
1, 61603, Note_on_c, 0, 68, 0
1, 61603, Note_on_c, 0, 63, 0
1, 61603, Note_on_c, 0, 60, 0
1, 61603, Note_on_c, 1, 56, 0
1, 61603, Note_on_c, 1, 44, 0
1, 61608, Note_on_c, 0, 68, 70
1, 61608, Note_on_c, 0, 63, 70
1, 61608, Note_on_c, 0, 60, 70
1, 61608, Note_on_c, 1, 56, 63
1, 61608, Note_on_c, 1, 44, 63
1, 61631, Note_on_c, 0, 68, 0
1, 61631, Note_on_c, 0, 63, 0
1, 61631, Note_on_c, 0, 60, 0
1, 61631, Note_on_c, 1, 56, 0
1, 61631, Note_on_c, 1, 44, 0
1, 61632, Note_on_c, 0, 68, 70
1, 61632, Note_on_c, 0, 63, 70
1, 61632, Note_on_c, 0, 60, 70
1, 61632, Note_on_c, 1, 56, 63
1, 61632, Note_on_c, 1, 44, 63
1, 61721, Note_on_c, 0, 68, 0
1, 61721, Note_on_c, 0, 63, 0
1, 61721, Note_on_c, 0, 60, 0
1, 61721, Note_on_c, 1, 56, 0
1, 61721, Note_on_c, 1, 44, 0
1, 61824, Note_on_c, 0, 61, 85
1, 61824, Note_on_c, 1, 49, 85
1, 61824, Note_on_c, 1, 37, 85
1, 61869, Note_on_c, 0, 61, 0
1, 61869, Note_on_c, 1, 49, 0
1, 61869, Note_on_c, 1, 37, 0
1, 61872, Note_on_c, 0, 61, 85
1, 61872, Note_on_c, 1, 49, 85
1, 61884, Note_on_c, 0, 61, 0
1, 61884, Note_on_c, 0, 60, 85
1, 61884, Note_on_c, 1, 49, 0
1, 61884, Note_on_c, 1, 48, 85
1, 61896, Note_on_c, 0, 60, 0
1, 61896, Note_on_c, 0, 61, 85
1, 61896, Note_on_c, 1, 48, 0
1, 61896, Note_on_c, 1, 49, 85
1, 61908, Note_on_c, 0, 61, 0
1, 61908, Note_on_c, 0, 63, 85
1, 61908, Note_on_c, 1, 49, 0
1, 61908, Note_on_c, 1, 51, 85
1, 61920, Note_on_c, 0, 63, 0
1, 61920, Note_on_c, 0, 64, 85
1, 61920, Note_on_c, 1, 51, 0
1, 61920, Note_on_c, 1, 52, 85
1, 61940, Note_on_c, 0, 64, 0
1, 61940, Note_on_c, 1, 52, 0
1, 61968, Note_on_c, 0, 63, 85
1, 61968, Note_on_c, 1, 51, 85
1, 61988, Note_on_c, 0, 63, 0
1, 61988, Note_on_c, 1, 51, 0
1, 62016, Note_on_c, 0, 61, 85
1, 62016, Note_on_c, 1, 49, 85
1, 62036, Note_on_c, 0, 61, 0
1, 62036, Note_on_c, 1, 49, 0
1, 62064, Note_on_c, 0, 56, 85
1, 62064, Note_on_c, 1, 44, 85
1, 62084, Note_on_c, 0, 56, 0
1, 62084, Note_on_c, 1, 44, 0
1, 62112, Note_on_c, 0, 61, 85
1, 62112, Note_on_c, 1, 49, 85
1, 62132, Note_on_c, 0, 61, 0
1, 62132, Note_on_c, 1, 49, 0
1, 62160, Note_on_c, 0, 64, 85
1, 62160, Note_on_c, 1, 52, 85
1, 62180, Note_on_c, 0, 64, 0
1, 62180, Note_on_c, 1, 52, 0
1, 62208, Note_on_c, 0, 61, 85
1, 62208, Note_on_c, 1, 49, 85
1, 62208, Note_on_c, 1, 49, 85
1, 62253, Note_on_c, 0, 61, 0
1, 62256, Note_on_c, 0, 68, 70
1, 62297, Note_on_c, 1, 49, 0
1, 62297, Note_on_c, 1, 49, 0
1, 62301, Note_on_c, 0, 68, 0
1, 62304, Note_on_c, 0, 68, 70
1, 62349, Note_on_c, 0, 68, 0
1, 62352, Note_on_c, 0, 68, 70
1, 62397, Note_on_c, 0, 68, 0
1, 62400, Note_on_c, 0, 69, 70
1, 62406, Note_on_c, 0, 69, 0
1, 62406, Note_on_c, 0, 68, 70
1, 62412, Note_on_c, 0, 68, 0
1, 62412, Note_on_c, 0, 67, 70
1, 62418, Note_on_c, 0, 67, 0
1, 62418, Note_on_c, 0, 68, 70
1, 62448, Note_on_c, 1, 64, 63
1, 62448, Note_on_c, 1, 61, 63
1, 62489, Note_on_c, 0, 68, 0
1, 62493, Note_on_c, 1, 64, 0
1, 62493, Note_on_c, 1, 61, 0
1, 62496, Note_on_c, 1, 63, 63
1, 62496, Note_on_c, 1, 60, 63
1, 62541, Note_on_c, 1, 63, 0
1, 62541, Note_on_c, 1, 60, 0
1, 62544, Note_on_c, 1, 64, 63
1, 62544, Note_on_c, 1, 61, 63
1, 62589, Note_on_c, 1, 64, 0
1, 62589, Note_on_c, 1, 61, 0
1, 62592, Note_on_c, 1, 66, 63
1, 62592, Note_on_c, 1, 63, 63
1, 62631, Note_on_c, 1, 66, 0
1, 62631, Note_on_c, 1, 63, 0
1, 62640, Note_on_c, 0, 68, 70
1, 62685, Note_on_c, 0, 68, 0
1, 62688, Note_on_c, 0, 68, 70
1, 62733, Note_on_c, 0, 68, 0
1, 62736, Note_on_c, 0, 68, 70
1, 62781, Note_on_c, 0, 68, 0
1, 62784, Note_on_c, 0, 69, 70
1, 62790, Note_on_c, 0, 69, 0
1, 62790, Note_on_c, 0, 68, 70
1, 62796, Note_on_c, 0, 68, 0
1, 62796, Note_on_c, 0, 67, 70
1, 62802, Note_on_c, 0, 67, 0
1, 62802, Note_on_c, 0, 68, 70
1, 62832, Note_on_c, 1, 66, 63
1, 62832, Note_on_c, 1, 63, 63
1, 62873, Note_on_c, 0, 68, 0
1, 62877, Note_on_c, 1, 66, 0
1, 62877, Note_on_c, 1, 63, 0
1, 62880, Note_on_c, 1, 64, 63
1, 62880, Note_on_c, 1, 61, 63
1, 62925, Note_on_c, 1, 64, 0
1, 62925, Note_on_c, 1, 61, 0
1, 62928, Note_on_c, 1, 66, 63
1, 62928, Note_on_c, 1, 63, 63
1, 62973, Note_on_c, 1, 66, 0
1, 62973, Note_on_c, 1, 63, 0
1, 62976, Note_on_c, 1, 68, 63
1, 62976, Note_on_c, 1, 64, 63
1, 63015, Note_on_c, 1, 68, 0
1, 63015, Note_on_c, 1, 64, 0
1, 63024, Note_on_c, 0, 76, 70
1, 63024, Note_on_c, 0, 73, 70
1, 63069, Note_on_c, 0, 76, 0
1, 63069, Note_on_c, 0, 73, 0
1, 63072, Note_on_c, 0, 75, 70
1, 63072, Note_on_c, 0, 72, 70
1, 63117, Note_on_c, 0, 75, 0
1, 63117, Note_on_c, 0, 72, 0
1, 63120, Note_on_c, 0, 76, 70
1, 63120, Note_on_c, 0, 73, 70
1, 63165, Note_on_c, 0, 76, 0
1, 63165, Note_on_c, 0, 73, 0
1, 63168, Note_on_c, 0, 78, 70
1, 63168, Note_on_c, 0, 75, 70
1, 63207, Note_on_c, 0, 78, 0
1, 63207, Note_on_c, 0, 75, 0
1, 63216, Note_on_c, 1, 69, 63
1, 63216, Note_on_c, 1, 66, 63
1, 63261, Note_on_c, 1, 69, 0
1, 63261, Note_on_c, 1, 66, 0
1, 63264, Note_on_c, 1, 68, 63
1, 63264, Note_on_c, 1, 64, 63
1, 63309, Note_on_c, 1, 68, 0
1, 63309, Note_on_c, 1, 64, 0
1, 63312, Note_on_c, 1, 69, 63
1, 63312, Note_on_c, 1, 66, 63
1, 63357, Note_on_c, 1, 69, 0
1, 63357, Note_on_c, 1, 66, 0
1, 63360, Note_on_c, 1, 71, 63
1, 63360, Note_on_c, 1, 68, 63
1, 63399, Note_on_c, 1, 71, 0
1, 63399, Note_on_c, 1, 68, 0
1, 63408, Note_on_c, 0, 80, 70
1, 63408, Note_on_c, 0, 77, 70
1, 63453, Note_on_c, 0, 80, 0
1, 63453, Note_on_c, 0, 77, 0
1, 63456, Note_on_c, 0, 78, 70
1, 63456, Note_on_c, 0, 75, 70
1, 63501, Note_on_c, 0, 78, 0
1, 63501, Note_on_c, 0, 75, 0
1, 63504, Note_on_c, 0, 80, 70
1, 63504, Note_on_c, 0, 77, 70
1, 63549, Note_on_c, 0, 80, 0
1, 63549, Note_on_c, 0, 77, 0
1, 63552, Note_on_c, 0, 81, 70
1, 63552, Note_on_c, 0, 78, 70
1, 63591, Note_on_c, 0, 81, 0
1, 63591, Note_on_c, 0, 78, 0
1, 63600, Note_on_c, 1, 73, 63
1, 63600, Note_on_c, 1, 69, 63
1, 63645, Note_on_c, 1, 73, 0
1, 63645, Note_on_c, 1, 69, 0
1, 63648, Note_on_c, 1, 71, 63
1, 63648, Note_on_c, 1, 68, 63
1, 63693, Note_on_c, 1, 71, 0
1, 63693, Note_on_c, 1, 68, 0
1, 63696, Note_on_c, 1, 73, 63
1, 63696, Note_on_c, 1, 69, 63
1, 63741, Note_on_c, 1, 73, 0
1, 63741, Note_on_c, 1, 69, 0
1, 63744, Note_on_c, 1, 69, 63
1, 63744, Note_on_c, 1, 66, 63
1, 63783, Note_on_c, 1, 69, 0
1, 63783, Note_on_c, 1, 66, 0
1, 63792, Note_on_c, 0, 85, 70
1, 63792, Note_on_c, 0, 81, 70
1, 63837, Note_on_c, 0, 85, 0
1, 63837, Note_on_c, 0, 81, 0
1, 63840, Note_on_c, 0, 83, 70
1, 63840, Note_on_c, 0, 80, 70
1, 63885, Note_on_c, 0, 83, 0
1, 63885, Note_on_c, 0, 80, 0
1, 63888, Note_on_c, 0, 85, 70
1, 63888, Note_on_c, 0, 81, 70
1, 63933, Note_on_c, 0, 85, 0
1, 63933, Note_on_c, 0, 81, 0
1, 63936, Note_on_c, 0, 81, 70
1, 63936, Note_on_c, 0, 78, 70
1, 63956, Note_on_c, 0, 81, 0
1, 63956, Note_on_c, 0, 78, 0
1, 63984, Note_on_c, 0, 81, 70
1, 63984, Note_on_c, 1, 73, 63
1, 64029, Note_on_c, 0, 81, 0
1, 64029, Note_on_c, 1, 73, 0
1, 64032, Note_on_c, 0, 80, 70
1, 64032, Note_on_c, 1, 71, 63
1, 64077, Note_on_c, 0, 80, 0
1, 64077, Note_on_c, 1, 71, 0
1, 64080, Note_on_c, 0, 81, 70
1, 64080, Note_on_c, 1, 73, 63
1, 64125, Note_on_c, 0, 81, 0
1, 64125, Note_on_c, 1, 73, 0
1, 64128, Note_on_c, 0, 78, 70
1, 64128, Note_on_c, 1, 69, 63
1, 64148, Note_on_c, 0, 78, 0
1, 64148, Note_on_c, 1, 69, 0
1, 64176, Note_on_c, 0, 78, 70
1, 64176, Note_on_c, 1, 73, 63
1, 64176, Note_on_c, 1, 69, 63
1, 64221, Note_on_c, 0, 78, 0
1, 64221, Note_on_c, 1, 73, 0
1, 64221, Note_on_c, 1, 69, 0
1, 64224, Note_on_c, 0, 77, 70
1, 64224, Note_on_c, 1, 71, 63
1, 64224, Note_on_c, 1, 68, 63
1, 64269, Note_on_c, 0, 77, 0
1, 64269, Note_on_c, 1, 71, 0
1, 64269, Note_on_c, 1, 68, 0
1, 64272, Note_on_c, 0, 78, 70
1, 64272, Note_on_c, 1, 73, 63
1, 64272, Note_on_c, 1, 69, 63
1, 64317, Note_on_c, 0, 78, 0
1, 64317, Note_on_c, 1, 73, 0
1, 64317, Note_on_c, 1, 69, 0
1, 64320, Note_on_c, 0, 74, 70
1, 64320, Note_on_c, 1, 69, 63
1, 64320, Note_on_c, 1, 66, 63
1, 64340, Note_on_c, 0, 74, 0
1, 64359, Note_on_c, 1, 69, 0
1, 64359, Note_on_c, 1, 66, 0
1, 64368, Note_on_c, 0, 74, 70
1, 64413, Note_on_c, 0, 74, 0
1, 64416, Note_on_c, 0, 78, 71
1, 64416, Note_on_c, 1, 57, 63
1, 64416, Note_on_c, 1, 54, 63
1, 64461, Note_on_c, 0, 78, 0
1, 64464, Note_on_c, 0, 81, 73
1, 64505, Note_on_c, 1, 57, 0
1, 64505, Note_on_c, 1, 54, 0
1, 64509, Note_on_c, 0, 81, 0
1, 64512, Note_on_c, 0, 73, 74
1, 64512, Note_on_c, 1, 56, 85
1, 64560, Note_on_c, 1, 64, 63
1, 64605, Note_on_c, 1, 64, 0
1, 64608, Note_on_c, 1, 63, 63
1, 64631, Note_on_c, 0, 73, 0
1, 64632, Note_on_c, 0, 72, 76
1, 64653, Note_on_c, 1, 63, 0
1, 64655, Note_on_c, 0, 72, 0
1, 64656, Note_on_c, 0, 75, 74
1, 64656, Note_on_c, 1, 66, 63
1, 64679, Note_on_c, 0, 75, 0
1, 64680, Note_on_c, 0, 72, 72
1, 64689, Note_on_c, 1, 56, 0
1, 64701, Note_on_c, 1, 66, 0
1, 64703, Note_on_c, 0, 72, 0
1, 64704, Note_on_c, 0, 73, 70
1, 64704, Note_on_c, 1, 64, 63
1, 64704, Note_on_c, 1, 61, 63
1, 64793, Note_on_c, 0, 73, 0
1, 64793, Note_on_c, 1, 64, 0
1, 64793, Note_on_c, 1, 61, 0
1, 64848, Note_on_c, 0, 69, 85
1, 64848, Note_on_c, 1, 48, 85
1, 64848, Note_on_c, 1, 36, 85
1, 64860, Note_on_c, 0, 69, 0
1, 64860, Note_on_c, 0, 66, 85
1, 64893, Note_on_c, 1, 48, 0
1, 64893, Note_on_c, 1, 36, 0
1, 64894, Note_on_c, 0, 66, 0
1, 64896, Note_on_c, 0, 68, 85
1, 64896, Note_on_c, 1, 49, 85
1, 64896, Note_on_c, 1, 37, 85
1, 64908, Note_on_c, 0, 68, 0
1, 64908, Note_on_c, 0, 64, 85
1, 64942, Note_on_c, 0, 64, 0
1, 64944, Note_on_c, 0, 66, 85
1, 64956, Note_on_c, 0, 66, 0
1, 64956, Note_on_c, 0, 63, 85
1, 64985, Note_on_c, 1, 49, 0
1, 64985, Note_on_c, 1, 37, 0
1, 64990, Note_on_c, 0, 63, 0
1, 64992, Note_on_c, 0, 64, 85
1, 65004, Note_on_c, 0, 64, 0
1, 65004, Note_on_c, 0, 61, 85
1, 65038, Note_on_c, 0, 61, 0
1, 65040, Note_on_c, 0, 76, 85
1, 65040, Note_on_c, 1, 55, 85
1, 65040, Note_on_c, 1, 43, 85
1, 65052, Note_on_c, 0, 76, 0
1, 65052, Note_on_c, 0, 73, 85
1, 65085, Note_on_c, 1, 55, 0
1, 65085, Note_on_c, 1, 43, 0
1, 65086, Note_on_c, 0, 73, 0
1, 65088, Note_on_c, 0, 75, 85
1, 65088, Note_on_c, 1, 56, 85
1, 65088, Note_on_c, 1, 44, 85
1, 65100, Note_on_c, 0, 75, 0
1, 65100, Note_on_c, 0, 72, 85
1, 65134, Note_on_c, 0, 72, 0
1, 65136, Note_on_c, 0, 73, 85
1, 65148, Note_on_c, 0, 73, 0
1, 65148, Note_on_c, 0, 70, 85
1, 65177, Note_on_c, 1, 56, 0
1, 65177, Note_on_c, 1, 44, 0
1, 65182, Note_on_c, 0, 70, 0
1, 65184, Note_on_c, 0, 72, 85
1, 65196, Note_on_c, 0, 72, 0
1, 65196, Note_on_c, 0, 68, 85
1, 65230, Note_on_c, 0, 68, 0
1, 65232, Note_on_c, 0, 81, 85
1, 65232, Note_on_c, 1, 60, 85
1, 65232, Note_on_c, 1, 48, 85
1, 65244, Note_on_c, 0, 81, 0
1, 65244, Note_on_c, 0, 78, 85
1, 65277, Note_on_c, 1, 60, 0
1, 65277, Note_on_c, 1, 48, 0
1, 65278, Note_on_c, 0, 78, 0
1, 65280, Note_on_c, 0, 80, 85
1, 65280, Note_on_c, 1, 61, 85
1, 65280, Note_on_c, 1, 49, 85
1, 65292, Note_on_c, 0, 80, 0
1, 65292, Note_on_c, 0, 76, 83
1, 65326, Note_on_c, 0, 76, 0
1, 65328, Note_on_c, 0, 78, 80
1, 65340, Note_on_c, 0, 78, 0
1, 65340, Note_on_c, 0, 75, 79
1, 65369, Note_on_c, 1, 61, 0
1, 65369, Note_on_c, 1, 49, 0
1, 65374, Note_on_c, 0, 75, 0
1, 65376, Note_on_c, 0, 76, 75
1, 65388, Note_on_c, 0, 76, 0
1, 65388, Note_on_c, 0, 73, 74
1, 65422, Note_on_c, 0, 73, 0
1, 65424, Note_on_c, 0, 85, 71
1, 65424, Note_on_c, 1, 64, 63
1, 65436, Note_on_c, 0, 85, 0
1, 65436, Note_on_c, 0, 80, 70
1, 65469, Note_on_c, 1, 64, 0
1, 65470, Note_on_c, 0, 80, 0
1, 65472, Note_on_c, 0, 81, 70
1, 65472, Note_on_c, 1, 66, 63
1, 65484, Note_on_c, 0, 81, 0
1, 65484, Note_on_c, 0, 78, 70
1, 65517, Note_on_c, 1, 66, 0
1, 65518, Note_on_c, 0, 78, 0
1, 65520, Note_on_c, 0, 80, 70
1, 65520, Note_on_c, 1, 68, 63
1, 65532, Note_on_c, 0, 80, 0
1, 65532, Note_on_c, 0, 76, 70
1, 65565, Note_on_c, 1, 68, 0
1, 65566, Note_on_c, 0, 76, 0
1, 65568, Note_on_c, 0, 78, 70
1, 65568, Note_on_c, 1, 69, 63
1, 65580, Note_on_c, 0, 78, 0
1, 65580, Note_on_c, 0, 75, 70
1, 65613, Note_on_c, 1, 69, 0
1, 65614, Note_on_c, 0, 75, 0
1, 65616, Note_on_c, 0, 76, 70
1, 65616, Note_on_c, 1, 68, 63
1, 65628, Note_on_c, 0, 76, 0
1, 65628, Note_on_c, 0, 73, 70
1, 65661, Note_on_c, 1, 68, 0
1, 65662, Note_on_c, 0, 73, 0
1, 65664, Note_on_c, 0, 75, 70
1, 65664, Note_on_c, 1, 66, 63
1, 65676, Note_on_c, 0, 75, 0
1, 65676, Note_on_c, 0, 73, 70
1, 65709, Note_on_c, 1, 66, 0
1, 65710, Note_on_c, 0, 73, 0
1, 65712, Note_on_c, 0, 75, 72
1, 65712, Note_on_c, 1, 66, 66
1, 65724, Note_on_c, 0, 75, 0
1, 65724, Note_on_c, 0, 73, 72
1, 65757, Note_on_c, 1, 66, 0
1, 65758, Note_on_c, 0, 73, 0
1, 65760, Note_on_c, 0, 76, 74
1, 65760, Note_on_c, 1, 68, 70
1, 65772, Note_on_c, 0, 76, 0
1, 65772, Note_on_c, 0, 73, 74
1, 65805, Note_on_c, 1, 68, 0
1, 65806, Note_on_c, 0, 73, 0
1, 65808, Note_on_c, 0, 76, 76
1, 65808, Note_on_c, 1, 68, 74
1, 65820, Note_on_c, 0, 76, 0
1, 65820, Note_on_c, 0, 73, 76
1, 65853, Note_on_c, 1, 68, 0
1, 65854, Note_on_c, 0, 73, 0
1, 65856, Note_on_c, 0, 78, 78
1, 65856, Note_on_c, 1, 69, 78
1, 65868, Note_on_c, 0, 78, 0
1, 65868, Note_on_c, 0, 73, 77
1, 65901, Note_on_c, 1, 69, 0
1, 65902, Note_on_c, 0, 73, 0
1, 65904, Note_on_c, 0, 78, 76
1, 65904, Note_on_c, 1, 69, 74
1, 65916, Note_on_c, 0, 78, 0
1, 65916, Note_on_c, 0, 73, 75
1, 65949, Note_on_c, 1, 69, 0
1, 65950, Note_on_c, 0, 73, 0
1, 65952, Note_on_c, 0, 76, 74
1, 65952, Note_on_c, 1, 68, 70
1, 65964, Note_on_c, 0, 76, 0
1, 65964, Note_on_c, 0, 73, 73
1, 65997, Note_on_c, 1, 68, 0
1, 65998, Note_on_c, 0, 73, 0
1, 66000, Note_on_c, 0, 76, 72
1, 66000, Note_on_c, 1, 68, 66
1, 66012, Note_on_c, 0, 76, 0
1, 66012, Note_on_c, 0, 73, 71
1, 66045, Note_on_c, 1, 68, 0
1, 66046, Note_on_c, 0, 73, 0
1, 66048, Note_on_c, 0, 75, 70
1, 66048, Note_on_c, 1, 66, 63
1, 66060, Note_on_c, 0, 75, 0
1, 66060, Note_on_c, 0, 73, 70
1, 66093, Note_on_c, 1, 66, 0
1, 66094, Note_on_c, 0, 73, 0
1, 66096, Note_on_c, 0, 75, 72
1, 66096, Note_on_c, 1, 66, 63
1, 66108, Note_on_c, 0, 75, 0
1, 66108, Note_on_c, 0, 73, 73
1, 66141, Note_on_c, 1, 66, 0
1, 66142, Note_on_c, 0, 73, 0
1, 66144, Note_on_c, 0, 76, 74
1, 66144, Note_on_c, 1, 68, 64
1, 66156, Note_on_c, 0, 76, 0
1, 66156, Note_on_c, 0, 73, 75
1, 66189, Note_on_c, 1, 68, 0
1, 66190, Note_on_c, 0, 73, 0
1, 66192, Note_on_c, 0, 76, 77
1, 66192, Note_on_c, 1, 68, 65
1, 66204, Note_on_c, 0, 76, 0
1, 66204, Note_on_c, 0, 73, 78
1, 66237, Note_on_c, 1, 68, 0
1, 66238, Note_on_c, 0, 73, 0
1, 66240, Note_on_c, 0, 78, 76
1, 66240, Note_on_c, 1, 69, 66
1, 66252, Note_on_c, 0, 78, 0
1, 66252, Note_on_c, 0, 73, 76
1, 66285, Note_on_c, 1, 69, 0
1, 66286, Note_on_c, 0, 73, 0
1, 66288, Note_on_c, 0, 78, 75
1, 66288, Note_on_c, 1, 69, 67
1, 66300, Note_on_c, 0, 78, 0
1, 66300, Note_on_c, 0, 73, 74
1, 66333, Note_on_c, 1, 69, 0
1, 66334, Note_on_c, 0, 73, 0
1, 66336, Note_on_c, 0, 76, 73
1, 66336, Note_on_c, 1, 68, 68
1, 66348, Note_on_c, 0, 76, 0
1, 66348, Note_on_c, 0, 73, 72
1, 66381, Note_on_c, 1, 68, 0
1, 66382, Note_on_c, 0, 73, 0
1, 66384, Note_on_c, 0, 76, 71
1, 66384, Note_on_c, 1, 68, 69
1, 66396, Note_on_c, 0, 76, 0
1, 66396, Note_on_c, 0, 73, 71
1, 66429, Note_on_c, 1, 68, 0
1, 66430, Note_on_c, 0, 73, 0
1, 66432, Note_on_c, 0, 75, 70
1, 66432, Note_on_c, 1, 67, 70
1, 66444, Note_on_c, 0, 75, 0
1, 66444, Note_on_c, 0, 73, 70
1, 66477, Note_on_c, 1, 67, 0
1, 66478, Note_on_c, 0, 73, 0
1, 66480, Note_on_c, 0, 75, 71
1, 66480, Note_on_c, 1, 67, 71
1, 66492, Note_on_c, 0, 75, 0
1, 66492, Note_on_c, 0, 73, 72
1, 66525, Note_on_c, 1, 67, 0
1, 66526, Note_on_c, 0, 73, 0
1, 66528, Note_on_c, 0, 75, 73
1, 66528, Note_on_c, 1, 67, 72
1, 66540, Note_on_c, 0, 75, 0
1, 66540, Note_on_c, 0, 73, 73
1, 66573, Note_on_c, 1, 67, 0
1, 66574, Note_on_c, 0, 73, 0
1, 66576, Note_on_c, 0, 75, 74
1, 66576, Note_on_c, 1, 67, 74
1, 66588, Note_on_c, 0, 75, 0
1, 66588, Note_on_c, 0, 73, 75
1, 66621, Note_on_c, 1, 67, 0
1, 66622, Note_on_c, 0, 73, 0
1, 66624, Note_on_c, 0, 72, 76
1, 66624, Note_on_c, 1, 68, 75
1, 66669, Note_on_c, 0, 72, 0
1, 66672, Note_on_c, 0, 68, 70
1, 66713, Note_on_c, 1, 68, 0
1, 66717, Note_on_c, 0, 68, 0
1, 66720, Note_on_c, 0, 68, 70
1, 66765, Note_on_c, 0, 68, 0
1, 66768, Note_on_c, 0, 68, 70
1, 66813, Note_on_c, 0, 68, 0
1, 66816, Note_on_c, 0, 69, 70
1, 66822, Note_on_c, 0, 69, 0
1, 66822, Note_on_c, 0, 68, 70
1, 66828, Note_on_c, 0, 68, 0
1, 66828, Note_on_c, 0, 67, 70
1, 66834, Note_on_c, 0, 67, 0
1, 66834, Note_on_c, 0, 68, 70
1, 66864, Note_on_c, 1, 64, 63
1, 66864, Note_on_c, 1, 61, 63
1, 66905, Note_on_c, 0, 68, 0
1, 66909, Note_on_c, 1, 64, 0
1, 66909, Note_on_c, 1, 61, 0
1, 66912, Note_on_c, 1, 63, 63
1, 66912, Note_on_c, 1, 60, 63
1, 66957, Note_on_c, 1, 63, 0
1, 66957, Note_on_c, 1, 60, 0
1, 66960, Note_on_c, 1, 64, 63
1, 66960, Note_on_c, 1, 61, 63
1, 67005, Note_on_c, 1, 64, 0
1, 67005, Note_on_c, 1, 61, 0
1, 67008, Note_on_c, 1, 66, 63
1, 67008, Note_on_c, 1, 63, 63
1, 67047, Note_on_c, 1, 66, 0
1, 67047, Note_on_c, 1, 63, 0
1, 67056, Note_on_c, 0, 68, 70
1, 67101, Note_on_c, 0, 68, 0
1, 67104, Note_on_c, 0, 68, 70
1, 67149, Note_on_c, 0, 68, 0
1, 67152, Note_on_c, 0, 68, 70
1, 67197, Note_on_c, 0, 68, 0
1, 67200, Note_on_c, 0, 69, 70
1, 67206, Note_on_c, 0, 69, 0
1, 67206, Note_on_c, 0, 68, 70
1, 67212, Note_on_c, 0, 68, 0
1, 67212, Note_on_c, 0, 67, 70
1, 67218, Note_on_c, 0, 67, 0
1, 67218, Note_on_c, 0, 68, 70
1, 67248, Note_on_c, 1, 66, 63
1, 67248, Note_on_c, 1, 63, 63
1, 67289, Note_on_c, 0, 68, 0
1, 67293, Note_on_c, 1, 66, 0
1, 67293, Note_on_c, 1, 63, 0
1, 67296, Note_on_c, 1, 64, 63
1, 67296, Note_on_c, 1, 61, 63
1, 67341, Note_on_c, 1, 64, 0
1, 67341, Note_on_c, 1, 61, 0
1, 67344, Note_on_c, 1, 66, 63
1, 67344, Note_on_c, 1, 63, 63
1, 67389, Note_on_c, 1, 66, 0
1, 67389, Note_on_c, 1, 63, 0
1, 67392, Note_on_c, 1, 68, 63
1, 67392, Note_on_c, 1, 64, 63
1, 67431, Note_on_c, 1, 68, 0
1, 67431, Note_on_c, 1, 64, 0
1, 67440, Note_on_c, 0, 73, 70
1, 67485, Note_on_c, 0, 73, 0
1, 67488, Note_on_c, 0, 73, 70
1, 67533, Note_on_c, 0, 73, 0
1, 67536, Note_on_c, 0, 73, 70
1, 67581, Note_on_c, 0, 73, 0
1, 67584, Note_on_c, 0, 73, 63
1, 67629, Note_on_c, 0, 73, 0
1, 67632, Note_on_c, 0, 74, 63
1, 67632, Note_on_c, 0, 71, 63
1, 67632, Note_on_c, 1, 68, 63
1, 67632, Note_on_c, 1, 65, 63
1, 67652, Note_on_c, 0, 74, 0
1, 67652, Note_on_c, 0, 71, 0
1, 67652, Note_on_c, 1, 68, 0
1, 67652, Note_on_c, 1, 65, 0
1, 67680, Note_on_c, 0, 74, 63
1, 67680, Note_on_c, 0, 71, 63
1, 67680, Note_on_c, 1, 68, 63
1, 67680, Note_on_c, 1, 65, 63
1, 67700, Note_on_c, 0, 74, 0
1, 67700, Note_on_c, 0, 71, 0
1, 67700, Note_on_c, 1, 68, 0
1, 67700, Note_on_c, 1, 65, 0
1, 67728, Note_on_c, 0, 74, 63
1, 67728, Note_on_c, 0, 71, 63
1, 67728, Note_on_c, 1, 68, 63
1, 67728, Note_on_c, 1, 65, 63
1, 67748, Note_on_c, 0, 74, 0
1, 67748, Note_on_c, 0, 71, 0
1, 67748, Note_on_c, 1, 68, 0
1, 67748, Note_on_c, 1, 65, 0
1, 67776, Note_on_c, 0, 74, 79
1, 67776, Note_on_c, 0, 71, 79
1, 67776, Note_on_c, 1, 68, 63
1, 67776, Note_on_c, 1, 65, 63
1, 67872, Note_on_c, 0, 74, 0
1, 67872, Note_on_c, 0, 71, 0
1, 67872, Note_on_c, 0, 73, 63
1, 67872, Note_on_c, 0, 69, 63
1, 67872, Note_on_c, 1, 68, 0
1, 67872, Note_on_c, 1, 65, 0
1, 67872, Note_on_c, 1, 66, 63
1, 67892, Note_on_c, 0, 73, 0
1, 67892, Note_on_c, 0, 69, 0
1, 67917, Note_on_c, 1, 66, 0
1, 67920, Note_on_c, 0, 77, 63
1, 67920, Note_on_c, 0, 71, 63
1, 67920, Note_on_c, 1, 68, 63
1, 67920, Note_on_c, 1, 61, 63
1, 67940, Note_on_c, 0, 77, 0
1, 67940, Note_on_c, 0, 71, 0
1, 67940, Note_on_c, 1, 68, 0
1, 67940, Note_on_c, 1, 61, 0
1, 67968, Note_on_c, 0, 77, 63
1, 67968, Note_on_c, 0, 71, 63
1, 67968, Note_on_c, 1, 68, 63
1, 67968, Note_on_c, 1, 61, 63
1, 68064, Note_on_c, 0, 77, 0
1, 68064, Note_on_c, 0, 71, 0
1, 68064, Note_on_c, 0, 78, 63
1, 68064, Note_on_c, 0, 69, 63
1, 68064, Note_on_c, 1, 68, 0
1, 68064, Note_on_c, 1, 61, 0
1, 68064, Note_on_c, 1, 66, 63
1, 68084, Note_on_c, 0, 78, 0
1, 68084, Note_on_c, 0, 69, 0
1, 68084, Note_on_c, 1, 66, 0
1, 68112, Note_on_c, 0, 76, 63
1, 68112, Note_on_c, 0, 73, 63
1, 68112, Note_on_c, 1, 70, 63
1, 68112, Note_on_c, 1, 67, 63
1, 68132, Note_on_c, 0, 76, 0
1, 68132, Note_on_c, 0, 73, 0
1, 68132, Note_on_c, 1, 70, 0
1, 68132, Note_on_c, 1, 67, 0
1, 68160, Note_on_c, 0, 76, 63
1, 68160, Note_on_c, 0, 73, 63
1, 68160, Note_on_c, 1, 70, 63
1, 68160, Note_on_c, 1, 67, 63
1, 68256, Note_on_c, 0, 76, 0
1, 68256, Note_on_c, 0, 73, 0
1, 68256, Note_on_c, 0, 75, 63
1, 68256, Note_on_c, 0, 72, 63
1, 68256, Note_on_c, 1, 70, 0
1, 68256, Note_on_c, 1, 67, 0
1, 68256, Note_on_c, 1, 68, 63
1, 68276, Note_on_c, 0, 75, 0
1, 68276, Note_on_c, 0, 72, 0
1, 68276, Note_on_c, 1, 68, 0
1, 68304, Note_on_c, 0, 79, 63
1, 68304, Note_on_c, 0, 73, 63
1, 68304, Note_on_c, 1, 70, 63
1, 68304, Note_on_c, 1, 63, 63
1, 68324, Note_on_c, 0, 79, 0
1, 68324, Note_on_c, 0, 73, 0
1, 68324, Note_on_c, 1, 70, 0
1, 68324, Note_on_c, 1, 63, 0
1, 68352, Note_on_c, 0, 79, 63
1, 68352, Note_on_c, 0, 73, 63
1, 68352, Note_on_c, 1, 70, 63
1, 68352, Note_on_c, 1, 63, 63
1, 68448, Note_on_c, 0, 79, 0
1, 68448, Note_on_c, 0, 73, 0
1, 68448, Note_on_c, 0, 80, 63
1, 68448, Note_on_c, 0, 72, 63
1, 68448, Note_on_c, 1, 70, 0
1, 68448, Note_on_c, 1, 63, 0
1, 68448, Note_on_c, 1, 68, 63
1, 68468, Note_on_c, 0, 80, 0
1, 68468, Note_on_c, 0, 72, 0
1, 68468, Note_on_c, 1, 68, 0
1, 68496, Note_on_c, 0, 80, 63
1, 68496, Note_on_c, 0, 68, 63
1, 68496, Note_on_c, 1, 61, 63
1, 68496, Note_on_c, 1, 52, 63
1, 68516, Note_on_c, 0, 80, 0
1, 68516, Note_on_c, 0, 68, 0
1, 68516, Note_on_c, 1, 61, 0
1, 68516, Note_on_c, 1, 52, 0
1, 68544, Note_on_c, 0, 80, 79
1, 68544, Note_on_c, 0, 68, 79
1, 68544, Note_on_c, 1, 61, 63
1, 68544, Note_on_c, 1, 52, 63
1, 68640, Note_on_c, 0, 80, 0
1, 68640, Note_on_c, 0, 68, 0
1, 68640, Note_on_c, 0, 85, 63
1, 68640, Note_on_c, 0, 73, 63
1, 68677, Note_on_c, 1, 61, 0
1, 68677, Note_on_c, 1, 52, 0
1, 68685, Note_on_c, 0, 85, 0
1, 68685, Note_on_c, 0, 73, 0
1, 68688, Note_on_c, 0, 83, 63
1, 68688, Note_on_c, 0, 71, 63
1, 68688, Note_on_c, 1, 61, 63
1, 68688, Note_on_c, 1, 53, 63
1, 68708, Note_on_c, 0, 83, 0
1, 68708, Note_on_c, 0, 71, 0
1, 68733, Note_on_c, 1, 61, 0
1, 68733, Note_on_c, 1, 53, 0
1, 68736, Note_on_c, 0, 83, 79
1, 68736, Note_on_c, 0, 71, 79
1, 68736, Note_on_c, 1, 61, 63
1, 68736, Note_on_c, 1, 54, 63
1, 68781, Note_on_c, 1, 61, 0
1, 68781, Note_on_c, 1, 54, 0
1, 68784, Note_on_c, 0, 83, 0
1, 68784, Note_on_c, 0, 71, 0
1, 68784, Note_on_c, 0, 81, 63
1, 68784, Note_on_c, 0, 69, 63
1, 68807, Note_on_c, 0, 81, 0
1, 68807, Note_on_c, 0, 69, 0
1, 68832, Note_on_c, 0, 81, 63
1, 68832, Note_on_c, 0, 69, 63
1, 68832, Note_on_c, 1, 61, 63
1, 68832, Note_on_c, 1, 56, 63
1, 68877, Note_on_c, 1, 61, 0
1, 68877, Note_on_c, 1, 56, 0
1, 68880, Note_on_c, 0, 81, 0
1, 68880, Note_on_c, 0, 69, 0
1, 68880, Note_on_c, 0, 80, 63
1, 68880, Note_on_c, 0, 68, 63
1, 68903, Note_on_c, 0, 80, 0
1, 68903, Note_on_c, 0, 68, 0
1, 68928, Note_on_c, 0, 80, 63
1, 68928, Note_on_c, 0, 68, 63
1, 68928, Note_on_c, 1, 61, 63
1, 68928, Note_on_c, 1, 57, 63
1, 68973, Note_on_c, 1, 61, 0
1, 68973, Note_on_c, 1, 57, 0
1, 68976, Note_on_c, 0, 80, 0
1, 68976, Note_on_c, 0, 68, 0
1, 68976, Note_on_c, 0, 78, 63
1, 68976, Note_on_c, 0, 66, 63
1, 68999, Note_on_c, 0, 78, 0
1, 68999, Note_on_c, 0, 66, 0
1, 69072, Note_on_c, 0, 83, 78
1, 69072, Note_on_c, 0, 71, 78
1, 69072, Note_on_c, 1, 61, 78
1, 69072, Note_on_c, 1, 53, 78
1, 69092, Note_on_c, 0, 83, 0
1, 69092, Note_on_c, 0, 71, 0
1, 69117, Note_on_c, 1, 61, 0
1, 69117, Note_on_c, 1, 53, 0
1, 69120, Note_on_c, 0, 83, 92
1, 69120, Note_on_c, 0, 71, 92
1, 69120, Note_on_c, 1, 61, 76
1, 69120, Note_on_c, 1, 54, 76
1, 69165, Note_on_c, 1, 61, 0
1, 69165, Note_on_c, 1, 54, 0
1, 69168, Note_on_c, 0, 83, 0
1, 69168, Note_on_c, 0, 71, 0
1, 69168, Note_on_c, 0, 81, 74
1, 69168, Note_on_c, 0, 69, 74
1, 69191, Note_on_c, 0, 81, 0
1, 69191, Note_on_c, 0, 69, 0
1, 69216, Note_on_c, 0, 81, 73
1, 69216, Note_on_c, 0, 69, 73
1, 69216, Note_on_c, 1, 61, 73
1, 69216, Note_on_c, 1, 56, 73
1, 69261, Note_on_c, 1, 61, 0
1, 69261, Note_on_c, 1, 56, 0
1, 69264, Note_on_c, 0, 81, 0
1, 69264, Note_on_c, 0, 69, 0
1, 69264, Note_on_c, 0, 80, 71
1, 69264, Note_on_c, 0, 68, 71
1, 69287, Note_on_c, 0, 80, 0
1, 69287, Note_on_c, 0, 68, 0
1, 69312, Note_on_c, 0, 80, 69
1, 69312, Note_on_c, 0, 68, 69
1, 69312, Note_on_c, 1, 61, 69
1, 69312, Note_on_c, 1, 57, 69
1, 69357, Note_on_c, 1, 61, 0
1, 69357, Note_on_c, 1, 57, 0
1, 69360, Note_on_c, 0, 80, 0
1, 69360, Note_on_c, 0, 68, 0
1, 69360, Note_on_c, 0, 78, 68
1, 69360, Note_on_c, 0, 66, 68
1, 69383, Note_on_c, 0, 78, 0
1, 69383, Note_on_c, 0, 66, 0
1, 69456, Note_on_c, 0, 78, 64
1, 69476, Note_on_c, 0, 78, 0
1, 69504, Note_on_c, 0, 78, 79
1, 69552, Note_on_c, 0, 78, 0
1, 69552, Note_on_c, 0, 76, 63
1, 69575, Note_on_c, 0, 76, 0
1, 69600, Note_on_c, 0, 76, 63
1, 69648, Note_on_c, 0, 76, 0
1, 69648, Note_on_c, 0, 75, 63
1, 69671, Note_on_c, 0, 75, 0
1, 69696, Note_on_c, 0, 75, 63
1, 69696, Note_on_c, 1, 69, 63
1, 69696, Note_on_c, 1, 66, 63
1, 69719, Note_on_c, 0, 75, 0
1, 69720, Note_on_c, 0, 78, 63
1, 69743, Note_on_c, 0, 78, 0
1, 69744, Note_on_c, 0, 76, 63
1, 69767, Note_on_c, 0, 76, 0
1, 69768, Note_on_c, 0, 80, 63
1, 69791, Note_on_c, 0, 80, 0
1, 69792, Note_on_c, 0, 78, 63
1, 69815, Note_on_c, 0, 78, 0
1, 69816, Note_on_c, 0, 81, 63
1, 69839, Note_on_c, 0, 81, 0
1, 69840, Note_on_c, 0, 80, 63
1, 69863, Note_on_c, 0, 80, 0
1, 69864, Note_on_c, 0, 83, 63
1, 69887, Note_on_c, 0, 83, 0
1, 69888, Note_on_c, 0, 81, 79
1, 69999, Note_on_c, 0, 81, 0
1, 70000, Note_on_c, 0, 80, 63
1, 70015, Note_on_c, 0, 80, 0
1, 70016, Note_on_c, 0, 78, 63
1, 70031, Note_on_c, 0, 78, 0
1, 70032, Note_on_c, 0, 76, 63
1, 70047, Note_on_c, 0, 76, 0
1, 70048, Note_on_c, 0, 75, 63
1, 70063, Note_on_c, 0, 75, 0
1, 70064, Note_on_c, 0, 73, 63
1, 70079, Note_on_c, 0, 73, 0
1, 70080, Note_on_c, 0, 72, 63
1, 70242, Note_on_c, 1, 69, 0
1, 70242, Note_on_c, 1, 66, 0
1, 70257, Note_on_c, 0, 72, 0
1, 70368, Note_on_c, 0, 75, 85
1, 70391, Note_on_c, 0, 75, 0
1, 70392, Note_on_c, 0, 87, 85
1, 70415, Note_on_c, 0, 87, 0
1, 70416, Note_on_c, 0, 72, 85
1, 70439, Note_on_c, 0, 72, 0
1, 70440, Note_on_c, 0, 84, 87
1, 70463, Note_on_c, 0, 84, 0
1, 70464, Note_on_c, 0, 69, 89
1, 70487, Note_on_c, 0, 69, 0
1, 70488, Note_on_c, 0, 81, 91
1, 70511, Note_on_c, 0, 81, 0
1, 70512, Note_on_c, 0, 66, 93
1, 70535, Note_on_c, 0, 66, 0
1, 70536, Note_on_c, 0, 78, 95
1, 70559, Note_on_c, 0, 78, 0
1, 70560, Note_on_c, 0, 63, 97
1, 70583, Note_on_c, 0, 63, 0
1, 70584, Note_on_c, 0, 75, 99
1, 70607, Note_on_c, 0, 75, 0
1, 70608, Note_on_c, 0, 60, 101
1, 70631, Note_on_c, 0, 60, 0
1, 70632, Note_on_c, 0, 72, 103
1, 70655, Note_on_c, 0, 72, 0
1, 70656, Note_on_c, 0, 69, 106
1, 70656, Note_on_c, 0, 57, 106
1, 70656, Note_on_c, 1, 45, 106
1, 70656, Note_on_c, 1, 33, 106
1, 70833, Note_on_c, 0, 69, 0
1, 70833, Note_on_c, 0, 57, 0
1, 70833, Note_on_c, 1, 45, 0
1, 70833, Note_on_c, 1, 33, 0
1, 70848, Note_on_c, 0, 68, 106
1, 70848, Note_on_c, 0, 56, 106
1, 70848, Note_on_c, 1, 44, 106
1, 70848, Note_on_c, 1, 32, 106
1, 70937, Note_on_c, 0, 68, 0
1, 70937, Note_on_c, 0, 56, 0
1, 70937, Note_on_c, 1, 44, 0
1, 70937, Note_on_c, 1, 32, 0
1, 70944, Note_on_c, 0, 66, 93
1, 70944, Note_on_c, 0, 54, 93
1, 70944, Note_on_c, 1, 42, 92
1, 70944, Note_on_c, 1, 30, 92
1, 71033, Note_on_c, 0, 66, 0
1, 71033, Note_on_c, 0, 54, 0
1, 71033, Note_on_c, 1, 42, 0
1, 71033, Note_on_c, 1, 30, 0
1, 71040, Note_on_c, 0, 52, 81
1, 71040, Note_on_c, 1, 40, 78
1, 71063, Note_on_c, 0, 52, 0
1, 71064, Note_on_c, 0, 64, 78
1, 71087, Note_on_c, 0, 64, 0
1, 71088, Note_on_c, 0, 56, 78
1, 71111, Note_on_c, 0, 56, 0
1, 71112, Note_on_c, 0, 68, 78
1, 71129, Note_on_c, 1, 40, 0
1, 71135, Note_on_c, 0, 68, 0
1, 71136, Note_on_c, 0, 60, 78
1, 71159, Note_on_c, 0, 60, 0
1, 71160, Note_on_c, 0, 61, 78
1, 71183, Note_on_c, 0, 61, 0
1, 71184, Note_on_c, 0, 63, 78
1, 71207, Note_on_c, 0, 63, 0
1, 71208, Note_on_c, 0, 61, 78
1, 71231, Note_on_c, 0, 61, 0
1, 71232, Note_on_c, 0, 57, 78
1, 71232, Note_on_c, 1, 54, 78
1, 71232, Note_on_c, 1, 42, 78
1, 71255, Note_on_c, 0, 57, 0
1, 71256, Note_on_c, 0, 69, 78
1, 71279, Note_on_c, 0, 69, 0
1, 71280, Note_on_c, 0, 61, 78
1, 71303, Note_on_c, 0, 61, 0
1, 71304, Note_on_c, 0, 73, 78
1, 71321, Note_on_c, 1, 54, 0
1, 71321, Note_on_c, 1, 42, 0
1, 71327, Note_on_c, 0, 73, 0
1, 71328, Note_on_c, 0, 65, 78
1, 71351, Note_on_c, 0, 65, 0
1, 71352, Note_on_c, 0, 66, 78
1, 71375, Note_on_c, 0, 66, 0
1, 71376, Note_on_c, 0, 68, 78
1, 71399, Note_on_c, 0, 68, 0
1, 71400, Note_on_c, 0, 66, 78
1, 71423, Note_on_c, 0, 66, 0
1, 71424, Note_on_c, 0, 64, 78
1, 71424, Note_on_c, 1, 49, 78
1, 71424, Note_on_c, 1, 44, 85
1, 71513, Note_on_c, 0, 64, 0
1, 71513, Note_on_c, 1, 49, 0
1, 71520, Note_on_c, 0, 68, 78
1, 71520, Note_on_c, 1, 48, 78
1, 71543, Note_on_c, 0, 68, 0
1, 71544, Note_on_c, 0, 66, 78
1, 71567, Note_on_c, 0, 66, 0
1, 71568, Note_on_c, 0, 64, 78
1, 71591, Note_on_c, 0, 64, 0
1, 71592, Note_on_c, 0, 63, 78
1, 71601, Note_on_c, 1, 44, 0
1, 71609, Note_on_c, 1, 48, 0
1, 71615, Note_on_c, 0, 63, 0
1, 71616, Note_on_c, 0, 64, 78
1, 71616, Note_on_c, 1, 37, 78
1, 71639, Note_on_c, 0, 64, 0
1, 71640, Note_on_c, 0, 76, 78
1, 71661, Note_on_c, 1, 37, 0
1, 71663, Note_on_c, 0, 76, 0
1, 71664, Note_on_c, 0, 68, 78
1, 71664, Note_on_c, 1, 40, 78
1, 71687, Note_on_c, 0, 68, 0
1, 71688, Note_on_c, 0, 80, 78
1, 71709, Note_on_c, 1, 40, 0
1, 71711, Note_on_c, 0, 80, 0
1, 71712, Note_on_c, 0, 72, 78
1, 71736, Note_on_c, 0, 72, 0
1, 71736, Note_on_c, 0, 73, 78
1, 71759, Note_on_c, 0, 73, 0
1, 71760, Note_on_c, 0, 75, 78
1, 71783, Note_on_c, 0, 75, 0
1, 71784, Note_on_c, 0, 73, 78
1, 71807, Note_on_c, 0, 73, 0
1, 71808, Note_on_c, 0, 69, 78
1, 71808, Note_on_c, 1, 54, 78
1, 71808, Note_on_c, 1, 42, 78
1, 71831, Note_on_c, 0, 69, 0
1, 71832, Note_on_c, 0, 81, 78
1, 71853, Note_on_c, 1, 54, 0
1, 71853, Note_on_c, 1, 42, 0
1, 71855, Note_on_c, 0, 81, 0
1, 71856, Note_on_c, 0, 73, 78
1, 71856, Note_on_c, 1, 57, 78
1, 71856, Note_on_c, 1, 45, 78
1, 71879, Note_on_c, 0, 73, 0
1, 71880, Note_on_c, 0, 85, 78
1, 71901, Note_on_c, 1, 57, 0
1, 71901, Note_on_c, 1, 45, 0
1, 71903, Note_on_c, 0, 85, 0
1, 71904, Note_on_c, 0, 72, 78
1, 71904, Note_on_c, 1, 56, 78
1, 71904, Note_on_c, 1, 44, 78
1, 71927, Note_on_c, 0, 72, 0
1, 71928, Note_on_c, 0, 84, 78
1, 71949, Note_on_c, 1, 56, 0
1, 71949, Note_on_c, 1, 44, 0
1, 71951, Note_on_c, 0, 84, 0
1, 71952, Note_on_c, 0, 75, 78
1, 71952, Note_on_c, 1, 54, 78
1, 71952, Note_on_c, 1, 42, 78
1, 71975, Note_on_c, 0, 75, 0
1, 71976, Note_on_c, 0, 87, 78
1, 71997, Note_on_c, 1, 54, 0
1, 71997, Note_on_c, 1, 42, 0
1, 71999, Note_on_c, 0, 87, 0
1, 72000, Note_on_c, 0, 73, 78
1, 72000, Note_on_c, 1, 52, 78
1, 72000, Note_on_c, 1, 40, 78
1, 72023, Note_on_c, 0, 73, 0
1, 72024, Note_on_c, 0, 85, 78
1, 72047, Note_on_c, 0, 85, 0
1, 72048, Note_on_c, 0, 76, 79
1, 72071, Note_on_c, 0, 76, 0
1, 72072, Note_on_c, 0, 88, 80
1, 72089, Note_on_c, 1, 52, 0
1, 72089, Note_on_c, 1, 40, 0
1, 72095, Note_on_c, 0, 88, 0
1, 72096, Note_on_c, 0, 75, 81
1, 72119, Note_on_c, 0, 75, 0
1, 72120, Note_on_c, 0, 87, 82
1, 72143, Note_on_c, 0, 87, 0
1, 72144, Note_on_c, 0, 73, 83
1, 72167, Note_on_c, 0, 73, 0
1, 72168, Note_on_c, 0, 85, 84
1, 72191, Note_on_c, 0, 85, 0
1, 72192, Note_on_c, 0, 71, 85
1, 72215, Note_on_c, 0, 71, 0
1, 72216, Note_on_c, 0, 83, 84
1, 72239, Note_on_c, 0, 83, 0
1, 72240, Note_on_c, 0, 69, 83
1, 72263, Note_on_c, 0, 69, 0
1, 72264, Note_on_c, 0, 81, 82
1, 72287, Note_on_c, 0, 81, 0
1, 72288, Note_on_c, 0, 68, 81
1, 72311, Note_on_c, 0, 68, 0
1, 72312, Note_on_c, 0, 80, 80
1, 72335, Note_on_c, 0, 80, 0
1, 72336, Note_on_c, 0, 67, 79
1, 72336, Note_on_c, 1, 64, 70
1, 72336, Note_on_c, 1, 61, 70
1, 72359, Note_on_c, 0, 67, 0
1, 72360, Note_on_c, 0, 79, 78
1, 72383, Note_on_c, 0, 79, 0
1, 72384, Note_on_c, 0, 68, 78
1, 72384, Note_on_c, 1, 64, 0
1, 72384, Note_on_c, 1, 61, 0
1, 72384, Note_on_c, 1, 63, 70
1, 72384, Note_on_c, 1, 60, 70
1, 72404, Note_on_c, 1, 63, 0
1, 72404, Note_on_c, 1, 60, 0
1, 72407, Note_on_c, 0, 68, 0
1, 72408, Note_on_c, 0, 80, 78
1, 72431, Note_on_c, 0, 80, 0
1, 72432, Note_on_c, 0, 67, 78
1, 72432, Note_on_c, 1, 64, 70
1, 72432, Note_on_c, 1, 61, 70
1, 72455, Note_on_c, 0, 67, 0
1, 72456, Note_on_c, 0, 79, 78
1, 72479, Note_on_c, 0, 79, 0
1, 72480, Note_on_c, 0, 68, 78
1, 72480, Note_on_c, 1, 64, 0
1, 72480, Note_on_c, 1, 61, 0
1, 72480, Note_on_c, 1, 63, 70
1, 72480, Note_on_c, 1, 60, 70
1, 72500, Note_on_c, 1, 63, 0
1, 72500, Note_on_c, 1, 60, 0
1, 72503, Note_on_c, 0, 68, 0
1, 72504, Note_on_c, 0, 80, 78
1, 72527, Note_on_c, 0, 80, 0
1, 72528, Note_on_c, 0, 67, 78
1, 72528, Note_on_c, 1, 64, 70
1, 72528, Note_on_c, 1, 61, 70
1, 72551, Note_on_c, 0, 67, 0
1, 72552, Note_on_c, 0, 79, 78
1, 72575, Note_on_c, 0, 79, 0
1, 72576, Note_on_c, 0, 68, 78
1, 72576, Note_on_c, 1, 64, 0
1, 72576, Note_on_c, 1, 61, 0
1, 72576, Note_on_c, 1, 63, 70
1, 72576, Note_on_c, 1, 60, 70
1, 72596, Note_on_c, 1, 63, 0
1, 72596, Note_on_c, 1, 60, 0
1, 72599, Note_on_c, 0, 68, 0
1, 72600, Note_on_c, 0, 80, 78
1, 72623, Note_on_c, 0, 80, 0
1, 72720, Note_on_c, 0, 72, 78
1, 72732, Note_on_c, 0, 72, 0
1, 72732, Note_on_c, 0, 70, 78
1, 72744, Note_on_c, 0, 70, 0
1, 72744, Note_on_c, 0, 72, 78
1, 72756, Note_on_c, 0, 72, 0
1, 72756, Note_on_c, 0, 73, 78
1, 72768, Note_on_c, 0, 73, 0
1, 72768, Note_on_c, 0, 75, 78
1, 72768, Note_on_c, 1, 60, 78
1, 72768, Note_on_c, 1, 56, 78
1, 72768, Note_on_c, 1, 54, 78
1, 72788, Note_on_c, 0, 75, 0
1, 72813, Note_on_c, 1, 60, 0
1, 72813, Note_on_c, 1, 56, 0
1, 72813, Note_on_c, 1, 54, 0
1, 72816, Note_on_c, 0, 75, 78
1, 72828, Note_on_c, 0, 75, 0
1, 72828, Note_on_c, 0, 73, 78
1, 72840, Note_on_c, 0, 73, 0
1, 72840, Note_on_c, 0, 75, 78
1, 72852, Note_on_c, 0, 75, 0
1, 72852, Note_on_c, 0, 76, 78
1, 72864, Note_on_c, 0, 76, 0
1, 72864, Note_on_c, 0, 78, 78
1, 72864, Note_on_c, 1, 60, 78
1, 72864, Note_on_c, 1, 56, 78
1, 72864, Note_on_c, 1, 54, 78
1, 72884, Note_on_c, 0, 78, 0
1, 72909, Note_on_c, 1, 60, 0
1, 72909, Note_on_c, 1, 56, 0
1, 72909, Note_on_c, 1, 54, 0
1, 72912, Note_on_c, 0, 78, 78
1, 72924, Note_on_c, 0, 78, 0
1, 72924, Note_on_c, 0, 76, 78
1, 72936, Note_on_c, 0, 76, 0
1, 72936, Note_on_c, 0, 78, 78
1, 72948, Note_on_c, 0, 78, 0
1, 72948, Note_on_c, 0, 80, 78
1, 72960, Note_on_c, 0, 80, 0
1, 72960, Note_on_c, 0, 81, 78
1, 72960, Note_on_c, 1, 60, 78
1, 72960, Note_on_c, 1, 56, 78
1, 72960, Note_on_c, 1, 54, 78
1, 72980, Note_on_c, 0, 81, 0
1, 73005, Note_on_c, 1, 60, 0
1, 73005, Note_on_c, 1, 56, 0
1, 73005, Note_on_c, 1, 54, 0
1, 73008, Note_on_c, 0, 75, 78
1, 73028, Note_on_c, 0, 75, 0
1, 73056, Note_on_c, 0, 78, 78
1, 73076, Note_on_c, 0, 78, 0
1, 73104, Note_on_c, 0, 72, 78
1, 73124, Note_on_c, 0, 72, 0
1, 73152, Note_on_c, 0, 68, 101
1, 73152, Note_on_c, 0, 73, 101
1, 73152, Note_on_c, 0, 76, 101
1, 73152, Note_on_c, 0, 80, 101
1, 73152, Note_on_c, 1, 52, 85
1, 73152, Note_on_c, 1, 56, 85
1, 73152, Note_on_c, 1, 61, 85
1, 73197, Note_on_c, 1, 61, 0
1, 73197, Note_on_c, 1, 56, 0
1, 73197, Note_on_c, 1, 52, 0
1, 73200, Note_on_c, 0, 80, 0
1, 73200, Note_on_c, 0, 76, 0
1, 73200, Note_on_c, 0, 73, 0
1, 73200, Note_on_c, 0, 68, 0
1, 73248, Note_on_c, 0, 69, 85
1, 73248, Note_on_c, 1, 54, 85
1, 73256, Note_on_c, 0, 75, 85
1, 73256, Note_on_c, 1, 57, 85
1, 73264, Note_on_c, 0, 78, 85
1, 73264, Note_on_c, 1, 63, 85
1, 73293, Note_on_c, 0, 78, 0
1, 73293, Note_on_c, 0, 75, 0
1, 73293, Note_on_c, 0, 69, 0
1, 73293, Note_on_c, 1, 63, 0
1, 73293, Note_on_c, 1, 57, 0
1, 73293, Note_on_c, 1, 54, 0
1, 73344, Note_on_c, 0, 68, 85
1, 73344, Note_on_c, 1, 56, 85
1, 73352, Note_on_c, 0, 73, 85
1, 73352, Note_on_c, 1, 61, 85
1, 73360, Note_on_c, 0, 76, 85
1, 73360, Note_on_c, 1, 64, 85
1, 73389, Note_on_c, 0, 76, 0
1, 73389, Note_on_c, 0, 73, 0
1, 73389, Note_on_c, 0, 68, 0
1, 73389, Note_on_c, 1, 64, 0
1, 73389, Note_on_c, 1, 61, 0
1, 73389, Note_on_c, 1, 56, 0
1, 73488, Note_on_c, 0, 75, 78
1, 73488, Note_on_c, 1, 66, 78
1, 73488, Note_on_c, 1, 56, 78
1, 73524, Note_on_c, 0, 75, 0
1, 73524, Note_on_c, 0, 72, 78
1, 73536, Note_on_c, 0, 72, 0
1, 73536, Note_on_c, 0, 73, 78
1, 73536, Note_on_c, 1, 66, 0
1, 73536, Note_on_c, 1, 56, 0
1, 73536, Note_on_c, 1, 64, 78
1, 73536, Note_on_c, 1, 61, 78
1, 73556, Note_on_c, 0, 73, 0
1, 73575, Note_on_c, 1, 64, 0
1, 73575, Note_on_c, 1, 61, 0
1, 73584, Note_on_c, 0, 80, 78
1, 73584, Note_on_c, 0, 76, 78
1, 73632, Note_on_c, 0, 80, 0
1, 73632, Note_on_c, 0, 73, 78
1, 73677, Note_on_c, 0, 76, 0
1, 73677, Note_on_c, 0, 73, 0
1, 73680, Note_on_c, 0, 72, 78
1, 73680, Note_on_c, 1, 66, 78
1, 73680, Note_on_c, 1, 56, 78
1, 73714, Note_on_c, 0, 72, 0
1, 73716, Note_on_c, 0, 68, 78
1, 73728, Note_on_c, 0, 68, 0
1, 73728, Note_on_c, 0, 73, 78
1, 73728, Note_on_c, 1, 66, 0
1, 73728, Note_on_c, 1, 56, 0
1, 73728, Note_on_c, 1, 64, 78
1, 73728, Note_on_c, 1, 61, 78
1, 73748, Note_on_c, 0, 73, 0
1, 73767, Note_on_c, 1, 64, 0
1, 73767, Note_on_c, 1, 61, 0
1, 73776, Note_on_c, 0, 75, 78
1, 73776, Note_on_c, 0, 72, 78
1, 73824, Note_on_c, 0, 75, 0
1, 73824, Note_on_c, 0, 72, 0
1, 73824, Note_on_c, 0, 76, 78
1, 73824, Note_on_c, 0, 73, 78
1, 73869, Note_on_c, 0, 76, 0
1, 73869, Note_on_c, 0, 73, 0
1, 73872, Note_on_c, 0, 75, 78
1, 73872, Note_on_c, 1, 66, 78
1, 73872, Note_on_c, 1, 56, 78
1, 73906, Note_on_c, 0, 75, 0
1, 73908, Note_on_c, 0, 72, 78
1, 73920, Note_on_c, 0, 72, 0
1, 73920, Note_on_c, 0, 73, 70
1, 73920, Note_on_c, 1, 66, 0
1, 73920, Note_on_c, 1, 56, 0
1, 73920, Note_on_c, 1, 64, 70
1, 73920, Note_on_c, 1, 61, 70
1, 73940, Note_on_c, 0, 73, 0
1, 73959, Note_on_c, 1, 64, 0
1, 73959, Note_on_c, 1, 61, 0
1, 73968, Note_on_c, 0, 80, 70
1, 73968, Note_on_c, 0, 76, 70
1, 74016, Note_on_c, 0, 80, 0
1, 74016, Note_on_c, 0, 73, 70
1, 74061, Note_on_c, 0, 76, 0
1, 74061, Note_on_c, 0, 73, 0
1, 74064, Note_on_c, 0, 72, 70
1, 74064, Note_on_c, 1, 66, 70
1, 74064, Note_on_c, 1, 56, 70
1, 74098, Note_on_c, 0, 72, 0
1, 74100, Note_on_c, 0, 68, 70
1, 74112, Note_on_c, 0, 68, 0
1, 74112, Note_on_c, 0, 73, 70
1, 74112, Note_on_c, 1, 66, 0
1, 74112, Note_on_c, 1, 56, 0
1, 74112, Note_on_c, 1, 64, 70
1, 74112, Note_on_c, 1, 61, 70
1, 74132, Note_on_c, 0, 73, 0
1, 74132, Note_on_c, 1, 64, 0
1, 74132, Note_on_c, 1, 61, 0
1, 74208, Note_on_c, 0, 84, 63
1, 74208, Note_on_c, 0, 75, 63
1, 74208, Note_on_c, 1, 56, 63
1, 74228, Note_on_c, 0, 84, 0
1, 74228, Note_on_c, 0, 75, 0
1, 74228, Note_on_c, 1, 56, 0
1, 74304, Note_on_c, 0, 85, 63
1, 74304, Note_on_c, 0, 76, 63
1, 74304, Note_on_c, 1, 49, 63
1, 74343, Note_on_c, 0, 85, 0
1, 74343, Note_on_c, 0, 76, 0
1, 74343, Note_on_c, 1, 49, 0
1, 74496, Note_on_c, 1, 49, 4
1, 74585, Note_on_c, 1, 49, 0
1, 74595, End_track
0, 0, End_of_file