0, 0, Header, 0, 1, 480
1, 0, Start_track
1, 0, Tempo, 384615
1, 2640, Note_on_c, 0, 72, 74
1, 2878, Note_on_c, 0, 72, 0
1, 2880, Note_on_c, 0, 65, 74
1, 2880, Note_on_c, 1, 53, 66
1, 2880, Note_on_c, 1, 57, 62
1, 3118, Note_on_c, 0, 65, 0
1, 3118, Note_on_c, 1, 53, 0
1, 3118, Note_on_c, 1, 57, 0
1, 3120, Note_on_c, 0, 69, 72
1, 3238, Note_on_c, 0, 69, 0
1, 3360, Note_on_c, 0, 62, 76
1, 3360, Note_on_c, 1, 58, 50
1, 3360, Note_on_c, 1, 46, 38
1, 3478, Note_on_c, 0, 62, 0
1, 3598, Note_on_c, 1, 58, 0
1, 3598, Note_on_c, 1, 46, 0
1, 3600, Note_on_c, 0, 74, 73
1, 3718, Note_on_c, 0, 74, 0
1, 3840, Note_on_c, 0, 65, 73
1, 3840, Note_on_c, 1, 57, 56
1, 3840, Note_on_c, 1, 48, 62
1, 4318, Note_on_c, 0, 65, 0
1, 4318, Note_on_c, 1, 57, 0
1, 4320, Note_on_c, 0, 64, 68
1, 4320, Note_on_c, 1, 55, 61
1, 4438, Note_on_c, 0, 64, 0
1, 4558, Note_on_c, 1, 48, 0
1, 4558, Note_on_c, 1, 55, 0
1, 4560, Note_on_c, 0, 70, 83
1, 4678, Note_on_c, 0, 70, 0
1, 4800, Note_on_c, 0, 67, 94
1, 5038, Note_on_c, 0, 67, 0
1, 5040, Note_on_c, 0, 76, 78
1, 5158, Note_on_c, 0, 76, 0
1, 5280, Note_on_c, 0, 70, 81
1, 5280, Note_on_c, 1, 60, 56
1, 5280, Note_on_c, 1, 64, 57
1, 5518, Note_on_c, 0, 70, 0
1, 5518, Note_on_c, 1, 60, 0
1, 5518, Note_on_c, 1, 64, 0
1, 5520, Note_on_c, 0, 79, 86
1, 5638, Note_on_c, 0, 79, 0
1, 5760, Note_on_c, 0, 70, 72
1, 5760, Note_on_c, 1, 65, 68
1, 5998, Note_on_c, 1, 65, 0
1, 6000, Note_on_c, 1, 53, 65
1, 6238, Note_on_c, 0, 70, 0
1, 6238, Note_on_c, 1, 53, 0
1, 6240, Note_on_c, 0, 69, 74
1, 6358, Note_on_c, 0, 69, 0
1, 6480, Note_on_c, 0, 72, 89
1, 6598, Note_on_c, 0, 72, 0
1, 6720, Note_on_c, 0, 63, 74
1, 6958, Note_on_c, 0, 63, 0
1, 6960, Note_on_c, 0, 75, 78
1, 7078, Note_on_c, 0, 75, 0
1, 7200, Note_on_c, 0, 65, 74
1, 7200, Note_on_c, 1, 57, 58
1, 7438, Note_on_c, 0, 65, 0
1, 7438, Note_on_c, 1, 57, 0
1, 7440, Note_on_c, 0, 72, 77
1, 7558, Note_on_c, 0, 72, 0
1, 7680, Note_on_c, 0, 73, 83
1, 7680, Note_on_c, 1, 58, 58
1, 7918, Note_on_c, 1, 58, 0
1, 7920, Note_on_c, 1, 46, 53
1, 8158, Note_on_c, 0, 73, 0
1, 8158, Note_on_c, 1, 46, 0
1, 8160, Note_on_c, 0, 74, 78
1, 8278, Note_on_c, 0, 74, 0
1, 8400, Note_on_c, 0, 67, 74
1, 8400, Note_on_c, 1, 58, 57
1, 8400, Note_on_c, 1, 62, 57
1, 8518, Note_on_c, 0, 67, 0
1, 8638, Note_on_c, 1, 58, 0
1, 8638, Note_on_c, 1, 62, 0
1, 8640, Note_on_c, 0, 69, 76
1, 8640, Note_on_c, 1, 57, 42
1, 8640, Note_on_c, 1, 60, 67
1, 8878, Note_on_c, 0, 69, 0
1, 8878, Note_on_c, 1, 57, 0
1, 8878, Note_on_c, 1, 60, 0
1, 8880, Note_on_c, 0, 70, 65
1, 8880, Note_on_c, 1, 58, 63
1, 8880, Note_on_c, 1, 55, 63
1, 8998, Note_on_c, 0, 70, 0
1, 9118, Note_on_c, 1, 58, 0
1, 9118, Note_on_c, 1, 55, 0
1, 9120, Note_on_c, 0, 64, 77
1, 9120, Note_on_c, 1, 60, 66
1, 9238, Note_on_c, 0, 64, 0
1, 9358, Note_on_c, 1, 60, 0
1, 9360, Note_on_c, 0, 67, 74
1, 9360, Note_on_c, 1, 48, 68
1, 9478, Note_on_c, 0, 67, 0
1, 9598, Note_on_c, 1, 48, 0
1, 9600, Note_on_c, 0, 65, 83
1, 9600, Note_on_c, 1, 53, 65
1, 9838, Note_on_c, 1, 53, 0
1, 9840, Note_on_c, 1, 41, 58
1, 10078, Note_on_c, 0, 65, 0
1, 10078, Note_on_c, 1, 41, 0
1, 10320, Note_on_c, 0, 84, 78
1, 10438, Note_on_c, 0, 84, 0
1, 10560, Note_on_c, 0, 77, 81
1, 10798, Note_on_c, 0, 77, 0
1, 10800, Note_on_c, 0, 81, 81
1, 10918, Note_on_c, 0, 81, 0
1, 11040, Note_on_c, 0, 72, 73
1, 11158, Note_on_c, 0, 72, 0
1, 11280, Note_on_c, 0, 77, 78
1, 11280, Note_on_c, 1, 72, 65
1, 11280, Note_on_c, 1, 69, 61
1, 11398, Note_on_c, 0, 77, 0
1, 11518, Note_on_c, 1, 72, 0
1, 11518, Note_on_c, 1, 69, 0
1, 11520, Note_on_c, 0, 76, 70
1, 11520, Note_on_c, 1, 70, 65
1, 11520, Note_on_c, 1, 67, 68
1, 11758, Note_on_c, 0, 76, 0
1, 11758, Note_on_c, 1, 70, 0
1, 11758, Note_on_c, 1, 67, 0
1, 11760, Note_on_c, 0, 77, 71
1, 11760, Note_on_c, 1, 69, 68
1, 11760, Note_on_c, 1, 65, 72
1, 11998, Note_on_c, 0, 77, 0
1, 11998, Note_on_c, 1, 69, 0
1, 11998, Note_on_c, 1, 65, 0
1, 12000, Note_on_c, 0, 79, 72
1, 12000, Note_on_c, 1, 67, 73
1, 12000, Note_on_c, 1, 64, 74
1, 12118, Note_on_c, 0, 79, 0
1, 12238, Note_on_c, 1, 67, 0
1, 12238, Note_on_c, 1, 64, 0
1, 12240, Note_on_c, 0, 84, 74
1, 12358, Note_on_c, 0, 84, 0
1, 12480, Note_on_c, 0, 79, 74
1, 12718, Note_on_c, 0, 79, 0
1, 12720, Note_on_c, 0, 82, 74
1, 12958, Note_on_c, 0, 82, 0
1, 12960, Note_on_c, 0, 72, 72
1, 13198, Note_on_c, 0, 72, 0
1, 13200, Note_on_c, 0, 76, 74
1, 13200, Note_on_c, 1, 70, 31
1, 13200, Note_on_c, 1, 72, 42
1, 13318, Note_on_c, 0, 76, 0
1, 13438, Note_on_c, 1, 70, 0
1, 13438, Note_on_c, 1, 72, 0
1, 13440, Note_on_c, 0, 77, 71
1, 13440, Note_on_c, 1, 69, 60
1, 13440, Note_on_c, 1, 72, 60
1, 13678, Note_on_c, 0, 77, 0
1, 13678, Note_on_c, 1, 69, 0
1, 13678, Note_on_c, 1, 72, 0
1, 13680, Note_on_c, 0, 79, 76
1, 13680, Note_on_c, 1, 67, 66
1, 13680, Note_on_c, 1, 70, 55
1, 13918, Note_on_c, 0, 79, 0
1, 13918, Note_on_c, 1, 67, 0
1, 13918, Note_on_c, 1, 70, 0
1, 13920, Note_on_c, 0, 81, 79
1, 13920, Note_on_c, 1, 69, 38
1, 13920, Note_on_c, 1, 65, 51
1, 14038, Note_on_c, 0, 81, 0
1, 14158, Note_on_c, 1, 69, 0
1, 14158, Note_on_c, 1, 65, 0
1, 14160, Note_on_c, 0, 84, 74
1, 14278, Note_on_c, 0, 84, 0
1, 14400, Note_on_c, 0, 77, 72
1, 14638, Note_on_c, 0, 77, 0
1, 14640, Note_on_c, 0, 84, 81
1, 14640, Note_on_c, 1, 69, 57
1, 14640, Note_on_c, 1, 65, 55
1, 14758, Note_on_c, 0, 84, 0
1, 14878, Note_on_c, 1, 69, 0
1, 14878, Note_on_c, 1, 65, 0
1, 14880, Note_on_c, 0, 77, 76
1, 14880, Note_on_c, 1, 70, 60
1, 14880, Note_on_c, 1, 67, 53
1, 15118, Note_on_c, 0, 77, 0
1, 15118, Note_on_c, 1, 70, 0
1, 15118, Note_on_c, 1, 67, 0
1, 15120, Note_on_c, 0, 75, 71
1, 15120, Note_on_c, 1, 72, 53
1, 15120, Note_on_c, 1, 69, 55
1, 15358, Note_on_c, 1, 72, 0
1, 15358, Note_on_c, 1, 69, 0
1, 15360, Note_on_c, 1, 70, 52
1, 15598, Note_on_c, 0, 75, 0
1, 15600, Note_on_c, 0, 73, 72
1, 15838, Note_on_c, 0, 73, 0
1, 15838, Note_on_c, 1, 70, 0
1, 15840, Note_on_c, 0, 74, 81
1, 15958, Note_on_c, 0, 74, 0
1, 16080, Note_on_c, 0, 69, 70
1, 16080, Note_on_c, 0, 66, 61
1, 16318, Note_on_c, 0, 69, 0
1, 16318, Note_on_c, 0, 66, 0
1, 16320, Note_on_c, 0, 70, 73
1, 16320, Note_on_c, 0, 67, 67
1, 16558, Note_on_c, 0, 70, 0
1, 16558, Note_on_c, 0, 67, 0
1, 16560, Note_on_c, 0, 72, 76
1, 16560, Note_on_c, 0, 69, 70
1, 16798, Note_on_c, 0, 72, 0
1, 16798, Note_on_c, 0, 69, 0
1, 16800, Note_on_c, 0, 70, 65
1, 16800, Note_on_c, 0, 74, 74
1, 16918, Note_on_c, 0, 70, 0
1, 16918, Note_on_c, 0, 74, 0
1, 17040, Note_on_c, 0, 70, 71
1, 17040, Note_on_c, 0, 67, 66
1, 17040, Note_on_c, 1, 58, 53
1, 17158, Note_on_c, 0, 70, 0
1, 17158, Note_on_c, 0, 67, 0
1, 17278, Note_on_c, 1, 58, 0
1, 17280, Note_on_c, 0, 65, 62
1, 17280, Note_on_c, 0, 69, 73
1, 17280, Note_on_c, 1, 60, 72
1, 17518, Note_on_c, 1, 60, 0
1, 17520, Note_on_c, 1, 48, 74
1, 17758, Note_on_c, 0, 65, 0
1, 17758, Note_on_c, 0, 69, 0
1, 17758, Note_on_c, 1, 48, 0
1, 17760, Note_on_c, 0, 67, 70
1, 17760, Note_on_c, 0, 64, 58
1, 17878, Note_on_c, 0, 67, 0
1, 17878, Note_on_c, 0, 64, 0
1, 18000, Note_on_c, 0, 76, 66
1, 18238, Note_on_c, 0, 76, 0
1, 18240, Note_on_c, 0, 79, 77
1, 18478, Note_on_c, 0, 79, 0
1, 18480, Note_on_c, 0, 72, 67
1, 18480, Note_on_c, 1, 64, 67
1, 18718, Note_on_c, 0, 72, 0
1, 18718, Note_on_c, 1, 64, 0
1, 18720, Note_on_c, 0, 71, 68
1, 18720, Note_on_c, 1, 62, 58
1, 18958, Note_on_c, 0, 71, 0
1, 18958, Note_on_c, 1, 62, 0
1, 18960, Note_on_c, 0, 77, 68
1, 18960, Note_on_c, 0, 74, 62
1, 18960, Note_on_c, 1, 55, 73
1, 19198, Note_on_c, 0, 77, 0
1, 19198, Note_on_c, 0, 74, 0
1, 19198, Note_on_c, 1, 55, 0
1, 19200, Note_on_c, 0, 77, 56
1, 19200, Note_on_c, 0, 74, 57
1, 19200, Note_on_c, 1, 60, 71
1, 19438, Note_on_c, 0, 77, 0
1, 19438, Note_on_c, 0, 74, 0
1, 19438, Note_on_c, 1, 60, 0
1, 19440, Note_on_c, 0, 72, 56
1, 19440, Note_on_c, 0, 76, 65
1, 19440, Note_on_c, 1, 54, 65
1, 19678, Note_on_c, 0, 72, 0
1, 19678, Note_on_c, 0, 76, 0
1, 19678, Note_on_c, 1, 54, 0
1, 19680, Note_on_c, 0, 71, 62
1, 19680, Note_on_c, 0, 74, 72
1, 19680, Note_on_c, 1, 55, 67
1, 19918, Note_on_c, 0, 71, 0
1, 19918, Note_on_c, 0, 74, 0
1, 19918, Note_on_c, 1, 55, 0
1, 19920, Note_on_c, 0, 75, 51
1, 20158, Note_on_c, 0, 75, 0
1, 20160, Note_on_c, 0, 79, 42
1, 20398, Note_on_c, 0, 79, 0
1, 20400, Note_on_c, 0, 72, 62
1, 20400, Note_on_c, 1, 63, 48
1, 20638, Note_on_c, 0, 72, 0
1, 20638, Note_on_c, 1, 63, 0
1, 20640, Note_on_c, 0, 71, 61
1, 20640, Note_on_c, 1, 62, 65
1, 20878, Note_on_c, 0, 71, 0
1, 20878, Note_on_c, 1, 62, 0
1, 20880, Note_on_c, 0, 77, 65
1, 20880, Note_on_c, 0, 74, 62
1, 20880, Note_on_c, 1, 55, 63
1, 21118, Note_on_c, 0, 77, 0
1, 21118, Note_on_c, 0, 74, 0
1, 21118, Note_on_c, 1, 55, 0
1, 21120, Note_on_c, 0, 77, 55
1, 21120, Note_on_c, 0, 74, 53
1, 21120, Note_on_c, 1, 60, 62
1, 21358, Note_on_c, 0, 77, 0
1, 21358, Note_on_c, 0, 74, 0
1, 21358, Note_on_c, 1, 60, 0
1, 21360, Note_on_c, 0, 75, 41
1, 21360, Note_on_c, 0, 72, 39
1, 21360, Note_on_c, 1, 54, 55
1, 21598, Note_on_c, 0, 75, 0
1, 21598, Note_on_c, 0, 72, 0
1, 21598, Note_on_c, 1, 54, 0
1, 21600, Note_on_c, 0, 71, 51
1, 21600, Note_on_c, 0, 74, 63
1, 21600, Note_on_c, 1, 55, 63
1, 21838, Note_on_c, 0, 71, 0
1, 21838, Note_on_c, 0, 74, 0
1, 21838, Note_on_c, 1, 55, 0
1, 21840, Note_on_c, 0, 76, 67
1, 22078, Note_on_c, 0, 76, 0
1, 22080, Note_on_c, 0, 79, 82
1, 22198, Note_on_c, 0, 79, 0
1, 22320, Note_on_c, 0, 72, 78
1, 22320, Note_on_c, 1, 60, 66
1, 22320, Note_on_c, 1, 64, 73
1, 22558, Note_on_c, 0, 72, 0
1, 22558, Note_on_c, 1, 60, 0
1, 22558, Note_on_c, 1, 64, 0
1, 22560, Note_on_c, 0, 71, 75
1, 22560, Note_on_c, 1, 65, 78
1, 22560, Note_on_c, 1, 62, 67
1, 22798, Note_on_c, 0, 71, 0
1, 22798, Note_on_c, 1, 65, 0
1, 22798, Note_on_c, 1, 62, 0
1, 22800, Note_on_c, 0, 70, 77
1, 22800, Note_on_c, 1, 67, 76
1, 22800, Note_on_c, 1, 64, 55
1, 23038, Note_on_c, 1, 67, 0
1, 23038, Note_on_c, 1, 64, 0
1, 23040, Note_on_c, 1, 65, 81
1, 23158, Note_on_c, 0, 70, 0
1, 23160, Note_on_c, 0, 69, 76
1, 23278, Note_on_c, 0, 69, 0
1, 23280, Note_on_c, 0, 68, 62
1, 23398, Note_on_c, 0, 68, 0
1, 23400, Note_on_c, 0, 69, 66
1, 23518, Note_on_c, 0, 69, 0
1, 23520, Note_on_c, 0, 71, 78
1, 23638, Note_on_c, 0, 71, 0
1, 23640, Note_on_c, 0, 69, 78
1, 23758, Note_on_c, 0, 69, 0
1, 23758, Note_on_c, 1, 65, 0
1, 23760, Note_on_c, 0, 73, 84
1, 23760, Note_on_c, 1, 64, 68
1, 23878, Note_on_c, 0, 73, 0
1, 23880, Note_on_c, 0, 69, 63
1, 23998, Note_on_c, 0, 69, 0
1, 23998, Note_on_c, 1, 64, 0
1, 24000, Note_on_c, 0, 74, 88
1, 24000, Note_on_c, 1, 65, 82
1, 24118, Note_on_c, 0, 74, 0
1, 24120, Note_on_c, 0, 69, 60
1, 24238, Note_on_c, 0, 69, 0
1, 24238, Note_on_c, 1, 65, 0
1, 24240, Note_on_c, 0, 76, 89
1, 24240, Note_on_c, 1, 61, 73
1, 24358, Note_on_c, 0, 76, 0
1, 24360, Note_on_c, 0, 69, 75
1, 24478, Note_on_c, 0, 69, 0
1, 24478, Note_on_c, 1, 61, 0
1, 24480, Note_on_c, 0, 77, 99
1, 24480, Note_on_c, 1, 62, 78
1, 24598, Note_on_c, 0, 77, 0
1, 24600, Note_on_c, 0, 69, 84
1, 24718, Note_on_c, 0, 69, 0
1, 24718, Note_on_c, 1, 62, 0
1, 24720, Note_on_c, 0, 79, 93
1, 24720, Note_on_c, 1, 64, 70
1, 24838, Note_on_c, 0, 79, 0
1, 24840, Note_on_c, 0, 69, 76
1, 24958, Note_on_c, 0, 69, 0
1, 24958, Note_on_c, 1, 64, 0
1, 24960, Note_on_c, 0, 81, 99
1, 24960, Note_on_c, 1, 65, 84
1, 25438, Note_on_c, 0, 81, 0
1, 25438, Note_on_c, 1, 65, 0
1, 25440, Note_on_c, 0, 79, 55
1, 25558, Note_on_c, 0, 79, 0
1, 25560, Note_on_c, 0, 77, 68
1, 25678, Note_on_c, 0, 77, 0
1, 25680, Note_on_c, 0, 76, 71
1, 25798, Note_on_c, 0, 76, 0
1, 25800, Note_on_c, 0, 74, 56
1, 25918, Note_on_c, 0, 74, 0
1, 25920, Note_on_c, 0, 73, 41
1, 26038, Note_on_c, 0, 73, 0
1, 26040, Note_on_c, 0, 74, 62
1, 26158, Note_on_c, 0, 74, 0
1, 26160, Note_on_c, 0, 76, 40
1, 26278, Note_on_c, 0, 76, 0
1, 26280, Note_on_c, 0, 74, 63
1, 26398, Note_on_c, 0, 74, 0
1, 26400, Note_on_c, 0, 79, 62
1, 26518, Note_on_c, 0, 79, 0
1, 26520, Note_on_c, 0, 77, 68
1, 26638, Note_on_c, 0, 77, 0
1, 26640, Note_on_c, 0, 76, 71
1, 26758, Note_on_c, 0, 76, 0
1, 26760, Note_on_c, 0, 74, 68
1, 26878, Note_on_c, 0, 74, 0
1, 26880, Note_on_c, 0, 72, 68
1, 27120, Note_on_c, 1, 69, 68
1, 27120, Note_on_c, 1, 66, 57
1, 27358, Note_on_c, 1, 69, 0
1, 27358, Note_on_c, 1, 66, 0
1, 27360, Note_on_c, 1, 67, 63
1, 27598, Note_on_c, 0, 72, 0
1, 27598, Note_on_c, 1, 67, 0
1, 27600, Note_on_c, 0, 76, 57
1, 27600, Note_on_c, 1, 55, 71
1, 27718, Note_on_c, 0, 76, 0
1, 27720, Note_on_c, 0, 74, 63
1, 27838, Note_on_c, 0, 74, 0
1, 27838, Note_on_c, 1, 55, 0
1, 27840, Note_on_c, 0, 72, 68
1, 27840, Note_on_c, 1, 60, 72
1, 28078, Note_on_c, 0, 72, 0
1, 28078, Note_on_c, 1, 60, 0
1, 28080, Note_on_c, 1, 48, 70
1, 28318, Note_on_c, 1, 48, 0
1, 28560, Note_on_c, 0, 74, 94
1, 28678, Note_on_c, 0, 74, 0
1, 28680, Note_on_c, 0, 71, 81
1, 28798, Note_on_c, 0, 71, 0
1, 28800, Note_on_c, 0, 74, 92
1, 28800, Note_on_c, 1, 65, 81
1, 28800, Note_on_c, 1, 59, 74
1, 28800, Note_on_c, 1, 55, 72
1, 28800, Note_on_c, 1, 62, 77
1, 28918, Note_on_c, 0, 74, 0
1, 28920, Note_on_c, 0, 71, 76
1, 29038, Note_on_c, 0, 71, 0
1, 29040, Note_on_c, 0, 77, 74
1, 29158, Note_on_c, 0, 77, 0
1, 29160, Note_on_c, 0, 74, 94
1, 29278, Note_on_c, 0, 74, 0
1, 29278, Note_on_c, 1, 65, 0
1, 29278, Note_on_c, 1, 59, 0
1, 29278, Note_on_c, 1, 55, 0
1, 29278, Note_on_c, 1, 62, 0
1, 29280, Note_on_c, 0, 71, 78
1, 29398, Note_on_c, 0, 71, 0
1, 29400, Note_on_c, 0, 67, 71
1, 29518, Note_on_c, 0, 67, 0
1, 29520, Note_on_c, 0, 74, 78
1, 29638, Note_on_c, 0, 74, 0
1, 29640, Note_on_c, 0, 71, 65
1, 29758, Note_on_c, 0, 71, 0
1, 29760, Note_on_c, 0, 74, 86
1, 29760, Note_on_c, 1, 55, 63
1, 29760, Note_on_c, 1, 65, 74
1, 29760, Note_on_c, 1, 62, 71
1, 29760, Note_on_c, 1, 59, 53
1, 29878, Note_on_c, 0, 74, 0
1, 29880, Note_on_c, 0, 71, 72
1, 29998, Note_on_c, 0, 71, 0
1, 30000, Note_on_c, 0, 77, 83
1, 30118, Note_on_c, 0, 77, 0
1, 30120, Note_on_c, 0, 74, 94
1, 30238, Note_on_c, 0, 74, 0
1, 30238, Note_on_c, 1, 55, 0
1, 30238, Note_on_c, 1, 65, 0
1, 30238, Note_on_c, 1, 62, 0
1, 30238, Note_on_c, 1, 59, 0
1, 30240, Note_on_c, 0, 71, 77
1, 30358, Note_on_c, 0, 71, 0
1, 30360, Note_on_c, 0, 67, 78
1, 30478, Note_on_c, 0, 67, 0
1, 30480, Note_on_c, 0, 74, 74
1, 30598, Note_on_c, 0, 74, 0
1, 30600, Note_on_c, 0, 71, 61
1, 30718, Note_on_c, 0, 71, 0
1, 30720, Note_on_c, 0, 74, 81
1, 30720, Note_on_c, 1, 65, 74
1, 30720, Note_on_c, 1, 55, 52
1, 30720, Note_on_c, 1, 59, 51
1, 30720, Note_on_c, 1, 62, 71
1, 30838, Note_on_c, 0, 74, 0
1, 30840, Note_on_c, 0, 71, 62
1, 30958, Note_on_c, 0, 71, 0
1, 30960, Note_on_c, 0, 77, 81
1, 31078, Note_on_c, 0, 77, 0
1, 31080, Note_on_c, 0, 74, 97
1, 31198, Note_on_c, 0, 74, 0
1, 31198, Note_on_c, 1, 65, 0
1, 31198, Note_on_c, 1, 55, 0
1, 31198, Note_on_c, 1, 59, 0
1, 31198, Note_on_c, 1, 62, 0
1, 31200, Note_on_c, 0, 71, 76
1, 31318, Note_on_c, 0, 71, 0
1, 31320, Note_on_c, 0, 67, 74
1, 31438, Note_on_c, 0, 67, 0
1, 31440, Note_on_c, 0, 74, 74
1, 31558, Note_on_c, 0, 74, 0
1, 31560, Note_on_c, 0, 71, 86
1, 31678, Note_on_c, 0, 71, 0
1, 31680, Note_on_c, 0, 67, 83
1, 31798, Note_on_c, 0, 67, 0
1, 31800, Note_on_c, 0, 65, 78
1, 31918, Note_on_c, 0, 65, 0
1, 31920, Note_on_c, 0, 71, 74
1, 32038, Note_on_c, 0, 71, 0
1, 32040, Note_on_c, 0, 67, 81
1, 32158, Note_on_c, 0, 67, 0
1, 32160, Note_on_c, 0, 65, 78
1, 32278, Note_on_c, 0, 65, 0
1, 32280, Note_on_c, 0, 62, 67
1, 32398, Note_on_c, 0, 62, 0
1, 32400, Note_on_c, 0, 65, 74
1, 32518, Note_on_c, 0, 65, 0
1, 32520, Note_on_c, 0, 62, 67
1, 32638, Note_on_c, 0, 62, 0
1, 32640, Note_on_c, 0, 59, 79
1, 32758, Note_on_c, 0, 59, 0
1, 33360, Note_on_c, 0, 79, 65
1, 33598, Note_on_c, 0, 79, 0
1, 33600, Note_on_c, 0, 72, 83
1, 33600, Note_on_c, 1, 57, 83
1, 33718, Note_on_c, 0, 72, 0
1, 33718, Note_on_c, 1, 57, 0
1, 33840, Note_on_c, 0, 76, 70
1, 33840, Note_on_c, 1, 60, 70
1, 34078, Note_on_c, 0, 76, 0
1, 34078, Note_on_c, 1, 60, 0
1, 34080, Note_on_c, 0, 69, 73
1, 34080, Note_on_c, 1, 53, 73
1, 34198, Note_on_c, 0, 69, 0
1, 34198, Note_on_c, 1, 53, 0
1, 34320, Note_on_c, 0, 81, 72
1, 34320, Note_on_c, 1, 65, 72
1, 34438, Note_on_c, 0, 81, 0
1, 34438, Note_on_c, 1, 65, 0
1, 34560, Note_on_c, 0, 72, 74
1, 34560, Note_on_c, 1, 64, 57
1, 34560, Note_on_c, 1, 55, 58
1, 35038, Note_on_c, 0, 72, 0
1, 35038, Note_on_c, 1, 64, 0
1, 35040, Note_on_c, 0, 71, 78
1, 35040, Note_on_c, 1, 62, 61
1, 35158, Note_on_c, 0, 71, 0
1, 35278, Note_on_c, 1, 62, 0
1, 35280, Note_on_c, 0, 79, 74
1, 35518, Note_on_c, 0, 79, 0
1, 35518, Note_on_c, 1, 55, 0
1, 35520, Note_on_c, 0, 72, 74
1, 35520, Note_on_c, 1, 57, 83
1, 35638, Note_on_c, 1, 57, 0
1, 35758, Note_on_c, 0, 72, 0
1, 35760, Note_on_c, 0, 76, 74
1, 35760, Note_on_c, 1, 60, 70
1, 35878, Note_on_c, 0, 76, 0
1, 35998, Note_on_c, 1, 60, 0
1, 36000, Note_on_c, 0, 69, 74
1, 36000, Note_on_c, 1, 53, 73
1, 36118, Note_on_c, 1, 53, 0
1, 36238, Note_on_c, 0, 69, 0
1, 36240, Note_on_c, 0, 81, 78
1, 36240, Note_on_c, 1, 65, 72
1, 36358, Note_on_c, 0, 81, 0
1, 36358, Note_on_c, 1, 65, 0
1, 36480, Note_on_c, 0, 72, 72
1, 36480, Note_on_c, 1, 55, 63
1, 36480, Note_on_c, 1, 64, 57
1, 36958, Note_on_c, 0, 72, 0
1, 36958, Note_on_c, 1, 64, 0
1, 36960, Note_on_c, 0, 71, 62
1, 36960, Note_on_c, 1, 62, 61
1, 37198, Note_on_c, 0, 71, 0
1, 37198, Note_on_c, 1, 55, 0
1, 37198, Note_on_c, 1, 62, 0
1, 37200, Note_on_c, 0, 79, 74
1, 37200, Note_on_c, 1, 53, 62
1, 37318, Note_on_c, 0, 79, 0
1, 37438, Note_on_c, 1, 53, 0
1, 37440, Note_on_c, 0, 70, 71
1, 37440, Note_on_c, 1, 61, 55
1, 37440, Note_on_c, 1, 52, 51
1, 37918, Note_on_c, 0, 70, 0
1, 37918, Note_on_c, 1, 61, 0
1, 37918, Note_on_c, 1, 52, 0
1, 37920, Note_on_c, 0, 69, 67
1, 37920, Note_on_c, 1, 62, 58
1, 37920, Note_on_c, 1, 53, 56
1, 38038, Note_on_c, 0, 69, 0
1, 38160, Note_on_c, 0, 77, 76
1, 38278, Note_on_c, 0, 77, 0
1, 38398, Note_on_c, 1, 62, 0
1, 38398, Note_on_c, 1, 53, 0
1, 38400, Note_on_c, 0, 68, 74
1, 38400, Note_on_c, 1, 65, 56
1, 38400, Note_on_c, 1, 59, 53
1, 38878, Note_on_c, 0, 68, 0
1, 38878, Note_on_c, 1, 65, 0
1, 38878, Note_on_c, 1, 59, 0
1, 38880, Note_on_c, 0, 67, 74
1, 38880, Note_on_c, 1, 64, 58
1, 38880, Note_on_c, 1, 60, 43
1, 38998, Note_on_c, 0, 67, 0
1, 39120, Note_on_c, 0, 72, 68
1, 39238, Note_on_c, 0, 72, 0
1, 39358, Note_on_c, 1, 64, 0
1, 39358, Note_on_c, 1, 60, 0
1, 39360, Note_on_c, 0, 62, 72
1, 39360, Note_on_c, 1, 53, 56
1, 39598, Note_on_c, 0, 62, 0
1, 39600, Note_on_c, 0, 65, 66
1, 39600, Note_on_c, 0, 69, 68
1, 39646, Note_on_c, 1, 53, 0
1, 39838, Note_on_c, 0, 65, 0
1, 39838, Note_on_c, 0, 69, 0
1, 39840, Note_on_c, 0, 67, 65
1, 39840, Note_on_c, 0, 64, 68
1, 39840, Note_on_c, 1, 55, 66
1, 39840, Note_on_c, 1, 43, 61
1, 40078, Note_on_c, 0, 67, 0
1, 40078, Note_on_c, 0, 64, 0
1, 40080, Note_on_c, 0, 59, 65
1, 40126, Note_on_c, 1, 55, 0
1, 40126, Note_on_c, 1, 43, 0
1, 40318, Note_on_c, 0, 59, 0
1, 40320, Note_on_c, 0, 60, 78
1, 40320, Note_on_c, 1, 36, 38
1, 40320, Note_on_c, 1, 48, 52
1, 40558, Note_on_c, 0, 60, 0
1, 40606, Note_on_c, 1, 36, 0
1, 40606, Note_on_c, 1, 48, 0
1, 41040, Note_on_c, 0, 79, 74
1, 41278, Note_on_c, 0, 79, 0
1, 41280, Note_on_c, 0, 72, 68
1, 41280, Note_on_c, 1, 57, 83
1, 41350, Note_on_c, 1, 57, 0
1, 41518, Note_on_c, 0, 72, 0
1, 41520, Note_on_c, 0, 76, 68
1, 41520, Note_on_c, 1, 60, 70
1, 41638, Note_on_c, 0, 76, 0
1, 41662, Note_on_c, 1, 60, 0
1, 41760, Note_on_c, 0, 69, 72
1, 41760, Note_on_c, 1, 53, 73
1, 41830, Note_on_c, 1, 53, 0
1, 41998, Note_on_c, 0, 69, 0
1, 42000, Note_on_c, 0, 81, 74
1, 42000, Note_on_c, 1, 65, 72
1, 42070, Note_on_c, 1, 65, 0
1, 42118, Note_on_c, 0, 81, 0
1, 42240, Note_on_c, 0, 72, 72
1, 42240, Note_on_c, 1, 55, 58
1, 42240, Note_on_c, 1, 64, 57
1, 42526, Note_on_c, 1, 64, 0
1, 42718, Note_on_c, 0, 72, 0
1, 42720, Note_on_c, 0, 71, 74
1, 42720, Note_on_c, 1, 62, 61
1, 42814, Note_on_c, 1, 55, 0
1, 42838, Note_on_c, 0, 71, 0
1, 42862, Note_on_c, 1, 62, 0
1, 42960, Note_on_c, 0, 79, 72
1, 43078, Note_on_c, 0, 79, 0
1, 43200, Note_on_c, 0, 72, 65
1, 43200, Note_on_c, 1, 57, 68
1, 43318, Note_on_c, 0, 72, 0
1, 43318, Note_on_c, 1, 57, 0
1, 43320, Note_on_c, 0, 74, 65
1, 43320, Note_on_c, 1, 59, 66
1, 43438, Note_on_c, 0, 74, 0
1, 43438, Note_on_c, 1, 59, 0
1, 43440, Note_on_c, 0, 76, 68
1, 43440, Note_on_c, 1, 60, 56
1, 43558, Note_on_c, 0, 76, 0
1, 43558, Note_on_c, 1, 60, 0
1, 43560, Note_on_c, 0, 72, 66
1, 43560, Note_on_c, 1, 57, 72
1, 43678, Note_on_c, 0, 72, 0
1, 43678, Note_on_c, 1, 57, 0
1, 43680, Note_on_c, 0, 69, 73
1, 43680, Note_on_c, 1, 53, 73
1, 43798, Note_on_c, 0, 69, 0
1, 43798, Note_on_c, 1, 53, 0
1, 43920, Note_on_c, 0, 81, 72
1, 43920, Note_on_c, 1, 65, 74
1, 44038, Note_on_c, 0, 81, 0
1, 44038, Note_on_c, 1, 65, 0
1, 44160, Note_on_c, 0, 72, 74
1, 44160, Note_on_c, 1, 64, 58
1, 44160, Note_on_c, 1, 55, 63
1, 44638, Note_on_c, 0, 72, 0
1, 44638, Note_on_c, 1, 64, 0
1, 44640, Note_on_c, 0, 71, 70
1, 44640, Note_on_c, 1, 62, 55
1, 44758, Note_on_c, 0, 71, 0
1, 44878, Note_on_c, 1, 55, 0
1, 44878, Note_on_c, 1, 62, 0
1, 44880, Note_on_c, 0, 79, 72
1, 44880, Note_on_c, 1, 64, 67
1, 44998, Note_on_c, 1, 64, 0
1, 45000, Note_on_c, 1, 65, 65
1, 45118, Note_on_c, 0, 79, 0
1, 45118, Note_on_c, 1, 65, 0
1, 45120, Note_on_c, 0, 70, 74
1, 45120, Note_on_c, 1, 61, 52
1, 45120, Note_on_c, 1, 67, 67
1, 45598, Note_on_c, 0, 70, 0
1, 45598, Note_on_c, 1, 61, 0
1, 45598, Note_on_c, 1, 67, 0
1, 45600, Note_on_c, 0, 69, 73
1, 45600, Note_on_c, 1, 62, 72
1, 45600, Note_on_c, 1, 65, 62
1, 45718, Note_on_c, 0, 69, 0
1, 45838, Note_on_c, 1, 62, 0
1, 45838, Note_on_c, 1, 65, 0
1, 45840, Note_on_c, 0, 77, 67
1, 45958, Note_on_c, 0, 77, 0
1, 46080, Note_on_c, 0, 68, 70
1, 46080, Note_on_c, 1, 59, 53
1, 46080, Note_on_c, 1, 65, 53
1, 46558, Note_on_c, 0, 68, 0
1, 46558, Note_on_c, 1, 59, 0
1, 46558, Note_on_c, 1, 65, 0
1, 46560, Note_on_c, 0, 67, 62
1, 46560, Note_on_c, 1, 64, 57
1, 46560, Note_on_c, 1, 60, 51
1, 46678, Note_on_c, 0, 67, 0
1, 46798, Note_on_c, 1, 64, 0
1, 46798, Note_on_c, 1, 60, 0
1, 46800, Note_on_c, 0, 72, 68
1, 47038, Note_on_c, 0, 72, 0
1, 47040, Note_on_c, 0, 62, 70
1, 47040, Note_on_c, 1, 53, 68
1, 47158, Note_on_c, 0, 62, 0
1, 47278, Note_on_c, 1, 53, 0
1, 47280, Note_on_c, 0, 69, 67
1, 47280, Note_on_c, 0, 65, 67
1, 47518, Note_on_c, 0, 69, 0
1, 47518, Note_on_c, 0, 65, 0
1, 47520, Note_on_c, 0, 67, 68
1, 47520, Note_on_c, 0, 64, 58
1, 47520, Note_on_c, 1, 55, 70
1, 47520, Note_on_c, 1, 43, 67
1, 47758, Note_on_c, 0, 67, 0
1, 47758, Note_on_c, 0, 64, 0
1, 47758, Note_on_c, 1, 55, 0
1, 47758, Note_on_c, 1, 43, 0
1, 47760, Note_on_c, 0, 59, 76
1, 47998, Note_on_c, 0, 59, 0
1, 48000, Note_on_c, 0, 60, 73
1, 48240, Note_on_c, 1, 36, 76
1, 48478, Note_on_c, 0, 60, 0
1, 48478, Note_on_c, 1, 36, 0
1, 48480, Note_on_c, 1, 48, 66
1, 48622, Note_on_c, 1, 48, 0
1, 48720, Note_on_c, 0, 59, 66
1, 48720, Note_on_c, 0, 65, 63
1, 48958, Note_on_c, 0, 59, 0
1, 48958, Note_on_c, 0, 65, 0
1, 48960, Note_on_c, 0, 64, 68
1, 48960, Note_on_c, 0, 60, 66
1, 49078, Note_on_c, 0, 64, 0
1, 49078, Note_on_c, 0, 60, 0
1, 49200, Note_on_c, 1, 36, 66
1, 49438, Note_on_c, 1, 36, 0
1, 49440, Note_on_c, 1, 48, 62
1, 49582, Note_on_c, 1, 48, 0
1, 49680, Note_on_c, 0, 69, 60
1, 49680, Note_on_c, 0, 65, 68
1, 49918, Note_on_c, 0, 69, 0
1, 49918, Note_on_c, 0, 65, 0
1, 49920, Note_on_c, 0, 67, 70
1, 49920, Note_on_c, 0, 64, 62
1, 50038, Note_on_c, 0, 67, 0
1, 50038, Note_on_c, 0, 64, 0
1, 50160, Note_on_c, 1, 36, 62
1, 50398, Note_on_c, 1, 36, 0
1, 50400, Note_on_c, 1, 48, 62
1, 50542, Note_on_c, 1, 48, 0
1, 50640, Note_on_c, 0, 77, 68
1, 50640, Note_on_c, 0, 71, 66
1, 50878, Note_on_c, 0, 77, 0
1, 50878, Note_on_c, 0, 71, 0
1, 50880, Note_on_c, 0, 76, 63
1, 50880, Note_on_c, 0, 72, 56
1, 50998, Note_on_c, 0, 76, 0
1, 50998, Note_on_c, 0, 72, 0
1, 51120, Note_on_c, 1, 36, 74
1, 51358, Note_on_c, 1, 36, 0
1, 51360, Note_on_c, 1, 48, 61
1, 51502, Note_on_c, 1, 48, 0
1, 51600, Note_on_c, 0, 83, 74
1, 51600, Note_on_c, 0, 74, 63
1, 51838, Note_on_c, 0, 83, 0
1, 51838, Note_on_c, 0, 74, 0
1, 51840, Note_on_c, 0, 84, 70
1, 51840, Note_on_c, 0, 76, 46
1, 51958, Note_on_c, 0, 84, 0
1, 51958, Note_on_c, 0, 76, 0
1, 52560, Note_on_c, 0, 72, 74
1, 52798, Note_on_c, 0, 72, 0
1, 52800, Note_on_c, 0, 65, 74
1, 52800, Note_on_c, 1, 57, 62
1, 52800, Note_on_c, 1, 53, 66
1, 53038, Note_on_c, 0, 65, 0
1, 53038, Note_on_c, 1, 57, 0
1, 53038, Note_on_c, 1, 53, 0
1, 53040, Note_on_c, 0, 69, 72
1, 53158, Note_on_c, 0, 69, 0
1, 53280, Note_on_c, 0, 62, 76
1, 53280, Note_on_c, 1, 46, 38
1, 53280, Note_on_c, 1, 58, 50
1, 53398, Note_on_c, 0, 62, 0
1, 53518, Note_on_c, 1, 46, 0
1, 53518, Note_on_c, 1, 58, 0
1, 53520, Note_on_c, 0, 74, 73
1, 53638, Note_on_c, 0, 74, 0
1, 53760, Note_on_c, 0, 65, 73
1, 53760, Note_on_c, 1, 48, 62
1, 53760, Note_on_c, 1, 57, 56
1, 54238, Note_on_c, 0, 65, 0
1, 54238, Note_on_c, 1, 57, 0
1, 54240, Note_on_c, 0, 64, 68
1, 54240, Note_on_c, 1, 55, 61
1, 54358, Note_on_c, 0, 64, 0
1, 54478, Note_on_c, 1, 48, 0
1, 54478, Note_on_c, 1, 55, 0
1, 54480, Note_on_c, 0, 70, 83
1, 54598, Note_on_c, 0, 70, 0
1, 54720, Note_on_c, 0, 67, 94
1, 54958, Note_on_c, 0, 67, 0
1, 54960, Note_on_c, 0, 76, 78
1, 55078, Note_on_c, 0, 76, 0
1, 55200, Note_on_c, 0, 70, 81
1, 55200, Note_on_c, 1, 64, 57
1, 55200, Note_on_c, 1, 60, 56
1, 55438, Note_on_c, 0, 70, 0
1, 55438, Note_on_c, 1, 64, 0
1, 55438, Note_on_c, 1, 60, 0
1, 55440, Note_on_c, 0, 79, 86
1, 55558, Note_on_c, 0, 79, 0
1, 55680, Note_on_c, 0, 70, 72
1, 55680, Note_on_c, 1, 65, 68
1, 55918, Note_on_c, 1, 65, 0
1, 55920, Note_on_c, 1, 53, 65
1, 56158, Note_on_c, 0, 70, 0
1, 56158, Note_on_c, 1, 53, 0
1, 56160, Note_on_c, 0, 69, 74
1, 56278, Note_on_c, 0, 69, 0
1, 56400, Note_on_c, 0, 72, 89
1, 56518, Note_on_c, 0, 72, 0
1, 56640, Note_on_c, 0, 63, 74
1, 56878, Note_on_c, 0, 63, 0
1, 56880, Note_on_c, 0, 75, 78
1, 56998, Note_on_c, 0, 75, 0
1, 57120, Note_on_c, 0, 65, 74
1, 57120, Note_on_c, 1, 57, 58
1, 57358, Note_on_c, 0, 65, 0
1, 57358, Note_on_c, 1, 57, 0
1, 57360, Note_on_c, 0, 72, 77
1, 57478, Note_on_c, 0, 72, 0
1, 57600, Note_on_c, 0, 73, 83
1, 57600, Note_on_c, 1, 58, 58
1, 57838, Note_on_c, 1, 58, 0
1, 57840, Note_on_c, 1, 46, 53
1, 58078, Note_on_c, 0, 73, 0
1, 58078, Note_on_c, 1, 46, 0
1, 58080, Note_on_c, 0, 74, 78
1, 58198, Note_on_c, 0, 74, 0
1, 58320, Note_on_c, 0, 67, 74
1, 58320, Note_on_c, 1, 62, 57
1, 58320, Note_on_c, 1, 58, 57
1, 58438, Note_on_c, 0, 67, 0
1, 58558, Note_on_c, 1, 62, 0
1, 58558, Note_on_c, 1, 58, 0
1, 58560, Note_on_c, 0, 69, 76
1, 58560, Note_on_c, 1, 60, 67
1, 58560, Note_on_c, 1, 57, 42
1, 58798, Note_on_c, 0, 69, 0
1, 58798, Note_on_c, 1, 60, 0
1, 58798, Note_on_c, 1, 57, 0
1, 58800, Note_on_c, 0, 70, 65
1, 58800, Note_on_c, 1, 55, 63
1, 58800, Note_on_c, 1, 58, 63
1, 58918, Note_on_c, 0, 70, 0
1, 59038, Note_on_c, 1, 55, 0
1, 59038, Note_on_c, 1, 58, 0
1, 59040, Note_on_c, 0, 64, 77
1, 59040, Note_on_c, 1, 60, 66
1, 59158, Note_on_c, 0, 64, 0
1, 59278, Note_on_c, 1, 60, 0
1, 59280, Note_on_c, 0, 67, 74
1, 59280, Note_on_c, 1, 48, 68
1, 59398, Note_on_c, 0, 67, 0
1, 59518, Note_on_c, 1, 48, 0
1, 59520, Note_on_c, 0, 65, 83
1, 59520, Note_on_c, 1, 53, 65
1, 59758, Note_on_c, 1, 53, 0
1, 59760, Note_on_c, 1, 41, 58
1, 59998, Note_on_c, 0, 65, 0
1, 59998, Note_on_c, 1, 41, 0
1, 60240, Note_on_c, 0, 84, 78
1, 60358, Note_on_c, 0, 84, 0
1, 60480, Note_on_c, 0, 77, 81
1, 60718, Note_on_c, 0, 77, 0
1, 60720, Note_on_c, 0, 81, 81
1, 60838, Note_on_c, 0, 81, 0
1, 60960, Note_on_c, 0, 72, 73
1, 61078, Note_on_c, 0, 72, 0
1, 61200, Note_on_c, 0, 77, 78
1, 61200, Note_on_c, 1, 69, 61
1, 61200, Note_on_c, 1, 72, 65
1, 61318, Note_on_c, 0, 77, 0
1, 61438, Note_on_c, 1, 69, 0
1, 61438, Note_on_c, 1, 72, 0
1, 61440, Note_on_c, 0, 76, 70
1, 61440, Note_on_c, 1, 67, 68
1, 61440, Note_on_c, 1, 70, 65
1, 61678, Note_on_c, 0, 76, 0
1, 61678, Note_on_c, 1, 67, 0
1, 61678, Note_on_c, 1, 70, 0
1, 61680, Note_on_c, 0, 77, 71
1, 61680, Note_on_c, 1, 65, 72
1, 61680, Note_on_c, 1, 69, 68
1, 61918, Note_on_c, 0, 77, 0
1, 61918, Note_on_c, 1, 65, 0
1, 61918, Note_on_c, 1, 69, 0
1, 61920, Note_on_c, 0, 79, 72
1, 61920, Note_on_c, 1, 64, 74
1, 61920, Note_on_c, 1, 67, 73
1, 62038, Note_on_c, 0, 79, 0
1, 62158, Note_on_c, 1, 64, 0
1, 62158, Note_on_c, 1, 67, 0
1, 62160, Note_on_c, 0, 84, 74
1, 62278, Note_on_c, 0, 84, 0
1, 62400, Note_on_c, 0, 79, 74
1, 62638, Note_on_c, 0, 79, 0
1, 62640, Note_on_c, 0, 82, 74
1, 62878, Note_on_c, 0, 82, 0
1, 62880, Note_on_c, 0, 72, 72
1, 63118, Note_on_c, 0, 72, 0
1, 63120, Note_on_c, 0, 76, 74
1, 63120, Note_on_c, 1, 72, 42
1, 63120, Note_on_c, 1, 70, 31
1, 63238, Note_on_c, 0, 76, 0
1, 63358, Note_on_c, 1, 72, 0
1, 63358, Note_on_c, 1, 70, 0
1, 63360, Note_on_c, 0, 77, 71
1, 63360, Note_on_c, 1, 72, 60
1, 63360, Note_on_c, 1, 69, 60
1, 63598, Note_on_c, 0, 77, 0
1, 63598, Note_on_c, 1, 72, 0
1, 63598, Note_on_c, 1, 69, 0
1, 63600, Note_on_c, 0, 79, 76
1, 63600, Note_on_c, 1, 70, 55
1, 63600, Note_on_c, 1, 67, 66
1, 63838, Note_on_c, 0, 79, 0
1, 63838, Note_on_c, 1, 70, 0
1, 63838, Note_on_c, 1, 67, 0
1, 63840, Note_on_c, 0, 81, 79
1, 63840, Note_on_c, 1, 65, 51
1, 63840, Note_on_c, 1, 69, 38
1, 63958, Note_on_c, 0, 81, 0
1, 64078, Note_on_c, 1, 65, 0
1, 64078, Note_on_c, 1, 69, 0
1, 64080, Note_on_c, 0, 84, 74
1, 64198, Note_on_c, 0, 84, 0
1, 64320, Note_on_c, 0, 77, 72
1, 64558, Note_on_c, 0, 77, 0
1, 64560, Note_on_c, 0, 84, 81
1, 64560, Note_on_c, 1, 65, 55
1, 64560, Note_on_c, 1, 69, 57
1, 64678, Note_on_c, 0, 84, 0
1, 64798, Note_on_c, 1, 65, 0
1, 64798, Note_on_c, 1, 69, 0
1, 64800, Note_on_c, 0, 77, 76
1, 64800, Note_on_c, 1, 67, 53
1, 64800, Note_on_c, 1, 70, 60
1, 65038, Note_on_c, 0, 77, 0
1, 65038, Note_on_c, 1, 67, 0
1, 65038, Note_on_c, 1, 70, 0
1, 65040, Note_on_c, 0, 75, 71
1, 65040, Note_on_c, 1, 69, 55
1, 65040, Note_on_c, 1, 72, 53
1, 65278, Note_on_c, 1, 69, 0
1, 65278, Note_on_c, 1, 72, 0
1, 65280, Note_on_c, 1, 70, 52
1, 65518, Note_on_c, 0, 75, 0
1, 65520, Note_on_c, 0, 73, 72
1, 65758, Note_on_c, 0, 73, 0
1, 65758, Note_on_c, 1, 70, 0
1, 65760, Note_on_c, 0, 74, 81
1, 65878, Note_on_c, 0, 74, 0
1, 66000, Note_on_c, 0, 66, 61
1, 66000, Note_on_c, 0, 69, 70
1, 66238, Note_on_c, 0, 66, 0
1, 66238, Note_on_c, 0, 69, 0
1, 66240, Note_on_c, 0, 67, 67
1, 66240, Note_on_c, 0, 70, 73
1, 66478, Note_on_c, 0, 67, 0
1, 66478, Note_on_c, 0, 70, 0
1, 66480, Note_on_c, 0, 69, 70
1, 66480, Note_on_c, 0, 72, 76
1, 66718, Note_on_c, 0, 69, 0
1, 66718, Note_on_c, 0, 72, 0
1, 66720, Note_on_c, 0, 74, 74
1, 66720, Note_on_c, 0, 70, 65
1, 66838, Note_on_c, 0, 74, 0
1, 66838, Note_on_c, 0, 70, 0
1, 66960, Note_on_c, 0, 67, 66
1, 66960, Note_on_c, 0, 70, 71
1, 66960, Note_on_c, 1, 58, 53
1, 67078, Note_on_c, 0, 67, 0
1, 67078, Note_on_c, 0, 70, 0
1, 67198, Note_on_c, 1, 58, 0
1, 67200, Note_on_c, 0, 69, 73
1, 67200, Note_on_c, 0, 65, 62
1, 67200, Note_on_c, 1, 60, 72
1, 67438, Note_on_c, 1, 60, 0
1, 67440, Note_on_c, 1, 48, 74
1, 67678, Note_on_c, 0, 69, 0
1, 67678, Note_on_c, 0, 65, 0
1, 67678, Note_on_c, 1, 48, 0
1, 67680, Note_on_c, 0, 64, 58
1, 67680, Note_on_c, 0, 67, 70
1, 67798, Note_on_c, 0, 64, 0
1, 67798, Note_on_c, 0, 67, 0
1, 67920, Note_on_c, 0, 76, 66
1, 68158, Note_on_c, 0, 76, 0
1, 68160, Note_on_c, 0, 79, 77
1, 68398, Note_on_c, 0, 79, 0
1, 68400, Note_on_c, 0, 72, 67
1, 68400, Note_on_c, 1, 64, 67
1, 68638, Note_on_c, 0, 72, 0
1, 68638, Note_on_c, 1, 64, 0
1, 68640, Note_on_c, 0, 71, 68
1, 68640, Note_on_c, 1, 62, 58
1, 68878, Note_on_c, 0, 71, 0
1, 68878, Note_on_c, 1, 62, 0
1, 68880, Note_on_c, 0, 74, 62
1, 68880, Note_on_c, 0, 77, 68
1, 68880, Note_on_c, 1, 55, 73
1, 69118, Note_on_c, 0, 74, 0
1, 69118, Note_on_c, 0, 77, 0
1, 69118, Note_on_c, 1, 55, 0
1, 69120, Note_on_c, 0, 74, 57
1, 69120, Note_on_c, 0, 77, 56
1, 69120, Note_on_c, 1, 60, 71
1, 69358, Note_on_c, 0, 74, 0
1, 69358, Note_on_c, 0, 77, 0
1, 69358, Note_on_c, 1, 60, 0
1, 69360, Note_on_c, 0, 76, 65
1, 69360, Note_on_c, 0, 72, 56
1, 69360, Note_on_c, 1, 54, 65
1, 69598, Note_on_c, 0, 76, 0
1, 69598, Note_on_c, 0, 72, 0
1, 69598, Note_on_c, 1, 54, 0
1, 69600, Note_on_c, 0, 74, 72
1, 69600, Note_on_c, 0, 71, 62
1, 69600, Note_on_c, 1, 55, 67
1, 69838, Note_on_c, 0, 74, 0
1, 69838, Note_on_c, 0, 71, 0
1, 69838, Note_on_c, 1, 55, 0
1, 69840, Note_on_c, 0, 75, 51
1, 70078, Note_on_c, 0, 75, 0
1, 70080, Note_on_c, 0, 79, 42
1, 70318, Note_on_c, 0, 79, 0
1, 70320, Note_on_c, 0, 72, 62
1, 70320, Note_on_c, 1, 63, 48
1, 70558, Note_on_c, 0, 72, 0
1, 70558, Note_on_c, 1, 63, 0
1, 70560, Note_on_c, 0, 71, 61
1, 70560, Note_on_c, 1, 62, 65
1, 70798, Note_on_c, 0, 71, 0
1, 70798, Note_on_c, 1, 62, 0
1, 70800, Note_on_c, 0, 74, 62
1, 70800, Note_on_c, 0, 77, 65
1, 70800, Note_on_c, 1, 55, 63
1, 71038, Note_on_c, 0, 74, 0
1, 71038, Note_on_c, 0, 77, 0
1, 71038, Note_on_c, 1, 55, 0
1, 71040, Note_on_c, 0, 74, 53
1, 71040, Note_on_c, 0, 77, 55
1, 71040, Note_on_c, 1, 60, 62
1, 71278, Note_on_c, 0, 74, 0
1, 71278, Note_on_c, 0, 77, 0
1, 71278, Note_on_c, 1, 60, 0
1, 71280, Note_on_c, 0, 72, 39
1, 71280, Note_on_c, 0, 75, 41
1, 71280, Note_on_c, 1, 54, 55
1, 71518, Note_on_c, 0, 72, 0
1, 71518, Note_on_c, 0, 75, 0
1, 71518, Note_on_c, 1, 54, 0
1, 71520, Note_on_c, 0, 74, 63
1, 71520, Note_on_c, 0, 71, 51
1, 71520, Note_on_c, 1, 55, 63
1, 71758, Note_on_c, 0, 74, 0
1, 71758, Note_on_c, 0, 71, 0
1, 71758, Note_on_c, 1, 55, 0
1, 71760, Note_on_c, 0, 76, 67
1, 71998, Note_on_c, 0, 76, 0
1, 72000, Note_on_c, 0, 79, 82
1, 72118, Note_on_c, 0, 79, 0
1, 72240, Note_on_c, 0, 72, 78
1, 72240, Note_on_c, 1, 64, 73
1, 72240, Note_on_c, 1, 60, 66
1, 72478, Note_on_c, 0, 72, 0
1, 72478, Note_on_c, 1, 64, 0
1, 72478, Note_on_c, 1, 60, 0
1, 72480, Note_on_c, 0, 71, 75
1, 72480, Note_on_c, 1, 62, 67
1, 72480, Note_on_c, 1, 65, 78
1, 72718, Note_on_c, 0, 71, 0
1, 72718, Note_on_c, 1, 62, 0
1, 72718, Note_on_c, 1, 65, 0
1, 72720, Note_on_c, 0, 70, 77
1, 72720, Note_on_c, 1, 64, 55
1, 72720, Note_on_c, 1, 67, 76
1, 72958, Note_on_c, 1, 64, 0
1, 72958, Note_on_c, 1, 67, 0
1, 72960, Note_on_c, 1, 65, 81
1, 73078, Note_on_c, 0, 70, 0
1, 73080, Note_on_c, 0, 69, 76
1, 73198, Note_on_c, 0, 69, 0
1, 73200, Note_on_c, 0, 68, 62
1, 73318, Note_on_c, 0, 68, 0
1, 73320, Note_on_c, 0, 69, 66
1, 73438, Note_on_c, 0, 69, 0
1, 73440, Note_on_c, 0, 71, 78
1, 73558, Note_on_c, 0, 71, 0
1, 73560, Note_on_c, 0, 69, 78
1, 73678, Note_on_c, 0, 69, 0
1, 73678, Note_on_c, 1, 65, 0
1, 73680, Note_on_c, 0, 73, 84
1, 73680, Note_on_c, 1, 64, 68
1, 73798, Note_on_c, 0, 73, 0
1, 73800, Note_on_c, 0, 69, 63
1, 73918, Note_on_c, 0, 69, 0
1, 73918, Note_on_c, 1, 64, 0
1, 73920, Note_on_c, 0, 74, 88
1, 73920, Note_on_c, 1, 65, 82
1, 74038, Note_on_c, 0, 74, 0
1, 74040, Note_on_c, 0, 69, 60
1, 74158, Note_on_c, 0, 69, 0
1, 74158, Note_on_c, 1, 65, 0
1, 74160, Note_on_c, 0, 76, 89
1, 74160, Note_on_c, 1, 61, 73
1, 74278, Note_on_c, 0, 76, 0
1, 74280, Note_on_c, 0, 69, 75
1, 74398, Note_on_c, 0, 69, 0
1, 74398, Note_on_c, 1, 61, 0
1, 74400, Note_on_c, 0, 77, 99
1, 74400, Note_on_c, 1, 62, 78
1, 74518, Note_on_c, 0, 77, 0
1, 74520, Note_on_c, 0, 69, 84
1, 74638, Note_on_c, 0, 69, 0
1, 74638, Note_on_c, 1, 62, 0
1, 74640, Note_on_c, 0, 79, 93
1, 74640, Note_on_c, 1, 64, 70
1, 74758, Note_on_c, 0, 79, 0
1, 74760, Note_on_c, 0, 69, 76
1, 74878, Note_on_c, 0, 69, 0
1, 74878, Note_on_c, 1, 64, 0
1, 74880, Note_on_c, 0, 81, 99
1, 74880, Note_on_c, 1, 65, 84
1, 75358, Note_on_c, 0, 81, 0
1, 75358, Note_on_c, 1, 65, 0
1, 75360, Note_on_c, 0, 79, 55
1, 75478, Note_on_c, 0, 79, 0
1, 75480, Note_on_c, 0, 77, 68
1, 75598, Note_on_c, 0, 77, 0
1, 75600, Note_on_c, 0, 76, 71
1, 75718, Note_on_c, 0, 76, 0
1, 75720, Note_on_c, 0, 74, 56
1, 75838, Note_on_c, 0, 74, 0
1, 75840, Note_on_c, 0, 73, 41
1, 75958, Note_on_c, 0, 73, 0
1, 75960, Note_on_c, 0, 74, 62
1, 76078, Note_on_c, 0, 74, 0
1, 76080, Note_on_c, 0, 76, 40
1, 76198, Note_on_c, 0, 76, 0
1, 76200, Note_on_c, 0, 74, 63
1, 76318, Note_on_c, 0, 74, 0
1, 76320, Note_on_c, 0, 79, 62
1, 76438, Note_on_c, 0, 79, 0
1, 76440, Note_on_c, 0, 77, 68
1, 76558, Note_on_c, 0, 77, 0
1, 76560, Note_on_c, 0, 76, 71
1, 76678, Note_on_c, 0, 76, 0
1, 76680, Note_on_c, 0, 74, 68
1, 76798, Note_on_c, 0, 74, 0
1, 76800, Note_on_c, 0, 72, 68
1, 77040, Note_on_c, 1, 66, 57
1, 77040, Note_on_c, 1, 69, 68
1, 77278, Note_on_c, 1, 66, 0
1, 77278, Note_on_c, 1, 69, 0
1, 77280, Note_on_c, 1, 67, 63
1, 77518, Note_on_c, 0, 72, 0
1, 77518, Note_on_c, 1, 67, 0
1, 77520, Note_on_c, 0, 76, 57
1, 77520, Note_on_c, 1, 55, 71
1, 77638, Note_on_c, 0, 76, 0
1, 77640, Note_on_c, 0, 74, 63
1, 77758, Note_on_c, 0, 74, 0
1, 77758, Note_on_c, 1, 55, 0
1, 77760, Note_on_c, 0, 72, 68
1, 77760, Note_on_c, 1, 60, 72
1, 77998, Note_on_c, 0, 72, 0
1, 77998, Note_on_c, 1, 60, 0
1, 78000, Note_on_c, 1, 48, 70
1, 78238, Note_on_c, 1, 48, 0
1, 78480, Note_on_c, 0, 74, 94
1, 78598, Note_on_c, 0, 74, 0
1, 78600, Note_on_c, 0, 71, 81
1, 78718, Note_on_c, 0, 71, 0
1, 78720, Note_on_c, 0, 74, 92
1, 78720, Note_on_c, 1, 62, 77
1, 78720, Note_on_c, 1, 55, 72
1, 78720, Note_on_c, 1, 59, 74
1, 78720, Note_on_c, 1, 65, 81
1, 78838, Note_on_c, 0, 74, 0
1, 78840, Note_on_c, 0, 71, 76
1, 78958, Note_on_c, 0, 71, 0
1, 78960, Note_on_c, 0, 77, 74
1, 79078, Note_on_c, 0, 77, 0
1, 79080, Note_on_c, 0, 74, 94
1, 79198, Note_on_c, 0, 74, 0
1, 79198, Note_on_c, 1, 62, 0
1, 79198, Note_on_c, 1, 55, 0
1, 79198, Note_on_c, 1, 59, 0
1, 79198, Note_on_c, 1, 65, 0
1, 79200, Note_on_c, 0, 71, 78
1, 79318, Note_on_c, 0, 71, 0
1, 79320, Note_on_c, 0, 67, 71
1, 79438, Note_on_c, 0, 67, 0
1, 79440, Note_on_c, 0, 74, 78
1, 79558, Note_on_c, 0, 74, 0
1, 79560, Note_on_c, 0, 71, 65
1, 79678, Note_on_c, 0, 71, 0
1, 79680, Note_on_c, 0, 74, 86
1, 79680, Note_on_c, 1, 59, 53
1, 79680, Note_on_c, 1, 62, 71
1, 79680, Note_on_c, 1, 65, 74
1, 79680, Note_on_c, 1, 55, 63
1, 79798, Note_on_c, 0, 74, 0
1, 79800, Note_on_c, 0, 71, 72
1, 79918, Note_on_c, 0, 71, 0
1, 79920, Note_on_c, 0, 77, 83
1, 80038, Note_on_c, 0, 77, 0
1, 80040, Note_on_c, 0, 74, 94
1, 80158, Note_on_c, 0, 74, 0
1, 80158, Note_on_c, 1, 59, 0
1, 80158, Note_on_c, 1, 62, 0
1, 80158, Note_on_c, 1, 65, 0
1, 80158, Note_on_c, 1, 55, 0
1, 80160, Note_on_c, 0, 71, 77
1, 80278, Note_on_c, 0, 71, 0
1, 80280, Note_on_c, 0, 67, 78
1, 80398, Note_on_c, 0, 67, 0
1, 80400, Note_on_c, 0, 74, 74
1, 80518, Note_on_c, 0, 74, 0
1, 80520, Note_on_c, 0, 71, 61
1, 80638, Note_on_c, 0, 71, 0
1, 80640, Note_on_c, 0, 74, 81
1, 80640, Note_on_c, 1, 62, 71
1, 80640, Note_on_c, 1, 59, 51
1, 80640, Note_on_c, 1, 55, 52
1, 80640, Note_on_c, 1, 65, 74
1, 80758, Note_on_c, 0, 74, 0
1, 80760, Note_on_c, 0, 71, 62
1, 80878, Note_on_c, 0, 71, 0
1, 80880, Note_on_c, 0, 77, 81
1, 80998, Note_on_c, 0, 77, 0
1, 81000, Note_on_c, 0, 74, 97
1, 81118, Note_on_c, 0, 74, 0
1, 81118, Note_on_c, 1, 62, 0
1, 81118, Note_on_c, 1, 59, 0
1, 81118, Note_on_c, 1, 55, 0
1, 81118, Note_on_c, 1, 65, 0
1, 81120, Note_on_c, 0, 71, 76
1, 81238, Note_on_c, 0, 71, 0
1, 81240, Note_on_c, 0, 67, 74
1, 81358, Note_on_c, 0, 67, 0
1, 81360, Note_on_c, 0, 74, 74
1, 81478, Note_on_c, 0, 74, 0
1, 81480, Note_on_c, 0, 71, 86
1, 81598, Note_on_c, 0, 71, 0
1, 81600, Note_on_c, 0, 67, 83
1, 81718, Note_on_c, 0, 67, 0
1, 81720, Note_on_c, 0, 65, 78
1, 81838, Note_on_c, 0, 65, 0
1, 81840, Note_on_c, 0, 71, 74
1, 81958, Note_on_c, 0, 71, 0
1, 81960, Note_on_c, 0, 67, 81
1, 82078, Note_on_c, 0, 67, 0
1, 82080, Note_on_c, 0, 65, 78
1, 82198, Note_on_c, 0, 65, 0
1, 82200, Note_on_c, 0, 62, 67
1, 82318, Note_on_c, 0, 62, 0
1, 82320, Note_on_c, 0, 65, 74
1, 82438, Note_on_c, 0, 65, 0
1, 82440, Note_on_c, 0, 62, 67
1, 82558, Note_on_c, 0, 62, 0
1, 82560, Note_on_c, 0, 59, 79
1, 82678, Note_on_c, 0, 59, 0
1, 83280, Note_on_c, 0, 79, 65
1, 83518, Note_on_c, 0, 79, 0
1, 83520, Note_on_c, 0, 72, 83
1, 83520, Note_on_c, 1, 57, 83
1, 83638, Note_on_c, 0, 72, 0
1, 83638, Note_on_c, 1, 57, 0
1, 83760, Note_on_c, 0, 76, 70
1, 83760, Note_on_c, 1, 60, 70
1, 83998, Note_on_c, 0, 76, 0
1, 83998, Note_on_c, 1, 60, 0
1, 84000, Note_on_c, 0, 69, 73
1, 84000, Note_on_c, 1, 53, 73
1, 84118, Note_on_c, 0, 69, 0
1, 84118, Note_on_c, 1, 53, 0
1, 84240, Note_on_c, 0, 81, 72
1, 84240, Note_on_c, 1, 65, 72
1, 84358, Note_on_c, 0, 81, 0
1, 84358, Note_on_c, 1, 65, 0
1, 84480, Note_on_c, 0, 72, 74
1, 84480, Note_on_c, 1, 55, 58
1, 84480, Note_on_c, 1, 64, 57
1, 84958, Note_on_c, 0, 72, 0
1, 84958, Note_on_c, 1, 64, 0
1, 84960, Note_on_c, 0, 71, 78
1, 84960, Note_on_c, 1, 62, 61
1, 85078, Note_on_c, 0, 71, 0
1, 85198, Note_on_c, 1, 62, 0
1, 85200, Note_on_c, 0, 79, 74
1, 85438, Note_on_c, 0, 79, 0
1, 85438, Note_on_c, 1, 55, 0
1, 85440, Note_on_c, 0, 72, 74
1, 85440, Note_on_c, 1, 57, 83
1, 85558, Note_on_c, 1, 57, 0
1, 85678, Note_on_c, 0, 72, 0
1, 85680, Note_on_c, 0, 76, 74
1, 85680, Note_on_c, 1, 60, 70
1, 85798, Note_on_c, 0, 76, 0
1, 85918, Note_on_c, 1, 60, 0
1, 85920, Note_on_c, 0, 69, 74
1, 85920, Note_on_c, 1, 53, 73
1, 86038, Note_on_c, 1, 53, 0
1, 86158, Note_on_c, 0, 69, 0
1, 86160, Note_on_c, 0, 81, 78
1, 86160, Note_on_c, 1, 65, 72
1, 86278, Note_on_c, 0, 81, 0
1, 86278, Note_on_c, 1, 65, 0
1, 86400, Note_on_c, 0, 72, 72
1, 86400, Note_on_c, 1, 64, 57
1, 86400, Note_on_c, 1, 55, 63
1, 86878, Note_on_c, 0, 72, 0
1, 86878, Note_on_c, 1, 64, 0
1, 86880, Note_on_c, 0, 71, 62
1, 86880, Note_on_c, 1, 62, 61
1, 87118, Note_on_c, 0, 71, 0
1, 87118, Note_on_c, 1, 55, 0
1, 87118, Note_on_c, 1, 62, 0
1, 87120, Note_on_c, 0, 79, 74
1, 87120, Note_on_c, 1, 53, 62
1, 87238, Note_on_c, 0, 79, 0
1, 87358, Note_on_c, 1, 53, 0
1, 87360, Note_on_c, 0, 70, 71
1, 87360, Note_on_c, 1, 52, 51
1, 87360, Note_on_c, 1, 61, 55
1, 87838, Note_on_c, 0, 70, 0
1, 87838, Note_on_c, 1, 52, 0
1, 87838, Note_on_c, 1, 61, 0
1, 87840, Note_on_c, 0, 69, 67
1, 87840, Note_on_c, 1, 53, 56
1, 87840, Note_on_c, 1, 62, 58
1, 87958, Note_on_c, 0, 69, 0
1, 88080, Note_on_c, 0, 77, 76
1, 88198, Note_on_c, 0, 77, 0
1, 88318, Note_on_c, 1, 53, 0
1, 88318, Note_on_c, 1, 62, 0
1, 88320, Note_on_c, 0, 68, 74
1, 88320, Note_on_c, 1, 59, 53
1, 88320, Note_on_c, 1, 65, 56
1, 88798, Note_on_c, 0, 68, 0
1, 88798, Note_on_c, 1, 59, 0
1, 88798, Note_on_c, 1, 65, 0
1, 88800, Note_on_c, 0, 67, 74
1, 88800, Note_on_c, 1, 60, 43
1, 88800, Note_on_c, 1, 64, 58
1, 88918, Note_on_c, 0, 67, 0
1, 89040, Note_on_c, 0, 72, 68
1, 89158, Note_on_c, 0, 72, 0
1, 89278, Note_on_c, 1, 60, 0
1, 89278, Note_on_c, 1, 64, 0
1, 89280, Note_on_c, 0, 62, 72
1, 89280, Note_on_c, 1, 53, 56
1, 89518, Note_on_c, 0, 62, 0
1, 89520, Note_on_c, 0, 69, 68
1, 89520, Note_on_c, 0, 65, 66
1, 89566, Note_on_c, 1, 53, 0
1, 89758, Note_on_c, 0, 69, 0
1, 89758, Note_on_c, 0, 65, 0
1, 89760, Note_on_c, 0, 64, 68
1, 89760, Note_on_c, 0, 67, 65
1, 89760, Note_on_c, 1, 43, 61
1, 89760, Note_on_c, 1, 55, 66
1, 89998, Note_on_c, 0, 64, 0
1, 89998, Note_on_c, 0, 67, 0
1, 90000, Note_on_c, 0, 59, 65
1, 90046, Note_on_c, 1, 43, 0
1, 90046, Note_on_c, 1, 55, 0
1, 90238, Note_on_c, 0, 59, 0
1, 90240, Note_on_c, 0, 60, 78
1, 90240, Note_on_c, 1, 48, 52
1, 90240, Note_on_c, 1, 36, 38
1, 90478, Note_on_c, 0, 60, 0
1, 90526, Note_on_c, 1, 48, 0
1, 90526, Note_on_c, 1, 36, 0
1, 90960, Note_on_c, 0, 79, 74
1, 91198, Note_on_c, 0, 79, 0
1, 91200, Note_on_c, 0, 72, 68
1, 91200, Note_on_c, 1, 57, 83
1, 91270, Note_on_c, 1, 57, 0
1, 91438, Note_on_c, 0, 72, 0
1, 91440, Note_on_c, 0, 76, 68
1, 91440, Note_on_c, 1, 60, 70
1, 91558, Note_on_c, 0, 76, 0
1, 91582, Note_on_c, 1, 60, 0
1, 91680, Note_on_c, 0, 69, 72
1, 91680, Note_on_c, 1, 53, 73
1, 91750, Note_on_c, 1, 53, 0
1, 91918, Note_on_c, 0, 69, 0
1, 91920, Note_on_c, 0, 81, 74
1, 91920, Note_on_c, 1, 65, 72
1, 91990, Note_on_c, 1, 65, 0
1, 92038, Note_on_c, 0, 81, 0
1, 92160, Note_on_c, 0, 72, 72
1, 92160, Note_on_c, 1, 64, 57
1, 92160, Note_on_c, 1, 55, 58
1, 92446, Note_on_c, 1, 64, 0
1, 92638, Note_on_c, 0, 72, 0
1, 92640, Note_on_c, 0, 71, 74
1, 92640, Note_on_c, 1, 62, 61
1, 92734, Note_on_c, 1, 55, 0
1, 92758, Note_on_c, 0, 71, 0
1, 92782, Note_on_c, 1, 62, 0
1, 92880, Note_on_c, 0, 79, 72
1, 92998, Note_on_c, 0, 79, 0
1, 93120, Note_on_c, 0, 72, 65
1, 93120, Note_on_c, 1, 57, 68
1, 93238, Note_on_c, 0, 72, 0
1, 93238, Note_on_c, 1, 57, 0
1, 93240, Note_on_c, 0, 74, 65
1, 93240, Note_on_c, 1, 59, 66
1, 93358, Note_on_c, 0, 74, 0
1, 93358, Note_on_c, 1, 59, 0
1, 93360, Note_on_c, 0, 76, 68
1, 93360, Note_on_c, 1, 60, 56
1, 93478, Note_on_c, 0, 76, 0
1, 93478, Note_on_c, 1, 60, 0
1, 93480, Note_on_c, 0, 72, 66
1, 93480, Note_on_c, 1, 57, 72
1, 93598, Note_on_c, 0, 72, 0
1, 93598, Note_on_c, 1, 57, 0
1, 93600, Note_on_c, 0, 69, 73
1, 93600, Note_on_c, 1, 53, 73
1, 93718, Note_on_c, 0, 69, 0
1, 93718, Note_on_c, 1, 53, 0
1, 93840, Note_on_c, 0, 81, 72
1, 93840, Note_on_c, 1, 65, 74
1, 93958, Note_on_c, 0, 81, 0
1, 93958, Note_on_c, 1, 65, 0
1, 94080, Note_on_c, 0, 72, 74
1, 94080, Note_on_c, 1, 55, 63
1, 94080, Note_on_c, 1, 64, 58
1, 94558, Note_on_c, 0, 72, 0
1, 94558, Note_on_c, 1, 64, 0
1, 94560, Note_on_c, 0, 71, 70
1, 94560, Note_on_c, 1, 62, 55
1, 94678, Note_on_c, 0, 71, 0
1, 94798, Note_on_c, 1, 55, 0
1, 94798, Note_on_c, 1, 62, 0
1, 94800, Note_on_c, 0, 79, 72
1, 94800, Note_on_c, 1, 64, 67
1, 94918, Note_on_c, 1, 64, 0
1, 94920, Note_on_c, 1, 65, 65
1, 95038, Note_on_c, 0, 79, 0
1, 95038, Note_on_c, 1, 65, 0
1, 95040, Note_on_c, 0, 70, 74
1, 95040, Note_on_c, 1, 67, 67
1, 95040, Note_on_c, 1, 61, 52
1, 95518, Note_on_c, 0, 70, 0
1, 95518, Note_on_c, 1, 67, 0
1, 95518, Note_on_c, 1, 61, 0
1, 95520, Note_on_c, 0, 69, 73
1, 95520, Note_on_c, 1, 65, 62
1, 95520, Note_on_c, 1, 62, 72
1, 95638, Note_on_c, 0, 69, 0
1, 95758, Note_on_c, 1, 65, 0
1, 95758, Note_on_c, 1, 62, 0
1, 95760, Note_on_c, 0, 77, 67
1, 95878, Note_on_c, 0, 77, 0
1, 96000, Note_on_c, 0, 68, 70
1, 96000, Note_on_c, 1, 65, 53
1, 96000, Note_on_c, 1, 59, 53
1, 96478, Note_on_c, 0, 68, 0
1, 96478, Note_on_c, 1, 65, 0
1, 96478, Note_on_c, 1, 59, 0
1, 96480, Note_on_c, 0, 67, 62
1, 96480, Note_on_c, 1, 60, 51
1, 96480, Note_on_c, 1, 64, 57
1, 96598, Note_on_c, 0, 67, 0
1, 96718, Note_on_c, 1, 60, 0
1, 96718, Note_on_c, 1, 64, 0
1, 96720, Note_on_c, 0, 72, 68
1, 96958, Note_on_c, 0, 72, 0
1, 96960, Note_on_c, 0, 62, 70
1, 96960, Note_on_c, 1, 53, 68
1, 97078, Note_on_c, 0, 62, 0
1, 97198, Note_on_c, 1, 53, 0
1, 97200, Note_on_c, 0, 65, 67
1, 97200, Note_on_c, 0, 69, 67
1, 97438, Note_on_c, 0, 65, 0
1, 97438, Note_on_c, 0, 69, 0
1, 97440, Note_on_c, 0, 64, 58
1, 97440, Note_on_c, 0, 67, 68
1, 97440, Note_on_c, 1, 43, 67
1, 97440, Note_on_c, 1, 55, 70
1, 97678, Note_on_c, 0, 64, 0
1, 97678, Note_on_c, 0, 67, 0
1, 97678, Note_on_c, 1, 43, 0
1, 97678, Note_on_c, 1, 55, 0
1, 97680, Note_on_c, 0, 59, 76
1, 97918, Note_on_c, 0, 59, 0
1, 97920, Note_on_c, 0, 60, 73
1, 98160, Note_on_c, 1, 36, 76
1, 98398, Note_on_c, 0, 60, 0
1, 98398, Note_on_c, 1, 36, 0
1, 98400, Note_on_c, 1, 48, 66
1, 98542, Note_on_c, 1, 48, 0
1, 98640, Note_on_c, 0, 65, 63
1, 98640, Note_on_c, 0, 59, 66
1, 98878, Note_on_c, 0, 65, 0
1, 98878, Note_on_c, 0, 59, 0
1, 98880, Note_on_c, 0, 60, 66
1, 98880, Note_on_c, 0, 64, 68
1, 98998, Note_on_c, 0, 60, 0
1, 98998, Note_on_c, 0, 64, 0
1, 99120, Note_on_c, 1, 36, 66
1, 99358, Note_on_c, 1, 36, 0
1, 99360, Note_on_c, 1, 48, 62
1, 99502, Note_on_c, 1, 48, 0
1, 99600, Note_on_c, 0, 65, 68
1, 99600, Note_on_c, 0, 69, 60
1, 99838, Note_on_c, 0, 65, 0
1, 99838, Note_on_c, 0, 69, 0
1, 99840, Note_on_c, 0, 64, 62
1, 99840, Note_on_c, 0, 67, 70
1, 99958, Note_on_c, 0, 64, 0
1, 99958, Note_on_c, 0, 67, 0
1, 100080, Note_on_c, 1, 36, 62
1, 100318, Note_on_c, 1, 36, 0
1, 100320, Note_on_c, 1, 48, 62
1, 100462, Note_on_c, 1, 48, 0
1, 100560, Note_on_c, 0, 71, 66
1, 100560, Note_on_c, 0, 77, 68
1, 100798, Note_on_c, 0, 71, 0
1, 100798, Note_on_c, 0, 77, 0
1, 100800, Note_on_c, 0, 72, 56
1, 100800, Note_on_c, 0, 76, 63
1, 100918, Note_on_c, 0, 72, 0
1, 100918, Note_on_c, 0, 76, 0
1, 101040, Note_on_c, 1, 36, 74
1, 101278, Note_on_c, 1, 36, 0
1, 101280, Note_on_c, 1, 48, 61
1, 101422, Note_on_c, 1, 48, 0
1, 101520, Note_on_c, 0, 74, 63
1, 101520, Note_on_c, 0, 83, 74
1, 101758, Note_on_c, 0, 74, 0
1, 101758, Note_on_c, 0, 83, 0
1, 101760, Note_on_c, 0, 76, 46
1, 101760, Note_on_c, 0, 84, 70
1, 101878, Note_on_c, 0, 76, 0
1, 101878, Note_on_c, 0, 84, 0
1, 102480, Note_on_c, 0, 72, 86
1, 102598, Note_on_c, 0, 72, 0
1, 102600, Note_on_c, 0, 69, 107
1, 102718, Note_on_c, 0, 69, 0
1, 102720, Note_on_c, 0, 72, 96
1, 102720, Note_on_c, 1, 57, 82
1, 102720, Note_on_c, 1, 60, 75
1, 102720, Note_on_c, 1, 54, 86
1, 102838, Note_on_c, 0, 72, 0
1, 102840, Note_on_c, 0, 69, 104
1, 102958, Note_on_c, 0, 69, 0
1, 102960, Note_on_c, 0, 75, 84
1, 103078, Note_on_c, 0, 75, 0
1, 103080, Note_on_c, 0, 72, 83
1, 103198, Note_on_c, 0, 72, 0
1, 103198, Note_on_c, 1, 57, 0
1, 103198, Note_on_c, 1, 60, 0
1, 103198, Note_on_c, 1, 54, 0
1, 103200, Note_on_c, 0, 69, 99
1, 103318, Note_on_c, 0, 69, 0
1, 103320, Note_on_c, 0, 78, 99
1, 103438, Note_on_c, 0, 78, 0
1, 103440, Note_on_c, 0, 75, 84
1, 103558, Note_on_c, 0, 75, 0
1, 103560, Note_on_c, 0, 72, 93
1, 103678, Note_on_c, 0, 72, 0
1, 103680, Note_on_c, 0, 69, 102
1, 103798, Note_on_c, 0, 69, 0
1, 103800, Note_on_c, 0, 81, 91
1, 103918, Note_on_c, 0, 81, 0
1, 103920, Note_on_c, 0, 78, 87
1, 104038, Note_on_c, 0, 78, 0
1, 104040, Note_on_c, 0, 75, 81
1, 104158, Note_on_c, 0, 75, 0
1, 104160, Note_on_c, 0, 72, 93
1, 104278, Note_on_c, 0, 72, 0
1, 104280, Note_on_c, 0, 84, 93
1, 104398, Note_on_c, 0, 84, 0
1, 104400, Note_on_c, 0, 81, 87
1, 104518, Note_on_c, 0, 81, 0
1, 104520, Note_on_c, 0, 78, 81
1, 104638, Note_on_c, 0, 78, 0
1, 104640, Note_on_c, 0, 75, 82
1, 104878, Note_on_c, 0, 75, 0
1, 104880, Note_on_c, 1, 66, 60
1, 104880, Note_on_c, 1, 69, 57
1, 104880, Note_on_c, 1, 72, 70
1, 104998, Note_on_c, 1, 66, 0
1, 104998, Note_on_c, 1, 69, 0
1, 104998, Note_on_c, 1, 72, 0
1, 105120, Note_on_c, 1, 66, 56
1, 105120, Note_on_c, 1, 69, 62
1, 105120, Note_on_c, 1, 72, 68
1, 105238, Note_on_c, 1, 66, 0
1, 105238, Note_on_c, 1, 69, 0
1, 105238, Note_on_c, 1, 72, 0
1, 105240, Note_on_c, 0, 84, 66
1, 105358, Note_on_c, 0, 84, 0
1, 105360, Note_on_c, 0, 81, 74
1, 105478, Note_on_c, 0, 81, 0
1, 105480, Note_on_c, 0, 78, 61
1, 105598, Note_on_c, 0, 78, 0
1, 105600, Note_on_c, 0, 74, 74
1, 105838, Note_on_c, 0, 74, 0
1, 105840, Note_on_c, 1, 72, 70
1, 105840, Note_on_c, 1, 69, 57
1, 105840, Note_on_c, 1, 66, 60
1, 105958, Note_on_c, 1, 72, 0
1, 105958, Note_on_c, 1, 69, 0
1, 105958, Note_on_c, 1, 66, 0
1, 106080, Note_on_c, 1, 72, 68
1, 106080, Note_on_c, 1, 69, 62
1, 106080, Note_on_c, 1, 66, 56
1, 106198, Note_on_c, 1, 72, 0
1, 106198, Note_on_c, 1, 69, 0
1, 106198, Note_on_c, 1, 66, 0
1, 106200, Note_on_c, 0, 84, 55
1, 106318, Note_on_c, 0, 84, 0
1, 106320, Note_on_c, 0, 81, 72
1, 106431, Tempo, 387097
1, 106438, Note_on_c, 0, 81, 0
1, 106440, Note_on_c, 0, 78, 66
1, 106545, Tempo, 392157
1, 106558, Note_on_c, 0, 78, 0
1, 106560, Note_on_c, 0, 75, 77
1, 106678, Note_on_c, 0, 75, 0
1, 106800, Note_on_c, 1, 72, 58
1, 106800, Note_on_c, 1, 69, 45
1, 106800, Note_on_c, 1, 66, 48
1, 106850, Tempo, 402685
1, 106918, Note_on_c, 1, 72, 0
1, 106918, Note_on_c, 1, 69, 0
1, 106918, Note_on_c, 1, 66, 0
1, 107040, Note_on_c, 1, 72, 56
1, 107040, Note_on_c, 1, 69, 50
1, 107040, Note_on_c, 1, 66, 44
1, 107154, Tempo, 413793
1, 107158, Note_on_c, 1, 72, 0
1, 107158, Note_on_c, 1, 69, 0
1, 107158, Note_on_c, 1, 66, 0
1, 107160, Note_on_c, 0, 84, 50
1, 107278, Note_on_c, 0, 84, 0
1, 107280, Note_on_c, 0, 81, 62
1, 107398, Note_on_c, 0, 81, 0
1, 107400, Note_on_c, 0, 78, 53
1, 107458, Tempo, 425532
1, 107518, Note_on_c, 0, 78, 0
1, 107520, Note_on_c, 0, 74, 54
1, 107724, Tempo, 434783
1, 107758, Note_on_c, 0, 74, 0
1, 107791, Tempo, 387097
1, 108240, Note_on_c, 0, 74, 72
1, 108358, Note_on_c, 0, 74, 0
1, 108480, Note_on_c, 0, 67, 72
1, 108480, Note_on_c, 1, 58, 44
1, 108480, Note_on_c, 1, 55, 53
1, 108718, Note_on_c, 0, 67, 0
1, 108718, Note_on_c, 1, 58, 0
1, 108718, Note_on_c, 1, 55, 0
1, 108720, Note_on_c, 0, 70, 57
1, 108838, Note_on_c, 0, 70, 0
1, 108960, Note_on_c, 0, 63, 68
1, 108960, Note_on_c, 1, 60, 56
1, 108960, Note_on_c, 1, 48, 53
1, 109078, Note_on_c, 0, 63, 0
1, 109198, Note_on_c, 1, 60, 0
1, 109198, Note_on_c, 1, 48, 0
1, 109200, Note_on_c, 0, 75, 66
1, 109318, Note_on_c, 0, 75, 0
1, 109440, Note_on_c, 0, 67, 67
1, 109440, Note_on_c, 1, 58, 63
1, 109440, Note_on_c, 1, 50, 65
1, 109918, Note_on_c, 0, 67, 0
1, 109918, Note_on_c, 1, 58, 0
1, 109918, Note_on_c, 1, 50, 0
1, 109920, Note_on_c, 0, 66, 62
1, 109920, Note_on_c, 1, 57, 51
1, 110038, Note_on_c, 0, 66, 0
1, 110158, Note_on_c, 1, 57, 0
1, 110160, Note_on_c, 0, 72, 72
1, 110398, Note_on_c, 0, 72, 0
1, 110400, Note_on_c, 0, 69, 66
1, 110638, Note_on_c, 0, 69, 0
1, 110640, Note_on_c, 0, 81, 76
1, 110758, Note_on_c, 0, 81, 0
1, 110880, Note_on_c, 0, 72, 70
1, 110880, Note_on_c, 1, 66, 62
1, 111118, Note_on_c, 0, 72, 0
1, 111120, Note_on_c, 0, 84, 72
1, 111238, Note_on_c, 0, 84, 0
1, 111358, Note_on_c, 1, 66, 0
1, 111360, Note_on_c, 0, 72, 66
1, 111360, Note_on_c, 1, 67, 66
1, 111598, Note_on_c, 1, 67, 0
1, 111600, Note_on_c, 1, 55, 71
1, 111718, Note_on_c, 1, 55, 0
1, 111838, Note_on_c, 0, 72, 0
1, 111840, Note_on_c, 0, 70, 52
1, 111958, Note_on_c, 0, 70, 0
1, 112080, Note_on_c, 1, 58, 65
1, 112318, Note_on_c, 1, 58, 0
1, 112320, Note_on_c, 1, 55, 72
1, 112558, Note_on_c, 1, 55, 0
1, 112560, Note_on_c, 1, 58, 65
1, 112798, Note_on_c, 1, 58, 0
1, 112800, Note_on_c, 0, 70, 58
1, 112800, Note_on_c, 0, 67, 66
1, 112800, Note_on_c, 1, 51, 65
1, 113038, Note_on_c, 1, 51, 0
1, 113040, Note_on_c, 1, 63, 67
1, 113278, Note_on_c, 0, 70, 0
1, 113278, Note_on_c, 0, 67, 0
1, 113278, Note_on_c, 1, 63, 0
1, 113280, Note_on_c, 0, 65, 45
1, 113280, Note_on_c, 0, 68, 56
1, 113280, Note_on_c, 1, 63, 63
1, 113758, Note_on_c, 1, 63, 0
1, 113760, Note_on_c, 1, 62, 74
1, 113998, Note_on_c, 0, 65, 0
1, 113998, Note_on_c, 0, 68, 0
1, 113998, Note_on_c, 1, 62, 0
1, 114000, Note_on_c, 1, 65, 74
1, 114238, Note_on_c, 1, 65, 0
1, 114240, Note_on_c, 1, 62, 76
1, 114478, Note_on_c, 1, 62, 0
1, 114480, Note_on_c, 1, 65, 68
1, 114718, Note_on_c, 1, 65, 0
1, 114720, Note_on_c, 0, 74, 62
1, 114720, Note_on_c, 0, 70, 61
1, 114720, Note_on_c, 1, 58, 66
1, 114958, Note_on_c, 1, 58, 0
1, 114960, Note_on_c, 1, 68, 67
1, 115198, Note_on_c, 0, 74, 0
1, 115198, Note_on_c, 0, 70, 0
1, 115198, Note_on_c, 1, 68, 0
1, 115200, Note_on_c, 0, 70, 52
1, 115200, Note_on_c, 0, 75, 63
1, 115200, Note_on_c, 1, 68, 68
1, 115678, Note_on_c, 1, 68, 0
1, 115680, Note_on_c, 1, 67, 65
1, 115918, Note_on_c, 0, 70, 0
1, 115918, Note_on_c, 0, 75, 0
1, 115918, Note_on_c, 1, 67, 0
1, 115920, Note_on_c, 1, 70, 62
1, 116158, Note_on_c, 1, 70, 0
1, 116160, Note_on_c, 1, 67, 68
1, 116398, Note_on_c, 1, 67, 0
1, 116400, Note_on_c, 1, 70, 66
1, 116638, Note_on_c, 1, 70, 0
1, 116640, Note_on_c, 0, 73, 60
1, 116640, Note_on_c, 1, 65, 68
1, 116878, Note_on_c, 1, 65, 0
1, 116880, Note_on_c, 1, 70, 52
1, 117118, Note_on_c, 0, 73, 0
1, 117118, Note_on_c, 1, 70, 0
1, 117120, Note_on_c, 0, 82, 70
1, 117120, Note_on_c, 1, 64, 65
1, 117358, Note_on_c, 0, 82, 0
1, 117358, Note_on_c, 1, 64, 0
1, 117360, Note_on_c, 0, 72, 40
1, 117360, Note_on_c, 1, 67, 65
1, 117598, Note_on_c, 0, 72, 0
1, 117598, Note_on_c, 1, 67, 0
1, 117600, Note_on_c, 0, 80, 73
1, 117600, Note_on_c, 1, 65, 53
1, 117838, Note_on_c, 0, 80, 0
1, 117838, Note_on_c, 1, 65, 0
1, 117840, Note_on_c, 0, 72, 41
1, 117840, Note_on_c, 1, 68, 63
1, 118078, Note_on_c, 0, 72, 0
1, 118078, Note_on_c, 1, 68, 0
1, 118080, Note_on_c, 0, 80, 70
1, 118080, Note_on_c, 1, 62, 65
1, 118318, Note_on_c, 0, 80, 0
1, 118318, Note_on_c, 1, 62, 0
1, 118320, Note_on_c, 0, 70, 33
1, 118320, Note_on_c, 1, 65, 66
1, 118558, Note_on_c, 0, 70, 0
1, 118558, Note_on_c, 1, 65, 0
1, 118560, Note_on_c, 0, 79, 68
1, 118560, Note_on_c, 1, 63, 57
1, 118798, Note_on_c, 0, 79, 0
1, 118798, Note_on_c, 1, 63, 0
1, 118800, Note_on_c, 0, 70, 43
1, 118800, Note_on_c, 1, 67, 65
1, 119038, Note_on_c, 0, 70, 0
1, 119038, Note_on_c, 1, 67, 0
1, 119040, Note_on_c, 0, 79, 65
1, 119040, Note_on_c, 1, 60, 68
1, 119278, Note_on_c, 0, 79, 0
1, 119278, Note_on_c, 1, 60, 0
1, 119280, Note_on_c, 0, 68, 40
1, 119280, Note_on_c, 1, 63, 61
1, 119518, Note_on_c, 0, 68, 0
1, 119518, Note_on_c, 1, 63, 0
1, 119520, Note_on_c, 0, 77, 67
1, 119520, Note_on_c, 1, 62, 68
1, 119758, Note_on_c, 0, 77, 0
1, 119758, Note_on_c, 1, 62, 0
1, 119760, Note_on_c, 0, 68, 56
1, 119760, Note_on_c, 1, 65, 71
1, 119998, Note_on_c, 0, 68, 0
1, 119998, Note_on_c, 1, 65, 0
1, 120000, Note_on_c, 0, 77, 72
1, 120000, Note_on_c, 1, 59, 67
1, 120238, Note_on_c, 0, 77, 0
1, 120238, Note_on_c, 1, 59, 0
1, 120240, Note_on_c, 0, 67, 52
1, 120240, Note_on_c, 1, 62, 50
1, 120478, Note_on_c, 0, 67, 0
1, 120478, Note_on_c, 1, 62, 0
1, 120480, Note_on_c, 0, 75, 66
1, 120480, Note_on_c, 1, 60, 65
1, 120718, Note_on_c, 0, 75, 0
1, 120718, Note_on_c, 1, 60, 0
1, 120720, Note_on_c, 0, 67, 58
1, 120720, Note_on_c, 1, 63, 53
1, 120958, Note_on_c, 0, 67, 0
1, 120958, Note_on_c, 1, 63, 0
1, 120960, Note_on_c, 0, 75, 68
1, 120960, Note_on_c, 1, 57, 58
1, 121198, Note_on_c, 0, 75, 0
1, 121198, Note_on_c, 1, 57, 0
1, 121200, Note_on_c, 0, 66, 51
1, 121200, Note_on_c, 1, 60, 65
1, 121438, Note_on_c, 0, 66, 0
1, 121438, Note_on_c, 1, 60, 0
1, 121440, Note_on_c, 0, 74, 68
1, 121440, Note_on_c, 1, 58, 60
1, 121678, Note_on_c, 0, 74, 0
1, 121678, Note_on_c, 1, 58, 0
1, 121680, Note_on_c, 0, 67, 48
1, 121680, Note_on_c, 1, 62, 56
1, 121918, Note_on_c, 0, 67, 0
1, 121918, Note_on_c, 1, 62, 0
1, 121920, Note_on_c, 0, 74, 72
1, 121920, Note_on_c, 1, 58, 68
1, 122158, Note_on_c, 0, 74, 0
1, 122158, Note_on_c, 1, 58, 0
1, 122160, Note_on_c, 0, 68, 56
1, 122160, Note_on_c, 1, 62, 68
1, 122398, Note_on_c, 0, 68, 0
1, 122398, Note_on_c, 1, 62, 0
1, 122400, Note_on_c, 0, 74, 68
1, 122400, Note_on_c, 1, 58, 55
1, 122638, Note_on_c, 0, 74, 0
1, 122638, Note_on_c, 1, 58, 0
1, 122640, Note_on_c, 0, 65, 66
1, 122640, Note_on_c, 0, 68, 56
1, 122640, Note_on_c, 1, 62, 56
1, 122878, Note_on_c, 0, 65, 0
1, 122878, Note_on_c, 0, 68, 0
1, 122878, Note_on_c, 1, 62, 0
1, 122880, Note_on_c, 0, 69, 66
1, 122880, Note_on_c, 0, 64, 65
1, 122880, Note_on_c, 1, 61, 65
1, 123118, Note_on_c, 1, 61, 0
1, 123120, Note_on_c, 1, 49, 66
1, 123358, Note_on_c, 0, 69, 0
1, 123358, Note_on_c, 0, 64, 0
1, 123358, Note_on_c, 1, 49, 0
1, 123360, Note_on_c, 0, 74, 77
1, 123360, Note_on_c, 1, 58, 67
1, 123598, Note_on_c, 0, 74, 0
1, 123598, Note_on_c, 1, 58, 0
1, 123600, Note_on_c, 0, 62, 67
1, 123600, Note_on_c, 0, 68, 73
1, 123600, Note_on_c, 1, 46, 52
1, 123838, Note_on_c, 0, 62, 0
1, 123838, Note_on_c, 0, 68, 0
1, 123838, Note_on_c, 1, 46, 0
1, 123840, Note_on_c, 0, 69, 70
1, 123840, Note_on_c, 0, 61, 67
1, 123840, Note_on_c, 1, 57, 68
1, 124078, Note_on_c, 1, 57, 0
1, 124080, Note_on_c, 1, 45, 65
1, 124318, Note_on_c, 0, 69, 0
1, 124318, Note_on_c, 0, 61, 0
1, 124318, Note_on_c, 1, 45, 0
1, 124320, Note_on_c, 0, 74, 76
1, 124320, Note_on_c, 1, 58, 68
1, 124558, Note_on_c, 0, 74, 0
1, 124558, Note_on_c, 1, 58, 0
1, 124560, Note_on_c, 0, 68, 63
1, 124560, Note_on_c, 0, 62, 60
1, 124560, Note_on_c, 1, 46, 62
1, 124798, Note_on_c, 0, 68, 0
1, 124798, Note_on_c, 0, 62, 0
1, 124798, Note_on_c, 1, 46, 0
1, 124800, Note_on_c, 0, 69, 74
1, 124800, Note_on_c, 0, 61, 65
1, 124800, Note_on_c, 1, 57, 77
1, 125038, Note_on_c, 1, 57, 0
1, 125040, Note_on_c, 1, 45, 74
1, 125278, Note_on_c, 0, 69, 0
1, 125278, Note_on_c, 0, 61, 0
1, 125278, Note_on_c, 1, 45, 0
1, 125520, Note_on_c, 0, 76, 74
1, 125638, Note_on_c, 0, 76, 0
1, 125640, Note_on_c, 0, 73, 74
1, 125758, Note_on_c, 0, 73, 0
1, 125760, Note_on_c, 0, 76, 78
1, 125760, Note_on_c, 1, 64, 78
1, 125760, Note_on_c, 1, 61, 66
1, 125760, Note_on_c, 1, 57, 71
1, 125760, Note_on_c, 1, 55, 65
1, 125878, Note_on_c, 0, 76, 0
1, 125880, Note_on_c, 0, 73, 74
1, 125998, Note_on_c, 0, 73, 0
1, 126000, Note_on_c, 0, 79, 89
1, 126118, Note_on_c, 0, 79, 0
1, 126120, Note_on_c, 0, 76, 76
1, 126238, Note_on_c, 0, 76, 0
1, 126238, Note_on_c, 1, 64, 0
1, 126238, Note_on_c, 1, 61, 0
1, 126238, Note_on_c, 1, 57, 0
1, 126238, Note_on_c, 1, 55, 0
1, 126240, Note_on_c, 0, 73, 77
1, 126358, Note_on_c, 0, 73, 0
1, 126360, Note_on_c, 0, 69, 76
1, 126478, Note_on_c, 0, 69, 0
1, 126480, Note_on_c, 0, 76, 74
1, 126598, Note_on_c, 0, 76, 0
1, 126600, Note_on_c, 0, 73, 65
1, 126718, Note_on_c, 0, 73, 0
1, 126720, Note_on_c, 0, 76, 78
1, 126720, Note_on_c, 1, 61, 60
1, 126720, Note_on_c, 1, 64, 74
1, 126720, Note_on_c, 1, 55, 71
1, 126720, Note_on_c, 1, 57, 65
1, 126838, Note_on_c, 0, 76, 0
1, 126840, Note_on_c, 0, 73, 68
1, 126958, Note_on_c, 0, 73, 0
1, 126960, Note_on_c, 0, 79, 81
1, 127078, Note_on_c, 0, 79, 0
1, 127080, Note_on_c, 0, 76, 77
1, 127198, Note_on_c, 0, 76, 0
1, 127198, Note_on_c, 1, 61, 0
1, 127198, Note_on_c, 1, 64, 0
1, 127198, Note_on_c, 1, 55, 0
1, 127198, Note_on_c, 1, 57, 0
1, 127200, Note_on_c, 0, 73, 68
1, 127318, Note_on_c, 0, 73, 0
1, 127320, Note_on_c, 0, 69, 74
1, 127438, Note_on_c, 0, 69, 0
1, 127440, Note_on_c, 0, 81, 78
1, 127558, Note_on_c, 0, 81, 0
1, 127560, Note_on_c, 0, 77, 77
1, 127678, Note_on_c, 0, 77, 0
1, 127680, Note_on_c, 0, 74, 77
1, 127680, Note_on_c, 1, 62, 68
1, 127680, Note_on_c, 1, 53, 68
1, 127798, Note_on_c, 0, 74, 0
1, 127800, Note_on_c, 0, 69, 74
1, 127918, Note_on_c, 0, 69, 0
1, 127920, Note_on_c, 0, 81, 73
1, 128038, Note_on_c, 0, 81, 0
1, 128040, Note_on_c, 0, 79, 68
1, 128158, Note_on_c, 0, 79, 0
1, 128158, Note_on_c, 1, 62, 0
1, 128158, Note_on_c, 1, 53, 0
1, 128160, Note_on_c, 0, 76, 76
1, 128160, Note_on_c, 1, 61, 66
1, 128160, Note_on_c, 1, 55, 60
1, 128278, Note_on_c, 0, 76, 0
1, 128280, Note_on_c, 0, 69, 68
1, 128398, Note_on_c, 0, 69, 0
1, 128400, Note_on_c, 0, 81, 74
1, 128518, Note_on_c, 0, 81, 0
1, 128520, Note_on_c, 0, 77, 74
1, 128638, Note_on_c, 0, 77, 0
1, 128638, Note_on_c, 1, 61, 0
1, 128638, Note_on_c, 1, 55, 0
1, 128640, Note_on_c, 0, 74, 74
1, 128640, Note_on_c, 1, 53, 60
1, 128640, Note_on_c, 1, 62, 70
1, 128758, Note_on_c, 0, 74, 0
1, 128760, Note_on_c, 0, 69, 65
1, 128878, Note_on_c, 0, 69, 0
1, 128880, Note_on_c, 0, 81, 74
1, 128998, Note_on_c, 0, 81, 0
1, 129000, Note_on_c, 0, 79, 74
1, 129118, Note_on_c, 0, 79, 0
1, 129118, Note_on_c, 1, 53, 0
1, 129118, Note_on_c, 1, 62, 0
1, 129120, Note_on_c, 0, 76, 62
1, 129120, Note_on_c, 1, 61, 47
1, 129120, Note_on_c, 1, 55, 51
1, 129238, Note_on_c, 0, 76, 0
1, 129240, Note_on_c, 0, 69, 66
1, 129358, Note_on_c, 0, 69, 0
1, 129360, Note_on_c, 0, 81, 76
1, 129478, Note_on_c, 0, 81, 0
1, 129480, Note_on_c, 0, 77, 66
1, 129598, Note_on_c, 0, 77, 0
1, 129598, Note_on_c, 1, 61, 0
1, 129598, Note_on_c, 1, 55, 0
1, 129600, Note_on_c, 0, 74, 78
1, 129600, Note_on_c, 1, 62, 67
1, 129600, Note_on_c, 1, 53, 58
1, 129718, Note_on_c, 0, 74, 0
1, 129720, Note_on_c, 0, 69, 73
1, 129838, Note_on_c, 0, 69, 0
1, 129840, Note_on_c, 0, 81, 78
1, 129958, Note_on_c, 0, 81, 0
1, 129960, Note_on_c, 0, 79, 76
1, 130078, Note_on_c, 0, 79, 0
1, 130078, Note_on_c, 1, 62, 0
1, 130078, Note_on_c, 1, 53, 0
1, 130080, Note_on_c, 0, 77, 73
1, 130198, Note_on_c, 0, 77, 0
1, 130200, Note_on_c, 0, 76, 76
1, 130318, Note_on_c, 0, 76, 0
1, 130320, Note_on_c, 0, 74, 72
1, 130438, Note_on_c, 0, 74, 0
1, 130440, Note_on_c, 0, 72, 72
1, 130558, Note_on_c, 0, 72, 0
1, 130560, Note_on_c, 0, 70, 68
1, 130678, Note_on_c, 0, 70, 0
1, 130680, Note_on_c, 0, 69, 62
1, 130798, Note_on_c, 0, 69, 0
1, 130800, Note_on_c, 0, 67, 66
1, 130918, Note_on_c, 0, 67, 0
1, 130920, Note_on_c, 0, 65, 68
1, 131038, Note_on_c, 0, 65, 0
1, 131040, Note_on_c, 0, 64, 73
1, 131158, Note_on_c, 0, 64, 0
1, 131160, Note_on_c, 0, 62, 76
1, 131278, Note_on_c, 0, 62, 0
1, 131280, Note_on_c, 0, 61, 66
1, 131398, Note_on_c, 0, 61, 0
1, 131400, Note_on_c, 0, 62, 68
1, 131518, Note_on_c, 0, 62, 0
1, 131520, Note_on_c, 0, 63, 68
1, 131520, Note_on_c, 1, 43, 77
1, 131638, Note_on_c, 1, 43, 0
1, 131640, Note_on_c, 1, 55, 61
1, 131758, Note_on_c, 1, 55, 0
1, 131760, Note_on_c, 1, 54, 58
1, 131878, Note_on_c, 1, 54, 0
1, 131880, Note_on_c, 1, 55, 67
1, 131998, Note_on_c, 0, 63, 0
1, 131998, Note_on_c, 1, 55, 0
1, 132000, Note_on_c, 1, 58, 65
1, 132238, Note_on_c, 1, 58, 0
1, 132240, Note_on_c, 0, 67, 62
1, 132240, Note_on_c, 0, 63, 62
1, 132478, Note_on_c, 0, 67, 0
1, 132478, Note_on_c, 0, 63, 0
1, 132480, Note_on_c, 1, 57, 73
1, 132598, Note_on_c, 1, 57, 0
1, 132720, Note_on_c, 0, 62, 72
1, 132720, Note_on_c, 0, 65, 78
1, 132838, Note_on_c, 0, 62, 0
1, 132838, Note_on_c, 0, 65, 0
1, 132960, Note_on_c, 1, 45, 73
1, 133078, Note_on_c, 1, 45, 0
1, 133200, Note_on_c, 0, 61, 70
1, 133318, Note_on_c, 0, 61, 0
1, 133440, Note_on_c, 0, 62, 72
1, 133680, Note_on_c, 1, 50, 66
1, 133918, Note_on_c, 0, 62, 0
1, 133918, Note_on_c, 1, 50, 0
1, 133920, Note_on_c, 1, 38, 74
1, 134038, Note_on_c, 1, 38, 0
1, 134160, Note_on_c, 0, 69, 76
1, 134398, Note_on_c, 0, 69, 0
1, 134400, Note_on_c, 0, 62, 66
1, 134638, Note_on_c, 0, 62, 0
1, 134640, Note_on_c, 0, 65, 65
1, 134758, Note_on_c, 0, 65, 0
1, 134880, Note_on_c, 0, 58, 68
1, 135118, Note_on_c, 0, 58, 0
1, 135120, Note_on_c, 0, 70, 71
1, 135120, Note_on_c, 1, 55, 66
1, 135238, Note_on_c, 0, 70, 0
1, 135238, Note_on_c, 1, 55, 0
1, 135360, Note_on_c, 0, 64, 74
1, 135360, Note_on_c, 1, 48, 71
1, 135478, Note_on_c, 0, 64, 0
1, 135478, Note_on_c, 1, 48, 0
1, 135480, Note_on_c, 0, 65, 66
1, 135480, Note_on_c, 1, 50, 51
1, 135598, Note_on_c, 0, 65, 0
1, 135598, Note_on_c, 1, 50, 0
1, 135600, Note_on_c, 0, 67, 71
1, 135600, Note_on_c, 1, 52, 62
1, 135718, Note_on_c, 0, 67, 0
1, 135718, Note_on_c, 1, 52, 0
1, 135720, Note_on_c, 0, 64, 63
1, 135720, Note_on_c, 1, 48, 68
1, 135838, Note_on_c, 0, 64, 0
1, 135838, Note_on_c, 1, 48, 0
1, 135840, Note_on_c, 0, 60, 72
1, 135840, Note_on_c, 1, 45, 62
1, 136078, Note_on_c, 0, 60, 0
1, 136078, Note_on_c, 1, 45, 0
1, 136080, Note_on_c, 0, 72, 74
1, 136080, Note_on_c, 1, 57, 70
1, 136198, Note_on_c, 0, 72, 0
1, 136198, Note_on_c, 1, 57, 0
1, 136320, Note_on_c, 0, 65, 70
1, 136320, Note_on_c, 1, 50, 73
1, 136558, Note_on_c, 0, 65, 0
1, 136558, Note_on_c, 1, 50, 0
1, 136560, Note_on_c, 0, 69, 65
1, 136560, Note_on_c, 1, 53, 68
1, 136678, Note_on_c, 0, 69, 0
1, 136678, Note_on_c, 1, 53, 0
1, 136800, Note_on_c, 0, 62, 78
1, 136800, Note_on_c, 1, 46, 58
1, 137038, Note_on_c, 0, 62, 0
1, 137038, Note_on_c, 1, 46, 0
1, 137040, Note_on_c, 0, 74, 81
1, 137040, Note_on_c, 1, 58, 67
1, 137158, Note_on_c, 0, 74, 0
1, 137158, Note_on_c, 1, 58, 0
1, 137280, Note_on_c, 0, 67, 73
1, 137280, Note_on_c, 1, 52, 72
1, 137398, Note_on_c, 0, 67, 0
1, 137398, Note_on_c, 1, 52, 0
1, 137400, Note_on_c, 0, 69, 72
1, 137400, Note_on_c, 1, 53, 62
1, 137518, Note_on_c, 0, 69, 0
1, 137518, Note_on_c, 1, 53, 0
1, 137520, Note_on_c, 0, 70, 74
1, 137520, Note_on_c, 1, 55, 57
1, 137638, Note_on_c, 0, 70, 0
1, 137638, Note_on_c, 1, 55, 0
1, 137640, Note_on_c, 0, 67, 71
1, 137640, Note_on_c, 1, 52, 66
1, 137758, Note_on_c, 0, 67, 0
1, 137758, Note_on_c, 1, 52, 0
1, 137760, Note_on_c, 0, 64, 70
1, 137760, Note_on_c, 1, 48, 41
1, 137998, Note_on_c, 0, 64, 0
1, 137998, Note_on_c, 1, 48, 0
1, 138000, Note_on_c, 0, 79, 86
1, 138118, Note_on_c, 0, 79, 0
1, 138240, Note_on_c, 0, 70, 73
1, 138240, Note_on_c, 1, 60, 55
1, 138478, Note_on_c, 0, 70, 0
1, 138480, Note_on_c, 0, 67, 71
1, 138718, Note_on_c, 0, 67, 0
1, 138720, Note_on_c, 0, 69, 76
1, 138838, Note_on_c, 0, 69, 0
1, 138960, Note_on_c, 0, 81, 78
1, 139078, Note_on_c, 0, 81, 0
1, 139198, Note_on_c, 1, 60, 0
1, 139200, Note_on_c, 0, 72, 65
1, 139200, Note_on_c, 1, 60, 58
1, 139438, Note_on_c, 0, 72, 0
1, 139440, Note_on_c, 0, 69, 65
1, 139678, Note_on_c, 0, 69, 0
1, 139680, Note_on_c, 0, 70, 72
1, 139798, Note_on_c, 0, 70, 0
1, 139920, Note_on_c, 0, 82, 74
1, 140038, Note_on_c, 0, 82, 0
1, 140160, Note_on_c, 0, 76, 68
1, 140398, Note_on_c, 0, 76, 0
1, 140400, Note_on_c, 0, 77, 72
1, 140518, Note_on_c, 0, 77, 0
1, 140640, Note_on_c, 0, 70, 74
1, 140758, Note_on_c, 0, 70, 0
1, 140880, Note_on_c, 0, 69, 74
1, 140998, Note_on_c, 0, 69, 0
1, 141118, Note_on_c, 1, 60, 0
1, 141120, Note_on_c, 0, 67, 74
1, 141120, Note_on_c, 1, 60, 51
1, 141120, Note_on_c, 1, 64, 52
1, 141598, Note_on_c, 0, 67, 0
1, 141598, Note_on_c, 1, 60, 0
1, 141598, Note_on_c, 1, 64, 0
1, 141840, Note_on_c, 0, 72, 74
1, 141958, Note_on_c, 0, 72, 0
1, 142080, Note_on_c, 0, 65, 66
1, 142080, Note_on_c, 1, 53, 53
1, 142080, Note_on_c, 1, 57, 56
1, 142318, Note_on_c, 0, 65, 0
1, 142318, Note_on_c, 1, 53, 0
1, 142318, Note_on_c, 1, 57, 0
1, 142320, Note_on_c, 0, 69, 71
1, 142438, Note_on_c, 0, 69, 0
1, 142560, Note_on_c, 0, 62, 72
1, 142560, Note_on_c, 1, 58, 57
1, 142560, Note_on_c, 1, 46, 48
1, 142678, Note_on_c, 0, 62, 0
1, 142798, Note_on_c, 1, 58, 0
1, 142798, Note_on_c, 1, 46, 0
1, 142800, Note_on_c, 0, 74, 74
1, 142918, Note_on_c, 0, 74, 0
1, 143040, Note_on_c, 0, 65, 74
1, 143040, Note_on_c, 1, 48, 37
1, 143040, Note_on_c, 1, 57, 50
1, 143518, Note_on_c, 0, 65, 0
1, 143518, Note_on_c, 1, 57, 0
1, 143520, Note_on_c, 0, 64, 68
1, 143520, Note_on_c, 1, 55, 60
1, 143638, Note_on_c, 0, 64, 0
1, 143758, Note_on_c, 1, 55, 0
1, 143760, Note_on_c, 0, 70, 71
1, 143878, Note_on_c, 0, 70, 0
1, 143998, Note_on_c, 1, 48, 0
1, 144000, Note_on_c, 0, 67, 72
1, 144238, Note_on_c, 0, 67, 0
1, 144240, Note_on_c, 0, 76, 61
1, 144358, Note_on_c, 0, 76, 0
1, 144480, Note_on_c, 0, 70, 73
1, 144480, Note_on_c, 1, 60, 66
1, 144480, Note_on_c, 1, 64, 53
1, 144718, Note_on_c, 0, 70, 0
1, 144718, Note_on_c, 1, 60, 0
1, 144718, Note_on_c, 1, 64, 0
1, 144720, Note_on_c, 0, 79, 77
1, 144838, Note_on_c, 0, 79, 0
1, 144960, Note_on_c, 0, 70, 68
1, 144960, Note_on_c, 1, 65, 55
1, 145198, Note_on_c, 1, 65, 0
1, 145200, Note_on_c, 1, 53, 66
1, 145438, Note_on_c, 0, 70, 0
1, 145438, Note_on_c, 1, 53, 0
1, 145440, Note_on_c, 0, 69, 67
1, 145678, Note_on_c, 0, 69, 0
1, 145680, Note_on_c, 0, 72, 72
1, 145798, Note_on_c, 0, 72, 0
1, 145920, Note_on_c, 0, 63, 68
1, 146158, Note_on_c, 0, 63, 0
1, 146160, Note_on_c, 0, 75, 68
1, 146278, Note_on_c, 0, 75, 0
1, 146400, Note_on_c, 0, 65, 72
1, 146400, Note_on_c, 1, 57, 52
1, 146638, Note_on_c, 0, 65, 0
1, 146640, Note_on_c, 0, 72, 74
1, 146878, Note_on_c, 0, 72, 0
1, 146878, Note_on_c, 1, 57, 0
1, 146880, Note_on_c, 0, 73, 72
1, 146880, Note_on_c, 1, 58, 55
1, 147118, Note_on_c, 0, 73, 0
1, 147120, Note_on_c, 0, 74, 74
1, 147238, Note_on_c, 0, 74, 0
1, 147358, Note_on_c, 1, 58, 0
1, 147360, Note_on_c, 0, 67, 67
1, 147478, Note_on_c, 0, 67, 0
1, 147600, Note_on_c, 0, 74, 68
1, 147600, Note_on_c, 1, 59, 55
1, 147718, Note_on_c, 0, 74, 0
1, 147838, Note_on_c, 1, 59, 0
1, 147840, Note_on_c, 0, 75, 76
1, 147840, Note_on_c, 1, 60, 65
1, 148078, Note_on_c, 0, 75, 0
1, 148080, Note_on_c, 0, 76, 78
1, 148198, Note_on_c, 0, 76, 0
1, 148318, Note_on_c, 1, 60, 0
1, 148320, Note_on_c, 0, 69, 74
1, 148438, Note_on_c, 0, 69, 0
1, 148560, Note_on_c, 0, 76, 73
1, 148560, Note_on_c, 1, 61, 60
1, 148798, Note_on_c, 0, 76, 0
1, 148798, Note_on_c, 1, 61, 0
1, 148800, Note_on_c, 0, 79, 78
1, 148800, Note_on_c, 1, 62, 47
1, 149038, Note_on_c, 0, 79, 0
1, 149040, Note_on_c, 0, 77, 81
1, 149278, Note_on_c, 0, 77, 0
1, 149278, Note_on_c, 1, 62, 0
1, 149280, Note_on_c, 0, 70, 72
1, 149518, Note_on_c, 0, 70, 0
1, 149520, Note_on_c, 0, 77, 81
1, 149520, Note_on_c, 1, 62, 70
1, 149758, Note_on_c, 0, 77, 0
1, 149758, Note_on_c, 1, 62, 0
1, 149760, Note_on_c, 0, 78, 79
1, 149760, Note_on_c, 1, 64, 55
1, 149998, Note_on_c, 0, 78, 0
1, 150000, Note_on_c, 0, 79, 74
1, 150238, Note_on_c, 0, 79, 0
1, 150238, Note_on_c, 1, 64, 0
1, 150240, Note_on_c, 0, 72, 72
1, 150478, Note_on_c, 0, 72, 0
1, 150480, Note_on_c, 0, 79, 74
1, 150480, Note_on_c, 1, 64, 65
1, 150718, Note_on_c, 0, 79, 0
1, 150718, Note_on_c, 1, 64, 0
1, 150720, Note_on_c, 0, 80, 86
1, 150720, Note_on_c, 1, 65, 63
1, 150958, Note_on_c, 0, 80, 0
1, 150960, Note_on_c, 0, 81, 76
1, 151078, Note_on_c, 0, 81, 0
1, 151198, Note_on_c, 1, 65, 0
1, 151200, Note_on_c, 0, 77, 78
1, 151200, Note_on_c, 1, 62, 68
1, 151318, Note_on_c, 0, 77, 0
1, 151440, Note_on_c, 0, 83, 78
1, 151678, Note_on_c, 0, 83, 0
1, 151678, Note_on_c, 1, 62, 0
1, 151680, Note_on_c, 0, 76, 72
1, 151680, Note_on_c, 1, 60, 61
1, 151918, Note_on_c, 0, 76, 0
1, 151920, Note_on_c, 0, 84, 76
1, 152158, Note_on_c, 0, 84, 0
1, 152160, Note_on_c, 0, 72, 74
1, 152398, Note_on_c, 0, 72, 0
1, 152400, Note_on_c, 0, 73, 72
1, 152400, Note_on_c, 1, 69, 77
1, 152638, Note_on_c, 0, 73, 0
1, 152638, Note_on_c, 1, 69, 0
1, 152640, Note_on_c, 0, 74, 78
1, 152640, Note_on_c, 1, 70, 50
1, 152880, Note_on_c, 0, 78, 65
1, 153118, Note_on_c, 0, 78, 0
1, 153120, Note_on_c, 0, 81, 74
1, 153178, Note_on_c, 0, 81, 0
1, 153180, Note_on_c, 0, 79, 73
1, 153238, Note_on_c, 0, 79, 0
1, 153240, Note_on_c, 0, 78, 53
1, 153298, Note_on_c, 0, 78, 0
1, 153300, Note_on_c, 0, 79, 67
1, 153358, Note_on_c, 0, 79, 0
1, 153360, Note_on_c, 0, 82, 66
1, 153598, Note_on_c, 0, 74, 0
1, 153598, Note_on_c, 0, 82, 0
1, 153600, Note_on_c, 0, 76, 61
1, 153600, Note_on_c, 0, 72, 73
1, 153838, Note_on_c, 0, 76, 0
1, 153840, Note_on_c, 0, 79, 63
1, 154078, Note_on_c, 0, 79, 0
1, 154078, Note_on_c, 1, 70, 0
1, 154080, Note_on_c, 0, 77, 63
1, 154080, Note_on_c, 1, 69, 56
1, 154318, Note_on_c, 0, 77, 0
1, 154320, Note_on_c, 0, 84, 68
1, 154558, Note_on_c, 0, 72, 0
1, 154558, Note_on_c, 0, 84, 0
1, 154560, Note_on_c, 0, 74, 72
1, 154560, Note_on_c, 0, 70, 74
1, 154798, Note_on_c, 1, 69, 0
1, 154800, Note_on_c, 1, 66, 55
1, 155038, Note_on_c, 1, 66, 0
1, 155040, Note_on_c, 1, 67, 61
1, 155278, Note_on_c, 0, 74, 0
1, 155278, Note_on_c, 0, 70, 0
1, 155280, Note_on_c, 0, 82, 74
1, 155518, Note_on_c, 0, 82, 0
1, 155520, Note_on_c, 0, 72, 66
1, 155520, Note_on_c, 0, 69, 76
1, 155758, Note_on_c, 0, 72, 0
1, 155760, Note_on_c, 0, 75, 51
1, 155998, Note_on_c, 0, 75, 0
1, 155998, Note_on_c, 1, 67, 0
1, 156000, Note_on_c, 0, 74, 68
1, 156000, Note_on_c, 1, 65, 52
1, 156238, Note_on_c, 0, 74, 0
1, 156240, Note_on_c, 0, 81, 66
1, 156478, Note_on_c, 0, 69, 0
1, 156478, Note_on_c, 0, 81, 0
1, 156480, Note_on_c, 0, 70, 57
1, 156480, Note_on_c, 0, 67, 68
1, 156718, Note_on_c, 0, 70, 0
1, 156720, Note_on_c, 0, 74, 68
1, 156958, Note_on_c, 0, 74, 0
1, 156958, Note_on_c, 1, 65, 0
1, 156960, Note_on_c, 0, 72, 71
1, 156960, Note_on_c, 1, 64, 45
1, 157198, Note_on_c, 0, 72, 0
1, 157200, Note_on_c, 0, 79, 68
1, 157438, Note_on_c, 0, 67, 0
1, 157438, Note_on_c, 0, 79, 0
1, 157440, Note_on_c, 0, 69, 71
1, 157440, Note_on_c, 0, 65, 68
1, 157678, Note_on_c, 0, 69, 0
1, 157680, Note_on_c, 0, 72, 65
1, 157918, Note_on_c, 0, 65, 0
1, 157918, Note_on_c, 0, 72, 0
1, 157918, Note_on_c, 1, 64, 0
1, 157920, Note_on_c, 0, 71, 72
1, 157920, Note_on_c, 1, 62, 43
1, 158160, Note_on_c, 0, 77, 65
1, 158398, Note_on_c, 0, 71, 0
1, 158398, Note_on_c, 0, 77, 0
1, 158398, Note_on_c, 1, 60, 0
1, 158398, Note_on_c, 1, 62, 0
1, 158400, Note_on_c, 0, 76, 67
1, 158400, Note_on_c, 0, 72, 65
1, 158400, Note_on_c, 1, 60, 67
1, 158400, Note_on_c, 1, 64, 66
1, 158878, Note_on_c, 0, 76, 0
1, 158878, Note_on_c, 0, 72, 0
1, 158878, Note_on_c, 1, 60, 0
1, 158878, Note_on_c, 1, 64, 0
1, 159120, Note_on_c, 0, 72, 71
1, 159238, Note_on_c, 0, 72, 0
1, 159360, Note_on_c, 0, 65, 70
1, 159598, Note_on_c, 0, 65, 0
1, 159600, Note_on_c, 0, 69, 74
1, 159718, Note_on_c, 0, 69, 0
1, 159840, Note_on_c, 0, 60, 65
1, 160078, Note_on_c, 0, 60, 0
1, 160080, Note_on_c, 0, 65, 62
1, 160080, Note_on_c, 1, 60, 63
1, 160080, Note_on_c, 1, 57, 43
1, 160198, Note_on_c, 0, 65, 0
1, 160318, Note_on_c, 1, 60, 0
1, 160318, Note_on_c, 1, 57, 0
1, 160320, Note_on_c, 0, 64, 65
1, 160320, Note_on_c, 1, 58, 63
1, 160320, Note_on_c, 1, 55, 40
1, 160558, Note_on_c, 0, 64, 0
1, 160558, Note_on_c, 1, 58, 0
1, 160558, Note_on_c, 1, 55, 0
1, 160560, Note_on_c, 0, 65, 58
1, 160560, Note_on_c, 1, 57, 60
1, 160560, Note_on_c, 1, 53, 57
1, 160798, Note_on_c, 0, 65, 0
1, 160798, Note_on_c, 1, 57, 0
1, 160798, Note_on_c, 1, 53, 0
1, 160800, Note_on_c, 0, 67, 62
1, 160800, Note_on_c, 1, 55, 60
1, 160800, Note_on_c, 1, 52, 55
1, 160918, Note_on_c, 0, 67, 0
1, 161038, Note_on_c, 1, 55, 0
1, 161038, Note_on_c, 1, 52, 0
1, 161040, Note_on_c, 0, 72, 68
1, 161158, Note_on_c, 0, 72, 0
1, 161280, Note_on_c, 0, 67, 68
1, 161518, Note_on_c, 0, 67, 0
1, 161520, Note_on_c, 0, 70, 68
1, 161758, Note_on_c, 0, 70, 0
1, 161760, Note_on_c, 0, 60, 67
1, 161998, Note_on_c, 0, 60, 0
1, 162000, Note_on_c, 0, 64, 68
1, 162000, Note_on_c, 1, 60, 62
1, 162000, Note_on_c, 1, 58, 57
1, 162118, Note_on_c, 0, 64, 0
1, 162238, Note_on_c, 1, 60, 0
1, 162238, Note_on_c, 1, 58, 0
1, 162240, Note_on_c, 0, 65, 67
1, 162240, Note_on_c, 1, 60, 58
1, 162240, Note_on_c, 1, 57, 55
1, 162478, Note_on_c, 0, 65, 0
1, 162478, Note_on_c, 1, 60, 0
1, 162478, Note_on_c, 1, 57, 0
1, 162480, Note_on_c, 0, 67, 62
1, 162480, Note_on_c, 1, 58, 52
1, 162480, Note_on_c, 1, 55, 56
1, 162718, Note_on_c, 0, 67, 0
1, 162718, Note_on_c, 1, 58, 0
1, 162718, Note_on_c, 1, 55, 0
1, 162720, Note_on_c, 0, 69, 68
1, 162720, Note_on_c, 1, 53, 56
1, 162720, Note_on_c, 1, 57, 58
1, 162838, Note_on_c, 0, 69, 0
1, 162958, Note_on_c, 1, 53, 0
1, 162958, Note_on_c, 1, 57, 0
1, 162960, Note_on_c, 0, 72, 73
1, 163198, Note_on_c, 0, 72, 0
1, 163200, Note_on_c, 0, 65, 67
1, 163438, Note_on_c, 0, 65, 0
1, 163440, Note_on_c, 0, 72, 63
1, 163440, Note_on_c, 1, 53, 65
1, 163440, Note_on_c, 1, 57, 53
1, 163678, Note_on_c, 0, 72, 0
1, 163678, Note_on_c, 1, 53, 0
1, 163678, Note_on_c, 1, 57, 0
1, 163680, Note_on_c, 0, 65, 67
1, 163680, Note_on_c, 1, 58, 60
1, 163680, Note_on_c, 1, 55, 67
1, 163918, Note_on_c, 0, 65, 0
1, 163918, Note_on_c, 1, 58, 0
1, 163918, Note_on_c, 1, 55, 0
1, 163920, Note_on_c, 0, 63, 76
1, 163920, Note_on_c, 1, 60, 63
1, 163920, Note_on_c, 1, 57, 62
1, 164158, Note_on_c, 1, 60, 0
1, 164158, Note_on_c, 1, 57, 0
1, 164160, Note_on_c, 1, 58, 55
1, 164278, Note_on_c, 0, 63, 0
1, 164280, Note_on_c, 0, 62, 66
1, 164398, Note_on_c, 0, 62, 0
1, 164400, Note_on_c, 0, 61, 55
1, 164518, Note_on_c, 0, 61, 0
1, 164520, Note_on_c, 0, 62, 65
1, 164638, Note_on_c, 0, 62, 0
1, 164640, Note_on_c, 0, 64, 66
1, 164758, Note_on_c, 0, 64, 0
1, 164760, Note_on_c, 0, 62, 63
1, 164878, Note_on_c, 0, 62, 0
1, 164878, Note_on_c, 1, 58, 0
1, 164880, Note_on_c, 0, 66, 76
1, 164880, Note_on_c, 1, 55, 51
1, 164998, Note_on_c, 0, 66, 0
1, 165000, Note_on_c, 0, 62, 52
1, 165118, Note_on_c, 0, 62, 0
1, 165118, Note_on_c, 1, 55, 0
1, 165120, Note_on_c, 0, 67, 78
1, 165120, Note_on_c, 1, 58, 43
1, 165238, Note_on_c, 0, 67, 0
1, 165240, Note_on_c, 0, 62, 55
1, 165358, Note_on_c, 0, 62, 0
1, 165358, Note_on_c, 1, 58, 0
1, 165360, Note_on_c, 0, 69, 78
1, 165360, Note_on_c, 1, 54, 57
1, 165478, Note_on_c, 0, 69, 0
1, 165480, Note_on_c, 0, 62, 74
1, 165598, Note_on_c, 0, 62, 0
1, 165598, Note_on_c, 1, 54, 0
1, 165600, Note_on_c, 0, 70, 86
1, 165600, Note_on_c, 1, 55, 66
1, 165718, Note_on_c, 0, 70, 0
1, 165720, Note_on_c, 0, 62, 40
1, 165838, Note_on_c, 0, 62, 0
1, 165838, Note_on_c, 1, 55, 0
1, 165840, Note_on_c, 0, 72, 86
1, 165840, Note_on_c, 1, 57, 67
1, 165958, Note_on_c, 0, 72, 0
1, 165960, Note_on_c, 0, 62, 52
1, 166078, Note_on_c, 0, 62, 0
1, 166078, Note_on_c, 1, 57, 0
1, 166080, Note_on_c, 0, 74, 94
1, 166080, Note_on_c, 1, 58, 60
1, 166558, Note_on_c, 0, 74, 0
1, 166558, Note_on_c, 1, 58, 0
1, 166560, Note_on_c, 0, 72, 66
1, 166678, Note_on_c, 0, 72, 0
1, 166680, Note_on_c, 0, 70, 62
1, 166798, Note_on_c, 0, 70, 0
1, 166800, Note_on_c, 0, 69, 61
1, 166918, Note_on_c, 0, 69, 0
1, 166920, Note_on_c, 0, 67, 46
1, 167038, Note_on_c, 0, 67, 0
1, 167040, Note_on_c, 0, 66, 51
1, 167158, Note_on_c, 0, 66, 0
1, 167160, Note_on_c, 0, 67, 66
1, 167278, Note_on_c, 0, 67, 0
1, 167280, Note_on_c, 0, 69, 66
1, 167398, Note_on_c, 0, 69, 0
1, 167400, Note_on_c, 0, 67, 63
1, 167518, Note_on_c, 0, 67, 0
1, 167520, Note_on_c, 0, 72, 65
1, 167638, Note_on_c, 0, 72, 0
1, 167640, Note_on_c, 0, 70, 66
1, 167758, Note_on_c, 0, 70, 0
1, 167760, Note_on_c, 0, 69, 65
1, 167878, Note_on_c, 0, 69, 0
1, 167880, Note_on_c, 0, 67, 62
1, 167998, Note_on_c, 0, 67, 0
1, 168000, Note_on_c, 0, 65, 68
1, 168240, Note_on_c, 1, 62, 62
1, 168240, Note_on_c, 1, 59, 57
1, 168478, Note_on_c, 1, 62, 0
1, 168478, Note_on_c, 1, 59, 0
1, 168480, Note_on_c, 1, 60, 65
1, 168718, Note_on_c, 0, 65, 0
1, 168718, Note_on_c, 1, 60, 0
1, 168720, Note_on_c, 0, 69, 43
1, 168720, Note_on_c, 1, 48, 63
1, 168838, Note_on_c, 0, 69, 0
1, 168840, Note_on_c, 0, 67, 56
1, 168958, Note_on_c, 0, 67, 0
1, 168958, Note_on_c, 1, 48, 0
1, 168960, Note_on_c, 0, 65, 67
1, 168960, Note_on_c, 1, 53, 71
1, 169198, Note_on_c, 0, 65, 0
1, 169198, Note_on_c, 1, 53, 0
1, 169200, Note_on_c, 1, 41, 48
1, 169438, Note_on_c, 1, 41, 0
1, 169680, Note_on_c, 0, 79, 77
1, 169798, Note_on_c, 0, 79, 0
1, 169800, Note_on_c, 0, 76, 78
1, 169918, Note_on_c, 0, 76, 0
1, 169920, Note_on_c, 0, 79, 74
1, 169920, Note_on_c, 1, 67, 83
1, 169920, Note_on_c, 1, 64, 77
1, 169920, Note_on_c, 1, 60, 71
1, 170038, Note_on_c, 0, 79, 0
1, 170040, Note_on_c, 0, 76, 89
1, 170158, Note_on_c, 0, 76, 0
1, 170160, Note_on_c, 0, 82, 74
1, 170278, Note_on_c, 0, 82, 0
1, 170280, Note_on_c, 0, 79, 72
1, 170398, Note_on_c, 0, 79, 0
1, 170398, Note_on_c, 1, 67, 0
1, 170398, Note_on_c, 1, 64, 0
1, 170398, Note_on_c, 1, 60, 0
1, 170400, Note_on_c, 0, 76, 74
1, 170518, Note_on_c, 0, 76, 0
1, 170520, Note_on_c, 0, 72, 66
1, 170638, Note_on_c, 0, 72, 0
1, 170640, Note_on_c, 0, 79, 65
1, 170758, Note_on_c, 0, 79, 0
1, 170760, Note_on_c, 0, 76, 50
1, 170878, Note_on_c, 0, 76, 0
1, 170880, Note_on_c, 0, 79, 74
1, 170880, Note_on_c, 1, 64, 56
1, 170880, Note_on_c, 1, 67, 76
1, 170880, Note_on_c, 1, 60, 53
1, 170998, Note_on_c, 0, 79, 0
1, 171000, Note_on_c, 0, 76, 78
1, 171118, Note_on_c, 0, 76, 0
1, 171120, Note_on_c, 0, 82, 78
1, 171238, Note_on_c, 0, 82, 0
1, 171240, Note_on_c, 0, 79, 76
1, 171358, Note_on_c, 0, 79, 0
1, 171358, Note_on_c, 1, 64, 0
1, 171358, Note_on_c, 1, 67, 0
1, 171358, Note_on_c, 1, 60, 0
1, 171360, Note_on_c, 0, 76, 79
1, 171478, Note_on_c, 0, 76, 0
1, 171480, Note_on_c, 0, 72, 74
1, 171598, Note_on_c, 0, 72, 0
1, 171600, Note_on_c, 0, 79, 65
1, 171718, Note_on_c, 0, 79, 0
1, 171720, Note_on_c, 0, 76, 63
1, 171838, Note_on_c, 0, 76, 0
1, 171840, Note_on_c, 0, 79, 78
1, 171840, Note_on_c, 1, 67, 74
1, 171840, Note_on_c, 1, 64, 55
1, 171840, Note_on_c, 1, 60, 61
1, 171958, Note_on_c, 0, 79, 0
1, 171960, Note_on_c, 0, 76, 78
1, 172078, Note_on_c, 0, 76, 0
1, 172080, Note_on_c, 0, 82, 78
1, 172198, Note_on_c, 0, 82, 0
1, 172200, Note_on_c, 0, 79, 78
1, 172318, Note_on_c, 0, 79, 0
1, 172318, Note_on_c, 1, 67, 0
1, 172318, Note_on_c, 1, 64, 0
1, 172318, Note_on_c, 1, 60, 0
1, 172320, Note_on_c, 0, 76, 74
1, 172438, Note_on_c, 0, 76, 0
1, 172440, Note_on_c, 0, 72, 65
1, 172558, Note_on_c, 0, 72, 0
1, 172560, Note_on_c, 0, 79, 74
1, 172678, Note_on_c, 0, 79, 0
1, 172680, Note_on_c, 0, 76, 73
1, 172798, Note_on_c, 0, 76, 0
1, 172800, Note_on_c, 0, 72, 74
1, 172918, Note_on_c, 0, 72, 0
1, 172920, Note_on_c, 0, 70, 65
1, 173038, Note_on_c, 0, 70, 0
1, 173040, Note_on_c, 0, 76, 71
1, 173158, Note_on_c, 0, 76, 0
1, 173160, Note_on_c, 0, 72, 72
1, 173278, Note_on_c, 0, 72, 0
1, 173280, Note_on_c, 0, 70, 78
1, 173398, Note_on_c, 0, 70, 0
1, 173400, Note_on_c, 0, 67, 73
1, 173518, Note_on_c, 0, 67, 0
1, 173520, Note_on_c, 0, 70, 70
1, 173638, Note_on_c, 0, 70, 0
1, 173640, Note_on_c, 0, 67, 66
1, 173758, Note_on_c, 0, 67, 0
1, 173760, Note_on_c, 0, 64, 83
1, 173878, Note_on_c, 0, 64, 0
1, 174480, Note_on_c, 0, 84, 72
1, 174598, Note_on_c, 0, 84, 0
1, 174720, Note_on_c, 0, 77, 68
1, 174720, Note_on_c, 1, 62, 65
1, 174838, Note_on_c, 0, 77, 0
1, 174838, Note_on_c, 1, 62, 0
1, 174960, Note_on_c, 0, 81, 72
1, 174960, Note_on_c, 1, 65, 62
1, 175078, Note_on_c, 0, 81, 0
1, 175078, Note_on_c, 1, 65, 0
1, 175200, Note_on_c, 0, 74, 74
1, 175200, Note_on_c, 1, 58, 63
1, 175318, Note_on_c, 0, 74, 0
1, 175318, Note_on_c, 1, 58, 0
1, 175440, Note_on_c, 0, 86, 66
1, 175440, Note_on_c, 1, 70, 60
1, 175558, Note_on_c, 0, 86, 0
1, 175558, Note_on_c, 1, 70, 0
1, 175680, Note_on_c, 0, 77, 68
1, 175680, Note_on_c, 1, 69, 66
1, 175680, Note_on_c, 1, 60, 52
1, 176158, Note_on_c, 0, 77, 0
1, 176158, Note_on_c, 1, 69, 0
1, 176160, Note_on_c, 0, 76, 74
1, 176160, Note_on_c, 1, 67, 61
1, 176278, Note_on_c, 0, 76, 0
1, 176400, Note_on_c, 0, 84, 67
1, 176518, Note_on_c, 0, 84, 0
1, 176638, Note_on_c, 1, 60, 0
1, 176638, Note_on_c, 1, 67, 0
1, 176640, Note_on_c, 0, 77, 74
1, 176640, Note_on_c, 1, 62, 72
1, 176878, Note_on_c, 0, 77, 0
1, 176878, Note_on_c, 1, 62, 0
1, 176880, Note_on_c, 0, 81, 74
1, 176880, Note_on_c, 1, 65, 65
1, 177118, Note_on_c, 0, 81, 0
1, 177118, Note_on_c, 1, 65, 0
1, 177120, Note_on_c, 0, 74, 77
1, 177120, Note_on_c, 1, 58, 53
1, 177358, Note_on_c, 0, 74, 0
1, 177358, Note_on_c, 1, 58, 0
1, 177360, Note_on_c, 0, 86, 76
1, 177360, Note_on_c, 1, 70, 62
1, 177478, Note_on_c, 0, 86, 0
1, 177478, Note_on_c, 1, 70, 0
1, 177600, Note_on_c, 0, 77, 74
1, 177600, Note_on_c, 1, 60, 56
1, 177600, Note_on_c, 1, 69, 65
1, 178078, Note_on_c, 0, 77, 0
1, 178078, Note_on_c, 1, 69, 0
1, 178080, Note_on_c, 0, 76, 74
1, 178080, Note_on_c, 1, 67, 66
1, 178198, Note_on_c, 0, 76, 0
1, 178198, Note_on_c, 1, 67, 0
1, 178318, Note_on_c, 1, 60, 0
1, 178320, Note_on_c, 0, 84, 72
1, 178320, Note_on_c, 1, 58, 42
1, 178438, Note_on_c, 0, 84, 0
1, 178438, Note_on_c, 1, 58, 0
1, 178560, Note_on_c, 0, 75, 77
1, 178560, Note_on_c, 1, 57, 53
1, 178560, Note_on_c, 1, 66, 34
1, 179038, Note_on_c, 0, 75, 0
1, 179038, Note_on_c, 1, 57, 0
1, 179038, Note_on_c, 1, 66, 0
1, 179040, Note_on_c, 0, 74, 66
1, 179040, Note_on_c, 1, 67, 68
1, 179040, Note_on_c, 1, 58, 63
1, 179278, Note_on_c, 0, 74, 0
1, 179280, Note_on_c, 0, 82, 77
1, 179398, Note_on_c, 0, 82, 0
1, 179398, Note_on_c, 1, 67, 0
1, 179398, Note_on_c, 1, 58, 0
1, 179520, Note_on_c, 0, 73, 62
1, 179520, Note_on_c, 1, 64, 52
1, 179520, Note_on_c, 1, 70, 50
1, 179998, Note_on_c, 0, 73, 0
1, 179998, Note_on_c, 1, 64, 0
1, 179998, Note_on_c, 1, 70, 0
1, 180000, Note_on_c, 0, 72, 62
1, 180000, Note_on_c, 1, 65, 43
1, 180000, Note_on_c, 1, 69, 44
1, 180118, Note_on_c, 0, 72, 0
1, 180240, Note_on_c, 0, 77, 76
1, 180358, Note_on_c, 0, 77, 0
1, 180358, Note_on_c, 1, 65, 0
1, 180358, Note_on_c, 1, 69, 0
1, 180480, Note_on_c, 0, 67, 74
1, 180480, Note_on_c, 1, 58, 61
1, 180718, Note_on_c, 0, 67, 0
1, 180720, Note_on_c, 0, 70, 70
1, 180720, Note_on_c, 0, 74, 79
1, 180958, Note_on_c, 0, 70, 0
1, 180958, Note_on_c, 0, 74, 0
1, 180958, Note_on_c, 1, 58, 0
1, 180960, Note_on_c, 0, 72, 66
1, 180960, Note_on_c, 0, 69, 56
1, 180960, Note_on_c, 1, 48, 52
1, 180960, Note_on_c, 1, 60, 68
1, 181198, Note_on_c, 0, 72, 0
1, 181198, Note_on_c, 0, 69, 0
1, 181200, Note_on_c, 0, 64, 74
1, 181438, Note_on_c, 0, 64, 0
1, 181438, Note_on_c, 1, 48, 0
1, 181438, Note_on_c, 1, 60, 0
1, 181440, Note_on_c, 0, 65, 68
1, 181440, Note_on_c, 1, 41, 72
1, 181440, Note_on_c, 1, 53, 67
1, 181678, Note_on_c, 0, 65, 0
1, 181918, Note_on_c, 1, 41, 0
1, 181918, Note_on_c, 1, 53, 0
1, 182160, Note_on_c, 0, 84, 72
1, 182278, Note_on_c, 0, 84, 0
1, 182400, Note_on_c, 0, 77, 71
1, 182400, Note_on_c, 1, 62, 56
1, 182638, Note_on_c, 0, 77, 0
1, 182638, Note_on_c, 1, 62, 0
1, 182640, Note_on_c, 0, 81, 67
1, 182640, Note_on_c, 1, 65, 65
1, 182758, Note_on_c, 0, 81, 0
1, 182758, Note_on_c, 1, 65, 0
1, 182880, Note_on_c, 0, 74, 76
1, 182880, Note_on_c, 1, 58, 55
1, 183118, Note_on_c, 0, 74, 0
1, 183118, Note_on_c, 1, 58, 0
1, 183120, Note_on_c, 0, 86, 76
1, 183120, Note_on_c, 1, 70, 60
1, 183238, Note_on_c, 0, 86, 0
1, 183238, Note_on_c, 1, 70, 0
1, 183360, Note_on_c, 0, 77, 74
1, 183360, Note_on_c, 1, 60, 52
1, 183360, Note_on_c, 1, 69, 53
1, 183838, Note_on_c, 0, 77, 0
1, 183838, Note_on_c, 1, 69, 0
1, 183840, Note_on_c, 0, 76, 61
1, 183840, Note_on_c, 1, 67, 55
1, 184078, Note_on_c, 0, 76, 0
1, 184078, Note_on_c, 1, 60, 0
1, 184078, Note_on_c, 1, 67, 0
1, 184080, Note_on_c, 0, 84, 65
1, 184318, Note_on_c, 0, 84, 0
1, 184320, Note_on_c, 0, 77, 71
1, 184320, Note_on_c, 1, 62, 72
1, 184438, Note_on_c, 0, 77, 0
1, 184438, Note_on_c, 1, 62, 0
1, 184440, Note_on_c, 0, 79, 70
1, 184440, Note_on_c, 1, 64, 62
1, 184558, Note_on_c, 0, 79, 0
1, 184558, Note_on_c, 1, 64, 0
1, 184560, Note_on_c, 0, 81, 73
1, 184560, Note_on_c, 1, 65, 61
1, 184678, Note_on_c, 0, 81, 0
1, 184678, Note_on_c, 1, 65, 0
1, 184680, Note_on_c, 0, 77, 63
1, 184680, Note_on_c, 1, 62, 52
1, 184798, Note_on_c, 0, 77, 0
1, 184798, Note_on_c, 1, 62, 0
1, 184800, Note_on_c, 0, 74, 68
1, 184800, Note_on_c, 1, 58, 45
1, 185038, Note_on_c, 0, 74, 0
1, 185038, Note_on_c, 1, 58, 0
1, 185040, Note_on_c, 0, 86, 78
1, 185040, Note_on_c, 1, 70, 61
1, 185278, Note_on_c, 0, 86, 0
1, 185278, Note_on_c, 1, 70, 0
1, 185280, Note_on_c, 0, 77, 71
1, 185280, Note_on_c, 1, 60, 67
1, 185280, Note_on_c, 1, 69, 66
1, 185758, Note_on_c, 0, 77, 0
1, 185758, Note_on_c, 1, 69, 0
1, 185760, Note_on_c, 0, 76, 51
1, 185760, Note_on_c, 1, 67, 67
1, 185998, Note_on_c, 0, 76, 0
1, 185998, Note_on_c, 1, 60, 0
1, 185998, Note_on_c, 1, 67, 0
1, 186000, Note_on_c, 0, 84, 62
1, 186000, Note_on_c, 1, 69, 74
1, 186118, Note_on_c, 1, 69, 0
1, 186120, Note_on_c, 1, 70, 60
1, 186238, Note_on_c, 0, 84, 0
1, 186238, Note_on_c, 1, 70, 0
1, 186240, Note_on_c, 0, 75, 77
1, 186240, Note_on_c, 1, 66, 55
1, 186240, Note_on_c, 1, 72, 67
1, 186718, Note_on_c, 0, 75, 0
1, 186718, Note_on_c, 1, 66, 0
1, 186718, Note_on_c, 1, 72, 0
1, 186720, Note_on_c, 0, 74, 78
1, 186720, Note_on_c, 1, 70, 51
1, 186720, Note_on_c, 1, 67, 52
1, 186958, Note_on_c, 0, 74, 0
1, 186960, Note_on_c, 0, 82, 66
1, 187198, Note_on_c, 0, 82, 0
1, 187198, Note_on_c, 1, 70, 0
1, 187198, Note_on_c, 1, 67, 0
1, 187200, Note_on_c, 0, 73, 74
1, 187200, Note_on_c, 1, 70, 51
1, 187200, Note_on_c, 1, 64, 62
1, 187678, Note_on_c, 0, 73, 0
1, 187678, Note_on_c, 1, 70, 0
1, 187678, Note_on_c, 1, 64, 0
1, 187680, Note_on_c, 0, 72, 78
1, 187680, Note_on_c, 1, 69, 50
1, 187680, Note_on_c, 1, 65, 45
1, 187918, Note_on_c, 0, 72, 0
1, 187920, Note_on_c, 0, 77, 73
1, 188158, Note_on_c, 0, 77, 0
1, 188158, Note_on_c, 1, 69, 0
1, 188158, Note_on_c, 1, 65, 0
1, 188160, Note_on_c, 0, 58, 62
1, 188160, Note_on_c, 0, 67, 74
1, 188398, Note_on_c, 0, 67, 0
1, 188400, Note_on_c, 0, 70, 72
1, 188400, Note_on_c, 0, 74, 86
1, 188638, Note_on_c, 0, 58, 0
1, 188638, Note_on_c, 0, 70, 0
1, 188638, Note_on_c, 0, 74, 0
1, 188640, Note_on_c, 0, 48, 70
1, 188640, Note_on_c, 0, 60, 72
1, 188640, Note_on_c, 0, 69, 58
1, 188640, Note_on_c, 0, 72, 63
1, 188878, Note_on_c, 0, 69, 0
1, 188878, Note_on_c, 0, 72, 0
1, 188880, Note_on_c, 0, 64, 63
1, 188998, Note_on_c, 0, 64, 0
1, 189118, Note_on_c, 0, 48, 0
1, 189118, Note_on_c, 0, 60, 0
1, 189120, Note_on_c, 0, 65, 65
1, 189360, Note_on_c, 1, 41, 72
1, 189598, Note_on_c, 0, 65, 0
1, 189598, Note_on_c, 1, 41, 0
1, 189600, Note_on_c, 1, 53, 68
1, 189718, Note_on_c, 1, 53, 0
1, 189840, Note_on_c, 0, 62, 41
1, 189840, Note_on_c, 0, 58, 45
1, 190078, Note_on_c, 0, 62, 0
1, 190078, Note_on_c, 0, 58, 0
1, 190080, Note_on_c, 0, 57, 56
1, 190080, Note_on_c, 0, 60, 66
1, 190198, Note_on_c, 0, 57, 0
1, 190198, Note_on_c, 0, 60, 0
1, 190320, Note_on_c, 1, 41, 48
1, 190558, Note_on_c, 1, 41, 0
1, 190560, Note_on_c, 1, 53, 62
1, 190678, Note_on_c, 1, 53, 0
1, 190800, Note_on_c, 0, 70, 57
1, 190800, Note_on_c, 0, 64, 60
1, 191038, Note_on_c, 0, 70, 0
1, 191038, Note_on_c, 0, 64, 0
1, 191040, Note_on_c, 0, 69, 62
1, 191040, Note_on_c, 0, 65, 51
1, 191158, Note_on_c, 0, 69, 0
1, 191158, Note_on_c, 0, 65, 0
1, 191280, Note_on_c, 1, 41, 50
1, 191518, Note_on_c, 1, 41, 0
1, 191520, Note_on_c, 1, 53, 68
1, 191638, Note_on_c, 1, 53, 0
1, 191760, Note_on_c, 0, 74, 65
1, 191760, Note_on_c, 0, 70, 53
1, 191871, Tempo, 387097
1, 191985, Tempo, 392157
1, 191998, Note_on_c, 0, 74, 0
1, 191998, Note_on_c, 0, 70, 0
1, 192000, Note_on_c, 0, 69, 62
1, 192000, Note_on_c, 0, 72, 53
1, 192118, Note_on_c, 0, 69, 0
1, 192118, Note_on_c, 0, 72, 0
1, 192240, Note_on_c, 1, 41, 50
1, 192290, Tempo, 402685
1, 192478, Note_on_c, 1, 41, 0
1, 192480, Note_on_c, 1, 53, 58
1, 192594, Tempo, 413793
1, 192598, Note_on_c, 1, 53, 0
1, 192720, Note_on_c, 0, 76, 47
1, 192720, Note_on_c, 0, 82, 55
1, 192898, Tempo, 425532
1, 192958, Note_on_c, 0, 76, 0
1, 192958, Note_on_c, 0, 82, 0
1, 192960, Note_on_c, 0, 77, 34
1, 192960, Note_on_c, 0, 81, 46
1, 193078, Note_on_c, 0, 77, 0
1, 193078, Note_on_c, 0, 81, 0
1, 193164, Tempo, 434783
1, 193231, Tempo, 387097
1, 193241, End_track
0, 0, End_of_file