0, 0, Header, 0, 1, 480
1, 0, Start_track
1, 0, Tempo, 882353
1, 2640, Note_on_c, 0, 72, 74
1, 2818, Note_on_c, 0, 72, 0
1, 2820, Note_on_c, 0, 69, 74
1, 2878, Note_on_c, 0, 69, 0
1, 2880, Note_on_c, 0, 65, 68
1, 2880, Note_on_c, 1, 53, 56
1, 2880, Note_on_c, 1, 57, 57
1, 2941, Note_on_c, 1, 53, 0
1, 2941, Note_on_c, 1, 57, 0
1, 2950, Note_on_c, 0, 65, 0
1, 3120, Note_on_c, 0, 69, 66
1, 3298, Note_on_c, 0, 69, 0
1, 3300, Note_on_c, 0, 65, 66
1, 3358, Note_on_c, 0, 65, 0
1, 3360, Note_on_c, 0, 64, 60
1, 3360, Note_on_c, 1, 58, 52
1, 3360, Note_on_c, 1, 48, 63
1, 3421, Note_on_c, 1, 58, 0
1, 3421, Note_on_c, 1, 48, 0
1, 3430, Note_on_c, 0, 64, 0
1, 3600, Note_on_c, 0, 67, 73
1, 3778, Note_on_c, 0, 67, 0
1, 3780, Note_on_c, 0, 64, 52
1, 3838, Note_on_c, 0, 64, 0
1, 3840, Note_on_c, 0, 65, 68
1, 3840, Note_on_c, 1, 53, 48
1, 3840, Note_on_c, 1, 57, 56
1, 3901, Note_on_c, 1, 53, 0
1, 3901, Note_on_c, 1, 57, 0
1, 3910, Note_on_c, 0, 65, 0
1, 4080, Note_on_c, 0, 74, 76
1, 4080, Note_on_c, 0, 70, 67
1, 4318, Note_on_c, 0, 74, 0
1, 4318, Note_on_c, 0, 70, 0
1, 4320, Note_on_c, 0, 72, 61
1, 4320, Note_on_c, 0, 69, 56
1, 4438, Note_on_c, 0, 72, 0
1, 4438, Note_on_c, 0, 69, 0
1, 4560, Note_on_c, 0, 79, 77
1, 4618, Note_on_c, 0, 79, 0
1, 4620, Note_on_c, 0, 77, 73
1, 4678, Note_on_c, 0, 77, 0
1, 4680, Note_on_c, 0, 76, 65
1, 4738, Note_on_c, 0, 76, 0
1, 4740, Note_on_c, 0, 74, 71
1, 4798, Note_on_c, 0, 74, 0
1, 4800, Note_on_c, 0, 72, 65
1, 5038, Note_on_c, 0, 72, 0
1, 5040, Note_on_c, 0, 81, 74
1, 5040, Note_on_c, 1, 65, 65
1, 5118, Note_on_c, 0, 81, 0
1, 5120, Note_on_c, 0, 69, 58
1, 5198, Note_on_c, 0, 69, 0
1, 5200, Note_on_c, 0, 74, 65
1, 5278, Note_on_c, 0, 74, 0
1, 5278, Note_on_c, 1, 65, 0
1, 5280, Note_on_c, 0, 72, 68
1, 5280, Note_on_c, 1, 67, 63
1, 5518, Note_on_c, 0, 72, 0
1, 5518, Note_on_c, 1, 67, 0
1, 5520, Note_on_c, 0, 70, 63
1, 5520, Note_on_c, 1, 60, 65
1, 5546, Note_on_c, 0, 70, 0
1, 5568, Note_on_c, 0, 72, 66
1, 5594, Note_on_c, 0, 72, 0
1, 5616, Note_on_c, 0, 70, 60
1, 5642, Note_on_c, 0, 70, 0
1, 5664, Note_on_c, 0, 69, 78
1, 5690, Note_on_c, 0, 69, 0
1, 5712, Note_on_c, 0, 70, 71
1, 5738, Note_on_c, 0, 70, 0
1, 5758, Note_on_c, 1, 60, 0
1, 5760, Note_on_c, 0, 70, 63
1, 5760, Note_on_c, 1, 65, 62
1, 5998, Note_on_c, 1, 65, 0
1, 6000, Note_on_c, 1, 60, 55
1, 6238, Note_on_c, 0, 70, 0
1, 6238, Note_on_c, 1, 60, 0
1, 6240, Note_on_c, 0, 69, 55
1, 6240, Note_on_c, 1, 53, 63
1, 6358, Note_on_c, 0, 69, 0
1, 6358, Note_on_c, 1, 53, 0
1, 6480, Note_on_c, 0, 72, 66
1, 6538, Note_on_c, 0, 72, 0
1, 6540, Note_on_c, 0, 69, 74
1, 6598, Note_on_c, 0, 69, 0
1, 6600, Note_on_c, 0, 72, 66
1, 6658, Note_on_c, 0, 72, 0
1, 6660, Note_on_c, 0, 69, 79
1, 6718, Note_on_c, 0, 69, 0
1, 6720, Note_on_c, 0, 65, 68
1, 6720, Note_on_c, 1, 57, 57
1, 6720, Note_on_c, 1, 53, 56
1, 6778, Note_on_c, 0, 65, 0
1, 6781, Note_on_c, 1, 57, 0
1, 6781, Note_on_c, 1, 53, 0
1, 6960, Note_on_c, 0, 70, 61
1, 7018, Note_on_c, 0, 70, 0
1, 7020, Note_on_c, 0, 69, 68
1, 7078, Note_on_c, 0, 69, 0
1, 7080, Note_on_c, 0, 67, 68
1, 7138, Note_on_c, 0, 67, 0
1, 7140, Note_on_c, 0, 65, 65
1, 7198, Note_on_c, 0, 65, 0
1, 7200, Note_on_c, 0, 64, 68
1, 7200, Note_on_c, 1, 48, 63
1, 7200, Note_on_c, 1, 58, 52
1, 7258, Note_on_c, 0, 64, 0
1, 7261, Note_on_c, 1, 48, 0
1, 7261, Note_on_c, 1, 58, 0
1, 7440, Note_on_c, 0, 69, 72
1, 7498, Note_on_c, 0, 69, 0
1, 7500, Note_on_c, 0, 67, 76
1, 7558, Note_on_c, 0, 67, 0
1, 7560, Note_on_c, 0, 65, 71
1, 7618, Note_on_c, 0, 65, 0
1, 7620, Note_on_c, 0, 64, 57
1, 7678, Note_on_c, 0, 64, 0
1, 7680, Note_on_c, 0, 65, 76
1, 7680, Note_on_c, 1, 57, 56
1, 7680, Note_on_c, 1, 53, 48
1, 7738, Note_on_c, 0, 65, 0
1, 7741, Note_on_c, 1, 57, 0
1, 7741, Note_on_c, 1, 53, 0
1, 7800, Note_on_c, 0, 74, 67
1, 7858, Note_on_c, 0, 74, 0
1, 7860, Note_on_c, 0, 76, 74
1, 7918, Note_on_c, 0, 76, 0
1, 7920, Note_on_c, 0, 79, 74
1, 7920, Note_on_c, 1, 70, 60
1, 7978, Note_on_c, 0, 79, 0
1, 7980, Note_on_c, 0, 77, 76
1, 8038, Note_on_c, 0, 77, 0
1, 8040, Note_on_c, 0, 76, 81
1, 8098, Note_on_c, 0, 76, 0
1, 8100, Note_on_c, 0, 74, 65
1, 8158, Note_on_c, 0, 74, 0
1, 8158, Note_on_c, 1, 70, 0
1, 8160, Note_on_c, 0, 72, 74
1, 8160, Note_on_c, 1, 69, 50
1, 8398, Note_on_c, 0, 72, 0
1, 8398, Note_on_c, 1, 69, 0
1, 8400, Note_on_c, 0, 84, 81
1, 8458, Note_on_c, 0, 84, 0
1, 8460, Note_on_c, 0, 81, 78
1, 8518, Note_on_c, 0, 81, 0
1, 8520, Note_on_c, 0, 77, 72
1, 8578, Note_on_c, 0, 77, 0
1, 8580, Note_on_c, 0, 72, 65
1, 8638, Note_on_c, 0, 72, 0
1, 8640, Note_on_c, 0, 69, 57
1, 8880, Note_on_c, 1, 60, 57
1, 8880, Note_on_c, 1, 65, 52
1, 9118, Note_on_c, 0, 69, 0
1, 9118, Note_on_c, 1, 65, 0
1, 9120, Note_on_c, 0, 70, 50
1, 9120, Note_on_c, 1, 67, 61
1, 9178, Note_on_c, 0, 70, 0
1, 9244, Note_on_c, 1, 67, 0
1, 9358, Note_on_c, 1, 60, 0
1, 9360, Note_on_c, 0, 82, 72
1, 9418, Note_on_c, 0, 82, 0
1, 9420, Note_on_c, 0, 79, 61
1, 9478, Note_on_c, 0, 79, 0
1, 9480, Note_on_c, 0, 76, 67
1, 9538, Note_on_c, 0, 76, 0
1, 9540, Note_on_c, 0, 72, 55
1, 9598, Note_on_c, 0, 72, 0
1, 9600, Note_on_c, 0, 70, 55
1, 9840, Note_on_c, 1, 64, 55
1, 9840, Note_on_c, 1, 60, 31
1, 10078, Note_on_c, 0, 70, 0
1, 10078, Note_on_c, 1, 64, 0
1, 10078, Note_on_c, 1, 60, 0
1, 10080, Note_on_c, 0, 69, 52
1, 10080, Note_on_c, 1, 65, 65
1, 10080, Note_on_c, 1, 62, 45
1, 10138, Note_on_c, 0, 69, 0
1, 10204, Note_on_c, 1, 65, 0
1, 10204, Note_on_c, 1, 62, 0
1, 10320, Note_on_c, 0, 77, 73
1, 10378, Note_on_c, 0, 77, 0
1, 10380, Note_on_c, 0, 72, 74
1, 10438, Note_on_c, 0, 72, 0
1, 10440, Note_on_c, 0, 69, 74
1, 10498, Note_on_c, 0, 69, 0
1, 10500, Note_on_c, 0, 65, 76
1, 10558, Note_on_c, 0, 65, 0
1, 10560, Note_on_c, 0, 63, 68
1, 10800, Note_on_c, 1, 57, 48
1, 10800, Note_on_c, 1, 53, 50
1, 11038, Note_on_c, 1, 57, 0
1, 11038, Note_on_c, 1, 53, 0
1, 11040, Note_on_c, 1, 58, 66
1, 11040, Note_on_c, 1, 55, 66
1, 11278, Note_on_c, 1, 58, 0
1, 11278, Note_on_c, 1, 55, 0
1, 11280, Note_on_c, 1, 60, 77
1, 11280, Note_on_c, 1, 57, 66
1, 11518, Note_on_c, 1, 60, 0
1, 11518, Note_on_c, 1, 57, 0
1, 11520, Note_on_c, 1, 58, 68
1, 11638, Note_on_c, 0, 63, 0
1, 11640, Note_on_c, 0, 61, 68
1, 11758, Note_on_c, 0, 61, 0
1, 11760, Note_on_c, 0, 62, 68
1, 11878, Note_on_c, 0, 62, 0
1, 11880, Note_on_c, 0, 66, 74
1, 11998, Note_on_c, 0, 66, 0
1, 11998, Note_on_c, 1, 58, 0
1, 12000, Note_on_c, 0, 67, 77
1, 12118, Note_on_c, 0, 67, 0
1, 12120, Note_on_c, 0, 69, 71
1, 12238, Note_on_c, 0, 69, 0
1, 12240, Note_on_c, 0, 70, 76
1, 12358, Note_on_c, 0, 70, 0
1, 12360, Note_on_c, 0, 70, 61
1, 12360, Note_on_c, 0, 74, 74
1, 12360, Note_on_c, 1, 46, 66
1, 12418, Note_on_c, 1, 46, 0
1, 12421, Note_on_c, 0, 70, 0
1, 12421, Note_on_c, 0, 74, 0
1, 12480, Note_on_c, 0, 74, 77
1, 12480, Note_on_c, 0, 70, 71
1, 12480, Note_on_c, 1, 48, 66
1, 12598, Note_on_c, 0, 74, 0
1, 12598, Note_on_c, 0, 70, 0
1, 12600, Note_on_c, 0, 72, 63
1, 12600, Note_on_c, 0, 69, 68
1, 12718, Note_on_c, 0, 72, 0
1, 12718, Note_on_c, 0, 69, 0
1, 12720, Note_on_c, 0, 70, 62
1, 12720, Note_on_c, 0, 67, 56
1, 12781, Note_on_c, 0, 70, 0
1, 12781, Note_on_c, 0, 67, 0
1, 12840, Note_on_c, 0, 69, 66
1, 12840, Note_on_c, 0, 65, 67
1, 12901, Note_on_c, 0, 69, 0
1, 12901, Note_on_c, 0, 65, 0
1, 12958, Note_on_c, 1, 48, 0
1, 12960, Note_on_c, 0, 69, 70
1, 12960, Note_on_c, 0, 72, 73
1, 13078, Note_on_c, 0, 69, 0
1, 13078, Note_on_c, 0, 72, 0
1, 13080, Note_on_c, 0, 70, 71
1, 13080, Note_on_c, 0, 67, 60
1, 13198, Note_on_c, 0, 70, 0
1, 13198, Note_on_c, 0, 67, 0
1, 13200, Note_on_c, 0, 69, 67
1, 13200, Note_on_c, 0, 65, 52
1, 13261, Note_on_c, 0, 69, 0
1, 13261, Note_on_c, 0, 65, 0
1, 13320, Note_on_c, 0, 67, 62
1, 13320, Note_on_c, 0, 64, 53
1, 13320, Note_on_c, 1, 48, 60
1, 13320, Note_on_c, 1, 58, 46
1, 13378, Note_on_c, 1, 48, 0
1, 13378, Note_on_c, 1, 58, 0
1, 13381, Note_on_c, 0, 67, 0
1, 13381, Note_on_c, 0, 64, 0
1, 13440, Note_on_c, 0, 64, 52
1, 13440, Note_on_c, 0, 67, 51
1, 13440, Note_on_c, 1, 53, 62
1, 13440, Note_on_c, 1, 58, 51
1, 13918, Note_on_c, 0, 64, 0
1, 13918, Note_on_c, 0, 67, 0
1, 13920, Note_on_c, 0, 65, 60
1, 13920, Note_on_c, 1, 58, 0
1, 13920, Note_on_c, 1, 57, 51
1, 13978, Note_on_c, 1, 57, 0
1, 13978, Note_on_c, 1, 53, 0
1, 14038, Note_on_c, 0, 65, 0
1, 14160, Note_on_c, 0, 84, 74
1, 14218, Note_on_c, 0, 84, 0
1, 14220, Note_on_c, 0, 81, 78
1, 14278, Note_on_c, 0, 81, 0
1, 14280, Note_on_c, 0, 84, 61
1, 14338, Note_on_c, 0, 84, 0
1, 14340, Note_on_c, 0, 81, 71
1, 14398, Note_on_c, 0, 81, 0
1, 14400, Note_on_c, 0, 77, 71
1, 14400, Note_on_c, 1, 65, 48
1, 14470, Note_on_c, 1, 65, 0
1, 14518, Note_on_c, 0, 77, 0
1, 14520, Note_on_c, 1, 69, 31
1, 14590, Note_on_c, 1, 69, 0
1, 14640, Note_on_c, 1, 65, 46
1, 14710, Note_on_c, 1, 65, 0
1, 14760, Note_on_c, 0, 81, 71
1, 14760, Note_on_c, 1, 69, 34
1, 14830, Note_on_c, 1, 69, 0
1, 14878, Note_on_c, 0, 81, 0
1, 14880, Note_on_c, 0, 79, 68
1, 14880, Note_on_c, 1, 65, 32
1, 14950, Note_on_c, 1, 65, 0
1, 14998, Note_on_c, 0, 79, 0
1, 15000, Note_on_c, 0, 77, 63
1, 15000, Note_on_c, 1, 69, 30
1, 15070, Note_on_c, 1, 69, 0
1, 15118, Note_on_c, 0, 77, 0
1, 15120, Note_on_c, 0, 76, 62
1, 15120, Note_on_c, 1, 65, 46
1, 15190, Note_on_c, 1, 65, 0
1, 15238, Note_on_c, 0, 76, 0
1, 15240, Note_on_c, 0, 74, 53
1, 15240, Note_on_c, 1, 69, 26
1, 15310, Note_on_c, 1, 69, 0
1, 15358, Note_on_c, 0, 74, 0
1, 15360, Note_on_c, 0, 74, 70
1, 15360, Note_on_c, 1, 64, 56
1, 15430, Note_on_c, 1, 64, 0
1, 15480, Note_on_c, 1, 67, 40
1, 15550, Note_on_c, 1, 67, 0
1, 15600, Note_on_c, 1, 64, 36
1, 15670, Note_on_c, 1, 64, 0
1, 15718, Note_on_c, 0, 74, 0
1, 15720, Note_on_c, 0, 76, 58
1, 15720, Note_on_c, 1, 67, 41
1, 15778, Note_on_c, 0, 76, 0
1, 15780, Note_on_c, 0, 74, 52
1, 15790, Note_on_c, 1, 67, 0
1, 15838, Note_on_c, 0, 74, 0
1, 15840, Note_on_c, 0, 73, 62
1, 15840, Note_on_c, 1, 64, 33
1, 15898, Note_on_c, 0, 73, 0
1, 15910, Note_on_c, 1, 64, 0
1, 15960, Note_on_c, 1, 67, 41
1, 16030, Note_on_c, 1, 67, 0
1, 16080, Note_on_c, 0, 76, 68
1, 16080, Note_on_c, 1, 64, 28
1, 16138, Note_on_c, 0, 76, 0
1, 16140, Note_on_c, 0, 73, 62
1, 16150, Note_on_c, 1, 64, 0
1, 16198, Note_on_c, 0, 73, 0
1, 16200, Note_on_c, 0, 76, 66
1, 16200, Note_on_c, 1, 67, 40
1, 16258, Note_on_c, 0, 76, 0
1, 16260, Note_on_c, 0, 73, 60
1, 16270, Note_on_c, 1, 67, 0
1, 16318, Note_on_c, 0, 73, 0
1, 16320, Note_on_c, 0, 69, 70
1, 16320, Note_on_c, 1, 61, 53
1, 16390, Note_on_c, 1, 61, 0
1, 16438, Note_on_c, 0, 69, 0
1, 16440, Note_on_c, 1, 64, 37
1, 16510, Note_on_c, 1, 64, 0
1, 16560, Note_on_c, 1, 61, 28
1, 16630, Note_on_c, 1, 61, 0
1, 16680, Note_on_c, 0, 82, 71
1, 16680, Note_on_c, 1, 64, 52
1, 16738, Note_on_c, 0, 82, 0
1, 16750, Note_on_c, 1, 64, 0
1, 16800, Note_on_c, 0, 81, 66
1, 16800, Note_on_c, 1, 61, 56
1, 16858, Note_on_c, 0, 81, 0
1, 16870, Note_on_c, 1, 61, 0
1, 16920, Note_on_c, 0, 79, 65
1, 16920, Note_on_c, 1, 69, 47
1, 16978, Note_on_c, 0, 79, 0
1, 16990, Note_on_c, 1, 69, 0
1, 17040, Note_on_c, 0, 77, 67
1, 17040, Note_on_c, 1, 61, 43
1, 17098, Note_on_c, 0, 77, 0
1, 17110, Note_on_c, 1, 61, 0
1, 17160, Note_on_c, 0, 76, 67
1, 17160, Note_on_c, 1, 69, 27
1, 17230, Note_on_c, 1, 69, 0
1, 17278, Note_on_c, 0, 76, 0
1, 17280, Note_on_c, 0, 79, 68
1, 17280, Note_on_c, 1, 62, 64
1, 17350, Note_on_c, 1, 62, 0
1, 17400, Note_on_c, 1, 69, 24
1, 17470, Note_on_c, 1, 69, 0
1, 17520, Note_on_c, 1, 62, 38
1, 17590, Note_on_c, 1, 62, 0
1, 17638, Note_on_c, 0, 79, 0
1, 17640, Note_on_c, 0, 76, 68
1, 17640, Note_on_c, 1, 69, 30
1, 17710, Note_on_c, 1, 69, 0
1, 17758, Note_on_c, 0, 76, 0
1, 17760, Note_on_c, 0, 77, 74
1, 17760, Note_on_c, 1, 62, 41
1, 17830, Note_on_c, 1, 62, 0
1, 17878, Note_on_c, 0, 77, 0
1, 17880, Note_on_c, 1, 69, 23
1, 17950, Note_on_c, 1, 69, 0
1, 18000, Note_on_c, 0, 81, 66
1, 18000, Note_on_c, 1, 62, 40
1, 18058, Note_on_c, 0, 81, 0
1, 18060, Note_on_c, 0, 77, 76
1, 18070, Note_on_c, 1, 62, 0
1, 18118, Note_on_c, 0, 77, 0
1, 18120, Note_on_c, 0, 81, 74
1, 18120, Note_on_c, 1, 69, 22
1, 18178, Note_on_c, 0, 81, 0
1, 18180, Note_on_c, 0, 77, 62
1, 18190, Note_on_c, 1, 69, 0
1, 18238, Note_on_c, 0, 77, 0
1, 18240, Note_on_c, 0, 74, 74
1, 18240, Note_on_c, 1, 59, 50
1, 18310, Note_on_c, 1, 59, 0
1, 18358, Note_on_c, 0, 74, 0
1, 18360, Note_on_c, 1, 67, 33
1, 18430, Note_on_c, 1, 67, 0
1, 18480, Note_on_c, 1, 59, 41
1, 18550, Note_on_c, 1, 59, 0
1, 18600, Note_on_c, 0, 86, 77
1, 18600, Note_on_c, 1, 67, 36
1, 18658, Note_on_c, 0, 86, 0
1, 18670, Note_on_c, 1, 67, 0
1, 18720, Note_on_c, 0, 84, 77
1, 18720, Note_on_c, 1, 59, 31
1, 18778, Note_on_c, 0, 84, 0
1, 18790, Note_on_c, 1, 59, 0
1, 18840, Note_on_c, 0, 83, 76
1, 18840, Note_on_c, 1, 67, 35
1, 18898, Note_on_c, 0, 83, 0
1, 18910, Note_on_c, 1, 67, 0
1, 18960, Note_on_c, 0, 81, 78
1, 18960, Note_on_c, 1, 59, 34
1, 19018, Note_on_c, 0, 81, 0
1, 19030, Note_on_c, 1, 59, 0
1, 19080, Note_on_c, 0, 79, 77
1, 19080, Note_on_c, 1, 67, 40
1, 19138, Note_on_c, 0, 79, 0
1, 19150, Note_on_c, 1, 67, 0
1, 19200, Note_on_c, 0, 77, 71
1, 19200, Note_on_c, 1, 60, 61
1, 19270, Note_on_c, 1, 60, 0
1, 19320, Note_on_c, 1, 67, 42
1, 19390, Note_on_c, 1, 67, 0
1, 19438, Note_on_c, 0, 77, 0
1, 19440, Note_on_c, 0, 76, 66
1, 19440, Note_on_c, 1, 60, 45
1, 19510, Note_on_c, 1, 60, 0
1, 19558, Note_on_c, 0, 76, 0
1, 19560, Note_on_c, 0, 79, 74
1, 19560, Note_on_c, 1, 67, 55
1, 19618, Note_on_c, 0, 79, 0
1, 19630, Note_on_c, 1, 67, 0
1, 19680, Note_on_c, 0, 77, 65
1, 19680, Note_on_c, 1, 52, 64
1, 19738, Note_on_c, 0, 77, 0
1, 19750, Note_on_c, 1, 52, 0
1, 19800, Note_on_c, 0, 76, 68
1, 19800, Note_on_c, 1, 60, 35
1, 19858, Note_on_c, 0, 76, 0
1, 19870, Note_on_c, 1, 60, 0
1, 19920, Note_on_c, 0, 74, 72
1, 19920, Note_on_c, 1, 52, 63
1, 19978, Note_on_c, 0, 74, 0
1, 19990, Note_on_c, 1, 52, 0
1, 20040, Note_on_c, 0, 72, 65
1, 20040, Note_on_c, 1, 60, 48
1, 20110, Note_on_c, 1, 60, 0
1, 20158, Note_on_c, 0, 72, 0
1, 20160, Note_on_c, 0, 71, 70
1, 20160, Note_on_c, 1, 53, 64
1, 20230, Note_on_c, 1, 53, 0
1, 20280, Note_on_c, 1, 60, 42
1, 20350, Note_on_c, 1, 60, 0
1, 20398, Note_on_c, 0, 71, 0
1, 20400, Note_on_c, 0, 69, 72
1, 20400, Note_on_c, 1, 53, 64
1, 20458, Note_on_c, 0, 69, 0
1, 20460, Note_on_c, 0, 74, 74
1, 20470, Note_on_c, 1, 53, 0
1, 20518, Note_on_c, 0, 74, 0
1, 20520, Note_on_c, 0, 77, 81
1, 20520, Note_on_c, 1, 60, 47
1, 20578, Note_on_c, 0, 77, 0
1, 20580, Note_on_c, 0, 81, 77
1, 20590, Note_on_c, 1, 60, 0
1, 20638, Note_on_c, 0, 81, 0
1, 20640, Note_on_c, 0, 79, 67
1, 20640, Note_on_c, 1, 53, 66
1, 20698, Note_on_c, 0, 79, 0
1, 20710, Note_on_c, 1, 53, 0
1, 20760, Note_on_c, 0, 77, 66
1, 20760, Note_on_c, 1, 62, 52
1, 20830, Note_on_c, 1, 62, 0
1, 20878, Note_on_c, 0, 77, 0
1, 20880, Note_on_c, 0, 76, 74
1, 20880, Note_on_c, 1, 54, 64
1, 20938, Note_on_c, 0, 76, 0
1, 20950, Note_on_c, 1, 54, 0
1, 21000, Note_on_c, 0, 74, 66
1, 21000, Note_on_c, 1, 62, 48
1, 21058, Note_on_c, 0, 74, 0
1, 21070, Note_on_c, 1, 62, 0
1, 21120, Note_on_c, 0, 72, 66
1, 21120, Note_on_c, 1, 55, 62
1, 21334, Note_on_c, 1, 55, 0
1, 21358, Note_on_c, 0, 72, 0
1, 21360, Note_on_c, 0, 71, 63
1, 21480, Note_on_c, 1, 62, 65
1, 21538, Note_on_c, 1, 62, 0
1, 21540, Note_on_c, 1, 59, 68
1, 21598, Note_on_c, 0, 71, 0
1, 21598, Note_on_c, 1, 59, 0
1, 21600, Note_on_c, 1, 55, 55
1, 21718, Note_on_c, 1, 55, 0
1, 21720, Note_on_c, 1, 65, 68
1, 21720, Note_on_c, 1, 69, 65
1, 21778, Note_on_c, 1, 65, 0
1, 21778, Note_on_c, 1, 69, 0
1, 21840, Note_on_c, 1, 64, 62
1, 21840, Note_on_c, 1, 67, 61
1, 21898, Note_on_c, 1, 64, 0
1, 21898, Note_on_c, 1, 67, 0
1, 21960, Note_on_c, 1, 62, 63
1, 21960, Note_on_c, 1, 65, 63
1, 22018, Note_on_c, 1, 62, 0
1, 22018, Note_on_c, 1, 65, 0
1, 22080, Note_on_c, 1, 60, 67
1, 22080, Note_on_c, 1, 64, 66
1, 22140, Note_on_c, 0, 79, 71
1, 22198, Note_on_c, 0, 79, 0
1, 22200, Note_on_c, 0, 81, 71
1, 22258, Note_on_c, 0, 81, 0
1, 22260, Note_on_c, 0, 79, 66
1, 22318, Note_on_c, 0, 79, 0
1, 22320, Note_on_c, 0, 84, 74
1, 22378, Note_on_c, 0, 84, 0
1, 22380, Note_on_c, 0, 83, 76
1, 22438, Note_on_c, 0, 83, 0
1, 22440, Note_on_c, 0, 81, 89
1, 22498, Note_on_c, 0, 81, 0
1, 22500, Note_on_c, 0, 79, 72
1, 22558, Note_on_c, 0, 79, 0
1, 22558, Note_on_c, 1, 60, 0
1, 22558, Note_on_c, 1, 64, 0
1, 22560, Note_on_c, 0, 77, 66
1, 22618, Note_on_c, 0, 77, 0
1, 22620, Note_on_c, 0, 76, 94
1, 22678, Note_on_c, 0, 76, 0
1, 22680, Note_on_c, 0, 74, 72
1, 22738, Note_on_c, 0, 74, 0
1, 22740, Note_on_c, 0, 72, 76
1, 22798, Note_on_c, 0, 72, 0
1, 22800, Note_on_c, 0, 71, 72
1, 22800, Note_on_c, 1, 64, 67
1, 22858, Note_on_c, 0, 71, 0
1, 22860, Note_on_c, 0, 72, 60
1, 22918, Note_on_c, 0, 72, 0
1, 22918, Note_on_c, 1, 64, 0
1, 22920, Note_on_c, 0, 74, 77
1, 22978, Note_on_c, 0, 74, 0
1, 22980, Note_on_c, 0, 72, 66
1, 23038, Note_on_c, 0, 72, 0
1, 23040, Note_on_c, 0, 69, 74
1, 23040, Note_on_c, 1, 65, 63
1, 23098, Note_on_c, 0, 69, 0
1, 23100, Note_on_c, 0, 72, 55
1, 23158, Note_on_c, 0, 72, 0
1, 23158, Note_on_c, 1, 65, 0
1, 23160, Note_on_c, 0, 74, 58
1, 23218, Note_on_c, 0, 74, 0
1, 23220, Note_on_c, 0, 72, 57
1, 23278, Note_on_c, 0, 72, 0
1, 23280, Note_on_c, 0, 67, 77
1, 23280, Note_on_c, 1, 64, 45
1, 23338, Note_on_c, 0, 67, 0
1, 23340, Note_on_c, 0, 72, 62
1, 23398, Note_on_c, 0, 72, 0
1, 23398, Note_on_c, 1, 64, 0
1, 23400, Note_on_c, 0, 74, 68
1, 23458, Note_on_c, 0, 74, 0
1, 23460, Note_on_c, 0, 72, 56
1, 23518, Note_on_c, 0, 72, 0
1, 23520, Note_on_c, 0, 65, 71
1, 23520, Note_on_c, 1, 62, 58
1, 23638, Note_on_c, 0, 65, 0
1, 23640, Note_on_c, 0, 77, 73
1, 23758, Note_on_c, 0, 77, 0
1, 23758, Note_on_c, 1, 62, 0
1, 23760, Note_on_c, 1, 55, 67
1, 23878, Note_on_c, 1, 55, 0
1, 23880, Note_on_c, 0, 77, 70
1, 23998, Note_on_c, 0, 77, 0
1, 24000, Note_on_c, 0, 76, 61
1, 24000, Note_on_c, 1, 60, 71
1, 24058, Note_on_c, 0, 76, 0
1, 24060, Note_on_c, 0, 79, 56
1, 24118, Note_on_c, 0, 79, 0
1, 24120, Note_on_c, 0, 81, 56
1, 24178, Note_on_c, 0, 81, 0
1, 24180, Note_on_c, 0, 79, 51
1, 24238, Note_on_c, 0, 79, 0
1, 24238, Note_on_c, 1, 60, 0
1, 24240, Note_on_c, 0, 84, 59
1, 24240, Note_on_c, 1, 64, 72
1, 24298, Note_on_c, 0, 84, 0
1, 24300, Note_on_c, 0, 83, 61
1, 24358, Note_on_c, 0, 83, 0
1, 24360, Note_on_c, 0, 81, 74
1, 24418, Note_on_c, 0, 81, 0
1, 24420, Note_on_c, 0, 79, 57
1, 24478, Note_on_c, 0, 79, 0
1, 24478, Note_on_c, 1, 64, 0
1, 24480, Note_on_c, 0, 77, 51
1, 24538, Note_on_c, 0, 77, 0
1, 24540, Note_on_c, 0, 76, 79
1, 24598, Note_on_c, 0, 76, 0
1, 24600, Note_on_c, 0, 74, 57
1, 24658, Note_on_c, 0, 74, 0
1, 24660, Note_on_c, 0, 72, 61
1, 24718, Note_on_c, 0, 72, 0
1, 24720, Note_on_c, 0, 71, 57
1, 24720, Note_on_c, 1, 64, 62
1, 24778, Note_on_c, 0, 71, 0
1, 24780, Note_on_c, 0, 72, 45
1, 24838, Note_on_c, 0, 72, 0
1, 24838, Note_on_c, 1, 64, 0
1, 24840, Note_on_c, 0, 74, 62
1, 24898, Note_on_c, 0, 74, 0
1, 24900, Note_on_c, 0, 72, 51
1, 24958, Note_on_c, 0, 72, 0
1, 24960, Note_on_c, 0, 69, 59
1, 24960, Note_on_c, 1, 65, 58
1, 25018, Note_on_c, 0, 69, 0
1, 25020, Note_on_c, 0, 72, 40
1, 25078, Note_on_c, 0, 72, 0
1, 25078, Note_on_c, 1, 65, 0
1, 25080, Note_on_c, 0, 74, 43
1, 25138, Note_on_c, 0, 74, 0
1, 25140, Note_on_c, 0, 72, 42
1, 25198, Note_on_c, 0, 72, 0
1, 25200, Note_on_c, 0, 67, 62
1, 25200, Note_on_c, 1, 64, 40
1, 25258, Note_on_c, 0, 67, 0
1, 25260, Note_on_c, 0, 72, 47
1, 25318, Note_on_c, 0, 72, 0
1, 25318, Note_on_c, 1, 64, 0
1, 25320, Note_on_c, 0, 74, 53
1, 25378, Note_on_c, 0, 74, 0
1, 25380, Note_on_c, 0, 72, 41
1, 25438, Note_on_c, 0, 72, 0
1, 25440, Note_on_c, 0, 65, 56
1, 25440, Note_on_c, 1, 62, 53
1, 25558, Note_on_c, 0, 65, 0
1, 25560, Note_on_c, 0, 77, 58
1, 25678, Note_on_c, 0, 77, 0
1, 25678, Note_on_c, 1, 62, 0
1, 25680, Note_on_c, 1, 55, 62
1, 25798, Note_on_c, 1, 55, 0
1, 25800, Note_on_c, 0, 77, 60
1, 25918, Note_on_c, 0, 77, 0
1, 25920, Note_on_c, 0, 76, 56
1, 25920, Note_on_c, 1, 60, 72
1, 25978, Note_on_c, 0, 76, 0
1, 25980, Note_on_c, 0, 77, 56
1, 26038, Note_on_c, 0, 77, 0
1, 26040, Note_on_c, 0, 79, 70
1, 26098, Note_on_c, 0, 79, 0
1, 26100, Note_on_c, 0, 77, 67
1, 26158, Note_on_c, 0, 77, 0
1, 26158, Note_on_c, 1, 60, 0
1, 26160, Note_on_c, 0, 76, 73
1, 26160, Note_on_c, 1, 62, 68
1, 26218, Note_on_c, 0, 76, 0
1, 26220, Note_on_c, 0, 74, 67
1, 26278, Note_on_c, 0, 74, 0
1, 26280, Note_on_c, 0, 72, 73
1, 26338, Note_on_c, 0, 72, 0
1, 26340, Note_on_c, 0, 71, 60
1, 26398, Note_on_c, 0, 71, 0
1, 26398, Note_on_c, 1, 62, 0
1, 26400, Note_on_c, 0, 72, 67
1, 26400, Note_on_c, 1, 64, 55
1, 26458, Note_on_c, 0, 72, 0
1, 26460, Note_on_c, 0, 74, 77
1, 26518, Note_on_c, 0, 74, 0
1, 26520, Note_on_c, 0, 76, 76
1, 26578, Note_on_c, 0, 76, 0
1, 26580, Note_on_c, 0, 74, 74
1, 26638, Note_on_c, 0, 74, 0
1, 26638, Note_on_c, 1, 64, 0
1, 26640, Note_on_c, 0, 72, 79
1, 26640, Note_on_c, 1, 52, 63
1, 26698, Note_on_c, 0, 72, 0
1, 26700, Note_on_c, 0, 71, 68
1, 26758, Note_on_c, 0, 71, 0
1, 26760, Note_on_c, 0, 69, 62
1, 26818, Note_on_c, 0, 69, 0
1, 26820, Note_on_c, 0, 68, 77
1, 26878, Note_on_c, 0, 68, 0
1, 26878, Note_on_c, 1, 52, 0
1, 26880, Note_on_c, 1, 53, 66
1, 26940, Note_on_c, 0, 69, 39
1, 26998, Note_on_c, 0, 69, 0
1, 27000, Note_on_c, 0, 71, 67
1, 27058, Note_on_c, 0, 71, 0
1, 27060, Note_on_c, 0, 73, 73
1, 27118, Note_on_c, 0, 73, 0
1, 27120, Note_on_c, 0, 74, 68
1, 27178, Note_on_c, 0, 74, 0
1, 27180, Note_on_c, 0, 76, 81
1, 27238, Note_on_c, 0, 76, 0
1, 27240, Note_on_c, 0, 77, 81
1, 27298, Note_on_c, 0, 77, 0
1, 27300, Note_on_c, 0, 79, 81
1, 27358, Note_on_c, 0, 79, 0
1, 27358, Note_on_c, 1, 53, 0
1, 27360, Note_on_c, 0, 81, 89
1, 27418, Note_on_c, 0, 81, 0
1, 27420, Note_on_c, 0, 77, 74
1, 27478, Note_on_c, 0, 77, 0
1, 27480, Note_on_c, 0, 74, 62
1, 27538, Note_on_c, 0, 74, 0
1, 27540, Note_on_c, 0, 69, 65
1, 27598, Note_on_c, 0, 69, 0
1, 27600, Note_on_c, 0, 79, 76
1, 27600, Note_on_c, 1, 52, 68
1, 27658, Note_on_c, 0, 79, 0
1, 27660, Note_on_c, 0, 76, 57
1, 27718, Note_on_c, 0, 76, 0
1, 27720, Note_on_c, 0, 72, 62
1, 27778, Note_on_c, 0, 72, 0
1, 27780, Note_on_c, 0, 67, 63
1, 27838, Note_on_c, 0, 67, 0
1, 27838, Note_on_c, 1, 52, 0
1, 27840, Note_on_c, 1, 50, 63
1, 27840, Note_on_c, 1, 59, 66
1, 27900, Note_on_c, 0, 77, 77
1, 27958, Note_on_c, 0, 77, 0
1, 27960, Note_on_c, 0, 79, 74
1, 28018, Note_on_c, 0, 79, 0
1, 28020, Note_on_c, 0, 81, 79
1, 28078, Note_on_c, 0, 81, 0
1, 28080, Note_on_c, 0, 83, 83
1, 28138, Note_on_c, 0, 83, 0
1, 28140, Note_on_c, 0, 84, 73
1, 28198, Note_on_c, 0, 84, 0
1, 28200, Note_on_c, 0, 86, 94
1, 28258, Note_on_c, 0, 86, 0
1, 28260, Note_on_c, 0, 88, 83
1, 28318, Note_on_c, 0, 88, 0
1, 28320, Note_on_c, 0, 89, 89
1, 28378, Note_on_c, 0, 89, 0
1, 28380, Note_on_c, 0, 86, 94
1, 28438, Note_on_c, 0, 86, 0
1, 28440, Note_on_c, 0, 83, 89
1, 28498, Note_on_c, 0, 83, 0
1, 28500, Note_on_c, 0, 77, 68
1, 28558, Note_on_c, 0, 77, 0
1, 28558, Note_on_c, 1, 50, 0
1, 28558, Note_on_c, 1, 59, 0
1, 28560, Note_on_c, 0, 76, 72
1, 28560, Note_on_c, 1, 60, 41
1, 28560, Note_on_c, 1, 48, 55
1, 28678, Note_on_c, 0, 76, 0
1, 28680, Note_on_c, 0, 84, 66
1, 28798, Note_on_c, 0, 84, 0
1, 28798, Note_on_c, 1, 60, 0
1, 28798, Note_on_c, 1, 48, 0
1, 28800, Note_on_c, 1, 53, 63
1, 28920, Note_on_c, 0, 77, 67
1, 28920, Note_on_c, 0, 81, 67
1, 29038, Note_on_c, 0, 77, 0
1, 29038, Note_on_c, 0, 81, 0
1, 29040, Note_on_c, 0, 76, 52
1, 29040, Note_on_c, 0, 79, 57
1, 29158, Note_on_c, 0, 76, 0
1, 29158, Note_on_c, 0, 79, 0
1, 29160, Note_on_c, 0, 74, 68
1, 29160, Note_on_c, 0, 77, 62
1, 29278, Note_on_c, 0, 74, 0
1, 29278, Note_on_c, 0, 77, 0
1, 29278, Note_on_c, 1, 53, 0
1, 29280, Note_on_c, 0, 72, 66
1, 29280, Note_on_c, 0, 76, 63
1, 29338, Note_on_c, 0, 72, 0
1, 29338, Note_on_c, 0, 76, 0
1, 29400, Note_on_c, 0, 79, 66
1, 29400, Note_on_c, 0, 76, 61
1, 29458, Note_on_c, 0, 79, 0
1, 29458, Note_on_c, 0, 76, 0
1, 29520, Note_on_c, 1, 55, 51
1, 29520, Note_on_c, 1, 43, 35
1, 29640, Note_on_c, 0, 71, 56
1, 29640, Note_on_c, 0, 65, 52
1, 29698, Note_on_c, 0, 71, 0
1, 29698, Note_on_c, 0, 65, 0
1, 29758, Note_on_c, 1, 55, 0
1, 29758, Note_on_c, 1, 43, 0
1, 29760, Note_on_c, 1, 56, 61
1, 29760, Note_on_c, 1, 44, 63
1, 29880, Note_on_c, 0, 72, 62
1, 29880, Note_on_c, 0, 63, 43
1, 29938, Note_on_c, 0, 72, 0
1, 29938, Note_on_c, 0, 63, 0
1, 29998, Note_on_c, 1, 56, 0
1, 29998, Note_on_c, 1, 44, 0
1, 30000, Note_on_c, 1, 56, 56
1, 30000, Note_on_c, 1, 60, 43
1, 30120, Note_on_c, 0, 75, 66
1, 30178, Note_on_c, 0, 75, 0
1, 30238, Note_on_c, 1, 56, 0
1, 30238, Note_on_c, 1, 60, 0
1, 30240, Note_on_c, 1, 56, 48
1, 30240, Note_on_c, 1, 60, 32
1, 30300, Note_on_c, 0, 75, 37
1, 30358, Note_on_c, 0, 75, 0
1, 30360, Note_on_c, 0, 74, 48
1, 30418, Note_on_c, 0, 74, 0
1, 30420, Note_on_c, 0, 75, 46
1, 30478, Note_on_c, 0, 75, 0
1, 30478, Note_on_c, 1, 56, 0
1, 30478, Note_on_c, 1, 60, 0
1, 30480, Note_on_c, 0, 77, 67
1, 30480, Note_on_c, 1, 56, 44
1, 30480, Note_on_c, 1, 60, 38
1, 30538, Note_on_c, 0, 77, 0
1, 30540, Note_on_c, 0, 75, 67
1, 30598, Note_on_c, 0, 75, 0
1, 30600, Note_on_c, 0, 74, 70
1, 30658, Note_on_c, 0, 74, 0
1, 30660, Note_on_c, 0, 75, 74
1, 30718, Note_on_c, 0, 75, 0
1, 30718, Note_on_c, 1, 56, 0
1, 30718, Note_on_c, 1, 60, 0
1, 30720, Note_on_c, 0, 84, 65
1, 30720, Note_on_c, 1, 55, 66
1, 30720, Note_on_c, 1, 60, 50
1, 30838, Note_on_c, 0, 84, 0
1, 30840, Note_on_c, 0, 75, 45
1, 30898, Note_on_c, 0, 75, 0
1, 30958, Note_on_c, 1, 55, 0
1, 30958, Note_on_c, 1, 60, 0
1, 30960, Note_on_c, 1, 55, 30
1, 30960, Note_on_c, 1, 60, 23
1, 31080, Note_on_c, 0, 75, 57
1, 31138, Note_on_c, 0, 75, 0
1, 31198, Note_on_c, 1, 55, 0
1, 31198, Note_on_c, 1, 60, 0
1, 31200, Note_on_c, 1, 55, 27
1, 31200, Note_on_c, 1, 60, 23
1, 31260, Note_on_c, 0, 75, 58
1, 31318, Note_on_c, 0, 75, 0
1, 31320, Note_on_c, 0, 74, 53
1, 31378, Note_on_c, 0, 74, 0
1, 31380, Note_on_c, 0, 75, 58
1, 31438, Note_on_c, 0, 75, 0
1, 31438, Note_on_c, 1, 55, 0
1, 31438, Note_on_c, 1, 60, 0
1, 31440, Note_on_c, 0, 77, 78
1, 31440, Note_on_c, 1, 55, 37
1, 31440, Note_on_c, 1, 60, 30
1, 31498, Note_on_c, 0, 77, 0
1, 31500, Note_on_c, 0, 75, 74
1, 31558, Note_on_c, 0, 75, 0
1, 31560, Note_on_c, 0, 74, 66
1, 31618, Note_on_c, 0, 74, 0
1, 31620, Note_on_c, 0, 75, 78
1, 31678, Note_on_c, 0, 75, 0
1, 31678, Note_on_c, 1, 55, 0
1, 31678, Note_on_c, 1, 60, 0
1, 31680, Note_on_c, 0, 84, 74
1, 31680, Note_on_c, 1, 54, 67
1, 31680, Note_on_c, 1, 60, 63
1, 31798, Note_on_c, 0, 84, 0
1, 31800, Note_on_c, 0, 75, 60
1, 31858, Note_on_c, 0, 75, 0
1, 31918, Note_on_c, 1, 54, 0
1, 31918, Note_on_c, 1, 60, 0
1, 31920, Note_on_c, 1, 54, 37
1, 31920, Note_on_c, 1, 60, 28
1, 32040, Note_on_c, 0, 75, 52
1, 32098, Note_on_c, 0, 75, 0
1, 32158, Note_on_c, 1, 54, 0
1, 32158, Note_on_c, 1, 60, 0
1, 32160, Note_on_c, 1, 54, 43
1, 32160, Note_on_c, 1, 60, 33
1, 32220, Note_on_c, 0, 75, 62
1, 32278, Note_on_c, 0, 75, 0
1, 32280, Note_on_c, 0, 74, 55
1, 32338, Note_on_c, 0, 74, 0
1, 32340, Note_on_c, 0, 75, 61
1, 32398, Note_on_c, 0, 75, 0
1, 32398, Note_on_c, 1, 54, 0
1, 32398, Note_on_c, 1, 60, 0
1, 32400, Note_on_c, 0, 77, 72
1, 32400, Note_on_c, 1, 57, 30
1, 32400, Note_on_c, 1, 54, 44
1, 32458, Note_on_c, 0, 77, 0
1, 32460, Note_on_c, 0, 75, 65
1, 32518, Note_on_c, 0, 75, 0
1, 32520, Note_on_c, 0, 74, 72
1, 32578, Note_on_c, 0, 74, 0
1, 32580, Note_on_c, 0, 72, 72
1, 32638, Note_on_c, 0, 72, 0
1, 32638, Note_on_c, 1, 57, 0
1, 32638, Note_on_c, 1, 54, 0
1, 32640, Note_on_c, 0, 71, 73
1, 32640, Note_on_c, 1, 59, 62
1, 32640, Note_on_c, 1, 55, 65
1, 32698, Note_on_c, 0, 71, 0
1, 32700, Note_on_c, 0, 72, 60
1, 32758, Note_on_c, 0, 72, 0
1, 32760, Note_on_c, 0, 74, 74
1, 32818, Note_on_c, 0, 74, 0
1, 32820, Note_on_c, 0, 72, 52
1, 32878, Note_on_c, 0, 72, 0
1, 32878, Note_on_c, 1, 59, 0
1, 32878, Note_on_c, 1, 55, 0
1, 32880, Note_on_c, 0, 71, 65
1, 32880, Note_on_c, 1, 57, 55
1, 32880, Note_on_c, 1, 60, 56
1, 32938, Note_on_c, 0, 71, 0
1, 32940, Note_on_c, 0, 69, 66
1, 32998, Note_on_c, 0, 69, 0
1, 33000, Note_on_c, 0, 67, 62
1, 33058, Note_on_c, 0, 67, 0
1, 33060, Note_on_c, 0, 66, 81
1, 33118, Note_on_c, 0, 66, 0
1, 33118, Note_on_c, 1, 57, 0
1, 33118, Note_on_c, 1, 60, 0
1, 33120, Note_on_c, 0, 67, 63
1, 33120, Note_on_c, 1, 59, 62
1, 33120, Note_on_c, 1, 62, 61
1, 33238, Note_on_c, 0, 67, 0
1, 33240, Note_on_c, 0, 74, 72
1, 33298, Note_on_c, 0, 74, 0
1, 33300, Note_on_c, 0, 72, 70
1, 33358, Note_on_c, 0, 72, 0
1, 33358, Note_on_c, 1, 59, 0
1, 33358, Note_on_c, 1, 62, 0
1, 33360, Note_on_c, 0, 71, 78
1, 33418, Note_on_c, 0, 71, 0
1, 33420, Note_on_c, 0, 69, 71
1, 33478, Note_on_c, 0, 69, 0
1, 33480, Note_on_c, 0, 67, 68
1, 33538, Note_on_c, 0, 67, 0
1, 33540, Note_on_c, 0, 65, 79
1, 33598, Note_on_c, 0, 65, 0
1, 33600, Note_on_c, 0, 64, 73
1, 33600, Note_on_c, 1, 60, 65
1, 33658, Note_on_c, 0, 64, 0
1, 33660, Note_on_c, 0, 72, 74
1, 33718, Note_on_c, 0, 72, 0
1, 33720, Note_on_c, 0, 71, 62
1, 33778, Note_on_c, 0, 71, 0
1, 33780, Note_on_c, 0, 72, 74
1, 33838, Note_on_c, 0, 72, 0
1, 33838, Note_on_c, 1, 60, 0
1, 33840, Note_on_c, 0, 76, 68
1, 33898, Note_on_c, 0, 76, 0
1, 33900, Note_on_c, 0, 72, 53
1, 33958, Note_on_c, 0, 72, 0
1, 33960, Note_on_c, 0, 71, 55
1, 34018, Note_on_c, 0, 71, 0
1, 34020, Note_on_c, 0, 72, 53
1, 34078, Note_on_c, 0, 72, 0
1, 34080, Note_on_c, 0, 67, 72
1, 34080, Note_on_c, 1, 64, 57
1, 34138, Note_on_c, 0, 67, 0
1, 34140, Note_on_c, 0, 72, 67
1, 34198, Note_on_c, 0, 72, 0
1, 34198, Note_on_c, 1, 64, 0
1, 34200, Note_on_c, 0, 71, 55
1, 34258, Note_on_c, 0, 71, 0
1, 34260, Note_on_c, 0, 72, 55
1, 34318, Note_on_c, 0, 72, 0
1, 34320, Note_on_c, 0, 69, 73
1, 34320, Note_on_c, 1, 65, 52
1, 34378, Note_on_c, 0, 69, 0
1, 34380, Note_on_c, 0, 72, 53
1, 34438, Note_on_c, 0, 72, 0
1, 34438, Note_on_c, 1, 65, 0
1, 34440, Note_on_c, 0, 71, 39
1, 34498, Note_on_c, 0, 71, 0
1, 34500, Note_on_c, 0, 72, 57
1, 34558, Note_on_c, 0, 72, 0
1, 34560, Note_on_c, 0, 67, 74
1, 34560, Note_on_c, 1, 64, 57
1, 34618, Note_on_c, 0, 67, 0
1, 34620, Note_on_c, 0, 72, 65
1, 34678, Note_on_c, 0, 72, 0
1, 34678, Note_on_c, 1, 64, 0
1, 34680, Note_on_c, 0, 71, 48
1, 34738, Note_on_c, 0, 71, 0
1, 34740, Note_on_c, 0, 72, 62
1, 34798, Note_on_c, 0, 72, 0
1, 34800, Note_on_c, 0, 76, 42
1, 34858, Note_on_c, 0, 76, 0
1, 34860, Note_on_c, 0, 72, 65
1, 34918, Note_on_c, 0, 72, 0
1, 34920, Note_on_c, 0, 71, 56
1, 34978, Note_on_c, 0, 71, 0
1, 34980, Note_on_c, 0, 72, 48
1, 35038, Note_on_c, 0, 72, 0
1, 35040, Note_on_c, 0, 79, 86
1, 35040, Note_on_c, 1, 64, 45
1, 35098, Note_on_c, 0, 79, 0
1, 35100, Note_on_c, 0, 72, 55
1, 35158, Note_on_c, 0, 72, 0
1, 35158, Note_on_c, 1, 64, 0
1, 35160, Note_on_c, 0, 71, 27
1, 35218, Note_on_c, 0, 71, 0
1, 35220, Note_on_c, 0, 72, 45
1, 35278, Note_on_c, 0, 72, 0
1, 35280, Note_on_c, 0, 81, 76
1, 35280, Note_on_c, 1, 65, 47
1, 35338, Note_on_c, 0, 81, 0
1, 35340, Note_on_c, 0, 72, 36
1, 35398, Note_on_c, 0, 72, 0
1, 35398, Note_on_c, 1, 65, 0
1, 35400, Note_on_c, 0, 71, 47
1, 35458, Note_on_c, 0, 71, 0
1, 35460, Note_on_c, 0, 72, 48
1, 35518, Note_on_c, 0, 72, 0
1, 35520, Note_on_c, 0, 79, 77
1, 35520, Note_on_c, 1, 64, 62
1, 35578, Note_on_c, 0, 79, 0
1, 35580, Note_on_c, 0, 72, 53
1, 35638, Note_on_c, 0, 72, 0
1, 35638, Note_on_c, 1, 64, 0
1, 35640, Note_on_c, 0, 71, 67
1, 35698, Note_on_c, 0, 71, 0
1, 35700, Note_on_c, 0, 72, 37
1, 35758, Note_on_c, 0, 72, 0
1, 35760, Note_on_c, 0, 76, 55
1, 35818, Note_on_c, 0, 76, 0
1, 35820, Note_on_c, 0, 72, 45
1, 35878, Note_on_c, 0, 72, 0
1, 35880, Note_on_c, 0, 71, 52
1, 35938, Note_on_c, 0, 71, 0
1, 35940, Note_on_c, 0, 72, 36
1, 35998, Note_on_c, 0, 72, 0
1, 36000, Note_on_c, 0, 67, 78
1, 36000, Note_on_c, 1, 64, 36
1, 36058, Note_on_c, 0, 67, 0
1, 36060, Note_on_c, 0, 72, 58
1, 36118, Note_on_c, 0, 72, 0
1, 36118, Note_on_c, 1, 64, 0
1, 36120, Note_on_c, 0, 71, 45
1, 36178, Note_on_c, 0, 71, 0
1, 36180, Note_on_c, 0, 72, 51
1, 36238, Note_on_c, 0, 72, 0
1, 36240, Note_on_c, 0, 69, 76
1, 36240, Note_on_c, 1, 65, 66
1, 36298, Note_on_c, 0, 69, 0
1, 36300, Note_on_c, 0, 72, 55
1, 36358, Note_on_c, 0, 72, 0
1, 36358, Note_on_c, 1, 65, 0
1, 36360, Note_on_c, 0, 71, 56
1, 36418, Note_on_c, 0, 71, 0
1, 36420, Note_on_c, 0, 72, 65
1, 36478, Note_on_c, 0, 72, 0
1, 36480, Note_on_c, 0, 67, 66
1, 36480, Note_on_c, 1, 64, 33
1, 36538, Note_on_c, 0, 67, 0
1, 36540, Note_on_c, 0, 72, 57
1, 36598, Note_on_c, 0, 72, 0
1, 36600, Note_on_c, 0, 71, 35
1, 36658, Note_on_c, 0, 71, 0
1, 36660, Note_on_c, 0, 72, 47
1, 36718, Note_on_c, 0, 72, 0
1, 36718, Note_on_c, 1, 64, 0
1, 36720, Note_on_c, 0, 76, 67
1, 36778, Note_on_c, 0, 76, 0
1, 36780, Note_on_c, 0, 72, 47
1, 36838, Note_on_c, 0, 72, 0
1, 36840, Note_on_c, 0, 71, 33
1, 36898, Note_on_c, 0, 71, 0
1, 36900, Note_on_c, 0, 72, 61
1, 36958, Note_on_c, 0, 72, 0
1, 36960, Note_on_c, 0, 79, 86
1, 36960, Note_on_c, 1, 64, 48
1, 37018, Note_on_c, 0, 79, 0
1, 37020, Note_on_c, 0, 72, 51
1, 37078, Note_on_c, 0, 72, 0
1, 37078, Note_on_c, 1, 64, 0
1, 37080, Note_on_c, 0, 71, 46
1, 37138, Note_on_c, 0, 71, 0
1, 37140, Note_on_c, 0, 72, 42
1, 37198, Note_on_c, 0, 72, 0
1, 37200, Note_on_c, 0, 81, 81
1, 37200, Note_on_c, 1, 65, 44
1, 37258, Note_on_c, 0, 81, 0
1, 37260, Note_on_c, 0, 72, 35
1, 37318, Note_on_c, 0, 72, 0
1, 37318, Note_on_c, 1, 65, 0
1, 37320, Note_on_c, 0, 71, 60
1, 37378, Note_on_c, 0, 71, 0
1, 37380, Note_on_c, 0, 72, 53
1, 37438, Note_on_c, 0, 72, 0
1, 37440, Note_on_c, 0, 79, 81
1, 37440, Note_on_c, 1, 64, 36
1, 37498, Note_on_c, 0, 79, 0
1, 37500, Note_on_c, 0, 72, 55
1, 37558, Note_on_c, 0, 72, 0
1, 37558, Note_on_c, 1, 64, 0
1, 37560, Note_on_c, 0, 71, 56
1, 37618, Note_on_c, 0, 71, 0
1, 37620, Note_on_c, 0, 72, 30
1, 37678, Note_on_c, 0, 72, 0
1, 37680, Note_on_c, 0, 81, 76
1, 37680, Note_on_c, 1, 65, 62
1, 37738, Note_on_c, 0, 81, 0
1, 37740, Note_on_c, 0, 72, 57
1, 37798, Note_on_c, 0, 72, 0
1, 37798, Note_on_c, 1, 65, 0
1, 37800, Note_on_c, 0, 71, 45
1, 37858, Note_on_c, 0, 71, 0
1, 37860, Note_on_c, 0, 72, 37
1, 37918, Note_on_c, 0, 72, 0
1, 37920, Note_on_c, 0, 79, 74
1, 37920, Note_on_c, 1, 64, 68
1, 37978, Note_on_c, 0, 79, 0
1, 37980, Note_on_c, 0, 72, 32
1, 38038, Note_on_c, 0, 72, 0
1, 38038, Note_on_c, 1, 64, 0
1, 38040, Note_on_c, 0, 71, 58
1, 38098, Note_on_c, 0, 71, 0
1, 38100, Note_on_c, 0, 72, 43
1, 38158, Note_on_c, 0, 72, 0
1, 38160, Note_on_c, 0, 81, 77
1, 38160, Note_on_c, 1, 65, 62
1, 38218, Note_on_c, 0, 81, 0
1, 38220, Note_on_c, 0, 72, 62
1, 38278, Note_on_c, 0, 72, 0
1, 38278, Note_on_c, 1, 65, 0
1, 38280, Note_on_c, 0, 71, 43
1, 38338, Note_on_c, 0, 71, 0
1, 38340, Note_on_c, 0, 72, 30
1, 38398, Note_on_c, 0, 72, 0
1, 38400, Note_on_c, 0, 79, 74
1, 38400, Note_on_c, 1, 64, 71
1, 38458, Note_on_c, 0, 79, 0
1, 38460, Note_on_c, 0, 72, 40
1, 38518, Note_on_c, 0, 72, 0
1, 38520, Note_on_c, 0, 71, 40
1, 38578, Note_on_c, 0, 71, 0
1, 38580, Note_on_c, 0, 72, 45
1, 38638, Note_on_c, 0, 72, 0
1, 38640, Note_on_c, 0, 79, 76
1, 38698, Note_on_c, 0, 79, 0
1, 38700, Note_on_c, 0, 72, 55
1, 38758, Note_on_c, 0, 72, 0
1, 38760, Note_on_c, 0, 71, 65
1, 38818, Note_on_c, 0, 71, 0
1, 38820, Note_on_c, 0, 72, 58
1, 38878, Note_on_c, 0, 72, 0
1, 38878, Note_on_c, 1, 64, 0
1, 38880, Note_on_c, 0, 79, 74
1, 38880, Note_on_c, 1, 67, 63
1, 38880, Note_on_c, 1, 63, 63
1, 38938, Note_on_c, 0, 79, 0
1, 38940, Note_on_c, 0, 72, 48
1, 38998, Note_on_c, 0, 72, 0
1, 39000, Note_on_c, 0, 71, 55
1, 39058, Note_on_c, 0, 71, 0
1, 39060, Note_on_c, 0, 72, 51
1, 39118, Note_on_c, 0, 72, 0
1, 39120, Note_on_c, 0, 79, 74
1, 39178, Note_on_c, 0, 79, 0
1, 39180, Note_on_c, 0, 72, 56
1, 39238, Note_on_c, 0, 72, 0
1, 39240, Note_on_c, 0, 71, 56
1, 39298, Note_on_c, 0, 71, 0
1, 39300, Note_on_c, 0, 72, 40
1, 39358, Note_on_c, 0, 72, 0
1, 39358, Note_on_c, 1, 67, 0
1, 39358, Note_on_c, 1, 63, 0
1, 39360, Note_on_c, 0, 78, 78
1, 39360, Note_on_c, 1, 69, 66
1, 39360, Note_on_c, 1, 62, 72
1, 39418, Note_on_c, 0, 78, 0
1, 39420, Note_on_c, 0, 72, 61
1, 39478, Note_on_c, 0, 72, 0
1, 39480, Note_on_c, 0, 71, 63
1, 39538, Note_on_c, 0, 71, 0
1, 39540, Note_on_c, 0, 72, 58
1, 39598, Note_on_c, 0, 72, 0
1, 39600, Note_on_c, 0, 78, 77
1, 39658, Note_on_c, 0, 78, 0
1, 39660, Note_on_c, 0, 72, 51
1, 39718, Note_on_c, 0, 72, 0
1, 39720, Note_on_c, 0, 71, 57
1, 39778, Note_on_c, 0, 71, 0
1, 39780, Note_on_c, 0, 72, 56
1, 39838, Note_on_c, 0, 72, 0
1, 39838, Note_on_c, 1, 69, 0
1, 39838, Note_on_c, 1, 62, 0
1, 39840, Note_on_c, 0, 77, 72
1, 39840, Note_on_c, 1, 59, 66
1, 39840, Note_on_c, 1, 67, 58
1, 39898, Note_on_c, 0, 77, 0
1, 39900, Note_on_c, 0, 74, 53
1, 39958, Note_on_c, 0, 74, 0
1, 39960, Note_on_c, 0, 73, 61
1, 40018, Note_on_c, 0, 73, 0
1, 40020, Note_on_c, 0, 74, 58
1, 40078, Note_on_c, 0, 74, 0
1, 40080, Note_on_c, 0, 77, 77
1, 40138, Note_on_c, 0, 77, 0
1, 40140, Note_on_c, 0, 74, 55
1, 40198, Note_on_c, 0, 74, 0
1, 40200, Note_on_c, 0, 73, 55
1, 40258, Note_on_c, 0, 73, 0
1, 40260, Note_on_c, 0, 74, 51
1, 40318, Note_on_c, 0, 74, 0
1, 40318, Note_on_c, 1, 59, 0
1, 40318, Note_on_c, 1, 67, 0
1, 40320, Note_on_c, 0, 76, 76
1, 40320, Note_on_c, 1, 60, 71
1, 40320, Note_on_c, 1, 67, 33
1, 40438, Note_on_c, 0, 76, 0
1, 40440, Note_on_c, 0, 84, 76
1, 40558, Note_on_c, 0, 84, 0
1, 40560, Note_on_c, 0, 86, 74
1, 40618, Note_on_c, 0, 86, 0
1, 40620, Note_on_c, 0, 84, 62
1, 40678, Note_on_c, 0, 84, 0
1, 40680, Note_on_c, 0, 83, 67
1, 40738, Note_on_c, 0, 83, 0
1, 40740, Note_on_c, 0, 81, 68
1, 40798, Note_on_c, 0, 81, 0
1, 40798, Note_on_c, 1, 60, 0
1, 40798, Note_on_c, 1, 67, 0
1, 40800, Note_on_c, 0, 81, 77
1, 40858, Note_on_c, 0, 81, 0
1, 40860, Note_on_c, 0, 79, 62
1, 40918, Note_on_c, 0, 79, 0
1, 40920, Note_on_c, 0, 77, 53
1, 40978, Note_on_c, 0, 77, 0
1, 40980, Note_on_c, 0, 76, 55
1, 41038, Note_on_c, 0, 76, 0
1, 41040, Note_on_c, 0, 76, 79
1, 41040, Note_on_c, 1, 52, 68
1, 41040, Note_on_c, 1, 60, 55
1, 41098, Note_on_c, 0, 76, 0
1, 41100, Note_on_c, 0, 74, 67
1, 41158, Note_on_c, 0, 74, 0
1, 41160, Note_on_c, 0, 72, 63
1, 41218, Note_on_c, 0, 72, 0
1, 41220, Note_on_c, 0, 71, 67
1, 41278, Note_on_c, 0, 71, 0
1, 41278, Note_on_c, 1, 52, 0
1, 41280, Note_on_c, 0, 69, 71
1, 41280, Note_on_c, 1, 53, 57
1, 41338, Note_on_c, 0, 69, 0
1, 41400, Note_on_c, 0, 80, 70
1, 41458, Note_on_c, 0, 80, 0
1, 41460, Note_on_c, 0, 81, 65
1, 41518, Note_on_c, 0, 81, 0
1, 41518, Note_on_c, 1, 60, 0
1, 41520, Note_on_c, 0, 79, 67
1, 41520, Note_on_c, 1, 65, 65
1, 41578, Note_on_c, 0, 79, 0
1, 41580, Note_on_c, 0, 77, 67
1, 41638, Note_on_c, 0, 77, 0
1, 41640, Note_on_c, 0, 76, 63
1, 41698, Note_on_c, 0, 76, 0
1, 41700, Note_on_c, 0, 74, 53
1, 41758, Note_on_c, 0, 74, 0
1, 41758, Note_on_c, 1, 53, 0
1, 41758, Note_on_c, 1, 65, 0
1, 41760, Note_on_c, 0, 72, 66
1, 41760, Note_on_c, 1, 55, 44
1, 41760, Note_on_c, 1, 64, 65
1, 41998, Note_on_c, 0, 72, 0
1, 41998, Note_on_c, 1, 64, 0
1, 42000, Note_on_c, 0, 71, 63
1, 42000, Note_on_c, 1, 62, 65
1, 42046, Note_on_c, 0, 71, 0
1, 42048, Note_on_c, 0, 72, 67
1, 42094, Note_on_c, 0, 72, 0
1, 42096, Note_on_c, 0, 71, 63
1, 42142, Note_on_c, 0, 71, 0
1, 42144, Note_on_c, 0, 69, 67
1, 42190, Note_on_c, 0, 69, 0
1, 42192, Note_on_c, 0, 71, 58
1, 42238, Note_on_c, 0, 71, 0
1, 42238, Note_on_c, 1, 55, 0
1, 42238, Note_on_c, 1, 62, 0
1, 42240, Note_on_c, 0, 72, 55
1, 42240, Note_on_c, 1, 60, 63
1, 42240, Note_on_c, 1, 64, 48
1, 42298, Note_on_c, 0, 72, 0
1, 42300, Note_on_c, 0, 84, 53
1, 42358, Note_on_c, 0, 84, 0
1, 42360, Note_on_c, 0, 83, 67
1, 42418, Note_on_c, 0, 83, 0
1, 42420, Note_on_c, 0, 84, 60
1, 42478, Note_on_c, 0, 84, 0
1, 42480, Note_on_c, 0, 86, 65
1, 42538, Note_on_c, 0, 86, 0
1, 42540, Note_on_c, 0, 84, 57
1, 42598, Note_on_c, 0, 84, 0
1, 42600, Note_on_c, 0, 83, 81
1, 42658, Note_on_c, 0, 83, 0
1, 42660, Note_on_c, 0, 81, 65
1, 42718, Note_on_c, 0, 81, 0
1, 42718, Note_on_c, 1, 60, 0
1, 42718, Note_on_c, 1, 64, 0
1, 42720, Note_on_c, 0, 81, 74
1, 42778, Note_on_c, 0, 81, 0
1, 42780, Note_on_c, 0, 79, 73
1, 42838, Note_on_c, 0, 79, 0
1, 42840, Note_on_c, 0, 77, 78
1, 42898, Note_on_c, 0, 77, 0
1, 42900, Note_on_c, 0, 76, 74
1, 42958, Note_on_c, 0, 76, 0
1, 42960, Note_on_c, 0, 76, 62
1, 42960, Note_on_c, 1, 52, 51
1, 42960, Note_on_c, 1, 60, 62
1, 43018, Note_on_c, 0, 76, 0
1, 43020, Note_on_c, 0, 74, 57
1, 43078, Note_on_c, 0, 74, 0
1, 43080, Note_on_c, 0, 72, 74
1, 43138, Note_on_c, 0, 72, 0
1, 43140, Note_on_c, 0, 71, 65
1, 43198, Note_on_c, 0, 71, 0
1, 43198, Note_on_c, 1, 52, 0
1, 43200, Note_on_c, 0, 69, 67
1, 43200, Note_on_c, 1, 53, 63
1, 43258, Note_on_c, 0, 69, 0
1, 43320, Note_on_c, 0, 80, 68
1, 43378, Note_on_c, 0, 80, 0
1, 43380, Note_on_c, 0, 81, 72
1, 43438, Note_on_c, 0, 81, 0
1, 43438, Note_on_c, 1, 60, 0
1, 43440, Note_on_c, 0, 79, 56
1, 43440, Note_on_c, 1, 65, 60
1, 43498, Note_on_c, 0, 79, 0
1, 43500, Note_on_c, 0, 77, 67
1, 43558, Note_on_c, 0, 77, 0
1, 43560, Note_on_c, 0, 76, 62
1, 43618, Note_on_c, 0, 76, 0
1, 43620, Note_on_c, 0, 74, 61
1, 43678, Note_on_c, 0, 74, 0
1, 43678, Note_on_c, 1, 53, 0
1, 43678, Note_on_c, 1, 65, 0
1, 43680, Note_on_c, 0, 72, 61
1, 43680, Note_on_c, 1, 55, 55
1, 43680, Note_on_c, 1, 64, 57
1, 43918, Note_on_c, 0, 72, 0
1, 43918, Note_on_c, 1, 64, 0
1, 43920, Note_on_c, 0, 71, 61
1, 43920, Note_on_c, 1, 62, 65
1, 43952, Note_on_c, 0, 71, 0
1, 43954, Note_on_c, 0, 72, 55
1, 43987, Note_on_c, 0, 72, 0
1, 43989, Note_on_c, 0, 71, 57
1, 44021, Note_on_c, 0, 71, 0
1, 44023, Note_on_c, 0, 72, 65
1, 44055, Note_on_c, 0, 72, 0
1, 44057, Note_on_c, 0, 71, 74
1, 44089, Note_on_c, 0, 71, 0
1, 44091, Note_on_c, 0, 69, 65
1, 44124, Note_on_c, 0, 69, 0
1, 44126, Note_on_c, 0, 71, 58
1, 44158, Note_on_c, 0, 71, 0
1, 44158, Note_on_c, 1, 55, 0
1, 44158, Note_on_c, 1, 62, 0
1, 44160, Note_on_c, 0, 72, 65
1, 44160, Note_on_c, 1, 48, 63
1, 44218, Note_on_c, 0, 72, 0
1, 44218, Note_on_c, 1, 48, 0
1, 44220, Note_on_c, 1, 60, 48
1, 44278, Note_on_c, 1, 60, 0
1, 44280, Note_on_c, 1, 59, 44
1, 44338, Note_on_c, 1, 59, 0
1, 44340, Note_on_c, 1, 60, 38
1, 44398, Note_on_c, 1, 60, 0
1, 44400, Note_on_c, 0, 69, 71
1, 44400, Note_on_c, 0, 65, 57
1, 44400, Note_on_c, 1, 48, 62
1, 44458, Note_on_c, 0, 69, 0
1, 44458, Note_on_c, 0, 65, 0
1, 44458, Note_on_c, 1, 48, 0
1, 44460, Note_on_c, 1, 60, 21
1, 44518, Note_on_c, 1, 60, 0
1, 44520, Note_on_c, 1, 59, 31
1, 44578, Note_on_c, 1, 59, 0
1, 44580, Note_on_c, 1, 60, 57
1, 44638, Note_on_c, 1, 60, 0
1, 44640, Note_on_c, 0, 67, 58
1, 44640, Note_on_c, 0, 64, 66
1, 44640, Note_on_c, 1, 48, 45
1, 44698, Note_on_c, 0, 67, 0
1, 44698, Note_on_c, 0, 64, 0
1, 44698, Note_on_c, 1, 48, 0
1, 44700, Note_on_c, 1, 60, 57
1, 44758, Note_on_c, 1, 60, 0
1, 44760, Note_on_c, 1, 59, 42
1, 44818, Note_on_c, 1, 59, 0
1, 44820, Note_on_c, 1, 60, 62
1, 44878, Note_on_c, 1, 60, 0
1, 44880, Note_on_c, 0, 62, 67
1, 44880, Note_on_c, 0, 71, 74
1, 44880, Note_on_c, 0, 65, 73
1, 44880, Note_on_c, 1, 48, 62
1, 44938, Note_on_c, 0, 62, 0
1, 44938, Note_on_c, 0, 71, 0
1, 44938, Note_on_c, 0, 65, 0
1, 44938, Note_on_c, 1, 48, 0
1, 44940, Note_on_c, 1, 60, 46
1, 44998, Note_on_c, 1, 60, 0
1, 45000, Note_on_c, 1, 59, 43
1, 45058, Note_on_c, 1, 59, 0
1, 45060, Note_on_c, 1, 60, 56
1, 45118, Note_on_c, 1, 60, 0
1, 45120, Note_on_c, 0, 72, 76
1, 45120, Note_on_c, 0, 67, 68
1, 45120, Note_on_c, 0, 64, 68
1, 45120, Note_on_c, 1, 48, 76
1, 45178, Note_on_c, 0, 72, 0
1, 45178, Note_on_c, 0, 67, 0
1, 45178, Note_on_c, 0, 64, 0
1, 45178, Note_on_c, 1, 48, 0
1, 45180, Note_on_c, 1, 60, 65
1, 45238, Note_on_c, 1, 60, 0
1, 45240, Note_on_c, 1, 59, 52
1, 45298, Note_on_c, 1, 59, 0
1, 45300, Note_on_c, 1, 60, 62
1, 45358, Note_on_c, 1, 60, 0
1, 45360, Note_on_c, 0, 81, 78
1, 45360, Note_on_c, 0, 77, 74
1, 45360, Note_on_c, 1, 48, 76
1, 45418, Note_on_c, 0, 81, 0
1, 45418, Note_on_c, 0, 77, 0
1, 45418, Note_on_c, 1, 48, 0
1, 45420, Note_on_c, 1, 60, 68
1, 45478, Note_on_c, 1, 60, 0
1, 45480, Note_on_c, 1, 59, 68
1, 45538, Note_on_c, 1, 59, 0
1, 45540, Note_on_c, 1, 60, 72
1, 45598, Note_on_c, 1, 60, 0
1, 45600, Note_on_c, 0, 79, 76
1, 45600, Note_on_c, 0, 76, 71
1, 45600, Note_on_c, 1, 48, 78
1, 45658, Note_on_c, 0, 79, 0
1, 45658, Note_on_c, 0, 76, 0
1, 45658, Note_on_c, 1, 48, 0
1, 45660, Note_on_c, 1, 60, 72
1, 45718, Note_on_c, 1, 60, 0
1, 45720, Note_on_c, 1, 59, 74
1, 45778, Note_on_c, 1, 59, 0
1, 45780, Note_on_c, 1, 60, 74
1, 45838, Note_on_c, 1, 60, 0
1, 45840, Note_on_c, 0, 83, 79
1, 45840, Note_on_c, 0, 77, 77
1, 45840, Note_on_c, 0, 74, 74
1, 45840, Note_on_c, 1, 48, 76
1, 45898, Note_on_c, 0, 83, 0
1, 45898, Note_on_c, 0, 77, 0
1, 45898, Note_on_c, 0, 74, 0
1, 45898, Note_on_c, 1, 48, 0
1, 45900, Note_on_c, 1, 60, 74
1, 45958, Note_on_c, 1, 60, 0
1, 45960, Note_on_c, 1, 59, 81
1, 46018, Note_on_c, 1, 59, 0
1, 46020, Note_on_c, 1, 60, 78
1, 46078, Note_on_c, 1, 60, 0
1, 46080, Note_on_c, 0, 84, 77
1, 46080, Note_on_c, 0, 79, 73
1, 46080, Note_on_c, 0, 76, 68
1, 46080, Note_on_c, 1, 48, 74
1, 46558, Note_on_c, 0, 84, 0
1, 46558, Note_on_c, 0, 79, 0
1, 46558, Note_on_c, 0, 76, 0
1, 46558, Note_on_c, 1, 48, 0
1, 46800, Note_on_c, 0, 72, 74
1, 46978, Note_on_c, 0, 72, 0
1, 46980, Note_on_c, 0, 69, 74
1, 47038, Note_on_c, 0, 69, 0
1, 47040, Note_on_c, 0, 65, 68
1, 47040, Note_on_c, 1, 57, 57
1, 47040, Note_on_c, 1, 53, 56
1, 47101, Note_on_c, 1, 57, 0
1, 47101, Note_on_c, 1, 53, 0
1, 47110, Note_on_c, 0, 65, 0
1, 47280, Note_on_c, 0, 69, 66
1, 47458, Note_on_c, 0, 69, 0
1, 47460, Note_on_c, 0, 65, 66
1, 47518, Note_on_c, 0, 65, 0
1, 47520, Note_on_c, 0, 64, 60
1, 47520, Note_on_c, 1, 48, 63
1, 47520, Note_on_c, 1, 58, 52
1, 47581, Note_on_c, 1, 48, 0
1, 47581, Note_on_c, 1, 58, 0
1, 47590, Note_on_c, 0, 64, 0
1, 47760, Note_on_c, 0, 67, 73
1, 47938, Note_on_c, 0, 67, 0
1, 47940, Note_on_c, 0, 64, 52
1, 47998, Note_on_c, 0, 64, 0
1, 48000, Note_on_c, 0, 65, 68
1, 48000, Note_on_c, 1, 57, 56
1, 48000, Note_on_c, 1, 53, 48
1, 48061, Note_on_c, 1, 57, 0
1, 48061, Note_on_c, 1, 53, 0
1, 48070, Note_on_c, 0, 65, 0
1, 48240, Note_on_c, 0, 70, 67
1, 48240, Note_on_c, 0, 74, 76
1, 48478, Note_on_c, 0, 70, 0
1, 48478, Note_on_c, 0, 74, 0
1, 48480, Note_on_c, 0, 69, 56
1, 48480, Note_on_c, 0, 72, 61
1, 48598, Note_on_c, 0, 69, 0
1, 48598, Note_on_c, 0, 72, 0
1, 48720, Note_on_c, 0, 79, 77
1, 48778, Note_on_c, 0, 79, 0
1, 48780, Note_on_c, 0, 77, 73
1, 48838, Note_on_c, 0, 77, 0
1, 48840, Note_on_c, 0, 76, 65
1, 48898, Note_on_c, 0, 76, 0
1, 48900, Note_on_c, 0, 74, 71
1, 48958, Note_on_c, 0, 74, 0
1, 48960, Note_on_c, 0, 72, 65
1, 49198, Note_on_c, 0, 72, 0
1, 49200, Note_on_c, 0, 81, 74
1, 49200, Note_on_c, 1, 65, 65
1, 49278, Note_on_c, 0, 81, 0
1, 49280, Note_on_c, 0, 69, 58
1, 49358, Note_on_c, 0, 69, 0
1, 49360, Note_on_c, 0, 74, 65
1, 49438, Note_on_c, 0, 74, 0
1, 49438, Note_on_c, 1, 65, 0
1, 49440, Note_on_c, 0, 72, 68
1, 49440, Note_on_c, 1, 67, 63
1, 49678, Note_on_c, 0, 72, 0
1, 49678, Note_on_c, 1, 67, 0
1, 49680, Note_on_c, 0, 70, 63
1, 49680, Note_on_c, 1, 60, 65
1, 49706, Note_on_c, 0, 70, 0
1, 49728, Note_on_c, 0, 72, 66
1, 49754, Note_on_c, 0, 72, 0
1, 49776, Note_on_c, 0, 70, 60
1, 49802, Note_on_c, 0, 70, 0
1, 49824, Note_on_c, 0, 69, 78
1, 49850, Note_on_c, 0, 69, 0
1, 49872, Note_on_c, 0, 70, 71
1, 49898, Note_on_c, 0, 70, 0
1, 49918, Note_on_c, 1, 60, 0
1, 49920, Note_on_c, 0, 70, 63
1, 49920, Note_on_c, 1, 65, 62
1, 50158, Note_on_c, 1, 65, 0
1, 50160, Note_on_c, 1, 60, 55
1, 50398, Note_on_c, 0, 70, 0
1, 50398, Note_on_c, 1, 60, 0
1, 50400, Note_on_c, 0, 69, 55
1, 50400, Note_on_c, 1, 53, 63
1, 50518, Note_on_c, 0, 69, 0
1, 50518, Note_on_c, 1, 53, 0
1, 50640, Note_on_c, 0, 72, 66
1, 50698, Note_on_c, 0, 72, 0
1, 50700, Note_on_c, 0, 69, 74
1, 50758, Note_on_c, 0, 69, 0
1, 50760, Note_on_c, 0, 72, 66
1, 50818, Note_on_c, 0, 72, 0
1, 50820, Note_on_c, 0, 69, 79
1, 50878, Note_on_c, 0, 69, 0
1, 50880, Note_on_c, 0, 65, 68
1, 50880, Note_on_c, 1, 53, 56
1, 50880, Note_on_c, 1, 57, 57
1, 50938, Note_on_c, 0, 65, 0
1, 50941, Note_on_c, 1, 53, 0
1, 50941, Note_on_c, 1, 57, 0
1, 51120, Note_on_c, 0, 70, 61
1, 51178, Note_on_c, 0, 70, 0
1, 51180, Note_on_c, 0, 69, 68
1, 51238, Note_on_c, 0, 69, 0
1, 51240, Note_on_c, 0, 67, 68
1, 51298, Note_on_c, 0, 67, 0
1, 51300, Note_on_c, 0, 65, 65
1, 51358, Note_on_c, 0, 65, 0
1, 51360, Note_on_c, 0, 64, 68
1, 51360, Note_on_c, 1, 58, 52
1, 51360, Note_on_c, 1, 48, 63
1, 51418, Note_on_c, 0, 64, 0
1, 51421, Note_on_c, 1, 58, 0
1, 51421, Note_on_c, 1, 48, 0
1, 51600, Note_on_c, 0, 69, 72
1, 51658, Note_on_c, 0, 69, 0
1, 51660, Note_on_c, 0, 67, 76
1, 51718, Note_on_c, 0, 67, 0
1, 51720, Note_on_c, 0, 65, 71
1, 51778, Note_on_c, 0, 65, 0
1, 51780, Note_on_c, 0, 64, 57
1, 51838, Note_on_c, 0, 64, 0
1, 51840, Note_on_c, 0, 65, 76
1, 51840, Note_on_c, 1, 53, 48
1, 51840, Note_on_c, 1, 57, 56
1, 51898, Note_on_c, 0, 65, 0
1, 51901, Note_on_c, 1, 53, 0
1, 51901, Note_on_c, 1, 57, 0
1, 51960, Note_on_c, 0, 74, 67
1, 52018, Note_on_c, 0, 74, 0
1, 52020, Note_on_c, 0, 76, 74
1, 52078, Note_on_c, 0, 76, 0
1, 52080, Note_on_c, 0, 79, 74
1, 52080, Note_on_c, 1, 70, 60
1, 52138, Note_on_c, 0, 79, 0
1, 52140, Note_on_c, 0, 77, 76
1, 52198, Note_on_c, 0, 77, 0
1, 52200, Note_on_c, 0, 76, 81
1, 52258, Note_on_c, 0, 76, 0
1, 52260, Note_on_c, 0, 74, 65
1, 52318, Note_on_c, 0, 74, 0
1, 52318, Note_on_c, 1, 70, 0
1, 52320, Note_on_c, 0, 72, 74
1, 52320, Note_on_c, 1, 69, 50
1, 52558, Note_on_c, 0, 72, 0
1, 52558, Note_on_c, 1, 69, 0
1, 52560, Note_on_c, 0, 84, 81
1, 52618, Note_on_c, 0, 84, 0
1, 52620, Note_on_c, 0, 81, 78
1, 52678, Note_on_c, 0, 81, 0
1, 52680, Note_on_c, 0, 77, 72
1, 52738, Note_on_c, 0, 77, 0
1, 52740, Note_on_c, 0, 72, 65
1, 52798, Note_on_c, 0, 72, 0
1, 52800, Note_on_c, 0, 69, 57
1, 53040, Note_on_c, 1, 65, 52
1, 53040, Note_on_c, 1, 60, 57
1, 53278, Note_on_c, 0, 69, 0
1, 53278, Note_on_c, 1, 65, 0
1, 53280, Note_on_c, 0, 70, 50
1, 53280, Note_on_c, 1, 67, 61
1, 53338, Note_on_c, 0, 70, 0
1, 53404, Note_on_c, 1, 67, 0
1, 53518, Note_on_c, 1, 60, 0
1, 53520, Note_on_c, 0, 82, 72
1, 53578, Note_on_c, 0, 82, 0
1, 53580, Note_on_c, 0, 79, 61
1, 53638, Note_on_c, 0, 79, 0
1, 53640, Note_on_c, 0, 76, 67
1, 53698, Note_on_c, 0, 76, 0
1, 53700, Note_on_c, 0, 72, 55
1, 53758, Note_on_c, 0, 72, 0
1, 53760, Note_on_c, 0, 70, 55
1, 54000, Note_on_c, 1, 60, 31
1, 54000, Note_on_c, 1, 64, 55
1, 54238, Note_on_c, 0, 70, 0
1, 54238, Note_on_c, 1, 60, 0
1, 54238, Note_on_c, 1, 64, 0
1, 54240, Note_on_c, 0, 69, 52
1, 54240, Note_on_c, 1, 62, 45
1, 54240, Note_on_c, 1, 65, 65
1, 54298, Note_on_c, 0, 69, 0
1, 54364, Note_on_c, 1, 62, 0
1, 54364, Note_on_c, 1, 65, 0
1, 54480, Note_on_c, 0, 77, 73
1, 54538, Note_on_c, 0, 77, 0
1, 54540, Note_on_c, 0, 72, 74
1, 54598, Note_on_c, 0, 72, 0
1, 54600, Note_on_c, 0, 69, 74
1, 54658, Note_on_c, 0, 69, 0
1, 54660, Note_on_c, 0, 65, 76
1, 54718, Note_on_c, 0, 65, 0
1, 54720, Note_on_c, 0, 63, 68
1, 54960, Note_on_c, 1, 53, 50
1, 54960, Note_on_c, 1, 57, 48
1, 55198, Note_on_c, 1, 53, 0
1, 55198, Note_on_c, 1, 57, 0
1, 55200, Note_on_c, 1, 55, 66
1, 55200, Note_on_c, 1, 58, 66
1, 55438, Note_on_c, 1, 55, 0
1, 55438, Note_on_c, 1, 58, 0
1, 55440, Note_on_c, 1, 57, 66
1, 55440, Note_on_c, 1, 60, 77
1, 55678, Note_on_c, 1, 57, 0
1, 55678, Note_on_c, 1, 60, 0
1, 55680, Note_on_c, 1, 58, 68
1, 55798, Note_on_c, 0, 63, 0
1, 55800, Note_on_c, 0, 61, 68
1, 55918, Note_on_c, 0, 61, 0
1, 55920, Note_on_c, 0, 62, 68
1, 56038, Note_on_c, 0, 62, 0
1, 56040, Note_on_c, 0, 66, 74
1, 56158, Note_on_c, 0, 66, 0
1, 56158, Note_on_c, 1, 58, 0
1, 56160, Note_on_c, 0, 67, 77
1, 56278, Note_on_c, 0, 67, 0
1, 56280, Note_on_c, 0, 69, 71
1, 56398, Note_on_c, 0, 69, 0
1, 56400, Note_on_c, 0, 70, 76
1, 56518, Note_on_c, 0, 70, 0
1, 56520, Note_on_c, 0, 74, 74
1, 56520, Note_on_c, 0, 70, 61
1, 56520, Note_on_c, 1, 46, 66
1, 56578, Note_on_c, 1, 46, 0
1, 56581, Note_on_c, 0, 74, 0
1, 56581, Note_on_c, 0, 70, 0
1, 56640, Note_on_c, 0, 70, 71
1, 56640, Note_on_c, 0, 74, 77
1, 56640, Note_on_c, 1, 48, 66
1, 56758, Note_on_c, 0, 70, 0
1, 56758, Note_on_c, 0, 74, 0
1, 56760, Note_on_c, 0, 69, 68
1, 56760, Note_on_c, 0, 72, 63
1, 56878, Note_on_c, 0, 69, 0
1, 56878, Note_on_c, 0, 72, 0
1, 56880, Note_on_c, 0, 67, 56
1, 56880, Note_on_c, 0, 70, 62
1, 56941, Note_on_c, 0, 67, 0
1, 56941, Note_on_c, 0, 70, 0
1, 57000, Note_on_c, 0, 65, 67
1, 57000, Note_on_c, 0, 69, 66
1, 57061, Note_on_c, 0, 65, 0
1, 57061, Note_on_c, 0, 69, 0
1, 57118, Note_on_c, 1, 48, 0
1, 57120, Note_on_c, 0, 72, 73
1, 57120, Note_on_c, 0, 69, 70
1, 57238, Note_on_c, 0, 72, 0
1, 57238, Note_on_c, 0, 69, 0
1, 57240, Note_on_c, 0, 67, 60
1, 57240, Note_on_c, 0, 70, 71
1, 57358, Note_on_c, 0, 67, 0
1, 57358, Note_on_c, 0, 70, 0
1, 57360, Note_on_c, 0, 65, 52
1, 57360, Note_on_c, 0, 69, 67
1, 57421, Note_on_c, 0, 65, 0
1, 57421, Note_on_c, 0, 69, 0
1, 57480, Note_on_c, 0, 64, 53
1, 57480, Note_on_c, 0, 67, 62
1, 57480, Note_on_c, 1, 58, 46
1, 57480, Note_on_c, 1, 48, 60
1, 57538, Note_on_c, 1, 58, 0
1, 57538, Note_on_c, 1, 48, 0
1, 57541, Note_on_c, 0, 64, 0
1, 57541, Note_on_c, 0, 67, 0
1, 57600, Note_on_c, 0, 67, 51
1, 57600, Note_on_c, 0, 64, 52
1, 57600, Note_on_c, 1, 58, 51
1, 57600, Note_on_c, 1, 53, 62
1, 58078, Note_on_c, 0, 67, 0
1, 58078, Note_on_c, 0, 64, 0
1, 58080, Note_on_c, 0, 65, 60
1, 58080, Note_on_c, 1, 58, 0
1, 58080, Note_on_c, 1, 57, 51
1, 58138, Note_on_c, 1, 57, 0
1, 58138, Note_on_c, 1, 53, 0
1, 58198, Note_on_c, 0, 65, 0
1, 58320, Note_on_c, 0, 84, 74
1, 58378, Note_on_c, 0, 84, 0
1, 58380, Note_on_c, 0, 81, 78
1, 58438, Note_on_c, 0, 81, 0
1, 58440, Note_on_c, 0, 84, 61
1, 58498, Note_on_c, 0, 84, 0
1, 58500, Note_on_c, 0, 81, 71
1, 58558, Note_on_c, 0, 81, 0
1, 58560, Note_on_c, 0, 77, 71
1, 58560, Note_on_c, 1, 65, 48
1, 58630, Note_on_c, 1, 65, 0
1, 58678, Note_on_c, 0, 77, 0
1, 58680, Note_on_c, 1, 69, 31
1, 58750, Note_on_c, 1, 69, 0
1, 58800, Note_on_c, 1, 65, 46
1, 58870, Note_on_c, 1, 65, 0
1, 58920, Note_on_c, 0, 81, 71
1, 58920, Note_on_c, 1, 69, 34
1, 58990, Note_on_c, 1, 69, 0
1, 59038, Note_on_c, 0, 81, 0
1, 59040, Note_on_c, 0, 79, 68
1, 59040, Note_on_c, 1, 65, 32
1, 59110, Note_on_c, 1, 65, 0
1, 59158, Note_on_c, 0, 79, 0
1, 59160, Note_on_c, 0, 77, 63
1, 59160, Note_on_c, 1, 69, 30
1, 59230, Note_on_c, 1, 69, 0
1, 59278, Note_on_c, 0, 77, 0
1, 59280, Note_on_c, 0, 76, 62
1, 59280, Note_on_c, 1, 65, 46
1, 59350, Note_on_c, 1, 65, 0
1, 59398, Note_on_c, 0, 76, 0
1, 59400, Note_on_c, 0, 74, 53
1, 59400, Note_on_c, 1, 69, 26
1, 59470, Note_on_c, 1, 69, 0
1, 59518, Note_on_c, 0, 74, 0
1, 59520, Note_on_c, 0, 74, 70
1, 59520, Note_on_c, 1, 64, 56
1, 59590, Note_on_c, 1, 64, 0
1, 59640, Note_on_c, 1, 67, 40
1, 59710, Note_on_c, 1, 67, 0
1, 59760, Note_on_c, 1, 64, 36
1, 59830, Note_on_c, 1, 64, 0
1, 59878, Note_on_c, 0, 74, 0
1, 59880, Note_on_c, 0, 76, 58
1, 59880, Note_on_c, 1, 67, 41
1, 59938, Note_on_c, 0, 76, 0
1, 59940, Note_on_c, 0, 74, 52
1, 59950, Note_on_c, 1, 67, 0
1, 59998, Note_on_c, 0, 74, 0
1, 60000, Note_on_c, 0, 73, 62
1, 60000, Note_on_c, 1, 64, 33
1, 60058, Note_on_c, 0, 73, 0
1, 60070, Note_on_c, 1, 64, 0
1, 60120, Note_on_c, 1, 67, 41
1, 60190, Note_on_c, 1, 67, 0
1, 60240, Note_on_c, 0, 76, 68
1, 60240, Note_on_c, 1, 64, 28
1, 60298, Note_on_c, 0, 76, 0
1, 60300, Note_on_c, 0, 73, 62
1, 60310, Note_on_c, 1, 64, 0
1, 60358, Note_on_c, 0, 73, 0
1, 60360, Note_on_c, 0, 76, 66
1, 60360, Note_on_c, 1, 67, 40
1, 60418, Note_on_c, 0, 76, 0
1, 60420, Note_on_c, 0, 73, 60
1, 60430, Note_on_c, 1, 67, 0
1, 60478, Note_on_c, 0, 73, 0
1, 60480, Note_on_c, 0, 69, 70
1, 60480, Note_on_c, 1, 61, 53
1, 60550, Note_on_c, 1, 61, 0
1, 60598, Note_on_c, 0, 69, 0
1, 60600, Note_on_c, 1, 64, 37
1, 60670, Note_on_c, 1, 64, 0
1, 60720, Note_on_c, 1, 61, 28
1, 60790, Note_on_c, 1, 61, 0
1, 60840, Note_on_c, 0, 82, 71
1, 60840, Note_on_c, 1, 64, 52
1, 60898, Note_on_c, 0, 82, 0
1, 60910, Note_on_c, 1, 64, 0
1, 60960, Note_on_c, 0, 81, 66
1, 60960, Note_on_c, 1, 61, 56
1, 61018, Note_on_c, 0, 81, 0
1, 61030, Note_on_c, 1, 61, 0
1, 61080, Note_on_c, 0, 79, 65
1, 61080, Note_on_c, 1, 69, 47
1, 61138, Note_on_c, 0, 79, 0
1, 61150, Note_on_c, 1, 69, 0
1, 61200, Note_on_c, 0, 77, 67
1, 61200, Note_on_c, 1, 61, 43
1, 61258, Note_on_c, 0, 77, 0
1, 61270, Note_on_c, 1, 61, 0
1, 61320, Note_on_c, 0, 76, 67
1, 61320, Note_on_c, 1, 69, 27
1, 61390, Note_on_c, 1, 69, 0
1, 61438, Note_on_c, 0, 76, 0
1, 61440, Note_on_c, 0, 79, 68
1, 61440, Note_on_c, 1, 62, 64
1, 61510, Note_on_c, 1, 62, 0
1, 61560, Note_on_c, 1, 69, 24
1, 61630, Note_on_c, 1, 69, 0
1, 61680, Note_on_c, 1, 62, 38
1, 61750, Note_on_c, 1, 62, 0
1, 61798, Note_on_c, 0, 79, 0
1, 61800, Note_on_c, 0, 76, 68
1, 61800, Note_on_c, 1, 69, 30
1, 61870, Note_on_c, 1, 69, 0
1, 61918, Note_on_c, 0, 76, 0
1, 61920, Note_on_c, 0, 77, 74
1, 61920, Note_on_c, 1, 62, 41
1, 61990, Note_on_c, 1, 62, 0
1, 62038, Note_on_c, 0, 77, 0
1, 62040, Note_on_c, 1, 69, 23
1, 62110, Note_on_c, 1, 69, 0
1, 62160, Note_on_c, 0, 81, 66
1, 62160, Note_on_c, 1, 62, 40
1, 62218, Note_on_c, 0, 81, 0
1, 62220, Note_on_c, 0, 77, 76
1, 62230, Note_on_c, 1, 62, 0
1, 62278, Note_on_c, 0, 77, 0
1, 62280, Note_on_c, 0, 81, 74
1, 62280, Note_on_c, 1, 69, 22
1, 62338, Note_on_c, 0, 81, 0
1, 62340, Note_on_c, 0, 77, 62
1, 62350, Note_on_c, 1, 69, 0
1, 62398, Note_on_c, 0, 77, 0
1, 62400, Note_on_c, 0, 74, 74
1, 62400, Note_on_c, 1, 59, 50
1, 62470, Note_on_c, 1, 59, 0
1, 62518, Note_on_c, 0, 74, 0
1, 62520, Note_on_c, 1, 67, 33
1, 62590, Note_on_c, 1, 67, 0
1, 62640, Note_on_c, 1, 59, 41
1, 62710, Note_on_c, 1, 59, 0
1, 62760, Note_on_c, 0, 86, 77
1, 62760, Note_on_c, 1, 67, 36
1, 62818, Note_on_c, 0, 86, 0
1, 62830, Note_on_c, 1, 67, 0
1, 62880, Note_on_c, 0, 84, 77
1, 62880, Note_on_c, 1, 59, 31
1, 62938, Note_on_c, 0, 84, 0
1, 62950, Note_on_c, 1, 59, 0
1, 63000, Note_on_c, 0, 83, 76
1, 63000, Note_on_c, 1, 67, 35
1, 63058, Note_on_c, 0, 83, 0
1, 63070, Note_on_c, 1, 67, 0
1, 63120, Note_on_c, 0, 81, 78
1, 63120, Note_on_c, 1, 59, 34
1, 63178, Note_on_c, 0, 81, 0
1, 63190, Note_on_c, 1, 59, 0
1, 63240, Note_on_c, 0, 79, 77
1, 63240, Note_on_c, 1, 67, 40
1, 63298, Note_on_c, 0, 79, 0
1, 63310, Note_on_c, 1, 67, 0
1, 63360, Note_on_c, 0, 77, 71
1, 63360, Note_on_c, 1, 60, 61
1, 63430, Note_on_c, 1, 60, 0
1, 63480, Note_on_c, 1, 67, 42
1, 63550, Note_on_c, 1, 67, 0
1, 63598, Note_on_c, 0, 77, 0
1, 63600, Note_on_c, 0, 76, 66
1, 63600, Note_on_c, 1, 60, 45
1, 63670, Note_on_c, 1, 60, 0
1, 63718, Note_on_c, 0, 76, 0
1, 63720, Note_on_c, 0, 79, 74
1, 63720, Note_on_c, 1, 67, 55
1, 63778, Note_on_c, 0, 79, 0
1, 63790, Note_on_c, 1, 67, 0
1, 63840, Note_on_c, 0, 77, 65
1, 63840, Note_on_c, 1, 52, 64
1, 63898, Note_on_c, 0, 77, 0
1, 63910, Note_on_c, 1, 52, 0
1, 63960, Note_on_c, 0, 76, 68
1, 63960, Note_on_c, 1, 60, 35
1, 64018, Note_on_c, 0, 76, 0
1, 64030, Note_on_c, 1, 60, 0
1, 64080, Note_on_c, 0, 74, 72
1, 64080, Note_on_c, 1, 52, 63
1, 64138, Note_on_c, 0, 74, 0
1, 64150, Note_on_c, 1, 52, 0
1, 64200, Note_on_c, 0, 72, 65
1, 64200, Note_on_c, 1, 60, 48
1, 64270, Note_on_c, 1, 60, 0
1, 64318, Note_on_c, 0, 72, 0
1, 64320, Note_on_c, 0, 71, 70
1, 64320, Note_on_c, 1, 53, 64
1, 64390, Note_on_c, 1, 53, 0
1, 64440, Note_on_c, 1, 60, 42
1, 64510, Note_on_c, 1, 60, 0
1, 64558, Note_on_c, 0, 71, 0
1, 64560, Note_on_c, 0, 69, 72
1, 64560, Note_on_c, 1, 53, 64
1, 64618, Note_on_c, 0, 69, 0
1, 64620, Note_on_c, 0, 74, 74
1, 64630, Note_on_c, 1, 53, 0
1, 64678, Note_on_c, 0, 74, 0
1, 64680, Note_on_c, 0, 77, 81
1, 64680, Note_on_c, 1, 60, 47
1, 64738, Note_on_c, 0, 77, 0
1, 64740, Note_on_c, 0, 81, 77
1, 64750, Note_on_c, 1, 60, 0
1, 64798, Note_on_c, 0, 81, 0
1, 64800, Note_on_c, 0, 79, 67
1, 64800, Note_on_c, 1, 53, 66
1, 64858, Note_on_c, 0, 79, 0
1, 64870, Note_on_c, 1, 53, 0
1, 64920, Note_on_c, 0, 77, 66
1, 64920, Note_on_c, 1, 62, 52
1, 64990, Note_on_c, 1, 62, 0
1, 65038, Note_on_c, 0, 77, 0
1, 65040, Note_on_c, 0, 76, 74
1, 65040, Note_on_c, 1, 54, 64
1, 65098, Note_on_c, 0, 76, 0
1, 65110, Note_on_c, 1, 54, 0
1, 65160, Note_on_c, 0, 74, 66
1, 65160, Note_on_c, 1, 62, 48
1, 65218, Note_on_c, 0, 74, 0
1, 65230, Note_on_c, 1, 62, 0
1, 65280, Note_on_c, 0, 72, 66
1, 65280, Note_on_c, 1, 55, 62
1, 65494, Note_on_c, 1, 55, 0
1, 65518, Note_on_c, 0, 72, 0
1, 65520, Note_on_c, 0, 71, 63
1, 65640, Note_on_c, 1, 62, 65
1, 65698, Note_on_c, 1, 62, 0
1, 65700, Note_on_c, 1, 59, 68
1, 65758, Note_on_c, 0, 71, 0
1, 65758, Note_on_c, 1, 59, 0
1, 65760, Note_on_c, 1, 55, 55
1, 65878, Note_on_c, 1, 55, 0
1, 65880, Note_on_c, 1, 69, 65
1, 65880, Note_on_c, 1, 65, 68
1, 65938, Note_on_c, 1, 69, 0
1, 65938, Note_on_c, 1, 65, 0
1, 66000, Note_on_c, 1, 67, 61
1, 66000, Note_on_c, 1, 64, 62
1, 66058, Note_on_c, 1, 67, 0
1, 66058, Note_on_c, 1, 64, 0
1, 66120, Note_on_c, 1, 65, 63
1, 66120, Note_on_c, 1, 62, 63
1, 66178, Note_on_c, 1, 65, 0
1, 66178, Note_on_c, 1, 62, 0
1, 66240, Note_on_c, 1, 64, 66
1, 66240, Note_on_c, 1, 60, 67
1, 66300, Note_on_c, 0, 79, 71
1, 66358, Note_on_c, 0, 79, 0
1, 66360, Note_on_c, 0, 81, 71
1, 66418, Note_on_c, 0, 81, 0
1, 66420, Note_on_c, 0, 79, 66
1, 66478, Note_on_c, 0, 79, 0
1, 66480, Note_on_c, 0, 84, 74
1, 66538, Note_on_c, 0, 84, 0
1, 66540, Note_on_c, 0, 83, 76
1, 66598, Note_on_c, 0, 83, 0
1, 66600, Note_on_c, 0, 81, 89
1, 66658, Note_on_c, 0, 81, 0
1, 66660, Note_on_c, 0, 79, 72
1, 66718, Note_on_c, 0, 79, 0
1, 66718, Note_on_c, 1, 64, 0
1, 66718, Note_on_c, 1, 60, 0
1, 66720, Note_on_c, 0, 77, 66
1, 66778, Note_on_c, 0, 77, 0
1, 66780, Note_on_c, 0, 76, 94
1, 66838, Note_on_c, 0, 76, 0
1, 66840, Note_on_c, 0, 74, 72
1, 66898, Note_on_c, 0, 74, 0
1, 66900, Note_on_c, 0, 72, 76
1, 66958, Note_on_c, 0, 72, 0
1, 66960, Note_on_c, 0, 71, 72
1, 66960, Note_on_c, 1, 64, 67
1, 67018, Note_on_c, 0, 71, 0
1, 67020, Note_on_c, 0, 72, 60
1, 67078, Note_on_c, 0, 72, 0
1, 67078, Note_on_c, 1, 64, 0
1, 67080, Note_on_c, 0, 74, 77
1, 67138, Note_on_c, 0, 74, 0
1, 67140, Note_on_c, 0, 72, 66
1, 67198, Note_on_c, 0, 72, 0
1, 67200, Note_on_c, 0, 69, 74
1, 67200, Note_on_c, 1, 65, 63
1, 67258, Note_on_c, 0, 69, 0
1, 67260, Note_on_c, 0, 72, 55
1, 67318, Note_on_c, 0, 72, 0
1, 67318, Note_on_c, 1, 65, 0
1, 67320, Note_on_c, 0, 74, 58
1, 67378, Note_on_c, 0, 74, 0
1, 67380, Note_on_c, 0, 72, 57
1, 67438, Note_on_c, 0, 72, 0
1, 67440, Note_on_c, 0, 67, 77
1, 67440, Note_on_c, 1, 64, 45
1, 67498, Note_on_c, 0, 67, 0
1, 67500, Note_on_c, 0, 72, 62
1, 67558, Note_on_c, 0, 72, 0
1, 67558, Note_on_c, 1, 64, 0
1, 67560, Note_on_c, 0, 74, 68
1, 67618, Note_on_c, 0, 74, 0
1, 67620, Note_on_c, 0, 72, 56
1, 67678, Note_on_c, 0, 72, 0
1, 67680, Note_on_c, 0, 65, 71
1, 67680, Note_on_c, 1, 62, 58
1, 67798, Note_on_c, 0, 65, 0
1, 67800, Note_on_c, 0, 77, 73
1, 67918, Note_on_c, 0, 77, 0
1, 67918, Note_on_c, 1, 62, 0
1, 67920, Note_on_c, 1, 55, 67
1, 68038, Note_on_c, 1, 55, 0
1, 68040, Note_on_c, 0, 77, 70
1, 68158, Note_on_c, 0, 77, 0
1, 68160, Note_on_c, 0, 76, 61
1, 68160, Note_on_c, 1, 60, 71
1, 68218, Note_on_c, 0, 76, 0
1, 68220, Note_on_c, 0, 79, 56
1, 68278, Note_on_c, 0, 79, 0
1, 68280, Note_on_c, 0, 81, 56
1, 68338, Note_on_c, 0, 81, 0
1, 68340, Note_on_c, 0, 79, 51
1, 68398, Note_on_c, 0, 79, 0
1, 68398, Note_on_c, 1, 60, 0
1, 68400, Note_on_c, 0, 84, 59
1, 68400, Note_on_c, 1, 64, 72
1, 68458, Note_on_c, 0, 84, 0
1, 68460, Note_on_c, 0, 83, 61
1, 68518, Note_on_c, 0, 83, 0
1, 68520, Note_on_c, 0, 81, 74
1, 68578, Note_on_c, 0, 81, 0
1, 68580, Note_on_c, 0, 79, 57
1, 68638, Note_on_c, 0, 79, 0
1, 68638, Note_on_c, 1, 64, 0
1, 68640, Note_on_c, 0, 77, 51
1, 68698, Note_on_c, 0, 77, 0
1, 68700, Note_on_c, 0, 76, 79
1, 68758, Note_on_c, 0, 76, 0
1, 68760, Note_on_c, 0, 74, 57
1, 68818, Note_on_c, 0, 74, 0
1, 68820, Note_on_c, 0, 72, 61
1, 68878, Note_on_c, 0, 72, 0
1, 68880, Note_on_c, 0, 71, 57
1, 68880, Note_on_c, 1, 64, 62
1, 68938, Note_on_c, 0, 71, 0
1, 68940, Note_on_c, 0, 72, 45
1, 68998, Note_on_c, 0, 72, 0
1, 68998, Note_on_c, 1, 64, 0
1, 69000, Note_on_c, 0, 74, 62
1, 69058, Note_on_c, 0, 74, 0
1, 69060, Note_on_c, 0, 72, 51
1, 69118, Note_on_c, 0, 72, 0
1, 69120, Note_on_c, 0, 69, 59
1, 69120, Note_on_c, 1, 65, 58
1, 69178, Note_on_c, 0, 69, 0
1, 69180, Note_on_c, 0, 72, 40
1, 69238, Note_on_c, 0, 72, 0
1, 69238, Note_on_c, 1, 65, 0
1, 69240, Note_on_c, 0, 74, 43
1, 69298, Note_on_c, 0, 74, 0
1, 69300, Note_on_c, 0, 72, 42
1, 69358, Note_on_c, 0, 72, 0
1, 69360, Note_on_c, 0, 67, 62
1, 69360, Note_on_c, 1, 64, 40
1, 69418, Note_on_c, 0, 67, 0
1, 69420, Note_on_c, 0, 72, 47
1, 69478, Note_on_c, 0, 72, 0
1, 69478, Note_on_c, 1, 64, 0
1, 69480, Note_on_c, 0, 74, 53
1, 69538, Note_on_c, 0, 74, 0
1, 69540, Note_on_c, 0, 72, 41
1, 69598, Note_on_c, 0, 72, 0
1, 69600, Note_on_c, 0, 65, 56
1, 69600, Note_on_c, 1, 62, 53
1, 69718, Note_on_c, 0, 65, 0
1, 69720, Note_on_c, 0, 77, 58
1, 69838, Note_on_c, 0, 77, 0
1, 69838, Note_on_c, 1, 62, 0
1, 69840, Note_on_c, 1, 55, 62
1, 69958, Note_on_c, 1, 55, 0
1, 69960, Note_on_c, 0, 77, 60
1, 70078, Note_on_c, 0, 77, 0
1, 70080, Note_on_c, 0, 76, 56
1, 70080, Note_on_c, 1, 60, 72
1, 70138, Note_on_c, 0, 76, 0
1, 70140, Note_on_c, 0, 77, 56
1, 70198, Note_on_c, 0, 77, 0
1, 70200, Note_on_c, 0, 79, 70
1, 70258, Note_on_c, 0, 79, 0
1, 70260, Note_on_c, 0, 77, 67
1, 70318, Note_on_c, 0, 77, 0
1, 70318, Note_on_c, 1, 60, 0
1, 70320, Note_on_c, 0, 76, 73
1, 70320, Note_on_c, 1, 62, 68
1, 70378, Note_on_c, 0, 76, 0
1, 70380, Note_on_c, 0, 74, 67
1, 70438, Note_on_c, 0, 74, 0
1, 70440, Note_on_c, 0, 72, 73
1, 70498, Note_on_c, 0, 72, 0
1, 70500, Note_on_c, 0, 71, 60
1, 70558, Note_on_c, 0, 71, 0
1, 70558, Note_on_c, 1, 62, 0
1, 70560, Note_on_c, 0, 72, 67
1, 70560, Note_on_c, 1, 64, 55
1, 70618, Note_on_c, 0, 72, 0
1, 70620, Note_on_c, 0, 74, 77
1, 70678, Note_on_c, 0, 74, 0
1, 70680, Note_on_c, 0, 76, 76
1, 70738, Note_on_c, 0, 76, 0
1, 70740, Note_on_c, 0, 74, 74
1, 70798, Note_on_c, 0, 74, 0
1, 70798, Note_on_c, 1, 64, 0
1, 70800, Note_on_c, 0, 72, 79
1, 70800, Note_on_c, 1, 52, 63
1, 70858, Note_on_c, 0, 72, 0
1, 70860, Note_on_c, 0, 71, 68
1, 70918, Note_on_c, 0, 71, 0
1, 70920, Note_on_c, 0, 69, 62
1, 70978, Note_on_c, 0, 69, 0
1, 70980, Note_on_c, 0, 68, 77
1, 71038, Note_on_c, 0, 68, 0
1, 71038, Note_on_c, 1, 52, 0
1, 71040, Note_on_c, 1, 53, 66
1, 71100, Note_on_c, 0, 69, 39
1, 71158, Note_on_c, 0, 69, 0
1, 71160, Note_on_c, 0, 71, 67
1, 71218, Note_on_c, 0, 71, 0
1, 71220, Note_on_c, 0, 73, 73
1, 71278, Note_on_c, 0, 73, 0
1, 71280, Note_on_c, 0, 74, 68
1, 71338, Note_on_c, 0, 74, 0
1, 71340, Note_on_c, 0, 76, 81
1, 71398, Note_on_c, 0, 76, 0
1, 71400, Note_on_c, 0, 77, 81
1, 71458, Note_on_c, 0, 77, 0
1, 71460, Note_on_c, 0, 79, 81
1, 71518, Note_on_c, 0, 79, 0
1, 71518, Note_on_c, 1, 53, 0
1, 71520, Note_on_c, 0, 81, 89
1, 71578, Note_on_c, 0, 81, 0
1, 71580, Note_on_c, 0, 77, 74
1, 71638, Note_on_c, 0, 77, 0
1, 71640, Note_on_c, 0, 74, 62
1, 71698, Note_on_c, 0, 74, 0
1, 71700, Note_on_c, 0, 69, 65
1, 71758, Note_on_c, 0, 69, 0
1, 71760, Note_on_c, 0, 79, 76
1, 71760, Note_on_c, 1, 52, 68
1, 71818, Note_on_c, 0, 79, 0
1, 71820, Note_on_c, 0, 76, 57
1, 71878, Note_on_c, 0, 76, 0
1, 71880, Note_on_c, 0, 72, 62
1, 71938, Note_on_c, 0, 72, 0
1, 71940, Note_on_c, 0, 67, 63
1, 71998, Note_on_c, 0, 67, 0
1, 71998, Note_on_c, 1, 52, 0
1, 72000, Note_on_c, 1, 59, 66
1, 72000, Note_on_c, 1, 50, 63
1, 72060, Note_on_c, 0, 77, 77
1, 72118, Note_on_c, 0, 77, 0
1, 72120, Note_on_c, 0, 79, 74
1, 72178, Note_on_c, 0, 79, 0
1, 72180, Note_on_c, 0, 81, 79
1, 72238, Note_on_c, 0, 81, 0
1, 72240, Note_on_c, 0, 83, 83
1, 72298, Note_on_c, 0, 83, 0
1, 72300, Note_on_c, 0, 84, 73
1, 72358, Note_on_c, 0, 84, 0
1, 72360, Note_on_c, 0, 86, 94
1, 72418, Note_on_c, 0, 86, 0
1, 72420, Note_on_c, 0, 88, 83
1, 72478, Note_on_c, 0, 88, 0
1, 72480, Note_on_c, 0, 89, 89
1, 72538, Note_on_c, 0, 89, 0
1, 72540, Note_on_c, 0, 86, 94
1, 72598, Note_on_c, 0, 86, 0
1, 72600, Note_on_c, 0, 83, 89
1, 72658, Note_on_c, 0, 83, 0
1, 72660, Note_on_c, 0, 77, 68
1, 72718, Note_on_c, 0, 77, 0
1, 72718, Note_on_c, 1, 59, 0
1, 72718, Note_on_c, 1, 50, 0
1, 72720, Note_on_c, 0, 76, 72
1, 72720, Note_on_c, 1, 48, 55
1, 72720, Note_on_c, 1, 60, 41
1, 72838, Note_on_c, 0, 76, 0
1, 72840, Note_on_c, 0, 84, 66
1, 72958, Note_on_c, 0, 84, 0
1, 72958, Note_on_c, 1, 48, 0
1, 72958, Note_on_c, 1, 60, 0
1, 72960, Note_on_c, 1, 53, 63
1, 73080, Note_on_c, 0, 81, 67
1, 73080, Note_on_c, 0, 77, 67
1, 73198, Note_on_c, 0, 81, 0
1, 73198, Note_on_c, 0, 77, 0
1, 73200, Note_on_c, 0, 79, 57
1, 73200, Note_on_c, 0, 76, 52
1, 73318, Note_on_c, 0, 79, 0
1, 73318, Note_on_c, 0, 76, 0
1, 73320, Note_on_c, 0, 77, 62
1, 73320, Note_on_c, 0, 74, 68
1, 73438, Note_on_c, 0, 77, 0
1, 73438, Note_on_c, 0, 74, 0
1, 73438, Note_on_c, 1, 53, 0
1, 73440, Note_on_c, 0, 76, 63
1, 73440, Note_on_c, 0, 72, 66
1, 73498, Note_on_c, 0, 76, 0
1, 73498, Note_on_c, 0, 72, 0
1, 73560, Note_on_c, 0, 76, 61
1, 73560, Note_on_c, 0, 79, 66
1, 73618, Note_on_c, 0, 76, 0
1, 73618, Note_on_c, 0, 79, 0
1, 73680, Note_on_c, 1, 43, 35
1, 73680, Note_on_c, 1, 55, 51
1, 73800, Note_on_c, 0, 65, 52
1, 73800, Note_on_c, 0, 71, 56
1, 73858, Note_on_c, 0, 65, 0
1, 73858, Note_on_c, 0, 71, 0
1, 73918, Note_on_c, 1, 43, 0
1, 73918, Note_on_c, 1, 55, 0
1, 73920, Note_on_c, 1, 44, 63
1, 73920, Note_on_c, 1, 56, 61
1, 74040, Note_on_c, 0, 63, 43
1, 74040, Note_on_c, 0, 72, 62
1, 74098, Note_on_c, 0, 63, 0
1, 74098, Note_on_c, 0, 72, 0
1, 74158, Note_on_c, 1, 44, 0
1, 74158, Note_on_c, 1, 56, 0
1, 74160, Note_on_c, 1, 60, 43
1, 74160, Note_on_c, 1, 56, 56
1, 74280, Note_on_c, 0, 75, 66
1, 74338, Note_on_c, 0, 75, 0
1, 74398, Note_on_c, 1, 60, 0
1, 74398, Note_on_c, 1, 56, 0
1, 74400, Note_on_c, 1, 60, 32
1, 74400, Note_on_c, 1, 56, 48
1, 74460, Note_on_c, 0, 75, 37
1, 74518, Note_on_c, 0, 75, 0
1, 74520, Note_on_c, 0, 74, 48
1, 74578, Note_on_c, 0, 74, 0
1, 74580, Note_on_c, 0, 75, 46
1, 74638, Note_on_c, 0, 75, 0
1, 74638, Note_on_c, 1, 60, 0
1, 74638, Note_on_c, 1, 56, 0
1, 74640, Note_on_c, 0, 77, 67
1, 74640, Note_on_c, 1, 60, 38
1, 74640, Note_on_c, 1, 56, 44
1, 74698, Note_on_c, 0, 77, 0
1, 74700, Note_on_c, 0, 75, 67
1, 74758, Note_on_c, 0, 75, 0
1, 74760, Note_on_c, 0, 74, 70
1, 74818, Note_on_c, 0, 74, 0
1, 74820, Note_on_c, 0, 75, 74
1, 74878, Note_on_c, 0, 75, 0
1, 74878, Note_on_c, 1, 60, 0
1, 74878, Note_on_c, 1, 56, 0
1, 74880, Note_on_c, 0, 84, 65
1, 74880, Note_on_c, 1, 60, 50
1, 74880, Note_on_c, 1, 55, 66
1, 74998, Note_on_c, 0, 84, 0
1, 75000, Note_on_c, 0, 75, 45
1, 75058, Note_on_c, 0, 75, 0
1, 75118, Note_on_c, 1, 60, 0
1, 75118, Note_on_c, 1, 55, 0
1, 75120, Note_on_c, 1, 60, 23
1, 75120, Note_on_c, 1, 55, 30
1, 75240, Note_on_c, 0, 75, 57
1, 75298, Note_on_c, 0, 75, 0
1, 75358, Note_on_c, 1, 60, 0
1, 75358, Note_on_c, 1, 55, 0
1, 75360, Note_on_c, 1, 60, 23
1, 75360, Note_on_c, 1, 55, 27
1, 75420, Note_on_c, 0, 75, 58
1, 75478, Note_on_c, 0, 75, 0
1, 75480, Note_on_c, 0, 74, 53
1, 75538, Note_on_c, 0, 74, 0
1, 75540, Note_on_c, 0, 75, 58
1, 75598, Note_on_c, 0, 75, 0
1, 75598, Note_on_c, 1, 60, 0
1, 75598, Note_on_c, 1, 55, 0
1, 75600, Note_on_c, 0, 77, 78
1, 75600, Note_on_c, 1, 60, 30
1, 75600, Note_on_c, 1, 55, 37
1, 75658, Note_on_c, 0, 77, 0
1, 75660, Note_on_c, 0, 75, 74
1, 75718, Note_on_c, 0, 75, 0
1, 75720, Note_on_c, 0, 74, 66
1, 75778, Note_on_c, 0, 74, 0
1, 75780, Note_on_c, 0, 75, 78
1, 75838, Note_on_c, 0, 75, 0
1, 75838, Note_on_c, 1, 60, 0
1, 75838, Note_on_c, 1, 55, 0
1, 75840, Note_on_c, 0, 84, 74
1, 75840, Note_on_c, 1, 60, 63
1, 75840, Note_on_c, 1, 54, 67
1, 75958, Note_on_c, 0, 84, 0
1, 75960, Note_on_c, 0, 75, 60
1, 76018, Note_on_c, 0, 75, 0
1, 76078, Note_on_c, 1, 60, 0
1, 76078, Note_on_c, 1, 54, 0
1, 76080, Note_on_c, 1, 60, 28
1, 76080, Note_on_c, 1, 54, 37
1, 76200, Note_on_c, 0, 75, 52
1, 76258, Note_on_c, 0, 75, 0
1, 76318, Note_on_c, 1, 60, 0
1, 76318, Note_on_c, 1, 54, 0
1, 76320, Note_on_c, 1, 60, 33
1, 76320, Note_on_c, 1, 54, 43
1, 76380, Note_on_c, 0, 75, 62
1, 76438, Note_on_c, 0, 75, 0
1, 76440, Note_on_c, 0, 74, 55
1, 76498, Note_on_c, 0, 74, 0
1, 76500, Note_on_c, 0, 75, 61
1, 76558, Note_on_c, 0, 75, 0
1, 76558, Note_on_c, 1, 60, 0
1, 76558, Note_on_c, 1, 54, 0
1, 76560, Note_on_c, 0, 77, 72
1, 76560, Note_on_c, 1, 54, 44
1, 76560, Note_on_c, 1, 57, 30
1, 76618, Note_on_c, 0, 77, 0
1, 76620, Note_on_c, 0, 75, 65
1, 76678, Note_on_c, 0, 75, 0
1, 76680, Note_on_c, 0, 74, 72
1, 76738, Note_on_c, 0, 74, 0
1, 76740, Note_on_c, 0, 72, 72
1, 76798, Note_on_c, 0, 72, 0
1, 76798, Note_on_c, 1, 54, 0
1, 76798, Note_on_c, 1, 57, 0
1, 76800, Note_on_c, 0, 71, 73
1, 76800, Note_on_c, 1, 55, 65
1, 76800, Note_on_c, 1, 59, 62
1, 76858, Note_on_c, 0, 71, 0
1, 76860, Note_on_c, 0, 72, 60
1, 76918, Note_on_c, 0, 72, 0
1, 76920, Note_on_c, 0, 74, 74
1, 76978, Note_on_c, 0, 74, 0
1, 76980, Note_on_c, 0, 72, 52
1, 77038, Note_on_c, 0, 72, 0
1, 77038, Note_on_c, 1, 55, 0
1, 77038, Note_on_c, 1, 59, 0
1, 77040, Note_on_c, 0, 71, 65
1, 77040, Note_on_c, 1, 60, 56
1, 77040, Note_on_c, 1, 57, 55
1, 77098, Note_on_c, 0, 71, 0
1, 77100, Note_on_c, 0, 69, 66
1, 77158, Note_on_c, 0, 69, 0
1, 77160, Note_on_c, 0, 67, 62
1, 77218, Note_on_c, 0, 67, 0
1, 77220, Note_on_c, 0, 66, 81
1, 77278, Note_on_c, 0, 66, 0
1, 77278, Note_on_c, 1, 60, 0
1, 77278, Note_on_c, 1, 57, 0
1, 77280, Note_on_c, 0, 67, 63
1, 77280, Note_on_c, 1, 62, 61
1, 77280, Note_on_c, 1, 59, 62
1, 77398, Note_on_c, 0, 67, 0
1, 77400, Note_on_c, 0, 74, 72
1, 77458, Note_on_c, 0, 74, 0
1, 77460, Note_on_c, 0, 72, 70
1, 77518, Note_on_c, 0, 72, 0
1, 77518, Note_on_c, 1, 62, 0
1, 77518, Note_on_c, 1, 59, 0
1, 77520, Note_on_c, 0, 71, 78
1, 77578, Note_on_c, 0, 71, 0
1, 77580, Note_on_c, 0, 69, 71
1, 77638, Note_on_c, 0, 69, 0
1, 77640, Note_on_c, 0, 67, 68
1, 77698, Note_on_c, 0, 67, 0
1, 77700, Note_on_c, 0, 65, 79
1, 77758, Note_on_c, 0, 65, 0
1, 77760, Note_on_c, 0, 64, 73
1, 77760, Note_on_c, 1, 60, 65
1, 77818, Note_on_c, 0, 64, 0
1, 77820, Note_on_c, 0, 72, 74
1, 77878, Note_on_c, 0, 72, 0
1, 77880, Note_on_c, 0, 71, 62
1, 77938, Note_on_c, 0, 71, 0
1, 77940, Note_on_c, 0, 72, 74
1, 77998, Note_on_c, 0, 72, 0
1, 77998, Note_on_c, 1, 60, 0
1, 78000, Note_on_c, 0, 76, 68
1, 78058, Note_on_c, 0, 76, 0
1, 78060, Note_on_c, 0, 72, 53
1, 78118, Note_on_c, 0, 72, 0
1, 78120, Note_on_c, 0, 71, 55
1, 78178, Note_on_c, 0, 71, 0
1, 78180, Note_on_c, 0, 72, 53
1, 78238, Note_on_c, 0, 72, 0
1, 78240, Note_on_c, 0, 67, 72
1, 78240, Note_on_c, 1, 64, 57
1, 78298, Note_on_c, 0, 67, 0
1, 78300, Note_on_c, 0, 72, 67
1, 78358, Note_on_c, 0, 72, 0
1, 78358, Note_on_c, 1, 64, 0
1, 78360, Note_on_c, 0, 71, 55
1, 78418, Note_on_c, 0, 71, 0
1, 78420, Note_on_c, 0, 72, 55
1, 78478, Note_on_c, 0, 72, 0
1, 78480, Note_on_c, 0, 69, 73
1, 78480, Note_on_c, 1, 65, 52
1, 78538, Note_on_c, 0, 69, 0
1, 78540, Note_on_c, 0, 72, 53
1, 78598, Note_on_c, 0, 72, 0
1, 78598, Note_on_c, 1, 65, 0
1, 78600, Note_on_c, 0, 71, 39
1, 78658, Note_on_c, 0, 71, 0
1, 78660, Note_on_c, 0, 72, 57
1, 78718, Note_on_c, 0, 72, 0
1, 78720, Note_on_c, 0, 67, 74
1, 78720, Note_on_c, 1, 64, 57
1, 78778, Note_on_c, 0, 67, 0
1, 78780, Note_on_c, 0, 72, 65
1, 78838, Note_on_c, 0, 72, 0
1, 78838, Note_on_c, 1, 64, 0
1, 78840, Note_on_c, 0, 71, 48
1, 78898, Note_on_c, 0, 71, 0
1, 78900, Note_on_c, 0, 72, 62
1, 78958, Note_on_c, 0, 72, 0
1, 78960, Note_on_c, 0, 76, 42
1, 79018, Note_on_c, 0, 76, 0
1, 79020, Note_on_c, 0, 72, 65
1, 79078, Note_on_c, 0, 72, 0
1, 79080, Note_on_c, 0, 71, 56
1, 79138, Note_on_c, 0, 71, 0
1, 79140, Note_on_c, 0, 72, 48
1, 79198, Note_on_c, 0, 72, 0
1, 79200, Note_on_c, 0, 79, 86
1, 79200, Note_on_c, 1, 64, 45
1, 79258, Note_on_c, 0, 79, 0
1, 79260, Note_on_c, 0, 72, 55
1, 79318, Note_on_c, 0, 72, 0
1, 79318, Note_on_c, 1, 64, 0
1, 79320, Note_on_c, 0, 71, 27
1, 79378, Note_on_c, 0, 71, 0
1, 79380, Note_on_c, 0, 72, 45
1, 79438, Note_on_c, 0, 72, 0
1, 79440, Note_on_c, 0, 81, 76
1, 79440, Note_on_c, 1, 65, 47
1, 79498, Note_on_c, 0, 81, 0
1, 79500, Note_on_c, 0, 72, 36
1, 79558, Note_on_c, 0, 72, 0
1, 79558, Note_on_c, 1, 65, 0
1, 79560, Note_on_c, 0, 71, 47
1, 79618, Note_on_c, 0, 71, 0
1, 79620, Note_on_c, 0, 72, 48
1, 79678, Note_on_c, 0, 72, 0
1, 79680, Note_on_c, 0, 79, 77
1, 79680, Note_on_c, 1, 64, 62
1, 79738, Note_on_c, 0, 79, 0
1, 79740, Note_on_c, 0, 72, 53
1, 79798, Note_on_c, 0, 72, 0
1, 79798, Note_on_c, 1, 64, 0
1, 79800, Note_on_c, 0, 71, 67
1, 79858, Note_on_c, 0, 71, 0
1, 79860, Note_on_c, 0, 72, 37
1, 79918, Note_on_c, 0, 72, 0
1, 79920, Note_on_c, 0, 76, 55
1, 79978, Note_on_c, 0, 76, 0
1, 79980, Note_on_c, 0, 72, 45
1, 80038, Note_on_c, 0, 72, 0
1, 80040, Note_on_c, 0, 71, 52
1, 80098, Note_on_c, 0, 71, 0
1, 80100, Note_on_c, 0, 72, 36
1, 80158, Note_on_c, 0, 72, 0
1, 80160, Note_on_c, 0, 67, 78
1, 80160, Note_on_c, 1, 64, 36
1, 80218, Note_on_c, 0, 67, 0
1, 80220, Note_on_c, 0, 72, 58
1, 80278, Note_on_c, 0, 72, 0
1, 80278, Note_on_c, 1, 64, 0
1, 80280, Note_on_c, 0, 71, 45
1, 80338, Note_on_c, 0, 71, 0
1, 80340, Note_on_c, 0, 72, 51
1, 80398, Note_on_c, 0, 72, 0
1, 80400, Note_on_c, 0, 69, 76
1, 80400, Note_on_c, 1, 65, 66
1, 80458, Note_on_c, 0, 69, 0
1, 80460, Note_on_c, 0, 72, 55
1, 80518, Note_on_c, 0, 72, 0
1, 80518, Note_on_c, 1, 65, 0
1, 80520, Note_on_c, 0, 71, 56
1, 80578, Note_on_c, 0, 71, 0
1, 80580, Note_on_c, 0, 72, 65
1, 80638, Note_on_c, 0, 72, 0
1, 80640, Note_on_c, 0, 67, 66
1, 80640, Note_on_c, 1, 64, 33
1, 80698, Note_on_c, 0, 67, 0
1, 80700, Note_on_c, 0, 72, 57
1, 80758, Note_on_c, 0, 72, 0
1, 80760, Note_on_c, 0, 71, 35
1, 80818, Note_on_c, 0, 71, 0
1, 80820, Note_on_c, 0, 72, 47
1, 80878, Note_on_c, 0, 72, 0
1, 80878, Note_on_c, 1, 64, 0
1, 80880, Note_on_c, 0, 76, 67
1, 80938, Note_on_c, 0, 76, 0
1, 80940, Note_on_c, 0, 72, 47
1, 80998, Note_on_c, 0, 72, 0
1, 81000, Note_on_c, 0, 71, 33
1, 81058, Note_on_c, 0, 71, 0
1, 81060, Note_on_c, 0, 72, 61
1, 81118, Note_on_c, 0, 72, 0
1, 81120, Note_on_c, 0, 79, 86
1, 81120, Note_on_c, 1, 64, 48
1, 81178, Note_on_c, 0, 79, 0
1, 81180, Note_on_c, 0, 72, 51
1, 81238, Note_on_c, 0, 72, 0
1, 81238, Note_on_c, 1, 64, 0
1, 81240, Note_on_c, 0, 71, 46
1, 81298, Note_on_c, 0, 71, 0
1, 81300, Note_on_c, 0, 72, 42
1, 81358, Note_on_c, 0, 72, 0
1, 81360, Note_on_c, 0, 81, 81
1, 81360, Note_on_c, 1, 65, 44
1, 81418, Note_on_c, 0, 81, 0
1, 81420, Note_on_c, 0, 72, 35
1, 81478, Note_on_c, 0, 72, 0
1, 81478, Note_on_c, 1, 65, 0
1, 81480, Note_on_c, 0, 71, 60
1, 81538, Note_on_c, 0, 71, 0
1, 81540, Note_on_c, 0, 72, 53
1, 81598, Note_on_c, 0, 72, 0
1, 81600, Note_on_c, 0, 79, 81
1, 81600, Note_on_c, 1, 64, 36
1, 81658, Note_on_c, 0, 79, 0
1, 81660, Note_on_c, 0, 72, 55
1, 81718, Note_on_c, 0, 72, 0
1, 81718, Note_on_c, 1, 64, 0
1, 81720, Note_on_c, 0, 71, 56
1, 81778, Note_on_c, 0, 71, 0
1, 81780, Note_on_c, 0, 72, 30
1, 81838, Note_on_c, 0, 72, 0
1, 81840, Note_on_c, 0, 81, 76
1, 81840, Note_on_c, 1, 65, 62
1, 81898, Note_on_c, 0, 81, 0
1, 81900, Note_on_c, 0, 72, 57
1, 81958, Note_on_c, 0, 72, 0
1, 81958, Note_on_c, 1, 65, 0
1, 81960, Note_on_c, 0, 71, 45
1, 82018, Note_on_c, 0, 71, 0
1, 82020, Note_on_c, 0, 72, 37
1, 82078, Note_on_c, 0, 72, 0
1, 82080, Note_on_c, 0, 79, 74
1, 82080, Note_on_c, 1, 64, 68
1, 82138, Note_on_c, 0, 79, 0
1, 82140, Note_on_c, 0, 72, 32
1, 82198, Note_on_c, 0, 72, 0
1, 82198, Note_on_c, 1, 64, 0
1, 82200, Note_on_c, 0, 71, 58
1, 82258, Note_on_c, 0, 71, 0
1, 82260, Note_on_c, 0, 72, 43
1, 82318, Note_on_c, 0, 72, 0
1, 82320, Note_on_c, 0, 81, 77
1, 82320, Note_on_c, 1, 65, 62
1, 82378, Note_on_c, 0, 81, 0
1, 82380, Note_on_c, 0, 72, 62
1, 82438, Note_on_c, 0, 72, 0
1, 82438, Note_on_c, 1, 65, 0
1, 82440, Note_on_c, 0, 71, 43
1, 82498, Note_on_c, 0, 71, 0
1, 82500, Note_on_c, 0, 72, 30
1, 82558, Note_on_c, 0, 72, 0
1, 82560, Note_on_c, 0, 79, 74
1, 82560, Note_on_c, 1, 64, 71
1, 82618, Note_on_c, 0, 79, 0
1, 82620, Note_on_c, 0, 72, 40
1, 82678, Note_on_c, 0, 72, 0
1, 82680, Note_on_c, 0, 71, 40
1, 82738, Note_on_c, 0, 71, 0
1, 82740, Note_on_c, 0, 72, 45
1, 82798, Note_on_c, 0, 72, 0
1, 82800, Note_on_c, 0, 79, 76
1, 82858, Note_on_c, 0, 79, 0
1, 82860, Note_on_c, 0, 72, 55
1, 82918, Note_on_c, 0, 72, 0
1, 82920, Note_on_c, 0, 71, 65
1, 82978, Note_on_c, 0, 71, 0
1, 82980, Note_on_c, 0, 72, 58
1, 83038, Note_on_c, 0, 72, 0
1, 83038, Note_on_c, 1, 64, 0
1, 83040, Note_on_c, 0, 79, 74
1, 83040, Note_on_c, 1, 63, 63
1, 83040, Note_on_c, 1, 67, 63
1, 83098, Note_on_c, 0, 79, 0
1, 83100, Note_on_c, 0, 72, 48
1, 83158, Note_on_c, 0, 72, 0
1, 83160, Note_on_c, 0, 71, 55
1, 83218, Note_on_c, 0, 71, 0
1, 83220, Note_on_c, 0, 72, 51
1, 83278, Note_on_c, 0, 72, 0
1, 83280, Note_on_c, 0, 79, 74
1, 83338, Note_on_c, 0, 79, 0
1, 83340, Note_on_c, 0, 72, 56
1, 83398, Note_on_c, 0, 72, 0
1, 83400, Note_on_c, 0, 71, 56
1, 83458, Note_on_c, 0, 71, 0
1, 83460, Note_on_c, 0, 72, 40
1, 83518, Note_on_c, 0, 72, 0
1, 83518, Note_on_c, 1, 63, 0
1, 83518, Note_on_c, 1, 67, 0
1, 83520, Note_on_c, 0, 78, 78
1, 83520, Note_on_c, 1, 62, 72
1, 83520, Note_on_c, 1, 69, 66
1, 83578, Note_on_c, 0, 78, 0
1, 83580, Note_on_c, 0, 72, 61
1, 83638, Note_on_c, 0, 72, 0
1, 83640, Note_on_c, 0, 71, 63
1, 83698, Note_on_c, 0, 71, 0
1, 83700, Note_on_c, 0, 72, 58
1, 83758, Note_on_c, 0, 72, 0
1, 83760, Note_on_c, 0, 78, 77
1, 83818, Note_on_c, 0, 78, 0
1, 83820, Note_on_c, 0, 72, 51
1, 83878, Note_on_c, 0, 72, 0
1, 83880, Note_on_c, 0, 71, 57
1, 83938, Note_on_c, 0, 71, 0
1, 83940, Note_on_c, 0, 72, 56
1, 83998, Note_on_c, 0, 72, 0
1, 83998, Note_on_c, 1, 62, 0
1, 83998, Note_on_c, 1, 69, 0
1, 84000, Note_on_c, 0, 77, 72
1, 84000, Note_on_c, 1, 67, 58
1, 84000, Note_on_c, 1, 59, 66
1, 84058, Note_on_c, 0, 77, 0
1, 84060, Note_on_c, 0, 74, 53
1, 84118, Note_on_c, 0, 74, 0
1, 84120, Note_on_c, 0, 73, 61
1, 84178, Note_on_c, 0, 73, 0
1, 84180, Note_on_c, 0, 74, 58
1, 84238, Note_on_c, 0, 74, 0
1, 84240, Note_on_c, 0, 77, 77
1, 84298, Note_on_c, 0, 77, 0
1, 84300, Note_on_c, 0, 74, 55
1, 84358, Note_on_c, 0, 74, 0
1, 84360, Note_on_c, 0, 73, 55
1, 84418, Note_on_c, 0, 73, 0
1, 84420, Note_on_c, 0, 74, 51
1, 84478, Note_on_c, 0, 74, 0
1, 84478, Note_on_c, 1, 67, 0
1, 84478, Note_on_c, 1, 59, 0
1, 84480, Note_on_c, 0, 76, 76
1, 84480, Note_on_c, 1, 67, 33
1, 84480, Note_on_c, 1, 60, 71
1, 84598, Note_on_c, 0, 76, 0
1, 84600, Note_on_c, 0, 84, 76
1, 84718, Note_on_c, 0, 84, 0
1, 84720, Note_on_c, 0, 86, 74
1, 84778, Note_on_c, 0, 86, 0
1, 84780, Note_on_c, 0, 84, 62
1, 84838, Note_on_c, 0, 84, 0
1, 84840, Note_on_c, 0, 83, 67
1, 84898, Note_on_c, 0, 83, 0
1, 84900, Note_on_c, 0, 81, 68
1, 84958, Note_on_c, 0, 81, 0
1, 84958, Note_on_c, 1, 67, 0
1, 84958, Note_on_c, 1, 60, 0
1, 84960, Note_on_c, 0, 81, 77
1, 85018, Note_on_c, 0, 81, 0
1, 85020, Note_on_c, 0, 79, 62
1, 85078, Note_on_c, 0, 79, 0
1, 85080, Note_on_c, 0, 77, 53
1, 85138, Note_on_c, 0, 77, 0
1, 85140, Note_on_c, 0, 76, 55
1, 85198, Note_on_c, 0, 76, 0
1, 85200, Note_on_c, 0, 76, 79
1, 85200, Note_on_c, 1, 60, 55
1, 85200, Note_on_c, 1, 52, 68
1, 85258, Note_on_c, 0, 76, 0
1, 85260, Note_on_c, 0, 74, 67
1, 85318, Note_on_c, 0, 74, 0
1, 85320, Note_on_c, 0, 72, 63
1, 85378, Note_on_c, 0, 72, 0
1, 85380, Note_on_c, 0, 71, 67
1, 85438, Note_on_c, 0, 71, 0
1, 85438, Note_on_c, 1, 52, 0
1, 85440, Note_on_c, 0, 69, 71
1, 85440, Note_on_c, 1, 53, 57
1, 85498, Note_on_c, 0, 69, 0
1, 85560, Note_on_c, 0, 80, 70
1, 85618, Note_on_c, 0, 80, 0
1, 85620, Note_on_c, 0, 81, 65
1, 85678, Note_on_c, 0, 81, 0
1, 85678, Note_on_c, 1, 60, 0
1, 85680, Note_on_c, 0, 79, 67
1, 85680, Note_on_c, 1, 65, 65
1, 85738, Note_on_c, 0, 79, 0
1, 85740, Note_on_c, 0, 77, 67
1, 85798, Note_on_c, 0, 77, 0
1, 85800, Note_on_c, 0, 76, 63
1, 85858, Note_on_c, 0, 76, 0
1, 85860, Note_on_c, 0, 74, 53
1, 85918, Note_on_c, 0, 74, 0
1, 85918, Note_on_c, 1, 53, 0
1, 85918, Note_on_c, 1, 65, 0
1, 85920, Note_on_c, 0, 72, 66
1, 85920, Note_on_c, 1, 64, 65
1, 85920, Note_on_c, 1, 55, 44
1, 86158, Note_on_c, 0, 72, 0
1, 86158, Note_on_c, 1, 64, 0
1, 86160, Note_on_c, 0, 71, 63
1, 86160, Note_on_c, 1, 62, 65
1, 86206, Note_on_c, 0, 71, 0
1, 86208, Note_on_c, 0, 72, 67
1, 86254, Note_on_c, 0, 72, 0
1, 86256, Note_on_c, 0, 71, 63
1, 86302, Note_on_c, 0, 71, 0
1, 86304, Note_on_c, 0, 69, 67
1, 86350, Note_on_c, 0, 69, 0
1, 86352, Note_on_c, 0, 71, 58
1, 86398, Note_on_c, 0, 71, 0
1, 86398, Note_on_c, 1, 55, 0
1, 86398, Note_on_c, 1, 62, 0
1, 86400, Note_on_c, 0, 72, 55
1, 86400, Note_on_c, 1, 64, 48
1, 86400, Note_on_c, 1, 60, 63
1, 86458, Note_on_c, 0, 72, 0
1, 86460, Note_on_c, 0, 84, 53
1, 86518, Note_on_c, 0, 84, 0
1, 86520, Note_on_c, 0, 83, 67
1, 86578, Note_on_c, 0, 83, 0
1, 86580, Note_on_c, 0, 84, 60
1, 86638, Note_on_c, 0, 84, 0
1, 86640, Note_on_c, 0, 86, 65
1, 86698, Note_on_c, 0, 86, 0
1, 86700, Note_on_c, 0, 84, 57
1, 86758, Note_on_c, 0, 84, 0
1, 86760, Note_on_c, 0, 83, 81
1, 86818, Note_on_c, 0, 83, 0
1, 86820, Note_on_c, 0, 81, 65
1, 86878, Note_on_c, 0, 81, 0
1, 86878, Note_on_c, 1, 64, 0
1, 86878, Note_on_c, 1, 60, 0
1, 86880, Note_on_c, 0, 81, 74
1, 86938, Note_on_c, 0, 81, 0
1, 86940, Note_on_c, 0, 79, 73
1, 86998, Note_on_c, 0, 79, 0
1, 87000, Note_on_c, 0, 77, 78
1, 87058, Note_on_c, 0, 77, 0
1, 87060, Note_on_c, 0, 76, 74
1, 87118, Note_on_c, 0, 76, 0
1, 87120, Note_on_c, 0, 76, 62
1, 87120, Note_on_c, 1, 60, 62
1, 87120, Note_on_c, 1, 52, 51
1, 87178, Note_on_c, 0, 76, 0
1, 87180, Note_on_c, 0, 74, 57
1, 87238, Note_on_c, 0, 74, 0
1, 87240, Note_on_c, 0, 72, 74
1, 87298, Note_on_c, 0, 72, 0
1, 87300, Note_on_c, 0, 71, 65
1, 87358, Note_on_c, 0, 71, 0
1, 87358, Note_on_c, 1, 52, 0
1, 87360, Note_on_c, 0, 69, 67
1, 87360, Note_on_c, 1, 53, 63
1, 87418, Note_on_c, 0, 69, 0
1, 87480, Note_on_c, 0, 80, 68
1, 87538, Note_on_c, 0, 80, 0
1, 87540, Note_on_c, 0, 81, 72
1, 87598, Note_on_c, 0, 81, 0
1, 87598, Note_on_c, 1, 60, 0
1, 87600, Note_on_c, 0, 79, 56
1, 87600, Note_on_c, 1, 65, 60
1, 87658, Note_on_c, 0, 79, 0
1, 87660, Note_on_c, 0, 77, 67
1, 87718, Note_on_c, 0, 77, 0
1, 87720, Note_on_c, 0, 76, 62
1, 87778, Note_on_c, 0, 76, 0
1, 87780, Note_on_c, 0, 74, 61
1, 87838, Note_on_c, 0, 74, 0
1, 87838, Note_on_c, 1, 53, 0
1, 87838, Note_on_c, 1, 65, 0
1, 87840, Note_on_c, 0, 72, 61
1, 87840, Note_on_c, 1, 64, 57
1, 87840, Note_on_c, 1, 55, 55
1, 88078, Note_on_c, 0, 72, 0
1, 88078, Note_on_c, 1, 64, 0
1, 88080, Note_on_c, 0, 71, 61
1, 88080, Note_on_c, 1, 62, 65
1, 88112, Note_on_c, 0, 71, 0
1, 88114, Note_on_c, 0, 72, 55
1, 88147, Note_on_c, 0, 72, 0
1, 88149, Note_on_c, 0, 71, 57
1, 88181, Note_on_c, 0, 71, 0
1, 88183, Note_on_c, 0, 72, 65
1, 88215, Note_on_c, 0, 72, 0
1, 88217, Note_on_c, 0, 71, 74
1, 88249, Note_on_c, 0, 71, 0
1, 88251, Note_on_c, 0, 69, 65
1, 88284, Note_on_c, 0, 69, 0
1, 88286, Note_on_c, 0, 71, 58
1, 88318, Note_on_c, 0, 71, 0
1, 88318, Note_on_c, 1, 55, 0
1, 88318, Note_on_c, 1, 62, 0
1, 88320, Note_on_c, 0, 72, 65
1, 88320, Note_on_c, 1, 48, 63
1, 88378, Note_on_c, 0, 72, 0
1, 88378, Note_on_c, 1, 48, 0
1, 88380, Note_on_c, 1, 60, 48
1, 88438, Note_on_c, 1, 60, 0
1, 88440, Note_on_c, 1, 59, 44
1, 88498, Note_on_c, 1, 59, 0
1, 88500, Note_on_c, 1, 60, 38
1, 88558, Note_on_c, 1, 60, 0
1, 88560, Note_on_c, 0, 65, 57
1, 88560, Note_on_c, 0, 69, 71
1, 88560, Note_on_c, 1, 48, 62
1, 88618, Note_on_c, 0, 65, 0
1, 88618, Note_on_c, 0, 69, 0
1, 88618, Note_on_c, 1, 48, 0
1, 88620, Note_on_c, 1, 60, 21
1, 88678, Note_on_c, 1, 60, 0
1, 88680, Note_on_c, 1, 59, 31
1, 88738, Note_on_c, 1, 59, 0
1, 88740, Note_on_c, 1, 60, 57
1, 88798, Note_on_c, 1, 60, 0
1, 88800, Note_on_c, 0, 64, 66
1, 88800, Note_on_c, 0, 67, 58
1, 88800, Note_on_c, 1, 48, 45
1, 88858, Note_on_c, 0, 64, 0
1, 88858, Note_on_c, 0, 67, 0
1, 88858, Note_on_c, 1, 48, 0
1, 88860, Note_on_c, 1, 60, 57
1, 88918, Note_on_c, 1, 60, 0
1, 88920, Note_on_c, 1, 59, 42
1, 88978, Note_on_c, 1, 59, 0
1, 88980, Note_on_c, 1, 60, 62
1, 89038, Note_on_c, 1, 60, 0
1, 89040, Note_on_c, 0, 65, 73
1, 89040, Note_on_c, 0, 71, 74
1, 89040, Note_on_c, 0, 62, 67
1, 89040, Note_on_c, 1, 48, 62
1, 89098, Note_on_c, 0, 65, 0
1, 89098, Note_on_c, 0, 71, 0
1, 89098, Note_on_c, 0, 62, 0
1, 89098, Note_on_c, 1, 48, 0
1, 89100, Note_on_c, 1, 60, 46
1, 89158, Note_on_c, 1, 60, 0
1, 89160, Note_on_c, 1, 59, 43
1, 89218, Note_on_c, 1, 59, 0
1, 89220, Note_on_c, 1, 60, 56
1, 89278, Note_on_c, 1, 60, 0
1, 89280, Note_on_c, 0, 64, 68
1, 89280, Note_on_c, 0, 67, 68
1, 89280, Note_on_c, 0, 72, 76
1, 89280, Note_on_c, 1, 48, 76
1, 89338, Note_on_c, 0, 64, 0
1, 89338, Note_on_c, 0, 67, 0
1, 89338, Note_on_c, 0, 72, 0
1, 89338, Note_on_c, 1, 48, 0
1, 89340, Note_on_c, 1, 60, 65
1, 89398, Note_on_c, 1, 60, 0
1, 89400, Note_on_c, 1, 59, 52
1, 89458, Note_on_c, 1, 59, 0
1, 89460, Note_on_c, 1, 60, 62
1, 89518, Note_on_c, 1, 60, 0
1, 89520, Note_on_c, 0, 77, 74
1, 89520, Note_on_c, 0, 81, 78
1, 89520, Note_on_c, 1, 48, 76
1, 89578, Note_on_c, 0, 77, 0
1, 89578, Note_on_c, 0, 81, 0
1, 89578, Note_on_c, 1, 48, 0
1, 89580, Note_on_c, 1, 60, 68
1, 89638, Note_on_c, 1, 60, 0
1, 89640, Note_on_c, 1, 59, 68
1, 89698, Note_on_c, 1, 59, 0
1, 89700, Note_on_c, 1, 60, 72
1, 89758, Note_on_c, 1, 60, 0
1, 89760, Note_on_c, 0, 76, 71
1, 89760, Note_on_c, 0, 79, 76
1, 89760, Note_on_c, 1, 48, 78
1, 89818, Note_on_c, 0, 76, 0
1, 89818, Note_on_c, 0, 79, 0
1, 89818, Note_on_c, 1, 48, 0
1, 89820, Note_on_c, 1, 60, 72
1, 89878, Note_on_c, 1, 60, 0
1, 89880, Note_on_c, 1, 59, 74
1, 89938, Note_on_c, 1, 59, 0
1, 89940, Note_on_c, 1, 60, 74
1, 89998, Note_on_c, 1, 60, 0
1, 90000, Note_on_c, 0, 74, 74
1, 90000, Note_on_c, 0, 77, 77
1, 90000, Note_on_c, 0, 83, 79
1, 90000, Note_on_c, 1, 48, 76
1, 90058, Note_on_c, 0, 74, 0
1, 90058, Note_on_c, 0, 77, 0
1, 90058, Note_on_c, 0, 83, 0
1, 90058, Note_on_c, 1, 48, 0
1, 90060, Note_on_c, 1, 60, 74
1, 90118, Note_on_c, 1, 60, 0
1, 90120, Note_on_c, 1, 59, 81
1, 90178, Note_on_c, 1, 59, 0
1, 90180, Note_on_c, 1, 60, 78
1, 90238, Note_on_c, 1, 60, 0
1, 90240, Note_on_c, 0, 76, 68
1, 90240, Note_on_c, 0, 79, 73
1, 90240, Note_on_c, 0, 84, 77
1, 90240, Note_on_c, 1, 48, 74
1, 90718, Note_on_c, 0, 76, 0
1, 90718, Note_on_c, 0, 79, 0
1, 90718, Note_on_c, 0, 84, 0
1, 90718, Note_on_c, 1, 48, 0
1, 90960, Note_on_c, 0, 67, 56
1, 91138, Note_on_c, 0, 67, 0
1, 91140, Note_on_c, 0, 64, 52
1, 91198, Note_on_c, 0, 64, 0
1, 91200, Note_on_c, 0, 60, 58
1, 91200, Note_on_c, 1, 48, 41
1, 91200, Note_on_c, 1, 52, 55
1, 91258, Note_on_c, 0, 60, 0
1, 91342, Note_on_c, 1, 48, 0
1, 91342, Note_on_c, 1, 52, 0
1, 91440, Note_on_c, 0, 64, 50
1, 91618, Note_on_c, 0, 64, 0
1, 91620, Note_on_c, 0, 60, 51
1, 91678, Note_on_c, 0, 60, 0
1, 91680, Note_on_c, 0, 59, 50
1, 91680, Note_on_c, 1, 53, 41
1, 91680, Note_on_c, 1, 43, 45
1, 91738, Note_on_c, 0, 59, 0
1, 91822, Note_on_c, 1, 53, 0
1, 91822, Note_on_c, 1, 43, 0
1, 91920, Note_on_c, 0, 62, 66
1, 92098, Note_on_c, 0, 62, 0
1, 92100, Note_on_c, 0, 59, 46
1, 92158, Note_on_c, 0, 59, 0
1, 92160, Note_on_c, 0, 60, 56
1, 92160, Note_on_c, 1, 52, 48
1, 92160, Note_on_c, 1, 48, 52
1, 92278, Note_on_c, 0, 60, 0
1, 92302, Note_on_c, 1, 52, 0
1, 92302, Note_on_c, 1, 48, 0
1, 92400, Note_on_c, 0, 69, 44
1, 92400, Note_on_c, 0, 65, 51
1, 92638, Note_on_c, 0, 69, 0
1, 92638, Note_on_c, 0, 65, 0
1, 92640, Note_on_c, 0, 67, 38
1, 92640, Note_on_c, 0, 64, 33
1, 92758, Note_on_c, 0, 67, 0
1, 92758, Note_on_c, 0, 64, 0
1, 92880, Note_on_c, 0, 74, 66
1, 92938, Note_on_c, 0, 74, 0
1, 92940, Note_on_c, 0, 72, 65
1, 92998, Note_on_c, 0, 72, 0
1, 93000, Note_on_c, 0, 71, 65
1, 93058, Note_on_c, 0, 71, 0
1, 93060, Note_on_c, 0, 69, 65
1, 93118, Note_on_c, 0, 69, 0
1, 93120, Note_on_c, 0, 67, 53
1, 93358, Note_on_c, 0, 67, 0
1, 93360, Note_on_c, 0, 76, 63
1, 93360, Note_on_c, 1, 60, 52
1, 93438, Note_on_c, 0, 76, 0
1, 93440, Note_on_c, 0, 64, 65
1, 93518, Note_on_c, 0, 64, 0
1, 93520, Note_on_c, 0, 69, 63
1, 93598, Note_on_c, 0, 69, 0
1, 93598, Note_on_c, 1, 60, 0
1, 93600, Note_on_c, 0, 67, 67
1, 93600, Note_on_c, 1, 62, 60
1, 93694, Note_on_c, 0, 67, 0
1, 93838, Note_on_c, 1, 62, 0
1, 93840, Note_on_c, 0, 65, 65
1, 93840, Note_on_c, 1, 55, 36
1, 93886, Note_on_c, 0, 65, 0
1, 93888, Note_on_c, 0, 67, 65
1, 93934, Note_on_c, 0, 67, 0
1, 93936, Note_on_c, 0, 65, 65
1, 93982, Note_on_c, 0, 65, 0
1, 93984, Note_on_c, 0, 64, 55
1, 94030, Note_on_c, 0, 64, 0
1, 94032, Note_on_c, 0, 65, 60
1, 94078, Note_on_c, 0, 65, 0
1, 94078, Note_on_c, 1, 55, 0
1, 94080, Note_on_c, 0, 65, 58
1, 94080, Note_on_c, 1, 60, 47
1, 94318, Note_on_c, 1, 60, 0
1, 94320, Note_on_c, 1, 55, 51
1, 94558, Note_on_c, 0, 65, 0
1, 94558, Note_on_c, 1, 55, 0
1, 94560, Note_on_c, 0, 64, 43
1, 94560, Note_on_c, 1, 48, 62
1, 94678, Note_on_c, 0, 64, 0
1, 94798, Note_on_c, 1, 48, 0
1, 94800, Note_on_c, 0, 67, 65
1, 94858, Note_on_c, 0, 67, 0
1, 94860, Note_on_c, 0, 64, 62
1, 94918, Note_on_c, 0, 64, 0
1, 94920, Note_on_c, 0, 67, 63
1, 94978, Note_on_c, 0, 67, 0
1, 94980, Note_on_c, 0, 64, 62
1, 95038, Note_on_c, 0, 64, 0
1, 95040, Note_on_c, 0, 60, 65
1, 95098, Note_on_c, 0, 60, 0
1, 95280, Note_on_c, 0, 79, 77
1, 95280, Note_on_c, 1, 58, 65
1, 95338, Note_on_c, 1, 58, 0
1, 95340, Note_on_c, 1, 55, 65
1, 95398, Note_on_c, 0, 79, 0
1, 95398, Note_on_c, 1, 55, 0
1, 95400, Note_on_c, 1, 58, 56
1, 95458, Note_on_c, 1, 58, 0
1, 95460, Note_on_c, 1, 55, 67
1, 95518, Note_on_c, 1, 55, 0
1, 95520, Note_on_c, 1, 52, 72
1, 95578, Note_on_c, 1, 52, 0
1, 95760, Note_on_c, 0, 77, 72
1, 95760, Note_on_c, 1, 70, 70
1, 95818, Note_on_c, 0, 77, 0
1, 95820, Note_on_c, 0, 76, 71
1, 95878, Note_on_c, 0, 76, 0
1, 95880, Note_on_c, 0, 74, 65
1, 95938, Note_on_c, 0, 74, 0
1, 95940, Note_on_c, 0, 72, 52
1, 95998, Note_on_c, 0, 72, 0
1, 95998, Note_on_c, 1, 70, 0
1, 96000, Note_on_c, 0, 77, 72
1, 96000, Note_on_c, 1, 69, 63
1, 96118, Note_on_c, 0, 77, 0
1, 96118, Note_on_c, 1, 69, 0
1, 96240, Note_on_c, 1, 48, 68
1, 96298, Note_on_c, 1, 48, 0
1, 96300, Note_on_c, 1, 45, 74
1, 96358, Note_on_c, 1, 45, 0
1, 96360, Note_on_c, 1, 48, 52
1, 96418, Note_on_c, 1, 48, 0
1, 96420, Note_on_c, 1, 45, 65
1, 96478, Note_on_c, 1, 45, 0
1, 96480, Note_on_c, 1, 41, 72
1, 96538, Note_on_c, 1, 41, 0
1, 96720, Note_on_c, 0, 72, 68
1, 96778, Note_on_c, 0, 72, 0
1, 96780, Note_on_c, 0, 69, 73
1, 96838, Note_on_c, 0, 69, 0
1, 96840, Note_on_c, 0, 72, 63
1, 96898, Note_on_c, 0, 72, 0
1, 96900, Note_on_c, 0, 69, 71
1, 96958, Note_on_c, 0, 69, 0
1, 96960, Note_on_c, 0, 65, 71
1, 97078, Note_on_c, 0, 65, 0
1, 97200, Note_on_c, 0, 84, 74
1, 97200, Note_on_c, 1, 63, 62
1, 97258, Note_on_c, 1, 63, 0
1, 97260, Note_on_c, 1, 60, 71
1, 97318, Note_on_c, 0, 84, 0
1, 97318, Note_on_c, 1, 60, 0
1, 97320, Note_on_c, 1, 63, 51
1, 97378, Note_on_c, 1, 63, 0
1, 97380, Note_on_c, 1, 60, 65
1, 97438, Note_on_c, 1, 60, 0
1, 97440, Note_on_c, 1, 57, 72
1, 97498, Note_on_c, 1, 57, 0
1, 97680, Note_on_c, 0, 82, 66
1, 97680, Note_on_c, 1, 75, 73
1, 97738, Note_on_c, 0, 82, 0
1, 97740, Note_on_c, 0, 81, 72
1, 97798, Note_on_c, 0, 81, 0
1, 97800, Note_on_c, 0, 79, 66
1, 97858, Note_on_c, 0, 79, 0
1, 97860, Note_on_c, 0, 77, 66
1, 97918, Note_on_c, 0, 77, 0
1, 97918, Note_on_c, 1, 75, 0
1, 97920, Note_on_c, 0, 82, 74
1, 97920, Note_on_c, 1, 74, 65
1, 97978, Note_on_c, 0, 82, 0
1, 98038, Note_on_c, 1, 74, 0
1, 98040, Note_on_c, 0, 86, 68
1, 98098, Note_on_c, 0, 86, 0
1, 98100, Note_on_c, 0, 84, 74
1, 98158, Note_on_c, 0, 84, 0
1, 98160, Note_on_c, 0, 82, 66
1, 98218, Note_on_c, 0, 82, 0
1, 98220, Note_on_c, 0, 81, 65
1, 98278, Note_on_c, 0, 81, 0
1, 98280, Note_on_c, 0, 79, 68
1, 98280, Note_on_c, 1, 70, 33
1, 98338, Note_on_c, 0, 79, 0
1, 98340, Note_on_c, 0, 77, 68
1, 98398, Note_on_c, 0, 77, 0
1, 98398, Note_on_c, 1, 70, 0
1, 98400, Note_on_c, 0, 75, 65
1, 98400, Note_on_c, 1, 72, 68
1, 98518, Note_on_c, 0, 75, 0
1, 98520, Note_on_c, 0, 84, 72
1, 98638, Note_on_c, 0, 84, 0
1, 98638, Note_on_c, 1, 72, 0
1, 98640, Note_on_c, 1, 69, 67
1, 98760, Note_on_c, 0, 75, 56
1, 98878, Note_on_c, 0, 75, 0
1, 98878, Note_on_c, 1, 69, 0
1, 98880, Note_on_c, 0, 74, 73
1, 98880, Note_on_c, 1, 70, 58
1, 98998, Note_on_c, 0, 74, 0
1, 99000, Note_on_c, 0, 82, 70
1, 99058, Note_on_c, 0, 82, 0
1, 99060, Note_on_c, 0, 81, 56
1, 99118, Note_on_c, 0, 81, 0
1, 99118, Note_on_c, 1, 70, 0
1, 99120, Note_on_c, 0, 79, 62
1, 99178, Note_on_c, 0, 79, 0
1, 99180, Note_on_c, 0, 77, 68
1, 99238, Note_on_c, 0, 77, 0
1, 99240, Note_on_c, 0, 75, 63
1, 99240, Note_on_c, 1, 67, 68
1, 99298, Note_on_c, 0, 75, 0
1, 99300, Note_on_c, 0, 74, 67
1, 99358, Note_on_c, 0, 74, 0
1, 99358, Note_on_c, 1, 67, 0
1, 99360, Note_on_c, 0, 72, 68
1, 99360, Note_on_c, 1, 69, 61
1, 99478, Note_on_c, 0, 72, 0
1, 99480, Note_on_c, 0, 81, 74
1, 99598, Note_on_c, 0, 81, 0
1, 99598, Note_on_c, 1, 69, 0
1, 99600, Note_on_c, 1, 66, 52
1, 99720, Note_on_c, 0, 72, 66
1, 99838, Note_on_c, 0, 72, 0
1, 99838, Note_on_c, 1, 66, 0
1, 99840, Note_on_c, 0, 70, 66
1, 99840, Note_on_c, 1, 67, 57
1, 99958, Note_on_c, 0, 70, 0
1, 99960, Note_on_c, 0, 79, 68
1, 100018, Note_on_c, 0, 79, 0
1, 100020, Note_on_c, 0, 77, 66
1, 100078, Note_on_c, 0, 77, 0
1, 100078, Note_on_c, 1, 67, 0
1, 100080, Note_on_c, 0, 76, 77
1, 100138, Note_on_c, 0, 76, 0
1, 100140, Note_on_c, 0, 74, 81
1, 100198, Note_on_c, 0, 74, 0
1, 100200, Note_on_c, 0, 72, 74
1, 100200, Note_on_c, 1, 64, 57
1, 100258, Note_on_c, 0, 72, 0
1, 100260, Note_on_c, 0, 70, 70
1, 100318, Note_on_c, 0, 70, 0
1, 100318, Note_on_c, 1, 64, 0
1, 100320, Note_on_c, 0, 69, 71
1, 100320, Note_on_c, 1, 65, 61
1, 100438, Note_on_c, 0, 69, 0
1, 100440, Note_on_c, 0, 77, 74
1, 100558, Note_on_c, 0, 77, 0
1, 100558, Note_on_c, 1, 65, 0
1, 100560, Note_on_c, 1, 62, 51
1, 100680, Note_on_c, 0, 69, 48
1, 100798, Note_on_c, 0, 69, 0
1, 100798, Note_on_c, 1, 62, 0
1, 100800, Note_on_c, 0, 67, 71
1, 100800, Note_on_c, 1, 64, 62
1, 100918, Note_on_c, 0, 67, 0
1, 100920, Note_on_c, 0, 76, 73
1, 100978, Note_on_c, 0, 76, 0
1, 100980, Note_on_c, 0, 74, 68
1, 101038, Note_on_c, 0, 74, 0
1, 101038, Note_on_c, 1, 64, 0
1, 101040, Note_on_c, 0, 73, 71
1, 101098, Note_on_c, 0, 73, 0
1, 101100, Note_on_c, 0, 71, 67
1, 101158, Note_on_c, 0, 71, 0
1, 101160, Note_on_c, 0, 69, 67
1, 101160, Note_on_c, 1, 61, 55
1, 101218, Note_on_c, 0, 69, 0
1, 101220, Note_on_c, 0, 67, 71
1, 101278, Note_on_c, 0, 67, 0
1, 101278, Note_on_c, 1, 61, 0
1, 101280, Note_on_c, 0, 65, 62
1, 101280, Note_on_c, 1, 62, 58
1, 101398, Note_on_c, 0, 65, 0
1, 101400, Note_on_c, 0, 74, 68
1, 101518, Note_on_c, 0, 74, 0
1, 101518, Note_on_c, 1, 62, 0
1, 101520, Note_on_c, 1, 56, 63
1, 101640, Note_on_c, 0, 65, 50
1, 101640, Note_on_c, 0, 62, 44
1, 101758, Note_on_c, 0, 65, 0
1, 101758, Note_on_c, 0, 62, 0
1, 101758, Note_on_c, 1, 56, 0
1, 101760, Note_on_c, 0, 64, 72
1, 101760, Note_on_c, 0, 61, 60
1, 101760, Note_on_c, 1, 45, 78
1, 101818, Note_on_c, 1, 45, 0
1, 101820, Note_on_c, 1, 57, 65
1, 101878, Note_on_c, 0, 64, 0
1, 101878, Note_on_c, 0, 61, 0
1, 101878, Note_on_c, 1, 57, 0
1, 101880, Note_on_c, 1, 56, 55
1, 101938, Note_on_c, 1, 56, 0
1, 101940, Note_on_c, 1, 57, 57
1, 101998, Note_on_c, 1, 57, 0
1, 102000, Note_on_c, 0, 65, 67
1, 102000, Note_on_c, 0, 69, 71
1, 102000, Note_on_c, 1, 45, 81
1, 102058, Note_on_c, 1, 45, 0
1, 102060, Note_on_c, 1, 57, 63
1, 102118, Note_on_c, 0, 65, 0
1, 102118, Note_on_c, 0, 69, 0
1, 102118, Note_on_c, 1, 57, 0
1, 102120, Note_on_c, 1, 56, 65
1, 102178, Note_on_c, 1, 56, 0
1, 102180, Note_on_c, 1, 57, 62
1, 102238, Note_on_c, 1, 57, 0
1, 102240, Note_on_c, 0, 67, 70
1, 102240, Note_on_c, 0, 64, 63
1, 102240, Note_on_c, 1, 45, 74
1, 102298, Note_on_c, 1, 45, 0
1, 102300, Note_on_c, 1, 57, 52
1, 102358, Note_on_c, 0, 67, 0
1, 102358, Note_on_c, 0, 64, 0
1, 102358, Note_on_c, 1, 57, 0
1, 102360, Note_on_c, 1, 56, 45
1, 102418, Note_on_c, 1, 56, 0
1, 102420, Note_on_c, 1, 57, 60
1, 102478, Note_on_c, 1, 57, 0
1, 102480, Note_on_c, 0, 62, 68
1, 102480, Note_on_c, 0, 65, 73
1, 102480, Note_on_c, 1, 45, 76
1, 102538, Note_on_c, 1, 45, 0
1, 102540, Note_on_c, 1, 57, 48
1, 102598, Note_on_c, 0, 62, 0
1, 102598, Note_on_c, 0, 65, 0
1, 102598, Note_on_c, 1, 57, 0
1, 102600, Note_on_c, 1, 56, 61
1, 102658, Note_on_c, 1, 56, 0
1, 102660, Note_on_c, 1, 57, 61
1, 102718, Note_on_c, 1, 57, 0
1, 102720, Note_on_c, 0, 64, 68
1, 102720, Note_on_c, 0, 61, 55
1, 102720, Note_on_c, 1, 45, 65
1, 102838, Note_on_c, 0, 64, 0
1, 102838, Note_on_c, 0, 61, 0
1, 102838, Note_on_c, 1, 45, 0
1, 102960, Note_on_c, 0, 81, 74
1, 102960, Note_on_c, 1, 65, 62
1, 102960, Note_on_c, 1, 57, 56
1, 103018, Note_on_c, 0, 81, 0
1, 103020, Note_on_c, 0, 69, 56
1, 103078, Note_on_c, 0, 69, 0
1, 103080, Note_on_c, 0, 68, 63
1, 103138, Note_on_c, 0, 68, 0
1, 103140, Note_on_c, 0, 69, 55
1, 103198, Note_on_c, 0, 69, 0
1, 103198, Note_on_c, 1, 65, 0
1, 103200, Note_on_c, 0, 79, 74
1, 103200, Note_on_c, 1, 64, 63
1, 103258, Note_on_c, 0, 79, 0
1, 103260, Note_on_c, 0, 69, 52
1, 103318, Note_on_c, 0, 69, 0
1, 103320, Note_on_c, 0, 68, 61
1, 103378, Note_on_c, 0, 68, 0
1, 103380, Note_on_c, 0, 69, 65
1, 103438, Note_on_c, 0, 69, 0
1, 103438, Note_on_c, 1, 64, 0
1, 103440, Note_on_c, 0, 77, 76
1, 103440, Note_on_c, 1, 62, 60
1, 103498, Note_on_c, 0, 77, 0
1, 103500, Note_on_c, 0, 69, 56
1, 103558, Note_on_c, 0, 69, 0
1, 103560, Note_on_c, 0, 68, 63
1, 103618, Note_on_c, 0, 68, 0
1, 103620, Note_on_c, 0, 69, 55
1, 103678, Note_on_c, 0, 69, 0
1, 103678, Note_on_c, 1, 62, 0
1, 103680, Note_on_c, 0, 76, 72
1, 103680, Note_on_c, 1, 61, 44
1, 103798, Note_on_c, 0, 76, 0
1, 103918, Note_on_c, 1, 61, 0
1, 103918, Note_on_c, 1, 57, 0
1, 104400, Note_on_c, 0, 69, 66
1, 104458, Note_on_c, 0, 69, 0
1, 104460, Note_on_c, 0, 65, 62
1, 104518, Note_on_c, 0, 65, 0
1, 104520, Note_on_c, 0, 69, 66
1, 104578, Note_on_c, 0, 69, 0
1, 104580, Note_on_c, 0, 65, 53
1, 104638, Note_on_c, 0, 65, 0
1, 104640, Note_on_c, 0, 62, 58
1, 104640, Note_on_c, 1, 50, 48
1, 104710, Note_on_c, 1, 50, 0
1, 104758, Note_on_c, 0, 62, 0
1, 104760, Note_on_c, 1, 53, 31
1, 104830, Note_on_c, 1, 53, 0
1, 104880, Note_on_c, 1, 50, 46
1, 104950, Note_on_c, 1, 50, 0
1, 105000, Note_on_c, 0, 81, 65
1, 105000, Note_on_c, 1, 53, 34
1, 105070, Note_on_c, 0, 81, 0
1, 105070, Note_on_c, 1, 53, 0
1, 105120, Note_on_c, 0, 79, 71
1, 105120, Note_on_c, 1, 50, 32
1, 105190, Note_on_c, 0, 79, 0
1, 105190, Note_on_c, 1, 50, 0
1, 105240, Note_on_c, 0, 77, 68
1, 105240, Note_on_c, 1, 53, 30
1, 105310, Note_on_c, 0, 77, 0
1, 105310, Note_on_c, 1, 53, 0
1, 105360, Note_on_c, 0, 76, 72
1, 105360, Note_on_c, 1, 50, 46
1, 105430, Note_on_c, 0, 76, 0
1, 105430, Note_on_c, 1, 50, 0
1, 105480, Note_on_c, 0, 74, 56
1, 105480, Note_on_c, 1, 53, 26
1, 105550, Note_on_c, 0, 74, 0
1, 105550, Note_on_c, 1, 53, 0
1, 105600, Note_on_c, 0, 74, 70
1, 105600, Note_on_c, 1, 52, 56
1, 105670, Note_on_c, 1, 52, 0
1, 105720, Note_on_c, 1, 55, 40
1, 105790, Note_on_c, 1, 55, 0
1, 105840, Note_on_c, 1, 52, 36
1, 105910, Note_on_c, 1, 52, 0
1, 105958, Note_on_c, 0, 74, 0
1, 105960, Note_on_c, 0, 76, 38
1, 105960, Note_on_c, 1, 55, 41
1, 106018, Note_on_c, 0, 76, 0
1, 106020, Note_on_c, 0, 74, 74
1, 106030, Note_on_c, 1, 55, 0
1, 106078, Note_on_c, 0, 74, 0
1, 106080, Note_on_c, 0, 73, 68
1, 106080, Note_on_c, 1, 52, 33
1, 106138, Note_on_c, 0, 73, 0
1, 106150, Note_on_c, 1, 52, 0
1, 106200, Note_on_c, 1, 55, 41
1, 106270, Note_on_c, 1, 55, 0
1, 106320, Note_on_c, 0, 70, 60
1, 106320, Note_on_c, 1, 52, 28
1, 106378, Note_on_c, 0, 70, 0
1, 106380, Note_on_c, 0, 67, 66
1, 106390, Note_on_c, 1, 52, 0
1, 106438, Note_on_c, 0, 67, 0
1, 106440, Note_on_c, 0, 70, 67
1, 106440, Note_on_c, 1, 55, 40
1, 106498, Note_on_c, 0, 70, 0
1, 106500, Note_on_c, 0, 67, 52
1, 106510, Note_on_c, 1, 55, 0
1, 106558, Note_on_c, 0, 67, 0
1, 106560, Note_on_c, 0, 61, 65
1, 106560, Note_on_c, 1, 52, 56
1, 106630, Note_on_c, 1, 52, 0
1, 106678, Note_on_c, 0, 61, 0
1, 106680, Note_on_c, 1, 55, 40
1, 106750, Note_on_c, 1, 55, 0
1, 106800, Note_on_c, 1, 52, 36
1, 106870, Note_on_c, 1, 52, 0
1, 106920, Note_on_c, 0, 82, 71
1, 106920, Note_on_c, 1, 55, 41
1, 106990, Note_on_c, 0, 82, 0
1, 106990, Note_on_c, 1, 55, 0
1, 107040, Note_on_c, 0, 81, 68
1, 107040, Note_on_c, 1, 52, 33
1, 107110, Note_on_c, 0, 81, 0
1, 107110, Note_on_c, 1, 52, 0
1, 107160, Note_on_c, 0, 79, 72
1, 107160, Note_on_c, 1, 55, 41
1, 107230, Note_on_c, 0, 79, 0
1, 107230, Note_on_c, 1, 55, 0
1, 107280, Note_on_c, 0, 77, 70
1, 107280, Note_on_c, 1, 52, 28
1, 107350, Note_on_c, 0, 77, 0
1, 107350, Note_on_c, 1, 52, 0
1, 107400, Note_on_c, 0, 76, 63
1, 107400, Note_on_c, 1, 55, 40
1, 107470, Note_on_c, 0, 76, 0
1, 107470, Note_on_c, 1, 55, 0
1, 107520, Note_on_c, 0, 76, 66
1, 107520, Note_on_c, 1, 53, 56
1, 107590, Note_on_c, 1, 53, 0
1, 107640, Note_on_c, 1, 57, 40
1, 107710, Note_on_c, 1, 57, 0
1, 107760, Note_on_c, 1, 53, 36
1, 107830, Note_on_c, 1, 53, 0
1, 107878, Note_on_c, 0, 76, 0
1, 107880, Note_on_c, 0, 77, 37
1, 107880, Note_on_c, 1, 57, 41
1, 107938, Note_on_c, 0, 77, 0
1, 107940, Note_on_c, 0, 76, 63
1, 107950, Note_on_c, 1, 57, 0
1, 107998, Note_on_c, 0, 76, 0
1, 108000, Note_on_c, 0, 74, 73
1, 108000, Note_on_c, 1, 53, 33
1, 108070, Note_on_c, 1, 53, 0
1, 108118, Note_on_c, 0, 74, 0
1, 108120, Note_on_c, 1, 57, 41
1, 108190, Note_on_c, 1, 57, 0
1, 108240, Note_on_c, 0, 74, 67
1, 108240, Note_on_c, 1, 53, 28
1, 108298, Note_on_c, 0, 74, 0
1, 108300, Note_on_c, 0, 69, 65
1, 108310, Note_on_c, 1, 53, 0
1, 108358, Note_on_c, 0, 69, 0
1, 108360, Note_on_c, 0, 74, 68
1, 108360, Note_on_c, 1, 57, 40
1, 108418, Note_on_c, 0, 74, 0
1, 108420, Note_on_c, 0, 69, 55
1, 108430, Note_on_c, 1, 57, 0
1, 108478, Note_on_c, 0, 69, 0
1, 108480, Note_on_c, 0, 62, 74
1, 108480, Note_on_c, 1, 53, 56
1, 108550, Note_on_c, 1, 53, 0
1, 108598, Note_on_c, 0, 62, 0
1, 108600, Note_on_c, 1, 57, 40
1, 108670, Note_on_c, 1, 57, 0
1, 108720, Note_on_c, 1, 53, 36
1, 108790, Note_on_c, 1, 53, 0
1, 108840, Note_on_c, 0, 75, 65
1, 108840, Note_on_c, 1, 57, 41
1, 108898, Note_on_c, 0, 75, 0
1, 108910, Note_on_c, 1, 57, 0
1, 108960, Note_on_c, 0, 74, 68
1, 108960, Note_on_c, 1, 54, 33
1, 109018, Note_on_c, 0, 74, 0
1, 109030, Note_on_c, 1, 54, 0
1, 109080, Note_on_c, 0, 72, 65
1, 109080, Note_on_c, 1, 62, 41
1, 109138, Note_on_c, 0, 72, 0
1, 109150, Note_on_c, 1, 62, 0
1, 109200, Note_on_c, 0, 70, 63
1, 109200, Note_on_c, 1, 54, 28
1, 109258, Note_on_c, 0, 70, 0
1, 109270, Note_on_c, 1, 54, 0
1, 109320, Note_on_c, 0, 69, 70
1, 109320, Note_on_c, 1, 62, 40
1, 109378, Note_on_c, 0, 69, 0
1, 109390, Note_on_c, 1, 62, 0
1, 109440, Note_on_c, 0, 72, 67
1, 109440, Note_on_c, 1, 55, 72
1, 109498, Note_on_c, 1, 55, 0
1, 109558, Note_on_c, 0, 72, 0
1, 109560, Note_on_c, 0, 70, 56
1, 109560, Note_on_c, 1, 62, 71
1, 109618, Note_on_c, 1, 62, 0
1, 109678, Note_on_c, 0, 70, 0
1, 109680, Note_on_c, 1, 55, 62
1, 109738, Note_on_c, 1, 55, 0
1, 109800, Note_on_c, 0, 77, 78
1, 109800, Note_on_c, 1, 62, 68
1, 109858, Note_on_c, 0, 77, 0
1, 109858, Note_on_c, 1, 62, 0
1, 109920, Note_on_c, 0, 76, 67
1, 109920, Note_on_c, 1, 56, 74
1, 109978, Note_on_c, 0, 76, 0
1, 109978, Note_on_c, 1, 56, 0
1, 110040, Note_on_c, 0, 74, 72
1, 110040, Note_on_c, 1, 64, 68
1, 110098, Note_on_c, 0, 74, 0
1, 110098, Note_on_c, 1, 64, 0
1, 110160, Note_on_c, 0, 73, 74
1, 110160, Note_on_c, 1, 56, 73
1, 110218, Note_on_c, 0, 73, 0
1, 110278, Note_on_c, 1, 56, 0
1, 110280, Note_on_c, 0, 71, 72
1, 110280, Note_on_c, 1, 64, 67
1, 110338, Note_on_c, 0, 71, 0
1, 110338, Note_on_c, 1, 64, 0
1, 110400, Note_on_c, 0, 74, 74
1, 110400, Note_on_c, 1, 57, 74
1, 110458, Note_on_c, 1, 57, 0
1, 110518, Note_on_c, 0, 74, 0
1, 110520, Note_on_c, 0, 73, 65
1, 110520, Note_on_c, 1, 64, 68
1, 110578, Note_on_c, 0, 73, 0
1, 110578, Note_on_c, 1, 64, 0
1, 110640, Note_on_c, 1, 57, 76
1, 110698, Note_on_c, 1, 57, 0
1, 110760, Note_on_c, 0, 82, 86
1, 110760, Note_on_c, 1, 64, 74
1, 110818, Note_on_c, 0, 82, 0
1, 110818, Note_on_c, 1, 64, 0
1, 110880, Note_on_c, 0, 81, 77
1, 110880, Note_on_c, 1, 61, 74
1, 110938, Note_on_c, 0, 81, 0
1, 110938, Note_on_c, 1, 61, 0
1, 111000, Note_on_c, 0, 79, 78
1, 111000, Note_on_c, 1, 69, 72
1, 111058, Note_on_c, 0, 79, 0
1, 111058, Note_on_c, 1, 69, 0
1, 111120, Note_on_c, 0, 77, 74
1, 111120, Note_on_c, 1, 61, 72
1, 111178, Note_on_c, 0, 77, 0
1, 111178, Note_on_c, 1, 61, 0
1, 111240, Note_on_c, 0, 76, 66
1, 111240, Note_on_c, 1, 69, 86
1, 111298, Note_on_c, 0, 76, 0
1, 111298, Note_on_c, 1, 69, 0
1, 111360, Note_on_c, 0, 77, 74
1, 111418, Note_on_c, 0, 77, 0
1, 111420, Note_on_c, 0, 74, 74
1, 111478, Note_on_c, 0, 74, 0
1, 111480, Note_on_c, 0, 69, 62
1, 111538, Note_on_c, 0, 69, 0
1, 111540, Note_on_c, 0, 65, 66
1, 111598, Note_on_c, 0, 65, 0
1, 111600, Note_on_c, 0, 62, 70
1, 111658, Note_on_c, 0, 62, 0
1, 111660, Note_on_c, 0, 77, 74
1, 111718, Note_on_c, 0, 77, 0
1, 111720, Note_on_c, 0, 74, 70
1, 111778, Note_on_c, 0, 74, 0
1, 111780, Note_on_c, 0, 69, 55
1, 111838, Note_on_c, 0, 69, 0
1, 111840, Note_on_c, 0, 79, 89
1, 111898, Note_on_c, 0, 79, 0
1, 111900, Note_on_c, 0, 76, 76
1, 111958, Note_on_c, 0, 76, 0
1, 111960, Note_on_c, 0, 73, 55
1, 112018, Note_on_c, 0, 73, 0
1, 112020, Note_on_c, 0, 67, 40
1, 112078, Note_on_c, 0, 67, 0
1, 112080, Note_on_c, 0, 64, 55
1, 112138, Note_on_c, 0, 64, 0
1, 112140, Note_on_c, 0, 79, 72
1, 112198, Note_on_c, 0, 79, 0
1, 112200, Note_on_c, 0, 76, 52
1, 112258, Note_on_c, 0, 76, 0
1, 112260, Note_on_c, 0, 73, 37
1, 112318, Note_on_c, 0, 73, 0
1, 112320, Note_on_c, 0, 81, 77
1, 112378, Note_on_c, 0, 81, 0
1, 112380, Note_on_c, 0, 77, 62
1, 112438, Note_on_c, 0, 77, 0
1, 112440, Note_on_c, 0, 74, 57
1, 112498, Note_on_c, 0, 74, 0
1, 112500, Note_on_c, 0, 69, 45
1, 112558, Note_on_c, 0, 69, 0
1, 112560, Note_on_c, 0, 65, 71
1, 112618, Note_on_c, 0, 65, 0
1, 112620, Note_on_c, 0, 81, 74
1, 112678, Note_on_c, 0, 81, 0
1, 112680, Note_on_c, 0, 77, 63
1, 112738, Note_on_c, 0, 77, 0
1, 112740, Note_on_c, 0, 74, 66
1, 112798, Note_on_c, 0, 74, 0
1, 112800, Note_on_c, 0, 82, 73
1, 112858, Note_on_c, 0, 82, 0
1, 112860, Note_on_c, 0, 79, 66
1, 112918, Note_on_c, 0, 79, 0
1, 112920, Note_on_c, 0, 74, 44
1, 112978, Note_on_c, 0, 74, 0
1, 112980, Note_on_c, 0, 70, 52
1, 113038, Note_on_c, 0, 70, 0
1, 113040, Note_on_c, 0, 67, 58
1, 113098, Note_on_c, 0, 67, 0
1, 113100, Note_on_c, 0, 82, 63
1, 113158, Note_on_c, 0, 82, 0
1, 113160, Note_on_c, 0, 79, 74
1, 113218, Note_on_c, 0, 79, 0
1, 113220, Note_on_c, 0, 74, 65
1, 113278, Note_on_c, 0, 74, 0
1, 113280, Note_on_c, 0, 81, 72
1, 113338, Note_on_c, 0, 81, 0
1, 113340, Note_on_c, 0, 77, 66
1, 113398, Note_on_c, 0, 77, 0
1, 113400, Note_on_c, 0, 74, 68
1, 113458, Note_on_c, 0, 74, 0
1, 113460, Note_on_c, 0, 69, 62
1, 113518, Note_on_c, 0, 69, 0
1, 113520, Note_on_c, 0, 65, 44
1, 113578, Note_on_c, 0, 65, 0
1, 113580, Note_on_c, 0, 81, 72
1, 113638, Note_on_c, 0, 81, 0
1, 113640, Note_on_c, 0, 77, 70
1, 113698, Note_on_c, 0, 77, 0
1, 113700, Note_on_c, 0, 74, 61
1, 113758, Note_on_c, 0, 74, 0
1, 113760, Note_on_c, 0, 83, 76
1, 113818, Note_on_c, 0, 83, 0
1, 113820, Note_on_c, 0, 77, 65
1, 113878, Note_on_c, 0, 77, 0
1, 113880, Note_on_c, 0, 74, 65
1, 113938, Note_on_c, 0, 74, 0
1, 113940, Note_on_c, 0, 71, 66
1, 113998, Note_on_c, 0, 71, 0
1, 114000, Note_on_c, 0, 68, 65
1, 114058, Note_on_c, 0, 68, 0
1, 114060, Note_on_c, 0, 86, 76
1, 114118, Note_on_c, 0, 86, 0
1, 114120, Note_on_c, 0, 83, 72
1, 114178, Note_on_c, 0, 83, 0
1, 114180, Note_on_c, 0, 77, 62
1, 114238, Note_on_c, 0, 77, 0
1, 114240, Note_on_c, 0, 85, 79
1, 114298, Note_on_c, 0, 85, 0
1, 114300, Note_on_c, 0, 81, 67
1, 114358, Note_on_c, 0, 81, 0
1, 114360, Note_on_c, 0, 76, 52
1, 114418, Note_on_c, 0, 76, 0
1, 114420, Note_on_c, 0, 73, 58
1, 114478, Note_on_c, 0, 73, 0
1, 114480, Note_on_c, 0, 69, 46
1, 114538, Note_on_c, 0, 69, 0
1, 114540, Note_on_c, 0, 85, 78
1, 114598, Note_on_c, 0, 85, 0
1, 114600, Note_on_c, 0, 81, 68
1, 114658, Note_on_c, 0, 81, 0
1, 114660, Note_on_c, 0, 76, 55
1, 114718, Note_on_c, 0, 76, 0
1, 114720, Note_on_c, 0, 86, 81
1, 114778, Note_on_c, 0, 86, 0
1, 114780, Note_on_c, 0, 80, 68
1, 114838, Note_on_c, 0, 80, 0
1, 114840, Note_on_c, 0, 77, 50
1, 114898, Note_on_c, 0, 77, 0
1, 114900, Note_on_c, 0, 74, 48
1, 114958, Note_on_c, 0, 74, 0
1, 114960, Note_on_c, 0, 71, 67
1, 115018, Note_on_c, 0, 71, 0
1, 115020, Note_on_c, 0, 86, 77
1, 115078, Note_on_c, 0, 86, 0
1, 115080, Note_on_c, 0, 80, 67
1, 115138, Note_on_c, 0, 80, 0
1, 115140, Note_on_c, 0, 77, 55
1, 115198, Note_on_c, 0, 77, 0
1, 115200, Note_on_c, 0, 85, 72
1, 115258, Note_on_c, 0, 85, 0
1, 115260, Note_on_c, 0, 81, 72
1, 115318, Note_on_c, 0, 81, 0
1, 115320, Note_on_c, 0, 76, 61
1, 115378, Note_on_c, 0, 76, 0
1, 115380, Note_on_c, 0, 73, 66
1, 115438, Note_on_c, 0, 73, 0
1, 115440, Note_on_c, 0, 69, 67
1, 115498, Note_on_c, 0, 69, 0
1, 115500, Note_on_c, 0, 88, 76
1, 115558, Note_on_c, 0, 88, 0
1, 115560, Note_on_c, 0, 85, 62
1, 115618, Note_on_c, 0, 85, 0
1, 115620, Note_on_c, 0, 81, 62
1, 115678, Note_on_c, 0, 81, 0
1, 115680, Note_on_c, 0, 85, 73
1, 115738, Note_on_c, 0, 85, 0
1, 115740, Note_on_c, 0, 81, 60
1, 115798, Note_on_c, 0, 81, 0
1, 115800, Note_on_c, 0, 76, 56
1, 115858, Note_on_c, 0, 76, 0
1, 115860, Note_on_c, 0, 73, 37
1, 115918, Note_on_c, 0, 73, 0
1, 115920, Note_on_c, 0, 69, 61
1, 115978, Note_on_c, 0, 69, 0
1, 115980, Note_on_c, 0, 85, 65
1, 116038, Note_on_c, 0, 85, 0
1, 116040, Note_on_c, 0, 81, 74
1, 116098, Note_on_c, 0, 81, 0
1, 116100, Note_on_c, 0, 76, 52
1, 116158, Note_on_c, 0, 76, 0
1, 116160, Note_on_c, 0, 82, 76
1, 116218, Note_on_c, 0, 82, 0
1, 116220, Note_on_c, 0, 79, 46
1, 116278, Note_on_c, 0, 79, 0
1, 116280, Note_on_c, 0, 76, 46
1, 116338, Note_on_c, 0, 76, 0
1, 116340, Note_on_c, 0, 73, 46
1, 116398, Note_on_c, 0, 73, 0
1, 116400, Note_on_c, 0, 81, 76
1, 116458, Note_on_c, 0, 81, 0
1, 116460, Note_on_c, 0, 78, 62
1, 116518, Note_on_c, 0, 78, 0
1, 116520, Note_on_c, 0, 75, 46
1, 116578, Note_on_c, 0, 75, 0
1, 116580, Note_on_c, 0, 72, 60
1, 116638, Note_on_c, 0, 72, 0
1, 116640, Note_on_c, 0, 80, 78
1, 116698, Note_on_c, 0, 80, 0
1, 116700, Note_on_c, 0, 77, 70
1, 116758, Note_on_c, 0, 77, 0
1, 116760, Note_on_c, 0, 74, 60
1, 116818, Note_on_c, 0, 74, 0
1, 116820, Note_on_c, 0, 71, 57
1, 116878, Note_on_c, 0, 71, 0
1, 116880, Note_on_c, 0, 79, 81
1, 116938, Note_on_c, 0, 79, 0
1, 116940, Note_on_c, 0, 76, 67
1, 116998, Note_on_c, 0, 76, 0
1, 117000, Note_on_c, 0, 73, 42
1, 117058, Note_on_c, 0, 73, 0
1, 117060, Note_on_c, 0, 70, 51
1, 117118, Note_on_c, 0, 70, 0
1, 117120, Note_on_c, 0, 77, 72
1, 117178, Note_on_c, 0, 77, 0
1, 117180, Note_on_c, 0, 74, 68
1, 117238, Note_on_c, 0, 74, 0
1, 117240, Note_on_c, 0, 71, 61
1, 117298, Note_on_c, 0, 71, 0
1, 117300, Note_on_c, 0, 68, 68
1, 117358, Note_on_c, 0, 68, 0
1, 117360, Note_on_c, 0, 56, 68
1, 117418, Note_on_c, 0, 56, 0
1, 117420, Note_on_c, 0, 71, 58
1, 117478, Note_on_c, 0, 71, 0
1, 117480, Note_on_c, 0, 74, 65
1, 117538, Note_on_c, 0, 74, 0
1, 117540, Note_on_c, 0, 77, 45
1, 117598, Note_on_c, 0, 77, 0
1, 117600, Note_on_c, 0, 57, 57
1, 117600, Note_on_c, 0, 62, 67
1, 117660, Note_on_c, 0, 69, 55
1, 117718, Note_on_c, 0, 69, 0
1, 117720, Note_on_c, 0, 74, 72
1, 117778, Note_on_c, 0, 74, 0
1, 117780, Note_on_c, 0, 77, 63
1, 117838, Note_on_c, 0, 57, 0
1, 117838, Note_on_c, 0, 62, 0
1, 117838, Note_on_c, 0, 77, 0
1, 117840, Note_on_c, 0, 61, 63
1, 117840, Note_on_c, 0, 57, 68
1, 117900, Note_on_c, 0, 67, 67
1, 117958, Note_on_c, 0, 67, 0
1, 117960, Note_on_c, 0, 73, 62
1, 118018, Note_on_c, 0, 73, 0
1, 118020, Note_on_c, 0, 76, 72
1, 118078, Note_on_c, 0, 61, 0
1, 118078, Note_on_c, 0, 57, 0
1, 118078, Note_on_c, 0, 76, 0
1, 118080, Note_on_c, 0, 73, 66
1, 118138, Note_on_c, 0, 73, 0
1, 118140, Note_on_c, 0, 76, 60
1, 118198, Note_on_c, 0, 76, 0
1, 118200, Note_on_c, 0, 79, 66
1, 118258, Note_on_c, 0, 79, 0
1, 118260, Note_on_c, 0, 82, 71
1, 118318, Note_on_c, 0, 82, 0
1, 118320, Note_on_c, 0, 72, 74
1, 118378, Note_on_c, 0, 72, 0
1, 118380, Note_on_c, 0, 75, 55
1, 118438, Note_on_c, 0, 75, 0
1, 118440, Note_on_c, 0, 78, 45
1, 118498, Note_on_c, 0, 78, 0
1, 118500, Note_on_c, 0, 81, 68
1, 118558, Note_on_c, 0, 81, 0
1, 118560, Note_on_c, 0, 71, 77
1, 118618, Note_on_c, 0, 71, 0
1, 118620, Note_on_c, 0, 74, 67
1, 118678, Note_on_c, 0, 74, 0
1, 118680, Note_on_c, 0, 77, 62
1, 118738, Note_on_c, 0, 77, 0
1, 118740, Note_on_c, 0, 80, 74
1, 118798, Note_on_c, 0, 80, 0
1, 118800, Note_on_c, 0, 70, 67
1, 118858, Note_on_c, 0, 70, 0
1, 118860, Note_on_c, 0, 73, 56
1, 118918, Note_on_c, 0, 73, 0
1, 118920, Note_on_c, 0, 76, 72
1, 118978, Note_on_c, 0, 76, 0
1, 118980, Note_on_c, 0, 79, 65
1, 119038, Note_on_c, 0, 79, 0
1, 119040, Note_on_c, 0, 68, 77
1, 119098, Note_on_c, 0, 68, 0
1, 119100, Note_on_c, 0, 71, 62
1, 119158, Note_on_c, 0, 71, 0
1, 119160, Note_on_c, 0, 74, 45
1, 119218, Note_on_c, 0, 74, 0
1, 119220, Note_on_c, 0, 77, 70
1, 119278, Note_on_c, 0, 77, 0
1, 119280, Note_on_c, 0, 56, 73
1, 119338, Note_on_c, 0, 56, 0
1, 119340, Note_on_c, 0, 71, 56
1, 119398, Note_on_c, 0, 71, 0
1, 119400, Note_on_c, 0, 74, 56
1, 119458, Note_on_c, 0, 74, 0
1, 119460, Note_on_c, 0, 77, 55
1, 119518, Note_on_c, 0, 77, 0
1, 119520, Note_on_c, 0, 57, 67
1, 119520, Note_on_c, 0, 62, 71
1, 119580, Note_on_c, 0, 69, 65
1, 119638, Note_on_c, 0, 69, 0
1, 119640, Note_on_c, 0, 74, 70
1, 119698, Note_on_c, 0, 74, 0
1, 119700, Note_on_c, 0, 77, 46
1, 119758, Note_on_c, 0, 57, 0
1, 119758, Note_on_c, 0, 62, 0
1, 119758, Note_on_c, 0, 77, 0
1, 119760, Note_on_c, 0, 61, 58
1, 119760, Note_on_c, 0, 57, 62
1, 119820, Note_on_c, 0, 67, 67
1, 119878, Note_on_c, 0, 67, 0
1, 119880, Note_on_c, 0, 73, 63
1, 119938, Note_on_c, 0, 73, 0
1, 119940, Note_on_c, 0, 76, 68
1, 119998, Note_on_c, 0, 61, 0
1, 119998, Note_on_c, 0, 57, 0
1, 119998, Note_on_c, 0, 76, 0
1, 120000, Note_on_c, 0, 74, 77
1, 120000, Note_on_c, 1, 50, 78
1, 120058, Note_on_c, 1, 50, 0
1, 120060, Note_on_c, 1, 62, 58
1, 120118, Note_on_c, 0, 74, 0
1, 120118, Note_on_c, 1, 62, 0
1, 120120, Note_on_c, 1, 61, 68
1, 120178, Note_on_c, 1, 61, 0
1, 120180, Note_on_c, 1, 62, 67
1, 120238, Note_on_c, 1, 62, 0
1, 120240, Note_on_c, 1, 50, 74
1, 120298, Note_on_c, 1, 50, 0
1, 120300, Note_on_c, 1, 62, 67
1, 120358, Note_on_c, 1, 62, 0
1, 120360, Note_on_c, 1, 61, 74
1, 120418, Note_on_c, 1, 61, 0
1, 120420, Note_on_c, 1, 62, 63
1, 120478, Note_on_c, 1, 62, 0
1, 120480, Note_on_c, 0, 75, 84
1, 120480, Note_on_c, 0, 66, 75
1, 120480, Note_on_c, 0, 72, 86
1, 120480, Note_on_c, 1, 50, 81
1, 120538, Note_on_c, 1, 50, 0
1, 120540, Note_on_c, 1, 62, 66
1, 120598, Note_on_c, 1, 62, 0
1, 120600, Note_on_c, 1, 61, 72
1, 120658, Note_on_c, 1, 61, 0
1, 120660, Note_on_c, 1, 62, 66
1, 120718, Note_on_c, 1, 62, 0
1, 120720, Note_on_c, 1, 50, 76
1, 120778, Note_on_c, 1, 50, 0
1, 120780, Note_on_c, 1, 62, 51
1, 120838, Note_on_c, 1, 62, 0
1, 120840, Note_on_c, 1, 61, 60
1, 120898, Note_on_c, 1, 61, 0
1, 120900, Note_on_c, 1, 62, 67
1, 120958, Note_on_c, 0, 75, 0
1, 120958, Note_on_c, 0, 66, 0
1, 120958, Note_on_c, 0, 72, 0
1, 120958, Note_on_c, 1, 62, 0
1, 120960, Note_on_c, 0, 70, 58
1, 120960, Note_on_c, 0, 74, 67
1, 120960, Note_on_c, 0, 67, 65
1, 120960, Note_on_c, 1, 50, 83
1, 121018, Note_on_c, 1, 50, 0
1, 121020, Note_on_c, 1, 62, 71
1, 121078, Note_on_c, 0, 70, 0
1, 121078, Note_on_c, 0, 74, 0
1, 121078, Note_on_c, 0, 67, 0
1, 121078, Note_on_c, 1, 62, 0
1, 121080, Note_on_c, 1, 61, 52
1, 121138, Note_on_c, 1, 61, 0
1, 121140, Note_on_c, 1, 62, 72
1, 121198, Note_on_c, 1, 62, 0
1, 121200, Note_on_c, 0, 82, 76
1, 121200, Note_on_c, 0, 79, 71
1, 121200, Note_on_c, 1, 50, 77
1, 121258, Note_on_c, 1, 50, 0
1, 121260, Note_on_c, 1, 62, 55
1, 121318, Note_on_c, 0, 82, 0
1, 121318, Note_on_c, 0, 79, 0
1, 121318, Note_on_c, 1, 62, 0
1, 121320, Note_on_c, 1, 61, 62
1, 121378, Note_on_c, 1, 61, 0
1, 121380, Note_on_c, 1, 62, 68
1, 121438, Note_on_c, 1, 62, 0
1, 121440, Note_on_c, 0, 66, 75
1, 121440, Note_on_c, 0, 72, 86
1, 121440, Note_on_c, 0, 69, 79
1, 121440, Note_on_c, 1, 50, 73
1, 121498, Note_on_c, 1, 50, 0
1, 121500, Note_on_c, 1, 62, 66
1, 121558, Note_on_c, 1, 62, 0
1, 121560, Note_on_c, 1, 61, 65
1, 121618, Note_on_c, 1, 61, 0
1, 121620, Note_on_c, 1, 62, 76
1, 121678, Note_on_c, 1, 62, 0
1, 121680, Note_on_c, 1, 50, 78
1, 121738, Note_on_c, 1, 50, 0
1, 121740, Note_on_c, 1, 62, 62
1, 121798, Note_on_c, 1, 62, 0
1, 121800, Note_on_c, 1, 61, 55
1, 121858, Note_on_c, 1, 61, 0
1, 121860, Note_on_c, 1, 62, 65
1, 121918, Note_on_c, 0, 66, 0
1, 121918, Note_on_c, 0, 72, 0
1, 121918, Note_on_c, 0, 69, 0
1, 121918, Note_on_c, 1, 62, 0
1, 121920, Note_on_c, 0, 70, 65
1, 121920, Note_on_c, 1, 55, 74
1, 121978, Note_on_c, 0, 70, 0
1, 121980, Note_on_c, 0, 67, 57
1, 122038, Note_on_c, 0, 67, 0
1, 122040, Note_on_c, 0, 69, 63
1, 122098, Note_on_c, 0, 69, 0
1, 122100, Note_on_c, 0, 70, 74
1, 122158, Note_on_c, 0, 70, 0
1, 122160, Note_on_c, 0, 72, 68
1, 122218, Note_on_c, 0, 72, 0
1, 122220, Note_on_c, 0, 74, 57
1, 122278, Note_on_c, 0, 74, 0
1, 122280, Note_on_c, 0, 76, 66
1, 122338, Note_on_c, 0, 76, 0
1, 122340, Note_on_c, 0, 78, 76
1, 122398, Note_on_c, 0, 78, 0
1, 122398, Note_on_c, 1, 55, 0
1, 122400, Note_on_c, 0, 79, 78
1, 122458, Note_on_c, 0, 79, 0
1, 122460, Note_on_c, 0, 81, 81
1, 122518, Note_on_c, 0, 81, 0
1, 122520, Note_on_c, 0, 82, 89
1, 122578, Note_on_c, 0, 82, 0
1, 122580, Note_on_c, 0, 81, 72
1, 122638, Note_on_c, 0, 81, 0
1, 122640, Note_on_c, 0, 79, 65
1, 122698, Note_on_c, 0, 79, 0
1, 122700, Note_on_c, 0, 77, 68
1, 122758, Note_on_c, 0, 77, 0
1, 122760, Note_on_c, 0, 76, 52
1, 122818, Note_on_c, 0, 76, 0
1, 122820, Note_on_c, 0, 74, 65
1, 122878, Note_on_c, 0, 74, 0
1, 122880, Note_on_c, 0, 72, 67
1, 122880, Note_on_c, 1, 48, 70
1, 122938, Note_on_c, 1, 48, 0
1, 122940, Note_on_c, 1, 60, 67
1, 122998, Note_on_c, 0, 72, 0
1, 122998, Note_on_c, 1, 60, 0
1, 123000, Note_on_c, 1, 59, 56
1, 123058, Note_on_c, 1, 59, 0
1, 123060, Note_on_c, 1, 60, 45
1, 123118, Note_on_c, 1, 60, 0
1, 123120, Note_on_c, 1, 48, 71
1, 123178, Note_on_c, 1, 48, 0
1, 123180, Note_on_c, 1, 60, 61
1, 123238, Note_on_c, 1, 60, 0
1, 123240, Note_on_c, 1, 59, 57
1, 123298, Note_on_c, 1, 59, 0
1, 123300, Note_on_c, 1, 60, 61
1, 123358, Note_on_c, 1, 60, 0
1, 123360, Note_on_c, 0, 73, 91
1, 123360, Note_on_c, 0, 70, 86
1, 123360, Note_on_c, 0, 64, 86
1, 123360, Note_on_c, 1, 48, 66
1, 123418, Note_on_c, 1, 48, 0
1, 123420, Note_on_c, 1, 60, 68
1, 123478, Note_on_c, 1, 60, 0
1, 123480, Note_on_c, 1, 59, 67
1, 123538, Note_on_c, 1, 59, 0
1, 123540, Note_on_c, 1, 60, 65
1, 123598, Note_on_c, 1, 60, 0
1, 123600, Note_on_c, 1, 48, 66
1, 123658, Note_on_c, 1, 48, 0
1, 123660, Note_on_c, 1, 60, 67
1, 123718, Note_on_c, 1, 60, 0
1, 123720, Note_on_c, 1, 59, 52
1, 123778, Note_on_c, 1, 59, 0
1, 123780, Note_on_c, 1, 60, 66
1, 123838, Note_on_c, 0, 73, 0
1, 123838, Note_on_c, 0, 70, 0
1, 123838, Note_on_c, 0, 64, 0
1, 123838, Note_on_c, 1, 60, 0
1, 123840, Note_on_c, 0, 72, 67
1, 123840, Note_on_c, 0, 69, 61
1, 123840, Note_on_c, 0, 65, 61
1, 123840, Note_on_c, 1, 48, 66
1, 123898, Note_on_c, 1, 48, 0
1, 123900, Note_on_c, 1, 60, 66
1, 123958, Note_on_c, 0, 72, 0
1, 123958, Note_on_c, 0, 69, 0
1, 123958, Note_on_c, 0, 65, 0
1, 123958, Note_on_c, 1, 60, 0
1, 123960, Note_on_c, 1, 59, 52
1, 124018, Note_on_c, 1, 59, 0
1, 124020, Note_on_c, 1, 60, 66
1, 124078, Note_on_c, 1, 60, 0
1, 124080, Note_on_c, 0, 81, 76
1, 124080, Note_on_c, 0, 77, 72
1, 124080, Note_on_c, 1, 48, 67
1, 124138, Note_on_c, 1, 48, 0
1, 124140, Note_on_c, 1, 60, 63
1, 124198, Note_on_c, 0, 81, 0
1, 124198, Note_on_c, 0, 77, 0
1, 124198, Note_on_c, 1, 60, 0
1, 124200, Note_on_c, 1, 59, 52
1, 124258, Note_on_c, 1, 59, 0
1, 124260, Note_on_c, 1, 60, 63
1, 124318, Note_on_c, 1, 60, 0
1, 124320, Note_on_c, 0, 64, 83
1, 124320, Note_on_c, 0, 70, 75
1, 124320, Note_on_c, 0, 67, 77
1, 124320, Note_on_c, 1, 48, 71
1, 124378, Note_on_c, 1, 48, 0
1, 124380, Note_on_c, 1, 60, 63
1, 124438, Note_on_c, 1, 60, 0
1, 124440, Note_on_c, 1, 59, 52
1, 124498, Note_on_c, 1, 59, 0
1, 124500, Note_on_c, 1, 60, 65
1, 124558, Note_on_c, 1, 60, 0
1, 124560, Note_on_c, 1, 48, 66
1, 124618, Note_on_c, 1, 48, 0
1, 124620, Note_on_c, 1, 60, 66
1, 124678, Note_on_c, 1, 60, 0
1, 124680, Note_on_c, 1, 59, 52
1, 124738, Note_on_c, 1, 59, 0
1, 124740, Note_on_c, 1, 60, 67
1, 124798, Note_on_c, 0, 64, 0
1, 124798, Note_on_c, 0, 70, 0
1, 124798, Note_on_c, 0, 67, 0
1, 124798, Note_on_c, 1, 60, 0
1, 124800, Note_on_c, 0, 65, 68
1, 124800, Note_on_c, 0, 69, 63
1, 124800, Note_on_c, 1, 48, 79
1, 124858, Note_on_c, 1, 48, 0
1, 124860, Note_on_c, 1, 60, 70
1, 124918, Note_on_c, 1, 60, 0
1, 124920, Note_on_c, 1, 59, 55
1, 124978, Note_on_c, 1, 59, 0
1, 124980, Note_on_c, 1, 60, 66
1, 125038, Note_on_c, 0, 65, 0
1, 125038, Note_on_c, 0, 69, 0
1, 125038, Note_on_c, 1, 60, 0
1, 125040, Note_on_c, 0, 77, 73
1, 125040, Note_on_c, 1, 48, 74
1, 125098, Note_on_c, 1, 48, 0
1, 125100, Note_on_c, 1, 60, 65
1, 125158, Note_on_c, 0, 77, 0
1, 125158, Note_on_c, 1, 60, 0
1, 125160, Note_on_c, 1, 59, 53
1, 125218, Note_on_c, 1, 59, 0
1, 125220, Note_on_c, 1, 60, 67
1, 125278, Note_on_c, 1, 60, 0
1, 125280, Note_on_c, 0, 65, 80
1, 125280, Note_on_c, 0, 71, 83
1, 125280, Note_on_c, 0, 62, 75
1, 125280, Note_on_c, 1, 48, 74
1, 125338, Note_on_c, 1, 48, 0
1, 125340, Note_on_c, 1, 60, 73
1, 125398, Note_on_c, 1, 60, 0
1, 125400, Note_on_c, 1, 59, 55
1, 125458, Note_on_c, 1, 59, 0
1, 125460, Note_on_c, 1, 60, 63
1, 125518, Note_on_c, 1, 60, 0
1, 125520, Note_on_c, 1, 48, 74
1, 125578, Note_on_c, 1, 48, 0
1, 125580, Note_on_c, 1, 60, 67
1, 125638, Note_on_c, 1, 60, 0
1, 125640, Note_on_c, 1, 59, 42
1, 125698, Note_on_c, 1, 59, 0
1, 125700, Note_on_c, 1, 60, 65
1, 125758, Note_on_c, 0, 65, 0
1, 125758, Note_on_c, 0, 71, 0
1, 125758, Note_on_c, 0, 62, 0
1, 125758, Note_on_c, 1, 60, 0
1, 125760, Note_on_c, 0, 72, 78
1, 125760, Note_on_c, 0, 67, 70
1, 125760, Note_on_c, 0, 64, 62
1, 125760, Note_on_c, 1, 48, 71
1, 125998, Note_on_c, 0, 72, 0
1, 125998, Note_on_c, 0, 67, 0
1, 125998, Note_on_c, 0, 64, 0
1, 126000, Note_on_c, 1, 48, 0
1, 126120, Note_on_c, 0, 60, 65
1, 126178, Note_on_c, 0, 60, 0
1, 126180, Note_on_c, 0, 64, 71
1, 126238, Note_on_c, 0, 64, 0
1, 126240, Note_on_c, 0, 67, 72
1, 126298, Note_on_c, 0, 67, 0
1, 126360, Note_on_c, 0, 64, 56
1, 126418, Note_on_c, 0, 64, 0
1, 126420, Note_on_c, 0, 67, 63
1, 126478, Note_on_c, 0, 67, 0
1, 126480, Note_on_c, 0, 70, 76
1, 126538, Note_on_c, 0, 70, 0
1, 126600, Note_on_c, 0, 67, 67
1, 126658, Note_on_c, 0, 67, 0
1, 126660, Note_on_c, 0, 70, 67
1, 126718, Note_on_c, 0, 70, 0
1, 126720, Note_on_c, 0, 76, 71
1, 126720, Note_on_c, 1, 36, 77
1, 126720, Note_on_c, 1, 48, 62
1, 126958, Note_on_c, 0, 76, 0
1, 126958, Note_on_c, 1, 36, 0
1, 126958, Note_on_c, 1, 48, 0
1, 127080, Note_on_c, 0, 86, 68
1, 127080, Note_on_c, 1, 58, 55
1, 127138, Note_on_c, 0, 86, 0
1, 127138, Note_on_c, 1, 58, 0
1, 127140, Note_on_c, 0, 82, 61
1, 127140, Note_on_c, 1, 60, 56
1, 127198, Note_on_c, 0, 82, 0
1, 127198, Note_on_c, 1, 60, 0
1, 127200, Note_on_c, 0, 79, 71
1, 127200, Note_on_c, 1, 64, 67
1, 127258, Note_on_c, 0, 79, 0
1, 127258, Note_on_c, 1, 64, 0
1, 127320, Note_on_c, 0, 82, 53
1, 127320, Note_on_c, 1, 60, 68
1, 127378, Note_on_c, 0, 82, 0
1, 127378, Note_on_c, 1, 60, 0
1, 127380, Note_on_c, 0, 79, 65
1, 127380, Note_on_c, 1, 64, 57
1, 127438, Note_on_c, 0, 79, 0
1, 127438, Note_on_c, 1, 64, 0
1, 127440, Note_on_c, 0, 76, 63
1, 127440, Note_on_c, 1, 67, 31
1, 127498, Note_on_c, 0, 76, 0
1, 127498, Note_on_c, 1, 67, 0
1, 127560, Note_on_c, 0, 79, 58
1, 127560, Note_on_c, 1, 64, 58
1, 127618, Note_on_c, 0, 79, 0
1, 127618, Note_on_c, 1, 64, 0
1, 127620, Note_on_c, 0, 76, 63
1, 127620, Note_on_c, 1, 67, 77
1, 127678, Note_on_c, 0, 76, 0
1, 127678, Note_on_c, 1, 67, 0
1, 127680, Note_on_c, 0, 72, 57
1, 127680, Note_on_c, 1, 70, 62
1, 127798, Note_on_c, 0, 72, 0
1, 127798, Note_on_c, 1, 70, 0
1, 128400, Note_on_c, 0, 72, 74
1, 128578, Note_on_c, 0, 72, 0
1, 128580, Note_on_c, 0, 69, 74
1, 128638, Note_on_c, 0, 69, 0
1, 128640, Note_on_c, 0, 65, 68
1, 128640, Note_on_c, 1, 57, 57
1, 128640, Note_on_c, 1, 53, 56
1, 128701, Note_on_c, 1, 57, 0
1, 128701, Note_on_c, 1, 53, 0
1, 128710, Note_on_c, 0, 65, 0
1, 128880, Note_on_c, 0, 69, 66
1, 129058, Note_on_c, 0, 69, 0
1, 129060, Note_on_c, 0, 65, 66
1, 129118, Note_on_c, 0, 65, 0
1, 129120, Note_on_c, 0, 64, 60
1, 129120, Note_on_c, 1, 48, 63
1, 129120, Note_on_c, 1, 58, 52
1, 129181, Note_on_c, 1, 48, 0
1, 129181, Note_on_c, 1, 58, 0
1, 129190, Note_on_c, 0, 64, 0
1, 129360, Note_on_c, 0, 67, 73
1, 129538, Note_on_c, 0, 67, 0
1, 129540, Note_on_c, 0, 64, 52
1, 129598, Note_on_c, 0, 64, 0
1, 129600, Note_on_c, 0, 65, 68
1, 129600, Note_on_c, 1, 57, 56
1, 129600, Note_on_c, 1, 53, 48
1, 129661, Note_on_c, 1, 57, 0
1, 129661, Note_on_c, 1, 53, 0
1, 129670, Note_on_c, 0, 65, 0
1, 129840, Note_on_c, 0, 70, 67
1, 129840, Note_on_c, 0, 74, 76
1, 130078, Note_on_c, 0, 70, 0
1, 130078, Note_on_c, 0, 74, 0
1, 130080, Note_on_c, 0, 69, 56
1, 130080, Note_on_c, 0, 72, 61
1, 130198, Note_on_c, 0, 69, 0
1, 130198, Note_on_c, 0, 72, 0
1, 130320, Note_on_c, 0, 79, 77
1, 130378, Note_on_c, 0, 79, 0
1, 130380, Note_on_c, 0, 77, 73
1, 130438, Note_on_c, 0, 77, 0
1, 130440, Note_on_c, 0, 76, 65
1, 130498, Note_on_c, 0, 76, 0
1, 130500, Note_on_c, 0, 74, 71
1, 130558, Note_on_c, 0, 74, 0
1, 130560, Note_on_c, 0, 72, 65
1, 130798, Note_on_c, 0, 72, 0
1, 130800, Note_on_c, 0, 81, 74
1, 130800, Note_on_c, 1, 65, 65
1, 130878, Note_on_c, 0, 81, 0
1, 130880, Note_on_c, 0, 69, 58
1, 130958, Note_on_c, 0, 69, 0
1, 130960, Note_on_c, 0, 74, 65
1, 131038, Note_on_c, 0, 74, 0
1, 131038, Note_on_c, 1, 65, 0
1, 131040, Note_on_c, 0, 72, 68
1, 131040, Note_on_c, 1, 67, 63
1, 131278, Note_on_c, 0, 72, 0
1, 131278, Note_on_c, 1, 67, 0
1, 131280, Note_on_c, 0, 70, 63
1, 131280, Note_on_c, 1, 60, 65
1, 131306, Note_on_c, 0, 70, 0
1, 131328, Note_on_c, 0, 72, 66
1, 131354, Note_on_c, 0, 72, 0
1, 131376, Note_on_c, 0, 70, 60
1, 131402, Note_on_c, 0, 70, 0
1, 131424, Note_on_c, 0, 69, 78
1, 131450, Note_on_c, 0, 69, 0
1, 131472, Note_on_c, 0, 70, 71
1, 131498, Note_on_c, 0, 70, 0
1, 131518, Note_on_c, 1, 60, 0
1, 131520, Note_on_c, 0, 70, 63
1, 131520, Note_on_c, 1, 65, 62
1, 131758, Note_on_c, 1, 65, 0
1, 131760, Note_on_c, 1, 60, 55
1, 131998, Note_on_c, 0, 70, 0
1, 131998, Note_on_c, 1, 60, 0
1, 132000, Note_on_c, 0, 69, 55
1, 132000, Note_on_c, 1, 53, 63
1, 132118, Note_on_c, 0, 69, 0
1, 132118, Note_on_c, 1, 53, 0
1, 132240, Note_on_c, 0, 72, 66
1, 132298, Note_on_c, 0, 72, 0
1, 132300, Note_on_c, 0, 69, 74
1, 132358, Note_on_c, 0, 69, 0
1, 132360, Note_on_c, 0, 72, 66
1, 132418, Note_on_c, 0, 72, 0
1, 132420, Note_on_c, 0, 69, 79
1, 132478, Note_on_c, 0, 69, 0
1, 132480, Note_on_c, 0, 65, 68
1, 132480, Note_on_c, 1, 53, 56
1, 132480, Note_on_c, 1, 57, 57
1, 132538, Note_on_c, 0, 65, 0
1, 132541, Note_on_c, 1, 53, 0
1, 132541, Note_on_c, 1, 57, 0
1, 132720, Note_on_c, 0, 70, 61
1, 132778, Note_on_c, 0, 70, 0
1, 132780, Note_on_c, 0, 69, 68
1, 132838, Note_on_c, 0, 69, 0
1, 132840, Note_on_c, 0, 67, 68
1, 132898, Note_on_c, 0, 67, 0
1, 132900, Note_on_c, 0, 65, 65
1, 132958, Note_on_c, 0, 65, 0
1, 132960, Note_on_c, 0, 64, 68
1, 132960, Note_on_c, 1, 58, 52
1, 132960, Note_on_c, 1, 48, 63
1, 133018, Note_on_c, 0, 64, 0
1, 133021, Note_on_c, 1, 58, 0
1, 133021, Note_on_c, 1, 48, 0
1, 133200, Note_on_c, 0, 69, 72
1, 133258, Note_on_c, 0, 69, 0
1, 133260, Note_on_c, 0, 67, 76
1, 133318, Note_on_c, 0, 67, 0
1, 133320, Note_on_c, 0, 65, 71
1, 133378, Note_on_c, 0, 65, 0
1, 133380, Note_on_c, 0, 64, 57
1, 133438, Note_on_c, 0, 64, 0
1, 133440, Note_on_c, 0, 65, 76
1, 133440, Note_on_c, 1, 53, 48
1, 133440, Note_on_c, 1, 57, 56
1, 133498, Note_on_c, 0, 65, 0
1, 133501, Note_on_c, 1, 53, 0
1, 133501, Note_on_c, 1, 57, 0
1, 133560, Note_on_c, 0, 74, 67
1, 133618, Note_on_c, 0, 74, 0
1, 133620, Note_on_c, 0, 76, 74
1, 133678, Note_on_c, 0, 76, 0
1, 133680, Note_on_c, 0, 79, 74
1, 133680, Note_on_c, 1, 70, 60
1, 133738, Note_on_c, 0, 79, 0
1, 133740, Note_on_c, 0, 77, 76
1, 133798, Note_on_c, 0, 77, 0
1, 133800, Note_on_c, 0, 76, 81
1, 133858, Note_on_c, 0, 76, 0
1, 133860, Note_on_c, 0, 74, 65
1, 133918, Note_on_c, 0, 74, 0
1, 133918, Note_on_c, 1, 70, 0
1, 133920, Note_on_c, 0, 72, 74
1, 133920, Note_on_c, 1, 69, 50
1, 134158, Note_on_c, 0, 72, 0
1, 134158, Note_on_c, 1, 69, 0
1, 134160, Note_on_c, 0, 84, 81
1, 134218, Note_on_c, 0, 84, 0
1, 134220, Note_on_c, 0, 81, 78
1, 134278, Note_on_c, 0, 81, 0
1, 134280, Note_on_c, 0, 77, 72
1, 134338, Note_on_c, 0, 77, 0
1, 134340, Note_on_c, 0, 72, 65
1, 134398, Note_on_c, 0, 72, 0
1, 134400, Note_on_c, 0, 69, 57
1, 134640, Note_on_c, 1, 65, 52
1, 134640, Note_on_c, 1, 60, 57
1, 134878, Note_on_c, 0, 69, 0
1, 134878, Note_on_c, 1, 65, 0
1, 134880, Note_on_c, 0, 70, 50
1, 134880, Note_on_c, 1, 67, 61
1, 134938, Note_on_c, 0, 70, 0
1, 135004, Note_on_c, 1, 67, 0
1, 135118, Note_on_c, 1, 60, 0
1, 135120, Note_on_c, 0, 82, 72
1, 135178, Note_on_c, 0, 82, 0
1, 135180, Note_on_c, 0, 79, 61
1, 135238, Note_on_c, 0, 79, 0
1, 135240, Note_on_c, 0, 76, 67
1, 135298, Note_on_c, 0, 76, 0
1, 135300, Note_on_c, 0, 72, 55
1, 135358, Note_on_c, 0, 72, 0
1, 135360, Note_on_c, 0, 70, 55
1, 135600, Note_on_c, 1, 60, 31
1, 135600, Note_on_c, 1, 64, 55
1, 135838, Note_on_c, 0, 70, 0
1, 135838, Note_on_c, 1, 60, 0
1, 135838, Note_on_c, 1, 64, 0
1, 135840, Note_on_c, 0, 69, 52
1, 135840, Note_on_c, 1, 62, 45
1, 135840, Note_on_c, 1, 65, 65
1, 135898, Note_on_c, 0, 69, 0
1, 135964, Note_on_c, 1, 62, 0
1, 135964, Note_on_c, 1, 65, 0
1, 136080, Note_on_c, 0, 77, 73
1, 136138, Note_on_c, 0, 77, 0
1, 136140, Note_on_c, 0, 72, 74
1, 136198, Note_on_c, 0, 72, 0
1, 136200, Note_on_c, 0, 69, 74
1, 136258, Note_on_c, 0, 69, 0
1, 136260, Note_on_c, 0, 65, 76
1, 136318, Note_on_c, 0, 65, 0
1, 136320, Note_on_c, 0, 63, 68
1, 136560, Note_on_c, 1, 53, 50
1, 136560, Note_on_c, 1, 57, 48
1, 136798, Note_on_c, 1, 53, 0
1, 136798, Note_on_c, 1, 57, 0
1, 136800, Note_on_c, 1, 55, 66
1, 136800, Note_on_c, 1, 58, 66
1, 137038, Note_on_c, 1, 55, 0
1, 137038, Note_on_c, 1, 58, 0
1, 137040, Note_on_c, 1, 57, 66
1, 137040, Note_on_c, 1, 60, 77
1, 137278, Note_on_c, 1, 57, 0
1, 137278, Note_on_c, 1, 60, 0
1, 137280, Note_on_c, 1, 58, 68
1, 137398, Note_on_c, 0, 63, 0
1, 137400, Note_on_c, 0, 61, 68
1, 137518, Note_on_c, 0, 61, 0
1, 137520, Note_on_c, 0, 62, 68
1, 137638, Note_on_c, 0, 62, 0
1, 137640, Note_on_c, 0, 66, 74
1, 137758, Note_on_c, 0, 66, 0
1, 137758, Note_on_c, 1, 58, 0
1, 137760, Note_on_c, 0, 67, 77
1, 137878, Note_on_c, 0, 67, 0
1, 137880, Note_on_c, 0, 69, 71
1, 137998, Note_on_c, 0, 69, 0
1, 138000, Note_on_c, 0, 70, 76
1, 138118, Note_on_c, 0, 70, 0
1, 138120, Note_on_c, 0, 74, 74
1, 138120, Note_on_c, 1, 46, 66
1, 138178, Note_on_c, 1, 46, 0
1, 138181, Note_on_c, 0, 74, 0
1, 138240, Note_on_c, 0, 65, 66
1, 138240, Note_on_c, 0, 69, 66
1, 138240, Note_on_c, 1, 48, 62
1, 138454, Note_on_c, 1, 48, 0
1, 138478, Note_on_c, 0, 65, 0
1, 138478, Note_on_c, 0, 69, 0
1, 138480, Note_on_c, 0, 64, 63
1, 138480, Note_on_c, 0, 67, 63
1, 138600, Note_on_c, 1, 55, 65
1, 138658, Note_on_c, 1, 55, 0
1, 138660, Note_on_c, 1, 52, 68
1, 138718, Note_on_c, 0, 64, 0
1, 138718, Note_on_c, 0, 67, 0
1, 138718, Note_on_c, 1, 52, 0
1, 138720, Note_on_c, 1, 48, 55
1, 138838, Note_on_c, 1, 48, 0
1, 138840, Note_on_c, 1, 62, 65
1, 138840, Note_on_c, 1, 58, 68
1, 138898, Note_on_c, 1, 62, 0
1, 138898, Note_on_c, 1, 58, 0
1, 138960, Note_on_c, 1, 60, 61
1, 138960, Note_on_c, 1, 57, 62
1, 139018, Note_on_c, 1, 60, 0
1, 139018, Note_on_c, 1, 57, 0
1, 139080, Note_on_c, 1, 58, 63
1, 139080, Note_on_c, 1, 55, 63
1, 139138, Note_on_c, 1, 58, 0
1, 139138, Note_on_c, 1, 55, 0
1, 139200, Note_on_c, 1, 57, 66
1, 139200, Note_on_c, 1, 53, 67
1, 139260, Note_on_c, 0, 72, 71
1, 139318, Note_on_c, 0, 72, 0
1, 139320, Note_on_c, 0, 74, 71
1, 139378, Note_on_c, 0, 74, 0
1, 139380, Note_on_c, 0, 72, 66
1, 139438, Note_on_c, 0, 72, 0
1, 139440, Note_on_c, 0, 77, 74
1, 139498, Note_on_c, 0, 77, 0
1, 139500, Note_on_c, 0, 76, 76
1, 139558, Note_on_c, 0, 76, 0
1, 139560, Note_on_c, 0, 74, 89
1, 139618, Note_on_c, 0, 74, 0
1, 139620, Note_on_c, 0, 72, 72
1, 139678, Note_on_c, 0, 72, 0
1, 139678, Note_on_c, 1, 57, 0
1, 139678, Note_on_c, 1, 53, 0
1, 139680, Note_on_c, 0, 70, 66
1, 139738, Note_on_c, 0, 70, 0
1, 139740, Note_on_c, 0, 69, 94
1, 139798, Note_on_c, 0, 69, 0
1, 139800, Note_on_c, 0, 67, 72
1, 139858, Note_on_c, 0, 67, 0
1, 139860, Note_on_c, 0, 65, 76
1, 139918, Note_on_c, 0, 65, 0
1, 139920, Note_on_c, 0, 64, 72
1, 139920, Note_on_c, 1, 57, 67
1, 139978, Note_on_c, 0, 64, 0
1, 139980, Note_on_c, 0, 65, 60
1, 140038, Note_on_c, 0, 65, 0
1, 140038, Note_on_c, 1, 57, 0
1, 140040, Note_on_c, 0, 67, 77
1, 140098, Note_on_c, 0, 67, 0
1, 140100, Note_on_c, 0, 65, 66
1, 140158, Note_on_c, 0, 65, 0
1, 140160, Note_on_c, 0, 62, 74
1, 140160, Note_on_c, 1, 58, 63
1, 140218, Note_on_c, 0, 62, 0
1, 140220, Note_on_c, 0, 65, 55
1, 140278, Note_on_c, 0, 65, 0
1, 140278, Note_on_c, 1, 58, 0
1, 140280, Note_on_c, 0, 67, 58
1, 140338, Note_on_c, 0, 67, 0
1, 140340, Note_on_c, 0, 65, 57
1, 140398, Note_on_c, 0, 65, 0
1, 140400, Note_on_c, 0, 60, 77
1, 140400, Note_on_c, 1, 57, 45
1, 140458, Note_on_c, 0, 60, 0
1, 140460, Note_on_c, 0, 65, 62
1, 140518, Note_on_c, 0, 65, 0
1, 140518, Note_on_c, 1, 57, 0
1, 140520, Note_on_c, 0, 67, 68
1, 140578, Note_on_c, 0, 67, 0
1, 140580, Note_on_c, 0, 65, 56
1, 140638, Note_on_c, 0, 65, 0
1, 140640, Note_on_c, 0, 58, 71
1, 140640, Note_on_c, 1, 55, 58
1, 140758, Note_on_c, 0, 58, 0
1, 140760, Note_on_c, 0, 70, 73
1, 140878, Note_on_c, 0, 70, 0
1, 140878, Note_on_c, 1, 55, 0
1, 140880, Note_on_c, 1, 48, 67
1, 140998, Note_on_c, 1, 48, 0
1, 141000, Note_on_c, 0, 70, 70
1, 141118, Note_on_c, 0, 70, 0
1, 141120, Note_on_c, 0, 69, 61
1, 141120, Note_on_c, 1, 53, 71
1, 141178, Note_on_c, 0, 69, 0
1, 141180, Note_on_c, 0, 72, 56
1, 141238, Note_on_c, 0, 72, 0
1, 141240, Note_on_c, 0, 74, 56
1, 141298, Note_on_c, 0, 74, 0
1, 141300, Note_on_c, 0, 72, 51
1, 141358, Note_on_c, 0, 72, 0
1, 141358, Note_on_c, 1, 53, 0
1, 141360, Note_on_c, 0, 77, 59
1, 141360, Note_on_c, 1, 57, 72
1, 141418, Note_on_c, 0, 77, 0
1, 141420, Note_on_c, 0, 76, 61
1, 141478, Note_on_c, 0, 76, 0
1, 141480, Note_on_c, 0, 74, 74
1, 141538, Note_on_c, 0, 74, 0
1, 141540, Note_on_c, 0, 72, 57
1, 141598, Note_on_c, 0, 72, 0
1, 141598, Note_on_c, 1, 57, 0
1, 141600, Note_on_c, 0, 70, 51
1, 141658, Note_on_c, 0, 70, 0
1, 141660, Note_on_c, 0, 69, 79
1, 141718, Note_on_c, 0, 69, 0
1, 141720, Note_on_c, 0, 67, 57
1, 141778, Note_on_c, 0, 67, 0
1, 141780, Note_on_c, 0, 65, 61
1, 141838, Note_on_c, 0, 65, 0
1, 141840, Note_on_c, 0, 64, 57
1, 141840, Note_on_c, 1, 57, 62
1, 141898, Note_on_c, 0, 64, 0
1, 141900, Note_on_c, 0, 65, 45
1, 141958, Note_on_c, 0, 65, 0
1, 141958, Note_on_c, 1, 57, 0
1, 141960, Note_on_c, 0, 67, 62
1, 142018, Note_on_c, 0, 67, 0
1, 142020, Note_on_c, 0, 65, 51
1, 142078, Note_on_c, 0, 65, 0
1, 142080, Note_on_c, 0, 62, 59
1, 142080, Note_on_c, 1, 58, 58
1, 142138, Note_on_c, 0, 62, 0
1, 142140, Note_on_c, 0, 65, 40
1, 142198, Note_on_c, 0, 65, 0
1, 142198, Note_on_c, 1, 58, 0
1, 142200, Note_on_c, 0, 67, 43
1, 142258, Note_on_c, 0, 67, 0
1, 142260, Note_on_c, 0, 65, 42
1, 142318, Note_on_c, 0, 65, 0
1, 142320, Note_on_c, 0, 60, 62
1, 142320, Note_on_c, 1, 57, 40
1, 142378, Note_on_c, 0, 60, 0
1, 142380, Note_on_c, 0, 65, 47
1, 142438, Note_on_c, 0, 65, 0
1, 142438, Note_on_c, 1, 57, 0
1, 142440, Note_on_c, 0, 67, 53
1, 142498, Note_on_c, 0, 67, 0
1, 142500, Note_on_c, 0, 65, 41
1, 142558, Note_on_c, 0, 65, 0
1, 142560, Note_on_c, 0, 58, 56
1, 142560, Note_on_c, 1, 55, 53
1, 142678, Note_on_c, 0, 58, 0
1, 142680, Note_on_c, 0, 70, 58
1, 142798, Note_on_c, 0, 70, 0
1, 142798, Note_on_c, 1, 55, 0
1, 142800, Note_on_c, 1, 48, 62
1, 142918, Note_on_c, 1, 48, 0
1, 142920, Note_on_c, 0, 70, 60
1, 143038, Note_on_c, 0, 70, 0
1, 143040, Note_on_c, 0, 69, 68
1, 143040, Note_on_c, 1, 53, 73
1, 143098, Note_on_c, 0, 69, 0
1, 143100, Note_on_c, 0, 74, 65
1, 143158, Note_on_c, 0, 74, 0
1, 143158, Note_on_c, 1, 53, 0
1, 143160, Note_on_c, 0, 76, 65
1, 143218, Note_on_c, 0, 76, 0
1, 143220, Note_on_c, 0, 74, 77
1, 143278, Note_on_c, 0, 74, 0
1, 143280, Note_on_c, 0, 81, 65
1, 143280, Note_on_c, 1, 65, 77
1, 143338, Note_on_c, 0, 81, 0
1, 143340, Note_on_c, 0, 77, 70
1, 143398, Note_on_c, 0, 77, 0
1, 143398, Note_on_c, 1, 65, 0
1, 143400, Note_on_c, 0, 76, 58
1, 143458, Note_on_c, 0, 76, 0
1, 143460, Note_on_c, 0, 74, 71
1, 143518, Note_on_c, 0, 74, 0
1, 143520, Note_on_c, 0, 79, 74
1, 143520, Note_on_c, 1, 64, 71
1, 143578, Note_on_c, 0, 79, 0
1, 143580, Note_on_c, 0, 76, 60
1, 143638, Note_on_c, 0, 76, 0
1, 143638, Note_on_c, 1, 64, 0
1, 143640, Note_on_c, 0, 74, 65
1, 143698, Note_on_c, 0, 74, 0
1, 143700, Note_on_c, 0, 72, 65
1, 143758, Note_on_c, 0, 72, 0
1, 143760, Note_on_c, 0, 71, 73
1, 143760, Note_on_c, 1, 52, 62
1, 143818, Note_on_c, 0, 71, 0
1, 143820, Note_on_c, 0, 72, 63
1, 143878, Note_on_c, 0, 72, 0
1, 143878, Note_on_c, 1, 52, 0
1, 143880, Note_on_c, 0, 71, 63
1, 143938, Note_on_c, 0, 71, 0
1, 143940, Note_on_c, 0, 72, 65
1, 143998, Note_on_c, 0, 72, 0
1, 144000, Note_on_c, 0, 65, 71
1, 144000, Note_on_c, 1, 50, 74
1, 144058, Note_on_c, 0, 65, 0
1, 144060, Note_on_c, 0, 70, 57
1, 144118, Note_on_c, 0, 70, 0
1, 144118, Note_on_c, 1, 50, 0
1, 144120, Note_on_c, 0, 72, 71
1, 144178, Note_on_c, 0, 72, 0
1, 144180, Note_on_c, 0, 70, 68
1, 144238, Note_on_c, 0, 70, 0
1, 144240, Note_on_c, 0, 77, 77
1, 144240, Note_on_c, 1, 62, 67
1, 144298, Note_on_c, 0, 77, 0
1, 144300, Note_on_c, 0, 74, 65
1, 144358, Note_on_c, 0, 74, 0
1, 144358, Note_on_c, 1, 62, 0
1, 144360, Note_on_c, 0, 72, 67
1, 144418, Note_on_c, 0, 72, 0
1, 144420, Note_on_c, 0, 70, 67
1, 144478, Note_on_c, 0, 70, 0
1, 144480, Note_on_c, 0, 76, 76
1, 144480, Note_on_c, 1, 60, 71
1, 144538, Note_on_c, 0, 76, 0
1, 144540, Note_on_c, 0, 72, 66
1, 144598, Note_on_c, 0, 72, 0
1, 144598, Note_on_c, 1, 60, 0
1, 144600, Note_on_c, 0, 70, 55
1, 144658, Note_on_c, 0, 70, 0
1, 144660, Note_on_c, 0, 69, 52
1, 144718, Note_on_c, 0, 69, 0
1, 144720, Note_on_c, 0, 68, 73
1, 144720, Note_on_c, 1, 48, 57
1, 144778, Note_on_c, 0, 68, 0
1, 144780, Note_on_c, 0, 69, 63
1, 144838, Note_on_c, 0, 69, 0
1, 144838, Note_on_c, 1, 48, 0
1, 144840, Note_on_c, 0, 68, 42
1, 144898, Note_on_c, 0, 68, 0
1, 144900, Note_on_c, 0, 69, 56
1, 144958, Note_on_c, 0, 69, 0
1, 144960, Note_on_c, 0, 62, 68
1, 144960, Note_on_c, 1, 46, 71
1, 145018, Note_on_c, 0, 62, 0
1, 145020, Note_on_c, 0, 67, 62
1, 145078, Note_on_c, 0, 67, 0
1, 145078, Note_on_c, 1, 46, 0
1, 145080, Note_on_c, 0, 69, 70
1, 145138, Note_on_c, 0, 69, 0
1, 145140, Note_on_c, 0, 67, 67
1, 145198, Note_on_c, 0, 67, 0
1, 145200, Note_on_c, 0, 74, 74
1, 145200, Note_on_c, 1, 58, 67
1, 145258, Note_on_c, 0, 74, 0
1, 145260, Note_on_c, 0, 70, 67
1, 145318, Note_on_c, 0, 70, 0
1, 145318, Note_on_c, 1, 58, 0
1, 145320, Note_on_c, 0, 69, 67
1, 145378, Note_on_c, 0, 69, 0
1, 145380, Note_on_c, 0, 67, 65
1, 145438, Note_on_c, 0, 67, 0
1, 145440, Note_on_c, 0, 72, 73
1, 145440, Note_on_c, 1, 57, 74
1, 145498, Note_on_c, 0, 72, 0
1, 145500, Note_on_c, 0, 69, 55
1, 145558, Note_on_c, 0, 69, 0
1, 145558, Note_on_c, 1, 57, 0
1, 145560, Note_on_c, 0, 67, 58
1, 145618, Note_on_c, 0, 67, 0
1, 145620, Note_on_c, 0, 65, 62
1, 145678, Note_on_c, 0, 65, 0
1, 145680, Note_on_c, 0, 64, 71
1, 145680, Note_on_c, 1, 45, 79
1, 145738, Note_on_c, 0, 64, 0
1, 145740, Note_on_c, 0, 65, 62
1, 145798, Note_on_c, 0, 65, 0
1, 145798, Note_on_c, 1, 45, 0
1, 145800, Note_on_c, 0, 64, 55
1, 145858, Note_on_c, 0, 64, 0
1, 145860, Note_on_c, 0, 65, 52
1, 145918, Note_on_c, 0, 65, 0
1, 145920, Note_on_c, 1, 55, 74
1, 145978, Note_on_c, 1, 55, 0
1, 145980, Note_on_c, 1, 59, 58
1, 146038, Note_on_c, 1, 59, 0
1, 146040, Note_on_c, 0, 62, 77
1, 146098, Note_on_c, 0, 62, 0
1, 146100, Note_on_c, 0, 65, 66
1, 146158, Note_on_c, 0, 65, 0
1, 146160, Note_on_c, 0, 71, 77
1, 146218, Note_on_c, 0, 71, 0
1, 146220, Note_on_c, 0, 67, 72
1, 146278, Note_on_c, 0, 67, 0
1, 146280, Note_on_c, 0, 62, 62
1, 146338, Note_on_c, 0, 62, 0
1, 146340, Note_on_c, 1, 59, 66
1, 146398, Note_on_c, 1, 59, 0
1, 146400, Note_on_c, 1, 55, 70
1, 146458, Note_on_c, 1, 55, 0
1, 146460, Note_on_c, 1, 59, 65
1, 146518, Note_on_c, 1, 59, 0
1, 146520, Note_on_c, 0, 62, 65
1, 146578, Note_on_c, 0, 62, 0
1, 146580, Note_on_c, 0, 65, 65
1, 146638, Note_on_c, 0, 65, 0
1, 146640, Note_on_c, 0, 71, 71
1, 146698, Note_on_c, 0, 71, 0
1, 146700, Note_on_c, 0, 65, 67
1, 146758, Note_on_c, 0, 65, 0
1, 146760, Note_on_c, 0, 62, 66
1, 146818, Note_on_c, 0, 62, 0
1, 146820, Note_on_c, 0, 59, 74
1, 146878, Note_on_c, 0, 59, 0
1, 146880, Note_on_c, 1, 58, 65
1, 146918, Note_on_c, 1, 58, 0
1, 146920, Note_on_c, 1, 60, 63
1, 146958, Note_on_c, 1, 60, 0
1, 146960, Note_on_c, 1, 62, 53
1, 146998, Note_on_c, 1, 62, 0
1, 147000, Note_on_c, 1, 60, 57
1, 147038, Note_on_c, 1, 60, 0
1, 147040, Note_on_c, 1, 62, 37
1, 147078, Note_on_c, 1, 62, 0
1, 147080, Note_on_c, 1, 60, 45
1, 147118, Note_on_c, 1, 60, 0
1, 147120, Note_on_c, 1, 62, 56
1, 147158, Note_on_c, 1, 62, 0
1, 147160, Note_on_c, 1, 60, 52
1, 147198, Note_on_c, 1, 60, 0
1, 147200, Note_on_c, 1, 62, 43
1, 147238, Note_on_c, 1, 62, 0
1, 147240, Note_on_c, 1, 60, 50
1, 147278, Note_on_c, 1, 60, 0
1, 147280, Note_on_c, 1, 62, 39
1, 147318, Note_on_c, 1, 62, 0
1, 147320, Note_on_c, 1, 60, 52
1, 147358, Note_on_c, 1, 60, 0
1, 147360, Note_on_c, 1, 62, 52
1, 147398, Note_on_c, 1, 62, 0
1, 147400, Note_on_c, 1, 60, 45
1, 147438, Note_on_c, 1, 60, 0
1, 147440, Note_on_c, 1, 62, 56
1, 147478, Note_on_c, 1, 62, 0
1, 147480, Note_on_c, 1, 60, 57
1, 147518, Note_on_c, 1, 60, 0
1, 147520, Note_on_c, 1, 62, 37
1, 147558, Note_on_c, 1, 62, 0
1, 147560, Note_on_c, 1, 60, 62
1, 147598, Note_on_c, 1, 60, 0
1, 147600, Note_on_c, 0, 70, 63
1, 147600, Note_on_c, 1, 62, 47
1, 147638, Note_on_c, 1, 62, 0
1, 147640, Note_on_c, 1, 60, 53
1, 147658, Note_on_c, 0, 70, 0
1, 147660, Note_on_c, 0, 67, 66
1, 147678, Note_on_c, 1, 60, 0
1, 147680, Note_on_c, 1, 62, 51
1, 147718, Note_on_c, 0, 67, 0
1, 147718, Note_on_c, 1, 62, 0
1, 147720, Note_on_c, 0, 70, 65
1, 147720, Note_on_c, 1, 60, 55
1, 147758, Note_on_c, 1, 60, 0
1, 147760, Note_on_c, 1, 62, 45
1, 147778, Note_on_c, 0, 70, 0
1, 147780, Note_on_c, 0, 67, 71
1, 147798, Note_on_c, 1, 62, 0
1, 147800, Note_on_c, 1, 60, 60
1, 147838, Note_on_c, 0, 67, 0
1, 147838, Note_on_c, 1, 60, 0
1, 147840, Note_on_c, 0, 64, 68
1, 147840, Note_on_c, 1, 62, 48
1, 147878, Note_on_c, 1, 62, 0
1, 147880, Note_on_c, 1, 60, 57
1, 147898, Note_on_c, 0, 64, 0
1, 147918, Note_on_c, 1, 60, 0
1, 147920, Note_on_c, 1, 62, 48
1, 147958, Note_on_c, 1, 62, 0
1, 147960, Note_on_c, 1, 60, 40
1, 147998, Note_on_c, 1, 60, 0
1, 148000, Note_on_c, 1, 62, 35
1, 148038, Note_on_c, 1, 62, 0
1, 148040, Note_on_c, 1, 60, 51
1, 148078, Note_on_c, 1, 60, 0
1, 148080, Note_on_c, 0, 76, 70
1, 148080, Note_on_c, 0, 70, 53
1, 148080, Note_on_c, 1, 62, 45
1, 148118, Note_on_c, 1, 62, 0
1, 148120, Note_on_c, 1, 60, 51
1, 148138, Note_on_c, 0, 76, 0
1, 148138, Note_on_c, 0, 70, 0
1, 148158, Note_on_c, 1, 60, 0
1, 148160, Note_on_c, 1, 62, 38
1, 148198, Note_on_c, 1, 62, 0
1, 148200, Note_on_c, 1, 60, 58
1, 148238, Note_on_c, 1, 60, 0
1, 148240, Note_on_c, 1, 62, 45
1, 148278, Note_on_c, 1, 62, 0
1, 148280, Note_on_c, 1, 60, 45
1, 148318, Note_on_c, 1, 60, 0
1, 148320, Note_on_c, 0, 79, 68
1, 148320, Note_on_c, 0, 76, 62
1, 148320, Note_on_c, 1, 62, 56
1, 148358, Note_on_c, 1, 62, 0
1, 148360, Note_on_c, 1, 60, 55
1, 148378, Note_on_c, 0, 79, 0
1, 148378, Note_on_c, 0, 76, 0
1, 148398, Note_on_c, 1, 60, 0
1, 148400, Note_on_c, 1, 62, 48
1, 148438, Note_on_c, 1, 62, 0
1, 148440, Note_on_c, 1, 60, 45
1, 148478, Note_on_c, 1, 60, 0
1, 148480, Note_on_c, 1, 62, 38
1, 148518, Note_on_c, 1, 62, 0
1, 148520, Note_on_c, 1, 60, 45
1, 148558, Note_on_c, 1, 60, 0
1, 148560, Note_on_c, 0, 79, 70
1, 148560, Note_on_c, 0, 82, 71
1, 148560, Note_on_c, 1, 62, 40
1, 148598, Note_on_c, 1, 62, 0
1, 148600, Note_on_c, 1, 60, 31
1, 148618, Note_on_c, 0, 79, 0
1, 148618, Note_on_c, 0, 82, 0
1, 148638, Note_on_c, 1, 60, 0
1, 148640, Note_on_c, 1, 62, 37
1, 148678, Note_on_c, 1, 62, 0
1, 148680, Note_on_c, 1, 60, 48
1, 148718, Note_on_c, 1, 60, 0
1, 148720, Note_on_c, 1, 62, 56
1, 148758, Note_on_c, 1, 62, 0
1, 148760, Note_on_c, 1, 60, 55
1, 148798, Note_on_c, 1, 60, 0
1, 148800, Note_on_c, 0, 81, 67
1, 148800, Note_on_c, 0, 77, 71
1, 148800, Note_on_c, 1, 62, 55
1, 148838, Note_on_c, 1, 62, 0
1, 148840, Note_on_c, 1, 60, 42
1, 148878, Note_on_c, 1, 60, 0
1, 148880, Note_on_c, 1, 62, 44
1, 148918, Note_on_c, 1, 62, 0
1, 148920, Note_on_c, 1, 60, 52
1, 148958, Note_on_c, 1, 60, 0
1, 148960, Note_on_c, 1, 62, 40
1, 148998, Note_on_c, 1, 62, 0
1, 149000, Note_on_c, 1, 60, 38
1, 149038, Note_on_c, 1, 60, 0
1, 149040, Note_on_c, 1, 62, 37
1, 149078, Note_on_c, 1, 62, 0
1, 149080, Note_on_c, 1, 60, 40
1, 149118, Note_on_c, 1, 60, 0
1, 149120, Note_on_c, 1, 62, 41
1, 149158, Note_on_c, 1, 62, 0
1, 149160, Note_on_c, 1, 60, 51
1, 149198, Note_on_c, 1, 60, 0
1, 149200, Note_on_c, 1, 62, 43
1, 149238, Note_on_c, 1, 62, 0
1, 149240, Note_on_c, 1, 60, 43
1, 149278, Note_on_c, 0, 81, 0
1, 149278, Note_on_c, 0, 77, 0
1, 149278, Note_on_c, 1, 60, 0
1, 149280, Note_on_c, 1, 62, 37
1, 149318, Note_on_c, 1, 62, 0
1, 149320, Note_on_c, 1, 60, 43
1, 149358, Note_on_c, 1, 60, 0
1, 149360, Note_on_c, 1, 62, 30
1, 149398, Note_on_c, 1, 62, 0
1, 149400, Note_on_c, 1, 60, 36
1, 149438, Note_on_c, 1, 60, 0
1, 149440, Note_on_c, 1, 62, 16
1, 149478, Note_on_c, 1, 62, 0
1, 149480, Note_on_c, 1, 60, 37
1, 149518, Note_on_c, 1, 60, 0
1, 149520, Note_on_c, 0, 72, 56
1, 149520, Note_on_c, 1, 62, 42
1, 149558, Note_on_c, 1, 62, 0
1, 149560, Note_on_c, 1, 60, 32
1, 149578, Note_on_c, 0, 72, 0
1, 149580, Note_on_c, 0, 69, 67
1, 149598, Note_on_c, 1, 60, 0
1, 149600, Note_on_c, 1, 62, 48
1, 149638, Note_on_c, 0, 69, 0
1, 149638, Note_on_c, 1, 62, 0
1, 149640, Note_on_c, 0, 72, 66
1, 149640, Note_on_c, 1, 60, 43
1, 149678, Note_on_c, 1, 60, 0
1, 149680, Note_on_c, 1, 62, 36
1, 149698, Note_on_c, 0, 72, 0
1, 149700, Note_on_c, 0, 69, 72
1, 149718, Note_on_c, 1, 62, 0
1, 149720, Note_on_c, 1, 60, 46
1, 149758, Note_on_c, 0, 69, 0
1, 149758, Note_on_c, 1, 60, 0
1, 149760, Note_on_c, 0, 65, 74
1, 149760, Note_on_c, 1, 62, 29
1, 149798, Note_on_c, 1, 62, 0
1, 149800, Note_on_c, 1, 60, 32
1, 149818, Note_on_c, 0, 65, 0
1, 149838, Note_on_c, 1, 60, 0
1, 149840, Note_on_c, 1, 62, 37
1, 149878, Note_on_c, 1, 62, 0
1, 149880, Note_on_c, 1, 60, 28
1, 149918, Note_on_c, 1, 60, 0
1, 149920, Note_on_c, 1, 62, 37
1, 149958, Note_on_c, 1, 62, 0
1, 149960, Note_on_c, 1, 60, 36
1, 149998, Note_on_c, 1, 60, 0
1, 150000, Note_on_c, 0, 77, 66
1, 150000, Note_on_c, 0, 69, 65
1, 150000, Note_on_c, 1, 62, 50
1, 150038, Note_on_c, 1, 62, 0
1, 150040, Note_on_c, 1, 60, 45
1, 150058, Note_on_c, 0, 77, 0
1, 150058, Note_on_c, 0, 69, 0
1, 150078, Note_on_c, 1, 60, 0
1, 150080, Note_on_c, 1, 62, 57
1, 150118, Note_on_c, 1, 62, 0
1, 150120, Note_on_c, 1, 60, 34
1, 150158, Note_on_c, 1, 60, 0
1, 150160, Note_on_c, 1, 62, 38
1, 150198, Note_on_c, 1, 62, 0
1, 150200, Note_on_c, 1, 60, 25
1, 150238, Note_on_c, 1, 60, 0
1, 150240, Note_on_c, 0, 77, 65
1, 150240, Note_on_c, 0, 81, 71
1, 150240, Note_on_c, 1, 62, 51
1, 150278, Note_on_c, 1, 62, 0
1, 150280, Note_on_c, 1, 60, 36
1, 150298, Note_on_c, 0, 77, 0
1, 150298, Note_on_c, 0, 81, 0
1, 150318, Note_on_c, 1, 60, 0
1, 150320, Note_on_c, 1, 62, 51
1, 150358, Note_on_c, 1, 62, 0
1, 150360, Note_on_c, 1, 60, 43
1, 150398, Note_on_c, 1, 60, 0
1, 150400, Note_on_c, 1, 62, 34
1, 150438, Note_on_c, 1, 62, 0
1, 150440, Note_on_c, 1, 60, 51
1, 150478, Note_on_c, 1, 60, 0
1, 150480, Note_on_c, 0, 84, 68
1, 150480, Note_on_c, 0, 81, 63
1, 150480, Note_on_c, 1, 62, 53
1, 150518, Note_on_c, 1, 62, 0
1, 150520, Note_on_c, 1, 60, 45
1, 150538, Note_on_c, 0, 84, 0
1, 150538, Note_on_c, 0, 81, 0
1, 150558, Note_on_c, 1, 60, 0
1, 150560, Note_on_c, 1, 62, 43
1, 150598, Note_on_c, 1, 62, 0
1, 150600, Note_on_c, 1, 60, 37
1, 150638, Note_on_c, 1, 60, 0
1, 150640, Note_on_c, 1, 62, 33
1, 150678, Note_on_c, 1, 62, 0
1, 150680, Note_on_c, 1, 60, 50
1, 150718, Note_on_c, 1, 60, 0
1, 150720, Note_on_c, 0, 79, 66
1, 150720, Note_on_c, 0, 82, 62
1, 150720, Note_on_c, 1, 62, 55
1, 150758, Note_on_c, 1, 62, 0
1, 150760, Note_on_c, 1, 60, 42
1, 150798, Note_on_c, 1, 60, 0
1, 150800, Note_on_c, 1, 62, 44
1, 150838, Note_on_c, 1, 62, 0
1, 150840, Note_on_c, 1, 60, 52
1, 150878, Note_on_c, 1, 60, 0
1, 150880, Note_on_c, 1, 62, 40
1, 150918, Note_on_c, 1, 62, 0
1, 150920, Note_on_c, 1, 60, 38
1, 150958, Note_on_c, 1, 60, 0
1, 150960, Note_on_c, 1, 62, 37
1, 150998, Note_on_c, 1, 62, 0
1, 151000, Note_on_c, 1, 60, 40
1, 151038, Note_on_c, 1, 60, 0
1, 151040, Note_on_c, 1, 62, 41
1, 151078, Note_on_c, 1, 62, 0
1, 151080, Note_on_c, 1, 60, 51
1, 151118, Note_on_c, 1, 60, 0
1, 151120, Note_on_c, 1, 62, 43
1, 151158, Note_on_c, 1, 62, 0
1, 151160, Note_on_c, 1, 60, 43
1, 151198, Note_on_c, 0, 79, 0
1, 151198, Note_on_c, 0, 82, 0
1, 151198, Note_on_c, 1, 60, 0
1, 151200, Note_on_c, 1, 62, 37
1, 151238, Note_on_c, 1, 62, 0
1, 151240, Note_on_c, 1, 60, 43
1, 151278, Note_on_c, 1, 60, 0
1, 151280, Note_on_c, 1, 62, 30
1, 151318, Note_on_c, 1, 62, 0
1, 151320, Note_on_c, 1, 60, 36
1, 151358, Note_on_c, 1, 60, 0
1, 151360, Note_on_c, 1, 62, 16
1, 151398, Note_on_c, 1, 62, 0
1, 151400, Note_on_c, 1, 60, 37
1, 151438, Note_on_c, 1, 60, 0
1, 151440, Note_on_c, 0, 70, 62
1, 151440, Note_on_c, 1, 62, 42
1, 151478, Note_on_c, 1, 62, 0
1, 151480, Note_on_c, 1, 60, 32
1, 151498, Note_on_c, 0, 70, 0
1, 151500, Note_on_c, 0, 67, 71
1, 151518, Note_on_c, 1, 60, 0
1, 151520, Note_on_c, 1, 62, 48
1, 151558, Note_on_c, 0, 67, 0
1, 151558, Note_on_c, 1, 62, 0
1, 151560, Note_on_c, 0, 70, 71
1, 151560, Note_on_c, 1, 60, 43
1, 151598, Note_on_c, 1, 60, 0
1, 151600, Note_on_c, 1, 62, 36
1, 151618, Note_on_c, 0, 70, 0
1, 151620, Note_on_c, 0, 67, 68
1, 151638, Note_on_c, 1, 62, 0
1, 151640, Note_on_c, 1, 60, 46
1, 151678, Note_on_c, 0, 67, 0
1, 151678, Note_on_c, 1, 60, 0
1, 151680, Note_on_c, 0, 64, 72
1, 151680, Note_on_c, 1, 62, 29
1, 151718, Note_on_c, 1, 62, 0
1, 151720, Note_on_c, 1, 60, 32
1, 151738, Note_on_c, 0, 64, 0
1, 151758, Note_on_c, 1, 60, 0
1, 151760, Note_on_c, 1, 62, 37
1, 151798, Note_on_c, 1, 62, 0
1, 151800, Note_on_c, 1, 60, 28
1, 151838, Note_on_c, 1, 60, 0
1, 151840, Note_on_c, 1, 62, 37
1, 151878, Note_on_c, 1, 62, 0
1, 151880, Note_on_c, 1, 60, 36
1, 151918, Note_on_c, 1, 60, 0
1, 151920, Note_on_c, 0, 70, 58
1, 151920, Note_on_c, 0, 76, 71
1, 151920, Note_on_c, 1, 62, 50
1, 151958, Note_on_c, 1, 62, 0
1, 151960, Note_on_c, 1, 60, 45
1, 151978, Note_on_c, 0, 70, 0
1, 151978, Note_on_c, 0, 76, 0
1, 151998, Note_on_c, 1, 60, 0
1, 152000, Note_on_c, 1, 62, 57
1, 152038, Note_on_c, 1, 62, 0
1, 152040, Note_on_c, 1, 60, 34
1, 152078, Note_on_c, 1, 60, 0
1, 152080, Note_on_c, 1, 62, 38
1, 152118, Note_on_c, 1, 62, 0
1, 152120, Note_on_c, 1, 60, 25
1, 152158, Note_on_c, 1, 60, 0
1, 152160, Note_on_c, 0, 76, 67
1, 152160, Note_on_c, 0, 79, 73
1, 152160, Note_on_c, 1, 62, 51
1, 152198, Note_on_c, 1, 62, 0
1, 152200, Note_on_c, 1, 60, 36
1, 152218, Note_on_c, 0, 76, 0
1, 152218, Note_on_c, 0, 79, 0
1, 152238, Note_on_c, 1, 60, 0
1, 152240, Note_on_c, 1, 62, 51
1, 152278, Note_on_c, 1, 62, 0
1, 152280, Note_on_c, 1, 60, 43
1, 152318, Note_on_c, 1, 60, 0
1, 152320, Note_on_c, 1, 62, 34
1, 152358, Note_on_c, 1, 62, 0
1, 152360, Note_on_c, 1, 60, 51
1, 152398, Note_on_c, 1, 60, 0
1, 152400, Note_on_c, 0, 82, 72
1, 152400, Note_on_c, 0, 79, 70
1, 152400, Note_on_c, 1, 62, 53
1, 152438, Note_on_c, 1, 62, 0
1, 152440, Note_on_c, 1, 60, 45
1, 152458, Note_on_c, 0, 82, 0
1, 152458, Note_on_c, 0, 79, 0
1, 152478, Note_on_c, 1, 60, 0
1, 152480, Note_on_c, 1, 62, 43
1, 152518, Note_on_c, 1, 62, 0
1, 152520, Note_on_c, 1, 60, 37
1, 152558, Note_on_c, 1, 60, 0
1, 152560, Note_on_c, 1, 62, 33
1, 152598, Note_on_c, 1, 62, 0
1, 152600, Note_on_c, 1, 60, 50
1, 152638, Note_on_c, 1, 60, 0
1, 152640, Note_on_c, 0, 81, 74
1, 152640, Note_on_c, 1, 65, 74
1, 152698, Note_on_c, 0, 81, 0
1, 152700, Note_on_c, 0, 82, 70
1, 152758, Note_on_c, 0, 82, 0
1, 152760, Note_on_c, 0, 84, 62
1, 152818, Note_on_c, 0, 84, 0
1, 152820, Note_on_c, 0, 82, 61
1, 152878, Note_on_c, 0, 82, 0
1, 152878, Note_on_c, 1, 65, 0
1, 152880, Note_on_c, 0, 81, 78
1, 152880, Note_on_c, 1, 67, 74
1, 152938, Note_on_c, 0, 81, 0
1, 152940, Note_on_c, 0, 79, 68
1, 152998, Note_on_c, 0, 79, 0
1, 153000, Note_on_c, 0, 77, 77
1, 153058, Note_on_c, 0, 77, 0
1, 153060, Note_on_c, 0, 76, 62
1, 153118, Note_on_c, 0, 76, 0
1, 153118, Note_on_c, 1, 67, 0
1, 153120, Note_on_c, 0, 77, 77
1, 153120, Note_on_c, 1, 69, 74
1, 153178, Note_on_c, 0, 77, 0
1, 153180, Note_on_c, 0, 79, 70
1, 153238, Note_on_c, 0, 79, 0
1, 153240, Note_on_c, 0, 81, 68
1, 153298, Note_on_c, 0, 81, 0
1, 153300, Note_on_c, 0, 79, 78
1, 153358, Note_on_c, 0, 79, 0
1, 153358, Note_on_c, 1, 69, 0
1, 153360, Note_on_c, 0, 77, 92
1, 153360, Note_on_c, 1, 57, 67
1, 153418, Note_on_c, 0, 77, 0
1, 153420, Note_on_c, 0, 76, 66
1, 153478, Note_on_c, 0, 76, 0
1, 153480, Note_on_c, 0, 74, 58
1, 153538, Note_on_c, 0, 74, 0
1, 153540, Note_on_c, 0, 73, 65
1, 153598, Note_on_c, 0, 73, 0
1, 153598, Note_on_c, 1, 57, 0
1, 153600, Note_on_c, 0, 74, 78
1, 153600, Note_on_c, 1, 58, 61
1, 153658, Note_on_c, 0, 74, 0
1, 153660, Note_on_c, 0, 76, 72
1, 153718, Note_on_c, 0, 76, 0
1, 153720, Note_on_c, 0, 77, 79
1, 153778, Note_on_c, 0, 77, 0
1, 153780, Note_on_c, 0, 76, 77
1, 153838, Note_on_c, 0, 76, 0
1, 153838, Note_on_c, 1, 58, 0
1, 153840, Note_on_c, 0, 74, 83
1, 153840, Note_on_c, 1, 60, 68
1, 153898, Note_on_c, 0, 74, 0
1, 153900, Note_on_c, 0, 72, 62
1, 153958, Note_on_c, 0, 72, 0
1, 153960, Note_on_c, 0, 70, 67
1, 154018, Note_on_c, 0, 70, 0
1, 154020, Note_on_c, 0, 69, 65
1, 154078, Note_on_c, 0, 69, 0
1, 154078, Note_on_c, 1, 60, 0
1, 154080, Note_on_c, 0, 70, 81
1, 154080, Note_on_c, 1, 62, 50
1, 154138, Note_on_c, 0, 70, 0
1, 154140, Note_on_c, 0, 72, 72
1, 154198, Note_on_c, 0, 72, 0
1, 154200, Note_on_c, 0, 74, 72
1, 154258, Note_on_c, 0, 74, 0
1, 154260, Note_on_c, 0, 72, 67
1, 154318, Note_on_c, 0, 72, 0
1, 154318, Note_on_c, 1, 62, 0
1, 154320, Note_on_c, 0, 70, 67
1, 154378, Note_on_c, 0, 70, 0
1, 154380, Note_on_c, 0, 69, 58
1, 154438, Note_on_c, 0, 69, 0
1, 154440, Note_on_c, 0, 67, 65
1, 154440, Note_on_c, 1, 45, 65
1, 154498, Note_on_c, 0, 67, 0
1, 154500, Note_on_c, 0, 66, 40
1, 154558, Note_on_c, 0, 66, 0
1, 154558, Note_on_c, 1, 45, 0
1, 154560, Note_on_c, 0, 67, 67
1, 154560, Note_on_c, 1, 46, 73
1, 154618, Note_on_c, 0, 67, 0
1, 154620, Note_on_c, 0, 70, 68
1, 154678, Note_on_c, 0, 70, 0
1, 154680, Note_on_c, 0, 74, 74
1, 154738, Note_on_c, 0, 74, 0
1, 154740, Note_on_c, 0, 72, 65
1, 154798, Note_on_c, 0, 72, 0
1, 154800, Note_on_c, 0, 70, 55
1, 154858, Note_on_c, 0, 70, 0
1, 154860, Note_on_c, 0, 69, 58
1, 154918, Note_on_c, 0, 69, 0
1, 154918, Note_on_c, 1, 46, 0
1, 154920, Note_on_c, 0, 67, 63
1, 154920, Note_on_c, 1, 47, 65
1, 154978, Note_on_c, 0, 67, 0
1, 154980, Note_on_c, 0, 65, 55
1, 155038, Note_on_c, 0, 65, 0
1, 155038, Note_on_c, 1, 47, 0
1, 155040, Note_on_c, 0, 64, 70
1, 155040, Note_on_c, 1, 48, 71
1, 155098, Note_on_c, 0, 64, 0
1, 155100, Note_on_c, 0, 65, 70
1, 155158, Note_on_c, 0, 65, 0
1, 155160, Note_on_c, 0, 67, 62
1, 155218, Note_on_c, 0, 67, 0
1, 155220, Note_on_c, 0, 65, 65
1, 155278, Note_on_c, 0, 65, 0
1, 155278, Note_on_c, 1, 48, 0
1, 155280, Note_on_c, 0, 64, 67
1, 155280, Note_on_c, 1, 52, 66
1, 155338, Note_on_c, 0, 64, 0
1, 155340, Note_on_c, 0, 62, 57
1, 155398, Note_on_c, 0, 62, 0
1, 155400, Note_on_c, 0, 60, 52
1, 155458, Note_on_c, 0, 60, 0
1, 155460, Note_on_c, 0, 58, 61
1, 155518, Note_on_c, 0, 58, 0
1, 155518, Note_on_c, 1, 52, 0
1, 155520, Note_on_c, 0, 57, 66
1, 155520, Note_on_c, 1, 53, 72
1, 155520, Note_on_c, 1, 41, 74
1, 155578, Note_on_c, 0, 57, 0
1, 155580, Note_on_c, 0, 65, 68
1, 155638, Note_on_c, 0, 65, 0
1, 155640, Note_on_c, 0, 64, 65
1, 155698, Note_on_c, 0, 64, 0
1, 155700, Note_on_c, 0, 65, 57
1, 155758, Note_on_c, 0, 65, 0
1, 155760, Note_on_c, 0, 69, 67
1, 155818, Note_on_c, 0, 69, 0
1, 155820, Note_on_c, 0, 65, 57
1, 155878, Note_on_c, 0, 65, 0
1, 155880, Note_on_c, 0, 64, 48
1, 155938, Note_on_c, 0, 64, 0
1, 155940, Note_on_c, 0, 65, 51
1, 155998, Note_on_c, 0, 65, 0
1, 155998, Note_on_c, 1, 53, 0
1, 155998, Note_on_c, 1, 41, 0
1, 156000, Note_on_c, 0, 60, 68
1, 156000, Note_on_c, 1, 57, 73
1, 156058, Note_on_c, 0, 60, 0
1, 156060, Note_on_c, 0, 65, 65
1, 156118, Note_on_c, 0, 65, 0
1, 156118, Note_on_c, 1, 57, 0
1, 156120, Note_on_c, 0, 64, 53
1, 156178, Note_on_c, 0, 64, 0
1, 156180, Note_on_c, 0, 65, 66
1, 156238, Note_on_c, 0, 65, 0
1, 156240, Note_on_c, 0, 62, 68
1, 156240, Note_on_c, 1, 58, 68
1, 156298, Note_on_c, 0, 62, 0
1, 156300, Note_on_c, 0, 65, 63
1, 156358, Note_on_c, 0, 65, 0
1, 156358, Note_on_c, 1, 58, 0
1, 156360, Note_on_c, 0, 64, 40
1, 156418, Note_on_c, 0, 64, 0
1, 156420, Note_on_c, 0, 65, 56
1, 156478, Note_on_c, 0, 65, 0
1, 156480, Note_on_c, 0, 60, 58
1, 156480, Note_on_c, 1, 57, 66
1, 156538, Note_on_c, 0, 60, 0
1, 156540, Note_on_c, 0, 65, 52
1, 156598, Note_on_c, 0, 65, 0
1, 156600, Note_on_c, 0, 64, 62
1, 156658, Note_on_c, 0, 64, 0
1, 156660, Note_on_c, 0, 65, 73
1, 156718, Note_on_c, 0, 65, 0
1, 156718, Note_on_c, 1, 57, 0
1, 156720, Note_on_c, 0, 69, 76
1, 156778, Note_on_c, 0, 69, 0
1, 156780, Note_on_c, 0, 65, 62
1, 156838, Note_on_c, 0, 65, 0
1, 156840, Note_on_c, 0, 64, 36
1, 156898, Note_on_c, 0, 64, 0
1, 156900, Note_on_c, 0, 65, 56
1, 156958, Note_on_c, 0, 65, 0
1, 156960, Note_on_c, 0, 72, 77
1, 156960, Note_on_c, 1, 57, 74
1, 157018, Note_on_c, 0, 72, 0
1, 157020, Note_on_c, 0, 65, 55
1, 157078, Note_on_c, 0, 65, 0
1, 157078, Note_on_c, 1, 57, 0
1, 157080, Note_on_c, 0, 64, 16
1, 157138, Note_on_c, 0, 64, 0
1, 157140, Note_on_c, 0, 65, 43
1, 157198, Note_on_c, 0, 65, 0
1, 157200, Note_on_c, 0, 74, 83
1, 157200, Note_on_c, 1, 58, 63
1, 157258, Note_on_c, 0, 74, 0
1, 157260, Note_on_c, 0, 65, 29
1, 157318, Note_on_c, 0, 65, 0
1, 157318, Note_on_c, 1, 58, 0
1, 157320, Note_on_c, 0, 64, 34
1, 157378, Note_on_c, 0, 64, 0
1, 157380, Note_on_c, 0, 65, 45
1, 157438, Note_on_c, 0, 65, 0
1, 157440, Note_on_c, 0, 72, 77
1, 157440, Note_on_c, 1, 57, 62
1, 157498, Note_on_c, 0, 72, 0
1, 157500, Note_on_c, 0, 65, 37
1, 157558, Note_on_c, 0, 65, 0
1, 157560, Note_on_c, 0, 64, 16
1, 157618, Note_on_c, 0, 64, 0
1, 157620, Note_on_c, 0, 65, 43
1, 157678, Note_on_c, 0, 65, 0
1, 157678, Note_on_c, 1, 57, 0
1, 157680, Note_on_c, 0, 69, 68
1, 157738, Note_on_c, 0, 69, 0
1, 157740, Note_on_c, 0, 65, 41
1, 157798, Note_on_c, 0, 65, 0
1, 157800, Note_on_c, 0, 64, 38
1, 157858, Note_on_c, 0, 64, 0
1, 157860, Note_on_c, 0, 65, 46
1, 157918, Note_on_c, 0, 65, 0
1, 157920, Note_on_c, 0, 60, 83
1, 157920, Note_on_c, 1, 57, 65
1, 157978, Note_on_c, 0, 60, 0
1, 157980, Note_on_c, 0, 65, 55
1, 158038, Note_on_c, 0, 65, 0
1, 158038, Note_on_c, 1, 57, 0
1, 158040, Note_on_c, 0, 64, 51
1, 158098, Note_on_c, 0, 64, 0
1, 158100, Note_on_c, 0, 65, 36
1, 158158, Note_on_c, 0, 65, 0
1, 158160, Note_on_c, 0, 62, 74
1, 158160, Note_on_c, 1, 58, 61
1, 158218, Note_on_c, 0, 62, 0
1, 158220, Note_on_c, 0, 65, 61
1, 158278, Note_on_c, 0, 65, 0
1, 158278, Note_on_c, 1, 58, 0
1, 158280, Note_on_c, 0, 64, 18
1, 158338, Note_on_c, 0, 64, 0
1, 158340, Note_on_c, 0, 65, 66
1, 158398, Note_on_c, 0, 65, 0
1, 158400, Note_on_c, 0, 60, 77
1, 158400, Note_on_c, 1, 57, 57
1, 158458, Note_on_c, 0, 60, 0
1, 158460, Note_on_c, 0, 65, 25
1, 158518, Note_on_c, 0, 65, 0
1, 158520, Note_on_c, 0, 64, 30
1, 158578, Note_on_c, 0, 64, 0
1, 158580, Note_on_c, 0, 65, 44
1, 158638, Note_on_c, 0, 65, 0
1, 158638, Note_on_c, 1, 57, 0
1, 158640, Note_on_c, 0, 69, 55
1, 158698, Note_on_c, 0, 69, 0
1, 158700, Note_on_c, 0, 65, 36
1, 158758, Note_on_c, 0, 65, 0
1, 158760, Note_on_c, 0, 64, 50
1, 158818, Note_on_c, 0, 64, 0
1, 158820, Note_on_c, 0, 65, 55
1, 158878, Note_on_c, 0, 65, 0
1, 158880, Note_on_c, 0, 72, 89
1, 158880, Note_on_c, 1, 57, 65
1, 158938, Note_on_c, 0, 72, 0
1, 158940, Note_on_c, 0, 65, 47
1, 158998, Note_on_c, 0, 65, 0
1, 158998, Note_on_c, 1, 57, 0
1, 159000, Note_on_c, 0, 64, 16
1, 159058, Note_on_c, 0, 64, 0
1, 159060, Note_on_c, 0, 65, 56
1, 159118, Note_on_c, 0, 65, 0
1, 159120, Note_on_c, 0, 74, 89
1, 159120, Note_on_c, 1, 58, 62
1, 159178, Note_on_c, 0, 74, 0
1, 159180, Note_on_c, 0, 65, 51
1, 159238, Note_on_c, 0, 65, 0
1, 159238, Note_on_c, 1, 58, 0
1, 159240, Note_on_c, 0, 64, 36
1, 159298, Note_on_c, 0, 64, 0
1, 159300, Note_on_c, 0, 65, 32
1, 159358, Note_on_c, 0, 65, 0
1, 159360, Note_on_c, 0, 72, 76
1, 159360, Note_on_c, 1, 57, 70
1, 159418, Note_on_c, 0, 72, 0
1, 159420, Note_on_c, 0, 65, 53
1, 159478, Note_on_c, 0, 65, 0
1, 159480, Note_on_c, 0, 64, 35
1, 159538, Note_on_c, 0, 64, 0
1, 159540, Note_on_c, 0, 65, 32
1, 159598, Note_on_c, 0, 65, 0
1, 159600, Note_on_c, 0, 72, 78
1, 159658, Note_on_c, 0, 72, 0
1, 159660, Note_on_c, 0, 65, 43
1, 159718, Note_on_c, 0, 65, 0
1, 159720, Note_on_c, 0, 64, 40
1, 159778, Note_on_c, 0, 64, 0
1, 159780, Note_on_c, 0, 65, 21
1, 159838, Note_on_c, 0, 65, 0
1, 159838, Note_on_c, 1, 57, 0
1, 159840, Note_on_c, 0, 72, 73
1, 159840, Note_on_c, 1, 60, 52
1, 159840, Note_on_c, 1, 56, 56
1, 159898, Note_on_c, 0, 72, 0
1, 159900, Note_on_c, 0, 65, 46
1, 159958, Note_on_c, 0, 65, 0
1, 159960, Note_on_c, 0, 64, 46
1, 160018, Note_on_c, 0, 64, 0
1, 160020, Note_on_c, 0, 65, 56
1, 160078, Note_on_c, 0, 65, 0
1, 160080, Note_on_c, 0, 72, 86
1, 160138, Note_on_c, 0, 72, 0
1, 160140, Note_on_c, 0, 65, 53
1, 160198, Note_on_c, 0, 65, 0
1, 160200, Note_on_c, 0, 64, 30
1, 160258, Note_on_c, 0, 64, 0
1, 160260, Note_on_c, 0, 65, 43
1, 160318, Note_on_c, 0, 65, 0
1, 160318, Note_on_c, 1, 60, 0
1, 160318, Note_on_c, 1, 56, 0
1, 160320, Note_on_c, 0, 71, 89
1, 160320, Note_on_c, 1, 55, 62
1, 160320, Note_on_c, 1, 62, 61
1, 160378, Note_on_c, 0, 71, 0
1, 160380, Note_on_c, 0, 65, 53
1, 160438, Note_on_c, 0, 65, 0
1, 160440, Note_on_c, 0, 64, 60
1, 160498, Note_on_c, 0, 64, 0
1, 160500, Note_on_c, 0, 65, 68
1, 160558, Note_on_c, 0, 65, 0
1, 160560, Note_on_c, 0, 71, 86
1, 160618, Note_on_c, 0, 71, 0
1, 160620, Note_on_c, 0, 65, 58
1, 160678, Note_on_c, 0, 65, 0
1, 160680, Note_on_c, 0, 64, 66
1, 160738, Note_on_c, 0, 64, 0
1, 160740, Note_on_c, 0, 65, 70
1, 160798, Note_on_c, 0, 65, 0
1, 160798, Note_on_c, 1, 55, 0
1, 160798, Note_on_c, 1, 62, 0
1, 160800, Note_on_c, 0, 70, 94
1, 160800, Note_on_c, 1, 52, 74
1, 160800, Note_on_c, 1, 60, 66
1, 160858, Note_on_c, 0, 70, 0
1, 160860, Note_on_c, 0, 67, 67
1, 160918, Note_on_c, 0, 67, 0
1, 160920, Note_on_c, 0, 66, 70
1, 160978, Note_on_c, 0, 66, 0
1, 160980, Note_on_c, 0, 67, 74
1, 161038, Note_on_c, 0, 67, 0
1, 161040, Note_on_c, 0, 70, 81
1, 161098, Note_on_c, 0, 70, 0
1, 161100, Note_on_c, 0, 67, 68
1, 161158, Note_on_c, 0, 67, 0
1, 161160, Note_on_c, 0, 66, 71
1, 161218, Note_on_c, 0, 66, 0
1, 161220, Note_on_c, 0, 67, 76
1, 161278, Note_on_c, 0, 67, 0
1, 161278, Note_on_c, 1, 52, 0
1, 161278, Note_on_c, 1, 60, 0
1, 161280, Note_on_c, 0, 69, 76
1, 161280, Note_on_c, 1, 53, 70
1, 161280, Note_on_c, 1, 60, 66
1, 161398, Note_on_c, 0, 69, 0
1, 161400, Note_on_c, 0, 77, 83
1, 161518, Note_on_c, 0, 77, 0
1, 161520, Note_on_c, 0, 79, 78
1, 161578, Note_on_c, 0, 79, 0
1, 161580, Note_on_c, 0, 77, 48
1, 161638, Note_on_c, 0, 77, 0
1, 161640, Note_on_c, 0, 76, 51
1, 161698, Note_on_c, 0, 76, 0
1, 161700, Note_on_c, 0, 74, 56
1, 161758, Note_on_c, 0, 74, 0
1, 161758, Note_on_c, 1, 53, 0
1, 161758, Note_on_c, 1, 60, 0
1, 161760, Note_on_c, 0, 74, 81
1, 161818, Note_on_c, 0, 74, 0
1, 161820, Note_on_c, 0, 72, 57
1, 161878, Note_on_c, 0, 72, 0
1, 161880, Note_on_c, 0, 70, 65
1, 161938, Note_on_c, 0, 70, 0
1, 161940, Note_on_c, 0, 69, 60
1, 161998, Note_on_c, 0, 69, 0
1, 162000, Note_on_c, 0, 69, 78
1, 162000, Note_on_c, 1, 53, 67
1, 162000, Note_on_c, 1, 45, 57
1, 162058, Note_on_c, 0, 69, 0
1, 162060, Note_on_c, 0, 67, 62
1, 162118, Note_on_c, 0, 67, 0
1, 162120, Note_on_c, 0, 65, 63
1, 162178, Note_on_c, 0, 65, 0
1, 162180, Note_on_c, 0, 64, 53
1, 162238, Note_on_c, 0, 64, 0
1, 162238, Note_on_c, 1, 45, 0
1, 162240, Note_on_c, 0, 62, 76
1, 162240, Note_on_c, 1, 46, 58
1, 162358, Note_on_c, 0, 62, 0
1, 162360, Note_on_c, 0, 73, 68
1, 162418, Note_on_c, 0, 73, 0
1, 162420, Note_on_c, 0, 74, 70
1, 162478, Note_on_c, 0, 74, 0
1, 162478, Note_on_c, 1, 53, 0
1, 162480, Note_on_c, 0, 72, 67
1, 162480, Note_on_c, 1, 58, 60
1, 162538, Note_on_c, 0, 72, 0
1, 162540, Note_on_c, 0, 70, 66
1, 162598, Note_on_c, 0, 70, 0
1, 162600, Note_on_c, 0, 69, 40
1, 162658, Note_on_c, 0, 69, 0
1, 162660, Note_on_c, 0, 67, 55
1, 162718, Note_on_c, 0, 67, 0
1, 162718, Note_on_c, 1, 46, 0
1, 162718, Note_on_c, 1, 58, 0
1, 162720, Note_on_c, 0, 65, 67
1, 162720, Note_on_c, 1, 57, 61
1, 162720, Note_on_c, 1, 48, 58
1, 162958, Note_on_c, 0, 65, 0
1, 162958, Note_on_c, 1, 57, 0
1, 162960, Note_on_c, 0, 64, 56
1, 162960, Note_on_c, 1, 55, 66
1, 163006, Note_on_c, 0, 64, 0
1, 163008, Note_on_c, 0, 65, 66
1, 163054, Note_on_c, 0, 65, 0
1, 163056, Note_on_c, 0, 64, 52
1, 163102, Note_on_c, 0, 64, 0
1, 163104, Note_on_c, 0, 62, 63
1, 163150, Note_on_c, 0, 62, 0
1, 163152, Note_on_c, 0, 64, 57
1, 163198, Note_on_c, 0, 64, 0
1, 163198, Note_on_c, 1, 48, 0
1, 163198, Note_on_c, 1, 55, 0
1, 163200, Note_on_c, 0, 65, 78
1, 163200, Note_on_c, 1, 57, 47
1, 163200, Note_on_c, 1, 53, 66
1, 163258, Note_on_c, 0, 65, 0
1, 163260, Note_on_c, 0, 77, 72
1, 163318, Note_on_c, 0, 77, 0
1, 163320, Note_on_c, 0, 76, 81
1, 163378, Note_on_c, 0, 76, 0
1, 163380, Note_on_c, 0, 77, 74
1, 163438, Note_on_c, 0, 77, 0
1, 163440, Note_on_c, 0, 79, 77
1, 163498, Note_on_c, 0, 79, 0
1, 163500, Note_on_c, 0, 77, 77
1, 163558, Note_on_c, 0, 77, 0
1, 163560, Note_on_c, 0, 76, 79
1, 163618, Note_on_c, 0, 76, 0
1, 163620, Note_on_c, 0, 74, 65
1, 163678, Note_on_c, 0, 74, 0
1, 163678, Note_on_c, 1, 57, 0
1, 163678, Note_on_c, 1, 53, 0
1, 163680, Note_on_c, 0, 74, 86
1, 163738, Note_on_c, 0, 74, 0
1, 163740, Note_on_c, 0, 72, 65
1, 163798, Note_on_c, 0, 72, 0
1, 163800, Note_on_c, 0, 70, 76
1, 163858, Note_on_c, 0, 70, 0
1, 163860, Note_on_c, 0, 69, 68
1, 163918, Note_on_c, 0, 69, 0
1, 163920, Note_on_c, 0, 69, 78
1, 163920, Note_on_c, 1, 53, 60
1, 163920, Note_on_c, 1, 45, 56
1, 163978, Note_on_c, 0, 69, 0
1, 163980, Note_on_c, 0, 67, 70
1, 164038, Note_on_c, 0, 67, 0
1, 164040, Note_on_c, 0, 65, 74
1, 164098, Note_on_c, 0, 65, 0
1, 164100, Note_on_c, 0, 64, 46
1, 164158, Note_on_c, 0, 64, 0
1, 164158, Note_on_c, 1, 45, 0
1, 164160, Note_on_c, 0, 62, 77
1, 164160, Note_on_c, 1, 46, 60
1, 164278, Note_on_c, 0, 62, 0
1, 164280, Note_on_c, 0, 73, 72
1, 164338, Note_on_c, 0, 73, 0
1, 164340, Note_on_c, 0, 74, 73
1, 164398, Note_on_c, 0, 74, 0
1, 164398, Note_on_c, 1, 53, 0
1, 164400, Note_on_c, 0, 72, 74
1, 164400, Note_on_c, 1, 58, 56
1, 164458, Note_on_c, 0, 72, 0
1, 164460, Note_on_c, 0, 70, 67
1, 164518, Note_on_c, 0, 70, 0
1, 164520, Note_on_c, 0, 69, 74
1, 164578, Note_on_c, 0, 69, 0
1, 164580, Note_on_c, 0, 67, 65
1, 164638, Note_on_c, 0, 67, 0
1, 164638, Note_on_c, 1, 46, 0
1, 164638, Note_on_c, 1, 58, 0
1, 164640, Note_on_c, 0, 65, 65
1, 164640, Note_on_c, 1, 57, 65
1, 164640, Note_on_c, 1, 48, 52
1, 164878, Note_on_c, 0, 65, 0
1, 164878, Note_on_c, 1, 57, 0
1, 164880, Note_on_c, 0, 64, 73
1, 164880, Note_on_c, 1, 55, 62
1, 164926, Note_on_c, 0, 64, 0
1, 164928, Note_on_c, 0, 65, 68
1, 164974, Note_on_c, 0, 65, 0
1, 164976, Note_on_c, 0, 64, 67
1, 165022, Note_on_c, 0, 64, 0
1, 165024, Note_on_c, 0, 62, 68
1, 165070, Note_on_c, 0, 62, 0
1, 165072, Note_on_c, 0, 64, 65
1, 165118, Note_on_c, 0, 64, 0
1, 165118, Note_on_c, 1, 48, 0
1, 165118, Note_on_c, 1, 55, 0
1, 165120, Note_on_c, 0, 65, 68
1, 165120, Note_on_c, 1, 41, 72
1, 165178, Note_on_c, 1, 41, 0
1, 165180, Note_on_c, 1, 53, 67
1, 165238, Note_on_c, 1, 53, 0
1, 165240, Note_on_c, 1, 52, 65
1, 165298, Note_on_c, 1, 52, 0
1, 165300, Note_on_c, 1, 53, 46
1, 165358, Note_on_c, 0, 65, 0
1, 165358, Note_on_c, 1, 53, 0
1, 165360, Note_on_c, 0, 62, 73
1, 165360, Note_on_c, 0, 58, 63
1, 165360, Note_on_c, 1, 41, 72
1, 165418, Note_on_c, 0, 62, 0
1, 165418, Note_on_c, 0, 58, 0
1, 165418, Note_on_c, 1, 41, 0
1, 165420, Note_on_c, 1, 53, 55
1, 165478, Note_on_c, 1, 53, 0
1, 165480, Note_on_c, 1, 52, 43
1, 165538, Note_on_c, 1, 52, 0
1, 165540, Note_on_c, 1, 53, 48
1, 165598, Note_on_c, 1, 53, 0
1, 165600, Note_on_c, 0, 60, 67
1, 165600, Note_on_c, 0, 57, 55
1, 165600, Note_on_c, 1, 41, 72
1, 165658, Note_on_c, 0, 60, 0
1, 165658, Note_on_c, 0, 57, 0
1, 165658, Note_on_c, 1, 41, 0
1, 165660, Note_on_c, 1, 53, 57
1, 165718, Note_on_c, 1, 53, 0
1, 165720, Note_on_c, 1, 52, 58
1, 165778, Note_on_c, 1, 52, 0
1, 165780, Note_on_c, 1, 53, 60
1, 165838, Note_on_c, 1, 53, 0
1, 165840, Note_on_c, 0, 55, 72
1, 165840, Note_on_c, 0, 58, 61
1, 165840, Note_on_c, 0, 64, 76
1, 165840, Note_on_c, 1, 41, 74
1, 165898, Note_on_c, 0, 55, 0
1, 165898, Note_on_c, 0, 58, 0
1, 165898, Note_on_c, 0, 64, 0
1, 165898, Note_on_c, 1, 41, 0
1, 165900, Note_on_c, 1, 53, 65
1, 165958, Note_on_c, 1, 53, 0
1, 165960, Note_on_c, 1, 52, 43
1, 166018, Note_on_c, 1, 52, 0
1, 166020, Note_on_c, 1, 53, 51
1, 166078, Note_on_c, 1, 53, 0
1, 166080, Note_on_c, 0, 57, 65
1, 166080, Note_on_c, 0, 65, 70
1, 166080, Note_on_c, 0, 60, 65
1, 166080, Note_on_c, 1, 41, 72
1, 166138, Note_on_c, 0, 57, 0
1, 166138, Note_on_c, 0, 65, 0
1, 166138, Note_on_c, 0, 60, 0
1, 166138, Note_on_c, 1, 41, 0
1, 166140, Note_on_c, 1, 53, 63
1, 166198, Note_on_c, 1, 53, 0
1, 166200, Note_on_c, 1, 52, 56
1, 166258, Note_on_c, 1, 52, 0
1, 166260, Note_on_c, 1, 53, 55
1, 166318, Note_on_c, 1, 53, 0
1, 166320, Note_on_c, 0, 74, 78
1, 166320, Note_on_c, 0, 70, 73
1, 166320, Note_on_c, 1, 41, 89
1, 166378, Note_on_c, 0, 74, 0
1, 166378, Note_on_c, 0, 70, 0
1, 166378, Note_on_c, 1, 41, 0
1, 166380, Note_on_c, 1, 53, 68
1, 166438, Note_on_c, 1, 53, 0
1, 166440, Note_on_c, 1, 52, 66
1, 166498, Note_on_c, 1, 52, 0
1, 166500, Note_on_c, 1, 53, 76
1, 166558, Note_on_c, 1, 53, 0
1, 166560, Note_on_c, 0, 72, 83
1, 166560, Note_on_c, 0, 69, 77
1, 166560, Note_on_c, 1, 41, 77
1, 166618, Note_on_c, 0, 72, 0
1, 166618, Note_on_c, 0, 69, 0
1, 166618, Note_on_c, 1, 41, 0
1, 166620, Note_on_c, 1, 53, 68
1, 166678, Note_on_c, 1, 53, 0
1, 166680, Note_on_c, 1, 52, 70
1, 166738, Note_on_c, 1, 52, 0
1, 166740, Note_on_c, 1, 53, 71
1, 166798, Note_on_c, 1, 53, 0
1, 166800, Note_on_c, 0, 67, 83
1, 166800, Note_on_c, 0, 76, 89
1, 166800, Note_on_c, 0, 70, 78
1, 166800, Note_on_c, 1, 41, 89
1, 166858, Note_on_c, 0, 67, 0
1, 166858, Note_on_c, 0, 76, 0
1, 166858, Note_on_c, 0, 70, 0
1, 166858, Note_on_c, 1, 41, 0
1, 166860, Note_on_c, 1, 53, 71
1, 166918, Note_on_c, 1, 53, 0
1, 166920, Note_on_c, 1, 52, 70
1, 166978, Note_on_c, 1, 52, 0
1, 166980, Note_on_c, 1, 53, 72
1, 167038, Note_on_c, 1, 53, 0
1, 167040, Note_on_c, 0, 77, 78
1, 167040, Note_on_c, 0, 72, 77
1, 167040, Note_on_c, 0, 69, 74
1, 167040, Note_on_c, 1, 41, 83
1, 167518, Note_on_c, 0, 77, 0
1, 167518, Note_on_c, 0, 72, 0
1, 167518, Note_on_c, 0, 69, 0
1, 167518, Note_on_c, 1, 41, 0
1, 167528, End_track
0, 0, End_of_file