0, 0, Header, 0, 1, 480
1, 0, Start_track
1, 0, Tempo, 1875000
1, 1440, Note_on_c, 0, 72, 67
1, 1440, Note_on_c, 1, 53, 43
1, 1518, Note_on_c, 1, 53, 0
1, 1520, Note_on_c, 1, 56, 33
1, 1598, Note_on_c, 1, 56, 0
1, 1600, Note_on_c, 1, 60, 35
1, 1617, Note_on_c, 0, 73, 53
1, 1624, Note_on_c, 0, 72, 0
1, 1641, Note_on_c, 0, 72, 58
1, 1655, Note_on_c, 0, 73, 0
1, 1660, Note_on_c, 0, 71, 58
1, 1663, Note_on_c, 0, 72, 0
1, 1678, Note_on_c, 1, 60, 0
1, 1680, Note_on_c, 1, 65, 47
1, 1692, Note_on_c, 0, 72, 69
1, 1695, Note_on_c, 0, 71, 0
1, 1758, Note_on_c, 1, 65, 0
1, 1760, Note_on_c, 1, 60, 45
1, 1820, Note_on_c, 0, 73, 63
1, 1827, Note_on_c, 0, 72, 0
1, 1838, Note_on_c, 1, 60, 0
1, 1840, Note_on_c, 1, 56, 42
1, 1918, Note_on_c, 1, 56, 0
1, 1920, Note_on_c, 1, 53, 42
1, 1928, Note_on_c, 0, 73, 0
1, 1929, Note_on_c, 0, 72, 63
1, 1998, Note_on_c, 1, 53, 0
1, 2000, Note_on_c, 1, 56, 25
1, 2078, Note_on_c, 1, 56, 0
1, 2080, Note_on_c, 1, 60, 41
1, 2158, Note_on_c, 1, 60, 0
1, 2160, Note_on_c, 0, 72, 0
1, 2160, Note_on_c, 0, 77, 55
1, 2160, Note_on_c, 1, 53, 40
1, 2198, Note_on_c, 0, 79, 55
1, 2207, Note_on_c, 0, 77, 0
1, 2238, Note_on_c, 1, 53, 0
1, 2240, Note_on_c, 1, 56, 17
1, 2248, Note_on_c, 0, 80, 45
1, 2255, Note_on_c, 0, 79, 0
1, 2318, Note_on_c, 1, 56, 0
1, 2320, Note_on_c, 1, 60, 33
1, 2398, Note_on_c, 1, 60, 0
1, 2400, Note_on_c, 1, 65, 33
1, 2478, Note_on_c, 0, 80, 0
1, 2478, Note_on_c, 1, 65, 0
1, 2480, Note_on_c, 1, 60, 31
1, 2558, Note_on_c, 1, 60, 0
1, 2560, Note_on_c, 1, 56, 45
1, 2638, Note_on_c, 1, 56, 0
1, 2640, Note_on_c, 1, 53, 32
1, 2718, Note_on_c, 1, 53, 0
1, 2720, Note_on_c, 1, 56, 24
1, 2798, Note_on_c, 1, 56, 0
1, 2800, Note_on_c, 1, 60, 33
1, 2874, Note_on_c, 0, 72, 62
1, 2878, Note_on_c, 1, 60, 0
1, 2880, Note_on_c, 1, 52, 36
1, 2958, Note_on_c, 1, 52, 0
1, 2960, Note_on_c, 1, 55, 40
1, 3038, Note_on_c, 1, 55, 0
1, 3040, Note_on_c, 1, 58, 37
1, 3041, Note_on_c, 0, 73, 48
1, 3048, Note_on_c, 0, 72, 0
1, 3062, Note_on_c, 0, 72, 52
1, 3079, Note_on_c, 0, 73, 0
1, 3083, Note_on_c, 0, 71, 55
1, 3086, Note_on_c, 0, 72, 0
1, 3115, Note_on_c, 0, 72, 64
1, 3118, Note_on_c, 0, 71, 0
1, 3118, Note_on_c, 1, 58, 0
1, 3120, Note_on_c, 1, 60, 33
1, 3198, Note_on_c, 1, 60, 0
1, 3200, Note_on_c, 1, 58, 37
1, 3244, Note_on_c, 0, 73, 62
1, 3248, Note_on_c, 0, 72, 0
1, 3278, Note_on_c, 1, 58, 0
1, 3280, Note_on_c, 1, 55, 23
1, 3358, Note_on_c, 0, 72, 66
1, 3358, Note_on_c, 1, 55, 0
1, 3360, Note_on_c, 1, 52, 32
1, 3370, Note_on_c, 0, 73, 0
1, 3438, Note_on_c, 1, 52, 0
1, 3440, Note_on_c, 1, 55, 19
1, 3518, Note_on_c, 1, 55, 0
1, 3520, Note_on_c, 1, 58, 33
1, 3598, Note_on_c, 0, 79, 61
1, 3598, Note_on_c, 1, 58, 0
1, 3600, Note_on_c, 1, 52, 50
1, 3604, Note_on_c, 0, 72, 0
1, 3643, Note_on_c, 0, 80, 63
1, 3649, Note_on_c, 0, 79, 0
1, 3678, Note_on_c, 1, 52, 0
1, 3680, Note_on_c, 1, 55, 46
1, 3691, Note_on_c, 0, 82, 46
1, 3695, Note_on_c, 0, 80, 0
1, 3758, Note_on_c, 1, 55, 0
1, 3760, Note_on_c, 1, 58, 42
1, 3838, Note_on_c, 1, 58, 0
1, 3840, Note_on_c, 1, 60, 36
1, 3918, Note_on_c, 1, 60, 0
1, 3920, Note_on_c, 1, 58, 31
1, 3993, Note_on_c, 0, 82, 0
1, 3998, Note_on_c, 1, 58, 0
1, 4000, Note_on_c, 1, 55, 35
1, 4078, Note_on_c, 1, 55, 0
1, 4080, Note_on_c, 1, 52, 8
1, 4158, Note_on_c, 1, 52, 0
1, 4160, Note_on_c, 1, 55, 20
1, 4238, Note_on_c, 1, 55, 0
1, 4240, Note_on_c, 1, 58, 28
1, 4318, Note_on_c, 1, 58, 0
1, 4320, Note_on_c, 1, 53, 42
1, 4328, Note_on_c, 0, 72, 66
1, 4398, Note_on_c, 1, 53, 0
1, 4400, Note_on_c, 1, 56, 45
1, 4478, Note_on_c, 1, 56, 0
1, 4480, Note_on_c, 1, 60, 35
1, 4512, Note_on_c, 0, 73, 61
1, 4517, Note_on_c, 0, 72, 0
1, 4532, Note_on_c, 0, 72, 46
1, 4540, Note_on_c, 0, 73, 0
1, 4553, Note_on_c, 0, 72, 0
1, 4554, Note_on_c, 0, 71, 64
1, 4558, Note_on_c, 1, 60, 0
1, 4560, Note_on_c, 1, 65, 33
1, 4578, Note_on_c, 0, 72, 60
1, 4585, Note_on_c, 0, 71, 0
1, 4638, Note_on_c, 1, 65, 0
1, 4640, Note_on_c, 1, 60, 55
1, 4705, Note_on_c, 0, 73, 68
1, 4718, Note_on_c, 0, 72, 0
1, 4718, Note_on_c, 1, 60, 0
1, 4720, Note_on_c, 1, 56, 47
1, 4792, Note_on_c, 0, 73, 0
1, 4798, Note_on_c, 0, 72, 76
1, 4798, Note_on_c, 1, 56, 0
1, 4800, Note_on_c, 1, 51, 35
1, 4878, Note_on_c, 1, 51, 0
1, 4880, Note_on_c, 1, 55, 46
1, 4958, Note_on_c, 1, 55, 0
1, 4960, Note_on_c, 1, 60, 45
1, 5038, Note_on_c, 1, 60, 0
1, 5040, Note_on_c, 1, 49, 58
1, 5041, Note_on_c, 0, 77, 62
1, 5065, Note_on_c, 0, 72, 0
1, 5097, Note_on_c, 0, 79, 67
1, 5105, Note_on_c, 0, 77, 0
1, 5118, Note_on_c, 1, 49, 0
1, 5120, Note_on_c, 1, 53, 55
1, 5163, Note_on_c, 0, 80, 67
1, 5165, Note_on_c, 0, 79, 0
1, 5198, Note_on_c, 1, 53, 0
1, 5200, Note_on_c, 1, 56, 50
1, 5278, Note_on_c, 1, 56, 0
1, 5280, Note_on_c, 1, 59, 45
1, 5294, Note_on_c, 0, 80, 0
1, 5358, Note_on_c, 1, 59, 0
1, 5360, Note_on_c, 1, 62, 48
1, 5438, Note_on_c, 1, 62, 0
1, 5440, Note_on_c, 1, 65, 38
1, 5518, Note_on_c, 1, 65, 0
1, 5520, Note_on_c, 0, 68, 46
1, 5598, Note_on_c, 0, 68, 0
1, 5600, Note_on_c, 0, 71, 61
1, 5678, Note_on_c, 0, 71, 0
1, 5680, Note_on_c, 0, 77, 50
1, 5758, Note_on_c, 0, 77, 0
1, 5760, Note_on_c, 0, 77, 50
1, 5760, Note_on_c, 1, 48, 55
1, 5781, Tempo, 1875000
1, 5971, Tempo, 2068966
1, 6000, Note_on_c, 0, 77, 0
1, 6000, Note_on_c, 0, 76, 17
1, 6078, Note_on_c, 0, 76, 0
1, 6080, Note_on_c, 0, 79, 34
1, 6158, Note_on_c, 0, 79, 0
1, 6160, Note_on_c, 0, 71, 55
1, 6238, Note_on_c, 0, 71, 0
1, 6238, Note_on_c, 1, 48, 0
1, 6240, Note_on_c, 0, 72, 55
1, 6273, Tempo, 2400000
1, 6318, Note_on_c, 0, 72, 0
1, 6320, Note_on_c, 0, 76, 46
1, 6386, Tempo, 2500000
1, 6398, Note_on_c, 0, 76, 0
1, 6400, Note_on_c, 0, 67, 38
1, 6478, Note_on_c, 0, 67, 0
1, 6480, Note_on_c, 1, 36, 40
1, 6718, Note_on_c, 1, 36, 0
1, 6952, Tempo, 1875000
1, 7200, Note_on_c, 0, 75, 55
1, 7200, Note_on_c, 1, 56, 40
1, 7238, Note_on_c, 0, 75, 0
1, 7240, Note_on_c, 0, 74, 58
1, 7278, Note_on_c, 0, 74, 0
1, 7278, Note_on_c, 1, 56, 0
1, 7280, Note_on_c, 0, 75, 50
1, 7280, Note_on_c, 1, 60, 28
1, 7358, Note_on_c, 1, 60, 0
1, 7360, Note_on_c, 1, 63, 48
1, 7438, Note_on_c, 1, 63, 0
1, 7440, Note_on_c, 1, 68, 47
1, 7518, Note_on_c, 1, 68, 0
1, 7520, Note_on_c, 1, 63, 28
1, 7598, Note_on_c, 1, 63, 0
1, 7600, Note_on_c, 1, 60, 35
1, 7678, Note_on_c, 0, 75, 0
1, 7678, Note_on_c, 1, 60, 0
1, 7680, Note_on_c, 1, 56, 52
1, 7758, Note_on_c, 1, 56, 0
1, 7760, Note_on_c, 0, 80, 75
1, 7760, Note_on_c, 1, 60, 47
1, 7838, Note_on_c, 0, 80, 0
1, 7838, Note_on_c, 1, 60, 0
1, 7840, Note_on_c, 0, 75, 54
1, 7840, Note_on_c, 1, 63, 24
1, 7918, Note_on_c, 0, 75, 0
1, 7918, Note_on_c, 1, 63, 0
1, 7920, Note_on_c, 0, 75, 65
1, 7920, Note_on_c, 1, 58, 42
1, 7998, Note_on_c, 0, 75, 0
1, 7998, Note_on_c, 1, 58, 0
1, 8000, Note_on_c, 0, 73, 67
1, 8000, Note_on_c, 1, 61, 57
1, 8078, Note_on_c, 0, 73, 0
1, 8078, Note_on_c, 1, 61, 0
1, 8080, Note_on_c, 0, 72, 67
1, 8080, Note_on_c, 1, 63, 38
1, 8158, Note_on_c, 0, 72, 0
1, 8158, Note_on_c, 1, 63, 0
1, 8160, Note_on_c, 0, 70, 58
1, 8160, Note_on_c, 1, 67, 56
1, 8238, Note_on_c, 1, 67, 0
1, 8240, Note_on_c, 1, 63, 27
1, 8318, Note_on_c, 1, 63, 0
1, 8320, Note_on_c, 1, 61, 26
1, 8398, Note_on_c, 0, 70, 0
1, 8398, Note_on_c, 1, 61, 0
1, 8400, Note_on_c, 1, 58, 46
1, 8478, Note_on_c, 1, 58, 0
1, 8480, Note_on_c, 0, 82, 78
1, 8480, Note_on_c, 1, 61, 36
1, 8558, Note_on_c, 0, 82, 0
1, 8558, Note_on_c, 1, 61, 0
1, 8560, Note_on_c, 0, 73, 54
1, 8560, Note_on_c, 1, 63, 36
1, 8638, Note_on_c, 0, 73, 0
1, 8638, Note_on_c, 1, 63, 0
1, 8640, Note_on_c, 0, 73, 67
1, 8640, Note_on_c, 1, 56, 55
1, 8718, Note_on_c, 0, 73, 0
1, 8718, Note_on_c, 1, 56, 0
1, 8720, Note_on_c, 0, 72, 57
1, 8720, Note_on_c, 1, 60, 52
1, 8798, Note_on_c, 0, 72, 0
1, 8798, Note_on_c, 1, 60, 0
1, 8800, Note_on_c, 0, 70, 54
1, 8800, Note_on_c, 1, 63, 47
1, 8878, Note_on_c, 0, 70, 0
1, 8878, Note_on_c, 1, 63, 0
1, 8880, Note_on_c, 0, 68, 46
1, 8960, Note_on_c, 1, 63, 21
1, 9038, Note_on_c, 0, 68, 0
1, 9038, Note_on_c, 1, 63, 0
1, 9040, Note_on_c, 1, 60, 33
1, 9118, Note_on_c, 1, 60, 0
1, 9120, Note_on_c, 1, 56, 43
1, 9198, Note_on_c, 1, 56, 0
1, 9200, Note_on_c, 0, 80, 76
1, 9200, Note_on_c, 1, 60, 33
1, 9278, Note_on_c, 0, 80, 0
1, 9278, Note_on_c, 1, 60, 0
1, 9280, Note_on_c, 0, 75, 39
1, 9280, Note_on_c, 1, 63, 11
1, 9358, Note_on_c, 0, 75, 0
1, 9358, Note_on_c, 1, 63, 0
1, 9360, Note_on_c, 0, 75, 67
1, 9360, Note_on_c, 1, 58, 48
1, 9438, Note_on_c, 0, 75, 0
1, 9438, Note_on_c, 1, 58, 0
1, 9440, Note_on_c, 0, 73, 38
1, 9440, Note_on_c, 1, 61, 42
1, 9518, Note_on_c, 0, 73, 0
1, 9518, Note_on_c, 1, 61, 0
1, 9520, Note_on_c, 0, 72, 58
1, 9520, Note_on_c, 1, 63, 41
1, 9598, Note_on_c, 0, 72, 0
1, 9598, Note_on_c, 1, 63, 0
1, 9600, Note_on_c, 0, 70, 54
1, 9600, Note_on_c, 1, 67, 48
1, 9678, Note_on_c, 1, 67, 0
1, 9680, Note_on_c, 1, 63, 33
1, 9758, Note_on_c, 0, 70, 0
1, 9758, Note_on_c, 1, 63, 0
1, 9760, Note_on_c, 1, 61, 37
1, 9838, Note_on_c, 1, 61, 0
1, 9840, Note_on_c, 1, 58, 46
1, 9918, Note_on_c, 1, 58, 0
1, 9920, Note_on_c, 0, 82, 68
1, 9920, Note_on_c, 1, 61, 27
1, 9998, Note_on_c, 0, 82, 0
1, 9998, Note_on_c, 1, 61, 0
1, 10000, Note_on_c, 0, 73, 58
1, 10000, Note_on_c, 1, 63, 23
1, 10078, Note_on_c, 0, 73, 0
1, 10078, Note_on_c, 1, 63, 0
1, 10080, Note_on_c, 1, 56, 52
1, 10083, Note_on_c, 0, 72, 55
1, 10158, Note_on_c, 1, 56, 0
1, 10160, Note_on_c, 1, 60, 46
1, 10163, Note_on_c, 0, 77, 64
1, 10173, Note_on_c, 0, 72, 0
1, 10235, Note_on_c, 0, 75, 57
1, 10238, Note_on_c, 1, 60, 0
1, 10240, Note_on_c, 1, 63, 45
1, 10253, Note_on_c, 0, 77, 0
1, 10294, Note_on_c, 0, 75, 0
1, 10316, Note_on_c, 0, 75, 55
1, 10318, Note_on_c, 1, 63, 0
1, 10320, Note_on_c, 1, 68, 47
1, 10362, Note_on_c, 0, 75, 0
1, 10366, Note_on_c, 0, 77, 56
1, 10389, Note_on_c, 0, 75, 55
1, 10392, Note_on_c, 0, 77, 0
1, 10398, Note_on_c, 1, 68, 0
1, 10400, Note_on_c, 1, 63, 24
1, 10419, Note_on_c, 0, 75, 0
1, 10423, Note_on_c, 0, 77, 58
1, 10438, Note_on_c, 0, 75, 56
1, 10445, Note_on_c, 0, 77, 0
1, 10463, Note_on_c, 0, 75, 0
1, 10469, Note_on_c, 0, 77, 63
1, 10478, Note_on_c, 1, 63, 0
1, 10480, Note_on_c, 1, 60, 45
1, 10487, Note_on_c, 0, 75, 60
1, 10492, Note_on_c, 0, 77, 0
1, 10514, Note_on_c, 0, 75, 0
1, 10515, Note_on_c, 0, 77, 69
1, 10537, Note_on_c, 0, 75, 53
1, 10540, Note_on_c, 0, 77, 0
1, 10558, Note_on_c, 1, 60, 0
1, 10560, Note_on_c, 0, 77, 67
1, 10560, Note_on_c, 1, 56, 53
1, 10562, Note_on_c, 0, 75, 0
1, 10580, Note_on_c, 0, 75, 62
1, 10580, Note_on_c, 0, 77, 0
1, 10605, Note_on_c, 0, 77, 71
1, 10606, Note_on_c, 0, 75, 0
1, 10631, Note_on_c, 0, 75, 68
1, 10638, Note_on_c, 1, 56, 0
1, 10640, Note_on_c, 1, 60, 40
1, 10642, Note_on_c, 0, 77, 0
1, 10671, Note_on_c, 0, 74, 61
1, 10671, Note_on_c, 0, 75, 0
1, 10714, Note_on_c, 0, 75, 79
1, 10718, Note_on_c, 1, 60, 0
1, 10720, Note_on_c, 1, 63, 24
1, 10722, Note_on_c, 0, 74, 0
1, 10785, Note_on_c, 0, 75, 0
1, 10793, Note_on_c, 0, 80, 52
1, 10798, Note_on_c, 1, 63, 0
1, 10800, Note_on_c, 1, 54, 52
1, 10878, Note_on_c, 1, 54, 0
1, 10880, Note_on_c, 1, 56, 43
1, 10885, Note_on_c, 0, 80, 0
1, 10886, Note_on_c, 0, 72, 61
1, 10958, Note_on_c, 1, 56, 0
1, 10960, Note_on_c, 1, 60, 46
1, 10961, Note_on_c, 0, 75, 67
1, 10971, Note_on_c, 0, 72, 0
1, 11011, Note_on_c, 0, 75, 0
1, 11029, Note_on_c, 0, 75, 71
1, 11038, Note_on_c, 1, 60, 0
1, 11040, Note_on_c, 1, 63, 48
1, 11085, Note_on_c, 0, 75, 0
1, 11085, Note_on_c, 0, 77, 66
1, 11115, Note_on_c, 0, 75, 57
1, 11117, Note_on_c, 0, 77, 0
1, 11118, Note_on_c, 1, 63, 0
1, 11120, Note_on_c, 1, 60, 27
1, 11145, Note_on_c, 0, 75, 0
1, 11147, Note_on_c, 0, 77, 67
1, 11169, Note_on_c, 0, 75, 55
1, 11175, Note_on_c, 0, 77, 0
1, 11197, Note_on_c, 0, 77, 66
1, 11197, Note_on_c, 0, 75, 0
1, 11198, Note_on_c, 1, 60, 0
1, 11200, Note_on_c, 1, 56, 46
1, 11220, Note_on_c, 0, 75, 58
1, 11224, Note_on_c, 0, 77, 0
1, 11242, Note_on_c, 0, 75, 0
1, 11242, Note_on_c, 0, 77, 71
1, 11264, Note_on_c, 0, 75, 64
1, 11269, Note_on_c, 0, 77, 0
1, 11278, Note_on_c, 1, 56, 0
1, 11280, Note_on_c, 1, 54, 45
1, 11282, Note_on_c, 0, 75, 0
1, 11286, Note_on_c, 0, 77, 28
1, 11303, Note_on_c, 0, 75, 58
1, 11311, Note_on_c, 0, 77, 0
1, 11323, Note_on_c, 0, 77, 62
1, 11324, Note_on_c, 0, 75, 0
1, 11342, Note_on_c, 0, 75, 61
1, 11348, Note_on_c, 0, 77, 0
1, 11358, Note_on_c, 1, 54, 0
1, 11360, Note_on_c, 1, 56, 42
1, 11368, Note_on_c, 0, 77, 69
1, 11368, Note_on_c, 0, 75, 0
1, 11390, Note_on_c, 0, 75, 62
1, 11397, Note_on_c, 0, 77, 0
1, 11419, Note_on_c, 0, 75, 0
1, 11422, Note_on_c, 0, 74, 67
1, 11438, Note_on_c, 1, 56, 0
1, 11440, Note_on_c, 1, 60, 27
1, 11466, Note_on_c, 0, 75, 76
1, 11478, Note_on_c, 0, 74, 0
1, 11518, Note_on_c, 1, 60, 0
1, 11520, Note_on_c, 1, 53, 53
1, 11526, Note_on_c, 0, 75, 0
1, 11529, Note_on_c, 0, 80, 66
1, 11598, Note_on_c, 1, 53, 0
1, 11600, Note_on_c, 1, 56, 51
1, 11609, Note_on_c, 0, 80, 0
1, 11610, Note_on_c, 0, 72, 66
1, 11678, Note_on_c, 1, 56, 0
1, 11680, Note_on_c, 1, 61, 45
1, 11687, Note_on_c, 0, 73, 58
1, 11692, Note_on_c, 0, 72, 0
1, 11746, Note_on_c, 0, 73, 0
1, 11758, Note_on_c, 1, 61, 0
1, 11760, Note_on_c, 1, 65, 37
1, 11761, Note_on_c, 0, 73, 58
1, 11819, Note_on_c, 0, 73, 0
1, 11819, Note_on_c, 0, 75, 66
1, 11838, Note_on_c, 1, 65, 0
1, 11840, Note_on_c, 1, 61, 23
1, 11846, Note_on_c, 0, 73, 42
1, 11849, Note_on_c, 0, 75, 0
1, 11870, Note_on_c, 0, 75, 63
1, 11872, Note_on_c, 0, 73, 0
1, 11893, Note_on_c, 0, 73, 58
1, 11899, Note_on_c, 0, 75, 0
1, 11916, Note_on_c, 0, 73, 0
1, 11918, Note_on_c, 1, 61, 0
1, 11920, Note_on_c, 0, 75, 50
1, 11920, Note_on_c, 1, 56, 50
1, 11941, Note_on_c, 0, 73, 33
1, 11952, Note_on_c, 0, 73, 0
1, 11975, Note_on_c, 0, 73, 55
1, 11981, Note_on_c, 0, 75, 0
1, 11997, Note_on_c, 0, 73, 0
1, 11998, Note_on_c, 0, 75, 61
1, 11998, Note_on_c, 1, 56, 0
1, 12000, Note_on_c, 1, 53, 58
1, 12023, Note_on_c, 0, 75, 0
1, 12024, Note_on_c, 0, 73, 48
1, 12045, Note_on_c, 0, 75, 63
1, 12050, Note_on_c, 0, 73, 0
1, 12067, Note_on_c, 0, 75, 0
1, 12078, Note_on_c, 1, 53, 0
1, 12080, Note_on_c, 1, 56, 50
1, 12082, Note_on_c, 0, 75, 56
1, 12108, Note_on_c, 0, 73, 62
1, 12123, Note_on_c, 0, 75, 0
1, 12136, Note_on_c, 0, 73, 0
1, 12136, Note_on_c, 0, 72, 63
1, 12158, Note_on_c, 1, 56, 0
1, 12160, Note_on_c, 1, 61, 50
1, 12173, Note_on_c, 0, 73, 69
1, 12185, Note_on_c, 0, 72, 0
1, 12226, Note_on_c, 0, 73, 0
1, 12238, Note_on_c, 1, 61, 0
1, 12239, Note_on_c, 0, 80, 64
1, 12240, Note_on_c, 1, 52, 55
1, 12318, Note_on_c, 1, 52, 0
1, 12320, Note_on_c, 0, 80, 0
1, 12320, Note_on_c, 1, 56, 36
1, 12325, Note_on_c, 0, 72, 84
1, 12396, Note_on_c, 0, 72, 0
1, 12398, Note_on_c, 1, 56, 0
1, 12400, Note_on_c, 0, 73, 84
1, 12400, Note_on_c, 1, 61, 35
1, 12457, Note_on_c, 0, 73, 0
1, 12478, Note_on_c, 1, 61, 0
1, 12480, Note_on_c, 1, 64, 48
1, 12482, Note_on_c, 0, 73, 66
1, 12524, Note_on_c, 0, 75, 56
1, 12527, Note_on_c, 0, 73, 0
1, 12551, Note_on_c, 0, 73, 55
1, 12552, Note_on_c, 0, 75, 0
1, 12558, Note_on_c, 1, 64, 0
1, 12560, Note_on_c, 1, 61, 32
1, 12573, Note_on_c, 0, 75, 62
1, 12575, Note_on_c, 0, 73, 0
1, 12598, Note_on_c, 0, 73, 58
1, 12603, Note_on_c, 0, 75, 0
1, 12620, Note_on_c, 0, 75, 60
1, 12621, Note_on_c, 0, 73, 0
1, 12638, Note_on_c, 1, 61, 0
1, 12640, Note_on_c, 1, 56, 27
1, 12641, Note_on_c, 0, 73, 58
1, 12641, Note_on_c, 0, 75, 0
1, 12662, Note_on_c, 0, 73, 0
1, 12664, Note_on_c, 0, 75, 67
1, 12688, Note_on_c, 0, 75, 0
1, 12689, Note_on_c, 0, 73, 51
1, 12711, Note_on_c, 0, 75, 67
1, 12712, Note_on_c, 0, 73, 0
1, 12718, Note_on_c, 1, 56, 0
1, 12720, Note_on_c, 1, 52, 55
1, 12732, Note_on_c, 0, 75, 0
1, 12738, Note_on_c, 0, 73, 53
1, 12759, Note_on_c, 0, 75, 64
1, 12763, Note_on_c, 0, 73, 0
1, 12779, Note_on_c, 0, 75, 0
1, 12790, Note_on_c, 0, 75, 64
1, 12798, Note_on_c, 1, 52, 0
1, 12800, Note_on_c, 1, 56, 47
1, 12818, Note_on_c, 0, 73, 67
1, 12829, Note_on_c, 0, 75, 0
1, 12846, Note_on_c, 0, 73, 0
1, 12847, Note_on_c, 0, 72, 64
1, 12878, Note_on_c, 1, 56, 0
1, 12880, Note_on_c, 1, 61, 24
1, 12887, Note_on_c, 0, 73, 68
1, 12891, Note_on_c, 0, 72, 0
1, 12952, Note_on_c, 0, 73, 0
1, 12954, Note_on_c, 0, 73, 87
1, 12958, Note_on_c, 1, 61, 0
1, 12960, Note_on_c, 1, 51, 56
1, 13052, Note_on_c, 0, 73, 0
1, 13052, Note_on_c, 0, 67, 63
1, 13120, Note_on_c, 0, 79, 67
1, 13141, Note_on_c, 0, 67, 0
1, 13198, Note_on_c, 0, 79, 0
1, 13200, Note_on_c, 0, 73, 67
1, 13278, Note_on_c, 0, 73, 0
1, 13280, Note_on_c, 0, 82, 73
1, 13358, Note_on_c, 0, 82, 0
1, 13360, Note_on_c, 0, 79, 66
1, 13438, Note_on_c, 0, 79, 0
1, 13440, Note_on_c, 0, 85, 71
1, 13678, Note_on_c, 1, 51, 0
1, 13680, Note_on_c, 1, 55, 53
1, 13758, Note_on_c, 0, 85, 0
1, 13760, Note_on_c, 0, 84, 51
1, 13838, Note_on_c, 0, 84, 0
1, 13840, Note_on_c, 0, 82, 56
1, 13918, Note_on_c, 0, 82, 0
1, 13920, Note_on_c, 0, 80, 53
1, 13998, Note_on_c, 0, 80, 0
1, 14000, Note_on_c, 0, 79, 57
1, 14078, Note_on_c, 0, 79, 0
1, 14080, Note_on_c, 0, 77, 52
1, 14158, Note_on_c, 0, 77, 0
1, 14160, Note_on_c, 0, 75, 57
1, 14238, Note_on_c, 0, 75, 0
1, 14240, Note_on_c, 0, 82, 66
1, 14318, Note_on_c, 0, 82, 0
1, 14320, Note_on_c, 0, 73, 50
1, 14398, Note_on_c, 0, 73, 0
1, 14398, Note_on_c, 1, 55, 0
1, 14400, Note_on_c, 0, 72, 64
1, 14400, Note_on_c, 1, 56, 58
1, 14478, Note_on_c, 0, 72, 0
1, 14480, Note_on_c, 0, 84, 67
1, 14558, Note_on_c, 0, 84, 0
1, 14560, Note_on_c, 0, 75, 60
1, 14638, Note_on_c, 0, 75, 0
1, 14638, Note_on_c, 1, 56, 0
1, 14640, Note_on_c, 0, 80, 68
1, 14718, Note_on_c, 0, 80, 0
1, 14720, Note_on_c, 0, 72, 66
1, 14798, Note_on_c, 0, 72, 0
1, 14800, Note_on_c, 0, 75, 57
1, 14878, Note_on_c, 0, 75, 0
1, 14880, Note_on_c, 0, 68, 64
1, 14958, Note_on_c, 0, 68, 0
1, 14960, Note_on_c, 0, 72, 67
1, 15038, Note_on_c, 0, 72, 0
1, 15040, Note_on_c, 0, 63, 48
1, 15118, Note_on_c, 0, 63, 0
1, 15120, Note_on_c, 0, 68, 67
1, 15198, Note_on_c, 0, 68, 0
1, 15200, Note_on_c, 0, 60, 53
1, 15200, Note_on_c, 1, 48, 53
1, 15278, Note_on_c, 0, 60, 0
1, 15278, Note_on_c, 1, 48, 0
1, 15280, Note_on_c, 0, 63, 55
1, 15280, Note_on_c, 1, 51, 55
1, 15358, Note_on_c, 0, 63, 0
1, 15358, Note_on_c, 1, 51, 0
1, 15360, Note_on_c, 0, 56, 64
1, 15360, Note_on_c, 1, 44, 64
1, 15438, Note_on_c, 0, 56, 0
1, 15438, Note_on_c, 1, 44, 0
1, 15440, Note_on_c, 0, 60, 63
1, 15440, Note_on_c, 1, 48, 63
1, 15518, Note_on_c, 0, 60, 0
1, 15518, Note_on_c, 1, 48, 0
1, 15520, Note_on_c, 0, 63, 63
1, 15520, Note_on_c, 1, 51, 63
1, 15598, Note_on_c, 0, 63, 0
1, 15598, Note_on_c, 1, 51, 0
1, 15600, Note_on_c, 0, 54, 71
1, 15600, Note_on_c, 1, 42, 71
1, 15678, Note_on_c, 0, 54, 0
1, 15678, Note_on_c, 1, 42, 0
1, 15680, Note_on_c, 0, 63, 60
1, 15680, Note_on_c, 1, 51, 60
1, 15758, Note_on_c, 0, 63, 0
1, 15758, Note_on_c, 1, 51, 0
1, 15760, Note_on_c, 0, 54, 51
1, 15760, Note_on_c, 1, 42, 51
1, 15838, Note_on_c, 0, 54, 0
1, 15838, Note_on_c, 1, 42, 0
1, 15840, Note_on_c, 0, 53, 48
1, 15840, Note_on_c, 1, 41, 48
1, 15918, Note_on_c, 0, 53, 0
1, 15918, Note_on_c, 1, 41, 0
1, 15920, Note_on_c, 0, 61, 56
1, 15998, Note_on_c, 0, 61, 0
1, 16000, Note_on_c, 0, 56, 58
1, 16078, Note_on_c, 0, 56, 0
1, 16080, Note_on_c, 0, 65, 61
1, 16158, Note_on_c, 0, 65, 0
1, 16160, Note_on_c, 0, 61, 51
1, 16238, Note_on_c, 0, 61, 0
1, 16240, Note_on_c, 0, 68, 68
1, 16318, Note_on_c, 0, 68, 0
1, 16320, Note_on_c, 0, 65, 62
1, 16398, Note_on_c, 0, 65, 0
1, 16400, Note_on_c, 0, 73, 63
1, 16478, Note_on_c, 0, 73, 0
1, 16480, Note_on_c, 0, 68, 60
1, 16558, Note_on_c, 0, 68, 0
1, 16560, Note_on_c, 0, 77, 76
1, 16560, Note_on_c, 1, 49, 57
1, 16798, Note_on_c, 1, 49, 0
1, 16800, Note_on_c, 1, 61, 53
1, 16878, Note_on_c, 0, 77, 0
1, 16880, Note_on_c, 0, 76, 57
1, 16958, Note_on_c, 0, 76, 0
1, 16960, Note_on_c, 0, 77, 64
1, 17038, Note_on_c, 0, 77, 0
1, 17038, Note_on_c, 1, 61, 0
1, 17040, Note_on_c, 0, 80, 64
1, 17118, Note_on_c, 0, 80, 0
1, 17120, Note_on_c, 0, 72, 69
1, 17198, Note_on_c, 0, 72, 0
1, 17200, Note_on_c, 0, 73, 57
1, 17278, Note_on_c, 0, 73, 0
1, 17280, Note_on_c, 0, 77, 58
1, 17358, Note_on_c, 0, 77, 0
1, 17360, Note_on_c, 0, 65, 60
1, 17438, Note_on_c, 0, 65, 0
1, 17440, Note_on_c, 0, 77, 63
1, 17518, Note_on_c, 0, 77, 0
1, 17520, Note_on_c, 0, 76, 63
1, 17598, Note_on_c, 0, 76, 0
1, 17600, Note_on_c, 0, 75, 50
1, 17678, Note_on_c, 0, 75, 0
1, 17680, Note_on_c, 0, 74, 43
1, 17758, Note_on_c, 0, 74, 0
1, 17760, Note_on_c, 0, 73, 55
1, 17838, Note_on_c, 0, 73, 0
1, 17840, Note_on_c, 0, 72, 55
1, 17918, Note_on_c, 0, 72, 0
1, 17920, Note_on_c, 0, 70, 45
1, 17998, Note_on_c, 0, 70, 0
1, 18000, Note_on_c, 0, 68, 46
1, 18000, Note_on_c, 1, 51, 45
1, 18078, Note_on_c, 1, 51, 0
1, 18080, Note_on_c, 1, 56, 56
1, 18158, Note_on_c, 1, 56, 0
1, 18160, Note_on_c, 1, 60, 62
1, 18238, Note_on_c, 1, 60, 0
1, 18240, Note_on_c, 1, 63, 60
1, 18318, Note_on_c, 1, 63, 0
1, 18320, Note_on_c, 1, 60, 46
1, 18398, Note_on_c, 1, 60, 0
1, 18400, Note_on_c, 1, 56, 47
1, 18478, Note_on_c, 0, 68, 0
1, 18478, Note_on_c, 1, 56, 0
1, 18480, Note_on_c, 0, 72, 55
1, 18480, Note_on_c, 1, 51, 53
1, 18558, Note_on_c, 0, 72, 0
1, 18558, Note_on_c, 1, 51, 0
1, 18560, Note_on_c, 0, 70, 62
1, 18560, Note_on_c, 1, 56, 55
1, 18638, Note_on_c, 0, 70, 0
1, 18638, Note_on_c, 1, 56, 0
1, 18640, Note_on_c, 0, 68, 47
1, 18640, Note_on_c, 1, 60, 45
1, 18718, Note_on_c, 0, 68, 0
1, 18718, Note_on_c, 1, 60, 0
1, 18720, Note_on_c, 0, 75, 57
1, 18720, Note_on_c, 1, 51, 56
1, 18798, Note_on_c, 1, 51, 0
1, 18800, Note_on_c, 1, 56, 42
1, 18878, Note_on_c, 1, 56, 0
1, 18880, Note_on_c, 1, 60, 48
1, 18958, Note_on_c, 0, 75, 0
1, 18958, Note_on_c, 1, 60, 0
1, 18960, Note_on_c, 1, 63, 51
1, 19038, Note_on_c, 1, 63, 0
1, 19040, Note_on_c, 1, 60, 32
1, 19118, Note_on_c, 1, 60, 0
1, 19120, Note_on_c, 1, 56, 51
1, 19198, Note_on_c, 1, 56, 0
1, 19200, Note_on_c, 1, 51, 46
1, 19278, Note_on_c, 1, 51, 0
1, 19280, Note_on_c, 1, 56, 45
1, 19358, Note_on_c, 1, 56, 0
1, 19360, Note_on_c, 1, 60, 46
1, 19433, Note_on_c, 0, 74, 71
1, 19438, Note_on_c, 1, 60, 0
1, 19440, Note_on_c, 1, 53, 58
1, 19518, Note_on_c, 1, 53, 0
1, 19520, Note_on_c, 1, 56, 53
1, 19598, Note_on_c, 1, 56, 0
1, 19600, Note_on_c, 1, 58, 37
1, 19611, Note_on_c, 0, 74, 0
1, 19612, Note_on_c, 0, 75, 47
1, 19630, Note_on_c, 0, 74, 64
1, 19652, Note_on_c, 0, 75, 0
1, 19655, Note_on_c, 0, 74, 0
1, 19656, Note_on_c, 0, 72, 63
1, 19678, Note_on_c, 1, 58, 0
1, 19680, Note_on_c, 1, 62, 55
1, 19689, Note_on_c, 0, 72, 0
1, 19690, Note_on_c, 0, 74, 79
1, 19758, Note_on_c, 1, 62, 0
1, 19760, Note_on_c, 1, 58, 43
1, 19811, Note_on_c, 0, 75, 66
1, 19818, Note_on_c, 0, 74, 0
1, 19838, Note_on_c, 1, 58, 0
1, 19840, Note_on_c, 1, 56, 55
1, 19918, Note_on_c, 1, 56, 0
1, 19920, Note_on_c, 1, 53, 58
1, 19923, Note_on_c, 0, 77, 68
1, 19930, Note_on_c, 0, 75, 0
1, 19998, Note_on_c, 1, 53, 0
1, 20000, Note_on_c, 1, 56, 57
1, 20010, Note_on_c, 0, 75, 67
1, 20012, Note_on_c, 0, 77, 0
1, 20078, Note_on_c, 1, 56, 0
1, 20080, Note_on_c, 1, 58, 38
1, 20087, Note_on_c, 0, 74, 79
1, 20097, Note_on_c, 0, 75, 0
1, 20154, Note_on_c, 0, 74, 0
1, 20158, Note_on_c, 1, 58, 0
1, 20160, Note_on_c, 0, 84, 62
1, 20160, Note_on_c, 1, 53, 61
1, 20238, Note_on_c, 0, 84, 0
1, 20238, Note_on_c, 1, 53, 0
1, 20240, Note_on_c, 0, 84, 55
1, 20240, Note_on_c, 1, 56, 55
1, 20318, Note_on_c, 0, 84, 0
1, 20318, Note_on_c, 1, 56, 0
1, 20320, Note_on_c, 0, 82, 52
1, 20320, Note_on_c, 1, 58, 30
1, 20398, Note_on_c, 0, 82, 0
1, 20398, Note_on_c, 1, 58, 0
1, 20400, Note_on_c, 0, 80, 57
1, 20400, Note_on_c, 1, 62, 51
1, 20478, Note_on_c, 0, 80, 0
1, 20478, Note_on_c, 1, 62, 0
1, 20480, Note_on_c, 0, 79, 64
1, 20480, Note_on_c, 1, 58, 35
1, 20558, Note_on_c, 0, 79, 0
1, 20558, Note_on_c, 1, 58, 0
1, 20560, Note_on_c, 0, 77, 62
1, 20560, Note_on_c, 1, 56, 50
1, 20638, Note_on_c, 0, 77, 0
1, 20638, Note_on_c, 1, 56, 0
1, 20640, Note_on_c, 0, 75, 42
1, 20640, Note_on_c, 1, 53, 51
1, 20718, Note_on_c, 0, 75, 0
1, 20718, Note_on_c, 1, 53, 0
1, 20720, Note_on_c, 0, 74, 56
1, 20720, Note_on_c, 1, 56, 53
1, 20798, Note_on_c, 0, 74, 0
1, 20798, Note_on_c, 1, 56, 0
1, 20800, Note_on_c, 0, 77, 61
1, 20800, Note_on_c, 1, 58, 48
1, 20878, Note_on_c, 0, 77, 0
1, 20878, Note_on_c, 1, 58, 0
1, 20880, Note_on_c, 0, 75, 61
1, 20880, Note_on_c, 1, 55, 52
1, 20958, Note_on_c, 1, 55, 0
1, 20960, Note_on_c, 1, 58, 50
1, 21038, Note_on_c, 1, 58, 0
1, 21040, Note_on_c, 1, 63, 51
1, 21118, Note_on_c, 1, 63, 0
1, 21120, Note_on_c, 1, 67, 36
1, 21198, Note_on_c, 1, 67, 0
1, 21200, Note_on_c, 1, 63, 37
1, 21278, Note_on_c, 1, 63, 0
1, 21280, Note_on_c, 1, 58, 53
1, 21358, Note_on_c, 1, 58, 0
1, 21360, Note_on_c, 1, 55, 55
1, 21438, Note_on_c, 0, 75, 0
1, 21438, Note_on_c, 1, 55, 0
1, 21440, Note_on_c, 0, 77, 31
1, 21440, Note_on_c, 1, 58, 48
1, 21518, Note_on_c, 0, 77, 0
1, 21518, Note_on_c, 1, 58, 0
1, 21520, Note_on_c, 0, 73, 51
1, 21520, Note_on_c, 1, 63, 43
1, 21598, Note_on_c, 0, 73, 0
1, 21598, Note_on_c, 1, 63, 0
1, 21600, Note_on_c, 0, 73, 52
1, 21600, Note_on_c, 1, 56, 45
1, 21678, Note_on_c, 0, 73, 0
1, 21678, Note_on_c, 1, 56, 0
1, 21680, Note_on_c, 0, 72, 57
1, 21680, Note_on_c, 1, 60, 50
1, 21758, Note_on_c, 0, 72, 0
1, 21758, Note_on_c, 1, 60, 0
1, 21760, Note_on_c, 0, 70, 34
1, 21760, Note_on_c, 1, 63, 57
1, 21838, Note_on_c, 0, 70, 0
1, 21838, Note_on_c, 1, 63, 0
1, 21840, Note_on_c, 0, 68, 43
1, 21920, Note_on_c, 1, 63, 34
1, 21998, Note_on_c, 1, 63, 0
1, 22000, Note_on_c, 1, 60, 38
1, 22078, Note_on_c, 0, 68, 0
1, 22078, Note_on_c, 1, 60, 0
1, 22080, Note_on_c, 1, 56, 35
1, 22158, Note_on_c, 1, 56, 0
1, 22160, Note_on_c, 0, 80, 58
1, 22160, Note_on_c, 1, 60, 37
1, 22238, Note_on_c, 0, 80, 0
1, 22238, Note_on_c, 1, 60, 0
1, 22240, Note_on_c, 0, 75, 36
1, 22240, Note_on_c, 1, 63, 34
1, 22300, Note_on_c, 0, 77, 28
1, 22318, Note_on_c, 0, 75, 0
1, 22318, Note_on_c, 0, 77, 0
1, 22318, Note_on_c, 1, 63, 0
1, 22320, Note_on_c, 0, 75, 52
1, 22320, Note_on_c, 1, 58, 55
1, 22398, Note_on_c, 0, 75, 0
1, 22398, Note_on_c, 1, 58, 0
1, 22400, Note_on_c, 0, 73, 56
1, 22400, Note_on_c, 1, 61, 42
1, 22478, Note_on_c, 0, 73, 0
1, 22478, Note_on_c, 1, 61, 0
1, 22480, Note_on_c, 0, 72, 56
1, 22480, Note_on_c, 1, 63, 34
1, 22558, Note_on_c, 0, 72, 0
1, 22558, Note_on_c, 1, 63, 0
1, 22560, Note_on_c, 0, 70, 43
1, 22560, Note_on_c, 1, 67, 43
1, 22638, Note_on_c, 1, 67, 0
1, 22640, Note_on_c, 1, 63, 35
1, 22718, Note_on_c, 0, 70, 0
1, 22718, Note_on_c, 1, 63, 0
1, 22720, Note_on_c, 1, 61, 35
1, 22798, Note_on_c, 1, 61, 0
1, 22800, Note_on_c, 1, 58, 45
1, 22878, Note_on_c, 1, 58, 0
1, 22880, Note_on_c, 0, 82, 64
1, 22880, Note_on_c, 1, 61, 33
1, 22958, Note_on_c, 0, 82, 0
1, 22958, Note_on_c, 1, 61, 0
1, 22960, Note_on_c, 0, 73, 35
1, 22960, Note_on_c, 1, 63, 23
1, 23038, Note_on_c, 0, 73, 0
1, 23038, Note_on_c, 1, 63, 0
1, 23040, Note_on_c, 0, 73, 55
1, 23040, Note_on_c, 1, 56, 48
1, 23118, Note_on_c, 0, 73, 0
1, 23118, Note_on_c, 1, 56, 0
1, 23120, Note_on_c, 0, 72, 52
1, 23120, Note_on_c, 1, 60, 42
1, 23198, Note_on_c, 0, 72, 0
1, 23198, Note_on_c, 1, 60, 0
1, 23200, Note_on_c, 0, 70, 42
1, 23200, Note_on_c, 1, 63, 45
1, 23278, Note_on_c, 0, 70, 0
1, 23278, Note_on_c, 1, 63, 0
1, 23280, Note_on_c, 0, 68, 36
1, 23280, Note_on_c, 1, 68, 41
1, 23358, Note_on_c, 1, 68, 0
1, 23360, Note_on_c, 1, 63, 36
1, 23438, Note_on_c, 0, 68, 0
1, 23438, Note_on_c, 1, 63, 0
1, 23440, Note_on_c, 1, 60, 45
1, 23518, Note_on_c, 1, 60, 0
1, 23520, Note_on_c, 1, 56, 36
1, 23598, Note_on_c, 1, 56, 0
1, 23600, Note_on_c, 0, 80, 58
1, 23600, Note_on_c, 1, 60, 45
1, 23678, Note_on_c, 0, 80, 0
1, 23678, Note_on_c, 1, 60, 0
1, 23680, Note_on_c, 0, 75, 36
1, 23680, Note_on_c, 1, 63, 28
1, 23740, Note_on_c, 0, 77, 28
1, 23758, Note_on_c, 0, 75, 0
1, 23758, Note_on_c, 0, 77, 0
1, 23758, Note_on_c, 1, 63, 0
1, 23760, Note_on_c, 0, 75, 52
1, 23760, Note_on_c, 1, 58, 52
1, 23838, Note_on_c, 0, 75, 0
1, 23838, Note_on_c, 1, 58, 0
1, 23840, Note_on_c, 0, 73, 56
1, 23840, Note_on_c, 1, 61, 45
1, 23918, Note_on_c, 0, 73, 0
1, 23918, Note_on_c, 1, 61, 0
1, 23920, Note_on_c, 0, 72, 56
1, 23920, Note_on_c, 1, 63, 41
1, 23998, Note_on_c, 0, 72, 0
1, 23998, Note_on_c, 1, 63, 0
1, 24000, Note_on_c, 0, 70, 43
1, 24000, Note_on_c, 1, 67, 46
1, 24078, Note_on_c, 1, 67, 0
1, 24080, Note_on_c, 1, 63, 27
1, 24158, Note_on_c, 0, 70, 0
1, 24158, Note_on_c, 1, 63, 0
1, 24160, Note_on_c, 1, 61, 28
1, 24238, Note_on_c, 1, 61, 0
1, 24240, Note_on_c, 1, 58, 42
1, 24318, Note_on_c, 1, 58, 0
1, 24320, Note_on_c, 0, 82, 64
1, 24320, Note_on_c, 1, 61, 26
1, 24398, Note_on_c, 0, 82, 0
1, 24398, Note_on_c, 1, 61, 0
1, 24400, Note_on_c, 0, 73, 35
1, 24400, Note_on_c, 1, 63, 32
1, 24478, Note_on_c, 0, 73, 0
1, 24478, Note_on_c, 1, 63, 0
1, 24480, Note_on_c, 0, 72, 61
1, 24480, Note_on_c, 1, 56, 55
1, 24558, Note_on_c, 0, 72, 0
1, 24558, Note_on_c, 1, 56, 0
1, 24560, Note_on_c, 0, 80, 64
1, 24560, Note_on_c, 1, 60, 48
1, 24638, Note_on_c, 0, 80, 0
1, 24638, Note_on_c, 1, 60, 0
1, 24640, Note_on_c, 0, 78, 64
1, 24640, Note_on_c, 1, 63, 47
1, 24718, Note_on_c, 0, 78, 0
1, 24718, Note_on_c, 1, 63, 0
1, 24720, Note_on_c, 0, 78, 56
1, 24720, Note_on_c, 1, 68, 61
1, 24798, Note_on_c, 1, 68, 0
1, 24800, Note_on_c, 1, 63, 41
1, 24878, Note_on_c, 1, 63, 0
1, 24880, Note_on_c, 1, 60, 52
1, 24958, Note_on_c, 1, 60, 0
1, 24960, Note_on_c, 1, 56, 46
1, 25038, Note_on_c, 0, 78, 0
1, 25038, Note_on_c, 1, 56, 0
1, 25040, Note_on_c, 0, 75, 53
1, 25040, Note_on_c, 1, 60, 43
1, 25118, Note_on_c, 0, 75, 0
1, 25118, Note_on_c, 1, 60, 0
1, 25120, Note_on_c, 0, 72, 55
1, 25120, Note_on_c, 1, 63, 23
1, 25198, Note_on_c, 0, 72, 0
1, 25198, Note_on_c, 1, 63, 0
1, 25200, Note_on_c, 0, 70, 63
1, 25200, Note_on_c, 1, 60, 52
1, 25278, Note_on_c, 0, 70, 0
1, 25280, Note_on_c, 0, 68, 55
1, 25358, Note_on_c, 0, 68, 0
1, 25360, Note_on_c, 0, 75, 55
1, 25438, Note_on_c, 0, 75, 0
1, 25440, Note_on_c, 0, 68, 57
1, 25518, Note_on_c, 0, 68, 0
1, 25520, Note_on_c, 0, 67, 55
1, 25598, Note_on_c, 0, 67, 0
1, 25600, Note_on_c, 0, 75, 52
1, 25678, Note_on_c, 0, 75, 0
1, 25680, Note_on_c, 0, 68, 58
1, 25758, Note_on_c, 0, 68, 0
1, 25760, Note_on_c, 0, 66, 45
1, 25838, Note_on_c, 0, 66, 0
1, 25840, Note_on_c, 0, 75, 55
1, 25918, Note_on_c, 0, 75, 0
1, 25918, Note_on_c, 1, 60, 0
1, 25920, Note_on_c, 0, 66, 55
1, 25920, Note_on_c, 1, 61, 56
1, 25998, Note_on_c, 0, 66, 0
1, 26000, Note_on_c, 0, 64, 52
1, 26078, Note_on_c, 0, 64, 0
1, 26080, Note_on_c, 0, 65, 60
1, 26158, Note_on_c, 0, 65, 0
1, 26160, Note_on_c, 0, 69, 56
1, 26238, Note_on_c, 0, 69, 0
1, 26240, Note_on_c, 0, 70, 64
1, 26318, Note_on_c, 0, 70, 0
1, 26320, Note_on_c, 0, 73, 66
1, 26398, Note_on_c, 0, 73, 0
1, 26398, Note_on_c, 1, 61, 0
1, 26400, Note_on_c, 0, 77, 68
1, 26478, Note_on_c, 0, 77, 0
1, 26480, Note_on_c, 0, 73, 55
1, 26558, Note_on_c, 0, 73, 0
1, 26560, Note_on_c, 0, 70, 41
1, 26638, Note_on_c, 0, 70, 0
1, 26640, Note_on_c, 0, 68, 55
1, 26640, Note_on_c, 1, 51, 37
1, 26718, Note_on_c, 1, 51, 0
1, 26720, Note_on_c, 1, 56, 61
1, 26798, Note_on_c, 1, 56, 0
1, 26800, Note_on_c, 1, 60, 52
1, 26878, Note_on_c, 1, 60, 0
1, 26880, Note_on_c, 1, 63, 56
1, 26958, Note_on_c, 1, 63, 0
1, 26960, Note_on_c, 1, 60, 47
1, 27038, Note_on_c, 0, 68, 0
1, 27038, Note_on_c, 1, 60, 0
1, 27040, Note_on_c, 1, 56, 45
1, 27080, Note_on_c, 0, 72, 47
1, 27098, Note_on_c, 0, 72, 0
1, 27118, Note_on_c, 1, 56, 0
1, 27120, Note_on_c, 0, 70, 54
1, 27120, Note_on_c, 1, 51, 48
1, 27198, Note_on_c, 1, 51, 0
1, 27200, Note_on_c, 1, 58, 52
1, 27238, Note_on_c, 0, 70, 0
1, 27240, Note_on_c, 0, 68, 54
1, 27278, Note_on_c, 1, 58, 0
1, 27280, Note_on_c, 1, 61, 52
1, 27358, Note_on_c, 0, 68, 0
1, 27358, Note_on_c, 1, 61, 0
1, 27360, Note_on_c, 0, 68, 56
1, 27360, Note_on_c, 1, 56, 46
1, 27438, Note_on_c, 0, 68, 0
1, 27440, Note_on_c, 0, 75, 35
1, 27518, Note_on_c, 0, 75, 0
1, 27520, Note_on_c, 0, 67, 62
1, 27598, Note_on_c, 0, 67, 0
1, 27598, Note_on_c, 1, 56, 0
1, 27600, Note_on_c, 0, 68, 50
1, 27618, Note_on_c, 0, 68, 0
1, 27620, Note_on_c, 0, 67, 55
1, 27638, Note_on_c, 0, 67, 0
1, 27640, Note_on_c, 0, 68, 38
1, 27680, Note_on_c, 0, 72, 63
1, 27698, Note_on_c, 0, 68, 0
1, 27758, Note_on_c, 0, 72, 0
1, 27760, Note_on_c, 0, 63, 46
1, 27838, Note_on_c, 0, 63, 0
1, 27840, Note_on_c, 0, 61, 51
1, 27840, Note_on_c, 1, 58, 31
1, 27840, Note_on_c, 1, 51, 47
1, 27865, Note_on_c, 0, 61, 0
1, 27867, Note_on_c, 0, 63, 53
1, 27891, Note_on_c, 0, 63, 0
1, 27893, Note_on_c, 0, 61, 35
1, 27918, Note_on_c, 0, 61, 0
1, 27920, Note_on_c, 0, 63, 48
1, 27945, Note_on_c, 0, 63, 0
1, 27947, Note_on_c, 0, 61, 41
1, 27971, Note_on_c, 0, 61, 0
1, 27973, Note_on_c, 0, 63, 56
1, 27998, Note_on_c, 0, 63, 0
1, 28000, Note_on_c, 0, 61, 43
1, 28025, Note_on_c, 0, 61, 0
1, 28027, Note_on_c, 0, 60, 55
1, 28051, Note_on_c, 0, 60, 0
1, 28053, Note_on_c, 0, 61, 43
1, 28078, Note_on_c, 0, 61, 0
1, 28078, Note_on_c, 1, 58, 0
1, 28078, Note_on_c, 1, 51, 0
1, 28080, Note_on_c, 0, 60, 56
1, 28080, Note_on_c, 1, 44, 52
1, 28080, Note_on_c, 1, 56, 38
1, 28158, Note_on_c, 0, 60, 0
1, 28160, Note_on_c, 0, 75, 35
1, 28238, Note_on_c, 0, 75, 0
1, 28240, Note_on_c, 0, 67, 62
1, 28318, Note_on_c, 0, 67, 0
1, 28318, Note_on_c, 1, 44, 0
1, 28318, Note_on_c, 1, 56, 0
1, 28320, Note_on_c, 0, 68, 50
1, 28338, Note_on_c, 0, 68, 0
1, 28340, Note_on_c, 0, 67, 55
1, 28358, Note_on_c, 0, 67, 0
1, 28360, Note_on_c, 0, 68, 38
1, 28400, Note_on_c, 0, 72, 63
1, 28418, Note_on_c, 0, 68, 0
1, 28478, Note_on_c, 0, 72, 0
1, 28480, Note_on_c, 0, 63, 46
1, 28558, Note_on_c, 0, 63, 0
1, 28560, Note_on_c, 0, 61, 51
1, 28560, Note_on_c, 1, 58, 40
1, 28560, Note_on_c, 1, 51, 55
1, 28585, Note_on_c, 0, 61, 0
1, 28587, Note_on_c, 0, 63, 53
1, 28612, Note_on_c, 0, 63, 0
1, 28613, Note_on_c, 0, 61, 35
1, 28638, Note_on_c, 0, 61, 0
1, 28640, Note_on_c, 0, 63, 48
1, 28665, Note_on_c, 0, 63, 0
1, 28667, Note_on_c, 0, 61, 41
1, 28692, Note_on_c, 0, 61, 0
1, 28693, Note_on_c, 0, 63, 56
1, 28718, Note_on_c, 0, 63, 0
1, 28720, Note_on_c, 0, 61, 43
1, 28745, Note_on_c, 0, 61, 0
1, 28747, Note_on_c, 0, 60, 55
1, 28772, Note_on_c, 0, 60, 0
1, 28773, Note_on_c, 0, 61, 43
1, 28798, Note_on_c, 0, 61, 0
1, 28798, Note_on_c, 1, 58, 0
1, 28798, Note_on_c, 1, 51, 0
1, 28800, Note_on_c, 0, 61, 69
1, 28800, Note_on_c, 1, 44, 42
1, 28821, Tempo, 1875000
1, 28878, Note_on_c, 1, 44, 0
1, 28880, Note_on_c, 1, 56, 57
1, 28958, Note_on_c, 1, 56, 0
1, 28960, Note_on_c, 1, 55, 53
1, 29011, Tempo, 2068966
1, 29038, Note_on_c, 0, 61, 0
1, 29038, Note_on_c, 1, 55, 0
1, 29040, Note_on_c, 0, 60, 44
1, 29040, Note_on_c, 1, 56, 52
1, 29118, Note_on_c, 1, 56, 0
1, 29120, Note_on_c, 1, 51, 52
1, 29198, Note_on_c, 1, 51, 0
1, 29200, Note_on_c, 1, 48, 58
1, 29278, Note_on_c, 1, 48, 0
1, 29280, Note_on_c, 1, 51, 50
1, 29313, Tempo, 2400000
1, 29358, Note_on_c, 1, 51, 0
1, 29360, Note_on_c, 1, 48, 57
1, 29426, Tempo, 2500000
1, 29438, Note_on_c, 1, 48, 0
1, 29440, Note_on_c, 1, 44, 51
1, 29518, Note_on_c, 0, 60, 0
1, 29518, Note_on_c, 1, 44, 0
1, 29520, Note_on_c, 1, 32, 40
1, 29758, Note_on_c, 1, 32, 0
1, 29992, Tempo, 1875000
1, 30229, Note_on_c, 0, 75, 82
1, 30240, Note_on_c, 1, 57, 47
1, 30318, Note_on_c, 1, 57, 0
1, 30320, Note_on_c, 1, 60, 47
1, 30398, Note_on_c, 1, 60, 0
1, 30399, Note_on_c, 0, 75, 0
1, 30400, Note_on_c, 1, 63, 30
1, 30401, Note_on_c, 0, 77, 60
1, 30421, Note_on_c, 0, 75, 58
1, 30441, Note_on_c, 0, 74, 57
1, 30442, Note_on_c, 0, 77, 0
1, 30443, Note_on_c, 0, 75, 0
1, 30475, Note_on_c, 0, 75, 68
1, 30478, Note_on_c, 1, 63, 0
1, 30480, Note_on_c, 1, 66, 48
1, 30484, Note_on_c, 0, 74, 0
1, 30558, Note_on_c, 1, 66, 0
1, 30560, Note_on_c, 1, 63, 16
1, 30599, Note_on_c, 0, 77, 68
1, 30605, Note_on_c, 0, 75, 0
1, 30638, Note_on_c, 1, 63, 0
1, 30640, Note_on_c, 1, 60, 27
1, 30707, Note_on_c, 0, 77, 0
1, 30717, Note_on_c, 0, 75, 48
1, 30718, Note_on_c, 1, 60, 0
1, 30720, Note_on_c, 1, 57, 28
1, 30798, Note_on_c, 1, 57, 0
1, 30800, Note_on_c, 1, 60, 26
1, 30878, Note_on_c, 1, 60, 0
1, 30880, Note_on_c, 1, 63, 23
1, 30882, Note_on_c, 0, 75, 0
1, 30958, Note_on_c, 1, 63, 0
1, 30960, Note_on_c, 1, 57, 28
1, 30964, Note_on_c, 0, 84, 62
1, 31003, Note_on_c, 0, 84, 0
1, 31007, Note_on_c, 0, 85, 67
1, 31038, Note_on_c, 1, 57, 0
1, 31040, Note_on_c, 1, 60, 47
1, 31057, Note_on_c, 0, 85, 0
1, 31060, Note_on_c, 0, 87, 57
1, 31118, Note_on_c, 1, 60, 0
1, 31120, Note_on_c, 1, 63, 42
1, 31198, Note_on_c, 1, 63, 0
1, 31200, Note_on_c, 1, 66, 64
1, 31278, Note_on_c, 1, 66, 0
1, 31280, Note_on_c, 1, 63, 25
1, 31282, Note_on_c, 0, 87, 0
1, 31358, Note_on_c, 1, 63, 0
1, 31360, Note_on_c, 1, 60, 32
1, 31438, Note_on_c, 1, 60, 0
1, 31440, Note_on_c, 1, 57, 42
1, 31518, Note_on_c, 1, 57, 0
1, 31520, Note_on_c, 1, 60, 43
1, 31598, Note_on_c, 1, 60, 0
1, 31600, Note_on_c, 1, 63, 28
1, 31678, Note_on_c, 1, 63, 0
1, 31680, Note_on_c, 1, 61, 55
1, 31680, Note_on_c, 1, 58, 53
1, 31760, Note_on_c, 0, 82, 68
1, 31838, Note_on_c, 0, 82, 0
1, 31840, Note_on_c, 0, 85, 55
1, 31918, Note_on_c, 0, 85, 0
1, 31918, Note_on_c, 1, 61, 0
1, 31918, Note_on_c, 1, 58, 0
1, 31920, Note_on_c, 0, 77, 52
1, 31998, Note_on_c, 0, 77, 0
1, 32000, Note_on_c, 0, 82, 66
1, 32078, Note_on_c, 0, 82, 0
1, 32080, Note_on_c, 0, 73, 27
1, 32158, Note_on_c, 0, 73, 0
1, 32160, Note_on_c, 0, 77, 57
1, 32238, Note_on_c, 0, 77, 0
1, 32240, Note_on_c, 0, 70, 46
1, 32318, Note_on_c, 0, 70, 0
1, 32320, Note_on_c, 0, 73, 55
1, 32398, Note_on_c, 0, 73, 0
1, 32400, Note_on_c, 0, 65, 50
1, 32478, Note_on_c, 0, 65, 0
1, 32480, Note_on_c, 0, 70, 43
1, 32558, Note_on_c, 0, 70, 0
1, 32560, Note_on_c, 0, 61, 47
1, 32560, Note_on_c, 1, 49, 47
1, 32638, Note_on_c, 0, 61, 0
1, 32638, Note_on_c, 1, 49, 0
1, 32640, Note_on_c, 0, 65, 58
1, 32640, Note_on_c, 1, 53, 58
1, 32718, Note_on_c, 0, 65, 0
1, 32718, Note_on_c, 1, 53, 0
1, 32720, Note_on_c, 0, 61, 30
1, 32720, Note_on_c, 1, 49, 30
1, 32798, Note_on_c, 0, 61, 0
1, 32798, Note_on_c, 1, 49, 0
1, 32800, Note_on_c, 0, 58, 33
1, 32800, Note_on_c, 1, 46, 33
1, 32878, Note_on_c, 0, 58, 0
1, 32878, Note_on_c, 1, 46, 0
1, 32880, Note_on_c, 0, 65, 64
1, 32880, Note_on_c, 1, 53, 64
1, 32958, Note_on_c, 0, 65, 0
1, 32958, Note_on_c, 1, 53, 0
1, 32960, Note_on_c, 0, 60, 58
1, 32960, Note_on_c, 1, 48, 58
1, 33038, Note_on_c, 0, 60, 0
1, 33038, Note_on_c, 1, 48, 0
1, 33040, Note_on_c, 0, 56, 56
1, 33040, Note_on_c, 1, 44, 56
1, 33118, Note_on_c, 0, 56, 0
1, 33118, Note_on_c, 1, 44, 0
1, 33120, Note_on_c, 0, 55, 55
1, 33120, Note_on_c, 1, 43, 55
1, 33198, Note_on_c, 0, 55, 0
1, 33198, Note_on_c, 1, 43, 0
1, 33200, Note_on_c, 0, 59, 58
1, 33200, Note_on_c, 1, 47, 58
1, 33278, Note_on_c, 0, 59, 0
1, 33278, Note_on_c, 1, 47, 0
1, 33280, Note_on_c, 0, 62, 62
1, 33280, Note_on_c, 1, 50, 62
1, 33358, Note_on_c, 0, 62, 0
1, 33358, Note_on_c, 1, 50, 0
1, 33360, Note_on_c, 0, 65, 68
1, 33360, Note_on_c, 1, 53, 68
1, 33438, Note_on_c, 0, 65, 0
1, 33438, Note_on_c, 1, 53, 0
1, 33440, Note_on_c, 0, 68, 64
1, 33440, Note_on_c, 1, 56, 64
1, 33518, Note_on_c, 0, 68, 0
1, 33518, Note_on_c, 1, 56, 0
1, 33520, Note_on_c, 0, 71, 66
1, 33520, Note_on_c, 1, 59, 66
1, 33598, Note_on_c, 0, 71, 0
1, 33598, Note_on_c, 1, 59, 0
1, 33600, Note_on_c, 0, 74, 64
1, 33600, Note_on_c, 1, 62, 64
1, 33678, Note_on_c, 0, 74, 0
1, 33678, Note_on_c, 1, 62, 0
1, 33680, Note_on_c, 0, 77, 60
1, 33680, Note_on_c, 1, 65, 60
1, 33758, Note_on_c, 0, 77, 0
1, 33758, Note_on_c, 1, 65, 0
1, 33760, Note_on_c, 0, 80, 67
1, 33760, Note_on_c, 1, 68, 67
1, 33838, Note_on_c, 0, 80, 0
1, 33838, Note_on_c, 1, 68, 0
1, 33840, Note_on_c, 0, 79, 61
1, 33840, Note_on_c, 1, 68, 57
1, 33858, Note_on_c, 0, 79, 0
1, 33860, Note_on_c, 0, 80, 64
1, 33878, Note_on_c, 0, 80, 0
1, 33880, Note_on_c, 0, 82, 61
1, 33898, Note_on_c, 0, 82, 0
1, 33900, Note_on_c, 0, 80, 51
1, 34078, Note_on_c, 0, 80, 0
1, 34318, Note_on_c, 1, 68, 0
1, 34320, Note_on_c, 1, 59, 25
1, 34400, Note_on_c, 0, 79, 62
1, 34478, Note_on_c, 0, 79, 0
1, 34480, Note_on_c, 0, 77, 58
1, 34558, Note_on_c, 0, 77, 0
1, 34558, Note_on_c, 1, 59, 0
1, 34560, Note_on_c, 0, 77, 58
1, 34560, Note_on_c, 1, 60, 33
1, 34638, Note_on_c, 0, 77, 0
1, 34638, Note_on_c, 1, 60, 0
1, 34640, Note_on_c, 0, 75, 45
1, 34640, Note_on_c, 1, 63, 33
1, 34718, Note_on_c, 0, 75, 0
1, 34718, Note_on_c, 1, 63, 0
1, 34720, Note_on_c, 0, 74, 48
1, 34720, Note_on_c, 1, 67, 27
1, 34798, Note_on_c, 0, 74, 0
1, 34798, Note_on_c, 1, 67, 0
1, 34800, Note_on_c, 0, 72, 45
1, 34880, Note_on_c, 1, 67, 43
1, 34958, Note_on_c, 1, 67, 0
1, 34960, Note_on_c, 1, 63, 34
1, 35038, Note_on_c, 0, 72, 0
1, 35038, Note_on_c, 1, 63, 0
1, 35040, Note_on_c, 1, 60, 50
1, 35118, Note_on_c, 1, 60, 0
1, 35120, Note_on_c, 0, 80, 57
1, 35120, Note_on_c, 1, 63, 36
1, 35198, Note_on_c, 0, 80, 0
1, 35198, Note_on_c, 1, 63, 0
1, 35200, Note_on_c, 0, 79, 48
1, 35200, Note_on_c, 1, 67, 36
1, 35278, Note_on_c, 0, 79, 0
1, 35278, Note_on_c, 1, 67, 0
1, 35280, Note_on_c, 0, 79, 57
1, 35280, Note_on_c, 1, 62, 45
1, 35358, Note_on_c, 0, 79, 0
1, 35358, Note_on_c, 1, 62, 0
1, 35360, Note_on_c, 0, 77, 55
1, 35360, Note_on_c, 1, 65, 58
1, 35438, Note_on_c, 0, 77, 0
1, 35438, Note_on_c, 1, 65, 0
1, 35440, Note_on_c, 0, 75, 47
1, 35440, Note_on_c, 1, 67, 48
1, 35518, Note_on_c, 0, 75, 0
1, 35518, Note_on_c, 1, 67, 0
1, 35520, Note_on_c, 0, 74, 56
1, 35520, Note_on_c, 1, 71, 58
1, 35598, Note_on_c, 1, 71, 0
1, 35600, Note_on_c, 1, 67, 41
1, 35678, Note_on_c, 1, 67, 0
1, 35680, Note_on_c, 1, 65, 33
1, 35758, Note_on_c, 0, 74, 0
1, 35758, Note_on_c, 1, 65, 0
1, 35760, Note_on_c, 1, 62, 46
1, 35838, Note_on_c, 1, 62, 0
1, 35840, Note_on_c, 0, 86, 66
1, 35840, Note_on_c, 1, 65, 45
1, 35918, Note_on_c, 0, 86, 0
1, 35918, Note_on_c, 1, 65, 0
1, 35920, Note_on_c, 0, 77, 33
1, 35920, Note_on_c, 1, 67, 46
1, 35998, Note_on_c, 0, 77, 0
1, 35998, Note_on_c, 1, 67, 0
1, 36000, Note_on_c, 0, 77, 56
1, 36000, Note_on_c, 1, 60, 56
1, 36078, Note_on_c, 0, 77, 0
1, 36078, Note_on_c, 1, 60, 0
1, 36080, Note_on_c, 0, 75, 46
1, 36080, Note_on_c, 1, 63, 34
1, 36158, Note_on_c, 0, 75, 0
1, 36158, Note_on_c, 1, 63, 0
1, 36160, Note_on_c, 0, 74, 45
1, 36160, Note_on_c, 1, 67, 35
1, 36238, Note_on_c, 0, 74, 0
1, 36238, Note_on_c, 1, 67, 0
1, 36240, Note_on_c, 0, 72, 42
1, 36320, Note_on_c, 1, 67, 38
1, 36398, Note_on_c, 0, 72, 0
1, 36398, Note_on_c, 1, 67, 0
1, 36400, Note_on_c, 1, 63, 48
1, 36478, Note_on_c, 1, 63, 0
1, 36480, Note_on_c, 1, 60, 42
1, 36558, Note_on_c, 1, 60, 0
1, 36560, Note_on_c, 0, 80, 61
1, 36560, Note_on_c, 1, 63, 45
1, 36638, Note_on_c, 0, 80, 0
1, 36638, Note_on_c, 1, 63, 0
1, 36640, Note_on_c, 0, 75, 35
1, 36640, Note_on_c, 1, 68, 42
1, 36718, Note_on_c, 0, 75, 0
1, 36718, Note_on_c, 1, 68, 0
1, 36720, Note_on_c, 0, 75, 51
1, 36720, Note_on_c, 1, 58, 45
1, 36798, Note_on_c, 0, 75, 0
1, 36798, Note_on_c, 1, 58, 0
1, 36800, Note_on_c, 0, 73, 27
1, 36800, Note_on_c, 1, 61, 33
1, 36878, Note_on_c, 0, 73, 0
1, 36878, Note_on_c, 1, 61, 0
1, 36880, Note_on_c, 0, 72, 35
1, 36880, Note_on_c, 1, 63, 32
1, 36958, Note_on_c, 0, 72, 0
1, 36958, Note_on_c, 1, 63, 0
1, 36960, Note_on_c, 0, 70, 42
1, 36960, Note_on_c, 1, 67, 58
1, 37038, Note_on_c, 1, 67, 0
1, 37040, Note_on_c, 1, 63, 45
1, 37118, Note_on_c, 0, 70, 0
1, 37118, Note_on_c, 1, 63, 0
1, 37120, Note_on_c, 1, 61, 40
1, 37198, Note_on_c, 1, 61, 0
1, 37200, Note_on_c, 1, 58, 48
1, 37278, Note_on_c, 1, 58, 0
1, 37280, Note_on_c, 0, 82, 58
1, 37280, Note_on_c, 1, 61, 41
1, 37358, Note_on_c, 0, 82, 0
1, 37358, Note_on_c, 1, 61, 0
1, 37360, Note_on_c, 0, 73, 46
1, 37360, Note_on_c, 1, 63, 36
1, 37438, Note_on_c, 0, 73, 0
1, 37438, Note_on_c, 1, 63, 0
1, 37440, Note_on_c, 0, 73, 52
1, 37440, Note_on_c, 1, 56, 53
1, 37518, Note_on_c, 0, 73, 0
1, 37518, Note_on_c, 1, 56, 0
1, 37520, Note_on_c, 0, 72, 52
1, 37520, Note_on_c, 1, 60, 58
1, 37598, Note_on_c, 0, 72, 0
1, 37598, Note_on_c, 1, 60, 0
1, 37600, Note_on_c, 0, 70, 45
1, 37600, Note_on_c, 1, 63, 46
1, 37678, Note_on_c, 0, 70, 0
1, 37678, Note_on_c, 1, 63, 0
1, 37680, Note_on_c, 0, 68, 33
1, 37760, Note_on_c, 1, 63, 26
1, 37838, Note_on_c, 0, 68, 0
1, 37838, Note_on_c, 1, 63, 0
1, 37840, Note_on_c, 1, 60, 40
1, 37918, Note_on_c, 1, 60, 0
1, 37920, Note_on_c, 1, 56, 57
1, 37998, Note_on_c, 1, 56, 0
1, 38000, Note_on_c, 0, 75, 52
1, 38000, Note_on_c, 1, 60, 45
1, 38078, Note_on_c, 0, 75, 0
1, 38078, Note_on_c, 1, 60, 0
1, 38080, Note_on_c, 0, 72, 42
1, 38080, Note_on_c, 1, 63, 48
1, 38158, Note_on_c, 0, 72, 0
1, 38158, Note_on_c, 1, 63, 0
1, 38160, Note_on_c, 0, 72, 46
1, 38160, Note_on_c, 1, 55, 45
1, 38238, Note_on_c, 0, 72, 0
1, 38238, Note_on_c, 1, 55, 0
1, 38240, Note_on_c, 0, 70, 52
1, 38240, Note_on_c, 1, 58, 43
1, 38318, Note_on_c, 0, 70, 0
1, 38318, Note_on_c, 1, 58, 0
1, 38320, Note_on_c, 0, 68, 31
1, 38320, Note_on_c, 1, 60, 42
1, 38398, Note_on_c, 0, 68, 0
1, 38398, Note_on_c, 1, 60, 0
1, 38400, Note_on_c, 0, 67, 47
1, 38400, Note_on_c, 1, 64, 51
1, 38478, Note_on_c, 1, 64, 0
1, 38480, Note_on_c, 1, 60, 32
1, 38558, Note_on_c, 0, 67, 0
1, 38558, Note_on_c, 1, 60, 0
1, 38560, Note_on_c, 1, 58, 37
1, 38638, Note_on_c, 1, 58, 0
1, 38640, Note_on_c, 1, 55, 42
1, 38718, Note_on_c, 1, 55, 0
1, 38720, Note_on_c, 0, 79, 61
1, 38720, Note_on_c, 1, 58, 38
1, 38798, Note_on_c, 0, 79, 0
1, 38798, Note_on_c, 1, 58, 0
1, 38800, Note_on_c, 0, 70, 38
1, 38800, Note_on_c, 1, 60, 36
1, 38878, Note_on_c, 0, 70, 0
1, 38878, Note_on_c, 1, 60, 0
1, 38880, Note_on_c, 0, 70, 64
1, 38880, Note_on_c, 1, 53, 61
1, 38958, Note_on_c, 0, 70, 0
1, 38960, Note_on_c, 0, 68, 56
1, 39038, Note_on_c, 0, 68, 0
1, 39040, Note_on_c, 0, 67, 55
1, 39118, Note_on_c, 0, 67, 0
1, 39120, Note_on_c, 0, 65, 56
1, 39198, Note_on_c, 0, 65, 0
1, 39200, Note_on_c, 0, 72, 45
1, 39278, Note_on_c, 0, 72, 0
1, 39280, Note_on_c, 0, 71, 61
1, 39358, Note_on_c, 0, 71, 0
1, 39358, Note_on_c, 1, 53, 0
1, 39360, Note_on_c, 0, 77, 68
1, 39360, Note_on_c, 1, 49, 55
1, 39438, Note_on_c, 0, 77, 0
1, 39440, Note_on_c, 0, 71, 58
1, 39518, Note_on_c, 0, 71, 0
1, 39520, Note_on_c, 0, 80, 63
1, 39598, Note_on_c, 0, 80, 0
1, 39598, Note_on_c, 1, 49, 0
1, 39600, Note_on_c, 0, 77, 63
1, 39600, Note_on_c, 1, 48, 51
1, 39678, Note_on_c, 1, 48, 0
1, 39680, Note_on_c, 1, 52, 63
1, 39758, Note_on_c, 1, 52, 0
1, 39760, Note_on_c, 1, 55, 55
1, 39838, Note_on_c, 0, 77, 0
1, 39838, Note_on_c, 1, 55, 0
1, 39840, Note_on_c, 0, 76, 46
1, 39840, Note_on_c, 1, 60, 46
1, 39918, Note_on_c, 1, 60, 0
1, 39920, Note_on_c, 1, 64, 50
1, 39998, Note_on_c, 1, 64, 0
1, 40000, Note_on_c, 1, 67, 63
1, 40078, Note_on_c, 0, 76, 0
1, 40078, Note_on_c, 1, 67, 0
1, 40080, Note_on_c, 1, 72, 61
1, 40158, Note_on_c, 1, 72, 0
1, 40160, Note_on_c, 1, 67, 52
1, 40238, Note_on_c, 1, 67, 0
1, 40240, Note_on_c, 1, 64, 58
1, 40318, Note_on_c, 1, 64, 0
1, 40320, Note_on_c, 0, 73, 65
1, 40320, Note_on_c, 1, 70, 70
1, 40320, Note_on_c, 1, 60, 66
1, 40398, Note_on_c, 0, 73, 0
1, 40400, Note_on_c, 0, 76, 77
1, 40478, Note_on_c, 0, 76, 0
1, 40480, Note_on_c, 0, 79, 72
1, 40558, Note_on_c, 0, 79, 0
1, 40560, Note_on_c, 0, 82, 65
1, 40638, Note_on_c, 0, 82, 0
1, 40640, Note_on_c, 0, 85, 68
1, 40718, Note_on_c, 0, 85, 0
1, 40720, Note_on_c, 0, 84, 73
1, 40798, Note_on_c, 0, 84, 0
1, 40800, Note_on_c, 0, 82, 63
1, 40878, Note_on_c, 0, 82, 0
1, 40880, Note_on_c, 0, 80, 58
1, 40958, Note_on_c, 0, 80, 0
1, 40960, Note_on_c, 0, 79, 48
1, 41038, Note_on_c, 0, 79, 0
1, 41038, Note_on_c, 1, 70, 0
1, 41038, Note_on_c, 1, 60, 0
1, 41040, Note_on_c, 0, 77, 72
1, 41040, Note_on_c, 1, 68, 63
1, 41040, Note_on_c, 1, 60, 52
1, 41118, Note_on_c, 0, 77, 0
1, 41120, Note_on_c, 0, 84, 78
1, 41198, Note_on_c, 0, 84, 0
1, 41200, Note_on_c, 0, 76, 74
1, 41278, Note_on_c, 0, 76, 0
1, 41280, Note_on_c, 0, 79, 68
1, 41298, Note_on_c, 0, 79, 0
1, 41300, Note_on_c, 0, 77, 77
1, 41318, Note_on_c, 0, 77, 0
1, 41320, Note_on_c, 0, 76, 67
1, 41338, Note_on_c, 0, 76, 0
1, 41340, Note_on_c, 0, 77, 58
1, 41358, Note_on_c, 0, 77, 0
1, 41360, Note_on_c, 0, 80, 68
1, 41438, Note_on_c, 0, 80, 0
1, 41440, Note_on_c, 0, 72, 63
1, 41518, Note_on_c, 0, 72, 0
1, 41520, Note_on_c, 0, 77, 68
1, 41598, Note_on_c, 0, 77, 0
1, 41600, Note_on_c, 0, 72, 62
1, 41678, Note_on_c, 0, 72, 0
1, 41680, Note_on_c, 0, 68, 60
1, 41758, Note_on_c, 0, 68, 0
1, 41758, Note_on_c, 1, 68, 0
1, 41758, Note_on_c, 1, 60, 0
1, 41760, Note_on_c, 0, 67, 68
1, 41760, Note_on_c, 1, 64, 52
1, 41760, Note_on_c, 1, 60, 56
1, 41838, Note_on_c, 0, 67, 0
1, 41840, Note_on_c, 0, 70, 62
1, 41918, Note_on_c, 0, 70, 0
1, 41920, Note_on_c, 0, 73, 73
1, 41998, Note_on_c, 0, 73, 0
1, 42000, Note_on_c, 0, 76, 74
1, 42078, Note_on_c, 0, 76, 0
1, 42080, Note_on_c, 0, 79, 74
1, 42140, Note_on_c, 0, 82, 67
1, 42158, Note_on_c, 0, 79, 0
1, 42158, Note_on_c, 0, 82, 0
1, 42160, Note_on_c, 0, 80, 68
1, 42178, Note_on_c, 0, 80, 0
1, 42180, Note_on_c, 0, 79, 65
1, 42198, Note_on_c, 0, 79, 0
1, 42200, Note_on_c, 0, 80, 62
1, 42218, Note_on_c, 0, 80, 0
1, 42240, Note_on_c, 0, 82, 74
1, 42318, Note_on_c, 0, 82, 0
1, 42320, Note_on_c, 0, 80, 70
1, 42398, Note_on_c, 0, 80, 0
1, 42400, Note_on_c, 0, 79, 72
1, 42478, Note_on_c, 0, 79, 0
1, 42478, Note_on_c, 1, 64, 0
1, 42478, Note_on_c, 1, 60, 0
1, 42480, Note_on_c, 0, 77, 76
1, 42480, Note_on_c, 1, 65, 66
1, 42480, Note_on_c, 1, 60, 56
1, 42558, Note_on_c, 0, 77, 0
1, 42560, Note_on_c, 0, 80, 71
1, 42638, Note_on_c, 0, 80, 0
1, 42640, Note_on_c, 0, 72, 65
1, 42718, Note_on_c, 0, 72, 0
1, 42720, Note_on_c, 0, 77, 71
1, 42798, Note_on_c, 0, 77, 0
1, 42800, Note_on_c, 0, 72, 68
1, 42878, Note_on_c, 0, 72, 0
1, 42880, Note_on_c, 0, 68, 65
1, 42958, Note_on_c, 0, 68, 0
1, 42960, Note_on_c, 0, 72, 72
1, 43038, Note_on_c, 0, 72, 0
1, 43040, Note_on_c, 0, 68, 52
1, 43118, Note_on_c, 0, 68, 0
1, 43120, Note_on_c, 0, 65, 61
1, 43198, Note_on_c, 0, 65, 0
1, 43198, Note_on_c, 1, 65, 0
1, 43198, Note_on_c, 1, 60, 0
1, 43200, Note_on_c, 0, 65, 56
1, 43200, Note_on_c, 1, 48, 53
1, 43218, Note_on_c, 0, 65, 0
1, 43220, Note_on_c, 0, 66, 52
1, 43238, Note_on_c, 0, 66, 0
1, 43240, Note_on_c, 0, 68, 61
1, 43258, Note_on_c, 0, 68, 0
1, 43260, Note_on_c, 0, 66, 57
1, 43278, Note_on_c, 0, 66, 0
1, 43278, Note_on_c, 1, 48, 0
1, 43280, Note_on_c, 0, 68, 48
1, 43280, Note_on_c, 1, 51, 48
1, 43298, Note_on_c, 0, 68, 0
1, 43300, Note_on_c, 0, 66, 51
1, 43318, Note_on_c, 0, 66, 0
1, 43320, Note_on_c, 0, 68, 56
1, 43338, Note_on_c, 0, 68, 0
1, 43340, Note_on_c, 0, 66, 42
1, 43358, Note_on_c, 0, 66, 0
1, 43358, Note_on_c, 1, 51, 0
1, 43360, Note_on_c, 0, 68, 48
1, 43360, Note_on_c, 1, 56, 47
1, 43378, Note_on_c, 0, 68, 0
1, 43380, Note_on_c, 0, 66, 48
1, 43398, Note_on_c, 0, 66, 0
1, 43400, Note_on_c, 0, 68, 57
1, 43418, Note_on_c, 0, 68, 0
1, 43420, Note_on_c, 0, 66, 53
1, 43438, Note_on_c, 0, 66, 0
1, 43438, Note_on_c, 1, 56, 0
1, 43440, Note_on_c, 0, 68, 64
1, 43440, Note_on_c, 1, 60, 42
1, 43458, Note_on_c, 0, 68, 0
1, 43460, Note_on_c, 0, 66, 47
1, 43478, Note_on_c, 0, 66, 0
1, 43480, Note_on_c, 0, 68, 55
1, 43498, Note_on_c, 0, 68, 0
1, 43500, Note_on_c, 0, 66, 46
1, 43518, Note_on_c, 0, 66, 0
1, 43518, Note_on_c, 1, 60, 0
1, 43520, Note_on_c, 0, 68, 55
1, 43520, Note_on_c, 1, 56, 37
1, 43538, Note_on_c, 0, 68, 0
1, 43540, Note_on_c, 0, 66, 48
1, 43558, Note_on_c, 0, 66, 0
1, 43560, Note_on_c, 0, 68, 53
1, 43578, Note_on_c, 0, 68, 0
1, 43580, Note_on_c, 0, 66, 51
1, 43598, Note_on_c, 0, 66, 0
1, 43598, Note_on_c, 1, 56, 0
1, 43600, Note_on_c, 0, 68, 55
1, 43600, Note_on_c, 1, 51, 43
1, 43618, Note_on_c, 0, 68, 0
1, 43620, Note_on_c, 0, 66, 55
1, 43638, Note_on_c, 0, 66, 0
1, 43640, Note_on_c, 0, 68, 56
1, 43658, Note_on_c, 0, 68, 0
1, 43660, Note_on_c, 0, 66, 51
1, 43678, Note_on_c, 0, 66, 0
1, 43678, Note_on_c, 1, 51, 0
1, 43680, Note_on_c, 0, 66, 51
1, 43680, Note_on_c, 1, 48, 51
1, 43698, Note_on_c, 0, 66, 0
1, 43700, Note_on_c, 0, 68, 52
1, 43718, Note_on_c, 0, 68, 0
1, 43720, Note_on_c, 0, 66, 38
1, 43738, Note_on_c, 0, 66, 0
1, 43740, Note_on_c, 0, 68, 43
1, 43758, Note_on_c, 0, 68, 0
1, 43758, Note_on_c, 1, 48, 0
1, 43760, Note_on_c, 0, 66, 42
1, 43760, Note_on_c, 1, 51, 47
1, 43778, Note_on_c, 0, 66, 0
1, 43780, Note_on_c, 0, 68, 48
1, 43798, Note_on_c, 0, 68, 0
1, 43800, Note_on_c, 0, 66, 56
1, 43818, Note_on_c, 0, 66, 0
1, 43820, Note_on_c, 0, 68, 63
1, 43838, Note_on_c, 0, 68, 0
1, 43838, Note_on_c, 1, 51, 0
1, 43840, Note_on_c, 0, 66, 60
1, 43840, Note_on_c, 1, 56, 37
1, 43858, Note_on_c, 0, 66, 0
1, 43860, Note_on_c, 0, 68, 48
1, 43878, Note_on_c, 0, 68, 0
1, 43880, Note_on_c, 0, 66, 57
1, 43898, Note_on_c, 0, 66, 0
1, 43918, Note_on_c, 1, 56, 0
1, 43920, Note_on_c, 0, 65, 55
1, 43920, Note_on_c, 1, 49, 52
1, 43998, Note_on_c, 1, 49, 0
1, 44000, Note_on_c, 1, 53, 54
1, 44078, Note_on_c, 1, 53, 0
1, 44080, Note_on_c, 1, 56, 46
1, 44158, Note_on_c, 0, 65, 0
1, 44158, Note_on_c, 1, 56, 0
1, 44160, Note_on_c, 0, 77, 57
1, 44160, Note_on_c, 1, 61, 40
1, 44198, Note_on_c, 0, 77, 0
1, 44200, Note_on_c, 0, 79, 55
1, 44238, Note_on_c, 0, 79, 0
1, 44238, Note_on_c, 1, 61, 0
1, 44240, Note_on_c, 0, 80, 55
1, 44240, Note_on_c, 1, 56, 43
1, 44318, Note_on_c, 1, 56, 0
1, 44320, Note_on_c, 1, 53, 43
1, 44398, Note_on_c, 1, 53, 0
1, 44400, Note_on_c, 1, 49, 45
1, 44438, Note_on_c, 0, 80, 0
1, 44478, Note_on_c, 1, 49, 0
1, 44480, Note_on_c, 1, 53, 45
1, 44558, Note_on_c, 1, 53, 0
1, 44560, Note_on_c, 1, 56, 55
1, 44638, Note_on_c, 1, 56, 0
1, 44640, Note_on_c, 0, 64, 46
1, 44640, Note_on_c, 1, 47, 43
1, 44658, Note_on_c, 0, 64, 0
1, 44660, Note_on_c, 0, 65, 42
1, 44678, Note_on_c, 0, 65, 0
1, 44680, Note_on_c, 0, 67, 51
1, 44698, Note_on_c, 0, 67, 0
1, 44700, Note_on_c, 0, 65, 47
1, 44718, Note_on_c, 0, 65, 0
1, 44718, Note_on_c, 1, 47, 0
1, 44720, Note_on_c, 0, 67, 38
1, 44720, Note_on_c, 1, 50, 38
1, 44738, Note_on_c, 0, 67, 0
1, 44740, Note_on_c, 0, 65, 41
1, 44758, Note_on_c, 0, 65, 0
1, 44760, Note_on_c, 0, 67, 46
1, 44778, Note_on_c, 0, 67, 0
1, 44780, Note_on_c, 0, 65, 32
1, 44798, Note_on_c, 0, 65, 0
1, 44798, Note_on_c, 1, 50, 0
1, 44800, Note_on_c, 0, 67, 38
1, 44800, Note_on_c, 1, 53, 37
1, 44818, Note_on_c, 0, 67, 0
1, 44820, Note_on_c, 0, 65, 38
1, 44838, Note_on_c, 0, 65, 0
1, 44840, Note_on_c, 0, 67, 47
1, 44858, Note_on_c, 0, 67, 0
1, 44860, Note_on_c, 0, 65, 43
1, 44878, Note_on_c, 0, 65, 0
1, 44878, Note_on_c, 1, 53, 0
1, 44880, Note_on_c, 0, 67, 54
1, 44880, Note_on_c, 1, 56, 32
1, 44898, Note_on_c, 0, 67, 0
1, 44900, Note_on_c, 0, 65, 37
1, 44918, Note_on_c, 0, 65, 0
1, 44920, Note_on_c, 0, 67, 45
1, 44938, Note_on_c, 0, 67, 0
1, 44940, Note_on_c, 0, 65, 36
1, 44958, Note_on_c, 0, 65, 0
1, 44958, Note_on_c, 1, 56, 0
1, 44960, Note_on_c, 0, 67, 45
1, 44960, Note_on_c, 1, 53, 27
1, 44978, Note_on_c, 0, 67, 0
1, 44980, Note_on_c, 0, 65, 38
1, 44998, Note_on_c, 0, 65, 0
1, 45000, Note_on_c, 0, 67, 43
1, 45018, Note_on_c, 0, 67, 0
1, 45020, Note_on_c, 0, 65, 41
1, 45038, Note_on_c, 0, 65, 0
1, 45038, Note_on_c, 1, 53, 0
1, 45040, Note_on_c, 0, 67, 45
1, 45040, Note_on_c, 1, 50, 33
1, 45058, Note_on_c, 0, 67, 0
1, 45060, Note_on_c, 0, 65, 45
1, 45078, Note_on_c, 0, 65, 0
1, 45080, Note_on_c, 0, 67, 46
1, 45098, Note_on_c, 0, 67, 0
1, 45100, Note_on_c, 0, 65, 41
1, 45118, Note_on_c, 0, 65, 0
1, 45118, Note_on_c, 1, 50, 0
1, 45120, Note_on_c, 0, 65, 41
1, 45120, Note_on_c, 1, 47, 41
1, 45138, Note_on_c, 0, 65, 0
1, 45140, Note_on_c, 0, 67, 42
1, 45158, Note_on_c, 0, 67, 0
1, 45160, Note_on_c, 0, 65, 28
1, 45178, Note_on_c, 0, 65, 0
1, 45180, Note_on_c, 0, 67, 33
1, 45198, Note_on_c, 0, 67, 0
1, 45198, Note_on_c, 1, 47, 0
1, 45200, Note_on_c, 0, 65, 32
1, 45200, Note_on_c, 1, 50, 37
1, 45218, Note_on_c, 0, 65, 0
1, 45220, Note_on_c, 0, 67, 38
1, 45238, Note_on_c, 0, 67, 0
1, 45240, Note_on_c, 0, 65, 46
1, 45258, Note_on_c, 0, 65, 0
1, 45260, Note_on_c, 0, 67, 53
1, 45278, Note_on_c, 0, 67, 0
1, 45278, Note_on_c, 1, 50, 0
1, 45280, Note_on_c, 0, 65, 50
1, 45280, Note_on_c, 1, 53, 27
1, 45298, Note_on_c, 0, 65, 0
1, 45300, Note_on_c, 0, 67, 38
1, 45318, Note_on_c, 0, 67, 0
1, 45320, Note_on_c, 0, 65, 47
1, 45338, Note_on_c, 0, 65, 0
1, 45358, Note_on_c, 1, 53, 0
1, 45360, Note_on_c, 0, 64, 45
1, 45360, Note_on_c, 1, 48, 42
1, 45438, Note_on_c, 1, 48, 0
1, 45440, Note_on_c, 1, 52, 44
1, 45518, Note_on_c, 1, 52, 0
1, 45520, Note_on_c, 1, 55, 36
1, 45598, Note_on_c, 0, 64, 0
1, 45598, Note_on_c, 1, 55, 0
1, 45600, Note_on_c, 0, 84, 47
1, 45600, Note_on_c, 1, 60, 30
1, 45638, Note_on_c, 0, 84, 0
1, 45640, Note_on_c, 0, 86, 45
1, 45678, Note_on_c, 0, 86, 0
1, 45678, Note_on_c, 1, 60, 0
1, 45680, Note_on_c, 0, 88, 45
1, 45680, Note_on_c, 1, 55, 33
1, 45758, Note_on_c, 1, 55, 0
1, 45760, Note_on_c, 1, 52, 33
1, 45838, Note_on_c, 1, 52, 0
1, 45840, Note_on_c, 1, 48, 35
1, 45878, Note_on_c, 0, 88, 0
1, 45918, Note_on_c, 1, 48, 0
1, 45920, Note_on_c, 1, 52, 35
1, 45998, Note_on_c, 1, 52, 0
1, 46000, Note_on_c, 1, 55, 45
1, 46078, Note_on_c, 1, 55, 0
1, 46080, Note_on_c, 0, 72, 48
1, 46080, Note_on_c, 1, 52, 42
1, 46158, Note_on_c, 0, 72, 0
1, 46158, Note_on_c, 1, 52, 0
1, 46160, Note_on_c, 0, 70, 58
1, 46160, Note_on_c, 1, 55, 33
1, 46238, Note_on_c, 0, 70, 0
1, 46238, Note_on_c, 1, 55, 0
1, 46240, Note_on_c, 0, 68, 47
1, 46240, Note_on_c, 1, 58, 45
1, 46318, Note_on_c, 0, 68, 0
1, 46318, Note_on_c, 1, 58, 0
1, 46320, Note_on_c, 0, 67, 55
1, 46320, Note_on_c, 1, 60, 38
1, 46398, Note_on_c, 1, 60, 0
1, 46400, Note_on_c, 1, 58, 38
1, 46478, Note_on_c, 1, 58, 0
1, 46480, Note_on_c, 1, 55, 28
1, 46558, Note_on_c, 0, 67, 0
1, 46558, Note_on_c, 1, 55, 0
1, 46560, Note_on_c, 1, 52, 36
1, 46638, Note_on_c, 1, 52, 0
1, 46640, Note_on_c, 0, 79, 64
1, 46640, Note_on_c, 1, 55, 36
1, 46718, Note_on_c, 0, 79, 0
1, 46718, Note_on_c, 1, 55, 0
1, 46720, Note_on_c, 0, 70, 48
1, 46720, Note_on_c, 1, 58, 33
1, 46798, Note_on_c, 0, 70, 0
1, 46798, Note_on_c, 1, 58, 0
1, 46800, Note_on_c, 0, 70, 52
1, 46800, Note_on_c, 1, 53, 38
1, 46878, Note_on_c, 0, 70, 0
1, 46878, Note_on_c, 1, 53, 0
1, 46880, Note_on_c, 0, 68, 48
1, 46880, Note_on_c, 1, 56, 47
1, 46958, Note_on_c, 0, 68, 0
1, 46958, Note_on_c, 1, 56, 0
1, 46960, Note_on_c, 0, 67, 45
1, 46960, Note_on_c, 1, 60, 50
1, 47038, Note_on_c, 0, 67, 0
1, 47038, Note_on_c, 1, 60, 0
1, 47040, Note_on_c, 0, 65, 50
1, 47040, Note_on_c, 1, 65, 55
1, 47118, Note_on_c, 1, 65, 0
1, 47120, Note_on_c, 1, 60, 40
1, 47198, Note_on_c, 1, 60, 0
1, 47200, Note_on_c, 1, 56, 45
1, 47278, Note_on_c, 0, 65, 0
1, 47278, Note_on_c, 1, 56, 0
1, 47280, Note_on_c, 1, 53, 36
1, 47358, Note_on_c, 1, 53, 0
1, 47360, Note_on_c, 0, 77, 48
1, 47360, Note_on_c, 1, 56, 27
1, 47438, Note_on_c, 0, 77, 0
1, 47438, Note_on_c, 1, 56, 0
1, 47440, Note_on_c, 0, 72, 45
1, 47440, Note_on_c, 1, 60, 38
1, 47518, Note_on_c, 0, 72, 0
1, 47518, Note_on_c, 1, 60, 0
1, 47520, Note_on_c, 0, 72, 50
1, 47520, Note_on_c, 1, 55, 46
1, 47598, Note_on_c, 0, 72, 0
1, 47598, Note_on_c, 1, 55, 0
1, 47600, Note_on_c, 0, 70, 55
1, 47600, Note_on_c, 1, 58, 42
1, 47678, Note_on_c, 0, 70, 0
1, 47678, Note_on_c, 1, 58, 0
1, 47680, Note_on_c, 0, 68, 47
1, 47680, Note_on_c, 1, 60, 46
1, 47758, Note_on_c, 0, 68, 0
1, 47758, Note_on_c, 1, 60, 0
1, 47760, Note_on_c, 0, 67, 45
1, 47760, Note_on_c, 1, 64, 52
1, 47838, Note_on_c, 1, 64, 0
1, 47840, Note_on_c, 1, 60, 42
1, 47918, Note_on_c, 0, 67, 0
1, 47918, Note_on_c, 1, 60, 0
1, 47920, Note_on_c, 1, 58, 41
1, 47998, Note_on_c, 1, 58, 0
1, 48000, Note_on_c, 1, 55, 47
1, 48078, Note_on_c, 1, 55, 0
1, 48080, Note_on_c, 0, 79, 61
1, 48080, Note_on_c, 1, 58, 28
1, 48158, Note_on_c, 0, 79, 0
1, 48158, Note_on_c, 1, 58, 0
1, 48160, Note_on_c, 0, 70, 48
1, 48160, Note_on_c, 1, 60, 41
1, 48238, Note_on_c, 0, 70, 0
1, 48238, Note_on_c, 1, 60, 0
1, 48240, Note_on_c, 1, 53, 55
1, 48320, Note_on_c, 0, 80, 63
1, 48398, Note_on_c, 0, 80, 0
1, 48400, Note_on_c, 0, 84, 64
1, 48478, Note_on_c, 0, 84, 0
1, 48480, Note_on_c, 0, 77, 64
1, 48558, Note_on_c, 0, 77, 0
1, 48560, Note_on_c, 0, 80, 64
1, 48638, Note_on_c, 0, 80, 0
1, 48640, Note_on_c, 0, 72, 58
1, 48718, Note_on_c, 0, 72, 0
1, 48718, Note_on_c, 1, 53, 0
1, 48720, Note_on_c, 0, 77, 62
1, 48798, Note_on_c, 0, 77, 0
1, 48800, Note_on_c, 0, 68, 43
1, 48878, Note_on_c, 0, 68, 0
1, 48880, Note_on_c, 0, 72, 63
1, 48958, Note_on_c, 0, 72, 0
1, 48960, Note_on_c, 1, 47, 66
1, 48960, Note_on_c, 1, 35, 69
1, 49040, Note_on_c, 0, 83, 64
1, 49118, Note_on_c, 0, 83, 0
1, 49120, Note_on_c, 0, 86, 64
1, 49198, Note_on_c, 0, 86, 0
1, 49200, Note_on_c, 0, 80, 62
1, 49278, Note_on_c, 0, 80, 0
1, 49280, Note_on_c, 0, 83, 61
1, 49358, Note_on_c, 0, 83, 0
1, 49360, Note_on_c, 0, 77, 55
1, 49438, Note_on_c, 0, 77, 0
1, 49438, Note_on_c, 1, 47, 0
1, 49438, Note_on_c, 1, 35, 0
1, 49440, Note_on_c, 0, 80, 55
1, 49518, Note_on_c, 0, 80, 0
1, 49520, Note_on_c, 0, 74, 55
1, 49598, Note_on_c, 0, 74, 0
1, 49600, Note_on_c, 0, 77, 58
1, 49678, Note_on_c, 0, 77, 0
1, 49680, Note_on_c, 1, 36, 68
1, 49680, Note_on_c, 1, 48, 60
1, 49760, Note_on_c, 0, 80, 57
1, 49838, Note_on_c, 0, 80, 0
1, 49840, Note_on_c, 0, 84, 57
1, 49918, Note_on_c, 0, 84, 0
1, 49920, Note_on_c, 0, 76, 56
1, 49998, Note_on_c, 0, 76, 0
1, 50000, Note_on_c, 0, 77, 58
1, 50078, Note_on_c, 0, 77, 0
1, 50080, Note_on_c, 0, 80, 53
1, 50158, Note_on_c, 0, 80, 0
1, 50160, Note_on_c, 0, 72, 64
1, 50238, Note_on_c, 0, 72, 0
1, 50240, Note_on_c, 0, 71, 58
1, 50318, Note_on_c, 0, 71, 0
1, 50320, Note_on_c, 0, 79, 58
1, 50398, Note_on_c, 0, 79, 0
1, 50400, Note_on_c, 0, 70, 48
1, 50478, Note_on_c, 0, 70, 0
1, 50480, Note_on_c, 0, 69, 56
1, 50558, Note_on_c, 0, 69, 0
1, 50560, Note_on_c, 0, 77, 52
1, 50638, Note_on_c, 0, 77, 0
1, 50640, Note_on_c, 0, 68, 58
1, 50718, Note_on_c, 0, 68, 0
1, 50720, Note_on_c, 0, 67, 52
1, 50798, Note_on_c, 0, 67, 0
1, 50800, Note_on_c, 0, 76, 57
1, 50878, Note_on_c, 0, 76, 0
1, 50880, Note_on_c, 0, 67, 60
1, 50958, Note_on_c, 0, 67, 0
1, 50960, Note_on_c, 0, 65, 56
1, 51038, Note_on_c, 0, 65, 0
1, 51040, Note_on_c, 0, 74, 58
1, 51118, Note_on_c, 0, 74, 0
1, 51118, Note_on_c, 1, 36, 0
1, 51118, Note_on_c, 1, 48, 0
1, 51120, Note_on_c, 0, 65, 61
1, 51120, Note_on_c, 1, 58, 52
1, 51120, Note_on_c, 1, 48, 55
1, 51198, Note_on_c, 0, 65, 0
1, 51200, Note_on_c, 0, 64, 53
1, 51278, Note_on_c, 0, 64, 0
1, 51280, Note_on_c, 0, 72, 55
1, 51358, Note_on_c, 0, 72, 0
1, 51358, Note_on_c, 1, 58, 0
1, 51360, Note_on_c, 0, 67, 56
1, 51360, Note_on_c, 1, 56, 46
1, 51438, Note_on_c, 0, 67, 0
1, 51440, Note_on_c, 0, 65, 37
1, 51518, Note_on_c, 0, 65, 0
1, 51520, Note_on_c, 0, 72, 52
1, 51598, Note_on_c, 0, 72, 0
1, 51598, Note_on_c, 1, 56, 0
1, 51600, Note_on_c, 0, 68, 61
1, 51600, Note_on_c, 1, 52, 55
1, 51678, Note_on_c, 0, 68, 0
1, 51680, Note_on_c, 0, 67, 48
1, 51758, Note_on_c, 0, 67, 0
1, 51760, Note_on_c, 0, 70, 51
1, 51838, Note_on_c, 0, 70, 0
1, 51838, Note_on_c, 1, 48, 0
1, 51838, Note_on_c, 1, 52, 0
1, 51840, Note_on_c, 0, 68, 57
1, 51920, Note_on_c, 1, 49, 55
1, 51998, Note_on_c, 1, 49, 0
1, 52000, Note_on_c, 1, 53, 61
1, 52078, Note_on_c, 0, 68, 0
1, 52078, Note_on_c, 1, 53, 0
1, 52080, Note_on_c, 1, 56, 47
1, 52158, Note_on_c, 1, 56, 0
1, 52160, Note_on_c, 1, 61, 53
1, 52238, Note_on_c, 1, 61, 0
1, 52240, Note_on_c, 1, 65, 55
1, 52318, Note_on_c, 1, 65, 0
1, 52320, Note_on_c, 0, 68, 53
1, 52398, Note_on_c, 0, 68, 0
1, 52400, Note_on_c, 0, 73, 58
1, 52478, Note_on_c, 0, 73, 0
1, 52480, Note_on_c, 0, 77, 61
1, 52558, Note_on_c, 0, 77, 0
1, 52560, Note_on_c, 1, 35, 67
1, 52638, Note_on_c, 1, 35, 0
1, 52640, Note_on_c, 1, 47, 73
1, 52718, Note_on_c, 1, 47, 0
1, 52720, Note_on_c, 0, 62, 55
1, 52798, Note_on_c, 0, 62, 0
1, 52800, Note_on_c, 0, 65, 61
1, 52878, Note_on_c, 0, 65, 0
1, 52880, Note_on_c, 0, 68, 52
1, 52958, Note_on_c, 0, 68, 0
1, 52960, Note_on_c, 0, 71, 56
1, 53038, Note_on_c, 0, 71, 0
1, 53040, Note_on_c, 0, 74, 56
1, 53118, Note_on_c, 0, 74, 0
1, 53120, Note_on_c, 0, 77, 56
1, 53198, Note_on_c, 0, 77, 0
1, 53200, Note_on_c, 0, 80, 62
1, 53278, Note_on_c, 0, 80, 0
1, 53280, Note_on_c, 1, 36, 64
1, 53360, Note_on_c, 0, 84, 73
1, 53438, Note_on_c, 0, 84, 0
1, 53440, Note_on_c, 0, 72, 47
1, 53518, Note_on_c, 0, 72, 0
1, 53518, Note_on_c, 1, 36, 0
1, 53520, Note_on_c, 0, 71, 55
1, 53598, Note_on_c, 0, 71, 0
1, 53600, Note_on_c, 0, 70, 48
1, 53678, Note_on_c, 0, 70, 0
1, 53680, Note_on_c, 0, 69, 55
1, 53758, Note_on_c, 0, 69, 0
1, 53760, Note_on_c, 0, 68, 58
1, 53838, Note_on_c, 0, 68, 0
1, 53840, Note_on_c, 0, 67, 53
1, 53918, Note_on_c, 0, 67, 0
1, 53920, Note_on_c, 0, 66, 46
1, 53998, Note_on_c, 0, 66, 0
1, 54000, Note_on_c, 0, 65, 65
1, 54000, Note_on_c, 1, 48, 55
1, 54078, Note_on_c, 1, 48, 0
1, 54080, Note_on_c, 1, 53, 53
1, 54158, Note_on_c, 1, 53, 0
1, 54160, Note_on_c, 1, 56, 50
1, 54238, Note_on_c, 1, 56, 0
1, 54240, Note_on_c, 1, 60, 48
1, 54318, Note_on_c, 1, 60, 0
1, 54320, Note_on_c, 1, 56, 45
1, 54398, Note_on_c, 0, 65, 0
1, 54398, Note_on_c, 1, 56, 0
1, 54400, Note_on_c, 0, 68, 43
1, 54400, Note_on_c, 1, 53, 46
1, 54478, Note_on_c, 0, 68, 0
1, 54478, Note_on_c, 1, 53, 0
1, 54480, Note_on_c, 0, 67, 56
1, 54480, Note_on_c, 1, 48, 53
1, 54558, Note_on_c, 1, 48, 0
1, 54560, Note_on_c, 1, 55, 52
1, 54598, Note_on_c, 0, 67, 0
1, 54600, Note_on_c, 0, 65, 65
1, 54638, Note_on_c, 1, 55, 0
1, 54640, Note_on_c, 1, 58, 45
1, 54718, Note_on_c, 0, 65, 0
1, 54718, Note_on_c, 1, 58, 0
1, 54720, Note_on_c, 0, 65, 72
1, 54720, Note_on_c, 1, 56, 36
1, 54720, Note_on_c, 1, 53, 56
1, 54798, Note_on_c, 0, 65, 0
1, 54800, Note_on_c, 0, 68, 62
1, 54878, Note_on_c, 0, 68, 0
1, 54880, Note_on_c, 0, 64, 55
1, 54958, Note_on_c, 0, 64, 0
1, 54958, Note_on_c, 1, 56, 0
1, 54958, Note_on_c, 1, 53, 0
1, 54960, Note_on_c, 0, 65, 65
1, 54978, Note_on_c, 0, 65, 0
1, 54980, Note_on_c, 0, 64, 68
1, 54998, Note_on_c, 0, 64, 0
1, 55000, Note_on_c, 0, 65, 65
1, 55040, Note_on_c, 0, 68, 62
1, 55058, Note_on_c, 0, 65, 0
1, 55118, Note_on_c, 0, 68, 0
1, 55120, Note_on_c, 0, 60, 68
1, 55198, Note_on_c, 0, 60, 0
1, 55200, Note_on_c, 0, 58, 63
1, 55200, Note_on_c, 1, 48, 52
1, 55278, Note_on_c, 0, 58, 0
1, 55280, Note_on_c, 0, 61, 55
1, 55358, Note_on_c, 0, 61, 0
1, 55360, Note_on_c, 0, 55, 56
1, 55438, Note_on_c, 0, 55, 0
1, 55438, Note_on_c, 1, 48, 0
1, 55440, Note_on_c, 0, 56, 65
1, 55440, Note_on_c, 1, 53, 46
1, 55492, Tempo, 1875000
1, 55518, Note_on_c, 0, 56, 0
1, 55520, Note_on_c, 0, 72, 60
1, 55598, Note_on_c, 0, 72, 0
1, 55600, Note_on_c, 0, 64, 56
1, 55678, Note_on_c, 0, 64, 0
1, 55678, Note_on_c, 1, 53, 0
1, 55680, Note_on_c, 0, 65, 55
1, 55698, Note_on_c, 0, 65, 0
1, 55700, Note_on_c, 0, 64, 58
1, 55718, Note_on_c, 0, 64, 0
1, 55720, Note_on_c, 0, 65, 55
1, 55760, Note_on_c, 0, 68, 52
1, 55778, Note_on_c, 0, 65, 0
1, 55790, Tempo, 2068966
1, 55838, Note_on_c, 0, 68, 0
1, 55840, Note_on_c, 0, 60, 58
1, 55918, Note_on_c, 0, 60, 0
1, 55920, Note_on_c, 0, 58, 53
1, 55920, Note_on_c, 1, 48, 55
1, 55998, Note_on_c, 0, 58, 0
1, 56000, Note_on_c, 0, 67, 45
1, 56078, Note_on_c, 0, 67, 0
1, 56080, Note_on_c, 0, 64, 53
1, 56158, Note_on_c, 0, 64, 0
1, 56158, Note_on_c, 1, 48, 0
1, 56160, Note_on_c, 0, 64, 64
1, 56160, Note_on_c, 1, 41, 53
1, 56238, Note_on_c, 1, 41, 0
1, 56240, Note_on_c, 1, 53, 52
1, 56268, Tempo, 2400000
1, 56318, Note_on_c, 1, 53, 0
1, 56320, Note_on_c, 1, 52, 57
1, 56398, Note_on_c, 0, 64, 0
1, 56398, Note_on_c, 1, 52, 0
1, 56400, Note_on_c, 0, 65, 43
1, 56400, Note_on_c, 1, 53, 45
1, 56478, Note_on_c, 1, 53, 0
1, 56480, Note_on_c, 1, 48, 48
1, 56558, Note_on_c, 1, 48, 0
1, 56560, Note_on_c, 1, 44, 43
1, 56638, Note_on_c, 1, 44, 0
1, 56640, Note_on_c, 1, 48, 43
1, 56718, Note_on_c, 1, 48, 0
1, 56720, Note_on_c, 1, 44, 38
1, 56746, Tempo, 2857143
1, 56798, Note_on_c, 1, 44, 0
1, 56800, Note_on_c, 1, 41, 34
1, 56878, Note_on_c, 1, 41, 0
1, 56880, Note_on_c, 1, 29, 37
1, 57118, Note_on_c, 0, 65, 0
1, 57118, Note_on_c, 1, 29, 0
1, 57222, Tempo, 3529412
1, 57232, End_track
0, 0, End_of_file