0, 0, Header, 0, 1, 240
1, 0, Start_track
1, 0, Tempo, 666666
1, 601, Note_on_c, 0, 67, 63
1, 601, Note_on_c, 3, 59, 47
1, 601, Note_on_c, 4, 55, 47
1, 719, Note_on_c, 0, 67, 0
1, 719, Note_on_c, 3, 59, 0
1, 719, Note_on_c, 4, 55, 0
1, 720, Note_on_c, 0, 67, 63
1, 720, Note_on_c, 3, 59, 47
1, 720, Note_on_c, 4, 55, 47
1, 959, Note_on_c, 0, 67, 0
1, 959, Note_on_c, 3, 59, 0
1, 959, Note_on_c, 4, 55, 0
1, 960, Note_on_c, 0, 71, 63
1, 960, Note_on_c, 3, 60, 47
1, 960, Note_on_c, 4, 55, 47
1, 1019, Note_on_c, 0, 71, 0
1, 1020, Note_on_c, 0, 69, 63
1, 1079, Note_on_c, 0, 69, 0
1, 1079, Note_on_c, 3, 60, 0
1, 1079, Note_on_c, 4, 55, 0
1, 1080, Note_on_c, 0, 62, 63
1, 1080, Note_on_c, 3, 60, 47
1, 1080, Note_on_c, 4, 55, 47
1, 1199, Note_on_c, 0, 62, 0
1, 1200, Note_on_c, 0, 64, 63
1, 1319, Note_on_c, 0, 64, 0
1, 1319, Note_on_c, 3, 60, 0
1, 1319, Note_on_c, 4, 55, 0
1, 1320, Note_on_c, 0, 66, 63
1, 1320, Note_on_c, 3, 60, 47
1, 1320, Note_on_c, 4, 55, 47
1, 1343, Note_on_c, 0, 66, 0
1, 1344, Note_on_c, 0, 67, 63
1, 1367, Note_on_c, 0, 67, 0
1, 1368, Note_on_c, 0, 66, 63
1, 1391, Note_on_c, 0, 66, 0
1, 1392, Note_on_c, 0, 64, 63
1, 1415, Note_on_c, 0, 64, 0
1, 1416, Note_on_c, 0, 66, 63
1, 1439, Note_on_c, 0, 66, 0
1, 1439, Note_on_c, 3, 60, 0
1, 1439, Note_on_c, 4, 55, 0
1, 1440, Note_on_c, 0, 67, 63
1, 1440, Note_on_c, 3, 59, 47
1, 1440, Note_on_c, 4, 55, 47
1, 1499, Note_on_c, 0, 67, 0
1, 1499, Note_on_c, 3, 59, 0
1, 1499, Note_on_c, 4, 55, 0
1, 1561, Note_on_c, 0, 67, 63
1, 1561, Note_on_c, 3, 59, 47
1, 1561, Note_on_c, 4, 55, 47
1, 1619, Note_on_c, 0, 67, 0
1, 1619, Note_on_c, 3, 59, 0
1, 1619, Note_on_c, 4, 55, 0
1, 1681, Note_on_c, 0, 67, 63
1, 1681, Note_on_c, 3, 59, 47
1, 1681, Note_on_c, 4, 55, 47
1, 1739, Note_on_c, 0, 67, 0
1, 1739, Note_on_c, 3, 59, 0
1, 1739, Note_on_c, 4, 55, 0
1, 1801, Note_on_c, 0, 67, 63
1, 1801, Note_on_c, 3, 59, 47
1, 1801, Note_on_c, 4, 55, 47
1, 2039, Note_on_c, 0, 67, 0
1, 2039, Note_on_c, 3, 59, 0
1, 2039, Note_on_c, 4, 55, 0
1, 2040, Note_on_c, 0, 69, 63
1, 2040, Note_on_c, 3, 62, 47
1, 2040, Note_on_c, 4, 54, 47
1, 2159, Note_on_c, 0, 69, 0
1, 2159, Note_on_c, 3, 62, 0
1, 2159, Note_on_c, 4, 54, 0
1, 2160, Note_on_c, 0, 72, 63
1, 2160, Note_on_c, 3, 62, 47
1, 2160, Note_on_c, 4, 57, 47
1, 2189, Note_on_c, 0, 72, 0
1, 2189, Note_on_c, 4, 57, 0
1, 2190, Note_on_c, 0, 71, 63
1, 2190, Note_on_c, 4, 55, 47
1, 2279, Note_on_c, 0, 71, 0
1, 2279, Note_on_c, 4, 55, 0
1, 2280, Note_on_c, 0, 69, 81
1, 2280, Note_on_c, 4, 54, 63
1, 2399, Note_on_c, 0, 69, 0
1, 2399, Note_on_c, 4, 54, 0
1, 2400, Note_on_c, 0, 71, 81
1, 2400, Note_on_c, 4, 55, 63
1, 2519, Note_on_c, 0, 71, 0
1, 2519, Note_on_c, 3, 62, 0
1, 2519, Note_on_c, 4, 55, 0
1, 2520, Note_on_c, 0, 74, 81
1, 2520, Note_on_c, 3, 62, 47
1, 2520, Note_on_c, 4, 57, 63
1, 2521, Note_on_c, 1, 66, 63
1, 2639, Note_on_c, 0, 74, 0
1, 2640, Note_on_c, 0, 72, 81
1, 2759, Note_on_c, 0, 72, 0
1, 2759, Note_on_c, 1, 66, 0
1, 2759, Note_on_c, 4, 57, 0
1, 2760, Note_on_c, 0, 71, 81
1, 2760, Note_on_c, 1, 67, 63
1, 2760, Note_on_c, 4, 55, 63
1, 2879, Note_on_c, 0, 71, 0
1, 2879, Note_on_c, 1, 67, 0
1, 2879, Note_on_c, 3, 62, 0
1, 2879, Note_on_c, 4, 55, 0
1, 2880, Note_on_c, 0, 71, 63
1, 2880, Note_on_c, 1, 67, 47
1, 2880, Note_on_c, 3, 50, 47
1, 2999, Note_on_c, 0, 71, 0
1, 2999, Note_on_c, 1, 67, 0
1, 2999, Note_on_c, 3, 50, 0
1, 3000, Note_on_c, 0, 69, 63
1, 3000, Note_on_c, 1, 66, 47
1, 3000, Note_on_c, 3, 62, 47
1, 3119, Note_on_c, 0, 69, 0
1, 3119, Note_on_c, 1, 66, 0
1, 3119, Note_on_c, 3, 62, 0
1, 3120, Note_on_c, 0, 69, 63
1, 3120, Note_on_c, 1, 66, 47
1, 3120, Note_on_c, 3, 62, 47
1, 3179, Note_on_c, 0, 69, 0
1, 3179, Note_on_c, 1, 66, 0
1, 3179, Note_on_c, 3, 62, 0
1, 3241, Note_on_c, 0, 69, 63
1, 3241, Note_on_c, 1, 66, 47
1, 3241, Note_on_c, 3, 62, 47
1, 3359, Note_on_c, 3, 62, 0
1, 3360, Note_on_c, 3, 60, 47
1, 3479, Note_on_c, 0, 69, 0
1, 3479, Note_on_c, 1, 66, 0
1, 3479, Note_on_c, 3, 60, 0
1, 3480, Note_on_c, 0, 71, 63
1, 3480, Note_on_c, 1, 68, 47
1, 3480, Note_on_c, 3, 59, 47
1, 3599, Note_on_c, 0, 71, 0
1, 3599, Note_on_c, 1, 68, 0
1, 3599, Note_on_c, 3, 59, 0
1, 3600, Note_on_c, 0, 72, 81
1, 3600, Note_on_c, 1, 69, 63
1, 3600, Note_on_c, 3, 57, 47
1, 3719, Note_on_c, 0, 72, 0
1, 3719, Note_on_c, 1, 69, 0
1, 3720, Note_on_c, 0, 74, 81
1, 3720, Note_on_c, 1, 71, 63
1, 3839, Note_on_c, 0, 74, 0
1, 3839, Note_on_c, 1, 71, 0
1, 3839, Note_on_c, 3, 57, 0
1, 3840, Note_on_c, 0, 76, 81
1, 3840, Note_on_c, 1, 72, 63
1, 3840, Note_on_c, 3, 55, 47
1, 3959, Note_on_c, 0, 76, 0
1, 3959, Note_on_c, 1, 72, 0
1, 3959, Note_on_c, 3, 55, 0
1, 3960, Note_on_c, 0, 76, 81
1, 3960, Note_on_c, 1, 72, 63
1, 3960, Note_on_c, 3, 54, 47
1, 4079, Note_on_c, 3, 54, 0
1, 4080, Note_on_c, 3, 57, 47
1, 4199, Note_on_c, 0, 76, 0
1, 4199, Note_on_c, 1, 72, 0
1, 4199, Note_on_c, 3, 57, 0
1, 4200, Note_on_c, 0, 74, 63
1, 4200, Note_on_c, 1, 69, 47
1, 4200, Note_on_c, 3, 62, 47
1, 4219, Note_on_c, 0, 74, 0
1, 4220, Note_on_c, 0, 72, 63
1, 4239, Note_on_c, 0, 72, 0
1, 4240, Note_on_c, 0, 71, 63
1, 4259, Note_on_c, 0, 71, 0
1, 4260, Note_on_c, 0, 72, 63
1, 4319, Note_on_c, 0, 72, 0
1, 4319, Note_on_c, 1, 69, 0
1, 4319, Note_on_c, 3, 62, 0
1, 4320, Note_on_c, 0, 71, 81
1, 4320, Note_on_c, 1, 67, 63
1, 4321, Note_on_c, 4, 55, 63
1, 4439, Note_on_c, 0, 71, 0
1, 4439, Note_on_c, 1, 67, 0
1, 4440, Note_on_c, 0, 72, 81
1, 4440, Note_on_c, 1, 69, 63
1, 4559, Note_on_c, 0, 72, 0
1, 4559, Note_on_c, 1, 69, 0
1, 4560, Note_on_c, 0, 74, 81
1, 4560, Note_on_c, 1, 71, 63
1, 4561, Note_on_c, 3, 65, 63
1, 4679, Note_on_c, 0, 74, 0
1, 4679, Note_on_c, 1, 71, 0
1, 4679, Note_on_c, 3, 65, 0
1, 4680, Note_on_c, 0, 72, 81
1, 4680, Note_on_c, 1, 67, 63
1, 4680, Note_on_c, 3, 64, 63
1, 4799, Note_on_c, 0, 72, 0
1, 4799, Note_on_c, 3, 64, 0
1, 4800, Note_on_c, 0, 74, 81
1, 4800, Note_on_c, 3, 62, 63
1, 4919, Note_on_c, 0, 74, 0
1, 4919, Note_on_c, 3, 62, 0
1, 4920, Note_on_c, 0, 76, 81
1, 4920, Note_on_c, 3, 60, 63
1, 5039, Note_on_c, 0, 76, 0
1, 5039, Note_on_c, 3, 60, 0
1, 5039, Note_on_c, 4, 55, 0
1, 5040, Note_on_c, 0, 74, 81
1, 5040, Note_on_c, 3, 59, 63
1, 5159, Note_on_c, 0, 74, 0
1, 5159, Note_on_c, 1, 67, 0
1, 5159, Note_on_c, 3, 59, 0
1, 5160, Note_on_c, 0, 79, 81
1, 5160, Note_on_c, 3, 59, 63
1, 5161, Note_on_c, 4, 55, 63
1, 5279, Note_on_c, 0, 79, 0
1, 5279, Note_on_c, 3, 59, 0
1, 5279, Note_on_c, 4, 55, 0
1, 5280, Note_on_c, 0, 79, 105
1, 5280, Note_on_c, 3, 57, 63
1, 5280, Note_on_c, 4, 54, 63
1, 5399, Note_on_c, 0, 79, 0
1, 5399, Note_on_c, 3, 57, 0
1, 5399, Note_on_c, 4, 54, 0
1, 5400, Note_on_c, 0, 81, 105
1, 5400, Note_on_c, 3, 55, 63
1, 5400, Note_on_c, 4, 52, 63
1, 5459, Note_on_c, 0, 81, 0
1, 5460, Note_on_c, 0, 79, 105
1, 5519, Note_on_c, 0, 79, 0
1, 5519, Note_on_c, 3, 55, 0
1, 5520, Note_on_c, 0, 78, 105
1, 5520, Note_on_c, 3, 59, 63
1, 5579, Note_on_c, 0, 78, 0
1, 5580, Note_on_c, 0, 76, 105
1, 5639, Note_on_c, 0, 76, 0
1, 5639, Note_on_c, 3, 59, 0
1, 5639, Note_on_c, 4, 52, 0
1, 5640, Note_on_c, 0, 74, 105
1, 5640, Note_on_c, 3, 67, 63
1, 5640, Note_on_c, 4, 57, 63
1, 5699, Note_on_c, 0, 74, 0
1, 5700, Note_on_c, 0, 73, 105
1, 5759, Note_on_c, 0, 73, 0
1, 5759, Note_on_c, 3, 67, 0
1, 5759, Note_on_c, 4, 57, 0
1, 5760, Note_on_c, 0, 76, 63
1, 5760, Note_on_c, 3, 62, 47
1, 5761, Note_on_c, 1, 67, 47
1, 5879, Note_on_c, 0, 76, 0
1, 5879, Note_on_c, 1, 67, 0
1, 5880, Note_on_c, 0, 74, 47
1, 5880, Note_on_c, 1, 66, 36
1, 5999, Note_on_c, 0, 74, 0
1, 5999, Note_on_c, 1, 66, 0
1, 6000, Note_on_c, 0, 74, 47
1, 6000, Note_on_c, 1, 66, 36
1, 6059, Note_on_c, 0, 74, 0
1, 6059, Note_on_c, 1, 66, 0
1, 6121, Note_on_c, 0, 74, 47
1, 6121, Note_on_c, 1, 66, 36
1, 6359, Note_on_c, 0, 74, 0
1, 6359, Note_on_c, 1, 66, 0
1, 6359, Note_on_c, 3, 62, 0
1, 6360, Note_on_c, 0, 79, 81
1, 6360, Note_on_c, 3, 62, 63
1, 6361, Note_on_c, 4, 59, 63
1, 6479, Note_on_c, 0, 79, 0
1, 6479, Note_on_c, 3, 62, 0
1, 6479, Note_on_c, 4, 59, 0
1, 6480, Note_on_c, 0, 79, 81
1, 6480, Note_on_c, 3, 62, 63
1, 6480, Note_on_c, 4, 59, 63
1, 6719, Note_on_c, 0, 79, 0
1, 6719, Note_on_c, 3, 62, 0
1, 6719, Note_on_c, 4, 59, 0
1, 6720, Note_on_c, 0, 83, 81
1, 6720, Note_on_c, 3, 64, 63
1, 6720, Note_on_c, 4, 60, 63
1, 6779, Note_on_c, 0, 83, 0
1, 6780, Note_on_c, 0, 81, 81
1, 6839, Note_on_c, 0, 81, 0
1, 6839, Note_on_c, 3, 64, 0
1, 6839, Note_on_c, 4, 60, 0
1, 6840, Note_on_c, 0, 79, 81
1, 6840, Note_on_c, 3, 62, 63
1, 6840, Note_on_c, 4, 59, 63
1, 6959, Note_on_c, 0, 79, 0
1, 6959, Note_on_c, 3, 62, 0
1, 6959, Note_on_c, 4, 59, 0
1, 6960, Note_on_c, 0, 78, 81
1, 6960, Note_on_c, 3, 60, 63
1, 6960, Note_on_c, 4, 57, 63
1, 7079, Note_on_c, 0, 78, 0
1, 7079, Note_on_c, 3, 60, 0
1, 7079, Note_on_c, 4, 57, 0
1, 7080, Note_on_c, 0, 76, 81
1, 7080, Note_on_c, 3, 59, 63
1, 7080, Note_on_c, 4, 55, 63
1, 7199, Note_on_c, 0, 76, 0
1, 7199, Note_on_c, 3, 59, 0
1, 7199, Note_on_c, 4, 55, 0
1, 7200, Note_on_c, 0, 74, 81
1, 7200, Note_on_c, 3, 57, 63
1, 7200, Note_on_c, 4, 54, 63
1, 7259, Note_on_c, 0, 74, 0
1, 7259, Note_on_c, 3, 57, 0
1, 7259, Note_on_c, 4, 54, 0
1, 7321, Note_on_c, 0, 74, 81
1, 7321, Note_on_c, 3, 57, 63
1, 7321, Note_on_c, 4, 54, 63
1, 7379, Note_on_c, 0, 74, 0
1, 7379, Note_on_c, 3, 57, 0
1, 7379, Note_on_c, 4, 54, 0
1, 7441, Note_on_c, 0, 74, 81
1, 7441, Note_on_c, 3, 57, 63
1, 7441, Note_on_c, 4, 54, 63
1, 7499, Note_on_c, 0, 74, 0
1, 7499, Note_on_c, 3, 57, 0
1, 7499, Note_on_c, 4, 54, 0
1, 7561, Note_on_c, 0, 74, 81
1, 7561, Note_on_c, 3, 57, 63
1, 7561, Note_on_c, 4, 54, 63
1, 7679, Note_on_c, 3, 57, 0
1, 7680, Note_on_c, 3, 59, 63
1, 7799, Note_on_c, 0, 74, 0
1, 7799, Note_on_c, 3, 59, 0
1, 7800, Note_on_c, 0, 75, 81
1, 7800, Note_on_c, 3, 60, 63
1, 7919, Note_on_c, 0, 75, 0
1, 7919, Note_on_c, 3, 60, 0
1, 7919, Note_on_c, 4, 54, 0
1, 7920, Note_on_c, 0, 76, 81
1, 7920, Note_on_c, 3, 59, 63
1, 7920, Note_on_c, 4, 55, 63
1, 8039, Note_on_c, 0, 76, 0
1, 8039, Note_on_c, 3, 59, 0
1, 8039, Note_on_c, 4, 55, 0
1, 8040, Note_on_c, 0, 78, 81
1, 8040, Note_on_c, 3, 57, 63
1, 8040, Note_on_c, 4, 54, 63
1, 8059, Note_on_c, 0, 78, 0
1, 8060, Note_on_c, 0, 79, 81
1, 8079, Note_on_c, 0, 79, 0
1, 8080, Note_on_c, 0, 78, 81
1, 8099, Note_on_c, 0, 78, 0
1, 8100, Note_on_c, 0, 76, 81
1, 8129, Note_on_c, 0, 76, 0
1, 8130, Note_on_c, 0, 78, 81
1, 8159, Note_on_c, 0, 78, 0
1, 8159, Note_on_c, 3, 57, 0
1, 8159, Note_on_c, 4, 54, 0
1, 8160, Note_on_c, 0, 79, 81
1, 8160, Note_on_c, 3, 55, 63
1, 8160, Note_on_c, 4, 52, 63
1, 8279, Note_on_c, 0, 79, 0
1, 8279, Note_on_c, 3, 55, 0
1, 8279, Note_on_c, 4, 52, 0
1, 8280, Note_on_c, 0, 69, 81
1, 8280, Note_on_c, 3, 67, 63
1, 8280, Note_on_c, 4, 57, 63
1, 8399, Note_on_c, 0, 69, 0
1, 8399, Note_on_c, 3, 67, 0
1, 8400, Note_on_c, 0, 71, 81
1, 8400, Note_on_c, 3, 66, 63
1, 8519, Note_on_c, 0, 71, 0
1, 8519, Note_on_c, 3, 66, 0
1, 8520, Note_on_c, 0, 73, 81
1, 8520, Note_on_c, 3, 64, 63
1, 8539, Note_on_c, 0, 73, 0
1, 8540, Note_on_c, 0, 74, 81
1, 8559, Note_on_c, 0, 74, 0
1, 8560, Note_on_c, 0, 73, 81
1, 8579, Note_on_c, 0, 73, 0
1, 8580, Note_on_c, 0, 71, 81
1, 8609, Note_on_c, 0, 71, 0
1, 8610, Note_on_c, 0, 73, 81
1, 8639, Note_on_c, 0, 73, 0
1, 8639, Note_on_c, 3, 64, 0
1, 8639, Note_on_c, 4, 57, 0
1, 8640, Note_on_c, 0, 74, 81
1, 8759, Note_on_c, 0, 74, 0
1, 8761, Note_on_c, 3, 54, 31
1, 8761, Note_on_c, 4, 50, 31
1, 8879, Note_on_c, 3, 54, 0
1, 8879, Note_on_c, 4, 50, 0
1, 8880, Note_on_c, 3, 55, 31
1, 8880, Note_on_c, 4, 52, 31
1, 8881, Note_on_c, 0, 74, 47
1, 8999, Note_on_c, 0, 74, 0
1, 8999, Note_on_c, 3, 55, 0
1, 8999, Note_on_c, 4, 52, 0
1, 9000, Note_on_c, 0, 74, 47
1, 9119, Note_on_c, 0, 74, 0
1, 9121, Note_on_c, 3, 57, 36
1, 9121, Note_on_c, 4, 54, 31
1, 9239, Note_on_c, 3, 57, 0
1, 9239, Note_on_c, 4, 54, 0
1, 9240, Note_on_c, 3, 59, 36
1, 9240, Note_on_c, 4, 55, 31
1, 9241, Note_on_c, 0, 74, 47
1, 9359, Note_on_c, 0, 74, 0
1, 9359, Note_on_c, 3, 59, 0
1, 9359, Note_on_c, 4, 55, 0
1, 9360, Note_on_c, 0, 74, 47
1, 9479, Note_on_c, 0, 74, 0
1, 9481, Note_on_c, 3, 60, 36
1, 9481, Note_on_c, 4, 57, 31
1, 9599, Note_on_c, 3, 60, 0
1, 9599, Note_on_c, 4, 57, 0
1, 9600, Note_on_c, 3, 59, 36
1, 9600, Note_on_c, 4, 55, 31
1, 9601, Note_on_c, 0, 74, 47
1, 9719, Note_on_c, 0, 74, 0
1, 9719, Note_on_c, 3, 59, 0
1, 9719, Note_on_c, 4, 55, 0
1, 9720, Note_on_c, 0, 74, 47
1, 9839, Note_on_c, 0, 74, 0
1, 9841, Note_on_c, 3, 57, 36
1, 9841, Note_on_c, 4, 54, 31
1, 9959, Note_on_c, 3, 57, 0
1, 9959, Note_on_c, 4, 54, 0
1, 9960, Note_on_c, 3, 55, 36
1, 9960, Note_on_c, 4, 52, 31
1, 9961, Note_on_c, 0, 74, 47
1, 10079, Note_on_c, 0, 74, 0
1, 10079, Note_on_c, 3, 55, 0
1, 10079, Note_on_c, 4, 52, 0
1, 10080, Note_on_c, 0, 74, 47
1, 10080, Note_on_c, 3, 54, 36
1, 10080, Note_on_c, 4, 50, 31
1, 10199, Note_on_c, 0, 74, 0
1, 10199, Note_on_c, 3, 54, 0
1, 10199, Note_on_c, 4, 50, 0
1, 10200, Note_on_c, 0, 78, 36
1, 10201, Note_on_c, 1, 74, 29
1, 10319, Note_on_c, 0, 78, 0
1, 10319, Note_on_c, 1, 74, 0
1, 10320, Note_on_c, 0, 79, 31
1, 10320, Note_on_c, 1, 76, 29
1, 10321, Note_on_c, 3, 62, 29
1, 10439, Note_on_c, 0, 79, 0
1, 10439, Note_on_c, 1, 76, 0
1, 10439, Note_on_c, 3, 62, 0
1, 10440, Note_on_c, 3, 62, 29
1, 10559, Note_on_c, 3, 62, 0
1, 10561, Note_on_c, 0, 81, 36
1, 10561, Note_on_c, 1, 78, 29
1, 10679, Note_on_c, 0, 81, 0
1, 10679, Note_on_c, 1, 78, 0
1, 10680, Note_on_c, 0, 83, 36
1, 10680, Note_on_c, 1, 79, 29
1, 10681, Note_on_c, 3, 62, 29
1, 10799, Note_on_c, 0, 83, 0
1, 10799, Note_on_c, 1, 79, 0
1, 10799, Note_on_c, 3, 62, 0
1, 10800, Note_on_c, 3, 62, 29
1, 10919, Note_on_c, 3, 62, 0
1, 10921, Note_on_c, 0, 84, 36
1, 10921, Note_on_c, 1, 81, 29
1, 11039, Note_on_c, 0, 84, 0
1, 11039, Note_on_c, 1, 81, 0
1, 11040, Note_on_c, 0, 83, 36
1, 11040, Note_on_c, 1, 79, 29
1, 11041, Note_on_c, 3, 62, 29
1, 11159, Note_on_c, 0, 83, 0
1, 11159, Note_on_c, 1, 79, 0
1, 11159, Note_on_c, 3, 62, 0
1, 11160, Note_on_c, 3, 62, 29
1, 11279, Note_on_c, 3, 62, 0
1, 11280, Note_on_c, 3, 66, 29
1, 11281, Note_on_c, 0, 81, 36
1, 11281, Note_on_c, 1, 72, 29
1, 11399, Note_on_c, 0, 81, 0
1, 11399, Note_on_c, 1, 72, 0
1, 11399, Note_on_c, 3, 66, 0
1, 11400, Note_on_c, 0, 79, 36
1, 11400, Note_on_c, 1, 71, 29
1, 11400, Note_on_c, 3, 67, 29
1, 11519, Note_on_c, 0, 79, 0
1, 11519, Note_on_c, 1, 71, 0
1, 11519, Note_on_c, 3, 67, 0
1, 11520, Note_on_c, 0, 78, 36
1, 11520, Note_on_c, 1, 72, 29
1, 11520, Note_on_c, 3, 62, 29
1, 11521, Note_on_c, 2, 69, 29
1, 11879, Note_on_c, 0, 78, 0
1, 11880, Note_on_c, 0, 71, 31
1, 11939, Note_on_c, 0, 71, 0
1, 11940, Note_on_c, 0, 72, 31
1, 11999, Note_on_c, 0, 72, 0
1, 12000, Note_on_c, 0, 74, 31
1, 12059, Note_on_c, 0, 74, 0
1, 12060, Note_on_c, 0, 72, 31
1, 12119, Note_on_c, 0, 72, 0
1, 12120, Note_on_c, 0, 71, 31
1, 12179, Note_on_c, 0, 71, 0
1, 12180, Note_on_c, 0, 69, 31
1, 12239, Note_on_c, 0, 69, 0
1, 12239, Note_on_c, 1, 72, 0
1, 12239, Note_on_c, 2, 69, 0
1, 12239, Note_on_c, 3, 62, 0
1, 12240, Note_on_c, 0, 67, 31
1, 12240, Note_on_c, 3, 59, 26
1, 12241, Note_on_c, 4, 55, 31
1, 12479, Note_on_c, 0, 67, 0
1, 12479, Note_on_c, 3, 59, 0
1, 12479, Note_on_c, 4, 55, 0
1, 12480, Note_on_c, 0, 71, 47
1, 12480, Note_on_c, 3, 60, 31
1, 12480, Note_on_c, 4, 55, 31
1, 12539, Note_on_c, 0, 71, 0
1, 12540, Note_on_c, 0, 69, 47
1, 12599, Note_on_c, 0, 69, 0
1, 12599, Note_on_c, 3, 60, 0
1, 12599, Note_on_c, 4, 55, 0
1, 12600, Note_on_c, 0, 62, 47
1, 12600, Note_on_c, 3, 60, 31
1, 12600, Note_on_c, 4, 55, 31
1, 12719, Note_on_c, 0, 62, 0
1, 12720, Note_on_c, 0, 64, 47
1, 12839, Note_on_c, 0, 64, 0
1, 12839, Note_on_c, 3, 60, 0
1, 12839, Note_on_c, 4, 55, 0
1, 12840, Note_on_c, 0, 66, 47
1, 12840, Note_on_c, 3, 60, 31
1, 12840, Note_on_c, 4, 55, 31
1, 12859, Note_on_c, 0, 66, 0
1, 12860, Note_on_c, 0, 67, 47
1, 12879, Note_on_c, 0, 67, 0
1, 12880, Note_on_c, 0, 66, 47
1, 12899, Note_on_c, 0, 66, 0
1, 12900, Note_on_c, 0, 64, 47
1, 12929, Note_on_c, 0, 64, 0
1, 12930, Note_on_c, 0, 66, 47
1, 12959, Note_on_c, 0, 66, 0
1, 12959, Note_on_c, 3, 60, 0
1, 12959, Note_on_c, 4, 55, 0
1, 12960, Note_on_c, 0, 67, 47
1, 12960, Note_on_c, 3, 59, 31
1, 12960, Note_on_c, 4, 55, 31
1, 13019, Note_on_c, 0, 67, 0
1, 13019, Note_on_c, 3, 59, 0
1, 13019, Note_on_c, 4, 55, 0
1, 13081, Note_on_c, 0, 67, 47
1, 13081, Note_on_c, 3, 59, 31
1, 13081, Note_on_c, 4, 55, 31
1, 13139, Note_on_c, 0, 67, 0
1, 13139, Note_on_c, 3, 59, 0
1, 13139, Note_on_c, 4, 55, 0
1, 13201, Note_on_c, 0, 67, 47
1, 13201, Note_on_c, 3, 59, 31
1, 13201, Note_on_c, 4, 55, 31
1, 13259, Note_on_c, 0, 67, 0
1, 13259, Note_on_c, 3, 59, 0
1, 13259, Note_on_c, 4, 55, 0
1, 13321, Note_on_c, 0, 67, 47
1, 13321, Note_on_c, 3, 59, 31
1, 13321, Note_on_c, 4, 55, 31
1, 13559, Note_on_c, 0, 67, 0
1, 13559, Note_on_c, 3, 59, 0
1, 13559, Note_on_c, 4, 55, 0
1, 13560, Note_on_c, 0, 69, 47
1, 13560, Note_on_c, 3, 62, 31
1, 13560, Note_on_c, 4, 54, 31
1, 13679, Note_on_c, 0, 69, 0
1, 13679, Note_on_c, 3, 62, 0
1, 13679, Note_on_c, 4, 54, 0
1, 13680, Note_on_c, 0, 72, 47
1, 13680, Note_on_c, 3, 62, 31
1, 13680, Note_on_c, 4, 57, 31
1, 13709, Note_on_c, 0, 72, 0
1, 13709, Note_on_c, 4, 57, 0
1, 13710, Note_on_c, 0, 71, 63
1, 13710, Note_on_c, 4, 55, 47
1, 13799, Note_on_c, 0, 71, 0
1, 13799, Note_on_c, 4, 55, 0
1, 13800, Note_on_c, 0, 69, 63
1, 13800, Note_on_c, 4, 54, 47
1, 13919, Note_on_c, 0, 69, 0
1, 13919, Note_on_c, 4, 54, 0
1, 13920, Note_on_c, 0, 71, 63
1, 13920, Note_on_c, 4, 55, 47
1, 14039, Note_on_c, 0, 71, 0
1, 14039, Note_on_c, 3, 62, 0
1, 14039, Note_on_c, 4, 55, 0
1, 14040, Note_on_c, 0, 74, 63
1, 14040, Note_on_c, 3, 62, 47
1, 14040, Note_on_c, 4, 57, 47
1, 14041, Note_on_c, 1, 66, 47
1, 14159, Note_on_c, 0, 74, 0
1, 14160, Note_on_c, 0, 72, 63
1, 14279, Note_on_c, 0, 72, 0
1, 14279, Note_on_c, 1, 66, 0
1, 14279, Note_on_c, 4, 57, 0
1, 14280, Note_on_c, 0, 71, 63
1, 14280, Note_on_c, 1, 67, 47
1, 14280, Note_on_c, 4, 55, 47
1, 14399, Note_on_c, 0, 71, 0
1, 14399, Note_on_c, 1, 67, 0
1, 14399, Note_on_c, 3, 62, 0
1, 14399, Note_on_c, 4, 55, 0
1, 14400, Note_on_c, 0, 71, 63
1, 14400, Note_on_c, 1, 67, 31
1, 14400, Note_on_c, 3, 50, 47
1, 14519, Note_on_c, 0, 71, 0
1, 14519, Note_on_c, 1, 67, 0
1, 14519, Note_on_c, 3, 50, 0
1, 14520, Note_on_c, 0, 69, 47
1, 14520, Note_on_c, 1, 66, 31
1, 14520, Note_on_c, 3, 62, 31
1, 14639, Note_on_c, 0, 69, 0
1, 14639, Note_on_c, 1, 66, 0
1, 14639, Note_on_c, 3, 62, 0
1, 14640, Note_on_c, 0, 69, 47
1, 14640, Note_on_c, 1, 66, 31
1, 14640, Note_on_c, 3, 62, 31
1, 14699, Note_on_c, 0, 69, 0
1, 14699, Note_on_c, 1, 66, 0
1, 14699, Note_on_c, 3, 62, 0
1, 14761, Note_on_c, 0, 69, 47
1, 14761, Note_on_c, 1, 66, 31
1, 14761, Note_on_c, 3, 62, 31
1, 14879, Note_on_c, 3, 62, 0
1, 14880, Note_on_c, 3, 60, 31
1, 14999, Note_on_c, 0, 69, 0
1, 14999, Note_on_c, 1, 66, 0
1, 14999, Note_on_c, 3, 60, 0
1, 15000, Note_on_c, 0, 71, 47
1, 15000, Note_on_c, 1, 68, 31
1, 15000, Note_on_c, 3, 59, 31
1, 15119, Note_on_c, 0, 71, 0
1, 15119, Note_on_c, 1, 68, 0
1, 15119, Note_on_c, 3, 59, 0
1, 15120, Note_on_c, 0, 72, 63
1, 15120, Note_on_c, 1, 69, 47
1, 15120, Note_on_c, 3, 57, 47
1, 15239, Note_on_c, 0, 72, 0
1, 15239, Note_on_c, 1, 69, 0
1, 15240, Note_on_c, 0, 74, 63
1, 15240, Note_on_c, 1, 71, 47
1, 15359, Note_on_c, 0, 74, 0
1, 15359, Note_on_c, 1, 71, 0
1, 15359, Note_on_c, 3, 57, 0
1, 15360, Note_on_c, 0, 76, 63
1, 15360, Note_on_c, 1, 72, 47
1, 15360, Note_on_c, 3, 55, 47
1, 15479, Note_on_c, 0, 76, 0
1, 15479, Note_on_c, 1, 72, 0
1, 15479, Note_on_c, 3, 55, 0
1, 15480, Note_on_c, 0, 76, 63
1, 15480, Note_on_c, 1, 72, 47
1, 15480, Note_on_c, 3, 54, 47
1, 15599, Note_on_c, 3, 54, 0
1, 15600, Note_on_c, 3, 57, 47
1, 15719, Note_on_c, 0, 76, 0
1, 15719, Note_on_c, 1, 72, 0
1, 15719, Note_on_c, 3, 57, 0
1, 15720, Note_on_c, 0, 74, 63
1, 15720, Note_on_c, 1, 69, 47
1, 15720, Note_on_c, 3, 62, 47
1, 15749, Note_on_c, 0, 74, 0
1, 15750, Note_on_c, 0, 72, 63
1, 15779, Note_on_c, 0, 72, 0
1, 15780, Note_on_c, 0, 71, 63
1, 15809, Note_on_c, 0, 71, 0
1, 15810, Note_on_c, 0, 72, 63
1, 15839, Note_on_c, 0, 72, 0
1, 15839, Note_on_c, 1, 69, 0
1, 15839, Note_on_c, 3, 62, 0
1, 15840, Note_on_c, 0, 71, 63
1, 15840, Note_on_c, 1, 67, 47
1, 15840, Note_on_c, 3, 55, 47
1, 15959, Note_on_c, 0, 71, 0
1, 15959, Note_on_c, 1, 67, 0
1, 15960, Note_on_c, 0, 72, 63
1, 15960, Note_on_c, 1, 69, 47
1, 16079, Note_on_c, 0, 72, 0
1, 16079, Note_on_c, 1, 69, 0
1, 16080, Note_on_c, 0, 74, 63
1, 16080, Note_on_c, 1, 71, 47
1, 16199, Note_on_c, 0, 74, 0
1, 16199, Note_on_c, 1, 71, 0
1, 16199, Note_on_c, 3, 55, 0
1, 16200, Note_on_c, 0, 73, 63
1, 16200, Note_on_c, 1, 71, 47
1, 16200, Note_on_c, 3, 43, 47
1, 16219, Note_on_c, 0, 73, 0
1, 16220, Note_on_c, 0, 74, 63
1, 16239, Note_on_c, 0, 74, 0
1, 16240, Note_on_c, 0, 76, 63
1, 16259, Note_on_c, 0, 76, 0
1, 16260, Note_on_c, 0, 74, 63
1, 16319, Note_on_c, 3, 43, 0
1, 16320, Note_on_c, 3, 47, 47
1, 16439, Note_on_c, 0, 74, 0
1, 16439, Note_on_c, 1, 71, 0
1, 16439, Note_on_c, 3, 47, 0
1, 16440, Note_on_c, 0, 67, 63
1, 16440, Note_on_c, 1, 59, 47
1, 16440, Note_on_c, 3, 50, 47
1, 16459, Note_on_c, 0, 67, 0
1, 16460, Note_on_c, 0, 69, 63
1, 16479, Note_on_c, 0, 69, 0
1, 16480, Note_on_c, 0, 67, 63
1, 16499, Note_on_c, 0, 67, 0
1, 16500, Note_on_c, 0, 66, 63
1, 16529, Note_on_c, 0, 66, 0
1, 16530, Note_on_c, 0, 67, 63
1, 16559, Note_on_c, 0, 67, 0
1, 16559, Note_on_c, 1, 59, 0
1, 16559, Note_on_c, 3, 50, 0
1, 16560, Note_on_c, 0, 69, 63
1, 16560, Note_on_c, 1, 60, 47
1, 16561, Note_on_c, 4, 48, 47
1, 16679, Note_on_c, 0, 69, 0
1, 16679, Note_on_c, 1, 60, 0
1, 16680, Note_on_c, 0, 72, 63
1, 16680, Note_on_c, 1, 64, 47
1, 16799, Note_on_c, 0, 72, 0
1, 16799, Note_on_c, 1, 64, 0
1, 16800, Note_on_c, 0, 71, 63
1, 16800, Note_on_c, 1, 62, 47
1, 16919, Note_on_c, 0, 71, 0
1, 16919, Note_on_c, 1, 62, 0
1, 16919, Note_on_c, 4, 48, 0
1, 16920, Note_on_c, 0, 69, 63
1, 16920, Note_on_c, 1, 60, 47
1, 16920, Note_on_c, 4, 50, 47
1, 17039, Note_on_c, 0, 69, 0
1, 17039, Note_on_c, 1, 60, 0
1, 17040, Note_on_c, 0, 67, 63
1, 17041, Note_on_c, 3, 59, 47
1, 17159, Note_on_c, 0, 67, 0
1, 17159, Note_on_c, 3, 59, 0
1, 17160, Note_on_c, 0, 66, 63
1, 17160, Note_on_c, 3, 57, 47
1, 17179, Note_on_c, 0, 66, 0
1, 17180, Note_on_c, 0, 67, 63
1, 17199, Note_on_c, 0, 67, 0
1, 17200, Note_on_c, 0, 66, 63
1, 17219, Note_on_c, 0, 66, 0
1, 17220, Note_on_c, 0, 64, 63
1, 17249, Note_on_c, 0, 64, 0
1, 17250, Note_on_c, 0, 66, 63
1, 17279, Note_on_c, 0, 66, 0
1, 17279, Note_on_c, 3, 57, 0
1, 17279, Note_on_c, 4, 50, 0
1, 17280, Note_on_c, 0, 69, 63
1, 17280, Note_on_c, 3, 43, 47
1, 17281, Note_on_c, 1, 60, 47
1, 17399, Note_on_c, 0, 69, 0
1, 17399, Note_on_c, 1, 60, 0
1, 17399, Note_on_c, 3, 43, 0
1, 17400, Note_on_c, 0, 67, 63
1, 17400, Note_on_c, 1, 59, 47
1, 17400, Note_on_c, 3, 47, 47
1, 17519, Note_on_c, 0, 67, 0
1, 17519, Note_on_c, 1, 59, 0
1, 17519, Note_on_c, 3, 47, 0
1, 17520, Note_on_c, 0, 67, 63
1, 17520, Note_on_c, 1, 59, 47
1, 17520, Note_on_c, 3, 50, 47
1, 17579, Note_on_c, 0, 67, 0
1, 17579, Note_on_c, 1, 59, 0
1, 17639, Note_on_c, 3, 50, 0
1, 17640, Note_on_c, 3, 55, 47
1, 17641, Note_on_c, 0, 67, 63
1, 17641, Note_on_c, 1, 59, 47
1, 17879, Note_on_c, 0, 67, 0
1, 17879, Note_on_c, 1, 59, 0
1, 17879, Note_on_c, 3, 55, 0
1, 17880, Note_on_c, 0, 74, 47
1, 17939, Note_on_c, 0, 74, 0
1, 18001, Note_on_c, 0, 74, 47
1, 18059, Note_on_c, 0, 74, 0
1, 18121, Note_on_c, 3, 58, 47
1, 18121, Note_on_c, 4, 55, 47
1, 18179, Note_on_c, 3, 58, 0
1, 18179, Note_on_c, 4, 55, 0
1, 18241, Note_on_c, 0, 75, 47
1, 18299, Note_on_c, 0, 75, 0
1, 18361, Note_on_c, 0, 75, 47
1, 18419, Note_on_c, 0, 75, 0
1, 18481, Note_on_c, 3, 60, 47
1, 18481, Note_on_c, 4, 55, 47
1, 18539, Note_on_c, 3, 60, 0
1, 18539, Note_on_c, 4, 55, 0
1, 18601, Note_on_c, 0, 78, 47
1, 18659, Note_on_c, 0, 78, 0
1, 18721, Note_on_c, 0, 78, 47
1, 18779, Note_on_c, 0, 78, 0
1, 18841, Note_on_c, 3, 60, 47
1, 18841, Note_on_c, 4, 55, 47
1, 18899, Note_on_c, 3, 60, 0
1, 18899, Note_on_c, 4, 55, 0
1, 18961, Note_on_c, 0, 79, 47
1, 19019, Note_on_c, 0, 79, 0
1, 19081, Note_on_c, 0, 79, 47
1, 19139, Note_on_c, 0, 79, 0
1, 19201, Note_on_c, 3, 58, 47
1, 19201, Note_on_c, 4, 55, 47
1, 19259, Note_on_c, 3, 58, 0
1, 19259, Note_on_c, 4, 55, 0
1, 19321, Note_on_c, 0, 82, 81
1, 19321, Note_on_c, 1, 73, 63
1, 19321, Note_on_c, 3, 67, 63
1, 19439, Note_on_c, 1, 73, 0
1, 19439, Note_on_c, 3, 67, 0
1, 19440, Note_on_c, 1, 74, 63
1, 19440, Note_on_c, 3, 65, 63
1, 19559, Note_on_c, 0, 82, 0
1, 19560, Note_on_c, 0, 81, 81
1, 19679, Note_on_c, 0, 81, 0
1, 19679, Note_on_c, 1, 74, 0
1, 19679, Note_on_c, 3, 65, 0
1, 19680, Note_on_c, 0, 82, 81
1, 19680, Note_on_c, 1, 73, 63
1, 19680, Note_on_c, 3, 67, 63
1, 19799, Note_on_c, 1, 73, 0
1, 19799, Note_on_c, 3, 67, 0
1, 19800, Note_on_c, 1, 74, 63
1, 19800, Note_on_c, 3, 65, 63
1, 19919, Note_on_c, 0, 82, 0
1, 19920, Note_on_c, 0, 81, 81
1, 20039, Note_on_c, 0, 81, 0
1, 20039, Note_on_c, 1, 74, 0
1, 20039, Note_on_c, 3, 65, 0
1, 20040, Note_on_c, 0, 80, 81
1, 20040, Note_on_c, 1, 65, 63
1, 20040, Note_on_c, 3, 62, 63
1, 20041, Note_on_c, 4, 58, 63
1, 20063, Note_on_c, 0, 80, 0
1, 20064, Note_on_c, 0, 81, 81
1, 20087, Note_on_c, 0, 81, 0
1, 20088, Note_on_c, 0, 80, 81
1, 20111, Note_on_c, 0, 80, 0
1, 20112, Note_on_c, 0, 81, 81
1, 20135, Note_on_c, 0, 81, 0
1, 20136, Note_on_c, 0, 80, 81
1, 20159, Note_on_c, 1, 65, 0
1, 20159, Note_on_c, 3, 62, 0
1, 20159, Note_on_c, 4, 58, 0
1, 20160, Note_on_c, 1, 65, 63
1, 20160, Note_on_c, 3, 62, 63
1, 20160, Note_on_c, 4, 57, 63
1, 20279, Note_on_c, 0, 80, 0
1, 20280, Note_on_c, 0, 81, 81
1, 20339, Note_on_c, 0, 81, 0
1, 20401, Note_on_c, 0, 81, 81
1, 20459, Note_on_c, 0, 81, 0
1, 20519, Note_on_c, 1, 65, 0
1, 20519, Note_on_c, 3, 62, 0
1, 20519, Note_on_c, 4, 57, 0
1, 20520, Note_on_c, 1, 65, 63
1, 20520, Note_on_c, 3, 62, 63
1, 20520, Note_on_c, 4, 56, 63
1, 20641, Note_on_c, 0, 83, 81
1, 20699, Note_on_c, 0, 83, 0
1, 20761, Note_on_c, 0, 83, 81
1, 20819, Note_on_c, 0, 83, 0
1, 20879, Note_on_c, 1, 65, 0
1, 20879, Note_on_c, 3, 62, 0
1, 20879, Note_on_c, 4, 56, 0
1, 20880, Note_on_c, 1, 65, 36
1, 20880, Note_on_c, 3, 62, 36
1, 20880, Note_on_c, 4, 57, 31
1, 21001, Note_on_c, 0, 69, 47
1, 21059, Note_on_c, 0, 69, 0
1, 21121, Note_on_c, 0, 69, 47
1, 21179, Note_on_c, 0, 69, 0
1, 21239, Note_on_c, 1, 65, 0
1, 21239, Note_on_c, 3, 62, 0
1, 21239, Note_on_c, 4, 57, 0
1, 21240, Note_on_c, 1, 67, 36
1, 21240, Note_on_c, 3, 64, 36
1, 21240, Note_on_c, 4, 57, 31
1, 21241, Note_on_c, 0, 69, 47
1, 21359, Note_on_c, 0, 69, 0
1, 21359, Note_on_c, 1, 67, 0
1, 21360, Note_on_c, 0, 71, 47
1, 21360, Note_on_c, 1, 67, 36
1, 21479, Note_on_c, 0, 71, 0
1, 21479, Note_on_c, 1, 67, 0
1, 21480, Note_on_c, 0, 73, 47
1, 21480, Note_on_c, 1, 67, 36
1, 21599, Note_on_c, 0, 73, 0
1, 21599, Note_on_c, 1, 67, 0
1, 21599, Note_on_c, 3, 64, 0
1, 21599, Note_on_c, 4, 57, 0
1, 21600, Note_on_c, 0, 73, 47
1, 21600, Note_on_c, 1, 67, 36
1, 21600, Note_on_c, 3, 62, 36
1, 21719, Note_on_c, 1, 67, 0
1, 21720, Note_on_c, 1, 65, 36
1, 21839, Note_on_c, 1, 65, 0
1, 21840, Note_on_c, 1, 64, 36
1, 21959, Note_on_c, 0, 73, 0
1, 21959, Note_on_c, 1, 64, 0
1, 21960, Note_on_c, 0, 74, 47
1, 21960, Note_on_c, 1, 65, 36
1, 22079, Note_on_c, 0, 74, 0
1, 22079, Note_on_c, 1, 65, 0
1, 22079, Note_on_c, 3, 62, 0
1, 22201, Note_on_c, 0, 74, 47
1, 22259, Note_on_c, 0, 74, 0
1, 22321, Note_on_c, 0, 74, 47
1, 22379, Note_on_c, 0, 74, 0
1, 22441, Note_on_c, 3, 62, 36
1, 22441, Note_on_c, 4, 58, 31
1, 22499, Note_on_c, 3, 62, 0
1, 22499, Note_on_c, 4, 58, 0
1, 22561, Note_on_c, 0, 67, 47
1, 22679, Note_on_c, 0, 67, 0
1, 22680, Note_on_c, 0, 72, 47
1, 22799, Note_on_c, 0, 72, 0
1, 22801, Note_on_c, 3, 63, 36
1, 22801, Note_on_c, 4, 57, 31
1, 22859, Note_on_c, 3, 63, 0
1, 22859, Note_on_c, 4, 57, 0
1, 22921, Note_on_c, 0, 66, 47
1, 23039, Note_on_c, 0, 66, 0
1, 23040, Note_on_c, 0, 70, 47
1, 23159, Note_on_c, 0, 70, 0
1, 23161, Note_on_c, 3, 58, 36
1, 23161, Note_on_c, 4, 55, 31
1, 23219, Note_on_c, 3, 58, 0
1, 23219, Note_on_c, 4, 55, 0
1, 23281, Note_on_c, 0, 61, 47
1, 23399, Note_on_c, 0, 61, 0
1, 23400, Note_on_c, 0, 62, 47
1, 23519, Note_on_c, 0, 62, 0
1, 23521, Note_on_c, 3, 50, 36
1, 23579, Note_on_c, 3, 50, 0
1, 23641, Note_on_c, 0, 79, 81
1, 23641, Note_on_c, 1, 67, 63
1, 23641, Note_on_c, 3, 62, 63
1, 23641, Note_on_c, 4, 58, 63
1, 23759, Note_on_c, 1, 67, 0
1, 23759, Note_on_c, 3, 62, 0
1, 23759, Note_on_c, 4, 58, 0
1, 23760, Note_on_c, 1, 69, 63
1, 23760, Note_on_c, 3, 63, 63
1, 23760, Note_on_c, 4, 60, 63
1, 23879, Note_on_c, 0, 79, 0
1, 23880, Note_on_c, 0, 78, 81
1, 23999, Note_on_c, 0, 78, 0
1, 23999, Note_on_c, 1, 69, 0
1, 23999, Note_on_c, 3, 63, 0
1, 23999, Note_on_c, 4, 60, 0
1, 24000, Note_on_c, 0, 79, 81
1, 24000, Note_on_c, 1, 67, 63
1, 24000, Note_on_c, 3, 62, 63
1, 24000, Note_on_c, 4, 58, 63
1, 24119, Note_on_c, 1, 67, 0
1, 24119, Note_on_c, 3, 62, 0
1, 24119, Note_on_c, 4, 58, 0
1, 24120, Note_on_c, 1, 69, 63
1, 24120, Note_on_c, 3, 63, 63
1, 24120, Note_on_c, 4, 60, 63
1, 24239, Note_on_c, 0, 79, 0
1, 24240, Note_on_c, 0, 78, 81
1, 24359, Note_on_c, 0, 78, 0
1, 24359, Note_on_c, 1, 69, 0
1, 24359, Note_on_c, 3, 63, 0
1, 24359, Note_on_c, 4, 60, 0
1, 24360, Note_on_c, 0, 79, 81
1, 24360, Note_on_c, 1, 67, 63
1, 24360, Note_on_c, 3, 62, 63
1, 24360, Note_on_c, 4, 58, 63
1, 24419, Note_on_c, 0, 79, 0
1, 24419, Note_on_c, 3, 62, 0
1, 24419, Note_on_c, 4, 58, 0
1, 24479, Note_on_c, 1, 67, 0
1, 24480, Note_on_c, 0, 84, 105
1, 24480, Note_on_c, 1, 78, 81
1, 24481, Note_on_c, 2, 75, 81
1, 24481, Note_on_c, 3, 72, 81
1, 24481, Note_on_c, 4, 63, 81
1, 24481, Note_on_c, 5, 60, 81
1, 24481, Note_on_c, 6, 57, 81
1, 24481, Note_on_c, 7, 54, 81
1, 24839, Note_on_c, 1, 78, 0
1, 24839, Note_on_c, 3, 72, 0
1, 24839, Note_on_c, 4, 63, 0
1, 24839, Note_on_c, 5, 60, 0
1, 24839, Note_on_c, 6, 57, 0
1, 24839, Note_on_c, 7, 54, 0
1, 24840, Note_on_c, 4, 55, 63
1, 24958, Note_on_c, 0, 84, 0
1, 24959, Note_on_c, 2, 75, 0
1, 24960, Note_on_c, 0, 82, 81
1, 24960, Note_on_c, 2, 74, 63
1, 25079, Note_on_c, 0, 82, 0
1, 25079, Note_on_c, 2, 74, 0
1, 25080, Note_on_c, 0, 82, 81
1, 25080, Note_on_c, 2, 74, 63
1, 25199, Note_on_c, 2, 74, 0
1, 25199, Note_on_c, 4, 55, 0
1, 25200, Note_on_c, 4, 60, 47
1, 25201, Note_on_c, 1, 75, 63
1, 25319, Note_on_c, 0, 82, 0
1, 25320, Note_on_c, 0, 81, 63
1, 25321, Note_on_c, 2, 72, 47
1, 25439, Note_on_c, 0, 81, 0
1, 25439, Note_on_c, 1, 75, 0
1, 25439, Note_on_c, 2, 72, 0
1, 25440, Note_on_c, 0, 81, 63
1, 25440, Note_on_c, 1, 75, 47
1, 25440, Note_on_c, 2, 72, 47
1, 25559, Note_on_c, 4, 60, 0
1, 25560, Note_on_c, 4, 62, 31
1, 25679, Note_on_c, 0, 81, 0
1, 25679, Note_on_c, 1, 75, 0
1, 25679, Note_on_c, 2, 72, 0
1, 25680, Note_on_c, 0, 79, 47
1, 25680, Note_on_c, 1, 74, 36
1, 25680, Note_on_c, 2, 70, 36
1, 25799, Note_on_c, 0, 79, 0
1, 25799, Note_on_c, 1, 74, 0
1, 25799, Note_on_c, 2, 70, 0
1, 25800, Note_on_c, 0, 78, 47
1, 25800, Note_on_c, 1, 72, 36
1, 25800, Note_on_c, 2, 69, 36
1, 25919, Note_on_c, 0, 78, 0
1, 25919, Note_on_c, 1, 72, 0
1, 25919, Note_on_c, 2, 69, 0
1, 25919, Note_on_c, 4, 62, 0
1, 25920, Note_on_c, 0, 78, 47
1, 25920, Note_on_c, 1, 72, 36
1, 25920, Note_on_c, 2, 69, 36
1, 25920, Note_on_c, 4, 55, 31
1, 26279, Note_on_c, 0, 78, 0
1, 26279, Note_on_c, 1, 72, 0
1, 26279, Note_on_c, 2, 69, 0
1, 26280, Note_on_c, 0, 79, 36
1, 26280, Note_on_c, 1, 70, 29
1, 26280, Note_on_c, 2, 67, 29
1, 26399, Note_on_c, 0, 79, 0
1, 26399, Note_on_c, 1, 70, 0
1, 26399, Note_on_c, 2, 67, 0
1, 26399, Note_on_c, 4, 55, 0
1, 26521, Note_on_c, 0, 67, 63
1, 26521, Note_on_c, 4, 59, 47
1, 26521, Note_on_c, 5, 55, 47
1, 26639, Note_on_c, 0, 67, 0
1, 26639, Note_on_c, 4, 59, 0
1, 26639, Note_on_c, 5, 55, 0
1, 26640, Note_on_c, 0, 67, 63
1, 26640, Note_on_c, 4, 55, 47
1, 26640, Note_on_c, 5, 55, 47
1, 26879, Note_on_c, 0, 67, 0
1, 26879, Note_on_c, 4, 55, 0
1, 26879, Note_on_c, 5, 55, 0
1, 26880, Note_on_c, 0, 71, 81
1, 26880, Note_on_c, 4, 60, 47
1, 26880, Note_on_c, 5, 55, 47
1, 26939, Note_on_c, 0, 71, 0
1, 26940, Note_on_c, 0, 69, 81
1, 26999, Note_on_c, 0, 69, 0
1, 26999, Note_on_c, 4, 60, 0
1, 26999, Note_on_c, 5, 55, 0
1, 27000, Note_on_c, 0, 62, 63
1, 27000, Note_on_c, 4, 60, 47
1, 27000, Note_on_c, 5, 55, 47
1, 27059, Note_on_c, 0, 62, 0
1, 27121, Note_on_c, 0, 63, 63
1, 27179, Note_on_c, 0, 63, 0
1, 27180, Note_on_c, 0, 64, 63
1, 27239, Note_on_c, 0, 64, 0
1, 27239, Note_on_c, 4, 60, 0
1, 27239, Note_on_c, 5, 55, 0
1, 27240, Note_on_c, 0, 65, 63
1, 27240, Note_on_c, 4, 60, 47
1, 27240, Note_on_c, 5, 55, 47
1, 27299, Note_on_c, 0, 65, 0
1, 27300, Note_on_c, 0, 66, 63
1, 27359, Note_on_c, 0, 66, 0
1, 27359, Note_on_c, 4, 60, 0
1, 27359, Note_on_c, 5, 55, 0
1, 27360, Note_on_c, 0, 67, 63
1, 27360, Note_on_c, 4, 59, 47
1, 27360, Note_on_c, 5, 55, 47
1, 27419, Note_on_c, 0, 67, 0
1, 27419, Note_on_c, 4, 59, 0
1, 27420, Note_on_c, 4, 58, 47
1, 27479, Note_on_c, 4, 58, 0
1, 27480, Note_on_c, 4, 59, 47
1, 27481, Note_on_c, 0, 67, 63
1, 27539, Note_on_c, 0, 67, 0
1, 27539, Note_on_c, 4, 59, 0
1, 27540, Note_on_c, 4, 58, 47
1, 27599, Note_on_c, 4, 58, 0
1, 27600, Note_on_c, 4, 59, 47
1, 27601, Note_on_c, 0, 67, 63
1, 27659, Note_on_c, 0, 67, 0
1, 27659, Note_on_c, 4, 59, 0
1, 27660, Note_on_c, 4, 58, 47
1, 27719, Note_on_c, 4, 58, 0
1, 27720, Note_on_c, 4, 59, 47
1, 27721, Note_on_c, 0, 67, 63
1, 27959, Note_on_c, 0, 67, 0
1, 27959, Note_on_c, 4, 59, 0
1, 27959, Note_on_c, 5, 55, 0
1, 27960, Note_on_c, 0, 69, 63
1, 27960, Note_on_c, 4, 62, 47
1, 27960, Note_on_c, 5, 54, 47
1, 28079, Note_on_c, 0, 69, 0
1, 28079, Note_on_c, 4, 62, 0
1, 28079, Note_on_c, 5, 54, 0
1, 28080, Note_on_c, 0, 72, 63
1, 28080, Note_on_c, 4, 62, 47
1, 28080, Note_on_c, 5, 55, 47
1, 28109, Note_on_c, 0, 72, 0
1, 28110, Note_on_c, 0, 71, 63
1, 28139, Note_on_c, 0, 71, 0
1, 28139, Note_on_c, 5, 55, 0
1, 28140, Note_on_c, 0, 70, 81
1, 28140, Note_on_c, 5, 54, 47
1, 28199, Note_on_c, 0, 70, 0
1, 28199, Note_on_c, 5, 54, 0
1, 28200, Note_on_c, 0, 71, 81
1, 28200, Note_on_c, 5, 55, 47
1, 28259, Note_on_c, 0, 71, 0
1, 28259, Note_on_c, 5, 55, 0
1, 28260, Note_on_c, 0, 70, 81
1, 28260, Note_on_c, 5, 54, 47
1, 28319, Note_on_c, 0, 70, 0
1, 28319, Note_on_c, 5, 54, 0
1, 28320, Note_on_c, 0, 71, 81
1, 28320, Note_on_c, 5, 55, 47
1, 28379, Note_on_c, 0, 71, 0
1, 28379, Note_on_c, 5, 55, 0
1, 28380, Note_on_c, 0, 74, 81
1, 28380, Note_on_c, 5, 59, 47
1, 28439, Note_on_c, 0, 74, 0
1, 28439, Note_on_c, 4, 62, 0
1, 28439, Note_on_c, 5, 59, 0
1, 28440, Note_on_c, 0, 74, 81
1, 28440, Note_on_c, 4, 62, 47
1, 28440, Note_on_c, 5, 57, 47
1, 28441, Note_on_c, 1, 66, 47
1, 28559, Note_on_c, 0, 74, 0
1, 28560, Note_on_c, 0, 72, 81
1, 28679, Note_on_c, 0, 72, 0
1, 28679, Note_on_c, 1, 66, 0
1, 28679, Note_on_c, 5, 57, 0
1, 28680, Note_on_c, 0, 71, 81
1, 28680, Note_on_c, 1, 67, 47
1, 28680, Note_on_c, 5, 55, 47
1, 28799, Note_on_c, 0, 71, 0
1, 28799, Note_on_c, 1, 67, 0
1, 28799, Note_on_c, 4, 62, 0
1, 28799, Note_on_c, 5, 55, 0
1, 28800, Note_on_c, 0, 71, 63
1, 28800, Note_on_c, 1, 67, 47
1, 28800, Note_on_c, 5, 50, 47
1, 28859, Note_on_c, 5, 50, 0
1, 28860, Note_on_c, 5, 61, 47
1, 28919, Note_on_c, 0, 71, 0
1, 28919, Note_on_c, 1, 67, 0
1, 28919, Note_on_c, 5, 61, 0
1, 28920, Note_on_c, 0, 69, 63
1, 28920, Note_on_c, 1, 66, 47
1, 28920, Note_on_c, 5, 62, 47
1, 28979, Note_on_c, 5, 62, 0
1, 28980, Note_on_c, 5, 61, 47
1, 29039, Note_on_c, 0, 69, 0
1, 29039, Note_on_c, 1, 66, 0
1, 29039, Note_on_c, 5, 61, 0
1, 29040, Note_on_c, 0, 69, 47
1, 29040, Note_on_c, 1, 66, 36
1, 29040, Note_on_c, 5, 62, 33
1, 29099, Note_on_c, 0, 69, 0
1, 29099, Note_on_c, 1, 66, 0
1, 29099, Note_on_c, 5, 62, 0
1, 29100, Note_on_c, 5, 61, 33
1, 29159, Note_on_c, 5, 61, 0
1, 29160, Note_on_c, 5, 62, 27
1, 29161, Note_on_c, 0, 69, 36
1, 29161, Note_on_c, 1, 66, 29
1, 29219, Note_on_c, 5, 62, 0
1, 29220, Note_on_c, 5, 64, 29
1, 29279, Note_on_c, 5, 64, 0
1, 29280, Note_on_c, 5, 60, 29
1, 29339, Note_on_c, 5, 60, 0
1, 29340, Note_on_c, 5, 62, 29
1, 29399, Note_on_c, 0, 69, 0
1, 29399, Note_on_c, 1, 66, 0
1, 29399, Note_on_c, 5, 62, 0
1, 29400, Note_on_c, 0, 71, 36
1, 29400, Note_on_c, 1, 68, 31
1, 29400, Note_on_c, 5, 59, 29
1, 29459, Note_on_c, 5, 59, 0
1, 29460, Note_on_c, 5, 60, 29
1, 29519, Note_on_c, 0, 71, 0
1, 29519, Note_on_c, 1, 68, 0
1, 29519, Note_on_c, 5, 60, 0
1, 29520, Note_on_c, 0, 72, 36
1, 29520, Note_on_c, 1, 69, 31
1, 29520, Note_on_c, 5, 57, 29
1, 29579, Note_on_c, 5, 57, 0
1, 29580, Note_on_c, 5, 64, 29
1, 29639, Note_on_c, 0, 72, 0
1, 29639, Note_on_c, 1, 69, 0
1, 29639, Note_on_c, 5, 64, 0
1, 29640, Note_on_c, 0, 74, 47
1, 29640, Note_on_c, 1, 71, 36
1, 29640, Note_on_c, 5, 60, 37
1, 29699, Note_on_c, 5, 60, 0
1, 29700, Note_on_c, 5, 59, 37
1, 29759, Note_on_c, 0, 74, 0
1, 29759, Note_on_c, 1, 71, 0
1, 29759, Note_on_c, 5, 59, 0
1, 29760, Note_on_c, 0, 76, 47
1, 29760, Note_on_c, 1, 72, 36
1, 29760, Note_on_c, 5, 57, 47
1, 29819, Note_on_c, 5, 57, 0
1, 29820, Note_on_c, 5, 55, 47
1, 29879, Note_on_c, 0, 76, 0
1, 29879, Note_on_c, 1, 72, 0
1, 29879, Note_on_c, 5, 55, 0
1, 29880, Note_on_c, 0, 76, 63
1, 29880, Note_on_c, 1, 72, 47
1, 29880, Note_on_c, 5, 54, 41
1, 29939, Note_on_c, 5, 54, 0
1, 29940, Note_on_c, 5, 57, 41
1, 29999, Note_on_c, 5, 57, 0
1, 30000, Note_on_c, 5, 60, 41
1, 30059, Note_on_c, 5, 60, 0
1, 30060, Note_on_c, 5, 62, 41
1, 30119, Note_on_c, 0, 76, 0
1, 30119, Note_on_c, 1, 72, 0
1, 30119, Note_on_c, 5, 62, 0
1, 30120, Note_on_c, 0, 74, 47
1, 30120, Note_on_c, 1, 71, 36
1, 30120, Note_on_c, 5, 64, 37
1, 30179, Note_on_c, 0, 74, 0
1, 30179, Note_on_c, 1, 71, 0
1, 30179, Note_on_c, 5, 64, 0
1, 30180, Note_on_c, 0, 72, 47
1, 30180, Note_on_c, 1, 69, 36
1, 30180, Note_on_c, 5, 66, 37
1, 30239, Note_on_c, 0, 72, 0
1, 30239, Note_on_c, 1, 69, 0
1, 30239, Note_on_c, 5, 66, 0
1, 30240, Note_on_c, 0, 71, 47
1, 30240, Note_on_c, 5, 67, 31
1, 30299, Note_on_c, 0, 71, 0
1, 30300, Note_on_c, 0, 72, 47
1, 30359, Note_on_c, 0, 72, 0
1, 30360, Note_on_c, 0, 71, 47
1, 30419, Note_on_c, 0, 71, 0
1, 30420, Note_on_c, 0, 72, 47
1, 30479, Note_on_c, 0, 72, 0
1, 30479, Note_on_c, 5, 67, 0
1, 30480, Note_on_c, 0, 71, 47
1, 30480, Note_on_c, 5, 65, 37
1, 30539, Note_on_c, 0, 71, 0
1, 30540, Note_on_c, 0, 74, 47
1, 30599, Note_on_c, 0, 74, 0
1, 30599, Note_on_c, 5, 65, 0
1, 30600, Note_on_c, 0, 72, 47
1, 30600, Note_on_c, 5, 64, 37
1, 30659, Note_on_c, 5, 64, 0
1, 30660, Note_on_c, 5, 67, 37
1, 30719, Note_on_c, 0, 72, 0
1, 30719, Note_on_c, 5, 67, 0
1, 30720, Note_on_c, 0, 74, 47
1, 30720, Note_on_c, 5, 62, 37
1, 30779, Note_on_c, 5, 62, 0
1, 30780, Note_on_c, 5, 65, 37
1, 30839, Note_on_c, 0, 74, 0
1, 30839, Note_on_c, 5, 65, 0
1, 30840, Note_on_c, 0, 76, 47
1, 30840, Note_on_c, 5, 60, 37
1, 30899, Note_on_c, 5, 60, 0
1, 30900, Note_on_c, 5, 64, 37
1, 30959, Note_on_c, 0, 76, 0
1, 30959, Note_on_c, 5, 64, 0
1, 30960, Note_on_c, 0, 74, 47
1, 30960, Note_on_c, 5, 59, 37
1, 31019, Note_on_c, 5, 59, 0
1, 31020, Note_on_c, 5, 62, 37
1, 31079, Note_on_c, 0, 74, 0
1, 31079, Note_on_c, 5, 62, 0
1, 31080, Note_on_c, 0, 79, 47
1, 31080, Note_on_c, 5, 55, 37
1, 31139, Note_on_c, 5, 55, 0
1, 31140, Note_on_c, 5, 59, 37
1, 31199, Note_on_c, 0, 79, 0
1, 31199, Note_on_c, 5, 59, 0
1, 31200, Note_on_c, 0, 79, 63
1, 31200, Note_on_c, 5, 54, 56
1, 31259, Note_on_c, 0, 79, 0
1, 31259, Note_on_c, 5, 54, 0
1, 31260, Note_on_c, 5, 57, 56
1, 31319, Note_on_c, 5, 57, 0
1, 31320, Note_on_c, 5, 52, 56
1, 31321, Note_on_c, 0, 81, 63
1, 31379, Note_on_c, 0, 81, 0
1, 31379, Note_on_c, 5, 52, 0
1, 31380, Note_on_c, 0, 79, 63
1, 31380, Note_on_c, 5, 55, 56
1, 31439, Note_on_c, 0, 79, 0
1, 31439, Note_on_c, 5, 55, 0
1, 31440, Note_on_c, 0, 78, 63
1, 31440, Note_on_c, 5, 57, 55
1, 31499, Note_on_c, 0, 78, 0
1, 31499, Note_on_c, 5, 57, 0
1, 31500, Note_on_c, 0, 76, 63
1, 31500, Note_on_c, 5, 61, 55
1, 31559, Note_on_c, 0, 76, 0
1, 31559, Note_on_c, 5, 61, 0
1, 31560, Note_on_c, 0, 74, 63
1, 31560, Note_on_c, 5, 64, 55
1, 31619, Note_on_c, 0, 74, 0
1, 31619, Note_on_c, 5, 64, 0
1, 31620, Note_on_c, 0, 73, 63
1, 31620, Note_on_c, 5, 67, 55
1, 31679, Note_on_c, 0, 73, 0
1, 31679, Note_on_c, 5, 67, 0
1, 31680, Note_on_c, 0, 76, 55
1, 31680, Note_on_c, 5, 62, 45
1, 31681, Note_on_c, 1, 67, 31
1, 31799, Note_on_c, 0, 76, 0
1, 31799, Note_on_c, 1, 67, 0
1, 31799, Note_on_c, 5, 62, 0
1, 31800, Note_on_c, 0, 74, 47
1, 31800, Note_on_c, 1, 66, 36
1, 31800, Note_on_c, 5, 62, 37
1, 31919, Note_on_c, 0, 74, 0
1, 31919, Note_on_c, 1, 66, 0
1, 31919, Note_on_c, 5, 62, 0
1, 31920, Note_on_c, 0, 74, 47
1, 31920, Note_on_c, 1, 66, 36
1, 31920, Note_on_c, 5, 62, 37
1, 31979, Note_on_c, 0, 74, 0
1, 31979, Note_on_c, 1, 66, 0
1, 32039, Note_on_c, 0, 74, 36
1, 32039, Note_on_c, 5, 62, 0
1, 32040, Note_on_c, 5, 62, 30
1, 32041, Note_on_c, 1, 66, 29
1, 32157, Note_on_c, 0, 74, 0
1, 32159, Note_on_c, 1, 66, 0
1, 32159, Note_on_c, 5, 62, 0
1, 32280, Note_on_c, 0, 79, 81
1, 32281, Note_on_c, 1, 67, 63
1, 32339, Note_on_c, 1, 67, 0
1, 32340, Note_on_c, 1, 71, 63
1, 32398, Note_on_c, 0, 79, 0
1, 32399, Note_on_c, 1, 71, 0
1, 32400, Note_on_c, 0, 79, 81
1, 32400, Note_on_c, 1, 71, 63
1, 32459, Note_on_c, 1, 71, 0
1, 32460, Note_on_c, 1, 74, 63
1, 32519, Note_on_c, 1, 74, 0
1, 32520, Note_on_c, 1, 71, 63
1, 32579, Note_on_c, 1, 71, 0
1, 32580, Note_on_c, 1, 74, 63
1, 32639, Note_on_c, 0, 79, 0
1, 32639, Note_on_c, 1, 74, 0
1, 32640, Note_on_c, 0, 83, 81
1, 32640, Note_on_c, 1, 72, 63
1, 32699, Note_on_c, 0, 83, 0
1, 32699, Note_on_c, 1, 72, 0
1, 32700, Note_on_c, 0, 81, 81
1, 32700, Note_on_c, 1, 76, 63
1, 32759, Note_on_c, 0, 81, 0
1, 32759, Note_on_c, 1, 76, 0
1, 32760, Note_on_c, 0, 79, 81
1, 32760, Note_on_c, 1, 71, 63
1, 32819, Note_on_c, 1, 71, 0
1, 32820, Note_on_c, 1, 74, 63
1, 32879, Note_on_c, 0, 79, 0
1, 32879, Note_on_c, 1, 74, 0
1, 32880, Note_on_c, 0, 78, 81
1, 32880, Note_on_c, 1, 69, 63
1, 32939, Note_on_c, 1, 69, 0
1, 32940, Note_on_c, 1, 72, 63
1, 32999, Note_on_c, 0, 78, 0
1, 32999, Note_on_c, 1, 72, 0
1, 33000, Note_on_c, 0, 76, 81
1, 33000, Note_on_c, 1, 67, 63
1, 33059, Note_on_c, 1, 67, 0
1, 33060, Note_on_c, 1, 71, 63
1, 33119, Note_on_c, 0, 76, 0
1, 33119, Note_on_c, 1, 71, 0
1, 33120, Note_on_c, 0, 74, 81
1, 33120, Note_on_c, 1, 66, 63
1, 33179, Note_on_c, 0, 74, 0
1, 33179, Note_on_c, 1, 66, 0
1, 33180, Note_on_c, 1, 69, 63
1, 33239, Note_on_c, 1, 69, 0
1, 33240, Note_on_c, 1, 66, 63
1, 33241, Note_on_c, 0, 74, 81
1, 33299, Note_on_c, 0, 74, 0
1, 33299, Note_on_c, 1, 66, 0
1, 33300, Note_on_c, 1, 69, 63
1, 33359, Note_on_c, 1, 69, 0
1, 33360, Note_on_c, 1, 66, 63
1, 33361, Note_on_c, 0, 74, 81
1, 33419, Note_on_c, 0, 74, 0
1, 33419, Note_on_c, 1, 66, 0
1, 33420, Note_on_c, 1, 69, 63
1, 33479, Note_on_c, 1, 69, 0
1, 33480, Note_on_c, 1, 66, 63
1, 33481, Note_on_c, 0, 74, 81
1, 33539, Note_on_c, 1, 66, 0
1, 33540, Note_on_c, 1, 69, 63
1, 33599, Note_on_c, 1, 69, 0
1, 33600, Note_on_c, 1, 66, 63
1, 33659, Note_on_c, 1, 66, 0
1, 33660, Note_on_c, 1, 69, 63
1, 33719, Note_on_c, 0, 74, 0
1, 33719, Note_on_c, 1, 69, 0
1, 33720, Note_on_c, 0, 75, 81
1, 33720, Note_on_c, 1, 66, 63
1, 33779, Note_on_c, 1, 66, 0
1, 33780, Note_on_c, 1, 69, 63
1, 33839, Note_on_c, 0, 75, 0
1, 33839, Note_on_c, 1, 69, 0
1, 33840, Note_on_c, 0, 76, 81
1, 33840, Note_on_c, 1, 67, 47
1, 33899, Note_on_c, 0, 76, 0
1, 33900, Note_on_c, 0, 75, 63
1, 33959, Note_on_c, 0, 75, 0
1, 33960, Note_on_c, 0, 78, 63
1, 34019, Note_on_c, 0, 78, 0
1, 34020, Note_on_c, 0, 76, 63
1, 34079, Note_on_c, 0, 76, 0
1, 34079, Note_on_c, 1, 67, 0
1, 34080, Note_on_c, 0, 79, 63
1, 34139, Note_on_c, 0, 79, 0
1, 34140, Note_on_c, 0, 78, 63
1, 34199, Note_on_c, 0, 78, 0
1, 34200, Note_on_c, 0, 81, 47
1, 34201, Note_on_c, 1, 67, 31
1, 34201, Note_on_c, 2, 64, 19
1, 34201, Note_on_c, 3, 61, 81
1, 34201, Note_on_c, 4, 57, 42
1, 34259, Note_on_c, 0, 81, 0
1, 34260, Note_on_c, 0, 79, 47
1, 34319, Note_on_c, 0, 79, 0
1, 34320, Note_on_c, 0, 78, 47
1, 34379, Note_on_c, 0, 78, 0
1, 34380, Note_on_c, 0, 76, 47
1, 34439, Note_on_c, 0, 76, 0
1, 34439, Note_on_c, 1, 67, 0
1, 34439, Note_on_c, 2, 64, 0
1, 34439, Note_on_c, 3, 61, 0
1, 34439, Note_on_c, 4, 57, 0
1, 34440, Note_on_c, 0, 74, 47
1, 34499, Note_on_c, 0, 74, 0
1, 34500, Note_on_c, 0, 73, 47
1, 34559, Note_on_c, 0, 73, 0
1, 34560, Note_on_c, 0, 74, 36
1, 34621, Note_on_c, 4, 50, 31
1, 34679, Note_on_c, 0, 74, 0
1, 34679, Note_on_c, 4, 50, 0
1, 34680, Note_on_c, 4, 54, 31
1, 34739, Note_on_c, 4, 54, 0
1, 34740, Note_on_c, 4, 50, 31
1, 34799, Note_on_c, 4, 50, 0
1, 34800, Note_on_c, 4, 52, 31
1, 34801, Note_on_c, 0, 74, 36
1, 34859, Note_on_c, 4, 52, 0
1, 34860, Note_on_c, 4, 55, 31
1, 34919, Note_on_c, 0, 74, 0
1, 34919, Note_on_c, 4, 55, 0
1, 34920, Note_on_c, 0, 74, 36
1, 34981, Note_on_c, 4, 54, 31
1, 35039, Note_on_c, 0, 74, 0
1, 35039, Note_on_c, 4, 54, 0
1, 35040, Note_on_c, 4, 57, 31
1, 35099, Note_on_c, 4, 57, 0
1, 35100, Note_on_c, 4, 54, 31
1, 35159, Note_on_c, 4, 54, 0
1, 35160, Note_on_c, 4, 55, 31
1, 35161, Note_on_c, 0, 74, 47
1, 35219, Note_on_c, 4, 55, 0
1, 35220, Note_on_c, 4, 59, 31
1, 35279, Note_on_c, 0, 74, 0
1, 35279, Note_on_c, 4, 59, 0
1, 35280, Note_on_c, 0, 74, 47
1, 35341, Note_on_c, 4, 57, 31
1, 35399, Note_on_c, 0, 74, 0
1, 35399, Note_on_c, 4, 57, 0
1, 35400, Note_on_c, 4, 60, 31
1, 35459, Note_on_c, 4, 60, 0
1, 35460, Note_on_c, 4, 57, 31
1, 35519, Note_on_c, 4, 57, 0
1, 35520, Note_on_c, 4, 59, 31
1, 35521, Note_on_c, 0, 74, 36
1, 35579, Note_on_c, 4, 59, 0
1, 35580, Note_on_c, 4, 55, 31
1, 35639, Note_on_c, 0, 74, 0
1, 35639, Note_on_c, 4, 55, 0
1, 35640, Note_on_c, 0, 74, 36
1, 35701, Note_on_c, 4, 54, 31
1, 35759, Note_on_c, 0, 74, 0
1, 35759, Note_on_c, 4, 54, 0
1, 35760, Note_on_c, 4, 57, 31
1, 35819, Note_on_c, 4, 57, 0
1, 35820, Note_on_c, 4, 54, 31
1, 35879, Note_on_c, 4, 54, 0
1, 35880, Note_on_c, 4, 55, 31
1, 35881, Note_on_c, 0, 74, 36
1, 35939, Note_on_c, 4, 55, 0
1, 35940, Note_on_c, 4, 52, 31
1, 35999, Note_on_c, 0, 74, 0
1, 35999, Note_on_c, 4, 52, 0
1, 36000, Note_on_c, 4, 50, 31
1, 36061, Note_on_c, 0, 74, 36
1, 36119, Note_on_c, 0, 74, 0
1, 36119, Note_on_c, 4, 50, 0
1, 36120, Note_on_c, 0, 78, 36
1, 36179, Note_on_c, 0, 78, 0
1, 36180, Note_on_c, 0, 74, 36
1, 36239, Note_on_c, 0, 74, 0
1, 36240, Note_on_c, 0, 76, 47
1, 36241, Note_on_c, 4, 50, 38
1, 36299, Note_on_c, 0, 76, 0
1, 36300, Note_on_c, 0, 79, 47
1, 36359, Note_on_c, 0, 79, 0
1, 36359, Note_on_c, 4, 50, 0
1, 36360, Note_on_c, 4, 50, 38
1, 36421, Note_on_c, 0, 78, 63
1, 36479, Note_on_c, 0, 78, 0
1, 36479, Note_on_c, 4, 50, 0
1, 36480, Note_on_c, 0, 81, 63
1, 36539, Note_on_c, 0, 81, 0
1, 36540, Note_on_c, 0, 78, 63
1, 36599, Note_on_c, 0, 78, 0
1, 36600, Note_on_c, 0, 79, 63
1, 36601, Note_on_c, 4, 38, 63
1, 36659, Note_on_c, 0, 79, 0
1, 36660, Note_on_c, 0, 83, 63
1, 36719, Note_on_c, 0, 83, 0
1, 36719, Note_on_c, 4, 38, 0
1, 36720, Note_on_c, 4, 38, 63
1, 36781, Note_on_c, 0, 81, 81
1, 36839, Note_on_c, 0, 81, 0
1, 36840, Note_on_c, 0, 84, 81
1, 36899, Note_on_c, 0, 84, 0
1, 36900, Note_on_c, 0, 78, 81
1, 36959, Note_on_c, 0, 78, 0
1, 36960, Note_on_c, 0, 81, 81
1, 37019, Note_on_c, 0, 81, 0
1, 37020, Note_on_c, 0, 72, 81
1, 37079, Note_on_c, 0, 72, 0
1, 37080, Note_on_c, 0, 78, 81
1, 37139, Note_on_c, 0, 78, 0
1, 37140, Note_on_c, 0, 69, 81
1, 37199, Note_on_c, 0, 69, 0
1, 37200, Note_on_c, 0, 72, 81
1, 37259, Note_on_c, 0, 72, 0
1, 37260, Note_on_c, 0, 66, 81
1, 37319, Note_on_c, 0, 66, 0
1, 37320, Note_on_c, 0, 69, 81
1, 37379, Note_on_c, 0, 69, 0
1, 37380, Note_on_c, 0, 60, 81
1, 37439, Note_on_c, 0, 60, 0
1, 37439, Note_on_c, 4, 38, 0
1, 37440, Note_on_c, 0, 76, 81
1, 37501, Note_on_c, 4, 48, 63
1, 37559, Note_on_c, 4, 48, 0
1, 37560, Note_on_c, 4, 57, 63
1, 37619, Note_on_c, 4, 57, 0
1, 37620, Note_on_c, 4, 54, 63
1, 37679, Note_on_c, 4, 54, 0
1, 37680, Note_on_c, 4, 60, 63
1, 37739, Note_on_c, 4, 60, 0
1, 37740, Note_on_c, 4, 57, 63
1, 37799, Note_on_c, 4, 57, 0
1, 37800, Note_on_c, 4, 66, 63
1, 38039, Note_on_c, 0, 76, 0
1, 38040, Note_on_c, 0, 74, 63
1, 38069, Note_on_c, 0, 74, 0
1, 38070, Note_on_c, 0, 72, 63
1, 38099, Note_on_c, 0, 72, 0
1, 38100, Note_on_c, 0, 71, 47
1, 38129, Note_on_c, 0, 71, 0
1, 38130, Note_on_c, 0, 69, 47
1, 38159, Note_on_c, 0, 69, 0
1, 38159, Note_on_c, 4, 66, 0
1, 38160, Note_on_c, 0, 67, 36
1, 38160, Note_on_c, 4, 59, 31
1, 38161, Note_on_c, 5, 55, 31
1, 38399, Note_on_c, 0, 67, 0
1, 38399, Note_on_c, 4, 59, 0
1, 38399, Note_on_c, 5, 55, 0
1, 38400, Note_on_c, 0, 71, 47
1, 38400, Note_on_c, 4, 60, 37
1, 38400, Note_on_c, 5, 55, 37
1, 38459, Note_on_c, 0, 71, 0
1, 38460, Note_on_c, 0, 69, 47
1, 38519, Note_on_c, 0, 69, 0
1, 38519, Note_on_c, 4, 60, 0
1, 38519, Note_on_c, 5, 55, 0
1, 38520, Note_on_c, 0, 62, 47
1, 38520, Note_on_c, 4, 60, 37
1, 38520, Note_on_c, 5, 55, 37
1, 38579, Note_on_c, 0, 62, 0
1, 38641, Note_on_c, 0, 63, 36
1, 38699, Note_on_c, 0, 63, 0
1, 38700, Note_on_c, 0, 64, 36
1, 38759, Note_on_c, 0, 64, 0
1, 38759, Note_on_c, 4, 60, 0
1, 38759, Note_on_c, 5, 55, 0
1, 38760, Note_on_c, 0, 65, 36
1, 38760, Note_on_c, 4, 60, 31
1, 38760, Note_on_c, 5, 55, 31
1, 38819, Note_on_c, 0, 65, 0
1, 38820, Note_on_c, 0, 66, 36
1, 38879, Note_on_c, 0, 66, 0
1, 38879, Note_on_c, 4, 60, 0
1, 38879, Note_on_c, 5, 55, 0
1, 38880, Note_on_c, 0, 67, 36
1, 38880, Note_on_c, 4, 59, 31
1, 38880, Note_on_c, 5, 55, 31
1, 38939, Note_on_c, 0, 67, 0
1, 38939, Note_on_c, 4, 59, 0
1, 38940, Note_on_c, 4, 58, 31
1, 38999, Note_on_c, 4, 58, 0
1, 39000, Note_on_c, 4, 59, 31
1, 39001, Note_on_c, 0, 67, 36
1, 39059, Note_on_c, 0, 67, 0
1, 39059, Note_on_c, 4, 59, 0
1, 39060, Note_on_c, 4, 58, 31
1, 39119, Note_on_c, 4, 58, 0
1, 39120, Note_on_c, 4, 59, 31
1, 39121, Note_on_c, 0, 67, 36
1, 39179, Note_on_c, 0, 67, 0
1, 39179, Note_on_c, 4, 59, 0
1, 39180, Note_on_c, 4, 58, 31
1, 39239, Note_on_c, 4, 58, 0
1, 39240, Note_on_c, 4, 59, 31
1, 39241, Note_on_c, 0, 67, 36
1, 39479, Note_on_c, 0, 67, 0
1, 39479, Note_on_c, 4, 59, 0
1, 39479, Note_on_c, 5, 55, 0
1, 39480, Note_on_c, 0, 69, 36
1, 39480, Note_on_c, 4, 62, 31
1, 39480, Note_on_c, 5, 54, 31
1, 39599, Note_on_c, 0, 69, 0
1, 39599, Note_on_c, 4, 62, 0
1, 39599, Note_on_c, 5, 54, 0
1, 39600, Note_on_c, 0, 72, 36
1, 39600, Note_on_c, 4, 62, 31
1, 39600, Note_on_c, 5, 57, 31
1, 39629, Note_on_c, 0, 72, 0
1, 39629, Note_on_c, 5, 57, 0
1, 39630, Note_on_c, 0, 71, 36
1, 39630, Note_on_c, 5, 55, 31
1, 39659, Note_on_c, 0, 71, 0
1, 39659, Note_on_c, 5, 55, 0
1, 39660, Note_on_c, 0, 70, 36
1, 39660, Note_on_c, 5, 54, 31
1, 39719, Note_on_c, 0, 70, 0
1, 39719, Note_on_c, 5, 54, 0
1, 39720, Note_on_c, 0, 71, 47
1, 39720, Note_on_c, 5, 55, 37
1, 39779, Note_on_c, 0, 71, 0
1, 39779, Note_on_c, 5, 55, 0
1, 39780, Note_on_c, 0, 70, 47
1, 39780, Note_on_c, 5, 54, 37
1, 39839, Note_on_c, 0, 70, 0
1, 39839, Note_on_c, 5, 54, 0
1, 39840, Note_on_c, 0, 71, 47
1, 39840, Note_on_c, 5, 55, 37
1, 39899, Note_on_c, 0, 71, 0
1, 39899, Note_on_c, 5, 55, 0
1, 39900, Note_on_c, 0, 74, 47
1, 39900, Note_on_c, 5, 59, 37
1, 39959, Note_on_c, 0, 74, 0
1, 39959, Note_on_c, 4, 62, 0
1, 39959, Note_on_c, 5, 59, 0
1, 39960, Note_on_c, 0, 74, 63
1, 39960, Note_on_c, 4, 62, 47
1, 39960, Note_on_c, 5, 57, 47
1, 39961, Note_on_c, 1, 66, 47
1, 40079, Note_on_c, 0, 74, 0
1, 40080, Note_on_c, 0, 72, 63
1, 40199, Note_on_c, 0, 72, 0
1, 40199, Note_on_c, 1, 66, 0
1, 40199, Note_on_c, 5, 57, 0
1, 40200, Note_on_c, 0, 71, 63
1, 40200, Note_on_c, 1, 67, 47
1, 40200, Note_on_c, 5, 55, 47
1, 40319, Note_on_c, 0, 71, 0
1, 40319, Note_on_c, 1, 67, 0
1, 40319, Note_on_c, 4, 62, 0
1, 40319, Note_on_c, 5, 55, 0
1, 40320, Note_on_c, 0, 71, 47
1, 40320, Note_on_c, 1, 67, 36
1, 40320, Note_on_c, 5, 50, 37
1, 40379, Note_on_c, 5, 50, 0
1, 40380, Note_on_c, 5, 61, 37
1, 40439, Note_on_c, 0, 71, 0
1, 40439, Note_on_c, 1, 67, 0
1, 40439, Note_on_c, 5, 61, 0
1, 40440, Note_on_c, 0, 69, 47
1, 40440, Note_on_c, 1, 66, 36
1, 40440, Note_on_c, 5, 62, 37
1, 40499, Note_on_c, 5, 62, 0
1, 40500, Note_on_c, 5, 61, 37
1, 40559, Note_on_c, 0, 69, 0
1, 40559, Note_on_c, 1, 66, 0
1, 40559, Note_on_c, 5, 61, 0
1, 40560, Note_on_c, 0, 69, 47
1, 40560, Note_on_c, 1, 66, 31
1, 40560, Note_on_c, 5, 62, 37
1, 40619, Note_on_c, 0, 69, 0
1, 40619, Note_on_c, 1, 66, 0
1, 40619, Note_on_c, 5, 62, 0
1, 40620, Note_on_c, 5, 61, 37
1, 40679, Note_on_c, 5, 61, 0
1, 40680, Note_on_c, 5, 62, 37
1, 40681, Note_on_c, 0, 69, 47
1, 40681, Note_on_c, 1, 66, 36
1, 40739, Note_on_c, 5, 62, 0
1, 40740, Note_on_c, 5, 64, 37
1, 40799, Note_on_c, 5, 64, 0
1, 40800, Note_on_c, 5, 60, 37
1, 40859, Note_on_c, 5, 60, 0
1, 40860, Note_on_c, 5, 62, 37
1, 40919, Note_on_c, 0, 69, 0
1, 40919, Note_on_c, 1, 66, 0
1, 40919, Note_on_c, 5, 62, 0
1, 40920, Note_on_c, 0, 71, 47
1, 40920, Note_on_c, 1, 68, 36
1, 40920, Note_on_c, 5, 59, 37
1, 40979, Note_on_c, 5, 59, 0
1, 40980, Note_on_c, 5, 60, 37
1, 41039, Note_on_c, 0, 71, 0
1, 41039, Note_on_c, 1, 68, 0
1, 41039, Note_on_c, 5, 60, 0
1, 41040, Note_on_c, 0, 72, 47
1, 41040, Note_on_c, 1, 69, 36
1, 41040, Note_on_c, 5, 57, 37
1, 41099, Note_on_c, 5, 57, 0
1, 41100, Note_on_c, 5, 64, 37
1, 41159, Note_on_c, 0, 72, 0
1, 41159, Note_on_c, 1, 69, 0
1, 41159, Note_on_c, 5, 64, 0
1, 41160, Note_on_c, 0, 74, 47
1, 41160, Note_on_c, 1, 71, 36
1, 41160, Note_on_c, 5, 60, 37
1, 41219, Note_on_c, 5, 60, 0
1, 41220, Note_on_c, 5, 59, 37
1, 41279, Note_on_c, 0, 74, 0
1, 41279, Note_on_c, 1, 71, 0
1, 41279, Note_on_c, 5, 59, 0
1, 41280, Note_on_c, 0, 76, 63
1, 41280, Note_on_c, 1, 72, 47
1, 41280, Note_on_c, 5, 57, 51
1, 41339, Note_on_c, 5, 57, 0
1, 41340, Note_on_c, 5, 55, 51
1, 41399, Note_on_c, 0, 76, 0
1, 41399, Note_on_c, 1, 72, 0
1, 41399, Note_on_c, 5, 55, 0
1, 41400, Note_on_c, 0, 76, 63
1, 41400, Note_on_c, 1, 72, 47
1, 41400, Note_on_c, 5, 54, 51
1, 41459, Note_on_c, 5, 54, 0
1, 41460, Note_on_c, 5, 55, 51
1, 41519, Note_on_c, 5, 55, 0
1, 41520, Note_on_c, 5, 57, 51
1, 41579, Note_on_c, 5, 57, 0
1, 41580, Note_on_c, 5, 50, 51
1, 41639, Note_on_c, 0, 76, 0
1, 41639, Note_on_c, 1, 72, 0
1, 41639, Note_on_c, 5, 50, 0
1, 41640, Note_on_c, 0, 74, 63
1, 41640, Note_on_c, 1, 71, 47
1, 41640, Note_on_c, 5, 52, 51
1, 41699, Note_on_c, 0, 74, 0
1, 41699, Note_on_c, 1, 71, 0
1, 41699, Note_on_c, 5, 52, 0
1, 41700, Note_on_c, 0, 72, 63
1, 41700, Note_on_c, 1, 69, 47
1, 41700, Note_on_c, 5, 54, 51
1, 41759, Note_on_c, 0, 72, 0
1, 41759, Note_on_c, 1, 69, 0
1, 41759, Note_on_c, 5, 54, 0
1, 41760, Note_on_c, 0, 71, 81
1, 41760, Note_on_c, 1, 67, 63
1, 41760, Note_on_c, 5, 55, 64
1, 41819, Note_on_c, 5, 55, 0
1, 41820, Note_on_c, 5, 54, 64
1, 41879, Note_on_c, 0, 71, 0
1, 41879, Note_on_c, 1, 67, 0
1, 41879, Note_on_c, 5, 54, 0
1, 41880, Note_on_c, 0, 72, 81
1, 41880, Note_on_c, 1, 69, 63
1, 41880, Note_on_c, 5, 52, 64
1, 41939, Note_on_c, 5, 52, 0
1, 41940, Note_on_c, 5, 50, 64
1, 41999, Note_on_c, 0, 72, 0
1, 41999, Note_on_c, 1, 69, 0
1, 41999, Note_on_c, 5, 50, 0
1, 42000, Note_on_c, 0, 74, 81
1, 42000, Note_on_c, 1, 71, 63
1, 42000, Note_on_c, 5, 48, 64
1, 42059, Note_on_c, 5, 48, 0
1, 42060, Note_on_c, 5, 47, 64
1, 42119, Note_on_c, 0, 74, 0
1, 42119, Note_on_c, 1, 71, 0
1, 42119, Note_on_c, 5, 47, 0
1, 42120, Note_on_c, 0, 67, 81
1, 42120, Note_on_c, 1, 59, 63
1, 42120, Note_on_c, 5, 52, 64
1, 42179, Note_on_c, 5, 52, 0
1, 42180, Note_on_c, 5, 50, 64
1, 42239, Note_on_c, 0, 67, 0
1, 42239, Note_on_c, 1, 59, 0
1, 42239, Note_on_c, 5, 50, 0
1, 42240, Note_on_c, 0, 69, 81
1, 42240, Note_on_c, 1, 60, 63
1, 42240, Note_on_c, 5, 48, 64
1, 42299, Note_on_c, 5, 48, 0
1, 42300, Note_on_c, 5, 47, 64
1, 42359, Note_on_c, 0, 69, 0
1, 42359, Note_on_c, 1, 60, 0
1, 42359, Note_on_c, 5, 47, 0
1, 42360, Note_on_c, 0, 71, 81
1, 42360, Note_on_c, 1, 62, 63
1, 42360, Note_on_c, 5, 45, 64
1, 42419, Note_on_c, 5, 45, 0
1, 42420, Note_on_c, 5, 43, 64
1, 42479, Note_on_c, 0, 71, 0
1, 42479, Note_on_c, 1, 62, 0
1, 42479, Note_on_c, 5, 43, 0
1, 42480, Note_on_c, 0, 69, 81
1, 42480, Note_on_c, 5, 48, 63
1, 42541, Note_on_c, 1, 64, 81
1, 42599, Note_on_c, 0, 69, 0
1, 42599, Note_on_c, 5, 48, 0
1, 42600, Note_on_c, 0, 71, 81
1, 42600, Note_on_c, 5, 47, 63
1, 42659, Note_on_c, 1, 64, 0
1, 42660, Note_on_c, 1, 62, 81
1, 42719, Note_on_c, 0, 71, 0
1, 42719, Note_on_c, 5, 47, 0
1, 42720, Note_on_c, 0, 72, 81
1, 42720, Note_on_c, 5, 45, 63
1, 42779, Note_on_c, 1, 62, 0
1, 42780, Note_on_c, 1, 60, 81
1, 42839, Note_on_c, 0, 72, 0
1, 42839, Note_on_c, 5, 45, 0
1, 42840, Note_on_c, 0, 72, 81
1, 42840, Note_on_c, 5, 50, 63
1, 42899, Note_on_c, 1, 60, 0
1, 42900, Note_on_c, 1, 60, 81
1, 42959, Note_on_c, 0, 72, 0
1, 42960, Note_on_c, 0, 69, 81
1, 43019, Note_on_c, 1, 60, 0
1, 43020, Note_on_c, 1, 60, 81
1, 43079, Note_on_c, 0, 69, 0
1, 43080, Note_on_c, 0, 66, 81
1, 43139, Note_on_c, 1, 60, 0
1, 43140, Note_on_c, 1, 60, 81
1, 43199, Note_on_c, 0, 66, 0
1, 43199, Note_on_c, 1, 60, 0
1, 43199, Note_on_c, 5, 50, 0
1, 43200, Note_on_c, 0, 69, 81
1, 43200, Note_on_c, 1, 60, 81
1, 43200, Note_on_c, 5, 43, 63
1, 43259, Note_on_c, 5, 43, 0
1, 43260, Note_on_c, 5, 54, 63
1, 43319, Note_on_c, 5, 54, 0
1, 43320, Note_on_c, 5, 55, 47
1, 43379, Note_on_c, 5, 55, 0
1, 43380, Note_on_c, 5, 54, 47
1, 43439, Note_on_c, 5, 54, 0
1, 43440, Note_on_c, 5, 55, 47
1, 43499, Note_on_c, 5, 55, 0
1, 43500, Note_on_c, 5, 54, 31
1, 43559, Note_on_c, 0, 69, 0
1, 43559, Note_on_c, 1, 60, 0
1, 43559, Note_on_c, 5, 54, 0
1, 43560, Note_on_c, 0, 67, 47
1, 43560, Note_on_c, 1, 59, 36
1, 43560, Note_on_c, 5, 55, 37
1, 43679, Note_on_c, 0, 67, 0
1, 43679, Note_on_c, 1, 59, 0
1, 43679, Note_on_c, 5, 55, 0
1, 43801, Note_on_c, 0, 74, 36
1, 43919, Note_on_c, 0, 74, 0
1, 43920, Note_on_c, 0, 74, 36
1, 43979, Note_on_c, 0, 74, 0
1, 44041, Note_on_c, 4, 58, 31
1, 44041, Note_on_c, 5, 55, 31
1, 44099, Note_on_c, 4, 58, 0
1, 44099, Note_on_c, 5, 55, 0
1, 44161, Note_on_c, 0, 74, 36
1, 44219, Note_on_c, 0, 74, 0
1, 44220, Note_on_c, 0, 75, 36
1, 44279, Note_on_c, 0, 75, 0
1, 44280, Note_on_c, 0, 75, 36
1, 44339, Note_on_c, 0, 75, 0
1, 44401, Note_on_c, 4, 60, 31
1, 44401, Note_on_c, 5, 55, 31
1, 44459, Note_on_c, 4, 60, 0
1, 44459, Note_on_c, 5, 55, 0
1, 44521, Note_on_c, 0, 79, 36
1, 44579, Note_on_c, 0, 79, 0
1, 44580, Note_on_c, 0, 78, 36
1, 44639, Note_on_c, 0, 78, 0
1, 44640, Note_on_c, 0, 78, 36
1, 44699, Note_on_c, 0, 78, 0
1, 44761, Note_on_c, 4, 60, 31
1, 44761, Note_on_c, 5, 55, 31
1, 44819, Note_on_c, 4, 60, 0
1, 44819, Note_on_c, 5, 55, 0
1, 44881, Note_on_c, 0, 84, 36
1, 44939, Note_on_c, 0, 84, 0
1, 44940, Note_on_c, 0, 78, 36
1, 44999, Note_on_c, 0, 78, 0
1, 45000, Note_on_c, 0, 79, 36
1, 45059, Note_on_c, 0, 79, 0
1, 45121, Note_on_c, 4, 58, 31
1, 45121, Note_on_c, 5, 55, 31
1, 45179, Note_on_c, 4, 58, 0
1, 45179, Note_on_c, 5, 55, 0
1, 45241, Note_on_c, 0, 82, 81
1, 45299, Note_on_c, 0, 82, 0
1, 45300, Note_on_c, 0, 81, 81
1, 45359, Note_on_c, 0, 81, 0
1, 45360, Note_on_c, 0, 84, 81
1, 45539, Note_on_c, 0, 84, 0
1, 45540, Note_on_c, 0, 82, 81
1, 45599, Note_on_c, 0, 82, 0
1, 45600, Note_on_c, 0, 81, 81
1, 45629, Note_on_c, 0, 81, 0
1, 45630, Note_on_c, 0, 79, 81
1, 45659, Note_on_c, 0, 79, 0
1, 45660, Note_on_c, 0, 77, 81
1, 45689, Note_on_c, 0, 77, 0
1, 45690, Note_on_c, 0, 76, 81
1, 45705, Note_on_c, 0, 76, 0
1, 45705, Note_on_c, 0, 74, 81
1, 45720, Note_on_c, 0, 74, 0
1, 45721, Note_on_c, 4, 73, 71
1, 45721, Note_on_c, 5, 70, 71
1, 45721, Note_on_c, 6, 67, 71
1, 45841, Note_on_c, 0, 88, 81
1, 45841, Note_on_c, 1, 85, 81
1, 45841, Note_on_c, 2, 82, 81
1, 45841, Note_on_c, 3, 79, 81
1, 46079, Note_on_c, 0, 88, 0
1, 46079, Note_on_c, 1, 85, 0
1, 46079, Note_on_c, 2, 82, 0
1, 46079, Note_on_c, 3, 79, 0
1, 46079, Note_on_c, 4, 73, 0
1, 46079, Note_on_c, 5, 70, 0
1, 46079, Note_on_c, 6, 67, 0
1, 46080, Note_on_c, 1, 69, 81
1, 46080, Note_on_c, 2, 65, 81
1, 46111, Note_on_c, 0, 77, 81
1, 46139, Note_on_c, 0, 77, 0
1, 46140, Note_on_c, 0, 81, 81
1, 46169, Note_on_c, 0, 81, 0
1, 46170, Note_on_c, 0, 85, 81
1, 46199, Note_on_c, 0, 85, 0
1, 46200, Note_on_c, 0, 86, 81
1, 46229, Note_on_c, 0, 86, 0
1, 46230, Note_on_c, 0, 81, 81
1, 46259, Note_on_c, 0, 81, 0
1, 46260, Note_on_c, 0, 85, 81
1, 46289, Note_on_c, 0, 85, 0
1, 46290, Note_on_c, 0, 86, 81
1, 46319, Note_on_c, 0, 86, 0
1, 46319, Note_on_c, 1, 69, 0
1, 46319, Note_on_c, 2, 65, 0
1, 46320, Note_on_c, 0, 88, 81
1, 46320, Note_on_c, 1, 67, 81
1, 46320, Note_on_c, 2, 64, 81
1, 46349, Note_on_c, 0, 88, 0
1, 46350, Note_on_c, 0, 81, 81
1, 46379, Note_on_c, 0, 81, 0
1, 46380, Note_on_c, 0, 86, 81
1, 46409, Note_on_c, 0, 86, 0
1, 46410, Note_on_c, 0, 88, 81
1, 46439, Note_on_c, 0, 88, 0
1, 46439, Note_on_c, 1, 67, 0
1, 46439, Note_on_c, 2, 64, 0
1, 46440, Note_on_c, 0, 89, 81
1, 46440, Note_on_c, 1, 65, 81
1, 46440, Note_on_c, 2, 62, 81
1, 46559, Note_on_c, 0, 89, 0
1, 46559, Note_on_c, 1, 65, 0
1, 46559, Note_on_c, 2, 62, 0
1, 46560, Note_on_c, 0, 83, 81
1, 46560, Note_on_c, 1, 77, 81
1, 46560, Note_on_c, 2, 71, 81
1, 46561, Note_on_c, 3, 68, 81
1, 46799, Note_on_c, 0, 83, 0
1, 46799, Note_on_c, 1, 77, 0
1, 46799, Note_on_c, 2, 71, 0
1, 46799, Note_on_c, 3, 68, 0
1, 46800, Note_on_c, 1, 65, 81
1, 46800, Note_on_c, 2, 62, 81
1, 46800, Note_on_c, 3, 57, 81
1, 46921, Note_on_c, 0, 81, 81
1, 47039, Note_on_c, 0, 81, 0
1, 47040, Note_on_c, 0, 77, 81
1, 47099, Note_on_c, 0, 77, 0
1, 47100, Note_on_c, 0, 74, 81
1, 47159, Note_on_c, 0, 74, 0
1, 47159, Note_on_c, 1, 65, 0
1, 47159, Note_on_c, 2, 62, 0
1, 47159, Note_on_c, 3, 57, 0
1, 47160, Note_on_c, 1, 67, 63
1, 47160, Note_on_c, 2, 64, 47
1, 47160, Note_on_c, 3, 57, 47
1, 47281, Note_on_c, 0, 79, 63
1, 47399, Note_on_c, 0, 79, 0
1, 47400, Note_on_c, 0, 76, 47
1, 47459, Note_on_c, 0, 76, 0
1, 47460, Note_on_c, 0, 73, 47
1, 47519, Note_on_c, 0, 73, 0
1, 47519, Note_on_c, 1, 67, 0
1, 47519, Note_on_c, 2, 64, 0
1, 47519, Note_on_c, 3, 57, 0
1, 47520, Note_on_c, 0, 73, 47
1, 47759, Note_on_c, 0, 73, 0
1, 47760, Note_on_c, 0, 74, 36
1, 47761, Note_on_c, 3, 62, 29
1, 47761, Note_on_c, 4, 50, 31
1, 47819, Note_on_c, 3, 62, 0
1, 47819, Note_on_c, 4, 50, 0
1, 47879, Note_on_c, 0, 74, 0
1, 47880, Note_on_c, 0, 74, 36
1, 47881, Note_on_c, 3, 62, 29
1, 47881, Note_on_c, 4, 50, 31
1, 47939, Note_on_c, 0, 74, 0
1, 47939, Note_on_c, 3, 62, 0
1, 47939, Note_on_c, 4, 50, 0
1, 48121, Note_on_c, 0, 74, 36
1, 48179, Note_on_c, 0, 74, 0
1, 48241, Note_on_c, 0, 74, 36
1, 48299, Note_on_c, 0, 74, 0
1, 48361, Note_on_c, 3, 62, 29
1, 48361, Note_on_c, 4, 58, 31
1, 48419, Note_on_c, 3, 62, 0
1, 48419, Note_on_c, 4, 58, 0
1, 48481, Note_on_c, 0, 67, 36
1, 48599, Note_on_c, 0, 67, 0
1, 48600, Note_on_c, 0, 72, 36
1, 48719, Note_on_c, 0, 72, 0
1, 48721, Note_on_c, 3, 63, 29
1, 48721, Note_on_c, 4, 57, 31
1, 48779, Note_on_c, 3, 63, 0
1, 48779, Note_on_c, 4, 57, 0
1, 48841, Note_on_c, 0, 66, 36
1, 48959, Note_on_c, 0, 66, 0
1, 48960, Note_on_c, 0, 70, 36
1, 49079, Note_on_c, 0, 70, 0
1, 49081, Note_on_c, 3, 58, 29
1, 49081, Note_on_c, 4, 55, 31
1, 49139, Note_on_c, 3, 58, 0
1, 49139, Note_on_c, 4, 55, 0
1, 49201, Note_on_c, 0, 61, 36
1, 49319, Note_on_c, 0, 61, 0
1, 49320, Note_on_c, 0, 62, 36
1, 49439, Note_on_c, 0, 62, 0
1, 49441, Note_on_c, 3, 50, 29
1, 49441, Note_on_c, 4, 50, 31
1, 49499, Note_on_c, 3, 50, 0
1, 49499, Note_on_c, 4, 50, 0
1, 49561, Note_on_c, 0, 67, 81
1, 49561, Note_on_c, 3, 62, 63
1, 49561, Note_on_c, 4, 58, 63
1, 49619, Note_on_c, 0, 67, 0
1, 49620, Note_on_c, 0, 79, 81
1, 49679, Note_on_c, 0, 79, 0
1, 49679, Note_on_c, 3, 62, 0
1, 49679, Note_on_c, 4, 58, 0
1, 49680, Note_on_c, 0, 69, 81
1, 49680, Note_on_c, 3, 63, 63
1, 49680, Note_on_c, 4, 60, 63
1, 49739, Note_on_c, 0, 69, 0
1, 49740, Note_on_c, 0, 79, 81
1, 49799, Note_on_c, 0, 79, 0
1, 49800, Note_on_c, 0, 78, 81
1, 49859, Note_on_c, 0, 78, 0
1, 49860, Note_on_c, 0, 69, 81
1, 49919, Note_on_c, 0, 69, 0
1, 49919, Note_on_c, 3, 63, 0
1, 49919, Note_on_c, 4, 60, 0
1, 49920, Note_on_c, 0, 67, 81
1, 49920, Note_on_c, 3, 62, 63
1, 49920, Note_on_c, 4, 58, 63
1, 49979, Note_on_c, 0, 67, 0
1, 49980, Note_on_c, 0, 79, 81
1, 50039, Note_on_c, 0, 79, 0
1, 50039, Note_on_c, 3, 62, 0
1, 50039, Note_on_c, 4, 58, 0
1, 50040, Note_on_c, 0, 69, 81
1, 50040, Note_on_c, 3, 63, 63
1, 50040, Note_on_c, 4, 60, 63
1, 50099, Note_on_c, 0, 69, 0
1, 50100, Note_on_c, 0, 79, 81
1, 50159, Note_on_c, 0, 79, 0
1, 50160, Note_on_c, 0, 78, 81
1, 50219, Note_on_c, 0, 78, 0
1, 50220, Note_on_c, 0, 69, 81
1, 50279, Note_on_c, 0, 69, 0
1, 50279, Note_on_c, 3, 63, 0
1, 50279, Note_on_c, 4, 60, 0
1, 50280, Note_on_c, 0, 67, 81
1, 50280, Note_on_c, 3, 62, 63
1, 50280, Note_on_c, 4, 58, 63
1, 50339, Note_on_c, 0, 67, 0
1, 50340, Note_on_c, 0, 79, 81
1, 50399, Note_on_c, 0, 79, 0
1, 50399, Note_on_c, 3, 62, 0
1, 50399, Note_on_c, 4, 58, 0
1, 50400, Note_on_c, 0, 75, 81
1, 50400, Note_on_c, 3, 60, 63
1, 50400, Note_on_c, 4, 54, 63
1, 50459, Note_on_c, 0, 75, 0
1, 50460, Note_on_c, 0, 87, 81
1, 50519, Note_on_c, 0, 87, 0
1, 50519, Note_on_c, 3, 60, 0
1, 50520, Note_on_c, 0, 74, 81
1, 50520, Note_on_c, 3, 62, 63
1, 50579, Note_on_c, 0, 74, 0
1, 50580, Note_on_c, 0, 86, 81
1, 50639, Note_on_c, 0, 86, 0
1, 50639, Note_on_c, 3, 62, 0
1, 50640, Note_on_c, 0, 72, 81
1, 50640, Note_on_c, 3, 63, 63
1, 50699, Note_on_c, 0, 72, 0
1, 50700, Note_on_c, 0, 84, 81
1, 50759, Note_on_c, 3, 63, 0
1, 50759, Note_on_c, 4, 54, 0
1, 50760, Note_on_c, 3, 62, 63
1, 50760, Note_on_c, 4, 55, 63
1, 50819, Note_on_c, 0, 84, 0
1, 50820, Note_on_c, 0, 82, 81
1, 50879, Note_on_c, 0, 82, 0
1, 50879, Note_on_c, 4, 55, 0
1, 50880, Note_on_c, 0, 81, 81
1, 50880, Note_on_c, 4, 57, 63
1, 50939, Note_on_c, 0, 81, 0
1, 50940, Note_on_c, 0, 79, 81
1, 50999, Note_on_c, 0, 79, 0
1, 50999, Note_on_c, 4, 57, 0
1, 51000, Note_on_c, 0, 78, 81
1, 51000, Note_on_c, 4, 58, 63
1, 51059, Note_on_c, 0, 78, 0
1, 51060, Note_on_c, 0, 79, 81
1, 51119, Note_on_c, 0, 79, 0
1, 51119, Note_on_c, 3, 62, 0
1, 51119, Note_on_c, 4, 58, 0
1, 51120, Note_on_c, 0, 77, 81
1, 51120, Note_on_c, 3, 63, 63
1, 51120, Note_on_c, 4, 60, 63
1, 51179, Note_on_c, 0, 77, 0
1, 51180, Note_on_c, 0, 75, 81
1, 51239, Note_on_c, 0, 75, 0
1, 51240, Note_on_c, 0, 74, 63
1, 51299, Note_on_c, 0, 74, 0
1, 51300, Note_on_c, 0, 72, 63
1, 51359, Note_on_c, 0, 72, 0
1, 51360, Note_on_c, 0, 70, 63
1, 51419, Note_on_c, 0, 70, 0
1, 51420, Note_on_c, 0, 69, 47
1, 51479, Note_on_c, 0, 69, 0
1, 51479, Note_on_c, 3, 63, 0
1, 51479, Note_on_c, 4, 60, 0
1, 51480, Note_on_c, 0, 67, 47
1, 51480, Note_on_c, 3, 58, 47
1, 51480, Note_on_c, 4, 50, 40
1, 51659, Note_on_c, 0, 67, 0
1, 51660, Note_on_c, 0, 69, 40
1, 51719, Note_on_c, 0, 69, 0
1, 51719, Note_on_c, 3, 58, 0
1, 51720, Note_on_c, 0, 66, 38
1, 51720, Note_on_c, 3, 57, 34
1, 51839, Note_on_c, 0, 66, 0
1, 51839, Note_on_c, 3, 57, 0
1, 51839, Note_on_c, 4, 50, 0
1, 52081, Note_on_c, 0, 67, 36
1, 52081, Note_on_c, 3, 55, 28
1, 52081, Note_on_c, 4, 43, 29
1, 52139, Note_on_c, 0, 67, 0
1, 52139, Note_on_c, 3, 55, 0
1, 52139, Note_on_c, 4, 43, 0
1, 52201, Note_on_c, 0, 67, 36
1, 52201, Note_on_c, 3, 55, 27
1, 52201, Note_on_c, 4, 43, 29
1, 52259, Note_on_c, 0, 67, 0
1, 52259, Note_on_c, 3, 55, 0
1, 52259, Note_on_c, 4, 43, 0
1, 52441, Note_on_c, 0, 67, 63
1, 52441, Note_on_c, 3, 59, 47
1, 52441, Note_on_c, 4, 55, 47
1, 52559, Note_on_c, 0, 67, 0
1, 52559, Note_on_c, 3, 59, 0
1, 52559, Note_on_c, 4, 55, 0
1, 52560, Note_on_c, 0, 67, 63
1, 52560, Note_on_c, 3, 59, 47
1, 52560, Note_on_c, 4, 55, 47
1, 52799, Note_on_c, 0, 67, 0
1, 52799, Note_on_c, 3, 59, 0
1, 52799, Note_on_c, 4, 55, 0
1, 52800, Note_on_c, 0, 71, 63
1, 52800, Note_on_c, 3, 60, 47
1, 52800, Note_on_c, 4, 55, 47
1, 52859, Note_on_c, 0, 71, 0
1, 52860, Note_on_c, 0, 69, 63
1, 52919, Note_on_c, 0, 69, 0
1, 52919, Note_on_c, 3, 60, 0
1, 52919, Note_on_c, 4, 55, 0
1, 52920, Note_on_c, 0, 62, 63
1, 52920, Note_on_c, 3, 60, 47
1, 52920, Note_on_c, 4, 55, 47
1, 52979, Note_on_c, 0, 62, 0
1, 53041, Note_on_c, 0, 66, 63
1, 53099, Note_on_c, 0, 66, 0
1, 53100, Note_on_c, 0, 64, 63
1, 53159, Note_on_c, 0, 64, 0
1, 53159, Note_on_c, 3, 60, 0
1, 53159, Note_on_c, 4, 55, 0
1, 53160, Note_on_c, 0, 67, 63
1, 53160, Note_on_c, 3, 60, 47
1, 53160, Note_on_c, 4, 55, 47
1, 53219, Note_on_c, 0, 67, 0
1, 53220, Note_on_c, 0, 66, 63
1, 53279, Note_on_c, 0, 66, 0
1, 53279, Note_on_c, 3, 60, 0
1, 53279, Note_on_c, 4, 55, 0
1, 53280, Note_on_c, 0, 69, 63
1, 53280, Note_on_c, 3, 59, 47
1, 53280, Note_on_c, 4, 55, 47
1, 53339, Note_on_c, 0, 69, 0
1, 53340, Note_on_c, 0, 67, 63
1, 53399, Note_on_c, 0, 67, 0
1, 53400, Note_on_c, 0, 72, 63
1, 53459, Note_on_c, 0, 72, 0
1, 53460, Note_on_c, 0, 71, 63
1, 53519, Note_on_c, 0, 71, 0
1, 53519, Note_on_c, 3, 59, 0
1, 53519, Note_on_c, 4, 55, 0
1, 53520, Note_on_c, 0, 74, 63
1, 53520, Note_on_c, 3, 59, 47
1, 53520, Note_on_c, 4, 55, 47
1, 53579, Note_on_c, 0, 74, 0
1, 53580, Note_on_c, 0, 71, 63
1, 53639, Note_on_c, 0, 71, 0
1, 53639, Note_on_c, 3, 59, 0
1, 53639, Note_on_c, 4, 55, 0
1, 53640, Note_on_c, 0, 67, 63
1, 53640, Note_on_c, 3, 59, 47
1, 53640, Note_on_c, 4, 55, 47
1, 53879, Note_on_c, 0, 67, 0
1, 53879, Note_on_c, 3, 59, 0
1, 53879, Note_on_c, 4, 55, 0
1, 53880, Note_on_c, 0, 69, 63
1, 53880, Note_on_c, 3, 62, 47
1, 53880, Note_on_c, 4, 54, 47
1, 53999, Note_on_c, 0, 69, 0
1, 53999, Note_on_c, 3, 62, 0
1, 53999, Note_on_c, 4, 54, 0
1, 54000, Note_on_c, 0, 70, 81
1, 54000, Note_on_c, 3, 62, 63
1, 54000, Note_on_c, 4, 55, 63
1, 54059, Note_on_c, 0, 70, 0
1, 54059, Note_on_c, 4, 55, 0
1, 54060, Note_on_c, 0, 71, 81
1, 54060, Note_on_c, 4, 56, 63
1, 54119, Note_on_c, 0, 71, 0
1, 54119, Note_on_c, 4, 56, 0
1, 54120, Note_on_c, 0, 72, 81
1, 54120, Note_on_c, 4, 57, 63
1, 54179, Note_on_c, 0, 72, 0
1, 54179, Note_on_c, 4, 57, 0
1, 54180, Note_on_c, 0, 73, 81
1, 54180, Note_on_c, 4, 58, 63
1, 54239, Note_on_c, 0, 73, 0
1, 54239, Note_on_c, 4, 58, 0
1, 54240, Note_on_c, 0, 74, 81
1, 54240, Note_on_c, 4, 59, 63
1, 54359, Note_on_c, 0, 74, 0
1, 54359, Note_on_c, 3, 62, 0
1, 54359, Note_on_c, 4, 59, 0
1, 54360, Note_on_c, 0, 74, 81
1, 54360, Note_on_c, 3, 62, 63
1, 54360, Note_on_c, 4, 57, 63
1, 54361, Note_on_c, 1, 66, 63
1, 54479, Note_on_c, 0, 74, 0
1, 54480, Note_on_c, 0, 72, 81
1, 54599, Note_on_c, 0, 72, 0
1, 54599, Note_on_c, 1, 66, 0
1, 54599, Note_on_c, 4, 57, 0
1, 54600, Note_on_c, 0, 71, 81
1, 54600, Note_on_c, 1, 67, 63
1, 54600, Note_on_c, 4, 55, 63
1, 54719, Note_on_c, 0, 71, 0
1, 54719, Note_on_c, 1, 67, 0
1, 54719, Note_on_c, 3, 62, 0
1, 54719, Note_on_c, 4, 55, 0
1, 54720, Note_on_c, 0, 71, 63
1, 54720, Note_on_c, 1, 67, 47
1, 54720, Note_on_c, 4, 50, 63
1, 54839, Note_on_c, 0, 71, 0
1, 54839, Note_on_c, 1, 67, 0
1, 54840, Note_on_c, 0, 69, 63
1, 54840, Note_on_c, 1, 66, 47
1, 54899, Note_on_c, 4, 50, 0
1, 54900, Note_on_c, 4, 52, 58
1, 54929, Note_on_c, 4, 52, 0
1, 54930, Note_on_c, 4, 54, 53
1, 54959, Note_on_c, 0, 69, 0
1, 54959, Note_on_c, 1, 66, 0
1, 54959, Note_on_c, 4, 54, 0
1, 54960, Note_on_c, 0, 69, 63
1, 54960, Note_on_c, 1, 66, 47
1, 54960, Note_on_c, 4, 55, 49
1, 54989, Note_on_c, 4, 55, 0
1, 54990, Note_on_c, 4, 57, 45
1, 55019, Note_on_c, 0, 69, 0
1, 55019, Note_on_c, 1, 66, 0
1, 55019, Note_on_c, 4, 57, 0
1, 55020, Note_on_c, 4, 59, 41
1, 55049, Note_on_c, 4, 59, 0
1, 55050, Note_on_c, 4, 61, 37
1, 55079, Note_on_c, 4, 61, 0
1, 55080, Note_on_c, 4, 62, 36
1, 55081, Note_on_c, 0, 69, 47
1, 55081, Note_on_c, 1, 66, 36
1, 55199, Note_on_c, 4, 62, 0
1, 55200, Note_on_c, 4, 60, 41
1, 55319, Note_on_c, 0, 69, 0
1, 55319, Note_on_c, 1, 66, 0
1, 55319, Note_on_c, 4, 60, 0
1, 55320, Note_on_c, 0, 71, 63
1, 55320, Note_on_c, 1, 68, 47
1, 55320, Note_on_c, 4, 59, 47
1, 55439, Note_on_c, 0, 71, 0
1, 55439, Note_on_c, 1, 68, 0
1, 55439, Note_on_c, 4, 59, 0
1, 55440, Note_on_c, 0, 72, 63
1, 55440, Note_on_c, 4, 57, 50
1, 55469, Note_on_c, 0, 72, 0
1, 55470, Note_on_c, 0, 69, 63
1, 55499, Note_on_c, 0, 69, 0
1, 55500, Note_on_c, 0, 71, 63
1, 55529, Note_on_c, 0, 71, 0
1, 55530, Note_on_c, 0, 72, 63
1, 55559, Note_on_c, 0, 72, 0
1, 55560, Note_on_c, 0, 74, 63
1, 55589, Note_on_c, 0, 74, 0
1, 55590, Note_on_c, 0, 76, 81
1, 55619, Note_on_c, 0, 76, 0
1, 55620, Note_on_c, 0, 78, 81
1, 55649, Note_on_c, 0, 78, 0
1, 55650, Note_on_c, 0, 80, 81
1, 55679, Note_on_c, 0, 80, 0
1, 55679, Note_on_c, 4, 57, 0
1, 55680, Note_on_c, 0, 81, 81
1, 55680, Note_on_c, 4, 55, 63
1, 55709, Note_on_c, 0, 81, 0
1, 55710, Note_on_c, 0, 83, 81
1, 55739, Note_on_c, 0, 83, 0
1, 55740, Note_on_c, 0, 84, 81
1, 55769, Note_on_c, 0, 84, 0
1, 55770, Note_on_c, 0, 86, 81
1, 55799, Note_on_c, 0, 86, 0
1, 55799, Note_on_c, 4, 55, 0
1, 55800, Note_on_c, 0, 88, 86
1, 55800, Note_on_c, 4, 54, 83
1, 55801, Note_on_c, 1, 84, 63
1, 55919, Note_on_c, 0, 88, 0
1, 55919, Note_on_c, 1, 84, 0
1, 55920, Note_on_c, 0, 86, 86
1, 55920, Note_on_c, 1, 83, 63
1, 56039, Note_on_c, 0, 86, 0
1, 56039, Note_on_c, 1, 83, 0
1, 56040, Note_on_c, 0, 86, 86
1, 56040, Note_on_c, 1, 81, 63
1, 56041, Note_on_c, 3, 62, 63
1, 56059, Note_on_c, 0, 86, 0
1, 56060, Note_on_c, 0, 84, 86
1, 56079, Note_on_c, 0, 84, 0
1, 56080, Note_on_c, 0, 83, 86
1, 56099, Note_on_c, 0, 83, 0
1, 56100, Note_on_c, 0, 84, 86
1, 56159, Note_on_c, 4, 54, 0
1, 56160, Note_on_c, 4, 55, 83
1, 56279, Note_on_c, 0, 84, 0
1, 56279, Note_on_c, 1, 81, 0
1, 56280, Note_on_c, 0, 83, 86
1, 56280, Note_on_c, 1, 79, 63
1, 56399, Note_on_c, 0, 83, 0
1, 56399, Note_on_c, 1, 79, 0
1, 56399, Note_on_c, 3, 62, 0
1, 56400, Note_on_c, 0, 86, 86
1, 56400, Note_on_c, 3, 65, 63
1, 56519, Note_on_c, 0, 86, 0
1, 56519, Note_on_c, 3, 65, 0
1, 56520, Note_on_c, 0, 88, 86
1, 56520, Note_on_c, 3, 64, 63
1, 56549, Note_on_c, 0, 88, 0
1, 56550, Note_on_c, 0, 86, 86
1, 56579, Note_on_c, 0, 86, 0
1, 56580, Note_on_c, 0, 84, 86
1, 56639, Note_on_c, 0, 84, 0
1, 56639, Note_on_c, 3, 64, 0
1, 56640, Note_on_c, 0, 86, 86
1, 56640, Note_on_c, 3, 62, 63
1, 56669, Note_on_c, 0, 86, 0
1, 56670, Note_on_c, 0, 84, 86
1, 56699, Note_on_c, 0, 84, 0
1, 56700, Note_on_c, 0, 83, 86
1, 56759, Note_on_c, 0, 83, 0
1, 56759, Note_on_c, 3, 62, 0
1, 56760, Note_on_c, 0, 84, 86
1, 56760, Note_on_c, 3, 60, 63
1, 56789, Note_on_c, 0, 84, 0
1, 56790, Note_on_c, 0, 83, 86
1, 56819, Note_on_c, 0, 83, 0
1, 56820, Note_on_c, 0, 81, 86
1, 56879, Note_on_c, 0, 81, 0
1, 56879, Note_on_c, 3, 60, 0
1, 56880, Note_on_c, 0, 83, 86
1, 56880, Note_on_c, 3, 59, 63
1, 56909, Note_on_c, 0, 83, 0
1, 56910, Note_on_c, 0, 81, 86
1, 56939, Note_on_c, 0, 81, 0
1, 56940, Note_on_c, 0, 79, 86
1, 56999, Note_on_c, 0, 79, 0
1, 56999, Note_on_c, 3, 59, 0
1, 57000, Note_on_c, 0, 81, 86
1, 57000, Note_on_c, 3, 57, 63
1, 57029, Note_on_c, 0, 81, 0
1, 57030, Note_on_c, 0, 79, 86
1, 57059, Note_on_c, 0, 79, 0
1, 57060, Note_on_c, 0, 78, 86
1, 57119, Note_on_c, 3, 57, 0
1, 57120, Note_on_c, 3, 60, 63
1, 57179, Note_on_c, 0, 78, 0
1, 57180, Note_on_c, 0, 81, 86
1, 57239, Note_on_c, 3, 60, 0
1, 57240, Note_on_c, 3, 59, 63
1, 57299, Note_on_c, 0, 81, 0
1, 57300, Note_on_c, 0, 79, 86
1, 57359, Note_on_c, 3, 59, 0
1, 57360, Note_on_c, 3, 67, 63
1, 57419, Note_on_c, 0, 79, 0
1, 57420, Note_on_c, 0, 76, 86
1, 57479, Note_on_c, 4, 55, 0
1, 57480, Note_on_c, 4, 57, 83
1, 57539, Note_on_c, 0, 76, 0
1, 57540, Note_on_c, 0, 73, 86
1, 57599, Note_on_c, 0, 73, 0
1, 57599, Note_on_c, 3, 67, 0
1, 57599, Note_on_c, 4, 57, 0
1, 57600, Note_on_c, 0, 73, 82
1, 57600, Note_on_c, 3, 67, 63
1, 57600, Note_on_c, 4, 62, 63
1, 57659, Note_on_c, 0, 73, 0
1, 57660, Note_on_c, 0, 74, 78
1, 57719, Note_on_c, 0, 74, 0
1, 57719, Note_on_c, 3, 67, 0
1, 57720, Note_on_c, 0, 76, 74
1, 57720, Note_on_c, 3, 66, 63
1, 57779, Note_on_c, 0, 76, 0
1, 57780, Note_on_c, 0, 74, 70
1, 57839, Note_on_c, 0, 74, 0
1, 57839, Note_on_c, 3, 66, 0
1, 57840, Note_on_c, 0, 76, 66
1, 57840, Note_on_c, 3, 66, 63
1, 57899, Note_on_c, 0, 76, 0
1, 57899, Note_on_c, 3, 66, 0
1, 57900, Note_on_c, 0, 74, 60
1, 57959, Note_on_c, 0, 74, 0
1, 57960, Note_on_c, 0, 74, 56
1, 57961, Note_on_c, 3, 66, 63
1, 58079, Note_on_c, 0, 74, 0
1, 58079, Note_on_c, 3, 66, 0
1, 58079, Note_on_c, 4, 62, 0
1, 58201, Note_on_c, 0, 79, 36
1, 58201, Note_on_c, 1, 74, 31
1, 58201, Note_on_c, 2, 71, 31
1, 58319, Note_on_c, 0, 79, 0
1, 58319, Note_on_c, 1, 74, 0
1, 58319, Note_on_c, 2, 71, 0
1, 58320, Note_on_c, 0, 78, 36
1, 58320, Note_on_c, 1, 74, 31
1, 58320, Note_on_c, 2, 71, 31
1, 58379, Note_on_c, 0, 78, 0
1, 58380, Note_on_c, 0, 79, 36
1, 58439, Note_on_c, 0, 79, 0
1, 58440, Note_on_c, 0, 81, 36
1, 58499, Note_on_c, 0, 81, 0
1, 58500, Note_on_c, 0, 79, 36
1, 58559, Note_on_c, 0, 79, 0
1, 58559, Note_on_c, 1, 74, 0
1, 58559, Note_on_c, 2, 71, 0
1, 58560, Note_on_c, 0, 79, 36
1, 58560, Note_on_c, 1, 76, 31
1, 58560, Note_on_c, 2, 72, 31
1, 58619, Note_on_c, 0, 79, 0
1, 58620, Note_on_c, 0, 81, 36
1, 58679, Note_on_c, 0, 81, 0
1, 58679, Note_on_c, 1, 76, 0
1, 58679, Note_on_c, 2, 72, 0
1, 58680, Note_on_c, 0, 81, 36
1, 58680, Note_on_c, 1, 74, 31
1, 58680, Note_on_c, 2, 71, 31
1, 58739, Note_on_c, 0, 81, 0
1, 58740, Note_on_c, 0, 79, 36
1, 58799, Note_on_c, 0, 79, 0
1, 58799, Note_on_c, 1, 74, 0
1, 58799, Note_on_c, 2, 71, 0
1, 58800, Note_on_c, 0, 79, 36
1, 58800, Note_on_c, 1, 72, 31
1, 58800, Note_on_c, 2, 69, 31
1, 58859, Note_on_c, 0, 79, 0
1, 58860, Note_on_c, 0, 78, 36
1, 58919, Note_on_c, 0, 78, 0
1, 58919, Note_on_c, 1, 72, 0
1, 58919, Note_on_c, 2, 69, 0
1, 58920, Note_on_c, 0, 78, 36
1, 58920, Note_on_c, 1, 71, 31
1, 58920, Note_on_c, 2, 67, 31
1, 58979, Note_on_c, 0, 78, 0
1, 58980, Note_on_c, 0, 76, 36
1, 59039, Note_on_c, 0, 76, 0
1, 59039, Note_on_c, 1, 71, 0
1, 59039, Note_on_c, 2, 67, 0
1, 59040, Note_on_c, 0, 76, 36
1, 59040, Note_on_c, 1, 69, 31
1, 59040, Note_on_c, 2, 66, 31
1, 59099, Note_on_c, 0, 76, 0
1, 59100, Note_on_c, 0, 74, 47
1, 59159, Note_on_c, 0, 74, 0
1, 59160, Note_on_c, 0, 74, 47
1, 59189, Note_on_c, 0, 74, 0
1, 59221, Note_on_c, 0, 74, 47
1, 59249, Note_on_c, 0, 74, 0
1, 59279, Note_on_c, 1, 69, 0
1, 59279, Note_on_c, 2, 66, 0
1, 59280, Note_on_c, 1, 69, 40
1, 59280, Note_on_c, 2, 66, 40
1, 59281, Note_on_c, 0, 74, 47
1, 59309, Note_on_c, 0, 74, 0
1, 59341, Note_on_c, 0, 74, 47
1, 59369, Note_on_c, 0, 74, 0
1, 59399, Note_on_c, 1, 69, 0
1, 59399, Note_on_c, 2, 66, 0
1, 59400, Note_on_c, 1, 69, 47
1, 59400, Note_on_c, 2, 66, 47
1, 59401, Note_on_c, 0, 76, 63
1, 59459, Note_on_c, 0, 76, 0
1, 59460, Note_on_c, 0, 75, 63
1, 59519, Note_on_c, 0, 75, 0
1, 59520, Note_on_c, 0, 75, 63
1, 59549, Note_on_c, 0, 75, 0
1, 59581, Note_on_c, 0, 75, 63
1, 59609, Note_on_c, 0, 75, 0
1, 59639, Note_on_c, 1, 69, 0
1, 59639, Note_on_c, 2, 66, 0
1, 59640, Note_on_c, 1, 69, 47
1, 59640, Note_on_c, 2, 66, 47
1, 59641, Note_on_c, 0, 75, 63
1, 59669, Note_on_c, 0, 75, 0
1, 59701, Note_on_c, 0, 75, 63
1, 59729, Note_on_c, 0, 75, 0
1, 59759, Note_on_c, 1, 69, 0
1, 59759, Note_on_c, 2, 66, 0
1, 59760, Note_on_c, 1, 71, 63
1, 59760, Note_on_c, 2, 67, 63
1, 59761, Note_on_c, 0, 75, 81
1, 59819, Note_on_c, 0, 75, 0
1, 59820, Note_on_c, 0, 76, 81
1, 59879, Note_on_c, 0, 76, 0
1, 59880, Note_on_c, 0, 78, 81
1, 59939, Note_on_c, 0, 78, 0
1, 59940, Note_on_c, 0, 76, 81
1, 59999, Note_on_c, 0, 76, 0
1, 60000, Note_on_c, 0, 79, 81
1, 60059, Note_on_c, 0, 79, 0
1, 60060, Note_on_c, 0, 78, 81
1, 60119, Note_on_c, 0, 78, 0
1, 60119, Note_on_c, 1, 71, 0
1, 60119, Note_on_c, 2, 67, 0
1, 60120, Note_on_c, 0, 81, 81
1, 60120, Note_on_c, 1, 67, 63
1, 60120, Note_on_c, 2, 64, 63
1, 60179, Note_on_c, 0, 81, 0
1, 60180, Note_on_c, 0, 79, 81
1, 60239, Note_on_c, 0, 79, 0
1, 60240, Note_on_c, 0, 78, 81
1, 60299, Note_on_c, 0, 78, 0
1, 60300, Note_on_c, 0, 76, 81
1, 60359, Note_on_c, 0, 76, 0
1, 60360, Note_on_c, 0, 74, 81
1, 60419, Note_on_c, 0, 74, 0
1, 60420, Note_on_c, 0, 73, 81
1, 60479, Note_on_c, 0, 73, 0
1, 60479, Note_on_c, 1, 67, 0
1, 60479, Note_on_c, 2, 64, 0
1, 60480, Note_on_c, 0, 74, 105
1, 60539, Note_on_c, 0, 74, 0
1, 60540, Note_on_c, 0, 86, 105
1, 60599, Note_on_c, 0, 86, 0
1, 60600, Note_on_c, 0, 74, 105
1, 60601, Note_on_c, 3, 54, 80
1, 60601, Note_on_c, 4, 50, 83
1, 60629, Note_on_c, 0, 74, 0
1, 60661, Note_on_c, 0, 74, 105
1, 60689, Note_on_c, 0, 74, 0
1, 60719, Note_on_c, 3, 54, 0
1, 60719, Note_on_c, 4, 50, 0
1, 60720, Note_on_c, 3, 55, 80
1, 60720, Note_on_c, 4, 52, 83
1, 60721, Note_on_c, 0, 74, 105
1, 60749, Note_on_c, 0, 74, 0
1, 60781, Note_on_c, 0, 74, 105
1, 60809, Note_on_c, 0, 74, 0
1, 60839, Note_on_c, 3, 55, 0
1, 60839, Note_on_c, 4, 52, 0
1, 60841, Note_on_c, 0, 74, 105
1, 60899, Note_on_c, 0, 74, 0
1, 60900, Note_on_c, 0, 86, 105
1, 60959, Note_on_c, 0, 86, 0
1, 60960, Note_on_c, 0, 74, 105
1, 60961, Note_on_c, 3, 57, 80
1, 60961, Note_on_c, 4, 54, 83
1, 60989, Note_on_c, 0, 74, 0
1, 61021, Note_on_c, 0, 74, 105
1, 61049, Note_on_c, 0, 74, 0
1, 61079, Note_on_c, 3, 57, 0
1, 61079, Note_on_c, 4, 54, 0
1, 61080, Note_on_c, 3, 59, 80
1, 61080, Note_on_c, 4, 55, 83
1, 61081, Note_on_c, 0, 74, 105
1, 61109, Note_on_c, 0, 74, 0
1, 61141, Note_on_c, 0, 74, 105
1, 61169, Note_on_c, 0, 74, 0
1, 61199, Note_on_c, 3, 59, 0
1, 61199, Note_on_c, 4, 55, 0
1, 61201, Note_on_c, 0, 74, 105
1, 61229, Note_on_c, 0, 74, 0
1, 61230, Note_on_c, 0, 78, 105
1, 61259, Note_on_c, 0, 78, 0
1, 61260, Note_on_c, 0, 81, 105
1, 61289, Note_on_c, 0, 81, 0
1, 61290, Note_on_c, 0, 86, 105
1, 61319, Note_on_c, 0, 86, 0
1, 61320, Note_on_c, 0, 74, 105
1, 61321, Note_on_c, 3, 60, 80
1, 61321, Note_on_c, 4, 57, 83
1, 61349, Note_on_c, 0, 74, 0
1, 61381, Note_on_c, 0, 74, 105
1, 61409, Note_on_c, 0, 74, 0
1, 61439, Note_on_c, 3, 60, 0
1, 61439, Note_on_c, 4, 57, 0
1, 61440, Note_on_c, 3, 59, 63
1, 61440, Note_on_c, 4, 55, 83
1, 61441, Note_on_c, 0, 74, 105
1, 61469, Note_on_c, 0, 74, 0
1, 61501, Note_on_c, 0, 74, 105
1, 61529, Note_on_c, 0, 74, 0
1, 61559, Note_on_c, 3, 59, 0
1, 61559, Note_on_c, 4, 55, 0
1, 61561, Note_on_c, 0, 74, 105
1, 61589, Note_on_c, 0, 74, 0
1, 61590, Note_on_c, 0, 78, 105
1, 61619, Note_on_c, 0, 78, 0
1, 61620, Note_on_c, 0, 81, 105
1, 61649, Note_on_c, 0, 81, 0
1, 61650, Note_on_c, 0, 86, 105
1, 61679, Note_on_c, 0, 86, 0
1, 61680, Note_on_c, 0, 74, 81
1, 61681, Note_on_c, 3, 57, 47
1, 61681, Note_on_c, 4, 54, 61
1, 61709, Note_on_c, 0, 74, 0
1, 61741, Note_on_c, 0, 74, 81
1, 61769, Note_on_c, 0, 74, 0
1, 61799, Note_on_c, 3, 57, 0
1, 61799, Note_on_c, 4, 54, 0
1, 61800, Note_on_c, 3, 55, 64
1, 61800, Note_on_c, 4, 52, 61
1, 61801, Note_on_c, 0, 74, 81
1, 61829, Note_on_c, 0, 74, 0
1, 61861, Note_on_c, 0, 74, 81
1, 61889, Note_on_c, 0, 74, 0
1, 61919, Note_on_c, 3, 55, 0
1, 61919, Note_on_c, 4, 52, 0
1, 61920, Note_on_c, 3, 54, 64
1, 61920, Note_on_c, 4, 50, 50
1, 61921, Note_on_c, 0, 74, 63
1, 61979, Note_on_c, 0, 74, 0
1, 61980, Note_on_c, 0, 86, 63
1, 62039, Note_on_c, 0, 86, 0
1, 62039, Note_on_c, 3, 54, 0
1, 62039, Note_on_c, 4, 50, 0
1, 62040, Note_on_c, 0, 86, 36
1, 62041, Note_on_c, 1, 66, 29
1, 62041, Note_on_c, 2, 62, 29
1, 62069, Note_on_c, 0, 86, 0
1, 62101, Note_on_c, 0, 86, 36
1, 62129, Note_on_c, 0, 86, 0
1, 62159, Note_on_c, 1, 66, 0
1, 62159, Note_on_c, 2, 62, 0
1, 62160, Note_on_c, 1, 67, 29
1, 62160, Note_on_c, 2, 64, 29
1, 62161, Note_on_c, 0, 86, 36
1, 62189, Note_on_c, 0, 86, 0
1, 62221, Note_on_c, 0, 86, 36
1, 62249, Note_on_c, 0, 86, 0
1, 62279, Note_on_c, 1, 67, 0
1, 62279, Note_on_c, 2, 64, 0
1, 62281, Note_on_c, 0, 85, 47
1, 62339, Note_on_c, 0, 85, 0
1, 62340, Note_on_c, 0, 86, 47
1, 62399, Note_on_c, 0, 86, 0
1, 62400, Note_on_c, 0, 86, 47
1, 62401, Note_on_c, 1, 69, 39
1, 62401, Note_on_c, 2, 66, 39
1, 62429, Note_on_c, 0, 86, 0
1, 62461, Note_on_c, 0, 86, 47
1, 62489, Note_on_c, 0, 86, 0
1, 62519, Note_on_c, 1, 69, 0
1, 62519, Note_on_c, 2, 66, 0
1, 62520, Note_on_c, 1, 70, 39
1, 62520, Note_on_c, 2, 67, 39
1, 62521, Note_on_c, 0, 86, 47
1, 62549, Note_on_c, 0, 86, 0
1, 62581, Note_on_c, 0, 86, 47
1, 62609, Note_on_c, 0, 86, 0
1, 62639, Note_on_c, 1, 70, 0
1, 62639, Note_on_c, 2, 67, 0
1, 62641, Note_on_c, 0, 87, 47
1, 62699, Note_on_c, 0, 87, 0
1, 62700, Note_on_c, 0, 86, 47
1, 62759, Note_on_c, 0, 86, 0
1, 62760, Note_on_c, 0, 86, 36
1, 62761, Note_on_c, 1, 72, 31
1, 62761, Note_on_c, 2, 69, 31
1, 62789, Note_on_c, 0, 86, 0
1, 62821, Note_on_c, 0, 86, 36
1, 62849, Note_on_c, 0, 86, 0
1, 62879, Note_on_c, 1, 72, 0
1, 62879, Note_on_c, 2, 69, 0
1, 62880, Note_on_c, 1, 70, 31
1, 62880, Note_on_c, 2, 67, 31
1, 62881, Note_on_c, 0, 86, 36
1, 62909, Note_on_c, 0, 86, 0
1, 62941, Note_on_c, 0, 86, 36
1, 62969, Note_on_c, 0, 86, 0
1, 62999, Note_on_c, 1, 70, 0
1, 62999, Note_on_c, 2, 67, 0
1, 63001, Note_on_c, 0, 85, 36
1, 63059, Note_on_c, 0, 85, 0
1, 63060, Note_on_c, 0, 86, 36
1, 63119, Note_on_c, 0, 86, 0
1, 63120, Note_on_c, 0, 86, 36
1, 63121, Note_on_c, 1, 69, 31
1, 63121, Note_on_c, 2, 66, 31
1, 63149, Note_on_c, 0, 86, 0
1, 63181, Note_on_c, 0, 86, 36
1, 63209, Note_on_c, 0, 86, 0
1, 63239, Note_on_c, 1, 69, 0
1, 63239, Note_on_c, 2, 66, 0
1, 63240, Note_on_c, 1, 67, 31
1, 63240, Note_on_c, 2, 64, 31
1, 63241, Note_on_c, 0, 86, 36
1, 63269, Note_on_c, 0, 86, 0
1, 63301, Note_on_c, 0, 86, 36
1, 63329, Note_on_c, 0, 86, 0
1, 63359, Note_on_c, 1, 67, 0
1, 63359, Note_on_c, 2, 64, 0
1, 63360, Note_on_c, 1, 66, 33
1, 63360, Note_on_c, 2, 62, 31
1, 63361, Note_on_c, 0, 86, 31
1, 63389, Note_on_c, 0, 86, 0
1, 63421, Note_on_c, 0, 86, 31
1, 63449, Note_on_c, 0, 86, 0
1, 63481, Note_on_c, 0, 86, 31
1, 63509, Note_on_c, 0, 86, 0
1, 63541, Note_on_c, 0, 86, 31
1, 63569, Note_on_c, 0, 86, 0
1, 63599, Note_on_c, 1, 66, 0
1, 63599, Note_on_c, 2, 62, 0
1, 63601, Note_on_c, 0, 86, 31
1, 63629, Note_on_c, 0, 86, 0
1, 63661, Note_on_c, 0, 86, 31
1, 63689, Note_on_c, 0, 86, 0
1, 63721, Note_on_c, 0, 86, 30
1, 63779, Note_on_c, 0, 86, 0
1, 63841, Note_on_c, 0, 86, 30
1, 63899, Note_on_c, 0, 86, 0
1, 63961, Note_on_c, 0, 86, 30
1, 64019, Note_on_c, 0, 86, 0
1, 64080, Note_on_c, 0, 86, 30
1, 64081, Note_on_c, 1, 84, 30
1, 64081, Note_on_c, 2, 81, 30
1, 64138, Note_on_c, 0, 86, 0
1, 64139, Note_on_c, 1, 84, 0
1, 64139, Note_on_c, 2, 81, 0
1, 64201, Note_on_c, 0, 86, 30
1, 64201, Note_on_c, 1, 84, 30
1, 64201, Note_on_c, 2, 81, 30
1, 64259, Note_on_c, 0, 86, 0
1, 64259, Note_on_c, 1, 84, 0
1, 64259, Note_on_c, 2, 81, 0
1, 64321, Note_on_c, 0, 86, 30
1, 64321, Note_on_c, 1, 84, 30
1, 64321, Note_on_c, 2, 81, 30
1, 64379, Note_on_c, 0, 86, 0
1, 64379, Note_on_c, 1, 84, 0
1, 64379, Note_on_c, 2, 81, 0
1, 64441, Note_on_c, 0, 86, 30
1, 64441, Note_on_c, 1, 84, 30
1, 64441, Note_on_c, 2, 81, 30
1, 64499, Note_on_c, 0, 86, 0
1, 64499, Note_on_c, 1, 84, 0
1, 64499, Note_on_c, 2, 81, 0
1, 64561, Note_on_c, 0, 86, 30
1, 64561, Note_on_c, 1, 84, 30
1, 64561, Note_on_c, 2, 81, 30
1, 64619, Note_on_c, 0, 86, 0
1, 64619, Note_on_c, 1, 84, 0
1, 64619, Note_on_c, 2, 81, 0
1, 64681, Note_on_c, 0, 86, 30
1, 64681, Note_on_c, 1, 84, 30
1, 64681, Note_on_c, 2, 81, 30
1, 64739, Note_on_c, 0, 86, 0
1, 64739, Note_on_c, 1, 84, 0
1, 64739, Note_on_c, 2, 81, 0
1, 64800, Note_on_c, 0, 86, 30
1, 64801, Note_on_c, 1, 84, 30
1, 64801, Note_on_c, 2, 81, 30
1, 64801, Note_on_c, 3, 78, 30
1, 64858, Note_on_c, 0, 86, 0
1, 64859, Note_on_c, 1, 84, 0
1, 64859, Note_on_c, 2, 81, 0
1, 64859, Note_on_c, 3, 78, 0
1, 64921, Note_on_c, 0, 86, 30
1, 64921, Note_on_c, 1, 84, 30
1, 64921, Note_on_c, 2, 81, 30
1, 64921, Note_on_c, 3, 78, 30
1, 64979, Note_on_c, 0, 86, 0
1, 64979, Note_on_c, 1, 84, 0
1, 64979, Note_on_c, 2, 81, 0
1, 64979, Note_on_c, 3, 78, 0
1, 65041, Note_on_c, 0, 86, 30
1, 65041, Note_on_c, 1, 84, 30
1, 65041, Note_on_c, 2, 81, 30
1, 65041, Note_on_c, 3, 78, 30
1, 65099, Note_on_c, 0, 86, 0
1, 65099, Note_on_c, 1, 84, 0
1, 65099, Note_on_c, 2, 81, 0
1, 65099, Note_on_c, 3, 78, 0
1, 65161, Note_on_c, 0, 86, 30
1, 65161, Note_on_c, 1, 84, 30
1, 65161, Note_on_c, 2, 81, 30
1, 65161, Note_on_c, 3, 78, 30
1, 65519, Note_on_c, 0, 86, 0
1, 65519, Note_on_c, 1, 84, 0
1, 65519, Note_on_c, 2, 81, 0
1, 65519, Note_on_c, 3, 78, 0
1, 65760, Note_on_c, 0, 74, 30
1, 65761, Note_on_c, 1, 72, 30
1, 65761, Note_on_c, 2, 69, 30
1, 65761, Note_on_c, 3, 66, 30
1, 65818, Note_on_c, 0, 74, 0
1, 65819, Note_on_c, 1, 72, 0
1, 65819, Note_on_c, 2, 69, 0
1, 65819, Note_on_c, 3, 66, 0
1, 65881, Note_on_c, 0, 74, 30
1, 65881, Note_on_c, 1, 72, 30
1, 65881, Note_on_c, 2, 69, 30
1, 65881, Note_on_c, 3, 66, 30
1, 66119, Note_on_c, 0, 74, 0
1, 66119, Note_on_c, 1, 72, 0
1, 66119, Note_on_c, 2, 69, 0
1, 66119, Note_on_c, 3, 66, 0
1, 66120, Note_on_c, 0, 67, 63
1, 66121, Note_on_c, 4, 59, 47
1, 66121, Note_on_c, 5, 55, 47
1, 66239, Note_on_c, 0, 67, 0
1, 66239, Note_on_c, 4, 59, 0
1, 66239, Note_on_c, 5, 55, 0
1, 66240, Note_on_c, 0, 67, 63
1, 66240, Note_on_c, 4, 59, 47
1, 66240, Note_on_c, 5, 55, 47
1, 66479, Note_on_c, 0, 67, 0
1, 66479, Note_on_c, 4, 59, 0
1, 66479, Note_on_c, 5, 55, 0
1, 66480, Note_on_c, 0, 71, 63
1, 66480, Note_on_c, 4, 60, 47
1, 66480, Note_on_c, 5, 55, 47
1, 66539, Note_on_c, 0, 71, 0
1, 66540, Note_on_c, 0, 69, 63
1, 66599, Note_on_c, 0, 69, 0
1, 66599, Note_on_c, 4, 60, 0
1, 66599, Note_on_c, 5, 55, 0
1, 66600, Note_on_c, 0, 62, 63
1, 66600, Note_on_c, 4, 60, 47
1, 66600, Note_on_c, 5, 55, 47
1, 66719, Note_on_c, 0, 62, 0
1, 66720, Note_on_c, 0, 64, 63
1, 66839, Note_on_c, 0, 64, 0
1, 66839, Note_on_c, 4, 60, 0
1, 66839, Note_on_c, 5, 55, 0
1, 66840, Note_on_c, 0, 66, 63
1, 66840, Note_on_c, 4, 60, 47
1, 66840, Note_on_c, 5, 55, 47
1, 66879, Note_on_c, 0, 66, 0
1, 66880, Note_on_c, 0, 64, 63
1, 66919, Note_on_c, 0, 64, 0
1, 66920, Note_on_c, 0, 66, 63
1, 66959, Note_on_c, 0, 66, 0
1, 66959, Note_on_c, 4, 60, 0
1, 66959, Note_on_c, 5, 55, 0
1, 66960, Note_on_c, 0, 67, 63
1, 66960, Note_on_c, 4, 59, 47
1, 66960, Note_on_c, 5, 55, 47
1, 67019, Note_on_c, 0, 67, 0
1, 67019, Note_on_c, 4, 59, 0
1, 67019, Note_on_c, 5, 55, 0
1, 67081, Note_on_c, 0, 67, 63
1, 67081, Note_on_c, 4, 59, 47
1, 67081, Note_on_c, 5, 55, 47
1, 67139, Note_on_c, 0, 67, 0
1, 67139, Note_on_c, 4, 59, 0
1, 67139, Note_on_c, 5, 55, 0
1, 67201, Note_on_c, 0, 67, 63
1, 67201, Note_on_c, 4, 59, 47
1, 67201, Note_on_c, 5, 55, 47
1, 67259, Note_on_c, 0, 67, 0
1, 67259, Note_on_c, 4, 59, 0
1, 67259, Note_on_c, 5, 55, 0
1, 67321, Note_on_c, 0, 67, 63
1, 67321, Note_on_c, 4, 59, 47
1, 67321, Note_on_c, 5, 55, 47
1, 67559, Note_on_c, 0, 67, 0
1, 67559, Note_on_c, 4, 59, 0
1, 67559, Note_on_c, 5, 55, 0
1, 67560, Note_on_c, 0, 69, 81
1, 67560, Note_on_c, 4, 50, 63
1, 67561, Note_on_c, 1, 66, 63
1, 67561, Note_on_c, 2, 62, 63
1, 67679, Note_on_c, 0, 69, 0
1, 67679, Note_on_c, 1, 66, 0
1, 67679, Note_on_c, 2, 62, 0
1, 67679, Note_on_c, 4, 50, 0
1, 67680, Note_on_c, 0, 71, 81
1, 67680, Note_on_c, 1, 67, 63
1, 67680, Note_on_c, 2, 62, 63
1, 67680, Note_on_c, 4, 55, 63
1, 67799, Note_on_c, 0, 71, 0
1, 67799, Note_on_c, 1, 67, 0
1, 67799, Note_on_c, 2, 62, 0
1, 67799, Note_on_c, 4, 55, 0
1, 67921, Note_on_c, 0, 74, 81
1, 67921, Note_on_c, 1, 67, 63
1, 67921, Note_on_c, 2, 62, 63
1, 67921, Note_on_c, 4, 55, 63
1, 67921, Note_on_c, 5, 50, 63
1, 67921, Note_on_c, 6, 47, 63
1, 67921, Note_on_c, 7, 43, 63
1, 68039, Note_on_c, 0, 74, 0
1, 68039, Note_on_c, 1, 67, 0
1, 68039, Note_on_c, 2, 62, 0
1, 68039, Note_on_c, 4, 55, 0
1, 68039, Note_on_c, 5, 50, 0
1, 68039, Note_on_c, 6, 47, 0
1, 68039, Note_on_c, 7, 43, 0
1, 68040, Note_on_c, 0, 72, 81
1, 68040, Note_on_c, 1, 69, 63
1, 68040, Note_on_c, 2, 62, 63
1, 68040, Note_on_c, 4, 57, 63
1, 68040, Note_on_c, 5, 54, 63
1, 68040, Note_on_c, 6, 45, 63
1, 68279, Note_on_c, 0, 72, 0
1, 68279, Note_on_c, 1, 69, 0
1, 68279, Note_on_c, 2, 62, 0
1, 68279, Note_on_c, 4, 57, 0
1, 68279, Note_on_c, 5, 54, 0
1, 68279, Note_on_c, 6, 45, 0
1, 68280, Note_on_c, 0, 71, 81
1, 68280, Note_on_c, 1, 67, 63
1, 68280, Note_on_c, 2, 62, 63
1, 68280, Note_on_c, 4, 55, 63
1, 68280, Note_on_c, 5, 50, 63
1, 68280, Note_on_c, 6, 47, 63
1, 68399, Note_on_c, 0, 71, 0
1, 68399, Note_on_c, 1, 67, 0
1, 68399, Note_on_c, 2, 62, 0
1, 68399, Note_on_c, 4, 55, 0
1, 68399, Note_on_c, 5, 50, 0
1, 68399, Note_on_c, 6, 47, 0
1, 68400, Note_on_c, 0, 62, 81
1, 68459, Note_on_c, 0, 62, 0
1, 68460, Note_on_c, 0, 64, 81
1, 68519, Note_on_c, 0, 64, 0
1, 68520, Note_on_c, 0, 66, 81
1, 68579, Note_on_c, 0, 66, 0
1, 68580, Note_on_c, 0, 67, 81
1, 68639, Note_on_c, 0, 67, 0
1, 68640, Note_on_c, 0, 69, 81
1, 68699, Note_on_c, 0, 69, 0
1, 68700, Note_on_c, 0, 71, 81
1, 68759, Note_on_c, 0, 71, 0
1, 68760, Note_on_c, 0, 73, 81
1, 68761, Note_on_c, 5, 45, 63
1, 68761, Note_on_c, 6, 42, 63
1, 68761, Note_on_c, 7, 38, 63
1, 68819, Note_on_c, 0, 73, 0
1, 68820, Note_on_c, 0, 74, 81
1, 68879, Note_on_c, 0, 74, 0
1, 68880, Note_on_c, 0, 76, 81
1, 68939, Note_on_c, 0, 76, 0
1, 68940, Note_on_c, 0, 78, 81
1, 68999, Note_on_c, 0, 78, 0
1, 68999, Note_on_c, 5, 45, 0
1, 68999, Note_on_c, 6, 42, 0
1, 68999, Note_on_c, 7, 38, 0
1, 69000, Note_on_c, 0, 79, 105
1, 69029, Note_on_c, 0, 79, 0
1, 69030, Note_on_c, 0, 81, 105
1, 69059, Note_on_c, 0, 81, 0
1, 69060, Note_on_c, 0, 83, 105
1, 69089, Note_on_c, 0, 83, 0
1, 69090, Note_on_c, 0, 85, 105
1, 69119, Note_on_c, 0, 85, 0
1, 69120, Note_on_c, 0, 86, 105
1, 69121, Note_on_c, 4, 50, 63
1, 69599, Note_on_c, 0, 86, 0
1, 69599, Note_on_c, 4, 50, 0
1, 69600, Note_on_c, 0, 71, 81
1, 69600, Note_on_c, 4, 64, 63
1, 69601, Note_on_c, 1, 68, 63
1, 69839, Note_on_c, 0, 71, 0
1, 69839, Note_on_c, 1, 68, 0
1, 69839, Note_on_c, 4, 64, 0
1, 69840, Note_on_c, 0, 72, 63
1, 69840, Note_on_c, 1, 69, 47
1, 69840, Note_on_c, 4, 60, 47
1, 69959, Note_on_c, 0, 72, 0
1, 69959, Note_on_c, 1, 69, 0
1, 69959, Note_on_c, 4, 60, 0
1, 69960, Note_on_c, 0, 74, 63
1, 69960, Note_on_c, 1, 71, 47
1, 69960, Note_on_c, 4, 59, 47
1, 70079, Note_on_c, 0, 74, 0
1, 70079, Note_on_c, 1, 71, 0
1, 70079, Note_on_c, 4, 59, 0
1, 70080, Note_on_c, 0, 76, 47
1, 70080, Note_on_c, 1, 72, 37
1, 70080, Note_on_c, 4, 57, 36
1, 70139, Note_on_c, 0, 76, 0
1, 70139, Note_on_c, 1, 72, 0
1, 70139, Note_on_c, 4, 57, 0
1, 70201, Note_on_c, 0, 76, 47
1, 70201, Note_on_c, 1, 72, 37
1, 70201, Note_on_c, 4, 57, 36
1, 70319, Note_on_c, 0, 76, 0
1, 70319, Note_on_c, 1, 72, 0
1, 70319, Note_on_c, 4, 57, 0
1, 70441, Note_on_c, 0, 69, 81
1, 70441, Note_on_c, 1, 66, 63
1, 70441, Note_on_c, 4, 62, 63
1, 70559, Note_on_c, 0, 69, 0
1, 70559, Note_on_c, 1, 66, 0
1, 70559, Note_on_c, 4, 62, 0
1, 70560, Note_on_c, 0, 71, 63
1, 70560, Note_on_c, 1, 67, 47
1, 70560, Note_on_c, 4, 59, 47
1, 70679, Note_on_c, 0, 71, 0
1, 70679, Note_on_c, 1, 67, 0
1, 70679, Note_on_c, 4, 59, 0
1, 70680, Note_on_c, 0, 72, 63
1, 70680, Note_on_c, 1, 69, 47
1, 70680, Note_on_c, 4, 57, 47
1, 70799, Note_on_c, 0, 72, 0
1, 70799, Note_on_c, 1, 69, 0
1, 70799, Note_on_c, 4, 57, 0
1, 70800, Note_on_c, 0, 74, 47
1, 70800, Note_on_c, 1, 71, 37
1, 70800, Note_on_c, 4, 55, 31
1, 70859, Note_on_c, 0, 74, 0
1, 70859, Note_on_c, 1, 71, 0
1, 70859, Note_on_c, 4, 55, 0
1, 70921, Note_on_c, 0, 74, 47
1, 70921, Note_on_c, 4, 55, 31
1, 71039, Note_on_c, 0, 74, 0
1, 71039, Note_on_c, 4, 55, 0
1, 71161, Note_on_c, 0, 67, 36
1, 71161, Note_on_c, 4, 52, 31
1, 71279, Note_on_c, 0, 67, 0
1, 71279, Note_on_c, 4, 52, 0
1, 71280, Note_on_c, 0, 69, 36
1, 71280, Note_on_c, 4, 48, 31
1, 71339, Note_on_c, 0, 69, 0
1, 71399, Note_on_c, 4, 48, 0
1, 71401, Note_on_c, 0, 71, 36
1, 71459, Note_on_c, 0, 71, 0
1, 71521, Note_on_c, 0, 72, 36
1, 71579, Note_on_c, 0, 72, 0
1, 71641, Note_on_c, 0, 62, 32
1, 71641, Note_on_c, 4, 50, 28
1, 71699, Note_on_c, 0, 62, 0
1, 71759, Note_on_c, 4, 50, 0
1, 71761, Note_on_c, 0, 64, 30
1, 71819, Note_on_c, 0, 64, 0
1, 71881, Note_on_c, 0, 66, 30
1, 71939, Note_on_c, 0, 66, 0
1, 72001, Note_on_c, 4, 55, 28
1, 72059, Note_on_c, 4, 55, 0
1, 72121, Note_on_c, 4, 50, 28
1, 72179, Note_on_c, 4, 50, 0
1, 72241, Note_on_c, 4, 47, 28
1, 72299, Note_on_c, 4, 47, 0
1, 72361, Note_on_c, 0, 67, 81
1, 72361, Note_on_c, 1, 62, 81
1, 72361, Note_on_c, 2, 59, 81
1, 72361, Note_on_c, 4, 55, 63
1, 72361, Note_on_c, 5, 50, 63
1, 72361, Note_on_c, 6, 47, 63
1, 72361, Note_on_c, 7, 43, 63
1, 72479, Note_on_c, 0, 67, 0
1, 72479, Note_on_c, 1, 62, 0
1, 72479, Note_on_c, 2, 59, 0
1, 72479, Note_on_c, 4, 55, 0
1, 72479, Note_on_c, 5, 50, 0
1, 72479, Note_on_c, 6, 47, 0
1, 72479, Note_on_c, 7, 43, 0
1, 74161, Note_on_c, 0, 67, 81
1, 74161, Note_on_c, 3, 59, 47
1, 74161, Note_on_c, 4, 55, 55
1, 74220, Note_on_c, 3, 59, 0
1, 74220, Note_on_c, 4, 55, 0
1, 74282, Note_on_c, 3, 59, 47
1, 74282, Note_on_c, 4, 55, 55
1, 74340, Note_on_c, 0, 67, 0
1, 74340, Note_on_c, 3, 59, 0
1, 74340, Note_on_c, 4, 55, 0
1, 74341, Note_on_c, 0, 71, 81
1, 74370, Note_on_c, 0, 71, 0
1, 74371, Note_on_c, 0, 69, 81
1, 74400, Note_on_c, 0, 69, 0
1, 74401, Note_on_c, 0, 67, 81
1, 74402, Note_on_c, 3, 59, 47
1, 74402, Note_on_c, 4, 55, 55
1, 74460, Note_on_c, 3, 59, 0
1, 74460, Note_on_c, 4, 55, 0
1, 74520, Note_on_c, 0, 67, 0
1, 74522, Note_on_c, 3, 59, 47
1, 74522, Note_on_c, 4, 55, 55
1, 74580, Note_on_c, 3, 59, 0
1, 74580, Note_on_c, 4, 55, 0
1, 74642, Note_on_c, 3, 59, 47
1, 74642, Note_on_c, 4, 55, 55
1, 74700, Note_on_c, 3, 59, 0
1, 74700, Note_on_c, 4, 55, 0
1, 74762, Note_on_c, 0, 62, 81
1, 74762, Note_on_c, 3, 59, 47
1, 74762, Note_on_c, 4, 55, 55
1, 74820, Note_on_c, 0, 62, 0
1, 74820, Note_on_c, 3, 59, 0
1, 74820, Note_on_c, 4, 55, 0
1, 74882, Note_on_c, 0, 67, 81
1, 74882, Note_on_c, 3, 59, 47
1, 74882, Note_on_c, 4, 55, 55
1, 74940, Note_on_c, 0, 67, 0
1, 74940, Note_on_c, 3, 59, 0
1, 74940, Note_on_c, 4, 55, 0
1, 75002, Note_on_c, 0, 71, 81
1, 75002, Note_on_c, 3, 59, 47
1, 75002, Note_on_c, 4, 55, 55
1, 75060, Note_on_c, 0, 71, 0
1, 75060, Note_on_c, 3, 59, 0
1, 75060, Note_on_c, 4, 55, 0
1, 75122, Note_on_c, 0, 71, 81
1, 75122, Note_on_c, 3, 60, 47
1, 75122, Note_on_c, 4, 55, 55
1, 75180, Note_on_c, 0, 71, 0
1, 75181, Note_on_c, 0, 69, 81
1, 75240, Note_on_c, 0, 69, 0
1, 75241, Note_on_c, 0, 67, 81
1, 75300, Note_on_c, 0, 67, 0
1, 75301, Note_on_c, 0, 69, 63
1, 75360, Note_on_c, 0, 69, 0
1, 75360, Note_on_c, 3, 60, 0
1, 75360, Note_on_c, 4, 55, 0
1, 75361, Note_on_c, 0, 67, 63
1, 75361, Note_on_c, 3, 59, 31
1, 75361, Note_on_c, 4, 55, 39
1, 75480, Note_on_c, 0, 67, 0
1, 75480, Note_on_c, 3, 59, 0
1, 75480, Note_on_c, 4, 55, 0
1, 75481, Note_on_c, 0, 74, 47
1, 75540, Note_on_c, 0, 74, 0
1, 75602, Note_on_c, 0, 74, 47
1, 75602, Note_on_c, 1, 67, 31
1, 75602, Note_on_c, 2, 65, 31
1, 75660, Note_on_c, 0, 74, 0
1, 75660, Note_on_c, 1, 67, 0
1, 75660, Note_on_c, 2, 65, 0
1, 75722, Note_on_c, 0, 74, 47
1, 75722, Note_on_c, 1, 67, 31
1, 75722, Note_on_c, 2, 65, 31
1, 75780, Note_on_c, 0, 74, 0
1, 75780, Note_on_c, 1, 67, 0
1, 75780, Note_on_c, 2, 65, 0
1, 75842, Note_on_c, 0, 74, 47
1, 75842, Note_on_c, 1, 67, 31
1, 75842, Note_on_c, 2, 65, 31
1, 75900, Note_on_c, 0, 74, 0
1, 75900, Note_on_c, 1, 67, 0
1, 75900, Note_on_c, 2, 65, 0
1, 75962, Note_on_c, 0, 74, 47
1, 75962, Note_on_c, 1, 67, 31
1, 75962, Note_on_c, 2, 65, 31
1, 76020, Note_on_c, 0, 74, 0
1, 76020, Note_on_c, 1, 67, 0
1, 76020, Note_on_c, 2, 65, 0
1, 76082, Note_on_c, 0, 74, 47
1, 76082, Note_on_c, 1, 67, 31
1, 76082, Note_on_c, 2, 64, 31
1, 76260, Note_on_c, 0, 74, 0
1, 76261, Note_on_c, 0, 76, 47
1, 76290, Note_on_c, 0, 76, 0
1, 76291, Note_on_c, 0, 74, 47
1, 76320, Note_on_c, 0, 74, 0
1, 76321, Note_on_c, 0, 72, 47
1, 76440, Note_on_c, 0, 72, 0
1, 76440, Note_on_c, 1, 67, 0
1, 76440, Note_on_c, 2, 64, 0
1, 76441, Note_on_c, 0, 71, 47
1, 76441, Note_on_c, 1, 65, 31
1, 76441, Note_on_c, 2, 62, 31
1, 76500, Note_on_c, 0, 71, 0
1, 76560, Note_on_c, 1, 65, 0
1, 76560, Note_on_c, 2, 62, 0
1, 76561, Note_on_c, 1, 64, 31
1, 76561, Note_on_c, 2, 60, 31
1, 76562, Note_on_c, 0, 69, 47
1, 76620, Note_on_c, 0, 69, 0
1, 76682, Note_on_c, 0, 81, 47
1, 76800, Note_on_c, 1, 64, 0
1, 76800, Note_on_c, 2, 60, 0
1, 76801, Note_on_c, 1, 64, 31
1, 76801, Note_on_c, 2, 61, 31
1, 76920, Note_on_c, 0, 81, 0
1, 76921, Note_on_c, 0, 79, 47
1, 77040, Note_on_c, 0, 79, 0
1, 77040, Note_on_c, 1, 64, 0
1, 77040, Note_on_c, 2, 61, 0
1, 77041, Note_on_c, 0, 79, 47
1, 77041, Note_on_c, 1, 62, 31
1, 77100, Note_on_c, 0, 79, 0
1, 77101, Note_on_c, 0, 78, 47
1, 77160, Note_on_c, 0, 78, 0
1, 77161, Note_on_c, 0, 76, 47
1, 77220, Note_on_c, 0, 76, 0
1, 77221, Note_on_c, 0, 74, 47
1, 77280, Note_on_c, 0, 74, 0
1, 77280, Note_on_c, 1, 62, 0
1, 77281, Note_on_c, 0, 74, 47
1, 77340, Note_on_c, 0, 74, 0
1, 77402, Note_on_c, 0, 74, 47
1, 77460, Note_on_c, 0, 74, 0
1, 77522, Note_on_c, 0, 74, 47
1, 77580, Note_on_c, 0, 74, 0
1, 77581, Note_on_c, 0, 76, 47
1, 77640, Note_on_c, 0, 76, 0
1, 77641, Note_on_c, 0, 72, 47
1, 77700, Note_on_c, 0, 72, 0
1, 77701, Note_on_c, 0, 74, 47
1, 77760, Note_on_c, 0, 74, 0
1, 77761, Note_on_c, 0, 71, 47
1, 77820, Note_on_c, 0, 71, 0
1, 77821, Note_on_c, 0, 72, 47
1, 77880, Note_on_c, 0, 72, 0
1, 77881, Note_on_c, 0, 69, 47
1, 77940, Note_on_c, 0, 69, 0
1, 77941, Note_on_c, 0, 71, 47
1, 78000, Note_on_c, 0, 71, 0
1, 78001, Note_on_c, 0, 67, 81
1, 78002, Note_on_c, 3, 59, 51
1, 78002, Note_on_c, 4, 55, 55
1, 78060, Note_on_c, 3, 59, 0
1, 78060, Note_on_c, 4, 55, 0
1, 78122, Note_on_c, 3, 59, 51
1, 78122, Note_on_c, 4, 55, 55
1, 78180, Note_on_c, 0, 67, 0
1, 78180, Note_on_c, 3, 59, 0
1, 78180, Note_on_c, 4, 55, 0
1, 78181, Note_on_c, 0, 71, 81
1, 78210, Note_on_c, 0, 71, 0
1, 78211, Note_on_c, 0, 69, 81
1, 78240, Note_on_c, 0, 69, 0
1, 78241, Note_on_c, 0, 67, 81
1, 78242, Note_on_c, 3, 59, 51
1, 78242, Note_on_c, 4, 55, 55
1, 78300, Note_on_c, 3, 59, 0
1, 78300, Note_on_c, 4, 55, 0
1, 78360, Note_on_c, 0, 67, 0
1, 78362, Note_on_c, 3, 59, 51
1, 78362, Note_on_c, 4, 55, 55
1, 78420, Note_on_c, 3, 59, 0
1, 78420, Note_on_c, 4, 55, 0
1, 78482, Note_on_c, 3, 59, 51
1, 78482, Note_on_c, 4, 55, 55
1, 78540, Note_on_c, 3, 59, 0
1, 78540, Note_on_c, 4, 55, 0
1, 78602, Note_on_c, 0, 62, 81
1, 78602, Note_on_c, 3, 59, 51
1, 78602, Note_on_c, 4, 55, 55
1, 78660, Note_on_c, 0, 62, 0
1, 78660, Note_on_c, 3, 59, 0
1, 78660, Note_on_c, 4, 55, 0
1, 78722, Note_on_c, 0, 67, 81
1, 78722, Note_on_c, 3, 59, 51
1, 78722, Note_on_c, 4, 55, 55
1, 78780, Note_on_c, 0, 67, 0
1, 78780, Note_on_c, 3, 59, 0
1, 78780, Note_on_c, 4, 55, 0
1, 78842, Note_on_c, 0, 71, 81
1, 78842, Note_on_c, 3, 59, 51
1, 78842, Note_on_c, 4, 55, 55
1, 78900, Note_on_c, 0, 71, 0
1, 78900, Note_on_c, 3, 59, 0
1, 78900, Note_on_c, 4, 55, 0
1, 78962, Note_on_c, 0, 71, 81
1, 78962, Note_on_c, 3, 60, 51
1, 78962, Note_on_c, 4, 55, 55
1, 79020, Note_on_c, 0, 71, 0
1, 79021, Note_on_c, 0, 69, 81
1, 79080, Note_on_c, 0, 69, 0
1, 79081, Note_on_c, 0, 67, 81
1, 79140, Note_on_c, 0, 67, 0
1, 79141, Note_on_c, 0, 69, 63
1, 79200, Note_on_c, 0, 69, 0
1, 79200, Note_on_c, 3, 60, 0
1, 79200, Note_on_c, 4, 55, 0
1, 79201, Note_on_c, 0, 67, 63
1, 79201, Note_on_c, 3, 59, 47
1, 79201, Note_on_c, 4, 55, 39
1, 79320, Note_on_c, 0, 67, 0
1, 79320, Note_on_c, 3, 59, 0
1, 79320, Note_on_c, 4, 55, 0
1, 79321, Note_on_c, 0, 76, 47
1, 79380, Note_on_c, 0, 76, 0
1, 79442, Note_on_c, 0, 76, 47
1, 79442, Note_on_c, 1, 71, 31
1, 79442, Note_on_c, 2, 67, 31
1, 79500, Note_on_c, 0, 76, 0
1, 79500, Note_on_c, 1, 71, 0
1, 79500, Note_on_c, 2, 67, 0
1, 79562, Note_on_c, 0, 76, 47
1, 79562, Note_on_c, 1, 71, 31
1, 79562, Note_on_c, 2, 67, 31
1, 79620, Note_on_c, 0, 76, 0
1, 79620, Note_on_c, 1, 71, 0
1, 79620, Note_on_c, 2, 67, 0
1, 79682, Note_on_c, 0, 76, 63
1, 79682, Note_on_c, 1, 71, 47
1, 79682, Note_on_c, 2, 67, 47
1, 79740, Note_on_c, 0, 76, 0
1, 79740, Note_on_c, 1, 71, 0
1, 79740, Note_on_c, 2, 67, 0
1, 79802, Note_on_c, 0, 76, 63
1, 79802, Note_on_c, 1, 71, 47
1, 79802, Note_on_c, 2, 67, 47
1, 79860, Note_on_c, 0, 76, 0
1, 79860, Note_on_c, 1, 71, 0
1, 79860, Note_on_c, 2, 67, 0
1, 79922, Note_on_c, 0, 76, 63
1, 79922, Note_on_c, 1, 71, 47
1, 79922, Note_on_c, 2, 67, 47
1, 79980, Note_on_c, 1, 71, 0
1, 79980, Note_on_c, 2, 67, 0
1, 80042, Note_on_c, 1, 71, 47
1, 80042, Note_on_c, 2, 67, 47
1, 80100, Note_on_c, 0, 76, 0
1, 80100, Note_on_c, 1, 71, 0
1, 80100, Note_on_c, 2, 67, 0
1, 80101, Note_on_c, 0, 79, 63
1, 80130, Note_on_c, 0, 79, 0
1, 80131, Note_on_c, 0, 81, 63
1, 80160, Note_on_c, 0, 81, 0
1, 80161, Note_on_c, 0, 83, 81
1, 80162, Note_on_c, 1, 71, 63
1, 80162, Note_on_c, 2, 67, 63
1, 80220, Note_on_c, 1, 71, 0
1, 80220, Note_on_c, 2, 67, 0
1, 80282, Note_on_c, 1, 71, 63
1, 80282, Note_on_c, 2, 67, 63
1, 80340, Note_on_c, 0, 83, 0
1, 80340, Note_on_c, 1, 71, 0
1, 80340, Note_on_c, 2, 67, 0
1, 80341, Note_on_c, 0, 79, 81
1, 80370, Note_on_c, 0, 79, 0
1, 80371, Note_on_c, 0, 76, 81
1, 80400, Note_on_c, 0, 76, 0
1, 80401, Note_on_c, 0, 74, 81
1, 80402, Note_on_c, 1, 66, 63
1, 80402, Note_on_c, 3, 57, 39
1, 80460, Note_on_c, 1, 66, 0
1, 80460, Note_on_c, 3, 57, 0
1, 80522, Note_on_c, 1, 66, 63
1, 80522, Note_on_c, 3, 57, 39
1, 80580, Note_on_c, 1, 66, 0
1, 80580, Note_on_c, 3, 57, 0
1, 80640, Note_on_c, 0, 74, 0
1, 80641, Note_on_c, 0, 73, 81
1, 80642, Note_on_c, 1, 64, 63
1, 80642, Note_on_c, 3, 57, 39
1, 80688, Note_on_c, 0, 73, 0
1, 80689, Note_on_c, 0, 74, 81
1, 80700, Note_on_c, 1, 64, 0
1, 80700, Note_on_c, 3, 57, 0
1, 80736, Note_on_c, 0, 74, 0
1, 80737, Note_on_c, 0, 73, 81
1, 80762, Note_on_c, 1, 64, 63
1, 80762, Note_on_c, 3, 57, 39
1, 80784, Note_on_c, 0, 73, 0
1, 80785, Note_on_c, 0, 71, 81
1, 80820, Note_on_c, 1, 64, 0
1, 80820, Note_on_c, 3, 57, 0
1, 80832, Note_on_c, 0, 71, 0
1, 80833, Note_on_c, 0, 73, 81
1, 80880, Note_on_c, 0, 73, 0
1, 80881, Note_on_c, 0, 74, 63
1, 80882, Note_on_c, 1, 66, 63
1, 80882, Note_on_c, 3, 62, 39
1, 80940, Note_on_c, 0, 74, 0
1, 80940, Note_on_c, 1, 66, 0
1, 80940, Note_on_c, 3, 62, 0
1, 80941, Note_on_c, 0, 76, 63
1, 81000, Note_on_c, 0, 76, 0
1, 81001, Note_on_c, 0, 78, 63
1, 81002, Note_on_c, 1, 66, 63
1, 81002, Note_on_c, 3, 62, 39
1, 81060, Note_on_c, 0, 78, 0
1, 81060, Note_on_c, 1, 66, 0
1, 81060, Note_on_c, 3, 62, 0
1, 81061, Note_on_c, 0, 79, 63
1, 81120, Note_on_c, 0, 79, 0
1, 81121, Note_on_c, 0, 81, 63
1, 81122, Note_on_c, 1, 66, 63
1, 81122, Note_on_c, 3, 62, 39
1, 81180, Note_on_c, 0, 81, 0
1, 81180, Note_on_c, 1, 66, 0
1, 81180, Note_on_c, 3, 62, 0
1, 81181, Note_on_c, 0, 78, 63
1, 81240, Note_on_c, 0, 78, 0
1, 81241, Note_on_c, 0, 76, 63
1, 81242, Note_on_c, 1, 66, 63
1, 81242, Note_on_c, 3, 62, 39
1, 81300, Note_on_c, 0, 76, 0
1, 81300, Note_on_c, 1, 66, 0
1, 81300, Note_on_c, 3, 62, 0
1, 81301, Note_on_c, 0, 74, 63
1, 81360, Note_on_c, 0, 74, 0
1, 81361, Note_on_c, 0, 73, 63
1, 81362, Note_on_c, 1, 67, 63
1, 81362, Note_on_c, 3, 62, 39
1, 81420, Note_on_c, 0, 73, 0
1, 81420, Note_on_c, 1, 67, 0
1, 81420, Note_on_c, 3, 62, 0
1, 81421, Note_on_c, 0, 74, 63
1, 81480, Note_on_c, 0, 74, 0
1, 81481, Note_on_c, 0, 76, 63
1, 81482, Note_on_c, 1, 67, 63
1, 81482, Note_on_c, 3, 62, 39
1, 81540, Note_on_c, 0, 76, 0
1, 81540, Note_on_c, 1, 67, 0
1, 81540, Note_on_c, 3, 62, 0
1, 81541, Note_on_c, 0, 78, 63
1, 81600, Note_on_c, 0, 78, 0
1, 81601, Note_on_c, 0, 79, 63
1, 81602, Note_on_c, 1, 67, 63
1, 81602, Note_on_c, 3, 62, 39
1, 81660, Note_on_c, 0, 79, 0
1, 81660, Note_on_c, 1, 67, 0
1, 81660, Note_on_c, 3, 62, 0
1, 81661, Note_on_c, 0, 76, 63
1, 81720, Note_on_c, 0, 76, 0
1, 81721, Note_on_c, 0, 74, 63
1, 81722, Note_on_c, 1, 67, 63
1, 81722, Note_on_c, 3, 62, 39
1, 81780, Note_on_c, 0, 74, 0
1, 81780, Note_on_c, 1, 67, 0
1, 81780, Note_on_c, 3, 62, 0
1, 81781, Note_on_c, 0, 73, 63
1, 81840, Note_on_c, 0, 73, 0
1, 81841, Note_on_c, 0, 74, 63
1, 81842, Note_on_c, 1, 66, 63
1, 81842, Note_on_c, 3, 62, 39
1, 81900, Note_on_c, 0, 74, 0
1, 81900, Note_on_c, 1, 66, 0
1, 81900, Note_on_c, 3, 62, 0
1, 81901, Note_on_c, 0, 76, 63
1, 81960, Note_on_c, 0, 76, 0
1, 81961, Note_on_c, 0, 78, 63
1, 81962, Note_on_c, 1, 66, 63
1, 81962, Note_on_c, 3, 62, 39
1, 82020, Note_on_c, 0, 78, 0
1, 82020, Note_on_c, 1, 66, 0
1, 82020, Note_on_c, 3, 62, 0
1, 82021, Note_on_c, 0, 79, 63
1, 82080, Note_on_c, 0, 79, 0
1, 82081, Note_on_c, 0, 81, 63
1, 82082, Note_on_c, 1, 66, 63
1, 82082, Note_on_c, 3, 62, 39
1, 82140, Note_on_c, 0, 81, 0
1, 82140, Note_on_c, 1, 66, 0
1, 82140, Note_on_c, 3, 62, 0
1, 82141, Note_on_c, 0, 78, 63
1, 82200, Note_on_c, 0, 78, 0
1, 82201, Note_on_c, 0, 76, 63
1, 82202, Note_on_c, 1, 66, 63
1, 82202, Note_on_c, 3, 62, 39
1, 82260, Note_on_c, 0, 76, 0
1, 82260, Note_on_c, 1, 66, 0
1, 82260, Note_on_c, 3, 62, 0
1, 82261, Note_on_c, 0, 74, 63
1, 82320, Note_on_c, 0, 74, 0
1, 82321, Note_on_c, 0, 73, 63
1, 82322, Note_on_c, 1, 67, 63
1, 82322, Note_on_c, 3, 62, 39
1, 82380, Note_on_c, 0, 73, 0
1, 82380, Note_on_c, 1, 67, 0
1, 82380, Note_on_c, 3, 62, 0
1, 82381, Note_on_c, 0, 74, 63
1, 82440, Note_on_c, 0, 74, 0
1, 82441, Note_on_c, 0, 76, 63
1, 82442, Note_on_c, 1, 67, 63
1, 82442, Note_on_c, 3, 62, 39
1, 82500, Note_on_c, 0, 76, 0
1, 82500, Note_on_c, 1, 67, 0
1, 82500, Note_on_c, 3, 62, 0
1, 82501, Note_on_c, 0, 78, 63
1, 82560, Note_on_c, 0, 78, 0
1, 82561, Note_on_c, 0, 79, 81
1, 82562, Note_on_c, 1, 67, 63
1, 82562, Note_on_c, 3, 62, 39
1, 82620, Note_on_c, 0, 79, 0
1, 82620, Note_on_c, 1, 67, 0
1, 82620, Note_on_c, 3, 62, 0
1, 82621, Note_on_c, 0, 76, 81
1, 82680, Note_on_c, 0, 76, 0
1, 82681, Note_on_c, 0, 74, 81
1, 82682, Note_on_c, 1, 67, 63
1, 82682, Note_on_c, 3, 62, 39
1, 82740, Note_on_c, 0, 74, 0
1, 82740, Note_on_c, 1, 67, 0
1, 82740, Note_on_c, 3, 62, 0
1, 82741, Note_on_c, 0, 73, 81
1, 82800, Note_on_c, 0, 73, 0
1, 82801, Note_on_c, 0, 74, 81
1, 82802, Note_on_c, 1, 66, 81
1, 82802, Note_on_c, 3, 62, 81
1, 83040, Note_on_c, 0, 74, 0
1, 83040, Note_on_c, 1, 66, 0
1, 83040, Note_on_c, 3, 62, 0
1, 83041, Note_on_c, 0, 85, 81
1, 83070, Note_on_c, 0, 85, 0
1, 83071, Note_on_c, 0, 86, 81
1, 83280, Note_on_c, 0, 86, 0
1, 83282, Note_on_c, 3, 50, 63
1, 83282, Note_on_c, 4, 38, 63
1, 83400, Note_on_c, 3, 50, 0
1, 83400, Note_on_c, 4, 38, 0
1, 83762, Note_on_c, 0, 77, 81
1, 83762, Note_on_c, 3, 62, 63
1, 83762, Note_on_c, 4, 59, 63
1, 83940, Note_on_c, 0, 77, 0
1, 83941, Note_on_c, 0, 74, 81
1, 83970, Note_on_c, 0, 74, 0
1, 83971, Note_on_c, 0, 75, 81
1, 84000, Note_on_c, 0, 75, 0
1, 84000, Note_on_c, 3, 62, 0
1, 84000, Note_on_c, 4, 59, 0
1, 84001, Note_on_c, 0, 77, 81
1, 84120, Note_on_c, 0, 77, 0
1, 84122, Note_on_c, 3, 62, 63
1, 84122, Note_on_c, 4, 59, 63
1, 84240, Note_on_c, 3, 62, 0
1, 84240, Note_on_c, 4, 59, 0
1, 84241, Note_on_c, 3, 63, 63
1, 84241, Note_on_c, 4, 60, 63
1, 84362, Note_on_c, 0, 69, 81
1, 84420, Note_on_c, 0, 69, 0
1, 84480, Note_on_c, 3, 63, 0
1, 84480, Note_on_c, 4, 60, 0
1, 84482, Note_on_c, 0, 69, 81
1, 84540, Note_on_c, 0, 69, 0
1, 84602, Note_on_c, 0, 69, 81
1, 84602, Note_on_c, 3, 63, 63
1, 84602, Note_on_c, 4, 60, 63
1, 84660, Note_on_c, 0, 69, 0
1, 84720, Note_on_c, 3, 63, 0
1, 84720, Note_on_c, 4, 60, 0
1, 84721, Note_on_c, 3, 65, 63
1, 84721, Note_on_c, 4, 62, 63
1, 84722, Note_on_c, 0, 70, 81
1, 84900, Note_on_c, 0, 70, 0
1, 84901, Note_on_c, 0, 70, 81
1, 84930, Note_on_c, 0, 70, 0
1, 84931, Note_on_c, 0, 72, 81
1, 84960, Note_on_c, 0, 72, 0
1, 84960, Note_on_c, 3, 65, 0
1, 84960, Note_on_c, 4, 62, 0
1, 84961, Note_on_c, 0, 74, 81
1, 85080, Note_on_c, 0, 74, 0
1, 85082, Note_on_c, 3, 62, 63
1, 85082, Note_on_c, 4, 58, 63
1, 85200, Note_on_c, 3, 62, 0
1, 85200, Note_on_c, 4, 58, 0
1, 85201, Note_on_c, 3, 60, 63
1, 85201, Note_on_c, 4, 57, 63
1, 85322, Note_on_c, 0, 66, 81
1, 85380, Note_on_c, 0, 66, 0
1, 85440, Note_on_c, 3, 60, 0
1, 85440, Note_on_c, 4, 57, 0
1, 85442, Note_on_c, 0, 66, 81
1, 85500, Note_on_c, 0, 66, 0
1, 85562, Note_on_c, 0, 66, 81
1, 85562, Note_on_c, 3, 60, 63
1, 85562, Note_on_c, 4, 57, 63
1, 85620, Note_on_c, 0, 66, 0
1, 85680, Note_on_c, 3, 60, 0
1, 85680, Note_on_c, 4, 57, 0
1, 85681, Note_on_c, 3, 62, 63
1, 85681, Note_on_c, 4, 58, 63
1, 85682, Note_on_c, 0, 67, 81
1, 85860, Note_on_c, 0, 67, 0
1, 85861, Note_on_c, 0, 67, 81
1, 85890, Note_on_c, 0, 67, 0
1, 85891, Note_on_c, 0, 69, 81
1, 85920, Note_on_c, 0, 69, 0
1, 85920, Note_on_c, 3, 62, 0
1, 85920, Note_on_c, 4, 58, 0
1, 85921, Note_on_c, 0, 70, 81
1, 86040, Note_on_c, 0, 70, 0
1, 86042, Note_on_c, 3, 58, 63
1, 86042, Note_on_c, 4, 55, 63
1, 86160, Note_on_c, 3, 58, 0
1, 86160, Note_on_c, 4, 55, 0
1, 86161, Note_on_c, 3, 55, 63
1, 86161, Note_on_c, 4, 51, 63
1, 86282, Note_on_c, 0, 61, 81
1, 86340, Note_on_c, 0, 61, 0
1, 86400, Note_on_c, 3, 55, 0
1, 86400, Note_on_c, 4, 51, 0
1, 86402, Note_on_c, 0, 61, 81
1, 86460, Note_on_c, 0, 61, 0
1, 86522, Note_on_c, 0, 61, 81
1, 86522, Note_on_c, 3, 55, 63
1, 86522, Note_on_c, 4, 51, 63
1, 86580, Note_on_c, 0, 61, 0
1, 86640, Note_on_c, 3, 55, 0
1, 86640, Note_on_c, 4, 51, 0
1, 86641, Note_on_c, 3, 54, 63
1, 86641, Note_on_c, 4, 50, 63
1, 86642, Note_on_c, 0, 62, 81
1, 86820, Note_on_c, 0, 62, 0
1, 86820, Note_on_c, 3, 54, 0
1, 86820, Note_on_c, 4, 50, 0
1, 86821, Note_on_c, 3, 54, 63
1, 86821, Note_on_c, 4, 42, 63
1, 86850, Note_on_c, 3, 54, 0
1, 86850, Note_on_c, 4, 42, 0
1, 86851, Note_on_c, 3, 55, 63
1, 86851, Note_on_c, 4, 43, 63
1, 86880, Note_on_c, 3, 55, 0
1, 86880, Note_on_c, 4, 43, 0
1, 86881, Note_on_c, 3, 57, 63
1, 86881, Note_on_c, 4, 45, 63
1, 86940, Note_on_c, 3, 57, 0
1, 86940, Note_on_c, 4, 45, 0
1, 87002, Note_on_c, 3, 54, 63
1, 87002, Note_on_c, 4, 42, 63
1, 87060, Note_on_c, 3, 54, 0
1, 87060, Note_on_c, 4, 42, 0
1, 87122, Note_on_c, 3, 50, 63
1, 87122, Note_on_c, 4, 38, 63
1, 87360, Note_on_c, 3, 50, 0
1, 87360, Note_on_c, 4, 38, 0
1, 87602, Note_on_c, 0, 67, 63
1, 87602, Note_on_c, 3, 59, 47
1, 87602, Note_on_c, 4, 55, 47
1, 87660, Note_on_c, 3, 59, 0
1, 87660, Note_on_c, 4, 55, 0
1, 87722, Note_on_c, 3, 59, 47
1, 87722, Note_on_c, 4, 55, 47
1, 87780, Note_on_c, 0, 67, 0
1, 87780, Note_on_c, 3, 59, 0
1, 87780, Note_on_c, 4, 55, 0
1, 87781, Note_on_c, 0, 71, 63
1, 87810, Note_on_c, 0, 71, 0
1, 87811, Note_on_c, 0, 69, 63
1, 87840, Note_on_c, 0, 69, 0
1, 87841, Note_on_c, 0, 67, 63
1, 87842, Note_on_c, 3, 59, 47
1, 87842, Note_on_c, 4, 55, 47
1, 87900, Note_on_c, 3, 59, 0
1, 87900, Note_on_c, 4, 55, 0
1, 87960, Note_on_c, 0, 67, 0
1, 87962, Note_on_c, 3, 59, 47
1, 87962, Note_on_c, 4, 55, 47
1, 88020, Note_on_c, 3, 59, 0
1, 88020, Note_on_c, 4, 55, 0
1, 88082, Note_on_c, 3, 59, 47
1, 88082, Note_on_c, 4, 55, 47
1, 88140, Note_on_c, 3, 59, 0
1, 88140, Note_on_c, 4, 55, 0
1, 88202, Note_on_c, 0, 62, 63
1, 88202, Note_on_c, 3, 59, 47
1, 88202, Note_on_c, 4, 55, 47
1, 88260, Note_on_c, 0, 62, 0
1, 88260, Note_on_c, 3, 59, 0
1, 88260, Note_on_c, 4, 55, 0
1, 88322, Note_on_c, 0, 67, 63
1, 88322, Note_on_c, 3, 59, 47
1, 88322, Note_on_c, 4, 55, 47
1, 88380, Note_on_c, 0, 67, 0
1, 88380, Note_on_c, 3, 59, 0
1, 88380, Note_on_c, 4, 55, 0
1, 88442, Note_on_c, 0, 71, 63
1, 88442, Note_on_c, 3, 59, 47
1, 88442, Note_on_c, 4, 55, 47
1, 88500, Note_on_c, 0, 71, 0
1, 88500, Note_on_c, 3, 59, 0
1, 88500, Note_on_c, 4, 55, 0
1, 88562, Note_on_c, 0, 71, 63
1, 88562, Note_on_c, 3, 60, 47
1, 88562, Note_on_c, 4, 55, 47
1, 88620, Note_on_c, 0, 71, 0
1, 88621, Note_on_c, 0, 69, 63
1, 88680, Note_on_c, 0, 69, 0
1, 88681, Note_on_c, 0, 67, 47
1, 88740, Note_on_c, 0, 67, 0
1, 88741, Note_on_c, 0, 69, 47
1, 88800, Note_on_c, 0, 69, 0
1, 88800, Note_on_c, 3, 60, 0
1, 88800, Note_on_c, 4, 55, 0
1, 88801, Note_on_c, 0, 67, 47
1, 88801, Note_on_c, 3, 59, 31
1, 88801, Note_on_c, 4, 55, 31
1, 88920, Note_on_c, 0, 67, 0
1, 88920, Note_on_c, 3, 59, 0
1, 88920, Note_on_c, 4, 55, 0
1, 88921, Note_on_c, 0, 76, 31
1, 88980, Note_on_c, 0, 76, 0
1, 89042, Note_on_c, 0, 76, 31
1, 89042, Note_on_c, 1, 74, 31
1, 89042, Note_on_c, 2, 68, 31
1, 89100, Note_on_c, 0, 76, 0
1, 89100, Note_on_c, 1, 74, 0
1, 89100, Note_on_c, 2, 68, 0
1, 89162, Note_on_c, 0, 76, 31
1, 89162, Note_on_c, 1, 74, 31
1, 89162, Note_on_c, 2, 68, 31
1, 89220, Note_on_c, 0, 76, 0
1, 89220, Note_on_c, 1, 74, 0
1, 89220, Note_on_c, 2, 68, 0
1, 89282, Note_on_c, 0, 76, 31
1, 89282, Note_on_c, 1, 74, 31
1, 89282, Note_on_c, 2, 68, 31
1, 89340, Note_on_c, 0, 76, 0
1, 89340, Note_on_c, 1, 74, 0
1, 89340, Note_on_c, 2, 68, 0
1, 89402, Note_on_c, 0, 76, 31
1, 89402, Note_on_c, 1, 74, 31
1, 89402, Note_on_c, 2, 68, 31
1, 89460, Note_on_c, 0, 76, 0
1, 89460, Note_on_c, 1, 74, 0
1, 89460, Note_on_c, 2, 68, 0
1, 89522, Note_on_c, 0, 76, 31
1, 89522, Note_on_c, 1, 72, 31
1, 89522, Note_on_c, 2, 69, 31
1, 89700, Note_on_c, 0, 76, 0
1, 89701, Note_on_c, 0, 81, 31
1, 89730, Note_on_c, 0, 81, 0
1, 89731, Note_on_c, 0, 83, 31
1, 89760, Note_on_c, 0, 83, 0
1, 89760, Note_on_c, 1, 72, 0
1, 89760, Note_on_c, 2, 69, 0
1, 89761, Note_on_c, 0, 84, 31
1, 89820, Note_on_c, 0, 84, 0
1, 89882, Note_on_c, 0, 74, 31
1, 89940, Note_on_c, 0, 74, 0
1, 90002, Note_on_c, 0, 74, 31
1, 90002, Note_on_c, 1, 72, 31
1, 90002, Note_on_c, 2, 66, 31
1, 90060, Note_on_c, 0, 74, 0
1, 90060, Note_on_c, 1, 72, 0
1, 90060, Note_on_c, 2, 66, 0
1, 90122, Note_on_c, 0, 74, 31
1, 90122, Note_on_c, 1, 72, 31
1, 90122, Note_on_c, 2, 66, 31
1, 90180, Note_on_c, 0, 74, 0
1, 90180, Note_on_c, 1, 72, 0
1, 90180, Note_on_c, 2, 66, 0
1, 90242, Note_on_c, 0, 74, 31
1, 90242, Note_on_c, 1, 72, 31
1, 90242, Note_on_c, 2, 66, 31
1, 90300, Note_on_c, 0, 74, 0
1, 90300, Note_on_c, 1, 72, 0
1, 90300, Note_on_c, 2, 66, 0
1, 90362, Note_on_c, 0, 74, 19
1, 90362, Note_on_c, 1, 72, 19
1, 90362, Note_on_c, 2, 66, 19
1, 90420, Note_on_c, 0, 74, 0
1, 90420, Note_on_c, 1, 72, 0
1, 90420, Note_on_c, 2, 66, 0
1, 90482, Note_on_c, 0, 74, 19
1, 90482, Note_on_c, 1, 71, 19
1, 90482, Note_on_c, 2, 67, 19
1, 90660, Note_on_c, 0, 74, 0
1, 90661, Note_on_c, 0, 79, 19
1, 90690, Note_on_c, 0, 79, 0
1, 90691, Note_on_c, 0, 81, 19
1, 90720, Note_on_c, 0, 81, 0
1, 90720, Note_on_c, 1, 71, 0
1, 90720, Note_on_c, 2, 67, 0
1, 90721, Note_on_c, 0, 83, 19
1, 90780, Note_on_c, 0, 83, 0
1, 91862, Note_on_c, 0, 83, 31
1, 91890, Note_on_c, 0, 83, 0
1, 91891, Note_on_c, 0, 81, 31
1, 91920, Note_on_c, 0, 81, 0
1, 91921, Note_on_c, 0, 79, 31
1, 92040, Note_on_c, 0, 79, 0
1, 92102, Note_on_c, 0, 79, 31
1, 92130, Note_on_c, 0, 79, 0
1, 92131, Note_on_c, 0, 78, 31
1, 92160, Note_on_c, 0, 78, 0
1, 92161, Note_on_c, 0, 76, 31
1, 92280, Note_on_c, 0, 76, 0
1, 92342, Note_on_c, 0, 76, 31
1, 92370, Note_on_c, 0, 76, 0
1, 92371, Note_on_c, 0, 74, 31
1, 92400, Note_on_c, 0, 74, 0
1, 92401, Note_on_c, 0, 72, 31
1, 92402, Note_on_c, 1, 67, 31
1, 92402, Note_on_c, 2, 64, 29
1, 92640, Note_on_c, 0, 72, 0
1, 92640, Note_on_c, 1, 67, 0
1, 92640, Note_on_c, 2, 64, 0
1, 92822, Note_on_c, 0, 75, 31
1, 92822, Note_on_c, 1, 67, 29
1, 92850, Note_on_c, 0, 75, 0
1, 92850, Note_on_c, 1, 67, 0
1, 92851, Note_on_c, 0, 74, 31
1, 92851, Note_on_c, 1, 65, 29
1, 92880, Note_on_c, 0, 74, 0
1, 92880, Note_on_c, 1, 65, 0
1, 92881, Note_on_c, 0, 72, 31
1, 92881, Note_on_c, 1, 63, 29
1, 93000, Note_on_c, 0, 72, 0
1, 93001, Note_on_c, 0, 72, 31
1, 93060, Note_on_c, 0, 72, 0
1, 93120, Note_on_c, 1, 63, 0
1, 93122, Note_on_c, 0, 72, 31
1, 93180, Note_on_c, 0, 72, 0
1, 93242, Note_on_c, 0, 72, 31
1, 93300, Note_on_c, 0, 72, 0
1, 93302, Note_on_c, 1, 69, 47
1, 93330, Note_on_c, 1, 69, 0
1, 93331, Note_on_c, 1, 67, 47
1, 93360, Note_on_c, 1, 67, 0
1, 93361, Note_on_c, 1, 66, 47
1, 93362, Note_on_c, 0, 72, 47
1, 93362, Note_on_c, 2, 62, 47
1, 93540, Note_on_c, 0, 72, 0
1, 93541, Note_on_c, 0, 74, 31
1, 93570, Note_on_c, 0, 74, 0
1, 93571, Note_on_c, 0, 72, 31
1, 93600, Note_on_c, 0, 72, 0
1, 93600, Note_on_c, 1, 66, 0
1, 93600, Note_on_c, 2, 62, 0
1, 93601, Note_on_c, 0, 71, 31
1, 93601, Note_on_c, 1, 67, 31
1, 93601, Note_on_c, 2, 64, 31
1, 93720, Note_on_c, 0, 71, 0
1, 93721, Note_on_c, 0, 71, 31
1, 93780, Note_on_c, 0, 71, 0
1, 93840, Note_on_c, 1, 67, 0
1, 93840, Note_on_c, 2, 64, 0
1, 93841, Note_on_c, 1, 64, 31
1, 93841, Note_on_c, 2, 60, 31
1, 93842, Note_on_c, 0, 69, 31
1, 93960, Note_on_c, 0, 69, 0
1, 93961, Note_on_c, 0, 76, 31
1, 94080, Note_on_c, 0, 76, 0
1, 94080, Note_on_c, 1, 64, 0
1, 94080, Note_on_c, 2, 60, 0
1, 94081, Note_on_c, 0, 74, 31
1, 94081, Note_on_c, 1, 62, 31
1, 94200, Note_on_c, 0, 74, 0
1, 94201, Note_on_c, 0, 66, 31
1, 94260, Note_on_c, 0, 66, 0
1, 94320, Note_on_c, 1, 62, 0
1, 94322, Note_on_c, 0, 67, 81
1, 94322, Note_on_c, 3, 59, 51
1, 94322, Note_on_c, 4, 55, 51
1, 94380, Note_on_c, 0, 67, 0
1, 94380, Note_on_c, 3, 59, 0
1, 94380, Note_on_c, 4, 55, 0
1, 94381, Note_on_c, 0, 69, 81
1, 94440, Note_on_c, 0, 69, 0
1, 94441, Note_on_c, 0, 71, 81
1, 94442, Note_on_c, 3, 59, 51
1, 94442, Note_on_c, 4, 55, 51
1, 94500, Note_on_c, 0, 71, 0
1, 94500, Note_on_c, 3, 59, 0
1, 94500, Note_on_c, 4, 55, 0
1, 94501, Note_on_c, 0, 72, 81
1, 94560, Note_on_c, 0, 72, 0
1, 94561, Note_on_c, 0, 74, 81
1, 94562, Note_on_c, 3, 59, 51
1, 94562, Note_on_c, 4, 55, 51
1, 94620, Note_on_c, 0, 74, 0
1, 94620, Note_on_c, 3, 59, 0
1, 94620, Note_on_c, 4, 55, 0
1, 94621, Note_on_c, 0, 71, 81
1, 94680, Note_on_c, 0, 71, 0
1, 94681, Note_on_c, 0, 69, 81
1, 94682, Note_on_c, 3, 59, 51
1, 94682, Note_on_c, 4, 55, 51
1, 94740, Note_on_c, 0, 69, 0
1, 94740, Note_on_c, 3, 59, 0
1, 94740, Note_on_c, 4, 55, 0
1, 94741, Note_on_c, 0, 67, 81
1, 94800, Note_on_c, 0, 67, 0
1, 94801, Note_on_c, 0, 66, 81
1, 94802, Note_on_c, 3, 60, 51
1, 94802, Note_on_c, 4, 55, 51
1, 94860, Note_on_c, 0, 66, 0
1, 94860, Note_on_c, 3, 60, 0
1, 94860, Note_on_c, 4, 55, 0
1, 94861, Note_on_c, 0, 67, 81
1, 94920, Note_on_c, 0, 67, 0
1, 94921, Note_on_c, 0, 69, 81
1, 94922, Note_on_c, 3, 60, 51
1, 94922, Note_on_c, 4, 55, 51
1, 94980, Note_on_c, 0, 69, 0
1, 94980, Note_on_c, 3, 60, 0
1, 94980, Note_on_c, 4, 55, 0
1, 94981, Note_on_c, 0, 71, 81
1, 95040, Note_on_c, 0, 71, 0
1, 95041, Note_on_c, 0, 72, 81
1, 95042, Note_on_c, 3, 60, 51
1, 95042, Note_on_c, 4, 55, 51
1, 95100, Note_on_c, 0, 72, 0
1, 95100, Note_on_c, 3, 60, 0
1, 95100, Note_on_c, 4, 55, 0
1, 95101, Note_on_c, 0, 69, 81
1, 95160, Note_on_c, 0, 69, 0
1, 95161, Note_on_c, 0, 67, 81
1, 95162, Note_on_c, 3, 60, 51
1, 95162, Note_on_c, 4, 55, 51
1, 95220, Note_on_c, 0, 67, 0
1, 95220, Note_on_c, 3, 60, 0
1, 95220, Note_on_c, 4, 55, 0
1, 95221, Note_on_c, 0, 66, 81
1, 95280, Note_on_c, 0, 66, 0
1, 95281, Note_on_c, 0, 67, 63
1, 95282, Note_on_c, 3, 59, 35
1, 95282, Note_on_c, 4, 55, 39
1, 95340, Note_on_c, 0, 67, 0
1, 95340, Note_on_c, 3, 59, 0
1, 95340, Note_on_c, 4, 55, 0
1, 95341, Note_on_c, 0, 69, 63
1, 95400, Note_on_c, 0, 69, 0
1, 95401, Note_on_c, 0, 71, 63
1, 95402, Note_on_c, 3, 59, 35
1, 95402, Note_on_c, 4, 55, 39
1, 95460, Note_on_c, 0, 71, 0
1, 95460, Note_on_c, 3, 59, 0
1, 95460, Note_on_c, 4, 55, 0
1, 95461, Note_on_c, 0, 72, 63
1, 95520, Note_on_c, 0, 72, 0
1, 95521, Note_on_c, 0, 74, 63
1, 95522, Note_on_c, 3, 59, 50
1, 95522, Note_on_c, 4, 55, 50
1, 95580, Note_on_c, 0, 74, 0
1, 95580, Note_on_c, 3, 59, 0
1, 95580, Note_on_c, 4, 55, 0
1, 95581, Note_on_c, 0, 71, 63
1, 95640, Note_on_c, 0, 71, 0
1, 95641, Note_on_c, 0, 69, 63
1, 95642, Note_on_c, 3, 59, 48
1, 95642, Note_on_c, 4, 55, 48
1, 95700, Note_on_c, 0, 69, 0
1, 95700, Note_on_c, 3, 59, 0
1, 95700, Note_on_c, 4, 55, 0
1, 95701, Note_on_c, 0, 67, 63
1, 95760, Note_on_c, 0, 67, 0
1, 95761, Note_on_c, 0, 66, 63
1, 95762, Note_on_c, 3, 60, 35
1, 95762, Note_on_c, 4, 55, 39
1, 95820, Note_on_c, 0, 66, 0
1, 95820, Note_on_c, 3, 60, 0
1, 95820, Note_on_c, 4, 55, 0
1, 95821, Note_on_c, 0, 67, 63
1, 95880, Note_on_c, 0, 67, 0
1, 95881, Note_on_c, 0, 69, 63
1, 95882, Note_on_c, 3, 60, 35
1, 95882, Note_on_c, 4, 55, 39
1, 95940, Note_on_c, 0, 69, 0
1, 95940, Note_on_c, 3, 60, 0
1, 95940, Note_on_c, 4, 55, 0
1, 95941, Note_on_c, 0, 71, 63
1, 96000, Note_on_c, 0, 71, 0
1, 96001, Note_on_c, 0, 72, 63
1, 96002, Note_on_c, 3, 60, 50
1, 96002, Note_on_c, 4, 55, 50
1, 96060, Note_on_c, 0, 72, 0
1, 96060, Note_on_c, 3, 60, 0
1, 96060, Note_on_c, 4, 55, 0
1, 96061, Note_on_c, 0, 69, 63
1, 96120, Note_on_c, 0, 69, 0
1, 96121, Note_on_c, 0, 67, 63
1, 96122, Note_on_c, 3, 60, 50
1, 96122, Note_on_c, 4, 55, 50
1, 96180, Note_on_c, 0, 67, 0
1, 96180, Note_on_c, 3, 60, 0
1, 96180, Note_on_c, 4, 55, 0
1, 96181, Note_on_c, 0, 66, 63
1, 96240, Note_on_c, 0, 66, 0
1, 96241, Note_on_c, 0, 67, 63
1, 96242, Note_on_c, 3, 59, 50
1, 96242, Note_on_c, 4, 47, 50
1, 96480, Note_on_c, 0, 67, 0
1, 96480, Note_on_c, 3, 59, 0
1, 96480, Note_on_c, 4, 47, 0
1, 96481, Note_on_c, 0, 78, 81
1, 96510, Note_on_c, 0, 78, 0
1, 96511, Note_on_c, 0, 79, 81
1, 96600, Note_on_c, 0, 79, 0
1, 96722, Note_on_c, 3, 43, 63
1, 96722, Note_on_c, 4, 31, 63
1, 96840, Note_on_c, 3, 43, 0
1, 96840, Note_on_c, 4, 31, 0
1, 97202, Note_on_c, 3, 52, 63
1, 97202, Note_on_c, 4, 40, 63
1, 97322, Note_on_c, 0, 64, 81
1, 97380, Note_on_c, 0, 64, 0
1, 97440, Note_on_c, 3, 52, 0
1, 97440, Note_on_c, 4, 40, 0
1, 97442, Note_on_c, 0, 76, 81
1, 97562, Note_on_c, 1, 71, 63
1, 97562, Note_on_c, 2, 67, 63
1, 97680, Note_on_c, 1, 71, 0
1, 97680, Note_on_c, 2, 67, 0
1, 97681, Note_on_c, 1, 69, 63
1, 97681, Note_on_c, 2, 66, 63
1, 97800, Note_on_c, 0, 76, 0
1, 97801, Note_on_c, 0, 75, 81
1, 97920, Note_on_c, 0, 75, 0
1, 97921, Note_on_c, 0, 78, 81
1, 98040, Note_on_c, 1, 69, 0
1, 98040, Note_on_c, 2, 66, 0
1, 98041, Note_on_c, 1, 72, 63
1, 98041, Note_on_c, 2, 69, 63
1, 98160, Note_on_c, 1, 72, 0
1, 98160, Note_on_c, 2, 69, 0
1, 98161, Note_on_c, 1, 71, 63
1, 98161, Note_on_c, 2, 67, 63
1, 98280, Note_on_c, 0, 78, 0
1, 98281, Note_on_c, 0, 76, 81
1, 98400, Note_on_c, 0, 76, 0
1, 98401, Note_on_c, 0, 79, 81
1, 98520, Note_on_c, 1, 71, 0
1, 98520, Note_on_c, 2, 67, 0
1, 98521, Note_on_c, 1, 70, 63
1, 98521, Note_on_c, 2, 64, 63
1, 98640, Note_on_c, 1, 70, 0
1, 98640, Note_on_c, 2, 64, 0
1, 98641, Note_on_c, 1, 71, 63
1, 98641, Note_on_c, 2, 62, 63
1, 98760, Note_on_c, 0, 79, 0
1, 98761, Note_on_c, 0, 78, 81
1, 98880, Note_on_c, 0, 78, 0
1, 98881, Note_on_c, 0, 83, 81
1, 99000, Note_on_c, 1, 71, 0
1, 99000, Note_on_c, 2, 62, 0
1, 99001, Note_on_c, 1, 66, 63
1, 99001, Note_on_c, 2, 62, 63
1, 99120, Note_on_c, 1, 66, 0
1, 99120, Note_on_c, 2, 62, 0
1, 99121, Note_on_c, 2, 64, 63
1, 99122, Note_on_c, 3, 61, 63
1, 99240, Note_on_c, 0, 83, 0
1, 99241, Note_on_c, 0, 82, 81
1, 99360, Note_on_c, 0, 82, 0
1, 99361, Note_on_c, 0, 88, 81
1, 99362, Note_on_c, 1, 85, 63
1, 99480, Note_on_c, 2, 64, 0
1, 99480, Note_on_c, 3, 61, 0
1, 99481, Note_on_c, 2, 58, 63
1, 99600, Note_on_c, 0, 88, 0
1, 99600, Note_on_c, 1, 85, 0
1, 99600, Note_on_c, 2, 58, 0
1, 99601, Note_on_c, 0, 86, 81
1, 99601, Note_on_c, 1, 83, 63
1, 99601, Note_on_c, 2, 59, 63
1, 99840, Note_on_c, 2, 59, 0
1, 99841, Note_on_c, 2, 64, 63
1, 99960, Note_on_c, 0, 86, 0
1, 99960, Note_on_c, 1, 83, 0
1, 99961, Note_on_c, 0, 85, 63
1, 99961, Note_on_c, 1, 76, 50
1, 100080, Note_on_c, 2, 64, 0
1, 100081, Note_on_c, 2, 66, 50
1, 100200, Note_on_c, 0, 85, 0
1, 100200, Note_on_c, 1, 76, 0
1, 100201, Note_on_c, 0, 83, 47
1, 100201, Note_on_c, 1, 74, 31
1, 100320, Note_on_c, 2, 66, 0
1, 100321, Note_on_c, 2, 66, 63
1, 100440, Note_on_c, 0, 83, 0
1, 100440, Note_on_c, 1, 74, 0
1, 100441, Note_on_c, 0, 82, 47
1, 100441, Note_on_c, 1, 73, 36
1, 100560, Note_on_c, 0, 82, 0
1, 100560, Note_on_c, 1, 73, 0
1, 100560, Note_on_c, 2, 66, 0
1, 100561, Note_on_c, 2, 59, 63
1, 100682, Note_on_c, 0, 71, 36
1, 100800, Note_on_c, 0, 71, 0
1, 100800, Note_on_c, 2, 59, 0
1, 100801, Note_on_c, 0, 83, 36
1, 100920, Note_on_c, 0, 83, 0
1, 100922, Note_on_c, 3, 51, 31
1, 100922, Note_on_c, 4, 39, 31
1, 101040, Note_on_c, 3, 51, 0
1, 101040, Note_on_c, 4, 39, 0
1, 101041, Note_on_c, 3, 52, 31
1, 101041, Note_on_c, 4, 40, 31
1, 101162, Note_on_c, 0, 64, 81
1, 101220, Note_on_c, 0, 64, 0
1, 101280, Note_on_c, 3, 52, 0
1, 101280, Note_on_c, 4, 40, 0
1, 101282, Note_on_c, 0, 76, 81
1, 101402, Note_on_c, 1, 71, 63
1, 101402, Note_on_c, 2, 67, 63
1, 101520, Note_on_c, 1, 71, 0
1, 101520, Note_on_c, 2, 67, 0
1, 101521, Note_on_c, 1, 69, 63
1, 101521, Note_on_c, 2, 66, 63
1, 101640, Note_on_c, 0, 76, 0
1, 101641, Note_on_c, 0, 75, 81
1, 101760, Note_on_c, 0, 75, 0
1, 101761, Note_on_c, 0, 78, 81
1, 101880, Note_on_c, 1, 69, 0
1, 101880, Note_on_c, 2, 66, 0
1, 101881, Note_on_c, 1, 72, 63
1, 101881, Note_on_c, 2, 69, 63
1, 102000, Note_on_c, 1, 72, 0
1, 102000, Note_on_c, 2, 69, 0
1, 102001, Note_on_c, 1, 71, 63
1, 102001, Note_on_c, 2, 67, 63
1, 102120, Note_on_c, 0, 78, 0
1, 102121, Note_on_c, 0, 76, 81
1, 102240, Note_on_c, 0, 76, 0
1, 102241, Note_on_c, 0, 79, 81
1, 102360, Note_on_c, 1, 71, 0
1, 102360, Note_on_c, 2, 67, 0
1, 102361, Note_on_c, 1, 70, 63
1, 102361, Note_on_c, 2, 64, 63
1, 102480, Note_on_c, 1, 70, 0
1, 102480, Note_on_c, 2, 64, 0
1, 102481, Note_on_c, 1, 71, 63
1, 102481, Note_on_c, 2, 62, 63
1, 102600, Note_on_c, 0, 79, 0
1, 102601, Note_on_c, 0, 78, 81
1, 102720, Note_on_c, 0, 78, 0
1, 102721, Note_on_c, 0, 83, 81
1, 102840, Note_on_c, 1, 71, 0
1, 102840, Note_on_c, 2, 62, 0
1, 102841, Note_on_c, 1, 66, 63
1, 102841, Note_on_c, 2, 62, 63
1, 102960, Note_on_c, 1, 66, 0
1, 102960, Note_on_c, 2, 62, 0
1, 102961, Note_on_c, 2, 64, 63
1, 102962, Note_on_c, 3, 61, 63
1, 103080, Note_on_c, 0, 83, 0
1, 103081, Note_on_c, 0, 82, 81
1, 103200, Note_on_c, 0, 82, 0
1, 103201, Note_on_c, 0, 88, 81
1, 103202, Note_on_c, 1, 85, 63
1, 103320, Note_on_c, 2, 64, 0
1, 103320, Note_on_c, 3, 61, 0
1, 103321, Note_on_c, 3, 58, 63
1, 103440, Note_on_c, 0, 88, 0
1, 103440, Note_on_c, 1, 85, 0
1, 103440, Note_on_c, 3, 58, 0
1, 103441, Note_on_c, 0, 86, 81
1, 103441, Note_on_c, 1, 83, 63
1, 103441, Note_on_c, 3, 59, 63
1, 103680, Note_on_c, 3, 59, 0
1, 103681, Note_on_c, 3, 64, 47
1, 103800, Note_on_c, 0, 86, 0
1, 103800, Note_on_c, 1, 83, 0
1, 103801, Note_on_c, 0, 85, 63
1, 103801, Note_on_c, 1, 76, 47
1, 103920, Note_on_c, 3, 64, 0
1, 103922, Note_on_c, 2, 66, 47
1, 104040, Note_on_c, 0, 85, 0
1, 104040, Note_on_c, 1, 76, 0
1, 104041, Note_on_c, 0, 83, 63
1, 104041, Note_on_c, 1, 74, 47
1, 104160, Note_on_c, 2, 66, 0
1, 104161, Note_on_c, 2, 66, 47
1, 104280, Note_on_c, 0, 83, 0
1, 104280, Note_on_c, 1, 74, 0
1, 104281, Note_on_c, 0, 82, 47
1, 104281, Note_on_c, 1, 73, 39
1, 104400, Note_on_c, 0, 82, 0
1, 104400, Note_on_c, 1, 73, 0
1, 104400, Note_on_c, 2, 66, 0
1, 104401, Note_on_c, 2, 59, 39
1, 104522, Note_on_c, 0, 71, 36
1, 104640, Note_on_c, 0, 71, 0
1, 104640, Note_on_c, 2, 59, 0
1, 104641, Note_on_c, 0, 83, 36
1, 104760, Note_on_c, 0, 83, 0
1, 104762, Note_on_c, 3, 47, 31
1, 104762, Note_on_c, 4, 35, 31
1, 104820, Note_on_c, 3, 47, 0
1, 104820, Note_on_c, 4, 35, 0
1, 104882, Note_on_c, 3, 48, 63
1, 104882, Note_on_c, 4, 36, 63
1, 105002, Note_on_c, 0, 69, 81
1, 105120, Note_on_c, 0, 69, 0
1, 105120, Note_on_c, 3, 48, 0
1, 105120, Note_on_c, 4, 36, 0
1, 105121, Note_on_c, 0, 81, 81
1, 105242, Note_on_c, 3, 64, 63
1, 105242, Note_on_c, 4, 60, 63
1, 105360, Note_on_c, 3, 64, 0
1, 105360, Note_on_c, 4, 60, 0
1, 105361, Note_on_c, 3, 62, 63
1, 105361, Note_on_c, 4, 59, 63
1, 105480, Note_on_c, 0, 81, 0
1, 105481, Note_on_c, 0, 80, 81
1, 105600, Note_on_c, 0, 80, 0
1, 105601, Note_on_c, 0, 86, 81
1, 105720, Note_on_c, 3, 62, 0
1, 105720, Note_on_c, 4, 59, 0
1, 105721, Note_on_c, 3, 59, 63
1, 105721, Note_on_c, 4, 56, 63
1, 105840, Note_on_c, 3, 59, 0
1, 105840, Note_on_c, 4, 56, 0
1, 105841, Note_on_c, 3, 60, 63
1, 105841, Note_on_c, 4, 57, 63
1, 105960, Note_on_c, 0, 86, 0
1, 105961, Note_on_c, 0, 84, 63
1, 106080, Note_on_c, 3, 60, 0
1, 106080, Note_on_c, 4, 57, 0
1, 106081, Note_on_c, 3, 62, 47
1, 106081, Note_on_c, 4, 59, 47
1, 106200, Note_on_c, 0, 84, 0
1, 106201, Note_on_c, 0, 83, 47
1, 106320, Note_on_c, 3, 62, 0
1, 106320, Note_on_c, 4, 59, 0
1, 106321, Note_on_c, 3, 64, 36
1, 106321, Note_on_c, 4, 60, 36
1, 106440, Note_on_c, 0, 83, 0
1, 106441, Note_on_c, 0, 81, 36
1, 106560, Note_on_c, 0, 81, 0
1, 106560, Note_on_c, 3, 64, 0
1, 106560, Note_on_c, 4, 60, 0
1, 106682, Note_on_c, 0, 78, 36
1, 106800, Note_on_c, 0, 78, 0
1, 106801, Note_on_c, 0, 79, 36
1, 106922, Note_on_c, 2, 74, 31
1, 106922, Note_on_c, 3, 71, 31
1, 107040, Note_on_c, 2, 74, 0
1, 107040, Note_on_c, 3, 71, 0
1, 107041, Note_on_c, 2, 72, 31
1, 107041, Note_on_c, 3, 69, 31
1, 107160, Note_on_c, 0, 79, 0
1, 107161, Note_on_c, 0, 78, 36
1, 107280, Note_on_c, 0, 78, 0
1, 107280, Note_on_c, 2, 72, 0
1, 107280, Note_on_c, 3, 69, 0
1, 107281, Note_on_c, 0, 84, 36
1, 107282, Note_on_c, 1, 81, 31
1, 107402, Note_on_c, 2, 66, 31
1, 107520, Note_on_c, 2, 66, 0
1, 107521, Note_on_c, 2, 67, 31
1, 107640, Note_on_c, 0, 84, 0
1, 107640, Note_on_c, 1, 81, 0
1, 107641, Note_on_c, 0, 83, 36
1, 107641, Note_on_c, 1, 79, 31
1, 107760, Note_on_c, 2, 67, 0
1, 107761, Note_on_c, 2, 63, 31
1, 107880, Note_on_c, 0, 83, 0
1, 107880, Note_on_c, 1, 79, 0
1, 107881, Note_on_c, 0, 81, 31
1, 107881, Note_on_c, 1, 78, 27
1, 108000, Note_on_c, 2, 63, 0
1, 108001, Note_on_c, 2, 64, 27
1, 108120, Note_on_c, 0, 81, 0
1, 108120, Note_on_c, 1, 78, 0
1, 108121, Note_on_c, 0, 79, 31
1, 108121, Note_on_c, 1, 76, 27
1, 108240, Note_on_c, 2, 64, 0
1, 108241, Note_on_c, 2, 59, 27
1, 108360, Note_on_c, 0, 79, 0
1, 108360, Note_on_c, 1, 76, 0
1, 108361, Note_on_c, 0, 78, 30
1, 108361, Note_on_c, 1, 75, 26
1, 108480, Note_on_c, 0, 78, 0
1, 108480, Note_on_c, 1, 75, 0
1, 108480, Note_on_c, 2, 59, 0
1, 108481, Note_on_c, 0, 83, 81
1, 108540, Note_on_c, 0, 83, 0
1, 108541, Note_on_c, 0, 81, 81
1, 108600, Note_on_c, 0, 81, 0
1, 108601, Note_on_c, 0, 79, 81
1, 108660, Note_on_c, 0, 79, 0
1, 108661, Note_on_c, 0, 78, 81
1, 108720, Note_on_c, 0, 78, 0
1, 108721, Note_on_c, 0, 76, 81
1, 108842, Note_on_c, 3, 52, 63
1, 108900, Note_on_c, 3, 52, 0
1, 108960, Note_on_c, 0, 76, 0
1, 108962, Note_on_c, 3, 64, 63
1, 109082, Note_on_c, 0, 76, 81
1, 109082, Note_on_c, 1, 67, 63
1, 109200, Note_on_c, 0, 76, 0
1, 109200, Note_on_c, 1, 67, 0
1, 109201, Note_on_c, 0, 78, 81
1, 109201, Note_on_c, 1, 69, 63
1, 109320, Note_on_c, 3, 64, 0
1, 109321, Note_on_c, 3, 63, 63
1, 109440, Note_on_c, 3, 63, 0
1, 109441, Note_on_c, 3, 66, 63
1, 109560, Note_on_c, 0, 78, 0
1, 109560, Note_on_c, 1, 69, 0
1, 109561, Note_on_c, 0, 78, 81
1, 109561, Note_on_c, 1, 69, 63
1, 109680, Note_on_c, 0, 78, 0
1, 109680, Note_on_c, 1, 69, 0
1, 109681, Note_on_c, 0, 79, 81
1, 109681, Note_on_c, 1, 71, 63
1, 109800, Note_on_c, 3, 66, 0
1, 109801, Note_on_c, 3, 64, 63
1, 109920, Note_on_c, 3, 64, 0
1, 109922, Note_on_c, 2, 67, 63
1, 110040, Note_on_c, 0, 79, 0
1, 110040, Note_on_c, 1, 71, 0
1, 110041, Note_on_c, 0, 79, 81
1, 110041, Note_on_c, 1, 71, 63
1, 110160, Note_on_c, 0, 79, 0
1, 110160, Note_on_c, 1, 71, 0
1, 110161, Note_on_c, 0, 81, 81
1, 110161, Note_on_c, 1, 72, 63
1, 110280, Note_on_c, 2, 67, 0
1, 110281, Note_on_c, 2, 66, 63
1, 110400, Note_on_c, 2, 66, 0
1, 110401, Note_on_c, 2, 69, 63
1, 110520, Note_on_c, 0, 81, 0
1, 110520, Note_on_c, 1, 72, 0
1, 110521, Note_on_c, 0, 78, 81
1, 110640, Note_on_c, 0, 78, 0
1, 110641, Note_on_c, 0, 74, 81
1, 110760, Note_on_c, 2, 69, 0
1, 110761, Note_on_c, 2, 66, 63
1, 110880, Note_on_c, 2, 66, 0
1, 110881, Note_on_c, 2, 63, 63
1, 111000, Note_on_c, 0, 74, 0
1, 111001, Note_on_c, 0, 72, 81
1, 111120, Note_on_c, 0, 72, 0
1, 111121, Note_on_c, 0, 69, 81
1, 111240, Note_on_c, 2, 63, 0
1, 111242, Note_on_c, 3, 60, 63
1, 111360, Note_on_c, 3, 60, 0
1, 111361, Note_on_c, 3, 57, 63
1, 111480, Note_on_c, 0, 69, 0
1, 111481, Note_on_c, 0, 66, 81
1, 111600, Note_on_c, 0, 66, 0
1, 111601, Note_on_c, 0, 62, 81
1, 111720, Note_on_c, 3, 57, 0
1, 111721, Note_on_c, 3, 54, 63
1, 111840, Note_on_c, 3, 54, 0
1, 111841, Note_on_c, 3, 51, 63
1, 111960, Note_on_c, 0, 62, 0
1, 111960, Note_on_c, 3, 51, 0
1, 111961, Note_on_c, 0, 63, 81
1, 111961, Note_on_c, 3, 63, 63
1, 111962, Note_on_c, 4, 51, 31
1, 112020, Note_on_c, 0, 63, 0
1, 112020, Note_on_c, 3, 63, 0
1, 112020, Note_on_c, 4, 51, 0
1, 112021, Note_on_c, 0, 60, 81
1, 112021, Note_on_c, 3, 60, 63
1, 112021, Note_on_c, 4, 48, 63
1, 112080, Note_on_c, 0, 60, 0
1, 112080, Note_on_c, 3, 60, 0
1, 112080, Note_on_c, 4, 48, 0
1, 112081, Note_on_c, 3, 57, 63
1, 112081, Note_on_c, 4, 45, 63
1, 112140, Note_on_c, 3, 57, 0
1, 112140, Note_on_c, 4, 45, 0
1, 112202, Note_on_c, 3, 60, 63
1, 112202, Note_on_c, 4, 48, 63
1, 112260, Note_on_c, 3, 60, 0
1, 112260, Note_on_c, 4, 48, 0
1, 112261, Note_on_c, 3, 57, 63
1, 112261, Note_on_c, 4, 45, 63
1, 112320, Note_on_c, 3, 57, 0
1, 112320, Note_on_c, 4, 45, 0
1, 112321, Note_on_c, 3, 54, 63
1, 112321, Note_on_c, 4, 42, 63
1, 112380, Note_on_c, 3, 54, 0
1, 112380, Note_on_c, 4, 42, 0
1, 112442, Note_on_c, 3, 57, 63
1, 112442, Note_on_c, 4, 45, 63
1, 112500, Note_on_c, 3, 57, 0
1, 112500, Note_on_c, 4, 45, 0
1, 112501, Note_on_c, 3, 54, 63
1, 112501, Note_on_c, 4, 42, 63
1, 112560, Note_on_c, 3, 54, 0
1, 112560, Note_on_c, 4, 42, 0
1, 112561, Note_on_c, 3, 51, 63
1, 112561, Note_on_c, 4, 39, 63
1, 112800, Note_on_c, 3, 51, 0
1, 112800, Note_on_c, 4, 39, 0
1, 112922, Note_on_c, 0, 84, 36
1, 112980, Note_on_c, 0, 84, 0
1, 112981, Note_on_c, 0, 81, 36
1, 113040, Note_on_c, 0, 81, 0
1, 113041, Note_on_c, 0, 78, 36
1, 113100, Note_on_c, 0, 78, 0
1, 113162, Note_on_c, 0, 81, 36
1, 113220, Note_on_c, 0, 81, 0
1, 113221, Note_on_c, 0, 78, 36
1, 113280, Note_on_c, 0, 78, 0
1, 113281, Note_on_c, 0, 75, 36
1, 113340, Note_on_c, 0, 75, 0
1, 113402, Note_on_c, 0, 78, 36
1, 113460, Note_on_c, 0, 78, 0
1, 113461, Note_on_c, 0, 75, 36
1, 113520, Note_on_c, 0, 75, 0
1, 113521, Note_on_c, 0, 72, 36
1, 113760, Note_on_c, 0, 72, 0
1, 114122, Note_on_c, 0, 60, 81
1, 114240, Note_on_c, 0, 60, 0
1, 114241, Note_on_c, 0, 59, 81
1, 114242, Note_on_c, 3, 51, 63
1, 114360, Note_on_c, 0, 59, 0
1, 114361, Note_on_c, 0, 69, 81
1, 114480, Note_on_c, 0, 69, 0
1, 114480, Note_on_c, 3, 51, 0
1, 114482, Note_on_c, 4, 52, 63
1, 114600, Note_on_c, 4, 52, 0
1, 114602, Note_on_c, 0, 67, 81
1, 114602, Note_on_c, 3, 59, 63
1, 114720, Note_on_c, 0, 67, 0
1, 114720, Note_on_c, 3, 59, 0
1, 114722, Note_on_c, 4, 45, 63
1, 114840, Note_on_c, 4, 45, 0
1, 114842, Note_on_c, 0, 66, 81
1, 114842, Note_on_c, 3, 57, 63
1, 114960, Note_on_c, 0, 66, 0
1, 114960, Note_on_c, 3, 57, 0
1, 114962, Note_on_c, 4, 47, 63
1, 115080, Note_on_c, 4, 47, 0
1, 115082, Note_on_c, 0, 64, 81
1, 115082, Note_on_c, 3, 55, 63
1, 115200, Note_on_c, 0, 64, 0
1, 115200, Note_on_c, 3, 55, 0
1, 115202, Note_on_c, 4, 47, 63
1, 115320, Note_on_c, 4, 47, 0
1, 115322, Note_on_c, 0, 63, 81
1, 115322, Note_on_c, 3, 54, 63
1, 115440, Note_on_c, 0, 63, 0
1, 115440, Note_on_c, 3, 54, 0
1, 115441, Note_on_c, 0, 64, 81
1, 115441, Note_on_c, 3, 55, 63
1, 115562, Note_on_c, 4, 52, 55
1, 115680, Note_on_c, 0, 64, 0
1, 115680, Note_on_c, 3, 55, 0
1, 115680, Note_on_c, 4, 52, 0
1, 115681, Note_on_c, 4, 40, 55
1, 115800, Note_on_c, 4, 40, 0
1, 115802, Note_on_c, 0, 87, 47
1, 115920, Note_on_c, 0, 87, 0
1, 115921, Note_on_c, 0, 88, 47
1, 116042, Note_on_c, 4, 52, 39
1, 116160, Note_on_c, 0, 88, 0
1, 116160, Note_on_c, 4, 52, 0
1, 116161, Note_on_c, 4, 40, 39
1, 116280, Note_on_c, 4, 40, 0
1, 116282, Note_on_c, 0, 64, 47
1, 116400, Note_on_c, 0, 64, 0
1, 116401, Note_on_c, 0, 65, 47
1, 116402, Note_on_c, 1, 62, 39
1, 116522, Note_on_c, 4, 52, 39
1, 116640, Note_on_c, 0, 65, 0
1, 116640, Note_on_c, 1, 62, 0
1, 116640, Note_on_c, 4, 52, 0
1, 116641, Note_on_c, 4, 40, 39
1, 116760, Note_on_c, 4, 40, 0
1, 116762, Note_on_c, 0, 65, 47
1, 116762, Note_on_c, 1, 62, 39
1, 116880, Note_on_c, 0, 65, 0
1, 116880, Note_on_c, 1, 62, 0
1, 116881, Note_on_c, 0, 67, 47
1, 116881, Note_on_c, 1, 59, 39
1, 117002, Note_on_c, 4, 52, 39
1, 117120, Note_on_c, 0, 67, 0
1, 117120, Note_on_c, 1, 59, 0
1, 117120, Note_on_c, 4, 52, 0
1, 117121, Note_on_c, 4, 40, 39
1, 117240, Note_on_c, 4, 40, 0
1, 117242, Note_on_c, 0, 67, 63
1, 117242, Note_on_c, 1, 59, 47
1, 117360, Note_on_c, 0, 67, 0
1, 117360, Note_on_c, 1, 59, 0
1, 117361, Note_on_c, 0, 69, 63
1, 117361, Note_on_c, 1, 60, 47
1, 117482, Note_on_c, 4, 52, 47
1, 117600, Note_on_c, 0, 69, 0
1, 117600, Note_on_c, 1, 60, 0
1, 117600, Note_on_c, 4, 52, 0
1, 117601, Note_on_c, 4, 40, 47
1, 117720, Note_on_c, 4, 40, 0
1, 117722, Note_on_c, 0, 69, 47
1, 117722, Note_on_c, 1, 60, 36
1, 117840, Note_on_c, 0, 69, 0
1, 117840, Note_on_c, 1, 60, 0
1, 117841, Note_on_c, 0, 67, 47
1, 117841, Note_on_c, 1, 61, 36
1, 117962, Note_on_c, 4, 51, 36
1, 118080, Note_on_c, 0, 67, 0
1, 118080, Note_on_c, 1, 61, 0
1, 118080, Note_on_c, 4, 51, 0
1, 118081, Note_on_c, 4, 39, 36
1, 118200, Note_on_c, 4, 39, 0
1, 118202, Note_on_c, 0, 67, 47
1, 118202, Note_on_c, 1, 61, 36
1, 118320, Note_on_c, 0, 67, 0
1, 118320, Note_on_c, 1, 61, 0
1, 118321, Note_on_c, 0, 66, 47
1, 118321, Note_on_c, 1, 62, 36
1, 118442, Note_on_c, 4, 50, 36
1, 118560, Note_on_c, 0, 66, 0
1, 118560, Note_on_c, 1, 62, 0
1, 118560, Note_on_c, 4, 50, 0
1, 118561, Note_on_c, 4, 38, 36
1, 118680, Note_on_c, 4, 38, 0
1, 118682, Note_on_c, 0, 85, 31
1, 118800, Note_on_c, 0, 85, 0
1, 118801, Note_on_c, 0, 86, 31
1, 118922, Note_on_c, 4, 50, 29
1, 119040, Note_on_c, 0, 86, 0
1, 119040, Note_on_c, 4, 50, 0
1, 119041, Note_on_c, 4, 38, 29
1, 119160, Note_on_c, 4, 38, 0
1, 119162, Note_on_c, 0, 62, 31
1, 119280, Note_on_c, 0, 62, 0
1, 119281, Note_on_c, 0, 64, 31
1, 119282, Note_on_c, 1, 61, 31
1, 119402, Note_on_c, 4, 50, 29
1, 119520, Note_on_c, 0, 64, 0
1, 119520, Note_on_c, 1, 61, 0
1, 119520, Note_on_c, 4, 50, 0
1, 119521, Note_on_c, 4, 38, 29
1, 119640, Note_on_c, 4, 38, 0
1, 119642, Note_on_c, 0, 64, 31
1, 119642, Note_on_c, 1, 61, 31
1, 119760, Note_on_c, 0, 64, 0
1, 119760, Note_on_c, 1, 61, 0
1, 119761, Note_on_c, 0, 66, 31
1, 119761, Note_on_c, 1, 60, 31
1, 119882, Note_on_c, 4, 50, 29
1, 120000, Note_on_c, 0, 66, 0
1, 120000, Note_on_c, 1, 60, 0
1, 120000, Note_on_c, 4, 50, 0
1, 120001, Note_on_c, 4, 38, 29
1, 120120, Note_on_c, 4, 38, 0
1, 120122, Note_on_c, 0, 62, 81
1, 120180, Note_on_c, 0, 62, 0
1, 120242, Note_on_c, 0, 67, 81
1, 120242, Note_on_c, 3, 59, 63
1, 120242, Note_on_c, 4, 55, 63
1, 120300, Note_on_c, 3, 59, 0
1, 120300, Note_on_c, 4, 55, 0
1, 120362, Note_on_c, 3, 59, 63
1, 120362, Note_on_c, 4, 55, 63
1, 120420, Note_on_c, 0, 67, 0
1, 120420, Note_on_c, 3, 59, 0
1, 120420, Note_on_c, 4, 55, 0
1, 120421, Note_on_c, 0, 71, 81
1, 120450, Note_on_c, 0, 71, 0
1, 120451, Note_on_c, 0, 69, 81
1, 120480, Note_on_c, 0, 69, 0
1, 120481, Note_on_c, 0, 67, 81
1, 120482, Note_on_c, 3, 59, 63
1, 120482, Note_on_c, 4, 55, 63
1, 120540, Note_on_c, 3, 59, 0
1, 120540, Note_on_c, 4, 55, 0
1, 120600, Note_on_c, 0, 67, 0
1, 120602, Note_on_c, 3, 59, 63
1, 120602, Note_on_c, 4, 55, 63
1, 120660, Note_on_c, 3, 59, 0
1, 120660, Note_on_c, 4, 55, 0
1, 120722, Note_on_c, 3, 59, 63
1, 120722, Note_on_c, 4, 55, 63
1, 120780, Note_on_c, 3, 59, 0
1, 120780, Note_on_c, 4, 55, 0
1, 120842, Note_on_c, 0, 62, 81
1, 120842, Note_on_c, 3, 59, 63
1, 120842, Note_on_c, 4, 55, 63
1, 120900, Note_on_c, 0, 62, 0
1, 120900, Note_on_c, 3, 59, 0
1, 120900, Note_on_c, 4, 55, 0
1, 120962, Note_on_c, 0, 67, 81
1, 120962, Note_on_c, 3, 59, 63
1, 120962, Note_on_c, 4, 55, 63
1, 121020, Note_on_c, 0, 67, 0
1, 121020, Note_on_c, 3, 59, 0
1, 121020, Note_on_c, 4, 55, 0
1, 121082, Note_on_c, 0, 71, 81
1, 121082, Note_on_c, 3, 59, 63
1, 121082, Note_on_c, 4, 55, 63
1, 121140, Note_on_c, 0, 71, 0
1, 121140, Note_on_c, 3, 59, 0
1, 121140, Note_on_c, 4, 55, 0
1, 121202, Note_on_c, 0, 71, 81
1, 121202, Note_on_c, 3, 60, 63
1, 121202, Note_on_c, 4, 55, 63
1, 121260, Note_on_c, 0, 71, 0
1, 121261, Note_on_c, 0, 69, 81
1, 121320, Note_on_c, 0, 69, 0
1, 121321, Note_on_c, 0, 67, 81
1, 121380, Note_on_c, 0, 67, 0
1, 121381, Note_on_c, 0, 69, 81
1, 121440, Note_on_c, 0, 69, 0
1, 121440, Note_on_c, 3, 60, 0
1, 121441, Note_on_c, 0, 67, 81
1, 121441, Note_on_c, 3, 59, 63
1, 121560, Note_on_c, 0, 67, 0
1, 121560, Note_on_c, 3, 59, 0
1, 121560, Note_on_c, 4, 55, 0
1, 121561, Note_on_c, 0, 74, 36
1, 121620, Note_on_c, 0, 74, 0
1, 121682, Note_on_c, 0, 74, 36
1, 121682, Note_on_c, 1, 67, 31
1, 121682, Note_on_c, 2, 65, 31
1, 121740, Note_on_c, 0, 74, 0
1, 121740, Note_on_c, 1, 67, 0
1, 121740, Note_on_c, 2, 65, 0
1, 121802, Note_on_c, 0, 74, 36
1, 121802, Note_on_c, 1, 67, 31
1, 121802, Note_on_c, 2, 65, 31
1, 121860, Note_on_c, 0, 74, 0
1, 121860, Note_on_c, 1, 67, 0
1, 121860, Note_on_c, 2, 65, 0
1, 121922, Note_on_c, 0, 74, 36
1, 121922, Note_on_c, 1, 67, 31
1, 121922, Note_on_c, 2, 65, 31
1, 121980, Note_on_c, 0, 74, 0
1, 121980, Note_on_c, 1, 67, 0
1, 121980, Note_on_c, 2, 65, 0
1, 122042, Note_on_c, 0, 74, 36
1, 122042, Note_on_c, 1, 67, 31
1, 122042, Note_on_c, 2, 65, 31
1, 122100, Note_on_c, 0, 74, 0
1, 122100, Note_on_c, 1, 67, 0
1, 122100, Note_on_c, 2, 65, 0
1, 122162, Note_on_c, 0, 74, 36
1, 122162, Note_on_c, 1, 67, 31
1, 122162, Note_on_c, 2, 64, 31
1, 122340, Note_on_c, 0, 74, 0
1, 122341, Note_on_c, 0, 76, 36
1, 122370, Note_on_c, 0, 76, 0
1, 122371, Note_on_c, 0, 74, 36
1, 122400, Note_on_c, 0, 74, 0
1, 122401, Note_on_c, 0, 72, 36
1, 122520, Note_on_c, 0, 72, 0
1, 122520, Note_on_c, 1, 67, 0
1, 122520, Note_on_c, 2, 64, 0
1, 122521, Note_on_c, 0, 71, 36
1, 122521, Note_on_c, 1, 65, 31
1, 122521, Note_on_c, 2, 62, 31
1, 122580, Note_on_c, 0, 71, 0
1, 122640, Note_on_c, 1, 65, 0
1, 122640, Note_on_c, 2, 62, 0
1, 122641, Note_on_c, 1, 64, 31
1, 122641, Note_on_c, 2, 60, 31
1, 122642, Note_on_c, 0, 69, 47
1, 122700, Note_on_c, 0, 69, 0
1, 122762, Note_on_c, 0, 81, 47
1, 122880, Note_on_c, 1, 64, 0
1, 122880, Note_on_c, 2, 60, 0
1, 122881, Note_on_c, 1, 64, 47
1, 122881, Note_on_c, 2, 61, 39
1, 123000, Note_on_c, 0, 81, 0
1, 123001, Note_on_c, 0, 79, 63
1, 123120, Note_on_c, 0, 79, 0
1, 123120, Note_on_c, 1, 64, 0
1, 123120, Note_on_c, 2, 61, 0
1, 123121, Note_on_c, 0, 79, 47
1, 123121, Note_on_c, 1, 62, 39
1, 123180, Note_on_c, 0, 79, 0
1, 123181, Note_on_c, 0, 78, 47
1, 123240, Note_on_c, 0, 78, 0
1, 123241, Note_on_c, 0, 76, 47
1, 123300, Note_on_c, 0, 76, 0
1, 123301, Note_on_c, 0, 74, 47
1, 123360, Note_on_c, 0, 74, 0
1, 123360, Note_on_c, 1, 62, 0
1, 123361, Note_on_c, 0, 74, 47
1, 123420, Note_on_c, 0, 74, 0
1, 123482, Note_on_c, 0, 74, 39
1, 123540, Note_on_c, 0, 74, 0
1, 123602, Note_on_c, 0, 74, 36
1, 123660, Note_on_c, 0, 74, 0
1, 123661, Note_on_c, 0, 76, 36
1, 123720, Note_on_c, 0, 76, 0
1, 123721, Note_on_c, 0, 72, 36
1, 123780, Note_on_c, 0, 72, 0
1, 123781, Note_on_c, 0, 74, 35
1, 123840, Note_on_c, 0, 74, 0
1, 123841, Note_on_c, 0, 71, 35
1, 123900, Note_on_c, 0, 71, 0
1, 123901, Note_on_c, 0, 72, 35
1, 123960, Note_on_c, 0, 72, 0
1, 123961, Note_on_c, 0, 69, 35
1, 124020, Note_on_c, 0, 69, 0
1, 124021, Note_on_c, 0, 71, 35
1, 124080, Note_on_c, 0, 71, 0
1, 124081, Note_on_c, 0, 67, 63
1, 124082, Note_on_c, 3, 59, 50
1, 124082, Note_on_c, 4, 55, 50
1, 124140, Note_on_c, 3, 59, 0
1, 124140, Note_on_c, 4, 55, 0
1, 124202, Note_on_c, 3, 59, 50
1, 124202, Note_on_c, 4, 55, 50
1, 124260, Note_on_c, 0, 67, 0
1, 124260, Note_on_c, 3, 59, 0
1, 124260, Note_on_c, 4, 55, 0
1, 124261, Note_on_c, 0, 71, 63
1, 124290, Note_on_c, 0, 71, 0
1, 124291, Note_on_c, 0, 69, 63
1, 124320, Note_on_c, 0, 69, 0
1, 124321, Note_on_c, 0, 67, 63
1, 124322, Note_on_c, 3, 59, 50
1, 124322, Note_on_c, 4, 55, 50
1, 124380, Note_on_c, 0, 67, 0
1, 124380, Note_on_c, 3, 59, 0
1, 124380, Note_on_c, 4, 55, 0
1, 124381, Note_on_c, 0, 62, 63
1, 124440, Note_on_c, 0, 62, 0
1, 124441, Note_on_c, 0, 71, 63
1, 124442, Note_on_c, 3, 59, 50
1, 124442, Note_on_c, 4, 55, 50
1, 124500, Note_on_c, 0, 71, 0
1, 124500, Note_on_c, 3, 59, 0
1, 124500, Note_on_c, 4, 55, 0
1, 124501, Note_on_c, 0, 69, 63
1, 124560, Note_on_c, 0, 69, 0
1, 124561, Note_on_c, 0, 67, 63
1, 124562, Note_on_c, 3, 59, 50
1, 124562, Note_on_c, 4, 55, 50
1, 124620, Note_on_c, 0, 67, 0
1, 124620, Note_on_c, 3, 59, 0
1, 124620, Note_on_c, 4, 55, 0
1, 124621, Note_on_c, 0, 62, 63
1, 124680, Note_on_c, 0, 62, 0
1, 124681, Note_on_c, 0, 67, 63
1, 124682, Note_on_c, 3, 59, 50
1, 124682, Note_on_c, 4, 55, 50
1, 124740, Note_on_c, 0, 67, 0
1, 124740, Note_on_c, 3, 59, 0
1, 124740, Note_on_c, 4, 55, 0
1, 124741, Note_on_c, 0, 71, 63
1, 124800, Note_on_c, 0, 71, 0
1, 124801, Note_on_c, 0, 74, 63
1, 124802, Note_on_c, 3, 59, 50
1, 124802, Note_on_c, 4, 55, 50
1, 124860, Note_on_c, 0, 74, 0
1, 124860, Note_on_c, 3, 59, 0
1, 124860, Note_on_c, 4, 55, 0
1, 124861, Note_on_c, 0, 71, 63
1, 124920, Note_on_c, 0, 71, 0
1, 124921, Note_on_c, 0, 69, 63
1, 124922, Note_on_c, 3, 59, 50
1, 124922, Note_on_c, 4, 55, 50
1, 124980, Note_on_c, 0, 69, 0
1, 124980, Note_on_c, 3, 59, 0
1, 124980, Note_on_c, 4, 55, 0
1, 124981, Note_on_c, 0, 67, 63
1, 125040, Note_on_c, 0, 67, 0
1, 125041, Note_on_c, 0, 71, 63
1, 125042, Note_on_c, 1, 71, 50
1, 125042, Note_on_c, 2, 67, 50
1, 125042, Note_on_c, 3, 60, 50
1, 125042, Note_on_c, 4, 55, 50
1, 125100, Note_on_c, 0, 71, 0
1, 125100, Note_on_c, 1, 71, 0
1, 125100, Note_on_c, 2, 67, 0
1, 125101, Note_on_c, 0, 69, 63
1, 125160, Note_on_c, 0, 69, 0
1, 125161, Note_on_c, 0, 67, 63
1, 125162, Note_on_c, 1, 71, 50
1, 125162, Note_on_c, 2, 67, 50
1, 125220, Note_on_c, 0, 67, 0
1, 125220, Note_on_c, 1, 71, 0
1, 125220, Note_on_c, 2, 67, 0
1, 125221, Note_on_c, 0, 69, 63
1, 125280, Note_on_c, 0, 69, 0
1, 125280, Note_on_c, 3, 60, 0
1, 125281, Note_on_c, 0, 67, 63
1, 125281, Note_on_c, 3, 59, 50
1, 125282, Note_on_c, 1, 71, 55
1, 125282, Note_on_c, 2, 67, 55
1, 125340, Note_on_c, 1, 71, 0
1, 125340, Note_on_c, 2, 67, 0
1, 125400, Note_on_c, 0, 67, 0
1, 125400, Note_on_c, 3, 59, 0
1, 125400, Note_on_c, 4, 55, 0
1, 125401, Note_on_c, 0, 76, 47
1, 125402, Note_on_c, 1, 71, 39
1, 125402, Note_on_c, 2, 67, 39
1, 125460, Note_on_c, 0, 76, 0
1, 125460, Note_on_c, 1, 71, 0
1, 125460, Note_on_c, 2, 67, 0
1, 125522, Note_on_c, 0, 75, 47
1, 125522, Note_on_c, 1, 71, 39
1, 125522, Note_on_c, 2, 67, 39
1, 125580, Note_on_c, 0, 75, 0
1, 125580, Note_on_c, 1, 71, 0
1, 125580, Note_on_c, 2, 67, 0
1, 125581, Note_on_c, 0, 76, 47
1, 125640, Note_on_c, 0, 76, 0
1, 125641, Note_on_c, 0, 77, 47
1, 125642, Note_on_c, 1, 71, 39
1, 125642, Note_on_c, 2, 67, 39
1, 125700, Note_on_c, 0, 77, 0
1, 125700, Note_on_c, 1, 71, 0
1, 125700, Note_on_c, 2, 67, 0
1, 125701, Note_on_c, 0, 78, 47
1, 125760, Note_on_c, 0, 78, 0
1, 125761, Note_on_c, 0, 79, 63
1, 125762, Note_on_c, 1, 71, 50
1, 125762, Note_on_c, 2, 67, 50
1, 125820, Note_on_c, 0, 79, 0
1, 125820, Note_on_c, 1, 71, 0
1, 125820, Note_on_c, 2, 67, 0
1, 125821, Note_on_c, 0, 80, 63
1, 125880, Note_on_c, 0, 80, 0
1, 125881, Note_on_c, 0, 81, 63
1, 125882, Note_on_c, 1, 71, 50
1, 125882, Note_on_c, 2, 67, 50
1, 125940, Note_on_c, 0, 81, 0
1, 125940, Note_on_c, 1, 71, 0
1, 125940, Note_on_c, 2, 67, 0
1, 125941, Note_on_c, 0, 82, 63
1, 126000, Note_on_c, 0, 82, 0
1, 126001, Note_on_c, 0, 83, 81
1, 126002, Note_on_c, 1, 71, 63
1, 126002, Note_on_c, 2, 67, 63
1, 126060, Note_on_c, 1, 71, 0
1, 126060, Note_on_c, 2, 67, 0
1, 126122, Note_on_c, 1, 71, 63
1, 126122, Note_on_c, 2, 67, 63
1, 126180, Note_on_c, 1, 71, 0
1, 126180, Note_on_c, 2, 67, 0
1, 126240, Note_on_c, 0, 83, 0
1, 126241, Note_on_c, 0, 81, 63
1, 126242, Note_on_c, 1, 71, 50
1, 126242, Note_on_c, 2, 67, 50
1, 126300, Note_on_c, 0, 81, 0
1, 126300, Note_on_c, 1, 71, 0
1, 126300, Note_on_c, 2, 67, 0
1, 126301, Note_on_c, 0, 79, 63
1, 126360, Note_on_c, 0, 79, 0
1, 126361, Note_on_c, 0, 78, 63
1, 126362, Note_on_c, 1, 71, 50
1, 126362, Note_on_c, 2, 67, 50
1, 126420, Note_on_c, 0, 78, 0
1, 126420, Note_on_c, 1, 71, 0
1, 126420, Note_on_c, 2, 67, 0
1, 126421, Note_on_c, 0, 76, 63
1, 126480, Note_on_c, 0, 76, 0
1, 126481, Note_on_c, 0, 74, 47
1, 126482, Note_on_c, 1, 66, 47
1, 126482, Note_on_c, 2, 57, 47
1, 126540, Note_on_c, 1, 66, 0
1, 126540, Note_on_c, 2, 57, 0
1, 126602, Note_on_c, 1, 66, 47
1, 126602, Note_on_c, 2, 57, 47
1, 126660, Note_on_c, 1, 66, 0
1, 126660, Note_on_c, 2, 57, 0
1, 126720, Note_on_c, 0, 74, 0
1, 126721, Note_on_c, 0, 73, 47
1, 126722, Note_on_c, 1, 64, 39
1, 126722, Note_on_c, 2, 57, 39
1, 126768, Note_on_c, 0, 73, 0
1, 126769, Note_on_c, 0, 74, 47
1, 126780, Note_on_c, 1, 64, 0
1, 126780, Note_on_c, 2, 57, 0
1, 126816, Note_on_c, 0, 74, 0
1, 126817, Note_on_c, 0, 73, 47
1, 126842, Note_on_c, 1, 64, 39
1, 126842, Note_on_c, 2, 57, 39
1, 126864, Note_on_c, 0, 73, 0
1, 126865, Note_on_c, 0, 71, 47
1, 126900, Note_on_c, 1, 64, 0
1, 126900, Note_on_c, 2, 57, 0
1, 126912, Note_on_c, 0, 71, 0
1, 126913, Note_on_c, 0, 73, 55
1, 126960, Note_on_c, 0, 73, 0
1, 126961, Note_on_c, 0, 74, 81
1, 126962, Note_on_c, 1, 66, 63
1, 126962, Note_on_c, 2, 62, 63
1, 127020, Note_on_c, 0, 74, 0
1, 127020, Note_on_c, 1, 66, 0
1, 127020, Note_on_c, 2, 62, 0
1, 127021, Note_on_c, 0, 76, 81
1, 127080, Note_on_c, 0, 76, 0
1, 127081, Note_on_c, 0, 78, 81
1, 127082, Note_on_c, 1, 66, 63
1, 127082, Note_on_c, 2, 62, 63
1, 127140, Note_on_c, 0, 78, 0
1, 127140, Note_on_c, 1, 66, 0
1, 127140, Note_on_c, 2, 62, 0
1, 127141, Note_on_c, 0, 79, 81
1, 127200, Note_on_c, 0, 79, 0
1, 127201, Note_on_c, 0, 81, 81
1, 127202, Note_on_c, 1, 66, 63
1, 127202, Note_on_c, 2, 62, 63
1, 127260, Note_on_c, 0, 81, 0
1, 127260, Note_on_c, 1, 66, 0
1, 127260, Note_on_c, 2, 62, 0
1, 127261, Note_on_c, 0, 83, 81
1, 127320, Note_on_c, 0, 83, 0
1, 127321, Note_on_c, 0, 85, 81
1, 127322, Note_on_c, 1, 66, 63
1, 127322, Note_on_c, 2, 62, 63
1, 127380, Note_on_c, 0, 85, 0
1, 127380, Note_on_c, 1, 66, 0
1, 127380, Note_on_c, 2, 62, 0
1, 127381, Note_on_c, 0, 86, 81
1, 127440, Note_on_c, 0, 86, 0
1, 127441, Note_on_c, 0, 85, 81
1, 127442, Note_on_c, 1, 67, 63
1, 127442, Note_on_c, 2, 62, 63
1, 127500, Note_on_c, 0, 85, 0
1, 127500, Note_on_c, 1, 67, 0
1, 127500, Note_on_c, 2, 62, 0
1, 127501, Note_on_c, 0, 88, 81
1, 127560, Note_on_c, 0, 88, 0
1, 127561, Note_on_c, 0, 85, 81
1, 127562, Note_on_c, 1, 67, 63
1, 127562, Note_on_c, 2, 62, 63
1, 127620, Note_on_c, 0, 85, 0
1, 127620, Note_on_c, 1, 67, 0
1, 127620, Note_on_c, 2, 62, 0
1, 127621, Note_on_c, 0, 81, 81
1, 127680, Note_on_c, 0, 81, 0
1, 127681, Note_on_c, 0, 79, 81
1, 127682, Note_on_c, 1, 67, 63
1, 127682, Note_on_c, 2, 62, 63
1, 127740, Note_on_c, 0, 79, 0
1, 127740, Note_on_c, 1, 67, 0
1, 127740, Note_on_c, 2, 62, 0
1, 127741, Note_on_c, 0, 83, 81
1, 127800, Note_on_c, 0, 83, 0
1, 127801, Note_on_c, 0, 79, 81
1, 127802, Note_on_c, 1, 67, 63
1, 127802, Note_on_c, 2, 62, 63
1, 127860, Note_on_c, 0, 79, 0
1, 127860, Note_on_c, 1, 67, 0
1, 127860, Note_on_c, 2, 62, 0
1, 127861, Note_on_c, 0, 76, 81
1, 127920, Note_on_c, 0, 76, 0
1, 127921, Note_on_c, 0, 78, 81
1, 127922, Note_on_c, 1, 66, 63
1, 127922, Note_on_c, 2, 62, 63
1, 127980, Note_on_c, 0, 78, 0
1, 127980, Note_on_c, 1, 66, 0
1, 127980, Note_on_c, 2, 62, 0
1, 127981, Note_on_c, 0, 81, 81
1, 128040, Note_on_c, 0, 81, 0
1, 128041, Note_on_c, 0, 79, 81
1, 128042, Note_on_c, 1, 66, 63
1, 128042, Note_on_c, 2, 62, 63
1, 128100, Note_on_c, 0, 79, 0
1, 128100, Note_on_c, 1, 66, 0
1, 128100, Note_on_c, 2, 62, 0
1, 128101, Note_on_c, 0, 78, 81
1, 128160, Note_on_c, 0, 78, 0
1, 128161, Note_on_c, 0, 76, 63
1, 128162, Note_on_c, 1, 66, 50
1, 128162, Note_on_c, 2, 62, 50
1, 128220, Note_on_c, 0, 76, 0
1, 128220, Note_on_c, 1, 66, 0
1, 128220, Note_on_c, 2, 62, 0
1, 128221, Note_on_c, 0, 74, 63
1, 128280, Note_on_c, 0, 74, 0
1, 128281, Note_on_c, 0, 73, 63
1, 128282, Note_on_c, 1, 66, 50
1, 128282, Note_on_c, 2, 62, 50
1, 128340, Note_on_c, 0, 73, 0
1, 128340, Note_on_c, 1, 66, 0
1, 128340, Note_on_c, 2, 62, 0
1, 128341, Note_on_c, 0, 71, 47
1, 128400, Note_on_c, 0, 71, 0
1, 128401, Note_on_c, 0, 69, 47
1, 128402, Note_on_c, 1, 67, 39
1, 128402, Note_on_c, 2, 62, 39
1, 128460, Note_on_c, 0, 69, 0
1, 128460, Note_on_c, 1, 67, 0
1, 128460, Note_on_c, 2, 62, 0
1, 128461, Note_on_c, 0, 71, 47
1, 128520, Note_on_c, 0, 71, 0
1, 128521, Note_on_c, 0, 73, 47
1, 128522, Note_on_c, 1, 67, 39
1, 128522, Note_on_c, 2, 62, 39
1, 128580, Note_on_c, 0, 73, 0
1, 128580, Note_on_c, 1, 67, 0
1, 128580, Note_on_c, 2, 62, 0
1, 128581, Note_on_c, 0, 74, 63
1, 128640, Note_on_c, 0, 74, 0
1, 128641, Note_on_c, 0, 76, 63
1, 128642, Note_on_c, 1, 67, 50
1, 128642, Note_on_c, 2, 62, 50
1, 128700, Note_on_c, 0, 76, 0
1, 128700, Note_on_c, 1, 67, 0
1, 128700, Note_on_c, 2, 62, 0
1, 128701, Note_on_c, 0, 78, 63
1, 128760, Note_on_c, 0, 78, 0
1, 128761, Note_on_c, 0, 79, 63
1, 128762, Note_on_c, 1, 67, 50
1, 128762, Note_on_c, 2, 62, 50
1, 128820, Note_on_c, 0, 79, 0
1, 128820, Note_on_c, 1, 67, 0
1, 128820, Note_on_c, 2, 62, 0
1, 128821, Note_on_c, 0, 76, 63
1, 128880, Note_on_c, 0, 76, 0
1, 128881, Note_on_c, 0, 74, 63
1, 128882, Note_on_c, 1, 66, 50
1, 128882, Note_on_c, 2, 62, 50
1, 128940, Note_on_c, 0, 74, 0
1, 128940, Note_on_c, 1, 66, 0
1, 128940, Note_on_c, 2, 62, 0
1, 128941, Note_on_c, 0, 76, 63
1, 129000, Note_on_c, 0, 76, 0
1, 129001, Note_on_c, 0, 78, 63
1, 129002, Note_on_c, 1, 66, 50
1, 129002, Note_on_c, 2, 62, 50
1, 129060, Note_on_c, 0, 78, 0
1, 129060, Note_on_c, 1, 66, 0
1, 129060, Note_on_c, 2, 62, 0
1, 129061, Note_on_c, 0, 79, 63
1, 129120, Note_on_c, 0, 79, 0
1, 129121, Note_on_c, 0, 81, 47
1, 129122, Note_on_c, 1, 66, 39
1, 129122, Note_on_c, 2, 62, 39
1, 129180, Note_on_c, 0, 81, 0
1, 129180, Note_on_c, 1, 66, 0
1, 129180, Note_on_c, 2, 62, 0
1, 129181, Note_on_c, 0, 83, 47
1, 129240, Note_on_c, 0, 83, 0
1, 129241, Note_on_c, 0, 85, 47
1, 129242, Note_on_c, 1, 66, 39
1, 129242, Note_on_c, 2, 62, 39
1, 129300, Note_on_c, 0, 85, 0
1, 129300, Note_on_c, 1, 66, 0
1, 129300, Note_on_c, 2, 62, 0
1, 129301, Note_on_c, 0, 86, 47
1, 129360, Note_on_c, 0, 86, 0
1, 129361, Note_on_c, 0, 74, 47
1, 129362, Note_on_c, 1, 66, 39
1, 129362, Note_on_c, 2, 62, 39
1, 129480, Note_on_c, 0, 74, 0
1, 129480, Note_on_c, 1, 66, 0
1, 129480, Note_on_c, 2, 62, 0
1, 129842, Note_on_c, 0, 67, 81
1, 129842, Note_on_c, 3, 59, 63
1, 129842, Note_on_c, 4, 55, 63
1, 129900, Note_on_c, 3, 59, 0
1, 129900, Note_on_c, 4, 55, 0
1, 129962, Note_on_c, 3, 59, 63
1, 129962, Note_on_c, 4, 55, 63
1, 130020, Note_on_c, 0, 67, 0
1, 130020, Note_on_c, 3, 59, 0
1, 130020, Note_on_c, 4, 55, 0
1, 130021, Note_on_c, 0, 71, 81
1, 130050, Note_on_c, 0, 71, 0
1, 130051, Note_on_c, 0, 69, 81
1, 130080, Note_on_c, 0, 69, 0
1, 130081, Note_on_c, 0, 67, 81
1, 130082, Note_on_c, 3, 59, 63
1, 130082, Note_on_c, 4, 55, 63
1, 130140, Note_on_c, 0, 67, 0
1, 130140, Note_on_c, 3, 59, 0
1, 130140, Note_on_c, 4, 55, 0
1, 130141, Note_on_c, 0, 62, 81
1, 130200, Note_on_c, 0, 62, 0
1, 130201, Note_on_c, 0, 71, 81
1, 130202, Note_on_c, 3, 59, 63
1, 130202, Note_on_c, 4, 55, 63
1, 130260, Note_on_c, 0, 71, 0
1, 130260, Note_on_c, 3, 59, 0
1, 130260, Note_on_c, 4, 55, 0
1, 130261, Note_on_c, 0, 69, 81
1, 130320, Note_on_c, 0, 69, 0
1, 130321, Note_on_c, 0, 67, 81
1, 130322, Note_on_c, 3, 59, 63
1, 130322, Note_on_c, 4, 55, 63
1, 130380, Note_on_c, 0, 67, 0
1, 130380, Note_on_c, 3, 59, 0
1, 130380, Note_on_c, 4, 55, 0
1, 130381, Note_on_c, 0, 62, 81
1, 130440, Note_on_c, 0, 62, 0
1, 130441, Note_on_c, 0, 67, 81
1, 130442, Note_on_c, 3, 59, 63
1, 130442, Note_on_c, 4, 55, 63
1, 130500, Note_on_c, 0, 67, 0
1, 130500, Note_on_c, 3, 59, 0
1, 130500, Note_on_c, 4, 55, 0
1, 130501, Note_on_c, 0, 71, 81
1, 130560, Note_on_c, 0, 71, 0
1, 130561, Note_on_c, 0, 74, 81
1, 130562, Note_on_c, 3, 59, 63
1, 130562, Note_on_c, 4, 55, 63
1, 130620, Note_on_c, 0, 74, 0
1, 130620, Note_on_c, 3, 59, 0
1, 130620, Note_on_c, 4, 55, 0
1, 130621, Note_on_c, 0, 71, 81
1, 130680, Note_on_c, 0, 71, 0
1, 130681, Note_on_c, 0, 69, 81
1, 130682, Note_on_c, 3, 59, 63
1, 130682, Note_on_c, 4, 55, 63
1, 130740, Note_on_c, 0, 69, 0
1, 130740, Note_on_c, 3, 59, 0
1, 130740, Note_on_c, 4, 55, 0
1, 130741, Note_on_c, 0, 67, 81
1, 130800, Note_on_c, 0, 67, 0
1, 130801, Note_on_c, 0, 71, 81
1, 130802, Note_on_c, 3, 60, 63
1, 130802, Note_on_c, 4, 55, 63
1, 130860, Note_on_c, 0, 71, 0
1, 130861, Note_on_c, 0, 69, 81
1, 130920, Note_on_c, 0, 69, 0
1, 130921, Note_on_c, 0, 67, 81
1, 130980, Note_on_c, 0, 67, 0
1, 130981, Note_on_c, 0, 69, 81
1, 131040, Note_on_c, 0, 69, 0
1, 131040, Note_on_c, 3, 60, 0
1, 131040, Note_on_c, 4, 55, 0
1, 131041, Note_on_c, 0, 67, 81
1, 131041, Note_on_c, 3, 59, 63
1, 131041, Note_on_c, 4, 55, 63
1, 131160, Note_on_c, 0, 67, 0
1, 131160, Note_on_c, 3, 59, 0
1, 131160, Note_on_c, 4, 55, 0
1, 131161, Note_on_c, 0, 74, 81
1, 131220, Note_on_c, 0, 74, 0
1, 131282, Note_on_c, 0, 74, 81
1, 131282, Note_on_c, 1, 65, 63
1, 131340, Note_on_c, 0, 74, 0
1, 131340, Note_on_c, 1, 65, 0
1, 131341, Note_on_c, 1, 67, 63
1, 131400, Note_on_c, 1, 67, 0
1, 131401, Note_on_c, 1, 65, 63
1, 131402, Note_on_c, 0, 74, 81
1, 131460, Note_on_c, 0, 74, 0
1, 131460, Note_on_c, 1, 65, 0
1, 131461, Note_on_c, 1, 67, 63
1, 131520, Note_on_c, 1, 67, 0
1, 131521, Note_on_c, 1, 65, 63
1, 131522, Note_on_c, 0, 74, 81
1, 131580, Note_on_c, 0, 74, 0
1, 131580, Note_on_c, 1, 65, 0
1, 131581, Note_on_c, 1, 67, 63
1, 131640, Note_on_c, 1, 67, 0
1, 131641, Note_on_c, 1, 65, 63
1, 131642, Note_on_c, 0, 74, 81
1, 131700, Note_on_c, 0, 74, 0
1, 131700, Note_on_c, 1, 65, 0
1, 131701, Note_on_c, 1, 67, 63
1, 131760, Note_on_c, 1, 67, 0
1, 131761, Note_on_c, 1, 64, 63
1, 131762, Note_on_c, 0, 76, 81
1, 131820, Note_on_c, 0, 76, 0
1, 131821, Note_on_c, 0, 79, 81
1, 131880, Note_on_c, 0, 79, 0
1, 131881, Note_on_c, 0, 76, 81
1, 131940, Note_on_c, 0, 76, 0
1, 131941, Note_on_c, 0, 74, 81
1, 132000, Note_on_c, 0, 74, 0
1, 132000, Note_on_c, 1, 64, 0
1, 132001, Note_on_c, 0, 72, 81
1, 132060, Note_on_c, 0, 72, 0
1, 132061, Note_on_c, 0, 76, 81
1, 132120, Note_on_c, 0, 76, 0
1, 132121, Note_on_c, 0, 72, 81
1, 132122, Note_on_c, 1, 64, 63
1, 132180, Note_on_c, 0, 72, 0
1, 132180, Note_on_c, 1, 64, 0
1, 132181, Note_on_c, 0, 71, 81
1, 132181, Note_on_c, 1, 62, 63
1, 132240, Note_on_c, 0, 71, 0
1, 132240, Note_on_c, 1, 62, 0
1, 132241, Note_on_c, 0, 69, 81
1, 132241, Note_on_c, 1, 60, 63
1, 132300, Note_on_c, 0, 69, 0
1, 132301, Note_on_c, 0, 88, 81
1, 132360, Note_on_c, 0, 88, 0
1, 132361, Note_on_c, 0, 84, 81
1, 132420, Note_on_c, 0, 84, 0
1, 132421, Note_on_c, 0, 83, 81
1, 132480, Note_on_c, 0, 83, 0
1, 132480, Note_on_c, 1, 60, 0
1, 132481, Note_on_c, 0, 81, 81
1, 132540, Note_on_c, 0, 81, 0
1, 132541, Note_on_c, 0, 84, 81
1, 132600, Note_on_c, 0, 84, 0
1, 132601, Note_on_c, 0, 81, 81
1, 132602, Note_on_c, 3, 61, 63
1, 132660, Note_on_c, 0, 81, 0
1, 132661, Note_on_c, 0, 79, 81
1, 132720, Note_on_c, 0, 79, 0
1, 132720, Note_on_c, 3, 61, 0
1, 132721, Note_on_c, 0, 78, 81
1, 132721, Note_on_c, 3, 62, 63
1, 132780, Note_on_c, 0, 78, 0
1, 132781, Note_on_c, 0, 79, 81
1, 132840, Note_on_c, 0, 79, 0
1, 132841, Note_on_c, 0, 81, 81
1, 132900, Note_on_c, 0, 81, 0
1, 132901, Note_on_c, 0, 79, 81
1, 132960, Note_on_c, 0, 79, 0
1, 132961, Note_on_c, 0, 78, 81
1, 133020, Note_on_c, 0, 78, 0
1, 133021, Note_on_c, 0, 76, 81
1, 133080, Note_on_c, 0, 76, 0
1, 133081, Note_on_c, 0, 74, 81
1, 133140, Note_on_c, 0, 74, 0
1, 133141, Note_on_c, 0, 73, 81
1, 133200, Note_on_c, 0, 73, 0
1, 133200, Note_on_c, 3, 62, 0
1, 133201, Note_on_c, 0, 74, 81
1, 133201, Note_on_c, 3, 50, 63
1, 133260, Note_on_c, 0, 74, 0
1, 133261, Note_on_c, 0, 86, 81
1, 133320, Note_on_c, 0, 86, 0
1, 133321, Note_on_c, 0, 72, 81
1, 133380, Note_on_c, 0, 72, 0
1, 133381, Note_on_c, 0, 84, 81
1, 133440, Note_on_c, 0, 84, 0
1, 133440, Note_on_c, 3, 50, 0
1, 133441, Note_on_c, 0, 71, 81
1, 133500, Note_on_c, 0, 71, 0
1, 133501, Note_on_c, 0, 83, 81
1, 133560, Note_on_c, 0, 83, 0
1, 133561, Note_on_c, 0, 69, 81
1, 133620, Note_on_c, 0, 69, 0
1, 133621, Note_on_c, 0, 81, 81
1, 133680, Note_on_c, 0, 81, 0
1, 133681, Note_on_c, 0, 67, 63
1, 133682, Note_on_c, 3, 59, 50
1, 133682, Note_on_c, 4, 55, 50
1, 133740, Note_on_c, 3, 59, 0
1, 133740, Note_on_c, 4, 55, 0
1, 133802, Note_on_c, 3, 59, 50
1, 133802, Note_on_c, 4, 55, 50
1, 133860, Note_on_c, 0, 67, 0
1, 133860, Note_on_c, 3, 59, 0
1, 133860, Note_on_c, 4, 55, 0
1, 133861, Note_on_c, 0, 71, 63
1, 133890, Note_on_c, 0, 71, 0
1, 133891, Note_on_c, 0, 69, 63
1, 133920, Note_on_c, 0, 69, 0
1, 133921, Note_on_c, 0, 67, 63
1, 133922, Note_on_c, 3, 59, 50
1, 133922, Note_on_c, 4, 55, 50
1, 133980, Note_on_c, 0, 67, 0
1, 133980, Note_on_c, 3, 59, 0
1, 133980, Note_on_c, 4, 55, 0
1, 133981, Note_on_c, 0, 62, 63
1, 134040, Note_on_c, 0, 62, 0
1, 134041, Note_on_c, 0, 71, 63
1, 134042, Note_on_c, 3, 59, 50
1, 134042, Note_on_c, 4, 55, 50
1, 134100, Note_on_c, 0, 71, 0
1, 134100, Note_on_c, 3, 59, 0
1, 134100, Note_on_c, 4, 55, 0
1, 134101, Note_on_c, 0, 69, 63
1, 134160, Note_on_c, 0, 69, 0
1, 134161, Note_on_c, 0, 67, 63
1, 134162, Note_on_c, 3, 59, 50
1, 134162, Note_on_c, 4, 55, 50
1, 134220, Note_on_c, 0, 67, 0
1, 134220, Note_on_c, 3, 59, 0
1, 134220, Note_on_c, 4, 55, 0
1, 134221, Note_on_c, 0, 62, 63
1, 134280, Note_on_c, 0, 62, 0
1, 134281, Note_on_c, 0, 67, 63
1, 134282, Note_on_c, 3, 59, 50
1, 134282, Note_on_c, 4, 55, 50
1, 134340, Note_on_c, 0, 67, 0
1, 134340, Note_on_c, 3, 59, 0
1, 134340, Note_on_c, 4, 55, 0
1, 134341, Note_on_c, 0, 71, 63
1, 134400, Note_on_c, 0, 71, 0
1, 134401, Note_on_c, 0, 74, 63
1, 134402, Note_on_c, 3, 59, 50
1, 134402, Note_on_c, 4, 55, 50
1, 134460, Note_on_c, 0, 74, 0
1, 134460, Note_on_c, 3, 59, 0
1, 134460, Note_on_c, 4, 55, 0
1, 134461, Note_on_c, 0, 71, 63
1, 134520, Note_on_c, 0, 71, 0
1, 134521, Note_on_c, 0, 69, 63
1, 134522, Note_on_c, 3, 59, 50
1, 134522, Note_on_c, 4, 55, 50
1, 134580, Note_on_c, 0, 69, 0
1, 134580, Note_on_c, 3, 59, 0
1, 134580, Note_on_c, 4, 55, 0
1, 134581, Note_on_c, 0, 67, 63
1, 134640, Note_on_c, 0, 67, 0
1, 134641, Note_on_c, 0, 71, 63
1, 134642, Note_on_c, 3, 60, 50
1, 134642, Note_on_c, 4, 55, 50
1, 134700, Note_on_c, 0, 71, 0
1, 134701, Note_on_c, 0, 69, 63
1, 134760, Note_on_c, 0, 69, 0
1, 134761, Note_on_c, 0, 67, 63
1, 134820, Note_on_c, 0, 67, 0
1, 134821, Note_on_c, 0, 69, 63
1, 134880, Note_on_c, 0, 69, 0
1, 134880, Note_on_c, 3, 60, 0
1, 134880, Note_on_c, 4, 55, 0
1, 134881, Note_on_c, 0, 67, 63
1, 134881, Note_on_c, 3, 59, 47
1, 134881, Note_on_c, 4, 55, 47
1, 135000, Note_on_c, 0, 67, 0
1, 135000, Note_on_c, 3, 59, 0
1, 135000, Note_on_c, 4, 55, 0
1, 135001, Note_on_c, 0, 76, 47
1, 135060, Note_on_c, 0, 76, 0
1, 135122, Note_on_c, 0, 75, 36
1, 135122, Note_on_c, 1, 71, 31
1, 135122, Note_on_c, 2, 67, 31
1, 135180, Note_on_c, 0, 75, 0
1, 135180, Note_on_c, 1, 71, 0
1, 135180, Note_on_c, 2, 67, 0
1, 135181, Note_on_c, 0, 76, 36
1, 135240, Note_on_c, 0, 76, 0
1, 135241, Note_on_c, 0, 77, 36
1, 135242, Note_on_c, 1, 71, 31
1, 135242, Note_on_c, 2, 67, 31
1, 135300, Note_on_c, 0, 77, 0
1, 135300, Note_on_c, 1, 71, 0
1, 135300, Note_on_c, 2, 67, 0
1, 135301, Note_on_c, 0, 78, 36
1, 135360, Note_on_c, 0, 78, 0
1, 135361, Note_on_c, 0, 79, 47
1, 135362, Note_on_c, 1, 71, 39
1, 135362, Note_on_c, 2, 67, 39
1, 135420, Note_on_c, 0, 79, 0
1, 135420, Note_on_c, 1, 71, 0
1, 135420, Note_on_c, 2, 67, 0
1, 135421, Note_on_c, 0, 80, 47
1, 135480, Note_on_c, 0, 80, 0
1, 135481, Note_on_c, 0, 81, 47
1, 135482, Note_on_c, 1, 71, 39
1, 135482, Note_on_c, 2, 67, 39
1, 135540, Note_on_c, 0, 81, 0
1, 135540, Note_on_c, 1, 71, 0
1, 135540, Note_on_c, 2, 67, 0
1, 135541, Note_on_c, 0, 82, 47
1, 135600, Note_on_c, 0, 82, 0
1, 135601, Note_on_c, 0, 83, 63
1, 135602, Note_on_c, 1, 71, 50
1, 135602, Note_on_c, 2, 67, 50
1, 135660, Note_on_c, 1, 71, 0
1, 135660, Note_on_c, 2, 67, 0
1, 135722, Note_on_c, 1, 71, 45
1, 135722, Note_on_c, 2, 67, 45
1, 135780, Note_on_c, 1, 71, 0
1, 135780, Note_on_c, 2, 67, 0
1, 135840, Note_on_c, 0, 83, 0
1, 135841, Note_on_c, 0, 81, 47
1, 135842, Note_on_c, 1, 71, 39
1, 135842, Note_on_c, 2, 67, 39
1, 135900, Note_on_c, 0, 81, 0
1, 135900, Note_on_c, 1, 71, 0
1, 135900, Note_on_c, 2, 67, 0
1, 135901, Note_on_c, 0, 79, 47
1, 135960, Note_on_c, 0, 79, 0
1, 135961, Note_on_c, 0, 78, 47
1, 135962, Note_on_c, 1, 71, 39
1, 135962, Note_on_c, 2, 67, 39
1, 136020, Note_on_c, 0, 78, 0
1, 136020, Note_on_c, 1, 71, 0
1, 136020, Note_on_c, 2, 67, 0
1, 136021, Note_on_c, 0, 76, 47
1, 136080, Note_on_c, 0, 76, 0
1, 136081, Note_on_c, 0, 74, 36
1, 136082, Note_on_c, 1, 66, 31
1, 136082, Note_on_c, 3, 57, 31
1, 136140, Note_on_c, 1, 66, 0
1, 136140, Note_on_c, 3, 57, 0
1, 136202, Note_on_c, 1, 66, 31
1, 136202, Note_on_c, 3, 57, 31
1, 136260, Note_on_c, 1, 66, 0
1, 136260, Note_on_c, 3, 57, 0
1, 136320, Note_on_c, 0, 74, 0
1, 136321, Note_on_c, 0, 73, 34
1, 136322, Note_on_c, 1, 64, 29
1, 136322, Note_on_c, 3, 57, 29
1, 136368, Note_on_c, 0, 73, 0
1, 136369, Note_on_c, 0, 74, 31
1, 136380, Note_on_c, 1, 64, 0
1, 136380, Note_on_c, 3, 57, 0
1, 136416, Note_on_c, 0, 74, 0
1, 136417, Note_on_c, 0, 73, 31
1, 136442, Note_on_c, 1, 64, 29
1, 136442, Note_on_c, 3, 57, 29
1, 136464, Note_on_c, 0, 73, 0
1, 136465, Note_on_c, 0, 71, 31
1, 136500, Note_on_c, 1, 64, 0
1, 136500, Note_on_c, 3, 57, 0
1, 136512, Note_on_c, 0, 71, 0
1, 136513, Note_on_c, 0, 73, 31
1, 136560, Note_on_c, 0, 73, 0
1, 136561, Note_on_c, 0, 74, 81
1, 136562, Note_on_c, 1, 66, 63
1, 136562, Note_on_c, 2, 62, 63
1, 136620, Note_on_c, 0, 74, 0
1, 136620, Note_on_c, 1, 66, 0
1, 136620, Note_on_c, 2, 62, 0
1, 136621, Note_on_c, 0, 76, 81
1, 136680, Note_on_c, 0, 76, 0
1, 136681, Note_on_c, 0, 78, 81
1, 136682, Note_on_c, 1, 66, 63
1, 136682, Note_on_c, 2, 62, 63
1, 136740, Note_on_c, 0, 78, 0
1, 136740, Note_on_c, 1, 66, 0
1, 136740, Note_on_c, 2, 62, 0
1, 136741, Note_on_c, 0, 79, 81
1, 136800, Note_on_c, 0, 79, 0
1, 136801, Note_on_c, 0, 81, 81
1, 136802, Note_on_c, 1, 66, 63
1, 136802, Note_on_c, 2, 62, 63
1, 136860, Note_on_c, 0, 81, 0
1, 136860, Note_on_c, 1, 66, 0
1, 136860, Note_on_c, 2, 62, 0
1, 136861, Note_on_c, 0, 83, 81
1, 136920, Note_on_c, 0, 83, 0
1, 136921, Note_on_c, 0, 85, 81
1, 136922, Note_on_c, 1, 66, 63
1, 136922, Note_on_c, 2, 62, 63
1, 136980, Note_on_c, 0, 85, 0
1, 136980, Note_on_c, 1, 66, 0
1, 136980, Note_on_c, 2, 62, 0
1, 136981, Note_on_c, 0, 86, 81
1, 137040, Note_on_c, 0, 86, 0
1, 137041, Note_on_c, 0, 85, 81
1, 137042, Note_on_c, 1, 67, 63
1, 137042, Note_on_c, 2, 62, 63
1, 137100, Note_on_c, 0, 85, 0
1, 137100, Note_on_c, 1, 67, 0
1, 137100, Note_on_c, 2, 62, 0
1, 137101, Note_on_c, 0, 88, 81
1, 137160, Note_on_c, 0, 88, 0
1, 137161, Note_on_c, 0, 85, 81
1, 137162, Note_on_c, 1, 67, 63
1, 137162, Note_on_c, 2, 62, 63
1, 137220, Note_on_c, 0, 85, 0
1, 137220, Note_on_c, 1, 67, 0
1, 137220, Note_on_c, 2, 62, 0
1, 137221, Note_on_c, 0, 81, 81
1, 137280, Note_on_c, 0, 81, 0
1, 137281, Note_on_c, 0, 79, 81
1, 137282, Note_on_c, 1, 67, 63
1, 137282, Note_on_c, 2, 62, 63
1, 137340, Note_on_c, 0, 79, 0
1, 137340, Note_on_c, 1, 67, 0
1, 137340, Note_on_c, 2, 62, 0
1, 137341, Note_on_c, 0, 83, 81
1, 137400, Note_on_c, 0, 83, 0
1, 137401, Note_on_c, 0, 79, 81
1, 137402, Note_on_c, 1, 67, 63
1, 137402, Note_on_c, 2, 62, 63
1, 137460, Note_on_c, 0, 79, 0
1, 137460, Note_on_c, 1, 67, 0
1, 137460, Note_on_c, 2, 62, 0
1, 137461, Note_on_c, 0, 76, 81
1, 137520, Note_on_c, 0, 76, 0
1, 137521, Note_on_c, 0, 78, 81
1, 137522, Note_on_c, 1, 66, 63
1, 137522, Note_on_c, 2, 62, 63
1, 137580, Note_on_c, 0, 78, 0
1, 137580, Note_on_c, 1, 66, 0
1, 137580, Note_on_c, 2, 62, 0
1, 137581, Note_on_c, 0, 81, 81
1, 137640, Note_on_c, 0, 81, 0
1, 137641, Note_on_c, 0, 79, 63
1, 137642, Note_on_c, 1, 66, 63
1, 137642, Note_on_c, 2, 62, 63
1, 137700, Note_on_c, 0, 79, 0
1, 137700, Note_on_c, 1, 66, 0
1, 137700, Note_on_c, 2, 62, 0
1, 137701, Note_on_c, 0, 78, 63
1, 137760, Note_on_c, 0, 78, 0
1, 137761, Note_on_c, 0, 76, 63
1, 137762, Note_on_c, 1, 66, 50
1, 137762, Note_on_c, 2, 62, 50
1, 137820, Note_on_c, 0, 76, 0
1, 137820, Note_on_c, 1, 66, 0
1, 137820, Note_on_c, 2, 62, 0
1, 137821, Note_on_c, 0, 74, 47
1, 137880, Note_on_c, 0, 74, 0
1, 137881, Note_on_c, 0, 73, 47
1, 137882, Note_on_c, 1, 66, 38
1, 137882, Note_on_c, 2, 62, 38
1, 137940, Note_on_c, 0, 73, 0
1, 137940, Note_on_c, 1, 66, 0
1, 137940, Note_on_c, 2, 62, 0
1, 137941, Note_on_c, 0, 71, 47
1, 138000, Note_on_c, 0, 71, 0
1, 138001, Note_on_c, 0, 69, 36
1, 138002, Note_on_c, 1, 67, 31
1, 138002, Note_on_c, 2, 62, 31
1, 138060, Note_on_c, 0, 69, 0
1, 138060, Note_on_c, 1, 67, 0
1, 138060, Note_on_c, 2, 62, 0
1, 138061, Note_on_c, 0, 71, 31
1, 138120, Note_on_c, 0, 71, 0
1, 138121, Note_on_c, 0, 73, 35
1, 138122, Note_on_c, 1, 67, 31
1, 138122, Note_on_c, 2, 62, 31
1, 138180, Note_on_c, 0, 73, 0
1, 138180, Note_on_c, 1, 67, 0
1, 138180, Note_on_c, 2, 62, 0
1, 138181, Note_on_c, 0, 74, 34
1, 138240, Note_on_c, 0, 74, 0
1, 138241, Note_on_c, 0, 76, 47
1, 138242, Note_on_c, 1, 67, 38
1, 138242, Note_on_c, 2, 62, 38
1, 138300, Note_on_c, 0, 76, 0
1, 138300, Note_on_c, 1, 67, 0
1, 138300, Note_on_c, 2, 62, 0
1, 138301, Note_on_c, 0, 78, 47
1, 138360, Note_on_c, 0, 78, 0
1, 138361, Note_on_c, 0, 79, 63
1, 138362, Note_on_c, 1, 67, 50
1, 138362, Note_on_c, 2, 62, 50
1, 138420, Note_on_c, 0, 79, 0
1, 138420, Note_on_c, 1, 67, 0
1, 138420, Note_on_c, 2, 62, 0
1, 138421, Note_on_c, 0, 76, 63
1, 138480, Note_on_c, 0, 76, 0
1, 138481, Note_on_c, 0, 74, 63
1, 138482, Note_on_c, 1, 66, 50
1, 138482, Note_on_c, 2, 62, 50
1, 138540, Note_on_c, 0, 74, 0
1, 138540, Note_on_c, 1, 66, 0
1, 138540, Note_on_c, 2, 62, 0
1, 138541, Note_on_c, 0, 76, 63
1, 138600, Note_on_c, 0, 76, 0
1, 138601, Note_on_c, 0, 78, 47
1, 138602, Note_on_c, 1, 66, 39
1, 138602, Note_on_c, 2, 62, 39
1, 138660, Note_on_c, 0, 78, 0
1, 138660, Note_on_c, 1, 66, 0
1, 138660, Note_on_c, 2, 62, 0
1, 138661, Note_on_c, 0, 79, 47
1, 138720, Note_on_c, 0, 79, 0
1, 138721, Note_on_c, 0, 81, 47
1, 138722, Note_on_c, 1, 66, 39
1, 138722, Note_on_c, 2, 62, 39
1, 138780, Note_on_c, 0, 81, 0
1, 138780, Note_on_c, 1, 66, 0
1, 138780, Note_on_c, 2, 62, 0
1, 138781, Note_on_c, 0, 83, 47
1, 138840, Note_on_c, 0, 83, 0
1, 138841, Note_on_c, 0, 85, 36
1, 138842, Note_on_c, 1, 66, 31
1, 138842, Note_on_c, 2, 62, 31
1, 138900, Note_on_c, 0, 85, 0
1, 138900, Note_on_c, 1, 66, 0
1, 138900, Note_on_c, 2, 62, 0
1, 138901, Note_on_c, 0, 86, 36
1, 138960, Note_on_c, 0, 86, 0
1, 138961, Note_on_c, 0, 74, 34
1, 138962, Note_on_c, 1, 66, 29
1, 138962, Note_on_c, 2, 62, 29
1, 139080, Note_on_c, 0, 74, 0
1, 139080, Note_on_c, 1, 66, 0
1, 139080, Note_on_c, 2, 62, 0
1, 139442, Note_on_c, 0, 77, 81
1, 139442, Note_on_c, 3, 58, 63
1, 139500, Note_on_c, 3, 58, 0
1, 139501, Note_on_c, 3, 65, 63
1, 139560, Note_on_c, 3, 65, 0
1, 139561, Note_on_c, 3, 62, 63
1, 139620, Note_on_c, 0, 77, 0
1, 139620, Note_on_c, 3, 62, 0
1, 139621, Note_on_c, 0, 74, 81
1, 139621, Note_on_c, 3, 65, 63
1, 139650, Note_on_c, 0, 74, 0
1, 139651, Note_on_c, 0, 75, 81
1, 139680, Note_on_c, 0, 75, 0
1, 139680, Note_on_c, 3, 65, 0
1, 139681, Note_on_c, 0, 77, 81
1, 139681, Note_on_c, 3, 58, 63
1, 139740, Note_on_c, 3, 58, 0
1, 139741, Note_on_c, 3, 65, 63
1, 139800, Note_on_c, 0, 77, 0
1, 139800, Note_on_c, 3, 65, 0
1, 139801, Note_on_c, 0, 89, 81
1, 139801, Note_on_c, 3, 62, 63
1, 139860, Note_on_c, 3, 62, 0
1, 139861, Note_on_c, 3, 65, 63
1, 139920, Note_on_c, 3, 65, 0
1, 139921, Note_on_c, 3, 60, 63
1, 139980, Note_on_c, 3, 60, 0
1, 139981, Note_on_c, 3, 65, 63
1, 140040, Note_on_c, 0, 89, 0
1, 140040, Note_on_c, 3, 65, 0
1, 140041, Note_on_c, 0, 69, 81
1, 140041, Note_on_c, 3, 63, 63
1, 140100, Note_on_c, 0, 69, 0
1, 140100, Note_on_c, 3, 63, 0
1, 140101, Note_on_c, 3, 65, 63
1, 140160, Note_on_c, 3, 65, 0
1, 140161, Note_on_c, 3, 60, 63
1, 140162, Note_on_c, 0, 69, 81
1, 140220, Note_on_c, 0, 69, 0
1, 140220, Note_on_c, 3, 60, 0
1, 140221, Note_on_c, 3, 65, 63
1, 140280, Note_on_c, 3, 65, 0
1, 140281, Note_on_c, 3, 63, 63
1, 140282, Note_on_c, 0, 69, 81
1, 140340, Note_on_c, 0, 69, 0
1, 140340, Note_on_c, 3, 63, 0
1, 140341, Note_on_c, 3, 65, 63
1, 140400, Note_on_c, 3, 65, 0
1, 140401, Note_on_c, 3, 58, 63
1, 140402, Note_on_c, 0, 72, 81
1, 140440, Note_on_c, 0, 72, 0
1, 140441, Note_on_c, 0, 70, 81
1, 140460, Note_on_c, 3, 58, 0
1, 140461, Note_on_c, 3, 65, 63
1, 140480, Note_on_c, 0, 70, 0
1, 140481, Note_on_c, 0, 72, 81
1, 140520, Note_on_c, 0, 72, 0
1, 140520, Note_on_c, 3, 65, 0
1, 140521, Note_on_c, 0, 70, 81
1, 140521, Note_on_c, 3, 62, 63
1, 140560, Note_on_c, 0, 70, 0
1, 140561, Note_on_c, 0, 69, 81
1, 140580, Note_on_c, 3, 62, 0
1, 140581, Note_on_c, 3, 65, 63
1, 140600, Note_on_c, 0, 69, 0
1, 140601, Note_on_c, 0, 70, 81
1, 140640, Note_on_c, 0, 70, 0
1, 140640, Note_on_c, 3, 65, 0
1, 140641, Note_on_c, 0, 74, 81
1, 140641, Note_on_c, 3, 58, 63
1, 140700, Note_on_c, 3, 58, 0
1, 140701, Note_on_c, 3, 65, 63
1, 140760, Note_on_c, 0, 74, 0
1, 140760, Note_on_c, 3, 65, 0
1, 140761, Note_on_c, 0, 86, 81
1, 140761, Note_on_c, 3, 62, 63
1, 140820, Note_on_c, 3, 62, 0
1, 140821, Note_on_c, 3, 65, 63
1, 140880, Note_on_c, 3, 65, 0
1, 140881, Note_on_c, 3, 57, 63
1, 140940, Note_on_c, 3, 57, 0
1, 140941, Note_on_c, 3, 62, 63
1, 141000, Note_on_c, 0, 86, 0
1, 141000, Note_on_c, 3, 62, 0
1, 141001, Note_on_c, 0, 66, 81
1, 141001, Note_on_c, 3, 60, 63
1, 141060, Note_on_c, 0, 66, 0
1, 141060, Note_on_c, 3, 60, 0
1, 141061, Note_on_c, 3, 62, 63
1, 141120, Note_on_c, 3, 62, 0
1, 141121, Note_on_c, 3, 57, 63
1, 141122, Note_on_c, 0, 66, 81
1, 141180, Note_on_c, 0, 66, 0
1, 141180, Note_on_c, 3, 57, 0
1, 141181, Note_on_c, 3, 62, 63
1, 141240, Note_on_c, 3, 62, 0
1, 141241, Note_on_c, 3, 60, 63
1, 141242, Note_on_c, 0, 66, 81
1, 141300, Note_on_c, 0, 66, 0
1, 141300, Note_on_c, 3, 60, 0
1, 141301, Note_on_c, 3, 62, 63
1, 141360, Note_on_c, 3, 62, 0
1, 141361, Note_on_c, 3, 55, 63
1, 141362, Note_on_c, 0, 72, 81
1, 141400, Note_on_c, 0, 72, 0
1, 141401, Note_on_c, 0, 70, 81
1, 141420, Note_on_c, 3, 55, 0
1, 141421, Note_on_c, 3, 62, 63
1, 141440, Note_on_c, 0, 70, 0
1, 141441, Note_on_c, 0, 72, 81
1, 141480, Note_on_c, 0, 72, 0
1, 141480, Note_on_c, 3, 62, 0
1, 141481, Note_on_c, 0, 70, 81
1, 141481, Note_on_c, 3, 58, 63
1, 141520, Note_on_c, 0, 70, 0
1, 141521, Note_on_c, 0, 69, 81
1, 141540, Note_on_c, 3, 58, 0
1, 141541, Note_on_c, 3, 62, 63
1, 141560, Note_on_c, 0, 69, 0
1, 141561, Note_on_c, 0, 70, 81
1, 141600, Note_on_c, 0, 70, 0
1, 141600, Note_on_c, 3, 62, 0
1, 141601, Note_on_c, 0, 74, 81
1, 141601, Note_on_c, 3, 55, 63
1, 141660, Note_on_c, 3, 55, 0
1, 141661, Note_on_c, 3, 62, 63
1, 141720, Note_on_c, 0, 74, 0
1, 141720, Note_on_c, 3, 62, 0
1, 141721, Note_on_c, 0, 82, 81
1, 141721, Note_on_c, 3, 58, 63
1, 141780, Note_on_c, 3, 58, 0
1, 141781, Note_on_c, 3, 62, 63
1, 141840, Note_on_c, 3, 62, 0
1, 141841, Note_on_c, 3, 51, 63
1, 141900, Note_on_c, 3, 51, 0
1, 141901, Note_on_c, 3, 55, 63
1, 141960, Note_on_c, 0, 82, 0
1, 141960, Note_on_c, 3, 55, 0
1, 141961, Note_on_c, 0, 61, 63
1, 141961, Note_on_c, 3, 54, 50
1, 142020, Note_on_c, 0, 61, 0
1, 142020, Note_on_c, 3, 54, 0
1, 142021, Note_on_c, 3, 55, 50
1, 142080, Note_on_c, 3, 55, 0
1, 142081, Note_on_c, 3, 51, 50
1, 142082, Note_on_c, 0, 61, 63
1, 142140, Note_on_c, 0, 61, 0
1, 142140, Note_on_c, 3, 51, 0
1, 142141, Note_on_c, 3, 55, 50
1, 142200, Note_on_c, 3, 55, 0
1, 142201, Note_on_c, 3, 54, 31
1, 142202, Note_on_c, 0, 61, 63
1, 142260, Note_on_c, 0, 61, 0
1, 142260, Note_on_c, 3, 54, 0
1, 142261, Note_on_c, 3, 55, 31
1, 142320, Note_on_c, 3, 55, 0
1, 142321, Note_on_c, 3, 50, 31
1, 142322, Note_on_c, 0, 62, 63
1, 142380, Note_on_c, 0, 62, 0
1, 142381, Note_on_c, 0, 64, 63
1, 142440, Note_on_c, 0, 64, 0
1, 142441, Note_on_c, 0, 66, 63
1, 142500, Note_on_c, 0, 66, 0
1, 142501, Note_on_c, 0, 67, 63
1, 142560, Note_on_c, 0, 67, 0
1, 142560, Note_on_c, 3, 50, 0
1, 142561, Note_on_c, 0, 69, 63
1, 142620, Note_on_c, 0, 69, 0
1, 142621, Note_on_c, 0, 66, 63
1, 142680, Note_on_c, 0, 66, 0
1, 142681, Note_on_c, 0, 67, 63
1, 142740, Note_on_c, 0, 67, 0
1, 142741, Note_on_c, 0, 64, 63
1, 142800, Note_on_c, 0, 64, 0
1, 142801, Note_on_c, 0, 62, 63
1, 142802, Note_on_c, 3, 38, 31
1, 142860, Note_on_c, 3, 38, 0
1, 142861, Note_on_c, 3, 50, 31
1, 142920, Note_on_c, 3, 50, 0
1, 142921, Note_on_c, 3, 36, 31
1, 142980, Note_on_c, 3, 36, 0
1, 142981, Note_on_c, 3, 48, 31
1, 143040, Note_on_c, 0, 62, 0
1, 143040, Note_on_c, 3, 48, 0
1, 143041, Note_on_c, 3, 35, 47
1, 143100, Note_on_c, 3, 35, 0
1, 143101, Note_on_c, 3, 47, 47
1, 143160, Note_on_c, 3, 47, 0
1, 143161, Note_on_c, 3, 33, 47
1, 143220, Note_on_c, 3, 33, 0
1, 143221, Note_on_c, 3, 45, 47
1, 143280, Note_on_c, 3, 45, 0
1, 143281, Note_on_c, 3, 31, 47
1, 143282, Note_on_c, 0, 67, 63
1, 143460, Note_on_c, 0, 67, 0
1, 143461, Note_on_c, 0, 71, 63
1, 143490, Note_on_c, 0, 71, 0
1, 143491, Note_on_c, 0, 69, 63
1, 143520, Note_on_c, 0, 69, 0
1, 143520, Note_on_c, 3, 31, 0
1, 143521, Note_on_c, 0, 67, 63
1, 143521, Note_on_c, 3, 59, 47
1, 143522, Note_on_c, 4, 55, 47
1, 143580, Note_on_c, 0, 67, 0
1, 143580, Note_on_c, 3, 59, 0
1, 143580, Note_on_c, 4, 55, 0
1, 143581, Note_on_c, 0, 62, 63
1, 143640, Note_on_c, 0, 62, 0
1, 143641, Note_on_c, 0, 71, 63
1, 143642, Note_on_c, 3, 59, 50
1, 143642, Note_on_c, 4, 55, 50
1, 143700, Note_on_c, 0, 71, 0
1, 143700, Note_on_c, 3, 59, 0
1, 143700, Note_on_c, 4, 55, 0
1, 143701, Note_on_c, 0, 69, 63
1, 143760, Note_on_c, 0, 69, 0
1, 143761, Note_on_c, 0, 67, 63
1, 143762, Note_on_c, 3, 59, 50
1, 143762, Note_on_c, 4, 55, 50
1, 143820, Note_on_c, 0, 67, 0
1, 143820, Note_on_c, 3, 59, 0
1, 143820, Note_on_c, 4, 55, 0
1, 143821, Note_on_c, 0, 62, 63
1, 143880, Note_on_c, 0, 62, 0
1, 143881, Note_on_c, 0, 67, 63
1, 143882, Note_on_c, 3, 59, 50
1, 143882, Note_on_c, 4, 55, 50
1, 143940, Note_on_c, 0, 67, 0
1, 143940, Note_on_c, 3, 59, 0
1, 143940, Note_on_c, 4, 55, 0
1, 143941, Note_on_c, 0, 71, 63
1, 144000, Note_on_c, 0, 71, 0
1, 144001, Note_on_c, 0, 74, 63
1, 144002, Note_on_c, 3, 59, 50
1, 144002, Note_on_c, 4, 55, 50
1, 144060, Note_on_c, 0, 74, 0
1, 144060, Note_on_c, 3, 59, 0
1, 144060, Note_on_c, 4, 55, 0
1, 144061, Note_on_c, 0, 71, 63
1, 144120, Note_on_c, 0, 71, 0
1, 144121, Note_on_c, 0, 69, 63
1, 144122, Note_on_c, 3, 59, 50
1, 144122, Note_on_c, 4, 55, 50
1, 144180, Note_on_c, 0, 69, 0
1, 144180, Note_on_c, 3, 59, 0
1, 144180, Note_on_c, 4, 55, 0
1, 144181, Note_on_c, 0, 67, 63
1, 144240, Note_on_c, 0, 67, 0
1, 144241, Note_on_c, 0, 71, 63
1, 144242, Note_on_c, 3, 60, 50
1, 144242, Note_on_c, 4, 55, 50
1, 144300, Note_on_c, 0, 71, 0
1, 144301, Note_on_c, 0, 69, 63
1, 144360, Note_on_c, 0, 69, 0
1, 144361, Note_on_c, 0, 67, 63
1, 144420, Note_on_c, 0, 67, 0
1, 144421, Note_on_c, 0, 69, 63
1, 144480, Note_on_c, 0, 69, 0
1, 144480, Note_on_c, 3, 60, 0
1, 144481, Note_on_c, 0, 67, 63
1, 144481, Note_on_c, 3, 59, 50
1, 144600, Note_on_c, 0, 67, 0
1, 144600, Note_on_c, 3, 59, 0
1, 144600, Note_on_c, 4, 55, 0
1, 144601, Note_on_c, 0, 88, 81
1, 144660, Note_on_c, 0, 88, 0
1, 144661, Note_on_c, 0, 76, 81
1, 144720, Note_on_c, 0, 76, 0
1, 144721, Note_on_c, 0, 88, 81
1, 144722, Note_on_c, 1, 74, 63
1, 144722, Note_on_c, 2, 71, 63
1, 144780, Note_on_c, 0, 88, 0
1, 144780, Note_on_c, 1, 74, 0
1, 144780, Note_on_c, 2, 71, 0
1, 144781, Note_on_c, 0, 76, 81
1, 144840, Note_on_c, 0, 76, 0
1, 144841, Note_on_c, 0, 88, 81
1, 144842, Note_on_c, 1, 74, 63
1, 144842, Note_on_c, 2, 71, 63
1, 144900, Note_on_c, 0, 88, 0
1, 144900, Note_on_c, 1, 74, 0
1, 144900, Note_on_c, 2, 71, 0
1, 144901, Note_on_c, 0, 76, 81
1, 144960, Note_on_c, 0, 76, 0
1, 144961, Note_on_c, 0, 88, 81
1, 144962, Note_on_c, 1, 74, 63
1, 144962, Note_on_c, 2, 71, 63
1, 145020, Note_on_c, 0, 88, 0
1, 145020, Note_on_c, 1, 74, 0
1, 145020, Note_on_c, 2, 71, 0
1, 145021, Note_on_c, 0, 76, 81
1, 145080, Note_on_c, 0, 76, 0
1, 145081, Note_on_c, 0, 88, 81
1, 145082, Note_on_c, 1, 74, 63
1, 145082, Note_on_c, 2, 71, 63
1, 145140, Note_on_c, 0, 88, 0
1, 145140, Note_on_c, 1, 74, 0
1, 145140, Note_on_c, 2, 71, 0
1, 145141, Note_on_c, 0, 76, 81
1, 145200, Note_on_c, 0, 76, 0
1, 145201, Note_on_c, 0, 88, 81
1, 145202, Note_on_c, 1, 72, 63
1, 145202, Note_on_c, 2, 69, 63
1, 145350, Note_on_c, 0, 88, 0
1, 145351, Note_on_c, 0, 86, 81
1, 145380, Note_on_c, 0, 86, 0
1, 145381, Note_on_c, 0, 84, 81
1, 145410, Note_on_c, 0, 84, 0
1, 145411, Note_on_c, 0, 83, 81
1, 145440, Note_on_c, 0, 83, 0
1, 145440, Note_on_c, 1, 72, 0
1, 145440, Note_on_c, 2, 69, 0
1, 145441, Note_on_c, 0, 81, 81
1, 145500, Note_on_c, 0, 81, 0
1, 145562, Note_on_c, 0, 86, 63
1, 145562, Note_on_c, 1, 72, 36
1, 145562, Note_on_c, 2, 66, 31
1, 145620, Note_on_c, 0, 86, 0
1, 145620, Note_on_c, 1, 72, 0
1, 145620, Note_on_c, 2, 66, 0
1, 145621, Note_on_c, 0, 74, 36
1, 145680, Note_on_c, 0, 74, 0
1, 145681, Note_on_c, 0, 86, 36
1, 145682, Note_on_c, 1, 72, 31
1, 145682, Note_on_c, 2, 66, 31
1, 145740, Note_on_c, 0, 86, 0
1, 145740, Note_on_c, 1, 72, 0
1, 145740, Note_on_c, 2, 66, 0
1, 145741, Note_on_c, 0, 74, 34
1, 145800, Note_on_c, 0, 74, 0
1, 145801, Note_on_c, 0, 86, 31
1, 145802, Note_on_c, 1, 72, 28
1, 145802, Note_on_c, 2, 66, 28
1, 145860, Note_on_c, 0, 86, 0
1, 145860, Note_on_c, 1, 72, 0
1, 145860, Note_on_c, 2, 66, 0
1, 145861, Note_on_c, 0, 74, 31
1, 145920, Note_on_c, 0, 74, 0
1, 145921, Note_on_c, 0, 86, 31
1, 145922, Note_on_c, 1, 72, 28
1, 145922, Note_on_c, 2, 66, 28
1, 145980, Note_on_c, 0, 86, 0
1, 145980, Note_on_c, 1, 72, 0
1, 145980, Note_on_c, 2, 66, 0
1, 145981, Note_on_c, 0, 74, 31
1, 146040, Note_on_c, 0, 74, 0
1, 146041, Note_on_c, 0, 86, 31
1, 146042, Note_on_c, 1, 72, 28
1, 146042, Note_on_c, 2, 66, 28
1, 146100, Note_on_c, 0, 86, 0
1, 146100, Note_on_c, 1, 72, 0
1, 146100, Note_on_c, 2, 66, 0
1, 146101, Note_on_c, 0, 74, 31
1, 146160, Note_on_c, 0, 74, 0
1, 146161, Note_on_c, 0, 86, 31
1, 146162, Note_on_c, 1, 71, 28
1, 146162, Note_on_c, 2, 67, 28
1, 146310, Note_on_c, 0, 86, 0
1, 146311, Note_on_c, 0, 84, 31
1, 146340, Note_on_c, 0, 84, 0
1, 146341, Note_on_c, 0, 83, 31
1, 146370, Note_on_c, 0, 83, 0
1, 146371, Note_on_c, 0, 81, 31
1, 146400, Note_on_c, 0, 81, 0
1, 146400, Note_on_c, 1, 71, 0
1, 146400, Note_on_c, 2, 67, 0
1, 146401, Note_on_c, 0, 79, 31
1, 146460, Note_on_c, 0, 79, 0
1, 147482, Note_on_c, 0, 86, 63
1, 147510, Note_on_c, 0, 86, 0
1, 147511, Note_on_c, 0, 84, 63
1, 147540, Note_on_c, 0, 84, 0
1, 147541, Note_on_c, 0, 83, 63
1, 147570, Note_on_c, 0, 83, 0
1, 147571, Note_on_c, 0, 81, 63
1, 147600, Note_on_c, 0, 81, 0
1, 147601, Note_on_c, 0, 79, 63
1, 147660, Note_on_c, 0, 79, 0
1, 147722, Note_on_c, 0, 83, 63
1, 147750, Note_on_c, 0, 83, 0
1, 147751, Note_on_c, 0, 81, 63
1, 147780, Note_on_c, 0, 81, 0
1, 147781, Note_on_c, 0, 79, 63
1, 147810, Note_on_c, 0, 79, 0
1, 147811, Note_on_c, 0, 78, 63
1, 147840, Note_on_c, 0, 78, 0
1, 147841, Note_on_c, 0, 76, 63
1, 147900, Note_on_c, 0, 76, 0
1, 147962, Note_on_c, 0, 79, 63
1, 147990, Note_on_c, 0, 79, 0
1, 147991, Note_on_c, 0, 78, 63
1, 148020, Note_on_c, 0, 78, 0
1, 148021, Note_on_c, 0, 76, 63
1, 148050, Note_on_c, 0, 76, 0
1, 148051, Note_on_c, 0, 74, 63
1, 148080, Note_on_c, 0, 74, 0
1, 148081, Note_on_c, 0, 72, 63
1, 148082, Note_on_c, 1, 67, 47
1, 148082, Note_on_c, 2, 64, 47
1, 148320, Note_on_c, 0, 72, 0
1, 148320, Note_on_c, 1, 67, 0
1, 148320, Note_on_c, 2, 64, 0
1, 148442, Note_on_c, 0, 79, 63
1, 148470, Note_on_c, 0, 79, 0
1, 148471, Note_on_c, 0, 77, 63
1, 148500, Note_on_c, 0, 77, 0
1, 148501, Note_on_c, 0, 75, 63
1, 148530, Note_on_c, 0, 75, 0
1, 148531, Note_on_c, 0, 74, 63
1, 148560, Note_on_c, 0, 74, 0
1, 148561, Note_on_c, 0, 72, 63
1, 148562, Note_on_c, 1, 63, 47
1, 148620, Note_on_c, 0, 72, 0
1, 148620, Note_on_c, 1, 63, 0
1, 148621, Note_on_c, 1, 67, 47
1, 148680, Note_on_c, 1, 67, 0
1, 148681, Note_on_c, 1, 63, 47
1, 148682, Note_on_c, 0, 83, 63
1, 148740, Note_on_c, 1, 63, 0
1, 148741, Note_on_c, 1, 67, 47
1, 148800, Note_on_c, 0, 83, 0
1, 148800, Note_on_c, 1, 67, 0
1, 148801, Note_on_c, 0, 84, 63
1, 148801, Note_on_c, 1, 63, 47
1, 148860, Note_on_c, 1, 63, 0
1, 148861, Note_on_c, 1, 67, 47
1, 148920, Note_on_c, 0, 84, 0
1, 148920, Note_on_c, 1, 67, 0
1, 148921, Note_on_c, 0, 84, 63
1, 148921, Note_on_c, 1, 63, 47
1, 148980, Note_on_c, 0, 84, 0
1, 148980, Note_on_c, 1, 63, 0
1, 148981, Note_on_c, 1, 67, 63
1, 149040, Note_on_c, 1, 67, 0
1, 149041, Note_on_c, 1, 66, 63
1, 149042, Note_on_c, 0, 84, 81
1, 149042, Note_on_c, 2, 62, 63
1, 149100, Note_on_c, 0, 84, 0
1, 149101, Note_on_c, 0, 83, 81
1, 149160, Note_on_c, 0, 83, 0
1, 149161, Note_on_c, 0, 84, 81
1, 149220, Note_on_c, 0, 84, 0
1, 149221, Note_on_c, 0, 81, 81
1, 149280, Note_on_c, 0, 81, 0
1, 149280, Note_on_c, 1, 66, 0
1, 149280, Note_on_c, 2, 62, 0
1, 149281, Note_on_c, 0, 83, 81
1, 149281, Note_on_c, 1, 67, 63
1, 149340, Note_on_c, 0, 83, 0
1, 149341, Note_on_c, 0, 81, 81
1, 149400, Note_on_c, 0, 81, 0
1, 149401, Note_on_c, 0, 83, 81
1, 149460, Note_on_c, 0, 83, 0
1, 149461, Note_on_c, 0, 79, 81
1, 149520, Note_on_c, 0, 79, 0
1, 149520, Note_on_c, 1, 67, 0
1, 149521, Note_on_c, 0, 81, 81
1, 149521, Note_on_c, 1, 72, 63
1, 149522, Note_on_c, 2, 60, 63
1, 149580, Note_on_c, 0, 81, 0
1, 149581, Note_on_c, 0, 80, 81
1, 149640, Note_on_c, 0, 80, 0
1, 149641, Note_on_c, 0, 81, 81
1, 149700, Note_on_c, 0, 81, 0
1, 149701, Note_on_c, 0, 76, 81
1, 149760, Note_on_c, 0, 76, 0
1, 149760, Note_on_c, 1, 72, 0
1, 149760, Note_on_c, 2, 60, 0
1, 149761, Note_on_c, 0, 79, 81
1, 149761, Note_on_c, 1, 72, 63
1, 149761, Note_on_c, 2, 62, 63
1, 149820, Note_on_c, 0, 79, 0
1, 149821, Note_on_c, 0, 78, 81
1, 149880, Note_on_c, 0, 78, 0
1, 149881, Note_on_c, 0, 76, 81
1, 149940, Note_on_c, 0, 76, 0
1, 149941, Note_on_c, 0, 74, 81
1, 150000, Note_on_c, 0, 74, 0
1, 150000, Note_on_c, 1, 72, 0
1, 150000, Note_on_c, 2, 62, 0
1, 150001, Note_on_c, 0, 79, 81
1, 150001, Note_on_c, 1, 71, 63
1, 150001, Note_on_c, 2, 67, 63
1, 150060, Note_on_c, 0, 79, 0
1, 150061, Note_on_c, 0, 74, 81
1, 150120, Note_on_c, 0, 74, 0
1, 150120, Note_on_c, 1, 71, 0
1, 150120, Note_on_c, 2, 67, 0
1, 150121, Note_on_c, 0, 79, 81
1, 150121, Note_on_c, 1, 71, 63
1, 150121, Note_on_c, 2, 67, 63
1, 150180, Note_on_c, 0, 79, 0
1, 150181, Note_on_c, 0, 83, 81
1, 150240, Note_on_c, 0, 83, 0
1, 150240, Note_on_c, 1, 71, 0
1, 150240, Note_on_c, 2, 67, 0
1, 150241, Note_on_c, 0, 86, 81
1, 150241, Note_on_c, 1, 71, 63
1, 150241, Note_on_c, 2, 67, 63
1, 150300, Note_on_c, 0, 86, 0
1, 150301, Note_on_c, 0, 83, 81
1, 150360, Note_on_c, 0, 83, 0
1, 150360, Note_on_c, 1, 71, 0
1, 150360, Note_on_c, 2, 67, 0
1, 150361, Note_on_c, 0, 81, 81
1, 150361, Note_on_c, 1, 71, 63
1, 150361, Note_on_c, 2, 67, 63
1, 150420, Note_on_c, 0, 81, 0
1, 150421, Note_on_c, 0, 79, 81
1, 150480, Note_on_c, 0, 79, 0
1, 150480, Note_on_c, 1, 71, 0
1, 150480, Note_on_c, 2, 67, 0
1, 150481, Note_on_c, 0, 78, 81
1, 150481, Note_on_c, 1, 72, 63
1, 150481, Note_on_c, 2, 67, 63
1, 150540, Note_on_c, 0, 78, 0
1, 150541, Note_on_c, 0, 74, 81
1, 150600, Note_on_c, 0, 74, 0
1, 150600, Note_on_c, 1, 72, 0
1, 150600, Note_on_c, 2, 67, 0
1, 150601, Note_on_c, 0, 78, 81
1, 150601, Note_on_c, 1, 72, 63
1, 150601, Note_on_c, 2, 67, 63
1, 150660, Note_on_c, 0, 78, 0
1, 150661, Note_on_c, 0, 81, 81
1, 150720, Note_on_c, 0, 81, 0
1, 150720, Note_on_c, 1, 72, 0
1, 150720, Note_on_c, 2, 67, 0
1, 150721, Note_on_c, 0, 84, 81
1, 150721, Note_on_c, 1, 72, 63
1, 150721, Note_on_c, 2, 67, 63
1, 150780, Note_on_c, 0, 84, 0
1, 150781, Note_on_c, 0, 81, 81
1, 150840, Note_on_c, 0, 81, 0
1, 150840, Note_on_c, 1, 72, 0
1, 150840, Note_on_c, 2, 67, 0
1, 150841, Note_on_c, 0, 79, 81
1, 150841, Note_on_c, 1, 72, 63
1, 150841, Note_on_c, 2, 67, 63
1, 150900, Note_on_c, 0, 79, 0
1, 150901, Note_on_c, 0, 78, 81
1, 150960, Note_on_c, 0, 78, 0
1, 150960, Note_on_c, 1, 72, 0
1, 150960, Note_on_c, 2, 67, 0
1, 150961, Note_on_c, 0, 79, 81
1, 150961, Note_on_c, 1, 71, 63
1, 150961, Note_on_c, 2, 67, 63
1, 151020, Note_on_c, 0, 79, 0
1, 151021, Note_on_c, 0, 74, 81
1, 151080, Note_on_c, 0, 74, 0
1, 151080, Note_on_c, 1, 71, 0
1, 151080, Note_on_c, 2, 67, 0
1, 151081, Note_on_c, 0, 79, 81
1, 151081, Note_on_c, 1, 71, 63
1, 151081, Note_on_c, 2, 67, 63
1, 151140, Note_on_c, 0, 79, 0
1, 151141, Note_on_c, 0, 83, 81
1, 151200, Note_on_c, 0, 83, 0
1, 151200, Note_on_c, 1, 71, 0
1, 151200, Note_on_c, 2, 67, 0
1, 151201, Note_on_c, 0, 86, 81
1, 151201, Note_on_c, 1, 71, 63
1, 151201, Note_on_c, 2, 67, 63
1, 151260, Note_on_c, 0, 86, 0
1, 151261, Note_on_c, 0, 83, 81
1, 151320, Note_on_c, 0, 83, 0
1, 151320, Note_on_c, 1, 71, 0
1, 151320, Note_on_c, 2, 67, 0
1, 151321, Note_on_c, 0, 81, 81
1, 151321, Note_on_c, 1, 71, 63
1, 151321, Note_on_c, 2, 67, 63
1, 151380, Note_on_c, 0, 81, 0
1, 151381, Note_on_c, 0, 79, 81
1, 151440, Note_on_c, 0, 79, 0
1, 151440, Note_on_c, 1, 71, 0
1, 151440, Note_on_c, 2, 67, 0
1, 151441, Note_on_c, 0, 78, 81
1, 151441, Note_on_c, 1, 72, 63
1, 151441, Note_on_c, 2, 67, 63
1, 151500, Note_on_c, 0, 78, 0
1, 151501, Note_on_c, 0, 74, 81
1, 151560, Note_on_c, 0, 74, 0
1, 151560, Note_on_c, 1, 72, 0
1, 151560, Note_on_c, 2, 67, 0
1, 151561, Note_on_c, 0, 78, 81
1, 151561, Note_on_c, 1, 72, 63
1, 151561, Note_on_c, 2, 67, 63
1, 151620, Note_on_c, 0, 78, 0
1, 151621, Note_on_c, 0, 81, 81
1, 151680, Note_on_c, 0, 81, 0
1, 151680, Note_on_c, 1, 72, 0
1, 151680, Note_on_c, 2, 67, 0
1, 151681, Note_on_c, 0, 84, 81
1, 151681, Note_on_c, 1, 72, 63
1, 151681, Note_on_c, 2, 67, 63
1, 151740, Note_on_c, 0, 84, 0
1, 151741, Note_on_c, 0, 81, 81
1, 151800, Note_on_c, 0, 81, 0
1, 151800, Note_on_c, 1, 72, 0
1, 151800, Note_on_c, 2, 67, 0
1, 151801, Note_on_c, 0, 79, 81
1, 151801, Note_on_c, 1, 72, 63
1, 151801, Note_on_c, 2, 67, 63
1, 151860, Note_on_c, 0, 79, 0
1, 151861, Note_on_c, 0, 78, 81
1, 151920, Note_on_c, 0, 78, 0
1, 151920, Note_on_c, 1, 72, 0
1, 151920, Note_on_c, 2, 67, 0
1, 151921, Note_on_c, 0, 79, 81
1, 151921, Note_on_c, 1, 71, 63
1, 151921, Note_on_c, 2, 67, 63
1, 151980, Note_on_c, 0, 79, 0
1, 151981, Note_on_c, 0, 83, 81
1, 152040, Note_on_c, 0, 83, 0
1, 152041, Note_on_c, 0, 79, 81
1, 152100, Note_on_c, 0, 79, 0
1, 152101, Note_on_c, 0, 74, 81
1, 152160, Note_on_c, 0, 74, 0
1, 152160, Note_on_c, 1, 71, 0
1, 152160, Note_on_c, 2, 67, 0
1, 152161, Note_on_c, 0, 71, 81
1, 152220, Note_on_c, 0, 71, 0
1, 152221, Note_on_c, 0, 67, 81
1, 152280, Note_on_c, 0, 67, 0
1, 152281, Note_on_c, 0, 62, 81
1, 152340, Note_on_c, 0, 62, 0
1, 152342, Note_on_c, 3, 59, 63
1, 152400, Note_on_c, 3, 59, 0
1, 152401, Note_on_c, 3, 55, 63
1, 152460, Note_on_c, 3, 55, 0
1, 152470, End_track
0, 0, End_of_file