0, 0, Header, 0, 1, 192
1, 0, Start_track
1, 0, Tempo, 500000
1, 0, Note_on_c, 0, 69, 75
1, 0, Note_on_c, 1, 61, 75
1, 0, Note_on_c, 1, 57, 75
1, 45, Note_on_c, 0, 69, 0
1, 48, Note_on_c, 0, 71, 75
1, 93, Note_on_c, 0, 71, 0
1, 93, Note_on_c, 1, 57, 0
1, 93, Note_on_c, 1, 61, 0
1, 96, Note_on_c, 0, 73, 75
1, 96, Note_on_c, 1, 61, 75
1, 96, Note_on_c, 1, 57, 75
1, 141, Note_on_c, 0, 73, 0
1, 144, Note_on_c, 0, 74, 75
1, 189, Note_on_c, 0, 74, 0
1, 189, Note_on_c, 1, 57, 0
1, 189, Note_on_c, 1, 61, 0
1, 192, Note_on_c, 0, 76, 75
1, 192, Note_on_c, 1, 61, 75
1, 192, Note_on_c, 1, 57, 75
1, 237, Note_on_c, 0, 76, 0
1, 240, Note_on_c, 0, 78, 75
1, 285, Note_on_c, 0, 78, 0
1, 285, Note_on_c, 1, 57, 0
1, 285, Note_on_c, 1, 61, 0
1, 288, Note_on_c, 0, 80, 75
1, 288, Note_on_c, 1, 61, 75
1, 288, Note_on_c, 1, 57, 75
1, 333, Note_on_c, 0, 80, 0
1, 336, Note_on_c, 0, 81, 75
1, 381, Note_on_c, 0, 81, 0
1, 381, Note_on_c, 1, 57, 0
1, 381, Note_on_c, 1, 61, 0
1, 384, Note_on_c, 0, 78, 75
1, 384, Note_on_c, 1, 62, 75
1, 384, Note_on_c, 1, 57, 75
1, 405, Note_on_c, 0, 78, 0
1, 408, Note_on_c, 0, 80, 75
1, 429, Note_on_c, 0, 80, 0
1, 432, Note_on_c, 0, 78, 75
1, 453, Note_on_c, 0, 78, 0
1, 456, Note_on_c, 0, 80, 75
1, 477, Note_on_c, 0, 80, 0
1, 477, Note_on_c, 1, 57, 0
1, 477, Note_on_c, 1, 62, 0
1, 480, Note_on_c, 0, 76, 75
1, 480, Note_on_c, 1, 61, 75
1, 480, Note_on_c, 1, 57, 75
1, 573, Note_on_c, 0, 76, 0
1, 573, Note_on_c, 1, 57, 0
1, 573, Note_on_c, 1, 61, 0
1, 576, Note_on_c, 1, 61, 75
1, 576, Note_on_c, 1, 57, 75
1, 669, Note_on_c, 1, 57, 0
1, 669, Note_on_c, 1, 61, 0
1, 672, Note_on_c, 0, 81, 75
1, 672, Note_on_c, 1, 61, 75
1, 672, Note_on_c, 1, 57, 75
1, 765, Note_on_c, 0, 81, 0
1, 765, Note_on_c, 1, 57, 0
1, 765, Note_on_c, 1, 61, 0
1, 768, Note_on_c, 0, 80, 75
1, 801, Note_on_c, 0, 80, 0
1, 804, Note_on_c, 0, 81, 75
1, 825, Note_on_c, 0, 81, 0
1, 828, Note_on_c, 0, 83, 75
1, 861, Note_on_c, 0, 83, 0
1, 864, Note_on_c, 0, 74, 75
1, 864, Note_on_c, 1, 52, 60
1, 864, Note_on_c, 1, 59, 60
1, 957, Note_on_c, 0, 74, 0
1, 957, Note_on_c, 1, 59, 0
1, 957, Note_on_c, 1, 52, 0
1, 960, Note_on_c, 0, 73, 75
1, 960, Note_on_c, 1, 57, 60
1, 960, Note_on_c, 1, 52, 60
1, 984, Note_on_c, 0, 73, 0
1, 984, Note_on_c, 0, 74, 74
1, 1008, Note_on_c, 0, 74, 0
1, 1008, Note_on_c, 0, 73, 73
1, 1032, Note_on_c, 0, 73, 0
1, 1032, Note_on_c, 0, 74, 72
1, 1053, Note_on_c, 1, 52, 0
1, 1053, Note_on_c, 1, 57, 0
1, 1056, Note_on_c, 0, 74, 0
1, 1056, Note_on_c, 0, 71, 71
1, 1056, Note_on_c, 1, 56, 60
1, 1056, Note_on_c, 1, 52, 60
1, 1149, Note_on_c, 0, 71, 0
1, 1149, Note_on_c, 1, 52, 0
1, 1149, Note_on_c, 1, 56, 0
1, 1152, Note_on_c, 0, 73, 70
1, 1185, Note_on_c, 0, 73, 0
1, 1188, Note_on_c, 0, 74, 69
1, 1209, Note_on_c, 0, 74, 0
1, 1212, Note_on_c, 0, 76, 68
1, 1245, Note_on_c, 0, 76, 0
1, 1248, Note_on_c, 0, 69, 67
1, 1248, Note_on_c, 1, 61, 60
1, 1248, Note_on_c, 1, 57, 60
1, 1341, Note_on_c, 0, 69, 0
1, 1341, Note_on_c, 1, 57, 0
1, 1341, Note_on_c, 1, 61, 0
1, 1344, Note_on_c, 1, 64, 60
1, 1344, Note_on_c, 1, 61, 60
1, 1437, Note_on_c, 1, 61, 0
1, 1437, Note_on_c, 1, 64, 0
1, 1440, Note_on_c, 0, 81, 45
1, 1440, Note_on_c, 1, 61, 45
1, 1440, Note_on_c, 1, 57, 45
1, 1533, Note_on_c, 0, 81, 0
1, 1533, Note_on_c, 1, 57, 0
1, 1533, Note_on_c, 1, 61, 0
1, 1536, Note_on_c, 0, 80, 45
1, 1569, Note_on_c, 0, 80, 0
1, 1572, Note_on_c, 0, 81, 45
1, 1593, Note_on_c, 0, 81, 0
1, 1596, Note_on_c, 0, 83, 45
1, 1629, Note_on_c, 0, 83, 0
1, 1632, Note_on_c, 0, 74, 45
1, 1632, Note_on_c, 1, 52, 45
1, 1632, Note_on_c, 1, 59, 45
1, 1725, Note_on_c, 0, 74, 0
1, 1725, Note_on_c, 1, 59, 0
1, 1725, Note_on_c, 1, 52, 0
1, 1728, Note_on_c, 0, 73, 45
1, 1728, Note_on_c, 1, 57, 45
1, 1728, Note_on_c, 1, 52, 45
1, 1752, Note_on_c, 0, 73, 0
1, 1752, Note_on_c, 0, 74, 45
1, 1776, Note_on_c, 0, 74, 0
1, 1776, Note_on_c, 0, 73, 45
1, 1800, Note_on_c, 0, 73, 0
1, 1800, Note_on_c, 0, 74, 45
1, 1821, Note_on_c, 0, 74, 0
1, 1821, Note_on_c, 1, 52, 0
1, 1821, Note_on_c, 1, 57, 0
1, 1824, Note_on_c, 0, 71, 45
1, 1824, Note_on_c, 1, 56, 45
1, 1824, Note_on_c, 1, 52, 45
1, 1917, Note_on_c, 0, 71, 0
1, 1917, Note_on_c, 1, 52, 0
1, 1917, Note_on_c, 1, 56, 0
1, 1920, Note_on_c, 0, 73, 45
1, 1953, Note_on_c, 0, 73, 0
1, 1956, Note_on_c, 0, 74, 45
1, 1977, Note_on_c, 0, 74, 0
1, 1980, Note_on_c, 0, 76, 45
1, 2013, Note_on_c, 0, 76, 0
1, 2016, Note_on_c, 0, 69, 45
1, 2016, Note_on_c, 1, 57, 45
1, 2016, Note_on_c, 1, 61, 45
1, 2109, Note_on_c, 0, 69, 0
1, 2109, Note_on_c, 1, 61, 0
1, 2109, Note_on_c, 1, 57, 0
1, 2112, Note_on_c, 1, 64, 45
1, 2112, Note_on_c, 1, 61, 45
1, 2205, Note_on_c, 1, 61, 0
1, 2205, Note_on_c, 1, 64, 0
1, 2208, Note_on_c, 0, 81, 75
1, 2208, Note_on_c, 1, 61, 75
1, 2208, Note_on_c, 1, 57, 75
1, 2229, Note_on_c, 0, 81, 0
1, 2232, Note_on_c, 0, 83, 75
1, 2253, Note_on_c, 0, 83, 0
1, 2256, Note_on_c, 0, 81, 75
1, 2277, Note_on_c, 0, 81, 0
1, 2280, Note_on_c, 0, 83, 75
1, 2301, Note_on_c, 0, 83, 0
1, 2301, Note_on_c, 1, 57, 0
1, 2301, Note_on_c, 1, 61, 0
1, 2304, Note_on_c, 0, 81, 75
1, 2349, Note_on_c, 0, 81, 0
1, 2352, Note_on_c, 0, 78, 75
1, 2397, Note_on_c, 0, 78, 0
1, 2400, Note_on_c, 0, 76, 75
1, 2400, Note_on_c, 1, 69, 75
1, 2400, Note_on_c, 1, 71, 75
1, 2445, Note_on_c, 0, 76, 0
1, 2448, Note_on_c, 0, 75, 75
1, 2493, Note_on_c, 0, 75, 0
1, 2493, Note_on_c, 1, 71, 0
1, 2493, Note_on_c, 1, 69, 0
1, 2496, Note_on_c, 0, 76, 75
1, 2496, Note_on_c, 1, 71, 75
1, 2496, Note_on_c, 1, 68, 75
1, 2529, Note_on_c, 0, 76, 0
1, 2532, Note_on_c, 0, 78, 75
1, 2553, Note_on_c, 0, 78, 0
1, 2556, Note_on_c, 0, 80, 75
1, 2589, Note_on_c, 0, 80, 0
1, 2589, Note_on_c, 1, 68, 0
1, 2589, Note_on_c, 1, 71, 0
1, 2592, Note_on_c, 0, 76, 75
1, 2592, Note_on_c, 1, 71, 75
1, 2592, Note_on_c, 1, 68, 75
1, 2685, Note_on_c, 0, 76, 0
1, 2685, Note_on_c, 1, 68, 0
1, 2685, Note_on_c, 1, 71, 0
1, 2688, Note_on_c, 0, 81, 75
1, 2733, Note_on_c, 0, 81, 0
1, 2736, Note_on_c, 0, 78, 75
1, 2781, Note_on_c, 0, 78, 0
1, 2784, Note_on_c, 0, 76, 75
1, 2784, Note_on_c, 1, 69, 75
1, 2784, Note_on_c, 1, 71, 75
1, 2829, Note_on_c, 0, 76, 0
1, 2832, Note_on_c, 0, 75, 75
1, 2877, Note_on_c, 0, 75, 0
1, 2877, Note_on_c, 1, 71, 0
1, 2877, Note_on_c, 1, 69, 0
1, 2880, Note_on_c, 0, 76, 75
1, 2880, Note_on_c, 1, 71, 76
1, 2880, Note_on_c, 1, 68, 76
1, 2913, Note_on_c, 0, 76, 0
1, 2916, Note_on_c, 0, 78, 75
1, 2937, Note_on_c, 0, 78, 0
1, 2940, Note_on_c, 0, 80, 75
1, 2973, Note_on_c, 0, 80, 0
1, 2973, Note_on_c, 1, 68, 0
1, 2973, Note_on_c, 1, 71, 0
1, 2976, Note_on_c, 0, 76, 75
1, 2976, Note_on_c, 1, 71, 77
1, 2976, Note_on_c, 1, 68, 77
1, 3069, Note_on_c, 0, 76, 0
1, 3069, Note_on_c, 1, 68, 0
1, 3069, Note_on_c, 1, 71, 0
1, 3072, Note_on_c, 0, 85, 92
1, 3072, Note_on_c, 1, 69, 92
1, 3108, Note_on_c, 0, 85, 0
1, 3108, Note_on_c, 0, 83, 92
1, 3132, Note_on_c, 0, 83, 0
1, 3132, Note_on_c, 0, 81, 92
1, 3165, Note_on_c, 0, 81, 0
1, 3165, Note_on_c, 1, 69, 0
1, 3168, Note_on_c, 0, 83, 92
1, 3168, Note_on_c, 1, 68, 92
1, 3204, Note_on_c, 0, 83, 0
1, 3204, Note_on_c, 0, 81, 92
1, 3228, Note_on_c, 0, 81, 0
1, 3228, Note_on_c, 0, 80, 92
1, 3261, Note_on_c, 0, 80, 0
1, 3261, Note_on_c, 1, 68, 0
1, 3264, Note_on_c, 0, 81, 92
1, 3264, Note_on_c, 1, 66, 92
1, 3300, Note_on_c, 0, 81, 0
1, 3300, Note_on_c, 0, 80, 92
1, 3324, Note_on_c, 0, 80, 0
1, 3324, Note_on_c, 0, 78, 92
1, 3357, Note_on_c, 0, 78, 0
1, 3357, Note_on_c, 1, 66, 0
1, 3360, Note_on_c, 0, 80, 92
1, 3360, Note_on_c, 1, 64, 92
1, 3396, Note_on_c, 0, 80, 0
1, 3396, Note_on_c, 0, 78, 92
1, 3420, Note_on_c, 0, 78, 0
1, 3420, Note_on_c, 0, 76, 92
1, 3453, Note_on_c, 0, 76, 0
1, 3453, Note_on_c, 1, 64, 0
1, 3456, Note_on_c, 0, 81, 92
1, 3456, Note_on_c, 1, 66, 92
1, 3492, Note_on_c, 0, 81, 0
1, 3492, Note_on_c, 0, 80, 92
1, 3516, Note_on_c, 0, 80, 0
1, 3516, Note_on_c, 0, 78, 92
1, 3549, Note_on_c, 0, 78, 0
1, 3549, Note_on_c, 1, 66, 0
1, 3552, Note_on_c, 0, 80, 92
1, 3552, Note_on_c, 1, 64, 92
1, 3588, Note_on_c, 0, 80, 0
1, 3588, Note_on_c, 0, 78, 92
1, 3612, Note_on_c, 0, 78, 0
1, 3612, Note_on_c, 0, 76, 92
1, 3645, Note_on_c, 0, 76, 0
1, 3645, Note_on_c, 1, 64, 0
1, 3648, Note_on_c, 0, 78, 92
1, 3648, Note_on_c, 1, 63, 92
1, 3684, Note_on_c, 0, 78, 0
1, 3684, Note_on_c, 0, 76, 92
1, 3708, Note_on_c, 0, 76, 0
1, 3708, Note_on_c, 0, 75, 92
1, 3741, Note_on_c, 0, 75, 0
1, 3741, Note_on_c, 1, 63, 0
1, 3744, Note_on_c, 0, 76, 92
1, 3744, Note_on_c, 1, 61, 92
1, 3780, Note_on_c, 0, 76, 0
1, 3780, Note_on_c, 0, 75, 92
1, 3804, Note_on_c, 0, 75, 0
1, 3804, Note_on_c, 0, 73, 92
1, 3837, Note_on_c, 0, 73, 0
1, 3837, Note_on_c, 1, 61, 0
1, 3840, Note_on_c, 0, 75, 92
1, 3873, Note_on_c, 0, 75, 0
1, 3876, Note_on_c, 0, 76, 92
1, 3897, Note_on_c, 0, 76, 0
1, 3900, Note_on_c, 0, 78, 92
1, 3933, Note_on_c, 0, 78, 0
1, 3936, Note_on_c, 0, 71, 92
1, 3936, Note_on_c, 1, 59, 92
1, 4029, Note_on_c, 0, 71, 0
1, 4029, Note_on_c, 1, 59, 0
1, 4032, Note_on_c, 1, 63, 92
1, 4080, Note_on_c, 0, 71, 92
1, 4125, Note_on_c, 0, 71, 0
1, 4125, Note_on_c, 1, 63, 0
1, 4128, Note_on_c, 0, 75, 92
1, 4128, Note_on_c, 1, 66, 92
1, 4173, Note_on_c, 0, 75, 0
1, 4176, Note_on_c, 0, 78, 92
1, 4221, Note_on_c, 0, 78, 0
1, 4221, Note_on_c, 1, 66, 0
1, 4224, Note_on_c, 0, 76, 75
1, 4257, Note_on_c, 0, 76, 0
1, 4260, Note_on_c, 0, 78, 75
1, 4281, Note_on_c, 0, 78, 0
1, 4284, Note_on_c, 0, 80, 75
1, 4317, Note_on_c, 0, 80, 0
1, 4320, Note_on_c, 0, 71, 75
1, 4320, Note_on_c, 1, 59, 75
1, 4413, Note_on_c, 0, 71, 0
1, 4413, Note_on_c, 1, 59, 0
1, 4416, Note_on_c, 1, 64, 75
1, 4464, Note_on_c, 0, 71, 75
1, 4509, Note_on_c, 0, 71, 0
1, 4509, Note_on_c, 1, 64, 0
1, 4512, Note_on_c, 0, 76, 75
1, 4512, Note_on_c, 1, 68, 75
1, 4557, Note_on_c, 0, 76, 0
1, 4560, Note_on_c, 0, 80, 75
1, 4605, Note_on_c, 0, 80, 0
1, 4605, Note_on_c, 1, 68, 0
1, 4608, Note_on_c, 0, 78, 75
1, 4641, Note_on_c, 0, 78, 0
1, 4644, Note_on_c, 0, 80, 75
1, 4665, Note_on_c, 0, 80, 0
1, 4668, Note_on_c, 0, 81, 75
1, 4701, Note_on_c, 0, 81, 0
1, 4704, Note_on_c, 0, 71, 75
1, 4704, Note_on_c, 1, 59, 75
1, 4797, Note_on_c, 0, 71, 0
1, 4797, Note_on_c, 1, 59, 0
1, 4800, Note_on_c, 1, 63, 75
1, 4848, Note_on_c, 0, 71, 92
1, 4893, Note_on_c, 0, 71, 0
1, 4893, Note_on_c, 1, 63, 0
1, 4896, Note_on_c, 0, 78, 92
1, 4896, Note_on_c, 1, 66, 92
1, 4941, Note_on_c, 0, 78, 0
1, 4944, Note_on_c, 0, 81, 92
1, 4989, Note_on_c, 0, 81, 0
1, 4989, Note_on_c, 1, 66, 0
1, 4992, Note_on_c, 0, 80, 92
1, 5025, Note_on_c, 0, 80, 0
1, 5028, Note_on_c, 0, 81, 92
1, 5049, Note_on_c, 0, 81, 0
1, 5052, Note_on_c, 0, 83, 92
1, 5085, Note_on_c, 0, 83, 0
1, 5088, Note_on_c, 0, 76, 75
1, 5088, Note_on_c, 1, 68, 75
1, 5088, Note_on_c, 1, 71, 75
1, 5181, Note_on_c, 0, 76, 0
1, 5181, Note_on_c, 1, 71, 0
1, 5181, Note_on_c, 1, 68, 0
1, 5184, Note_on_c, 0, 78, 75
1, 5184, Note_on_c, 1, 73, 75
1, 5184, Note_on_c, 1, 69, 75
1, 5208, Note_on_c, 0, 78, 0
1, 5208, Note_on_c, 0, 80, 75
1, 5232, Note_on_c, 0, 80, 0
1, 5232, Note_on_c, 0, 78, 75
1, 5256, Note_on_c, 0, 78, 0
1, 5256, Note_on_c, 0, 80, 75
1, 5277, Note_on_c, 0, 80, 0
1, 5277, Note_on_c, 1, 69, 0
1, 5277, Note_on_c, 1, 73, 0
1, 5280, Note_on_c, 0, 76, 60
1, 5280, Note_on_c, 1, 71, 60
1, 5280, Note_on_c, 1, 68, 60
1, 5373, Note_on_c, 0, 76, 0
1, 5373, Note_on_c, 1, 68, 0
1, 5373, Note_on_c, 1, 71, 0
1, 5376, Note_on_c, 0, 80, 45
1, 5409, Note_on_c, 0, 80, 0
1, 5412, Note_on_c, 0, 81, 45
1, 5433, Note_on_c, 0, 81, 0
1, 5436, Note_on_c, 0, 83, 45
1, 5469, Note_on_c, 0, 83, 0
1, 5472, Note_on_c, 0, 76, 45
1, 5472, Note_on_c, 1, 68, 45
1, 5472, Note_on_c, 1, 71, 45
1, 5565, Note_on_c, 0, 76, 0
1, 5565, Note_on_c, 1, 71, 0
1, 5565, Note_on_c, 1, 68, 0
1, 5568, Note_on_c, 0, 75, 45
1, 5568, Note_on_c, 1, 69, 45
1, 5568, Note_on_c, 1, 66, 45
1, 5661, Note_on_c, 0, 75, 0
1, 5661, Note_on_c, 1, 66, 0
1, 5661, Note_on_c, 1, 69, 0
1, 5664, Note_on_c, 0, 76, 45
1, 5664, Note_on_c, 1, 68, 45
1, 5664, Note_on_c, 1, 64, 45
1, 5757, Note_on_c, 0, 76, 0
1, 5757, Note_on_c, 1, 64, 0
1, 5757, Note_on_c, 1, 68, 0
1, 5760, Note_on_c, 1, 56, 60
1, 5805, Note_on_c, 1, 56, 0
1, 5808, Note_on_c, 1, 68, 60
1, 5853, Note_on_c, 1, 68, 0
1, 5856, Note_on_c, 0, 72, 60
1, 5856, Note_on_c, 0, 75, 60
1, 5856, Note_on_c, 1, 56, 60
1, 5901, Note_on_c, 1, 56, 0
1, 5904, Note_on_c, 1, 68, 60
1, 5949, Note_on_c, 0, 75, 0
1, 5949, Note_on_c, 0, 72, 0
1, 5949, Note_on_c, 1, 68, 0
1, 5952, Note_on_c, 0, 78, 60
1, 5952, Note_on_c, 0, 75, 60
1, 5952, Note_on_c, 1, 56, 60
1, 5997, Note_on_c, 1, 56, 0
1, 6000, Note_on_c, 1, 68, 60
1, 6045, Note_on_c, 0, 75, 0
1, 6045, Note_on_c, 0, 78, 0
1, 6045, Note_on_c, 1, 68, 0
1, 6048, Note_on_c, 0, 75, 60
1, 6048, Note_on_c, 0, 72, 60
1, 6048, Note_on_c, 1, 56, 60
1, 6093, Note_on_c, 1, 56, 0
1, 6096, Note_on_c, 1, 68, 60
1, 6141, Note_on_c, 0, 72, 0
1, 6141, Note_on_c, 0, 75, 0
1, 6141, Note_on_c, 1, 68, 0
1, 6144, Note_on_c, 1, 61, 60
1, 6189, Note_on_c, 1, 61, 0
1, 6192, Note_on_c, 1, 68, 60
1, 6237, Note_on_c, 1, 68, 0
1, 6240, Note_on_c, 0, 73, 60
1, 6240, Note_on_c, 0, 76, 60
1, 6240, Note_on_c, 1, 61, 60
1, 6285, Note_on_c, 1, 61, 0
1, 6288, Note_on_c, 1, 68, 60
1, 6333, Note_on_c, 0, 76, 0
1, 6333, Note_on_c, 0, 73, 0
1, 6333, Note_on_c, 1, 68, 0
1, 6336, Note_on_c, 0, 80, 60
1, 6336, Note_on_c, 0, 76, 60
1, 6336, Note_on_c, 1, 61, 60
1, 6381, Note_on_c, 1, 61, 0
1, 6384, Note_on_c, 1, 68, 60
1, 6429, Note_on_c, 0, 76, 0
1, 6429, Note_on_c, 0, 80, 0
1, 6429, Note_on_c, 1, 68, 0
1, 6432, Note_on_c, 0, 76, 60
1, 6432, Note_on_c, 0, 73, 60
1, 6432, Note_on_c, 1, 61, 60
1, 6477, Note_on_c, 1, 61, 0
1, 6480, Note_on_c, 1, 68, 60
1, 6525, Note_on_c, 0, 73, 0
1, 6525, Note_on_c, 0, 76, 0
1, 6525, Note_on_c, 1, 68, 0
1, 6528, Note_on_c, 1, 54, 75
1, 6573, Note_on_c, 1, 54, 0
1, 6576, Note_on_c, 1, 66, 75
1, 6621, Note_on_c, 1, 66, 0
1, 6624, Note_on_c, 0, 70, 75
1, 6624, Note_on_c, 0, 73, 75
1, 6624, Note_on_c, 1, 54, 75
1, 6669, Note_on_c, 1, 54, 0
1, 6672, Note_on_c, 1, 66, 75
1, 6717, Note_on_c, 0, 73, 0
1, 6717, Note_on_c, 0, 70, 0
1, 6717, Note_on_c, 1, 66, 0
1, 6720, Note_on_c, 0, 76, 75
1, 6720, Note_on_c, 0, 73, 75
1, 6720, Note_on_c, 1, 54, 75
1, 6765, Note_on_c, 1, 54, 0
1, 6768, Note_on_c, 1, 66, 75
1, 6813, Note_on_c, 0, 73, 0
1, 6813, Note_on_c, 0, 76, 0
1, 6813, Note_on_c, 1, 66, 0
1, 6816, Note_on_c, 0, 73, 75
1, 6816, Note_on_c, 0, 70, 75
1, 6816, Note_on_c, 1, 54, 75
1, 6861, Note_on_c, 1, 54, 0
1, 6864, Note_on_c, 1, 66, 75
1, 6909, Note_on_c, 0, 70, 0
1, 6909, Note_on_c, 0, 73, 0
1, 6909, Note_on_c, 1, 66, 0
1, 6912, Note_on_c, 1, 59, 75
1, 6957, Note_on_c, 1, 59, 0
1, 6960, Note_on_c, 1, 66, 75
1, 7005, Note_on_c, 1, 66, 0
1, 7008, Note_on_c, 0, 71, 75
1, 7008, Note_on_c, 0, 75, 75
1, 7008, Note_on_c, 1, 59, 75
1, 7053, Note_on_c, 1, 59, 0
1, 7056, Note_on_c, 1, 66, 75
1, 7101, Note_on_c, 0, 75, 0
1, 7101, Note_on_c, 0, 71, 0
1, 7101, Note_on_c, 1, 66, 0
1, 7104, Note_on_c, 0, 78, 75
1, 7104, Note_on_c, 0, 75, 75
1, 7104, Note_on_c, 1, 59, 75
1, 7149, Note_on_c, 1, 59, 0
1, 7152, Note_on_c, 1, 66, 75
1, 7197, Note_on_c, 0, 75, 0
1, 7197, Note_on_c, 0, 78, 0
1, 7197, Note_on_c, 1, 66, 0
1, 7200, Note_on_c, 0, 75, 75
1, 7200, Note_on_c, 0, 71, 75
1, 7200, Note_on_c, 1, 59, 75
1, 7245, Note_on_c, 1, 59, 0
1, 7248, Note_on_c, 1, 66, 75
1, 7293, Note_on_c, 0, 71, 0
1, 7293, Note_on_c, 0, 75, 0
1, 7293, Note_on_c, 1, 66, 0
1, 7296, Note_on_c, 1, 47, 92
1, 7341, Note_on_c, 1, 47, 0
1, 7344, Note_on_c, 1, 59, 92
1, 7389, Note_on_c, 1, 59, 0
1, 7392, Note_on_c, 0, 75, 92
1, 7392, Note_on_c, 0, 78, 92
1, 7392, Note_on_c, 1, 47, 92
1, 7437, Note_on_c, 1, 47, 0
1, 7440, Note_on_c, 1, 59, 92
1, 7485, Note_on_c, 0, 78, 0
1, 7485, Note_on_c, 0, 75, 0
1, 7485, Note_on_c, 1, 59, 0
1, 7488, Note_on_c, 0, 81, 92
1, 7488, Note_on_c, 0, 78, 92
1, 7488, Note_on_c, 1, 47, 92
1, 7533, Note_on_c, 1, 47, 0
1, 7536, Note_on_c, 1, 59, 92
1, 7581, Note_on_c, 0, 78, 0
1, 7581, Note_on_c, 0, 81, 0
1, 7581, Note_on_c, 1, 59, 0
1, 7584, Note_on_c, 0, 78, 92
1, 7584, Note_on_c, 0, 75, 92
1, 7584, Note_on_c, 1, 47, 92
1, 7629, Note_on_c, 1, 47, 0
1, 7632, Note_on_c, 1, 59, 92
1, 7677, Note_on_c, 0, 75, 0
1, 7677, Note_on_c, 0, 78, 0
1, 7677, Note_on_c, 1, 59, 0
1, 7680, Note_on_c, 1, 52, 92
1, 7725, Note_on_c, 1, 52, 0
1, 7728, Note_on_c, 1, 59, 92
1, 7773, Note_on_c, 1, 59, 0
1, 7776, Note_on_c, 0, 76, 92
1, 7776, Note_on_c, 0, 80, 92
1, 7776, Note_on_c, 1, 52, 92
1, 7821, Note_on_c, 1, 52, 0
1, 7824, Note_on_c, 1, 59, 92
1, 7869, Note_on_c, 0, 80, 0
1, 7869, Note_on_c, 0, 76, 0
1, 7869, Note_on_c, 1, 59, 0
1, 7872, Note_on_c, 0, 83, 92
1, 7872, Note_on_c, 0, 80, 92
1, 7872, Note_on_c, 1, 52, 92
1, 7917, Note_on_c, 1, 52, 0
1, 7920, Note_on_c, 1, 59, 92
1, 7965, Note_on_c, 0, 80, 0
1, 7965, Note_on_c, 0, 83, 0
1, 7965, Note_on_c, 1, 59, 0
1, 7968, Note_on_c, 0, 80, 92
1, 7968, Note_on_c, 0, 76, 92
1, 7968, Note_on_c, 1, 52, 92
1, 8013, Note_on_c, 1, 52, 0
1, 8016, Note_on_c, 1, 59, 92
1, 8061, Note_on_c, 0, 76, 0
1, 8061, Note_on_c, 0, 80, 0
1, 8061, Note_on_c, 1, 59, 0
1, 8064, Note_on_c, 1, 57, 75
1, 8109, Note_on_c, 1, 57, 0
1, 8112, Note_on_c, 1, 64, 75
1, 8157, Note_on_c, 1, 64, 0
1, 8160, Note_on_c, 0, 73, 75
1, 8160, Note_on_c, 1, 57, 75
1, 8181, Note_on_c, 0, 73, 0
1, 8184, Note_on_c, 0, 75, 75
1, 8205, Note_on_c, 0, 75, 0
1, 8205, Note_on_c, 1, 57, 0
1, 8208, Note_on_c, 0, 73, 75
1, 8208, Note_on_c, 1, 64, 75
1, 8229, Note_on_c, 0, 73, 0
1, 8232, Note_on_c, 0, 75, 75
1, 8253, Note_on_c, 0, 75, 0
1, 8253, Note_on_c, 1, 64, 0
1, 8256, Note_on_c, 0, 71, 75
1, 8256, Note_on_c, 1, 56, 75
1, 8301, Note_on_c, 1, 56, 0
1, 8304, Note_on_c, 1, 64, 75
1, 8349, Note_on_c, 0, 71, 0
1, 8349, Note_on_c, 1, 64, 0
1, 8352, Note_on_c, 0, 76, 75
1, 8352, Note_on_c, 1, 56, 75
1, 8397, Note_on_c, 1, 56, 0
1, 8400, Note_on_c, 1, 64, 75
1, 8445, Note_on_c, 0, 76, 0
1, 8445, Note_on_c, 1, 64, 0
1, 8448, Note_on_c, 1, 54, 75
1, 8493, Note_on_c, 1, 54, 0
1, 8496, Note_on_c, 1, 63, 75
1, 8541, Note_on_c, 1, 63, 0
1, 8544, Note_on_c, 0, 81, 60
1, 8544, Note_on_c, 1, 57, 60
1, 8589, Note_on_c, 1, 57, 0
1, 8592, Note_on_c, 1, 63, 60
1, 8637, Note_on_c, 0, 81, 0
1, 8637, Note_on_c, 1, 63, 0
1, 8640, Note_on_c, 0, 80, 60
1, 8640, Note_on_c, 1, 52, 60
1, 8661, Note_on_c, 0, 80, 0
1, 8664, Note_on_c, 0, 81, 60
1, 8685, Note_on_c, 0, 81, 0
1, 8685, Note_on_c, 1, 52, 0
1, 8688, Note_on_c, 0, 80, 60
1, 8688, Note_on_c, 1, 59, 60
1, 8709, Note_on_c, 0, 80, 0
1, 8712, Note_on_c, 0, 81, 60
1, 8733, Note_on_c, 0, 81, 0
1, 8733, Note_on_c, 1, 59, 0
1, 8736, Note_on_c, 0, 76, 60
1, 8736, Note_on_c, 1, 56, 60
1, 8781, Note_on_c, 1, 56, 0
1, 8784, Note_on_c, 1, 59, 60
1, 8829, Note_on_c, 0, 76, 0
1, 8829, Note_on_c, 1, 59, 0
1, 8832, Note_on_c, 1, 57, 45
1, 8877, Note_on_c, 1, 57, 0
1, 8880, Note_on_c, 1, 64, 45
1, 8925, Note_on_c, 1, 64, 0
1, 8928, Note_on_c, 0, 73, 45
1, 8928, Note_on_c, 1, 57, 45
1, 8949, Note_on_c, 0, 73, 0
1, 8952, Note_on_c, 0, 74, 45
1, 8973, Note_on_c, 0, 74, 0
1, 8973, Note_on_c, 1, 57, 0
1, 8976, Note_on_c, 0, 73, 45
1, 8976, Note_on_c, 1, 64, 45
1, 8997, Note_on_c, 0, 73, 0
1, 9000, Note_on_c, 0, 74, 45
1, 9021, Note_on_c, 0, 74, 0
1, 9021, Note_on_c, 1, 64, 0
1, 9024, Note_on_c, 0, 71, 45
1, 9024, Note_on_c, 1, 56, 45
1, 9069, Note_on_c, 1, 56, 0
1, 9072, Note_on_c, 1, 64, 45
1, 9117, Note_on_c, 0, 71, 0
1, 9117, Note_on_c, 1, 64, 0
1, 9120, Note_on_c, 0, 76, 45
1, 9120, Note_on_c, 1, 56, 45
1, 9165, Note_on_c, 1, 56, 0
1, 9168, Note_on_c, 1, 64, 45
1, 9213, Note_on_c, 0, 76, 0
1, 9213, Note_on_c, 1, 64, 0
1, 9216, Note_on_c, 1, 54, 45
1, 9261, Note_on_c, 1, 54, 0
1, 9264, Note_on_c, 1, 63, 45
1, 9309, Note_on_c, 1, 63, 0
1, 9312, Note_on_c, 0, 81, 45
1, 9312, Note_on_c, 1, 57, 45
1, 9357, Note_on_c, 1, 57, 0
1, 9360, Note_on_c, 1, 63, 46
1, 9405, Note_on_c, 0, 81, 0
1, 9405, Note_on_c, 1, 63, 0
1, 9408, Note_on_c, 0, 80, 46
1, 9408, Note_on_c, 1, 52, 47
1, 9429, Note_on_c, 0, 80, 0
1, 9432, Note_on_c, 0, 81, 47
1, 9453, Note_on_c, 0, 81, 0
1, 9453, Note_on_c, 1, 52, 0
1, 9456, Note_on_c, 0, 80, 48
1, 9456, Note_on_c, 1, 59, 48
1, 9477, Note_on_c, 0, 80, 0
1, 9480, Note_on_c, 0, 81, 49
1, 9501, Note_on_c, 0, 81, 0
1, 9501, Note_on_c, 1, 59, 0
1, 9504, Note_on_c, 0, 76, 50
1, 9504, Note_on_c, 1, 56, 49
1, 9549, Note_on_c, 1, 56, 0
1, 9552, Note_on_c, 1, 59, 50
1, 9597, Note_on_c, 0, 76, 0
1, 9597, Note_on_c, 1, 59, 0
1, 9600, Note_on_c, 1, 47, 51
1, 9645, Note_on_c, 1, 47, 0
1, 9648, Note_on_c, 1, 59, 52
1, 9693, Note_on_c, 1, 59, 0
1, 9696, Note_on_c, 0, 71, 52
1, 9696, Note_on_c, 1, 51, 53
1, 9741, Note_on_c, 1, 51, 0
1, 9744, Note_on_c, 1, 59, 54
1, 9789, Note_on_c, 0, 71, 0
1, 9789, Note_on_c, 1, 59, 0
1, 9792, Note_on_c, 0, 71, 53
1, 9792, Note_on_c, 1, 47, 55
1, 9837, Note_on_c, 1, 47, 0
1, 9840, Note_on_c, 1, 59, 56
1, 9885, Note_on_c, 0, 71, 0
1, 9885, Note_on_c, 1, 59, 0
1, 9888, Note_on_c, 0, 71, 54
1, 9888, Note_on_c, 1, 51, 57
1, 9933, Note_on_c, 1, 51, 0
1, 9936, Note_on_c, 1, 59, 58
1, 9981, Note_on_c, 0, 71, 0
1, 9981, Note_on_c, 1, 59, 0
1, 9984, Note_on_c, 1, 47, 59
1, 10029, Note_on_c, 1, 47, 0
1, 10032, Note_on_c, 1, 59, 60
1, 10077, Note_on_c, 1, 59, 0
1, 10080, Note_on_c, 0, 71, 56
1, 10080, Note_on_c, 0, 73, 56
1, 10080, Note_on_c, 1, 52, 61
1, 10125, Note_on_c, 1, 52, 0
1, 10128, Note_on_c, 1, 59, 62
1, 10173, Note_on_c, 0, 73, 0
1, 10173, Note_on_c, 0, 71, 0
1, 10173, Note_on_c, 1, 59, 0
1, 10176, Note_on_c, 0, 73, 57
1, 10176, Note_on_c, 0, 71, 57
1, 10176, Note_on_c, 1, 47, 63
1, 10221, Note_on_c, 1, 47, 0
1, 10224, Note_on_c, 1, 59, 64
1, 10269, Note_on_c, 0, 71, 0
1, 10269, Note_on_c, 0, 73, 0
1, 10269, Note_on_c, 1, 59, 0
1, 10272, Note_on_c, 0, 73, 58
1, 10272, Note_on_c, 0, 71, 58
1, 10272, Note_on_c, 1, 52, 65
1, 10317, Note_on_c, 1, 52, 0
1, 10320, Note_on_c, 1, 59, 66
1, 10365, Note_on_c, 0, 71, 0
1, 10365, Note_on_c, 0, 73, 0
1, 10365, Note_on_c, 1, 59, 0
1, 10368, Note_on_c, 1, 47, 67
1, 10413, Note_on_c, 1, 47, 0
1, 10416, Note_on_c, 1, 59, 68
1, 10461, Note_on_c, 1, 59, 0
1, 10464, Note_on_c, 0, 69, 60
1, 10464, Note_on_c, 0, 73, 60
1, 10464, Note_on_c, 1, 54, 69
1, 10509, Note_on_c, 1, 54, 0
1, 10512, Note_on_c, 1, 59, 70
1, 10557, Note_on_c, 0, 73, 0
1, 10557, Note_on_c, 0, 69, 0
1, 10557, Note_on_c, 1, 59, 0
1, 10560, Note_on_c, 0, 73, 61
1, 10560, Note_on_c, 0, 69, 61
1, 10560, Note_on_c, 1, 47, 71
1, 10605, Note_on_c, 1, 47, 0
1, 10608, Note_on_c, 1, 59, 72
1, 10653, Note_on_c, 0, 69, 0
1, 10653, Note_on_c, 0, 73, 0
1, 10653, Note_on_c, 1, 59, 0
1, 10656, Note_on_c, 0, 73, 62
1, 10656, Note_on_c, 0, 69, 62
1, 10656, Note_on_c, 1, 54, 73
1, 10701, Note_on_c, 1, 54, 0
1, 10704, Note_on_c, 1, 59, 74
1, 10749, Note_on_c, 0, 69, 0
1, 10749, Note_on_c, 0, 73, 0
1, 10749, Note_on_c, 1, 59, 0
1, 10752, Note_on_c, 1, 47, 75
1, 10797, Note_on_c, 1, 47, 0
1, 10800, Note_on_c, 1, 59, 76
1, 10845, Note_on_c, 1, 59, 0
1, 10848, Note_on_c, 0, 69, 64
1, 10848, Note_on_c, 0, 75, 64
1, 10848, Note_on_c, 1, 54, 77
1, 10893, Note_on_c, 1, 54, 0
1, 10896, Note_on_c, 1, 59, 78
1, 10941, Note_on_c, 0, 75, 0
1, 10941, Note_on_c, 0, 69, 0
1, 10941, Note_on_c, 1, 59, 0
1, 10944, Note_on_c, 0, 75, 65
1, 10944, Note_on_c, 0, 69, 65
1, 10944, Note_on_c, 1, 47, 79
1, 10989, Note_on_c, 1, 47, 0
1, 10992, Note_on_c, 1, 59, 80
1, 11037, Note_on_c, 0, 69, 0
1, 11037, Note_on_c, 0, 75, 0
1, 11037, Note_on_c, 1, 59, 0
1, 11040, Note_on_c, 0, 75, 66
1, 11040, Note_on_c, 0, 69, 66
1, 11040, Note_on_c, 1, 54, 81
1, 11085, Note_on_c, 1, 54, 0
1, 11088, Note_on_c, 1, 59, 82
1, 11133, Note_on_c, 0, 69, 0
1, 11133, Note_on_c, 0, 75, 0
1, 11133, Note_on_c, 1, 59, 0
1, 11136, Note_on_c, 0, 76, 108
1, 11136, Note_on_c, 0, 71, 108
1, 11136, Note_on_c, 0, 68, 108
1, 11136, Note_on_c, 1, 52, 108
1, 11181, Note_on_c, 1, 52, 0
1, 11184, Note_on_c, 1, 59, 108
1, 11229, Note_on_c, 1, 59, 0
1, 11232, Note_on_c, 1, 56, 108
1, 11277, Note_on_c, 1, 56, 0
1, 11280, Note_on_c, 1, 59, 108
1, 11296, Note_on_c, 0, 68, 0
1, 11296, Note_on_c, 0, 71, 0
1, 11296, Note_on_c, 0, 76, 0
1, 11325, Note_on_c, 1, 59, 0
1, 11328, Note_on_c, 0, 81, 108
1, 11328, Note_on_c, 0, 78, 108
1, 11328, Note_on_c, 0, 75, 108
1, 11328, Note_on_c, 0, 71, 108
1, 11328, Note_on_c, 1, 51, 108
1, 11373, Note_on_c, 1, 51, 0
1, 11376, Note_on_c, 1, 59, 108
1, 11421, Note_on_c, 1, 59, 0
1, 11424, Note_on_c, 1, 54, 108
1, 11469, Note_on_c, 1, 54, 0
1, 11472, Note_on_c, 1, 59, 108
1, 11488, Note_on_c, 0, 71, 0
1, 11488, Note_on_c, 0, 75, 0
1, 11488, Note_on_c, 0, 78, 0
1, 11488, Note_on_c, 0, 81, 0
1, 11517, Note_on_c, 1, 59, 0
1, 11520, Note_on_c, 0, 80, 108
1, 11520, Note_on_c, 0, 76, 108
1, 11520, Note_on_c, 0, 71, 108
1, 11520, Note_on_c, 1, 52, 108
1, 11565, Note_on_c, 1, 52, 0
1, 11568, Note_on_c, 1, 59, 108
1, 11613, Note_on_c, 1, 59, 0
1, 11616, Note_on_c, 1, 56, 108
1, 11661, Note_on_c, 1, 56, 0
1, 11664, Note_on_c, 1, 59, 108
1, 11680, Note_on_c, 0, 71, 0
1, 11680, Note_on_c, 0, 76, 0
1, 11680, Note_on_c, 0, 80, 0
1, 11709, Note_on_c, 1, 59, 0
1, 11712, Note_on_c, 0, 78, 108
1, 11712, Note_on_c, 0, 75, 108
1, 11712, Note_on_c, 0, 69, 108
1, 11712, Note_on_c, 1, 54, 108
1, 11757, Note_on_c, 1, 54, 0
1, 11760, Note_on_c, 1, 59, 108
1, 11805, Note_on_c, 1, 59, 0
1, 11808, Note_on_c, 1, 57, 108
1, 11853, Note_on_c, 1, 57, 0
1, 11856, Note_on_c, 1, 59, 108
1, 11872, Note_on_c, 0, 69, 0
1, 11872, Note_on_c, 0, 75, 0
1, 11872, Note_on_c, 0, 78, 0
1, 11901, Note_on_c, 1, 59, 0
1, 11904, Note_on_c, 0, 76, 92
1, 11904, Note_on_c, 0, 71, 92
1, 11904, Note_on_c, 0, 68, 92
1, 11904, Note_on_c, 1, 52, 92
1, 11949, Note_on_c, 1, 52, 0
1, 11952, Note_on_c, 1, 59, 92
1, 11997, Note_on_c, 1, 59, 0
1, 12000, Note_on_c, 1, 56, 92
1, 12045, Note_on_c, 1, 56, 0
1, 12048, Note_on_c, 1, 59, 92
1, 12064, Note_on_c, 0, 68, 0
1, 12064, Note_on_c, 0, 71, 0
1, 12064, Note_on_c, 0, 76, 0
1, 12093, Note_on_c, 1, 59, 0
1, 12096, Note_on_c, 0, 81, 92
1, 12096, Note_on_c, 0, 78, 92
1, 12096, Note_on_c, 0, 75, 92
1, 12096, Note_on_c, 0, 71, 92
1, 12096, Note_on_c, 1, 51, 92
1, 12141, Note_on_c, 1, 51, 0
1, 12144, Note_on_c, 1, 59, 92
1, 12189, Note_on_c, 1, 59, 0
1, 12192, Note_on_c, 1, 54, 92
1, 12237, Note_on_c, 1, 54, 0
1, 12240, Note_on_c, 1, 59, 92
1, 12256, Note_on_c, 0, 71, 0
1, 12256, Note_on_c, 0, 75, 0
1, 12256, Note_on_c, 0, 78, 0
1, 12256, Note_on_c, 0, 81, 0
1, 12285, Note_on_c, 1, 59, 0
1, 12288, Note_on_c, 0, 80, 92
1, 12288, Note_on_c, 0, 76, 92
1, 12288, Note_on_c, 0, 71, 92
1, 12288, Note_on_c, 1, 52, 92
1, 12333, Note_on_c, 1, 52, 0
1, 12336, Note_on_c, 1, 59, 92
1, 12381, Note_on_c, 1, 59, 0
1, 12384, Note_on_c, 1, 56, 92
1, 12429, Note_on_c, 1, 56, 0
1, 12432, Note_on_c, 1, 59, 92
1, 12448, Note_on_c, 0, 71, 0
1, 12448, Note_on_c, 0, 76, 0
1, 12448, Note_on_c, 0, 80, 0
1, 12477, Note_on_c, 1, 59, 0
1, 12480, Note_on_c, 0, 78, 92
1, 12480, Note_on_c, 0, 75, 92
1, 12480, Note_on_c, 0, 69, 92
1, 12480, Note_on_c, 1, 54, 92
1, 12525, Note_on_c, 1, 54, 0
1, 12528, Note_on_c, 1, 59, 92
1, 12573, Note_on_c, 1, 59, 0
1, 12576, Note_on_c, 1, 57, 92
1, 12621, Note_on_c, 1, 57, 0
1, 12624, Note_on_c, 1, 59, 92
1, 12640, Note_on_c, 0, 69, 0
1, 12640, Note_on_c, 0, 75, 0
1, 12640, Note_on_c, 0, 78, 0
1, 12669, Note_on_c, 1, 59, 0
1, 12672, Note_on_c, 0, 76, 60
1, 12672, Note_on_c, 1, 56, 60
1, 12717, Note_on_c, 0, 76, 0
1, 12720, Note_on_c, 0, 80, 60
1, 12765, Note_on_c, 0, 80, 0
1, 12768, Note_on_c, 0, 71, 60
1, 12813, Note_on_c, 0, 71, 0
1, 12816, Note_on_c, 0, 76, 60
1, 12832, Note_on_c, 1, 56, 0
1, 12861, Note_on_c, 0, 76, 0
1, 12864, Note_on_c, 0, 68, 60
1, 12909, Note_on_c, 0, 68, 0
1, 12912, Note_on_c, 0, 71, 60
1, 12957, Note_on_c, 0, 71, 0
1, 12960, Note_on_c, 0, 64, 60
1, 13005, Note_on_c, 0, 64, 0
1, 13008, Note_on_c, 0, 68, 60
1, 13053, Note_on_c, 0, 68, 0
1, 13056, Note_on_c, 0, 73, 60
1, 13056, Note_on_c, 1, 57, 60
1, 13101, Note_on_c, 0, 73, 0
1, 13104, Note_on_c, 0, 76, 60
1, 13149, Note_on_c, 0, 76, 0
1, 13152, Note_on_c, 0, 69, 60
1, 13197, Note_on_c, 0, 69, 0
1, 13200, Note_on_c, 0, 73, 60
1, 13216, Note_on_c, 1, 57, 0
1, 13245, Note_on_c, 0, 73, 0
1, 13248, Note_on_c, 0, 66, 60
1, 13293, Note_on_c, 0, 66, 0
1, 13296, Note_on_c, 0, 69, 60
1, 13341, Note_on_c, 0, 69, 0
1, 13344, Note_on_c, 0, 61, 60
1, 13389, Note_on_c, 0, 61, 0
1, 13392, Note_on_c, 0, 66, 60
1, 13437, Note_on_c, 0, 66, 0
1, 13440, Note_on_c, 0, 64, 60
1, 13440, Note_on_c, 1, 56, 60
1, 13440, Note_on_c, 1, 47, 60
1, 13533, Note_on_c, 1, 47, 0
1, 13533, Note_on_c, 1, 56, 0
1, 13536, Note_on_c, 1, 47, 60
1, 13536, Note_on_c, 1, 56, 60
1, 13600, Note_on_c, 0, 64, 0
1, 13629, Note_on_c, 1, 56, 0
1, 13629, Note_on_c, 1, 47, 0
1, 13632, Note_on_c, 0, 63, 60
1, 13632, Note_on_c, 1, 54, 60
1, 13632, Note_on_c, 1, 47, 60
1, 13653, Note_on_c, 0, 63, 0
1, 13656, Note_on_c, 0, 64, 60
1, 13677, Note_on_c, 0, 64, 0
1, 13680, Note_on_c, 0, 63, 60
1, 13701, Note_on_c, 0, 63, 0
1, 13704, Note_on_c, 0, 64, 60
1, 13725, Note_on_c, 0, 64, 0
1, 13725, Note_on_c, 1, 47, 0
1, 13725, Note_on_c, 1, 54, 0
1, 13728, Note_on_c, 0, 63, 60
1, 13728, Note_on_c, 1, 54, 60
1, 13728, Note_on_c, 1, 47, 60
1, 13749, Note_on_c, 0, 63, 0
1, 13752, Note_on_c, 0, 64, 60
1, 13773, Note_on_c, 0, 64, 0
1, 13776, Note_on_c, 0, 63, 60
1, 13797, Note_on_c, 0, 63, 0
1, 13800, Note_on_c, 0, 64, 60
1, 13821, Note_on_c, 0, 64, 0
1, 13821, Note_on_c, 1, 47, 0
1, 13821, Note_on_c, 1, 54, 0
1, 13824, Note_on_c, 0, 64, 60
1, 13824, Note_on_c, 1, 52, 60
1, 13824, Note_on_c, 1, 40, 60
1, 13984, Note_on_c, 0, 64, 0
1, 13984, Note_on_c, 1, 40, 0
1, 13984, Note_on_c, 1, 52, 0
1, 14208, Note_on_c, 0, 76, 92
1, 14208, Note_on_c, 0, 71, 92
1, 14208, Note_on_c, 0, 67, 92
1, 14304, Note_on_c, 1, 40, 92
1, 14304, Note_on_c, 1, 52, 92
1, 14368, Note_on_c, 0, 67, 0
1, 14368, Note_on_c, 0, 71, 0
1, 14368, Note_on_c, 0, 76, 0
1, 14397, Note_on_c, 1, 52, 0
1, 14397, Note_on_c, 1, 40, 0
1, 14400, Note_on_c, 1, 55, 92
1, 14400, Note_on_c, 1, 43, 92
1, 14493, Note_on_c, 1, 43, 0
1, 14493, Note_on_c, 1, 55, 0
1, 14496, Note_on_c, 0, 76, 92
1, 14496, Note_on_c, 0, 67, 92
1, 14496, Note_on_c, 1, 52, 92
1, 14496, Note_on_c, 1, 40, 92
1, 14589, Note_on_c, 0, 67, 0
1, 14589, Note_on_c, 0, 76, 0
1, 14589, Note_on_c, 1, 40, 0
1, 14589, Note_on_c, 1, 52, 0
1, 14592, Note_on_c, 0, 76, 92
1, 14592, Note_on_c, 0, 67, 92
1, 14637, Note_on_c, 0, 67, 0
1, 14637, Note_on_c, 0, 76, 0
1, 14640, Note_on_c, 0, 66, 92
1, 14640, Note_on_c, 0, 75, 92
1, 14685, Note_on_c, 0, 75, 0
1, 14685, Note_on_c, 0, 66, 0
1, 14688, Note_on_c, 0, 66, 92
1, 14688, Note_on_c, 0, 75, 92
1, 14688, Note_on_c, 1, 59, 92
1, 14688, Note_on_c, 1, 47, 92
1, 14781, Note_on_c, 0, 75, 0
1, 14781, Note_on_c, 0, 66, 0
1, 14781, Note_on_c, 1, 47, 0
1, 14781, Note_on_c, 1, 59, 0
1, 14784, Note_on_c, 1, 63, 92
1, 14784, Note_on_c, 1, 51, 92
1, 14877, Note_on_c, 1, 51, 0
1, 14877, Note_on_c, 1, 63, 0
1, 14880, Note_on_c, 1, 59, 92
1, 14880, Note_on_c, 1, 47, 92
1, 14973, Note_on_c, 1, 47, 0
1, 14973, Note_on_c, 1, 59, 0
1, 14976, Note_on_c, 0, 81, 92
1, 14976, Note_on_c, 0, 78, 92
1, 14976, Note_on_c, 0, 75, 92
1, 14976, Note_on_c, 0, 71, 92
1, 15072, Note_on_c, 1, 47, 92
1, 15072, Note_on_c, 1, 59, 92
1, 15136, Note_on_c, 0, 71, 0
1, 15136, Note_on_c, 0, 75, 0
1, 15136, Note_on_c, 0, 78, 0
1, 15136, Note_on_c, 0, 81, 0
1, 15165, Note_on_c, 1, 59, 0
1, 15165, Note_on_c, 1, 47, 0
1, 15168, Note_on_c, 1, 63, 92
1, 15168, Note_on_c, 1, 51, 92
1, 15261, Note_on_c, 1, 51, 0
1, 15261, Note_on_c, 1, 63, 0
1, 15264, Note_on_c, 0, 81, 92
1, 15264, Note_on_c, 0, 78, 92
1, 15264, Note_on_c, 1, 59, 92
1, 15264, Note_on_c, 1, 47, 92
1, 15357, Note_on_c, 0, 78, 0
1, 15357, Note_on_c, 0, 81, 0
1, 15357, Note_on_c, 1, 47, 0
1, 15357, Note_on_c, 1, 59, 0
1, 15360, Note_on_c, 0, 81, 92
1, 15360, Note_on_c, 0, 78, 92
1, 15405, Note_on_c, 0, 78, 0
1, 15405, Note_on_c, 0, 81, 0
1, 15408, Note_on_c, 0, 76, 92
1, 15408, Note_on_c, 0, 79, 92
1, 15453, Note_on_c, 0, 79, 0
1, 15453, Note_on_c, 0, 76, 0
1, 15456, Note_on_c, 0, 76, 92
1, 15456, Note_on_c, 0, 79, 92
1, 15456, Note_on_c, 1, 52, 92
1, 15456, Note_on_c, 1, 40, 92
1, 15549, Note_on_c, 0, 79, 0
1, 15549, Note_on_c, 0, 76, 0
1, 15549, Note_on_c, 1, 40, 0
1, 15549, Note_on_c, 1, 52, 0
1, 15552, Note_on_c, 1, 55, 92
1, 15552, Note_on_c, 1, 43, 92
1, 15645, Note_on_c, 1, 43, 0
1, 15645, Note_on_c, 1, 55, 0
1, 15648, Note_on_c, 1, 52, 92
1, 15648, Note_on_c, 1, 40, 92
1, 15741, Note_on_c, 1, 40, 0
1, 15741, Note_on_c, 1, 52, 0
1, 15744, Note_on_c, 0, 84, 108
1, 15744, Note_on_c, 0, 81, 108
1, 15840, Note_on_c, 1, 45, 108
1, 15840, Note_on_c, 1, 57, 108
1, 15904, Note_on_c, 0, 81, 0
1, 15904, Note_on_c, 0, 84, 0
1, 15933, Note_on_c, 1, 57, 0
1, 15933, Note_on_c, 1, 45, 0
1, 15936, Note_on_c, 1, 54, 108
1, 15936, Note_on_c, 1, 42, 108
1, 16029, Note_on_c, 1, 42, 0
1, 16029, Note_on_c, 1, 54, 0
1, 16032, Note_on_c, 0, 84, 108
1, 16032, Note_on_c, 0, 81, 108
1, 16032, Note_on_c, 1, 50, 108
1, 16032, Note_on_c, 1, 38, 108
1, 16125, Note_on_c, 0, 81, 0
1, 16125, Note_on_c, 0, 84, 0
1, 16125, Note_on_c, 1, 38, 0
1, 16125, Note_on_c, 1, 50, 0
1, 16128, Note_on_c, 0, 84, 108
1, 16128, Note_on_c, 0, 81, 108
1, 16176, Note_on_c, 0, 81, 0
1, 16176, Note_on_c, 0, 84, 0
1, 16176, Note_on_c, 0, 79, 108
1, 16176, Note_on_c, 0, 83, 108
1, 16221, Note_on_c, 0, 83, 0
1, 16221, Note_on_c, 0, 79, 0
1, 16224, Note_on_c, 0, 79, 108
1, 16224, Note_on_c, 0, 83, 108
1, 16224, Note_on_c, 1, 55, 108
1, 16224, Note_on_c, 1, 43, 108
1, 16317, Note_on_c, 0, 83, 0
1, 16317, Note_on_c, 0, 79, 0
1, 16317, Note_on_c, 1, 43, 0
1, 16317, Note_on_c, 1, 55, 0
1, 16320, Note_on_c, 1, 52, 108
1, 16320, Note_on_c, 1, 40, 108
1, 16413, Note_on_c, 1, 40, 0
1, 16413, Note_on_c, 1, 52, 0
1, 16416, Note_on_c, 0, 83, 108
1, 16416, Note_on_c, 0, 79, 108
1, 16416, Note_on_c, 1, 48, 108
1, 16416, Note_on_c, 1, 36, 108
1, 16509, Note_on_c, 0, 79, 0
1, 16509, Note_on_c, 0, 83, 0
1, 16509, Note_on_c, 1, 36, 0
1, 16509, Note_on_c, 1, 48, 0
1, 16512, Note_on_c, 0, 83, 108
1, 16512, Note_on_c, 0, 79, 108
1, 16560, Note_on_c, 0, 79, 0
1, 16560, Note_on_c, 0, 83, 0
1, 16560, Note_on_c, 0, 78, 108
1, 16560, Note_on_c, 0, 81, 108
1, 16605, Note_on_c, 0, 81, 0
1, 16605, Note_on_c, 0, 78, 0
1, 16608, Note_on_c, 0, 78, 108
1, 16608, Note_on_c, 0, 81, 108
1, 16608, Note_on_c, 1, 54, 108
1, 16608, Note_on_c, 1, 42, 108
1, 16701, Note_on_c, 0, 81, 0
1, 16701, Note_on_c, 0, 78, 0
1, 16701, Note_on_c, 1, 42, 0
1, 16701, Note_on_c, 1, 54, 0
1, 16704, Note_on_c, 1, 51, 108
1, 16704, Note_on_c, 1, 39, 108
1, 16797, Note_on_c, 1, 39, 0
1, 16797, Note_on_c, 1, 51, 0
1, 16800, Note_on_c, 0, 81, 108
1, 16800, Note_on_c, 0, 78, 108
1, 16800, Note_on_c, 1, 47, 108
1, 16800, Note_on_c, 1, 35, 108
1, 16893, Note_on_c, 0, 78, 0
1, 16893, Note_on_c, 0, 81, 0
1, 16893, Note_on_c, 1, 35, 0
1, 16893, Note_on_c, 1, 47, 0
1, 16896, Note_on_c, 0, 81, 108
1, 16896, Note_on_c, 0, 78, 108
1, 16944, Note_on_c, 0, 78, 0
1, 16944, Note_on_c, 0, 81, 0
1, 16944, Note_on_c, 0, 76, 108
1, 16944, Note_on_c, 0, 79, 108
1, 16989, Note_on_c, 0, 79, 0
1, 16989, Note_on_c, 0, 76, 0
1, 16992, Note_on_c, 0, 76, 108
1, 16992, Note_on_c, 0, 79, 108
1, 16992, Note_on_c, 1, 52, 108
1, 16992, Note_on_c, 1, 40, 108
1, 17085, Note_on_c, 0, 79, 0
1, 17085, Note_on_c, 0, 76, 0
1, 17085, Note_on_c, 1, 40, 0
1, 17085, Note_on_c, 1, 52, 0
1, 17088, Note_on_c, 1, 55, 108
1, 17088, Note_on_c, 1, 43, 108
1, 17181, Note_on_c, 1, 43, 0
1, 17181, Note_on_c, 1, 55, 0
1, 17184, Note_on_c, 0, 79, 108
1, 17184, Note_on_c, 0, 76, 108
1, 17184, Note_on_c, 1, 52, 108
1, 17184, Note_on_c, 1, 40, 108
1, 17277, Note_on_c, 0, 76, 0
1, 17277, Note_on_c, 0, 79, 0
1, 17277, Note_on_c, 1, 40, 0
1, 17277, Note_on_c, 1, 52, 0
1, 17280, Note_on_c, 0, 81, 108
1, 17280, Note_on_c, 0, 78, 108
1, 17328, Note_on_c, 0, 78, 0
1, 17328, Note_on_c, 0, 81, 0
1, 17328, Note_on_c, 0, 76, 108
1, 17328, Note_on_c, 0, 79, 108
1, 17373, Note_on_c, 0, 79, 0
1, 17373, Note_on_c, 0, 76, 0
1, 17376, Note_on_c, 0, 76, 108
1, 17376, Note_on_c, 0, 79, 108
1, 17376, Note_on_c, 1, 48, 108
1, 17376, Note_on_c, 1, 36, 108
1, 17469, Note_on_c, 0, 79, 0
1, 17469, Note_on_c, 0, 76, 0
1, 17469, Note_on_c, 1, 36, 0
1, 17469, Note_on_c, 1, 48, 0
1, 17472, Note_on_c, 1, 52, 108
1, 17472, Note_on_c, 1, 40, 108
1, 17565, Note_on_c, 1, 40, 0
1, 17565, Note_on_c, 1, 52, 0
1, 17568, Note_on_c, 0, 79, 108
1, 17568, Note_on_c, 0, 76, 108
1, 17568, Note_on_c, 1, 48, 108
1, 17568, Note_on_c, 1, 36, 108
1, 17661, Note_on_c, 0, 76, 0
1, 17661, Note_on_c, 0, 79, 0
1, 17661, Note_on_c, 1, 36, 0
1, 17661, Note_on_c, 1, 48, 0
1, 17664, Note_on_c, 0, 81, 108
1, 17664, Note_on_c, 0, 78, 108
1, 17712, Note_on_c, 0, 78, 0
1, 17712, Note_on_c, 0, 81, 0
1, 17712, Note_on_c, 0, 76, 108
1, 17712, Note_on_c, 0, 79, 108
1, 17757, Note_on_c, 0, 79, 0
1, 17757, Note_on_c, 0, 76, 0
1, 17760, Note_on_c, 0, 76, 108
1, 17760, Note_on_c, 0, 79, 108
1, 17760, Note_on_c, 1, 48, 108
1, 17760, Note_on_c, 1, 36, 108
1, 17853, Note_on_c, 0, 79, 0
1, 17853, Note_on_c, 0, 76, 0
1, 17853, Note_on_c, 1, 36, 0
1, 17853, Note_on_c, 1, 48, 0
1, 17856, Note_on_c, 1, 47, 108
1, 17856, Note_on_c, 1, 35, 108
1, 17949, Note_on_c, 1, 35, 0
1, 17949, Note_on_c, 1, 47, 0
1, 17952, Note_on_c, 0, 79, 108
1, 17952, Note_on_c, 0, 76, 108
1, 17952, Note_on_c, 1, 46, 108
1, 17952, Note_on_c, 1, 34, 108
1, 18045, Note_on_c, 0, 76, 0
1, 18045, Note_on_c, 0, 79, 0
1, 18045, Note_on_c, 1, 34, 0
1, 18045, Note_on_c, 1, 46, 0
1, 18048, Note_on_c, 0, 79, 108
1, 18048, Note_on_c, 0, 76, 108
1, 18048, Note_on_c, 1, 47, 108
1, 18048, Note_on_c, 1, 35, 108
1, 18144, Note_on_c, 0, 76, 0
1, 18144, Note_on_c, 0, 79, 0
1, 18144, Note_on_c, 0, 78, 108
1, 18144, Note_on_c, 0, 75, 108
1, 18208, Note_on_c, 1, 35, 0
1, 18208, Note_on_c, 1, 47, 0
1, 18237, Note_on_c, 0, 75, 0
1, 18237, Note_on_c, 0, 78, 0
1, 18432, Note_on_c, 0, 64, 92
1, 18432, Note_on_c, 1, 52, 92
1, 18432, Note_on_c, 1, 40, 92
1, 18465, Note_on_c, 0, 64, 0
1, 18468, Note_on_c, 0, 68, 92
1, 18489, Note_on_c, 0, 68, 0
1, 18492, Note_on_c, 0, 71, 92
1, 18525, Note_on_c, 0, 71, 0
1, 18528, Note_on_c, 0, 68, 92
1, 18561, Note_on_c, 0, 68, 0
1, 18564, Note_on_c, 0, 71, 92
1, 18585, Note_on_c, 0, 71, 0
1, 18588, Note_on_c, 0, 76, 92
1, 18592, Note_on_c, 1, 40, 0
1, 18592, Note_on_c, 1, 52, 0
1, 18621, Note_on_c, 0, 76, 0
1, 18624, Note_on_c, 0, 71, 92
1, 18657, Note_on_c, 0, 71, 0
1, 18660, Note_on_c, 0, 76, 92
1, 18681, Note_on_c, 0, 76, 0
1, 18684, Note_on_c, 0, 80, 92
1, 18717, Note_on_c, 0, 80, 0
1, 18720, Note_on_c, 0, 76, 92
1, 18753, Note_on_c, 0, 76, 0
1, 18756, Note_on_c, 0, 80, 92
1, 18777, Note_on_c, 0, 80, 0
1, 18780, Note_on_c, 0, 83, 92
1, 18813, Note_on_c, 0, 83, 0
1, 18816, Note_on_c, 0, 81, 92
1, 18816, Note_on_c, 0, 78, 92
1, 18912, Note_on_c, 1, 47, 91
1, 18912, Note_on_c, 1, 59, 91
1, 18976, Note_on_c, 0, 78, 0
1, 18976, Note_on_c, 0, 81, 0
1, 19005, Note_on_c, 1, 59, 0
1, 19005, Note_on_c, 1, 47, 0
1, 19008, Note_on_c, 1, 63, 90
1, 19008, Note_on_c, 1, 51, 90
1, 19101, Note_on_c, 1, 51, 0
1, 19101, Note_on_c, 1, 63, 0
1, 19104, Note_on_c, 1, 59, 89
1, 19104, Note_on_c, 1, 47, 89
1, 19197, Note_on_c, 1, 47, 0
1, 19197, Note_on_c, 1, 59, 0
1, 19200, Note_on_c, 0, 59, 92
1, 19200, Note_on_c, 1, 47, 88
1, 19200, Note_on_c, 1, 35, 88
1, 19233, Note_on_c, 0, 59, 0
1, 19236, Note_on_c, 0, 63, 92
1, 19257, Note_on_c, 0, 63, 0
1, 19260, Note_on_c, 0, 66, 92
1, 19293, Note_on_c, 0, 66, 0
1, 19296, Note_on_c, 0, 63, 92
1, 19329, Note_on_c, 0, 63, 0
1, 19332, Note_on_c, 0, 66, 92
1, 19353, Note_on_c, 0, 66, 0
1, 19356, Note_on_c, 0, 69, 92
1, 19360, Note_on_c, 1, 35, 0
1, 19360, Note_on_c, 1, 47, 0
1, 19389, Note_on_c, 0, 69, 0
1, 19392, Note_on_c, 0, 69, 92
1, 19425, Note_on_c, 0, 69, 0
1, 19428, Note_on_c, 0, 75, 92
1, 19449, Note_on_c, 0, 75, 0
1, 19452, Note_on_c, 0, 78, 92
1, 19485, Note_on_c, 0, 78, 0
1, 19488, Note_on_c, 0, 75, 92
1, 19521, Note_on_c, 0, 75, 0
1, 19524, Note_on_c, 0, 78, 92
1, 19545, Note_on_c, 0, 78, 0
1, 19548, Note_on_c, 0, 81, 92
1, 19581, Note_on_c, 0, 81, 0
1, 19584, Note_on_c, 0, 80, 92
1, 19584, Note_on_c, 0, 76, 92
1, 19680, Note_on_c, 1, 40, 85
1, 19680, Note_on_c, 1, 52, 85
1, 19744, Note_on_c, 0, 76, 0
1, 19744, Note_on_c, 0, 80, 0
1, 19773, Note_on_c, 1, 52, 0
1, 19773, Note_on_c, 1, 40, 0
1, 19776, Note_on_c, 1, 56, 84
1, 19776, Note_on_c, 1, 44, 84
1, 19869, Note_on_c, 1, 44, 0
1, 19869, Note_on_c, 1, 56, 0
1, 19872, Note_on_c, 1, 52, 83
1, 19872, Note_on_c, 1, 40, 83
1, 19965, Note_on_c, 1, 40, 0
1, 19965, Note_on_c, 1, 52, 0
1, 19968, Note_on_c, 1, 56, 60
1, 20013, Note_on_c, 1, 56, 0
1, 20016, Note_on_c, 1, 64, 60
1, 20061, Note_on_c, 1, 64, 0
1, 20064, Note_on_c, 0, 76, 60
1, 20064, Note_on_c, 1, 59, 60
1, 20109, Note_on_c, 1, 59, 0
1, 20112, Note_on_c, 1, 64, 60
1, 20157, Note_on_c, 0, 76, 0
1, 20157, Note_on_c, 1, 64, 0
1, 20160, Note_on_c, 0, 80, 60
1, 20160, Note_on_c, 1, 56, 60
1, 20205, Note_on_c, 1, 56, 0
1, 20208, Note_on_c, 1, 64, 60
1, 20253, Note_on_c, 0, 80, 0
1, 20253, Note_on_c, 1, 64, 0
1, 20256, Note_on_c, 0, 83, 60
1, 20256, Note_on_c, 1, 59, 60
1, 20301, Note_on_c, 1, 59, 0
1, 20304, Note_on_c, 1, 64, 60
1, 20349, Note_on_c, 0, 83, 0
1, 20349, Note_on_c, 1, 64, 0
1, 20352, Note_on_c, 0, 73, 60
1, 20352, Note_on_c, 1, 57, 60
1, 20397, Note_on_c, 1, 57, 0
1, 20400, Note_on_c, 1, 64, 60
1, 20445, Note_on_c, 1, 64, 0
1, 20448, Note_on_c, 1, 61, 60
1, 20493, Note_on_c, 1, 61, 0
1, 20496, Note_on_c, 1, 64, 60
1, 20512, Note_on_c, 0, 73, 0
1, 20541, Note_on_c, 1, 64, 0
1, 20544, Note_on_c, 1, 57, 60
1, 20589, Note_on_c, 1, 57, 0
1, 20592, Note_on_c, 1, 64, 60
1, 20637, Note_on_c, 1, 64, 0
1, 20640, Note_on_c, 1, 61, 60
1, 20685, Note_on_c, 1, 61, 0
1, 20688, Note_on_c, 1, 64, 60
1, 20733, Note_on_c, 1, 64, 0
1, 20736, Note_on_c, 1, 59, 75
1, 20781, Note_on_c, 1, 59, 0
1, 20784, Note_on_c, 1, 68, 75
1, 20829, Note_on_c, 1, 68, 0
1, 20832, Note_on_c, 0, 76, 75
1, 20832, Note_on_c, 1, 64, 75
1, 20877, Note_on_c, 1, 64, 0
1, 20880, Note_on_c, 1, 68, 75
1, 20925, Note_on_c, 0, 76, 0
1, 20925, Note_on_c, 1, 68, 0
1, 20928, Note_on_c, 0, 80, 75
1, 20928, Note_on_c, 1, 59, 75
1, 20973, Note_on_c, 1, 59, 0
1, 20976, Note_on_c, 1, 68, 75
1, 21021, Note_on_c, 0, 80, 0
1, 21021, Note_on_c, 1, 68, 0
1, 21024, Note_on_c, 0, 83, 75
1, 21024, Note_on_c, 1, 64, 75
1, 21069, Note_on_c, 1, 64, 0
1, 21072, Note_on_c, 1, 68, 75
1, 21117, Note_on_c, 0, 83, 0
1, 21117, Note_on_c, 1, 68, 0
1, 21120, Note_on_c, 0, 76, 75
1, 21120, Note_on_c, 1, 61, 75
1, 21141, Note_on_c, 0, 76, 0
1, 21144, Note_on_c, 0, 78, 75
1, 21165, Note_on_c, 0, 78, 0
1, 21165, Note_on_c, 1, 61, 0
1, 21168, Note_on_c, 0, 76, 75
1, 21168, Note_on_c, 1, 68, 75
1, 21189, Note_on_c, 0, 76, 0
1, 21192, Note_on_c, 0, 78, 75
1, 21213, Note_on_c, 0, 78, 0
1, 21213, Note_on_c, 1, 68, 0
1, 21216, Note_on_c, 0, 76, 75
1, 21216, Note_on_c, 1, 64, 75
1, 21237, Note_on_c, 0, 76, 0
1, 21240, Note_on_c, 0, 78, 75
1, 21261, Note_on_c, 0, 78, 0
1, 21261, Note_on_c, 1, 64, 0
1, 21264, Note_on_c, 0, 76, 75
1, 21264, Note_on_c, 1, 68, 75
1, 21285, Note_on_c, 0, 76, 0
1, 21288, Note_on_c, 0, 78, 75
1, 21309, Note_on_c, 0, 78, 0
1, 21309, Note_on_c, 1, 68, 0
1, 21312, Note_on_c, 1, 61, 75
1, 21357, Note_on_c, 1, 61, 0
1, 21360, Note_on_c, 1, 68, 75
1, 21405, Note_on_c, 1, 68, 0
1, 21408, Note_on_c, 1, 64, 75
1, 21453, Note_on_c, 1, 64, 0
1, 21456, Note_on_c, 1, 68, 75
1, 21501, Note_on_c, 1, 68, 0
1, 21504, Note_on_c, 1, 56, 75
1, 21549, Note_on_c, 1, 56, 0
1, 21552, Note_on_c, 1, 64, 75
1, 21597, Note_on_c, 1, 64, 0
1, 21600, Note_on_c, 0, 76, 75
1, 21600, Note_on_c, 1, 59, 75
1, 21645, Note_on_c, 1, 59, 0
1, 21648, Note_on_c, 1, 64, 75
1, 21693, Note_on_c, 0, 76, 0
1, 21693, Note_on_c, 1, 64, 0
1, 21696, Note_on_c, 0, 80, 75
1, 21696, Note_on_c, 1, 56, 75
1, 21741, Note_on_c, 1, 56, 0
1, 21744, Note_on_c, 1, 64, 75
1, 21789, Note_on_c, 0, 80, 0
1, 21789, Note_on_c, 1, 64, 0
1, 21792, Note_on_c, 0, 83, 75
1, 21792, Note_on_c, 1, 59, 75
1, 21837, Note_on_c, 1, 59, 0
1, 21840, Note_on_c, 1, 64, 75
1, 21885, Note_on_c, 0, 83, 0
1, 21885, Note_on_c, 1, 64, 0
1, 21888, Note_on_c, 0, 83, 75
1, 21888, Note_on_c, 1, 57, 75
1, 21933, Note_on_c, 1, 57, 0
1, 21936, Note_on_c, 1, 64, 75
1, 21981, Note_on_c, 0, 83, 0
1, 21981, Note_on_c, 1, 64, 0
1, 21984, Note_on_c, 0, 84, 75
1, 21984, Note_on_c, 1, 61, 75
1, 22029, Note_on_c, 1, 61, 0
1, 22032, Note_on_c, 1, 64, 75
1, 22077, Note_on_c, 0, 84, 0
1, 22077, Note_on_c, 1, 64, 0
1, 22080, Note_on_c, 0, 85, 75
1, 22080, Note_on_c, 1, 57, 75
1, 22125, Note_on_c, 1, 57, 0
1, 22128, Note_on_c, 1, 64, 75
1, 22173, Note_on_c, 0, 85, 0
1, 22173, Note_on_c, 1, 64, 0
1, 22176, Note_on_c, 0, 81, 75
1, 22176, Note_on_c, 1, 61, 75
1, 22221, Note_on_c, 1, 61, 0
1, 22224, Note_on_c, 1, 64, 75
1, 22269, Note_on_c, 0, 81, 0
1, 22269, Note_on_c, 1, 64, 0
1, 22272, Note_on_c, 0, 81, 75
1, 22272, Note_on_c, 1, 59, 75
1, 22317, Note_on_c, 0, 81, 0
1, 22317, Note_on_c, 1, 59, 0
1, 22320, Note_on_c, 0, 80, 75
1, 22320, Note_on_c, 1, 68, 75
1, 22365, Note_on_c, 0, 80, 0
1, 22365, Note_on_c, 1, 68, 0
1, 22368, Note_on_c, 0, 78, 75
1, 22368, Note_on_c, 1, 64, 75
1, 22413, Note_on_c, 0, 78, 0
1, 22413, Note_on_c, 1, 64, 0
1, 22416, Note_on_c, 0, 76, 75
1, 22416, Note_on_c, 1, 68, 75
1, 22461, Note_on_c, 0, 76, 0
1, 22461, Note_on_c, 1, 68, 0
1, 22464, Note_on_c, 0, 80, 75
1, 22464, Note_on_c, 1, 59, 75
1, 22509, Note_on_c, 0, 80, 0
1, 22509, Note_on_c, 1, 59, 0
1, 22512, Note_on_c, 0, 78, 75
1, 22512, Note_on_c, 1, 69, 75
1, 22557, Note_on_c, 0, 78, 0
1, 22557, Note_on_c, 1, 69, 0
1, 22560, Note_on_c, 0, 76, 75
1, 22560, Note_on_c, 1, 66, 75
1, 22605, Note_on_c, 0, 76, 0
1, 22605, Note_on_c, 1, 66, 0
1, 22608, Note_on_c, 0, 75, 75
1, 22608, Note_on_c, 1, 69, 75
1, 22653, Note_on_c, 0, 75, 0
1, 22653, Note_on_c, 1, 69, 0
1, 22656, Note_on_c, 0, 76, 75
1, 22656, Note_on_c, 1, 68, 75
1, 22656, Note_on_c, 1, 64, 75
1, 22749, Note_on_c, 0, 76, 0
1, 22752, Note_on_c, 0, 76, 75
1, 22752, Note_on_c, 0, 80, 75
1, 22785, Note_on_c, 0, 80, 0
1, 22785, Note_on_c, 0, 76, 0
1, 22788, Note_on_c, 0, 78, 75
1, 22788, Note_on_c, 0, 81, 75
1, 22809, Note_on_c, 0, 81, 0
1, 22809, Note_on_c, 0, 78, 0
1, 22812, Note_on_c, 0, 80, 75
1, 22812, Note_on_c, 0, 83, 75
1, 22816, Note_on_c, 1, 64, 0
1, 22816, Note_on_c, 1, 68, 0
1, 22845, Note_on_c, 0, 83, 0
1, 22845, Note_on_c, 0, 80, 0
1, 22848, Note_on_c, 0, 81, 60
1, 22848, Note_on_c, 0, 78, 60
1, 22941, Note_on_c, 0, 78, 0
1, 22941, Note_on_c, 0, 81, 0
1, 22944, Note_on_c, 0, 75, 60
1, 22944, Note_on_c, 0, 69, 60
1, 22944, Note_on_c, 1, 59, 60
1, 23037, Note_on_c, 0, 69, 0
1, 23037, Note_on_c, 0, 75, 0
1, 23037, Note_on_c, 1, 59, 0
1, 23040, Note_on_c, 0, 76, 60
1, 23040, Note_on_c, 0, 68, 60
1, 23040, Note_on_c, 1, 52, 60
1, 23133, Note_on_c, 0, 68, 0
1, 23133, Note_on_c, 0, 76, 0
1, 23136, Note_on_c, 0, 64, 45
1, 23136, Note_on_c, 0, 68, 45
1, 23169, Note_on_c, 0, 68, 0
1, 23169, Note_on_c, 0, 64, 0
1, 23172, Note_on_c, 0, 66, 45
1, 23172, Note_on_c, 0, 69, 45
1, 23193, Note_on_c, 0, 69, 0
1, 23193, Note_on_c, 0, 66, 0
1, 23196, Note_on_c, 0, 68, 45
1, 23196, Note_on_c, 0, 71, 45
1, 23200, Note_on_c, 1, 52, 0
1, 23229, Note_on_c, 0, 71, 0
1, 23229, Note_on_c, 0, 68, 0
1, 23232, Note_on_c, 0, 69, 45
1, 23232, Note_on_c, 0, 66, 45
1, 23325, Note_on_c, 0, 66, 0
1, 23325, Note_on_c, 0, 69, 0
1, 23328, Note_on_c, 0, 63, 45
1, 23328, Note_on_c, 0, 57, 45
1, 23328, Note_on_c, 1, 47, 45
1, 23421, Note_on_c, 0, 57, 0
1, 23421, Note_on_c, 0, 63, 0
1, 23421, Note_on_c, 1, 47, 0
1, 23424, Note_on_c, 0, 64, 45
1, 23424, Note_on_c, 0, 56, 45
1, 23424, Note_on_c, 1, 40, 45
1, 23584, Note_on_c, 0, 56, 0
1, 23584, Note_on_c, 0, 64, 0
1, 23584, Note_on_c, 1, 40, 0
1, 23808, Note_on_c, 0, 69, 75
1, 23808, Note_on_c, 1, 61, 75
1, 23808, Note_on_c, 1, 57, 75
1, 23853, Note_on_c, 0, 69, 0
1, 23856, Note_on_c, 0, 71, 75
1, 23901, Note_on_c, 0, 71, 0
1, 23901, Note_on_c, 1, 57, 0
1, 23901, Note_on_c, 1, 61, 0
1, 23904, Note_on_c, 0, 73, 75
1, 23904, Note_on_c, 1, 61, 75
1, 23904, Note_on_c, 1, 57, 75
1, 23949, Note_on_c, 0, 73, 0
1, 23952, Note_on_c, 0, 74, 75
1, 23997, Note_on_c, 0, 74, 0
1, 23997, Note_on_c, 1, 57, 0
1, 23997, Note_on_c, 1, 61, 0
1, 24000, Note_on_c, 0, 76, 75
1, 24000, Note_on_c, 1, 61, 75
1, 24000, Note_on_c, 1, 57, 75
1, 24045, Note_on_c, 0, 76, 0
1, 24048, Note_on_c, 0, 78, 75
1, 24093, Note_on_c, 0, 78, 0
1, 24093, Note_on_c, 1, 57, 0
1, 24093, Note_on_c, 1, 61, 0
1, 24096, Note_on_c, 0, 80, 75
1, 24096, Note_on_c, 1, 61, 75
1, 24096, Note_on_c, 1, 57, 75
1, 24141, Note_on_c, 0, 80, 0
1, 24144, Note_on_c, 0, 81, 75
1, 24189, Note_on_c, 0, 81, 0
1, 24189, Note_on_c, 1, 57, 0
1, 24189, Note_on_c, 1, 61, 0
1, 24192, Note_on_c, 0, 78, 75
1, 24192, Note_on_c, 1, 62, 75
1, 24192, Note_on_c, 1, 57, 75
1, 24213, Note_on_c, 0, 78, 0
1, 24216, Note_on_c, 0, 80, 75
1, 24237, Note_on_c, 0, 80, 0
1, 24240, Note_on_c, 0, 78, 75
1, 24261, Note_on_c, 0, 78, 0
1, 24264, Note_on_c, 0, 80, 75
1, 24285, Note_on_c, 0, 80, 0
1, 24285, Note_on_c, 1, 57, 0
1, 24285, Note_on_c, 1, 62, 0
1, 24288, Note_on_c, 0, 76, 75
1, 24288, Note_on_c, 1, 61, 75
1, 24288, Note_on_c, 1, 57, 75
1, 24381, Note_on_c, 0, 76, 0
1, 24381, Note_on_c, 1, 57, 0
1, 24381, Note_on_c, 1, 61, 0
1, 24384, Note_on_c, 1, 61, 75
1, 24384, Note_on_c, 1, 57, 75
1, 24477, Note_on_c, 1, 57, 0
1, 24477, Note_on_c, 1, 61, 0
1, 24480, Note_on_c, 0, 81, 75
1, 24480, Note_on_c, 1, 61, 75
1, 24480, Note_on_c, 1, 57, 75
1, 24573, Note_on_c, 0, 81, 0
1, 24573, Note_on_c, 1, 57, 0
1, 24573, Note_on_c, 1, 61, 0
1, 24576, Note_on_c, 0, 80, 75
1, 24609, Note_on_c, 0, 80, 0
1, 24612, Note_on_c, 0, 81, 75
1, 24633, Note_on_c, 0, 81, 0
1, 24636, Note_on_c, 0, 83, 75
1, 24669, Note_on_c, 0, 83, 0
1, 24672, Note_on_c, 0, 74, 75
1, 24672, Note_on_c, 1, 52, 60
1, 24672, Note_on_c, 1, 59, 60
1, 24765, Note_on_c, 0, 74, 0
1, 24765, Note_on_c, 1, 59, 0
1, 24765, Note_on_c, 1, 52, 0
1, 24768, Note_on_c, 0, 73, 75
1, 24768, Note_on_c, 1, 57, 60
1, 24768, Note_on_c, 1, 52, 60
1, 24792, Note_on_c, 0, 73, 0
1, 24792, Note_on_c, 0, 74, 74
1, 24816, Note_on_c, 0, 74, 0
1, 24816, Note_on_c, 0, 73, 73
1, 24840, Note_on_c, 0, 73, 0
1, 24840, Note_on_c, 0, 74, 72
1, 24861, Note_on_c, 1, 52, 0
1, 24861, Note_on_c, 1, 57, 0
1, 24864, Note_on_c, 0, 74, 0
1, 24864, Note_on_c, 0, 71, 71
1, 24864, Note_on_c, 1, 56, 60
1, 24864, Note_on_c, 1, 52, 60
1, 24957, Note_on_c, 0, 71, 0
1, 24957, Note_on_c, 1, 52, 0
1, 24957, Note_on_c, 1, 56, 0
1, 24960, Note_on_c, 0, 73, 70
1, 24993, Note_on_c, 0, 73, 0
1, 24996, Note_on_c, 0, 74, 69
1, 25017, Note_on_c, 0, 74, 0
1, 25020, Note_on_c, 0, 76, 68
1, 25053, Note_on_c, 0, 76, 0
1, 25056, Note_on_c, 0, 69, 67
1, 25056, Note_on_c, 1, 61, 60
1, 25056, Note_on_c, 1, 57, 60
1, 25149, Note_on_c, 0, 69, 0
1, 25149, Note_on_c, 1, 57, 0
1, 25149, Note_on_c, 1, 61, 0
1, 25152, Note_on_c, 1, 64, 60
1, 25152, Note_on_c, 1, 61, 60
1, 25245, Note_on_c, 1, 61, 0
1, 25245, Note_on_c, 1, 64, 0
1, 25248, Note_on_c, 0, 81, 45
1, 25248, Note_on_c, 1, 61, 45
1, 25248, Note_on_c, 1, 57, 45
1, 25341, Note_on_c, 0, 81, 0
1, 25341, Note_on_c, 1, 57, 0
1, 25341, Note_on_c, 1, 61, 0
1, 25344, Note_on_c, 0, 80, 45
1, 25377, Note_on_c, 0, 80, 0
1, 25380, Note_on_c, 0, 81, 45
1, 25401, Note_on_c, 0, 81, 0
1, 25404, Note_on_c, 0, 83, 45
1, 25437, Note_on_c, 0, 83, 0
1, 25440, Note_on_c, 0, 74, 45
1, 25440, Note_on_c, 1, 52, 45
1, 25440, Note_on_c, 1, 59, 45
1, 25533, Note_on_c, 0, 74, 0
1, 25533, Note_on_c, 1, 59, 0
1, 25533, Note_on_c, 1, 52, 0
1, 25536, Note_on_c, 0, 73, 45
1, 25536, Note_on_c, 1, 57, 45
1, 25536, Note_on_c, 1, 52, 45
1, 25560, Note_on_c, 0, 73, 0
1, 25560, Note_on_c, 0, 74, 45
1, 25584, Note_on_c, 0, 74, 0
1, 25584, Note_on_c, 0, 73, 45
1, 25608, Note_on_c, 0, 73, 0
1, 25608, Note_on_c, 0, 74, 45
1, 25629, Note_on_c, 0, 74, 0
1, 25629, Note_on_c, 1, 52, 0
1, 25629, Note_on_c, 1, 57, 0
1, 25632, Note_on_c, 0, 71, 45
1, 25632, Note_on_c, 1, 56, 45
1, 25632, Note_on_c, 1, 52, 45
1, 25725, Note_on_c, 0, 71, 0
1, 25725, Note_on_c, 1, 52, 0
1, 25725, Note_on_c, 1, 56, 0
1, 25728, Note_on_c, 0, 73, 45
1, 25761, Note_on_c, 0, 73, 0
1, 25764, Note_on_c, 0, 74, 45
1, 25785, Note_on_c, 0, 74, 0
1, 25788, Note_on_c, 0, 76, 45
1, 25821, Note_on_c, 0, 76, 0
1, 25824, Note_on_c, 0, 69, 45
1, 25824, Note_on_c, 1, 57, 45
1, 25824, Note_on_c, 1, 61, 45
1, 25917, Note_on_c, 0, 69, 0
1, 25917, Note_on_c, 1, 61, 0
1, 25917, Note_on_c, 1, 57, 0
1, 25920, Note_on_c, 1, 64, 45
1, 25920, Note_on_c, 1, 61, 45
1, 26013, Note_on_c, 1, 61, 0
1, 26013, Note_on_c, 1, 64, 0
1, 26016, Note_on_c, 0, 81, 75
1, 26016, Note_on_c, 1, 61, 75
1, 26016, Note_on_c, 1, 57, 75
1, 26037, Note_on_c, 0, 81, 0
1, 26040, Note_on_c, 0, 83, 75
1, 26061, Note_on_c, 0, 83, 0
1, 26064, Note_on_c, 0, 81, 75
1, 26085, Note_on_c, 0, 81, 0
1, 26088, Note_on_c, 0, 83, 75
1, 26109, Note_on_c, 0, 83, 0
1, 26109, Note_on_c, 1, 57, 0
1, 26109, Note_on_c, 1, 61, 0
1, 26112, Note_on_c, 0, 81, 75
1, 26157, Note_on_c, 0, 81, 0
1, 26160, Note_on_c, 0, 78, 75
1, 26205, Note_on_c, 0, 78, 0
1, 26208, Note_on_c, 0, 76, 75
1, 26208, Note_on_c, 1, 69, 75
1, 26208, Note_on_c, 1, 71, 75
1, 26253, Note_on_c, 0, 76, 0
1, 26256, Note_on_c, 0, 75, 75
1, 26301, Note_on_c, 0, 75, 0
1, 26301, Note_on_c, 1, 71, 0
1, 26301, Note_on_c, 1, 69, 0
1, 26304, Note_on_c, 0, 76, 75
1, 26304, Note_on_c, 1, 71, 75
1, 26304, Note_on_c, 1, 68, 75
1, 26337, Note_on_c, 0, 76, 0
1, 26340, Note_on_c, 0, 78, 75
1, 26361, Note_on_c, 0, 78, 0
1, 26364, Note_on_c, 0, 80, 75
1, 26397, Note_on_c, 0, 80, 0
1, 26397, Note_on_c, 1, 68, 0
1, 26397, Note_on_c, 1, 71, 0
1, 26400, Note_on_c, 0, 76, 75
1, 26400, Note_on_c, 1, 71, 75
1, 26400, Note_on_c, 1, 68, 75
1, 26493, Note_on_c, 0, 76, 0
1, 26493, Note_on_c, 1, 68, 0
1, 26493, Note_on_c, 1, 71, 0
1, 26496, Note_on_c, 0, 81, 75
1, 26541, Note_on_c, 0, 81, 0
1, 26544, Note_on_c, 0, 78, 75
1, 26589, Note_on_c, 0, 78, 0
1, 26592, Note_on_c, 0, 76, 75
1, 26592, Note_on_c, 1, 69, 75
1, 26592, Note_on_c, 1, 71, 75
1, 26637, Note_on_c, 0, 76, 0
1, 26640, Note_on_c, 0, 75, 75
1, 26685, Note_on_c, 0, 75, 0
1, 26685, Note_on_c, 1, 71, 0
1, 26685, Note_on_c, 1, 69, 0
1, 26688, Note_on_c, 0, 76, 75
1, 26688, Note_on_c, 1, 71, 76
1, 26688, Note_on_c, 1, 68, 76
1, 26721, Note_on_c, 0, 76, 0
1, 26724, Note_on_c, 0, 78, 75
1, 26745, Note_on_c, 0, 78, 0
1, 26748, Note_on_c, 0, 80, 75
1, 26781, Note_on_c, 0, 80, 0
1, 26781, Note_on_c, 1, 68, 0
1, 26781, Note_on_c, 1, 71, 0
1, 26784, Note_on_c, 0, 76, 75
1, 26784, Note_on_c, 1, 71, 77
1, 26784, Note_on_c, 1, 68, 77
1, 26877, Note_on_c, 0, 76, 0
1, 26877, Note_on_c, 1, 68, 0
1, 26877, Note_on_c, 1, 71, 0
1, 26880, Note_on_c, 0, 85, 92
1, 26880, Note_on_c, 1, 69, 92
1, 26916, Note_on_c, 0, 85, 0
1, 26916, Note_on_c, 0, 83, 92
1, 26940, Note_on_c, 0, 83, 0
1, 26940, Note_on_c, 0, 81, 92
1, 26973, Note_on_c, 0, 81, 0
1, 26973, Note_on_c, 1, 69, 0
1, 26976, Note_on_c, 0, 83, 92
1, 26976, Note_on_c, 1, 68, 92
1, 27012, Note_on_c, 0, 83, 0
1, 27012, Note_on_c, 0, 81, 92
1, 27036, Note_on_c, 0, 81, 0
1, 27036, Note_on_c, 0, 80, 92
1, 27069, Note_on_c, 0, 80, 0
1, 27069, Note_on_c, 1, 68, 0
1, 27072, Note_on_c, 0, 81, 92
1, 27072, Note_on_c, 1, 66, 92
1, 27108, Note_on_c, 0, 81, 0
1, 27108, Note_on_c, 0, 80, 92
1, 27132, Note_on_c, 0, 80, 0
1, 27132, Note_on_c, 0, 78, 92
1, 27165, Note_on_c, 0, 78, 0
1, 27165, Note_on_c, 1, 66, 0
1, 27168, Note_on_c, 0, 80, 92
1, 27168, Note_on_c, 1, 64, 92
1, 27204, Note_on_c, 0, 80, 0
1, 27204, Note_on_c, 0, 78, 92
1, 27228, Note_on_c, 0, 78, 0
1, 27228, Note_on_c, 0, 76, 92
1, 27261, Note_on_c, 0, 76, 0
1, 27261, Note_on_c, 1, 64, 0
1, 27264, Note_on_c, 0, 81, 92
1, 27264, Note_on_c, 1, 66, 92
1, 27300, Note_on_c, 0, 81, 0
1, 27300, Note_on_c, 0, 80, 92
1, 27324, Note_on_c, 0, 80, 0
1, 27324, Note_on_c, 0, 78, 92
1, 27357, Note_on_c, 0, 78, 0
1, 27357, Note_on_c, 1, 66, 0
1, 27360, Note_on_c, 0, 80, 92
1, 27360, Note_on_c, 1, 64, 92
1, 27396, Note_on_c, 0, 80, 0
1, 27396, Note_on_c, 0, 78, 92
1, 27420, Note_on_c, 0, 78, 0
1, 27420, Note_on_c, 0, 76, 92
1, 27453, Note_on_c, 0, 76, 0
1, 27453, Note_on_c, 1, 64, 0
1, 27456, Note_on_c, 0, 78, 92
1, 27456, Note_on_c, 1, 63, 92
1, 27492, Note_on_c, 0, 78, 0
1, 27492, Note_on_c, 0, 76, 92
1, 27516, Note_on_c, 0, 76, 0
1, 27516, Note_on_c, 0, 75, 92
1, 27549, Note_on_c, 0, 75, 0
1, 27549, Note_on_c, 1, 63, 0
1, 27552, Note_on_c, 0, 76, 92
1, 27552, Note_on_c, 1, 61, 92
1, 27588, Note_on_c, 0, 76, 0
1, 27588, Note_on_c, 0, 75, 92
1, 27612, Note_on_c, 0, 75, 0
1, 27612, Note_on_c, 0, 73, 92
1, 27645, Note_on_c, 0, 73, 0
1, 27645, Note_on_c, 1, 61, 0
1, 27648, Note_on_c, 0, 75, 92
1, 27681, Note_on_c, 0, 75, 0
1, 27684, Note_on_c, 0, 76, 92
1, 27705, Note_on_c, 0, 76, 0
1, 27708, Note_on_c, 0, 78, 92
1, 27741, Note_on_c, 0, 78, 0
1, 27744, Note_on_c, 0, 71, 92
1, 27744, Note_on_c, 1, 59, 92
1, 27837, Note_on_c, 0, 71, 0
1, 27837, Note_on_c, 1, 59, 0
1, 27840, Note_on_c, 1, 63, 92
1, 27888, Note_on_c, 0, 71, 92
1, 27933, Note_on_c, 0, 71, 0
1, 27933, Note_on_c, 1, 63, 0
1, 27936, Note_on_c, 0, 75, 92
1, 27936, Note_on_c, 1, 66, 92
1, 27981, Note_on_c, 0, 75, 0
1, 27984, Note_on_c, 0, 78, 92
1, 28029, Note_on_c, 0, 78, 0
1, 28029, Note_on_c, 1, 66, 0
1, 28032, Note_on_c, 0, 76, 75
1, 28065, Note_on_c, 0, 76, 0
1, 28068, Note_on_c, 0, 78, 75
1, 28089, Note_on_c, 0, 78, 0
1, 28092, Note_on_c, 0, 80, 75
1, 28125, Note_on_c, 0, 80, 0
1, 28128, Note_on_c, 0, 71, 75
1, 28128, Note_on_c, 1, 59, 75
1, 28221, Note_on_c, 0, 71, 0
1, 28221, Note_on_c, 1, 59, 0
1, 28224, Note_on_c, 1, 64, 75
1, 28272, Note_on_c, 0, 71, 75
1, 28317, Note_on_c, 0, 71, 0
1, 28317, Note_on_c, 1, 64, 0
1, 28320, Note_on_c, 0, 76, 75
1, 28320, Note_on_c, 1, 68, 75
1, 28365, Note_on_c, 0, 76, 0
1, 28368, Note_on_c, 0, 80, 75
1, 28413, Note_on_c, 0, 80, 0
1, 28413, Note_on_c, 1, 68, 0
1, 28416, Note_on_c, 0, 78, 75
1, 28449, Note_on_c, 0, 78, 0
1, 28452, Note_on_c, 0, 80, 75
1, 28473, Note_on_c, 0, 80, 0
1, 28476, Note_on_c, 0, 81, 75
1, 28509, Note_on_c, 0, 81, 0
1, 28512, Note_on_c, 0, 71, 75
1, 28512, Note_on_c, 1, 59, 75
1, 28605, Note_on_c, 0, 71, 0
1, 28605, Note_on_c, 1, 59, 0
1, 28608, Note_on_c, 1, 63, 75
1, 28656, Note_on_c, 0, 71, 92
1, 28701, Note_on_c, 0, 71, 0
1, 28701, Note_on_c, 1, 63, 0
1, 28704, Note_on_c, 0, 78, 92
1, 28704, Note_on_c, 1, 66, 92
1, 28749, Note_on_c, 0, 78, 0
1, 28752, Note_on_c, 0, 81, 92
1, 28797, Note_on_c, 0, 81, 0
1, 28797, Note_on_c, 1, 66, 0
1, 28800, Note_on_c, 0, 80, 92
1, 28833, Note_on_c, 0, 80, 0
1, 28836, Note_on_c, 0, 81, 92
1, 28857, Note_on_c, 0, 81, 0
1, 28860, Note_on_c, 0, 83, 92
1, 28893, Note_on_c, 0, 83, 0
1, 28896, Note_on_c, 0, 76, 75
1, 28896, Note_on_c, 1, 68, 75
1, 28896, Note_on_c, 1, 71, 75
1, 28989, Note_on_c, 0, 76, 0
1, 28989, Note_on_c, 1, 71, 0
1, 28989, Note_on_c, 1, 68, 0
1, 28992, Note_on_c, 0, 78, 75
1, 28992, Note_on_c, 1, 73, 75
1, 28992, Note_on_c, 1, 69, 75
1, 29016, Note_on_c, 0, 78, 0
1, 29016, Note_on_c, 0, 80, 75
1, 29040, Note_on_c, 0, 80, 0
1, 29040, Note_on_c, 0, 78, 75
1, 29064, Note_on_c, 0, 78, 0
1, 29064, Note_on_c, 0, 80, 75
1, 29085, Note_on_c, 0, 80, 0
1, 29085, Note_on_c, 1, 69, 0
1, 29085, Note_on_c, 1, 73, 0
1, 29088, Note_on_c, 0, 76, 60
1, 29088, Note_on_c, 1, 71, 60
1, 29088, Note_on_c, 1, 68, 60
1, 29181, Note_on_c, 0, 76, 0
1, 29181, Note_on_c, 1, 68, 0
1, 29181, Note_on_c, 1, 71, 0
1, 29184, Note_on_c, 0, 80, 45
1, 29217, Note_on_c, 0, 80, 0
1, 29220, Note_on_c, 0, 81, 45
1, 29241, Note_on_c, 0, 81, 0
1, 29244, Note_on_c, 0, 83, 45
1, 29277, Note_on_c, 0, 83, 0
1, 29280, Note_on_c, 0, 76, 45
1, 29280, Note_on_c, 1, 68, 45
1, 29280, Note_on_c, 1, 71, 45
1, 29373, Note_on_c, 0, 76, 0
1, 29373, Note_on_c, 1, 71, 0
1, 29373, Note_on_c, 1, 68, 0
1, 29376, Note_on_c, 0, 75, 45
1, 29376, Note_on_c, 1, 69, 45
1, 29376, Note_on_c, 1, 66, 45
1, 29469, Note_on_c, 0, 75, 0
1, 29469, Note_on_c, 1, 66, 0
1, 29469, Note_on_c, 1, 69, 0
1, 29472, Note_on_c, 0, 76, 45
1, 29472, Note_on_c, 1, 68, 45
1, 29472, Note_on_c, 1, 64, 45
1, 29565, Note_on_c, 0, 76, 0
1, 29565, Note_on_c, 1, 64, 0
1, 29565, Note_on_c, 1, 68, 0
1, 29568, Note_on_c, 1, 56, 60
1, 29613, Note_on_c, 1, 56, 0
1, 29616, Note_on_c, 1, 68, 60
1, 29661, Note_on_c, 1, 68, 0
1, 29664, Note_on_c, 0, 72, 60
1, 29664, Note_on_c, 0, 75, 60
1, 29664, Note_on_c, 1, 56, 60
1, 29709, Note_on_c, 1, 56, 0
1, 29712, Note_on_c, 1, 68, 60
1, 29757, Note_on_c, 0, 75, 0
1, 29757, Note_on_c, 0, 72, 0
1, 29757, Note_on_c, 1, 68, 0
1, 29760, Note_on_c, 0, 78, 60
1, 29760, Note_on_c, 0, 75, 60
1, 29760, Note_on_c, 1, 56, 60
1, 29805, Note_on_c, 1, 56, 0
1, 29808, Note_on_c, 1, 68, 60
1, 29853, Note_on_c, 0, 75, 0
1, 29853, Note_on_c, 0, 78, 0
1, 29853, Note_on_c, 1, 68, 0
1, 29856, Note_on_c, 0, 75, 60
1, 29856, Note_on_c, 0, 72, 60
1, 29856, Note_on_c, 1, 56, 60
1, 29901, Note_on_c, 1, 56, 0
1, 29904, Note_on_c, 1, 68, 60
1, 29949, Note_on_c, 0, 72, 0
1, 29949, Note_on_c, 0, 75, 0
1, 29949, Note_on_c, 1, 68, 0
1, 29952, Note_on_c, 1, 61, 60
1, 29997, Note_on_c, 1, 61, 0
1, 30000, Note_on_c, 1, 68, 60
1, 30045, Note_on_c, 1, 68, 0
1, 30048, Note_on_c, 0, 73, 60
1, 30048, Note_on_c, 0, 76, 60
1, 30048, Note_on_c, 1, 61, 60
1, 30093, Note_on_c, 1, 61, 0
1, 30096, Note_on_c, 1, 68, 60
1, 30141, Note_on_c, 0, 76, 0
1, 30141, Note_on_c, 0, 73, 0
1, 30141, Note_on_c, 1, 68, 0
1, 30144, Note_on_c, 0, 80, 60
1, 30144, Note_on_c, 0, 76, 60
1, 30144, Note_on_c, 1, 61, 60
1, 30189, Note_on_c, 1, 61, 0
1, 30192, Note_on_c, 1, 68, 60
1, 30237, Note_on_c, 0, 76, 0
1, 30237, Note_on_c, 0, 80, 0
1, 30237, Note_on_c, 1, 68, 0
1, 30240, Note_on_c, 0, 76, 60
1, 30240, Note_on_c, 0, 73, 60
1, 30240, Note_on_c, 1, 61, 60
1, 30285, Note_on_c, 1, 61, 0
1, 30288, Note_on_c, 1, 68, 60
1, 30333, Note_on_c, 0, 73, 0
1, 30333, Note_on_c, 0, 76, 0
1, 30333, Note_on_c, 1, 68, 0
1, 30336, Note_on_c, 1, 54, 75
1, 30381, Note_on_c, 1, 54, 0
1, 30384, Note_on_c, 1, 66, 75
1, 30429, Note_on_c, 1, 66, 0
1, 30432, Note_on_c, 0, 70, 75
1, 30432, Note_on_c, 0, 73, 75
1, 30432, Note_on_c, 1, 54, 75
1, 30477, Note_on_c, 1, 54, 0
1, 30480, Note_on_c, 1, 66, 75
1, 30525, Note_on_c, 0, 73, 0
1, 30525, Note_on_c, 0, 70, 0
1, 30525, Note_on_c, 1, 66, 0
1, 30528, Note_on_c, 0, 76, 75
1, 30528, Note_on_c, 0, 73, 75
1, 30528, Note_on_c, 1, 54, 75
1, 30573, Note_on_c, 1, 54, 0
1, 30576, Note_on_c, 1, 66, 75
1, 30621, Note_on_c, 0, 73, 0
1, 30621, Note_on_c, 0, 76, 0
1, 30621, Note_on_c, 1, 66, 0
1, 30624, Note_on_c, 0, 73, 75
1, 30624, Note_on_c, 0, 70, 75
1, 30624, Note_on_c, 1, 54, 75
1, 30669, Note_on_c, 1, 54, 0
1, 30672, Note_on_c, 1, 66, 75
1, 30717, Note_on_c, 0, 70, 0
1, 30717, Note_on_c, 0, 73, 0
1, 30717, Note_on_c, 1, 66, 0
1, 30720, Note_on_c, 1, 59, 75
1, 30765, Note_on_c, 1, 59, 0
1, 30768, Note_on_c, 1, 66, 75
1, 30813, Note_on_c, 1, 66, 0
1, 30816, Note_on_c, 0, 71, 75
1, 30816, Note_on_c, 0, 75, 75
1, 30816, Note_on_c, 1, 59, 75
1, 30861, Note_on_c, 1, 59, 0
1, 30864, Note_on_c, 1, 66, 75
1, 30909, Note_on_c, 0, 75, 0
1, 30909, Note_on_c, 0, 71, 0
1, 30909, Note_on_c, 1, 66, 0
1, 30912, Note_on_c, 0, 78, 75
1, 30912, Note_on_c, 0, 75, 75
1, 30912, Note_on_c, 1, 59, 75
1, 30957, Note_on_c, 1, 59, 0
1, 30960, Note_on_c, 1, 66, 75
1, 31005, Note_on_c, 0, 75, 0
1, 31005, Note_on_c, 0, 78, 0
1, 31005, Note_on_c, 1, 66, 0
1, 31008, Note_on_c, 0, 75, 75
1, 31008, Note_on_c, 0, 71, 75
1, 31008, Note_on_c, 1, 59, 75
1, 31053, Note_on_c, 1, 59, 0
1, 31056, Note_on_c, 1, 66, 75
1, 31101, Note_on_c, 0, 71, 0
1, 31101, Note_on_c, 0, 75, 0
1, 31101, Note_on_c, 1, 66, 0
1, 31104, Note_on_c, 1, 47, 92
1, 31149, Note_on_c, 1, 47, 0
1, 31152, Note_on_c, 1, 59, 92
1, 31197, Note_on_c, 1, 59, 0
1, 31200, Note_on_c, 0, 75, 92
1, 31200, Note_on_c, 0, 78, 92
1, 31200, Note_on_c, 1, 47, 92
1, 31245, Note_on_c, 1, 47, 0
1, 31248, Note_on_c, 1, 59, 92
1, 31293, Note_on_c, 0, 78, 0
1, 31293, Note_on_c, 0, 75, 0
1, 31293, Note_on_c, 1, 59, 0
1, 31296, Note_on_c, 0, 81, 92
1, 31296, Note_on_c, 0, 78, 92
1, 31296, Note_on_c, 1, 47, 92
1, 31341, Note_on_c, 1, 47, 0
1, 31344, Note_on_c, 1, 59, 92
1, 31389, Note_on_c, 0, 78, 0
1, 31389, Note_on_c, 0, 81, 0
1, 31389, Note_on_c, 1, 59, 0
1, 31392, Note_on_c, 0, 78, 92
1, 31392, Note_on_c, 0, 75, 92
1, 31392, Note_on_c, 1, 47, 92
1, 31437, Note_on_c, 1, 47, 0
1, 31440, Note_on_c, 1, 59, 92
1, 31485, Note_on_c, 0, 75, 0
1, 31485, Note_on_c, 0, 78, 0
1, 31485, Note_on_c, 1, 59, 0
1, 31488, Note_on_c, 1, 52, 92
1, 31533, Note_on_c, 1, 52, 0
1, 31536, Note_on_c, 1, 59, 92
1, 31581, Note_on_c, 1, 59, 0
1, 31584, Note_on_c, 0, 76, 92
1, 31584, Note_on_c, 0, 80, 92
1, 31584, Note_on_c, 1, 52, 92
1, 31629, Note_on_c, 1, 52, 0
1, 31632, Note_on_c, 1, 59, 92
1, 31677, Note_on_c, 0, 80, 0
1, 31677, Note_on_c, 0, 76, 0
1, 31677, Note_on_c, 1, 59, 0
1, 31680, Note_on_c, 0, 83, 92
1, 31680, Note_on_c, 0, 80, 92
1, 31680, Note_on_c, 1, 52, 92
1, 31725, Note_on_c, 1, 52, 0
1, 31728, Note_on_c, 1, 59, 92
1, 31773, Note_on_c, 0, 80, 0
1, 31773, Note_on_c, 0, 83, 0
1, 31773, Note_on_c, 1, 59, 0
1, 31776, Note_on_c, 0, 80, 92
1, 31776, Note_on_c, 0, 76, 92
1, 31776, Note_on_c, 1, 52, 92
1, 31821, Note_on_c, 1, 52, 0
1, 31824, Note_on_c, 1, 59, 92
1, 31869, Note_on_c, 0, 76, 0
1, 31869, Note_on_c, 0, 80, 0
1, 31869, Note_on_c, 1, 59, 0
1, 31872, Note_on_c, 1, 57, 75
1, 31917, Note_on_c, 1, 57, 0
1, 31920, Note_on_c, 1, 64, 75
1, 31965, Note_on_c, 1, 64, 0
1, 31968, Note_on_c, 0, 73, 75
1, 31968, Note_on_c, 1, 57, 75
1, 31989, Note_on_c, 0, 73, 0
1, 31992, Note_on_c, 0, 75, 75
1, 32013, Note_on_c, 0, 75, 0
1, 32013, Note_on_c, 1, 57, 0
1, 32016, Note_on_c, 0, 73, 75
1, 32016, Note_on_c, 1, 64, 75
1, 32037, Note_on_c, 0, 73, 0
1, 32040, Note_on_c, 0, 75, 75
1, 32061, Note_on_c, 0, 75, 0
1, 32061, Note_on_c, 1, 64, 0
1, 32064, Note_on_c, 0, 71, 75
1, 32064, Note_on_c, 1, 56, 75
1, 32109, Note_on_c, 1, 56, 0
1, 32112, Note_on_c, 1, 64, 75
1, 32157, Note_on_c, 0, 71, 0
1, 32157, Note_on_c, 1, 64, 0
1, 32160, Note_on_c, 0, 76, 75
1, 32160, Note_on_c, 1, 56, 75
1, 32205, Note_on_c, 1, 56, 0
1, 32208, Note_on_c, 1, 64, 75
1, 32253, Note_on_c, 0, 76, 0
1, 32253, Note_on_c, 1, 64, 0
1, 32256, Note_on_c, 1, 54, 75
1, 32301, Note_on_c, 1, 54, 0
1, 32304, Note_on_c, 1, 63, 75
1, 32349, Note_on_c, 1, 63, 0
1, 32352, Note_on_c, 0, 81, 60
1, 32352, Note_on_c, 1, 57, 60
1, 32397, Note_on_c, 1, 57, 0
1, 32400, Note_on_c, 1, 63, 60
1, 32445, Note_on_c, 0, 81, 0
1, 32445, Note_on_c, 1, 63, 0
1, 32448, Note_on_c, 0, 80, 60
1, 32448, Note_on_c, 1, 52, 60
1, 32469, Note_on_c, 0, 80, 0
1, 32472, Note_on_c, 0, 81, 60
1, 32493, Note_on_c, 0, 81, 0
1, 32493, Note_on_c, 1, 52, 0
1, 32496, Note_on_c, 0, 80, 60
1, 32496, Note_on_c, 1, 59, 60
1, 32517, Note_on_c, 0, 80, 0
1, 32520, Note_on_c, 0, 81, 60
1, 32541, Note_on_c, 0, 81, 0
1, 32541, Note_on_c, 1, 59, 0
1, 32544, Note_on_c, 0, 76, 60
1, 32544, Note_on_c, 1, 56, 60
1, 32589, Note_on_c, 1, 56, 0
1, 32592, Note_on_c, 1, 59, 60
1, 32637, Note_on_c, 0, 76, 0
1, 32637, Note_on_c, 1, 59, 0
1, 32640, Note_on_c, 1, 57, 45
1, 32685, Note_on_c, 1, 57, 0
1, 32688, Note_on_c, 1, 64, 45
1, 32733, Note_on_c, 1, 64, 0
1, 32736, Note_on_c, 0, 73, 45
1, 32736, Note_on_c, 1, 57, 45
1, 32757, Note_on_c, 0, 73, 0
1, 32760, Note_on_c, 0, 74, 45
1, 32781, Note_on_c, 0, 74, 0
1, 32781, Note_on_c, 1, 57, 0
1, 32784, Note_on_c, 0, 73, 45
1, 32784, Note_on_c, 1, 64, 45
1, 32805, Note_on_c, 0, 73, 0
1, 32808, Note_on_c, 0, 74, 45
1, 32829, Note_on_c, 0, 74, 0
1, 32829, Note_on_c, 1, 64, 0
1, 32832, Note_on_c, 0, 71, 45
1, 32832, Note_on_c, 1, 56, 45
1, 32877, Note_on_c, 1, 56, 0
1, 32880, Note_on_c, 1, 64, 45
1, 32925, Note_on_c, 0, 71, 0
1, 32925, Note_on_c, 1, 64, 0
1, 32928, Note_on_c, 0, 76, 45
1, 32928, Note_on_c, 1, 56, 45
1, 32973, Note_on_c, 1, 56, 0
1, 32976, Note_on_c, 1, 64, 45
1, 33021, Note_on_c, 0, 76, 0
1, 33021, Note_on_c, 1, 64, 0
1, 33024, Note_on_c, 1, 54, 45
1, 33069, Note_on_c, 1, 54, 0
1, 33072, Note_on_c, 1, 63, 45
1, 33117, Note_on_c, 1, 63, 0
1, 33120, Note_on_c, 0, 81, 45
1, 33120, Note_on_c, 1, 57, 45
1, 33165, Note_on_c, 1, 57, 0
1, 33168, Note_on_c, 1, 63, 46
1, 33213, Note_on_c, 0, 81, 0
1, 33213, Note_on_c, 1, 63, 0
1, 33216, Note_on_c, 0, 80, 46
1, 33216, Note_on_c, 1, 52, 47
1, 33237, Note_on_c, 0, 80, 0
1, 33240, Note_on_c, 0, 81, 47
1, 33261, Note_on_c, 0, 81, 0
1, 33261, Note_on_c, 1, 52, 0
1, 33264, Note_on_c, 0, 80, 48
1, 33264, Note_on_c, 1, 59, 48
1, 33285, Note_on_c, 0, 80, 0
1, 33288, Note_on_c, 0, 81, 49
1, 33309, Note_on_c, 0, 81, 0
1, 33309, Note_on_c, 1, 59, 0
1, 33312, Note_on_c, 0, 76, 50
1, 33312, Note_on_c, 1, 56, 49
1, 33357, Note_on_c, 1, 56, 0
1, 33360, Note_on_c, 1, 59, 50
1, 33405, Note_on_c, 0, 76, 0
1, 33405, Note_on_c, 1, 59, 0
1, 33408, Note_on_c, 1, 47, 51
1, 33453, Note_on_c, 1, 47, 0
1, 33456, Note_on_c, 1, 59, 52
1, 33501, Note_on_c, 1, 59, 0
1, 33504, Note_on_c, 0, 71, 52
1, 33504, Note_on_c, 1, 51, 53
1, 33549, Note_on_c, 1, 51, 0
1, 33552, Note_on_c, 1, 59, 54
1, 33597, Note_on_c, 0, 71, 0
1, 33597, Note_on_c, 1, 59, 0
1, 33600, Note_on_c, 0, 71, 53
1, 33600, Note_on_c, 1, 47, 55
1, 33645, Note_on_c, 1, 47, 0
1, 33648, Note_on_c, 1, 59, 56
1, 33693, Note_on_c, 0, 71, 0
1, 33693, Note_on_c, 1, 59, 0
1, 33696, Note_on_c, 0, 71, 54
1, 33696, Note_on_c, 1, 51, 57
1, 33741, Note_on_c, 1, 51, 0
1, 33744, Note_on_c, 1, 59, 58
1, 33789, Note_on_c, 0, 71, 0
1, 33789, Note_on_c, 1, 59, 0
1, 33792, Note_on_c, 1, 47, 59
1, 33837, Note_on_c, 1, 47, 0
1, 33840, Note_on_c, 1, 59, 60
1, 33885, Note_on_c, 1, 59, 0
1, 33888, Note_on_c, 0, 71, 56
1, 33888, Note_on_c, 0, 73, 56
1, 33888, Note_on_c, 1, 52, 61
1, 33933, Note_on_c, 1, 52, 0
1, 33936, Note_on_c, 1, 59, 62
1, 33981, Note_on_c, 0, 73, 0
1, 33981, Note_on_c, 0, 71, 0
1, 33981, Note_on_c, 1, 59, 0
1, 33984, Note_on_c, 0, 73, 57
1, 33984, Note_on_c, 0, 71, 57
1, 33984, Note_on_c, 1, 47, 63
1, 34029, Note_on_c, 1, 47, 0
1, 34032, Note_on_c, 1, 59, 64
1, 34077, Note_on_c, 0, 71, 0
1, 34077, Note_on_c, 0, 73, 0
1, 34077, Note_on_c, 1, 59, 0
1, 34080, Note_on_c, 0, 73, 58
1, 34080, Note_on_c, 0, 71, 58
1, 34080, Note_on_c, 1, 52, 65
1, 34125, Note_on_c, 1, 52, 0
1, 34128, Note_on_c, 1, 59, 66
1, 34173, Note_on_c, 0, 71, 0
1, 34173, Note_on_c, 0, 73, 0
1, 34173, Note_on_c, 1, 59, 0
1, 34176, Note_on_c, 1, 47, 67
1, 34221, Note_on_c, 1, 47, 0
1, 34224, Note_on_c, 1, 59, 68
1, 34269, Note_on_c, 1, 59, 0
1, 34272, Note_on_c, 0, 69, 60
1, 34272, Note_on_c, 0, 73, 60
1, 34272, Note_on_c, 1, 54, 69
1, 34317, Note_on_c, 1, 54, 0
1, 34320, Note_on_c, 1, 59, 70
1, 34365, Note_on_c, 0, 73, 0
1, 34365, Note_on_c, 0, 69, 0
1, 34365, Note_on_c, 1, 59, 0
1, 34368, Note_on_c, 0, 73, 61
1, 34368, Note_on_c, 0, 69, 61
1, 34368, Note_on_c, 1, 47, 71
1, 34413, Note_on_c, 1, 47, 0
1, 34416, Note_on_c, 1, 59, 72
1, 34461, Note_on_c, 0, 69, 0
1, 34461, Note_on_c, 0, 73, 0
1, 34461, Note_on_c, 1, 59, 0
1, 34464, Note_on_c, 0, 73, 62
1, 34464, Note_on_c, 0, 69, 62
1, 34464, Note_on_c, 1, 54, 73
1, 34509, Note_on_c, 1, 54, 0
1, 34512, Note_on_c, 1, 59, 74
1, 34557, Note_on_c, 0, 69, 0
1, 34557, Note_on_c, 0, 73, 0
1, 34557, Note_on_c, 1, 59, 0
1, 34560, Note_on_c, 1, 47, 75
1, 34605, Note_on_c, 1, 47, 0
1, 34608, Note_on_c, 1, 59, 76
1, 34653, Note_on_c, 1, 59, 0
1, 34656, Note_on_c, 0, 69, 64
1, 34656, Note_on_c, 0, 75, 64
1, 34656, Note_on_c, 1, 54, 77
1, 34701, Note_on_c, 1, 54, 0
1, 34704, Note_on_c, 1, 59, 78
1, 34749, Note_on_c, 0, 75, 0
1, 34749, Note_on_c, 0, 69, 0
1, 34749, Note_on_c, 1, 59, 0
1, 34752, Note_on_c, 0, 75, 65
1, 34752, Note_on_c, 0, 69, 65
1, 34752, Note_on_c, 1, 47, 79
1, 34797, Note_on_c, 1, 47, 0
1, 34800, Note_on_c, 1, 59, 80
1, 34845, Note_on_c, 0, 69, 0
1, 34845, Note_on_c, 0, 75, 0
1, 34845, Note_on_c, 1, 59, 0
1, 34848, Note_on_c, 0, 75, 66
1, 34848, Note_on_c, 0, 69, 66
1, 34848, Note_on_c, 1, 54, 81
1, 34893, Note_on_c, 1, 54, 0
1, 34896, Note_on_c, 1, 59, 82
1, 34941, Note_on_c, 0, 69, 0
1, 34941, Note_on_c, 0, 75, 0
1, 34941, Note_on_c, 1, 59, 0
1, 34944, Note_on_c, 0, 76, 108
1, 34944, Note_on_c, 0, 71, 108
1, 34944, Note_on_c, 0, 68, 108
1, 34944, Note_on_c, 1, 52, 108
1, 34989, Note_on_c, 1, 52, 0
1, 34992, Note_on_c, 1, 59, 108
1, 35037, Note_on_c, 1, 59, 0
1, 35040, Note_on_c, 1, 56, 108
1, 35085, Note_on_c, 1, 56, 0
1, 35088, Note_on_c, 1, 59, 108
1, 35104, Note_on_c, 0, 68, 0
1, 35104, Note_on_c, 0, 71, 0
1, 35104, Note_on_c, 0, 76, 0
1, 35133, Note_on_c, 1, 59, 0
1, 35136, Note_on_c, 0, 81, 108
1, 35136, Note_on_c, 0, 78, 108
1, 35136, Note_on_c, 0, 75, 108
1, 35136, Note_on_c, 0, 71, 108
1, 35136, Note_on_c, 1, 51, 108
1, 35181, Note_on_c, 1, 51, 0
1, 35184, Note_on_c, 1, 59, 108
1, 35229, Note_on_c, 1, 59, 0
1, 35232, Note_on_c, 1, 54, 108
1, 35277, Note_on_c, 1, 54, 0
1, 35280, Note_on_c, 1, 59, 108
1, 35296, Note_on_c, 0, 71, 0
1, 35296, Note_on_c, 0, 75, 0
1, 35296, Note_on_c, 0, 78, 0
1, 35296, Note_on_c, 0, 81, 0
1, 35325, Note_on_c, 1, 59, 0
1, 35328, Note_on_c, 0, 80, 108
1, 35328, Note_on_c, 0, 76, 108
1, 35328, Note_on_c, 0, 71, 108
1, 35328, Note_on_c, 1, 52, 108
1, 35373, Note_on_c, 1, 52, 0
1, 35376, Note_on_c, 1, 59, 108
1, 35421, Note_on_c, 1, 59, 0
1, 35424, Note_on_c, 1, 56, 108
1, 35469, Note_on_c, 1, 56, 0
1, 35472, Note_on_c, 1, 59, 108
1, 35488, Note_on_c, 0, 71, 0
1, 35488, Note_on_c, 0, 76, 0
1, 35488, Note_on_c, 0, 80, 0
1, 35517, Note_on_c, 1, 59, 0
1, 35520, Note_on_c, 0, 78, 108
1, 35520, Note_on_c, 0, 75, 108
1, 35520, Note_on_c, 0, 69, 108
1, 35520, Note_on_c, 1, 54, 108
1, 35565, Note_on_c, 1, 54, 0
1, 35568, Note_on_c, 1, 59, 108
1, 35613, Note_on_c, 1, 59, 0
1, 35616, Note_on_c, 1, 57, 108
1, 35661, Note_on_c, 1, 57, 0
1, 35664, Note_on_c, 1, 59, 108
1, 35680, Note_on_c, 0, 69, 0
1, 35680, Note_on_c, 0, 75, 0
1, 35680, Note_on_c, 0, 78, 0
1, 35709, Note_on_c, 1, 59, 0
1, 35712, Note_on_c, 0, 76, 92
1, 35712, Note_on_c, 0, 71, 92
1, 35712, Note_on_c, 0, 68, 92
1, 35712, Note_on_c, 1, 52, 92
1, 35757, Note_on_c, 1, 52, 0
1, 35760, Note_on_c, 1, 59, 92
1, 35805, Note_on_c, 1, 59, 0
1, 35808, Note_on_c, 1, 56, 92
1, 35853, Note_on_c, 1, 56, 0
1, 35856, Note_on_c, 1, 59, 92
1, 35872, Note_on_c, 0, 68, 0
1, 35872, Note_on_c, 0, 71, 0
1, 35872, Note_on_c, 0, 76, 0
1, 35901, Note_on_c, 1, 59, 0
1, 35904, Note_on_c, 0, 81, 92
1, 35904, Note_on_c, 0, 78, 92
1, 35904, Note_on_c, 0, 75, 92
1, 35904, Note_on_c, 0, 71, 92
1, 35904, Note_on_c, 1, 51, 92
1, 35949, Note_on_c, 1, 51, 0
1, 35952, Note_on_c, 1, 59, 92
1, 35997, Note_on_c, 1, 59, 0
1, 36000, Note_on_c, 1, 54, 92
1, 36045, Note_on_c, 1, 54, 0
1, 36048, Note_on_c, 1, 59, 92
1, 36064, Note_on_c, 0, 71, 0
1, 36064, Note_on_c, 0, 75, 0
1, 36064, Note_on_c, 0, 78, 0
1, 36064, Note_on_c, 0, 81, 0
1, 36093, Note_on_c, 1, 59, 0
1, 36096, Note_on_c, 0, 80, 92
1, 36096, Note_on_c, 0, 76, 92
1, 36096, Note_on_c, 0, 71, 92
1, 36096, Note_on_c, 1, 52, 92
1, 36141, Note_on_c, 1, 52, 0
1, 36144, Note_on_c, 1, 59, 92
1, 36189, Note_on_c, 1, 59, 0
1, 36192, Note_on_c, 1, 56, 92
1, 36237, Note_on_c, 1, 56, 0
1, 36240, Note_on_c, 1, 59, 92
1, 36256, Note_on_c, 0, 71, 0
1, 36256, Note_on_c, 0, 76, 0
1, 36256, Note_on_c, 0, 80, 0
1, 36285, Note_on_c, 1, 59, 0
1, 36288, Note_on_c, 0, 78, 92
1, 36288, Note_on_c, 0, 75, 92
1, 36288, Note_on_c, 0, 69, 92
1, 36288, Note_on_c, 1, 54, 92
1, 36333, Note_on_c, 1, 54, 0
1, 36336, Note_on_c, 1, 59, 92
1, 36381, Note_on_c, 1, 59, 0
1, 36384, Note_on_c, 1, 57, 92
1, 36429, Note_on_c, 1, 57, 0
1, 36432, Note_on_c, 1, 59, 92
1, 36448, Note_on_c, 0, 69, 0
1, 36448, Note_on_c, 0, 75, 0
1, 36448, Note_on_c, 0, 78, 0
1, 36477, Note_on_c, 1, 59, 0
1, 36480, Note_on_c, 0, 76, 60
1, 36480, Note_on_c, 1, 56, 60
1, 36525, Note_on_c, 0, 76, 0
1, 36528, Note_on_c, 0, 80, 60
1, 36573, Note_on_c, 0, 80, 0
1, 36576, Note_on_c, 0, 71, 60
1, 36621, Note_on_c, 0, 71, 0
1, 36624, Note_on_c, 0, 76, 60
1, 36640, Note_on_c, 1, 56, 0
1, 36669, Note_on_c, 0, 76, 0
1, 36672, Note_on_c, 0, 68, 60
1, 36717, Note_on_c, 0, 68, 0
1, 36720, Note_on_c, 0, 71, 60
1, 36765, Note_on_c, 0, 71, 0
1, 36768, Note_on_c, 0, 64, 60
1, 36813, Note_on_c, 0, 64, 0
1, 36816, Note_on_c, 0, 68, 60
1, 36861, Note_on_c, 0, 68, 0
1, 36864, Note_on_c, 0, 73, 60
1, 36864, Note_on_c, 1, 57, 60
1, 36909, Note_on_c, 0, 73, 0
1, 36912, Note_on_c, 0, 76, 60
1, 36957, Note_on_c, 0, 76, 0
1, 36960, Note_on_c, 0, 69, 60
1, 37005, Note_on_c, 0, 69, 0
1, 37008, Note_on_c, 0, 73, 60
1, 37024, Note_on_c, 1, 57, 0
1, 37053, Note_on_c, 0, 73, 0
1, 37056, Note_on_c, 0, 66, 60
1, 37101, Note_on_c, 0, 66, 0
1, 37104, Note_on_c, 0, 69, 60
1, 37149, Note_on_c, 0, 69, 0
1, 37152, Note_on_c, 0, 61, 60
1, 37197, Note_on_c, 0, 61, 0
1, 37200, Note_on_c, 0, 66, 60
1, 37245, Note_on_c, 0, 66, 0
1, 37248, Note_on_c, 0, 64, 60
1, 37248, Note_on_c, 1, 56, 60
1, 37248, Note_on_c, 1, 47, 60
1, 37341, Note_on_c, 1, 47, 0
1, 37341, Note_on_c, 1, 56, 0
1, 37344, Note_on_c, 1, 47, 60
1, 37344, Note_on_c, 1, 56, 60
1, 37408, Note_on_c, 0, 64, 0
1, 37437, Note_on_c, 1, 56, 0
1, 37437, Note_on_c, 1, 47, 0
1, 37440, Note_on_c, 0, 63, 60
1, 37440, Note_on_c, 1, 54, 60
1, 37440, Note_on_c, 1, 47, 60
1, 37461, Note_on_c, 0, 63, 0
1, 37464, Note_on_c, 0, 64, 60
1, 37485, Note_on_c, 0, 64, 0
1, 37488, Note_on_c, 0, 63, 60
1, 37509, Note_on_c, 0, 63, 0
1, 37512, Note_on_c, 0, 64, 60
1, 37533, Note_on_c, 0, 64, 0
1, 37533, Note_on_c, 1, 47, 0
1, 37533, Note_on_c, 1, 54, 0
1, 37536, Note_on_c, 0, 63, 60
1, 37536, Note_on_c, 1, 54, 60
1, 37536, Note_on_c, 1, 47, 60
1, 37557, Note_on_c, 0, 63, 0
1, 37560, Note_on_c, 0, 64, 60
1, 37581, Note_on_c, 0, 64, 0
1, 37584, Note_on_c, 0, 63, 60
1, 37605, Note_on_c, 0, 63, 0
1, 37608, Note_on_c, 0, 64, 60
1, 37629, Note_on_c, 0, 64, 0
1, 37629, Note_on_c, 1, 47, 0
1, 37629, Note_on_c, 1, 54, 0
1, 37632, Note_on_c, 0, 64, 60
1, 37632, Note_on_c, 1, 52, 60
1, 37632, Note_on_c, 1, 40, 60
1, 37792, Note_on_c, 0, 64, 0
1, 37792, Note_on_c, 1, 40, 0
1, 37792, Note_on_c, 1, 52, 0
1, 38016, Note_on_c, 0, 76, 92
1, 38016, Note_on_c, 0, 71, 92
1, 38016, Note_on_c, 0, 67, 92
1, 38112, Note_on_c, 1, 40, 92
1, 38112, Note_on_c, 1, 52, 92
1, 38176, Note_on_c, 0, 67, 0
1, 38176, Note_on_c, 0, 71, 0
1, 38176, Note_on_c, 0, 76, 0
1, 38205, Note_on_c, 1, 52, 0
1, 38205, Note_on_c, 1, 40, 0
1, 38208, Note_on_c, 1, 55, 92
1, 38208, Note_on_c, 1, 43, 92
1, 38301, Note_on_c, 1, 43, 0
1, 38301, Note_on_c, 1, 55, 0
1, 38304, Note_on_c, 0, 76, 92
1, 38304, Note_on_c, 0, 67, 92
1, 38304, Note_on_c, 1, 52, 92
1, 38304, Note_on_c, 1, 40, 92
1, 38397, Note_on_c, 0, 67, 0
1, 38397, Note_on_c, 0, 76, 0
1, 38397, Note_on_c, 1, 40, 0
1, 38397, Note_on_c, 1, 52, 0
1, 38400, Note_on_c, 0, 76, 92
1, 38400, Note_on_c, 0, 67, 92
1, 38445, Note_on_c, 0, 67, 0
1, 38445, Note_on_c, 0, 76, 0
1, 38448, Note_on_c, 0, 66, 92
1, 38448, Note_on_c, 0, 75, 92
1, 38493, Note_on_c, 0, 75, 0
1, 38493, Note_on_c, 0, 66, 0
1, 38496, Note_on_c, 0, 66, 92
1, 38496, Note_on_c, 0, 75, 92
1, 38496, Note_on_c, 1, 59, 92
1, 38496, Note_on_c, 1, 47, 92
1, 38589, Note_on_c, 0, 75, 0
1, 38589, Note_on_c, 0, 66, 0
1, 38589, Note_on_c, 1, 47, 0
1, 38589, Note_on_c, 1, 59, 0
1, 38592, Note_on_c, 1, 63, 92
1, 38592, Note_on_c, 1, 51, 92
1, 38685, Note_on_c, 1, 51, 0
1, 38685, Note_on_c, 1, 63, 0
1, 38688, Note_on_c, 1, 59, 92
1, 38688, Note_on_c, 1, 47, 92
1, 38781, Note_on_c, 1, 47, 0
1, 38781, Note_on_c, 1, 59, 0
1, 38784, Note_on_c, 0, 81, 92
1, 38784, Note_on_c, 0, 78, 92
1, 38784, Note_on_c, 0, 75, 92
1, 38784, Note_on_c, 0, 71, 92
1, 38880, Note_on_c, 1, 47, 92
1, 38880, Note_on_c, 1, 59, 92
1, 38944, Note_on_c, 0, 71, 0
1, 38944, Note_on_c, 0, 75, 0
1, 38944, Note_on_c, 0, 78, 0
1, 38944, Note_on_c, 0, 81, 0
1, 38973, Note_on_c, 1, 59, 0
1, 38973, Note_on_c, 1, 47, 0
1, 38976, Note_on_c, 1, 63, 92
1, 38976, Note_on_c, 1, 51, 92
1, 39069, Note_on_c, 1, 51, 0
1, 39069, Note_on_c, 1, 63, 0
1, 39072, Note_on_c, 0, 81, 92
1, 39072, Note_on_c, 0, 78, 92
1, 39072, Note_on_c, 1, 59, 92
1, 39072, Note_on_c, 1, 47, 92
1, 39165, Note_on_c, 0, 78, 0
1, 39165, Note_on_c, 0, 81, 0
1, 39165, Note_on_c, 1, 47, 0
1, 39165, Note_on_c, 1, 59, 0
1, 39168, Note_on_c, 0, 81, 92
1, 39168, Note_on_c, 0, 78, 92
1, 39213, Note_on_c, 0, 78, 0
1, 39213, Note_on_c, 0, 81, 0
1, 39216, Note_on_c, 0, 76, 92
1, 39216, Note_on_c, 0, 79, 92
1, 39261, Note_on_c, 0, 79, 0
1, 39261, Note_on_c, 0, 76, 0
1, 39264, Note_on_c, 0, 76, 92
1, 39264, Note_on_c, 0, 79, 92
1, 39264, Note_on_c, 1, 52, 92
1, 39264, Note_on_c, 1, 40, 92
1, 39357, Note_on_c, 0, 79, 0
1, 39357, Note_on_c, 0, 76, 0
1, 39357, Note_on_c, 1, 40, 0
1, 39357, Note_on_c, 1, 52, 0
1, 39360, Note_on_c, 1, 55, 92
1, 39360, Note_on_c, 1, 43, 92
1, 39453, Note_on_c, 1, 43, 0
1, 39453, Note_on_c, 1, 55, 0
1, 39456, Note_on_c, 1, 52, 92
1, 39456, Note_on_c, 1, 40, 92
1, 39549, Note_on_c, 1, 40, 0
1, 39549, Note_on_c, 1, 52, 0
1, 39552, Note_on_c, 0, 84, 108
1, 39552, Note_on_c, 0, 81, 108
1, 39648, Note_on_c, 1, 45, 108
1, 39648, Note_on_c, 1, 57, 108
1, 39712, Note_on_c, 0, 81, 0
1, 39712, Note_on_c, 0, 84, 0
1, 39741, Note_on_c, 1, 57, 0
1, 39741, Note_on_c, 1, 45, 0
1, 39744, Note_on_c, 1, 54, 108
1, 39744, Note_on_c, 1, 42, 108
1, 39837, Note_on_c, 1, 42, 0
1, 39837, Note_on_c, 1, 54, 0
1, 39840, Note_on_c, 0, 84, 108
1, 39840, Note_on_c, 0, 81, 108
1, 39840, Note_on_c, 1, 50, 108
1, 39840, Note_on_c, 1, 38, 108
1, 39933, Note_on_c, 0, 81, 0
1, 39933, Note_on_c, 0, 84, 0
1, 39933, Note_on_c, 1, 38, 0
1, 39933, Note_on_c, 1, 50, 0
1, 39936, Note_on_c, 0, 84, 108
1, 39936, Note_on_c, 0, 81, 108
1, 39984, Note_on_c, 0, 81, 0
1, 39984, Note_on_c, 0, 84, 0
1, 39984, Note_on_c, 0, 79, 108
1, 39984, Note_on_c, 0, 83, 108
1, 40029, Note_on_c, 0, 83, 0
1, 40029, Note_on_c, 0, 79, 0
1, 40032, Note_on_c, 0, 79, 108
1, 40032, Note_on_c, 0, 83, 108
1, 40032, Note_on_c, 1, 55, 108
1, 40032, Note_on_c, 1, 43, 108
1, 40125, Note_on_c, 0, 83, 0
1, 40125, Note_on_c, 0, 79, 0
1, 40125, Note_on_c, 1, 43, 0
1, 40125, Note_on_c, 1, 55, 0
1, 40128, Note_on_c, 1, 52, 108
1, 40128, Note_on_c, 1, 40, 108
1, 40221, Note_on_c, 1, 40, 0
1, 40221, Note_on_c, 1, 52, 0
1, 40224, Note_on_c, 0, 83, 108
1, 40224, Note_on_c, 0, 79, 108
1, 40224, Note_on_c, 1, 48, 108
1, 40224, Note_on_c, 1, 36, 108
1, 40317, Note_on_c, 0, 79, 0
1, 40317, Note_on_c, 0, 83, 0
1, 40317, Note_on_c, 1, 36, 0
1, 40317, Note_on_c, 1, 48, 0
1, 40320, Note_on_c, 0, 83, 108
1, 40320, Note_on_c, 0, 79, 108
1, 40368, Note_on_c, 0, 79, 0
1, 40368, Note_on_c, 0, 83, 0
1, 40368, Note_on_c, 0, 78, 108
1, 40368, Note_on_c, 0, 81, 108
1, 40413, Note_on_c, 0, 81, 0
1, 40413, Note_on_c, 0, 78, 0
1, 40416, Note_on_c, 0, 78, 108
1, 40416, Note_on_c, 0, 81, 108
1, 40416, Note_on_c, 1, 54, 108
1, 40416, Note_on_c, 1, 42, 108
1, 40509, Note_on_c, 0, 81, 0
1, 40509, Note_on_c, 0, 78, 0
1, 40509, Note_on_c, 1, 42, 0
1, 40509, Note_on_c, 1, 54, 0
1, 40512, Note_on_c, 1, 51, 108
1, 40512, Note_on_c, 1, 39, 108
1, 40605, Note_on_c, 1, 39, 0
1, 40605, Note_on_c, 1, 51, 0
1, 40608, Note_on_c, 0, 81, 108
1, 40608, Note_on_c, 0, 78, 108
1, 40608, Note_on_c, 1, 47, 108
1, 40608, Note_on_c, 1, 35, 108
1, 40701, Note_on_c, 0, 78, 0
1, 40701, Note_on_c, 0, 81, 0
1, 40701, Note_on_c, 1, 35, 0
1, 40701, Note_on_c, 1, 47, 0
1, 40704, Note_on_c, 0, 81, 108
1, 40704, Note_on_c, 0, 78, 108
1, 40752, Note_on_c, 0, 78, 0
1, 40752, Note_on_c, 0, 81, 0
1, 40752, Note_on_c, 0, 76, 108
1, 40752, Note_on_c, 0, 79, 108
1, 40797, Note_on_c, 0, 79, 0
1, 40797, Note_on_c, 0, 76, 0
1, 40800, Note_on_c, 0, 76, 108
1, 40800, Note_on_c, 0, 79, 108
1, 40800, Note_on_c, 1, 52, 108
1, 40800, Note_on_c, 1, 40, 108
1, 40893, Note_on_c, 0, 79, 0
1, 40893, Note_on_c, 0, 76, 0
1, 40893, Note_on_c, 1, 40, 0
1, 40893, Note_on_c, 1, 52, 0
1, 40896, Note_on_c, 1, 55, 108
1, 40896, Note_on_c, 1, 43, 108
1, 40989, Note_on_c, 1, 43, 0
1, 40989, Note_on_c, 1, 55, 0
1, 40992, Note_on_c, 0, 79, 108
1, 40992, Note_on_c, 0, 76, 108
1, 40992, Note_on_c, 1, 52, 108
1, 40992, Note_on_c, 1, 40, 108
1, 41085, Note_on_c, 0, 76, 0
1, 41085, Note_on_c, 0, 79, 0
1, 41085, Note_on_c, 1, 40, 0
1, 41085, Note_on_c, 1, 52, 0
1, 41088, Note_on_c, 0, 81, 108
1, 41088, Note_on_c, 0, 78, 108
1, 41136, Note_on_c, 0, 78, 0
1, 41136, Note_on_c, 0, 81, 0
1, 41136, Note_on_c, 0, 76, 108
1, 41136, Note_on_c, 0, 79, 108
1, 41181, Note_on_c, 0, 79, 0
1, 41181, Note_on_c, 0, 76, 0
1, 41184, Note_on_c, 0, 76, 108
1, 41184, Note_on_c, 0, 79, 108
1, 41184, Note_on_c, 1, 48, 108
1, 41184, Note_on_c, 1, 36, 108
1, 41277, Note_on_c, 0, 79, 0
1, 41277, Note_on_c, 0, 76, 0
1, 41277, Note_on_c, 1, 36, 0
1, 41277, Note_on_c, 1, 48, 0
1, 41280, Note_on_c, 1, 52, 108
1, 41280, Note_on_c, 1, 40, 108
1, 41373, Note_on_c, 1, 40, 0
1, 41373, Note_on_c, 1, 52, 0
1, 41376, Note_on_c, 0, 79, 108
1, 41376, Note_on_c, 0, 76, 108
1, 41376, Note_on_c, 1, 48, 108
1, 41376, Note_on_c, 1, 36, 108
1, 41469, Note_on_c, 0, 76, 0
1, 41469, Note_on_c, 0, 79, 0
1, 41469, Note_on_c, 1, 36, 0
1, 41469, Note_on_c, 1, 48, 0
1, 41472, Note_on_c, 0, 81, 108
1, 41472, Note_on_c, 0, 78, 108
1, 41520, Note_on_c, 0, 78, 0
1, 41520, Note_on_c, 0, 81, 0
1, 41520, Note_on_c, 0, 76, 108
1, 41520, Note_on_c, 0, 79, 108
1, 41565, Note_on_c, 0, 79, 0
1, 41565, Note_on_c, 0, 76, 0
1, 41568, Note_on_c, 0, 76, 108
1, 41568, Note_on_c, 0, 79, 108
1, 41568, Note_on_c, 1, 48, 108
1, 41568, Note_on_c, 1, 36, 108
1, 41661, Note_on_c, 0, 79, 0
1, 41661, Note_on_c, 0, 76, 0
1, 41661, Note_on_c, 1, 36, 0
1, 41661, Note_on_c, 1, 48, 0
1, 41664, Note_on_c, 1, 47, 108
1, 41664, Note_on_c, 1, 35, 108
1, 41757, Note_on_c, 1, 35, 0
1, 41757, Note_on_c, 1, 47, 0
1, 41760, Note_on_c, 0, 79, 108
1, 41760, Note_on_c, 0, 76, 108
1, 41760, Note_on_c, 1, 46, 108
1, 41760, Note_on_c, 1, 34, 108
1, 41853, Note_on_c, 0, 76, 0
1, 41853, Note_on_c, 0, 79, 0
1, 41853, Note_on_c, 1, 34, 0
1, 41853, Note_on_c, 1, 46, 0
1, 41856, Note_on_c, 0, 79, 108
1, 41856, Note_on_c, 0, 76, 108
1, 41856, Note_on_c, 1, 47, 108
1, 41856, Note_on_c, 1, 35, 108
1, 41952, Note_on_c, 0, 76, 0
1, 41952, Note_on_c, 0, 79, 0
1, 41952, Note_on_c, 0, 78, 108
1, 41952, Note_on_c, 0, 75, 108
1, 42016, Note_on_c, 1, 35, 0
1, 42016, Note_on_c, 1, 47, 0
1, 42045, Note_on_c, 0, 75, 0
1, 42045, Note_on_c, 0, 78, 0
1, 42240, Note_on_c, 0, 64, 92
1, 42240, Note_on_c, 1, 52, 92
1, 42240, Note_on_c, 1, 40, 92
1, 42273, Note_on_c, 0, 64, 0
1, 42276, Note_on_c, 0, 68, 92
1, 42297, Note_on_c, 0, 68, 0
1, 42300, Note_on_c, 0, 71, 92
1, 42333, Note_on_c, 0, 71, 0
1, 42336, Note_on_c, 0, 68, 92
1, 42369, Note_on_c, 0, 68, 0
1, 42372, Note_on_c, 0, 71, 92
1, 42393, Note_on_c, 0, 71, 0
1, 42396, Note_on_c, 0, 76, 92
1, 42400, Note_on_c, 1, 40, 0
1, 42400, Note_on_c, 1, 52, 0
1, 42429, Note_on_c, 0, 76, 0
1, 42432, Note_on_c, 0, 71, 92
1, 42465, Note_on_c, 0, 71, 0
1, 42468, Note_on_c, 0, 76, 92
1, 42489, Note_on_c, 0, 76, 0
1, 42492, Note_on_c, 0, 80, 92
1, 42525, Note_on_c, 0, 80, 0
1, 42528, Note_on_c, 0, 76, 92
1, 42561, Note_on_c, 0, 76, 0
1, 42564, Note_on_c, 0, 80, 92
1, 42585, Note_on_c, 0, 80, 0
1, 42588, Note_on_c, 0, 83, 92
1, 42621, Note_on_c, 0, 83, 0
1, 42624, Note_on_c, 0, 81, 92
1, 42624, Note_on_c, 0, 78, 92
1, 42720, Note_on_c, 1, 47, 91
1, 42720, Note_on_c, 1, 59, 91
1, 42784, Note_on_c, 0, 78, 0
1, 42784, Note_on_c, 0, 81, 0
1, 42813, Note_on_c, 1, 59, 0
1, 42813, Note_on_c, 1, 47, 0
1, 42816, Note_on_c, 1, 63, 90
1, 42816, Note_on_c, 1, 51, 90
1, 42909, Note_on_c, 1, 51, 0
1, 42909, Note_on_c, 1, 63, 0
1, 42912, Note_on_c, 1, 59, 89
1, 42912, Note_on_c, 1, 47, 89
1, 43005, Note_on_c, 1, 47, 0
1, 43005, Note_on_c, 1, 59, 0
1, 43008, Note_on_c, 0, 59, 92
1, 43008, Note_on_c, 1, 47, 88
1, 43008, Note_on_c, 1, 35, 88
1, 43041, Note_on_c, 0, 59, 0
1, 43044, Note_on_c, 0, 63, 92
1, 43065, Note_on_c, 0, 63, 0
1, 43068, Note_on_c, 0, 66, 92
1, 43101, Note_on_c, 0, 66, 0
1, 43104, Note_on_c, 0, 63, 92
1, 43137, Note_on_c, 0, 63, 0
1, 43140, Note_on_c, 0, 66, 92
1, 43161, Note_on_c, 0, 66, 0
1, 43164, Note_on_c, 0, 69, 92
1, 43168, Note_on_c, 1, 35, 0
1, 43168, Note_on_c, 1, 47, 0
1, 43197, Note_on_c, 0, 69, 0
1, 43200, Note_on_c, 0, 69, 92
1, 43233, Note_on_c, 0, 69, 0
1, 43236, Note_on_c, 0, 75, 92
1, 43257, Note_on_c, 0, 75, 0
1, 43260, Note_on_c, 0, 78, 92
1, 43293, Note_on_c, 0, 78, 0
1, 43296, Note_on_c, 0, 75, 92
1, 43329, Note_on_c, 0, 75, 0
1, 43332, Note_on_c, 0, 78, 92
1, 43353, Note_on_c, 0, 78, 0
1, 43356, Note_on_c, 0, 81, 92
1, 43389, Note_on_c, 0, 81, 0
1, 43392, Note_on_c, 0, 80, 92
1, 43392, Note_on_c, 0, 76, 92
1, 43488, Note_on_c, 1, 40, 85
1, 43488, Note_on_c, 1, 52, 85
1, 43552, Note_on_c, 0, 76, 0
1, 43552, Note_on_c, 0, 80, 0
1, 43581, Note_on_c, 1, 52, 0
1, 43581, Note_on_c, 1, 40, 0
1, 43584, Note_on_c, 1, 56, 84
1, 43584, Note_on_c, 1, 44, 84
1, 43677, Note_on_c, 1, 44, 0
1, 43677, Note_on_c, 1, 56, 0
1, 43680, Note_on_c, 1, 52, 83
1, 43680, Note_on_c, 1, 40, 83
1, 43773, Note_on_c, 1, 40, 0
1, 43773, Note_on_c, 1, 52, 0
1, 43776, Note_on_c, 1, 56, 60
1, 43821, Note_on_c, 1, 56, 0
1, 43824, Note_on_c, 1, 64, 60
1, 43869, Note_on_c, 1, 64, 0
1, 43872, Note_on_c, 0, 76, 60
1, 43872, Note_on_c, 1, 59, 60
1, 43917, Note_on_c, 1, 59, 0
1, 43920, Note_on_c, 1, 64, 60
1, 43965, Note_on_c, 0, 76, 0
1, 43965, Note_on_c, 1, 64, 0
1, 43968, Note_on_c, 0, 80, 60
1, 43968, Note_on_c, 1, 56, 60
1, 44013, Note_on_c, 1, 56, 0
1, 44016, Note_on_c, 1, 64, 60
1, 44061, Note_on_c, 0, 80, 0
1, 44061, Note_on_c, 1, 64, 0
1, 44064, Note_on_c, 0, 83, 60
1, 44064, Note_on_c, 1, 59, 60
1, 44109, Note_on_c, 1, 59, 0
1, 44112, Note_on_c, 1, 64, 60
1, 44157, Note_on_c, 0, 83, 0
1, 44157, Note_on_c, 1, 64, 0
1, 44160, Note_on_c, 0, 73, 60
1, 44160, Note_on_c, 1, 57, 60
1, 44205, Note_on_c, 1, 57, 0
1, 44208, Note_on_c, 1, 64, 60
1, 44253, Note_on_c, 1, 64, 0
1, 44256, Note_on_c, 1, 61, 60
1, 44301, Note_on_c, 1, 61, 0
1, 44304, Note_on_c, 1, 64, 60
1, 44320, Note_on_c, 0, 73, 0
1, 44349, Note_on_c, 1, 64, 0
1, 44352, Note_on_c, 1, 57, 60
1, 44397, Note_on_c, 1, 57, 0
1, 44400, Note_on_c, 1, 64, 60
1, 44445, Note_on_c, 1, 64, 0
1, 44448, Note_on_c, 1, 61, 60
1, 44493, Note_on_c, 1, 61, 0
1, 44496, Note_on_c, 1, 64, 60
1, 44541, Note_on_c, 1, 64, 0
1, 44544, Note_on_c, 1, 59, 75
1, 44589, Note_on_c, 1, 59, 0
1, 44592, Note_on_c, 1, 68, 75
1, 44637, Note_on_c, 1, 68, 0
1, 44640, Note_on_c, 0, 76, 75
1, 44640, Note_on_c, 1, 64, 75
1, 44685, Note_on_c, 1, 64, 0
1, 44688, Note_on_c, 1, 68, 75
1, 44733, Note_on_c, 0, 76, 0
1, 44733, Note_on_c, 1, 68, 0
1, 44736, Note_on_c, 0, 80, 75
1, 44736, Note_on_c, 1, 59, 75
1, 44781, Note_on_c, 1, 59, 0
1, 44784, Note_on_c, 1, 68, 75
1, 44829, Note_on_c, 0, 80, 0
1, 44829, Note_on_c, 1, 68, 0
1, 44832, Note_on_c, 0, 83, 75
1, 44832, Note_on_c, 1, 64, 75
1, 44877, Note_on_c, 1, 64, 0
1, 44880, Note_on_c, 1, 68, 75
1, 44925, Note_on_c, 0, 83, 0
1, 44925, Note_on_c, 1, 68, 0
1, 44928, Note_on_c, 0, 76, 75
1, 44928, Note_on_c, 1, 61, 75
1, 44949, Note_on_c, 0, 76, 0
1, 44952, Note_on_c, 0, 78, 75
1, 44973, Note_on_c, 0, 78, 0
1, 44973, Note_on_c, 1, 61, 0
1, 44976, Note_on_c, 0, 76, 75
1, 44976, Note_on_c, 1, 68, 75
1, 44997, Note_on_c, 0, 76, 0
1, 45000, Note_on_c, 0, 78, 75
1, 45021, Note_on_c, 0, 78, 0
1, 45021, Note_on_c, 1, 68, 0
1, 45024, Note_on_c, 0, 76, 75
1, 45024, Note_on_c, 1, 64, 75
1, 45045, Note_on_c, 0, 76, 0
1, 45048, Note_on_c, 0, 78, 75
1, 45069, Note_on_c, 0, 78, 0
1, 45069, Note_on_c, 1, 64, 0
1, 45072, Note_on_c, 0, 76, 75
1, 45072, Note_on_c, 1, 68, 75
1, 45093, Note_on_c, 0, 76, 0
1, 45096, Note_on_c, 0, 78, 75
1, 45117, Note_on_c, 0, 78, 0
1, 45117, Note_on_c, 1, 68, 0
1, 45120, Note_on_c, 1, 61, 75
1, 45165, Note_on_c, 1, 61, 0
1, 45168, Note_on_c, 1, 68, 75
1, 45213, Note_on_c, 1, 68, 0
1, 45216, Note_on_c, 1, 64, 75
1, 45261, Note_on_c, 1, 64, 0
1, 45264, Note_on_c, 1, 68, 75
1, 45309, Note_on_c, 1, 68, 0
1, 45312, Note_on_c, 1, 56, 75
1, 45357, Note_on_c, 1, 56, 0
1, 45360, Note_on_c, 1, 64, 75
1, 45405, Note_on_c, 1, 64, 0
1, 45408, Note_on_c, 0, 76, 75
1, 45408, Note_on_c, 1, 59, 75
1, 45453, Note_on_c, 1, 59, 0
1, 45456, Note_on_c, 1, 64, 75
1, 45501, Note_on_c, 0, 76, 0
1, 45501, Note_on_c, 1, 64, 0
1, 45504, Note_on_c, 0, 80, 75
1, 45504, Note_on_c, 1, 56, 75
1, 45549, Note_on_c, 1, 56, 0
1, 45552, Note_on_c, 1, 64, 75
1, 45597, Note_on_c, 0, 80, 0
1, 45597, Note_on_c, 1, 64, 0
1, 45600, Note_on_c, 0, 83, 75
1, 45600, Note_on_c, 1, 59, 75
1, 45645, Note_on_c, 1, 59, 0
1, 45648, Note_on_c, 1, 64, 75
1, 45693, Note_on_c, 0, 83, 0
1, 45693, Note_on_c, 1, 64, 0
1, 45696, Note_on_c, 0, 83, 75
1, 45696, Note_on_c, 1, 57, 75
1, 45741, Note_on_c, 1, 57, 0
1, 45744, Note_on_c, 1, 64, 75
1, 45789, Note_on_c, 0, 83, 0
1, 45789, Note_on_c, 1, 64, 0
1, 45792, Note_on_c, 0, 84, 75
1, 45792, Note_on_c, 1, 61, 75
1, 45837, Note_on_c, 1, 61, 0
1, 45840, Note_on_c, 1, 64, 75
1, 45885, Note_on_c, 0, 84, 0
1, 45885, Note_on_c, 1, 64, 0
1, 45888, Note_on_c, 0, 85, 75
1, 45888, Note_on_c, 1, 57, 75
1, 45933, Note_on_c, 1, 57, 0
1, 45936, Note_on_c, 1, 64, 75
1, 45981, Note_on_c, 0, 85, 0
1, 45981, Note_on_c, 1, 64, 0
1, 45984, Note_on_c, 0, 81, 75
1, 45984, Note_on_c, 1, 61, 75
1, 46029, Note_on_c, 1, 61, 0
1, 46032, Note_on_c, 1, 64, 75
1, 46077, Note_on_c, 0, 81, 0
1, 46077, Note_on_c, 1, 64, 0
1, 46080, Note_on_c, 0, 81, 75
1, 46080, Note_on_c, 1, 59, 75
1, 46125, Note_on_c, 0, 81, 0
1, 46125, Note_on_c, 1, 59, 0
1, 46128, Note_on_c, 0, 80, 75
1, 46128, Note_on_c, 1, 68, 75
1, 46173, Note_on_c, 0, 80, 0
1, 46173, Note_on_c, 1, 68, 0
1, 46176, Note_on_c, 0, 78, 75
1, 46176, Note_on_c, 1, 64, 75
1, 46221, Note_on_c, 0, 78, 0
1, 46221, Note_on_c, 1, 64, 0
1, 46224, Note_on_c, 0, 76, 75
1, 46224, Note_on_c, 1, 68, 75
1, 46269, Note_on_c, 0, 76, 0
1, 46269, Note_on_c, 1, 68, 0
1, 46272, Note_on_c, 0, 80, 75
1, 46272, Note_on_c, 1, 59, 75
1, 46317, Note_on_c, 0, 80, 0
1, 46317, Note_on_c, 1, 59, 0
1, 46320, Note_on_c, 0, 78, 75
1, 46320, Note_on_c, 1, 69, 75
1, 46365, Note_on_c, 0, 78, 0
1, 46365, Note_on_c, 1, 69, 0
1, 46368, Note_on_c, 0, 76, 75
1, 46368, Note_on_c, 1, 66, 75
1, 46413, Note_on_c, 0, 76, 0
1, 46413, Note_on_c, 1, 66, 0
1, 46416, Note_on_c, 0, 75, 75
1, 46416, Note_on_c, 1, 69, 75
1, 46461, Note_on_c, 0, 75, 0
1, 46461, Note_on_c, 1, 69, 0
1, 46464, Note_on_c, 0, 76, 75
1, 46464, Note_on_c, 1, 68, 75
1, 46464, Note_on_c, 1, 64, 75
1, 46557, Note_on_c, 0, 76, 0
1, 46560, Note_on_c, 0, 76, 75
1, 46560, Note_on_c, 0, 80, 75
1, 46593, Note_on_c, 0, 80, 0
1, 46593, Note_on_c, 0, 76, 0
1, 46596, Note_on_c, 0, 78, 75
1, 46596, Note_on_c, 0, 81, 75
1, 46617, Note_on_c, 0, 81, 0
1, 46617, Note_on_c, 0, 78, 0
1, 46620, Note_on_c, 0, 80, 75
1, 46620, Note_on_c, 0, 83, 75
1, 46624, Note_on_c, 1, 64, 0
1, 46624, Note_on_c, 1, 68, 0
1, 46653, Note_on_c, 0, 83, 0
1, 46653, Note_on_c, 0, 80, 0
1, 46656, Note_on_c, 0, 81, 60
1, 46656, Note_on_c, 0, 78, 60
1, 46749, Note_on_c, 0, 78, 0
1, 46749, Note_on_c, 0, 81, 0
1, 46752, Note_on_c, 0, 75, 60
1, 46752, Note_on_c, 0, 69, 60
1, 46752, Note_on_c, 1, 59, 60
1, 46845, Note_on_c, 0, 69, 0
1, 46845, Note_on_c, 0, 75, 0
1, 46845, Note_on_c, 1, 59, 0
1, 46848, Note_on_c, 0, 76, 60
1, 46848, Note_on_c, 0, 68, 60
1, 46848, Note_on_c, 1, 52, 60
1, 46941, Note_on_c, 0, 68, 0
1, 46941, Note_on_c, 0, 76, 0
1, 46944, Note_on_c, 0, 64, 45
1, 46944, Note_on_c, 0, 68, 45
1, 46977, Note_on_c, 0, 68, 0
1, 46977, Note_on_c, 0, 64, 0
1, 46980, Note_on_c, 0, 66, 45
1, 46980, Note_on_c, 0, 69, 45
1, 47001, Note_on_c, 0, 69, 0
1, 47001, Note_on_c, 0, 66, 0
1, 47004, Note_on_c, 0, 68, 45
1, 47004, Note_on_c, 0, 71, 45
1, 47008, Note_on_c, 1, 52, 0
1, 47037, Note_on_c, 0, 71, 0
1, 47037, Note_on_c, 0, 68, 0
1, 47040, Note_on_c, 0, 69, 45
1, 47040, Note_on_c, 0, 66, 45
1, 47133, Note_on_c, 0, 66, 0
1, 47133, Note_on_c, 0, 69, 0
1, 47136, Note_on_c, 0, 63, 45
1, 47136, Note_on_c, 0, 57, 45
1, 47136, Note_on_c, 1, 47, 45
1, 47229, Note_on_c, 0, 57, 0
1, 47229, Note_on_c, 0, 63, 0
1, 47229, Note_on_c, 1, 47, 0
1, 47232, Note_on_c, 0, 64, 45
1, 47232, Note_on_c, 0, 56, 45
1, 47232, Note_on_c, 1, 40, 45
1, 47392, Note_on_c, 0, 56, 0
1, 47392, Note_on_c, 0, 64, 0
1, 47392, Note_on_c, 1, 40, 0
1, 47616, Note_on_c, 0, 64, 75
1, 47616, Note_on_c, 1, 56, 75
1, 47616, Note_on_c, 1, 52, 75
1, 47661, Note_on_c, 0, 64, 0
1, 47664, Note_on_c, 0, 66, 75
1, 47709, Note_on_c, 0, 66, 0
1, 47709, Note_on_c, 1, 52, 0
1, 47709, Note_on_c, 1, 56, 0
1, 47712, Note_on_c, 0, 68, 75
1, 47712, Note_on_c, 1, 56, 75
1, 47712, Note_on_c, 1, 52, 75
1, 47757, Note_on_c, 0, 68, 0
1, 47760, Note_on_c, 0, 69, 75
1, 47805, Note_on_c, 0, 69, 0
1, 47805, Note_on_c, 1, 52, 0
1, 47805, Note_on_c, 1, 56, 0
1, 47808, Note_on_c, 0, 71, 75
1, 47808, Note_on_c, 1, 56, 75
1, 47808, Note_on_c, 1, 52, 75
1, 47853, Note_on_c, 0, 71, 0
1, 47856, Note_on_c, 0, 73, 75
1, 47901, Note_on_c, 0, 73, 0
1, 47901, Note_on_c, 1, 52, 0
1, 47901, Note_on_c, 1, 56, 0
1, 47904, Note_on_c, 0, 75, 75
1, 47904, Note_on_c, 1, 56, 75
1, 47904, Note_on_c, 1, 52, 75
1, 47949, Note_on_c, 0, 75, 0
1, 47952, Note_on_c, 0, 76, 75
1, 47997, Note_on_c, 0, 76, 0
1, 47997, Note_on_c, 1, 52, 0
1, 47997, Note_on_c, 1, 56, 0
1, 48000, Note_on_c, 0, 73, 75
1, 48000, Note_on_c, 1, 57, 75
1, 48000, Note_on_c, 1, 52, 75
1, 48021, Note_on_c, 0, 73, 0
1, 48024, Note_on_c, 0, 75, 75
1, 48045, Note_on_c, 0, 75, 0
1, 48048, Note_on_c, 0, 73, 75
1, 48069, Note_on_c, 0, 73, 0
1, 48072, Note_on_c, 0, 75, 75
1, 48093, Note_on_c, 0, 75, 0
1, 48093, Note_on_c, 1, 52, 0
1, 48093, Note_on_c, 1, 57, 0
1, 48096, Note_on_c, 0, 71, 75
1, 48096, Note_on_c, 1, 56, 75
1, 48096, Note_on_c, 1, 52, 75
1, 48189, Note_on_c, 0, 71, 0
1, 48189, Note_on_c, 1, 52, 0
1, 48189, Note_on_c, 1, 56, 0
1, 48192, Note_on_c, 1, 56, 75
1, 48192, Note_on_c, 1, 52, 75
1, 48285, Note_on_c, 1, 52, 0
1, 48285, Note_on_c, 1, 56, 0
1, 48288, Note_on_c, 0, 76, 75
1, 48288, Note_on_c, 1, 56, 75
1, 48288, Note_on_c, 1, 52, 75
1, 48309, Note_on_c, 0, 76, 0
1, 48312, Note_on_c, 0, 78, 75
1, 48333, Note_on_c, 0, 78, 0
1, 48336, Note_on_c, 0, 76, 75
1, 48357, Note_on_c, 0, 76, 0
1, 48360, Note_on_c, 0, 78, 75
1, 48381, Note_on_c, 0, 78, 0
1, 48381, Note_on_c, 1, 52, 0
1, 48381, Note_on_c, 1, 56, 0
1, 48384, Note_on_c, 0, 75, 75
1, 48417, Note_on_c, 0, 75, 0
1, 48420, Note_on_c, 0, 76, 75
1, 48441, Note_on_c, 0, 76, 0
1, 48444, Note_on_c, 0, 78, 75
1, 48477, Note_on_c, 0, 78, 0
1, 48480, Note_on_c, 0, 69, 75
1, 48480, Note_on_c, 1, 47, 75
1, 48480, Note_on_c, 1, 54, 75
1, 48573, Note_on_c, 0, 69, 0
1, 48573, Note_on_c, 1, 54, 0
1, 48573, Note_on_c, 1, 47, 0
1, 48576, Note_on_c, 0, 68, 75
1, 48576, Note_on_c, 1, 52, 75
1, 48576, Note_on_c, 1, 47, 75
1, 48669, Note_on_c, 0, 68, 0
1, 48669, Note_on_c, 1, 47, 0
1, 48669, Note_on_c, 1, 52, 0
1, 48672, Note_on_c, 0, 66, 75
1, 48672, Note_on_c, 1, 51, 75
1, 48672, Note_on_c, 1, 47, 75
1, 48765, Note_on_c, 0, 66, 0
1, 48765, Note_on_c, 1, 47, 0
1, 48765, Note_on_c, 1, 51, 0
1, 48768, Note_on_c, 0, 68, 60
1, 48801, Note_on_c, 0, 68, 0
1, 48804, Note_on_c, 0, 69, 60
1, 48825, Note_on_c, 0, 69, 0
1, 48828, Note_on_c, 0, 71, 60
1, 48861, Note_on_c, 0, 71, 0
1, 48864, Note_on_c, 0, 64, 60
1, 48864, Note_on_c, 1, 52, 60
1, 48864, Note_on_c, 1, 56, 60
1, 48957, Note_on_c, 0, 64, 0
1, 48957, Note_on_c, 1, 56, 0
1, 48957, Note_on_c, 1, 52, 0
1, 48960, Note_on_c, 1, 59, 60
1, 48960, Note_on_c, 1, 56, 60
1, 49053, Note_on_c, 1, 56, 0
1, 49053, Note_on_c, 1, 59, 0
1, 49056, Note_on_c, 0, 76, 45
1, 49056, Note_on_c, 1, 56, 45
1, 49056, Note_on_c, 1, 52, 45
1, 49077, Note_on_c, 0, 76, 0
1, 49080, Note_on_c, 0, 75, 45
1, 49101, Note_on_c, 0, 75, 0
1, 49104, Note_on_c, 0, 76, 45
1, 49125, Note_on_c, 0, 76, 0
1, 49128, Note_on_c, 0, 75, 45
1, 49149, Note_on_c, 0, 75, 0
1, 49149, Note_on_c, 1, 52, 0
1, 49149, Note_on_c, 1, 56, 0
1, 49152, Note_on_c, 0, 75, 45
1, 49185, Note_on_c, 0, 75, 0
1, 49188, Note_on_c, 0, 76, 45
1, 49209, Note_on_c, 0, 76, 0
1, 49212, Note_on_c, 0, 78, 45
1, 49245, Note_on_c, 0, 78, 0
1, 49248, Note_on_c, 0, 69, 45
1, 49248, Note_on_c, 1, 47, 45
1, 49248, Note_on_c, 1, 54, 45
1, 49341, Note_on_c, 0, 69, 0
1, 49341, Note_on_c, 1, 54, 0
1, 49341, Note_on_c, 1, 47, 0
1, 49344, Note_on_c, 0, 68, 45
1, 49344, Note_on_c, 1, 52, 45
1, 49344, Note_on_c, 1, 47, 45
1, 49365, Note_on_c, 0, 68, 0
1, 49368, Note_on_c, 0, 69, 45
1, 49389, Note_on_c, 0, 69, 0
1, 49392, Note_on_c, 0, 68, 45
1, 49413, Note_on_c, 0, 68, 0
1, 49416, Note_on_c, 0, 69, 45
1, 49437, Note_on_c, 0, 69, 0
1, 49437, Note_on_c, 1, 47, 0
1, 49437, Note_on_c, 1, 52, 0
1, 49440, Note_on_c, 0, 66, 45
1, 49440, Note_on_c, 1, 51, 45
1, 49440, Note_on_c, 1, 47, 45
1, 49533, Note_on_c, 0, 66, 0
1, 49533, Note_on_c, 1, 47, 0
1, 49533, Note_on_c, 1, 51, 0
1, 49536, Note_on_c, 0, 68, 45
1, 49569, Note_on_c, 0, 68, 0
1, 49572, Note_on_c, 0, 69, 45
1, 49593, Note_on_c, 0, 69, 0
1, 49596, Note_on_c, 0, 71, 45
1, 49629, Note_on_c, 0, 71, 0
1, 49632, Note_on_c, 0, 64, 45
1, 49632, Note_on_c, 1, 56, 45
1, 49632, Note_on_c, 1, 52, 45
1, 49725, Note_on_c, 0, 64, 0
1, 49725, Note_on_c, 1, 52, 0
1, 49725, Note_on_c, 1, 56, 0
1, 49728, Note_on_c, 1, 59, 45
1, 49728, Note_on_c, 1, 56, 45
1, 49821, Note_on_c, 1, 56, 0
1, 49821, Note_on_c, 1, 59, 0
1, 49824, Note_on_c, 1, 56, 45
1, 49824, Note_on_c, 1, 52, 45
1, 49917, Note_on_c, 1, 52, 0
1, 49917, Note_on_c, 1, 56, 0
1, 49920, Note_on_c, 0, 70, 92
1, 49920, Note_on_c, 0, 79, 92
1, 50016, Note_on_c, 1, 52, 92
1, 50016, Note_on_c, 1, 64, 92
1, 50080, Note_on_c, 0, 79, 0
1, 50080, Note_on_c, 0, 70, 0
1, 50109, Note_on_c, 1, 64, 0
1, 50109, Note_on_c, 1, 52, 0
1, 50112, Note_on_c, 0, 79, 92
1, 50112, Note_on_c, 1, 62, 92
1, 50112, Note_on_c, 1, 50, 92
1, 50157, Note_on_c, 0, 79, 0
1, 50160, Note_on_c, 0, 78, 92
1, 50205, Note_on_c, 0, 78, 0
1, 50205, Note_on_c, 1, 50, 0
1, 50205, Note_on_c, 1, 62, 0
1, 50208, Note_on_c, 0, 78, 92
1, 50208, Note_on_c, 1, 61, 92
1, 50208, Note_on_c, 1, 49, 92
1, 50253, Note_on_c, 0, 78, 0
1, 50256, Note_on_c, 0, 76, 92
1, 50301, Note_on_c, 0, 76, 0
1, 50301, Note_on_c, 1, 49, 0
1, 50301, Note_on_c, 1, 61, 0
1, 50304, Note_on_c, 0, 76, 92
1, 50304, Note_on_c, 1, 59, 92
1, 50304, Note_on_c, 1, 47, 92
1, 50349, Note_on_c, 0, 76, 0
1, 50352, Note_on_c, 0, 74, 92
1, 50397, Note_on_c, 0, 74, 0
1, 50397, Note_on_c, 1, 47, 0
1, 50397, Note_on_c, 1, 59, 0
1, 50400, Note_on_c, 0, 74, 92
1, 50400, Note_on_c, 1, 58, 92
1, 50400, Note_on_c, 1, 46, 92
1, 50445, Note_on_c, 0, 74, 0
1, 50448, Note_on_c, 0, 73, 92
1, 50493, Note_on_c, 0, 73, 0
1, 50493, Note_on_c, 1, 46, 0
1, 50493, Note_on_c, 1, 58, 0
1, 50496, Note_on_c, 0, 74, 92
1, 50496, Note_on_c, 1, 59, 92
1, 50496, Note_on_c, 1, 47, 92
1, 50656, Note_on_c, 0, 74, 0
1, 50656, Note_on_c, 1, 47, 0
1, 50656, Note_on_c, 1, 59, 0
1, 50688, Note_on_c, 0, 78, 75
1, 50784, Note_on_c, 1, 50, 75
1, 50784, Note_on_c, 1, 62, 75
1, 50848, Note_on_c, 0, 78, 0
1, 50877, Note_on_c, 1, 62, 0
1, 50877, Note_on_c, 1, 50, 0
1, 50880, Note_on_c, 0, 78, 75
1, 50880, Note_on_c, 1, 61, 75
1, 50880, Note_on_c, 1, 49, 75
1, 50925, Note_on_c, 0, 78, 0
1, 50928, Note_on_c, 0, 76, 75
1, 50973, Note_on_c, 0, 76, 0
1, 50973, Note_on_c, 1, 49, 0
1, 50973, Note_on_c, 1, 61, 0
1, 50976, Note_on_c, 0, 76, 75
1, 50976, Note_on_c, 1, 59, 75
1, 50976, Note_on_c, 1, 47, 75
1, 51021, Note_on_c, 0, 76, 0
1, 51024, Note_on_c, 0, 74, 75
1, 51069, Note_on_c, 0, 74, 0
1, 51069, Note_on_c, 1, 47, 0
1, 51069, Note_on_c, 1, 59, 0
1, 51072, Note_on_c, 0, 74, 75
1, 51072, Note_on_c, 1, 57, 75
1, 51072, Note_on_c, 1, 45, 75
1, 51117, Note_on_c, 0, 74, 0
1, 51120, Note_on_c, 0, 73, 75
1, 51165, Note_on_c, 0, 73, 0
1, 51165, Note_on_c, 1, 45, 0
1, 51165, Note_on_c, 1, 57, 0
1, 51168, Note_on_c, 0, 73, 75
1, 51168, Note_on_c, 1, 56, 75
1, 51168, Note_on_c, 1, 44, 75
1, 51213, Note_on_c, 0, 73, 0
1, 51216, Note_on_c, 0, 71, 75
1, 51261, Note_on_c, 0, 71, 0
1, 51261, Note_on_c, 1, 44, 0
1, 51261, Note_on_c, 1, 56, 0
1, 51264, Note_on_c, 0, 73, 75
1, 51264, Note_on_c, 1, 57, 75
1, 51264, Note_on_c, 1, 45, 75
1, 51424, Note_on_c, 0, 73, 0
1, 51424, Note_on_c, 1, 45, 0
1, 51424, Note_on_c, 1, 57, 0
1, 51456, Note_on_c, 0, 80, 92
1, 51456, Note_on_c, 1, 52, 92
1, 51456, Note_on_c, 1, 40, 92
1, 51489, Note_on_c, 0, 80, 0
1, 51492, Note_on_c, 0, 83, 92
1, 51513, Note_on_c, 0, 83, 0
1, 51516, Note_on_c, 0, 80, 92
1, 51549, Note_on_c, 0, 80, 0
1, 51552, Note_on_c, 0, 74, 92
1, 51585, Note_on_c, 0, 74, 0
1, 51588, Note_on_c, 0, 80, 92
1, 51609, Note_on_c, 0, 80, 0
1, 51612, Note_on_c, 0, 74, 92
1, 51616, Note_on_c, 1, 40, 0
1, 51616, Note_on_c, 1, 52, 0
1, 51645, Note_on_c, 0, 74, 0
1, 51648, Note_on_c, 0, 71, 92
1, 51681, Note_on_c, 0, 71, 0
1, 51684, Note_on_c, 0, 74, 92
1, 51705, Note_on_c, 0, 74, 0
1, 51708, Note_on_c, 0, 71, 92
1, 51741, Note_on_c, 0, 71, 0
1, 51744, Note_on_c, 0, 68, 92
1, 51777, Note_on_c, 0, 68, 0
1, 51780, Note_on_c, 0, 71, 92
1, 51801, Note_on_c, 0, 71, 0
1, 51804, Note_on_c, 0, 68, 92
1, 51837, Note_on_c, 0, 68, 0
1, 51840, Note_on_c, 1, 52, 75
1, 51888, Note_on_c, 0, 64, 75
1, 51933, Note_on_c, 0, 64, 0
1, 51933, Note_on_c, 1, 52, 0
1, 51936, Note_on_c, 0, 74, 75
1, 51936, Note_on_c, 1, 59, 75
1, 51981, Note_on_c, 0, 74, 0
1, 51984, Note_on_c, 0, 64, 75
1, 52029, Note_on_c, 0, 64, 0
1, 52029, Note_on_c, 1, 59, 0
1, 52032, Note_on_c, 0, 73, 75
1, 52032, Note_on_c, 1, 57, 75
1, 52077, Note_on_c, 0, 73, 0
1, 52080, Note_on_c, 0, 64, 75
1, 52125, Note_on_c, 0, 64, 0
1, 52125, Note_on_c, 1, 57, 0
1, 52128, Note_on_c, 0, 71, 75
1, 52128, Note_on_c, 1, 56, 75
1, 52173, Note_on_c, 0, 71, 0
1, 52176, Note_on_c, 0, 64, 75
1, 52221, Note_on_c, 0, 64, 0
1, 52221, Note_on_c, 1, 56, 0
1, 52224, Note_on_c, 0, 81, 92
1, 52224, Note_on_c, 1, 57, 92
1, 52224, Note_on_c, 1, 52, 92
1, 52257, Note_on_c, 0, 81, 0
1, 52260, Note_on_c, 0, 85, 92
1, 52281, Note_on_c, 0, 85, 0
1, 52284, Note_on_c, 0, 81, 92
1, 52317, Note_on_c, 0, 81, 0
1, 52320, Note_on_c, 0, 76, 92
1, 52353, Note_on_c, 0, 76, 0
1, 52356, Note_on_c, 0, 81, 92
1, 52377, Note_on_c, 0, 81, 0
1, 52380, Note_on_c, 0, 76, 92
1, 52384, Note_on_c, 1, 52, 0
1, 52384, Note_on_c, 1, 57, 0
1, 52413, Note_on_c, 0, 76, 0
1, 52416, Note_on_c, 0, 73, 92
1, 52449, Note_on_c, 0, 73, 0
1, 52452, Note_on_c, 0, 76, 92
1, 52473, Note_on_c, 0, 76, 0
1, 52476, Note_on_c, 0, 73, 92
1, 52509, Note_on_c, 0, 73, 0
1, 52512, Note_on_c, 0, 69, 92
1, 52545, Note_on_c, 0, 69, 0
1, 52548, Note_on_c, 0, 73, 92
1, 52569, Note_on_c, 0, 73, 0
1, 52572, Note_on_c, 0, 69, 92
1, 52605, Note_on_c, 0, 69, 0
1, 52608, Note_on_c, 1, 52, 75
1, 52656, Note_on_c, 0, 64, 75
1, 52701, Note_on_c, 0, 64, 0
1, 52701, Note_on_c, 1, 52, 0
1, 52704, Note_on_c, 0, 76, 75
1, 52704, Note_on_c, 1, 61, 75
1, 52749, Note_on_c, 0, 76, 0
1, 52752, Note_on_c, 0, 64, 75
1, 52797, Note_on_c, 0, 64, 0
1, 52797, Note_on_c, 1, 61, 0
1, 52800, Note_on_c, 0, 74, 75
1, 52800, Note_on_c, 1, 59, 75
1, 52845, Note_on_c, 0, 74, 0
1, 52848, Note_on_c, 0, 64, 75
1, 52893, Note_on_c, 0, 64, 0
1, 52893, Note_on_c, 1, 59, 0
1, 52896, Note_on_c, 0, 73, 75
1, 52896, Note_on_c, 1, 57, 75
1, 52941, Note_on_c, 0, 73, 0
1, 52944, Note_on_c, 0, 64, 75
1, 52989, Note_on_c, 0, 64, 0
1, 52989, Note_on_c, 1, 57, 0
1, 52992, Note_on_c, 0, 81, 92
1, 53013, Note_on_c, 0, 81, 0
1, 53016, Note_on_c, 0, 80, 92
1, 53037, Note_on_c, 0, 80, 0
1, 53040, Note_on_c, 0, 78, 92
1, 53061, Note_on_c, 0, 78, 0
1, 53064, Note_on_c, 0, 76, 92
1, 53085, Note_on_c, 0, 76, 0
1, 53088, Note_on_c, 0, 75, 92
1, 53088, Note_on_c, 1, 69, 75
1, 53088, Note_on_c, 1, 66, 75
1, 53181, Note_on_c, 1, 66, 0
1, 53181, Note_on_c, 1, 69, 0
1, 53184, Note_on_c, 1, 69, 75
1, 53184, Note_on_c, 1, 66, 75
1, 53277, Note_on_c, 1, 66, 0
1, 53277, Note_on_c, 1, 69, 0
1, 53280, Note_on_c, 1, 69, 75
1, 53280, Note_on_c, 1, 66, 75
1, 53313, Note_on_c, 0, 75, 0
1, 53373, Note_on_c, 1, 66, 0
1, 53373, Note_on_c, 1, 69, 0
1, 53376, Note_on_c, 0, 83, 92
1, 53397, Note_on_c, 0, 83, 0
1, 53400, Note_on_c, 0, 81, 92
1, 53421, Note_on_c, 0, 81, 0
1, 53424, Note_on_c, 0, 80, 92
1, 53445, Note_on_c, 0, 80, 0
1, 53448, Note_on_c, 0, 78, 92
1, 53469, Note_on_c, 0, 78, 0
1, 53472, Note_on_c, 0, 76, 92
1, 53472, Note_on_c, 1, 71, 75
1, 53472, Note_on_c, 1, 68, 75
1, 53565, Note_on_c, 1, 68, 0
1, 53565, Note_on_c, 1, 71, 0
1, 53568, Note_on_c, 1, 71, 75
1, 53568, Note_on_c, 1, 68, 75
1, 53661, Note_on_c, 1, 68, 0
1, 53661, Note_on_c, 1, 71, 0
1, 53664, Note_on_c, 1, 71, 75
1, 53664, Note_on_c, 1, 68, 75
1, 53697, Note_on_c, 0, 76, 0
1, 53757, Note_on_c, 1, 68, 0
1, 53757, Note_on_c, 1, 71, 0
1, 53760, Note_on_c, 1, 69, 45
1, 53808, Note_on_c, 0, 85, 45
1, 53853, Note_on_c, 0, 85, 0
1, 53853, Note_on_c, 1, 69, 0
1, 53856, Note_on_c, 0, 85, 45
1, 53856, Note_on_c, 1, 64, 45
1, 53877, Note_on_c, 0, 85, 0
1, 53880, Note_on_c, 0, 86, 45
1, 53901, Note_on_c, 0, 86, 0
1, 53904, Note_on_c, 0, 83, 45
1, 53925, Note_on_c, 0, 83, 0
1, 53928, Note_on_c, 0, 85, 45
1, 53949, Note_on_c, 0, 85, 0
1, 53949, Note_on_c, 1, 64, 0
1, 53952, Note_on_c, 0, 86, 45
1, 53952, Note_on_c, 1, 71, 45
1, 54021, Note_on_c, 0, 86, 0
1, 54045, Note_on_c, 1, 71, 0
1, 54048, Note_on_c, 1, 64, 45
1, 54141, Note_on_c, 1, 64, 0
1, 54144, Note_on_c, 1, 69, 45
1, 54192, Note_on_c, 0, 83, 45
1, 54237, Note_on_c, 0, 83, 0
1, 54237, Note_on_c, 1, 69, 0
1, 54240, Note_on_c, 0, 83, 45
1, 54240, Note_on_c, 1, 64, 45
1, 54261, Note_on_c, 0, 83, 0
1, 54264, Note_on_c, 0, 85, 45
1, 54285, Note_on_c, 0, 85, 0
1, 54288, Note_on_c, 0, 81, 45
1, 54309, Note_on_c, 0, 81, 0
1, 54312, Note_on_c, 0, 83, 45
1, 54333, Note_on_c, 0, 83, 0
1, 54333, Note_on_c, 1, 64, 0
1, 54336, Note_on_c, 0, 85, 45
1, 54336, Note_on_c, 1, 69, 45
1, 54405, Note_on_c, 0, 85, 0
1, 54429, Note_on_c, 1, 69, 0
1, 54432, Note_on_c, 1, 64, 45
1, 54525, Note_on_c, 1, 64, 0
1, 54528, Note_on_c, 1, 69, 75
1, 54576, Note_on_c, 0, 85, 75
1, 54621, Note_on_c, 0, 85, 0
1, 54621, Note_on_c, 1, 69, 0
1, 54624, Note_on_c, 0, 85, 75
1, 54624, Note_on_c, 1, 64, 75
1, 54645, Note_on_c, 0, 85, 0
1, 54648, Note_on_c, 0, 86, 75
1, 54669, Note_on_c, 0, 86, 0
1, 54672, Note_on_c, 0, 83, 75
1, 54693, Note_on_c, 0, 83, 0
1, 54696, Note_on_c, 0, 85, 75
1, 54717, Note_on_c, 0, 85, 0
1, 54717, Note_on_c, 1, 64, 0
1, 54720, Note_on_c, 0, 86, 75
1, 54720, Note_on_c, 1, 71, 75
1, 54789, Note_on_c, 0, 86, 0
1, 54813, Note_on_c, 1, 71, 0
1, 54816, Note_on_c, 1, 64, 75
1, 54909, Note_on_c, 1, 64, 0
1, 54912, Note_on_c, 1, 68, 75
1, 54960, Note_on_c, 0, 83, 75
1, 55005, Note_on_c, 0, 83, 0
1, 55005, Note_on_c, 1, 68, 0
1, 55008, Note_on_c, 0, 83, 75
1, 55008, Note_on_c, 1, 64, 75
1, 55029, Note_on_c, 0, 83, 0
1, 55032, Note_on_c, 0, 85, 75
1, 55053, Note_on_c, 0, 85, 0
1, 55056, Note_on_c, 0, 81, 75
1, 55077, Note_on_c, 0, 81, 0
1, 55080, Note_on_c, 0, 83, 75
1, 55101, Note_on_c, 0, 83, 0
1, 55101, Note_on_c, 1, 64, 0
1, 55104, Note_on_c, 0, 85, 75
1, 55104, Note_on_c, 1, 69, 75
1, 55149, Note_on_c, 0, 85, 0
1, 55152, Note_on_c, 0, 81, 75
1, 55197, Note_on_c, 0, 81, 0
1, 55197, Note_on_c, 1, 69, 0
1, 55200, Note_on_c, 0, 81, 75
1, 55200, Note_on_c, 1, 66, 75
1, 55221, Note_on_c, 0, 81, 0
1, 55224, Note_on_c, 0, 83, 75
1, 55245, Note_on_c, 0, 83, 0
1, 55248, Note_on_c, 0, 80, 75
1, 55269, Note_on_c, 0, 80, 0
1, 55272, Note_on_c, 0, 81, 75
1, 55293, Note_on_c, 0, 81, 0
1, 55293, Note_on_c, 1, 66, 0
1, 55296, Note_on_c, 0, 83, 75
1, 55296, Note_on_c, 1, 68, 75
1, 55341, Note_on_c, 0, 83, 0
1, 55344, Note_on_c, 0, 80, 75
1, 55389, Note_on_c, 0, 80, 0
1, 55389, Note_on_c, 1, 68, 0
1, 55392, Note_on_c, 0, 80, 75
1, 55392, Note_on_c, 1, 65, 75
1, 55413, Note_on_c, 0, 80, 0
1, 55416, Note_on_c, 0, 81, 75
1, 55437, Note_on_c, 0, 81, 0
1, 55440, Note_on_c, 0, 78, 75
1, 55461, Note_on_c, 0, 78, 0
1, 55464, Note_on_c, 0, 80, 75
1, 55485, Note_on_c, 0, 80, 0
1, 55485, Note_on_c, 1, 65, 0
1, 55488, Note_on_c, 0, 81, 75
1, 55488, Note_on_c, 1, 66, 75
1, 55533, Note_on_c, 0, 81, 0
1, 55536, Note_on_c, 0, 78, 75
1, 55581, Note_on_c, 0, 78, 0
1, 55581, Note_on_c, 1, 66, 0
1, 55584, Note_on_c, 0, 78, 75
1, 55584, Note_on_c, 1, 60, 75
1, 55605, Note_on_c, 0, 78, 0
1, 55608, Note_on_c, 0, 80, 75
1, 55629, Note_on_c, 0, 80, 0
1, 55632, Note_on_c, 0, 77, 75
1, 55653, Note_on_c, 0, 77, 0
1, 55656, Note_on_c, 0, 78, 75
1, 55677, Note_on_c, 0, 78, 0
1, 55677, Note_on_c, 1, 60, 0
1, 55680, Note_on_c, 0, 77, 75
1, 55680, Note_on_c, 1, 61, 75
1, 55713, Note_on_c, 0, 77, 0
1, 55716, Note_on_c, 0, 78, 75
1, 55737, Note_on_c, 0, 78, 0
1, 55740, Note_on_c, 0, 80, 75
1, 55773, Note_on_c, 0, 80, 0
1, 55776, Note_on_c, 0, 73, 75
1, 55840, Note_on_c, 1, 61, 0
1, 55929, Note_on_c, 0, 73, 0
1, 56064, Note_on_c, 0, 80, 92
1, 56064, Note_on_c, 1, 61, 92
1, 56064, Note_on_c, 1, 49, 92
1, 56097, Note_on_c, 0, 80, 0
1, 56100, Note_on_c, 0, 85, 92
1, 56121, Note_on_c, 0, 85, 0
1, 56124, Note_on_c, 0, 80, 92
1, 56157, Note_on_c, 0, 80, 0
1, 56160, Note_on_c, 0, 77, 92
1, 56193, Note_on_c, 0, 77, 0
1, 56196, Note_on_c, 0, 80, 92
1, 56217, Note_on_c, 0, 80, 0
1, 56220, Note_on_c, 0, 77, 92
1, 56224, Note_on_c, 1, 49, 0
1, 56224, Note_on_c, 1, 61, 0
1, 56253, Note_on_c, 0, 77, 0
1, 56256, Note_on_c, 0, 73, 92
1, 56289, Note_on_c, 0, 73, 0
1, 56292, Note_on_c, 0, 77, 92
1, 56313, Note_on_c, 0, 77, 0
1, 56316, Note_on_c, 0, 73, 92
1, 56349, Note_on_c, 0, 73, 0
1, 56352, Note_on_c, 0, 68, 92
1, 56385, Note_on_c, 0, 68, 0
1, 56388, Note_on_c, 0, 73, 92
1, 56409, Note_on_c, 0, 73, 0
1, 56412, Note_on_c, 0, 68, 92
1, 56445, Note_on_c, 0, 68, 0
1, 56448, Note_on_c, 1, 61, 75
1, 56496, Note_on_c, 0, 73, 75
1, 56541, Note_on_c, 0, 73, 0
1, 56541, Note_on_c, 1, 61, 0
1, 56544, Note_on_c, 0, 83, 75
1, 56544, Note_on_c, 1, 68, 75
1, 56589, Note_on_c, 0, 83, 0
1, 56592, Note_on_c, 0, 73, 75
1, 56637, Note_on_c, 0, 73, 0
1, 56637, Note_on_c, 1, 68, 0
1, 56640, Note_on_c, 0, 81, 75
1, 56640, Note_on_c, 1, 66, 75
1, 56685, Note_on_c, 0, 81, 0
1, 56688, Note_on_c, 0, 73, 75
1, 56733, Note_on_c, 0, 73, 0
1, 56733, Note_on_c, 1, 66, 0
1, 56736, Note_on_c, 0, 80, 75
1, 56736, Note_on_c, 1, 65, 75
1, 56781, Note_on_c, 0, 80, 0
1, 56784, Note_on_c, 0, 73, 75
1, 56829, Note_on_c, 0, 73, 0
1, 56829, Note_on_c, 1, 65, 0
1, 56832, Note_on_c, 0, 81, 75
1, 56832, Note_on_c, 1, 66, 75
1, 56832, Note_on_c, 1, 61, 75
1, 56865, Note_on_c, 0, 81, 0
1, 56868, Note_on_c, 0, 85, 75
1, 56889, Note_on_c, 0, 85, 0
1, 56892, Note_on_c, 0, 81, 75
1, 56925, Note_on_c, 0, 81, 0
1, 56928, Note_on_c, 0, 78, 75
1, 56961, Note_on_c, 0, 78, 0
1, 56964, Note_on_c, 0, 81, 75
1, 56985, Note_on_c, 0, 81, 0
1, 56988, Note_on_c, 0, 78, 75
1, 56992, Note_on_c, 1, 61, 0
1, 56992, Note_on_c, 1, 66, 0
1, 57021, Note_on_c, 0, 78, 0
1, 57024, Note_on_c, 0, 73, 75
1, 57057, Note_on_c, 0, 73, 0
1, 57060, Note_on_c, 0, 78, 75
1, 57081, Note_on_c, 0, 78, 0
1, 57084, Note_on_c, 0, 73, 75
1, 57117, Note_on_c, 0, 73, 0
1, 57120, Note_on_c, 0, 69, 75
1, 57153, Note_on_c, 0, 69, 0
1, 57156, Note_on_c, 0, 73, 75
1, 57177, Note_on_c, 0, 73, 0
1, 57180, Note_on_c, 0, 69, 75
1, 57213, Note_on_c, 0, 69, 0
1, 57216, Note_on_c, 1, 61, 75
1, 57264, Note_on_c, 0, 73, 75
1, 57309, Note_on_c, 0, 73, 0
1, 57309, Note_on_c, 1, 61, 0
1, 57312, Note_on_c, 0, 85, 75
1, 57312, Note_on_c, 1, 69, 75
1, 57357, Note_on_c, 0, 85, 0
1, 57360, Note_on_c, 0, 73, 75
1, 57405, Note_on_c, 0, 73, 0
1, 57405, Note_on_c, 1, 69, 0
1, 57408, Note_on_c, 0, 83, 75
1, 57408, Note_on_c, 1, 68, 75
1, 57453, Note_on_c, 0, 83, 0
1, 57456, Note_on_c, 0, 73, 75
1, 57501, Note_on_c, 0, 73, 0
1, 57501, Note_on_c, 1, 68, 0
1, 57504, Note_on_c, 0, 81, 75
1, 57504, Note_on_c, 1, 66, 75
1, 57549, Note_on_c, 0, 81, 0
1, 57552, Note_on_c, 0, 73, 75
1, 57597, Note_on_c, 0, 73, 0
1, 57597, Note_on_c, 1, 66, 0
1, 57600, Note_on_c, 0, 73, 75
1, 57600, Note_on_c, 1, 54, 75
1, 57600, Note_on_c, 1, 42, 75
1, 57633, Note_on_c, 0, 73, 0
1, 57636, Note_on_c, 0, 78, 75
1, 57657, Note_on_c, 0, 78, 0
1, 57660, Note_on_c, 0, 73, 75
1, 57693, Note_on_c, 0, 73, 0
1, 57696, Note_on_c, 0, 70, 75
1, 57729, Note_on_c, 0, 70, 0
1, 57732, Note_on_c, 0, 73, 75
1, 57753, Note_on_c, 0, 73, 0
1, 57756, Note_on_c, 0, 70, 75
1, 57760, Note_on_c, 1, 42, 0
1, 57760, Note_on_c, 1, 54, 0
1, 57789, Note_on_c, 0, 70, 0
1, 57792, Note_on_c, 0, 66, 75
1, 57825, Note_on_c, 0, 66, 0
1, 57828, Note_on_c, 0, 70, 75
1, 57849, Note_on_c, 0, 70, 0
1, 57852, Note_on_c, 0, 66, 75
1, 57885, Note_on_c, 0, 66, 0
1, 57888, Note_on_c, 0, 61, 75
1, 57921, Note_on_c, 0, 61, 0
1, 57924, Note_on_c, 0, 66, 75
1, 57945, Note_on_c, 0, 66, 0
1, 57948, Note_on_c, 0, 61, 75
1, 57981, Note_on_c, 0, 61, 0
1, 57984, Note_on_c, 1, 54, 75
1, 58032, Note_on_c, 0, 66, 75
1, 58077, Note_on_c, 0, 66, 0
1, 58077, Note_on_c, 1, 54, 0
1, 58080, Note_on_c, 0, 76, 75
1, 58080, Note_on_c, 1, 61, 75
1, 58125, Note_on_c, 0, 76, 0
1, 58128, Note_on_c, 0, 66, 75
1, 58173, Note_on_c, 0, 66, 0
1, 58173, Note_on_c, 1, 61, 0
1, 58176, Note_on_c, 0, 74, 75
1, 58176, Note_on_c, 1, 59, 75
1, 58221, Note_on_c, 0, 74, 0
1, 58224, Note_on_c, 0, 66, 75
1, 58269, Note_on_c, 0, 66, 0
1, 58269, Note_on_c, 1, 59, 0
1, 58272, Note_on_c, 0, 73, 75
1, 58272, Note_on_c, 1, 58, 75
1, 58317, Note_on_c, 0, 73, 0
1, 58320, Note_on_c, 0, 66, 75
1, 58365, Note_on_c, 0, 66, 0
1, 58365, Note_on_c, 1, 58, 0
1, 58368, Note_on_c, 0, 74, 75
1, 58368, Note_on_c, 1, 59, 75
1, 58368, Note_on_c, 1, 54, 75
1, 58401, Note_on_c, 0, 74, 0
1, 58404, Note_on_c, 0, 78, 75
1, 58425, Note_on_c, 0, 78, 0
1, 58428, Note_on_c, 0, 74, 75
1, 58461, Note_on_c, 0, 74, 0
1, 58464, Note_on_c, 0, 71, 75
1, 58497, Note_on_c, 0, 71, 0
1, 58500, Note_on_c, 0, 74, 75
1, 58521, Note_on_c, 0, 74, 0
1, 58524, Note_on_c, 0, 71, 75
1, 58528, Note_on_c, 1, 54, 0
1, 58528, Note_on_c, 1, 59, 0
1, 58557, Note_on_c, 0, 71, 0
1, 58560, Note_on_c, 0, 66, 75
1, 58593, Note_on_c, 0, 66, 0
1, 58596, Note_on_c, 0, 71, 75
1, 58617, Note_on_c, 0, 71, 0
1, 58620, Note_on_c, 0, 66, 75
1, 58653, Note_on_c, 0, 66, 0
1, 58656, Note_on_c, 0, 62, 75
1, 58689, Note_on_c, 0, 62, 0
1, 58692, Note_on_c, 0, 66, 75
1, 58713, Note_on_c, 0, 66, 0
1, 58716, Note_on_c, 0, 62, 75
1, 58749, Note_on_c, 0, 62, 0
1, 58752, Note_on_c, 1, 54, 75
1, 58800, Note_on_c, 0, 66, 75
1, 58845, Note_on_c, 0, 66, 0
1, 58845, Note_on_c, 1, 54, 0
1, 58848, Note_on_c, 0, 78, 75
1, 58848, Note_on_c, 1, 62, 75
1, 58893, Note_on_c, 0, 78, 0
1, 58896, Note_on_c, 0, 66, 75
1, 58941, Note_on_c, 0, 66, 0
1, 58941, Note_on_c, 1, 62, 0
1, 58944, Note_on_c, 0, 76, 75
1, 58944, Note_on_c, 1, 61, 75
1, 58989, Note_on_c, 0, 76, 0
1, 58992, Note_on_c, 0, 66, 75
1, 59037, Note_on_c, 0, 66, 0
1, 59037, Note_on_c, 1, 61, 0
1, 59040, Note_on_c, 0, 74, 75
1, 59040, Note_on_c, 1, 59, 75
1, 59085, Note_on_c, 0, 74, 0
1, 59088, Note_on_c, 0, 66, 75
1, 59133, Note_on_c, 0, 66, 0
1, 59133, Note_on_c, 1, 59, 0
1, 59136, Note_on_c, 0, 78, 92
1, 59136, Note_on_c, 1, 47, 92
1, 59136, Note_on_c, 1, 35, 92
1, 59169, Note_on_c, 0, 78, 0
1, 59172, Note_on_c, 0, 83, 92
1, 59193, Note_on_c, 0, 83, 0
1, 59196, Note_on_c, 0, 78, 92
1, 59229, Note_on_c, 0, 78, 0
1, 59232, Note_on_c, 0, 75, 92
1, 59265, Note_on_c, 0, 75, 0
1, 59268, Note_on_c, 0, 78, 92
1, 59289, Note_on_c, 0, 78, 0
1, 59292, Note_on_c, 0, 75, 92
1, 59296, Note_on_c, 1, 35, 0
1, 59296, Note_on_c, 1, 47, 0
1, 59325, Note_on_c, 0, 75, 0
1, 59328, Note_on_c, 0, 71, 92
1, 59361, Note_on_c, 0, 71, 0
1, 59364, Note_on_c, 0, 75, 92
1, 59385, Note_on_c, 0, 75, 0
1, 59388, Note_on_c, 0, 71, 92
1, 59421, Note_on_c, 0, 71, 0
1, 59424, Note_on_c, 0, 66, 92
1, 59457, Note_on_c, 0, 66, 0
1, 59460, Note_on_c, 0, 71, 92
1, 59481, Note_on_c, 0, 71, 0
1, 59484, Note_on_c, 0, 66, 92
1, 59517, Note_on_c, 0, 66, 0
1, 59520, Note_on_c, 1, 59, 75
1, 59568, Note_on_c, 0, 71, 75
1, 59613, Note_on_c, 0, 71, 0
1, 59613, Note_on_c, 1, 59, 0
1, 59616, Note_on_c, 0, 81, 75
1, 59616, Note_on_c, 1, 66, 75
1, 59661, Note_on_c, 0, 81, 0
1, 59664, Note_on_c, 0, 71, 75
1, 59709, Note_on_c, 0, 71, 0
1, 59709, Note_on_c, 1, 66, 0
1, 59712, Note_on_c, 0, 79, 75
1, 59712, Note_on_c, 1, 64, 75
1, 59757, Note_on_c, 0, 79, 0
1, 59760, Note_on_c, 0, 71, 75
1, 59805, Note_on_c, 0, 71, 0
1, 59805, Note_on_c, 1, 64, 0
1, 59808, Note_on_c, 0, 78, 75
1, 59808, Note_on_c, 1, 63, 75
1, 59853, Note_on_c, 0, 78, 0
1, 59856, Note_on_c, 0, 71, 75
1, 59901, Note_on_c, 0, 71, 0
1, 59901, Note_on_c, 1, 63, 0
1, 59904, Note_on_c, 0, 80, 75
1, 59904, Note_on_c, 1, 64, 75
1, 59904, Note_on_c, 1, 59, 75
1, 59937, Note_on_c, 0, 80, 0
1, 59940, Note_on_c, 0, 83, 75
1, 59961, Note_on_c, 0, 83, 0
1, 59964, Note_on_c, 0, 80, 75
1, 59997, Note_on_c, 0, 80, 0
1, 60000, Note_on_c, 0, 76, 75
1, 60033, Note_on_c, 0, 76, 0
1, 60036, Note_on_c, 0, 80, 75
1, 60057, Note_on_c, 0, 80, 0
1, 60060, Note_on_c, 0, 76, 75
1, 60064, Note_on_c, 1, 59, 0
1, 60064, Note_on_c, 1, 64, 0
1, 60093, Note_on_c, 0, 76, 0
1, 60096, Note_on_c, 0, 71, 75
1, 60129, Note_on_c, 0, 71, 0
1, 60132, Note_on_c, 0, 76, 75
1, 60153, Note_on_c, 0, 76, 0
1, 60156, Note_on_c, 0, 71, 75
1, 60189, Note_on_c, 0, 71, 0
1, 60192, Note_on_c, 0, 68, 75
1, 60225, Note_on_c, 0, 68, 0
1, 60228, Note_on_c, 0, 71, 75
1, 60249, Note_on_c, 0, 71, 0
1, 60252, Note_on_c, 0, 68, 75
1, 60285, Note_on_c, 0, 68, 0
1, 60288, Note_on_c, 1, 59, 75
1, 60336, Note_on_c, 0, 71, 75
1, 60381, Note_on_c, 0, 71, 0
1, 60381, Note_on_c, 1, 59, 0
1, 60384, Note_on_c, 0, 83, 75
1, 60384, Note_on_c, 1, 68, 75
1, 60429, Note_on_c, 0, 83, 0
1, 60432, Note_on_c, 0, 71, 75
1, 60477, Note_on_c, 0, 71, 0
1, 60477, Note_on_c, 1, 68, 0
1, 60480, Note_on_c, 0, 81, 75
1, 60480, Note_on_c, 1, 66, 75
1, 60525, Note_on_c, 0, 81, 0
1, 60528, Note_on_c, 0, 71, 75
1, 60573, Note_on_c, 0, 71, 0
1, 60573, Note_on_c, 1, 66, 0
1, 60576, Note_on_c, 0, 80, 75
1, 60576, Note_on_c, 1, 64, 75
1, 60621, Note_on_c, 0, 80, 0
1, 60624, Note_on_c, 0, 71, 75
1, 60669, Note_on_c, 0, 71, 0
1, 60669, Note_on_c, 1, 64, 0
1, 60672, Note_on_c, 0, 71, 75
1, 60672, Note_on_c, 1, 52, 75
1, 60672, Note_on_c, 1, 40, 75
1, 60705, Note_on_c, 0, 71, 0
1, 60708, Note_on_c, 0, 76, 75
1, 60729, Note_on_c, 0, 76, 0
1, 60732, Note_on_c, 0, 71, 75
1, 60765, Note_on_c, 0, 71, 0
1, 60768, Note_on_c, 0, 68, 75
1, 60801, Note_on_c, 0, 68, 0
1, 60804, Note_on_c, 0, 71, 75
1, 60825, Note_on_c, 0, 71, 0
1, 60828, Note_on_c, 0, 68, 75
1, 60832, Note_on_c, 1, 40, 0
1, 60832, Note_on_c, 1, 52, 0
1, 60861, Note_on_c, 0, 68, 0
1, 60864, Note_on_c, 0, 64, 75
1, 60897, Note_on_c, 0, 64, 0
1, 60900, Note_on_c, 0, 68, 75
1, 60921, Note_on_c, 0, 68, 0
1, 60924, Note_on_c, 0, 64, 75
1, 60957, Note_on_c, 0, 64, 0
1, 60960, Note_on_c, 0, 59, 75
1, 60993, Note_on_c, 0, 59, 0
1, 60996, Note_on_c, 0, 64, 75
1, 61017, Note_on_c, 0, 64, 0
1, 61020, Note_on_c, 0, 59, 75
1, 61053, Note_on_c, 0, 59, 0
1, 61056, Note_on_c, 1, 52, 75
1, 61104, Note_on_c, 0, 64, 75
1, 61149, Note_on_c, 0, 64, 0
1, 61149, Note_on_c, 1, 52, 0
1, 61152, Note_on_c, 0, 74, 75
1, 61152, Note_on_c, 1, 59, 75
1, 61197, Note_on_c, 0, 74, 0
1, 61200, Note_on_c, 0, 64, 75
1, 61245, Note_on_c, 0, 64, 0
1, 61245, Note_on_c, 1, 59, 0
1, 61248, Note_on_c, 0, 73, 75
1, 61248, Note_on_c, 1, 57, 75
1, 61293, Note_on_c, 0, 73, 0
1, 61296, Note_on_c, 0, 64, 75
1, 61341, Note_on_c, 0, 64, 0
1, 61341, Note_on_c, 1, 57, 0
1, 61344, Note_on_c, 0, 71, 75
1, 61344, Note_on_c, 1, 56, 75
1, 61389, Note_on_c, 0, 71, 0
1, 61392, Note_on_c, 0, 64, 75
1, 61437, Note_on_c, 0, 64, 0
1, 61437, Note_on_c, 1, 56, 0
1, 61440, Note_on_c, 0, 73, 75
1, 61440, Note_on_c, 1, 57, 75
1, 61440, Note_on_c, 1, 52, 75
1, 61473, Note_on_c, 0, 73, 0
1, 61476, Note_on_c, 0, 76, 75
1, 61497, Note_on_c, 0, 76, 0
1, 61500, Note_on_c, 0, 73, 75
1, 61533, Note_on_c, 0, 73, 0
1, 61536, Note_on_c, 0, 69, 75
1, 61569, Note_on_c, 0, 69, 0
1, 61572, Note_on_c, 0, 73, 75
1, 61593, Note_on_c, 0, 73, 0
1, 61596, Note_on_c, 0, 69, 75
1, 61600, Note_on_c, 1, 52, 0
1, 61600, Note_on_c, 1, 57, 0
1, 61629, Note_on_c, 0, 69, 0
1, 61632, Note_on_c, 0, 64, 75
1, 61665, Note_on_c, 0, 64, 0
1, 61668, Note_on_c, 0, 69, 75
1, 61689, Note_on_c, 0, 69, 0
1, 61692, Note_on_c, 0, 64, 75
1, 61725, Note_on_c, 0, 64, 0
1, 61728, Note_on_c, 0, 61, 75
1, 61761, Note_on_c, 0, 61, 0
1, 61764, Note_on_c, 0, 64, 75
1, 61785, Note_on_c, 0, 64, 0
1, 61788, Note_on_c, 0, 61, 75
1, 61821, Note_on_c, 0, 61, 0
1, 61824, Note_on_c, 1, 52, 75
1, 61872, Note_on_c, 0, 64, 75
1, 61917, Note_on_c, 0, 64, 0
1, 61917, Note_on_c, 1, 52, 0
1, 61920, Note_on_c, 0, 76, 75
1, 61920, Note_on_c, 1, 61, 75
1, 61965, Note_on_c, 0, 76, 0
1, 61968, Note_on_c, 0, 64, 75
1, 62013, Note_on_c, 0, 64, 0
1, 62013, Note_on_c, 1, 61, 0
1, 62016, Note_on_c, 0, 74, 75
1, 62016, Note_on_c, 1, 59, 75
1, 62061, Note_on_c, 0, 74, 0
1, 62064, Note_on_c, 0, 64, 75
1, 62109, Note_on_c, 0, 64, 0
1, 62109, Note_on_c, 1, 59, 0
1, 62112, Note_on_c, 0, 73, 75
1, 62112, Note_on_c, 1, 57, 75
1, 62157, Note_on_c, 0, 73, 0
1, 62160, Note_on_c, 0, 64, 75
1, 62205, Note_on_c, 0, 64, 0
1, 62205, Note_on_c, 1, 57, 0
1, 62208, Note_on_c, 1, 62, 75
1, 62253, Note_on_c, 1, 62, 0
1, 62256, Note_on_c, 1, 69, 75
1, 62301, Note_on_c, 1, 69, 0
1, 62304, Note_on_c, 0, 78, 75
1, 62304, Note_on_c, 1, 66, 75
1, 62325, Note_on_c, 0, 78, 0
1, 62328, Note_on_c, 0, 80, 75
1, 62349, Note_on_c, 0, 80, 0
1, 62349, Note_on_c, 1, 66, 0
1, 62352, Note_on_c, 0, 78, 75
1, 62352, Note_on_c, 1, 69, 75
1, 62373, Note_on_c, 0, 78, 0
1, 62376, Note_on_c, 0, 80, 75
1, 62397, Note_on_c, 0, 80, 0
1, 62397, Note_on_c, 1, 69, 0
1, 62400, Note_on_c, 0, 76, 75
1, 62400, Note_on_c, 1, 61, 75
1, 62445, Note_on_c, 1, 61, 0
1, 62448, Note_on_c, 1, 69, 75
1, 62493, Note_on_c, 0, 76, 0
1, 62493, Note_on_c, 1, 69, 0
1, 62496, Note_on_c, 0, 81, 75
1, 62496, Note_on_c, 1, 64, 75
1, 62541, Note_on_c, 1, 64, 0
1, 62544, Note_on_c, 1, 69, 75
1, 62589, Note_on_c, 0, 81, 0
1, 62589, Note_on_c, 1, 69, 0
1, 62592, Note_on_c, 1, 59, 75
1, 62637, Note_on_c, 1, 59, 0
1, 62640, Note_on_c, 1, 68, 75
1, 62685, Note_on_c, 1, 68, 0
1, 62688, Note_on_c, 0, 86, 75
1, 62688, Note_on_c, 1, 62, 75
1, 62733, Note_on_c, 1, 62, 0
1, 62736, Note_on_c, 1, 68, 75
1, 62781, Note_on_c, 0, 86, 0
1, 62781, Note_on_c, 1, 68, 0
1, 62784, Note_on_c, 0, 85, 75
1, 62784, Note_on_c, 1, 57, 75
1, 62805, Note_on_c, 0, 85, 0
1, 62808, Note_on_c, 0, 86, 75
1, 62829, Note_on_c, 0, 86, 0
1, 62829, Note_on_c, 1, 57, 0
1, 62832, Note_on_c, 0, 85, 75
1, 62832, Note_on_c, 1, 64, 75
1, 62853, Note_on_c, 0, 85, 0
1, 62856, Note_on_c, 0, 86, 75
1, 62877, Note_on_c, 0, 86, 0
1, 62877, Note_on_c, 1, 64, 0
1, 62880, Note_on_c, 0, 81, 75
1, 62880, Note_on_c, 1, 61, 75
1, 62925, Note_on_c, 1, 61, 0
1, 62928, Note_on_c, 1, 64, 75
1, 62973, Note_on_c, 0, 81, 0
1, 62973, Note_on_c, 1, 64, 0
1, 62976, Note_on_c, 1, 62, 45
1, 63021, Note_on_c, 1, 62, 0
1, 63024, Note_on_c, 1, 69, 45
1, 63069, Note_on_c, 1, 69, 0
1, 63072, Note_on_c, 0, 78, 45
1, 63072, Note_on_c, 1, 66, 45
1, 63093, Note_on_c, 0, 78, 0
1, 63096, Note_on_c, 0, 80, 45
1, 63117, Note_on_c, 0, 80, 0
1, 63117, Note_on_c, 1, 66, 0
1, 63120, Note_on_c, 0, 78, 45
1, 63120, Note_on_c, 1, 69, 45
1, 63141, Note_on_c, 0, 78, 0
1, 63144, Note_on_c, 0, 80, 45
1, 63165, Note_on_c, 0, 80, 0
1, 63165, Note_on_c, 1, 69, 0
1, 63168, Note_on_c, 0, 76, 45
1, 63168, Note_on_c, 1, 61, 45
1, 63213, Note_on_c, 1, 61, 0
1, 63216, Note_on_c, 1, 69, 45
1, 63261, Note_on_c, 0, 76, 0
1, 63261, Note_on_c, 1, 69, 0
1, 63264, Note_on_c, 0, 81, 45
1, 63264, Note_on_c, 1, 64, 45
1, 63309, Note_on_c, 1, 64, 0
1, 63312, Note_on_c, 1, 69, 45
1, 63357, Note_on_c, 0, 81, 0
1, 63357, Note_on_c, 1, 69, 0
1, 63360, Note_on_c, 1, 59, 45
1, 63405, Note_on_c, 1, 59, 0
1, 63408, Note_on_c, 1, 68, 46
1, 63453, Note_on_c, 1, 68, 0
1, 63456, Note_on_c, 0, 86, 46
1, 63456, Note_on_c, 1, 62, 47
1, 63501, Note_on_c, 1, 62, 0
1, 63504, Note_on_c, 1, 68, 48
1, 63549, Note_on_c, 0, 86, 0
1, 63549, Note_on_c, 1, 68, 0
1, 63552, Note_on_c, 0, 85, 47
1, 63552, Note_on_c, 1, 57, 49
1, 63573, Note_on_c, 0, 85, 0
1, 63576, Note_on_c, 0, 86, 48
1, 63597, Note_on_c, 0, 86, 0
1, 63597, Note_on_c, 1, 57, 0
1, 63600, Note_on_c, 0, 85, 49
1, 63600, Note_on_c, 1, 64, 50
1, 63621, Note_on_c, 0, 85, 0
1, 63624, Note_on_c, 0, 86, 50
1, 63645, Note_on_c, 0, 86, 0
1, 63645, Note_on_c, 1, 64, 0
1, 63648, Note_on_c, 0, 81, 51
1, 63648, Note_on_c, 1, 61, 51
1, 63693, Note_on_c, 1, 61, 0
1, 63696, Note_on_c, 1, 64, 52
1, 63741, Note_on_c, 0, 81, 0
1, 63741, Note_on_c, 1, 64, 0
1, 63744, Note_on_c, 1, 52, 53
1, 63789, Note_on_c, 1, 52, 0
1, 63792, Note_on_c, 1, 64, 54
1, 63837, Note_on_c, 1, 64, 0
1, 63840, Note_on_c, 0, 76, 53
1, 63840, Note_on_c, 1, 56, 55
1, 63885, Note_on_c, 1, 56, 0
1, 63888, Note_on_c, 1, 64, 56
1, 63933, Note_on_c, 0, 76, 0
1, 63933, Note_on_c, 1, 64, 0
1, 63936, Note_on_c, 0, 76, 54
1, 63936, Note_on_c, 1, 52, 57
1, 63981, Note_on_c, 1, 52, 0
1, 63984, Note_on_c, 1, 64, 58
1, 64029, Note_on_c, 0, 76, 0
1, 64029, Note_on_c, 1, 64, 0
1, 64032, Note_on_c, 0, 76, 55
1, 64032, Note_on_c, 1, 56, 59
1, 64077, Note_on_c, 1, 56, 0
1, 64080, Note_on_c, 1, 64, 60
1, 64125, Note_on_c, 0, 76, 0
1, 64125, Note_on_c, 1, 64, 0
1, 64128, Note_on_c, 1, 52, 61
1, 64173, Note_on_c, 1, 52, 0
1, 64176, Note_on_c, 1, 64, 62
1, 64221, Note_on_c, 1, 64, 0
1, 64224, Note_on_c, 0, 76, 57
1, 64224, Note_on_c, 0, 78, 57
1, 64224, Note_on_c, 1, 57, 63
1, 64269, Note_on_c, 1, 57, 0
1, 64272, Note_on_c, 1, 64, 64
1, 64317, Note_on_c, 0, 78, 0
1, 64317, Note_on_c, 0, 76, 0
1, 64317, Note_on_c, 1, 64, 0
1, 64320, Note_on_c, 0, 78, 58
1, 64320, Note_on_c, 0, 76, 58
1, 64320, Note_on_c, 1, 52, 65
1, 64365, Note_on_c, 1, 52, 0
1, 64368, Note_on_c, 1, 64, 66
1, 64413, Note_on_c, 0, 76, 0
1, 64413, Note_on_c, 0, 78, 0
1, 64413, Note_on_c, 1, 64, 0
1, 64416, Note_on_c, 0, 78, 59
1, 64416, Note_on_c, 0, 76, 59
1, 64416, Note_on_c, 1, 57, 67
1, 64461, Note_on_c, 1, 57, 0
1, 64464, Note_on_c, 1, 64, 68
1, 64509, Note_on_c, 0, 76, 0
1, 64509, Note_on_c, 0, 78, 0
1, 64509, Note_on_c, 1, 64, 0
1, 64512, Note_on_c, 1, 52, 69
1, 64557, Note_on_c, 1, 52, 0
1, 64560, Note_on_c, 1, 64, 70
1, 64605, Note_on_c, 1, 64, 0
1, 64608, Note_on_c, 0, 74, 61
1, 64608, Note_on_c, 0, 78, 61
1, 64608, Note_on_c, 1, 59, 71
1, 64653, Note_on_c, 1, 59, 0
1, 64656, Note_on_c, 1, 64, 72
1, 64701, Note_on_c, 0, 78, 0
1, 64701, Note_on_c, 0, 74, 0
1, 64701, Note_on_c, 1, 64, 0
1, 64704, Note_on_c, 0, 78, 62
1, 64704, Note_on_c, 0, 74, 62
1, 64704, Note_on_c, 1, 52, 73
1, 64749, Note_on_c, 1, 52, 0
1, 64752, Note_on_c, 1, 64, 74
1, 64797, Note_on_c, 0, 74, 0
1, 64797, Note_on_c, 0, 78, 0
1, 64797, Note_on_c, 1, 64, 0
1, 64800, Note_on_c, 0, 78, 63
1, 64800, Note_on_c, 0, 74, 63
1, 64800, Note_on_c, 1, 59, 75
1, 64845, Note_on_c, 1, 59, 0
1, 64848, Note_on_c, 1, 64, 76
1, 64893, Note_on_c, 0, 74, 0
1, 64893, Note_on_c, 0, 78, 0
1, 64893, Note_on_c, 1, 64, 0
1, 64896, Note_on_c, 1, 52, 77
1, 64941, Note_on_c, 1, 52, 0
1, 64944, Note_on_c, 1, 64, 78
1, 64989, Note_on_c, 1, 64, 0
1, 64992, Note_on_c, 0, 74, 65
1, 64992, Note_on_c, 0, 80, 65
1, 64992, Note_on_c, 1, 59, 79
1, 65037, Note_on_c, 1, 59, 0
1, 65040, Note_on_c, 1, 64, 80
1, 65085, Note_on_c, 0, 80, 0
1, 65085, Note_on_c, 0, 74, 0
1, 65085, Note_on_c, 1, 64, 0
1, 65088, Note_on_c, 0, 80, 66
1, 65088, Note_on_c, 0, 74, 66
1, 65088, Note_on_c, 1, 52, 81
1, 65133, Note_on_c, 1, 52, 0
1, 65136, Note_on_c, 1, 64, 82
1, 65181, Note_on_c, 0, 74, 0
1, 65181, Note_on_c, 0, 80, 0
1, 65181, Note_on_c, 1, 64, 0
1, 65184, Note_on_c, 0, 80, 67
1, 65184, Note_on_c, 0, 74, 67
1, 65184, Note_on_c, 1, 59, 83
1, 65229, Note_on_c, 1, 59, 0
1, 65232, Note_on_c, 1, 64, 84
1, 65277, Note_on_c, 0, 74, 0
1, 65277, Note_on_c, 0, 80, 0
1, 65277, Note_on_c, 1, 64, 0
1, 65280, Note_on_c, 0, 81, 127
1, 65280, Note_on_c, 0, 76, 127
1, 65280, Note_on_c, 0, 73, 127
1, 65280, Note_on_c, 1, 57, 127
1, 65325, Note_on_c, 1, 57, 0
1, 65328, Note_on_c, 1, 64, 127
1, 65373, Note_on_c, 1, 64, 0
1, 65376, Note_on_c, 1, 61, 127
1, 65421, Note_on_c, 1, 61, 0
1, 65424, Note_on_c, 1, 64, 127
1, 65440, Note_on_c, 0, 73, 0
1, 65440, Note_on_c, 0, 76, 0
1, 65440, Note_on_c, 0, 81, 0
1, 65469, Note_on_c, 1, 64, 0
1, 65472, Note_on_c, 0, 86, 127
1, 65472, Note_on_c, 0, 83, 127
1, 65472, Note_on_c, 0, 80, 127
1, 65472, Note_on_c, 0, 76, 127
1, 65472, Note_on_c, 1, 56, 127
1, 65517, Note_on_c, 1, 56, 0
1, 65520, Note_on_c, 1, 64, 127
1, 65565, Note_on_c, 1, 64, 0
1, 65568, Note_on_c, 1, 59, 127
1, 65613, Note_on_c, 1, 59, 0
1, 65616, Note_on_c, 1, 64, 127
1, 65632, Note_on_c, 0, 76, 0
1, 65632, Note_on_c, 0, 80, 0
1, 65632, Note_on_c, 0, 83, 0
1, 65632, Note_on_c, 0, 86, 0
1, 65661, Note_on_c, 1, 64, 0
1, 65664, Note_on_c, 0, 85, 127
1, 65664, Note_on_c, 0, 81, 127
1, 65664, Note_on_c, 0, 76, 127
1, 65664, Note_on_c, 1, 57, 127
1, 65709, Note_on_c, 1, 57, 0
1, 65712, Note_on_c, 1, 64, 127
1, 65757, Note_on_c, 1, 64, 0
1, 65760, Note_on_c, 1, 61, 127
1, 65805, Note_on_c, 1, 61, 0
1, 65808, Note_on_c, 1, 64, 127
1, 65824, Note_on_c, 0, 76, 0
1, 65824, Note_on_c, 0, 81, 0
1, 65824, Note_on_c, 0, 85, 0
1, 65853, Note_on_c, 1, 64, 0
1, 65856, Note_on_c, 0, 83, 127
1, 65856, Note_on_c, 0, 80, 127
1, 65856, Note_on_c, 0, 74, 127
1, 65856, Note_on_c, 1, 59, 127
1, 65901, Note_on_c, 1, 59, 0
1, 65904, Note_on_c, 1, 64, 127
1, 65949, Note_on_c, 1, 64, 0
1, 65952, Note_on_c, 1, 62, 127
1, 65997, Note_on_c, 1, 62, 0
1, 66000, Note_on_c, 1, 64, 127
1, 66016, Note_on_c, 0, 74, 0
1, 66016, Note_on_c, 0, 80, 0
1, 66016, Note_on_c, 0, 83, 0
1, 66045, Note_on_c, 1, 64, 0
1, 66048, Note_on_c, 0, 81, 92
1, 66048, Note_on_c, 0, 76, 92
1, 66048, Note_on_c, 0, 73, 92
1, 66048, Note_on_c, 1, 57, 92
1, 66093, Note_on_c, 1, 57, 0
1, 66096, Note_on_c, 1, 64, 92
1, 66141, Note_on_c, 1, 64, 0
1, 66144, Note_on_c, 1, 61, 92
1, 66189, Note_on_c, 1, 61, 0
1, 66192, Note_on_c, 1, 64, 92
1, 66208, Note_on_c, 0, 73, 0
1, 66208, Note_on_c, 0, 76, 0
1, 66208, Note_on_c, 0, 81, 0
1, 66237, Note_on_c, 1, 64, 0
1, 66240, Note_on_c, 0, 86, 92
1, 66240, Note_on_c, 0, 83, 92
1, 66240, Note_on_c, 0, 80, 92
1, 66240, Note_on_c, 0, 76, 92
1, 66240, Note_on_c, 1, 56, 92
1, 66285, Note_on_c, 1, 56, 0
1, 66288, Note_on_c, 1, 64, 92
1, 66333, Note_on_c, 1, 64, 0
1, 66336, Note_on_c, 1, 59, 92
1, 66381, Note_on_c, 1, 59, 0
1, 66384, Note_on_c, 1, 64, 92
1, 66400, Note_on_c, 0, 76, 0
1, 66400, Note_on_c, 0, 80, 0
1, 66400, Note_on_c, 0, 83, 0
1, 66400, Note_on_c, 0, 86, 0
1, 66429, Note_on_c, 1, 64, 0
1, 66432, Note_on_c, 0, 85, 92
1, 66432, Note_on_c, 0, 81, 92
1, 66432, Note_on_c, 0, 76, 92
1, 66432, Note_on_c, 1, 57, 92
1, 66477, Note_on_c, 1, 57, 0
1, 66480, Note_on_c, 1, 64, 92
1, 66525, Note_on_c, 1, 64, 0
1, 66528, Note_on_c, 1, 61, 92
1, 66573, Note_on_c, 1, 61, 0
1, 66576, Note_on_c, 1, 64, 92
1, 66592, Note_on_c, 0, 76, 0
1, 66592, Note_on_c, 0, 81, 0
1, 66592, Note_on_c, 0, 85, 0
1, 66621, Note_on_c, 1, 64, 0
1, 66624, Note_on_c, 0, 83, 92
1, 66624, Note_on_c, 0, 80, 92
1, 66624, Note_on_c, 0, 74, 92
1, 66624, Note_on_c, 1, 59, 92
1, 66669, Note_on_c, 1, 59, 0
1, 66672, Note_on_c, 1, 64, 92
1, 66717, Note_on_c, 1, 64, 0
1, 66720, Note_on_c, 1, 62, 92
1, 66765, Note_on_c, 1, 62, 0
1, 66768, Note_on_c, 1, 64, 92
1, 66784, Note_on_c, 0, 74, 0
1, 66784, Note_on_c, 0, 80, 0
1, 66784, Note_on_c, 0, 83, 0
1, 66813, Note_on_c, 1, 64, 0
1, 66816, Note_on_c, 0, 81, 75
1, 66816, Note_on_c, 1, 61, 75
1, 66861, Note_on_c, 0, 81, 0
1, 66864, Note_on_c, 0, 85, 75
1, 66909, Note_on_c, 0, 85, 0
1, 66912, Note_on_c, 0, 76, 75
1, 66957, Note_on_c, 0, 76, 0
1, 66960, Note_on_c, 0, 81, 75
1, 66976, Note_on_c, 1, 61, 0
1, 67005, Note_on_c, 0, 81, 0
1, 67008, Note_on_c, 0, 73, 75
1, 67053, Note_on_c, 0, 73, 0
1, 67056, Note_on_c, 0, 76, 75
1, 67101, Note_on_c, 0, 76, 0
1, 67104, Note_on_c, 0, 69, 75
1, 67149, Note_on_c, 0, 69, 0
1, 67152, Note_on_c, 0, 73, 75
1, 67197, Note_on_c, 0, 73, 0
1, 67200, Note_on_c, 0, 78, 75
1, 67200, Note_on_c, 1, 62, 75
1, 67245, Note_on_c, 0, 78, 0
1, 67248, Note_on_c, 0, 81, 75
1, 67293, Note_on_c, 0, 81, 0
1, 67296, Note_on_c, 0, 74, 75
1, 67341, Note_on_c, 0, 74, 0
1, 67344, Note_on_c, 0, 78, 75
1, 67360, Note_on_c, 1, 62, 0
1, 67389, Note_on_c, 0, 78, 0
1, 67392, Note_on_c, 0, 71, 75
1, 67437, Note_on_c, 0, 71, 0
1, 67440, Note_on_c, 0, 74, 75
1, 67485, Note_on_c, 0, 74, 0
1, 67488, Note_on_c, 0, 66, 75
1, 67533, Note_on_c, 0, 66, 0
1, 67536, Note_on_c, 0, 71, 75
1, 67581, Note_on_c, 0, 71, 0
1, 67584, Note_on_c, 0, 69, 75
1, 67584, Note_on_c, 1, 61, 75
1, 67584, Note_on_c, 1, 52, 75
1, 67677, Note_on_c, 1, 52, 0
1, 67677, Note_on_c, 1, 61, 0
1, 67680, Note_on_c, 1, 52, 75
1, 67680, Note_on_c, 1, 61, 75
1, 67744, Note_on_c, 0, 69, 0
1, 67773, Note_on_c, 1, 61, 0
1, 67773, Note_on_c, 1, 52, 0
1, 67776, Note_on_c, 0, 68, 75
1, 67776, Note_on_c, 1, 59, 75
1, 67776, Note_on_c, 1, 52, 75
1, 67797, Note_on_c, 0, 68, 0
1, 67800, Note_on_c, 0, 69, 75
1, 67821, Note_on_c, 0, 69, 0
1, 67824, Note_on_c, 0, 68, 75
1, 67845, Note_on_c, 0, 68, 0
1, 67848, Note_on_c, 0, 69, 75
1, 67869, Note_on_c, 0, 69, 0
1, 67869, Note_on_c, 1, 52, 0
1, 67869, Note_on_c, 1, 59, 0
1, 67872, Note_on_c, 0, 68, 75
1, 67872, Note_on_c, 1, 59, 75
1, 67872, Note_on_c, 1, 52, 75
1, 67893, Note_on_c, 0, 68, 0
1, 67896, Note_on_c, 0, 69, 75
1, 67917, Note_on_c, 0, 69, 0
1, 67920, Note_on_c, 0, 68, 75
1, 67941, Note_on_c, 0, 68, 0
1, 67944, Note_on_c, 0, 69, 75
1, 67965, Note_on_c, 0, 69, 0
1, 67965, Note_on_c, 1, 52, 0
1, 67965, Note_on_c, 1, 59, 0
1, 67968, Note_on_c, 0, 69, 75
1, 67968, Note_on_c, 1, 57, 75
1, 67968, Note_on_c, 1, 45, 75
1, 68128, Note_on_c, 0, 69, 0
1, 68128, Note_on_c, 1, 45, 0
1, 68128, Note_on_c, 1, 57, 0
1, 68352, Note_on_c, 0, 81, 75
1, 68352, Note_on_c, 0, 76, 75
1, 68352, Note_on_c, 0, 72, 75
1, 68448, Note_on_c, 1, 45, 75
1, 68448, Note_on_c, 1, 57, 75
1, 68512, Note_on_c, 0, 72, 0
1, 68512, Note_on_c, 0, 76, 0
1, 68512, Note_on_c, 0, 81, 0
1, 68541, Note_on_c, 1, 57, 0
1, 68541, Note_on_c, 1, 45, 0
1, 68544, Note_on_c, 1, 60, 75
1, 68544, Note_on_c, 1, 48, 75
1, 68637, Note_on_c, 1, 48, 0
1, 68637, Note_on_c, 1, 60, 0
1, 68640, Note_on_c, 0, 81, 75
1, 68640, Note_on_c, 0, 72, 75
1, 68640, Note_on_c, 1, 57, 75
1, 68640, Note_on_c, 1, 45, 75
1, 68733, Note_on_c, 0, 72, 0
1, 68733, Note_on_c, 0, 81, 0
1, 68733, Note_on_c, 1, 45, 0
1, 68733, Note_on_c, 1, 57, 0
1, 68736, Note_on_c, 0, 81, 75
1, 68736, Note_on_c, 0, 72, 75
1, 68781, Note_on_c, 0, 72, 0
1, 68781, Note_on_c, 0, 81, 0
1, 68784, Note_on_c, 0, 71, 75
1, 68784, Note_on_c, 0, 80, 75
1, 68829, Note_on_c, 0, 80, 0
1, 68829, Note_on_c, 0, 71, 0
1, 68832, Note_on_c, 0, 71, 75
1, 68832, Note_on_c, 0, 80, 75
1, 68832, Note_on_c, 1, 52, 75
1, 68832, Note_on_c, 1, 40, 75
1, 68925, Note_on_c, 0, 80, 0
1, 68925, Note_on_c, 0, 71, 0
1, 68925, Note_on_c, 1, 40, 0
1, 68925, Note_on_c, 1, 52, 0
1, 68928, Note_on_c, 1, 56, 75
1, 68928, Note_on_c, 1, 44, 75
1, 69021, Note_on_c, 1, 44, 0
1, 69021, Note_on_c, 1, 56, 0
1, 69024, Note_on_c, 1, 52, 75
1, 69024, Note_on_c, 1, 40, 75
1, 69117, Note_on_c, 1, 40, 0
1, 69117, Note_on_c, 1, 52, 0
1, 69120, Note_on_c, 0, 74, 92
1, 69120, Note_on_c, 0, 71, 92
1, 69120, Note_on_c, 0, 68, 92
1, 69120, Note_on_c, 0, 64, 92
1, 69216, Note_on_c, 1, 40, 92
1, 69216, Note_on_c, 1, 52, 92
1, 69280, Note_on_c, 0, 64, 0
1, 69280, Note_on_c, 0, 68, 0
1, 69280, Note_on_c, 0, 71, 0
1, 69280, Note_on_c, 0, 74, 0
1, 69309, Note_on_c, 1, 52, 0
1, 69309, Note_on_c, 1, 40, 0
1, 69312, Note_on_c, 1, 56, 92
1, 69312, Note_on_c, 1, 44, 92
1, 69405, Note_on_c, 1, 44, 0
1, 69405, Note_on_c, 1, 56, 0
1, 69408, Note_on_c, 0, 74, 92
1, 69408, Note_on_c, 0, 71, 92
1, 69408, Note_on_c, 1, 52, 92
1, 69408, Note_on_c, 1, 40, 92
1, 69501, Note_on_c, 0, 71, 0
1, 69501, Note_on_c, 0, 74, 0
1, 69501, Note_on_c, 1, 40, 0
1, 69501, Note_on_c, 1, 52, 0
1, 69504, Note_on_c, 0, 74, 92
1, 69504, Note_on_c, 0, 71, 92
1, 69549, Note_on_c, 0, 71, 0
1, 69549, Note_on_c, 0, 74, 0
1, 69552, Note_on_c, 0, 69, 92
1, 69552, Note_on_c, 0, 72, 92
1, 69597, Note_on_c, 0, 72, 0
1, 69597, Note_on_c, 0, 69, 0
1, 69600, Note_on_c, 0, 69, 92
1, 69600, Note_on_c, 0, 72, 92
1, 69600, Note_on_c, 1, 57, 92
1, 69600, Note_on_c, 1, 45, 92
1, 69693, Note_on_c, 0, 72, 0
1, 69693, Note_on_c, 0, 69, 0
1, 69693, Note_on_c, 1, 45, 0
1, 69693, Note_on_c, 1, 57, 0
1, 69696, Note_on_c, 1, 60, 92
1, 69696, Note_on_c, 1, 48, 92
1, 69789, Note_on_c, 1, 48, 0
1, 69789, Note_on_c, 1, 60, 0
1, 69792, Note_on_c, 1, 57, 92
1, 69792, Note_on_c, 1, 45, 92
1, 69885, Note_on_c, 1, 45, 0
1, 69885, Note_on_c, 1, 57, 0
1, 69888, Note_on_c, 0, 77, 108
1, 69888, Note_on_c, 0, 74, 108
1, 69984, Note_on_c, 1, 50, 108
1, 69984, Note_on_c, 1, 62, 108
1, 70048, Note_on_c, 0, 74, 0
1, 70048, Note_on_c, 0, 77, 0
1, 70077, Note_on_c, 1, 62, 0
1, 70077, Note_on_c, 1, 50, 0
1, 70080, Note_on_c, 1, 59, 108
1, 70080, Note_on_c, 1, 47, 108
1, 70173, Note_on_c, 1, 47, 0
1, 70173, Note_on_c, 1, 59, 0
1, 70176, Note_on_c, 0, 77, 108
1, 70176, Note_on_c, 0, 74, 108
1, 70176, Note_on_c, 1, 55, 108
1, 70176, Note_on_c, 1, 43, 108
1, 70269, Note_on_c, 0, 74, 0
1, 70269, Note_on_c, 0, 77, 0
1, 70269, Note_on_c, 1, 43, 0
1, 70269, Note_on_c, 1, 55, 0
1, 70272, Note_on_c, 0, 77, 108
1, 70272, Note_on_c, 0, 74, 108
1, 70317, Note_on_c, 0, 74, 0
1, 70317, Note_on_c, 0, 77, 0
1, 70320, Note_on_c, 0, 72, 108
1, 70320, Note_on_c, 0, 76, 108
1, 70365, Note_on_c, 0, 76, 0
1, 70365, Note_on_c, 0, 72, 0
1, 70368, Note_on_c, 0, 72, 108
1, 70368, Note_on_c, 0, 76, 108
1, 70368, Note_on_c, 1, 60, 108
1, 70368, Note_on_c, 1, 48, 108
1, 70461, Note_on_c, 0, 76, 0
1, 70461, Note_on_c, 0, 72, 0
1, 70461, Note_on_c, 1, 48, 0
1, 70461, Note_on_c, 1, 60, 0
1, 70464, Note_on_c, 1, 57, 108
1, 70464, Note_on_c, 1, 45, 108
1, 70557, Note_on_c, 1, 45, 0
1, 70557, Note_on_c, 1, 57, 0
1, 70560, Note_on_c, 0, 76, 108
1, 70560, Note_on_c, 0, 72, 108
1, 70560, Note_on_c, 1, 54, 108
1, 70560, Note_on_c, 1, 42, 108
1, 70653, Note_on_c, 0, 72, 0
1, 70653, Note_on_c, 0, 76, 0
1, 70653, Note_on_c, 1, 42, 0
1, 70653, Note_on_c, 1, 54, 0
1, 70656, Note_on_c, 0, 76, 108
1, 70656, Note_on_c, 0, 72, 108
1, 70701, Note_on_c, 0, 72, 0
1, 70701, Note_on_c, 0, 76, 0
1, 70704, Note_on_c, 0, 71, 108
1, 70704, Note_on_c, 0, 74, 108
1, 70749, Note_on_c, 0, 74, 0
1, 70749, Note_on_c, 0, 71, 0
1, 70752, Note_on_c, 0, 71, 108
1, 70752, Note_on_c, 0, 74, 108
1, 70752, Note_on_c, 1, 59, 108
1, 70752, Note_on_c, 1, 47, 108
1, 70845, Note_on_c, 0, 74, 0
1, 70845, Note_on_c, 0, 71, 0
1, 70845, Note_on_c, 1, 47, 0
1, 70845, Note_on_c, 1, 59, 0
1, 70848, Note_on_c, 1, 56, 108
1, 70848, Note_on_c, 1, 44, 108
1, 70941, Note_on_c, 1, 44, 0
1, 70941, Note_on_c, 1, 56, 0
1, 70944, Note_on_c, 0, 74, 108
1, 70944, Note_on_c, 0, 71, 108
1, 70944, Note_on_c, 1, 52, 108
1, 70944, Note_on_c, 1, 40, 108
1, 71037, Note_on_c, 0, 71, 0
1, 71037, Note_on_c, 0, 74, 0
1, 71037, Note_on_c, 1, 40, 0
1, 71037, Note_on_c, 1, 52, 0
1, 71040, Note_on_c, 0, 74, 108
1, 71040, Note_on_c, 0, 71, 108
1, 71085, Note_on_c, 0, 71, 0
1, 71085, Note_on_c, 0, 74, 0
1, 71088, Note_on_c, 0, 69, 108
1, 71088, Note_on_c, 0, 72, 108
1, 71133, Note_on_c, 0, 72, 0
1, 71133, Note_on_c, 0, 69, 0
1, 71136, Note_on_c, 0, 69, 108
1, 71136, Note_on_c, 0, 72, 108
1, 71136, Note_on_c, 1, 57, 108
1, 71136, Note_on_c, 1, 45, 108
1, 71229, Note_on_c, 0, 72, 0
1, 71229, Note_on_c, 0, 69, 0
1, 71229, Note_on_c, 1, 45, 0
1, 71229, Note_on_c, 1, 57, 0
1, 71232, Note_on_c, 1, 60, 108
1, 71232, Note_on_c, 1, 48, 108
1, 71325, Note_on_c, 1, 48, 0
1, 71325, Note_on_c, 1, 60, 0
1, 71328, Note_on_c, 0, 72, 108
1, 71328, Note_on_c, 0, 69, 108
1, 71328, Note_on_c, 1, 57, 108
1, 71328, Note_on_c, 1, 45, 108
1, 71421, Note_on_c, 0, 69, 0
1, 71421, Note_on_c, 0, 72, 0
1, 71421, Note_on_c, 1, 45, 0
1, 71421, Note_on_c, 1, 57, 0
1, 71424, Note_on_c, 0, 74, 108
1, 71424, Note_on_c, 0, 71, 108
1, 71469, Note_on_c, 0, 71, 0
1, 71469, Note_on_c, 0, 74, 0
1, 71472, Note_on_c, 0, 69, 108
1, 71472, Note_on_c, 0, 72, 108
1, 71517, Note_on_c, 0, 72, 0
1, 71517, Note_on_c, 0, 69, 0
1, 71520, Note_on_c, 0, 69, 108
1, 71520, Note_on_c, 0, 72, 108
1, 71520, Note_on_c, 1, 53, 108
1, 71520, Note_on_c, 1, 41, 108
1, 71613, Note_on_c, 0, 72, 0
1, 71613, Note_on_c, 0, 69, 0
1, 71613, Note_on_c, 1, 41, 0
1, 71613, Note_on_c, 1, 53, 0
1, 71616, Note_on_c, 1, 57, 108
1, 71616, Note_on_c, 1, 45, 108
1, 71709, Note_on_c, 1, 45, 0
1, 71709, Note_on_c, 1, 57, 0
1, 71712, Note_on_c, 0, 72, 108
1, 71712, Note_on_c, 0, 69, 108
1, 71712, Note_on_c, 1, 53, 108
1, 71712, Note_on_c, 1, 41, 108
1, 71805, Note_on_c, 0, 69, 0
1, 71805, Note_on_c, 0, 72, 0
1, 71805, Note_on_c, 1, 41, 0
1, 71805, Note_on_c, 1, 53, 0
1, 71808, Note_on_c, 0, 74, 108
1, 71808, Note_on_c, 0, 71, 108
1, 71853, Note_on_c, 0, 71, 0
1, 71853, Note_on_c, 0, 74, 0
1, 71856, Note_on_c, 0, 69, 108
1, 71856, Note_on_c, 0, 72, 108
1, 71901, Note_on_c, 0, 72, 0
1, 71901, Note_on_c, 0, 69, 0
1, 71904, Note_on_c, 0, 69, 108
1, 71904, Note_on_c, 0, 72, 108
1, 71904, Note_on_c, 1, 65, 108
1, 71904, Note_on_c, 1, 53, 108
1, 71997, Note_on_c, 0, 72, 0
1, 71997, Note_on_c, 0, 69, 0
1, 71997, Note_on_c, 1, 53, 0
1, 71997, Note_on_c, 1, 65, 0
1, 72000, Note_on_c, 1, 64, 108
1, 72000, Note_on_c, 1, 52, 108
1, 72093, Note_on_c, 1, 52, 0
1, 72093, Note_on_c, 1, 64, 0
1, 72096, Note_on_c, 0, 72, 108
1, 72096, Note_on_c, 0, 69, 108
1, 72096, Note_on_c, 1, 63, 108
1, 72096, Note_on_c, 1, 51, 108
1, 72189, Note_on_c, 0, 69, 0
1, 72189, Note_on_c, 0, 72, 0
1, 72189, Note_on_c, 1, 51, 0
1, 72189, Note_on_c, 1, 63, 0
1, 72192, Note_on_c, 0, 72, 108
1, 72192, Note_on_c, 0, 69, 108
1, 72192, Note_on_c, 1, 64, 108
1, 72192, Note_on_c, 1, 52, 108
1, 72285, Note_on_c, 0, 69, 0
1, 72285, Note_on_c, 0, 72, 0
1, 72288, Note_on_c, 0, 71, 108
1, 72288, Note_on_c, 0, 68, 108
1, 72352, Note_on_c, 1, 52, 0
1, 72352, Note_on_c, 1, 64, 0
1, 72381, Note_on_c, 0, 68, 0
1, 72381, Note_on_c, 0, 71, 0
1, 72576, Note_on_c, 0, 57, 92
1, 72576, Note_on_c, 1, 45, 92
1, 72576, Note_on_c, 1, 33, 92
1, 72609, Note_on_c, 0, 57, 0
1, 72612, Note_on_c, 0, 61, 92
1, 72633, Note_on_c, 0, 61, 0
1, 72636, Note_on_c, 0, 64, 92
1, 72669, Note_on_c, 0, 64, 0
1, 72672, Note_on_c, 0, 61, 92
1, 72705, Note_on_c, 0, 61, 0
1, 72708, Note_on_c, 0, 64, 92
1, 72729, Note_on_c, 0, 64, 0
1, 72732, Note_on_c, 0, 69, 92
1, 72736, Note_on_c, 1, 33, 0
1, 72736, Note_on_c, 1, 45, 0
1, 72765, Note_on_c, 0, 69, 0
1, 72768, Note_on_c, 0, 69, 92
1, 72801, Note_on_c, 0, 69, 0
1, 72804, Note_on_c, 0, 73, 92
1, 72825, Note_on_c, 0, 73, 0
1, 72828, Note_on_c, 0, 76, 92
1, 72861, Note_on_c, 0, 76, 0
1, 72864, Note_on_c, 0, 73, 92
1, 72897, Note_on_c, 0, 73, 0
1, 72900, Note_on_c, 0, 76, 92
1, 72921, Note_on_c, 0, 76, 0
1, 72924, Note_on_c, 0, 81, 92
1, 72957, Note_on_c, 0, 81, 0
1, 72960, Note_on_c, 0, 74, 92
1, 72960, Note_on_c, 0, 71, 92
1, 73056, Note_on_c, 1, 40, 92
1, 73056, Note_on_c, 1, 52, 92
1, 73120, Note_on_c, 0, 71, 0
1, 73120, Note_on_c, 0, 74, 0
1, 73149, Note_on_c, 1, 52, 0
1, 73149, Note_on_c, 1, 40, 0
1, 73152, Note_on_c, 1, 56, 92
1, 73152, Note_on_c, 1, 44, 92
1, 73245, Note_on_c, 1, 44, 0
1, 73245, Note_on_c, 1, 56, 0
1, 73248, Note_on_c, 1, 52, 92
1, 73248, Note_on_c, 1, 40, 92
1, 73341, Note_on_c, 1, 40, 0
1, 73341, Note_on_c, 1, 52, 0
1, 73344, Note_on_c, 0, 64, 75
1, 73344, Note_on_c, 1, 52, 75
1, 73344, Note_on_c, 1, 40, 75
1, 73377, Note_on_c, 0, 64, 0
1, 73380, Note_on_c, 0, 68, 75
1, 73401, Note_on_c, 0, 68, 0
1, 73404, Note_on_c, 0, 71, 75
1, 73437, Note_on_c, 0, 71, 0
1, 73440, Note_on_c, 0, 68, 75
1, 73473, Note_on_c, 0, 68, 0
1, 73476, Note_on_c, 0, 71, 75
1, 73497, Note_on_c, 0, 71, 0
1, 73500, Note_on_c, 0, 74, 75
1, 73504, Note_on_c, 1, 40, 0
1, 73504, Note_on_c, 1, 52, 0
1, 73533, Note_on_c, 0, 74, 0
1, 73536, Note_on_c, 0, 71, 75
1, 73569, Note_on_c, 0, 71, 0
1, 73572, Note_on_c, 0, 74, 75
1, 73593, Note_on_c, 0, 74, 0
1, 73596, Note_on_c, 0, 80, 75
1, 73629, Note_on_c, 0, 80, 0
1, 73632, Note_on_c, 0, 74, 75
1, 73665, Note_on_c, 0, 74, 0
1, 73668, Note_on_c, 0, 80, 75
1, 73689, Note_on_c, 0, 80, 0
1, 73692, Note_on_c, 0, 83, 75
1, 73725, Note_on_c, 0, 83, 0
1, 73728, Note_on_c, 0, 81, 75
1, 73728, Note_on_c, 0, 73, 75
1, 73824, Note_on_c, 1, 45, 75
1, 73824, Note_on_c, 1, 57, 75
1, 73888, Note_on_c, 0, 73, 0
1, 73888, Note_on_c, 0, 81, 0
1, 73917, Note_on_c, 1, 57, 0
1, 73917, Note_on_c, 1, 45, 0
1, 73920, Note_on_c, 1, 61, 75
1, 73920, Note_on_c, 1, 49, 75
1, 74013, Note_on_c, 1, 49, 0
1, 74013, Note_on_c, 1, 61, 0
1, 74016, Note_on_c, 1, 57, 75
1, 74016, Note_on_c, 1, 45, 75
1, 74109, Note_on_c, 1, 45, 0
1, 74109, Note_on_c, 1, 57, 0
1, 74112, Note_on_c, 1, 49, 60
1, 74157, Note_on_c, 1, 49, 0
1, 74160, Note_on_c, 1, 57, 60
1, 74205, Note_on_c, 1, 57, 0
1, 74208, Note_on_c, 0, 69, 60
1, 74208, Note_on_c, 1, 52, 60
1, 74253, Note_on_c, 1, 52, 0
1, 74256, Note_on_c, 1, 57, 60
1, 74301, Note_on_c, 0, 69, 0
1, 74301, Note_on_c, 1, 57, 0
1, 74304, Note_on_c, 0, 73, 60
1, 74304, Note_on_c, 1, 49, 60
1, 74349, Note_on_c, 1, 49, 0
1, 74352, Note_on_c, 1, 57, 60
1, 74397, Note_on_c, 0, 73, 0
1, 74397, Note_on_c, 1, 57, 0
1, 74400, Note_on_c, 0, 76, 60
1, 74400, Note_on_c, 1, 52, 60
1, 74445, Note_on_c, 1, 52, 0
1, 74448, Note_on_c, 1, 57, 60
1, 74493, Note_on_c, 0, 76, 0
1, 74493, Note_on_c, 1, 57, 0
1, 74496, Note_on_c, 0, 66, 60
1, 74496, Note_on_c, 1, 50, 60
1, 74541, Note_on_c, 1, 50, 0
1, 74544, Note_on_c, 1, 57, 60
1, 74589, Note_on_c, 1, 57, 0
1, 74592, Note_on_c, 1, 54, 60
1, 74637, Note_on_c, 1, 54, 0
1, 74640, Note_on_c, 1, 57, 60
1, 74656, Note_on_c, 0, 66, 0
1, 74685, Note_on_c, 1, 57, 0
1, 74688, Note_on_c, 1, 50, 60
1, 74733, Note_on_c, 1, 50, 0
1, 74736, Note_on_c, 1, 57, 60
1, 74781, Note_on_c, 1, 57, 0
1, 74784, Note_on_c, 1, 54, 60
1, 74829, Note_on_c, 1, 54, 0
1, 74832, Note_on_c, 1, 57, 60
1, 74877, Note_on_c, 1, 57, 0
1, 74880, Note_on_c, 1, 52, 60
1, 74925, Note_on_c, 1, 52, 0
1, 74928, Note_on_c, 1, 57, 60
1, 74973, Note_on_c, 1, 57, 0
1, 74976, Note_on_c, 0, 66, 60
1, 74976, Note_on_c, 1, 56, 60
1, 75021, Note_on_c, 1, 56, 0
1, 75024, Note_on_c, 1, 57, 60
1, 75069, Note_on_c, 0, 66, 0
1, 75069, Note_on_c, 1, 57, 0
1, 75072, Note_on_c, 0, 73, 60
1, 75072, Note_on_c, 1, 52, 60
1, 75117, Note_on_c, 1, 52, 0
1, 75120, Note_on_c, 1, 57, 60
1, 75165, Note_on_c, 0, 73, 0
1, 75165, Note_on_c, 1, 57, 0
1, 75168, Note_on_c, 0, 76, 60
1, 75168, Note_on_c, 1, 56, 60
1, 75213, Note_on_c, 1, 56, 0
1, 75216, Note_on_c, 1, 57, 60
1, 75261, Note_on_c, 0, 76, 0
1, 75261, Note_on_c, 1, 57, 0
1, 75264, Note_on_c, 0, 69, 60
1, 75264, Note_on_c, 1, 54, 60
1, 75285, Note_on_c, 0, 69, 0
1, 75288, Note_on_c, 0, 71, 60
1, 75309, Note_on_c, 0, 71, 0
1, 75309, Note_on_c, 1, 54, 0
1, 75312, Note_on_c, 0, 69, 60
1, 75312, Note_on_c, 1, 57, 60
1, 75333, Note_on_c, 0, 69, 0
1, 75336, Note_on_c, 0, 71, 60
1, 75357, Note_on_c, 0, 71, 0
1, 75357, Note_on_c, 1, 57, 0
1, 75360, Note_on_c, 0, 69, 60
1, 75360, Note_on_c, 1, 56, 60
1, 75381, Note_on_c, 0, 69, 0
1, 75384, Note_on_c, 0, 71, 60
1, 75405, Note_on_c, 0, 71, 0
1, 75405, Note_on_c, 1, 56, 0
1, 75408, Note_on_c, 0, 69, 60
1, 75408, Note_on_c, 1, 57, 60
1, 75429, Note_on_c, 0, 69, 0
1, 75432, Note_on_c, 0, 71, 60
1, 75453, Note_on_c, 0, 71, 0
1, 75453, Note_on_c, 1, 57, 0
1, 75456, Note_on_c, 1, 54, 60
1, 75501, Note_on_c, 1, 54, 0
1, 75504, Note_on_c, 1, 57, 60
1, 75549, Note_on_c, 1, 57, 0
1, 75552, Note_on_c, 1, 56, 60
1, 75597, Note_on_c, 1, 56, 0
1, 75600, Note_on_c, 1, 57, 60
1, 75645, Note_on_c, 1, 57, 0
1, 75648, Note_on_c, 1, 49, 75
1, 75693, Note_on_c, 1, 49, 0
1, 75696, Note_on_c, 1, 57, 75
1, 75741, Note_on_c, 1, 57, 0
1, 75744, Note_on_c, 0, 69, 75
1, 75744, Note_on_c, 1, 52, 75
1, 75789, Note_on_c, 1, 52, 0
1, 75792, Note_on_c, 1, 57, 75
1, 75837, Note_on_c, 0, 69, 0
1, 75837, Note_on_c, 1, 57, 0
1, 75840, Note_on_c, 0, 73, 75
1, 75840, Note_on_c, 1, 49, 75
1, 75885, Note_on_c, 1, 49, 0
1, 75888, Note_on_c, 1, 57, 75
1, 75933, Note_on_c, 0, 73, 0
1, 75933, Note_on_c, 1, 57, 0
1, 75936, Note_on_c, 0, 76, 75
1, 75936, Note_on_c, 1, 52, 75
1, 75981, Note_on_c, 1, 52, 0
1, 75984, Note_on_c, 1, 57, 75
1, 76029, Note_on_c, 0, 76, 0
1, 76029, Note_on_c, 1, 57, 0
1, 76032, Note_on_c, 0, 76, 75
1, 76032, Note_on_c, 1, 50, 75
1, 76077, Note_on_c, 1, 50, 0
1, 76080, Note_on_c, 1, 57, 75
1, 76125, Note_on_c, 0, 76, 0
1, 76125, Note_on_c, 1, 57, 0
1, 76128, Note_on_c, 0, 77, 75
1, 76128, Note_on_c, 1, 54, 75
1, 76173, Note_on_c, 1, 54, 0
1, 76176, Note_on_c, 1, 57, 75
1, 76221, Note_on_c, 0, 77, 0
1, 76221, Note_on_c, 1, 57, 0
1, 76224, Note_on_c, 0, 78, 75
1, 76224, Note_on_c, 1, 50, 75
1, 76269, Note_on_c, 1, 50, 0
1, 76272, Note_on_c, 1, 57, 75
1, 76317, Note_on_c, 0, 78, 0
1, 76317, Note_on_c, 1, 57, 0
1, 76320, Note_on_c, 0, 74, 75
1, 76320, Note_on_c, 1, 54, 75
1, 76365, Note_on_c, 1, 54, 0
1, 76368, Note_on_c, 1, 57, 75
1, 76413, Note_on_c, 0, 74, 0
1, 76413, Note_on_c, 1, 57, 0
1, 76416, Note_on_c, 0, 74, 75
1, 76416, Note_on_c, 1, 52, 75
1, 76461, Note_on_c, 0, 74, 0
1, 76461, Note_on_c, 1, 52, 0
1, 76464, Note_on_c, 0, 73, 75
1, 76464, Note_on_c, 1, 61, 75
1, 76509, Note_on_c, 0, 73, 0
1, 76509, Note_on_c, 1, 61, 0
1, 76512, Note_on_c, 0, 71, 75
1, 76512, Note_on_c, 1, 57, 75
1, 76557, Note_on_c, 0, 71, 0
1, 76557, Note_on_c, 1, 57, 0
1, 76560, Note_on_c, 0, 69, 75
1, 76560, Note_on_c, 1, 61, 75
1, 76605, Note_on_c, 0, 69, 0
1, 76605, Note_on_c, 1, 61, 0
1, 76608, Note_on_c, 0, 73, 75
1, 76608, Note_on_c, 1, 52, 75
1, 76653, Note_on_c, 0, 73, 0
1, 76653, Note_on_c, 1, 52, 0
1, 76656, Note_on_c, 0, 71, 75
1, 76656, Note_on_c, 1, 62, 75
1, 76701, Note_on_c, 0, 71, 0
1, 76701, Note_on_c, 1, 62, 0
1, 76704, Note_on_c, 0, 69, 75
1, 76704, Note_on_c, 1, 59, 75
1, 76749, Note_on_c, 0, 69, 0
1, 76749, Note_on_c, 1, 59, 0
1, 76752, Note_on_c, 0, 68, 75
1, 76752, Note_on_c, 1, 62, 75
1, 76797, Note_on_c, 0, 68, 0
1, 76797, Note_on_c, 1, 62, 0
1, 76800, Note_on_c, 0, 69, 75
1, 76800, Note_on_c, 1, 61, 75
1, 76800, Note_on_c, 1, 57, 75
1, 76893, Note_on_c, 0, 69, 0
1, 76896, Note_on_c, 0, 69, 75
1, 76896, Note_on_c, 0, 73, 75
1, 76929, Note_on_c, 0, 73, 0
1, 76929, Note_on_c, 0, 69, 0
1, 76932, Note_on_c, 0, 71, 75
1, 76932, Note_on_c, 0, 74, 75
1, 76953, Note_on_c, 0, 74, 0
1, 76953, Note_on_c, 0, 71, 0
1, 76956, Note_on_c, 0, 73, 75
1, 76956, Note_on_c, 0, 76, 75
1, 76960, Note_on_c, 1, 57, 0
1, 76960, Note_on_c, 1, 61, 0
1, 76989, Note_on_c, 0, 76, 0
1, 76989, Note_on_c, 0, 73, 0
1, 76992, Note_on_c, 0, 74, 75
1, 76992, Note_on_c, 0, 71, 75
1, 77085, Note_on_c, 0, 71, 0
1, 77085, Note_on_c, 0, 74, 0
1, 77088, Note_on_c, 0, 68, 75
1, 77088, Note_on_c, 0, 62, 75
1, 77088, Note_on_c, 1, 52, 75
1, 77088, Note_on_c, 1, 40, 75
1, 77181, Note_on_c, 0, 62, 0
1, 77181, Note_on_c, 0, 68, 0
1, 77181, Note_on_c, 1, 40, 0
1, 77181, Note_on_c, 1, 52, 0
1, 77184, Note_on_c, 0, 69, 75
1, 77184, Note_on_c, 1, 45, 75
1, 77277, Note_on_c, 0, 69, 0
1, 77280, Note_on_c, 0, 57, 45
1, 77280, Note_on_c, 0, 61, 45
1, 77313, Note_on_c, 0, 61, 0
1, 77313, Note_on_c, 0, 57, 0
1, 77316, Note_on_c, 0, 59, 45
1, 77316, Note_on_c, 0, 62, 45
1, 77337, Note_on_c, 0, 62, 0
1, 77337, Note_on_c, 0, 59, 0
1, 77340, Note_on_c, 0, 61, 45
1, 77340, Note_on_c, 0, 64, 45
1, 77344, Note_on_c, 1, 45, 0
1, 77373, Note_on_c, 0, 64, 0
1, 77373, Note_on_c, 0, 61, 0
1, 77376, Note_on_c, 0, 62, 45
1, 77376, Note_on_c, 0, 59, 45
1, 77469, Note_on_c, 0, 59, 0
1, 77469, Note_on_c, 0, 62, 0
1, 77472, Note_on_c, 0, 59, 45
1, 77472, Note_on_c, 0, 56, 45
1, 77472, Note_on_c, 1, 52, 45
1, 77472, Note_on_c, 1, 40, 45
1, 77565, Note_on_c, 0, 56, 0
1, 77565, Note_on_c, 0, 59, 0
1, 77565, Note_on_c, 1, 40, 0
1, 77565, Note_on_c, 1, 52, 0
1, 77568, Note_on_c, 0, 57, 45
1, 77568, Note_on_c, 1, 45, 45
1, 77568, Note_on_c, 1, 33, 45
1, 77728, Note_on_c, 0, 57, 0
1, 77728, Note_on_c, 1, 33, 0
1, 77728, Note_on_c, 1, 45, 0
1, 77952, Note_on_c, 0, 64, 75
1, 77952, Note_on_c, 1, 56, 75
1, 77952, Note_on_c, 1, 52, 75
1, 77997, Note_on_c, 0, 64, 0
1, 78000, Note_on_c, 0, 66, 75
1, 78045, Note_on_c, 0, 66, 0
1, 78045, Note_on_c, 1, 52, 0
1, 78045, Note_on_c, 1, 56, 0
1, 78048, Note_on_c, 0, 68, 75
1, 78048, Note_on_c, 1, 56, 75
1, 78048, Note_on_c, 1, 52, 75
1, 78093, Note_on_c, 0, 68, 0
1, 78096, Note_on_c, 0, 69, 75
1, 78141, Note_on_c, 0, 69, 0
1, 78141, Note_on_c, 1, 52, 0
1, 78141, Note_on_c, 1, 56, 0
1, 78144, Note_on_c, 0, 71, 75
1, 78144, Note_on_c, 1, 56, 75
1, 78144, Note_on_c, 1, 52, 75
1, 78189, Note_on_c, 0, 71, 0
1, 78192, Note_on_c, 0, 73, 75
1, 78237, Note_on_c, 0, 73, 0
1, 78237, Note_on_c, 1, 52, 0
1, 78237, Note_on_c, 1, 56, 0
1, 78240, Note_on_c, 0, 75, 75
1, 78240, Note_on_c, 1, 56, 75
1, 78240, Note_on_c, 1, 52, 75
1, 78285, Note_on_c, 0, 75, 0
1, 78288, Note_on_c, 0, 76, 75
1, 78333, Note_on_c, 0, 76, 0
1, 78333, Note_on_c, 1, 52, 0
1, 78333, Note_on_c, 1, 56, 0
1, 78336, Note_on_c, 0, 73, 75
1, 78336, Note_on_c, 1, 57, 75
1, 78336, Note_on_c, 1, 52, 75
1, 78357, Note_on_c, 0, 73, 0
1, 78360, Note_on_c, 0, 75, 75
1, 78381, Note_on_c, 0, 75, 0
1, 78384, Note_on_c, 0, 73, 75
1, 78405, Note_on_c, 0, 73, 0
1, 78408, Note_on_c, 0, 75, 75
1, 78429, Note_on_c, 0, 75, 0
1, 78429, Note_on_c, 1, 52, 0
1, 78429, Note_on_c, 1, 57, 0
1, 78432, Note_on_c, 0, 71, 75
1, 78432, Note_on_c, 1, 56, 75
1, 78432, Note_on_c, 1, 52, 75
1, 78525, Note_on_c, 0, 71, 0
1, 78525, Note_on_c, 1, 52, 0
1, 78525, Note_on_c, 1, 56, 0
1, 78528, Note_on_c, 1, 56, 75
1, 78528, Note_on_c, 1, 52, 75
1, 78621, Note_on_c, 1, 52, 0
1, 78621, Note_on_c, 1, 56, 0
1, 78624, Note_on_c, 0, 76, 75
1, 78624, Note_on_c, 1, 56, 75
1, 78624, Note_on_c, 1, 52, 75
1, 78645, Note_on_c, 0, 76, 0
1, 78648, Note_on_c, 0, 78, 75
1, 78669, Note_on_c, 0, 78, 0
1, 78672, Note_on_c, 0, 76, 75
1, 78693, Note_on_c, 0, 76, 0
1, 78696, Note_on_c, 0, 78, 75
1, 78717, Note_on_c, 0, 78, 0
1, 78717, Note_on_c, 1, 52, 0
1, 78717, Note_on_c, 1, 56, 0
1, 78720, Note_on_c, 0, 75, 75
1, 78753, Note_on_c, 0, 75, 0
1, 78756, Note_on_c, 0, 76, 75
1, 78777, Note_on_c, 0, 76, 0
1, 78780, Note_on_c, 0, 78, 75
1, 78813, Note_on_c, 0, 78, 0
1, 78816, Note_on_c, 0, 69, 75
1, 78816, Note_on_c, 1, 47, 75
1, 78816, Note_on_c, 1, 54, 75
1, 78909, Note_on_c, 0, 69, 0
1, 78909, Note_on_c, 1, 54, 0
1, 78909, Note_on_c, 1, 47, 0
1, 78912, Note_on_c, 0, 68, 75
1, 78912, Note_on_c, 1, 52, 75
1, 78912, Note_on_c, 1, 47, 75
1, 79005, Note_on_c, 0, 68, 0
1, 79005, Note_on_c, 1, 47, 0
1, 79005, Note_on_c, 1, 52, 0
1, 79008, Note_on_c, 0, 66, 75
1, 79008, Note_on_c, 1, 51, 75
1, 79008, Note_on_c, 1, 47, 75
1, 79101, Note_on_c, 0, 66, 0
1, 79101, Note_on_c, 1, 47, 0
1, 79101, Note_on_c, 1, 51, 0
1, 79104, Note_on_c, 0, 68, 60
1, 79137, Note_on_c, 0, 68, 0
1, 79140, Note_on_c, 0, 69, 60
1, 79161, Note_on_c, 0, 69, 0
1, 79164, Note_on_c, 0, 71, 60
1, 79197, Note_on_c, 0, 71, 0
1, 79200, Note_on_c, 0, 64, 60
1, 79200, Note_on_c, 1, 52, 60
1, 79200, Note_on_c, 1, 56, 60
1, 79293, Note_on_c, 0, 64, 0
1, 79293, Note_on_c, 1, 56, 0
1, 79293, Note_on_c, 1, 52, 0
1, 79296, Note_on_c, 1, 59, 60
1, 79296, Note_on_c, 1, 56, 60
1, 79389, Note_on_c, 1, 56, 0
1, 79389, Note_on_c, 1, 59, 0
1, 79392, Note_on_c, 0, 76, 45
1, 79392, Note_on_c, 1, 56, 45
1, 79392, Note_on_c, 1, 52, 45
1, 79413, Note_on_c, 0, 76, 0
1, 79416, Note_on_c, 0, 75, 45
1, 79437, Note_on_c, 0, 75, 0
1, 79440, Note_on_c, 0, 76, 45
1, 79461, Note_on_c, 0, 76, 0
1, 79464, Note_on_c, 0, 75, 45
1, 79485, Note_on_c, 0, 75, 0
1, 79485, Note_on_c, 1, 52, 0
1, 79485, Note_on_c, 1, 56, 0
1, 79488, Note_on_c, 0, 75, 45
1, 79521, Note_on_c, 0, 75, 0
1, 79524, Note_on_c, 0, 76, 45
1, 79545, Note_on_c, 0, 76, 0
1, 79548, Note_on_c, 0, 78, 45
1, 79581, Note_on_c, 0, 78, 0
1, 79584, Note_on_c, 0, 69, 45
1, 79584, Note_on_c, 1, 47, 45
1, 79584, Note_on_c, 1, 54, 45
1, 79677, Note_on_c, 0, 69, 0
1, 79677, Note_on_c, 1, 54, 0
1, 79677, Note_on_c, 1, 47, 0
1, 79680, Note_on_c, 0, 68, 45
1, 79680, Note_on_c, 1, 52, 45
1, 79680, Note_on_c, 1, 47, 45
1, 79701, Note_on_c, 0, 68, 0
1, 79704, Note_on_c, 0, 69, 45
1, 79725, Note_on_c, 0, 69, 0
1, 79728, Note_on_c, 0, 68, 45
1, 79749, Note_on_c, 0, 68, 0
1, 79752, Note_on_c, 0, 69, 45
1, 79773, Note_on_c, 0, 69, 0
1, 79773, Note_on_c, 1, 47, 0
1, 79773, Note_on_c, 1, 52, 0
1, 79776, Note_on_c, 0, 66, 45
1, 79776, Note_on_c, 1, 51, 45
1, 79776, Note_on_c, 1, 47, 45
1, 79869, Note_on_c, 0, 66, 0
1, 79869, Note_on_c, 1, 47, 0
1, 79869, Note_on_c, 1, 51, 0
1, 79872, Note_on_c, 0, 68, 45
1, 79905, Note_on_c, 0, 68, 0
1, 79908, Note_on_c, 0, 69, 45
1, 79929, Note_on_c, 0, 69, 0
1, 79932, Note_on_c, 0, 71, 45
1, 79965, Note_on_c, 0, 71, 0
1, 79968, Note_on_c, 0, 64, 45
1, 79968, Note_on_c, 1, 56, 45
1, 79968, Note_on_c, 1, 52, 45
1, 80061, Note_on_c, 0, 64, 0
1, 80061, Note_on_c, 1, 52, 0
1, 80061, Note_on_c, 1, 56, 0
1, 80064, Note_on_c, 1, 59, 45
1, 80064, Note_on_c, 1, 56, 45
1, 80157, Note_on_c, 1, 56, 0
1, 80157, Note_on_c, 1, 59, 0
1, 80160, Note_on_c, 1, 56, 45
1, 80160, Note_on_c, 1, 52, 45
1, 80253, Note_on_c, 1, 52, 0
1, 80253, Note_on_c, 1, 56, 0
1, 80256, Note_on_c, 0, 70, 92
1, 80256, Note_on_c, 0, 79, 92
1, 80352, Note_on_c, 1, 52, 92
1, 80352, Note_on_c, 1, 64, 92
1, 80416, Note_on_c, 0, 79, 0
1, 80416, Note_on_c, 0, 70, 0
1, 80445, Note_on_c, 1, 64, 0
1, 80445, Note_on_c, 1, 52, 0
1, 80448, Note_on_c, 0, 79, 92
1, 80448, Note_on_c, 1, 62, 92
1, 80448, Note_on_c, 1, 50, 92
1, 80493, Note_on_c, 0, 79, 0
1, 80496, Note_on_c, 0, 78, 92
1, 80541, Note_on_c, 0, 78, 0
1, 80541, Note_on_c, 1, 50, 0
1, 80541, Note_on_c, 1, 62, 0
1, 80544, Note_on_c, 0, 78, 92
1, 80544, Note_on_c, 1, 61, 92
1, 80544, Note_on_c, 1, 49, 92
1, 80589, Note_on_c, 0, 78, 0
1, 80592, Note_on_c, 0, 76, 92
1, 80637, Note_on_c, 0, 76, 0
1, 80637, Note_on_c, 1, 49, 0
1, 80637, Note_on_c, 1, 61, 0
1, 80640, Note_on_c, 0, 76, 92
1, 80640, Note_on_c, 1, 59, 92
1, 80640, Note_on_c, 1, 47, 92
1, 80685, Note_on_c, 0, 76, 0
1, 80688, Note_on_c, 0, 74, 92
1, 80733, Note_on_c, 0, 74, 0
1, 80733, Note_on_c, 1, 47, 0
1, 80733, Note_on_c, 1, 59, 0
1, 80736, Note_on_c, 0, 74, 92
1, 80736, Note_on_c, 1, 58, 92
1, 80736, Note_on_c, 1, 46, 92
1, 80781, Note_on_c, 0, 74, 0
1, 80784, Note_on_c, 0, 73, 92
1, 80829, Note_on_c, 0, 73, 0
1, 80829, Note_on_c, 1, 46, 0
1, 80829, Note_on_c, 1, 58, 0
1, 80832, Note_on_c, 0, 74, 92
1, 80832, Note_on_c, 1, 59, 92
1, 80832, Note_on_c, 1, 47, 92
1, 80992, Note_on_c, 0, 74, 0
1, 80992, Note_on_c, 1, 47, 0
1, 80992, Note_on_c, 1, 59, 0
1, 81024, Note_on_c, 0, 78, 75
1, 81120, Note_on_c, 1, 50, 75
1, 81120, Note_on_c, 1, 62, 75
1, 81184, Note_on_c, 0, 78, 0
1, 81213, Note_on_c, 1, 62, 0
1, 81213, Note_on_c, 1, 50, 0
1, 81216, Note_on_c, 0, 78, 75
1, 81216, Note_on_c, 1, 61, 75
1, 81216, Note_on_c, 1, 49, 75
1, 81261, Note_on_c, 0, 78, 0
1, 81264, Note_on_c, 0, 76, 75
1, 81309, Note_on_c, 0, 76, 0
1, 81309, Note_on_c, 1, 49, 0
1, 81309, Note_on_c, 1, 61, 0
1, 81312, Note_on_c, 0, 76, 75
1, 81312, Note_on_c, 1, 59, 75
1, 81312, Note_on_c, 1, 47, 75
1, 81357, Note_on_c, 0, 76, 0
1, 81360, Note_on_c, 0, 74, 75
1, 81405, Note_on_c, 0, 74, 0
1, 81405, Note_on_c, 1, 47, 0
1, 81405, Note_on_c, 1, 59, 0
1, 81408, Note_on_c, 0, 74, 75
1, 81408, Note_on_c, 1, 57, 75
1, 81408, Note_on_c, 1, 45, 75
1, 81453, Note_on_c, 0, 74, 0
1, 81456, Note_on_c, 0, 73, 75
1, 81501, Note_on_c, 0, 73, 0
1, 81501, Note_on_c, 1, 45, 0
1, 81501, Note_on_c, 1, 57, 0
1, 81504, Note_on_c, 0, 73, 75
1, 81504, Note_on_c, 1, 56, 75
1, 81504, Note_on_c, 1, 44, 75
1, 81549, Note_on_c, 0, 73, 0
1, 81552, Note_on_c, 0, 71, 75
1, 81597, Note_on_c, 0, 71, 0
1, 81597, Note_on_c, 1, 44, 0
1, 81597, Note_on_c, 1, 56, 0
1, 81600, Note_on_c, 0, 73, 75
1, 81600, Note_on_c, 1, 57, 75
1, 81600, Note_on_c, 1, 45, 75
1, 81760, Note_on_c, 0, 73, 0
1, 81760, Note_on_c, 1, 45, 0
1, 81760, Note_on_c, 1, 57, 0
1, 81792, Note_on_c, 0, 80, 92
1, 81792, Note_on_c, 1, 52, 92
1, 81792, Note_on_c, 1, 40, 92
1, 81825, Note_on_c, 0, 80, 0
1, 81828, Note_on_c, 0, 83, 92
1, 81849, Note_on_c, 0, 83, 0
1, 81852, Note_on_c, 0, 80, 92
1, 81885, Note_on_c, 0, 80, 0
1, 81888, Note_on_c, 0, 74, 92
1, 81921, Note_on_c, 0, 74, 0
1, 81924, Note_on_c, 0, 80, 92
1, 81945, Note_on_c, 0, 80, 0
1, 81948, Note_on_c, 0, 74, 92
1, 81952, Note_on_c, 1, 40, 0
1, 81952, Note_on_c, 1, 52, 0
1, 81981, Note_on_c, 0, 74, 0
1, 81984, Note_on_c, 0, 71, 92
1, 82017, Note_on_c, 0, 71, 0
1, 82020, Note_on_c, 0, 74, 92
1, 82041, Note_on_c, 0, 74, 0
1, 82044, Note_on_c, 0, 71, 92
1, 82077, Note_on_c, 0, 71, 0
1, 82080, Note_on_c, 0, 68, 92
1, 82113, Note_on_c, 0, 68, 0
1, 82116, Note_on_c, 0, 71, 92
1, 82137, Note_on_c, 0, 71, 0
1, 82140, Note_on_c, 0, 68, 92
1, 82173, Note_on_c, 0, 68, 0
1, 82176, Note_on_c, 1, 52, 75
1, 82224, Note_on_c, 0, 64, 75
1, 82269, Note_on_c, 0, 64, 0
1, 82269, Note_on_c, 1, 52, 0
1, 82272, Note_on_c, 0, 74, 75
1, 82272, Note_on_c, 1, 59, 75
1, 82317, Note_on_c, 0, 74, 0
1, 82320, Note_on_c, 0, 64, 75
1, 82365, Note_on_c, 0, 64, 0
1, 82365, Note_on_c, 1, 59, 0
1, 82368, Note_on_c, 0, 73, 75
1, 82368, Note_on_c, 1, 57, 75
1, 82413, Note_on_c, 0, 73, 0
1, 82416, Note_on_c, 0, 64, 75
1, 82461, Note_on_c, 0, 64, 0
1, 82461, Note_on_c, 1, 57, 0
1, 82464, Note_on_c, 0, 71, 75
1, 82464, Note_on_c, 1, 56, 75
1, 82509, Note_on_c, 0, 71, 0
1, 82512, Note_on_c, 0, 64, 75
1, 82557, Note_on_c, 0, 64, 0
1, 82557, Note_on_c, 1, 56, 0
1, 82560, Note_on_c, 0, 81, 92
1, 82560, Note_on_c, 1, 57, 92
1, 82560, Note_on_c, 1, 52, 92
1, 82593, Note_on_c, 0, 81, 0
1, 82596, Note_on_c, 0, 85, 92
1, 82617, Note_on_c, 0, 85, 0
1, 82620, Note_on_c, 0, 81, 92
1, 82653, Note_on_c, 0, 81, 0
1, 82656, Note_on_c, 0, 76, 92
1, 82689, Note_on_c, 0, 76, 0
1, 82692, Note_on_c, 0, 81, 92
1, 82713, Note_on_c, 0, 81, 0
1, 82716, Note_on_c, 0, 76, 92
1, 82720, Note_on_c, 1, 52, 0
1, 82720, Note_on_c, 1, 57, 0
1, 82749, Note_on_c, 0, 76, 0
1, 82752, Note_on_c, 0, 73, 92
1, 82785, Note_on_c, 0, 73, 0
1, 82788, Note_on_c, 0, 76, 92
1, 82809, Note_on_c, 0, 76, 0
1, 82812, Note_on_c, 0, 73, 92
1, 82845, Note_on_c, 0, 73, 0
1, 82848, Note_on_c, 0, 69, 92
1, 82881, Note_on_c, 0, 69, 0
1, 82884, Note_on_c, 0, 73, 92
1, 82905, Note_on_c, 0, 73, 0
1, 82908, Note_on_c, 0, 69, 92
1, 82941, Note_on_c, 0, 69, 0
1, 82944, Note_on_c, 1, 52, 75
1, 82992, Note_on_c, 0, 64, 75
1, 83037, Note_on_c, 0, 64, 0
1, 83037, Note_on_c, 1, 52, 0
1, 83040, Note_on_c, 0, 76, 75
1, 83040, Note_on_c, 1, 61, 75
1, 83085, Note_on_c, 0, 76, 0
1, 83088, Note_on_c, 0, 64, 75
1, 83133, Note_on_c, 0, 64, 0
1, 83133, Note_on_c, 1, 61, 0
1, 83136, Note_on_c, 0, 74, 75
1, 83136, Note_on_c, 1, 59, 75
1, 83181, Note_on_c, 0, 74, 0
1, 83184, Note_on_c, 0, 64, 75
1, 83229, Note_on_c, 0, 64, 0
1, 83229, Note_on_c, 1, 59, 0
1, 83232, Note_on_c, 0, 73, 75
1, 83232, Note_on_c, 1, 57, 75
1, 83277, Note_on_c, 0, 73, 0
1, 83280, Note_on_c, 0, 64, 75
1, 83325, Note_on_c, 0, 64, 0
1, 83325, Note_on_c, 1, 57, 0
1, 83328, Note_on_c, 0, 81, 92
1, 83349, Note_on_c, 0, 81, 0
1, 83352, Note_on_c, 0, 80, 92
1, 83373, Note_on_c, 0, 80, 0
1, 83376, Note_on_c, 0, 78, 92
1, 83397, Note_on_c, 0, 78, 0
1, 83400, Note_on_c, 0, 76, 92
1, 83421, Note_on_c, 0, 76, 0
1, 83424, Note_on_c, 0, 75, 92
1, 83424, Note_on_c, 1, 69, 75
1, 83424, Note_on_c, 1, 66, 75
1, 83517, Note_on_c, 1, 66, 0
1, 83517, Note_on_c, 1, 69, 0
1, 83520, Note_on_c, 1, 69, 75
1, 83520, Note_on_c, 1, 66, 75
1, 83613, Note_on_c, 1, 66, 0
1, 83613, Note_on_c, 1, 69, 0
1, 83616, Note_on_c, 1, 69, 75
1, 83616, Note_on_c, 1, 66, 75
1, 83649, Note_on_c, 0, 75, 0
1, 83709, Note_on_c, 1, 66, 0
1, 83709, Note_on_c, 1, 69, 0
1, 83712, Note_on_c, 0, 83, 92
1, 83733, Note_on_c, 0, 83, 0
1, 83736, Note_on_c, 0, 81, 92
1, 83757, Note_on_c, 0, 81, 0
1, 83760, Note_on_c, 0, 80, 92
1, 83781, Note_on_c, 0, 80, 0
1, 83784, Note_on_c, 0, 78, 92
1, 83805, Note_on_c, 0, 78, 0
1, 83808, Note_on_c, 0, 76, 92
1, 83808, Note_on_c, 1, 71, 75
1, 83808, Note_on_c, 1, 68, 75
1, 83901, Note_on_c, 1, 68, 0
1, 83901, Note_on_c, 1, 71, 0
1, 83904, Note_on_c, 1, 71, 75
1, 83904, Note_on_c, 1, 68, 75
1, 83997, Note_on_c, 1, 68, 0
1, 83997, Note_on_c, 1, 71, 0
1, 84000, Note_on_c, 1, 71, 75
1, 84000, Note_on_c, 1, 68, 75
1, 84033, Note_on_c, 0, 76, 0
1, 84093, Note_on_c, 1, 68, 0
1, 84093, Note_on_c, 1, 71, 0
1, 84096, Note_on_c, 1, 69, 45
1, 84144, Note_on_c, 0, 85, 45
1, 84189, Note_on_c, 0, 85, 0
1, 84189, Note_on_c, 1, 69, 0
1, 84192, Note_on_c, 0, 85, 45
1, 84192, Note_on_c, 1, 64, 45
1, 84213, Note_on_c, 0, 85, 0
1, 84216, Note_on_c, 0, 86, 45
1, 84237, Note_on_c, 0, 86, 0
1, 84240, Note_on_c, 0, 83, 45
1, 84261, Note_on_c, 0, 83, 0
1, 84264, Note_on_c, 0, 85, 45
1, 84285, Note_on_c, 0, 85, 0
1, 84285, Note_on_c, 1, 64, 0
1, 84288, Note_on_c, 0, 86, 45
1, 84288, Note_on_c, 1, 71, 45
1, 84357, Note_on_c, 0, 86, 0
1, 84381, Note_on_c, 1, 71, 0
1, 84384, Note_on_c, 1, 64, 45
1, 84477, Note_on_c, 1, 64, 0
1, 84480, Note_on_c, 1, 69, 45
1, 84528, Note_on_c, 0, 83, 45
1, 84573, Note_on_c, 0, 83, 0
1, 84573, Note_on_c, 1, 69, 0
1, 84576, Note_on_c, 0, 83, 45
1, 84576, Note_on_c, 1, 64, 45
1, 84597, Note_on_c, 0, 83, 0
1, 84600, Note_on_c, 0, 85, 45
1, 84621, Note_on_c, 0, 85, 0
1, 84624, Note_on_c, 0, 81, 45
1, 84645, Note_on_c, 0, 81, 0
1, 84648, Note_on_c, 0, 83, 45
1, 84669, Note_on_c, 0, 83, 0
1, 84669, Note_on_c, 1, 64, 0
1, 84672, Note_on_c, 0, 85, 45
1, 84672, Note_on_c, 1, 69, 45
1, 84741, Note_on_c, 0, 85, 0
1, 84765, Note_on_c, 1, 69, 0
1, 84768, Note_on_c, 1, 64, 45
1, 84861, Note_on_c, 1, 64, 0
1, 84864, Note_on_c, 1, 69, 75
1, 84912, Note_on_c, 0, 85, 75
1, 84957, Note_on_c, 0, 85, 0
1, 84957, Note_on_c, 1, 69, 0
1, 84960, Note_on_c, 0, 85, 75
1, 84960, Note_on_c, 1, 64, 75
1, 84981, Note_on_c, 0, 85, 0
1, 84984, Note_on_c, 0, 86, 75
1, 85005, Note_on_c, 0, 86, 0
1, 85008, Note_on_c, 0, 83, 75
1, 85029, Note_on_c, 0, 83, 0
1, 85032, Note_on_c, 0, 85, 75
1, 85053, Note_on_c, 0, 85, 0
1, 85053, Note_on_c, 1, 64, 0
1, 85056, Note_on_c, 0, 86, 75
1, 85056, Note_on_c, 1, 71, 75
1, 85125, Note_on_c, 0, 86, 0
1, 85149, Note_on_c, 1, 71, 0
1, 85152, Note_on_c, 1, 64, 75
1, 85245, Note_on_c, 1, 64, 0
1, 85248, Note_on_c, 1, 68, 75
1, 85296, Note_on_c, 0, 83, 75
1, 85341, Note_on_c, 0, 83, 0
1, 85341, Note_on_c, 1, 68, 0
1, 85344, Note_on_c, 0, 83, 75
1, 85344, Note_on_c, 1, 64, 75
1, 85365, Note_on_c, 0, 83, 0
1, 85368, Note_on_c, 0, 85, 75
1, 85389, Note_on_c, 0, 85, 0
1, 85392, Note_on_c, 0, 81, 75
1, 85413, Note_on_c, 0, 81, 0
1, 85416, Note_on_c, 0, 83, 75
1, 85437, Note_on_c, 0, 83, 0
1, 85437, Note_on_c, 1, 64, 0
1, 85440, Note_on_c, 0, 85, 75
1, 85440, Note_on_c, 1, 69, 75
1, 85485, Note_on_c, 0, 85, 0
1, 85488, Note_on_c, 0, 81, 75
1, 85533, Note_on_c, 0, 81, 0
1, 85533, Note_on_c, 1, 69, 0
1, 85536, Note_on_c, 0, 81, 75
1, 85536, Note_on_c, 1, 66, 75
1, 85557, Note_on_c, 0, 81, 0
1, 85560, Note_on_c, 0, 83, 75
1, 85581, Note_on_c, 0, 83, 0
1, 85584, Note_on_c, 0, 80, 75
1, 85605, Note_on_c, 0, 80, 0
1, 85608, Note_on_c, 0, 81, 75
1, 85629, Note_on_c, 0, 81, 0
1, 85629, Note_on_c, 1, 66, 0
1, 85632, Note_on_c, 0, 83, 75
1, 85632, Note_on_c, 1, 68, 75
1, 85677, Note_on_c, 0, 83, 0
1, 85680, Note_on_c, 0, 80, 75
1, 85725, Note_on_c, 0, 80, 0
1, 85725, Note_on_c, 1, 68, 0
1, 85728, Note_on_c, 0, 80, 75
1, 85728, Note_on_c, 1, 65, 75
1, 85749, Note_on_c, 0, 80, 0
1, 85752, Note_on_c, 0, 81, 75
1, 85773, Note_on_c, 0, 81, 0
1, 85776, Note_on_c, 0, 78, 75
1, 85797, Note_on_c, 0, 78, 0
1, 85800, Note_on_c, 0, 80, 75
1, 85821, Note_on_c, 0, 80, 0
1, 85821, Note_on_c, 1, 65, 0
1, 85824, Note_on_c, 0, 81, 75
1, 85824, Note_on_c, 1, 66, 75
1, 85869, Note_on_c, 0, 81, 0
1, 85872, Note_on_c, 0, 78, 75
1, 85917, Note_on_c, 0, 78, 0
1, 85917, Note_on_c, 1, 66, 0
1, 85920, Note_on_c, 0, 78, 75
1, 85920, Note_on_c, 1, 60, 75
1, 85941, Note_on_c, 0, 78, 0
1, 85944, Note_on_c, 0, 80, 75
1, 85965, Note_on_c, 0, 80, 0
1, 85968, Note_on_c, 0, 77, 75
1, 85989, Note_on_c, 0, 77, 0
1, 85992, Note_on_c, 0, 78, 75
1, 86013, Note_on_c, 0, 78, 0
1, 86013, Note_on_c, 1, 60, 0
1, 86016, Note_on_c, 0, 77, 75
1, 86016, Note_on_c, 1, 61, 75
1, 86049, Note_on_c, 0, 77, 0
1, 86052, Note_on_c, 0, 78, 75
1, 86073, Note_on_c, 0, 78, 0
1, 86076, Note_on_c, 0, 80, 75
1, 86109, Note_on_c, 0, 80, 0
1, 86112, Note_on_c, 0, 73, 75
1, 86176, Note_on_c, 1, 61, 0
1, 86265, Note_on_c, 0, 73, 0
1, 86400, Note_on_c, 0, 80, 92
1, 86400, Note_on_c, 1, 61, 92
1, 86400, Note_on_c, 1, 49, 92
1, 86433, Note_on_c, 0, 80, 0
1, 86436, Note_on_c, 0, 85, 92
1, 86457, Note_on_c, 0, 85, 0
1, 86460, Note_on_c, 0, 80, 92
1, 86493, Note_on_c, 0, 80, 0
1, 86496, Note_on_c, 0, 77, 92
1, 86529, Note_on_c, 0, 77, 0
1, 86532, Note_on_c, 0, 80, 92
1, 86553, Note_on_c, 0, 80, 0
1, 86556, Note_on_c, 0, 77, 92
1, 86560, Note_on_c, 1, 49, 0
1, 86560, Note_on_c, 1, 61, 0
1, 86589, Note_on_c, 0, 77, 0
1, 86592, Note_on_c, 0, 73, 92
1, 86625, Note_on_c, 0, 73, 0
1, 86628, Note_on_c, 0, 77, 92
1, 86649, Note_on_c, 0, 77, 0
1, 86652, Note_on_c, 0, 73, 92
1, 86685, Note_on_c, 0, 73, 0
1, 86688, Note_on_c, 0, 68, 92
1, 86721, Note_on_c, 0, 68, 0
1, 86724, Note_on_c, 0, 73, 92
1, 86745, Note_on_c, 0, 73, 0
1, 86748, Note_on_c, 0, 68, 92
1, 86781, Note_on_c, 0, 68, 0
1, 86784, Note_on_c, 1, 61, 75
1, 86832, Note_on_c, 0, 73, 75
1, 86877, Note_on_c, 0, 73, 0
1, 86877, Note_on_c, 1, 61, 0
1, 86880, Note_on_c, 0, 83, 75
1, 86880, Note_on_c, 1, 68, 75
1, 86925, Note_on_c, 0, 83, 0
1, 86928, Note_on_c, 0, 73, 75
1, 86973, Note_on_c, 0, 73, 0
1, 86973, Note_on_c, 1, 68, 0
1, 86976, Note_on_c, 0, 81, 75
1, 86976, Note_on_c, 1, 66, 75
1, 87021, Note_on_c, 0, 81, 0
1, 87024, Note_on_c, 0, 73, 75
1, 87069, Note_on_c, 0, 73, 0
1, 87069, Note_on_c, 1, 66, 0
1, 87072, Note_on_c, 0, 80, 75
1, 87072, Note_on_c, 1, 65, 75
1, 87117, Note_on_c, 0, 80, 0
1, 87120, Note_on_c, 0, 73, 75
1, 87165, Note_on_c, 0, 73, 0
1, 87165, Note_on_c, 1, 65, 0
1, 87168, Note_on_c, 0, 81, 75
1, 87168, Note_on_c, 1, 66, 75
1, 87168, Note_on_c, 1, 61, 75
1, 87201, Note_on_c, 0, 81, 0
1, 87204, Note_on_c, 0, 85, 75
1, 87225, Note_on_c, 0, 85, 0
1, 87228, Note_on_c, 0, 81, 75
1, 87261, Note_on_c, 0, 81, 0
1, 87264, Note_on_c, 0, 78, 75
1, 87297, Note_on_c, 0, 78, 0
1, 87300, Note_on_c, 0, 81, 75
1, 87321, Note_on_c, 0, 81, 0
1, 87324, Note_on_c, 0, 78, 75
1, 87328, Note_on_c, 1, 61, 0
1, 87328, Note_on_c, 1, 66, 0
1, 87357, Note_on_c, 0, 78, 0
1, 87360, Note_on_c, 0, 73, 75
1, 87393, Note_on_c, 0, 73, 0
1, 87396, Note_on_c, 0, 78, 75
1, 87417, Note_on_c, 0, 78, 0
1, 87420, Note_on_c, 0, 73, 75
1, 87453, Note_on_c, 0, 73, 0
1, 87456, Note_on_c, 0, 69, 75
1, 87489, Note_on_c, 0, 69, 0
1, 87492, Note_on_c, 0, 73, 75
1, 87513, Note_on_c, 0, 73, 0
1, 87516, Note_on_c, 0, 69, 75
1, 87549, Note_on_c, 0, 69, 0
1, 87552, Note_on_c, 1, 61, 75
1, 87600, Note_on_c, 0, 73, 75
1, 87645, Note_on_c, 0, 73, 0
1, 87645, Note_on_c, 1, 61, 0
1, 87648, Note_on_c, 0, 85, 75
1, 87648, Note_on_c, 1, 69, 75
1, 87693, Note_on_c, 0, 85, 0
1, 87696, Note_on_c, 0, 73, 75
1, 87741, Note_on_c, 0, 73, 0
1, 87741, Note_on_c, 1, 69, 0
1, 87744, Note_on_c, 0, 83, 75
1, 87744, Note_on_c, 1, 68, 75
1, 87789, Note_on_c, 0, 83, 0
1, 87792, Note_on_c, 0, 73, 75
1, 87837, Note_on_c, 0, 73, 0
1, 87837, Note_on_c, 1, 68, 0
1, 87840, Note_on_c, 0, 81, 75
1, 87840, Note_on_c, 1, 66, 75
1, 87885, Note_on_c, 0, 81, 0
1, 87888, Note_on_c, 0, 73, 75
1, 87933, Note_on_c, 0, 73, 0
1, 87933, Note_on_c, 1, 66, 0
1, 87936, Note_on_c, 0, 73, 75
1, 87936, Note_on_c, 1, 54, 75
1, 87936, Note_on_c, 1, 42, 75
1, 87969, Note_on_c, 0, 73, 0
1, 87972, Note_on_c, 0, 78, 75
1, 87993, Note_on_c, 0, 78, 0
1, 87996, Note_on_c, 0, 73, 75
1, 88029, Note_on_c, 0, 73, 0
1, 88032, Note_on_c, 0, 70, 75
1, 88065, Note_on_c, 0, 70, 0
1, 88068, Note_on_c, 0, 73, 75
1, 88089, Note_on_c, 0, 73, 0
1, 88092, Note_on_c, 0, 70, 75
1, 88096, Note_on_c, 1, 42, 0
1, 88096, Note_on_c, 1, 54, 0
1, 88125, Note_on_c, 0, 70, 0
1, 88128, Note_on_c, 0, 66, 75
1, 88161, Note_on_c, 0, 66, 0
1, 88164, Note_on_c, 0, 70, 75
1, 88185, Note_on_c, 0, 70, 0
1, 88188, Note_on_c, 0, 66, 75
1, 88221, Note_on_c, 0, 66, 0
1, 88224, Note_on_c, 0, 61, 75
1, 88257, Note_on_c, 0, 61, 0
1, 88260, Note_on_c, 0, 66, 75
1, 88281, Note_on_c, 0, 66, 0
1, 88284, Note_on_c, 0, 61, 75
1, 88317, Note_on_c, 0, 61, 0
1, 88320, Note_on_c, 1, 54, 75
1, 88368, Note_on_c, 0, 66, 75
1, 88413, Note_on_c, 0, 66, 0
1, 88413, Note_on_c, 1, 54, 0
1, 88416, Note_on_c, 0, 76, 75
1, 88416, Note_on_c, 1, 61, 75
1, 88461, Note_on_c, 0, 76, 0
1, 88464, Note_on_c, 0, 66, 75
1, 88509, Note_on_c, 0, 66, 0
1, 88509, Note_on_c, 1, 61, 0
1, 88512, Note_on_c, 0, 74, 75
1, 88512, Note_on_c, 1, 59, 75
1, 88557, Note_on_c, 0, 74, 0
1, 88560, Note_on_c, 0, 66, 75
1, 88605, Note_on_c, 0, 66, 0
1, 88605, Note_on_c, 1, 59, 0
1, 88608, Note_on_c, 0, 73, 75
1, 88608, Note_on_c, 1, 58, 75
1, 88653, Note_on_c, 0, 73, 0
1, 88656, Note_on_c, 0, 66, 75
1, 88701, Note_on_c, 0, 66, 0
1, 88701, Note_on_c, 1, 58, 0
1, 88704, Note_on_c, 0, 74, 75
1, 88704, Note_on_c, 1, 59, 75
1, 88704, Note_on_c, 1, 54, 75
1, 88737, Note_on_c, 0, 74, 0
1, 88740, Note_on_c, 0, 78, 75
1, 88761, Note_on_c, 0, 78, 0
1, 88764, Note_on_c, 0, 74, 75
1, 88797, Note_on_c, 0, 74, 0
1, 88800, Note_on_c, 0, 71, 75
1, 88833, Note_on_c, 0, 71, 0
1, 88836, Note_on_c, 0, 74, 75
1, 88857, Note_on_c, 0, 74, 0
1, 88860, Note_on_c, 0, 71, 75
1, 88864, Note_on_c, 1, 54, 0
1, 88864, Note_on_c, 1, 59, 0
1, 88893, Note_on_c, 0, 71, 0
1, 88896, Note_on_c, 0, 66, 75
1, 88929, Note_on_c, 0, 66, 0
1, 88932, Note_on_c, 0, 71, 75
1, 88953, Note_on_c, 0, 71, 0
1, 88956, Note_on_c, 0, 66, 75
1, 88989, Note_on_c, 0, 66, 0
1, 88992, Note_on_c, 0, 62, 75
1, 89025, Note_on_c, 0, 62, 0
1, 89028, Note_on_c, 0, 66, 75
1, 89049, Note_on_c, 0, 66, 0
1, 89052, Note_on_c, 0, 62, 75
1, 89085, Note_on_c, 0, 62, 0
1, 89088, Note_on_c, 1, 54, 75
1, 89136, Note_on_c, 0, 66, 75
1, 89181, Note_on_c, 0, 66, 0
1, 89181, Note_on_c, 1, 54, 0
1, 89184, Note_on_c, 0, 78, 75
1, 89184, Note_on_c, 1, 62, 75
1, 89229, Note_on_c, 0, 78, 0
1, 89232, Note_on_c, 0, 66, 75
1, 89277, Note_on_c, 0, 66, 0
1, 89277, Note_on_c, 1, 62, 0
1, 89280, Note_on_c, 0, 76, 75
1, 89280, Note_on_c, 1, 61, 75
1, 89325, Note_on_c, 0, 76, 0
1, 89328, Note_on_c, 0, 66, 75
1, 89373, Note_on_c, 0, 66, 0
1, 89373, Note_on_c, 1, 61, 0
1, 89376, Note_on_c, 0, 74, 75
1, 89376, Note_on_c, 1, 59, 75
1, 89421, Note_on_c, 0, 74, 0
1, 89424, Note_on_c, 0, 66, 75
1, 89469, Note_on_c, 0, 66, 0
1, 89469, Note_on_c, 1, 59, 0
1, 89472, Note_on_c, 0, 78, 92
1, 89472, Note_on_c, 1, 47, 92
1, 89472, Note_on_c, 1, 35, 92
1, 89505, Note_on_c, 0, 78, 0
1, 89508, Note_on_c, 0, 83, 92
1, 89529, Note_on_c, 0, 83, 0
1, 89532, Note_on_c, 0, 78, 92
1, 89565, Note_on_c, 0, 78, 0
1, 89568, Note_on_c, 0, 75, 92
1, 89601, Note_on_c, 0, 75, 0
1, 89604, Note_on_c, 0, 78, 92
1, 89625, Note_on_c, 0, 78, 0
1, 89628, Note_on_c, 0, 75, 92
1, 89632, Note_on_c, 1, 35, 0
1, 89632, Note_on_c, 1, 47, 0
1, 89661, Note_on_c, 0, 75, 0
1, 89664, Note_on_c, 0, 71, 92
1, 89697, Note_on_c, 0, 71, 0
1, 89700, Note_on_c, 0, 75, 92
1, 89721, Note_on_c, 0, 75, 0
1, 89724, Note_on_c, 0, 71, 92
1, 89757, Note_on_c, 0, 71, 0
1, 89760, Note_on_c, 0, 66, 92
1, 89793, Note_on_c, 0, 66, 0
1, 89796, Note_on_c, 0, 71, 92
1, 89817, Note_on_c, 0, 71, 0
1, 89820, Note_on_c, 0, 66, 92
1, 89853, Note_on_c, 0, 66, 0
1, 89856, Note_on_c, 1, 59, 75
1, 89904, Note_on_c, 0, 71, 75
1, 89949, Note_on_c, 0, 71, 0
1, 89949, Note_on_c, 1, 59, 0
1, 89952, Note_on_c, 0, 81, 75
1, 89952, Note_on_c, 1, 66, 75
1, 89997, Note_on_c, 0, 81, 0
1, 90000, Note_on_c, 0, 71, 75
1, 90045, Note_on_c, 0, 71, 0
1, 90045, Note_on_c, 1, 66, 0
1, 90048, Note_on_c, 0, 79, 75
1, 90048, Note_on_c, 1, 64, 75
1, 90093, Note_on_c, 0, 79, 0
1, 90096, Note_on_c, 0, 71, 75
1, 90141, Note_on_c, 0, 71, 0
1, 90141, Note_on_c, 1, 64, 0
1, 90144, Note_on_c, 0, 78, 75
1, 90144, Note_on_c, 1, 63, 75
1, 90189, Note_on_c, 0, 78, 0
1, 90192, Note_on_c, 0, 71, 75
1, 90237, Note_on_c, 0, 71, 0
1, 90237, Note_on_c, 1, 63, 0
1, 90240, Note_on_c, 0, 80, 75
1, 90240, Note_on_c, 1, 64, 75
1, 90240, Note_on_c, 1, 59, 75
1, 90273, Note_on_c, 0, 80, 0
1, 90276, Note_on_c, 0, 83, 75
1, 90297, Note_on_c, 0, 83, 0
1, 90300, Note_on_c, 0, 80, 75
1, 90333, Note_on_c, 0, 80, 0
1, 90336, Note_on_c, 0, 76, 75
1, 90369, Note_on_c, 0, 76, 0
1, 90372, Note_on_c, 0, 80, 75
1, 90393, Note_on_c, 0, 80, 0
1, 90396, Note_on_c, 0, 76, 75
1, 90400, Note_on_c, 1, 59, 0
1, 90400, Note_on_c, 1, 64, 0
1, 90429, Note_on_c, 0, 76, 0
1, 90432, Note_on_c, 0, 71, 75
1, 90465, Note_on_c, 0, 71, 0
1, 90468, Note_on_c, 0, 76, 75
1, 90489, Note_on_c, 0, 76, 0
1, 90492, Note_on_c, 0, 71, 75
1, 90525, Note_on_c, 0, 71, 0
1, 90528, Note_on_c, 0, 68, 75
1, 90561, Note_on_c, 0, 68, 0
1, 90564, Note_on_c, 0, 71, 75
1, 90585, Note_on_c, 0, 71, 0
1, 90588, Note_on_c, 0, 68, 75
1, 90621, Note_on_c, 0, 68, 0
1, 90624, Note_on_c, 1, 59, 75
1, 90672, Note_on_c, 0, 71, 75
1, 90717, Note_on_c, 0, 71, 0
1, 90717, Note_on_c, 1, 59, 0
1, 90720, Note_on_c, 0, 83, 75
1, 90720, Note_on_c, 1, 68, 75
1, 90765, Note_on_c, 0, 83, 0
1, 90768, Note_on_c, 0, 71, 75
1, 90813, Note_on_c, 0, 71, 0
1, 90813, Note_on_c, 1, 68, 0
1, 90816, Note_on_c, 0, 81, 75
1, 90816, Note_on_c, 1, 66, 75
1, 90861, Note_on_c, 0, 81, 0
1, 90864, Note_on_c, 0, 71, 75
1, 90909, Note_on_c, 0, 71, 0
1, 90909, Note_on_c, 1, 66, 0
1, 90912, Note_on_c, 0, 80, 75
1, 90912, Note_on_c, 1, 64, 75
1, 90957, Note_on_c, 0, 80, 0
1, 90960, Note_on_c, 0, 71, 75
1, 91005, Note_on_c, 0, 71, 0
1, 91005, Note_on_c, 1, 64, 0
1, 91008, Note_on_c, 0, 71, 75
1, 91008, Note_on_c, 1, 52, 75
1, 91008, Note_on_c, 1, 40, 75
1, 91041, Note_on_c, 0, 71, 0
1, 91044, Note_on_c, 0, 76, 75
1, 91065, Note_on_c, 0, 76, 0
1, 91068, Note_on_c, 0, 71, 75
1, 91101, Note_on_c, 0, 71, 0
1, 91104, Note_on_c, 0, 68, 75
1, 91137, Note_on_c, 0, 68, 0
1, 91140, Note_on_c, 0, 71, 75
1, 91161, Note_on_c, 0, 71, 0
1, 91164, Note_on_c, 0, 68, 75
1, 91168, Note_on_c, 1, 40, 0
1, 91168, Note_on_c, 1, 52, 0
1, 91197, Note_on_c, 0, 68, 0
1, 91200, Note_on_c, 0, 64, 75
1, 91233, Note_on_c, 0, 64, 0
1, 91236, Note_on_c, 0, 68, 75
1, 91257, Note_on_c, 0, 68, 0
1, 91260, Note_on_c, 0, 64, 75
1, 91293, Note_on_c, 0, 64, 0
1, 91296, Note_on_c, 0, 59, 75
1, 91329, Note_on_c, 0, 59, 0
1, 91332, Note_on_c, 0, 64, 75
1, 91353, Note_on_c, 0, 64, 0
1, 91356, Note_on_c, 0, 59, 75
1, 91389, Note_on_c, 0, 59, 0
1, 91392, Note_on_c, 1, 52, 75
1, 91440, Note_on_c, 0, 64, 75
1, 91485, Note_on_c, 0, 64, 0
1, 91485, Note_on_c, 1, 52, 0
1, 91488, Note_on_c, 0, 74, 75
1, 91488, Note_on_c, 1, 59, 75
1, 91533, Note_on_c, 0, 74, 0
1, 91536, Note_on_c, 0, 64, 75
1, 91581, Note_on_c, 0, 64, 0
1, 91581, Note_on_c, 1, 59, 0
1, 91584, Note_on_c, 0, 73, 75
1, 91584, Note_on_c, 1, 57, 75
1, 91629, Note_on_c, 0, 73, 0
1, 91632, Note_on_c, 0, 64, 75
1, 91677, Note_on_c, 0, 64, 0
1, 91677, Note_on_c, 1, 57, 0
1, 91680, Note_on_c, 0, 71, 75
1, 91680, Note_on_c, 1, 56, 75
1, 91725, Note_on_c, 0, 71, 0
1, 91728, Note_on_c, 0, 64, 75
1, 91773, Note_on_c, 0, 64, 0
1, 91773, Note_on_c, 1, 56, 0
1, 91776, Note_on_c, 0, 73, 75
1, 91776, Note_on_c, 1, 57, 75
1, 91776, Note_on_c, 1, 52, 75
1, 91809, Note_on_c, 0, 73, 0
1, 91812, Note_on_c, 0, 76, 75
1, 91833, Note_on_c, 0, 76, 0
1, 91836, Note_on_c, 0, 73, 75
1, 91869, Note_on_c, 0, 73, 0
1, 91872, Note_on_c, 0, 69, 75
1, 91905, Note_on_c, 0, 69, 0
1, 91908, Note_on_c, 0, 73, 75
1, 91929, Note_on_c, 0, 73, 0
1, 91932, Note_on_c, 0, 69, 75
1, 91936, Note_on_c, 1, 52, 0
1, 91936, Note_on_c, 1, 57, 0
1, 91965, Note_on_c, 0, 69, 0
1, 91968, Note_on_c, 0, 64, 75
1, 92001, Note_on_c, 0, 64, 0
1, 92004, Note_on_c, 0, 69, 75
1, 92025, Note_on_c, 0, 69, 0
1, 92028, Note_on_c, 0, 64, 75
1, 92061, Note_on_c, 0, 64, 0
1, 92064, Note_on_c, 0, 61, 75
1, 92097, Note_on_c, 0, 61, 0
1, 92100, Note_on_c, 0, 64, 75
1, 92121, Note_on_c, 0, 64, 0
1, 92124, Note_on_c, 0, 61, 75
1, 92157, Note_on_c, 0, 61, 0
1, 92160, Note_on_c, 1, 52, 75
1, 92208, Note_on_c, 0, 64, 75
1, 92253, Note_on_c, 0, 64, 0
1, 92253, Note_on_c, 1, 52, 0
1, 92256, Note_on_c, 0, 76, 75
1, 92256, Note_on_c, 1, 61, 75
1, 92301, Note_on_c, 0, 76, 0
1, 92304, Note_on_c, 0, 64, 75
1, 92349, Note_on_c, 0, 64, 0
1, 92349, Note_on_c, 1, 61, 0
1, 92352, Note_on_c, 0, 74, 75
1, 92352, Note_on_c, 1, 59, 75
1, 92397, Note_on_c, 0, 74, 0
1, 92400, Note_on_c, 0, 64, 75
1, 92445, Note_on_c, 0, 64, 0
1, 92445, Note_on_c, 1, 59, 0
1, 92448, Note_on_c, 0, 73, 75
1, 92448, Note_on_c, 1, 57, 75
1, 92493, Note_on_c, 0, 73, 0
1, 92496, Note_on_c, 0, 64, 75
1, 92541, Note_on_c, 0, 64, 0
1, 92541, Note_on_c, 1, 57, 0
1, 92544, Note_on_c, 1, 62, 75
1, 92589, Note_on_c, 1, 62, 0
1, 92592, Note_on_c, 1, 69, 75
1, 92637, Note_on_c, 1, 69, 0
1, 92640, Note_on_c, 0, 78, 75
1, 92640, Note_on_c, 1, 66, 75
1, 92661, Note_on_c, 0, 78, 0
1, 92664, Note_on_c, 0, 80, 75
1, 92685, Note_on_c, 0, 80, 0
1, 92685, Note_on_c, 1, 66, 0
1, 92688, Note_on_c, 0, 78, 75
1, 92688, Note_on_c, 1, 69, 75
1, 92709, Note_on_c, 0, 78, 0
1, 92712, Note_on_c, 0, 80, 75
1, 92733, Note_on_c, 0, 80, 0
1, 92733, Note_on_c, 1, 69, 0
1, 92736, Note_on_c, 0, 76, 75
1, 92736, Note_on_c, 1, 61, 75
1, 92781, Note_on_c, 1, 61, 0
1, 92784, Note_on_c, 1, 69, 75
1, 92829, Note_on_c, 0, 76, 0
1, 92829, Note_on_c, 1, 69, 0
1, 92832, Note_on_c, 0, 81, 75
1, 92832, Note_on_c, 1, 64, 75
1, 92877, Note_on_c, 1, 64, 0
1, 92880, Note_on_c, 1, 69, 75
1, 92925, Note_on_c, 0, 81, 0
1, 92925, Note_on_c, 1, 69, 0
1, 92928, Note_on_c, 1, 59, 75
1, 92973, Note_on_c, 1, 59, 0
1, 92976, Note_on_c, 1, 68, 75
1, 93021, Note_on_c, 1, 68, 0
1, 93024, Note_on_c, 0, 86, 75
1, 93024, Note_on_c, 1, 62, 75
1, 93069, Note_on_c, 1, 62, 0
1, 93072, Note_on_c, 1, 68, 75
1, 93117, Note_on_c, 0, 86, 0
1, 93117, Note_on_c, 1, 68, 0
1, 93120, Note_on_c, 0, 85, 75
1, 93120, Note_on_c, 1, 57, 75
1, 93141, Note_on_c, 0, 85, 0
1, 93144, Note_on_c, 0, 86, 75
1, 93165, Note_on_c, 0, 86, 0
1, 93165, Note_on_c, 1, 57, 0
1, 93168, Note_on_c, 0, 85, 75
1, 93168, Note_on_c, 1, 64, 75
1, 93189, Note_on_c, 0, 85, 0
1, 93192, Note_on_c, 0, 86, 75
1, 93213, Note_on_c, 0, 86, 0
1, 93213, Note_on_c, 1, 64, 0
1, 93216, Note_on_c, 0, 81, 75
1, 93216, Note_on_c, 1, 61, 75
1, 93261, Note_on_c, 1, 61, 0
1, 93264, Note_on_c, 1, 64, 75
1, 93309, Note_on_c, 0, 81, 0
1, 93309, Note_on_c, 1, 64, 0
1, 93312, Note_on_c, 1, 62, 45
1, 93357, Note_on_c, 1, 62, 0
1, 93360, Note_on_c, 1, 69, 45
1, 93405, Note_on_c, 1, 69, 0
1, 93408, Note_on_c, 0, 78, 45
1, 93408, Note_on_c, 1, 66, 45
1, 93429, Note_on_c, 0, 78, 0
1, 93432, Note_on_c, 0, 80, 45
1, 93453, Note_on_c, 0, 80, 0
1, 93453, Note_on_c, 1, 66, 0
1, 93456, Note_on_c, 0, 78, 45
1, 93456, Note_on_c, 1, 69, 45
1, 93477, Note_on_c, 0, 78, 0
1, 93480, Note_on_c, 0, 80, 45
1, 93501, Note_on_c, 0, 80, 0
1, 93501, Note_on_c, 1, 69, 0
1, 93504, Note_on_c, 0, 76, 45
1, 93504, Note_on_c, 1, 61, 45
1, 93549, Note_on_c, 1, 61, 0
1, 93552, Note_on_c, 1, 69, 45
1, 93597, Note_on_c, 0, 76, 0
1, 93597, Note_on_c, 1, 69, 0
1, 93600, Note_on_c, 0, 81, 45
1, 93600, Note_on_c, 1, 64, 45
1, 93645, Note_on_c, 1, 64, 0
1, 93648, Note_on_c, 1, 69, 45
1, 93693, Note_on_c, 0, 81, 0
1, 93693, Note_on_c, 1, 69, 0
1, 93696, Note_on_c, 1, 59, 45
1, 93741, Note_on_c, 1, 59, 0
1, 93744, Note_on_c, 1, 68, 46
1, 93789, Note_on_c, 1, 68, 0
1, 93792, Note_on_c, 0, 86, 46
1, 93792, Note_on_c, 1, 62, 47
1, 93837, Note_on_c, 1, 62, 0
1, 93840, Note_on_c, 1, 68, 48
1, 93885, Note_on_c, 0, 86, 0
1, 93885, Note_on_c, 1, 68, 0
1, 93888, Note_on_c, 0, 85, 47
1, 93888, Note_on_c, 1, 57, 49
1, 93909, Note_on_c, 0, 85, 0
1, 93912, Note_on_c, 0, 86, 48
1, 93933, Note_on_c, 0, 86, 0
1, 93933, Note_on_c, 1, 57, 0
1, 93936, Note_on_c, 0, 85, 49
1, 93936, Note_on_c, 1, 64, 50
1, 93957, Note_on_c, 0, 85, 0
1, 93960, Note_on_c, 0, 86, 50
1, 93981, Note_on_c, 0, 86, 0
1, 93981, Note_on_c, 1, 64, 0
1, 93984, Note_on_c, 0, 81, 51
1, 93984, Note_on_c, 1, 61, 51
1, 94029, Note_on_c, 1, 61, 0
1, 94032, Note_on_c, 1, 64, 52
1, 94077, Note_on_c, 0, 81, 0
1, 94077, Note_on_c, 1, 64, 0
1, 94080, Note_on_c, 1, 52, 53
1, 94125, Note_on_c, 1, 52, 0
1, 94128, Note_on_c, 1, 64, 54
1, 94173, Note_on_c, 1, 64, 0
1, 94176, Note_on_c, 0, 76, 53
1, 94176, Note_on_c, 1, 56, 55
1, 94221, Note_on_c, 1, 56, 0
1, 94224, Note_on_c, 1, 64, 56
1, 94269, Note_on_c, 0, 76, 0
1, 94269, Note_on_c, 1, 64, 0
1, 94272, Note_on_c, 0, 76, 54
1, 94272, Note_on_c, 1, 52, 57
1, 94317, Note_on_c, 1, 52, 0
1, 94320, Note_on_c, 1, 64, 58
1, 94365, Note_on_c, 0, 76, 0
1, 94365, Note_on_c, 1, 64, 0
1, 94368, Note_on_c, 0, 76, 55
1, 94368, Note_on_c, 1, 56, 59
1, 94413, Note_on_c, 1, 56, 0
1, 94416, Note_on_c, 1, 64, 60
1, 94461, Note_on_c, 0, 76, 0
1, 94461, Note_on_c, 1, 64, 0
1, 94464, Note_on_c, 1, 52, 61
1, 94509, Note_on_c, 1, 52, 0
1, 94512, Note_on_c, 1, 64, 62
1, 94557, Note_on_c, 1, 64, 0
1, 94560, Note_on_c, 0, 76, 57
1, 94560, Note_on_c, 0, 78, 57
1, 94560, Note_on_c, 1, 57, 63
1, 94605, Note_on_c, 1, 57, 0
1, 94608, Note_on_c, 1, 64, 64
1, 94653, Note_on_c, 0, 78, 0
1, 94653, Note_on_c, 0, 76, 0
1, 94653, Note_on_c, 1, 64, 0
1, 94656, Note_on_c, 0, 78, 58
1, 94656, Note_on_c, 0, 76, 58
1, 94656, Note_on_c, 1, 52, 65
1, 94701, Note_on_c, 1, 52, 0
1, 94704, Note_on_c, 1, 64, 66
1, 94749, Note_on_c, 0, 76, 0
1, 94749, Note_on_c, 0, 78, 0
1, 94749, Note_on_c, 1, 64, 0
1, 94752, Note_on_c, 0, 78, 59
1, 94752, Note_on_c, 0, 76, 59
1, 94752, Note_on_c, 1, 57, 67
1, 94797, Note_on_c, 1, 57, 0
1, 94800, Note_on_c, 1, 64, 68
1, 94845, Note_on_c, 0, 76, 0
1, 94845, Note_on_c, 0, 78, 0
1, 94845, Note_on_c, 1, 64, 0
1, 94848, Note_on_c, 1, 52, 69
1, 94893, Note_on_c, 1, 52, 0
1, 94896, Note_on_c, 1, 64, 70
1, 94941, Note_on_c, 1, 64, 0
1, 94944, Note_on_c, 0, 74, 61
1, 94944, Note_on_c, 0, 78, 61
1, 94944, Note_on_c, 1, 59, 71
1, 94989, Note_on_c, 1, 59, 0
1, 94992, Note_on_c, 1, 64, 72
1, 95037, Note_on_c, 0, 78, 0
1, 95037, Note_on_c, 0, 74, 0
1, 95037, Note_on_c, 1, 64, 0
1, 95040, Note_on_c, 0, 78, 62
1, 95040, Note_on_c, 0, 74, 62
1, 95040, Note_on_c, 1, 52, 73
1, 95085, Note_on_c, 1, 52, 0
1, 95088, Note_on_c, 1, 64, 74
1, 95133, Note_on_c, 0, 74, 0
1, 95133, Note_on_c, 0, 78, 0
1, 95133, Note_on_c, 1, 64, 0
1, 95136, Note_on_c, 0, 78, 63
1, 95136, Note_on_c, 0, 74, 63
1, 95136, Note_on_c, 1, 59, 75
1, 95181, Note_on_c, 1, 59, 0
1, 95184, Note_on_c, 1, 64, 76
1, 95229, Note_on_c, 0, 74, 0
1, 95229, Note_on_c, 0, 78, 0
1, 95229, Note_on_c, 1, 64, 0
1, 95232, Note_on_c, 1, 52, 77
1, 95277, Note_on_c, 1, 52, 0
1, 95280, Note_on_c, 1, 64, 78
1, 95325, Note_on_c, 1, 64, 0
1, 95328, Note_on_c, 0, 74, 65
1, 95328, Note_on_c, 0, 80, 65
1, 95328, Note_on_c, 1, 59, 79
1, 95373, Note_on_c, 1, 59, 0
1, 95376, Note_on_c, 1, 64, 80
1, 95421, Note_on_c, 0, 80, 0
1, 95421, Note_on_c, 0, 74, 0
1, 95421, Note_on_c, 1, 64, 0
1, 95424, Note_on_c, 0, 80, 66
1, 95424, Note_on_c, 0, 74, 66
1, 95424, Note_on_c, 1, 52, 81
1, 95469, Note_on_c, 1, 52, 0
1, 95472, Note_on_c, 1, 64, 82
1, 95517, Note_on_c, 0, 74, 0
1, 95517, Note_on_c, 0, 80, 0
1, 95517, Note_on_c, 1, 64, 0
1, 95520, Note_on_c, 0, 80, 67
1, 95520, Note_on_c, 0, 74, 67
1, 95520, Note_on_c, 1, 59, 83
1, 95565, Note_on_c, 1, 59, 0
1, 95568, Note_on_c, 1, 64, 84
1, 95613, Note_on_c, 0, 74, 0
1, 95613, Note_on_c, 0, 80, 0
1, 95613, Note_on_c, 1, 64, 0
1, 95616, Note_on_c, 0, 81, 127
1, 95616, Note_on_c, 0, 76, 127
1, 95616, Note_on_c, 0, 73, 127
1, 95616, Note_on_c, 1, 57, 127
1, 95661, Note_on_c, 1, 57, 0
1, 95664, Note_on_c, 1, 64, 127
1, 95709, Note_on_c, 1, 64, 0
1, 95712, Note_on_c, 1, 61, 127
1, 95757, Note_on_c, 1, 61, 0
1, 95760, Note_on_c, 1, 64, 127
1, 95776, Note_on_c, 0, 73, 0
1, 95776, Note_on_c, 0, 76, 0
1, 95776, Note_on_c, 0, 81, 0
1, 95805, Note_on_c, 1, 64, 0
1, 95808, Note_on_c, 0, 86, 127
1, 95808, Note_on_c, 0, 83, 127
1, 95808, Note_on_c, 0, 80, 127
1, 95808, Note_on_c, 0, 76, 127
1, 95808, Note_on_c, 1, 56, 127
1, 95853, Note_on_c, 1, 56, 0
1, 95856, Note_on_c, 1, 64, 127
1, 95901, Note_on_c, 1, 64, 0
1, 95904, Note_on_c, 1, 59, 127
1, 95949, Note_on_c, 1, 59, 0
1, 95952, Note_on_c, 1, 64, 127
1, 95968, Note_on_c, 0, 76, 0
1, 95968, Note_on_c, 0, 80, 0
1, 95968, Note_on_c, 0, 83, 0
1, 95968, Note_on_c, 0, 86, 0
1, 95997, Note_on_c, 1, 64, 0
1, 96000, Note_on_c, 0, 85, 127
1, 96000, Note_on_c, 0, 81, 127
1, 96000, Note_on_c, 0, 76, 127
1, 96000, Note_on_c, 1, 57, 127
1, 96045, Note_on_c, 1, 57, 0
1, 96048, Note_on_c, 1, 64, 127
1, 96093, Note_on_c, 1, 64, 0
1, 96096, Note_on_c, 1, 61, 127
1, 96141, Note_on_c, 1, 61, 0
1, 96144, Note_on_c, 1, 64, 127
1, 96160, Note_on_c, 0, 76, 0
1, 96160, Note_on_c, 0, 81, 0
1, 96160, Note_on_c, 0, 85, 0
1, 96189, Note_on_c, 1, 64, 0
1, 96192, Note_on_c, 0, 83, 127
1, 96192, Note_on_c, 0, 80, 127
1, 96192, Note_on_c, 0, 74, 127
1, 96192, Note_on_c, 1, 59, 127
1, 96237, Note_on_c, 1, 59, 0
1, 96240, Note_on_c, 1, 64, 127
1, 96285, Note_on_c, 1, 64, 0
1, 96288, Note_on_c, 1, 62, 127
1, 96333, Note_on_c, 1, 62, 0
1, 96336, Note_on_c, 1, 64, 127
1, 96352, Note_on_c, 0, 74, 0
1, 96352, Note_on_c, 0, 80, 0
1, 96352, Note_on_c, 0, 83, 0
1, 96381, Note_on_c, 1, 64, 0
1, 96384, Note_on_c, 0, 81, 92
1, 96384, Note_on_c, 0, 76, 92
1, 96384, Note_on_c, 0, 73, 92
1, 96384, Note_on_c, 1, 57, 92
1, 96429, Note_on_c, 1, 57, 0
1, 96432, Note_on_c, 1, 64, 92
1, 96477, Note_on_c, 1, 64, 0
1, 96480, Note_on_c, 1, 61, 92
1, 96525, Note_on_c, 1, 61, 0
1, 96528, Note_on_c, 1, 64, 92
1, 96544, Note_on_c, 0, 73, 0
1, 96544, Note_on_c, 0, 76, 0
1, 96544, Note_on_c, 0, 81, 0
1, 96573, Note_on_c, 1, 64, 0
1, 96576, Note_on_c, 0, 86, 92
1, 96576, Note_on_c, 0, 83, 92
1, 96576, Note_on_c, 0, 80, 92
1, 96576, Note_on_c, 0, 76, 92
1, 96576, Note_on_c, 1, 56, 92
1, 96621, Note_on_c, 1, 56, 0
1, 96624, Note_on_c, 1, 64, 92
1, 96669, Note_on_c, 1, 64, 0
1, 96672, Note_on_c, 1, 59, 92
1, 96717, Note_on_c, 1, 59, 0
1, 96720, Note_on_c, 1, 64, 92
1, 96736, Note_on_c, 0, 76, 0
1, 96736, Note_on_c, 0, 80, 0
1, 96736, Note_on_c, 0, 83, 0
1, 96736, Note_on_c, 0, 86, 0
1, 96765, Note_on_c, 1, 64, 0
1, 96768, Note_on_c, 0, 85, 92
1, 96768, Note_on_c, 0, 81, 92
1, 96768, Note_on_c, 0, 76, 92
1, 96768, Note_on_c, 1, 57, 92
1, 96813, Note_on_c, 1, 57, 0
1, 96816, Note_on_c, 1, 64, 92
1, 96861, Note_on_c, 1, 64, 0
1, 96864, Note_on_c, 1, 61, 92
1, 96909, Note_on_c, 1, 61, 0
1, 96912, Note_on_c, 1, 64, 92
1, 96928, Note_on_c, 0, 76, 0
1, 96928, Note_on_c, 0, 81, 0
1, 96928, Note_on_c, 0, 85, 0
1, 96957, Note_on_c, 1, 64, 0
1, 96960, Note_on_c, 0, 83, 92
1, 96960, Note_on_c, 0, 80, 92
1, 96960, Note_on_c, 0, 74, 92
1, 96960, Note_on_c, 1, 59, 92
1, 97005, Note_on_c, 1, 59, 0
1, 97008, Note_on_c, 1, 64, 92
1, 97053, Note_on_c, 1, 64, 0
1, 97056, Note_on_c, 1, 62, 92
1, 97101, Note_on_c, 1, 62, 0
1, 97104, Note_on_c, 1, 64, 92
1, 97120, Note_on_c, 0, 74, 0
1, 97120, Note_on_c, 0, 80, 0
1, 97120, Note_on_c, 0, 83, 0
1, 97149, Note_on_c, 1, 64, 0
1, 97152, Note_on_c, 0, 81, 75
1, 97152, Note_on_c, 1, 61, 75
1, 97197, Note_on_c, 0, 81, 0
1, 97200, Note_on_c, 0, 85, 75
1, 97245, Note_on_c, 0, 85, 0
1, 97248, Note_on_c, 0, 76, 75
1, 97293, Note_on_c, 0, 76, 0
1, 97296, Note_on_c, 0, 81, 75
1, 97312, Note_on_c, 1, 61, 0
1, 97341, Note_on_c, 0, 81, 0
1, 97344, Note_on_c, 0, 73, 75
1, 97389, Note_on_c, 0, 73, 0
1, 97392, Note_on_c, 0, 76, 75
1, 97437, Note_on_c, 0, 76, 0
1, 97440, Note_on_c, 0, 69, 75
1, 97485, Note_on_c, 0, 69, 0
1, 97488, Note_on_c, 0, 73, 75
1, 97533, Note_on_c, 0, 73, 0
1, 97536, Note_on_c, 0, 78, 75
1, 97536, Note_on_c, 1, 62, 75
1, 97581, Note_on_c, 0, 78, 0
1, 97584, Note_on_c, 0, 81, 75
1, 97629, Note_on_c, 0, 81, 0
1, 97632, Note_on_c, 0, 74, 75
1, 97677, Note_on_c, 0, 74, 0
1, 97680, Note_on_c, 0, 78, 75
1, 97696, Note_on_c, 1, 62, 0
1, 97725, Note_on_c, 0, 78, 0
1, 97728, Note_on_c, 0, 71, 75
1, 97773, Note_on_c, 0, 71, 0
1, 97776, Note_on_c, 0, 74, 75
1, 97821, Note_on_c, 0, 74, 0
1, 97824, Note_on_c, 0, 66, 75
1, 97869, Note_on_c, 0, 66, 0
1, 97872, Note_on_c, 0, 71, 75
1, 97917, Note_on_c, 0, 71, 0
1, 97920, Note_on_c, 0, 69, 75
1, 97920, Note_on_c, 1, 61, 75
1, 97920, Note_on_c, 1, 52, 75
1, 98013, Note_on_c, 1, 52, 0
1, 98013, Note_on_c, 1, 61, 0
1, 98016, Note_on_c, 1, 52, 75
1, 98016, Note_on_c, 1, 61, 75
1, 98080, Note_on_c, 0, 69, 0
1, 98109, Note_on_c, 1, 61, 0
1, 98109, Note_on_c, 1, 52, 0
1, 98112, Note_on_c, 0, 68, 75
1, 98112, Note_on_c, 1, 59, 75
1, 98112, Note_on_c, 1, 52, 75
1, 98133, Note_on_c, 0, 68, 0
1, 98136, Note_on_c, 0, 69, 75
1, 98157, Note_on_c, 0, 69, 0
1, 98160, Note_on_c, 0, 68, 75
1, 98181, Note_on_c, 0, 68, 0
1, 98184, Note_on_c, 0, 69, 75
1, 98205, Note_on_c, 0, 69, 0
1, 98205, Note_on_c, 1, 52, 0
1, 98205, Note_on_c, 1, 59, 0
1, 98208, Note_on_c, 0, 68, 75
1, 98208, Note_on_c, 1, 59, 75
1, 98208, Note_on_c, 1, 52, 75
1, 98229, Note_on_c, 0, 68, 0
1, 98232, Note_on_c, 0, 69, 75
1, 98253, Note_on_c, 0, 69, 0
1, 98256, Note_on_c, 0, 68, 75
1, 98277, Note_on_c, 0, 68, 0
1, 98280, Note_on_c, 0, 69, 75
1, 98301, Note_on_c, 0, 69, 0
1, 98301, Note_on_c, 1, 52, 0
1, 98301, Note_on_c, 1, 59, 0
1, 98304, Note_on_c, 0, 69, 75
1, 98304, Note_on_c, 1, 57, 75
1, 98304, Note_on_c, 1, 45, 75
1, 98464, Note_on_c, 0, 69, 0
1, 98464, Note_on_c, 1, 45, 0
1, 98464, Note_on_c, 1, 57, 0
1, 98688, Note_on_c, 0, 81, 75
1, 98688, Note_on_c, 0, 76, 75
1, 98688, Note_on_c, 0, 72, 75
1, 98784, Note_on_c, 1, 45, 75
1, 98784, Note_on_c, 1, 57, 75
1, 98848, Note_on_c, 0, 72, 0
1, 98848, Note_on_c, 0, 76, 0
1, 98848, Note_on_c, 0, 81, 0
1, 98877, Note_on_c, 1, 57, 0
1, 98877, Note_on_c, 1, 45, 0
1, 98880, Note_on_c, 1, 60, 75
1, 98880, Note_on_c, 1, 48, 75
1, 98973, Note_on_c, 1, 48, 0
1, 98973, Note_on_c, 1, 60, 0
1, 98976, Note_on_c, 0, 81, 75
1, 98976, Note_on_c, 0, 72, 75
1, 98976, Note_on_c, 1, 57, 75
1, 98976, Note_on_c, 1, 45, 75
1, 99069, Note_on_c, 0, 72, 0
1, 99069, Note_on_c, 0, 81, 0
1, 99069, Note_on_c, 1, 45, 0
1, 99069, Note_on_c, 1, 57, 0
1, 99072, Note_on_c, 0, 81, 75
1, 99072, Note_on_c, 0, 72, 75
1, 99117, Note_on_c, 0, 72, 0
1, 99117, Note_on_c, 0, 81, 0
1, 99120, Note_on_c, 0, 71, 75
1, 99120, Note_on_c, 0, 80, 75
1, 99165, Note_on_c, 0, 80, 0
1, 99165, Note_on_c, 0, 71, 0
1, 99168, Note_on_c, 0, 71, 75
1, 99168, Note_on_c, 0, 80, 75
1, 99168, Note_on_c, 1, 52, 75
1, 99168, Note_on_c, 1, 40, 75
1, 99261, Note_on_c, 0, 80, 0
1, 99261, Note_on_c, 0, 71, 0
1, 99261, Note_on_c, 1, 40, 0
1, 99261, Note_on_c, 1, 52, 0
1, 99264, Note_on_c, 1, 56, 75
1, 99264, Note_on_c, 1, 44, 75
1, 99357, Note_on_c, 1, 44, 0
1, 99357, Note_on_c, 1, 56, 0
1, 99360, Note_on_c, 1, 52, 75
1, 99360, Note_on_c, 1, 40, 75
1, 99453, Note_on_c, 1, 40, 0
1, 99453, Note_on_c, 1, 52, 0
1, 99456, Note_on_c, 0, 74, 92
1, 99456, Note_on_c, 0, 71, 92
1, 99456, Note_on_c, 0, 68, 92
1, 99456, Note_on_c, 0, 64, 92
1, 99552, Note_on_c, 1, 40, 92
1, 99552, Note_on_c, 1, 52, 92
1, 99616, Note_on_c, 0, 64, 0
1, 99616, Note_on_c, 0, 68, 0
1, 99616, Note_on_c, 0, 71, 0
1, 99616, Note_on_c, 0, 74, 0
1, 99645, Note_on_c, 1, 52, 0
1, 99645, Note_on_c, 1, 40, 0
1, 99648, Note_on_c, 1, 56, 92
1, 99648, Note_on_c, 1, 44, 92
1, 99741, Note_on_c, 1, 44, 0
1, 99741, Note_on_c, 1, 56, 0
1, 99744, Note_on_c, 0, 74, 92
1, 99744, Note_on_c, 0, 71, 92
1, 99744, Note_on_c, 1, 52, 92
1, 99744, Note_on_c, 1, 40, 92
1, 99837, Note_on_c, 0, 71, 0
1, 99837, Note_on_c, 0, 74, 0
1, 99837, Note_on_c, 1, 40, 0
1, 99837, Note_on_c, 1, 52, 0
1, 99840, Note_on_c, 0, 74, 92
1, 99840, Note_on_c, 0, 71, 92
1, 99885, Note_on_c, 0, 71, 0
1, 99885, Note_on_c, 0, 74, 0
1, 99888, Note_on_c, 0, 69, 92
1, 99888, Note_on_c, 0, 72, 92
1, 99933, Note_on_c, 0, 72, 0
1, 99933, Note_on_c, 0, 69, 0
1, 99936, Note_on_c, 0, 69, 92
1, 99936, Note_on_c, 0, 72, 92
1, 99936, Note_on_c, 1, 57, 92
1, 99936, Note_on_c, 1, 45, 92
1, 100029, Note_on_c, 0, 72, 0
1, 100029, Note_on_c, 0, 69, 0
1, 100029, Note_on_c, 1, 45, 0
1, 100029, Note_on_c, 1, 57, 0
1, 100032, Note_on_c, 1, 60, 92
1, 100032, Note_on_c, 1, 48, 92
1, 100125, Note_on_c, 1, 48, 0
1, 100125, Note_on_c, 1, 60, 0
1, 100128, Note_on_c, 1, 57, 92
1, 100128, Note_on_c, 1, 45, 92
1, 100221, Note_on_c, 1, 45, 0
1, 100221, Note_on_c, 1, 57, 0
1, 100224, Note_on_c, 0, 77, 108
1, 100224, Note_on_c, 0, 74, 108
1, 100320, Note_on_c, 1, 50, 108
1, 100320, Note_on_c, 1, 62, 108
1, 100384, Note_on_c, 0, 74, 0
1, 100384, Note_on_c, 0, 77, 0
1, 100413, Note_on_c, 1, 62, 0
1, 100413, Note_on_c, 1, 50, 0
1, 100416, Note_on_c, 1, 59, 108
1, 100416, Note_on_c, 1, 47, 108
1, 100509, Note_on_c, 1, 47, 0
1, 100509, Note_on_c, 1, 59, 0
1, 100512, Note_on_c, 0, 77, 108
1, 100512, Note_on_c, 0, 74, 108
1, 100512, Note_on_c, 1, 55, 108
1, 100512, Note_on_c, 1, 43, 108
1, 100605, Note_on_c, 0, 74, 0
1, 100605, Note_on_c, 0, 77, 0
1, 100605, Note_on_c, 1, 43, 0
1, 100605, Note_on_c, 1, 55, 0
1, 100608, Note_on_c, 0, 77, 108
1, 100608, Note_on_c, 0, 74, 108
1, 100653, Note_on_c, 0, 74, 0
1, 100653, Note_on_c, 0, 77, 0
1, 100656, Note_on_c, 0, 72, 108
1, 100656, Note_on_c, 0, 76, 108
1, 100701, Note_on_c, 0, 76, 0
1, 100701, Note_on_c, 0, 72, 0
1, 100704, Note_on_c, 0, 72, 108
1, 100704, Note_on_c, 0, 76, 108
1, 100704, Note_on_c, 1, 60, 108
1, 100704, Note_on_c, 1, 48, 108
1, 100797, Note_on_c, 0, 76, 0
1, 100797, Note_on_c, 0, 72, 0
1, 100797, Note_on_c, 1, 48, 0
1, 100797, Note_on_c, 1, 60, 0
1, 100800, Note_on_c, 1, 57, 108
1, 100800, Note_on_c, 1, 45, 108
1, 100893, Note_on_c, 1, 45, 0
1, 100893, Note_on_c, 1, 57, 0
1, 100896, Note_on_c, 0, 76, 108
1, 100896, Note_on_c, 0, 72, 108
1, 100896, Note_on_c, 1, 54, 108
1, 100896, Note_on_c, 1, 42, 108
1, 100989, Note_on_c, 0, 72, 0
1, 100989, Note_on_c, 0, 76, 0
1, 100989, Note_on_c, 1, 42, 0
1, 100989, Note_on_c, 1, 54, 0
1, 100992, Note_on_c, 0, 76, 108
1, 100992, Note_on_c, 0, 72, 108
1, 101037, Note_on_c, 0, 72, 0
1, 101037, Note_on_c, 0, 76, 0
1, 101040, Note_on_c, 0, 71, 108
1, 101040, Note_on_c, 0, 74, 108
1, 101085, Note_on_c, 0, 74, 0
1, 101085, Note_on_c, 0, 71, 0
1, 101088, Note_on_c, 0, 71, 108
1, 101088, Note_on_c, 0, 74, 108
1, 101088, Note_on_c, 1, 59, 108
1, 101088, Note_on_c, 1, 47, 108
1, 101181, Note_on_c, 0, 74, 0
1, 101181, Note_on_c, 0, 71, 0
1, 101181, Note_on_c, 1, 47, 0
1, 101181, Note_on_c, 1, 59, 0
1, 101184, Note_on_c, 1, 56, 108
1, 101184, Note_on_c, 1, 44, 108
1, 101277, Note_on_c, 1, 44, 0
1, 101277, Note_on_c, 1, 56, 0
1, 101280, Note_on_c, 0, 74, 108
1, 101280, Note_on_c, 0, 71, 108
1, 101280, Note_on_c, 1, 52, 108
1, 101280, Note_on_c, 1, 40, 108
1, 101373, Note_on_c, 0, 71, 0
1, 101373, Note_on_c, 0, 74, 0
1, 101373, Note_on_c, 1, 40, 0
1, 101373, Note_on_c, 1, 52, 0
1, 101376, Note_on_c, 0, 74, 108
1, 101376, Note_on_c, 0, 71, 108
1, 101421, Note_on_c, 0, 71, 0
1, 101421, Note_on_c, 0, 74, 0
1, 101424, Note_on_c, 0, 69, 108
1, 101424, Note_on_c, 0, 72, 108
1, 101469, Note_on_c, 0, 72, 0
1, 101469, Note_on_c, 0, 69, 0
1, 101472, Note_on_c, 0, 69, 108
1, 101472, Note_on_c, 0, 72, 108
1, 101472, Note_on_c, 1, 57, 108
1, 101472, Note_on_c, 1, 45, 108
1, 101565, Note_on_c, 0, 72, 0
1, 101565, Note_on_c, 0, 69, 0
1, 101565, Note_on_c, 1, 45, 0
1, 101565, Note_on_c, 1, 57, 0
1, 101568, Note_on_c, 1, 60, 108
1, 101568, Note_on_c, 1, 48, 108
1, 101661, Note_on_c, 1, 48, 0
1, 101661, Note_on_c, 1, 60, 0
1, 101664, Note_on_c, 0, 72, 108
1, 101664, Note_on_c, 0, 69, 108
1, 101664, Note_on_c, 1, 57, 108
1, 101664, Note_on_c, 1, 45, 108
1, 101757, Note_on_c, 0, 69, 0
1, 101757, Note_on_c, 0, 72, 0
1, 101757, Note_on_c, 1, 45, 0
1, 101757, Note_on_c, 1, 57, 0
1, 101760, Note_on_c, 0, 74, 108
1, 101760, Note_on_c, 0, 71, 108
1, 101805, Note_on_c, 0, 71, 0
1, 101805, Note_on_c, 0, 74, 0
1, 101808, Note_on_c, 0, 69, 108
1, 101808, Note_on_c, 0, 72, 108
1, 101853, Note_on_c, 0, 72, 0
1, 101853, Note_on_c, 0, 69, 0
1, 101856, Note_on_c, 0, 69, 108
1, 101856, Note_on_c, 0, 72, 108
1, 101856, Note_on_c, 1, 53, 108
1, 101856, Note_on_c, 1, 41, 108
1, 101949, Note_on_c, 0, 72, 0
1, 101949, Note_on_c, 0, 69, 0
1, 101949, Note_on_c, 1, 41, 0
1, 101949, Note_on_c, 1, 53, 0
1, 101952, Note_on_c, 1, 57, 108
1, 101952, Note_on_c, 1, 45, 108
1, 102045, Note_on_c, 1, 45, 0
1, 102045, Note_on_c, 1, 57, 0
1, 102048, Note_on_c, 0, 72, 108
1, 102048, Note_on_c, 0, 69, 108
1, 102048, Note_on_c, 1, 53, 108
1, 102048, Note_on_c, 1, 41, 108
1, 102141, Note_on_c, 0, 69, 0
1, 102141, Note_on_c, 0, 72, 0
1, 102141, Note_on_c, 1, 41, 0
1, 102141, Note_on_c, 1, 53, 0
1, 102144, Note_on_c, 0, 74, 108
1, 102144, Note_on_c, 0, 71, 108
1, 102189, Note_on_c, 0, 71, 0
1, 102189, Note_on_c, 0, 74, 0
1, 102192, Note_on_c, 0, 69, 108
1, 102192, Note_on_c, 0, 72, 108
1, 102237, Note_on_c, 0, 72, 0
1, 102237, Note_on_c, 0, 69, 0
1, 102240, Note_on_c, 0, 69, 108
1, 102240, Note_on_c, 0, 72, 108
1, 102240, Note_on_c, 1, 65, 108
1, 102240, Note_on_c, 1, 53, 108
1, 102333, Note_on_c, 0, 72, 0
1, 102333, Note_on_c, 0, 69, 0
1, 102333, Note_on_c, 1, 53, 0
1, 102333, Note_on_c, 1, 65, 0
1, 102336, Note_on_c, 1, 64, 108
1, 102336, Note_on_c, 1, 52, 108
1, 102429, Note_on_c, 1, 52, 0
1, 102429, Note_on_c, 1, 64, 0
1, 102432, Note_on_c, 0, 72, 108
1, 102432, Note_on_c, 0, 69, 108
1, 102432, Note_on_c, 1, 63, 108
1, 102432, Note_on_c, 1, 51, 108
1, 102525, Note_on_c, 0, 69, 0
1, 102525, Note_on_c, 0, 72, 0
1, 102525, Note_on_c, 1, 51, 0
1, 102525, Note_on_c, 1, 63, 0
1, 102528, Note_on_c, 0, 72, 108
1, 102528, Note_on_c, 0, 69, 108
1, 102528, Note_on_c, 1, 64, 108
1, 102528, Note_on_c, 1, 52, 108
1, 102621, Note_on_c, 0, 69, 0
1, 102621, Note_on_c, 0, 72, 0
1, 102624, Note_on_c, 0, 71, 108
1, 102624, Note_on_c, 0, 68, 108
1, 102688, Note_on_c, 1, 52, 0
1, 102688, Note_on_c, 1, 64, 0
1, 102717, Note_on_c, 0, 68, 0
1, 102717, Note_on_c, 0, 71, 0
1, 102912, Note_on_c, 0, 57, 92
1, 102912, Note_on_c, 1, 45, 92
1, 102912, Note_on_c, 1, 33, 92
1, 102945, Note_on_c, 0, 57, 0
1, 102948, Note_on_c, 0, 61, 92
1, 102969, Note_on_c, 0, 61, 0
1, 102972, Note_on_c, 0, 64, 92
1, 103005, Note_on_c, 0, 64, 0
1, 103008, Note_on_c, 0, 61, 92
1, 103041, Note_on_c, 0, 61, 0
1, 103044, Note_on_c, 0, 64, 92
1, 103065, Note_on_c, 0, 64, 0
1, 103068, Note_on_c, 0, 69, 92
1, 103072, Note_on_c, 1, 33, 0
1, 103072, Note_on_c, 1, 45, 0
1, 103101, Note_on_c, 0, 69, 0
1, 103104, Note_on_c, 0, 69, 92
1, 103137, Note_on_c, 0, 69, 0
1, 103140, Note_on_c, 0, 73, 92
1, 103161, Note_on_c, 0, 73, 0
1, 103164, Note_on_c, 0, 76, 92
1, 103197, Note_on_c, 0, 76, 0
1, 103200, Note_on_c, 0, 73, 92
1, 103233, Note_on_c, 0, 73, 0
1, 103236, Note_on_c, 0, 76, 92
1, 103257, Note_on_c, 0, 76, 0
1, 103260, Note_on_c, 0, 81, 92
1, 103293, Note_on_c, 0, 81, 0
1, 103296, Note_on_c, 0, 74, 92
1, 103296, Note_on_c, 0, 71, 92
1, 103392, Note_on_c, 1, 40, 92
1, 103392, Note_on_c, 1, 52, 92
1, 103456, Note_on_c, 0, 71, 0
1, 103456, Note_on_c, 0, 74, 0
1, 103485, Note_on_c, 1, 52, 0
1, 103485, Note_on_c, 1, 40, 0
1, 103488, Note_on_c, 1, 56, 92
1, 103488, Note_on_c, 1, 44, 92
1, 103581, Note_on_c, 1, 44, 0
1, 103581, Note_on_c, 1, 56, 0
1, 103584, Note_on_c, 1, 52, 92
1, 103584, Note_on_c, 1, 40, 92
1, 103677, Note_on_c, 1, 40, 0
1, 103677, Note_on_c, 1, 52, 0
1, 103680, Note_on_c, 0, 64, 75
1, 103680, Note_on_c, 1, 52, 75
1, 103680, Note_on_c, 1, 40, 75
1, 103713, Note_on_c, 0, 64, 0
1, 103716, Note_on_c, 0, 68, 75
1, 103737, Note_on_c, 0, 68, 0
1, 103740, Note_on_c, 0, 71, 75
1, 103773, Note_on_c, 0, 71, 0
1, 103776, Note_on_c, 0, 68, 75
1, 103809, Note_on_c, 0, 68, 0
1, 103812, Note_on_c, 0, 71, 75
1, 103833, Note_on_c, 0, 71, 0
1, 103836, Note_on_c, 0, 74, 75
1, 103840, Note_on_c, 1, 40, 0
1, 103840, Note_on_c, 1, 52, 0
1, 103869, Note_on_c, 0, 74, 0
1, 103872, Note_on_c, 0, 71, 75
1, 103905, Note_on_c, 0, 71, 0
1, 103908, Note_on_c, 0, 74, 75
1, 103929, Note_on_c, 0, 74, 0
1, 103932, Note_on_c, 0, 80, 75
1, 103965, Note_on_c, 0, 80, 0
1, 103968, Note_on_c, 0, 74, 75
1, 104001, Note_on_c, 0, 74, 0
1, 104004, Note_on_c, 0, 80, 75
1, 104025, Note_on_c, 0, 80, 0
1, 104028, Note_on_c, 0, 83, 75
1, 104061, Note_on_c, 0, 83, 0
1, 104064, Note_on_c, 0, 81, 75
1, 104064, Note_on_c, 0, 73, 75
1, 104160, Note_on_c, 1, 45, 75
1, 104160, Note_on_c, 1, 57, 75
1, 104224, Note_on_c, 0, 73, 0
1, 104224, Note_on_c, 0, 81, 0
1, 104253, Note_on_c, 1, 57, 0
1, 104253, Note_on_c, 1, 45, 0
1, 104256, Note_on_c, 1, 61, 75
1, 104256, Note_on_c, 1, 49, 75
1, 104349, Note_on_c, 1, 49, 0
1, 104349, Note_on_c, 1, 61, 0
1, 104352, Note_on_c, 1, 57, 75
1, 104352, Note_on_c, 1, 45, 75
1, 104445, Note_on_c, 1, 45, 0
1, 104445, Note_on_c, 1, 57, 0
1, 104448, Note_on_c, 1, 49, 60
1, 104493, Note_on_c, 1, 49, 0
1, 104496, Note_on_c, 1, 57, 60
1, 104541, Note_on_c, 1, 57, 0
1, 104544, Note_on_c, 0, 69, 60
1, 104544, Note_on_c, 1, 52, 60
1, 104589, Note_on_c, 1, 52, 0
1, 104592, Note_on_c, 1, 57, 60
1, 104637, Note_on_c, 0, 69, 0
1, 104637, Note_on_c, 1, 57, 0
1, 104640, Note_on_c, 0, 73, 60
1, 104640, Note_on_c, 1, 49, 60
1, 104685, Note_on_c, 1, 49, 0
1, 104688, Note_on_c, 1, 57, 60
1, 104733, Note_on_c, 0, 73, 0
1, 104733, Note_on_c, 1, 57, 0
1, 104736, Note_on_c, 0, 76, 60
1, 104736, Note_on_c, 1, 52, 60
1, 104781, Note_on_c, 1, 52, 0
1, 104784, Note_on_c, 1, 57, 60
1, 104829, Note_on_c, 0, 76, 0
1, 104829, Note_on_c, 1, 57, 0
1, 104832, Note_on_c, 0, 66, 60
1, 104832, Note_on_c, 1, 50, 60
1, 104877, Note_on_c, 1, 50, 0
1, 104880, Note_on_c, 1, 57, 60
1, 104925, Note_on_c, 1, 57, 0
1, 104928, Note_on_c, 1, 54, 60
1, 104973, Note_on_c, 1, 54, 0
1, 104976, Note_on_c, 1, 57, 60
1, 104992, Note_on_c, 0, 66, 0
1, 105021, Note_on_c, 1, 57, 0
1, 105024, Note_on_c, 1, 50, 60
1, 105069, Note_on_c, 1, 50, 0
1, 105072, Note_on_c, 1, 57, 60
1, 105117, Note_on_c, 1, 57, 0
1, 105120, Note_on_c, 1, 54, 60
1, 105165, Note_on_c, 1, 54, 0
1, 105168, Note_on_c, 1, 57, 60
1, 105213, Note_on_c, 1, 57, 0
1, 105216, Note_on_c, 1, 52, 60
1, 105261, Note_on_c, 1, 52, 0
1, 105264, Note_on_c, 1, 57, 60
1, 105309, Note_on_c, 1, 57, 0
1, 105312, Note_on_c, 0, 66, 60
1, 105312, Note_on_c, 1, 56, 60
1, 105357, Note_on_c, 1, 56, 0
1, 105360, Note_on_c, 1, 57, 60
1, 105405, Note_on_c, 0, 66, 0
1, 105405, Note_on_c, 1, 57, 0
1, 105408, Note_on_c, 0, 73, 60
1, 105408, Note_on_c, 1, 52, 60
1, 105453, Note_on_c, 1, 52, 0
1, 105456, Note_on_c, 1, 57, 60
1, 105501, Note_on_c, 0, 73, 0
1, 105501, Note_on_c, 1, 57, 0
1, 105504, Note_on_c, 0, 76, 60
1, 105504, Note_on_c, 1, 56, 60
1, 105549, Note_on_c, 1, 56, 0
1, 105552, Note_on_c, 1, 57, 60
1, 105597, Note_on_c, 0, 76, 0
1, 105597, Note_on_c, 1, 57, 0
1, 105600, Note_on_c, 0, 69, 60
1, 105600, Note_on_c, 1, 54, 60
1, 105621, Note_on_c, 0, 69, 0
1, 105624, Note_on_c, 0, 71, 60
1, 105645, Note_on_c, 0, 71, 0
1, 105645, Note_on_c, 1, 54, 0
1, 105648, Note_on_c, 0, 69, 60
1, 105648, Note_on_c, 1, 57, 60
1, 105669, Note_on_c, 0, 69, 0
1, 105672, Note_on_c, 0, 71, 60
1, 105693, Note_on_c, 0, 71, 0
1, 105693, Note_on_c, 1, 57, 0
1, 105696, Note_on_c, 0, 69, 60
1, 105696, Note_on_c, 1, 56, 60
1, 105717, Note_on_c, 0, 69, 0
1, 105720, Note_on_c, 0, 71, 60
1, 105741, Note_on_c, 0, 71, 0
1, 105741, Note_on_c, 1, 56, 0
1, 105744, Note_on_c, 0, 69, 60
1, 105744, Note_on_c, 1, 57, 60
1, 105765, Note_on_c, 0, 69, 0
1, 105768, Note_on_c, 0, 71, 60
1, 105789, Note_on_c, 0, 71, 0
1, 105789, Note_on_c, 1, 57, 0
1, 105792, Note_on_c, 1, 54, 60
1, 105837, Note_on_c, 1, 54, 0
1, 105840, Note_on_c, 1, 57, 60
1, 105885, Note_on_c, 1, 57, 0
1, 105888, Note_on_c, 1, 56, 60
1, 105933, Note_on_c, 1, 56, 0
1, 105936, Note_on_c, 1, 57, 60
1, 105981, Note_on_c, 1, 57, 0
1, 105984, Note_on_c, 1, 49, 75
1, 106029, Note_on_c, 1, 49, 0
1, 106032, Note_on_c, 1, 57, 75
1, 106077, Note_on_c, 1, 57, 0
1, 106080, Note_on_c, 0, 69, 75
1, 106080, Note_on_c, 1, 52, 75
1, 106125, Note_on_c, 1, 52, 0
1, 106128, Note_on_c, 1, 57, 75
1, 106173, Note_on_c, 0, 69, 0
1, 106173, Note_on_c, 1, 57, 0
1, 106176, Note_on_c, 0, 73, 75
1, 106176, Note_on_c, 1, 49, 75
1, 106221, Note_on_c, 1, 49, 0
1, 106224, Note_on_c, 1, 57, 75
1, 106269, Note_on_c, 0, 73, 0
1, 106269, Note_on_c, 1, 57, 0
1, 106272, Note_on_c, 0, 76, 75
1, 106272, Note_on_c, 1, 52, 75
1, 106317, Note_on_c, 1, 52, 0
1, 106320, Note_on_c, 1, 57, 75
1, 106365, Note_on_c, 0, 76, 0
1, 106365, Note_on_c, 1, 57, 0
1, 106368, Note_on_c, 0, 76, 75
1, 106368, Note_on_c, 1, 50, 75
1, 106413, Note_on_c, 1, 50, 0
1, 106416, Note_on_c, 1, 57, 75
1, 106461, Note_on_c, 0, 76, 0
1, 106461, Note_on_c, 1, 57, 0
1, 106464, Note_on_c, 0, 77, 75
1, 106464, Note_on_c, 1, 54, 75
1, 106509, Note_on_c, 1, 54, 0
1, 106512, Note_on_c, 1, 57, 75
1, 106557, Note_on_c, 0, 77, 0
1, 106557, Note_on_c, 1, 57, 0
1, 106560, Note_on_c, 0, 78, 75
1, 106560, Note_on_c, 1, 50, 75
1, 106605, Note_on_c, 1, 50, 0
1, 106608, Note_on_c, 1, 57, 75
1, 106653, Note_on_c, 0, 78, 0
1, 106653, Note_on_c, 1, 57, 0
1, 106656, Note_on_c, 0, 74, 75
1, 106656, Note_on_c, 1, 54, 75
1, 106701, Note_on_c, 1, 54, 0
1, 106704, Note_on_c, 1, 57, 75
1, 106749, Note_on_c, 0, 74, 0
1, 106749, Note_on_c, 1, 57, 0
1, 106752, Note_on_c, 0, 74, 75
1, 106752, Note_on_c, 1, 52, 75
1, 106797, Note_on_c, 0, 74, 0
1, 106797, Note_on_c, 1, 52, 0
1, 106800, Note_on_c, 0, 73, 75
1, 106800, Note_on_c, 1, 61, 75
1, 106845, Note_on_c, 0, 73, 0
1, 106845, Note_on_c, 1, 61, 0
1, 106848, Note_on_c, 0, 71, 75
1, 106848, Note_on_c, 1, 57, 75
1, 106893, Note_on_c, 0, 71, 0
1, 106893, Note_on_c, 1, 57, 0
1, 106896, Note_on_c, 0, 69, 75
1, 106896, Note_on_c, 1, 61, 75
1, 106941, Note_on_c, 0, 69, 0
1, 106941, Note_on_c, 1, 61, 0
1, 106944, Note_on_c, 0, 73, 75
1, 106944, Note_on_c, 1, 52, 75
1, 106989, Note_on_c, 0, 73, 0
1, 106989, Note_on_c, 1, 52, 0
1, 106992, Note_on_c, 0, 71, 75
1, 106992, Note_on_c, 1, 62, 75
1, 107037, Note_on_c, 0, 71, 0
1, 107037, Note_on_c, 1, 62, 0
1, 107040, Note_on_c, 0, 69, 75
1, 107040, Note_on_c, 1, 59, 75
1, 107085, Note_on_c, 0, 69, 0
1, 107085, Note_on_c, 1, 59, 0
1, 107088, Note_on_c, 0, 68, 75
1, 107088, Note_on_c, 1, 62, 75
1, 107133, Note_on_c, 0, 68, 0
1, 107133, Note_on_c, 1, 62, 0
1, 107136, Note_on_c, 0, 69, 75
1, 107136, Note_on_c, 1, 61, 75
1, 107136, Note_on_c, 1, 57, 75
1, 107229, Note_on_c, 0, 69, 0
1, 107232, Note_on_c, 0, 69, 75
1, 107232, Note_on_c, 0, 73, 75
1, 107265, Note_on_c, 0, 73, 0
1, 107265, Note_on_c, 0, 69, 0
1, 107268, Note_on_c, 0, 71, 75
1, 107268, Note_on_c, 0, 74, 75
1, 107289, Note_on_c, 0, 74, 0
1, 107289, Note_on_c, 0, 71, 0
1, 107292, Note_on_c, 0, 73, 75
1, 107292, Note_on_c, 0, 76, 75
1, 107296, Note_on_c, 1, 57, 0
1, 107296, Note_on_c, 1, 61, 0
1, 107325, Note_on_c, 0, 76, 0
1, 107325, Note_on_c, 0, 73, 0
1, 107328, Note_on_c, 0, 74, 75
1, 107328, Note_on_c, 0, 71, 75
1, 107421, Note_on_c, 0, 71, 0
1, 107421, Note_on_c, 0, 74, 0
1, 107424, Note_on_c, 0, 68, 75
1, 107424, Note_on_c, 0, 62, 75
1, 107424, Note_on_c, 1, 52, 75
1, 107424, Note_on_c, 1, 40, 75
1, 107517, Note_on_c, 0, 62, 0
1, 107517, Note_on_c, 0, 68, 0
1, 107517, Note_on_c, 1, 40, 0
1, 107517, Note_on_c, 1, 52, 0
1, 107520, Note_on_c, 0, 69, 75
1, 107520, Note_on_c, 1, 45, 75
1, 107613, Note_on_c, 0, 69, 0
1, 107616, Note_on_c, 0, 57, 45
1, 107616, Note_on_c, 0, 61, 45
1, 107649, Note_on_c, 0, 61, 0
1, 107649, Note_on_c, 0, 57, 0
1, 107652, Note_on_c, 0, 59, 45
1, 107652, Note_on_c, 0, 62, 45
1, 107673, Note_on_c, 0, 62, 0
1, 107673, Note_on_c, 0, 59, 0
1, 107676, Note_on_c, 0, 61, 45
1, 107676, Note_on_c, 0, 64, 45
1, 107680, Note_on_c, 1, 45, 0
1, 107709, Note_on_c, 0, 64, 0
1, 107709, Note_on_c, 0, 61, 0
1, 107712, Note_on_c, 0, 62, 45
1, 107712, Note_on_c, 0, 59, 45
1, 107805, Note_on_c, 0, 59, 0
1, 107805, Note_on_c, 0, 62, 0
1, 107808, Note_on_c, 0, 59, 45
1, 107808, Note_on_c, 0, 56, 45
1, 107808, Note_on_c, 1, 52, 45
1, 107808, Note_on_c, 1, 40, 45
1, 107901, Note_on_c, 0, 56, 0
1, 107901, Note_on_c, 0, 59, 0
1, 107901, Note_on_c, 1, 40, 0
1, 107901, Note_on_c, 1, 52, 0
1, 107904, Note_on_c, 0, 57, 45
1, 107904, Note_on_c, 1, 45, 45
1, 107904, Note_on_c, 1, 33, 45
1, 108064, Note_on_c, 0, 57, 0
1, 108064, Note_on_c, 1, 33, 0
1, 108064, Note_on_c, 1, 45, 0
1, 108074, End_track
0, 0, End_of_file