0, 0, Header, 0, 1, 240
1, 0, Start_track
1, 0, Tempo, 454545
1, 0, Note_on_c, 0, 72, 77
1, 0, Note_on_c, 0, 60, 61
1, 24, Note_on_c, 0, 72, 0
1, 30, Note_on_c, 0, 71, 44
1, 48, Note_on_c, 0, 60, 0
1, 54, Note_on_c, 0, 71, 0
1, 60, Note_on_c, 0, 67, 52
1, 60, Note_on_c, 0, 72, 42
1, 108, Note_on_c, 0, 67, 0
1, 120, Note_on_c, 0, 64, 77
1, 168, Note_on_c, 0, 64, 0
1, 180, Note_on_c, 0, 67, 58
1, 228, Note_on_c, 0, 67, 0
1, 228, Note_on_c, 0, 72, 0
1, 240, Note_on_c, 0, 76, 77
1, 240, Note_on_c, 0, 60, 77
1, 288, Note_on_c, 0, 60, 0
1, 300, Note_on_c, 0, 67, 61
1, 348, Note_on_c, 0, 67, 0
1, 360, Note_on_c, 0, 64, 77
1, 408, Note_on_c, 0, 64, 0
1, 420, Note_on_c, 0, 67, 58
1, 432, Note_on_c, 0, 76, 0
1, 468, Note_on_c, 0, 67, 0
1, 480, Note_on_c, 0, 79, 66
1, 480, Note_on_c, 0, 60, 54
1, 528, Note_on_c, 0, 60, 0
1, 540, Note_on_c, 0, 67, 58
1, 588, Note_on_c, 0, 67, 0
1, 600, Note_on_c, 0, 64, 61
1, 648, Note_on_c, 0, 64, 0
1, 660, Note_on_c, 0, 67, 46
1, 672, Note_on_c, 0, 79, 0
1, 708, Note_on_c, 0, 67, 0
1, 720, Note_on_c, 0, 84, 58
1, 720, Note_on_c, 0, 60, 52
1, 768, Note_on_c, 0, 60, 0
1, 780, Note_on_c, 0, 67, 52
1, 828, Note_on_c, 0, 67, 0
1, 840, Note_on_c, 0, 64, 77
1, 888, Note_on_c, 0, 64, 0
1, 900, Note_on_c, 0, 67, 58
1, 912, Note_on_c, 0, 84, 0
1, 948, Note_on_c, 0, 67, 0
1, 960, Note_on_c, 0, 72, 77
1, 960, Note_on_c, 0, 60, 54
1, 984, Note_on_c, 0, 72, 0
1, 990, Note_on_c, 0, 71, 44
1, 1008, Note_on_c, 0, 60, 0
1, 1014, Note_on_c, 0, 71, 0
1, 1020, Note_on_c, 0, 69, 66
1, 1020, Note_on_c, 0, 72, 42
1, 1068, Note_on_c, 0, 69, 0
1, 1080, Note_on_c, 0, 65, 66
1, 1128, Note_on_c, 0, 65, 0
1, 1140, Note_on_c, 0, 69, 66
1, 1188, Note_on_c, 0, 72, 0
1, 1188, Note_on_c, 0, 69, 0
1, 1200, Note_on_c, 0, 60, 71
1, 1200, Note_on_c, 0, 77, 80
1, 1248, Note_on_c, 0, 60, 0
1, 1260, Note_on_c, 0, 69, 66
1, 1308, Note_on_c, 0, 69, 0
1, 1320, Note_on_c, 0, 65, 71
1, 1368, Note_on_c, 0, 65, 0
1, 1380, Note_on_c, 0, 69, 61
1, 1392, Note_on_c, 0, 77, 0
1, 1428, Note_on_c, 0, 69, 0
1, 1440, Note_on_c, 0, 81, 80
1, 1440, Note_on_c, 0, 60, 77
1, 1488, Note_on_c, 0, 60, 0
1, 1500, Note_on_c, 0, 69, 71
1, 1548, Note_on_c, 0, 69, 0
1, 1560, Note_on_c, 0, 65, 66
1, 1608, Note_on_c, 0, 65, 0
1, 1620, Note_on_c, 0, 69, 61
1, 1632, Note_on_c, 0, 81, 0
1, 1668, Note_on_c, 0, 69, 0
1, 1680, Note_on_c, 0, 84, 80
1, 1680, Note_on_c, 0, 60, 71
1, 1728, Note_on_c, 0, 60, 0
1, 1740, Note_on_c, 0, 69, 61
1, 1788, Note_on_c, 0, 69, 0
1, 1800, Note_on_c, 0, 65, 50
1, 1848, Note_on_c, 0, 65, 0
1, 1860, Note_on_c, 0, 69, 58
1, 1872, Note_on_c, 0, 84, 0
1, 1908, Note_on_c, 0, 69, 0
1, 1920, Note_on_c, 0, 72, 77
1, 1920, Note_on_c, 0, 60, 52
1, 1944, Note_on_c, 0, 72, 0
1, 1950, Note_on_c, 0, 71, 44
1, 1968, Note_on_c, 0, 60, 0
1, 1974, Note_on_c, 0, 71, 0
1, 1980, Note_on_c, 0, 67, 50
1, 1980, Note_on_c, 0, 72, 42
1, 2028, Note_on_c, 0, 67, 0
1, 2040, Note_on_c, 0, 64, 66
1, 2088, Note_on_c, 0, 64, 0
1, 2100, Note_on_c, 0, 67, 58
1, 2148, Note_on_c, 0, 72, 0
1, 2148, Note_on_c, 0, 67, 0
1, 2160, Note_on_c, 0, 60, 44
1, 2160, Note_on_c, 0, 76, 71
1, 2208, Note_on_c, 0, 60, 0
1, 2220, Note_on_c, 0, 67, 45
1, 2268, Note_on_c, 0, 67, 0
1, 2280, Note_on_c, 0, 64, 61
1, 2328, Note_on_c, 0, 64, 0
1, 2340, Note_on_c, 0, 67, 66
1, 2352, Note_on_c, 0, 76, 0
1, 2388, Note_on_c, 0, 67, 0
1, 2400, Note_on_c, 0, 79, 71
1, 2400, Note_on_c, 0, 60, 61
1, 2448, Note_on_c, 0, 60, 0
1, 2460, Note_on_c, 0, 67, 54
1, 2508, Note_on_c, 0, 67, 0
1, 2520, Note_on_c, 0, 64, 66
1, 2568, Note_on_c, 0, 64, 0
1, 2580, Note_on_c, 0, 67, 61
1, 2592, Note_on_c, 0, 79, 0
1, 2628, Note_on_c, 0, 67, 0
1, 2640, Note_on_c, 0, 84, 77
1, 2640, Note_on_c, 0, 60, 61
1, 2688, Note_on_c, 0, 60, 0
1, 2700, Note_on_c, 0, 67, 71
1, 2748, Note_on_c, 0, 67, 0
1, 2760, Note_on_c, 0, 64, 77
1, 2808, Note_on_c, 0, 64, 0
1, 2820, Note_on_c, 0, 67, 52
1, 2832, Note_on_c, 0, 84, 0
1, 2868, Note_on_c, 0, 67, 0
1, 2880, Note_on_c, 0, 77, 45
1, 2880, Note_on_c, 0, 59, 54
1, 2904, Note_on_c, 0, 77, 0
1, 2910, Note_on_c, 0, 76, 89
1, 2928, Note_on_c, 0, 59, 0
1, 2934, Note_on_c, 0, 76, 0
1, 2940, Note_on_c, 0, 77, 54
1, 2940, Note_on_c, 0, 67, 62
1, 2988, Note_on_c, 0, 67, 0
1, 3000, Note_on_c, 0, 62, 66
1, 3048, Note_on_c, 0, 62, 0
1, 3060, Note_on_c, 0, 67, 61
1, 3084, Note_on_c, 0, 77, 0
1, 3108, Note_on_c, 0, 67, 0
1, 3120, Note_on_c, 0, 59, 54
1, 3168, Note_on_c, 0, 59, 0
1, 3180, Note_on_c, 0, 67, 50
1, 3228, Note_on_c, 0, 67, 0
1, 3240, Note_on_c, 0, 62, 66
1, 3288, Note_on_c, 0, 62, 0
1, 3300, Note_on_c, 0, 67, 58
1, 3348, Note_on_c, 0, 67, 0
1, 3360, Note_on_c, 0, 76, 44
1, 3360, Note_on_c, 0, 60, 77
1, 3384, Note_on_c, 0, 76, 0
1, 3390, Note_on_c, 0, 74, 58
1, 3408, Note_on_c, 0, 60, 0
1, 3414, Note_on_c, 0, 74, 0
1, 3420, Note_on_c, 0, 76, 77
1, 3420, Note_on_c, 0, 67, 66
1, 3468, Note_on_c, 0, 67, 0
1, 3480, Note_on_c, 0, 64, 61
1, 3528, Note_on_c, 0, 64, 0
1, 3540, Note_on_c, 0, 67, 61
1, 3564, Note_on_c, 0, 76, 0
1, 3588, Note_on_c, 0, 67, 0
1, 3600, Note_on_c, 0, 60, 71
1, 3648, Note_on_c, 0, 60, 0
1, 3660, Note_on_c, 0, 67, 61
1, 3708, Note_on_c, 0, 67, 0
1, 3720, Note_on_c, 0, 64, 83
1, 3768, Note_on_c, 0, 64, 0
1, 3780, Note_on_c, 0, 67, 47
1, 3828, Note_on_c, 0, 67, 0
1, 3840, Note_on_c, 0, 77, 45
1, 3840, Note_on_c, 0, 59, 83
1, 3864, Note_on_c, 0, 77, 0
1, 3870, Note_on_c, 0, 76, 89
1, 3888, Note_on_c, 0, 59, 0
1, 3894, Note_on_c, 0, 76, 0
1, 3900, Note_on_c, 0, 77, 54
1, 3900, Note_on_c, 0, 67, 61
1, 3948, Note_on_c, 0, 67, 0
1, 3960, Note_on_c, 0, 62, 71
1, 4008, Note_on_c, 0, 62, 0
1, 4020, Note_on_c, 0, 67, 52
1, 4044, Note_on_c, 0, 77, 0
1, 4068, Note_on_c, 0, 67, 0
1, 4080, Note_on_c, 0, 59, 54
1, 4128, Note_on_c, 0, 59, 0
1, 4140, Note_on_c, 0, 67, 58
1, 4188, Note_on_c, 0, 67, 0
1, 4200, Note_on_c, 0, 62, 77
1, 4248, Note_on_c, 0, 62, 0
1, 4260, Note_on_c, 0, 67, 55
1, 4308, Note_on_c, 0, 67, 0
1, 4320, Note_on_c, 0, 76, 44
1, 4320, Note_on_c, 0, 60, 77
1, 4344, Note_on_c, 0, 76, 0
1, 4350, Note_on_c, 0, 74, 58
1, 4368, Note_on_c, 0, 60, 0
1, 4374, Note_on_c, 0, 74, 0
1, 4380, Note_on_c, 0, 76, 77
1, 4380, Note_on_c, 0, 67, 66
1, 4428, Note_on_c, 0, 67, 0
1, 4440, Note_on_c, 0, 64, 77
1, 4488, Note_on_c, 0, 64, 0
1, 4500, Note_on_c, 0, 67, 61
1, 4524, Note_on_c, 0, 76, 0
1, 4548, Note_on_c, 0, 67, 0
1, 4560, Note_on_c, 0, 60, 50
1, 4608, Note_on_c, 0, 60, 0
1, 4620, Note_on_c, 0, 67, 47
1, 4668, Note_on_c, 0, 67, 0
1, 4680, Note_on_c, 0, 64, 54
1, 4728, Note_on_c, 0, 64, 0
1, 4740, Note_on_c, 0, 67, 44
1, 4788, Note_on_c, 0, 67, 0
1, 4800, Note_on_c, 0, 65, 89
1, 4800, Note_on_c, 0, 74, 58
1, 4848, Note_on_c, 0, 74, 0
1, 4860, Note_on_c, 0, 73, 58
1, 4908, Note_on_c, 0, 73, 0
1, 4920, Note_on_c, 0, 74, 66
1, 4968, Note_on_c, 0, 74, 0
1, 4980, Note_on_c, 0, 76, 77
1, 5028, Note_on_c, 0, 76, 0
1, 5040, Note_on_c, 0, 77, 71
1, 5088, Note_on_c, 0, 77, 0
1, 5100, Note_on_c, 0, 76, 77
1, 5148, Note_on_c, 0, 76, 0
1, 5160, Note_on_c, 0, 77, 71
1, 5208, Note_on_c, 0, 77, 0
1, 5220, Note_on_c, 0, 79, 61
1, 5268, Note_on_c, 0, 79, 0
1, 5280, Note_on_c, 0, 81, 71
1, 5376, Note_on_c, 0, 81, 0
1, 5376, Note_on_c, 0, 65, 0
1, 5400, Note_on_c, 0, 69, 67
1, 5496, Note_on_c, 0, 69, 0
1, 5520, Note_on_c, 0, 71, 71
1, 5520, Note_on_c, 0, 66, 77
1, 5616, Note_on_c, 0, 71, 0
1, 5640, Note_on_c, 0, 72, 61
1, 5712, Note_on_c, 0, 66, 0
1, 5736, Note_on_c, 0, 72, 0
1, 5760, Note_on_c, 0, 72, 52
1, 5760, Note_on_c, 0, 67, 58
1, 5808, Note_on_c, 0, 72, 0
1, 5820, Note_on_c, 0, 71, 61
1, 5868, Note_on_c, 0, 71, 0
1, 5880, Note_on_c, 0, 69, 52
1, 5928, Note_on_c, 0, 69, 0
1, 5940, Note_on_c, 0, 67, 47
1, 5952, Note_on_c, 0, 67, 0
1, 5988, Note_on_c, 0, 67, 0
1, 6000, Note_on_c, 0, 67, 42
1, 6000, Note_on_c, 0, 59, 43
1, 6000, Note_on_c, 0, 55, 42
1, 6192, Note_on_c, 0, 55, 0
1, 6192, Note_on_c, 0, 59, 0
1, 6192, Note_on_c, 0, 67, 0
1, 6240, Note_on_c, 0, 67, 42
1, 6240, Note_on_c, 0, 55, 42
1, 6240, Note_on_c, 0, 59, 42
1, 6432, Note_on_c, 0, 59, 0
1, 6432, Note_on_c, 0, 55, 0
1, 6432, Note_on_c, 0, 67, 0
1, 6720, Note_on_c, 0, 71, 58
1, 6720, Note_on_c, 0, 55, 50
1, 6768, Note_on_c, 0, 55, 0
1, 6780, Note_on_c, 0, 62, 58
1, 6816, Note_on_c, 0, 71, 0
1, 6828, Note_on_c, 0, 62, 0
1, 6840, Note_on_c, 0, 74, 71
1, 6840, Note_on_c, 0, 59, 1
1, 6888, Note_on_c, 0, 59, 0
1, 6900, Note_on_c, 0, 62, 46
1, 6936, Note_on_c, 0, 74, 0
1, 6948, Note_on_c, 0, 62, 0
1, 6960, Note_on_c, 0, 55, 58
1, 7008, Note_on_c, 0, 55, 0
1, 7020, Note_on_c, 0, 62, 61
1, 7068, Note_on_c, 0, 62, 0
1, 7080, Note_on_c, 0, 74, 77
1, 7080, Note_on_c, 0, 59, 42
1, 7128, Note_on_c, 0, 59, 0
1, 7140, Note_on_c, 0, 62, 1
1, 7176, Note_on_c, 0, 74, 0
1, 7188, Note_on_c, 0, 62, 0
1, 7200, Note_on_c, 0, 79, 61
1, 7200, Note_on_c, 0, 55, 50
1, 7248, Note_on_c, 0, 55, 0
1, 7260, Note_on_c, 0, 62, 52
1, 7296, Note_on_c, 0, 79, 0
1, 7308, Note_on_c, 0, 62, 0
1, 7320, Note_on_c, 0, 59, 46
1, 7320, Note_on_c, 0, 74, 89
1, 7368, Note_on_c, 0, 59, 0
1, 7380, Note_on_c, 0, 62, 58
1, 7416, Note_on_c, 0, 74, 0
1, 7428, Note_on_c, 0, 62, 0
1, 7440, Note_on_c, 0, 55, 58
1, 7488, Note_on_c, 0, 55, 0
1, 7500, Note_on_c, 0, 62, 54
1, 7548, Note_on_c, 0, 62, 0
1, 7560, Note_on_c, 0, 71, 47
1, 7560, Note_on_c, 0, 59, 54
1, 7608, Note_on_c, 0, 59, 0
1, 7620, Note_on_c, 0, 62, 58
1, 7656, Note_on_c, 0, 71, 0
1, 7668, Note_on_c, 0, 62, 0
1, 7680, Note_on_c, 0, 72, 71
1, 7680, Note_on_c, 0, 54, 77
1, 7728, Note_on_c, 0, 54, 0
1, 7740, Note_on_c, 0, 62, 58
1, 7776, Note_on_c, 0, 72, 0
1, 7788, Note_on_c, 0, 62, 0
1, 7800, Note_on_c, 0, 69, 66
1, 7800, Note_on_c, 0, 57, 77
1, 7848, Note_on_c, 0, 57, 0
1, 7860, Note_on_c, 0, 62, 66
1, 7896, Note_on_c, 0, 69, 0
1, 7908, Note_on_c, 0, 62, 0
1, 7920, Note_on_c, 0, 54, 71
1, 7968, Note_on_c, 0, 54, 0
1, 7980, Note_on_c, 0, 62, 61
1, 8028, Note_on_c, 0, 62, 0
1, 8040, Note_on_c, 0, 78, 71
1, 8040, Note_on_c, 0, 57, 83
1, 8088, Note_on_c, 0, 57, 0
1, 8100, Note_on_c, 0, 62, 61
1, 8136, Note_on_c, 0, 78, 0
1, 8148, Note_on_c, 0, 62, 0
1, 8160, Note_on_c, 0, 81, 66
1, 8160, Note_on_c, 0, 54, 78
1, 8208, Note_on_c, 0, 54, 0
1, 8220, Note_on_c, 0, 62, 62
1, 8256, Note_on_c, 0, 81, 0
1, 8268, Note_on_c, 0, 62, 0
1, 8280, Note_on_c, 0, 57, 83
1, 8280, Note_on_c, 0, 72, 77
1, 8328, Note_on_c, 0, 57, 0
1, 8340, Note_on_c, 0, 62, 58
1, 8376, Note_on_c, 0, 72, 0
1, 8388, Note_on_c, 0, 62, 0
1, 8400, Note_on_c, 0, 54, 66
1, 8448, Note_on_c, 0, 54, 0
1, 8460, Note_on_c, 0, 62, 50
1, 8508, Note_on_c, 0, 62, 0
1, 8520, Note_on_c, 0, 72, 71
1, 8520, Note_on_c, 0, 57, 77
1, 8568, Note_on_c, 0, 57, 0
1, 8580, Note_on_c, 0, 62, 66
1, 8616, Note_on_c, 0, 72, 0
1, 8628, Note_on_c, 0, 62, 0
1, 8640, Note_on_c, 0, 71, 61
1, 8640, Note_on_c, 0, 55, 71
1, 8688, Note_on_c, 0, 55, 0
1, 8700, Note_on_c, 0, 62, 71
1, 8736, Note_on_c, 0, 71, 0
1, 8748, Note_on_c, 0, 62, 0
1, 8760, Note_on_c, 0, 74, 58
1, 8760, Note_on_c, 0, 59, 89
1, 8808, Note_on_c, 0, 59, 0
1, 8820, Note_on_c, 0, 62, 61
1, 8856, Note_on_c, 0, 74, 0
1, 8868, Note_on_c, 0, 62, 0
1, 8880, Note_on_c, 0, 55, 77
1, 8928, Note_on_c, 0, 55, 0
1, 8940, Note_on_c, 0, 62, 71
1, 8988, Note_on_c, 0, 62, 0
1, 9000, Note_on_c, 0, 74, 77
1, 9000, Note_on_c, 0, 59, 77
1, 9048, Note_on_c, 0, 59, 0
1, 9060, Note_on_c, 0, 62, 66
1, 9096, Note_on_c, 0, 74, 0
1, 9108, Note_on_c, 0, 62, 0
1, 9120, Note_on_c, 0, 79, 66
1, 9120, Note_on_c, 0, 55, 67
1, 9168, Note_on_c, 0, 55, 0
1, 9180, Note_on_c, 0, 62, 58
1, 9216, Note_on_c, 0, 79, 0
1, 9228, Note_on_c, 0, 62, 0
1, 9240, Note_on_c, 0, 59, 78
1, 9240, Note_on_c, 0, 74, 71
1, 9288, Note_on_c, 0, 59, 0
1, 9300, Note_on_c, 0, 62, 66
1, 9336, Note_on_c, 0, 74, 0
1, 9348, Note_on_c, 0, 62, 0
1, 9360, Note_on_c, 0, 55, 66
1, 9408, Note_on_c, 0, 55, 0
1, 9420, Note_on_c, 0, 62, 71
1, 9468, Note_on_c, 0, 62, 0
1, 9480, Note_on_c, 0, 71, 61
1, 9480, Note_on_c, 0, 59, 83
1, 9528, Note_on_c, 0, 59, 0
1, 9540, Note_on_c, 0, 62, 42
1, 9576, Note_on_c, 0, 71, 0
1, 9588, Note_on_c, 0, 62, 0
1, 9600, Note_on_c, 0, 72, 66
1, 9600, Note_on_c, 0, 54, 58
1, 9648, Note_on_c, 0, 54, 0
1, 9660, Note_on_c, 0, 62, 66
1, 9696, Note_on_c, 0, 72, 0
1, 9708, Note_on_c, 0, 62, 0
1, 9720, Note_on_c, 0, 69, 58
1, 9720, Note_on_c, 0, 57, 71
1, 9768, Note_on_c, 0, 57, 0
1, 9780, Note_on_c, 0, 62, 71
1, 9816, Note_on_c, 0, 69, 0
1, 9828, Note_on_c, 0, 62, 0
1, 9840, Note_on_c, 0, 54, 83
1, 9888, Note_on_c, 0, 54, 0
1, 9900, Note_on_c, 0, 62, 58
1, 9948, Note_on_c, 0, 62, 0
1, 9960, Note_on_c, 0, 78, 77
1, 9960, Note_on_c, 0, 57, 71
1, 10008, Note_on_c, 0, 57, 0
1, 10020, Note_on_c, 0, 62, 77
1, 10056, Note_on_c, 0, 78, 0
1, 10068, Note_on_c, 0, 62, 0
1, 10080, Note_on_c, 0, 81, 58
1, 10080, Note_on_c, 0, 54, 77
1, 10128, Note_on_c, 0, 54, 0
1, 10140, Note_on_c, 0, 62, 54
1, 10176, Note_on_c, 0, 81, 0
1, 10188, Note_on_c, 0, 62, 0
1, 10200, Note_on_c, 0, 57, 50
1, 10200, Note_on_c, 0, 72, 89
1, 10248, Note_on_c, 0, 57, 0
1, 10260, Note_on_c, 0, 62, 61
1, 10296, Note_on_c, 0, 72, 0
1, 10308, Note_on_c, 0, 62, 0
1, 10320, Note_on_c, 0, 54, 77
1, 10368, Note_on_c, 0, 54, 0
1, 10380, Note_on_c, 0, 62, 61
1, 10428, Note_on_c, 0, 62, 0
1, 10440, Note_on_c, 0, 72, 42
1, 10440, Note_on_c, 0, 57, 61
1, 10488, Note_on_c, 0, 57, 0
1, 10500, Note_on_c, 0, 62, 50
1, 10536, Note_on_c, 0, 72, 0
1, 10548, Note_on_c, 0, 62, 0
1, 10560, Note_on_c, 0, 71, 61
1, 10560, Note_on_c, 0, 55, 71
1, 10608, Note_on_c, 0, 71, 0
1, 10620, Note_on_c, 0, 79, 61
1, 10668, Note_on_c, 0, 79, 0
1, 10680, Note_on_c, 0, 78, 66
1, 10728, Note_on_c, 0, 78, 0
1, 10740, Note_on_c, 0, 79, 71
1, 10752, Note_on_c, 0, 55, 0
1, 10788, Note_on_c, 0, 79, 0
1, 10800, Note_on_c, 0, 81, 71
1, 10848, Note_on_c, 0, 81, 0
1, 10860, Note_on_c, 0, 79, 58
1, 10908, Note_on_c, 0, 79, 0
1, 10920, Note_on_c, 0, 78, 52
1, 10968, Note_on_c, 0, 78, 0
1, 10980, Note_on_c, 0, 79, 54
1, 11028, Note_on_c, 0, 79, 0
1, 11040, Note_on_c, 0, 74, 71
1, 11040, Note_on_c, 0, 67, 47
1, 11040, Note_on_c, 0, 59, 50
1, 11088, Note_on_c, 0, 74, 0
1, 11100, Note_on_c, 0, 77, 43
1, 11148, Note_on_c, 0, 77, 0
1, 11160, Note_on_c, 0, 76, 71
1, 11208, Note_on_c, 0, 76, 0
1, 11220, Note_on_c, 0, 77, 66
1, 11232, Note_on_c, 0, 59, 0
1, 11232, Note_on_c, 0, 67, 0
1, 11268, Note_on_c, 0, 77, 0
1, 11280, Note_on_c, 0, 79, 54
1, 11328, Note_on_c, 0, 79, 0
1, 11340, Note_on_c, 0, 77, 71
1, 11388, Note_on_c, 0, 77, 0
1, 11400, Note_on_c, 0, 76, 66
1, 11448, Note_on_c, 0, 76, 0
1, 11460, Note_on_c, 0, 77, 45
1, 11508, Note_on_c, 0, 77, 0
1, 11520, Note_on_c, 0, 60, 58
1, 11520, Note_on_c, 0, 76, 61
1, 11568, Note_on_c, 0, 60, 0
1, 11580, Note_on_c, 0, 67, 58
1, 11628, Note_on_c, 0, 67, 0
1, 11640, Note_on_c, 0, 64, 66
1, 11688, Note_on_c, 0, 64, 0
1, 11700, Note_on_c, 0, 67, 52
1, 11712, Note_on_c, 0, 76, 0
1, 11748, Note_on_c, 0, 67, 0
1, 11760, Note_on_c, 0, 76, 66
1, 11760, Note_on_c, 0, 60, 61
1, 11808, Note_on_c, 0, 60, 0
1, 11820, Note_on_c, 0, 67, 52
1, 11868, Note_on_c, 0, 67, 0
1, 11880, Note_on_c, 0, 64, 66
1, 11928, Note_on_c, 0, 64, 0
1, 11940, Note_on_c, 0, 67, 66
1, 11988, Note_on_c, 0, 67, 0
1, 12000, Note_on_c, 0, 60, 61
1, 12096, Note_on_c, 0, 76, 0
1, 12120, Note_on_c, 0, 79, 50
1, 12192, Note_on_c, 0, 60, 0
1, 12216, Note_on_c, 0, 79, 0
1, 12240, Note_on_c, 0, 78, 58
1, 12288, Note_on_c, 0, 78, 0
1, 12300, Note_on_c, 0, 76, 61
1, 12348, Note_on_c, 0, 76, 0
1, 12360, Note_on_c, 0, 74, 58
1, 12408, Note_on_c, 0, 74, 0
1, 12420, Note_on_c, 0, 72, 89
1, 12468, Note_on_c, 0, 72, 0
1, 12480, Note_on_c, 0, 55, 42
1, 12480, Note_on_c, 0, 50, 57
1, 12480, Note_on_c, 0, 71, 71
1, 12576, Note_on_c, 0, 71, 0
1, 12576, Note_on_c, 0, 50, 0
1, 12576, Note_on_c, 0, 55, 0
1, 12600, Note_on_c, 0, 50, 50
1, 12600, Note_on_c, 0, 74, 61
1, 12600, Note_on_c, 0, 55, 47
1, 12696, Note_on_c, 0, 55, 0
1, 12696, Note_on_c, 0, 74, 0
1, 12696, Note_on_c, 0, 50, 0
1, 12720, Note_on_c, 0, 55, 42
1, 12720, Note_on_c, 0, 50, 44
1, 12720, Note_on_c, 0, 72, 77
1, 12768, Note_on_c, 0, 72, 0
1, 12780, Note_on_c, 0, 71, 71
1, 12816, Note_on_c, 0, 50, 0
1, 12816, Note_on_c, 0, 55, 0
1, 12828, Note_on_c, 0, 71, 0
1, 12840, Note_on_c, 0, 69, 67
1, 12840, Note_on_c, 0, 50, 56
1, 12840, Note_on_c, 0, 55, 42
1, 12888, Note_on_c, 0, 69, 0
1, 12900, Note_on_c, 0, 67, 43
1, 12936, Note_on_c, 0, 55, 0
1, 12936, Note_on_c, 0, 50, 0
1, 12948, Note_on_c, 0, 67, 0
1, 12960, Note_on_c, 0, 71, 50
1, 12960, Note_on_c, 0, 54, 54
1, 12960, Note_on_c, 0, 50, 54
1, 12972, Note_on_c, 0, 71, 0
1, 12975, Note_on_c, 0, 69, 46
1, 12987, Note_on_c, 0, 69, 0
1, 12990, Note_on_c, 0, 71, 42
1, 13002, Note_on_c, 0, 71, 0
1, 13005, Note_on_c, 0, 69, 52
1, 13017, Note_on_c, 0, 69, 0
1, 13020, Note_on_c, 0, 71, 44
1, 13032, Note_on_c, 0, 71, 0
1, 13035, Note_on_c, 0, 69, 42
1, 13047, Note_on_c, 0, 69, 0
1, 13050, Note_on_c, 0, 71, 49
1, 13056, Note_on_c, 0, 50, 0
1, 13056, Note_on_c, 0, 54, 0
1, 13062, Note_on_c, 0, 71, 0
1, 13065, Note_on_c, 0, 69, 42
1, 13077, Note_on_c, 0, 69, 0
1, 13080, Note_on_c, 0, 71, 42
1, 13080, Note_on_c, 0, 54, 47
1, 13080, Note_on_c, 0, 50, 50
1, 13092, Note_on_c, 0, 71, 0
1, 13095, Note_on_c, 0, 69, 42
1, 13107, Note_on_c, 0, 69, 0
1, 13110, Note_on_c, 0, 71, 47
1, 13122, Note_on_c, 0, 71, 0
1, 13125, Note_on_c, 0, 69, 42
1, 13137, Note_on_c, 0, 69, 0
1, 13140, Note_on_c, 0, 71, 43
1, 13152, Note_on_c, 0, 71, 0
1, 13155, Note_on_c, 0, 69, 50
1, 13167, Note_on_c, 0, 69, 0
1, 13170, Note_on_c, 0, 71, 45
1, 13176, Note_on_c, 0, 50, 0
1, 13176, Note_on_c, 0, 54, 0
1, 13182, Note_on_c, 0, 71, 0
1, 13185, Note_on_c, 0, 69, 50
1, 13197, Note_on_c, 0, 69, 0
1, 13200, Note_on_c, 0, 71, 45
1, 13200, Note_on_c, 0, 54, 47
1, 13200, Note_on_c, 0, 50, 47
1, 13212, Note_on_c, 0, 71, 0
1, 13215, Note_on_c, 0, 69, 42
1, 13227, Note_on_c, 0, 69, 0
1, 13230, Note_on_c, 0, 71, 42
1, 13242, Note_on_c, 0, 71, 0
1, 13245, Note_on_c, 0, 69, 42
1, 13257, Note_on_c, 0, 69, 0
1, 13260, Note_on_c, 0, 71, 42
1, 13272, Note_on_c, 0, 71, 0
1, 13275, Note_on_c, 0, 69, 43
1, 13287, Note_on_c, 0, 69, 0
1, 13290, Note_on_c, 0, 71, 45
1, 13296, Note_on_c, 0, 50, 0
1, 13296, Note_on_c, 0, 54, 0
1, 13302, Note_on_c, 0, 71, 0
1, 13305, Note_on_c, 0, 69, 42
1, 13317, Note_on_c, 0, 69, 0
1, 13320, Note_on_c, 0, 71, 47
1, 13320, Note_on_c, 0, 54, 50
1, 13320, Note_on_c, 0, 50, 50
1, 13332, Note_on_c, 0, 71, 0
1, 13335, Note_on_c, 0, 69, 44
1, 13347, Note_on_c, 0, 69, 0
1, 13350, Note_on_c, 0, 71, 21
1, 13362, Note_on_c, 0, 71, 0
1, 13365, Note_on_c, 0, 69, 41
1, 13377, Note_on_c, 0, 69, 0
1, 13380, Note_on_c, 0, 71, 42
1, 13392, Note_on_c, 0, 71, 0
1, 13395, Note_on_c, 0, 69, 42
1, 13407, Note_on_c, 0, 69, 0
1, 13410, Note_on_c, 0, 71, 44
1, 13416, Note_on_c, 0, 50, 0
1, 13416, Note_on_c, 0, 54, 0
1, 13422, Note_on_c, 0, 71, 0
1, 13425, Note_on_c, 0, 69, 42
1, 13437, Note_on_c, 0, 69, 0
1, 13440, Note_on_c, 0, 67, 71
1, 13440, Note_on_c, 0, 55, 62
1, 13632, Note_on_c, 0, 55, 0
1, 13632, Note_on_c, 0, 67, 0
1, 13680, Note_on_c, 0, 59, 66
1, 13740, Note_on_c, 0, 74, 61
1, 13788, Note_on_c, 0, 74, 0
1, 13800, Note_on_c, 0, 71, 44
1, 13848, Note_on_c, 0, 71, 0
1, 13860, Note_on_c, 0, 67, 66
1, 13872, Note_on_c, 0, 59, 0
1, 13908, Note_on_c, 0, 67, 0
1, 13920, Note_on_c, 0, 60, 71
1, 13980, Note_on_c, 0, 76, 77
1, 14028, Note_on_c, 0, 76, 0
1, 14040, Note_on_c, 0, 75, 61
1, 14088, Note_on_c, 0, 75, 0
1, 14100, Note_on_c, 0, 76, 61
1, 14112, Note_on_c, 0, 60, 0
1, 14148, Note_on_c, 0, 76, 0
1, 14160, Note_on_c, 0, 62, 77
1, 14220, Note_on_c, 0, 72, 50
1, 14268, Note_on_c, 0, 72, 0
1, 14280, Note_on_c, 0, 69, 45
1, 14328, Note_on_c, 0, 69, 0
1, 14340, Note_on_c, 0, 66, 40
1, 14352, Note_on_c, 0, 62, 0
1, 14388, Note_on_c, 0, 66, 0
1, 14400, Note_on_c, 0, 67, 52
1, 14400, Note_on_c, 0, 64, 77
1, 14496, Note_on_c, 0, 67, 0
1, 14520, Note_on_c, 0, 71, 47
1, 14592, Note_on_c, 0, 64, 0
1, 14616, Note_on_c, 0, 71, 0
1, 14640, Note_on_c, 0, 59, 66
1, 14700, Note_on_c, 0, 74, 71
1, 14748, Note_on_c, 0, 74, 0
1, 14760, Note_on_c, 0, 71, 71
1, 14808, Note_on_c, 0, 71, 0
1, 14820, Note_on_c, 0, 67, 50
1, 14832, Note_on_c, 0, 59, 0
1, 14868, Note_on_c, 0, 67, 0
1, 14880, Note_on_c, 0, 60, 77
1, 14940, Note_on_c, 0, 76, 77
1, 14988, Note_on_c, 0, 76, 0
1, 15000, Note_on_c, 0, 75, 77
1, 15048, Note_on_c, 0, 75, 0
1, 15060, Note_on_c, 0, 76, 45
1, 15072, Note_on_c, 0, 60, 0
1, 15108, Note_on_c, 0, 76, 0
1, 15120, Note_on_c, 0, 62, 77
1, 15180, Note_on_c, 0, 72, 52
1, 15228, Note_on_c, 0, 72, 0
1, 15240, Note_on_c, 0, 69, 42
1, 15288, Note_on_c, 0, 69, 0
1, 15300, Note_on_c, 0, 66, 42
1, 15312, Note_on_c, 0, 62, 0
1, 15348, Note_on_c, 0, 66, 0
1, 15360, Note_on_c, 0, 67, 58
1, 15360, Note_on_c, 0, 55, 58
1, 15408, Note_on_c, 0, 55, 0
1, 15420, Note_on_c, 0, 62, 77
1, 15468, Note_on_c, 0, 62, 0
1, 15480, Note_on_c, 0, 59, 54
1, 15528, Note_on_c, 0, 59, 0
1, 15540, Note_on_c, 0, 62, 61
1, 15552, Note_on_c, 0, 67, 0
1, 15588, Note_on_c, 0, 62, 0
1, 15600, Note_on_c, 0, 71, 71
1, 15600, Note_on_c, 0, 79, 44
1, 15600, Note_on_c, 0, 55, 71
1, 15648, Note_on_c, 0, 55, 0
1, 15660, Note_on_c, 0, 62, 71
1, 15708, Note_on_c, 0, 62, 0
1, 15720, Note_on_c, 0, 59, 66
1, 15768, Note_on_c, 0, 59, 0
1, 15780, Note_on_c, 0, 62, 58
1, 15792, Note_on_c, 0, 79, 0
1, 15792, Note_on_c, 0, 71, 0
1, 15828, Note_on_c, 0, 62, 0
1, 15840, Note_on_c, 0, 71, 61
1, 15840, Note_on_c, 0, 79, 42
1, 15840, Note_on_c, 0, 55, 80
1, 16032, Note_on_c, 0, 55, 0
1, 16032, Note_on_c, 0, 79, 0
1, 16032, Note_on_c, 0, 71, 0
1, 16320, Note_on_c, 0, 72, 77
1, 16320, Note_on_c, 0, 60, 61
1, 16344, Note_on_c, 0, 72, 0
1, 16350, Note_on_c, 0, 71, 44
1, 16368, Note_on_c, 0, 60, 0
1, 16374, Note_on_c, 0, 71, 0
1, 16380, Note_on_c, 0, 67, 52
1, 16380, Note_on_c, 0, 72, 42
1, 16428, Note_on_c, 0, 67, 0
1, 16440, Note_on_c, 0, 64, 77
1, 16488, Note_on_c, 0, 64, 0
1, 16500, Note_on_c, 0, 67, 58
1, 16548, Note_on_c, 0, 67, 0
1, 16548, Note_on_c, 0, 72, 0
1, 16560, Note_on_c, 0, 76, 77
1, 16560, Note_on_c, 0, 60, 77
1, 16608, Note_on_c, 0, 60, 0
1, 16620, Note_on_c, 0, 67, 61
1, 16668, Note_on_c, 0, 67, 0
1, 16680, Note_on_c, 0, 64, 77
1, 16728, Note_on_c, 0, 64, 0
1, 16740, Note_on_c, 0, 67, 58
1, 16752, Note_on_c, 0, 76, 0
1, 16788, Note_on_c, 0, 67, 0
1, 16800, Note_on_c, 0, 79, 66
1, 16800, Note_on_c, 0, 60, 54
1, 16848, Note_on_c, 0, 60, 0
1, 16860, Note_on_c, 0, 67, 58
1, 16908, Note_on_c, 0, 67, 0
1, 16920, Note_on_c, 0, 64, 61
1, 16968, Note_on_c, 0, 64, 0
1, 16980, Note_on_c, 0, 67, 46
1, 16992, Note_on_c, 0, 79, 0
1, 17028, Note_on_c, 0, 67, 0
1, 17040, Note_on_c, 0, 84, 58
1, 17040, Note_on_c, 0, 60, 52
1, 17088, Note_on_c, 0, 60, 0
1, 17100, Note_on_c, 0, 67, 52
1, 17148, Note_on_c, 0, 67, 0
1, 17160, Note_on_c, 0, 64, 77
1, 17208, Note_on_c, 0, 64, 0
1, 17220, Note_on_c, 0, 67, 58
1, 17232, Note_on_c, 0, 84, 0
1, 17268, Note_on_c, 0, 67, 0
1, 17280, Note_on_c, 0, 72, 77
1, 17280, Note_on_c, 0, 60, 54
1, 17304, Note_on_c, 0, 72, 0
1, 17310, Note_on_c, 0, 71, 44
1, 17328, Note_on_c, 0, 60, 0
1, 17334, Note_on_c, 0, 71, 0
1, 17340, Note_on_c, 0, 69, 66
1, 17340, Note_on_c, 0, 72, 42
1, 17388, Note_on_c, 0, 69, 0
1, 17400, Note_on_c, 0, 65, 66
1, 17448, Note_on_c, 0, 65, 0
1, 17460, Note_on_c, 0, 69, 66
1, 17508, Note_on_c, 0, 72, 0
1, 17508, Note_on_c, 0, 69, 0
1, 17520, Note_on_c, 0, 60, 71
1, 17520, Note_on_c, 0, 77, 80
1, 17568, Note_on_c, 0, 60, 0
1, 17580, Note_on_c, 0, 69, 66
1, 17628, Note_on_c, 0, 69, 0
1, 17640, Note_on_c, 0, 65, 71
1, 17688, Note_on_c, 0, 65, 0
1, 17700, Note_on_c, 0, 69, 61
1, 17712, Note_on_c, 0, 77, 0
1, 17748, Note_on_c, 0, 69, 0
1, 17760, Note_on_c, 0, 81, 80
1, 17760, Note_on_c, 0, 60, 77
1, 17808, Note_on_c, 0, 60, 0
1, 17820, Note_on_c, 0, 69, 71
1, 17868, Note_on_c, 0, 69, 0
1, 17880, Note_on_c, 0, 65, 66
1, 17928, Note_on_c, 0, 65, 0
1, 17940, Note_on_c, 0, 69, 61
1, 17952, Note_on_c, 0, 81, 0
1, 17988, Note_on_c, 0, 69, 0
1, 18000, Note_on_c, 0, 84, 80
1, 18000, Note_on_c, 0, 60, 71
1, 18048, Note_on_c, 0, 60, 0
1, 18060, Note_on_c, 0, 69, 61
1, 18108, Note_on_c, 0, 69, 0
1, 18120, Note_on_c, 0, 65, 50
1, 18168, Note_on_c, 0, 65, 0
1, 18180, Note_on_c, 0, 69, 58
1, 18192, Note_on_c, 0, 84, 0
1, 18228, Note_on_c, 0, 69, 0
1, 18240, Note_on_c, 0, 72, 77
1, 18240, Note_on_c, 0, 60, 52
1, 18264, Note_on_c, 0, 72, 0
1, 18270, Note_on_c, 0, 71, 44
1, 18288, Note_on_c, 0, 60, 0
1, 18294, Note_on_c, 0, 71, 0
1, 18300, Note_on_c, 0, 67, 50
1, 18300, Note_on_c, 0, 72, 42
1, 18348, Note_on_c, 0, 67, 0
1, 18360, Note_on_c, 0, 64, 66
1, 18408, Note_on_c, 0, 64, 0
1, 18420, Note_on_c, 0, 67, 58
1, 18468, Note_on_c, 0, 72, 0
1, 18468, Note_on_c, 0, 67, 0
1, 18480, Note_on_c, 0, 60, 44
1, 18480, Note_on_c, 0, 76, 71
1, 18528, Note_on_c, 0, 60, 0
1, 18540, Note_on_c, 0, 67, 45
1, 18588, Note_on_c, 0, 67, 0
1, 18600, Note_on_c, 0, 64, 61
1, 18648, Note_on_c, 0, 64, 0
1, 18660, Note_on_c, 0, 67, 66
1, 18672, Note_on_c, 0, 76, 0
1, 18708, Note_on_c, 0, 67, 0
1, 18720, Note_on_c, 0, 79, 71
1, 18720, Note_on_c, 0, 60, 61
1, 18768, Note_on_c, 0, 60, 0
1, 18780, Note_on_c, 0, 67, 54
1, 18828, Note_on_c, 0, 67, 0
1, 18840, Note_on_c, 0, 64, 66
1, 18888, Note_on_c, 0, 64, 0
1, 18900, Note_on_c, 0, 67, 61
1, 18912, Note_on_c, 0, 79, 0
1, 18948, Note_on_c, 0, 67, 0
1, 18960, Note_on_c, 0, 84, 77
1, 18960, Note_on_c, 0, 60, 61
1, 19008, Note_on_c, 0, 60, 0
1, 19020, Note_on_c, 0, 67, 71
1, 19068, Note_on_c, 0, 67, 0
1, 19080, Note_on_c, 0, 64, 77
1, 19128, Note_on_c, 0, 64, 0
1, 19140, Note_on_c, 0, 67, 52
1, 19152, Note_on_c, 0, 84, 0
1, 19188, Note_on_c, 0, 67, 0
1, 19200, Note_on_c, 0, 77, 45
1, 19200, Note_on_c, 0, 59, 54
1, 19224, Note_on_c, 0, 77, 0
1, 19230, Note_on_c, 0, 76, 89
1, 19248, Note_on_c, 0, 59, 0
1, 19254, Note_on_c, 0, 76, 0
1, 19260, Note_on_c, 0, 77, 54
1, 19260, Note_on_c, 0, 67, 62
1, 19308, Note_on_c, 0, 67, 0
1, 19320, Note_on_c, 0, 62, 66
1, 19368, Note_on_c, 0, 62, 0
1, 19380, Note_on_c, 0, 67, 61
1, 19404, Note_on_c, 0, 77, 0
1, 19428, Note_on_c, 0, 67, 0
1, 19440, Note_on_c, 0, 59, 54
1, 19488, Note_on_c, 0, 59, 0
1, 19500, Note_on_c, 0, 67, 50
1, 19548, Note_on_c, 0, 67, 0
1, 19560, Note_on_c, 0, 62, 66
1, 19608, Note_on_c, 0, 62, 0
1, 19620, Note_on_c, 0, 67, 58
1, 19668, Note_on_c, 0, 67, 0
1, 19680, Note_on_c, 0, 76, 44
1, 19680, Note_on_c, 0, 60, 77
1, 19704, Note_on_c, 0, 76, 0
1, 19710, Note_on_c, 0, 74, 58
1, 19728, Note_on_c, 0, 60, 0
1, 19734, Note_on_c, 0, 74, 0
1, 19740, Note_on_c, 0, 76, 77
1, 19740, Note_on_c, 0, 67, 66
1, 19788, Note_on_c, 0, 67, 0
1, 19800, Note_on_c, 0, 64, 61
1, 19848, Note_on_c, 0, 64, 0
1, 19860, Note_on_c, 0, 67, 61
1, 19884, Note_on_c, 0, 76, 0
1, 19908, Note_on_c, 0, 67, 0
1, 19920, Note_on_c, 0, 60, 71
1, 19968, Note_on_c, 0, 60, 0
1, 19980, Note_on_c, 0, 67, 61
1, 20028, Note_on_c, 0, 67, 0
1, 20040, Note_on_c, 0, 64, 83
1, 20088, Note_on_c, 0, 64, 0
1, 20100, Note_on_c, 0, 67, 47
1, 20148, Note_on_c, 0, 67, 0
1, 20160, Note_on_c, 0, 77, 45
1, 20160, Note_on_c, 0, 59, 83
1, 20184, Note_on_c, 0, 77, 0
1, 20190, Note_on_c, 0, 76, 89
1, 20208, Note_on_c, 0, 59, 0
1, 20214, Note_on_c, 0, 76, 0
1, 20220, Note_on_c, 0, 77, 54
1, 20220, Note_on_c, 0, 67, 61
1, 20268, Note_on_c, 0, 67, 0
1, 20280, Note_on_c, 0, 62, 71
1, 20328, Note_on_c, 0, 62, 0
1, 20340, Note_on_c, 0, 67, 52
1, 20364, Note_on_c, 0, 77, 0
1, 20388, Note_on_c, 0, 67, 0
1, 20400, Note_on_c, 0, 59, 54
1, 20448, Note_on_c, 0, 59, 0
1, 20460, Note_on_c, 0, 67, 58
1, 20508, Note_on_c, 0, 67, 0
1, 20520, Note_on_c, 0, 62, 77
1, 20568, Note_on_c, 0, 62, 0
1, 20580, Note_on_c, 0, 67, 55
1, 20628, Note_on_c, 0, 67, 0
1, 20640, Note_on_c, 0, 76, 44
1, 20640, Note_on_c, 0, 60, 77
1, 20664, Note_on_c, 0, 76, 0
1, 20670, Note_on_c, 0, 74, 58
1, 20688, Note_on_c, 0, 60, 0
1, 20694, Note_on_c, 0, 74, 0
1, 20700, Note_on_c, 0, 76, 77
1, 20700, Note_on_c, 0, 67, 66
1, 20748, Note_on_c, 0, 67, 0
1, 20760, Note_on_c, 0, 64, 77
1, 20808, Note_on_c, 0, 64, 0
1, 20820, Note_on_c, 0, 67, 61
1, 20844, Note_on_c, 0, 76, 0
1, 20868, Note_on_c, 0, 67, 0
1, 20880, Note_on_c, 0, 60, 50
1, 20928, Note_on_c, 0, 60, 0
1, 20940, Note_on_c, 0, 67, 47
1, 20988, Note_on_c, 0, 67, 0
1, 21000, Note_on_c, 0, 64, 54
1, 21048, Note_on_c, 0, 64, 0
1, 21060, Note_on_c, 0, 67, 44
1, 21108, Note_on_c, 0, 67, 0
1, 21120, Note_on_c, 0, 65, 89
1, 21120, Note_on_c, 0, 74, 58
1, 21168, Note_on_c, 0, 74, 0
1, 21180, Note_on_c, 0, 73, 58
1, 21228, Note_on_c, 0, 73, 0
1, 21240, Note_on_c, 0, 74, 66
1, 21288, Note_on_c, 0, 74, 0
1, 21300, Note_on_c, 0, 76, 77
1, 21348, Note_on_c, 0, 76, 0
1, 21360, Note_on_c, 0, 77, 71
1, 21408, Note_on_c, 0, 77, 0
1, 21420, Note_on_c, 0, 76, 77
1, 21468, Note_on_c, 0, 76, 0
1, 21480, Note_on_c, 0, 77, 71
1, 21528, Note_on_c, 0, 77, 0
1, 21540, Note_on_c, 0, 79, 61
1, 21588, Note_on_c, 0, 79, 0
1, 21600, Note_on_c, 0, 81, 71
1, 21696, Note_on_c, 0, 81, 0
1, 21696, Note_on_c, 0, 65, 0
1, 21720, Note_on_c, 0, 69, 67
1, 21816, Note_on_c, 0, 69, 0
1, 21840, Note_on_c, 0, 71, 71
1, 21840, Note_on_c, 0, 66, 77
1, 21936, Note_on_c, 0, 71, 0
1, 21960, Note_on_c, 0, 72, 61
1, 22032, Note_on_c, 0, 66, 0
1, 22056, Note_on_c, 0, 72, 0
1, 22080, Note_on_c, 0, 72, 52
1, 22080, Note_on_c, 0, 67, 58
1, 22128, Note_on_c, 0, 72, 0
1, 22140, Note_on_c, 0, 71, 61
1, 22188, Note_on_c, 0, 71, 0
1, 22200, Note_on_c, 0, 69, 52
1, 22248, Note_on_c, 0, 69, 0
1, 22260, Note_on_c, 0, 67, 47
1, 22272, Note_on_c, 0, 67, 0
1, 22308, Note_on_c, 0, 67, 0
1, 22320, Note_on_c, 0, 67, 42
1, 22320, Note_on_c, 0, 59, 43
1, 22320, Note_on_c, 0, 55, 42
1, 22512, Note_on_c, 0, 55, 0
1, 22512, Note_on_c, 0, 59, 0
1, 22512, Note_on_c, 0, 67, 0
1, 22560, Note_on_c, 0, 67, 42
1, 22560, Note_on_c, 0, 55, 42
1, 22560, Note_on_c, 0, 59, 42
1, 22752, Note_on_c, 0, 59, 0
1, 22752, Note_on_c, 0, 55, 0
1, 22752, Note_on_c, 0, 67, 0
1, 23040, Note_on_c, 0, 71, 58
1, 23040, Note_on_c, 0, 55, 50
1, 23088, Note_on_c, 0, 55, 0
1, 23100, Note_on_c, 0, 62, 58
1, 23136, Note_on_c, 0, 71, 0
1, 23148, Note_on_c, 0, 62, 0
1, 23160, Note_on_c, 0, 74, 71
1, 23160, Note_on_c, 0, 59, 1
1, 23208, Note_on_c, 0, 59, 0
1, 23220, Note_on_c, 0, 62, 46
1, 23256, Note_on_c, 0, 74, 0
1, 23268, Note_on_c, 0, 62, 0
1, 23280, Note_on_c, 0, 55, 58
1, 23328, Note_on_c, 0, 55, 0
1, 23340, Note_on_c, 0, 62, 61
1, 23388, Note_on_c, 0, 62, 0
1, 23400, Note_on_c, 0, 74, 77
1, 23400, Note_on_c, 0, 59, 42
1, 23448, Note_on_c, 0, 59, 0
1, 23460, Note_on_c, 0, 62, 1
1, 23496, Note_on_c, 0, 74, 0
1, 23508, Note_on_c, 0, 62, 0
1, 23520, Note_on_c, 0, 79, 61
1, 23520, Note_on_c, 0, 55, 50
1, 23568, Note_on_c, 0, 55, 0
1, 23580, Note_on_c, 0, 62, 52
1, 23616, Note_on_c, 0, 79, 0
1, 23628, Note_on_c, 0, 62, 0
1, 23640, Note_on_c, 0, 59, 46
1, 23640, Note_on_c, 0, 74, 89
1, 23688, Note_on_c, 0, 59, 0
1, 23700, Note_on_c, 0, 62, 58
1, 23736, Note_on_c, 0, 74, 0
1, 23748, Note_on_c, 0, 62, 0
1, 23760, Note_on_c, 0, 55, 58
1, 23808, Note_on_c, 0, 55, 0
1, 23820, Note_on_c, 0, 62, 54
1, 23868, Note_on_c, 0, 62, 0
1, 23880, Note_on_c, 0, 71, 47
1, 23880, Note_on_c, 0, 59, 54
1, 23928, Note_on_c, 0, 59, 0
1, 23940, Note_on_c, 0, 62, 58
1, 23976, Note_on_c, 0, 71, 0
1, 23988, Note_on_c, 0, 62, 0
1, 24000, Note_on_c, 0, 72, 71
1, 24000, Note_on_c, 0, 54, 77
1, 24048, Note_on_c, 0, 54, 0
1, 24060, Note_on_c, 0, 62, 58
1, 24096, Note_on_c, 0, 72, 0
1, 24108, Note_on_c, 0, 62, 0
1, 24120, Note_on_c, 0, 69, 66
1, 24120, Note_on_c, 0, 57, 77
1, 24168, Note_on_c, 0, 57, 0
1, 24180, Note_on_c, 0, 62, 66
1, 24216, Note_on_c, 0, 69, 0
1, 24228, Note_on_c, 0, 62, 0
1, 24240, Note_on_c, 0, 54, 71
1, 24288, Note_on_c, 0, 54, 0
1, 24300, Note_on_c, 0, 62, 61
1, 24348, Note_on_c, 0, 62, 0
1, 24360, Note_on_c, 0, 78, 71
1, 24360, Note_on_c, 0, 57, 83
1, 24408, Note_on_c, 0, 57, 0
1, 24420, Note_on_c, 0, 62, 61
1, 24456, Note_on_c, 0, 78, 0
1, 24468, Note_on_c, 0, 62, 0
1, 24480, Note_on_c, 0, 81, 66
1, 24480, Note_on_c, 0, 54, 78
1, 24528, Note_on_c, 0, 54, 0
1, 24540, Note_on_c, 0, 62, 62
1, 24576, Note_on_c, 0, 81, 0
1, 24588, Note_on_c, 0, 62, 0
1, 24600, Note_on_c, 0, 57, 83
1, 24600, Note_on_c, 0, 72, 77
1, 24648, Note_on_c, 0, 57, 0
1, 24660, Note_on_c, 0, 62, 58
1, 24696, Note_on_c, 0, 72, 0
1, 24708, Note_on_c, 0, 62, 0
1, 24720, Note_on_c, 0, 54, 66
1, 24768, Note_on_c, 0, 54, 0
1, 24780, Note_on_c, 0, 62, 50
1, 24828, Note_on_c, 0, 62, 0
1, 24840, Note_on_c, 0, 72, 71
1, 24840, Note_on_c, 0, 57, 77
1, 24888, Note_on_c, 0, 57, 0
1, 24900, Note_on_c, 0, 62, 66
1, 24936, Note_on_c, 0, 72, 0
1, 24948, Note_on_c, 0, 62, 0
1, 24960, Note_on_c, 0, 71, 61
1, 24960, Note_on_c, 0, 55, 71
1, 25008, Note_on_c, 0, 55, 0
1, 25020, Note_on_c, 0, 62, 71
1, 25056, Note_on_c, 0, 71, 0
1, 25068, Note_on_c, 0, 62, 0
1, 25080, Note_on_c, 0, 74, 58
1, 25080, Note_on_c, 0, 59, 89
1, 25128, Note_on_c, 0, 59, 0
1, 25140, Note_on_c, 0, 62, 61
1, 25176, Note_on_c, 0, 74, 0
1, 25188, Note_on_c, 0, 62, 0
1, 25200, Note_on_c, 0, 55, 77
1, 25248, Note_on_c, 0, 55, 0
1, 25260, Note_on_c, 0, 62, 71
1, 25308, Note_on_c, 0, 62, 0
1, 25320, Note_on_c, 0, 74, 77
1, 25320, Note_on_c, 0, 59, 77
1, 25368, Note_on_c, 0, 59, 0
1, 25380, Note_on_c, 0, 62, 66
1, 25416, Note_on_c, 0, 74, 0
1, 25428, Note_on_c, 0, 62, 0
1, 25440, Note_on_c, 0, 79, 66
1, 25440, Note_on_c, 0, 55, 67
1, 25488, Note_on_c, 0, 55, 0
1, 25500, Note_on_c, 0, 62, 58
1, 25536, Note_on_c, 0, 79, 0
1, 25548, Note_on_c, 0, 62, 0
1, 25560, Note_on_c, 0, 59, 78
1, 25560, Note_on_c, 0, 74, 71
1, 25608, Note_on_c, 0, 59, 0
1, 25620, Note_on_c, 0, 62, 66
1, 25656, Note_on_c, 0, 74, 0
1, 25668, Note_on_c, 0, 62, 0
1, 25680, Note_on_c, 0, 55, 66
1, 25728, Note_on_c, 0, 55, 0
1, 25740, Note_on_c, 0, 62, 71
1, 25788, Note_on_c, 0, 62, 0
1, 25800, Note_on_c, 0, 71, 61
1, 25800, Note_on_c, 0, 59, 83
1, 25848, Note_on_c, 0, 59, 0
1, 25860, Note_on_c, 0, 62, 42
1, 25896, Note_on_c, 0, 71, 0
1, 25908, Note_on_c, 0, 62, 0
1, 25920, Note_on_c, 0, 72, 66
1, 25920, Note_on_c, 0, 54, 58
1, 25968, Note_on_c, 0, 54, 0
1, 25980, Note_on_c, 0, 62, 66
1, 26016, Note_on_c, 0, 72, 0
1, 26028, Note_on_c, 0, 62, 0
1, 26040, Note_on_c, 0, 69, 58
1, 26040, Note_on_c, 0, 57, 71
1, 26088, Note_on_c, 0, 57, 0
1, 26100, Note_on_c, 0, 62, 71
1, 26136, Note_on_c, 0, 69, 0
1, 26148, Note_on_c, 0, 62, 0
1, 26160, Note_on_c, 0, 54, 83
1, 26208, Note_on_c, 0, 54, 0
1, 26220, Note_on_c, 0, 62, 58
1, 26268, Note_on_c, 0, 62, 0
1, 26280, Note_on_c, 0, 78, 77
1, 26280, Note_on_c, 0, 57, 71
1, 26328, Note_on_c, 0, 57, 0
1, 26340, Note_on_c, 0, 62, 77
1, 26376, Note_on_c, 0, 78, 0
1, 26388, Note_on_c, 0, 62, 0
1, 26400, Note_on_c, 0, 81, 58
1, 26400, Note_on_c, 0, 54, 77
1, 26448, Note_on_c, 0, 54, 0
1, 26460, Note_on_c, 0, 62, 54
1, 26496, Note_on_c, 0, 81, 0
1, 26508, Note_on_c, 0, 62, 0
1, 26520, Note_on_c, 0, 57, 50
1, 26520, Note_on_c, 0, 72, 89
1, 26568, Note_on_c, 0, 57, 0
1, 26580, Note_on_c, 0, 62, 61
1, 26616, Note_on_c, 0, 72, 0
1, 26628, Note_on_c, 0, 62, 0
1, 26640, Note_on_c, 0, 54, 77
1, 26688, Note_on_c, 0, 54, 0
1, 26700, Note_on_c, 0, 62, 61
1, 26748, Note_on_c, 0, 62, 0
1, 26760, Note_on_c, 0, 72, 42
1, 26760, Note_on_c, 0, 57, 61
1, 26808, Note_on_c, 0, 57, 0
1, 26820, Note_on_c, 0, 62, 50
1, 26856, Note_on_c, 0, 72, 0
1, 26868, Note_on_c, 0, 62, 0
1, 26880, Note_on_c, 0, 71, 61
1, 26880, Note_on_c, 0, 55, 71
1, 26928, Note_on_c, 0, 71, 0
1, 26940, Note_on_c, 0, 79, 61
1, 26988, Note_on_c, 0, 79, 0
1, 27000, Note_on_c, 0, 78, 66
1, 27048, Note_on_c, 0, 78, 0
1, 27060, Note_on_c, 0, 79, 71
1, 27072, Note_on_c, 0, 55, 0
1, 27108, Note_on_c, 0, 79, 0
1, 27120, Note_on_c, 0, 81, 71
1, 27168, Note_on_c, 0, 81, 0
1, 27180, Note_on_c, 0, 79, 58
1, 27228, Note_on_c, 0, 79, 0
1, 27240, Note_on_c, 0, 78, 52
1, 27288, Note_on_c, 0, 78, 0
1, 27300, Note_on_c, 0, 79, 54
1, 27348, Note_on_c, 0, 79, 0
1, 27360, Note_on_c, 0, 74, 71
1, 27360, Note_on_c, 0, 67, 47
1, 27360, Note_on_c, 0, 59, 50
1, 27408, Note_on_c, 0, 74, 0
1, 27420, Note_on_c, 0, 77, 43
1, 27468, Note_on_c, 0, 77, 0
1, 27480, Note_on_c, 0, 76, 71
1, 27528, Note_on_c, 0, 76, 0
1, 27540, Note_on_c, 0, 77, 66
1, 27552, Note_on_c, 0, 59, 0
1, 27552, Note_on_c, 0, 67, 0
1, 27588, Note_on_c, 0, 77, 0
1, 27600, Note_on_c, 0, 79, 54
1, 27648, Note_on_c, 0, 79, 0
1, 27660, Note_on_c, 0, 77, 71
1, 27708, Note_on_c, 0, 77, 0
1, 27720, Note_on_c, 0, 76, 66
1, 27768, Note_on_c, 0, 76, 0
1, 27780, Note_on_c, 0, 77, 45
1, 27828, Note_on_c, 0, 77, 0
1, 27840, Note_on_c, 0, 60, 58
1, 27840, Note_on_c, 0, 76, 61
1, 27888, Note_on_c, 0, 60, 0
1, 27900, Note_on_c, 0, 67, 58
1, 27948, Note_on_c, 0, 67, 0
1, 27960, Note_on_c, 0, 64, 66
1, 28008, Note_on_c, 0, 64, 0
1, 28020, Note_on_c, 0, 67, 52
1, 28032, Note_on_c, 0, 76, 0
1, 28068, Note_on_c, 0, 67, 0
1, 28080, Note_on_c, 0, 76, 66
1, 28080, Note_on_c, 0, 60, 61
1, 28128, Note_on_c, 0, 60, 0
1, 28140, Note_on_c, 0, 67, 52
1, 28188, Note_on_c, 0, 67, 0
1, 28200, Note_on_c, 0, 64, 66
1, 28248, Note_on_c, 0, 64, 0
1, 28260, Note_on_c, 0, 67, 66
1, 28308, Note_on_c, 0, 67, 0
1, 28320, Note_on_c, 0, 60, 61
1, 28416, Note_on_c, 0, 76, 0
1, 28440, Note_on_c, 0, 79, 50
1, 28512, Note_on_c, 0, 60, 0
1, 28536, Note_on_c, 0, 79, 0
1, 28560, Note_on_c, 0, 78, 58
1, 28608, Note_on_c, 0, 78, 0
1, 28620, Note_on_c, 0, 76, 61
1, 28668, Note_on_c, 0, 76, 0
1, 28680, Note_on_c, 0, 74, 58
1, 28728, Note_on_c, 0, 74, 0
1, 28740, Note_on_c, 0, 72, 89
1, 28788, Note_on_c, 0, 72, 0
1, 28800, Note_on_c, 0, 55, 42
1, 28800, Note_on_c, 0, 50, 57
1, 28800, Note_on_c, 0, 71, 71
1, 28896, Note_on_c, 0, 71, 0
1, 28896, Note_on_c, 0, 50, 0
1, 28896, Note_on_c, 0, 55, 0
1, 28920, Note_on_c, 0, 50, 50
1, 28920, Note_on_c, 0, 74, 61
1, 28920, Note_on_c, 0, 55, 47
1, 29016, Note_on_c, 0, 55, 0
1, 29016, Note_on_c, 0, 74, 0
1, 29016, Note_on_c, 0, 50, 0
1, 29040, Note_on_c, 0, 55, 42
1, 29040, Note_on_c, 0, 50, 44
1, 29040, Note_on_c, 0, 72, 77
1, 29088, Note_on_c, 0, 72, 0
1, 29100, Note_on_c, 0, 71, 71
1, 29136, Note_on_c, 0, 50, 0
1, 29136, Note_on_c, 0, 55, 0
1, 29148, Note_on_c, 0, 71, 0
1, 29160, Note_on_c, 0, 69, 67
1, 29160, Note_on_c, 0, 50, 56
1, 29160, Note_on_c, 0, 55, 42
1, 29208, Note_on_c, 0, 69, 0
1, 29220, Note_on_c, 0, 67, 43
1, 29256, Note_on_c, 0, 55, 0
1, 29256, Note_on_c, 0, 50, 0
1, 29268, Note_on_c, 0, 67, 0
1, 29280, Note_on_c, 0, 71, 50
1, 29280, Note_on_c, 0, 54, 54
1, 29280, Note_on_c, 0, 50, 54
1, 29292, Note_on_c, 0, 71, 0
1, 29295, Note_on_c, 0, 69, 46
1, 29307, Note_on_c, 0, 69, 0
1, 29310, Note_on_c, 0, 71, 42
1, 29322, Note_on_c, 0, 71, 0
1, 29325, Note_on_c, 0, 69, 52
1, 29337, Note_on_c, 0, 69, 0
1, 29340, Note_on_c, 0, 71, 44
1, 29352, Note_on_c, 0, 71, 0
1, 29355, Note_on_c, 0, 69, 42
1, 29367, Note_on_c, 0, 69, 0
1, 29370, Note_on_c, 0, 71, 49
1, 29376, Note_on_c, 0, 50, 0
1, 29376, Note_on_c, 0, 54, 0
1, 29382, Note_on_c, 0, 71, 0
1, 29385, Note_on_c, 0, 69, 42
1, 29397, Note_on_c, 0, 69, 0
1, 29400, Note_on_c, 0, 71, 42
1, 29400, Note_on_c, 0, 54, 47
1, 29400, Note_on_c, 0, 50, 50
1, 29412, Note_on_c, 0, 71, 0
1, 29415, Note_on_c, 0, 69, 42
1, 29427, Note_on_c, 0, 69, 0
1, 29430, Note_on_c, 0, 71, 47
1, 29442, Note_on_c, 0, 71, 0
1, 29445, Note_on_c, 0, 69, 42
1, 29457, Note_on_c, 0, 69, 0
1, 29460, Note_on_c, 0, 71, 43
1, 29472, Note_on_c, 0, 71, 0
1, 29475, Note_on_c, 0, 69, 50
1, 29487, Note_on_c, 0, 69, 0
1, 29490, Note_on_c, 0, 71, 45
1, 29496, Note_on_c, 0, 50, 0
1, 29496, Note_on_c, 0, 54, 0
1, 29502, Note_on_c, 0, 71, 0
1, 29505, Note_on_c, 0, 69, 50
1, 29517, Note_on_c, 0, 69, 0
1, 29520, Note_on_c, 0, 71, 45
1, 29520, Note_on_c, 0, 54, 47
1, 29520, Note_on_c, 0, 50, 47
1, 29532, Note_on_c, 0, 71, 0
1, 29535, Note_on_c, 0, 69, 42
1, 29547, Note_on_c, 0, 69, 0
1, 29550, Note_on_c, 0, 71, 42
1, 29562, Note_on_c, 0, 71, 0
1, 29565, Note_on_c, 0, 69, 42
1, 29577, Note_on_c, 0, 69, 0
1, 29580, Note_on_c, 0, 71, 42
1, 29592, Note_on_c, 0, 71, 0
1, 29595, Note_on_c, 0, 69, 43
1, 29607, Note_on_c, 0, 69, 0
1, 29610, Note_on_c, 0, 71, 45
1, 29616, Note_on_c, 0, 50, 0
1, 29616, Note_on_c, 0, 54, 0
1, 29622, Note_on_c, 0, 71, 0
1, 29625, Note_on_c, 0, 69, 42
1, 29637, Note_on_c, 0, 69, 0
1, 29640, Note_on_c, 0, 71, 47
1, 29640, Note_on_c, 0, 54, 50
1, 29640, Note_on_c, 0, 50, 50
1, 29652, Note_on_c, 0, 71, 0
1, 29655, Note_on_c, 0, 69, 44
1, 29667, Note_on_c, 0, 69, 0
1, 29670, Note_on_c, 0, 71, 21
1, 29682, Note_on_c, 0, 71, 0
1, 29685, Note_on_c, 0, 69, 41
1, 29697, Note_on_c, 0, 69, 0
1, 29700, Note_on_c, 0, 71, 42
1, 29712, Note_on_c, 0, 71, 0
1, 29715, Note_on_c, 0, 69, 42
1, 29727, Note_on_c, 0, 69, 0
1, 29730, Note_on_c, 0, 71, 44
1, 29736, Note_on_c, 0, 50, 0
1, 29736, Note_on_c, 0, 54, 0
1, 29742, Note_on_c, 0, 71, 0
1, 29745, Note_on_c, 0, 69, 42
1, 29757, Note_on_c, 0, 69, 0
1, 29760, Note_on_c, 0, 67, 71
1, 29760, Note_on_c, 0, 55, 62
1, 29952, Note_on_c, 0, 55, 0
1, 29952, Note_on_c, 0, 67, 0
1, 30000, Note_on_c, 0, 59, 66
1, 30060, Note_on_c, 0, 74, 61
1, 30108, Note_on_c, 0, 74, 0
1, 30120, Note_on_c, 0, 71, 44
1, 30168, Note_on_c, 0, 71, 0
1, 30180, Note_on_c, 0, 67, 66
1, 30192, Note_on_c, 0, 59, 0
1, 30228, Note_on_c, 0, 67, 0
1, 30240, Note_on_c, 0, 60, 71
1, 30300, Note_on_c, 0, 76, 77
1, 30348, Note_on_c, 0, 76, 0
1, 30360, Note_on_c, 0, 75, 61
1, 30408, Note_on_c, 0, 75, 0
1, 30420, Note_on_c, 0, 76, 61
1, 30432, Note_on_c, 0, 60, 0
1, 30468, Note_on_c, 0, 76, 0
1, 30480, Note_on_c, 0, 62, 77
1, 30540, Note_on_c, 0, 72, 50
1, 30588, Note_on_c, 0, 72, 0
1, 30600, Note_on_c, 0, 69, 45
1, 30648, Note_on_c, 0, 69, 0
1, 30660, Note_on_c, 0, 66, 40
1, 30672, Note_on_c, 0, 62, 0
1, 30708, Note_on_c, 0, 66, 0
1, 30720, Note_on_c, 0, 67, 52
1, 30720, Note_on_c, 0, 64, 77
1, 30816, Note_on_c, 0, 67, 0
1, 30840, Note_on_c, 0, 71, 47
1, 30912, Note_on_c, 0, 64, 0
1, 30936, Note_on_c, 0, 71, 0
1, 30960, Note_on_c, 0, 59, 66
1, 31020, Note_on_c, 0, 74, 71
1, 31068, Note_on_c, 0, 74, 0
1, 31080, Note_on_c, 0, 71, 71
1, 31128, Note_on_c, 0, 71, 0
1, 31140, Note_on_c, 0, 67, 50
1, 31152, Note_on_c, 0, 59, 0
1, 31188, Note_on_c, 0, 67, 0
1, 31200, Note_on_c, 0, 60, 77
1, 31260, Note_on_c, 0, 76, 77
1, 31308, Note_on_c, 0, 76, 0
1, 31320, Note_on_c, 0, 75, 77
1, 31368, Note_on_c, 0, 75, 0
1, 31380, Note_on_c, 0, 76, 45
1, 31392, Note_on_c, 0, 60, 0
1, 31428, Note_on_c, 0, 76, 0
1, 31440, Note_on_c, 0, 62, 77
1, 31500, Note_on_c, 0, 72, 52
1, 31548, Note_on_c, 0, 72, 0
1, 31560, Note_on_c, 0, 69, 42
1, 31608, Note_on_c, 0, 69, 0
1, 31620, Note_on_c, 0, 66, 42
1, 31632, Note_on_c, 0, 62, 0
1, 31668, Note_on_c, 0, 66, 0
1, 31680, Note_on_c, 0, 67, 58
1, 31680, Note_on_c, 0, 55, 58
1, 31728, Note_on_c, 0, 55, 0
1, 31740, Note_on_c, 0, 62, 77
1, 31788, Note_on_c, 0, 62, 0
1, 31800, Note_on_c, 0, 59, 54
1, 31848, Note_on_c, 0, 59, 0
1, 31860, Note_on_c, 0, 62, 61
1, 31872, Note_on_c, 0, 67, 0
1, 31908, Note_on_c, 0, 62, 0
1, 31920, Note_on_c, 0, 71, 71
1, 31920, Note_on_c, 0, 79, 44
1, 31920, Note_on_c, 0, 55, 71
1, 31968, Note_on_c, 0, 55, 0
1, 31980, Note_on_c, 0, 62, 71
1, 32028, Note_on_c, 0, 62, 0
1, 32040, Note_on_c, 0, 59, 66
1, 32088, Note_on_c, 0, 59, 0
1, 32100, Note_on_c, 0, 62, 58
1, 32112, Note_on_c, 0, 79, 0
1, 32112, Note_on_c, 0, 71, 0
1, 32148, Note_on_c, 0, 62, 0
1, 32160, Note_on_c, 0, 71, 61
1, 32160, Note_on_c, 0, 79, 42
1, 32160, Note_on_c, 0, 55, 80
1, 32352, Note_on_c, 0, 55, 0
1, 32352, Note_on_c, 0, 79, 0
1, 32352, Note_on_c, 0, 71, 0
1, 32640, Note_on_c, 0, 67, 43
1, 32640, Note_on_c, 0, 55, 52
1, 32664, Note_on_c, 0, 67, 0
1, 32670, Note_on_c, 0, 66, 66
1, 32688, Note_on_c, 0, 55, 0
1, 32694, Note_on_c, 0, 66, 0
1, 32700, Note_on_c, 0, 62, 50
1, 32700, Note_on_c, 0, 67, 54
1, 32748, Note_on_c, 0, 62, 0
1, 32760, Note_on_c, 0, 58, 83
1, 32808, Note_on_c, 0, 58, 0
1, 32820, Note_on_c, 0, 62, 54
1, 32844, Note_on_c, 0, 67, 0
1, 32868, Note_on_c, 0, 62, 0
1, 32880, Note_on_c, 0, 70, 112
1, 32880, Note_on_c, 0, 55, 58
1, 32928, Note_on_c, 0, 55, 0
1, 32940, Note_on_c, 0, 62, 43
1, 32988, Note_on_c, 0, 62, 0
1, 33000, Note_on_c, 0, 58, 54
1, 33048, Note_on_c, 0, 58, 0
1, 33060, Note_on_c, 0, 62, 50
1, 33072, Note_on_c, 0, 70, 0
1, 33108, Note_on_c, 0, 62, 0
1, 33120, Note_on_c, 0, 74, 97
1, 33120, Note_on_c, 0, 55, 61
1, 33168, Note_on_c, 0, 55, 0
1, 33180, Note_on_c, 0, 62, 54
1, 33228, Note_on_c, 0, 62, 0
1, 33240, Note_on_c, 0, 58, 42
1, 33288, Note_on_c, 0, 58, 0
1, 33300, Note_on_c, 0, 62, 61
1, 33312, Note_on_c, 0, 74, 0
1, 33348, Note_on_c, 0, 62, 0
1, 33360, Note_on_c, 0, 79, 71
1, 33360, Note_on_c, 0, 55, 61
1, 33408, Note_on_c, 0, 55, 0
1, 33420, Note_on_c, 0, 62, 52
1, 33468, Note_on_c, 0, 62, 0
1, 33480, Note_on_c, 0, 58, 50
1, 33528, Note_on_c, 0, 58, 0
1, 33540, Note_on_c, 0, 62, 42
1, 33552, Note_on_c, 0, 79, 0
1, 33588, Note_on_c, 0, 62, 0
1, 33600, Note_on_c, 0, 69, 54
1, 33600, Note_on_c, 0, 55, 52
1, 33624, Note_on_c, 0, 69, 0
1, 33630, Note_on_c, 0, 68, 50
1, 33648, Note_on_c, 0, 55, 0
1, 33654, Note_on_c, 0, 68, 0
1, 33660, Note_on_c, 0, 69, 77
1, 33660, Note_on_c, 0, 64, 58
1, 33708, Note_on_c, 0, 64, 0
1, 33720, Note_on_c, 0, 61, 54
1, 33768, Note_on_c, 0, 61, 0
1, 33780, Note_on_c, 0, 64, 66
1, 33804, Note_on_c, 0, 69, 0
1, 33828, Note_on_c, 0, 64, 0
1, 33840, Note_on_c, 0, 73, 114
1, 33840, Note_on_c, 0, 55, 66
1, 33888, Note_on_c, 0, 55, 0
1, 33900, Note_on_c, 0, 64, 66
1, 33948, Note_on_c, 0, 64, 0
1, 33960, Note_on_c, 0, 61, 52
1, 34008, Note_on_c, 0, 61, 0
1, 34020, Note_on_c, 0, 64, 71
1, 34032, Note_on_c, 0, 73, 0
1, 34068, Note_on_c, 0, 64, 0
1, 34080, Note_on_c, 0, 76, 89
1, 34080, Note_on_c, 0, 55, 66
1, 34128, Note_on_c, 0, 55, 0
1, 34140, Note_on_c, 0, 64, 58
1, 34188, Note_on_c, 0, 64, 0
1, 34200, Note_on_c, 0, 61, 52
1, 34248, Note_on_c, 0, 61, 0
1, 34260, Note_on_c, 0, 64, 61
1, 34272, Note_on_c, 0, 76, 0
1, 34308, Note_on_c, 0, 64, 0
1, 34320, Note_on_c, 0, 81, 71
1, 34320, Note_on_c, 0, 55, 55
1, 34368, Note_on_c, 0, 55, 0
1, 34380, Note_on_c, 0, 64, 66
1, 34428, Note_on_c, 0, 64, 0
1, 34440, Note_on_c, 0, 61, 50
1, 34488, Note_on_c, 0, 61, 0
1, 34500, Note_on_c, 0, 64, 58
1, 34512, Note_on_c, 0, 81, 0
1, 34548, Note_on_c, 0, 64, 0
1, 34560, Note_on_c, 0, 69, 54
1, 34560, Note_on_c, 0, 53, 71
1, 34584, Note_on_c, 0, 69, 0
1, 34590, Note_on_c, 0, 68, 47
1, 34608, Note_on_c, 0, 53, 0
1, 34614, Note_on_c, 0, 68, 0
1, 34620, Note_on_c, 0, 62, 50
1, 34620, Note_on_c, 0, 69, 58
1, 34668, Note_on_c, 0, 62, 0
1, 34680, Note_on_c, 0, 57, 61
1, 34728, Note_on_c, 0, 57, 0
1, 34740, Note_on_c, 0, 62, 52
1, 34764, Note_on_c, 0, 69, 0
1, 34788, Note_on_c, 0, 62, 0
1, 34800, Note_on_c, 0, 74, 69
1, 34800, Note_on_c, 0, 53, 54
1, 34848, Note_on_c, 0, 53, 0
1, 34860, Note_on_c, 0, 62, 44
1, 34908, Note_on_c, 0, 62, 0
1, 34920, Note_on_c, 0, 57, 43
1, 34968, Note_on_c, 0, 57, 0
1, 34980, Note_on_c, 0, 62, 52
1, 34992, Note_on_c, 0, 74, 0
1, 35028, Note_on_c, 0, 62, 0
1, 35040, Note_on_c, 0, 77, 89
1, 35040, Note_on_c, 0, 53, 43
1, 35088, Note_on_c, 0, 53, 0
1, 35100, Note_on_c, 0, 62, 45
1, 35148, Note_on_c, 0, 62, 0
1, 35160, Note_on_c, 0, 57, 52
1, 35208, Note_on_c, 0, 57, 0
1, 35220, Note_on_c, 0, 62, 61
1, 35232, Note_on_c, 0, 77, 0
1, 35268, Note_on_c, 0, 62, 0
1, 35280, Note_on_c, 0, 81, 77
1, 35280, Note_on_c, 0, 53, 66
1, 35328, Note_on_c, 0, 53, 0
1, 35340, Note_on_c, 0, 62, 54
1, 35388, Note_on_c, 0, 62, 0
1, 35400, Note_on_c, 0, 57, 71
1, 35448, Note_on_c, 0, 57, 0
1, 35460, Note_on_c, 0, 62, 66
1, 35472, Note_on_c, 0, 81, 0
1, 35508, Note_on_c, 0, 62, 0
1, 35520, Note_on_c, 0, 80, 83
1, 35520, Note_on_c, 0, 52, 42
1, 35544, Note_on_c, 0, 80, 0
1, 35550, Note_on_c, 0, 78, 58
1, 35568, Note_on_c, 0, 52, 0
1, 35574, Note_on_c, 0, 78, 0
1, 35580, Note_on_c, 0, 80, 80
1, 35580, Note_on_c, 0, 62, 52
1, 35628, Note_on_c, 0, 62, 0
1, 35640, Note_on_c, 0, 59, 71
1, 35688, Note_on_c, 0, 59, 0
1, 35700, Note_on_c, 0, 62, 61
1, 35724, Note_on_c, 0, 80, 0
1, 35748, Note_on_c, 0, 62, 0
1, 35760, Note_on_c, 0, 52, 52
1, 35808, Note_on_c, 0, 52, 0
1, 35820, Note_on_c, 0, 62, 42
1, 35868, Note_on_c, 0, 62, 0
1, 35880, Note_on_c, 0, 59, 46
1, 35928, Note_on_c, 0, 59, 0
1, 35940, Note_on_c, 0, 62, 50
1, 35988, Note_on_c, 0, 62, 0
1, 36000, Note_on_c, 0, 81, 52
1, 36000, Note_on_c, 0, 52, 58
1, 36024, Note_on_c, 0, 81, 0
1, 36030, Note_on_c, 0, 80, 77
1, 36048, Note_on_c, 0, 52, 0
1, 36054, Note_on_c, 0, 80, 0
1, 36060, Note_on_c, 0, 81, 80
1, 36060, Note_on_c, 0, 60, 61
1, 36108, Note_on_c, 0, 60, 0
1, 36120, Note_on_c, 0, 57, 71
1, 36168, Note_on_c, 0, 57, 0
1, 36180, Note_on_c, 0, 60, 61
1, 36204, Note_on_c, 0, 81, 0
1, 36228, Note_on_c, 0, 60, 0
1, 36240, Note_on_c, 0, 52, 61
1, 36288, Note_on_c, 0, 52, 0
1, 36300, Note_on_c, 0, 60, 61
1, 36348, Note_on_c, 0, 60, 0
1, 36360, Note_on_c, 0, 57, 61
1, 36408, Note_on_c, 0, 57, 0
1, 36420, Note_on_c, 0, 60, 54
1, 36468, Note_on_c, 0, 60, 0
1, 36480, Note_on_c, 0, 74, 58
1, 36480, Note_on_c, 0, 52, 58
1, 36504, Note_on_c, 0, 74, 0
1, 36510, Note_on_c, 0, 73, 43
1, 36528, Note_on_c, 0, 52, 0
1, 36534, Note_on_c, 0, 73, 0
1, 36540, Note_on_c, 0, 74, 80
1, 36540, Note_on_c, 0, 59, 50
1, 36588, Note_on_c, 0, 59, 0
1, 36600, Note_on_c, 0, 56, 54
1, 36648, Note_on_c, 0, 56, 0
1, 36660, Note_on_c, 0, 59, 42
1, 36684, Note_on_c, 0, 74, 0
1, 36708, Note_on_c, 0, 59, 0
1, 36720, Note_on_c, 0, 52, 54
1, 36768, Note_on_c, 0, 52, 0
1, 36780, Note_on_c, 0, 59, 43
1, 36828, Note_on_c, 0, 59, 0
1, 36840, Note_on_c, 0, 56, 31
1, 36888, Note_on_c, 0, 56, 0
1, 36900, Note_on_c, 0, 59, 42
1, 36948, Note_on_c, 0, 59, 0
1, 36960, Note_on_c, 0, 72, 42
1, 36960, Note_on_c, 0, 52, 61
1, 36984, Note_on_c, 0, 72, 0
1, 36990, Note_on_c, 0, 71, 43
1, 37008, Note_on_c, 0, 52, 0
1, 37014, Note_on_c, 0, 71, 0
1, 37020, Note_on_c, 0, 60, 66
1, 37020, Note_on_c, 0, 72, 58
1, 37020, Note_on_c, 0, 72, 58
1, 37068, Note_on_c, 0, 60, 0
1, 37080, Note_on_c, 0, 57, 61
1, 37128, Note_on_c, 0, 57, 0
1, 37140, Note_on_c, 0, 60, 47
1, 37164, Note_on_c, 0, 72, 0
1, 37164, Note_on_c, 0, 72, 0
1, 37188, Note_on_c, 0, 60, 0
1, 37200, Note_on_c, 0, 52, 58
1, 37248, Note_on_c, 0, 52, 0
1, 37260, Note_on_c, 0, 60, 47
1, 37308, Note_on_c, 0, 60, 0
1, 37320, Note_on_c, 0, 57, 43
1, 37368, Note_on_c, 0, 57, 0
1, 37380, Note_on_c, 0, 60, 42
1, 37428, Note_on_c, 0, 60, 0
1, 37440, Note_on_c, 0, 71, 61
1, 37440, Note_on_c, 0, 52, 52
1, 37488, Note_on_c, 0, 52, 0
1, 37500, Note_on_c, 0, 59, 45
1, 37548, Note_on_c, 0, 59, 0
1, 37560, Note_on_c, 0, 56, 42
1, 37608, Note_on_c, 0, 56, 0
1, 37620, Note_on_c, 0, 59, 54
1, 37632, Note_on_c, 0, 71, 0
1, 37668, Note_on_c, 0, 59, 0
1, 37680, Note_on_c, 0, 68, 58
1, 37680, Note_on_c, 0, 76, 58
1, 37680, Note_on_c, 0, 52, 58
1, 37728, Note_on_c, 0, 52, 0
1, 37740, Note_on_c, 0, 59, 54
1, 37788, Note_on_c, 0, 59, 0
1, 37800, Note_on_c, 0, 56, 55
1, 37848, Note_on_c, 0, 56, 0
1, 37860, Note_on_c, 0, 59, 52
1, 37872, Note_on_c, 0, 76, 0
1, 37872, Note_on_c, 0, 68, 0
1, 37908, Note_on_c, 0, 59, 0
1, 37920, Note_on_c, 0, 68, 50
1, 37920, Note_on_c, 0, 76, 58
1, 37920, Note_on_c, 0, 52, 66
1, 38112, Note_on_c, 0, 52, 0
1, 38112, Note_on_c, 0, 76, 0
1, 38112, Note_on_c, 0, 68, 0
1, 38400, Note_on_c, 0, 69, 65
1, 38400, Note_on_c, 0, 76, 71
1, 38400, Note_on_c, 0, 72, 45
1, 38448, Note_on_c, 0, 76, 0
1, 38460, Note_on_c, 0, 81, 66
1, 38496, Note_on_c, 0, 72, 0
1, 38496, Note_on_c, 0, 69, 0
1, 38508, Note_on_c, 0, 81, 0
1, 38520, Note_on_c, 0, 72, 47
1, 38520, Note_on_c, 0, 69, 45
1, 38520, Note_on_c, 0, 80, 43
1, 38568, Note_on_c, 0, 80, 0
1, 38580, Note_on_c, 0, 81, 71
1, 38616, Note_on_c, 0, 69, 0
1, 38616, Note_on_c, 0, 72, 0
1, 38628, Note_on_c, 0, 81, 0
1, 38640, Note_on_c, 0, 69, 47
1, 38640, Note_on_c, 0, 72, 42
1, 38640, Note_on_c, 0, 84, 89
1, 38688, Note_on_c, 0, 84, 0
1, 38700, Note_on_c, 0, 81, 61
1, 38736, Note_on_c, 0, 72, 0
1, 38736, Note_on_c, 0, 69, 0
1, 38748, Note_on_c, 0, 81, 0
1, 38760, Note_on_c, 0, 72, 42
1, 38760, Note_on_c, 0, 69, 47
1, 38760, Note_on_c, 0, 80, 50
1, 38808, Note_on_c, 0, 80, 0
1, 38820, Note_on_c, 0, 81, 61
1, 38856, Note_on_c, 0, 69, 0
1, 38856, Note_on_c, 0, 72, 0
1, 38868, Note_on_c, 0, 81, 0
1, 38880, Note_on_c, 0, 72, 42
1, 38880, Note_on_c, 0, 69, 44
1, 38880, Note_on_c, 0, 76, 61
1, 38976, Note_on_c, 0, 69, 0
1, 38976, Note_on_c, 0, 72, 0
1, 39000, Note_on_c, 0, 69, 42
1, 39000, Note_on_c, 0, 72, 37
1, 39072, Note_on_c, 0, 76, 0
1, 39096, Note_on_c, 0, 72, 0
1, 39096, Note_on_c, 0, 69, 0
1, 39120, Note_on_c, 0, 69, 43
1, 39120, Note_on_c, 0, 72, 42
1, 39216, Note_on_c, 0, 72, 0
1, 39216, Note_on_c, 0, 69, 0
1, 39240, Note_on_c, 0, 69, 43
1, 39240, Note_on_c, 0, 72, 42
1, 39336, Note_on_c, 0, 72, 0
1, 39336, Note_on_c, 0, 69, 0
1, 39360, Note_on_c, 0, 74, 43
1, 39360, Note_on_c, 0, 77, 66
1, 39360, Note_on_c, 0, 69, 45
1, 39408, Note_on_c, 0, 77, 0
1, 39420, Note_on_c, 0, 81, 66
1, 39456, Note_on_c, 0, 69, 0
1, 39456, Note_on_c, 0, 74, 0
1, 39468, Note_on_c, 0, 81, 0
1, 39480, Note_on_c, 0, 74, 40
1, 39480, Note_on_c, 0, 69, 41
1, 39480, Note_on_c, 0, 80, 43
1, 39528, Note_on_c, 0, 80, 0
1, 39540, Note_on_c, 0, 81, 58
1, 39576, Note_on_c, 0, 69, 0
1, 39576, Note_on_c, 0, 74, 0
1, 39588, Note_on_c, 0, 81, 0
1, 39600, Note_on_c, 0, 69, 47
1, 39600, Note_on_c, 0, 74, 33
1, 39600, Note_on_c, 0, 86, 83
1, 39648, Note_on_c, 0, 86, 0
1, 39660, Note_on_c, 0, 81, 58
1, 39696, Note_on_c, 0, 74, 0
1, 39696, Note_on_c, 0, 69, 0
1, 39708, Note_on_c, 0, 81, 0
1, 39720, Note_on_c, 0, 69, 42
1, 39720, Note_on_c, 0, 74, 42
1, 39720, Note_on_c, 0, 80, 50
1, 39768, Note_on_c, 0, 80, 0
1, 39780, Note_on_c, 0, 81, 54
1, 39816, Note_on_c, 0, 74, 0
1, 39816, Note_on_c, 0, 69, 0
1, 39828, Note_on_c, 0, 81, 0
1, 39840, Note_on_c, 0, 69, 42
1, 39840, Note_on_c, 0, 74, 41
1, 39840, Note_on_c, 0, 77, 44
1, 39936, Note_on_c, 0, 74, 0
1, 39936, Note_on_c, 0, 69, 0
1, 39960, Note_on_c, 0, 69, 40
1, 39960, Note_on_c, 0, 74, 1
1, 40032, Note_on_c, 0, 77, 0
1, 40056, Note_on_c, 0, 74, 0
1, 40056, Note_on_c, 0, 69, 0
1, 40080, Note_on_c, 0, 69, 40
1, 40080, Note_on_c, 0, 74, 42
1, 40176, Note_on_c, 0, 74, 0
1, 40176, Note_on_c, 0, 69, 0
1, 40200, Note_on_c, 0, 69, 40
1, 40200, Note_on_c, 0, 74, 42
1, 40296, Note_on_c, 0, 74, 0
1, 40296, Note_on_c, 0, 69, 0
1, 40320, Note_on_c, 0, 76, 71
1, 40320, Note_on_c, 0, 72, 42
1, 40320, Note_on_c, 0, 69, 42
1, 40368, Note_on_c, 0, 76, 0
1, 40380, Note_on_c, 0, 81, 66
1, 40416, Note_on_c, 0, 69, 0
1, 40416, Note_on_c, 0, 72, 0
1, 40428, Note_on_c, 0, 81, 0
1, 40440, Note_on_c, 0, 72, 42
1, 40440, Note_on_c, 0, 80, 43
1, 40440, Note_on_c, 0, 69, 42
1, 40488, Note_on_c, 0, 80, 0
1, 40500, Note_on_c, 0, 81, 71
1, 40536, Note_on_c, 0, 69, 0
1, 40536, Note_on_c, 0, 72, 0
1, 40548, Note_on_c, 0, 81, 0
1, 40560, Note_on_c, 0, 72, 42
1, 40560, Note_on_c, 0, 69, 42
1, 40560, Note_on_c, 0, 84, 89
1, 40608, Note_on_c, 0, 84, 0
1, 40620, Note_on_c, 0, 81, 61
1, 40656, Note_on_c, 0, 69, 0
1, 40656, Note_on_c, 0, 72, 0
1, 40668, Note_on_c, 0, 81, 0
1, 40680, Note_on_c, 0, 72, 58
1, 40680, Note_on_c, 0, 69, 61
1, 40680, Note_on_c, 0, 80, 50
1, 40728, Note_on_c, 0, 80, 0
1, 40740, Note_on_c, 0, 81, 61
1, 40776, Note_on_c, 0, 69, 0
1, 40776, Note_on_c, 0, 72, 0
1, 40788, Note_on_c, 0, 81, 0
1, 40800, Note_on_c, 0, 69, 52
1, 40800, Note_on_c, 0, 72, 47
1, 40800, Note_on_c, 0, 76, 61
1, 40896, Note_on_c, 0, 72, 0
1, 40896, Note_on_c, 0, 69, 0
1, 40920, Note_on_c, 0, 72, 43
1, 40920, Note_on_c, 0, 69, 44
1, 40992, Note_on_c, 0, 76, 0
1, 41016, Note_on_c, 0, 69, 0
1, 41016, Note_on_c, 0, 72, 0
1, 41040, Note_on_c, 0, 72, 42
1, 41040, Note_on_c, 0, 69, 43
1, 41136, Note_on_c, 0, 69, 0
1, 41136, Note_on_c, 0, 72, 0
1, 41160, Note_on_c, 0, 72, 42
1, 41160, Note_on_c, 0, 69, 45
1, 41256, Note_on_c, 0, 69, 0
1, 41256, Note_on_c, 0, 72, 0
1, 41280, Note_on_c, 0, 71, 43
1, 41280, Note_on_c, 0, 74, 66
1, 41280, Note_on_c, 0, 64, 42
1, 41328, Note_on_c, 0, 74, 0
1, 41340, Note_on_c, 0, 80, 61
1, 41376, Note_on_c, 0, 64, 0
1, 41376, Note_on_c, 0, 71, 0
1, 41388, Note_on_c, 0, 80, 0
1, 41400, Note_on_c, 0, 64, 42
1, 41400, Note_on_c, 0, 71, 42
1, 41400, Note_on_c, 0, 78, 83
1, 41448, Note_on_c, 0, 78, 0
1, 41460, Note_on_c, 0, 80, 66
1, 41496, Note_on_c, 0, 71, 0
1, 41496, Note_on_c, 0, 64, 0
1, 41508, Note_on_c, 0, 80, 0
1, 41520, Note_on_c, 0, 71, 42
1, 41520, Note_on_c, 0, 64, 42
1, 41520, Note_on_c, 0, 83, 83
1, 41568, Note_on_c, 0, 83, 0
1, 41580, Note_on_c, 0, 80, 50
1, 41616, Note_on_c, 0, 64, 0
1, 41616, Note_on_c, 0, 71, 0
1, 41628, Note_on_c, 0, 80, 0
1, 41640, Note_on_c, 0, 71, 42
1, 41640, Note_on_c, 0, 64, 42
1, 41640, Note_on_c, 0, 78, 71
1, 41688, Note_on_c, 0, 78, 0
1, 41700, Note_on_c, 0, 80, 65
1, 41736, Note_on_c, 0, 64, 0
1, 41736, Note_on_c, 0, 71, 0
1, 41748, Note_on_c, 0, 80, 0
1, 41760, Note_on_c, 0, 71, 42
1, 41760, Note_on_c, 0, 64, 42
1, 41760, Note_on_c, 0, 74, 89
1, 41856, Note_on_c, 0, 64, 0
1, 41856, Note_on_c, 0, 71, 0
1, 41880, Note_on_c, 0, 71, 42
1, 41880, Note_on_c, 0, 64, 42
1, 41952, Note_on_c, 0, 74, 0
1, 41976, Note_on_c, 0, 64, 0
1, 41976, Note_on_c, 0, 71, 0
1, 42000, Note_on_c, 0, 71, 42
1, 42000, Note_on_c, 0, 64, 42
1, 42096, Note_on_c, 0, 64, 0
1, 42096, Note_on_c, 0, 71, 0
1, 42120, Note_on_c, 0, 71, 29
1, 42120, Note_on_c, 0, 64, 35
1, 42216, Note_on_c, 0, 64, 0
1, 42216, Note_on_c, 0, 71, 0
1, 42240, Note_on_c, 0, 69, 43
1, 42240, Note_on_c, 0, 72, 66
1, 42288, Note_on_c, 0, 72, 0
1, 42300, Note_on_c, 0, 71, 55
1, 42348, Note_on_c, 0, 71, 0
1, 42360, Note_on_c, 0, 72, 71
1, 42408, Note_on_c, 0, 72, 0
1, 42420, Note_on_c, 0, 74, 71
1, 42432, Note_on_c, 0, 69, 0
1, 42468, Note_on_c, 0, 74, 0
1, 42480, Note_on_c, 0, 60, 61
1, 42480, Note_on_c, 0, 76, 71
1, 42528, Note_on_c, 0, 76, 0
1, 42540, Note_on_c, 0, 72, 58
1, 42588, Note_on_c, 0, 72, 0
1, 42600, Note_on_c, 0, 71, 61
1, 42648, Note_on_c, 0, 71, 0
1, 42660, Note_on_c, 0, 69, 54
1, 42672, Note_on_c, 0, 60, 0
1, 42708, Note_on_c, 0, 69, 0
1, 42720, Note_on_c, 0, 62, 58
1, 42840, Note_on_c, 0, 77, 54
1, 42912, Note_on_c, 0, 62, 0
1, 42936, Note_on_c, 0, 77, 0
1, 42960, Note_on_c, 0, 64, 58
1, 43080, Note_on_c, 0, 68, 80
1, 43152, Note_on_c, 0, 64, 0
1, 43176, Note_on_c, 0, 68, 0
1, 43200, Note_on_c, 0, 65, 50
1, 43200, Note_on_c, 0, 69, 80
1, 43296, Note_on_c, 0, 69, 0
1, 43320, Note_on_c, 0, 72, 54
1, 43392, Note_on_c, 0, 65, 0
1, 43416, Note_on_c, 0, 72, 0
1, 43440, Note_on_c, 0, 60, 54
1, 43560, Note_on_c, 0, 76, 52
1, 43632, Note_on_c, 0, 60, 0
1, 43656, Note_on_c, 0, 76, 0
1, 43680, Note_on_c, 0, 62, 61
1, 43800, Note_on_c, 0, 77, 50
1, 43872, Note_on_c, 0, 62, 0
1, 43896, Note_on_c, 0, 77, 0
1, 43920, Note_on_c, 0, 64, 62
1, 44040, Note_on_c, 0, 68, 54
1, 44112, Note_on_c, 0, 64, 0
1, 44136, Note_on_c, 0, 68, 0
1, 44160, Note_on_c, 0, 57, 54
1, 44160, Note_on_c, 0, 69, 58
1, 44184, Note_on_c, 0, 69, 0
1, 44190, Note_on_c, 0, 68, 43
1, 44208, Note_on_c, 0, 57, 0
1, 44214, Note_on_c, 0, 68, 0
1, 44220, Note_on_c, 0, 69, 80
1, 44220, Note_on_c, 0, 64, 42
1, 44268, Note_on_c, 0, 64, 0
1, 44280, Note_on_c, 0, 60, 55
1, 44328, Note_on_c, 0, 60, 0
1, 44340, Note_on_c, 0, 64, 45
1, 44364, Note_on_c, 0, 69, 0
1, 44388, Note_on_c, 0, 64, 0
1, 44400, Note_on_c, 0, 57, 42
1, 44400, Note_on_c, 0, 72, 61
1, 44448, Note_on_c, 0, 57, 0
1, 44460, Note_on_c, 0, 64, 42
1, 44508, Note_on_c, 0, 64, 0
1, 44520, Note_on_c, 0, 60, 46
1, 44568, Note_on_c, 0, 60, 0
1, 44580, Note_on_c, 0, 64, 42
1, 44592, Note_on_c, 0, 72, 0
1, 44628, Note_on_c, 0, 64, 0
1, 44640, Note_on_c, 0, 76, 89
1, 44640, Note_on_c, 0, 57, 42
1, 44688, Note_on_c, 0, 57, 0
1, 44700, Note_on_c, 0, 64, 44
1, 44748, Note_on_c, 0, 64, 0
1, 44760, Note_on_c, 0, 60, 52
1, 44808, Note_on_c, 0, 60, 0
1, 44820, Note_on_c, 0, 64, 43
1, 44832, Note_on_c, 0, 76, 0
1, 44868, Note_on_c, 0, 64, 0
1, 44880, Note_on_c, 0, 57, 42
1, 44880, Note_on_c, 0, 81, 71
1, 44928, Note_on_c, 0, 57, 0
1, 44940, Note_on_c, 0, 64, 47
1, 44988, Note_on_c, 0, 64, 0
1, 45000, Note_on_c, 0, 60, 52
1, 45048, Note_on_c, 0, 60, 0
1, 45060, Note_on_c, 0, 64, 50
1, 45072, Note_on_c, 0, 81, 0
1, 45108, Note_on_c, 0, 64, 0
1, 45120, Note_on_c, 0, 55, 54
1, 45120, Note_on_c, 0, 69, 58
1, 45144, Note_on_c, 0, 69, 0
1, 45150, Note_on_c, 0, 68, 43
1, 45168, Note_on_c, 0, 55, 0
1, 45174, Note_on_c, 0, 68, 0
1, 45180, Note_on_c, 0, 69, 80
1, 45180, Note_on_c, 0, 64, 45
1, 45228, Note_on_c, 0, 64, 0
1, 45240, Note_on_c, 0, 61, 52
1, 45288, Note_on_c, 0, 61, 0
1, 45300, Note_on_c, 0, 64, 54
1, 45324, Note_on_c, 0, 69, 0
1, 45348, Note_on_c, 0, 64, 0
1, 45360, Note_on_c, 0, 55, 42
1, 45360, Note_on_c, 0, 73, 77
1, 45408, Note_on_c, 0, 55, 0
1, 45420, Note_on_c, 0, 64, 54
1, 45468, Note_on_c, 0, 64, 0
1, 45480, Note_on_c, 0, 61, 71
1, 45528, Note_on_c, 0, 61, 0
1, 45540, Note_on_c, 0, 64, 50
1, 45552, Note_on_c, 0, 73, 0
1, 45588, Note_on_c, 0, 64, 0
1, 45600, Note_on_c, 0, 76, 71
1, 45600, Note_on_c, 0, 55, 46
1, 45648, Note_on_c, 0, 55, 0
1, 45660, Note_on_c, 0, 64, 50
1, 45708, Note_on_c, 0, 64, 0
1, 45720, Note_on_c, 0, 61, 58
1, 45768, Note_on_c, 0, 61, 0
1, 45780, Note_on_c, 0, 64, 52
1, 45792, Note_on_c, 0, 76, 0
1, 45828, Note_on_c, 0, 64, 0
1, 45840, Note_on_c, 0, 55, 43
1, 45840, Note_on_c, 0, 81, 55
1, 45888, Note_on_c, 0, 55, 0
1, 45900, Note_on_c, 0, 64, 44
1, 45948, Note_on_c, 0, 64, 0
1, 45960, Note_on_c, 0, 61, 50
1, 46008, Note_on_c, 0, 61, 0
1, 46020, Note_on_c, 0, 64, 43
1, 46032, Note_on_c, 0, 81, 0
1, 46068, Note_on_c, 0, 64, 0
1, 46080, Note_on_c, 0, 53, 42
1, 46080, Note_on_c, 0, 69, 58
1, 46104, Note_on_c, 0, 69, 0
1, 46110, Note_on_c, 0, 68, 43
1, 46128, Note_on_c, 0, 53, 0
1, 46134, Note_on_c, 0, 68, 0
1, 46140, Note_on_c, 0, 69, 80
1, 46140, Note_on_c, 0, 62, 58
1, 46188, Note_on_c, 0, 62, 0
1, 46200, Note_on_c, 0, 57, 54
1, 46248, Note_on_c, 0, 57, 0
1, 46260, Note_on_c, 0, 62, 42
1, 46284, Note_on_c, 0, 69, 0
1, 46308, Note_on_c, 0, 62, 0
1, 46320, Note_on_c, 0, 53, 54
1, 46320, Note_on_c, 0, 74, 71
1, 46368, Note_on_c, 0, 53, 0
1, 46380, Note_on_c, 0, 62, 44
1, 46428, Note_on_c, 0, 62, 0
1, 46440, Note_on_c, 0, 57, 12
1, 46488, Note_on_c, 0, 57, 0
1, 46500, Note_on_c, 0, 62, 44
1, 46512, Note_on_c, 0, 74, 0
1, 46548, Note_on_c, 0, 62, 0
1, 46560, Note_on_c, 0, 77, 61
1, 46560, Note_on_c, 0, 53, 42
1, 46608, Note_on_c, 0, 53, 0
1, 46620, Note_on_c, 0, 62, 44
1, 46668, Note_on_c, 0, 62, 0
1, 46680, Note_on_c, 0, 57, 45
1, 46728, Note_on_c, 0, 57, 0
1, 46740, Note_on_c, 0, 62, 43
1, 46752, Note_on_c, 0, 77, 0
1, 46788, Note_on_c, 0, 62, 0
1, 46800, Note_on_c, 0, 53, 43
1, 46800, Note_on_c, 0, 81, 50
1, 46848, Note_on_c, 0, 53, 0
1, 46860, Note_on_c, 0, 62, 52
1, 46908, Note_on_c, 0, 62, 0
1, 46920, Note_on_c, 0, 57, 40
1, 46968, Note_on_c, 0, 57, 0
1, 46980, Note_on_c, 0, 62, 42
1, 46992, Note_on_c, 0, 81, 0
1, 47028, Note_on_c, 0, 62, 0
1, 47040, Note_on_c, 0, 53, 43
1, 47040, Note_on_c, 0, 67, 58
1, 47064, Note_on_c, 0, 67, 0
1, 47070, Note_on_c, 0, 66, 43
1, 47088, Note_on_c, 0, 53, 0
1, 47094, Note_on_c, 0, 66, 0
1, 47100, Note_on_c, 0, 62, 46
1, 47100, Note_on_c, 0, 67, 80
1, 47148, Note_on_c, 0, 62, 0
1, 47160, Note_on_c, 0, 59, 54
1, 47208, Note_on_c, 0, 59, 0
1, 47220, Note_on_c, 0, 62, 54
1, 47244, Note_on_c, 0, 67, 0
1, 47268, Note_on_c, 0, 62, 0
1, 47280, Note_on_c, 0, 71, 80
1, 47280, Note_on_c, 0, 53, 47
1, 47328, Note_on_c, 0, 53, 0
1, 47340, Note_on_c, 0, 62, 52
1, 47388, Note_on_c, 0, 62, 0
1, 47400, Note_on_c, 0, 59, 54
1, 47448, Note_on_c, 0, 59, 0
1, 47460, Note_on_c, 0, 62, 46
1, 47472, Note_on_c, 0, 71, 0
1, 47508, Note_on_c, 0, 62, 0
1, 47520, Note_on_c, 0, 53, 50
1, 47520, Note_on_c, 0, 74, 80
1, 47568, Note_on_c, 0, 53, 0
1, 47580, Note_on_c, 0, 62, 42
1, 47628, Note_on_c, 0, 62, 0
1, 47640, Note_on_c, 0, 59, 47
1, 47688, Note_on_c, 0, 59, 0
1, 47700, Note_on_c, 0, 62, 43
1, 47712, Note_on_c, 0, 74, 0
1, 47748, Note_on_c, 0, 62, 0
1, 47760, Note_on_c, 0, 79, 80
1, 47760, Note_on_c, 0, 53, 47
1, 47808, Note_on_c, 0, 53, 0
1, 47820, Note_on_c, 0, 62, 45
1, 47868, Note_on_c, 0, 62, 0
1, 47880, Note_on_c, 0, 59, 54
1, 47928, Note_on_c, 0, 59, 0
1, 47940, Note_on_c, 0, 62, 47
1, 47952, Note_on_c, 0, 79, 0
1, 47988, Note_on_c, 0, 62, 0
1, 48000, Note_on_c, 0, 52, 55
1, 48000, Note_on_c, 0, 67, 58
1, 48024, Note_on_c, 0, 67, 0
1, 48030, Note_on_c, 0, 66, 43
1, 48048, Note_on_c, 0, 52, 0
1, 48054, Note_on_c, 0, 66, 0
1, 48060, Note_on_c, 0, 67, 80
1, 48060, Note_on_c, 0, 60, 54
1, 48108, Note_on_c, 0, 60, 0
1, 48120, Note_on_c, 0, 55, 44
1, 48168, Note_on_c, 0, 55, 0
1, 48180, Note_on_c, 0, 60, 46
1, 48204, Note_on_c, 0, 67, 0
1, 48228, Note_on_c, 0, 60, 0
1, 48240, Note_on_c, 0, 52, 42
1, 48240, Note_on_c, 0, 72, 58
1, 48288, Note_on_c, 0, 52, 0
1, 48300, Note_on_c, 0, 60, 45
1, 48348, Note_on_c, 0, 60, 0
1, 48360, Note_on_c, 0, 55, 45
1, 48408, Note_on_c, 0, 55, 0
1, 48420, Note_on_c, 0, 60, 44
1, 48432, Note_on_c, 0, 72, 0
1, 48468, Note_on_c, 0, 60, 0
1, 48480, Note_on_c, 0, 76, 71
1, 48480, Note_on_c, 0, 52, 52
1, 48528, Note_on_c, 0, 52, 0
1, 48540, Note_on_c, 0, 60, 54
1, 48588, Note_on_c, 0, 60, 0
1, 48600, Note_on_c, 0, 55, 62
1, 48648, Note_on_c, 0, 55, 0
1, 48660, Note_on_c, 0, 60, 54
1, 48672, Note_on_c, 0, 76, 0
1, 48708, Note_on_c, 0, 60, 0
1, 48720, Note_on_c, 0, 52, 44
1, 48720, Note_on_c, 0, 79, 58
1, 48768, Note_on_c, 0, 52, 0
1, 48780, Note_on_c, 0, 60, 58
1, 48828, Note_on_c, 0, 60, 0
1, 48840, Note_on_c, 0, 55, 61
1, 48888, Note_on_c, 0, 55, 0
1, 48900, Note_on_c, 0, 60, 42
1, 48912, Note_on_c, 0, 79, 0
1, 48948, Note_on_c, 0, 60, 0
1, 48960, Note_on_c, 0, 77, 58
1, 48960, Note_on_c, 0, 47, 50
1, 48984, Note_on_c, 0, 77, 0
1, 48990, Note_on_c, 0, 76, 43
1, 49008, Note_on_c, 0, 47, 0
1, 49014, Note_on_c, 0, 76, 0
1, 49020, Note_on_c, 0, 77, 80
1, 49020, Note_on_c, 0, 55, 42
1, 49068, Note_on_c, 0, 55, 0
1, 49080, Note_on_c, 0, 50, 66
1, 49128, Note_on_c, 0, 50, 0
1, 49140, Note_on_c, 0, 55, 43
1, 49164, Note_on_c, 0, 77, 0
1, 49188, Note_on_c, 0, 55, 0
1, 49200, Note_on_c, 0, 47, 43
1, 49248, Note_on_c, 0, 47, 0
1, 49260, Note_on_c, 0, 55, 42
1, 49308, Note_on_c, 0, 55, 0
1, 49320, Note_on_c, 0, 50, 58
1, 49368, Note_on_c, 0, 50, 0
1, 49380, Note_on_c, 0, 55, 43
1, 49428, Note_on_c, 0, 55, 0
1, 49440, Note_on_c, 0, 76, 58
1, 49440, Note_on_c, 0, 48, 61
1, 49464, Note_on_c, 0, 76, 0
1, 49470, Note_on_c, 0, 74, 43
1, 49488, Note_on_c, 0, 48, 0
1, 49494, Note_on_c, 0, 74, 0
1, 49500, Note_on_c, 0, 76, 80
1, 49500, Note_on_c, 0, 55, 45
1, 49548, Note_on_c, 0, 55, 0
1, 49560, Note_on_c, 0, 52, 62
1, 49608, Note_on_c, 0, 52, 0
1, 49620, Note_on_c, 0, 55, 45
1, 49644, Note_on_c, 0, 76, 0
1, 49668, Note_on_c, 0, 55, 0
1, 49680, Note_on_c, 0, 48, 58
1, 49728, Note_on_c, 0, 48, 0
1, 49740, Note_on_c, 0, 55, 42
1, 49788, Note_on_c, 0, 55, 0
1, 49800, Note_on_c, 0, 52, 61
1, 49848, Note_on_c, 0, 52, 0
1, 49860, Note_on_c, 0, 55, 45
1, 49908, Note_on_c, 0, 55, 0
1, 49920, Note_on_c, 0, 77, 58
1, 49920, Note_on_c, 0, 47, 66
1, 49944, Note_on_c, 0, 77, 0
1, 49950, Note_on_c, 0, 76, 43
1, 49968, Note_on_c, 0, 47, 0
1, 49974, Note_on_c, 0, 76, 0
1, 49980, Note_on_c, 0, 77, 80
1, 49980, Note_on_c, 0, 55, 42
1, 50028, Note_on_c, 0, 55, 0
1, 50040, Note_on_c, 0, 50, 67
1, 50088, Note_on_c, 0, 50, 0
1, 50100, Note_on_c, 0, 55, 43
1, 50124, Note_on_c, 0, 77, 0
1, 50148, Note_on_c, 0, 55, 0
1, 50160, Note_on_c, 0, 47, 44
1, 50208, Note_on_c, 0, 47, 0
1, 50220, Note_on_c, 0, 55, 42
1, 50268, Note_on_c, 0, 55, 0
1, 50280, Note_on_c, 0, 50, 42
1, 50328, Note_on_c, 0, 50, 0
1, 50340, Note_on_c, 0, 55, 43
1, 50388, Note_on_c, 0, 55, 0
1, 50400, Note_on_c, 0, 76, 58
1, 50400, Note_on_c, 0, 48, 50
1, 50424, Note_on_c, 0, 76, 0
1, 50430, Note_on_c, 0, 74, 43
1, 50448, Note_on_c, 0, 48, 0
1, 50454, Note_on_c, 0, 74, 0
1, 50460, Note_on_c, 0, 76, 80
1, 50460, Note_on_c, 0, 55, 42
1, 50508, Note_on_c, 0, 55, 0
1, 50520, Note_on_c, 0, 52, 47
1, 50568, Note_on_c, 0, 52, 0
1, 50580, Note_on_c, 0, 55, 43
1, 50604, Note_on_c, 0, 76, 0
1, 50628, Note_on_c, 0, 55, 0
1, 50640, Note_on_c, 0, 48, 43
1, 50688, Note_on_c, 0, 48, 0
1, 50700, Note_on_c, 0, 55, 42
1, 50748, Note_on_c, 0, 55, 0
1, 50760, Note_on_c, 0, 52, 42
1, 50808, Note_on_c, 0, 52, 0
1, 50820, Note_on_c, 0, 55, 42
1, 50868, Note_on_c, 0, 55, 0
1, 50880, Note_on_c, 0, 53, 54
1, 50880, Note_on_c, 0, 74, 42
1, 50928, Note_on_c, 0, 74, 0
1, 50940, Note_on_c, 0, 73, 42
1, 50988, Note_on_c, 0, 73, 0
1, 51000, Note_on_c, 0, 74, 42
1, 51048, Note_on_c, 0, 74, 0
1, 51060, Note_on_c, 0, 76, 50
1, 51108, Note_on_c, 0, 76, 0
1, 51120, Note_on_c, 0, 77, 52
1, 51168, Note_on_c, 0, 77, 0
1, 51180, Note_on_c, 0, 76, 54
1, 51228, Note_on_c, 0, 76, 0
1, 51240, Note_on_c, 0, 77, 50
1, 51288, Note_on_c, 0, 77, 0
1, 51300, Note_on_c, 0, 79, 66
1, 51348, Note_on_c, 0, 79, 0
1, 51360, Note_on_c, 0, 81, 43
1, 51456, Note_on_c, 0, 81, 0
1, 51456, Note_on_c, 0, 53, 0
1, 51480, Note_on_c, 0, 69, 58
1, 51576, Note_on_c, 0, 69, 0
1, 51600, Note_on_c, 0, 54, 52
1, 51600, Note_on_c, 0, 71, 42
1, 51696, Note_on_c, 0, 71, 0
1, 51720, Note_on_c, 0, 72, 61
1, 51792, Note_on_c, 0, 54, 0
1, 51816, Note_on_c, 0, 72, 0
1, 51840, Note_on_c, 0, 55, 58
1, 51840, Note_on_c, 0, 72, 66
1, 51888, Note_on_c, 0, 72, 0
1, 51900, Note_on_c, 0, 71, 42
1, 51948, Note_on_c, 0, 71, 0
1, 51960, Note_on_c, 0, 69, 43
1, 52008, Note_on_c, 0, 69, 0
1, 52020, Note_on_c, 0, 67, 42
1, 52032, Note_on_c, 0, 55, 0
1, 52068, Note_on_c, 0, 67, 0
1, 52080, Note_on_c, 0, 59, 58
1, 52080, Note_on_c, 0, 55, 50
1, 52080, Note_on_c, 0, 67, 42
1, 52272, Note_on_c, 0, 67, 0
1, 52272, Note_on_c, 0, 55, 0
1, 52272, Note_on_c, 0, 59, 0
1, 52320, Note_on_c, 0, 59, 44
1, 52320, Note_on_c, 0, 55, 48
1, 52320, Note_on_c, 0, 67, 42
1, 52512, Note_on_c, 0, 67, 0
1, 52512, Note_on_c, 0, 55, 0
1, 52512, Note_on_c, 0, 59, 0
1, 52800, Note_on_c, 0, 76, 45
1, 52800, Note_on_c, 0, 60, 52
1, 52848, Note_on_c, 0, 60, 0
1, 52860, Note_on_c, 0, 67, 42
1, 52896, Note_on_c, 0, 76, 0
1, 52908, Note_on_c, 0, 67, 0
1, 52920, Note_on_c, 0, 79, 43
1, 52920, Note_on_c, 0, 64, 61
1, 52968, Note_on_c, 0, 64, 0
1, 52980, Note_on_c, 0, 67, 42
1, 53016, Note_on_c, 0, 79, 0
1, 53028, Note_on_c, 0, 67, 0
1, 53040, Note_on_c, 0, 60, 43
1, 53088, Note_on_c, 0, 60, 0
1, 53100, Note_on_c, 0, 67, 42
1, 53148, Note_on_c, 0, 67, 0
1, 53160, Note_on_c, 0, 79, 50
1, 53160, Note_on_c, 0, 64, 50
1, 53208, Note_on_c, 0, 64, 0
1, 53220, Note_on_c, 0, 67, 42
1, 53256, Note_on_c, 0, 79, 0
1, 53268, Note_on_c, 0, 67, 0
1, 53280, Note_on_c, 0, 84, 61
1, 53280, Note_on_c, 0, 60, 52
1, 53328, Note_on_c, 0, 60, 0
1, 53340, Note_on_c, 0, 67, 43
1, 53376, Note_on_c, 0, 84, 0
1, 53388, Note_on_c, 0, 67, 0
1, 53400, Note_on_c, 0, 79, 42
1, 53400, Note_on_c, 0, 64, 61
1, 53448, Note_on_c, 0, 64, 0
1, 53460, Note_on_c, 0, 67, 43
1, 53496, Note_on_c, 0, 79, 0
1, 53508, Note_on_c, 0, 67, 0
1, 53520, Note_on_c, 0, 60, 1
1, 53568, Note_on_c, 0, 60, 0
1, 53580, Note_on_c, 0, 67, 40
1, 53628, Note_on_c, 0, 67, 0
1, 53640, Note_on_c, 0, 64, 71
1, 53640, Note_on_c, 0, 76, 66
1, 53688, Note_on_c, 0, 64, 0
1, 53700, Note_on_c, 0, 67, 42
1, 53736, Note_on_c, 0, 76, 0
1, 53748, Note_on_c, 0, 67, 0
1, 53760, Note_on_c, 0, 77, 52
1, 53760, Note_on_c, 0, 59, 42
1, 53808, Note_on_c, 0, 59, 0
1, 53820, Note_on_c, 0, 67, 42
1, 53856, Note_on_c, 0, 77, 0
1, 53868, Note_on_c, 0, 67, 0
1, 53880, Note_on_c, 0, 74, 58
1, 53880, Note_on_c, 0, 62, 71
1, 53928, Note_on_c, 0, 62, 0
1, 53940, Note_on_c, 0, 67, 36
1, 53976, Note_on_c, 0, 74, 0
1, 53988, Note_on_c, 0, 67, 0
1, 54000, Note_on_c, 0, 59, 43
1, 54048, Note_on_c, 0, 59, 0
1, 54060, Note_on_c, 0, 67, 42
1, 54108, Note_on_c, 0, 67, 0
1, 54120, Note_on_c, 0, 83, 58
1, 54120, Note_on_c, 0, 62, 43
1, 54168, Note_on_c, 0, 62, 0
1, 54180, Note_on_c, 0, 67, 42
1, 54216, Note_on_c, 0, 83, 0
1, 54228, Note_on_c, 0, 67, 0
1, 54240, Note_on_c, 0, 86, 61
1, 54240, Note_on_c, 0, 59, 47
1, 54288, Note_on_c, 0, 59, 0
1, 54300, Note_on_c, 0, 67, 42
1, 54336, Note_on_c, 0, 86, 0
1, 54348, Note_on_c, 0, 67, 0
1, 54360, Note_on_c, 0, 77, 42
1, 54360, Note_on_c, 0, 62, 42
1, 54408, Note_on_c, 0, 62, 0
1, 54420, Note_on_c, 0, 67, 42
1, 54456, Note_on_c, 0, 77, 0
1, 54468, Note_on_c, 0, 67, 0
1, 54480, Note_on_c, 0, 59, 43
1, 54528, Note_on_c, 0, 59, 0
1, 54540, Note_on_c, 0, 67, 42
1, 54588, Note_on_c, 0, 67, 0
1, 54600, Note_on_c, 0, 62, 61
1, 54600, Note_on_c, 0, 77, 61
1, 54648, Note_on_c, 0, 62, 0
1, 54660, Note_on_c, 0, 67, 42
1, 54696, Note_on_c, 0, 77, 0
1, 54708, Note_on_c, 0, 67, 0
1, 54720, Note_on_c, 0, 76, 45
1, 54720, Note_on_c, 0, 60, 71
1, 54768, Note_on_c, 0, 60, 0
1, 54780, Note_on_c, 0, 67, 42
1, 54816, Note_on_c, 0, 76, 0
1, 54828, Note_on_c, 0, 67, 0
1, 54840, Note_on_c, 0, 79, 43
1, 54840, Note_on_c, 0, 64, 44
1, 54888, Note_on_c, 0, 64, 0
1, 54900, Note_on_c, 0, 67, 42
1, 54936, Note_on_c, 0, 79, 0
1, 54948, Note_on_c, 0, 67, 0
1, 54960, Note_on_c, 0, 60, 45
1, 55008, Note_on_c, 0, 60, 0
1, 55020, Note_on_c, 0, 67, 42
1, 55068, Note_on_c, 0, 67, 0
1, 55080, Note_on_c, 0, 79, 50
1, 55080, Note_on_c, 0, 64, 62
1, 55128, Note_on_c, 0, 64, 0
1, 55140, Note_on_c, 0, 67, 42
1, 55176, Note_on_c, 0, 79, 0
1, 55188, Note_on_c, 0, 67, 0
1, 55200, Note_on_c, 0, 84, 61
1, 55200, Note_on_c, 0, 60, 71
1, 55248, Note_on_c, 0, 60, 0
1, 55260, Note_on_c, 0, 67, 42
1, 55296, Note_on_c, 0, 84, 0
1, 55308, Note_on_c, 0, 67, 0
1, 55320, Note_on_c, 0, 79, 42
1, 55320, Note_on_c, 0, 64, 77
1, 55368, Note_on_c, 0, 64, 0
1, 55380, Note_on_c, 0, 67, 42
1, 55416, Note_on_c, 0, 79, 0
1, 55428, Note_on_c, 0, 67, 0
1, 55440, Note_on_c, 0, 60, 50
1, 55488, Note_on_c, 0, 60, 0
1, 55500, Note_on_c, 0, 67, 42
1, 55548, Note_on_c, 0, 67, 0
1, 55560, Note_on_c, 0, 64, 42
1, 55560, Note_on_c, 0, 76, 66
1, 55608, Note_on_c, 0, 64, 0
1, 55620, Note_on_c, 0, 67, 42
1, 55656, Note_on_c, 0, 76, 0
1, 55668, Note_on_c, 0, 67, 0
1, 55680, Note_on_c, 0, 77, 52
1, 55680, Note_on_c, 0, 59, 66
1, 55728, Note_on_c, 0, 59, 0
1, 55740, Note_on_c, 0, 67, 43
1, 55776, Note_on_c, 0, 77, 0
1, 55788, Note_on_c, 0, 67, 0
1, 55800, Note_on_c, 0, 74, 58
1, 55800, Note_on_c, 0, 62, 71
1, 55848, Note_on_c, 0, 62, 0
1, 55860, Note_on_c, 0, 67, 43
1, 55896, Note_on_c, 0, 74, 0
1, 55908, Note_on_c, 0, 67, 0
1, 55920, Note_on_c, 0, 59, 47
1, 55968, Note_on_c, 0, 59, 0
1, 55980, Note_on_c, 0, 67, 44
1, 56028, Note_on_c, 0, 67, 0
1, 56040, Note_on_c, 0, 83, 58
1, 56040, Note_on_c, 0, 62, 75
1, 56088, Note_on_c, 0, 62, 0
1, 56100, Note_on_c, 0, 67, 43
1, 56136, Note_on_c, 0, 83, 0
1, 56148, Note_on_c, 0, 67, 0
1, 56160, Note_on_c, 0, 86, 61
1, 56160, Note_on_c, 0, 59, 50
1, 56208, Note_on_c, 0, 59, 0
1, 56220, Note_on_c, 0, 67, 42
1, 56256, Note_on_c, 0, 86, 0
1, 56268, Note_on_c, 0, 67, 0
1, 56280, Note_on_c, 0, 77, 42
1, 56280, Note_on_c, 0, 62, 77
1, 56328, Note_on_c, 0, 62, 0
1, 56340, Note_on_c, 0, 67, 42
1, 56376, Note_on_c, 0, 77, 0
1, 56388, Note_on_c, 0, 67, 0
1, 56400, Note_on_c, 0, 59, 52
1, 56448, Note_on_c, 0, 59, 0
1, 56460, Note_on_c, 0, 67, 43
1, 56508, Note_on_c, 0, 67, 0
1, 56520, Note_on_c, 0, 62, 66
1, 56520, Note_on_c, 0, 77, 61
1, 56568, Note_on_c, 0, 62, 0
1, 56580, Note_on_c, 0, 67, 42
1, 56616, Note_on_c, 0, 77, 0
1, 56628, Note_on_c, 0, 67, 0
1, 56640, Note_on_c, 0, 60, 44
1, 56640, Note_on_c, 0, 76, 66
1, 56688, Note_on_c, 0, 76, 0
1, 56700, Note_on_c, 0, 84, 77
1, 56748, Note_on_c, 0, 84, 0
1, 56760, Note_on_c, 0, 83, 50
1, 56808, Note_on_c, 0, 83, 0
1, 56820, Note_on_c, 0, 84, 61
1, 56832, Note_on_c, 0, 60, 0
1, 56868, Note_on_c, 0, 84, 0
1, 56880, Note_on_c, 0, 86, 58
1, 56928, Note_on_c, 0, 86, 0
1, 56940, Note_on_c, 0, 84, 42
1, 56988, Note_on_c, 0, 84, 0
1, 57000, Note_on_c, 0, 83, 50
1, 57048, Note_on_c, 0, 83, 0
1, 57060, Note_on_c, 0, 84, 58
1, 57108, Note_on_c, 0, 84, 0
1, 57120, Note_on_c, 0, 72, 51
1, 57120, Note_on_c, 0, 76, 77
1, 57120, Note_on_c, 0, 64, 43
1, 57168, Note_on_c, 0, 76, 0
1, 57180, Note_on_c, 0, 82, 77
1, 57228, Note_on_c, 0, 82, 0
1, 57240, Note_on_c, 0, 81, 66
1, 57288, Note_on_c, 0, 81, 0
1, 57300, Note_on_c, 0, 82, 89
1, 57312, Note_on_c, 0, 64, 0
1, 57312, Note_on_c, 0, 72, 0
1, 57348, Note_on_c, 0, 82, 0
1, 57360, Note_on_c, 0, 84, 83
1, 57408, Note_on_c, 0, 84, 0
1, 57420, Note_on_c, 0, 82, 66
1, 57468, Note_on_c, 0, 82, 0
1, 57480, Note_on_c, 0, 81, 50
1, 57528, Note_on_c, 0, 81, 0
1, 57540, Note_on_c, 0, 82, 77
1, 57588, Note_on_c, 0, 82, 0
1, 57600, Note_on_c, 0, 81, 80
1, 57600, Note_on_c, 0, 65, 47
1, 57648, Note_on_c, 0, 65, 0
1, 57660, Note_on_c, 0, 72, 44
1, 57708, Note_on_c, 0, 72, 0
1, 57720, Note_on_c, 0, 69, 34
1, 57768, Note_on_c, 0, 69, 0
1, 57780, Note_on_c, 0, 72, 42
1, 57792, Note_on_c, 0, 81, 0
1, 57828, Note_on_c, 0, 72, 0
1, 57840, Note_on_c, 0, 81, 80
1, 57840, Note_on_c, 0, 65, 45
1, 57888, Note_on_c, 0, 65, 0
1, 57900, Note_on_c, 0, 72, 52
1, 57948, Note_on_c, 0, 72, 0
1, 57960, Note_on_c, 0, 69, 47
1, 58008, Note_on_c, 0, 69, 0
1, 58020, Note_on_c, 0, 72, 61
1, 58032, Note_on_c, 0, 81, 0
1, 58068, Note_on_c, 0, 72, 0
1, 58080, Note_on_c, 0, 65, 50
1, 58080, Note_on_c, 0, 81, 43
1, 58176, Note_on_c, 0, 81, 0
1, 58200, Note_on_c, 0, 84, 61
1, 58272, Note_on_c, 0, 65, 0
1, 58296, Note_on_c, 0, 84, 0
1, 58320, Note_on_c, 0, 83, 47
1, 58368, Note_on_c, 0, 83, 0
1, 58380, Note_on_c, 0, 81, 61
1, 58428, Note_on_c, 0, 81, 0
1, 58440, Note_on_c, 0, 79, 47
1, 58488, Note_on_c, 0, 79, 0
1, 58500, Note_on_c, 0, 77, 54
1, 58548, Note_on_c, 0, 77, 0
1, 58560, Note_on_c, 0, 76, 43
1, 58560, Note_on_c, 0, 60, 47
1, 58560, Note_on_c, 0, 55, 42
1, 58656, Note_on_c, 0, 55, 0
1, 58656, Note_on_c, 0, 60, 0
1, 58656, Note_on_c, 0, 76, 0
1, 58680, Note_on_c, 0, 55, 45
1, 58680, Note_on_c, 0, 79, 42
1, 58680, Note_on_c, 0, 60, 71
1, 58776, Note_on_c, 0, 60, 0
1, 58776, Note_on_c, 0, 79, 0
1, 58776, Note_on_c, 0, 55, 0
1, 58800, Note_on_c, 0, 55, 43
1, 58800, Note_on_c, 0, 77, 43
1, 58800, Note_on_c, 0, 60, 64
1, 58848, Note_on_c, 0, 77, 0
1, 58860, Note_on_c, 0, 76, 58
1, 58896, Note_on_c, 0, 60, 0
1, 58896, Note_on_c, 0, 55, 0
1, 58908, Note_on_c, 0, 76, 0
1, 58920, Note_on_c, 0, 60, 71
1, 58920, Note_on_c, 0, 55, 45
1, 58920, Note_on_c, 0, 74, 42
1, 58968, Note_on_c, 0, 74, 0
1, 58980, Note_on_c, 0, 72, 52
1, 59016, Note_on_c, 0, 55, 0
1, 59016, Note_on_c, 0, 60, 0
1, 59028, Note_on_c, 0, 72, 0
1, 59040, Note_on_c, 0, 76, 43
1, 59040, Note_on_c, 0, 55, 42
1, 59040, Note_on_c, 0, 59, 51
1, 59052, Note_on_c, 0, 76, 0
1, 59055, Note_on_c, 0, 74, 42
1, 59067, Note_on_c, 0, 74, 0
1, 59070, Note_on_c, 0, 76, 47
1, 59082, Note_on_c, 0, 76, 0
1, 59085, Note_on_c, 0, 74, 42
1, 59097, Note_on_c, 0, 74, 0
1, 59100, Note_on_c, 0, 76, 61
1, 59112, Note_on_c, 0, 76, 0
1, 59115, Note_on_c, 0, 74, 43
1, 59127, Note_on_c, 0, 74, 0
1, 59130, Note_on_c, 0, 76, 61
1, 59136, Note_on_c, 0, 59, 0
1, 59136, Note_on_c, 0, 55, 0
1, 59142, Note_on_c, 0, 76, 0
1, 59145, Note_on_c, 0, 74, 50
1, 59157, Note_on_c, 0, 74, 0
1, 59160, Note_on_c, 0, 59, 43
1, 59160, Note_on_c, 0, 55, 42
1, 59160, Note_on_c, 0, 76, 54
1, 59172, Note_on_c, 0, 76, 0
1, 59175, Note_on_c, 0, 74, 43
1, 59187, Note_on_c, 0, 74, 0
1, 59190, Note_on_c, 0, 76, 66
1, 59202, Note_on_c, 0, 76, 0
1, 59205, Note_on_c, 0, 74, 42
1, 59217, Note_on_c, 0, 74, 0
1, 59220, Note_on_c, 0, 76, 45
1, 59232, Note_on_c, 0, 76, 0
1, 59235, Note_on_c, 0, 74, 12
1, 59247, Note_on_c, 0, 74, 0
1, 59250, Note_on_c, 0, 76, 45
1, 59256, Note_on_c, 0, 55, 0
1, 59256, Note_on_c, 0, 59, 0
1, 59262, Note_on_c, 0, 76, 0
1, 59265, Note_on_c, 0, 74, 42
1, 59277, Note_on_c, 0, 74, 0
1, 59280, Note_on_c, 0, 59, 46
1, 59280, Note_on_c, 0, 55, 42
1, 59280, Note_on_c, 0, 76, 42
1, 59292, Note_on_c, 0, 76, 0
1, 59295, Note_on_c, 0, 74, 42
1, 59307, Note_on_c, 0, 74, 0
1, 59310, Note_on_c, 0, 76, 52
1, 59322, Note_on_c, 0, 76, 0
1, 59325, Note_on_c, 0, 74, 42
1, 59337, Note_on_c, 0, 74, 0
1, 59340, Note_on_c, 0, 76, 50
1, 59352, Note_on_c, 0, 76, 0
1, 59355, Note_on_c, 0, 74, 42
1, 59367, Note_on_c, 0, 74, 0
1, 59370, Note_on_c, 0, 76, 58
1, 59376, Note_on_c, 0, 55, 0
1, 59376, Note_on_c, 0, 59, 0
1, 59382, Note_on_c, 0, 76, 0
1, 59385, Note_on_c, 0, 74, 54
1, 59397, Note_on_c, 0, 74, 0
1, 59400, Note_on_c, 0, 55, 40
1, 59400, Note_on_c, 0, 59, 42
1, 59400, Note_on_c, 0, 76, 71
1, 59412, Note_on_c, 0, 76, 0
1, 59415, Note_on_c, 0, 74, 42
1, 59427, Note_on_c, 0, 74, 0
1, 59430, Note_on_c, 0, 76, 50
1, 59442, Note_on_c, 0, 76, 0
1, 59445, Note_on_c, 0, 74, 43
1, 59457, Note_on_c, 0, 74, 0
1, 59460, Note_on_c, 0, 76, 44
1, 59472, Note_on_c, 0, 76, 0
1, 59475, Note_on_c, 0, 74, 43
1, 59487, Note_on_c, 0, 74, 0
1, 59490, Note_on_c, 0, 76, 41
1, 59496, Note_on_c, 0, 59, 0
1, 59496, Note_on_c, 0, 55, 0
1, 59502, Note_on_c, 0, 76, 0
1, 59505, Note_on_c, 0, 74, 42
1, 59517, Note_on_c, 0, 74, 0
1, 59520, Note_on_c, 0, 60, 80
1, 59520, Note_on_c, 0, 72, 80
1, 59712, Note_on_c, 0, 72, 0
1, 59712, Note_on_c, 0, 60, 0
1, 59760, Note_on_c, 0, 64, 61
1, 59820, Note_on_c, 0, 79, 58
1, 59868, Note_on_c, 0, 79, 0
1, 59880, Note_on_c, 0, 76, 52
1, 59928, Note_on_c, 0, 76, 0
1, 59940, Note_on_c, 0, 72, 47
1, 59952, Note_on_c, 0, 64, 0
1, 59988, Note_on_c, 0, 72, 0
1, 60000, Note_on_c, 0, 65, 58
1, 60060, Note_on_c, 0, 81, 44
1, 60108, Note_on_c, 0, 81, 0
1, 60120, Note_on_c, 0, 80, 61
1, 60168, Note_on_c, 0, 80, 0
1, 60180, Note_on_c, 0, 81, 42
1, 60192, Note_on_c, 0, 65, 0
1, 60228, Note_on_c, 0, 81, 0
1, 60240, Note_on_c, 0, 67, 47
1, 60300, Note_on_c, 0, 77, 54
1, 60348, Note_on_c, 0, 77, 0
1, 60360, Note_on_c, 0, 74, 46
1, 60408, Note_on_c, 0, 74, 0
1, 60420, Note_on_c, 0, 71, 44
1, 60432, Note_on_c, 0, 67, 0
1, 60468, Note_on_c, 0, 71, 0
1, 60480, Note_on_c, 0, 72, 45
1, 60480, Note_on_c, 0, 69, 52
1, 60576, Note_on_c, 0, 72, 0
1, 60600, Note_on_c, 0, 76, 61
1, 60672, Note_on_c, 0, 69, 0
1, 60696, Note_on_c, 0, 76, 0
1, 60720, Note_on_c, 0, 64, 52
1, 60780, Note_on_c, 0, 79, 54
1, 60828, Note_on_c, 0, 79, 0
1, 60840, Note_on_c, 0, 76, 54
1, 60888, Note_on_c, 0, 76, 0
1, 60900, Note_on_c, 0, 72, 52
1, 60912, Note_on_c, 0, 64, 0
1, 60948, Note_on_c, 0, 72, 0
1, 60960, Note_on_c, 0, 65, 58
1, 61020, Note_on_c, 0, 81, 54
1, 61068, Note_on_c, 0, 81, 0
1, 61080, Note_on_c, 0, 80, 42
1, 61128, Note_on_c, 0, 80, 0
1, 61140, Note_on_c, 0, 81, 42
1, 61152, Note_on_c, 0, 65, 0
1, 61188, Note_on_c, 0, 81, 0
1, 61200, Note_on_c, 0, 67, 42
1, 61260, Note_on_c, 0, 77, 42
1, 61308, Note_on_c, 0, 77, 0
1, 61320, Note_on_c, 0, 74, 47
1, 61368, Note_on_c, 0, 74, 0
1, 61380, Note_on_c, 0, 71, 42
1, 61392, Note_on_c, 0, 67, 0
1, 61428, Note_on_c, 0, 71, 0
1, 61440, Note_on_c, 0, 72, 43
1, 61440, Note_on_c, 0, 60, 54
1, 61632, Note_on_c, 0, 60, 0
1, 61632, Note_on_c, 0, 72, 0
1, 61680, Note_on_c, 0, 52, 45
1, 61740, Note_on_c, 0, 67, 45
1, 61788, Note_on_c, 0, 67, 0
1, 61800, Note_on_c, 0, 64, 89
1, 61848, Note_on_c, 0, 64, 0
1, 61860, Note_on_c, 0, 60, 61
1, 61872, Note_on_c, 0, 52, 0
1, 61908, Note_on_c, 0, 60, 0
1, 61920, Note_on_c, 0, 53, 61
1, 61980, Note_on_c, 0, 69, 71
1, 62028, Note_on_c, 0, 69, 0
1, 62040, Note_on_c, 0, 68, 42
1, 62088, Note_on_c, 0, 68, 0
1, 62100, Note_on_c, 0, 69, 58
1, 62112, Note_on_c, 0, 53, 0
1, 62148, Note_on_c, 0, 69, 0
1, 62160, Note_on_c, 0, 55, 67
1, 62220, Note_on_c, 0, 65, 61
1, 62268, Note_on_c, 0, 65, 0
1, 62280, Note_on_c, 0, 62, 34
1, 62328, Note_on_c, 0, 62, 0
1, 62340, Note_on_c, 0, 59, 40
1, 62352, Note_on_c, 0, 55, 0
1, 62388, Note_on_c, 0, 59, 0
1, 62400, Note_on_c, 0, 60, 42
1, 62400, Note_on_c, 0, 57, 72
1, 62496, Note_on_c, 0, 60, 0
1, 62520, Note_on_c, 0, 64, 89
1, 62592, Note_on_c, 0, 57, 0
1, 62616, Note_on_c, 0, 64, 0
1, 62640, Note_on_c, 0, 52, 54
1, 62700, Note_on_c, 0, 67, 61
1, 62748, Note_on_c, 0, 67, 0
1, 62760, Note_on_c, 0, 64, 58
1, 62808, Note_on_c, 0, 64, 0
1, 62820, Note_on_c, 0, 60, 43
1, 62832, Note_on_c, 0, 52, 0
1, 62868, Note_on_c, 0, 60, 0
1, 62880, Note_on_c, 0, 53, 54
1, 62940, Note_on_c, 0, 69, 45
1, 62988, Note_on_c, 0, 69, 0
1, 63000, Note_on_c, 0, 68, 42
1, 63048, Note_on_c, 0, 68, 0
1, 63060, Note_on_c, 0, 69, 54
1, 63072, Note_on_c, 0, 53, 0
1, 63108, Note_on_c, 0, 69, 0
1, 63120, Note_on_c, 0, 55, 54
1, 63180, Note_on_c, 0, 65, 61
1, 63228, Note_on_c, 0, 65, 0
1, 63240, Note_on_c, 0, 62, 42
1, 63288, Note_on_c, 0, 62, 0
1, 63300, Note_on_c, 0, 59, 42
1, 63312, Note_on_c, 0, 55, 0
1, 63348, Note_on_c, 0, 59, 0
1, 63360, Note_on_c, 0, 48, 58
1, 63360, Note_on_c, 0, 60, 52
1, 63408, Note_on_c, 0, 48, 0
1, 63420, Note_on_c, 0, 55, 58
1, 63468, Note_on_c, 0, 55, 0
1, 63480, Note_on_c, 0, 52, 44
1, 63528, Note_on_c, 0, 52, 0
1, 63540, Note_on_c, 0, 55, 42
1, 63552, Note_on_c, 0, 60, 0
1, 63588, Note_on_c, 0, 55, 0
1, 63600, Note_on_c, 0, 64, 65
1, 63600, Note_on_c, 0, 72, 43
1, 63600, Note_on_c, 0, 48, 42
1, 63648, Note_on_c, 0, 48, 0
1, 63660, Note_on_c, 0, 55, 50
1, 63708, Note_on_c, 0, 55, 0
1, 63720, Note_on_c, 0, 52, 50
1, 63768, Note_on_c, 0, 52, 0
1, 63780, Note_on_c, 0, 55, 52
1, 63792, Note_on_c, 0, 72, 0
1, 63792, Note_on_c, 0, 64, 0
1, 63828, Note_on_c, 0, 55, 0
1, 63840, Note_on_c, 0, 72, 45
1, 63840, Note_on_c, 0, 64, 60
1, 63840, Note_on_c, 0, 48, 61
1, 64032, Note_on_c, 0, 48, 0
1, 64032, Note_on_c, 0, 64, 0
1, 64032, Note_on_c, 0, 72, 0
1, 64320, Note_on_c, 0, 67, 43
1, 64320, Note_on_c, 0, 55, 52
1, 64344, Note_on_c, 0, 67, 0
1, 64350, Note_on_c, 0, 66, 66
1, 64368, Note_on_c, 0, 55, 0
1, 64374, Note_on_c, 0, 66, 0
1, 64380, Note_on_c, 0, 62, 50
1, 64380, Note_on_c, 0, 67, 54
1, 64428, Note_on_c, 0, 62, 0
1, 64440, Note_on_c, 0, 58, 83
1, 64488, Note_on_c, 0, 58, 0
1, 64500, Note_on_c, 0, 62, 54
1, 64524, Note_on_c, 0, 67, 0
1, 64548, Note_on_c, 0, 62, 0
1, 64560, Note_on_c, 0, 70, 112
1, 64560, Note_on_c, 0, 55, 58
1, 64608, Note_on_c, 0, 55, 0
1, 64620, Note_on_c, 0, 62, 43
1, 64668, Note_on_c, 0, 62, 0
1, 64680, Note_on_c, 0, 58, 54
1, 64728, Note_on_c, 0, 58, 0
1, 64740, Note_on_c, 0, 62, 50
1, 64752, Note_on_c, 0, 70, 0
1, 64788, Note_on_c, 0, 62, 0
1, 64800, Note_on_c, 0, 74, 97
1, 64800, Note_on_c, 0, 55, 61
1, 64848, Note_on_c, 0, 55, 0
1, 64860, Note_on_c, 0, 62, 54
1, 64908, Note_on_c, 0, 62, 0
1, 64920, Note_on_c, 0, 58, 42
1, 64968, Note_on_c, 0, 58, 0
1, 64980, Note_on_c, 0, 62, 61
1, 64992, Note_on_c, 0, 74, 0
1, 65028, Note_on_c, 0, 62, 0
1, 65040, Note_on_c, 0, 79, 71
1, 65040, Note_on_c, 0, 55, 61
1, 65088, Note_on_c, 0, 55, 0
1, 65100, Note_on_c, 0, 62, 52
1, 65148, Note_on_c, 0, 62, 0
1, 65160, Note_on_c, 0, 58, 50
1, 65208, Note_on_c, 0, 58, 0
1, 65220, Note_on_c, 0, 62, 42
1, 65232, Note_on_c, 0, 79, 0
1, 65268, Note_on_c, 0, 62, 0
1, 65280, Note_on_c, 0, 69, 54
1, 65280, Note_on_c, 0, 55, 52
1, 65304, Note_on_c, 0, 69, 0
1, 65310, Note_on_c, 0, 68, 50
1, 65328, Note_on_c, 0, 55, 0
1, 65334, Note_on_c, 0, 68, 0
1, 65340, Note_on_c, 0, 69, 77
1, 65340, Note_on_c, 0, 64, 58
1, 65388, Note_on_c, 0, 64, 0
1, 65400, Note_on_c, 0, 61, 54
1, 65448, Note_on_c, 0, 61, 0
1, 65460, Note_on_c, 0, 64, 66
1, 65484, Note_on_c, 0, 69, 0
1, 65508, Note_on_c, 0, 64, 0
1, 65520, Note_on_c, 0, 73, 114
1, 65520, Note_on_c, 0, 55, 66
1, 65568, Note_on_c, 0, 55, 0
1, 65580, Note_on_c, 0, 64, 66
1, 65628, Note_on_c, 0, 64, 0
1, 65640, Note_on_c, 0, 61, 52
1, 65688, Note_on_c, 0, 61, 0
1, 65700, Note_on_c, 0, 64, 71
1, 65712, Note_on_c, 0, 73, 0
1, 65748, Note_on_c, 0, 64, 0
1, 65760, Note_on_c, 0, 76, 89
1, 65760, Note_on_c, 0, 55, 66
1, 65808, Note_on_c, 0, 55, 0
1, 65820, Note_on_c, 0, 64, 58
1, 65868, Note_on_c, 0, 64, 0
1, 65880, Note_on_c, 0, 61, 52
1, 65928, Note_on_c, 0, 61, 0
1, 65940, Note_on_c, 0, 64, 61
1, 65952, Note_on_c, 0, 76, 0
1, 65988, Note_on_c, 0, 64, 0
1, 66000, Note_on_c, 0, 81, 71
1, 66000, Note_on_c, 0, 55, 55
1, 66048, Note_on_c, 0, 55, 0
1, 66060, Note_on_c, 0, 64, 66
1, 66108, Note_on_c, 0, 64, 0
1, 66120, Note_on_c, 0, 61, 50
1, 66168, Note_on_c, 0, 61, 0
1, 66180, Note_on_c, 0, 64, 58
1, 66192, Note_on_c, 0, 81, 0
1, 66228, Note_on_c, 0, 64, 0
1, 66240, Note_on_c, 0, 69, 54
1, 66240, Note_on_c, 0, 53, 71
1, 66264, Note_on_c, 0, 69, 0
1, 66270, Note_on_c, 0, 68, 47
1, 66288, Note_on_c, 0, 53, 0
1, 66294, Note_on_c, 0, 68, 0
1, 66300, Note_on_c, 0, 62, 50
1, 66300, Note_on_c, 0, 69, 58
1, 66348, Note_on_c, 0, 62, 0
1, 66360, Note_on_c, 0, 57, 61
1, 66408, Note_on_c, 0, 57, 0
1, 66420, Note_on_c, 0, 62, 52
1, 66444, Note_on_c, 0, 69, 0
1, 66468, Note_on_c, 0, 62, 0
1, 66480, Note_on_c, 0, 74, 69
1, 66480, Note_on_c, 0, 53, 54
1, 66528, Note_on_c, 0, 53, 0
1, 66540, Note_on_c, 0, 62, 44
1, 66588, Note_on_c, 0, 62, 0
1, 66600, Note_on_c, 0, 57, 43
1, 66648, Note_on_c, 0, 57, 0
1, 66660, Note_on_c, 0, 62, 52
1, 66672, Note_on_c, 0, 74, 0
1, 66708, Note_on_c, 0, 62, 0
1, 66720, Note_on_c, 0, 77, 89
1, 66720, Note_on_c, 0, 53, 43
1, 66768, Note_on_c, 0, 53, 0
1, 66780, Note_on_c, 0, 62, 45
1, 66828, Note_on_c, 0, 62, 0
1, 66840, Note_on_c, 0, 57, 52
1, 66888, Note_on_c, 0, 57, 0
1, 66900, Note_on_c, 0, 62, 61
1, 66912, Note_on_c, 0, 77, 0
1, 66948, Note_on_c, 0, 62, 0
1, 66960, Note_on_c, 0, 81, 77
1, 66960, Note_on_c, 0, 53, 66
1, 67008, Note_on_c, 0, 53, 0
1, 67020, Note_on_c, 0, 62, 54
1, 67068, Note_on_c, 0, 62, 0
1, 67080, Note_on_c, 0, 57, 71
1, 67128, Note_on_c, 0, 57, 0
1, 67140, Note_on_c, 0, 62, 66
1, 67152, Note_on_c, 0, 81, 0
1, 67188, Note_on_c, 0, 62, 0
1, 67200, Note_on_c, 0, 80, 83
1, 67200, Note_on_c, 0, 52, 42
1, 67224, Note_on_c, 0, 80, 0
1, 67230, Note_on_c, 0, 78, 58
1, 67248, Note_on_c, 0, 52, 0
1, 67254, Note_on_c, 0, 78, 0
1, 67260, Note_on_c, 0, 80, 80
1, 67260, Note_on_c, 0, 62, 52
1, 67308, Note_on_c, 0, 62, 0
1, 67320, Note_on_c, 0, 59, 71
1, 67368, Note_on_c, 0, 59, 0
1, 67380, Note_on_c, 0, 62, 61
1, 67404, Note_on_c, 0, 80, 0
1, 67428, Note_on_c, 0, 62, 0
1, 67440, Note_on_c, 0, 52, 52
1, 67488, Note_on_c, 0, 52, 0
1, 67500, Note_on_c, 0, 62, 42
1, 67548, Note_on_c, 0, 62, 0
1, 67560, Note_on_c, 0, 59, 46
1, 67608, Note_on_c, 0, 59, 0
1, 67620, Note_on_c, 0, 62, 50
1, 67668, Note_on_c, 0, 62, 0
1, 67680, Note_on_c, 0, 81, 52
1, 67680, Note_on_c, 0, 52, 58
1, 67704, Note_on_c, 0, 81, 0
1, 67710, Note_on_c, 0, 80, 77
1, 67728, Note_on_c, 0, 52, 0
1, 67734, Note_on_c, 0, 80, 0
1, 67740, Note_on_c, 0, 81, 80
1, 67740, Note_on_c, 0, 60, 61
1, 67788, Note_on_c, 0, 60, 0
1, 67800, Note_on_c, 0, 57, 71
1, 67848, Note_on_c, 0, 57, 0
1, 67860, Note_on_c, 0, 60, 61
1, 67884, Note_on_c, 0, 81, 0
1, 67908, Note_on_c, 0, 60, 0
1, 67920, Note_on_c, 0, 52, 61
1, 67968, Note_on_c, 0, 52, 0
1, 67980, Note_on_c, 0, 60, 61
1, 68028, Note_on_c, 0, 60, 0
1, 68040, Note_on_c, 0, 57, 61
1, 68088, Note_on_c, 0, 57, 0
1, 68100, Note_on_c, 0, 60, 54
1, 68148, Note_on_c, 0, 60, 0
1, 68160, Note_on_c, 0, 74, 58
1, 68160, Note_on_c, 0, 52, 58
1, 68184, Note_on_c, 0, 74, 0
1, 68190, Note_on_c, 0, 73, 43
1, 68208, Note_on_c, 0, 52, 0
1, 68214, Note_on_c, 0, 73, 0
1, 68220, Note_on_c, 0, 74, 80
1, 68220, Note_on_c, 0, 59, 50
1, 68268, Note_on_c, 0, 59, 0
1, 68280, Note_on_c, 0, 56, 54
1, 68328, Note_on_c, 0, 56, 0
1, 68340, Note_on_c, 0, 59, 42
1, 68364, Note_on_c, 0, 74, 0
1, 68388, Note_on_c, 0, 59, 0
1, 68400, Note_on_c, 0, 52, 54
1, 68448, Note_on_c, 0, 52, 0
1, 68460, Note_on_c, 0, 59, 43
1, 68508, Note_on_c, 0, 59, 0
1, 68520, Note_on_c, 0, 56, 31
1, 68568, Note_on_c, 0, 56, 0
1, 68580, Note_on_c, 0, 59, 42
1, 68628, Note_on_c, 0, 59, 0
1, 68640, Note_on_c, 0, 72, 42
1, 68640, Note_on_c, 0, 52, 61
1, 68664, Note_on_c, 0, 72, 0
1, 68670, Note_on_c, 0, 71, 43
1, 68688, Note_on_c, 0, 52, 0
1, 68694, Note_on_c, 0, 71, 0
1, 68700, Note_on_c, 0, 60, 66
1, 68700, Note_on_c, 0, 72, 58
1, 68700, Note_on_c, 0, 72, 58
1, 68748, Note_on_c, 0, 60, 0
1, 68760, Note_on_c, 0, 57, 61
1, 68808, Note_on_c, 0, 57, 0
1, 68820, Note_on_c, 0, 60, 47
1, 68844, Note_on_c, 0, 72, 0
1, 68844, Note_on_c, 0, 72, 0
1, 68868, Note_on_c, 0, 60, 0
1, 68880, Note_on_c, 0, 52, 58
1, 68928, Note_on_c, 0, 52, 0
1, 68940, Note_on_c, 0, 60, 47
1, 68988, Note_on_c, 0, 60, 0
1, 69000, Note_on_c, 0, 57, 43
1, 69048, Note_on_c, 0, 57, 0
1, 69060, Note_on_c, 0, 60, 42
1, 69108, Note_on_c, 0, 60, 0
1, 69120, Note_on_c, 0, 71, 61
1, 69120, Note_on_c, 0, 52, 52
1, 69168, Note_on_c, 0, 52, 0
1, 69180, Note_on_c, 0, 59, 45
1, 69228, Note_on_c, 0, 59, 0
1, 69240, Note_on_c, 0, 56, 42
1, 69288, Note_on_c, 0, 56, 0
1, 69300, Note_on_c, 0, 59, 54
1, 69312, Note_on_c, 0, 71, 0
1, 69348, Note_on_c, 0, 59, 0
1, 69360, Note_on_c, 0, 68, 58
1, 69360, Note_on_c, 0, 76, 58
1, 69360, Note_on_c, 0, 52, 58
1, 69408, Note_on_c, 0, 52, 0
1, 69420, Note_on_c, 0, 59, 54
1, 69468, Note_on_c, 0, 59, 0
1, 69480, Note_on_c, 0, 56, 55
1, 69528, Note_on_c, 0, 56, 0
1, 69540, Note_on_c, 0, 59, 52
1, 69552, Note_on_c, 0, 76, 0
1, 69552, Note_on_c, 0, 68, 0
1, 69588, Note_on_c, 0, 59, 0
1, 69600, Note_on_c, 0, 68, 50
1, 69600, Note_on_c, 0, 76, 58
1, 69600, Note_on_c, 0, 52, 66
1, 69792, Note_on_c, 0, 52, 0
1, 69792, Note_on_c, 0, 76, 0
1, 69792, Note_on_c, 0, 68, 0
1, 70080, Note_on_c, 0, 69, 65
1, 70080, Note_on_c, 0, 76, 71
1, 70080, Note_on_c, 0, 72, 45
1, 70128, Note_on_c, 0, 76, 0
1, 70140, Note_on_c, 0, 81, 66
1, 70176, Note_on_c, 0, 72, 0
1, 70176, Note_on_c, 0, 69, 0
1, 70188, Note_on_c, 0, 81, 0
1, 70200, Note_on_c, 0, 72, 47
1, 70200, Note_on_c, 0, 69, 45
1, 70200, Note_on_c, 0, 80, 43
1, 70248, Note_on_c, 0, 80, 0
1, 70260, Note_on_c, 0, 81, 71
1, 70296, Note_on_c, 0, 69, 0
1, 70296, Note_on_c, 0, 72, 0
1, 70308, Note_on_c, 0, 81, 0
1, 70320, Note_on_c, 0, 69, 47
1, 70320, Note_on_c, 0, 72, 42
1, 70320, Note_on_c, 0, 84, 89
1, 70368, Note_on_c, 0, 84, 0
1, 70380, Note_on_c, 0, 81, 61
1, 70416, Note_on_c, 0, 72, 0
1, 70416, Note_on_c, 0, 69, 0
1, 70428, Note_on_c, 0, 81, 0
1, 70440, Note_on_c, 0, 72, 42
1, 70440, Note_on_c, 0, 69, 47
1, 70440, Note_on_c, 0, 80, 50
1, 70488, Note_on_c, 0, 80, 0
1, 70500, Note_on_c, 0, 81, 61
1, 70536, Note_on_c, 0, 69, 0
1, 70536, Note_on_c, 0, 72, 0
1, 70548, Note_on_c, 0, 81, 0
1, 70560, Note_on_c, 0, 72, 42
1, 70560, Note_on_c, 0, 69, 44
1, 70560, Note_on_c, 0, 76, 61
1, 70656, Note_on_c, 0, 69, 0
1, 70656, Note_on_c, 0, 72, 0
1, 70680, Note_on_c, 0, 69, 42
1, 70680, Note_on_c, 0, 72, 37
1, 70752, Note_on_c, 0, 76, 0
1, 70776, Note_on_c, 0, 72, 0
1, 70776, Note_on_c, 0, 69, 0
1, 70800, Note_on_c, 0, 69, 43
1, 70800, Note_on_c, 0, 72, 42
1, 70896, Note_on_c, 0, 72, 0
1, 70896, Note_on_c, 0, 69, 0
1, 70920, Note_on_c, 0, 69, 43
1, 70920, Note_on_c, 0, 72, 42
1, 71016, Note_on_c, 0, 72, 0
1, 71016, Note_on_c, 0, 69, 0
1, 71040, Note_on_c, 0, 74, 43
1, 71040, Note_on_c, 0, 77, 66
1, 71040, Note_on_c, 0, 69, 45
1, 71088, Note_on_c, 0, 77, 0
1, 71100, Note_on_c, 0, 81, 66
1, 71136, Note_on_c, 0, 69, 0
1, 71136, Note_on_c, 0, 74, 0
1, 71148, Note_on_c, 0, 81, 0
1, 71160, Note_on_c, 0, 74, 40
1, 71160, Note_on_c, 0, 69, 41
1, 71160, Note_on_c, 0, 80, 43
1, 71208, Note_on_c, 0, 80, 0
1, 71220, Note_on_c, 0, 81, 58
1, 71256, Note_on_c, 0, 69, 0
1, 71256, Note_on_c, 0, 74, 0
1, 71268, Note_on_c, 0, 81, 0
1, 71280, Note_on_c, 0, 69, 47
1, 71280, Note_on_c, 0, 74, 33
1, 71280, Note_on_c, 0, 86, 83
1, 71328, Note_on_c, 0, 86, 0
1, 71340, Note_on_c, 0, 81, 58
1, 71376, Note_on_c, 0, 74, 0
1, 71376, Note_on_c, 0, 69, 0
1, 71388, Note_on_c, 0, 81, 0
1, 71400, Note_on_c, 0, 69, 42
1, 71400, Note_on_c, 0, 74, 42
1, 71400, Note_on_c, 0, 80, 50
1, 71448, Note_on_c, 0, 80, 0
1, 71460, Note_on_c, 0, 81, 54
1, 71496, Note_on_c, 0, 74, 0
1, 71496, Note_on_c, 0, 69, 0
1, 71508, Note_on_c, 0, 81, 0
1, 71520, Note_on_c, 0, 69, 42
1, 71520, Note_on_c, 0, 74, 41
1, 71520, Note_on_c, 0, 77, 44
1, 71616, Note_on_c, 0, 74, 0
1, 71616, Note_on_c, 0, 69, 0
1, 71640, Note_on_c, 0, 69, 40
1, 71640, Note_on_c, 0, 74, 1
1, 71712, Note_on_c, 0, 77, 0
1, 71736, Note_on_c, 0, 74, 0
1, 71736, Note_on_c, 0, 69, 0
1, 71760, Note_on_c, 0, 69, 40
1, 71760, Note_on_c, 0, 74, 42
1, 71856, Note_on_c, 0, 74, 0
1, 71856, Note_on_c, 0, 69, 0
1, 71880, Note_on_c, 0, 69, 40
1, 71880, Note_on_c, 0, 74, 42
1, 71976, Note_on_c, 0, 74, 0
1, 71976, Note_on_c, 0, 69, 0
1, 72000, Note_on_c, 0, 76, 71
1, 72000, Note_on_c, 0, 72, 42
1, 72000, Note_on_c, 0, 69, 42
1, 72048, Note_on_c, 0, 76, 0
1, 72060, Note_on_c, 0, 81, 66
1, 72096, Note_on_c, 0, 69, 0
1, 72096, Note_on_c, 0, 72, 0
1, 72108, Note_on_c, 0, 81, 0
1, 72120, Note_on_c, 0, 72, 42
1, 72120, Note_on_c, 0, 80, 43
1, 72120, Note_on_c, 0, 69, 42
1, 72168, Note_on_c, 0, 80, 0
1, 72180, Note_on_c, 0, 81, 71
1, 72216, Note_on_c, 0, 69, 0
1, 72216, Note_on_c, 0, 72, 0
1, 72228, Note_on_c, 0, 81, 0
1, 72240, Note_on_c, 0, 72, 42
1, 72240, Note_on_c, 0, 69, 42
1, 72240, Note_on_c, 0, 84, 89
1, 72288, Note_on_c, 0, 84, 0
1, 72300, Note_on_c, 0, 81, 61
1, 72336, Note_on_c, 0, 69, 0
1, 72336, Note_on_c, 0, 72, 0
1, 72348, Note_on_c, 0, 81, 0
1, 72360, Note_on_c, 0, 72, 58
1, 72360, Note_on_c, 0, 69, 61
1, 72360, Note_on_c, 0, 80, 50
1, 72408, Note_on_c, 0, 80, 0
1, 72420, Note_on_c, 0, 81, 61
1, 72456, Note_on_c, 0, 69, 0
1, 72456, Note_on_c, 0, 72, 0
1, 72468, Note_on_c, 0, 81, 0
1, 72480, Note_on_c, 0, 69, 52
1, 72480, Note_on_c, 0, 72, 47
1, 72480, Note_on_c, 0, 76, 61
1, 72576, Note_on_c, 0, 72, 0
1, 72576, Note_on_c, 0, 69, 0
1, 72600, Note_on_c, 0, 72, 43
1, 72600, Note_on_c, 0, 69, 44
1, 72672, Note_on_c, 0, 76, 0
1, 72696, Note_on_c, 0, 69, 0
1, 72696, Note_on_c, 0, 72, 0
1, 72720, Note_on_c, 0, 72, 42
1, 72720, Note_on_c, 0, 69, 43
1, 72816, Note_on_c, 0, 69, 0
1, 72816, Note_on_c, 0, 72, 0
1, 72840, Note_on_c, 0, 72, 42
1, 72840, Note_on_c, 0, 69, 45
1, 72936, Note_on_c, 0, 69, 0
1, 72936, Note_on_c, 0, 72, 0
1, 72960, Note_on_c, 0, 71, 43
1, 72960, Note_on_c, 0, 74, 66
1, 72960, Note_on_c, 0, 64, 42
1, 73008, Note_on_c, 0, 74, 0
1, 73020, Note_on_c, 0, 80, 61
1, 73056, Note_on_c, 0, 64, 0
1, 73056, Note_on_c, 0, 71, 0
1, 73068, Note_on_c, 0, 80, 0
1, 73080, Note_on_c, 0, 64, 42
1, 73080, Note_on_c, 0, 71, 42
1, 73080, Note_on_c, 0, 78, 83
1, 73128, Note_on_c, 0, 78, 0
1, 73140, Note_on_c, 0, 80, 66
1, 73176, Note_on_c, 0, 71, 0
1, 73176, Note_on_c, 0, 64, 0
1, 73188, Note_on_c, 0, 80, 0
1, 73200, Note_on_c, 0, 71, 42
1, 73200, Note_on_c, 0, 64, 42
1, 73200, Note_on_c, 0, 83, 83
1, 73248, Note_on_c, 0, 83, 0
1, 73260, Note_on_c, 0, 80, 50
1, 73296, Note_on_c, 0, 64, 0
1, 73296, Note_on_c, 0, 71, 0
1, 73308, Note_on_c, 0, 80, 0
1, 73320, Note_on_c, 0, 71, 42
1, 73320, Note_on_c, 0, 64, 42
1, 73320, Note_on_c, 0, 78, 71
1, 73368, Note_on_c, 0, 78, 0
1, 73380, Note_on_c, 0, 80, 65
1, 73416, Note_on_c, 0, 64, 0
1, 73416, Note_on_c, 0, 71, 0
1, 73428, Note_on_c, 0, 80, 0
1, 73440, Note_on_c, 0, 71, 42
1, 73440, Note_on_c, 0, 64, 42
1, 73440, Note_on_c, 0, 74, 89
1, 73536, Note_on_c, 0, 64, 0
1, 73536, Note_on_c, 0, 71, 0
1, 73560, Note_on_c, 0, 71, 42
1, 73560, Note_on_c, 0, 64, 42
1, 73632, Note_on_c, 0, 74, 0
1, 73656, Note_on_c, 0, 64, 0
1, 73656, Note_on_c, 0, 71, 0
1, 73680, Note_on_c, 0, 71, 42
1, 73680, Note_on_c, 0, 64, 42
1, 73776, Note_on_c, 0, 64, 0
1, 73776, Note_on_c, 0, 71, 0
1, 73800, Note_on_c, 0, 71, 29
1, 73800, Note_on_c, 0, 64, 35
1, 73896, Note_on_c, 0, 64, 0
1, 73896, Note_on_c, 0, 71, 0
1, 73920, Note_on_c, 0, 69, 43
1, 73920, Note_on_c, 0, 72, 66
1, 73968, Note_on_c, 0, 72, 0
1, 73980, Note_on_c, 0, 71, 55
1, 74028, Note_on_c, 0, 71, 0
1, 74040, Note_on_c, 0, 72, 71
1, 74088, Note_on_c, 0, 72, 0
1, 74100, Note_on_c, 0, 74, 71
1, 74112, Note_on_c, 0, 69, 0
1, 74148, Note_on_c, 0, 74, 0
1, 74160, Note_on_c, 0, 60, 61
1, 74160, Note_on_c, 0, 76, 71
1, 74208, Note_on_c, 0, 76, 0
1, 74220, Note_on_c, 0, 72, 58
1, 74268, Note_on_c, 0, 72, 0
1, 74280, Note_on_c, 0, 71, 61
1, 74328, Note_on_c, 0, 71, 0
1, 74340, Note_on_c, 0, 69, 54
1, 74352, Note_on_c, 0, 60, 0
1, 74388, Note_on_c, 0, 69, 0
1, 74400, Note_on_c, 0, 62, 58
1, 74520, Note_on_c, 0, 77, 54
1, 74592, Note_on_c, 0, 62, 0
1, 74616, Note_on_c, 0, 77, 0
1, 74640, Note_on_c, 0, 64, 58
1, 74760, Note_on_c, 0, 68, 80
1, 74832, Note_on_c, 0, 64, 0
1, 74856, Note_on_c, 0, 68, 0
1, 74880, Note_on_c, 0, 65, 50
1, 74880, Note_on_c, 0, 69, 80
1, 74976, Note_on_c, 0, 69, 0
1, 75000, Note_on_c, 0, 72, 54
1, 75072, Note_on_c, 0, 65, 0
1, 75096, Note_on_c, 0, 72, 0
1, 75120, Note_on_c, 0, 60, 54
1, 75240, Note_on_c, 0, 76, 52
1, 75312, Note_on_c, 0, 60, 0
1, 75336, Note_on_c, 0, 76, 0
1, 75360, Note_on_c, 0, 62, 61
1, 75480, Note_on_c, 0, 77, 50
1, 75552, Note_on_c, 0, 62, 0
1, 75576, Note_on_c, 0, 77, 0
1, 75600, Note_on_c, 0, 64, 62
1, 75720, Note_on_c, 0, 68, 54
1, 75792, Note_on_c, 0, 64, 0
1, 75816, Note_on_c, 0, 68, 0
1, 75840, Note_on_c, 0, 57, 54
1, 75840, Note_on_c, 0, 69, 58
1, 75864, Note_on_c, 0, 69, 0
1, 75870, Note_on_c, 0, 68, 43
1, 75888, Note_on_c, 0, 57, 0
1, 75894, Note_on_c, 0, 68, 0
1, 75900, Note_on_c, 0, 69, 80
1, 75900, Note_on_c, 0, 64, 42
1, 75948, Note_on_c, 0, 64, 0
1, 75960, Note_on_c, 0, 60, 55
1, 76008, Note_on_c, 0, 60, 0
1, 76020, Note_on_c, 0, 64, 45
1, 76044, Note_on_c, 0, 69, 0
1, 76068, Note_on_c, 0, 64, 0
1, 76080, Note_on_c, 0, 57, 42
1, 76080, Note_on_c, 0, 72, 61
1, 76128, Note_on_c, 0, 57, 0
1, 76140, Note_on_c, 0, 64, 42
1, 76188, Note_on_c, 0, 64, 0
1, 76200, Note_on_c, 0, 60, 46
1, 76248, Note_on_c, 0, 60, 0
1, 76260, Note_on_c, 0, 64, 42
1, 76272, Note_on_c, 0, 72, 0
1, 76308, Note_on_c, 0, 64, 0
1, 76320, Note_on_c, 0, 76, 89
1, 76320, Note_on_c, 0, 57, 42
1, 76368, Note_on_c, 0, 57, 0
1, 76380, Note_on_c, 0, 64, 44
1, 76428, Note_on_c, 0, 64, 0
1, 76440, Note_on_c, 0, 60, 52
1, 76488, Note_on_c, 0, 60, 0
1, 76500, Note_on_c, 0, 64, 43
1, 76512, Note_on_c, 0, 76, 0
1, 76548, Note_on_c, 0, 64, 0
1, 76560, Note_on_c, 0, 57, 42
1, 76560, Note_on_c, 0, 81, 71
1, 76608, Note_on_c, 0, 57, 0
1, 76620, Note_on_c, 0, 64, 47
1, 76668, Note_on_c, 0, 64, 0
1, 76680, Note_on_c, 0, 60, 52
1, 76728, Note_on_c, 0, 60, 0
1, 76740, Note_on_c, 0, 64, 50
1, 76752, Note_on_c, 0, 81, 0
1, 76788, Note_on_c, 0, 64, 0
1, 76800, Note_on_c, 0, 55, 54
1, 76800, Note_on_c, 0, 69, 58
1, 76824, Note_on_c, 0, 69, 0
1, 76830, Note_on_c, 0, 68, 43
1, 76848, Note_on_c, 0, 55, 0
1, 76854, Note_on_c, 0, 68, 0
1, 76860, Note_on_c, 0, 69, 80
1, 76860, Note_on_c, 0, 64, 45
1, 76908, Note_on_c, 0, 64, 0
1, 76920, Note_on_c, 0, 61, 52
1, 76968, Note_on_c, 0, 61, 0
1, 76980, Note_on_c, 0, 64, 54
1, 77004, Note_on_c, 0, 69, 0
1, 77028, Note_on_c, 0, 64, 0
1, 77040, Note_on_c, 0, 55, 42
1, 77040, Note_on_c, 0, 73, 77
1, 77088, Note_on_c, 0, 55, 0
1, 77100, Note_on_c, 0, 64, 54
1, 77148, Note_on_c, 0, 64, 0
1, 77160, Note_on_c, 0, 61, 71
1, 77208, Note_on_c, 0, 61, 0
1, 77220, Note_on_c, 0, 64, 50
1, 77232, Note_on_c, 0, 73, 0
1, 77268, Note_on_c, 0, 64, 0
1, 77280, Note_on_c, 0, 76, 71
1, 77280, Note_on_c, 0, 55, 46
1, 77328, Note_on_c, 0, 55, 0
1, 77340, Note_on_c, 0, 64, 50
1, 77388, Note_on_c, 0, 64, 0
1, 77400, Note_on_c, 0, 61, 58
1, 77448, Note_on_c, 0, 61, 0
1, 77460, Note_on_c, 0, 64, 52
1, 77472, Note_on_c, 0, 76, 0
1, 77508, Note_on_c, 0, 64, 0
1, 77520, Note_on_c, 0, 55, 43
1, 77520, Note_on_c, 0, 81, 55
1, 77568, Note_on_c, 0, 55, 0
1, 77580, Note_on_c, 0, 64, 44
1, 77628, Note_on_c, 0, 64, 0
1, 77640, Note_on_c, 0, 61, 50
1, 77688, Note_on_c, 0, 61, 0
1, 77700, Note_on_c, 0, 64, 43
1, 77712, Note_on_c, 0, 81, 0
1, 77748, Note_on_c, 0, 64, 0
1, 77760, Note_on_c, 0, 53, 42
1, 77760, Note_on_c, 0, 69, 58
1, 77784, Note_on_c, 0, 69, 0
1, 77790, Note_on_c, 0, 68, 43
1, 77808, Note_on_c, 0, 53, 0
1, 77814, Note_on_c, 0, 68, 0
1, 77820, Note_on_c, 0, 69, 80
1, 77820, Note_on_c, 0, 62, 58
1, 77868, Note_on_c, 0, 62, 0
1, 77880, Note_on_c, 0, 57, 54
1, 77928, Note_on_c, 0, 57, 0
1, 77940, Note_on_c, 0, 62, 42
1, 77964, Note_on_c, 0, 69, 0
1, 77988, Note_on_c, 0, 62, 0
1, 78000, Note_on_c, 0, 53, 54
1, 78000, Note_on_c, 0, 74, 71
1, 78048, Note_on_c, 0, 53, 0
1, 78060, Note_on_c, 0, 62, 44
1, 78108, Note_on_c, 0, 62, 0
1, 78120, Note_on_c, 0, 57, 12
1, 78168, Note_on_c, 0, 57, 0
1, 78180, Note_on_c, 0, 62, 44
1, 78192, Note_on_c, 0, 74, 0
1, 78228, Note_on_c, 0, 62, 0
1, 78240, Note_on_c, 0, 77, 61
1, 78240, Note_on_c, 0, 53, 42
1, 78288, Note_on_c, 0, 53, 0
1, 78300, Note_on_c, 0, 62, 44
1, 78348, Note_on_c, 0, 62, 0
1, 78360, Note_on_c, 0, 57, 45
1, 78408, Note_on_c, 0, 57, 0
1, 78420, Note_on_c, 0, 62, 43
1, 78432, Note_on_c, 0, 77, 0
1, 78468, Note_on_c, 0, 62, 0
1, 78480, Note_on_c, 0, 53, 43
1, 78480, Note_on_c, 0, 81, 50
1, 78528, Note_on_c, 0, 53, 0
1, 78540, Note_on_c, 0, 62, 52
1, 78588, Note_on_c, 0, 62, 0
1, 78600, Note_on_c, 0, 57, 40
1, 78648, Note_on_c, 0, 57, 0
1, 78660, Note_on_c, 0, 62, 42
1, 78672, Note_on_c, 0, 81, 0
1, 78708, Note_on_c, 0, 62, 0
1, 78720, Note_on_c, 0, 53, 43
1, 78720, Note_on_c, 0, 67, 58
1, 78744, Note_on_c, 0, 67, 0
1, 78750, Note_on_c, 0, 66, 43
1, 78768, Note_on_c, 0, 53, 0
1, 78774, Note_on_c, 0, 66, 0
1, 78780, Note_on_c, 0, 62, 46
1, 78780, Note_on_c, 0, 67, 80
1, 78828, Note_on_c, 0, 62, 0
1, 78840, Note_on_c, 0, 59, 54
1, 78888, Note_on_c, 0, 59, 0
1, 78900, Note_on_c, 0, 62, 54
1, 78924, Note_on_c, 0, 67, 0
1, 78948, Note_on_c, 0, 62, 0
1, 78960, Note_on_c, 0, 71, 80
1, 78960, Note_on_c, 0, 53, 47
1, 79008, Note_on_c, 0, 53, 0
1, 79020, Note_on_c, 0, 62, 52
1, 79068, Note_on_c, 0, 62, 0
1, 79080, Note_on_c, 0, 59, 54
1, 79128, Note_on_c, 0, 59, 0
1, 79140, Note_on_c, 0, 62, 46
1, 79152, Note_on_c, 0, 71, 0
1, 79188, Note_on_c, 0, 62, 0
1, 79200, Note_on_c, 0, 53, 50
1, 79200, Note_on_c, 0, 74, 80
1, 79248, Note_on_c, 0, 53, 0
1, 79260, Note_on_c, 0, 62, 42
1, 79308, Note_on_c, 0, 62, 0
1, 79320, Note_on_c, 0, 59, 47
1, 79368, Note_on_c, 0, 59, 0
1, 79380, Note_on_c, 0, 62, 43
1, 79392, Note_on_c, 0, 74, 0
1, 79428, Note_on_c, 0, 62, 0
1, 79440, Note_on_c, 0, 79, 80
1, 79440, Note_on_c, 0, 53, 47
1, 79488, Note_on_c, 0, 53, 0
1, 79500, Note_on_c, 0, 62, 45
1, 79548, Note_on_c, 0, 62, 0
1, 79560, Note_on_c, 0, 59, 54
1, 79608, Note_on_c, 0, 59, 0
1, 79620, Note_on_c, 0, 62, 47
1, 79632, Note_on_c, 0, 79, 0
1, 79668, Note_on_c, 0, 62, 0
1, 79680, Note_on_c, 0, 52, 55
1, 79680, Note_on_c, 0, 67, 58
1, 79704, Note_on_c, 0, 67, 0
1, 79710, Note_on_c, 0, 66, 43
1, 79728, Note_on_c, 0, 52, 0
1, 79734, Note_on_c, 0, 66, 0
1, 79740, Note_on_c, 0, 67, 80
1, 79740, Note_on_c, 0, 60, 54
1, 79788, Note_on_c, 0, 60, 0
1, 79800, Note_on_c, 0, 55, 44
1, 79848, Note_on_c, 0, 55, 0
1, 79860, Note_on_c, 0, 60, 46
1, 79884, Note_on_c, 0, 67, 0
1, 79908, Note_on_c, 0, 60, 0
1, 79920, Note_on_c, 0, 52, 42
1, 79920, Note_on_c, 0, 72, 58
1, 79968, Note_on_c, 0, 52, 0
1, 79980, Note_on_c, 0, 60, 45
1, 80028, Note_on_c, 0, 60, 0
1, 80040, Note_on_c, 0, 55, 45
1, 80088, Note_on_c, 0, 55, 0
1, 80100, Note_on_c, 0, 60, 44
1, 80112, Note_on_c, 0, 72, 0
1, 80148, Note_on_c, 0, 60, 0
1, 80160, Note_on_c, 0, 76, 71
1, 80160, Note_on_c, 0, 52, 52
1, 80208, Note_on_c, 0, 52, 0
1, 80220, Note_on_c, 0, 60, 54
1, 80268, Note_on_c, 0, 60, 0
1, 80280, Note_on_c, 0, 55, 62
1, 80328, Note_on_c, 0, 55, 0
1, 80340, Note_on_c, 0, 60, 54
1, 80352, Note_on_c, 0, 76, 0
1, 80388, Note_on_c, 0, 60, 0
1, 80400, Note_on_c, 0, 52, 44
1, 80400, Note_on_c, 0, 79, 58
1, 80448, Note_on_c, 0, 52, 0
1, 80460, Note_on_c, 0, 60, 58
1, 80508, Note_on_c, 0, 60, 0
1, 80520, Note_on_c, 0, 55, 61
1, 80568, Note_on_c, 0, 55, 0
1, 80580, Note_on_c, 0, 60, 42
1, 80592, Note_on_c, 0, 79, 0
1, 80628, Note_on_c, 0, 60, 0
1, 80640, Note_on_c, 0, 77, 58
1, 80640, Note_on_c, 0, 47, 50
1, 80664, Note_on_c, 0, 77, 0
1, 80670, Note_on_c, 0, 76, 43
1, 80688, Note_on_c, 0, 47, 0
1, 80694, Note_on_c, 0, 76, 0
1, 80700, Note_on_c, 0, 77, 80
1, 80700, Note_on_c, 0, 55, 42
1, 80748, Note_on_c, 0, 55, 0
1, 80760, Note_on_c, 0, 50, 66
1, 80808, Note_on_c, 0, 50, 0
1, 80820, Note_on_c, 0, 55, 43
1, 80844, Note_on_c, 0, 77, 0
1, 80868, Note_on_c, 0, 55, 0
1, 80880, Note_on_c, 0, 47, 43
1, 80928, Note_on_c, 0, 47, 0
1, 80940, Note_on_c, 0, 55, 42
1, 80988, Note_on_c, 0, 55, 0
1, 81000, Note_on_c, 0, 50, 58
1, 81048, Note_on_c, 0, 50, 0
1, 81060, Note_on_c, 0, 55, 43
1, 81108, Note_on_c, 0, 55, 0
1, 81120, Note_on_c, 0, 76, 58
1, 81120, Note_on_c, 0, 48, 61
1, 81144, Note_on_c, 0, 76, 0
1, 81150, Note_on_c, 0, 74, 43
1, 81168, Note_on_c, 0, 48, 0
1, 81174, Note_on_c, 0, 74, 0
1, 81180, Note_on_c, 0, 76, 80
1, 81180, Note_on_c, 0, 55, 45
1, 81228, Note_on_c, 0, 55, 0
1, 81240, Note_on_c, 0, 52, 62
1, 81288, Note_on_c, 0, 52, 0
1, 81300, Note_on_c, 0, 55, 45
1, 81324, Note_on_c, 0, 76, 0
1, 81348, Note_on_c, 0, 55, 0
1, 81360, Note_on_c, 0, 48, 58
1, 81408, Note_on_c, 0, 48, 0
1, 81420, Note_on_c, 0, 55, 42
1, 81468, Note_on_c, 0, 55, 0
1, 81480, Note_on_c, 0, 52, 61
1, 81528, Note_on_c, 0, 52, 0
1, 81540, Note_on_c, 0, 55, 45
1, 81588, Note_on_c, 0, 55, 0
1, 81600, Note_on_c, 0, 77, 58
1, 81600, Note_on_c, 0, 47, 66
1, 81624, Note_on_c, 0, 77, 0
1, 81630, Note_on_c, 0, 76, 43
1, 81648, Note_on_c, 0, 47, 0
1, 81654, Note_on_c, 0, 76, 0
1, 81660, Note_on_c, 0, 77, 80
1, 81660, Note_on_c, 0, 55, 42
1, 81708, Note_on_c, 0, 55, 0
1, 81720, Note_on_c, 0, 50, 67
1, 81768, Note_on_c, 0, 50, 0
1, 81780, Note_on_c, 0, 55, 43
1, 81804, Note_on_c, 0, 77, 0
1, 81828, Note_on_c, 0, 55, 0
1, 81840, Note_on_c, 0, 47, 44
1, 81888, Note_on_c, 0, 47, 0
1, 81900, Note_on_c, 0, 55, 42
1, 81948, Note_on_c, 0, 55, 0
1, 81960, Note_on_c, 0, 50, 42
1, 82008, Note_on_c, 0, 50, 0
1, 82020, Note_on_c, 0, 55, 43
1, 82068, Note_on_c, 0, 55, 0
1, 82080, Note_on_c, 0, 76, 58
1, 82080, Note_on_c, 0, 48, 50
1, 82104, Note_on_c, 0, 76, 0
1, 82110, Note_on_c, 0, 74, 43
1, 82128, Note_on_c, 0, 48, 0
1, 82134, Note_on_c, 0, 74, 0
1, 82140, Note_on_c, 0, 76, 80
1, 82140, Note_on_c, 0, 55, 42
1, 82188, Note_on_c, 0, 55, 0
1, 82200, Note_on_c, 0, 52, 47
1, 82248, Note_on_c, 0, 52, 0
1, 82260, Note_on_c, 0, 55, 43
1, 82284, Note_on_c, 0, 76, 0
1, 82308, Note_on_c, 0, 55, 0
1, 82320, Note_on_c, 0, 48, 43
1, 82368, Note_on_c, 0, 48, 0
1, 82380, Note_on_c, 0, 55, 42
1, 82428, Note_on_c, 0, 55, 0
1, 82440, Note_on_c, 0, 52, 42
1, 82488, Note_on_c, 0, 52, 0
1, 82500, Note_on_c, 0, 55, 42
1, 82548, Note_on_c, 0, 55, 0
1, 82560, Note_on_c, 0, 53, 54
1, 82560, Note_on_c, 0, 74, 42
1, 82608, Note_on_c, 0, 74, 0
1, 82620, Note_on_c, 0, 73, 42
1, 82668, Note_on_c, 0, 73, 0
1, 82680, Note_on_c, 0, 74, 42
1, 82728, Note_on_c, 0, 74, 0
1, 82740, Note_on_c, 0, 76, 50
1, 82788, Note_on_c, 0, 76, 0
1, 82800, Note_on_c, 0, 77, 52
1, 82848, Note_on_c, 0, 77, 0
1, 82860, Note_on_c, 0, 76, 54
1, 82908, Note_on_c, 0, 76, 0
1, 82920, Note_on_c, 0, 77, 50
1, 82968, Note_on_c, 0, 77, 0
1, 82980, Note_on_c, 0, 79, 66
1, 83028, Note_on_c, 0, 79, 0
1, 83040, Note_on_c, 0, 81, 43
1, 83136, Note_on_c, 0, 81, 0
1, 83136, Note_on_c, 0, 53, 0
1, 83160, Note_on_c, 0, 69, 58
1, 83256, Note_on_c, 0, 69, 0
1, 83280, Note_on_c, 0, 54, 52
1, 83280, Note_on_c, 0, 71, 42
1, 83376, Note_on_c, 0, 71, 0
1, 83400, Note_on_c, 0, 72, 61
1, 83472, Note_on_c, 0, 54, 0
1, 83496, Note_on_c, 0, 72, 0
1, 83520, Note_on_c, 0, 55, 58
1, 83520, Note_on_c, 0, 72, 66
1, 83568, Note_on_c, 0, 72, 0
1, 83580, Note_on_c, 0, 71, 42
1, 83628, Note_on_c, 0, 71, 0
1, 83640, Note_on_c, 0, 69, 43
1, 83688, Note_on_c, 0, 69, 0
1, 83700, Note_on_c, 0, 67, 42
1, 83712, Note_on_c, 0, 55, 0
1, 83748, Note_on_c, 0, 67, 0
1, 83760, Note_on_c, 0, 59, 58
1, 83760, Note_on_c, 0, 55, 50
1, 83760, Note_on_c, 0, 67, 42
1, 83952, Note_on_c, 0, 67, 0
1, 83952, Note_on_c, 0, 55, 0
1, 83952, Note_on_c, 0, 59, 0
1, 84000, Note_on_c, 0, 59, 44
1, 84000, Note_on_c, 0, 55, 48
1, 84000, Note_on_c, 0, 67, 42
1, 84192, Note_on_c, 0, 67, 0
1, 84192, Note_on_c, 0, 55, 0
1, 84192, Note_on_c, 0, 59, 0
1, 84480, Note_on_c, 0, 76, 45
1, 84480, Note_on_c, 0, 60, 52
1, 84528, Note_on_c, 0, 60, 0
1, 84540, Note_on_c, 0, 67, 42
1, 84576, Note_on_c, 0, 76, 0
1, 84588, Note_on_c, 0, 67, 0
1, 84600, Note_on_c, 0, 79, 43
1, 84600, Note_on_c, 0, 64, 61
1, 84648, Note_on_c, 0, 64, 0
1, 84660, Note_on_c, 0, 67, 42
1, 84696, Note_on_c, 0, 79, 0
1, 84708, Note_on_c, 0, 67, 0
1, 84720, Note_on_c, 0, 60, 43
1, 84768, Note_on_c, 0, 60, 0
1, 84780, Note_on_c, 0, 67, 42
1, 84828, Note_on_c, 0, 67, 0
1, 84840, Note_on_c, 0, 79, 50
1, 84840, Note_on_c, 0, 64, 50
1, 84888, Note_on_c, 0, 64, 0
1, 84900, Note_on_c, 0, 67, 42
1, 84936, Note_on_c, 0, 79, 0
1, 84948, Note_on_c, 0, 67, 0
1, 84960, Note_on_c, 0, 84, 61
1, 84960, Note_on_c, 0, 60, 52
1, 85008, Note_on_c, 0, 60, 0
1, 85020, Note_on_c, 0, 67, 43
1, 85056, Note_on_c, 0, 84, 0
1, 85068, Note_on_c, 0, 67, 0
1, 85080, Note_on_c, 0, 79, 42
1, 85080, Note_on_c, 0, 64, 61
1, 85128, Note_on_c, 0, 64, 0
1, 85140, Note_on_c, 0, 67, 43
1, 85176, Note_on_c, 0, 79, 0
1, 85188, Note_on_c, 0, 67, 0
1, 85200, Note_on_c, 0, 60, 1
1, 85248, Note_on_c, 0, 60, 0
1, 85260, Note_on_c, 0, 67, 40
1, 85308, Note_on_c, 0, 67, 0
1, 85320, Note_on_c, 0, 64, 71
1, 85320, Note_on_c, 0, 76, 66
1, 85368, Note_on_c, 0, 64, 0
1, 85380, Note_on_c, 0, 67, 42
1, 85416, Note_on_c, 0, 76, 0
1, 85428, Note_on_c, 0, 67, 0
1, 85440, Note_on_c, 0, 77, 52
1, 85440, Note_on_c, 0, 59, 42
1, 85488, Note_on_c, 0, 59, 0
1, 85500, Note_on_c, 0, 67, 42
1, 85536, Note_on_c, 0, 77, 0
1, 85548, Note_on_c, 0, 67, 0
1, 85560, Note_on_c, 0, 74, 58
1, 85560, Note_on_c, 0, 62, 71
1, 85608, Note_on_c, 0, 62, 0
1, 85620, Note_on_c, 0, 67, 36
1, 85656, Note_on_c, 0, 74, 0
1, 85668, Note_on_c, 0, 67, 0
1, 85680, Note_on_c, 0, 59, 43
1, 85728, Note_on_c, 0, 59, 0
1, 85740, Note_on_c, 0, 67, 42
1, 85788, Note_on_c, 0, 67, 0
1, 85800, Note_on_c, 0, 83, 58
1, 85800, Note_on_c, 0, 62, 43
1, 85848, Note_on_c, 0, 62, 0
1, 85860, Note_on_c, 0, 67, 42
1, 85896, Note_on_c, 0, 83, 0
1, 85908, Note_on_c, 0, 67, 0
1, 85920, Note_on_c, 0, 86, 61
1, 85920, Note_on_c, 0, 59, 47
1, 85968, Note_on_c, 0, 59, 0
1, 85980, Note_on_c, 0, 67, 42
1, 86016, Note_on_c, 0, 86, 0
1, 86028, Note_on_c, 0, 67, 0
1, 86040, Note_on_c, 0, 77, 42
1, 86040, Note_on_c, 0, 62, 42
1, 86088, Note_on_c, 0, 62, 0
1, 86100, Note_on_c, 0, 67, 42
1, 86136, Note_on_c, 0, 77, 0
1, 86148, Note_on_c, 0, 67, 0
1, 86160, Note_on_c, 0, 59, 43
1, 86208, Note_on_c, 0, 59, 0
1, 86220, Note_on_c, 0, 67, 42
1, 86268, Note_on_c, 0, 67, 0
1, 86280, Note_on_c, 0, 62, 61
1, 86280, Note_on_c, 0, 77, 61
1, 86328, Note_on_c, 0, 62, 0
1, 86340, Note_on_c, 0, 67, 42
1, 86376, Note_on_c, 0, 77, 0
1, 86388, Note_on_c, 0, 67, 0
1, 86400, Note_on_c, 0, 76, 45
1, 86400, Note_on_c, 0, 60, 71
1, 86448, Note_on_c, 0, 60, 0
1, 86460, Note_on_c, 0, 67, 42
1, 86496, Note_on_c, 0, 76, 0
1, 86508, Note_on_c, 0, 67, 0
1, 86520, Note_on_c, 0, 79, 43
1, 86520, Note_on_c, 0, 64, 44
1, 86568, Note_on_c, 0, 64, 0
1, 86580, Note_on_c, 0, 67, 42
1, 86616, Note_on_c, 0, 79, 0
1, 86628, Note_on_c, 0, 67, 0
1, 86640, Note_on_c, 0, 60, 45
1, 86688, Note_on_c, 0, 60, 0
1, 86700, Note_on_c, 0, 67, 42
1, 86748, Note_on_c, 0, 67, 0
1, 86760, Note_on_c, 0, 79, 50
1, 86760, Note_on_c, 0, 64, 62
1, 86808, Note_on_c, 0, 64, 0
1, 86820, Note_on_c, 0, 67, 42
1, 86856, Note_on_c, 0, 79, 0
1, 86868, Note_on_c, 0, 67, 0
1, 86880, Note_on_c, 0, 84, 61
1, 86880, Note_on_c, 0, 60, 71
1, 86928, Note_on_c, 0, 60, 0
1, 86940, Note_on_c, 0, 67, 42
1, 86976, Note_on_c, 0, 84, 0
1, 86988, Note_on_c, 0, 67, 0
1, 87000, Note_on_c, 0, 79, 42
1, 87000, Note_on_c, 0, 64, 77
1, 87048, Note_on_c, 0, 64, 0
1, 87060, Note_on_c, 0, 67, 42
1, 87096, Note_on_c, 0, 79, 0
1, 87108, Note_on_c, 0, 67, 0
1, 87120, Note_on_c, 0, 60, 50
1, 87168, Note_on_c, 0, 60, 0
1, 87180, Note_on_c, 0, 67, 42
1, 87228, Note_on_c, 0, 67, 0
1, 87240, Note_on_c, 0, 64, 42
1, 87240, Note_on_c, 0, 76, 66
1, 87288, Note_on_c, 0, 64, 0
1, 87300, Note_on_c, 0, 67, 42
1, 87336, Note_on_c, 0, 76, 0
1, 87348, Note_on_c, 0, 67, 0
1, 87360, Note_on_c, 0, 77, 52
1, 87360, Note_on_c, 0, 59, 66
1, 87408, Note_on_c, 0, 59, 0
1, 87420, Note_on_c, 0, 67, 43
1, 87456, Note_on_c, 0, 77, 0
1, 87468, Note_on_c, 0, 67, 0
1, 87480, Note_on_c, 0, 74, 58
1, 87480, Note_on_c, 0, 62, 71
1, 87528, Note_on_c, 0, 62, 0
1, 87540, Note_on_c, 0, 67, 43
1, 87576, Note_on_c, 0, 74, 0
1, 87588, Note_on_c, 0, 67, 0
1, 87600, Note_on_c, 0, 59, 47
1, 87648, Note_on_c, 0, 59, 0
1, 87660, Note_on_c, 0, 67, 44
1, 87708, Note_on_c, 0, 67, 0
1, 87720, Note_on_c, 0, 83, 58
1, 87720, Note_on_c, 0, 62, 75
1, 87768, Note_on_c, 0, 62, 0
1, 87780, Note_on_c, 0, 67, 43
1, 87816, Note_on_c, 0, 83, 0
1, 87828, Note_on_c, 0, 67, 0
1, 87840, Note_on_c, 0, 86, 61
1, 87840, Note_on_c, 0, 59, 50
1, 87888, Note_on_c, 0, 59, 0
1, 87900, Note_on_c, 0, 67, 42
1, 87936, Note_on_c, 0, 86, 0
1, 87948, Note_on_c, 0, 67, 0
1, 87960, Note_on_c, 0, 77, 42
1, 87960, Note_on_c, 0, 62, 77
1, 88008, Note_on_c, 0, 62, 0
1, 88020, Note_on_c, 0, 67, 42
1, 88056, Note_on_c, 0, 77, 0
1, 88068, Note_on_c, 0, 67, 0
1, 88080, Note_on_c, 0, 59, 52
1, 88128, Note_on_c, 0, 59, 0
1, 88140, Note_on_c, 0, 67, 43
1, 88188, Note_on_c, 0, 67, 0
1, 88200, Note_on_c, 0, 62, 66
1, 88200, Note_on_c, 0, 77, 61
1, 88248, Note_on_c, 0, 62, 0
1, 88260, Note_on_c, 0, 67, 42
1, 88296, Note_on_c, 0, 77, 0
1, 88308, Note_on_c, 0, 67, 0
1, 88320, Note_on_c, 0, 60, 44
1, 88320, Note_on_c, 0, 76, 66
1, 88368, Note_on_c, 0, 76, 0
1, 88380, Note_on_c, 0, 84, 77
1, 88428, Note_on_c, 0, 84, 0
1, 88440, Note_on_c, 0, 83, 50
1, 88488, Note_on_c, 0, 83, 0
1, 88500, Note_on_c, 0, 84, 61
1, 88512, Note_on_c, 0, 60, 0
1, 88548, Note_on_c, 0, 84, 0
1, 88560, Note_on_c, 0, 86, 58
1, 88608, Note_on_c, 0, 86, 0
1, 88620, Note_on_c, 0, 84, 42
1, 88668, Note_on_c, 0, 84, 0
1, 88680, Note_on_c, 0, 83, 50
1, 88728, Note_on_c, 0, 83, 0
1, 88740, Note_on_c, 0, 84, 58
1, 88788, Note_on_c, 0, 84, 0
1, 88800, Note_on_c, 0, 72, 51
1, 88800, Note_on_c, 0, 76, 77
1, 88800, Note_on_c, 0, 64, 43
1, 88848, Note_on_c, 0, 76, 0
1, 88860, Note_on_c, 0, 82, 77
1, 88908, Note_on_c, 0, 82, 0
1, 88920, Note_on_c, 0, 81, 66
1, 88968, Note_on_c, 0, 81, 0
1, 88980, Note_on_c, 0, 82, 89
1, 88992, Note_on_c, 0, 64, 0
1, 88992, Note_on_c, 0, 72, 0
1, 89028, Note_on_c, 0, 82, 0
1, 89040, Note_on_c, 0, 84, 83
1, 89088, Note_on_c, 0, 84, 0
1, 89100, Note_on_c, 0, 82, 66
1, 89148, Note_on_c, 0, 82, 0
1, 89160, Note_on_c, 0, 81, 50
1, 89208, Note_on_c, 0, 81, 0
1, 89220, Note_on_c, 0, 82, 77
1, 89268, Note_on_c, 0, 82, 0
1, 89280, Note_on_c, 0, 81, 80
1, 89280, Note_on_c, 0, 65, 47
1, 89328, Note_on_c, 0, 65, 0
1, 89340, Note_on_c, 0, 72, 44
1, 89388, Note_on_c, 0, 72, 0
1, 89400, Note_on_c, 0, 69, 34
1, 89448, Note_on_c, 0, 69, 0
1, 89460, Note_on_c, 0, 72, 42
1, 89472, Note_on_c, 0, 81, 0
1, 89508, Note_on_c, 0, 72, 0
1, 89520, Note_on_c, 0, 81, 80
1, 89520, Note_on_c, 0, 65, 45
1, 89568, Note_on_c, 0, 65, 0
1, 89580, Note_on_c, 0, 72, 52
1, 89628, Note_on_c, 0, 72, 0
1, 89640, Note_on_c, 0, 69, 47
1, 89688, Note_on_c, 0, 69, 0
1, 89700, Note_on_c, 0, 72, 61
1, 89712, Note_on_c, 0, 81, 0
1, 89748, Note_on_c, 0, 72, 0
1, 89760, Note_on_c, 0, 65, 50
1, 89760, Note_on_c, 0, 81, 43
1, 89856, Note_on_c, 0, 81, 0
1, 89880, Note_on_c, 0, 84, 61
1, 89952, Note_on_c, 0, 65, 0
1, 89976, Note_on_c, 0, 84, 0
1, 90000, Note_on_c, 0, 83, 47
1, 90048, Note_on_c, 0, 83, 0
1, 90060, Note_on_c, 0, 81, 61
1, 90108, Note_on_c, 0, 81, 0
1, 90120, Note_on_c, 0, 79, 47
1, 90168, Note_on_c, 0, 79, 0
1, 90180, Note_on_c, 0, 77, 54
1, 90228, Note_on_c, 0, 77, 0
1, 90240, Note_on_c, 0, 76, 43
1, 90240, Note_on_c, 0, 60, 47
1, 90240, Note_on_c, 0, 55, 42
1, 90336, Note_on_c, 0, 55, 0
1, 90336, Note_on_c, 0, 60, 0
1, 90336, Note_on_c, 0, 76, 0
1, 90360, Note_on_c, 0, 55, 45
1, 90360, Note_on_c, 0, 79, 42
1, 90360, Note_on_c, 0, 60, 71
1, 90456, Note_on_c, 0, 60, 0
1, 90456, Note_on_c, 0, 79, 0
1, 90456, Note_on_c, 0, 55, 0
1, 90480, Note_on_c, 0, 55, 43
1, 90480, Note_on_c, 0, 77, 43
1, 90480, Note_on_c, 0, 60, 64
1, 90528, Note_on_c, 0, 77, 0
1, 90540, Note_on_c, 0, 76, 58
1, 90576, Note_on_c, 0, 60, 0
1, 90576, Note_on_c, 0, 55, 0
1, 90588, Note_on_c, 0, 76, 0
1, 90600, Note_on_c, 0, 60, 71
1, 90600, Note_on_c, 0, 55, 45
1, 90600, Note_on_c, 0, 74, 42
1, 90648, Note_on_c, 0, 74, 0
1, 90660, Note_on_c, 0, 72, 52
1, 90696, Note_on_c, 0, 55, 0
1, 90696, Note_on_c, 0, 60, 0
1, 90708, Note_on_c, 0, 72, 0
1, 90720, Note_on_c, 0, 76, 43
1, 90720, Note_on_c, 0, 55, 42
1, 90720, Note_on_c, 0, 59, 51
1, 90732, Note_on_c, 0, 76, 0
1, 90735, Note_on_c, 0, 74, 42
1, 90747, Note_on_c, 0, 74, 0
1, 90750, Note_on_c, 0, 76, 47
1, 90762, Note_on_c, 0, 76, 0
1, 90765, Note_on_c, 0, 74, 42
1, 90777, Note_on_c, 0, 74, 0
1, 90780, Note_on_c, 0, 76, 61
1, 90792, Note_on_c, 0, 76, 0
1, 90795, Note_on_c, 0, 74, 43
1, 90807, Note_on_c, 0, 74, 0
1, 90810, Note_on_c, 0, 76, 61
1, 90816, Note_on_c, 0, 59, 0
1, 90816, Note_on_c, 0, 55, 0
1, 90822, Note_on_c, 0, 76, 0
1, 90825, Note_on_c, 0, 74, 50
1, 90837, Note_on_c, 0, 74, 0
1, 90840, Note_on_c, 0, 59, 43
1, 90840, Note_on_c, 0, 55, 42
1, 90840, Note_on_c, 0, 76, 54
1, 90852, Note_on_c, 0, 76, 0
1, 90855, Note_on_c, 0, 74, 43
1, 90867, Note_on_c, 0, 74, 0
1, 90870, Note_on_c, 0, 76, 66
1, 90882, Note_on_c, 0, 76, 0
1, 90885, Note_on_c, 0, 74, 42
1, 90897, Note_on_c, 0, 74, 0
1, 90900, Note_on_c, 0, 76, 45
1, 90912, Note_on_c, 0, 76, 0
1, 90915, Note_on_c, 0, 74, 12
1, 90927, Note_on_c, 0, 74, 0
1, 90930, Note_on_c, 0, 76, 45
1, 90936, Note_on_c, 0, 55, 0
1, 90936, Note_on_c, 0, 59, 0
1, 90942, Note_on_c, 0, 76, 0
1, 90945, Note_on_c, 0, 74, 42
1, 90957, Note_on_c, 0, 74, 0
1, 90960, Note_on_c, 0, 59, 46
1, 90960, Note_on_c, 0, 55, 42
1, 90960, Note_on_c, 0, 76, 42
1, 90972, Note_on_c, 0, 76, 0
1, 90975, Note_on_c, 0, 74, 42
1, 90987, Note_on_c, 0, 74, 0
1, 90990, Note_on_c, 0, 76, 52
1, 91002, Note_on_c, 0, 76, 0
1, 91005, Note_on_c, 0, 74, 42
1, 91017, Note_on_c, 0, 74, 0
1, 91020, Note_on_c, 0, 76, 50
1, 91032, Note_on_c, 0, 76, 0
1, 91035, Note_on_c, 0, 74, 42
1, 91047, Note_on_c, 0, 74, 0
1, 91050, Note_on_c, 0, 76, 58
1, 91056, Note_on_c, 0, 55, 0
1, 91056, Note_on_c, 0, 59, 0
1, 91062, Note_on_c, 0, 76, 0
1, 91065, Note_on_c, 0, 74, 54
1, 91077, Note_on_c, 0, 74, 0
1, 91080, Note_on_c, 0, 55, 40
1, 91080, Note_on_c, 0, 59, 42
1, 91080, Note_on_c, 0, 76, 71
1, 91092, Note_on_c, 0, 76, 0
1, 91095, Note_on_c, 0, 74, 42
1, 91107, Note_on_c, 0, 74, 0
1, 91110, Note_on_c, 0, 76, 50
1, 91122, Note_on_c, 0, 76, 0
1, 91125, Note_on_c, 0, 74, 43
1, 91137, Note_on_c, 0, 74, 0
1, 91140, Note_on_c, 0, 76, 44
1, 91152, Note_on_c, 0, 76, 0
1, 91155, Note_on_c, 0, 74, 43
1, 91167, Note_on_c, 0, 74, 0
1, 91170, Note_on_c, 0, 76, 41
1, 91176, Note_on_c, 0, 59, 0
1, 91176, Note_on_c, 0, 55, 0
1, 91182, Note_on_c, 0, 76, 0
1, 91185, Note_on_c, 0, 74, 42
1, 91197, Note_on_c, 0, 74, 0
1, 91200, Note_on_c, 0, 60, 80
1, 91200, Note_on_c, 0, 72, 80
1, 91392, Note_on_c, 0, 72, 0
1, 91392, Note_on_c, 0, 60, 0
1, 91440, Note_on_c, 0, 64, 61
1, 91500, Note_on_c, 0, 79, 58
1, 91548, Note_on_c, 0, 79, 0
1, 91560, Note_on_c, 0, 76, 52
1, 91608, Note_on_c, 0, 76, 0
1, 91620, Note_on_c, 0, 72, 47
1, 91632, Note_on_c, 0, 64, 0
1, 91668, Note_on_c, 0, 72, 0
1, 91680, Note_on_c, 0, 65, 58
1, 91740, Note_on_c, 0, 81, 44
1, 91788, Note_on_c, 0, 81, 0
1, 91800, Note_on_c, 0, 80, 61
1, 91848, Note_on_c, 0, 80, 0
1, 91860, Note_on_c, 0, 81, 42
1, 91872, Note_on_c, 0, 65, 0
1, 91908, Note_on_c, 0, 81, 0
1, 91920, Note_on_c, 0, 67, 47
1, 91980, Note_on_c, 0, 77, 54
1, 92028, Note_on_c, 0, 77, 0
1, 92040, Note_on_c, 0, 74, 46
1, 92088, Note_on_c, 0, 74, 0
1, 92100, Note_on_c, 0, 71, 44
1, 92112, Note_on_c, 0, 67, 0
1, 92148, Note_on_c, 0, 71, 0
1, 92160, Note_on_c, 0, 72, 45
1, 92160, Note_on_c, 0, 69, 52
1, 92256, Note_on_c, 0, 72, 0
1, 92280, Note_on_c, 0, 76, 61
1, 92352, Note_on_c, 0, 69, 0
1, 92376, Note_on_c, 0, 76, 0
1, 92400, Note_on_c, 0, 64, 52
1, 92460, Note_on_c, 0, 79, 54
1, 92508, Note_on_c, 0, 79, 0
1, 92520, Note_on_c, 0, 76, 54
1, 92568, Note_on_c, 0, 76, 0
1, 92580, Note_on_c, 0, 72, 52
1, 92592, Note_on_c, 0, 64, 0
1, 92628, Note_on_c, 0, 72, 0
1, 92640, Note_on_c, 0, 65, 58
1, 92700, Note_on_c, 0, 81, 54
1, 92748, Note_on_c, 0, 81, 0
1, 92760, Note_on_c, 0, 80, 42
1, 92808, Note_on_c, 0, 80, 0
1, 92820, Note_on_c, 0, 81, 42
1, 92832, Note_on_c, 0, 65, 0
1, 92868, Note_on_c, 0, 81, 0
1, 92880, Note_on_c, 0, 67, 42
1, 92940, Note_on_c, 0, 77, 42
1, 92988, Note_on_c, 0, 77, 0
1, 93000, Note_on_c, 0, 74, 47
1, 93048, Note_on_c, 0, 74, 0
1, 93060, Note_on_c, 0, 71, 42
1, 93072, Note_on_c, 0, 67, 0
1, 93108, Note_on_c, 0, 71, 0
1, 93120, Note_on_c, 0, 72, 43
1, 93120, Note_on_c, 0, 60, 54
1, 93312, Note_on_c, 0, 60, 0
1, 93312, Note_on_c, 0, 72, 0
1, 93360, Note_on_c, 0, 52, 45
1, 93420, Note_on_c, 0, 67, 45
1, 93468, Note_on_c, 0, 67, 0
1, 93480, Note_on_c, 0, 64, 89
1, 93528, Note_on_c, 0, 64, 0
1, 93540, Note_on_c, 0, 60, 61
1, 93552, Note_on_c, 0, 52, 0
1, 93588, Note_on_c, 0, 60, 0
1, 93600, Note_on_c, 0, 53, 61
1, 93660, Note_on_c, 0, 69, 71
1, 93708, Note_on_c, 0, 69, 0
1, 93720, Note_on_c, 0, 68, 42
1, 93768, Note_on_c, 0, 68, 0
1, 93780, Note_on_c, 0, 69, 58
1, 93792, Note_on_c, 0, 53, 0
1, 93828, Note_on_c, 0, 69, 0
1, 93840, Note_on_c, 0, 55, 67
1, 93900, Note_on_c, 0, 65, 61
1, 93948, Note_on_c, 0, 65, 0
1, 93960, Note_on_c, 0, 62, 34
1, 94008, Note_on_c, 0, 62, 0
1, 94020, Note_on_c, 0, 59, 40
1, 94032, Note_on_c, 0, 55, 0
1, 94068, Note_on_c, 0, 59, 0
1, 94080, Note_on_c, 0, 60, 42
1, 94080, Note_on_c, 0, 57, 72
1, 94176, Note_on_c, 0, 60, 0
1, 94200, Note_on_c, 0, 64, 89
1, 94272, Note_on_c, 0, 57, 0
1, 94296, Note_on_c, 0, 64, 0
1, 94320, Note_on_c, 0, 52, 54
1, 94380, Note_on_c, 0, 67, 61
1, 94428, Note_on_c, 0, 67, 0
1, 94440, Note_on_c, 0, 64, 58
1, 94488, Note_on_c, 0, 64, 0
1, 94500, Note_on_c, 0, 60, 43
1, 94512, Note_on_c, 0, 52, 0
1, 94548, Note_on_c, 0, 60, 0
1, 94560, Note_on_c, 0, 53, 54
1, 94620, Note_on_c, 0, 69, 45
1, 94668, Note_on_c, 0, 69, 0
1, 94680, Note_on_c, 0, 68, 42
1, 94728, Note_on_c, 0, 68, 0
1, 94740, Note_on_c, 0, 69, 54
1, 94752, Note_on_c, 0, 53, 0
1, 94788, Note_on_c, 0, 69, 0
1, 94800, Note_on_c, 0, 55, 54
1, 94860, Note_on_c, 0, 65, 61
1, 94908, Note_on_c, 0, 65, 0
1, 94920, Note_on_c, 0, 62, 42
1, 94968, Note_on_c, 0, 62, 0
1, 94980, Note_on_c, 0, 59, 42
1, 94992, Note_on_c, 0, 55, 0
1, 95028, Note_on_c, 0, 59, 0
1, 95040, Note_on_c, 0, 48, 58
1, 95040, Note_on_c, 0, 60, 52
1, 95088, Note_on_c, 0, 48, 0
1, 95100, Note_on_c, 0, 55, 58
1, 95148, Note_on_c, 0, 55, 0
1, 95160, Note_on_c, 0, 52, 44
1, 95208, Note_on_c, 0, 52, 0
1, 95220, Note_on_c, 0, 55, 42
1, 95232, Note_on_c, 0, 60, 0
1, 95268, Note_on_c, 0, 55, 0
1, 95280, Note_on_c, 0, 64, 65
1, 95280, Note_on_c, 0, 72, 43
1, 95280, Note_on_c, 0, 48, 42
1, 95328, Note_on_c, 0, 48, 0
1, 95340, Note_on_c, 0, 55, 50
1, 95388, Note_on_c, 0, 55, 0
1, 95400, Note_on_c, 0, 52, 50
1, 95448, Note_on_c, 0, 52, 0
1, 95460, Note_on_c, 0, 55, 52
1, 95472, Note_on_c, 0, 72, 0
1, 95472, Note_on_c, 0, 64, 0
1, 95508, Note_on_c, 0, 55, 0
1, 95520, Note_on_c, 0, 72, 45
1, 95520, Note_on_c, 0, 64, 60
1, 95520, Note_on_c, 0, 48, 61
1, 95712, Note_on_c, 0, 48, 0
1, 95712, Note_on_c, 0, 64, 0
1, 95712, Note_on_c, 0, 72, 0
1, 95722, End_track
0, 0, End_of_file