0, 0, Header, 0, 1, 240
1, 0, Start_track
1, 0, Tempo, 1714286
1, 840, Note_on_c, 0, 67, 47
1, 936, Note_on_c, 0, 67, 0
1, 960, Note_on_c, 0, 60, 45
1, 960, Note_on_c, 0, 64, 45
1, 960, Note_on_c, 0, 72, 58
1, 992, Note_on_c, 0, 72, 0
1, 1000, Note_on_c, 0, 76, 71
1, 1032, Note_on_c, 0, 76, 0
1, 1040, Note_on_c, 0, 74, 54
1, 1056, Note_on_c, 0, 64, 0
1, 1056, Note_on_c, 0, 60, 0
1, 1072, Note_on_c, 0, 74, 0
1, 1080, Note_on_c, 0, 60, 42
1, 1080, Note_on_c, 0, 64, 32
1, 1080, Note_on_c, 0, 72, 44
1, 1176, Note_on_c, 0, 64, 0
1, 1176, Note_on_c, 0, 60, 0
1, 1192, Note_on_c, 0, 72, 0
1, 1200, Note_on_c, 0, 64, 43
1, 1200, Note_on_c, 0, 60, 42
1, 1200, Note_on_c, 0, 76, 54
1, 1232, Note_on_c, 0, 76, 0
1, 1240, Note_on_c, 0, 79, 58
1, 1272, Note_on_c, 0, 79, 0
1, 1280, Note_on_c, 0, 77, 66
1, 1296, Note_on_c, 0, 60, 0
1, 1296, Note_on_c, 0, 64, 0
1, 1312, Note_on_c, 0, 77, 0
1, 1320, Note_on_c, 0, 76, 58
1, 1320, Note_on_c, 0, 60, 42
1, 1320, Note_on_c, 0, 64, 42
1, 1352, Note_on_c, 0, 76, 0
1, 1360, Note_on_c, 0, 72, 61
1, 1392, Note_on_c, 0, 72, 0
1, 1400, Note_on_c, 0, 79, 45
1, 1416, Note_on_c, 0, 64, 0
1, 1416, Note_on_c, 0, 60, 0
1, 1432, Note_on_c, 0, 79, 0
1, 1440, Note_on_c, 0, 65, 42
1, 1440, Note_on_c, 0, 81, 57
1, 1440, Note_on_c, 0, 60, 50
1, 1472, Note_on_c, 0, 81, 0
1, 1480, Note_on_c, 0, 84, 44
1, 1512, Note_on_c, 0, 84, 0
1, 1520, Note_on_c, 0, 81, 66
1, 1536, Note_on_c, 0, 60, 0
1, 1536, Note_on_c, 0, 65, 0
1, 1552, Note_on_c, 0, 81, 0
1, 1560, Note_on_c, 0, 79, 50
1, 1560, Note_on_c, 0, 60, 42
1, 1560, Note_on_c, 0, 64, 42
1, 1656, Note_on_c, 0, 64, 0
1, 1656, Note_on_c, 0, 60, 0
1, 1672, Note_on_c, 0, 79, 0
1, 1680, Note_on_c, 0, 64, 42
1, 1680, Note_on_c, 0, 60, 42
1, 1680, Note_on_c, 0, 76, 43
1, 1712, Note_on_c, 0, 76, 0
1, 1720, Note_on_c, 0, 79, 58
1, 1752, Note_on_c, 0, 79, 0
1, 1760, Note_on_c, 0, 77, 52
1, 1776, Note_on_c, 0, 60, 0
1, 1776, Note_on_c, 0, 64, 0
1, 1792, Note_on_c, 0, 77, 0
1, 1800, Note_on_c, 0, 60, 47
1, 1800, Note_on_c, 0, 64, 50
1, 1800, Note_on_c, 0, 76, 71
1, 1832, Note_on_c, 0, 76, 0
1, 1840, Note_on_c, 0, 72, 61
1, 1872, Note_on_c, 0, 72, 0
1, 1880, Note_on_c, 0, 79, 77
1, 1896, Note_on_c, 0, 64, 0
1, 1896, Note_on_c, 0, 60, 0
1, 1912, Note_on_c, 0, 79, 0
1, 1920, Note_on_c, 0, 65, 47
1, 1920, Note_on_c, 0, 81, 66
1, 1952, Note_on_c, 0, 81, 0
1, 1960, Note_on_c, 0, 83, 54
1, 1992, Note_on_c, 0, 83, 0
1, 2000, Note_on_c, 0, 84, 61
1, 2016, Note_on_c, 0, 65, 0
1, 2032, Note_on_c, 0, 84, 0
1, 2040, Note_on_c, 0, 79, 54
1, 2040, Note_on_c, 0, 64, 42
1, 2072, Note_on_c, 0, 79, 0
1, 2080, Note_on_c, 0, 83, 47
1, 2112, Note_on_c, 0, 83, 0
1, 2120, Note_on_c, 0, 84, 54
1, 2136, Note_on_c, 0, 64, 0
1, 2152, Note_on_c, 0, 84, 0
1, 2160, Note_on_c, 0, 79, 47
1, 2160, Note_on_c, 0, 62, 50
1, 2166, Note_on_c, 0, 79, 0
1, 2167, Note_on_c, 0, 77, 36
1, 2173, Note_on_c, 0, 77, 0
1, 2174, Note_on_c, 0, 79, 42
1, 2180, Note_on_c, 0, 79, 0
1, 2181, Note_on_c, 0, 77, 42
1, 2187, Note_on_c, 0, 77, 0
1, 2188, Note_on_c, 0, 79, 44
1, 2194, Note_on_c, 0, 79, 0
1, 2195, Note_on_c, 0, 77, 42
1, 2201, Note_on_c, 0, 77, 0
1, 2202, Note_on_c, 0, 79, 44
1, 2208, Note_on_c, 0, 79, 0
1, 2209, Note_on_c, 0, 77, 42
1, 2215, Note_on_c, 0, 77, 0
1, 2216, Note_on_c, 0, 79, 52
1, 2222, Note_on_c, 0, 79, 0
1, 2223, Note_on_c, 0, 77, 45
1, 2229, Note_on_c, 0, 77, 0
1, 2230, Note_on_c, 0, 79, 50
1, 2236, Note_on_c, 0, 79, 0
1, 2237, Note_on_c, 0, 77, 42
1, 2243, Note_on_c, 0, 77, 0
1, 2244, Note_on_c, 0, 79, 50
1, 2250, Note_on_c, 0, 79, 0
1, 2251, Note_on_c, 0, 77, 44
1, 2256, Note_on_c, 0, 62, 0
1, 2257, Note_on_c, 0, 77, 0
1, 2258, Note_on_c, 0, 79, 45
1, 2264, Note_on_c, 0, 79, 0
1, 2265, Note_on_c, 0, 77, 44
1, 2271, Note_on_c, 0, 77, 0
1, 2272, Note_on_c, 0, 79, 52
1, 2278, Note_on_c, 0, 79, 0
1, 2279, Note_on_c, 0, 77, 43
1, 2280, Note_on_c, 0, 55, 42
1, 2285, Note_on_c, 0, 77, 0
1, 2286, Note_on_c, 0, 79, 44
1, 2292, Note_on_c, 0, 79, 0
1, 2293, Note_on_c, 0, 77, 42
1, 2299, Note_on_c, 0, 77, 0
1, 2300, Note_on_c, 0, 79, 42
1, 2306, Note_on_c, 0, 79, 0
1, 2307, Note_on_c, 0, 77, 42
1, 2313, Note_on_c, 0, 77, 0
1, 2314, Note_on_c, 0, 79, 42
1, 2320, Note_on_c, 0, 79, 0
1, 2321, Note_on_c, 0, 77, 44
1, 2327, Note_on_c, 0, 77, 0
1, 2328, Note_on_c, 0, 79, 50
1, 2334, Note_on_c, 0, 79, 0
1, 2335, Note_on_c, 0, 77, 42
1, 2341, Note_on_c, 0, 77, 0
1, 2342, Note_on_c, 0, 79, 43
1, 2348, Note_on_c, 0, 79, 0
1, 2349, Note_on_c, 0, 77, 42
1, 2355, Note_on_c, 0, 77, 0
1, 2356, Note_on_c, 0, 79, 42
1, 2362, Note_on_c, 0, 79, 0
1, 2363, Note_on_c, 0, 77, 44
1, 2369, Note_on_c, 0, 77, 0
1, 2370, Note_on_c, 0, 79, 52
1, 2376, Note_on_c, 0, 79, 0
1, 2376, Note_on_c, 0, 55, 0
1, 2377, Note_on_c, 0, 77, 43
1, 2383, Note_on_c, 0, 77, 0
1, 2384, Note_on_c, 0, 76, 43
1, 2390, Note_on_c, 0, 76, 0
1, 2391, Note_on_c, 0, 77, 36
1, 2397, Note_on_c, 0, 77, 0
1, 2398, Note_on_c, 0, 76, 52
1, 2400, Note_on_c, 0, 60, 36
1, 2496, Note_on_c, 0, 60, 0
1, 2520, Note_on_c, 0, 55, 38
1, 2590, Note_on_c, 0, 76, 0
1, 2616, Note_on_c, 0, 55, 0
1, 2640, Note_on_c, 0, 48, 29
1, 2736, Note_on_c, 0, 48, 0
1, 2758, Note_on_c, 0, 67, 45
1, 2854, Note_on_c, 0, 67, 0
1, 2880, Note_on_c, 0, 72, 42
1, 2880, Note_on_c, 0, 64, 44
1, 2880, Note_on_c, 0, 60, 61
1, 2912, Note_on_c, 0, 72, 0
1, 2920, Note_on_c, 0, 76, 66
1, 2952, Note_on_c, 0, 76, 0
1, 2960, Note_on_c, 0, 74, 50
1, 2976, Note_on_c, 0, 60, 0
1, 2976, Note_on_c, 0, 64, 0
1, 2992, Note_on_c, 0, 74, 0
1, 3000, Note_on_c, 0, 60, 40
1, 3000, Note_on_c, 0, 64, 42
1, 3000, Note_on_c, 0, 72, 47
1, 3032, Note_on_c, 0, 72, 0
1, 3040, Note_on_c, 0, 72, 44
1, 3072, Note_on_c, 0, 72, 0
1, 3080, Note_on_c, 0, 72, 42
1, 3096, Note_on_c, 0, 64, 0
1, 3096, Note_on_c, 0, 60, 0
1, 3112, Note_on_c, 0, 72, 0
1, 3120, Note_on_c, 0, 64, 42
1, 3120, Note_on_c, 0, 72, 42
1, 3120, Note_on_c, 0, 60, 44
1, 3152, Note_on_c, 0, 72, 0
1, 3160, Note_on_c, 0, 76, 52
1, 3192, Note_on_c, 0, 76, 0
1, 3200, Note_on_c, 0, 77, 47
1, 3216, Note_on_c, 0, 60, 0
1, 3216, Note_on_c, 0, 64, 0
1, 3232, Note_on_c, 0, 77, 0
1, 3240, Note_on_c, 0, 79, 43
1, 3240, Note_on_c, 0, 64, 50
1, 3240, Note_on_c, 0, 60, 45
1, 3272, Note_on_c, 0, 79, 0
1, 3280, Note_on_c, 0, 77, 42
1, 3312, Note_on_c, 0, 77, 0
1, 3320, Note_on_c, 0, 76, 57
1, 3336, Note_on_c, 0, 60, 0
1, 3336, Note_on_c, 0, 64, 0
1, 3352, Note_on_c, 0, 76, 0
1, 3360, Note_on_c, 0, 74, 58
1, 3360, Note_on_c, 0, 67, 36
1, 3360, Note_on_c, 0, 59, 43
1, 3392, Note_on_c, 0, 74, 0
1, 3400, Note_on_c, 0, 79, 54
1, 3432, Note_on_c, 0, 79, 0
1, 3440, Note_on_c, 0, 78, 54
1, 3456, Note_on_c, 0, 59, 0
1, 3456, Note_on_c, 0, 67, 0
1, 3472, Note_on_c, 0, 78, 0
1, 3480, Note_on_c, 0, 62, 47
1, 3480, Note_on_c, 0, 59, 1
1, 3480, Note_on_c, 0, 79, 58
1, 3512, Note_on_c, 0, 79, 0
1, 3520, Note_on_c, 0, 83, 61
1, 3552, Note_on_c, 0, 83, 0
1, 3560, Note_on_c, 0, 81, 61
1, 3576, Note_on_c, 0, 59, 0
1, 3576, Note_on_c, 0, 62, 0
1, 3592, Note_on_c, 0, 81, 0
1, 3600, Note_on_c, 0, 59, 1
1, 3600, Note_on_c, 0, 62, 42
1, 3600, Note_on_c, 0, 79, 52
1, 3632, Note_on_c, 0, 79, 0
1, 3640, Note_on_c, 0, 78, 58
1, 3672, Note_on_c, 0, 78, 0
1, 3680, Note_on_c, 0, 76, 52
1, 3696, Note_on_c, 0, 62, 0
1, 3696, Note_on_c, 0, 59, 0
1, 3712, Note_on_c, 0, 76, 0
1, 3720, Note_on_c, 0, 62, 42
1, 3720, Note_on_c, 0, 59, 35
1, 3720, Note_on_c, 0, 74, 50
1, 3752, Note_on_c, 0, 74, 0
1, 3760, Note_on_c, 0, 72, 43
1, 3792, Note_on_c, 0, 72, 0
1, 3800, Note_on_c, 0, 71, 44
1, 3816, Note_on_c, 0, 59, 0
1, 3816, Note_on_c, 0, 62, 0
1, 3832, Note_on_c, 0, 71, 0
1, 3840, Note_on_c, 0, 64, 42
1, 3840, Note_on_c, 0, 60, 42
1, 3840, Note_on_c, 0, 69, 42
1, 3872, Note_on_c, 0, 69, 0
1, 3880, Note_on_c, 0, 72, 52
1, 3912, Note_on_c, 0, 72, 0
1, 3920, Note_on_c, 0, 71, 43
1, 3936, Note_on_c, 0, 60, 0
1, 3936, Note_on_c, 0, 64, 0
1, 3952, Note_on_c, 0, 71, 0
1, 3960, Note_on_c, 0, 64, 47
1, 3960, Note_on_c, 0, 60, 43
1, 3960, Note_on_c, 0, 69, 44
1, 3992, Note_on_c, 0, 69, 0
1, 4000, Note_on_c, 0, 72, 54
1, 4032, Note_on_c, 0, 72, 0
1, 4040, Note_on_c, 0, 74, 61
1, 4056, Note_on_c, 0, 60, 0
1, 4056, Note_on_c, 0, 64, 0
1, 4072, Note_on_c, 0, 74, 0
1, 4080, Note_on_c, 0, 64, 43
1, 4080, Note_on_c, 0, 60, 42
1, 4080, Note_on_c, 0, 76, 58
1, 4112, Note_on_c, 0, 76, 0
1, 4120, Note_on_c, 0, 74, 58
1, 4152, Note_on_c, 0, 74, 0
1, 4160, Note_on_c, 0, 72, 52
1, 4176, Note_on_c, 0, 60, 0
1, 4176, Note_on_c, 0, 64, 0
1, 4192, Note_on_c, 0, 72, 0
1, 4200, Note_on_c, 0, 61, 42
1, 4200, Note_on_c, 0, 71, 58
1, 4200, Note_on_c, 0, 64, 21
1, 4232, Note_on_c, 0, 71, 0
1, 4240, Note_on_c, 0, 69, 52
1, 4272, Note_on_c, 0, 69, 0
1, 4280, Note_on_c, 0, 67, 4
1, 4296, Note_on_c, 0, 64, 0
1, 4296, Note_on_c, 0, 61, 0
1, 4312, Note_on_c, 0, 67, 0
1, 4320, Note_on_c, 0, 62, 45
1, 4320, Note_on_c, 0, 69, 66
1, 4326, Note_on_c, 0, 69, 0
1, 4327, Note_on_c, 0, 67, 42
1, 4333, Note_on_c, 0, 67, 0
1, 4334, Note_on_c, 0, 69, 45
1, 4340, Note_on_c, 0, 69, 0
1, 4341, Note_on_c, 0, 67, 40
1, 4347, Note_on_c, 0, 67, 0
1, 4348, Note_on_c, 0, 69, 50
1, 4354, Note_on_c, 0, 69, 0
1, 4355, Note_on_c, 0, 67, 54
1, 4361, Note_on_c, 0, 67, 0
1, 4362, Note_on_c, 0, 69, 47
1, 4368, Note_on_c, 0, 69, 0
1, 4369, Note_on_c, 0, 67, 47
1, 4375, Note_on_c, 0, 67, 0
1, 4376, Note_on_c, 0, 69, 52
1, 4382, Note_on_c, 0, 69, 0
1, 4383, Note_on_c, 0, 67, 44
1, 4389, Note_on_c, 0, 67, 0
1, 4390, Note_on_c, 0, 69, 61
1, 4396, Note_on_c, 0, 69, 0
1, 4397, Note_on_c, 0, 67, 45
1, 4403, Note_on_c, 0, 67, 0
1, 4404, Note_on_c, 0, 69, 45
1, 4410, Note_on_c, 0, 69, 0
1, 4411, Note_on_c, 0, 67, 42
1, 4416, Note_on_c, 0, 62, 0
1, 4417, Note_on_c, 0, 67, 0
1, 4418, Note_on_c, 0, 66, 58
1, 4424, Note_on_c, 0, 66, 0
1, 4425, Note_on_c, 0, 67, 43
1, 4431, Note_on_c, 0, 67, 0
1, 4432, Note_on_c, 0, 66, 80
1, 4440, Note_on_c, 0, 50, 61
1, 4528, Note_on_c, 0, 66, 0
1, 4536, Note_on_c, 0, 50, 0
1, 4560, Note_on_c, 0, 50, 47
1, 4656, Note_on_c, 0, 50, 0
1, 4672, Note_on_c, 0, 74, 52
1, 4768, Note_on_c, 0, 74, 0
1, 4800, Note_on_c, 0, 54, 42
1, 4800, Note_on_c, 0, 50, 47
1, 4800, Note_on_c, 0, 72, 71
1, 4832, Note_on_c, 0, 72, 0
1, 4840, Note_on_c, 0, 71, 44
1, 4872, Note_on_c, 0, 71, 0
1, 4880, Note_on_c, 0, 69, 58
1, 4896, Note_on_c, 0, 50, 0
1, 4896, Note_on_c, 0, 54, 0
1, 4912, Note_on_c, 0, 69, 0
1, 4920, Note_on_c, 0, 50, 40
1, 4920, Note_on_c, 0, 67, 58
1, 4920, Note_on_c, 0, 54, 36
1, 4952, Note_on_c, 0, 67, 0
1, 4960, Note_on_c, 0, 66, 50
1, 4992, Note_on_c, 0, 66, 0
1, 5000, Note_on_c, 0, 64, 66
1, 5016, Note_on_c, 0, 54, 0
1, 5016, Note_on_c, 0, 50, 0
1, 5032, Note_on_c, 0, 64, 0
1, 5040, Note_on_c, 0, 50, 42
1, 5040, Note_on_c, 0, 62, 58
1, 5040, Note_on_c, 0, 54, 29
1, 5072, Note_on_c, 0, 62, 0
1, 5080, Note_on_c, 0, 69, 58
1, 5112, Note_on_c, 0, 69, 0
1, 5120, Note_on_c, 0, 71, 43
1, 5136, Note_on_c, 0, 54, 0
1, 5136, Note_on_c, 0, 50, 0
1, 5152, Note_on_c, 0, 71, 0
1, 5160, Note_on_c, 0, 72, 47
1, 5160, Note_on_c, 0, 50, 1
1, 5160, Note_on_c, 0, 54, 15
1, 5192, Note_on_c, 0, 72, 0
1, 5200, Note_on_c, 0, 71, 43
1, 5232, Note_on_c, 0, 71, 0
1, 5240, Note_on_c, 0, 69, 50
1, 5256, Note_on_c, 0, 54, 0
1, 5256, Note_on_c, 0, 50, 0
1, 5272, Note_on_c, 0, 69, 0
1, 5280, Note_on_c, 0, 55, 45
1, 5280, Note_on_c, 0, 71, 52
1, 5312, Note_on_c, 0, 71, 0
1, 5320, Note_on_c, 0, 69, 47
1, 5352, Note_on_c, 0, 69, 0
1, 5360, Note_on_c, 0, 67, 43
1, 5392, Note_on_c, 0, 67, 0
1, 5400, Note_on_c, 0, 74, 77
1, 5432, Note_on_c, 0, 74, 0
1, 5440, Note_on_c, 0, 72, 58
1, 5472, Note_on_c, 0, 72, 0
1, 5472, Note_on_c, 0, 55, 0
1, 5480, Note_on_c, 0, 71, 47
1, 5512, Note_on_c, 0, 71, 0
1, 5520, Note_on_c, 0, 79, 61
1, 5616, Note_on_c, 0, 79, 0
1, 5640, Note_on_c, 0, 74, 45
1, 5736, Note_on_c, 0, 74, 0
1, 5760, Note_on_c, 0, 72, 55
1, 5760, Note_on_c, 0, 50, 66
1, 5760, Note_on_c, 0, 54, 42
1, 5792, Note_on_c, 0, 72, 0
1, 5800, Note_on_c, 0, 71, 42
1, 5832, Note_on_c, 0, 71, 0
1, 5840, Note_on_c, 0, 69, 43
1, 5856, Note_on_c, 0, 54, 0
1, 5856, Note_on_c, 0, 50, 0
1, 5872, Note_on_c, 0, 69, 0
1, 5880, Note_on_c, 0, 54, 1
1, 5880, Note_on_c, 0, 50, 42
1, 5880, Note_on_c, 0, 67, 47
1, 5912, Note_on_c, 0, 67, 0
1, 5920, Note_on_c, 0, 66, 61
1, 5952, Note_on_c, 0, 66, 0
1, 5960, Note_on_c, 0, 64, 58
1, 5976, Note_on_c, 0, 50, 0
1, 5976, Note_on_c, 0, 54, 0
1, 5992, Note_on_c, 0, 64, 0
1, 6000, Note_on_c, 0, 62, 54
1, 6000, Note_on_c, 0, 54, 1
1, 6000, Note_on_c, 0, 50, 42
1, 6032, Note_on_c, 0, 62, 0
1, 6040, Note_on_c, 0, 69, 69
1, 6072, Note_on_c, 0, 69, 0
1, 6080, Note_on_c, 0, 71, 69
1, 6096, Note_on_c, 0, 50, 0
1, 6096, Note_on_c, 0, 54, 0
1, 6112, Note_on_c, 0, 71, 0
1, 6120, Note_on_c, 0, 54, 31
1, 6120, Note_on_c, 0, 50, 42
1, 6120, Note_on_c, 0, 72, 42
1, 6152, Note_on_c, 0, 72, 0
1, 6160, Note_on_c, 0, 71, 42
1, 6192, Note_on_c, 0, 71, 0
1, 6200, Note_on_c, 0, 69, 43
1, 6216, Note_on_c, 0, 50, 0
1, 6216, Note_on_c, 0, 54, 0
1, 6232, Note_on_c, 0, 69, 0
1, 6240, Note_on_c, 0, 71, 52
1, 6240, Note_on_c, 0, 55, 43
1, 6272, Note_on_c, 0, 71, 0
1, 6280, Note_on_c, 0, 69, 52
1, 6312, Note_on_c, 0, 69, 0
1, 6320, Note_on_c, 0, 67, 45
1, 6352, Note_on_c, 0, 67, 0
1, 6360, Note_on_c, 0, 74, 58
1, 6392, Note_on_c, 0, 74, 0
1, 6400, Note_on_c, 0, 72, 61
1, 6432, Note_on_c, 0, 72, 0
1, 6432, Note_on_c, 0, 55, 0
1, 6440, Note_on_c, 0, 71, 45
1, 6472, Note_on_c, 0, 71, 0
1, 6480, Note_on_c, 0, 79, 47
1, 6576, Note_on_c, 0, 79, 0
1, 6600, Note_on_c, 0, 59, 42
1, 6600, Note_on_c, 0, 74, 50
1, 6696, Note_on_c, 0, 74, 0
1, 6696, Note_on_c, 0, 59, 0
1, 6720, Note_on_c, 0, 60, 61
1, 6720, Note_on_c, 0, 76, 45
1, 6752, Note_on_c, 0, 76, 0
1, 6760, Note_on_c, 0, 78, 66
1, 6792, Note_on_c, 0, 78, 0
1, 6800, Note_on_c, 0, 79, 42
1, 6816, Note_on_c, 0, 60, 0
1, 6832, Note_on_c, 0, 79, 0
1, 6840, Note_on_c, 0, 81, 43
1, 6840, Note_on_c, 0, 57, 42
1, 6872, Note_on_c, 0, 81, 0
1, 6880, Note_on_c, 0, 83, 50
1, 6912, Note_on_c, 0, 83, 0
1, 6920, Note_on_c, 0, 84, 42
1, 6936, Note_on_c, 0, 57, 0
1, 6952, Note_on_c, 0, 84, 0
1, 6960, Note_on_c, 0, 59, 42
1, 6960, Note_on_c, 0, 74, 50
1, 6992, Note_on_c, 0, 74, 0
1, 7000, Note_on_c, 0, 76, 52
1, 7032, Note_on_c, 0, 76, 0
1, 7040, Note_on_c, 0, 78, 61
1, 7056, Note_on_c, 0, 59, 0
1, 7072, Note_on_c, 0, 78, 0
1, 7080, Note_on_c, 0, 79, 50
1, 7080, Note_on_c, 0, 55, 1
1, 7112, Note_on_c, 0, 79, 0
1, 7120, Note_on_c, 0, 81, 42
1, 7152, Note_on_c, 0, 81, 0
1, 7160, Note_on_c, 0, 83, 50
1, 7176, Note_on_c, 0, 55, 0
1, 7192, Note_on_c, 0, 83, 0
1, 7200, Note_on_c, 0, 57, 44
1, 7200, Note_on_c, 0, 72, 43
1, 7232, Note_on_c, 0, 72, 0
1, 7240, Note_on_c, 0, 71, 52
1, 7272, Note_on_c, 0, 71, 0
1, 7280, Note_on_c, 0, 72, 44
1, 7296, Note_on_c, 0, 57, 0
1, 7312, Note_on_c, 0, 72, 0
1, 7320, Note_on_c, 0, 81, 54
1, 7320, Note_on_c, 0, 50, 38
1, 7352, Note_on_c, 0, 81, 0
1, 7360, Note_on_c, 0, 78, 52
1, 7392, Note_on_c, 0, 78, 0
1, 7400, Note_on_c, 0, 72, 46
1, 7416, Note_on_c, 0, 50, 0
1, 7432, Note_on_c, 0, 72, 0
1, 7440, Note_on_c, 0, 55, 42
1, 7440, Note_on_c, 0, 71, 42
1, 7472, Note_on_c, 0, 71, 0
1, 7480, Note_on_c, 0, 79, 42
1, 7512, Note_on_c, 0, 79, 0
1, 7520, Note_on_c, 0, 79, 54
1, 7536, Note_on_c, 0, 55, 0
1, 7552, Note_on_c, 0, 79, 0
1, 7560, Note_on_c, 0, 59, 42
1, 7560, Note_on_c, 0, 79, 42
1, 7592, Note_on_c, 0, 79, 0
1, 7600, Note_on_c, 0, 74, 42
1, 7632, Note_on_c, 0, 74, 0
1, 7640, Note_on_c, 0, 71, 42
1, 7656, Note_on_c, 0, 59, 0
1, 7672, Note_on_c, 0, 71, 0
1, 7680, Note_on_c, 0, 60, 58
1, 7680, Note_on_c, 0, 76, 54
1, 7712, Note_on_c, 0, 76, 0
1, 7720, Note_on_c, 0, 74, 50
1, 7752, Note_on_c, 0, 74, 0
1, 7760, Note_on_c, 0, 72, 52
1, 7776, Note_on_c, 0, 60, 0
1, 7792, Note_on_c, 0, 72, 0
1, 7800, Note_on_c, 0, 71, 50
1, 7800, Note_on_c, 0, 64, 66
1, 7832, Note_on_c, 0, 71, 0
1, 7840, Note_on_c, 0, 69, 54
1, 7872, Note_on_c, 0, 69, 0
1, 7880, Note_on_c, 0, 67, 42
1, 7896, Note_on_c, 0, 64, 0
1, 7912, Note_on_c, 0, 67, 0
1, 7920, Note_on_c, 0, 71, 47
1, 7920, Note_on_c, 0, 62, 42
1, 7926, Note_on_c, 0, 71, 0
1, 7927, Note_on_c, 0, 69, 36
1, 7933, Note_on_c, 0, 69, 0
1, 7934, Note_on_c, 0, 71, 42
1, 7940, Note_on_c, 0, 71, 0
1, 7941, Note_on_c, 0, 69, 42
1, 7947, Note_on_c, 0, 69, 0
1, 7948, Note_on_c, 0, 71, 44
1, 7954, Note_on_c, 0, 71, 0
1, 7955, Note_on_c, 0, 69, 42
1, 7961, Note_on_c, 0, 69, 0
1, 7962, Note_on_c, 0, 71, 44
1, 7968, Note_on_c, 0, 71, 0
1, 7969, Note_on_c, 0, 69, 42
1, 7975, Note_on_c, 0, 69, 0
1, 7976, Note_on_c, 0, 71, 52
1, 7982, Note_on_c, 0, 71, 0
1, 7983, Note_on_c, 0, 69, 45
1, 7989, Note_on_c, 0, 69, 0
1, 7990, Note_on_c, 0, 71, 50
1, 7996, Note_on_c, 0, 71, 0
1, 7997, Note_on_c, 0, 69, 42
1, 8003, Note_on_c, 0, 69, 0
1, 8004, Note_on_c, 0, 71, 50
1, 8010, Note_on_c, 0, 71, 0
1, 8011, Note_on_c, 0, 69, 44
1, 8016, Note_on_c, 0, 62, 0
1, 8017, Note_on_c, 0, 69, 0
1, 8018, Note_on_c, 0, 71, 45
1, 8024, Note_on_c, 0, 71, 0
1, 8025, Note_on_c, 0, 69, 44
1, 8031, Note_on_c, 0, 69, 0
1, 8032, Note_on_c, 0, 71, 52
1, 8038, Note_on_c, 0, 71, 0
1, 8039, Note_on_c, 0, 69, 43
1, 8040, Note_on_c, 0, 50, 58
1, 8045, Note_on_c, 0, 69, 0
1, 8046, Note_on_c, 0, 71, 44
1, 8052, Note_on_c, 0, 71, 0
1, 8053, Note_on_c, 0, 69, 42
1, 8059, Note_on_c, 0, 69, 0
1, 8060, Note_on_c, 0, 71, 42
1, 8066, Note_on_c, 0, 71, 0
1, 8067, Note_on_c, 0, 69, 42
1, 8073, Note_on_c, 0, 69, 0
1, 8074, Note_on_c, 0, 71, 42
1, 8080, Note_on_c, 0, 71, 0
1, 8081, Note_on_c, 0, 69, 44
1, 8087, Note_on_c, 0, 69, 0
1, 8088, Note_on_c, 0, 71, 50
1, 8094, Note_on_c, 0, 71, 0
1, 8095, Note_on_c, 0, 69, 42
1, 8101, Note_on_c, 0, 69, 0
1, 8102, Note_on_c, 0, 71, 43
1, 8108, Note_on_c, 0, 71, 0
1, 8109, Note_on_c, 0, 69, 42
1, 8115, Note_on_c, 0, 69, 0
1, 8116, Note_on_c, 0, 71, 42
1, 8122, Note_on_c, 0, 71, 0
1, 8123, Note_on_c, 0, 69, 44
1, 8129, Note_on_c, 0, 69, 0
1, 8130, Note_on_c, 0, 71, 52
1, 8136, Note_on_c, 0, 71, 0
1, 8136, Note_on_c, 0, 50, 0
1, 8137, Note_on_c, 0, 69, 43
1, 8143, Note_on_c, 0, 69, 0
1, 8144, Note_on_c, 0, 67, 43
1, 8150, Note_on_c, 0, 67, 0
1, 8151, Note_on_c, 0, 69, 36
1, 8157, Note_on_c, 0, 69, 0
1, 8158, Note_on_c, 0, 67, 52
1, 8160, Note_on_c, 0, 55, 50
1, 8256, Note_on_c, 0, 55, 0
1, 8280, Note_on_c, 0, 50, 61
1, 8350, Note_on_c, 0, 67, 0
1, 8376, Note_on_c, 0, 50, 0
1, 8400, Note_on_c, 0, 43, 50
1, 8496, Note_on_c, 0, 43, 0
1, 8518, Note_on_c, 0, 67, 43
1, 8614, Note_on_c, 0, 67, 0
1, 8640, Note_on_c, 0, 60, 45
1, 8640, Note_on_c, 0, 64, 45
1, 8640, Note_on_c, 0, 72, 58
1, 8672, Note_on_c, 0, 72, 0
1, 8680, Note_on_c, 0, 76, 71
1, 8712, Note_on_c, 0, 76, 0
1, 8720, Note_on_c, 0, 74, 54
1, 8736, Note_on_c, 0, 64, 0
1, 8736, Note_on_c, 0, 60, 0
1, 8752, Note_on_c, 0, 74, 0
1, 8760, Note_on_c, 0, 60, 42
1, 8760, Note_on_c, 0, 64, 32
1, 8760, Note_on_c, 0, 72, 44
1, 8856, Note_on_c, 0, 64, 0
1, 8856, Note_on_c, 0, 60, 0
1, 8872, Note_on_c, 0, 72, 0
1, 8880, Note_on_c, 0, 64, 43
1, 8880, Note_on_c, 0, 60, 42
1, 8880, Note_on_c, 0, 76, 54
1, 8912, Note_on_c, 0, 76, 0
1, 8920, Note_on_c, 0, 79, 58
1, 8952, Note_on_c, 0, 79, 0
1, 8960, Note_on_c, 0, 77, 66
1, 8976, Note_on_c, 0, 60, 0
1, 8976, Note_on_c, 0, 64, 0
1, 8992, Note_on_c, 0, 77, 0
1, 9000, Note_on_c, 0, 76, 58
1, 9000, Note_on_c, 0, 60, 42
1, 9000, Note_on_c, 0, 64, 42
1, 9032, Note_on_c, 0, 76, 0
1, 9040, Note_on_c, 0, 72, 61
1, 9072, Note_on_c, 0, 72, 0
1, 9080, Note_on_c, 0, 79, 45
1, 9096, Note_on_c, 0, 64, 0
1, 9096, Note_on_c, 0, 60, 0
1, 9112, Note_on_c, 0, 79, 0
1, 9120, Note_on_c, 0, 65, 42
1, 9120, Note_on_c, 0, 81, 57
1, 9120, Note_on_c, 0, 60, 50
1, 9152, Note_on_c, 0, 81, 0
1, 9160, Note_on_c, 0, 84, 44
1, 9192, Note_on_c, 0, 84, 0
1, 9200, Note_on_c, 0, 81, 66
1, 9216, Note_on_c, 0, 60, 0
1, 9216, Note_on_c, 0, 65, 0
1, 9232, Note_on_c, 0, 81, 0
1, 9240, Note_on_c, 0, 79, 50
1, 9240, Note_on_c, 0, 60, 42
1, 9240, Note_on_c, 0, 64, 42
1, 9336, Note_on_c, 0, 64, 0
1, 9336, Note_on_c, 0, 60, 0
1, 9352, Note_on_c, 0, 79, 0
1, 9360, Note_on_c, 0, 64, 42
1, 9360, Note_on_c, 0, 60, 42
1, 9360, Note_on_c, 0, 76, 43
1, 9392, Note_on_c, 0, 76, 0
1, 9400, Note_on_c, 0, 79, 58
1, 9432, Note_on_c, 0, 79, 0
1, 9440, Note_on_c, 0, 77, 52
1, 9456, Note_on_c, 0, 60, 0
1, 9456, Note_on_c, 0, 64, 0
1, 9472, Note_on_c, 0, 77, 0
1, 9480, Note_on_c, 0, 60, 47
1, 9480, Note_on_c, 0, 64, 50
1, 9480, Note_on_c, 0, 76, 71
1, 9512, Note_on_c, 0, 76, 0
1, 9520, Note_on_c, 0, 72, 61
1, 9552, Note_on_c, 0, 72, 0
1, 9560, Note_on_c, 0, 79, 77
1, 9576, Note_on_c, 0, 64, 0
1, 9576, Note_on_c, 0, 60, 0
1, 9592, Note_on_c, 0, 79, 0
1, 9600, Note_on_c, 0, 65, 47
1, 9600, Note_on_c, 0, 81, 66
1, 9632, Note_on_c, 0, 81, 0
1, 9640, Note_on_c, 0, 83, 54
1, 9672, Note_on_c, 0, 83, 0
1, 9680, Note_on_c, 0, 84, 61
1, 9696, Note_on_c, 0, 65, 0
1, 9712, Note_on_c, 0, 84, 0
1, 9720, Note_on_c, 0, 79, 54
1, 9720, Note_on_c, 0, 64, 42
1, 9752, Note_on_c, 0, 79, 0
1, 9760, Note_on_c, 0, 83, 47
1, 9792, Note_on_c, 0, 83, 0
1, 9800, Note_on_c, 0, 84, 54
1, 9816, Note_on_c, 0, 64, 0
1, 9832, Note_on_c, 0, 84, 0
1, 9840, Note_on_c, 0, 79, 47
1, 9840, Note_on_c, 0, 62, 50
1, 9846, Note_on_c, 0, 79, 0
1, 9847, Note_on_c, 0, 77, 36
1, 9853, Note_on_c, 0, 77, 0
1, 9854, Note_on_c, 0, 79, 42
1, 9860, Note_on_c, 0, 79, 0
1, 9861, Note_on_c, 0, 77, 42
1, 9867, Note_on_c, 0, 77, 0
1, 9868, Note_on_c, 0, 79, 44
1, 9874, Note_on_c, 0, 79, 0
1, 9875, Note_on_c, 0, 77, 42
1, 9881, Note_on_c, 0, 77, 0
1, 9882, Note_on_c, 0, 79, 44
1, 9888, Note_on_c, 0, 79, 0
1, 9889, Note_on_c, 0, 77, 42
1, 9895, Note_on_c, 0, 77, 0
1, 9896, Note_on_c, 0, 79, 52
1, 9902, Note_on_c, 0, 79, 0
1, 9903, Note_on_c, 0, 77, 45
1, 9909, Note_on_c, 0, 77, 0
1, 9910, Note_on_c, 0, 79, 50
1, 9916, Note_on_c, 0, 79, 0
1, 9917, Note_on_c, 0, 77, 42
1, 9923, Note_on_c, 0, 77, 0
1, 9924, Note_on_c, 0, 79, 50
1, 9930, Note_on_c, 0, 79, 0
1, 9931, Note_on_c, 0, 77, 44
1, 9936, Note_on_c, 0, 62, 0
1, 9937, Note_on_c, 0, 77, 0
1, 9938, Note_on_c, 0, 79, 45
1, 9944, Note_on_c, 0, 79, 0
1, 9945, Note_on_c, 0, 77, 44
1, 9951, Note_on_c, 0, 77, 0
1, 9952, Note_on_c, 0, 79, 52
1, 9958, Note_on_c, 0, 79, 0
1, 9959, Note_on_c, 0, 77, 43
1, 9960, Note_on_c, 0, 55, 42
1, 9965, Note_on_c, 0, 77, 0
1, 9966, Note_on_c, 0, 79, 44
1, 9972, Note_on_c, 0, 79, 0
1, 9973, Note_on_c, 0, 77, 42
1, 9979, Note_on_c, 0, 77, 0
1, 9980, Note_on_c, 0, 79, 42
1, 9986, Note_on_c, 0, 79, 0
1, 9987, Note_on_c, 0, 77, 42
1, 9993, Note_on_c, 0, 77, 0
1, 9994, Note_on_c, 0, 79, 42
1, 10000, Note_on_c, 0, 79, 0
1, 10001, Note_on_c, 0, 77, 44
1, 10007, Note_on_c, 0, 77, 0
1, 10008, Note_on_c, 0, 79, 50
1, 10014, Note_on_c, 0, 79, 0
1, 10015, Note_on_c, 0, 77, 42
1, 10021, Note_on_c, 0, 77, 0
1, 10022, Note_on_c, 0, 79, 43
1, 10028, Note_on_c, 0, 79, 0
1, 10029, Note_on_c, 0, 77, 42
1, 10035, Note_on_c, 0, 77, 0
1, 10036, Note_on_c, 0, 79, 42
1, 10042, Note_on_c, 0, 79, 0
1, 10043, Note_on_c, 0, 77, 44
1, 10049, Note_on_c, 0, 77, 0
1, 10050, Note_on_c, 0, 79, 52
1, 10056, Note_on_c, 0, 79, 0
1, 10056, Note_on_c, 0, 55, 0
1, 10057, Note_on_c, 0, 77, 43
1, 10063, Note_on_c, 0, 77, 0
1, 10064, Note_on_c, 0, 76, 43
1, 10070, Note_on_c, 0, 76, 0
1, 10071, Note_on_c, 0, 77, 36
1, 10077, Note_on_c, 0, 77, 0
1, 10078, Note_on_c, 0, 76, 52
1, 10080, Note_on_c, 0, 60, 36
1, 10176, Note_on_c, 0, 60, 0
1, 10200, Note_on_c, 0, 55, 38
1, 10270, Note_on_c, 0, 76, 0
1, 10296, Note_on_c, 0, 55, 0
1, 10320, Note_on_c, 0, 48, 29
1, 10416, Note_on_c, 0, 48, 0
1, 10438, Note_on_c, 0, 67, 45
1, 10534, Note_on_c, 0, 67, 0
1, 10560, Note_on_c, 0, 72, 42
1, 10560, Note_on_c, 0, 64, 44
1, 10560, Note_on_c, 0, 60, 61
1, 10592, Note_on_c, 0, 72, 0
1, 10600, Note_on_c, 0, 76, 66
1, 10632, Note_on_c, 0, 76, 0
1, 10640, Note_on_c, 0, 74, 50
1, 10656, Note_on_c, 0, 60, 0
1, 10656, Note_on_c, 0, 64, 0
1, 10672, Note_on_c, 0, 74, 0
1, 10680, Note_on_c, 0, 60, 40
1, 10680, Note_on_c, 0, 64, 42
1, 10680, Note_on_c, 0, 72, 47
1, 10712, Note_on_c, 0, 72, 0
1, 10720, Note_on_c, 0, 72, 44
1, 10752, Note_on_c, 0, 72, 0
1, 10760, Note_on_c, 0, 72, 42
1, 10776, Note_on_c, 0, 64, 0
1, 10776, Note_on_c, 0, 60, 0
1, 10792, Note_on_c, 0, 72, 0
1, 10800, Note_on_c, 0, 64, 42
1, 10800, Note_on_c, 0, 72, 42
1, 10800, Note_on_c, 0, 60, 44
1, 10832, Note_on_c, 0, 72, 0
1, 10840, Note_on_c, 0, 76, 52
1, 10872, Note_on_c, 0, 76, 0
1, 10880, Note_on_c, 0, 77, 47
1, 10896, Note_on_c, 0, 60, 0
1, 10896, Note_on_c, 0, 64, 0
1, 10912, Note_on_c, 0, 77, 0
1, 10920, Note_on_c, 0, 79, 43
1, 10920, Note_on_c, 0, 64, 50
1, 10920, Note_on_c, 0, 60, 45
1, 10952, Note_on_c, 0, 79, 0
1, 10960, Note_on_c, 0, 77, 42
1, 10992, Note_on_c, 0, 77, 0
1, 11000, Note_on_c, 0, 76, 57
1, 11016, Note_on_c, 0, 60, 0
1, 11016, Note_on_c, 0, 64, 0
1, 11032, Note_on_c, 0, 76, 0
1, 11040, Note_on_c, 0, 74, 58
1, 11040, Note_on_c, 0, 67, 36
1, 11040, Note_on_c, 0, 59, 43
1, 11072, Note_on_c, 0, 74, 0
1, 11080, Note_on_c, 0, 79, 54
1, 11112, Note_on_c, 0, 79, 0
1, 11120, Note_on_c, 0, 78, 54
1, 11136, Note_on_c, 0, 59, 0
1, 11136, Note_on_c, 0, 67, 0
1, 11152, Note_on_c, 0, 78, 0
1, 11160, Note_on_c, 0, 62, 47
1, 11160, Note_on_c, 0, 59, 1
1, 11160, Note_on_c, 0, 79, 58
1, 11192, Note_on_c, 0, 79, 0
1, 11200, Note_on_c, 0, 83, 61
1, 11232, Note_on_c, 0, 83, 0
1, 11240, Note_on_c, 0, 81, 61
1, 11256, Note_on_c, 0, 59, 0
1, 11256, Note_on_c, 0, 62, 0
1, 11272, Note_on_c, 0, 81, 0
1, 11280, Note_on_c, 0, 59, 1
1, 11280, Note_on_c, 0, 62, 42
1, 11280, Note_on_c, 0, 79, 52
1, 11312, Note_on_c, 0, 79, 0
1, 11320, Note_on_c, 0, 78, 58
1, 11352, Note_on_c, 0, 78, 0
1, 11360, Note_on_c, 0, 76, 52
1, 11376, Note_on_c, 0, 62, 0
1, 11376, Note_on_c, 0, 59, 0
1, 11392, Note_on_c, 0, 76, 0
1, 11400, Note_on_c, 0, 62, 42
1, 11400, Note_on_c, 0, 59, 35
1, 11400, Note_on_c, 0, 74, 50
1, 11432, Note_on_c, 0, 74, 0
1, 11440, Note_on_c, 0, 72, 43
1, 11472, Note_on_c, 0, 72, 0
1, 11480, Note_on_c, 0, 71, 44
1, 11496, Note_on_c, 0, 59, 0
1, 11496, Note_on_c, 0, 62, 0
1, 11512, Note_on_c, 0, 71, 0
1, 11520, Note_on_c, 0, 64, 42
1, 11520, Note_on_c, 0, 60, 42
1, 11520, Note_on_c, 0, 69, 42
1, 11552, Note_on_c, 0, 69, 0
1, 11560, Note_on_c, 0, 72, 52
1, 11592, Note_on_c, 0, 72, 0
1, 11600, Note_on_c, 0, 71, 43
1, 11616, Note_on_c, 0, 60, 0
1, 11616, Note_on_c, 0, 64, 0
1, 11632, Note_on_c, 0, 71, 0
1, 11640, Note_on_c, 0, 64, 47
1, 11640, Note_on_c, 0, 60, 43
1, 11640, Note_on_c, 0, 69, 44
1, 11672, Note_on_c, 0, 69, 0
1, 11680, Note_on_c, 0, 72, 54
1, 11712, Note_on_c, 0, 72, 0
1, 11720, Note_on_c, 0, 74, 61
1, 11736, Note_on_c, 0, 60, 0
1, 11736, Note_on_c, 0, 64, 0
1, 11752, Note_on_c, 0, 74, 0
1, 11760, Note_on_c, 0, 64, 43
1, 11760, Note_on_c, 0, 60, 42
1, 11760, Note_on_c, 0, 76, 58
1, 11792, Note_on_c, 0, 76, 0
1, 11800, Note_on_c, 0, 74, 58
1, 11832, Note_on_c, 0, 74, 0
1, 11840, Note_on_c, 0, 72, 52
1, 11856, Note_on_c, 0, 60, 0
1, 11856, Note_on_c, 0, 64, 0
1, 11872, Note_on_c, 0, 72, 0
1, 11880, Note_on_c, 0, 61, 42
1, 11880, Note_on_c, 0, 71, 58
1, 11880, Note_on_c, 0, 64, 21
1, 11912, Note_on_c, 0, 71, 0
1, 11920, Note_on_c, 0, 69, 52
1, 11952, Note_on_c, 0, 69, 0
1, 11960, Note_on_c, 0, 67, 4
1, 11976, Note_on_c, 0, 64, 0
1, 11976, Note_on_c, 0, 61, 0
1, 11992, Note_on_c, 0, 67, 0
1, 12000, Note_on_c, 0, 62, 45
1, 12000, Note_on_c, 0, 69, 66
1, 12006, Note_on_c, 0, 69, 0
1, 12007, Note_on_c, 0, 67, 42
1, 12013, Note_on_c, 0, 67, 0
1, 12014, Note_on_c, 0, 69, 45
1, 12020, Note_on_c, 0, 69, 0
1, 12021, Note_on_c, 0, 67, 40
1, 12027, Note_on_c, 0, 67, 0
1, 12028, Note_on_c, 0, 69, 50
1, 12034, Note_on_c, 0, 69, 0
1, 12035, Note_on_c, 0, 67, 54
1, 12041, Note_on_c, 0, 67, 0
1, 12042, Note_on_c, 0, 69, 47
1, 12048, Note_on_c, 0, 69, 0
1, 12049, Note_on_c, 0, 67, 47
1, 12055, Note_on_c, 0, 67, 0
1, 12056, Note_on_c, 0, 69, 52
1, 12062, Note_on_c, 0, 69, 0
1, 12063, Note_on_c, 0, 67, 44
1, 12069, Note_on_c, 0, 67, 0
1, 12070, Note_on_c, 0, 69, 61
1, 12076, Note_on_c, 0, 69, 0
1, 12077, Note_on_c, 0, 67, 45
1, 12083, Note_on_c, 0, 67, 0
1, 12084, Note_on_c, 0, 69, 45
1, 12090, Note_on_c, 0, 69, 0
1, 12091, Note_on_c, 0, 67, 42
1, 12096, Note_on_c, 0, 62, 0
1, 12097, Note_on_c, 0, 67, 0
1, 12098, Note_on_c, 0, 66, 58
1, 12104, Note_on_c, 0, 66, 0
1, 12105, Note_on_c, 0, 67, 43
1, 12111, Note_on_c, 0, 67, 0
1, 12112, Note_on_c, 0, 66, 80
1, 12120, Note_on_c, 0, 50, 61
1, 12208, Note_on_c, 0, 66, 0
1, 12216, Note_on_c, 0, 50, 0
1, 12240, Note_on_c, 0, 50, 47
1, 12336, Note_on_c, 0, 50, 0
1, 12352, Note_on_c, 0, 74, 52
1, 12448, Note_on_c, 0, 74, 0
1, 12480, Note_on_c, 0, 54, 42
1, 12480, Note_on_c, 0, 50, 47
1, 12480, Note_on_c, 0, 72, 71
1, 12512, Note_on_c, 0, 72, 0
1, 12520, Note_on_c, 0, 71, 44
1, 12552, Note_on_c, 0, 71, 0
1, 12560, Note_on_c, 0, 69, 58
1, 12576, Note_on_c, 0, 50, 0
1, 12576, Note_on_c, 0, 54, 0
1, 12592, Note_on_c, 0, 69, 0
1, 12600, Note_on_c, 0, 50, 40
1, 12600, Note_on_c, 0, 67, 58
1, 12600, Note_on_c, 0, 54, 36
1, 12632, Note_on_c, 0, 67, 0
1, 12640, Note_on_c, 0, 66, 50
1, 12672, Note_on_c, 0, 66, 0
1, 12680, Note_on_c, 0, 64, 66
1, 12696, Note_on_c, 0, 54, 0
1, 12696, Note_on_c, 0, 50, 0
1, 12712, Note_on_c, 0, 64, 0
1, 12720, Note_on_c, 0, 50, 42
1, 12720, Note_on_c, 0, 62, 58
1, 12720, Note_on_c, 0, 54, 29
1, 12752, Note_on_c, 0, 62, 0
1, 12760, Note_on_c, 0, 69, 58
1, 12792, Note_on_c, 0, 69, 0
1, 12800, Note_on_c, 0, 71, 43
1, 12816, Note_on_c, 0, 54, 0
1, 12816, Note_on_c, 0, 50, 0
1, 12832, Note_on_c, 0, 71, 0
1, 12840, Note_on_c, 0, 72, 47
1, 12840, Note_on_c, 0, 50, 1
1, 12840, Note_on_c, 0, 54, 15
1, 12872, Note_on_c, 0, 72, 0
1, 12880, Note_on_c, 0, 71, 43
1, 12912, Note_on_c, 0, 71, 0
1, 12920, Note_on_c, 0, 69, 50
1, 12936, Note_on_c, 0, 54, 0
1, 12936, Note_on_c, 0, 50, 0
1, 12952, Note_on_c, 0, 69, 0
1, 12960, Note_on_c, 0, 55, 45
1, 12960, Note_on_c, 0, 71, 52
1, 12992, Note_on_c, 0, 71, 0
1, 13000, Note_on_c, 0, 69, 47
1, 13032, Note_on_c, 0, 69, 0
1, 13040, Note_on_c, 0, 67, 43
1, 13072, Note_on_c, 0, 67, 0
1, 13080, Note_on_c, 0, 74, 77
1, 13112, Note_on_c, 0, 74, 0
1, 13120, Note_on_c, 0, 72, 58
1, 13152, Note_on_c, 0, 72, 0
1, 13152, Note_on_c, 0, 55, 0
1, 13160, Note_on_c, 0, 71, 47
1, 13192, Note_on_c, 0, 71, 0
1, 13200, Note_on_c, 0, 79, 61
1, 13296, Note_on_c, 0, 79, 0
1, 13320, Note_on_c, 0, 74, 45
1, 13416, Note_on_c, 0, 74, 0
1, 13440, Note_on_c, 0, 72, 55
1, 13440, Note_on_c, 0, 50, 66
1, 13440, Note_on_c, 0, 54, 42
1, 13472, Note_on_c, 0, 72, 0
1, 13480, Note_on_c, 0, 71, 42
1, 13512, Note_on_c, 0, 71, 0
1, 13520, Note_on_c, 0, 69, 43
1, 13536, Note_on_c, 0, 54, 0
1, 13536, Note_on_c, 0, 50, 0
1, 13552, Note_on_c, 0, 69, 0
1, 13560, Note_on_c, 0, 54, 1
1, 13560, Note_on_c, 0, 50, 42
1, 13560, Note_on_c, 0, 67, 47
1, 13592, Note_on_c, 0, 67, 0
1, 13600, Note_on_c, 0, 66, 61
1, 13632, Note_on_c, 0, 66, 0
1, 13640, Note_on_c, 0, 64, 58
1, 13656, Note_on_c, 0, 50, 0
1, 13656, Note_on_c, 0, 54, 0
1, 13672, Note_on_c, 0, 64, 0
1, 13680, Note_on_c, 0, 62, 54
1, 13680, Note_on_c, 0, 54, 1
1, 13680, Note_on_c, 0, 50, 42
1, 13712, Note_on_c, 0, 62, 0
1, 13720, Note_on_c, 0, 69, 69
1, 13752, Note_on_c, 0, 69, 0
1, 13760, Note_on_c, 0, 71, 69
1, 13776, Note_on_c, 0, 50, 0
1, 13776, Note_on_c, 0, 54, 0
1, 13792, Note_on_c, 0, 71, 0
1, 13800, Note_on_c, 0, 54, 31
1, 13800, Note_on_c, 0, 50, 42
1, 13800, Note_on_c, 0, 72, 42
1, 13832, Note_on_c, 0, 72, 0
1, 13840, Note_on_c, 0, 71, 42
1, 13872, Note_on_c, 0, 71, 0
1, 13880, Note_on_c, 0, 69, 43
1, 13896, Note_on_c, 0, 50, 0
1, 13896, Note_on_c, 0, 54, 0
1, 13912, Note_on_c, 0, 69, 0
1, 13920, Note_on_c, 0, 71, 52
1, 13920, Note_on_c, 0, 55, 43
1, 13952, Note_on_c, 0, 71, 0
1, 13960, Note_on_c, 0, 69, 52
1, 13992, Note_on_c, 0, 69, 0
1, 14000, Note_on_c, 0, 67, 45
1, 14032, Note_on_c, 0, 67, 0
1, 14040, Note_on_c, 0, 74, 58
1, 14072, Note_on_c, 0, 74, 0
1, 14080, Note_on_c, 0, 72, 61
1, 14112, Note_on_c, 0, 72, 0
1, 14112, Note_on_c, 0, 55, 0
1, 14120, Note_on_c, 0, 71, 45
1, 14152, Note_on_c, 0, 71, 0
1, 14160, Note_on_c, 0, 79, 47
1, 14256, Note_on_c, 0, 79, 0
1, 14280, Note_on_c, 0, 59, 42
1, 14280, Note_on_c, 0, 74, 50
1, 14376, Note_on_c, 0, 74, 0
1, 14376, Note_on_c, 0, 59, 0
1, 14400, Note_on_c, 0, 60, 61
1, 14400, Note_on_c, 0, 76, 45
1, 14432, Note_on_c, 0, 76, 0
1, 14440, Note_on_c, 0, 78, 66
1, 14472, Note_on_c, 0, 78, 0
1, 14480, Note_on_c, 0, 79, 42
1, 14496, Note_on_c, 0, 60, 0
1, 14512, Note_on_c, 0, 79, 0
1, 14520, Note_on_c, 0, 81, 43
1, 14520, Note_on_c, 0, 57, 42
1, 14552, Note_on_c, 0, 81, 0
1, 14560, Note_on_c, 0, 83, 50
1, 14592, Note_on_c, 0, 83, 0
1, 14600, Note_on_c, 0, 84, 42
1, 14616, Note_on_c, 0, 57, 0
1, 14632, Note_on_c, 0, 84, 0
1, 14640, Note_on_c, 0, 59, 42
1, 14640, Note_on_c, 0, 74, 50
1, 14672, Note_on_c, 0, 74, 0
1, 14680, Note_on_c, 0, 76, 52
1, 14712, Note_on_c, 0, 76, 0
1, 14720, Note_on_c, 0, 78, 61
1, 14736, Note_on_c, 0, 59, 0
1, 14752, Note_on_c, 0, 78, 0
1, 14760, Note_on_c, 0, 79, 50
1, 14760, Note_on_c, 0, 55, 1
1, 14792, Note_on_c, 0, 79, 0
1, 14800, Note_on_c, 0, 81, 42
1, 14832, Note_on_c, 0, 81, 0
1, 14840, Note_on_c, 0, 83, 50
1, 14856, Note_on_c, 0, 55, 0
1, 14872, Note_on_c, 0, 83, 0
1, 14880, Note_on_c, 0, 57, 44
1, 14880, Note_on_c, 0, 72, 43
1, 14912, Note_on_c, 0, 72, 0
1, 14920, Note_on_c, 0, 71, 52
1, 14952, Note_on_c, 0, 71, 0
1, 14960, Note_on_c, 0, 72, 44
1, 14976, Note_on_c, 0, 57, 0
1, 14992, Note_on_c, 0, 72, 0
1, 15000, Note_on_c, 0, 81, 54
1, 15000, Note_on_c, 0, 50, 38
1, 15032, Note_on_c, 0, 81, 0
1, 15040, Note_on_c, 0, 78, 52
1, 15072, Note_on_c, 0, 78, 0
1, 15080, Note_on_c, 0, 72, 46
1, 15096, Note_on_c, 0, 50, 0
1, 15112, Note_on_c, 0, 72, 0
1, 15120, Note_on_c, 0, 55, 42
1, 15120, Note_on_c, 0, 71, 42
1, 15152, Note_on_c, 0, 71, 0
1, 15160, Note_on_c, 0, 79, 42
1, 15192, Note_on_c, 0, 79, 0
1, 15200, Note_on_c, 0, 79, 54
1, 15216, Note_on_c, 0, 55, 0
1, 15232, Note_on_c, 0, 79, 0
1, 15240, Note_on_c, 0, 59, 42
1, 15240, Note_on_c, 0, 79, 42
1, 15272, Note_on_c, 0, 79, 0
1, 15280, Note_on_c, 0, 74, 42
1, 15312, Note_on_c, 0, 74, 0
1, 15320, Note_on_c, 0, 71, 42
1, 15336, Note_on_c, 0, 59, 0
1, 15352, Note_on_c, 0, 71, 0
1, 15360, Note_on_c, 0, 76, 54
1, 15360, Note_on_c, 0, 60, 58
1, 15392, Note_on_c, 0, 76, 0
1, 15400, Note_on_c, 0, 74, 50
1, 15432, Note_on_c, 0, 74, 0
1, 15440, Note_on_c, 0, 72, 52
1, 15456, Note_on_c, 0, 60, 0
1, 15472, Note_on_c, 0, 72, 0
1, 15480, Note_on_c, 0, 64, 66
1, 15480, Note_on_c, 0, 71, 50
1, 15512, Note_on_c, 0, 71, 0
1, 15520, Note_on_c, 0, 69, 54
1, 15552, Note_on_c, 0, 69, 0
1, 15560, Note_on_c, 0, 67, 42
1, 15576, Note_on_c, 0, 64, 0
1, 15592, Note_on_c, 0, 67, 0
1, 15600, Note_on_c, 0, 62, 42
1, 15600, Note_on_c, 0, 71, 47
1, 15606, Note_on_c, 0, 71, 0
1, 15607, Note_on_c, 0, 69, 36
1, 15613, Note_on_c, 0, 69, 0
1, 15614, Note_on_c, 0, 71, 42
1, 15620, Note_on_c, 0, 71, 0
1, 15621, Note_on_c, 0, 69, 42
1, 15627, Note_on_c, 0, 69, 0
1, 15628, Note_on_c, 0, 71, 44
1, 15634, Note_on_c, 0, 71, 0
1, 15635, Note_on_c, 0, 69, 42
1, 15641, Note_on_c, 0, 69, 0
1, 15642, Note_on_c, 0, 71, 44
1, 15648, Note_on_c, 0, 71, 0
1, 15649, Note_on_c, 0, 69, 42
1, 15655, Note_on_c, 0, 69, 0
1, 15656, Note_on_c, 0, 71, 52
1, 15662, Note_on_c, 0, 71, 0
1, 15663, Note_on_c, 0, 69, 45
1, 15669, Note_on_c, 0, 69, 0
1, 15670, Note_on_c, 0, 71, 50
1, 15676, Note_on_c, 0, 71, 0
1, 15677, Note_on_c, 0, 69, 42
1, 15683, Note_on_c, 0, 69, 0
1, 15684, Note_on_c, 0, 71, 50
1, 15690, Note_on_c, 0, 71, 0
1, 15691, Note_on_c, 0, 69, 44
1, 15696, Note_on_c, 0, 62, 0
1, 15697, Note_on_c, 0, 69, 0
1, 15698, Note_on_c, 0, 71, 45
1, 15704, Note_on_c, 0, 71, 0
1, 15705, Note_on_c, 0, 69, 44
1, 15711, Note_on_c, 0, 69, 0
1, 15712, Note_on_c, 0, 71, 52
1, 15718, Note_on_c, 0, 71, 0
1, 15719, Note_on_c, 0, 69, 43
1, 15720, Note_on_c, 0, 50, 58
1, 15725, Note_on_c, 0, 69, 0
1, 15726, Note_on_c, 0, 71, 44
1, 15732, Note_on_c, 0, 71, 0
1, 15733, Note_on_c, 0, 69, 42
1, 15739, Note_on_c, 0, 69, 0
1, 15740, Note_on_c, 0, 71, 42
1, 15746, Note_on_c, 0, 71, 0
1, 15747, Note_on_c, 0, 69, 42
1, 15753, Note_on_c, 0, 69, 0
1, 15754, Note_on_c, 0, 71, 42
1, 15760, Note_on_c, 0, 71, 0
1, 15761, Note_on_c, 0, 69, 44
1, 15767, Note_on_c, 0, 69, 0
1, 15768, Note_on_c, 0, 71, 50
1, 15774, Note_on_c, 0, 71, 0
1, 15775, Note_on_c, 0, 69, 42
1, 15781, Note_on_c, 0, 69, 0
1, 15782, Note_on_c, 0, 71, 43
1, 15788, Note_on_c, 0, 71, 0
1, 15789, Note_on_c, 0, 69, 42
1, 15795, Note_on_c, 0, 69, 0
1, 15796, Note_on_c, 0, 71, 42
1, 15802, Note_on_c, 0, 71, 0
1, 15803, Note_on_c, 0, 69, 44
1, 15809, Note_on_c, 0, 69, 0
1, 15810, Note_on_c, 0, 71, 52
1, 15816, Note_on_c, 0, 71, 0
1, 15816, Note_on_c, 0, 50, 0
1, 15817, Note_on_c, 0, 69, 43
1, 15823, Note_on_c, 0, 69, 0
1, 15824, Note_on_c, 0, 67, 43
1, 15830, Note_on_c, 0, 67, 0
1, 15831, Note_on_c, 0, 69, 36
1, 15837, Note_on_c, 0, 69, 0
1, 15838, Note_on_c, 0, 67, 52
1, 15840, Note_on_c, 0, 55, 50
1, 15936, Note_on_c, 0, 55, 0
1, 15960, Note_on_c, 0, 50, 61
1, 16030, Note_on_c, 0, 67, 0
1, 16056, Note_on_c, 0, 50, 0
1, 16080, Note_on_c, 0, 43, 50
1, 16176, Note_on_c, 0, 43, 0
1, 16198, Note_on_c, 0, 62, 43
1, 16294, Note_on_c, 0, 62, 0
1, 16320, Note_on_c, 0, 55, 45
1, 16320, Note_on_c, 0, 59, 45
1, 16320, Note_on_c, 0, 67, 58
1, 16352, Note_on_c, 0, 67, 0
1, 16360, Note_on_c, 0, 71, 71
1, 16392, Note_on_c, 0, 71, 0
1, 16400, Note_on_c, 0, 69, 54
1, 16416, Note_on_c, 0, 59, 0
1, 16416, Note_on_c, 0, 55, 0
1, 16432, Note_on_c, 0, 69, 0
1, 16440, Note_on_c, 0, 55, 42
1, 16440, Note_on_c, 0, 67, 44
1, 16440, Note_on_c, 0, 59, 32
1, 16536, Note_on_c, 0, 59, 0
1, 16536, Note_on_c, 0, 55, 0
1, 16552, Note_on_c, 0, 67, 0
1, 16560, Note_on_c, 0, 59, 43
1, 16560, Note_on_c, 0, 55, 42
1, 16560, Note_on_c, 0, 71, 54
1, 16592, Note_on_c, 0, 71, 0
1, 16600, Note_on_c, 0, 74, 58
1, 16632, Note_on_c, 0, 74, 0
1, 16640, Note_on_c, 0, 72, 66
1, 16656, Note_on_c, 0, 55, 0
1, 16656, Note_on_c, 0, 59, 0
1, 16672, Note_on_c, 0, 72, 0
1, 16680, Note_on_c, 0, 71, 58
1, 16680, Note_on_c, 0, 55, 42
1, 16680, Note_on_c, 0, 59, 42
1, 16712, Note_on_c, 0, 71, 0
1, 16720, Note_on_c, 0, 67, 61
1, 16752, Note_on_c, 0, 67, 0
1, 16760, Note_on_c, 0, 74, 45
1, 16776, Note_on_c, 0, 59, 0
1, 16776, Note_on_c, 0, 55, 0
1, 16792, Note_on_c, 0, 74, 0
1, 16800, Note_on_c, 0, 55, 50
1, 16800, Note_on_c, 0, 76, 57
1, 16800, Note_on_c, 0, 60, 42
1, 16832, Note_on_c, 0, 76, 0
1, 16840, Note_on_c, 0, 79, 44
1, 16872, Note_on_c, 0, 79, 0
1, 16880, Note_on_c, 0, 76, 66
1, 16896, Note_on_c, 0, 60, 0
1, 16896, Note_on_c, 0, 55, 0
1, 16912, Note_on_c, 0, 76, 0
1, 16920, Note_on_c, 0, 59, 42
1, 16920, Note_on_c, 0, 55, 42
1, 16920, Note_on_c, 0, 74, 50
1, 17016, Note_on_c, 0, 55, 0
1, 17016, Note_on_c, 0, 59, 0
1, 17032, Note_on_c, 0, 74, 0
1, 17040, Note_on_c, 0, 59, 42
1, 17040, Note_on_c, 0, 55, 42
1, 17040, Note_on_c, 0, 71, 43
1, 17072, Note_on_c, 0, 71, 0
1, 17080, Note_on_c, 0, 74, 58
1, 17112, Note_on_c, 0, 74, 0
1, 17120, Note_on_c, 0, 72, 52
1, 17136, Note_on_c, 0, 55, 0
1, 17136, Note_on_c, 0, 59, 0
1, 17152, Note_on_c, 0, 72, 0
1, 17160, Note_on_c, 0, 55, 47
1, 17160, Note_on_c, 0, 59, 50
1, 17160, Note_on_c, 0, 71, 71
1, 17192, Note_on_c, 0, 71, 0
1, 17200, Note_on_c, 0, 67, 61
1, 17232, Note_on_c, 0, 67, 0
1, 17240, Note_on_c, 0, 74, 77
1, 17256, Note_on_c, 0, 59, 0
1, 17256, Note_on_c, 0, 55, 0
1, 17272, Note_on_c, 0, 74, 0
1, 17280, Note_on_c, 0, 76, 66
1, 17280, Note_on_c, 0, 60, 47
1, 17312, Note_on_c, 0, 76, 0
1, 17320, Note_on_c, 0, 78, 54
1, 17352, Note_on_c, 0, 78, 0
1, 17360, Note_on_c, 0, 79, 61
1, 17376, Note_on_c, 0, 60, 0
1, 17392, Note_on_c, 0, 79, 0
1, 17400, Note_on_c, 0, 59, 42
1, 17400, Note_on_c, 0, 74, 54
1, 17432, Note_on_c, 0, 74, 0
1, 17440, Note_on_c, 0, 78, 47
1, 17472, Note_on_c, 0, 78, 0
1, 17480, Note_on_c, 0, 79, 54
1, 17496, Note_on_c, 0, 59, 0
1, 17512, Note_on_c, 0, 79, 0
1, 17520, Note_on_c, 0, 57, 50
1, 17520, Note_on_c, 0, 74, 47
1, 17526, Note_on_c, 0, 74, 0
1, 17527, Note_on_c, 0, 72, 36
1, 17533, Note_on_c, 0, 72, 0
1, 17534, Note_on_c, 0, 74, 42
1, 17540, Note_on_c, 0, 74, 0
1, 17541, Note_on_c, 0, 72, 42
1, 17547, Note_on_c, 0, 72, 0
1, 17548, Note_on_c, 0, 74, 44
1, 17554, Note_on_c, 0, 74, 0
1, 17555, Note_on_c, 0, 72, 42
1, 17561, Note_on_c, 0, 72, 0
1, 17562, Note_on_c, 0, 74, 44
1, 17568, Note_on_c, 0, 74, 0
1, 17569, Note_on_c, 0, 72, 42
1, 17575, Note_on_c, 0, 72, 0
1, 17576, Note_on_c, 0, 74, 52
1, 17582, Note_on_c, 0, 74, 0
1, 17583, Note_on_c, 0, 72, 45
1, 17589, Note_on_c, 0, 72, 0
1, 17590, Note_on_c, 0, 74, 50
1, 17596, Note_on_c, 0, 74, 0
1, 17597, Note_on_c, 0, 72, 42
1, 17603, Note_on_c, 0, 72, 0
1, 17604, Note_on_c, 0, 74, 50
1, 17610, Note_on_c, 0, 74, 0
1, 17611, Note_on_c, 0, 72, 44
1, 17616, Note_on_c, 0, 57, 0
1, 17617, Note_on_c, 0, 72, 0
1, 17618, Note_on_c, 0, 74, 45
1, 17624, Note_on_c, 0, 74, 0
1, 17625, Note_on_c, 0, 72, 44
1, 17631, Note_on_c, 0, 72, 0
1, 17632, Note_on_c, 0, 74, 52
1, 17638, Note_on_c, 0, 74, 0
1, 17639, Note_on_c, 0, 72, 43
1, 17640, Note_on_c, 0, 50, 42
1, 17645, Note_on_c, 0, 72, 0
1, 17646, Note_on_c, 0, 74, 44
1, 17652, Note_on_c, 0, 74, 0
1, 17653, Note_on_c, 0, 72, 42
1, 17659, Note_on_c, 0, 72, 0
1, 17660, Note_on_c, 0, 74, 42
1, 17666, Note_on_c, 0, 74, 0
1, 17667, Note_on_c, 0, 72, 42
1, 17673, Note_on_c, 0, 72, 0
1, 17674, Note_on_c, 0, 74, 42
1, 17680, Note_on_c, 0, 74, 0
1, 17681, Note_on_c, 0, 72, 44
1, 17687, Note_on_c, 0, 72, 0
1, 17688, Note_on_c, 0, 74, 50
1, 17694, Note_on_c, 0, 74, 0
1, 17695, Note_on_c, 0, 72, 42
1, 17701, Note_on_c, 0, 72, 0
1, 17702, Note_on_c, 0, 74, 43
1, 17708, Note_on_c, 0, 74, 0
1, 17709, Note_on_c, 0, 72, 42
1, 17715, Note_on_c, 0, 72, 0
1, 17716, Note_on_c, 0, 74, 42
1, 17722, Note_on_c, 0, 74, 0
1, 17723, Note_on_c, 0, 72, 44
1, 17729, Note_on_c, 0, 72, 0
1, 17730, Note_on_c, 0, 74, 52
1, 17736, Note_on_c, 0, 74, 0
1, 17736, Note_on_c, 0, 50, 0
1, 17737, Note_on_c, 0, 72, 43
1, 17743, Note_on_c, 0, 72, 0
1, 17744, Note_on_c, 0, 71, 43
1, 17750, Note_on_c, 0, 71, 0
1, 17751, Note_on_c, 0, 72, 36
1, 17757, Note_on_c, 0, 72, 0
1, 17758, Note_on_c, 0, 71, 52
1, 17760, Note_on_c, 0, 55, 36
1, 17856, Note_on_c, 0, 55, 0
1, 17880, Note_on_c, 0, 50, 38
1, 17950, Note_on_c, 0, 71, 0
1, 17976, Note_on_c, 0, 50, 0
1, 18000, Note_on_c, 0, 43, 29
1, 18096, Note_on_c, 0, 43, 0
1, 18118, Note_on_c, 0, 67, 45
1, 18214, Note_on_c, 0, 67, 0
1, 18240, Note_on_c, 0, 64, 44
1, 18240, Note_on_c, 0, 60, 61
1, 18240, Note_on_c, 0, 72, 42
1, 18272, Note_on_c, 0, 72, 0
1, 18280, Note_on_c, 0, 76, 66
1, 18312, Note_on_c, 0, 76, 0
1, 18320, Note_on_c, 0, 74, 50
1, 18336, Note_on_c, 0, 60, 0
1, 18336, Note_on_c, 0, 64, 0
1, 18352, Note_on_c, 0, 74, 0
1, 18360, Note_on_c, 0, 60, 40
1, 18360, Note_on_c, 0, 72, 47
1, 18360, Note_on_c, 0, 64, 42
1, 18392, Note_on_c, 0, 72, 0
1, 18400, Note_on_c, 0, 72, 44
1, 18432, Note_on_c, 0, 72, 0
1, 18440, Note_on_c, 0, 72, 42
1, 18456, Note_on_c, 0, 64, 0
1, 18456, Note_on_c, 0, 60, 0
1, 18472, Note_on_c, 0, 72, 0
1, 18480, Note_on_c, 0, 64, 42
1, 18480, Note_on_c, 0, 60, 44
1, 18480, Note_on_c, 0, 72, 42
1, 18512, Note_on_c, 0, 72, 0
1, 18520, Note_on_c, 0, 76, 52
1, 18552, Note_on_c, 0, 76, 0
1, 18560, Note_on_c, 0, 77, 47
1, 18576, Note_on_c, 0, 60, 0
1, 18576, Note_on_c, 0, 64, 0
1, 18592, Note_on_c, 0, 77, 0
1, 18600, Note_on_c, 0, 60, 45
1, 18600, Note_on_c, 0, 64, 50
1, 18600, Note_on_c, 0, 79, 43
1, 18632, Note_on_c, 0, 79, 0
1, 18640, Note_on_c, 0, 77, 42
1, 18672, Note_on_c, 0, 77, 0
1, 18680, Note_on_c, 0, 76, 57
1, 18696, Note_on_c, 0, 64, 0
1, 18696, Note_on_c, 0, 60, 0
1, 18712, Note_on_c, 0, 76, 0
1, 18720, Note_on_c, 0, 84, 50
1, 18720, Note_on_c, 0, 58, 42
1, 18720, Note_on_c, 0, 67, 42
1, 18752, Note_on_c, 0, 84, 0
1, 18760, Note_on_c, 0, 79, 42
1, 18792, Note_on_c, 0, 79, 0
1, 18800, Note_on_c, 0, 76, 42
1, 18816, Note_on_c, 0, 67, 0
1, 18816, Note_on_c, 0, 58, 0
1, 18832, Note_on_c, 0, 76, 0
1, 18840, Note_on_c, 0, 58, 42
1, 18840, Note_on_c, 0, 67, 42
1, 18840, Note_on_c, 0, 84, 50
1, 18872, Note_on_c, 0, 84, 0
1, 18880, Note_on_c, 0, 79, 43
1, 18912, Note_on_c, 0, 79, 0
1, 18920, Note_on_c, 0, 76, 54
1, 18936, Note_on_c, 0, 67, 0
1, 18936, Note_on_c, 0, 58, 0
1, 18952, Note_on_c, 0, 76, 0
1, 18960, Note_on_c, 0, 58, 42
1, 18960, Note_on_c, 0, 67, 39
1, 18960, Note_on_c, 0, 84, 54
1, 18992, Note_on_c, 0, 84, 0
1, 19000, Note_on_c, 0, 76, 45
1, 19032, Note_on_c, 0, 76, 0
1, 19040, Note_on_c, 0, 77, 43
1, 19056, Note_on_c, 0, 67, 0
1, 19056, Note_on_c, 0, 58, 0
1, 19072, Note_on_c, 0, 77, 0
1, 19080, Note_on_c, 0, 58, 1
1, 19080, Note_on_c, 0, 67, 1
1, 19080, Note_on_c, 0, 79, 47
1, 19112, Note_on_c, 0, 79, 0
1, 19120, Note_on_c, 0, 77, 42
1, 19152, Note_on_c, 0, 77, 0
1, 19160, Note_on_c, 0, 76, 45
1, 19176, Note_on_c, 0, 67, 0
1, 19176, Note_on_c, 0, 58, 0
1, 19192, Note_on_c, 0, 76, 0
1, 19200, Note_on_c, 0, 65, 1
1, 19200, Note_on_c, 0, 84, 52
1, 19200, Note_on_c, 0, 57, 45
1, 19232, Note_on_c, 0, 84, 0
1, 19240, Note_on_c, 0, 81, 45
1, 19272, Note_on_c, 0, 81, 0
1, 19280, Note_on_c, 0, 77, 47
1, 19296, Note_on_c, 0, 57, 0
1, 19296, Note_on_c, 0, 65, 0
1, 19312, Note_on_c, 0, 77, 0
1, 19320, Note_on_c, 0, 65, 42
1, 19320, Note_on_c, 0, 57, 42
1, 19320, Note_on_c, 0, 84, 61
1, 19352, Note_on_c, 0, 84, 0
1, 19360, Note_on_c, 0, 81, 58
1, 19392, Note_on_c, 0, 81, 0
1, 19400, Note_on_c, 0, 77, 45
1, 19416, Note_on_c, 0, 57, 0
1, 19416, Note_on_c, 0, 65, 0
1, 19432, Note_on_c, 0, 77, 0
1, 19440, Note_on_c, 0, 65, 30
1, 19440, Note_on_c, 0, 84, 54
1, 19440, Note_on_c, 0, 57, 42
1, 19472, Note_on_c, 0, 84, 0
1, 19480, Note_on_c, 0, 77, 61
1, 19512, Note_on_c, 0, 77, 0
1, 19520, Note_on_c, 0, 79, 45
1, 19536, Note_on_c, 0, 57, 0
1, 19536, Note_on_c, 0, 65, 0
1, 19552, Note_on_c, 0, 79, 0
1, 19560, Note_on_c, 0, 65, 42
1, 19560, Note_on_c, 0, 81, 52
1, 19560, Note_on_c, 0, 57, 42
1, 19592, Note_on_c, 0, 81, 0
1, 19600, Note_on_c, 0, 79, 47
1, 19632, Note_on_c, 0, 79, 0
1, 19640, Note_on_c, 0, 77, 45
1, 19656, Note_on_c, 0, 57, 0
1, 19656, Note_on_c, 0, 65, 0
1, 19672, Note_on_c, 0, 77, 0
1, 19680, Note_on_c, 0, 60, 42
1, 19680, Note_on_c, 0, 52, 42
1, 19680, Note_on_c, 0, 84, 45
1, 19712, Note_on_c, 0, 84, 0
1, 19720, Note_on_c, 0, 82, 40
1, 19752, Note_on_c, 0, 82, 0
1, 19760, Note_on_c, 0, 79, 42
1, 19776, Note_on_c, 0, 52, 0
1, 19776, Note_on_c, 0, 60, 0
1, 19792, Note_on_c, 0, 79, 0
1, 19800, Note_on_c, 0, 60, 42
1, 19800, Note_on_c, 0, 52, 42
1, 19800, Note_on_c, 0, 84, 42
1, 19832, Note_on_c, 0, 84, 0
1, 19840, Note_on_c, 0, 82, 42
1, 19872, Note_on_c, 0, 82, 0
1, 19880, Note_on_c, 0, 79, 46
1, 19896, Note_on_c, 0, 52, 0
1, 19896, Note_on_c, 0, 60, 0
1, 19912, Note_on_c, 0, 79, 0
1, 19920, Note_on_c, 0, 84, 43
1, 19920, Note_on_c, 0, 60, 42
1, 19920, Note_on_c, 0, 52, 42
1, 19952, Note_on_c, 0, 84, 0
1, 19960, Note_on_c, 0, 79, 45
1, 19992, Note_on_c, 0, 79, 0
1, 20000, Note_on_c, 0, 81, 42
1, 20016, Note_on_c, 0, 52, 0
1, 20016, Note_on_c, 0, 60, 0
1, 20032, Note_on_c, 0, 81, 0
1, 20040, Note_on_c, 0, 82, 42
1, 20040, Note_on_c, 0, 60, 29
1, 20040, Note_on_c, 0, 52, 42
1, 20072, Note_on_c, 0, 82, 0
1, 20080, Note_on_c, 0, 81, 42
1, 20112, Note_on_c, 0, 81, 0
1, 20120, Note_on_c, 0, 79, 43
1, 20136, Note_on_c, 0, 52, 0
1, 20136, Note_on_c, 0, 60, 0
1, 20152, Note_on_c, 0, 79, 0
1, 20160, Note_on_c, 0, 81, 58
1, 20160, Note_on_c, 0, 60, 1
1, 20160, Note_on_c, 0, 53, 42
1, 20192, Note_on_c, 0, 81, 0
1, 20200, Note_on_c, 0, 81, 42
1, 20232, Note_on_c, 0, 81, 0
1, 20240, Note_on_c, 0, 81, 44
1, 20256, Note_on_c, 0, 53, 0
1, 20256, Note_on_c, 0, 60, 0
1, 20272, Note_on_c, 0, 81, 0
1, 20280, Note_on_c, 0, 60, 23
1, 20280, Note_on_c, 0, 81, 58
1, 20280, Note_on_c, 0, 53, 42
1, 20312, Note_on_c, 0, 81, 0
1, 20320, Note_on_c, 0, 81, 50
1, 20352, Note_on_c, 0, 81, 0
1, 20360, Note_on_c, 0, 81, 47
1, 20376, Note_on_c, 0, 53, 0
1, 20376, Note_on_c, 0, 60, 0
1, 20392, Note_on_c, 0, 81, 0
1, 20400, Note_on_c, 0, 81, 45
1, 20400, Note_on_c, 0, 53, 29
1, 20400, Note_on_c, 0, 60, 42
1, 20432, Note_on_c, 0, 81, 0
1, 20440, Note_on_c, 0, 79, 50
1, 20472, Note_on_c, 0, 79, 0
1, 20480, Note_on_c, 0, 77, 50
1, 20496, Note_on_c, 0, 60, 0
1, 20496, Note_on_c, 0, 53, 0
1, 20512, Note_on_c, 0, 77, 0
1, 20520, Note_on_c, 0, 62, 42
1, 20520, Note_on_c, 0, 76, 58
1, 20520, Note_on_c, 0, 54, 42
1, 20552, Note_on_c, 0, 76, 0
1, 20560, Note_on_c, 0, 74, 58
1, 20592, Note_on_c, 0, 74, 0
1, 20600, Note_on_c, 0, 72, 44
1, 20616, Note_on_c, 0, 54, 0
1, 20616, Note_on_c, 0, 62, 0
1, 20632, Note_on_c, 0, 72, 0
1, 20640, Note_on_c, 0, 55, 43
1, 20640, Note_on_c, 0, 62, 42
1, 20640, Note_on_c, 0, 74, 66
1, 20646, Note_on_c, 0, 74, 0
1, 20647, Note_on_c, 0, 72, 42
1, 20653, Note_on_c, 0, 72, 0
1, 20654, Note_on_c, 0, 72, 45
1, 20660, Note_on_c, 0, 72, 0
1, 20661, Note_on_c, 0, 72, 40
1, 20667, Note_on_c, 0, 72, 0
1, 20668, Note_on_c, 0, 74, 50
1, 20674, Note_on_c, 0, 74, 0
1, 20675, Note_on_c, 0, 72, 54
1, 20681, Note_on_c, 0, 72, 0
1, 20682, Note_on_c, 0, 74, 47
1, 20688, Note_on_c, 0, 74, 0
1, 20689, Note_on_c, 0, 72, 47
1, 20695, Note_on_c, 0, 72, 0
1, 20696, Note_on_c, 0, 74, 52
1, 20702, Note_on_c, 0, 74, 0
1, 20703, Note_on_c, 0, 72, 44
1, 20709, Note_on_c, 0, 72, 0
1, 20710, Note_on_c, 0, 74, 61
1, 20716, Note_on_c, 0, 74, 0
1, 20717, Note_on_c, 0, 72, 45
1, 20723, Note_on_c, 0, 72, 0
1, 20724, Note_on_c, 0, 74, 45
1, 20730, Note_on_c, 0, 74, 0
1, 20731, Note_on_c, 0, 72, 42
1, 20736, Note_on_c, 0, 62, 0
1, 20736, Note_on_c, 0, 55, 0
1, 20737, Note_on_c, 0, 72, 0
1, 20738, Note_on_c, 0, 71, 58
1, 20744, Note_on_c, 0, 71, 0
1, 20745, Note_on_c, 0, 72, 43
1, 20751, Note_on_c, 0, 72, 0
1, 20752, Note_on_c, 0, 71, 80
1, 20760, Note_on_c, 0, 55, 42
1, 20760, Note_on_c, 0, 62, 40
1, 20848, Note_on_c, 0, 71, 0
1, 20856, Note_on_c, 0, 62, 0
1, 20856, Note_on_c, 0, 55, 0
1, 20880, Note_on_c, 0, 62, 41
1, 20880, Note_on_c, 0, 55, 42
1, 20992, Note_on_c, 0, 79, 42
1, 21072, Note_on_c, 0, 55, 0
1, 21072, Note_on_c, 0, 62, 0
1, 21088, Note_on_c, 0, 79, 0
1, 21120, Note_on_c, 0, 77, 55
1, 21120, Note_on_c, 0, 55, 66
1, 21120, Note_on_c, 0, 59, 42
1, 21152, Note_on_c, 0, 77, 0
1, 21160, Note_on_c, 0, 76, 42
1, 21192, Note_on_c, 0, 76, 0
1, 21200, Note_on_c, 0, 74, 43
1, 21216, Note_on_c, 0, 59, 0
1, 21216, Note_on_c, 0, 55, 0
1, 21232, Note_on_c, 0, 74, 0
1, 21240, Note_on_c, 0, 55, 42
1, 21240, Note_on_c, 0, 72, 47
1, 21240, Note_on_c, 0, 59, 1
1, 21272, Note_on_c, 0, 72, 0
1, 21280, Note_on_c, 0, 71, 61
1, 21312, Note_on_c, 0, 71, 0
1, 21320, Note_on_c, 0, 69, 58
1, 21336, Note_on_c, 0, 59, 0
1, 21336, Note_on_c, 0, 55, 0
1, 21352, Note_on_c, 0, 69, 0
1, 21360, Note_on_c, 0, 55, 42
1, 21360, Note_on_c, 0, 67, 54
1, 21360, Note_on_c, 0, 59, 1
1, 21392, Note_on_c, 0, 67, 0
1, 21400, Note_on_c, 0, 74, 69
1, 21432, Note_on_c, 0, 74, 0
1, 21440, Note_on_c, 0, 76, 69
1, 21456, Note_on_c, 0, 59, 0
1, 21456, Note_on_c, 0, 55, 0
1, 21472, Note_on_c, 0, 76, 0
1, 21480, Note_on_c, 0, 59, 31
1, 21480, Note_on_c, 0, 55, 42
1, 21480, Note_on_c, 0, 77, 42
1, 21512, Note_on_c, 0, 77, 0
1, 21520, Note_on_c, 0, 76, 42
1, 21552, Note_on_c, 0, 76, 0
1, 21560, Note_on_c, 0, 74, 43
1, 21576, Note_on_c, 0, 55, 0
1, 21576, Note_on_c, 0, 59, 0
1, 21592, Note_on_c, 0, 74, 0
1, 21600, Note_on_c, 0, 76, 52
1, 21600, Note_on_c, 0, 60, 43
1, 21632, Note_on_c, 0, 76, 0
1, 21640, Note_on_c, 0, 74, 52
1, 21672, Note_on_c, 0, 74, 0
1, 21680, Note_on_c, 0, 72, 45
1, 21712, Note_on_c, 0, 72, 0
1, 21720, Note_on_c, 0, 79, 58
1, 21752, Note_on_c, 0, 79, 0
1, 21760, Note_on_c, 0, 77, 61
1, 21792, Note_on_c, 0, 77, 0
1, 21792, Note_on_c, 0, 60, 0
1, 21800, Note_on_c, 0, 76, 45
1, 21832, Note_on_c, 0, 76, 0
1, 21840, Note_on_c, 0, 84, 47
1, 21936, Note_on_c, 0, 84, 0
1, 21960, Note_on_c, 0, 79, 50
1, 22056, Note_on_c, 0, 79, 0
1, 22080, Note_on_c, 0, 59, 42
1, 22080, Note_on_c, 0, 55, 66
1, 22080, Note_on_c, 0, 77, 55
1, 22112, Note_on_c, 0, 77, 0
1, 22120, Note_on_c, 0, 76, 42
1, 22152, Note_on_c, 0, 76, 0
1, 22160, Note_on_c, 0, 74, 43
1, 22176, Note_on_c, 0, 55, 0
1, 22176, Note_on_c, 0, 59, 0
1, 22192, Note_on_c, 0, 74, 0
1, 22200, Note_on_c, 0, 72, 47
1, 22200, Note_on_c, 0, 59, 1
1, 22200, Note_on_c, 0, 55, 42
1, 22232, Note_on_c, 0, 72, 0
1, 22240, Note_on_c, 0, 71, 61
1, 22272, Note_on_c, 0, 71, 0
1, 22280, Note_on_c, 0, 69, 58
1, 22296, Note_on_c, 0, 55, 0
1, 22296, Note_on_c, 0, 59, 0
1, 22312, Note_on_c, 0, 69, 0
1, 22320, Note_on_c, 0, 59, 1
1, 22320, Note_on_c, 0, 55, 42
1, 22320, Note_on_c, 0, 67, 54
1, 22352, Note_on_c, 0, 67, 0
1, 22360, Note_on_c, 0, 74, 69
1, 22392, Note_on_c, 0, 74, 0
1, 22400, Note_on_c, 0, 76, 69
1, 22416, Note_on_c, 0, 55, 0
1, 22416, Note_on_c, 0, 59, 0
1, 22432, Note_on_c, 0, 76, 0
1, 22440, Note_on_c, 0, 77, 42
1, 22440, Note_on_c, 0, 55, 42
1, 22440, Note_on_c, 0, 59, 31
1, 22472, Note_on_c, 0, 77, 0
1, 22480, Note_on_c, 0, 76, 42
1, 22512, Note_on_c, 0, 76, 0
1, 22520, Note_on_c, 0, 74, 43
1, 22536, Note_on_c, 0, 59, 0
1, 22536, Note_on_c, 0, 55, 0
1, 22552, Note_on_c, 0, 74, 0
1, 22560, Note_on_c, 0, 60, 43
1, 22560, Note_on_c, 0, 76, 52
1, 22592, Note_on_c, 0, 76, 0
1, 22600, Note_on_c, 0, 74, 52
1, 22632, Note_on_c, 0, 74, 0
1, 22640, Note_on_c, 0, 72, 45
1, 22672, Note_on_c, 0, 72, 0
1, 22680, Note_on_c, 0, 79, 58
1, 22712, Note_on_c, 0, 79, 0
1, 22720, Note_on_c, 0, 77, 61
1, 22752, Note_on_c, 0, 77, 0
1, 22752, Note_on_c, 0, 60, 0
1, 22760, Note_on_c, 0, 76, 45
1, 22792, Note_on_c, 0, 76, 0
1, 22800, Note_on_c, 0, 84, 47
1, 22896, Note_on_c, 0, 84, 0
1, 22920, Note_on_c, 0, 64, 42
1, 22920, Note_on_c, 0, 79, 50
1, 23016, Note_on_c, 0, 79, 0
1, 23016, Note_on_c, 0, 64, 0
1, 23040, Note_on_c, 0, 65, 31
1, 23040, Note_on_c, 0, 81, 42
1, 23072, Note_on_c, 0, 81, 0
1, 23080, Note_on_c, 0, 73, 47
1, 23112, Note_on_c, 0, 73, 0
1, 23120, Note_on_c, 0, 74, 54
1, 23136, Note_on_c, 0, 65, 0
1, 23152, Note_on_c, 0, 74, 0
1, 23160, Note_on_c, 0, 77, 43
1, 23160, Note_on_c, 0, 62, 47
1, 23192, Note_on_c, 0, 77, 0
1, 23200, Note_on_c, 0, 79, 42
1, 23232, Note_on_c, 0, 79, 0
1, 23240, Note_on_c, 0, 81, 43
1, 23256, Note_on_c, 0, 62, 0
1, 23272, Note_on_c, 0, 81, 0
1, 23280, Note_on_c, 0, 64, 47
1, 23280, Note_on_c, 0, 79, 52
1, 23312, Note_on_c, 0, 79, 0
1, 23320, Note_on_c, 0, 71, 54
1, 23352, Note_on_c, 0, 71, 0
1, 23360, Note_on_c, 0, 72, 58
1, 23376, Note_on_c, 0, 64, 0
1, 23392, Note_on_c, 0, 72, 0
1, 23400, Note_on_c, 0, 76, 45
1, 23400, Note_on_c, 0, 60, 42
1, 23432, Note_on_c, 0, 76, 0
1, 23440, Note_on_c, 0, 77, 52
1, 23472, Note_on_c, 0, 77, 0
1, 23480, Note_on_c, 0, 79, 44
1, 23496, Note_on_c, 0, 60, 0
1, 23512, Note_on_c, 0, 79, 0
1, 23520, Note_on_c, 0, 62, 38
1, 23520, Note_on_c, 0, 77, 52
1, 23552, Note_on_c, 0, 77, 0
1, 23560, Note_on_c, 0, 76, 61
1, 23592, Note_on_c, 0, 76, 0
1, 23600, Note_on_c, 0, 77, 47
1, 23616, Note_on_c, 0, 62, 0
1, 23632, Note_on_c, 0, 77, 0
1, 23640, Note_on_c, 0, 86, 42
1, 23640, Note_on_c, 0, 55, 40
1, 23672, Note_on_c, 0, 86, 0
1, 23680, Note_on_c, 0, 83, 47
1, 23712, Note_on_c, 0, 83, 0
1, 23720, Note_on_c, 0, 77, 43
1, 23736, Note_on_c, 0, 55, 0
1, 23752, Note_on_c, 0, 77, 0
1, 23760, Note_on_c, 0, 60, 42
1, 23760, Note_on_c, 0, 76, 58
1, 23792, Note_on_c, 0, 76, 0
1, 23800, Note_on_c, 0, 84, 42
1, 23832, Note_on_c, 0, 84, 0
1, 23840, Note_on_c, 0, 84, 52
1, 23856, Note_on_c, 0, 60, 0
1, 23872, Note_on_c, 0, 84, 0
1, 23880, Note_on_c, 0, 64, 42
1, 23880, Note_on_c, 0, 84, 58
1, 23912, Note_on_c, 0, 84, 0
1, 23920, Note_on_c, 0, 79, 50
1, 23952, Note_on_c, 0, 79, 0
1, 23960, Note_on_c, 0, 76, 58
1, 23976, Note_on_c, 0, 64, 0
1, 23992, Note_on_c, 0, 76, 0
1, 24000, Note_on_c, 0, 65, 45
1, 24000, Note_on_c, 0, 81, 54
1, 24032, Note_on_c, 0, 81, 0
1, 24040, Note_on_c, 0, 79, 43
1, 24072, Note_on_c, 0, 79, 0
1, 24080, Note_on_c, 0, 77, 54
1, 24096, Note_on_c, 0, 65, 0
1, 24112, Note_on_c, 0, 77, 0
1, 24120, Note_on_c, 0, 76, 50
1, 24120, Note_on_c, 0, 69, 42
1, 24152, Note_on_c, 0, 76, 0
1, 24160, Note_on_c, 0, 74, 47
1, 24192, Note_on_c, 0, 74, 0
1, 24200, Note_on_c, 0, 72, 42
1, 24216, Note_on_c, 0, 69, 0
1, 24232, Note_on_c, 0, 72, 0
1, 24240, Note_on_c, 0, 76, 47
1, 24240, Note_on_c, 0, 67, 46
1, 24246, Note_on_c, 0, 76, 0
1, 24247, Note_on_c, 0, 74, 36
1, 24253, Note_on_c, 0, 74, 0
1, 24254, Note_on_c, 0, 76, 42
1, 24260, Note_on_c, 0, 76, 0
1, 24261, Note_on_c, 0, 74, 42
1, 24267, Note_on_c, 0, 74, 0
1, 24268, Note_on_c, 0, 76, 44
1, 24274, Note_on_c, 0, 76, 0
1, 24275, Note_on_c, 0, 74, 42
1, 24281, Note_on_c, 0, 74, 0
1, 24282, Note_on_c, 0, 76, 44
1, 24288, Note_on_c, 0, 76, 0
1, 24289, Note_on_c, 0, 74, 42
1, 24295, Note_on_c, 0, 74, 0
1, 24296, Note_on_c, 0, 76, 52
1, 24302, Note_on_c, 0, 76, 0
1, 24303, Note_on_c, 0, 74, 45
1, 24309, Note_on_c, 0, 74, 0
1, 24310, Note_on_c, 0, 76, 50
1, 24316, Note_on_c, 0, 76, 0
1, 24317, Note_on_c, 0, 74, 42
1, 24323, Note_on_c, 0, 74, 0
1, 24324, Note_on_c, 0, 76, 50
1, 24330, Note_on_c, 0, 76, 0
1, 24331, Note_on_c, 0, 74, 44
1, 24336, Note_on_c, 0, 67, 0
1, 24337, Note_on_c, 0, 74, 0
1, 24338, Note_on_c, 0, 76, 45
1, 24344, Note_on_c, 0, 76, 0
1, 24345, Note_on_c, 0, 74, 44
1, 24351, Note_on_c, 0, 74, 0
1, 24352, Note_on_c, 0, 76, 52
1, 24358, Note_on_c, 0, 76, 0
1, 24359, Note_on_c, 0, 74, 43
1, 24360, Note_on_c, 0, 55, 42
1, 24365, Note_on_c, 0, 74, 0
1, 24366, Note_on_c, 0, 76, 44
1, 24372, Note_on_c, 0, 76, 0
1, 24373, Note_on_c, 0, 74, 42
1, 24379, Note_on_c, 0, 74, 0
1, 24380, Note_on_c, 0, 76, 42
1, 24386, Note_on_c, 0, 76, 0
1, 24387, Note_on_c, 0, 74, 42
1, 24393, Note_on_c, 0, 74, 0
1, 24394, Note_on_c, 0, 76, 42
1, 24400, Note_on_c, 0, 76, 0
1, 24401, Note_on_c, 0, 74, 44
1, 24407, Note_on_c, 0, 74, 0
1, 24408, Note_on_c, 0, 76, 50
1, 24414, Note_on_c, 0, 76, 0
1, 24415, Note_on_c, 0, 74, 42
1, 24421, Note_on_c, 0, 74, 0
1, 24422, Note_on_c, 0, 76, 43
1, 24428, Note_on_c, 0, 76, 0
1, 24429, Note_on_c, 0, 74, 42
1, 24435, Note_on_c, 0, 74, 0
1, 24436, Note_on_c, 0, 76, 42
1, 24442, Note_on_c, 0, 76, 0
1, 24443, Note_on_c, 0, 74, 44
1, 24449, Note_on_c, 0, 74, 0
1, 24450, Note_on_c, 0, 76, 52
1, 24456, Note_on_c, 0, 76, 0
1, 24456, Note_on_c, 0, 55, 0
1, 24457, Note_on_c, 0, 74, 43
1, 24463, Note_on_c, 0, 74, 0
1, 24464, Note_on_c, 0, 72, 43
1, 24470, Note_on_c, 0, 72, 0
1, 24471, Note_on_c, 0, 74, 36
1, 24477, Note_on_c, 0, 74, 0
1, 24478, Note_on_c, 0, 72, 52
1, 24480, Note_on_c, 0, 60, 43
1, 24576, Note_on_c, 0, 60, 0
1, 24600, Note_on_c, 0, 55, 43
1, 24670, Note_on_c, 0, 72, 0
1, 24696, Note_on_c, 0, 55, 0
1, 24720, Note_on_c, 0, 48, 44
1, 24816, Note_on_c, 0, 48, 0
1, 24838, Note_on_c, 0, 62, 42
1, 24934, Note_on_c, 0, 62, 0
1, 24960, Note_on_c, 0, 55, 45
1, 24960, Note_on_c, 0, 59, 45
1, 24960, Note_on_c, 0, 67, 58
1, 24992, Note_on_c, 0, 67, 0
1, 25000, Note_on_c, 0, 71, 71
1, 25032, Note_on_c, 0, 71, 0
1, 25040, Note_on_c, 0, 69, 54
1, 25056, Note_on_c, 0, 59, 0
1, 25056, Note_on_c, 0, 55, 0
1, 25072, Note_on_c, 0, 69, 0
1, 25080, Note_on_c, 0, 55, 42
1, 25080, Note_on_c, 0, 67, 44
1, 25080, Note_on_c, 0, 59, 32
1, 25176, Note_on_c, 0, 59, 0
1, 25176, Note_on_c, 0, 55, 0
1, 25192, Note_on_c, 0, 67, 0
1, 25200, Note_on_c, 0, 59, 43
1, 25200, Note_on_c, 0, 55, 42
1, 25200, Note_on_c, 0, 71, 54
1, 25232, Note_on_c, 0, 71, 0
1, 25240, Note_on_c, 0, 74, 58
1, 25272, Note_on_c, 0, 74, 0
1, 25280, Note_on_c, 0, 72, 66
1, 25296, Note_on_c, 0, 55, 0
1, 25296, Note_on_c, 0, 59, 0
1, 25312, Note_on_c, 0, 72, 0
1, 25320, Note_on_c, 0, 71, 58
1, 25320, Note_on_c, 0, 55, 42
1, 25320, Note_on_c, 0, 59, 42
1, 25352, Note_on_c, 0, 71, 0
1, 25360, Note_on_c, 0, 67, 61
1, 25392, Note_on_c, 0, 67, 0
1, 25400, Note_on_c, 0, 74, 45
1, 25416, Note_on_c, 0, 59, 0
1, 25416, Note_on_c, 0, 55, 0
1, 25432, Note_on_c, 0, 74, 0
1, 25440, Note_on_c, 0, 55, 50
1, 25440, Note_on_c, 0, 76, 57
1, 25440, Note_on_c, 0, 60, 42
1, 25472, Note_on_c, 0, 76, 0
1, 25480, Note_on_c, 0, 79, 44
1, 25512, Note_on_c, 0, 79, 0
1, 25520, Note_on_c, 0, 76, 66
1, 25536, Note_on_c, 0, 60, 0
1, 25536, Note_on_c, 0, 55, 0
1, 25552, Note_on_c, 0, 76, 0
1, 25560, Note_on_c, 0, 59, 42
1, 25560, Note_on_c, 0, 55, 42
1, 25560, Note_on_c, 0, 74, 50
1, 25656, Note_on_c, 0, 55, 0
1, 25656, Note_on_c, 0, 59, 0
1, 25672, Note_on_c, 0, 74, 0
1, 25680, Note_on_c, 0, 59, 42
1, 25680, Note_on_c, 0, 55, 42
1, 25680, Note_on_c, 0, 71, 43
1, 25712, Note_on_c, 0, 71, 0
1, 25720, Note_on_c, 0, 74, 58
1, 25752, Note_on_c, 0, 74, 0
1, 25760, Note_on_c, 0, 72, 52
1, 25776, Note_on_c, 0, 55, 0
1, 25776, Note_on_c, 0, 59, 0
1, 25792, Note_on_c, 0, 72, 0
1, 25800, Note_on_c, 0, 55, 47
1, 25800, Note_on_c, 0, 59, 50
1, 25800, Note_on_c, 0, 71, 71
1, 25832, Note_on_c, 0, 71, 0
1, 25840, Note_on_c, 0, 67, 61
1, 25872, Note_on_c, 0, 67, 0
1, 25880, Note_on_c, 0, 74, 77
1, 25896, Note_on_c, 0, 59, 0
1, 25896, Note_on_c, 0, 55, 0
1, 25912, Note_on_c, 0, 74, 0
1, 25920, Note_on_c, 0, 76, 66
1, 25920, Note_on_c, 0, 60, 47
1, 25952, Note_on_c, 0, 76, 0
1, 25960, Note_on_c, 0, 78, 54
1, 25992, Note_on_c, 0, 78, 0
1, 26000, Note_on_c, 0, 79, 61
1, 26016, Note_on_c, 0, 60, 0
1, 26032, Note_on_c, 0, 79, 0
1, 26040, Note_on_c, 0, 59, 42
1, 26040, Note_on_c, 0, 74, 54
1, 26072, Note_on_c, 0, 74, 0
1, 26080, Note_on_c, 0, 78, 47
1, 26112, Note_on_c, 0, 78, 0
1, 26120, Note_on_c, 0, 79, 54
1, 26136, Note_on_c, 0, 59, 0
1, 26152, Note_on_c, 0, 79, 0
1, 26160, Note_on_c, 0, 57, 50
1, 26160, Note_on_c, 0, 74, 47
1, 26166, Note_on_c, 0, 74, 0
1, 26167, Note_on_c, 0, 72, 36
1, 26173, Note_on_c, 0, 72, 0
1, 26174, Note_on_c, 0, 74, 42
1, 26180, Note_on_c, 0, 74, 0
1, 26181, Note_on_c, 0, 72, 42
1, 26187, Note_on_c, 0, 72, 0
1, 26188, Note_on_c, 0, 74, 44
1, 26194, Note_on_c, 0, 74, 0
1, 26195, Note_on_c, 0, 72, 42
1, 26201, Note_on_c, 0, 72, 0
1, 26202, Note_on_c, 0, 74, 44
1, 26208, Note_on_c, 0, 74, 0
1, 26209, Note_on_c, 0, 72, 42
1, 26215, Note_on_c, 0, 72, 0
1, 26216, Note_on_c, 0, 74, 52
1, 26222, Note_on_c, 0, 74, 0
1, 26223, Note_on_c, 0, 72, 45
1, 26229, Note_on_c, 0, 72, 0
1, 26230, Note_on_c, 0, 74, 50
1, 26236, Note_on_c, 0, 74, 0
1, 26237, Note_on_c, 0, 72, 42
1, 26243, Note_on_c, 0, 72, 0
1, 26244, Note_on_c, 0, 74, 50
1, 26250, Note_on_c, 0, 74, 0
1, 26251, Note_on_c, 0, 72, 44
1, 26256, Note_on_c, 0, 57, 0
1, 26257, Note_on_c, 0, 72, 0
1, 26258, Note_on_c, 0, 74, 45
1, 26264, Note_on_c, 0, 74, 0
1, 26265, Note_on_c, 0, 72, 44
1, 26271, Note_on_c, 0, 72, 0
1, 26272, Note_on_c, 0, 74, 52
1, 26278, Note_on_c, 0, 74, 0
1, 26279, Note_on_c, 0, 72, 43
1, 26280, Note_on_c, 0, 50, 42
1, 26285, Note_on_c, 0, 72, 0
1, 26286, Note_on_c, 0, 74, 44
1, 26292, Note_on_c, 0, 74, 0
1, 26293, Note_on_c, 0, 72, 42
1, 26299, Note_on_c, 0, 72, 0
1, 26300, Note_on_c, 0, 74, 42
1, 26306, Note_on_c, 0, 74, 0
1, 26307, Note_on_c, 0, 72, 42
1, 26313, Note_on_c, 0, 72, 0
1, 26314, Note_on_c, 0, 74, 42
1, 26320, Note_on_c, 0, 74, 0
1, 26321, Note_on_c, 0, 72, 44
1, 26327, Note_on_c, 0, 72, 0
1, 26328, Note_on_c, 0, 74, 50
1, 26334, Note_on_c, 0, 74, 0
1, 26335, Note_on_c, 0, 72, 42
1, 26341, Note_on_c, 0, 72, 0
1, 26342, Note_on_c, 0, 74, 43
1, 26348, Note_on_c, 0, 74, 0
1, 26349, Note_on_c, 0, 72, 42
1, 26355, Note_on_c, 0, 72, 0
1, 26356, Note_on_c, 0, 74, 42
1, 26362, Note_on_c, 0, 74, 0
1, 26363, Note_on_c, 0, 72, 44
1, 26369, Note_on_c, 0, 72, 0
1, 26370, Note_on_c, 0, 74, 52
1, 26376, Note_on_c, 0, 74, 0
1, 26376, Note_on_c, 0, 50, 0
1, 26377, Note_on_c, 0, 72, 43
1, 26383, Note_on_c, 0, 72, 0
1, 26384, Note_on_c, 0, 71, 43
1, 26390, Note_on_c, 0, 71, 0
1, 26391, Note_on_c, 0, 72, 36
1, 26397, Note_on_c, 0, 72, 0
1, 26398, Note_on_c, 0, 71, 52
1, 26400, Note_on_c, 0, 55, 36
1, 26496, Note_on_c, 0, 55, 0
1, 26520, Note_on_c, 0, 50, 38
1, 26590, Note_on_c, 0, 71, 0
1, 26616, Note_on_c, 0, 50, 0
1, 26640, Note_on_c, 0, 43, 29
1, 26736, Note_on_c, 0, 43, 0
1, 26758, Note_on_c, 0, 67, 45
1, 26854, Note_on_c, 0, 67, 0
1, 26880, Note_on_c, 0, 64, 44
1, 26880, Note_on_c, 0, 60, 61
1, 26880, Note_on_c, 0, 72, 42
1, 26912, Note_on_c, 0, 72, 0
1, 26920, Note_on_c, 0, 76, 66
1, 26952, Note_on_c, 0, 76, 0
1, 26960, Note_on_c, 0, 74, 50
1, 26976, Note_on_c, 0, 60, 0
1, 26976, Note_on_c, 0, 64, 0
1, 26992, Note_on_c, 0, 74, 0
1, 27000, Note_on_c, 0, 60, 40
1, 27000, Note_on_c, 0, 72, 47
1, 27000, Note_on_c, 0, 64, 42
1, 27032, Note_on_c, 0, 72, 0
1, 27040, Note_on_c, 0, 72, 44
1, 27072, Note_on_c, 0, 72, 0
1, 27080, Note_on_c, 0, 72, 42
1, 27096, Note_on_c, 0, 64, 0
1, 27096, Note_on_c, 0, 60, 0
1, 27112, Note_on_c, 0, 72, 0
1, 27120, Note_on_c, 0, 64, 42
1, 27120, Note_on_c, 0, 60, 44
1, 27120, Note_on_c, 0, 72, 42
1, 27152, Note_on_c, 0, 72, 0
1, 27160, Note_on_c, 0, 76, 52
1, 27192, Note_on_c, 0, 76, 0
1, 27200, Note_on_c, 0, 77, 47
1, 27216, Note_on_c, 0, 60, 0
1, 27216, Note_on_c, 0, 64, 0
1, 27232, Note_on_c, 0, 77, 0
1, 27240, Note_on_c, 0, 60, 45
1, 27240, Note_on_c, 0, 64, 50
1, 27240, Note_on_c, 0, 79, 43
1, 27272, Note_on_c, 0, 79, 0
1, 27280, Note_on_c, 0, 77, 42
1, 27312, Note_on_c, 0, 77, 0
1, 27320, Note_on_c, 0, 76, 57
1, 27336, Note_on_c, 0, 64, 0
1, 27336, Note_on_c, 0, 60, 0
1, 27352, Note_on_c, 0, 76, 0
1, 27360, Note_on_c, 0, 84, 50
1, 27360, Note_on_c, 0, 58, 42
1, 27360, Note_on_c, 0, 67, 42
1, 27392, Note_on_c, 0, 84, 0
1, 27400, Note_on_c, 0, 79, 42
1, 27432, Note_on_c, 0, 79, 0
1, 27440, Note_on_c, 0, 76, 42
1, 27456, Note_on_c, 0, 67, 0
1, 27456, Note_on_c, 0, 58, 0
1, 27472, Note_on_c, 0, 76, 0
1, 27480, Note_on_c, 0, 58, 42
1, 27480, Note_on_c, 0, 67, 42
1, 27480, Note_on_c, 0, 84, 50
1, 27512, Note_on_c, 0, 84, 0
1, 27520, Note_on_c, 0, 79, 43
1, 27552, Note_on_c, 0, 79, 0
1, 27560, Note_on_c, 0, 76, 54
1, 27576, Note_on_c, 0, 67, 0
1, 27576, Note_on_c, 0, 58, 0
1, 27592, Note_on_c, 0, 76, 0
1, 27600, Note_on_c, 0, 58, 42
1, 27600, Note_on_c, 0, 67, 39
1, 27600, Note_on_c, 0, 84, 54
1, 27632, Note_on_c, 0, 84, 0
1, 27640, Note_on_c, 0, 76, 45
1, 27672, Note_on_c, 0, 76, 0
1, 27680, Note_on_c, 0, 77, 43
1, 27696, Note_on_c, 0, 67, 0
1, 27696, Note_on_c, 0, 58, 0
1, 27712, Note_on_c, 0, 77, 0
1, 27720, Note_on_c, 0, 58, 1
1, 27720, Note_on_c, 0, 67, 1
1, 27720, Note_on_c, 0, 79, 47
1, 27752, Note_on_c, 0, 79, 0
1, 27760, Note_on_c, 0, 77, 42
1, 27792, Note_on_c, 0, 77, 0
1, 27800, Note_on_c, 0, 76, 45
1, 27816, Note_on_c, 0, 67, 0
1, 27816, Note_on_c, 0, 58, 0
1, 27832, Note_on_c, 0, 76, 0
1, 27840, Note_on_c, 0, 65, 1
1, 27840, Note_on_c, 0, 84, 52
1, 27840, Note_on_c, 0, 57, 45
1, 27872, Note_on_c, 0, 84, 0
1, 27880, Note_on_c, 0, 81, 45
1, 27912, Note_on_c, 0, 81, 0
1, 27920, Note_on_c, 0, 77, 47
1, 27936, Note_on_c, 0, 57, 0
1, 27936, Note_on_c, 0, 65, 0
1, 27952, Note_on_c, 0, 77, 0
1, 27960, Note_on_c, 0, 65, 42
1, 27960, Note_on_c, 0, 57, 42
1, 27960, Note_on_c, 0, 84, 61
1, 27992, Note_on_c, 0, 84, 0
1, 28000, Note_on_c, 0, 81, 58
1, 28032, Note_on_c, 0, 81, 0
1, 28040, Note_on_c, 0, 77, 45
1, 28056, Note_on_c, 0, 57, 0
1, 28056, Note_on_c, 0, 65, 0
1, 28072, Note_on_c, 0, 77, 0
1, 28080, Note_on_c, 0, 65, 30
1, 28080, Note_on_c, 0, 84, 54
1, 28080, Note_on_c, 0, 57, 42
1, 28112, Note_on_c, 0, 84, 0
1, 28120, Note_on_c, 0, 77, 61
1, 28152, Note_on_c, 0, 77, 0
1, 28160, Note_on_c, 0, 79, 45
1, 28176, Note_on_c, 0, 57, 0
1, 28176, Note_on_c, 0, 65, 0
1, 28192, Note_on_c, 0, 79, 0
1, 28200, Note_on_c, 0, 65, 42
1, 28200, Note_on_c, 0, 81, 52
1, 28200, Note_on_c, 0, 57, 42
1, 28232, Note_on_c, 0, 81, 0
1, 28240, Note_on_c, 0, 79, 47
1, 28272, Note_on_c, 0, 79, 0
1, 28280, Note_on_c, 0, 77, 45
1, 28296, Note_on_c, 0, 57, 0
1, 28296, Note_on_c, 0, 65, 0
1, 28312, Note_on_c, 0, 77, 0
1, 28320, Note_on_c, 0, 60, 42
1, 28320, Note_on_c, 0, 52, 42
1, 28320, Note_on_c, 0, 84, 45
1, 28352, Note_on_c, 0, 84, 0
1, 28360, Note_on_c, 0, 82, 40
1, 28392, Note_on_c, 0, 82, 0
1, 28400, Note_on_c, 0, 79, 42
1, 28416, Note_on_c, 0, 52, 0
1, 28416, Note_on_c, 0, 60, 0
1, 28432, Note_on_c, 0, 79, 0
1, 28440, Note_on_c, 0, 60, 42
1, 28440, Note_on_c, 0, 52, 42
1, 28440, Note_on_c, 0, 84, 42
1, 28472, Note_on_c, 0, 84, 0
1, 28480, Note_on_c, 0, 82, 42
1, 28512, Note_on_c, 0, 82, 0
1, 28520, Note_on_c, 0, 79, 46
1, 28536, Note_on_c, 0, 52, 0
1, 28536, Note_on_c, 0, 60, 0
1, 28552, Note_on_c, 0, 79, 0
1, 28560, Note_on_c, 0, 84, 43
1, 28560, Note_on_c, 0, 60, 42
1, 28560, Note_on_c, 0, 52, 42
1, 28592, Note_on_c, 0, 84, 0
1, 28600, Note_on_c, 0, 79, 45
1, 28632, Note_on_c, 0, 79, 0
1, 28640, Note_on_c, 0, 81, 42
1, 28656, Note_on_c, 0, 52, 0
1, 28656, Note_on_c, 0, 60, 0
1, 28672, Note_on_c, 0, 81, 0
1, 28680, Note_on_c, 0, 82, 42
1, 28680, Note_on_c, 0, 60, 29
1, 28680, Note_on_c, 0, 52, 42
1, 28712, Note_on_c, 0, 82, 0
1, 28720, Note_on_c, 0, 81, 42
1, 28752, Note_on_c, 0, 81, 0
1, 28760, Note_on_c, 0, 79, 43
1, 28776, Note_on_c, 0, 52, 0
1, 28776, Note_on_c, 0, 60, 0
1, 28792, Note_on_c, 0, 79, 0
1, 28800, Note_on_c, 0, 81, 58
1, 28800, Note_on_c, 0, 60, 1
1, 28800, Note_on_c, 0, 53, 42
1, 28832, Note_on_c, 0, 81, 0
1, 28840, Note_on_c, 0, 81, 42
1, 28872, Note_on_c, 0, 81, 0
1, 28880, Note_on_c, 0, 81, 44
1, 28896, Note_on_c, 0, 53, 0
1, 28896, Note_on_c, 0, 60, 0
1, 28912, Note_on_c, 0, 81, 0
1, 28920, Note_on_c, 0, 60, 23
1, 28920, Note_on_c, 0, 81, 58
1, 28920, Note_on_c, 0, 53, 42
1, 28952, Note_on_c, 0, 81, 0
1, 28960, Note_on_c, 0, 81, 50
1, 28992, Note_on_c, 0, 81, 0
1, 29000, Note_on_c, 0, 81, 47
1, 29016, Note_on_c, 0, 53, 0
1, 29016, Note_on_c, 0, 60, 0
1, 29032, Note_on_c, 0, 81, 0
1, 29040, Note_on_c, 0, 81, 45
1, 29040, Note_on_c, 0, 53, 29
1, 29040, Note_on_c, 0, 60, 42
1, 29072, Note_on_c, 0, 81, 0
1, 29080, Note_on_c, 0, 79, 50
1, 29112, Note_on_c, 0, 79, 0
1, 29120, Note_on_c, 0, 77, 50
1, 29136, Note_on_c, 0, 60, 0
1, 29136, Note_on_c, 0, 53, 0
1, 29152, Note_on_c, 0, 77, 0
1, 29160, Note_on_c, 0, 62, 42
1, 29160, Note_on_c, 0, 76, 58
1, 29160, Note_on_c, 0, 54, 42
1, 29192, Note_on_c, 0, 76, 0
1, 29200, Note_on_c, 0, 74, 58
1, 29232, Note_on_c, 0, 74, 0
1, 29240, Note_on_c, 0, 72, 44
1, 29256, Note_on_c, 0, 54, 0
1, 29256, Note_on_c, 0, 62, 0
1, 29272, Note_on_c, 0, 72, 0
1, 29280, Note_on_c, 0, 55, 43
1, 29280, Note_on_c, 0, 62, 42
1, 29280, Note_on_c, 0, 74, 66
1, 29286, Note_on_c, 0, 74, 0
1, 29287, Note_on_c, 0, 72, 42
1, 29293, Note_on_c, 0, 72, 0
1, 29294, Note_on_c, 0, 72, 45
1, 29300, Note_on_c, 0, 72, 0
1, 29301, Note_on_c, 0, 72, 40
1, 29307, Note_on_c, 0, 72, 0
1, 29308, Note_on_c, 0, 74, 50
1, 29314, Note_on_c, 0, 74, 0
1, 29315, Note_on_c, 0, 72, 54
1, 29321, Note_on_c, 0, 72, 0
1, 29322, Note_on_c, 0, 74, 47
1, 29328, Note_on_c, 0, 74, 0
1, 29329, Note_on_c, 0, 72, 47
1, 29335, Note_on_c, 0, 72, 0
1, 29336, Note_on_c, 0, 74, 52
1, 29342, Note_on_c, 0, 74, 0
1, 29343, Note_on_c, 0, 72, 44
1, 29349, Note_on_c, 0, 72, 0
1, 29350, Note_on_c, 0, 74, 61
1, 29356, Note_on_c, 0, 74, 0
1, 29357, Note_on_c, 0, 72, 45
1, 29363, Note_on_c, 0, 72, 0
1, 29364, Note_on_c, 0, 74, 45
1, 29370, Note_on_c, 0, 74, 0
1, 29371, Note_on_c, 0, 72, 42
1, 29376, Note_on_c, 0, 62, 0
1, 29376, Note_on_c, 0, 55, 0
1, 29377, Note_on_c, 0, 72, 0
1, 29378, Note_on_c, 0, 71, 58
1, 29384, Note_on_c, 0, 71, 0
1, 29385, Note_on_c, 0, 72, 43
1, 29391, Note_on_c, 0, 72, 0
1, 29392, Note_on_c, 0, 71, 80
1, 29400, Note_on_c, 0, 55, 42
1, 29400, Note_on_c, 0, 62, 40
1, 29488, Note_on_c, 0, 71, 0
1, 29496, Note_on_c, 0, 62, 0
1, 29496, Note_on_c, 0, 55, 0
1, 29520, Note_on_c, 0, 62, 41
1, 29520, Note_on_c, 0, 55, 42
1, 29632, Note_on_c, 0, 79, 42
1, 29712, Note_on_c, 0, 55, 0
1, 29712, Note_on_c, 0, 62, 0
1, 29728, Note_on_c, 0, 79, 0
1, 29760, Note_on_c, 0, 77, 55
1, 29760, Note_on_c, 0, 55, 66
1, 29760, Note_on_c, 0, 59, 42
1, 29792, Note_on_c, 0, 77, 0
1, 29800, Note_on_c, 0, 76, 42
1, 29832, Note_on_c, 0, 76, 0
1, 29840, Note_on_c, 0, 74, 43
1, 29856, Note_on_c, 0, 59, 0
1, 29856, Note_on_c, 0, 55, 0
1, 29872, Note_on_c, 0, 74, 0
1, 29880, Note_on_c, 0, 55, 42
1, 29880, Note_on_c, 0, 72, 47
1, 29880, Note_on_c, 0, 59, 1
1, 29912, Note_on_c, 0, 72, 0
1, 29920, Note_on_c, 0, 71, 61
1, 29952, Note_on_c, 0, 71, 0
1, 29960, Note_on_c, 0, 69, 58
1, 29976, Note_on_c, 0, 59, 0
1, 29976, Note_on_c, 0, 55, 0
1, 29992, Note_on_c, 0, 69, 0
1, 30000, Note_on_c, 0, 55, 42
1, 30000, Note_on_c, 0, 67, 54
1, 30000, Note_on_c, 0, 59, 1
1, 30032, Note_on_c, 0, 67, 0
1, 30040, Note_on_c, 0, 74, 69
1, 30072, Note_on_c, 0, 74, 0
1, 30080, Note_on_c, 0, 76, 69
1, 30096, Note_on_c, 0, 59, 0
1, 30096, Note_on_c, 0, 55, 0
1, 30112, Note_on_c, 0, 76, 0
1, 30120, Note_on_c, 0, 59, 31
1, 30120, Note_on_c, 0, 55, 42
1, 30120, Note_on_c, 0, 77, 42
1, 30152, Note_on_c, 0, 77, 0
1, 30160, Note_on_c, 0, 76, 42
1, 30192, Note_on_c, 0, 76, 0
1, 30200, Note_on_c, 0, 74, 43
1, 30216, Note_on_c, 0, 55, 0
1, 30216, Note_on_c, 0, 59, 0
1, 30232, Note_on_c, 0, 74, 0
1, 30240, Note_on_c, 0, 76, 52
1, 30240, Note_on_c, 0, 60, 43
1, 30272, Note_on_c, 0, 76, 0
1, 30280, Note_on_c, 0, 74, 52
1, 30312, Note_on_c, 0, 74, 0
1, 30320, Note_on_c, 0, 72, 45
1, 30352, Note_on_c, 0, 72, 0
1, 30360, Note_on_c, 0, 79, 58
1, 30392, Note_on_c, 0, 79, 0
1, 30400, Note_on_c, 0, 77, 61
1, 30432, Note_on_c, 0, 77, 0
1, 30432, Note_on_c, 0, 60, 0
1, 30440, Note_on_c, 0, 76, 45
1, 30472, Note_on_c, 0, 76, 0
1, 30480, Note_on_c, 0, 84, 47
1, 30576, Note_on_c, 0, 84, 0
1, 30600, Note_on_c, 0, 79, 50
1, 30696, Note_on_c, 0, 79, 0
1, 30720, Note_on_c, 0, 59, 42
1, 30720, Note_on_c, 0, 55, 66
1, 30720, Note_on_c, 0, 77, 55
1, 30752, Note_on_c, 0, 77, 0
1, 30760, Note_on_c, 0, 76, 42
1, 30792, Note_on_c, 0, 76, 0
1, 30800, Note_on_c, 0, 74, 43
1, 30816, Note_on_c, 0, 55, 0
1, 30816, Note_on_c, 0, 59, 0
1, 30832, Note_on_c, 0, 74, 0
1, 30840, Note_on_c, 0, 72, 47
1, 30840, Note_on_c, 0, 59, 1
1, 30840, Note_on_c, 0, 55, 42
1, 30872, Note_on_c, 0, 72, 0
1, 30880, Note_on_c, 0, 71, 61
1, 30912, Note_on_c, 0, 71, 0
1, 30920, Note_on_c, 0, 69, 58
1, 30936, Note_on_c, 0, 55, 0
1, 30936, Note_on_c, 0, 59, 0
1, 30952, Note_on_c, 0, 69, 0
1, 30960, Note_on_c, 0, 59, 1
1, 30960, Note_on_c, 0, 55, 42
1, 30960, Note_on_c, 0, 67, 54
1, 30992, Note_on_c, 0, 67, 0
1, 31000, Note_on_c, 0, 74, 69
1, 31032, Note_on_c, 0, 74, 0
1, 31040, Note_on_c, 0, 76, 69
1, 31056, Note_on_c, 0, 55, 0
1, 31056, Note_on_c, 0, 59, 0
1, 31072, Note_on_c, 0, 76, 0
1, 31080, Note_on_c, 0, 77, 42
1, 31080, Note_on_c, 0, 55, 42
1, 31080, Note_on_c, 0, 59, 31
1, 31112, Note_on_c, 0, 77, 0
1, 31120, Note_on_c, 0, 76, 42
1, 31152, Note_on_c, 0, 76, 0
1, 31160, Note_on_c, 0, 74, 43
1, 31176, Note_on_c, 0, 59, 0
1, 31176, Note_on_c, 0, 55, 0
1, 31192, Note_on_c, 0, 74, 0
1, 31200, Note_on_c, 0, 60, 43
1, 31200, Note_on_c, 0, 76, 52
1, 31232, Note_on_c, 0, 76, 0
1, 31240, Note_on_c, 0, 74, 52
1, 31272, Note_on_c, 0, 74, 0
1, 31280, Note_on_c, 0, 72, 45
1, 31312, Note_on_c, 0, 72, 0
1, 31320, Note_on_c, 0, 79, 58
1, 31352, Note_on_c, 0, 79, 0
1, 31360, Note_on_c, 0, 77, 61
1, 31392, Note_on_c, 0, 77, 0
1, 31392, Note_on_c, 0, 60, 0
1, 31400, Note_on_c, 0, 76, 45
1, 31432, Note_on_c, 0, 76, 0
1, 31440, Note_on_c, 0, 84, 47
1, 31536, Note_on_c, 0, 84, 0
1, 31560, Note_on_c, 0, 64, 42
1, 31560, Note_on_c, 0, 79, 50
1, 31656, Note_on_c, 0, 79, 0
1, 31656, Note_on_c, 0, 64, 0
1, 31680, Note_on_c, 0, 65, 31
1, 31680, Note_on_c, 0, 81, 42
1, 31712, Note_on_c, 0, 81, 0
1, 31720, Note_on_c, 0, 73, 47
1, 31752, Note_on_c, 0, 73, 0
1, 31760, Note_on_c, 0, 74, 54
1, 31776, Note_on_c, 0, 65, 0
1, 31792, Note_on_c, 0, 74, 0
1, 31800, Note_on_c, 0, 77, 43
1, 31800, Note_on_c, 0, 62, 47
1, 31832, Note_on_c, 0, 77, 0
1, 31840, Note_on_c, 0, 79, 42
1, 31872, Note_on_c, 0, 79, 0
1, 31880, Note_on_c, 0, 81, 43
1, 31896, Note_on_c, 0, 62, 0
1, 31912, Note_on_c, 0, 81, 0
1, 31920, Note_on_c, 0, 64, 47
1, 31920, Note_on_c, 0, 79, 52
1, 31952, Note_on_c, 0, 79, 0
1, 31960, Note_on_c, 0, 71, 54
1, 31992, Note_on_c, 0, 71, 0
1, 32000, Note_on_c, 0, 72, 58
1, 32016, Note_on_c, 0, 64, 0
1, 32032, Note_on_c, 0, 72, 0
1, 32040, Note_on_c, 0, 76, 45
1, 32040, Note_on_c, 0, 60, 42
1, 32072, Note_on_c, 0, 76, 0
1, 32080, Note_on_c, 0, 77, 52
1, 32112, Note_on_c, 0, 77, 0
1, 32120, Note_on_c, 0, 79, 44
1, 32136, Note_on_c, 0, 60, 0
1, 32152, Note_on_c, 0, 79, 0
1, 32160, Note_on_c, 0, 62, 38
1, 32160, Note_on_c, 0, 77, 52
1, 32192, Note_on_c, 0, 77, 0
1, 32200, Note_on_c, 0, 76, 61
1, 32232, Note_on_c, 0, 76, 0
1, 32240, Note_on_c, 0, 77, 47
1, 32256, Note_on_c, 0, 62, 0
1, 32272, Note_on_c, 0, 77, 0
1, 32280, Note_on_c, 0, 86, 42
1, 32280, Note_on_c, 0, 55, 40
1, 32312, Note_on_c, 0, 86, 0
1, 32320, Note_on_c, 0, 83, 47
1, 32352, Note_on_c, 0, 83, 0
1, 32360, Note_on_c, 0, 77, 43
1, 32376, Note_on_c, 0, 55, 0
1, 32392, Note_on_c, 0, 77, 0
1, 32400, Note_on_c, 0, 60, 42
1, 32400, Note_on_c, 0, 76, 58
1, 32432, Note_on_c, 0, 76, 0
1, 32440, Note_on_c, 0, 84, 42
1, 32472, Note_on_c, 0, 84, 0
1, 32480, Note_on_c, 0, 84, 52
1, 32496, Note_on_c, 0, 60, 0
1, 32512, Note_on_c, 0, 84, 0
1, 32520, Note_on_c, 0, 64, 42
1, 32520, Note_on_c, 0, 84, 58
1, 32552, Note_on_c, 0, 84, 0
1, 32560, Note_on_c, 0, 79, 50
1, 32592, Note_on_c, 0, 79, 0
1, 32600, Note_on_c, 0, 76, 58
1, 32616, Note_on_c, 0, 64, 0
1, 32632, Note_on_c, 0, 76, 0
1, 32640, Note_on_c, 0, 81, 54
1, 32640, Note_on_c, 0, 65, 42
1, 32672, Note_on_c, 0, 81, 0
1, 32680, Note_on_c, 0, 79, 43
1, 32712, Note_on_c, 0, 79, 0
1, 32720, Note_on_c, 0, 77, 54
1, 32736, Note_on_c, 0, 65, 0
1, 32752, Note_on_c, 0, 77, 0
1, 32760, Note_on_c, 0, 69, 1
1, 32760, Note_on_c, 0, 76, 50
1, 32792, Note_on_c, 0, 76, 0
1, 32800, Note_on_c, 0, 74, 47
1, 32832, Note_on_c, 0, 74, 0
1, 32840, Note_on_c, 0, 72, 42
1, 32856, Note_on_c, 0, 69, 0
1, 32872, Note_on_c, 0, 72, 0
1, 32880, Note_on_c, 0, 67, 42
1, 32880, Note_on_c, 0, 76, 47
1, 32886, Note_on_c, 0, 76, 0
1, 32887, Note_on_c, 0, 74, 36
1, 32893, Note_on_c, 0, 74, 0
1, 32894, Note_on_c, 0, 76, 42
1, 32900, Note_on_c, 0, 76, 0
1, 32901, Note_on_c, 0, 74, 42
1, 32907, Note_on_c, 0, 74, 0
1, 32908, Note_on_c, 0, 76, 44
1, 32914, Note_on_c, 0, 76, 0
1, 32915, Note_on_c, 0, 74, 42
1, 32921, Note_on_c, 0, 74, 0
1, 32922, Note_on_c, 0, 76, 44
1, 32928, Note_on_c, 0, 76, 0
1, 32929, Note_on_c, 0, 74, 42
1, 32935, Note_on_c, 0, 74, 0
1, 32936, Note_on_c, 0, 76, 52
1, 32942, Note_on_c, 0, 76, 0
1, 32943, Note_on_c, 0, 74, 45
1, 32949, Note_on_c, 0, 74, 0
1, 32950, Note_on_c, 0, 76, 50
1, 32956, Note_on_c, 0, 76, 0
1, 32957, Note_on_c, 0, 74, 42
1, 32963, Note_on_c, 0, 74, 0
1, 32964, Note_on_c, 0, 76, 50
1, 32970, Note_on_c, 0, 76, 0
1, 32971, Note_on_c, 0, 74, 44
1, 32976, Note_on_c, 0, 67, 0
1, 32977, Note_on_c, 0, 74, 0
1, 32978, Note_on_c, 0, 76, 45
1, 32984, Note_on_c, 0, 76, 0
1, 32985, Note_on_c, 0, 74, 44
1, 32991, Note_on_c, 0, 74, 0
1, 32992, Note_on_c, 0, 76, 52
1, 32998, Note_on_c, 0, 76, 0
1, 32999, Note_on_c, 0, 74, 43
1, 33000, Note_on_c, 0, 55, 40
1, 33005, Note_on_c, 0, 74, 0
1, 33006, Note_on_c, 0, 76, 44
1, 33012, Note_on_c, 0, 76, 0
1, 33013, Note_on_c, 0, 74, 42
1, 33019, Note_on_c, 0, 74, 0
1, 33020, Note_on_c, 0, 76, 42
1, 33026, Note_on_c, 0, 76, 0
1, 33027, Note_on_c, 0, 74, 42
1, 33033, Note_on_c, 0, 74, 0
1, 33034, Note_on_c, 0, 76, 42
1, 33040, Note_on_c, 0, 76, 0
1, 33041, Note_on_c, 0, 74, 44
1, 33047, Note_on_c, 0, 74, 0
1, 33048, Note_on_c, 0, 76, 50
1, 33054, Note_on_c, 0, 76, 0
1, 33055, Note_on_c, 0, 74, 42
1, 33061, Note_on_c, 0, 74, 0
1, 33062, Note_on_c, 0, 76, 43
1, 33068, Note_on_c, 0, 76, 0
1, 33069, Note_on_c, 0, 74, 42
1, 33075, Note_on_c, 0, 74, 0
1, 33076, Note_on_c, 0, 76, 42
1, 33082, Note_on_c, 0, 76, 0
1, 33083, Note_on_c, 0, 74, 44
1, 33089, Note_on_c, 0, 74, 0
1, 33090, Note_on_c, 0, 76, 52
1, 33096, Note_on_c, 0, 76, 0
1, 33096, Note_on_c, 0, 55, 0
1, 33097, Note_on_c, 0, 74, 43
1, 33103, Note_on_c, 0, 74, 0
1, 33104, Note_on_c, 0, 72, 43
1, 33110, Note_on_c, 0, 72, 0
1, 33111, Note_on_c, 0, 74, 36
1, 33117, Note_on_c, 0, 74, 0
1, 33118, Note_on_c, 0, 72, 52
1, 33120, Note_on_c, 0, 60, 1
1, 33216, Note_on_c, 0, 60, 0
1, 33240, Note_on_c, 0, 55, 47
1, 33310, Note_on_c, 0, 72, 0
1, 33336, Note_on_c, 0, 55, 0
1, 33360, Note_on_c, 0, 48, 54
1, 33456, Note_on_c, 0, 48, 0
1, 33466, End_track
0, 0, End_of_file