0, 0, Header, 0, 1, 240
1, 0, Start_track
1, 0, Tempo, 600000
1, 0, Note_on_c, 0, 72, 83
1, 0, Note_on_c, 0, 64, 45
1, 0, Note_on_c, 0, 60, 69
1, 192, Note_on_c, 0, 72, 0
1, 240, Note_on_c, 0, 67, 45
1, 304, Note_on_c, 0, 67, 0
1, 320, Note_on_c, 0, 72, 71
1, 384, Note_on_c, 0, 72, 0
1, 384, Note_on_c, 0, 60, 0
1, 384, Note_on_c, 0, 64, 0
1, 400, Note_on_c, 0, 76, 81
1, 464, Note_on_c, 0, 76, 0
1, 480, Note_on_c, 0, 65, 34
1, 480, Note_on_c, 0, 55, 57
1, 480, Note_on_c, 0, 74, 71
1, 544, Note_on_c, 0, 74, 0
1, 560, Note_on_c, 0, 72, 66
1, 624, Note_on_c, 0, 72, 0
1, 640, Note_on_c, 0, 71, 50
1, 672, Note_on_c, 0, 55, 0
1, 672, Note_on_c, 0, 65, 0
1, 704, Note_on_c, 0, 71, 0
1, 720, Note_on_c, 0, 72, 83
1, 720, Note_on_c, 0, 64, 43
1, 720, Note_on_c, 0, 60, 74
1, 912, Note_on_c, 0, 72, 0
1, 960, Note_on_c, 0, 67, 45
1, 1024, Note_on_c, 0, 67, 0
1, 1040, Note_on_c, 0, 72, 71
1, 1104, Note_on_c, 0, 72, 0
1, 1104, Note_on_c, 0, 60, 0
1, 1104, Note_on_c, 0, 64, 0
1, 1120, Note_on_c, 0, 76, 81
1, 1184, Note_on_c, 0, 76, 0
1, 1200, Note_on_c, 0, 55, 43
1, 1200, Note_on_c, 0, 65, 42
1, 1200, Note_on_c, 0, 74, 71
1, 1264, Note_on_c, 0, 74, 0
1, 1280, Note_on_c, 0, 72, 66
1, 1344, Note_on_c, 0, 72, 0
1, 1360, Note_on_c, 0, 71, 50
1, 1392, Note_on_c, 0, 65, 0
1, 1392, Note_on_c, 0, 55, 0
1, 1424, Note_on_c, 0, 71, 0
1, 1440, Note_on_c, 0, 64, 45
1, 1440, Note_on_c, 0, 60, 54
1, 1440, Note_on_c, 0, 72, 52
1, 1632, Note_on_c, 0, 72, 0
1, 1632, Note_on_c, 0, 60, 0
1, 1632, Note_on_c, 0, 64, 0
1, 1680, Note_on_c, 0, 79, 61
1, 1744, Note_on_c, 0, 79, 0
1, 1760, Note_on_c, 0, 81, 66
1, 1824, Note_on_c, 0, 81, 0
1, 1840, Note_on_c, 0, 83, 66
1, 1904, Note_on_c, 0, 83, 0
1, 1920, Note_on_c, 0, 60, 58
1, 1920, Note_on_c, 0, 84, 58
1, 1984, Note_on_c, 0, 84, 0
1, 2000, Note_on_c, 0, 79, 42
1, 2064, Note_on_c, 0, 79, 0
1, 2080, Note_on_c, 0, 76, 50
1, 2112, Note_on_c, 0, 60, 0
1, 2144, Note_on_c, 0, 76, 0
1, 2160, Note_on_c, 0, 79, 77
1, 2160, Note_on_c, 0, 62, 61
1, 2172, Note_on_c, 0, 79, 0
1, 2175, Note_on_c, 0, 77, 47
1, 2187, Note_on_c, 0, 77, 0
1, 2190, Note_on_c, 0, 79, 50
1, 2202, Note_on_c, 0, 79, 0
1, 2205, Note_on_c, 0, 77, 42
1, 2217, Note_on_c, 0, 77, 0
1, 2220, Note_on_c, 0, 79, 52
1, 2232, Note_on_c, 0, 79, 0
1, 2235, Note_on_c, 0, 77, 42
1, 2247, Note_on_c, 0, 77, 0
1, 2250, Note_on_c, 0, 79, 52
1, 2262, Note_on_c, 0, 79, 0
1, 2265, Note_on_c, 0, 77, 42
1, 2277, Note_on_c, 0, 77, 0
1, 2280, Note_on_c, 0, 79, 50
1, 2292, Note_on_c, 0, 79, 0
1, 2295, Note_on_c, 0, 77, 42
1, 2307, Note_on_c, 0, 77, 0
1, 2310, Note_on_c, 0, 79, 50
1, 2322, Note_on_c, 0, 79, 0
1, 2325, Note_on_c, 0, 77, 42
1, 2337, Note_on_c, 0, 77, 0
1, 2340, Note_on_c, 0, 79, 52
1, 2352, Note_on_c, 0, 79, 0
1, 2352, Note_on_c, 0, 62, 0
1, 2355, Note_on_c, 0, 77, 43
1, 2367, Note_on_c, 0, 77, 0
1, 2370, Note_on_c, 0, 79, 54
1, 2382, Note_on_c, 0, 79, 0
1, 2385, Note_on_c, 0, 77, 45
1, 2397, Note_on_c, 0, 77, 0
1, 2400, Note_on_c, 0, 55, 54
1, 2400, Note_on_c, 0, 79, 61
1, 2412, Note_on_c, 0, 79, 0
1, 2415, Note_on_c, 0, 77, 44
1, 2427, Note_on_c, 0, 77, 0
1, 2430, Note_on_c, 0, 79, 54
1, 2442, Note_on_c, 0, 79, 0
1, 2445, Note_on_c, 0, 77, 47
1, 2457, Note_on_c, 0, 77, 0
1, 2460, Note_on_c, 0, 79, 43
1, 2472, Note_on_c, 0, 79, 0
1, 2475, Note_on_c, 0, 77, 47
1, 2487, Note_on_c, 0, 77, 0
1, 2490, Note_on_c, 0, 79, 52
1, 2502, Note_on_c, 0, 79, 0
1, 2505, Note_on_c, 0, 77, 52
1, 2517, Note_on_c, 0, 77, 0
1, 2520, Note_on_c, 0, 79, 47
1, 2532, Note_on_c, 0, 79, 0
1, 2535, Note_on_c, 0, 77, 47
1, 2547, Note_on_c, 0, 77, 0
1, 2550, Note_on_c, 0, 79, 44
1, 2562, Note_on_c, 0, 79, 0
1, 2565, Note_on_c, 0, 77, 42
1, 2577, Note_on_c, 0, 77, 0
1, 2580, Note_on_c, 0, 79, 43
1, 2592, Note_on_c, 0, 79, 0
1, 2592, Note_on_c, 0, 55, 0
1, 2595, Note_on_c, 0, 77, 42
1, 2607, Note_on_c, 0, 77, 0
1, 2610, Note_on_c, 0, 76, 43
1, 2622, Note_on_c, 0, 76, 0
1, 2625, Note_on_c, 0, 77, 42
1, 2637, Note_on_c, 0, 77, 0
1, 2640, Note_on_c, 0, 60, 58
1, 2640, Note_on_c, 0, 76, 61
1, 2832, Note_on_c, 0, 76, 0
1, 2832, Note_on_c, 0, 60, 0
1, 2880, Note_on_c, 0, 53, 66
1, 2880, Note_on_c, 0, 74, 52
1, 3072, Note_on_c, 0, 74, 0
1, 3072, Note_on_c, 0, 53, 0
1, 3120, Note_on_c, 0, 81, 61
1, 3184, Note_on_c, 0, 81, 0
1, 3200, Note_on_c, 0, 79, 66
1, 3264, Note_on_c, 0, 79, 0
1, 3280, Note_on_c, 0, 77, 66
1, 3344, Note_on_c, 0, 77, 0
1, 3360, Note_on_c, 0, 76, 58
1, 3424, Note_on_c, 0, 76, 0
1, 3440, Note_on_c, 0, 74, 42
1, 3504, Note_on_c, 0, 74, 0
1, 3520, Note_on_c, 0, 72, 50
1, 3584, Note_on_c, 0, 72, 0
1, 3600, Note_on_c, 0, 72, 77
1, 3600, Note_on_c, 0, 55, 52
1, 3612, Note_on_c, 0, 72, 0
1, 3615, Note_on_c, 0, 71, 47
1, 3627, Note_on_c, 0, 71, 0
1, 3630, Note_on_c, 0, 72, 50
1, 3642, Note_on_c, 0, 72, 0
1, 3645, Note_on_c, 0, 71, 42
1, 3657, Note_on_c, 0, 71, 0
1, 3660, Note_on_c, 0, 72, 52
1, 3672, Note_on_c, 0, 72, 0
1, 3675, Note_on_c, 0, 71, 42
1, 3687, Note_on_c, 0, 71, 0
1, 3690, Note_on_c, 0, 72, 52
1, 3702, Note_on_c, 0, 72, 0
1, 3705, Note_on_c, 0, 71, 42
1, 3717, Note_on_c, 0, 71, 0
1, 3720, Note_on_c, 0, 72, 50
1, 3732, Note_on_c, 0, 72, 0
1, 3735, Note_on_c, 0, 71, 42
1, 3747, Note_on_c, 0, 71, 0
1, 3750, Note_on_c, 0, 72, 50
1, 3762, Note_on_c, 0, 72, 0
1, 3765, Note_on_c, 0, 71, 42
1, 3777, Note_on_c, 0, 71, 0
1, 3780, Note_on_c, 0, 72, 52
1, 3792, Note_on_c, 0, 72, 0
1, 3792, Note_on_c, 0, 55, 0
1, 3795, Note_on_c, 0, 71, 43
1, 3807, Note_on_c, 0, 71, 0
1, 3810, Note_on_c, 0, 72, 54
1, 3822, Note_on_c, 0, 72, 0
1, 3825, Note_on_c, 0, 71, 45
1, 3837, Note_on_c, 0, 71, 0
1, 3840, Note_on_c, 0, 53, 50
1, 3840, Note_on_c, 0, 72, 61
1, 3852, Note_on_c, 0, 72, 0
1, 3855, Note_on_c, 0, 71, 44
1, 3867, Note_on_c, 0, 71, 0
1, 3870, Note_on_c, 0, 72, 54
1, 3882, Note_on_c, 0, 72, 0
1, 3885, Note_on_c, 0, 71, 47
1, 3897, Note_on_c, 0, 71, 0
1, 3900, Note_on_c, 0, 72, 43
1, 3912, Note_on_c, 0, 72, 0
1, 3915, Note_on_c, 0, 71, 47
1, 3927, Note_on_c, 0, 71, 0
1, 3930, Note_on_c, 0, 72, 52
1, 3942, Note_on_c, 0, 72, 0
1, 3945, Note_on_c, 0, 71, 52
1, 3957, Note_on_c, 0, 71, 0
1, 3960, Note_on_c, 0, 72, 47
1, 3972, Note_on_c, 0, 72, 0
1, 3975, Note_on_c, 0, 71, 47
1, 3987, Note_on_c, 0, 71, 0
1, 3990, Note_on_c, 0, 72, 44
1, 4002, Note_on_c, 0, 72, 0
1, 4005, Note_on_c, 0, 71, 42
1, 4017, Note_on_c, 0, 71, 0
1, 4020, Note_on_c, 0, 72, 43
1, 4032, Note_on_c, 0, 72, 0
1, 4032, Note_on_c, 0, 53, 0
1, 4035, Note_on_c, 0, 71, 42
1, 4047, Note_on_c, 0, 71, 0
1, 4050, Note_on_c, 0, 69, 43
1, 4062, Note_on_c, 0, 69, 0
1, 4065, Note_on_c, 0, 71, 42
1, 4077, Note_on_c, 0, 71, 0
1, 4080, Note_on_c, 0, 52, 52
1, 4080, Note_on_c, 0, 72, 71
1, 4272, Note_on_c, 0, 72, 0
1, 4272, Note_on_c, 0, 52, 0
1, 4320, Note_on_c, 0, 67, 54
1, 4512, Note_on_c, 0, 67, 0
1, 4560, Note_on_c, 0, 59, 43
1, 4560, Note_on_c, 0, 77, 58
1, 4560, Note_on_c, 0, 74, 77
1, 4752, Note_on_c, 0, 74, 0
1, 4752, Note_on_c, 0, 77, 0
1, 4752, Note_on_c, 0, 59, 0
1, 4800, Note_on_c, 0, 60, 52
1, 4800, Note_on_c, 0, 76, 58
1, 4800, Note_on_c, 0, 72, 53
1, 4992, Note_on_c, 0, 72, 0
1, 4992, Note_on_c, 0, 76, 0
1, 4992, Note_on_c, 0, 60, 0
1, 5040, Note_on_c, 0, 55, 58
1, 5040, Note_on_c, 0, 76, 65
1, 5040, Note_on_c, 0, 72, 51
1, 5232, Note_on_c, 0, 72, 0
1, 5232, Note_on_c, 0, 76, 0
1, 5232, Note_on_c, 0, 55, 0
1, 5280, Note_on_c, 0, 67, 42
1, 5280, Note_on_c, 0, 71, 43
1, 5280, Note_on_c, 0, 74, 45
1, 5472, Note_on_c, 0, 74, 0
1, 5472, Note_on_c, 0, 71, 0
1, 5472, Note_on_c, 0, 67, 0
1, 5520, Note_on_c, 0, 55, 47
1, 5712, Note_on_c, 0, 55, 0
1, 5760, Note_on_c, 0, 72, 83
1, 5760, Note_on_c, 0, 64, 45
1, 5760, Note_on_c, 0, 60, 69
1, 5952, Note_on_c, 0, 72, 0
1, 6000, Note_on_c, 0, 67, 45
1, 6064, Note_on_c, 0, 67, 0
1, 6080, Note_on_c, 0, 72, 71
1, 6144, Note_on_c, 0, 72, 0
1, 6144, Note_on_c, 0, 60, 0
1, 6144, Note_on_c, 0, 64, 0
1, 6160, Note_on_c, 0, 76, 81
1, 6224, Note_on_c, 0, 76, 0
1, 6240, Note_on_c, 0, 65, 34
1, 6240, Note_on_c, 0, 55, 57
1, 6240, Note_on_c, 0, 74, 71
1, 6304, Note_on_c, 0, 74, 0
1, 6320, Note_on_c, 0, 72, 66
1, 6384, Note_on_c, 0, 72, 0
1, 6400, Note_on_c, 0, 71, 50
1, 6432, Note_on_c, 0, 55, 0
1, 6432, Note_on_c, 0, 65, 0
1, 6464, Note_on_c, 0, 71, 0
1, 6480, Note_on_c, 0, 72, 83
1, 6480, Note_on_c, 0, 64, 43
1, 6480, Note_on_c, 0, 60, 74
1, 6672, Note_on_c, 0, 72, 0
1, 6720, Note_on_c, 0, 67, 45
1, 6784, Note_on_c, 0, 67, 0
1, 6800, Note_on_c, 0, 72, 71
1, 6864, Note_on_c, 0, 72, 0
1, 6864, Note_on_c, 0, 60, 0
1, 6864, Note_on_c, 0, 64, 0
1, 6880, Note_on_c, 0, 76, 81
1, 6944, Note_on_c, 0, 76, 0
1, 6960, Note_on_c, 0, 55, 43
1, 6960, Note_on_c, 0, 65, 42
1, 6960, Note_on_c, 0, 74, 71
1, 7024, Note_on_c, 0, 74, 0
1, 7040, Note_on_c, 0, 72, 66
1, 7104, Note_on_c, 0, 72, 0
1, 7120, Note_on_c, 0, 71, 50
1, 7152, Note_on_c, 0, 65, 0
1, 7152, Note_on_c, 0, 55, 0
1, 7184, Note_on_c, 0, 71, 0
1, 7200, Note_on_c, 0, 64, 45
1, 7200, Note_on_c, 0, 60, 54
1, 7200, Note_on_c, 0, 72, 52
1, 7392, Note_on_c, 0, 72, 0
1, 7392, Note_on_c, 0, 60, 0
1, 7392, Note_on_c, 0, 64, 0
1, 7440, Note_on_c, 0, 79, 61
1, 7504, Note_on_c, 0, 79, 0
1, 7520, Note_on_c, 0, 81, 66
1, 7584, Note_on_c, 0, 81, 0
1, 7600, Note_on_c, 0, 83, 66
1, 7664, Note_on_c, 0, 83, 0
1, 7680, Note_on_c, 0, 60, 58
1, 7680, Note_on_c, 0, 84, 58
1, 7744, Note_on_c, 0, 84, 0
1, 7760, Note_on_c, 0, 79, 42
1, 7824, Note_on_c, 0, 79, 0
1, 7840, Note_on_c, 0, 76, 50
1, 7872, Note_on_c, 0, 60, 0
1, 7904, Note_on_c, 0, 76, 0
1, 7920, Note_on_c, 0, 79, 77
1, 7920, Note_on_c, 0, 62, 61
1, 7932, Note_on_c, 0, 79, 0
1, 7935, Note_on_c, 0, 77, 47
1, 7947, Note_on_c, 0, 77, 0
1, 7950, Note_on_c, 0, 79, 50
1, 7962, Note_on_c, 0, 79, 0
1, 7965, Note_on_c, 0, 77, 42
1, 7977, Note_on_c, 0, 77, 0
1, 7980, Note_on_c, 0, 79, 52
1, 7992, Note_on_c, 0, 79, 0
1, 7995, Note_on_c, 0, 77, 42
1, 8007, Note_on_c, 0, 77, 0
1, 8010, Note_on_c, 0, 79, 52
1, 8022, Note_on_c, 0, 79, 0
1, 8025, Note_on_c, 0, 77, 42
1, 8037, Note_on_c, 0, 77, 0
1, 8040, Note_on_c, 0, 79, 50
1, 8052, Note_on_c, 0, 79, 0
1, 8055, Note_on_c, 0, 77, 42
1, 8067, Note_on_c, 0, 77, 0
1, 8070, Note_on_c, 0, 79, 50
1, 8082, Note_on_c, 0, 79, 0
1, 8085, Note_on_c, 0, 77, 42
1, 8097, Note_on_c, 0, 77, 0
1, 8100, Note_on_c, 0, 79, 52
1, 8112, Note_on_c, 0, 79, 0
1, 8112, Note_on_c, 0, 62, 0
1, 8115, Note_on_c, 0, 77, 43
1, 8127, Note_on_c, 0, 77, 0
1, 8130, Note_on_c, 0, 79, 54
1, 8142, Note_on_c, 0, 79, 0
1, 8145, Note_on_c, 0, 77, 45
1, 8157, Note_on_c, 0, 77, 0
1, 8160, Note_on_c, 0, 55, 54
1, 8160, Note_on_c, 0, 79, 61
1, 8172, Note_on_c, 0, 79, 0
1, 8175, Note_on_c, 0, 77, 44
1, 8187, Note_on_c, 0, 77, 0
1, 8190, Note_on_c, 0, 79, 54
1, 8202, Note_on_c, 0, 79, 0
1, 8205, Note_on_c, 0, 77, 47
1, 8217, Note_on_c, 0, 77, 0
1, 8220, Note_on_c, 0, 79, 43
1, 8232, Note_on_c, 0, 79, 0
1, 8235, Note_on_c, 0, 77, 47
1, 8247, Note_on_c, 0, 77, 0
1, 8250, Note_on_c, 0, 79, 52
1, 8262, Note_on_c, 0, 79, 0
1, 8265, Note_on_c, 0, 77, 52
1, 8277, Note_on_c, 0, 77, 0
1, 8280, Note_on_c, 0, 79, 47
1, 8292, Note_on_c, 0, 79, 0
1, 8295, Note_on_c, 0, 77, 47
1, 8307, Note_on_c, 0, 77, 0
1, 8310, Note_on_c, 0, 79, 44
1, 8322, Note_on_c, 0, 79, 0
1, 8325, Note_on_c, 0, 77, 42
1, 8337, Note_on_c, 0, 77, 0
1, 8340, Note_on_c, 0, 79, 43
1, 8352, Note_on_c, 0, 79, 0
1, 8352, Note_on_c, 0, 55, 0
1, 8355, Note_on_c, 0, 77, 42
1, 8367, Note_on_c, 0, 77, 0
1, 8370, Note_on_c, 0, 76, 43
1, 8382, Note_on_c, 0, 76, 0
1, 8385, Note_on_c, 0, 77, 42
1, 8397, Note_on_c, 0, 77, 0
1, 8400, Note_on_c, 0, 60, 58
1, 8400, Note_on_c, 0, 76, 61
1, 8592, Note_on_c, 0, 76, 0
1, 8592, Note_on_c, 0, 60, 0
1, 8640, Note_on_c, 0, 53, 66
1, 8640, Note_on_c, 0, 74, 52
1, 8832, Note_on_c, 0, 74, 0
1, 8832, Note_on_c, 0, 53, 0
1, 8880, Note_on_c, 0, 81, 61
1, 8944, Note_on_c, 0, 81, 0
1, 8960, Note_on_c, 0, 79, 66
1, 9024, Note_on_c, 0, 79, 0
1, 9040, Note_on_c, 0, 77, 66
1, 9104, Note_on_c, 0, 77, 0
1, 9120, Note_on_c, 0, 76, 58
1, 9184, Note_on_c, 0, 76, 0
1, 9200, Note_on_c, 0, 74, 42
1, 9264, Note_on_c, 0, 74, 0
1, 9280, Note_on_c, 0, 72, 50
1, 9344, Note_on_c, 0, 72, 0
1, 9360, Note_on_c, 0, 72, 77
1, 9360, Note_on_c, 0, 55, 52
1, 9372, Note_on_c, 0, 72, 0
1, 9375, Note_on_c, 0, 71, 47
1, 9387, Note_on_c, 0, 71, 0
1, 9390, Note_on_c, 0, 72, 50
1, 9402, Note_on_c, 0, 72, 0
1, 9405, Note_on_c, 0, 71, 42
1, 9417, Note_on_c, 0, 71, 0
1, 9420, Note_on_c, 0, 72, 52
1, 9432, Note_on_c, 0, 72, 0
1, 9435, Note_on_c, 0, 71, 42
1, 9447, Note_on_c, 0, 71, 0
1, 9450, Note_on_c, 0, 72, 52
1, 9462, Note_on_c, 0, 72, 0
1, 9465, Note_on_c, 0, 71, 42
1, 9477, Note_on_c, 0, 71, 0
1, 9480, Note_on_c, 0, 72, 50
1, 9492, Note_on_c, 0, 72, 0
1, 9495, Note_on_c, 0, 71, 42
1, 9507, Note_on_c, 0, 71, 0
1, 9510, Note_on_c, 0, 72, 50
1, 9522, Note_on_c, 0, 72, 0
1, 9525, Note_on_c, 0, 71, 42
1, 9537, Note_on_c, 0, 71, 0
1, 9540, Note_on_c, 0, 72, 52
1, 9552, Note_on_c, 0, 72, 0
1, 9552, Note_on_c, 0, 55, 0
1, 9555, Note_on_c, 0, 71, 43
1, 9567, Note_on_c, 0, 71, 0
1, 9570, Note_on_c, 0, 72, 54
1, 9582, Note_on_c, 0, 72, 0
1, 9585, Note_on_c, 0, 71, 45
1, 9597, Note_on_c, 0, 71, 0
1, 9600, Note_on_c, 0, 53, 50
1, 9600, Note_on_c, 0, 72, 61
1, 9612, Note_on_c, 0, 72, 0
1, 9615, Note_on_c, 0, 71, 44
1, 9627, Note_on_c, 0, 71, 0
1, 9630, Note_on_c, 0, 72, 54
1, 9642, Note_on_c, 0, 72, 0
1, 9645, Note_on_c, 0, 71, 47
1, 9657, Note_on_c, 0, 71, 0
1, 9660, Note_on_c, 0, 72, 43
1, 9672, Note_on_c, 0, 72, 0
1, 9675, Note_on_c, 0, 71, 47
1, 9687, Note_on_c, 0, 71, 0
1, 9690, Note_on_c, 0, 72, 52
1, 9702, Note_on_c, 0, 72, 0
1, 9705, Note_on_c, 0, 71, 52
1, 9717, Note_on_c, 0, 71, 0
1, 9720, Note_on_c, 0, 72, 47
1, 9732, Note_on_c, 0, 72, 0
1, 9735, Note_on_c, 0, 71, 47
1, 9747, Note_on_c, 0, 71, 0
1, 9750, Note_on_c, 0, 72, 44
1, 9762, Note_on_c, 0, 72, 0
1, 9765, Note_on_c, 0, 71, 42
1, 9777, Note_on_c, 0, 71, 0
1, 9780, Note_on_c, 0, 72, 43
1, 9792, Note_on_c, 0, 72, 0
1, 9792, Note_on_c, 0, 53, 0
1, 9795, Note_on_c, 0, 71, 42
1, 9807, Note_on_c, 0, 71, 0
1, 9810, Note_on_c, 0, 69, 43
1, 9822, Note_on_c, 0, 69, 0
1, 9825, Note_on_c, 0, 71, 42
1, 9837, Note_on_c, 0, 71, 0
1, 9840, Note_on_c, 0, 52, 52
1, 9840, Note_on_c, 0, 72, 71
1, 10032, Note_on_c, 0, 72, 0
1, 10032, Note_on_c, 0, 52, 0
1, 10080, Note_on_c, 0, 67, 54
1, 10272, Note_on_c, 0, 67, 0
1, 10320, Note_on_c, 0, 59, 43
1, 10320, Note_on_c, 0, 77, 58
1, 10320, Note_on_c, 0, 74, 77
1, 10512, Note_on_c, 0, 74, 0
1, 10512, Note_on_c, 0, 77, 0
1, 10512, Note_on_c, 0, 59, 0
1, 10560, Note_on_c, 0, 60, 52
1, 10560, Note_on_c, 0, 76, 58
1, 10560, Note_on_c, 0, 72, 53
1, 10752, Note_on_c, 0, 72, 0
1, 10752, Note_on_c, 0, 76, 0
1, 10752, Note_on_c, 0, 60, 0
1, 10800, Note_on_c, 0, 55, 58
1, 10800, Note_on_c, 0, 76, 65
1, 10800, Note_on_c, 0, 72, 51
1, 10992, Note_on_c, 0, 72, 0
1, 10992, Note_on_c, 0, 76, 0
1, 10992, Note_on_c, 0, 55, 0
1, 11040, Note_on_c, 0, 67, 42
1, 11040, Note_on_c, 0, 71, 43
1, 11040, Note_on_c, 0, 74, 45
1, 11232, Note_on_c, 0, 74, 0
1, 11232, Note_on_c, 0, 71, 0
1, 11232, Note_on_c, 0, 67, 0
1, 11280, Note_on_c, 0, 55, 47
1, 11472, Note_on_c, 0, 55, 0
1, 11520, Note_on_c, 0, 79, 40
1, 11520, Note_on_c, 0, 52, 50
1, 11520, Note_on_c, 0, 60, 44
1, 11712, Note_on_c, 0, 79, 0
1, 11760, Note_on_c, 0, 72, 61
1, 11824, Note_on_c, 0, 72, 0
1, 11840, Note_on_c, 0, 76, 54
1, 11904, Note_on_c, 0, 76, 0
1, 11904, Note_on_c, 0, 60, 0
1, 11904, Note_on_c, 0, 52, 0
1, 11920, Note_on_c, 0, 79, 58
1, 11984, Note_on_c, 0, 79, 0
1, 12000, Note_on_c, 0, 60, 42
1, 12000, Note_on_c, 0, 52, 49
1, 12000, Note_on_c, 0, 76, 66
1, 12064, Note_on_c, 0, 76, 0
1, 12080, Note_on_c, 0, 79, 71
1, 12144, Note_on_c, 0, 79, 0
1, 12160, Note_on_c, 0, 82, 77
1, 12192, Note_on_c, 0, 52, 0
1, 12192, Note_on_c, 0, 60, 0
1, 12224, Note_on_c, 0, 82, 0
1, 12240, Note_on_c, 0, 53, 71
1, 12240, Note_on_c, 0, 82, 83
1, 12432, Note_on_c, 0, 82, 0
1, 12432, Note_on_c, 0, 53, 0
1, 12480, Note_on_c, 0, 65, 52
1, 12480, Note_on_c, 0, 81, 45
1, 12672, Note_on_c, 0, 81, 0
1, 12672, Note_on_c, 0, 65, 0
1, 12720, Note_on_c, 0, 64, 54
1, 12720, Note_on_c, 0, 79, 45
1, 12912, Note_on_c, 0, 79, 0
1, 12912, Note_on_c, 0, 64, 0
1, 12960, Note_on_c, 0, 62, 77
1, 12960, Note_on_c, 0, 77, 44
1, 13024, Note_on_c, 0, 77, 0
1, 13040, Note_on_c, 0, 76, 45
1, 13104, Note_on_c, 0, 76, 0
1, 13120, Note_on_c, 0, 77, 44
1, 13152, Note_on_c, 0, 62, 0
1, 13184, Note_on_c, 0, 77, 0
1, 13200, Note_on_c, 0, 65, 50
1, 13200, Note_on_c, 0, 81, 43
1, 13264, Note_on_c, 0, 81, 0
1, 13280, Note_on_c, 0, 79, 50
1, 13344, Note_on_c, 0, 79, 0
1, 13360, Note_on_c, 0, 77, 66
1, 13392, Note_on_c, 0, 65, 0
1, 13424, Note_on_c, 0, 77, 0
1, 13440, Note_on_c, 0, 66, 77
1, 13440, Note_on_c, 0, 76, 71
1, 13504, Note_on_c, 0, 76, 0
1, 13520, Note_on_c, 0, 74, 54
1, 13584, Note_on_c, 0, 74, 0
1, 13600, Note_on_c, 0, 72, 42
1, 13632, Note_on_c, 0, 66, 0
1, 13664, Note_on_c, 0, 72, 0
1, 13680, Note_on_c, 0, 67, 50
1, 13680, Note_on_c, 0, 72, 47
1, 13872, Note_on_c, 0, 67, 0
1, 13920, Note_on_c, 0, 62, 71
1, 14064, Note_on_c, 0, 72, 0
1, 14112, Note_on_c, 0, 62, 0
1, 14160, Note_on_c, 0, 55, 52
1, 14160, Note_on_c, 0, 71, 58
1, 14352, Note_on_c, 0, 71, 0
1, 14352, Note_on_c, 0, 55, 0
1, 14400, Note_on_c, 0, 72, 83
1, 14400, Note_on_c, 0, 64, 62
1, 14400, Note_on_c, 0, 60, 71
1, 14592, Note_on_c, 0, 72, 0
1, 14640, Note_on_c, 0, 67, 45
1, 14704, Note_on_c, 0, 67, 0
1, 14720, Note_on_c, 0, 72, 71
1, 14784, Note_on_c, 0, 72, 0
1, 14784, Note_on_c, 0, 60, 0
1, 14784, Note_on_c, 0, 64, 0
1, 14800, Note_on_c, 0, 76, 81
1, 14864, Note_on_c, 0, 76, 0
1, 14880, Note_on_c, 0, 65, 42
1, 14880, Note_on_c, 0, 55, 50
1, 14880, Note_on_c, 0, 74, 71
1, 14944, Note_on_c, 0, 74, 0
1, 14960, Note_on_c, 0, 72, 66
1, 15024, Note_on_c, 0, 72, 0
1, 15040, Note_on_c, 0, 71, 50
1, 15072, Note_on_c, 0, 55, 0
1, 15072, Note_on_c, 0, 65, 0
1, 15104, Note_on_c, 0, 71, 0
1, 15120, Note_on_c, 0, 72, 83
1, 15120, Note_on_c, 0, 60, 54
1, 15120, Note_on_c, 0, 64, 42
1, 15312, Note_on_c, 0, 72, 0
1, 15360, Note_on_c, 0, 67, 45
1, 15424, Note_on_c, 0, 67, 0
1, 15440, Note_on_c, 0, 72, 71
1, 15504, Note_on_c, 0, 72, 0
1, 15504, Note_on_c, 0, 64, 0
1, 15504, Note_on_c, 0, 60, 0
1, 15520, Note_on_c, 0, 76, 81
1, 15584, Note_on_c, 0, 76, 0
1, 15600, Note_on_c, 0, 55, 54
1, 15600, Note_on_c, 0, 65, 39
1, 15600, Note_on_c, 0, 74, 71
1, 15664, Note_on_c, 0, 74, 0
1, 15680, Note_on_c, 0, 72, 66
1, 15744, Note_on_c, 0, 72, 0
1, 15760, Note_on_c, 0, 71, 50
1, 15792, Note_on_c, 0, 65, 0
1, 15792, Note_on_c, 0, 55, 0
1, 15824, Note_on_c, 0, 71, 0
1, 15840, Note_on_c, 0, 60, 50
1, 15840, Note_on_c, 0, 64, 30
1, 15840, Note_on_c, 0, 72, 52
1, 16032, Note_on_c, 0, 72, 0
1, 16032, Note_on_c, 0, 64, 0
1, 16032, Note_on_c, 0, 60, 0
1, 16080, Note_on_c, 0, 79, 61
1, 16144, Note_on_c, 0, 79, 0
1, 16160, Note_on_c, 0, 81, 66
1, 16224, Note_on_c, 0, 81, 0
1, 16240, Note_on_c, 0, 83, 66
1, 16304, Note_on_c, 0, 83, 0
1, 16320, Note_on_c, 0, 60, 66
1, 16320, Note_on_c, 0, 84, 58
1, 16384, Note_on_c, 0, 84, 0
1, 16400, Note_on_c, 0, 79, 42
1, 16464, Note_on_c, 0, 79, 0
1, 16480, Note_on_c, 0, 76, 50
1, 16512, Note_on_c, 0, 60, 0
1, 16544, Note_on_c, 0, 76, 0
1, 16560, Note_on_c, 0, 79, 77
1, 16560, Note_on_c, 0, 62, 42
1, 16572, Note_on_c, 0, 79, 0
1, 16575, Note_on_c, 0, 77, 47
1, 16587, Note_on_c, 0, 77, 0
1, 16590, Note_on_c, 0, 79, 50
1, 16602, Note_on_c, 0, 79, 0
1, 16605, Note_on_c, 0, 77, 42
1, 16617, Note_on_c, 0, 77, 0
1, 16620, Note_on_c, 0, 79, 52
1, 16632, Note_on_c, 0, 79, 0
1, 16635, Note_on_c, 0, 77, 42
1, 16647, Note_on_c, 0, 77, 0
1, 16650, Note_on_c, 0, 79, 52
1, 16662, Note_on_c, 0, 79, 0
1, 16665, Note_on_c, 0, 77, 42
1, 16677, Note_on_c, 0, 77, 0
1, 16680, Note_on_c, 0, 79, 50
1, 16692, Note_on_c, 0, 79, 0
1, 16695, Note_on_c, 0, 77, 42
1, 16707, Note_on_c, 0, 77, 0
1, 16710, Note_on_c, 0, 79, 50
1, 16722, Note_on_c, 0, 79, 0
1, 16725, Note_on_c, 0, 77, 42
1, 16737, Note_on_c, 0, 77, 0
1, 16740, Note_on_c, 0, 79, 52
1, 16752, Note_on_c, 0, 79, 0
1, 16752, Note_on_c, 0, 62, 0
1, 16755, Note_on_c, 0, 77, 43
1, 16767, Note_on_c, 0, 77, 0
1, 16770, Note_on_c, 0, 79, 54
1, 16782, Note_on_c, 0, 79, 0
1, 16785, Note_on_c, 0, 77, 45
1, 16797, Note_on_c, 0, 77, 0
1, 16800, Note_on_c, 0, 55, 54
1, 16800, Note_on_c, 0, 79, 61
1, 16812, Note_on_c, 0, 79, 0
1, 16815, Note_on_c, 0, 77, 44
1, 16827, Note_on_c, 0, 77, 0
1, 16830, Note_on_c, 0, 79, 54
1, 16842, Note_on_c, 0, 79, 0
1, 16845, Note_on_c, 0, 77, 47
1, 16857, Note_on_c, 0, 77, 0
1, 16860, Note_on_c, 0, 79, 43
1, 16872, Note_on_c, 0, 79, 0
1, 16875, Note_on_c, 0, 77, 47
1, 16887, Note_on_c, 0, 77, 0
1, 16890, Note_on_c, 0, 79, 52
1, 16902, Note_on_c, 0, 79, 0
1, 16905, Note_on_c, 0, 77, 52
1, 16917, Note_on_c, 0, 77, 0
1, 16920, Note_on_c, 0, 79, 47
1, 16932, Note_on_c, 0, 79, 0
1, 16935, Note_on_c, 0, 77, 47
1, 16947, Note_on_c, 0, 77, 0
1, 16950, Note_on_c, 0, 79, 44
1, 16962, Note_on_c, 0, 79, 0
1, 16965, Note_on_c, 0, 77, 42
1, 16977, Note_on_c, 0, 77, 0
1, 16980, Note_on_c, 0, 79, 43
1, 16992, Note_on_c, 0, 79, 0
1, 16992, Note_on_c, 0, 55, 0
1, 16995, Note_on_c, 0, 77, 42
1, 17007, Note_on_c, 0, 77, 0
1, 17010, Note_on_c, 0, 76, 43
1, 17022, Note_on_c, 0, 76, 0
1, 17025, Note_on_c, 0, 77, 42
1, 17037, Note_on_c, 0, 77, 0
1, 17040, Note_on_c, 0, 60, 47
1, 17040, Note_on_c, 0, 76, 61
1, 17232, Note_on_c, 0, 76, 0
1, 17232, Note_on_c, 0, 60, 0
1, 17280, Note_on_c, 0, 53, 42
1, 17280, Note_on_c, 0, 74, 52
1, 17472, Note_on_c, 0, 74, 0
1, 17472, Note_on_c, 0, 53, 0
1, 17520, Note_on_c, 0, 81, 61
1, 17584, Note_on_c, 0, 81, 0
1, 17600, Note_on_c, 0, 79, 66
1, 17664, Note_on_c, 0, 79, 0
1, 17680, Note_on_c, 0, 77, 66
1, 17744, Note_on_c, 0, 77, 0
1, 17760, Note_on_c, 0, 76, 58
1, 17824, Note_on_c, 0, 76, 0
1, 17840, Note_on_c, 0, 74, 42
1, 17904, Note_on_c, 0, 74, 0
1, 17920, Note_on_c, 0, 72, 50
1, 17984, Note_on_c, 0, 72, 0
1, 18000, Note_on_c, 0, 72, 77
1, 18000, Note_on_c, 0, 55, 61
1, 18012, Note_on_c, 0, 72, 0
1, 18015, Note_on_c, 0, 71, 47
1, 18027, Note_on_c, 0, 71, 0
1, 18030, Note_on_c, 0, 72, 50
1, 18042, Note_on_c, 0, 72, 0
1, 18045, Note_on_c, 0, 71, 42
1, 18057, Note_on_c, 0, 71, 0
1, 18060, Note_on_c, 0, 72, 52
1, 18072, Note_on_c, 0, 72, 0
1, 18075, Note_on_c, 0, 71, 42
1, 18087, Note_on_c, 0, 71, 0
1, 18090, Note_on_c, 0, 72, 52
1, 18102, Note_on_c, 0, 72, 0
1, 18105, Note_on_c, 0, 71, 42
1, 18117, Note_on_c, 0, 71, 0
1, 18120, Note_on_c, 0, 72, 50
1, 18132, Note_on_c, 0, 72, 0
1, 18135, Note_on_c, 0, 71, 42
1, 18147, Note_on_c, 0, 71, 0
1, 18150, Note_on_c, 0, 72, 50
1, 18162, Note_on_c, 0, 72, 0
1, 18165, Note_on_c, 0, 71, 42
1, 18177, Note_on_c, 0, 71, 0
1, 18180, Note_on_c, 0, 72, 52
1, 18192, Note_on_c, 0, 72, 0
1, 18192, Note_on_c, 0, 55, 0
1, 18195, Note_on_c, 0, 71, 43
1, 18207, Note_on_c, 0, 71, 0
1, 18210, Note_on_c, 0, 72, 54
1, 18222, Note_on_c, 0, 72, 0
1, 18225, Note_on_c, 0, 71, 45
1, 18237, Note_on_c, 0, 71, 0
1, 18240, Note_on_c, 0, 53, 61
1, 18240, Note_on_c, 0, 72, 61
1, 18252, Note_on_c, 0, 72, 0
1, 18255, Note_on_c, 0, 71, 44
1, 18267, Note_on_c, 0, 71, 0
1, 18270, Note_on_c, 0, 72, 54
1, 18282, Note_on_c, 0, 72, 0
1, 18285, Note_on_c, 0, 71, 47
1, 18297, Note_on_c, 0, 71, 0
1, 18300, Note_on_c, 0, 72, 43
1, 18312, Note_on_c, 0, 72, 0
1, 18315, Note_on_c, 0, 71, 47
1, 18327, Note_on_c, 0, 71, 0
1, 18330, Note_on_c, 0, 72, 52
1, 18342, Note_on_c, 0, 72, 0
1, 18345, Note_on_c, 0, 71, 52
1, 18357, Note_on_c, 0, 71, 0
1, 18360, Note_on_c, 0, 72, 47
1, 18372, Note_on_c, 0, 72, 0
1, 18375, Note_on_c, 0, 71, 47
1, 18387, Note_on_c, 0, 71, 0
1, 18390, Note_on_c, 0, 72, 44
1, 18402, Note_on_c, 0, 72, 0
1, 18405, Note_on_c, 0, 71, 42
1, 18417, Note_on_c, 0, 71, 0
1, 18420, Note_on_c, 0, 72, 43
1, 18432, Note_on_c, 0, 72, 0
1, 18432, Note_on_c, 0, 53, 0
1, 18435, Note_on_c, 0, 71, 42
1, 18447, Note_on_c, 0, 71, 0
1, 18450, Note_on_c, 0, 69, 43
1, 18462, Note_on_c, 0, 69, 0
1, 18465, Note_on_c, 0, 71, 42
1, 18477, Note_on_c, 0, 71, 0
1, 18480, Note_on_c, 0, 52, 54
1, 18480, Note_on_c, 0, 72, 71
1, 18672, Note_on_c, 0, 72, 0
1, 18672, Note_on_c, 0, 52, 0
1, 18720, Note_on_c, 0, 83, 45
1, 18720, Note_on_c, 0, 53, 54
1, 18768, Note_on_c, 0, 83, 0
1, 18780, Note_on_c, 0, 81, 61
1, 18828, Note_on_c, 0, 81, 0
1, 18840, Note_on_c, 0, 79, 61
1, 18888, Note_on_c, 0, 79, 0
1, 18900, Note_on_c, 0, 77, 52
1, 18912, Note_on_c, 0, 53, 0
1, 18948, Note_on_c, 0, 77, 0
1, 18960, Note_on_c, 0, 55, 50
1, 18960, Note_on_c, 0, 76, 44
1, 19152, Note_on_c, 0, 76, 0
1, 19152, Note_on_c, 0, 55, 0
1, 19200, Note_on_c, 0, 43, 61
1, 19200, Note_on_c, 0, 76, 45
1, 19212, Note_on_c, 0, 76, 0
1, 19215, Note_on_c, 0, 74, 31
1, 19227, Note_on_c, 0, 74, 0
1, 19230, Note_on_c, 0, 76, 42
1, 19242, Note_on_c, 0, 76, 0
1, 19245, Note_on_c, 0, 74, 42
1, 19257, Note_on_c, 0, 74, 0
1, 19260, Note_on_c, 0, 76, 43
1, 19272, Note_on_c, 0, 76, 0
1, 19275, Note_on_c, 0, 74, 42
1, 19287, Note_on_c, 0, 74, 0
1, 19290, Note_on_c, 0, 76, 50
1, 19302, Note_on_c, 0, 76, 0
1, 19305, Note_on_c, 0, 74, 42
1, 19317, Note_on_c, 0, 74, 0
1, 19320, Note_on_c, 0, 76, 54
1, 19332, Note_on_c, 0, 76, 0
1, 19335, Note_on_c, 0, 74, 42
1, 19347, Note_on_c, 0, 74, 0
1, 19350, Note_on_c, 0, 76, 42
1, 19362, Note_on_c, 0, 76, 0
1, 19365, Note_on_c, 0, 74, 42
1, 19377, Note_on_c, 0, 74, 0
1, 19380, Note_on_c, 0, 76, 50
1, 19392, Note_on_c, 0, 76, 0
1, 19392, Note_on_c, 0, 43, 0
1, 19395, Note_on_c, 0, 74, 42
1, 19407, Note_on_c, 0, 74, 0
1, 19410, Note_on_c, 0, 72, 50
1, 19422, Note_on_c, 0, 72, 0
1, 19425, Note_on_c, 0, 74, 43
1, 19437, Note_on_c, 0, 74, 0
1, 19440, Note_on_c, 0, 48, 52
1, 19440, Note_on_c, 0, 72, 80
1, 19632, Note_on_c, 0, 72, 0
1, 19632, Note_on_c, 0, 48, 0
1, 19680, Note_on_c, 0, 43, 58
1, 19872, Note_on_c, 0, 43, 0
1, 19920, Note_on_c, 0, 36, 52
1, 20112, Note_on_c, 0, 36, 0
1, 20160, Note_on_c, 0, 79, 40
1, 20160, Note_on_c, 0, 52, 50
1, 20160, Note_on_c, 0, 60, 44
1, 20352, Note_on_c, 0, 79, 0
1, 20400, Note_on_c, 0, 72, 61
1, 20464, Note_on_c, 0, 72, 0
1, 20480, Note_on_c, 0, 76, 54
1, 20544, Note_on_c, 0, 76, 0
1, 20544, Note_on_c, 0, 60, 0
1, 20544, Note_on_c, 0, 52, 0
1, 20560, Note_on_c, 0, 79, 58
1, 20624, Note_on_c, 0, 79, 0
1, 20640, Note_on_c, 0, 60, 42
1, 20640, Note_on_c, 0, 52, 49
1, 20640, Note_on_c, 0, 76, 66
1, 20704, Note_on_c, 0, 76, 0
1, 20720, Note_on_c, 0, 79, 71
1, 20784, Note_on_c, 0, 79, 0
1, 20800, Note_on_c, 0, 82, 77
1, 20832, Note_on_c, 0, 52, 0
1, 20832, Note_on_c, 0, 60, 0
1, 20864, Note_on_c, 0, 82, 0
1, 20880, Note_on_c, 0, 53, 71
1, 20880, Note_on_c, 0, 82, 83
1, 21072, Note_on_c, 0, 82, 0
1, 21072, Note_on_c, 0, 53, 0
1, 21120, Note_on_c, 0, 65, 52
1, 21120, Note_on_c, 0, 81, 45
1, 21312, Note_on_c, 0, 81, 0
1, 21312, Note_on_c, 0, 65, 0
1, 21360, Note_on_c, 0, 64, 54
1, 21360, Note_on_c, 0, 79, 45
1, 21552, Note_on_c, 0, 79, 0
1, 21552, Note_on_c, 0, 64, 0
1, 21600, Note_on_c, 0, 62, 77
1, 21600, Note_on_c, 0, 77, 44
1, 21664, Note_on_c, 0, 77, 0
1, 21680, Note_on_c, 0, 76, 45
1, 21744, Note_on_c, 0, 76, 0
1, 21760, Note_on_c, 0, 77, 44
1, 21792, Note_on_c, 0, 62, 0
1, 21824, Note_on_c, 0, 77, 0
1, 21840, Note_on_c, 0, 65, 50
1, 21840, Note_on_c, 0, 81, 43
1, 21904, Note_on_c, 0, 81, 0
1, 21920, Note_on_c, 0, 79, 50
1, 21984, Note_on_c, 0, 79, 0
1, 22000, Note_on_c, 0, 77, 66
1, 22032, Note_on_c, 0, 65, 0
1, 22064, Note_on_c, 0, 77, 0
1, 22080, Note_on_c, 0, 66, 77
1, 22080, Note_on_c, 0, 76, 71
1, 22144, Note_on_c, 0, 76, 0
1, 22160, Note_on_c, 0, 74, 54
1, 22224, Note_on_c, 0, 74, 0
1, 22240, Note_on_c, 0, 72, 42
1, 22272, Note_on_c, 0, 66, 0
1, 22304, Note_on_c, 0, 72, 0
1, 22320, Note_on_c, 0, 67, 50
1, 22320, Note_on_c, 0, 72, 47
1, 22512, Note_on_c, 0, 67, 0
1, 22560, Note_on_c, 0, 62, 71
1, 22704, Note_on_c, 0, 72, 0
1, 22752, Note_on_c, 0, 62, 0
1, 22800, Note_on_c, 0, 55, 52
1, 22800, Note_on_c, 0, 71, 58
1, 22992, Note_on_c, 0, 71, 0
1, 22992, Note_on_c, 0, 55, 0
1, 23040, Note_on_c, 0, 72, 83
1, 23040, Note_on_c, 0, 64, 62
1, 23040, Note_on_c, 0, 60, 71
1, 23232, Note_on_c, 0, 72, 0
1, 23280, Note_on_c, 0, 67, 45
1, 23344, Note_on_c, 0, 67, 0
1, 23360, Note_on_c, 0, 72, 71
1, 23424, Note_on_c, 0, 72, 0
1, 23424, Note_on_c, 0, 60, 0
1, 23424, Note_on_c, 0, 64, 0
1, 23440, Note_on_c, 0, 76, 81
1, 23504, Note_on_c, 0, 76, 0
1, 23520, Note_on_c, 0, 65, 42
1, 23520, Note_on_c, 0, 55, 50
1, 23520, Note_on_c, 0, 74, 71
1, 23584, Note_on_c, 0, 74, 0
1, 23600, Note_on_c, 0, 72, 66
1, 23664, Note_on_c, 0, 72, 0
1, 23680, Note_on_c, 0, 71, 50
1, 23712, Note_on_c, 0, 55, 0
1, 23712, Note_on_c, 0, 65, 0
1, 23744, Note_on_c, 0, 71, 0
1, 23760, Note_on_c, 0, 72, 83
1, 23760, Note_on_c, 0, 60, 54
1, 23760, Note_on_c, 0, 64, 42
1, 23952, Note_on_c, 0, 72, 0
1, 24000, Note_on_c, 0, 67, 45
1, 24064, Note_on_c, 0, 67, 0
1, 24080, Note_on_c, 0, 72, 71
1, 24144, Note_on_c, 0, 72, 0
1, 24144, Note_on_c, 0, 64, 0
1, 24144, Note_on_c, 0, 60, 0
1, 24160, Note_on_c, 0, 76, 81
1, 24224, Note_on_c, 0, 76, 0
1, 24240, Note_on_c, 0, 55, 54
1, 24240, Note_on_c, 0, 65, 39
1, 24240, Note_on_c, 0, 74, 71
1, 24304, Note_on_c, 0, 74, 0
1, 24320, Note_on_c, 0, 72, 66
1, 24384, Note_on_c, 0, 72, 0
1, 24400, Note_on_c, 0, 71, 50
1, 24432, Note_on_c, 0, 65, 0
1, 24432, Note_on_c, 0, 55, 0
1, 24464, Note_on_c, 0, 71, 0
1, 24480, Note_on_c, 0, 60, 50
1, 24480, Note_on_c, 0, 64, 30
1, 24480, Note_on_c, 0, 72, 52
1, 24672, Note_on_c, 0, 72, 0
1, 24672, Note_on_c, 0, 64, 0
1, 24672, Note_on_c, 0, 60, 0
1, 24720, Note_on_c, 0, 79, 61
1, 24784, Note_on_c, 0, 79, 0
1, 24800, Note_on_c, 0, 81, 66
1, 24864, Note_on_c, 0, 81, 0
1, 24880, Note_on_c, 0, 83, 66
1, 24944, Note_on_c, 0, 83, 0
1, 24960, Note_on_c, 0, 60, 66
1, 24960, Note_on_c, 0, 84, 58
1, 25024, Note_on_c, 0, 84, 0
1, 25040, Note_on_c, 0, 79, 42
1, 25104, Note_on_c, 0, 79, 0
1, 25120, Note_on_c, 0, 76, 50
1, 25152, Note_on_c, 0, 60, 0
1, 25184, Note_on_c, 0, 76, 0
1, 25200, Note_on_c, 0, 79, 77
1, 25200, Note_on_c, 0, 62, 42
1, 25212, Note_on_c, 0, 79, 0
1, 25215, Note_on_c, 0, 77, 47
1, 25227, Note_on_c, 0, 77, 0
1, 25230, Note_on_c, 0, 79, 50
1, 25242, Note_on_c, 0, 79, 0
1, 25245, Note_on_c, 0, 77, 42
1, 25257, Note_on_c, 0, 77, 0
1, 25260, Note_on_c, 0, 79, 52
1, 25272, Note_on_c, 0, 79, 0
1, 25275, Note_on_c, 0, 77, 42
1, 25287, Note_on_c, 0, 77, 0
1, 25290, Note_on_c, 0, 79, 52
1, 25302, Note_on_c, 0, 79, 0
1, 25305, Note_on_c, 0, 77, 42
1, 25317, Note_on_c, 0, 77, 0
1, 25320, Note_on_c, 0, 79, 50
1, 25332, Note_on_c, 0, 79, 0
1, 25335, Note_on_c, 0, 77, 42
1, 25347, Note_on_c, 0, 77, 0
1, 25350, Note_on_c, 0, 79, 50
1, 25362, Note_on_c, 0, 79, 0
1, 25365, Note_on_c, 0, 77, 42
1, 25377, Note_on_c, 0, 77, 0
1, 25380, Note_on_c, 0, 79, 52
1, 25392, Note_on_c, 0, 79, 0
1, 25392, Note_on_c, 0, 62, 0
1, 25395, Note_on_c, 0, 77, 43
1, 25407, Note_on_c, 0, 77, 0
1, 25410, Note_on_c, 0, 79, 54
1, 25422, Note_on_c, 0, 79, 0
1, 25425, Note_on_c, 0, 77, 45
1, 25437, Note_on_c, 0, 77, 0
1, 25440, Note_on_c, 0, 55, 54
1, 25440, Note_on_c, 0, 79, 61
1, 25452, Note_on_c, 0, 79, 0
1, 25455, Note_on_c, 0, 77, 44
1, 25467, Note_on_c, 0, 77, 0
1, 25470, Note_on_c, 0, 79, 54
1, 25482, Note_on_c, 0, 79, 0
1, 25485, Note_on_c, 0, 77, 47
1, 25497, Note_on_c, 0, 77, 0
1, 25500, Note_on_c, 0, 79, 43
1, 25512, Note_on_c, 0, 79, 0
1, 25515, Note_on_c, 0, 77, 47
1, 25527, Note_on_c, 0, 77, 0
1, 25530, Note_on_c, 0, 79, 52
1, 25542, Note_on_c, 0, 79, 0
1, 25545, Note_on_c, 0, 77, 52
1, 25557, Note_on_c, 0, 77, 0
1, 25560, Note_on_c, 0, 79, 47
1, 25572, Note_on_c, 0, 79, 0
1, 25575, Note_on_c, 0, 77, 47
1, 25587, Note_on_c, 0, 77, 0
1, 25590, Note_on_c, 0, 79, 44
1, 25602, Note_on_c, 0, 79, 0
1, 25605, Note_on_c, 0, 77, 42
1, 25617, Note_on_c, 0, 77, 0
1, 25620, Note_on_c, 0, 79, 43
1, 25632, Note_on_c, 0, 79, 0
1, 25632, Note_on_c, 0, 55, 0
1, 25635, Note_on_c, 0, 77, 42
1, 25647, Note_on_c, 0, 77, 0
1, 25650, Note_on_c, 0, 76, 43
1, 25662, Note_on_c, 0, 76, 0
1, 25665, Note_on_c, 0, 77, 42
1, 25677, Note_on_c, 0, 77, 0
1, 25680, Note_on_c, 0, 60, 47
1, 25680, Note_on_c, 0, 76, 61
1, 25872, Note_on_c, 0, 76, 0
1, 25872, Note_on_c, 0, 60, 0
1, 25920, Note_on_c, 0, 53, 42
1, 25920, Note_on_c, 0, 74, 52
1, 26112, Note_on_c, 0, 74, 0
1, 26112, Note_on_c, 0, 53, 0
1, 26160, Note_on_c, 0, 81, 61
1, 26224, Note_on_c, 0, 81, 0
1, 26240, Note_on_c, 0, 79, 66
1, 26304, Note_on_c, 0, 79, 0
1, 26320, Note_on_c, 0, 77, 66
1, 26384, Note_on_c, 0, 77, 0
1, 26400, Note_on_c, 0, 76, 58
1, 26464, Note_on_c, 0, 76, 0
1, 26480, Note_on_c, 0, 74, 42
1, 26544, Note_on_c, 0, 74, 0
1, 26560, Note_on_c, 0, 72, 50
1, 26624, Note_on_c, 0, 72, 0
1, 26640, Note_on_c, 0, 72, 77
1, 26640, Note_on_c, 0, 55, 61
1, 26652, Note_on_c, 0, 72, 0
1, 26655, Note_on_c, 0, 71, 47
1, 26667, Note_on_c, 0, 71, 0
1, 26670, Note_on_c, 0, 72, 50
1, 26682, Note_on_c, 0, 72, 0
1, 26685, Note_on_c, 0, 71, 42
1, 26697, Note_on_c, 0, 71, 0
1, 26700, Note_on_c, 0, 72, 52
1, 26712, Note_on_c, 0, 72, 0
1, 26715, Note_on_c, 0, 71, 42
1, 26727, Note_on_c, 0, 71, 0
1, 26730, Note_on_c, 0, 72, 52
1, 26742, Note_on_c, 0, 72, 0
1, 26745, Note_on_c, 0, 71, 42
1, 26757, Note_on_c, 0, 71, 0
1, 26760, Note_on_c, 0, 72, 50
1, 26772, Note_on_c, 0, 72, 0
1, 26775, Note_on_c, 0, 71, 42
1, 26787, Note_on_c, 0, 71, 0
1, 26790, Note_on_c, 0, 72, 50
1, 26802, Note_on_c, 0, 72, 0
1, 26805, Note_on_c, 0, 71, 42
1, 26817, Note_on_c, 0, 71, 0
1, 26820, Note_on_c, 0, 72, 52
1, 26832, Note_on_c, 0, 72, 0
1, 26832, Note_on_c, 0, 55, 0
1, 26835, Note_on_c, 0, 71, 43
1, 26847, Note_on_c, 0, 71, 0
1, 26850, Note_on_c, 0, 72, 54
1, 26862, Note_on_c, 0, 72, 0
1, 26865, Note_on_c, 0, 71, 45
1, 26877, Note_on_c, 0, 71, 0
1, 26880, Note_on_c, 0, 53, 61
1, 26880, Note_on_c, 0, 72, 61
1, 26892, Note_on_c, 0, 72, 0
1, 26895, Note_on_c, 0, 71, 44
1, 26907, Note_on_c, 0, 71, 0
1, 26910, Note_on_c, 0, 72, 54
1, 26922, Note_on_c, 0, 72, 0
1, 26925, Note_on_c, 0, 71, 47
1, 26937, Note_on_c, 0, 71, 0
1, 26940, Note_on_c, 0, 72, 43
1, 26952, Note_on_c, 0, 72, 0
1, 26955, Note_on_c, 0, 71, 47
1, 26967, Note_on_c, 0, 71, 0
1, 26970, Note_on_c, 0, 72, 52
1, 26982, Note_on_c, 0, 72, 0
1, 26985, Note_on_c, 0, 71, 52
1, 26997, Note_on_c, 0, 71, 0
1, 27000, Note_on_c, 0, 72, 47
1, 27012, Note_on_c, 0, 72, 0
1, 27015, Note_on_c, 0, 71, 47
1, 27027, Note_on_c, 0, 71, 0
1, 27030, Note_on_c, 0, 72, 44
1, 27042, Note_on_c, 0, 72, 0
1, 27045, Note_on_c, 0, 71, 42
1, 27057, Note_on_c, 0, 71, 0
1, 27060, Note_on_c, 0, 72, 43
1, 27072, Note_on_c, 0, 72, 0
1, 27072, Note_on_c, 0, 53, 0
1, 27075, Note_on_c, 0, 71, 42
1, 27087, Note_on_c, 0, 71, 0
1, 27090, Note_on_c, 0, 69, 43
1, 27102, Note_on_c, 0, 69, 0
1, 27105, Note_on_c, 0, 71, 42
1, 27117, Note_on_c, 0, 71, 0
1, 27120, Note_on_c, 0, 52, 54
1, 27120, Note_on_c, 0, 72, 71
1, 27312, Note_on_c, 0, 72, 0
1, 27312, Note_on_c, 0, 52, 0
1, 27360, Note_on_c, 0, 83, 45
1, 27360, Note_on_c, 0, 53, 54
1, 27408, Note_on_c, 0, 83, 0
1, 27420, Note_on_c, 0, 81, 61
1, 27468, Note_on_c, 0, 81, 0
1, 27480, Note_on_c, 0, 79, 61
1, 27528, Note_on_c, 0, 79, 0
1, 27540, Note_on_c, 0, 77, 52
1, 27552, Note_on_c, 0, 53, 0
1, 27588, Note_on_c, 0, 77, 0
1, 27600, Note_on_c, 0, 55, 50
1, 27600, Note_on_c, 0, 76, 44
1, 27792, Note_on_c, 0, 76, 0
1, 27792, Note_on_c, 0, 55, 0
1, 27840, Note_on_c, 0, 43, 61
1, 27840, Note_on_c, 0, 76, 45
1, 27852, Note_on_c, 0, 76, 0
1, 27855, Note_on_c, 0, 74, 31
1, 27867, Note_on_c, 0, 74, 0
1, 27870, Note_on_c, 0, 76, 42
1, 27882, Note_on_c, 0, 76, 0
1, 27885, Note_on_c, 0, 74, 42
1, 27897, Note_on_c, 0, 74, 0
1, 27900, Note_on_c, 0, 76, 43
1, 27912, Note_on_c, 0, 76, 0
1, 27915, Note_on_c, 0, 74, 42
1, 27927, Note_on_c, 0, 74, 0
1, 27930, Note_on_c, 0, 76, 50
1, 27942, Note_on_c, 0, 76, 0
1, 27945, Note_on_c, 0, 74, 42
1, 27957, Note_on_c, 0, 74, 0
1, 27960, Note_on_c, 0, 76, 54
1, 27972, Note_on_c, 0, 76, 0
1, 27975, Note_on_c, 0, 74, 42
1, 27987, Note_on_c, 0, 74, 0
1, 27990, Note_on_c, 0, 76, 42
1, 28002, Note_on_c, 0, 76, 0
1, 28005, Note_on_c, 0, 74, 42
1, 28017, Note_on_c, 0, 74, 0
1, 28020, Note_on_c, 0, 76, 50
1, 28032, Note_on_c, 0, 76, 0
1, 28032, Note_on_c, 0, 43, 0
1, 28035, Note_on_c, 0, 74, 42
1, 28047, Note_on_c, 0, 74, 0
1, 28050, Note_on_c, 0, 72, 50
1, 28062, Note_on_c, 0, 72, 0
1, 28065, Note_on_c, 0, 74, 43
1, 28077, Note_on_c, 0, 74, 0
1, 28080, Note_on_c, 0, 48, 52
1, 28080, Note_on_c, 0, 72, 80
1, 28272, Note_on_c, 0, 72, 0
1, 28272, Note_on_c, 0, 48, 0
1, 28320, Note_on_c, 0, 43, 58
1, 28512, Note_on_c, 0, 43, 0
1, 28560, Note_on_c, 0, 36, 52
1, 28752, Note_on_c, 0, 36, 0
1, 28800, Note_on_c, 0, 51, 42
1, 28800, Note_on_c, 0, 48, 77
1, 28920, Note_on_c, 0, 67, 61
1, 28992, Note_on_c, 0, 48, 0
1, 28992, Note_on_c, 0, 51, 0
1, 29016, Note_on_c, 0, 67, 0
1, 29040, Note_on_c, 0, 65, 42
1, 29136, Note_on_c, 0, 65, 0
1, 29160, Note_on_c, 0, 63, 52
1, 29256, Note_on_c, 0, 63, 0
1, 29280, Note_on_c, 0, 62, 71
1, 29376, Note_on_c, 0, 62, 0
1, 29400, Note_on_c, 0, 60, 42
1, 29496, Note_on_c, 0, 60, 0
1, 29520, Note_on_c, 0, 60, 77
1, 29760, Note_on_c, 0, 50, 62
1, 29760, Note_on_c, 0, 53, 26
1, 29904, Note_on_c, 0, 60, 0
1, 29952, Note_on_c, 0, 53, 0
1, 29952, Note_on_c, 0, 50, 0
1, 30000, Note_on_c, 0, 59, 50
1, 30000, Note_on_c, 0, 50, 71
1, 30000, Note_on_c, 0, 53, 45
1, 30192, Note_on_c, 0, 53, 0
1, 30192, Note_on_c, 0, 50, 0
1, 30192, Note_on_c, 0, 59, 0
1, 30240, Note_on_c, 0, 50, 74
1, 30240, Note_on_c, 0, 53, 44
1, 30360, Note_on_c, 0, 65, 69
1, 30432, Note_on_c, 0, 53, 0
1, 30432, Note_on_c, 0, 50, 0
1, 30456, Note_on_c, 0, 65, 0
1, 30480, Note_on_c, 0, 63, 58
1, 30576, Note_on_c, 0, 63, 0
1, 30600, Note_on_c, 0, 62, 71
1, 30696, Note_on_c, 0, 62, 0
1, 30720, Note_on_c, 0, 60, 71
1, 30816, Note_on_c, 0, 60, 0
1, 30840, Note_on_c, 0, 59, 54
1, 30936, Note_on_c, 0, 59, 0
1, 30960, Note_on_c, 0, 62, 61
1, 31200, Note_on_c, 0, 51, 51
1, 31200, Note_on_c, 0, 55, 53
1, 31344, Note_on_c, 0, 62, 0
1, 31392, Note_on_c, 0, 55, 0
1, 31392, Note_on_c, 0, 51, 0
1, 31440, Note_on_c, 0, 60, 55
1, 31440, Note_on_c, 0, 51, 54
1, 31440, Note_on_c, 0, 55, 52
1, 31632, Note_on_c, 0, 55, 0
1, 31632, Note_on_c, 0, 51, 0
1, 31632, Note_on_c, 0, 60, 0
1, 31680, Note_on_c, 0, 55, 9
1, 31680, Note_on_c, 0, 51, 24
1, 31800, Note_on_c, 0, 67, 54
1, 31872, Note_on_c, 0, 51, 0
1, 31872, Note_on_c, 0, 55, 0
1, 31896, Note_on_c, 0, 67, 0
1, 31920, Note_on_c, 0, 65, 54
1, 32016, Note_on_c, 0, 65, 0
1, 32040, Note_on_c, 0, 63, 58
1, 32136, Note_on_c, 0, 63, 0
1, 32160, Note_on_c, 0, 62, 66
1, 32256, Note_on_c, 0, 62, 0
1, 32280, Note_on_c, 0, 60, 66
1, 32376, Note_on_c, 0, 60, 0
1, 32400, Note_on_c, 0, 53, 42
1, 32400, Note_on_c, 0, 56, 42
1, 32520, Note_on_c, 0, 62, 61
1, 32592, Note_on_c, 0, 56, 0
1, 32592, Note_on_c, 0, 53, 0
1, 32616, Note_on_c, 0, 62, 0
1, 32640, Note_on_c, 0, 65, 58
1, 32736, Note_on_c, 0, 65, 0
1, 32760, Note_on_c, 0, 62, 61
1, 32856, Note_on_c, 0, 62, 0
1, 32880, Note_on_c, 0, 60, 54
1, 32976, Note_on_c, 0, 60, 0
1, 33000, Note_on_c, 0, 59, 46
1, 33096, Note_on_c, 0, 59, 0
1, 33120, Note_on_c, 0, 60, 58
1, 33120, Note_on_c, 0, 51, 50
1, 33312, Note_on_c, 0, 51, 0
1, 33312, Note_on_c, 0, 60, 0
1, 33360, Note_on_c, 0, 53, 44
1, 33360, Note_on_c, 0, 63, 71
1, 33456, Note_on_c, 0, 63, 0
1, 33480, Note_on_c, 0, 62, 61
1, 33552, Note_on_c, 0, 53, 0
1, 33576, Note_on_c, 0, 62, 0
1, 33600, Note_on_c, 0, 60, 66
1, 33600, Note_on_c, 0, 55, 47
1, 33696, Note_on_c, 0, 60, 0
1, 33720, Note_on_c, 0, 59, 52
1, 33792, Note_on_c, 0, 55, 0
1, 33816, Note_on_c, 0, 59, 0
1, 33840, Note_on_c, 0, 60, 61
1, 33840, Note_on_c, 0, 48, 47
1, 34032, Note_on_c, 0, 48, 0
1, 34032, Note_on_c, 0, 60, 0
1, 34080, Note_on_c, 0, 43, 52
1, 34272, Note_on_c, 0, 43, 0
1, 34320, Note_on_c, 0, 36, 42
1, 34512, Note_on_c, 0, 36, 0
1, 34560, Note_on_c, 0, 51, 42
1, 34560, Note_on_c, 0, 48, 77
1, 34680, Note_on_c, 0, 67, 61
1, 34752, Note_on_c, 0, 48, 0
1, 34752, Note_on_c, 0, 51, 0
1, 34776, Note_on_c, 0, 67, 0
1, 34800, Note_on_c, 0, 65, 42
1, 34896, Note_on_c, 0, 65, 0
1, 34920, Note_on_c, 0, 63, 52
1, 35016, Note_on_c, 0, 63, 0
1, 35040, Note_on_c, 0, 62, 71
1, 35136, Note_on_c, 0, 62, 0
1, 35160, Note_on_c, 0, 60, 42
1, 35256, Note_on_c, 0, 60, 0
1, 35280, Note_on_c, 0, 60, 77
1, 35520, Note_on_c, 0, 50, 62
1, 35520, Note_on_c, 0, 53, 26
1, 35664, Note_on_c, 0, 60, 0
1, 35712, Note_on_c, 0, 53, 0
1, 35712, Note_on_c, 0, 50, 0
1, 35760, Note_on_c, 0, 59, 50
1, 35760, Note_on_c, 0, 50, 71
1, 35760, Note_on_c, 0, 53, 45
1, 35952, Note_on_c, 0, 53, 0
1, 35952, Note_on_c, 0, 50, 0
1, 35952, Note_on_c, 0, 59, 0
1, 36000, Note_on_c, 0, 50, 74
1, 36000, Note_on_c, 0, 53, 44
1, 36120, Note_on_c, 0, 65, 69
1, 36192, Note_on_c, 0, 53, 0
1, 36192, Note_on_c, 0, 50, 0
1, 36216, Note_on_c, 0, 65, 0
1, 36240, Note_on_c, 0, 63, 58
1, 36336, Note_on_c, 0, 63, 0
1, 36360, Note_on_c, 0, 62, 71
1, 36456, Note_on_c, 0, 62, 0
1, 36480, Note_on_c, 0, 60, 71
1, 36576, Note_on_c, 0, 60, 0
1, 36600, Note_on_c, 0, 59, 54
1, 36696, Note_on_c, 0, 59, 0
1, 36720, Note_on_c, 0, 62, 61
1, 36960, Note_on_c, 0, 51, 51
1, 36960, Note_on_c, 0, 55, 53
1, 37104, Note_on_c, 0, 62, 0
1, 37152, Note_on_c, 0, 55, 0
1, 37152, Note_on_c, 0, 51, 0
1, 37200, Note_on_c, 0, 60, 55
1, 37200, Note_on_c, 0, 51, 54
1, 37200, Note_on_c, 0, 55, 52
1, 37392, Note_on_c, 0, 55, 0
1, 37392, Note_on_c, 0, 51, 0
1, 37392, Note_on_c, 0, 60, 0
1, 37440, Note_on_c, 0, 55, 9
1, 37440, Note_on_c, 0, 51, 24
1, 37560, Note_on_c, 0, 67, 54
1, 37632, Note_on_c, 0, 51, 0
1, 37632, Note_on_c, 0, 55, 0
1, 37656, Note_on_c, 0, 67, 0
1, 37680, Note_on_c, 0, 65, 54
1, 37776, Note_on_c, 0, 65, 0
1, 37800, Note_on_c, 0, 63, 58
1, 37896, Note_on_c, 0, 63, 0
1, 37920, Note_on_c, 0, 62, 66
1, 38016, Note_on_c, 0, 62, 0
1, 38040, Note_on_c, 0, 60, 66
1, 38136, Note_on_c, 0, 60, 0
1, 38160, Note_on_c, 0, 53, 42
1, 38160, Note_on_c, 0, 56, 42
1, 38280, Note_on_c, 0, 62, 61
1, 38352, Note_on_c, 0, 56, 0
1, 38352, Note_on_c, 0, 53, 0
1, 38376, Note_on_c, 0, 62, 0
1, 38400, Note_on_c, 0, 65, 58
1, 38496, Note_on_c, 0, 65, 0
1, 38520, Note_on_c, 0, 62, 61
1, 38616, Note_on_c, 0, 62, 0
1, 38640, Note_on_c, 0, 60, 54
1, 38736, Note_on_c, 0, 60, 0
1, 38760, Note_on_c, 0, 59, 46
1, 38856, Note_on_c, 0, 59, 0
1, 38880, Note_on_c, 0, 60, 58
1, 38880, Note_on_c, 0, 51, 50
1, 39072, Note_on_c, 0, 51, 0
1, 39072, Note_on_c, 0, 60, 0
1, 39120, Note_on_c, 0, 53, 44
1, 39120, Note_on_c, 0, 63, 71
1, 39216, Note_on_c, 0, 63, 0
1, 39240, Note_on_c, 0, 62, 61
1, 39312, Note_on_c, 0, 53, 0
1, 39336, Note_on_c, 0, 62, 0
1, 39360, Note_on_c, 0, 60, 66
1, 39360, Note_on_c, 0, 55, 47
1, 39456, Note_on_c, 0, 60, 0
1, 39480, Note_on_c, 0, 59, 52
1, 39552, Note_on_c, 0, 55, 0
1, 39576, Note_on_c, 0, 59, 0
1, 39600, Note_on_c, 0, 60, 61
1, 39600, Note_on_c, 0, 48, 47
1, 39792, Note_on_c, 0, 48, 0
1, 39792, Note_on_c, 0, 60, 0
1, 39840, Note_on_c, 0, 43, 52
1, 40032, Note_on_c, 0, 43, 0
1, 40080, Note_on_c, 0, 36, 42
1, 40272, Note_on_c, 0, 36, 0
1, 40320, Note_on_c, 0, 51, 42
1, 40320, Note_on_c, 0, 43, 43
1, 40440, Note_on_c, 0, 70, 77
1, 40512, Note_on_c, 0, 43, 0
1, 40512, Note_on_c, 0, 51, 0
1, 40536, Note_on_c, 0, 70, 0
1, 40560, Note_on_c, 0, 68, 66
1, 40656, Note_on_c, 0, 68, 0
1, 40680, Note_on_c, 0, 67, 62
1, 40776, Note_on_c, 0, 67, 0
1, 40800, Note_on_c, 0, 65, 58
1, 40896, Note_on_c, 0, 65, 0
1, 40920, Note_on_c, 0, 63, 71
1, 41016, Note_on_c, 0, 63, 0
1, 41040, Note_on_c, 0, 44, 52
1, 41040, Note_on_c, 0, 51, 48
1, 41160, Note_on_c, 0, 72, 71
1, 41232, Note_on_c, 0, 51, 0
1, 41232, Note_on_c, 0, 44, 0
1, 41256, Note_on_c, 0, 72, 0
1, 41280, Note_on_c, 0, 70, 83
1, 41376, Note_on_c, 0, 70, 0
1, 41400, Note_on_c, 0, 68, 54
1, 41496, Note_on_c, 0, 68, 0
1, 41520, Note_on_c, 0, 67, 50
1, 41616, Note_on_c, 0, 67, 0
1, 41640, Note_on_c, 0, 65, 50
1, 41736, Note_on_c, 0, 65, 0
1, 41760, Note_on_c, 0, 50, 66
1, 41760, Note_on_c, 0, 46, 69
1, 41880, Note_on_c, 0, 68, 66
1, 41952, Note_on_c, 0, 46, 0
1, 41952, Note_on_c, 0, 50, 0
1, 41976, Note_on_c, 0, 68, 0
1, 42000, Note_on_c, 0, 67, 77
1, 42096, Note_on_c, 0, 67, 0
1, 42120, Note_on_c, 0, 65, 75
1, 42216, Note_on_c, 0, 65, 0
1, 42240, Note_on_c, 0, 63, 61
1, 42336, Note_on_c, 0, 63, 0
1, 42360, Note_on_c, 0, 62, 61
1, 42456, Note_on_c, 0, 62, 0
1, 42480, Note_on_c, 0, 48, 71
1, 42600, Note_on_c, 0, 63, 52
1, 42672, Note_on_c, 0, 48, 0
1, 42720, Note_on_c, 0, 60, 52
1, 42792, Note_on_c, 0, 63, 0
1, 42840, Note_on_c, 0, 68, 47
1, 42912, Note_on_c, 0, 60, 0
1, 42960, Note_on_c, 0, 58, 58
1, 43032, Note_on_c, 0, 68, 0
1, 43080, Note_on_c, 0, 67, 42
1, 43152, Note_on_c, 0, 58, 0
1, 43176, Note_on_c, 0, 67, 0
1, 43200, Note_on_c, 0, 44, 61
1, 43320, Note_on_c, 0, 65, 45
1, 43392, Note_on_c, 0, 44, 0
1, 43440, Note_on_c, 0, 56, 61
1, 43512, Note_on_c, 0, 65, 0
1, 43560, Note_on_c, 0, 72, 47
1, 43632, Note_on_c, 0, 56, 0
1, 43680, Note_on_c, 0, 55, 77
1, 43752, Note_on_c, 0, 72, 0
1, 43800, Note_on_c, 0, 70, 71
1, 43872, Note_on_c, 0, 55, 0
1, 43896, Note_on_c, 0, 70, 0
1, 43920, Note_on_c, 0, 56, 58
1, 44040, Note_on_c, 0, 68, 52
1, 44112, Note_on_c, 0, 56, 0
1, 44160, Note_on_c, 0, 58, 52
1, 44232, Note_on_c, 0, 68, 0
1, 44280, Note_on_c, 0, 67, 50
1, 44352, Note_on_c, 0, 58, 0
1, 44400, Note_on_c, 0, 46, 42
1, 44472, Note_on_c, 0, 67, 0
1, 44520, Note_on_c, 0, 65, 42
1, 44592, Note_on_c, 0, 46, 0
1, 44616, Note_on_c, 0, 65, 0
1, 44640, Note_on_c, 0, 51, 44
1, 44640, Note_on_c, 0, 65, 61
1, 44832, Note_on_c, 0, 65, 0
1, 44880, Note_on_c, 0, 63, 71
1, 44928, Note_on_c, 0, 51, 0
1, 45000, Note_on_c, 0, 53, 43
1, 45072, Note_on_c, 0, 63, 0
1, 45096, Note_on_c, 0, 53, 0
1, 45120, Note_on_c, 0, 51, 50
1, 45216, Note_on_c, 0, 51, 0
1, 45240, Note_on_c, 0, 50, 42
1, 45336, Note_on_c, 0, 50, 0
1, 45360, Note_on_c, 0, 48, 77
1, 45360, Note_on_c, 0, 51, 42
1, 45480, Note_on_c, 0, 67, 61
1, 45552, Note_on_c, 0, 51, 0
1, 45552, Note_on_c, 0, 48, 0
1, 45576, Note_on_c, 0, 67, 0
1, 45600, Note_on_c, 0, 65, 42
1, 45696, Note_on_c, 0, 65, 0
1, 45720, Note_on_c, 0, 63, 52
1, 45816, Note_on_c, 0, 63, 0
1, 45840, Note_on_c, 0, 62, 71
1, 45936, Note_on_c, 0, 62, 0
1, 45960, Note_on_c, 0, 60, 42
1, 46056, Note_on_c, 0, 60, 0
1, 46080, Note_on_c, 0, 60, 77
1, 46320, Note_on_c, 0, 50, 62
1, 46320, Note_on_c, 0, 53, 26
1, 46464, Note_on_c, 0, 60, 0
1, 46512, Note_on_c, 0, 53, 0
1, 46512, Note_on_c, 0, 50, 0
1, 46560, Note_on_c, 0, 59, 50
1, 46560, Note_on_c, 0, 50, 71
1, 46560, Note_on_c, 0, 53, 45
1, 46752, Note_on_c, 0, 53, 0
1, 46752, Note_on_c, 0, 50, 0
1, 46752, Note_on_c, 0, 59, 0
1, 46800, Note_on_c, 0, 53, 44
1, 46800, Note_on_c, 0, 50, 74
1, 46920, Note_on_c, 0, 65, 69
1, 46992, Note_on_c, 0, 50, 0
1, 46992, Note_on_c, 0, 53, 0
1, 47016, Note_on_c, 0, 65, 0
1, 47040, Note_on_c, 0, 63, 58
1, 47136, Note_on_c, 0, 63, 0
1, 47160, Note_on_c, 0, 62, 71
1, 47256, Note_on_c, 0, 62, 0
1, 47280, Note_on_c, 0, 60, 71
1, 47376, Note_on_c, 0, 60, 0
1, 47400, Note_on_c, 0, 59, 54
1, 47496, Note_on_c, 0, 59, 0
1, 47520, Note_on_c, 0, 62, 61
1, 47760, Note_on_c, 0, 51, 51
1, 47760, Note_on_c, 0, 55, 53
1, 47904, Note_on_c, 0, 62, 0
1, 47952, Note_on_c, 0, 55, 0
1, 47952, Note_on_c, 0, 51, 0
1, 48000, Note_on_c, 0, 60, 55
1, 48000, Note_on_c, 0, 51, 54
1, 48000, Note_on_c, 0, 55, 52
1, 48192, Note_on_c, 0, 55, 0
1, 48192, Note_on_c, 0, 51, 0
1, 48192, Note_on_c, 0, 60, 0
1, 48240, Note_on_c, 0, 51, 24
1, 48240, Note_on_c, 0, 55, 9
1, 48360, Note_on_c, 0, 67, 54
1, 48432, Note_on_c, 0, 55, 0
1, 48432, Note_on_c, 0, 51, 0
1, 48456, Note_on_c, 0, 67, 0
1, 48480, Note_on_c, 0, 65, 54
1, 48576, Note_on_c, 0, 65, 0
1, 48600, Note_on_c, 0, 63, 58
1, 48696, Note_on_c, 0, 63, 0
1, 48720, Note_on_c, 0, 62, 66
1, 48816, Note_on_c, 0, 62, 0
1, 48840, Note_on_c, 0, 60, 66
1, 48936, Note_on_c, 0, 60, 0
1, 48960, Note_on_c, 0, 56, 42
1, 48960, Note_on_c, 0, 53, 42
1, 49080, Note_on_c, 0, 62, 61
1, 49152, Note_on_c, 0, 53, 0
1, 49152, Note_on_c, 0, 56, 0
1, 49176, Note_on_c, 0, 62, 0
1, 49200, Note_on_c, 0, 65, 58
1, 49296, Note_on_c, 0, 65, 0
1, 49320, Note_on_c, 0, 62, 61
1, 49416, Note_on_c, 0, 62, 0
1, 49440, Note_on_c, 0, 60, 54
1, 49536, Note_on_c, 0, 60, 0
1, 49560, Note_on_c, 0, 59, 46
1, 49656, Note_on_c, 0, 59, 0
1, 49680, Note_on_c, 0, 60, 58
1, 49680, Note_on_c, 0, 51, 50
1, 49872, Note_on_c, 0, 51, 0
1, 49872, Note_on_c, 0, 60, 0
1, 49920, Note_on_c, 0, 63, 71
1, 49920, Note_on_c, 0, 53, 44
1, 50016, Note_on_c, 0, 63, 0
1, 50040, Note_on_c, 0, 62, 61
1, 50112, Note_on_c, 0, 53, 0
1, 50136, Note_on_c, 0, 62, 0
1, 50160, Note_on_c, 0, 60, 66
1, 50160, Note_on_c, 0, 55, 47
1, 50256, Note_on_c, 0, 60, 0
1, 50280, Note_on_c, 0, 59, 52
1, 50352, Note_on_c, 0, 55, 0
1, 50376, Note_on_c, 0, 59, 0
1, 50400, Note_on_c, 0, 60, 61
1, 50400, Note_on_c, 0, 48, 47
1, 50592, Note_on_c, 0, 48, 0
1, 50592, Note_on_c, 0, 60, 0
1, 50640, Note_on_c, 0, 43, 52
1, 50832, Note_on_c, 0, 43, 0
1, 50880, Note_on_c, 0, 36, 42
1, 51072, Note_on_c, 0, 36, 0
1, 51120, Note_on_c, 0, 51, 42
1, 51120, Note_on_c, 0, 43, 43
1, 51240, Note_on_c, 0, 70, 77
1, 51312, Note_on_c, 0, 43, 0
1, 51312, Note_on_c, 0, 51, 0
1, 51336, Note_on_c, 0, 70, 0
1, 51360, Note_on_c, 0, 68, 66
1, 51456, Note_on_c, 0, 68, 0
1, 51480, Note_on_c, 0, 67, 62
1, 51576, Note_on_c, 0, 67, 0
1, 51600, Note_on_c, 0, 65, 58
1, 51696, Note_on_c, 0, 65, 0
1, 51720, Note_on_c, 0, 63, 71
1, 51816, Note_on_c, 0, 63, 0
1, 51840, Note_on_c, 0, 44, 52
1, 51840, Note_on_c, 0, 51, 48
1, 51960, Note_on_c, 0, 72, 71
1, 52032, Note_on_c, 0, 51, 0
1, 52032, Note_on_c, 0, 44, 0
1, 52056, Note_on_c, 0, 72, 0
1, 52080, Note_on_c, 0, 70, 83
1, 52176, Note_on_c, 0, 70, 0
1, 52200, Note_on_c, 0, 68, 54
1, 52296, Note_on_c, 0, 68, 0
1, 52320, Note_on_c, 0, 67, 50
1, 52416, Note_on_c, 0, 67, 0
1, 52440, Note_on_c, 0, 65, 50
1, 52536, Note_on_c, 0, 65, 0
1, 52560, Note_on_c, 0, 50, 66
1, 52560, Note_on_c, 0, 46, 69
1, 52680, Note_on_c, 0, 68, 66
1, 52752, Note_on_c, 0, 46, 0
1, 52752, Note_on_c, 0, 50, 0
1, 52776, Note_on_c, 0, 68, 0
1, 52800, Note_on_c, 0, 67, 77
1, 52896, Note_on_c, 0, 67, 0
1, 52920, Note_on_c, 0, 65, 75
1, 53016, Note_on_c, 0, 65, 0
1, 53040, Note_on_c, 0, 63, 61
1, 53136, Note_on_c, 0, 63, 0
1, 53160, Note_on_c, 0, 62, 61
1, 53256, Note_on_c, 0, 62, 0
1, 53280, Note_on_c, 0, 48, 71
1, 53400, Note_on_c, 0, 63, 52
1, 53472, Note_on_c, 0, 48, 0
1, 53520, Note_on_c, 0, 60, 52
1, 53592, Note_on_c, 0, 63, 0
1, 53640, Note_on_c, 0, 68, 47
1, 53712, Note_on_c, 0, 60, 0
1, 53760, Note_on_c, 0, 58, 58
1, 53832, Note_on_c, 0, 68, 0
1, 53880, Note_on_c, 0, 67, 42
1, 53952, Note_on_c, 0, 58, 0
1, 53976, Note_on_c, 0, 67, 0
1, 54000, Note_on_c, 0, 44, 61
1, 54120, Note_on_c, 0, 65, 45
1, 54192, Note_on_c, 0, 44, 0
1, 54240, Note_on_c, 0, 56, 61
1, 54312, Note_on_c, 0, 65, 0
1, 54360, Note_on_c, 0, 72, 47
1, 54432, Note_on_c, 0, 56, 0
1, 54480, Note_on_c, 0, 55, 77
1, 54552, Note_on_c, 0, 72, 0
1, 54600, Note_on_c, 0, 70, 71
1, 54672, Note_on_c, 0, 55, 0
1, 54696, Note_on_c, 0, 70, 0
1, 54720, Note_on_c, 0, 56, 58
1, 54840, Note_on_c, 0, 68, 52
1, 54912, Note_on_c, 0, 56, 0
1, 54960, Note_on_c, 0, 58, 52
1, 55032, Note_on_c, 0, 68, 0
1, 55080, Note_on_c, 0, 67, 50
1, 55152, Note_on_c, 0, 58, 0
1, 55200, Note_on_c, 0, 46, 42
1, 55272, Note_on_c, 0, 67, 0
1, 55320, Note_on_c, 0, 65, 42
1, 55392, Note_on_c, 0, 46, 0
1, 55416, Note_on_c, 0, 65, 0
1, 55440, Note_on_c, 0, 51, 44
1, 55440, Note_on_c, 0, 65, 61
1, 55632, Note_on_c, 0, 65, 0
1, 55680, Note_on_c, 0, 63, 71
1, 55728, Note_on_c, 0, 51, 0
1, 55800, Note_on_c, 0, 53, 43
1, 55872, Note_on_c, 0, 63, 0
1, 55896, Note_on_c, 0, 53, 0
1, 55920, Note_on_c, 0, 51, 50
1, 56016, Note_on_c, 0, 51, 0
1, 56040, Note_on_c, 0, 50, 42
1, 56136, Note_on_c, 0, 50, 0
1, 56160, Note_on_c, 0, 48, 77
1, 56160, Note_on_c, 0, 51, 42
1, 56280, Note_on_c, 0, 67, 61
1, 56352, Note_on_c, 0, 51, 0
1, 56352, Note_on_c, 0, 48, 0
1, 56376, Note_on_c, 0, 67, 0
1, 56400, Note_on_c, 0, 65, 42
1, 56496, Note_on_c, 0, 65, 0
1, 56520, Note_on_c, 0, 63, 52
1, 56616, Note_on_c, 0, 63, 0
1, 56640, Note_on_c, 0, 62, 71
1, 56736, Note_on_c, 0, 62, 0
1, 56760, Note_on_c, 0, 60, 42
1, 56856, Note_on_c, 0, 60, 0
1, 56880, Note_on_c, 0, 60, 77
1, 57120, Note_on_c, 0, 50, 62
1, 57120, Note_on_c, 0, 53, 26
1, 57264, Note_on_c, 0, 60, 0
1, 57312, Note_on_c, 0, 53, 0
1, 57312, Note_on_c, 0, 50, 0
1, 57360, Note_on_c, 0, 59, 50
1, 57360, Note_on_c, 0, 50, 71
1, 57360, Note_on_c, 0, 53, 45
1, 57552, Note_on_c, 0, 53, 0
1, 57552, Note_on_c, 0, 50, 0
1, 57552, Note_on_c, 0, 59, 0
1, 57600, Note_on_c, 0, 53, 44
1, 57600, Note_on_c, 0, 50, 74
1, 57720, Note_on_c, 0, 65, 69
1, 57792, Note_on_c, 0, 50, 0
1, 57792, Note_on_c, 0, 53, 0
1, 57816, Note_on_c, 0, 65, 0
1, 57840, Note_on_c, 0, 63, 58
1, 57936, Note_on_c, 0, 63, 0
1, 57960, Note_on_c, 0, 62, 71
1, 58056, Note_on_c, 0, 62, 0
1, 58080, Note_on_c, 0, 60, 71
1, 58176, Note_on_c, 0, 60, 0
1, 58200, Note_on_c, 0, 59, 54
1, 58296, Note_on_c, 0, 59, 0
1, 58320, Note_on_c, 0, 62, 61
1, 58560, Note_on_c, 0, 51, 51
1, 58560, Note_on_c, 0, 55, 53
1, 58704, Note_on_c, 0, 62, 0
1, 58752, Note_on_c, 0, 55, 0
1, 58752, Note_on_c, 0, 51, 0
1, 58800, Note_on_c, 0, 60, 55
1, 58800, Note_on_c, 0, 51, 54
1, 58800, Note_on_c, 0, 55, 52
1, 58992, Note_on_c, 0, 55, 0
1, 58992, Note_on_c, 0, 51, 0
1, 58992, Note_on_c, 0, 60, 0
1, 59040, Note_on_c, 0, 51, 24
1, 59040, Note_on_c, 0, 55, 9
1, 59160, Note_on_c, 0, 67, 54
1, 59232, Note_on_c, 0, 55, 0
1, 59232, Note_on_c, 0, 51, 0
1, 59256, Note_on_c, 0, 67, 0
1, 59280, Note_on_c, 0, 65, 54
1, 59376, Note_on_c, 0, 65, 0
1, 59400, Note_on_c, 0, 63, 58
1, 59496, Note_on_c, 0, 63, 0
1, 59520, Note_on_c, 0, 62, 66
1, 59616, Note_on_c, 0, 62, 0
1, 59640, Note_on_c, 0, 60, 66
1, 59736, Note_on_c, 0, 60, 0
1, 59760, Note_on_c, 0, 56, 42
1, 59760, Note_on_c, 0, 53, 42
1, 59880, Note_on_c, 0, 62, 61
1, 59952, Note_on_c, 0, 53, 0
1, 59952, Note_on_c, 0, 56, 0
1, 59976, Note_on_c, 0, 62, 0
1, 60000, Note_on_c, 0, 65, 58
1, 60096, Note_on_c, 0, 65, 0
1, 60120, Note_on_c, 0, 62, 61
1, 60216, Note_on_c, 0, 62, 0
1, 60240, Note_on_c, 0, 60, 54
1, 60336, Note_on_c, 0, 60, 0
1, 60360, Note_on_c, 0, 59, 46
1, 60456, Note_on_c, 0, 59, 0
1, 60480, Note_on_c, 0, 60, 58
1, 60480, Note_on_c, 0, 51, 50
1, 60672, Note_on_c, 0, 51, 0
1, 60672, Note_on_c, 0, 60, 0
1, 60720, Note_on_c, 0, 63, 71
1, 60720, Note_on_c, 0, 53, 44
1, 60816, Note_on_c, 0, 63, 0
1, 60840, Note_on_c, 0, 62, 61
1, 60912, Note_on_c, 0, 53, 0
1, 60936, Note_on_c, 0, 62, 0
1, 60960, Note_on_c, 0, 60, 66
1, 60960, Note_on_c, 0, 55, 47
1, 61056, Note_on_c, 0, 60, 0
1, 61080, Note_on_c, 0, 59, 52
1, 61152, Note_on_c, 0, 55, 0
1, 61176, Note_on_c, 0, 59, 0
1, 61200, Note_on_c, 0, 60, 61
1, 61200, Note_on_c, 0, 48, 47
1, 61392, Note_on_c, 0, 48, 0
1, 61392, Note_on_c, 0, 60, 0
1, 61440, Note_on_c, 0, 43, 52
1, 61632, Note_on_c, 0, 43, 0
1, 61680, Note_on_c, 0, 36, 42
1, 61872, Note_on_c, 0, 36, 0
1, 61920, Note_on_c, 0, 64, 45
1, 61920, Note_on_c, 0, 60, 69
1, 61920, Note_on_c, 0, 72, 83
1, 62112, Note_on_c, 0, 72, 0
1, 62160, Note_on_c, 0, 67, 45
1, 62224, Note_on_c, 0, 67, 0
1, 62240, Note_on_c, 0, 72, 71
1, 62304, Note_on_c, 0, 72, 0
1, 62304, Note_on_c, 0, 60, 0
1, 62304, Note_on_c, 0, 64, 0
1, 62320, Note_on_c, 0, 76, 81
1, 62384, Note_on_c, 0, 76, 0
1, 62400, Note_on_c, 0, 65, 34
1, 62400, Note_on_c, 0, 55, 57
1, 62400, Note_on_c, 0, 74, 71
1, 62464, Note_on_c, 0, 74, 0
1, 62480, Note_on_c, 0, 72, 66
1, 62544, Note_on_c, 0, 72, 0
1, 62560, Note_on_c, 0, 71, 50
1, 62592, Note_on_c, 0, 55, 0
1, 62592, Note_on_c, 0, 65, 0
1, 62624, Note_on_c, 0, 71, 0
1, 62640, Note_on_c, 0, 64, 43
1, 62640, Note_on_c, 0, 60, 74
1, 62640, Note_on_c, 0, 72, 83
1, 62832, Note_on_c, 0, 72, 0
1, 62880, Note_on_c, 0, 67, 45
1, 62944, Note_on_c, 0, 67, 0
1, 62960, Note_on_c, 0, 72, 71
1, 63024, Note_on_c, 0, 72, 0
1, 63024, Note_on_c, 0, 60, 0
1, 63024, Note_on_c, 0, 64, 0
1, 63040, Note_on_c, 0, 76, 81
1, 63104, Note_on_c, 0, 76, 0
1, 63120, Note_on_c, 0, 55, 43
1, 63120, Note_on_c, 0, 65, 42
1, 63120, Note_on_c, 0, 74, 71
1, 63184, Note_on_c, 0, 74, 0
1, 63200, Note_on_c, 0, 72, 66
1, 63264, Note_on_c, 0, 72, 0
1, 63280, Note_on_c, 0, 71, 50
1, 63312, Note_on_c, 0, 65, 0
1, 63312, Note_on_c, 0, 55, 0
1, 63344, Note_on_c, 0, 71, 0
1, 63360, Note_on_c, 0, 60, 54
1, 63360, Note_on_c, 0, 72, 52
1, 63360, Note_on_c, 0, 64, 45
1, 63552, Note_on_c, 0, 64, 0
1, 63552, Note_on_c, 0, 72, 0
1, 63552, Note_on_c, 0, 60, 0
1, 63600, Note_on_c, 0, 79, 61
1, 63664, Note_on_c, 0, 79, 0
1, 63680, Note_on_c, 0, 81, 66
1, 63744, Note_on_c, 0, 81, 0
1, 63760, Note_on_c, 0, 83, 66
1, 63824, Note_on_c, 0, 83, 0
1, 63840, Note_on_c, 0, 60, 58
1, 63840, Note_on_c, 0, 84, 58
1, 63904, Note_on_c, 0, 84, 0
1, 63920, Note_on_c, 0, 79, 42
1, 63984, Note_on_c, 0, 79, 0
1, 64000, Note_on_c, 0, 76, 50
1, 64032, Note_on_c, 0, 60, 0
1, 64064, Note_on_c, 0, 76, 0
1, 64080, Note_on_c, 0, 62, 61
1, 64080, Note_on_c, 0, 79, 77
1, 64092, Note_on_c, 0, 79, 0
1, 64095, Note_on_c, 0, 77, 47
1, 64107, Note_on_c, 0, 77, 0
1, 64110, Note_on_c, 0, 79, 50
1, 64122, Note_on_c, 0, 79, 0
1, 64125, Note_on_c, 0, 77, 42
1, 64137, Note_on_c, 0, 77, 0
1, 64140, Note_on_c, 0, 79, 52
1, 64152, Note_on_c, 0, 79, 0
1, 64155, Note_on_c, 0, 77, 42
1, 64167, Note_on_c, 0, 77, 0
1, 64170, Note_on_c, 0, 79, 52
1, 64182, Note_on_c, 0, 79, 0
1, 64185, Note_on_c, 0, 77, 42
1, 64197, Note_on_c, 0, 77, 0
1, 64200, Note_on_c, 0, 79, 50
1, 64212, Note_on_c, 0, 79, 0
1, 64215, Note_on_c, 0, 77, 42
1, 64227, Note_on_c, 0, 77, 0
1, 64230, Note_on_c, 0, 79, 50
1, 64242, Note_on_c, 0, 79, 0
1, 64245, Note_on_c, 0, 77, 42
1, 64257, Note_on_c, 0, 77, 0
1, 64260, Note_on_c, 0, 79, 52
1, 64272, Note_on_c, 0, 79, 0
1, 64272, Note_on_c, 0, 62, 0
1, 64275, Note_on_c, 0, 77, 43
1, 64287, Note_on_c, 0, 77, 0
1, 64290, Note_on_c, 0, 79, 54
1, 64302, Note_on_c, 0, 79, 0
1, 64305, Note_on_c, 0, 77, 45
1, 64317, Note_on_c, 0, 77, 0
1, 64320, Note_on_c, 0, 55, 54
1, 64320, Note_on_c, 0, 79, 61
1, 64332, Note_on_c, 0, 79, 0
1, 64335, Note_on_c, 0, 77, 44
1, 64347, Note_on_c, 0, 77, 0
1, 64350, Note_on_c, 0, 79, 54
1, 64362, Note_on_c, 0, 79, 0
1, 64365, Note_on_c, 0, 77, 47
1, 64377, Note_on_c, 0, 77, 0
1, 64380, Note_on_c, 0, 79, 43
1, 64392, Note_on_c, 0, 79, 0
1, 64395, Note_on_c, 0, 77, 47
1, 64407, Note_on_c, 0, 77, 0
1, 64410, Note_on_c, 0, 79, 52
1, 64422, Note_on_c, 0, 79, 0
1, 64425, Note_on_c, 0, 77, 52
1, 64437, Note_on_c, 0, 77, 0
1, 64440, Note_on_c, 0, 79, 47
1, 64452, Note_on_c, 0, 79, 0
1, 64455, Note_on_c, 0, 77, 47
1, 64467, Note_on_c, 0, 77, 0
1, 64470, Note_on_c, 0, 79, 44
1, 64482, Note_on_c, 0, 79, 0
1, 64485, Note_on_c, 0, 77, 42
1, 64497, Note_on_c, 0, 77, 0
1, 64500, Note_on_c, 0, 79, 43
1, 64512, Note_on_c, 0, 79, 0
1, 64512, Note_on_c, 0, 55, 0
1, 64515, Note_on_c, 0, 77, 42
1, 64527, Note_on_c, 0, 77, 0
1, 64530, Note_on_c, 0, 76, 43
1, 64542, Note_on_c, 0, 76, 0
1, 64545, Note_on_c, 0, 77, 42
1, 64557, Note_on_c, 0, 77, 0
1, 64560, Note_on_c, 0, 60, 58
1, 64560, Note_on_c, 0, 76, 61
1, 64752, Note_on_c, 0, 76, 0
1, 64752, Note_on_c, 0, 60, 0
1, 64800, Note_on_c, 0, 53, 66
1, 64800, Note_on_c, 0, 74, 52
1, 64992, Note_on_c, 0, 74, 0
1, 64992, Note_on_c, 0, 53, 0
1, 65040, Note_on_c, 0, 81, 61
1, 65104, Note_on_c, 0, 81, 0
1, 65120, Note_on_c, 0, 79, 66
1, 65184, Note_on_c, 0, 79, 0
1, 65200, Note_on_c, 0, 77, 66
1, 65264, Note_on_c, 0, 77, 0
1, 65280, Note_on_c, 0, 76, 58
1, 65344, Note_on_c, 0, 76, 0
1, 65360, Note_on_c, 0, 74, 42
1, 65424, Note_on_c, 0, 74, 0
1, 65440, Note_on_c, 0, 72, 50
1, 65504, Note_on_c, 0, 72, 0
1, 65520, Note_on_c, 0, 55, 52
1, 65520, Note_on_c, 0, 72, 77
1, 65532, Note_on_c, 0, 72, 0
1, 65535, Note_on_c, 0, 71, 47
1, 65547, Note_on_c, 0, 71, 0
1, 65550, Note_on_c, 0, 72, 50
1, 65562, Note_on_c, 0, 72, 0
1, 65565, Note_on_c, 0, 71, 42
1, 65577, Note_on_c, 0, 71, 0
1, 65580, Note_on_c, 0, 72, 52
1, 65592, Note_on_c, 0, 72, 0
1, 65595, Note_on_c, 0, 71, 42
1, 65607, Note_on_c, 0, 71, 0
1, 65610, Note_on_c, 0, 72, 52
1, 65622, Note_on_c, 0, 72, 0
1, 65625, Note_on_c, 0, 71, 42
1, 65637, Note_on_c, 0, 71, 0
1, 65640, Note_on_c, 0, 72, 50
1, 65652, Note_on_c, 0, 72, 0
1, 65655, Note_on_c, 0, 71, 42
1, 65667, Note_on_c, 0, 71, 0
1, 65670, Note_on_c, 0, 72, 50
1, 65682, Note_on_c, 0, 72, 0
1, 65685, Note_on_c, 0, 71, 42
1, 65697, Note_on_c, 0, 71, 0
1, 65700, Note_on_c, 0, 72, 52
1, 65712, Note_on_c, 0, 72, 0
1, 65712, Note_on_c, 0, 55, 0
1, 65715, Note_on_c, 0, 71, 43
1, 65727, Note_on_c, 0, 71, 0
1, 65730, Note_on_c, 0, 72, 54
1, 65742, Note_on_c, 0, 72, 0
1, 65745, Note_on_c, 0, 71, 45
1, 65757, Note_on_c, 0, 71, 0
1, 65760, Note_on_c, 0, 53, 50
1, 65760, Note_on_c, 0, 72, 61
1, 65772, Note_on_c, 0, 72, 0
1, 65775, Note_on_c, 0, 71, 44
1, 65787, Note_on_c, 0, 71, 0
1, 65790, Note_on_c, 0, 72, 54
1, 65802, Note_on_c, 0, 72, 0
1, 65805, Note_on_c, 0, 71, 47
1, 65817, Note_on_c, 0, 71, 0
1, 65820, Note_on_c, 0, 72, 43
1, 65832, Note_on_c, 0, 72, 0
1, 65835, Note_on_c, 0, 71, 47
1, 65847, Note_on_c, 0, 71, 0
1, 65850, Note_on_c, 0, 72, 52
1, 65862, Note_on_c, 0, 72, 0
1, 65865, Note_on_c, 0, 71, 52
1, 65877, Note_on_c, 0, 71, 0
1, 65880, Note_on_c, 0, 72, 47
1, 65892, Note_on_c, 0, 72, 0
1, 65895, Note_on_c, 0, 71, 47
1, 65907, Note_on_c, 0, 71, 0
1, 65910, Note_on_c, 0, 72, 44
1, 65922, Note_on_c, 0, 72, 0
1, 65925, Note_on_c, 0, 71, 42
1, 65937, Note_on_c, 0, 71, 0
1, 65940, Note_on_c, 0, 72, 43
1, 65952, Note_on_c, 0, 72, 0
1, 65952, Note_on_c, 0, 53, 0
1, 65955, Note_on_c, 0, 71, 42
1, 65967, Note_on_c, 0, 71, 0
1, 65970, Note_on_c, 0, 69, 43
1, 65982, Note_on_c, 0, 69, 0
1, 65985, Note_on_c, 0, 71, 42
1, 65997, Note_on_c, 0, 71, 0
1, 66000, Note_on_c, 0, 52, 52
1, 66000, Note_on_c, 0, 72, 71
1, 66192, Note_on_c, 0, 72, 0
1, 66192, Note_on_c, 0, 52, 0
1, 66240, Note_on_c, 0, 67, 54
1, 66432, Note_on_c, 0, 67, 0
1, 66480, Note_on_c, 0, 59, 43
1, 66480, Note_on_c, 0, 77, 58
1, 66480, Note_on_c, 0, 74, 77
1, 66672, Note_on_c, 0, 74, 0
1, 66672, Note_on_c, 0, 77, 0
1, 66672, Note_on_c, 0, 59, 0
1, 66720, Note_on_c, 0, 60, 52
1, 66720, Note_on_c, 0, 76, 58
1, 66720, Note_on_c, 0, 72, 53
1, 66912, Note_on_c, 0, 72, 0
1, 66912, Note_on_c, 0, 76, 0
1, 66912, Note_on_c, 0, 60, 0
1, 66960, Note_on_c, 0, 55, 58
1, 66960, Note_on_c, 0, 76, 65
1, 66960, Note_on_c, 0, 72, 51
1, 67152, Note_on_c, 0, 72, 0
1, 67152, Note_on_c, 0, 76, 0
1, 67152, Note_on_c, 0, 55, 0
1, 67200, Note_on_c, 0, 67, 42
1, 67200, Note_on_c, 0, 71, 43
1, 67200, Note_on_c, 0, 74, 45
1, 67392, Note_on_c, 0, 74, 0
1, 67392, Note_on_c, 0, 71, 0
1, 67392, Note_on_c, 0, 67, 0
1, 67440, Note_on_c, 0, 55, 47
1, 67632, Note_on_c, 0, 55, 0
1, 67680, Note_on_c, 0, 52, 50
1, 67680, Note_on_c, 0, 60, 44
1, 67680, Note_on_c, 0, 79, 40
1, 67872, Note_on_c, 0, 79, 0
1, 67920, Note_on_c, 0, 72, 61
1, 67984, Note_on_c, 0, 72, 0
1, 68000, Note_on_c, 0, 76, 54
1, 68064, Note_on_c, 0, 76, 0
1, 68064, Note_on_c, 0, 60, 0
1, 68064, Note_on_c, 0, 52, 0
1, 68080, Note_on_c, 0, 79, 58
1, 68144, Note_on_c, 0, 79, 0
1, 68160, Note_on_c, 0, 60, 42
1, 68160, Note_on_c, 0, 52, 49
1, 68160, Note_on_c, 0, 76, 66
1, 68224, Note_on_c, 0, 76, 0
1, 68240, Note_on_c, 0, 79, 71
1, 68304, Note_on_c, 0, 79, 0
1, 68320, Note_on_c, 0, 82, 77
1, 68352, Note_on_c, 0, 52, 0
1, 68352, Note_on_c, 0, 60, 0
1, 68384, Note_on_c, 0, 82, 0
1, 68400, Note_on_c, 0, 53, 71
1, 68400, Note_on_c, 0, 82, 83
1, 68592, Note_on_c, 0, 82, 0
1, 68592, Note_on_c, 0, 53, 0
1, 68640, Note_on_c, 0, 65, 52
1, 68640, Note_on_c, 0, 81, 45
1, 68832, Note_on_c, 0, 81, 0
1, 68832, Note_on_c, 0, 65, 0
1, 68880, Note_on_c, 0, 64, 54
1, 68880, Note_on_c, 0, 79, 45
1, 69072, Note_on_c, 0, 79, 0
1, 69072, Note_on_c, 0, 64, 0
1, 69120, Note_on_c, 0, 62, 77
1, 69120, Note_on_c, 0, 77, 44
1, 69184, Note_on_c, 0, 77, 0
1, 69200, Note_on_c, 0, 76, 45
1, 69264, Note_on_c, 0, 76, 0
1, 69280, Note_on_c, 0, 77, 44
1, 69312, Note_on_c, 0, 62, 0
1, 69344, Note_on_c, 0, 77, 0
1, 69360, Note_on_c, 0, 81, 43
1, 69360, Note_on_c, 0, 65, 50
1, 69424, Note_on_c, 0, 81, 0
1, 69440, Note_on_c, 0, 79, 50
1, 69504, Note_on_c, 0, 79, 0
1, 69520, Note_on_c, 0, 77, 66
1, 69552, Note_on_c, 0, 65, 0
1, 69584, Note_on_c, 0, 77, 0
1, 69600, Note_on_c, 0, 66, 77
1, 69600, Note_on_c, 0, 76, 71
1, 69664, Note_on_c, 0, 76, 0
1, 69680, Note_on_c, 0, 74, 54
1, 69744, Note_on_c, 0, 74, 0
1, 69760, Note_on_c, 0, 72, 42
1, 69792, Note_on_c, 0, 66, 0
1, 69824, Note_on_c, 0, 72, 0
1, 69840, Note_on_c, 0, 67, 50
1, 69840, Note_on_c, 0, 72, 47
1, 70032, Note_on_c, 0, 67, 0
1, 70080, Note_on_c, 0, 62, 71
1, 70224, Note_on_c, 0, 72, 0
1, 70272, Note_on_c, 0, 62, 0
1, 70320, Note_on_c, 0, 55, 52
1, 70320, Note_on_c, 0, 71, 58
1, 70512, Note_on_c, 0, 71, 0
1, 70512, Note_on_c, 0, 55, 0
1, 70560, Note_on_c, 0, 64, 62
1, 70560, Note_on_c, 0, 60, 71
1, 70560, Note_on_c, 0, 72, 83
1, 70752, Note_on_c, 0, 72, 0
1, 70800, Note_on_c, 0, 67, 45
1, 70864, Note_on_c, 0, 67, 0
1, 70880, Note_on_c, 0, 72, 71
1, 70944, Note_on_c, 0, 72, 0
1, 70944, Note_on_c, 0, 60, 0
1, 70944, Note_on_c, 0, 64, 0
1, 70960, Note_on_c, 0, 76, 81
1, 71024, Note_on_c, 0, 76, 0
1, 71040, Note_on_c, 0, 65, 42
1, 71040, Note_on_c, 0, 55, 50
1, 71040, Note_on_c, 0, 74, 71
1, 71104, Note_on_c, 0, 74, 0
1, 71120, Note_on_c, 0, 72, 66
1, 71184, Note_on_c, 0, 72, 0
1, 71200, Note_on_c, 0, 71, 50
1, 71232, Note_on_c, 0, 55, 0
1, 71232, Note_on_c, 0, 65, 0
1, 71264, Note_on_c, 0, 71, 0
1, 71280, Note_on_c, 0, 60, 54
1, 71280, Note_on_c, 0, 64, 42
1, 71280, Note_on_c, 0, 72, 83
1, 71472, Note_on_c, 0, 72, 0
1, 71520, Note_on_c, 0, 67, 45
1, 71584, Note_on_c, 0, 67, 0
1, 71600, Note_on_c, 0, 72, 71
1, 71664, Note_on_c, 0, 72, 0
1, 71664, Note_on_c, 0, 64, 0
1, 71664, Note_on_c, 0, 60, 0
1, 71680, Note_on_c, 0, 76, 81
1, 71744, Note_on_c, 0, 76, 0
1, 71760, Note_on_c, 0, 55, 54
1, 71760, Note_on_c, 0, 65, 39
1, 71760, Note_on_c, 0, 74, 71
1, 71824, Note_on_c, 0, 74, 0
1, 71840, Note_on_c, 0, 72, 66
1, 71904, Note_on_c, 0, 72, 0
1, 71920, Note_on_c, 0, 71, 50
1, 71952, Note_on_c, 0, 65, 0
1, 71952, Note_on_c, 0, 55, 0
1, 71984, Note_on_c, 0, 71, 0
1, 72000, Note_on_c, 0, 64, 30
1, 72000, Note_on_c, 0, 72, 52
1, 72000, Note_on_c, 0, 60, 50
1, 72192, Note_on_c, 0, 60, 0
1, 72192, Note_on_c, 0, 72, 0
1, 72192, Note_on_c, 0, 64, 0
1, 72240, Note_on_c, 0, 79, 61
1, 72304, Note_on_c, 0, 79, 0
1, 72320, Note_on_c, 0, 81, 66
1, 72384, Note_on_c, 0, 81, 0
1, 72400, Note_on_c, 0, 83, 66
1, 72464, Note_on_c, 0, 83, 0
1, 72480, Note_on_c, 0, 60, 66
1, 72480, Note_on_c, 0, 84, 58
1, 72544, Note_on_c, 0, 84, 0
1, 72560, Note_on_c, 0, 79, 42
1, 72624, Note_on_c, 0, 79, 0
1, 72640, Note_on_c, 0, 76, 50
1, 72672, Note_on_c, 0, 60, 0
1, 72704, Note_on_c, 0, 76, 0
1, 72720, Note_on_c, 0, 62, 42
1, 72720, Note_on_c, 0, 79, 77
1, 72732, Note_on_c, 0, 79, 0
1, 72735, Note_on_c, 0, 77, 47
1, 72747, Note_on_c, 0, 77, 0
1, 72750, Note_on_c, 0, 79, 50
1, 72762, Note_on_c, 0, 79, 0
1, 72765, Note_on_c, 0, 77, 42
1, 72777, Note_on_c, 0, 77, 0
1, 72780, Note_on_c, 0, 79, 52
1, 72792, Note_on_c, 0, 79, 0
1, 72795, Note_on_c, 0, 77, 42
1, 72807, Note_on_c, 0, 77, 0
1, 72810, Note_on_c, 0, 79, 52
1, 72822, Note_on_c, 0, 79, 0
1, 72825, Note_on_c, 0, 77, 42
1, 72837, Note_on_c, 0, 77, 0
1, 72840, Note_on_c, 0, 79, 50
1, 72852, Note_on_c, 0, 79, 0
1, 72855, Note_on_c, 0, 77, 42
1, 72867, Note_on_c, 0, 77, 0
1, 72870, Note_on_c, 0, 79, 50
1, 72882, Note_on_c, 0, 79, 0
1, 72885, Note_on_c, 0, 77, 42
1, 72897, Note_on_c, 0, 77, 0
1, 72900, Note_on_c, 0, 79, 52
1, 72912, Note_on_c, 0, 79, 0
1, 72912, Note_on_c, 0, 62, 0
1, 72915, Note_on_c, 0, 77, 43
1, 72927, Note_on_c, 0, 77, 0
1, 72930, Note_on_c, 0, 79, 54
1, 72942, Note_on_c, 0, 79, 0
1, 72945, Note_on_c, 0, 77, 45
1, 72957, Note_on_c, 0, 77, 0
1, 72960, Note_on_c, 0, 55, 54
1, 72960, Note_on_c, 0, 79, 61
1, 72972, Note_on_c, 0, 79, 0
1, 72975, Note_on_c, 0, 77, 44
1, 72987, Note_on_c, 0, 77, 0
1, 72990, Note_on_c, 0, 79, 54
1, 73002, Note_on_c, 0, 79, 0
1, 73005, Note_on_c, 0, 77, 47
1, 73017, Note_on_c, 0, 77, 0
1, 73020, Note_on_c, 0, 79, 43
1, 73032, Note_on_c, 0, 79, 0
1, 73035, Note_on_c, 0, 77, 47
1, 73047, Note_on_c, 0, 77, 0
1, 73050, Note_on_c, 0, 79, 52
1, 73062, Note_on_c, 0, 79, 0
1, 73065, Note_on_c, 0, 77, 52
1, 73077, Note_on_c, 0, 77, 0
1, 73080, Note_on_c, 0, 79, 47
1, 73092, Note_on_c, 0, 79, 0
1, 73095, Note_on_c, 0, 77, 47
1, 73107, Note_on_c, 0, 77, 0
1, 73110, Note_on_c, 0, 79, 44
1, 73122, Note_on_c, 0, 79, 0
1, 73125, Note_on_c, 0, 77, 42
1, 73137, Note_on_c, 0, 77, 0
1, 73140, Note_on_c, 0, 79, 43
1, 73152, Note_on_c, 0, 79, 0
1, 73152, Note_on_c, 0, 55, 0
1, 73155, Note_on_c, 0, 77, 42
1, 73167, Note_on_c, 0, 77, 0
1, 73170, Note_on_c, 0, 76, 43
1, 73182, Note_on_c, 0, 76, 0
1, 73185, Note_on_c, 0, 77, 42
1, 73197, Note_on_c, 0, 77, 0
1, 73200, Note_on_c, 0, 60, 47
1, 73200, Note_on_c, 0, 76, 61
1, 73392, Note_on_c, 0, 76, 0
1, 73392, Note_on_c, 0, 60, 0
1, 73440, Note_on_c, 0, 53, 42
1, 73440, Note_on_c, 0, 74, 52
1, 73632, Note_on_c, 0, 74, 0
1, 73632, Note_on_c, 0, 53, 0
1, 73680, Note_on_c, 0, 81, 61
1, 73744, Note_on_c, 0, 81, 0
1, 73760, Note_on_c, 0, 79, 66
1, 73824, Note_on_c, 0, 79, 0
1, 73840, Note_on_c, 0, 77, 66
1, 73904, Note_on_c, 0, 77, 0
1, 73920, Note_on_c, 0, 76, 58
1, 73984, Note_on_c, 0, 76, 0
1, 74000, Note_on_c, 0, 74, 42
1, 74064, Note_on_c, 0, 74, 0
1, 74080, Note_on_c, 0, 72, 50
1, 74144, Note_on_c, 0, 72, 0
1, 74160, Note_on_c, 0, 55, 61
1, 74160, Note_on_c, 0, 72, 77
1, 74172, Note_on_c, 0, 72, 0
1, 74175, Note_on_c, 0, 71, 47
1, 74187, Note_on_c, 0, 71, 0
1, 74190, Note_on_c, 0, 72, 50
1, 74202, Note_on_c, 0, 72, 0
1, 74205, Note_on_c, 0, 71, 42
1, 74217, Note_on_c, 0, 71, 0
1, 74220, Note_on_c, 0, 72, 52
1, 74232, Note_on_c, 0, 72, 0
1, 74235, Note_on_c, 0, 71, 42
1, 74247, Note_on_c, 0, 71, 0
1, 74250, Note_on_c, 0, 72, 52
1, 74262, Note_on_c, 0, 72, 0
1, 74265, Note_on_c, 0, 71, 42
1, 74277, Note_on_c, 0, 71, 0
1, 74280, Note_on_c, 0, 72, 50
1, 74292, Note_on_c, 0, 72, 0
1, 74295, Note_on_c, 0, 71, 42
1, 74307, Note_on_c, 0, 71, 0
1, 74310, Note_on_c, 0, 72, 50
1, 74322, Note_on_c, 0, 72, 0
1, 74325, Note_on_c, 0, 71, 42
1, 74337, Note_on_c, 0, 71, 0
1, 74340, Note_on_c, 0, 72, 52
1, 74352, Note_on_c, 0, 72, 0
1, 74352, Note_on_c, 0, 55, 0
1, 74355, Note_on_c, 0, 71, 43
1, 74367, Note_on_c, 0, 71, 0
1, 74370, Note_on_c, 0, 72, 54
1, 74382, Note_on_c, 0, 72, 0
1, 74385, Note_on_c, 0, 71, 45
1, 74397, Note_on_c, 0, 71, 0
1, 74400, Note_on_c, 0, 53, 61
1, 74400, Note_on_c, 0, 72, 61
1, 74412, Note_on_c, 0, 72, 0
1, 74415, Note_on_c, 0, 71, 44
1, 74427, Note_on_c, 0, 71, 0
1, 74430, Note_on_c, 0, 72, 54
1, 74442, Note_on_c, 0, 72, 0
1, 74445, Note_on_c, 0, 71, 47
1, 74457, Note_on_c, 0, 71, 0
1, 74460, Note_on_c, 0, 72, 43
1, 74472, Note_on_c, 0, 72, 0
1, 74475, Note_on_c, 0, 71, 47
1, 74487, Note_on_c, 0, 71, 0
1, 74490, Note_on_c, 0, 72, 52
1, 74502, Note_on_c, 0, 72, 0
1, 74505, Note_on_c, 0, 71, 52
1, 74517, Note_on_c, 0, 71, 0
1, 74520, Note_on_c, 0, 72, 47
1, 74532, Note_on_c, 0, 72, 0
1, 74535, Note_on_c, 0, 71, 47
1, 74547, Note_on_c, 0, 71, 0
1, 74550, Note_on_c, 0, 72, 44
1, 74562, Note_on_c, 0, 72, 0
1, 74565, Note_on_c, 0, 71, 42
1, 74577, Note_on_c, 0, 71, 0
1, 74580, Note_on_c, 0, 72, 43
1, 74592, Note_on_c, 0, 72, 0
1, 74592, Note_on_c, 0, 53, 0
1, 74595, Note_on_c, 0, 71, 42
1, 74607, Note_on_c, 0, 71, 0
1, 74610, Note_on_c, 0, 69, 43
1, 74622, Note_on_c, 0, 69, 0
1, 74625, Note_on_c, 0, 71, 42
1, 74637, Note_on_c, 0, 71, 0
1, 74640, Note_on_c, 0, 52, 54
1, 74640, Note_on_c, 0, 72, 71
1, 74832, Note_on_c, 0, 72, 0
1, 74832, Note_on_c, 0, 52, 0
1, 74880, Note_on_c, 0, 53, 54
1, 74880, Note_on_c, 0, 83, 45
1, 74928, Note_on_c, 0, 83, 0
1, 74940, Note_on_c, 0, 81, 61
1, 74988, Note_on_c, 0, 81, 0
1, 75000, Note_on_c, 0, 79, 61
1, 75048, Note_on_c, 0, 79, 0
1, 75060, Note_on_c, 0, 77, 52
1, 75072, Note_on_c, 0, 53, 0
1, 75108, Note_on_c, 0, 77, 0
1, 75120, Note_on_c, 0, 76, 44
1, 75120, Note_on_c, 0, 55, 50
1, 75312, Note_on_c, 0, 55, 0
1, 75312, Note_on_c, 0, 76, 0
1, 75360, Note_on_c, 0, 43, 61
1, 75360, Note_on_c, 0, 76, 45
1, 75372, Note_on_c, 0, 76, 0
1, 75375, Note_on_c, 0, 74, 31
1, 75387, Note_on_c, 0, 74, 0
1, 75390, Note_on_c, 0, 76, 42
1, 75402, Note_on_c, 0, 76, 0
1, 75405, Note_on_c, 0, 74, 42
1, 75417, Note_on_c, 0, 74, 0
1, 75420, Note_on_c, 0, 76, 43
1, 75432, Note_on_c, 0, 76, 0
1, 75435, Note_on_c, 0, 74, 42
1, 75447, Note_on_c, 0, 74, 0
1, 75450, Note_on_c, 0, 76, 50
1, 75462, Note_on_c, 0, 76, 0
1, 75465, Note_on_c, 0, 74, 42
1, 75477, Note_on_c, 0, 74, 0
1, 75480, Note_on_c, 0, 76, 54
1, 75492, Note_on_c, 0, 76, 0
1, 75495, Note_on_c, 0, 74, 42
1, 75507, Note_on_c, 0, 74, 0
1, 75510, Note_on_c, 0, 76, 42
1, 75522, Note_on_c, 0, 76, 0
1, 75525, Note_on_c, 0, 74, 42
1, 75537, Note_on_c, 0, 74, 0
1, 75540, Note_on_c, 0, 76, 50
1, 75552, Note_on_c, 0, 76, 0
1, 75552, Note_on_c, 0, 43, 0
1, 75555, Note_on_c, 0, 74, 42
1, 75567, Note_on_c, 0, 74, 0
1, 75570, Note_on_c, 0, 72, 50
1, 75582, Note_on_c, 0, 72, 0
1, 75585, Note_on_c, 0, 74, 43
1, 75597, Note_on_c, 0, 74, 0
1, 75600, Note_on_c, 0, 48, 52
1, 75600, Note_on_c, 0, 72, 80
1, 75792, Note_on_c, 0, 72, 0
1, 75792, Note_on_c, 0, 48, 0
1, 75840, Note_on_c, 0, 43, 58
1, 76032, Note_on_c, 0, 43, 0
1, 76080, Note_on_c, 0, 36, 52
1, 76272, Note_on_c, 0, 36, 0
1, 76282, End_track
0, 0, End_of_file