0, 0, Header, 0, 1, 240
1, 0, Start_track
1, 0, Tempo, 491803
1, 0, Note_on_c, 0, 48, 56
1, 0, Note_on_c, 0, 72, 61
1, 0, Note_on_c, 0, 60, 42
1, 192, Note_on_c, 0, 60, 0
1, 192, Note_on_c, 0, 72, 0
1, 192, Note_on_c, 0, 48, 0
1, 240, Note_on_c, 0, 76, 61
1, 304, Note_on_c, 0, 76, 0
1, 320, Note_on_c, 0, 74, 77
1, 384, Note_on_c, 0, 74, 0
1, 400, Note_on_c, 0, 72, 66
1, 464, Note_on_c, 0, 72, 0
1, 480, Note_on_c, 0, 77, 75
1, 544, Note_on_c, 0, 77, 0
1, 560, Note_on_c, 0, 76, 77
1, 624, Note_on_c, 0, 76, 0
1, 640, Note_on_c, 0, 74, 71
1, 704, Note_on_c, 0, 74, 0
1, 720, Note_on_c, 0, 64, 89
1, 720, Note_on_c, 0, 79, 42
1, 912, Note_on_c, 0, 79, 0
1, 912, Note_on_c, 0, 64, 0
1, 960, Note_on_c, 0, 76, 47
1, 960, Note_on_c, 0, 60, 66
1, 1152, Note_on_c, 0, 60, 0
1, 1152, Note_on_c, 0, 76, 0
1, 1200, Note_on_c, 0, 62, 61
1, 1200, Note_on_c, 0, 55, 89
1, 1200, Note_on_c, 0, 79, 43
1, 1248, Note_on_c, 0, 79, 0
1, 1260, Note_on_c, 0, 77, 81
1, 1308, Note_on_c, 0, 77, 0
1, 1320, Note_on_c, 0, 76, 77
1, 1368, Note_on_c, 0, 76, 0
1, 1380, Note_on_c, 0, 74, 89
1, 1392, Note_on_c, 0, 55, 0
1, 1392, Note_on_c, 0, 62, 0
1, 1428, Note_on_c, 0, 74, 0
1, 1440, Note_on_c, 0, 60, 77
1, 1440, Note_on_c, 0, 72, 42
1, 1632, Note_on_c, 0, 72, 0
1, 1632, Note_on_c, 0, 60, 0
1, 1680, Note_on_c, 0, 64, 83
1, 1680, Note_on_c, 0, 84, 42
1, 1872, Note_on_c, 0, 84, 0
1, 1872, Note_on_c, 0, 64, 0
1, 1920, Note_on_c, 0, 65, 58
1, 1920, Note_on_c, 0, 81, 71
1, 2112, Note_on_c, 0, 81, 0
1, 2112, Note_on_c, 0, 65, 0
1, 2160, Note_on_c, 0, 60, 61
1, 2160, Note_on_c, 0, 65, 44
1, 2160, Note_on_c, 0, 83, 50
1, 2172, Note_on_c, 0, 83, 0
1, 2175, Note_on_c, 0, 81, 58
1, 2187, Note_on_c, 0, 81, 0
1, 2190, Note_on_c, 0, 83, 52
1, 2202, Note_on_c, 0, 83, 0
1, 2205, Note_on_c, 0, 81, 58
1, 2217, Note_on_c, 0, 81, 0
1, 2220, Note_on_c, 0, 83, 43
1, 2232, Note_on_c, 0, 83, 0
1, 2235, Note_on_c, 0, 81, 58
1, 2247, Note_on_c, 0, 81, 0
1, 2250, Note_on_c, 0, 83, 43
1, 2262, Note_on_c, 0, 83, 0
1, 2265, Note_on_c, 0, 81, 57
1, 2277, Note_on_c, 0, 81, 0
1, 2280, Note_on_c, 0, 83, 50
1, 2292, Note_on_c, 0, 83, 0
1, 2295, Note_on_c, 0, 81, 58
1, 2307, Note_on_c, 0, 81, 0
1, 2310, Note_on_c, 0, 83, 54
1, 2322, Note_on_c, 0, 83, 0
1, 2325, Note_on_c, 0, 81, 66
1, 2337, Note_on_c, 0, 81, 0
1, 2340, Note_on_c, 0, 83, 50
1, 2352, Note_on_c, 0, 83, 0
1, 2352, Note_on_c, 0, 65, 0
1, 2355, Note_on_c, 0, 81, 45
1, 2367, Note_on_c, 0, 81, 0
1, 2370, Note_on_c, 0, 83, 43
1, 2382, Note_on_c, 0, 83, 0
1, 2385, Note_on_c, 0, 81, 54
1, 2397, Note_on_c, 0, 81, 0
1, 2400, Note_on_c, 0, 64, 50
1, 2400, Note_on_c, 0, 79, 66
1, 2592, Note_on_c, 0, 79, 0
1, 2592, Note_on_c, 0, 64, 0
1, 2592, Note_on_c, 0, 60, 0
1, 2880, Note_on_c, 0, 59, 80
1, 2944, Note_on_c, 0, 59, 0
1, 2960, Note_on_c, 0, 62, 80
1, 3024, Note_on_c, 0, 62, 0
1, 3040, Note_on_c, 0, 67, 80
1, 3104, Note_on_c, 0, 67, 0
1, 3120, Note_on_c, 0, 59, 80
1, 3200, Note_on_c, 0, 74, 80
1, 3264, Note_on_c, 0, 74, 0
1, 3280, Note_on_c, 0, 76, 80
1, 3312, Note_on_c, 0, 59, 0
1, 3344, Note_on_c, 0, 76, 0
1, 3360, Note_on_c, 0, 77, 77
1, 3424, Note_on_c, 0, 77, 0
1, 3440, Note_on_c, 0, 76, 81
1, 3504, Note_on_c, 0, 76, 0
1, 3520, Note_on_c, 0, 74, 71
1, 3584, Note_on_c, 0, 74, 0
1, 3600, Note_on_c, 0, 76, 80
1, 3600, Note_on_c, 0, 60, 80
1, 3664, Note_on_c, 0, 60, 0
1, 3680, Note_on_c, 0, 64, 80
1, 3744, Note_on_c, 0, 64, 0
1, 3760, Note_on_c, 0, 67, 80
1, 3792, Note_on_c, 0, 76, 0
1, 3824, Note_on_c, 0, 67, 0
1, 3840, Note_on_c, 0, 60, 80
1, 3920, Note_on_c, 0, 76, 80
1, 3984, Note_on_c, 0, 76, 0
1, 4000, Note_on_c, 0, 77, 80
1, 4032, Note_on_c, 0, 60, 0
1, 4064, Note_on_c, 0, 77, 0
1, 4080, Note_on_c, 0, 79, 71
1, 4144, Note_on_c, 0, 79, 0
1, 4160, Note_on_c, 0, 77, 83
1, 4224, Note_on_c, 0, 77, 0
1, 4240, Note_on_c, 0, 76, 77
1, 4304, Note_on_c, 0, 76, 0
1, 4320, Note_on_c, 0, 65, 42
1, 4320, Note_on_c, 0, 53, 43
1, 4320, Note_on_c, 0, 74, 97
1, 4384, Note_on_c, 0, 74, 0
1, 4400, Note_on_c, 0, 76, 83
1, 4464, Note_on_c, 0, 76, 0
1, 4480, Note_on_c, 0, 77, 89
1, 4512, Note_on_c, 0, 53, 0
1, 4512, Note_on_c, 0, 65, 0
1, 4544, Note_on_c, 0, 77, 0
1, 4560, Note_on_c, 0, 64, 50
1, 4560, Note_on_c, 0, 55, 77
1, 4560, Note_on_c, 0, 72, 58
1, 4752, Note_on_c, 0, 72, 0
1, 4752, Note_on_c, 0, 55, 0
1, 4752, Note_on_c, 0, 64, 0
1, 4800, Note_on_c, 0, 62, 50
1, 4800, Note_on_c, 0, 55, 60
1, 4800, Note_on_c, 0, 71, 83
1, 4992, Note_on_c, 0, 71, 0
1, 4992, Note_on_c, 0, 55, 0
1, 4992, Note_on_c, 0, 62, 0
1, 5040, Note_on_c, 0, 60, 54
1, 5040, Note_on_c, 0, 72, 52
1, 5232, Note_on_c, 0, 60, 0
1, 5280, Note_on_c, 0, 55, 77
1, 5424, Note_on_c, 0, 72, 0
1, 5472, Note_on_c, 0, 55, 0
1, 5520, Note_on_c, 0, 48, 89
1, 5712, Note_on_c, 0, 48, 0
1, 5760, Note_on_c, 0, 48, 56
1, 5760, Note_on_c, 0, 72, 61
1, 5760, Note_on_c, 0, 60, 42
1, 5952, Note_on_c, 0, 60, 0
1, 5952, Note_on_c, 0, 72, 0
1, 5952, Note_on_c, 0, 48, 0
1, 6000, Note_on_c, 0, 76, 61
1, 6064, Note_on_c, 0, 76, 0
1, 6080, Note_on_c, 0, 74, 77
1, 6144, Note_on_c, 0, 74, 0
1, 6160, Note_on_c, 0, 72, 66
1, 6224, Note_on_c, 0, 72, 0
1, 6240, Note_on_c, 0, 77, 75
1, 6304, Note_on_c, 0, 77, 0
1, 6320, Note_on_c, 0, 76, 77
1, 6384, Note_on_c, 0, 76, 0
1, 6400, Note_on_c, 0, 74, 71
1, 6464, Note_on_c, 0, 74, 0
1, 6480, Note_on_c, 0, 64, 89
1, 6480, Note_on_c, 0, 79, 42
1, 6672, Note_on_c, 0, 79, 0
1, 6672, Note_on_c, 0, 64, 0
1, 6720, Note_on_c, 0, 76, 47
1, 6720, Note_on_c, 0, 60, 66
1, 6912, Note_on_c, 0, 60, 0
1, 6912, Note_on_c, 0, 76, 0
1, 6960, Note_on_c, 0, 62, 61
1, 6960, Note_on_c, 0, 55, 89
1, 6960, Note_on_c, 0, 79, 43
1, 7008, Note_on_c, 0, 79, 0
1, 7020, Note_on_c, 0, 77, 81
1, 7068, Note_on_c, 0, 77, 0
1, 7080, Note_on_c, 0, 76, 77
1, 7128, Note_on_c, 0, 76, 0
1, 7140, Note_on_c, 0, 74, 89
1, 7152, Note_on_c, 0, 55, 0
1, 7152, Note_on_c, 0, 62, 0
1, 7188, Note_on_c, 0, 74, 0
1, 7200, Note_on_c, 0, 60, 77
1, 7200, Note_on_c, 0, 72, 42
1, 7392, Note_on_c, 0, 72, 0
1, 7392, Note_on_c, 0, 60, 0
1, 7440, Note_on_c, 0, 64, 83
1, 7440, Note_on_c, 0, 84, 42
1, 7632, Note_on_c, 0, 84, 0
1, 7632, Note_on_c, 0, 64, 0
1, 7680, Note_on_c, 0, 65, 58
1, 7680, Note_on_c, 0, 81, 71
1, 7872, Note_on_c, 0, 81, 0
1, 7872, Note_on_c, 0, 65, 0
1, 7920, Note_on_c, 0, 60, 61
1, 7920, Note_on_c, 0, 65, 44
1, 7920, Note_on_c, 0, 83, 50
1, 7932, Note_on_c, 0, 83, 0
1, 7935, Note_on_c, 0, 81, 58
1, 7947, Note_on_c, 0, 81, 0
1, 7950, Note_on_c, 0, 83, 52
1, 7962, Note_on_c, 0, 83, 0
1, 7965, Note_on_c, 0, 81, 58
1, 7977, Note_on_c, 0, 81, 0
1, 7980, Note_on_c, 0, 83, 43
1, 7992, Note_on_c, 0, 83, 0
1, 7995, Note_on_c, 0, 81, 58
1, 8007, Note_on_c, 0, 81, 0
1, 8010, Note_on_c, 0, 83, 43
1, 8022, Note_on_c, 0, 83, 0
1, 8025, Note_on_c, 0, 81, 57
1, 8037, Note_on_c, 0, 81, 0
1, 8040, Note_on_c, 0, 83, 50
1, 8052, Note_on_c, 0, 83, 0
1, 8055, Note_on_c, 0, 81, 58
1, 8067, Note_on_c, 0, 81, 0
1, 8070, Note_on_c, 0, 83, 54
1, 8082, Note_on_c, 0, 83, 0
1, 8085, Note_on_c, 0, 81, 66
1, 8097, Note_on_c, 0, 81, 0
1, 8100, Note_on_c, 0, 83, 50
1, 8112, Note_on_c, 0, 83, 0
1, 8112, Note_on_c, 0, 65, 0
1, 8115, Note_on_c, 0, 81, 45
1, 8127, Note_on_c, 0, 81, 0
1, 8130, Note_on_c, 0, 83, 43
1, 8142, Note_on_c, 0, 83, 0
1, 8145, Note_on_c, 0, 81, 54
1, 8157, Note_on_c, 0, 81, 0
1, 8160, Note_on_c, 0, 64, 50
1, 8160, Note_on_c, 0, 79, 66
1, 8352, Note_on_c, 0, 79, 0
1, 8352, Note_on_c, 0, 64, 0
1, 8352, Note_on_c, 0, 60, 0
1, 8640, Note_on_c, 0, 59, 80
1, 8704, Note_on_c, 0, 59, 0
1, 8720, Note_on_c, 0, 62, 80
1, 8784, Note_on_c, 0, 62, 0
1, 8800, Note_on_c, 0, 67, 80
1, 8864, Note_on_c, 0, 67, 0
1, 8880, Note_on_c, 0, 59, 80
1, 8960, Note_on_c, 0, 74, 80
1, 9024, Note_on_c, 0, 74, 0
1, 9040, Note_on_c, 0, 76, 80
1, 9072, Note_on_c, 0, 59, 0
1, 9104, Note_on_c, 0, 76, 0
1, 9120, Note_on_c, 0, 77, 77
1, 9184, Note_on_c, 0, 77, 0
1, 9200, Note_on_c, 0, 76, 81
1, 9264, Note_on_c, 0, 76, 0
1, 9280, Note_on_c, 0, 74, 71
1, 9344, Note_on_c, 0, 74, 0
1, 9360, Note_on_c, 0, 76, 80
1, 9360, Note_on_c, 0, 60, 80
1, 9424, Note_on_c, 0, 60, 0
1, 9440, Note_on_c, 0, 64, 80
1, 9504, Note_on_c, 0, 64, 0
1, 9520, Note_on_c, 0, 67, 80
1, 9552, Note_on_c, 0, 76, 0
1, 9584, Note_on_c, 0, 67, 0
1, 9600, Note_on_c, 0, 60, 80
1, 9680, Note_on_c, 0, 76, 80
1, 9744, Note_on_c, 0, 76, 0
1, 9760, Note_on_c, 0, 77, 80
1, 9792, Note_on_c, 0, 60, 0
1, 9824, Note_on_c, 0, 77, 0
1, 9840, Note_on_c, 0, 79, 71
1, 9904, Note_on_c, 0, 79, 0
1, 9920, Note_on_c, 0, 77, 83
1, 9984, Note_on_c, 0, 77, 0
1, 10000, Note_on_c, 0, 76, 77
1, 10064, Note_on_c, 0, 76, 0
1, 10080, Note_on_c, 0, 65, 42
1, 10080, Note_on_c, 0, 53, 43
1, 10080, Note_on_c, 0, 74, 97
1, 10144, Note_on_c, 0, 74, 0
1, 10160, Note_on_c, 0, 76, 83
1, 10224, Note_on_c, 0, 76, 0
1, 10240, Note_on_c, 0, 77, 89
1, 10272, Note_on_c, 0, 53, 0
1, 10272, Note_on_c, 0, 65, 0
1, 10304, Note_on_c, 0, 77, 0
1, 10320, Note_on_c, 0, 64, 50
1, 10320, Note_on_c, 0, 55, 77
1, 10320, Note_on_c, 0, 72, 58
1, 10512, Note_on_c, 0, 72, 0
1, 10512, Note_on_c, 0, 55, 0
1, 10512, Note_on_c, 0, 64, 0
1, 10560, Note_on_c, 0, 62, 50
1, 10560, Note_on_c, 0, 55, 60
1, 10560, Note_on_c, 0, 71, 83
1, 10752, Note_on_c, 0, 71, 0
1, 10752, Note_on_c, 0, 55, 0
1, 10752, Note_on_c, 0, 62, 0
1, 10800, Note_on_c, 0, 60, 54
1, 10800, Note_on_c, 0, 72, 52
1, 10992, Note_on_c, 0, 60, 0
1, 11040, Note_on_c, 0, 55, 77
1, 11184, Note_on_c, 0, 72, 0
1, 11232, Note_on_c, 0, 55, 0
1, 11280, Note_on_c, 0, 48, 89
1, 11472, Note_on_c, 0, 48, 0
1, 11520, Note_on_c, 0, 60, 58
1, 11520, Note_on_c, 0, 48, 74
1, 11520, Note_on_c, 0, 76, 61
1, 11616, Note_on_c, 0, 76, 0
1, 11640, Note_on_c, 0, 84, 69
1, 11712, Note_on_c, 0, 48, 0
1, 11712, Note_on_c, 0, 60, 0
1, 11736, Note_on_c, 0, 84, 0
1, 11760, Note_on_c, 0, 76, 75
1, 11824, Note_on_c, 0, 76, 0
1, 11840, Note_on_c, 0, 78, 89
1, 11904, Note_on_c, 0, 78, 0
1, 11920, Note_on_c, 0, 79, 81
1, 11984, Note_on_c, 0, 79, 0
1, 12000, Note_on_c, 0, 48, 77
1, 12000, Note_on_c, 0, 60, 53
1, 12000, Note_on_c, 0, 78, 97
1, 12064, Note_on_c, 0, 78, 0
1, 12080, Note_on_c, 0, 79, 71
1, 12144, Note_on_c, 0, 79, 0
1, 12160, Note_on_c, 0, 81, 83
1, 12192, Note_on_c, 0, 60, 0
1, 12192, Note_on_c, 0, 48, 0
1, 12224, Note_on_c, 0, 81, 0
1, 12240, Note_on_c, 0, 47, 71
1, 12240, Note_on_c, 0, 79, 81
1, 12240, Note_on_c, 0, 59, 45
1, 12336, Note_on_c, 0, 79, 0
1, 12360, Note_on_c, 0, 83, 77
1, 12456, Note_on_c, 0, 83, 0
1, 12480, Note_on_c, 0, 74, 71
1, 12528, Note_on_c, 0, 59, 0
1, 12528, Note_on_c, 0, 47, 0
1, 12600, Note_on_c, 0, 59, 43
1, 12672, Note_on_c, 0, 74, 0
1, 12696, Note_on_c, 0, 59, 0
1, 12720, Note_on_c, 0, 57, 83
1, 12816, Note_on_c, 0, 57, 0
1, 12840, Note_on_c, 0, 55, 77
1, 12936, Note_on_c, 0, 55, 0
1, 12960, Note_on_c, 0, 57, 58
1, 12960, Note_on_c, 0, 72, 54
1, 13056, Note_on_c, 0, 72, 0
1, 13080, Note_on_c, 0, 81, 42
1, 13152, Note_on_c, 0, 57, 0
1, 13176, Note_on_c, 0, 81, 0
1, 13200, Note_on_c, 0, 69, 77
1, 13200, Note_on_c, 0, 54, 58
1, 13264, Note_on_c, 0, 69, 0
1, 13280, Note_on_c, 0, 71, 83
1, 13344, Note_on_c, 0, 71, 0
1, 13360, Note_on_c, 0, 72, 97
1, 13392, Note_on_c, 0, 54, 0
1, 13424, Note_on_c, 0, 72, 0
1, 13440, Note_on_c, 0, 55, 77
1, 13440, Note_on_c, 0, 71, 71
1, 13504, Note_on_c, 0, 71, 0
1, 13520, Note_on_c, 0, 72, 97
1, 13584, Note_on_c, 0, 72, 0
1, 13600, Note_on_c, 0, 74, 97
1, 13632, Note_on_c, 0, 55, 0
1, 13664, Note_on_c, 0, 74, 0
1, 13680, Note_on_c, 0, 57, 83
1, 13680, Note_on_c, 0, 74, 83
1, 13872, Note_on_c, 0, 74, 0
1, 13872, Note_on_c, 0, 57, 0
1, 13920, Note_on_c, 0, 50, 83
1, 13920, Note_on_c, 0, 72, 89
1, 14112, Note_on_c, 0, 72, 0
1, 14112, Note_on_c, 0, 50, 0
1, 14160, Note_on_c, 0, 55, 66
1, 14160, Note_on_c, 0, 71, 66
1, 14352, Note_on_c, 0, 71, 0
1, 14352, Note_on_c, 0, 55, 0
1, 14400, Note_on_c, 0, 48, 83
1, 14464, Note_on_c, 0, 48, 0
1, 14480, Note_on_c, 0, 52, 97
1, 14544, Note_on_c, 0, 52, 0
1, 14560, Note_on_c, 0, 55, 77
1, 14624, Note_on_c, 0, 55, 0
1, 14640, Note_on_c, 0, 48, 89
1, 14720, Note_on_c, 0, 76, 89
1, 14784, Note_on_c, 0, 76, 0
1, 14800, Note_on_c, 0, 78, 57
1, 14832, Note_on_c, 0, 48, 0
1, 14864, Note_on_c, 0, 78, 0
1, 14880, Note_on_c, 0, 79, 71
1, 14944, Note_on_c, 0, 79, 0
1, 14960, Note_on_c, 0, 78, 71
1, 15024, Note_on_c, 0, 78, 0
1, 15040, Note_on_c, 0, 76, 75
1, 15104, Note_on_c, 0, 76, 0
1, 15120, Note_on_c, 0, 74, 89
1, 15120, Note_on_c, 0, 47, 42
1, 15184, Note_on_c, 0, 47, 0
1, 15200, Note_on_c, 0, 50, 43
1, 15264, Note_on_c, 0, 50, 0
1, 15280, Note_on_c, 0, 55, 58
1, 15312, Note_on_c, 0, 74, 0
1, 15344, Note_on_c, 0, 55, 0
1, 15360, Note_on_c, 0, 47, 77
1, 15440, Note_on_c, 0, 78, 71
1, 15504, Note_on_c, 0, 78, 0
1, 15520, Note_on_c, 0, 79, 61
1, 15552, Note_on_c, 0, 47, 0
1, 15584, Note_on_c, 0, 79, 0
1, 15600, Note_on_c, 0, 81, 54
1, 15664, Note_on_c, 0, 81, 0
1, 15680, Note_on_c, 0, 78, 89
1, 15744, Note_on_c, 0, 78, 0
1, 15760, Note_on_c, 0, 79, 61
1, 15824, Note_on_c, 0, 79, 0
1, 15840, Note_on_c, 0, 48, 75
1, 15840, Note_on_c, 0, 76, 89
1, 15840, Note_on_c, 0, 55, 54
1, 15904, Note_on_c, 0, 76, 0
1, 15920, Note_on_c, 0, 74, 89
1, 15984, Note_on_c, 0, 74, 0
1, 16000, Note_on_c, 0, 72, 95
1, 16032, Note_on_c, 0, 55, 0
1, 16032, Note_on_c, 0, 48, 0
1, 16064, Note_on_c, 0, 72, 0
1, 16080, Note_on_c, 0, 50, 75
1, 16080, Note_on_c, 0, 55, 74
1, 16080, Note_on_c, 0, 71, 77
1, 16272, Note_on_c, 0, 71, 0
1, 16272, Note_on_c, 0, 55, 0
1, 16320, Note_on_c, 0, 54, 65
1, 16320, Note_on_c, 0, 71, 54
1, 16332, Note_on_c, 0, 71, 0
1, 16335, Note_on_c, 0, 69, 12
1, 16347, Note_on_c, 0, 69, 0
1, 16350, Note_on_c, 0, 71, 43
1, 16362, Note_on_c, 0, 71, 0
1, 16365, Note_on_c, 0, 69, 44
1, 16377, Note_on_c, 0, 69, 0
1, 16380, Note_on_c, 0, 71, 50
1, 16392, Note_on_c, 0, 71, 0
1, 16395, Note_on_c, 0, 69, 43
1, 16407, Note_on_c, 0, 69, 0
1, 16410, Note_on_c, 0, 71, 54
1, 16422, Note_on_c, 0, 71, 0
1, 16425, Note_on_c, 0, 69, 52
1, 16437, Note_on_c, 0, 69, 0
1, 16440, Note_on_c, 0, 71, 50
1, 16452, Note_on_c, 0, 71, 0
1, 16455, Note_on_c, 0, 69, 47
1, 16467, Note_on_c, 0, 69, 0
1, 16470, Note_on_c, 0, 71, 44
1, 16482, Note_on_c, 0, 71, 0
1, 16485, Note_on_c, 0, 69, 52
1, 16497, Note_on_c, 0, 69, 0
1, 16500, Note_on_c, 0, 71, 47
1, 16512, Note_on_c, 0, 71, 0
1, 16512, Note_on_c, 0, 50, 0
1, 16512, Note_on_c, 0, 54, 0
1, 16515, Note_on_c, 0, 69, 42
1, 16527, Note_on_c, 0, 69, 0
1, 16530, Note_on_c, 0, 67, 66
1, 16542, Note_on_c, 0, 67, 0
1, 16545, Note_on_c, 0, 69, 25
1, 16557, Note_on_c, 0, 69, 0
1, 16560, Note_on_c, 0, 55, 61
1, 16560, Note_on_c, 0, 67, 106
1, 16752, Note_on_c, 0, 55, 0
1, 16800, Note_on_c, 0, 50, 83
1, 16944, Note_on_c, 0, 67, 0
1, 16992, Note_on_c, 0, 50, 0
1, 17040, Note_on_c, 0, 43, 61
1, 17232, Note_on_c, 0, 43, 0
1, 17280, Note_on_c, 0, 72, 61
1, 17280, Note_on_c, 0, 60, 42
1, 17280, Note_on_c, 0, 48, 56
1, 17472, Note_on_c, 0, 48, 0
1, 17472, Note_on_c, 0, 60, 0
1, 17472, Note_on_c, 0, 72, 0
1, 17520, Note_on_c, 0, 76, 61
1, 17584, Note_on_c, 0, 76, 0
1, 17600, Note_on_c, 0, 74, 77
1, 17664, Note_on_c, 0, 74, 0
1, 17680, Note_on_c, 0, 72, 66
1, 17744, Note_on_c, 0, 72, 0
1, 17760, Note_on_c, 0, 77, 75
1, 17824, Note_on_c, 0, 77, 0
1, 17840, Note_on_c, 0, 76, 77
1, 17904, Note_on_c, 0, 76, 0
1, 17920, Note_on_c, 0, 74, 71
1, 17984, Note_on_c, 0, 74, 0
1, 18000, Note_on_c, 0, 79, 42
1, 18000, Note_on_c, 0, 64, 89
1, 18192, Note_on_c, 0, 64, 0
1, 18192, Note_on_c, 0, 79, 0
1, 18240, Note_on_c, 0, 60, 66
1, 18240, Note_on_c, 0, 76, 47
1, 18432, Note_on_c, 0, 76, 0
1, 18432, Note_on_c, 0, 60, 0
1, 18480, Note_on_c, 0, 62, 61
1, 18480, Note_on_c, 0, 55, 89
1, 18480, Note_on_c, 0, 79, 43
1, 18528, Note_on_c, 0, 79, 0
1, 18540, Note_on_c, 0, 77, 81
1, 18588, Note_on_c, 0, 77, 0
1, 18600, Note_on_c, 0, 76, 77
1, 18648, Note_on_c, 0, 76, 0
1, 18660, Note_on_c, 0, 74, 89
1, 18672, Note_on_c, 0, 55, 0
1, 18672, Note_on_c, 0, 62, 0
1, 18708, Note_on_c, 0, 74, 0
1, 18720, Note_on_c, 0, 60, 77
1, 18720, Note_on_c, 0, 72, 42
1, 18912, Note_on_c, 0, 72, 0
1, 18912, Note_on_c, 0, 60, 0
1, 18960, Note_on_c, 0, 64, 83
1, 18960, Note_on_c, 0, 84, 42
1, 19152, Note_on_c, 0, 84, 0
1, 19152, Note_on_c, 0, 64, 0
1, 19200, Note_on_c, 0, 65, 58
1, 19200, Note_on_c, 0, 81, 71
1, 19392, Note_on_c, 0, 81, 0
1, 19392, Note_on_c, 0, 65, 0
1, 19440, Note_on_c, 0, 60, 61
1, 19440, Note_on_c, 0, 65, 44
1, 19440, Note_on_c, 0, 83, 50
1, 19452, Note_on_c, 0, 83, 0
1, 19455, Note_on_c, 0, 81, 58
1, 19467, Note_on_c, 0, 81, 0
1, 19470, Note_on_c, 0, 83, 52
1, 19482, Note_on_c, 0, 83, 0
1, 19485, Note_on_c, 0, 81, 58
1, 19497, Note_on_c, 0, 81, 0
1, 19500, Note_on_c, 0, 83, 43
1, 19512, Note_on_c, 0, 83, 0
1, 19515, Note_on_c, 0, 81, 58
1, 19527, Note_on_c, 0, 81, 0
1, 19530, Note_on_c, 0, 83, 43
1, 19542, Note_on_c, 0, 83, 0
1, 19545, Note_on_c, 0, 81, 57
1, 19557, Note_on_c, 0, 81, 0
1, 19560, Note_on_c, 0, 83, 50
1, 19572, Note_on_c, 0, 83, 0
1, 19575, Note_on_c, 0, 81, 58
1, 19587, Note_on_c, 0, 81, 0
1, 19590, Note_on_c, 0, 83, 54
1, 19602, Note_on_c, 0, 83, 0
1, 19605, Note_on_c, 0, 81, 66
1, 19617, Note_on_c, 0, 81, 0
1, 19620, Note_on_c, 0, 83, 50
1, 19632, Note_on_c, 0, 83, 0
1, 19632, Note_on_c, 0, 65, 0
1, 19635, Note_on_c, 0, 81, 45
1, 19647, Note_on_c, 0, 81, 0
1, 19650, Note_on_c, 0, 83, 43
1, 19662, Note_on_c, 0, 83, 0
1, 19665, Note_on_c, 0, 81, 54
1, 19677, Note_on_c, 0, 81, 0
1, 19680, Note_on_c, 0, 64, 50
1, 19680, Note_on_c, 0, 79, 66
1, 19872, Note_on_c, 0, 79, 0
1, 19872, Note_on_c, 0, 64, 0
1, 19872, Note_on_c, 0, 60, 0
1, 20160, Note_on_c, 0, 59, 80
1, 20224, Note_on_c, 0, 59, 0
1, 20240, Note_on_c, 0, 62, 80
1, 20304, Note_on_c, 0, 62, 0
1, 20320, Note_on_c, 0, 67, 80
1, 20384, Note_on_c, 0, 67, 0
1, 20400, Note_on_c, 0, 59, 80
1, 20480, Note_on_c, 0, 74, 80
1, 20544, Note_on_c, 0, 74, 0
1, 20560, Note_on_c, 0, 76, 80
1, 20592, Note_on_c, 0, 59, 0
1, 20624, Note_on_c, 0, 76, 0
1, 20640, Note_on_c, 0, 77, 77
1, 20704, Note_on_c, 0, 77, 0
1, 20720, Note_on_c, 0, 76, 81
1, 20784, Note_on_c, 0, 76, 0
1, 20800, Note_on_c, 0, 74, 71
1, 20864, Note_on_c, 0, 74, 0
1, 20880, Note_on_c, 0, 60, 80
1, 20880, Note_on_c, 0, 76, 80
1, 20944, Note_on_c, 0, 60, 0
1, 20960, Note_on_c, 0, 64, 80
1, 21024, Note_on_c, 0, 64, 0
1, 21040, Note_on_c, 0, 67, 80
1, 21072, Note_on_c, 0, 76, 0
1, 21104, Note_on_c, 0, 67, 0
1, 21120, Note_on_c, 0, 60, 80
1, 21200, Note_on_c, 0, 76, 80
1, 21264, Note_on_c, 0, 76, 0
1, 21280, Note_on_c, 0, 77, 80
1, 21312, Note_on_c, 0, 60, 0
1, 21344, Note_on_c, 0, 77, 0
1, 21360, Note_on_c, 0, 79, 71
1, 21424, Note_on_c, 0, 79, 0
1, 21440, Note_on_c, 0, 77, 83
1, 21504, Note_on_c, 0, 77, 0
1, 21520, Note_on_c, 0, 76, 77
1, 21584, Note_on_c, 0, 76, 0
1, 21600, Note_on_c, 0, 81, 89
1, 21600, Note_on_c, 0, 53, 71
1, 21664, Note_on_c, 0, 53, 0
1, 21680, Note_on_c, 0, 57, 61
1, 21744, Note_on_c, 0, 57, 0
1, 21760, Note_on_c, 0, 60, 66
1, 21792, Note_on_c, 0, 81, 0
1, 21824, Note_on_c, 0, 60, 0
1, 21840, Note_on_c, 0, 53, 77
1, 21920, Note_on_c, 0, 81, 58
1, 21984, Note_on_c, 0, 81, 0
1, 22000, Note_on_c, 0, 83, 54
1, 22032, Note_on_c, 0, 53, 0
1, 22064, Note_on_c, 0, 83, 0
1, 22080, Note_on_c, 0, 84, 61
1, 22144, Note_on_c, 0, 84, 0
1, 22160, Note_on_c, 0, 83, 58
1, 22224, Note_on_c, 0, 83, 0
1, 22240, Note_on_c, 0, 81, 71
1, 22304, Note_on_c, 0, 81, 0
1, 22320, Note_on_c, 0, 52, 89
1, 22320, Note_on_c, 0, 79, 71
1, 22384, Note_on_c, 0, 52, 0
1, 22400, Note_on_c, 0, 55, 83
1, 22464, Note_on_c, 0, 55, 0
1, 22480, Note_on_c, 0, 60, 66
1, 22512, Note_on_c, 0, 79, 0
1, 22544, Note_on_c, 0, 60, 0
1, 22560, Note_on_c, 0, 52, 83
1, 22560, Note_on_c, 0, 84, 71
1, 22624, Note_on_c, 0, 84, 0
1, 22640, Note_on_c, 0, 83, 42
1, 22704, Note_on_c, 0, 83, 0
1, 22720, Note_on_c, 0, 81, 54
1, 22752, Note_on_c, 0, 52, 0
1, 22784, Note_on_c, 0, 81, 0
1, 22800, Note_on_c, 0, 79, 50
1, 22864, Note_on_c, 0, 79, 0
1, 22880, Note_on_c, 0, 77, 66
1, 22944, Note_on_c, 0, 77, 0
1, 22960, Note_on_c, 0, 76, 71
1, 23024, Note_on_c, 0, 76, 0
1, 23040, Note_on_c, 0, 53, 45
1, 23040, Note_on_c, 0, 65, 49
1, 23040, Note_on_c, 0, 74, 50
1, 23104, Note_on_c, 0, 74, 0
1, 23120, Note_on_c, 0, 77, 61
1, 23184, Note_on_c, 0, 77, 0
1, 23200, Note_on_c, 0, 81, 77
1, 23232, Note_on_c, 0, 65, 0
1, 23232, Note_on_c, 0, 53, 0
1, 23264, Note_on_c, 0, 81, 0
1, 23280, Note_on_c, 0, 55, 52
1, 23280, Note_on_c, 0, 64, 60
1, 23280, Note_on_c, 0, 72, 83
1, 23472, Note_on_c, 0, 72, 0
1, 23472, Note_on_c, 0, 64, 0
1, 23472, Note_on_c, 0, 55, 0
1, 23520, Note_on_c, 0, 62, 54
1, 23520, Note_on_c, 0, 55, 74
1, 23520, Note_on_c, 0, 71, 83
1, 23712, Note_on_c, 0, 71, 0
1, 23712, Note_on_c, 0, 55, 0
1, 23712, Note_on_c, 0, 62, 0
1, 23760, Note_on_c, 0, 60, 66
1, 23760, Note_on_c, 0, 72, 71
1, 23952, Note_on_c, 0, 60, 0
1, 24000, Note_on_c, 0, 55, 83
1, 24144, Note_on_c, 0, 72, 0
1, 24192, Note_on_c, 0, 55, 0
1, 24240, Note_on_c, 0, 48, 89
1, 24432, Note_on_c, 0, 48, 0
1, 24480, Note_on_c, 0, 60, 58
1, 24480, Note_on_c, 0, 48, 74
1, 24480, Note_on_c, 0, 76, 61
1, 24576, Note_on_c, 0, 76, 0
1, 24600, Note_on_c, 0, 84, 69
1, 24672, Note_on_c, 0, 48, 0
1, 24672, Note_on_c, 0, 60, 0
1, 24696, Note_on_c, 0, 84, 0
1, 24720, Note_on_c, 0, 76, 75
1, 24784, Note_on_c, 0, 76, 0
1, 24800, Note_on_c, 0, 78, 89
1, 24864, Note_on_c, 0, 78, 0
1, 24880, Note_on_c, 0, 79, 81
1, 24944, Note_on_c, 0, 79, 0
1, 24960, Note_on_c, 0, 48, 77
1, 24960, Note_on_c, 0, 60, 53
1, 24960, Note_on_c, 0, 78, 97
1, 25024, Note_on_c, 0, 78, 0
1, 25040, Note_on_c, 0, 79, 71
1, 25104, Note_on_c, 0, 79, 0
1, 25120, Note_on_c, 0, 81, 83
1, 25152, Note_on_c, 0, 60, 0
1, 25152, Note_on_c, 0, 48, 0
1, 25184, Note_on_c, 0, 81, 0
1, 25200, Note_on_c, 0, 47, 71
1, 25200, Note_on_c, 0, 79, 81
1, 25200, Note_on_c, 0, 59, 45
1, 25296, Note_on_c, 0, 79, 0
1, 25320, Note_on_c, 0, 83, 77
1, 25416, Note_on_c, 0, 83, 0
1, 25440, Note_on_c, 0, 74, 71
1, 25488, Note_on_c, 0, 59, 0
1, 25488, Note_on_c, 0, 47, 0
1, 25560, Note_on_c, 0, 59, 43
1, 25632, Note_on_c, 0, 74, 0
1, 25656, Note_on_c, 0, 59, 0
1, 25680, Note_on_c, 0, 57, 83
1, 25776, Note_on_c, 0, 57, 0
1, 25800, Note_on_c, 0, 55, 77
1, 25896, Note_on_c, 0, 55, 0
1, 25920, Note_on_c, 0, 57, 58
1, 25920, Note_on_c, 0, 72, 54
1, 26016, Note_on_c, 0, 72, 0
1, 26040, Note_on_c, 0, 81, 42
1, 26112, Note_on_c, 0, 57, 0
1, 26136, Note_on_c, 0, 81, 0
1, 26160, Note_on_c, 0, 69, 77
1, 26160, Note_on_c, 0, 54, 58
1, 26224, Note_on_c, 0, 69, 0
1, 26240, Note_on_c, 0, 71, 83
1, 26304, Note_on_c, 0, 71, 0
1, 26320, Note_on_c, 0, 72, 97
1, 26352, Note_on_c, 0, 54, 0
1, 26384, Note_on_c, 0, 72, 0
1, 26400, Note_on_c, 0, 55, 77
1, 26400, Note_on_c, 0, 71, 71
1, 26464, Note_on_c, 0, 71, 0
1, 26480, Note_on_c, 0, 72, 97
1, 26544, Note_on_c, 0, 72, 0
1, 26560, Note_on_c, 0, 74, 97
1, 26592, Note_on_c, 0, 55, 0
1, 26624, Note_on_c, 0, 74, 0
1, 26640, Note_on_c, 0, 57, 83
1, 26640, Note_on_c, 0, 74, 83
1, 26832, Note_on_c, 0, 74, 0
1, 26832, Note_on_c, 0, 57, 0
1, 26880, Note_on_c, 0, 50, 83
1, 26880, Note_on_c, 0, 72, 89
1, 27072, Note_on_c, 0, 72, 0
1, 27072, Note_on_c, 0, 50, 0
1, 27120, Note_on_c, 0, 55, 66
1, 27120, Note_on_c, 0, 71, 66
1, 27312, Note_on_c, 0, 71, 0
1, 27312, Note_on_c, 0, 55, 0
1, 27360, Note_on_c, 0, 48, 83
1, 27424, Note_on_c, 0, 48, 0
1, 27440, Note_on_c, 0, 52, 97
1, 27504, Note_on_c, 0, 52, 0
1, 27520, Note_on_c, 0, 55, 77
1, 27584, Note_on_c, 0, 55, 0
1, 27600, Note_on_c, 0, 48, 89
1, 27680, Note_on_c, 0, 76, 89
1, 27744, Note_on_c, 0, 76, 0
1, 27760, Note_on_c, 0, 78, 57
1, 27792, Note_on_c, 0, 48, 0
1, 27824, Note_on_c, 0, 78, 0
1, 27840, Note_on_c, 0, 79, 71
1, 27904, Note_on_c, 0, 79, 0
1, 27920, Note_on_c, 0, 78, 71
1, 27984, Note_on_c, 0, 78, 0
1, 28000, Note_on_c, 0, 76, 75
1, 28064, Note_on_c, 0, 76, 0
1, 28080, Note_on_c, 0, 74, 89
1, 28080, Note_on_c, 0, 47, 42
1, 28144, Note_on_c, 0, 47, 0
1, 28160, Note_on_c, 0, 50, 43
1, 28224, Note_on_c, 0, 50, 0
1, 28240, Note_on_c, 0, 55, 58
1, 28272, Note_on_c, 0, 74, 0
1, 28304, Note_on_c, 0, 55, 0
1, 28320, Note_on_c, 0, 47, 77
1, 28400, Note_on_c, 0, 78, 71
1, 28464, Note_on_c, 0, 78, 0
1, 28480, Note_on_c, 0, 79, 61
1, 28512, Note_on_c, 0, 47, 0
1, 28544, Note_on_c, 0, 79, 0
1, 28560, Note_on_c, 0, 81, 54
1, 28624, Note_on_c, 0, 81, 0
1, 28640, Note_on_c, 0, 78, 89
1, 28704, Note_on_c, 0, 78, 0
1, 28720, Note_on_c, 0, 79, 61
1, 28784, Note_on_c, 0, 79, 0
1, 28800, Note_on_c, 0, 48, 75
1, 28800, Note_on_c, 0, 76, 89
1, 28800, Note_on_c, 0, 55, 54
1, 28864, Note_on_c, 0, 76, 0
1, 28880, Note_on_c, 0, 74, 89
1, 28944, Note_on_c, 0, 74, 0
1, 28960, Note_on_c, 0, 72, 95
1, 28992, Note_on_c, 0, 55, 0
1, 28992, Note_on_c, 0, 48, 0
1, 29024, Note_on_c, 0, 72, 0
1, 29040, Note_on_c, 0, 50, 75
1, 29040, Note_on_c, 0, 55, 74
1, 29040, Note_on_c, 0, 71, 77
1, 29232, Note_on_c, 0, 71, 0
1, 29232, Note_on_c, 0, 55, 0
1, 29280, Note_on_c, 0, 54, 65
1, 29280, Note_on_c, 0, 71, 54
1, 29292, Note_on_c, 0, 71, 0
1, 29295, Note_on_c, 0, 69, 12
1, 29307, Note_on_c, 0, 69, 0
1, 29310, Note_on_c, 0, 71, 43
1, 29322, Note_on_c, 0, 71, 0
1, 29325, Note_on_c, 0, 69, 44
1, 29337, Note_on_c, 0, 69, 0
1, 29340, Note_on_c, 0, 71, 50
1, 29352, Note_on_c, 0, 71, 0
1, 29355, Note_on_c, 0, 69, 43
1, 29367, Note_on_c, 0, 69, 0
1, 29370, Note_on_c, 0, 71, 54
1, 29382, Note_on_c, 0, 71, 0
1, 29385, Note_on_c, 0, 69, 52
1, 29397, Note_on_c, 0, 69, 0
1, 29400, Note_on_c, 0, 71, 50
1, 29412, Note_on_c, 0, 71, 0
1, 29415, Note_on_c, 0, 69, 47
1, 29427, Note_on_c, 0, 69, 0
1, 29430, Note_on_c, 0, 71, 44
1, 29442, Note_on_c, 0, 71, 0
1, 29445, Note_on_c, 0, 69, 52
1, 29457, Note_on_c, 0, 69, 0
1, 29460, Note_on_c, 0, 71, 47
1, 29472, Note_on_c, 0, 71, 0
1, 29472, Note_on_c, 0, 50, 0
1, 29472, Note_on_c, 0, 54, 0
1, 29475, Note_on_c, 0, 69, 42
1, 29487, Note_on_c, 0, 69, 0
1, 29490, Note_on_c, 0, 67, 66
1, 29502, Note_on_c, 0, 67, 0
1, 29505, Note_on_c, 0, 69, 25
1, 29517, Note_on_c, 0, 69, 0
1, 29520, Note_on_c, 0, 55, 61
1, 29520, Note_on_c, 0, 67, 106
1, 29712, Note_on_c, 0, 55, 0
1, 29760, Note_on_c, 0, 50, 83
1, 29904, Note_on_c, 0, 67, 0
1, 29952, Note_on_c, 0, 50, 0
1, 30000, Note_on_c, 0, 43, 61
1, 30192, Note_on_c, 0, 43, 0
1, 30240, Note_on_c, 0, 72, 61
1, 30240, Note_on_c, 0, 60, 42
1, 30240, Note_on_c, 0, 48, 56
1, 30432, Note_on_c, 0, 48, 0
1, 30432, Note_on_c, 0, 60, 0
1, 30432, Note_on_c, 0, 72, 0
1, 30480, Note_on_c, 0, 76, 61
1, 30544, Note_on_c, 0, 76, 0
1, 30560, Note_on_c, 0, 74, 77
1, 30624, Note_on_c, 0, 74, 0
1, 30640, Note_on_c, 0, 72, 66
1, 30704, Note_on_c, 0, 72, 0
1, 30720, Note_on_c, 0, 77, 75
1, 30784, Note_on_c, 0, 77, 0
1, 30800, Note_on_c, 0, 76, 77
1, 30864, Note_on_c, 0, 76, 0
1, 30880, Note_on_c, 0, 74, 71
1, 30944, Note_on_c, 0, 74, 0
1, 30960, Note_on_c, 0, 79, 42
1, 30960, Note_on_c, 0, 64, 89
1, 31152, Note_on_c, 0, 64, 0
1, 31152, Note_on_c, 0, 79, 0
1, 31200, Note_on_c, 0, 60, 66
1, 31200, Note_on_c, 0, 76, 47
1, 31392, Note_on_c, 0, 76, 0
1, 31392, Note_on_c, 0, 60, 0
1, 31440, Note_on_c, 0, 62, 61
1, 31440, Note_on_c, 0, 55, 89
1, 31440, Note_on_c, 0, 79, 43
1, 31488, Note_on_c, 0, 79, 0
1, 31500, Note_on_c, 0, 77, 81
1, 31548, Note_on_c, 0, 77, 0
1, 31560, Note_on_c, 0, 76, 77
1, 31608, Note_on_c, 0, 76, 0
1, 31620, Note_on_c, 0, 74, 89
1, 31632, Note_on_c, 0, 55, 0
1, 31632, Note_on_c, 0, 62, 0
1, 31668, Note_on_c, 0, 74, 0
1, 31680, Note_on_c, 0, 60, 77
1, 31680, Note_on_c, 0, 72, 42
1, 31872, Note_on_c, 0, 72, 0
1, 31872, Note_on_c, 0, 60, 0
1, 31920, Note_on_c, 0, 64, 83
1, 31920, Note_on_c, 0, 84, 42
1, 32112, Note_on_c, 0, 84, 0
1, 32112, Note_on_c, 0, 64, 0
1, 32160, Note_on_c, 0, 65, 58
1, 32160, Note_on_c, 0, 81, 71
1, 32352, Note_on_c, 0, 81, 0
1, 32352, Note_on_c, 0, 65, 0
1, 32400, Note_on_c, 0, 60, 61
1, 32400, Note_on_c, 0, 65, 44
1, 32400, Note_on_c, 0, 83, 50
1, 32412, Note_on_c, 0, 83, 0
1, 32415, Note_on_c, 0, 81, 58
1, 32427, Note_on_c, 0, 81, 0
1, 32430, Note_on_c, 0, 83, 52
1, 32442, Note_on_c, 0, 83, 0
1, 32445, Note_on_c, 0, 81, 58
1, 32457, Note_on_c, 0, 81, 0
1, 32460, Note_on_c, 0, 83, 43
1, 32472, Note_on_c, 0, 83, 0
1, 32475, Note_on_c, 0, 81, 58
1, 32487, Note_on_c, 0, 81, 0
1, 32490, Note_on_c, 0, 83, 43
1, 32502, Note_on_c, 0, 83, 0
1, 32505, Note_on_c, 0, 81, 57
1, 32517, Note_on_c, 0, 81, 0
1, 32520, Note_on_c, 0, 83, 50
1, 32532, Note_on_c, 0, 83, 0
1, 32535, Note_on_c, 0, 81, 58
1, 32547, Note_on_c, 0, 81, 0
1, 32550, Note_on_c, 0, 83, 54
1, 32562, Note_on_c, 0, 83, 0
1, 32565, Note_on_c, 0, 81, 66
1, 32577, Note_on_c, 0, 81, 0
1, 32580, Note_on_c, 0, 83, 50
1, 32592, Note_on_c, 0, 83, 0
1, 32592, Note_on_c, 0, 65, 0
1, 32595, Note_on_c, 0, 81, 45
1, 32607, Note_on_c, 0, 81, 0
1, 32610, Note_on_c, 0, 83, 43
1, 32622, Note_on_c, 0, 83, 0
1, 32625, Note_on_c, 0, 81, 54
1, 32637, Note_on_c, 0, 81, 0
1, 32640, Note_on_c, 0, 64, 50
1, 32640, Note_on_c, 0, 79, 66
1, 32832, Note_on_c, 0, 79, 0
1, 32832, Note_on_c, 0, 64, 0
1, 32832, Note_on_c, 0, 60, 0
1, 33120, Note_on_c, 0, 59, 80
1, 33184, Note_on_c, 0, 59, 0
1, 33200, Note_on_c, 0, 62, 80
1, 33264, Note_on_c, 0, 62, 0
1, 33280, Note_on_c, 0, 67, 80
1, 33344, Note_on_c, 0, 67, 0
1, 33360, Note_on_c, 0, 59, 80
1, 33440, Note_on_c, 0, 74, 80
1, 33504, Note_on_c, 0, 74, 0
1, 33520, Note_on_c, 0, 76, 80
1, 33552, Note_on_c, 0, 59, 0
1, 33584, Note_on_c, 0, 76, 0
1, 33600, Note_on_c, 0, 77, 77
1, 33664, Note_on_c, 0, 77, 0
1, 33680, Note_on_c, 0, 76, 81
1, 33744, Note_on_c, 0, 76, 0
1, 33760, Note_on_c, 0, 74, 71
1, 33824, Note_on_c, 0, 74, 0
1, 33840, Note_on_c, 0, 60, 80
1, 33840, Note_on_c, 0, 76, 80
1, 33904, Note_on_c, 0, 60, 0
1, 33920, Note_on_c, 0, 64, 80
1, 33984, Note_on_c, 0, 64, 0
1, 34000, Note_on_c, 0, 67, 80
1, 34032, Note_on_c, 0, 76, 0
1, 34064, Note_on_c, 0, 67, 0
1, 34080, Note_on_c, 0, 60, 80
1, 34160, Note_on_c, 0, 76, 80
1, 34224, Note_on_c, 0, 76, 0
1, 34240, Note_on_c, 0, 77, 80
1, 34272, Note_on_c, 0, 60, 0
1, 34304, Note_on_c, 0, 77, 0
1, 34320, Note_on_c, 0, 79, 71
1, 34384, Note_on_c, 0, 79, 0
1, 34400, Note_on_c, 0, 77, 83
1, 34464, Note_on_c, 0, 77, 0
1, 34480, Note_on_c, 0, 76, 77
1, 34544, Note_on_c, 0, 76, 0
1, 34560, Note_on_c, 0, 81, 89
1, 34560, Note_on_c, 0, 53, 71
1, 34624, Note_on_c, 0, 53, 0
1, 34640, Note_on_c, 0, 57, 61
1, 34704, Note_on_c, 0, 57, 0
1, 34720, Note_on_c, 0, 60, 66
1, 34752, Note_on_c, 0, 81, 0
1, 34784, Note_on_c, 0, 60, 0
1, 34800, Note_on_c, 0, 53, 77
1, 34880, Note_on_c, 0, 81, 58
1, 34944, Note_on_c, 0, 81, 0
1, 34960, Note_on_c, 0, 83, 54
1, 34992, Note_on_c, 0, 53, 0
1, 35024, Note_on_c, 0, 83, 0
1, 35040, Note_on_c, 0, 84, 61
1, 35104, Note_on_c, 0, 84, 0
1, 35120, Note_on_c, 0, 83, 58
1, 35184, Note_on_c, 0, 83, 0
1, 35200, Note_on_c, 0, 81, 71
1, 35264, Note_on_c, 0, 81, 0
1, 35280, Note_on_c, 0, 52, 89
1, 35280, Note_on_c, 0, 79, 71
1, 35344, Note_on_c, 0, 52, 0
1, 35360, Note_on_c, 0, 55, 83
1, 35424, Note_on_c, 0, 55, 0
1, 35440, Note_on_c, 0, 60, 66
1, 35472, Note_on_c, 0, 79, 0
1, 35504, Note_on_c, 0, 60, 0
1, 35520, Note_on_c, 0, 52, 83
1, 35520, Note_on_c, 0, 84, 71
1, 35584, Note_on_c, 0, 84, 0
1, 35600, Note_on_c, 0, 83, 42
1, 35664, Note_on_c, 0, 83, 0
1, 35680, Note_on_c, 0, 81, 54
1, 35712, Note_on_c, 0, 52, 0
1, 35744, Note_on_c, 0, 81, 0
1, 35760, Note_on_c, 0, 79, 50
1, 35824, Note_on_c, 0, 79, 0
1, 35840, Note_on_c, 0, 77, 66
1, 35904, Note_on_c, 0, 77, 0
1, 35920, Note_on_c, 0, 76, 71
1, 35984, Note_on_c, 0, 76, 0
1, 36000, Note_on_c, 0, 53, 45
1, 36000, Note_on_c, 0, 65, 49
1, 36000, Note_on_c, 0, 74, 50
1, 36064, Note_on_c, 0, 74, 0
1, 36080, Note_on_c, 0, 77, 61
1, 36144, Note_on_c, 0, 77, 0
1, 36160, Note_on_c, 0, 81, 77
1, 36192, Note_on_c, 0, 65, 0
1, 36192, Note_on_c, 0, 53, 0
1, 36224, Note_on_c, 0, 81, 0
1, 36240, Note_on_c, 0, 55, 52
1, 36240, Note_on_c, 0, 64, 60
1, 36240, Note_on_c, 0, 72, 83
1, 36432, Note_on_c, 0, 72, 0
1, 36432, Note_on_c, 0, 64, 0
1, 36432, Note_on_c, 0, 55, 0
1, 36480, Note_on_c, 0, 62, 54
1, 36480, Note_on_c, 0, 55, 74
1, 36480, Note_on_c, 0, 71, 83
1, 36672, Note_on_c, 0, 71, 0
1, 36672, Note_on_c, 0, 55, 0
1, 36672, Note_on_c, 0, 62, 0
1, 36720, Note_on_c, 0, 60, 66
1, 36720, Note_on_c, 0, 72, 71
1, 36912, Note_on_c, 0, 60, 0
1, 36960, Note_on_c, 0, 55, 83
1, 37104, Note_on_c, 0, 72, 0
1, 37152, Note_on_c, 0, 55, 0
1, 37200, Note_on_c, 0, 48, 89
1, 37392, Note_on_c, 0, 48, 0
1, 37440, Note_on_c, 0, 48, 89
1, 37560, Note_on_c, 0, 67, 77
1, 37656, Note_on_c, 0, 67, 0
1, 37680, Note_on_c, 0, 63, 83
1, 37776, Note_on_c, 0, 63, 0
1, 37800, Note_on_c, 0, 68, 77
1, 37896, Note_on_c, 0, 68, 0
1, 37920, Note_on_c, 0, 56, 42
1, 37920, Note_on_c, 0, 65, 97
1, 38016, Note_on_c, 0, 65, 0
1, 38040, Note_on_c, 0, 63, 66
1, 38112, Note_on_c, 0, 56, 0
1, 38112, Note_on_c, 0, 48, 0
1, 38136, Note_on_c, 0, 63, 0
1, 38160, Note_on_c, 0, 62, 71
1, 38160, Note_on_c, 0, 46, 49
1, 38256, Note_on_c, 0, 62, 0
1, 38280, Note_on_c, 0, 65, 89
1, 38376, Note_on_c, 0, 65, 0
1, 38400, Note_on_c, 0, 62, 83
1, 38400, Note_on_c, 0, 55, 47
1, 38496, Note_on_c, 0, 62, 0
1, 38520, Note_on_c, 0, 67, 71
1, 38592, Note_on_c, 0, 46, 0
1, 38616, Note_on_c, 0, 67, 0
1, 38640, Note_on_c, 0, 43, 65
1, 38640, Note_on_c, 0, 63, 71
1, 38736, Note_on_c, 0, 63, 0
1, 38760, Note_on_c, 0, 62, 77
1, 38832, Note_on_c, 0, 43, 0
1, 38856, Note_on_c, 0, 62, 0
1, 38880, Note_on_c, 0, 44, 61
1, 38880, Note_on_c, 0, 60, 75
1, 38976, Note_on_c, 0, 60, 0
1, 39000, Note_on_c, 0, 63, 77
1, 39072, Note_on_c, 0, 55, 0
1, 39096, Note_on_c, 0, 63, 0
1, 39120, Note_on_c, 0, 53, 67
1, 39120, Note_on_c, 0, 60, 66
1, 39216, Note_on_c, 0, 60, 0
1, 39240, Note_on_c, 0, 65, 83
1, 39312, Note_on_c, 0, 53, 0
1, 39336, Note_on_c, 0, 65, 0
1, 39360, Note_on_c, 0, 54, 57
1, 39360, Note_on_c, 0, 62, 71
1, 39456, Note_on_c, 0, 62, 0
1, 39480, Note_on_c, 0, 60, 54
1, 39552, Note_on_c, 0, 44, 0
1, 39552, Note_on_c, 0, 54, 0
1, 39576, Note_on_c, 0, 60, 0
1, 39600, Note_on_c, 0, 55, 48
1, 39600, Note_on_c, 0, 62, 58
1, 39600, Note_on_c, 0, 43, 65
1, 39612, Note_on_c, 0, 62, 0
1, 39615, Note_on_c, 0, 60, 54
1, 39627, Note_on_c, 0, 60, 0
1, 39630, Note_on_c, 0, 62, 50
1, 39642, Note_on_c, 0, 62, 0
1, 39645, Note_on_c, 0, 60, 43
1, 39657, Note_on_c, 0, 60, 0
1, 39660, Note_on_c, 0, 62, 61
1, 39672, Note_on_c, 0, 62, 0
1, 39675, Note_on_c, 0, 60, 52
1, 39687, Note_on_c, 0, 60, 0
1, 39690, Note_on_c, 0, 62, 42
1, 39702, Note_on_c, 0, 62, 0
1, 39705, Note_on_c, 0, 60, 52
1, 39717, Note_on_c, 0, 60, 0
1, 39720, Note_on_c, 0, 62, 66
1, 39732, Note_on_c, 0, 62, 0
1, 39735, Note_on_c, 0, 60, 58
1, 39747, Note_on_c, 0, 60, 0
1, 39750, Note_on_c, 0, 62, 77
1, 39762, Note_on_c, 0, 62, 0
1, 39765, Note_on_c, 0, 60, 61
1, 39777, Note_on_c, 0, 60, 0
1, 39780, Note_on_c, 0, 62, 55
1, 39792, Note_on_c, 0, 62, 0
1, 39795, Note_on_c, 0, 60, 71
1, 39807, Note_on_c, 0, 60, 0
1, 39810, Note_on_c, 0, 59, 71
1, 39822, Note_on_c, 0, 59, 0
1, 39825, Note_on_c, 0, 60, 54
1, 39837, Note_on_c, 0, 60, 0
1, 39840, Note_on_c, 0, 59, 61
1, 39888, Note_on_c, 0, 43, 0
1, 39888, Note_on_c, 0, 55, 0
1, 39960, Note_on_c, 0, 53, 61
1, 40032, Note_on_c, 0, 59, 0
1, 40056, Note_on_c, 0, 53, 0
1, 40080, Note_on_c, 0, 51, 83
1, 40176, Note_on_c, 0, 51, 0
1, 40200, Note_on_c, 0, 50, 58
1, 40296, Note_on_c, 0, 50, 0
1, 40320, Note_on_c, 0, 48, 97
1, 40440, Note_on_c, 0, 67, 71
1, 40536, Note_on_c, 0, 67, 0
1, 40560, Note_on_c, 0, 63, 71
1, 40656, Note_on_c, 0, 63, 0
1, 40680, Note_on_c, 0, 68, 50
1, 40776, Note_on_c, 0, 68, 0
1, 40800, Note_on_c, 0, 56, 71
1, 40800, Note_on_c, 0, 65, 83
1, 40896, Note_on_c, 0, 65, 0
1, 40920, Note_on_c, 0, 63, 58
1, 40992, Note_on_c, 0, 48, 0
1, 41016, Note_on_c, 0, 63, 0
1, 41040, Note_on_c, 0, 46, 69
1, 41040, Note_on_c, 0, 62, 83
1, 41136, Note_on_c, 0, 62, 0
1, 41160, Note_on_c, 0, 65, 89
1, 41232, Note_on_c, 0, 56, 0
1, 41256, Note_on_c, 0, 65, 0
1, 41280, Note_on_c, 0, 53, 66
1, 41280, Note_on_c, 0, 62, 71
1, 41376, Note_on_c, 0, 62, 0
1, 41400, Note_on_c, 0, 72, 89
1, 41472, Note_on_c, 0, 53, 0
1, 41496, Note_on_c, 0, 72, 0
1, 41520, Note_on_c, 0, 50, 89
1, 41520, Note_on_c, 0, 70, 97
1, 41616, Note_on_c, 0, 70, 0
1, 41640, Note_on_c, 0, 68, 61
1, 41712, Note_on_c, 0, 50, 0
1, 41712, Note_on_c, 0, 46, 0
1, 41736, Note_on_c, 0, 68, 0
1, 41760, Note_on_c, 0, 51, 77
1, 41760, Note_on_c, 0, 67, 77
1, 41856, Note_on_c, 0, 67, 0
1, 41880, Note_on_c, 0, 75, 77
1, 41952, Note_on_c, 0, 51, 0
1, 41976, Note_on_c, 0, 75, 0
1, 42000, Note_on_c, 0, 55, 77
1, 42120, Note_on_c, 0, 63, 69
1, 42192, Note_on_c, 0, 55, 0
1, 42216, Note_on_c, 0, 63, 0
1, 42240, Note_on_c, 0, 58, 77
1, 42240, Note_on_c, 0, 65, 58
1, 42336, Note_on_c, 0, 65, 0
1, 42360, Note_on_c, 0, 62, 97
1, 42432, Note_on_c, 0, 58, 0
1, 42456, Note_on_c, 0, 62, 0
1, 42480, Note_on_c, 0, 51, 83
1, 42480, Note_on_c, 0, 63, 89
1, 42672, Note_on_c, 0, 63, 0
1, 42672, Note_on_c, 0, 51, 0
1, 42720, Note_on_c, 0, 55, 61
1, 42816, Note_on_c, 0, 55, 0
1, 42840, Note_on_c, 0, 53, 52
1, 42936, Note_on_c, 0, 53, 0
1, 42960, Note_on_c, 0, 51, 83
1, 43056, Note_on_c, 0, 51, 0
1, 43080, Note_on_c, 0, 50, 83
1, 43176, Note_on_c, 0, 50, 0
1, 43200, Note_on_c, 0, 48, 89
1, 43320, Note_on_c, 0, 67, 77
1, 43416, Note_on_c, 0, 67, 0
1, 43440, Note_on_c, 0, 63, 83
1, 43536, Note_on_c, 0, 63, 0
1, 43560, Note_on_c, 0, 68, 77
1, 43656, Note_on_c, 0, 68, 0
1, 43680, Note_on_c, 0, 56, 42
1, 43680, Note_on_c, 0, 65, 97
1, 43776, Note_on_c, 0, 65, 0
1, 43800, Note_on_c, 0, 63, 66
1, 43872, Note_on_c, 0, 56, 0
1, 43872, Note_on_c, 0, 48, 0
1, 43896, Note_on_c, 0, 63, 0
1, 43920, Note_on_c, 0, 62, 71
1, 43920, Note_on_c, 0, 46, 49
1, 44016, Note_on_c, 0, 62, 0
1, 44040, Note_on_c, 0, 65, 89
1, 44136, Note_on_c, 0, 65, 0
1, 44160, Note_on_c, 0, 62, 83
1, 44160, Note_on_c, 0, 55, 47
1, 44256, Note_on_c, 0, 62, 0
1, 44280, Note_on_c, 0, 67, 71
1, 44352, Note_on_c, 0, 46, 0
1, 44376, Note_on_c, 0, 67, 0
1, 44400, Note_on_c, 0, 43, 65
1, 44400, Note_on_c, 0, 63, 71
1, 44496, Note_on_c, 0, 63, 0
1, 44520, Note_on_c, 0, 62, 77
1, 44592, Note_on_c, 0, 43, 0
1, 44616, Note_on_c, 0, 62, 0
1, 44640, Note_on_c, 0, 44, 61
1, 44640, Note_on_c, 0, 60, 75
1, 44736, Note_on_c, 0, 60, 0
1, 44760, Note_on_c, 0, 63, 77
1, 44832, Note_on_c, 0, 55, 0
1, 44856, Note_on_c, 0, 63, 0
1, 44880, Note_on_c, 0, 53, 67
1, 44880, Note_on_c, 0, 60, 66
1, 44976, Note_on_c, 0, 60, 0
1, 45000, Note_on_c, 0, 65, 83
1, 45072, Note_on_c, 0, 53, 0
1, 45096, Note_on_c, 0, 65, 0
1, 45120, Note_on_c, 0, 54, 57
1, 45120, Note_on_c, 0, 62, 71
1, 45216, Note_on_c, 0, 62, 0
1, 45240, Note_on_c, 0, 60, 54
1, 45312, Note_on_c, 0, 44, 0
1, 45312, Note_on_c, 0, 54, 0
1, 45336, Note_on_c, 0, 60, 0
1, 45360, Note_on_c, 0, 55, 48
1, 45360, Note_on_c, 0, 62, 58
1, 45360, Note_on_c, 0, 43, 65
1, 45372, Note_on_c, 0, 62, 0
1, 45375, Note_on_c, 0, 60, 54
1, 45387, Note_on_c, 0, 60, 0
1, 45390, Note_on_c, 0, 62, 50
1, 45402, Note_on_c, 0, 62, 0
1, 45405, Note_on_c, 0, 60, 43
1, 45417, Note_on_c, 0, 60, 0
1, 45420, Note_on_c, 0, 62, 61
1, 45432, Note_on_c, 0, 62, 0
1, 45435, Note_on_c, 0, 60, 52
1, 45447, Note_on_c, 0, 60, 0
1, 45450, Note_on_c, 0, 62, 42
1, 45462, Note_on_c, 0, 62, 0
1, 45465, Note_on_c, 0, 60, 52
1, 45477, Note_on_c, 0, 60, 0
1, 45480, Note_on_c, 0, 62, 66
1, 45492, Note_on_c, 0, 62, 0
1, 45495, Note_on_c, 0, 60, 58
1, 45507, Note_on_c, 0, 60, 0
1, 45510, Note_on_c, 0, 62, 77
1, 45522, Note_on_c, 0, 62, 0
1, 45525, Note_on_c, 0, 60, 61
1, 45537, Note_on_c, 0, 60, 0
1, 45540, Note_on_c, 0, 62, 55
1, 45552, Note_on_c, 0, 62, 0
1, 45555, Note_on_c, 0, 60, 71
1, 45567, Note_on_c, 0, 60, 0
1, 45570, Note_on_c, 0, 59, 71
1, 45582, Note_on_c, 0, 59, 0
1, 45585, Note_on_c, 0, 60, 54
1, 45597, Note_on_c, 0, 60, 0
1, 45600, Note_on_c, 0, 59, 61
1, 45648, Note_on_c, 0, 43, 0
1, 45648, Note_on_c, 0, 55, 0
1, 45720, Note_on_c, 0, 53, 61
1, 45792, Note_on_c, 0, 59, 0
1, 45816, Note_on_c, 0, 53, 0
1, 45840, Note_on_c, 0, 51, 83
1, 45936, Note_on_c, 0, 51, 0
1, 45960, Note_on_c, 0, 50, 58
1, 46056, Note_on_c, 0, 50, 0
1, 46080, Note_on_c, 0, 48, 97
1, 46200, Note_on_c, 0, 67, 71
1, 46296, Note_on_c, 0, 67, 0
1, 46320, Note_on_c, 0, 63, 71
1, 46416, Note_on_c, 0, 63, 0
1, 46440, Note_on_c, 0, 68, 50
1, 46536, Note_on_c, 0, 68, 0
1, 46560, Note_on_c, 0, 56, 71
1, 46560, Note_on_c, 0, 65, 83
1, 46656, Note_on_c, 0, 65, 0
1, 46680, Note_on_c, 0, 63, 58
1, 46752, Note_on_c, 0, 48, 0
1, 46776, Note_on_c, 0, 63, 0
1, 46800, Note_on_c, 0, 46, 69
1, 46800, Note_on_c, 0, 62, 83
1, 46896, Note_on_c, 0, 62, 0
1, 46920, Note_on_c, 0, 65, 89
1, 46992, Note_on_c, 0, 56, 0
1, 47016, Note_on_c, 0, 65, 0
1, 47040, Note_on_c, 0, 53, 66
1, 47040, Note_on_c, 0, 62, 71
1, 47136, Note_on_c, 0, 62, 0
1, 47160, Note_on_c, 0, 72, 89
1, 47232, Note_on_c, 0, 53, 0
1, 47256, Note_on_c, 0, 72, 0
1, 47280, Note_on_c, 0, 50, 89
1, 47280, Note_on_c, 0, 70, 97
1, 47376, Note_on_c, 0, 70, 0
1, 47400, Note_on_c, 0, 68, 61
1, 47472, Note_on_c, 0, 50, 0
1, 47472, Note_on_c, 0, 46, 0
1, 47496, Note_on_c, 0, 68, 0
1, 47520, Note_on_c, 0, 51, 77
1, 47520, Note_on_c, 0, 67, 77
1, 47616, Note_on_c, 0, 67, 0
1, 47640, Note_on_c, 0, 75, 77
1, 47712, Note_on_c, 0, 51, 0
1, 47736, Note_on_c, 0, 75, 0
1, 47760, Note_on_c, 0, 55, 77
1, 47880, Note_on_c, 0, 63, 69
1, 47952, Note_on_c, 0, 55, 0
1, 47976, Note_on_c, 0, 63, 0
1, 48000, Note_on_c, 0, 58, 77
1, 48000, Note_on_c, 0, 65, 58
1, 48096, Note_on_c, 0, 65, 0
1, 48120, Note_on_c, 0, 62, 97
1, 48192, Note_on_c, 0, 58, 0
1, 48216, Note_on_c, 0, 62, 0
1, 48240, Note_on_c, 0, 51, 83
1, 48240, Note_on_c, 0, 63, 89
1, 48432, Note_on_c, 0, 63, 0
1, 48432, Note_on_c, 0, 51, 0
1, 48480, Note_on_c, 0, 55, 61
1, 48576, Note_on_c, 0, 55, 0
1, 48600, Note_on_c, 0, 53, 52
1, 48696, Note_on_c, 0, 53, 0
1, 48720, Note_on_c, 0, 51, 83
1, 48816, Note_on_c, 0, 51, 0
1, 48840, Note_on_c, 0, 50, 83
1, 48936, Note_on_c, 0, 50, 0
1, 48960, Note_on_c, 0, 39, 66
1, 48960, Note_on_c, 0, 51, 48
1, 49080, Note_on_c, 0, 70, 89
1, 49176, Note_on_c, 0, 70, 0
1, 49200, Note_on_c, 0, 67, 69
1, 49296, Note_on_c, 0, 67, 0
1, 49320, Note_on_c, 0, 72, 77
1, 49344, Note_on_c, 0, 51, 0
1, 49344, Note_on_c, 0, 39, 0
1, 49440, Note_on_c, 0, 52, 54
1, 49440, Note_on_c, 0, 40, 57
1, 49512, Note_on_c, 0, 72, 0
1, 49560, Note_on_c, 0, 70, 54
1, 49632, Note_on_c, 0, 40, 0
1, 49632, Note_on_c, 0, 52, 0
1, 49656, Note_on_c, 0, 70, 0
1, 49680, Note_on_c, 0, 41, 71
1, 49680, Note_on_c, 0, 53, 45
1, 49800, Note_on_c, 0, 68, 71
1, 49872, Note_on_c, 0, 53, 0
1, 49872, Note_on_c, 0, 41, 0
1, 49896, Note_on_c, 0, 68, 0
1, 49920, Note_on_c, 0, 65, 50
1, 49920, Note_on_c, 0, 50, 77
1, 50016, Note_on_c, 0, 65, 0
1, 50040, Note_on_c, 0, 70, 89
1, 50112, Note_on_c, 0, 50, 0
1, 50160, Note_on_c, 0, 46, 97
1, 50232, Note_on_c, 0, 70, 0
1, 50280, Note_on_c, 0, 68, 58
1, 50352, Note_on_c, 0, 46, 0
1, 50376, Note_on_c, 0, 68, 0
1, 50400, Note_on_c, 0, 51, 106
1, 50520, Note_on_c, 0, 67, 44
1, 50616, Note_on_c, 0, 67, 0
1, 50640, Note_on_c, 0, 65, 52
1, 50736, Note_on_c, 0, 65, 0
1, 50760, Note_on_c, 0, 63, 77
1, 50784, Note_on_c, 0, 51, 0
1, 50856, Note_on_c, 0, 63, 0
1, 50880, Note_on_c, 0, 62, 71
1, 50880, Note_on_c, 0, 53, 71
1, 50976, Note_on_c, 0, 62, 0
1, 51000, Note_on_c, 0, 60, 71
1, 51072, Note_on_c, 0, 53, 0
1, 51096, Note_on_c, 0, 60, 0
1, 51120, Note_on_c, 0, 55, 61
1, 51120, Note_on_c, 0, 59, 83
1, 51408, Note_on_c, 0, 55, 0
1, 51480, Note_on_c, 0, 56, 61
1, 51504, Note_on_c, 0, 59, 0
1, 51576, Note_on_c, 0, 56, 0
1, 51600, Note_on_c, 0, 55, 77
1, 51696, Note_on_c, 0, 55, 0
1, 51720, Note_on_c, 0, 53, 42
1, 51816, Note_on_c, 0, 53, 0
1, 51840, Note_on_c, 0, 51, 52
1, 51960, Note_on_c, 0, 72, 97
1, 52056, Note_on_c, 0, 72, 0
1, 52080, Note_on_c, 0, 60, 54
1, 52128, Note_on_c, 0, 51, 0
1, 52176, Note_on_c, 0, 60, 0
1, 52200, Note_on_c, 0, 68, 66
1, 52200, Note_on_c, 0, 53, 66
1, 52296, Note_on_c, 0, 53, 0
1, 52296, Note_on_c, 0, 68, 0
1, 52320, Note_on_c, 0, 67, 66
1, 52320, Note_on_c, 0, 51, 83
1, 52416, Note_on_c, 0, 51, 0
1, 52416, Note_on_c, 0, 67, 0
1, 52440, Note_on_c, 0, 65, 71
1, 52440, Note_on_c, 0, 50, 89
1, 52536, Note_on_c, 0, 50, 0
1, 52536, Note_on_c, 0, 65, 0
1, 52560, Note_on_c, 0, 48, 83
1, 52560, Note_on_c, 0, 63, 61
1, 52656, Note_on_c, 0, 63, 0
1, 52680, Note_on_c, 0, 72, 83
1, 52752, Note_on_c, 0, 48, 0
1, 52776, Note_on_c, 0, 72, 0
1, 52800, Note_on_c, 0, 60, 71
1, 52896, Note_on_c, 0, 60, 0
1, 52920, Note_on_c, 0, 65, 97
1, 52920, Note_on_c, 0, 56, 66
1, 53016, Note_on_c, 0, 56, 0
1, 53016, Note_on_c, 0, 65, 0
1, 53040, Note_on_c, 0, 63, 83
1, 53040, Note_on_c, 0, 55, 54
1, 53136, Note_on_c, 0, 55, 0
1, 53136, Note_on_c, 0, 63, 0
1, 53160, Note_on_c, 0, 62, 83
1, 53160, Note_on_c, 0, 53, 66
1, 53256, Note_on_c, 0, 53, 0
1, 53256, Note_on_c, 0, 62, 0
1, 53280, Note_on_c, 0, 51, 67
1, 53280, Note_on_c, 0, 60, 66
1, 53376, Note_on_c, 0, 60, 0
1, 53400, Note_on_c, 0, 72, 97
1, 53472, Note_on_c, 0, 51, 0
1, 53496, Note_on_c, 0, 72, 0
1, 53520, Note_on_c, 0, 60, 77
1, 53616, Note_on_c, 0, 60, 0
1, 53640, Note_on_c, 0, 70, 114
1, 53640, Note_on_c, 0, 55, 61
1, 53736, Note_on_c, 0, 55, 0
1, 53736, Note_on_c, 0, 70, 0
1, 53760, Note_on_c, 0, 68, 69
1, 53760, Note_on_c, 0, 53, 58
1, 53856, Note_on_c, 0, 53, 0
1, 53856, Note_on_c, 0, 68, 0
1, 53880, Note_on_c, 0, 67, 71
1, 53880, Note_on_c, 0, 52, 43
1, 53976, Note_on_c, 0, 52, 0
1, 53976, Note_on_c, 0, 67, 0
1, 54000, Note_on_c, 0, 53, 47
1, 54000, Note_on_c, 0, 68, 89
1, 54096, Note_on_c, 0, 68, 0
1, 54120, Note_on_c, 0, 72, 97
1, 54192, Note_on_c, 0, 53, 0
1, 54216, Note_on_c, 0, 72, 0
1, 54240, Note_on_c, 0, 65, 61
1, 54336, Note_on_c, 0, 65, 0
1, 54360, Note_on_c, 0, 68, 71
1, 54360, Note_on_c, 0, 53, 58
1, 54456, Note_on_c, 0, 53, 0
1, 54456, Note_on_c, 0, 68, 0
1, 54480, Note_on_c, 0, 67, 66
1, 54480, Note_on_c, 0, 51, 66
1, 54576, Note_on_c, 0, 51, 0
1, 54576, Note_on_c, 0, 67, 0
1, 54600, Note_on_c, 0, 65, 66
1, 54600, Note_on_c, 0, 50, 80
1, 54696, Note_on_c, 0, 50, 0
1, 54696, Note_on_c, 0, 65, 0
1, 54720, Note_on_c, 0, 67, 66
1, 54720, Note_on_c, 0, 51, 97
1, 54816, Note_on_c, 0, 67, 0
1, 54840, Note_on_c, 0, 72, 57
1, 54912, Note_on_c, 0, 51, 0
1, 54936, Note_on_c, 0, 72, 0
1, 54960, Note_on_c, 0, 53, 89
1, 55080, Note_on_c, 0, 68, 54
1, 55152, Note_on_c, 0, 53, 0
1, 55176, Note_on_c, 0, 68, 0
1, 55200, Note_on_c, 0, 67, 58
1, 55200, Note_on_c, 0, 55, 71
1, 55296, Note_on_c, 0, 67, 0
1, 55320, Note_on_c, 0, 59, 66
1, 55392, Note_on_c, 0, 55, 0
1, 55416, Note_on_c, 0, 59, 0
1, 55440, Note_on_c, 0, 59, 58
1, 55440, Note_on_c, 0, 48, 71
1, 55632, Note_on_c, 0, 48, 0
1, 55632, Note_on_c, 0, 59, 0
1, 55680, Note_on_c, 0, 60, 54
1, 55680, Note_on_c, 0, 43, 83
1, 55872, Note_on_c, 0, 43, 0
1, 55872, Note_on_c, 0, 60, 0
1, 55920, Note_on_c, 0, 36, 71
1, 56112, Note_on_c, 0, 36, 0
1, 56160, Note_on_c, 0, 39, 66
1, 56160, Note_on_c, 0, 51, 48
1, 56280, Note_on_c, 0, 70, 89
1, 56376, Note_on_c, 0, 70, 0
1, 56400, Note_on_c, 0, 67, 69
1, 56496, Note_on_c, 0, 67, 0
1, 56520, Note_on_c, 0, 72, 77
1, 56544, Note_on_c, 0, 51, 0
1, 56544, Note_on_c, 0, 39, 0
1, 56640, Note_on_c, 0, 52, 54
1, 56640, Note_on_c, 0, 40, 57
1, 56712, Note_on_c, 0, 72, 0
1, 56760, Note_on_c, 0, 70, 54
1, 56832, Note_on_c, 0, 40, 0
1, 56832, Note_on_c, 0, 52, 0
1, 56856, Note_on_c, 0, 70, 0
1, 56880, Note_on_c, 0, 41, 71
1, 56880, Note_on_c, 0, 53, 45
1, 57000, Note_on_c, 0, 68, 71
1, 57072, Note_on_c, 0, 53, 0
1, 57072, Note_on_c, 0, 41, 0
1, 57096, Note_on_c, 0, 68, 0
1, 57120, Note_on_c, 0, 65, 50
1, 57120, Note_on_c, 0, 50, 77
1, 57216, Note_on_c, 0, 65, 0
1, 57240, Note_on_c, 0, 70, 89
1, 57312, Note_on_c, 0, 50, 0
1, 57360, Note_on_c, 0, 46, 97
1, 57432, Note_on_c, 0, 70, 0
1, 57480, Note_on_c, 0, 68, 58
1, 57552, Note_on_c, 0, 46, 0
1, 57576, Note_on_c, 0, 68, 0
1, 57600, Note_on_c, 0, 51, 106
1, 57720, Note_on_c, 0, 67, 44
1, 57816, Note_on_c, 0, 67, 0
1, 57840, Note_on_c, 0, 65, 52
1, 57936, Note_on_c, 0, 65, 0
1, 57960, Note_on_c, 0, 63, 77
1, 57984, Note_on_c, 0, 51, 0
1, 58056, Note_on_c, 0, 63, 0
1, 58080, Note_on_c, 0, 62, 71
1, 58080, Note_on_c, 0, 53, 71
1, 58176, Note_on_c, 0, 62, 0
1, 58200, Note_on_c, 0, 60, 71
1, 58272, Note_on_c, 0, 53, 0
1, 58296, Note_on_c, 0, 60, 0
1, 58320, Note_on_c, 0, 55, 61
1, 58320, Note_on_c, 0, 59, 83
1, 58608, Note_on_c, 0, 55, 0
1, 58680, Note_on_c, 0, 56, 61
1, 58704, Note_on_c, 0, 59, 0
1, 58776, Note_on_c, 0, 56, 0
1, 58800, Note_on_c, 0, 55, 77
1, 58896, Note_on_c, 0, 55, 0
1, 58920, Note_on_c, 0, 53, 42
1, 59016, Note_on_c, 0, 53, 0
1, 59040, Note_on_c, 0, 51, 52
1, 59160, Note_on_c, 0, 72, 97
1, 59256, Note_on_c, 0, 72, 0
1, 59280, Note_on_c, 0, 60, 54
1, 59328, Note_on_c, 0, 51, 0
1, 59376, Note_on_c, 0, 60, 0
1, 59400, Note_on_c, 0, 68, 66
1, 59400, Note_on_c, 0, 53, 66
1, 59496, Note_on_c, 0, 53, 0
1, 59496, Note_on_c, 0, 68, 0
1, 59520, Note_on_c, 0, 67, 66
1, 59520, Note_on_c, 0, 51, 83
1, 59616, Note_on_c, 0, 51, 0
1, 59616, Note_on_c, 0, 67, 0
1, 59640, Note_on_c, 0, 65, 71
1, 59640, Note_on_c, 0, 50, 89
1, 59736, Note_on_c, 0, 50, 0
1, 59736, Note_on_c, 0, 65, 0
1, 59760, Note_on_c, 0, 48, 83
1, 59760, Note_on_c, 0, 63, 61
1, 59856, Note_on_c, 0, 63, 0
1, 59880, Note_on_c, 0, 72, 83
1, 59952, Note_on_c, 0, 48, 0
1, 59976, Note_on_c, 0, 72, 0
1, 60000, Note_on_c, 0, 60, 71
1, 60096, Note_on_c, 0, 60, 0
1, 60120, Note_on_c, 0, 65, 97
1, 60120, Note_on_c, 0, 56, 66
1, 60216, Note_on_c, 0, 56, 0
1, 60216, Note_on_c, 0, 65, 0
1, 60240, Note_on_c, 0, 63, 83
1, 60240, Note_on_c, 0, 55, 54
1, 60336, Note_on_c, 0, 55, 0
1, 60336, Note_on_c, 0, 63, 0
1, 60360, Note_on_c, 0, 62, 83
1, 60360, Note_on_c, 0, 53, 66
1, 60456, Note_on_c, 0, 53, 0
1, 60456, Note_on_c, 0, 62, 0
1, 60480, Note_on_c, 0, 51, 67
1, 60480, Note_on_c, 0, 60, 66
1, 60576, Note_on_c, 0, 60, 0
1, 60600, Note_on_c, 0, 72, 97
1, 60672, Note_on_c, 0, 51, 0
1, 60696, Note_on_c, 0, 72, 0
1, 60720, Note_on_c, 0, 60, 77
1, 60816, Note_on_c, 0, 60, 0
1, 60840, Note_on_c, 0, 70, 114
1, 60840, Note_on_c, 0, 55, 61
1, 60936, Note_on_c, 0, 55, 0
1, 60936, Note_on_c, 0, 70, 0
1, 60960, Note_on_c, 0, 68, 69
1, 60960, Note_on_c, 0, 53, 58
1, 61056, Note_on_c, 0, 53, 0
1, 61056, Note_on_c, 0, 68, 0
1, 61080, Note_on_c, 0, 67, 71
1, 61080, Note_on_c, 0, 52, 43
1, 61176, Note_on_c, 0, 52, 0
1, 61176, Note_on_c, 0, 67, 0
1, 61200, Note_on_c, 0, 53, 47
1, 61200, Note_on_c, 0, 68, 89
1, 61296, Note_on_c, 0, 68, 0
1, 61320, Note_on_c, 0, 72, 97
1, 61392, Note_on_c, 0, 53, 0
1, 61416, Note_on_c, 0, 72, 0
1, 61440, Note_on_c, 0, 65, 61
1, 61536, Note_on_c, 0, 65, 0
1, 61560, Note_on_c, 0, 68, 71
1, 61560, Note_on_c, 0, 53, 58
1, 61656, Note_on_c, 0, 53, 0
1, 61656, Note_on_c, 0, 68, 0
1, 61680, Note_on_c, 0, 67, 66
1, 61680, Note_on_c, 0, 51, 66
1, 61776, Note_on_c, 0, 51, 0
1, 61776, Note_on_c, 0, 67, 0
1, 61800, Note_on_c, 0, 65, 66
1, 61800, Note_on_c, 0, 50, 80
1, 61896, Note_on_c, 0, 50, 0
1, 61896, Note_on_c, 0, 65, 0
1, 61920, Note_on_c, 0, 67, 66
1, 61920, Note_on_c, 0, 51, 97
1, 62016, Note_on_c, 0, 67, 0
1, 62040, Note_on_c, 0, 72, 57
1, 62112, Note_on_c, 0, 51, 0
1, 62136, Note_on_c, 0, 72, 0
1, 62160, Note_on_c, 0, 53, 89
1, 62280, Note_on_c, 0, 68, 54
1, 62352, Note_on_c, 0, 53, 0
1, 62376, Note_on_c, 0, 68, 0
1, 62400, Note_on_c, 0, 67, 58
1, 62400, Note_on_c, 0, 55, 71
1, 62496, Note_on_c, 0, 67, 0
1, 62520, Note_on_c, 0, 59, 66
1, 62592, Note_on_c, 0, 55, 0
1, 62616, Note_on_c, 0, 59, 0
1, 62640, Note_on_c, 0, 59, 58
1, 62640, Note_on_c, 0, 48, 71
1, 62832, Note_on_c, 0, 48, 0
1, 62832, Note_on_c, 0, 59, 0
1, 62880, Note_on_c, 0, 60, 54
1, 62880, Note_on_c, 0, 43, 83
1, 63072, Note_on_c, 0, 43, 0
1, 63072, Note_on_c, 0, 60, 0
1, 63120, Note_on_c, 0, 36, 71
1, 63312, Note_on_c, 0, 36, 0
1, 63360, Note_on_c, 0, 72, 61
1, 63360, Note_on_c, 0, 60, 42
1, 63360, Note_on_c, 0, 48, 56
1, 63552, Note_on_c, 0, 48, 0
1, 63552, Note_on_c, 0, 60, 0
1, 63552, Note_on_c, 0, 72, 0
1, 63600, Note_on_c, 0, 76, 61
1, 63664, Note_on_c, 0, 76, 0
1, 63680, Note_on_c, 0, 74, 77
1, 63744, Note_on_c, 0, 74, 0
1, 63760, Note_on_c, 0, 72, 66
1, 63824, Note_on_c, 0, 72, 0
1, 63840, Note_on_c, 0, 77, 75
1, 63904, Note_on_c, 0, 77, 0
1, 63920, Note_on_c, 0, 76, 77
1, 63984, Note_on_c, 0, 76, 0
1, 64000, Note_on_c, 0, 74, 71
1, 64064, Note_on_c, 0, 74, 0
1, 64080, Note_on_c, 0, 79, 42
1, 64080, Note_on_c, 0, 64, 89
1, 64272, Note_on_c, 0, 64, 0
1, 64272, Note_on_c, 0, 79, 0
1, 64320, Note_on_c, 0, 60, 66
1, 64320, Note_on_c, 0, 76, 47
1, 64512, Note_on_c, 0, 76, 0
1, 64512, Note_on_c, 0, 60, 0
1, 64560, Note_on_c, 0, 62, 61
1, 64560, Note_on_c, 0, 55, 89
1, 64560, Note_on_c, 0, 79, 43
1, 64608, Note_on_c, 0, 79, 0
1, 64620, Note_on_c, 0, 77, 81
1, 64668, Note_on_c, 0, 77, 0
1, 64680, Note_on_c, 0, 76, 77
1, 64728, Note_on_c, 0, 76, 0
1, 64740, Note_on_c, 0, 74, 89
1, 64752, Note_on_c, 0, 55, 0
1, 64752, Note_on_c, 0, 62, 0
1, 64788, Note_on_c, 0, 74, 0
1, 64800, Note_on_c, 0, 60, 77
1, 64800, Note_on_c, 0, 72, 42
1, 64992, Note_on_c, 0, 72, 0
1, 64992, Note_on_c, 0, 60, 0
1, 65040, Note_on_c, 0, 64, 83
1, 65040, Note_on_c, 0, 84, 42
1, 65232, Note_on_c, 0, 84, 0
1, 65232, Note_on_c, 0, 64, 0
1, 65280, Note_on_c, 0, 65, 58
1, 65280, Note_on_c, 0, 81, 71
1, 65472, Note_on_c, 0, 81, 0
1, 65472, Note_on_c, 0, 65, 0
1, 65520, Note_on_c, 0, 60, 61
1, 65520, Note_on_c, 0, 65, 44
1, 65520, Note_on_c, 0, 83, 50
1, 65532, Note_on_c, 0, 83, 0
1, 65535, Note_on_c, 0, 81, 58
1, 65547, Note_on_c, 0, 81, 0
1, 65550, Note_on_c, 0, 83, 52
1, 65562, Note_on_c, 0, 83, 0
1, 65565, Note_on_c, 0, 81, 58
1, 65577, Note_on_c, 0, 81, 0
1, 65580, Note_on_c, 0, 83, 43
1, 65592, Note_on_c, 0, 83, 0
1, 65595, Note_on_c, 0, 81, 58
1, 65607, Note_on_c, 0, 81, 0
1, 65610, Note_on_c, 0, 83, 43
1, 65622, Note_on_c, 0, 83, 0
1, 65625, Note_on_c, 0, 81, 57
1, 65637, Note_on_c, 0, 81, 0
1, 65640, Note_on_c, 0, 83, 50
1, 65652, Note_on_c, 0, 83, 0
1, 65655, Note_on_c, 0, 81, 58
1, 65667, Note_on_c, 0, 81, 0
1, 65670, Note_on_c, 0, 83, 54
1, 65682, Note_on_c, 0, 83, 0
1, 65685, Note_on_c, 0, 81, 66
1, 65697, Note_on_c, 0, 81, 0
1, 65700, Note_on_c, 0, 83, 50
1, 65712, Note_on_c, 0, 83, 0
1, 65712, Note_on_c, 0, 65, 0
1, 65715, Note_on_c, 0, 81, 45
1, 65727, Note_on_c, 0, 81, 0
1, 65730, Note_on_c, 0, 83, 43
1, 65742, Note_on_c, 0, 83, 0
1, 65745, Note_on_c, 0, 81, 54
1, 65757, Note_on_c, 0, 81, 0
1, 65760, Note_on_c, 0, 64, 50
1, 65760, Note_on_c, 0, 79, 66
1, 65952, Note_on_c, 0, 79, 0
1, 65952, Note_on_c, 0, 64, 0
1, 65952, Note_on_c, 0, 60, 0
1, 66240, Note_on_c, 0, 59, 80
1, 66304, Note_on_c, 0, 59, 0
1, 66320, Note_on_c, 0, 62, 80
1, 66384, Note_on_c, 0, 62, 0
1, 66400, Note_on_c, 0, 67, 80
1, 66464, Note_on_c, 0, 67, 0
1, 66480, Note_on_c, 0, 59, 80
1, 66560, Note_on_c, 0, 74, 80
1, 66624, Note_on_c, 0, 74, 0
1, 66640, Note_on_c, 0, 76, 80
1, 66672, Note_on_c, 0, 59, 0
1, 66704, Note_on_c, 0, 76, 0
1, 66720, Note_on_c, 0, 77, 77
1, 66784, Note_on_c, 0, 77, 0
1, 66800, Note_on_c, 0, 76, 81
1, 66864, Note_on_c, 0, 76, 0
1, 66880, Note_on_c, 0, 74, 71
1, 66944, Note_on_c, 0, 74, 0
1, 66960, Note_on_c, 0, 60, 80
1, 66960, Note_on_c, 0, 76, 80
1, 67024, Note_on_c, 0, 60, 0
1, 67040, Note_on_c, 0, 64, 80
1, 67104, Note_on_c, 0, 64, 0
1, 67120, Note_on_c, 0, 67, 80
1, 67152, Note_on_c, 0, 76, 0
1, 67184, Note_on_c, 0, 67, 0
1, 67200, Note_on_c, 0, 60, 80
1, 67280, Note_on_c, 0, 76, 80
1, 67344, Note_on_c, 0, 76, 0
1, 67360, Note_on_c, 0, 77, 80
1, 67392, Note_on_c, 0, 60, 0
1, 67424, Note_on_c, 0, 77, 0
1, 67440, Note_on_c, 0, 79, 71
1, 67504, Note_on_c, 0, 79, 0
1, 67520, Note_on_c, 0, 77, 83
1, 67584, Note_on_c, 0, 77, 0
1, 67600, Note_on_c, 0, 76, 77
1, 67664, Note_on_c, 0, 76, 0
1, 67680, Note_on_c, 0, 65, 42
1, 67680, Note_on_c, 0, 53, 43
1, 67680, Note_on_c, 0, 74, 97
1, 67744, Note_on_c, 0, 74, 0
1, 67760, Note_on_c, 0, 76, 83
1, 67824, Note_on_c, 0, 76, 0
1, 67840, Note_on_c, 0, 77, 89
1, 67872, Note_on_c, 0, 53, 0
1, 67872, Note_on_c, 0, 65, 0
1, 67904, Note_on_c, 0, 77, 0
1, 67920, Note_on_c, 0, 64, 50
1, 67920, Note_on_c, 0, 55, 77
1, 67920, Note_on_c, 0, 72, 58
1, 68112, Note_on_c, 0, 72, 0
1, 68112, Note_on_c, 0, 55, 0
1, 68112, Note_on_c, 0, 64, 0
1, 68160, Note_on_c, 0, 62, 50
1, 68160, Note_on_c, 0, 55, 60
1, 68160, Note_on_c, 0, 71, 83
1, 68352, Note_on_c, 0, 71, 0
1, 68352, Note_on_c, 0, 55, 0
1, 68352, Note_on_c, 0, 62, 0
1, 68400, Note_on_c, 0, 60, 54
1, 68400, Note_on_c, 0, 72, 52
1, 68592, Note_on_c, 0, 60, 0
1, 68640, Note_on_c, 0, 55, 77
1, 68784, Note_on_c, 0, 72, 0
1, 68832, Note_on_c, 0, 55, 0
1, 68880, Note_on_c, 0, 48, 89
1, 69072, Note_on_c, 0, 48, 0
1, 69120, Note_on_c, 0, 76, 61
1, 69120, Note_on_c, 0, 48, 74
1, 69120, Note_on_c, 0, 60, 58
1, 69216, Note_on_c, 0, 76, 0
1, 69240, Note_on_c, 0, 84, 69
1, 69312, Note_on_c, 0, 60, 0
1, 69312, Note_on_c, 0, 48, 0
1, 69336, Note_on_c, 0, 84, 0
1, 69360, Note_on_c, 0, 76, 75
1, 69424, Note_on_c, 0, 76, 0
1, 69440, Note_on_c, 0, 78, 89
1, 69504, Note_on_c, 0, 78, 0
1, 69520, Note_on_c, 0, 79, 81
1, 69584, Note_on_c, 0, 79, 0
1, 69600, Note_on_c, 0, 48, 77
1, 69600, Note_on_c, 0, 60, 53
1, 69600, Note_on_c, 0, 78, 97
1, 69664, Note_on_c, 0, 78, 0
1, 69680, Note_on_c, 0, 79, 71
1, 69744, Note_on_c, 0, 79, 0
1, 69760, Note_on_c, 0, 81, 83
1, 69792, Note_on_c, 0, 60, 0
1, 69792, Note_on_c, 0, 48, 0
1, 69824, Note_on_c, 0, 81, 0
1, 69840, Note_on_c, 0, 59, 45
1, 69840, Note_on_c, 0, 47, 71
1, 69840, Note_on_c, 0, 79, 81
1, 69936, Note_on_c, 0, 79, 0
1, 69960, Note_on_c, 0, 83, 77
1, 70056, Note_on_c, 0, 83, 0
1, 70080, Note_on_c, 0, 74, 71
1, 70128, Note_on_c, 0, 47, 0
1, 70128, Note_on_c, 0, 59, 0
1, 70200, Note_on_c, 0, 59, 43
1, 70272, Note_on_c, 0, 74, 0
1, 70296, Note_on_c, 0, 59, 0
1, 70320, Note_on_c, 0, 57, 83
1, 70416, Note_on_c, 0, 57, 0
1, 70440, Note_on_c, 0, 55, 77
1, 70536, Note_on_c, 0, 55, 0
1, 70560, Note_on_c, 0, 72, 54
1, 70560, Note_on_c, 0, 57, 58
1, 70656, Note_on_c, 0, 72, 0
1, 70680, Note_on_c, 0, 81, 42
1, 70752, Note_on_c, 0, 57, 0
1, 70776, Note_on_c, 0, 81, 0
1, 70800, Note_on_c, 0, 54, 58
1, 70800, Note_on_c, 0, 69, 77
1, 70864, Note_on_c, 0, 69, 0
1, 70880, Note_on_c, 0, 71, 83
1, 70944, Note_on_c, 0, 71, 0
1, 70960, Note_on_c, 0, 72, 97
1, 70992, Note_on_c, 0, 54, 0
1, 71024, Note_on_c, 0, 72, 0
1, 71040, Note_on_c, 0, 55, 77
1, 71040, Note_on_c, 0, 71, 71
1, 71104, Note_on_c, 0, 71, 0
1, 71120, Note_on_c, 0, 72, 97
1, 71184, Note_on_c, 0, 72, 0
1, 71200, Note_on_c, 0, 74, 97
1, 71232, Note_on_c, 0, 55, 0
1, 71264, Note_on_c, 0, 74, 0
1, 71280, Note_on_c, 0, 57, 83
1, 71280, Note_on_c, 0, 74, 83
1, 71472, Note_on_c, 0, 74, 0
1, 71472, Note_on_c, 0, 57, 0
1, 71520, Note_on_c, 0, 50, 83
1, 71520, Note_on_c, 0, 72, 89
1, 71712, Note_on_c, 0, 72, 0
1, 71712, Note_on_c, 0, 50, 0
1, 71760, Note_on_c, 0, 55, 66
1, 71760, Note_on_c, 0, 71, 66
1, 71952, Note_on_c, 0, 71, 0
1, 71952, Note_on_c, 0, 55, 0
1, 72000, Note_on_c, 0, 48, 83
1, 72064, Note_on_c, 0, 48, 0
1, 72080, Note_on_c, 0, 52, 97
1, 72144, Note_on_c, 0, 52, 0
1, 72160, Note_on_c, 0, 55, 77
1, 72224, Note_on_c, 0, 55, 0
1, 72240, Note_on_c, 0, 48, 89
1, 72320, Note_on_c, 0, 76, 89
1, 72384, Note_on_c, 0, 76, 0
1, 72400, Note_on_c, 0, 78, 57
1, 72432, Note_on_c, 0, 48, 0
1, 72464, Note_on_c, 0, 78, 0
1, 72480, Note_on_c, 0, 79, 71
1, 72544, Note_on_c, 0, 79, 0
1, 72560, Note_on_c, 0, 78, 71
1, 72624, Note_on_c, 0, 78, 0
1, 72640, Note_on_c, 0, 76, 75
1, 72704, Note_on_c, 0, 76, 0
1, 72720, Note_on_c, 0, 47, 42
1, 72720, Note_on_c, 0, 74, 89
1, 72784, Note_on_c, 0, 47, 0
1, 72800, Note_on_c, 0, 50, 43
1, 72864, Note_on_c, 0, 50, 0
1, 72880, Note_on_c, 0, 55, 58
1, 72912, Note_on_c, 0, 74, 0
1, 72944, Note_on_c, 0, 55, 0
1, 72960, Note_on_c, 0, 47, 77
1, 73040, Note_on_c, 0, 78, 71
1, 73104, Note_on_c, 0, 78, 0
1, 73120, Note_on_c, 0, 79, 61
1, 73152, Note_on_c, 0, 47, 0
1, 73184, Note_on_c, 0, 79, 0
1, 73200, Note_on_c, 0, 81, 54
1, 73264, Note_on_c, 0, 81, 0
1, 73280, Note_on_c, 0, 78, 89
1, 73344, Note_on_c, 0, 78, 0
1, 73360, Note_on_c, 0, 79, 61
1, 73424, Note_on_c, 0, 79, 0
1, 73440, Note_on_c, 0, 76, 89
1, 73440, Note_on_c, 0, 55, 54
1, 73440, Note_on_c, 0, 48, 75
1, 73504, Note_on_c, 0, 76, 0
1, 73520, Note_on_c, 0, 74, 89
1, 73584, Note_on_c, 0, 74, 0
1, 73600, Note_on_c, 0, 72, 95
1, 73632, Note_on_c, 0, 48, 0
1, 73632, Note_on_c, 0, 55, 0
1, 73664, Note_on_c, 0, 72, 0
1, 73680, Note_on_c, 0, 71, 77
1, 73680, Note_on_c, 0, 50, 75
1, 73680, Note_on_c, 0, 55, 74
1, 73872, Note_on_c, 0, 55, 0
1, 73872, Note_on_c, 0, 71, 0
1, 73920, Note_on_c, 0, 54, 65
1, 73920, Note_on_c, 0, 71, 54
1, 73932, Note_on_c, 0, 71, 0
1, 73935, Note_on_c, 0, 69, 12
1, 73947, Note_on_c, 0, 69, 0
1, 73950, Note_on_c, 0, 71, 43
1, 73962, Note_on_c, 0, 71, 0
1, 73965, Note_on_c, 0, 69, 44
1, 73977, Note_on_c, 0, 69, 0
1, 73980, Note_on_c, 0, 71, 50
1, 73992, Note_on_c, 0, 71, 0
1, 73995, Note_on_c, 0, 69, 43
1, 74007, Note_on_c, 0, 69, 0
1, 74010, Note_on_c, 0, 71, 54
1, 74022, Note_on_c, 0, 71, 0
1, 74025, Note_on_c, 0, 69, 52
1, 74037, Note_on_c, 0, 69, 0
1, 74040, Note_on_c, 0, 71, 50
1, 74052, Note_on_c, 0, 71, 0
1, 74055, Note_on_c, 0, 69, 47
1, 74067, Note_on_c, 0, 69, 0
1, 74070, Note_on_c, 0, 71, 44
1, 74082, Note_on_c, 0, 71, 0
1, 74085, Note_on_c, 0, 69, 52
1, 74097, Note_on_c, 0, 69, 0
1, 74100, Note_on_c, 0, 71, 47
1, 74112, Note_on_c, 0, 71, 0
1, 74112, Note_on_c, 0, 50, 0
1, 74112, Note_on_c, 0, 54, 0
1, 74115, Note_on_c, 0, 69, 42
1, 74127, Note_on_c, 0, 69, 0
1, 74130, Note_on_c, 0, 67, 66
1, 74142, Note_on_c, 0, 67, 0
1, 74145, Note_on_c, 0, 69, 25
1, 74157, Note_on_c, 0, 69, 0
1, 74160, Note_on_c, 0, 55, 61
1, 74160, Note_on_c, 0, 67, 106
1, 74352, Note_on_c, 0, 55, 0
1, 74400, Note_on_c, 0, 50, 83
1, 74544, Note_on_c, 0, 67, 0
1, 74592, Note_on_c, 0, 50, 0
1, 74640, Note_on_c, 0, 43, 61
1, 74832, Note_on_c, 0, 43, 0
1, 74880, Note_on_c, 0, 60, 42
1, 74880, Note_on_c, 0, 48, 56
1, 74880, Note_on_c, 0, 72, 61
1, 75072, Note_on_c, 0, 72, 0
1, 75072, Note_on_c, 0, 48, 0
1, 75072, Note_on_c, 0, 60, 0
1, 75120, Note_on_c, 0, 76, 61
1, 75184, Note_on_c, 0, 76, 0
1, 75200, Note_on_c, 0, 74, 77
1, 75264, Note_on_c, 0, 74, 0
1, 75280, Note_on_c, 0, 72, 66
1, 75344, Note_on_c, 0, 72, 0
1, 75360, Note_on_c, 0, 77, 75
1, 75424, Note_on_c, 0, 77, 0
1, 75440, Note_on_c, 0, 76, 77
1, 75504, Note_on_c, 0, 76, 0
1, 75520, Note_on_c, 0, 74, 71
1, 75584, Note_on_c, 0, 74, 0
1, 75600, Note_on_c, 0, 64, 89
1, 75600, Note_on_c, 0, 79, 42
1, 75792, Note_on_c, 0, 79, 0
1, 75792, Note_on_c, 0, 64, 0
1, 75840, Note_on_c, 0, 76, 47
1, 75840, Note_on_c, 0, 60, 66
1, 76032, Note_on_c, 0, 60, 0
1, 76032, Note_on_c, 0, 76, 0
1, 76080, Note_on_c, 0, 62, 61
1, 76080, Note_on_c, 0, 55, 89
1, 76080, Note_on_c, 0, 79, 43
1, 76128, Note_on_c, 0, 79, 0
1, 76140, Note_on_c, 0, 77, 81
1, 76188, Note_on_c, 0, 77, 0
1, 76200, Note_on_c, 0, 76, 77
1, 76248, Note_on_c, 0, 76, 0
1, 76260, Note_on_c, 0, 74, 89
1, 76272, Note_on_c, 0, 55, 0
1, 76272, Note_on_c, 0, 62, 0
1, 76308, Note_on_c, 0, 74, 0
1, 76320, Note_on_c, 0, 60, 77
1, 76320, Note_on_c, 0, 72, 42
1, 76512, Note_on_c, 0, 72, 0
1, 76512, Note_on_c, 0, 60, 0
1, 76560, Note_on_c, 0, 64, 83
1, 76560, Note_on_c, 0, 84, 42
1, 76752, Note_on_c, 0, 84, 0
1, 76752, Note_on_c, 0, 64, 0
1, 76800, Note_on_c, 0, 65, 58
1, 76800, Note_on_c, 0, 81, 71
1, 76992, Note_on_c, 0, 81, 0
1, 76992, Note_on_c, 0, 65, 0
1, 77040, Note_on_c, 0, 60, 61
1, 77040, Note_on_c, 0, 65, 44
1, 77040, Note_on_c, 0, 83, 50
1, 77052, Note_on_c, 0, 83, 0
1, 77055, Note_on_c, 0, 81, 58
1, 77067, Note_on_c, 0, 81, 0
1, 77070, Note_on_c, 0, 83, 52
1, 77082, Note_on_c, 0, 83, 0
1, 77085, Note_on_c, 0, 81, 58
1, 77097, Note_on_c, 0, 81, 0
1, 77100, Note_on_c, 0, 83, 43
1, 77112, Note_on_c, 0, 83, 0
1, 77115, Note_on_c, 0, 81, 58
1, 77127, Note_on_c, 0, 81, 0
1, 77130, Note_on_c, 0, 83, 43
1, 77142, Note_on_c, 0, 83, 0
1, 77145, Note_on_c, 0, 81, 57
1, 77157, Note_on_c, 0, 81, 0
1, 77160, Note_on_c, 0, 83, 50
1, 77172, Note_on_c, 0, 83, 0
1, 77175, Note_on_c, 0, 81, 58
1, 77187, Note_on_c, 0, 81, 0
1, 77190, Note_on_c, 0, 83, 54
1, 77202, Note_on_c, 0, 83, 0
1, 77205, Note_on_c, 0, 81, 66
1, 77217, Note_on_c, 0, 81, 0
1, 77220, Note_on_c, 0, 83, 50
1, 77232, Note_on_c, 0, 83, 0
1, 77232, Note_on_c, 0, 65, 0
1, 77235, Note_on_c, 0, 81, 45
1, 77247, Note_on_c, 0, 81, 0
1, 77250, Note_on_c, 0, 83, 43
1, 77262, Note_on_c, 0, 83, 0
1, 77265, Note_on_c, 0, 81, 54
1, 77277, Note_on_c, 0, 81, 0
1, 77280, Note_on_c, 0, 64, 50
1, 77280, Note_on_c, 0, 79, 66
1, 77472, Note_on_c, 0, 79, 0
1, 77472, Note_on_c, 0, 64, 0
1, 77472, Note_on_c, 0, 60, 0
1, 77760, Note_on_c, 0, 59, 80
1, 77824, Note_on_c, 0, 59, 0
1, 77840, Note_on_c, 0, 62, 80
1, 77904, Note_on_c, 0, 62, 0
1, 77920, Note_on_c, 0, 67, 80
1, 77984, Note_on_c, 0, 67, 0
1, 78000, Note_on_c, 0, 59, 80
1, 78080, Note_on_c, 0, 74, 80
1, 78144, Note_on_c, 0, 74, 0
1, 78160, Note_on_c, 0, 76, 80
1, 78192, Note_on_c, 0, 59, 0
1, 78224, Note_on_c, 0, 76, 0
1, 78240, Note_on_c, 0, 77, 77
1, 78304, Note_on_c, 0, 77, 0
1, 78320, Note_on_c, 0, 76, 81
1, 78384, Note_on_c, 0, 76, 0
1, 78400, Note_on_c, 0, 74, 71
1, 78464, Note_on_c, 0, 74, 0
1, 78480, Note_on_c, 0, 76, 80
1, 78480, Note_on_c, 0, 60, 80
1, 78544, Note_on_c, 0, 60, 0
1, 78560, Note_on_c, 0, 64, 80
1, 78624, Note_on_c, 0, 64, 0
1, 78640, Note_on_c, 0, 67, 80
1, 78672, Note_on_c, 0, 76, 0
1, 78704, Note_on_c, 0, 67, 0
1, 78720, Note_on_c, 0, 60, 80
1, 78800, Note_on_c, 0, 76, 80
1, 78864, Note_on_c, 0, 76, 0
1, 78880, Note_on_c, 0, 77, 80
1, 78912, Note_on_c, 0, 60, 0
1, 78944, Note_on_c, 0, 77, 0
1, 78960, Note_on_c, 0, 79, 71
1, 79024, Note_on_c, 0, 79, 0
1, 79040, Note_on_c, 0, 77, 83
1, 79104, Note_on_c, 0, 77, 0
1, 79120, Note_on_c, 0, 76, 77
1, 79184, Note_on_c, 0, 76, 0
1, 79200, Note_on_c, 0, 53, 71
1, 79200, Note_on_c, 0, 81, 89
1, 79264, Note_on_c, 0, 53, 0
1, 79280, Note_on_c, 0, 57, 61
1, 79344, Note_on_c, 0, 57, 0
1, 79360, Note_on_c, 0, 60, 66
1, 79392, Note_on_c, 0, 81, 0
1, 79424, Note_on_c, 0, 60, 0
1, 79440, Note_on_c, 0, 53, 77
1, 79520, Note_on_c, 0, 81, 58
1, 79584, Note_on_c, 0, 81, 0
1, 79600, Note_on_c, 0, 83, 54
1, 79632, Note_on_c, 0, 53, 0
1, 79664, Note_on_c, 0, 83, 0
1, 79680, Note_on_c, 0, 84, 61
1, 79744, Note_on_c, 0, 84, 0
1, 79760, Note_on_c, 0, 83, 58
1, 79824, Note_on_c, 0, 83, 0
1, 79840, Note_on_c, 0, 81, 71
1, 79904, Note_on_c, 0, 81, 0
1, 79920, Note_on_c, 0, 52, 89
1, 79920, Note_on_c, 0, 79, 83
1, 79984, Note_on_c, 0, 52, 0
1, 80000, Note_on_c, 0, 55, 83
1, 80064, Note_on_c, 0, 55, 0
1, 80080, Note_on_c, 0, 60, 66
1, 80112, Note_on_c, 0, 79, 0
1, 80144, Note_on_c, 0, 60, 0
1, 80160, Note_on_c, 0, 52, 83
1, 80160, Note_on_c, 0, 84, 58
1, 80224, Note_on_c, 0, 84, 0
1, 80240, Note_on_c, 0, 83, 69
1, 80304, Note_on_c, 0, 83, 0
1, 80320, Note_on_c, 0, 81, 71
1, 80352, Note_on_c, 0, 52, 0
1, 80384, Note_on_c, 0, 81, 0
1, 80400, Note_on_c, 0, 79, 71
1, 80464, Note_on_c, 0, 79, 0
1, 80480, Note_on_c, 0, 77, 66
1, 80544, Note_on_c, 0, 77, 0
1, 80560, Note_on_c, 0, 76, 52
1, 80624, Note_on_c, 0, 76, 0
1, 80640, Note_on_c, 0, 53, 45
1, 80640, Note_on_c, 0, 65, 49
1, 80640, Note_on_c, 0, 74, 50
1, 80704, Note_on_c, 0, 74, 0
1, 80720, Note_on_c, 0, 77, 61
1, 80784, Note_on_c, 0, 77, 0
1, 80800, Note_on_c, 0, 81, 77
1, 80832, Note_on_c, 0, 65, 0
1, 80832, Note_on_c, 0, 53, 0
1, 80864, Note_on_c, 0, 81, 0
1, 80880, Note_on_c, 0, 55, 52
1, 80880, Note_on_c, 0, 64, 60
1, 80880, Note_on_c, 0, 72, 83
1, 81072, Note_on_c, 0, 72, 0
1, 81072, Note_on_c, 0, 64, 0
1, 81072, Note_on_c, 0, 55, 0
1, 81120, Note_on_c, 0, 62, 54
1, 81120, Note_on_c, 0, 55, 74
1, 81120, Note_on_c, 0, 71, 83
1, 81312, Note_on_c, 0, 71, 0
1, 81312, Note_on_c, 0, 55, 0
1, 81312, Note_on_c, 0, 62, 0
1, 81360, Note_on_c, 0, 60, 66
1, 81360, Note_on_c, 0, 72, 71
1, 81552, Note_on_c, 0, 60, 0
1, 81600, Note_on_c, 0, 55, 83
1, 81744, Note_on_c, 0, 72, 0
1, 81792, Note_on_c, 0, 55, 0
1, 81840, Note_on_c, 0, 48, 89
1, 82032, Note_on_c, 0, 48, 0
1, 82042, End_track
0, 0, End_of_file