0, 0, Header, 0, 1, 240
1, 0, Start_track
1, 0, Tempo, 800000
1, 360, Note_on_c, 0, 67, 80
1, 456, Note_on_c, 0, 67, 0
1, 480, Note_on_c, 0, 52, 94
1, 480, Note_on_c, 0, 72, 89
1, 480, Note_on_c, 0, 48, 89
1, 504, Note_on_c, 0, 72, 0
1, 510, Note_on_c, 0, 71, 66
1, 534, Note_on_c, 0, 71, 0
1, 540, Note_on_c, 0, 72, 71
1, 564, Note_on_c, 0, 72, 0
1, 570, Note_on_c, 0, 74, 77
1, 576, Note_on_c, 0, 48, 0
1, 576, Note_on_c, 0, 52, 0
1, 594, Note_on_c, 0, 74, 0
1, 600, Note_on_c, 0, 76, 83
1, 696, Note_on_c, 0, 76, 0
1, 720, Note_on_c, 0, 52, 83
1, 720, Note_on_c, 0, 48, 80
1, 720, Note_on_c, 0, 76, 61
1, 744, Note_on_c, 0, 76, 0
1, 750, Note_on_c, 0, 74, 66
1, 774, Note_on_c, 0, 74, 0
1, 780, Note_on_c, 0, 76, 54
1, 804, Note_on_c, 0, 76, 0
1, 810, Note_on_c, 0, 77, 77
1, 816, Note_on_c, 0, 48, 0
1, 816, Note_on_c, 0, 52, 0
1, 834, Note_on_c, 0, 77, 0
1, 840, Note_on_c, 0, 79, 42
1, 936, Note_on_c, 0, 79, 0
1, 960, Note_on_c, 0, 76, 89
1, 960, Note_on_c, 0, 79, 69
1, 1020, Note_on_c, 0, 48, 80
1, 1068, Note_on_c, 0, 48, 0
1, 1080, Note_on_c, 0, 52, 61
1, 1104, Note_on_c, 0, 79, 0
1, 1104, Note_on_c, 0, 76, 0
1, 1128, Note_on_c, 0, 52, 0
1, 1140, Note_on_c, 0, 55, 66
1, 1140, Note_on_c, 0, 74, 52
1, 1140, Note_on_c, 0, 77, 56
1, 1188, Note_on_c, 0, 77, 0
1, 1188, Note_on_c, 0, 74, 0
1, 1188, Note_on_c, 0, 55, 0
1, 1200, Note_on_c, 0, 60, 71
1, 1200, Note_on_c, 0, 76, 47
1, 1200, Note_on_c, 0, 72, 80
1, 1296, Note_on_c, 0, 72, 0
1, 1296, Note_on_c, 0, 76, 0
1, 1296, Note_on_c, 0, 60, 0
1, 1320, Note_on_c, 0, 64, 89
1, 1320, Note_on_c, 0, 67, 77
1, 1368, Note_on_c, 0, 67, 0
1, 1380, Note_on_c, 0, 72, 54
1, 1416, Note_on_c, 0, 64, 0
1, 1428, Note_on_c, 0, 72, 0
1, 1440, Note_on_c, 0, 65, 66
1, 1440, Note_on_c, 0, 69, 83
1, 1536, Note_on_c, 0, 69, 0
1, 1536, Note_on_c, 0, 65, 0
1, 1560, Note_on_c, 0, 67, 54
1, 1560, Note_on_c, 0, 64, 81
1, 1608, Note_on_c, 0, 67, 0
1, 1620, Note_on_c, 0, 72, 42
1, 1656, Note_on_c, 0, 64, 0
1, 1668, Note_on_c, 0, 72, 0
1, 1680, Note_on_c, 0, 62, 71
1, 1680, Note_on_c, 0, 67, 61
1, 1776, Note_on_c, 0, 67, 0
1, 1776, Note_on_c, 0, 62, 0
1, 1800, Note_on_c, 0, 55, 52
1, 1800, Note_on_c, 0, 65, 50
1, 1896, Note_on_c, 0, 65, 0
1, 1896, Note_on_c, 0, 55, 0
1, 1920, Note_on_c, 0, 60, 58
1, 1920, Note_on_c, 0, 64, 71
1, 2016, Note_on_c, 0, 60, 0
1, 2040, Note_on_c, 0, 55, 71
1, 2112, Note_on_c, 0, 64, 0
1, 2136, Note_on_c, 0, 55, 0
1, 2160, Note_on_c, 0, 48, 71
1, 2280, Note_on_c, 0, 67, 80
1, 2352, Note_on_c, 0, 48, 0
1, 2376, Note_on_c, 0, 67, 0
1, 2400, Note_on_c, 0, 48, 53
1, 2400, Note_on_c, 0, 72, 89
1, 2400, Note_on_c, 0, 52, 77
1, 2424, Note_on_c, 0, 72, 0
1, 2430, Note_on_c, 0, 71, 66
1, 2454, Note_on_c, 0, 71, 0
1, 2460, Note_on_c, 0, 72, 71
1, 2484, Note_on_c, 0, 72, 0
1, 2490, Note_on_c, 0, 74, 77
1, 2496, Note_on_c, 0, 52, 0
1, 2496, Note_on_c, 0, 48, 0
1, 2514, Note_on_c, 0, 74, 0
1, 2520, Note_on_c, 0, 76, 83
1, 2616, Note_on_c, 0, 76, 0
1, 2640, Note_on_c, 0, 52, 80
1, 2640, Note_on_c, 0, 48, 80
1, 2640, Note_on_c, 0, 76, 61
1, 2664, Note_on_c, 0, 76, 0
1, 2670, Note_on_c, 0, 74, 66
1, 2694, Note_on_c, 0, 74, 0
1, 2700, Note_on_c, 0, 76, 54
1, 2724, Note_on_c, 0, 76, 0
1, 2730, Note_on_c, 0, 77, 77
1, 2736, Note_on_c, 0, 48, 0
1, 2736, Note_on_c, 0, 52, 0
1, 2754, Note_on_c, 0, 77, 0
1, 2760, Note_on_c, 0, 79, 42
1, 2856, Note_on_c, 0, 79, 0
1, 2880, Note_on_c, 0, 76, 89
1, 2880, Note_on_c, 0, 79, 69
1, 2940, Note_on_c, 0, 48, 71
1, 2988, Note_on_c, 0, 48, 0
1, 3000, Note_on_c, 0, 52, 66
1, 3024, Note_on_c, 0, 79, 0
1, 3024, Note_on_c, 0, 76, 0
1, 3048, Note_on_c, 0, 52, 0
1, 3060, Note_on_c, 0, 77, 56
1, 3060, Note_on_c, 0, 74, 52
1, 3060, Note_on_c, 0, 55, 66
1, 3108, Note_on_c, 0, 55, 0
1, 3108, Note_on_c, 0, 74, 0
1, 3108, Note_on_c, 0, 77, 0
1, 3120, Note_on_c, 0, 60, 58
1, 3120, Note_on_c, 0, 72, 65
1, 3120, Note_on_c, 0, 76, 86
1, 3216, Note_on_c, 0, 76, 0
1, 3216, Note_on_c, 0, 72, 0
1, 3240, Note_on_c, 0, 84, 61
1, 3288, Note_on_c, 0, 84, 0
1, 3300, Note_on_c, 0, 79, 61
1, 3312, Note_on_c, 0, 60, 0
1, 3348, Note_on_c, 0, 79, 0
1, 3360, Note_on_c, 0, 79, 66
1, 3360, Note_on_c, 0, 55, 80
1, 3360, Note_on_c, 0, 62, 80
1, 3372, Note_on_c, 0, 79, 0
1, 3375, Note_on_c, 0, 77, 58
1, 3387, Note_on_c, 0, 77, 0
1, 3390, Note_on_c, 0, 79, 61
1, 3402, Note_on_c, 0, 79, 0
1, 3405, Note_on_c, 0, 77, 43
1, 3417, Note_on_c, 0, 77, 0
1, 3420, Note_on_c, 0, 79, 54
1, 3432, Note_on_c, 0, 79, 0
1, 3435, Note_on_c, 0, 77, 43
1, 3447, Note_on_c, 0, 77, 0
1, 3450, Note_on_c, 0, 79, 54
1, 3456, Note_on_c, 0, 62, 0
1, 3462, Note_on_c, 0, 79, 0
1, 3465, Note_on_c, 0, 77, 52
1, 3477, Note_on_c, 0, 77, 0
1, 3480, Note_on_c, 0, 60, 80
1, 3480, Note_on_c, 0, 76, 83
1, 3576, Note_on_c, 0, 76, 0
1, 3576, Note_on_c, 0, 60, 0
1, 3600, Note_on_c, 0, 76, 52
1, 3600, Note_on_c, 0, 65, 80
1, 3612, Note_on_c, 0, 76, 0
1, 3615, Note_on_c, 0, 74, 44
1, 3627, Note_on_c, 0, 74, 0
1, 3630, Note_on_c, 0, 76, 50
1, 3642, Note_on_c, 0, 76, 0
1, 3645, Note_on_c, 0, 74, 50
1, 3657, Note_on_c, 0, 74, 0
1, 3660, Note_on_c, 0, 76, 50
1, 3672, Note_on_c, 0, 76, 0
1, 3675, Note_on_c, 0, 74, 42
1, 3687, Note_on_c, 0, 74, 0
1, 3690, Note_on_c, 0, 76, 54
1, 3696, Note_on_c, 0, 65, 0
1, 3702, Note_on_c, 0, 76, 0
1, 3705, Note_on_c, 0, 74, 42
1, 3717, Note_on_c, 0, 74, 0
1, 3720, Note_on_c, 0, 72, 97
1, 3720, Note_on_c, 0, 64, 80
1, 3816, Note_on_c, 0, 55, 0
1, 3816, Note_on_c, 0, 64, 0
1, 3816, Note_on_c, 0, 72, 0
1, 3840, Note_on_c, 0, 62, 89
1, 3840, Note_on_c, 0, 55, 80
1, 3840, Note_on_c, 0, 71, 45
1, 3872, Note_on_c, 0, 71, 0
1, 3880, Note_on_c, 0, 72, 66
1, 3912, Note_on_c, 0, 72, 0
1, 3920, Note_on_c, 0, 74, 71
1, 3952, Note_on_c, 0, 74, 0
1, 3960, Note_on_c, 0, 67, 50
1, 4032, Note_on_c, 0, 55, 0
1, 4032, Note_on_c, 0, 62, 0
1, 4056, Note_on_c, 0, 67, 0
1, 4200, Note_on_c, 0, 74, 80
1, 4296, Note_on_c, 0, 74, 0
1, 4320, Note_on_c, 0, 79, 66
1, 4344, Note_on_c, 0, 79, 0
1, 4350, Note_on_c, 0, 78, 47
1, 4374, Note_on_c, 0, 78, 0
1, 4380, Note_on_c, 0, 79, 66
1, 4404, Note_on_c, 0, 79, 0
1, 4410, Note_on_c, 0, 81, 89
1, 4434, Note_on_c, 0, 81, 0
1, 4440, Note_on_c, 0, 83, 44
1, 4440, Note_on_c, 0, 55, 65
1, 4440, Note_on_c, 0, 62, 53
1, 4536, Note_on_c, 0, 62, 0
1, 4536, Note_on_c, 0, 55, 0
1, 4536, Note_on_c, 0, 83, 0
1, 4560, Note_on_c, 0, 55, 83
1, 4560, Note_on_c, 0, 62, 69
1, 4656, Note_on_c, 0, 62, 0
1, 4656, Note_on_c, 0, 55, 0
1, 4680, Note_on_c, 0, 62, 71
1, 4680, Note_on_c, 0, 55, 64
1, 4680, Note_on_c, 0, 83, 71
1, 4776, Note_on_c, 0, 83, 0
1, 4776, Note_on_c, 0, 55, 0
1, 4776, Note_on_c, 0, 62, 0
1, 4800, Note_on_c, 0, 84, 58
1, 4824, Note_on_c, 0, 84, 0
1, 4830, Note_on_c, 0, 83, 61
1, 4854, Note_on_c, 0, 83, 0
1, 4860, Note_on_c, 0, 81, 54
1, 4884, Note_on_c, 0, 81, 0
1, 4890, Note_on_c, 0, 83, 58
1, 4914, Note_on_c, 0, 83, 0
1, 4920, Note_on_c, 0, 81, 58
1, 4920, Note_on_c, 0, 54, 66
1, 4920, Note_on_c, 0, 62, 44
1, 5016, Note_on_c, 0, 62, 0
1, 5016, Note_on_c, 0, 54, 0
1, 5016, Note_on_c, 0, 81, 0
1, 5040, Note_on_c, 0, 54, 43
1, 5040, Note_on_c, 0, 62, 53
1, 5136, Note_on_c, 0, 62, 0
1, 5136, Note_on_c, 0, 54, 0
1, 5160, Note_on_c, 0, 54, 42
1, 5160, Note_on_c, 0, 62, 44
1, 5160, Note_on_c, 0, 74, 80
1, 5256, Note_on_c, 0, 74, 0
1, 5256, Note_on_c, 0, 62, 0
1, 5256, Note_on_c, 0, 54, 0
1, 5280, Note_on_c, 0, 78, 83
1, 5304, Note_on_c, 0, 78, 0
1, 5310, Note_on_c, 0, 76, 89
1, 5334, Note_on_c, 0, 76, 0
1, 5340, Note_on_c, 0, 78, 77
1, 5364, Note_on_c, 0, 78, 0
1, 5370, Note_on_c, 0, 79, 77
1, 5394, Note_on_c, 0, 79, 0
1, 5400, Note_on_c, 0, 81, 61
1, 5400, Note_on_c, 0, 54, 52
1, 5400, Note_on_c, 0, 62, 43
1, 5496, Note_on_c, 0, 62, 0
1, 5496, Note_on_c, 0, 54, 0
1, 5496, Note_on_c, 0, 81, 0
1, 5520, Note_on_c, 0, 54, 44
1, 5520, Note_on_c, 0, 62, 52
1, 5616, Note_on_c, 0, 62, 0
1, 5616, Note_on_c, 0, 54, 0
1, 5640, Note_on_c, 0, 54, 52
1, 5640, Note_on_c, 0, 62, 52
1, 5640, Note_on_c, 0, 72, 50
1, 5736, Note_on_c, 0, 72, 0
1, 5736, Note_on_c, 0, 62, 0
1, 5736, Note_on_c, 0, 54, 0
1, 5760, Note_on_c, 0, 71, 66
1, 5784, Note_on_c, 0, 71, 0
1, 5790, Note_on_c, 0, 69, 61
1, 5814, Note_on_c, 0, 69, 0
1, 5820, Note_on_c, 0, 71, 66
1, 5844, Note_on_c, 0, 71, 0
1, 5850, Note_on_c, 0, 72, 77
1, 5874, Note_on_c, 0, 72, 0
1, 5880, Note_on_c, 0, 55, 42
1, 5880, Note_on_c, 0, 74, 47
1, 5880, Note_on_c, 0, 59, 54
1, 5976, Note_on_c, 0, 59, 0
1, 5976, Note_on_c, 0, 74, 0
1, 5976, Note_on_c, 0, 55, 0
1, 6000, Note_on_c, 0, 59, 45
1, 6000, Note_on_c, 0, 55, 43
1, 6096, Note_on_c, 0, 55, 0
1, 6096, Note_on_c, 0, 59, 0
1, 6120, Note_on_c, 0, 55, 43
1, 6120, Note_on_c, 0, 59, 42
1, 6120, Note_on_c, 0, 74, 77
1, 6168, Note_on_c, 0, 74, 0
1, 6180, Note_on_c, 0, 79, 61
1, 6216, Note_on_c, 0, 59, 0
1, 6216, Note_on_c, 0, 55, 0
1, 6228, Note_on_c, 0, 79, 0
1, 6240, Note_on_c, 0, 60, 60
1, 6240, Note_on_c, 0, 78, 54
1, 6240, Note_on_c, 0, 55, 50
1, 6252, Note_on_c, 0, 78, 0
1, 6255, Note_on_c, 0, 76, 77
1, 6267, Note_on_c, 0, 76, 0
1, 6270, Note_on_c, 0, 78, 77
1, 6282, Note_on_c, 0, 78, 0
1, 6285, Note_on_c, 0, 76, 71
1, 6297, Note_on_c, 0, 76, 0
1, 6300, Note_on_c, 0, 78, 77
1, 6312, Note_on_c, 0, 78, 0
1, 6315, Note_on_c, 0, 76, 61
1, 6327, Note_on_c, 0, 76, 0
1, 6330, Note_on_c, 0, 78, 83
1, 6336, Note_on_c, 0, 60, 0
1, 6342, Note_on_c, 0, 78, 0
1, 6345, Note_on_c, 0, 76, 66
1, 6357, Note_on_c, 0, 76, 0
1, 6360, Note_on_c, 0, 74, 54
1, 6360, Note_on_c, 0, 59, 49
1, 6456, Note_on_c, 0, 59, 0
1, 6456, Note_on_c, 0, 74, 0
1, 6480, Note_on_c, 0, 76, 89
1, 6480, Note_on_c, 0, 60, 50
1, 6528, Note_on_c, 0, 76, 0
1, 6540, Note_on_c, 0, 79, 83
1, 6576, Note_on_c, 0, 60, 0
1, 6588, Note_on_c, 0, 79, 0
1, 6600, Note_on_c, 0, 78, 95
1, 6600, Note_on_c, 0, 57, 60
1, 6648, Note_on_c, 0, 78, 0
1, 6660, Note_on_c, 0, 81, 54
1, 6696, Note_on_c, 0, 55, 0
1, 6696, Note_on_c, 0, 57, 0
1, 6708, Note_on_c, 0, 81, 0
1, 6720, Note_on_c, 0, 55, 58
1, 6720, Note_on_c, 0, 59, 53
1, 6720, Note_on_c, 0, 79, 80
1, 6864, Note_on_c, 0, 79, 0
1, 6900, Note_on_c, 0, 83, 71
1, 6912, Note_on_c, 0, 59, 0
1, 6912, Note_on_c, 0, 55, 0
1, 6948, Note_on_c, 0, 83, 0
1, 6960, Note_on_c, 0, 79, 61
1, 7056, Note_on_c, 0, 79, 0
1, 7080, Note_on_c, 0, 59, 42
1, 7080, Note_on_c, 0, 71, 66
1, 7176, Note_on_c, 0, 71, 0
1, 7176, Note_on_c, 0, 59, 0
1, 7200, Note_on_c, 0, 74, 66
1, 7200, Note_on_c, 0, 62, 71
1, 7248, Note_on_c, 0, 62, 0
1, 7248, Note_on_c, 0, 74, 0
1, 7260, Note_on_c, 0, 72, 71
1, 7260, Note_on_c, 0, 60, 61
1, 7308, Note_on_c, 0, 60, 0
1, 7308, Note_on_c, 0, 72, 0
1, 7320, Note_on_c, 0, 59, 83
1, 7320, Note_on_c, 0, 71, 66
1, 7368, Note_on_c, 0, 71, 0
1, 7368, Note_on_c, 0, 59, 0
1, 7380, Note_on_c, 0, 69, 71
1, 7380, Note_on_c, 0, 57, 61
1, 7428, Note_on_c, 0, 57, 0
1, 7428, Note_on_c, 0, 69, 0
1, 7440, Note_on_c, 0, 62, 54
1, 7440, Note_on_c, 0, 74, 58
1, 7536, Note_on_c, 0, 74, 0
1, 7536, Note_on_c, 0, 62, 0
1, 7560, Note_on_c, 0, 62, 71
1, 7560, Note_on_c, 0, 74, 71
1, 7656, Note_on_c, 0, 74, 0
1, 7656, Note_on_c, 0, 62, 0
1, 7680, Note_on_c, 0, 67, 77
1, 7680, Note_on_c, 0, 55, 77
1, 7872, Note_on_c, 0, 55, 0
1, 7872, Note_on_c, 0, 67, 0
1, 7920, Note_on_c, 0, 54, 66
1, 7920, Note_on_c, 0, 74, 71
1, 7932, Note_on_c, 0, 74, 0
1, 7935, Note_on_c, 0, 72, 54
1, 7947, Note_on_c, 0, 72, 0
1, 7950, Note_on_c, 0, 74, 42
1, 7962, Note_on_c, 0, 74, 0
1, 7965, Note_on_c, 0, 72, 41
1, 7968, Note_on_c, 0, 54, 0
1, 7977, Note_on_c, 0, 72, 0
1, 7980, Note_on_c, 0, 62, 58
1, 7980, Note_on_c, 0, 74, 50
1, 7992, Note_on_c, 0, 74, 0
1, 7995, Note_on_c, 0, 72, 46
1, 8007, Note_on_c, 0, 72, 0
1, 8010, Note_on_c, 0, 74, 47
1, 8022, Note_on_c, 0, 74, 0
1, 8025, Note_on_c, 0, 72, 43
1, 8028, Note_on_c, 0, 62, 0
1, 8037, Note_on_c, 0, 72, 0
1, 8040, Note_on_c, 0, 54, 54
1, 8040, Note_on_c, 0, 74, 47
1, 8052, Note_on_c, 0, 74, 0
1, 8055, Note_on_c, 0, 72, 45
1, 8067, Note_on_c, 0, 72, 0
1, 8070, Note_on_c, 0, 74, 46
1, 8082, Note_on_c, 0, 74, 0
1, 8085, Note_on_c, 0, 72, 31
1, 8088, Note_on_c, 0, 54, 0
1, 8097, Note_on_c, 0, 72, 0
1, 8100, Note_on_c, 0, 62, 58
1, 8100, Note_on_c, 0, 74, 43
1, 8112, Note_on_c, 0, 74, 0
1, 8115, Note_on_c, 0, 72, 42
1, 8127, Note_on_c, 0, 72, 0
1, 8130, Note_on_c, 0, 74, 46
1, 8142, Note_on_c, 0, 74, 0
1, 8145, Note_on_c, 0, 72, 42
1, 8148, Note_on_c, 0, 62, 0
1, 8157, Note_on_c, 0, 72, 0
1, 8160, Note_on_c, 0, 71, 66
1, 8160, Note_on_c, 0, 55, 66
1, 8208, Note_on_c, 0, 55, 0
1, 8220, Note_on_c, 0, 62, 50
1, 8268, Note_on_c, 0, 62, 0
1, 8280, Note_on_c, 0, 55, 54
1, 8328, Note_on_c, 0, 55, 0
1, 8340, Note_on_c, 0, 62, 66
1, 8352, Note_on_c, 0, 71, 0
1, 8388, Note_on_c, 0, 62, 0
1, 8400, Note_on_c, 0, 54, 71
1, 8400, Note_on_c, 0, 74, 77
1, 8448, Note_on_c, 0, 74, 0
1, 8448, Note_on_c, 0, 54, 0
1, 8460, Note_on_c, 0, 62, 66
1, 8460, Note_on_c, 0, 78, 42
1, 8508, Note_on_c, 0, 78, 0
1, 8508, Note_on_c, 0, 62, 0
1, 8520, Note_on_c, 0, 54, 77
1, 8520, Note_on_c, 0, 81, 47
1, 8568, Note_on_c, 0, 81, 0
1, 8568, Note_on_c, 0, 54, 0
1, 8580, Note_on_c, 0, 62, 58
1, 8580, Note_on_c, 0, 84, 71
1, 8628, Note_on_c, 0, 84, 0
1, 8628, Note_on_c, 0, 62, 0
1, 8640, Note_on_c, 0, 83, 71
1, 8640, Note_on_c, 0, 55, 71
1, 8688, Note_on_c, 0, 55, 0
1, 8700, Note_on_c, 0, 62, 58
1, 8736, Note_on_c, 0, 83, 0
1, 8748, Note_on_c, 0, 62, 0
1, 8760, Note_on_c, 0, 55, 58
1, 8760, Note_on_c, 0, 79, 71
1, 8808, Note_on_c, 0, 55, 0
1, 8820, Note_on_c, 0, 62, 61
1, 8856, Note_on_c, 0, 79, 0
1, 8868, Note_on_c, 0, 62, 0
1, 8880, Note_on_c, 0, 54, 83
1, 8880, Note_on_c, 0, 74, 71
1, 8892, Note_on_c, 0, 74, 0
1, 8895, Note_on_c, 0, 72, 54
1, 8907, Note_on_c, 0, 72, 0
1, 8910, Note_on_c, 0, 74, 42
1, 8922, Note_on_c, 0, 74, 0
1, 8925, Note_on_c, 0, 72, 41
1, 8928, Note_on_c, 0, 54, 0
1, 8937, Note_on_c, 0, 72, 0
1, 8940, Note_on_c, 0, 62, 66
1, 8940, Note_on_c, 0, 74, 50
1, 8952, Note_on_c, 0, 74, 0
1, 8955, Note_on_c, 0, 72, 46
1, 8967, Note_on_c, 0, 72, 0
1, 8970, Note_on_c, 0, 74, 47
1, 8982, Note_on_c, 0, 74, 0
1, 8985, Note_on_c, 0, 72, 43
1, 8988, Note_on_c, 0, 62, 0
1, 8997, Note_on_c, 0, 72, 0
1, 9000, Note_on_c, 0, 54, 66
1, 9000, Note_on_c, 0, 74, 47
1, 9012, Note_on_c, 0, 74, 0
1, 9015, Note_on_c, 0, 72, 45
1, 9027, Note_on_c, 0, 72, 0
1, 9030, Note_on_c, 0, 74, 46
1, 9042, Note_on_c, 0, 74, 0
1, 9045, Note_on_c, 0, 72, 31
1, 9048, Note_on_c, 0, 54, 0
1, 9057, Note_on_c, 0, 72, 0
1, 9060, Note_on_c, 0, 62, 71
1, 9060, Note_on_c, 0, 74, 43
1, 9072, Note_on_c, 0, 74, 0
1, 9075, Note_on_c, 0, 72, 42
1, 9087, Note_on_c, 0, 72, 0
1, 9090, Note_on_c, 0, 74, 46
1, 9102, Note_on_c, 0, 74, 0
1, 9105, Note_on_c, 0, 72, 42
1, 9108, Note_on_c, 0, 62, 0
1, 9117, Note_on_c, 0, 72, 0
1, 9120, Note_on_c, 0, 71, 89
1, 9120, Note_on_c, 0, 55, 77
1, 9168, Note_on_c, 0, 55, 0
1, 9180, Note_on_c, 0, 62, 61
1, 9228, Note_on_c, 0, 62, 0
1, 9240, Note_on_c, 0, 55, 61
1, 9288, Note_on_c, 0, 55, 0
1, 9300, Note_on_c, 0, 62, 61
1, 9312, Note_on_c, 0, 71, 0
1, 9348, Note_on_c, 0, 62, 0
1, 9360, Note_on_c, 0, 54, 71
1, 9360, Note_on_c, 0, 81, 71
1, 9408, Note_on_c, 0, 54, 0
1, 9420, Note_on_c, 0, 62, 71
1, 9468, Note_on_c, 0, 62, 0
1, 9480, Note_on_c, 0, 54, 71
1, 9504, Note_on_c, 0, 81, 0
1, 9528, Note_on_c, 0, 54, 0
1, 9540, Note_on_c, 0, 62, 77
1, 9540, Note_on_c, 0, 72, 83
1, 9588, Note_on_c, 0, 72, 0
1, 9588, Note_on_c, 0, 62, 0
1, 9600, Note_on_c, 0, 55, 77
1, 9600, Note_on_c, 0, 71, 77
1, 9632, Note_on_c, 0, 71, 0
1, 9640, Note_on_c, 0, 69, 77
1, 9672, Note_on_c, 0, 69, 0
1, 9680, Note_on_c, 0, 67, 89
1, 9696, Note_on_c, 0, 55, 0
1, 9712, Note_on_c, 0, 67, 0
1, 9720, Note_on_c, 0, 76, 83
1, 9720, Note_on_c, 0, 60, 89
1, 9752, Note_on_c, 0, 76, 0
1, 9760, Note_on_c, 0, 74, 83
1, 9792, Note_on_c, 0, 74, 0
1, 9800, Note_on_c, 0, 72, 89
1, 9816, Note_on_c, 0, 60, 0
1, 9832, Note_on_c, 0, 72, 0
1, 9840, Note_on_c, 0, 62, 66
1, 9840, Note_on_c, 0, 71, 61
1, 9936, Note_on_c, 0, 71, 0
1, 9936, Note_on_c, 0, 62, 0
1, 9960, Note_on_c, 0, 71, 58
1, 9960, Note_on_c, 0, 50, 77
1, 9972, Note_on_c, 0, 71, 0
1, 9975, Note_on_c, 0, 69, 58
1, 9987, Note_on_c, 0, 69, 0
1, 9990, Note_on_c, 0, 71, 58
1, 10002, Note_on_c, 0, 71, 0
1, 10005, Note_on_c, 0, 69, 50
1, 10017, Note_on_c, 0, 69, 0
1, 10020, Note_on_c, 0, 71, 58
1, 10032, Note_on_c, 0, 71, 0
1, 10035, Note_on_c, 0, 69, 50
1, 10047, Note_on_c, 0, 69, 0
1, 10050, Note_on_c, 0, 71, 46
1, 10056, Note_on_c, 0, 50, 0
1, 10062, Note_on_c, 0, 71, 0
1, 10065, Note_on_c, 0, 69, 50
1, 10077, Note_on_c, 0, 69, 0
1, 10080, Note_on_c, 0, 55, 80
1, 10080, Note_on_c, 0, 67, 89
1, 10176, Note_on_c, 0, 55, 0
1, 10200, Note_on_c, 0, 50, 80
1, 10272, Note_on_c, 0, 67, 0
1, 10296, Note_on_c, 0, 50, 0
1, 10320, Note_on_c, 0, 43, 80
1, 10416, Note_on_c, 0, 43, 0
1, 10440, Note_on_c, 0, 67, 80
1, 10536, Note_on_c, 0, 67, 0
1, 10560, Note_on_c, 0, 52, 94
1, 10560, Note_on_c, 0, 72, 89
1, 10560, Note_on_c, 0, 48, 89
1, 10584, Note_on_c, 0, 72, 0
1, 10590, Note_on_c, 0, 71, 66
1, 10614, Note_on_c, 0, 71, 0
1, 10620, Note_on_c, 0, 72, 71
1, 10644, Note_on_c, 0, 72, 0
1, 10650, Note_on_c, 0, 74, 77
1, 10656, Note_on_c, 0, 48, 0
1, 10656, Note_on_c, 0, 52, 0
1, 10674, Note_on_c, 0, 74, 0
1, 10680, Note_on_c, 0, 76, 83
1, 10776, Note_on_c, 0, 76, 0
1, 10800, Note_on_c, 0, 52, 83
1, 10800, Note_on_c, 0, 48, 80
1, 10800, Note_on_c, 0, 76, 61
1, 10824, Note_on_c, 0, 76, 0
1, 10830, Note_on_c, 0, 74, 66
1, 10854, Note_on_c, 0, 74, 0
1, 10860, Note_on_c, 0, 76, 54
1, 10884, Note_on_c, 0, 76, 0
1, 10890, Note_on_c, 0, 77, 77
1, 10896, Note_on_c, 0, 48, 0
1, 10896, Note_on_c, 0, 52, 0
1, 10914, Note_on_c, 0, 77, 0
1, 10920, Note_on_c, 0, 79, 42
1, 11016, Note_on_c, 0, 79, 0
1, 11040, Note_on_c, 0, 76, 89
1, 11040, Note_on_c, 0, 79, 69
1, 11100, Note_on_c, 0, 48, 80
1, 11148, Note_on_c, 0, 48, 0
1, 11160, Note_on_c, 0, 52, 61
1, 11184, Note_on_c, 0, 79, 0
1, 11184, Note_on_c, 0, 76, 0
1, 11208, Note_on_c, 0, 52, 0
1, 11220, Note_on_c, 0, 55, 66
1, 11220, Note_on_c, 0, 74, 52
1, 11220, Note_on_c, 0, 77, 56
1, 11268, Note_on_c, 0, 77, 0
1, 11268, Note_on_c, 0, 74, 0
1, 11268, Note_on_c, 0, 55, 0
1, 11280, Note_on_c, 0, 60, 71
1, 11280, Note_on_c, 0, 76, 47
1, 11280, Note_on_c, 0, 72, 80
1, 11376, Note_on_c, 0, 72, 0
1, 11376, Note_on_c, 0, 76, 0
1, 11376, Note_on_c, 0, 60, 0
1, 11400, Note_on_c, 0, 64, 89
1, 11400, Note_on_c, 0, 67, 77
1, 11448, Note_on_c, 0, 67, 0
1, 11460, Note_on_c, 0, 72, 54
1, 11496, Note_on_c, 0, 64, 0
1, 11508, Note_on_c, 0, 72, 0
1, 11520, Note_on_c, 0, 65, 66
1, 11520, Note_on_c, 0, 69, 83
1, 11616, Note_on_c, 0, 69, 0
1, 11616, Note_on_c, 0, 65, 0
1, 11640, Note_on_c, 0, 67, 54
1, 11640, Note_on_c, 0, 64, 81
1, 11688, Note_on_c, 0, 67, 0
1, 11700, Note_on_c, 0, 72, 42
1, 11736, Note_on_c, 0, 64, 0
1, 11748, Note_on_c, 0, 72, 0
1, 11760, Note_on_c, 0, 62, 71
1, 11760, Note_on_c, 0, 67, 61
1, 11856, Note_on_c, 0, 67, 0
1, 11856, Note_on_c, 0, 62, 0
1, 11880, Note_on_c, 0, 55, 52
1, 11880, Note_on_c, 0, 65, 50
1, 11976, Note_on_c, 0, 65, 0
1, 11976, Note_on_c, 0, 55, 0
1, 12000, Note_on_c, 0, 60, 58
1, 12000, Note_on_c, 0, 64, 71
1, 12096, Note_on_c, 0, 60, 0
1, 12120, Note_on_c, 0, 55, 71
1, 12192, Note_on_c, 0, 64, 0
1, 12216, Note_on_c, 0, 55, 0
1, 12240, Note_on_c, 0, 48, 71
1, 12360, Note_on_c, 0, 67, 80
1, 12432, Note_on_c, 0, 48, 0
1, 12456, Note_on_c, 0, 67, 0
1, 12480, Note_on_c, 0, 48, 53
1, 12480, Note_on_c, 0, 72, 89
1, 12480, Note_on_c, 0, 52, 77
1, 12504, Note_on_c, 0, 72, 0
1, 12510, Note_on_c, 0, 71, 66
1, 12534, Note_on_c, 0, 71, 0
1, 12540, Note_on_c, 0, 72, 71
1, 12564, Note_on_c, 0, 72, 0
1, 12570, Note_on_c, 0, 74, 77
1, 12576, Note_on_c, 0, 52, 0
1, 12576, Note_on_c, 0, 48, 0
1, 12594, Note_on_c, 0, 74, 0
1, 12600, Note_on_c, 0, 76, 83
1, 12696, Note_on_c, 0, 76, 0
1, 12720, Note_on_c, 0, 52, 80
1, 12720, Note_on_c, 0, 48, 80
1, 12720, Note_on_c, 0, 76, 61
1, 12744, Note_on_c, 0, 76, 0
1, 12750, Note_on_c, 0, 74, 66
1, 12774, Note_on_c, 0, 74, 0
1, 12780, Note_on_c, 0, 76, 54
1, 12804, Note_on_c, 0, 76, 0
1, 12810, Note_on_c, 0, 77, 77
1, 12816, Note_on_c, 0, 48, 0
1, 12816, Note_on_c, 0, 52, 0
1, 12834, Note_on_c, 0, 77, 0
1, 12840, Note_on_c, 0, 79, 42
1, 12936, Note_on_c, 0, 79, 0
1, 12960, Note_on_c, 0, 76, 89
1, 12960, Note_on_c, 0, 79, 69
1, 13020, Note_on_c, 0, 48, 71
1, 13068, Note_on_c, 0, 48, 0
1, 13080, Note_on_c, 0, 52, 66
1, 13104, Note_on_c, 0, 79, 0
1, 13104, Note_on_c, 0, 76, 0
1, 13128, Note_on_c, 0, 52, 0
1, 13140, Note_on_c, 0, 77, 56
1, 13140, Note_on_c, 0, 74, 52
1, 13140, Note_on_c, 0, 55, 66
1, 13188, Note_on_c, 0, 55, 0
1, 13188, Note_on_c, 0, 74, 0
1, 13188, Note_on_c, 0, 77, 0
1, 13200, Note_on_c, 0, 60, 58
1, 13200, Note_on_c, 0, 72, 65
1, 13200, Note_on_c, 0, 76, 86
1, 13296, Note_on_c, 0, 76, 0
1, 13296, Note_on_c, 0, 72, 0
1, 13320, Note_on_c, 0, 84, 61
1, 13368, Note_on_c, 0, 84, 0
1, 13380, Note_on_c, 0, 79, 61
1, 13392, Note_on_c, 0, 60, 0
1, 13428, Note_on_c, 0, 79, 0
1, 13440, Note_on_c, 0, 79, 66
1, 13440, Note_on_c, 0, 55, 80
1, 13440, Note_on_c, 0, 62, 80
1, 13452, Note_on_c, 0, 79, 0
1, 13455, Note_on_c, 0, 77, 58
1, 13467, Note_on_c, 0, 77, 0
1, 13470, Note_on_c, 0, 79, 61
1, 13482, Note_on_c, 0, 79, 0
1, 13485, Note_on_c, 0, 77, 43
1, 13497, Note_on_c, 0, 77, 0
1, 13500, Note_on_c, 0, 79, 54
1, 13512, Note_on_c, 0, 79, 0
1, 13515, Note_on_c, 0, 77, 43
1, 13527, Note_on_c, 0, 77, 0
1, 13530, Note_on_c, 0, 79, 54
1, 13536, Note_on_c, 0, 62, 0
1, 13542, Note_on_c, 0, 79, 0
1, 13545, Note_on_c, 0, 77, 52
1, 13557, Note_on_c, 0, 77, 0
1, 13560, Note_on_c, 0, 60, 80
1, 13560, Note_on_c, 0, 76, 83
1, 13656, Note_on_c, 0, 76, 0
1, 13656, Note_on_c, 0, 60, 0
1, 13680, Note_on_c, 0, 76, 52
1, 13680, Note_on_c, 0, 65, 80
1, 13692, Note_on_c, 0, 76, 0
1, 13695, Note_on_c, 0, 74, 44
1, 13707, Note_on_c, 0, 74, 0
1, 13710, Note_on_c, 0, 76, 50
1, 13722, Note_on_c, 0, 76, 0
1, 13725, Note_on_c, 0, 74, 50
1, 13737, Note_on_c, 0, 74, 0
1, 13740, Note_on_c, 0, 76, 50
1, 13752, Note_on_c, 0, 76, 0
1, 13755, Note_on_c, 0, 74, 42
1, 13767, Note_on_c, 0, 74, 0
1, 13770, Note_on_c, 0, 76, 54
1, 13776, Note_on_c, 0, 65, 0
1, 13782, Note_on_c, 0, 76, 0
1, 13785, Note_on_c, 0, 74, 42
1, 13797, Note_on_c, 0, 74, 0
1, 13800, Note_on_c, 0, 72, 97
1, 13800, Note_on_c, 0, 64, 80
1, 13896, Note_on_c, 0, 55, 0
1, 13896, Note_on_c, 0, 64, 0
1, 13896, Note_on_c, 0, 72, 0
1, 13920, Note_on_c, 0, 62, 89
1, 13920, Note_on_c, 0, 55, 80
1, 13920, Note_on_c, 0, 71, 45
1, 13952, Note_on_c, 0, 71, 0
1, 13960, Note_on_c, 0, 72, 66
1, 13992, Note_on_c, 0, 72, 0
1, 14000, Note_on_c, 0, 74, 71
1, 14032, Note_on_c, 0, 74, 0
1, 14040, Note_on_c, 0, 67, 50
1, 14112, Note_on_c, 0, 55, 0
1, 14112, Note_on_c, 0, 62, 0
1, 14136, Note_on_c, 0, 67, 0
1, 14280, Note_on_c, 0, 74, 80
1, 14376, Note_on_c, 0, 74, 0
1, 14400, Note_on_c, 0, 79, 66
1, 14424, Note_on_c, 0, 79, 0
1, 14430, Note_on_c, 0, 78, 47
1, 14454, Note_on_c, 0, 78, 0
1, 14460, Note_on_c, 0, 79, 66
1, 14484, Note_on_c, 0, 79, 0
1, 14490, Note_on_c, 0, 81, 89
1, 14514, Note_on_c, 0, 81, 0
1, 14520, Note_on_c, 0, 83, 44
1, 14520, Note_on_c, 0, 55, 65
1, 14520, Note_on_c, 0, 62, 53
1, 14616, Note_on_c, 0, 62, 0
1, 14616, Note_on_c, 0, 55, 0
1, 14616, Note_on_c, 0, 83, 0
1, 14640, Note_on_c, 0, 55, 83
1, 14640, Note_on_c, 0, 62, 69
1, 14736, Note_on_c, 0, 62, 0
1, 14736, Note_on_c, 0, 55, 0
1, 14760, Note_on_c, 0, 62, 71
1, 14760, Note_on_c, 0, 55, 64
1, 14760, Note_on_c, 0, 83, 71
1, 14856, Note_on_c, 0, 83, 0
1, 14856, Note_on_c, 0, 55, 0
1, 14856, Note_on_c, 0, 62, 0
1, 14880, Note_on_c, 0, 84, 58
1, 14904, Note_on_c, 0, 84, 0
1, 14910, Note_on_c, 0, 83, 61
1, 14934, Note_on_c, 0, 83, 0
1, 14940, Note_on_c, 0, 81, 54
1, 14964, Note_on_c, 0, 81, 0
1, 14970, Note_on_c, 0, 83, 58
1, 14994, Note_on_c, 0, 83, 0
1, 15000, Note_on_c, 0, 81, 58
1, 15000, Note_on_c, 0, 54, 66
1, 15000, Note_on_c, 0, 62, 44
1, 15096, Note_on_c, 0, 62, 0
1, 15096, Note_on_c, 0, 54, 0
1, 15096, Note_on_c, 0, 81, 0
1, 15120, Note_on_c, 0, 54, 43
1, 15120, Note_on_c, 0, 62, 53
1, 15216, Note_on_c, 0, 62, 0
1, 15216, Note_on_c, 0, 54, 0
1, 15240, Note_on_c, 0, 54, 42
1, 15240, Note_on_c, 0, 62, 44
1, 15240, Note_on_c, 0, 74, 80
1, 15336, Note_on_c, 0, 74, 0
1, 15336, Note_on_c, 0, 62, 0
1, 15336, Note_on_c, 0, 54, 0
1, 15360, Note_on_c, 0, 78, 83
1, 15384, Note_on_c, 0, 78, 0
1, 15390, Note_on_c, 0, 76, 89
1, 15414, Note_on_c, 0, 76, 0
1, 15420, Note_on_c, 0, 78, 77
1, 15444, Note_on_c, 0, 78, 0
1, 15450, Note_on_c, 0, 79, 77
1, 15474, Note_on_c, 0, 79, 0
1, 15480, Note_on_c, 0, 81, 61
1, 15480, Note_on_c, 0, 54, 52
1, 15480, Note_on_c, 0, 62, 43
1, 15576, Note_on_c, 0, 62, 0
1, 15576, Note_on_c, 0, 54, 0
1, 15576, Note_on_c, 0, 81, 0
1, 15600, Note_on_c, 0, 54, 44
1, 15600, Note_on_c, 0, 62, 52
1, 15696, Note_on_c, 0, 62, 0
1, 15696, Note_on_c, 0, 54, 0
1, 15720, Note_on_c, 0, 54, 52
1, 15720, Note_on_c, 0, 62, 52
1, 15720, Note_on_c, 0, 72, 50
1, 15816, Note_on_c, 0, 72, 0
1, 15816, Note_on_c, 0, 62, 0
1, 15816, Note_on_c, 0, 54, 0
1, 15840, Note_on_c, 0, 71, 66
1, 15864, Note_on_c, 0, 71, 0
1, 15870, Note_on_c, 0, 69, 61
1, 15894, Note_on_c, 0, 69, 0
1, 15900, Note_on_c, 0, 71, 66
1, 15924, Note_on_c, 0, 71, 0
1, 15930, Note_on_c, 0, 72, 77
1, 15954, Note_on_c, 0, 72, 0
1, 15960, Note_on_c, 0, 55, 42
1, 15960, Note_on_c, 0, 74, 47
1, 15960, Note_on_c, 0, 59, 54
1, 16056, Note_on_c, 0, 59, 0
1, 16056, Note_on_c, 0, 74, 0
1, 16056, Note_on_c, 0, 55, 0
1, 16080, Note_on_c, 0, 59, 45
1, 16080, Note_on_c, 0, 55, 43
1, 16176, Note_on_c, 0, 55, 0
1, 16176, Note_on_c, 0, 59, 0
1, 16200, Note_on_c, 0, 55, 43
1, 16200, Note_on_c, 0, 59, 42
1, 16200, Note_on_c, 0, 74, 77
1, 16248, Note_on_c, 0, 74, 0
1, 16260, Note_on_c, 0, 79, 61
1, 16296, Note_on_c, 0, 59, 0
1, 16296, Note_on_c, 0, 55, 0
1, 16308, Note_on_c, 0, 79, 0
1, 16320, Note_on_c, 0, 60, 60
1, 16320, Note_on_c, 0, 78, 54
1, 16320, Note_on_c, 0, 55, 50
1, 16332, Note_on_c, 0, 78, 0
1, 16335, Note_on_c, 0, 76, 77
1, 16347, Note_on_c, 0, 76, 0
1, 16350, Note_on_c, 0, 78, 77
1, 16362, Note_on_c, 0, 78, 0
1, 16365, Note_on_c, 0, 76, 71
1, 16377, Note_on_c, 0, 76, 0
1, 16380, Note_on_c, 0, 78, 77
1, 16392, Note_on_c, 0, 78, 0
1, 16395, Note_on_c, 0, 76, 61
1, 16407, Note_on_c, 0, 76, 0
1, 16410, Note_on_c, 0, 78, 83
1, 16416, Note_on_c, 0, 60, 0
1, 16422, Note_on_c, 0, 78, 0
1, 16425, Note_on_c, 0, 76, 66
1, 16437, Note_on_c, 0, 76, 0
1, 16440, Note_on_c, 0, 74, 54
1, 16440, Note_on_c, 0, 59, 49
1, 16536, Note_on_c, 0, 59, 0
1, 16536, Note_on_c, 0, 74, 0
1, 16560, Note_on_c, 0, 76, 89
1, 16560, Note_on_c, 0, 60, 50
1, 16608, Note_on_c, 0, 76, 0
1, 16620, Note_on_c, 0, 79, 83
1, 16656, Note_on_c, 0, 60, 0
1, 16668, Note_on_c, 0, 79, 0
1, 16680, Note_on_c, 0, 78, 95
1, 16680, Note_on_c, 0, 57, 60
1, 16728, Note_on_c, 0, 78, 0
1, 16740, Note_on_c, 0, 81, 54
1, 16776, Note_on_c, 0, 55, 0
1, 16776, Note_on_c, 0, 57, 0
1, 16788, Note_on_c, 0, 81, 0
1, 16800, Note_on_c, 0, 55, 58
1, 16800, Note_on_c, 0, 59, 53
1, 16800, Note_on_c, 0, 79, 80
1, 16944, Note_on_c, 0, 79, 0
1, 16980, Note_on_c, 0, 83, 71
1, 16992, Note_on_c, 0, 59, 0
1, 16992, Note_on_c, 0, 55, 0
1, 17028, Note_on_c, 0, 83, 0
1, 17040, Note_on_c, 0, 79, 61
1, 17136, Note_on_c, 0, 79, 0
1, 17160, Note_on_c, 0, 59, 42
1, 17160, Note_on_c, 0, 71, 66
1, 17256, Note_on_c, 0, 71, 0
1, 17256, Note_on_c, 0, 59, 0
1, 17280, Note_on_c, 0, 74, 66
1, 17280, Note_on_c, 0, 62, 71
1, 17328, Note_on_c, 0, 62, 0
1, 17328, Note_on_c, 0, 74, 0
1, 17340, Note_on_c, 0, 72, 71
1, 17340, Note_on_c, 0, 60, 61
1, 17388, Note_on_c, 0, 60, 0
1, 17388, Note_on_c, 0, 72, 0
1, 17400, Note_on_c, 0, 59, 83
1, 17400, Note_on_c, 0, 71, 66
1, 17448, Note_on_c, 0, 71, 0
1, 17448, Note_on_c, 0, 59, 0
1, 17460, Note_on_c, 0, 69, 71
1, 17460, Note_on_c, 0, 57, 61
1, 17508, Note_on_c, 0, 57, 0
1, 17508, Note_on_c, 0, 69, 0
1, 17520, Note_on_c, 0, 62, 54
1, 17520, Note_on_c, 0, 74, 58
1, 17616, Note_on_c, 0, 74, 0
1, 17616, Note_on_c, 0, 62, 0
1, 17640, Note_on_c, 0, 62, 71
1, 17640, Note_on_c, 0, 74, 71
1, 17736, Note_on_c, 0, 74, 0
1, 17736, Note_on_c, 0, 62, 0
1, 17760, Note_on_c, 0, 67, 77
1, 17760, Note_on_c, 0, 55, 77
1, 17952, Note_on_c, 0, 55, 0
1, 17952, Note_on_c, 0, 67, 0
1, 18000, Note_on_c, 0, 54, 66
1, 18000, Note_on_c, 0, 74, 71
1, 18012, Note_on_c, 0, 74, 0
1, 18015, Note_on_c, 0, 72, 54
1, 18027, Note_on_c, 0, 72, 0
1, 18030, Note_on_c, 0, 74, 42
1, 18042, Note_on_c, 0, 74, 0
1, 18045, Note_on_c, 0, 72, 41
1, 18048, Note_on_c, 0, 54, 0
1, 18057, Note_on_c, 0, 72, 0
1, 18060, Note_on_c, 0, 62, 58
1, 18060, Note_on_c, 0, 74, 50
1, 18072, Note_on_c, 0, 74, 0
1, 18075, Note_on_c, 0, 72, 46
1, 18087, Note_on_c, 0, 72, 0
1, 18090, Note_on_c, 0, 74, 47
1, 18102, Note_on_c, 0, 74, 0
1, 18105, Note_on_c, 0, 72, 43
1, 18108, Note_on_c, 0, 62, 0
1, 18117, Note_on_c, 0, 72, 0
1, 18120, Note_on_c, 0, 54, 54
1, 18120, Note_on_c, 0, 74, 47
1, 18132, Note_on_c, 0, 74, 0
1, 18135, Note_on_c, 0, 72, 45
1, 18147, Note_on_c, 0, 72, 0
1, 18150, Note_on_c, 0, 74, 46
1, 18162, Note_on_c, 0, 74, 0
1, 18165, Note_on_c, 0, 72, 31
1, 18168, Note_on_c, 0, 54, 0
1, 18177, Note_on_c, 0, 72, 0
1, 18180, Note_on_c, 0, 62, 58
1, 18180, Note_on_c, 0, 74, 43
1, 18192, Note_on_c, 0, 74, 0
1, 18195, Note_on_c, 0, 72, 42
1, 18207, Note_on_c, 0, 72, 0
1, 18210, Note_on_c, 0, 74, 46
1, 18222, Note_on_c, 0, 74, 0
1, 18225, Note_on_c, 0, 72, 42
1, 18228, Note_on_c, 0, 62, 0
1, 18237, Note_on_c, 0, 72, 0
1, 18240, Note_on_c, 0, 71, 66
1, 18240, Note_on_c, 0, 55, 66
1, 18288, Note_on_c, 0, 55, 0
1, 18300, Note_on_c, 0, 62, 50
1, 18348, Note_on_c, 0, 62, 0
1, 18360, Note_on_c, 0, 55, 54
1, 18408, Note_on_c, 0, 55, 0
1, 18420, Note_on_c, 0, 62, 66
1, 18432, Note_on_c, 0, 71, 0
1, 18468, Note_on_c, 0, 62, 0
1, 18480, Note_on_c, 0, 54, 71
1, 18480, Note_on_c, 0, 74, 77
1, 18528, Note_on_c, 0, 74, 0
1, 18528, Note_on_c, 0, 54, 0
1, 18540, Note_on_c, 0, 62, 66
1, 18540, Note_on_c, 0, 78, 42
1, 18588, Note_on_c, 0, 78, 0
1, 18588, Note_on_c, 0, 62, 0
1, 18600, Note_on_c, 0, 54, 77
1, 18600, Note_on_c, 0, 81, 47
1, 18648, Note_on_c, 0, 81, 0
1, 18648, Note_on_c, 0, 54, 0
1, 18660, Note_on_c, 0, 62, 58
1, 18660, Note_on_c, 0, 84, 71
1, 18708, Note_on_c, 0, 84, 0
1, 18708, Note_on_c, 0, 62, 0
1, 18720, Note_on_c, 0, 83, 71
1, 18720, Note_on_c, 0, 55, 71
1, 18768, Note_on_c, 0, 55, 0
1, 18780, Note_on_c, 0, 62, 58
1, 18816, Note_on_c, 0, 83, 0
1, 18828, Note_on_c, 0, 62, 0
1, 18840, Note_on_c, 0, 55, 58
1, 18840, Note_on_c, 0, 79, 71
1, 18888, Note_on_c, 0, 55, 0
1, 18900, Note_on_c, 0, 62, 61
1, 18936, Note_on_c, 0, 79, 0
1, 18948, Note_on_c, 0, 62, 0
1, 18960, Note_on_c, 0, 54, 83
1, 18960, Note_on_c, 0, 74, 71
1, 18972, Note_on_c, 0, 74, 0
1, 18975, Note_on_c, 0, 72, 54
1, 18987, Note_on_c, 0, 72, 0
1, 18990, Note_on_c, 0, 74, 42
1, 19002, Note_on_c, 0, 74, 0
1, 19005, Note_on_c, 0, 72, 41
1, 19008, Note_on_c, 0, 54, 0
1, 19017, Note_on_c, 0, 72, 0
1, 19020, Note_on_c, 0, 62, 66
1, 19020, Note_on_c, 0, 74, 50
1, 19032, Note_on_c, 0, 74, 0
1, 19035, Note_on_c, 0, 72, 46
1, 19047, Note_on_c, 0, 72, 0
1, 19050, Note_on_c, 0, 74, 47
1, 19062, Note_on_c, 0, 74, 0
1, 19065, Note_on_c, 0, 72, 43
1, 19068, Note_on_c, 0, 62, 0
1, 19077, Note_on_c, 0, 72, 0
1, 19080, Note_on_c, 0, 54, 66
1, 19080, Note_on_c, 0, 74, 47
1, 19092, Note_on_c, 0, 74, 0
1, 19095, Note_on_c, 0, 72, 45
1, 19107, Note_on_c, 0, 72, 0
1, 19110, Note_on_c, 0, 74, 46
1, 19122, Note_on_c, 0, 74, 0
1, 19125, Note_on_c, 0, 72, 31
1, 19128, Note_on_c, 0, 54, 0
1, 19137, Note_on_c, 0, 72, 0
1, 19140, Note_on_c, 0, 62, 71
1, 19140, Note_on_c, 0, 74, 43
1, 19152, Note_on_c, 0, 74, 0
1, 19155, Note_on_c, 0, 72, 42
1, 19167, Note_on_c, 0, 72, 0
1, 19170, Note_on_c, 0, 74, 46
1, 19182, Note_on_c, 0, 74, 0
1, 19185, Note_on_c, 0, 72, 42
1, 19188, Note_on_c, 0, 62, 0
1, 19197, Note_on_c, 0, 72, 0
1, 19200, Note_on_c, 0, 71, 89
1, 19200, Note_on_c, 0, 55, 77
1, 19248, Note_on_c, 0, 55, 0
1, 19260, Note_on_c, 0, 62, 61
1, 19308, Note_on_c, 0, 62, 0
1, 19320, Note_on_c, 0, 55, 61
1, 19368, Note_on_c, 0, 55, 0
1, 19380, Note_on_c, 0, 62, 61
1, 19392, Note_on_c, 0, 71, 0
1, 19428, Note_on_c, 0, 62, 0
1, 19440, Note_on_c, 0, 54, 71
1, 19440, Note_on_c, 0, 81, 71
1, 19488, Note_on_c, 0, 54, 0
1, 19500, Note_on_c, 0, 62, 71
1, 19548, Note_on_c, 0, 62, 0
1, 19560, Note_on_c, 0, 54, 71
1, 19584, Note_on_c, 0, 81, 0
1, 19608, Note_on_c, 0, 54, 0
1, 19620, Note_on_c, 0, 62, 77
1, 19620, Note_on_c, 0, 72, 83
1, 19668, Note_on_c, 0, 72, 0
1, 19668, Note_on_c, 0, 62, 0
1, 19680, Note_on_c, 0, 55, 77
1, 19680, Note_on_c, 0, 71, 77
1, 19712, Note_on_c, 0, 71, 0
1, 19720, Note_on_c, 0, 69, 77
1, 19752, Note_on_c, 0, 69, 0
1, 19760, Note_on_c, 0, 67, 89
1, 19776, Note_on_c, 0, 55, 0
1, 19792, Note_on_c, 0, 67, 0
1, 19800, Note_on_c, 0, 76, 83
1, 19800, Note_on_c, 0, 60, 89
1, 19832, Note_on_c, 0, 76, 0
1, 19840, Note_on_c, 0, 74, 83
1, 19872, Note_on_c, 0, 74, 0
1, 19880, Note_on_c, 0, 72, 89
1, 19896, Note_on_c, 0, 60, 0
1, 19912, Note_on_c, 0, 72, 0
1, 19920, Note_on_c, 0, 62, 66
1, 19920, Note_on_c, 0, 71, 61
1, 20016, Note_on_c, 0, 71, 0
1, 20016, Note_on_c, 0, 62, 0
1, 20040, Note_on_c, 0, 71, 58
1, 20040, Note_on_c, 0, 50, 77
1, 20052, Note_on_c, 0, 71, 0
1, 20055, Note_on_c, 0, 69, 58
1, 20067, Note_on_c, 0, 69, 0
1, 20070, Note_on_c, 0, 71, 58
1, 20082, Note_on_c, 0, 71, 0
1, 20085, Note_on_c, 0, 69, 50
1, 20097, Note_on_c, 0, 69, 0
1, 20100, Note_on_c, 0, 71, 58
1, 20112, Note_on_c, 0, 71, 0
1, 20115, Note_on_c, 0, 69, 50
1, 20127, Note_on_c, 0, 69, 0
1, 20130, Note_on_c, 0, 71, 46
1, 20136, Note_on_c, 0, 50, 0
1, 20142, Note_on_c, 0, 71, 0
1, 20145, Note_on_c, 0, 69, 50
1, 20157, Note_on_c, 0, 69, 0
1, 20160, Note_on_c, 0, 55, 80
1, 20160, Note_on_c, 0, 67, 89
1, 20256, Note_on_c, 0, 55, 0
1, 20280, Note_on_c, 0, 50, 80
1, 20352, Note_on_c, 0, 67, 0
1, 20376, Note_on_c, 0, 50, 0
1, 20400, Note_on_c, 0, 43, 80
1, 20496, Note_on_c, 0, 43, 0
1, 20520, Note_on_c, 0, 62, 80
1, 20616, Note_on_c, 0, 62, 0
1, 20640, Note_on_c, 0, 67, 54
1, 20640, Note_on_c, 0, 59, 75
1, 20640, Note_on_c, 0, 55, 80
1, 20664, Note_on_c, 0, 67, 0
1, 20670, Note_on_c, 0, 66, 77
1, 20694, Note_on_c, 0, 66, 0
1, 20700, Note_on_c, 0, 67, 52
1, 20724, Note_on_c, 0, 67, 0
1, 20730, Note_on_c, 0, 69, 50
1, 20736, Note_on_c, 0, 55, 0
1, 20736, Note_on_c, 0, 59, 0
1, 20754, Note_on_c, 0, 69, 0
1, 20760, Note_on_c, 0, 71, 83
1, 20856, Note_on_c, 0, 71, 0
1, 20880, Note_on_c, 0, 55, 42
1, 20880, Note_on_c, 0, 59, 56
1, 20880, Note_on_c, 0, 71, 61
1, 20904, Note_on_c, 0, 71, 0
1, 20910, Note_on_c, 0, 69, 71
1, 20934, Note_on_c, 0, 69, 0
1, 20940, Note_on_c, 0, 71, 75
1, 20964, Note_on_c, 0, 71, 0
1, 20970, Note_on_c, 0, 72, 58
1, 20976, Note_on_c, 0, 59, 0
1, 20976, Note_on_c, 0, 55, 0
1, 20994, Note_on_c, 0, 72, 0
1, 21000, Note_on_c, 0, 74, 61
1, 21096, Note_on_c, 0, 74, 0
1, 21120, Note_on_c, 0, 74, 69
1, 21120, Note_on_c, 0, 71, 86
1, 21180, Note_on_c, 0, 43, 29
1, 21228, Note_on_c, 0, 43, 0
1, 21240, Note_on_c, 0, 47, 71
1, 21264, Note_on_c, 0, 71, 0
1, 21264, Note_on_c, 0, 74, 0
1, 21288, Note_on_c, 0, 47, 0
1, 21300, Note_on_c, 0, 50, 77
1, 21300, Note_on_c, 0, 72, 43
1, 21300, Note_on_c, 0, 69, 47
1, 21348, Note_on_c, 0, 69, 0
1, 21348, Note_on_c, 0, 72, 0
1, 21348, Note_on_c, 0, 50, 0
1, 21360, Note_on_c, 0, 55, 44
1, 21360, Note_on_c, 0, 71, 43
1, 21360, Note_on_c, 0, 67, 43
1, 21456, Note_on_c, 0, 67, 0
1, 21456, Note_on_c, 0, 71, 0
1, 21456, Note_on_c, 0, 55, 0
1, 21480, Note_on_c, 0, 59, 61
1, 21480, Note_on_c, 0, 62, 77
1, 21528, Note_on_c, 0, 62, 0
1, 21540, Note_on_c, 0, 67, 58
1, 21576, Note_on_c, 0, 59, 0
1, 21588, Note_on_c, 0, 67, 0
1, 21600, Note_on_c, 0, 60, 83
1, 21600, Note_on_c, 0, 64, 89
1, 21696, Note_on_c, 0, 64, 0
1, 21696, Note_on_c, 0, 60, 0
1, 21720, Note_on_c, 0, 62, 83
1, 21720, Note_on_c, 0, 59, 71
1, 21768, Note_on_c, 0, 62, 0
1, 21780, Note_on_c, 0, 67, 58
1, 21816, Note_on_c, 0, 59, 0
1, 21828, Note_on_c, 0, 67, 0
1, 21840, Note_on_c, 0, 57, 71
1, 21840, Note_on_c, 0, 62, 77
1, 21936, Note_on_c, 0, 62, 0
1, 21936, Note_on_c, 0, 57, 0
1, 21960, Note_on_c, 0, 50, 77
1, 21960, Note_on_c, 0, 60, 77
1, 22056, Note_on_c, 0, 60, 0
1, 22056, Note_on_c, 0, 50, 0
1, 22080, Note_on_c, 0, 55, 71
1, 22080, Note_on_c, 0, 59, 71
1, 22176, Note_on_c, 0, 55, 0
1, 22200, Note_on_c, 0, 50, 89
1, 22272, Note_on_c, 0, 59, 0
1, 22296, Note_on_c, 0, 50, 0
1, 22320, Note_on_c, 0, 43, 97
1, 22416, Note_on_c, 0, 43, 0
1, 22440, Note_on_c, 0, 64, 89
1, 22536, Note_on_c, 0, 64, 0
1, 22560, Note_on_c, 0, 69, 71
1, 22560, Note_on_c, 0, 57, 57
1, 22560, Note_on_c, 0, 60, 56
1, 22584, Note_on_c, 0, 69, 0
1, 22590, Note_on_c, 0, 68, 66
1, 22614, Note_on_c, 0, 68, 0
1, 22620, Note_on_c, 0, 69, 58
1, 22644, Note_on_c, 0, 69, 0
1, 22650, Note_on_c, 0, 71, 50
1, 22656, Note_on_c, 0, 60, 0
1, 22656, Note_on_c, 0, 57, 0
1, 22674, Note_on_c, 0, 71, 0
1, 22680, Note_on_c, 0, 72, 77
1, 22776, Note_on_c, 0, 72, 0
1, 22800, Note_on_c, 0, 57, 66
1, 22800, Note_on_c, 0, 60, 53
1, 22800, Note_on_c, 0, 72, 58
1, 22824, Note_on_c, 0, 72, 0
1, 22830, Note_on_c, 0, 71, 66
1, 22854, Note_on_c, 0, 71, 0
1, 22860, Note_on_c, 0, 72, 61
1, 22884, Note_on_c, 0, 72, 0
1, 22890, Note_on_c, 0, 74, 66
1, 22896, Note_on_c, 0, 60, 0
1, 22896, Note_on_c, 0, 57, 0
1, 22914, Note_on_c, 0, 74, 0
1, 22920, Note_on_c, 0, 76, 71
1, 23016, Note_on_c, 0, 76, 0
1, 23040, Note_on_c, 0, 76, 80
1, 23040, Note_on_c, 0, 72, 75
1, 23100, Note_on_c, 0, 45, 47
1, 23148, Note_on_c, 0, 45, 0
1, 23160, Note_on_c, 0, 48, 71
1, 23184, Note_on_c, 0, 72, 0
1, 23184, Note_on_c, 0, 76, 0
1, 23208, Note_on_c, 0, 48, 0
1, 23220, Note_on_c, 0, 74, 52
1, 23220, Note_on_c, 0, 71, 56
1, 23220, Note_on_c, 0, 52, 58
1, 23268, Note_on_c, 0, 52, 0
1, 23268, Note_on_c, 0, 71, 0
1, 23268, Note_on_c, 0, 74, 0
1, 23280, Note_on_c, 0, 57, 54
1, 23280, Note_on_c, 0, 69, 42
1, 23280, Note_on_c, 0, 72, 47
1, 23376, Note_on_c, 0, 72, 0
1, 23376, Note_on_c, 0, 69, 0
1, 23400, Note_on_c, 0, 76, 89
1, 23472, Note_on_c, 0, 57, 0
1, 23496, Note_on_c, 0, 76, 0
1, 23520, Note_on_c, 0, 77, 77
1, 23544, Note_on_c, 0, 77, 0
1, 23550, Note_on_c, 0, 76, 50
1, 23574, Note_on_c, 0, 76, 0
1, 23580, Note_on_c, 0, 77, 77
1, 23604, Note_on_c, 0, 77, 0
1, 23610, Note_on_c, 0, 79, 61
1, 23634, Note_on_c, 0, 79, 0
1, 23640, Note_on_c, 0, 81, 44
1, 23640, Note_on_c, 0, 57, 54
1, 23640, Note_on_c, 0, 50, 74
1, 23736, Note_on_c, 0, 50, 0
1, 23736, Note_on_c, 0, 57, 0
1, 23736, Note_on_c, 0, 81, 0
1, 23760, Note_on_c, 0, 50, 52
1, 23760, Note_on_c, 0, 57, 47
1, 23856, Note_on_c, 0, 57, 0
1, 23856, Note_on_c, 0, 50, 0
1, 23880, Note_on_c, 0, 50, 55
1, 23880, Note_on_c, 0, 57, 50
1, 23880, Note_on_c, 0, 77, 80
1, 23976, Note_on_c, 0, 77, 0
1, 23976, Note_on_c, 0, 57, 0
1, 23976, Note_on_c, 0, 50, 0
1, 24000, Note_on_c, 0, 76, 89
1, 24024, Note_on_c, 0, 76, 0
1, 24030, Note_on_c, 0, 74, 89
1, 24054, Note_on_c, 0, 74, 0
1, 24060, Note_on_c, 0, 72, 89
1, 24084, Note_on_c, 0, 72, 0
1, 24090, Note_on_c, 0, 74, 77
1, 24114, Note_on_c, 0, 74, 0
1, 24120, Note_on_c, 0, 72, 54
1, 24120, Note_on_c, 0, 57, 66
1, 24120, Note_on_c, 0, 60, 50
1, 24216, Note_on_c, 0, 60, 0
1, 24216, Note_on_c, 0, 57, 0
1, 24216, Note_on_c, 0, 72, 0
1, 24240, Note_on_c, 0, 57, 58
1, 24240, Note_on_c, 0, 60, 43
1, 24336, Note_on_c, 0, 60, 0
1, 24336, Note_on_c, 0, 57, 0
1, 24360, Note_on_c, 0, 57, 54
1, 24360, Note_on_c, 0, 60, 45
1, 24360, Note_on_c, 0, 72, 43
1, 24456, Note_on_c, 0, 72, 0
1, 24456, Note_on_c, 0, 60, 0
1, 24456, Note_on_c, 0, 57, 0
1, 24480, Note_on_c, 0, 71, 58
1, 24504, Note_on_c, 0, 71, 0
1, 24510, Note_on_c, 0, 69, 58
1, 24534, Note_on_c, 0, 69, 0
1, 24540, Note_on_c, 0, 71, 58
1, 24564, Note_on_c, 0, 71, 0
1, 24570, Note_on_c, 0, 72, 50
1, 24594, Note_on_c, 0, 72, 0
1, 24600, Note_on_c, 0, 74, 71
1, 24600, Note_on_c, 0, 59, 58
1, 24600, Note_on_c, 0, 52, 61
1, 24696, Note_on_c, 0, 52, 0
1, 24696, Note_on_c, 0, 59, 0
1, 24696, Note_on_c, 0, 74, 0
1, 24720, Note_on_c, 0, 59, 58
1, 24720, Note_on_c, 0, 52, 71
1, 24816, Note_on_c, 0, 52, 0
1, 24816, Note_on_c, 0, 59, 0
1, 24840, Note_on_c, 0, 56, 43
1, 24840, Note_on_c, 0, 52, 61
1, 24840, Note_on_c, 0, 71, 58
1, 24936, Note_on_c, 0, 71, 0
1, 24936, Note_on_c, 0, 52, 0
1, 24936, Note_on_c, 0, 56, 0
1, 24960, Note_on_c, 0, 74, 58
1, 24960, Note_on_c, 0, 57, 58
1, 24960, Note_on_c, 0, 52, 77
1, 24972, Note_on_c, 0, 74, 0
1, 24975, Note_on_c, 0, 72, 50
1, 24987, Note_on_c, 0, 72, 0
1, 24990, Note_on_c, 0, 74, 42
1, 25002, Note_on_c, 0, 74, 0
1, 25005, Note_on_c, 0, 72, 43
1, 25017, Note_on_c, 0, 72, 0
1, 25020, Note_on_c, 0, 74, 54
1, 25032, Note_on_c, 0, 74, 0
1, 25035, Note_on_c, 0, 72, 44
1, 25047, Note_on_c, 0, 72, 0
1, 25050, Note_on_c, 0, 74, 45
1, 25056, Note_on_c, 0, 57, 0
1, 25062, Note_on_c, 0, 74, 0
1, 25065, Note_on_c, 0, 72, 66
1, 25077, Note_on_c, 0, 72, 0
1, 25080, Note_on_c, 0, 56, 58
1, 25080, Note_on_c, 0, 71, 47
1, 25176, Note_on_c, 0, 71, 0
1, 25176, Note_on_c, 0, 52, 0
1, 25176, Note_on_c, 0, 56, 0
1, 25200, Note_on_c, 0, 76, 58
1, 25248, Note_on_c, 0, 76, 0
1, 25260, Note_on_c, 0, 71, 42
1, 25308, Note_on_c, 0, 71, 0
1, 25320, Note_on_c, 0, 62, 80
1, 25320, Note_on_c, 0, 68, 71
1, 25368, Note_on_c, 0, 68, 0
1, 25380, Note_on_c, 0, 64, 77
1, 25416, Note_on_c, 0, 62, 0
1, 25428, Note_on_c, 0, 64, 0
1, 25440, Note_on_c, 0, 60, 61
1, 25440, Note_on_c, 0, 69, 77
1, 25464, Note_on_c, 0, 69, 0
1, 25470, Note_on_c, 0, 68, 83
1, 25494, Note_on_c, 0, 68, 0
1, 25500, Note_on_c, 0, 69, 81
1, 25524, Note_on_c, 0, 69, 0
1, 25530, Note_on_c, 0, 71, 61
1, 25536, Note_on_c, 0, 60, 0
1, 25554, Note_on_c, 0, 71, 0
1, 25560, Note_on_c, 0, 72, 81
1, 25560, Note_on_c, 0, 57, 83
1, 25656, Note_on_c, 0, 57, 0
1, 25656, Note_on_c, 0, 72, 0
1, 25680, Note_on_c, 0, 81, 58
1, 25728, Note_on_c, 0, 81, 0
1, 25740, Note_on_c, 0, 76, 71
1, 25788, Note_on_c, 0, 76, 0
1, 25800, Note_on_c, 0, 55, 61
1, 25800, Note_on_c, 0, 73, 106
1, 25848, Note_on_c, 0, 73, 0
1, 25860, Note_on_c, 0, 69, 77
1, 25896, Note_on_c, 0, 55, 0
1, 25908, Note_on_c, 0, 69, 0
1, 25920, Note_on_c, 0, 53, 58
1, 25920, Note_on_c, 0, 74, 71
1, 25944, Note_on_c, 0, 74, 0
1, 25950, Note_on_c, 0, 73, 77
1, 25974, Note_on_c, 0, 73, 0
1, 25980, Note_on_c, 0, 74, 71
1, 26004, Note_on_c, 0, 74, 0
1, 26010, Note_on_c, 0, 76, 71
1, 26016, Note_on_c, 0, 53, 0
1, 26034, Note_on_c, 0, 76, 0
1, 26040, Note_on_c, 0, 77, 44
1, 26040, Note_on_c, 0, 50, 83
1, 26136, Note_on_c, 0, 50, 0
1, 26136, Note_on_c, 0, 77, 0
1, 26160, Note_on_c, 0, 79, 43
1, 26208, Note_on_c, 0, 79, 0
1, 26220, Note_on_c, 0, 74, 42
1, 26268, Note_on_c, 0, 74, 0
1, 26280, Note_on_c, 0, 53, 71
1, 26280, Note_on_c, 0, 71, 45
1, 26328, Note_on_c, 0, 71, 0
1, 26340, Note_on_c, 0, 67, 89
1, 26376, Note_on_c, 0, 53, 0
1, 26388, Note_on_c, 0, 67, 0
1, 26400, Note_on_c, 0, 72, 80
1, 26400, Note_on_c, 0, 52, 80
1, 26424, Note_on_c, 0, 72, 0
1, 26430, Note_on_c, 0, 71, 80
1, 26454, Note_on_c, 0, 71, 0
1, 26460, Note_on_c, 0, 72, 80
1, 26484, Note_on_c, 0, 72, 0
1, 26490, Note_on_c, 0, 74, 80
1, 26496, Note_on_c, 0, 52, 0
1, 26514, Note_on_c, 0, 74, 0
1, 26520, Note_on_c, 0, 76, 89
1, 26520, Note_on_c, 0, 48, 80
1, 26616, Note_on_c, 0, 48, 0
1, 26616, Note_on_c, 0, 76, 0
1, 26640, Note_on_c, 0, 52, 41
1, 26640, Note_on_c, 0, 81, 42
1, 26652, Note_on_c, 0, 81, 0
1, 26655, Note_on_c, 0, 79, 66
1, 26667, Note_on_c, 0, 79, 0
1, 26670, Note_on_c, 0, 81, 44
1, 26682, Note_on_c, 0, 81, 0
1, 26685, Note_on_c, 0, 79, 54
1, 26688, Note_on_c, 0, 52, 0
1, 26697, Note_on_c, 0, 79, 0
1, 26700, Note_on_c, 0, 60, 66
1, 26700, Note_on_c, 0, 81, 42
1, 26712, Note_on_c, 0, 81, 0
1, 26715, Note_on_c, 0, 79, 1
1, 26727, Note_on_c, 0, 79, 0
1, 26730, Note_on_c, 0, 81, 42
1, 26742, Note_on_c, 0, 81, 0
1, 26745, Note_on_c, 0, 79, 42
1, 26748, Note_on_c, 0, 60, 0
1, 26757, Note_on_c, 0, 79, 0
1, 26760, Note_on_c, 0, 52, 89
1, 26760, Note_on_c, 0, 81, 61
1, 26772, Note_on_c, 0, 81, 0
1, 26775, Note_on_c, 0, 79, 44
1, 26787, Note_on_c, 0, 79, 0
1, 26790, Note_on_c, 0, 81, 45
1, 26802, Note_on_c, 0, 81, 0
1, 26805, Note_on_c, 0, 79, 43
1, 26808, Note_on_c, 0, 52, 0
1, 26817, Note_on_c, 0, 79, 0
1, 26820, Note_on_c, 0, 60, 54
1, 26820, Note_on_c, 0, 77, 66
1, 26844, Note_on_c, 0, 77, 0
1, 26850, Note_on_c, 0, 79, 42
1, 26868, Note_on_c, 0, 60, 0
1, 26874, Note_on_c, 0, 79, 0
1, 26880, Note_on_c, 0, 81, 42
1, 26880, Note_on_c, 0, 53, 71
1, 26928, Note_on_c, 0, 53, 0
1, 26940, Note_on_c, 0, 60, 61
1, 26988, Note_on_c, 0, 60, 0
1, 27000, Note_on_c, 0, 53, 66
1, 27048, Note_on_c, 0, 53, 0
1, 27060, Note_on_c, 0, 60, 54
1, 27072, Note_on_c, 0, 81, 0
1, 27108, Note_on_c, 0, 60, 0
1, 27120, Note_on_c, 0, 54, 45
1, 27120, Note_on_c, 0, 74, 58
1, 27132, Note_on_c, 0, 74, 0
1, 27135, Note_on_c, 0, 72, 75
1, 27147, Note_on_c, 0, 72, 0
1, 27150, Note_on_c, 0, 74, 58
1, 27162, Note_on_c, 0, 74, 0
1, 27165, Note_on_c, 0, 72, 58
1, 27168, Note_on_c, 0, 54, 0
1, 27177, Note_on_c, 0, 72, 0
1, 27180, Note_on_c, 0, 57, 71
1, 27180, Note_on_c, 0, 74, 43
1, 27192, Note_on_c, 0, 74, 0
1, 27195, Note_on_c, 0, 72, 58
1, 27207, Note_on_c, 0, 72, 0
1, 27210, Note_on_c, 0, 74, 42
1, 27222, Note_on_c, 0, 74, 0
1, 27225, Note_on_c, 0, 72, 50
1, 27228, Note_on_c, 0, 57, 0
1, 27237, Note_on_c, 0, 72, 0
1, 27240, Note_on_c, 0, 54, 77
1, 27240, Note_on_c, 0, 74, 58
1, 27252, Note_on_c, 0, 74, 0
1, 27255, Note_on_c, 0, 72, 71
1, 27267, Note_on_c, 0, 72, 0
1, 27270, Note_on_c, 0, 74, 54
1, 27282, Note_on_c, 0, 74, 0
1, 27285, Note_on_c, 0, 72, 58
1, 27288, Note_on_c, 0, 54, 0
1, 27297, Note_on_c, 0, 72, 0
1, 27300, Note_on_c, 0, 57, 58
1, 27300, Note_on_c, 0, 74, 61
1, 27312, Note_on_c, 0, 74, 0
1, 27315, Note_on_c, 0, 72, 61
1, 27327, Note_on_c, 0, 72, 0
1, 27330, Note_on_c, 0, 74, 43
1, 27342, Note_on_c, 0, 74, 0
1, 27345, Note_on_c, 0, 72, 65
1, 27348, Note_on_c, 0, 57, 0
1, 27357, Note_on_c, 0, 72, 0
1, 27360, Note_on_c, 0, 71, 54
1, 27360, Note_on_c, 0, 55, 61
1, 27392, Note_on_c, 0, 71, 0
1, 27400, Note_on_c, 0, 72, 54
1, 27432, Note_on_c, 0, 72, 0
1, 27440, Note_on_c, 0, 74, 71
1, 27456, Note_on_c, 0, 55, 0
1, 27472, Note_on_c, 0, 74, 0
1, 27480, Note_on_c, 0, 67, 47
1, 27480, Note_on_c, 0, 43, 83
1, 27576, Note_on_c, 0, 43, 0
1, 27576, Note_on_c, 0, 67, 0
1, 27600, Note_on_c, 0, 52, 58
1, 27600, Note_on_c, 0, 81, 42
1, 27612, Note_on_c, 0, 81, 0
1, 27615, Note_on_c, 0, 79, 66
1, 27627, Note_on_c, 0, 79, 0
1, 27630, Note_on_c, 0, 81, 44
1, 27642, Note_on_c, 0, 81, 0
1, 27645, Note_on_c, 0, 79, 54
1, 27648, Note_on_c, 0, 52, 0
1, 27657, Note_on_c, 0, 79, 0
1, 27660, Note_on_c, 0, 60, 54
1, 27660, Note_on_c, 0, 81, 42
1, 27672, Note_on_c, 0, 81, 0
1, 27675, Note_on_c, 0, 79, 1
1, 27687, Note_on_c, 0, 79, 0
1, 27690, Note_on_c, 0, 81, 42
1, 27702, Note_on_c, 0, 81, 0
1, 27705, Note_on_c, 0, 79, 42
1, 27708, Note_on_c, 0, 60, 0
1, 27717, Note_on_c, 0, 79, 0
1, 27720, Note_on_c, 0, 52, 66
1, 27720, Note_on_c, 0, 81, 61
1, 27732, Note_on_c, 0, 81, 0
1, 27735, Note_on_c, 0, 79, 44
1, 27747, Note_on_c, 0, 79, 0
1, 27750, Note_on_c, 0, 81, 45
1, 27762, Note_on_c, 0, 81, 0
1, 27765, Note_on_c, 0, 79, 43
1, 27768, Note_on_c, 0, 52, 0
1, 27777, Note_on_c, 0, 79, 0
1, 27780, Note_on_c, 0, 60, 58
1, 27780, Note_on_c, 0, 77, 66
1, 27804, Note_on_c, 0, 77, 0
1, 27810, Note_on_c, 0, 79, 42
1, 27828, Note_on_c, 0, 60, 0
1, 27834, Note_on_c, 0, 79, 0
1, 27840, Note_on_c, 0, 81, 80
1, 27840, Note_on_c, 0, 53, 66
1, 27888, Note_on_c, 0, 53, 0
1, 27900, Note_on_c, 0, 60, 47
1, 27948, Note_on_c, 0, 60, 0
1, 27960, Note_on_c, 0, 53, 77
1, 27984, Note_on_c, 0, 81, 0
1, 28008, Note_on_c, 0, 53, 0
1, 28020, Note_on_c, 0, 83, 80
1, 28020, Note_on_c, 0, 60, 54
1, 28068, Note_on_c, 0, 60, 0
1, 28068, Note_on_c, 0, 83, 0
1, 28080, Note_on_c, 0, 54, 58
1, 28080, Note_on_c, 0, 84, 80
1, 28128, Note_on_c, 0, 54, 0
1, 28140, Note_on_c, 0, 60, 71
1, 28176, Note_on_c, 0, 84, 0
1, 28188, Note_on_c, 0, 60, 0
1, 28200, Note_on_c, 0, 54, 58
1, 28200, Note_on_c, 0, 76, 83
1, 28248, Note_on_c, 0, 54, 0
1, 28260, Note_on_c, 0, 60, 61
1, 28296, Note_on_c, 0, 76, 0
1, 28308, Note_on_c, 0, 60, 0
1, 28320, Note_on_c, 0, 55, 65
1, 28320, Note_on_c, 0, 60, 69
1, 28320, Note_on_c, 0, 77, 29
1, 28332, Note_on_c, 0, 77, 0
1, 28335, Note_on_c, 0, 76, 50
1, 28347, Note_on_c, 0, 76, 0
1, 28350, Note_on_c, 0, 77, 50
1, 28362, Note_on_c, 0, 77, 0
1, 28365, Note_on_c, 0, 76, 46
1, 28377, Note_on_c, 0, 76, 0
1, 28380, Note_on_c, 0, 77, 42
1, 28392, Note_on_c, 0, 77, 0
1, 28395, Note_on_c, 0, 76, 47
1, 28407, Note_on_c, 0, 76, 0
1, 28410, Note_on_c, 0, 77, 66
1, 28416, Note_on_c, 0, 60, 0
1, 28422, Note_on_c, 0, 77, 0
1, 28425, Note_on_c, 0, 76, 75
1, 28437, Note_on_c, 0, 76, 0
1, 28440, Note_on_c, 0, 59, 57
1, 28440, Note_on_c, 0, 74, 71
1, 28536, Note_on_c, 0, 74, 0
1, 28536, Note_on_c, 0, 59, 0
1, 28536, Note_on_c, 0, 55, 0
1, 28680, Note_on_c, 0, 67, 61
1, 28776, Note_on_c, 0, 67, 0
1, 28800, Note_on_c, 0, 48, 80
1, 28800, Note_on_c, 0, 52, 80
1, 28800, Note_on_c, 0, 72, 71
1, 28824, Note_on_c, 0, 72, 0
1, 28830, Note_on_c, 0, 71, 42
1, 28854, Note_on_c, 0, 71, 0
1, 28860, Note_on_c, 0, 72, 81
1, 28884, Note_on_c, 0, 72, 0
1, 28890, Note_on_c, 0, 74, 71
1, 28896, Note_on_c, 0, 52, 0
1, 28896, Note_on_c, 0, 48, 0
1, 28914, Note_on_c, 0, 74, 0
1, 28920, Note_on_c, 0, 76, 71
1, 29016, Note_on_c, 0, 76, 0
1, 29040, Note_on_c, 0, 52, 81
1, 29040, Note_on_c, 0, 48, 86
1, 29040, Note_on_c, 0, 76, 61
1, 29064, Note_on_c, 0, 76, 0
1, 29070, Note_on_c, 0, 74, 54
1, 29094, Note_on_c, 0, 74, 0
1, 29100, Note_on_c, 0, 76, 77
1, 29124, Note_on_c, 0, 76, 0
1, 29130, Note_on_c, 0, 77, 75
1, 29136, Note_on_c, 0, 48, 0
1, 29136, Note_on_c, 0, 52, 0
1, 29154, Note_on_c, 0, 77, 0
1, 29160, Note_on_c, 0, 79, 45
1, 29256, Note_on_c, 0, 79, 0
1, 29280, Note_on_c, 0, 79, 65
1, 29280, Note_on_c, 0, 76, 86
1, 29340, Note_on_c, 0, 48, 47
1, 29388, Note_on_c, 0, 48, 0
1, 29400, Note_on_c, 0, 52, 52
1, 29424, Note_on_c, 0, 76, 0
1, 29424, Note_on_c, 0, 79, 0
1, 29448, Note_on_c, 0, 52, 0
1, 29460, Note_on_c, 0, 55, 66
1, 29460, Note_on_c, 0, 74, 81
1, 29460, Note_on_c, 0, 77, 80
1, 29508, Note_on_c, 0, 77, 0
1, 29508, Note_on_c, 0, 74, 0
1, 29508, Note_on_c, 0, 55, 0
1, 29520, Note_on_c, 0, 60, 54
1, 29520, Note_on_c, 0, 72, 47
1, 29520, Note_on_c, 0, 76, 50
1, 29616, Note_on_c, 0, 76, 0
1, 29616, Note_on_c, 0, 72, 0
1, 29616, Note_on_c, 0, 60, 0
1, 29640, Note_on_c, 0, 64, 42
1, 29640, Note_on_c, 0, 67, 58
1, 29688, Note_on_c, 0, 67, 0
1, 29700, Note_on_c, 0, 72, 61
1, 29736, Note_on_c, 0, 64, 0
1, 29748, Note_on_c, 0, 72, 0
1, 29760, Note_on_c, 0, 65, 71
1, 29760, Note_on_c, 0, 69, 71
1, 29856, Note_on_c, 0, 69, 0
1, 29856, Note_on_c, 0, 65, 0
1, 29880, Note_on_c, 0, 67, 54
1, 29880, Note_on_c, 0, 64, 71
1, 29928, Note_on_c, 0, 67, 0
1, 29940, Note_on_c, 0, 72, 46
1, 29976, Note_on_c, 0, 64, 0
1, 29988, Note_on_c, 0, 72, 0
1, 30000, Note_on_c, 0, 62, 61
1, 30000, Note_on_c, 0, 67, 77
1, 30096, Note_on_c, 0, 67, 0
1, 30096, Note_on_c, 0, 62, 0
1, 30120, Note_on_c, 0, 55, 71
1, 30120, Note_on_c, 0, 65, 77
1, 30216, Note_on_c, 0, 65, 0
1, 30216, Note_on_c, 0, 55, 0
1, 30240, Note_on_c, 0, 65, 80
1, 30240, Note_on_c, 0, 60, 50
1, 30336, Note_on_c, 0, 60, 0
1, 30336, Note_on_c, 0, 65, 0
1, 30360, Note_on_c, 0, 64, 80
1, 30360, Note_on_c, 0, 55, 67
1, 30456, Note_on_c, 0, 55, 0
1, 30456, Note_on_c, 0, 64, 0
1, 30480, Note_on_c, 0, 48, 47
1, 30600, Note_on_c, 0, 67, 80
1, 30672, Note_on_c, 0, 48, 0
1, 30696, Note_on_c, 0, 67, 0
1, 30720, Note_on_c, 0, 72, 71
1, 30720, Note_on_c, 0, 52, 66
1, 30720, Note_on_c, 0, 48, 60
1, 30744, Note_on_c, 0, 72, 0
1, 30750, Note_on_c, 0, 71, 42
1, 30774, Note_on_c, 0, 71, 0
1, 30780, Note_on_c, 0, 72, 81
1, 30804, Note_on_c, 0, 72, 0
1, 30810, Note_on_c, 0, 74, 71
1, 30816, Note_on_c, 0, 48, 0
1, 30816, Note_on_c, 0, 52, 0
1, 30834, Note_on_c, 0, 74, 0
1, 30840, Note_on_c, 0, 76, 71
1, 30936, Note_on_c, 0, 76, 0
1, 30960, Note_on_c, 0, 52, 44
1, 30960, Note_on_c, 0, 48, 69
1, 30960, Note_on_c, 0, 76, 61
1, 30984, Note_on_c, 0, 76, 0
1, 30990, Note_on_c, 0, 74, 54
1, 31014, Note_on_c, 0, 74, 0
1, 31020, Note_on_c, 0, 76, 77
1, 31044, Note_on_c, 0, 76, 0
1, 31050, Note_on_c, 0, 77, 75
1, 31056, Note_on_c, 0, 48, 0
1, 31056, Note_on_c, 0, 52, 0
1, 31074, Note_on_c, 0, 77, 0
1, 31080, Note_on_c, 0, 79, 45
1, 31176, Note_on_c, 0, 79, 0
1, 31200, Note_on_c, 0, 79, 65
1, 31200, Note_on_c, 0, 76, 86
1, 31260, Note_on_c, 0, 48, 77
1, 31308, Note_on_c, 0, 48, 0
1, 31320, Note_on_c, 0, 52, 83
1, 31344, Note_on_c, 0, 76, 0
1, 31344, Note_on_c, 0, 79, 0
1, 31368, Note_on_c, 0, 52, 0
1, 31380, Note_on_c, 0, 55, 77
1, 31380, Note_on_c, 0, 74, 81
1, 31380, Note_on_c, 0, 77, 80
1, 31428, Note_on_c, 0, 77, 0
1, 31428, Note_on_c, 0, 74, 0
1, 31428, Note_on_c, 0, 55, 0
1, 31440, Note_on_c, 0, 60, 80
1, 31440, Note_on_c, 0, 72, 47
1, 31440, Note_on_c, 0, 76, 50
1, 31536, Note_on_c, 0, 76, 0
1, 31536, Note_on_c, 0, 72, 0
1, 31560, Note_on_c, 0, 84, 58
1, 31608, Note_on_c, 0, 84, 0
1, 31620, Note_on_c, 0, 83, 71
1, 31632, Note_on_c, 0, 60, 0
1, 31668, Note_on_c, 0, 83, 0
1, 31680, Note_on_c, 0, 83, 42
1, 31680, Note_on_c, 0, 65, 54
1, 31680, Note_on_c, 0, 55, 64
1, 31692, Note_on_c, 0, 83, 0
1, 31695, Note_on_c, 0, 81, 50
1, 31707, Note_on_c, 0, 81, 0
1, 31710, Note_on_c, 0, 83, 29
1, 31722, Note_on_c, 0, 83, 0
1, 31725, Note_on_c, 0, 81, 52
1, 31737, Note_on_c, 0, 81, 0
1, 31740, Note_on_c, 0, 83, 43
1, 31752, Note_on_c, 0, 83, 0
1, 31755, Note_on_c, 0, 81, 43
1, 31767, Note_on_c, 0, 81, 0
1, 31770, Note_on_c, 0, 83, 47
1, 31776, Note_on_c, 0, 65, 0
1, 31782, Note_on_c, 0, 83, 0
1, 31785, Note_on_c, 0, 81, 83
1, 31797, Note_on_c, 0, 81, 0
1, 31800, Note_on_c, 0, 64, 69
1, 31800, Note_on_c, 0, 79, 69
1, 31896, Note_on_c, 0, 79, 0
1, 31896, Note_on_c, 0, 64, 0
1, 31896, Note_on_c, 0, 55, 0
1, 31920, Note_on_c, 0, 55, 61
1, 31920, Note_on_c, 0, 62, 56
1, 31920, Note_on_c, 0, 79, 44
1, 31932, Note_on_c, 0, 79, 0
1, 31935, Note_on_c, 0, 77, 42
1, 31947, Note_on_c, 0, 77, 0
1, 31950, Note_on_c, 0, 79, 50
1, 31962, Note_on_c, 0, 79, 0
1, 31965, Note_on_c, 0, 77, 61
1, 31977, Note_on_c, 0, 77, 0
1, 31980, Note_on_c, 0, 79, 52
1, 31992, Note_on_c, 0, 79, 0
1, 31995, Note_on_c, 0, 77, 54
1, 32007, Note_on_c, 0, 77, 0
1, 32010, Note_on_c, 0, 79, 42
1, 32016, Note_on_c, 0, 62, 0
1, 32022, Note_on_c, 0, 79, 0
1, 32025, Note_on_c, 0, 77, 44
1, 32037, Note_on_c, 0, 77, 0
1, 32040, Note_on_c, 0, 60, 45
1, 32040, Note_on_c, 0, 76, 61
1, 32136, Note_on_c, 0, 76, 0
1, 32136, Note_on_c, 0, 55, 0
1, 32136, Note_on_c, 0, 60, 0
1, 32160, Note_on_c, 0, 60, 54
1, 32160, Note_on_c, 0, 55, 47
1, 32160, Note_on_c, 0, 77, 61
1, 32172, Note_on_c, 0, 77, 0
1, 32175, Note_on_c, 0, 76, 89
1, 32187, Note_on_c, 0, 76, 0
1, 32190, Note_on_c, 0, 77, 89
1, 32202, Note_on_c, 0, 77, 0
1, 32205, Note_on_c, 0, 76, 89
1, 32217, Note_on_c, 0, 76, 0
1, 32220, Note_on_c, 0, 77, 61
1, 32232, Note_on_c, 0, 77, 0
1, 32235, Note_on_c, 0, 76, 52
1, 32247, Note_on_c, 0, 76, 0
1, 32250, Note_on_c, 0, 77, 54
1, 32256, Note_on_c, 0, 60, 0
1, 32262, Note_on_c, 0, 77, 0
1, 32265, Note_on_c, 0, 76, 71
1, 32277, Note_on_c, 0, 76, 0
1, 32280, Note_on_c, 0, 59, 56
1, 32280, Note_on_c, 0, 74, 61
1, 32376, Note_on_c, 0, 74, 0
1, 32376, Note_on_c, 0, 59, 0
1, 32376, Note_on_c, 0, 55, 0
1, 32520, Note_on_c, 0, 67, 43
1, 32616, Note_on_c, 0, 67, 0
1, 32640, Note_on_c, 0, 72, 66
1, 32664, Note_on_c, 0, 72, 0
1, 32670, Note_on_c, 0, 71, 71
1, 32694, Note_on_c, 0, 71, 0
1, 32700, Note_on_c, 0, 72, 83
1, 32724, Note_on_c, 0, 72, 0
1, 32730, Note_on_c, 0, 74, 66
1, 32754, Note_on_c, 0, 74, 0
1, 32760, Note_on_c, 0, 76, 66
1, 32760, Note_on_c, 0, 48, 89
1, 32760, Note_on_c, 0, 55, 42
1, 32856, Note_on_c, 0, 55, 0
1, 32856, Note_on_c, 0, 48, 0
1, 32856, Note_on_c, 0, 76, 0
1, 32880, Note_on_c, 0, 55, 66
1, 32880, Note_on_c, 0, 48, 53
1, 32976, Note_on_c, 0, 48, 0
1, 32976, Note_on_c, 0, 55, 0
1, 33000, Note_on_c, 0, 55, 54
1, 33000, Note_on_c, 0, 48, 74
1, 33000, Note_on_c, 0, 76, 71
1, 33096, Note_on_c, 0, 76, 0
1, 33096, Note_on_c, 0, 48, 0
1, 33096, Note_on_c, 0, 55, 0
1, 33120, Note_on_c, 0, 77, 42
1, 33144, Note_on_c, 0, 77, 0
1, 33150, Note_on_c, 0, 76, 83
1, 33174, Note_on_c, 0, 76, 0
1, 33180, Note_on_c, 0, 74, 83
1, 33204, Note_on_c, 0, 74, 0
1, 33210, Note_on_c, 0, 76, 83
1, 33234, Note_on_c, 0, 76, 0
1, 33240, Note_on_c, 0, 74, 81
1, 33240, Note_on_c, 0, 55, 50
1, 33240, Note_on_c, 0, 47, 50
1, 33336, Note_on_c, 0, 47, 0
1, 33336, Note_on_c, 0, 55, 0
1, 33336, Note_on_c, 0, 74, 0
1, 33360, Note_on_c, 0, 47, 61
1, 33360, Note_on_c, 0, 55, 47
1, 33456, Note_on_c, 0, 55, 0
1, 33456, Note_on_c, 0, 47, 0
1, 33480, Note_on_c, 0, 55, 45
1, 33480, Note_on_c, 0, 47, 56
1, 33480, Note_on_c, 0, 67, 57
1, 33576, Note_on_c, 0, 67, 0
1, 33576, Note_on_c, 0, 47, 0
1, 33576, Note_on_c, 0, 55, 0
1, 33600, Note_on_c, 0, 74, 95
1, 33624, Note_on_c, 0, 74, 0
1, 33630, Note_on_c, 0, 72, 71
1, 33654, Note_on_c, 0, 72, 0
1, 33660, Note_on_c, 0, 74, 54
1, 33684, Note_on_c, 0, 74, 0
1, 33690, Note_on_c, 0, 76, 77
1, 33714, Note_on_c, 0, 76, 0
1, 33720, Note_on_c, 0, 77, 47
1, 33720, Note_on_c, 0, 47, 61
1, 33720, Note_on_c, 0, 55, 53
1, 33816, Note_on_c, 0, 55, 0
1, 33816, Note_on_c, 0, 47, 0
1, 33816, Note_on_c, 0, 77, 0
1, 33840, Note_on_c, 0, 47, 45
1, 33840, Note_on_c, 0, 55, 42
1, 33936, Note_on_c, 0, 55, 0
1, 33936, Note_on_c, 0, 47, 0
1, 33960, Note_on_c, 0, 55, 42
1, 33960, Note_on_c, 0, 47, 60
1, 33960, Note_on_c, 0, 74, 77
1, 34056, Note_on_c, 0, 74, 0
1, 34056, Note_on_c, 0, 47, 0
1, 34056, Note_on_c, 0, 55, 0
1, 34080, Note_on_c, 0, 76, 77
1, 34104, Note_on_c, 0, 76, 0
1, 34110, Note_on_c, 0, 74, 83
1, 34134, Note_on_c, 0, 74, 0
1, 34140, Note_on_c, 0, 76, 77
1, 34164, Note_on_c, 0, 76, 0
1, 34170, Note_on_c, 0, 77, 71
1, 34194, Note_on_c, 0, 77, 0
1, 34200, Note_on_c, 0, 52, 54
1, 34200, Note_on_c, 0, 79, 42
1, 34200, Note_on_c, 0, 48, 42
1, 34296, Note_on_c, 0, 48, 0
1, 34296, Note_on_c, 0, 79, 0
1, 34296, Note_on_c, 0, 52, 0
1, 34320, Note_on_c, 0, 52, 50
1, 34320, Note_on_c, 0, 48, 42
1, 34416, Note_on_c, 0, 48, 0
1, 34416, Note_on_c, 0, 52, 0
1, 34440, Note_on_c, 0, 52, 66
1, 34440, Note_on_c, 0, 48, 42
1, 34440, Note_on_c, 0, 67, 71
1, 34488, Note_on_c, 0, 67, 0
1, 34500, Note_on_c, 0, 72, 66
1, 34536, Note_on_c, 0, 48, 0
1, 34536, Note_on_c, 0, 52, 0
1, 34548, Note_on_c, 0, 72, 0
1, 34560, Note_on_c, 0, 71, 66
1, 34560, Note_on_c, 0, 53, 61
1, 34560, Note_on_c, 0, 48, 60
1, 34572, Note_on_c, 0, 71, 0
1, 34575, Note_on_c, 0, 69, 1
1, 34587, Note_on_c, 0, 69, 0
1, 34590, Note_on_c, 0, 71, 54
1, 34602, Note_on_c, 0, 71, 0
1, 34605, Note_on_c, 0, 69, 42
1, 34617, Note_on_c, 0, 69, 0
1, 34620, Note_on_c, 0, 71, 71
1, 34632, Note_on_c, 0, 71, 0
1, 34635, Note_on_c, 0, 69, 89
1, 34647, Note_on_c, 0, 69, 0
1, 34650, Note_on_c, 0, 71, 65
1, 34656, Note_on_c, 0, 53, 0
1, 34662, Note_on_c, 0, 71, 0
1, 34665, Note_on_c, 0, 69, 89
1, 34677, Note_on_c, 0, 69, 0
1, 34680, Note_on_c, 0, 52, 57
1, 34680, Note_on_c, 0, 67, 58
1, 34776, Note_on_c, 0, 67, 0
1, 34776, Note_on_c, 0, 52, 0
1, 34800, Note_on_c, 0, 53, 61
1, 34800, Note_on_c, 0, 69, 83
1, 34848, Note_on_c, 0, 69, 0
1, 34860, Note_on_c, 0, 72, 71
1, 34896, Note_on_c, 0, 53, 0
1, 34908, Note_on_c, 0, 72, 0
1, 34920, Note_on_c, 0, 50, 69
1, 34920, Note_on_c, 0, 71, 83
1, 34968, Note_on_c, 0, 71, 0
1, 34980, Note_on_c, 0, 74, 66
1, 35016, Note_on_c, 0, 48, 0
1, 35016, Note_on_c, 0, 50, 0
1, 35028, Note_on_c, 0, 74, 0
1, 35040, Note_on_c, 0, 52, 47
1, 35040, Note_on_c, 0, 48, 60
1, 35040, Note_on_c, 0, 72, 77
1, 35184, Note_on_c, 0, 72, 0
1, 35220, Note_on_c, 0, 76, 77
1, 35232, Note_on_c, 0, 48, 0
1, 35232, Note_on_c, 0, 52, 0
1, 35268, Note_on_c, 0, 76, 0
1, 35280, Note_on_c, 0, 72, 66
1, 35376, Note_on_c, 0, 72, 0
1, 35400, Note_on_c, 0, 52, 50
1, 35400, Note_on_c, 0, 64, 42
1, 35496, Note_on_c, 0, 64, 0
1, 35496, Note_on_c, 0, 52, 0
1, 35520, Note_on_c, 0, 67, 45
1, 35520, Note_on_c, 0, 55, 54
1, 35568, Note_on_c, 0, 55, 0
1, 35568, Note_on_c, 0, 67, 0
1, 35580, Note_on_c, 0, 65, 47
1, 35580, Note_on_c, 0, 53, 66
1, 35628, Note_on_c, 0, 53, 0
1, 35628, Note_on_c, 0, 65, 0
1, 35640, Note_on_c, 0, 52, 66
1, 35640, Note_on_c, 0, 64, 83
1, 35688, Note_on_c, 0, 64, 0
1, 35688, Note_on_c, 0, 52, 0
1, 35700, Note_on_c, 0, 62, 77
1, 35700, Note_on_c, 0, 50, 58
1, 35748, Note_on_c, 0, 50, 0
1, 35748, Note_on_c, 0, 62, 0
1, 35760, Note_on_c, 0, 55, 71
1, 35760, Note_on_c, 0, 67, 43
1, 35856, Note_on_c, 0, 67, 0
1, 35856, Note_on_c, 0, 55, 0
1, 35880, Note_on_c, 0, 55, 52
1, 35880, Note_on_c, 0, 67, 47
1, 35976, Note_on_c, 0, 67, 0
1, 35976, Note_on_c, 0, 55, 0
1, 36000, Note_on_c, 0, 60, 80
1, 36000, Note_on_c, 0, 48, 80
1, 36192, Note_on_c, 0, 48, 0
1, 36192, Note_on_c, 0, 60, 0
1, 36240, Note_on_c, 0, 67, 83
1, 36240, Note_on_c, 0, 47, 61
1, 36252, Note_on_c, 0, 67, 0
1, 36255, Note_on_c, 0, 65, 77
1, 36267, Note_on_c, 0, 65, 0
1, 36270, Note_on_c, 0, 67, 83
1, 36282, Note_on_c, 0, 67, 0
1, 36285, Note_on_c, 0, 65, 61
1, 36288, Note_on_c, 0, 47, 0
1, 36297, Note_on_c, 0, 65, 0
1, 36300, Note_on_c, 0, 67, 97
1, 36300, Note_on_c, 0, 55, 66
1, 36312, Note_on_c, 0, 67, 0
1, 36315, Note_on_c, 0, 65, 83
1, 36327, Note_on_c, 0, 65, 0
1, 36330, Note_on_c, 0, 67, 83
1, 36342, Note_on_c, 0, 67, 0
1, 36345, Note_on_c, 0, 65, 66
1, 36348, Note_on_c, 0, 55, 0
1, 36357, Note_on_c, 0, 65, 0
1, 36360, Note_on_c, 0, 67, 66
1, 36360, Note_on_c, 0, 47, 83
1, 36372, Note_on_c, 0, 67, 0
1, 36375, Note_on_c, 0, 65, 47
1, 36387, Note_on_c, 0, 65, 0
1, 36390, Note_on_c, 0, 67, 52
1, 36402, Note_on_c, 0, 67, 0
1, 36405, Note_on_c, 0, 65, 54
1, 36408, Note_on_c, 0, 47, 0
1, 36417, Note_on_c, 0, 65, 0
1, 36420, Note_on_c, 0, 67, 58
1, 36420, Note_on_c, 0, 55, 66
1, 36432, Note_on_c, 0, 67, 0
1, 36435, Note_on_c, 0, 65, 44
1, 36447, Note_on_c, 0, 65, 0
1, 36450, Note_on_c, 0, 67, 89
1, 36462, Note_on_c, 0, 67, 0
1, 36465, Note_on_c, 0, 65, 77
1, 36468, Note_on_c, 0, 55, 0
1, 36477, Note_on_c, 0, 65, 0
1, 36480, Note_on_c, 0, 64, 61
1, 36480, Note_on_c, 0, 48, 61
1, 36528, Note_on_c, 0, 48, 0
1, 36540, Note_on_c, 0, 55, 61
1, 36588, Note_on_c, 0, 55, 0
1, 36600, Note_on_c, 0, 48, 66
1, 36648, Note_on_c, 0, 48, 0
1, 36660, Note_on_c, 0, 55, 61
1, 36672, Note_on_c, 0, 64, 0
1, 36708, Note_on_c, 0, 55, 0
1, 36720, Note_on_c, 0, 47, 66
1, 36720, Note_on_c, 0, 67, 66
1, 36768, Note_on_c, 0, 67, 0
1, 36768, Note_on_c, 0, 47, 0
1, 36780, Note_on_c, 0, 55, 66
1, 36780, Note_on_c, 0, 71, 61
1, 36828, Note_on_c, 0, 71, 0
1, 36828, Note_on_c, 0, 55, 0
1, 36840, Note_on_c, 0, 47, 72
1, 36840, Note_on_c, 0, 74, 97
1, 36888, Note_on_c, 0, 74, 0
1, 36888, Note_on_c, 0, 47, 0
1, 36900, Note_on_c, 0, 55, 66
1, 36900, Note_on_c, 0, 77, 52
1, 36948, Note_on_c, 0, 77, 0
1, 36948, Note_on_c, 0, 55, 0
1, 36960, Note_on_c, 0, 76, 77
1, 36960, Note_on_c, 0, 48, 71
1, 37008, Note_on_c, 0, 48, 0
1, 37020, Note_on_c, 0, 55, 50
1, 37056, Note_on_c, 0, 76, 0
1, 37068, Note_on_c, 0, 55, 0
1, 37080, Note_on_c, 0, 48, 77
1, 37080, Note_on_c, 0, 72, 66
1, 37128, Note_on_c, 0, 48, 0
1, 37140, Note_on_c, 0, 55, 61
1, 37176, Note_on_c, 0, 72, 0
1, 37188, Note_on_c, 0, 55, 0
1, 37200, Note_on_c, 0, 47, 77
1, 37200, Note_on_c, 0, 79, 47
1, 37212, Note_on_c, 0, 79, 0
1, 37215, Note_on_c, 0, 77, 43
1, 37227, Note_on_c, 0, 77, 0
1, 37230, Note_on_c, 0, 79, 58
1, 37242, Note_on_c, 0, 79, 0
1, 37245, Note_on_c, 0, 77, 66
1, 37248, Note_on_c, 0, 47, 0
1, 37257, Note_on_c, 0, 77, 0
1, 37260, Note_on_c, 0, 55, 54
1, 37260, Note_on_c, 0, 79, 61
1, 37272, Note_on_c, 0, 79, 0
1, 37275, Note_on_c, 0, 77, 54
1, 37287, Note_on_c, 0, 77, 0
1, 37290, Note_on_c, 0, 79, 44
1, 37302, Note_on_c, 0, 79, 0
1, 37305, Note_on_c, 0, 77, 43
1, 37308, Note_on_c, 0, 55, 0
1, 37317, Note_on_c, 0, 77, 0
1, 37320, Note_on_c, 0, 47, 66
1, 37320, Note_on_c, 0, 79, 58
1, 37332, Note_on_c, 0, 79, 0
1, 37335, Note_on_c, 0, 77, 42
1, 37347, Note_on_c, 0, 77, 0
1, 37350, Note_on_c, 0, 79, 47
1, 37362, Note_on_c, 0, 79, 0
1, 37365, Note_on_c, 0, 77, 42
1, 37368, Note_on_c, 0, 47, 0
1, 37377, Note_on_c, 0, 77, 0
1, 37380, Note_on_c, 0, 55, 58
1, 37380, Note_on_c, 0, 79, 43
1, 37392, Note_on_c, 0, 79, 0
1, 37395, Note_on_c, 0, 77, 42
1, 37407, Note_on_c, 0, 77, 0
1, 37410, Note_on_c, 0, 79, 42
1, 37422, Note_on_c, 0, 79, 0
1, 37425, Note_on_c, 0, 77, 42
1, 37428, Note_on_c, 0, 55, 0
1, 37437, Note_on_c, 0, 77, 0
1, 37440, Note_on_c, 0, 76, 47
1, 37440, Note_on_c, 0, 48, 61
1, 37488, Note_on_c, 0, 48, 0
1, 37500, Note_on_c, 0, 55, 66
1, 37548, Note_on_c, 0, 55, 0
1, 37560, Note_on_c, 0, 48, 71
1, 37608, Note_on_c, 0, 48, 0
1, 37620, Note_on_c, 0, 55, 66
1, 37632, Note_on_c, 0, 76, 0
1, 37668, Note_on_c, 0, 55, 0
1, 37680, Note_on_c, 0, 47, 54
1, 37680, Note_on_c, 0, 86, 80
1, 37728, Note_on_c, 0, 47, 0
1, 37740, Note_on_c, 0, 55, 50
1, 37788, Note_on_c, 0, 55, 0
1, 37800, Note_on_c, 0, 47, 66
1, 37824, Note_on_c, 0, 86, 0
1, 37848, Note_on_c, 0, 47, 0
1, 37860, Note_on_c, 0, 55, 58
1, 37860, Note_on_c, 0, 77, 66
1, 37908, Note_on_c, 0, 77, 0
1, 37908, Note_on_c, 0, 55, 0
1, 37920, Note_on_c, 0, 48, 61
1, 37920, Note_on_c, 0, 76, 71
1, 37952, Note_on_c, 0, 76, 0
1, 37960, Note_on_c, 0, 74, 66
1, 37992, Note_on_c, 0, 74, 0
1, 38000, Note_on_c, 0, 72, 83
1, 38016, Note_on_c, 0, 48, 0
1, 38032, Note_on_c, 0, 72, 0
1, 38040, Note_on_c, 0, 81, 71
1, 38040, Note_on_c, 0, 53, 71
1, 38072, Note_on_c, 0, 81, 0
1, 38080, Note_on_c, 0, 79, 81
1, 38112, Note_on_c, 0, 79, 0
1, 38120, Note_on_c, 0, 77, 89
1, 38136, Note_on_c, 0, 53, 0
1, 38152, Note_on_c, 0, 77, 0
1, 38160, Note_on_c, 0, 55, 45
1, 38160, Note_on_c, 0, 76, 75
1, 38256, Note_on_c, 0, 76, 0
1, 38256, Note_on_c, 0, 55, 0
1, 38280, Note_on_c, 0, 43, 77
1, 38280, Note_on_c, 0, 76, 50
1, 38292, Note_on_c, 0, 76, 0
1, 38295, Note_on_c, 0, 74, 71
1, 38307, Note_on_c, 0, 74, 0
1, 38310, Note_on_c, 0, 76, 45
1, 38322, Note_on_c, 0, 76, 0
1, 38325, Note_on_c, 0, 74, 58
1, 38337, Note_on_c, 0, 74, 0
1, 38340, Note_on_c, 0, 76, 66
1, 38352, Note_on_c, 0, 76, 0
1, 38355, Note_on_c, 0, 74, 71
1, 38367, Note_on_c, 0, 74, 0
1, 38370, Note_on_c, 0, 76, 61
1, 38376, Note_on_c, 0, 43, 0
1, 38382, Note_on_c, 0, 76, 0
1, 38385, Note_on_c, 0, 74, 58
1, 38397, Note_on_c, 0, 74, 0
1, 38400, Note_on_c, 0, 48, 80
1, 38400, Note_on_c, 0, 72, 89
1, 38496, Note_on_c, 0, 48, 0
1, 38520, Note_on_c, 0, 43, 80
1, 38592, Note_on_c, 0, 72, 0
1, 38616, Note_on_c, 0, 43, 0
1, 38640, Note_on_c, 0, 36, 80
1, 38736, Note_on_c, 0, 36, 0
1, 38760, Note_on_c, 0, 62, 80
1, 38856, Note_on_c, 0, 62, 0
1, 38880, Note_on_c, 0, 67, 54
1, 38880, Note_on_c, 0, 59, 75
1, 38880, Note_on_c, 0, 55, 80
1, 38904, Note_on_c, 0, 67, 0
1, 38910, Note_on_c, 0, 66, 77
1, 38934, Note_on_c, 0, 66, 0
1, 38940, Note_on_c, 0, 67, 52
1, 38964, Note_on_c, 0, 67, 0
1, 38970, Note_on_c, 0, 69, 50
1, 38976, Note_on_c, 0, 55, 0
1, 38976, Note_on_c, 0, 59, 0
1, 38994, Note_on_c, 0, 69, 0
1, 39000, Note_on_c, 0, 71, 83
1, 39096, Note_on_c, 0, 71, 0
1, 39120, Note_on_c, 0, 55, 42
1, 39120, Note_on_c, 0, 59, 56
1, 39120, Note_on_c, 0, 71, 61
1, 39144, Note_on_c, 0, 71, 0
1, 39150, Note_on_c, 0, 69, 71
1, 39174, Note_on_c, 0, 69, 0
1, 39180, Note_on_c, 0, 71, 75
1, 39204, Note_on_c, 0, 71, 0
1, 39210, Note_on_c, 0, 72, 58
1, 39216, Note_on_c, 0, 59, 0
1, 39216, Note_on_c, 0, 55, 0
1, 39234, Note_on_c, 0, 72, 0
1, 39240, Note_on_c, 0, 74, 61
1, 39336, Note_on_c, 0, 74, 0
1, 39360, Note_on_c, 0, 74, 69
1, 39360, Note_on_c, 0, 71, 86
1, 39420, Note_on_c, 0, 43, 29
1, 39468, Note_on_c, 0, 43, 0
1, 39480, Note_on_c, 0, 47, 71
1, 39504, Note_on_c, 0, 71, 0
1, 39504, Note_on_c, 0, 74, 0
1, 39528, Note_on_c, 0, 47, 0
1, 39540, Note_on_c, 0, 50, 77
1, 39540, Note_on_c, 0, 72, 43
1, 39540, Note_on_c, 0, 69, 47
1, 39588, Note_on_c, 0, 69, 0
1, 39588, Note_on_c, 0, 72, 0
1, 39588, Note_on_c, 0, 50, 0
1, 39600, Note_on_c, 0, 55, 44
1, 39600, Note_on_c, 0, 71, 43
1, 39600, Note_on_c, 0, 67, 43
1, 39696, Note_on_c, 0, 67, 0
1, 39696, Note_on_c, 0, 71, 0
1, 39696, Note_on_c, 0, 55, 0
1, 39720, Note_on_c, 0, 59, 61
1, 39720, Note_on_c, 0, 62, 77
1, 39768, Note_on_c, 0, 62, 0
1, 39780, Note_on_c, 0, 67, 58
1, 39816, Note_on_c, 0, 59, 0
1, 39828, Note_on_c, 0, 67, 0
1, 39840, Note_on_c, 0, 60, 83
1, 39840, Note_on_c, 0, 64, 89
1, 39936, Note_on_c, 0, 64, 0
1, 39936, Note_on_c, 0, 60, 0
1, 39960, Note_on_c, 0, 62, 83
1, 39960, Note_on_c, 0, 59, 71
1, 40008, Note_on_c, 0, 62, 0
1, 40020, Note_on_c, 0, 67, 58
1, 40056, Note_on_c, 0, 59, 0
1, 40068, Note_on_c, 0, 67, 0
1, 40080, Note_on_c, 0, 57, 71
1, 40080, Note_on_c, 0, 62, 77
1, 40176, Note_on_c, 0, 62, 0
1, 40176, Note_on_c, 0, 57, 0
1, 40200, Note_on_c, 0, 50, 77
1, 40200, Note_on_c, 0, 60, 77
1, 40296, Note_on_c, 0, 60, 0
1, 40296, Note_on_c, 0, 50, 0
1, 40320, Note_on_c, 0, 55, 71
1, 40320, Note_on_c, 0, 59, 71
1, 40416, Note_on_c, 0, 55, 0
1, 40440, Note_on_c, 0, 50, 89
1, 40512, Note_on_c, 0, 59, 0
1, 40536, Note_on_c, 0, 50, 0
1, 40560, Note_on_c, 0, 43, 97
1, 40656, Note_on_c, 0, 43, 0
1, 40680, Note_on_c, 0, 64, 89
1, 40776, Note_on_c, 0, 64, 0
1, 40800, Note_on_c, 0, 69, 71
1, 40800, Note_on_c, 0, 57, 57
1, 40800, Note_on_c, 0, 60, 56
1, 40824, Note_on_c, 0, 69, 0
1, 40830, Note_on_c, 0, 68, 66
1, 40854, Note_on_c, 0, 68, 0
1, 40860, Note_on_c, 0, 69, 58
1, 40884, Note_on_c, 0, 69, 0
1, 40890, Note_on_c, 0, 71, 50
1, 40896, Note_on_c, 0, 60, 0
1, 40896, Note_on_c, 0, 57, 0
1, 40914, Note_on_c, 0, 71, 0
1, 40920, Note_on_c, 0, 72, 77
1, 41016, Note_on_c, 0, 72, 0
1, 41040, Note_on_c, 0, 57, 66
1, 41040, Note_on_c, 0, 60, 53
1, 41040, Note_on_c, 0, 72, 58
1, 41064, Note_on_c, 0, 72, 0
1, 41070, Note_on_c, 0, 71, 66
1, 41094, Note_on_c, 0, 71, 0
1, 41100, Note_on_c, 0, 72, 61
1, 41124, Note_on_c, 0, 72, 0
1, 41130, Note_on_c, 0, 74, 66
1, 41136, Note_on_c, 0, 60, 0
1, 41136, Note_on_c, 0, 57, 0
1, 41154, Note_on_c, 0, 74, 0
1, 41160, Note_on_c, 0, 76, 71
1, 41256, Note_on_c, 0, 76, 0
1, 41280, Note_on_c, 0, 76, 80
1, 41280, Note_on_c, 0, 72, 75
1, 41340, Note_on_c, 0, 45, 47
1, 41388, Note_on_c, 0, 45, 0
1, 41400, Note_on_c, 0, 48, 71
1, 41424, Note_on_c, 0, 72, 0
1, 41424, Note_on_c, 0, 76, 0
1, 41448, Note_on_c, 0, 48, 0
1, 41460, Note_on_c, 0, 74, 52
1, 41460, Note_on_c, 0, 71, 56
1, 41460, Note_on_c, 0, 52, 58
1, 41508, Note_on_c, 0, 52, 0
1, 41508, Note_on_c, 0, 71, 0
1, 41508, Note_on_c, 0, 74, 0
1, 41520, Note_on_c, 0, 57, 54
1, 41520, Note_on_c, 0, 69, 42
1, 41520, Note_on_c, 0, 72, 47
1, 41616, Note_on_c, 0, 72, 0
1, 41616, Note_on_c, 0, 69, 0
1, 41640, Note_on_c, 0, 76, 89
1, 41712, Note_on_c, 0, 57, 0
1, 41736, Note_on_c, 0, 76, 0
1, 41760, Note_on_c, 0, 77, 77
1, 41784, Note_on_c, 0, 77, 0
1, 41790, Note_on_c, 0, 76, 50
1, 41814, Note_on_c, 0, 76, 0
1, 41820, Note_on_c, 0, 77, 77
1, 41844, Note_on_c, 0, 77, 0
1, 41850, Note_on_c, 0, 79, 61
1, 41874, Note_on_c, 0, 79, 0
1, 41880, Note_on_c, 0, 81, 44
1, 41880, Note_on_c, 0, 57, 54
1, 41880, Note_on_c, 0, 50, 74
1, 41976, Note_on_c, 0, 50, 0
1, 41976, Note_on_c, 0, 57, 0
1, 41976, Note_on_c, 0, 81, 0
1, 42000, Note_on_c, 0, 50, 52
1, 42000, Note_on_c, 0, 57, 47
1, 42096, Note_on_c, 0, 57, 0
1, 42096, Note_on_c, 0, 50, 0
1, 42120, Note_on_c, 0, 50, 55
1, 42120, Note_on_c, 0, 57, 50
1, 42120, Note_on_c, 0, 77, 80
1, 42216, Note_on_c, 0, 77, 0
1, 42216, Note_on_c, 0, 57, 0
1, 42216, Note_on_c, 0, 50, 0
1, 42240, Note_on_c, 0, 76, 89
1, 42264, Note_on_c, 0, 76, 0
1, 42270, Note_on_c, 0, 74, 89
1, 42294, Note_on_c, 0, 74, 0
1, 42300, Note_on_c, 0, 72, 89
1, 42324, Note_on_c, 0, 72, 0
1, 42330, Note_on_c, 0, 74, 77
1, 42354, Note_on_c, 0, 74, 0
1, 42360, Note_on_c, 0, 72, 54
1, 42360, Note_on_c, 0, 57, 66
1, 42360, Note_on_c, 0, 60, 50
1, 42456, Note_on_c, 0, 60, 0
1, 42456, Note_on_c, 0, 57, 0
1, 42456, Note_on_c, 0, 72, 0
1, 42480, Note_on_c, 0, 57, 58
1, 42480, Note_on_c, 0, 60, 43
1, 42576, Note_on_c, 0, 60, 0
1, 42576, Note_on_c, 0, 57, 0
1, 42600, Note_on_c, 0, 57, 54
1, 42600, Note_on_c, 0, 60, 45
1, 42600, Note_on_c, 0, 72, 43
1, 42696, Note_on_c, 0, 72, 0
1, 42696, Note_on_c, 0, 60, 0
1, 42696, Note_on_c, 0, 57, 0
1, 42720, Note_on_c, 0, 71, 58
1, 42744, Note_on_c, 0, 71, 0
1, 42750, Note_on_c, 0, 69, 58
1, 42774, Note_on_c, 0, 69, 0
1, 42780, Note_on_c, 0, 71, 58
1, 42804, Note_on_c, 0, 71, 0
1, 42810, Note_on_c, 0, 72, 50
1, 42834, Note_on_c, 0, 72, 0
1, 42840, Note_on_c, 0, 74, 71
1, 42840, Note_on_c, 0, 59, 58
1, 42840, Note_on_c, 0, 52, 61
1, 42936, Note_on_c, 0, 52, 0
1, 42936, Note_on_c, 0, 59, 0
1, 42936, Note_on_c, 0, 74, 0
1, 42960, Note_on_c, 0, 59, 58
1, 42960, Note_on_c, 0, 52, 71
1, 43056, Note_on_c, 0, 52, 0
1, 43056, Note_on_c, 0, 59, 0
1, 43080, Note_on_c, 0, 56, 43
1, 43080, Note_on_c, 0, 52, 61
1, 43080, Note_on_c, 0, 71, 58
1, 43176, Note_on_c, 0, 71, 0
1, 43176, Note_on_c, 0, 52, 0
1, 43176, Note_on_c, 0, 56, 0
1, 43200, Note_on_c, 0, 74, 58
1, 43200, Note_on_c, 0, 57, 58
1, 43200, Note_on_c, 0, 52, 77
1, 43212, Note_on_c, 0, 74, 0
1, 43215, Note_on_c, 0, 72, 50
1, 43227, Note_on_c, 0, 72, 0
1, 43230, Note_on_c, 0, 74, 42
1, 43242, Note_on_c, 0, 74, 0
1, 43245, Note_on_c, 0, 72, 43
1, 43257, Note_on_c, 0, 72, 0
1, 43260, Note_on_c, 0, 74, 54
1, 43272, Note_on_c, 0, 74, 0
1, 43275, Note_on_c, 0, 72, 44
1, 43287, Note_on_c, 0, 72, 0
1, 43290, Note_on_c, 0, 74, 45
1, 43296, Note_on_c, 0, 57, 0
1, 43302, Note_on_c, 0, 74, 0
1, 43305, Note_on_c, 0, 72, 66
1, 43317, Note_on_c, 0, 72, 0
1, 43320, Note_on_c, 0, 56, 58
1, 43320, Note_on_c, 0, 71, 47
1, 43416, Note_on_c, 0, 71, 0
1, 43416, Note_on_c, 0, 52, 0
1, 43416, Note_on_c, 0, 56, 0
1, 43440, Note_on_c, 0, 76, 58
1, 43488, Note_on_c, 0, 76, 0
1, 43500, Note_on_c, 0, 71, 42
1, 43548, Note_on_c, 0, 71, 0
1, 43560, Note_on_c, 0, 62, 80
1, 43560, Note_on_c, 0, 68, 71
1, 43608, Note_on_c, 0, 68, 0
1, 43620, Note_on_c, 0, 64, 77
1, 43656, Note_on_c, 0, 62, 0
1, 43668, Note_on_c, 0, 64, 0
1, 43680, Note_on_c, 0, 60, 61
1, 43680, Note_on_c, 0, 69, 77
1, 43704, Note_on_c, 0, 69, 0
1, 43710, Note_on_c, 0, 68, 83
1, 43734, Note_on_c, 0, 68, 0
1, 43740, Note_on_c, 0, 69, 81
1, 43764, Note_on_c, 0, 69, 0
1, 43770, Note_on_c, 0, 71, 61
1, 43776, Note_on_c, 0, 60, 0
1, 43794, Note_on_c, 0, 71, 0
1, 43800, Note_on_c, 0, 72, 81
1, 43800, Note_on_c, 0, 57, 83
1, 43896, Note_on_c, 0, 57, 0
1, 43896, Note_on_c, 0, 72, 0
1, 43920, Note_on_c, 0, 81, 58
1, 43968, Note_on_c, 0, 81, 0
1, 43980, Note_on_c, 0, 76, 71
1, 44028, Note_on_c, 0, 76, 0
1, 44040, Note_on_c, 0, 55, 61
1, 44040, Note_on_c, 0, 73, 106
1, 44088, Note_on_c, 0, 73, 0
1, 44100, Note_on_c, 0, 69, 77
1, 44136, Note_on_c, 0, 55, 0
1, 44148, Note_on_c, 0, 69, 0
1, 44160, Note_on_c, 0, 53, 58
1, 44160, Note_on_c, 0, 74, 71
1, 44184, Note_on_c, 0, 74, 0
1, 44190, Note_on_c, 0, 73, 77
1, 44214, Note_on_c, 0, 73, 0
1, 44220, Note_on_c, 0, 74, 71
1, 44244, Note_on_c, 0, 74, 0
1, 44250, Note_on_c, 0, 76, 71
1, 44256, Note_on_c, 0, 53, 0
1, 44274, Note_on_c, 0, 76, 0
1, 44280, Note_on_c, 0, 77, 44
1, 44280, Note_on_c, 0, 50, 83
1, 44376, Note_on_c, 0, 50, 0
1, 44376, Note_on_c, 0, 77, 0
1, 44400, Note_on_c, 0, 79, 43
1, 44448, Note_on_c, 0, 79, 0
1, 44460, Note_on_c, 0, 74, 42
1, 44508, Note_on_c, 0, 74, 0
1, 44520, Note_on_c, 0, 53, 71
1, 44520, Note_on_c, 0, 71, 45
1, 44568, Note_on_c, 0, 71, 0
1, 44580, Note_on_c, 0, 67, 89
1, 44616, Note_on_c, 0, 53, 0
1, 44628, Note_on_c, 0, 67, 0
1, 44640, Note_on_c, 0, 72, 80
1, 44640, Note_on_c, 0, 52, 80
1, 44664, Note_on_c, 0, 72, 0
1, 44670, Note_on_c, 0, 71, 80
1, 44694, Note_on_c, 0, 71, 0
1, 44700, Note_on_c, 0, 72, 80
1, 44724, Note_on_c, 0, 72, 0
1, 44730, Note_on_c, 0, 74, 80
1, 44736, Note_on_c, 0, 52, 0
1, 44754, Note_on_c, 0, 74, 0
1, 44760, Note_on_c, 0, 76, 89
1, 44760, Note_on_c, 0, 48, 80
1, 44856, Note_on_c, 0, 48, 0
1, 44856, Note_on_c, 0, 76, 0
1, 44880, Note_on_c, 0, 52, 41
1, 44880, Note_on_c, 0, 81, 42
1, 44892, Note_on_c, 0, 81, 0
1, 44895, Note_on_c, 0, 79, 66
1, 44907, Note_on_c, 0, 79, 0
1, 44910, Note_on_c, 0, 81, 44
1, 44922, Note_on_c, 0, 81, 0
1, 44925, Note_on_c, 0, 79, 54
1, 44928, Note_on_c, 0, 52, 0
1, 44937, Note_on_c, 0, 79, 0
1, 44940, Note_on_c, 0, 60, 66
1, 44940, Note_on_c, 0, 81, 42
1, 44952, Note_on_c, 0, 81, 0
1, 44955, Note_on_c, 0, 79, 1
1, 44967, Note_on_c, 0, 79, 0
1, 44970, Note_on_c, 0, 81, 42
1, 44982, Note_on_c, 0, 81, 0
1, 44985, Note_on_c, 0, 79, 42
1, 44988, Note_on_c, 0, 60, 0
1, 44997, Note_on_c, 0, 79, 0
1, 45000, Note_on_c, 0, 52, 89
1, 45000, Note_on_c, 0, 81, 61
1, 45012, Note_on_c, 0, 81, 0
1, 45015, Note_on_c, 0, 79, 44
1, 45027, Note_on_c, 0, 79, 0
1, 45030, Note_on_c, 0, 81, 45
1, 45042, Note_on_c, 0, 81, 0
1, 45045, Note_on_c, 0, 79, 43
1, 45048, Note_on_c, 0, 52, 0
1, 45057, Note_on_c, 0, 79, 0
1, 45060, Note_on_c, 0, 60, 54
1, 45060, Note_on_c, 0, 77, 66
1, 45084, Note_on_c, 0, 77, 0
1, 45090, Note_on_c, 0, 79, 42
1, 45108, Note_on_c, 0, 60, 0
1, 45114, Note_on_c, 0, 79, 0
1, 45120, Note_on_c, 0, 81, 42
1, 45120, Note_on_c, 0, 53, 71
1, 45168, Note_on_c, 0, 53, 0
1, 45180, Note_on_c, 0, 60, 61
1, 45228, Note_on_c, 0, 60, 0
1, 45240, Note_on_c, 0, 53, 66
1, 45288, Note_on_c, 0, 53, 0
1, 45300, Note_on_c, 0, 60, 54
1, 45312, Note_on_c, 0, 81, 0
1, 45348, Note_on_c, 0, 60, 0
1, 45360, Note_on_c, 0, 54, 45
1, 45360, Note_on_c, 0, 74, 58
1, 45372, Note_on_c, 0, 74, 0
1, 45375, Note_on_c, 0, 72, 75
1, 45387, Note_on_c, 0, 72, 0
1, 45390, Note_on_c, 0, 74, 58
1, 45402, Note_on_c, 0, 74, 0
1, 45405, Note_on_c, 0, 72, 58
1, 45408, Note_on_c, 0, 54, 0
1, 45417, Note_on_c, 0, 72, 0
1, 45420, Note_on_c, 0, 57, 71
1, 45420, Note_on_c, 0, 74, 43
1, 45432, Note_on_c, 0, 74, 0
1, 45435, Note_on_c, 0, 72, 58
1, 45447, Note_on_c, 0, 72, 0
1, 45450, Note_on_c, 0, 74, 42
1, 45462, Note_on_c, 0, 74, 0
1, 45465, Note_on_c, 0, 72, 50
1, 45468, Note_on_c, 0, 57, 0
1, 45477, Note_on_c, 0, 72, 0
1, 45480, Note_on_c, 0, 54, 77
1, 45480, Note_on_c, 0, 74, 58
1, 45492, Note_on_c, 0, 74, 0
1, 45495, Note_on_c, 0, 72, 71
1, 45507, Note_on_c, 0, 72, 0
1, 45510, Note_on_c, 0, 74, 54
1, 45522, Note_on_c, 0, 74, 0
1, 45525, Note_on_c, 0, 72, 58
1, 45528, Note_on_c, 0, 54, 0
1, 45537, Note_on_c, 0, 72, 0
1, 45540, Note_on_c, 0, 57, 58
1, 45540, Note_on_c, 0, 74, 61
1, 45552, Note_on_c, 0, 74, 0
1, 45555, Note_on_c, 0, 72, 61
1, 45567, Note_on_c, 0, 72, 0
1, 45570, Note_on_c, 0, 74, 43
1, 45582, Note_on_c, 0, 74, 0
1, 45585, Note_on_c, 0, 72, 65
1, 45588, Note_on_c, 0, 57, 0
1, 45597, Note_on_c, 0, 72, 0
1, 45600, Note_on_c, 0, 71, 54
1, 45600, Note_on_c, 0, 55, 61
1, 45632, Note_on_c, 0, 71, 0
1, 45640, Note_on_c, 0, 72, 54
1, 45672, Note_on_c, 0, 72, 0
1, 45680, Note_on_c, 0, 74, 71
1, 45696, Note_on_c, 0, 55, 0
1, 45712, Note_on_c, 0, 74, 0
1, 45720, Note_on_c, 0, 67, 47
1, 45720, Note_on_c, 0, 43, 83
1, 45816, Note_on_c, 0, 43, 0
1, 45816, Note_on_c, 0, 67, 0
1, 45840, Note_on_c, 0, 52, 58
1, 45840, Note_on_c, 0, 81, 42
1, 45852, Note_on_c, 0, 81, 0
1, 45855, Note_on_c, 0, 79, 66
1, 45867, Note_on_c, 0, 79, 0
1, 45870, Note_on_c, 0, 81, 44
1, 45882, Note_on_c, 0, 81, 0
1, 45885, Note_on_c, 0, 79, 54
1, 45888, Note_on_c, 0, 52, 0
1, 45897, Note_on_c, 0, 79, 0
1, 45900, Note_on_c, 0, 60, 54
1, 45900, Note_on_c, 0, 81, 42
1, 45912, Note_on_c, 0, 81, 0
1, 45915, Note_on_c, 0, 79, 1
1, 45927, Note_on_c, 0, 79, 0
1, 45930, Note_on_c, 0, 81, 42
1, 45942, Note_on_c, 0, 81, 0
1, 45945, Note_on_c, 0, 79, 42
1, 45948, Note_on_c, 0, 60, 0
1, 45957, Note_on_c, 0, 79, 0
1, 45960, Note_on_c, 0, 52, 66
1, 45960, Note_on_c, 0, 81, 61
1, 45972, Note_on_c, 0, 81, 0
1, 45975, Note_on_c, 0, 79, 44
1, 45987, Note_on_c, 0, 79, 0
1, 45990, Note_on_c, 0, 81, 45
1, 46002, Note_on_c, 0, 81, 0
1, 46005, Note_on_c, 0, 79, 43
1, 46008, Note_on_c, 0, 52, 0
1, 46017, Note_on_c, 0, 79, 0
1, 46020, Note_on_c, 0, 60, 58
1, 46020, Note_on_c, 0, 77, 66
1, 46044, Note_on_c, 0, 77, 0
1, 46050, Note_on_c, 0, 79, 42
1, 46068, Note_on_c, 0, 60, 0
1, 46074, Note_on_c, 0, 79, 0
1, 46080, Note_on_c, 0, 81, 80
1, 46080, Note_on_c, 0, 53, 66
1, 46128, Note_on_c, 0, 53, 0
1, 46140, Note_on_c, 0, 60, 47
1, 46188, Note_on_c, 0, 60, 0
1, 46200, Note_on_c, 0, 53, 77
1, 46224, Note_on_c, 0, 81, 0
1, 46248, Note_on_c, 0, 53, 0
1, 46260, Note_on_c, 0, 83, 80
1, 46260, Note_on_c, 0, 60, 54
1, 46308, Note_on_c, 0, 60, 0
1, 46308, Note_on_c, 0, 83, 0
1, 46320, Note_on_c, 0, 54, 58
1, 46320, Note_on_c, 0, 84, 80
1, 46368, Note_on_c, 0, 54, 0
1, 46380, Note_on_c, 0, 60, 71
1, 46416, Note_on_c, 0, 84, 0
1, 46428, Note_on_c, 0, 60, 0
1, 46440, Note_on_c, 0, 54, 58
1, 46440, Note_on_c, 0, 76, 83
1, 46488, Note_on_c, 0, 54, 0
1, 46500, Note_on_c, 0, 60, 61
1, 46536, Note_on_c, 0, 76, 0
1, 46548, Note_on_c, 0, 60, 0
1, 46560, Note_on_c, 0, 55, 65
1, 46560, Note_on_c, 0, 60, 69
1, 46560, Note_on_c, 0, 77, 29
1, 46572, Note_on_c, 0, 77, 0
1, 46575, Note_on_c, 0, 76, 50
1, 46587, Note_on_c, 0, 76, 0
1, 46590, Note_on_c, 0, 77, 50
1, 46602, Note_on_c, 0, 77, 0
1, 46605, Note_on_c, 0, 76, 46
1, 46617, Note_on_c, 0, 76, 0
1, 46620, Note_on_c, 0, 77, 42
1, 46632, Note_on_c, 0, 77, 0
1, 46635, Note_on_c, 0, 76, 47
1, 46647, Note_on_c, 0, 76, 0
1, 46650, Note_on_c, 0, 77, 66
1, 46656, Note_on_c, 0, 60, 0
1, 46662, Note_on_c, 0, 77, 0
1, 46665, Note_on_c, 0, 76, 75
1, 46677, Note_on_c, 0, 76, 0
1, 46680, Note_on_c, 0, 59, 57
1, 46680, Note_on_c, 0, 74, 71
1, 46776, Note_on_c, 0, 74, 0
1, 46776, Note_on_c, 0, 59, 0
1, 46776, Note_on_c, 0, 55, 0
1, 46920, Note_on_c, 0, 67, 61
1, 47016, Note_on_c, 0, 67, 0
1, 47040, Note_on_c, 0, 48, 80
1, 47040, Note_on_c, 0, 52, 80
1, 47040, Note_on_c, 0, 72, 71
1, 47064, Note_on_c, 0, 72, 0
1, 47070, Note_on_c, 0, 71, 42
1, 47094, Note_on_c, 0, 71, 0
1, 47100, Note_on_c, 0, 72, 81
1, 47124, Note_on_c, 0, 72, 0
1, 47130, Note_on_c, 0, 74, 71
1, 47136, Note_on_c, 0, 52, 0
1, 47136, Note_on_c, 0, 48, 0
1, 47154, Note_on_c, 0, 74, 0
1, 47160, Note_on_c, 0, 76, 71
1, 47256, Note_on_c, 0, 76, 0
1, 47280, Note_on_c, 0, 52, 81
1, 47280, Note_on_c, 0, 48, 86
1, 47280, Note_on_c, 0, 76, 61
1, 47304, Note_on_c, 0, 76, 0
1, 47310, Note_on_c, 0, 74, 54
1, 47334, Note_on_c, 0, 74, 0
1, 47340, Note_on_c, 0, 76, 77
1, 47364, Note_on_c, 0, 76, 0
1, 47370, Note_on_c, 0, 77, 75
1, 47376, Note_on_c, 0, 48, 0
1, 47376, Note_on_c, 0, 52, 0
1, 47394, Note_on_c, 0, 77, 0
1, 47400, Note_on_c, 0, 79, 45
1, 47496, Note_on_c, 0, 79, 0
1, 47520, Note_on_c, 0, 79, 65
1, 47520, Note_on_c, 0, 76, 86
1, 47580, Note_on_c, 0, 48, 47
1, 47628, Note_on_c, 0, 48, 0
1, 47640, Note_on_c, 0, 52, 52
1, 47664, Note_on_c, 0, 76, 0
1, 47664, Note_on_c, 0, 79, 0
1, 47688, Note_on_c, 0, 52, 0
1, 47700, Note_on_c, 0, 55, 66
1, 47700, Note_on_c, 0, 74, 81
1, 47700, Note_on_c, 0, 77, 80
1, 47748, Note_on_c, 0, 77, 0
1, 47748, Note_on_c, 0, 74, 0
1, 47748, Note_on_c, 0, 55, 0
1, 47760, Note_on_c, 0, 60, 54
1, 47760, Note_on_c, 0, 72, 47
1, 47760, Note_on_c, 0, 76, 50
1, 47856, Note_on_c, 0, 76, 0
1, 47856, Note_on_c, 0, 72, 0
1, 47856, Note_on_c, 0, 60, 0
1, 47880, Note_on_c, 0, 64, 42
1, 47880, Note_on_c, 0, 67, 58
1, 47928, Note_on_c, 0, 67, 0
1, 47940, Note_on_c, 0, 72, 61
1, 47976, Note_on_c, 0, 64, 0
1, 47988, Note_on_c, 0, 72, 0
1, 48000, Note_on_c, 0, 65, 71
1, 48000, Note_on_c, 0, 69, 71
1, 48096, Note_on_c, 0, 69, 0
1, 48096, Note_on_c, 0, 65, 0
1, 48120, Note_on_c, 0, 67, 54
1, 48120, Note_on_c, 0, 64, 71
1, 48168, Note_on_c, 0, 67, 0
1, 48180, Note_on_c, 0, 72, 46
1, 48216, Note_on_c, 0, 64, 0
1, 48228, Note_on_c, 0, 72, 0
1, 48240, Note_on_c, 0, 62, 61
1, 48240, Note_on_c, 0, 67, 77
1, 48336, Note_on_c, 0, 67, 0
1, 48336, Note_on_c, 0, 62, 0
1, 48360, Note_on_c, 0, 55, 71
1, 48360, Note_on_c, 0, 65, 77
1, 48456, Note_on_c, 0, 65, 0
1, 48456, Note_on_c, 0, 55, 0
1, 48480, Note_on_c, 0, 65, 80
1, 48480, Note_on_c, 0, 60, 50
1, 48576, Note_on_c, 0, 60, 0
1, 48576, Note_on_c, 0, 65, 0
1, 48600, Note_on_c, 0, 64, 80
1, 48600, Note_on_c, 0, 55, 67
1, 48696, Note_on_c, 0, 55, 0
1, 48696, Note_on_c, 0, 64, 0
1, 48720, Note_on_c, 0, 48, 47
1, 48840, Note_on_c, 0, 67, 80
1, 48912, Note_on_c, 0, 48, 0
1, 48936, Note_on_c, 0, 67, 0
1, 48960, Note_on_c, 0, 72, 71
1, 48960, Note_on_c, 0, 52, 66
1, 48960, Note_on_c, 0, 48, 60
1, 48984, Note_on_c, 0, 72, 0
1, 48990, Note_on_c, 0, 71, 42
1, 49014, Note_on_c, 0, 71, 0
1, 49020, Note_on_c, 0, 72, 81
1, 49044, Note_on_c, 0, 72, 0
1, 49050, Note_on_c, 0, 74, 71
1, 49056, Note_on_c, 0, 48, 0
1, 49056, Note_on_c, 0, 52, 0
1, 49074, Note_on_c, 0, 74, 0
1, 49080, Note_on_c, 0, 76, 71
1, 49176, Note_on_c, 0, 76, 0
1, 49200, Note_on_c, 0, 52, 44
1, 49200, Note_on_c, 0, 48, 69
1, 49200, Note_on_c, 0, 76, 61
1, 49224, Note_on_c, 0, 76, 0
1, 49230, Note_on_c, 0, 74, 54
1, 49254, Note_on_c, 0, 74, 0
1, 49260, Note_on_c, 0, 76, 77
1, 49284, Note_on_c, 0, 76, 0
1, 49290, Note_on_c, 0, 77, 75
1, 49296, Note_on_c, 0, 48, 0
1, 49296, Note_on_c, 0, 52, 0
1, 49314, Note_on_c, 0, 77, 0
1, 49320, Note_on_c, 0, 79, 45
1, 49416, Note_on_c, 0, 79, 0
1, 49440, Note_on_c, 0, 79, 65
1, 49440, Note_on_c, 0, 76, 86
1, 49500, Note_on_c, 0, 48, 77
1, 49548, Note_on_c, 0, 48, 0
1, 49560, Note_on_c, 0, 52, 83
1, 49584, Note_on_c, 0, 76, 0
1, 49584, Note_on_c, 0, 79, 0
1, 49608, Note_on_c, 0, 52, 0
1, 49620, Note_on_c, 0, 55, 77
1, 49620, Note_on_c, 0, 74, 81
1, 49620, Note_on_c, 0, 77, 80
1, 49668, Note_on_c, 0, 77, 0
1, 49668, Note_on_c, 0, 74, 0
1, 49668, Note_on_c, 0, 55, 0
1, 49680, Note_on_c, 0, 60, 80
1, 49680, Note_on_c, 0, 72, 47
1, 49680, Note_on_c, 0, 76, 50
1, 49776, Note_on_c, 0, 76, 0
1, 49776, Note_on_c, 0, 72, 0
1, 49800, Note_on_c, 0, 84, 58
1, 49848, Note_on_c, 0, 84, 0
1, 49860, Note_on_c, 0, 83, 71
1, 49872, Note_on_c, 0, 60, 0
1, 49908, Note_on_c, 0, 83, 0
1, 49920, Note_on_c, 0, 83, 42
1, 49920, Note_on_c, 0, 65, 54
1, 49920, Note_on_c, 0, 55, 64
1, 49932, Note_on_c, 0, 83, 0
1, 49935, Note_on_c, 0, 81, 50
1, 49947, Note_on_c, 0, 81, 0
1, 49950, Note_on_c, 0, 83, 29
1, 49962, Note_on_c, 0, 83, 0
1, 49965, Note_on_c, 0, 81, 52
1, 49977, Note_on_c, 0, 81, 0
1, 49980, Note_on_c, 0, 83, 43
1, 49992, Note_on_c, 0, 83, 0
1, 49995, Note_on_c, 0, 81, 43
1, 50007, Note_on_c, 0, 81, 0
1, 50010, Note_on_c, 0, 83, 47
1, 50016, Note_on_c, 0, 65, 0
1, 50022, Note_on_c, 0, 83, 0
1, 50025, Note_on_c, 0, 81, 83
1, 50037, Note_on_c, 0, 81, 0
1, 50040, Note_on_c, 0, 64, 69
1, 50040, Note_on_c, 0, 79, 69
1, 50136, Note_on_c, 0, 79, 0
1, 50136, Note_on_c, 0, 64, 0
1, 50136, Note_on_c, 0, 55, 0
1, 50160, Note_on_c, 0, 55, 61
1, 50160, Note_on_c, 0, 62, 56
1, 50160, Note_on_c, 0, 79, 44
1, 50172, Note_on_c, 0, 79, 0
1, 50175, Note_on_c, 0, 77, 42
1, 50187, Note_on_c, 0, 77, 0
1, 50190, Note_on_c, 0, 79, 50
1, 50202, Note_on_c, 0, 79, 0
1, 50205, Note_on_c, 0, 77, 61
1, 50217, Note_on_c, 0, 77, 0
1, 50220, Note_on_c, 0, 79, 52
1, 50232, Note_on_c, 0, 79, 0
1, 50235, Note_on_c, 0, 77, 54
1, 50247, Note_on_c, 0, 77, 0
1, 50250, Note_on_c, 0, 79, 42
1, 50256, Note_on_c, 0, 62, 0
1, 50262, Note_on_c, 0, 79, 0
1, 50265, Note_on_c, 0, 77, 44
1, 50277, Note_on_c, 0, 77, 0
1, 50280, Note_on_c, 0, 60, 45
1, 50280, Note_on_c, 0, 76, 61
1, 50376, Note_on_c, 0, 76, 0
1, 50376, Note_on_c, 0, 55, 0
1, 50376, Note_on_c, 0, 60, 0
1, 50400, Note_on_c, 0, 60, 54
1, 50400, Note_on_c, 0, 55, 47
1, 50400, Note_on_c, 0, 77, 61
1, 50412, Note_on_c, 0, 77, 0
1, 50415, Note_on_c, 0, 76, 89
1, 50427, Note_on_c, 0, 76, 0
1, 50430, Note_on_c, 0, 77, 89
1, 50442, Note_on_c, 0, 77, 0
1, 50445, Note_on_c, 0, 76, 89
1, 50457, Note_on_c, 0, 76, 0
1, 50460, Note_on_c, 0, 77, 61
1, 50472, Note_on_c, 0, 77, 0
1, 50475, Note_on_c, 0, 76, 52
1, 50487, Note_on_c, 0, 76, 0
1, 50490, Note_on_c, 0, 77, 54
1, 50496, Note_on_c, 0, 60, 0
1, 50502, Note_on_c, 0, 77, 0
1, 50505, Note_on_c, 0, 76, 71
1, 50517, Note_on_c, 0, 76, 0
1, 50520, Note_on_c, 0, 59, 56
1, 50520, Note_on_c, 0, 74, 61
1, 50616, Note_on_c, 0, 74, 0
1, 50616, Note_on_c, 0, 59, 0
1, 50616, Note_on_c, 0, 55, 0
1, 50760, Note_on_c, 0, 67, 43
1, 50856, Note_on_c, 0, 67, 0
1, 50880, Note_on_c, 0, 72, 66
1, 50904, Note_on_c, 0, 72, 0
1, 50910, Note_on_c, 0, 71, 71
1, 50934, Note_on_c, 0, 71, 0
1, 50940, Note_on_c, 0, 72, 83
1, 50964, Note_on_c, 0, 72, 0
1, 50970, Note_on_c, 0, 74, 66
1, 50994, Note_on_c, 0, 74, 0
1, 51000, Note_on_c, 0, 76, 66
1, 51000, Note_on_c, 0, 48, 89
1, 51000, Note_on_c, 0, 55, 42
1, 51096, Note_on_c, 0, 55, 0
1, 51096, Note_on_c, 0, 48, 0
1, 51096, Note_on_c, 0, 76, 0
1, 51120, Note_on_c, 0, 55, 66
1, 51120, Note_on_c, 0, 48, 53
1, 51216, Note_on_c, 0, 48, 0
1, 51216, Note_on_c, 0, 55, 0
1, 51240, Note_on_c, 0, 55, 54
1, 51240, Note_on_c, 0, 48, 74
1, 51240, Note_on_c, 0, 76, 71
1, 51336, Note_on_c, 0, 76, 0
1, 51336, Note_on_c, 0, 48, 0
1, 51336, Note_on_c, 0, 55, 0
1, 51360, Note_on_c, 0, 77, 42
1, 51384, Note_on_c, 0, 77, 0
1, 51390, Note_on_c, 0, 76, 83
1, 51414, Note_on_c, 0, 76, 0
1, 51420, Note_on_c, 0, 74, 83
1, 51444, Note_on_c, 0, 74, 0
1, 51450, Note_on_c, 0, 76, 83
1, 51474, Note_on_c, 0, 76, 0
1, 51480, Note_on_c, 0, 74, 81
1, 51480, Note_on_c, 0, 55, 50
1, 51480, Note_on_c, 0, 47, 50
1, 51576, Note_on_c, 0, 47, 0
1, 51576, Note_on_c, 0, 55, 0
1, 51576, Note_on_c, 0, 74, 0
1, 51600, Note_on_c, 0, 47, 61
1, 51600, Note_on_c, 0, 55, 47
1, 51696, Note_on_c, 0, 55, 0
1, 51696, Note_on_c, 0, 47, 0
1, 51720, Note_on_c, 0, 55, 45
1, 51720, Note_on_c, 0, 47, 56
1, 51720, Note_on_c, 0, 67, 57
1, 51816, Note_on_c, 0, 67, 0
1, 51816, Note_on_c, 0, 47, 0
1, 51816, Note_on_c, 0, 55, 0
1, 51840, Note_on_c, 0, 74, 95
1, 51864, Note_on_c, 0, 74, 0
1, 51870, Note_on_c, 0, 72, 71
1, 51894, Note_on_c, 0, 72, 0
1, 51900, Note_on_c, 0, 74, 54
1, 51924, Note_on_c, 0, 74, 0
1, 51930, Note_on_c, 0, 76, 77
1, 51954, Note_on_c, 0, 76, 0
1, 51960, Note_on_c, 0, 77, 47
1, 51960, Note_on_c, 0, 47, 61
1, 51960, Note_on_c, 0, 55, 53
1, 52056, Note_on_c, 0, 55, 0
1, 52056, Note_on_c, 0, 47, 0
1, 52056, Note_on_c, 0, 77, 0
1, 52080, Note_on_c, 0, 47, 45
1, 52080, Note_on_c, 0, 55, 42
1, 52176, Note_on_c, 0, 55, 0
1, 52176, Note_on_c, 0, 47, 0
1, 52200, Note_on_c, 0, 55, 42
1, 52200, Note_on_c, 0, 47, 60
1, 52200, Note_on_c, 0, 74, 77
1, 52296, Note_on_c, 0, 74, 0
1, 52296, Note_on_c, 0, 47, 0
1, 52296, Note_on_c, 0, 55, 0
1, 52320, Note_on_c, 0, 76, 77
1, 52344, Note_on_c, 0, 76, 0
1, 52350, Note_on_c, 0, 74, 83
1, 52374, Note_on_c, 0, 74, 0
1, 52380, Note_on_c, 0, 76, 77
1, 52404, Note_on_c, 0, 76, 0
1, 52410, Note_on_c, 0, 77, 71
1, 52434, Note_on_c, 0, 77, 0
1, 52440, Note_on_c, 0, 52, 54
1, 52440, Note_on_c, 0, 79, 42
1, 52440, Note_on_c, 0, 48, 42
1, 52536, Note_on_c, 0, 48, 0
1, 52536, Note_on_c, 0, 79, 0
1, 52536, Note_on_c, 0, 52, 0
1, 52560, Note_on_c, 0, 52, 50
1, 52560, Note_on_c, 0, 48, 42
1, 52656, Note_on_c, 0, 48, 0
1, 52656, Note_on_c, 0, 52, 0
1, 52680, Note_on_c, 0, 52, 66
1, 52680, Note_on_c, 0, 48, 42
1, 52680, Note_on_c, 0, 67, 71
1, 52728, Note_on_c, 0, 67, 0
1, 52740, Note_on_c, 0, 72, 66
1, 52776, Note_on_c, 0, 48, 0
1, 52776, Note_on_c, 0, 52, 0
1, 52788, Note_on_c, 0, 72, 0
1, 52800, Note_on_c, 0, 71, 66
1, 52800, Note_on_c, 0, 53, 61
1, 52800, Note_on_c, 0, 48, 60
1, 52812, Note_on_c, 0, 71, 0
1, 52815, Note_on_c, 0, 69, 1
1, 52827, Note_on_c, 0, 69, 0
1, 52830, Note_on_c, 0, 71, 54
1, 52842, Note_on_c, 0, 71, 0
1, 52845, Note_on_c, 0, 69, 42
1, 52857, Note_on_c, 0, 69, 0
1, 52860, Note_on_c, 0, 71, 71
1, 52872, Note_on_c, 0, 71, 0
1, 52875, Note_on_c, 0, 69, 89
1, 52887, Note_on_c, 0, 69, 0
1, 52890, Note_on_c, 0, 71, 65
1, 52896, Note_on_c, 0, 53, 0
1, 52902, Note_on_c, 0, 71, 0
1, 52905, Note_on_c, 0, 69, 89
1, 52917, Note_on_c, 0, 69, 0
1, 52920, Note_on_c, 0, 52, 57
1, 52920, Note_on_c, 0, 67, 58
1, 53016, Note_on_c, 0, 67, 0
1, 53016, Note_on_c, 0, 52, 0
1, 53040, Note_on_c, 0, 53, 61
1, 53040, Note_on_c, 0, 69, 83
1, 53088, Note_on_c, 0, 69, 0
1, 53100, Note_on_c, 0, 72, 71
1, 53136, Note_on_c, 0, 53, 0
1, 53148, Note_on_c, 0, 72, 0
1, 53160, Note_on_c, 0, 50, 69
1, 53160, Note_on_c, 0, 71, 83
1, 53208, Note_on_c, 0, 71, 0
1, 53220, Note_on_c, 0, 74, 66
1, 53256, Note_on_c, 0, 48, 0
1, 53256, Note_on_c, 0, 50, 0
1, 53268, Note_on_c, 0, 74, 0
1, 53280, Note_on_c, 0, 52, 47
1, 53280, Note_on_c, 0, 48, 60
1, 53280, Note_on_c, 0, 72, 77
1, 53424, Note_on_c, 0, 72, 0
1, 53460, Note_on_c, 0, 76, 77
1, 53472, Note_on_c, 0, 48, 0
1, 53472, Note_on_c, 0, 52, 0
1, 53508, Note_on_c, 0, 76, 0
1, 53520, Note_on_c, 0, 72, 66
1, 53616, Note_on_c, 0, 72, 0
1, 53640, Note_on_c, 0, 52, 50
1, 53640, Note_on_c, 0, 64, 42
1, 53736, Note_on_c, 0, 64, 0
1, 53736, Note_on_c, 0, 52, 0
1, 53760, Note_on_c, 0, 67, 45
1, 53760, Note_on_c, 0, 55, 54
1, 53808, Note_on_c, 0, 55, 0
1, 53808, Note_on_c, 0, 67, 0
1, 53820, Note_on_c, 0, 65, 47
1, 53820, Note_on_c, 0, 53, 66
1, 53868, Note_on_c, 0, 53, 0
1, 53868, Note_on_c, 0, 65, 0
1, 53880, Note_on_c, 0, 52, 66
1, 53880, Note_on_c, 0, 64, 83
1, 53928, Note_on_c, 0, 64, 0
1, 53928, Note_on_c, 0, 52, 0
1, 53940, Note_on_c, 0, 62, 77
1, 53940, Note_on_c, 0, 50, 58
1, 53988, Note_on_c, 0, 50, 0
1, 53988, Note_on_c, 0, 62, 0
1, 54000, Note_on_c, 0, 55, 71
1, 54000, Note_on_c, 0, 67, 43
1, 54096, Note_on_c, 0, 67, 0
1, 54096, Note_on_c, 0, 55, 0
1, 54120, Note_on_c, 0, 55, 52
1, 54120, Note_on_c, 0, 67, 47
1, 54216, Note_on_c, 0, 67, 0
1, 54216, Note_on_c, 0, 55, 0
1, 54240, Note_on_c, 0, 60, 80
1, 54240, Note_on_c, 0, 48, 80
1, 54432, Note_on_c, 0, 48, 0
1, 54432, Note_on_c, 0, 60, 0
1, 54480, Note_on_c, 0, 67, 83
1, 54480, Note_on_c, 0, 47, 61
1, 54492, Note_on_c, 0, 67, 0
1, 54495, Note_on_c, 0, 65, 77
1, 54507, Note_on_c, 0, 65, 0
1, 54510, Note_on_c, 0, 67, 83
1, 54522, Note_on_c, 0, 67, 0
1, 54525, Note_on_c, 0, 65, 61
1, 54528, Note_on_c, 0, 47, 0
1, 54537, Note_on_c, 0, 65, 0
1, 54540, Note_on_c, 0, 67, 97
1, 54540, Note_on_c, 0, 55, 66
1, 54552, Note_on_c, 0, 67, 0
1, 54555, Note_on_c, 0, 65, 83
1, 54567, Note_on_c, 0, 65, 0
1, 54570, Note_on_c, 0, 67, 83
1, 54582, Note_on_c, 0, 67, 0
1, 54585, Note_on_c, 0, 65, 66
1, 54588, Note_on_c, 0, 55, 0
1, 54597, Note_on_c, 0, 65, 0
1, 54600, Note_on_c, 0, 67, 66
1, 54600, Note_on_c, 0, 47, 83
1, 54612, Note_on_c, 0, 67, 0
1, 54615, Note_on_c, 0, 65, 47
1, 54627, Note_on_c, 0, 65, 0
1, 54630, Note_on_c, 0, 67, 52
1, 54642, Note_on_c, 0, 67, 0
1, 54645, Note_on_c, 0, 65, 54
1, 54648, Note_on_c, 0, 47, 0
1, 54657, Note_on_c, 0, 65, 0
1, 54660, Note_on_c, 0, 67, 58
1, 54660, Note_on_c, 0, 55, 66
1, 54672, Note_on_c, 0, 67, 0
1, 54675, Note_on_c, 0, 65, 44
1, 54687, Note_on_c, 0, 65, 0
1, 54690, Note_on_c, 0, 67, 89
1, 54702, Note_on_c, 0, 67, 0
1, 54705, Note_on_c, 0, 65, 77
1, 54708, Note_on_c, 0, 55, 0
1, 54717, Note_on_c, 0, 65, 0
1, 54720, Note_on_c, 0, 64, 61
1, 54720, Note_on_c, 0, 48, 61
1, 54768, Note_on_c, 0, 48, 0
1, 54780, Note_on_c, 0, 55, 61
1, 54828, Note_on_c, 0, 55, 0
1, 54840, Note_on_c, 0, 48, 66
1, 54888, Note_on_c, 0, 48, 0
1, 54900, Note_on_c, 0, 55, 61
1, 54912, Note_on_c, 0, 64, 0
1, 54948, Note_on_c, 0, 55, 0
1, 54960, Note_on_c, 0, 47, 66
1, 54960, Note_on_c, 0, 67, 66
1, 55008, Note_on_c, 0, 67, 0
1, 55008, Note_on_c, 0, 47, 0
1, 55020, Note_on_c, 0, 55, 66
1, 55020, Note_on_c, 0, 71, 61
1, 55068, Note_on_c, 0, 71, 0
1, 55068, Note_on_c, 0, 55, 0
1, 55080, Note_on_c, 0, 47, 72
1, 55080, Note_on_c, 0, 74, 97
1, 55128, Note_on_c, 0, 74, 0
1, 55128, Note_on_c, 0, 47, 0
1, 55140, Note_on_c, 0, 55, 66
1, 55140, Note_on_c, 0, 77, 52
1, 55188, Note_on_c, 0, 77, 0
1, 55188, Note_on_c, 0, 55, 0
1, 55200, Note_on_c, 0, 76, 77
1, 55200, Note_on_c, 0, 48, 71
1, 55248, Note_on_c, 0, 48, 0
1, 55260, Note_on_c, 0, 55, 50
1, 55296, Note_on_c, 0, 76, 0
1, 55308, Note_on_c, 0, 55, 0
1, 55320, Note_on_c, 0, 48, 77
1, 55320, Note_on_c, 0, 72, 66
1, 55368, Note_on_c, 0, 48, 0
1, 55380, Note_on_c, 0, 55, 61
1, 55416, Note_on_c, 0, 72, 0
1, 55428, Note_on_c, 0, 55, 0
1, 55440, Note_on_c, 0, 47, 77
1, 55440, Note_on_c, 0, 79, 47
1, 55452, Note_on_c, 0, 79, 0
1, 55455, Note_on_c, 0, 77, 43
1, 55467, Note_on_c, 0, 77, 0
1, 55470, Note_on_c, 0, 79, 58
1, 55482, Note_on_c, 0, 79, 0
1, 55485, Note_on_c, 0, 77, 66
1, 55488, Note_on_c, 0, 47, 0
1, 55497, Note_on_c, 0, 77, 0
1, 55500, Note_on_c, 0, 55, 54
1, 55500, Note_on_c, 0, 79, 61
1, 55512, Note_on_c, 0, 79, 0
1, 55515, Note_on_c, 0, 77, 54
1, 55527, Note_on_c, 0, 77, 0
1, 55530, Note_on_c, 0, 79, 44
1, 55542, Note_on_c, 0, 79, 0
1, 55545, Note_on_c, 0, 77, 43
1, 55548, Note_on_c, 0, 55, 0
1, 55557, Note_on_c, 0, 77, 0
1, 55560, Note_on_c, 0, 47, 66
1, 55560, Note_on_c, 0, 79, 58
1, 55572, Note_on_c, 0, 79, 0
1, 55575, Note_on_c, 0, 77, 42
1, 55587, Note_on_c, 0, 77, 0
1, 55590, Note_on_c, 0, 79, 47
1, 55602, Note_on_c, 0, 79, 0
1, 55605, Note_on_c, 0, 77, 42
1, 55608, Note_on_c, 0, 47, 0
1, 55617, Note_on_c, 0, 77, 0
1, 55620, Note_on_c, 0, 55, 58
1, 55620, Note_on_c, 0, 79, 43
1, 55632, Note_on_c, 0, 79, 0
1, 55635, Note_on_c, 0, 77, 42
1, 55647, Note_on_c, 0, 77, 0
1, 55650, Note_on_c, 0, 79, 42
1, 55662, Note_on_c, 0, 79, 0
1, 55665, Note_on_c, 0, 77, 42
1, 55668, Note_on_c, 0, 55, 0
1, 55677, Note_on_c, 0, 77, 0
1, 55680, Note_on_c, 0, 76, 47
1, 55680, Note_on_c, 0, 48, 61
1, 55728, Note_on_c, 0, 48, 0
1, 55740, Note_on_c, 0, 55, 66
1, 55788, Note_on_c, 0, 55, 0
1, 55800, Note_on_c, 0, 48, 71
1, 55848, Note_on_c, 0, 48, 0
1, 55860, Note_on_c, 0, 55, 66
1, 55872, Note_on_c, 0, 76, 0
1, 55908, Note_on_c, 0, 55, 0
1, 55920, Note_on_c, 0, 47, 54
1, 55920, Note_on_c, 0, 86, 80
1, 55968, Note_on_c, 0, 47, 0
1, 55980, Note_on_c, 0, 55, 50
1, 56028, Note_on_c, 0, 55, 0
1, 56040, Note_on_c, 0, 47, 66
1, 56064, Note_on_c, 0, 86, 0
1, 56088, Note_on_c, 0, 47, 0
1, 56100, Note_on_c, 0, 55, 58
1, 56100, Note_on_c, 0, 77, 66
1, 56148, Note_on_c, 0, 77, 0
1, 56148, Note_on_c, 0, 55, 0
1, 56160, Note_on_c, 0, 48, 61
1, 56160, Note_on_c, 0, 76, 71
1, 56192, Note_on_c, 0, 76, 0
1, 56200, Note_on_c, 0, 74, 66
1, 56232, Note_on_c, 0, 74, 0
1, 56240, Note_on_c, 0, 72, 83
1, 56256, Note_on_c, 0, 48, 0
1, 56272, Note_on_c, 0, 72, 0
1, 56280, Note_on_c, 0, 81, 71
1, 56280, Note_on_c, 0, 53, 71
1, 56312, Note_on_c, 0, 81, 0
1, 56320, Note_on_c, 0, 79, 81
1, 56352, Note_on_c, 0, 79, 0
1, 56360, Note_on_c, 0, 77, 89
1, 56376, Note_on_c, 0, 53, 0
1, 56392, Note_on_c, 0, 77, 0
1, 56400, Note_on_c, 0, 55, 45
1, 56400, Note_on_c, 0, 76, 75
1, 56496, Note_on_c, 0, 76, 0
1, 56496, Note_on_c, 0, 55, 0
1, 56520, Note_on_c, 0, 43, 77
1, 56520, Note_on_c, 0, 76, 50
1, 56532, Note_on_c, 0, 76, 0
1, 56535, Note_on_c, 0, 74, 71
1, 56547, Note_on_c, 0, 74, 0
1, 56550, Note_on_c, 0, 76, 45
1, 56562, Note_on_c, 0, 76, 0
1, 56565, Note_on_c, 0, 74, 58
1, 56577, Note_on_c, 0, 74, 0
1, 56580, Note_on_c, 0, 76, 66
1, 56592, Note_on_c, 0, 76, 0
1, 56595, Note_on_c, 0, 74, 71
1, 56607, Note_on_c, 0, 74, 0
1, 56610, Note_on_c, 0, 76, 61
1, 56616, Note_on_c, 0, 43, 0
1, 56622, Note_on_c, 0, 76, 0
1, 56625, Note_on_c, 0, 74, 58
1, 56637, Note_on_c, 0, 74, 0
1, 56640, Note_on_c, 0, 48, 80
1, 56640, Note_on_c, 0, 72, 89
1, 56736, Note_on_c, 0, 48, 0
1, 56760, Note_on_c, 0, 43, 80
1, 56832, Note_on_c, 0, 72, 0
1, 56856, Note_on_c, 0, 43, 0
1, 56880, Note_on_c, 0, 36, 80
1, 56976, Note_on_c, 0, 36, 0
1, 56986, End_track
0, 0, End_of_file