0, 0, Header, 0, 1, 240
1, 0, Start_track
1, 0, Tempo, 416667
1, 0, Note_on_c, 0, 60, 40
1, 0, Note_on_c, 0, 64, 42
1, 96, Note_on_c, 0, 64, 0
1, 96, Note_on_c, 0, 60, 0
1, 120, Note_on_c, 0, 60, 42
1, 120, Note_on_c, 0, 72, 66
1, 120, Note_on_c, 0, 64, 54
1, 216, Note_on_c, 0, 64, 0
1, 216, Note_on_c, 0, 72, 0
1, 216, Note_on_c, 0, 60, 0
1, 240, Note_on_c, 0, 76, 71
1, 240, Note_on_c, 0, 64, 47
1, 240, Note_on_c, 0, 60, 42
1, 288, Note_on_c, 0, 76, 0
1, 300, Note_on_c, 0, 72, 58
1, 336, Note_on_c, 0, 60, 0
1, 336, Note_on_c, 0, 64, 0
1, 348, Note_on_c, 0, 72, 0
1, 360, Note_on_c, 0, 79, 61
1, 360, Note_on_c, 0, 64, 47
1, 360, Note_on_c, 0, 60, 42
1, 408, Note_on_c, 0, 79, 0
1, 420, Note_on_c, 0, 76, 83
1, 456, Note_on_c, 0, 60, 0
1, 456, Note_on_c, 0, 64, 0
1, 468, Note_on_c, 0, 76, 0
1, 480, Note_on_c, 0, 60, 42
1, 480, Note_on_c, 0, 84, 71
1, 480, Note_on_c, 0, 64, 54
1, 576, Note_on_c, 0, 64, 0
1, 576, Note_on_c, 0, 60, 0
1, 600, Note_on_c, 0, 64, 61
1, 600, Note_on_c, 0, 60, 44
1, 624, Note_on_c, 0, 84, 0
1, 660, Note_on_c, 0, 79, 54
1, 696, Note_on_c, 0, 60, 0
1, 696, Note_on_c, 0, 64, 0
1, 708, Note_on_c, 0, 79, 0
1, 720, Note_on_c, 0, 81, 61
1, 720, Note_on_c, 0, 64, 58
1, 720, Note_on_c, 0, 60, 42
1, 732, Note_on_c, 0, 81, 0
1, 735, Note_on_c, 0, 79, 55
1, 747, Note_on_c, 0, 79, 0
1, 750, Note_on_c, 0, 81, 52
1, 762, Note_on_c, 0, 81, 0
1, 765, Note_on_c, 0, 79, 58
1, 777, Note_on_c, 0, 79, 0
1, 780, Note_on_c, 0, 81, 61
1, 792, Note_on_c, 0, 81, 0
1, 795, Note_on_c, 0, 79, 45
1, 807, Note_on_c, 0, 79, 0
1, 810, Note_on_c, 0, 81, 55
1, 816, Note_on_c, 0, 60, 0
1, 816, Note_on_c, 0, 64, 0
1, 822, Note_on_c, 0, 81, 0
1, 825, Note_on_c, 0, 79, 61
1, 837, Note_on_c, 0, 79, 0
1, 840, Note_on_c, 0, 81, 54
1, 840, Note_on_c, 0, 64, 57
1, 840, Note_on_c, 0, 60, 45
1, 852, Note_on_c, 0, 81, 0
1, 855, Note_on_c, 0, 79, 44
1, 867, Note_on_c, 0, 79, 0
1, 870, Note_on_c, 0, 81, 50
1, 882, Note_on_c, 0, 81, 0
1, 885, Note_on_c, 0, 79, 50
1, 897, Note_on_c, 0, 79, 0
1, 900, Note_on_c, 0, 81, 54
1, 912, Note_on_c, 0, 81, 0
1, 915, Note_on_c, 0, 79, 50
1, 927, Note_on_c, 0, 79, 0
1, 930, Note_on_c, 0, 81, 45
1, 936, Note_on_c, 0, 60, 0
1, 936, Note_on_c, 0, 64, 0
1, 942, Note_on_c, 0, 81, 0
1, 945, Note_on_c, 0, 79, 44
1, 957, Note_on_c, 0, 79, 0
1, 960, Note_on_c, 0, 60, 47
1, 960, Note_on_c, 0, 65, 45
1, 1056, Note_on_c, 0, 65, 0
1, 1056, Note_on_c, 0, 60, 0
1, 1080, Note_on_c, 0, 65, 47
1, 1080, Note_on_c, 0, 72, 77
1, 1080, Note_on_c, 0, 60, 48
1, 1176, Note_on_c, 0, 60, 0
1, 1176, Note_on_c, 0, 72, 0
1, 1176, Note_on_c, 0, 65, 0
1, 1200, Note_on_c, 0, 77, 71
1, 1200, Note_on_c, 0, 60, 50
1, 1200, Note_on_c, 0, 65, 47
1, 1248, Note_on_c, 0, 77, 0
1, 1260, Note_on_c, 0, 72, 71
1, 1296, Note_on_c, 0, 65, 0
1, 1296, Note_on_c, 0, 60, 0
1, 1308, Note_on_c, 0, 72, 0
1, 1320, Note_on_c, 0, 81, 54
1, 1320, Note_on_c, 0, 60, 43
1, 1320, Note_on_c, 0, 65, 45
1, 1368, Note_on_c, 0, 81, 0
1, 1380, Note_on_c, 0, 77, 50
1, 1416, Note_on_c, 0, 65, 0
1, 1416, Note_on_c, 0, 60, 0
1, 1428, Note_on_c, 0, 77, 0
1, 1440, Note_on_c, 0, 65, 61
1, 1440, Note_on_c, 0, 60, 60
1, 1440, Note_on_c, 0, 84, 114
1, 1536, Note_on_c, 0, 60, 0
1, 1536, Note_on_c, 0, 65, 0
1, 1560, Note_on_c, 0, 60, 56
1, 1560, Note_on_c, 0, 65, 58
1, 1584, Note_on_c, 0, 84, 0
1, 1620, Note_on_c, 0, 81, 89
1, 1656, Note_on_c, 0, 65, 0
1, 1656, Note_on_c, 0, 60, 0
1, 1668, Note_on_c, 0, 81, 0
1, 1680, Note_on_c, 0, 83, 52
1, 1680, Note_on_c, 0, 60, 66
1, 1680, Note_on_c, 0, 65, 56
1, 1692, Note_on_c, 0, 83, 0
1, 1695, Note_on_c, 0, 81, 61
1, 1707, Note_on_c, 0, 81, 0
1, 1710, Note_on_c, 0, 83, 50
1, 1722, Note_on_c, 0, 83, 0
1, 1725, Note_on_c, 0, 81, 42
1, 1737, Note_on_c, 0, 81, 0
1, 1740, Note_on_c, 0, 83, 50
1, 1752, Note_on_c, 0, 83, 0
1, 1755, Note_on_c, 0, 81, 52
1, 1767, Note_on_c, 0, 81, 0
1, 1770, Note_on_c, 0, 83, 45
1, 1776, Note_on_c, 0, 65, 0
1, 1776, Note_on_c, 0, 60, 0
1, 1782, Note_on_c, 0, 83, 0
1, 1785, Note_on_c, 0, 81, 61
1, 1797, Note_on_c, 0, 81, 0
1, 1800, Note_on_c, 0, 83, 58
1, 1800, Note_on_c, 0, 60, 58
1, 1800, Note_on_c, 0, 65, 48
1, 1812, Note_on_c, 0, 83, 0
1, 1815, Note_on_c, 0, 81, 61
1, 1827, Note_on_c, 0, 81, 0
1, 1830, Note_on_c, 0, 83, 66
1, 1842, Note_on_c, 0, 83, 0
1, 1845, Note_on_c, 0, 81, 52
1, 1857, Note_on_c, 0, 81, 0
1, 1860, Note_on_c, 0, 83, 42
1, 1872, Note_on_c, 0, 83, 0
1, 1875, Note_on_c, 0, 81, 42
1, 1887, Note_on_c, 0, 81, 0
1, 1890, Note_on_c, 0, 83, 50
1, 1896, Note_on_c, 0, 65, 0
1, 1896, Note_on_c, 0, 60, 0
1, 1902, Note_on_c, 0, 83, 0
1, 1905, Note_on_c, 0, 81, 71
1, 1917, Note_on_c, 0, 81, 0
1, 1920, Note_on_c, 0, 60, 57
1, 1920, Note_on_c, 0, 64, 69
1, 2016, Note_on_c, 0, 64, 0
1, 2016, Note_on_c, 0, 60, 0
1, 2040, Note_on_c, 0, 64, 54
1, 2040, Note_on_c, 0, 72, 66
1, 2040, Note_on_c, 0, 60, 57
1, 2136, Note_on_c, 0, 60, 0
1, 2136, Note_on_c, 0, 72, 0
1, 2136, Note_on_c, 0, 64, 0
1, 2160, Note_on_c, 0, 76, 66
1, 2160, Note_on_c, 0, 60, 44
1, 2160, Note_on_c, 0, 64, 65
1, 2208, Note_on_c, 0, 76, 0
1, 2220, Note_on_c, 0, 72, 89
1, 2256, Note_on_c, 0, 64, 0
1, 2256, Note_on_c, 0, 60, 0
1, 2268, Note_on_c, 0, 72, 0
1, 2280, Note_on_c, 0, 79, 81
1, 2280, Note_on_c, 0, 60, 44
1, 2280, Note_on_c, 0, 64, 43
1, 2328, Note_on_c, 0, 79, 0
1, 2340, Note_on_c, 0, 76, 83
1, 2376, Note_on_c, 0, 64, 0
1, 2376, Note_on_c, 0, 60, 0
1, 2388, Note_on_c, 0, 76, 0
1, 2400, Note_on_c, 0, 60, 48
1, 2400, Note_on_c, 0, 84, 77
1, 2400, Note_on_c, 0, 64, 61
1, 2496, Note_on_c, 0, 64, 0
1, 2496, Note_on_c, 0, 60, 0
1, 2520, Note_on_c, 0, 64, 81
1, 2520, Note_on_c, 0, 60, 74
1, 2544, Note_on_c, 0, 84, 0
1, 2580, Note_on_c, 0, 79, 77
1, 2616, Note_on_c, 0, 60, 0
1, 2616, Note_on_c, 0, 64, 0
1, 2628, Note_on_c, 0, 79, 0
1, 2640, Note_on_c, 0, 81, 58
1, 2640, Note_on_c, 0, 64, 69
1, 2640, Note_on_c, 0, 60, 69
1, 2652, Note_on_c, 0, 81, 0
1, 2655, Note_on_c, 0, 79, 54
1, 2667, Note_on_c, 0, 79, 0
1, 2670, Note_on_c, 0, 81, 52
1, 2682, Note_on_c, 0, 81, 0
1, 2685, Note_on_c, 0, 79, 52
1, 2697, Note_on_c, 0, 79, 0
1, 2700, Note_on_c, 0, 81, 54
1, 2712, Note_on_c, 0, 81, 0
1, 2715, Note_on_c, 0, 79, 54
1, 2727, Note_on_c, 0, 79, 0
1, 2730, Note_on_c, 0, 81, 55
1, 2736, Note_on_c, 0, 60, 0
1, 2736, Note_on_c, 0, 64, 0
1, 2742, Note_on_c, 0, 81, 0
1, 2745, Note_on_c, 0, 79, 61
1, 2757, Note_on_c, 0, 79, 0
1, 2760, Note_on_c, 0, 81, 61
1, 2760, Note_on_c, 0, 64, 71
1, 2760, Note_on_c, 0, 60, 77
1, 2772, Note_on_c, 0, 81, 0
1, 2775, Note_on_c, 0, 79, 54
1, 2787, Note_on_c, 0, 79, 0
1, 2790, Note_on_c, 0, 81, 61
1, 2802, Note_on_c, 0, 81, 0
1, 2805, Note_on_c, 0, 79, 61
1, 2817, Note_on_c, 0, 79, 0
1, 2820, Note_on_c, 0, 81, 58
1, 2832, Note_on_c, 0, 81, 0
1, 2835, Note_on_c, 0, 79, 58
1, 2847, Note_on_c, 0, 79, 0
1, 2850, Note_on_c, 0, 81, 54
1, 2856, Note_on_c, 0, 60, 0
1, 2856, Note_on_c, 0, 64, 0
1, 2862, Note_on_c, 0, 81, 0
1, 2865, Note_on_c, 0, 79, 58
1, 2877, Note_on_c, 0, 79, 0
1, 2880, Note_on_c, 0, 55, 69
1, 2880, Note_on_c, 0, 79, 71
1, 2880, Note_on_c, 0, 62, 69
1, 2928, Note_on_c, 0, 79, 0
1, 2940, Note_on_c, 0, 77, 58
1, 2976, Note_on_c, 0, 62, 0
1, 2988, Note_on_c, 0, 77, 0
1, 3000, Note_on_c, 0, 86, 71
1, 3000, Note_on_c, 0, 59, 67
1, 3048, Note_on_c, 0, 86, 0
1, 3060, Note_on_c, 0, 77, 83
1, 3096, Note_on_c, 0, 59, 0
1, 3108, Note_on_c, 0, 77, 0
1, 3120, Note_on_c, 0, 60, 61
1, 3120, Note_on_c, 0, 76, 81
1, 3216, Note_on_c, 0, 76, 0
1, 3216, Note_on_c, 0, 60, 0
1, 3240, Note_on_c, 0, 64, 77
1, 3240, Note_on_c, 0, 84, 80
1, 3336, Note_on_c, 0, 84, 0
1, 3336, Note_on_c, 0, 55, 0
1, 3336, Note_on_c, 0, 64, 0
1, 3360, Note_on_c, 0, 62, 58
1, 3360, Note_on_c, 0, 79, 77
1, 3360, Note_on_c, 0, 55, 64
1, 3408, Note_on_c, 0, 79, 0
1, 3420, Note_on_c, 0, 77, 83
1, 3456, Note_on_c, 0, 62, 0
1, 3468, Note_on_c, 0, 77, 0
1, 3480, Note_on_c, 0, 59, 53
1, 3480, Note_on_c, 0, 86, 71
1, 3528, Note_on_c, 0, 86, 0
1, 3540, Note_on_c, 0, 77, 97
1, 3576, Note_on_c, 0, 59, 0
1, 3588, Note_on_c, 0, 77, 0
1, 3600, Note_on_c, 0, 60, 53
1, 3600, Note_on_c, 0, 76, 89
1, 3696, Note_on_c, 0, 76, 0
1, 3696, Note_on_c, 0, 60, 0
1, 3720, Note_on_c, 0, 64, 64
1, 3720, Note_on_c, 0, 84, 54
1, 3816, Note_on_c, 0, 84, 0
1, 3816, Note_on_c, 0, 64, 0
1, 3816, Note_on_c, 0, 55, 0
1, 3840, Note_on_c, 0, 55, 61
1, 3840, Note_on_c, 0, 62, 49
1, 3900, Note_on_c, 0, 77, 54
1, 3948, Note_on_c, 0, 77, 0
1, 3960, Note_on_c, 0, 86, 83
1, 4008, Note_on_c, 0, 86, 0
1, 4020, Note_on_c, 0, 77, 83
1, 4032, Note_on_c, 0, 62, 0
1, 4032, Note_on_c, 0, 55, 0
1, 4068, Note_on_c, 0, 77, 0
1, 4080, Note_on_c, 0, 60, 47
1, 4080, Note_on_c, 0, 55, 58
1, 4140, Note_on_c, 0, 76, 71
1, 4188, Note_on_c, 0, 76, 0
1, 4200, Note_on_c, 0, 84, 61
1, 4248, Note_on_c, 0, 84, 0
1, 4260, Note_on_c, 0, 76, 89
1, 4272, Note_on_c, 0, 55, 0
1, 4272, Note_on_c, 0, 60, 0
1, 4308, Note_on_c, 0, 76, 0
1, 4320, Note_on_c, 0, 55, 71
1, 4320, Note_on_c, 0, 60, 50
1, 4320, Note_on_c, 0, 77, 83
1, 4332, Note_on_c, 0, 77, 0
1, 4335, Note_on_c, 0, 76, 97
1, 4347, Note_on_c, 0, 76, 0
1, 4350, Note_on_c, 0, 77, 71
1, 4362, Note_on_c, 0, 77, 0
1, 4365, Note_on_c, 0, 76, 97
1, 4377, Note_on_c, 0, 76, 0
1, 4380, Note_on_c, 0, 77, 77
1, 4392, Note_on_c, 0, 77, 0
1, 4395, Note_on_c, 0, 76, 77
1, 4407, Note_on_c, 0, 76, 0
1, 4410, Note_on_c, 0, 77, 66
1, 4416, Note_on_c, 0, 60, 0
1, 4422, Note_on_c, 0, 77, 0
1, 4425, Note_on_c, 0, 76, 77
1, 4437, Note_on_c, 0, 76, 0
1, 4440, Note_on_c, 0, 59, 54
1, 4440, Note_on_c, 0, 74, 83
1, 4536, Note_on_c, 0, 74, 0
1, 4536, Note_on_c, 0, 55, 0
1, 4536, Note_on_c, 0, 59, 0
1, 4680, Note_on_c, 0, 79, 58
1, 4776, Note_on_c, 0, 79, 0
1, 4800, Note_on_c, 0, 79, 58
1, 4848, Note_on_c, 0, 79, 0
1, 4860, Note_on_c, 0, 78, 66
1, 4908, Note_on_c, 0, 78, 0
1, 4920, Note_on_c, 0, 81, 71
1, 4968, Note_on_c, 0, 81, 0
1, 4980, Note_on_c, 0, 79, 61
1, 5028, Note_on_c, 0, 79, 0
1, 5040, Note_on_c, 0, 83, 71
1, 5088, Note_on_c, 0, 83, 0
1, 5100, Note_on_c, 0, 79, 66
1, 5148, Note_on_c, 0, 79, 0
1, 5160, Note_on_c, 0, 78, 71
1, 5208, Note_on_c, 0, 78, 0
1, 5220, Note_on_c, 0, 79, 66
1, 5268, Note_on_c, 0, 79, 0
1, 5280, Note_on_c, 0, 47, 42
1, 5280, Note_on_c, 0, 74, 77
1, 5280, Note_on_c, 0, 59, 50
1, 5328, Note_on_c, 0, 74, 0
1, 5340, Note_on_c, 0, 79, 61
1, 5376, Note_on_c, 0, 59, 0
1, 5376, Note_on_c, 0, 47, 0
1, 5388, Note_on_c, 0, 79, 0
1, 5400, Note_on_c, 0, 76, 97
1, 5400, Note_on_c, 0, 60, 52
1, 5400, Note_on_c, 0, 48, 60
1, 5448, Note_on_c, 0, 76, 0
1, 5460, Note_on_c, 0, 79, 58
1, 5496, Note_on_c, 0, 48, 0
1, 5496, Note_on_c, 0, 60, 0
1, 5508, Note_on_c, 0, 79, 0
1, 5520, Note_on_c, 0, 59, 54
1, 5520, Note_on_c, 0, 47, 43
1, 5520, Note_on_c, 0, 74, 71
1, 5616, Note_on_c, 0, 74, 0
1, 5616, Note_on_c, 0, 47, 0
1, 5616, Note_on_c, 0, 59, 0
1, 5640, Note_on_c, 0, 79, 54
1, 5736, Note_on_c, 0, 79, 0
1, 5760, Note_on_c, 0, 79, 45
1, 5808, Note_on_c, 0, 79, 0
1, 5820, Note_on_c, 0, 78, 77
1, 5868, Note_on_c, 0, 78, 0
1, 5880, Note_on_c, 0, 81, 50
1, 5928, Note_on_c, 0, 81, 0
1, 5940, Note_on_c, 0, 79, 54
1, 5988, Note_on_c, 0, 79, 0
1, 6000, Note_on_c, 0, 83, 46
1, 6048, Note_on_c, 0, 83, 0
1, 6060, Note_on_c, 0, 79, 47
1, 6108, Note_on_c, 0, 79, 0
1, 6120, Note_on_c, 0, 78, 43
1, 6168, Note_on_c, 0, 78, 0
1, 6180, Note_on_c, 0, 79, 52
1, 6228, Note_on_c, 0, 79, 0
1, 6240, Note_on_c, 0, 47, 47
1, 6240, Note_on_c, 0, 74, 66
1, 6240, Note_on_c, 0, 59, 44
1, 6288, Note_on_c, 0, 74, 0
1, 6300, Note_on_c, 0, 79, 52
1, 6336, Note_on_c, 0, 59, 0
1, 6336, Note_on_c, 0, 47, 0
1, 6348, Note_on_c, 0, 79, 0
1, 6360, Note_on_c, 0, 72, 89
1, 6360, Note_on_c, 0, 57, 43
1, 6360, Note_on_c, 0, 45, 1
1, 6408, Note_on_c, 0, 72, 0
1, 6420, Note_on_c, 0, 79, 58
1, 6456, Note_on_c, 0, 45, 0
1, 6456, Note_on_c, 0, 57, 0
1, 6468, Note_on_c, 0, 79, 0
1, 6480, Note_on_c, 0, 55, 42
1, 6480, Note_on_c, 0, 43, 42
1, 6480, Note_on_c, 0, 71, 75
1, 6576, Note_on_c, 0, 71, 0
1, 6576, Note_on_c, 0, 43, 0
1, 6576, Note_on_c, 0, 55, 0
1, 6600, Note_on_c, 0, 47, 58
1, 6600, Note_on_c, 0, 74, 66
1, 6648, Note_on_c, 0, 74, 0
1, 6660, Note_on_c, 0, 79, 47
1, 6696, Note_on_c, 0, 47, 0
1, 6708, Note_on_c, 0, 79, 0
1, 6720, Note_on_c, 0, 76, 83
1, 6720, Note_on_c, 0, 48, 50
1, 6768, Note_on_c, 0, 76, 0
1, 6780, Note_on_c, 0, 79, 75
1, 6816, Note_on_c, 0, 48, 0
1, 6828, Note_on_c, 0, 79, 0
1, 6840, Note_on_c, 0, 50, 77
1, 6840, Note_on_c, 0, 74, 77
1, 6888, Note_on_c, 0, 74, 0
1, 6900, Note_on_c, 0, 79, 77
1, 6936, Note_on_c, 0, 50, 0
1, 6948, Note_on_c, 0, 79, 0
1, 6960, Note_on_c, 0, 52, 83
1, 6960, Note_on_c, 0, 72, 77
1, 7008, Note_on_c, 0, 72, 0
1, 7020, Note_on_c, 0, 76, 97
1, 7056, Note_on_c, 0, 52, 0
1, 7068, Note_on_c, 0, 76, 0
1, 7080, Note_on_c, 0, 49, 71
1, 7080, Note_on_c, 0, 81, 89
1, 7128, Note_on_c, 0, 81, 0
1, 7140, Note_on_c, 0, 79, 83
1, 7176, Note_on_c, 0, 49, 0
1, 7188, Note_on_c, 0, 79, 0
1, 7200, Note_on_c, 0, 78, 89
1, 7200, Note_on_c, 0, 50, 61
1, 7248, Note_on_c, 0, 78, 0
1, 7260, Note_on_c, 0, 81, 89
1, 7296, Note_on_c, 0, 50, 0
1, 7308, Note_on_c, 0, 81, 0
1, 7320, Note_on_c, 0, 52, 47
1, 7320, Note_on_c, 0, 76, 83
1, 7368, Note_on_c, 0, 76, 0
1, 7380, Note_on_c, 0, 81, 95
1, 7416, Note_on_c, 0, 52, 0
1, 7428, Note_on_c, 0, 81, 0
1, 7440, Note_on_c, 0, 54, 61
1, 7440, Note_on_c, 0, 74, 89
1, 7488, Note_on_c, 0, 74, 0
1, 7500, Note_on_c, 0, 78, 95
1, 7536, Note_on_c, 0, 54, 0
1, 7548, Note_on_c, 0, 78, 0
1, 7560, Note_on_c, 0, 51, 50
1, 7560, Note_on_c, 0, 83, 97
1, 7608, Note_on_c, 0, 83, 0
1, 7620, Note_on_c, 0, 81, 77
1, 7656, Note_on_c, 0, 51, 0
1, 7668, Note_on_c, 0, 81, 0
1, 7680, Note_on_c, 0, 79, 71
1, 7680, Note_on_c, 0, 52, 46
1, 7728, Note_on_c, 0, 79, 0
1, 7740, Note_on_c, 0, 83, 83
1, 7776, Note_on_c, 0, 52, 0
1, 7788, Note_on_c, 0, 83, 0
1, 7800, Note_on_c, 0, 54, 50
1, 7800, Note_on_c, 0, 78, 89
1, 7848, Note_on_c, 0, 78, 0
1, 7860, Note_on_c, 0, 83, 89
1, 7896, Note_on_c, 0, 54, 0
1, 7908, Note_on_c, 0, 83, 0
1, 7920, Note_on_c, 0, 55, 67
1, 7920, Note_on_c, 0, 76, 103
1, 7968, Note_on_c, 0, 76, 0
1, 7980, Note_on_c, 0, 79, 77
1, 8016, Note_on_c, 0, 55, 0
1, 8028, Note_on_c, 0, 79, 0
1, 8040, Note_on_c, 0, 52, 54
1, 8040, Note_on_c, 0, 84, 89
1, 8088, Note_on_c, 0, 84, 0
1, 8100, Note_on_c, 0, 83, 89
1, 8136, Note_on_c, 0, 52, 0
1, 8148, Note_on_c, 0, 83, 0
1, 8160, Note_on_c, 0, 81, 66
1, 8160, Note_on_c, 0, 54, 61
1, 8208, Note_on_c, 0, 81, 0
1, 8220, Note_on_c, 0, 84, 89
1, 8256, Note_on_c, 0, 54, 0
1, 8268, Note_on_c, 0, 84, 0
1, 8280, Note_on_c, 0, 55, 61
1, 8280, Note_on_c, 0, 79, 71
1, 8328, Note_on_c, 0, 79, 0
1, 8340, Note_on_c, 0, 84, 97
1, 8376, Note_on_c, 0, 55, 0
1, 8388, Note_on_c, 0, 84, 0
1, 8400, Note_on_c, 0, 57, 42
1, 8400, Note_on_c, 0, 78, 66
1, 8448, Note_on_c, 0, 78, 0
1, 8460, Note_on_c, 0, 81, 89
1, 8496, Note_on_c, 0, 57, 0
1, 8508, Note_on_c, 0, 81, 0
1, 8520, Note_on_c, 0, 54, 43
1, 8520, Note_on_c, 0, 86, 77
1, 8568, Note_on_c, 0, 86, 0
1, 8580, Note_on_c, 0, 84, 83
1, 8616, Note_on_c, 0, 54, 0
1, 8628, Note_on_c, 0, 84, 0
1, 8640, Note_on_c, 0, 83, 66
1, 8640, Note_on_c, 0, 55, 43
1, 8688, Note_on_c, 0, 83, 0
1, 8700, Note_on_c, 0, 86, 77
1, 8736, Note_on_c, 0, 55, 0
1, 8748, Note_on_c, 0, 86, 0
1, 8760, Note_on_c, 0, 59, 52
1, 8760, Note_on_c, 0, 79, 61
1, 8808, Note_on_c, 0, 79, 0
1, 8820, Note_on_c, 0, 81, 71
1, 8856, Note_on_c, 0, 59, 0
1, 8868, Note_on_c, 0, 81, 0
1, 8880, Note_on_c, 0, 60, 58
1, 8880, Note_on_c, 0, 83, 66
1, 8892, Note_on_c, 0, 83, 0
1, 8895, Note_on_c, 0, 81, 61
1, 8907, Note_on_c, 0, 81, 0
1, 8910, Note_on_c, 0, 83, 61
1, 8922, Note_on_c, 0, 83, 0
1, 8925, Note_on_c, 0, 81, 54
1, 8937, Note_on_c, 0, 81, 0
1, 8940, Note_on_c, 0, 83, 54
1, 8952, Note_on_c, 0, 83, 0
1, 8955, Note_on_c, 0, 81, 50
1, 8967, Note_on_c, 0, 81, 0
1, 8970, Note_on_c, 0, 83, 42
1, 8976, Note_on_c, 0, 60, 0
1, 8982, Note_on_c, 0, 83, 0
1, 8985, Note_on_c, 0, 81, 47
1, 8997, Note_on_c, 0, 81, 0
1, 9000, Note_on_c, 0, 62, 61
1, 9000, Note_on_c, 0, 83, 75
1, 9012, Note_on_c, 0, 83, 0
1, 9015, Note_on_c, 0, 81, 58
1, 9027, Note_on_c, 0, 81, 0
1, 9030, Note_on_c, 0, 83, 66
1, 9042, Note_on_c, 0, 83, 0
1, 9045, Note_on_c, 0, 81, 54
1, 9057, Note_on_c, 0, 81, 0
1, 9060, Note_on_c, 0, 83, 71
1, 9072, Note_on_c, 0, 83, 0
1, 9075, Note_on_c, 0, 81, 47
1, 9087, Note_on_c, 0, 81, 0
1, 9090, Note_on_c, 0, 83, 66
1, 9096, Note_on_c, 0, 62, 0
1, 9102, Note_on_c, 0, 83, 0
1, 9105, Note_on_c, 0, 81, 61
1, 9117, Note_on_c, 0, 81, 0
1, 9120, Note_on_c, 0, 55, 52
1, 9120, Note_on_c, 0, 79, 52
1, 9216, Note_on_c, 0, 55, 0
1, 9240, Note_on_c, 0, 50, 77
1, 9312, Note_on_c, 0, 79, 0
1, 9336, Note_on_c, 0, 50, 0
1, 9360, Note_on_c, 0, 43, 44
1, 9480, Note_on_c, 0, 70, 71
1, 9480, Note_on_c, 0, 74, 69
1, 9552, Note_on_c, 0, 43, 0
1, 9576, Note_on_c, 0, 74, 0
1, 9576, Note_on_c, 0, 70, 0
1, 9600, Note_on_c, 0, 75, 69
1, 9600, Note_on_c, 0, 72, 69
1, 9696, Note_on_c, 0, 72, 0
1, 9696, Note_on_c, 0, 75, 0
1, 9720, Note_on_c, 0, 55, 42
1, 9720, Note_on_c, 0, 43, 47
1, 9816, Note_on_c, 0, 43, 0
1, 9816, Note_on_c, 0, 55, 0
1, 9840, Note_on_c, 0, 45, 43
1, 9840, Note_on_c, 0, 57, 42
1, 9936, Note_on_c, 0, 57, 0
1, 9936, Note_on_c, 0, 45, 0
1, 9960, Note_on_c, 0, 74, 66
1, 9960, Note_on_c, 0, 70, 74
1, 10056, Note_on_c, 0, 70, 0
1, 10056, Note_on_c, 0, 74, 0
1, 10080, Note_on_c, 0, 72, 51
1, 10080, Note_on_c, 0, 69, 80
1, 10176, Note_on_c, 0, 69, 0
1, 10176, Note_on_c, 0, 72, 0
1, 10200, Note_on_c, 0, 55, 43
1, 10200, Note_on_c, 0, 43, 44
1, 10296, Note_on_c, 0, 43, 0
1, 10296, Note_on_c, 0, 55, 0
1, 10320, Note_on_c, 0, 54, 44
1, 10320, Note_on_c, 0, 42, 51
1, 10416, Note_on_c, 0, 42, 0
1, 10416, Note_on_c, 0, 54, 0
1, 10440, Note_on_c, 0, 69, 61
1, 10440, Note_on_c, 0, 72, 54
1, 10536, Note_on_c, 0, 72, 0
1, 10536, Note_on_c, 0, 69, 0
1, 10560, Note_on_c, 0, 70, 83
1, 10560, Note_on_c, 0, 74, 77
1, 10656, Note_on_c, 0, 74, 0
1, 10656, Note_on_c, 0, 70, 0
1, 10680, Note_on_c, 0, 54, 57
1, 10680, Note_on_c, 0, 42, 44
1, 10776, Note_on_c, 0, 42, 0
1, 10776, Note_on_c, 0, 54, 0
1, 10800, Note_on_c, 0, 55, 34
1, 10800, Note_on_c, 0, 43, 30
1, 10896, Note_on_c, 0, 43, 0
1, 10896, Note_on_c, 0, 55, 0
1, 10920, Note_on_c, 0, 69, 47
1, 10920, Note_on_c, 0, 72, 44
1, 11016, Note_on_c, 0, 72, 0
1, 11016, Note_on_c, 0, 69, 0
1, 11040, Note_on_c, 0, 70, 42
1, 11040, Note_on_c, 0, 67, 61
1, 11136, Note_on_c, 0, 67, 0
1, 11136, Note_on_c, 0, 70, 0
1, 11160, Note_on_c, 0, 41, 58
1, 11160, Note_on_c, 0, 53, 43
1, 11256, Note_on_c, 0, 53, 0
1, 11256, Note_on_c, 0, 41, 0
1, 11280, Note_on_c, 0, 39, 43
1, 11280, Note_on_c, 0, 51, 42
1, 11376, Note_on_c, 0, 51, 0
1, 11376, Note_on_c, 0, 39, 0
1, 11400, Note_on_c, 0, 66, 80
1, 11400, Note_on_c, 0, 69, 80
1, 11496, Note_on_c, 0, 69, 0
1, 11496, Note_on_c, 0, 66, 0
1, 11520, Note_on_c, 0, 70, 61
1, 11520, Note_on_c, 0, 67, 74
1, 11616, Note_on_c, 0, 67, 0
1, 11616, Note_on_c, 0, 70, 0
1, 11640, Note_on_c, 0, 38, 42
1, 11640, Note_on_c, 0, 50, 42
1, 11736, Note_on_c, 0, 50, 0
1, 11736, Note_on_c, 0, 38, 0
1, 11760, Note_on_c, 0, 49, 42
1, 11760, Note_on_c, 0, 37, 47
1, 11856, Note_on_c, 0, 37, 0
1, 11856, Note_on_c, 0, 49, 0
1, 11880, Note_on_c, 0, 49, 49
1, 11880, Note_on_c, 0, 37, 42
1, 11880, Note_on_c, 0, 70, 58
1, 11880, Note_on_c, 0, 67, 77
1, 11976, Note_on_c, 0, 67, 0
1, 11976, Note_on_c, 0, 70, 0
1, 11976, Note_on_c, 0, 37, 0
1, 11976, Note_on_c, 0, 49, 0
1, 12000, Note_on_c, 0, 38, 1
1, 12000, Note_on_c, 0, 70, 58
1, 12000, Note_on_c, 0, 67, 89
1, 12000, Note_on_c, 0, 50, 40
1, 12096, Note_on_c, 0, 67, 0
1, 12096, Note_on_c, 0, 70, 0
1, 12120, Note_on_c, 0, 69, 47
1, 12120, Note_on_c, 0, 66, 77
1, 12192, Note_on_c, 0, 50, 0
1, 12192, Note_on_c, 0, 38, 0
1, 12216, Note_on_c, 0, 66, 0
1, 12216, Note_on_c, 0, 69, 0
1, 12360, Note_on_c, 0, 79, 66
1, 12392, Note_on_c, 0, 79, 0
1, 12400, Note_on_c, 0, 81, 77
1, 12432, Note_on_c, 0, 81, 0
1, 12440, Note_on_c, 0, 83, 45
1, 12472, Note_on_c, 0, 83, 0
1, 12480, Note_on_c, 0, 59, 54
1, 12480, Note_on_c, 0, 55, 77
1, 12480, Note_on_c, 0, 79, 71
1, 12576, Note_on_c, 0, 79, 0
1, 12600, Note_on_c, 0, 74, 66
1, 12632, Note_on_c, 0, 74, 0
1, 12640, Note_on_c, 0, 76, 83
1, 12672, Note_on_c, 0, 76, 0
1, 12672, Note_on_c, 0, 55, 0
1, 12672, Note_on_c, 0, 59, 0
1, 12680, Note_on_c, 0, 78, 58
1, 12712, Note_on_c, 0, 78, 0
1, 12720, Note_on_c, 0, 79, 61
1, 12816, Note_on_c, 0, 79, 0
1, 12840, Note_on_c, 0, 71, 77
1, 12872, Note_on_c, 0, 71, 0
1, 12880, Note_on_c, 0, 72, 61
1, 12912, Note_on_c, 0, 72, 0
1, 12920, Note_on_c, 0, 74, 61
1, 12952, Note_on_c, 0, 74, 0
1, 12960, Note_on_c, 0, 71, 62
1, 13056, Note_on_c, 0, 71, 0
1, 13080, Note_on_c, 0, 67, 42
1, 13112, Note_on_c, 0, 67, 0
1, 13120, Note_on_c, 0, 69, 61
1, 13152, Note_on_c, 0, 69, 0
1, 13160, Note_on_c, 0, 71, 54
1, 13192, Note_on_c, 0, 71, 0
1, 13200, Note_on_c, 0, 67, 61
1, 13296, Note_on_c, 0, 67, 0
1, 13320, Note_on_c, 0, 55, 71
1, 13320, Note_on_c, 0, 59, 43
1, 13320, Note_on_c, 0, 74, 61
1, 13416, Note_on_c, 0, 74, 0
1, 13416, Note_on_c, 0, 59, 0
1, 13416, Note_on_c, 0, 55, 0
1, 13440, Note_on_c, 0, 60, 64
1, 13440, Note_on_c, 0, 48, 50
1, 13440, Note_on_c, 0, 64, 71
1, 13536, Note_on_c, 0, 64, 0
1, 13560, Note_on_c, 0, 72, 66
1, 13592, Note_on_c, 0, 72, 0
1, 13600, Note_on_c, 0, 71, 61
1, 13632, Note_on_c, 0, 71, 0
1, 13632, Note_on_c, 0, 48, 0
1, 13632, Note_on_c, 0, 60, 0
1, 13640, Note_on_c, 0, 69, 61
1, 13672, Note_on_c, 0, 69, 0
1, 13680, Note_on_c, 0, 59, 44
1, 13680, Note_on_c, 0, 50, 42
1, 13680, Note_on_c, 0, 67, 66
1, 13776, Note_on_c, 0, 67, 0
1, 13776, Note_on_c, 0, 59, 0
1, 13800, Note_on_c, 0, 57, 53
1, 13800, Note_on_c, 0, 66, 47
1, 13896, Note_on_c, 0, 66, 0
1, 13896, Note_on_c, 0, 57, 0
1, 13896, Note_on_c, 0, 50, 0
1, 13920, Note_on_c, 0, 55, 52
1, 13920, Note_on_c, 0, 67, 61
1, 14016, Note_on_c, 0, 55, 0
1, 14040, Note_on_c, 0, 50, 58
1, 14112, Note_on_c, 0, 67, 0
1, 14136, Note_on_c, 0, 50, 0
1, 14160, Note_on_c, 0, 43, 42
1, 14280, Note_on_c, 0, 79, 58
1, 14312, Note_on_c, 0, 79, 0
1, 14320, Note_on_c, 0, 81, 71
1, 14352, Note_on_c, 0, 81, 0
1, 14352, Note_on_c, 0, 43, 0
1, 14360, Note_on_c, 0, 83, 66
1, 14392, Note_on_c, 0, 83, 0
1, 14400, Note_on_c, 0, 55, 54
1, 14400, Note_on_c, 0, 59, 43
1, 14400, Note_on_c, 0, 79, 58
1, 14496, Note_on_c, 0, 79, 0
1, 14520, Note_on_c, 0, 74, 83
1, 14552, Note_on_c, 0, 74, 0
1, 14560, Note_on_c, 0, 76, 89
1, 14592, Note_on_c, 0, 76, 0
1, 14592, Note_on_c, 0, 59, 0
1, 14592, Note_on_c, 0, 55, 0
1, 14600, Note_on_c, 0, 78, 52
1, 14632, Note_on_c, 0, 78, 0
1, 14640, Note_on_c, 0, 79, 45
1, 14736, Note_on_c, 0, 79, 0
1, 14760, Note_on_c, 0, 71, 71
1, 14792, Note_on_c, 0, 71, 0
1, 14800, Note_on_c, 0, 72, 66
1, 14832, Note_on_c, 0, 72, 0
1, 14840, Note_on_c, 0, 74, 61
1, 14872, Note_on_c, 0, 74, 0
1, 14880, Note_on_c, 0, 71, 42
1, 14976, Note_on_c, 0, 71, 0
1, 15000, Note_on_c, 0, 47, 44
1, 15000, Note_on_c, 0, 74, 66
1, 15000, Note_on_c, 0, 59, 45
1, 15048, Note_on_c, 0, 74, 0
1, 15060, Note_on_c, 0, 86, 80
1, 15096, Note_on_c, 0, 59, 0
1, 15096, Note_on_c, 0, 47, 0
1, 15108, Note_on_c, 0, 86, 0
1, 15120, Note_on_c, 0, 59, 42
1, 15120, Note_on_c, 0, 47, 40
1, 15120, Note_on_c, 0, 74, 61
1, 15168, Note_on_c, 0, 74, 0
1, 15180, Note_on_c, 0, 86, 43
1, 15216, Note_on_c, 0, 47, 0
1, 15216, Note_on_c, 0, 59, 0
1, 15228, Note_on_c, 0, 86, 0
1, 15240, Note_on_c, 0, 47, 40
1, 15240, Note_on_c, 0, 59, 41
1, 15240, Note_on_c, 0, 74, 58
1, 15288, Note_on_c, 0, 74, 0
1, 15300, Note_on_c, 0, 86, 66
1, 15336, Note_on_c, 0, 59, 0
1, 15336, Note_on_c, 0, 47, 0
1, 15348, Note_on_c, 0, 86, 0
1, 15360, Note_on_c, 0, 48, 43
1, 15360, Note_on_c, 0, 76, 89
1, 15360, Note_on_c, 0, 60, 44
1, 15408, Note_on_c, 0, 76, 0
1, 15420, Note_on_c, 0, 86, 71
1, 15456, Note_on_c, 0, 60, 0
1, 15456, Note_on_c, 0, 48, 0
1, 15468, Note_on_c, 0, 86, 0
1, 15480, Note_on_c, 0, 76, 75
1, 15480, Note_on_c, 0, 60, 44
1, 15480, Note_on_c, 0, 48, 42
1, 15528, Note_on_c, 0, 76, 0
1, 15540, Note_on_c, 0, 86, 80
1, 15576, Note_on_c, 0, 48, 0
1, 15576, Note_on_c, 0, 60, 0
1, 15588, Note_on_c, 0, 86, 0
1, 15600, Note_on_c, 0, 57, 42
1, 15600, Note_on_c, 0, 45, 47
1, 15600, Note_on_c, 0, 76, 83
1, 15648, Note_on_c, 0, 76, 0
1, 15660, Note_on_c, 0, 84, 83
1, 15696, Note_on_c, 0, 45, 0
1, 15696, Note_on_c, 0, 57, 0
1, 15708, Note_on_c, 0, 84, 0
1, 15720, Note_on_c, 0, 57, 42
1, 15720, Note_on_c, 0, 45, 47
1, 15720, Note_on_c, 0, 76, 77
1, 15768, Note_on_c, 0, 76, 0
1, 15780, Note_on_c, 0, 84, 89
1, 15816, Note_on_c, 0, 45, 0
1, 15816, Note_on_c, 0, 57, 0
1, 15828, Note_on_c, 0, 84, 0
1, 15840, Note_on_c, 0, 42, 66
1, 15840, Note_on_c, 0, 74, 61
1, 15840, Note_on_c, 0, 54, 43
1, 15888, Note_on_c, 0, 74, 0
1, 15900, Note_on_c, 0, 84, 77
1, 15936, Note_on_c, 0, 54, 0
1, 15936, Note_on_c, 0, 42, 0
1, 15948, Note_on_c, 0, 84, 0
1, 15960, Note_on_c, 0, 74, 58
1, 15960, Note_on_c, 0, 54, 45
1, 15960, Note_on_c, 0, 42, 55
1, 16008, Note_on_c, 0, 74, 0
1, 16020, Note_on_c, 0, 84, 66
1, 16056, Note_on_c, 0, 42, 0
1, 16056, Note_on_c, 0, 54, 0
1, 16068, Note_on_c, 0, 84, 0
1, 16080, Note_on_c, 0, 55, 42
1, 16080, Note_on_c, 0, 43, 50
1, 16080, Note_on_c, 0, 74, 55
1, 16128, Note_on_c, 0, 74, 0
1, 16140, Note_on_c, 0, 83, 58
1, 16176, Note_on_c, 0, 43, 0
1, 16176, Note_on_c, 0, 55, 0
1, 16188, Note_on_c, 0, 83, 0
1, 16200, Note_on_c, 0, 55, 42
1, 16200, Note_on_c, 0, 43, 34
1, 16200, Note_on_c, 0, 74, 61
1, 16248, Note_on_c, 0, 74, 0
1, 16260, Note_on_c, 0, 83, 58
1, 16296, Note_on_c, 0, 43, 0
1, 16296, Note_on_c, 0, 55, 0
1, 16308, Note_on_c, 0, 83, 0
1, 16320, Note_on_c, 0, 36, 1
1, 16320, Note_on_c, 0, 72, 52
1, 16320, Note_on_c, 0, 48, 42
1, 16368, Note_on_c, 0, 72, 0
1, 16380, Note_on_c, 0, 81, 83
1, 16416, Note_on_c, 0, 48, 0
1, 16416, Note_on_c, 0, 36, 0
1, 16428, Note_on_c, 0, 81, 0
1, 16440, Note_on_c, 0, 72, 71
1, 16440, Note_on_c, 0, 36, 43
1, 16440, Note_on_c, 0, 48, 1
1, 16488, Note_on_c, 0, 72, 0
1, 16500, Note_on_c, 0, 81, 83
1, 16536, Note_on_c, 0, 48, 0
1, 16536, Note_on_c, 0, 36, 0
1, 16548, Note_on_c, 0, 81, 0
1, 16560, Note_on_c, 0, 50, 41
1, 16560, Note_on_c, 0, 38, 45
1, 16560, Note_on_c, 0, 69, 71
1, 16608, Note_on_c, 0, 69, 0
1, 16620, Note_on_c, 0, 78, 71
1, 16656, Note_on_c, 0, 38, 0
1, 16656, Note_on_c, 0, 50, 0
1, 16668, Note_on_c, 0, 78, 0
1, 16680, Note_on_c, 0, 38, 43
1, 16680, Note_on_c, 0, 50, 43
1, 16680, Note_on_c, 0, 69, 71
1, 16728, Note_on_c, 0, 69, 0
1, 16740, Note_on_c, 0, 78, 77
1, 16776, Note_on_c, 0, 50, 0
1, 16776, Note_on_c, 0, 38, 0
1, 16788, Note_on_c, 0, 78, 0
1, 16800, Note_on_c, 0, 55, 45
1, 16800, Note_on_c, 0, 71, 77
1, 16800, Note_on_c, 0, 79, 53
1, 16896, Note_on_c, 0, 55, 0
1, 16920, Note_on_c, 0, 50, 77
1, 16992, Note_on_c, 0, 79, 0
1, 16992, Note_on_c, 0, 71, 0
1, 17016, Note_on_c, 0, 50, 0
1, 17040, Note_on_c, 0, 43, 58
1, 17232, Note_on_c, 0, 43, 0
1, 17280, Note_on_c, 0, 60, 40
1, 17280, Note_on_c, 0, 64, 42
1, 17376, Note_on_c, 0, 64, 0
1, 17376, Note_on_c, 0, 60, 0
1, 17400, Note_on_c, 0, 60, 42
1, 17400, Note_on_c, 0, 72, 66
1, 17400, Note_on_c, 0, 64, 54
1, 17496, Note_on_c, 0, 64, 0
1, 17496, Note_on_c, 0, 72, 0
1, 17496, Note_on_c, 0, 60, 0
1, 17520, Note_on_c, 0, 76, 71
1, 17520, Note_on_c, 0, 64, 47
1, 17520, Note_on_c, 0, 60, 42
1, 17568, Note_on_c, 0, 76, 0
1, 17580, Note_on_c, 0, 72, 58
1, 17616, Note_on_c, 0, 60, 0
1, 17616, Note_on_c, 0, 64, 0
1, 17628, Note_on_c, 0, 72, 0
1, 17640, Note_on_c, 0, 79, 61
1, 17640, Note_on_c, 0, 64, 47
1, 17640, Note_on_c, 0, 60, 42
1, 17688, Note_on_c, 0, 79, 0
1, 17700, Note_on_c, 0, 76, 83
1, 17736, Note_on_c, 0, 60, 0
1, 17736, Note_on_c, 0, 64, 0
1, 17748, Note_on_c, 0, 76, 0
1, 17760, Note_on_c, 0, 60, 42
1, 17760, Note_on_c, 0, 84, 71
1, 17760, Note_on_c, 0, 64, 54
1, 17856, Note_on_c, 0, 64, 0
1, 17856, Note_on_c, 0, 60, 0
1, 17880, Note_on_c, 0, 64, 61
1, 17880, Note_on_c, 0, 60, 44
1, 17904, Note_on_c, 0, 84, 0
1, 17940, Note_on_c, 0, 79, 54
1, 17976, Note_on_c, 0, 60, 0
1, 17976, Note_on_c, 0, 64, 0
1, 17988, Note_on_c, 0, 79, 0
1, 18000, Note_on_c, 0, 81, 61
1, 18000, Note_on_c, 0, 64, 58
1, 18000, Note_on_c, 0, 60, 42
1, 18012, Note_on_c, 0, 81, 0
1, 18015, Note_on_c, 0, 79, 55
1, 18027, Note_on_c, 0, 79, 0
1, 18030, Note_on_c, 0, 81, 52
1, 18042, Note_on_c, 0, 81, 0
1, 18045, Note_on_c, 0, 79, 58
1, 18057, Note_on_c, 0, 79, 0
1, 18060, Note_on_c, 0, 81, 61
1, 18072, Note_on_c, 0, 81, 0
1, 18075, Note_on_c, 0, 79, 45
1, 18087, Note_on_c, 0, 79, 0
1, 18090, Note_on_c, 0, 81, 55
1, 18096, Note_on_c, 0, 60, 0
1, 18096, Note_on_c, 0, 64, 0
1, 18102, Note_on_c, 0, 81, 0
1, 18105, Note_on_c, 0, 79, 61
1, 18117, Note_on_c, 0, 79, 0
1, 18120, Note_on_c, 0, 81, 54
1, 18120, Note_on_c, 0, 64, 57
1, 18120, Note_on_c, 0, 60, 45
1, 18132, Note_on_c, 0, 81, 0
1, 18135, Note_on_c, 0, 79, 44
1, 18147, Note_on_c, 0, 79, 0
1, 18150, Note_on_c, 0, 81, 50
1, 18162, Note_on_c, 0, 81, 0
1, 18165, Note_on_c, 0, 79, 50
1, 18177, Note_on_c, 0, 79, 0
1, 18180, Note_on_c, 0, 81, 54
1, 18192, Note_on_c, 0, 81, 0
1, 18195, Note_on_c, 0, 79, 50
1, 18207, Note_on_c, 0, 79, 0
1, 18210, Note_on_c, 0, 81, 45
1, 18216, Note_on_c, 0, 60, 0
1, 18216, Note_on_c, 0, 64, 0
1, 18222, Note_on_c, 0, 81, 0
1, 18225, Note_on_c, 0, 79, 44
1, 18237, Note_on_c, 0, 79, 0
1, 18240, Note_on_c, 0, 60, 47
1, 18240, Note_on_c, 0, 65, 45
1, 18336, Note_on_c, 0, 65, 0
1, 18336, Note_on_c, 0, 60, 0
1, 18360, Note_on_c, 0, 65, 47
1, 18360, Note_on_c, 0, 72, 77
1, 18360, Note_on_c, 0, 60, 48
1, 18456, Note_on_c, 0, 60, 0
1, 18456, Note_on_c, 0, 72, 0
1, 18456, Note_on_c, 0, 65, 0
1, 18480, Note_on_c, 0, 77, 71
1, 18480, Note_on_c, 0, 60, 50
1, 18480, Note_on_c, 0, 65, 47
1, 18528, Note_on_c, 0, 77, 0
1, 18540, Note_on_c, 0, 72, 71
1, 18576, Note_on_c, 0, 65, 0
1, 18576, Note_on_c, 0, 60, 0
1, 18588, Note_on_c, 0, 72, 0
1, 18600, Note_on_c, 0, 81, 54
1, 18600, Note_on_c, 0, 60, 43
1, 18600, Note_on_c, 0, 65, 45
1, 18648, Note_on_c, 0, 81, 0
1, 18660, Note_on_c, 0, 77, 50
1, 18696, Note_on_c, 0, 65, 0
1, 18696, Note_on_c, 0, 60, 0
1, 18708, Note_on_c, 0, 77, 0
1, 18720, Note_on_c, 0, 65, 61
1, 18720, Note_on_c, 0, 60, 60
1, 18720, Note_on_c, 0, 84, 114
1, 18816, Note_on_c, 0, 60, 0
1, 18816, Note_on_c, 0, 65, 0
1, 18840, Note_on_c, 0, 60, 56
1, 18840, Note_on_c, 0, 65, 58
1, 18864, Note_on_c, 0, 84, 0
1, 18900, Note_on_c, 0, 81, 89
1, 18936, Note_on_c, 0, 65, 0
1, 18936, Note_on_c, 0, 60, 0
1, 18948, Note_on_c, 0, 81, 0
1, 18960, Note_on_c, 0, 83, 52
1, 18960, Note_on_c, 0, 60, 66
1, 18960, Note_on_c, 0, 65, 56
1, 18972, Note_on_c, 0, 83, 0
1, 18975, Note_on_c, 0, 81, 61
1, 18987, Note_on_c, 0, 81, 0
1, 18990, Note_on_c, 0, 83, 50
1, 19002, Note_on_c, 0, 83, 0
1, 19005, Note_on_c, 0, 81, 42
1, 19017, Note_on_c, 0, 81, 0
1, 19020, Note_on_c, 0, 83, 50
1, 19032, Note_on_c, 0, 83, 0
1, 19035, Note_on_c, 0, 81, 52
1, 19047, Note_on_c, 0, 81, 0
1, 19050, Note_on_c, 0, 83, 45
1, 19056, Note_on_c, 0, 65, 0
1, 19056, Note_on_c, 0, 60, 0
1, 19062, Note_on_c, 0, 83, 0
1, 19065, Note_on_c, 0, 81, 61
1, 19077, Note_on_c, 0, 81, 0
1, 19080, Note_on_c, 0, 83, 58
1, 19080, Note_on_c, 0, 60, 58
1, 19080, Note_on_c, 0, 65, 48
1, 19092, Note_on_c, 0, 83, 0
1, 19095, Note_on_c, 0, 81, 61
1, 19107, Note_on_c, 0, 81, 0
1, 19110, Note_on_c, 0, 83, 66
1, 19122, Note_on_c, 0, 83, 0
1, 19125, Note_on_c, 0, 81, 52
1, 19137, Note_on_c, 0, 81, 0
1, 19140, Note_on_c, 0, 83, 42
1, 19152, Note_on_c, 0, 83, 0
1, 19155, Note_on_c, 0, 81, 42
1, 19167, Note_on_c, 0, 81, 0
1, 19170, Note_on_c, 0, 83, 50
1, 19176, Note_on_c, 0, 65, 0
1, 19176, Note_on_c, 0, 60, 0
1, 19182, Note_on_c, 0, 83, 0
1, 19185, Note_on_c, 0, 81, 71
1, 19197, Note_on_c, 0, 81, 0
1, 19200, Note_on_c, 0, 60, 57
1, 19200, Note_on_c, 0, 64, 69
1, 19296, Note_on_c, 0, 64, 0
1, 19296, Note_on_c, 0, 60, 0
1, 19320, Note_on_c, 0, 64, 54
1, 19320, Note_on_c, 0, 72, 66
1, 19320, Note_on_c, 0, 60, 57
1, 19416, Note_on_c, 0, 60, 0
1, 19416, Note_on_c, 0, 72, 0
1, 19416, Note_on_c, 0, 64, 0
1, 19440, Note_on_c, 0, 76, 66
1, 19440, Note_on_c, 0, 60, 44
1, 19440, Note_on_c, 0, 64, 65
1, 19488, Note_on_c, 0, 76, 0
1, 19500, Note_on_c, 0, 72, 89
1, 19536, Note_on_c, 0, 64, 0
1, 19536, Note_on_c, 0, 60, 0
1, 19548, Note_on_c, 0, 72, 0
1, 19560, Note_on_c, 0, 79, 81
1, 19560, Note_on_c, 0, 60, 44
1, 19560, Note_on_c, 0, 64, 43
1, 19608, Note_on_c, 0, 79, 0
1, 19620, Note_on_c, 0, 76, 83
1, 19656, Note_on_c, 0, 64, 0
1, 19656, Note_on_c, 0, 60, 0
1, 19668, Note_on_c, 0, 76, 0
1, 19680, Note_on_c, 0, 60, 48
1, 19680, Note_on_c, 0, 84, 77
1, 19680, Note_on_c, 0, 64, 61
1, 19776, Note_on_c, 0, 64, 0
1, 19776, Note_on_c, 0, 60, 0
1, 19800, Note_on_c, 0, 64, 81
1, 19800, Note_on_c, 0, 60, 74
1, 19824, Note_on_c, 0, 84, 0
1, 19860, Note_on_c, 0, 79, 77
1, 19896, Note_on_c, 0, 60, 0
1, 19896, Note_on_c, 0, 64, 0
1, 19908, Note_on_c, 0, 79, 0
1, 19920, Note_on_c, 0, 81, 58
1, 19920, Note_on_c, 0, 64, 69
1, 19920, Note_on_c, 0, 60, 69
1, 19932, Note_on_c, 0, 81, 0
1, 19935, Note_on_c, 0, 79, 54
1, 19947, Note_on_c, 0, 79, 0
1, 19950, Note_on_c, 0, 81, 52
1, 19962, Note_on_c, 0, 81, 0
1, 19965, Note_on_c, 0, 79, 52
1, 19977, Note_on_c, 0, 79, 0
1, 19980, Note_on_c, 0, 81, 54
1, 19992, Note_on_c, 0, 81, 0
1, 19995, Note_on_c, 0, 79, 54
1, 20007, Note_on_c, 0, 79, 0
1, 20010, Note_on_c, 0, 81, 55
1, 20016, Note_on_c, 0, 60, 0
1, 20016, Note_on_c, 0, 64, 0
1, 20022, Note_on_c, 0, 81, 0
1, 20025, Note_on_c, 0, 79, 61
1, 20037, Note_on_c, 0, 79, 0
1, 20040, Note_on_c, 0, 81, 61
1, 20040, Note_on_c, 0, 64, 71
1, 20040, Note_on_c, 0, 60, 77
1, 20052, Note_on_c, 0, 81, 0
1, 20055, Note_on_c, 0, 79, 54
1, 20067, Note_on_c, 0, 79, 0
1, 20070, Note_on_c, 0, 81, 61
1, 20082, Note_on_c, 0, 81, 0
1, 20085, Note_on_c, 0, 79, 61
1, 20097, Note_on_c, 0, 79, 0
1, 20100, Note_on_c, 0, 81, 58
1, 20112, Note_on_c, 0, 81, 0
1, 20115, Note_on_c, 0, 79, 58
1, 20127, Note_on_c, 0, 79, 0
1, 20130, Note_on_c, 0, 81, 54
1, 20136, Note_on_c, 0, 60, 0
1, 20136, Note_on_c, 0, 64, 0
1, 20142, Note_on_c, 0, 81, 0
1, 20145, Note_on_c, 0, 79, 58
1, 20157, Note_on_c, 0, 79, 0
1, 20160, Note_on_c, 0, 55, 69
1, 20160, Note_on_c, 0, 79, 71
1, 20160, Note_on_c, 0, 62, 69
1, 20208, Note_on_c, 0, 79, 0
1, 20220, Note_on_c, 0, 77, 58
1, 20256, Note_on_c, 0, 62, 0
1, 20268, Note_on_c, 0, 77, 0
1, 20280, Note_on_c, 0, 86, 71
1, 20280, Note_on_c, 0, 59, 67
1, 20328, Note_on_c, 0, 86, 0
1, 20340, Note_on_c, 0, 77, 83
1, 20376, Note_on_c, 0, 59, 0
1, 20388, Note_on_c, 0, 77, 0
1, 20400, Note_on_c, 0, 60, 61
1, 20400, Note_on_c, 0, 76, 81
1, 20496, Note_on_c, 0, 76, 0
1, 20496, Note_on_c, 0, 60, 0
1, 20520, Note_on_c, 0, 64, 77
1, 20520, Note_on_c, 0, 84, 80
1, 20616, Note_on_c, 0, 84, 0
1, 20616, Note_on_c, 0, 55, 0
1, 20616, Note_on_c, 0, 64, 0
1, 20640, Note_on_c, 0, 62, 58
1, 20640, Note_on_c, 0, 79, 77
1, 20640, Note_on_c, 0, 55, 64
1, 20688, Note_on_c, 0, 79, 0
1, 20700, Note_on_c, 0, 77, 83
1, 20736, Note_on_c, 0, 62, 0
1, 20748, Note_on_c, 0, 77, 0
1, 20760, Note_on_c, 0, 59, 53
1, 20760, Note_on_c, 0, 86, 71
1, 20808, Note_on_c, 0, 86, 0
1, 20820, Note_on_c, 0, 77, 97
1, 20856, Note_on_c, 0, 59, 0
1, 20868, Note_on_c, 0, 77, 0
1, 20880, Note_on_c, 0, 60, 53
1, 20880, Note_on_c, 0, 76, 89
1, 20976, Note_on_c, 0, 76, 0
1, 20976, Note_on_c, 0, 60, 0
1, 21000, Note_on_c, 0, 64, 64
1, 21000, Note_on_c, 0, 84, 54
1, 21096, Note_on_c, 0, 84, 0
1, 21096, Note_on_c, 0, 64, 0
1, 21096, Note_on_c, 0, 55, 0
1, 21120, Note_on_c, 0, 55, 61
1, 21120, Note_on_c, 0, 62, 49
1, 21180, Note_on_c, 0, 77, 54
1, 21228, Note_on_c, 0, 77, 0
1, 21240, Note_on_c, 0, 86, 83
1, 21288, Note_on_c, 0, 86, 0
1, 21300, Note_on_c, 0, 77, 83
1, 21312, Note_on_c, 0, 62, 0
1, 21312, Note_on_c, 0, 55, 0
1, 21348, Note_on_c, 0, 77, 0
1, 21360, Note_on_c, 0, 60, 47
1, 21360, Note_on_c, 0, 55, 58
1, 21420, Note_on_c, 0, 76, 71
1, 21468, Note_on_c, 0, 76, 0
1, 21480, Note_on_c, 0, 84, 61
1, 21528, Note_on_c, 0, 84, 0
1, 21540, Note_on_c, 0, 76, 89
1, 21552, Note_on_c, 0, 55, 0
1, 21552, Note_on_c, 0, 60, 0
1, 21588, Note_on_c, 0, 76, 0
1, 21600, Note_on_c, 0, 55, 71
1, 21600, Note_on_c, 0, 60, 50
1, 21600, Note_on_c, 0, 77, 83
1, 21612, Note_on_c, 0, 77, 0
1, 21615, Note_on_c, 0, 76, 97
1, 21627, Note_on_c, 0, 76, 0
1, 21630, Note_on_c, 0, 77, 71
1, 21642, Note_on_c, 0, 77, 0
1, 21645, Note_on_c, 0, 76, 97
1, 21657, Note_on_c, 0, 76, 0
1, 21660, Note_on_c, 0, 77, 77
1, 21672, Note_on_c, 0, 77, 0
1, 21675, Note_on_c, 0, 76, 77
1, 21687, Note_on_c, 0, 76, 0
1, 21690, Note_on_c, 0, 77, 66
1, 21696, Note_on_c, 0, 60, 0
1, 21702, Note_on_c, 0, 77, 0
1, 21705, Note_on_c, 0, 76, 77
1, 21717, Note_on_c, 0, 76, 0
1, 21720, Note_on_c, 0, 59, 54
1, 21720, Note_on_c, 0, 74, 83
1, 21816, Note_on_c, 0, 74, 0
1, 21816, Note_on_c, 0, 55, 0
1, 21816, Note_on_c, 0, 59, 0
1, 21960, Note_on_c, 0, 79, 58
1, 22056, Note_on_c, 0, 79, 0
1, 22080, Note_on_c, 0, 79, 58
1, 22128, Note_on_c, 0, 79, 0
1, 22140, Note_on_c, 0, 78, 66
1, 22188, Note_on_c, 0, 78, 0
1, 22200, Note_on_c, 0, 81, 71
1, 22248, Note_on_c, 0, 81, 0
1, 22260, Note_on_c, 0, 79, 61
1, 22308, Note_on_c, 0, 79, 0
1, 22320, Note_on_c, 0, 83, 71
1, 22368, Note_on_c, 0, 83, 0
1, 22380, Note_on_c, 0, 79, 66
1, 22428, Note_on_c, 0, 79, 0
1, 22440, Note_on_c, 0, 78, 71
1, 22488, Note_on_c, 0, 78, 0
1, 22500, Note_on_c, 0, 79, 66
1, 22548, Note_on_c, 0, 79, 0
1, 22560, Note_on_c, 0, 47, 42
1, 22560, Note_on_c, 0, 74, 77
1, 22560, Note_on_c, 0, 59, 50
1, 22608, Note_on_c, 0, 74, 0
1, 22620, Note_on_c, 0, 79, 61
1, 22656, Note_on_c, 0, 59, 0
1, 22656, Note_on_c, 0, 47, 0
1, 22668, Note_on_c, 0, 79, 0
1, 22680, Note_on_c, 0, 76, 97
1, 22680, Note_on_c, 0, 60, 52
1, 22680, Note_on_c, 0, 48, 60
1, 22728, Note_on_c, 0, 76, 0
1, 22740, Note_on_c, 0, 79, 58
1, 22776, Note_on_c, 0, 48, 0
1, 22776, Note_on_c, 0, 60, 0
1, 22788, Note_on_c, 0, 79, 0
1, 22800, Note_on_c, 0, 59, 54
1, 22800, Note_on_c, 0, 47, 43
1, 22800, Note_on_c, 0, 74, 71
1, 22896, Note_on_c, 0, 74, 0
1, 22896, Note_on_c, 0, 47, 0
1, 22896, Note_on_c, 0, 59, 0
1, 22920, Note_on_c, 0, 79, 54
1, 23016, Note_on_c, 0, 79, 0
1, 23040, Note_on_c, 0, 79, 45
1, 23088, Note_on_c, 0, 79, 0
1, 23100, Note_on_c, 0, 78, 77
1, 23148, Note_on_c, 0, 78, 0
1, 23160, Note_on_c, 0, 81, 50
1, 23208, Note_on_c, 0, 81, 0
1, 23220, Note_on_c, 0, 79, 54
1, 23268, Note_on_c, 0, 79, 0
1, 23280, Note_on_c, 0, 83, 46
1, 23328, Note_on_c, 0, 83, 0
1, 23340, Note_on_c, 0, 79, 47
1, 23388, Note_on_c, 0, 79, 0
1, 23400, Note_on_c, 0, 78, 43
1, 23448, Note_on_c, 0, 78, 0
1, 23460, Note_on_c, 0, 79, 52
1, 23508, Note_on_c, 0, 79, 0
1, 23520, Note_on_c, 0, 47, 47
1, 23520, Note_on_c, 0, 74, 66
1, 23520, Note_on_c, 0, 59, 44
1, 23568, Note_on_c, 0, 74, 0
1, 23580, Note_on_c, 0, 79, 52
1, 23616, Note_on_c, 0, 59, 0
1, 23616, Note_on_c, 0, 47, 0
1, 23628, Note_on_c, 0, 79, 0
1, 23640, Note_on_c, 0, 72, 89
1, 23640, Note_on_c, 0, 57, 43
1, 23640, Note_on_c, 0, 45, 1
1, 23688, Note_on_c, 0, 72, 0
1, 23700, Note_on_c, 0, 79, 58
1, 23736, Note_on_c, 0, 45, 0
1, 23736, Note_on_c, 0, 57, 0
1, 23748, Note_on_c, 0, 79, 0
1, 23760, Note_on_c, 0, 55, 42
1, 23760, Note_on_c, 0, 43, 42
1, 23760, Note_on_c, 0, 71, 75
1, 23856, Note_on_c, 0, 71, 0
1, 23856, Note_on_c, 0, 43, 0
1, 23856, Note_on_c, 0, 55, 0
1, 23880, Note_on_c, 0, 47, 58
1, 23880, Note_on_c, 0, 74, 66
1, 23928, Note_on_c, 0, 74, 0
1, 23940, Note_on_c, 0, 79, 47
1, 23976, Note_on_c, 0, 47, 0
1, 23988, Note_on_c, 0, 79, 0
1, 24000, Note_on_c, 0, 76, 83
1, 24000, Note_on_c, 0, 48, 50
1, 24048, Note_on_c, 0, 76, 0
1, 24060, Note_on_c, 0, 79, 75
1, 24096, Note_on_c, 0, 48, 0
1, 24108, Note_on_c, 0, 79, 0
1, 24120, Note_on_c, 0, 50, 77
1, 24120, Note_on_c, 0, 74, 77
1, 24168, Note_on_c, 0, 74, 0
1, 24180, Note_on_c, 0, 79, 77
1, 24216, Note_on_c, 0, 50, 0
1, 24228, Note_on_c, 0, 79, 0
1, 24240, Note_on_c, 0, 52, 83
1, 24240, Note_on_c, 0, 72, 77
1, 24288, Note_on_c, 0, 72, 0
1, 24300, Note_on_c, 0, 76, 97
1, 24336, Note_on_c, 0, 52, 0
1, 24348, Note_on_c, 0, 76, 0
1, 24360, Note_on_c, 0, 49, 71
1, 24360, Note_on_c, 0, 81, 89
1, 24408, Note_on_c, 0, 81, 0
1, 24420, Note_on_c, 0, 79, 83
1, 24456, Note_on_c, 0, 49, 0
1, 24468, Note_on_c, 0, 79, 0
1, 24480, Note_on_c, 0, 78, 89
1, 24480, Note_on_c, 0, 50, 61
1, 24528, Note_on_c, 0, 78, 0
1, 24540, Note_on_c, 0, 81, 89
1, 24576, Note_on_c, 0, 50, 0
1, 24588, Note_on_c, 0, 81, 0
1, 24600, Note_on_c, 0, 52, 47
1, 24600, Note_on_c, 0, 76, 83
1, 24648, Note_on_c, 0, 76, 0
1, 24660, Note_on_c, 0, 81, 95
1, 24696, Note_on_c, 0, 52, 0
1, 24708, Note_on_c, 0, 81, 0
1, 24720, Note_on_c, 0, 54, 61
1, 24720, Note_on_c, 0, 74, 89
1, 24768, Note_on_c, 0, 74, 0
1, 24780, Note_on_c, 0, 78, 95
1, 24816, Note_on_c, 0, 54, 0
1, 24828, Note_on_c, 0, 78, 0
1, 24840, Note_on_c, 0, 51, 50
1, 24840, Note_on_c, 0, 83, 97
1, 24888, Note_on_c, 0, 83, 0
1, 24900, Note_on_c, 0, 81, 77
1, 24936, Note_on_c, 0, 51, 0
1, 24948, Note_on_c, 0, 81, 0
1, 24960, Note_on_c, 0, 79, 71
1, 24960, Note_on_c, 0, 52, 46
1, 25008, Note_on_c, 0, 79, 0
1, 25020, Note_on_c, 0, 83, 83
1, 25056, Note_on_c, 0, 52, 0
1, 25068, Note_on_c, 0, 83, 0
1, 25080, Note_on_c, 0, 54, 50
1, 25080, Note_on_c, 0, 78, 89
1, 25128, Note_on_c, 0, 78, 0
1, 25140, Note_on_c, 0, 83, 89
1, 25176, Note_on_c, 0, 54, 0
1, 25188, Note_on_c, 0, 83, 0
1, 25200, Note_on_c, 0, 55, 67
1, 25200, Note_on_c, 0, 76, 103
1, 25248, Note_on_c, 0, 76, 0
1, 25260, Note_on_c, 0, 79, 77
1, 25296, Note_on_c, 0, 55, 0
1, 25308, Note_on_c, 0, 79, 0
1, 25320, Note_on_c, 0, 52, 54
1, 25320, Note_on_c, 0, 84, 89
1, 25368, Note_on_c, 0, 84, 0
1, 25380, Note_on_c, 0, 83, 89
1, 25416, Note_on_c, 0, 52, 0
1, 25428, Note_on_c, 0, 83, 0
1, 25440, Note_on_c, 0, 81, 66
1, 25440, Note_on_c, 0, 54, 61
1, 25488, Note_on_c, 0, 81, 0
1, 25500, Note_on_c, 0, 84, 89
1, 25536, Note_on_c, 0, 54, 0
1, 25548, Note_on_c, 0, 84, 0
1, 25560, Note_on_c, 0, 55, 61
1, 25560, Note_on_c, 0, 79, 71
1, 25608, Note_on_c, 0, 79, 0
1, 25620, Note_on_c, 0, 84, 97
1, 25656, Note_on_c, 0, 55, 0
1, 25668, Note_on_c, 0, 84, 0
1, 25680, Note_on_c, 0, 57, 42
1, 25680, Note_on_c, 0, 78, 66
1, 25728, Note_on_c, 0, 78, 0
1, 25740, Note_on_c, 0, 81, 89
1, 25776, Note_on_c, 0, 57, 0
1, 25788, Note_on_c, 0, 81, 0
1, 25800, Note_on_c, 0, 54, 43
1, 25800, Note_on_c, 0, 86, 77
1, 25848, Note_on_c, 0, 86, 0
1, 25860, Note_on_c, 0, 84, 83
1, 25896, Note_on_c, 0, 54, 0
1, 25908, Note_on_c, 0, 84, 0
1, 25920, Note_on_c, 0, 83, 66
1, 25920, Note_on_c, 0, 55, 43
1, 25968, Note_on_c, 0, 83, 0
1, 25980, Note_on_c, 0, 86, 77
1, 26016, Note_on_c, 0, 55, 0
1, 26028, Note_on_c, 0, 86, 0
1, 26040, Note_on_c, 0, 59, 52
1, 26040, Note_on_c, 0, 79, 61
1, 26088, Note_on_c, 0, 79, 0
1, 26100, Note_on_c, 0, 81, 71
1, 26136, Note_on_c, 0, 59, 0
1, 26148, Note_on_c, 0, 81, 0
1, 26160, Note_on_c, 0, 60, 58
1, 26160, Note_on_c, 0, 83, 66
1, 26172, Note_on_c, 0, 83, 0
1, 26175, Note_on_c, 0, 81, 61
1, 26187, Note_on_c, 0, 81, 0
1, 26190, Note_on_c, 0, 83, 61
1, 26202, Note_on_c, 0, 83, 0
1, 26205, Note_on_c, 0, 81, 54
1, 26217, Note_on_c, 0, 81, 0
1, 26220, Note_on_c, 0, 83, 54
1, 26232, Note_on_c, 0, 83, 0
1, 26235, Note_on_c, 0, 81, 50
1, 26247, Note_on_c, 0, 81, 0
1, 26250, Note_on_c, 0, 83, 42
1, 26256, Note_on_c, 0, 60, 0
1, 26262, Note_on_c, 0, 83, 0
1, 26265, Note_on_c, 0, 81, 47
1, 26277, Note_on_c, 0, 81, 0
1, 26280, Note_on_c, 0, 62, 61
1, 26280, Note_on_c, 0, 83, 75
1, 26292, Note_on_c, 0, 83, 0
1, 26295, Note_on_c, 0, 81, 58
1, 26307, Note_on_c, 0, 81, 0
1, 26310, Note_on_c, 0, 83, 66
1, 26322, Note_on_c, 0, 83, 0
1, 26325, Note_on_c, 0, 81, 54
1, 26337, Note_on_c, 0, 81, 0
1, 26340, Note_on_c, 0, 83, 71
1, 26352, Note_on_c, 0, 83, 0
1, 26355, Note_on_c, 0, 81, 47
1, 26367, Note_on_c, 0, 81, 0
1, 26370, Note_on_c, 0, 83, 66
1, 26376, Note_on_c, 0, 62, 0
1, 26382, Note_on_c, 0, 83, 0
1, 26385, Note_on_c, 0, 81, 61
1, 26397, Note_on_c, 0, 81, 0
1, 26400, Note_on_c, 0, 55, 52
1, 26400, Note_on_c, 0, 79, 52
1, 26496, Note_on_c, 0, 55, 0
1, 26520, Note_on_c, 0, 50, 77
1, 26592, Note_on_c, 0, 79, 0
1, 26616, Note_on_c, 0, 50, 0
1, 26640, Note_on_c, 0, 43, 44
1, 26760, Note_on_c, 0, 70, 71
1, 26760, Note_on_c, 0, 74, 69
1, 26832, Note_on_c, 0, 43, 0
1, 26856, Note_on_c, 0, 74, 0
1, 26856, Note_on_c, 0, 70, 0
1, 26880, Note_on_c, 0, 75, 69
1, 26880, Note_on_c, 0, 72, 69
1, 26976, Note_on_c, 0, 72, 0
1, 26976, Note_on_c, 0, 75, 0
1, 27000, Note_on_c, 0, 55, 42
1, 27000, Note_on_c, 0, 43, 47
1, 27096, Note_on_c, 0, 43, 0
1, 27096, Note_on_c, 0, 55, 0
1, 27120, Note_on_c, 0, 45, 43
1, 27120, Note_on_c, 0, 57, 42
1, 27216, Note_on_c, 0, 57, 0
1, 27216, Note_on_c, 0, 45, 0
1, 27240, Note_on_c, 0, 74, 66
1, 27240, Note_on_c, 0, 70, 74
1, 27336, Note_on_c, 0, 70, 0
1, 27336, Note_on_c, 0, 74, 0
1, 27360, Note_on_c, 0, 72, 51
1, 27360, Note_on_c, 0, 69, 80
1, 27456, Note_on_c, 0, 69, 0
1, 27456, Note_on_c, 0, 72, 0
1, 27480, Note_on_c, 0, 55, 43
1, 27480, Note_on_c, 0, 43, 44
1, 27576, Note_on_c, 0, 43, 0
1, 27576, Note_on_c, 0, 55, 0
1, 27600, Note_on_c, 0, 54, 44
1, 27600, Note_on_c, 0, 42, 51
1, 27696, Note_on_c, 0, 42, 0
1, 27696, Note_on_c, 0, 54, 0
1, 27720, Note_on_c, 0, 69, 61
1, 27720, Note_on_c, 0, 72, 54
1, 27816, Note_on_c, 0, 72, 0
1, 27816, Note_on_c, 0, 69, 0
1, 27840, Note_on_c, 0, 70, 83
1, 27840, Note_on_c, 0, 74, 77
1, 27936, Note_on_c, 0, 74, 0
1, 27936, Note_on_c, 0, 70, 0
1, 27960, Note_on_c, 0, 54, 57
1, 27960, Note_on_c, 0, 42, 44
1, 28056, Note_on_c, 0, 42, 0
1, 28056, Note_on_c, 0, 54, 0
1, 28080, Note_on_c, 0, 55, 34
1, 28080, Note_on_c, 0, 43, 30
1, 28176, Note_on_c, 0, 43, 0
1, 28176, Note_on_c, 0, 55, 0
1, 28200, Note_on_c, 0, 69, 47
1, 28200, Note_on_c, 0, 72, 44
1, 28296, Note_on_c, 0, 72, 0
1, 28296, Note_on_c, 0, 69, 0
1, 28320, Note_on_c, 0, 70, 42
1, 28320, Note_on_c, 0, 67, 61
1, 28416, Note_on_c, 0, 67, 0
1, 28416, Note_on_c, 0, 70, 0
1, 28440, Note_on_c, 0, 41, 58
1, 28440, Note_on_c, 0, 53, 43
1, 28536, Note_on_c, 0, 53, 0
1, 28536, Note_on_c, 0, 41, 0
1, 28560, Note_on_c, 0, 39, 43
1, 28560, Note_on_c, 0, 51, 42
1, 28656, Note_on_c, 0, 51, 0
1, 28656, Note_on_c, 0, 39, 0
1, 28680, Note_on_c, 0, 66, 80
1, 28680, Note_on_c, 0, 69, 80
1, 28776, Note_on_c, 0, 69, 0
1, 28776, Note_on_c, 0, 66, 0
1, 28800, Note_on_c, 0, 70, 61
1, 28800, Note_on_c, 0, 67, 74
1, 28896, Note_on_c, 0, 67, 0
1, 28896, Note_on_c, 0, 70, 0
1, 28920, Note_on_c, 0, 38, 42
1, 28920, Note_on_c, 0, 50, 42
1, 29016, Note_on_c, 0, 50, 0
1, 29016, Note_on_c, 0, 38, 0
1, 29040, Note_on_c, 0, 49, 42
1, 29040, Note_on_c, 0, 37, 47
1, 29136, Note_on_c, 0, 37, 0
1, 29136, Note_on_c, 0, 49, 0
1, 29160, Note_on_c, 0, 49, 49
1, 29160, Note_on_c, 0, 37, 42
1, 29160, Note_on_c, 0, 70, 58
1, 29160, Note_on_c, 0, 67, 77
1, 29256, Note_on_c, 0, 67, 0
1, 29256, Note_on_c, 0, 70, 0
1, 29256, Note_on_c, 0, 37, 0
1, 29256, Note_on_c, 0, 49, 0
1, 29280, Note_on_c, 0, 38, 1
1, 29280, Note_on_c, 0, 70, 58
1, 29280, Note_on_c, 0, 67, 89
1, 29280, Note_on_c, 0, 50, 40
1, 29376, Note_on_c, 0, 67, 0
1, 29376, Note_on_c, 0, 70, 0
1, 29400, Note_on_c, 0, 69, 47
1, 29400, Note_on_c, 0, 66, 77
1, 29472, Note_on_c, 0, 50, 0
1, 29472, Note_on_c, 0, 38, 0
1, 29496, Note_on_c, 0, 66, 0
1, 29496, Note_on_c, 0, 69, 0
1, 29640, Note_on_c, 0, 79, 66
1, 29672, Note_on_c, 0, 79, 0
1, 29680, Note_on_c, 0, 81, 77
1, 29712, Note_on_c, 0, 81, 0
1, 29720, Note_on_c, 0, 83, 45
1, 29752, Note_on_c, 0, 83, 0
1, 29760, Note_on_c, 0, 59, 54
1, 29760, Note_on_c, 0, 55, 77
1, 29760, Note_on_c, 0, 79, 71
1, 29856, Note_on_c, 0, 79, 0
1, 29880, Note_on_c, 0, 74, 66
1, 29912, Note_on_c, 0, 74, 0
1, 29920, Note_on_c, 0, 76, 83
1, 29952, Note_on_c, 0, 76, 0
1, 29952, Note_on_c, 0, 55, 0
1, 29952, Note_on_c, 0, 59, 0
1, 29960, Note_on_c, 0, 78, 58
1, 29992, Note_on_c, 0, 78, 0
1, 30000, Note_on_c, 0, 79, 61
1, 30096, Note_on_c, 0, 79, 0
1, 30120, Note_on_c, 0, 71, 77
1, 30152, Note_on_c, 0, 71, 0
1, 30160, Note_on_c, 0, 72, 61
1, 30192, Note_on_c, 0, 72, 0
1, 30200, Note_on_c, 0, 74, 61
1, 30232, Note_on_c, 0, 74, 0
1, 30240, Note_on_c, 0, 71, 62
1, 30336, Note_on_c, 0, 71, 0
1, 30360, Note_on_c, 0, 67, 42
1, 30392, Note_on_c, 0, 67, 0
1, 30400, Note_on_c, 0, 69, 61
1, 30432, Note_on_c, 0, 69, 0
1, 30440, Note_on_c, 0, 71, 54
1, 30472, Note_on_c, 0, 71, 0
1, 30480, Note_on_c, 0, 67, 61
1, 30576, Note_on_c, 0, 67, 0
1, 30600, Note_on_c, 0, 55, 71
1, 30600, Note_on_c, 0, 59, 43
1, 30600, Note_on_c, 0, 74, 61
1, 30696, Note_on_c, 0, 74, 0
1, 30696, Note_on_c, 0, 59, 0
1, 30696, Note_on_c, 0, 55, 0
1, 30720, Note_on_c, 0, 60, 64
1, 30720, Note_on_c, 0, 48, 50
1, 30720, Note_on_c, 0, 64, 71
1, 30816, Note_on_c, 0, 64, 0
1, 30840, Note_on_c, 0, 72, 66
1, 30872, Note_on_c, 0, 72, 0
1, 30880, Note_on_c, 0, 71, 61
1, 30912, Note_on_c, 0, 71, 0
1, 30912, Note_on_c, 0, 48, 0
1, 30912, Note_on_c, 0, 60, 0
1, 30920, Note_on_c, 0, 69, 61
1, 30952, Note_on_c, 0, 69, 0
1, 30960, Note_on_c, 0, 59, 44
1, 30960, Note_on_c, 0, 50, 42
1, 30960, Note_on_c, 0, 67, 66
1, 31056, Note_on_c, 0, 67, 0
1, 31056, Note_on_c, 0, 59, 0
1, 31080, Note_on_c, 0, 57, 53
1, 31080, Note_on_c, 0, 66, 47
1, 31176, Note_on_c, 0, 66, 0
1, 31176, Note_on_c, 0, 57, 0
1, 31176, Note_on_c, 0, 50, 0
1, 31200, Note_on_c, 0, 55, 52
1, 31200, Note_on_c, 0, 67, 61
1, 31296, Note_on_c, 0, 55, 0
1, 31320, Note_on_c, 0, 50, 58
1, 31392, Note_on_c, 0, 67, 0
1, 31416, Note_on_c, 0, 50, 0
1, 31440, Note_on_c, 0, 43, 42
1, 31560, Note_on_c, 0, 79, 58
1, 31592, Note_on_c, 0, 79, 0
1, 31600, Note_on_c, 0, 81, 71
1, 31632, Note_on_c, 0, 81, 0
1, 31632, Note_on_c, 0, 43, 0
1, 31640, Note_on_c, 0, 83, 66
1, 31672, Note_on_c, 0, 83, 0
1, 31680, Note_on_c, 0, 55, 54
1, 31680, Note_on_c, 0, 59, 43
1, 31680, Note_on_c, 0, 79, 58
1, 31776, Note_on_c, 0, 79, 0
1, 31800, Note_on_c, 0, 74, 83
1, 31832, Note_on_c, 0, 74, 0
1, 31840, Note_on_c, 0, 76, 89
1, 31872, Note_on_c, 0, 76, 0
1, 31872, Note_on_c, 0, 59, 0
1, 31872, Note_on_c, 0, 55, 0
1, 31880, Note_on_c, 0, 78, 52
1, 31912, Note_on_c, 0, 78, 0
1, 31920, Note_on_c, 0, 79, 45
1, 32016, Note_on_c, 0, 79, 0
1, 32040, Note_on_c, 0, 71, 71
1, 32072, Note_on_c, 0, 71, 0
1, 32080, Note_on_c, 0, 72, 66
1, 32112, Note_on_c, 0, 72, 0
1, 32120, Note_on_c, 0, 74, 61
1, 32152, Note_on_c, 0, 74, 0
1, 32160, Note_on_c, 0, 71, 42
1, 32256, Note_on_c, 0, 71, 0
1, 32280, Note_on_c, 0, 47, 44
1, 32280, Note_on_c, 0, 74, 66
1, 32280, Note_on_c, 0, 59, 45
1, 32328, Note_on_c, 0, 74, 0
1, 32340, Note_on_c, 0, 86, 80
1, 32376, Note_on_c, 0, 59, 0
1, 32376, Note_on_c, 0, 47, 0
1, 32388, Note_on_c, 0, 86, 0
1, 32400, Note_on_c, 0, 59, 42
1, 32400, Note_on_c, 0, 47, 40
1, 32400, Note_on_c, 0, 74, 61
1, 32448, Note_on_c, 0, 74, 0
1, 32460, Note_on_c, 0, 86, 43
1, 32496, Note_on_c, 0, 47, 0
1, 32496, Note_on_c, 0, 59, 0
1, 32508, Note_on_c, 0, 86, 0
1, 32520, Note_on_c, 0, 47, 40
1, 32520, Note_on_c, 0, 59, 41
1, 32520, Note_on_c, 0, 74, 58
1, 32568, Note_on_c, 0, 74, 0
1, 32580, Note_on_c, 0, 86, 66
1, 32616, Note_on_c, 0, 59, 0
1, 32616, Note_on_c, 0, 47, 0
1, 32628, Note_on_c, 0, 86, 0
1, 32640, Note_on_c, 0, 48, 43
1, 32640, Note_on_c, 0, 76, 89
1, 32640, Note_on_c, 0, 60, 44
1, 32688, Note_on_c, 0, 76, 0
1, 32700, Note_on_c, 0, 86, 71
1, 32736, Note_on_c, 0, 60, 0
1, 32736, Note_on_c, 0, 48, 0
1, 32748, Note_on_c, 0, 86, 0
1, 32760, Note_on_c, 0, 76, 75
1, 32760, Note_on_c, 0, 60, 44
1, 32760, Note_on_c, 0, 48, 42
1, 32808, Note_on_c, 0, 76, 0
1, 32820, Note_on_c, 0, 86, 80
1, 32856, Note_on_c, 0, 48, 0
1, 32856, Note_on_c, 0, 60, 0
1, 32868, Note_on_c, 0, 86, 0
1, 32880, Note_on_c, 0, 57, 42
1, 32880, Note_on_c, 0, 45, 47
1, 32880, Note_on_c, 0, 76, 83
1, 32928, Note_on_c, 0, 76, 0
1, 32940, Note_on_c, 0, 84, 83
1, 32976, Note_on_c, 0, 45, 0
1, 32976, Note_on_c, 0, 57, 0
1, 32988, Note_on_c, 0, 84, 0
1, 33000, Note_on_c, 0, 57, 42
1, 33000, Note_on_c, 0, 45, 47
1, 33000, Note_on_c, 0, 76, 77
1, 33048, Note_on_c, 0, 76, 0
1, 33060, Note_on_c, 0, 84, 89
1, 33096, Note_on_c, 0, 45, 0
1, 33096, Note_on_c, 0, 57, 0
1, 33108, Note_on_c, 0, 84, 0
1, 33120, Note_on_c, 0, 42, 66
1, 33120, Note_on_c, 0, 74, 61
1, 33120, Note_on_c, 0, 54, 43
1, 33168, Note_on_c, 0, 74, 0
1, 33180, Note_on_c, 0, 84, 77
1, 33216, Note_on_c, 0, 54, 0
1, 33216, Note_on_c, 0, 42, 0
1, 33228, Note_on_c, 0, 84, 0
1, 33240, Note_on_c, 0, 74, 58
1, 33240, Note_on_c, 0, 54, 45
1, 33240, Note_on_c, 0, 42, 55
1, 33288, Note_on_c, 0, 74, 0
1, 33300, Note_on_c, 0, 84, 66
1, 33336, Note_on_c, 0, 42, 0
1, 33336, Note_on_c, 0, 54, 0
1, 33348, Note_on_c, 0, 84, 0
1, 33360, Note_on_c, 0, 55, 42
1, 33360, Note_on_c, 0, 43, 50
1, 33360, Note_on_c, 0, 74, 55
1, 33408, Note_on_c, 0, 74, 0
1, 33420, Note_on_c, 0, 83, 58
1, 33456, Note_on_c, 0, 43, 0
1, 33456, Note_on_c, 0, 55, 0
1, 33468, Note_on_c, 0, 83, 0
1, 33480, Note_on_c, 0, 55, 42
1, 33480, Note_on_c, 0, 43, 34
1, 33480, Note_on_c, 0, 74, 61
1, 33528, Note_on_c, 0, 74, 0
1, 33540, Note_on_c, 0, 83, 58
1, 33576, Note_on_c, 0, 43, 0
1, 33576, Note_on_c, 0, 55, 0
1, 33588, Note_on_c, 0, 83, 0
1, 33600, Note_on_c, 0, 36, 1
1, 33600, Note_on_c, 0, 72, 52
1, 33600, Note_on_c, 0, 48, 42
1, 33648, Note_on_c, 0, 72, 0
1, 33660, Note_on_c, 0, 81, 83
1, 33696, Note_on_c, 0, 48, 0
1, 33696, Note_on_c, 0, 36, 0
1, 33708, Note_on_c, 0, 81, 0
1, 33720, Note_on_c, 0, 72, 71
1, 33720, Note_on_c, 0, 36, 43
1, 33720, Note_on_c, 0, 48, 1
1, 33768, Note_on_c, 0, 72, 0
1, 33780, Note_on_c, 0, 81, 83
1, 33816, Note_on_c, 0, 48, 0
1, 33816, Note_on_c, 0, 36, 0
1, 33828, Note_on_c, 0, 81, 0
1, 33840, Note_on_c, 0, 50, 41
1, 33840, Note_on_c, 0, 38, 45
1, 33840, Note_on_c, 0, 69, 71
1, 33888, Note_on_c, 0, 69, 0
1, 33900, Note_on_c, 0, 78, 71
1, 33936, Note_on_c, 0, 38, 0
1, 33936, Note_on_c, 0, 50, 0
1, 33948, Note_on_c, 0, 78, 0
1, 33960, Note_on_c, 0, 38, 43
1, 33960, Note_on_c, 0, 50, 43
1, 33960, Note_on_c, 0, 69, 71
1, 34008, Note_on_c, 0, 69, 0
1, 34020, Note_on_c, 0, 78, 77
1, 34056, Note_on_c, 0, 50, 0
1, 34056, Note_on_c, 0, 38, 0
1, 34068, Note_on_c, 0, 78, 0
1, 34080, Note_on_c, 0, 55, 45
1, 34080, Note_on_c, 0, 71, 77
1, 34080, Note_on_c, 0, 79, 53
1, 34176, Note_on_c, 0, 55, 0
1, 34200, Note_on_c, 0, 50, 77
1, 34272, Note_on_c, 0, 79, 0
1, 34272, Note_on_c, 0, 71, 0
1, 34296, Note_on_c, 0, 50, 0
1, 34320, Note_on_c, 0, 43, 58
1, 34512, Note_on_c, 0, 43, 0
1, 34560, Note_on_c, 0, 55, 74
1, 34560, Note_on_c, 0, 59, 71
1, 34656, Note_on_c, 0, 59, 0
1, 34656, Note_on_c, 0, 55, 0
1, 34680, Note_on_c, 0, 67, 80
1, 34680, Note_on_c, 0, 55, 66
1, 34680, Note_on_c, 0, 59, 42
1, 34776, Note_on_c, 0, 59, 0
1, 34776, Note_on_c, 0, 55, 0
1, 34776, Note_on_c, 0, 67, 0
1, 34800, Note_on_c, 0, 55, 54
1, 34800, Note_on_c, 0, 59, 42
1, 34800, Note_on_c, 0, 71, 80
1, 34848, Note_on_c, 0, 71, 0
1, 34860, Note_on_c, 0, 67, 80
1, 34896, Note_on_c, 0, 59, 0
1, 34896, Note_on_c, 0, 55, 0
1, 34908, Note_on_c, 0, 67, 0
1, 34920, Note_on_c, 0, 55, 54
1, 34920, Note_on_c, 0, 59, 44
1, 34920, Note_on_c, 0, 74, 54
1, 34968, Note_on_c, 0, 74, 0
1, 34980, Note_on_c, 0, 71, 54
1, 35016, Note_on_c, 0, 59, 0
1, 35016, Note_on_c, 0, 55, 0
1, 35028, Note_on_c, 0, 71, 0
1, 35040, Note_on_c, 0, 59, 48
1, 35040, Note_on_c, 0, 77, 71
1, 35040, Note_on_c, 0, 55, 58
1, 35136, Note_on_c, 0, 55, 0
1, 35136, Note_on_c, 0, 59, 0
1, 35160, Note_on_c, 0, 55, 58
1, 35160, Note_on_c, 0, 59, 43
1, 35184, Note_on_c, 0, 77, 0
1, 35220, Note_on_c, 0, 74, 61
1, 35256, Note_on_c, 0, 59, 0
1, 35256, Note_on_c, 0, 55, 0
1, 35268, Note_on_c, 0, 74, 0
1, 35280, Note_on_c, 0, 55, 54
1, 35280, Note_on_c, 0, 59, 42
1, 35280, Note_on_c, 0, 76, 77
1, 35292, Note_on_c, 0, 76, 0
1, 35295, Note_on_c, 0, 74, 54
1, 35307, Note_on_c, 0, 74, 0
1, 35310, Note_on_c, 0, 76, 77
1, 35322, Note_on_c, 0, 76, 0
1, 35325, Note_on_c, 0, 74, 44
1, 35337, Note_on_c, 0, 74, 0
1, 35340, Note_on_c, 0, 76, 47
1, 35352, Note_on_c, 0, 76, 0
1, 35355, Note_on_c, 0, 74, 45
1, 35367, Note_on_c, 0, 74, 0
1, 35370, Note_on_c, 0, 76, 61
1, 35376, Note_on_c, 0, 59, 0
1, 35376, Note_on_c, 0, 55, 0
1, 35382, Note_on_c, 0, 76, 0
1, 35385, Note_on_c, 0, 74, 52
1, 35397, Note_on_c, 0, 74, 0
1, 35400, Note_on_c, 0, 59, 42
1, 35400, Note_on_c, 0, 55, 51
1, 35400, Note_on_c, 0, 76, 50
1, 35412, Note_on_c, 0, 76, 0
1, 35415, Note_on_c, 0, 74, 42
1, 35427, Note_on_c, 0, 74, 0
1, 35430, Note_on_c, 0, 76, 50
1, 35442, Note_on_c, 0, 76, 0
1, 35445, Note_on_c, 0, 74, 44
1, 35457, Note_on_c, 0, 74, 0
1, 35460, Note_on_c, 0, 76, 42
1, 35472, Note_on_c, 0, 76, 0
1, 35475, Note_on_c, 0, 74, 42
1, 35487, Note_on_c, 0, 74, 0
1, 35490, Note_on_c, 0, 76, 43
1, 35496, Note_on_c, 0, 55, 0
1, 35496, Note_on_c, 0, 59, 0
1, 35502, Note_on_c, 0, 76, 0
1, 35505, Note_on_c, 0, 74, 47
1, 35517, Note_on_c, 0, 74, 0
1, 35520, Note_on_c, 0, 59, 42
1, 35520, Note_on_c, 0, 86, 61
1, 35520, Note_on_c, 0, 55, 45
1, 35568, Note_on_c, 0, 86, 0
1, 35580, Note_on_c, 0, 84, 61
1, 35616, Note_on_c, 0, 55, 0
1, 35616, Note_on_c, 0, 59, 0
1, 35628, Note_on_c, 0, 84, 0
1, 35640, Note_on_c, 0, 83, 61
1, 35640, Note_on_c, 0, 55, 54
1, 35640, Note_on_c, 0, 59, 42
1, 35688, Note_on_c, 0, 83, 0
1, 35700, Note_on_c, 0, 81, 66
1, 35736, Note_on_c, 0, 59, 0
1, 35736, Note_on_c, 0, 55, 0
1, 35748, Note_on_c, 0, 81, 0
1, 35760, Note_on_c, 0, 55, 47
1, 35760, Note_on_c, 0, 59, 30
1, 35760, Note_on_c, 0, 79, 61
1, 35808, Note_on_c, 0, 79, 0
1, 35820, Note_on_c, 0, 77, 71
1, 35856, Note_on_c, 0, 59, 0
1, 35856, Note_on_c, 0, 55, 0
1, 35868, Note_on_c, 0, 77, 0
1, 35880, Note_on_c, 0, 55, 43
1, 35880, Note_on_c, 0, 59, 42
1, 35880, Note_on_c, 0, 76, 83
1, 35928, Note_on_c, 0, 76, 0
1, 35940, Note_on_c, 0, 74, 66
1, 35976, Note_on_c, 0, 59, 0
1, 35976, Note_on_c, 0, 55, 0
1, 35988, Note_on_c, 0, 74, 0
1, 36000, Note_on_c, 0, 60, 43
1, 36000, Note_on_c, 0, 76, 77
1, 36000, Note_on_c, 0, 55, 50
1, 36096, Note_on_c, 0, 55, 0
1, 36096, Note_on_c, 0, 76, 0
1, 36096, Note_on_c, 0, 60, 0
1, 36120, Note_on_c, 0, 67, 71
1, 36120, Note_on_c, 0, 55, 47
1, 36120, Note_on_c, 0, 60, 45
1, 36216, Note_on_c, 0, 60, 0
1, 36216, Note_on_c, 0, 55, 0
1, 36216, Note_on_c, 0, 67, 0
1, 36240, Note_on_c, 0, 55, 45
1, 36240, Note_on_c, 0, 60, 39
1, 36240, Note_on_c, 0, 72, 71
1, 36288, Note_on_c, 0, 72, 0
1, 36300, Note_on_c, 0, 67, 77
1, 36336, Note_on_c, 0, 60, 0
1, 36336, Note_on_c, 0, 55, 0
1, 36348, Note_on_c, 0, 67, 0
1, 36360, Note_on_c, 0, 55, 45
1, 36360, Note_on_c, 0, 60, 43
1, 36360, Note_on_c, 0, 76, 77
1, 36408, Note_on_c, 0, 76, 0
1, 36420, Note_on_c, 0, 72, 77
1, 36456, Note_on_c, 0, 60, 0
1, 36456, Note_on_c, 0, 55, 0
1, 36468, Note_on_c, 0, 72, 0
1, 36480, Note_on_c, 0, 60, 44
1, 36480, Note_on_c, 0, 79, 58
1, 36480, Note_on_c, 0, 55, 58
1, 36576, Note_on_c, 0, 55, 0
1, 36576, Note_on_c, 0, 60, 0
1, 36600, Note_on_c, 0, 55, 43
1, 36600, Note_on_c, 0, 60, 30
1, 36624, Note_on_c, 0, 79, 0
1, 36660, Note_on_c, 0, 76, 58
1, 36696, Note_on_c, 0, 60, 0
1, 36696, Note_on_c, 0, 55, 0
1, 36708, Note_on_c, 0, 76, 0
1, 36720, Note_on_c, 0, 55, 51
1, 36720, Note_on_c, 0, 60, 42
1, 36720, Note_on_c, 0, 77, 77
1, 36732, Note_on_c, 0, 77, 0
1, 36735, Note_on_c, 0, 76, 66
1, 36747, Note_on_c, 0, 76, 0
1, 36750, Note_on_c, 0, 77, 66
1, 36762, Note_on_c, 0, 77, 0
1, 36765, Note_on_c, 0, 76, 50
1, 36777, Note_on_c, 0, 76, 0
1, 36780, Note_on_c, 0, 77, 66
1, 36792, Note_on_c, 0, 77, 0
1, 36795, Note_on_c, 0, 76, 54
1, 36807, Note_on_c, 0, 76, 0
1, 36810, Note_on_c, 0, 77, 52
1, 36816, Note_on_c, 0, 60, 0
1, 36816, Note_on_c, 0, 55, 0
1, 36822, Note_on_c, 0, 77, 0
1, 36825, Note_on_c, 0, 76, 52
1, 36837, Note_on_c, 0, 76, 0
1, 36840, Note_on_c, 0, 55, 43
1, 36840, Note_on_c, 0, 60, 42
1, 36840, Note_on_c, 0, 77, 77
1, 36852, Note_on_c, 0, 77, 0
1, 36855, Note_on_c, 0, 76, 71
1, 36867, Note_on_c, 0, 76, 0
1, 36870, Note_on_c, 0, 77, 77
1, 36882, Note_on_c, 0, 77, 0
1, 36885, Note_on_c, 0, 76, 52
1, 36897, Note_on_c, 0, 76, 0
1, 36900, Note_on_c, 0, 77, 61
1, 36912, Note_on_c, 0, 77, 0
1, 36915, Note_on_c, 0, 76, 42
1, 36927, Note_on_c, 0, 76, 0
1, 36930, Note_on_c, 0, 77, 54
1, 36936, Note_on_c, 0, 60, 0
1, 36936, Note_on_c, 0, 55, 0
1, 36942, Note_on_c, 0, 77, 0
1, 36945, Note_on_c, 0, 76, 44
1, 36957, Note_on_c, 0, 76, 0
1, 36960, Note_on_c, 0, 60, 43
1, 36960, Note_on_c, 0, 84, 61
1, 36960, Note_on_c, 0, 55, 61
1, 37008, Note_on_c, 0, 84, 0
1, 37020, Note_on_c, 0, 83, 61
1, 37056, Note_on_c, 0, 55, 0
1, 37056, Note_on_c, 0, 60, 0
1, 37068, Note_on_c, 0, 83, 0
1, 37080, Note_on_c, 0, 60, 42
1, 37080, Note_on_c, 0, 81, 58
1, 37080, Note_on_c, 0, 55, 58
1, 37128, Note_on_c, 0, 81, 0
1, 37140, Note_on_c, 0, 79, 71
1, 37176, Note_on_c, 0, 55, 0
1, 37176, Note_on_c, 0, 60, 0
1, 37188, Note_on_c, 0, 79, 0
1, 37200, Note_on_c, 0, 77, 77
1, 37200, Note_on_c, 0, 55, 54
1, 37200, Note_on_c, 0, 60, 42
1, 37248, Note_on_c, 0, 77, 0
1, 37260, Note_on_c, 0, 76, 77
1, 37296, Note_on_c, 0, 60, 0
1, 37296, Note_on_c, 0, 55, 0
1, 37308, Note_on_c, 0, 76, 0
1, 37320, Note_on_c, 0, 74, 58
1, 37320, Note_on_c, 0, 60, 43
1, 37320, Note_on_c, 0, 55, 56
1, 37368, Note_on_c, 0, 74, 0
1, 37380, Note_on_c, 0, 72, 61
1, 37416, Note_on_c, 0, 55, 0
1, 37416, Note_on_c, 0, 60, 0
1, 37428, Note_on_c, 0, 72, 0
1, 37440, Note_on_c, 0, 55, 77
1, 37440, Note_on_c, 0, 74, 80
1, 37440, Note_on_c, 0, 59, 45
1, 37536, Note_on_c, 0, 59, 0
1, 37536, Note_on_c, 0, 74, 0
1, 37536, Note_on_c, 0, 55, 0
1, 37560, Note_on_c, 0, 67, 80
1, 37560, Note_on_c, 0, 55, 51
1, 37560, Note_on_c, 0, 59, 49
1, 37656, Note_on_c, 0, 59, 0
1, 37656, Note_on_c, 0, 55, 0
1, 37656, Note_on_c, 0, 67, 0
1, 37680, Note_on_c, 0, 55, 66
1, 37680, Note_on_c, 0, 59, 56
1, 37680, Note_on_c, 0, 71, 80
1, 37728, Note_on_c, 0, 71, 0
1, 37740, Note_on_c, 0, 67, 80
1, 37776, Note_on_c, 0, 59, 0
1, 37776, Note_on_c, 0, 55, 0
1, 37788, Note_on_c, 0, 67, 0
1, 37800, Note_on_c, 0, 55, 52
1, 37800, Note_on_c, 0, 59, 43
1, 37800, Note_on_c, 0, 74, 54
1, 37848, Note_on_c, 0, 74, 0
1, 37860, Note_on_c, 0, 71, 54
1, 37896, Note_on_c, 0, 59, 0
1, 37896, Note_on_c, 0, 55, 0
1, 37908, Note_on_c, 0, 71, 0
1, 37920, Note_on_c, 0, 59, 45
1, 37920, Note_on_c, 0, 77, 71
1, 37920, Note_on_c, 0, 55, 58
1, 38016, Note_on_c, 0, 55, 0
1, 38016, Note_on_c, 0, 59, 0
1, 38040, Note_on_c, 0, 55, 65
1, 38040, Note_on_c, 0, 59, 47
1, 38064, Note_on_c, 0, 77, 0
1, 38100, Note_on_c, 0, 74, 61
1, 38136, Note_on_c, 0, 59, 0
1, 38136, Note_on_c, 0, 55, 0
1, 38148, Note_on_c, 0, 74, 0
1, 38160, Note_on_c, 0, 55, 62
1, 38160, Note_on_c, 0, 59, 43
1, 38160, Note_on_c, 0, 76, 77
1, 38172, Note_on_c, 0, 76, 0
1, 38175, Note_on_c, 0, 74, 54
1, 38187, Note_on_c, 0, 74, 0
1, 38190, Note_on_c, 0, 76, 77
1, 38202, Note_on_c, 0, 76, 0
1, 38205, Note_on_c, 0, 74, 44
1, 38217, Note_on_c, 0, 74, 0
1, 38220, Note_on_c, 0, 76, 47
1, 38232, Note_on_c, 0, 76, 0
1, 38235, Note_on_c, 0, 74, 45
1, 38247, Note_on_c, 0, 74, 0
1, 38250, Note_on_c, 0, 76, 61
1, 38256, Note_on_c, 0, 59, 0
1, 38256, Note_on_c, 0, 55, 0
1, 38262, Note_on_c, 0, 76, 0
1, 38265, Note_on_c, 0, 74, 52
1, 38277, Note_on_c, 0, 74, 0
1, 38280, Note_on_c, 0, 59, 45
1, 38280, Note_on_c, 0, 55, 64
1, 38280, Note_on_c, 0, 76, 50
1, 38292, Note_on_c, 0, 76, 0
1, 38295, Note_on_c, 0, 74, 42
1, 38307, Note_on_c, 0, 74, 0
1, 38310, Note_on_c, 0, 76, 50
1, 38322, Note_on_c, 0, 76, 0
1, 38325, Note_on_c, 0, 74, 44
1, 38337, Note_on_c, 0, 74, 0
1, 38340, Note_on_c, 0, 76, 42
1, 38352, Note_on_c, 0, 76, 0
1, 38355, Note_on_c, 0, 74, 42
1, 38367, Note_on_c, 0, 74, 0
1, 38370, Note_on_c, 0, 76, 43
1, 38376, Note_on_c, 0, 55, 0
1, 38376, Note_on_c, 0, 59, 0
1, 38382, Note_on_c, 0, 76, 0
1, 38385, Note_on_c, 0, 74, 47
1, 38397, Note_on_c, 0, 74, 0
1, 38400, Note_on_c, 0, 59, 42
1, 38400, Note_on_c, 0, 86, 61
1, 38400, Note_on_c, 0, 55, 54
1, 38448, Note_on_c, 0, 86, 0
1, 38460, Note_on_c, 0, 84, 61
1, 38496, Note_on_c, 0, 55, 0
1, 38496, Note_on_c, 0, 59, 0
1, 38508, Note_on_c, 0, 84, 0
1, 38520, Note_on_c, 0, 83, 61
1, 38520, Note_on_c, 0, 55, 55
1, 38520, Note_on_c, 0, 59, 42
1, 38568, Note_on_c, 0, 83, 0
1, 38580, Note_on_c, 0, 81, 66
1, 38616, Note_on_c, 0, 59, 0
1, 38616, Note_on_c, 0, 55, 0
1, 38628, Note_on_c, 0, 81, 0
1, 38640, Note_on_c, 0, 59, 43
1, 38640, Note_on_c, 0, 55, 54
1, 38640, Note_on_c, 0, 79, 61
1, 38688, Note_on_c, 0, 79, 0
1, 38700, Note_on_c, 0, 77, 71
1, 38736, Note_on_c, 0, 55, 0
1, 38736, Note_on_c, 0, 59, 0
1, 38748, Note_on_c, 0, 77, 0
1, 38760, Note_on_c, 0, 59, 42
1, 38760, Note_on_c, 0, 55, 50
1, 38760, Note_on_c, 0, 76, 83
1, 38808, Note_on_c, 0, 76, 0
1, 38820, Note_on_c, 0, 74, 66
1, 38856, Note_on_c, 0, 55, 0
1, 38856, Note_on_c, 0, 59, 0
1, 38868, Note_on_c, 0, 74, 0
1, 38880, Note_on_c, 0, 48, 48
1, 38880, Note_on_c, 0, 60, 45
1, 38940, Note_on_c, 0, 76, 66
1, 38988, Note_on_c, 0, 76, 0
1, 39000, Note_on_c, 0, 79, 42
1, 39048, Note_on_c, 0, 79, 0
1, 39060, Note_on_c, 0, 76, 54
1, 39072, Note_on_c, 0, 60, 0
1, 39072, Note_on_c, 0, 48, 0
1, 39108, Note_on_c, 0, 76, 0
1, 39120, Note_on_c, 0, 70, 77
1, 39180, Note_on_c, 0, 74, 83
1, 39216, Note_on_c, 0, 70, 0
1, 39228, Note_on_c, 0, 74, 0
1, 39240, Note_on_c, 0, 79, 52
1, 39288, Note_on_c, 0, 79, 0
1, 39300, Note_on_c, 0, 74, 58
1, 39348, Note_on_c, 0, 74, 0
1, 39360, Note_on_c, 0, 69, 54
1, 39420, Note_on_c, 0, 73, 58
1, 39456, Note_on_c, 0, 69, 0
1, 39468, Note_on_c, 0, 73, 0
1, 39480, Note_on_c, 0, 79, 54
1, 39528, Note_on_c, 0, 79, 0
1, 39540, Note_on_c, 0, 73, 61
1, 39588, Note_on_c, 0, 73, 0
1, 39600, Note_on_c, 0, 61, 47
1, 39600, Note_on_c, 0, 49, 61
1, 39660, Note_on_c, 0, 69, 58
1, 39708, Note_on_c, 0, 69, 0
1, 39720, Note_on_c, 0, 79, 54
1, 39768, Note_on_c, 0, 79, 0
1, 39780, Note_on_c, 0, 69, 54
1, 39792, Note_on_c, 0, 49, 0
1, 39792, Note_on_c, 0, 61, 0
1, 39828, Note_on_c, 0, 69, 0
1, 39840, Note_on_c, 0, 62, 47
1, 39840, Note_on_c, 0, 50, 43
1, 39900, Note_on_c, 0, 69, 58
1, 39948, Note_on_c, 0, 69, 0
1, 39960, Note_on_c, 0, 77, 58
1, 40008, Note_on_c, 0, 77, 0
1, 40020, Note_on_c, 0, 69, 54
1, 40032, Note_on_c, 0, 50, 0
1, 40032, Note_on_c, 0, 62, 0
1, 40068, Note_on_c, 0, 69, 0
1, 40080, Note_on_c, 0, 60, 48
1, 40080, Note_on_c, 0, 48, 43
1, 40140, Note_on_c, 0, 69, 61
1, 40188, Note_on_c, 0, 69, 0
1, 40200, Note_on_c, 0, 76, 66
1, 40248, Note_on_c, 0, 76, 0
1, 40260, Note_on_c, 0, 69, 61
1, 40272, Note_on_c, 0, 48, 0
1, 40272, Note_on_c, 0, 60, 0
1, 40308, Note_on_c, 0, 69, 0
1, 40320, Note_on_c, 0, 47, 42
1, 40320, Note_on_c, 0, 59, 42
1, 40380, Note_on_c, 0, 69, 66
1, 40428, Note_on_c, 0, 69, 0
1, 40440, Note_on_c, 0, 75, 66
1, 40488, Note_on_c, 0, 75, 0
1, 40500, Note_on_c, 0, 69, 58
1, 40512, Note_on_c, 0, 59, 0
1, 40512, Note_on_c, 0, 47, 0
1, 40548, Note_on_c, 0, 69, 0
1, 40560, Note_on_c, 0, 63, 71
1, 40620, Note_on_c, 0, 69, 52
1, 40656, Note_on_c, 0, 63, 0
1, 40668, Note_on_c, 0, 69, 0
1, 40680, Note_on_c, 0, 78, 66
1, 40728, Note_on_c, 0, 78, 0
1, 40740, Note_on_c, 0, 69, 50
1, 40788, Note_on_c, 0, 69, 0
1, 40800, Note_on_c, 0, 64, 61
1, 40860, Note_on_c, 0, 67, 42
1, 40896, Note_on_c, 0, 64, 0
1, 40908, Note_on_c, 0, 67, 0
1, 40920, Note_on_c, 0, 78, 61
1, 40968, Note_on_c, 0, 78, 0
1, 40980, Note_on_c, 0, 67, 34
1, 41028, Note_on_c, 0, 67, 0
1, 41040, Note_on_c, 0, 60, 43
1, 41040, Note_on_c, 0, 48, 52
1, 41100, Note_on_c, 0, 67, 66
1, 41148, Note_on_c, 0, 67, 0
1, 41160, Note_on_c, 0, 76, 54
1, 41208, Note_on_c, 0, 76, 0
1, 41220, Note_on_c, 0, 67, 54
1, 41232, Note_on_c, 0, 48, 0
1, 41232, Note_on_c, 0, 60, 0
1, 41268, Note_on_c, 0, 67, 0
1, 41280, Note_on_c, 0, 57, 47
1, 41280, Note_on_c, 0, 45, 43
1, 41340, Note_on_c, 0, 65, 52
1, 41388, Note_on_c, 0, 65, 0
1, 41400, Note_on_c, 0, 76, 58
1, 41448, Note_on_c, 0, 76, 0
1, 41460, Note_on_c, 0, 65, 44
1, 41472, Note_on_c, 0, 45, 0
1, 41472, Note_on_c, 0, 57, 0
1, 41508, Note_on_c, 0, 65, 0
1, 41520, Note_on_c, 0, 59, 50
1, 41520, Note_on_c, 0, 47, 61
1, 41580, Note_on_c, 0, 65, 54
1, 41628, Note_on_c, 0, 65, 0
1, 41640, Note_on_c, 0, 74, 58
1, 41688, Note_on_c, 0, 74, 0
1, 41700, Note_on_c, 0, 65, 52
1, 41712, Note_on_c, 0, 47, 0
1, 41712, Note_on_c, 0, 59, 0
1, 41748, Note_on_c, 0, 65, 0
1, 41760, Note_on_c, 0, 56, 61
1, 41760, Note_on_c, 0, 44, 74
1, 41820, Note_on_c, 0, 64, 42
1, 41868, Note_on_c, 0, 64, 0
1, 41880, Note_on_c, 0, 74, 42
1, 41928, Note_on_c, 0, 74, 0
1, 41940, Note_on_c, 0, 64, 46
1, 41952, Note_on_c, 0, 44, 0
1, 41952, Note_on_c, 0, 56, 0
1, 41988, Note_on_c, 0, 64, 0
1, 42000, Note_on_c, 0, 57, 81
1, 42000, Note_on_c, 0, 45, 89
1, 42060, Note_on_c, 0, 64, 42
1, 42108, Note_on_c, 0, 64, 0
1, 42120, Note_on_c, 0, 72, 52
1, 42168, Note_on_c, 0, 72, 0
1, 42180, Note_on_c, 0, 64, 42
1, 42192, Note_on_c, 0, 45, 0
1, 42192, Note_on_c, 0, 57, 0
1, 42228, Note_on_c, 0, 64, 0
1, 42240, Note_on_c, 0, 41, 81
1, 42240, Note_on_c, 0, 53, 80
1, 42300, Note_on_c, 0, 62, 61
1, 42348, Note_on_c, 0, 62, 0
1, 42360, Note_on_c, 0, 72, 52
1, 42408, Note_on_c, 0, 72, 0
1, 42420, Note_on_c, 0, 62, 54
1, 42432, Note_on_c, 0, 53, 0
1, 42432, Note_on_c, 0, 41, 0
1, 42468, Note_on_c, 0, 62, 0
1, 42480, Note_on_c, 0, 42, 69
1, 42480, Note_on_c, 0, 54, 52
1, 42540, Note_on_c, 0, 62, 44
1, 42588, Note_on_c, 0, 62, 0
1, 42600, Note_on_c, 0, 72, 42
1, 42648, Note_on_c, 0, 72, 0
1, 42660, Note_on_c, 0, 62, 29
1, 42672, Note_on_c, 0, 54, 0
1, 42672, Note_on_c, 0, 42, 0
1, 42708, Note_on_c, 0, 62, 0
1, 42720, Note_on_c, 0, 43, 44
1, 42720, Note_on_c, 0, 71, 45
1, 42768, Note_on_c, 0, 43, 0
1, 42780, Note_on_c, 0, 55, 54
1, 42828, Note_on_c, 0, 55, 0
1, 42840, Note_on_c, 0, 43, 45
1, 42888, Note_on_c, 0, 43, 0
1, 42900, Note_on_c, 0, 55, 44
1, 42912, Note_on_c, 0, 71, 0
1, 42948, Note_on_c, 0, 55, 0
1, 42960, Note_on_c, 0, 43, 52
1, 43008, Note_on_c, 0, 43, 0
1, 43020, Note_on_c, 0, 55, 47
1, 43068, Note_on_c, 0, 55, 0
1, 43080, Note_on_c, 0, 43, 42
1, 43080, Note_on_c, 0, 62, 54
1, 43080, Note_on_c, 0, 59, 57
1, 43128, Note_on_c, 0, 43, 0
1, 43140, Note_on_c, 0, 55, 42
1, 43176, Note_on_c, 0, 59, 0
1, 43176, Note_on_c, 0, 62, 0
1, 43188, Note_on_c, 0, 55, 0
1, 43200, Note_on_c, 0, 64, 40
1, 43200, Note_on_c, 0, 43, 42
1, 43200, Note_on_c, 0, 60, 66
1, 43248, Note_on_c, 0, 43, 0
1, 43260, Note_on_c, 0, 55, 43
1, 43296, Note_on_c, 0, 60, 0
1, 43296, Note_on_c, 0, 64, 0
1, 43308, Note_on_c, 0, 55, 0
1, 43320, Note_on_c, 0, 43, 42
1, 43368, Note_on_c, 0, 43, 0
1, 43380, Note_on_c, 0, 55, 42
1, 43428, Note_on_c, 0, 55, 0
1, 43440, Note_on_c, 0, 43, 42
1, 43488, Note_on_c, 0, 43, 0
1, 43500, Note_on_c, 0, 55, 44
1, 43548, Note_on_c, 0, 55, 0
1, 43560, Note_on_c, 0, 43, 43
1, 43560, Note_on_c, 0, 66, 42
1, 43560, Note_on_c, 0, 72, 42
1, 43608, Note_on_c, 0, 43, 0
1, 43620, Note_on_c, 0, 55, 50
1, 43656, Note_on_c, 0, 72, 0
1, 43656, Note_on_c, 0, 66, 0
1, 43668, Note_on_c, 0, 55, 0
1, 43680, Note_on_c, 0, 67, 50
1, 43680, Note_on_c, 0, 43, 52
1, 43680, Note_on_c, 0, 71, 45
1, 43728, Note_on_c, 0, 43, 0
1, 43740, Note_on_c, 0, 55, 45
1, 43776, Note_on_c, 0, 71, 0
1, 43776, Note_on_c, 0, 67, 0
1, 43788, Note_on_c, 0, 55, 0
1, 43800, Note_on_c, 0, 43, 43
1, 43848, Note_on_c, 0, 43, 0
1, 43860, Note_on_c, 0, 55, 42
1, 43908, Note_on_c, 0, 55, 0
1, 43920, Note_on_c, 0, 43, 54
1, 43968, Note_on_c, 0, 43, 0
1, 43980, Note_on_c, 0, 55, 44
1, 44028, Note_on_c, 0, 55, 0
1, 44040, Note_on_c, 0, 43, 42
1, 44040, Note_on_c, 0, 59, 47
1, 44040, Note_on_c, 0, 62, 48
1, 44088, Note_on_c, 0, 43, 0
1, 44100, Note_on_c, 0, 55, 43
1, 44136, Note_on_c, 0, 62, 0
1, 44136, Note_on_c, 0, 59, 0
1, 44148, Note_on_c, 0, 55, 0
1, 44160, Note_on_c, 0, 64, 42
1, 44160, Note_on_c, 0, 43, 42
1, 44160, Note_on_c, 0, 60, 52
1, 44208, Note_on_c, 0, 43, 0
1, 44220, Note_on_c, 0, 55, 42
1, 44256, Note_on_c, 0, 60, 0
1, 44256, Note_on_c, 0, 64, 0
1, 44268, Note_on_c, 0, 55, 0
1, 44280, Note_on_c, 0, 43, 44
1, 44328, Note_on_c, 0, 43, 0
1, 44340, Note_on_c, 0, 55, 42
1, 44388, Note_on_c, 0, 55, 0
1, 44400, Note_on_c, 0, 43, 58
1, 44448, Note_on_c, 0, 43, 0
1, 44460, Note_on_c, 0, 55, 43
1, 44508, Note_on_c, 0, 55, 0
1, 44520, Note_on_c, 0, 43, 47
1, 44520, Note_on_c, 0, 66, 42
1, 44520, Note_on_c, 0, 60, 46
1, 44568, Note_on_c, 0, 43, 0
1, 44580, Note_on_c, 0, 55, 42
1, 44616, Note_on_c, 0, 60, 0
1, 44616, Note_on_c, 0, 66, 0
1, 44628, Note_on_c, 0, 55, 0
1, 44640, Note_on_c, 0, 43, 80
1, 44640, Note_on_c, 0, 67, 43
1, 44640, Note_on_c, 0, 59, 56
1, 44832, Note_on_c, 0, 59, 0
1, 44832, Note_on_c, 0, 67, 0
1, 44832, Note_on_c, 0, 43, 0
1, 45120, Note_on_c, 0, 64, 42
1, 45120, Note_on_c, 0, 60, 40
1, 45216, Note_on_c, 0, 60, 0
1, 45216, Note_on_c, 0, 64, 0
1, 45240, Note_on_c, 0, 72, 77
1, 45240, Note_on_c, 0, 64, 54
1, 45240, Note_on_c, 0, 60, 42
1, 45336, Note_on_c, 0, 60, 0
1, 45336, Note_on_c, 0, 64, 0
1, 45336, Note_on_c, 0, 72, 0
1, 45360, Note_on_c, 0, 76, 50
1, 45360, Note_on_c, 0, 64, 47
1, 45360, Note_on_c, 0, 60, 42
1, 45408, Note_on_c, 0, 76, 0
1, 45420, Note_on_c, 0, 72, 66
1, 45456, Note_on_c, 0, 60, 0
1, 45456, Note_on_c, 0, 64, 0
1, 45468, Note_on_c, 0, 72, 0
1, 45480, Note_on_c, 0, 79, 61
1, 45480, Note_on_c, 0, 64, 47
1, 45480, Note_on_c, 0, 60, 42
1, 45528, Note_on_c, 0, 79, 0
1, 45540, Note_on_c, 0, 76, 77
1, 45576, Note_on_c, 0, 60, 0
1, 45576, Note_on_c, 0, 64, 0
1, 45588, Note_on_c, 0, 76, 0
1, 45600, Note_on_c, 0, 60, 42
1, 45600, Note_on_c, 0, 84, 66
1, 45600, Note_on_c, 0, 64, 54
1, 45696, Note_on_c, 0, 64, 0
1, 45696, Note_on_c, 0, 60, 0
1, 45720, Note_on_c, 0, 64, 61
1, 45720, Note_on_c, 0, 60, 44
1, 45744, Note_on_c, 0, 84, 0
1, 45780, Note_on_c, 0, 79, 61
1, 45816, Note_on_c, 0, 60, 0
1, 45816, Note_on_c, 0, 64, 0
1, 45828, Note_on_c, 0, 79, 0
1, 45840, Note_on_c, 0, 81, 80
1, 45840, Note_on_c, 0, 64, 58
1, 45840, Note_on_c, 0, 60, 42
1, 45852, Note_on_c, 0, 81, 0
1, 45855, Note_on_c, 0, 79, 58
1, 45867, Note_on_c, 0, 79, 0
1, 45870, Note_on_c, 0, 81, 42
1, 45882, Note_on_c, 0, 81, 0
1, 45885, Note_on_c, 0, 79, 66
1, 45897, Note_on_c, 0, 79, 0
1, 45900, Note_on_c, 0, 81, 54
1, 45912, Note_on_c, 0, 81, 0
1, 45915, Note_on_c, 0, 79, 58
1, 45927, Note_on_c, 0, 79, 0
1, 45930, Note_on_c, 0, 81, 46
1, 45936, Note_on_c, 0, 60, 0
1, 45936, Note_on_c, 0, 64, 0
1, 45942, Note_on_c, 0, 81, 0
1, 45945, Note_on_c, 0, 79, 47
1, 45957, Note_on_c, 0, 79, 0
1, 45960, Note_on_c, 0, 81, 47
1, 45960, Note_on_c, 0, 64, 57
1, 45960, Note_on_c, 0, 60, 45
1, 45972, Note_on_c, 0, 81, 0
1, 45975, Note_on_c, 0, 79, 56
1, 45987, Note_on_c, 0, 79, 0
1, 45990, Note_on_c, 0, 81, 47
1, 46002, Note_on_c, 0, 81, 0
1, 46005, Note_on_c, 0, 79, 42
1, 46017, Note_on_c, 0, 79, 0
1, 46020, Note_on_c, 0, 81, 28
1, 46032, Note_on_c, 0, 81, 0
1, 46035, Note_on_c, 0, 79, 45
1, 46047, Note_on_c, 0, 79, 0
1, 46050, Note_on_c, 0, 81, 38
1, 46056, Note_on_c, 0, 60, 0
1, 46056, Note_on_c, 0, 64, 0
1, 46062, Note_on_c, 0, 81, 0
1, 46065, Note_on_c, 0, 79, 43
1, 46077, Note_on_c, 0, 79, 0
1, 46080, Note_on_c, 0, 65, 45
1, 46080, Note_on_c, 0, 60, 47
1, 46176, Note_on_c, 0, 60, 0
1, 46176, Note_on_c, 0, 65, 0
1, 46200, Note_on_c, 0, 65, 47
1, 46200, Note_on_c, 0, 60, 48
1, 46200, Note_on_c, 0, 72, 52
1, 46296, Note_on_c, 0, 72, 0
1, 46296, Note_on_c, 0, 60, 0
1, 46296, Note_on_c, 0, 65, 0
1, 46320, Note_on_c, 0, 77, 83
1, 46320, Note_on_c, 0, 60, 50
1, 46320, Note_on_c, 0, 65, 47
1, 46368, Note_on_c, 0, 77, 0
1, 46380, Note_on_c, 0, 72, 66
1, 46416, Note_on_c, 0, 65, 0
1, 46416, Note_on_c, 0, 60, 0
1, 46428, Note_on_c, 0, 72, 0
1, 46440, Note_on_c, 0, 81, 71
1, 46440, Note_on_c, 0, 65, 45
1, 46440, Note_on_c, 0, 60, 43
1, 46488, Note_on_c, 0, 81, 0
1, 46500, Note_on_c, 0, 77, 52
1, 46536, Note_on_c, 0, 60, 0
1, 46536, Note_on_c, 0, 65, 0
1, 46548, Note_on_c, 0, 77, 0
1, 46560, Note_on_c, 0, 60, 60
1, 46560, Note_on_c, 0, 84, 114
1, 46560, Note_on_c, 0, 65, 61
1, 46656, Note_on_c, 0, 65, 0
1, 46656, Note_on_c, 0, 60, 0
1, 46680, Note_on_c, 0, 65, 58
1, 46680, Note_on_c, 0, 60, 56
1, 46704, Note_on_c, 0, 84, 0
1, 46740, Note_on_c, 0, 81, 89
1, 46776, Note_on_c, 0, 60, 0
1, 46776, Note_on_c, 0, 65, 0
1, 46788, Note_on_c, 0, 81, 0
1, 46800, Note_on_c, 0, 83, 1
1, 46800, Note_on_c, 0, 60, 66
1, 46800, Note_on_c, 0, 65, 56
1, 46812, Note_on_c, 0, 83, 0
1, 46815, Note_on_c, 0, 81, 1
1, 46827, Note_on_c, 0, 81, 0
1, 46830, Note_on_c, 0, 83, 25
1, 46842, Note_on_c, 0, 83, 0
1, 46845, Note_on_c, 0, 81, 44
1, 46857, Note_on_c, 0, 81, 0
1, 46860, Note_on_c, 0, 83, 42
1, 46872, Note_on_c, 0, 83, 0
1, 46875, Note_on_c, 0, 81, 20
1, 46887, Note_on_c, 0, 81, 0
1, 46890, Note_on_c, 0, 83, 42
1, 46896, Note_on_c, 0, 65, 0
1, 46896, Note_on_c, 0, 60, 0
1, 46902, Note_on_c, 0, 83, 0
1, 46905, Note_on_c, 0, 81, 44
1, 46917, Note_on_c, 0, 81, 0
1, 46920, Note_on_c, 0, 83, 45
1, 46920, Note_on_c, 0, 60, 58
1, 46920, Note_on_c, 0, 65, 48
1, 46932, Note_on_c, 0, 83, 0
1, 46935, Note_on_c, 0, 81, 45
1, 46947, Note_on_c, 0, 81, 0
1, 46950, Note_on_c, 0, 83, 42
1, 46962, Note_on_c, 0, 83, 0
1, 46965, Note_on_c, 0, 81, 58
1, 46977, Note_on_c, 0, 81, 0
1, 46980, Note_on_c, 0, 83, 42
1, 46992, Note_on_c, 0, 83, 0
1, 46995, Note_on_c, 0, 81, 45
1, 47007, Note_on_c, 0, 81, 0
1, 47010, Note_on_c, 0, 83, 43
1, 47016, Note_on_c, 0, 65, 0
1, 47016, Note_on_c, 0, 60, 0
1, 47022, Note_on_c, 0, 83, 0
1, 47025, Note_on_c, 0, 81, 44
1, 47037, Note_on_c, 0, 81, 0
1, 47040, Note_on_c, 0, 64, 69
1, 47040, Note_on_c, 0, 60, 57
1, 47136, Note_on_c, 0, 60, 0
1, 47136, Note_on_c, 0, 64, 0
1, 47160, Note_on_c, 0, 60, 57
1, 47160, Note_on_c, 0, 64, 54
1, 47160, Note_on_c, 0, 72, 66
1, 47256, Note_on_c, 0, 72, 0
1, 47256, Note_on_c, 0, 64, 0
1, 47256, Note_on_c, 0, 60, 0
1, 47280, Note_on_c, 0, 76, 66
1, 47280, Note_on_c, 0, 60, 44
1, 47280, Note_on_c, 0, 64, 65
1, 47328, Note_on_c, 0, 76, 0
1, 47340, Note_on_c, 0, 72, 89
1, 47376, Note_on_c, 0, 64, 0
1, 47376, Note_on_c, 0, 60, 0
1, 47388, Note_on_c, 0, 72, 0
1, 47400, Note_on_c, 0, 79, 81
1, 47400, Note_on_c, 0, 60, 44
1, 47400, Note_on_c, 0, 64, 43
1, 47448, Note_on_c, 0, 79, 0
1, 47460, Note_on_c, 0, 76, 83
1, 47496, Note_on_c, 0, 64, 0
1, 47496, Note_on_c, 0, 60, 0
1, 47508, Note_on_c, 0, 76, 0
1, 47520, Note_on_c, 0, 60, 48
1, 47520, Note_on_c, 0, 84, 77
1, 47520, Note_on_c, 0, 64, 61
1, 47616, Note_on_c, 0, 64, 0
1, 47616, Note_on_c, 0, 60, 0
1, 47640, Note_on_c, 0, 64, 81
1, 47640, Note_on_c, 0, 60, 74
1, 47664, Note_on_c, 0, 84, 0
1, 47700, Note_on_c, 0, 79, 77
1, 47736, Note_on_c, 0, 60, 0
1, 47736, Note_on_c, 0, 64, 0
1, 47748, Note_on_c, 0, 79, 0
1, 47760, Note_on_c, 0, 60, 71
1, 47760, Note_on_c, 0, 64, 53
1, 47760, Note_on_c, 0, 81, 80
1, 47772, Note_on_c, 0, 81, 0
1, 47775, Note_on_c, 0, 79, 58
1, 47787, Note_on_c, 0, 79, 0
1, 47790, Note_on_c, 0, 81, 42
1, 47802, Note_on_c, 0, 81, 0
1, 47805, Note_on_c, 0, 79, 66
1, 47817, Note_on_c, 0, 79, 0
1, 47820, Note_on_c, 0, 81, 54
1, 47832, Note_on_c, 0, 81, 0
1, 47835, Note_on_c, 0, 79, 58
1, 47847, Note_on_c, 0, 79, 0
1, 47850, Note_on_c, 0, 81, 46
1, 47856, Note_on_c, 0, 64, 0
1, 47856, Note_on_c, 0, 60, 0
1, 47862, Note_on_c, 0, 81, 0
1, 47865, Note_on_c, 0, 79, 47
1, 47877, Note_on_c, 0, 79, 0
1, 47880, Note_on_c, 0, 60, 50
1, 47880, Note_on_c, 0, 64, 53
1, 47880, Note_on_c, 0, 81, 47
1, 47892, Note_on_c, 0, 81, 0
1, 47895, Note_on_c, 0, 79, 56
1, 47907, Note_on_c, 0, 79, 0
1, 47910, Note_on_c, 0, 81, 47
1, 47922, Note_on_c, 0, 81, 0
1, 47925, Note_on_c, 0, 79, 42
1, 47937, Note_on_c, 0, 79, 0
1, 47940, Note_on_c, 0, 81, 28
1, 47952, Note_on_c, 0, 81, 0
1, 47955, Note_on_c, 0, 79, 45
1, 47967, Note_on_c, 0, 79, 0
1, 47970, Note_on_c, 0, 81, 38
1, 47976, Note_on_c, 0, 64, 0
1, 47976, Note_on_c, 0, 60, 0
1, 47982, Note_on_c, 0, 81, 0
1, 47985, Note_on_c, 0, 79, 43
1, 47997, Note_on_c, 0, 79, 0
1, 48000, Note_on_c, 0, 79, 71
1, 48000, Note_on_c, 0, 55, 69
1, 48000, Note_on_c, 0, 62, 69
1, 48048, Note_on_c, 0, 79, 0
1, 48060, Note_on_c, 0, 77, 58
1, 48096, Note_on_c, 0, 62, 0
1, 48108, Note_on_c, 0, 77, 0
1, 48120, Note_on_c, 0, 86, 71
1, 48120, Note_on_c, 0, 59, 67
1, 48168, Note_on_c, 0, 86, 0
1, 48180, Note_on_c, 0, 77, 83
1, 48216, Note_on_c, 0, 59, 0
1, 48228, Note_on_c, 0, 77, 0
1, 48240, Note_on_c, 0, 60, 61
1, 48240, Note_on_c, 0, 76, 81
1, 48336, Note_on_c, 0, 76, 0
1, 48336, Note_on_c, 0, 60, 0
1, 48360, Note_on_c, 0, 64, 77
1, 48360, Note_on_c, 0, 84, 80
1, 48456, Note_on_c, 0, 84, 0
1, 48456, Note_on_c, 0, 55, 0
1, 48456, Note_on_c, 0, 64, 0
1, 48480, Note_on_c, 0, 79, 77
1, 48480, Note_on_c, 0, 62, 58
1, 48480, Note_on_c, 0, 55, 64
1, 48528, Note_on_c, 0, 79, 0
1, 48540, Note_on_c, 0, 77, 83
1, 48576, Note_on_c, 0, 62, 0
1, 48588, Note_on_c, 0, 77, 0
1, 48600, Note_on_c, 0, 86, 71
1, 48600, Note_on_c, 0, 59, 53
1, 48648, Note_on_c, 0, 86, 0
1, 48660, Note_on_c, 0, 77, 97
1, 48696, Note_on_c, 0, 59, 0
1, 48708, Note_on_c, 0, 77, 0
1, 48720, Note_on_c, 0, 60, 53
1, 48720, Note_on_c, 0, 76, 89
1, 48816, Note_on_c, 0, 76, 0
1, 48816, Note_on_c, 0, 60, 0
1, 48840, Note_on_c, 0, 64, 64
1, 48840, Note_on_c, 0, 84, 54
1, 48936, Note_on_c, 0, 84, 0
1, 48936, Note_on_c, 0, 64, 0
1, 48936, Note_on_c, 0, 55, 0
1, 48960, Note_on_c, 0, 62, 49
1, 48960, Note_on_c, 0, 55, 61
1, 49020, Note_on_c, 0, 77, 54
1, 49068, Note_on_c, 0, 77, 0
1, 49080, Note_on_c, 0, 86, 83
1, 49128, Note_on_c, 0, 86, 0
1, 49140, Note_on_c, 0, 77, 83
1, 49152, Note_on_c, 0, 55, 0
1, 49152, Note_on_c, 0, 62, 0
1, 49188, Note_on_c, 0, 77, 0
1, 49200, Note_on_c, 0, 55, 58
1, 49200, Note_on_c, 0, 60, 47
1, 49260, Note_on_c, 0, 76, 71
1, 49308, Note_on_c, 0, 76, 0
1, 49320, Note_on_c, 0, 84, 61
1, 49368, Note_on_c, 0, 84, 0
1, 49380, Note_on_c, 0, 76, 89
1, 49392, Note_on_c, 0, 60, 0
1, 49392, Note_on_c, 0, 55, 0
1, 49428, Note_on_c, 0, 76, 0
1, 49440, Note_on_c, 0, 55, 71
1, 49440, Note_on_c, 0, 60, 50
1, 49440, Note_on_c, 0, 77, 83
1, 49452, Note_on_c, 0, 77, 0
1, 49455, Note_on_c, 0, 76, 97
1, 49467, Note_on_c, 0, 76, 0
1, 49470, Note_on_c, 0, 77, 71
1, 49482, Note_on_c, 0, 77, 0
1, 49485, Note_on_c, 0, 76, 97
1, 49497, Note_on_c, 0, 76, 0
1, 49500, Note_on_c, 0, 77, 77
1, 49512, Note_on_c, 0, 77, 0
1, 49515, Note_on_c, 0, 76, 77
1, 49527, Note_on_c, 0, 76, 0
1, 49530, Note_on_c, 0, 77, 66
1, 49536, Note_on_c, 0, 60, 0
1, 49542, Note_on_c, 0, 77, 0
1, 49545, Note_on_c, 0, 76, 77
1, 49557, Note_on_c, 0, 76, 0
1, 49560, Note_on_c, 0, 59, 54
1, 49560, Note_on_c, 0, 74, 83
1, 49656, Note_on_c, 0, 74, 0
1, 49656, Note_on_c, 0, 55, 0
1, 49656, Note_on_c, 0, 59, 0
1, 49800, Note_on_c, 0, 72, 58
1, 49896, Note_on_c, 0, 72, 0
1, 49920, Note_on_c, 0, 72, 77
1, 49968, Note_on_c, 0, 72, 0
1, 49980, Note_on_c, 0, 71, 47
1, 50028, Note_on_c, 0, 71, 0
1, 50040, Note_on_c, 0, 74, 52
1, 50088, Note_on_c, 0, 74, 0
1, 50100, Note_on_c, 0, 72, 66
1, 50148, Note_on_c, 0, 72, 0
1, 50160, Note_on_c, 0, 76, 89
1, 50208, Note_on_c, 0, 76, 0
1, 50220, Note_on_c, 0, 72, 66
1, 50268, Note_on_c, 0, 72, 0
1, 50280, Note_on_c, 0, 71, 55
1, 50328, Note_on_c, 0, 71, 0
1, 50340, Note_on_c, 0, 72, 77
1, 50388, Note_on_c, 0, 72, 0
1, 50400, Note_on_c, 0, 64, 66
1, 50400, Note_on_c, 0, 67, 66
1, 50448, Note_on_c, 0, 67, 0
1, 50460, Note_on_c, 0, 72, 77
1, 50496, Note_on_c, 0, 64, 0
1, 50508, Note_on_c, 0, 72, 0
1, 50520, Note_on_c, 0, 69, 71
1, 50520, Note_on_c, 0, 65, 46
1, 50568, Note_on_c, 0, 69, 0
1, 50580, Note_on_c, 0, 72, 83
1, 50616, Note_on_c, 0, 65, 0
1, 50628, Note_on_c, 0, 72, 0
1, 50640, Note_on_c, 0, 64, 83
1, 50640, Note_on_c, 0, 67, 54
1, 50736, Note_on_c, 0, 67, 0
1, 50760, Note_on_c, 0, 72, 50
1, 50832, Note_on_c, 0, 64, 0
1, 50856, Note_on_c, 0, 72, 0
1, 50880, Note_on_c, 0, 72, 54
1, 50928, Note_on_c, 0, 72, 0
1, 50940, Note_on_c, 0, 71, 52
1, 50988, Note_on_c, 0, 71, 0
1, 51000, Note_on_c, 0, 74, 66
1, 51048, Note_on_c, 0, 74, 0
1, 51060, Note_on_c, 0, 72, 52
1, 51108, Note_on_c, 0, 72, 0
1, 51120, Note_on_c, 0, 76, 66
1, 51168, Note_on_c, 0, 76, 0
1, 51180, Note_on_c, 0, 72, 61
1, 51228, Note_on_c, 0, 72, 0
1, 51240, Note_on_c, 0, 71, 66
1, 51288, Note_on_c, 0, 71, 0
1, 51300, Note_on_c, 0, 72, 54
1, 51348, Note_on_c, 0, 72, 0
1, 51360, Note_on_c, 0, 67, 61
1, 51360, Note_on_c, 0, 52, 42
1, 51408, Note_on_c, 0, 67, 0
1, 51420, Note_on_c, 0, 72, 50
1, 51456, Note_on_c, 0, 52, 0
1, 51468, Note_on_c, 0, 72, 0
1, 51480, Note_on_c, 0, 50, 66
1, 51480, Note_on_c, 0, 65, 66
1, 51528, Note_on_c, 0, 65, 0
1, 51540, Note_on_c, 0, 72, 43
1, 51576, Note_on_c, 0, 50, 0
1, 51588, Note_on_c, 0, 72, 0
1, 51600, Note_on_c, 0, 48, 71
1, 51600, Note_on_c, 0, 64, 58
1, 51696, Note_on_c, 0, 64, 0
1, 51696, Note_on_c, 0, 48, 0
1, 51720, Note_on_c, 0, 52, 42
1, 51720, Note_on_c, 0, 67, 45
1, 51768, Note_on_c, 0, 67, 0
1, 51780, Note_on_c, 0, 72, 43
1, 51816, Note_on_c, 0, 52, 0
1, 51828, Note_on_c, 0, 72, 0
1, 51840, Note_on_c, 0, 69, 54
1, 51840, Note_on_c, 0, 53, 52
1, 51888, Note_on_c, 0, 69, 0
1, 51900, Note_on_c, 0, 72, 50
1, 51936, Note_on_c, 0, 53, 0
1, 51948, Note_on_c, 0, 72, 0
1, 51960, Note_on_c, 0, 55, 50
1, 51960, Note_on_c, 0, 67, 71
1, 52008, Note_on_c, 0, 67, 0
1, 52020, Note_on_c, 0, 72, 54
1, 52056, Note_on_c, 0, 55, 0
1, 52068, Note_on_c, 0, 72, 0
1, 52080, Note_on_c, 0, 57, 43
1, 52080, Note_on_c, 0, 65, 71
1, 52128, Note_on_c, 0, 65, 0
1, 52140, Note_on_c, 0, 69, 66
1, 52176, Note_on_c, 0, 57, 0
1, 52188, Note_on_c, 0, 69, 0
1, 52200, Note_on_c, 0, 54, 42
1, 52200, Note_on_c, 0, 74, 61
1, 52248, Note_on_c, 0, 74, 0
1, 52260, Note_on_c, 0, 72, 52
1, 52296, Note_on_c, 0, 54, 0
1, 52308, Note_on_c, 0, 72, 0
1, 52320, Note_on_c, 0, 71, 52
1, 52320, Note_on_c, 0, 55, 52
1, 52368, Note_on_c, 0, 71, 0
1, 52380, Note_on_c, 0, 74, 58
1, 52416, Note_on_c, 0, 55, 0
1, 52428, Note_on_c, 0, 74, 0
1, 52440, Note_on_c, 0, 57, 61
1, 52440, Note_on_c, 0, 69, 54
1, 52488, Note_on_c, 0, 69, 0
1, 52500, Note_on_c, 0, 74, 54
1, 52536, Note_on_c, 0, 57, 0
1, 52548, Note_on_c, 0, 74, 0
1, 52560, Note_on_c, 0, 59, 71
1, 52560, Note_on_c, 0, 67, 71
1, 52608, Note_on_c, 0, 67, 0
1, 52620, Note_on_c, 0, 71, 58
1, 52656, Note_on_c, 0, 59, 0
1, 52668, Note_on_c, 0, 71, 0
1, 52680, Note_on_c, 0, 56, 55
1, 52680, Note_on_c, 0, 76, 71
1, 52728, Note_on_c, 0, 76, 0
1, 52740, Note_on_c, 0, 74, 66
1, 52776, Note_on_c, 0, 56, 0
1, 52788, Note_on_c, 0, 74, 0
1, 52800, Note_on_c, 0, 72, 71
1, 52800, Note_on_c, 0, 57, 77
1, 52848, Note_on_c, 0, 72, 0
1, 52860, Note_on_c, 0, 76, 77
1, 52896, Note_on_c, 0, 57, 0
1, 52908, Note_on_c, 0, 76, 0
1, 52920, Note_on_c, 0, 59, 58
1, 52920, Note_on_c, 0, 71, 47
1, 52968, Note_on_c, 0, 71, 0
1, 52980, Note_on_c, 0, 76, 71
1, 53016, Note_on_c, 0, 59, 0
1, 53028, Note_on_c, 0, 76, 0
1, 53040, Note_on_c, 0, 60, 54
1, 53040, Note_on_c, 0, 69, 83
1, 53088, Note_on_c, 0, 69, 0
1, 53100, Note_on_c, 0, 72, 71
1, 53136, Note_on_c, 0, 60, 0
1, 53148, Note_on_c, 0, 72, 0
1, 53160, Note_on_c, 0, 57, 71
1, 53160, Note_on_c, 0, 77, 61
1, 53208, Note_on_c, 0, 77, 0
1, 53220, Note_on_c, 0, 76, 89
1, 53256, Note_on_c, 0, 57, 0
1, 53268, Note_on_c, 0, 76, 0
1, 53280, Note_on_c, 0, 74, 71
1, 53280, Note_on_c, 0, 59, 71
1, 53328, Note_on_c, 0, 74, 0
1, 53340, Note_on_c, 0, 77, 58
1, 53376, Note_on_c, 0, 59, 0
1, 53388, Note_on_c, 0, 77, 0
1, 53400, Note_on_c, 0, 60, 75
1, 53400, Note_on_c, 0, 72, 77
1, 53448, Note_on_c, 0, 72, 0
1, 53460, Note_on_c, 0, 77, 71
1, 53496, Note_on_c, 0, 60, 0
1, 53508, Note_on_c, 0, 77, 0
1, 53520, Note_on_c, 0, 62, 89
1, 53520, Note_on_c, 0, 71, 77
1, 53568, Note_on_c, 0, 71, 0
1, 53580, Note_on_c, 0, 74, 66
1, 53616, Note_on_c, 0, 62, 0
1, 53628, Note_on_c, 0, 74, 0
1, 53640, Note_on_c, 0, 59, 77
1, 53640, Note_on_c, 0, 79, 54
1, 53688, Note_on_c, 0, 79, 0
1, 53700, Note_on_c, 0, 77, 66
1, 53736, Note_on_c, 0, 59, 0
1, 53748, Note_on_c, 0, 77, 0
1, 53760, Note_on_c, 0, 76, 77
1, 53760, Note_on_c, 0, 60, 58
1, 53808, Note_on_c, 0, 76, 0
1, 53820, Note_on_c, 0, 79, 50
1, 53856, Note_on_c, 0, 60, 0
1, 53868, Note_on_c, 0, 79, 0
1, 53880, Note_on_c, 0, 52, 83
1, 53880, Note_on_c, 0, 72, 77
1, 53928, Note_on_c, 0, 72, 0
1, 53940, Note_on_c, 0, 74, 66
1, 53976, Note_on_c, 0, 52, 0
1, 53988, Note_on_c, 0, 74, 0
1, 54000, Note_on_c, 0, 53, 77
1, 54000, Note_on_c, 0, 76, 66
1, 54012, Note_on_c, 0, 76, 0
1, 54015, Note_on_c, 0, 74, 52
1, 54027, Note_on_c, 0, 74, 0
1, 54030, Note_on_c, 0, 76, 71
1, 54042, Note_on_c, 0, 76, 0
1, 54045, Note_on_c, 0, 74, 61
1, 54057, Note_on_c, 0, 74, 0
1, 54060, Note_on_c, 0, 76, 61
1, 54072, Note_on_c, 0, 76, 0
1, 54075, Note_on_c, 0, 74, 51
1, 54087, Note_on_c, 0, 74, 0
1, 54090, Note_on_c, 0, 76, 58
1, 54096, Note_on_c, 0, 53, 0
1, 54102, Note_on_c, 0, 76, 0
1, 54105, Note_on_c, 0, 74, 50
1, 54117, Note_on_c, 0, 74, 0
1, 54120, Note_on_c, 0, 55, 66
1, 54120, Note_on_c, 0, 76, 54
1, 54132, Note_on_c, 0, 76, 0
1, 54135, Note_on_c, 0, 74, 47
1, 54147, Note_on_c, 0, 74, 0
1, 54150, Note_on_c, 0, 76, 44
1, 54162, Note_on_c, 0, 76, 0
1, 54165, Note_on_c, 0, 74, 50
1, 54177, Note_on_c, 0, 74, 0
1, 54180, Note_on_c, 0, 76, 46
1, 54192, Note_on_c, 0, 76, 0
1, 54195, Note_on_c, 0, 74, 40
1, 54207, Note_on_c, 0, 74, 0
1, 54210, Note_on_c, 0, 76, 52
1, 54216, Note_on_c, 0, 55, 0
1, 54222, Note_on_c, 0, 76, 0
1, 54225, Note_on_c, 0, 74, 42
1, 54237, Note_on_c, 0, 74, 0
1, 54240, Note_on_c, 0, 48, 58
1, 54240, Note_on_c, 0, 72, 42
1, 54336, Note_on_c, 0, 48, 0
1, 54360, Note_on_c, 0, 60, 54
1, 54432, Note_on_c, 0, 72, 0
1, 54456, Note_on_c, 0, 60, 0
1, 54480, Note_on_c, 0, 48, 50
1, 54600, Note_on_c, 0, 75, 89
1, 54600, Note_on_c, 0, 79, 44
1, 54672, Note_on_c, 0, 48, 0
1, 54696, Note_on_c, 0, 79, 0
1, 54696, Note_on_c, 0, 75, 0
1, 54720, Note_on_c, 0, 80, 47
1, 54720, Note_on_c, 0, 77, 71
1, 54816, Note_on_c, 0, 77, 0
1, 54816, Note_on_c, 0, 80, 0
1, 54840, Note_on_c, 0, 48, 54
1, 54840, Note_on_c, 0, 60, 42
1, 54936, Note_on_c, 0, 60, 0
1, 54936, Note_on_c, 0, 48, 0
1, 54960, Note_on_c, 0, 50, 45
1, 54960, Note_on_c, 0, 62, 42
1, 55056, Note_on_c, 0, 62, 0
1, 55056, Note_on_c, 0, 50, 0
1, 55080, Note_on_c, 0, 75, 47
1, 55080, Note_on_c, 0, 79, 43
1, 55176, Note_on_c, 0, 79, 0
1, 55176, Note_on_c, 0, 75, 0
1, 55200, Note_on_c, 0, 74, 66
1, 55200, Note_on_c, 0, 77, 42
1, 55296, Note_on_c, 0, 77, 0
1, 55296, Note_on_c, 0, 74, 0
1, 55320, Note_on_c, 0, 48, 47
1, 55320, Note_on_c, 0, 60, 50
1, 55416, Note_on_c, 0, 60, 0
1, 55416, Note_on_c, 0, 48, 0
1, 55440, Note_on_c, 0, 47, 42
1, 55440, Note_on_c, 0, 59, 43
1, 55536, Note_on_c, 0, 59, 0
1, 55536, Note_on_c, 0, 47, 0
1, 55560, Note_on_c, 0, 74, 61
1, 55560, Note_on_c, 0, 77, 53
1, 55656, Note_on_c, 0, 77, 0
1, 55656, Note_on_c, 0, 74, 0
1, 55680, Note_on_c, 0, 75, 66
1, 55680, Note_on_c, 0, 79, 42
1, 55776, Note_on_c, 0, 79, 0
1, 55776, Note_on_c, 0, 75, 0
1, 55800, Note_on_c, 0, 47, 54
1, 55800, Note_on_c, 0, 59, 42
1, 55896, Note_on_c, 0, 59, 0
1, 55896, Note_on_c, 0, 47, 0
1, 55920, Note_on_c, 0, 48, 42
1, 55920, Note_on_c, 0, 60, 42
1, 56016, Note_on_c, 0, 60, 0
1, 56016, Note_on_c, 0, 48, 0
1, 56040, Note_on_c, 0, 74, 69
1, 56040, Note_on_c, 0, 77, 42
1, 56136, Note_on_c, 0, 77, 0
1, 56136, Note_on_c, 0, 74, 0
1, 56160, Note_on_c, 0, 75, 46
1, 56160, Note_on_c, 0, 72, 58
1, 56256, Note_on_c, 0, 72, 0
1, 56256, Note_on_c, 0, 75, 0
1, 56280, Note_on_c, 0, 58, 66
1, 56280, Note_on_c, 0, 46, 55
1, 56376, Note_on_c, 0, 46, 0
1, 56376, Note_on_c, 0, 58, 0
1, 56400, Note_on_c, 0, 56, 42
1, 56400, Note_on_c, 0, 44, 45
1, 56496, Note_on_c, 0, 44, 0
1, 56496, Note_on_c, 0, 56, 0
1, 56520, Note_on_c, 0, 74, 43
1, 56520, Note_on_c, 0, 71, 42
1, 56616, Note_on_c, 0, 71, 0
1, 56616, Note_on_c, 0, 74, 0
1, 56640, Note_on_c, 0, 75, 43
1, 56640, Note_on_c, 0, 72, 53
1, 56736, Note_on_c, 0, 72, 0
1, 56736, Note_on_c, 0, 75, 0
1, 56760, Note_on_c, 0, 55, 27
1, 56760, Note_on_c, 0, 43, 47
1, 56856, Note_on_c, 0, 43, 0
1, 56856, Note_on_c, 0, 55, 0
1, 56880, Note_on_c, 0, 54, 42
1, 56880, Note_on_c, 0, 42, 44
1, 56976, Note_on_c, 0, 42, 0
1, 56976, Note_on_c, 0, 54, 0
1, 57000, Note_on_c, 0, 54, 42
1, 57000, Note_on_c, 0, 42, 45
1, 57000, Note_on_c, 0, 75, 42
1, 57000, Note_on_c, 0, 72, 50
1, 57096, Note_on_c, 0, 72, 0
1, 57096, Note_on_c, 0, 75, 0
1, 57096, Note_on_c, 0, 42, 0
1, 57096, Note_on_c, 0, 54, 0
1, 57120, Note_on_c, 0, 72, 66
1, 57120, Note_on_c, 0, 55, 47
1, 57120, Note_on_c, 0, 75, 71
1, 57216, Note_on_c, 0, 75, 0
1, 57216, Note_on_c, 0, 55, 0
1, 57216, Note_on_c, 0, 72, 0
1, 57240, Note_on_c, 0, 43, 50
1, 57240, Note_on_c, 0, 74, 42
1, 57240, Note_on_c, 0, 71, 42
1, 57336, Note_on_c, 0, 71, 0
1, 57336, Note_on_c, 0, 74, 0
1, 57336, Note_on_c, 0, 43, 0
1, 57480, Note_on_c, 0, 67, 61
1, 57512, Note_on_c, 0, 67, 0
1, 57520, Note_on_c, 0, 69, 66
1, 57552, Note_on_c, 0, 69, 0
1, 57560, Note_on_c, 0, 71, 50
1, 57592, Note_on_c, 0, 71, 0
1, 57600, Note_on_c, 0, 52, 65
1, 57600, Note_on_c, 0, 48, 75
1, 57600, Note_on_c, 0, 72, 61
1, 57696, Note_on_c, 0, 72, 0
1, 57720, Note_on_c, 0, 72, 54
1, 57752, Note_on_c, 0, 72, 0
1, 57760, Note_on_c, 0, 74, 83
1, 57792, Note_on_c, 0, 74, 0
1, 57792, Note_on_c, 0, 48, 0
1, 57792, Note_on_c, 0, 52, 0
1, 57800, Note_on_c, 0, 76, 71
1, 57832, Note_on_c, 0, 76, 0
1, 57840, Note_on_c, 0, 72, 44
1, 57936, Note_on_c, 0, 72, 0
1, 57960, Note_on_c, 0, 76, 58
1, 57992, Note_on_c, 0, 76, 0
1, 58000, Note_on_c, 0, 77, 42
1, 58032, Note_on_c, 0, 77, 0
1, 58040, Note_on_c, 0, 79, 47
1, 58072, Note_on_c, 0, 79, 0
1, 58080, Note_on_c, 0, 76, 71
1, 58176, Note_on_c, 0, 76, 0
1, 58200, Note_on_c, 0, 79, 61
1, 58232, Note_on_c, 0, 79, 0
1, 58240, Note_on_c, 0, 81, 44
1, 58272, Note_on_c, 0, 81, 0
1, 58280, Note_on_c, 0, 83, 54
1, 58312, Note_on_c, 0, 83, 0
1, 58320, Note_on_c, 0, 84, 47
1, 58416, Note_on_c, 0, 84, 0
1, 58440, Note_on_c, 0, 60, 45
1, 58440, Note_on_c, 0, 52, 69
1, 58440, Note_on_c, 0, 79, 41
1, 58536, Note_on_c, 0, 79, 0
1, 58536, Note_on_c, 0, 52, 0
1, 58536, Note_on_c, 0, 60, 0
1, 58560, Note_on_c, 0, 60, 42
1, 58560, Note_on_c, 0, 53, 49
1, 58560, Note_on_c, 0, 81, 54
1, 58656, Note_on_c, 0, 81, 0
1, 58680, Note_on_c, 0, 84, 52
1, 58712, Note_on_c, 0, 84, 0
1, 58720, Note_on_c, 0, 81, 58
1, 58752, Note_on_c, 0, 81, 0
1, 58752, Note_on_c, 0, 53, 0
1, 58752, Note_on_c, 0, 60, 0
1, 58760, Note_on_c, 0, 77, 52
1, 58792, Note_on_c, 0, 77, 0
1, 58800, Note_on_c, 0, 55, 55
1, 58800, Note_on_c, 0, 60, 42
1, 58800, Note_on_c, 0, 76, 54
1, 58896, Note_on_c, 0, 76, 0
1, 58896, Note_on_c, 0, 60, 0
1, 58896, Note_on_c, 0, 55, 0
1, 58920, Note_on_c, 0, 55, 43
1, 58920, Note_on_c, 0, 59, 42
1, 58920, Note_on_c, 0, 76, 46
1, 58932, Note_on_c, 0, 76, 0
1, 58935, Note_on_c, 0, 74, 58
1, 58947, Note_on_c, 0, 74, 0
1, 58950, Note_on_c, 0, 76, 71
1, 58962, Note_on_c, 0, 76, 0
1, 58965, Note_on_c, 0, 74, 50
1, 58977, Note_on_c, 0, 74, 0
1, 58980, Note_on_c, 0, 76, 66
1, 58992, Note_on_c, 0, 76, 0
1, 58995, Note_on_c, 0, 74, 42
1, 59007, Note_on_c, 0, 74, 0
1, 59010, Note_on_c, 0, 76, 54
1, 59016, Note_on_c, 0, 59, 0
1, 59016, Note_on_c, 0, 55, 0
1, 59022, Note_on_c, 0, 76, 0
1, 59025, Note_on_c, 0, 74, 43
1, 59037, Note_on_c, 0, 74, 0
1, 59040, Note_on_c, 0, 60, 43
1, 59040, Note_on_c, 0, 72, 71
1, 59136, Note_on_c, 0, 60, 0
1, 59160, Note_on_c, 0, 55, 50
1, 59232, Note_on_c, 0, 72, 0
1, 59256, Note_on_c, 0, 55, 0
1, 59280, Note_on_c, 0, 48, 42
1, 59400, Note_on_c, 0, 67, 61
1, 59432, Note_on_c, 0, 67, 0
1, 59440, Note_on_c, 0, 69, 66
1, 59472, Note_on_c, 0, 69, 0
1, 59472, Note_on_c, 0, 48, 0
1, 59480, Note_on_c, 0, 71, 50
1, 59512, Note_on_c, 0, 71, 0
1, 59520, Note_on_c, 0, 52, 83
1, 59520, Note_on_c, 0, 48, 50
1, 59520, Note_on_c, 0, 72, 61
1, 59616, Note_on_c, 0, 72, 0
1, 59640, Note_on_c, 0, 72, 54
1, 59672, Note_on_c, 0, 72, 0
1, 59680, Note_on_c, 0, 74, 83
1, 59712, Note_on_c, 0, 74, 0
1, 59712, Note_on_c, 0, 48, 0
1, 59712, Note_on_c, 0, 52, 0
1, 59720, Note_on_c, 0, 76, 71
1, 59752, Note_on_c, 0, 76, 0
1, 59760, Note_on_c, 0, 72, 44
1, 59856, Note_on_c, 0, 72, 0
1, 59880, Note_on_c, 0, 76, 58
1, 59912, Note_on_c, 0, 76, 0
1, 59920, Note_on_c, 0, 77, 42
1, 59952, Note_on_c, 0, 77, 0
1, 59960, Note_on_c, 0, 79, 47
1, 59992, Note_on_c, 0, 79, 0
1, 60000, Note_on_c, 0, 76, 80
1, 60096, Note_on_c, 0, 76, 0
1, 60120, Note_on_c, 0, 52, 44
1, 60120, Note_on_c, 0, 67, 52
1, 60120, Note_on_c, 0, 40, 43
1, 60168, Note_on_c, 0, 67, 0
1, 60180, Note_on_c, 0, 79, 42
1, 60216, Note_on_c, 0, 40, 0
1, 60216, Note_on_c, 0, 52, 0
1, 60228, Note_on_c, 0, 79, 0
1, 60240, Note_on_c, 0, 52, 42
1, 60240, Note_on_c, 0, 40, 43
1, 60240, Note_on_c, 0, 67, 43
1, 60288, Note_on_c, 0, 67, 0
1, 60300, Note_on_c, 0, 79, 42
1, 60336, Note_on_c, 0, 40, 0
1, 60336, Note_on_c, 0, 52, 0
1, 60348, Note_on_c, 0, 79, 0
1, 60360, Note_on_c, 0, 52, 42
1, 60360, Note_on_c, 0, 40, 42
1, 60360, Note_on_c, 0, 67, 52
1, 60408, Note_on_c, 0, 67, 0
1, 60420, Note_on_c, 0, 79, 50
1, 60456, Note_on_c, 0, 40, 0
1, 60456, Note_on_c, 0, 52, 0
1, 60468, Note_on_c, 0, 79, 0
1, 60480, Note_on_c, 0, 41, 43
1, 60480, Note_on_c, 0, 69, 58
1, 60480, Note_on_c, 0, 53, 42
1, 60528, Note_on_c, 0, 69, 0
1, 60540, Note_on_c, 0, 79, 66
1, 60576, Note_on_c, 0, 53, 0
1, 60576, Note_on_c, 0, 41, 0
1, 60588, Note_on_c, 0, 79, 0
1, 60600, Note_on_c, 0, 69, 52
1, 60600, Note_on_c, 0, 41, 42
1, 60600, Note_on_c, 0, 53, 42
1, 60648, Note_on_c, 0, 69, 0
1, 60660, Note_on_c, 0, 79, 66
1, 60696, Note_on_c, 0, 53, 0
1, 60696, Note_on_c, 0, 41, 0
1, 60708, Note_on_c, 0, 79, 0
1, 60720, Note_on_c, 0, 50, 43
1, 60720, Note_on_c, 0, 38, 42
1, 60720, Note_on_c, 0, 69, 50
1, 60768, Note_on_c, 0, 69, 0
1, 60780, Note_on_c, 0, 77, 83
1, 60816, Note_on_c, 0, 38, 0
1, 60816, Note_on_c, 0, 50, 0
1, 60828, Note_on_c, 0, 77, 0
1, 60840, Note_on_c, 0, 50, 42
1, 60840, Note_on_c, 0, 38, 42
1, 60840, Note_on_c, 0, 69, 52
1, 60888, Note_on_c, 0, 69, 0
1, 60900, Note_on_c, 0, 77, 61
1, 60936, Note_on_c, 0, 38, 0
1, 60936, Note_on_c, 0, 50, 0
1, 60948, Note_on_c, 0, 77, 0
1, 60960, Note_on_c, 0, 47, 44
1, 60960, Note_on_c, 0, 67, 50
1, 60960, Note_on_c, 0, 35, 50
1, 61008, Note_on_c, 0, 67, 0
1, 61020, Note_on_c, 0, 77, 71
1, 61056, Note_on_c, 0, 35, 0
1, 61056, Note_on_c, 0, 47, 0
1, 61068, Note_on_c, 0, 77, 0
1, 61080, Note_on_c, 0, 67, 52
1, 61080, Note_on_c, 0, 47, 47
1, 61080, Note_on_c, 0, 35, 61
1, 61128, Note_on_c, 0, 67, 0
1, 61140, Note_on_c, 0, 77, 66
1, 61176, Note_on_c, 0, 35, 0
1, 61176, Note_on_c, 0, 47, 0
1, 61188, Note_on_c, 0, 77, 0
1, 61200, Note_on_c, 0, 48, 69
1, 61200, Note_on_c, 0, 36, 80
1, 61200, Note_on_c, 0, 67, 47
1, 61248, Note_on_c, 0, 67, 0
1, 61260, Note_on_c, 0, 76, 97
1, 61296, Note_on_c, 0, 36, 0
1, 61296, Note_on_c, 0, 48, 0
1, 61308, Note_on_c, 0, 76, 0
1, 61320, Note_on_c, 0, 48, 49
1, 61320, Note_on_c, 0, 36, 42
1, 61320, Note_on_c, 0, 67, 52
1, 61368, Note_on_c, 0, 67, 0
1, 61380, Note_on_c, 0, 76, 61
1, 61416, Note_on_c, 0, 36, 0
1, 61416, Note_on_c, 0, 48, 0
1, 61428, Note_on_c, 0, 76, 0
1, 61440, Note_on_c, 0, 41, 80
1, 61440, Note_on_c, 0, 65, 52
1, 61440, Note_on_c, 0, 53, 69
1, 61488, Note_on_c, 0, 65, 0
1, 61500, Note_on_c, 0, 74, 69
1, 61536, Note_on_c, 0, 53, 0
1, 61536, Note_on_c, 0, 41, 0
1, 61548, Note_on_c, 0, 74, 0
1, 61560, Note_on_c, 0, 65, 54
1, 61560, Note_on_c, 0, 41, 55
1, 61560, Note_on_c, 0, 53, 47
1, 61608, Note_on_c, 0, 65, 0
1, 61620, Note_on_c, 0, 74, 58
1, 61656, Note_on_c, 0, 53, 0
1, 61656, Note_on_c, 0, 41, 0
1, 61668, Note_on_c, 0, 74, 0
1, 61680, Note_on_c, 0, 55, 69
1, 61680, Note_on_c, 0, 43, 86
1, 61680, Note_on_c, 0, 62, 61
1, 61728, Note_on_c, 0, 62, 0
1, 61740, Note_on_c, 0, 71, 52
1, 61776, Note_on_c, 0, 43, 0
1, 61776, Note_on_c, 0, 55, 0
1, 61788, Note_on_c, 0, 71, 0
1, 61800, Note_on_c, 0, 43, 77
1, 61800, Note_on_c, 0, 55, 53
1, 61800, Note_on_c, 0, 62, 45
1, 61848, Note_on_c, 0, 62, 0
1, 61860, Note_on_c, 0, 71, 61
1, 61896, Note_on_c, 0, 55, 0
1, 61896, Note_on_c, 0, 43, 0
1, 61908, Note_on_c, 0, 71, 0
1, 61920, Note_on_c, 0, 36, 80
1, 61920, Note_on_c, 0, 48, 80
1, 61920, Note_on_c, 0, 72, 80
1, 61920, Note_on_c, 0, 64, 80
1, 62304, Note_on_c, 0, 64, 0
1, 62304, Note_on_c, 0, 72, 0
1, 62304, Note_on_c, 0, 48, 0
1, 62304, Note_on_c, 0, 36, 0
1, 62400, Note_on_c, 0, 55, 74
1, 62400, Note_on_c, 0, 59, 71
1, 62496, Note_on_c, 0, 59, 0
1, 62496, Note_on_c, 0, 55, 0
1, 62520, Note_on_c, 0, 67, 80
1, 62520, Note_on_c, 0, 55, 66
1, 62520, Note_on_c, 0, 59, 42
1, 62616, Note_on_c, 0, 59, 0
1, 62616, Note_on_c, 0, 55, 0
1, 62616, Note_on_c, 0, 67, 0
1, 62640, Note_on_c, 0, 55, 54
1, 62640, Note_on_c, 0, 59, 42
1, 62640, Note_on_c, 0, 71, 80
1, 62688, Note_on_c, 0, 71, 0
1, 62700, Note_on_c, 0, 67, 80
1, 62736, Note_on_c, 0, 59, 0
1, 62736, Note_on_c, 0, 55, 0
1, 62748, Note_on_c, 0, 67, 0
1, 62760, Note_on_c, 0, 55, 54
1, 62760, Note_on_c, 0, 59, 44
1, 62760, Note_on_c, 0, 74, 54
1, 62808, Note_on_c, 0, 74, 0
1, 62820, Note_on_c, 0, 71, 54
1, 62856, Note_on_c, 0, 59, 0
1, 62856, Note_on_c, 0, 55, 0
1, 62868, Note_on_c, 0, 71, 0
1, 62880, Note_on_c, 0, 59, 48
1, 62880, Note_on_c, 0, 77, 71
1, 62880, Note_on_c, 0, 55, 58
1, 62976, Note_on_c, 0, 55, 0
1, 62976, Note_on_c, 0, 59, 0
1, 63000, Note_on_c, 0, 55, 58
1, 63000, Note_on_c, 0, 59, 43
1, 63024, Note_on_c, 0, 77, 0
1, 63060, Note_on_c, 0, 74, 61
1, 63096, Note_on_c, 0, 59, 0
1, 63096, Note_on_c, 0, 55, 0
1, 63108, Note_on_c, 0, 74, 0
1, 63120, Note_on_c, 0, 55, 54
1, 63120, Note_on_c, 0, 59, 42
1, 63120, Note_on_c, 0, 76, 77
1, 63132, Note_on_c, 0, 76, 0
1, 63135, Note_on_c, 0, 74, 54
1, 63147, Note_on_c, 0, 74, 0
1, 63150, Note_on_c, 0, 76, 77
1, 63162, Note_on_c, 0, 76, 0
1, 63165, Note_on_c, 0, 74, 44
1, 63177, Note_on_c, 0, 74, 0
1, 63180, Note_on_c, 0, 76, 47
1, 63192, Note_on_c, 0, 76, 0
1, 63195, Note_on_c, 0, 74, 45
1, 63207, Note_on_c, 0, 74, 0
1, 63210, Note_on_c, 0, 76, 61
1, 63216, Note_on_c, 0, 59, 0
1, 63216, Note_on_c, 0, 55, 0
1, 63222, Note_on_c, 0, 76, 0
1, 63225, Note_on_c, 0, 74, 52
1, 63237, Note_on_c, 0, 74, 0
1, 63240, Note_on_c, 0, 59, 42
1, 63240, Note_on_c, 0, 55, 51
1, 63240, Note_on_c, 0, 76, 50
1, 63252, Note_on_c, 0, 76, 0
1, 63255, Note_on_c, 0, 74, 42
1, 63267, Note_on_c, 0, 74, 0
1, 63270, Note_on_c, 0, 76, 50
1, 63282, Note_on_c, 0, 76, 0
1, 63285, Note_on_c, 0, 74, 44
1, 63297, Note_on_c, 0, 74, 0
1, 63300, Note_on_c, 0, 76, 42
1, 63312, Note_on_c, 0, 76, 0
1, 63315, Note_on_c, 0, 74, 42
1, 63327, Note_on_c, 0, 74, 0
1, 63330, Note_on_c, 0, 76, 43
1, 63336, Note_on_c, 0, 55, 0
1, 63336, Note_on_c, 0, 59, 0
1, 63342, Note_on_c, 0, 76, 0
1, 63345, Note_on_c, 0, 74, 47
1, 63357, Note_on_c, 0, 74, 0
1, 63360, Note_on_c, 0, 59, 42
1, 63360, Note_on_c, 0, 86, 61
1, 63360, Note_on_c, 0, 55, 45
1, 63408, Note_on_c, 0, 86, 0
1, 63420, Note_on_c, 0, 84, 61
1, 63456, Note_on_c, 0, 55, 0
1, 63456, Note_on_c, 0, 59, 0
1, 63468, Note_on_c, 0, 84, 0
1, 63480, Note_on_c, 0, 83, 61
1, 63480, Note_on_c, 0, 55, 54
1, 63480, Note_on_c, 0, 59, 42
1, 63528, Note_on_c, 0, 83, 0
1, 63540, Note_on_c, 0, 81, 66
1, 63576, Note_on_c, 0, 59, 0
1, 63576, Note_on_c, 0, 55, 0
1, 63588, Note_on_c, 0, 81, 0
1, 63600, Note_on_c, 0, 55, 47
1, 63600, Note_on_c, 0, 59, 30
1, 63600, Note_on_c, 0, 79, 61
1, 63648, Note_on_c, 0, 79, 0
1, 63660, Note_on_c, 0, 77, 71
1, 63696, Note_on_c, 0, 59, 0
1, 63696, Note_on_c, 0, 55, 0
1, 63708, Note_on_c, 0, 77, 0
1, 63720, Note_on_c, 0, 55, 43
1, 63720, Note_on_c, 0, 59, 42
1, 63720, Note_on_c, 0, 76, 83
1, 63768, Note_on_c, 0, 76, 0
1, 63780, Note_on_c, 0, 74, 66
1, 63816, Note_on_c, 0, 59, 0
1, 63816, Note_on_c, 0, 55, 0
1, 63828, Note_on_c, 0, 74, 0
1, 63840, Note_on_c, 0, 60, 43
1, 63840, Note_on_c, 0, 76, 77
1, 63840, Note_on_c, 0, 55, 50
1, 63936, Note_on_c, 0, 55, 0
1, 63936, Note_on_c, 0, 76, 0
1, 63936, Note_on_c, 0, 60, 0
1, 63960, Note_on_c, 0, 67, 71
1, 63960, Note_on_c, 0, 55, 47
1, 63960, Note_on_c, 0, 60, 45
1, 64056, Note_on_c, 0, 60, 0
1, 64056, Note_on_c, 0, 55, 0
1, 64056, Note_on_c, 0, 67, 0
1, 64080, Note_on_c, 0, 55, 45
1, 64080, Note_on_c, 0, 60, 39
1, 64080, Note_on_c, 0, 72, 71
1, 64128, Note_on_c, 0, 72, 0
1, 64140, Note_on_c, 0, 67, 77
1, 64176, Note_on_c, 0, 60, 0
1, 64176, Note_on_c, 0, 55, 0
1, 64188, Note_on_c, 0, 67, 0
1, 64200, Note_on_c, 0, 55, 45
1, 64200, Note_on_c, 0, 60, 43
1, 64200, Note_on_c, 0, 76, 77
1, 64248, Note_on_c, 0, 76, 0
1, 64260, Note_on_c, 0, 72, 77
1, 64296, Note_on_c, 0, 60, 0
1, 64296, Note_on_c, 0, 55, 0
1, 64308, Note_on_c, 0, 72, 0
1, 64320, Note_on_c, 0, 60, 44
1, 64320, Note_on_c, 0, 79, 58
1, 64320, Note_on_c, 0, 55, 58
1, 64416, Note_on_c, 0, 55, 0
1, 64416, Note_on_c, 0, 60, 0
1, 64440, Note_on_c, 0, 55, 43
1, 64440, Note_on_c, 0, 60, 30
1, 64464, Note_on_c, 0, 79, 0
1, 64500, Note_on_c, 0, 76, 58
1, 64536, Note_on_c, 0, 60, 0
1, 64536, Note_on_c, 0, 55, 0
1, 64548, Note_on_c, 0, 76, 0
1, 64560, Note_on_c, 0, 55, 51
1, 64560, Note_on_c, 0, 60, 42
1, 64560, Note_on_c, 0, 77, 77
1, 64572, Note_on_c, 0, 77, 0
1, 64575, Note_on_c, 0, 76, 66
1, 64587, Note_on_c, 0, 76, 0
1, 64590, Note_on_c, 0, 77, 66
1, 64602, Note_on_c, 0, 77, 0
1, 64605, Note_on_c, 0, 76, 50
1, 64617, Note_on_c, 0, 76, 0
1, 64620, Note_on_c, 0, 77, 66
1, 64632, Note_on_c, 0, 77, 0
1, 64635, Note_on_c, 0, 76, 54
1, 64647, Note_on_c, 0, 76, 0
1, 64650, Note_on_c, 0, 77, 52
1, 64656, Note_on_c, 0, 60, 0
1, 64656, Note_on_c, 0, 55, 0
1, 64662, Note_on_c, 0, 77, 0
1, 64665, Note_on_c, 0, 76, 52
1, 64677, Note_on_c, 0, 76, 0
1, 64680, Note_on_c, 0, 55, 43
1, 64680, Note_on_c, 0, 60, 42
1, 64680, Note_on_c, 0, 77, 77
1, 64692, Note_on_c, 0, 77, 0
1, 64695, Note_on_c, 0, 76, 71
1, 64707, Note_on_c, 0, 76, 0
1, 64710, Note_on_c, 0, 77, 77
1, 64722, Note_on_c, 0, 77, 0
1, 64725, Note_on_c, 0, 76, 52
1, 64737, Note_on_c, 0, 76, 0
1, 64740, Note_on_c, 0, 77, 61
1, 64752, Note_on_c, 0, 77, 0
1, 64755, Note_on_c, 0, 76, 42
1, 64767, Note_on_c, 0, 76, 0
1, 64770, Note_on_c, 0, 77, 54
1, 64776, Note_on_c, 0, 60, 0
1, 64776, Note_on_c, 0, 55, 0
1, 64782, Note_on_c, 0, 77, 0
1, 64785, Note_on_c, 0, 76, 44
1, 64797, Note_on_c, 0, 76, 0
1, 64800, Note_on_c, 0, 60, 43
1, 64800, Note_on_c, 0, 84, 61
1, 64800, Note_on_c, 0, 55, 61
1, 64848, Note_on_c, 0, 84, 0
1, 64860, Note_on_c, 0, 83, 61
1, 64896, Note_on_c, 0, 55, 0
1, 64896, Note_on_c, 0, 60, 0
1, 64908, Note_on_c, 0, 83, 0
1, 64920, Note_on_c, 0, 60, 42
1, 64920, Note_on_c, 0, 81, 58
1, 64920, Note_on_c, 0, 55, 58
1, 64968, Note_on_c, 0, 81, 0
1, 64980, Note_on_c, 0, 79, 71
1, 65016, Note_on_c, 0, 55, 0
1, 65016, Note_on_c, 0, 60, 0
1, 65028, Note_on_c, 0, 79, 0
1, 65040, Note_on_c, 0, 77, 77
1, 65040, Note_on_c, 0, 55, 54
1, 65040, Note_on_c, 0, 60, 42
1, 65088, Note_on_c, 0, 77, 0
1, 65100, Note_on_c, 0, 76, 77
1, 65136, Note_on_c, 0, 60, 0
1, 65136, Note_on_c, 0, 55, 0
1, 65148, Note_on_c, 0, 76, 0
1, 65160, Note_on_c, 0, 74, 58
1, 65160, Note_on_c, 0, 60, 43
1, 65160, Note_on_c, 0, 55, 56
1, 65208, Note_on_c, 0, 74, 0
1, 65220, Note_on_c, 0, 72, 61
1, 65256, Note_on_c, 0, 55, 0
1, 65256, Note_on_c, 0, 60, 0
1, 65268, Note_on_c, 0, 72, 0
1, 65280, Note_on_c, 0, 55, 77
1, 65280, Note_on_c, 0, 74, 80
1, 65280, Note_on_c, 0, 59, 45
1, 65376, Note_on_c, 0, 59, 0
1, 65376, Note_on_c, 0, 74, 0
1, 65376, Note_on_c, 0, 55, 0
1, 65400, Note_on_c, 0, 67, 80
1, 65400, Note_on_c, 0, 55, 51
1, 65400, Note_on_c, 0, 59, 49
1, 65496, Note_on_c, 0, 59, 0
1, 65496, Note_on_c, 0, 55, 0
1, 65496, Note_on_c, 0, 67, 0
1, 65520, Note_on_c, 0, 55, 66
1, 65520, Note_on_c, 0, 59, 56
1, 65520, Note_on_c, 0, 71, 80
1, 65568, Note_on_c, 0, 71, 0
1, 65580, Note_on_c, 0, 67, 80
1, 65616, Note_on_c, 0, 59, 0
1, 65616, Note_on_c, 0, 55, 0
1, 65628, Note_on_c, 0, 67, 0
1, 65640, Note_on_c, 0, 55, 52
1, 65640, Note_on_c, 0, 59, 43
1, 65640, Note_on_c, 0, 74, 54
1, 65688, Note_on_c, 0, 74, 0
1, 65700, Note_on_c, 0, 71, 54
1, 65736, Note_on_c, 0, 59, 0
1, 65736, Note_on_c, 0, 55, 0
1, 65748, Note_on_c, 0, 71, 0
1, 65760, Note_on_c, 0, 59, 45
1, 65760, Note_on_c, 0, 77, 71
1, 65760, Note_on_c, 0, 55, 58
1, 65856, Note_on_c, 0, 55, 0
1, 65856, Note_on_c, 0, 59, 0
1, 65880, Note_on_c, 0, 55, 65
1, 65880, Note_on_c, 0, 59, 47
1, 65904, Note_on_c, 0, 77, 0
1, 65940, Note_on_c, 0, 74, 61
1, 65976, Note_on_c, 0, 59, 0
1, 65976, Note_on_c, 0, 55, 0
1, 65988, Note_on_c, 0, 74, 0
1, 66000, Note_on_c, 0, 55, 62
1, 66000, Note_on_c, 0, 59, 43
1, 66000, Note_on_c, 0, 76, 77
1, 66012, Note_on_c, 0, 76, 0
1, 66015, Note_on_c, 0, 74, 54
1, 66027, Note_on_c, 0, 74, 0
1, 66030, Note_on_c, 0, 76, 77
1, 66042, Note_on_c, 0, 76, 0
1, 66045, Note_on_c, 0, 74, 44
1, 66057, Note_on_c, 0, 74, 0
1, 66060, Note_on_c, 0, 76, 47
1, 66072, Note_on_c, 0, 76, 0
1, 66075, Note_on_c, 0, 74, 45
1, 66087, Note_on_c, 0, 74, 0
1, 66090, Note_on_c, 0, 76, 61
1, 66096, Note_on_c, 0, 59, 0
1, 66096, Note_on_c, 0, 55, 0
1, 66102, Note_on_c, 0, 76, 0
1, 66105, Note_on_c, 0, 74, 52
1, 66117, Note_on_c, 0, 74, 0
1, 66120, Note_on_c, 0, 59, 45
1, 66120, Note_on_c, 0, 55, 64
1, 66120, Note_on_c, 0, 76, 50
1, 66132, Note_on_c, 0, 76, 0
1, 66135, Note_on_c, 0, 74, 42
1, 66147, Note_on_c, 0, 74, 0
1, 66150, Note_on_c, 0, 76, 50
1, 66162, Note_on_c, 0, 76, 0
1, 66165, Note_on_c, 0, 74, 44
1, 66177, Note_on_c, 0, 74, 0
1, 66180, Note_on_c, 0, 76, 42
1, 66192, Note_on_c, 0, 76, 0
1, 66195, Note_on_c, 0, 74, 42
1, 66207, Note_on_c, 0, 74, 0
1, 66210, Note_on_c, 0, 76, 43
1, 66216, Note_on_c, 0, 55, 0
1, 66216, Note_on_c, 0, 59, 0
1, 66222, Note_on_c, 0, 76, 0
1, 66225, Note_on_c, 0, 74, 47
1, 66237, Note_on_c, 0, 74, 0
1, 66240, Note_on_c, 0, 59, 42
1, 66240, Note_on_c, 0, 86, 61
1, 66240, Note_on_c, 0, 55, 54
1, 66288, Note_on_c, 0, 86, 0
1, 66300, Note_on_c, 0, 84, 61
1, 66336, Note_on_c, 0, 55, 0
1, 66336, Note_on_c, 0, 59, 0
1, 66348, Note_on_c, 0, 84, 0
1, 66360, Note_on_c, 0, 83, 61
1, 66360, Note_on_c, 0, 55, 55
1, 66360, Note_on_c, 0, 59, 42
1, 66408, Note_on_c, 0, 83, 0
1, 66420, Note_on_c, 0, 81, 66
1, 66456, Note_on_c, 0, 59, 0
1, 66456, Note_on_c, 0, 55, 0
1, 66468, Note_on_c, 0, 81, 0
1, 66480, Note_on_c, 0, 59, 43
1, 66480, Note_on_c, 0, 55, 54
1, 66480, Note_on_c, 0, 79, 61
1, 66528, Note_on_c, 0, 79, 0
1, 66540, Note_on_c, 0, 77, 71
1, 66576, Note_on_c, 0, 55, 0
1, 66576, Note_on_c, 0, 59, 0
1, 66588, Note_on_c, 0, 77, 0
1, 66600, Note_on_c, 0, 59, 42
1, 66600, Note_on_c, 0, 55, 50
1, 66600, Note_on_c, 0, 76, 83
1, 66648, Note_on_c, 0, 76, 0
1, 66660, Note_on_c, 0, 74, 66
1, 66696, Note_on_c, 0, 55, 0
1, 66696, Note_on_c, 0, 59, 0
1, 66708, Note_on_c, 0, 74, 0
1, 66720, Note_on_c, 0, 48, 48
1, 66720, Note_on_c, 0, 60, 45
1, 66780, Note_on_c, 0, 76, 66
1, 66828, Note_on_c, 0, 76, 0
1, 66840, Note_on_c, 0, 79, 42
1, 66888, Note_on_c, 0, 79, 0
1, 66900, Note_on_c, 0, 76, 54
1, 66912, Note_on_c, 0, 60, 0
1, 66912, Note_on_c, 0, 48, 0
1, 66948, Note_on_c, 0, 76, 0
1, 66960, Note_on_c, 0, 70, 77
1, 67020, Note_on_c, 0, 74, 83
1, 67056, Note_on_c, 0, 70, 0
1, 67068, Note_on_c, 0, 74, 0
1, 67080, Note_on_c, 0, 79, 52
1, 67128, Note_on_c, 0, 79, 0
1, 67140, Note_on_c, 0, 74, 58
1, 67188, Note_on_c, 0, 74, 0
1, 67200, Note_on_c, 0, 69, 54
1, 67260, Note_on_c, 0, 73, 58
1, 67296, Note_on_c, 0, 69, 0
1, 67308, Note_on_c, 0, 73, 0
1, 67320, Note_on_c, 0, 79, 54
1, 67368, Note_on_c, 0, 79, 0
1, 67380, Note_on_c, 0, 73, 61
1, 67428, Note_on_c, 0, 73, 0
1, 67440, Note_on_c, 0, 61, 47
1, 67440, Note_on_c, 0, 49, 61
1, 67500, Note_on_c, 0, 69, 58
1, 67548, Note_on_c, 0, 69, 0
1, 67560, Note_on_c, 0, 79, 54
1, 67608, Note_on_c, 0, 79, 0
1, 67620, Note_on_c, 0, 69, 54
1, 67632, Note_on_c, 0, 49, 0
1, 67632, Note_on_c, 0, 61, 0
1, 67668, Note_on_c, 0, 69, 0
1, 67680, Note_on_c, 0, 62, 47
1, 67680, Note_on_c, 0, 50, 43
1, 67740, Note_on_c, 0, 69, 58
1, 67788, Note_on_c, 0, 69, 0
1, 67800, Note_on_c, 0, 77, 58
1, 67848, Note_on_c, 0, 77, 0
1, 67860, Note_on_c, 0, 69, 54
1, 67872, Note_on_c, 0, 50, 0
1, 67872, Note_on_c, 0, 62, 0
1, 67908, Note_on_c, 0, 69, 0
1, 67920, Note_on_c, 0, 60, 48
1, 67920, Note_on_c, 0, 48, 43
1, 67980, Note_on_c, 0, 69, 61
1, 68028, Note_on_c, 0, 69, 0
1, 68040, Note_on_c, 0, 76, 66
1, 68088, Note_on_c, 0, 76, 0
1, 68100, Note_on_c, 0, 69, 61
1, 68112, Note_on_c, 0, 48, 0
1, 68112, Note_on_c, 0, 60, 0
1, 68148, Note_on_c, 0, 69, 0
1, 68160, Note_on_c, 0, 47, 42
1, 68160, Note_on_c, 0, 59, 42
1, 68220, Note_on_c, 0, 69, 66
1, 68268, Note_on_c, 0, 69, 0
1, 68280, Note_on_c, 0, 75, 66
1, 68328, Note_on_c, 0, 75, 0
1, 68340, Note_on_c, 0, 69, 58
1, 68352, Note_on_c, 0, 59, 0
1, 68352, Note_on_c, 0, 47, 0
1, 68388, Note_on_c, 0, 69, 0
1, 68400, Note_on_c, 0, 63, 71
1, 68460, Note_on_c, 0, 69, 52
1, 68496, Note_on_c, 0, 63, 0
1, 68508, Note_on_c, 0, 69, 0
1, 68520, Note_on_c, 0, 78, 66
1, 68568, Note_on_c, 0, 78, 0
1, 68580, Note_on_c, 0, 69, 50
1, 68628, Note_on_c, 0, 69, 0
1, 68640, Note_on_c, 0, 64, 61
1, 68700, Note_on_c, 0, 67, 42
1, 68736, Note_on_c, 0, 64, 0
1, 68748, Note_on_c, 0, 67, 0
1, 68760, Note_on_c, 0, 78, 61
1, 68808, Note_on_c, 0, 78, 0
1, 68820, Note_on_c, 0, 67, 34
1, 68868, Note_on_c, 0, 67, 0
1, 68880, Note_on_c, 0, 60, 43
1, 68880, Note_on_c, 0, 48, 52
1, 68940, Note_on_c, 0, 67, 66
1, 68988, Note_on_c, 0, 67, 0
1, 69000, Note_on_c, 0, 76, 54
1, 69048, Note_on_c, 0, 76, 0
1, 69060, Note_on_c, 0, 67, 54
1, 69072, Note_on_c, 0, 48, 0
1, 69072, Note_on_c, 0, 60, 0
1, 69108, Note_on_c, 0, 67, 0
1, 69120, Note_on_c, 0, 57, 47
1, 69120, Note_on_c, 0, 45, 43
1, 69180, Note_on_c, 0, 65, 52
1, 69228, Note_on_c, 0, 65, 0
1, 69240, Note_on_c, 0, 76, 58
1, 69288, Note_on_c, 0, 76, 0
1, 69300, Note_on_c, 0, 65, 44
1, 69312, Note_on_c, 0, 45, 0
1, 69312, Note_on_c, 0, 57, 0
1, 69348, Note_on_c, 0, 65, 0
1, 69360, Note_on_c, 0, 59, 50
1, 69360, Note_on_c, 0, 47, 61
1, 69420, Note_on_c, 0, 65, 54
1, 69468, Note_on_c, 0, 65, 0
1, 69480, Note_on_c, 0, 74, 58
1, 69528, Note_on_c, 0, 74, 0
1, 69540, Note_on_c, 0, 65, 52
1, 69552, Note_on_c, 0, 47, 0
1, 69552, Note_on_c, 0, 59, 0
1, 69588, Note_on_c, 0, 65, 0
1, 69600, Note_on_c, 0, 56, 61
1, 69600, Note_on_c, 0, 44, 74
1, 69660, Note_on_c, 0, 64, 42
1, 69708, Note_on_c, 0, 64, 0
1, 69720, Note_on_c, 0, 74, 42
1, 69768, Note_on_c, 0, 74, 0
1, 69780, Note_on_c, 0, 64, 46
1, 69792, Note_on_c, 0, 44, 0
1, 69792, Note_on_c, 0, 56, 0
1, 69828, Note_on_c, 0, 64, 0
1, 69840, Note_on_c, 0, 57, 81
1, 69840, Note_on_c, 0, 45, 89
1, 69900, Note_on_c, 0, 64, 42
1, 69948, Note_on_c, 0, 64, 0
1, 69960, Note_on_c, 0, 72, 52
1, 70008, Note_on_c, 0, 72, 0
1, 70020, Note_on_c, 0, 64, 42
1, 70032, Note_on_c, 0, 45, 0
1, 70032, Note_on_c, 0, 57, 0
1, 70068, Note_on_c, 0, 64, 0
1, 70080, Note_on_c, 0, 41, 81
1, 70080, Note_on_c, 0, 53, 80
1, 70140, Note_on_c, 0, 62, 61
1, 70188, Note_on_c, 0, 62, 0
1, 70200, Note_on_c, 0, 72, 52
1, 70248, Note_on_c, 0, 72, 0
1, 70260, Note_on_c, 0, 62, 54
1, 70272, Note_on_c, 0, 53, 0
1, 70272, Note_on_c, 0, 41, 0
1, 70308, Note_on_c, 0, 62, 0
1, 70320, Note_on_c, 0, 42, 69
1, 70320, Note_on_c, 0, 54, 52
1, 70380, Note_on_c, 0, 62, 44
1, 70428, Note_on_c, 0, 62, 0
1, 70440, Note_on_c, 0, 72, 42
1, 70488, Note_on_c, 0, 72, 0
1, 70500, Note_on_c, 0, 62, 29
1, 70512, Note_on_c, 0, 54, 0
1, 70512, Note_on_c, 0, 42, 0
1, 70548, Note_on_c, 0, 62, 0
1, 70560, Note_on_c, 0, 43, 44
1, 70560, Note_on_c, 0, 71, 45
1, 70608, Note_on_c, 0, 43, 0
1, 70620, Note_on_c, 0, 55, 54
1, 70668, Note_on_c, 0, 55, 0
1, 70680, Note_on_c, 0, 43, 45
1, 70728, Note_on_c, 0, 43, 0
1, 70740, Note_on_c, 0, 55, 44
1, 70752, Note_on_c, 0, 71, 0
1, 70788, Note_on_c, 0, 55, 0
1, 70800, Note_on_c, 0, 43, 52
1, 70848, Note_on_c, 0, 43, 0
1, 70860, Note_on_c, 0, 55, 47
1, 70908, Note_on_c, 0, 55, 0
1, 70920, Note_on_c, 0, 43, 42
1, 70920, Note_on_c, 0, 62, 54
1, 70920, Note_on_c, 0, 59, 57
1, 70968, Note_on_c, 0, 43, 0
1, 70980, Note_on_c, 0, 55, 42
1, 71016, Note_on_c, 0, 59, 0
1, 71016, Note_on_c, 0, 62, 0
1, 71028, Note_on_c, 0, 55, 0
1, 71040, Note_on_c, 0, 64, 40
1, 71040, Note_on_c, 0, 43, 42
1, 71040, Note_on_c, 0, 60, 66
1, 71088, Note_on_c, 0, 43, 0
1, 71100, Note_on_c, 0, 55, 43
1, 71136, Note_on_c, 0, 60, 0
1, 71136, Note_on_c, 0, 64, 0
1, 71148, Note_on_c, 0, 55, 0
1, 71160, Note_on_c, 0, 43, 42
1, 71208, Note_on_c, 0, 43, 0
1, 71220, Note_on_c, 0, 55, 42
1, 71268, Note_on_c, 0, 55, 0
1, 71280, Note_on_c, 0, 43, 42
1, 71328, Note_on_c, 0, 43, 0
1, 71340, Note_on_c, 0, 55, 44
1, 71388, Note_on_c, 0, 55, 0
1, 71400, Note_on_c, 0, 43, 43
1, 71400, Note_on_c, 0, 66, 42
1, 71400, Note_on_c, 0, 72, 42
1, 71448, Note_on_c, 0, 43, 0
1, 71460, Note_on_c, 0, 55, 50
1, 71496, Note_on_c, 0, 72, 0
1, 71496, Note_on_c, 0, 66, 0
1, 71508, Note_on_c, 0, 55, 0
1, 71520, Note_on_c, 0, 67, 50
1, 71520, Note_on_c, 0, 43, 52
1, 71520, Note_on_c, 0, 71, 45
1, 71568, Note_on_c, 0, 43, 0
1, 71580, Note_on_c, 0, 55, 45
1, 71616, Note_on_c, 0, 71, 0
1, 71616, Note_on_c, 0, 67, 0
1, 71628, Note_on_c, 0, 55, 0
1, 71640, Note_on_c, 0, 43, 43
1, 71688, Note_on_c, 0, 43, 0
1, 71700, Note_on_c, 0, 55, 42
1, 71748, Note_on_c, 0, 55, 0
1, 71760, Note_on_c, 0, 43, 54
1, 71808, Note_on_c, 0, 43, 0
1, 71820, Note_on_c, 0, 55, 44
1, 71868, Note_on_c, 0, 55, 0
1, 71880, Note_on_c, 0, 43, 42
1, 71880, Note_on_c, 0, 59, 47
1, 71880, Note_on_c, 0, 62, 48
1, 71928, Note_on_c, 0, 43, 0
1, 71940, Note_on_c, 0, 55, 43
1, 71976, Note_on_c, 0, 62, 0
1, 71976, Note_on_c, 0, 59, 0
1, 71988, Note_on_c, 0, 55, 0
1, 72000, Note_on_c, 0, 64, 42
1, 72000, Note_on_c, 0, 43, 42
1, 72000, Note_on_c, 0, 60, 52
1, 72048, Note_on_c, 0, 43, 0
1, 72060, Note_on_c, 0, 55, 42
1, 72096, Note_on_c, 0, 60, 0
1, 72096, Note_on_c, 0, 64, 0
1, 72108, Note_on_c, 0, 55, 0
1, 72120, Note_on_c, 0, 43, 44
1, 72168, Note_on_c, 0, 43, 0
1, 72180, Note_on_c, 0, 55, 42
1, 72228, Note_on_c, 0, 55, 0
1, 72240, Note_on_c, 0, 43, 58
1, 72288, Note_on_c, 0, 43, 0
1, 72300, Note_on_c, 0, 55, 43
1, 72348, Note_on_c, 0, 55, 0
1, 72360, Note_on_c, 0, 43, 47
1, 72360, Note_on_c, 0, 66, 42
1, 72360, Note_on_c, 0, 60, 46
1, 72408, Note_on_c, 0, 43, 0
1, 72420, Note_on_c, 0, 55, 42
1, 72456, Note_on_c, 0, 60, 0
1, 72456, Note_on_c, 0, 66, 0
1, 72468, Note_on_c, 0, 55, 0
1, 72480, Note_on_c, 0, 43, 80
1, 72480, Note_on_c, 0, 67, 43
1, 72480, Note_on_c, 0, 59, 56
1, 72672, Note_on_c, 0, 59, 0
1, 72672, Note_on_c, 0, 67, 0
1, 72672, Note_on_c, 0, 43, 0
1, 72960, Note_on_c, 0, 64, 42
1, 72960, Note_on_c, 0, 60, 40
1, 73056, Note_on_c, 0, 60, 0
1, 73056, Note_on_c, 0, 64, 0
1, 73080, Note_on_c, 0, 72, 77
1, 73080, Note_on_c, 0, 64, 54
1, 73080, Note_on_c, 0, 60, 42
1, 73176, Note_on_c, 0, 60, 0
1, 73176, Note_on_c, 0, 64, 0
1, 73176, Note_on_c, 0, 72, 0
1, 73200, Note_on_c, 0, 76, 50
1, 73200, Note_on_c, 0, 64, 47
1, 73200, Note_on_c, 0, 60, 42
1, 73248, Note_on_c, 0, 76, 0
1, 73260, Note_on_c, 0, 72, 66
1, 73296, Note_on_c, 0, 60, 0
1, 73296, Note_on_c, 0, 64, 0
1, 73308, Note_on_c, 0, 72, 0
1, 73320, Note_on_c, 0, 79, 61
1, 73320, Note_on_c, 0, 64, 47
1, 73320, Note_on_c, 0, 60, 42
1, 73368, Note_on_c, 0, 79, 0
1, 73380, Note_on_c, 0, 76, 77
1, 73416, Note_on_c, 0, 60, 0
1, 73416, Note_on_c, 0, 64, 0
1, 73428, Note_on_c, 0, 76, 0
1, 73440, Note_on_c, 0, 60, 42
1, 73440, Note_on_c, 0, 84, 66
1, 73440, Note_on_c, 0, 64, 54
1, 73536, Note_on_c, 0, 64, 0
1, 73536, Note_on_c, 0, 60, 0
1, 73560, Note_on_c, 0, 64, 61
1, 73560, Note_on_c, 0, 60, 44
1, 73584, Note_on_c, 0, 84, 0
1, 73620, Note_on_c, 0, 79, 61
1, 73656, Note_on_c, 0, 60, 0
1, 73656, Note_on_c, 0, 64, 0
1, 73668, Note_on_c, 0, 79, 0
1, 73680, Note_on_c, 0, 81, 80
1, 73680, Note_on_c, 0, 64, 58
1, 73680, Note_on_c, 0, 60, 42
1, 73692, Note_on_c, 0, 81, 0
1, 73695, Note_on_c, 0, 79, 58
1, 73707, Note_on_c, 0, 79, 0
1, 73710, Note_on_c, 0, 81, 42
1, 73722, Note_on_c, 0, 81, 0
1, 73725, Note_on_c, 0, 79, 66
1, 73737, Note_on_c, 0, 79, 0
1, 73740, Note_on_c, 0, 81, 54
1, 73752, Note_on_c, 0, 81, 0
1, 73755, Note_on_c, 0, 79, 58
1, 73767, Note_on_c, 0, 79, 0
1, 73770, Note_on_c, 0, 81, 46
1, 73776, Note_on_c, 0, 60, 0
1, 73776, Note_on_c, 0, 64, 0
1, 73782, Note_on_c, 0, 81, 0
1, 73785, Note_on_c, 0, 79, 47
1, 73797, Note_on_c, 0, 79, 0
1, 73800, Note_on_c, 0, 81, 47
1, 73800, Note_on_c, 0, 64, 57
1, 73800, Note_on_c, 0, 60, 45
1, 73812, Note_on_c, 0, 81, 0
1, 73815, Note_on_c, 0, 79, 56
1, 73827, Note_on_c, 0, 79, 0
1, 73830, Note_on_c, 0, 81, 47
1, 73842, Note_on_c, 0, 81, 0
1, 73845, Note_on_c, 0, 79, 42
1, 73857, Note_on_c, 0, 79, 0
1, 73860, Note_on_c, 0, 81, 28
1, 73872, Note_on_c, 0, 81, 0
1, 73875, Note_on_c, 0, 79, 45
1, 73887, Note_on_c, 0, 79, 0
1, 73890, Note_on_c, 0, 81, 38
1, 73896, Note_on_c, 0, 60, 0
1, 73896, Note_on_c, 0, 64, 0
1, 73902, Note_on_c, 0, 81, 0
1, 73905, Note_on_c, 0, 79, 43
1, 73917, Note_on_c, 0, 79, 0
1, 73920, Note_on_c, 0, 65, 45
1, 73920, Note_on_c, 0, 60, 47
1, 74016, Note_on_c, 0, 60, 0
1, 74016, Note_on_c, 0, 65, 0
1, 74040, Note_on_c, 0, 65, 47
1, 74040, Note_on_c, 0, 60, 48
1, 74040, Note_on_c, 0, 72, 52
1, 74136, Note_on_c, 0, 72, 0
1, 74136, Note_on_c, 0, 60, 0
1, 74136, Note_on_c, 0, 65, 0
1, 74160, Note_on_c, 0, 77, 83
1, 74160, Note_on_c, 0, 60, 50
1, 74160, Note_on_c, 0, 65, 47
1, 74208, Note_on_c, 0, 77, 0
1, 74220, Note_on_c, 0, 72, 66
1, 74256, Note_on_c, 0, 65, 0
1, 74256, Note_on_c, 0, 60, 0
1, 74268, Note_on_c, 0, 72, 0
1, 74280, Note_on_c, 0, 81, 71
1, 74280, Note_on_c, 0, 65, 45
1, 74280, Note_on_c, 0, 60, 43
1, 74328, Note_on_c, 0, 81, 0
1, 74340, Note_on_c, 0, 77, 52
1, 74376, Note_on_c, 0, 60, 0
1, 74376, Note_on_c, 0, 65, 0
1, 74388, Note_on_c, 0, 77, 0
1, 74400, Note_on_c, 0, 60, 60
1, 74400, Note_on_c, 0, 84, 114
1, 74400, Note_on_c, 0, 65, 61
1, 74496, Note_on_c, 0, 65, 0
1, 74496, Note_on_c, 0, 60, 0
1, 74520, Note_on_c, 0, 65, 58
1, 74520, Note_on_c, 0, 60, 56
1, 74544, Note_on_c, 0, 84, 0
1, 74580, Note_on_c, 0, 81, 89
1, 74616, Note_on_c, 0, 60, 0
1, 74616, Note_on_c, 0, 65, 0
1, 74628, Note_on_c, 0, 81, 0
1, 74640, Note_on_c, 0, 83, 1
1, 74640, Note_on_c, 0, 60, 66
1, 74640, Note_on_c, 0, 65, 56
1, 74652, Note_on_c, 0, 83, 0
1, 74655, Note_on_c, 0, 81, 1
1, 74667, Note_on_c, 0, 81, 0
1, 74670, Note_on_c, 0, 83, 25
1, 74682, Note_on_c, 0, 83, 0
1, 74685, Note_on_c, 0, 81, 44
1, 74697, Note_on_c, 0, 81, 0
1, 74700, Note_on_c, 0, 83, 42
1, 74712, Note_on_c, 0, 83, 0
1, 74715, Note_on_c, 0, 81, 20
1, 74727, Note_on_c, 0, 81, 0
1, 74730, Note_on_c, 0, 83, 42
1, 74736, Note_on_c, 0, 65, 0
1, 74736, Note_on_c, 0, 60, 0
1, 74742, Note_on_c, 0, 83, 0
1, 74745, Note_on_c, 0, 81, 44
1, 74757, Note_on_c, 0, 81, 0
1, 74760, Note_on_c, 0, 83, 45
1, 74760, Note_on_c, 0, 60, 58
1, 74760, Note_on_c, 0, 65, 48
1, 74772, Note_on_c, 0, 83, 0
1, 74775, Note_on_c, 0, 81, 45
1, 74787, Note_on_c, 0, 81, 0
1, 74790, Note_on_c, 0, 83, 42
1, 74802, Note_on_c, 0, 83, 0
1, 74805, Note_on_c, 0, 81, 58
1, 74817, Note_on_c, 0, 81, 0
1, 74820, Note_on_c, 0, 83, 42
1, 74832, Note_on_c, 0, 83, 0
1, 74835, Note_on_c, 0, 81, 45
1, 74847, Note_on_c, 0, 81, 0
1, 74850, Note_on_c, 0, 83, 43
1, 74856, Note_on_c, 0, 65, 0
1, 74856, Note_on_c, 0, 60, 0
1, 74862, Note_on_c, 0, 83, 0
1, 74865, Note_on_c, 0, 81, 44
1, 74877, Note_on_c, 0, 81, 0
1, 74880, Note_on_c, 0, 64, 69
1, 74880, Note_on_c, 0, 60, 57
1, 74976, Note_on_c, 0, 60, 0
1, 74976, Note_on_c, 0, 64, 0
1, 75000, Note_on_c, 0, 60, 57
1, 75000, Note_on_c, 0, 64, 54
1, 75000, Note_on_c, 0, 72, 66
1, 75096, Note_on_c, 0, 72, 0
1, 75096, Note_on_c, 0, 64, 0
1, 75096, Note_on_c, 0, 60, 0
1, 75120, Note_on_c, 0, 76, 66
1, 75120, Note_on_c, 0, 60, 44
1, 75120, Note_on_c, 0, 64, 65
1, 75168, Note_on_c, 0, 76, 0
1, 75180, Note_on_c, 0, 72, 89
1, 75216, Note_on_c, 0, 64, 0
1, 75216, Note_on_c, 0, 60, 0
1, 75228, Note_on_c, 0, 72, 0
1, 75240, Note_on_c, 0, 79, 81
1, 75240, Note_on_c, 0, 60, 44
1, 75240, Note_on_c, 0, 64, 43
1, 75288, Note_on_c, 0, 79, 0
1, 75300, Note_on_c, 0, 76, 83
1, 75336, Note_on_c, 0, 64, 0
1, 75336, Note_on_c, 0, 60, 0
1, 75348, Note_on_c, 0, 76, 0
1, 75360, Note_on_c, 0, 60, 48
1, 75360, Note_on_c, 0, 84, 77
1, 75360, Note_on_c, 0, 64, 61
1, 75456, Note_on_c, 0, 64, 0
1, 75456, Note_on_c, 0, 60, 0
1, 75480, Note_on_c, 0, 64, 81
1, 75480, Note_on_c, 0, 60, 74
1, 75504, Note_on_c, 0, 84, 0
1, 75540, Note_on_c, 0, 79, 77
1, 75576, Note_on_c, 0, 60, 0
1, 75576, Note_on_c, 0, 64, 0
1, 75588, Note_on_c, 0, 79, 0
1, 75600, Note_on_c, 0, 60, 71
1, 75600, Note_on_c, 0, 64, 53
1, 75600, Note_on_c, 0, 81, 80
1, 75612, Note_on_c, 0, 81, 0
1, 75615, Note_on_c, 0, 79, 58
1, 75627, Note_on_c, 0, 79, 0
1, 75630, Note_on_c, 0, 81, 42
1, 75642, Note_on_c, 0, 81, 0
1, 75645, Note_on_c, 0, 79, 66
1, 75657, Note_on_c, 0, 79, 0
1, 75660, Note_on_c, 0, 81, 54
1, 75672, Note_on_c, 0, 81, 0
1, 75675, Note_on_c, 0, 79, 58
1, 75687, Note_on_c, 0, 79, 0
1, 75690, Note_on_c, 0, 81, 46
1, 75696, Note_on_c, 0, 64, 0
1, 75696, Note_on_c, 0, 60, 0
1, 75702, Note_on_c, 0, 81, 0
1, 75705, Note_on_c, 0, 79, 47
1, 75717, Note_on_c, 0, 79, 0
1, 75720, Note_on_c, 0, 60, 50
1, 75720, Note_on_c, 0, 64, 53
1, 75720, Note_on_c, 0, 81, 47
1, 75732, Note_on_c, 0, 81, 0
1, 75735, Note_on_c, 0, 79, 56
1, 75747, Note_on_c, 0, 79, 0
1, 75750, Note_on_c, 0, 81, 47
1, 75762, Note_on_c, 0, 81, 0
1, 75765, Note_on_c, 0, 79, 42
1, 75777, Note_on_c, 0, 79, 0
1, 75780, Note_on_c, 0, 81, 28
1, 75792, Note_on_c, 0, 81, 0
1, 75795, Note_on_c, 0, 79, 45
1, 75807, Note_on_c, 0, 79, 0
1, 75810, Note_on_c, 0, 81, 38
1, 75816, Note_on_c, 0, 64, 0
1, 75816, Note_on_c, 0, 60, 0
1, 75822, Note_on_c, 0, 81, 0
1, 75825, Note_on_c, 0, 79, 43
1, 75837, Note_on_c, 0, 79, 0
1, 75840, Note_on_c, 0, 79, 71
1, 75840, Note_on_c, 0, 55, 69
1, 75840, Note_on_c, 0, 62, 69
1, 75888, Note_on_c, 0, 79, 0
1, 75900, Note_on_c, 0, 77, 58
1, 75936, Note_on_c, 0, 62, 0
1, 75948, Note_on_c, 0, 77, 0
1, 75960, Note_on_c, 0, 86, 71
1, 75960, Note_on_c, 0, 59, 67
1, 76008, Note_on_c, 0, 86, 0
1, 76020, Note_on_c, 0, 77, 83
1, 76056, Note_on_c, 0, 59, 0
1, 76068, Note_on_c, 0, 77, 0
1, 76080, Note_on_c, 0, 60, 61
1, 76080, Note_on_c, 0, 76, 81
1, 76176, Note_on_c, 0, 76, 0
1, 76176, Note_on_c, 0, 60, 0
1, 76200, Note_on_c, 0, 64, 77
1, 76200, Note_on_c, 0, 84, 80
1, 76296, Note_on_c, 0, 84, 0
1, 76296, Note_on_c, 0, 55, 0
1, 76296, Note_on_c, 0, 64, 0
1, 76320, Note_on_c, 0, 79, 77
1, 76320, Note_on_c, 0, 62, 58
1, 76320, Note_on_c, 0, 55, 64
1, 76368, Note_on_c, 0, 79, 0
1, 76380, Note_on_c, 0, 77, 83
1, 76416, Note_on_c, 0, 62, 0
1, 76428, Note_on_c, 0, 77, 0
1, 76440, Note_on_c, 0, 86, 71
1, 76440, Note_on_c, 0, 59, 53
1, 76488, Note_on_c, 0, 86, 0
1, 76500, Note_on_c, 0, 77, 97
1, 76536, Note_on_c, 0, 59, 0
1, 76548, Note_on_c, 0, 77, 0
1, 76560, Note_on_c, 0, 60, 53
1, 76560, Note_on_c, 0, 76, 89
1, 76656, Note_on_c, 0, 76, 0
1, 76656, Note_on_c, 0, 60, 0
1, 76680, Note_on_c, 0, 64, 64
1, 76680, Note_on_c, 0, 84, 54
1, 76776, Note_on_c, 0, 84, 0
1, 76776, Note_on_c, 0, 64, 0
1, 76776, Note_on_c, 0, 55, 0
1, 76800, Note_on_c, 0, 62, 49
1, 76800, Note_on_c, 0, 55, 61
1, 76860, Note_on_c, 0, 77, 54
1, 76908, Note_on_c, 0, 77, 0
1, 76920, Note_on_c, 0, 86, 83
1, 76968, Note_on_c, 0, 86, 0
1, 76980, Note_on_c, 0, 77, 83
1, 76992, Note_on_c, 0, 55, 0
1, 76992, Note_on_c, 0, 62, 0
1, 77028, Note_on_c, 0, 77, 0
1, 77040, Note_on_c, 0, 55, 58
1, 77040, Note_on_c, 0, 60, 47
1, 77100, Note_on_c, 0, 76, 71
1, 77148, Note_on_c, 0, 76, 0
1, 77160, Note_on_c, 0, 84, 61
1, 77208, Note_on_c, 0, 84, 0
1, 77220, Note_on_c, 0, 76, 89
1, 77232, Note_on_c, 0, 60, 0
1, 77232, Note_on_c, 0, 55, 0
1, 77268, Note_on_c, 0, 76, 0
1, 77280, Note_on_c, 0, 55, 71
1, 77280, Note_on_c, 0, 60, 50
1, 77280, Note_on_c, 0, 77, 83
1, 77292, Note_on_c, 0, 77, 0
1, 77295, Note_on_c, 0, 76, 97
1, 77307, Note_on_c, 0, 76, 0
1, 77310, Note_on_c, 0, 77, 71
1, 77322, Note_on_c, 0, 77, 0
1, 77325, Note_on_c, 0, 76, 97
1, 77337, Note_on_c, 0, 76, 0
1, 77340, Note_on_c, 0, 77, 77
1, 77352, Note_on_c, 0, 77, 0
1, 77355, Note_on_c, 0, 76, 77
1, 77367, Note_on_c, 0, 76, 0
1, 77370, Note_on_c, 0, 77, 66
1, 77376, Note_on_c, 0, 60, 0
1, 77382, Note_on_c, 0, 77, 0
1, 77385, Note_on_c, 0, 76, 77
1, 77397, Note_on_c, 0, 76, 0
1, 77400, Note_on_c, 0, 59, 54
1, 77400, Note_on_c, 0, 74, 83
1, 77496, Note_on_c, 0, 74, 0
1, 77496, Note_on_c, 0, 55, 0
1, 77496, Note_on_c, 0, 59, 0
1, 77640, Note_on_c, 0, 72, 58
1, 77736, Note_on_c, 0, 72, 0
1, 77760, Note_on_c, 0, 72, 77
1, 77808, Note_on_c, 0, 72, 0
1, 77820, Note_on_c, 0, 71, 47
1, 77868, Note_on_c, 0, 71, 0
1, 77880, Note_on_c, 0, 74, 52
1, 77928, Note_on_c, 0, 74, 0
1, 77940, Note_on_c, 0, 72, 66
1, 77988, Note_on_c, 0, 72, 0
1, 78000, Note_on_c, 0, 76, 89
1, 78048, Note_on_c, 0, 76, 0
1, 78060, Note_on_c, 0, 72, 66
1, 78108, Note_on_c, 0, 72, 0
1, 78120, Note_on_c, 0, 71, 55
1, 78168, Note_on_c, 0, 71, 0
1, 78180, Note_on_c, 0, 72, 77
1, 78228, Note_on_c, 0, 72, 0
1, 78240, Note_on_c, 0, 64, 66
1, 78240, Note_on_c, 0, 67, 66
1, 78288, Note_on_c, 0, 67, 0
1, 78300, Note_on_c, 0, 72, 77
1, 78336, Note_on_c, 0, 64, 0
1, 78348, Note_on_c, 0, 72, 0
1, 78360, Note_on_c, 0, 69, 71
1, 78360, Note_on_c, 0, 65, 46
1, 78408, Note_on_c, 0, 69, 0
1, 78420, Note_on_c, 0, 72, 83
1, 78456, Note_on_c, 0, 65, 0
1, 78468, Note_on_c, 0, 72, 0
1, 78480, Note_on_c, 0, 64, 83
1, 78480, Note_on_c, 0, 67, 54
1, 78576, Note_on_c, 0, 67, 0
1, 78600, Note_on_c, 0, 72, 50
1, 78672, Note_on_c, 0, 64, 0
1, 78696, Note_on_c, 0, 72, 0
1, 78720, Note_on_c, 0, 72, 54
1, 78768, Note_on_c, 0, 72, 0
1, 78780, Note_on_c, 0, 71, 52
1, 78828, Note_on_c, 0, 71, 0
1, 78840, Note_on_c, 0, 74, 66
1, 78888, Note_on_c, 0, 74, 0
1, 78900, Note_on_c, 0, 72, 52
1, 78948, Note_on_c, 0, 72, 0
1, 78960, Note_on_c, 0, 76, 66
1, 79008, Note_on_c, 0, 76, 0
1, 79020, Note_on_c, 0, 72, 61
1, 79068, Note_on_c, 0, 72, 0
1, 79080, Note_on_c, 0, 71, 66
1, 79128, Note_on_c, 0, 71, 0
1, 79140, Note_on_c, 0, 72, 54
1, 79188, Note_on_c, 0, 72, 0
1, 79200, Note_on_c, 0, 67, 61
1, 79200, Note_on_c, 0, 52, 42
1, 79248, Note_on_c, 0, 67, 0
1, 79260, Note_on_c, 0, 72, 50
1, 79296, Note_on_c, 0, 52, 0
1, 79308, Note_on_c, 0, 72, 0
1, 79320, Note_on_c, 0, 50, 66
1, 79320, Note_on_c, 0, 65, 66
1, 79368, Note_on_c, 0, 65, 0
1, 79380, Note_on_c, 0, 72, 43
1, 79416, Note_on_c, 0, 50, 0
1, 79428, Note_on_c, 0, 72, 0
1, 79440, Note_on_c, 0, 48, 71
1, 79440, Note_on_c, 0, 64, 58
1, 79536, Note_on_c, 0, 64, 0
1, 79536, Note_on_c, 0, 48, 0
1, 79560, Note_on_c, 0, 52, 42
1, 79560, Note_on_c, 0, 67, 45
1, 79608, Note_on_c, 0, 67, 0
1, 79620, Note_on_c, 0, 72, 43
1, 79656, Note_on_c, 0, 52, 0
1, 79668, Note_on_c, 0, 72, 0
1, 79680, Note_on_c, 0, 69, 54
1, 79680, Note_on_c, 0, 53, 52
1, 79728, Note_on_c, 0, 69, 0
1, 79740, Note_on_c, 0, 72, 50
1, 79776, Note_on_c, 0, 53, 0
1, 79788, Note_on_c, 0, 72, 0
1, 79800, Note_on_c, 0, 55, 50
1, 79800, Note_on_c, 0, 67, 71
1, 79848, Note_on_c, 0, 67, 0
1, 79860, Note_on_c, 0, 72, 54
1, 79896, Note_on_c, 0, 55, 0
1, 79908, Note_on_c, 0, 72, 0
1, 79920, Note_on_c, 0, 57, 43
1, 79920, Note_on_c, 0, 65, 71
1, 79968, Note_on_c, 0, 65, 0
1, 79980, Note_on_c, 0, 69, 66
1, 80016, Note_on_c, 0, 57, 0
1, 80028, Note_on_c, 0, 69, 0
1, 80040, Note_on_c, 0, 54, 42
1, 80040, Note_on_c, 0, 74, 61
1, 80088, Note_on_c, 0, 74, 0
1, 80100, Note_on_c, 0, 72, 52
1, 80136, Note_on_c, 0, 54, 0
1, 80148, Note_on_c, 0, 72, 0
1, 80160, Note_on_c, 0, 71, 52
1, 80160, Note_on_c, 0, 55, 52
1, 80208, Note_on_c, 0, 71, 0
1, 80220, Note_on_c, 0, 74, 58
1, 80256, Note_on_c, 0, 55, 0
1, 80268, Note_on_c, 0, 74, 0
1, 80280, Note_on_c, 0, 57, 61
1, 80280, Note_on_c, 0, 69, 54
1, 80328, Note_on_c, 0, 69, 0
1, 80340, Note_on_c, 0, 74, 54
1, 80376, Note_on_c, 0, 57, 0
1, 80388, Note_on_c, 0, 74, 0
1, 80400, Note_on_c, 0, 59, 71
1, 80400, Note_on_c, 0, 67, 71
1, 80448, Note_on_c, 0, 67, 0
1, 80460, Note_on_c, 0, 71, 58
1, 80496, Note_on_c, 0, 59, 0
1, 80508, Note_on_c, 0, 71, 0
1, 80520, Note_on_c, 0, 56, 55
1, 80520, Note_on_c, 0, 76, 71
1, 80568, Note_on_c, 0, 76, 0
1, 80580, Note_on_c, 0, 74, 66
1, 80616, Note_on_c, 0, 56, 0
1, 80628, Note_on_c, 0, 74, 0
1, 80640, Note_on_c, 0, 72, 71
1, 80640, Note_on_c, 0, 57, 77
1, 80688, Note_on_c, 0, 72, 0
1, 80700, Note_on_c, 0, 76, 77
1, 80736, Note_on_c, 0, 57, 0
1, 80748, Note_on_c, 0, 76, 0
1, 80760, Note_on_c, 0, 59, 58
1, 80760, Note_on_c, 0, 71, 47
1, 80808, Note_on_c, 0, 71, 0
1, 80820, Note_on_c, 0, 76, 71
1, 80856, Note_on_c, 0, 59, 0
1, 80868, Note_on_c, 0, 76, 0
1, 80880, Note_on_c, 0, 60, 54
1, 80880, Note_on_c, 0, 69, 83
1, 80928, Note_on_c, 0, 69, 0
1, 80940, Note_on_c, 0, 72, 71
1, 80976, Note_on_c, 0, 60, 0
1, 80988, Note_on_c, 0, 72, 0
1, 81000, Note_on_c, 0, 57, 71
1, 81000, Note_on_c, 0, 77, 61
1, 81048, Note_on_c, 0, 77, 0
1, 81060, Note_on_c, 0, 76, 89
1, 81096, Note_on_c, 0, 57, 0
1, 81108, Note_on_c, 0, 76, 0
1, 81120, Note_on_c, 0, 74, 71
1, 81120, Note_on_c, 0, 59, 71
1, 81168, Note_on_c, 0, 74, 0
1, 81180, Note_on_c, 0, 77, 58
1, 81216, Note_on_c, 0, 59, 0
1, 81228, Note_on_c, 0, 77, 0
1, 81240, Note_on_c, 0, 60, 75
1, 81240, Note_on_c, 0, 72, 77
1, 81288, Note_on_c, 0, 72, 0
1, 81300, Note_on_c, 0, 77, 71
1, 81336, Note_on_c, 0, 60, 0
1, 81348, Note_on_c, 0, 77, 0
1, 81360, Note_on_c, 0, 62, 89
1, 81360, Note_on_c, 0, 71, 77
1, 81408, Note_on_c, 0, 71, 0
1, 81420, Note_on_c, 0, 74, 66
1, 81456, Note_on_c, 0, 62, 0
1, 81468, Note_on_c, 0, 74, 0
1, 81480, Note_on_c, 0, 59, 77
1, 81480, Note_on_c, 0, 79, 54
1, 81528, Note_on_c, 0, 79, 0
1, 81540, Note_on_c, 0, 77, 66
1, 81576, Note_on_c, 0, 59, 0
1, 81588, Note_on_c, 0, 77, 0
1, 81600, Note_on_c, 0, 76, 77
1, 81600, Note_on_c, 0, 60, 58
1, 81648, Note_on_c, 0, 76, 0
1, 81660, Note_on_c, 0, 79, 50
1, 81696, Note_on_c, 0, 60, 0
1, 81708, Note_on_c, 0, 79, 0
1, 81720, Note_on_c, 0, 52, 83
1, 81720, Note_on_c, 0, 72, 77
1, 81768, Note_on_c, 0, 72, 0
1, 81780, Note_on_c, 0, 74, 66
1, 81816, Note_on_c, 0, 52, 0
1, 81828, Note_on_c, 0, 74, 0
1, 81840, Note_on_c, 0, 53, 77
1, 81840, Note_on_c, 0, 76, 66
1, 81852, Note_on_c, 0, 76, 0
1, 81855, Note_on_c, 0, 74, 52
1, 81867, Note_on_c, 0, 74, 0
1, 81870, Note_on_c, 0, 76, 71
1, 81882, Note_on_c, 0, 76, 0
1, 81885, Note_on_c, 0, 74, 61
1, 81897, Note_on_c, 0, 74, 0
1, 81900, Note_on_c, 0, 76, 61
1, 81912, Note_on_c, 0, 76, 0
1, 81915, Note_on_c, 0, 74, 51
1, 81927, Note_on_c, 0, 74, 0
1, 81930, Note_on_c, 0, 76, 58
1, 81936, Note_on_c, 0, 53, 0
1, 81942, Note_on_c, 0, 76, 0
1, 81945, Note_on_c, 0, 74, 50
1, 81957, Note_on_c, 0, 74, 0
1, 81960, Note_on_c, 0, 55, 66
1, 81960, Note_on_c, 0, 76, 54
1, 81972, Note_on_c, 0, 76, 0
1, 81975, Note_on_c, 0, 74, 47
1, 81987, Note_on_c, 0, 74, 0
1, 81990, Note_on_c, 0, 76, 44
1, 82002, Note_on_c, 0, 76, 0
1, 82005, Note_on_c, 0, 74, 50
1, 82017, Note_on_c, 0, 74, 0
1, 82020, Note_on_c, 0, 76, 46
1, 82032, Note_on_c, 0, 76, 0
1, 82035, Note_on_c, 0, 74, 40
1, 82047, Note_on_c, 0, 74, 0
1, 82050, Note_on_c, 0, 76, 52
1, 82056, Note_on_c, 0, 55, 0
1, 82062, Note_on_c, 0, 76, 0
1, 82065, Note_on_c, 0, 74, 42
1, 82077, Note_on_c, 0, 74, 0
1, 82080, Note_on_c, 0, 48, 58
1, 82080, Note_on_c, 0, 72, 42
1, 82176, Note_on_c, 0, 48, 0
1, 82200, Note_on_c, 0, 60, 54
1, 82272, Note_on_c, 0, 72, 0
1, 82296, Note_on_c, 0, 60, 0
1, 82320, Note_on_c, 0, 48, 50
1, 82440, Note_on_c, 0, 75, 89
1, 82440, Note_on_c, 0, 79, 44
1, 82512, Note_on_c, 0, 48, 0
1, 82536, Note_on_c, 0, 79, 0
1, 82536, Note_on_c, 0, 75, 0
1, 82560, Note_on_c, 0, 80, 47
1, 82560, Note_on_c, 0, 77, 71
1, 82656, Note_on_c, 0, 77, 0
1, 82656, Note_on_c, 0, 80, 0
1, 82680, Note_on_c, 0, 48, 54
1, 82680, Note_on_c, 0, 60, 42
1, 82776, Note_on_c, 0, 60, 0
1, 82776, Note_on_c, 0, 48, 0
1, 82800, Note_on_c, 0, 50, 45
1, 82800, Note_on_c, 0, 62, 42
1, 82896, Note_on_c, 0, 62, 0
1, 82896, Note_on_c, 0, 50, 0
1, 82920, Note_on_c, 0, 75, 47
1, 82920, Note_on_c, 0, 79, 43
1, 83016, Note_on_c, 0, 79, 0
1, 83016, Note_on_c, 0, 75, 0
1, 83040, Note_on_c, 0, 74, 66
1, 83040, Note_on_c, 0, 77, 42
1, 83136, Note_on_c, 0, 77, 0
1, 83136, Note_on_c, 0, 74, 0
1, 83160, Note_on_c, 0, 48, 47
1, 83160, Note_on_c, 0, 60, 50
1, 83256, Note_on_c, 0, 60, 0
1, 83256, Note_on_c, 0, 48, 0
1, 83280, Note_on_c, 0, 47, 42
1, 83280, Note_on_c, 0, 59, 43
1, 83376, Note_on_c, 0, 59, 0
1, 83376, Note_on_c, 0, 47, 0
1, 83400, Note_on_c, 0, 74, 61
1, 83400, Note_on_c, 0, 77, 53
1, 83496, Note_on_c, 0, 77, 0
1, 83496, Note_on_c, 0, 74, 0
1, 83520, Note_on_c, 0, 75, 66
1, 83520, Note_on_c, 0, 79, 42
1, 83616, Note_on_c, 0, 79, 0
1, 83616, Note_on_c, 0, 75, 0
1, 83640, Note_on_c, 0, 47, 54
1, 83640, Note_on_c, 0, 59, 42
1, 83736, Note_on_c, 0, 59, 0
1, 83736, Note_on_c, 0, 47, 0
1, 83760, Note_on_c, 0, 48, 42
1, 83760, Note_on_c, 0, 60, 42
1, 83856, Note_on_c, 0, 60, 0
1, 83856, Note_on_c, 0, 48, 0
1, 83880, Note_on_c, 0, 74, 69
1, 83880, Note_on_c, 0, 77, 42
1, 83976, Note_on_c, 0, 77, 0
1, 83976, Note_on_c, 0, 74, 0
1, 84000, Note_on_c, 0, 75, 46
1, 84000, Note_on_c, 0, 72, 58
1, 84096, Note_on_c, 0, 72, 0
1, 84096, Note_on_c, 0, 75, 0
1, 84120, Note_on_c, 0, 58, 66
1, 84120, Note_on_c, 0, 46, 55
1, 84216, Note_on_c, 0, 46, 0
1, 84216, Note_on_c, 0, 58, 0
1, 84240, Note_on_c, 0, 56, 42
1, 84240, Note_on_c, 0, 44, 45
1, 84336, Note_on_c, 0, 44, 0
1, 84336, Note_on_c, 0, 56, 0
1, 84360, Note_on_c, 0, 74, 43
1, 84360, Note_on_c, 0, 71, 42
1, 84456, Note_on_c, 0, 71, 0
1, 84456, Note_on_c, 0, 74, 0
1, 84480, Note_on_c, 0, 75, 43
1, 84480, Note_on_c, 0, 72, 53
1, 84576, Note_on_c, 0, 72, 0
1, 84576, Note_on_c, 0, 75, 0
1, 84600, Note_on_c, 0, 55, 27
1, 84600, Note_on_c, 0, 43, 47
1, 84696, Note_on_c, 0, 43, 0
1, 84696, Note_on_c, 0, 55, 0
1, 84720, Note_on_c, 0, 54, 42
1, 84720, Note_on_c, 0, 42, 44
1, 84816, Note_on_c, 0, 42, 0
1, 84816, Note_on_c, 0, 54, 0
1, 84840, Note_on_c, 0, 54, 42
1, 84840, Note_on_c, 0, 42, 45
1, 84840, Note_on_c, 0, 75, 42
1, 84840, Note_on_c, 0, 72, 50
1, 84936, Note_on_c, 0, 72, 0
1, 84936, Note_on_c, 0, 75, 0
1, 84936, Note_on_c, 0, 42, 0
1, 84936, Note_on_c, 0, 54, 0
1, 84960, Note_on_c, 0, 72, 66
1, 84960, Note_on_c, 0, 55, 47
1, 84960, Note_on_c, 0, 75, 71
1, 85056, Note_on_c, 0, 75, 0
1, 85056, Note_on_c, 0, 55, 0
1, 85056, Note_on_c, 0, 72, 0
1, 85080, Note_on_c, 0, 43, 50
1, 85080, Note_on_c, 0, 74, 42
1, 85080, Note_on_c, 0, 71, 42
1, 85176, Note_on_c, 0, 71, 0
1, 85176, Note_on_c, 0, 74, 0
1, 85176, Note_on_c, 0, 43, 0
1, 85320, Note_on_c, 0, 67, 61
1, 85352, Note_on_c, 0, 67, 0
1, 85360, Note_on_c, 0, 69, 66
1, 85392, Note_on_c, 0, 69, 0
1, 85400, Note_on_c, 0, 71, 50
1, 85432, Note_on_c, 0, 71, 0
1, 85440, Note_on_c, 0, 52, 65
1, 85440, Note_on_c, 0, 48, 75
1, 85440, Note_on_c, 0, 72, 61
1, 85536, Note_on_c, 0, 72, 0
1, 85560, Note_on_c, 0, 72, 54
1, 85592, Note_on_c, 0, 72, 0
1, 85600, Note_on_c, 0, 74, 83
1, 85632, Note_on_c, 0, 74, 0
1, 85632, Note_on_c, 0, 48, 0
1, 85632, Note_on_c, 0, 52, 0
1, 85640, Note_on_c, 0, 76, 71
1, 85672, Note_on_c, 0, 76, 0
1, 85680, Note_on_c, 0, 72, 44
1, 85776, Note_on_c, 0, 72, 0
1, 85800, Note_on_c, 0, 76, 58
1, 85832, Note_on_c, 0, 76, 0
1, 85840, Note_on_c, 0, 77, 42
1, 85872, Note_on_c, 0, 77, 0
1, 85880, Note_on_c, 0, 79, 47
1, 85912, Note_on_c, 0, 79, 0
1, 85920, Note_on_c, 0, 76, 71
1, 86016, Note_on_c, 0, 76, 0
1, 86040, Note_on_c, 0, 79, 61
1, 86072, Note_on_c, 0, 79, 0
1, 86080, Note_on_c, 0, 81, 44
1, 86112, Note_on_c, 0, 81, 0
1, 86120, Note_on_c, 0, 83, 54
1, 86152, Note_on_c, 0, 83, 0
1, 86160, Note_on_c, 0, 84, 47
1, 86256, Note_on_c, 0, 84, 0
1, 86280, Note_on_c, 0, 60, 45
1, 86280, Note_on_c, 0, 52, 69
1, 86280, Note_on_c, 0, 79, 41
1, 86376, Note_on_c, 0, 79, 0
1, 86376, Note_on_c, 0, 52, 0
1, 86376, Note_on_c, 0, 60, 0
1, 86400, Note_on_c, 0, 60, 42
1, 86400, Note_on_c, 0, 53, 49
1, 86400, Note_on_c, 0, 81, 54
1, 86496, Note_on_c, 0, 81, 0
1, 86520, Note_on_c, 0, 84, 52
1, 86552, Note_on_c, 0, 84, 0
1, 86560, Note_on_c, 0, 81, 58
1, 86592, Note_on_c, 0, 81, 0
1, 86592, Note_on_c, 0, 53, 0
1, 86592, Note_on_c, 0, 60, 0
1, 86600, Note_on_c, 0, 77, 52
1, 86632, Note_on_c, 0, 77, 0
1, 86640, Note_on_c, 0, 55, 55
1, 86640, Note_on_c, 0, 60, 42
1, 86640, Note_on_c, 0, 76, 54
1, 86736, Note_on_c, 0, 76, 0
1, 86736, Note_on_c, 0, 60, 0
1, 86736, Note_on_c, 0, 55, 0
1, 86760, Note_on_c, 0, 55, 43
1, 86760, Note_on_c, 0, 59, 42
1, 86760, Note_on_c, 0, 76, 46
1, 86772, Note_on_c, 0, 76, 0
1, 86775, Note_on_c, 0, 74, 58
1, 86787, Note_on_c, 0, 74, 0
1, 86790, Note_on_c, 0, 76, 71
1, 86802, Note_on_c, 0, 76, 0
1, 86805, Note_on_c, 0, 74, 50
1, 86817, Note_on_c, 0, 74, 0
1, 86820, Note_on_c, 0, 76, 66
1, 86832, Note_on_c, 0, 76, 0
1, 86835, Note_on_c, 0, 74, 42
1, 86847, Note_on_c, 0, 74, 0
1, 86850, Note_on_c, 0, 76, 54
1, 86856, Note_on_c, 0, 59, 0
1, 86856, Note_on_c, 0, 55, 0
1, 86862, Note_on_c, 0, 76, 0
1, 86865, Note_on_c, 0, 74, 43
1, 86877, Note_on_c, 0, 74, 0
1, 86880, Note_on_c, 0, 60, 43
1, 86880, Note_on_c, 0, 72, 71
1, 86976, Note_on_c, 0, 60, 0
1, 87000, Note_on_c, 0, 55, 50
1, 87072, Note_on_c, 0, 72, 0
1, 87096, Note_on_c, 0, 55, 0
1, 87120, Note_on_c, 0, 48, 42
1, 87240, Note_on_c, 0, 67, 61
1, 87272, Note_on_c, 0, 67, 0
1, 87280, Note_on_c, 0, 69, 66
1, 87312, Note_on_c, 0, 69, 0
1, 87312, Note_on_c, 0, 48, 0
1, 87320, Note_on_c, 0, 71, 50
1, 87352, Note_on_c, 0, 71, 0
1, 87360, Note_on_c, 0, 52, 83
1, 87360, Note_on_c, 0, 48, 50
1, 87360, Note_on_c, 0, 72, 61
1, 87456, Note_on_c, 0, 72, 0
1, 87480, Note_on_c, 0, 72, 54
1, 87512, Note_on_c, 0, 72, 0
1, 87520, Note_on_c, 0, 74, 83
1, 87552, Note_on_c, 0, 74, 0
1, 87552, Note_on_c, 0, 48, 0
1, 87552, Note_on_c, 0, 52, 0
1, 87560, Note_on_c, 0, 76, 71
1, 87592, Note_on_c, 0, 76, 0
1, 87600, Note_on_c, 0, 72, 44
1, 87696, Note_on_c, 0, 72, 0
1, 87720, Note_on_c, 0, 76, 58
1, 87752, Note_on_c, 0, 76, 0
1, 87760, Note_on_c, 0, 77, 42
1, 87792, Note_on_c, 0, 77, 0
1, 87800, Note_on_c, 0, 79, 47
1, 87832, Note_on_c, 0, 79, 0
1, 87840, Note_on_c, 0, 76, 80
1, 87936, Note_on_c, 0, 76, 0
1, 87960, Note_on_c, 0, 52, 44
1, 87960, Note_on_c, 0, 67, 52
1, 87960, Note_on_c, 0, 40, 43
1, 88008, Note_on_c, 0, 67, 0
1, 88020, Note_on_c, 0, 79, 42
1, 88056, Note_on_c, 0, 40, 0
1, 88056, Note_on_c, 0, 52, 0
1, 88068, Note_on_c, 0, 79, 0
1, 88080, Note_on_c, 0, 52, 42
1, 88080, Note_on_c, 0, 40, 43
1, 88080, Note_on_c, 0, 67, 43
1, 88128, Note_on_c, 0, 67, 0
1, 88140, Note_on_c, 0, 79, 42
1, 88176, Note_on_c, 0, 40, 0
1, 88176, Note_on_c, 0, 52, 0
1, 88188, Note_on_c, 0, 79, 0
1, 88200, Note_on_c, 0, 52, 42
1, 88200, Note_on_c, 0, 40, 42
1, 88200, Note_on_c, 0, 67, 52
1, 88248, Note_on_c, 0, 67, 0
1, 88260, Note_on_c, 0, 79, 50
1, 88296, Note_on_c, 0, 40, 0
1, 88296, Note_on_c, 0, 52, 0
1, 88308, Note_on_c, 0, 79, 0
1, 88320, Note_on_c, 0, 41, 43
1, 88320, Note_on_c, 0, 69, 58
1, 88320, Note_on_c, 0, 53, 42
1, 88368, Note_on_c, 0, 69, 0
1, 88380, Note_on_c, 0, 79, 66
1, 88416, Note_on_c, 0, 53, 0
1, 88416, Note_on_c, 0, 41, 0
1, 88428, Note_on_c, 0, 79, 0
1, 88440, Note_on_c, 0, 69, 52
1, 88440, Note_on_c, 0, 41, 42
1, 88440, Note_on_c, 0, 53, 42
1, 88488, Note_on_c, 0, 69, 0
1, 88500, Note_on_c, 0, 79, 66
1, 88536, Note_on_c, 0, 53, 0
1, 88536, Note_on_c, 0, 41, 0
1, 88548, Note_on_c, 0, 79, 0
1, 88560, Note_on_c, 0, 50, 43
1, 88560, Note_on_c, 0, 38, 42
1, 88560, Note_on_c, 0, 69, 50
1, 88608, Note_on_c, 0, 69, 0
1, 88620, Note_on_c, 0, 77, 83
1, 88656, Note_on_c, 0, 38, 0
1, 88656, Note_on_c, 0, 50, 0
1, 88668, Note_on_c, 0, 77, 0
1, 88680, Note_on_c, 0, 50, 42
1, 88680, Note_on_c, 0, 38, 42
1, 88680, Note_on_c, 0, 69, 52
1, 88728, Note_on_c, 0, 69, 0
1, 88740, Note_on_c, 0, 77, 61
1, 88776, Note_on_c, 0, 38, 0
1, 88776, Note_on_c, 0, 50, 0
1, 88788, Note_on_c, 0, 77, 0
1, 88800, Note_on_c, 0, 47, 44
1, 88800, Note_on_c, 0, 67, 50
1, 88800, Note_on_c, 0, 35, 50
1, 88848, Note_on_c, 0, 67, 0
1, 88860, Note_on_c, 0, 77, 71
1, 88896, Note_on_c, 0, 35, 0
1, 88896, Note_on_c, 0, 47, 0
1, 88908, Note_on_c, 0, 77, 0
1, 88920, Note_on_c, 0, 67, 52
1, 88920, Note_on_c, 0, 47, 47
1, 88920, Note_on_c, 0, 35, 61
1, 88968, Note_on_c, 0, 67, 0
1, 88980, Note_on_c, 0, 77, 66
1, 89016, Note_on_c, 0, 35, 0
1, 89016, Note_on_c, 0, 47, 0
1, 89028, Note_on_c, 0, 77, 0
1, 89040, Note_on_c, 0, 48, 69
1, 89040, Note_on_c, 0, 36, 80
1, 89040, Note_on_c, 0, 67, 47
1, 89088, Note_on_c, 0, 67, 0
1, 89100, Note_on_c, 0, 76, 97
1, 89136, Note_on_c, 0, 36, 0
1, 89136, Note_on_c, 0, 48, 0
1, 89148, Note_on_c, 0, 76, 0
1, 89160, Note_on_c, 0, 48, 49
1, 89160, Note_on_c, 0, 36, 42
1, 89160, Note_on_c, 0, 67, 52
1, 89208, Note_on_c, 0, 67, 0
1, 89220, Note_on_c, 0, 76, 61
1, 89256, Note_on_c, 0, 36, 0
1, 89256, Note_on_c, 0, 48, 0
1, 89268, Note_on_c, 0, 76, 0
1, 89280, Note_on_c, 0, 41, 80
1, 89280, Note_on_c, 0, 65, 52
1, 89280, Note_on_c, 0, 53, 69
1, 89328, Note_on_c, 0, 65, 0
1, 89340, Note_on_c, 0, 74, 69
1, 89376, Note_on_c, 0, 53, 0
1, 89376, Note_on_c, 0, 41, 0
1, 89388, Note_on_c, 0, 74, 0
1, 89400, Note_on_c, 0, 65, 54
1, 89400, Note_on_c, 0, 41, 55
1, 89400, Note_on_c, 0, 53, 47
1, 89448, Note_on_c, 0, 65, 0
1, 89460, Note_on_c, 0, 74, 58
1, 89496, Note_on_c, 0, 53, 0
1, 89496, Note_on_c, 0, 41, 0
1, 89508, Note_on_c, 0, 74, 0
1, 89520, Note_on_c, 0, 55, 69
1, 89520, Note_on_c, 0, 43, 86
1, 89520, Note_on_c, 0, 62, 61
1, 89568, Note_on_c, 0, 62, 0
1, 89580, Note_on_c, 0, 71, 52
1, 89616, Note_on_c, 0, 43, 0
1, 89616, Note_on_c, 0, 55, 0
1, 89628, Note_on_c, 0, 71, 0
1, 89640, Note_on_c, 0, 43, 77
1, 89640, Note_on_c, 0, 55, 53
1, 89640, Note_on_c, 0, 62, 45
1, 89688, Note_on_c, 0, 62, 0
1, 89700, Note_on_c, 0, 71, 61
1, 89736, Note_on_c, 0, 55, 0
1, 89736, Note_on_c, 0, 43, 0
1, 89748, Note_on_c, 0, 71, 0
1, 89760, Note_on_c, 0, 36, 80
1, 89760, Note_on_c, 0, 48, 80
1, 89760, Note_on_c, 0, 72, 80
1, 89760, Note_on_c, 0, 64, 80
1, 90144, Note_on_c, 0, 64, 0
1, 90144, Note_on_c, 0, 72, 0
1, 90144, Note_on_c, 0, 48, 0
1, 90144, Note_on_c, 0, 36, 0
1, 90154, End_track
0, 0, End_of_file