0, 0, Header, 0, 1, 240
1, 0, Start_track
1, 0, Tempo, 666667
1, 360, Note_on_c, 0, 62, 80
1, 456, Note_on_c, 0, 62, 0
1, 480, Note_on_c, 0, 59, 80
1, 480, Note_on_c, 0, 55, 80
1, 480, Note_on_c, 0, 67, 80
1, 528, Note_on_c, 0, 67, 0
1, 540, Note_on_c, 0, 69, 80
1, 556, Note_on_c, 0, 69, 0
1, 560, Note_on_c, 0, 67, 80
1, 576, Note_on_c, 0, 67, 0
1, 580, Note_on_c, 0, 66, 80
1, 596, Note_on_c, 0, 66, 0
1, 600, Note_on_c, 0, 67, 80
1, 648, Note_on_c, 0, 67, 0
1, 660, Note_on_c, 0, 69, 80
1, 672, Note_on_c, 0, 55, 0
1, 672, Note_on_c, 0, 59, 0
1, 708, Note_on_c, 0, 69, 0
1, 720, Note_on_c, 0, 71, 80
1, 768, Note_on_c, 0, 71, 0
1, 780, Note_on_c, 0, 72, 80
1, 796, Note_on_c, 0, 72, 0
1, 800, Note_on_c, 0, 71, 80
1, 816, Note_on_c, 0, 71, 0
1, 820, Note_on_c, 0, 69, 80
1, 836, Note_on_c, 0, 69, 0
1, 840, Note_on_c, 0, 71, 80
1, 888, Note_on_c, 0, 71, 0
1, 900, Note_on_c, 0, 72, 80
1, 948, Note_on_c, 0, 72, 0
1, 960, Note_on_c, 0, 74, 80
1, 1056, Note_on_c, 0, 74, 0
1, 1080, Note_on_c, 0, 67, 80
1, 1080, Note_on_c, 0, 74, 80
1, 1080, Note_on_c, 0, 71, 80
1, 1176, Note_on_c, 0, 71, 0
1, 1176, Note_on_c, 0, 74, 0
1, 1176, Note_on_c, 0, 67, 0
1, 1200, Note_on_c, 0, 69, 80
1, 1200, Note_on_c, 0, 66, 80
1, 1200, Note_on_c, 0, 74, 80
1, 1296, Note_on_c, 0, 74, 0
1, 1296, Note_on_c, 0, 66, 0
1, 1296, Note_on_c, 0, 69, 0
1, 1320, Note_on_c, 0, 74, 80
1, 1320, Note_on_c, 0, 69, 80
1, 1320, Note_on_c, 0, 72, 80
1, 1416, Note_on_c, 0, 72, 0
1, 1416, Note_on_c, 0, 69, 0
1, 1416, Note_on_c, 0, 74, 0
1, 1440, Note_on_c, 0, 71, 80
1, 1440, Note_on_c, 0, 67, 80
1, 1440, Note_on_c, 0, 74, 80
1, 1536, Note_on_c, 0, 74, 0
1, 1560, Note_on_c, 0, 76, 80
1, 1608, Note_on_c, 0, 76, 0
1, 1620, Note_on_c, 0, 78, 80
1, 1632, Note_on_c, 0, 67, 0
1, 1632, Note_on_c, 0, 71, 0
1, 1668, Note_on_c, 0, 78, 0
1, 1680, Note_on_c, 0, 81, 80
1, 1728, Note_on_c, 0, 81, 0
1, 1740, Note_on_c, 0, 79, 80
1, 1788, Note_on_c, 0, 79, 0
1, 1800, Note_on_c, 0, 78, 80
1, 1848, Note_on_c, 0, 78, 0
1, 1860, Note_on_c, 0, 76, 80
1, 1908, Note_on_c, 0, 76, 0
1, 1920, Note_on_c, 0, 74, 80
1, 2016, Note_on_c, 0, 74, 0
1, 2040, Note_on_c, 0, 67, 80
1, 2040, Note_on_c, 0, 74, 80
1, 2040, Note_on_c, 0, 71, 80
1, 2136, Note_on_c, 0, 71, 0
1, 2136, Note_on_c, 0, 74, 0
1, 2136, Note_on_c, 0, 67, 0
1, 2160, Note_on_c, 0, 69, 80
1, 2160, Note_on_c, 0, 66, 80
1, 2160, Note_on_c, 0, 74, 80
1, 2256, Note_on_c, 0, 74, 0
1, 2256, Note_on_c, 0, 66, 0
1, 2256, Note_on_c, 0, 69, 0
1, 2280, Note_on_c, 0, 74, 80
1, 2280, Note_on_c, 0, 69, 80
1, 2280, Note_on_c, 0, 72, 80
1, 2376, Note_on_c, 0, 72, 0
1, 2376, Note_on_c, 0, 69, 0
1, 2376, Note_on_c, 0, 74, 0
1, 2400, Note_on_c, 0, 74, 80
1, 2400, Note_on_c, 0, 71, 80
1, 2400, Note_on_c, 0, 67, 80
1, 2496, Note_on_c, 0, 74, 0
1, 2520, Note_on_c, 0, 76, 80
1, 2568, Note_on_c, 0, 76, 0
1, 2580, Note_on_c, 0, 78, 80
1, 2592, Note_on_c, 0, 67, 0
1, 2592, Note_on_c, 0, 71, 0
1, 2628, Note_on_c, 0, 78, 0
1, 2640, Note_on_c, 0, 81, 80
1, 2688, Note_on_c, 0, 81, 0
1, 2700, Note_on_c, 0, 79, 80
1, 2748, Note_on_c, 0, 79, 0
1, 2760, Note_on_c, 0, 78, 80
1, 2760, Note_on_c, 0, 67, 80
1, 2760, Note_on_c, 0, 72, 80
1, 2808, Note_on_c, 0, 78, 0
1, 2820, Note_on_c, 0, 76, 80
1, 2856, Note_on_c, 0, 72, 0
1, 2856, Note_on_c, 0, 67, 0
1, 2868, Note_on_c, 0, 76, 0
1, 2880, Note_on_c, 0, 71, 80
1, 2880, Note_on_c, 0, 67, 80
1, 2880, Note_on_c, 0, 74, 80
1, 2976, Note_on_c, 0, 74, 0
1, 3000, Note_on_c, 0, 79, 80
1, 3048, Note_on_c, 0, 79, 0
1, 3060, Note_on_c, 0, 83, 80
1, 3072, Note_on_c, 0, 67, 0
1, 3072, Note_on_c, 0, 71, 0
1, 3108, Note_on_c, 0, 83, 0
1, 3120, Note_on_c, 0, 81, 80
1, 3168, Note_on_c, 0, 81, 0
1, 3180, Note_on_c, 0, 79, 80
1, 3228, Note_on_c, 0, 79, 0
1, 3240, Note_on_c, 0, 78, 80
1, 3288, Note_on_c, 0, 78, 0
1, 3300, Note_on_c, 0, 76, 80
1, 3348, Note_on_c, 0, 76, 0
1, 3360, Note_on_c, 0, 74, 80
1, 3480, Note_on_c, 0, 71, 80
1, 3552, Note_on_c, 0, 74, 0
1, 3576, Note_on_c, 0, 71, 0
1, 3600, Note_on_c, 0, 69, 80
1, 3600, Note_on_c, 0, 72, 80
1, 3648, Note_on_c, 0, 72, 0
1, 3660, Note_on_c, 0, 74, 80
1, 3684, Note_on_c, 0, 74, 0
1, 3690, Note_on_c, 0, 72, 80
1, 3696, Note_on_c, 0, 69, 0
1, 3714, Note_on_c, 0, 72, 0
1, 3720, Note_on_c, 0, 74, 80
1, 3720, Note_on_c, 0, 62, 80
1, 3744, Note_on_c, 0, 74, 0
1, 3750, Note_on_c, 0, 72, 80
1, 3774, Note_on_c, 0, 72, 0
1, 3780, Note_on_c, 0, 71, 80
1, 3804, Note_on_c, 0, 71, 0
1, 3810, Note_on_c, 0, 72, 80
1, 3816, Note_on_c, 0, 62, 0
1, 3834, Note_on_c, 0, 72, 0
1, 3840, Note_on_c, 0, 67, 80
1, 3840, Note_on_c, 0, 71, 80
1, 3936, Note_on_c, 0, 67, 0
1, 3960, Note_on_c, 0, 62, 80
1, 4032, Note_on_c, 0, 71, 0
1, 4056, Note_on_c, 0, 62, 0
1, 4080, Note_on_c, 0, 55, 80
1, 4176, Note_on_c, 0, 55, 0
1, 4200, Note_on_c, 0, 55, 80
1, 4200, Note_on_c, 0, 43, 80
1, 4200, Note_on_c, 0, 67, 80
1, 4296, Note_on_c, 0, 67, 0
1, 4296, Note_on_c, 0, 43, 0
1, 4296, Note_on_c, 0, 55, 0
1, 4320, Note_on_c, 0, 42, 80
1, 4320, Note_on_c, 0, 54, 80
1, 4320, Note_on_c, 0, 66, 80
1, 4416, Note_on_c, 0, 66, 0
1, 4416, Note_on_c, 0, 54, 0
1, 4416, Note_on_c, 0, 42, 0
1, 4440, Note_on_c, 0, 40, 80
1, 4440, Note_on_c, 0, 52, 80
1, 4440, Note_on_c, 0, 64, 80
1, 4536, Note_on_c, 0, 64, 0
1, 4536, Note_on_c, 0, 52, 0
1, 4536, Note_on_c, 0, 40, 0
1, 4560, Note_on_c, 0, 38, 80
1, 4560, Note_on_c, 0, 50, 80
1, 4560, Note_on_c, 0, 62, 80
1, 4656, Note_on_c, 0, 62, 0
1, 4656, Note_on_c, 0, 50, 0
1, 4656, Note_on_c, 0, 38, 0
1, 4680, Note_on_c, 0, 36, 80
1, 4680, Note_on_c, 0, 48, 80
1, 4680, Note_on_c, 0, 60, 80
1, 4776, Note_on_c, 0, 60, 0
1, 4776, Note_on_c, 0, 48, 0
1, 4776, Note_on_c, 0, 36, 0
1, 4800, Note_on_c, 0, 47, 80
1, 4800, Note_on_c, 0, 59, 80
1, 4800, Note_on_c, 0, 35, 80
1, 4992, Note_on_c, 0, 35, 0
1, 4992, Note_on_c, 0, 59, 0
1, 4992, Note_on_c, 0, 47, 0
1, 5160, Note_on_c, 0, 64, 80
1, 5160, Note_on_c, 0, 52, 80
1, 5192, Note_on_c, 0, 52, 0
1, 5192, Note_on_c, 0, 64, 0
1, 5200, Note_on_c, 0, 54, 80
1, 5200, Note_on_c, 0, 66, 80
1, 5232, Note_on_c, 0, 66, 0
1, 5232, Note_on_c, 0, 54, 0
1, 5240, Note_on_c, 0, 64, 80
1, 5240, Note_on_c, 0, 52, 80
1, 5272, Note_on_c, 0, 52, 0
1, 5272, Note_on_c, 0, 64, 0
1, 5280, Note_on_c, 0, 62, 80
1, 5280, Note_on_c, 0, 50, 80
1, 5376, Note_on_c, 0, 50, 0
1, 5376, Note_on_c, 0, 62, 0
1, 5400, Note_on_c, 0, 48, 80
1, 5400, Note_on_c, 0, 60, 80
1, 5432, Note_on_c, 0, 60, 0
1, 5432, Note_on_c, 0, 48, 0
1, 5440, Note_on_c, 0, 50, 80
1, 5440, Note_on_c, 0, 62, 80
1, 5472, Note_on_c, 0, 62, 0
1, 5472, Note_on_c, 0, 50, 0
1, 5480, Note_on_c, 0, 48, 80
1, 5480, Note_on_c, 0, 60, 80
1, 5512, Note_on_c, 0, 60, 0
1, 5512, Note_on_c, 0, 48, 0
1, 5520, Note_on_c, 0, 59, 80
1, 5520, Note_on_c, 0, 47, 80
1, 5616, Note_on_c, 0, 47, 0
1, 5616, Note_on_c, 0, 59, 0
1, 5640, Note_on_c, 0, 45, 80
1, 5640, Note_on_c, 0, 57, 80
1, 5672, Note_on_c, 0, 57, 0
1, 5672, Note_on_c, 0, 45, 0
1, 5680, Note_on_c, 0, 47, 80
1, 5680, Note_on_c, 0, 59, 80
1, 5712, Note_on_c, 0, 59, 0
1, 5712, Note_on_c, 0, 47, 0
1, 5720, Note_on_c, 0, 57, 80
1, 5720, Note_on_c, 0, 45, 80
1, 5752, Note_on_c, 0, 45, 0
1, 5752, Note_on_c, 0, 57, 0
1, 5760, Note_on_c, 0, 43, 80
1, 5760, Note_on_c, 0, 55, 80
1, 5952, Note_on_c, 0, 55, 0
1, 5952, Note_on_c, 0, 43, 0
1, 6120, Note_on_c, 0, 62, 80
1, 6216, Note_on_c, 0, 62, 0
1, 6240, Note_on_c, 0, 59, 80
1, 6240, Note_on_c, 0, 55, 80
1, 6240, Note_on_c, 0, 67, 80
1, 6288, Note_on_c, 0, 67, 0
1, 6300, Note_on_c, 0, 66, 80
1, 6348, Note_on_c, 0, 66, 0
1, 6360, Note_on_c, 0, 69, 80
1, 6408, Note_on_c, 0, 69, 0
1, 6420, Note_on_c, 0, 67, 80
1, 6432, Note_on_c, 0, 55, 0
1, 6432, Note_on_c, 0, 59, 0
1, 6468, Note_on_c, 0, 67, 0
1, 6480, Note_on_c, 0, 71, 80
1, 6528, Note_on_c, 0, 71, 0
1, 6540, Note_on_c, 0, 69, 80
1, 6588, Note_on_c, 0, 69, 0
1, 6600, Note_on_c, 0, 72, 80
1, 6648, Note_on_c, 0, 72, 0
1, 6660, Note_on_c, 0, 71, 80
1, 6708, Note_on_c, 0, 71, 0
1, 6720, Note_on_c, 0, 74, 80
1, 6816, Note_on_c, 0, 74, 0
1, 6840, Note_on_c, 0, 71, 80
1, 6840, Note_on_c, 0, 67, 80
1, 6840, Note_on_c, 0, 74, 80
1, 6936, Note_on_c, 0, 74, 0
1, 6936, Note_on_c, 0, 67, 0
1, 6936, Note_on_c, 0, 71, 0
1, 6960, Note_on_c, 0, 69, 80
1, 6960, Note_on_c, 0, 66, 80
1, 6960, Note_on_c, 0, 74, 80
1, 7056, Note_on_c, 0, 74, 0
1, 7056, Note_on_c, 0, 66, 0
1, 7056, Note_on_c, 0, 69, 0
1, 7080, Note_on_c, 0, 69, 80
1, 7080, Note_on_c, 0, 72, 80
1, 7080, Note_on_c, 0, 74, 80
1, 7176, Note_on_c, 0, 74, 0
1, 7176, Note_on_c, 0, 72, 0
1, 7176, Note_on_c, 0, 69, 0
1, 7200, Note_on_c, 0, 71, 80
1, 7200, Note_on_c, 0, 67, 80
1, 7200, Note_on_c, 0, 74, 80
1, 7296, Note_on_c, 0, 74, 0
1, 7320, Note_on_c, 0, 76, 80
1, 7368, Note_on_c, 0, 76, 0
1, 7380, Note_on_c, 0, 78, 80
1, 7392, Note_on_c, 0, 67, 0
1, 7392, Note_on_c, 0, 71, 0
1, 7428, Note_on_c, 0, 78, 0
1, 7440, Note_on_c, 0, 81, 80
1, 7488, Note_on_c, 0, 81, 0
1, 7500, Note_on_c, 0, 79, 80
1, 7548, Note_on_c, 0, 79, 0
1, 7560, Note_on_c, 0, 78, 80
1, 7608, Note_on_c, 0, 78, 0
1, 7620, Note_on_c, 0, 76, 80
1, 7668, Note_on_c, 0, 76, 0
1, 7680, Note_on_c, 0, 74, 80
1, 7776, Note_on_c, 0, 74, 0
1, 7800, Note_on_c, 0, 71, 80
1, 7800, Note_on_c, 0, 67, 80
1, 7800, Note_on_c, 0, 74, 80
1, 7896, Note_on_c, 0, 74, 0
1, 7896, Note_on_c, 0, 67, 0
1, 7896, Note_on_c, 0, 71, 0
1, 7920, Note_on_c, 0, 69, 80
1, 7920, Note_on_c, 0, 66, 80
1, 7920, Note_on_c, 0, 74, 80
1, 8016, Note_on_c, 0, 74, 0
1, 8016, Note_on_c, 0, 66, 0
1, 8016, Note_on_c, 0, 69, 0
1, 8040, Note_on_c, 0, 69, 80
1, 8040, Note_on_c, 0, 72, 80
1, 8040, Note_on_c, 0, 74, 80
1, 8136, Note_on_c, 0, 74, 0
1, 8136, Note_on_c, 0, 72, 0
1, 8136, Note_on_c, 0, 69, 0
1, 8160, Note_on_c, 0, 71, 80
1, 8160, Note_on_c, 0, 67, 80
1, 8160, Note_on_c, 0, 74, 80
1, 8256, Note_on_c, 0, 74, 0
1, 8280, Note_on_c, 0, 79, 80
1, 8376, Note_on_c, 0, 79, 0
1, 8400, Note_on_c, 0, 77, 80
1, 8496, Note_on_c, 0, 77, 0
1, 8520, Note_on_c, 0, 74, 80
1, 8616, Note_on_c, 0, 74, 0
1, 8640, Note_on_c, 0, 75, 80
1, 8736, Note_on_c, 0, 67, 0
1, 8736, Note_on_c, 0, 71, 0
1, 8760, Note_on_c, 0, 67, 80
1, 8760, Note_on_c, 0, 72, 80
1, 8832, Note_on_c, 0, 75, 0
1, 8856, Note_on_c, 0, 72, 0
1, 8856, Note_on_c, 0, 67, 0
1, 8880, Note_on_c, 0, 72, 80
1, 8880, Note_on_c, 0, 67, 80
1, 8880, Note_on_c, 0, 76, 80
1, 8976, Note_on_c, 0, 67, 0
1, 8976, Note_on_c, 0, 72, 0
1, 9000, Note_on_c, 0, 67, 80
1, 9000, Note_on_c, 0, 72, 80
1, 9096, Note_on_c, 0, 72, 0
1, 9096, Note_on_c, 0, 67, 0
1, 9120, Note_on_c, 0, 72, 80
1, 9120, Note_on_c, 0, 67, 80
1, 9216, Note_on_c, 0, 76, 0
1, 9240, Note_on_c, 0, 79, 80
1, 9312, Note_on_c, 0, 67, 0
1, 9312, Note_on_c, 0, 72, 0
1, 9336, Note_on_c, 0, 79, 0
1, 9360, Note_on_c, 0, 76, 80
1, 9456, Note_on_c, 0, 76, 0
1, 9480, Note_on_c, 0, 72, 80
1, 9576, Note_on_c, 0, 72, 0
1, 9600, Note_on_c, 0, 73, 80
1, 9720, Note_on_c, 0, 67, 80
1, 9720, Note_on_c, 0, 71, 80
1, 9792, Note_on_c, 0, 73, 0
1, 9816, Note_on_c, 0, 71, 0
1, 9816, Note_on_c, 0, 67, 0
1, 9840, Note_on_c, 0, 71, 80
1, 9840, Note_on_c, 0, 67, 80
1, 9840, Note_on_c, 0, 74, 80
1, 9936, Note_on_c, 0, 67, 0
1, 9936, Note_on_c, 0, 71, 0
1, 9960, Note_on_c, 0, 67, 80
1, 9960, Note_on_c, 0, 71, 80
1, 10032, Note_on_c, 0, 74, 0
1, 10056, Note_on_c, 0, 71, 0
1, 10056, Note_on_c, 0, 67, 0
1, 10080, Note_on_c, 0, 71, 80
1, 10080, Note_on_c, 0, 67, 80
1, 10080, Note_on_c, 0, 74, 80
1, 10176, Note_on_c, 0, 74, 0
1, 10200, Note_on_c, 0, 83, 80
1, 10272, Note_on_c, 0, 67, 0
1, 10272, Note_on_c, 0, 71, 0
1, 10296, Note_on_c, 0, 83, 0
1, 10320, Note_on_c, 0, 81, 80
1, 10344, Note_on_c, 0, 81, 0
1, 10350, Note_on_c, 0, 79, 80
1, 10422, Note_on_c, 0, 79, 0
1, 10440, Note_on_c, 0, 78, 80
1, 10464, Note_on_c, 0, 78, 0
1, 10470, Note_on_c, 0, 76, 80
1, 10542, Note_on_c, 0, 76, 0
1, 10560, Note_on_c, 0, 74, 80
1, 10680, Note_on_c, 0, 69, 80
1, 10752, Note_on_c, 0, 74, 0
1, 10776, Note_on_c, 0, 69, 0
1, 10800, Note_on_c, 0, 72, 80
1, 10800, Note_on_c, 0, 66, 80
1, 10896, Note_on_c, 0, 66, 0
1, 10896, Note_on_c, 0, 72, 0
1, 10920, Note_on_c, 0, 67, 80
1, 10920, Note_on_c, 0, 71, 80
1, 11016, Note_on_c, 0, 71, 0
1, 11016, Note_on_c, 0, 67, 0
1, 11040, Note_on_c, 0, 60, 80
1, 11040, Note_on_c, 0, 69, 80
1, 11088, Note_on_c, 0, 69, 0
1, 11100, Note_on_c, 0, 67, 80
1, 11148, Note_on_c, 0, 67, 0
1, 11160, Note_on_c, 0, 75, 80
1, 11208, Note_on_c, 0, 75, 0
1, 11220, Note_on_c, 0, 76, 80
1, 11268, Note_on_c, 0, 76, 0
1, 11280, Note_on_c, 0, 74, 80
1, 11328, Note_on_c, 0, 74, 0
1, 11328, Note_on_c, 0, 60, 0
1, 11340, Note_on_c, 0, 72, 80
1, 11388, Note_on_c, 0, 72, 0
1, 11400, Note_on_c, 0, 61, 80
1, 11400, Note_on_c, 0, 71, 80
1, 11448, Note_on_c, 0, 71, 0
1, 11460, Note_on_c, 0, 69, 80
1, 11496, Note_on_c, 0, 61, 0
1, 11508, Note_on_c, 0, 69, 0
1, 11520, Note_on_c, 0, 62, 80
1, 11520, Note_on_c, 0, 67, 80
1, 11616, Note_on_c, 0, 62, 0
1, 11640, Note_on_c, 0, 57, 80
1, 11712, Note_on_c, 0, 67, 0
1, 11736, Note_on_c, 0, 57, 0
1, 11760, Note_on_c, 0, 66, 80
1, 11760, Note_on_c, 0, 50, 80
1, 11808, Note_on_c, 0, 66, 0
1, 11856, Note_on_c, 0, 50, 0
1, 11880, Note_on_c, 0, 69, 80
1, 11976, Note_on_c, 0, 69, 0
1, 12000, Note_on_c, 0, 74, 80
1, 12000, Note_on_c, 0, 50, 80
1, 12048, Note_on_c, 0, 50, 0
1, 12060, Note_on_c, 0, 57, 80
1, 12108, Note_on_c, 0, 57, 0
1, 12120, Note_on_c, 0, 54, 80
1, 12168, Note_on_c, 0, 54, 0
1, 12180, Note_on_c, 0, 57, 80
1, 12192, Note_on_c, 0, 74, 0
1, 12228, Note_on_c, 0, 57, 0
1, 12240, Note_on_c, 0, 79, 80
1, 12240, Note_on_c, 0, 50, 80
1, 12288, Note_on_c, 0, 50, 0
1, 12288, Note_on_c, 0, 79, 0
1, 12300, Note_on_c, 0, 78, 80
1, 12300, Note_on_c, 0, 57, 80
1, 12348, Note_on_c, 0, 57, 0
1, 12348, Note_on_c, 0, 78, 0
1, 12360, Note_on_c, 0, 76, 80
1, 12360, Note_on_c, 0, 54, 80
1, 12408, Note_on_c, 0, 54, 0
1, 12408, Note_on_c, 0, 76, 0
1, 12420, Note_on_c, 0, 57, 80
1, 12420, Note_on_c, 0, 74, 80
1, 12468, Note_on_c, 0, 74, 0
1, 12468, Note_on_c, 0, 57, 0
1, 12480, Note_on_c, 0, 74, 80
1, 12480, Note_on_c, 0, 52, 80
1, 12528, Note_on_c, 0, 52, 0
1, 12540, Note_on_c, 0, 57, 80
1, 12576, Note_on_c, 0, 74, 0
1, 12588, Note_on_c, 0, 57, 0
1, 12600, Note_on_c, 0, 73, 80
1, 12600, Note_on_c, 0, 55, 80
1, 12648, Note_on_c, 0, 55, 0
1, 12660, Note_on_c, 0, 57, 80
1, 12696, Note_on_c, 0, 73, 0
1, 12708, Note_on_c, 0, 57, 0
1, 12720, Note_on_c, 0, 52, 80
1, 12768, Note_on_c, 0, 52, 0
1, 12780, Note_on_c, 0, 57, 80
1, 12828, Note_on_c, 0, 57, 0
1, 12840, Note_on_c, 0, 55, 80
1, 12840, Note_on_c, 0, 69, 80
1, 12888, Note_on_c, 0, 55, 0
1, 12900, Note_on_c, 0, 57, 80
1, 12936, Note_on_c, 0, 69, 0
1, 12948, Note_on_c, 0, 57, 0
1, 12960, Note_on_c, 0, 76, 80
1, 12960, Note_on_c, 0, 49, 80
1, 13008, Note_on_c, 0, 49, 0
1, 13020, Note_on_c, 0, 57, 80
1, 13068, Note_on_c, 0, 57, 0
1, 13080, Note_on_c, 0, 52, 80
1, 13128, Note_on_c, 0, 52, 0
1, 13140, Note_on_c, 0, 57, 80
1, 13152, Note_on_c, 0, 76, 0
1, 13188, Note_on_c, 0, 57, 0
1, 13200, Note_on_c, 0, 81, 80
1, 13200, Note_on_c, 0, 49, 80
1, 13248, Note_on_c, 0, 49, 0
1, 13248, Note_on_c, 0, 81, 0
1, 13260, Note_on_c, 0, 79, 80
1, 13260, Note_on_c, 0, 57, 80
1, 13308, Note_on_c, 0, 57, 0
1, 13308, Note_on_c, 0, 79, 0
1, 13320, Note_on_c, 0, 78, 80
1, 13320, Note_on_c, 0, 52, 80
1, 13368, Note_on_c, 0, 52, 0
1, 13368, Note_on_c, 0, 78, 0
1, 13380, Note_on_c, 0, 57, 80
1, 13380, Note_on_c, 0, 76, 80
1, 13428, Note_on_c, 0, 76, 0
1, 13428, Note_on_c, 0, 57, 0
1, 13440, Note_on_c, 0, 76, 80
1, 13440, Note_on_c, 0, 50, 80
1, 13488, Note_on_c, 0, 50, 0
1, 13500, Note_on_c, 0, 57, 80
1, 13536, Note_on_c, 0, 76, 0
1, 13548, Note_on_c, 0, 57, 0
1, 13560, Note_on_c, 0, 78, 80
1, 13560, Note_on_c, 0, 54, 80
1, 13608, Note_on_c, 0, 54, 0
1, 13620, Note_on_c, 0, 57, 80
1, 13656, Note_on_c, 0, 78, 0
1, 13668, Note_on_c, 0, 57, 0
1, 13680, Note_on_c, 0, 50, 80
1, 13728, Note_on_c, 0, 50, 0
1, 13740, Note_on_c, 0, 57, 80
1, 13788, Note_on_c, 0, 57, 0
1, 13800, Note_on_c, 0, 54, 80
1, 13800, Note_on_c, 0, 69, 80
1, 13848, Note_on_c, 0, 54, 0
1, 13860, Note_on_c, 0, 57, 80
1, 13896, Note_on_c, 0, 69, 0
1, 13908, Note_on_c, 0, 57, 0
1, 13920, Note_on_c, 0, 69, 80
1, 13920, Note_on_c, 0, 54, 80
1, 13968, Note_on_c, 0, 69, 0
1, 13980, Note_on_c, 0, 81, 80
1, 14028, Note_on_c, 0, 81, 0
1, 14040, Note_on_c, 0, 79, 80
1, 14088, Note_on_c, 0, 79, 0
1, 14100, Note_on_c, 0, 78, 80
1, 14112, Note_on_c, 0, 54, 0
1, 14148, Note_on_c, 0, 78, 0
1, 14160, Note_on_c, 0, 76, 80
1, 14208, Note_on_c, 0, 76, 0
1, 14220, Note_on_c, 0, 74, 80
1, 14268, Note_on_c, 0, 74, 0
1, 14280, Note_on_c, 0, 73, 80
1, 14328, Note_on_c, 0, 73, 0
1, 14340, Note_on_c, 0, 74, 80
1, 14388, Note_on_c, 0, 74, 0
1, 14400, Note_on_c, 0, 55, 80
1, 14400, Note_on_c, 0, 71, 80
1, 14424, Note_on_c, 0, 71, 0
1, 14448, Note_on_c, 0, 55, 0
1, 14460, Note_on_c, 0, 67, 80
1, 14508, Note_on_c, 0, 67, 0
1, 14520, Note_on_c, 0, 54, 80
1, 14520, Note_on_c, 0, 75, 80
1, 14544, Note_on_c, 0, 75, 0
1, 14568, Note_on_c, 0, 54, 0
1, 14580, Note_on_c, 0, 66, 80
1, 14628, Note_on_c, 0, 66, 0
1, 14640, Note_on_c, 0, 52, 80
1, 14640, Note_on_c, 0, 76, 80
1, 14664, Note_on_c, 0, 76, 0
1, 14688, Note_on_c, 0, 52, 0
1, 14700, Note_on_c, 0, 64, 80
1, 14748, Note_on_c, 0, 64, 0
1, 14760, Note_on_c, 0, 51, 80
1, 14760, Note_on_c, 0, 78, 80
1, 14784, Note_on_c, 0, 78, 0
1, 14808, Note_on_c, 0, 51, 0
1, 14820, Note_on_c, 0, 63, 80
1, 14868, Note_on_c, 0, 63, 0
1, 14880, Note_on_c, 0, 52, 80
1, 14940, Note_on_c, 0, 79, 80
1, 14988, Note_on_c, 0, 79, 0
1, 15000, Note_on_c, 0, 78, 80
1, 15048, Note_on_c, 0, 78, 0
1, 15060, Note_on_c, 0, 76, 80
1, 15072, Note_on_c, 0, 52, 0
1, 15108, Note_on_c, 0, 76, 0
1, 15120, Note_on_c, 0, 74, 80
1, 15168, Note_on_c, 0, 74, 0
1, 15180, Note_on_c, 0, 73, 80
1, 15228, Note_on_c, 0, 73, 0
1, 15240, Note_on_c, 0, 71, 80
1, 15288, Note_on_c, 0, 71, 0
1, 15300, Note_on_c, 0, 73, 80
1, 15348, Note_on_c, 0, 73, 0
1, 15360, Note_on_c, 0, 54, 80
1, 15360, Note_on_c, 0, 69, 80
1, 15384, Note_on_c, 0, 69, 0
1, 15408, Note_on_c, 0, 54, 0
1, 15420, Note_on_c, 0, 66, 80
1, 15468, Note_on_c, 0, 66, 0
1, 15480, Note_on_c, 0, 52, 80
1, 15480, Note_on_c, 0, 73, 80
1, 15504, Note_on_c, 0, 73, 0
1, 15528, Note_on_c, 0, 52, 0
1, 15540, Note_on_c, 0, 64, 80
1, 15588, Note_on_c, 0, 64, 0
1, 15600, Note_on_c, 0, 50, 80
1, 15600, Note_on_c, 0, 74, 80
1, 15624, Note_on_c, 0, 74, 0
1, 15648, Note_on_c, 0, 50, 0
1, 15660, Note_on_c, 0, 62, 80
1, 15708, Note_on_c, 0, 62, 0
1, 15720, Note_on_c, 0, 49, 80
1, 15720, Note_on_c, 0, 76, 80
1, 15744, Note_on_c, 0, 76, 0
1, 15768, Note_on_c, 0, 49, 0
1, 15780, Note_on_c, 0, 61, 80
1, 15828, Note_on_c, 0, 61, 0
1, 15840, Note_on_c, 0, 50, 80
1, 15900, Note_on_c, 0, 78, 80
1, 15948, Note_on_c, 0, 78, 0
1, 15960, Note_on_c, 0, 76, 80
1, 16008, Note_on_c, 0, 76, 0
1, 16020, Note_on_c, 0, 74, 80
1, 16032, Note_on_c, 0, 50, 0
1, 16068, Note_on_c, 0, 74, 0
1, 16080, Note_on_c, 0, 73, 80
1, 16128, Note_on_c, 0, 73, 0
1, 16140, Note_on_c, 0, 71, 80
1, 16188, Note_on_c, 0, 71, 0
1, 16200, Note_on_c, 0, 69, 80
1, 16248, Note_on_c, 0, 69, 0
1, 16260, Note_on_c, 0, 71, 80
1, 16308, Note_on_c, 0, 71, 0
1, 16320, Note_on_c, 0, 52, 80
1, 16320, Note_on_c, 0, 67, 80
1, 16344, Note_on_c, 0, 67, 0
1, 16368, Note_on_c, 0, 52, 0
1, 16380, Note_on_c, 0, 64, 80
1, 16428, Note_on_c, 0, 64, 0
1, 16440, Note_on_c, 0, 50, 80
1, 16440, Note_on_c, 0, 71, 80
1, 16464, Note_on_c, 0, 71, 0
1, 16488, Note_on_c, 0, 50, 0
1, 16500, Note_on_c, 0, 62, 80
1, 16548, Note_on_c, 0, 62, 0
1, 16560, Note_on_c, 0, 49, 80
1, 16560, Note_on_c, 0, 73, 80
1, 16584, Note_on_c, 0, 73, 0
1, 16608, Note_on_c, 0, 49, 0
1, 16620, Note_on_c, 0, 61, 80
1, 16668, Note_on_c, 0, 61, 0
1, 16680, Note_on_c, 0, 47, 80
1, 16680, Note_on_c, 0, 74, 80
1, 16704, Note_on_c, 0, 74, 0
1, 16728, Note_on_c, 0, 47, 0
1, 16740, Note_on_c, 0, 59, 80
1, 16788, Note_on_c, 0, 59, 0
1, 16800, Note_on_c, 0, 45, 80
1, 16860, Note_on_c, 0, 76, 80
1, 16908, Note_on_c, 0, 76, 0
1, 16920, Note_on_c, 0, 74, 80
1, 16968, Note_on_c, 0, 74, 0
1, 16980, Note_on_c, 0, 73, 80
1, 16992, Note_on_c, 0, 45, 0
1, 17028, Note_on_c, 0, 73, 0
1, 17040, Note_on_c, 0, 71, 80
1, 17088, Note_on_c, 0, 71, 0
1, 17100, Note_on_c, 0, 69, 80
1, 17148, Note_on_c, 0, 69, 0
1, 17160, Note_on_c, 0, 49, 80
1, 17160, Note_on_c, 0, 71, 80
1, 17208, Note_on_c, 0, 71, 0
1, 17220, Note_on_c, 0, 67, 80
1, 17256, Note_on_c, 0, 49, 0
1, 17268, Note_on_c, 0, 67, 0
1, 17280, Note_on_c, 0, 66, 80
1, 17280, Note_on_c, 0, 50, 80
1, 17328, Note_on_c, 0, 50, 0
1, 17340, Note_on_c, 0, 57, 80
1, 17376, Note_on_c, 0, 66, 0
1, 17388, Note_on_c, 0, 57, 0
1, 17400, Note_on_c, 0, 54, 80
1, 17400, Note_on_c, 0, 74, 80
1, 17448, Note_on_c, 0, 54, 0
1, 17460, Note_on_c, 0, 57, 80
1, 17496, Note_on_c, 0, 74, 0
1, 17508, Note_on_c, 0, 57, 0
1, 17520, Note_on_c, 0, 73, 80
1, 17520, Note_on_c, 0, 52, 80
1, 17568, Note_on_c, 0, 52, 0
1, 17580, Note_on_c, 0, 57, 80
1, 17616, Note_on_c, 0, 73, 0
1, 17628, Note_on_c, 0, 57, 0
1, 17640, Note_on_c, 0, 81, 80
1, 17640, Note_on_c, 0, 55, 80
1, 17688, Note_on_c, 0, 55, 0
1, 17700, Note_on_c, 0, 57, 80
1, 17736, Note_on_c, 0, 81, 0
1, 17748, Note_on_c, 0, 57, 0
1, 17760, Note_on_c, 0, 78, 80
1, 17760, Note_on_c, 0, 50, 80
1, 17808, Note_on_c, 0, 50, 0
1, 17820, Note_on_c, 0, 57, 80
1, 17856, Note_on_c, 0, 78, 0
1, 17868, Note_on_c, 0, 57, 0
1, 17880, Note_on_c, 0, 54, 80
1, 17880, Note_on_c, 0, 74, 80
1, 17928, Note_on_c, 0, 54, 0
1, 17940, Note_on_c, 0, 57, 80
1, 17976, Note_on_c, 0, 74, 0
1, 17988, Note_on_c, 0, 57, 0
1, 18000, Note_on_c, 0, 73, 80
1, 18000, Note_on_c, 0, 52, 80
1, 18048, Note_on_c, 0, 52, 0
1, 18060, Note_on_c, 0, 57, 80
1, 18096, Note_on_c, 0, 73, 0
1, 18108, Note_on_c, 0, 57, 0
1, 18120, Note_on_c, 0, 67, 80
1, 18120, Note_on_c, 0, 55, 80
1, 18168, Note_on_c, 0, 55, 0
1, 18180, Note_on_c, 0, 57, 80
1, 18216, Note_on_c, 0, 67, 0
1, 18228, Note_on_c, 0, 57, 0
1, 18240, Note_on_c, 0, 66, 80
1, 18240, Note_on_c, 0, 50, 80
1, 18288, Note_on_c, 0, 50, 0
1, 18300, Note_on_c, 0, 57, 80
1, 18336, Note_on_c, 0, 66, 0
1, 18348, Note_on_c, 0, 57, 0
1, 18360, Note_on_c, 0, 54, 80
1, 18360, Note_on_c, 0, 74, 80
1, 18408, Note_on_c, 0, 54, 0
1, 18420, Note_on_c, 0, 57, 80
1, 18456, Note_on_c, 0, 74, 0
1, 18468, Note_on_c, 0, 57, 0
1, 18480, Note_on_c, 0, 73, 80
1, 18480, Note_on_c, 0, 52, 80
1, 18504, Note_on_c, 0, 73, 0
1, 18528, Note_on_c, 0, 52, 0
1, 18540, Note_on_c, 0, 57, 80
1, 18588, Note_on_c, 0, 57, 0
1, 18600, Note_on_c, 0, 55, 80
1, 18600, Note_on_c, 0, 81, 80
1, 18624, Note_on_c, 0, 81, 0
1, 18648, Note_on_c, 0, 55, 0
1, 18660, Note_on_c, 0, 57, 80
1, 18708, Note_on_c, 0, 57, 0
1, 18720, Note_on_c, 0, 78, 80
1, 18720, Note_on_c, 0, 50, 80
1, 18744, Note_on_c, 0, 78, 0
1, 18768, Note_on_c, 0, 50, 0
1, 18780, Note_on_c, 0, 57, 80
1, 18828, Note_on_c, 0, 57, 0
1, 18840, Note_on_c, 0, 54, 80
1, 18840, Note_on_c, 0, 74, 80
1, 18864, Note_on_c, 0, 74, 0
1, 18888, Note_on_c, 0, 54, 0
1, 18900, Note_on_c, 0, 57, 80
1, 18948, Note_on_c, 0, 57, 0
1, 18960, Note_on_c, 0, 73, 80
1, 18960, Note_on_c, 0, 52, 80
1, 18984, Note_on_c, 0, 73, 0
1, 19008, Note_on_c, 0, 52, 0
1, 19020, Note_on_c, 0, 57, 80
1, 19068, Note_on_c, 0, 57, 0
1, 19080, Note_on_c, 0, 67, 80
1, 19080, Note_on_c, 0, 55, 80
1, 19104, Note_on_c, 0, 67, 0
1, 19128, Note_on_c, 0, 55, 0
1, 19140, Note_on_c, 0, 57, 80
1, 19188, Note_on_c, 0, 57, 0
1, 19200, Note_on_c, 0, 66, 80
1, 19200, Note_on_c, 0, 50, 80
1, 19248, Note_on_c, 0, 50, 0
1, 19260, Note_on_c, 0, 57, 80
1, 19296, Note_on_c, 0, 66, 0
1, 19308, Note_on_c, 0, 57, 0
1, 19320, Note_on_c, 0, 74, 80
1, 19320, Note_on_c, 0, 54, 80
1, 19368, Note_on_c, 0, 54, 0
1, 19380, Note_on_c, 0, 57, 80
1, 19416, Note_on_c, 0, 74, 0
1, 19428, Note_on_c, 0, 57, 0
1, 19440, Note_on_c, 0, 72, 80
1, 19440, Note_on_c, 0, 54, 80
1, 19488, Note_on_c, 0, 54, 0
1, 19500, Note_on_c, 0, 62, 80
1, 19536, Note_on_c, 0, 72, 0
1, 19548, Note_on_c, 0, 62, 0
1, 19560, Note_on_c, 0, 57, 80
1, 19560, Note_on_c, 0, 69, 80
1, 19608, Note_on_c, 0, 57, 0
1, 19620, Note_on_c, 0, 62, 80
1, 19656, Note_on_c, 0, 69, 0
1, 19668, Note_on_c, 0, 62, 0
1, 19680, Note_on_c, 0, 70, 80
1, 19680, Note_on_c, 0, 50, 80
1, 19728, Note_on_c, 0, 50, 0
1, 19740, Note_on_c, 0, 57, 80
1, 19788, Note_on_c, 0, 57, 0
1, 19800, Note_on_c, 0, 54, 80
1, 19848, Note_on_c, 0, 54, 0
1, 19860, Note_on_c, 0, 57, 80
1, 19872, Note_on_c, 0, 70, 0
1, 19908, Note_on_c, 0, 57, 0
1, 19920, Note_on_c, 0, 55, 80
1, 19920, Note_on_c, 0, 71, 80
1, 20016, Note_on_c, 0, 71, 0
1, 20016, Note_on_c, 0, 55, 0
1, 20040, Note_on_c, 0, 83, 80
1, 20088, Note_on_c, 0, 83, 0
1, 20100, Note_on_c, 0, 79, 80
1, 20148, Note_on_c, 0, 79, 0
1, 20160, Note_on_c, 0, 81, 80
1, 20208, Note_on_c, 0, 81, 0
1, 20220, Note_on_c, 0, 78, 80
1, 20268, Note_on_c, 0, 78, 0
1, 20280, Note_on_c, 0, 79, 80
1, 20328, Note_on_c, 0, 79, 0
1, 20340, Note_on_c, 0, 76, 80
1, 20388, Note_on_c, 0, 76, 0
1, 20400, Note_on_c, 0, 78, 80
1, 20448, Note_on_c, 0, 78, 0
1, 20460, Note_on_c, 0, 74, 80
1, 20508, Note_on_c, 0, 74, 0
1, 20520, Note_on_c, 0, 76, 80
1, 20520, Note_on_c, 0, 57, 80
1, 20568, Note_on_c, 0, 76, 0
1, 20580, Note_on_c, 0, 73, 80
1, 20616, Note_on_c, 0, 57, 0
1, 20628, Note_on_c, 0, 73, 0
1, 20640, Note_on_c, 0, 59, 80
1, 20640, Note_on_c, 0, 74, 80
1, 20664, Note_on_c, 0, 74, 0
1, 20688, Note_on_c, 0, 59, 0
1, 20700, Note_on_c, 0, 68, 80
1, 20748, Note_on_c, 0, 68, 0
1, 20760, Note_on_c, 0, 62, 80
1, 20760, Note_on_c, 0, 86, 80
1, 20784, Note_on_c, 0, 86, 0
1, 20808, Note_on_c, 0, 62, 0
1, 20820, Note_on_c, 0, 68, 80
1, 20868, Note_on_c, 0, 68, 0
1, 20880, Note_on_c, 0, 59, 80
1, 20880, Note_on_c, 0, 86, 80
1, 20904, Note_on_c, 0, 86, 0
1, 20928, Note_on_c, 0, 59, 0
1, 20940, Note_on_c, 0, 68, 80
1, 20988, Note_on_c, 0, 68, 0
1, 21000, Note_on_c, 0, 62, 80
1, 21000, Note_on_c, 0, 88, 80
1, 21024, Note_on_c, 0, 88, 0
1, 21030, Note_on_c, 0, 86, 80
1, 21048, Note_on_c, 0, 62, 0
1, 21054, Note_on_c, 0, 86, 0
1, 21060, Note_on_c, 0, 85, 80
1, 21060, Note_on_c, 0, 68, 80
1, 21084, Note_on_c, 0, 85, 0
1, 21090, Note_on_c, 0, 86, 80
1, 21108, Note_on_c, 0, 68, 0
1, 21114, Note_on_c, 0, 86, 0
1, 21120, Note_on_c, 0, 85, 80
1, 21120, Note_on_c, 0, 57, 80
1, 21168, Note_on_c, 0, 57, 0
1, 21180, Note_on_c, 0, 69, 80
1, 21216, Note_on_c, 0, 85, 0
1, 21228, Note_on_c, 0, 69, 0
1, 21240, Note_on_c, 0, 61, 80
1, 21240, Note_on_c, 0, 79, 80
1, 21264, Note_on_c, 0, 79, 0
1, 21288, Note_on_c, 0, 61, 0
1, 21300, Note_on_c, 0, 69, 80
1, 21348, Note_on_c, 0, 69, 0
1, 21360, Note_on_c, 0, 57, 80
1, 21360, Note_on_c, 0, 79, 80
1, 21384, Note_on_c, 0, 79, 0
1, 21408, Note_on_c, 0, 57, 0
1, 21420, Note_on_c, 0, 69, 80
1, 21468, Note_on_c, 0, 69, 0
1, 21480, Note_on_c, 0, 61, 80
1, 21480, Note_on_c, 0, 81, 80
1, 21504, Note_on_c, 0, 81, 0
1, 21510, Note_on_c, 0, 79, 80
1, 21528, Note_on_c, 0, 61, 0
1, 21534, Note_on_c, 0, 79, 0
1, 21540, Note_on_c, 0, 78, 80
1, 21540, Note_on_c, 0, 69, 80
1, 21564, Note_on_c, 0, 78, 0
1, 21570, Note_on_c, 0, 79, 80
1, 21588, Note_on_c, 0, 69, 0
1, 21594, Note_on_c, 0, 79, 0
1, 21600, Note_on_c, 0, 78, 80
1, 21600, Note_on_c, 0, 62, 80
1, 21648, Note_on_c, 0, 62, 0
1, 21660, Note_on_c, 0, 69, 80
1, 21696, Note_on_c, 0, 78, 0
1, 21708, Note_on_c, 0, 69, 0
1, 21720, Note_on_c, 0, 66, 80
1, 21720, Note_on_c, 0, 72, 80
1, 21744, Note_on_c, 0, 72, 0
1, 21768, Note_on_c, 0, 66, 0
1, 21780, Note_on_c, 0, 69, 80
1, 21828, Note_on_c, 0, 69, 0
1, 21840, Note_on_c, 0, 62, 80
1, 21840, Note_on_c, 0, 72, 80
1, 21864, Note_on_c, 0, 72, 0
1, 21888, Note_on_c, 0, 62, 0
1, 21900, Note_on_c, 0, 69, 80
1, 21948, Note_on_c, 0, 69, 0
1, 21960, Note_on_c, 0, 66, 80
1, 21960, Note_on_c, 0, 74, 80
1, 21984, Note_on_c, 0, 74, 0
1, 21990, Note_on_c, 0, 72, 80
1, 22008, Note_on_c, 0, 66, 0
1, 22014, Note_on_c, 0, 72, 0
1, 22020, Note_on_c, 0, 71, 80
1, 22020, Note_on_c, 0, 69, 80
1, 22044, Note_on_c, 0, 71, 0
1, 22050, Note_on_c, 0, 72, 80
1, 22068, Note_on_c, 0, 69, 0
1, 22074, Note_on_c, 0, 72, 0
1, 22080, Note_on_c, 0, 67, 80
1, 22080, Note_on_c, 0, 71, 80
1, 22176, Note_on_c, 0, 71, 0
1, 22200, Note_on_c, 0, 82, 80
1, 22248, Note_on_c, 0, 82, 0
1, 22260, Note_on_c, 0, 83, 80
1, 22272, Note_on_c, 0, 67, 0
1, 22308, Note_on_c, 0, 83, 0
1, 22320, Note_on_c, 0, 81, 80
1, 22368, Note_on_c, 0, 81, 0
1, 22380, Note_on_c, 0, 79, 80
1, 22428, Note_on_c, 0, 79, 0
1, 22440, Note_on_c, 0, 78, 80
1, 22488, Note_on_c, 0, 78, 0
1, 22500, Note_on_c, 0, 76, 80
1, 22548, Note_on_c, 0, 76, 0
1, 22560, Note_on_c, 0, 74, 80
1, 22680, Note_on_c, 0, 54, 80
1, 22752, Note_on_c, 0, 74, 0
1, 22776, Note_on_c, 0, 54, 0
1, 22800, Note_on_c, 0, 76, 80
1, 22800, Note_on_c, 0, 55, 80
1, 22824, Note_on_c, 0, 76, 0
1, 22830, Note_on_c, 0, 78, 80
1, 22854, Note_on_c, 0, 78, 0
1, 22860, Note_on_c, 0, 76, 80
1, 22884, Note_on_c, 0, 76, 0
1, 22890, Note_on_c, 0, 78, 80
1, 22896, Note_on_c, 0, 55, 0
1, 22914, Note_on_c, 0, 78, 0
1, 22920, Note_on_c, 0, 76, 80
1, 22920, Note_on_c, 0, 57, 80
1, 22944, Note_on_c, 0, 76, 0
1, 22950, Note_on_c, 0, 78, 80
1, 22974, Note_on_c, 0, 78, 0
1, 22980, Note_on_c, 0, 76, 80
1, 23004, Note_on_c, 0, 76, 0
1, 23010, Note_on_c, 0, 78, 80
1, 23016, Note_on_c, 0, 57, 0
1, 23034, Note_on_c, 0, 78, 0
1, 23040, Note_on_c, 0, 59, 80
1, 23040, Note_on_c, 0, 74, 80
1, 23064, Note_on_c, 0, 74, 0
1, 23088, Note_on_c, 0, 59, 0
1, 23100, Note_on_c, 0, 68, 80
1, 23148, Note_on_c, 0, 68, 0
1, 23160, Note_on_c, 0, 62, 80
1, 23160, Note_on_c, 0, 86, 80
1, 23184, Note_on_c, 0, 86, 0
1, 23208, Note_on_c, 0, 62, 0
1, 23220, Note_on_c, 0, 68, 80
1, 23268, Note_on_c, 0, 68, 0
1, 23280, Note_on_c, 0, 59, 80
1, 23280, Note_on_c, 0, 86, 80
1, 23304, Note_on_c, 0, 86, 0
1, 23328, Note_on_c, 0, 59, 0
1, 23340, Note_on_c, 0, 68, 80
1, 23388, Note_on_c, 0, 68, 0
1, 23400, Note_on_c, 0, 62, 80
1, 23400, Note_on_c, 0, 88, 80
1, 23424, Note_on_c, 0, 88, 0
1, 23430, Note_on_c, 0, 86, 80
1, 23448, Note_on_c, 0, 62, 0
1, 23454, Note_on_c, 0, 86, 0
1, 23460, Note_on_c, 0, 68, 80
1, 23460, Note_on_c, 0, 85, 80
1, 23484, Note_on_c, 0, 85, 0
1, 23490, Note_on_c, 0, 86, 80
1, 23508, Note_on_c, 0, 68, 0
1, 23514, Note_on_c, 0, 86, 0
1, 23520, Note_on_c, 0, 57, 80
1, 23520, Note_on_c, 0, 85, 80
1, 23568, Note_on_c, 0, 57, 0
1, 23580, Note_on_c, 0, 69, 80
1, 23616, Note_on_c, 0, 85, 0
1, 23628, Note_on_c, 0, 69, 0
1, 23640, Note_on_c, 0, 61, 80
1, 23640, Note_on_c, 0, 79, 80
1, 23664, Note_on_c, 0, 79, 0
1, 23688, Note_on_c, 0, 61, 0
1, 23700, Note_on_c, 0, 69, 80
1, 23748, Note_on_c, 0, 69, 0
1, 23760, Note_on_c, 0, 57, 80
1, 23760, Note_on_c, 0, 79, 80
1, 23784, Note_on_c, 0, 79, 0
1, 23808, Note_on_c, 0, 57, 0
1, 23820, Note_on_c, 0, 69, 80
1, 23868, Note_on_c, 0, 69, 0
1, 23880, Note_on_c, 0, 61, 80
1, 23880, Note_on_c, 0, 81, 80
1, 23904, Note_on_c, 0, 81, 0
1, 23910, Note_on_c, 0, 79, 80
1, 23928, Note_on_c, 0, 61, 0
1, 23934, Note_on_c, 0, 79, 0
1, 23940, Note_on_c, 0, 69, 80
1, 23940, Note_on_c, 0, 78, 80
1, 23964, Note_on_c, 0, 78, 0
1, 23970, Note_on_c, 0, 79, 80
1, 23988, Note_on_c, 0, 69, 0
1, 23994, Note_on_c, 0, 79, 0
1, 24000, Note_on_c, 0, 62, 80
1, 24000, Note_on_c, 0, 78, 80
1, 24048, Note_on_c, 0, 62, 0
1, 24060, Note_on_c, 0, 69, 80
1, 24096, Note_on_c, 0, 78, 0
1, 24108, Note_on_c, 0, 69, 0
1, 24120, Note_on_c, 0, 66, 80
1, 24120, Note_on_c, 0, 72, 80
1, 24144, Note_on_c, 0, 72, 0
1, 24168, Note_on_c, 0, 66, 0
1, 24180, Note_on_c, 0, 69, 80
1, 24228, Note_on_c, 0, 69, 0
1, 24240, Note_on_c, 0, 62, 80
1, 24240, Note_on_c, 0, 72, 80
1, 24264, Note_on_c, 0, 72, 0
1, 24288, Note_on_c, 0, 62, 0
1, 24300, Note_on_c, 0, 69, 80
1, 24348, Note_on_c, 0, 69, 0
1, 24360, Note_on_c, 0, 66, 80
1, 24360, Note_on_c, 0, 74, 80
1, 24384, Note_on_c, 0, 74, 0
1, 24390, Note_on_c, 0, 72, 80
1, 24408, Note_on_c, 0, 66, 0
1, 24414, Note_on_c, 0, 72, 0
1, 24420, Note_on_c, 0, 69, 80
1, 24420, Note_on_c, 0, 71, 80
1, 24444, Note_on_c, 0, 71, 0
1, 24450, Note_on_c, 0, 72, 80
1, 24468, Note_on_c, 0, 69, 0
1, 24474, Note_on_c, 0, 72, 0
1, 24480, Note_on_c, 0, 67, 80
1, 24480, Note_on_c, 0, 71, 80
1, 24576, Note_on_c, 0, 71, 0
1, 24600, Note_on_c, 0, 82, 80
1, 24648, Note_on_c, 0, 82, 0
1, 24660, Note_on_c, 0, 83, 80
1, 24672, Note_on_c, 0, 67, 0
1, 24708, Note_on_c, 0, 83, 0
1, 24720, Note_on_c, 0, 81, 80
1, 24768, Note_on_c, 0, 81, 0
1, 24780, Note_on_c, 0, 79, 80
1, 24828, Note_on_c, 0, 79, 0
1, 24840, Note_on_c, 0, 78, 80
1, 24888, Note_on_c, 0, 78, 0
1, 24900, Note_on_c, 0, 76, 80
1, 24948, Note_on_c, 0, 76, 0
1, 24960, Note_on_c, 0, 74, 80
1, 25080, Note_on_c, 0, 54, 80
1, 25152, Note_on_c, 0, 74, 0
1, 25176, Note_on_c, 0, 54, 0
1, 25200, Note_on_c, 0, 76, 80
1, 25200, Note_on_c, 0, 55, 80
1, 25248, Note_on_c, 0, 76, 0
1, 25260, Note_on_c, 0, 78, 80
1, 25284, Note_on_c, 0, 78, 0
1, 25290, Note_on_c, 0, 76, 80
1, 25296, Note_on_c, 0, 55, 0
1, 25314, Note_on_c, 0, 76, 0
1, 25320, Note_on_c, 0, 78, 80
1, 25320, Note_on_c, 0, 57, 80
1, 25344, Note_on_c, 0, 78, 0
1, 25350, Note_on_c, 0, 76, 80
1, 25374, Note_on_c, 0, 76, 0
1, 25380, Note_on_c, 0, 74, 80
1, 25404, Note_on_c, 0, 74, 0
1, 25410, Note_on_c, 0, 76, 80
1, 25416, Note_on_c, 0, 57, 0
1, 25434, Note_on_c, 0, 76, 0
1, 25440, Note_on_c, 0, 78, 80
1, 25440, Note_on_c, 0, 50, 80
1, 25488, Note_on_c, 0, 78, 0
1, 25500, Note_on_c, 0, 74, 80
1, 25536, Note_on_c, 0, 50, 0
1, 25548, Note_on_c, 0, 74, 0
1, 25560, Note_on_c, 0, 54, 80
1, 25560, Note_on_c, 0, 86, 80
1, 25608, Note_on_c, 0, 86, 0
1, 25620, Note_on_c, 0, 81, 80
1, 25656, Note_on_c, 0, 54, 0
1, 25668, Note_on_c, 0, 81, 0
1, 25680, Note_on_c, 0, 83, 80
1, 25680, Note_on_c, 0, 55, 80
1, 25728, Note_on_c, 0, 83, 0
1, 25740, Note_on_c, 0, 78, 80
1, 25788, Note_on_c, 0, 78, 0
1, 25800, Note_on_c, 0, 79, 80
1, 25848, Note_on_c, 0, 79, 0
1, 25860, Note_on_c, 0, 76, 80
1, 25872, Note_on_c, 0, 55, 0
1, 25908, Note_on_c, 0, 76, 0
1, 25920, Note_on_c, 0, 74, 80
1, 26040, Note_on_c, 0, 54, 80
1, 26112, Note_on_c, 0, 74, 0
1, 26136, Note_on_c, 0, 54, 0
1, 26160, Note_on_c, 0, 76, 80
1, 26160, Note_on_c, 0, 55, 80
1, 26208, Note_on_c, 0, 76, 0
1, 26220, Note_on_c, 0, 78, 80
1, 26244, Note_on_c, 0, 78, 0
1, 26250, Note_on_c, 0, 76, 80
1, 26256, Note_on_c, 0, 55, 0
1, 26274, Note_on_c, 0, 76, 0
1, 26280, Note_on_c, 0, 78, 80
1, 26280, Note_on_c, 0, 57, 80
1, 26304, Note_on_c, 0, 78, 0
1, 26310, Note_on_c, 0, 76, 80
1, 26334, Note_on_c, 0, 76, 0
1, 26340, Note_on_c, 0, 78, 80
1, 26364, Note_on_c, 0, 78, 0
1, 26370, Note_on_c, 0, 76, 80
1, 26376, Note_on_c, 0, 57, 0
1, 26394, Note_on_c, 0, 76, 0
1, 26400, Note_on_c, 0, 50, 80
1, 26400, Note_on_c, 0, 74, 80
1, 26448, Note_on_c, 0, 50, 0
1, 26460, Note_on_c, 0, 62, 80
1, 26496, Note_on_c, 0, 74, 0
1, 26508, Note_on_c, 0, 62, 0
1, 26520, Note_on_c, 0, 50, 80
1, 26568, Note_on_c, 0, 50, 0
1, 26580, Note_on_c, 0, 62, 80
1, 26628, Note_on_c, 0, 62, 0
1, 26640, Note_on_c, 0, 73, 80
1, 26640, Note_on_c, 0, 79, 80
1, 26640, Note_on_c, 0, 50, 80
1, 26688, Note_on_c, 0, 50, 0
1, 26700, Note_on_c, 0, 62, 80
1, 26736, Note_on_c, 0, 79, 0
1, 26736, Note_on_c, 0, 73, 0
1, 26748, Note_on_c, 0, 62, 0
1, 26760, Note_on_c, 0, 50, 80
1, 26808, Note_on_c, 0, 50, 0
1, 26820, Note_on_c, 0, 62, 80
1, 26868, Note_on_c, 0, 62, 0
1, 26880, Note_on_c, 0, 50, 80
1, 26880, Note_on_c, 0, 78, 80
1, 26880, Note_on_c, 0, 74, 80
1, 26928, Note_on_c, 0, 50, 0
1, 26940, Note_on_c, 0, 62, 80
1, 26976, Note_on_c, 0, 74, 0
1, 26976, Note_on_c, 0, 78, 0
1, 26988, Note_on_c, 0, 62, 0
1, 27000, Note_on_c, 0, 50, 80
1, 27048, Note_on_c, 0, 50, 0
1, 27060, Note_on_c, 0, 62, 80
1, 27108, Note_on_c, 0, 62, 0
1, 27120, Note_on_c, 0, 50, 80
1, 27120, Note_on_c, 0, 67, 80
1, 27120, Note_on_c, 0, 73, 80
1, 27168, Note_on_c, 0, 50, 0
1, 27180, Note_on_c, 0, 62, 80
1, 27216, Note_on_c, 0, 73, 0
1, 27216, Note_on_c, 0, 67, 0
1, 27228, Note_on_c, 0, 62, 0
1, 27240, Note_on_c, 0, 50, 80
1, 27288, Note_on_c, 0, 50, 0
1, 27300, Note_on_c, 0, 62, 80
1, 27348, Note_on_c, 0, 62, 0
1, 27360, Note_on_c, 0, 66, 80
1, 27360, Note_on_c, 0, 74, 80
1, 27360, Note_on_c, 0, 50, 80
1, 27552, Note_on_c, 0, 50, 0
1, 27552, Note_on_c, 0, 74, 0
1, 27552, Note_on_c, 0, 66, 0
1, 27720, Note_on_c, 0, 62, 80
1, 27816, Note_on_c, 0, 62, 0
1, 27840, Note_on_c, 0, 59, 80
1, 27840, Note_on_c, 0, 55, 80
1, 27840, Note_on_c, 0, 67, 80
1, 27888, Note_on_c, 0, 67, 0
1, 27900, Note_on_c, 0, 69, 80
1, 27916, Note_on_c, 0, 69, 0
1, 27920, Note_on_c, 0, 67, 80
1, 27936, Note_on_c, 0, 67, 0
1, 27940, Note_on_c, 0, 66, 80
1, 27956, Note_on_c, 0, 66, 0
1, 27960, Note_on_c, 0, 67, 80
1, 28008, Note_on_c, 0, 67, 0
1, 28020, Note_on_c, 0, 69, 80
1, 28032, Note_on_c, 0, 55, 0
1, 28032, Note_on_c, 0, 59, 0
1, 28068, Note_on_c, 0, 69, 0
1, 28080, Note_on_c, 0, 71, 80
1, 28128, Note_on_c, 0, 71, 0
1, 28140, Note_on_c, 0, 72, 80
1, 28156, Note_on_c, 0, 72, 0
1, 28160, Note_on_c, 0, 71, 80
1, 28176, Note_on_c, 0, 71, 0
1, 28180, Note_on_c, 0, 69, 80
1, 28196, Note_on_c, 0, 69, 0
1, 28200, Note_on_c, 0, 71, 80
1, 28248, Note_on_c, 0, 71, 0
1, 28260, Note_on_c, 0, 72, 80
1, 28308, Note_on_c, 0, 72, 0
1, 28320, Note_on_c, 0, 74, 80
1, 28416, Note_on_c, 0, 74, 0
1, 28440, Note_on_c, 0, 67, 80
1, 28440, Note_on_c, 0, 74, 80
1, 28440, Note_on_c, 0, 71, 80
1, 28536, Note_on_c, 0, 71, 0
1, 28536, Note_on_c, 0, 74, 0
1, 28536, Note_on_c, 0, 67, 0
1, 28560, Note_on_c, 0, 69, 80
1, 28560, Note_on_c, 0, 66, 80
1, 28560, Note_on_c, 0, 74, 80
1, 28656, Note_on_c, 0, 74, 0
1, 28656, Note_on_c, 0, 66, 0
1, 28656, Note_on_c, 0, 69, 0
1, 28680, Note_on_c, 0, 74, 80
1, 28680, Note_on_c, 0, 69, 80
1, 28680, Note_on_c, 0, 72, 80
1, 28776, Note_on_c, 0, 72, 0
1, 28776, Note_on_c, 0, 69, 0
1, 28776, Note_on_c, 0, 74, 0
1, 28800, Note_on_c, 0, 71, 80
1, 28800, Note_on_c, 0, 67, 80
1, 28800, Note_on_c, 0, 74, 80
1, 28896, Note_on_c, 0, 74, 0
1, 28920, Note_on_c, 0, 76, 80
1, 28968, Note_on_c, 0, 76, 0
1, 28980, Note_on_c, 0, 78, 80
1, 28992, Note_on_c, 0, 67, 0
1, 28992, Note_on_c, 0, 71, 0
1, 29028, Note_on_c, 0, 78, 0
1, 29040, Note_on_c, 0, 81, 80
1, 29088, Note_on_c, 0, 81, 0
1, 29100, Note_on_c, 0, 79, 80
1, 29148, Note_on_c, 0, 79, 0
1, 29160, Note_on_c, 0, 78, 80
1, 29208, Note_on_c, 0, 78, 0
1, 29220, Note_on_c, 0, 76, 80
1, 29268, Note_on_c, 0, 76, 0
1, 29280, Note_on_c, 0, 74, 80
1, 29376, Note_on_c, 0, 74, 0
1, 29400, Note_on_c, 0, 67, 80
1, 29400, Note_on_c, 0, 74, 80
1, 29400, Note_on_c, 0, 71, 80
1, 29496, Note_on_c, 0, 71, 0
1, 29496, Note_on_c, 0, 74, 0
1, 29496, Note_on_c, 0, 67, 0
1, 29520, Note_on_c, 0, 69, 80
1, 29520, Note_on_c, 0, 66, 80
1, 29520, Note_on_c, 0, 74, 80
1, 29616, Note_on_c, 0, 74, 0
1, 29616, Note_on_c, 0, 66, 0
1, 29616, Note_on_c, 0, 69, 0
1, 29640, Note_on_c, 0, 74, 80
1, 29640, Note_on_c, 0, 69, 80
1, 29640, Note_on_c, 0, 72, 80
1, 29736, Note_on_c, 0, 72, 0
1, 29736, Note_on_c, 0, 69, 0
1, 29736, Note_on_c, 0, 74, 0
1, 29760, Note_on_c, 0, 74, 80
1, 29760, Note_on_c, 0, 71, 80
1, 29760, Note_on_c, 0, 67, 80
1, 29856, Note_on_c, 0, 74, 0
1, 29880, Note_on_c, 0, 76, 80
1, 29928, Note_on_c, 0, 76, 0
1, 29940, Note_on_c, 0, 78, 80
1, 29952, Note_on_c, 0, 67, 0
1, 29952, Note_on_c, 0, 71, 0
1, 29988, Note_on_c, 0, 78, 0
1, 30000, Note_on_c, 0, 81, 80
1, 30048, Note_on_c, 0, 81, 0
1, 30060, Note_on_c, 0, 79, 80
1, 30108, Note_on_c, 0, 79, 0
1, 30120, Note_on_c, 0, 78, 80
1, 30120, Note_on_c, 0, 67, 80
1, 30120, Note_on_c, 0, 72, 80
1, 30168, Note_on_c, 0, 78, 0
1, 30180, Note_on_c, 0, 76, 80
1, 30216, Note_on_c, 0, 72, 0
1, 30216, Note_on_c, 0, 67, 0
1, 30228, Note_on_c, 0, 76, 0
1, 30240, Note_on_c, 0, 71, 80
1, 30240, Note_on_c, 0, 67, 80
1, 30240, Note_on_c, 0, 74, 80
1, 30336, Note_on_c, 0, 74, 0
1, 30360, Note_on_c, 0, 79, 80
1, 30408, Note_on_c, 0, 79, 0
1, 30420, Note_on_c, 0, 83, 80
1, 30432, Note_on_c, 0, 67, 0
1, 30432, Note_on_c, 0, 71, 0
1, 30468, Note_on_c, 0, 83, 0
1, 30480, Note_on_c, 0, 81, 80
1, 30528, Note_on_c, 0, 81, 0
1, 30540, Note_on_c, 0, 79, 80
1, 30588, Note_on_c, 0, 79, 0
1, 30600, Note_on_c, 0, 78, 80
1, 30648, Note_on_c, 0, 78, 0
1, 30660, Note_on_c, 0, 76, 80
1, 30708, Note_on_c, 0, 76, 0
1, 30720, Note_on_c, 0, 74, 80
1, 30840, Note_on_c, 0, 71, 80
1, 30912, Note_on_c, 0, 74, 0
1, 30936, Note_on_c, 0, 71, 0
1, 30960, Note_on_c, 0, 69, 80
1, 30960, Note_on_c, 0, 72, 80
1, 31008, Note_on_c, 0, 72, 0
1, 31020, Note_on_c, 0, 74, 80
1, 31044, Note_on_c, 0, 74, 0
1, 31050, Note_on_c, 0, 72, 80
1, 31056, Note_on_c, 0, 69, 0
1, 31074, Note_on_c, 0, 72, 0
1, 31080, Note_on_c, 0, 74, 80
1, 31080, Note_on_c, 0, 62, 80
1, 31104, Note_on_c, 0, 74, 0
1, 31110, Note_on_c, 0, 72, 80
1, 31134, Note_on_c, 0, 72, 0
1, 31140, Note_on_c, 0, 71, 80
1, 31164, Note_on_c, 0, 71, 0
1, 31170, Note_on_c, 0, 72, 80
1, 31176, Note_on_c, 0, 62, 0
1, 31194, Note_on_c, 0, 72, 0
1, 31200, Note_on_c, 0, 67, 80
1, 31200, Note_on_c, 0, 71, 80
1, 31296, Note_on_c, 0, 67, 0
1, 31320, Note_on_c, 0, 62, 80
1, 31392, Note_on_c, 0, 71, 0
1, 31416, Note_on_c, 0, 62, 0
1, 31440, Note_on_c, 0, 55, 80
1, 31536, Note_on_c, 0, 55, 0
1, 31560, Note_on_c, 0, 55, 80
1, 31560, Note_on_c, 0, 43, 80
1, 31560, Note_on_c, 0, 67, 80
1, 31656, Note_on_c, 0, 67, 0
1, 31656, Note_on_c, 0, 43, 0
1, 31656, Note_on_c, 0, 55, 0
1, 31680, Note_on_c, 0, 42, 80
1, 31680, Note_on_c, 0, 54, 80
1, 31680, Note_on_c, 0, 66, 80
1, 31776, Note_on_c, 0, 66, 0
1, 31776, Note_on_c, 0, 54, 0
1, 31776, Note_on_c, 0, 42, 0
1, 31800, Note_on_c, 0, 40, 80
1, 31800, Note_on_c, 0, 52, 80
1, 31800, Note_on_c, 0, 64, 80
1, 31896, Note_on_c, 0, 64, 0
1, 31896, Note_on_c, 0, 52, 0
1, 31896, Note_on_c, 0, 40, 0
1, 31920, Note_on_c, 0, 38, 80
1, 31920, Note_on_c, 0, 50, 80
1, 31920, Note_on_c, 0, 62, 80
1, 32016, Note_on_c, 0, 62, 0
1, 32016, Note_on_c, 0, 50, 0
1, 32016, Note_on_c, 0, 38, 0
1, 32040, Note_on_c, 0, 36, 80
1, 32040, Note_on_c, 0, 48, 80
1, 32040, Note_on_c, 0, 60, 80
1, 32136, Note_on_c, 0, 60, 0
1, 32136, Note_on_c, 0, 48, 0
1, 32136, Note_on_c, 0, 36, 0
1, 32160, Note_on_c, 0, 47, 80
1, 32160, Note_on_c, 0, 59, 80
1, 32160, Note_on_c, 0, 35, 80
1, 32352, Note_on_c, 0, 35, 0
1, 32352, Note_on_c, 0, 59, 0
1, 32352, Note_on_c, 0, 47, 0
1, 32520, Note_on_c, 0, 64, 80
1, 32520, Note_on_c, 0, 52, 80
1, 32552, Note_on_c, 0, 52, 0
1, 32552, Note_on_c, 0, 64, 0
1, 32560, Note_on_c, 0, 54, 80
1, 32560, Note_on_c, 0, 66, 80
1, 32592, Note_on_c, 0, 66, 0
1, 32592, Note_on_c, 0, 54, 0
1, 32600, Note_on_c, 0, 64, 80
1, 32600, Note_on_c, 0, 52, 80
1, 32632, Note_on_c, 0, 52, 0
1, 32632, Note_on_c, 0, 64, 0
1, 32640, Note_on_c, 0, 62, 80
1, 32640, Note_on_c, 0, 50, 80
1, 32736, Note_on_c, 0, 50, 0
1, 32736, Note_on_c, 0, 62, 0
1, 32760, Note_on_c, 0, 48, 80
1, 32760, Note_on_c, 0, 60, 80
1, 32792, Note_on_c, 0, 60, 0
1, 32792, Note_on_c, 0, 48, 0
1, 32800, Note_on_c, 0, 50, 80
1, 32800, Note_on_c, 0, 62, 80
1, 32832, Note_on_c, 0, 62, 0
1, 32832, Note_on_c, 0, 50, 0
1, 32840, Note_on_c, 0, 48, 80
1, 32840, Note_on_c, 0, 60, 80
1, 32872, Note_on_c, 0, 60, 0
1, 32872, Note_on_c, 0, 48, 0
1, 32880, Note_on_c, 0, 59, 80
1, 32880, Note_on_c, 0, 47, 80
1, 32976, Note_on_c, 0, 47, 0
1, 32976, Note_on_c, 0, 59, 0
1, 33000, Note_on_c, 0, 45, 80
1, 33000, Note_on_c, 0, 57, 80
1, 33032, Note_on_c, 0, 57, 0
1, 33032, Note_on_c, 0, 45, 0
1, 33040, Note_on_c, 0, 47, 80
1, 33040, Note_on_c, 0, 59, 80
1, 33072, Note_on_c, 0, 59, 0
1, 33072, Note_on_c, 0, 47, 0
1, 33080, Note_on_c, 0, 57, 80
1, 33080, Note_on_c, 0, 45, 80
1, 33112, Note_on_c, 0, 45, 0
1, 33112, Note_on_c, 0, 57, 0
1, 33120, Note_on_c, 0, 43, 80
1, 33120, Note_on_c, 0, 55, 80
1, 33312, Note_on_c, 0, 55, 0
1, 33312, Note_on_c, 0, 43, 0
1, 33480, Note_on_c, 0, 62, 80
1, 33576, Note_on_c, 0, 62, 0
1, 33600, Note_on_c, 0, 59, 80
1, 33600, Note_on_c, 0, 55, 80
1, 33600, Note_on_c, 0, 67, 80
1, 33648, Note_on_c, 0, 67, 0
1, 33660, Note_on_c, 0, 66, 80
1, 33708, Note_on_c, 0, 66, 0
1, 33720, Note_on_c, 0, 69, 80
1, 33768, Note_on_c, 0, 69, 0
1, 33780, Note_on_c, 0, 67, 80
1, 33792, Note_on_c, 0, 55, 0
1, 33792, Note_on_c, 0, 59, 0
1, 33828, Note_on_c, 0, 67, 0
1, 33840, Note_on_c, 0, 71, 80
1, 33888, Note_on_c, 0, 71, 0
1, 33900, Note_on_c, 0, 69, 80
1, 33948, Note_on_c, 0, 69, 0
1, 33960, Note_on_c, 0, 72, 80
1, 34008, Note_on_c, 0, 72, 0
1, 34020, Note_on_c, 0, 71, 80
1, 34068, Note_on_c, 0, 71, 0
1, 34080, Note_on_c, 0, 74, 80
1, 34176, Note_on_c, 0, 74, 0
1, 34200, Note_on_c, 0, 71, 80
1, 34200, Note_on_c, 0, 67, 80
1, 34200, Note_on_c, 0, 74, 80
1, 34296, Note_on_c, 0, 74, 0
1, 34296, Note_on_c, 0, 67, 0
1, 34296, Note_on_c, 0, 71, 0
1, 34320, Note_on_c, 0, 69, 80
1, 34320, Note_on_c, 0, 66, 80
1, 34320, Note_on_c, 0, 74, 80
1, 34416, Note_on_c, 0, 74, 0
1, 34416, Note_on_c, 0, 66, 0
1, 34416, Note_on_c, 0, 69, 0
1, 34440, Note_on_c, 0, 69, 80
1, 34440, Note_on_c, 0, 72, 80
1, 34440, Note_on_c, 0, 74, 80
1, 34536, Note_on_c, 0, 74, 0
1, 34536, Note_on_c, 0, 72, 0
1, 34536, Note_on_c, 0, 69, 0
1, 34560, Note_on_c, 0, 71, 80
1, 34560, Note_on_c, 0, 67, 80
1, 34560, Note_on_c, 0, 74, 80
1, 34656, Note_on_c, 0, 74, 0
1, 34680, Note_on_c, 0, 76, 80
1, 34728, Note_on_c, 0, 76, 0
1, 34740, Note_on_c, 0, 78, 80
1, 34752, Note_on_c, 0, 67, 0
1, 34752, Note_on_c, 0, 71, 0
1, 34788, Note_on_c, 0, 78, 0
1, 34800, Note_on_c, 0, 81, 80
1, 34848, Note_on_c, 0, 81, 0
1, 34860, Note_on_c, 0, 79, 80
1, 34908, Note_on_c, 0, 79, 0
1, 34920, Note_on_c, 0, 78, 80
1, 34968, Note_on_c, 0, 78, 0
1, 34980, Note_on_c, 0, 76, 80
1, 35028, Note_on_c, 0, 76, 0
1, 35040, Note_on_c, 0, 74, 80
1, 35136, Note_on_c, 0, 74, 0
1, 35160, Note_on_c, 0, 71, 80
1, 35160, Note_on_c, 0, 67, 80
1, 35160, Note_on_c, 0, 74, 80
1, 35256, Note_on_c, 0, 74, 0
1, 35256, Note_on_c, 0, 67, 0
1, 35256, Note_on_c, 0, 71, 0
1, 35280, Note_on_c, 0, 69, 80
1, 35280, Note_on_c, 0, 66, 80
1, 35280, Note_on_c, 0, 74, 80
1, 35376, Note_on_c, 0, 74, 0
1, 35376, Note_on_c, 0, 66, 0
1, 35376, Note_on_c, 0, 69, 0
1, 35400, Note_on_c, 0, 69, 80
1, 35400, Note_on_c, 0, 72, 80
1, 35400, Note_on_c, 0, 74, 80
1, 35496, Note_on_c, 0, 74, 0
1, 35496, Note_on_c, 0, 72, 0
1, 35496, Note_on_c, 0, 69, 0
1, 35520, Note_on_c, 0, 71, 80
1, 35520, Note_on_c, 0, 67, 80
1, 35520, Note_on_c, 0, 74, 80
1, 35616, Note_on_c, 0, 74, 0
1, 35640, Note_on_c, 0, 79, 80
1, 35736, Note_on_c, 0, 79, 0
1, 35760, Note_on_c, 0, 77, 80
1, 35856, Note_on_c, 0, 77, 0
1, 35880, Note_on_c, 0, 74, 80
1, 35976, Note_on_c, 0, 74, 0
1, 36000, Note_on_c, 0, 75, 80
1, 36096, Note_on_c, 0, 67, 0
1, 36096, Note_on_c, 0, 71, 0
1, 36120, Note_on_c, 0, 67, 80
1, 36120, Note_on_c, 0, 72, 80
1, 36192, Note_on_c, 0, 75, 0
1, 36216, Note_on_c, 0, 72, 0
1, 36216, Note_on_c, 0, 67, 0
1, 36240, Note_on_c, 0, 72, 80
1, 36240, Note_on_c, 0, 67, 80
1, 36240, Note_on_c, 0, 76, 80
1, 36336, Note_on_c, 0, 67, 0
1, 36336, Note_on_c, 0, 72, 0
1, 36360, Note_on_c, 0, 67, 80
1, 36360, Note_on_c, 0, 72, 80
1, 36456, Note_on_c, 0, 72, 0
1, 36456, Note_on_c, 0, 67, 0
1, 36480, Note_on_c, 0, 72, 80
1, 36480, Note_on_c, 0, 67, 80
1, 36576, Note_on_c, 0, 76, 0
1, 36600, Note_on_c, 0, 79, 80
1, 36672, Note_on_c, 0, 67, 0
1, 36672, Note_on_c, 0, 72, 0
1, 36696, Note_on_c, 0, 79, 0
1, 36720, Note_on_c, 0, 76, 80
1, 36816, Note_on_c, 0, 76, 0
1, 36840, Note_on_c, 0, 72, 80
1, 36936, Note_on_c, 0, 72, 0
1, 36960, Note_on_c, 0, 73, 80
1, 37080, Note_on_c, 0, 67, 80
1, 37080, Note_on_c, 0, 71, 80
1, 37152, Note_on_c, 0, 73, 0
1, 37176, Note_on_c, 0, 71, 0
1, 37176, Note_on_c, 0, 67, 0
1, 37200, Note_on_c, 0, 71, 80
1, 37200, Note_on_c, 0, 67, 80
1, 37200, Note_on_c, 0, 74, 80
1, 37296, Note_on_c, 0, 67, 0
1, 37296, Note_on_c, 0, 71, 0
1, 37320, Note_on_c, 0, 67, 80
1, 37320, Note_on_c, 0, 71, 80
1, 37392, Note_on_c, 0, 74, 0
1, 37416, Note_on_c, 0, 71, 0
1, 37416, Note_on_c, 0, 67, 0
1, 37440, Note_on_c, 0, 71, 80
1, 37440, Note_on_c, 0, 67, 80
1, 37440, Note_on_c, 0, 74, 80
1, 37536, Note_on_c, 0, 74, 0
1, 37560, Note_on_c, 0, 83, 80
1, 37632, Note_on_c, 0, 67, 0
1, 37632, Note_on_c, 0, 71, 0
1, 37656, Note_on_c, 0, 83, 0
1, 37680, Note_on_c, 0, 81, 80
1, 37704, Note_on_c, 0, 81, 0
1, 37710, Note_on_c, 0, 79, 80
1, 37782, Note_on_c, 0, 79, 0
1, 37800, Note_on_c, 0, 78, 80
1, 37824, Note_on_c, 0, 78, 0
1, 37830, Note_on_c, 0, 76, 80
1, 37902, Note_on_c, 0, 76, 0
1, 37920, Note_on_c, 0, 74, 80
1, 38040, Note_on_c, 0, 69, 80
1, 38112, Note_on_c, 0, 74, 0
1, 38136, Note_on_c, 0, 69, 0
1, 38160, Note_on_c, 0, 72, 80
1, 38160, Note_on_c, 0, 66, 80
1, 38256, Note_on_c, 0, 66, 0
1, 38256, Note_on_c, 0, 72, 0
1, 38280, Note_on_c, 0, 67, 80
1, 38280, Note_on_c, 0, 71, 80
1, 38376, Note_on_c, 0, 71, 0
1, 38376, Note_on_c, 0, 67, 0
1, 38400, Note_on_c, 0, 60, 80
1, 38400, Note_on_c, 0, 69, 80
1, 38448, Note_on_c, 0, 69, 0
1, 38460, Note_on_c, 0, 67, 80
1, 38508, Note_on_c, 0, 67, 0
1, 38520, Note_on_c, 0, 75, 80
1, 38568, Note_on_c, 0, 75, 0
1, 38580, Note_on_c, 0, 76, 80
1, 38628, Note_on_c, 0, 76, 0
1, 38640, Note_on_c, 0, 74, 80
1, 38688, Note_on_c, 0, 74, 0
1, 38688, Note_on_c, 0, 60, 0
1, 38700, Note_on_c, 0, 72, 80
1, 38748, Note_on_c, 0, 72, 0
1, 38760, Note_on_c, 0, 61, 80
1, 38760, Note_on_c, 0, 71, 80
1, 38808, Note_on_c, 0, 71, 0
1, 38820, Note_on_c, 0, 69, 80
1, 38856, Note_on_c, 0, 61, 0
1, 38868, Note_on_c, 0, 69, 0
1, 38880, Note_on_c, 0, 62, 80
1, 38880, Note_on_c, 0, 67, 80
1, 38976, Note_on_c, 0, 62, 0
1, 39000, Note_on_c, 0, 57, 80
1, 39072, Note_on_c, 0, 67, 0
1, 39096, Note_on_c, 0, 57, 0
1, 39120, Note_on_c, 0, 66, 80
1, 39120, Note_on_c, 0, 50, 80
1, 39168, Note_on_c, 0, 66, 0
1, 39216, Note_on_c, 0, 50, 0
1, 39240, Note_on_c, 0, 69, 80
1, 39336, Note_on_c, 0, 69, 0
1, 39360, Note_on_c, 0, 74, 80
1, 39360, Note_on_c, 0, 50, 80
1, 39408, Note_on_c, 0, 50, 0
1, 39420, Note_on_c, 0, 57, 80
1, 39468, Note_on_c, 0, 57, 0
1, 39480, Note_on_c, 0, 54, 80
1, 39528, Note_on_c, 0, 54, 0
1, 39540, Note_on_c, 0, 57, 80
1, 39552, Note_on_c, 0, 74, 0
1, 39588, Note_on_c, 0, 57, 0
1, 39600, Note_on_c, 0, 79, 80
1, 39600, Note_on_c, 0, 50, 80
1, 39648, Note_on_c, 0, 50, 0
1, 39648, Note_on_c, 0, 79, 0
1, 39660, Note_on_c, 0, 78, 80
1, 39660, Note_on_c, 0, 57, 80
1, 39708, Note_on_c, 0, 57, 0
1, 39708, Note_on_c, 0, 78, 0
1, 39720, Note_on_c, 0, 76, 80
1, 39720, Note_on_c, 0, 54, 80
1, 39768, Note_on_c, 0, 54, 0
1, 39768, Note_on_c, 0, 76, 0
1, 39780, Note_on_c, 0, 57, 80
1, 39780, Note_on_c, 0, 74, 80
1, 39828, Note_on_c, 0, 74, 0
1, 39828, Note_on_c, 0, 57, 0
1, 39840, Note_on_c, 0, 74, 80
1, 39840, Note_on_c, 0, 52, 80
1, 39888, Note_on_c, 0, 52, 0
1, 39900, Note_on_c, 0, 57, 80
1, 39936, Note_on_c, 0, 74, 0
1, 39948, Note_on_c, 0, 57, 0
1, 39960, Note_on_c, 0, 73, 80
1, 39960, Note_on_c, 0, 55, 80
1, 40008, Note_on_c, 0, 55, 0
1, 40020, Note_on_c, 0, 57, 80
1, 40056, Note_on_c, 0, 73, 0
1, 40068, Note_on_c, 0, 57, 0
1, 40080, Note_on_c, 0, 52, 80
1, 40128, Note_on_c, 0, 52, 0
1, 40140, Note_on_c, 0, 57, 80
1, 40188, Note_on_c, 0, 57, 0
1, 40200, Note_on_c, 0, 55, 80
1, 40200, Note_on_c, 0, 69, 80
1, 40248, Note_on_c, 0, 55, 0
1, 40260, Note_on_c, 0, 57, 80
1, 40296, Note_on_c, 0, 69, 0
1, 40308, Note_on_c, 0, 57, 0
1, 40320, Note_on_c, 0, 76, 80
1, 40320, Note_on_c, 0, 49, 80
1, 40368, Note_on_c, 0, 49, 0
1, 40380, Note_on_c, 0, 57, 80
1, 40428, Note_on_c, 0, 57, 0
1, 40440, Note_on_c, 0, 52, 80
1, 40488, Note_on_c, 0, 52, 0
1, 40500, Note_on_c, 0, 57, 80
1, 40512, Note_on_c, 0, 76, 0
1, 40548, Note_on_c, 0, 57, 0
1, 40560, Note_on_c, 0, 81, 80
1, 40560, Note_on_c, 0, 49, 80
1, 40608, Note_on_c, 0, 49, 0
1, 40608, Note_on_c, 0, 81, 0
1, 40620, Note_on_c, 0, 79, 80
1, 40620, Note_on_c, 0, 57, 80
1, 40668, Note_on_c, 0, 57, 0
1, 40668, Note_on_c, 0, 79, 0
1, 40680, Note_on_c, 0, 78, 80
1, 40680, Note_on_c, 0, 52, 80
1, 40728, Note_on_c, 0, 52, 0
1, 40728, Note_on_c, 0, 78, 0
1, 40740, Note_on_c, 0, 57, 80
1, 40740, Note_on_c, 0, 76, 80
1, 40788, Note_on_c, 0, 76, 0
1, 40788, Note_on_c, 0, 57, 0
1, 40800, Note_on_c, 0, 76, 80
1, 40800, Note_on_c, 0, 50, 80
1, 40848, Note_on_c, 0, 50, 0
1, 40860, Note_on_c, 0, 57, 80
1, 40896, Note_on_c, 0, 76, 0
1, 40908, Note_on_c, 0, 57, 0
1, 40920, Note_on_c, 0, 78, 80
1, 40920, Note_on_c, 0, 54, 80
1, 40968, Note_on_c, 0, 54, 0
1, 40980, Note_on_c, 0, 57, 80
1, 41016, Note_on_c, 0, 78, 0
1, 41028, Note_on_c, 0, 57, 0
1, 41040, Note_on_c, 0, 50, 80
1, 41088, Note_on_c, 0, 50, 0
1, 41100, Note_on_c, 0, 57, 80
1, 41148, Note_on_c, 0, 57, 0
1, 41160, Note_on_c, 0, 54, 80
1, 41160, Note_on_c, 0, 69, 80
1, 41208, Note_on_c, 0, 54, 0
1, 41220, Note_on_c, 0, 57, 80
1, 41256, Note_on_c, 0, 69, 0
1, 41268, Note_on_c, 0, 57, 0
1, 41280, Note_on_c, 0, 69, 80
1, 41280, Note_on_c, 0, 54, 80
1, 41328, Note_on_c, 0, 69, 0
1, 41340, Note_on_c, 0, 81, 80
1, 41388, Note_on_c, 0, 81, 0
1, 41400, Note_on_c, 0, 79, 80
1, 41448, Note_on_c, 0, 79, 0
1, 41460, Note_on_c, 0, 78, 80
1, 41472, Note_on_c, 0, 54, 0
1, 41508, Note_on_c, 0, 78, 0
1, 41520, Note_on_c, 0, 76, 80
1, 41568, Note_on_c, 0, 76, 0
1, 41580, Note_on_c, 0, 74, 80
1, 41628, Note_on_c, 0, 74, 0
1, 41640, Note_on_c, 0, 73, 80
1, 41688, Note_on_c, 0, 73, 0
1, 41700, Note_on_c, 0, 74, 80
1, 41748, Note_on_c, 0, 74, 0
1, 41760, Note_on_c, 0, 55, 80
1, 41760, Note_on_c, 0, 71, 80
1, 41784, Note_on_c, 0, 71, 0
1, 41808, Note_on_c, 0, 55, 0
1, 41820, Note_on_c, 0, 67, 80
1, 41868, Note_on_c, 0, 67, 0
1, 41880, Note_on_c, 0, 54, 80
1, 41880, Note_on_c, 0, 75, 80
1, 41904, Note_on_c, 0, 75, 0
1, 41928, Note_on_c, 0, 54, 0
1, 41940, Note_on_c, 0, 66, 80
1, 41988, Note_on_c, 0, 66, 0
1, 42000, Note_on_c, 0, 52, 80
1, 42000, Note_on_c, 0, 76, 80
1, 42024, Note_on_c, 0, 76, 0
1, 42048, Note_on_c, 0, 52, 0
1, 42060, Note_on_c, 0, 64, 80
1, 42108, Note_on_c, 0, 64, 0
1, 42120, Note_on_c, 0, 51, 80
1, 42120, Note_on_c, 0, 78, 80
1, 42144, Note_on_c, 0, 78, 0
1, 42168, Note_on_c, 0, 51, 0
1, 42180, Note_on_c, 0, 63, 80
1, 42228, Note_on_c, 0, 63, 0
1, 42240, Note_on_c, 0, 52, 80
1, 42300, Note_on_c, 0, 79, 80
1, 42348, Note_on_c, 0, 79, 0
1, 42360, Note_on_c, 0, 78, 80
1, 42408, Note_on_c, 0, 78, 0
1, 42420, Note_on_c, 0, 76, 80
1, 42432, Note_on_c, 0, 52, 0
1, 42468, Note_on_c, 0, 76, 0
1, 42480, Note_on_c, 0, 74, 80
1, 42528, Note_on_c, 0, 74, 0
1, 42540, Note_on_c, 0, 73, 80
1, 42588, Note_on_c, 0, 73, 0
1, 42600, Note_on_c, 0, 71, 80
1, 42648, Note_on_c, 0, 71, 0
1, 42660, Note_on_c, 0, 73, 80
1, 42708, Note_on_c, 0, 73, 0
1, 42720, Note_on_c, 0, 54, 80
1, 42720, Note_on_c, 0, 69, 80
1, 42744, Note_on_c, 0, 69, 0
1, 42768, Note_on_c, 0, 54, 0
1, 42780, Note_on_c, 0, 66, 80
1, 42828, Note_on_c, 0, 66, 0
1, 42840, Note_on_c, 0, 52, 80
1, 42840, Note_on_c, 0, 73, 80
1, 42864, Note_on_c, 0, 73, 0
1, 42888, Note_on_c, 0, 52, 0
1, 42900, Note_on_c, 0, 64, 80
1, 42948, Note_on_c, 0, 64, 0
1, 42960, Note_on_c, 0, 50, 80
1, 42960, Note_on_c, 0, 74, 80
1, 42984, Note_on_c, 0, 74, 0
1, 43008, Note_on_c, 0, 50, 0
1, 43020, Note_on_c, 0, 62, 80
1, 43068, Note_on_c, 0, 62, 0
1, 43080, Note_on_c, 0, 49, 80
1, 43080, Note_on_c, 0, 76, 80
1, 43104, Note_on_c, 0, 76, 0
1, 43128, Note_on_c, 0, 49, 0
1, 43140, Note_on_c, 0, 61, 80
1, 43188, Note_on_c, 0, 61, 0
1, 43200, Note_on_c, 0, 50, 80
1, 43260, Note_on_c, 0, 78, 80
1, 43308, Note_on_c, 0, 78, 0
1, 43320, Note_on_c, 0, 76, 80
1, 43368, Note_on_c, 0, 76, 0
1, 43380, Note_on_c, 0, 74, 80
1, 43392, Note_on_c, 0, 50, 0
1, 43428, Note_on_c, 0, 74, 0
1, 43440, Note_on_c, 0, 73, 80
1, 43488, Note_on_c, 0, 73, 0
1, 43500, Note_on_c, 0, 71, 80
1, 43548, Note_on_c, 0, 71, 0
1, 43560, Note_on_c, 0, 69, 80
1, 43608, Note_on_c, 0, 69, 0
1, 43620, Note_on_c, 0, 71, 80
1, 43668, Note_on_c, 0, 71, 0
1, 43680, Note_on_c, 0, 52, 80
1, 43680, Note_on_c, 0, 67, 80
1, 43704, Note_on_c, 0, 67, 0
1, 43728, Note_on_c, 0, 52, 0
1, 43740, Note_on_c, 0, 64, 80
1, 43788, Note_on_c, 0, 64, 0
1, 43800, Note_on_c, 0, 50, 80
1, 43800, Note_on_c, 0, 71, 80
1, 43824, Note_on_c, 0, 71, 0
1, 43848, Note_on_c, 0, 50, 0
1, 43860, Note_on_c, 0, 62, 80
1, 43908, Note_on_c, 0, 62, 0
1, 43920, Note_on_c, 0, 49, 80
1, 43920, Note_on_c, 0, 73, 80
1, 43944, Note_on_c, 0, 73, 0
1, 43968, Note_on_c, 0, 49, 0
1, 43980, Note_on_c, 0, 61, 80
1, 44028, Note_on_c, 0, 61, 0
1, 44040, Note_on_c, 0, 47, 80
1, 44040, Note_on_c, 0, 74, 80
1, 44064, Note_on_c, 0, 74, 0
1, 44088, Note_on_c, 0, 47, 0
1, 44100, Note_on_c, 0, 59, 80
1, 44148, Note_on_c, 0, 59, 0
1, 44160, Note_on_c, 0, 45, 80
1, 44220, Note_on_c, 0, 76, 80
1, 44268, Note_on_c, 0, 76, 0
1, 44280, Note_on_c, 0, 74, 80
1, 44328, Note_on_c, 0, 74, 0
1, 44340, Note_on_c, 0, 73, 80
1, 44352, Note_on_c, 0, 45, 0
1, 44388, Note_on_c, 0, 73, 0
1, 44400, Note_on_c, 0, 71, 80
1, 44448, Note_on_c, 0, 71, 0
1, 44460, Note_on_c, 0, 69, 80
1, 44508, Note_on_c, 0, 69, 0
1, 44520, Note_on_c, 0, 49, 80
1, 44520, Note_on_c, 0, 71, 80
1, 44568, Note_on_c, 0, 71, 0
1, 44580, Note_on_c, 0, 67, 80
1, 44616, Note_on_c, 0, 49, 0
1, 44628, Note_on_c, 0, 67, 0
1, 44640, Note_on_c, 0, 66, 80
1, 44640, Note_on_c, 0, 50, 80
1, 44688, Note_on_c, 0, 50, 0
1, 44700, Note_on_c, 0, 57, 80
1, 44736, Note_on_c, 0, 66, 0
1, 44748, Note_on_c, 0, 57, 0
1, 44760, Note_on_c, 0, 54, 80
1, 44760, Note_on_c, 0, 74, 80
1, 44808, Note_on_c, 0, 54, 0
1, 44820, Note_on_c, 0, 57, 80
1, 44856, Note_on_c, 0, 74, 0
1, 44868, Note_on_c, 0, 57, 0
1, 44880, Note_on_c, 0, 73, 80
1, 44880, Note_on_c, 0, 52, 80
1, 44928, Note_on_c, 0, 52, 0
1, 44940, Note_on_c, 0, 57, 80
1, 44976, Note_on_c, 0, 73, 0
1, 44988, Note_on_c, 0, 57, 0
1, 45000, Note_on_c, 0, 81, 80
1, 45000, Note_on_c, 0, 55, 80
1, 45048, Note_on_c, 0, 55, 0
1, 45060, Note_on_c, 0, 57, 80
1, 45096, Note_on_c, 0, 81, 0
1, 45108, Note_on_c, 0, 57, 0
1, 45120, Note_on_c, 0, 78, 80
1, 45120, Note_on_c, 0, 50, 80
1, 45168, Note_on_c, 0, 50, 0
1, 45180, Note_on_c, 0, 57, 80
1, 45216, Note_on_c, 0, 78, 0
1, 45228, Note_on_c, 0, 57, 0
1, 45240, Note_on_c, 0, 54, 80
1, 45240, Note_on_c, 0, 74, 80
1, 45288, Note_on_c, 0, 54, 0
1, 45300, Note_on_c, 0, 57, 80
1, 45336, Note_on_c, 0, 74, 0
1, 45348, Note_on_c, 0, 57, 0
1, 45360, Note_on_c, 0, 73, 80
1, 45360, Note_on_c, 0, 52, 80
1, 45408, Note_on_c, 0, 52, 0
1, 45420, Note_on_c, 0, 57, 80
1, 45456, Note_on_c, 0, 73, 0
1, 45468, Note_on_c, 0, 57, 0
1, 45480, Note_on_c, 0, 67, 80
1, 45480, Note_on_c, 0, 55, 80
1, 45528, Note_on_c, 0, 55, 0
1, 45540, Note_on_c, 0, 57, 80
1, 45576, Note_on_c, 0, 67, 0
1, 45588, Note_on_c, 0, 57, 0
1, 45600, Note_on_c, 0, 66, 80
1, 45600, Note_on_c, 0, 50, 80
1, 45648, Note_on_c, 0, 50, 0
1, 45660, Note_on_c, 0, 57, 80
1, 45696, Note_on_c, 0, 66, 0
1, 45708, Note_on_c, 0, 57, 0
1, 45720, Note_on_c, 0, 54, 80
1, 45720, Note_on_c, 0, 74, 80
1, 45768, Note_on_c, 0, 54, 0
1, 45780, Note_on_c, 0, 57, 80
1, 45816, Note_on_c, 0, 74, 0
1, 45828, Note_on_c, 0, 57, 0
1, 45840, Note_on_c, 0, 73, 80
1, 45840, Note_on_c, 0, 52, 80
1, 45864, Note_on_c, 0, 73, 0
1, 45888, Note_on_c, 0, 52, 0
1, 45900, Note_on_c, 0, 57, 80
1, 45948, Note_on_c, 0, 57, 0
1, 45960, Note_on_c, 0, 55, 80
1, 45960, Note_on_c, 0, 81, 80
1, 45984, Note_on_c, 0, 81, 0
1, 46008, Note_on_c, 0, 55, 0
1, 46020, Note_on_c, 0, 57, 80
1, 46068, Note_on_c, 0, 57, 0
1, 46080, Note_on_c, 0, 78, 80
1, 46080, Note_on_c, 0, 50, 80
1, 46104, Note_on_c, 0, 78, 0
1, 46128, Note_on_c, 0, 50, 0
1, 46140, Note_on_c, 0, 57, 80
1, 46188, Note_on_c, 0, 57, 0
1, 46200, Note_on_c, 0, 54, 80
1, 46200, Note_on_c, 0, 74, 80
1, 46224, Note_on_c, 0, 74, 0
1, 46248, Note_on_c, 0, 54, 0
1, 46260, Note_on_c, 0, 57, 80
1, 46308, Note_on_c, 0, 57, 0
1, 46320, Note_on_c, 0, 73, 80
1, 46320, Note_on_c, 0, 52, 80
1, 46344, Note_on_c, 0, 73, 0
1, 46368, Note_on_c, 0, 52, 0
1, 46380, Note_on_c, 0, 57, 80
1, 46428, Note_on_c, 0, 57, 0
1, 46440, Note_on_c, 0, 67, 80
1, 46440, Note_on_c, 0, 55, 80
1, 46464, Note_on_c, 0, 67, 0
1, 46488, Note_on_c, 0, 55, 0
1, 46500, Note_on_c, 0, 57, 80
1, 46548, Note_on_c, 0, 57, 0
1, 46560, Note_on_c, 0, 66, 80
1, 46560, Note_on_c, 0, 50, 80
1, 46608, Note_on_c, 0, 50, 0
1, 46620, Note_on_c, 0, 57, 80
1, 46656, Note_on_c, 0, 66, 0
1, 46668, Note_on_c, 0, 57, 0
1, 46680, Note_on_c, 0, 74, 80
1, 46680, Note_on_c, 0, 54, 80
1, 46728, Note_on_c, 0, 54, 0
1, 46740, Note_on_c, 0, 57, 80
1, 46776, Note_on_c, 0, 74, 0
1, 46788, Note_on_c, 0, 57, 0
1, 46800, Note_on_c, 0, 72, 80
1, 46800, Note_on_c, 0, 54, 80
1, 46848, Note_on_c, 0, 54, 0
1, 46860, Note_on_c, 0, 62, 80
1, 46896, Note_on_c, 0, 72, 0
1, 46908, Note_on_c, 0, 62, 0
1, 46920, Note_on_c, 0, 57, 80
1, 46920, Note_on_c, 0, 69, 80
1, 46968, Note_on_c, 0, 57, 0
1, 46980, Note_on_c, 0, 62, 80
1, 47016, Note_on_c, 0, 69, 0
1, 47028, Note_on_c, 0, 62, 0
1, 47040, Note_on_c, 0, 70, 80
1, 47040, Note_on_c, 0, 50, 80
1, 47088, Note_on_c, 0, 50, 0
1, 47100, Note_on_c, 0, 57, 80
1, 47148, Note_on_c, 0, 57, 0
1, 47160, Note_on_c, 0, 54, 80
1, 47208, Note_on_c, 0, 54, 0
1, 47220, Note_on_c, 0, 57, 80
1, 47232, Note_on_c, 0, 70, 0
1, 47268, Note_on_c, 0, 57, 0
1, 47280, Note_on_c, 0, 55, 80
1, 47280, Note_on_c, 0, 71, 80
1, 47376, Note_on_c, 0, 71, 0
1, 47376, Note_on_c, 0, 55, 0
1, 47400, Note_on_c, 0, 83, 80
1, 47448, Note_on_c, 0, 83, 0
1, 47460, Note_on_c, 0, 79, 80
1, 47508, Note_on_c, 0, 79, 0
1, 47520, Note_on_c, 0, 81, 80
1, 47568, Note_on_c, 0, 81, 0
1, 47580, Note_on_c, 0, 78, 80
1, 47628, Note_on_c, 0, 78, 0
1, 47640, Note_on_c, 0, 79, 80
1, 47688, Note_on_c, 0, 79, 0
1, 47700, Note_on_c, 0, 76, 80
1, 47748, Note_on_c, 0, 76, 0
1, 47760, Note_on_c, 0, 78, 80
1, 47808, Note_on_c, 0, 78, 0
1, 47820, Note_on_c, 0, 74, 80
1, 47868, Note_on_c, 0, 74, 0
1, 47880, Note_on_c, 0, 76, 80
1, 47880, Note_on_c, 0, 57, 80
1, 47928, Note_on_c, 0, 76, 0
1, 47940, Note_on_c, 0, 73, 80
1, 47976, Note_on_c, 0, 57, 0
1, 47988, Note_on_c, 0, 73, 0
1, 48000, Note_on_c, 0, 59, 80
1, 48000, Note_on_c, 0, 74, 80
1, 48024, Note_on_c, 0, 74, 0
1, 48048, Note_on_c, 0, 59, 0
1, 48060, Note_on_c, 0, 68, 80
1, 48108, Note_on_c, 0, 68, 0
1, 48120, Note_on_c, 0, 62, 80
1, 48120, Note_on_c, 0, 86, 80
1, 48144, Note_on_c, 0, 86, 0
1, 48168, Note_on_c, 0, 62, 0
1, 48180, Note_on_c, 0, 68, 80
1, 48228, Note_on_c, 0, 68, 0
1, 48240, Note_on_c, 0, 59, 80
1, 48240, Note_on_c, 0, 86, 80
1, 48264, Note_on_c, 0, 86, 0
1, 48288, Note_on_c, 0, 59, 0
1, 48300, Note_on_c, 0, 68, 80
1, 48348, Note_on_c, 0, 68, 0
1, 48360, Note_on_c, 0, 62, 80
1, 48360, Note_on_c, 0, 88, 80
1, 48384, Note_on_c, 0, 88, 0
1, 48390, Note_on_c, 0, 86, 80
1, 48408, Note_on_c, 0, 62, 0
1, 48414, Note_on_c, 0, 86, 0
1, 48420, Note_on_c, 0, 85, 80
1, 48420, Note_on_c, 0, 68, 80
1, 48444, Note_on_c, 0, 85, 0
1, 48450, Note_on_c, 0, 86, 80
1, 48468, Note_on_c, 0, 68, 0
1, 48474, Note_on_c, 0, 86, 0
1, 48480, Note_on_c, 0, 85, 80
1, 48480, Note_on_c, 0, 57, 80
1, 48528, Note_on_c, 0, 57, 0
1, 48540, Note_on_c, 0, 69, 80
1, 48576, Note_on_c, 0, 85, 0
1, 48588, Note_on_c, 0, 69, 0
1, 48600, Note_on_c, 0, 61, 80
1, 48600, Note_on_c, 0, 79, 80
1, 48624, Note_on_c, 0, 79, 0
1, 48648, Note_on_c, 0, 61, 0
1, 48660, Note_on_c, 0, 69, 80
1, 48708, Note_on_c, 0, 69, 0
1, 48720, Note_on_c, 0, 57, 80
1, 48720, Note_on_c, 0, 79, 80
1, 48744, Note_on_c, 0, 79, 0
1, 48768, Note_on_c, 0, 57, 0
1, 48780, Note_on_c, 0, 69, 80
1, 48828, Note_on_c, 0, 69, 0
1, 48840, Note_on_c, 0, 61, 80
1, 48840, Note_on_c, 0, 81, 80
1, 48864, Note_on_c, 0, 81, 0
1, 48870, Note_on_c, 0, 79, 80
1, 48888, Note_on_c, 0, 61, 0
1, 48894, Note_on_c, 0, 79, 0
1, 48900, Note_on_c, 0, 78, 80
1, 48900, Note_on_c, 0, 69, 80
1, 48924, Note_on_c, 0, 78, 0
1, 48930, Note_on_c, 0, 79, 80
1, 48948, Note_on_c, 0, 69, 0
1, 48954, Note_on_c, 0, 79, 0
1, 48960, Note_on_c, 0, 78, 80
1, 48960, Note_on_c, 0, 62, 80
1, 49008, Note_on_c, 0, 62, 0
1, 49020, Note_on_c, 0, 69, 80
1, 49056, Note_on_c, 0, 78, 0
1, 49068, Note_on_c, 0, 69, 0
1, 49080, Note_on_c, 0, 66, 80
1, 49080, Note_on_c, 0, 72, 80
1, 49104, Note_on_c, 0, 72, 0
1, 49128, Note_on_c, 0, 66, 0
1, 49140, Note_on_c, 0, 69, 80
1, 49188, Note_on_c, 0, 69, 0
1, 49200, Note_on_c, 0, 62, 80
1, 49200, Note_on_c, 0, 72, 80
1, 49224, Note_on_c, 0, 72, 0
1, 49248, Note_on_c, 0, 62, 0
1, 49260, Note_on_c, 0, 69, 80
1, 49308, Note_on_c, 0, 69, 0
1, 49320, Note_on_c, 0, 66, 80
1, 49320, Note_on_c, 0, 74, 80
1, 49344, Note_on_c, 0, 74, 0
1, 49350, Note_on_c, 0, 72, 80
1, 49368, Note_on_c, 0, 66, 0
1, 49374, Note_on_c, 0, 72, 0
1, 49380, Note_on_c, 0, 71, 80
1, 49380, Note_on_c, 0, 69, 80
1, 49404, Note_on_c, 0, 71, 0
1, 49410, Note_on_c, 0, 72, 80
1, 49428, Note_on_c, 0, 69, 0
1, 49434, Note_on_c, 0, 72, 0
1, 49440, Note_on_c, 0, 67, 80
1, 49440, Note_on_c, 0, 71, 80
1, 49536, Note_on_c, 0, 71, 0
1, 49560, Note_on_c, 0, 82, 80
1, 49608, Note_on_c, 0, 82, 0
1, 49620, Note_on_c, 0, 83, 80
1, 49632, Note_on_c, 0, 67, 0
1, 49668, Note_on_c, 0, 83, 0
1, 49680, Note_on_c, 0, 81, 80
1, 49728, Note_on_c, 0, 81, 0
1, 49740, Note_on_c, 0, 79, 80
1, 49788, Note_on_c, 0, 79, 0
1, 49800, Note_on_c, 0, 78, 80
1, 49848, Note_on_c, 0, 78, 0
1, 49860, Note_on_c, 0, 76, 80
1, 49908, Note_on_c, 0, 76, 0
1, 49920, Note_on_c, 0, 74, 80
1, 50040, Note_on_c, 0, 54, 80
1, 50112, Note_on_c, 0, 74, 0
1, 50136, Note_on_c, 0, 54, 0
1, 50160, Note_on_c, 0, 76, 80
1, 50160, Note_on_c, 0, 55, 80
1, 50184, Note_on_c, 0, 76, 0
1, 50190, Note_on_c, 0, 78, 80
1, 50214, Note_on_c, 0, 78, 0
1, 50220, Note_on_c, 0, 76, 80
1, 50244, Note_on_c, 0, 76, 0
1, 50250, Note_on_c, 0, 78, 80
1, 50256, Note_on_c, 0, 55, 0
1, 50274, Note_on_c, 0, 78, 0
1, 50280, Note_on_c, 0, 76, 80
1, 50280, Note_on_c, 0, 57, 80
1, 50304, Note_on_c, 0, 76, 0
1, 50310, Note_on_c, 0, 78, 80
1, 50334, Note_on_c, 0, 78, 0
1, 50340, Note_on_c, 0, 76, 80
1, 50364, Note_on_c, 0, 76, 0
1, 50370, Note_on_c, 0, 78, 80
1, 50376, Note_on_c, 0, 57, 0
1, 50394, Note_on_c, 0, 78, 0
1, 50400, Note_on_c, 0, 59, 80
1, 50400, Note_on_c, 0, 74, 80
1, 50424, Note_on_c, 0, 74, 0
1, 50448, Note_on_c, 0, 59, 0
1, 50460, Note_on_c, 0, 68, 80
1, 50508, Note_on_c, 0, 68, 0
1, 50520, Note_on_c, 0, 62, 80
1, 50520, Note_on_c, 0, 86, 80
1, 50544, Note_on_c, 0, 86, 0
1, 50568, Note_on_c, 0, 62, 0
1, 50580, Note_on_c, 0, 68, 80
1, 50628, Note_on_c, 0, 68, 0
1, 50640, Note_on_c, 0, 59, 80
1, 50640, Note_on_c, 0, 86, 80
1, 50664, Note_on_c, 0, 86, 0
1, 50688, Note_on_c, 0, 59, 0
1, 50700, Note_on_c, 0, 68, 80
1, 50748, Note_on_c, 0, 68, 0
1, 50760, Note_on_c, 0, 62, 80
1, 50760, Note_on_c, 0, 88, 80
1, 50784, Note_on_c, 0, 88, 0
1, 50790, Note_on_c, 0, 86, 80
1, 50808, Note_on_c, 0, 62, 0
1, 50814, Note_on_c, 0, 86, 0
1, 50820, Note_on_c, 0, 68, 80
1, 50820, Note_on_c, 0, 85, 80
1, 50844, Note_on_c, 0, 85, 0
1, 50850, Note_on_c, 0, 86, 80
1, 50868, Note_on_c, 0, 68, 0
1, 50874, Note_on_c, 0, 86, 0
1, 50880, Note_on_c, 0, 57, 80
1, 50880, Note_on_c, 0, 85, 80
1, 50928, Note_on_c, 0, 57, 0
1, 50940, Note_on_c, 0, 69, 80
1, 50976, Note_on_c, 0, 85, 0
1, 50988, Note_on_c, 0, 69, 0
1, 51000, Note_on_c, 0, 61, 80
1, 51000, Note_on_c, 0, 79, 80
1, 51024, Note_on_c, 0, 79, 0
1, 51048, Note_on_c, 0, 61, 0
1, 51060, Note_on_c, 0, 69, 80
1, 51108, Note_on_c, 0, 69, 0
1, 51120, Note_on_c, 0, 57, 80
1, 51120, Note_on_c, 0, 79, 80
1, 51144, Note_on_c, 0, 79, 0
1, 51168, Note_on_c, 0, 57, 0
1, 51180, Note_on_c, 0, 69, 80
1, 51228, Note_on_c, 0, 69, 0
1, 51240, Note_on_c, 0, 61, 80
1, 51240, Note_on_c, 0, 81, 80
1, 51264, Note_on_c, 0, 81, 0
1, 51270, Note_on_c, 0, 79, 80
1, 51288, Note_on_c, 0, 61, 0
1, 51294, Note_on_c, 0, 79, 0
1, 51300, Note_on_c, 0, 69, 80
1, 51300, Note_on_c, 0, 78, 80
1, 51324, Note_on_c, 0, 78, 0
1, 51330, Note_on_c, 0, 79, 80
1, 51348, Note_on_c, 0, 69, 0
1, 51354, Note_on_c, 0, 79, 0
1, 51360, Note_on_c, 0, 62, 80
1, 51360, Note_on_c, 0, 78, 80
1, 51408, Note_on_c, 0, 62, 0
1, 51420, Note_on_c, 0, 69, 80
1, 51456, Note_on_c, 0, 78, 0
1, 51468, Note_on_c, 0, 69, 0
1, 51480, Note_on_c, 0, 66, 80
1, 51480, Note_on_c, 0, 72, 80
1, 51504, Note_on_c, 0, 72, 0
1, 51528, Note_on_c, 0, 66, 0
1, 51540, Note_on_c, 0, 69, 80
1, 51588, Note_on_c, 0, 69, 0
1, 51600, Note_on_c, 0, 62, 80
1, 51600, Note_on_c, 0, 72, 80
1, 51624, Note_on_c, 0, 72, 0
1, 51648, Note_on_c, 0, 62, 0
1, 51660, Note_on_c, 0, 69, 80
1, 51708, Note_on_c, 0, 69, 0
1, 51720, Note_on_c, 0, 66, 80
1, 51720, Note_on_c, 0, 74, 80
1, 51744, Note_on_c, 0, 74, 0
1, 51750, Note_on_c, 0, 72, 80
1, 51768, Note_on_c, 0, 66, 0
1, 51774, Note_on_c, 0, 72, 0
1, 51780, Note_on_c, 0, 69, 80
1, 51780, Note_on_c, 0, 71, 80
1, 51804, Note_on_c, 0, 71, 0
1, 51810, Note_on_c, 0, 72, 80
1, 51828, Note_on_c, 0, 69, 0
1, 51834, Note_on_c, 0, 72, 0
1, 51840, Note_on_c, 0, 67, 80
1, 51840, Note_on_c, 0, 71, 80
1, 51936, Note_on_c, 0, 71, 0
1, 51960, Note_on_c, 0, 82, 80
1, 52008, Note_on_c, 0, 82, 0
1, 52020, Note_on_c, 0, 83, 80
1, 52032, Note_on_c, 0, 67, 0
1, 52068, Note_on_c, 0, 83, 0
1, 52080, Note_on_c, 0, 81, 80
1, 52128, Note_on_c, 0, 81, 0
1, 52140, Note_on_c, 0, 79, 80
1, 52188, Note_on_c, 0, 79, 0
1, 52200, Note_on_c, 0, 78, 80
1, 52248, Note_on_c, 0, 78, 0
1, 52260, Note_on_c, 0, 76, 80
1, 52308, Note_on_c, 0, 76, 0
1, 52320, Note_on_c, 0, 74, 80
1, 52440, Note_on_c, 0, 54, 80
1, 52512, Note_on_c, 0, 74, 0
1, 52536, Note_on_c, 0, 54, 0
1, 52560, Note_on_c, 0, 76, 80
1, 52560, Note_on_c, 0, 55, 80
1, 52608, Note_on_c, 0, 76, 0
1, 52620, Note_on_c, 0, 78, 80
1, 52644, Note_on_c, 0, 78, 0
1, 52650, Note_on_c, 0, 76, 80
1, 52656, Note_on_c, 0, 55, 0
1, 52674, Note_on_c, 0, 76, 0
1, 52680, Note_on_c, 0, 78, 80
1, 52680, Note_on_c, 0, 57, 80
1, 52704, Note_on_c, 0, 78, 0
1, 52710, Note_on_c, 0, 76, 80
1, 52734, Note_on_c, 0, 76, 0
1, 52740, Note_on_c, 0, 74, 80
1, 52764, Note_on_c, 0, 74, 0
1, 52770, Note_on_c, 0, 76, 80
1, 52776, Note_on_c, 0, 57, 0
1, 52794, Note_on_c, 0, 76, 0
1, 52800, Note_on_c, 0, 78, 80
1, 52800, Note_on_c, 0, 50, 80
1, 52848, Note_on_c, 0, 78, 0
1, 52860, Note_on_c, 0, 74, 80
1, 52896, Note_on_c, 0, 50, 0
1, 52908, Note_on_c, 0, 74, 0
1, 52920, Note_on_c, 0, 54, 80
1, 52920, Note_on_c, 0, 86, 80
1, 52968, Note_on_c, 0, 86, 0
1, 52980, Note_on_c, 0, 81, 80
1, 53016, Note_on_c, 0, 54, 0
1, 53028, Note_on_c, 0, 81, 0
1, 53040, Note_on_c, 0, 83, 80
1, 53040, Note_on_c, 0, 55, 80
1, 53088, Note_on_c, 0, 83, 0
1, 53100, Note_on_c, 0, 78, 80
1, 53148, Note_on_c, 0, 78, 0
1, 53160, Note_on_c, 0, 79, 80
1, 53208, Note_on_c, 0, 79, 0
1, 53220, Note_on_c, 0, 76, 80
1, 53232, Note_on_c, 0, 55, 0
1, 53268, Note_on_c, 0, 76, 0
1, 53280, Note_on_c, 0, 74, 80
1, 53400, Note_on_c, 0, 54, 80
1, 53472, Note_on_c, 0, 74, 0
1, 53496, Note_on_c, 0, 54, 0
1, 53520, Note_on_c, 0, 76, 80
1, 53520, Note_on_c, 0, 55, 80
1, 53568, Note_on_c, 0, 76, 0
1, 53580, Note_on_c, 0, 78, 80
1, 53604, Note_on_c, 0, 78, 0
1, 53610, Note_on_c, 0, 76, 80
1, 53616, Note_on_c, 0, 55, 0
1, 53634, Note_on_c, 0, 76, 0
1, 53640, Note_on_c, 0, 78, 80
1, 53640, Note_on_c, 0, 57, 80
1, 53664, Note_on_c, 0, 78, 0
1, 53670, Note_on_c, 0, 76, 80
1, 53694, Note_on_c, 0, 76, 0
1, 53700, Note_on_c, 0, 78, 80
1, 53724, Note_on_c, 0, 78, 0
1, 53730, Note_on_c, 0, 76, 80
1, 53736, Note_on_c, 0, 57, 0
1, 53754, Note_on_c, 0, 76, 0
1, 53760, Note_on_c, 0, 50, 80
1, 53760, Note_on_c, 0, 74, 80
1, 53808, Note_on_c, 0, 50, 0
1, 53820, Note_on_c, 0, 62, 80
1, 53856, Note_on_c, 0, 74, 0
1, 53868, Note_on_c, 0, 62, 0
1, 53880, Note_on_c, 0, 50, 80
1, 53928, Note_on_c, 0, 50, 0
1, 53940, Note_on_c, 0, 62, 80
1, 53988, Note_on_c, 0, 62, 0
1, 54000, Note_on_c, 0, 73, 80
1, 54000, Note_on_c, 0, 79, 80
1, 54000, Note_on_c, 0, 50, 80
1, 54048, Note_on_c, 0, 50, 0
1, 54060, Note_on_c, 0, 62, 80
1, 54096, Note_on_c, 0, 79, 0
1, 54096, Note_on_c, 0, 73, 0
1, 54108, Note_on_c, 0, 62, 0
1, 54120, Note_on_c, 0, 50, 80
1, 54168, Note_on_c, 0, 50, 0
1, 54180, Note_on_c, 0, 62, 80
1, 54228, Note_on_c, 0, 62, 0
1, 54240, Note_on_c, 0, 50, 80
1, 54240, Note_on_c, 0, 78, 80
1, 54240, Note_on_c, 0, 74, 80
1, 54288, Note_on_c, 0, 50, 0
1, 54300, Note_on_c, 0, 62, 80
1, 54336, Note_on_c, 0, 74, 0
1, 54336, Note_on_c, 0, 78, 0
1, 54348, Note_on_c, 0, 62, 0
1, 54360, Note_on_c, 0, 50, 80
1, 54408, Note_on_c, 0, 50, 0
1, 54420, Note_on_c, 0, 62, 80
1, 54468, Note_on_c, 0, 62, 0
1, 54480, Note_on_c, 0, 50, 80
1, 54480, Note_on_c, 0, 67, 80
1, 54480, Note_on_c, 0, 73, 80
1, 54528, Note_on_c, 0, 50, 0
1, 54540, Note_on_c, 0, 62, 80
1, 54576, Note_on_c, 0, 73, 0
1, 54576, Note_on_c, 0, 67, 0
1, 54588, Note_on_c, 0, 62, 0
1, 54600, Note_on_c, 0, 50, 80
1, 54648, Note_on_c, 0, 50, 0
1, 54660, Note_on_c, 0, 62, 80
1, 54708, Note_on_c, 0, 62, 0
1, 54720, Note_on_c, 0, 66, 80
1, 54720, Note_on_c, 0, 74, 80
1, 54720, Note_on_c, 0, 50, 80
1, 54912, Note_on_c, 0, 50, 0
1, 54912, Note_on_c, 0, 74, 0
1, 54912, Note_on_c, 0, 66, 0
1, 55080, Note_on_c, 0, 62, 80
1, 55176, Note_on_c, 0, 62, 0
1, 55200, Note_on_c, 0, 65, 80
1, 55200, Note_on_c, 0, 50, 80
1, 55248, Note_on_c, 0, 50, 0
1, 55260, Note_on_c, 0, 57, 80
1, 55296, Note_on_c, 0, 65, 0
1, 55308, Note_on_c, 0, 57, 0
1, 55320, Note_on_c, 0, 69, 80
1, 55320, Note_on_c, 0, 53, 80
1, 55368, Note_on_c, 0, 53, 0
1, 55380, Note_on_c, 0, 57, 80
1, 55416, Note_on_c, 0, 69, 0
1, 55428, Note_on_c, 0, 57, 0
1, 55440, Note_on_c, 0, 74, 80
1, 55440, Note_on_c, 0, 50, 80
1, 55488, Note_on_c, 0, 50, 0
1, 55500, Note_on_c, 0, 57, 80
1, 55536, Note_on_c, 0, 74, 0
1, 55548, Note_on_c, 0, 57, 0
1, 55560, Note_on_c, 0, 53, 80
1, 55560, Note_on_c, 0, 77, 80
1, 55608, Note_on_c, 0, 53, 0
1, 55620, Note_on_c, 0, 57, 80
1, 55656, Note_on_c, 0, 77, 0
1, 55668, Note_on_c, 0, 57, 0
1, 55680, Note_on_c, 0, 68, 80
1, 55680, Note_on_c, 0, 50, 80
1, 55728, Note_on_c, 0, 50, 0
1, 55740, Note_on_c, 0, 59, 80
1, 55788, Note_on_c, 0, 59, 0
1, 55800, Note_on_c, 0, 56, 80
1, 55848, Note_on_c, 0, 56, 0
1, 55860, Note_on_c, 0, 59, 80
1, 55872, Note_on_c, 0, 68, 0
1, 55908, Note_on_c, 0, 59, 0
1, 55920, Note_on_c, 0, 50, 80
1, 55968, Note_on_c, 0, 50, 0
1, 55980, Note_on_c, 0, 59, 80
1, 56028, Note_on_c, 0, 59, 0
1, 56040, Note_on_c, 0, 56, 80
1, 56040, Note_on_c, 0, 64, 80
1, 56088, Note_on_c, 0, 56, 0
1, 56100, Note_on_c, 0, 59, 80
1, 56136, Note_on_c, 0, 64, 0
1, 56148, Note_on_c, 0, 59, 0
1, 56160, Note_on_c, 0, 68, 80
1, 56160, Note_on_c, 0, 50, 80
1, 56208, Note_on_c, 0, 50, 0
1, 56220, Note_on_c, 0, 59, 80
1, 56256, Note_on_c, 0, 68, 0
1, 56268, Note_on_c, 0, 59, 0
1, 56280, Note_on_c, 0, 71, 80
1, 56280, Note_on_c, 0, 56, 80
1, 56328, Note_on_c, 0, 56, 0
1, 56340, Note_on_c, 0, 59, 80
1, 56376, Note_on_c, 0, 71, 0
1, 56388, Note_on_c, 0, 59, 0
1, 56400, Note_on_c, 0, 76, 80
1, 56400, Note_on_c, 0, 50, 80
1, 56448, Note_on_c, 0, 50, 0
1, 56460, Note_on_c, 0, 59, 80
1, 56496, Note_on_c, 0, 76, 0
1, 56508, Note_on_c, 0, 59, 0
1, 56520, Note_on_c, 0, 56, 80
1, 56520, Note_on_c, 0, 80, 80
1, 56568, Note_on_c, 0, 56, 0
1, 56580, Note_on_c, 0, 59, 80
1, 56616, Note_on_c, 0, 80, 0
1, 56628, Note_on_c, 0, 59, 0
1, 56640, Note_on_c, 0, 81, 80
1, 56640, Note_on_c, 0, 48, 80
1, 56688, Note_on_c, 0, 48, 0
1, 56700, Note_on_c, 0, 57, 80
1, 56748, Note_on_c, 0, 57, 0
1, 56760, Note_on_c, 0, 52, 80
1, 56808, Note_on_c, 0, 52, 0
1, 56820, Note_on_c, 0, 57, 80
1, 56832, Note_on_c, 0, 81, 0
1, 56868, Note_on_c, 0, 57, 0
1, 56880, Note_on_c, 0, 48, 80
1, 56928, Note_on_c, 0, 48, 0
1, 56940, Note_on_c, 0, 57, 80
1, 56988, Note_on_c, 0, 57, 0
1, 57000, Note_on_c, 0, 52, 80
1, 57000, Note_on_c, 0, 69, 80
1, 57048, Note_on_c, 0, 52, 0
1, 57060, Note_on_c, 0, 57, 80
1, 57096, Note_on_c, 0, 69, 0
1, 57108, Note_on_c, 0, 57, 0
1, 57120, Note_on_c, 0, 72, 80
1, 57120, Note_on_c, 0, 48, 80
1, 57168, Note_on_c, 0, 48, 0
1, 57180, Note_on_c, 0, 57, 80
1, 57216, Note_on_c, 0, 72, 0
1, 57228, Note_on_c, 0, 57, 0
1, 57240, Note_on_c, 0, 52, 80
1, 57240, Note_on_c, 0, 76, 80
1, 57288, Note_on_c, 0, 52, 0
1, 57300, Note_on_c, 0, 57, 80
1, 57336, Note_on_c, 0, 76, 0
1, 57348, Note_on_c, 0, 57, 0
1, 57360, Note_on_c, 0, 81, 80
1, 57360, Note_on_c, 0, 48, 80
1, 57408, Note_on_c, 0, 48, 0
1, 57420, Note_on_c, 0, 57, 80
1, 57456, Note_on_c, 0, 81, 0
1, 57468, Note_on_c, 0, 57, 0
1, 57480, Note_on_c, 0, 84, 80
1, 57480, Note_on_c, 0, 52, 80
1, 57528, Note_on_c, 0, 52, 0
1, 57540, Note_on_c, 0, 57, 80
1, 57576, Note_on_c, 0, 84, 0
1, 57588, Note_on_c, 0, 57, 0
1, 57600, Note_on_c, 0, 75, 80
1, 57600, Note_on_c, 0, 47, 80
1, 57648, Note_on_c, 0, 47, 0
1, 57660, Note_on_c, 0, 57, 80
1, 57708, Note_on_c, 0, 57, 0
1, 57720, Note_on_c, 0, 54, 80
1, 57768, Note_on_c, 0, 54, 0
1, 57780, Note_on_c, 0, 57, 80
1, 57792, Note_on_c, 0, 75, 0
1, 57828, Note_on_c, 0, 57, 0
1, 57840, Note_on_c, 0, 47, 80
1, 57888, Note_on_c, 0, 47, 0
1, 57900, Note_on_c, 0, 57, 80
1, 57948, Note_on_c, 0, 57, 0
1, 57960, Note_on_c, 0, 54, 80
1, 57960, Note_on_c, 0, 81, 80
1, 58008, Note_on_c, 0, 54, 0
1, 58020, Note_on_c, 0, 57, 80
1, 58056, Note_on_c, 0, 81, 0
1, 58068, Note_on_c, 0, 57, 0
1, 58080, Note_on_c, 0, 78, 80
1, 58080, Note_on_c, 0, 51, 80
1, 58128, Note_on_c, 0, 51, 0
1, 58140, Note_on_c, 0, 59, 80
1, 58176, Note_on_c, 0, 78, 0
1, 58188, Note_on_c, 0, 59, 0
1, 58200, Note_on_c, 0, 54, 80
1, 58200, Note_on_c, 0, 75, 80
1, 58248, Note_on_c, 0, 54, 0
1, 58260, Note_on_c, 0, 59, 80
1, 58296, Note_on_c, 0, 75, 0
1, 58308, Note_on_c, 0, 59, 0
1, 58320, Note_on_c, 0, 71, 80
1, 58320, Note_on_c, 0, 51, 80
1, 58368, Note_on_c, 0, 51, 0
1, 58380, Note_on_c, 0, 59, 80
1, 58416, Note_on_c, 0, 71, 0
1, 58428, Note_on_c, 0, 59, 0
1, 58440, Note_on_c, 0, 69, 80
1, 58440, Note_on_c, 0, 54, 80
1, 58488, Note_on_c, 0, 54, 0
1, 58500, Note_on_c, 0, 59, 80
1, 58536, Note_on_c, 0, 69, 0
1, 58548, Note_on_c, 0, 59, 0
1, 58560, Note_on_c, 0, 67, 80
1, 58560, Note_on_c, 0, 52, 80
1, 58608, Note_on_c, 0, 52, 0
1, 58620, Note_on_c, 0, 59, 80
1, 58668, Note_on_c, 0, 59, 0
1, 58680, Note_on_c, 0, 55, 80
1, 58728, Note_on_c, 0, 55, 0
1, 58740, Note_on_c, 0, 59, 80
1, 58752, Note_on_c, 0, 67, 0
1, 58788, Note_on_c, 0, 59, 0
1, 58800, Note_on_c, 0, 52, 80
1, 58848, Note_on_c, 0, 52, 0
1, 58860, Note_on_c, 0, 59, 80
1, 58908, Note_on_c, 0, 59, 0
1, 58920, Note_on_c, 0, 55, 80
1, 58920, Note_on_c, 0, 64, 80
1, 58968, Note_on_c, 0, 55, 0
1, 58980, Note_on_c, 0, 59, 80
1, 59016, Note_on_c, 0, 64, 0
1, 59028, Note_on_c, 0, 59, 0
1, 59040, Note_on_c, 0, 67, 80
1, 59040, Note_on_c, 0, 52, 80
1, 59088, Note_on_c, 0, 52, 0
1, 59100, Note_on_c, 0, 59, 80
1, 59136, Note_on_c, 0, 67, 0
1, 59148, Note_on_c, 0, 59, 0
1, 59160, Note_on_c, 0, 71, 80
1, 59160, Note_on_c, 0, 55, 80
1, 59208, Note_on_c, 0, 55, 0
1, 59220, Note_on_c, 0, 59, 80
1, 59256, Note_on_c, 0, 71, 0
1, 59268, Note_on_c, 0, 59, 0
1, 59280, Note_on_c, 0, 76, 80
1, 59280, Note_on_c, 0, 52, 80
1, 59328, Note_on_c, 0, 52, 0
1, 59340, Note_on_c, 0, 59, 80
1, 59376, Note_on_c, 0, 76, 0
1, 59388, Note_on_c, 0, 59, 0
1, 59400, Note_on_c, 0, 55, 80
1, 59400, Note_on_c, 0, 79, 80
1, 59448, Note_on_c, 0, 55, 0
1, 59460, Note_on_c, 0, 59, 80
1, 59496, Note_on_c, 0, 79, 0
1, 59508, Note_on_c, 0, 59, 0
1, 59520, Note_on_c, 0, 78, 80
1, 59520, Note_on_c, 0, 51, 80
1, 59568, Note_on_c, 0, 51, 0
1, 59580, Note_on_c, 0, 59, 80
1, 59628, Note_on_c, 0, 59, 0
1, 59640, Note_on_c, 0, 54, 80
1, 59688, Note_on_c, 0, 54, 0
1, 59700, Note_on_c, 0, 59, 80
1, 59712, Note_on_c, 0, 78, 0
1, 59748, Note_on_c, 0, 59, 0
1, 59760, Note_on_c, 0, 51, 80
1, 59808, Note_on_c, 0, 51, 0
1, 59820, Note_on_c, 0, 59, 80
1, 59868, Note_on_c, 0, 59, 0
1, 59880, Note_on_c, 0, 54, 80
1, 59880, Note_on_c, 0, 66, 80
1, 59928, Note_on_c, 0, 54, 0
1, 59940, Note_on_c, 0, 59, 80
1, 59976, Note_on_c, 0, 66, 0
1, 59988, Note_on_c, 0, 59, 0
1, 60000, Note_on_c, 0, 69, 80
1, 60000, Note_on_c, 0, 51, 80
1, 60048, Note_on_c, 0, 51, 0
1, 60060, Note_on_c, 0, 59, 80
1, 60096, Note_on_c, 0, 69, 0
1, 60108, Note_on_c, 0, 59, 0
1, 60120, Note_on_c, 0, 54, 80
1, 60120, Note_on_c, 0, 75, 80
1, 60168, Note_on_c, 0, 54, 0
1, 60180, Note_on_c, 0, 59, 80
1, 60216, Note_on_c, 0, 75, 0
1, 60228, Note_on_c, 0, 59, 0
1, 60240, Note_on_c, 0, 78, 80
1, 60240, Note_on_c, 0, 51, 80
1, 60288, Note_on_c, 0, 51, 0
1, 60300, Note_on_c, 0, 59, 80
1, 60336, Note_on_c, 0, 78, 0
1, 60348, Note_on_c, 0, 59, 0
1, 60360, Note_on_c, 0, 81, 80
1, 60360, Note_on_c, 0, 54, 80
1, 60408, Note_on_c, 0, 54, 0
1, 60420, Note_on_c, 0, 59, 80
1, 60456, Note_on_c, 0, 81, 0
1, 60468, Note_on_c, 0, 59, 0
1, 60480, Note_on_c, 0, 79, 80
1, 60480, Note_on_c, 0, 52, 80
1, 60528, Note_on_c, 0, 52, 0
1, 60540, Note_on_c, 0, 59, 80
1, 60588, Note_on_c, 0, 59, 0
1, 60600, Note_on_c, 0, 55, 80
1, 60648, Note_on_c, 0, 55, 0
1, 60660, Note_on_c, 0, 59, 80
1, 60672, Note_on_c, 0, 79, 0
1, 60708, Note_on_c, 0, 59, 0
1, 60720, Note_on_c, 0, 52, 80
1, 60768, Note_on_c, 0, 52, 0
1, 60780, Note_on_c, 0, 59, 80
1, 60828, Note_on_c, 0, 59, 0
1, 60840, Note_on_c, 0, 55, 80
1, 60840, Note_on_c, 0, 64, 80
1, 60888, Note_on_c, 0, 55, 0
1, 60900, Note_on_c, 0, 59, 80
1, 60936, Note_on_c, 0, 64, 0
1, 60948, Note_on_c, 0, 59, 0
1, 60960, Note_on_c, 0, 67, 80
1, 60960, Note_on_c, 0, 52, 80
1, 61008, Note_on_c, 0, 52, 0
1, 61020, Note_on_c, 0, 59, 80
1, 61056, Note_on_c, 0, 67, 0
1, 61068, Note_on_c, 0, 59, 0
1, 61080, Note_on_c, 0, 71, 80
1, 61080, Note_on_c, 0, 55, 80
1, 61128, Note_on_c, 0, 55, 0
1, 61140, Note_on_c, 0, 59, 80
1, 61176, Note_on_c, 0, 71, 0
1, 61188, Note_on_c, 0, 59, 0
1, 61200, Note_on_c, 0, 76, 80
1, 61200, Note_on_c, 0, 52, 80
1, 61248, Note_on_c, 0, 52, 0
1, 61260, Note_on_c, 0, 59, 80
1, 61296, Note_on_c, 0, 76, 0
1, 61308, Note_on_c, 0, 59, 0
1, 61320, Note_on_c, 0, 55, 80
1, 61320, Note_on_c, 0, 79, 80
1, 61368, Note_on_c, 0, 55, 0
1, 61380, Note_on_c, 0, 59, 80
1, 61416, Note_on_c, 0, 79, 0
1, 61428, Note_on_c, 0, 59, 0
1, 61440, Note_on_c, 0, 70, 80
1, 61440, Note_on_c, 0, 48, 80
1, 61488, Note_on_c, 0, 48, 0
1, 61500, Note_on_c, 0, 58, 80
1, 61548, Note_on_c, 0, 58, 0
1, 61560, Note_on_c, 0, 52, 80
1, 61608, Note_on_c, 0, 52, 0
1, 61620, Note_on_c, 0, 58, 80
1, 61632, Note_on_c, 0, 70, 0
1, 61668, Note_on_c, 0, 58, 0
1, 61680, Note_on_c, 0, 48, 80
1, 61728, Note_on_c, 0, 48, 0
1, 61740, Note_on_c, 0, 58, 80
1, 61788, Note_on_c, 0, 58, 0
1, 61800, Note_on_c, 0, 52, 80
1, 61800, Note_on_c, 0, 79, 80
1, 61848, Note_on_c, 0, 52, 0
1, 61860, Note_on_c, 0, 58, 80
1, 61896, Note_on_c, 0, 79, 0
1, 61908, Note_on_c, 0, 58, 0
1, 61920, Note_on_c, 0, 48, 80
1, 61920, Note_on_c, 0, 78, 80
1, 61968, Note_on_c, 0, 48, 0
1, 61980, Note_on_c, 0, 58, 80
1, 62016, Note_on_c, 0, 78, 0
1, 62028, Note_on_c, 0, 58, 0
1, 62040, Note_on_c, 0, 52, 80
1, 62040, Note_on_c, 0, 76, 80
1, 62088, Note_on_c, 0, 52, 0
1, 62100, Note_on_c, 0, 58, 80
1, 62136, Note_on_c, 0, 76, 0
1, 62148, Note_on_c, 0, 58, 0
1, 62160, Note_on_c, 0, 75, 80
1, 62160, Note_on_c, 0, 48, 80
1, 62208, Note_on_c, 0, 48, 0
1, 62220, Note_on_c, 0, 58, 80
1, 62256, Note_on_c, 0, 75, 0
1, 62268, Note_on_c, 0, 58, 0
1, 62280, Note_on_c, 0, 76, 80
1, 62280, Note_on_c, 0, 52, 80
1, 62328, Note_on_c, 0, 52, 0
1, 62340, Note_on_c, 0, 58, 80
1, 62376, Note_on_c, 0, 76, 0
1, 62388, Note_on_c, 0, 58, 0
1, 62400, Note_on_c, 0, 75, 80
1, 62400, Note_on_c, 0, 47, 80
1, 62448, Note_on_c, 0, 47, 0
1, 62460, Note_on_c, 0, 57, 80
1, 62496, Note_on_c, 0, 75, 0
1, 62508, Note_on_c, 0, 57, 0
1, 62520, Note_on_c, 0, 84, 80
1, 62520, Note_on_c, 0, 51, 80
1, 62568, Note_on_c, 0, 51, 0
1, 62580, Note_on_c, 0, 57, 80
1, 62616, Note_on_c, 0, 84, 0
1, 62628, Note_on_c, 0, 57, 0
1, 62640, Note_on_c, 0, 83, 80
1, 62640, Note_on_c, 0, 47, 80
1, 62688, Note_on_c, 0, 47, 0
1, 62700, Note_on_c, 0, 57, 80
1, 62736, Note_on_c, 0, 83, 0
1, 62748, Note_on_c, 0, 57, 0
1, 62760, Note_on_c, 0, 81, 80
1, 62760, Note_on_c, 0, 51, 80
1, 62808, Note_on_c, 0, 51, 0
1, 62820, Note_on_c, 0, 57, 80
1, 62856, Note_on_c, 0, 81, 0
1, 62868, Note_on_c, 0, 57, 0
1, 62880, Note_on_c, 0, 80, 80
1, 62880, Note_on_c, 0, 52, 80
1, 62928, Note_on_c, 0, 52, 0
1, 62940, Note_on_c, 0, 62, 80
1, 62976, Note_on_c, 0, 80, 0
1, 62988, Note_on_c, 0, 62, 0
1, 63000, Note_on_c, 0, 56, 80
1, 63000, Note_on_c, 0, 78, 80
1, 63048, Note_on_c, 0, 56, 0
1, 63060, Note_on_c, 0, 62, 80
1, 63096, Note_on_c, 0, 78, 0
1, 63108, Note_on_c, 0, 62, 0
1, 63120, Note_on_c, 0, 52, 80
1, 63120, Note_on_c, 0, 76, 80
1, 63168, Note_on_c, 0, 52, 0
1, 63180, Note_on_c, 0, 62, 80
1, 63216, Note_on_c, 0, 76, 0
1, 63228, Note_on_c, 0, 62, 0
1, 63240, Note_on_c, 0, 74, 80
1, 63240, Note_on_c, 0, 56, 80
1, 63288, Note_on_c, 0, 56, 0
1, 63300, Note_on_c, 0, 62, 80
1, 63336, Note_on_c, 0, 74, 0
1, 63348, Note_on_c, 0, 62, 0
1, 63360, Note_on_c, 0, 73, 80
1, 63360, Note_on_c, 0, 57, 80
1, 63408, Note_on_c, 0, 57, 0
1, 63420, Note_on_c, 0, 67, 80
1, 63456, Note_on_c, 0, 73, 0
1, 63468, Note_on_c, 0, 67, 0
1, 63480, Note_on_c, 0, 82, 80
1, 63480, Note_on_c, 0, 61, 80
1, 63528, Note_on_c, 0, 61, 0
1, 63540, Note_on_c, 0, 67, 80
1, 63576, Note_on_c, 0, 82, 0
1, 63588, Note_on_c, 0, 67, 0
1, 63600, Note_on_c, 0, 81, 80
1, 63600, Note_on_c, 0, 57, 80
1, 63648, Note_on_c, 0, 57, 0
1, 63660, Note_on_c, 0, 67, 80
1, 63696, Note_on_c, 0, 81, 0
1, 63708, Note_on_c, 0, 67, 0
1, 63720, Note_on_c, 0, 61, 80
1, 63720, Note_on_c, 0, 79, 80
1, 63768, Note_on_c, 0, 61, 0
1, 63780, Note_on_c, 0, 67, 80
1, 63816, Note_on_c, 0, 79, 0
1, 63828, Note_on_c, 0, 67, 0
1, 63840, Note_on_c, 0, 78, 80
1, 63840, Note_on_c, 0, 60, 80
1, 63888, Note_on_c, 0, 60, 0
1, 63900, Note_on_c, 0, 69, 80
1, 63936, Note_on_c, 0, 78, 0
1, 63948, Note_on_c, 0, 69, 0
1, 63960, Note_on_c, 0, 81, 80
1, 63960, Note_on_c, 0, 66, 80
1, 64008, Note_on_c, 0, 66, 0
1, 64020, Note_on_c, 0, 69, 80
1, 64056, Note_on_c, 0, 81, 0
1, 64068, Note_on_c, 0, 69, 0
1, 64080, Note_on_c, 0, 86, 80
1, 64080, Note_on_c, 0, 60, 80
1, 64128, Note_on_c, 0, 60, 0
1, 64140, Note_on_c, 0, 69, 80
1, 64176, Note_on_c, 0, 86, 0
1, 64188, Note_on_c, 0, 69, 0
1, 64200, Note_on_c, 0, 66, 80
1, 64200, Note_on_c, 0, 78, 80
1, 64248, Note_on_c, 0, 66, 0
1, 64260, Note_on_c, 0, 69, 80
1, 64296, Note_on_c, 0, 78, 0
1, 64308, Note_on_c, 0, 69, 0
1, 64320, Note_on_c, 0, 79, 80
1, 64320, Note_on_c, 0, 59, 80
1, 64368, Note_on_c, 0, 59, 0
1, 64380, Note_on_c, 0, 67, 80
1, 64416, Note_on_c, 0, 79, 0
1, 64428, Note_on_c, 0, 67, 0
1, 64440, Note_on_c, 0, 83, 80
1, 64440, Note_on_c, 0, 62, 80
1, 64488, Note_on_c, 0, 62, 0
1, 64500, Note_on_c, 0, 67, 80
1, 64536, Note_on_c, 0, 83, 0
1, 64548, Note_on_c, 0, 67, 0
1, 64560, Note_on_c, 0, 86, 80
1, 64560, Note_on_c, 0, 59, 80
1, 64608, Note_on_c, 0, 59, 0
1, 64620, Note_on_c, 0, 67, 80
1, 64656, Note_on_c, 0, 86, 0
1, 64668, Note_on_c, 0, 67, 0
1, 64680, Note_on_c, 0, 62, 80
1, 64680, Note_on_c, 0, 79, 80
1, 64728, Note_on_c, 0, 62, 0
1, 64740, Note_on_c, 0, 67, 80
1, 64776, Note_on_c, 0, 79, 0
1, 64788, Note_on_c, 0, 67, 0
1, 64800, Note_on_c, 0, 78, 80
1, 64800, Note_on_c, 0, 60, 80
1, 64848, Note_on_c, 0, 60, 0
1, 64860, Note_on_c, 0, 69, 80
1, 64896, Note_on_c, 0, 78, 0
1, 64908, Note_on_c, 0, 69, 0
1, 64920, Note_on_c, 0, 66, 80
1, 64920, Note_on_c, 0, 81, 80
1, 64968, Note_on_c, 0, 66, 0
1, 64980, Note_on_c, 0, 69, 80
1, 65016, Note_on_c, 0, 81, 0
1, 65028, Note_on_c, 0, 69, 0
1, 65040, Note_on_c, 0, 86, 80
1, 65040, Note_on_c, 0, 60, 80
1, 65088, Note_on_c, 0, 60, 0
1, 65100, Note_on_c, 0, 69, 80
1, 65136, Note_on_c, 0, 86, 0
1, 65148, Note_on_c, 0, 69, 0
1, 65160, Note_on_c, 0, 78, 80
1, 65160, Note_on_c, 0, 66, 80
1, 65208, Note_on_c, 0, 66, 0
1, 65220, Note_on_c, 0, 69, 80
1, 65256, Note_on_c, 0, 78, 0
1, 65268, Note_on_c, 0, 69, 0
1, 65280, Note_on_c, 0, 58, 80
1, 65280, Note_on_c, 0, 79, 80
1, 65328, Note_on_c, 0, 58, 0
1, 65340, Note_on_c, 0, 67, 80
1, 65376, Note_on_c, 0, 79, 0
1, 65388, Note_on_c, 0, 67, 0
1, 65400, Note_on_c, 0, 62, 80
1, 65400, Note_on_c, 0, 82, 80
1, 65448, Note_on_c, 0, 62, 0
1, 65460, Note_on_c, 0, 67, 80
1, 65496, Note_on_c, 0, 82, 0
1, 65508, Note_on_c, 0, 67, 0
1, 65520, Note_on_c, 0, 58, 80
1, 65520, Note_on_c, 0, 86, 80
1, 65568, Note_on_c, 0, 58, 0
1, 65580, Note_on_c, 0, 67, 80
1, 65616, Note_on_c, 0, 86, 0
1, 65628, Note_on_c, 0, 67, 0
1, 65640, Note_on_c, 0, 62, 80
1, 65640, Note_on_c, 0, 74, 80
1, 65688, Note_on_c, 0, 62, 0
1, 65700, Note_on_c, 0, 67, 80
1, 65736, Note_on_c, 0, 74, 0
1, 65748, Note_on_c, 0, 67, 0
1, 65760, Note_on_c, 0, 75, 80
1, 65760, Note_on_c, 0, 60, 80
1, 65808, Note_on_c, 0, 60, 0
1, 65820, Note_on_c, 0, 67, 80
1, 65856, Note_on_c, 0, 75, 0
1, 65868, Note_on_c, 0, 67, 0
1, 65880, Note_on_c, 0, 86, 80
1, 65880, Note_on_c, 0, 63, 80
1, 65928, Note_on_c, 0, 63, 0
1, 65940, Note_on_c, 0, 67, 80
1, 65976, Note_on_c, 0, 86, 0
1, 65988, Note_on_c, 0, 67, 0
1, 66000, Note_on_c, 0, 84, 80
1, 66000, Note_on_c, 0, 57, 80
1, 66048, Note_on_c, 0, 57, 0
1, 66060, Note_on_c, 0, 65, 80
1, 66096, Note_on_c, 0, 84, 0
1, 66108, Note_on_c, 0, 65, 0
1, 66120, Note_on_c, 0, 60, 80
1, 66120, Note_on_c, 0, 75, 80
1, 66168, Note_on_c, 0, 60, 0
1, 66180, Note_on_c, 0, 65, 80
1, 66216, Note_on_c, 0, 75, 0
1, 66228, Note_on_c, 0, 65, 0
1, 66240, Note_on_c, 0, 74, 80
1, 66240, Note_on_c, 0, 58, 80
1, 66288, Note_on_c, 0, 58, 0
1, 66300, Note_on_c, 0, 65, 80
1, 66336, Note_on_c, 0, 74, 0
1, 66348, Note_on_c, 0, 65, 0
1, 66360, Note_on_c, 0, 62, 80
1, 66360, Note_on_c, 0, 84, 80
1, 66408, Note_on_c, 0, 62, 0
1, 66420, Note_on_c, 0, 65, 80
1, 66456, Note_on_c, 0, 84, 0
1, 66468, Note_on_c, 0, 65, 0
1, 66480, Note_on_c, 0, 82, 80
1, 66480, Note_on_c, 0, 55, 80
1, 66528, Note_on_c, 0, 55, 0
1, 66540, Note_on_c, 0, 63, 80
1, 66576, Note_on_c, 0, 82, 0
1, 66588, Note_on_c, 0, 63, 0
1, 66600, Note_on_c, 0, 74, 80
1, 66600, Note_on_c, 0, 58, 80
1, 66648, Note_on_c, 0, 58, 0
1, 66660, Note_on_c, 0, 63, 80
1, 66696, Note_on_c, 0, 74, 0
1, 66708, Note_on_c, 0, 63, 0
1, 66720, Note_on_c, 0, 72, 80
1, 66720, Note_on_c, 0, 57, 80
1, 66768, Note_on_c, 0, 57, 0
1, 66780, Note_on_c, 0, 63, 80
1, 66816, Note_on_c, 0, 72, 0
1, 66828, Note_on_c, 0, 63, 0
1, 66840, Note_on_c, 0, 82, 80
1, 66840, Note_on_c, 0, 60, 80
1, 66888, Note_on_c, 0, 60, 0
1, 66900, Note_on_c, 0, 63, 80
1, 66936, Note_on_c, 0, 82, 0
1, 66948, Note_on_c, 0, 63, 0
1, 66960, Note_on_c, 0, 81, 80
1, 66960, Note_on_c, 0, 54, 80
1, 67008, Note_on_c, 0, 54, 0
1, 67020, Note_on_c, 0, 62, 80
1, 67056, Note_on_c, 0, 81, 0
1, 67068, Note_on_c, 0, 62, 0
1, 67080, Note_on_c, 0, 72, 80
1, 67080, Note_on_c, 0, 57, 80
1, 67128, Note_on_c, 0, 57, 0
1, 67140, Note_on_c, 0, 62, 80
1, 67176, Note_on_c, 0, 72, 0
1, 67188, Note_on_c, 0, 62, 0
1, 67200, Note_on_c, 0, 70, 80
1, 67200, Note_on_c, 0, 55, 80
1, 67248, Note_on_c, 0, 55, 0
1, 67260, Note_on_c, 0, 62, 80
1, 67296, Note_on_c, 0, 70, 0
1, 67308, Note_on_c, 0, 62, 0
1, 67320, Note_on_c, 0, 58, 80
1, 67320, Note_on_c, 0, 79, 80
1, 67368, Note_on_c, 0, 58, 0
1, 67380, Note_on_c, 0, 62, 80
1, 67416, Note_on_c, 0, 79, 0
1, 67428, Note_on_c, 0, 62, 0
1, 67440, Note_on_c, 0, 69, 80
1, 67440, Note_on_c, 0, 53, 80
1, 67488, Note_on_c, 0, 53, 0
1, 67500, Note_on_c, 0, 62, 80
1, 67536, Note_on_c, 0, 69, 0
1, 67548, Note_on_c, 0, 62, 0
1, 67560, Note_on_c, 0, 81, 80
1, 67560, Note_on_c, 0, 57, 80
1, 67608, Note_on_c, 0, 57, 0
1, 67620, Note_on_c, 0, 62, 80
1, 67656, Note_on_c, 0, 81, 0
1, 67668, Note_on_c, 0, 62, 0
1, 67680, Note_on_c, 0, 67, 80
1, 67680, Note_on_c, 0, 51, 80
1, 67728, Note_on_c, 0, 51, 0
1, 67740, Note_on_c, 0, 61, 80
1, 67776, Note_on_c, 0, 67, 0
1, 67788, Note_on_c, 0, 61, 0
1, 67800, Note_on_c, 0, 55, 80
1, 67800, Note_on_c, 0, 82, 80
1, 67848, Note_on_c, 0, 55, 0
1, 67860, Note_on_c, 0, 61, 80
1, 67896, Note_on_c, 0, 82, 0
1, 67908, Note_on_c, 0, 61, 0
1, 67920, Note_on_c, 0, 81, 80
1, 67920, Note_on_c, 0, 51, 80
1, 67968, Note_on_c, 0, 51, 0
1, 67980, Note_on_c, 0, 61, 80
1, 68016, Note_on_c, 0, 81, 0
1, 68028, Note_on_c, 0, 61, 0
1, 68040, Note_on_c, 0, 79, 80
1, 68040, Note_on_c, 0, 55, 80
1, 68088, Note_on_c, 0, 55, 0
1, 68100, Note_on_c, 0, 61, 80
1, 68136, Note_on_c, 0, 79, 0
1, 68148, Note_on_c, 0, 61, 0
1, 68160, Note_on_c, 0, 50, 80
1, 68160, Note_on_c, 0, 78, 80
1, 68208, Note_on_c, 0, 50, 0
1, 68220, Note_on_c, 0, 60, 80
1, 68256, Note_on_c, 0, 78, 0
1, 68268, Note_on_c, 0, 60, 0
1, 68280, Note_on_c, 0, 81, 80
1, 68280, Note_on_c, 0, 54, 80
1, 68328, Note_on_c, 0, 54, 0
1, 68340, Note_on_c, 0, 60, 80
1, 68376, Note_on_c, 0, 81, 0
1, 68388, Note_on_c, 0, 60, 0
1, 68400, Note_on_c, 0, 84, 80
1, 68400, Note_on_c, 0, 50, 80
1, 68448, Note_on_c, 0, 50, 0
1, 68448, Note_on_c, 0, 84, 0
1, 68460, Note_on_c, 0, 81, 80
1, 68460, Note_on_c, 0, 60, 80
1, 68508, Note_on_c, 0, 60, 0
1, 68508, Note_on_c, 0, 81, 0
1, 68520, Note_on_c, 0, 78, 80
1, 68520, Note_on_c, 0, 54, 80
1, 68568, Note_on_c, 0, 54, 0
1, 68568, Note_on_c, 0, 78, 0
1, 68580, Note_on_c, 0, 60, 80
1, 68580, Note_on_c, 0, 74, 80
1, 68628, Note_on_c, 0, 74, 0
1, 68628, Note_on_c, 0, 60, 0
1, 68640, Note_on_c, 0, 50, 80
1, 68640, Note_on_c, 0, 72, 80
1, 68640, Note_on_c, 0, 69, 80
1, 68640, Note_on_c, 0, 60, 80
1, 68640, Note_on_c, 0, 54, 80
1, 68736, Note_on_c, 0, 54, 0
1, 68736, Note_on_c, 0, 60, 0
1, 68736, Note_on_c, 0, 69, 0
1, 68736, Note_on_c, 0, 72, 0
1, 68736, Note_on_c, 0, 50, 0
1, 68760, Note_on_c, 0, 71, 80
1, 68808, Note_on_c, 0, 71, 0
1, 68820, Note_on_c, 0, 72, 80
1, 68868, Note_on_c, 0, 72, 0
1, 68880, Note_on_c, 0, 74, 80
1, 68928, Note_on_c, 0, 74, 0
1, 68940, Note_on_c, 0, 72, 80
1, 68988, Note_on_c, 0, 72, 0
1, 69000, Note_on_c, 0, 71, 80
1, 69048, Note_on_c, 0, 71, 0
1, 69060, Note_on_c, 0, 69, 80
1, 69108, Note_on_c, 0, 69, 0
1, 69120, Note_on_c, 0, 59, 80
1, 69120, Note_on_c, 0, 55, 80
1, 69120, Note_on_c, 0, 67, 80
1, 69168, Note_on_c, 0, 67, 0
1, 69180, Note_on_c, 0, 66, 80
1, 69228, Note_on_c, 0, 66, 0
1, 69240, Note_on_c, 0, 69, 80
1, 69288, Note_on_c, 0, 69, 0
1, 69300, Note_on_c, 0, 67, 80
1, 69312, Note_on_c, 0, 55, 0
1, 69312, Note_on_c, 0, 59, 0
1, 69348, Note_on_c, 0, 67, 0
1, 69360, Note_on_c, 0, 71, 80
1, 69408, Note_on_c, 0, 71, 0
1, 69420, Note_on_c, 0, 69, 80
1, 69468, Note_on_c, 0, 69, 0
1, 69480, Note_on_c, 0, 72, 80
1, 69528, Note_on_c, 0, 72, 0
1, 69540, Note_on_c, 0, 71, 80
1, 69588, Note_on_c, 0, 71, 0
1, 69600, Note_on_c, 0, 74, 80
1, 69696, Note_on_c, 0, 74, 0
1, 69720, Note_on_c, 0, 67, 80
1, 69720, Note_on_c, 0, 74, 80
1, 69720, Note_on_c, 0, 71, 80
1, 69816, Note_on_c, 0, 71, 0
1, 69816, Note_on_c, 0, 74, 0
1, 69816, Note_on_c, 0, 67, 0
1, 69840, Note_on_c, 0, 69, 80
1, 69840, Note_on_c, 0, 66, 80
1, 69840, Note_on_c, 0, 74, 80
1, 69936, Note_on_c, 0, 74, 0
1, 69936, Note_on_c, 0, 66, 0
1, 69936, Note_on_c, 0, 69, 0
1, 69960, Note_on_c, 0, 74, 80
1, 69960, Note_on_c, 0, 69, 80
1, 69960, Note_on_c, 0, 72, 80
1, 70056, Note_on_c, 0, 72, 0
1, 70056, Note_on_c, 0, 69, 0
1, 70056, Note_on_c, 0, 74, 0
1, 70080, Note_on_c, 0, 67, 80
1, 70080, Note_on_c, 0, 74, 80
1, 70080, Note_on_c, 0, 71, 80
1, 70176, Note_on_c, 0, 74, 0
1, 70200, Note_on_c, 0, 76, 80
1, 70248, Note_on_c, 0, 76, 0
1, 70260, Note_on_c, 0, 78, 80
1, 70272, Note_on_c, 0, 71, 0
1, 70272, Note_on_c, 0, 67, 0
1, 70308, Note_on_c, 0, 78, 0
1, 70320, Note_on_c, 0, 81, 80
1, 70368, Note_on_c, 0, 81, 0
1, 70380, Note_on_c, 0, 79, 80
1, 70428, Note_on_c, 0, 79, 0
1, 70440, Note_on_c, 0, 78, 80
1, 70488, Note_on_c, 0, 78, 0
1, 70500, Note_on_c, 0, 76, 80
1, 70548, Note_on_c, 0, 76, 0
1, 70560, Note_on_c, 0, 74, 80
1, 70656, Note_on_c, 0, 74, 0
1, 70680, Note_on_c, 0, 71, 80
1, 70680, Note_on_c, 0, 67, 80
1, 70680, Note_on_c, 0, 74, 80
1, 70776, Note_on_c, 0, 74, 0
1, 70776, Note_on_c, 0, 67, 0
1, 70776, Note_on_c, 0, 71, 0
1, 70800, Note_on_c, 0, 69, 80
1, 70800, Note_on_c, 0, 66, 80
1, 70800, Note_on_c, 0, 74, 80
1, 70896, Note_on_c, 0, 74, 0
1, 70896, Note_on_c, 0, 66, 0
1, 70896, Note_on_c, 0, 69, 0
1, 70920, Note_on_c, 0, 69, 80
1, 70920, Note_on_c, 0, 72, 80
1, 70920, Note_on_c, 0, 74, 80
1, 71016, Note_on_c, 0, 74, 0
1, 71016, Note_on_c, 0, 72, 0
1, 71016, Note_on_c, 0, 69, 0
1, 71040, Note_on_c, 0, 71, 80
1, 71040, Note_on_c, 0, 67, 80
1, 71040, Note_on_c, 0, 74, 80
1, 71136, Note_on_c, 0, 74, 0
1, 71160, Note_on_c, 0, 76, 80
1, 71208, Note_on_c, 0, 76, 0
1, 71220, Note_on_c, 0, 78, 80
1, 71232, Note_on_c, 0, 67, 0
1, 71232, Note_on_c, 0, 71, 0
1, 71268, Note_on_c, 0, 78, 0
1, 71280, Note_on_c, 0, 81, 80
1, 71328, Note_on_c, 0, 81, 0
1, 71340, Note_on_c, 0, 79, 80
1, 71388, Note_on_c, 0, 79, 0
1, 71400, Note_on_c, 0, 78, 80
1, 71400, Note_on_c, 0, 67, 80
1, 71400, Note_on_c, 0, 72, 80
1, 71448, Note_on_c, 0, 78, 0
1, 71460, Note_on_c, 0, 76, 80
1, 71496, Note_on_c, 0, 72, 0
1, 71496, Note_on_c, 0, 67, 0
1, 71508, Note_on_c, 0, 76, 0
1, 71520, Note_on_c, 0, 67, 80
1, 71520, Note_on_c, 0, 74, 80
1, 71520, Note_on_c, 0, 71, 80
1, 71616, Note_on_c, 0, 74, 0
1, 71640, Note_on_c, 0, 79, 80
1, 71688, Note_on_c, 0, 79, 0
1, 71700, Note_on_c, 0, 83, 80
1, 71712, Note_on_c, 0, 71, 0
1, 71712, Note_on_c, 0, 67, 0
1, 71748, Note_on_c, 0, 83, 0
1, 71760, Note_on_c, 0, 81, 80
1, 71808, Note_on_c, 0, 81, 0
1, 71820, Note_on_c, 0, 79, 80
1, 71868, Note_on_c, 0, 79, 0
1, 71880, Note_on_c, 0, 78, 80
1, 71928, Note_on_c, 0, 78, 0
1, 71940, Note_on_c, 0, 76, 80
1, 71988, Note_on_c, 0, 76, 0
1, 72000, Note_on_c, 0, 74, 80
1, 72120, Note_on_c, 0, 71, 80
1, 72192, Note_on_c, 0, 74, 0
1, 72216, Note_on_c, 0, 71, 0
1, 72240, Note_on_c, 0, 69, 80
1, 72240, Note_on_c, 0, 72, 80
1, 72288, Note_on_c, 0, 72, 0
1, 72300, Note_on_c, 0, 74, 80
1, 72324, Note_on_c, 0, 74, 0
1, 72330, Note_on_c, 0, 72, 80
1, 72336, Note_on_c, 0, 69, 0
1, 72354, Note_on_c, 0, 72, 0
1, 72360, Note_on_c, 0, 74, 80
1, 72360, Note_on_c, 0, 62, 80
1, 72384, Note_on_c, 0, 74, 0
1, 72390, Note_on_c, 0, 72, 80
1, 72414, Note_on_c, 0, 72, 0
1, 72420, Note_on_c, 0, 71, 80
1, 72444, Note_on_c, 0, 71, 0
1, 72450, Note_on_c, 0, 74, 80
1, 72456, Note_on_c, 0, 62, 0
1, 72474, Note_on_c, 0, 74, 0
1, 72480, Note_on_c, 0, 67, 80
1, 72480, Note_on_c, 0, 72, 80
1, 72576, Note_on_c, 0, 72, 0
1, 72576, Note_on_c, 0, 67, 0
1, 72600, Note_on_c, 0, 71, 80
1, 72600, Note_on_c, 0, 62, 80
1, 72696, Note_on_c, 0, 62, 0
1, 72696, Note_on_c, 0, 71, 0
1, 72720, Note_on_c, 0, 55, 80
1, 72816, Note_on_c, 0, 55, 0
1, 72840, Note_on_c, 0, 67, 80
1, 72840, Note_on_c, 0, 55, 80
1, 72840, Note_on_c, 0, 43, 80
1, 72936, Note_on_c, 0, 43, 0
1, 72936, Note_on_c, 0, 55, 0
1, 72936, Note_on_c, 0, 67, 0
1, 72960, Note_on_c, 0, 42, 80
1, 72960, Note_on_c, 0, 54, 80
1, 72960, Note_on_c, 0, 66, 80
1, 73056, Note_on_c, 0, 66, 0
1, 73056, Note_on_c, 0, 54, 0
1, 73056, Note_on_c, 0, 42, 0
1, 73080, Note_on_c, 0, 40, 80
1, 73080, Note_on_c, 0, 52, 80
1, 73080, Note_on_c, 0, 64, 80
1, 73176, Note_on_c, 0, 64, 0
1, 73176, Note_on_c, 0, 52, 0
1, 73176, Note_on_c, 0, 40, 0
1, 73200, Note_on_c, 0, 38, 80
1, 73200, Note_on_c, 0, 50, 80
1, 73200, Note_on_c, 0, 62, 80
1, 73296, Note_on_c, 0, 62, 0
1, 73296, Note_on_c, 0, 50, 0
1, 73296, Note_on_c, 0, 38, 0
1, 73320, Note_on_c, 0, 36, 80
1, 73320, Note_on_c, 0, 48, 80
1, 73320, Note_on_c, 0, 60, 80
1, 73416, Note_on_c, 0, 60, 0
1, 73416, Note_on_c, 0, 48, 0
1, 73416, Note_on_c, 0, 36, 0
1, 73440, Note_on_c, 0, 35, 80
1, 73440, Note_on_c, 0, 47, 80
1, 73440, Note_on_c, 0, 59, 80
1, 73632, Note_on_c, 0, 59, 0
1, 73632, Note_on_c, 0, 47, 0
1, 73632, Note_on_c, 0, 35, 0
1, 73800, Note_on_c, 0, 52, 80
1, 73800, Note_on_c, 0, 64, 80
1, 73824, Note_on_c, 0, 52, 0
1, 73832, Note_on_c, 0, 64, 0
1, 73840, Note_on_c, 0, 66, 80
1, 73872, Note_on_c, 0, 66, 0
1, 73880, Note_on_c, 0, 64, 80
1, 73912, Note_on_c, 0, 64, 0
1, 73920, Note_on_c, 0, 50, 80
1, 73920, Note_on_c, 0, 62, 80
1, 73944, Note_on_c, 0, 50, 0
1, 73952, Note_on_c, 0, 62, 0
1, 73960, Note_on_c, 0, 64, 80
1, 73992, Note_on_c, 0, 64, 0
1, 74000, Note_on_c, 0, 62, 80
1, 74032, Note_on_c, 0, 62, 0
1, 74040, Note_on_c, 0, 60, 80
1, 74040, Note_on_c, 0, 48, 80
1, 74064, Note_on_c, 0, 48, 0
1, 74072, Note_on_c, 0, 60, 0
1, 74080, Note_on_c, 0, 62, 80
1, 74112, Note_on_c, 0, 62, 0
1, 74120, Note_on_c, 0, 60, 80
1, 74152, Note_on_c, 0, 60, 0
1, 74160, Note_on_c, 0, 47, 80
1, 74160, Note_on_c, 0, 59, 80
1, 74184, Note_on_c, 0, 47, 0
1, 74192, Note_on_c, 0, 59, 0
1, 74200, Note_on_c, 0, 60, 80
1, 74232, Note_on_c, 0, 60, 0
1, 74240, Note_on_c, 0, 59, 80
1, 74272, Note_on_c, 0, 59, 0
1, 74280, Note_on_c, 0, 45, 80
1, 74280, Note_on_c, 0, 57, 80
1, 74304, Note_on_c, 0, 45, 0
1, 74312, Note_on_c, 0, 57, 0
1, 74320, Note_on_c, 0, 59, 80
1, 74352, Note_on_c, 0, 59, 0
1, 74360, Note_on_c, 0, 57, 80
1, 74392, Note_on_c, 0, 57, 0
1, 74400, Note_on_c, 0, 56, 80
1, 74400, Note_on_c, 0, 44, 80
1, 74424, Note_on_c, 0, 56, 0
1, 74448, Note_on_c, 0, 44, 0
1, 74460, Note_on_c, 0, 52, 80
1, 74508, Note_on_c, 0, 52, 0
1, 74520, Note_on_c, 0, 59, 80
1, 74520, Note_on_c, 0, 47, 80
1, 74544, Note_on_c, 0, 59, 0
1, 74568, Note_on_c, 0, 47, 0
1, 74580, Note_on_c, 0, 52, 80
1, 74628, Note_on_c, 0, 52, 0
1, 74640, Note_on_c, 0, 62, 80
1, 74640, Note_on_c, 0, 44, 80
1, 74664, Note_on_c, 0, 62, 0
1, 74688, Note_on_c, 0, 44, 0
1, 74700, Note_on_c, 0, 52, 80
1, 74748, Note_on_c, 0, 52, 0
1, 74760, Note_on_c, 0, 68, 80
1, 74760, Note_on_c, 0, 47, 80
1, 74784, Note_on_c, 0, 68, 0
1, 74808, Note_on_c, 0, 47, 0
1, 74820, Note_on_c, 0, 52, 80
1, 74868, Note_on_c, 0, 52, 0
1, 74880, Note_on_c, 0, 44, 80
1, 74880, Note_on_c, 0, 71, 80
1, 74904, Note_on_c, 0, 71, 0
1, 74928, Note_on_c, 0, 44, 0
1, 74940, Note_on_c, 0, 52, 80
1, 74988, Note_on_c, 0, 52, 0
1, 75000, Note_on_c, 0, 47, 80
1, 75000, Note_on_c, 0, 74, 80
1, 75024, Note_on_c, 0, 74, 0
1, 75048, Note_on_c, 0, 47, 0
1, 75060, Note_on_c, 0, 52, 80
1, 75108, Note_on_c, 0, 52, 0
1, 75120, Note_on_c, 0, 83, 80
1, 75120, Note_on_c, 0, 44, 80
1, 75168, Note_on_c, 0, 44, 0
1, 75180, Note_on_c, 0, 52, 80
1, 75228, Note_on_c, 0, 52, 0
1, 75240, Note_on_c, 0, 47, 80
1, 75264, Note_on_c, 0, 83, 0
1, 75288, Note_on_c, 0, 47, 0
1, 75300, Note_on_c, 0, 52, 80
1, 75300, Note_on_c, 0, 74, 80
1, 75348, Note_on_c, 0, 74, 0
1, 75348, Note_on_c, 0, 52, 0
1, 75360, Note_on_c, 0, 74, 80
1, 75360, Note_on_c, 0, 45, 80
1, 75408, Note_on_c, 0, 45, 0
1, 75408, Note_on_c, 0, 74, 0
1, 75420, Note_on_c, 0, 52, 80
1, 75420, Note_on_c, 0, 72, 80
1, 75468, Note_on_c, 0, 72, 0
1, 75468, Note_on_c, 0, 52, 0
1, 75480, Note_on_c, 0, 71, 80
1, 75480, Note_on_c, 0, 48, 80
1, 75528, Note_on_c, 0, 48, 0
1, 75528, Note_on_c, 0, 71, 0
1, 75540, Note_on_c, 0, 69, 80
1, 75540, Note_on_c, 0, 52, 80
1, 75588, Note_on_c, 0, 52, 0
1, 75588, Note_on_c, 0, 69, 0
1, 75600, Note_on_c, 0, 45, 80
1, 75600, Note_on_c, 0, 69, 80
1, 75624, Note_on_c, 0, 69, 0
1, 75648, Note_on_c, 0, 45, 0
1, 75660, Note_on_c, 0, 52, 80
1, 75708, Note_on_c, 0, 52, 0
1, 75720, Note_on_c, 0, 69, 80
1, 75720, Note_on_c, 0, 48, 80
1, 75744, Note_on_c, 0, 69, 0
1, 75768, Note_on_c, 0, 48, 0
1, 75780, Note_on_c, 0, 52, 80
1, 75828, Note_on_c, 0, 52, 0
1, 75840, Note_on_c, 0, 42, 80
1, 75840, Note_on_c, 0, 81, 80
1, 75840, Note_on_c, 0, 72, 80
1, 75888, Note_on_c, 0, 42, 0
1, 75900, Note_on_c, 0, 50, 80
1, 75948, Note_on_c, 0, 50, 0
1, 75960, Note_on_c, 0, 45, 80
1, 76008, Note_on_c, 0, 45, 0
1, 76020, Note_on_c, 0, 50, 80
1, 76068, Note_on_c, 0, 50, 0
1, 76080, Note_on_c, 0, 42, 80
1, 76128, Note_on_c, 0, 42, 0
1, 76128, Note_on_c, 0, 72, 0
1, 76128, Note_on_c, 0, 81, 0
1, 76140, Note_on_c, 0, 50, 80
1, 76188, Note_on_c, 0, 50, 0
1, 76200, Note_on_c, 0, 72, 80
1, 76200, Note_on_c, 0, 45, 80
1, 76224, Note_on_c, 0, 72, 0
1, 76248, Note_on_c, 0, 45, 0
1, 76260, Note_on_c, 0, 50, 80
1, 76308, Note_on_c, 0, 50, 0
1, 76320, Note_on_c, 0, 72, 80
1, 76320, Note_on_c, 0, 43, 80
1, 76368, Note_on_c, 0, 43, 0
1, 76368, Note_on_c, 0, 72, 0
1, 76380, Note_on_c, 0, 50, 80
1, 76380, Note_on_c, 0, 71, 80
1, 76428, Note_on_c, 0, 71, 0
1, 76428, Note_on_c, 0, 50, 0
1, 76440, Note_on_c, 0, 69, 80
1, 76440, Note_on_c, 0, 47, 80
1, 76488, Note_on_c, 0, 47, 0
1, 76488, Note_on_c, 0, 69, 0
1, 76500, Note_on_c, 0, 67, 80
1, 76500, Note_on_c, 0, 50, 80
1, 76548, Note_on_c, 0, 50, 0
1, 76548, Note_on_c, 0, 67, 0
1, 76560, Note_on_c, 0, 43, 80
1, 76560, Note_on_c, 0, 67, 80
1, 76584, Note_on_c, 0, 67, 0
1, 76608, Note_on_c, 0, 43, 0
1, 76620, Note_on_c, 0, 50, 80
1, 76668, Note_on_c, 0, 50, 0
1, 76680, Note_on_c, 0, 74, 80
1, 76680, Note_on_c, 0, 47, 80
1, 76704, Note_on_c, 0, 74, 0
1, 76728, Note_on_c, 0, 47, 0
1, 76740, Note_on_c, 0, 50, 80
1, 76788, Note_on_c, 0, 50, 0
1, 76800, Note_on_c, 0, 74, 80
1, 76800, Note_on_c, 0, 42, 80
1, 76848, Note_on_c, 0, 42, 0
1, 76848, Note_on_c, 0, 74, 0
1, 76860, Note_on_c, 0, 50, 80
1, 76860, Note_on_c, 0, 72, 80
1, 76908, Note_on_c, 0, 72, 0
1, 76908, Note_on_c, 0, 50, 0
1, 76920, Note_on_c, 0, 71, 80
1, 76920, Note_on_c, 0, 45, 80
1, 76968, Note_on_c, 0, 45, 0
1, 76968, Note_on_c, 0, 71, 0
1, 76980, Note_on_c, 0, 72, 80
1, 76980, Note_on_c, 0, 50, 80
1, 77028, Note_on_c, 0, 50, 0
1, 77028, Note_on_c, 0, 72, 0
1, 77040, Note_on_c, 0, 42, 80
1, 77040, Note_on_c, 0, 69, 80
1, 77064, Note_on_c, 0, 69, 0
1, 77088, Note_on_c, 0, 42, 0
1, 77100, Note_on_c, 0, 50, 80
1, 77148, Note_on_c, 0, 50, 0
1, 77160, Note_on_c, 0, 72, 80
1, 77160, Note_on_c, 0, 45, 80
1, 77184, Note_on_c, 0, 72, 0
1, 77208, Note_on_c, 0, 45, 0
1, 77220, Note_on_c, 0, 50, 80
1, 77268, Note_on_c, 0, 50, 0
1, 77280, Note_on_c, 0, 72, 80
1, 77280, Note_on_c, 0, 43, 80
1, 77328, Note_on_c, 0, 43, 0
1, 77328, Note_on_c, 0, 72, 0
1, 77340, Note_on_c, 0, 50, 80
1, 77340, Note_on_c, 0, 71, 80
1, 77388, Note_on_c, 0, 71, 0
1, 77388, Note_on_c, 0, 50, 0
1, 77400, Note_on_c, 0, 69, 80
1, 77400, Note_on_c, 0, 47, 80
1, 77448, Note_on_c, 0, 47, 0
1, 77448, Note_on_c, 0, 69, 0
1, 77460, Note_on_c, 0, 67, 80
1, 77460, Note_on_c, 0, 50, 80
1, 77508, Note_on_c, 0, 50, 0
1, 77508, Note_on_c, 0, 67, 0
1, 77520, Note_on_c, 0, 47, 80
1, 77520, Note_on_c, 0, 67, 80
1, 77544, Note_on_c, 0, 67, 0
1, 77568, Note_on_c, 0, 47, 0
1, 77580, Note_on_c, 0, 55, 80
1, 77628, Note_on_c, 0, 55, 0
1, 77640, Note_on_c, 0, 79, 80
1, 77640, Note_on_c, 0, 50, 80
1, 77664, Note_on_c, 0, 79, 0
1, 77688, Note_on_c, 0, 50, 0
1, 77700, Note_on_c, 0, 55, 80
1, 77748, Note_on_c, 0, 55, 0
1, 77760, Note_on_c, 0, 78, 80
1, 77760, Note_on_c, 0, 48, 80
1, 77808, Note_on_c, 0, 78, 0
1, 77820, Note_on_c, 0, 76, 80
1, 77868, Note_on_c, 0, 76, 0
1, 77880, Note_on_c, 0, 74, 80
1, 77928, Note_on_c, 0, 74, 0
1, 77940, Note_on_c, 0, 72, 80
1, 77952, Note_on_c, 0, 48, 0
1, 77988, Note_on_c, 0, 72, 0
1, 78000, Note_on_c, 0, 71, 80
1, 78048, Note_on_c, 0, 71, 0
1, 78060, Note_on_c, 0, 69, 80
1, 78108, Note_on_c, 0, 69, 0
1, 78120, Note_on_c, 0, 72, 80
1, 78168, Note_on_c, 0, 72, 0
1, 78180, Note_on_c, 0, 69, 80
1, 78228, Note_on_c, 0, 69, 0
1, 78240, Note_on_c, 0, 50, 80
1, 78240, Note_on_c, 0, 67, 80
1, 78336, Note_on_c, 0, 50, 0
1, 78360, Note_on_c, 0, 45, 80
1, 78432, Note_on_c, 0, 67, 0
1, 78456, Note_on_c, 0, 45, 0
1, 78480, Note_on_c, 0, 38, 80
1, 78480, Note_on_c, 0, 66, 80
1, 78576, Note_on_c, 0, 66, 0
1, 78576, Note_on_c, 0, 38, 0
1, 78600, Note_on_c, 0, 62, 80
1, 78624, Note_on_c, 0, 62, 0
1, 78720, Note_on_c, 0, 67, 80
1, 78720, Note_on_c, 0, 55, 80
1, 78768, Note_on_c, 0, 55, 0
1, 78780, Note_on_c, 0, 62, 80
1, 78828, Note_on_c, 0, 62, 0
1, 78840, Note_on_c, 0, 59, 80
1, 78888, Note_on_c, 0, 59, 0
1, 78900, Note_on_c, 0, 62, 80
1, 78912, Note_on_c, 0, 67, 0
1, 78948, Note_on_c, 0, 62, 0
1, 78960, Note_on_c, 0, 72, 80
1, 78960, Note_on_c, 0, 55, 80
1, 79008, Note_on_c, 0, 55, 0
1, 79008, Note_on_c, 0, 72, 0
1, 79020, Note_on_c, 0, 71, 80
1, 79020, Note_on_c, 0, 62, 80
1, 79068, Note_on_c, 0, 62, 0
1, 79068, Note_on_c, 0, 71, 0
1, 79080, Note_on_c, 0, 69, 80
1, 79080, Note_on_c, 0, 59, 80
1, 79128, Note_on_c, 0, 59, 0
1, 79128, Note_on_c, 0, 69, 0
1, 79140, Note_on_c, 0, 62, 80
1, 79140, Note_on_c, 0, 67, 80
1, 79188, Note_on_c, 0, 67, 0
1, 79188, Note_on_c, 0, 62, 0
1, 79200, Note_on_c, 0, 67, 80
1, 79200, Note_on_c, 0, 57, 80
1, 79248, Note_on_c, 0, 57, 0
1, 79260, Note_on_c, 0, 62, 80
1, 79296, Note_on_c, 0, 67, 0
1, 79308, Note_on_c, 0, 62, 0
1, 79320, Note_on_c, 0, 66, 80
1, 79320, Note_on_c, 0, 60, 80
1, 79368, Note_on_c, 0, 60, 0
1, 79380, Note_on_c, 0, 62, 80
1, 79416, Note_on_c, 0, 66, 0
1, 79428, Note_on_c, 0, 62, 0
1, 79440, Note_on_c, 0, 57, 80
1, 79488, Note_on_c, 0, 57, 0
1, 79500, Note_on_c, 0, 62, 80
1, 79548, Note_on_c, 0, 62, 0
1, 79560, Note_on_c, 0, 62, 80
1, 79560, Note_on_c, 0, 60, 80
1, 79584, Note_on_c, 0, 62, 0
1, 79608, Note_on_c, 0, 60, 0
1, 79620, Note_on_c, 0, 62, 80
1, 79668, Note_on_c, 0, 62, 0
1, 79680, Note_on_c, 0, 69, 80
1, 79680, Note_on_c, 0, 54, 80
1, 79728, Note_on_c, 0, 54, 0
1, 79740, Note_on_c, 0, 62, 80
1, 79788, Note_on_c, 0, 62, 0
1, 79800, Note_on_c, 0, 57, 80
1, 79848, Note_on_c, 0, 57, 0
1, 79860, Note_on_c, 0, 62, 80
1, 79872, Note_on_c, 0, 69, 0
1, 79908, Note_on_c, 0, 62, 0
1, 79920, Note_on_c, 0, 74, 80
1, 79920, Note_on_c, 0, 54, 80
1, 79968, Note_on_c, 0, 54, 0
1, 79968, Note_on_c, 0, 74, 0
1, 79980, Note_on_c, 0, 72, 80
1, 79980, Note_on_c, 0, 62, 80
1, 80028, Note_on_c, 0, 62, 0
1, 80028, Note_on_c, 0, 72, 0
1, 80040, Note_on_c, 0, 71, 80
1, 80040, Note_on_c, 0, 57, 80
1, 80088, Note_on_c, 0, 57, 0
1, 80088, Note_on_c, 0, 71, 0
1, 80100, Note_on_c, 0, 62, 80
1, 80100, Note_on_c, 0, 69, 80
1, 80148, Note_on_c, 0, 69, 0
1, 80148, Note_on_c, 0, 62, 0
1, 80160, Note_on_c, 0, 69, 80
1, 80160, Note_on_c, 0, 55, 80
1, 80208, Note_on_c, 0, 55, 0
1, 80220, Note_on_c, 0, 62, 80
1, 80256, Note_on_c, 0, 69, 0
1, 80268, Note_on_c, 0, 62, 0
1, 80280, Note_on_c, 0, 71, 80
1, 80280, Note_on_c, 0, 59, 80
1, 80328, Note_on_c, 0, 59, 0
1, 80340, Note_on_c, 0, 62, 80
1, 80376, Note_on_c, 0, 71, 0
1, 80388, Note_on_c, 0, 62, 0
1, 80400, Note_on_c, 0, 55, 80
1, 80448, Note_on_c, 0, 55, 0
1, 80460, Note_on_c, 0, 62, 80
1, 80508, Note_on_c, 0, 62, 0
1, 80520, Note_on_c, 0, 74, 80
1, 80520, Note_on_c, 0, 59, 80
1, 80544, Note_on_c, 0, 74, 0
1, 80568, Note_on_c, 0, 59, 0
1, 80580, Note_on_c, 0, 62, 80
1, 80628, Note_on_c, 0, 62, 0
1, 80640, Note_on_c, 0, 79, 80
1, 80640, Note_on_c, 0, 55, 80
1, 80688, Note_on_c, 0, 55, 0
1, 80700, Note_on_c, 0, 62, 80
1, 80748, Note_on_c, 0, 62, 0
1, 80760, Note_on_c, 0, 59, 80
1, 80808, Note_on_c, 0, 59, 0
1, 80820, Note_on_c, 0, 62, 80
1, 80832, Note_on_c, 0, 79, 0
1, 80868, Note_on_c, 0, 62, 0
1, 80880, Note_on_c, 0, 84, 80
1, 80880, Note_on_c, 0, 55, 80
1, 80928, Note_on_c, 0, 55, 0
1, 80928, Note_on_c, 0, 84, 0
1, 80940, Note_on_c, 0, 83, 80
1, 80940, Note_on_c, 0, 62, 80
1, 80988, Note_on_c, 0, 62, 0
1, 80988, Note_on_c, 0, 83, 0
1, 81000, Note_on_c, 0, 81, 80
1, 81000, Note_on_c, 0, 59, 80
1, 81048, Note_on_c, 0, 59, 0
1, 81048, Note_on_c, 0, 81, 0
1, 81060, Note_on_c, 0, 62, 80
1, 81060, Note_on_c, 0, 79, 80
1, 81108, Note_on_c, 0, 79, 0
1, 81108, Note_on_c, 0, 62, 0
1, 81120, Note_on_c, 0, 79, 80
1, 81120, Note_on_c, 0, 57, 80
1, 81168, Note_on_c, 0, 57, 0
1, 81180, Note_on_c, 0, 62, 80
1, 81216, Note_on_c, 0, 79, 0
1, 81228, Note_on_c, 0, 62, 0
1, 81240, Note_on_c, 0, 78, 80
1, 81240, Note_on_c, 0, 60, 80
1, 81288, Note_on_c, 0, 60, 0
1, 81300, Note_on_c, 0, 62, 80
1, 81336, Note_on_c, 0, 78, 0
1, 81348, Note_on_c, 0, 62, 0
1, 81360, Note_on_c, 0, 57, 80
1, 81408, Note_on_c, 0, 57, 0
1, 81420, Note_on_c, 0, 62, 80
1, 81468, Note_on_c, 0, 62, 0
1, 81480, Note_on_c, 0, 74, 80
1, 81480, Note_on_c, 0, 60, 80
1, 81504, Note_on_c, 0, 74, 0
1, 81528, Note_on_c, 0, 60, 0
1, 81540, Note_on_c, 0, 62, 80
1, 81588, Note_on_c, 0, 62, 0
1, 81600, Note_on_c, 0, 81, 80
1, 81600, Note_on_c, 0, 54, 80
1, 81648, Note_on_c, 0, 54, 0
1, 81660, Note_on_c, 0, 62, 80
1, 81708, Note_on_c, 0, 62, 0
1, 81720, Note_on_c, 0, 57, 80
1, 81768, Note_on_c, 0, 57, 0
1, 81780, Note_on_c, 0, 62, 80
1, 81792, Note_on_c, 0, 81, 0
1, 81828, Note_on_c, 0, 62, 0
1, 81840, Note_on_c, 0, 86, 80
1, 81840, Note_on_c, 0, 54, 80
1, 81888, Note_on_c, 0, 54, 0
1, 81888, Note_on_c, 0, 86, 0
1, 81900, Note_on_c, 0, 84, 80
1, 81900, Note_on_c, 0, 62, 80
1, 81948, Note_on_c, 0, 62, 0
1, 81948, Note_on_c, 0, 84, 0
1, 81960, Note_on_c, 0, 83, 80
1, 81960, Note_on_c, 0, 57, 80
1, 82008, Note_on_c, 0, 57, 0
1, 82008, Note_on_c, 0, 83, 0
1, 82020, Note_on_c, 0, 62, 80
1, 82020, Note_on_c, 0, 81, 80
1, 82068, Note_on_c, 0, 81, 0
1, 82068, Note_on_c, 0, 62, 0
1, 82080, Note_on_c, 0, 81, 80
1, 82080, Note_on_c, 0, 55, 80
1, 82128, Note_on_c, 0, 55, 0
1, 82140, Note_on_c, 0, 62, 80
1, 82176, Note_on_c, 0, 81, 0
1, 82188, Note_on_c, 0, 62, 0
1, 82200, Note_on_c, 0, 83, 80
1, 82200, Note_on_c, 0, 59, 80
1, 82248, Note_on_c, 0, 59, 0
1, 82260, Note_on_c, 0, 62, 80
1, 82296, Note_on_c, 0, 83, 0
1, 82308, Note_on_c, 0, 62, 0
1, 82320, Note_on_c, 0, 55, 80
1, 82368, Note_on_c, 0, 55, 0
1, 82380, Note_on_c, 0, 62, 80
1, 82428, Note_on_c, 0, 62, 0
1, 82440, Note_on_c, 0, 74, 80
1, 82440, Note_on_c, 0, 59, 80
1, 82464, Note_on_c, 0, 74, 0
1, 82488, Note_on_c, 0, 59, 0
1, 82500, Note_on_c, 0, 62, 80
1, 82548, Note_on_c, 0, 62, 0
1, 82560, Note_on_c, 0, 74, 80
1, 82560, Note_on_c, 0, 59, 80
1, 82608, Note_on_c, 0, 74, 0
1, 82620, Note_on_c, 0, 86, 80
1, 82668, Note_on_c, 0, 86, 0
1, 82680, Note_on_c, 0, 84, 80
1, 82728, Note_on_c, 0, 84, 0
1, 82740, Note_on_c, 0, 83, 80
1, 82752, Note_on_c, 0, 59, 0
1, 82788, Note_on_c, 0, 83, 0
1, 82800, Note_on_c, 0, 81, 80
1, 82848, Note_on_c, 0, 81, 0
1, 82860, Note_on_c, 0, 79, 80
1, 82908, Note_on_c, 0, 79, 0
1, 82920, Note_on_c, 0, 78, 80
1, 82968, Note_on_c, 0, 78, 0
1, 82980, Note_on_c, 0, 79, 80
1, 83028, Note_on_c, 0, 79, 0
1, 83040, Note_on_c, 0, 76, 80
1, 83040, Note_on_c, 0, 60, 80
1, 83064, Note_on_c, 0, 76, 0
1, 83088, Note_on_c, 0, 60, 0
1, 83100, Note_on_c, 0, 72, 80
1, 83148, Note_on_c, 0, 72, 0
1, 83160, Note_on_c, 0, 80, 80
1, 83160, Note_on_c, 0, 59, 80
1, 83184, Note_on_c, 0, 80, 0
1, 83208, Note_on_c, 0, 59, 0
1, 83220, Note_on_c, 0, 71, 80
1, 83268, Note_on_c, 0, 71, 0
1, 83280, Note_on_c, 0, 81, 80
1, 83280, Note_on_c, 0, 57, 80
1, 83304, Note_on_c, 0, 81, 0
1, 83328, Note_on_c, 0, 57, 0
1, 83340, Note_on_c, 0, 69, 80
1, 83388, Note_on_c, 0, 69, 0
1, 83400, Note_on_c, 0, 83, 80
1, 83400, Note_on_c, 0, 56, 80
1, 83424, Note_on_c, 0, 83, 0
1, 83448, Note_on_c, 0, 56, 0
1, 83460, Note_on_c, 0, 68, 80
1, 83508, Note_on_c, 0, 68, 0
1, 83520, Note_on_c, 0, 57, 80
1, 83580, Note_on_c, 0, 84, 80
1, 83628, Note_on_c, 0, 84, 0
1, 83640, Note_on_c, 0, 83, 80
1, 83688, Note_on_c, 0, 83, 0
1, 83700, Note_on_c, 0, 81, 80
1, 83712, Note_on_c, 0, 57, 0
1, 83748, Note_on_c, 0, 81, 0
1, 83760, Note_on_c, 0, 79, 80
1, 83808, Note_on_c, 0, 79, 0
1, 83820, Note_on_c, 0, 78, 80
1, 83868, Note_on_c, 0, 78, 0
1, 83880, Note_on_c, 0, 76, 80
1, 83928, Note_on_c, 0, 76, 0
1, 83940, Note_on_c, 0, 78, 80
1, 83988, Note_on_c, 0, 78, 0
1, 84000, Note_on_c, 0, 74, 80
1, 84000, Note_on_c, 0, 59, 80
1, 84024, Note_on_c, 0, 74, 0
1, 84048, Note_on_c, 0, 59, 0
1, 84060, Note_on_c, 0, 71, 80
1, 84108, Note_on_c, 0, 71, 0
1, 84120, Note_on_c, 0, 78, 80
1, 84120, Note_on_c, 0, 57, 80
1, 84144, Note_on_c, 0, 78, 0
1, 84168, Note_on_c, 0, 57, 0
1, 84180, Note_on_c, 0, 69, 80
1, 84228, Note_on_c, 0, 69, 0
1, 84240, Note_on_c, 0, 79, 80
1, 84240, Note_on_c, 0, 55, 80
1, 84264, Note_on_c, 0, 79, 0
1, 84288, Note_on_c, 0, 55, 0
1, 84300, Note_on_c, 0, 67, 80
1, 84348, Note_on_c, 0, 67, 0
1, 84360, Note_on_c, 0, 81, 80
1, 84360, Note_on_c, 0, 54, 80
1, 84384, Note_on_c, 0, 81, 0
1, 84408, Note_on_c, 0, 54, 0
1, 84420, Note_on_c, 0, 66, 80
1, 84468, Note_on_c, 0, 66, 0
1, 84480, Note_on_c, 0, 55, 80
1, 84540, Note_on_c, 0, 83, 80
1, 84588, Note_on_c, 0, 83, 0
1, 84600, Note_on_c, 0, 81, 80
1, 84648, Note_on_c, 0, 81, 0
1, 84660, Note_on_c, 0, 79, 80
1, 84672, Note_on_c, 0, 55, 0
1, 84708, Note_on_c, 0, 79, 0
1, 84720, Note_on_c, 0, 78, 80
1, 84768, Note_on_c, 0, 78, 0
1, 84780, Note_on_c, 0, 76, 80
1, 84828, Note_on_c, 0, 76, 0
1, 84840, Note_on_c, 0, 74, 80
1, 84888, Note_on_c, 0, 74, 0
1, 84900, Note_on_c, 0, 76, 80
1, 84948, Note_on_c, 0, 76, 0
1, 84960, Note_on_c, 0, 57, 80
1, 84960, Note_on_c, 0, 72, 80
1, 84984, Note_on_c, 0, 72, 0
1, 85008, Note_on_c, 0, 57, 0
1, 85020, Note_on_c, 0, 69, 80
1, 85068, Note_on_c, 0, 69, 0
1, 85080, Note_on_c, 0, 55, 80
1, 85080, Note_on_c, 0, 76, 80
1, 85104, Note_on_c, 0, 76, 0
1, 85128, Note_on_c, 0, 55, 0
1, 85140, Note_on_c, 0, 67, 80
1, 85188, Note_on_c, 0, 67, 0
1, 85200, Note_on_c, 0, 54, 80
1, 85200, Note_on_c, 0, 78, 80
1, 85224, Note_on_c, 0, 78, 0
1, 85248, Note_on_c, 0, 54, 0
1, 85260, Note_on_c, 0, 66, 80
1, 85308, Note_on_c, 0, 66, 0
1, 85320, Note_on_c, 0, 52, 80
1, 85320, Note_on_c, 0, 79, 80
1, 85344, Note_on_c, 0, 79, 0
1, 85368, Note_on_c, 0, 52, 0
1, 85380, Note_on_c, 0, 64, 80
1, 85428, Note_on_c, 0, 64, 0
1, 85440, Note_on_c, 0, 54, 80
1, 85500, Note_on_c, 0, 81, 80
1, 85548, Note_on_c, 0, 81, 0
1, 85560, Note_on_c, 0, 79, 80
1, 85608, Note_on_c, 0, 79, 0
1, 85620, Note_on_c, 0, 78, 80
1, 85632, Note_on_c, 0, 54, 0
1, 85668, Note_on_c, 0, 78, 0
1, 85680, Note_on_c, 0, 76, 80
1, 85728, Note_on_c, 0, 76, 0
1, 85740, Note_on_c, 0, 74, 80
1, 85788, Note_on_c, 0, 74, 0
1, 85800, Note_on_c, 0, 76, 80
1, 85848, Note_on_c, 0, 76, 0
1, 85860, Note_on_c, 0, 72, 80
1, 85908, Note_on_c, 0, 72, 0
1, 85920, Note_on_c, 0, 74, 80
1, 85920, Note_on_c, 0, 55, 80
1, 85968, Note_on_c, 0, 55, 0
1, 85980, Note_on_c, 0, 62, 80
1, 86016, Note_on_c, 0, 74, 0
1, 86028, Note_on_c, 0, 62, 0
1, 86040, Note_on_c, 0, 79, 80
1, 86040, Note_on_c, 0, 59, 80
1, 86088, Note_on_c, 0, 59, 0
1, 86100, Note_on_c, 0, 62, 80
1, 86136, Note_on_c, 0, 79, 0
1, 86148, Note_on_c, 0, 62, 0
1, 86160, Note_on_c, 0, 78, 80
1, 86160, Note_on_c, 0, 57, 80
1, 86208, Note_on_c, 0, 57, 0
1, 86220, Note_on_c, 0, 62, 80
1, 86256, Note_on_c, 0, 78, 0
1, 86268, Note_on_c, 0, 62, 0
1, 86280, Note_on_c, 0, 60, 80
1, 86280, Note_on_c, 0, 86, 80
1, 86328, Note_on_c, 0, 60, 0
1, 86340, Note_on_c, 0, 62, 80
1, 86376, Note_on_c, 0, 86, 0
1, 86388, Note_on_c, 0, 62, 0
1, 86400, Note_on_c, 0, 83, 80
1, 86400, Note_on_c, 0, 55, 80
1, 86448, Note_on_c, 0, 55, 0
1, 86460, Note_on_c, 0, 62, 80
1, 86496, Note_on_c, 0, 83, 0
1, 86508, Note_on_c, 0, 62, 0
1, 86520, Note_on_c, 0, 79, 80
1, 86520, Note_on_c, 0, 59, 80
1, 86568, Note_on_c, 0, 59, 0
1, 86580, Note_on_c, 0, 62, 80
1, 86616, Note_on_c, 0, 79, 0
1, 86628, Note_on_c, 0, 62, 0
1, 86640, Note_on_c, 0, 78, 80
1, 86640, Note_on_c, 0, 57, 80
1, 86688, Note_on_c, 0, 57, 0
1, 86700, Note_on_c, 0, 62, 80
1, 86736, Note_on_c, 0, 78, 0
1, 86748, Note_on_c, 0, 62, 0
1, 86760, Note_on_c, 0, 60, 80
1, 86760, Note_on_c, 0, 72, 80
1, 86808, Note_on_c, 0, 60, 0
1, 86820, Note_on_c, 0, 62, 80
1, 86856, Note_on_c, 0, 72, 0
1, 86868, Note_on_c, 0, 62, 0
1, 86880, Note_on_c, 0, 71, 80
1, 86880, Note_on_c, 0, 55, 80
1, 86904, Note_on_c, 0, 71, 0
1, 86928, Note_on_c, 0, 55, 0
1, 86940, Note_on_c, 0, 62, 80
1, 86988, Note_on_c, 0, 62, 0
1, 87000, Note_on_c, 0, 79, 80
1, 87000, Note_on_c, 0, 59, 80
1, 87032, Note_on_c, 0, 79, 0
1, 87040, Note_on_c, 0, 81, 80
1, 87048, Note_on_c, 0, 59, 0
1, 87060, Note_on_c, 0, 62, 80
1, 87072, Note_on_c, 0, 81, 0
1, 87080, Note_on_c, 0, 79, 80
1, 87108, Note_on_c, 0, 62, 0
1, 87112, Note_on_c, 0, 79, 0
1, 87120, Note_on_c, 0, 57, 80
1, 87120, Note_on_c, 0, 78, 80
1, 87168, Note_on_c, 0, 57, 0
1, 87180, Note_on_c, 0, 62, 80
1, 87216, Note_on_c, 0, 78, 0
1, 87228, Note_on_c, 0, 62, 0
1, 87240, Note_on_c, 0, 86, 80
1, 87240, Note_on_c, 0, 60, 80
1, 87264, Note_on_c, 0, 86, 0
1, 87288, Note_on_c, 0, 60, 0
1, 87300, Note_on_c, 0, 62, 80
1, 87348, Note_on_c, 0, 62, 0
1, 87360, Note_on_c, 0, 83, 80
1, 87360, Note_on_c, 0, 55, 80
1, 87384, Note_on_c, 0, 83, 0
1, 87408, Note_on_c, 0, 55, 0
1, 87420, Note_on_c, 0, 62, 80
1, 87468, Note_on_c, 0, 62, 0
1, 87480, Note_on_c, 0, 79, 80
1, 87480, Note_on_c, 0, 59, 80
1, 87504, Note_on_c, 0, 79, 0
1, 87528, Note_on_c, 0, 59, 0
1, 87540, Note_on_c, 0, 62, 80
1, 87588, Note_on_c, 0, 62, 0
1, 87600, Note_on_c, 0, 78, 80
1, 87600, Note_on_c, 0, 57, 80
1, 87624, Note_on_c, 0, 78, 0
1, 87648, Note_on_c, 0, 57, 0
1, 87660, Note_on_c, 0, 62, 80
1, 87708, Note_on_c, 0, 62, 0
1, 87720, Note_on_c, 0, 72, 80
1, 87720, Note_on_c, 0, 60, 80
1, 87744, Note_on_c, 0, 72, 0
1, 87768, Note_on_c, 0, 60, 0
1, 87780, Note_on_c, 0, 62, 80
1, 87828, Note_on_c, 0, 62, 0
1, 87840, Note_on_c, 0, 55, 80
1, 87840, Note_on_c, 0, 71, 80
1, 87888, Note_on_c, 0, 55, 0
1, 87900, Note_on_c, 0, 62, 80
1, 87936, Note_on_c, 0, 71, 0
1, 87948, Note_on_c, 0, 62, 0
1, 87960, Note_on_c, 0, 59, 80
1, 87960, Note_on_c, 0, 79, 80
1, 88008, Note_on_c, 0, 59, 0
1, 88020, Note_on_c, 0, 62, 80
1, 88056, Note_on_c, 0, 79, 0
1, 88068, Note_on_c, 0, 62, 0
1, 88080, Note_on_c, 0, 59, 80
1, 88080, Note_on_c, 0, 77, 80
1, 88128, Note_on_c, 0, 59, 0
1, 88140, Note_on_c, 0, 67, 80
1, 88176, Note_on_c, 0, 77, 0
1, 88188, Note_on_c, 0, 67, 0
1, 88200, Note_on_c, 0, 62, 80
1, 88200, Note_on_c, 0, 74, 80
1, 88248, Note_on_c, 0, 62, 0
1, 88260, Note_on_c, 0, 67, 80
1, 88296, Note_on_c, 0, 74, 0
1, 88308, Note_on_c, 0, 67, 0
1, 88320, Note_on_c, 0, 75, 80
1, 88320, Note_on_c, 0, 60, 80
1, 88368, Note_on_c, 0, 60, 0
1, 88380, Note_on_c, 0, 67, 80
1, 88428, Note_on_c, 0, 67, 0
1, 88440, Note_on_c, 0, 64, 80
1, 88488, Note_on_c, 0, 64, 0
1, 88500, Note_on_c, 0, 67, 80
1, 88512, Note_on_c, 0, 75, 0
1, 88548, Note_on_c, 0, 67, 0
1, 88560, Note_on_c, 0, 76, 80
1, 88560, Note_on_c, 0, 60, 80
1, 88608, Note_on_c, 0, 76, 0
1, 88656, Note_on_c, 0, 60, 0
1, 88680, Note_on_c, 0, 76, 80
1, 88728, Note_on_c, 0, 76, 0
1, 88740, Note_on_c, 0, 72, 80
1, 88788, Note_on_c, 0, 72, 0
1, 88800, Note_on_c, 0, 74, 80
1, 88848, Note_on_c, 0, 74, 0
1, 88860, Note_on_c, 0, 71, 80
1, 88908, Note_on_c, 0, 71, 0
1, 88920, Note_on_c, 0, 72, 80
1, 88968, Note_on_c, 0, 72, 0
1, 88980, Note_on_c, 0, 69, 80
1, 89028, Note_on_c, 0, 69, 0
1, 89040, Note_on_c, 0, 71, 80
1, 89088, Note_on_c, 0, 71, 0
1, 89100, Note_on_c, 0, 67, 80
1, 89148, Note_on_c, 0, 67, 0
1, 89160, Note_on_c, 0, 69, 80
1, 89160, Note_on_c, 0, 50, 80
1, 89208, Note_on_c, 0, 69, 0
1, 89220, Note_on_c, 0, 66, 80
1, 89256, Note_on_c, 0, 50, 0
1, 89268, Note_on_c, 0, 66, 0
1, 89280, Note_on_c, 0, 67, 80
1, 89280, Note_on_c, 0, 52, 80
1, 89304, Note_on_c, 0, 67, 0
1, 89328, Note_on_c, 0, 52, 0
1, 89340, Note_on_c, 0, 61, 80
1, 89388, Note_on_c, 0, 61, 0
1, 89400, Note_on_c, 0, 55, 80
1, 89400, Note_on_c, 0, 79, 80
1, 89424, Note_on_c, 0, 79, 0
1, 89448, Note_on_c, 0, 55, 0
1, 89460, Note_on_c, 0, 61, 80
1, 89508, Note_on_c, 0, 61, 0
1, 89520, Note_on_c, 0, 79, 80
1, 89520, Note_on_c, 0, 52, 80
1, 89544, Note_on_c, 0, 79, 0
1, 89568, Note_on_c, 0, 52, 0
1, 89580, Note_on_c, 0, 61, 80
1, 89628, Note_on_c, 0, 61, 0
1, 89640, Note_on_c, 0, 55, 80
1, 89640, Note_on_c, 0, 81, 80
1, 89664, Note_on_c, 0, 81, 0
1, 89670, Note_on_c, 0, 79, 80
1, 89688, Note_on_c, 0, 55, 0
1, 89694, Note_on_c, 0, 79, 0
1, 89700, Note_on_c, 0, 78, 80
1, 89700, Note_on_c, 0, 61, 80
1, 89724, Note_on_c, 0, 78, 0
1, 89730, Note_on_c, 0, 79, 80
1, 89748, Note_on_c, 0, 61, 0
1, 89754, Note_on_c, 0, 79, 0
1, 89760, Note_on_c, 0, 50, 80
1, 89760, Note_on_c, 0, 78, 80
1, 89808, Note_on_c, 0, 50, 0
1, 89820, Note_on_c, 0, 62, 80
1, 89856, Note_on_c, 0, 78, 0
1, 89868, Note_on_c, 0, 62, 0
1, 89880, Note_on_c, 0, 54, 80
1, 89880, Note_on_c, 0, 72, 80
1, 89904, Note_on_c, 0, 72, 0
1, 89928, Note_on_c, 0, 54, 0
1, 89940, Note_on_c, 0, 62, 80
1, 89988, Note_on_c, 0, 62, 0
1, 90000, Note_on_c, 0, 72, 80
1, 90000, Note_on_c, 0, 50, 80
1, 90024, Note_on_c, 0, 72, 0
1, 90048, Note_on_c, 0, 50, 0
1, 90060, Note_on_c, 0, 62, 80
1, 90108, Note_on_c, 0, 62, 0
1, 90120, Note_on_c, 0, 54, 80
1, 90120, Note_on_c, 0, 74, 80
1, 90144, Note_on_c, 0, 74, 0
1, 90150, Note_on_c, 0, 72, 80
1, 90168, Note_on_c, 0, 54, 0
1, 90174, Note_on_c, 0, 72, 0
1, 90180, Note_on_c, 0, 71, 80
1, 90180, Note_on_c, 0, 62, 80
1, 90204, Note_on_c, 0, 71, 0
1, 90210, Note_on_c, 0, 72, 80
1, 90228, Note_on_c, 0, 62, 0
1, 90234, Note_on_c, 0, 72, 0
1, 90240, Note_on_c, 0, 55, 80
1, 90240, Note_on_c, 0, 71, 80
1, 90288, Note_on_c, 0, 55, 0
1, 90300, Note_on_c, 0, 62, 80
1, 90336, Note_on_c, 0, 71, 0
1, 90348, Note_on_c, 0, 62, 0
1, 90360, Note_on_c, 0, 59, 80
1, 90360, Note_on_c, 0, 65, 80
1, 90384, Note_on_c, 0, 65, 0
1, 90408, Note_on_c, 0, 59, 0
1, 90420, Note_on_c, 0, 62, 80
1, 90468, Note_on_c, 0, 62, 0
1, 90480, Note_on_c, 0, 65, 80
1, 90480, Note_on_c, 0, 55, 80
1, 90504, Note_on_c, 0, 65, 0
1, 90528, Note_on_c, 0, 55, 0
1, 90540, Note_on_c, 0, 62, 80
1, 90588, Note_on_c, 0, 62, 0
1, 90600, Note_on_c, 0, 59, 80
1, 90600, Note_on_c, 0, 67, 80
1, 90624, Note_on_c, 0, 67, 0
1, 90630, Note_on_c, 0, 65, 80
1, 90648, Note_on_c, 0, 59, 0
1, 90654, Note_on_c, 0, 65, 0
1, 90660, Note_on_c, 0, 64, 80
1, 90660, Note_on_c, 0, 62, 80
1, 90684, Note_on_c, 0, 64, 0
1, 90690, Note_on_c, 0, 65, 80
1, 90708, Note_on_c, 0, 62, 0
1, 90714, Note_on_c, 0, 65, 0
1, 90720, Note_on_c, 0, 64, 80
1, 90720, Note_on_c, 0, 60, 80
1, 90816, Note_on_c, 0, 64, 0
1, 90840, Note_on_c, 0, 75, 80
1, 90888, Note_on_c, 0, 75, 0
1, 90900, Note_on_c, 0, 76, 80
1, 90912, Note_on_c, 0, 60, 0
1, 90948, Note_on_c, 0, 76, 0
1, 90960, Note_on_c, 0, 74, 80
1, 91008, Note_on_c, 0, 74, 0
1, 91020, Note_on_c, 0, 72, 80
1, 91068, Note_on_c, 0, 72, 0
1, 91080, Note_on_c, 0, 71, 80
1, 91128, Note_on_c, 0, 71, 0
1, 91140, Note_on_c, 0, 69, 80
1, 91188, Note_on_c, 0, 69, 0
1, 91200, Note_on_c, 0, 67, 80
1, 91320, Note_on_c, 0, 47, 80
1, 91392, Note_on_c, 0, 67, 0
1, 91416, Note_on_c, 0, 47, 0
1, 91440, Note_on_c, 0, 69, 80
1, 91440, Note_on_c, 0, 48, 80
1, 91488, Note_on_c, 0, 69, 0
1, 91500, Note_on_c, 0, 71, 80
1, 91524, Note_on_c, 0, 71, 0
1, 91530, Note_on_c, 0, 69, 80
1, 91536, Note_on_c, 0, 48, 0
1, 91554, Note_on_c, 0, 69, 0
1, 91560, Note_on_c, 0, 71, 80
1, 91560, Note_on_c, 0, 50, 80
1, 91584, Note_on_c, 0, 71, 0
1, 91590, Note_on_c, 0, 69, 80
1, 91614, Note_on_c, 0, 69, 0
1, 91620, Note_on_c, 0, 71, 80
1, 91644, Note_on_c, 0, 71, 0
1, 91650, Note_on_c, 0, 69, 80
1, 91656, Note_on_c, 0, 50, 0
1, 91674, Note_on_c, 0, 69, 0
1, 91680, Note_on_c, 0, 67, 80
1, 91680, Note_on_c, 0, 52, 80
1, 91704, Note_on_c, 0, 67, 0
1, 91728, Note_on_c, 0, 52, 0
1, 91740, Note_on_c, 0, 61, 80
1, 91788, Note_on_c, 0, 61, 0
1, 91800, Note_on_c, 0, 55, 80
1, 91800, Note_on_c, 0, 79, 80
1, 91824, Note_on_c, 0, 79, 0
1, 91848, Note_on_c, 0, 55, 0
1, 91860, Note_on_c, 0, 61, 80
1, 91908, Note_on_c, 0, 61, 0
1, 91920, Note_on_c, 0, 79, 80
1, 91920, Note_on_c, 0, 52, 80
1, 91944, Note_on_c, 0, 79, 0
1, 91968, Note_on_c, 0, 52, 0
1, 91980, Note_on_c, 0, 61, 80
1, 92028, Note_on_c, 0, 61, 0
1, 92040, Note_on_c, 0, 55, 80
1, 92040, Note_on_c, 0, 81, 80
1, 92064, Note_on_c, 0, 81, 0
1, 92070, Note_on_c, 0, 79, 80
1, 92088, Note_on_c, 0, 55, 0
1, 92094, Note_on_c, 0, 79, 0
1, 92100, Note_on_c, 0, 61, 80
1, 92100, Note_on_c, 0, 78, 80
1, 92124, Note_on_c, 0, 78, 0
1, 92130, Note_on_c, 0, 79, 80
1, 92148, Note_on_c, 0, 61, 0
1, 92154, Note_on_c, 0, 79, 0
1, 92160, Note_on_c, 0, 78, 80
1, 92160, Note_on_c, 0, 50, 80
1, 92208, Note_on_c, 0, 50, 0
1, 92220, Note_on_c, 0, 62, 80
1, 92256, Note_on_c, 0, 78, 0
1, 92268, Note_on_c, 0, 62, 0
1, 92280, Note_on_c, 0, 54, 80
1, 92280, Note_on_c, 0, 72, 80
1, 92304, Note_on_c, 0, 72, 0
1, 92328, Note_on_c, 0, 54, 0
1, 92340, Note_on_c, 0, 62, 80
1, 92388, Note_on_c, 0, 62, 0
1, 92400, Note_on_c, 0, 72, 80
1, 92400, Note_on_c, 0, 50, 80
1, 92424, Note_on_c, 0, 72, 0
1, 92448, Note_on_c, 0, 50, 0
1, 92460, Note_on_c, 0, 62, 80
1, 92508, Note_on_c, 0, 62, 0
1, 92520, Note_on_c, 0, 54, 80
1, 92520, Note_on_c, 0, 74, 80
1, 92544, Note_on_c, 0, 74, 0
1, 92550, Note_on_c, 0, 72, 80
1, 92568, Note_on_c, 0, 54, 0
1, 92574, Note_on_c, 0, 72, 0
1, 92580, Note_on_c, 0, 62, 80
1, 92580, Note_on_c, 0, 71, 80
1, 92604, Note_on_c, 0, 71, 0
1, 92610, Note_on_c, 0, 72, 80
1, 92628, Note_on_c, 0, 62, 0
1, 92634, Note_on_c, 0, 72, 0
1, 92640, Note_on_c, 0, 71, 80
1, 92640, Note_on_c, 0, 55, 80
1, 92688, Note_on_c, 0, 55, 0
1, 92700, Note_on_c, 0, 62, 80
1, 92736, Note_on_c, 0, 71, 0
1, 92748, Note_on_c, 0, 62, 0
1, 92760, Note_on_c, 0, 59, 80
1, 92760, Note_on_c, 0, 65, 80
1, 92784, Note_on_c, 0, 65, 0
1, 92808, Note_on_c, 0, 59, 0
1, 92820, Note_on_c, 0, 62, 80
1, 92868, Note_on_c, 0, 62, 0
1, 92880, Note_on_c, 0, 65, 80
1, 92880, Note_on_c, 0, 55, 80
1, 92904, Note_on_c, 0, 65, 0
1, 92928, Note_on_c, 0, 55, 0
1, 92940, Note_on_c, 0, 62, 80
1, 92988, Note_on_c, 0, 62, 0
1, 93000, Note_on_c, 0, 59, 80
1, 93000, Note_on_c, 0, 67, 80
1, 93024, Note_on_c, 0, 67, 0
1, 93030, Note_on_c, 0, 65, 80
1, 93048, Note_on_c, 0, 59, 0
1, 93054, Note_on_c, 0, 65, 0
1, 93060, Note_on_c, 0, 62, 80
1, 93060, Note_on_c, 0, 64, 80
1, 93084, Note_on_c, 0, 64, 0
1, 93090, Note_on_c, 0, 65, 80
1, 93108, Note_on_c, 0, 62, 0
1, 93114, Note_on_c, 0, 65, 0
1, 93120, Note_on_c, 0, 64, 80
1, 93120, Note_on_c, 0, 60, 80
1, 93216, Note_on_c, 0, 64, 0
1, 93240, Note_on_c, 0, 75, 80
1, 93288, Note_on_c, 0, 75, 0
1, 93300, Note_on_c, 0, 76, 80
1, 93312, Note_on_c, 0, 60, 0
1, 93348, Note_on_c, 0, 76, 0
1, 93360, Note_on_c, 0, 74, 80
1, 93408, Note_on_c, 0, 74, 0
1, 93420, Note_on_c, 0, 72, 80
1, 93468, Note_on_c, 0, 72, 0
1, 93480, Note_on_c, 0, 71, 80
1, 93528, Note_on_c, 0, 71, 0
1, 93540, Note_on_c, 0, 69, 80
1, 93588, Note_on_c, 0, 69, 0
1, 93600, Note_on_c, 0, 67, 80
1, 93720, Note_on_c, 0, 47, 80
1, 93792, Note_on_c, 0, 67, 0
1, 93816, Note_on_c, 0, 47, 0
1, 93840, Note_on_c, 0, 69, 80
1, 93840, Note_on_c, 0, 48, 80
1, 93888, Note_on_c, 0, 69, 0
1, 93900, Note_on_c, 0, 71, 80
1, 93924, Note_on_c, 0, 71, 0
1, 93930, Note_on_c, 0, 69, 80
1, 93936, Note_on_c, 0, 48, 0
1, 93954, Note_on_c, 0, 69, 0
1, 93960, Note_on_c, 0, 50, 80
1, 93960, Note_on_c, 0, 71, 80
1, 93984, Note_on_c, 0, 71, 0
1, 93990, Note_on_c, 0, 69, 80
1, 94014, Note_on_c, 0, 69, 0
1, 94020, Note_on_c, 0, 71, 80
1, 94044, Note_on_c, 0, 71, 0
1, 94050, Note_on_c, 0, 69, 80
1, 94056, Note_on_c, 0, 50, 0
1, 94074, Note_on_c, 0, 69, 0
1, 94080, Note_on_c, 0, 55, 80
1, 94080, Note_on_c, 0, 71, 80
1, 94128, Note_on_c, 0, 71, 0
1, 94140, Note_on_c, 0, 67, 80
1, 94176, Note_on_c, 0, 55, 0
1, 94188, Note_on_c, 0, 67, 0
1, 94200, Note_on_c, 0, 79, 80
1, 94200, Note_on_c, 0, 47, 80
1, 94248, Note_on_c, 0, 79, 0
1, 94260, Note_on_c, 0, 74, 80
1, 94296, Note_on_c, 0, 47, 0
1, 94308, Note_on_c, 0, 74, 0
1, 94320, Note_on_c, 0, 48, 80
1, 94320, Note_on_c, 0, 76, 80
1, 94368, Note_on_c, 0, 76, 0
1, 94380, Note_on_c, 0, 71, 80
1, 94428, Note_on_c, 0, 71, 0
1, 94440, Note_on_c, 0, 72, 80
1, 94488, Note_on_c, 0, 72, 0
1, 94500, Note_on_c, 0, 69, 80
1, 94512, Note_on_c, 0, 48, 0
1, 94548, Note_on_c, 0, 69, 0
1, 94560, Note_on_c, 0, 67, 80
1, 94680, Note_on_c, 0, 47, 80
1, 94752, Note_on_c, 0, 67, 0
1, 94776, Note_on_c, 0, 47, 0
1, 94800, Note_on_c, 0, 69, 80
1, 94800, Note_on_c, 0, 48, 80
1, 94848, Note_on_c, 0, 69, 0
1, 94860, Note_on_c, 0, 71, 80
1, 94884, Note_on_c, 0, 71, 0
1, 94890, Note_on_c, 0, 69, 80
1, 94896, Note_on_c, 0, 48, 0
1, 94914, Note_on_c, 0, 69, 0
1, 94920, Note_on_c, 0, 71, 80
1, 94920, Note_on_c, 0, 50, 80
1, 94944, Note_on_c, 0, 71, 0
1, 94950, Note_on_c, 0, 69, 80
1, 94974, Note_on_c, 0, 69, 0
1, 94980, Note_on_c, 0, 71, 80
1, 95004, Note_on_c, 0, 71, 0
1, 95010, Note_on_c, 0, 69, 80
1, 95016, Note_on_c, 0, 50, 0
1, 95034, Note_on_c, 0, 69, 0
1, 95040, Note_on_c, 0, 67, 80
1, 95040, Note_on_c, 0, 43, 80
1, 95088, Note_on_c, 0, 43, 0
1, 95100, Note_on_c, 0, 55, 80
1, 95136, Note_on_c, 0, 67, 0
1, 95148, Note_on_c, 0, 55, 0
1, 95160, Note_on_c, 0, 43, 80
1, 95208, Note_on_c, 0, 43, 0
1, 95220, Note_on_c, 0, 55, 80
1, 95268, Note_on_c, 0, 55, 0
1, 95280, Note_on_c, 0, 66, 80
1, 95280, Note_on_c, 0, 60, 80
1, 95280, Note_on_c, 0, 43, 80
1, 95328, Note_on_c, 0, 43, 0
1, 95340, Note_on_c, 0, 55, 80
1, 95376, Note_on_c, 0, 60, 0
1, 95376, Note_on_c, 0, 66, 0
1, 95388, Note_on_c, 0, 55, 0
1, 95400, Note_on_c, 0, 43, 80
1, 95448, Note_on_c, 0, 43, 0
1, 95460, Note_on_c, 0, 55, 80
1, 95508, Note_on_c, 0, 55, 0
1, 95520, Note_on_c, 0, 71, 80
1, 95520, Note_on_c, 0, 67, 80
1, 95520, Note_on_c, 0, 43, 80
1, 95568, Note_on_c, 0, 43, 0
1, 95580, Note_on_c, 0, 55, 80
1, 95616, Note_on_c, 0, 67, 0
1, 95616, Note_on_c, 0, 71, 0
1, 95628, Note_on_c, 0, 55, 0
1, 95640, Note_on_c, 0, 43, 80
1, 95688, Note_on_c, 0, 43, 0
1, 95700, Note_on_c, 0, 55, 80
1, 95748, Note_on_c, 0, 55, 0
1, 95760, Note_on_c, 0, 66, 80
1, 95760, Note_on_c, 0, 60, 80
1, 95760, Note_on_c, 0, 43, 80
1, 95808, Note_on_c, 0, 43, 0
1, 95820, Note_on_c, 0, 55, 80
1, 95856, Note_on_c, 0, 60, 0
1, 95856, Note_on_c, 0, 66, 0
1, 95868, Note_on_c, 0, 55, 0
1, 95880, Note_on_c, 0, 43, 80
1, 95928, Note_on_c, 0, 43, 0
1, 95940, Note_on_c, 0, 55, 80
1, 95988, Note_on_c, 0, 55, 0
1, 96000, Note_on_c, 0, 67, 80
1, 96000, Note_on_c, 0, 62, 80
1, 96000, Note_on_c, 0, 59, 80
1, 96000, Note_on_c, 0, 43, 80
1, 96192, Note_on_c, 0, 43, 0
1, 96192, Note_on_c, 0, 59, 0
1, 96192, Note_on_c, 0, 62, 0
1, 96192, Note_on_c, 0, 67, 0
1, 96202, End_track
0, 0, End_of_file