0, 0, Header, 0, 1, 1024
1, 0, Start_track
1, 0, Tempo, 375000
1, 0, Note_on_c, 0, 71, 75
1, 0, Note_on_c, 0, 64, 75
1, 0, Note_on_c, 0, 68, 75
1, 1024, Note_on_c, 0, 71, 0
1, 1024, Note_on_c, 0, 71, 75
1, 1024, Note_on_c, 0, 64, 0
1, 1024, Note_on_c, 0, 68, 0
1, 1024, Note_on_c, 0, 64, 75
1, 1024, Note_on_c, 0, 68, 75
1, 2048, Note_on_c, 0, 71, 0
1, 2048, Note_on_c, 0, 71, 75
1, 2048, Note_on_c, 0, 64, 0
1, 2048, Note_on_c, 0, 68, 0
1, 2048, Note_on_c, 0, 64, 75
1, 2048, Note_on_c, 0, 68, 75
1, 3072, Note_on_c, 0, 71, 0
1, 3072, Note_on_c, 0, 64, 0
1, 3072, Note_on_c, 0, 68, 0
1, 3072, Note_on_c, 0, 71, 75
1, 3072, Note_on_c, 0, 64, 75
1, 3072, Note_on_c, 0, 68, 75
1, 3200, Note_on_c, 0, 71, 0
1, 3200, Note_on_c, 0, 73, 75
1, 3328, Note_on_c, 0, 73, 0
1, 3328, Note_on_c, 0, 71, 75
1, 3456, Note_on_c, 0, 71, 0
1, 3456, Note_on_c, 0, 73, 75
1, 3584, Note_on_c, 0, 73, 0
1, 3584, Note_on_c, 0, 71, 75
1, 3712, Note_on_c, 0, 71, 0
1, 3712, Note_on_c, 0, 73, 75
1, 3840, Note_on_c, 0, 73, 0
1, 3840, Note_on_c, 0, 71, 75
1, 3968, Note_on_c, 0, 71, 0
1, 3968, Note_on_c, 0, 73, 75
1, 4096, Note_on_c, 0, 73, 0
1, 4096, Note_on_c, 0, 71, 75
1, 4096, Note_on_c, 0, 64, 0
1, 4096, Note_on_c, 0, 68, 0
1, 4096, Note_on_c, 0, 64, 75
1, 4096, Note_on_c, 0, 68, 75
1, 4224, Note_on_c, 0, 71, 0
1, 4224, Note_on_c, 0, 73, 75
1, 4352, Note_on_c, 0, 73, 0
1, 4352, Note_on_c, 0, 71, 75
1, 4480, Note_on_c, 0, 71, 0
1, 4480, Note_on_c, 0, 73, 75
1, 4608, Note_on_c, 0, 73, 0
1, 4608, Note_on_c, 0, 71, 75
1, 4736, Note_on_c, 0, 71, 0
1, 4736, Note_on_c, 0, 73, 75
1, 4864, Note_on_c, 0, 73, 0
1, 4864, Note_on_c, 0, 71, 75
1, 4992, Note_on_c, 0, 71, 0
1, 4992, Note_on_c, 0, 73, 75
1, 5120, Note_on_c, 0, 73, 0
1, 5120, Note_on_c, 0, 76, 75
1, 5120, Note_on_c, 0, 64, 0
1, 5120, Note_on_c, 0, 68, 0
1, 5120, Note_on_c, 0, 64, 75
1, 5120, Note_on_c, 0, 68, 75
1, 5632, Note_on_c, 0, 76, 0
1, 5632, Note_on_c, 0, 75, 75
1, 6144, Note_on_c, 0, 75, 0
1, 6144, Note_on_c, 0, 64, 0
1, 6144, Note_on_c, 0, 68, 0
1, 6144, Note_on_c, 0, 75, 75
1, 6144, Note_on_c, 0, 64, 75
1, 6144, Note_on_c, 0, 69, 75
1, 6656, Note_on_c, 0, 75, 0
1, 6656, Note_on_c, 0, 73, 75
1, 7168, Note_on_c, 0, 73, 0
1, 7168, Note_on_c, 0, 73, 75
1, 7168, Note_on_c, 0, 64, 0
1, 7168, Note_on_c, 0, 69, 0
1, 7168, Note_on_c, 0, 64, 75
1, 7168, Note_on_c, 0, 69, 75
1, 7680, Note_on_c, 0, 73, 0
1, 7680, Note_on_c, 0, 81, 75
1, 8192, Note_on_c, 0, 81, 0
1, 8192, Note_on_c, 0, 81, 75
1, 8192, Note_on_c, 0, 64, 0
1, 8192, Note_on_c, 0, 69, 0
1, 8192, Note_on_c, 0, 64, 75
1, 8192, Note_on_c, 0, 69, 75
1, 8704, Note_on_c, 0, 81, 0
1, 8704, Note_on_c, 0, 73, 75
1, 9216, Note_on_c, 0, 73, 0
1, 9216, Note_on_c, 0, 64, 0
1, 9216, Note_on_c, 0, 69, 0
1, 9216, Note_on_c, 0, 73, 75
1, 9216, Note_on_c, 0, 64, 75
1, 9216, Note_on_c, 0, 69, 75
1, 9344, Note_on_c, 0, 73, 0
1, 9344, Note_on_c, 0, 75, 75
1, 9472, Note_on_c, 0, 75, 0
1, 9472, Note_on_c, 0, 73, 75
1, 9600, Note_on_c, 0, 73, 0
1, 9600, Note_on_c, 0, 75, 75
1, 9728, Note_on_c, 0, 75, 0
1, 9728, Note_on_c, 0, 71, 75
1, 10240, Note_on_c, 0, 71, 0
1, 10240, Note_on_c, 0, 71, 75
1, 10240, Note_on_c, 0, 64, 0
1, 10240, Note_on_c, 0, 69, 0
1, 10240, Note_on_c, 0, 64, 75
1, 10240, Note_on_c, 0, 68, 75
1, 11264, Note_on_c, 0, 64, 0
1, 11264, Note_on_c, 0, 68, 0
1, 11776, Note_on_c, 0, 71, 0
1, 11776, Note_on_c, 0, 83, 75
1, 12288, Note_on_c, 0, 83, 0
1, 12288, Note_on_c, 0, 83, 75
1, 12800, Note_on_c, 0, 83, 0
1, 12800, Note_on_c, 0, 81, 75
1, 13312, Note_on_c, 0, 81, 0
1, 13312, Note_on_c, 0, 81, 75
1, 13312, Note_on_c, 0, 61, 75
1, 13312, Note_on_c, 0, 64, 75
1, 14336, Note_on_c, 0, 61, 0
1, 14336, Note_on_c, 0, 64, 0
1, 14336, Note_on_c, 0, 59, 75
1, 14336, Note_on_c, 0, 63, 75
1, 14848, Note_on_c, 0, 81, 0
1, 14848, Note_on_c, 0, 80, 75
1, 15360, Note_on_c, 0, 80, 0
1, 15360, Note_on_c, 0, 59, 0
1, 15360, Note_on_c, 0, 63, 0
1, 15360, Note_on_c, 0, 80, 75
1, 15872, Note_on_c, 0, 80, 0
1, 15872, Note_on_c, 0, 78, 75
1, 16384, Note_on_c, 0, 78, 0
1, 16384, Note_on_c, 0, 78, 75
1, 16384, Note_on_c, 0, 57, 75
1, 16384, Note_on_c, 0, 61, 75
1, 17408, Note_on_c, 0, 57, 0
1, 17408, Note_on_c, 0, 61, 0
1, 17408, Note_on_c, 0, 56, 75
1, 17408, Note_on_c, 0, 59, 75
1, 17920, Note_on_c, 0, 78, 0
1, 17920, Note_on_c, 0, 76, 75
1, 18432, Note_on_c, 0, 76, 0
1, 18432, Note_on_c, 0, 56, 0
1, 18432, Note_on_c, 0, 59, 0
1, 18432, Note_on_c, 0, 75, 75
1, 18944, Note_on_c, 0, 75, 0
1, 18944, Note_on_c, 0, 78, 75
1, 19456, Note_on_c, 0, 78, 0
1, 19456, Note_on_c, 0, 78, 75
1, 19456, Note_on_c, 0, 51, 75
1, 19968, Note_on_c, 0, 78, 0
1, 19968, Note_on_c, 0, 81, 75
1, 20480, Note_on_c, 0, 81, 0
1, 20480, Note_on_c, 0, 78, 75
1, 20480, Note_on_c, 0, 81, 75
1, 20480, Note_on_c, 0, 51, 0
1, 20480, Note_on_c, 0, 52, 75
1, 20992, Note_on_c, 0, 78, 0
1, 20992, Note_on_c, 0, 81, 0
1, 20992, Note_on_c, 0, 76, 75
1, 20992, Note_on_c, 0, 80, 75
1, 21504, Note_on_c, 0, 76, 0
1, 21504, Note_on_c, 0, 80, 0
1, 21504, Note_on_c, 0, 52, 0
1, 21504, Note_on_c, 0, 76, 75
1, 21504, Note_on_c, 0, 80, 75
1, 21504, Note_on_c, 0, 59, 75
1, 22528, Note_on_c, 0, 76, 0
1, 22528, Note_on_c, 0, 80, 0
1, 22528, Note_on_c, 0, 75, 75
1, 22528, Note_on_c, 0, 78, 75
1, 22528, Note_on_c, 0, 59, 0
1, 22528, Note_on_c, 0, 54, 75
1, 23552, Note_on_c, 0, 75, 0
1, 23552, Note_on_c, 0, 78, 0
1, 23552, Note_on_c, 0, 54, 0
1, 23552, Note_on_c, 0, 47, 75
1, 24576, Note_on_c, 0, 47, 0
1, 24576, Note_on_c, 0, 71, 75
1, 24576, Note_on_c, 0, 64, 75
1, 24576, Note_on_c, 0, 68, 75
1, 25600, Note_on_c, 0, 71, 0
1, 25600, Note_on_c, 0, 71, 75
1, 25600, Note_on_c, 0, 64, 0
1, 25600, Note_on_c, 0, 68, 0
1, 25600, Note_on_c, 0, 64, 75
1, 25600, Note_on_c, 0, 68, 75
1, 26624, Note_on_c, 0, 71, 0
1, 26624, Note_on_c, 0, 71, 75
1, 26624, Note_on_c, 0, 64, 0
1, 26624, Note_on_c, 0, 68, 0
1, 26624, Note_on_c, 0, 64, 75
1, 26624, Note_on_c, 0, 68, 75
1, 27648, Note_on_c, 0, 71, 0
1, 27648, Note_on_c, 0, 64, 0
1, 27648, Note_on_c, 0, 68, 0
1, 27648, Note_on_c, 0, 71, 75
1, 27648, Note_on_c, 0, 64, 75
1, 27648, Note_on_c, 0, 68, 75
1, 27776, Note_on_c, 0, 71, 0
1, 27776, Note_on_c, 0, 73, 75
1, 27904, Note_on_c, 0, 73, 0
1, 27904, Note_on_c, 0, 71, 75
1, 28032, Note_on_c, 0, 71, 0
1, 28032, Note_on_c, 0, 73, 75
1, 28160, Note_on_c, 0, 73, 0
1, 28160, Note_on_c, 0, 71, 75
1, 28288, Note_on_c, 0, 71, 0
1, 28288, Note_on_c, 0, 73, 75
1, 28416, Note_on_c, 0, 73, 0
1, 28416, Note_on_c, 0, 71, 75
1, 28544, Note_on_c, 0, 71, 0
1, 28544, Note_on_c, 0, 73, 75
1, 28672, Note_on_c, 0, 73, 0
1, 28672, Note_on_c, 0, 71, 75
1, 28672, Note_on_c, 0, 64, 0
1, 28672, Note_on_c, 0, 68, 0
1, 28672, Note_on_c, 0, 64, 75
1, 28672, Note_on_c, 0, 68, 75
1, 28800, Note_on_c, 0, 71, 0
1, 28800, Note_on_c, 0, 73, 75
1, 28928, Note_on_c, 0, 73, 0
1, 28928, Note_on_c, 0, 71, 75
1, 29056, Note_on_c, 0, 71, 0
1, 29056, Note_on_c, 0, 73, 75
1, 29184, Note_on_c, 0, 73, 0
1, 29184, Note_on_c, 0, 71, 75
1, 29312, Note_on_c, 0, 71, 0
1, 29312, Note_on_c, 0, 73, 75
1, 29440, Note_on_c, 0, 73, 0
1, 29440, Note_on_c, 0, 71, 75
1, 29568, Note_on_c, 0, 71, 0
1, 29568, Note_on_c, 0, 73, 75
1, 29696, Note_on_c, 0, 73, 0
1, 29696, Note_on_c, 0, 76, 75
1, 29696, Note_on_c, 0, 64, 0
1, 29696, Note_on_c, 0, 68, 0
1, 29696, Note_on_c, 0, 64, 75
1, 29696, Note_on_c, 0, 68, 75
1, 30208, Note_on_c, 0, 76, 0
1, 30208, Note_on_c, 0, 75, 75
1, 30720, Note_on_c, 0, 75, 0
1, 30720, Note_on_c, 0, 64, 0
1, 30720, Note_on_c, 0, 68, 0
1, 30720, Note_on_c, 0, 75, 75
1, 30720, Note_on_c, 0, 64, 75
1, 30720, Note_on_c, 0, 69, 75
1, 31232, Note_on_c, 0, 75, 0
1, 31232, Note_on_c, 0, 73, 75
1, 31744, Note_on_c, 0, 73, 0
1, 31744, Note_on_c, 0, 73, 75
1, 31744, Note_on_c, 0, 64, 0
1, 31744, Note_on_c, 0, 69, 0
1, 31744, Note_on_c, 0, 64, 75
1, 31744, Note_on_c, 0, 69, 75
1, 32256, Note_on_c, 0, 73, 0
1, 32256, Note_on_c, 0, 81, 75
1, 32768, Note_on_c, 0, 81, 0
1, 32768, Note_on_c, 0, 81, 75
1, 32768, Note_on_c, 0, 64, 0
1, 32768, Note_on_c, 0, 69, 0
1, 32768, Note_on_c, 0, 64, 75
1, 32768, Note_on_c, 0, 69, 75
1, 33280, Note_on_c, 0, 81, 0
1, 33280, Note_on_c, 0, 73, 75
1, 33792, Note_on_c, 0, 73, 0
1, 33792, Note_on_c, 0, 64, 0
1, 33792, Note_on_c, 0, 69, 0
1, 33792, Note_on_c, 0, 73, 75
1, 33792, Note_on_c, 0, 64, 75
1, 33792, Note_on_c, 0, 69, 75
1, 33920, Note_on_c, 0, 73, 0
1, 33920, Note_on_c, 0, 75, 75
1, 34048, Note_on_c, 0, 75, 0
1, 34048, Note_on_c, 0, 73, 75
1, 34176, Note_on_c, 0, 73, 0
1, 34176, Note_on_c, 0, 75, 75
1, 34304, Note_on_c, 0, 75, 0
1, 34304, Note_on_c, 0, 71, 75
1, 34816, Note_on_c, 0, 71, 0
1, 34816, Note_on_c, 0, 71, 75
1, 34816, Note_on_c, 0, 64, 0
1, 34816, Note_on_c, 0, 69, 0
1, 34816, Note_on_c, 0, 64, 75
1, 34816, Note_on_c, 0, 68, 75
1, 35840, Note_on_c, 0, 64, 0
1, 35840, Note_on_c, 0, 68, 0
1, 36352, Note_on_c, 0, 71, 0
1, 36352, Note_on_c, 0, 83, 75
1, 36864, Note_on_c, 0, 83, 0
1, 36864, Note_on_c, 0, 83, 75
1, 37376, Note_on_c, 0, 83, 0
1, 37376, Note_on_c, 0, 81, 75
1, 37888, Note_on_c, 0, 81, 0
1, 37888, Note_on_c, 0, 81, 75
1, 37888, Note_on_c, 0, 61, 75
1, 37888, Note_on_c, 0, 64, 75
1, 38912, Note_on_c, 0, 61, 0
1, 38912, Note_on_c, 0, 64, 0
1, 38912, Note_on_c, 0, 59, 75
1, 38912, Note_on_c, 0, 63, 75
1, 39424, Note_on_c, 0, 81, 0
1, 39424, Note_on_c, 0, 80, 75
1, 39936, Note_on_c, 0, 80, 0
1, 39936, Note_on_c, 0, 59, 0
1, 39936, Note_on_c, 0, 63, 0
1, 39936, Note_on_c, 0, 80, 75
1, 40448, Note_on_c, 0, 80, 0
1, 40448, Note_on_c, 0, 78, 75
1, 40960, Note_on_c, 0, 78, 0
1, 40960, Note_on_c, 0, 78, 75
1, 40960, Note_on_c, 0, 57, 75
1, 40960, Note_on_c, 0, 61, 75
1, 41984, Note_on_c, 0, 57, 0
1, 41984, Note_on_c, 0, 61, 0
1, 41984, Note_on_c, 0, 56, 75
1, 41984, Note_on_c, 0, 59, 75
1, 42496, Note_on_c, 0, 78, 0
1, 42496, Note_on_c, 0, 76, 75
1, 43008, Note_on_c, 0, 76, 0
1, 43008, Note_on_c, 0, 56, 0
1, 43008, Note_on_c, 0, 59, 0
1, 43008, Note_on_c, 0, 75, 75
1, 43520, Note_on_c, 0, 75, 0
1, 43520, Note_on_c, 0, 78, 75
1, 44032, Note_on_c, 0, 78, 0
1, 44032, Note_on_c, 0, 78, 75
1, 44032, Note_on_c, 0, 51, 75
1, 44544, Note_on_c, 0, 78, 0
1, 44544, Note_on_c, 0, 81, 75
1, 45056, Note_on_c, 0, 81, 0
1, 45056, Note_on_c, 0, 78, 75
1, 45056, Note_on_c, 0, 81, 75
1, 45056, Note_on_c, 0, 51, 0
1, 45056, Note_on_c, 0, 52, 75
1, 45568, Note_on_c, 0, 78, 0
1, 45568, Note_on_c, 0, 81, 0
1, 45568, Note_on_c, 0, 76, 75
1, 45568, Note_on_c, 0, 80, 75
1, 46080, Note_on_c, 0, 76, 0
1, 46080, Note_on_c, 0, 80, 0
1, 46080, Note_on_c, 0, 52, 0
1, 46080, Note_on_c, 0, 76, 75
1, 46080, Note_on_c, 0, 80, 75
1, 46080, Note_on_c, 0, 59, 75
1, 47104, Note_on_c, 0, 76, 0
1, 47104, Note_on_c, 0, 80, 0
1, 47104, Note_on_c, 0, 75, 75
1, 47104, Note_on_c, 0, 78, 75
1, 47104, Note_on_c, 0, 59, 0
1, 47104, Note_on_c, 0, 54, 75
1, 48128, Note_on_c, 0, 75, 0
1, 48128, Note_on_c, 0, 78, 0
1, 48128, Note_on_c, 0, 54, 0
1, 48128, Note_on_c, 0, 47, 75
1, 49152, Note_on_c, 0, 47, 0
1, 49152, Note_on_c, 0, 71, 75
1, 49664, Note_on_c, 0, 71, 0
1, 49664, Note_on_c, 0, 75, 75
1, 50176, Note_on_c, 0, 75, 0
1, 50176, Note_on_c, 0, 75, 75
1, 50176, Note_on_c, 0, 59, 75
1, 50176, Note_on_c, 0, 69, 75
1, 51200, Note_on_c, 0, 59, 0
1, 51200, Note_on_c, 0, 69, 0
1, 51200, Note_on_c, 0, 59, 75
1, 51200, Note_on_c, 0, 69, 75
1, 51712, Note_on_c, 0, 75, 0
1, 51712, Note_on_c, 0, 71, 75
1, 52224, Note_on_c, 0, 71, 0
1, 52224, Note_on_c, 0, 59, 0
1, 52224, Note_on_c, 0, 69, 0
1, 52224, Note_on_c, 0, 71, 75
1, 52224, Note_on_c, 0, 66, 75
1, 52736, Note_on_c, 0, 71, 0
1, 52736, Note_on_c, 0, 75, 75
1, 53248, Note_on_c, 0, 75, 0
1, 53248, Note_on_c, 0, 78, 75
1, 53248, Note_on_c, 0, 66, 0
1, 53248, Note_on_c, 0, 63, 75
1, 53760, Note_on_c, 0, 78, 0
1, 53760, Note_on_c, 0, 81, 75
1, 54272, Note_on_c, 0, 81, 0
1, 54272, Note_on_c, 0, 81, 75
1, 54272, Note_on_c, 0, 63, 0
1, 54272, Note_on_c, 0, 64, 75
1, 54784, Note_on_c, 0, 81, 0
1, 54784, Note_on_c, 0, 80, 75
1, 55296, Note_on_c, 0, 80, 0
1, 55296, Note_on_c, 0, 64, 0
1, 55296, Note_on_c, 0, 80, 75
1, 55808, Note_on_c, 0, 80, 0
1, 55808, Note_on_c, 0, 78, 75
1, 56320, Note_on_c, 0, 78, 0
1, 56320, Note_on_c, 0, 78, 81
1, 56320, Note_on_c, 0, 57, 81
1, 56320, Note_on_c, 0, 61, 81
1, 57344, Note_on_c, 0, 57, 0
1, 57344, Note_on_c, 0, 61, 0
1, 57344, Note_on_c, 0, 57, 93
1, 57344, Note_on_c, 0, 61, 93
1, 57856, Note_on_c, 0, 78, 0
1, 57856, Note_on_c, 0, 81, 101
1, 58368, Note_on_c, 0, 81, 0
1, 58368, Note_on_c, 0, 57, 0
1, 58368, Note_on_c, 0, 61, 0
1, 58368, Note_on_c, 0, 80, 107
1, 58880, Note_on_c, 0, 80, 0
1, 58880, Note_on_c, 0, 78, 113
1, 59392, Note_on_c, 0, 78, 0
1, 59392, Note_on_c, 0, 78, 119
1, 59392, Note_on_c, 0, 57, 119
1, 59392, Note_on_c, 0, 61, 119
1, 60416, Note_on_c, 0, 57, 0
1, 60416, Note_on_c, 0, 61, 0
1, 60416, Note_on_c, 0, 57, 119
1, 60416, Note_on_c, 0, 61, 119
1, 60928, Note_on_c, 0, 78, 0
1, 60928, Note_on_c, 0, 81, 119
1, 61440, Note_on_c, 0, 81, 0
1, 61440, Note_on_c, 0, 57, 0
1, 61440, Note_on_c, 0, 61, 0
1, 61440, Note_on_c, 0, 80, 119
1, 61952, Note_on_c, 0, 80, 0
1, 61952, Note_on_c, 0, 78, 119
1, 62464, Note_on_c, 0, 78, 0
1, 62464, Note_on_c, 0, 78, 119
1, 62464, Note_on_c, 0, 57, 119
1, 62464, Note_on_c, 0, 61, 119
1, 62976, Note_on_c, 0, 78, 0
1, 62976, Note_on_c, 0, 85, 119
1, 63488, Note_on_c, 0, 85, 0
1, 63488, Note_on_c, 0, 85, 119
1, 63488, Note_on_c, 0, 57, 0
1, 63488, Note_on_c, 0, 61, 0
1, 63488, Note_on_c, 0, 58, 119
1, 63488, Note_on_c, 0, 61, 119
1, 64000, Note_on_c, 0, 85, 0
1, 64000, Note_on_c, 0, 76, 119
1, 64512, Note_on_c, 0, 76, 0
1, 64512, Note_on_c, 0, 58, 0
1, 64512, Note_on_c, 0, 61, 0
1, 64512, Note_on_c, 0, 76, 119
1, 64512, Note_on_c, 0, 59, 119
1, 65536, Note_on_c, 0, 76, 0
1, 65536, Note_on_c, 0, 75, 119
1, 65536, Note_on_c, 0, 59, 0
1, 65536, Note_on_c, 0, 54, 119
1, 66560, Note_on_c, 0, 75, 0
1, 66560, Note_on_c, 0, 54, 0
1, 66560, Note_on_c, 0, 47, 119
1, 67584, Note_on_c, 0, 47, 0
1, 67584, Note_on_c, 0, 71, 75
1, 67584, Note_on_c, 0, 64, 75
1, 67584, Note_on_c, 0, 68, 75
1, 68608, Note_on_c, 0, 71, 0
1, 68608, Note_on_c, 0, 71, 75
1, 68608, Note_on_c, 0, 64, 0
1, 68608, Note_on_c, 0, 68, 0
1, 68608, Note_on_c, 0, 64, 75
1, 68608, Note_on_c, 0, 68, 75
1, 69632, Note_on_c, 0, 71, 0
1, 69632, Note_on_c, 0, 71, 75
1, 69632, Note_on_c, 0, 64, 0
1, 69632, Note_on_c, 0, 68, 0
1, 69632, Note_on_c, 0, 64, 75
1, 69632, Note_on_c, 0, 68, 75
1, 70656, Note_on_c, 0, 71, 0
1, 70656, Note_on_c, 0, 64, 0
1, 70656, Note_on_c, 0, 68, 0
1, 70656, Note_on_c, 0, 71, 75
1, 70656, Note_on_c, 0, 64, 75
1, 70656, Note_on_c, 0, 68, 75
1, 70784, Note_on_c, 0, 71, 0
1, 70784, Note_on_c, 0, 73, 75
1, 70912, Note_on_c, 0, 73, 0
1, 70912, Note_on_c, 0, 71, 75
1, 71040, Note_on_c, 0, 71, 0
1, 71040, Note_on_c, 0, 73, 75
1, 71168, Note_on_c, 0, 73, 0
1, 71168, Note_on_c, 0, 71, 75
1, 71296, Note_on_c, 0, 71, 0
1, 71296, Note_on_c, 0, 73, 75
1, 71424, Note_on_c, 0, 73, 0
1, 71424, Note_on_c, 0, 71, 75
1, 71552, Note_on_c, 0, 71, 0
1, 71552, Note_on_c, 0, 73, 75
1, 71680, Note_on_c, 0, 73, 0
1, 71680, Note_on_c, 0, 71, 75
1, 71680, Note_on_c, 0, 64, 0
1, 71680, Note_on_c, 0, 68, 0
1, 71680, Note_on_c, 0, 64, 75
1, 71680, Note_on_c, 0, 68, 75
1, 71808, Note_on_c, 0, 71, 0
1, 71808, Note_on_c, 0, 73, 75
1, 71936, Note_on_c, 0, 73, 0
1, 71936, Note_on_c, 0, 71, 75
1, 72064, Note_on_c, 0, 71, 0
1, 72064, Note_on_c, 0, 73, 75
1, 72192, Note_on_c, 0, 73, 0
1, 72192, Note_on_c, 0, 71, 75
1, 72320, Note_on_c, 0, 71, 0
1, 72320, Note_on_c, 0, 73, 75
1, 72448, Note_on_c, 0, 73, 0
1, 72448, Note_on_c, 0, 71, 75
1, 72576, Note_on_c, 0, 71, 0
1, 72576, Note_on_c, 0, 73, 75
1, 72704, Note_on_c, 0, 73, 0
1, 72704, Note_on_c, 0, 76, 75
1, 72704, Note_on_c, 0, 64, 0
1, 72704, Note_on_c, 0, 68, 0
1, 72704, Note_on_c, 0, 64, 75
1, 72704, Note_on_c, 0, 68, 75
1, 73216, Note_on_c, 0, 76, 0
1, 73216, Note_on_c, 0, 75, 75
1, 73728, Note_on_c, 0, 75, 0
1, 73728, Note_on_c, 0, 64, 0
1, 73728, Note_on_c, 0, 68, 0
1, 73728, Note_on_c, 0, 75, 75
1, 73728, Note_on_c, 0, 64, 75
1, 73728, Note_on_c, 0, 69, 75
1, 74240, Note_on_c, 0, 75, 0
1, 74240, Note_on_c, 0, 73, 75
1, 74752, Note_on_c, 0, 73, 0
1, 74752, Note_on_c, 0, 73, 75
1, 74752, Note_on_c, 0, 64, 0
1, 74752, Note_on_c, 0, 69, 0
1, 74752, Note_on_c, 0, 64, 75
1, 74752, Note_on_c, 0, 69, 75
1, 75264, Note_on_c, 0, 73, 0
1, 75264, Note_on_c, 0, 81, 75
1, 75776, Note_on_c, 0, 81, 0
1, 75776, Note_on_c, 0, 81, 75
1, 75776, Note_on_c, 0, 64, 0
1, 75776, Note_on_c, 0, 69, 0
1, 75776, Note_on_c, 0, 64, 75
1, 75776, Note_on_c, 0, 69, 75
1, 76288, Note_on_c, 0, 81, 0
1, 76288, Note_on_c, 0, 73, 75
1, 76800, Note_on_c, 0, 73, 0
1, 76800, Note_on_c, 0, 64, 0
1, 76800, Note_on_c, 0, 69, 0
1, 76800, Note_on_c, 0, 73, 75
1, 76800, Note_on_c, 0, 64, 75
1, 76800, Note_on_c, 0, 69, 75
1, 76928, Note_on_c, 0, 73, 0
1, 76928, Note_on_c, 0, 75, 75
1, 77056, Note_on_c, 0, 75, 0
1, 77056, Note_on_c, 0, 73, 75
1, 77184, Note_on_c, 0, 73, 0
1, 77184, Note_on_c, 0, 75, 75
1, 77312, Note_on_c, 0, 75, 0
1, 77312, Note_on_c, 0, 71, 75
1, 77824, Note_on_c, 0, 71, 0
1, 77824, Note_on_c, 0, 71, 75
1, 77824, Note_on_c, 0, 64, 0
1, 77824, Note_on_c, 0, 69, 0
1, 77824, Note_on_c, 0, 64, 75
1, 77824, Note_on_c, 0, 68, 75
1, 78848, Note_on_c, 0, 64, 0
1, 78848, Note_on_c, 0, 68, 0
1, 79360, Note_on_c, 0, 71, 0
1, 79360, Note_on_c, 0, 83, 75
1, 79872, Note_on_c, 0, 83, 0
1, 79872, Note_on_c, 0, 83, 75
1, 80384, Note_on_c, 0, 83, 0
1, 80384, Note_on_c, 0, 81, 75
1, 80896, Note_on_c, 0, 81, 0
1, 80896, Note_on_c, 0, 81, 75
1, 80896, Note_on_c, 0, 61, 75
1, 80896, Note_on_c, 0, 64, 75
1, 81920, Note_on_c, 0, 61, 0
1, 81920, Note_on_c, 0, 64, 0
1, 81920, Note_on_c, 0, 59, 75
1, 81920, Note_on_c, 0, 63, 75
1, 82432, Note_on_c, 0, 81, 0
1, 82432, Note_on_c, 0, 80, 75
1, 82944, Note_on_c, 0, 80, 0
1, 82944, Note_on_c, 0, 59, 0
1, 82944, Note_on_c, 0, 63, 0
1, 82944, Note_on_c, 0, 80, 75
1, 83456, Note_on_c, 0, 80, 0
1, 83456, Note_on_c, 0, 78, 75
1, 83968, Note_on_c, 0, 78, 0
1, 83968, Note_on_c, 0, 78, 75
1, 83968, Note_on_c, 0, 57, 75
1, 83968, Note_on_c, 0, 61, 75
1, 84992, Note_on_c, 0, 57, 0
1, 84992, Note_on_c, 0, 61, 0
1, 84992, Note_on_c, 0, 56, 75
1, 84992, Note_on_c, 0, 59, 75
1, 85504, Note_on_c, 0, 78, 0
1, 85504, Note_on_c, 0, 76, 75
1, 86016, Note_on_c, 0, 76, 0
1, 86016, Note_on_c, 0, 56, 0
1, 86016, Note_on_c, 0, 59, 0
1, 86016, Note_on_c, 0, 76, 101
1, 86528, Note_on_c, 0, 76, 0
1, 86528, Note_on_c, 0, 85, 101
1, 87040, Note_on_c, 0, 85, 0
1, 87040, Note_on_c, 0, 85, 101
1, 87040, Note_on_c, 0, 45, 101
1, 87040, Note_on_c, 0, 57, 101
1, 88064, Note_on_c, 0, 45, 0
1, 88064, Note_on_c, 0, 57, 0
1, 88064, Note_on_c, 0, 44, 101
1, 88064, Note_on_c, 0, 56, 101
1, 88576, Note_on_c, 0, 85, 0
1, 88576, Note_on_c, 0, 83, 101
1, 89088, Note_on_c, 0, 83, 0
1, 89088, Note_on_c, 0, 44, 0
1, 89088, Note_on_c, 0, 56, 0
1, 89088, Note_on_c, 0, 83, 101
1, 89600, Note_on_c, 0, 83, 0
1, 89600, Note_on_c, 0, 81, 101
1, 90112, Note_on_c, 0, 81, 0
1, 90112, Note_on_c, 0, 81, 101
1, 90112, Note_on_c, 0, 42, 101
1, 90112, Note_on_c, 0, 54, 101
1, 91136, Note_on_c, 0, 42, 0
1, 91136, Note_on_c, 0, 54, 0
1, 91136, Note_on_c, 0, 40, 101
1, 91136, Note_on_c, 0, 52, 101
1, 91648, Note_on_c, 0, 81, 0
1, 91648, Note_on_c, 0, 80, 101
1, 92160, Note_on_c, 0, 80, 0
1, 92160, Note_on_c, 0, 40, 0
1, 92160, Note_on_c, 0, 52, 0
1, 92160, Note_on_c, 0, 80, 101
1, 92160, Note_on_c, 0, 45, 101
1, 92160, Note_on_c, 0, 57, 101
1, 92672, Note_on_c, 0, 80, 0
1, 92672, Note_on_c, 0, 78, 101
1, 93184, Note_on_c, 0, 78, 0
1, 93184, Note_on_c, 0, 78, 101
1, 93184, Note_on_c, 0, 45, 0
1, 93184, Note_on_c, 0, 57, 0
1, 93184, Note_on_c, 0, 47, 101
1, 93184, Note_on_c, 0, 56, 101
1, 93696, Note_on_c, 0, 78, 0
1, 93696, Note_on_c, 0, 76, 101
1, 94208, Note_on_c, 0, 76, 0
1, 94208, Note_on_c, 0, 76, 101
1, 94208, Note_on_c, 0, 47, 0
1, 94208, Note_on_c, 0, 56, 0
1, 94208, Note_on_c, 0, 47, 101
1, 94208, Note_on_c, 0, 54, 101
1, 94720, Note_on_c, 0, 76, 0
1, 94720, Note_on_c, 0, 75, 101
1, 95232, Note_on_c, 0, 75, 0
1, 95232, Note_on_c, 0, 47, 0
1, 95232, Note_on_c, 0, 54, 0
1, 95232, Note_on_c, 0, 75, 101
1, 95232, Note_on_c, 0, 52, 101
1, 96256, Note_on_c, 0, 75, 0
1, 96256, Note_on_c, 0, 76, 101
1, 96256, Note_on_c, 0, 52, 0
1, 96256, Note_on_c, 0, 47, 101
1, 97280, Note_on_c, 0, 76, 0
1, 97280, Note_on_c, 0, 47, 0
1, 97280, Note_on_c, 0, 40, 101
1, 98304, Note_on_c, 0, 40, 0
1, 98304, Note_on_c, 0, 71, 75
1, 98816, Note_on_c, 0, 71, 0
1, 98816, Note_on_c, 0, 75, 75
1, 99328, Note_on_c, 0, 75, 0
1, 99328, Note_on_c, 0, 75, 75
1, 99328, Note_on_c, 0, 59, 75
1, 99328, Note_on_c, 0, 69, 75
1, 100352, Note_on_c, 0, 59, 0
1, 100352, Note_on_c, 0, 69, 0
1, 100352, Note_on_c, 0, 59, 75
1, 100352, Note_on_c, 0, 69, 75
1, 100864, Note_on_c, 0, 75, 0
1, 100864, Note_on_c, 0, 71, 75
1, 101376, Note_on_c, 0, 71, 0
1, 101376, Note_on_c, 0, 59, 0
1, 101376, Note_on_c, 0, 69, 0
1, 101376, Note_on_c, 0, 71, 75
1, 101376, Note_on_c, 0, 66, 75
1, 101888, Note_on_c, 0, 71, 0
1, 101888, Note_on_c, 0, 75, 75
1, 102400, Note_on_c, 0, 75, 0
1, 102400, Note_on_c, 0, 78, 75
1, 102400, Note_on_c, 0, 66, 0
1, 102400, Note_on_c, 0, 63, 75
1, 102912, Note_on_c, 0, 78, 0
1, 102912, Note_on_c, 0, 81, 75
1, 103424, Note_on_c, 0, 81, 0
1, 103424, Note_on_c, 0, 81, 75
1, 103424, Note_on_c, 0, 63, 0
1, 103424, Note_on_c, 0, 64, 75
1, 103936, Note_on_c, 0, 81, 0
1, 103936, Note_on_c, 0, 80, 75
1, 104448, Note_on_c, 0, 80, 0
1, 104448, Note_on_c, 0, 64, 0
1, 104448, Note_on_c, 0, 80, 75
1, 104960, Note_on_c, 0, 80, 0
1, 104960, Note_on_c, 0, 78, 75
1, 105472, Note_on_c, 0, 78, 0
1, 105472, Note_on_c, 0, 78, 81
1, 105472, Note_on_c, 0, 57, 81
1, 105472, Note_on_c, 0, 61, 81
1, 106496, Note_on_c, 0, 57, 0
1, 106496, Note_on_c, 0, 61, 0
1, 106496, Note_on_c, 0, 57, 93
1, 106496, Note_on_c, 0, 61, 93
1, 107008, Note_on_c, 0, 78, 0
1, 107008, Note_on_c, 0, 81, 101
1, 107520, Note_on_c, 0, 81, 0
1, 107520, Note_on_c, 0, 57, 0
1, 107520, Note_on_c, 0, 61, 0
1, 107520, Note_on_c, 0, 80, 107
1, 108032, Note_on_c, 0, 80, 0
1, 108032, Note_on_c, 0, 78, 113
1, 108544, Note_on_c, 0, 78, 0
1, 108544, Note_on_c, 0, 78, 119
1, 108544, Note_on_c, 0, 57, 119
1, 108544, Note_on_c, 0, 61, 119
1, 109568, Note_on_c, 0, 57, 0
1, 109568, Note_on_c, 0, 61, 0
1, 109568, Note_on_c, 0, 57, 119
1, 109568, Note_on_c, 0, 61, 119
1, 110080, Note_on_c, 0, 78, 0
1, 110080, Note_on_c, 0, 81, 119
1, 110592, Note_on_c, 0, 81, 0
1, 110592, Note_on_c, 0, 57, 0
1, 110592, Note_on_c, 0, 61, 0
1, 110592, Note_on_c, 0, 80, 119
1, 111104, Note_on_c, 0, 80, 0
1, 111104, Note_on_c, 0, 78, 119
1, 111616, Note_on_c, 0, 78, 0
1, 111616, Note_on_c, 0, 78, 119
1, 111616, Note_on_c, 0, 57, 119
1, 111616, Note_on_c, 0, 61, 119
1, 112128, Note_on_c, 0, 78, 0
1, 112128, Note_on_c, 0, 85, 119
1, 112640, Note_on_c, 0, 85, 0
1, 112640, Note_on_c, 0, 85, 119
1, 112640, Note_on_c, 0, 57, 0
1, 112640, Note_on_c, 0, 61, 0
1, 112640, Note_on_c, 0, 58, 119
1, 112640, Note_on_c, 0, 61, 119
1, 113152, Note_on_c, 0, 85, 0
1, 113152, Note_on_c, 0, 76, 119
1, 113664, Note_on_c, 0, 76, 0
1, 113664, Note_on_c, 0, 58, 0
1, 113664, Note_on_c, 0, 61, 0
1, 113664, Note_on_c, 0, 76, 119
1, 113664, Note_on_c, 0, 59, 119
1, 114688, Note_on_c, 0, 76, 0
1, 114688, Note_on_c, 0, 75, 119
1, 114688, Note_on_c, 0, 59, 0
1, 114688, Note_on_c, 0, 54, 119
1, 115712, Note_on_c, 0, 75, 0
1, 115712, Note_on_c, 0, 54, 0
1, 115712, Note_on_c, 0, 47, 119
1, 116736, Note_on_c, 0, 47, 0
1, 116736, Note_on_c, 0, 71, 75
1, 116736, Note_on_c, 0, 64, 75
1, 116736, Note_on_c, 0, 68, 75
1, 117760, Note_on_c, 0, 71, 0
1, 117760, Note_on_c, 0, 71, 75
1, 117760, Note_on_c, 0, 64, 0
1, 117760, Note_on_c, 0, 68, 0
1, 117760, Note_on_c, 0, 64, 75
1, 117760, Note_on_c, 0, 68, 75
1, 118784, Note_on_c, 0, 71, 0
1, 118784, Note_on_c, 0, 71, 75
1, 118784, Note_on_c, 0, 64, 0
1, 118784, Note_on_c, 0, 68, 0
1, 118784, Note_on_c, 0, 64, 75
1, 118784, Note_on_c, 0, 68, 75
1, 119808, Note_on_c, 0, 71, 0
1, 119808, Note_on_c, 0, 64, 0
1, 119808, Note_on_c, 0, 68, 0
1, 119808, Note_on_c, 0, 71, 75
1, 119808, Note_on_c, 0, 64, 75
1, 119808, Note_on_c, 0, 68, 75
1, 119936, Note_on_c, 0, 71, 0
1, 119936, Note_on_c, 0, 73, 75
1, 120064, Note_on_c, 0, 73, 0
1, 120064, Note_on_c, 0, 71, 75
1, 120192, Note_on_c, 0, 71, 0
1, 120192, Note_on_c, 0, 73, 75
1, 120320, Note_on_c, 0, 73, 0
1, 120320, Note_on_c, 0, 71, 75
1, 120448, Note_on_c, 0, 71, 0
1, 120448, Note_on_c, 0, 73, 75
1, 120576, Note_on_c, 0, 73, 0
1, 120576, Note_on_c, 0, 71, 75
1, 120704, Note_on_c, 0, 71, 0
1, 120704, Note_on_c, 0, 73, 75
1, 120832, Note_on_c, 0, 73, 0
1, 120832, Note_on_c, 0, 71, 75
1, 120832, Note_on_c, 0, 64, 0
1, 120832, Note_on_c, 0, 68, 0
1, 120832, Note_on_c, 0, 64, 75
1, 120832, Note_on_c, 0, 68, 75
1, 120960, Note_on_c, 0, 71, 0
1, 120960, Note_on_c, 0, 73, 75
1, 121088, Note_on_c, 0, 73, 0
1, 121088, Note_on_c, 0, 71, 75
1, 121216, Note_on_c, 0, 71, 0
1, 121216, Note_on_c, 0, 73, 75
1, 121344, Note_on_c, 0, 73, 0
1, 121344, Note_on_c, 0, 71, 75
1, 121472, Note_on_c, 0, 71, 0
1, 121472, Note_on_c, 0, 73, 75
1, 121600, Note_on_c, 0, 73, 0
1, 121600, Note_on_c, 0, 71, 75
1, 121728, Note_on_c, 0, 71, 0
1, 121728, Note_on_c, 0, 73, 75
1, 121856, Note_on_c, 0, 73, 0
1, 121856, Note_on_c, 0, 76, 75
1, 121856, Note_on_c, 0, 64, 0
1, 121856, Note_on_c, 0, 68, 0
1, 121856, Note_on_c, 0, 64, 75
1, 121856, Note_on_c, 0, 68, 75
1, 122368, Note_on_c, 0, 76, 0
1, 122368, Note_on_c, 0, 75, 75
1, 122880, Note_on_c, 0, 75, 0
1, 122880, Note_on_c, 0, 64, 0
1, 122880, Note_on_c, 0, 68, 0
1, 122880, Note_on_c, 0, 75, 75
1, 122880, Note_on_c, 0, 64, 75
1, 122880, Note_on_c, 0, 69, 75
1, 123392, Note_on_c, 0, 75, 0
1, 123392, Note_on_c, 0, 73, 75
1, 123904, Note_on_c, 0, 73, 0
1, 123904, Note_on_c, 0, 73, 75
1, 123904, Note_on_c, 0, 64, 0
1, 123904, Note_on_c, 0, 69, 0
1, 123904, Note_on_c, 0, 64, 75
1, 123904, Note_on_c, 0, 69, 75
1, 124416, Note_on_c, 0, 73, 0
1, 124416, Note_on_c, 0, 81, 75
1, 124928, Note_on_c, 0, 81, 0
1, 124928, Note_on_c, 0, 81, 75
1, 124928, Note_on_c, 0, 64, 0
1, 124928, Note_on_c, 0, 69, 0
1, 124928, Note_on_c, 0, 64, 75
1, 124928, Note_on_c, 0, 69, 75
1, 125440, Note_on_c, 0, 81, 0
1, 125440, Note_on_c, 0, 73, 75
1, 125952, Note_on_c, 0, 73, 0
1, 125952, Note_on_c, 0, 64, 0
1, 125952, Note_on_c, 0, 69, 0
1, 125952, Note_on_c, 0, 73, 75
1, 125952, Note_on_c, 0, 64, 75
1, 125952, Note_on_c, 0, 69, 75
1, 126080, Note_on_c, 0, 73, 0
1, 126080, Note_on_c, 0, 75, 75
1, 126208, Note_on_c, 0, 75, 0
1, 126208, Note_on_c, 0, 73, 75
1, 126336, Note_on_c, 0, 73, 0
1, 126336, Note_on_c, 0, 75, 75
1, 126464, Note_on_c, 0, 75, 0
1, 126464, Note_on_c, 0, 71, 75
1, 126976, Note_on_c, 0, 71, 0
1, 126976, Note_on_c, 0, 71, 75
1, 126976, Note_on_c, 0, 64, 0
1, 126976, Note_on_c, 0, 69, 0
1, 126976, Note_on_c, 0, 64, 75
1, 126976, Note_on_c, 0, 68, 75
1, 128000, Note_on_c, 0, 64, 0
1, 128000, Note_on_c, 0, 68, 0
1, 128512, Note_on_c, 0, 71, 0
1, 128512, Note_on_c, 0, 83, 75
1, 129024, Note_on_c, 0, 83, 0
1, 129024, Note_on_c, 0, 83, 75
1, 129536, Note_on_c, 0, 83, 0
1, 129536, Note_on_c, 0, 81, 75
1, 130048, Note_on_c, 0, 81, 0
1, 130048, Note_on_c, 0, 81, 75
1, 130048, Note_on_c, 0, 61, 75
1, 130048, Note_on_c, 0, 64, 75
1, 131072, Note_on_c, 0, 61, 0
1, 131072, Note_on_c, 0, 64, 0
1, 131072, Note_on_c, 0, 59, 75
1, 131072, Note_on_c, 0, 63, 75
1, 131584, Note_on_c, 0, 81, 0
1, 131584, Note_on_c, 0, 80, 75
1, 132096, Note_on_c, 0, 80, 0
1, 132096, Note_on_c, 0, 59, 0
1, 132096, Note_on_c, 0, 63, 0
1, 132096, Note_on_c, 0, 80, 75
1, 132608, Note_on_c, 0, 80, 0
1, 132608, Note_on_c, 0, 78, 75
1, 133120, Note_on_c, 0, 78, 0
1, 133120, Note_on_c, 0, 78, 75
1, 133120, Note_on_c, 0, 57, 75
1, 133120, Note_on_c, 0, 61, 75
1, 134144, Note_on_c, 0, 57, 0
1, 134144, Note_on_c, 0, 61, 0
1, 134144, Note_on_c, 0, 56, 75
1, 134144, Note_on_c, 0, 59, 75
1, 134656, Note_on_c, 0, 78, 0
1, 134656, Note_on_c, 0, 76, 75
1, 135168, Note_on_c, 0, 76, 0
1, 135168, Note_on_c, 0, 56, 0
1, 135168, Note_on_c, 0, 59, 0
1, 135168, Note_on_c, 0, 76, 101
1, 135680, Note_on_c, 0, 76, 0
1, 135680, Note_on_c, 0, 85, 101
1, 136192, Note_on_c, 0, 85, 0
1, 136192, Note_on_c, 0, 85, 101
1, 136192, Note_on_c, 0, 45, 101
1, 136192, Note_on_c, 0, 57, 101
1, 137216, Note_on_c, 0, 45, 0
1, 137216, Note_on_c, 0, 57, 0
1, 137216, Note_on_c, 0, 44, 101
1, 137216, Note_on_c, 0, 56, 101
1, 137728, Note_on_c, 0, 85, 0
1, 137728, Note_on_c, 0, 83, 101
1, 138240, Note_on_c, 0, 83, 0
1, 138240, Note_on_c, 0, 44, 0
1, 138240, Note_on_c, 0, 56, 0
1, 138240, Note_on_c, 0, 83, 101
1, 138752, Note_on_c, 0, 83, 0
1, 138752, Note_on_c, 0, 81, 101
1, 139264, Note_on_c, 0, 81, 0
1, 139264, Note_on_c, 0, 81, 101
1, 139264, Note_on_c, 0, 42, 101
1, 139264, Note_on_c, 0, 54, 101
1, 140288, Note_on_c, 0, 42, 0
1, 140288, Note_on_c, 0, 54, 0
1, 140288, Note_on_c, 0, 40, 101
1, 140288, Note_on_c, 0, 52, 101
1, 140800, Note_on_c, 0, 81, 0
1, 140800, Note_on_c, 0, 80, 101
1, 141312, Note_on_c, 0, 80, 0
1, 141312, Note_on_c, 0, 40, 0
1, 141312, Note_on_c, 0, 52, 0
1, 141312, Note_on_c, 0, 80, 101
1, 141312, Note_on_c, 0, 45, 101
1, 141312, Note_on_c, 0, 57, 101
1, 141824, Note_on_c, 0, 80, 0
1, 141824, Note_on_c, 0, 78, 101
1, 142336, Note_on_c, 0, 78, 0
1, 142336, Note_on_c, 0, 78, 101
1, 142336, Note_on_c, 0, 45, 0
1, 142336, Note_on_c, 0, 57, 0
1, 142336, Note_on_c, 0, 47, 101
1, 142336, Note_on_c, 0, 56, 101
1, 142848, Note_on_c, 0, 78, 0
1, 142848, Note_on_c, 0, 76, 101
1, 143360, Note_on_c, 0, 76, 0
1, 143360, Note_on_c, 0, 76, 101
1, 143360, Note_on_c, 0, 47, 0
1, 143360, Note_on_c, 0, 56, 0
1, 143360, Note_on_c, 0, 47, 101
1, 143360, Note_on_c, 0, 54, 101
1, 143872, Note_on_c, 0, 76, 0
1, 143872, Note_on_c, 0, 75, 101
1, 144384, Note_on_c, 0, 75, 0
1, 144384, Note_on_c, 0, 47, 0
1, 144384, Note_on_c, 0, 54, 0
1, 144384, Note_on_c, 0, 75, 101
1, 144384, Note_on_c, 0, 52, 101
1, 145408, Note_on_c, 0, 75, 0
1, 145408, Note_on_c, 0, 76, 101
1, 145408, Note_on_c, 0, 52, 0
1, 145408, Note_on_c, 0, 47, 101
1, 146432, Note_on_c, 0, 76, 0
1, 146432, Note_on_c, 0, 47, 0
1, 146432, Note_on_c, 0, 40, 101
1, 147456, Note_on_c, 0, 40, 0
1, 148480, Note_on_c, 0, 71, 62
1, 148480, Note_on_c, 0, 40, 62
1, 148480, Note_on_c, 0, 52, 62
1, 148992, Note_on_c, 0, 71, 0
1, 148992, Note_on_c, 0, 72, 62
1, 149504, Note_on_c, 0, 72, 0
1, 149504, Note_on_c, 0, 71, 62
1, 149504, Note_on_c, 0, 40, 0
1, 149504, Note_on_c, 0, 52, 0
1, 149504, Note_on_c, 0, 43, 62
1, 149504, Note_on_c, 0, 55, 62
1, 150016, Note_on_c, 0, 71, 0
1, 150016, Note_on_c, 0, 67, 62
1, 150528, Note_on_c, 0, 67, 0
1, 150528, Note_on_c, 0, 69, 62
1, 150528, Note_on_c, 0, 43, 0
1, 150528, Note_on_c, 0, 55, 0
1, 150528, Note_on_c, 0, 47, 62
1, 150528, Note_on_c, 0, 59, 62
1, 151040, Note_on_c, 0, 69, 0
1, 151040, Note_on_c, 0, 66, 62
1, 151552, Note_on_c, 0, 66, 0
1, 151552, Note_on_c, 0, 47, 0
1, 151552, Note_on_c, 0, 59, 0
1, 151552, Note_on_c, 0, 67, 62
1, 151552, Note_on_c, 0, 40, 62
1, 151552, Note_on_c, 0, 52, 62
1, 152064, Note_on_c, 0, 67, 0
1, 152064, Note_on_c, 0, 69, 62
1, 152576, Note_on_c, 0, 69, 0
1, 152576, Note_on_c, 0, 67, 62
1, 152576, Note_on_c, 0, 40, 0
1, 152576, Note_on_c, 0, 52, 0
1, 152576, Note_on_c, 0, 43, 62
1, 152576, Note_on_c, 0, 55, 62
1, 153088, Note_on_c, 0, 67, 0
1, 153088, Note_on_c, 0, 64, 62
1, 153600, Note_on_c, 0, 64, 0
1, 153600, Note_on_c, 0, 66, 62
1, 153600, Note_on_c, 0, 43, 0
1, 153600, Note_on_c, 0, 55, 0
1, 153600, Note_on_c, 0, 47, 62
1, 153600, Note_on_c, 0, 59, 62
1, 154112, Note_on_c, 0, 66, 0
1, 154112, Note_on_c, 0, 63, 62
1, 154624, Note_on_c, 0, 63, 0
1, 154624, Note_on_c, 0, 47, 0
1, 154624, Note_on_c, 0, 59, 0
1, 154624, Note_on_c, 0, 64, 49
1, 154624, Note_on_c, 0, 55, 49
1, 155136, Note_on_c, 0, 64, 0
1, 155136, Note_on_c, 0, 59, 49
1, 155648, Note_on_c, 0, 59, 0
1, 155648, Note_on_c, 0, 66, 49
1, 155648, Note_on_c, 0, 55, 0
1, 155648, Note_on_c, 0, 51, 49
1, 156160, Note_on_c, 0, 66, 0
1, 156160, Note_on_c, 0, 59, 49
1, 156672, Note_on_c, 0, 59, 0
1, 156672, Note_on_c, 0, 67, 49
1, 156672, Note_on_c, 0, 51, 0
1, 156672, Note_on_c, 0, 52, 49
1, 157184, Note_on_c, 0, 67, 0
1, 157184, Note_on_c, 0, 59, 49
1, 157696, Note_on_c, 0, 59, 0
1, 157696, Note_on_c, 0, 52, 0
1, 157696, Note_on_c, 0, 69, 49
1, 157696, Note_on_c, 0, 54, 49
1, 158208, Note_on_c, 0, 69, 0
1, 158208, Note_on_c, 0, 59, 49
1, 158720, Note_on_c, 0, 59, 0
1, 158720, Note_on_c, 0, 66, 49
1, 158720, Note_on_c, 0, 54, 0
1, 158720, Note_on_c, 0, 51, 49
1, 159232, Note_on_c, 0, 66, 0
1, 159232, Note_on_c, 0, 59, 49
1, 159744, Note_on_c, 0, 59, 0
1, 159744, Note_on_c, 0, 67, 49
1, 159744, Note_on_c, 0, 51, 0
1, 159744, Note_on_c, 0, 52, 49
1, 160256, Note_on_c, 0, 67, 0
1, 160256, Note_on_c, 0, 59, 49
1, 160768, Note_on_c, 0, 59, 0
1, 160768, Note_on_c, 0, 52, 0
1, 160768, Note_on_c, 0, 71, 75
1, 160768, Note_on_c, 0, 40, 75
1, 160768, Note_on_c, 0, 52, 75
1, 161280, Note_on_c, 0, 71, 0
1, 161280, Note_on_c, 0, 72, 75
1, 161792, Note_on_c, 0, 72, 0
1, 161792, Note_on_c, 0, 71, 75
1, 161792, Note_on_c, 0, 40, 0
1, 161792, Note_on_c, 0, 52, 0
1, 161792, Note_on_c, 0, 43, 75
1, 161792, Note_on_c, 0, 55, 75
1, 162304, Note_on_c, 0, 71, 0
1, 162304, Note_on_c, 0, 67, 75
1, 162816, Note_on_c, 0, 67, 0
1, 162816, Note_on_c, 0, 69, 75
1, 162816, Note_on_c, 0, 43, 0
1, 162816, Note_on_c, 0, 55, 0
1, 162816, Note_on_c, 0, 47, 75
1, 162816, Note_on_c, 0, 59, 75
1, 163328, Note_on_c, 0, 69, 0
1, 163328, Note_on_c, 0, 66, 75
1, 163840, Note_on_c, 0, 66, 0
1, 163840, Note_on_c, 0, 47, 0
1, 163840, Note_on_c, 0, 59, 0
1, 163840, Note_on_c, 0, 67, 75
1, 163840, Note_on_c, 0, 40, 75
1, 163840, Note_on_c, 0, 52, 75
1, 164352, Note_on_c, 0, 67, 0
1, 164352, Note_on_c, 0, 69, 75
1, 164864, Note_on_c, 0, 69, 0
1, 164864, Note_on_c, 0, 67, 75
1, 164864, Note_on_c, 0, 40, 0
1, 164864, Note_on_c, 0, 52, 0
1, 164864, Note_on_c, 0, 43, 75
1, 164864, Note_on_c, 0, 55, 75
1, 165376, Note_on_c, 0, 67, 0
1, 165376, Note_on_c, 0, 64, 75
1, 165888, Note_on_c, 0, 64, 0
1, 165888, Note_on_c, 0, 66, 75
1, 165888, Note_on_c, 0, 43, 0
1, 165888, Note_on_c, 0, 55, 0
1, 165888, Note_on_c, 0, 47, 75
1, 165888, Note_on_c, 0, 59, 75
1, 166400, Note_on_c, 0, 66, 0
1, 166400, Note_on_c, 0, 63, 75
1, 166912, Note_on_c, 0, 63, 0
1, 166912, Note_on_c, 0, 47, 0
1, 166912, Note_on_c, 0, 59, 0
1, 166912, Note_on_c, 0, 64, 75
1, 166912, Note_on_c, 0, 55, 75
1, 167424, Note_on_c, 0, 64, 0
1, 167424, Note_on_c, 0, 59, 75
1, 167936, Note_on_c, 0, 59, 0
1, 167936, Note_on_c, 0, 66, 75
1, 167936, Note_on_c, 0, 69, 75
1, 167936, Note_on_c, 0, 55, 0
1, 167936, Note_on_c, 0, 51, 75
1, 168448, Note_on_c, 0, 66, 0
1, 168448, Note_on_c, 0, 69, 0
1, 168448, Note_on_c, 0, 59, 75
1, 168960, Note_on_c, 0, 59, 0
1, 168960, Note_on_c, 0, 64, 75
1, 168960, Note_on_c, 0, 67, 75
1, 168960, Note_on_c, 0, 51, 0
1, 168960, Note_on_c, 0, 52, 75
1, 169472, Note_on_c, 0, 64, 0
1, 169472, Note_on_c, 0, 67, 0
1, 169472, Note_on_c, 0, 59, 75
1, 169984, Note_on_c, 0, 59, 0
1, 169984, Note_on_c, 0, 52, 0
1, 169984, Note_on_c, 0, 63, 75
1, 169984, Note_on_c, 0, 66, 75
1, 169984, Note_on_c, 0, 47, 75
1, 171008, Note_on_c, 0, 63, 0
1, 171008, Note_on_c, 0, 66, 0
1, 171008, Note_on_c, 0, 47, 0
1, 171008, Note_on_c, 0, 35, 75
1, 172032, Note_on_c, 0, 35, 0
1, 173056, Note_on_c, 0, 71, 62
1, 173056, Note_on_c, 0, 40, 62
1, 173056, Note_on_c, 0, 52, 62
1, 173568, Note_on_c, 0, 71, 0
1, 173568, Note_on_c, 0, 72, 62
1, 174080, Note_on_c, 0, 72, 0
1, 174080, Note_on_c, 0, 71, 62
1, 174080, Note_on_c, 0, 40, 0
1, 174080, Note_on_c, 0, 52, 0
1, 174080, Note_on_c, 0, 43, 62
1, 174080, Note_on_c, 0, 55, 62
1, 174592, Note_on_c, 0, 71, 0
1, 174592, Note_on_c, 0, 67, 62
1, 175104, Note_on_c, 0, 67, 0
1, 175104, Note_on_c, 0, 69, 62
1, 175104, Note_on_c, 0, 43, 0
1, 175104, Note_on_c, 0, 55, 0
1, 175104, Note_on_c, 0, 47, 62
1, 175104, Note_on_c, 0, 59, 62
1, 175616, Note_on_c, 0, 69, 0
1, 175616, Note_on_c, 0, 66, 62
1, 176128, Note_on_c, 0, 66, 0
1, 176128, Note_on_c, 0, 47, 0
1, 176128, Note_on_c, 0, 59, 0
1, 176128, Note_on_c, 0, 67, 62
1, 176128, Note_on_c, 0, 40, 62
1, 176128, Note_on_c, 0, 52, 62
1, 176640, Note_on_c, 0, 67, 0
1, 176640, Note_on_c, 0, 69, 62
1, 177152, Note_on_c, 0, 69, 0
1, 177152, Note_on_c, 0, 67, 62
1, 177152, Note_on_c, 0, 40, 0
1, 177152, Note_on_c, 0, 52, 0
1, 177152, Note_on_c, 0, 43, 62
1, 177152, Note_on_c, 0, 55, 62
1, 177664, Note_on_c, 0, 67, 0
1, 177664, Note_on_c, 0, 64, 62
1, 178176, Note_on_c, 0, 64, 0
1, 178176, Note_on_c, 0, 66, 62
1, 178176, Note_on_c, 0, 43, 0
1, 178176, Note_on_c, 0, 55, 0
1, 178176, Note_on_c, 0, 47, 62
1, 178176, Note_on_c, 0, 59, 62
1, 178688, Note_on_c, 0, 66, 0
1, 178688, Note_on_c, 0, 63, 62
1, 179200, Note_on_c, 0, 63, 0
1, 179200, Note_on_c, 0, 47, 0
1, 179200, Note_on_c, 0, 59, 0
1, 179200, Note_on_c, 0, 64, 49
1, 179200, Note_on_c, 0, 55, 49
1, 179712, Note_on_c, 0, 64, 0
1, 179712, Note_on_c, 0, 59, 49
1, 180224, Note_on_c, 0, 59, 0
1, 180224, Note_on_c, 0, 66, 49
1, 180224, Note_on_c, 0, 55, 0
1, 180224, Note_on_c, 0, 51, 49
1, 180736, Note_on_c, 0, 66, 0
1, 180736, Note_on_c, 0, 59, 49
1, 181248, Note_on_c, 0, 59, 0
1, 181248, Note_on_c, 0, 67, 49
1, 181248, Note_on_c, 0, 51, 0
1, 181248, Note_on_c, 0, 52, 49
1, 181760, Note_on_c, 0, 67, 0
1, 181760, Note_on_c, 0, 59, 49
1, 182272, Note_on_c, 0, 59, 0
1, 182272, Note_on_c, 0, 52, 0
1, 182272, Note_on_c, 0, 69, 49
1, 182272, Note_on_c, 0, 54, 49
1, 182784, Note_on_c, 0, 69, 0
1, 182784, Note_on_c, 0, 59, 49
1, 183296, Note_on_c, 0, 59, 0
1, 183296, Note_on_c, 0, 66, 49
1, 183296, Note_on_c, 0, 54, 0
1, 183296, Note_on_c, 0, 51, 49
1, 183808, Note_on_c, 0, 66, 0
1, 183808, Note_on_c, 0, 59, 49
1, 184320, Note_on_c, 0, 59, 0
1, 184320, Note_on_c, 0, 67, 49
1, 184320, Note_on_c, 0, 51, 0
1, 184320, Note_on_c, 0, 52, 49
1, 184832, Note_on_c, 0, 67, 0
1, 184832, Note_on_c, 0, 59, 49
1, 185344, Note_on_c, 0, 59, 0
1, 185344, Note_on_c, 0, 52, 0
1, 185344, Note_on_c, 0, 71, 75
1, 185344, Note_on_c, 0, 40, 75
1, 185344, Note_on_c, 0, 52, 75
1, 185856, Note_on_c, 0, 71, 0
1, 185856, Note_on_c, 0, 72, 75
1, 186368, Note_on_c, 0, 72, 0
1, 186368, Note_on_c, 0, 71, 75
1, 186368, Note_on_c, 0, 40, 0
1, 186368, Note_on_c, 0, 52, 0
1, 186368, Note_on_c, 0, 43, 75
1, 186368, Note_on_c, 0, 55, 75
1, 186880, Note_on_c, 0, 71, 0
1, 186880, Note_on_c, 0, 67, 75
1, 187392, Note_on_c, 0, 67, 0
1, 187392, Note_on_c, 0, 69, 75
1, 187392, Note_on_c, 0, 43, 0
1, 187392, Note_on_c, 0, 55, 0
1, 187392, Note_on_c, 0, 47, 75
1, 187392, Note_on_c, 0, 59, 75
1, 187904, Note_on_c, 0, 69, 0
1, 187904, Note_on_c, 0, 66, 75
1, 188416, Note_on_c, 0, 66, 0
1, 188416, Note_on_c, 0, 47, 0
1, 188416, Note_on_c, 0, 59, 0
1, 188416, Note_on_c, 0, 67, 75
1, 188416, Note_on_c, 0, 40, 75
1, 188416, Note_on_c, 0, 52, 75
1, 188928, Note_on_c, 0, 67, 0
1, 188928, Note_on_c, 0, 69, 75
1, 189440, Note_on_c, 0, 69, 0
1, 189440, Note_on_c, 0, 67, 75
1, 189440, Note_on_c, 0, 40, 0
1, 189440, Note_on_c, 0, 52, 0
1, 189440, Note_on_c, 0, 43, 75
1, 189440, Note_on_c, 0, 55, 75
1, 189952, Note_on_c, 0, 67, 0
1, 189952, Note_on_c, 0, 64, 75
1, 190464, Note_on_c, 0, 64, 0
1, 190464, Note_on_c, 0, 66, 75
1, 190464, Note_on_c, 0, 43, 0
1, 190464, Note_on_c, 0, 55, 0
1, 190464, Note_on_c, 0, 47, 75
1, 190464, Note_on_c, 0, 59, 75
1, 190976, Note_on_c, 0, 66, 0
1, 190976, Note_on_c, 0, 63, 75
1, 191488, Note_on_c, 0, 63, 0
1, 191488, Note_on_c, 0, 47, 0
1, 191488, Note_on_c, 0, 59, 0
1, 191488, Note_on_c, 0, 64, 75
1, 191488, Note_on_c, 0, 55, 75
1, 192000, Note_on_c, 0, 64, 0
1, 192000, Note_on_c, 0, 59, 75
1, 192512, Note_on_c, 0, 59, 0
1, 192512, Note_on_c, 0, 66, 75
1, 192512, Note_on_c, 0, 69, 75
1, 192512, Note_on_c, 0, 55, 0
1, 192512, Note_on_c, 0, 51, 75
1, 193024, Note_on_c, 0, 66, 0
1, 193024, Note_on_c, 0, 69, 0
1, 193024, Note_on_c, 0, 59, 75
1, 193536, Note_on_c, 0, 59, 0
1, 193536, Note_on_c, 0, 64, 75
1, 193536, Note_on_c, 0, 67, 75
1, 193536, Note_on_c, 0, 51, 0
1, 193536, Note_on_c, 0, 52, 75
1, 194048, Note_on_c, 0, 64, 0
1, 194048, Note_on_c, 0, 67, 0
1, 194048, Note_on_c, 0, 59, 75
1, 194560, Note_on_c, 0, 59, 0
1, 194560, Note_on_c, 0, 52, 0
1, 194560, Note_on_c, 0, 63, 75
1, 194560, Note_on_c, 0, 66, 75
1, 194560, Note_on_c, 0, 47, 75
1, 195584, Note_on_c, 0, 63, 0
1, 195584, Note_on_c, 0, 66, 0
1, 195584, Note_on_c, 0, 47, 0
1, 195584, Note_on_c, 0, 35, 75
1, 196608, Note_on_c, 0, 35, 0
1, 197632, Note_on_c, 0, 68, 62
1, 197632, Note_on_c, 0, 52, 62
1, 198144, Note_on_c, 0, 68, 0
1, 198144, Note_on_c, 0, 69, 62
1, 198656, Note_on_c, 0, 69, 0
1, 198656, Note_on_c, 0, 68, 62
1, 198656, Note_on_c, 0, 59, 62
1, 199168, Note_on_c, 0, 68, 0
1, 199168, Note_on_c, 0, 64, 62
1, 199680, Note_on_c, 0, 64, 0
1, 199680, Note_on_c, 0, 71, 62
1, 199680, Note_on_c, 0, 59, 0
1, 199680, Note_on_c, 0, 56, 62
1, 200192, Note_on_c, 0, 71, 0
1, 200192, Note_on_c, 0, 64, 62
1, 200704, Note_on_c, 0, 64, 0
1, 200704, Note_on_c, 0, 56, 0
1, 200704, Note_on_c, 0, 72, 62
1, 200704, Note_on_c, 0, 57, 62
1, 201216, Note_on_c, 0, 72, 0
1, 201216, Note_on_c, 0, 64, 62
1, 201728, Note_on_c, 0, 64, 0
1, 201728, Note_on_c, 0, 68, 62
1, 201728, Note_on_c, 0, 57, 0
1, 201728, Note_on_c, 0, 59, 62
1, 202240, Note_on_c, 0, 68, 0
1, 202240, Note_on_c, 0, 64, 62
1, 202752, Note_on_c, 0, 64, 0
1, 202752, Note_on_c, 0, 69, 62
1, 202752, Note_on_c, 0, 59, 0
1, 202752, Note_on_c, 0, 60, 62
1, 203264, Note_on_c, 0, 69, 0
1, 203264, Note_on_c, 0, 64, 62
1, 203776, Note_on_c, 0, 64, 0
1, 203776, Note_on_c, 0, 60, 0
1, 203776, Note_on_c, 0, 52, 0
1, 203776, Note_on_c, 0, 66, 62
1, 203776, Note_on_c, 0, 50, 62
1, 204288, Note_on_c, 0, 66, 0
1, 204288, Note_on_c, 0, 67, 62
1, 204800, Note_on_c, 0, 67, 0
1, 204800, Note_on_c, 0, 66, 62
1, 204800, Note_on_c, 0, 57, 62
1, 205312, Note_on_c, 0, 66, 0
1, 205312, Note_on_c, 0, 62, 62
1, 205824, Note_on_c, 0, 62, 0
1, 205824, Note_on_c, 0, 69, 62
1, 205824, Note_on_c, 0, 57, 0
1, 205824, Note_on_c, 0, 54, 62
1, 206336, Note_on_c, 0, 69, 0
1, 206336, Note_on_c, 0, 62, 62
1, 206848, Note_on_c, 0, 62, 0
1, 206848, Note_on_c, 0, 54, 0
1, 206848, Note_on_c, 0, 71, 62
1, 206848, Note_on_c, 0, 55, 62
1, 207360, Note_on_c, 0, 71, 0
1, 207360, Note_on_c, 0, 62, 62
1, 207872, Note_on_c, 0, 62, 0
1, 207872, Note_on_c, 0, 66, 62
1, 207872, Note_on_c, 0, 55, 0
1, 207872, Note_on_c, 0, 57, 62
1, 208384, Note_on_c, 0, 66, 0
1, 208384, Note_on_c, 0, 62, 62
1, 208896, Note_on_c, 0, 62, 0
1, 208896, Note_on_c, 0, 67, 62
1, 208896, Note_on_c, 0, 57, 0
1, 208896, Note_on_c, 0, 59, 62
1, 209408, Note_on_c, 0, 67, 0
1, 209408, Note_on_c, 0, 62, 62
1, 209920, Note_on_c, 0, 62, 0
1, 209920, Note_on_c, 0, 59, 0
1, 209920, Note_on_c, 0, 50, 0
1, 209920, Note_on_c, 0, 64, 75
1, 209920, Note_on_c, 0, 48, 75
1, 210432, Note_on_c, 0, 64, 0
1, 210432, Note_on_c, 0, 66, 75
1, 210944, Note_on_c, 0, 66, 0
1, 210944, Note_on_c, 0, 64, 75
1, 210944, Note_on_c, 0, 55, 75
1, 211456, Note_on_c, 0, 64, 0
1, 211456, Note_on_c, 0, 60, 75
1, 211968, Note_on_c, 0, 60, 0
1, 211968, Note_on_c, 0, 67, 75
1, 211968, Note_on_c, 0, 55, 0
1, 211968, Note_on_c, 0, 52, 75
1, 212480, Note_on_c, 0, 67, 0
1, 212480, Note_on_c, 0, 60, 75
1, 212992, Note_on_c, 0, 60, 0
1, 212992, Note_on_c, 0, 52, 0
1, 212992, Note_on_c, 0, 69, 75
1, 212992, Note_on_c, 0, 54, 75
1, 213504, Note_on_c, 0, 69, 0
1, 213504, Note_on_c, 0, 60, 75
1, 214016, Note_on_c, 0, 60, 0
1, 214016, Note_on_c, 0, 64, 75
1, 214016, Note_on_c, 0, 54, 0
1, 214016, Note_on_c, 0, 55, 75
1, 214528, Note_on_c, 0, 64, 0
1, 214528, Note_on_c, 0, 60, 75
1, 215040, Note_on_c, 0, 60, 0
1, 215040, Note_on_c, 0, 66, 75
1, 215040, Note_on_c, 0, 55, 0
1, 215040, Note_on_c, 0, 57, 75
1, 215552, Note_on_c, 0, 66, 0
1, 215552, Note_on_c, 0, 60, 75
1, 216064, Note_on_c, 0, 60, 0
1, 216064, Note_on_c, 0, 57, 0
1, 216064, Note_on_c, 0, 48, 0
1, 216064, Note_on_c, 0, 63, 75
1, 216064, Note_on_c, 0, 47, 75
1, 216576, Note_on_c, 0, 63, 0
1, 216576, Note_on_c, 0, 64, 75
1, 217088, Note_on_c, 0, 64, 0
1, 217088, Note_on_c, 0, 63, 75
1, 217088, Note_on_c, 0, 54, 75
1, 217600, Note_on_c, 0, 63, 0
1, 217600, Note_on_c, 0, 59, 75
1, 218112, Note_on_c, 0, 59, 0
1, 218112, Note_on_c, 0, 66, 75
1, 218112, Note_on_c, 0, 54, 0
1, 218112, Note_on_c, 0, 51, 75
1, 218624, Note_on_c, 0, 66, 0
1, 218624, Note_on_c, 0, 59, 75
1, 219136, Note_on_c, 0, 59, 0
1, 219136, Note_on_c, 0, 51, 0
1, 219136, Note_on_c, 0, 67, 75
1, 219136, Note_on_c, 0, 52, 75
1, 219648, Note_on_c, 0, 67, 0
1, 219648, Note_on_c, 0, 59, 75
1, 220160, Note_on_c, 0, 59, 0
1, 220160, Note_on_c, 0, 63, 75
1, 220160, Note_on_c, 0, 52, 0
1, 220160, Note_on_c, 0, 54, 75
1, 220672, Note_on_c, 0, 63, 0
1, 220672, Note_on_c, 0, 59, 75
1, 221184, Note_on_c, 0, 59, 0
1, 221184, Note_on_c, 0, 64, 75
1, 221184, Note_on_c, 0, 54, 0
1, 221184, Note_on_c, 0, 55, 75
1, 221696, Note_on_c, 0, 64, 0
1, 221696, Note_on_c, 0, 59, 75
1, 222208, Note_on_c, 0, 59, 0
1, 222208, Note_on_c, 0, 55, 0
1, 222208, Note_on_c, 0, 47, 0
1, 222208, Note_on_c, 0, 66, 75
1, 222208, Note_on_c, 0, 51, 75
1, 222208, Note_on_c, 0, 47, 75
1, 222720, Note_on_c, 0, 66, 0
1, 222720, Note_on_c, 0, 59, 75
1, 223232, Note_on_c, 0, 59, 0
1, 223232, Note_on_c, 0, 69, 81
1, 223232, Note_on_c, 0, 51, 0
1, 223232, Note_on_c, 0, 54, 81
1, 223744, Note_on_c, 0, 69, 0
1, 223744, Note_on_c, 0, 59, 87
1, 224256, Note_on_c, 0, 59, 0
1, 224256, Note_on_c, 0, 67, 93
1, 224256, Note_on_c, 0, 54, 0
1, 224256, Note_on_c, 0, 52, 93
1, 224768, Note_on_c, 0, 67, 0
1, 224768, Note_on_c, 0, 59, 101
1, 225280, Note_on_c, 0, 59, 0
1, 225280, Note_on_c, 0, 52, 0
1, 225280, Note_on_c, 0, 47, 0
1, 225280, Note_on_c, 0, 66, 107
1, 225280, Note_on_c, 0, 51, 107
1, 225280, Note_on_c, 0, 47, 107
1, 225536, Note_on_c, 0, 66, 0
1, 225536, Note_on_c, 0, 67, 107
1, 225664, Note_on_c, 0, 67, 0
1, 225664, Note_on_c, 0, 66, 107
1, 225792, Note_on_c, 0, 66, 0
1, 225792, Note_on_c, 0, 67, 113
1, 225920, Note_on_c, 0, 67, 0
1, 225920, Note_on_c, 0, 66, 113
1, 226304, Note_on_c, 0, 66, 0
1, 226304, Note_on_c, 0, 51, 0
1, 226304, Note_on_c, 0, 47, 0
1, 228352, Note_on_c, 0, 71, 62
1, 228352, Note_on_c, 0, 40, 62
1, 228352, Note_on_c, 0, 52, 62
1, 228864, Note_on_c, 0, 71, 0
1, 228864, Note_on_c, 0, 72, 62
1, 229376, Note_on_c, 0, 72, 0
1, 229376, Note_on_c, 0, 71, 62
1, 229376, Note_on_c, 0, 40, 0
1, 229376, Note_on_c, 0, 52, 0
1, 229376, Note_on_c, 0, 43, 62
1, 229376, Note_on_c, 0, 55, 62
1, 229888, Note_on_c, 0, 71, 0
1, 229888, Note_on_c, 0, 67, 62
1, 230400, Note_on_c, 0, 67, 0
1, 230400, Note_on_c, 0, 69, 62
1, 230400, Note_on_c, 0, 43, 0
1, 230400, Note_on_c, 0, 55, 0
1, 230400, Note_on_c, 0, 47, 62
1, 230400, Note_on_c, 0, 59, 62
1, 230912, Note_on_c, 0, 69, 0
1, 230912, Note_on_c, 0, 66, 62
1, 231424, Note_on_c, 0, 66, 0
1, 231424, Note_on_c, 0, 47, 0
1, 231424, Note_on_c, 0, 59, 0
1, 231424, Note_on_c, 0, 67, 62
1, 231424, Note_on_c, 0, 40, 62
1, 231424, Note_on_c, 0, 52, 62
1, 231936, Note_on_c, 0, 67, 0
1, 231936, Note_on_c, 0, 69, 62
1, 232448, Note_on_c, 0, 69, 0
1, 232448, Note_on_c, 0, 67, 62
1, 232448, Note_on_c, 0, 40, 0
1, 232448, Note_on_c, 0, 52, 0
1, 232448, Note_on_c, 0, 43, 62
1, 232448, Note_on_c, 0, 55, 62
1, 232960, Note_on_c, 0, 67, 0
1, 232960, Note_on_c, 0, 64, 62
1, 233472, Note_on_c, 0, 64, 0
1, 233472, Note_on_c, 0, 66, 62
1, 233472, Note_on_c, 0, 43, 0
1, 233472, Note_on_c, 0, 55, 0
1, 233472, Note_on_c, 0, 47, 62
1, 233472, Note_on_c, 0, 59, 62
1, 233984, Note_on_c, 0, 66, 0
1, 233984, Note_on_c, 0, 63, 62
1, 234496, Note_on_c, 0, 63, 0
1, 234496, Note_on_c, 0, 47, 0
1, 234496, Note_on_c, 0, 59, 0
1, 234496, Note_on_c, 0, 64, 49
1, 234496, Note_on_c, 0, 55, 49
1, 235008, Note_on_c, 0, 64, 0
1, 235008, Note_on_c, 0, 59, 49
1, 235520, Note_on_c, 0, 59, 0
1, 235520, Note_on_c, 0, 66, 49
1, 235520, Note_on_c, 0, 55, 0
1, 235520, Note_on_c, 0, 51, 49
1, 236032, Note_on_c, 0, 66, 0
1, 236032, Note_on_c, 0, 59, 49
1, 236544, Note_on_c, 0, 59, 0
1, 236544, Note_on_c, 0, 67, 49
1, 236544, Note_on_c, 0, 51, 0
1, 236544, Note_on_c, 0, 52, 49
1, 237056, Note_on_c, 0, 67, 0
1, 237056, Note_on_c, 0, 59, 49
1, 237568, Note_on_c, 0, 59, 0
1, 237568, Note_on_c, 0, 52, 0
1, 237568, Note_on_c, 0, 69, 49
1, 237568, Note_on_c, 0, 54, 49
1, 238080, Note_on_c, 0, 69, 0
1, 238080, Note_on_c, 0, 59, 49
1, 238592, Note_on_c, 0, 59, 0
1, 238592, Note_on_c, 0, 66, 49
1, 238592, Note_on_c, 0, 54, 0
1, 238592, Note_on_c, 0, 51, 49
1, 239104, Note_on_c, 0, 66, 0
1, 239104, Note_on_c, 0, 59, 49
1, 239616, Note_on_c, 0, 59, 0
1, 239616, Note_on_c, 0, 67, 49
1, 239616, Note_on_c, 0, 51, 0
1, 239616, Note_on_c, 0, 52, 49
1, 240128, Note_on_c, 0, 67, 0
1, 240128, Note_on_c, 0, 59, 49
1, 240640, Note_on_c, 0, 59, 0
1, 240640, Note_on_c, 0, 52, 0
1, 240640, Note_on_c, 0, 71, 75
1, 240640, Note_on_c, 0, 40, 75
1, 240640, Note_on_c, 0, 52, 75
1, 241152, Note_on_c, 0, 71, 0
1, 241152, Note_on_c, 0, 72, 75
1, 241664, Note_on_c, 0, 72, 0
1, 241664, Note_on_c, 0, 71, 75
1, 241664, Note_on_c, 0, 40, 0
1, 241664, Note_on_c, 0, 52, 0
1, 241664, Note_on_c, 0, 43, 75
1, 241664, Note_on_c, 0, 55, 75
1, 242176, Note_on_c, 0, 71, 0
1, 242176, Note_on_c, 0, 67, 75
1, 242688, Note_on_c, 0, 67, 0
1, 242688, Note_on_c, 0, 69, 75
1, 242688, Note_on_c, 0, 43, 0
1, 242688, Note_on_c, 0, 55, 0
1, 242688, Note_on_c, 0, 47, 75
1, 242688, Note_on_c, 0, 59, 75
1, 243200, Note_on_c, 0, 69, 0
1, 243200, Note_on_c, 0, 66, 75
1, 243712, Note_on_c, 0, 66, 0
1, 243712, Note_on_c, 0, 47, 0
1, 243712, Note_on_c, 0, 59, 0
1, 243712, Note_on_c, 0, 67, 75
1, 243712, Note_on_c, 0, 40, 75
1, 243712, Note_on_c, 0, 52, 75
1, 244224, Note_on_c, 0, 67, 0
1, 244224, Note_on_c, 0, 69, 75
1, 244736, Note_on_c, 0, 69, 0
1, 244736, Note_on_c, 0, 67, 75
1, 244736, Note_on_c, 0, 40, 0
1, 244736, Note_on_c, 0, 52, 0
1, 245248, Note_on_c, 0, 67, 0
1, 245248, Note_on_c, 0, 64, 75
1, 245760, Note_on_c, 0, 64, 0
1, 245760, Note_on_c, 0, 68, 75
1, 245760, Note_on_c, 0, 38, 75
1, 245760, Note_on_c, 0, 50, 75
1, 246272, Note_on_c, 0, 68, 0
1, 246272, Note_on_c, 0, 64, 75
1, 246784, Note_on_c, 0, 64, 0
1, 246784, Note_on_c, 0, 38, 0
1, 246784, Note_on_c, 0, 50, 0
1, 246784, Note_on_c, 0, 69, 75
1, 246784, Note_on_c, 0, 36, 75
1, 246784, Note_on_c, 0, 48, 75
1, 247296, Note_on_c, 0, 69, 0
1, 247296, Note_on_c, 0, 64, 75
1, 247808, Note_on_c, 0, 64, 0
1, 247808, Note_on_c, 0, 71, 75
1, 247808, Note_on_c, 0, 36, 0
1, 247808, Note_on_c, 0, 48, 0
1, 247808, Note_on_c, 0, 35, 75
1, 247808, Note_on_c, 0, 47, 75
1, 248320, Note_on_c, 0, 71, 0
1, 248320, Note_on_c, 0, 64, 75
1, 248832, Note_on_c, 0, 64, 0
1, 248832, Note_on_c, 0, 72, 75
1, 248832, Note_on_c, 0, 35, 0
1, 248832, Note_on_c, 0, 47, 0
1, 248832, Note_on_c, 0, 33, 75
1, 248832, Note_on_c, 0, 45, 75
1, 249344, Note_on_c, 0, 72, 0
1, 249344, Note_on_c, 0, 64, 75
1, 249856, Note_on_c, 0, 64, 0
1, 249856, Note_on_c, 0, 33, 0
1, 249856, Note_on_c, 0, 45, 0
1, 249856, Note_on_c, 0, 72, 75
1, 249856, Note_on_c, 0, 31, 75
1, 249856, Note_on_c, 0, 43, 75
1, 250368, Note_on_c, 0, 72, 0
1, 250368, Note_on_c, 0, 71, 75
1, 250880, Note_on_c, 0, 71, 0
1, 250880, Note_on_c, 0, 69, 75
1, 251392, Note_on_c, 0, 69, 0
1, 251392, Note_on_c, 0, 67, 75
1, 251904, Note_on_c, 0, 67, 0
1, 251904, Note_on_c, 0, 66, 75
1, 251904, Note_on_c, 0, 31, 0
1, 251904, Note_on_c, 0, 43, 0
1, 252416, Note_on_c, 0, 66, 0
1, 252416, Note_on_c, 0, 64, 75
1, 252928, Note_on_c, 0, 64, 0
1, 252928, Note_on_c, 0, 66, 75
1, 252928, Note_on_c, 0, 45, 75
1, 252928, Note_on_c, 0, 57, 75
1, 253440, Note_on_c, 0, 66, 0
1, 253440, Note_on_c, 0, 69, 75
1, 253952, Note_on_c, 0, 69, 0
1, 253952, Note_on_c, 0, 67, 75
1, 253952, Note_on_c, 0, 45, 0
1, 253952, Note_on_c, 0, 57, 0
1, 253952, Note_on_c, 0, 47, 75
1, 253952, Note_on_c, 0, 59, 75
1, 254464, Note_on_c, 0, 67, 0
1, 254464, Note_on_c, 0, 64, 75
1, 254976, Note_on_c, 0, 64, 0
1, 254976, Note_on_c, 0, 66, 75
1, 254976, Note_on_c, 0, 47, 0
1, 254976, Note_on_c, 0, 59, 0
1, 254976, Note_on_c, 0, 45, 75
1, 254976, Note_on_c, 0, 57, 75
1, 255488, Note_on_c, 0, 66, 0
1, 255488, Note_on_c, 0, 63, 75
1, 256000, Note_on_c, 0, 63, 0
1, 256000, Note_on_c, 0, 45, 0
1, 256000, Note_on_c, 0, 57, 0
1, 256000, Note_on_c, 0, 64, 75
1, 256000, Note_on_c, 0, 52, 75
1, 256000, Note_on_c, 0, 55, 75
1, 256256, Note_on_c, 0, 64, 0
1, 256256, Note_on_c, 0, 66, 75
1, 256384, Note_on_c, 0, 66, 0
1, 256384, Note_on_c, 0, 64, 75
1, 256512, Note_on_c, 0, 64, 0
1, 256512, Note_on_c, 0, 66, 75
1, 256640, Note_on_c, 0, 66, 0
1, 256640, Note_on_c, 0, 64, 75
1, 256768, Note_on_c, 0, 64, 0
1, 256768, Note_on_c, 0, 66, 75
1, 256896, Note_on_c, 0, 66, 0
1, 256896, Note_on_c, 0, 64, 75
1, 257024, Note_on_c, 0, 64, 0
1, 257024, Note_on_c, 0, 66, 75
1, 257024, Note_on_c, 0, 52, 0
1, 257024, Note_on_c, 0, 55, 0
1, 257024, Note_on_c, 0, 40, 75
1, 257152, Note_on_c, 0, 66, 0
1, 257152, Note_on_c, 0, 64, 75
1, 257280, Note_on_c, 0, 64, 0
1, 257280, Note_on_c, 0, 66, 75
1, 257408, Note_on_c, 0, 66, 0
1, 257408, Note_on_c, 0, 64, 75
1, 257536, Note_on_c, 0, 64, 0
1, 257536, Note_on_c, 0, 66, 75
1, 257664, Note_on_c, 0, 66, 0
1, 257664, Note_on_c, 0, 64, 75
1, 258048, Note_on_c, 0, 64, 0
1, 258048, Note_on_c, 0, 40, 0
1, 259072, Note_on_c, 0, 68, 62
1, 259072, Note_on_c, 0, 52, 62
1, 259584, Note_on_c, 0, 68, 0
1, 259584, Note_on_c, 0, 69, 62
1, 260096, Note_on_c, 0, 69, 0
1, 260096, Note_on_c, 0, 68, 62
1, 260096, Note_on_c, 0, 59, 62
1, 260608, Note_on_c, 0, 68, 0
1, 260608, Note_on_c, 0, 64, 62
1, 261120, Note_on_c, 0, 64, 0
1, 261120, Note_on_c, 0, 71, 62
1, 261120, Note_on_c, 0, 59, 0
1, 261120, Note_on_c, 0, 56, 62
1, 261632, Note_on_c, 0, 71, 0
1, 261632, Note_on_c, 0, 64, 62
1, 262144, Note_on_c, 0, 64, 0
1, 262144, Note_on_c, 0, 56, 0
1, 262144, Note_on_c, 0, 72, 62
1, 262144, Note_on_c, 0, 57, 62
1, 262656, Note_on_c, 0, 72, 0
1, 262656, Note_on_c, 0, 64, 62
1, 263168, Note_on_c, 0, 64, 0
1, 263168, Note_on_c, 0, 68, 62
1, 263168, Note_on_c, 0, 57, 0
1, 263168, Note_on_c, 0, 59, 62
1, 263680, Note_on_c, 0, 68, 0
1, 263680, Note_on_c, 0, 64, 62
1, 264192, Note_on_c, 0, 64, 0
1, 264192, Note_on_c, 0, 69, 62
1, 264192, Note_on_c, 0, 59, 0
1, 264192, Note_on_c, 0, 60, 62
1, 264704, Note_on_c, 0, 69, 0
1, 264704, Note_on_c, 0, 64, 62
1, 265216, Note_on_c, 0, 64, 0
1, 265216, Note_on_c, 0, 60, 0
1, 265216, Note_on_c, 0, 52, 0
1, 265216, Note_on_c, 0, 66, 62
1, 265216, Note_on_c, 0, 50, 62
1, 265728, Note_on_c, 0, 66, 0
1, 265728, Note_on_c, 0, 67, 62
1, 266240, Note_on_c, 0, 67, 0
1, 266240, Note_on_c, 0, 66, 62
1, 266240, Note_on_c, 0, 57, 62
1, 266752, Note_on_c, 0, 66, 0
1, 266752, Note_on_c, 0, 62, 62
1, 267264, Note_on_c, 0, 62, 0
1, 267264, Note_on_c, 0, 69, 62
1, 267264, Note_on_c, 0, 57, 0
1, 267264, Note_on_c, 0, 54, 62
1, 267776, Note_on_c, 0, 69, 0
1, 267776, Note_on_c, 0, 62, 62
1, 268288, Note_on_c, 0, 62, 0
1, 268288, Note_on_c, 0, 54, 0
1, 268288, Note_on_c, 0, 71, 62
1, 268288, Note_on_c, 0, 55, 62
1, 268800, Note_on_c, 0, 71, 0
1, 268800, Note_on_c, 0, 62, 62
1, 269312, Note_on_c, 0, 62, 0
1, 269312, Note_on_c, 0, 66, 62
1, 269312, Note_on_c, 0, 55, 0
1, 269312, Note_on_c, 0, 57, 62
1, 269824, Note_on_c, 0, 66, 0
1, 269824, Note_on_c, 0, 62, 62
1, 270336, Note_on_c, 0, 62, 0
1, 270336, Note_on_c, 0, 67, 62
1, 270336, Note_on_c, 0, 57, 0
1, 270336, Note_on_c, 0, 59, 62
1, 270848, Note_on_c, 0, 67, 0
1, 270848, Note_on_c, 0, 62, 62
1, 271360, Note_on_c, 0, 62, 0
1, 271360, Note_on_c, 0, 59, 0
1, 271360, Note_on_c, 0, 50, 0
1, 271360, Note_on_c, 0, 64, 75
1, 271360, Note_on_c, 0, 48, 75
1, 271872, Note_on_c, 0, 64, 0
1, 271872, Note_on_c, 0, 66, 75
1, 272384, Note_on_c, 0, 66, 0
1, 272384, Note_on_c, 0, 64, 75
1, 272384, Note_on_c, 0, 55, 75
1, 272896, Note_on_c, 0, 64, 0
1, 272896, Note_on_c, 0, 60, 75
1, 273408, Note_on_c, 0, 60, 0
1, 273408, Note_on_c, 0, 67, 75
1, 273408, Note_on_c, 0, 55, 0
1, 273408, Note_on_c, 0, 52, 75
1, 273920, Note_on_c, 0, 67, 0
1, 273920, Note_on_c, 0, 60, 75
1, 274432, Note_on_c, 0, 60, 0
1, 274432, Note_on_c, 0, 52, 0
1, 274432, Note_on_c, 0, 69, 75
1, 274432, Note_on_c, 0, 54, 75
1, 274944, Note_on_c, 0, 69, 0
1, 274944, Note_on_c, 0, 60, 75
1, 275456, Note_on_c, 0, 60, 0
1, 275456, Note_on_c, 0, 64, 75
1, 275456, Note_on_c, 0, 54, 0
1, 275456, Note_on_c, 0, 55, 75
1, 275968, Note_on_c, 0, 64, 0
1, 275968, Note_on_c, 0, 60, 75
1, 276480, Note_on_c, 0, 60, 0
1, 276480, Note_on_c, 0, 66, 75
1, 276480, Note_on_c, 0, 55, 0
1, 276480, Note_on_c, 0, 57, 75
1, 276992, Note_on_c, 0, 66, 0
1, 276992, Note_on_c, 0, 60, 75
1, 277504, Note_on_c, 0, 60, 0
1, 277504, Note_on_c, 0, 57, 0
1, 277504, Note_on_c, 0, 48, 0
1, 277504, Note_on_c, 0, 63, 75
1, 277504, Note_on_c, 0, 47, 75
1, 278016, Note_on_c, 0, 63, 0
1, 278016, Note_on_c, 0, 64, 75
1, 278528, Note_on_c, 0, 64, 0
1, 278528, Note_on_c, 0, 63, 75
1, 278528, Note_on_c, 0, 54, 75
1, 279040, Note_on_c, 0, 63, 0
1, 279040, Note_on_c, 0, 59, 75
1, 279552, Note_on_c, 0, 59, 0
1, 279552, Note_on_c, 0, 66, 75
1, 279552, Note_on_c, 0, 54, 0
1, 279552, Note_on_c, 0, 51, 75
1, 280064, Note_on_c, 0, 66, 0
1, 280064, Note_on_c, 0, 59, 75
1, 280576, Note_on_c, 0, 59, 0
1, 280576, Note_on_c, 0, 51, 0
1, 280576, Note_on_c, 0, 67, 75
1, 280576, Note_on_c, 0, 52, 75
1, 281088, Note_on_c, 0, 67, 0
1, 281088, Note_on_c, 0, 59, 75
1, 281600, Note_on_c, 0, 59, 0
1, 281600, Note_on_c, 0, 63, 75
1, 281600, Note_on_c, 0, 52, 0
1, 281600, Note_on_c, 0, 54, 75
1, 282112, Note_on_c, 0, 63, 0
1, 282112, Note_on_c, 0, 59, 75
1, 282624, Note_on_c, 0, 59, 0
1, 282624, Note_on_c, 0, 64, 75
1, 282624, Note_on_c, 0, 54, 0
1, 282624, Note_on_c, 0, 55, 75
1, 283136, Note_on_c, 0, 64, 0
1, 283136, Note_on_c, 0, 59, 75
1, 283648, Note_on_c, 0, 59, 0
1, 283648, Note_on_c, 0, 55, 0
1, 283648, Note_on_c, 0, 47, 0
1, 283648, Note_on_c, 0, 66, 75
1, 283648, Note_on_c, 0, 51, 75
1, 283648, Note_on_c, 0, 47, 75
1, 284160, Note_on_c, 0, 66, 0
1, 284160, Note_on_c, 0, 59, 75
1, 284672, Note_on_c, 0, 59, 0
1, 284672, Note_on_c, 0, 69, 81
1, 284672, Note_on_c, 0, 51, 0
1, 284672, Note_on_c, 0, 54, 81
1, 285184, Note_on_c, 0, 69, 0
1, 285184, Note_on_c, 0, 59, 87
1, 285696, Note_on_c, 0, 59, 0
1, 285696, Note_on_c, 0, 67, 93
1, 285696, Note_on_c, 0, 54, 0
1, 285696, Note_on_c, 0, 52, 93
1, 286208, Note_on_c, 0, 67, 0
1, 286208, Note_on_c, 0, 59, 101
1, 286720, Note_on_c, 0, 59, 0
1, 286720, Note_on_c, 0, 52, 0
1, 286720, Note_on_c, 0, 47, 0
1, 286720, Note_on_c, 0, 66, 107
1, 286720, Note_on_c, 0, 51, 107
1, 286720, Note_on_c, 0, 47, 107
1, 286976, Note_on_c, 0, 66, 0
1, 286976, Note_on_c, 0, 67, 107
1, 287104, Note_on_c, 0, 67, 0
1, 287104, Note_on_c, 0, 66, 107
1, 287232, Note_on_c, 0, 66, 0
1, 287232, Note_on_c, 0, 67, 113
1, 287360, Note_on_c, 0, 67, 0
1, 287360, Note_on_c, 0, 66, 113
1, 287744, Note_on_c, 0, 66, 0
1, 287744, Note_on_c, 0, 51, 0
1, 287744, Note_on_c, 0, 47, 0
1, 289792, Note_on_c, 0, 71, 62
1, 289792, Note_on_c, 0, 40, 62
1, 289792, Note_on_c, 0, 52, 62
1, 290304, Note_on_c, 0, 71, 0
1, 290304, Note_on_c, 0, 72, 62
1, 290816, Note_on_c, 0, 72, 0
1, 290816, Note_on_c, 0, 71, 62
1, 290816, Note_on_c, 0, 40, 0
1, 290816, Note_on_c, 0, 52, 0
1, 290816, Note_on_c, 0, 43, 62
1, 290816, Note_on_c, 0, 55, 62
1, 291328, Note_on_c, 0, 71, 0
1, 291328, Note_on_c, 0, 67, 62
1, 291840, Note_on_c, 0, 67, 0
1, 291840, Note_on_c, 0, 69, 62
1, 291840, Note_on_c, 0, 43, 0
1, 291840, Note_on_c, 0, 55, 0
1, 291840, Note_on_c, 0, 47, 62
1, 291840, Note_on_c, 0, 59, 62
1, 292352, Note_on_c, 0, 69, 0
1, 292352, Note_on_c, 0, 66, 62
1, 292864, Note_on_c, 0, 66, 0
1, 292864, Note_on_c, 0, 47, 0
1, 292864, Note_on_c, 0, 59, 0
1, 292864, Note_on_c, 0, 67, 62
1, 292864, Note_on_c, 0, 40, 62
1, 292864, Note_on_c, 0, 52, 62
1, 293376, Note_on_c, 0, 67, 0
1, 293376, Note_on_c, 0, 69, 62
1, 293888, Note_on_c, 0, 69, 0
1, 293888, Note_on_c, 0, 67, 62
1, 293888, Note_on_c, 0, 40, 0
1, 293888, Note_on_c, 0, 52, 0
1, 293888, Note_on_c, 0, 43, 62
1, 293888, Note_on_c, 0, 55, 62
1, 294400, Note_on_c, 0, 67, 0
1, 294400, Note_on_c, 0, 64, 62
1, 294912, Note_on_c, 0, 64, 0
1, 294912, Note_on_c, 0, 66, 62
1, 294912, Note_on_c, 0, 43, 0
1, 294912, Note_on_c, 0, 55, 0
1, 294912, Note_on_c, 0, 47, 62
1, 294912, Note_on_c, 0, 59, 62
1, 295424, Note_on_c, 0, 66, 0
1, 295424, Note_on_c, 0, 63, 62
1, 295936, Note_on_c, 0, 63, 0
1, 295936, Note_on_c, 0, 47, 0
1, 295936, Note_on_c, 0, 59, 0
1, 295936, Note_on_c, 0, 64, 49
1, 295936, Note_on_c, 0, 55, 49
1, 296448, Note_on_c, 0, 64, 0
1, 296448, Note_on_c, 0, 59, 49
1, 296960, Note_on_c, 0, 59, 0
1, 296960, Note_on_c, 0, 66, 49
1, 296960, Note_on_c, 0, 55, 0
1, 296960, Note_on_c, 0, 51, 49
1, 297472, Note_on_c, 0, 66, 0
1, 297472, Note_on_c, 0, 59, 49
1, 297984, Note_on_c, 0, 59, 0
1, 297984, Note_on_c, 0, 67, 49
1, 297984, Note_on_c, 0, 51, 0
1, 297984, Note_on_c, 0, 52, 49
1, 298496, Note_on_c, 0, 67, 0
1, 298496, Note_on_c, 0, 59, 49
1, 299008, Note_on_c, 0, 59, 0
1, 299008, Note_on_c, 0, 52, 0
1, 299008, Note_on_c, 0, 69, 49
1, 299008, Note_on_c, 0, 54, 49
1, 299520, Note_on_c, 0, 69, 0
1, 299520, Note_on_c, 0, 59, 49
1, 300032, Note_on_c, 0, 59, 0
1, 300032, Note_on_c, 0, 66, 49
1, 300032, Note_on_c, 0, 54, 0
1, 300032, Note_on_c, 0, 51, 49
1, 300544, Note_on_c, 0, 66, 0
1, 300544, Note_on_c, 0, 59, 49
1, 301056, Note_on_c, 0, 59, 0
1, 301056, Note_on_c, 0, 67, 49
1, 301056, Note_on_c, 0, 51, 0
1, 301056, Note_on_c, 0, 52, 49
1, 301568, Note_on_c, 0, 67, 0
1, 301568, Note_on_c, 0, 59, 49
1, 302080, Note_on_c, 0, 59, 0
1, 302080, Note_on_c, 0, 52, 0
1, 302080, Note_on_c, 0, 71, 75
1, 302080, Note_on_c, 0, 40, 75
1, 302080, Note_on_c, 0, 52, 75
1, 302592, Note_on_c, 0, 71, 0
1, 302592, Note_on_c, 0, 72, 75
1, 303104, Note_on_c, 0, 72, 0
1, 303104, Note_on_c, 0, 71, 75
1, 303104, Note_on_c, 0, 40, 0
1, 303104, Note_on_c, 0, 52, 0
1, 303104, Note_on_c, 0, 43, 75
1, 303104, Note_on_c, 0, 55, 75
1, 303616, Note_on_c, 0, 71, 0
1, 303616, Note_on_c, 0, 67, 75
1, 304128, Note_on_c, 0, 67, 0
1, 304128, Note_on_c, 0, 69, 75
1, 304128, Note_on_c, 0, 43, 0
1, 304128, Note_on_c, 0, 55, 0
1, 304128, Note_on_c, 0, 47, 75
1, 304128, Note_on_c, 0, 59, 75
1, 304640, Note_on_c, 0, 69, 0
1, 304640, Note_on_c, 0, 66, 75
1, 305152, Note_on_c, 0, 66, 0
1, 305152, Note_on_c, 0, 47, 0
1, 305152, Note_on_c, 0, 59, 0
1, 305152, Note_on_c, 0, 67, 75
1, 305152, Note_on_c, 0, 40, 75
1, 305152, Note_on_c, 0, 52, 75
1, 305664, Note_on_c, 0, 67, 0
1, 305664, Note_on_c, 0, 69, 75
1, 306176, Note_on_c, 0, 69, 0
1, 306176, Note_on_c, 0, 67, 75
1, 306176, Note_on_c, 0, 40, 0
1, 306176, Note_on_c, 0, 52, 0
1, 306688, Note_on_c, 0, 67, 0
1, 306688, Note_on_c, 0, 64, 75
1, 307200, Note_on_c, 0, 64, 0
1, 307200, Note_on_c, 0, 68, 75
1, 307200, Note_on_c, 0, 38, 75
1, 307200, Note_on_c, 0, 50, 75
1, 307712, Note_on_c, 0, 68, 0
1, 307712, Note_on_c, 0, 64, 75
1, 308224, Note_on_c, 0, 64, 0
1, 308224, Note_on_c, 0, 38, 0
1, 308224, Note_on_c, 0, 50, 0
1, 308224, Note_on_c, 0, 69, 75
1, 308224, Note_on_c, 0, 36, 75
1, 308224, Note_on_c, 0, 48, 75
1, 308736, Note_on_c, 0, 69, 0
1, 308736, Note_on_c, 0, 64, 75
1, 309248, Note_on_c, 0, 64, 0
1, 309248, Note_on_c, 0, 71, 75
1, 309248, Note_on_c, 0, 36, 0
1, 309248, Note_on_c, 0, 48, 0
1, 309248, Note_on_c, 0, 35, 75
1, 309248, Note_on_c, 0, 47, 75
1, 309760, Note_on_c, 0, 71, 0
1, 309760, Note_on_c, 0, 64, 75
1, 310272, Note_on_c, 0, 64, 0
1, 310272, Note_on_c, 0, 72, 75
1, 310272, Note_on_c, 0, 35, 0
1, 310272, Note_on_c, 0, 47, 0
1, 310272, Note_on_c, 0, 33, 75
1, 310272, Note_on_c, 0, 45, 75
1, 310784, Note_on_c, 0, 72, 0
1, 310784, Note_on_c, 0, 64, 75
1, 311296, Note_on_c, 0, 64, 0
1, 311296, Note_on_c, 0, 33, 0
1, 311296, Note_on_c, 0, 45, 0
1, 311296, Note_on_c, 0, 72, 75
1, 311296, Note_on_c, 0, 31, 75
1, 311296, Note_on_c, 0, 43, 75
1, 311808, Note_on_c, 0, 72, 0
1, 311808, Note_on_c, 0, 71, 75
1, 312320, Note_on_c, 0, 71, 0
1, 312320, Note_on_c, 0, 69, 75
1, 312832, Note_on_c, 0, 69, 0
1, 312832, Note_on_c, 0, 67, 75
1, 313344, Note_on_c, 0, 67, 0
1, 313344, Note_on_c, 0, 66, 75
1, 313344, Note_on_c, 0, 31, 0
1, 313344, Note_on_c, 0, 43, 0
1, 313856, Note_on_c, 0, 66, 0
1, 313856, Note_on_c, 0, 64, 75
1, 314368, Note_on_c, 0, 64, 0
1, 314368, Note_on_c, 0, 66, 75
1, 314368, Note_on_c, 0, 45, 75
1, 314368, Note_on_c, 0, 57, 75
1, 314880, Note_on_c, 0, 66, 0
1, 314880, Note_on_c, 0, 69, 75
1, 315392, Note_on_c, 0, 69, 0
1, 315392, Note_on_c, 0, 67, 75
1, 315392, Note_on_c, 0, 45, 0
1, 315392, Note_on_c, 0, 57, 0
1, 315392, Note_on_c, 0, 47, 75
1, 315392, Note_on_c, 0, 59, 75
1, 315904, Note_on_c, 0, 67, 0
1, 315904, Note_on_c, 0, 64, 75
1, 316416, Note_on_c, 0, 64, 0
1, 316416, Note_on_c, 0, 66, 75
1, 316416, Note_on_c, 0, 47, 0
1, 316416, Note_on_c, 0, 59, 0
1, 316416, Note_on_c, 0, 45, 75
1, 316416, Note_on_c, 0, 57, 75
1, 316928, Note_on_c, 0, 66, 0
1, 316928, Note_on_c, 0, 63, 75
1, 317440, Note_on_c, 0, 63, 0
1, 317440, Note_on_c, 0, 45, 0
1, 317440, Note_on_c, 0, 57, 0
1, 317440, Note_on_c, 0, 64, 75
1, 317440, Note_on_c, 0, 52, 75
1, 317440, Note_on_c, 0, 55, 75
1, 317696, Note_on_c, 0, 64, 0
1, 317696, Note_on_c, 0, 66, 75
1, 317824, Note_on_c, 0, 66, 0
1, 317824, Note_on_c, 0, 64, 75
1, 317952, Note_on_c, 0, 64, 0
1, 317952, Note_on_c, 0, 66, 75
1, 318080, Note_on_c, 0, 66, 0
1, 318080, Note_on_c, 0, 64, 75
1, 318208, Note_on_c, 0, 64, 0
1, 318208, Note_on_c, 0, 66, 75
1, 318336, Note_on_c, 0, 66, 0
1, 318336, Note_on_c, 0, 64, 75
1, 318464, Note_on_c, 0, 64, 0
1, 318464, Note_on_c, 0, 66, 75
1, 318464, Note_on_c, 0, 52, 0
1, 318464, Note_on_c, 0, 55, 0
1, 318464, Note_on_c, 0, 40, 75
1, 318592, Note_on_c, 0, 66, 0
1, 318592, Note_on_c, 0, 64, 75
1, 318720, Note_on_c, 0, 64, 0
1, 318720, Note_on_c, 0, 66, 75
1, 318848, Note_on_c, 0, 66, 0
1, 318848, Note_on_c, 0, 64, 75
1, 318976, Note_on_c, 0, 64, 0
1, 318976, Note_on_c, 0, 66, 75
1, 319104, Note_on_c, 0, 66, 0
1, 319104, Note_on_c, 0, 64, 75
1, 319488, Note_on_c, 0, 64, 0
1, 319488, Note_on_c, 0, 40, 0
1, 321024, Note_on_c, 0, 71, 75
1, 321024, Note_on_c, 0, 64, 75
1, 321024, Note_on_c, 0, 68, 75
1, 322048, Note_on_c, 0, 71, 0
1, 322048, Note_on_c, 0, 71, 75
1, 322048, Note_on_c, 0, 64, 0
1, 322048, Note_on_c, 0, 68, 0
1, 322048, Note_on_c, 0, 64, 75
1, 322048, Note_on_c, 0, 68, 75
1, 323072, Note_on_c, 0, 71, 0
1, 323072, Note_on_c, 0, 71, 75
1, 323072, Note_on_c, 0, 64, 0
1, 323072, Note_on_c, 0, 68, 0
1, 323072, Note_on_c, 0, 64, 75
1, 323072, Note_on_c, 0, 68, 75
1, 324096, Note_on_c, 0, 71, 0
1, 324096, Note_on_c, 0, 64, 0
1, 324096, Note_on_c, 0, 68, 0
1, 324096, Note_on_c, 0, 71, 75
1, 324096, Note_on_c, 0, 64, 75
1, 324096, Note_on_c, 0, 68, 75
1, 324224, Note_on_c, 0, 71, 0
1, 324224, Note_on_c, 0, 73, 75
1, 324352, Note_on_c, 0, 73, 0
1, 324352, Note_on_c, 0, 71, 75
1, 324480, Note_on_c, 0, 71, 0
1, 324480, Note_on_c, 0, 73, 75
1, 324608, Note_on_c, 0, 73, 0
1, 324608, Note_on_c, 0, 71, 75
1, 324736, Note_on_c, 0, 71, 0
1, 324736, Note_on_c, 0, 73, 75
1, 324864, Note_on_c, 0, 73, 0
1, 324864, Note_on_c, 0, 71, 75
1, 324992, Note_on_c, 0, 71, 0
1, 324992, Note_on_c, 0, 73, 75
1, 325120, Note_on_c, 0, 73, 0
1, 325120, Note_on_c, 0, 71, 75
1, 325120, Note_on_c, 0, 64, 0
1, 325120, Note_on_c, 0, 68, 0
1, 325120, Note_on_c, 0, 64, 75
1, 325120, Note_on_c, 0, 68, 75
1, 325248, Note_on_c, 0, 71, 0
1, 325248, Note_on_c, 0, 73, 75
1, 325376, Note_on_c, 0, 73, 0
1, 325376, Note_on_c, 0, 71, 75
1, 325504, Note_on_c, 0, 71, 0
1, 325504, Note_on_c, 0, 73, 75
1, 325632, Note_on_c, 0, 73, 0
1, 325632, Note_on_c, 0, 71, 75
1, 325760, Note_on_c, 0, 71, 0
1, 325760, Note_on_c, 0, 73, 75
1, 325888, Note_on_c, 0, 73, 0
1, 325888, Note_on_c, 0, 71, 75
1, 326016, Note_on_c, 0, 71, 0
1, 326016, Note_on_c, 0, 73, 75
1, 326144, Note_on_c, 0, 73, 0
1, 326144, Note_on_c, 0, 76, 75
1, 326144, Note_on_c, 0, 64, 0
1, 326144, Note_on_c, 0, 68, 0
1, 326144, Note_on_c, 0, 64, 75
1, 326144, Note_on_c, 0, 68, 75
1, 326656, Note_on_c, 0, 76, 0
1, 326656, Note_on_c, 0, 75, 75
1, 327168, Note_on_c, 0, 75, 0
1, 327168, Note_on_c, 0, 64, 0
1, 327168, Note_on_c, 0, 68, 0
1, 327168, Note_on_c, 0, 75, 75
1, 327168, Note_on_c, 0, 64, 75
1, 327168, Note_on_c, 0, 69, 75
1, 327680, Note_on_c, 0, 75, 0
1, 327680, Note_on_c, 0, 73, 75
1, 328192, Note_on_c, 0, 73, 0
1, 328192, Note_on_c, 0, 73, 75
1, 328192, Note_on_c, 0, 64, 0
1, 328192, Note_on_c, 0, 69, 0
1, 328192, Note_on_c, 0, 64, 75
1, 328192, Note_on_c, 0, 69, 75
1, 328704, Note_on_c, 0, 73, 0
1, 328704, Note_on_c, 0, 81, 75
1, 329216, Note_on_c, 0, 81, 0
1, 329216, Note_on_c, 0, 81, 75
1, 329216, Note_on_c, 0, 64, 0
1, 329216, Note_on_c, 0, 69, 0
1, 329216, Note_on_c, 0, 64, 75
1, 329216, Note_on_c, 0, 69, 75
1, 329728, Note_on_c, 0, 81, 0
1, 329728, Note_on_c, 0, 73, 75
1, 330240, Note_on_c, 0, 73, 0
1, 330240, Note_on_c, 0, 64, 0
1, 330240, Note_on_c, 0, 69, 0
1, 330240, Note_on_c, 0, 73, 75
1, 330240, Note_on_c, 0, 64, 75
1, 330240, Note_on_c, 0, 69, 75
1, 330368, Note_on_c, 0, 73, 0
1, 330368, Note_on_c, 0, 75, 75
1, 330496, Note_on_c, 0, 75, 0
1, 330496, Note_on_c, 0, 73, 75
1, 330624, Note_on_c, 0, 73, 0
1, 330624, Note_on_c, 0, 75, 75
1, 330752, Note_on_c, 0, 75, 0
1, 330752, Note_on_c, 0, 71, 75
1, 331264, Note_on_c, 0, 71, 0
1, 331264, Note_on_c, 0, 71, 75
1, 331264, Note_on_c, 0, 64, 0
1, 331264, Note_on_c, 0, 69, 0
1, 331264, Note_on_c, 0, 64, 75
1, 331264, Note_on_c, 0, 68, 75
1, 332288, Note_on_c, 0, 64, 0
1, 332288, Note_on_c, 0, 68, 0
1, 332800, Note_on_c, 0, 71, 0
1, 332800, Note_on_c, 0, 83, 75
1, 333312, Note_on_c, 0, 83, 0
1, 333312, Note_on_c, 0, 83, 75
1, 333824, Note_on_c, 0, 83, 0
1, 333824, Note_on_c, 0, 81, 75
1, 334336, Note_on_c, 0, 81, 0
1, 334336, Note_on_c, 0, 81, 75
1, 334336, Note_on_c, 0, 61, 75
1, 334336, Note_on_c, 0, 64, 75
1, 335360, Note_on_c, 0, 61, 0
1, 335360, Note_on_c, 0, 64, 0
1, 335360, Note_on_c, 0, 59, 75
1, 335360, Note_on_c, 0, 63, 75
1, 335872, Note_on_c, 0, 81, 0
1, 335872, Note_on_c, 0, 80, 75
1, 336384, Note_on_c, 0, 80, 0
1, 336384, Note_on_c, 0, 59, 0
1, 336384, Note_on_c, 0, 63, 0
1, 336384, Note_on_c, 0, 80, 75
1, 336896, Note_on_c, 0, 80, 0
1, 336896, Note_on_c, 0, 78, 75
1, 337408, Note_on_c, 0, 78, 0
1, 337408, Note_on_c, 0, 78, 75
1, 337408, Note_on_c, 0, 57, 75
1, 337408, Note_on_c, 0, 61, 75
1, 338432, Note_on_c, 0, 57, 0
1, 338432, Note_on_c, 0, 61, 0
1, 338432, Note_on_c, 0, 56, 75
1, 338432, Note_on_c, 0, 59, 75
1, 338944, Note_on_c, 0, 78, 0
1, 338944, Note_on_c, 0, 76, 75
1, 339456, Note_on_c, 0, 76, 0
1, 339456, Note_on_c, 0, 56, 0
1, 339456, Note_on_c, 0, 59, 0
1, 339456, Note_on_c, 0, 75, 75
1, 339968, Note_on_c, 0, 75, 0
1, 339968, Note_on_c, 0, 78, 75
1, 340480, Note_on_c, 0, 78, 0
1, 340480, Note_on_c, 0, 78, 75
1, 340480, Note_on_c, 0, 51, 75
1, 340992, Note_on_c, 0, 78, 0
1, 340992, Note_on_c, 0, 81, 75
1, 341504, Note_on_c, 0, 81, 0
1, 341504, Note_on_c, 0, 78, 75
1, 341504, Note_on_c, 0, 81, 75
1, 341504, Note_on_c, 0, 51, 0
1, 341504, Note_on_c, 0, 52, 75
1, 342016, Note_on_c, 0, 78, 0
1, 342016, Note_on_c, 0, 81, 0
1, 342016, Note_on_c, 0, 76, 75
1, 342016, Note_on_c, 0, 80, 75
1, 342528, Note_on_c, 0, 76, 0
1, 342528, Note_on_c, 0, 80, 0
1, 342528, Note_on_c, 0, 52, 0
1, 342528, Note_on_c, 0, 76, 75
1, 342528, Note_on_c, 0, 80, 75
1, 342528, Note_on_c, 0, 59, 75
1, 343552, Note_on_c, 0, 76, 0
1, 343552, Note_on_c, 0, 80, 0
1, 343552, Note_on_c, 0, 75, 75
1, 343552, Note_on_c, 0, 78, 75
1, 343552, Note_on_c, 0, 59, 0
1, 343552, Note_on_c, 0, 54, 75
1, 344576, Note_on_c, 0, 75, 0
1, 344576, Note_on_c, 0, 78, 0
1, 344576, Note_on_c, 0, 54, 0
1, 344576, Note_on_c, 0, 47, 75
1, 345600, Note_on_c, 0, 47, 0
1, 345600, Note_on_c, 0, 71, 75
1, 345600, Note_on_c, 0, 64, 75
1, 345600, Note_on_c, 0, 68, 75
1, 346624, Note_on_c, 0, 71, 0
1, 346624, Note_on_c, 0, 71, 75
1, 346624, Note_on_c, 0, 64, 0
1, 346624, Note_on_c, 0, 68, 0
1, 346624, Note_on_c, 0, 64, 75
1, 346624, Note_on_c, 0, 68, 75
1, 347648, Note_on_c, 0, 71, 0
1, 347648, Note_on_c, 0, 71, 75
1, 347648, Note_on_c, 0, 64, 0
1, 347648, Note_on_c, 0, 68, 0
1, 347648, Note_on_c, 0, 64, 75
1, 347648, Note_on_c, 0, 68, 75
1, 348672, Note_on_c, 0, 71, 0
1, 348672, Note_on_c, 0, 64, 0
1, 348672, Note_on_c, 0, 68, 0
1, 348672, Note_on_c, 0, 71, 75
1, 348672, Note_on_c, 0, 64, 75
1, 348672, Note_on_c, 0, 68, 75
1, 348800, Note_on_c, 0, 71, 0
1, 348800, Note_on_c, 0, 73, 75
1, 348928, Note_on_c, 0, 73, 0
1, 348928, Note_on_c, 0, 71, 75
1, 349056, Note_on_c, 0, 71, 0
1, 349056, Note_on_c, 0, 73, 75
1, 349184, Note_on_c, 0, 73, 0
1, 349184, Note_on_c, 0, 71, 75
1, 349312, Note_on_c, 0, 71, 0
1, 349312, Note_on_c, 0, 73, 75
1, 349440, Note_on_c, 0, 73, 0
1, 349440, Note_on_c, 0, 71, 75
1, 349568, Note_on_c, 0, 71, 0
1, 349568, Note_on_c, 0, 73, 75
1, 349696, Note_on_c, 0, 73, 0
1, 349696, Note_on_c, 0, 71, 75
1, 349696, Note_on_c, 0, 64, 0
1, 349696, Note_on_c, 0, 68, 0
1, 349696, Note_on_c, 0, 64, 75
1, 349696, Note_on_c, 0, 68, 75
1, 349824, Note_on_c, 0, 71, 0
1, 349824, Note_on_c, 0, 73, 75
1, 349952, Note_on_c, 0, 73, 0
1, 349952, Note_on_c, 0, 71, 75
1, 350080, Note_on_c, 0, 71, 0
1, 350080, Note_on_c, 0, 73, 75
1, 350208, Note_on_c, 0, 73, 0
1, 350208, Note_on_c, 0, 71, 75
1, 350336, Note_on_c, 0, 71, 0
1, 350336, Note_on_c, 0, 73, 75
1, 350464, Note_on_c, 0, 73, 0
1, 350464, Note_on_c, 0, 71, 75
1, 350592, Note_on_c, 0, 71, 0
1, 350592, Note_on_c, 0, 73, 75
1, 350720, Note_on_c, 0, 73, 0
1, 350720, Note_on_c, 0, 76, 75
1, 350720, Note_on_c, 0, 64, 0
1, 350720, Note_on_c, 0, 68, 0
1, 350720, Note_on_c, 0, 64, 75
1, 350720, Note_on_c, 0, 68, 75
1, 351232, Note_on_c, 0, 76, 0
1, 351232, Note_on_c, 0, 75, 75
1, 351744, Note_on_c, 0, 75, 0
1, 351744, Note_on_c, 0, 64, 0
1, 351744, Note_on_c, 0, 68, 0
1, 351744, Note_on_c, 0, 75, 75
1, 351744, Note_on_c, 0, 64, 75
1, 351744, Note_on_c, 0, 69, 75
1, 352256, Note_on_c, 0, 75, 0
1, 352256, Note_on_c, 0, 73, 75
1, 352768, Note_on_c, 0, 73, 0
1, 352768, Note_on_c, 0, 73, 75
1, 352768, Note_on_c, 0, 64, 0
1, 352768, Note_on_c, 0, 69, 0
1, 352768, Note_on_c, 0, 64, 75
1, 352768, Note_on_c, 0, 69, 75
1, 353280, Note_on_c, 0, 73, 0
1, 353280, Note_on_c, 0, 81, 75
1, 353792, Note_on_c, 0, 81, 0
1, 353792, Note_on_c, 0, 81, 75
1, 353792, Note_on_c, 0, 64, 0
1, 353792, Note_on_c, 0, 69, 0
1, 353792, Note_on_c, 0, 64, 75
1, 353792, Note_on_c, 0, 69, 75
1, 354304, Note_on_c, 0, 81, 0
1, 354304, Note_on_c, 0, 73, 75
1, 354816, Note_on_c, 0, 73, 0
1, 354816, Note_on_c, 0, 64, 0
1, 354816, Note_on_c, 0, 69, 0
1, 354816, Note_on_c, 0, 73, 75
1, 354816, Note_on_c, 0, 64, 75
1, 354816, Note_on_c, 0, 69, 75
1, 354944, Note_on_c, 0, 73, 0
1, 354944, Note_on_c, 0, 75, 75
1, 355072, Note_on_c, 0, 75, 0
1, 355072, Note_on_c, 0, 73, 75
1, 355200, Note_on_c, 0, 73, 0
1, 355200, Note_on_c, 0, 75, 75
1, 355328, Note_on_c, 0, 75, 0
1, 355328, Note_on_c, 0, 71, 75
1, 355840, Note_on_c, 0, 71, 0
1, 355840, Note_on_c, 0, 71, 75
1, 355840, Note_on_c, 0, 64, 0
1, 355840, Note_on_c, 0, 69, 0
1, 355840, Note_on_c, 0, 64, 75
1, 355840, Note_on_c, 0, 68, 75
1, 356864, Note_on_c, 0, 64, 0
1, 356864, Note_on_c, 0, 68, 0
1, 357376, Note_on_c, 0, 71, 0
1, 357376, Note_on_c, 0, 83, 75
1, 357888, Note_on_c, 0, 83, 0
1, 357888, Note_on_c, 0, 83, 75
1, 358400, Note_on_c, 0, 83, 0
1, 358400, Note_on_c, 0, 81, 75
1, 358912, Note_on_c, 0, 81, 0
1, 358912, Note_on_c, 0, 81, 75
1, 358912, Note_on_c, 0, 61, 75
1, 358912, Note_on_c, 0, 64, 75
1, 359936, Note_on_c, 0, 61, 0
1, 359936, Note_on_c, 0, 64, 0
1, 359936, Note_on_c, 0, 59, 75
1, 359936, Note_on_c, 0, 63, 75
1, 360448, Note_on_c, 0, 81, 0
1, 360448, Note_on_c, 0, 80, 75
1, 360960, Note_on_c, 0, 80, 0
1, 360960, Note_on_c, 0, 59, 0
1, 360960, Note_on_c, 0, 63, 0
1, 360960, Note_on_c, 0, 80, 75
1, 361472, Note_on_c, 0, 80, 0
1, 361472, Note_on_c, 0, 78, 75
1, 361984, Note_on_c, 0, 78, 0
1, 361984, Note_on_c, 0, 78, 75
1, 361984, Note_on_c, 0, 57, 75
1, 361984, Note_on_c, 0, 61, 75
1, 363008, Note_on_c, 0, 57, 0
1, 363008, Note_on_c, 0, 61, 0
1, 363008, Note_on_c, 0, 56, 75
1, 363008, Note_on_c, 0, 59, 75
1, 363520, Note_on_c, 0, 78, 0
1, 363520, Note_on_c, 0, 76, 75
1, 364032, Note_on_c, 0, 76, 0
1, 364032, Note_on_c, 0, 56, 0
1, 364032, Note_on_c, 0, 59, 0
1, 364032, Note_on_c, 0, 75, 75
1, 364544, Note_on_c, 0, 75, 0
1, 364544, Note_on_c, 0, 78, 75
1, 365056, Note_on_c, 0, 78, 0
1, 365056, Note_on_c, 0, 78, 75
1, 365056, Note_on_c, 0, 51, 75
1, 365568, Note_on_c, 0, 78, 0
1, 365568, Note_on_c, 0, 81, 75
1, 366080, Note_on_c, 0, 81, 0
1, 366080, Note_on_c, 0, 78, 75
1, 366080, Note_on_c, 0, 81, 75
1, 366080, Note_on_c, 0, 51, 0
1, 366080, Note_on_c, 0, 52, 75
1, 366592, Note_on_c, 0, 78, 0
1, 366592, Note_on_c, 0, 81, 0
1, 366592, Note_on_c, 0, 76, 75
1, 366592, Note_on_c, 0, 80, 75
1, 367104, Note_on_c, 0, 76, 0
1, 367104, Note_on_c, 0, 80, 0
1, 367104, Note_on_c, 0, 52, 0
1, 367104, Note_on_c, 0, 76, 75
1, 367104, Note_on_c, 0, 80, 75
1, 367104, Note_on_c, 0, 59, 75
1, 368128, Note_on_c, 0, 76, 0
1, 368128, Note_on_c, 0, 80, 0
1, 368128, Note_on_c, 0, 75, 75
1, 368128, Note_on_c, 0, 78, 75
1, 368128, Note_on_c, 0, 59, 0
1, 368128, Note_on_c, 0, 54, 75
1, 369152, Note_on_c, 0, 75, 0
1, 369152, Note_on_c, 0, 78, 0
1, 369152, Note_on_c, 0, 54, 0
1, 369152, Note_on_c, 0, 47, 75
1, 370176, Note_on_c, 0, 47, 0
1, 370176, Note_on_c, 0, 71, 75
1, 370688, Note_on_c, 0, 71, 0
1, 370688, Note_on_c, 0, 75, 75
1, 371200, Note_on_c, 0, 75, 0
1, 371200, Note_on_c, 0, 75, 75
1, 371200, Note_on_c, 0, 59, 75
1, 371200, Note_on_c, 0, 69, 75
1, 372224, Note_on_c, 0, 59, 0
1, 372224, Note_on_c, 0, 69, 0
1, 372224, Note_on_c, 0, 59, 75
1, 372224, Note_on_c, 0, 69, 75
1, 372736, Note_on_c, 0, 75, 0
1, 372736, Note_on_c, 0, 71, 75
1, 373248, Note_on_c, 0, 71, 0
1, 373248, Note_on_c, 0, 59, 0
1, 373248, Note_on_c, 0, 69, 0
1, 373248, Note_on_c, 0, 71, 75
1, 373248, Note_on_c, 0, 66, 75
1, 373760, Note_on_c, 0, 71, 0
1, 373760, Note_on_c, 0, 75, 75
1, 374272, Note_on_c, 0, 75, 0
1, 374272, Note_on_c, 0, 78, 75
1, 374272, Note_on_c, 0, 66, 0
1, 374272, Note_on_c, 0, 63, 75
1, 374784, Note_on_c, 0, 78, 0
1, 374784, Note_on_c, 0, 81, 75
1, 375296, Note_on_c, 0, 81, 0
1, 375296, Note_on_c, 0, 81, 75
1, 375296, Note_on_c, 0, 63, 0
1, 375296, Note_on_c, 0, 64, 75
1, 375808, Note_on_c, 0, 81, 0
1, 375808, Note_on_c, 0, 80, 75
1, 376320, Note_on_c, 0, 80, 0
1, 376320, Note_on_c, 0, 64, 0
1, 376320, Note_on_c, 0, 80, 75
1, 376832, Note_on_c, 0, 80, 0
1, 376832, Note_on_c, 0, 78, 75
1, 377344, Note_on_c, 0, 78, 0
1, 377344, Note_on_c, 0, 78, 81
1, 377344, Note_on_c, 0, 57, 81
1, 377344, Note_on_c, 0, 61, 81
1, 378368, Note_on_c, 0, 57, 0
1, 378368, Note_on_c, 0, 61, 0
1, 378368, Note_on_c, 0, 57, 93
1, 378368, Note_on_c, 0, 61, 93
1, 378880, Note_on_c, 0, 78, 0
1, 378880, Note_on_c, 0, 81, 101
1, 379392, Note_on_c, 0, 81, 0
1, 379392, Note_on_c, 0, 57, 0
1, 379392, Note_on_c, 0, 61, 0
1, 379392, Note_on_c, 0, 80, 107
1, 379904, Note_on_c, 0, 80, 0
1, 379904, Note_on_c, 0, 78, 113
1, 380416, Note_on_c, 0, 78, 0
1, 380416, Note_on_c, 0, 78, 119
1, 380416, Note_on_c, 0, 57, 119
1, 380416, Note_on_c, 0, 61, 119
1, 381440, Note_on_c, 0, 57, 0
1, 381440, Note_on_c, 0, 61, 0
1, 381440, Note_on_c, 0, 57, 119
1, 381440, Note_on_c, 0, 61, 119
1, 381952, Note_on_c, 0, 78, 0
1, 381952, Note_on_c, 0, 81, 119
1, 382464, Note_on_c, 0, 81, 0
1, 382464, Note_on_c, 0, 57, 0
1, 382464, Note_on_c, 0, 61, 0
1, 382464, Note_on_c, 0, 80, 119
1, 382976, Note_on_c, 0, 80, 0
1, 382976, Note_on_c, 0, 78, 119
1, 383488, Note_on_c, 0, 78, 0
1, 383488, Note_on_c, 0, 78, 119
1, 383488, Note_on_c, 0, 57, 119
1, 383488, Note_on_c, 0, 61, 119
1, 384000, Note_on_c, 0, 78, 0
1, 384000, Note_on_c, 0, 85, 119
1, 384512, Note_on_c, 0, 85, 0
1, 384512, Note_on_c, 0, 85, 119
1, 384512, Note_on_c, 0, 57, 0
1, 384512, Note_on_c, 0, 61, 0
1, 384512, Note_on_c, 0, 58, 119
1, 384512, Note_on_c, 0, 61, 119
1, 385024, Note_on_c, 0, 85, 0
1, 385024, Note_on_c, 0, 76, 119
1, 385536, Note_on_c, 0, 76, 0
1, 385536, Note_on_c, 0, 58, 0
1, 385536, Note_on_c, 0, 61, 0
1, 385536, Note_on_c, 0, 76, 119
1, 385536, Note_on_c, 0, 59, 119
1, 386560, Note_on_c, 0, 76, 0
1, 386560, Note_on_c, 0, 75, 119
1, 386560, Note_on_c, 0, 59, 0
1, 386560, Note_on_c, 0, 54, 119
1, 387584, Note_on_c, 0, 75, 0
1, 387584, Note_on_c, 0, 54, 0
1, 387584, Note_on_c, 0, 47, 119
1, 388608, Note_on_c, 0, 47, 0
1, 388608, Note_on_c, 0, 71, 75
1, 388608, Note_on_c, 0, 64, 75
1, 388608, Note_on_c, 0, 68, 75
1, 389632, Note_on_c, 0, 71, 0
1, 389632, Note_on_c, 0, 71, 75
1, 389632, Note_on_c, 0, 64, 0
1, 389632, Note_on_c, 0, 68, 0
1, 389632, Note_on_c, 0, 64, 75
1, 389632, Note_on_c, 0, 68, 75
1, 390656, Note_on_c, 0, 71, 0
1, 390656, Note_on_c, 0, 71, 75
1, 390656, Note_on_c, 0, 64, 0
1, 390656, Note_on_c, 0, 68, 0
1, 390656, Note_on_c, 0, 64, 75
1, 390656, Note_on_c, 0, 68, 75
1, 391680, Note_on_c, 0, 71, 0
1, 391680, Note_on_c, 0, 64, 0
1, 391680, Note_on_c, 0, 68, 0
1, 391680, Note_on_c, 0, 71, 75
1, 391680, Note_on_c, 0, 64, 75
1, 391680, Note_on_c, 0, 68, 75
1, 391808, Note_on_c, 0, 71, 0
1, 391808, Note_on_c, 0, 73, 75
1, 391936, Note_on_c, 0, 73, 0
1, 391936, Note_on_c, 0, 71, 75
1, 392064, Note_on_c, 0, 71, 0
1, 392064, Note_on_c, 0, 73, 75
1, 392192, Note_on_c, 0, 73, 0
1, 392192, Note_on_c, 0, 71, 75
1, 392320, Note_on_c, 0, 71, 0
1, 392320, Note_on_c, 0, 73, 75
1, 392448, Note_on_c, 0, 73, 0
1, 392448, Note_on_c, 0, 71, 75
1, 392576, Note_on_c, 0, 71, 0
1, 392576, Note_on_c, 0, 73, 75
1, 392704, Note_on_c, 0, 73, 0
1, 392704, Note_on_c, 0, 71, 75
1, 392704, Note_on_c, 0, 64, 0
1, 392704, Note_on_c, 0, 68, 0
1, 392704, Note_on_c, 0, 64, 75
1, 392704, Note_on_c, 0, 68, 75
1, 392832, Note_on_c, 0, 71, 0
1, 392832, Note_on_c, 0, 73, 75
1, 392960, Note_on_c, 0, 73, 0
1, 392960, Note_on_c, 0, 71, 75
1, 393088, Note_on_c, 0, 71, 0
1, 393088, Note_on_c, 0, 73, 75
1, 393216, Note_on_c, 0, 73, 0
1, 393216, Note_on_c, 0, 71, 75
1, 393344, Note_on_c, 0, 71, 0
1, 393344, Note_on_c, 0, 73, 75
1, 393472, Note_on_c, 0, 73, 0
1, 393472, Note_on_c, 0, 71, 75
1, 393600, Note_on_c, 0, 71, 0
1, 393600, Note_on_c, 0, 73, 75
1, 393728, Note_on_c, 0, 73, 0
1, 393728, Note_on_c, 0, 76, 75
1, 393728, Note_on_c, 0, 64, 0
1, 393728, Note_on_c, 0, 68, 0
1, 393728, Note_on_c, 0, 64, 75
1, 393728, Note_on_c, 0, 68, 75
1, 394240, Note_on_c, 0, 76, 0
1, 394240, Note_on_c, 0, 75, 75
1, 394752, Note_on_c, 0, 75, 0
1, 394752, Note_on_c, 0, 64, 0
1, 394752, Note_on_c, 0, 68, 0
1, 394752, Note_on_c, 0, 75, 75
1, 394752, Note_on_c, 0, 64, 75
1, 394752, Note_on_c, 0, 69, 75
1, 395264, Note_on_c, 0, 75, 0
1, 395264, Note_on_c, 0, 73, 75
1, 395776, Note_on_c, 0, 73, 0
1, 395776, Note_on_c, 0, 73, 75
1, 395776, Note_on_c, 0, 64, 0
1, 395776, Note_on_c, 0, 69, 0
1, 395776, Note_on_c, 0, 64, 75
1, 395776, Note_on_c, 0, 69, 75
1, 396288, Note_on_c, 0, 73, 0
1, 396288, Note_on_c, 0, 81, 75
1, 396800, Note_on_c, 0, 81, 0
1, 396800, Note_on_c, 0, 81, 75
1, 396800, Note_on_c, 0, 64, 0
1, 396800, Note_on_c, 0, 69, 0
1, 396800, Note_on_c, 0, 64, 75
1, 396800, Note_on_c, 0, 69, 75
1, 397312, Note_on_c, 0, 81, 0
1, 397312, Note_on_c, 0, 73, 75
1, 397824, Note_on_c, 0, 73, 0
1, 397824, Note_on_c, 0, 64, 0
1, 397824, Note_on_c, 0, 69, 0
1, 397824, Note_on_c, 0, 73, 75
1, 397824, Note_on_c, 0, 64, 75
1, 397824, Note_on_c, 0, 69, 75
1, 397952, Note_on_c, 0, 73, 0
1, 397952, Note_on_c, 0, 75, 75
1, 398080, Note_on_c, 0, 75, 0
1, 398080, Note_on_c, 0, 73, 75
1, 398208, Note_on_c, 0, 73, 0
1, 398208, Note_on_c, 0, 75, 75
1, 398336, Note_on_c, 0, 75, 0
1, 398336, Note_on_c, 0, 71, 75
1, 398848, Note_on_c, 0, 71, 0
1, 398848, Note_on_c, 0, 71, 75
1, 398848, Note_on_c, 0, 64, 0
1, 398848, Note_on_c, 0, 69, 0
1, 398848, Note_on_c, 0, 64, 75
1, 398848, Note_on_c, 0, 68, 75
1, 399872, Note_on_c, 0, 64, 0
1, 399872, Note_on_c, 0, 68, 0
1, 400384, Note_on_c, 0, 71, 0
1, 400384, Note_on_c, 0, 83, 75
1, 400896, Note_on_c, 0, 83, 0
1, 400896, Note_on_c, 0, 83, 75
1, 401408, Note_on_c, 0, 83, 0
1, 401408, Note_on_c, 0, 81, 75
1, 401920, Note_on_c, 0, 81, 0
1, 401920, Note_on_c, 0, 81, 75
1, 401920, Note_on_c, 0, 61, 75
1, 401920, Note_on_c, 0, 64, 75
1, 402944, Note_on_c, 0, 61, 0
1, 402944, Note_on_c, 0, 64, 0
1, 402944, Note_on_c, 0, 59, 75
1, 402944, Note_on_c, 0, 63, 75
1, 403456, Note_on_c, 0, 81, 0
1, 403456, Note_on_c, 0, 80, 75
1, 403968, Note_on_c, 0, 80, 0
1, 403968, Note_on_c, 0, 59, 0
1, 403968, Note_on_c, 0, 63, 0
1, 403968, Note_on_c, 0, 80, 75
1, 404480, Note_on_c, 0, 80, 0
1, 404480, Note_on_c, 0, 78, 75
1, 404992, Note_on_c, 0, 78, 0
1, 404992, Note_on_c, 0, 78, 75
1, 404992, Note_on_c, 0, 57, 75
1, 404992, Note_on_c, 0, 61, 75
1, 406016, Note_on_c, 0, 57, 0
1, 406016, Note_on_c, 0, 61, 0
1, 406016, Note_on_c, 0, 56, 75
1, 406016, Note_on_c, 0, 59, 75
1, 406528, Note_on_c, 0, 78, 0
1, 406528, Note_on_c, 0, 76, 75
1, 407040, Note_on_c, 0, 76, 0
1, 407040, Note_on_c, 0, 56, 0
1, 407040, Note_on_c, 0, 59, 0
1, 407040, Note_on_c, 0, 76, 101
1, 407552, Note_on_c, 0, 76, 0
1, 407552, Note_on_c, 0, 85, 101
1, 408064, Note_on_c, 0, 85, 0
1, 408064, Note_on_c, 0, 85, 101
1, 408064, Note_on_c, 0, 45, 101
1, 408064, Note_on_c, 0, 57, 101
1, 409088, Note_on_c, 0, 45, 0
1, 409088, Note_on_c, 0, 57, 0
1, 409088, Note_on_c, 0, 44, 101
1, 409088, Note_on_c, 0, 56, 101
1, 409600, Note_on_c, 0, 85, 0
1, 409600, Note_on_c, 0, 83, 101
1, 410112, Note_on_c, 0, 83, 0
1, 410112, Note_on_c, 0, 44, 0
1, 410112, Note_on_c, 0, 56, 0
1, 410112, Note_on_c, 0, 83, 101
1, 410624, Note_on_c, 0, 83, 0
1, 410624, Note_on_c, 0, 81, 101
1, 411136, Note_on_c, 0, 81, 0
1, 411136, Note_on_c, 0, 81, 101
1, 411136, Note_on_c, 0, 42, 101
1, 411136, Note_on_c, 0, 54, 101
1, 412160, Note_on_c, 0, 42, 0
1, 412160, Note_on_c, 0, 54, 0
1, 412160, Note_on_c, 0, 40, 101
1, 412160, Note_on_c, 0, 52, 101
1, 412672, Note_on_c, 0, 81, 0
1, 412672, Note_on_c, 0, 80, 101
1, 413184, Note_on_c, 0, 80, 0
1, 413184, Note_on_c, 0, 40, 0
1, 413184, Note_on_c, 0, 52, 0
1, 413184, Note_on_c, 0, 80, 101
1, 413184, Note_on_c, 0, 45, 101
1, 413184, Note_on_c, 0, 57, 101
1, 413696, Note_on_c, 0, 80, 0
1, 413696, Note_on_c, 0, 78, 101
1, 414208, Note_on_c, 0, 78, 0
1, 414208, Note_on_c, 0, 78, 101
1, 414208, Note_on_c, 0, 45, 0
1, 414208, Note_on_c, 0, 57, 0
1, 414208, Note_on_c, 0, 47, 101
1, 414208, Note_on_c, 0, 56, 101
1, 414720, Note_on_c, 0, 78, 0
1, 414720, Note_on_c, 0, 76, 101
1, 415232, Note_on_c, 0, 76, 0
1, 415232, Note_on_c, 0, 76, 101
1, 415232, Note_on_c, 0, 47, 0
1, 415232, Note_on_c, 0, 56, 0
1, 415232, Note_on_c, 0, 47, 101
1, 415232, Note_on_c, 0, 54, 101
1, 415744, Note_on_c, 0, 76, 0
1, 415744, Note_on_c, 0, 75, 101
1, 416256, Note_on_c, 0, 75, 0
1, 416256, Note_on_c, 0, 47, 0
1, 416256, Note_on_c, 0, 54, 0
1, 416256, Note_on_c, 0, 75, 101
1, 416256, Note_on_c, 0, 52, 101
1, 417280, Note_on_c, 0, 75, 0
1, 417280, Note_on_c, 0, 76, 101
1, 417280, Note_on_c, 0, 52, 0
1, 417280, Note_on_c, 0, 47, 101
1, 418304, Note_on_c, 0, 76, 0
1, 418304, Note_on_c, 0, 47, 0
1, 418304, Note_on_c, 0, 40, 101
1, 419328, Note_on_c, 0, 40, 0
1, 419328, Note_on_c, 0, 71, 75
1, 419840, Note_on_c, 0, 71, 0
1, 419840, Note_on_c, 0, 75, 75
1, 420352, Note_on_c, 0, 75, 0
1, 420352, Note_on_c, 0, 75, 75
1, 420352, Note_on_c, 0, 59, 75
1, 420352, Note_on_c, 0, 69, 75
1, 421376, Note_on_c, 0, 59, 0
1, 421376, Note_on_c, 0, 69, 0
1, 421376, Note_on_c, 0, 59, 75
1, 421376, Note_on_c, 0, 69, 75
1, 421888, Note_on_c, 0, 75, 0
1, 421888, Note_on_c, 0, 71, 75
1, 422400, Note_on_c, 0, 71, 0
1, 422400, Note_on_c, 0, 59, 0
1, 422400, Note_on_c, 0, 69, 0
1, 422400, Note_on_c, 0, 71, 75
1, 422400, Note_on_c, 0, 66, 75
1, 422912, Note_on_c, 0, 71, 0
1, 422912, Note_on_c, 0, 75, 75
1, 423424, Note_on_c, 0, 75, 0
1, 423424, Note_on_c, 0, 78, 75
1, 423424, Note_on_c, 0, 66, 0
1, 423424, Note_on_c, 0, 63, 75
1, 423936, Note_on_c, 0, 78, 0
1, 423936, Note_on_c, 0, 81, 75
1, 424448, Note_on_c, 0, 81, 0
1, 424448, Note_on_c, 0, 81, 75
1, 424448, Note_on_c, 0, 63, 0
1, 424448, Note_on_c, 0, 64, 75
1, 424960, Note_on_c, 0, 81, 0
1, 424960, Note_on_c, 0, 80, 75
1, 425472, Note_on_c, 0, 80, 0
1, 425472, Note_on_c, 0, 64, 0
1, 425472, Note_on_c, 0, 80, 75
1, 425984, Note_on_c, 0, 80, 0
1, 425984, Note_on_c, 0, 78, 75
1, 426496, Note_on_c, 0, 78, 0
1, 426496, Note_on_c, 0, 78, 81
1, 426496, Note_on_c, 0, 57, 81
1, 426496, Note_on_c, 0, 61, 81
1, 427520, Note_on_c, 0, 57, 0
1, 427520, Note_on_c, 0, 61, 0
1, 427520, Note_on_c, 0, 57, 93
1, 427520, Note_on_c, 0, 61, 93
1, 428032, Note_on_c, 0, 78, 0
1, 428032, Note_on_c, 0, 81, 101
1, 428544, Note_on_c, 0, 81, 0
1, 428544, Note_on_c, 0, 57, 0
1, 428544, Note_on_c, 0, 61, 0
1, 428544, Note_on_c, 0, 80, 107
1, 429056, Note_on_c, 0, 80, 0
1, 429056, Note_on_c, 0, 78, 113
1, 429568, Note_on_c, 0, 78, 0
1, 429568, Note_on_c, 0, 78, 119
1, 429568, Note_on_c, 0, 57, 119
1, 429568, Note_on_c, 0, 61, 119
1, 430592, Note_on_c, 0, 57, 0
1, 430592, Note_on_c, 0, 61, 0
1, 430592, Note_on_c, 0, 57, 119
1, 430592, Note_on_c, 0, 61, 119
1, 431104, Note_on_c, 0, 78, 0
1, 431104, Note_on_c, 0, 81, 119
1, 431616, Note_on_c, 0, 81, 0
1, 431616, Note_on_c, 0, 57, 0
1, 431616, Note_on_c, 0, 61, 0
1, 431616, Note_on_c, 0, 80, 119
1, 432128, Note_on_c, 0, 80, 0
1, 432128, Note_on_c, 0, 78, 119
1, 432640, Note_on_c, 0, 78, 0
1, 432640, Note_on_c, 0, 78, 119
1, 432640, Note_on_c, 0, 57, 119
1, 432640, Note_on_c, 0, 61, 119
1, 433152, Note_on_c, 0, 78, 0
1, 433152, Note_on_c, 0, 85, 119
1, 433664, Note_on_c, 0, 85, 0
1, 433664, Note_on_c, 0, 85, 119
1, 433664, Note_on_c, 0, 57, 0
1, 433664, Note_on_c, 0, 61, 0
1, 433664, Note_on_c, 0, 58, 119
1, 433664, Note_on_c, 0, 61, 119
1, 434176, Note_on_c, 0, 85, 0
1, 434176, Note_on_c, 0, 76, 119
1, 434688, Note_on_c, 0, 76, 0
1, 434688, Note_on_c, 0, 58, 0
1, 434688, Note_on_c, 0, 61, 0
1, 434688, Note_on_c, 0, 76, 119
1, 434688, Note_on_c, 0, 59, 119
1, 435712, Note_on_c, 0, 76, 0
1, 435712, Note_on_c, 0, 75, 119
1, 435712, Note_on_c, 0, 59, 0
1, 435712, Note_on_c, 0, 54, 119
1, 436736, Note_on_c, 0, 75, 0
1, 436736, Note_on_c, 0, 54, 0
1, 436736, Note_on_c, 0, 47, 119
1, 437760, Note_on_c, 0, 47, 0
1, 437760, Note_on_c, 0, 71, 75
1, 437760, Note_on_c, 0, 64, 75
1, 437760, Note_on_c, 0, 68, 75
1, 438784, Note_on_c, 0, 71, 0
1, 438784, Note_on_c, 0, 71, 75
1, 438784, Note_on_c, 0, 64, 0
1, 438784, Note_on_c, 0, 68, 0
1, 438784, Note_on_c, 0, 64, 75
1, 438784, Note_on_c, 0, 68, 75
1, 439808, Note_on_c, 0, 71, 0
1, 439808, Note_on_c, 0, 71, 75
1, 439808, Note_on_c, 0, 64, 0
1, 439808, Note_on_c, 0, 68, 0
1, 439808, Note_on_c, 0, 64, 75
1, 439808, Note_on_c, 0, 68, 75
1, 440832, Note_on_c, 0, 71, 0
1, 440832, Note_on_c, 0, 64, 0
1, 440832, Note_on_c, 0, 68, 0
1, 440832, Note_on_c, 0, 71, 75
1, 440832, Note_on_c, 0, 64, 75
1, 440832, Note_on_c, 0, 68, 75
1, 440960, Note_on_c, 0, 71, 0
1, 440960, Note_on_c, 0, 73, 75
1, 441088, Note_on_c, 0, 73, 0
1, 441088, Note_on_c, 0, 71, 75
1, 441216, Note_on_c, 0, 71, 0
1, 441216, Note_on_c, 0, 73, 75
1, 441344, Note_on_c, 0, 73, 0
1, 441344, Note_on_c, 0, 71, 75
1, 441472, Note_on_c, 0, 71, 0
1, 441472, Note_on_c, 0, 73, 75
1, 441600, Note_on_c, 0, 73, 0
1, 441600, Note_on_c, 0, 71, 75
1, 441728, Note_on_c, 0, 71, 0
1, 441728, Note_on_c, 0, 73, 75
1, 441856, Note_on_c, 0, 73, 0
1, 441856, Note_on_c, 0, 71, 75
1, 441856, Note_on_c, 0, 64, 0
1, 441856, Note_on_c, 0, 68, 0
1, 441856, Note_on_c, 0, 64, 75
1, 441856, Note_on_c, 0, 68, 75
1, 441984, Note_on_c, 0, 71, 0
1, 441984, Note_on_c, 0, 73, 75
1, 442112, Note_on_c, 0, 73, 0
1, 442112, Note_on_c, 0, 71, 75
1, 442240, Note_on_c, 0, 71, 0
1, 442240, Note_on_c, 0, 73, 75
1, 442368, Note_on_c, 0, 73, 0
1, 442368, Note_on_c, 0, 71, 75
1, 442496, Note_on_c, 0, 71, 0
1, 442496, Note_on_c, 0, 73, 75
1, 442624, Note_on_c, 0, 73, 0
1, 442624, Note_on_c, 0, 71, 75
1, 442752, Note_on_c, 0, 71, 0
1, 442752, Note_on_c, 0, 73, 75
1, 442880, Note_on_c, 0, 73, 0
1, 442880, Note_on_c, 0, 76, 75
1, 442880, Note_on_c, 0, 64, 0
1, 442880, Note_on_c, 0, 68, 0
1, 442880, Note_on_c, 0, 64, 75
1, 442880, Note_on_c, 0, 68, 75
1, 443392, Note_on_c, 0, 76, 0
1, 443392, Note_on_c, 0, 75, 75
1, 443904, Note_on_c, 0, 75, 0
1, 443904, Note_on_c, 0, 64, 0
1, 443904, Note_on_c, 0, 68, 0
1, 443904, Note_on_c, 0, 75, 75
1, 443904, Note_on_c, 0, 64, 75
1, 443904, Note_on_c, 0, 69, 75
1, 444416, Note_on_c, 0, 75, 0
1, 444416, Note_on_c, 0, 73, 75
1, 444928, Note_on_c, 0, 73, 0
1, 444928, Note_on_c, 0, 73, 75
1, 444928, Note_on_c, 0, 64, 0
1, 444928, Note_on_c, 0, 69, 0
1, 444928, Note_on_c, 0, 64, 75
1, 444928, Note_on_c, 0, 69, 75
1, 445440, Note_on_c, 0, 73, 0
1, 445440, Note_on_c, 0, 81, 75
1, 445952, Note_on_c, 0, 81, 0
1, 445952, Note_on_c, 0, 81, 75
1, 445952, Note_on_c, 0, 64, 0
1, 445952, Note_on_c, 0, 69, 0
1, 445952, Note_on_c, 0, 64, 75
1, 445952, Note_on_c, 0, 69, 75
1, 446464, Note_on_c, 0, 81, 0
1, 446464, Note_on_c, 0, 73, 75
1, 446976, Note_on_c, 0, 73, 0
1, 446976, Note_on_c, 0, 64, 0
1, 446976, Note_on_c, 0, 69, 0
1, 446976, Note_on_c, 0, 73, 75
1, 446976, Note_on_c, 0, 64, 75
1, 446976, Note_on_c, 0, 69, 75
1, 447104, Note_on_c, 0, 73, 0
1, 447104, Note_on_c, 0, 75, 75
1, 447232, Note_on_c, 0, 75, 0
1, 447232, Note_on_c, 0, 73, 75
1, 447360, Note_on_c, 0, 73, 0
1, 447360, Note_on_c, 0, 75, 75
1, 447488, Note_on_c, 0, 75, 0
1, 447488, Note_on_c, 0, 71, 75
1, 448000, Note_on_c, 0, 71, 0
1, 448000, Note_on_c, 0, 71, 75
1, 448000, Note_on_c, 0, 64, 0
1, 448000, Note_on_c, 0, 69, 0
1, 448000, Note_on_c, 0, 64, 75
1, 448000, Note_on_c, 0, 68, 75
1, 449024, Note_on_c, 0, 64, 0
1, 449024, Note_on_c, 0, 68, 0
1, 449536, Note_on_c, 0, 71, 0
1, 449536, Note_on_c, 0, 83, 75
1, 450048, Note_on_c, 0, 83, 0
1, 450048, Note_on_c, 0, 83, 75
1, 450560, Note_on_c, 0, 83, 0
1, 450560, Note_on_c, 0, 81, 75
1, 451072, Note_on_c, 0, 81, 0
1, 451072, Note_on_c, 0, 81, 75
1, 451072, Note_on_c, 0, 61, 75
1, 451072, Note_on_c, 0, 64, 75
1, 452096, Note_on_c, 0, 61, 0
1, 452096, Note_on_c, 0, 64, 0
1, 452096, Note_on_c, 0, 59, 75
1, 452096, Note_on_c, 0, 63, 75
1, 452608, Note_on_c, 0, 81, 0
1, 452608, Note_on_c, 0, 80, 75
1, 453120, Note_on_c, 0, 80, 0
1, 453120, Note_on_c, 0, 59, 0
1, 453120, Note_on_c, 0, 63, 0
1, 453120, Note_on_c, 0, 80, 75
1, 453632, Note_on_c, 0, 80, 0
1, 453632, Note_on_c, 0, 78, 75
1, 454144, Note_on_c, 0, 78, 0
1, 454144, Note_on_c, 0, 78, 75
1, 454144, Note_on_c, 0, 57, 75
1, 454144, Note_on_c, 0, 61, 75
1, 455168, Note_on_c, 0, 57, 0
1, 455168, Note_on_c, 0, 61, 0
1, 455168, Note_on_c, 0, 56, 75
1, 455168, Note_on_c, 0, 59, 75
1, 455680, Note_on_c, 0, 78, 0
1, 455680, Note_on_c, 0, 76, 75
1, 456192, Note_on_c, 0, 76, 0
1, 456192, Note_on_c, 0, 56, 0
1, 456192, Note_on_c, 0, 59, 0
1, 456192, Note_on_c, 0, 76, 101
1, 456704, Note_on_c, 0, 76, 0
1, 456704, Note_on_c, 0, 85, 101
1, 457216, Note_on_c, 0, 85, 0
1, 457216, Note_on_c, 0, 85, 101
1, 457216, Note_on_c, 0, 45, 101
1, 457216, Note_on_c, 0, 57, 101
1, 458240, Note_on_c, 0, 45, 0
1, 458240, Note_on_c, 0, 57, 0
1, 458240, Note_on_c, 0, 44, 101
1, 458240, Note_on_c, 0, 56, 101
1, 458752, Note_on_c, 0, 85, 0
1, 458752, Note_on_c, 0, 83, 101
1, 459264, Note_on_c, 0, 83, 0
1, 459264, Note_on_c, 0, 44, 0
1, 459264, Note_on_c, 0, 56, 0
1, 459264, Note_on_c, 0, 83, 101
1, 459776, Note_on_c, 0, 83, 0
1, 459776, Note_on_c, 0, 81, 101
1, 460288, Note_on_c, 0, 81, 0
1, 460288, Note_on_c, 0, 81, 101
1, 460288, Note_on_c, 0, 42, 101
1, 460288, Note_on_c, 0, 54, 101
1, 461312, Note_on_c, 0, 42, 0
1, 461312, Note_on_c, 0, 54, 0
1, 461312, Note_on_c, 0, 40, 101
1, 461312, Note_on_c, 0, 52, 101
1, 461824, Note_on_c, 0, 81, 0
1, 461824, Note_on_c, 0, 80, 101
1, 462336, Note_on_c, 0, 80, 0
1, 462336, Note_on_c, 0, 40, 0
1, 462336, Note_on_c, 0, 52, 0
1, 462336, Note_on_c, 0, 80, 101
1, 462336, Note_on_c, 0, 45, 101
1, 462336, Note_on_c, 0, 57, 101
1, 462848, Note_on_c, 0, 80, 0
1, 462848, Note_on_c, 0, 78, 101
1, 463360, Note_on_c, 0, 78, 0
1, 463360, Note_on_c, 0, 78, 101
1, 463360, Note_on_c, 0, 45, 0
1, 463360, Note_on_c, 0, 57, 0
1, 463360, Note_on_c, 0, 47, 101
1, 463360, Note_on_c, 0, 56, 101
1, 463872, Note_on_c, 0, 78, 0
1, 463872, Note_on_c, 0, 76, 101
1, 464384, Note_on_c, 0, 76, 0
1, 464384, Note_on_c, 0, 76, 101
1, 464384, Note_on_c, 0, 47, 0
1, 464384, Note_on_c, 0, 56, 0
1, 464384, Note_on_c, 0, 47, 101
1, 464384, Note_on_c, 0, 54, 101
1, 464896, Note_on_c, 0, 76, 0
1, 464896, Note_on_c, 0, 75, 101
1, 465408, Note_on_c, 0, 75, 0
1, 465408, Note_on_c, 0, 47, 0
1, 465408, Note_on_c, 0, 54, 0
1, 465408, Note_on_c, 0, 75, 101
1, 465408, Note_on_c, 0, 52, 101
1, 466432, Note_on_c, 0, 75, 0
1, 466432, Note_on_c, 0, 76, 101
1, 466432, Note_on_c, 0, 52, 0
1, 466432, Note_on_c, 0, 47, 101
1, 467456, Note_on_c, 0, 76, 0
1, 467456, Note_on_c, 0, 47, 0
1, 467456, Note_on_c, 0, 40, 101
1, 468480, Note_on_c, 0, 40, 0
1, 468490, End_track
0, 0, End_of_file