0, 0, Header, 0, 1, 1024
1, 0, Start_track
1, 0, Tempo, 352941
1, 0, Note_on_c, 0, 56, 101
1, 0, Note_on_c, 0, 64, 101
1, 512, Note_on_c, 0, 56, 0
1, 512, Note_on_c, 0, 64, 0
1, 512, Note_on_c, 0, 56, 101
1, 512, Note_on_c, 0, 64, 101
1, 1024, Note_on_c, 0, 40, 101
1, 1024, Note_on_c, 0, 52, 101
1, 1536, Note_on_c, 0, 56, 0
1, 1536, Note_on_c, 0, 64, 0
1, 1536, Note_on_c, 0, 40, 0
1, 1536, Note_on_c, 0, 52, 0
1, 1536, Note_on_c, 0, 40, 101
1, 1536, Note_on_c, 0, 52, 101
1, 2048, Note_on_c, 0, 64, 101
1, 2048, Note_on_c, 0, 68, 101
1, 2560, Note_on_c, 0, 64, 0
1, 2560, Note_on_c, 0, 68, 0
1, 2560, Note_on_c, 0, 40, 0
1, 2560, Note_on_c, 0, 52, 0
1, 2560, Note_on_c, 0, 64, 101
1, 2560, Note_on_c, 0, 68, 101
1, 3072, Note_on_c, 0, 40, 101
1, 3072, Note_on_c, 0, 52, 101
1, 3584, Note_on_c, 0, 64, 0
1, 3584, Note_on_c, 0, 68, 0
1, 3584, Note_on_c, 0, 40, 0
1, 3584, Note_on_c, 0, 52, 0
1, 3584, Note_on_c, 0, 40, 101
1, 3584, Note_on_c, 0, 52, 101
1, 4096, Note_on_c, 0, 68, 101
1, 4096, Note_on_c, 0, 71, 101
1, 4608, Note_on_c, 0, 68, 0
1, 4608, Note_on_c, 0, 71, 0
1, 4608, Note_on_c, 0, 40, 0
1, 4608, Note_on_c, 0, 52, 0
1, 4608, Note_on_c, 0, 68, 101
1, 4608, Note_on_c, 0, 71, 101
1, 5120, Note_on_c, 0, 40, 101
1, 5120, Note_on_c, 0, 52, 101
1, 5632, Note_on_c, 0, 68, 0
1, 5632, Note_on_c, 0, 71, 0
1, 5632, Note_on_c, 0, 40, 0
1, 5632, Note_on_c, 0, 52, 0
1, 5632, Note_on_c, 0, 40, 101
1, 5632, Note_on_c, 0, 52, 101
1, 6144, Note_on_c, 0, 68, 101
1, 6144, Note_on_c, 0, 76, 101
1, 6656, Note_on_c, 0, 68, 0
1, 6656, Note_on_c, 0, 76, 0
1, 6656, Note_on_c, 0, 40, 0
1, 6656, Note_on_c, 0, 52, 0
1, 6656, Note_on_c, 0, 68, 101
1, 6656, Note_on_c, 0, 76, 101
1, 7168, Note_on_c, 0, 40, 101
1, 7168, Note_on_c, 0, 52, 101
1, 7680, Note_on_c, 0, 68, 0
1, 7680, Note_on_c, 0, 76, 0
1, 7680, Note_on_c, 0, 40, 0
1, 7680, Note_on_c, 0, 52, 0
1, 7680, Note_on_c, 0, 40, 101
1, 7680, Note_on_c, 0, 52, 101
1, 8192, Note_on_c, 0, 68, 101
1, 8192, Note_on_c, 0, 71, 101
1, 8704, Note_on_c, 0, 68, 0
1, 8704, Note_on_c, 0, 71, 0
1, 8704, Note_on_c, 0, 40, 0
1, 8704, Note_on_c, 0, 52, 0
1, 8704, Note_on_c, 0, 66, 101
1, 8704, Note_on_c, 0, 69, 101
1, 8704, Note_on_c, 0, 35, 101
1, 8704, Note_on_c, 0, 47, 101
1, 9216, Note_on_c, 0, 66, 0
1, 9216, Note_on_c, 0, 69, 0
1, 9216, Note_on_c, 0, 64, 101
1, 9216, Note_on_c, 0, 68, 101
1, 9728, Note_on_c, 0, 64, 0
1, 9728, Note_on_c, 0, 68, 0
1, 9728, Note_on_c, 0, 66, 101
1, 9728, Note_on_c, 0, 69, 101
1, 9728, Note_on_c, 0, 35, 0
1, 9728, Note_on_c, 0, 47, 0
1, 9728, Note_on_c, 0, 35, 101
1, 9728, Note_on_c, 0, 47, 101
1, 10240, Note_on_c, 0, 66, 0
1, 10240, Note_on_c, 0, 69, 0
1, 10240, Note_on_c, 0, 63, 101
1, 10240, Note_on_c, 0, 66, 101
1, 10752, Note_on_c, 0, 63, 0
1, 10752, Note_on_c, 0, 66, 0
1, 10752, Note_on_c, 0, 35, 0
1, 10752, Note_on_c, 0, 47, 0
1, 10752, Note_on_c, 0, 64, 101
1, 10752, Note_on_c, 0, 68, 101
1, 10752, Note_on_c, 0, 40, 101
1, 10752, Note_on_c, 0, 52, 101
1, 11264, Note_on_c, 0, 64, 0
1, 11264, Note_on_c, 0, 68, 0
1, 11264, Note_on_c, 0, 68, 101
1, 11264, Note_on_c, 0, 71, 101
1, 11776, Note_on_c, 0, 68, 0
1, 11776, Note_on_c, 0, 71, 0
1, 11776, Note_on_c, 0, 40, 0
1, 11776, Note_on_c, 0, 52, 0
1, 12288, Note_on_c, 0, 68, 101
1, 12288, Note_on_c, 0, 71, 101
1, 12800, Note_on_c, 0, 68, 0
1, 12800, Note_on_c, 0, 71, 0
1, 12800, Note_on_c, 0, 66, 101
1, 12800, Note_on_c, 0, 69, 101
1, 12800, Note_on_c, 0, 35, 101
1, 12800, Note_on_c, 0, 47, 101
1, 13312, Note_on_c, 0, 66, 0
1, 13312, Note_on_c, 0, 69, 0
1, 13312, Note_on_c, 0, 64, 101
1, 13312, Note_on_c, 0, 68, 101
1, 13824, Note_on_c, 0, 64, 0
1, 13824, Note_on_c, 0, 68, 0
1, 13824, Note_on_c, 0, 66, 101
1, 13824, Note_on_c, 0, 69, 101
1, 13824, Note_on_c, 0, 35, 0
1, 13824, Note_on_c, 0, 47, 0
1, 13824, Note_on_c, 0, 35, 101
1, 13824, Note_on_c, 0, 47, 101
1, 14336, Note_on_c, 0, 66, 0
1, 14336, Note_on_c, 0, 69, 0
1, 14336, Note_on_c, 0, 63, 101
1, 14336, Note_on_c, 0, 66, 101
1, 14848, Note_on_c, 0, 63, 0
1, 14848, Note_on_c, 0, 66, 0
1, 14848, Note_on_c, 0, 35, 0
1, 14848, Note_on_c, 0, 47, 0
1, 14848, Note_on_c, 0, 64, 101
1, 14848, Note_on_c, 0, 40, 101
1, 14848, Note_on_c, 0, 52, 101
1, 15360, Note_on_c, 0, 64, 0
1, 15360, Note_on_c, 0, 59, 101
1, 15872, Note_on_c, 0, 59, 0
1, 15872, Note_on_c, 0, 40, 0
1, 15872, Note_on_c, 0, 52, 0
1, 16384, Note_on_c, 0, 55, 62
1, 16384, Note_on_c, 0, 64, 62
1, 16896, Note_on_c, 0, 55, 0
1, 16896, Note_on_c, 0, 64, 0
1, 16896, Note_on_c, 0, 55, 62
1, 16896, Note_on_c, 0, 64, 62
1, 17408, Note_on_c, 0, 40, 62
1, 17408, Note_on_c, 0, 52, 62
1, 17920, Note_on_c, 0, 55, 0
1, 17920, Note_on_c, 0, 64, 0
1, 17920, Note_on_c, 0, 40, 0
1, 17920, Note_on_c, 0, 52, 0
1, 17920, Note_on_c, 0, 40, 62
1, 17920, Note_on_c, 0, 52, 62
1, 18432, Note_on_c, 0, 64, 62
1, 18432, Note_on_c, 0, 67, 62
1, 18944, Note_on_c, 0, 64, 0
1, 18944, Note_on_c, 0, 67, 0
1, 18944, Note_on_c, 0, 40, 0
1, 18944, Note_on_c, 0, 52, 0
1, 18944, Note_on_c, 0, 64, 62
1, 18944, Note_on_c, 0, 67, 62
1, 19456, Note_on_c, 0, 40, 62
1, 19456, Note_on_c, 0, 52, 62
1, 19968, Note_on_c, 0, 64, 0
1, 19968, Note_on_c, 0, 67, 0
1, 19968, Note_on_c, 0, 40, 0
1, 19968, Note_on_c, 0, 52, 0
1, 19968, Note_on_c, 0, 40, 62
1, 19968, Note_on_c, 0, 52, 62
1, 20480, Note_on_c, 0, 67, 62
1, 20480, Note_on_c, 0, 71, 62
1, 20992, Note_on_c, 0, 67, 0
1, 20992, Note_on_c, 0, 71, 0
1, 20992, Note_on_c, 0, 40, 0
1, 20992, Note_on_c, 0, 52, 0
1, 20992, Note_on_c, 0, 67, 62
1, 20992, Note_on_c, 0, 71, 62
1, 21504, Note_on_c, 0, 40, 62
1, 21504, Note_on_c, 0, 52, 62
1, 22016, Note_on_c, 0, 67, 0
1, 22016, Note_on_c, 0, 71, 0
1, 22016, Note_on_c, 0, 40, 0
1, 22016, Note_on_c, 0, 52, 0
1, 22016, Note_on_c, 0, 40, 62
1, 22016, Note_on_c, 0, 52, 62
1, 22528, Note_on_c, 0, 67, 62
1, 22528, Note_on_c, 0, 76, 62
1, 23040, Note_on_c, 0, 67, 0
1, 23040, Note_on_c, 0, 76, 0
1, 23040, Note_on_c, 0, 40, 0
1, 23040, Note_on_c, 0, 52, 0
1, 23040, Note_on_c, 0, 67, 62
1, 23040, Note_on_c, 0, 76, 62
1, 23552, Note_on_c, 0, 40, 62
1, 23552, Note_on_c, 0, 52, 62
1, 24064, Note_on_c, 0, 67, 0
1, 24064, Note_on_c, 0, 76, 0
1, 24064, Note_on_c, 0, 40, 0
1, 24064, Note_on_c, 0, 52, 0
1, 24064, Note_on_c, 0, 40, 62
1, 24064, Note_on_c, 0, 52, 62
1, 24576, Note_on_c, 0, 67, 62
1, 24576, Note_on_c, 0, 71, 62
1, 25088, Note_on_c, 0, 67, 0
1, 25088, Note_on_c, 0, 71, 0
1, 25088, Note_on_c, 0, 40, 0
1, 25088, Note_on_c, 0, 52, 0
1, 25088, Note_on_c, 0, 35, 62
1, 25088, Note_on_c, 0, 47, 62
1, 25600, Note_on_c, 0, 66, 62
1, 25600, Note_on_c, 0, 69, 62
1, 25600, Note_on_c, 0, 35, 0
1, 25600, Note_on_c, 0, 47, 0
1, 26112, Note_on_c, 0, 66, 0
1, 26112, Note_on_c, 0, 69, 0
1, 26112, Note_on_c, 0, 35, 62
1, 26112, Note_on_c, 0, 47, 62
1, 26624, Note_on_c, 0, 64, 62
1, 26624, Note_on_c, 0, 67, 62
1, 26624, Note_on_c, 0, 35, 0
1, 26624, Note_on_c, 0, 47, 0
1, 27136, Note_on_c, 0, 64, 0
1, 27136, Note_on_c, 0, 67, 0
1, 27136, Note_on_c, 0, 35, 62
1, 27136, Note_on_c, 0, 47, 62
1, 27648, Note_on_c, 0, 63, 62
1, 27648, Note_on_c, 0, 66, 62
1, 28160, Note_on_c, 0, 63, 0
1, 28160, Note_on_c, 0, 66, 0
1, 28160, Note_on_c, 0, 59, 62
1, 28160, Note_on_c, 0, 35, 0
1, 28160, Note_on_c, 0, 47, 0
1, 28672, Note_on_c, 0, 59, 0
1, 28672, Note_on_c, 0, 67, 62
1, 28672, Note_on_c, 0, 71, 62
1, 29184, Note_on_c, 0, 67, 0
1, 29184, Note_on_c, 0, 71, 0
1, 29184, Note_on_c, 0, 35, 62
1, 29184, Note_on_c, 0, 47, 62
1, 29696, Note_on_c, 0, 66, 62
1, 29696, Note_on_c, 0, 69, 62
1, 29696, Note_on_c, 0, 35, 0
1, 29696, Note_on_c, 0, 47, 0
1, 30208, Note_on_c, 0, 66, 0
1, 30208, Note_on_c, 0, 69, 0
1, 30208, Note_on_c, 0, 35, 62
1, 30208, Note_on_c, 0, 47, 62
1, 30720, Note_on_c, 0, 64, 62
1, 30720, Note_on_c, 0, 67, 62
1, 30720, Note_on_c, 0, 35, 0
1, 30720, Note_on_c, 0, 47, 0
1, 31232, Note_on_c, 0, 64, 0
1, 31232, Note_on_c, 0, 67, 0
1, 31232, Note_on_c, 0, 35, 62
1, 31232, Note_on_c, 0, 47, 62
1, 31744, Note_on_c, 0, 63, 62
1, 31744, Note_on_c, 0, 66, 62
1, 32256, Note_on_c, 0, 63, 0
1, 32256, Note_on_c, 0, 66, 0
1, 32256, Note_on_c, 0, 59, 62
1, 32256, Note_on_c, 0, 35, 0
1, 32256, Note_on_c, 0, 47, 0
1, 32768, Note_on_c, 0, 59, 0
1, 32768, Note_on_c, 0, 67, 62
1, 32768, Note_on_c, 0, 71, 62
1, 33280, Note_on_c, 0, 67, 0
1, 33280, Note_on_c, 0, 71, 0
1, 33280, Note_on_c, 0, 35, 62
1, 33280, Note_on_c, 0, 47, 62
1, 33792, Note_on_c, 0, 66, 62
1, 33792, Note_on_c, 0, 69, 62
1, 33792, Note_on_c, 0, 35, 0
1, 33792, Note_on_c, 0, 47, 0
1, 34304, Note_on_c, 0, 66, 0
1, 34304, Note_on_c, 0, 69, 0
1, 34304, Note_on_c, 0, 35, 62
1, 34304, Note_on_c, 0, 47, 62
1, 34816, Note_on_c, 0, 64, 62
1, 34816, Note_on_c, 0, 67, 62
1, 34816, Note_on_c, 0, 35, 0
1, 34816, Note_on_c, 0, 47, 0
1, 35328, Note_on_c, 0, 64, 0
1, 35328, Note_on_c, 0, 67, 0
1, 35328, Note_on_c, 0, 63, 62
1, 35328, Note_on_c, 0, 66, 62
1, 35328, Note_on_c, 0, 35, 62
1, 35328, Note_on_c, 0, 47, 62
1, 36352, Note_on_c, 0, 63, 0
1, 36352, Note_on_c, 0, 66, 0
1, 36352, Note_on_c, 0, 35, 0
1, 36352, Note_on_c, 0, 47, 0
1, 37376, Note_on_c, 0, 75, 101
1, 37376, Note_on_c, 0, 51, 101
1, 37376, Note_on_c, 0, 63, 101
1, 37632, Note_on_c, 0, 75, 0
1, 37632, Note_on_c, 0, 71, 101
1, 37888, Note_on_c, 0, 71, 0
1, 37888, Note_on_c, 0, 78, 101
1, 38144, Note_on_c, 0, 78, 0
1, 38144, Note_on_c, 0, 75, 101
1, 38400, Note_on_c, 0, 75, 0
1, 38400, Note_on_c, 0, 83, 101
1, 38400, Note_on_c, 0, 51, 0
1, 38400, Note_on_c, 0, 63, 0
1, 38656, Note_on_c, 0, 83, 0
1, 38656, Note_on_c, 0, 78, 101
1, 38912, Note_on_c, 0, 78, 0
1, 38912, Note_on_c, 0, 75, 101
1, 38912, Note_on_c, 0, 51, 101
1, 38912, Note_on_c, 0, 63, 101
1, 39168, Note_on_c, 0, 75, 0
1, 39168, Note_on_c, 0, 71, 101
1, 39424, Note_on_c, 0, 71, 0
1, 39424, Note_on_c, 0, 51, 0
1, 39424, Note_on_c, 0, 63, 0
1, 39424, Note_on_c, 0, 75, 101
1, 39424, Note_on_c, 0, 52, 101
1, 39424, Note_on_c, 0, 64, 101
1, 39680, Note_on_c, 0, 75, 0
1, 39680, Note_on_c, 0, 71, 101
1, 39936, Note_on_c, 0, 71, 0
1, 39936, Note_on_c, 0, 78, 101
1, 40192, Note_on_c, 0, 78, 0
1, 40192, Note_on_c, 0, 75, 101
1, 40448, Note_on_c, 0, 75, 0
1, 40448, Note_on_c, 0, 83, 101
1, 40448, Note_on_c, 0, 52, 0
1, 40448, Note_on_c, 0, 64, 0
1, 40704, Note_on_c, 0, 83, 0
1, 40704, Note_on_c, 0, 78, 101
1, 40960, Note_on_c, 0, 78, 0
1, 40960, Note_on_c, 0, 75, 101
1, 40960, Note_on_c, 0, 52, 101
1, 40960, Note_on_c, 0, 64, 101
1, 41216, Note_on_c, 0, 75, 0
1, 41216, Note_on_c, 0, 71, 101
1, 41472, Note_on_c, 0, 71, 0
1, 41472, Note_on_c, 0, 52, 0
1, 41472, Note_on_c, 0, 64, 0
1, 41472, Note_on_c, 0, 75, 101
1, 41472, Note_on_c, 0, 54, 101
1, 41472, Note_on_c, 0, 66, 101
1, 41728, Note_on_c, 0, 75, 0
1, 41728, Note_on_c, 0, 71, 101
1, 41984, Note_on_c, 0, 71, 0
1, 41984, Note_on_c, 0, 78, 101
1, 42240, Note_on_c, 0, 78, 0
1, 42240, Note_on_c, 0, 75, 101
1, 42496, Note_on_c, 0, 75, 0
1, 42496, Note_on_c, 0, 83, 101
1, 42496, Note_on_c, 0, 54, 0
1, 42496, Note_on_c, 0, 66, 0
1, 42752, Note_on_c, 0, 83, 0
1, 42752, Note_on_c, 0, 78, 101
1, 43008, Note_on_c, 0, 78, 0
1, 43008, Note_on_c, 0, 75, 101
1, 43008, Note_on_c, 0, 54, 101
1, 43008, Note_on_c, 0, 66, 101
1, 43264, Note_on_c, 0, 75, 0
1, 43264, Note_on_c, 0, 71, 101
1, 43520, Note_on_c, 0, 71, 0
1, 43520, Note_on_c, 0, 54, 0
1, 43520, Note_on_c, 0, 66, 0
1, 43520, Note_on_c, 0, 76, 101
1, 43520, Note_on_c, 0, 56, 101
1, 43520, Note_on_c, 0, 68, 101
1, 43776, Note_on_c, 0, 76, 0
1, 43776, Note_on_c, 0, 71, 101
1, 44032, Note_on_c, 0, 71, 0
1, 44032, Note_on_c, 0, 80, 101
1, 44288, Note_on_c, 0, 80, 0
1, 44288, Note_on_c, 0, 76, 101
1, 44544, Note_on_c, 0, 76, 0
1, 44544, Note_on_c, 0, 83, 101
1, 44544, Note_on_c, 0, 56, 0
1, 44544, Note_on_c, 0, 68, 0
1, 44800, Note_on_c, 0, 83, 0
1, 44800, Note_on_c, 0, 80, 101
1, 45056, Note_on_c, 0, 80, 0
1, 45056, Note_on_c, 0, 76, 101
1, 45056, Note_on_c, 0, 56, 101
1, 45056, Note_on_c, 0, 68, 101
1, 45312, Note_on_c, 0, 76, 0
1, 45312, Note_on_c, 0, 71, 101
1, 45568, Note_on_c, 0, 71, 0
1, 45568, Note_on_c, 0, 56, 0
1, 45568, Note_on_c, 0, 68, 0
1, 45568, Note_on_c, 0, 83, 101
1, 45568, Note_on_c, 0, 51, 101
1, 45568, Note_on_c, 0, 63, 101
1, 45824, Note_on_c, 0, 83, 0
1, 45824, Note_on_c, 0, 78, 101
1, 46080, Note_on_c, 0, 78, 0
1, 46080, Note_on_c, 0, 75, 101
1, 46336, Note_on_c, 0, 75, 0
1, 46336, Note_on_c, 0, 71, 101
1, 46592, Note_on_c, 0, 71, 0
1, 46592, Note_on_c, 0, 83, 101
1, 46592, Note_on_c, 0, 51, 0
1, 46592, Note_on_c, 0, 63, 0
1, 46592, Note_on_c, 0, 52, 101
1, 46592, Note_on_c, 0, 64, 101
1, 46848, Note_on_c, 0, 83, 0
1, 46848, Note_on_c, 0, 80, 101
1, 47104, Note_on_c, 0, 80, 0
1, 47104, Note_on_c, 0, 76, 101
1, 47360, Note_on_c, 0, 76, 0
1, 47360, Note_on_c, 0, 71, 101
1, 47616, Note_on_c, 0, 71, 0
1, 47616, Note_on_c, 0, 52, 0
1, 47616, Note_on_c, 0, 64, 0
1, 47616, Note_on_c, 0, 83, 101
1, 47616, Note_on_c, 0, 51, 101
1, 47616, Note_on_c, 0, 63, 101
1, 47872, Note_on_c, 0, 83, 0
1, 47872, Note_on_c, 0, 78, 101
1, 48128, Note_on_c, 0, 78, 0
1, 48128, Note_on_c, 0, 75, 101
1, 48384, Note_on_c, 0, 75, 0
1, 48384, Note_on_c, 0, 71, 101
1, 48640, Note_on_c, 0, 71, 0
1, 48640, Note_on_c, 0, 83, 101
1, 48640, Note_on_c, 0, 51, 0
1, 48640, Note_on_c, 0, 63, 0
1, 48640, Note_on_c, 0, 52, 101
1, 48640, Note_on_c, 0, 64, 101
1, 48896, Note_on_c, 0, 83, 0
1, 48896, Note_on_c, 0, 80, 101
1, 49152, Note_on_c, 0, 80, 0
1, 49152, Note_on_c, 0, 76, 101
1, 49408, Note_on_c, 0, 76, 0
1, 49408, Note_on_c, 0, 71, 101
1, 49664, Note_on_c, 0, 71, 0
1, 49664, Note_on_c, 0, 52, 0
1, 49664, Note_on_c, 0, 64, 0
1, 49664, Note_on_c, 0, 83, 101
1, 49664, Note_on_c, 0, 51, 101
1, 49664, Note_on_c, 0, 63, 101
1, 49920, Note_on_c, 0, 83, 0
1, 49920, Note_on_c, 0, 78, 101
1, 50176, Note_on_c, 0, 78, 0
1, 50176, Note_on_c, 0, 75, 101
1, 50432, Note_on_c, 0, 75, 0
1, 50432, Note_on_c, 0, 71, 101
1, 50688, Note_on_c, 0, 71, 0
1, 50688, Note_on_c, 0, 83, 101
1, 50688, Note_on_c, 0, 51, 0
1, 50688, Note_on_c, 0, 63, 0
1, 50688, Note_on_c, 0, 52, 101
1, 50688, Note_on_c, 0, 64, 101
1, 50944, Note_on_c, 0, 83, 0
1, 50944, Note_on_c, 0, 80, 101
1, 51200, Note_on_c, 0, 80, 0
1, 51200, Note_on_c, 0, 76, 101
1, 51456, Note_on_c, 0, 76, 0
1, 51456, Note_on_c, 0, 71, 101
1, 51712, Note_on_c, 0, 71, 0
1, 51712, Note_on_c, 0, 52, 0
1, 51712, Note_on_c, 0, 64, 0
1, 51712, Note_on_c, 0, 73, 101
1, 51712, Note_on_c, 0, 66, 101
1, 51840, Note_on_c, 0, 73, 0
1, 51840, Note_on_c, 0, 75, 101
1, 51968, Note_on_c, 0, 75, 0
1, 51968, Note_on_c, 0, 73, 101
1, 52096, Note_on_c, 0, 73, 0
1, 52096, Note_on_c, 0, 75, 101
1, 52224, Note_on_c, 0, 75, 0
1, 52224, Note_on_c, 0, 73, 101
1, 52352, Note_on_c, 0, 73, 0
1, 52352, Note_on_c, 0, 75, 101
1, 52480, Note_on_c, 0, 75, 0
1, 52480, Note_on_c, 0, 73, 101
1, 52608, Note_on_c, 0, 73, 0
1, 52608, Note_on_c, 0, 75, 101
1, 52736, Note_on_c, 0, 75, 0
1, 52736, Note_on_c, 0, 73, 101
1, 52736, Note_on_c, 0, 66, 0
1, 52736, Note_on_c, 0, 54, 101
1, 52864, Note_on_c, 0, 73, 0
1, 52864, Note_on_c, 0, 75, 101
1, 52992, Note_on_c, 0, 75, 0
1, 52992, Note_on_c, 0, 73, 101
1, 53120, Note_on_c, 0, 73, 0
1, 53120, Note_on_c, 0, 75, 101
1, 53248, Note_on_c, 0, 75, 0
1, 53248, Note_on_c, 0, 73, 101
1, 53376, Note_on_c, 0, 73, 0
1, 53376, Note_on_c, 0, 75, 101
1, 53504, Note_on_c, 0, 75, 0
1, 53504, Note_on_c, 0, 73, 101
1, 53632, Note_on_c, 0, 73, 0
1, 53632, Note_on_c, 0, 75, 101
1, 53760, Note_on_c, 0, 75, 0
1, 53760, Note_on_c, 0, 54, 0
1, 53760, Note_on_c, 0, 71, 101
1, 53760, Note_on_c, 0, 59, 101
1, 54784, Note_on_c, 0, 71, 0
1, 54784, Note_on_c, 0, 59, 0
1, 55296, Note_on_c, 0, 75, 62
1, 55296, Note_on_c, 0, 78, 62
1, 55808, Note_on_c, 0, 75, 0
1, 55808, Note_on_c, 0, 78, 0
1, 55808, Note_on_c, 0, 75, 62
1, 55808, Note_on_c, 0, 78, 62
1, 56320, Note_on_c, 0, 75, 0
1, 56320, Note_on_c, 0, 78, 0
1, 56320, Note_on_c, 0, 71, 62
1, 56320, Note_on_c, 0, 75, 62
1, 56832, Note_on_c, 0, 71, 0
1, 56832, Note_on_c, 0, 75, 0
1, 56832, Note_on_c, 0, 71, 62
1, 56832, Note_on_c, 0, 75, 62
1, 57344, Note_on_c, 0, 71, 0
1, 57344, Note_on_c, 0, 75, 0
1, 57344, Note_on_c, 0, 75, 62
1, 57344, Note_on_c, 0, 78, 62
1, 57856, Note_on_c, 0, 75, 0
1, 57856, Note_on_c, 0, 78, 0
1, 57856, Note_on_c, 0, 73, 62
1, 57856, Note_on_c, 0, 76, 62
1, 58368, Note_on_c, 0, 73, 0
1, 58368, Note_on_c, 0, 76, 0
1, 58368, Note_on_c, 0, 70, 62
1, 58368, Note_on_c, 0, 73, 62
1, 58880, Note_on_c, 0, 70, 0
1, 58880, Note_on_c, 0, 73, 0
1, 59392, Note_on_c, 0, 66, 101
1, 59392, Note_on_c, 0, 54, 101
1, 59802, Note_on_c, 0, 66, 0
1, 59802, Note_on_c, 0, 54, 0
1, 59904, Note_on_c, 0, 71, 101
1, 59904, Note_on_c, 0, 59, 101
1, 60314, Note_on_c, 0, 71, 0
1, 60314, Note_on_c, 0, 59, 0
1, 60416, Note_on_c, 0, 66, 101
1, 60416, Note_on_c, 0, 54, 101
1, 60826, Note_on_c, 0, 66, 0
1, 60826, Note_on_c, 0, 54, 0
1, 60928, Note_on_c, 0, 71, 101
1, 60928, Note_on_c, 0, 59, 101
1, 61184, Note_on_c, 0, 71, 0
1, 61184, Note_on_c, 0, 66, 101
1, 61184, Note_on_c, 0, 59, 0
1, 61184, Note_on_c, 0, 54, 101
1, 61440, Note_on_c, 0, 66, 0
1, 61440, Note_on_c, 0, 63, 101
1, 61440, Note_on_c, 0, 54, 0
1, 61440, Note_on_c, 0, 51, 101
1, 61696, Note_on_c, 0, 63, 0
1, 61696, Note_on_c, 0, 59, 101
1, 61696, Note_on_c, 0, 51, 0
1, 61696, Note_on_c, 0, 47, 101
1, 61952, Note_on_c, 0, 59, 0
1, 61952, Note_on_c, 0, 47, 0
1, 61952, Note_on_c, 0, 66, 101
1, 61952, Note_on_c, 0, 54, 101
1, 62976, Note_on_c, 0, 66, 0
1, 62976, Note_on_c, 0, 54, 0
1, 63488, Note_on_c, 0, 74, 62
1, 63488, Note_on_c, 0, 78, 62
1, 64000, Note_on_c, 0, 74, 0
1, 64000, Note_on_c, 0, 78, 0
1, 64000, Note_on_c, 0, 74, 62
1, 64000, Note_on_c, 0, 78, 62
1, 64512, Note_on_c, 0, 74, 0
1, 64512, Note_on_c, 0, 78, 0
1, 64512, Note_on_c, 0, 71, 62
1, 64512, Note_on_c, 0, 74, 62
1, 65024, Note_on_c, 0, 71, 0
1, 65024, Note_on_c, 0, 74, 0
1, 65024, Note_on_c, 0, 71, 62
1, 65024, Note_on_c, 0, 74, 62
1, 65536, Note_on_c, 0, 71, 0
1, 65536, Note_on_c, 0, 74, 0
1, 65536, Note_on_c, 0, 74, 62
1, 65536, Note_on_c, 0, 78, 62
1, 66048, Note_on_c, 0, 74, 0
1, 66048, Note_on_c, 0, 78, 0
1, 66048, Note_on_c, 0, 73, 62
1, 66048, Note_on_c, 0, 76, 62
1, 66560, Note_on_c, 0, 73, 0
1, 66560, Note_on_c, 0, 76, 0
1, 66560, Note_on_c, 0, 70, 62
1, 66560, Note_on_c, 0, 73, 62
1, 67072, Note_on_c, 0, 70, 0
1, 67072, Note_on_c, 0, 73, 0
1, 67584, Note_on_c, 0, 70, 101
1, 68096, Note_on_c, 0, 70, 0
1, 68096, Note_on_c, 0, 71, 101
1, 68096, Note_on_c, 0, 62, 101
1, 68096, Note_on_c, 0, 55, 101
1, 68864, Note_on_c, 0, 71, 0
1, 68864, Note_on_c, 0, 70, 101
1, 69120, Note_on_c, 0, 70, 0
1, 69120, Note_on_c, 0, 71, 101
1, 69120, Note_on_c, 0, 62, 0
1, 69120, Note_on_c, 0, 65, 101
1, 69376, Note_on_c, 0, 71, 0
1, 69376, Note_on_c, 0, 74, 101
1, 69632, Note_on_c, 0, 74, 0
1, 69632, Note_on_c, 0, 73, 101
1, 69888, Note_on_c, 0, 73, 0
1, 69888, Note_on_c, 0, 71, 101
1, 70144, Note_on_c, 0, 71, 0
1, 70144, Note_on_c, 0, 65, 0
1, 70144, Note_on_c, 0, 55, 0
1, 70144, Note_on_c, 0, 70, 101
1, 70144, Note_on_c, 0, 54, 101
1, 70144, Note_on_c, 0, 66, 101
1, 71168, Note_on_c, 0, 70, 0
1, 71168, Note_on_c, 0, 54, 0
1, 71168, Note_on_c, 0, 66, 0
1, 71680, Note_on_c, 0, 63, 75
1, 71680, Note_on_c, 0, 71, 75
1, 72192, Note_on_c, 0, 63, 0
1, 72192, Note_on_c, 0, 71, 0
1, 72192, Note_on_c, 0, 63, 75
1, 72192, Note_on_c, 0, 71, 75
1, 72192, Note_on_c, 0, 47, 75
1, 72192, Note_on_c, 0, 59, 75
1, 72704, Note_on_c, 0, 63, 0
1, 72704, Note_on_c, 0, 71, 0
1, 72704, Note_on_c, 0, 71, 75
1, 72704, Note_on_c, 0, 75, 75
1, 73216, Note_on_c, 0, 71, 0
1, 73216, Note_on_c, 0, 75, 0
1, 73216, Note_on_c, 0, 71, 75
1, 73216, Note_on_c, 0, 75, 75
1, 73216, Note_on_c, 0, 47, 0
1, 73216, Note_on_c, 0, 59, 0
1, 73728, Note_on_c, 0, 71, 0
1, 73728, Note_on_c, 0, 75, 0
1, 73728, Note_on_c, 0, 75, 75
1, 73728, Note_on_c, 0, 78, 75
1, 74240, Note_on_c, 0, 75, 0
1, 74240, Note_on_c, 0, 78, 0
1, 74240, Note_on_c, 0, 78, 75
1, 74240, Note_on_c, 0, 75, 75
1, 75008, Note_on_c, 0, 78, 0
1, 75008, Note_on_c, 0, 83, 75
1, 75264, Note_on_c, 0, 83, 0
1, 75264, Note_on_c, 0, 78, 75
1, 75776, Note_on_c, 0, 78, 0
1, 75776, Note_on_c, 0, 75, 0
1, 76288, Note_on_c, 0, 80, 75
1, 76288, Note_on_c, 0, 64, 75
1, 76544, Note_on_c, 0, 64, 0
1, 76544, Note_on_c, 0, 71, 75
1, 76800, Note_on_c, 0, 71, 0
1, 76800, Note_on_c, 0, 68, 75
1, 77056, Note_on_c, 0, 80, 0
1, 77056, Note_on_c, 0, 82, 75
1, 77056, Note_on_c, 0, 68, 0
1, 77056, Note_on_c, 0, 71, 75
1, 77312, Note_on_c, 0, 82, 0
1, 77312, Note_on_c, 0, 83, 75
1, 77312, Note_on_c, 0, 71, 0
1, 77312, Note_on_c, 0, 63, 75
1, 77568, Note_on_c, 0, 63, 0
1, 77568, Note_on_c, 0, 71, 75
1, 77824, Note_on_c, 0, 83, 0
1, 77824, Note_on_c, 0, 71, 0
1, 77824, Note_on_c, 0, 66, 75
1, 78080, Note_on_c, 0, 66, 0
1, 78080, Note_on_c, 0, 71, 75
1, 78336, Note_on_c, 0, 71, 0
1, 78336, Note_on_c, 0, 80, 49
1, 78336, Note_on_c, 0, 64, 49
1, 78592, Note_on_c, 0, 64, 0
1, 78592, Note_on_c, 0, 71, 49
1, 78848, Note_on_c, 0, 71, 0
1, 78848, Note_on_c, 0, 68, 49
1, 79104, Note_on_c, 0, 80, 0
1, 79104, Note_on_c, 0, 82, 49
1, 79104, Note_on_c, 0, 68, 0
1, 79104, Note_on_c, 0, 71, 49
1, 79360, Note_on_c, 0, 82, 0
1, 79360, Note_on_c, 0, 83, 49
1, 79360, Note_on_c, 0, 71, 0
1, 79360, Note_on_c, 0, 63, 49
1, 79616, Note_on_c, 0, 63, 0
1, 79616, Note_on_c, 0, 71, 49
1, 79872, Note_on_c, 0, 83, 0
1, 79872, Note_on_c, 0, 71, 0
1, 79872, Note_on_c, 0, 66, 49
1, 80128, Note_on_c, 0, 66, 0
1, 80128, Note_on_c, 0, 71, 49
1, 80384, Note_on_c, 0, 71, 0
1, 80384, Note_on_c, 0, 80, 101
1, 80384, Note_on_c, 0, 64, 101
1, 80640, Note_on_c, 0, 80, 0
1, 80640, Note_on_c, 0, 83, 101
1, 80896, Note_on_c, 0, 83, 0
1, 80896, Note_on_c, 0, 82, 101
1, 81152, Note_on_c, 0, 82, 0
1, 81152, Note_on_c, 0, 80, 101
1, 81408, Note_on_c, 0, 80, 0
1, 81408, Note_on_c, 0, 78, 101
1, 81408, Note_on_c, 0, 64, 0
1, 81664, Note_on_c, 0, 78, 0
1, 81664, Note_on_c, 0, 76, 101
1, 81920, Note_on_c, 0, 76, 0
1, 81920, Note_on_c, 0, 75, 101
1, 82176, Note_on_c, 0, 75, 0
1, 82176, Note_on_c, 0, 73, 101
1, 82432, Note_on_c, 0, 73, 0
1, 82432, Note_on_c, 0, 71, 101
1, 82432, Note_on_c, 0, 54, 101
1, 82432, Note_on_c, 0, 59, 101
1, 82688, Note_on_c, 0, 71, 0
1, 82688, Note_on_c, 0, 73, 101
1, 82816, Note_on_c, 0, 73, 0
1, 82816, Note_on_c, 0, 75, 101
1, 82944, Note_on_c, 0, 75, 0
1, 82944, Note_on_c, 0, 73, 101
1, 83072, Note_on_c, 0, 73, 0
1, 83072, Note_on_c, 0, 75, 101
1, 83200, Note_on_c, 0, 75, 0
1, 83200, Note_on_c, 0, 73, 101
1, 83328, Note_on_c, 0, 73, 0
1, 83328, Note_on_c, 0, 75, 101
1, 83456, Note_on_c, 0, 75, 0
1, 83456, Note_on_c, 0, 73, 101
1, 83456, Note_on_c, 0, 54, 0
1, 83456, Note_on_c, 0, 59, 0
1, 83456, Note_on_c, 0, 54, 101
1, 83456, Note_on_c, 0, 58, 101
1, 83584, Note_on_c, 0, 73, 0
1, 83584, Note_on_c, 0, 75, 101
1, 83712, Note_on_c, 0, 75, 0
1, 83712, Note_on_c, 0, 73, 101
1, 83840, Note_on_c, 0, 73, 0
1, 83840, Note_on_c, 0, 75, 101
1, 83968, Note_on_c, 0, 75, 0
1, 83968, Note_on_c, 0, 73, 101
1, 84096, Note_on_c, 0, 73, 0
1, 84096, Note_on_c, 0, 75, 101
1, 84224, Note_on_c, 0, 75, 0
1, 84224, Note_on_c, 0, 73, 101
1, 84352, Note_on_c, 0, 73, 0
1, 84352, Note_on_c, 0, 75, 101
1, 84480, Note_on_c, 0, 75, 0
1, 84480, Note_on_c, 0, 54, 0
1, 84480, Note_on_c, 0, 58, 0
1, 84480, Note_on_c, 0, 71, 101
1, 84480, Note_on_c, 0, 47, 101
1, 84736, Note_on_c, 0, 47, 0
1, 84736, Note_on_c, 0, 51, 101
1, 84992, Note_on_c, 0, 51, 0
1, 84992, Note_on_c, 0, 54, 101
1, 85248, Note_on_c, 0, 54, 0
1, 85248, Note_on_c, 0, 59, 101
1, 85504, Note_on_c, 0, 71, 0
1, 85504, Note_on_c, 0, 75, 101
1, 85504, Note_on_c, 0, 83, 101
1, 85504, Note_on_c, 0, 59, 0
1, 85504, Note_on_c, 0, 47, 101
1, 85760, Note_on_c, 0, 47, 0
1, 85760, Note_on_c, 0, 51, 101
1, 86016, Note_on_c, 0, 75, 0
1, 86016, Note_on_c, 0, 83, 0
1, 86016, Note_on_c, 0, 51, 0
1, 86016, Note_on_c, 0, 54, 101
1, 86272, Note_on_c, 0, 54, 0
1, 86272, Note_on_c, 0, 59, 101
1, 86528, Note_on_c, 0, 59, 0
1, 86528, Note_on_c, 0, 75, 101
1, 86528, Note_on_c, 0, 83, 101
1, 86528, Note_on_c, 0, 47, 101
1, 87552, Note_on_c, 0, 75, 0
1, 87552, Note_on_c, 0, 83, 0
1, 87552, Note_on_c, 0, 47, 0
1, 88064, Note_on_c, 0, 56, 101
1, 88064, Note_on_c, 0, 64, 101
1, 88576, Note_on_c, 0, 56, 0
1, 88576, Note_on_c, 0, 64, 0
1, 88576, Note_on_c, 0, 56, 101
1, 88576, Note_on_c, 0, 64, 101
1, 89088, Note_on_c, 0, 40, 101
1, 89088, Note_on_c, 0, 52, 101
1, 89600, Note_on_c, 0, 56, 0
1, 89600, Note_on_c, 0, 64, 0
1, 89600, Note_on_c, 0, 40, 0
1, 89600, Note_on_c, 0, 52, 0
1, 89600, Note_on_c, 0, 40, 101
1, 89600, Note_on_c, 0, 52, 101
1, 90112, Note_on_c, 0, 64, 101
1, 90112, Note_on_c, 0, 68, 101
1, 90624, Note_on_c, 0, 64, 0
1, 90624, Note_on_c, 0, 68, 0
1, 90624, Note_on_c, 0, 40, 0
1, 90624, Note_on_c, 0, 52, 0
1, 90624, Note_on_c, 0, 64, 101
1, 90624, Note_on_c, 0, 68, 101
1, 91136, Note_on_c, 0, 40, 101
1, 91136, Note_on_c, 0, 52, 101
1, 91648, Note_on_c, 0, 64, 0
1, 91648, Note_on_c, 0, 68, 0
1, 91648, Note_on_c, 0, 40, 0
1, 91648, Note_on_c, 0, 52, 0
1, 91648, Note_on_c, 0, 40, 101
1, 91648, Note_on_c, 0, 52, 101
1, 92160, Note_on_c, 0, 68, 101
1, 92160, Note_on_c, 0, 71, 101
1, 92672, Note_on_c, 0, 68, 0
1, 92672, Note_on_c, 0, 71, 0
1, 92672, Note_on_c, 0, 40, 0
1, 92672, Note_on_c, 0, 52, 0
1, 92672, Note_on_c, 0, 68, 101
1, 92672, Note_on_c, 0, 71, 101
1, 93184, Note_on_c, 0, 40, 101
1, 93184, Note_on_c, 0, 52, 101
1, 93696, Note_on_c, 0, 68, 0
1, 93696, Note_on_c, 0, 71, 0
1, 93696, Note_on_c, 0, 40, 0
1, 93696, Note_on_c, 0, 52, 0
1, 93696, Note_on_c, 0, 40, 101
1, 93696, Note_on_c, 0, 52, 101
1, 94208, Note_on_c, 0, 68, 101
1, 94208, Note_on_c, 0, 76, 101
1, 94720, Note_on_c, 0, 68, 0
1, 94720, Note_on_c, 0, 76, 0
1, 94720, Note_on_c, 0, 40, 0
1, 94720, Note_on_c, 0, 52, 0
1, 94720, Note_on_c, 0, 68, 101
1, 94720, Note_on_c, 0, 76, 101
1, 95232, Note_on_c, 0, 40, 101
1, 95232, Note_on_c, 0, 52, 101
1, 95744, Note_on_c, 0, 68, 0
1, 95744, Note_on_c, 0, 76, 0
1, 95744, Note_on_c, 0, 40, 0
1, 95744, Note_on_c, 0, 52, 0
1, 95744, Note_on_c, 0, 40, 101
1, 95744, Note_on_c, 0, 52, 101
1, 96256, Note_on_c, 0, 68, 101
1, 96256, Note_on_c, 0, 71, 101
1, 96768, Note_on_c, 0, 68, 0
1, 96768, Note_on_c, 0, 71, 0
1, 96768, Note_on_c, 0, 40, 0
1, 96768, Note_on_c, 0, 52, 0
1, 96768, Note_on_c, 0, 66, 101
1, 96768, Note_on_c, 0, 69, 101
1, 96768, Note_on_c, 0, 35, 101
1, 96768, Note_on_c, 0, 47, 101
1, 97280, Note_on_c, 0, 66, 0
1, 97280, Note_on_c, 0, 69, 0
1, 97280, Note_on_c, 0, 64, 101
1, 97280, Note_on_c, 0, 68, 101
1, 97792, Note_on_c, 0, 64, 0
1, 97792, Note_on_c, 0, 68, 0
1, 97792, Note_on_c, 0, 66, 101
1, 97792, Note_on_c, 0, 69, 101
1, 97792, Note_on_c, 0, 35, 0
1, 97792, Note_on_c, 0, 47, 0
1, 97792, Note_on_c, 0, 35, 101
1, 97792, Note_on_c, 0, 47, 101
1, 98304, Note_on_c, 0, 66, 0
1, 98304, Note_on_c, 0, 69, 0
1, 98304, Note_on_c, 0, 63, 101
1, 98304, Note_on_c, 0, 66, 101
1, 98816, Note_on_c, 0, 63, 0
1, 98816, Note_on_c, 0, 66, 0
1, 98816, Note_on_c, 0, 35, 0
1, 98816, Note_on_c, 0, 47, 0
1, 98816, Note_on_c, 0, 64, 101
1, 98816, Note_on_c, 0, 68, 101
1, 98816, Note_on_c, 0, 40, 101
1, 98816, Note_on_c, 0, 52, 101
1, 99328, Note_on_c, 0, 64, 0
1, 99328, Note_on_c, 0, 68, 0
1, 99328, Note_on_c, 0, 68, 101
1, 99328, Note_on_c, 0, 71, 101
1, 99840, Note_on_c, 0, 68, 0
1, 99840, Note_on_c, 0, 71, 0
1, 99840, Note_on_c, 0, 40, 0
1, 99840, Note_on_c, 0, 52, 0
1, 100352, Note_on_c, 0, 68, 101
1, 100352, Note_on_c, 0, 71, 101
1, 100864, Note_on_c, 0, 68, 0
1, 100864, Note_on_c, 0, 71, 0
1, 100864, Note_on_c, 0, 66, 101
1, 100864, Note_on_c, 0, 69, 101
1, 100864, Note_on_c, 0, 35, 101
1, 100864, Note_on_c, 0, 47, 101
1, 101376, Note_on_c, 0, 66, 0
1, 101376, Note_on_c, 0, 69, 0
1, 101376, Note_on_c, 0, 64, 101
1, 101376, Note_on_c, 0, 68, 101
1, 101888, Note_on_c, 0, 64, 0
1, 101888, Note_on_c, 0, 68, 0
1, 101888, Note_on_c, 0, 66, 101
1, 101888, Note_on_c, 0, 69, 101
1, 101888, Note_on_c, 0, 35, 0
1, 101888, Note_on_c, 0, 47, 0
1, 101888, Note_on_c, 0, 35, 101
1, 101888, Note_on_c, 0, 47, 101
1, 102400, Note_on_c, 0, 66, 0
1, 102400, Note_on_c, 0, 69, 0
1, 102400, Note_on_c, 0, 63, 101
1, 102400, Note_on_c, 0, 66, 101
1, 102912, Note_on_c, 0, 63, 0
1, 102912, Note_on_c, 0, 66, 0
1, 102912, Note_on_c, 0, 35, 0
1, 102912, Note_on_c, 0, 47, 0
1, 102912, Note_on_c, 0, 64, 101
1, 102912, Note_on_c, 0, 40, 101
1, 102912, Note_on_c, 0, 52, 101
1, 103424, Note_on_c, 0, 64, 0
1, 103424, Note_on_c, 0, 59, 101
1, 103936, Note_on_c, 0, 59, 0
1, 103936, Note_on_c, 0, 40, 0
1, 103936, Note_on_c, 0, 52, 0
1, 104448, Note_on_c, 0, 55, 62
1, 104448, Note_on_c, 0, 64, 62
1, 104960, Note_on_c, 0, 55, 0
1, 104960, Note_on_c, 0, 64, 0
1, 104960, Note_on_c, 0, 55, 62
1, 104960, Note_on_c, 0, 64, 62
1, 105472, Note_on_c, 0, 40, 62
1, 105472, Note_on_c, 0, 52, 62
1, 105984, Note_on_c, 0, 55, 0
1, 105984, Note_on_c, 0, 64, 0
1, 105984, Note_on_c, 0, 40, 0
1, 105984, Note_on_c, 0, 52, 0
1, 105984, Note_on_c, 0, 40, 62
1, 105984, Note_on_c, 0, 52, 62
1, 106496, Note_on_c, 0, 64, 62
1, 106496, Note_on_c, 0, 67, 62
1, 107008, Note_on_c, 0, 64, 0
1, 107008, Note_on_c, 0, 67, 0
1, 107008, Note_on_c, 0, 40, 0
1, 107008, Note_on_c, 0, 52, 0
1, 107008, Note_on_c, 0, 64, 62
1, 107008, Note_on_c, 0, 67, 62
1, 107520, Note_on_c, 0, 40, 62
1, 107520, Note_on_c, 0, 52, 62
1, 108032, Note_on_c, 0, 64, 0
1, 108032, Note_on_c, 0, 67, 0
1, 108032, Note_on_c, 0, 40, 0
1, 108032, Note_on_c, 0, 52, 0
1, 108032, Note_on_c, 0, 40, 62
1, 108032, Note_on_c, 0, 52, 62
1, 108544, Note_on_c, 0, 67, 62
1, 108544, Note_on_c, 0, 71, 62
1, 109056, Note_on_c, 0, 67, 0
1, 109056, Note_on_c, 0, 71, 0
1, 109056, Note_on_c, 0, 40, 0
1, 109056, Note_on_c, 0, 52, 0
1, 109056, Note_on_c, 0, 67, 62
1, 109056, Note_on_c, 0, 71, 62
1, 109568, Note_on_c, 0, 40, 62
1, 109568, Note_on_c, 0, 52, 62
1, 110080, Note_on_c, 0, 67, 0
1, 110080, Note_on_c, 0, 71, 0
1, 110080, Note_on_c, 0, 40, 0
1, 110080, Note_on_c, 0, 52, 0
1, 110080, Note_on_c, 0, 40, 62
1, 110080, Note_on_c, 0, 52, 62
1, 110592, Note_on_c, 0, 67, 62
1, 110592, Note_on_c, 0, 76, 62
1, 111104, Note_on_c, 0, 67, 0
1, 111104, Note_on_c, 0, 76, 0
1, 111104, Note_on_c, 0, 40, 0
1, 111104, Note_on_c, 0, 52, 0
1, 111104, Note_on_c, 0, 67, 62
1, 111104, Note_on_c, 0, 76, 62
1, 111616, Note_on_c, 0, 40, 62
1, 111616, Note_on_c, 0, 52, 62
1, 112128, Note_on_c, 0, 67, 0
1, 112128, Note_on_c, 0, 76, 0
1, 112128, Note_on_c, 0, 40, 0
1, 112128, Note_on_c, 0, 52, 0
1, 112128, Note_on_c, 0, 40, 62
1, 112128, Note_on_c, 0, 52, 62
1, 112640, Note_on_c, 0, 67, 62
1, 112640, Note_on_c, 0, 71, 62
1, 113152, Note_on_c, 0, 67, 0
1, 113152, Note_on_c, 0, 71, 0
1, 113152, Note_on_c, 0, 40, 0
1, 113152, Note_on_c, 0, 52, 0
1, 113152, Note_on_c, 0, 35, 62
1, 113152, Note_on_c, 0, 47, 62
1, 113664, Note_on_c, 0, 66, 62
1, 113664, Note_on_c, 0, 69, 62
1, 113664, Note_on_c, 0, 35, 0
1, 113664, Note_on_c, 0, 47, 0
1, 114176, Note_on_c, 0, 66, 0
1, 114176, Note_on_c, 0, 69, 0
1, 114176, Note_on_c, 0, 35, 62
1, 114176, Note_on_c, 0, 47, 62
1, 114688, Note_on_c, 0, 64, 62
1, 114688, Note_on_c, 0, 67, 62
1, 114688, Note_on_c, 0, 35, 0
1, 114688, Note_on_c, 0, 47, 0
1, 115200, Note_on_c, 0, 64, 0
1, 115200, Note_on_c, 0, 67, 0
1, 115200, Note_on_c, 0, 35, 62
1, 115200, Note_on_c, 0, 47, 62
1, 115712, Note_on_c, 0, 63, 62
1, 115712, Note_on_c, 0, 66, 62
1, 116224, Note_on_c, 0, 63, 0
1, 116224, Note_on_c, 0, 66, 0
1, 116224, Note_on_c, 0, 59, 62
1, 116224, Note_on_c, 0, 35, 0
1, 116224, Note_on_c, 0, 47, 0
1, 116736, Note_on_c, 0, 59, 0
1, 116736, Note_on_c, 0, 67, 62
1, 116736, Note_on_c, 0, 71, 62
1, 117248, Note_on_c, 0, 67, 0
1, 117248, Note_on_c, 0, 71, 0
1, 117248, Note_on_c, 0, 35, 62
1, 117248, Note_on_c, 0, 47, 62
1, 117760, Note_on_c, 0, 66, 62
1, 117760, Note_on_c, 0, 69, 62
1, 117760, Note_on_c, 0, 35, 0
1, 117760, Note_on_c, 0, 47, 0
1, 118272, Note_on_c, 0, 66, 0
1, 118272, Note_on_c, 0, 69, 0
1, 118272, Note_on_c, 0, 35, 62
1, 118272, Note_on_c, 0, 47, 62
1, 118784, Note_on_c, 0, 64, 62
1, 118784, Note_on_c, 0, 67, 62
1, 118784, Note_on_c, 0, 35, 0
1, 118784, Note_on_c, 0, 47, 0
1, 119296, Note_on_c, 0, 64, 0
1, 119296, Note_on_c, 0, 67, 0
1, 119296, Note_on_c, 0, 35, 62
1, 119296, Note_on_c, 0, 47, 62
1, 119808, Note_on_c, 0, 63, 62
1, 119808, Note_on_c, 0, 66, 62
1, 120320, Note_on_c, 0, 63, 0
1, 120320, Note_on_c, 0, 66, 0
1, 120320, Note_on_c, 0, 59, 62
1, 120320, Note_on_c, 0, 35, 0
1, 120320, Note_on_c, 0, 47, 0
1, 120832, Note_on_c, 0, 59, 0
1, 120832, Note_on_c, 0, 67, 62
1, 120832, Note_on_c, 0, 71, 62
1, 121344, Note_on_c, 0, 67, 0
1, 121344, Note_on_c, 0, 71, 0
1, 121344, Note_on_c, 0, 35, 62
1, 121344, Note_on_c, 0, 47, 62
1, 121856, Note_on_c, 0, 66, 62
1, 121856, Note_on_c, 0, 69, 62
1, 121856, Note_on_c, 0, 35, 0
1, 121856, Note_on_c, 0, 47, 0
1, 122368, Note_on_c, 0, 66, 0
1, 122368, Note_on_c, 0, 69, 0
1, 122368, Note_on_c, 0, 35, 62
1, 122368, Note_on_c, 0, 47, 62
1, 122880, Note_on_c, 0, 64, 62
1, 122880, Note_on_c, 0, 67, 62
1, 122880, Note_on_c, 0, 35, 0
1, 122880, Note_on_c, 0, 47, 0
1, 123392, Note_on_c, 0, 64, 0
1, 123392, Note_on_c, 0, 67, 0
1, 123392, Note_on_c, 0, 63, 62
1, 123392, Note_on_c, 0, 66, 62
1, 123392, Note_on_c, 0, 35, 62
1, 123392, Note_on_c, 0, 47, 62
1, 124416, Note_on_c, 0, 63, 0
1, 124416, Note_on_c, 0, 66, 0
1, 124416, Note_on_c, 0, 35, 0
1, 124416, Note_on_c, 0, 47, 0
1, 125440, Note_on_c, 0, 75, 101
1, 125440, Note_on_c, 0, 51, 101
1, 125440, Note_on_c, 0, 63, 101
1, 125696, Note_on_c, 0, 75, 0
1, 125696, Note_on_c, 0, 71, 101
1, 125952, Note_on_c, 0, 71, 0
1, 125952, Note_on_c, 0, 78, 101
1, 126208, Note_on_c, 0, 78, 0
1, 126208, Note_on_c, 0, 75, 101
1, 126464, Note_on_c, 0, 75, 0
1, 126464, Note_on_c, 0, 83, 101
1, 126464, Note_on_c, 0, 51, 0
1, 126464, Note_on_c, 0, 63, 0
1, 126720, Note_on_c, 0, 83, 0
1, 126720, Note_on_c, 0, 78, 101
1, 126976, Note_on_c, 0, 78, 0
1, 126976, Note_on_c, 0, 75, 101
1, 126976, Note_on_c, 0, 51, 101
1, 126976, Note_on_c, 0, 63, 101
1, 127232, Note_on_c, 0, 75, 0
1, 127232, Note_on_c, 0, 71, 101
1, 127488, Note_on_c, 0, 71, 0
1, 127488, Note_on_c, 0, 51, 0
1, 127488, Note_on_c, 0, 63, 0
1, 127488, Note_on_c, 0, 75, 101
1, 127488, Note_on_c, 0, 52, 101
1, 127488, Note_on_c, 0, 64, 101
1, 127744, Note_on_c, 0, 75, 0
1, 127744, Note_on_c, 0, 71, 101
1, 128000, Note_on_c, 0, 71, 0
1, 128000, Note_on_c, 0, 78, 101
1, 128256, Note_on_c, 0, 78, 0
1, 128256, Note_on_c, 0, 75, 101
1, 128512, Note_on_c, 0, 75, 0
1, 128512, Note_on_c, 0, 83, 101
1, 128512, Note_on_c, 0, 52, 0
1, 128512, Note_on_c, 0, 64, 0
1, 128768, Note_on_c, 0, 83, 0
1, 128768, Note_on_c, 0, 78, 101
1, 129024, Note_on_c, 0, 78, 0
1, 129024, Note_on_c, 0, 75, 101
1, 129024, Note_on_c, 0, 52, 101
1, 129024, Note_on_c, 0, 64, 101
1, 129280, Note_on_c, 0, 75, 0
1, 129280, Note_on_c, 0, 71, 101
1, 129536, Note_on_c, 0, 71, 0
1, 129536, Note_on_c, 0, 52, 0
1, 129536, Note_on_c, 0, 64, 0
1, 129536, Note_on_c, 0, 75, 101
1, 129536, Note_on_c, 0, 54, 101
1, 129536, Note_on_c, 0, 66, 101
1, 129792, Note_on_c, 0, 75, 0
1, 129792, Note_on_c, 0, 71, 101
1, 130048, Note_on_c, 0, 71, 0
1, 130048, Note_on_c, 0, 78, 101
1, 130304, Note_on_c, 0, 78, 0
1, 130304, Note_on_c, 0, 75, 101
1, 130560, Note_on_c, 0, 75, 0
1, 130560, Note_on_c, 0, 83, 101
1, 130560, Note_on_c, 0, 54, 0
1, 130560, Note_on_c, 0, 66, 0
1, 130816, Note_on_c, 0, 83, 0
1, 130816, Note_on_c, 0, 78, 101
1, 131072, Note_on_c, 0, 78, 0
1, 131072, Note_on_c, 0, 75, 101
1, 131072, Note_on_c, 0, 54, 101
1, 131072, Note_on_c, 0, 66, 101
1, 131328, Note_on_c, 0, 75, 0
1, 131328, Note_on_c, 0, 71, 101
1, 131584, Note_on_c, 0, 71, 0
1, 131584, Note_on_c, 0, 54, 0
1, 131584, Note_on_c, 0, 66, 0
1, 131584, Note_on_c, 0, 76, 101
1, 131584, Note_on_c, 0, 56, 101
1, 131584, Note_on_c, 0, 68, 101
1, 131840, Note_on_c, 0, 76, 0
1, 131840, Note_on_c, 0, 71, 101
1, 132096, Note_on_c, 0, 71, 0
1, 132096, Note_on_c, 0, 80, 101
1, 132352, Note_on_c, 0, 80, 0
1, 132352, Note_on_c, 0, 76, 101
1, 132608, Note_on_c, 0, 76, 0
1, 132608, Note_on_c, 0, 83, 101
1, 132608, Note_on_c, 0, 56, 0
1, 132608, Note_on_c, 0, 68, 0
1, 132864, Note_on_c, 0, 83, 0
1, 132864, Note_on_c, 0, 80, 101
1, 133120, Note_on_c, 0, 80, 0
1, 133120, Note_on_c, 0, 76, 101
1, 133120, Note_on_c, 0, 56, 101
1, 133120, Note_on_c, 0, 68, 101
1, 133376, Note_on_c, 0, 76, 0
1, 133376, Note_on_c, 0, 71, 101
1, 133632, Note_on_c, 0, 71, 0
1, 133632, Note_on_c, 0, 56, 0
1, 133632, Note_on_c, 0, 68, 0
1, 133632, Note_on_c, 0, 83, 101
1, 133632, Note_on_c, 0, 51, 101
1, 133632, Note_on_c, 0, 63, 101
1, 133888, Note_on_c, 0, 83, 0
1, 133888, Note_on_c, 0, 78, 101
1, 134144, Note_on_c, 0, 78, 0
1, 134144, Note_on_c, 0, 75, 101
1, 134400, Note_on_c, 0, 75, 0
1, 134400, Note_on_c, 0, 71, 101
1, 134656, Note_on_c, 0, 71, 0
1, 134656, Note_on_c, 0, 83, 101
1, 134656, Note_on_c, 0, 51, 0
1, 134656, Note_on_c, 0, 63, 0
1, 134656, Note_on_c, 0, 52, 101
1, 134656, Note_on_c, 0, 64, 101
1, 134912, Note_on_c, 0, 83, 0
1, 134912, Note_on_c, 0, 80, 101
1, 135168, Note_on_c, 0, 80, 0
1, 135168, Note_on_c, 0, 76, 101
1, 135424, Note_on_c, 0, 76, 0
1, 135424, Note_on_c, 0, 71, 101
1, 135680, Note_on_c, 0, 71, 0
1, 135680, Note_on_c, 0, 52, 0
1, 135680, Note_on_c, 0, 64, 0
1, 135680, Note_on_c, 0, 83, 101
1, 135680, Note_on_c, 0, 51, 101
1, 135680, Note_on_c, 0, 63, 101
1, 135936, Note_on_c, 0, 83, 0
1, 135936, Note_on_c, 0, 78, 101
1, 136192, Note_on_c, 0, 78, 0
1, 136192, Note_on_c, 0, 75, 101
1, 136448, Note_on_c, 0, 75, 0
1, 136448, Note_on_c, 0, 71, 101
1, 136704, Note_on_c, 0, 71, 0
1, 136704, Note_on_c, 0, 83, 101
1, 136704, Note_on_c, 0, 51, 0
1, 136704, Note_on_c, 0, 63, 0
1, 136704, Note_on_c, 0, 52, 101
1, 136704, Note_on_c, 0, 64, 101
1, 136960, Note_on_c, 0, 83, 0
1, 136960, Note_on_c, 0, 80, 101
1, 137216, Note_on_c, 0, 80, 0
1, 137216, Note_on_c, 0, 76, 101
1, 137472, Note_on_c, 0, 76, 0
1, 137472, Note_on_c, 0, 71, 101
1, 137728, Note_on_c, 0, 71, 0
1, 137728, Note_on_c, 0, 52, 0
1, 137728, Note_on_c, 0, 64, 0
1, 137728, Note_on_c, 0, 83, 101
1, 137728, Note_on_c, 0, 51, 101
1, 137728, Note_on_c, 0, 63, 101
1, 137984, Note_on_c, 0, 83, 0
1, 137984, Note_on_c, 0, 78, 101
1, 138240, Note_on_c, 0, 78, 0
1, 138240, Note_on_c, 0, 75, 101
1, 138496, Note_on_c, 0, 75, 0
1, 138496, Note_on_c, 0, 71, 101
1, 138752, Note_on_c, 0, 71, 0
1, 138752, Note_on_c, 0, 83, 101
1, 138752, Note_on_c, 0, 51, 0
1, 138752, Note_on_c, 0, 63, 0
1, 138752, Note_on_c, 0, 52, 101
1, 138752, Note_on_c, 0, 64, 101
1, 139008, Note_on_c, 0, 83, 0
1, 139008, Note_on_c, 0, 80, 101
1, 139264, Note_on_c, 0, 80, 0
1, 139264, Note_on_c, 0, 76, 101
1, 139520, Note_on_c, 0, 76, 0
1, 139520, Note_on_c, 0, 71, 101
1, 139776, Note_on_c, 0, 71, 0
1, 139776, Note_on_c, 0, 52, 0
1, 139776, Note_on_c, 0, 64, 0
1, 139776, Note_on_c, 0, 73, 101
1, 139776, Note_on_c, 0, 66, 101
1, 139904, Note_on_c, 0, 73, 0
1, 139904, Note_on_c, 0, 75, 101
1, 140032, Note_on_c, 0, 75, 0
1, 140032, Note_on_c, 0, 73, 101
1, 140160, Note_on_c, 0, 73, 0
1, 140160, Note_on_c, 0, 75, 101
1, 140288, Note_on_c, 0, 75, 0
1, 140288, Note_on_c, 0, 73, 101
1, 140416, Note_on_c, 0, 73, 0
1, 140416, Note_on_c, 0, 75, 101
1, 140544, Note_on_c, 0, 75, 0
1, 140544, Note_on_c, 0, 73, 101
1, 140672, Note_on_c, 0, 73, 0
1, 140672, Note_on_c, 0, 75, 101
1, 140800, Note_on_c, 0, 75, 0
1, 140800, Note_on_c, 0, 73, 101
1, 140800, Note_on_c, 0, 66, 0
1, 140800, Note_on_c, 0, 54, 101
1, 140928, Note_on_c, 0, 73, 0
1, 140928, Note_on_c, 0, 75, 101
1, 141056, Note_on_c, 0, 75, 0
1, 141056, Note_on_c, 0, 73, 101
1, 141184, Note_on_c, 0, 73, 0
1, 141184, Note_on_c, 0, 75, 101
1, 141312, Note_on_c, 0, 75, 0
1, 141312, Note_on_c, 0, 73, 101
1, 141440, Note_on_c, 0, 73, 0
1, 141440, Note_on_c, 0, 75, 101
1, 141568, Note_on_c, 0, 75, 0
1, 141568, Note_on_c, 0, 73, 101
1, 141696, Note_on_c, 0, 73, 0
1, 141696, Note_on_c, 0, 75, 101
1, 141824, Note_on_c, 0, 75, 0
1, 141824, Note_on_c, 0, 54, 0
1, 141824, Note_on_c, 0, 71, 101
1, 141824, Note_on_c, 0, 59, 101
1, 142848, Note_on_c, 0, 71, 0
1, 142848, Note_on_c, 0, 59, 0
1, 143360, Note_on_c, 0, 75, 62
1, 143360, Note_on_c, 0, 78, 62
1, 143872, Note_on_c, 0, 75, 0
1, 143872, Note_on_c, 0, 78, 0
1, 143872, Note_on_c, 0, 75, 62
1, 143872, Note_on_c, 0, 78, 62
1, 144384, Note_on_c, 0, 75, 0
1, 144384, Note_on_c, 0, 78, 0
1, 144384, Note_on_c, 0, 71, 62
1, 144384, Note_on_c, 0, 75, 62
1, 144896, Note_on_c, 0, 71, 0
1, 144896, Note_on_c, 0, 75, 0
1, 144896, Note_on_c, 0, 71, 62
1, 144896, Note_on_c, 0, 75, 62
1, 145408, Note_on_c, 0, 71, 0
1, 145408, Note_on_c, 0, 75, 0
1, 145408, Note_on_c, 0, 75, 62
1, 145408, Note_on_c, 0, 78, 62
1, 145920, Note_on_c, 0, 75, 0
1, 145920, Note_on_c, 0, 78, 0
1, 145920, Note_on_c, 0, 73, 62
1, 145920, Note_on_c, 0, 76, 62
1, 146432, Note_on_c, 0, 73, 0
1, 146432, Note_on_c, 0, 76, 0
1, 146432, Note_on_c, 0, 70, 62
1, 146432, Note_on_c, 0, 73, 62
1, 146944, Note_on_c, 0, 70, 0
1, 146944, Note_on_c, 0, 73, 0
1, 147456, Note_on_c, 0, 66, 101
1, 147456, Note_on_c, 0, 54, 101
1, 147866, Note_on_c, 0, 66, 0
1, 147866, Note_on_c, 0, 54, 0
1, 147968, Note_on_c, 0, 71, 101
1, 147968, Note_on_c, 0, 59, 101
1, 148378, Note_on_c, 0, 71, 0
1, 148378, Note_on_c, 0, 59, 0
1, 148480, Note_on_c, 0, 66, 101
1, 148480, Note_on_c, 0, 54, 101
1, 148890, Note_on_c, 0, 66, 0
1, 148890, Note_on_c, 0, 54, 0
1, 148992, Note_on_c, 0, 71, 101
1, 148992, Note_on_c, 0, 59, 101
1, 149248, Note_on_c, 0, 71, 0
1, 149248, Note_on_c, 0, 66, 101
1, 149248, Note_on_c, 0, 59, 0
1, 149248, Note_on_c, 0, 54, 101
1, 149504, Note_on_c, 0, 66, 0
1, 149504, Note_on_c, 0, 63, 101
1, 149504, Note_on_c, 0, 54, 0
1, 149504, Note_on_c, 0, 51, 101
1, 149760, Note_on_c, 0, 63, 0
1, 149760, Note_on_c, 0, 59, 101
1, 149760, Note_on_c, 0, 51, 0
1, 149760, Note_on_c, 0, 47, 101
1, 150016, Note_on_c, 0, 59, 0
1, 150016, Note_on_c, 0, 47, 0
1, 150016, Note_on_c, 0, 66, 101
1, 150016, Note_on_c, 0, 54, 101
1, 151040, Note_on_c, 0, 66, 0
1, 151040, Note_on_c, 0, 54, 0
1, 151552, Note_on_c, 0, 74, 62
1, 151552, Note_on_c, 0, 78, 62
1, 152064, Note_on_c, 0, 74, 0
1, 152064, Note_on_c, 0, 78, 0
1, 152064, Note_on_c, 0, 74, 62
1, 152064, Note_on_c, 0, 78, 62
1, 152576, Note_on_c, 0, 74, 0
1, 152576, Note_on_c, 0, 78, 0
1, 152576, Note_on_c, 0, 71, 62
1, 152576, Note_on_c, 0, 74, 62
1, 153088, Note_on_c, 0, 71, 0
1, 153088, Note_on_c, 0, 74, 0
1, 153088, Note_on_c, 0, 71, 62
1, 153088, Note_on_c, 0, 74, 62
1, 153600, Note_on_c, 0, 71, 0
1, 153600, Note_on_c, 0, 74, 0
1, 153600, Note_on_c, 0, 74, 62
1, 153600, Note_on_c, 0, 78, 62
1, 154112, Note_on_c, 0, 74, 0
1, 154112, Note_on_c, 0, 78, 0
1, 154112, Note_on_c, 0, 73, 62
1, 154112, Note_on_c, 0, 76, 62
1, 154624, Note_on_c, 0, 73, 0
1, 154624, Note_on_c, 0, 76, 0
1, 154624, Note_on_c, 0, 70, 62
1, 154624, Note_on_c, 0, 73, 62
1, 155136, Note_on_c, 0, 70, 0
1, 155136, Note_on_c, 0, 73, 0
1, 155648, Note_on_c, 0, 70, 101
1, 156160, Note_on_c, 0, 70, 0
1, 156160, Note_on_c, 0, 71, 101
1, 156160, Note_on_c, 0, 62, 101
1, 156160, Note_on_c, 0, 55, 101
1, 156928, Note_on_c, 0, 71, 0
1, 156928, Note_on_c, 0, 70, 101
1, 157184, Note_on_c, 0, 70, 0
1, 157184, Note_on_c, 0, 71, 101
1, 157184, Note_on_c, 0, 62, 0
1, 157184, Note_on_c, 0, 65, 101
1, 157440, Note_on_c, 0, 71, 0
1, 157440, Note_on_c, 0, 74, 101
1, 157696, Note_on_c, 0, 74, 0
1, 157696, Note_on_c, 0, 73, 101
1, 157952, Note_on_c, 0, 73, 0
1, 157952, Note_on_c, 0, 71, 101
1, 158208, Note_on_c, 0, 71, 0
1, 158208, Note_on_c, 0, 65, 0
1, 158208, Note_on_c, 0, 55, 0
1, 158208, Note_on_c, 0, 70, 101
1, 158208, Note_on_c, 0, 54, 101
1, 158208, Note_on_c, 0, 66, 101
1, 159232, Note_on_c, 0, 70, 0
1, 159232, Note_on_c, 0, 54, 0
1, 159232, Note_on_c, 0, 66, 0
1, 159744, Note_on_c, 0, 63, 75
1, 159744, Note_on_c, 0, 71, 75
1, 160256, Note_on_c, 0, 63, 0
1, 160256, Note_on_c, 0, 71, 0
1, 160256, Note_on_c, 0, 63, 75
1, 160256, Note_on_c, 0, 71, 75
1, 160256, Note_on_c, 0, 47, 75
1, 160256, Note_on_c, 0, 59, 75
1, 160768, Note_on_c, 0, 63, 0
1, 160768, Note_on_c, 0, 71, 0
1, 160768, Note_on_c, 0, 71, 75
1, 160768, Note_on_c, 0, 75, 75
1, 161280, Note_on_c, 0, 71, 0
1, 161280, Note_on_c, 0, 75, 0
1, 161280, Note_on_c, 0, 71, 75
1, 161280, Note_on_c, 0, 75, 75
1, 161280, Note_on_c, 0, 47, 0
1, 161280, Note_on_c, 0, 59, 0
1, 161792, Note_on_c, 0, 71, 0
1, 161792, Note_on_c, 0, 75, 0
1, 161792, Note_on_c, 0, 75, 75
1, 161792, Note_on_c, 0, 78, 75
1, 162304, Note_on_c, 0, 75, 0
1, 162304, Note_on_c, 0, 78, 0
1, 162304, Note_on_c, 0, 78, 75
1, 162304, Note_on_c, 0, 75, 75
1, 163072, Note_on_c, 0, 78, 0
1, 163072, Note_on_c, 0, 83, 75
1, 163328, Note_on_c, 0, 83, 0
1, 163328, Note_on_c, 0, 78, 75
1, 163840, Note_on_c, 0, 78, 0
1, 163840, Note_on_c, 0, 75, 0
1, 164352, Note_on_c, 0, 80, 75
1, 164352, Note_on_c, 0, 64, 75
1, 164608, Note_on_c, 0, 64, 0
1, 164608, Note_on_c, 0, 71, 75
1, 164864, Note_on_c, 0, 71, 0
1, 164864, Note_on_c, 0, 68, 75
1, 165120, Note_on_c, 0, 80, 0
1, 165120, Note_on_c, 0, 82, 75
1, 165120, Note_on_c, 0, 68, 0
1, 165120, Note_on_c, 0, 71, 75
1, 165376, Note_on_c, 0, 82, 0
1, 165376, Note_on_c, 0, 83, 75
1, 165376, Note_on_c, 0, 71, 0
1, 165376, Note_on_c, 0, 63, 75
1, 165632, Note_on_c, 0, 63, 0
1, 165632, Note_on_c, 0, 71, 75
1, 165888, Note_on_c, 0, 83, 0
1, 165888, Note_on_c, 0, 71, 0
1, 165888, Note_on_c, 0, 66, 75
1, 166144, Note_on_c, 0, 66, 0
1, 166144, Note_on_c, 0, 71, 75
1, 166400, Note_on_c, 0, 71, 0
1, 166400, Note_on_c, 0, 80, 49
1, 166400, Note_on_c, 0, 64, 49
1, 166656, Note_on_c, 0, 64, 0
1, 166656, Note_on_c, 0, 71, 49
1, 166912, Note_on_c, 0, 71, 0
1, 166912, Note_on_c, 0, 68, 49
1, 167168, Note_on_c, 0, 80, 0
1, 167168, Note_on_c, 0, 82, 49
1, 167168, Note_on_c, 0, 68, 0
1, 167168, Note_on_c, 0, 71, 49
1, 167424, Note_on_c, 0, 82, 0
1, 167424, Note_on_c, 0, 83, 49
1, 167424, Note_on_c, 0, 71, 0
1, 167424, Note_on_c, 0, 63, 49
1, 167680, Note_on_c, 0, 63, 0
1, 167680, Note_on_c, 0, 71, 49
1, 167936, Note_on_c, 0, 83, 0
1, 167936, Note_on_c, 0, 71, 0
1, 167936, Note_on_c, 0, 66, 49
1, 168192, Note_on_c, 0, 66, 0
1, 168192, Note_on_c, 0, 71, 49
1, 168448, Note_on_c, 0, 71, 0
1, 168448, Note_on_c, 0, 80, 101
1, 168448, Note_on_c, 0, 64, 101
1, 168704, Note_on_c, 0, 80, 0
1, 168704, Note_on_c, 0, 83, 101
1, 168960, Note_on_c, 0, 83, 0
1, 168960, Note_on_c, 0, 82, 101
1, 169216, Note_on_c, 0, 82, 0
1, 169216, Note_on_c, 0, 80, 101
1, 169472, Note_on_c, 0, 80, 0
1, 169472, Note_on_c, 0, 78, 101
1, 169472, Note_on_c, 0, 64, 0
1, 169728, Note_on_c, 0, 78, 0
1, 169728, Note_on_c, 0, 76, 101
1, 169984, Note_on_c, 0, 76, 0
1, 169984, Note_on_c, 0, 75, 101
1, 170240, Note_on_c, 0, 75, 0
1, 170240, Note_on_c, 0, 73, 101
1, 170496, Note_on_c, 0, 73, 0
1, 170496, Note_on_c, 0, 71, 101
1, 170496, Note_on_c, 0, 54, 101
1, 170496, Note_on_c, 0, 59, 101
1, 170752, Note_on_c, 0, 71, 0
1, 170752, Note_on_c, 0, 73, 101
1, 170880, Note_on_c, 0, 73, 0
1, 170880, Note_on_c, 0, 75, 101
1, 171008, Note_on_c, 0, 75, 0
1, 171008, Note_on_c, 0, 73, 101
1, 171136, Note_on_c, 0, 73, 0
1, 171136, Note_on_c, 0, 75, 101
1, 171264, Note_on_c, 0, 75, 0
1, 171264, Note_on_c, 0, 73, 101
1, 171392, Note_on_c, 0, 73, 0
1, 171392, Note_on_c, 0, 75, 101
1, 171520, Note_on_c, 0, 75, 0
1, 171520, Note_on_c, 0, 73, 101
1, 171520, Note_on_c, 0, 54, 0
1, 171520, Note_on_c, 0, 59, 0
1, 171520, Note_on_c, 0, 54, 101
1, 171520, Note_on_c, 0, 58, 101
1, 171648, Note_on_c, 0, 73, 0
1, 171648, Note_on_c, 0, 75, 101
1, 171776, Note_on_c, 0, 75, 0
1, 171776, Note_on_c, 0, 73, 101
1, 171904, Note_on_c, 0, 73, 0
1, 171904, Note_on_c, 0, 75, 101
1, 172032, Note_on_c, 0, 75, 0
1, 172032, Note_on_c, 0, 73, 101
1, 172160, Note_on_c, 0, 73, 0
1, 172160, Note_on_c, 0, 75, 101
1, 172288, Note_on_c, 0, 75, 0
1, 172288, Note_on_c, 0, 73, 101
1, 172416, Note_on_c, 0, 73, 0
1, 172416, Note_on_c, 0, 75, 101
1, 172544, Note_on_c, 0, 75, 0
1, 172544, Note_on_c, 0, 54, 0
1, 172544, Note_on_c, 0, 58, 0
1, 172544, Note_on_c, 0, 71, 101
1, 172544, Note_on_c, 0, 47, 101
1, 172800, Note_on_c, 0, 47, 0
1, 172800, Note_on_c, 0, 51, 101
1, 173056, Note_on_c, 0, 51, 0
1, 173056, Note_on_c, 0, 54, 101
1, 173312, Note_on_c, 0, 54, 0
1, 173312, Note_on_c, 0, 59, 101
1, 173568, Note_on_c, 0, 71, 0
1, 173568, Note_on_c, 0, 75, 101
1, 173568, Note_on_c, 0, 83, 101
1, 173568, Note_on_c, 0, 59, 0
1, 173568, Note_on_c, 0, 47, 101
1, 173824, Note_on_c, 0, 47, 0
1, 173824, Note_on_c, 0, 51, 101
1, 174080, Note_on_c, 0, 75, 0
1, 174080, Note_on_c, 0, 83, 0
1, 174080, Note_on_c, 0, 51, 0
1, 174080, Note_on_c, 0, 54, 101
1, 174336, Note_on_c, 0, 54, 0
1, 174336, Note_on_c, 0, 59, 101
1, 174592, Note_on_c, 0, 59, 0
1, 174592, Note_on_c, 0, 75, 101
1, 174592, Note_on_c, 0, 83, 101
1, 174592, Note_on_c, 0, 47, 101
1, 175616, Note_on_c, 0, 75, 0
1, 175616, Note_on_c, 0, 83, 0
1, 175616, Note_on_c, 0, 47, 0
1, 176128, Note_on_c, 0, 83, 101
1, 176538, Note_on_c, 0, 83, 0
1, 176640, Note_on_c, 0, 83, 101
1, 176640, Note_on_c, 0, 49, 101
1, 176896, Note_on_c, 0, 49, 0
1, 176896, Note_on_c, 0, 59, 101
1, 177152, Note_on_c, 0, 83, 0
1, 177152, Note_on_c, 0, 77, 101
1, 177152, Note_on_c, 0, 59, 0
1, 177152, Note_on_c, 0, 56, 101
1, 177408, Note_on_c, 0, 56, 0
1, 177408, Note_on_c, 0, 59, 101
1, 177664, Note_on_c, 0, 77, 0
1, 177664, Note_on_c, 0, 59, 0
1, 177664, Note_on_c, 0, 49, 101
1, 177920, Note_on_c, 0, 49, 0
1, 177920, Note_on_c, 0, 59, 101
1, 178176, Note_on_c, 0, 77, 101
1, 178176, Note_on_c, 0, 59, 0
1, 178176, Note_on_c, 0, 56, 101
1, 178432, Note_on_c, 0, 56, 0
1, 178432, Note_on_c, 0, 59, 101
1, 178586, Note_on_c, 0, 77, 0
1, 178688, Note_on_c, 0, 59, 0
1, 178688, Note_on_c, 0, 78, 101
1, 178688, Note_on_c, 0, 49, 101
1, 178944, Note_on_c, 0, 49, 0
1, 178944, Note_on_c, 0, 57, 101
1, 179200, Note_on_c, 0, 78, 0
1, 179200, Note_on_c, 0, 73, 101
1, 179200, Note_on_c, 0, 57, 0
1, 179200, Note_on_c, 0, 54, 101
1, 179456, Note_on_c, 0, 54, 0
1, 179456, Note_on_c, 0, 57, 101
1, 179712, Note_on_c, 0, 73, 0
1, 179712, Note_on_c, 0, 57, 0
1, 179712, Note_on_c, 0, 49, 101
1, 179968, Note_on_c, 0, 49, 0
1, 179968, Note_on_c, 0, 57, 101
1, 180224, Note_on_c, 0, 81, 101
1, 180224, Note_on_c, 0, 57, 0
1, 180224, Note_on_c, 0, 54, 101
1, 180480, Note_on_c, 0, 54, 0
1, 180480, Note_on_c, 0, 57, 101
1, 180634, Note_on_c, 0, 81, 0
1, 180736, Note_on_c, 0, 57, 0
1, 180736, Note_on_c, 0, 80, 101
1, 180736, Note_on_c, 0, 49, 101
1, 180992, Note_on_c, 0, 49, 0
1, 180992, Note_on_c, 0, 56, 101
1, 181248, Note_on_c, 0, 80, 0
1, 181248, Note_on_c, 0, 71, 101
1, 181248, Note_on_c, 0, 56, 0
1, 181248, Note_on_c, 0, 53, 101
1, 181504, Note_on_c, 0, 53, 0
1, 181504, Note_on_c, 0, 56, 101
1, 181760, Note_on_c, 0, 71, 0
1, 181760, Note_on_c, 0, 56, 0
1, 181760, Note_on_c, 0, 49, 101
1, 182016, Note_on_c, 0, 49, 0
1, 182016, Note_on_c, 0, 56, 101
1, 182272, Note_on_c, 0, 71, 101
1, 182272, Note_on_c, 0, 56, 0
1, 182272, Note_on_c, 0, 53, 101
1, 182528, Note_on_c, 0, 53, 0
1, 182528, Note_on_c, 0, 56, 101
1, 182682, Note_on_c, 0, 71, 0
1, 182784, Note_on_c, 0, 56, 0
1, 182784, Note_on_c, 0, 69, 101
1, 182784, Note_on_c, 0, 49, 101
1, 183040, Note_on_c, 0, 49, 0
1, 183040, Note_on_c, 0, 57, 101
1, 183296, Note_on_c, 0, 69, 0
1, 183296, Note_on_c, 0, 66, 101
1, 183296, Note_on_c, 0, 57, 0
1, 183296, Note_on_c, 0, 54, 101
1, 183552, Note_on_c, 0, 54, 0
1, 183552, Note_on_c, 0, 57, 101
1, 183808, Note_on_c, 0, 66, 0
1, 183808, Note_on_c, 0, 57, 0
1, 183808, Note_on_c, 0, 49, 101
1, 184064, Note_on_c, 0, 49, 0
1, 184064, Note_on_c, 0, 57, 75
1, 184320, Note_on_c, 0, 81, 75
1, 184320, Note_on_c, 0, 57, 0
1, 184320, Note_on_c, 0, 54, 75
1, 184576, Note_on_c, 0, 54, 0
1, 184576, Note_on_c, 0, 57, 75
1, 184730, Note_on_c, 0, 81, 0
1, 184832, Note_on_c, 0, 57, 0
1, 184832, Note_on_c, 0, 81, 75
1, 184832, Note_on_c, 0, 47, 75
1, 185088, Note_on_c, 0, 47, 0
1, 185088, Note_on_c, 0, 57, 75
1, 185344, Note_on_c, 0, 81, 0
1, 185344, Note_on_c, 0, 75, 75
1, 185344, Note_on_c, 0, 57, 0
1, 185344, Note_on_c, 0, 54, 75
1, 185600, Note_on_c, 0, 54, 0
1, 185600, Note_on_c, 0, 57, 75
1, 185856, Note_on_c, 0, 75, 0
1, 185856, Note_on_c, 0, 57, 0
1, 185856, Note_on_c, 0, 47, 75
1, 186112, Note_on_c, 0, 47, 0
1, 186112, Note_on_c, 0, 57, 75
1, 186368, Note_on_c, 0, 75, 75
1, 186368, Note_on_c, 0, 57, 0
1, 186368, Note_on_c, 0, 54, 75
1, 186624, Note_on_c, 0, 54, 0
1, 186624, Note_on_c, 0, 57, 75
1, 186778, Note_on_c, 0, 75, 0
1, 186880, Note_on_c, 0, 57, 0
1, 186880, Note_on_c, 0, 76, 75
1, 186880, Note_on_c, 0, 47, 75
1, 187136, Note_on_c, 0, 47, 0
1, 187136, Note_on_c, 0, 56, 75
1, 187392, Note_on_c, 0, 76, 0
1, 187392, Note_on_c, 0, 71, 75
1, 187392, Note_on_c, 0, 56, 0
1, 187392, Note_on_c, 0, 52, 75
1, 187648, Note_on_c, 0, 52, 0
1, 187648, Note_on_c, 0, 56, 75
1, 187904, Note_on_c, 0, 71, 0
1, 187904, Note_on_c, 0, 56, 0
1, 187904, Note_on_c, 0, 47, 75
1, 188160, Note_on_c, 0, 47, 0
1, 188160, Note_on_c, 0, 56, 75
1, 188416, Note_on_c, 0, 80, 75
1, 188416, Note_on_c, 0, 56, 0
1, 188416, Note_on_c, 0, 52, 75
1, 188672, Note_on_c, 0, 52, 0
1, 188672, Note_on_c, 0, 56, 75
1, 188826, Note_on_c, 0, 80, 0
1, 188928, Note_on_c, 0, 56, 0
1, 188928, Note_on_c, 0, 78, 75
1, 188928, Note_on_c, 0, 47, 75
1, 189184, Note_on_c, 0, 47, 0
1, 189184, Note_on_c, 0, 54, 75
1, 189440, Note_on_c, 0, 78, 0
1, 189440, Note_on_c, 0, 69, 75
1, 189440, Note_on_c, 0, 54, 0
1, 189440, Note_on_c, 0, 51, 75
1, 189696, Note_on_c, 0, 51, 0
1, 189696, Note_on_c, 0, 54, 75
1, 189952, Note_on_c, 0, 69, 0
1, 189952, Note_on_c, 0, 54, 0
1, 189952, Note_on_c, 0, 47, 75
1, 190208, Note_on_c, 0, 47, 0
1, 190208, Note_on_c, 0, 54, 75
1, 190464, Note_on_c, 0, 69, 75
1, 190464, Note_on_c, 0, 54, 0
1, 190464, Note_on_c, 0, 51, 75
1, 190720, Note_on_c, 0, 51, 0
1, 190720, Note_on_c, 0, 54, 75
1, 190874, Note_on_c, 0, 69, 0
1, 190976, Note_on_c, 0, 54, 0
1, 190976, Note_on_c, 0, 68, 75
1, 190976, Note_on_c, 0, 47, 75
1, 191232, Note_on_c, 0, 47, 0
1, 191232, Note_on_c, 0, 56, 75
1, 191488, Note_on_c, 0, 68, 0
1, 191488, Note_on_c, 0, 64, 75
1, 191488, Note_on_c, 0, 56, 0
1, 191488, Note_on_c, 0, 52, 75
1, 191744, Note_on_c, 0, 52, 0
1, 191744, Note_on_c, 0, 56, 75
1, 192000, Note_on_c, 0, 64, 0
1, 192000, Note_on_c, 0, 56, 0
1, 192000, Note_on_c, 0, 47, 75
1, 192256, Note_on_c, 0, 47, 0
1, 192256, Note_on_c, 0, 56, 101
1, 192512, Note_on_c, 0, 83, 101
1, 192512, Note_on_c, 0, 56, 0
1, 192512, Note_on_c, 0, 52, 101
1, 192768, Note_on_c, 0, 52, 0
1, 192768, Note_on_c, 0, 56, 101
1, 192922, Note_on_c, 0, 83, 0
1, 193024, Note_on_c, 0, 56, 0
1, 193024, Note_on_c, 0, 83, 101
1, 193024, Note_on_c, 0, 44, 101
1, 193280, Note_on_c, 0, 44, 0
1, 193280, Note_on_c, 0, 52, 101
1, 193536, Note_on_c, 0, 83, 0
1, 193536, Note_on_c, 0, 74, 101
1, 193536, Note_on_c, 0, 52, 0
1, 193536, Note_on_c, 0, 47, 101
1, 193792, Note_on_c, 0, 47, 0
1, 193792, Note_on_c, 0, 52, 101
1, 194048, Note_on_c, 0, 74, 0
1, 194048, Note_on_c, 0, 52, 0
1, 194048, Note_on_c, 0, 44, 101
1, 194304, Note_on_c, 0, 44, 0
1, 194304, Note_on_c, 0, 52, 101
1, 194560, Note_on_c, 0, 74, 101
1, 194560, Note_on_c, 0, 52, 0
1, 194560, Note_on_c, 0, 47, 101
1, 194816, Note_on_c, 0, 47, 0
1, 194816, Note_on_c, 0, 52, 101
1, 194970, Note_on_c, 0, 74, 0
1, 195072, Note_on_c, 0, 52, 0
1, 195072, Note_on_c, 0, 72, 101
1, 195072, Note_on_c, 0, 45, 101
1, 195328, Note_on_c, 0, 45, 0
1, 195328, Note_on_c, 0, 52, 101
1, 195584, Note_on_c, 0, 72, 0
1, 195584, Note_on_c, 0, 73, 101
1, 195584, Note_on_c, 0, 52, 0
1, 195584, Note_on_c, 0, 49, 101
1, 195840, Note_on_c, 0, 49, 0
1, 195840, Note_on_c, 0, 52, 101
1, 196096, Note_on_c, 0, 73, 0
1, 196096, Note_on_c, 0, 52, 0
1, 196096, Note_on_c, 0, 45, 101
1, 196352, Note_on_c, 0, 45, 0
1, 196352, Note_on_c, 0, 52, 101
1, 196608, Note_on_c, 0, 85, 101
1, 196608, Note_on_c, 0, 52, 0
1, 196608, Note_on_c, 0, 49, 101
1, 196864, Note_on_c, 0, 49, 0
1, 196864, Note_on_c, 0, 52, 101
1, 197018, Note_on_c, 0, 85, 0
1, 197120, Note_on_c, 0, 52, 0
1, 197120, Note_on_c, 0, 85, 101
1, 197120, Note_on_c, 0, 46, 101
1, 197376, Note_on_c, 0, 46, 0
1, 197376, Note_on_c, 0, 54, 101
1, 197632, Note_on_c, 0, 85, 0
1, 197632, Note_on_c, 0, 76, 101
1, 197632, Note_on_c, 0, 54, 0
1, 197632, Note_on_c, 0, 49, 101
1, 197888, Note_on_c, 0, 49, 0
1, 197888, Note_on_c, 0, 54, 101
1, 198144, Note_on_c, 0, 76, 0
1, 198144, Note_on_c, 0, 54, 0
1, 198144, Note_on_c, 0, 46, 101
1, 198400, Note_on_c, 0, 46, 0
1, 198400, Note_on_c, 0, 54, 101
1, 198656, Note_on_c, 0, 76, 101
1, 198656, Note_on_c, 0, 54, 0
1, 198656, Note_on_c, 0, 49, 101
1, 198912, Note_on_c, 0, 49, 0
1, 198912, Note_on_c, 0, 54, 101
1, 199168, Note_on_c, 0, 76, 0
1, 199168, Note_on_c, 0, 54, 0
1, 199168, Note_on_c, 0, 75, 101
1, 199168, Note_on_c, 0, 47, 101
1, 199424, Note_on_c, 0, 75, 0
1, 199424, Note_on_c, 0, 71, 101
1, 199680, Note_on_c, 0, 71, 0
1, 199680, Note_on_c, 0, 78, 101
1, 199936, Note_on_c, 0, 78, 0
1, 199936, Note_on_c, 0, 75, 101
1, 200192, Note_on_c, 0, 75, 0
1, 200192, Note_on_c, 0, 83, 101
1, 200192, Note_on_c, 0, 47, 0
1, 200448, Note_on_c, 0, 83, 0
1, 200448, Note_on_c, 0, 78, 101
1, 200704, Note_on_c, 0, 78, 0
1, 200704, Note_on_c, 0, 75, 101
1, 200960, Note_on_c, 0, 75, 0
1, 200960, Note_on_c, 0, 71, 101
1, 201216, Note_on_c, 0, 71, 0
1, 201216, Note_on_c, 0, 81, 101
1, 201216, Note_on_c, 0, 51, 101
1, 201216, Note_on_c, 0, 63, 101
1, 201472, Note_on_c, 0, 81, 0
1, 201472, Note_on_c, 0, 78, 101
1, 201728, Note_on_c, 0, 78, 0
1, 201728, Note_on_c, 0, 75, 101
1, 201984, Note_on_c, 0, 75, 0
1, 201984, Note_on_c, 0, 71, 101
1, 202240, Note_on_c, 0, 71, 0
1, 202240, Note_on_c, 0, 80, 101
1, 202240, Note_on_c, 0, 51, 0
1, 202240, Note_on_c, 0, 63, 0
1, 202240, Note_on_c, 0, 52, 101
1, 202240, Note_on_c, 0, 64, 101
1, 202496, Note_on_c, 0, 80, 0
1, 202496, Note_on_c, 0, 76, 101
1, 202752, Note_on_c, 0, 76, 0
1, 202752, Note_on_c, 0, 75, 101
1, 203008, Note_on_c, 0, 75, 0
1, 203008, Note_on_c, 0, 76, 101
1, 203264, Note_on_c, 0, 76, 0
1, 203264, Note_on_c, 0, 52, 0
1, 203264, Note_on_c, 0, 64, 0
1, 203264, Note_on_c, 0, 75, 101
1, 203264, Note_on_c, 0, 47, 101
1, 203264, Note_on_c, 0, 59, 101
1, 203520, Note_on_c, 0, 75, 0
1, 203520, Note_on_c, 0, 71, 101
1, 203776, Note_on_c, 0, 71, 0
1, 203776, Note_on_c, 0, 78, 101
1, 204032, Note_on_c, 0, 78, 0
1, 204032, Note_on_c, 0, 75, 101
1, 204288, Note_on_c, 0, 75, 0
1, 204288, Note_on_c, 0, 83, 107
1, 204288, Note_on_c, 0, 47, 0
1, 204288, Note_on_c, 0, 59, 0
1, 204544, Note_on_c, 0, 83, 0
1, 204544, Note_on_c, 0, 78, 107
1, 204800, Note_on_c, 0, 78, 0
1, 204800, Note_on_c, 0, 75, 113
1, 205056, Note_on_c, 0, 75, 0
1, 205056, Note_on_c, 0, 71, 113
1, 205312, Note_on_c, 0, 71, 0
1, 205312, Note_on_c, 0, 81, 119
1, 205312, Note_on_c, 0, 51, 119
1, 205312, Note_on_c, 0, 63, 119
1, 205568, Note_on_c, 0, 81, 0
1, 205568, Note_on_c, 0, 78, 119
1, 205824, Note_on_c, 0, 78, 0
1, 205824, Note_on_c, 0, 75, 127
1, 206080, Note_on_c, 0, 75, 0
1, 206080, Note_on_c, 0, 71, 127
1, 206336, Note_on_c, 0, 71, 0
1, 206336, Note_on_c, 0, 80, 127
1, 206336, Note_on_c, 0, 51, 0
1, 206336, Note_on_c, 0, 63, 0
1, 206336, Note_on_c, 0, 52, 127
1, 206336, Note_on_c, 0, 64, 127
1, 206592, Note_on_c, 0, 80, 0
1, 206592, Note_on_c, 0, 76, 127
1, 206848, Note_on_c, 0, 76, 0
1, 206848, Note_on_c, 0, 75, 127
1, 207104, Note_on_c, 0, 75, 0
1, 207104, Note_on_c, 0, 76, 127
1, 207360, Note_on_c, 0, 76, 0
1, 207360, Note_on_c, 0, 52, 0
1, 207360, Note_on_c, 0, 64, 0
1, 207360, Note_on_c, 0, 75, 127
1, 207360, Note_on_c, 0, 47, 127
1, 207360, Note_on_c, 0, 59, 127
1, 207872, Note_on_c, 0, 75, 0
1, 207872, Note_on_c, 0, 83, 127
1, 208384, Note_on_c, 0, 83, 0
1, 208384, Note_on_c, 0, 47, 0
1, 208384, Note_on_c, 0, 59, 0
1, 208896, Note_on_c, 0, 56, 101
1, 208896, Note_on_c, 0, 64, 101
1, 209408, Note_on_c, 0, 56, 0
1, 209408, Note_on_c, 0, 64, 0
1, 209408, Note_on_c, 0, 56, 101
1, 209408, Note_on_c, 0, 64, 101
1, 209920, Note_on_c, 0, 40, 101
1, 209920, Note_on_c, 0, 52, 101
1, 210432, Note_on_c, 0, 56, 0
1, 210432, Note_on_c, 0, 64, 0
1, 210432, Note_on_c, 0, 40, 0
1, 210432, Note_on_c, 0, 52, 0
1, 210432, Note_on_c, 0, 40, 101
1, 210432, Note_on_c, 0, 52, 101
1, 210944, Note_on_c, 0, 64, 101
1, 210944, Note_on_c, 0, 68, 101
1, 211456, Note_on_c, 0, 64, 0
1, 211456, Note_on_c, 0, 68, 0
1, 211456, Note_on_c, 0, 40, 0
1, 211456, Note_on_c, 0, 52, 0
1, 211456, Note_on_c, 0, 64, 101
1, 211456, Note_on_c, 0, 68, 101
1, 211968, Note_on_c, 0, 40, 101
1, 211968, Note_on_c, 0, 52, 101
1, 212480, Note_on_c, 0, 64, 0
1, 212480, Note_on_c, 0, 68, 0
1, 212480, Note_on_c, 0, 40, 0
1, 212480, Note_on_c, 0, 52, 0
1, 212480, Note_on_c, 0, 40, 101
1, 212480, Note_on_c, 0, 52, 101
1, 212992, Note_on_c, 0, 68, 101
1, 212992, Note_on_c, 0, 71, 101
1, 213504, Note_on_c, 0, 68, 0
1, 213504, Note_on_c, 0, 71, 0
1, 213504, Note_on_c, 0, 40, 0
1, 213504, Note_on_c, 0, 52, 0
1, 213504, Note_on_c, 0, 68, 101
1, 213504, Note_on_c, 0, 71, 101
1, 214016, Note_on_c, 0, 40, 101
1, 214016, Note_on_c, 0, 52, 101
1, 214528, Note_on_c, 0, 68, 0
1, 214528, Note_on_c, 0, 71, 0
1, 214528, Note_on_c, 0, 40, 0
1, 214528, Note_on_c, 0, 52, 0
1, 214528, Note_on_c, 0, 40, 101
1, 214528, Note_on_c, 0, 52, 101
1, 215040, Note_on_c, 0, 68, 101
1, 215040, Note_on_c, 0, 76, 101
1, 215552, Note_on_c, 0, 68, 0
1, 215552, Note_on_c, 0, 76, 0
1, 215552, Note_on_c, 0, 40, 0
1, 215552, Note_on_c, 0, 52, 0
1, 215552, Note_on_c, 0, 68, 101
1, 215552, Note_on_c, 0, 76, 101
1, 216064, Note_on_c, 0, 40, 101
1, 216064, Note_on_c, 0, 52, 101
1, 216576, Note_on_c, 0, 68, 0
1, 216576, Note_on_c, 0, 76, 0
1, 216576, Note_on_c, 0, 40, 0
1, 216576, Note_on_c, 0, 52, 0
1, 216576, Note_on_c, 0, 40, 101
1, 216576, Note_on_c, 0, 52, 101
1, 217088, Note_on_c, 0, 68, 101
1, 217088, Note_on_c, 0, 71, 101
1, 217600, Note_on_c, 0, 68, 0
1, 217600, Note_on_c, 0, 71, 0
1, 217600, Note_on_c, 0, 40, 0
1, 217600, Note_on_c, 0, 52, 0
1, 217600, Note_on_c, 0, 66, 101
1, 217600, Note_on_c, 0, 69, 101
1, 217600, Note_on_c, 0, 35, 101
1, 217600, Note_on_c, 0, 47, 101
1, 218112, Note_on_c, 0, 66, 0
1, 218112, Note_on_c, 0, 69, 0
1, 218112, Note_on_c, 0, 64, 101
1, 218112, Note_on_c, 0, 68, 101
1, 218624, Note_on_c, 0, 64, 0
1, 218624, Note_on_c, 0, 68, 0
1, 218624, Note_on_c, 0, 66, 101
1, 218624, Note_on_c, 0, 69, 101
1, 218624, Note_on_c, 0, 35, 0
1, 218624, Note_on_c, 0, 47, 0
1, 218624, Note_on_c, 0, 35, 101
1, 218624, Note_on_c, 0, 47, 101
1, 219136, Note_on_c, 0, 66, 0
1, 219136, Note_on_c, 0, 69, 0
1, 219136, Note_on_c, 0, 63, 101
1, 219136, Note_on_c, 0, 66, 101
1, 219648, Note_on_c, 0, 63, 0
1, 219648, Note_on_c, 0, 66, 0
1, 219648, Note_on_c, 0, 35, 0
1, 219648, Note_on_c, 0, 47, 0
1, 219648, Note_on_c, 0, 64, 101
1, 219648, Note_on_c, 0, 68, 101
1, 219648, Note_on_c, 0, 40, 101
1, 219648, Note_on_c, 0, 52, 101
1, 220160, Note_on_c, 0, 64, 0
1, 220160, Note_on_c, 0, 68, 0
1, 220160, Note_on_c, 0, 68, 101
1, 220160, Note_on_c, 0, 71, 101
1, 220672, Note_on_c, 0, 68, 0
1, 220672, Note_on_c, 0, 71, 0
1, 220672, Note_on_c, 0, 40, 0
1, 220672, Note_on_c, 0, 52, 0
1, 220672, Note_on_c, 0, 40, 101
1, 220672, Note_on_c, 0, 52, 101
1, 221184, Note_on_c, 0, 68, 101
1, 221184, Note_on_c, 0, 71, 101
1, 221696, Note_on_c, 0, 68, 0
1, 221696, Note_on_c, 0, 71, 0
1, 221696, Note_on_c, 0, 40, 0
1, 221696, Note_on_c, 0, 52, 0
1, 221696, Note_on_c, 0, 66, 101
1, 221696, Note_on_c, 0, 69, 101
1, 221696, Note_on_c, 0, 35, 101
1, 221696, Note_on_c, 0, 47, 101
1, 222208, Note_on_c, 0, 66, 0
1, 222208, Note_on_c, 0, 69, 0
1, 222208, Note_on_c, 0, 64, 101
1, 222208, Note_on_c, 0, 68, 101
1, 222720, Note_on_c, 0, 64, 0
1, 222720, Note_on_c, 0, 68, 0
1, 222720, Note_on_c, 0, 66, 101
1, 222720, Note_on_c, 0, 69, 101
1, 222720, Note_on_c, 0, 35, 0
1, 222720, Note_on_c, 0, 47, 0
1, 222720, Note_on_c, 0, 35, 101
1, 222720, Note_on_c, 0, 47, 101
1, 223232, Note_on_c, 0, 66, 0
1, 223232, Note_on_c, 0, 69, 0
1, 223232, Note_on_c, 0, 63, 101
1, 223232, Note_on_c, 0, 66, 101
1, 223744, Note_on_c, 0, 63, 0
1, 223744, Note_on_c, 0, 66, 0
1, 223744, Note_on_c, 0, 35, 0
1, 223744, Note_on_c, 0, 47, 0
1, 223744, Note_on_c, 0, 64, 101
1, 223744, Note_on_c, 0, 40, 101
1, 223744, Note_on_c, 0, 52, 101
1, 224256, Note_on_c, 0, 64, 0
1, 224256, Note_on_c, 0, 59, 101
1, 224768, Note_on_c, 0, 59, 0
1, 224768, Note_on_c, 0, 40, 0
1, 224768, Note_on_c, 0, 52, 0
1, 225280, Note_on_c, 0, 55, 62
1, 225280, Note_on_c, 0, 64, 62
1, 225792, Note_on_c, 0, 55, 0
1, 225792, Note_on_c, 0, 64, 0
1, 225792, Note_on_c, 0, 55, 62
1, 225792, Note_on_c, 0, 64, 62
1, 226304, Note_on_c, 0, 40, 62
1, 226304, Note_on_c, 0, 52, 62
1, 226816, Note_on_c, 0, 55, 0
1, 226816, Note_on_c, 0, 64, 0
1, 226816, Note_on_c, 0, 40, 0
1, 226816, Note_on_c, 0, 52, 0
1, 226816, Note_on_c, 0, 40, 62
1, 226816, Note_on_c, 0, 52, 62
1, 227328, Note_on_c, 0, 64, 62
1, 227328, Note_on_c, 0, 67, 62
1, 227840, Note_on_c, 0, 64, 0
1, 227840, Note_on_c, 0, 67, 0
1, 227840, Note_on_c, 0, 40, 0
1, 227840, Note_on_c, 0, 52, 0
1, 227840, Note_on_c, 0, 63, 62
1, 227840, Note_on_c, 0, 66, 62
1, 228352, Note_on_c, 0, 35, 62
1, 228352, Note_on_c, 0, 47, 62
1, 228864, Note_on_c, 0, 63, 0
1, 228864, Note_on_c, 0, 66, 0
1, 228864, Note_on_c, 0, 35, 0
1, 228864, Note_on_c, 0, 47, 0
1, 228864, Note_on_c, 0, 35, 62
1, 228864, Note_on_c, 0, 47, 62
1, 229376, Note_on_c, 0, 63, 62
1, 229376, Note_on_c, 0, 66, 62
1, 229888, Note_on_c, 0, 63, 0
1, 229888, Note_on_c, 0, 66, 0
1, 229888, Note_on_c, 0, 35, 0
1, 229888, Note_on_c, 0, 47, 0
1, 229888, Note_on_c, 0, 63, 62
1, 229888, Note_on_c, 0, 66, 62
1, 230400, Note_on_c, 0, 35, 62
1, 230400, Note_on_c, 0, 47, 62
1, 230912, Note_on_c, 0, 63, 0
1, 230912, Note_on_c, 0, 66, 0
1, 230912, Note_on_c, 0, 35, 0
1, 230912, Note_on_c, 0, 47, 0
1, 230912, Note_on_c, 0, 35, 62
1, 230912, Note_on_c, 0, 47, 62
1, 231424, Note_on_c, 0, 66, 62
1, 231424, Note_on_c, 0, 69, 62
1, 231936, Note_on_c, 0, 66, 0
1, 231936, Note_on_c, 0, 69, 0
1, 231936, Note_on_c, 0, 35, 0
1, 231936, Note_on_c, 0, 47, 0
1, 231936, Note_on_c, 0, 64, 62
1, 231936, Note_on_c, 0, 67, 62
1, 232448, Note_on_c, 0, 40, 62
1, 232448, Note_on_c, 0, 52, 62
1, 232960, Note_on_c, 0, 64, 0
1, 232960, Note_on_c, 0, 67, 0
1, 232960, Note_on_c, 0, 40, 0
1, 232960, Note_on_c, 0, 52, 0
1, 232960, Note_on_c, 0, 40, 62
1, 232960, Note_on_c, 0, 52, 62
1, 233472, Note_on_c, 0, 67, 62
1, 233472, Note_on_c, 0, 71, 62
1, 233984, Note_on_c, 0, 67, 0
1, 233984, Note_on_c, 0, 71, 0
1, 233984, Note_on_c, 0, 40, 0
1, 233984, Note_on_c, 0, 52, 0
1, 233984, Note_on_c, 0, 69, 62
1, 233984, Note_on_c, 0, 72, 62
1, 234496, Note_on_c, 0, 40, 62
1, 234496, Note_on_c, 0, 52, 62
1, 235008, Note_on_c, 0, 69, 0
1, 235008, Note_on_c, 0, 72, 0
1, 235008, Note_on_c, 0, 40, 0
1, 235008, Note_on_c, 0, 52, 0
1, 235008, Note_on_c, 0, 40, 68
1, 235008, Note_on_c, 0, 52, 68
1, 235520, Note_on_c, 0, 66, 74
1, 235520, Note_on_c, 0, 75, 74
1, 236032, Note_on_c, 0, 66, 0
1, 236032, Note_on_c, 0, 75, 0
1, 236032, Note_on_c, 0, 40, 0
1, 236032, Note_on_c, 0, 52, 0
1, 236032, Note_on_c, 0, 67, 80
1, 236032, Note_on_c, 0, 76, 80
1, 236544, Note_on_c, 0, 40, 88
1, 236544, Note_on_c, 0, 52, 88
1, 237056, Note_on_c, 0, 67, 0
1, 237056, Note_on_c, 0, 76, 0
1, 237056, Note_on_c, 0, 40, 0
1, 237056, Note_on_c, 0, 52, 0
1, 237056, Note_on_c, 0, 40, 94
1, 237056, Note_on_c, 0, 52, 94
1, 237568, Note_on_c, 0, 67, 100
1, 237568, Note_on_c, 0, 71, 100
1, 238080, Note_on_c, 0, 67, 0
1, 238080, Note_on_c, 0, 71, 0
1, 238080, Note_on_c, 0, 40, 0
1, 238080, Note_on_c, 0, 52, 0
1, 238080, Note_on_c, 0, 35, 106
1, 238080, Note_on_c, 0, 47, 106
1, 238592, Note_on_c, 0, 66, 106
1, 238592, Note_on_c, 0, 69, 106
1, 238592, Note_on_c, 0, 35, 0
1, 238592, Note_on_c, 0, 47, 0
1, 239104, Note_on_c, 0, 66, 0
1, 239104, Note_on_c, 0, 69, 0
1, 239104, Note_on_c, 0, 35, 106
1, 239104, Note_on_c, 0, 47, 106
1, 239616, Note_on_c, 0, 64, 106
1, 239616, Note_on_c, 0, 67, 106
1, 239616, Note_on_c, 0, 35, 0
1, 239616, Note_on_c, 0, 47, 0
1, 240128, Note_on_c, 0, 64, 0
1, 240128, Note_on_c, 0, 67, 0
1, 240128, Note_on_c, 0, 35, 106
1, 240128, Note_on_c, 0, 47, 106
1, 240640, Note_on_c, 0, 63, 106
1, 240640, Note_on_c, 0, 66, 106
1, 241152, Note_on_c, 0, 63, 0
1, 241152, Note_on_c, 0, 66, 0
1, 241152, Note_on_c, 0, 59, 106
1, 241152, Note_on_c, 0, 35, 0
1, 241152, Note_on_c, 0, 47, 0
1, 241664, Note_on_c, 0, 59, 0
1, 241664, Note_on_c, 0, 67, 106
1, 241664, Note_on_c, 0, 71, 106
1, 242176, Note_on_c, 0, 67, 0
1, 242176, Note_on_c, 0, 71, 0
1, 242176, Note_on_c, 0, 35, 106
1, 242176, Note_on_c, 0, 47, 106
1, 242688, Note_on_c, 0, 66, 106
1, 242688, Note_on_c, 0, 69, 106
1, 242688, Note_on_c, 0, 35, 0
1, 242688, Note_on_c, 0, 47, 0
1, 243200, Note_on_c, 0, 66, 0
1, 243200, Note_on_c, 0, 69, 0
1, 243200, Note_on_c, 0, 35, 106
1, 243200, Note_on_c, 0, 47, 106
1, 243712, Note_on_c, 0, 64, 106
1, 243712, Note_on_c, 0, 67, 106
1, 243712, Note_on_c, 0, 35, 0
1, 243712, Note_on_c, 0, 47, 0
1, 244224, Note_on_c, 0, 64, 0
1, 244224, Note_on_c, 0, 67, 0
1, 244224, Note_on_c, 0, 35, 106
1, 244224, Note_on_c, 0, 47, 106
1, 244736, Note_on_c, 0, 63, 106
1, 244736, Note_on_c, 0, 66, 106
1, 245248, Note_on_c, 0, 63, 0
1, 245248, Note_on_c, 0, 66, 0
1, 245248, Note_on_c, 0, 59, 106
1, 245248, Note_on_c, 0, 35, 0
1, 245248, Note_on_c, 0, 47, 0
1, 245760, Note_on_c, 0, 59, 0
1, 245760, Note_on_c, 0, 67, 106
1, 245760, Note_on_c, 0, 71, 106
1, 246272, Note_on_c, 0, 67, 0
1, 246272, Note_on_c, 0, 71, 0
1, 246272, Note_on_c, 0, 35, 106
1, 246272, Note_on_c, 0, 47, 106
1, 246784, Note_on_c, 0, 66, 106
1, 246784, Note_on_c, 0, 69, 106
1, 246784, Note_on_c, 0, 35, 0
1, 246784, Note_on_c, 0, 47, 0
1, 247296, Note_on_c, 0, 66, 0
1, 247296, Note_on_c, 0, 69, 0
1, 247296, Note_on_c, 0, 35, 106
1, 247296, Note_on_c, 0, 47, 106
1, 247808, Note_on_c, 0, 64, 106
1, 247808, Note_on_c, 0, 67, 106
1, 247808, Note_on_c, 0, 35, 0
1, 247808, Note_on_c, 0, 47, 0
1, 248320, Note_on_c, 0, 64, 0
1, 248320, Note_on_c, 0, 67, 0
1, 248320, Note_on_c, 0, 63, 106
1, 248320, Note_on_c, 0, 66, 106
1, 248320, Note_on_c, 0, 35, 106
1, 248320, Note_on_c, 0, 47, 106
1, 249344, Note_on_c, 0, 63, 0
1, 249344, Note_on_c, 0, 66, 0
1, 249344, Note_on_c, 0, 35, 0
1, 249344, Note_on_c, 0, 47, 0
1, 250368, Note_on_c, 0, 68, 101
1, 250368, Note_on_c, 0, 44, 101
1, 250368, Note_on_c, 0, 56, 101
1, 250624, Note_on_c, 0, 68, 0
1, 250624, Note_on_c, 0, 64, 101
1, 250880, Note_on_c, 0, 64, 0
1, 250880, Note_on_c, 0, 71, 101
1, 251136, Note_on_c, 0, 71, 0
1, 251136, Note_on_c, 0, 68, 101
1, 251392, Note_on_c, 0, 68, 0
1, 251392, Note_on_c, 0, 76, 101
1, 251392, Note_on_c, 0, 44, 0
1, 251392, Note_on_c, 0, 56, 0
1, 251648, Note_on_c, 0, 76, 0
1, 251648, Note_on_c, 0, 71, 101
1, 251904, Note_on_c, 0, 71, 0
1, 251904, Note_on_c, 0, 68, 101
1, 251904, Note_on_c, 0, 44, 101
1, 251904, Note_on_c, 0, 56, 101
1, 252160, Note_on_c, 0, 68, 0
1, 252160, Note_on_c, 0, 64, 101
1, 252416, Note_on_c, 0, 64, 0
1, 252416, Note_on_c, 0, 44, 0
1, 252416, Note_on_c, 0, 56, 0
1, 252416, Note_on_c, 0, 68, 101
1, 252416, Note_on_c, 0, 45, 101
1, 252416, Note_on_c, 0, 57, 101
1, 252672, Note_on_c, 0, 68, 0
1, 252672, Note_on_c, 0, 64, 101
1, 252928, Note_on_c, 0, 64, 0
1, 252928, Note_on_c, 0, 71, 101
1, 253184, Note_on_c, 0, 71, 0
1, 253184, Note_on_c, 0, 68, 101
1, 253440, Note_on_c, 0, 68, 0
1, 253440, Note_on_c, 0, 76, 101
1, 253440, Note_on_c, 0, 45, 0
1, 253440, Note_on_c, 0, 57, 0
1, 253696, Note_on_c, 0, 76, 0
1, 253696, Note_on_c, 0, 71, 101
1, 253952, Note_on_c, 0, 71, 0
1, 253952, Note_on_c, 0, 68, 101
1, 253952, Note_on_c, 0, 45, 101
1, 253952, Note_on_c, 0, 57, 101
1, 254208, Note_on_c, 0, 68, 0
1, 254208, Note_on_c, 0, 64, 101
1, 254464, Note_on_c, 0, 64, 0
1, 254464, Note_on_c, 0, 45, 0
1, 254464, Note_on_c, 0, 57, 0
1, 254464, Note_on_c, 0, 68, 101
1, 254464, Note_on_c, 0, 47, 101
1, 254464, Note_on_c, 0, 59, 101
1, 254720, Note_on_c, 0, 68, 0
1, 254720, Note_on_c, 0, 64, 101
1, 254976, Note_on_c, 0, 64, 0
1, 254976, Note_on_c, 0, 71, 101
1, 255232, Note_on_c, 0, 71, 0
1, 255232, Note_on_c, 0, 68, 101
1, 255488, Note_on_c, 0, 68, 0
1, 255488, Note_on_c, 0, 76, 101
1, 255488, Note_on_c, 0, 47, 0
1, 255488, Note_on_c, 0, 59, 0
1, 255744, Note_on_c, 0, 76, 0
1, 255744, Note_on_c, 0, 71, 101
1, 256000, Note_on_c, 0, 71, 0
1, 256000, Note_on_c, 0, 68, 101
1, 256000, Note_on_c, 0, 47, 101
1, 256000, Note_on_c, 0, 59, 101
1, 256256, Note_on_c, 0, 68, 0
1, 256256, Note_on_c, 0, 64, 101
1, 256512, Note_on_c, 0, 64, 0
1, 256512, Note_on_c, 0, 47, 0
1, 256512, Note_on_c, 0, 59, 0
1, 256512, Note_on_c, 0, 69, 101
1, 256512, Note_on_c, 0, 49, 101
1, 256512, Note_on_c, 0, 61, 101
1, 256768, Note_on_c, 0, 69, 0
1, 256768, Note_on_c, 0, 64, 101
1, 257024, Note_on_c, 0, 64, 0
1, 257024, Note_on_c, 0, 73, 101
1, 257280, Note_on_c, 0, 73, 0
1, 257280, Note_on_c, 0, 69, 101
1, 257536, Note_on_c, 0, 69, 0
1, 257536, Note_on_c, 0, 76, 101
1, 257536, Note_on_c, 0, 49, 0
1, 257536, Note_on_c, 0, 61, 0
1, 257792, Note_on_c, 0, 76, 0
1, 257792, Note_on_c, 0, 73, 101
1, 258048, Note_on_c, 0, 73, 0
1, 258048, Note_on_c, 0, 69, 101
1, 258048, Note_on_c, 0, 49, 101
1, 258048, Note_on_c, 0, 61, 101
1, 258304, Note_on_c, 0, 69, 0
1, 258304, Note_on_c, 0, 64, 101
1, 258560, Note_on_c, 0, 64, 0
1, 258560, Note_on_c, 0, 49, 0
1, 258560, Note_on_c, 0, 61, 0
1, 258560, Note_on_c, 0, 76, 101
1, 258560, Note_on_c, 0, 44, 101
1, 258560, Note_on_c, 0, 56, 101
1, 258816, Note_on_c, 0, 76, 0
1, 258816, Note_on_c, 0, 71, 101
1, 259072, Note_on_c, 0, 71, 0
1, 259072, Note_on_c, 0, 68, 101
1, 259328, Note_on_c, 0, 68, 0
1, 259328, Note_on_c, 0, 64, 101
1, 259584, Note_on_c, 0, 64, 0
1, 259584, Note_on_c, 0, 76, 101
1, 259584, Note_on_c, 0, 44, 0
1, 259584, Note_on_c, 0, 56, 0
1, 259584, Note_on_c, 0, 45, 101
1, 259584, Note_on_c, 0, 57, 101
1, 259840, Note_on_c, 0, 76, 0
1, 259840, Note_on_c, 0, 73, 101
1, 260096, Note_on_c, 0, 73, 0
1, 260096, Note_on_c, 0, 69, 101
1, 260352, Note_on_c, 0, 69, 0
1, 260352, Note_on_c, 0, 64, 101
1, 260608, Note_on_c, 0, 64, 0
1, 260608, Note_on_c, 0, 45, 0
1, 260608, Note_on_c, 0, 57, 0
1, 260608, Note_on_c, 0, 76, 101
1, 260608, Note_on_c, 0, 44, 101
1, 260608, Note_on_c, 0, 56, 101
1, 260864, Note_on_c, 0, 76, 0
1, 260864, Note_on_c, 0, 71, 101
1, 261120, Note_on_c, 0, 71, 0
1, 261120, Note_on_c, 0, 68, 101
1, 261376, Note_on_c, 0, 68, 0
1, 261376, Note_on_c, 0, 64, 101
1, 261632, Note_on_c, 0, 64, 0
1, 261632, Note_on_c, 0, 76, 101
1, 261632, Note_on_c, 0, 44, 0
1, 261632, Note_on_c, 0, 56, 0
1, 261632, Note_on_c, 0, 45, 101
1, 261632, Note_on_c, 0, 57, 101
1, 261888, Note_on_c, 0, 76, 0
1, 261888, Note_on_c, 0, 73, 101
1, 262144, Note_on_c, 0, 73, 0
1, 262144, Note_on_c, 0, 69, 101
1, 262400, Note_on_c, 0, 69, 0
1, 262400, Note_on_c, 0, 64, 101
1, 262656, Note_on_c, 0, 64, 0
1, 262656, Note_on_c, 0, 45, 0
1, 262656, Note_on_c, 0, 57, 0
1, 262656, Note_on_c, 0, 76, 101
1, 262656, Note_on_c, 0, 44, 101
1, 262656, Note_on_c, 0, 56, 101
1, 262912, Note_on_c, 0, 76, 0
1, 262912, Note_on_c, 0, 71, 101
1, 263168, Note_on_c, 0, 71, 0
1, 263168, Note_on_c, 0, 68, 101
1, 263424, Note_on_c, 0, 68, 0
1, 263424, Note_on_c, 0, 64, 101
1, 263680, Note_on_c, 0, 64, 0
1, 263680, Note_on_c, 0, 76, 101
1, 263680, Note_on_c, 0, 44, 0
1, 263680, Note_on_c, 0, 56, 0
1, 263680, Note_on_c, 0, 45, 101
1, 263680, Note_on_c, 0, 57, 101
1, 263936, Note_on_c, 0, 76, 0
1, 263936, Note_on_c, 0, 73, 101
1, 264192, Note_on_c, 0, 73, 0
1, 264192, Note_on_c, 0, 69, 101
1, 264448, Note_on_c, 0, 69, 0
1, 264448, Note_on_c, 0, 64, 101
1, 264704, Note_on_c, 0, 64, 0
1, 264704, Note_on_c, 0, 45, 0
1, 264704, Note_on_c, 0, 57, 0
1, 264704, Note_on_c, 0, 66, 101
1, 264704, Note_on_c, 0, 59, 101
1, 264832, Note_on_c, 0, 66, 0
1, 264832, Note_on_c, 0, 68, 101
1, 264960, Note_on_c, 0, 68, 0
1, 264960, Note_on_c, 0, 66, 101
1, 265088, Note_on_c, 0, 66, 0
1, 265088, Note_on_c, 0, 68, 101
1, 265216, Note_on_c, 0, 68, 0
1, 265216, Note_on_c, 0, 66, 101
1, 265344, Note_on_c, 0, 66, 0
1, 265344, Note_on_c, 0, 68, 101
1, 265472, Note_on_c, 0, 68, 0
1, 265472, Note_on_c, 0, 66, 101
1, 265600, Note_on_c, 0, 66, 0
1, 265600, Note_on_c, 0, 68, 101
1, 265728, Note_on_c, 0, 68, 0
1, 265728, Note_on_c, 0, 66, 101
1, 265728, Note_on_c, 0, 59, 0
1, 265728, Note_on_c, 0, 47, 101
1, 265856, Note_on_c, 0, 66, 0
1, 265856, Note_on_c, 0, 68, 101
1, 265984, Note_on_c, 0, 68, 0
1, 265984, Note_on_c, 0, 66, 101
1, 266112, Note_on_c, 0, 66, 0
1, 266112, Note_on_c, 0, 68, 101
1, 266240, Note_on_c, 0, 68, 0
1, 266240, Note_on_c, 0, 66, 101
1, 266368, Note_on_c, 0, 66, 0
1, 266368, Note_on_c, 0, 68, 101
1, 266496, Note_on_c, 0, 68, 0
1, 266496, Note_on_c, 0, 66, 101
1, 266624, Note_on_c, 0, 66, 0
1, 266624, Note_on_c, 0, 68, 101
1, 266752, Note_on_c, 0, 68, 0
1, 266752, Note_on_c, 0, 47, 0
1, 266752, Note_on_c, 0, 64, 101
1, 266752, Note_on_c, 0, 52, 101
1, 267776, Note_on_c, 0, 64, 0
1, 267776, Note_on_c, 0, 52, 0
1, 268288, Note_on_c, 0, 80, 62
1, 268288, Note_on_c, 0, 83, 62
1, 268800, Note_on_c, 0, 80, 0
1, 268800, Note_on_c, 0, 83, 0
1, 268800, Note_on_c, 0, 80, 62
1, 268800, Note_on_c, 0, 83, 62
1, 269312, Note_on_c, 0, 80, 0
1, 269312, Note_on_c, 0, 83, 0
1, 269312, Note_on_c, 0, 76, 62
1, 269312, Note_on_c, 0, 80, 62
1, 269824, Note_on_c, 0, 76, 0
1, 269824, Note_on_c, 0, 80, 0
1, 269824, Note_on_c, 0, 76, 62
1, 269824, Note_on_c, 0, 80, 62
1, 270336, Note_on_c, 0, 76, 0
1, 270336, Note_on_c, 0, 80, 0
1, 270336, Note_on_c, 0, 80, 62
1, 270336, Note_on_c, 0, 83, 62
1, 270848, Note_on_c, 0, 80, 0
1, 270848, Note_on_c, 0, 83, 0
1, 270848, Note_on_c, 0, 78, 62
1, 270848, Note_on_c, 0, 81, 62
1, 271360, Note_on_c, 0, 78, 0
1, 271360, Note_on_c, 0, 81, 0
1, 271360, Note_on_c, 0, 75, 62
1, 271360, Note_on_c, 0, 78, 62
1, 271872, Note_on_c, 0, 75, 0
1, 271872, Note_on_c, 0, 78, 0
1, 272384, Note_on_c, 0, 71, 101
1, 272384, Note_on_c, 0, 59, 101
1, 272794, Note_on_c, 0, 71, 0
1, 272794, Note_on_c, 0, 59, 0
1, 272896, Note_on_c, 0, 76, 101
1, 272896, Note_on_c, 0, 64, 101
1, 273306, Note_on_c, 0, 76, 0
1, 273306, Note_on_c, 0, 64, 0
1, 273408, Note_on_c, 0, 71, 101
1, 273408, Note_on_c, 0, 59, 101
1, 273818, Note_on_c, 0, 71, 0
1, 273818, Note_on_c, 0, 59, 0
1, 273920, Note_on_c, 0, 76, 101
1, 273920, Note_on_c, 0, 64, 101
1, 274176, Note_on_c, 0, 76, 0
1, 274176, Note_on_c, 0, 71, 101
1, 274176, Note_on_c, 0, 64, 0
1, 274176, Note_on_c, 0, 59, 101
1, 274432, Note_on_c, 0, 71, 0
1, 274432, Note_on_c, 0, 68, 101
1, 274432, Note_on_c, 0, 59, 0
1, 274432, Note_on_c, 0, 56, 101
1, 274688, Note_on_c, 0, 68, 0
1, 274688, Note_on_c, 0, 64, 101
1, 274688, Note_on_c, 0, 56, 0
1, 274688, Note_on_c, 0, 52, 101
1, 274944, Note_on_c, 0, 64, 0
1, 274944, Note_on_c, 0, 52, 0
1, 274944, Note_on_c, 0, 71, 101
1, 274944, Note_on_c, 0, 59, 101
1, 275968, Note_on_c, 0, 71, 0
1, 275968, Note_on_c, 0, 59, 0
1, 276480, Note_on_c, 0, 79, 62
1, 276480, Note_on_c, 0, 83, 62
1, 276992, Note_on_c, 0, 79, 0
1, 276992, Note_on_c, 0, 83, 0
1, 276992, Note_on_c, 0, 79, 62
1, 276992, Note_on_c, 0, 83, 62
1, 277504, Note_on_c, 0, 79, 0
1, 277504, Note_on_c, 0, 83, 0
1, 277504, Note_on_c, 0, 76, 62
1, 277504, Note_on_c, 0, 79, 62
1, 278016, Note_on_c, 0, 76, 0
1, 278016, Note_on_c, 0, 79, 0
1, 278016, Note_on_c, 0, 76, 62
1, 278016, Note_on_c, 0, 79, 62
1, 278528, Note_on_c, 0, 76, 0
1, 278528, Note_on_c, 0, 79, 0
1, 278528, Note_on_c, 0, 79, 62
1, 278528, Note_on_c, 0, 83, 62
1, 279040, Note_on_c, 0, 79, 0
1, 279040, Note_on_c, 0, 83, 0
1, 279040, Note_on_c, 0, 78, 62
1, 279040, Note_on_c, 0, 81, 62
1, 279552, Note_on_c, 0, 78, 0
1, 279552, Note_on_c, 0, 81, 0
1, 279552, Note_on_c, 0, 75, 62
1, 279552, Note_on_c, 0, 78, 62
1, 280064, Note_on_c, 0, 75, 0
1, 280064, Note_on_c, 0, 78, 0
1, 280576, Note_on_c, 0, 75, 101
1, 281088, Note_on_c, 0, 75, 0
1, 281088, Note_on_c, 0, 76, 101
1, 281088, Note_on_c, 0, 55, 101
1, 281088, Note_on_c, 0, 48, 101
1, 281856, Note_on_c, 0, 76, 0
1, 281856, Note_on_c, 0, 75, 101
1, 282112, Note_on_c, 0, 75, 0
1, 282112, Note_on_c, 0, 76, 101
1, 282112, Note_on_c, 0, 55, 0
1, 282112, Note_on_c, 0, 58, 101
1, 282368, Note_on_c, 0, 76, 0
1, 282368, Note_on_c, 0, 79, 101
1, 282624, Note_on_c, 0, 79, 0
1, 282624, Note_on_c, 0, 78, 101
1, 282880, Note_on_c, 0, 78, 0
1, 282880, Note_on_c, 0, 76, 101
1, 283136, Note_on_c, 0, 76, 0
1, 283136, Note_on_c, 0, 58, 0
1, 283136, Note_on_c, 0, 48, 0
1, 283136, Note_on_c, 0, 75, 101
1, 283136, Note_on_c, 0, 47, 101
1, 283136, Note_on_c, 0, 59, 101
1, 284160, Note_on_c, 0, 75, 0
1, 284160, Note_on_c, 0, 47, 0
1, 284160, Note_on_c, 0, 59, 0
1, 284672, Note_on_c, 0, 56, 75
1, 284672, Note_on_c, 0, 64, 75
1, 285184, Note_on_c, 0, 56, 0
1, 285184, Note_on_c, 0, 64, 0
1, 285184, Note_on_c, 0, 56, 75
1, 285184, Note_on_c, 0, 64, 75
1, 285184, Note_on_c, 0, 40, 75
1, 285184, Note_on_c, 0, 52, 75
1, 285696, Note_on_c, 0, 56, 0
1, 285696, Note_on_c, 0, 64, 0
1, 285696, Note_on_c, 0, 64, 75
1, 285696, Note_on_c, 0, 68, 75
1, 286208, Note_on_c, 0, 64, 0
1, 286208, Note_on_c, 0, 68, 0
1, 286208, Note_on_c, 0, 64, 75
1, 286208, Note_on_c, 0, 68, 75
1, 286208, Note_on_c, 0, 40, 0
1, 286208, Note_on_c, 0, 52, 0
1, 286720, Note_on_c, 0, 64, 0
1, 286720, Note_on_c, 0, 68, 0
1, 286720, Note_on_c, 0, 68, 75
1, 286720, Note_on_c, 0, 71, 75
1, 287232, Note_on_c, 0, 68, 0
1, 287232, Note_on_c, 0, 71, 0
1, 287232, Note_on_c, 0, 71, 75
1, 287232, Note_on_c, 0, 68, 75
1, 288000, Note_on_c, 0, 71, 0
1, 288000, Note_on_c, 0, 76, 75
1, 288256, Note_on_c, 0, 76, 0
1, 288256, Note_on_c, 0, 71, 75
1, 288768, Note_on_c, 0, 71, 0
1, 288768, Note_on_c, 0, 68, 0
1, 289280, Note_on_c, 0, 73, 75
1, 289280, Note_on_c, 0, 57, 75
1, 289536, Note_on_c, 0, 57, 0
1, 289536, Note_on_c, 0, 64, 75
1, 289792, Note_on_c, 0, 64, 0
1, 289792, Note_on_c, 0, 61, 75
1, 290048, Note_on_c, 0, 73, 0
1, 290048, Note_on_c, 0, 75, 75
1, 290048, Note_on_c, 0, 61, 0
1, 290048, Note_on_c, 0, 64, 75
1, 290304, Note_on_c, 0, 75, 0
1, 290304, Note_on_c, 0, 76, 75
1, 290304, Note_on_c, 0, 64, 0
1, 290304, Note_on_c, 0, 56, 75
1, 290560, Note_on_c, 0, 56, 0
1, 290560, Note_on_c, 0, 64, 75
1, 290816, Note_on_c, 0, 76, 0
1, 290816, Note_on_c, 0, 64, 0
1, 290816, Note_on_c, 0, 59, 75
1, 291072, Note_on_c, 0, 59, 0
1, 291072, Note_on_c, 0, 64, 75
1, 291328, Note_on_c, 0, 64, 0
1, 291328, Note_on_c, 0, 73, 49
1, 291328, Note_on_c, 0, 57, 49
1, 291584, Note_on_c, 0, 57, 0
1, 291584, Note_on_c, 0, 64, 49
1, 291840, Note_on_c, 0, 64, 0
1, 291840, Note_on_c, 0, 61, 49
1, 292096, Note_on_c, 0, 73, 0
1, 292096, Note_on_c, 0, 75, 49
1, 292096, Note_on_c, 0, 61, 0
1, 292096, Note_on_c, 0, 64, 49
1, 292352, Note_on_c, 0, 75, 0
1, 292352, Note_on_c, 0, 76, 49
1, 292352, Note_on_c, 0, 64, 0
1, 292352, Note_on_c, 0, 56, 49
1, 292608, Note_on_c, 0, 56, 0
1, 292608, Note_on_c, 0, 64, 49
1, 292864, Note_on_c, 0, 76, 0
1, 292864, Note_on_c, 0, 64, 0
1, 292864, Note_on_c, 0, 59, 49
1, 293120, Note_on_c, 0, 59, 0
1, 293120, Note_on_c, 0, 64, 49
1, 293376, Note_on_c, 0, 64, 0
1, 293376, Note_on_c, 0, 73, 101
1, 293376, Note_on_c, 0, 57, 101
1, 293632, Note_on_c, 0, 73, 0
1, 293632, Note_on_c, 0, 76, 101
1, 293888, Note_on_c, 0, 76, 0
1, 293888, Note_on_c, 0, 75, 101
1, 294144, Note_on_c, 0, 75, 0
1, 294144, Note_on_c, 0, 73, 101
1, 294400, Note_on_c, 0, 73, 0
1, 294400, Note_on_c, 0, 71, 101
1, 294400, Note_on_c, 0, 57, 0
1, 294656, Note_on_c, 0, 71, 0
1, 294656, Note_on_c, 0, 69, 101
1, 294912, Note_on_c, 0, 69, 0
1, 294912, Note_on_c, 0, 68, 101
1, 295168, Note_on_c, 0, 68, 0
1, 295168, Note_on_c, 0, 66, 101
1, 295424, Note_on_c, 0, 66, 0
1, 295424, Note_on_c, 0, 64, 101
1, 295424, Note_on_c, 0, 47, 101
1, 295424, Note_on_c, 0, 52, 101
1, 295680, Note_on_c, 0, 64, 0
1, 295680, Note_on_c, 0, 66, 101
1, 295808, Note_on_c, 0, 66, 0
1, 295808, Note_on_c, 0, 68, 101
1, 295936, Note_on_c, 0, 68, 0
1, 295936, Note_on_c, 0, 66, 101
1, 296064, Note_on_c, 0, 66, 0
1, 296064, Note_on_c, 0, 68, 101
1, 296192, Note_on_c, 0, 68, 0
1, 296192, Note_on_c, 0, 66, 101
1, 296320, Note_on_c, 0, 66, 0
1, 296320, Note_on_c, 0, 68, 101
1, 296448, Note_on_c, 0, 68, 0
1, 296448, Note_on_c, 0, 66, 101
1, 296448, Note_on_c, 0, 47, 0
1, 296448, Note_on_c, 0, 52, 0
1, 296448, Note_on_c, 0, 47, 101
1, 296448, Note_on_c, 0, 51, 101
1, 296576, Note_on_c, 0, 66, 0
1, 296576, Note_on_c, 0, 68, 101
1, 296704, Note_on_c, 0, 68, 0
1, 296704, Note_on_c, 0, 66, 101
1, 296832, Note_on_c, 0, 66, 0
1, 296832, Note_on_c, 0, 68, 101
1, 296960, Note_on_c, 0, 68, 0
1, 296960, Note_on_c, 0, 66, 101
1, 297088, Note_on_c, 0, 66, 0
1, 297088, Note_on_c, 0, 68, 101
1, 297216, Note_on_c, 0, 68, 0
1, 297216, Note_on_c, 0, 66, 101
1, 297344, Note_on_c, 0, 66, 0
1, 297344, Note_on_c, 0, 68, 101
1, 297472, Note_on_c, 0, 68, 0
1, 297472, Note_on_c, 0, 47, 0
1, 297472, Note_on_c, 0, 51, 0
1, 297472, Note_on_c, 0, 64, 101
1, 297472, Note_on_c, 0, 52, 101
1, 297984, Note_on_c, 0, 52, 0
1, 297984, Note_on_c, 0, 47, 101
1, 298496, Note_on_c, 0, 64, 0
1, 298496, Note_on_c, 0, 47, 0
1, 298496, Note_on_c, 0, 40, 101
1, 299008, Note_on_c, 0, 56, 101
1, 299008, Note_on_c, 0, 64, 101
1, 299520, Note_on_c, 0, 56, 0
1, 299520, Note_on_c, 0, 64, 0
1, 299520, Note_on_c, 0, 40, 0
1, 299520, Note_on_c, 0, 56, 101
1, 299520, Note_on_c, 0, 64, 101
1, 300032, Note_on_c, 0, 40, 101
1, 300032, Note_on_c, 0, 52, 101
1, 300544, Note_on_c, 0, 56, 0
1, 300544, Note_on_c, 0, 64, 0
1, 300544, Note_on_c, 0, 40, 0
1, 300544, Note_on_c, 0, 52, 0
1, 300544, Note_on_c, 0, 40, 107
1, 300544, Note_on_c, 0, 52, 107
1, 301056, Note_on_c, 0, 64, 113
1, 301056, Note_on_c, 0, 68, 113
1, 301568, Note_on_c, 0, 64, 0
1, 301568, Note_on_c, 0, 68, 0
1, 301568, Note_on_c, 0, 40, 0
1, 301568, Note_on_c, 0, 52, 0
1, 301568, Note_on_c, 0, 64, 119
1, 301568, Note_on_c, 0, 68, 119
1, 302080, Note_on_c, 0, 40, 127
1, 302080, Note_on_c, 0, 52, 127
1, 302592, Note_on_c, 0, 64, 0
1, 302592, Note_on_c, 0, 68, 0
1, 302592, Note_on_c, 0, 40, 0
1, 302592, Note_on_c, 0, 52, 0
1, 302592, Note_on_c, 0, 40, 127
1, 302592, Note_on_c, 0, 52, 127
1, 303104, Note_on_c, 0, 68, 127
1, 303104, Note_on_c, 0, 71, 127
1, 303616, Note_on_c, 0, 68, 0
1, 303616, Note_on_c, 0, 71, 0
1, 303616, Note_on_c, 0, 40, 0
1, 303616, Note_on_c, 0, 52, 0
1, 303616, Note_on_c, 0, 68, 127
1, 303616, Note_on_c, 0, 71, 127
1, 304128, Note_on_c, 0, 40, 127
1, 304128, Note_on_c, 0, 52, 127
1, 304640, Note_on_c, 0, 68, 0
1, 304640, Note_on_c, 0, 71, 0
1, 304640, Note_on_c, 0, 40, 0
1, 304640, Note_on_c, 0, 52, 0
1, 304640, Note_on_c, 0, 40, 127
1, 304640, Note_on_c, 0, 52, 127
1, 305152, Note_on_c, 0, 68, 127
1, 305152, Note_on_c, 0, 76, 127
1, 305664, Note_on_c, 0, 68, 0
1, 305664, Note_on_c, 0, 76, 0
1, 305664, Note_on_c, 0, 40, 0
1, 305664, Note_on_c, 0, 52, 0
1, 305664, Note_on_c, 0, 68, 127
1, 305664, Note_on_c, 0, 76, 127
1, 306688, Note_on_c, 0, 68, 0
1, 306688, Note_on_c, 0, 76, 0
1, 307200, Note_on_c, 0, 83, 101
1, 307610, Note_on_c, 0, 83, 0
1, 307712, Note_on_c, 0, 83, 101
1, 307712, Note_on_c, 0, 49, 101
1, 307968, Note_on_c, 0, 49, 0
1, 307968, Note_on_c, 0, 59, 101
1, 308224, Note_on_c, 0, 83, 0
1, 308224, Note_on_c, 0, 77, 101
1, 308224, Note_on_c, 0, 59, 0
1, 308224, Note_on_c, 0, 56, 101
1, 308480, Note_on_c, 0, 56, 0
1, 308480, Note_on_c, 0, 59, 101
1, 308736, Note_on_c, 0, 77, 0
1, 308736, Note_on_c, 0, 59, 0
1, 308736, Note_on_c, 0, 49, 101
1, 308992, Note_on_c, 0, 49, 0
1, 308992, Note_on_c, 0, 59, 101
1, 309248, Note_on_c, 0, 77, 101
1, 309248, Note_on_c, 0, 59, 0
1, 309248, Note_on_c, 0, 56, 101
1, 309504, Note_on_c, 0, 56, 0
1, 309504, Note_on_c, 0, 59, 101
1, 309658, Note_on_c, 0, 77, 0
1, 309760, Note_on_c, 0, 59, 0
1, 309760, Note_on_c, 0, 78, 101
1, 309760, Note_on_c, 0, 49, 101
1, 310016, Note_on_c, 0, 49, 0
1, 310016, Note_on_c, 0, 57, 101
1, 310272, Note_on_c, 0, 78, 0
1, 310272, Note_on_c, 0, 73, 101
1, 310272, Note_on_c, 0, 57, 0
1, 310272, Note_on_c, 0, 54, 101
1, 310528, Note_on_c, 0, 54, 0
1, 310528, Note_on_c, 0, 57, 101
1, 310784, Note_on_c, 0, 73, 0
1, 310784, Note_on_c, 0, 57, 0
1, 310784, Note_on_c, 0, 49, 101
1, 311040, Note_on_c, 0, 49, 0
1, 311040, Note_on_c, 0, 57, 101
1, 311296, Note_on_c, 0, 81, 101
1, 311296, Note_on_c, 0, 57, 0
1, 311296, Note_on_c, 0, 54, 101
1, 311552, Note_on_c, 0, 54, 0
1, 311552, Note_on_c, 0, 57, 101
1, 311706, Note_on_c, 0, 81, 0
1, 311808, Note_on_c, 0, 57, 0
1, 311808, Note_on_c, 0, 80, 101
1, 311808, Note_on_c, 0, 49, 101
1, 312064, Note_on_c, 0, 49, 0
1, 312064, Note_on_c, 0, 56, 101
1, 312320, Note_on_c, 0, 80, 0
1, 312320, Note_on_c, 0, 71, 101
1, 312320, Note_on_c, 0, 56, 0
1, 312320, Note_on_c, 0, 53, 101
1, 312576, Note_on_c, 0, 53, 0
1, 312576, Note_on_c, 0, 56, 101
1, 312832, Note_on_c, 0, 71, 0
1, 312832, Note_on_c, 0, 56, 0
1, 312832, Note_on_c, 0, 49, 101
1, 313088, Note_on_c, 0, 49, 0
1, 313088, Note_on_c, 0, 56, 101
1, 313344, Note_on_c, 0, 71, 101
1, 313344, Note_on_c, 0, 56, 0
1, 313344, Note_on_c, 0, 53, 101
1, 313600, Note_on_c, 0, 53, 0
1, 313600, Note_on_c, 0, 56, 101
1, 313754, Note_on_c, 0, 71, 0
1, 313856, Note_on_c, 0, 56, 0
1, 313856, Note_on_c, 0, 69, 101
1, 313856, Note_on_c, 0, 49, 101
1, 314112, Note_on_c, 0, 49, 0
1, 314112, Note_on_c, 0, 57, 101
1, 314368, Note_on_c, 0, 69, 0
1, 314368, Note_on_c, 0, 66, 101
1, 314368, Note_on_c, 0, 57, 0
1, 314368, Note_on_c, 0, 54, 101
1, 314624, Note_on_c, 0, 54, 0
1, 314624, Note_on_c, 0, 57, 101
1, 314880, Note_on_c, 0, 66, 0
1, 314880, Note_on_c, 0, 57, 0
1, 314880, Note_on_c, 0, 49, 101
1, 315136, Note_on_c, 0, 49, 0
1, 315136, Note_on_c, 0, 57, 75
1, 315392, Note_on_c, 0, 81, 75
1, 315392, Note_on_c, 0, 57, 0
1, 315392, Note_on_c, 0, 54, 75
1, 315648, Note_on_c, 0, 54, 0
1, 315648, Note_on_c, 0, 57, 75
1, 315802, Note_on_c, 0, 81, 0
1, 315904, Note_on_c, 0, 57, 0
1, 315904, Note_on_c, 0, 81, 75
1, 315904, Note_on_c, 0, 47, 75
1, 316160, Note_on_c, 0, 47, 0
1, 316160, Note_on_c, 0, 57, 75
1, 316416, Note_on_c, 0, 81, 0
1, 316416, Note_on_c, 0, 75, 75
1, 316416, Note_on_c, 0, 57, 0
1, 316416, Note_on_c, 0, 54, 75
1, 316672, Note_on_c, 0, 54, 0
1, 316672, Note_on_c, 0, 57, 75
1, 316928, Note_on_c, 0, 75, 0
1, 316928, Note_on_c, 0, 57, 0
1, 316928, Note_on_c, 0, 47, 75
1, 317184, Note_on_c, 0, 47, 0
1, 317184, Note_on_c, 0, 57, 75
1, 317440, Note_on_c, 0, 75, 75
1, 317440, Note_on_c, 0, 57, 0
1, 317440, Note_on_c, 0, 54, 75
1, 317696, Note_on_c, 0, 54, 0
1, 317696, Note_on_c, 0, 57, 75
1, 317850, Note_on_c, 0, 75, 0
1, 317952, Note_on_c, 0, 57, 0
1, 317952, Note_on_c, 0, 76, 75
1, 317952, Note_on_c, 0, 47, 75
1, 318208, Note_on_c, 0, 47, 0
1, 318208, Note_on_c, 0, 56, 75
1, 318464, Note_on_c, 0, 76, 0
1, 318464, Note_on_c, 0, 71, 75
1, 318464, Note_on_c, 0, 56, 0
1, 318464, Note_on_c, 0, 52, 75
1, 318720, Note_on_c, 0, 52, 0
1, 318720, Note_on_c, 0, 56, 75
1, 318976, Note_on_c, 0, 71, 0
1, 318976, Note_on_c, 0, 56, 0
1, 318976, Note_on_c, 0, 47, 75
1, 319232, Note_on_c, 0, 47, 0
1, 319232, Note_on_c, 0, 56, 75
1, 319488, Note_on_c, 0, 80, 75
1, 319488, Note_on_c, 0, 56, 0
1, 319488, Note_on_c, 0, 52, 75
1, 319744, Note_on_c, 0, 52, 0
1, 319744, Note_on_c, 0, 56, 75
1, 319898, Note_on_c, 0, 80, 0
1, 320000, Note_on_c, 0, 56, 0
1, 320000, Note_on_c, 0, 78, 75
1, 320000, Note_on_c, 0, 47, 75
1, 320256, Note_on_c, 0, 47, 0
1, 320256, Note_on_c, 0, 54, 75
1, 320512, Note_on_c, 0, 78, 0
1, 320512, Note_on_c, 0, 69, 75
1, 320512, Note_on_c, 0, 54, 0
1, 320512, Note_on_c, 0, 51, 75
1, 320768, Note_on_c, 0, 51, 0
1, 320768, Note_on_c, 0, 54, 75
1, 321024, Note_on_c, 0, 69, 0
1, 321024, Note_on_c, 0, 54, 0
1, 321024, Note_on_c, 0, 47, 75
1, 321280, Note_on_c, 0, 47, 0
1, 321280, Note_on_c, 0, 54, 75
1, 321536, Note_on_c, 0, 69, 75
1, 321536, Note_on_c, 0, 54, 0
1, 321536, Note_on_c, 0, 51, 75
1, 321792, Note_on_c, 0, 51, 0
1, 321792, Note_on_c, 0, 54, 75
1, 321946, Note_on_c, 0, 69, 0
1, 322048, Note_on_c, 0, 54, 0
1, 322048, Note_on_c, 0, 68, 75
1, 322048, Note_on_c, 0, 47, 75
1, 322304, Note_on_c, 0, 47, 0
1, 322304, Note_on_c, 0, 56, 75
1, 322560, Note_on_c, 0, 68, 0
1, 322560, Note_on_c, 0, 64, 75
1, 322560, Note_on_c, 0, 56, 0
1, 322560, Note_on_c, 0, 52, 75
1, 322816, Note_on_c, 0, 52, 0
1, 322816, Note_on_c, 0, 56, 75
1, 323072, Note_on_c, 0, 64, 0
1, 323072, Note_on_c, 0, 56, 0
1, 323072, Note_on_c, 0, 47, 75
1, 323328, Note_on_c, 0, 47, 0
1, 323328, Note_on_c, 0, 56, 101
1, 323584, Note_on_c, 0, 83, 101
1, 323584, Note_on_c, 0, 56, 0
1, 323584, Note_on_c, 0, 52, 101
1, 323840, Note_on_c, 0, 52, 0
1, 323840, Note_on_c, 0, 56, 101
1, 323994, Note_on_c, 0, 83, 0
1, 324096, Note_on_c, 0, 56, 0
1, 324096, Note_on_c, 0, 83, 101
1, 324096, Note_on_c, 0, 44, 101
1, 324352, Note_on_c, 0, 44, 0
1, 324352, Note_on_c, 0, 52, 101
1, 324608, Note_on_c, 0, 83, 0
1, 324608, Note_on_c, 0, 74, 101
1, 324608, Note_on_c, 0, 52, 0
1, 324608, Note_on_c, 0, 47, 101
1, 324864, Note_on_c, 0, 47, 0
1, 324864, Note_on_c, 0, 52, 101
1, 325120, Note_on_c, 0, 74, 0
1, 325120, Note_on_c, 0, 52, 0
1, 325120, Note_on_c, 0, 44, 101
1, 325376, Note_on_c, 0, 44, 0
1, 325376, Note_on_c, 0, 52, 101
1, 325632, Note_on_c, 0, 74, 101
1, 325632, Note_on_c, 0, 52, 0
1, 325632, Note_on_c, 0, 47, 101
1, 325888, Note_on_c, 0, 47, 0
1, 325888, Note_on_c, 0, 52, 101
1, 326042, Note_on_c, 0, 74, 0
1, 326144, Note_on_c, 0, 52, 0
1, 326144, Note_on_c, 0, 72, 101
1, 326144, Note_on_c, 0, 45, 101
1, 326400, Note_on_c, 0, 45, 0
1, 326400, Note_on_c, 0, 52, 101
1, 326656, Note_on_c, 0, 72, 0
1, 326656, Note_on_c, 0, 73, 101
1, 326656, Note_on_c, 0, 52, 0
1, 326656, Note_on_c, 0, 49, 101
1, 326912, Note_on_c, 0, 49, 0
1, 326912, Note_on_c, 0, 52, 101
1, 327168, Note_on_c, 0, 73, 0
1, 327168, Note_on_c, 0, 52, 0
1, 327168, Note_on_c, 0, 45, 101
1, 327424, Note_on_c, 0, 45, 0
1, 327424, Note_on_c, 0, 52, 101
1, 327680, Note_on_c, 0, 85, 101
1, 327680, Note_on_c, 0, 52, 0
1, 327680, Note_on_c, 0, 49, 101
1, 327936, Note_on_c, 0, 49, 0
1, 327936, Note_on_c, 0, 52, 101
1, 328090, Note_on_c, 0, 85, 0
1, 328192, Note_on_c, 0, 52, 0
1, 328192, Note_on_c, 0, 85, 101
1, 328192, Note_on_c, 0, 46, 101
1, 328448, Note_on_c, 0, 46, 0
1, 328448, Note_on_c, 0, 54, 101
1, 328704, Note_on_c, 0, 85, 0
1, 328704, Note_on_c, 0, 76, 101
1, 328704, Note_on_c, 0, 54, 0
1, 328704, Note_on_c, 0, 49, 101
1, 328960, Note_on_c, 0, 49, 0
1, 328960, Note_on_c, 0, 54, 101
1, 329216, Note_on_c, 0, 76, 0
1, 329216, Note_on_c, 0, 54, 0
1, 329216, Note_on_c, 0, 46, 101
1, 329472, Note_on_c, 0, 46, 0
1, 329472, Note_on_c, 0, 54, 101
1, 329728, Note_on_c, 0, 76, 101
1, 329728, Note_on_c, 0, 54, 0
1, 329728, Note_on_c, 0, 49, 101
1, 329984, Note_on_c, 0, 49, 0
1, 329984, Note_on_c, 0, 54, 101
1, 330240, Note_on_c, 0, 76, 0
1, 330240, Note_on_c, 0, 54, 0
1, 330240, Note_on_c, 0, 75, 101
1, 330240, Note_on_c, 0, 47, 101
1, 330496, Note_on_c, 0, 75, 0
1, 330496, Note_on_c, 0, 71, 101
1, 330752, Note_on_c, 0, 71, 0
1, 330752, Note_on_c, 0, 78, 101
1, 331008, Note_on_c, 0, 78, 0
1, 331008, Note_on_c, 0, 75, 101
1, 331264, Note_on_c, 0, 75, 0
1, 331264, Note_on_c, 0, 83, 101
1, 331264, Note_on_c, 0, 47, 0
1, 331520, Note_on_c, 0, 83, 0
1, 331520, Note_on_c, 0, 78, 101
1, 331776, Note_on_c, 0, 78, 0
1, 331776, Note_on_c, 0, 75, 101
1, 332032, Note_on_c, 0, 75, 0
1, 332032, Note_on_c, 0, 71, 101
1, 332288, Note_on_c, 0, 71, 0
1, 332288, Note_on_c, 0, 81, 101
1, 332288, Note_on_c, 0, 51, 101
1, 332288, Note_on_c, 0, 63, 101
1, 332544, Note_on_c, 0, 81, 0
1, 332544, Note_on_c, 0, 78, 101
1, 332800, Note_on_c, 0, 78, 0
1, 332800, Note_on_c, 0, 75, 101
1, 333056, Note_on_c, 0, 75, 0
1, 333056, Note_on_c, 0, 71, 101
1, 333312, Note_on_c, 0, 71, 0
1, 333312, Note_on_c, 0, 80, 101
1, 333312, Note_on_c, 0, 51, 0
1, 333312, Note_on_c, 0, 63, 0
1, 333312, Note_on_c, 0, 52, 101
1, 333312, Note_on_c, 0, 64, 101
1, 333568, Note_on_c, 0, 80, 0
1, 333568, Note_on_c, 0, 76, 101
1, 333824, Note_on_c, 0, 76, 0
1, 333824, Note_on_c, 0, 75, 101
1, 334080, Note_on_c, 0, 75, 0
1, 334080, Note_on_c, 0, 76, 101
1, 334336, Note_on_c, 0, 76, 0
1, 334336, Note_on_c, 0, 52, 0
1, 334336, Note_on_c, 0, 64, 0
1, 334336, Note_on_c, 0, 75, 101
1, 334336, Note_on_c, 0, 47, 101
1, 334336, Note_on_c, 0, 59, 101
1, 334592, Note_on_c, 0, 75, 0
1, 334592, Note_on_c, 0, 71, 101
1, 334848, Note_on_c, 0, 71, 0
1, 334848, Note_on_c, 0, 78, 101
1, 335104, Note_on_c, 0, 78, 0
1, 335104, Note_on_c, 0, 75, 101
1, 335360, Note_on_c, 0, 75, 0
1, 335360, Note_on_c, 0, 83, 107
1, 335360, Note_on_c, 0, 47, 0
1, 335360, Note_on_c, 0, 59, 0
1, 335616, Note_on_c, 0, 83, 0
1, 335616, Note_on_c, 0, 78, 107
1, 335872, Note_on_c, 0, 78, 0
1, 335872, Note_on_c, 0, 75, 113
1, 336128, Note_on_c, 0, 75, 0
1, 336128, Note_on_c, 0, 71, 113
1, 336384, Note_on_c, 0, 71, 0
1, 336384, Note_on_c, 0, 81, 119
1, 336384, Note_on_c, 0, 51, 119
1, 336384, Note_on_c, 0, 63, 119
1, 336640, Note_on_c, 0, 81, 0
1, 336640, Note_on_c, 0, 78, 119
1, 336896, Note_on_c, 0, 78, 0
1, 336896, Note_on_c, 0, 75, 127
1, 337152, Note_on_c, 0, 75, 0
1, 337152, Note_on_c, 0, 71, 127
1, 337408, Note_on_c, 0, 71, 0
1, 337408, Note_on_c, 0, 80, 127
1, 337408, Note_on_c, 0, 51, 0
1, 337408, Note_on_c, 0, 63, 0
1, 337408, Note_on_c, 0, 52, 127
1, 337408, Note_on_c, 0, 64, 127
1, 337664, Note_on_c, 0, 80, 0
1, 337664, Note_on_c, 0, 76, 127
1, 337920, Note_on_c, 0, 76, 0
1, 337920, Note_on_c, 0, 75, 127
1, 338176, Note_on_c, 0, 75, 0
1, 338176, Note_on_c, 0, 76, 127
1, 338432, Note_on_c, 0, 76, 0
1, 338432, Note_on_c, 0, 52, 0
1, 338432, Note_on_c, 0, 64, 0
1, 338432, Note_on_c, 0, 75, 127
1, 338432, Note_on_c, 0, 47, 127
1, 338432, Note_on_c, 0, 59, 127
1, 338944, Note_on_c, 0, 75, 0
1, 338944, Note_on_c, 0, 83, 127
1, 339456, Note_on_c, 0, 83, 0
1, 339456, Note_on_c, 0, 47, 0
1, 339456, Note_on_c, 0, 59, 0
1, 339968, Note_on_c, 0, 56, 101
1, 339968, Note_on_c, 0, 64, 101
1, 340480, Note_on_c, 0, 56, 0
1, 340480, Note_on_c, 0, 64, 0
1, 340480, Note_on_c, 0, 56, 101
1, 340480, Note_on_c, 0, 64, 101
1, 340992, Note_on_c, 0, 40, 101
1, 340992, Note_on_c, 0, 52, 101
1, 341504, Note_on_c, 0, 56, 0
1, 341504, Note_on_c, 0, 64, 0
1, 341504, Note_on_c, 0, 40, 0
1, 341504, Note_on_c, 0, 52, 0
1, 341504, Note_on_c, 0, 40, 101
1, 341504, Note_on_c, 0, 52, 101
1, 342016, Note_on_c, 0, 64, 101
1, 342016, Note_on_c, 0, 68, 101
1, 342528, Note_on_c, 0, 64, 0
1, 342528, Note_on_c, 0, 68, 0
1, 342528, Note_on_c, 0, 40, 0
1, 342528, Note_on_c, 0, 52, 0
1, 342528, Note_on_c, 0, 64, 101
1, 342528, Note_on_c, 0, 68, 101
1, 343040, Note_on_c, 0, 40, 101
1, 343040, Note_on_c, 0, 52, 101
1, 343552, Note_on_c, 0, 64, 0
1, 343552, Note_on_c, 0, 68, 0
1, 343552, Note_on_c, 0, 40, 0
1, 343552, Note_on_c, 0, 52, 0
1, 343552, Note_on_c, 0, 40, 101
1, 343552, Note_on_c, 0, 52, 101
1, 344064, Note_on_c, 0, 68, 101
1, 344064, Note_on_c, 0, 71, 101
1, 344576, Note_on_c, 0, 68, 0
1, 344576, Note_on_c, 0, 71, 0
1, 344576, Note_on_c, 0, 40, 0
1, 344576, Note_on_c, 0, 52, 0
1, 344576, Note_on_c, 0, 68, 101
1, 344576, Note_on_c, 0, 71, 101
1, 345088, Note_on_c, 0, 40, 101
1, 345088, Note_on_c, 0, 52, 101
1, 345600, Note_on_c, 0, 68, 0
1, 345600, Note_on_c, 0, 71, 0
1, 345600, Note_on_c, 0, 40, 0
1, 345600, Note_on_c, 0, 52, 0
1, 345600, Note_on_c, 0, 40, 101
1, 345600, Note_on_c, 0, 52, 101
1, 346112, Note_on_c, 0, 68, 101
1, 346112, Note_on_c, 0, 76, 101
1, 346624, Note_on_c, 0, 68, 0
1, 346624, Note_on_c, 0, 76, 0
1, 346624, Note_on_c, 0, 40, 0
1, 346624, Note_on_c, 0, 52, 0
1, 346624, Note_on_c, 0, 68, 101
1, 346624, Note_on_c, 0, 76, 101
1, 347136, Note_on_c, 0, 40, 101
1, 347136, Note_on_c, 0, 52, 101
1, 347648, Note_on_c, 0, 68, 0
1, 347648, Note_on_c, 0, 76, 0
1, 347648, Note_on_c, 0, 40, 0
1, 347648, Note_on_c, 0, 52, 0
1, 347648, Note_on_c, 0, 40, 101
1, 347648, Note_on_c, 0, 52, 101
1, 348160, Note_on_c, 0, 68, 101
1, 348160, Note_on_c, 0, 71, 101
1, 348672, Note_on_c, 0, 68, 0
1, 348672, Note_on_c, 0, 71, 0
1, 348672, Note_on_c, 0, 40, 0
1, 348672, Note_on_c, 0, 52, 0
1, 348672, Note_on_c, 0, 66, 101
1, 348672, Note_on_c, 0, 69, 101
1, 348672, Note_on_c, 0, 35, 101
1, 348672, Note_on_c, 0, 47, 101
1, 349184, Note_on_c, 0, 66, 0
1, 349184, Note_on_c, 0, 69, 0
1, 349184, Note_on_c, 0, 64, 101
1, 349184, Note_on_c, 0, 68, 101
1, 349696, Note_on_c, 0, 64, 0
1, 349696, Note_on_c, 0, 68, 0
1, 349696, Note_on_c, 0, 66, 101
1, 349696, Note_on_c, 0, 69, 101
1, 349696, Note_on_c, 0, 35, 0
1, 349696, Note_on_c, 0, 47, 0
1, 349696, Note_on_c, 0, 35, 101
1, 349696, Note_on_c, 0, 47, 101
1, 350208, Note_on_c, 0, 66, 0
1, 350208, Note_on_c, 0, 69, 0
1, 350208, Note_on_c, 0, 63, 101
1, 350208, Note_on_c, 0, 66, 101
1, 350720, Note_on_c, 0, 63, 0
1, 350720, Note_on_c, 0, 66, 0
1, 350720, Note_on_c, 0, 35, 0
1, 350720, Note_on_c, 0, 47, 0
1, 350720, Note_on_c, 0, 64, 101
1, 350720, Note_on_c, 0, 68, 101
1, 350720, Note_on_c, 0, 40, 101
1, 350720, Note_on_c, 0, 52, 101
1, 351232, Note_on_c, 0, 64, 0
1, 351232, Note_on_c, 0, 68, 0
1, 351232, Note_on_c, 0, 68, 101
1, 351232, Note_on_c, 0, 71, 101
1, 351744, Note_on_c, 0, 68, 0
1, 351744, Note_on_c, 0, 71, 0
1, 351744, Note_on_c, 0, 40, 0
1, 351744, Note_on_c, 0, 52, 0
1, 351744, Note_on_c, 0, 40, 101
1, 351744, Note_on_c, 0, 52, 101
1, 352256, Note_on_c, 0, 68, 101
1, 352256, Note_on_c, 0, 71, 101
1, 352768, Note_on_c, 0, 68, 0
1, 352768, Note_on_c, 0, 71, 0
1, 352768, Note_on_c, 0, 40, 0
1, 352768, Note_on_c, 0, 52, 0
1, 352768, Note_on_c, 0, 66, 101
1, 352768, Note_on_c, 0, 69, 101
1, 352768, Note_on_c, 0, 35, 101
1, 352768, Note_on_c, 0, 47, 101
1, 353280, Note_on_c, 0, 66, 0
1, 353280, Note_on_c, 0, 69, 0
1, 353280, Note_on_c, 0, 64, 101
1, 353280, Note_on_c, 0, 68, 101
1, 353792, Note_on_c, 0, 64, 0
1, 353792, Note_on_c, 0, 68, 0
1, 353792, Note_on_c, 0, 66, 101
1, 353792, Note_on_c, 0, 69, 101
1, 353792, Note_on_c, 0, 35, 0
1, 353792, Note_on_c, 0, 47, 0
1, 353792, Note_on_c, 0, 35, 101
1, 353792, Note_on_c, 0, 47, 101
1, 354304, Note_on_c, 0, 66, 0
1, 354304, Note_on_c, 0, 69, 0
1, 354304, Note_on_c, 0, 63, 101
1, 354304, Note_on_c, 0, 66, 101
1, 354816, Note_on_c, 0, 63, 0
1, 354816, Note_on_c, 0, 66, 0
1, 354816, Note_on_c, 0, 35, 0
1, 354816, Note_on_c, 0, 47, 0
1, 354816, Note_on_c, 0, 64, 101
1, 354816, Note_on_c, 0, 40, 101
1, 354816, Note_on_c, 0, 52, 101
1, 355328, Note_on_c, 0, 64, 0
1, 355328, Note_on_c, 0, 59, 101
1, 355840, Note_on_c, 0, 59, 0
1, 355840, Note_on_c, 0, 40, 0
1, 355840, Note_on_c, 0, 52, 0
1, 356352, Note_on_c, 0, 55, 62
1, 356352, Note_on_c, 0, 64, 62
1, 356864, Note_on_c, 0, 55, 0
1, 356864, Note_on_c, 0, 64, 0
1, 356864, Note_on_c, 0, 55, 62
1, 356864, Note_on_c, 0, 64, 62
1, 357376, Note_on_c, 0, 40, 62
1, 357376, Note_on_c, 0, 52, 62
1, 357888, Note_on_c, 0, 55, 0
1, 357888, Note_on_c, 0, 64, 0
1, 357888, Note_on_c, 0, 40, 0
1, 357888, Note_on_c, 0, 52, 0
1, 357888, Note_on_c, 0, 40, 62
1, 357888, Note_on_c, 0, 52, 62
1, 358400, Note_on_c, 0, 64, 62
1, 358400, Note_on_c, 0, 67, 62
1, 358912, Note_on_c, 0, 64, 0
1, 358912, Note_on_c, 0, 67, 0
1, 358912, Note_on_c, 0, 40, 0
1, 358912, Note_on_c, 0, 52, 0
1, 358912, Note_on_c, 0, 63, 62
1, 358912, Note_on_c, 0, 66, 62
1, 359424, Note_on_c, 0, 35, 62
1, 359424, Note_on_c, 0, 47, 62
1, 359936, Note_on_c, 0, 63, 0
1, 359936, Note_on_c, 0, 66, 0
1, 359936, Note_on_c, 0, 35, 0
1, 359936, Note_on_c, 0, 47, 0
1, 359936, Note_on_c, 0, 35, 62
1, 359936, Note_on_c, 0, 47, 62
1, 360448, Note_on_c, 0, 63, 62
1, 360448, Note_on_c, 0, 66, 62
1, 360960, Note_on_c, 0, 63, 0
1, 360960, Note_on_c, 0, 66, 0
1, 360960, Note_on_c, 0, 35, 0
1, 360960, Note_on_c, 0, 47, 0
1, 360960, Note_on_c, 0, 63, 62
1, 360960, Note_on_c, 0, 66, 62
1, 361472, Note_on_c, 0, 35, 62
1, 361472, Note_on_c, 0, 47, 62
1, 361984, Note_on_c, 0, 63, 0
1, 361984, Note_on_c, 0, 66, 0
1, 361984, Note_on_c, 0, 35, 0
1, 361984, Note_on_c, 0, 47, 0
1, 361984, Note_on_c, 0, 35, 62
1, 361984, Note_on_c, 0, 47, 62
1, 362496, Note_on_c, 0, 66, 62
1, 362496, Note_on_c, 0, 69, 62
1, 363008, Note_on_c, 0, 66, 0
1, 363008, Note_on_c, 0, 69, 0
1, 363008, Note_on_c, 0, 35, 0
1, 363008, Note_on_c, 0, 47, 0
1, 363008, Note_on_c, 0, 64, 62
1, 363008, Note_on_c, 0, 67, 62
1, 363520, Note_on_c, 0, 40, 62
1, 363520, Note_on_c, 0, 52, 62
1, 364032, Note_on_c, 0, 64, 0
1, 364032, Note_on_c, 0, 67, 0
1, 364032, Note_on_c, 0, 40, 0
1, 364032, Note_on_c, 0, 52, 0
1, 364032, Note_on_c, 0, 40, 62
1, 364032, Note_on_c, 0, 52, 62
1, 364544, Note_on_c, 0, 67, 62
1, 364544, Note_on_c, 0, 71, 62
1, 365056, Note_on_c, 0, 67, 0
1, 365056, Note_on_c, 0, 71, 0
1, 365056, Note_on_c, 0, 40, 0
1, 365056, Note_on_c, 0, 52, 0
1, 365056, Note_on_c, 0, 69, 62
1, 365056, Note_on_c, 0, 72, 62
1, 365568, Note_on_c, 0, 40, 62
1, 365568, Note_on_c, 0, 52, 62
1, 366080, Note_on_c, 0, 69, 0
1, 366080, Note_on_c, 0, 72, 0
1, 366080, Note_on_c, 0, 40, 0
1, 366080, Note_on_c, 0, 52, 0
1, 366080, Note_on_c, 0, 40, 68
1, 366080, Note_on_c, 0, 52, 68
1, 366592, Note_on_c, 0, 66, 74
1, 366592, Note_on_c, 0, 75, 74
1, 367104, Note_on_c, 0, 66, 0
1, 367104, Note_on_c, 0, 75, 0
1, 367104, Note_on_c, 0, 40, 0
1, 367104, Note_on_c, 0, 52, 0
1, 367104, Note_on_c, 0, 67, 80
1, 367104, Note_on_c, 0, 76, 80
1, 367616, Note_on_c, 0, 40, 88
1, 367616, Note_on_c, 0, 52, 88
1, 368128, Note_on_c, 0, 67, 0
1, 368128, Note_on_c, 0, 76, 0
1, 368128, Note_on_c, 0, 40, 0
1, 368128, Note_on_c, 0, 52, 0
1, 368128, Note_on_c, 0, 40, 94
1, 368128, Note_on_c, 0, 52, 94
1, 368640, Note_on_c, 0, 67, 100
1, 368640, Note_on_c, 0, 71, 100
1, 369152, Note_on_c, 0, 67, 0
1, 369152, Note_on_c, 0, 71, 0
1, 369152, Note_on_c, 0, 40, 0
1, 369152, Note_on_c, 0, 52, 0
1, 369152, Note_on_c, 0, 35, 106
1, 369152, Note_on_c, 0, 47, 106
1, 369664, Note_on_c, 0, 66, 106
1, 369664, Note_on_c, 0, 69, 106
1, 369664, Note_on_c, 0, 35, 0
1, 369664, Note_on_c, 0, 47, 0
1, 370176, Note_on_c, 0, 66, 0
1, 370176, Note_on_c, 0, 69, 0
1, 370176, Note_on_c, 0, 35, 106
1, 370176, Note_on_c, 0, 47, 106
1, 370688, Note_on_c, 0, 64, 106
1, 370688, Note_on_c, 0, 67, 106
1, 370688, Note_on_c, 0, 35, 0
1, 370688, Note_on_c, 0, 47, 0
1, 371200, Note_on_c, 0, 64, 0
1, 371200, Note_on_c, 0, 67, 0
1, 371200, Note_on_c, 0, 35, 106
1, 371200, Note_on_c, 0, 47, 106
1, 371712, Note_on_c, 0, 63, 106
1, 371712, Note_on_c, 0, 66, 106
1, 372224, Note_on_c, 0, 63, 0
1, 372224, Note_on_c, 0, 66, 0
1, 372224, Note_on_c, 0, 59, 106
1, 372224, Note_on_c, 0, 35, 0
1, 372224, Note_on_c, 0, 47, 0
1, 372736, Note_on_c, 0, 59, 0
1, 372736, Note_on_c, 0, 67, 106
1, 372736, Note_on_c, 0, 71, 106
1, 373248, Note_on_c, 0, 67, 0
1, 373248, Note_on_c, 0, 71, 0
1, 373248, Note_on_c, 0, 35, 106
1, 373248, Note_on_c, 0, 47, 106
1, 373760, Note_on_c, 0, 66, 106
1, 373760, Note_on_c, 0, 69, 106
1, 373760, Note_on_c, 0, 35, 0
1, 373760, Note_on_c, 0, 47, 0
1, 374272, Note_on_c, 0, 66, 0
1, 374272, Note_on_c, 0, 69, 0
1, 374272, Note_on_c, 0, 35, 106
1, 374272, Note_on_c, 0, 47, 106
1, 374784, Note_on_c, 0, 64, 106
1, 374784, Note_on_c, 0, 67, 106
1, 374784, Note_on_c, 0, 35, 0
1, 374784, Note_on_c, 0, 47, 0
1, 375296, Note_on_c, 0, 64, 0
1, 375296, Note_on_c, 0, 67, 0
1, 375296, Note_on_c, 0, 35, 106
1, 375296, Note_on_c, 0, 47, 106
1, 375808, Note_on_c, 0, 63, 106
1, 375808, Note_on_c, 0, 66, 106
1, 376320, Note_on_c, 0, 63, 0
1, 376320, Note_on_c, 0, 66, 0
1, 376320, Note_on_c, 0, 59, 106
1, 376320, Note_on_c, 0, 35, 0
1, 376320, Note_on_c, 0, 47, 0
1, 376832, Note_on_c, 0, 59, 0
1, 376832, Note_on_c, 0, 67, 106
1, 376832, Note_on_c, 0, 71, 106
1, 377344, Note_on_c, 0, 67, 0
1, 377344, Note_on_c, 0, 71, 0
1, 377344, Note_on_c, 0, 35, 106
1, 377344, Note_on_c, 0, 47, 106
1, 377856, Note_on_c, 0, 66, 106
1, 377856, Note_on_c, 0, 69, 106
1, 377856, Note_on_c, 0, 35, 0
1, 377856, Note_on_c, 0, 47, 0
1, 378368, Note_on_c, 0, 66, 0
1, 378368, Note_on_c, 0, 69, 0
1, 378368, Note_on_c, 0, 35, 106
1, 378368, Note_on_c, 0, 47, 106
1, 378880, Note_on_c, 0, 64, 106
1, 378880, Note_on_c, 0, 67, 106
1, 378880, Note_on_c, 0, 35, 0
1, 378880, Note_on_c, 0, 47, 0
1, 379392, Note_on_c, 0, 64, 0
1, 379392, Note_on_c, 0, 67, 0
1, 379392, Note_on_c, 0, 63, 106
1, 379392, Note_on_c, 0, 66, 106
1, 379392, Note_on_c, 0, 35, 106
1, 379392, Note_on_c, 0, 47, 106
1, 380416, Note_on_c, 0, 63, 0
1, 380416, Note_on_c, 0, 66, 0
1, 380416, Note_on_c, 0, 35, 0
1, 380416, Note_on_c, 0, 47, 0
1, 381440, Note_on_c, 0, 68, 101
1, 381440, Note_on_c, 0, 44, 101
1, 381440, Note_on_c, 0, 56, 101
1, 381696, Note_on_c, 0, 68, 0
1, 381696, Note_on_c, 0, 64, 101
1, 381952, Note_on_c, 0, 64, 0
1, 381952, Note_on_c, 0, 71, 101
1, 382208, Note_on_c, 0, 71, 0
1, 382208, Note_on_c, 0, 68, 101
1, 382464, Note_on_c, 0, 68, 0
1, 382464, Note_on_c, 0, 76, 101
1, 382464, Note_on_c, 0, 44, 0
1, 382464, Note_on_c, 0, 56, 0
1, 382720, Note_on_c, 0, 76, 0
1, 382720, Note_on_c, 0, 71, 101
1, 382976, Note_on_c, 0, 71, 0
1, 382976, Note_on_c, 0, 68, 101
1, 382976, Note_on_c, 0, 44, 101
1, 382976, Note_on_c, 0, 56, 101
1, 383232, Note_on_c, 0, 68, 0
1, 383232, Note_on_c, 0, 64, 101
1, 383488, Note_on_c, 0, 64, 0
1, 383488, Note_on_c, 0, 44, 0
1, 383488, Note_on_c, 0, 56, 0
1, 383488, Note_on_c, 0, 68, 101
1, 383488, Note_on_c, 0, 45, 101
1, 383488, Note_on_c, 0, 57, 101
1, 383744, Note_on_c, 0, 68, 0
1, 383744, Note_on_c, 0, 64, 101
1, 384000, Note_on_c, 0, 64, 0
1, 384000, Note_on_c, 0, 71, 101
1, 384256, Note_on_c, 0, 71, 0
1, 384256, Note_on_c, 0, 68, 101
1, 384512, Note_on_c, 0, 68, 0
1, 384512, Note_on_c, 0, 76, 101
1, 384512, Note_on_c, 0, 45, 0
1, 384512, Note_on_c, 0, 57, 0
1, 384768, Note_on_c, 0, 76, 0
1, 384768, Note_on_c, 0, 71, 101
1, 385024, Note_on_c, 0, 71, 0
1, 385024, Note_on_c, 0, 68, 101
1, 385024, Note_on_c, 0, 45, 101
1, 385024, Note_on_c, 0, 57, 101
1, 385280, Note_on_c, 0, 68, 0
1, 385280, Note_on_c, 0, 64, 101
1, 385536, Note_on_c, 0, 64, 0
1, 385536, Note_on_c, 0, 45, 0
1, 385536, Note_on_c, 0, 57, 0
1, 385536, Note_on_c, 0, 68, 101
1, 385536, Note_on_c, 0, 47, 101
1, 385536, Note_on_c, 0, 59, 101
1, 385792, Note_on_c, 0, 68, 0
1, 385792, Note_on_c, 0, 64, 101
1, 386048, Note_on_c, 0, 64, 0
1, 386048, Note_on_c, 0, 71, 101
1, 386304, Note_on_c, 0, 71, 0
1, 386304, Note_on_c, 0, 68, 101
1, 386560, Note_on_c, 0, 68, 0
1, 386560, Note_on_c, 0, 76, 101
1, 386560, Note_on_c, 0, 47, 0
1, 386560, Note_on_c, 0, 59, 0
1, 386816, Note_on_c, 0, 76, 0
1, 386816, Note_on_c, 0, 71, 101
1, 387072, Note_on_c, 0, 71, 0
1, 387072, Note_on_c, 0, 68, 101
1, 387072, Note_on_c, 0, 47, 101
1, 387072, Note_on_c, 0, 59, 101
1, 387328, Note_on_c, 0, 68, 0
1, 387328, Note_on_c, 0, 64, 101
1, 387584, Note_on_c, 0, 64, 0
1, 387584, Note_on_c, 0, 47, 0
1, 387584, Note_on_c, 0, 59, 0
1, 387584, Note_on_c, 0, 69, 101
1, 387584, Note_on_c, 0, 49, 101
1, 387584, Note_on_c, 0, 61, 101
1, 387840, Note_on_c, 0, 69, 0
1, 387840, Note_on_c, 0, 64, 101
1, 388096, Note_on_c, 0, 64, 0
1, 388096, Note_on_c, 0, 73, 101
1, 388352, Note_on_c, 0, 73, 0
1, 388352, Note_on_c, 0, 69, 101
1, 388608, Note_on_c, 0, 69, 0
1, 388608, Note_on_c, 0, 76, 101
1, 388608, Note_on_c, 0, 49, 0
1, 388608, Note_on_c, 0, 61, 0
1, 388864, Note_on_c, 0, 76, 0
1, 388864, Note_on_c, 0, 73, 101
1, 389120, Note_on_c, 0, 73, 0
1, 389120, Note_on_c, 0, 69, 101
1, 389120, Note_on_c, 0, 49, 101
1, 389120, Note_on_c, 0, 61, 101
1, 389376, Note_on_c, 0, 69, 0
1, 389376, Note_on_c, 0, 64, 101
1, 389632, Note_on_c, 0, 64, 0
1, 389632, Note_on_c, 0, 49, 0
1, 389632, Note_on_c, 0, 61, 0
1, 389632, Note_on_c, 0, 76, 101
1, 389632, Note_on_c, 0, 44, 101
1, 389632, Note_on_c, 0, 56, 101
1, 389888, Note_on_c, 0, 76, 0
1, 389888, Note_on_c, 0, 71, 101
1, 390144, Note_on_c, 0, 71, 0
1, 390144, Note_on_c, 0, 68, 101
1, 390400, Note_on_c, 0, 68, 0
1, 390400, Note_on_c, 0, 64, 101
1, 390656, Note_on_c, 0, 64, 0
1, 390656, Note_on_c, 0, 76, 101
1, 390656, Note_on_c, 0, 44, 0
1, 390656, Note_on_c, 0, 56, 0
1, 390656, Note_on_c, 0, 45, 101
1, 390656, Note_on_c, 0, 57, 101
1, 390912, Note_on_c, 0, 76, 0
1, 390912, Note_on_c, 0, 73, 101
1, 391168, Note_on_c, 0, 73, 0
1, 391168, Note_on_c, 0, 69, 101
1, 391424, Note_on_c, 0, 69, 0
1, 391424, Note_on_c, 0, 64, 101
1, 391680, Note_on_c, 0, 64, 0
1, 391680, Note_on_c, 0, 45, 0
1, 391680, Note_on_c, 0, 57, 0
1, 391680, Note_on_c, 0, 76, 101
1, 391680, Note_on_c, 0, 44, 101
1, 391680, Note_on_c, 0, 56, 101
1, 391936, Note_on_c, 0, 76, 0
1, 391936, Note_on_c, 0, 71, 101
1, 392192, Note_on_c, 0, 71, 0
1, 392192, Note_on_c, 0, 68, 101
1, 392448, Note_on_c, 0, 68, 0
1, 392448, Note_on_c, 0, 64, 101
1, 392704, Note_on_c, 0, 64, 0
1, 392704, Note_on_c, 0, 76, 101
1, 392704, Note_on_c, 0, 44, 0
1, 392704, Note_on_c, 0, 56, 0
1, 392704, Note_on_c, 0, 45, 101
1, 392704, Note_on_c, 0, 57, 101
1, 392960, Note_on_c, 0, 76, 0
1, 392960, Note_on_c, 0, 73, 101
1, 393216, Note_on_c, 0, 73, 0
1, 393216, Note_on_c, 0, 69, 101
1, 393472, Note_on_c, 0, 69, 0
1, 393472, Note_on_c, 0, 64, 101
1, 393728, Note_on_c, 0, 64, 0
1, 393728, Note_on_c, 0, 45, 0
1, 393728, Note_on_c, 0, 57, 0
1, 393728, Note_on_c, 0, 76, 101
1, 393728, Note_on_c, 0, 44, 101
1, 393728, Note_on_c, 0, 56, 101
1, 393984, Note_on_c, 0, 76, 0
1, 393984, Note_on_c, 0, 71, 101
1, 394240, Note_on_c, 0, 71, 0
1, 394240, Note_on_c, 0, 68, 101
1, 394496, Note_on_c, 0, 68, 0
1, 394496, Note_on_c, 0, 64, 101
1, 394752, Note_on_c, 0, 64, 0
1, 394752, Note_on_c, 0, 76, 101
1, 394752, Note_on_c, 0, 44, 0
1, 394752, Note_on_c, 0, 56, 0
1, 394752, Note_on_c, 0, 45, 101
1, 394752, Note_on_c, 0, 57, 101
1, 395008, Note_on_c, 0, 76, 0
1, 395008, Note_on_c, 0, 73, 101
1, 395264, Note_on_c, 0, 73, 0
1, 395264, Note_on_c, 0, 69, 101
1, 395520, Note_on_c, 0, 69, 0
1, 395520, Note_on_c, 0, 64, 101
1, 395776, Note_on_c, 0, 64, 0
1, 395776, Note_on_c, 0, 45, 0
1, 395776, Note_on_c, 0, 57, 0
1, 395776, Note_on_c, 0, 66, 101
1, 395776, Note_on_c, 0, 59, 101
1, 395904, Note_on_c, 0, 66, 0
1, 395904, Note_on_c, 0, 68, 101
1, 396032, Note_on_c, 0, 68, 0
1, 396032, Note_on_c, 0, 66, 101
1, 396160, Note_on_c, 0, 66, 0
1, 396160, Note_on_c, 0, 68, 101
1, 396288, Note_on_c, 0, 68, 0
1, 396288, Note_on_c, 0, 66, 101
1, 396416, Note_on_c, 0, 66, 0
1, 396416, Note_on_c, 0, 68, 101
1, 396544, Note_on_c, 0, 68, 0
1, 396544, Note_on_c, 0, 66, 101
1, 396672, Note_on_c, 0, 66, 0
1, 396672, Note_on_c, 0, 68, 101
1, 396800, Note_on_c, 0, 68, 0
1, 396800, Note_on_c, 0, 66, 101
1, 396800, Note_on_c, 0, 59, 0
1, 396800, Note_on_c, 0, 47, 101
1, 396928, Note_on_c, 0, 66, 0
1, 396928, Note_on_c, 0, 68, 101
1, 397056, Note_on_c, 0, 68, 0
1, 397056, Note_on_c, 0, 66, 101
1, 397184, Note_on_c, 0, 66, 0
1, 397184, Note_on_c, 0, 68, 101
1, 397312, Note_on_c, 0, 68, 0
1, 397312, Note_on_c, 0, 66, 101
1, 397440, Note_on_c, 0, 66, 0
1, 397440, Note_on_c, 0, 68, 101
1, 397568, Note_on_c, 0, 68, 0
1, 397568, Note_on_c, 0, 66, 101
1, 397696, Note_on_c, 0, 66, 0
1, 397696, Note_on_c, 0, 68, 101
1, 397824, Note_on_c, 0, 68, 0
1, 397824, Note_on_c, 0, 47, 0
1, 397824, Note_on_c, 0, 64, 101
1, 397824, Note_on_c, 0, 52, 101
1, 398848, Note_on_c, 0, 64, 0
1, 398848, Note_on_c, 0, 52, 0
1, 399360, Note_on_c, 0, 80, 62
1, 399360, Note_on_c, 0, 83, 62
1, 399872, Note_on_c, 0, 80, 0
1, 399872, Note_on_c, 0, 83, 0
1, 399872, Note_on_c, 0, 80, 62
1, 399872, Note_on_c, 0, 83, 62
1, 400384, Note_on_c, 0, 80, 0
1, 400384, Note_on_c, 0, 83, 0
1, 400384, Note_on_c, 0, 76, 62
1, 400384, Note_on_c, 0, 80, 62
1, 400896, Note_on_c, 0, 76, 0
1, 400896, Note_on_c, 0, 80, 0
1, 400896, Note_on_c, 0, 76, 62
1, 400896, Note_on_c, 0, 80, 62
1, 401408, Note_on_c, 0, 76, 0
1, 401408, Note_on_c, 0, 80, 0
1, 401408, Note_on_c, 0, 80, 62
1, 401408, Note_on_c, 0, 83, 62
1, 401920, Note_on_c, 0, 80, 0
1, 401920, Note_on_c, 0, 83, 0
1, 401920, Note_on_c, 0, 78, 62
1, 401920, Note_on_c, 0, 81, 62
1, 402432, Note_on_c, 0, 78, 0
1, 402432, Note_on_c, 0, 81, 0
1, 402432, Note_on_c, 0, 75, 62
1, 402432, Note_on_c, 0, 78, 62
1, 402944, Note_on_c, 0, 75, 0
1, 402944, Note_on_c, 0, 78, 0
1, 403456, Note_on_c, 0, 71, 101
1, 403456, Note_on_c, 0, 59, 101
1, 403866, Note_on_c, 0, 71, 0
1, 403866, Note_on_c, 0, 59, 0
1, 403968, Note_on_c, 0, 76, 101
1, 403968, Note_on_c, 0, 64, 101
1, 404378, Note_on_c, 0, 76, 0
1, 404378, Note_on_c, 0, 64, 0
1, 404480, Note_on_c, 0, 71, 101
1, 404480, Note_on_c, 0, 59, 101
1, 404890, Note_on_c, 0, 71, 0
1, 404890, Note_on_c, 0, 59, 0
1, 404992, Note_on_c, 0, 76, 101
1, 404992, Note_on_c, 0, 64, 101
1, 405248, Note_on_c, 0, 76, 0
1, 405248, Note_on_c, 0, 71, 101
1, 405248, Note_on_c, 0, 64, 0
1, 405248, Note_on_c, 0, 59, 101
1, 405504, Note_on_c, 0, 71, 0
1, 405504, Note_on_c, 0, 68, 101
1, 405504, Note_on_c, 0, 59, 0
1, 405504, Note_on_c, 0, 56, 101
1, 405760, Note_on_c, 0, 68, 0
1, 405760, Note_on_c, 0, 64, 101
1, 405760, Note_on_c, 0, 56, 0
1, 405760, Note_on_c, 0, 52, 101
1, 406016, Note_on_c, 0, 64, 0
1, 406016, Note_on_c, 0, 52, 0
1, 406016, Note_on_c, 0, 71, 101
1, 406016, Note_on_c, 0, 59, 101
1, 407040, Note_on_c, 0, 71, 0
1, 407040, Note_on_c, 0, 59, 0
1, 407552, Note_on_c, 0, 79, 62
1, 407552, Note_on_c, 0, 83, 62
1, 408064, Note_on_c, 0, 79, 0
1, 408064, Note_on_c, 0, 83, 0
1, 408064, Note_on_c, 0, 79, 62
1, 408064, Note_on_c, 0, 83, 62
1, 408576, Note_on_c, 0, 79, 0
1, 408576, Note_on_c, 0, 83, 0
1, 408576, Note_on_c, 0, 76, 62
1, 408576, Note_on_c, 0, 79, 62
1, 409088, Note_on_c, 0, 76, 0
1, 409088, Note_on_c, 0, 79, 0
1, 409088, Note_on_c, 0, 76, 62
1, 409088, Note_on_c, 0, 79, 62
1, 409600, Note_on_c, 0, 76, 0
1, 409600, Note_on_c, 0, 79, 0
1, 409600, Note_on_c, 0, 79, 62
1, 409600, Note_on_c, 0, 83, 62
1, 410112, Note_on_c, 0, 79, 0
1, 410112, Note_on_c, 0, 83, 0
1, 410112, Note_on_c, 0, 78, 62
1, 410112, Note_on_c, 0, 81, 62
1, 410624, Note_on_c, 0, 78, 0
1, 410624, Note_on_c, 0, 81, 0
1, 410624, Note_on_c, 0, 75, 62
1, 410624, Note_on_c, 0, 78, 62
1, 411136, Note_on_c, 0, 75, 0
1, 411136, Note_on_c, 0, 78, 0
1, 411648, Note_on_c, 0, 75, 101
1, 412160, Note_on_c, 0, 75, 0
1, 412160, Note_on_c, 0, 76, 101
1, 412160, Note_on_c, 0, 55, 101
1, 412160, Note_on_c, 0, 48, 101
1, 412928, Note_on_c, 0, 76, 0
1, 412928, Note_on_c, 0, 75, 101
1, 413184, Note_on_c, 0, 75, 0
1, 413184, Note_on_c, 0, 76, 101
1, 413184, Note_on_c, 0, 55, 0
1, 413184, Note_on_c, 0, 58, 101
1, 413440, Note_on_c, 0, 76, 0
1, 413440, Note_on_c, 0, 79, 101
1, 413696, Note_on_c, 0, 79, 0
1, 413696, Note_on_c, 0, 78, 101
1, 413952, Note_on_c, 0, 78, 0
1, 413952, Note_on_c, 0, 76, 101
1, 414208, Note_on_c, 0, 76, 0
1, 414208, Note_on_c, 0, 58, 0
1, 414208, Note_on_c, 0, 48, 0
1, 414208, Note_on_c, 0, 75, 101
1, 414208, Note_on_c, 0, 47, 101
1, 414208, Note_on_c, 0, 59, 101
1, 415232, Note_on_c, 0, 75, 0
1, 415232, Note_on_c, 0, 47, 0
1, 415232, Note_on_c, 0, 59, 0
1, 415744, Note_on_c, 0, 56, 75
1, 415744, Note_on_c, 0, 64, 75
1, 416256, Note_on_c, 0, 56, 0
1, 416256, Note_on_c, 0, 64, 0
1, 416256, Note_on_c, 0, 56, 75
1, 416256, Note_on_c, 0, 64, 75
1, 416256, Note_on_c, 0, 40, 75
1, 416256, Note_on_c, 0, 52, 75
1, 416768, Note_on_c, 0, 56, 0
1, 416768, Note_on_c, 0, 64, 0
1, 416768, Note_on_c, 0, 64, 75
1, 416768, Note_on_c, 0, 68, 75
1, 417280, Note_on_c, 0, 64, 0
1, 417280, Note_on_c, 0, 68, 0
1, 417280, Note_on_c, 0, 64, 75
1, 417280, Note_on_c, 0, 68, 75
1, 417280, Note_on_c, 0, 40, 0
1, 417280, Note_on_c, 0, 52, 0
1, 417792, Note_on_c, 0, 64, 0
1, 417792, Note_on_c, 0, 68, 0
1, 417792, Note_on_c, 0, 68, 75
1, 417792, Note_on_c, 0, 71, 75
1, 418304, Note_on_c, 0, 68, 0
1, 418304, Note_on_c, 0, 71, 0
1, 418304, Note_on_c, 0, 71, 75
1, 418304, Note_on_c, 0, 68, 75
1, 419072, Note_on_c, 0, 71, 0
1, 419072, Note_on_c, 0, 76, 75
1, 419328, Note_on_c, 0, 76, 0
1, 419328, Note_on_c, 0, 71, 75
1, 419840, Note_on_c, 0, 71, 0
1, 419840, Note_on_c, 0, 68, 0
1, 420352, Note_on_c, 0, 73, 75
1, 420352, Note_on_c, 0, 57, 75
1, 420608, Note_on_c, 0, 57, 0
1, 420608, Note_on_c, 0, 64, 75
1, 420864, Note_on_c, 0, 64, 0
1, 420864, Note_on_c, 0, 61, 75
1, 421120, Note_on_c, 0, 73, 0
1, 421120, Note_on_c, 0, 75, 75
1, 421120, Note_on_c, 0, 61, 0
1, 421120, Note_on_c, 0, 64, 75
1, 421376, Note_on_c, 0, 75, 0
1, 421376, Note_on_c, 0, 76, 75
1, 421376, Note_on_c, 0, 64, 0
1, 421376, Note_on_c, 0, 56, 75
1, 421632, Note_on_c, 0, 56, 0
1, 421632, Note_on_c, 0, 64, 75
1, 421888, Note_on_c, 0, 76, 0
1, 421888, Note_on_c, 0, 64, 0
1, 421888, Note_on_c, 0, 59, 75
1, 422144, Note_on_c, 0, 59, 0
1, 422144, Note_on_c, 0, 64, 75
1, 422400, Note_on_c, 0, 64, 0
1, 422400, Note_on_c, 0, 73, 49
1, 422400, Note_on_c, 0, 57, 49
1, 422656, Note_on_c, 0, 57, 0
1, 422656, Note_on_c, 0, 64, 49
1, 422912, Note_on_c, 0, 64, 0
1, 422912, Note_on_c, 0, 61, 49
1, 423168, Note_on_c, 0, 73, 0
1, 423168, Note_on_c, 0, 75, 49
1, 423168, Note_on_c, 0, 61, 0
1, 423168, Note_on_c, 0, 64, 49
1, 423424, Note_on_c, 0, 75, 0
1, 423424, Note_on_c, 0, 76, 49
1, 423424, Note_on_c, 0, 64, 0
1, 423424, Note_on_c, 0, 56, 49
1, 423680, Note_on_c, 0, 56, 0
1, 423680, Note_on_c, 0, 64, 49
1, 423936, Note_on_c, 0, 76, 0
1, 423936, Note_on_c, 0, 64, 0
1, 423936, Note_on_c, 0, 59, 49
1, 424192, Note_on_c, 0, 59, 0
1, 424192, Note_on_c, 0, 64, 49
1, 424448, Note_on_c, 0, 64, 0
1, 424448, Note_on_c, 0, 73, 101
1, 424448, Note_on_c, 0, 57, 101
1, 424704, Note_on_c, 0, 73, 0
1, 424704, Note_on_c, 0, 76, 101
1, 424960, Note_on_c, 0, 76, 0
1, 424960, Note_on_c, 0, 75, 101
1, 425216, Note_on_c, 0, 75, 0
1, 425216, Note_on_c, 0, 73, 101
1, 425472, Note_on_c, 0, 73, 0
1, 425472, Note_on_c, 0, 71, 101
1, 425472, Note_on_c, 0, 57, 0
1, 425728, Note_on_c, 0, 71, 0
1, 425728, Note_on_c, 0, 69, 101
1, 425984, Note_on_c, 0, 69, 0
1, 425984, Note_on_c, 0, 68, 101
1, 426240, Note_on_c, 0, 68, 0
1, 426240, Note_on_c, 0, 66, 101
1, 426496, Note_on_c, 0, 66, 0
1, 426496, Note_on_c, 0, 64, 101
1, 426496, Note_on_c, 0, 47, 101
1, 426496, Note_on_c, 0, 52, 101
1, 426752, Note_on_c, 0, 64, 0
1, 426752, Note_on_c, 0, 66, 101
1, 426880, Note_on_c, 0, 66, 0
1, 426880, Note_on_c, 0, 68, 101
1, 427008, Note_on_c, 0, 68, 0
1, 427008, Note_on_c, 0, 66, 101
1, 427136, Note_on_c, 0, 66, 0
1, 427136, Note_on_c, 0, 68, 101
1, 427264, Note_on_c, 0, 68, 0
1, 427264, Note_on_c, 0, 66, 101
1, 427392, Note_on_c, 0, 66, 0
1, 427392, Note_on_c, 0, 68, 101
1, 427520, Note_on_c, 0, 68, 0
1, 427520, Note_on_c, 0, 66, 101
1, 427520, Note_on_c, 0, 47, 0
1, 427520, Note_on_c, 0, 52, 0
1, 427520, Note_on_c, 0, 47, 101
1, 427520, Note_on_c, 0, 51, 101
1, 427648, Note_on_c, 0, 66, 0
1, 427648, Note_on_c, 0, 68, 101
1, 427776, Note_on_c, 0, 68, 0
1, 427776, Note_on_c, 0, 66, 101
1, 427904, Note_on_c, 0, 66, 0
1, 427904, Note_on_c, 0, 68, 101
1, 428032, Note_on_c, 0, 68, 0
1, 428032, Note_on_c, 0, 66, 101
1, 428160, Note_on_c, 0, 66, 0
1, 428160, Note_on_c, 0, 68, 101
1, 428288, Note_on_c, 0, 68, 0
1, 428288, Note_on_c, 0, 66, 101
1, 428416, Note_on_c, 0, 66, 0
1, 428416, Note_on_c, 0, 68, 101
1, 428544, Note_on_c, 0, 68, 0
1, 428544, Note_on_c, 0, 47, 0
1, 428544, Note_on_c, 0, 51, 0
1, 428544, Note_on_c, 0, 64, 101
1, 428544, Note_on_c, 0, 52, 101
1, 429056, Note_on_c, 0, 52, 0
1, 429056, Note_on_c, 0, 47, 101
1, 429568, Note_on_c, 0, 64, 0
1, 429568, Note_on_c, 0, 47, 0
1, 429568, Note_on_c, 0, 40, 101
1, 430080, Note_on_c, 0, 56, 101
1, 430080, Note_on_c, 0, 64, 101
1, 430592, Note_on_c, 0, 56, 0
1, 430592, Note_on_c, 0, 64, 0
1, 430592, Note_on_c, 0, 40, 0
1, 430592, Note_on_c, 0, 56, 101
1, 430592, Note_on_c, 0, 64, 101
1, 431104, Note_on_c, 0, 40, 101
1, 431104, Note_on_c, 0, 52, 101
1, 431616, Note_on_c, 0, 56, 0
1, 431616, Note_on_c, 0, 64, 0
1, 431616, Note_on_c, 0, 40, 0
1, 431616, Note_on_c, 0, 52, 0
1, 431616, Note_on_c, 0, 40, 107
1, 431616, Note_on_c, 0, 52, 107
1, 432128, Note_on_c, 0, 64, 113
1, 432128, Note_on_c, 0, 68, 113
1, 432640, Note_on_c, 0, 64, 0
1, 432640, Note_on_c, 0, 68, 0
1, 432640, Note_on_c, 0, 40, 0
1, 432640, Note_on_c, 0, 52, 0
1, 432640, Note_on_c, 0, 64, 119
1, 432640, Note_on_c, 0, 68, 119
1, 433152, Note_on_c, 0, 40, 127
1, 433152, Note_on_c, 0, 52, 127
1, 433664, Note_on_c, 0, 64, 0
1, 433664, Note_on_c, 0, 68, 0
1, 433664, Note_on_c, 0, 40, 0
1, 433664, Note_on_c, 0, 52, 0
1, 433664, Note_on_c, 0, 40, 127
1, 433664, Note_on_c, 0, 52, 127
1, 434176, Note_on_c, 0, 68, 127
1, 434176, Note_on_c, 0, 71, 127
1, 434688, Note_on_c, 0, 68, 0
1, 434688, Note_on_c, 0, 71, 0
1, 434688, Note_on_c, 0, 40, 0
1, 434688, Note_on_c, 0, 52, 0
1, 434688, Note_on_c, 0, 68, 127
1, 434688, Note_on_c, 0, 71, 127
1, 435200, Note_on_c, 0, 40, 127
1, 435200, Note_on_c, 0, 52, 127
1, 435712, Note_on_c, 0, 68, 0
1, 435712, Note_on_c, 0, 71, 0
1, 435712, Note_on_c, 0, 40, 0
1, 435712, Note_on_c, 0, 52, 0
1, 435712, Note_on_c, 0, 40, 127
1, 435712, Note_on_c, 0, 52, 127
1, 436224, Note_on_c, 0, 68, 127
1, 436224, Note_on_c, 0, 76, 127
1, 436736, Note_on_c, 0, 68, 0
1, 436736, Note_on_c, 0, 76, 0
1, 436736, Note_on_c, 0, 40, 0
1, 436736, Note_on_c, 0, 52, 0
1, 436736, Note_on_c, 0, 68, 127
1, 436736, Note_on_c, 0, 76, 127
1, 437760, Note_on_c, 0, 68, 0
1, 437760, Note_on_c, 0, 76, 0
1, 437770, End_track
0, 0, End_of_file