0, 0, Header, 0, 1, 1024
1, 0, Start_track
1, 0, Tempo, 600000
1, 0, Note_on_c, 0, 64, 88
1, 0, Note_on_c, 0, 68, 88
1, 0, Note_on_c, 0, 71, 88
1, 0, Note_on_c, 0, 76, 88
1, 0, Note_on_c, 0, 40, 88
1, 0, Note_on_c, 0, 52, 88
1, 768, Note_on_c, 0, 64, 0
1, 768, Note_on_c, 0, 68, 0
1, 768, Note_on_c, 0, 71, 0
1, 768, Note_on_c, 0, 76, 0
1, 768, Note_on_c, 0, 64, 62
1, 768, Note_on_c, 0, 40, 0
1, 768, Note_on_c, 0, 52, 0
1, 1024, Note_on_c, 0, 64, 0
1, 1024, Note_on_c, 0, 68, 62
1, 1024, Note_on_c, 0, 64, 62
1, 1434, Note_on_c, 0, 68, 0
1, 1434, Note_on_c, 0, 64, 0
1, 1536, Note_on_c, 0, 69, 62
1, 1536, Note_on_c, 0, 66, 62
1, 1946, Note_on_c, 0, 69, 0
1, 1946, Note_on_c, 0, 66, 0
1, 2048, Note_on_c, 0, 71, 62
1, 2048, Note_on_c, 0, 68, 62
1, 2176, Note_on_c, 0, 71, 0
1, 2176, Note_on_c, 0, 73, 62
1, 2304, Note_on_c, 0, 73, 0
1, 2304, Note_on_c, 0, 71, 62
1, 2816, Note_on_c, 0, 71, 0
1, 2816, Note_on_c, 0, 73, 62
1, 2816, Note_on_c, 0, 68, 0
1, 2816, Note_on_c, 0, 69, 62
1, 3072, Note_on_c, 0, 73, 0
1, 3072, Note_on_c, 0, 71, 62
1, 3072, Note_on_c, 0, 69, 0
1, 3072, Note_on_c, 0, 68, 62
1, 3584, Note_on_c, 0, 71, 0
1, 3584, Note_on_c, 0, 69, 75
1, 3584, Note_on_c, 0, 68, 0
1, 3584, Note_on_c, 0, 63, 75
1, 3712, Note_on_c, 0, 69, 0
1, 3712, Note_on_c, 0, 71, 75
1, 3840, Note_on_c, 0, 71, 0
1, 3840, Note_on_c, 0, 69, 75
1, 3968, Note_on_c, 0, 69, 0
1, 3968, Note_on_c, 0, 71, 75
1, 4096, Note_on_c, 0, 71, 0
1, 4096, Note_on_c, 0, 63, 0
1, 4096, Note_on_c, 0, 68, 75
1, 4096, Note_on_c, 0, 64, 75
1, 4608, Note_on_c, 0, 68, 0
1, 4608, Note_on_c, 0, 59, 75
1, 4608, Note_on_c, 0, 64, 75
1, 4608, Note_on_c, 0, 64, 0
1, 4608, Note_on_c, 0, 44, 75
1, 4608, Note_on_c, 0, 56, 75
1, 5018, Note_on_c, 0, 59, 0
1, 5018, Note_on_c, 0, 64, 0
1, 5018, Note_on_c, 0, 44, 0
1, 5018, Note_on_c, 0, 56, 0
1, 5120, Note_on_c, 0, 61, 75
1, 5120, Note_on_c, 0, 66, 75
1, 5120, Note_on_c, 0, 45, 75
1, 5120, Note_on_c, 0, 57, 75
1, 5530, Note_on_c, 0, 61, 0
1, 5530, Note_on_c, 0, 66, 0
1, 5530, Note_on_c, 0, 45, 0
1, 5530, Note_on_c, 0, 57, 0
1, 5632, Note_on_c, 0, 63, 75
1, 5632, Note_on_c, 0, 47, 75
1, 5632, Note_on_c, 0, 54, 75
1, 6042, Note_on_c, 0, 63, 0
1, 6042, Note_on_c, 0, 47, 0
1, 6042, Note_on_c, 0, 54, 0
1, 6144, Note_on_c, 0, 64, 75
1, 6144, Note_on_c, 0, 40, 75
1, 6144, Note_on_c, 0, 52, 75
1, 6315, Note_on_c, 0, 64, 0
1, 6315, Note_on_c, 0, 66, 75
1, 6485, Note_on_c, 0, 66, 0
1, 6485, Note_on_c, 0, 68, 75
1, 6656, Note_on_c, 0, 68, 0
1, 6656, Note_on_c, 0, 59, 75
1, 7168, Note_on_c, 0, 59, 0
1, 7168, Note_on_c, 0, 40, 0
1, 7168, Note_on_c, 0, 52, 0
1, 7296, Note_on_c, 0, 64, 81
1, 7424, Note_on_c, 0, 64, 0
1, 7424, Note_on_c, 0, 66, 81
1, 7552, Note_on_c, 0, 66, 0
1, 7552, Note_on_c, 0, 68, 81
1, 7680, Note_on_c, 0, 68, 0
1, 7680, Note_on_c, 0, 69, 87
1, 7808, Note_on_c, 0, 69, 0
1, 7808, Note_on_c, 0, 71, 87
1, 7936, Note_on_c, 0, 71, 0
1, 7936, Note_on_c, 0, 73, 87
1, 8064, Note_on_c, 0, 73, 0
1, 8064, Note_on_c, 0, 75, 87
1, 8192, Note_on_c, 0, 75, 0
1, 8192, Note_on_c, 0, 76, 94
1, 8192, Note_on_c, 0, 52, 94
1, 8192, Note_on_c, 0, 56, 94
1, 8192, Note_on_c, 0, 59, 94
1, 8960, Note_on_c, 0, 76, 0
1, 8960, Note_on_c, 0, 68, 70
1, 8960, Note_on_c, 0, 52, 0
1, 8960, Note_on_c, 0, 56, 0
1, 8960, Note_on_c, 0, 59, 0
1, 8960, Note_on_c, 0, 64, 70
1, 9216, Note_on_c, 0, 68, 0
1, 9216, Note_on_c, 0, 69, 76
1, 9216, Note_on_c, 0, 64, 0
1, 9216, Note_on_c, 0, 66, 76
1, 9626, Note_on_c, 0, 69, 0
1, 9626, Note_on_c, 0, 66, 0
1, 9728, Note_on_c, 0, 71, 82
1, 9728, Note_on_c, 0, 68, 82
1, 10138, Note_on_c, 0, 71, 0
1, 10138, Note_on_c, 0, 68, 0
1, 10240, Note_on_c, 0, 73, 88
1, 10240, Note_on_c, 0, 69, 88
1, 10650, Note_on_c, 0, 69, 0
1, 10752, Note_on_c, 0, 57, 88
1, 11008, Note_on_c, 0, 73, 0
1, 11008, Note_on_c, 0, 76, 88
1, 11162, Note_on_c, 0, 57, 0
1, 11264, Note_on_c, 0, 76, 0
1, 11264, Note_on_c, 0, 71, 88
1, 11264, Note_on_c, 0, 68, 88
1, 11674, Note_on_c, 0, 71, 0
1, 11674, Note_on_c, 0, 68, 0
1, 11776, Note_on_c, 0, 68, 88
1, 11776, Note_on_c, 0, 64, 88
1, 12186, Note_on_c, 0, 68, 0
1, 12186, Note_on_c, 0, 64, 0
1, 12288, Note_on_c, 0, 51, 62
1, 12544, Note_on_c, 0, 69, 62
1, 12698, Note_on_c, 0, 51, 0
1, 12800, Note_on_c, 0, 59, 62
1, 13056, Note_on_c, 0, 69, 0
1, 13056, Note_on_c, 0, 66, 62
1, 13210, Note_on_c, 0, 59, 0
1, 13312, Note_on_c, 0, 52, 62
1, 13568, Note_on_c, 0, 66, 0
1, 13568, Note_on_c, 0, 68, 62
1, 13722, Note_on_c, 0, 52, 0
1, 13824, Note_on_c, 0, 59, 62
1, 14080, Note_on_c, 0, 68, 0
1, 14080, Note_on_c, 0, 64, 62
1, 14234, Note_on_c, 0, 59, 0
1, 14336, Note_on_c, 0, 64, 0
1, 14336, Note_on_c, 0, 51, 62
1, 14592, Note_on_c, 0, 78, 62
1, 14746, Note_on_c, 0, 51, 0
1, 14848, Note_on_c, 0, 59, 62
1, 15104, Note_on_c, 0, 78, 0
1, 15104, Note_on_c, 0, 69, 62
1, 15258, Note_on_c, 0, 59, 0
1, 15360, Note_on_c, 0, 52, 62
1, 15616, Note_on_c, 0, 69, 0
1, 15616, Note_on_c, 0, 68, 62
1, 15770, Note_on_c, 0, 52, 0
1, 15872, Note_on_c, 0, 59, 62
1, 16128, Note_on_c, 0, 68, 0
1, 16128, Note_on_c, 0, 71, 62
1, 16282, Note_on_c, 0, 59, 0
1, 16384, Note_on_c, 0, 71, 0
1, 16384, Note_on_c, 0, 51, 101
1, 16640, Note_on_c, 0, 69, 101
1, 16794, Note_on_c, 0, 51, 0
1, 16896, Note_on_c, 0, 59, 101
1, 17152, Note_on_c, 0, 69, 0
1, 17152, Note_on_c, 0, 66, 101
1, 17306, Note_on_c, 0, 59, 0
1, 17408, Note_on_c, 0, 52, 101
1, 17664, Note_on_c, 0, 66, 0
1, 17664, Note_on_c, 0, 68, 101
1, 17818, Note_on_c, 0, 52, 0
1, 17920, Note_on_c, 0, 59, 101
1, 18176, Note_on_c, 0, 68, 0
1, 18176, Note_on_c, 0, 64, 101
1, 18330, Note_on_c, 0, 59, 0
1, 18432, Note_on_c, 0, 64, 0
1, 18432, Note_on_c, 0, 51, 101
1, 18688, Note_on_c, 0, 78, 101
1, 18842, Note_on_c, 0, 51, 0
1, 18944, Note_on_c, 0, 59, 101
1, 19200, Note_on_c, 0, 78, 0
1, 19200, Note_on_c, 0, 69, 101
1, 19354, Note_on_c, 0, 59, 0
1, 19456, Note_on_c, 0, 52, 101
1, 19712, Note_on_c, 0, 69, 0
1, 19712, Note_on_c, 0, 68, 101
1, 19866, Note_on_c, 0, 52, 0
1, 19968, Note_on_c, 0, 56, 101
1, 20224, Note_on_c, 0, 68, 0
1, 20224, Note_on_c, 0, 76, 101
1, 20378, Note_on_c, 0, 56, 0
1, 20480, Note_on_c, 0, 76, 0
1, 20480, Note_on_c, 0, 57, 101
1, 20736, Note_on_c, 0, 73, 101
1, 20992, Note_on_c, 0, 73, 0
1, 20992, Note_on_c, 0, 65, 101
1, 21248, Note_on_c, 0, 65, 0
1, 21248, Note_on_c, 0, 66, 101
1, 21504, Note_on_c, 0, 66, 0
1, 21504, Note_on_c, 0, 73, 101
1, 21504, Note_on_c, 0, 57, 0
1, 21504, Note_on_c, 0, 54, 101
1, 21675, Note_on_c, 0, 73, 0
1, 21675, Note_on_c, 0, 71, 101
1, 21845, Note_on_c, 0, 71, 0
1, 21845, Note_on_c, 0, 69, 101
1, 21914, Note_on_c, 0, 54, 0
1, 22016, Note_on_c, 0, 69, 0
1, 22016, Note_on_c, 0, 68, 101
1, 22016, Note_on_c, 0, 58, 101
1, 22187, Note_on_c, 0, 68, 0
1, 22187, Note_on_c, 0, 66, 101
1, 22357, Note_on_c, 0, 66, 0
1, 22357, Note_on_c, 0, 64, 101
1, 22426, Note_on_c, 0, 58, 0
1, 22528, Note_on_c, 0, 64, 0
1, 22528, Note_on_c, 0, 63, 101
1, 22528, Note_on_c, 0, 59, 101
1, 22699, Note_on_c, 0, 63, 0
1, 22699, Note_on_c, 0, 64, 101
1, 22869, Note_on_c, 0, 64, 0
1, 22869, Note_on_c, 0, 66, 101
1, 22938, Note_on_c, 0, 59, 0
1, 23040, Note_on_c, 0, 66, 0
1, 23040, Note_on_c, 0, 59, 101
1, 23040, Note_on_c, 0, 47, 101
1, 23450, Note_on_c, 0, 47, 0
1, 23552, Note_on_c, 0, 59, 0
1, 23552, Note_on_c, 0, 51, 62
1, 23808, Note_on_c, 0, 51, 0
1, 23808, Note_on_c, 0, 47, 62
1, 24064, Note_on_c, 0, 47, 0
1, 24064, Note_on_c, 0, 54, 62
1, 24320, Note_on_c, 0, 54, 0
1, 24320, Note_on_c, 0, 52, 62
1, 24576, Note_on_c, 0, 52, 0
1, 24576, Note_on_c, 0, 66, 62
1, 24576, Note_on_c, 0, 51, 62
1, 24832, Note_on_c, 0, 66, 0
1, 24832, Note_on_c, 0, 71, 62
1, 25088, Note_on_c, 0, 71, 0
1, 25088, Note_on_c, 0, 71, 62
1, 25293, Note_on_c, 0, 71, 0
1, 25344, Note_on_c, 0, 71, 62
1, 25549, Note_on_c, 0, 71, 0
1, 25600, Note_on_c, 0, 71, 62
1, 25856, Note_on_c, 0, 71, 0
1, 25856, Note_on_c, 0, 69, 62
1, 25856, Note_on_c, 0, 59, 62
1, 26112, Note_on_c, 0, 69, 0
1, 26112, Note_on_c, 0, 68, 62
1, 26112, Note_on_c, 0, 59, 0
1, 26112, Note_on_c, 0, 59, 62
1, 26368, Note_on_c, 0, 68, 0
1, 26368, Note_on_c, 0, 66, 62
1, 26368, Note_on_c, 0, 59, 0
1, 26368, Note_on_c, 0, 59, 62
1, 26624, Note_on_c, 0, 66, 0
1, 26624, Note_on_c, 0, 59, 0
1, 26624, Note_on_c, 0, 51, 0
1, 26624, Note_on_c, 0, 68, 62
1, 26624, Note_on_c, 0, 59, 62
1, 26624, Note_on_c, 0, 52, 62
1, 26880, Note_on_c, 0, 68, 0
1, 26880, Note_on_c, 0, 71, 62
1, 27034, Note_on_c, 0, 52, 0
1, 27136, Note_on_c, 0, 71, 0
1, 27136, Note_on_c, 0, 63, 62
1, 27136, Note_on_c, 0, 54, 62
1, 27392, Note_on_c, 0, 63, 0
1, 27392, Note_on_c, 0, 66, 62
1, 27546, Note_on_c, 0, 54, 0
1, 27648, Note_on_c, 0, 66, 0
1, 27648, Note_on_c, 0, 64, 62
1, 27648, Note_on_c, 0, 56, 62
1, 27904, Note_on_c, 0, 64, 0
1, 27904, Note_on_c, 0, 68, 62
1, 28058, Note_on_c, 0, 56, 0
1, 28160, Note_on_c, 0, 68, 0
1, 28160, Note_on_c, 0, 66, 62
1, 28160, Note_on_c, 0, 51, 62
1, 28416, Note_on_c, 0, 66, 0
1, 28416, Note_on_c, 0, 69, 62
1, 28570, Note_on_c, 0, 51, 0
1, 28672, Note_on_c, 0, 69, 0
1, 28672, Note_on_c, 0, 59, 0
1, 28672, Note_on_c, 0, 68, 62
1, 28672, Note_on_c, 0, 59, 62
1, 28672, Note_on_c, 0, 52, 62
1, 28928, Note_on_c, 0, 68, 0
1, 28928, Note_on_c, 0, 71, 62
1, 29082, Note_on_c, 0, 52, 0
1, 29184, Note_on_c, 0, 71, 0
1, 29184, Note_on_c, 0, 63, 62
1, 29184, Note_on_c, 0, 54, 62
1, 29440, Note_on_c, 0, 63, 0
1, 29440, Note_on_c, 0, 66, 62
1, 29594, Note_on_c, 0, 54, 0
1, 29696, Note_on_c, 0, 66, 0
1, 29696, Note_on_c, 0, 64, 62
1, 29696, Note_on_c, 0, 56, 62
1, 29952, Note_on_c, 0, 64, 0
1, 29952, Note_on_c, 0, 68, 62
1, 30106, Note_on_c, 0, 56, 0
1, 30208, Note_on_c, 0, 68, 0
1, 30208, Note_on_c, 0, 66, 62
1, 30208, Note_on_c, 0, 51, 62
1, 30464, Note_on_c, 0, 66, 0
1, 30464, Note_on_c, 0, 69, 62
1, 30618, Note_on_c, 0, 51, 0
1, 30720, Note_on_c, 0, 69, 0
1, 30720, Note_on_c, 0, 59, 0
1, 30720, Note_on_c, 0, 68, 62
1, 30720, Note_on_c, 0, 52, 62
1, 30976, Note_on_c, 0, 68, 0
1, 30976, Note_on_c, 0, 73, 62
1, 31232, Note_on_c, 0, 73, 0
1, 31232, Note_on_c, 0, 73, 62
1, 31437, Note_on_c, 0, 73, 0
1, 31488, Note_on_c, 0, 73, 62
1, 31693, Note_on_c, 0, 73, 0
1, 31744, Note_on_c, 0, 73, 68
1, 31744, Note_on_c, 0, 52, 0
1, 31744, Note_on_c, 0, 53, 68
1, 32000, Note_on_c, 0, 73, 0
1, 32000, Note_on_c, 0, 71, 68
1, 32000, Note_on_c, 0, 61, 68
1, 32256, Note_on_c, 0, 71, 0
1, 32256, Note_on_c, 0, 70, 74
1, 32256, Note_on_c, 0, 61, 0
1, 32256, Note_on_c, 0, 61, 74
1, 32512, Note_on_c, 0, 70, 0
1, 32512, Note_on_c, 0, 68, 74
1, 32512, Note_on_c, 0, 61, 0
1, 32512, Note_on_c, 0, 61, 74
1, 32768, Note_on_c, 0, 68, 0
1, 32768, Note_on_c, 0, 61, 0
1, 32768, Note_on_c, 0, 53, 0
1, 32768, Note_on_c, 0, 70, 80
1, 32768, Note_on_c, 0, 61, 80
1, 32768, Note_on_c, 0, 54, 80
1, 33024, Note_on_c, 0, 70, 0
1, 33024, Note_on_c, 0, 73, 80
1, 33178, Note_on_c, 0, 54, 0
1, 33280, Note_on_c, 0, 73, 0
1, 33280, Note_on_c, 0, 65, 88
1, 33280, Note_on_c, 0, 56, 88
1, 33536, Note_on_c, 0, 65, 0
1, 33536, Note_on_c, 0, 68, 88
1, 33690, Note_on_c, 0, 56, 0
1, 33792, Note_on_c, 0, 68, 0
1, 33792, Note_on_c, 0, 66, 94
1, 33792, Note_on_c, 0, 58, 94
1, 34048, Note_on_c, 0, 66, 0
1, 34048, Note_on_c, 0, 70, 94
1, 34202, Note_on_c, 0, 58, 0
1, 34304, Note_on_c, 0, 70, 0
1, 34304, Note_on_c, 0, 68, 100
1, 34304, Note_on_c, 0, 53, 100
1, 34560, Note_on_c, 0, 68, 0
1, 34560, Note_on_c, 0, 71, 100
1, 34714, Note_on_c, 0, 53, 0
1, 34816, Note_on_c, 0, 71, 0
1, 34816, Note_on_c, 0, 61, 0
1, 34816, Note_on_c, 0, 70, 106
1, 34816, Note_on_c, 0, 61, 106
1, 34816, Note_on_c, 0, 54, 106
1, 35072, Note_on_c, 0, 70, 0
1, 35072, Note_on_c, 0, 73, 106
1, 35226, Note_on_c, 0, 54, 0
1, 35328, Note_on_c, 0, 73, 0
1, 35328, Note_on_c, 0, 65, 106
1, 35328, Note_on_c, 0, 56, 106
1, 35584, Note_on_c, 0, 65, 0
1, 35584, Note_on_c, 0, 68, 106
1, 35738, Note_on_c, 0, 56, 0
1, 35840, Note_on_c, 0, 68, 0
1, 35840, Note_on_c, 0, 66, 106
1, 35840, Note_on_c, 0, 58, 106
1, 36096, Note_on_c, 0, 66, 0
1, 36096, Note_on_c, 0, 70, 106
1, 36250, Note_on_c, 0, 58, 0
1, 36352, Note_on_c, 0, 70, 0
1, 36352, Note_on_c, 0, 68, 106
1, 36352, Note_on_c, 0, 53, 106
1, 36608, Note_on_c, 0, 68, 0
1, 36608, Note_on_c, 0, 71, 106
1, 36762, Note_on_c, 0, 53, 0
1, 36864, Note_on_c, 0, 71, 0
1, 36864, Note_on_c, 0, 61, 0
1, 36864, Note_on_c, 0, 70, 106
1, 36864, Note_on_c, 0, 54, 106
1, 37120, Note_on_c, 0, 70, 0
1, 37120, Note_on_c, 0, 73, 106
1, 37274, Note_on_c, 0, 54, 0
1, 37376, Note_on_c, 0, 73, 0
1, 37376, Note_on_c, 0, 71, 106
1, 37376, Note_on_c, 0, 56, 106
1, 37632, Note_on_c, 0, 71, 0
1, 37632, Note_on_c, 0, 75, 106
1, 37786, Note_on_c, 0, 56, 0
1, 37888, Note_on_c, 0, 75, 0
1, 37888, Note_on_c, 0, 73, 106
1, 37888, Note_on_c, 0, 58, 106
1, 38144, Note_on_c, 0, 73, 0
1, 38144, Note_on_c, 0, 76, 106
1, 38298, Note_on_c, 0, 58, 0
1, 38400, Note_on_c, 0, 76, 0
1, 38400, Note_on_c, 0, 75, 106
1, 38400, Note_on_c, 0, 59, 106
1, 38656, Note_on_c, 0, 75, 0
1, 38656, Note_on_c, 0, 78, 106
1, 38810, Note_on_c, 0, 59, 0
1, 38912, Note_on_c, 0, 78, 0
1, 38912, Note_on_c, 0, 78, 114
1, 38912, Note_on_c, 0, 61, 114
1, 39168, Note_on_c, 0, 78, 0
1, 39168, Note_on_c, 0, 76, 114
1, 39322, Note_on_c, 0, 61, 0
1, 39424, Note_on_c, 0, 76, 0
1, 39424, Note_on_c, 0, 76, 114
1, 39424, Note_on_c, 0, 59, 114
1, 39680, Note_on_c, 0, 76, 0
1, 39680, Note_on_c, 0, 75, 114
1, 39834, Note_on_c, 0, 59, 0
1, 39936, Note_on_c, 0, 75, 0
1, 39936, Note_on_c, 0, 75, 114
1, 39936, Note_on_c, 0, 58, 114
1, 40192, Note_on_c, 0, 75, 0
1, 40192, Note_on_c, 0, 73, 114
1, 40346, Note_on_c, 0, 58, 0
1, 40448, Note_on_c, 0, 73, 0
1, 40448, Note_on_c, 0, 73, 114
1, 40448, Note_on_c, 0, 56, 114
1, 40704, Note_on_c, 0, 73, 0
1, 40704, Note_on_c, 0, 71, 114
1, 40858, Note_on_c, 0, 56, 0
1, 40960, Note_on_c, 0, 71, 0
1, 40960, Note_on_c, 0, 71, 114
1, 40960, Note_on_c, 0, 54, 114
1, 41216, Note_on_c, 0, 71, 0
1, 41216, Note_on_c, 0, 70, 114
1, 41370, Note_on_c, 0, 54, 0
1, 41472, Note_on_c, 0, 70, 0
1, 41472, Note_on_c, 0, 70, 114
1, 41472, Note_on_c, 0, 52, 114
1, 41728, Note_on_c, 0, 70, 0
1, 41728, Note_on_c, 0, 68, 114
1, 41882, Note_on_c, 0, 52, 0
1, 41984, Note_on_c, 0, 68, 0
1, 41984, Note_on_c, 0, 68, 114
1, 41984, Note_on_c, 0, 51, 114
1, 42240, Note_on_c, 0, 68, 0
1, 42240, Note_on_c, 0, 66, 114
1, 42394, Note_on_c, 0, 51, 0
1, 42496, Note_on_c, 0, 66, 0
1, 42496, Note_on_c, 0, 66, 114
1, 42496, Note_on_c, 0, 49, 114
1, 42752, Note_on_c, 0, 66, 0
1, 42752, Note_on_c, 0, 64, 114
1, 42906, Note_on_c, 0, 49, 0
1, 43008, Note_on_c, 0, 64, 0
1, 43008, Note_on_c, 0, 63, 114
1, 43008, Note_on_c, 0, 47, 114
1, 43179, Note_on_c, 0, 63, 0
1, 43179, Note_on_c, 0, 64, 114
1, 43349, Note_on_c, 0, 64, 0
1, 43349, Note_on_c, 0, 66, 114
1, 43520, Note_on_c, 0, 66, 0
1, 43520, Note_on_c, 0, 59, 114
1, 43691, Note_on_c, 0, 59, 0
1, 43691, Note_on_c, 0, 64, 114
1, 43861, Note_on_c, 0, 64, 0
1, 43861, Note_on_c, 0, 61, 114
1, 44032, Note_on_c, 0, 61, 0
1, 44032, Note_on_c, 0, 61, 114
1, 44032, Note_on_c, 0, 47, 0
1, 44032, Note_on_c, 0, 54, 114
1, 44160, Note_on_c, 0, 61, 0
1, 44160, Note_on_c, 0, 63, 114
1, 44288, Note_on_c, 0, 63, 0
1, 44288, Note_on_c, 0, 61, 114
1, 44416, Note_on_c, 0, 61, 0
1, 44416, Note_on_c, 0, 63, 114
1, 44442, Note_on_c, 0, 54, 0
1, 44544, Note_on_c, 0, 63, 0
1, 44544, Note_on_c, 0, 61, 114
1, 44544, Note_on_c, 0, 42, 114
1, 44672, Note_on_c, 0, 61, 0
1, 44672, Note_on_c, 0, 63, 114
1, 44800, Note_on_c, 0, 63, 0
1, 44800, Note_on_c, 0, 61, 114
1, 44954, Note_on_c, 0, 42, 0
1, 45056, Note_on_c, 0, 61, 0
1, 45056, Note_on_c, 0, 59, 114
1, 45056, Note_on_c, 0, 47, 114
1, 45466, Note_on_c, 0, 47, 0
1, 45568, Note_on_c, 0, 35, 114
1, 45824, Note_on_c, 0, 59, 0
1, 45824, Note_on_c, 0, 78, 75
1, 45978, Note_on_c, 0, 35, 0
1, 46080, Note_on_c, 0, 78, 0
1, 46080, Note_on_c, 0, 71, 75
1, 46592, Note_on_c, 0, 71, 0
1, 46592, Note_on_c, 0, 73, 75
1, 47104, Note_on_c, 0, 73, 0
1, 47104, Note_on_c, 0, 75, 75
1, 47104, Note_on_c, 0, 71, 75
1, 47104, Note_on_c, 0, 42, 75
1, 47104, Note_on_c, 0, 54, 75
1, 47616, Note_on_c, 0, 75, 0
1, 47616, Note_on_c, 0, 73, 75
1, 47616, Note_on_c, 0, 71, 0
1, 47616, Note_on_c, 0, 70, 75
1, 47923, Note_on_c, 0, 42, 0
1, 47923, Note_on_c, 0, 54, 0
1, 48000, Note_on_c, 0, 73, 0
1, 48000, Note_on_c, 0, 78, 75
1, 48128, Note_on_c, 0, 78, 0
1, 48128, Note_on_c, 0, 73, 75
1, 48128, Note_on_c, 0, 70, 0
1, 48128, Note_on_c, 0, 70, 75
1, 48538, Note_on_c, 0, 73, 0
1, 48538, Note_on_c, 0, 70, 0
1, 48640, Note_on_c, 0, 75, 75
1, 48640, Note_on_c, 0, 71, 75
1, 49050, Note_on_c, 0, 75, 0
1, 49050, Note_on_c, 0, 71, 0
1, 49152, Note_on_c, 0, 76, 75
1, 49152, Note_on_c, 0, 73, 75
1, 49152, Note_on_c, 0, 42, 75
1, 49152, Note_on_c, 0, 54, 75
1, 49562, Note_on_c, 0, 42, 0
1, 49562, Note_on_c, 0, 54, 0
1, 49664, Note_on_c, 0, 76, 0
1, 49664, Note_on_c, 0, 75, 75
1, 49664, Note_on_c, 0, 73, 0
1, 49664, Note_on_c, 0, 71, 75
1, 49664, Note_on_c, 0, 47, 75
1, 49664, Note_on_c, 0, 59, 75
1, 50048, Note_on_c, 0, 75, 0
1, 50048, Note_on_c, 0, 78, 75
1, 50074, Note_on_c, 0, 47, 0
1, 50074, Note_on_c, 0, 59, 0
1, 50176, Note_on_c, 0, 78, 0
1, 50176, Note_on_c, 0, 75, 75
1, 50176, Note_on_c, 0, 71, 0
1, 50176, Note_on_c, 0, 71, 75
1, 50586, Note_on_c, 0, 75, 0
1, 50586, Note_on_c, 0, 71, 0
1, 50688, Note_on_c, 0, 76, 75
1, 50688, Note_on_c, 0, 73, 75
1, 51098, Note_on_c, 0, 76, 0
1, 51098, Note_on_c, 0, 73, 0
1, 51200, Note_on_c, 0, 75, 75
1, 51200, Note_on_c, 0, 78, 75
1, 51200, Note_on_c, 0, 47, 75
1, 51200, Note_on_c, 0, 59, 75
1, 51610, Note_on_c, 0, 75, 0
1, 51610, Note_on_c, 0, 78, 0
1, 51712, Note_on_c, 0, 75, 75
1, 51712, Note_on_c, 0, 78, 75
1, 51712, Note_on_c, 0, 83, 75
1, 52122, Note_on_c, 0, 75, 0
1, 52122, Note_on_c, 0, 78, 0
1, 52122, Note_on_c, 0, 83, 0
1, 52224, Note_on_c, 0, 47, 0
1, 52224, Note_on_c, 0, 59, 0
1, 52224, Note_on_c, 0, 47, 75
1, 52224, Note_on_c, 0, 59, 75
1, 52736, Note_on_c, 0, 71, 75
1, 52736, Note_on_c, 0, 75, 75
1, 52736, Note_on_c, 0, 78, 75
1, 53146, Note_on_c, 0, 71, 0
1, 53146, Note_on_c, 0, 75, 0
1, 53146, Note_on_c, 0, 78, 0
1, 53248, Note_on_c, 0, 47, 0
1, 53248, Note_on_c, 0, 59, 0
1, 53248, Note_on_c, 0, 52, 75
1, 53504, Note_on_c, 0, 80, 75
1, 53658, Note_on_c, 0, 52, 0
1, 53760, Note_on_c, 0, 56, 75
1, 54016, Note_on_c, 0, 80, 0
1, 54016, Note_on_c, 0, 76, 75
1, 54170, Note_on_c, 0, 56, 0
1, 54272, Note_on_c, 0, 54, 75
1, 54528, Note_on_c, 0, 76, 0
1, 54528, Note_on_c, 0, 75, 75
1, 54682, Note_on_c, 0, 54, 0
1, 54784, Note_on_c, 0, 58, 75
1, 55040, Note_on_c, 0, 75, 0
1, 55040, Note_on_c, 0, 73, 75
1, 55194, Note_on_c, 0, 58, 0
1, 55296, Note_on_c, 0, 73, 0
1, 55296, Note_on_c, 0, 75, 75
1, 55296, Note_on_c, 0, 59, 75
1, 55467, Note_on_c, 0, 75, 0
1, 55467, Note_on_c, 0, 73, 75
1, 55637, Note_on_c, 0, 73, 0
1, 55637, Note_on_c, 0, 71, 75
1, 55808, Note_on_c, 0, 71, 0
1, 55808, Note_on_c, 0, 75, 75
1, 55808, Note_on_c, 0, 78, 75
1, 55808, Note_on_c, 0, 83, 75
1, 56115, Note_on_c, 0, 59, 0
1, 56320, Note_on_c, 0, 75, 0
1, 56320, Note_on_c, 0, 78, 0
1, 56320, Note_on_c, 0, 83, 0
1, 56320, Note_on_c, 0, 51, 75
1, 56320, Note_on_c, 0, 54, 75
1, 56320, Note_on_c, 0, 59, 75
1, 56832, Note_on_c, 0, 71, 75
1, 56832, Note_on_c, 0, 75, 75
1, 56832, Note_on_c, 0, 78, 75
1, 57139, Note_on_c, 0, 51, 0
1, 57139, Note_on_c, 0, 54, 0
1, 57139, Note_on_c, 0, 59, 0
1, 57242, Note_on_c, 0, 71, 0
1, 57242, Note_on_c, 0, 75, 0
1, 57242, Note_on_c, 0, 78, 0
1, 57344, Note_on_c, 0, 80, 75
1, 57344, Note_on_c, 0, 52, 75
1, 57515, Note_on_c, 0, 80, 0
1, 57515, Note_on_c, 0, 78, 75
1, 57685, Note_on_c, 0, 78, 0
1, 57685, Note_on_c, 0, 76, 75
1, 57856, Note_on_c, 0, 76, 0
1, 57856, Note_on_c, 0, 75, 75
1, 57856, Note_on_c, 0, 59, 75
1, 58027, Note_on_c, 0, 75, 0
1, 58027, Note_on_c, 0, 73, 75
1, 58163, Note_on_c, 0, 52, 0
1, 58197, Note_on_c, 0, 73, 0
1, 58197, Note_on_c, 0, 71, 75
1, 58368, Note_on_c, 0, 71, 0
1, 58368, Note_on_c, 0, 73, 75
1, 58368, Note_on_c, 0, 54, 75
1, 58496, Note_on_c, 0, 73, 0
1, 58496, Note_on_c, 0, 75, 75
1, 58624, Note_on_c, 0, 75, 0
1, 58624, Note_on_c, 0, 73, 75
1, 58752, Note_on_c, 0, 73, 0
1, 58752, Note_on_c, 0, 75, 75
1, 58880, Note_on_c, 0, 75, 0
1, 58880, Note_on_c, 0, 73, 75
1, 58880, Note_on_c, 0, 59, 0
1, 58880, Note_on_c, 0, 58, 75
1, 59008, Note_on_c, 0, 73, 0
1, 59008, Note_on_c, 0, 75, 75
1, 59136, Note_on_c, 0, 75, 0
1, 59136, Note_on_c, 0, 73, 75
1, 59187, Note_on_c, 0, 54, 0
1, 59392, Note_on_c, 0, 73, 0
1, 59392, Note_on_c, 0, 58, 0
1, 59392, Note_on_c, 0, 71, 75
1, 59392, Note_on_c, 0, 59, 75
1, 59648, Note_on_c, 0, 59, 0
1, 59904, Note_on_c, 0, 54, 75
1, 60160, Note_on_c, 0, 54, 0
1, 60416, Note_on_c, 0, 71, 0
1, 60416, Note_on_c, 0, 47, 75
1, 61235, Note_on_c, 0, 47, 0
1, 61440, Note_on_c, 0, 64, 88
1, 61440, Note_on_c, 0, 68, 88
1, 61440, Note_on_c, 0, 71, 88
1, 61440, Note_on_c, 0, 76, 88
1, 61440, Note_on_c, 0, 40, 88
1, 61440, Note_on_c, 0, 52, 88
1, 62208, Note_on_c, 0, 64, 0
1, 62208, Note_on_c, 0, 68, 0
1, 62208, Note_on_c, 0, 71, 0
1, 62208, Note_on_c, 0, 76, 0
1, 62208, Note_on_c, 0, 64, 62
1, 62208, Note_on_c, 0, 40, 0
1, 62208, Note_on_c, 0, 52, 0
1, 62464, Note_on_c, 0, 64, 0
1, 62464, Note_on_c, 0, 68, 62
1, 62464, Note_on_c, 0, 64, 62
1, 62874, Note_on_c, 0, 68, 0
1, 62874, Note_on_c, 0, 64, 0
1, 62976, Note_on_c, 0, 69, 62
1, 62976, Note_on_c, 0, 66, 62
1, 63386, Note_on_c, 0, 69, 0
1, 63386, Note_on_c, 0, 66, 0
1, 63488, Note_on_c, 0, 71, 62
1, 63488, Note_on_c, 0, 68, 62
1, 63616, Note_on_c, 0, 71, 0
1, 63616, Note_on_c, 0, 73, 62
1, 63744, Note_on_c, 0, 73, 0
1, 63744, Note_on_c, 0, 71, 62
1, 64256, Note_on_c, 0, 71, 0
1, 64256, Note_on_c, 0, 73, 62
1, 64256, Note_on_c, 0, 68, 0
1, 64256, Note_on_c, 0, 69, 62
1, 64512, Note_on_c, 0, 73, 0
1, 64512, Note_on_c, 0, 71, 62
1, 64512, Note_on_c, 0, 69, 0
1, 64512, Note_on_c, 0, 68, 62
1, 65024, Note_on_c, 0, 71, 0
1, 65024, Note_on_c, 0, 69, 75
1, 65024, Note_on_c, 0, 68, 0
1, 65024, Note_on_c, 0, 63, 75
1, 65152, Note_on_c, 0, 69, 0
1, 65152, Note_on_c, 0, 71, 75
1, 65280, Note_on_c, 0, 71, 0
1, 65280, Note_on_c, 0, 69, 75
1, 65408, Note_on_c, 0, 69, 0
1, 65408, Note_on_c, 0, 71, 75
1, 65536, Note_on_c, 0, 71, 0
1, 65536, Note_on_c, 0, 63, 0
1, 65536, Note_on_c, 0, 68, 75
1, 65536, Note_on_c, 0, 64, 75
1, 66048, Note_on_c, 0, 68, 0
1, 66048, Note_on_c, 0, 59, 75
1, 66048, Note_on_c, 0, 64, 75
1, 66048, Note_on_c, 0, 64, 0
1, 66048, Note_on_c, 0, 44, 75
1, 66048, Note_on_c, 0, 56, 75
1, 66458, Note_on_c, 0, 59, 0
1, 66458, Note_on_c, 0, 64, 0
1, 66458, Note_on_c, 0, 44, 0
1, 66458, Note_on_c, 0, 56, 0
1, 66560, Note_on_c, 0, 61, 75
1, 66560, Note_on_c, 0, 66, 75
1, 66560, Note_on_c, 0, 45, 75
1, 66560, Note_on_c, 0, 57, 75
1, 66970, Note_on_c, 0, 61, 0
1, 66970, Note_on_c, 0, 66, 0
1, 66970, Note_on_c, 0, 45, 0
1, 66970, Note_on_c, 0, 57, 0
1, 67072, Note_on_c, 0, 63, 75
1, 67072, Note_on_c, 0, 47, 75
1, 67072, Note_on_c, 0, 54, 75
1, 67482, Note_on_c, 0, 63, 0
1, 67482, Note_on_c, 0, 47, 0
1, 67482, Note_on_c, 0, 54, 0
1, 67584, Note_on_c, 0, 64, 75
1, 67584, Note_on_c, 0, 40, 75
1, 67584, Note_on_c, 0, 52, 75
1, 67755, Note_on_c, 0, 64, 0
1, 67755, Note_on_c, 0, 66, 75
1, 67925, Note_on_c, 0, 66, 0
1, 67925, Note_on_c, 0, 68, 75
1, 68096, Note_on_c, 0, 68, 0
1, 68096, Note_on_c, 0, 59, 75
1, 68608, Note_on_c, 0, 59, 0
1, 68608, Note_on_c, 0, 40, 0
1, 68608, Note_on_c, 0, 52, 0
1, 68736, Note_on_c, 0, 64, 81
1, 68864, Note_on_c, 0, 64, 0
1, 68864, Note_on_c, 0, 66, 81
1, 68992, Note_on_c, 0, 66, 0
1, 68992, Note_on_c, 0, 68, 81
1, 69120, Note_on_c, 0, 68, 0
1, 69120, Note_on_c, 0, 69, 87
1, 69248, Note_on_c, 0, 69, 0
1, 69248, Note_on_c, 0, 71, 87
1, 69376, Note_on_c, 0, 71, 0
1, 69376, Note_on_c, 0, 73, 87
1, 69504, Note_on_c, 0, 73, 0
1, 69504, Note_on_c, 0, 75, 87
1, 69632, Note_on_c, 0, 75, 0
1, 69632, Note_on_c, 0, 76, 94
1, 69632, Note_on_c, 0, 52, 94
1, 69632, Note_on_c, 0, 56, 94
1, 69632, Note_on_c, 0, 59, 94
1, 70400, Note_on_c, 0, 76, 0
1, 70400, Note_on_c, 0, 68, 70
1, 70400, Note_on_c, 0, 52, 0
1, 70400, Note_on_c, 0, 56, 0
1, 70400, Note_on_c, 0, 59, 0
1, 70400, Note_on_c, 0, 64, 70
1, 70656, Note_on_c, 0, 68, 0
1, 70656, Note_on_c, 0, 69, 76
1, 70656, Note_on_c, 0, 64, 0
1, 70656, Note_on_c, 0, 66, 76
1, 71066, Note_on_c, 0, 69, 0
1, 71066, Note_on_c, 0, 66, 0
1, 71168, Note_on_c, 0, 71, 82
1, 71168, Note_on_c, 0, 68, 82
1, 71578, Note_on_c, 0, 71, 0
1, 71578, Note_on_c, 0, 68, 0
1, 71680, Note_on_c, 0, 73, 88
1, 71680, Note_on_c, 0, 69, 88
1, 72090, Note_on_c, 0, 69, 0
1, 72192, Note_on_c, 0, 57, 88
1, 72448, Note_on_c, 0, 73, 0
1, 72448, Note_on_c, 0, 76, 88
1, 72602, Note_on_c, 0, 57, 0
1, 72704, Note_on_c, 0, 76, 0
1, 72704, Note_on_c, 0, 71, 88
1, 72704, Note_on_c, 0, 68, 88
1, 73114, Note_on_c, 0, 71, 0
1, 73114, Note_on_c, 0, 68, 0
1, 73216, Note_on_c, 0, 68, 88
1, 73216, Note_on_c, 0, 64, 88
1, 73626, Note_on_c, 0, 68, 0
1, 73626, Note_on_c, 0, 64, 0
1, 73728, Note_on_c, 0, 51, 62
1, 73984, Note_on_c, 0, 69, 62
1, 74138, Note_on_c, 0, 51, 0
1, 74240, Note_on_c, 0, 59, 62
1, 74496, Note_on_c, 0, 69, 0
1, 74496, Note_on_c, 0, 66, 62
1, 74650, Note_on_c, 0, 59, 0
1, 74752, Note_on_c, 0, 52, 62
1, 75008, Note_on_c, 0, 66, 0
1, 75008, Note_on_c, 0, 68, 62
1, 75162, Note_on_c, 0, 52, 0
1, 75264, Note_on_c, 0, 59, 62
1, 75520, Note_on_c, 0, 68, 0
1, 75520, Note_on_c, 0, 64, 62
1, 75674, Note_on_c, 0, 59, 0
1, 75776, Note_on_c, 0, 64, 0
1, 75776, Note_on_c, 0, 51, 62
1, 76032, Note_on_c, 0, 78, 62
1, 76186, Note_on_c, 0, 51, 0
1, 76288, Note_on_c, 0, 59, 62
1, 76544, Note_on_c, 0, 78, 0
1, 76544, Note_on_c, 0, 69, 62
1, 76698, Note_on_c, 0, 59, 0
1, 76800, Note_on_c, 0, 52, 62
1, 77056, Note_on_c, 0, 69, 0
1, 77056, Note_on_c, 0, 68, 62
1, 77210, Note_on_c, 0, 52, 0
1, 77312, Note_on_c, 0, 59, 62
1, 77568, Note_on_c, 0, 68, 0
1, 77568, Note_on_c, 0, 71, 62
1, 77722, Note_on_c, 0, 59, 0
1, 77824, Note_on_c, 0, 71, 0
1, 77824, Note_on_c, 0, 51, 101
1, 78080, Note_on_c, 0, 69, 101
1, 78234, Note_on_c, 0, 51, 0
1, 78336, Note_on_c, 0, 59, 101
1, 78592, Note_on_c, 0, 69, 0
1, 78592, Note_on_c, 0, 66, 101
1, 78746, Note_on_c, 0, 59, 0
1, 78848, Note_on_c, 0, 52, 101
1, 79104, Note_on_c, 0, 66, 0
1, 79104, Note_on_c, 0, 68, 101
1, 79258, Note_on_c, 0, 52, 0
1, 79360, Note_on_c, 0, 59, 101
1, 79616, Note_on_c, 0, 68, 0
1, 79616, Note_on_c, 0, 64, 101
1, 79770, Note_on_c, 0, 59, 0
1, 79872, Note_on_c, 0, 64, 0
1, 79872, Note_on_c, 0, 51, 101
1, 80128, Note_on_c, 0, 78, 101
1, 80282, Note_on_c, 0, 51, 0
1, 80384, Note_on_c, 0, 59, 101
1, 80640, Note_on_c, 0, 78, 0
1, 80640, Note_on_c, 0, 69, 101
1, 80794, Note_on_c, 0, 59, 0
1, 80896, Note_on_c, 0, 52, 101
1, 81152, Note_on_c, 0, 69, 0
1, 81152, Note_on_c, 0, 68, 101
1, 81306, Note_on_c, 0, 52, 0
1, 81408, Note_on_c, 0, 56, 101
1, 81664, Note_on_c, 0, 68, 0
1, 81664, Note_on_c, 0, 76, 101
1, 81818, Note_on_c, 0, 56, 0
1, 81920, Note_on_c, 0, 76, 0
1, 81920, Note_on_c, 0, 57, 101
1, 82176, Note_on_c, 0, 73, 101
1, 82432, Note_on_c, 0, 73, 0
1, 82432, Note_on_c, 0, 65, 101
1, 82688, Note_on_c, 0, 65, 0
1, 82688, Note_on_c, 0, 66, 101
1, 82944, Note_on_c, 0, 66, 0
1, 82944, Note_on_c, 0, 73, 101
1, 82944, Note_on_c, 0, 57, 0
1, 82944, Note_on_c, 0, 54, 101
1, 83115, Note_on_c, 0, 73, 0
1, 83115, Note_on_c, 0, 71, 101
1, 83285, Note_on_c, 0, 71, 0
1, 83285, Note_on_c, 0, 69, 101
1, 83354, Note_on_c, 0, 54, 0
1, 83456, Note_on_c, 0, 69, 0
1, 83456, Note_on_c, 0, 68, 101
1, 83456, Note_on_c, 0, 58, 101
1, 83627, Note_on_c, 0, 68, 0
1, 83627, Note_on_c, 0, 66, 101
1, 83797, Note_on_c, 0, 66, 0
1, 83797, Note_on_c, 0, 64, 101
1, 83866, Note_on_c, 0, 58, 0
1, 83968, Note_on_c, 0, 64, 0
1, 83968, Note_on_c, 0, 63, 101
1, 83968, Note_on_c, 0, 59, 101
1, 84139, Note_on_c, 0, 63, 0
1, 84139, Note_on_c, 0, 64, 101
1, 84309, Note_on_c, 0, 64, 0
1, 84309, Note_on_c, 0, 66, 101
1, 84378, Note_on_c, 0, 59, 0
1, 84480, Note_on_c, 0, 66, 0
1, 84480, Note_on_c, 0, 59, 101
1, 84480, Note_on_c, 0, 47, 101
1, 84890, Note_on_c, 0, 47, 0
1, 84992, Note_on_c, 0, 59, 0
1, 84992, Note_on_c, 0, 51, 62
1, 85248, Note_on_c, 0, 51, 0
1, 85248, Note_on_c, 0, 47, 62
1, 85504, Note_on_c, 0, 47, 0
1, 85504, Note_on_c, 0, 54, 62
1, 85760, Note_on_c, 0, 54, 0
1, 85760, Note_on_c, 0, 52, 62
1, 86016, Note_on_c, 0, 52, 0
1, 86016, Note_on_c, 0, 66, 62
1, 86016, Note_on_c, 0, 51, 62
1, 86272, Note_on_c, 0, 66, 0
1, 86272, Note_on_c, 0, 71, 62
1, 86528, Note_on_c, 0, 71, 0
1, 86528, Note_on_c, 0, 71, 62
1, 86733, Note_on_c, 0, 71, 0
1, 86784, Note_on_c, 0, 71, 62
1, 86989, Note_on_c, 0, 71, 0
1, 87040, Note_on_c, 0, 71, 62
1, 87296, Note_on_c, 0, 71, 0
1, 87296, Note_on_c, 0, 69, 62
1, 87296, Note_on_c, 0, 59, 62
1, 87552, Note_on_c, 0, 69, 0
1, 87552, Note_on_c, 0, 68, 62
1, 87552, Note_on_c, 0, 59, 0
1, 87552, Note_on_c, 0, 59, 62
1, 87808, Note_on_c, 0, 68, 0
1, 87808, Note_on_c, 0, 66, 62
1, 87808, Note_on_c, 0, 59, 0
1, 87808, Note_on_c, 0, 59, 62
1, 88064, Note_on_c, 0, 66, 0
1, 88064, Note_on_c, 0, 59, 0
1, 88064, Note_on_c, 0, 51, 0
1, 88064, Note_on_c, 0, 68, 62
1, 88064, Note_on_c, 0, 59, 62
1, 88064, Note_on_c, 0, 52, 62
1, 88320, Note_on_c, 0, 68, 0
1, 88320, Note_on_c, 0, 71, 62
1, 88474, Note_on_c, 0, 52, 0
1, 88576, Note_on_c, 0, 71, 0
1, 88576, Note_on_c, 0, 63, 62
1, 88576, Note_on_c, 0, 54, 62
1, 88832, Note_on_c, 0, 63, 0
1, 88832, Note_on_c, 0, 66, 62
1, 88986, Note_on_c, 0, 54, 0
1, 89088, Note_on_c, 0, 66, 0
1, 89088, Note_on_c, 0, 64, 62
1, 89088, Note_on_c, 0, 56, 62
1, 89344, Note_on_c, 0, 64, 0
1, 89344, Note_on_c, 0, 68, 62
1, 89498, Note_on_c, 0, 56, 0
1, 89600, Note_on_c, 0, 68, 0
1, 89600, Note_on_c, 0, 66, 62
1, 89600, Note_on_c, 0, 51, 62
1, 89856, Note_on_c, 0, 66, 0
1, 89856, Note_on_c, 0, 69, 62
1, 90010, Note_on_c, 0, 51, 0
1, 90112, Note_on_c, 0, 69, 0
1, 90112, Note_on_c, 0, 59, 0
1, 90112, Note_on_c, 0, 68, 62
1, 90112, Note_on_c, 0, 59, 62
1, 90112, Note_on_c, 0, 52, 62
1, 90368, Note_on_c, 0, 68, 0
1, 90368, Note_on_c, 0, 71, 62
1, 90522, Note_on_c, 0, 52, 0
1, 90624, Note_on_c, 0, 71, 0
1, 90624, Note_on_c, 0, 63, 62
1, 90624, Note_on_c, 0, 54, 62
1, 90880, Note_on_c, 0, 63, 0
1, 90880, Note_on_c, 0, 66, 62
1, 91034, Note_on_c, 0, 54, 0
1, 91136, Note_on_c, 0, 66, 0
1, 91136, Note_on_c, 0, 64, 62
1, 91136, Note_on_c, 0, 56, 62
1, 91392, Note_on_c, 0, 64, 0
1, 91392, Note_on_c, 0, 68, 62
1, 91546, Note_on_c, 0, 56, 0
1, 91648, Note_on_c, 0, 68, 0
1, 91648, Note_on_c, 0, 66, 62
1, 91648, Note_on_c, 0, 51, 62
1, 91904, Note_on_c, 0, 66, 0
1, 91904, Note_on_c, 0, 69, 62
1, 92058, Note_on_c, 0, 51, 0
1, 92160, Note_on_c, 0, 69, 0
1, 92160, Note_on_c, 0, 59, 0
1, 92160, Note_on_c, 0, 68, 62
1, 92160, Note_on_c, 0, 52, 62
1, 92416, Note_on_c, 0, 68, 0
1, 92416, Note_on_c, 0, 73, 62
1, 92672, Note_on_c, 0, 73, 0
1, 92672, Note_on_c, 0, 73, 62
1, 92877, Note_on_c, 0, 73, 0
1, 92928, Note_on_c, 0, 73, 62
1, 93133, Note_on_c, 0, 73, 0
1, 93184, Note_on_c, 0, 73, 68
1, 93184, Note_on_c, 0, 52, 0
1, 93184, Note_on_c, 0, 53, 68
1, 93440, Note_on_c, 0, 73, 0
1, 93440, Note_on_c, 0, 71, 68
1, 93440, Note_on_c, 0, 61, 68
1, 93696, Note_on_c, 0, 71, 0
1, 93696, Note_on_c, 0, 70, 74
1, 93696, Note_on_c, 0, 61, 0
1, 93696, Note_on_c, 0, 61, 74
1, 93952, Note_on_c, 0, 70, 0
1, 93952, Note_on_c, 0, 68, 74
1, 93952, Note_on_c, 0, 61, 0
1, 93952, Note_on_c, 0, 61, 74
1, 94208, Note_on_c, 0, 68, 0
1, 94208, Note_on_c, 0, 61, 0
1, 94208, Note_on_c, 0, 53, 0
1, 94208, Note_on_c, 0, 70, 80
1, 94208, Note_on_c, 0, 61, 80
1, 94208, Note_on_c, 0, 54, 80
1, 94464, Note_on_c, 0, 70, 0
1, 94464, Note_on_c, 0, 73, 80
1, 94618, Note_on_c, 0, 54, 0
1, 94720, Note_on_c, 0, 73, 0
1, 94720, Note_on_c, 0, 65, 88
1, 94720, Note_on_c, 0, 56, 88
1, 94976, Note_on_c, 0, 65, 0
1, 94976, Note_on_c, 0, 68, 88
1, 95130, Note_on_c, 0, 56, 0
1, 95232, Note_on_c, 0, 68, 0
1, 95232, Note_on_c, 0, 66, 94
1, 95232, Note_on_c, 0, 58, 94
1, 95488, Note_on_c, 0, 66, 0
1, 95488, Note_on_c, 0, 70, 94
1, 95642, Note_on_c, 0, 58, 0
1, 95744, Note_on_c, 0, 70, 0
1, 95744, Note_on_c, 0, 68, 100
1, 95744, Note_on_c, 0, 53, 100
1, 96000, Note_on_c, 0, 68, 0
1, 96000, Note_on_c, 0, 71, 100
1, 96154, Note_on_c, 0, 53, 0
1, 96256, Note_on_c, 0, 71, 0
1, 96256, Note_on_c, 0, 61, 0
1, 96256, Note_on_c, 0, 70, 106
1, 96256, Note_on_c, 0, 61, 106
1, 96256, Note_on_c, 0, 54, 106
1, 96512, Note_on_c, 0, 70, 0
1, 96512, Note_on_c, 0, 73, 106
1, 96666, Note_on_c, 0, 54, 0
1, 96768, Note_on_c, 0, 73, 0
1, 96768, Note_on_c, 0, 65, 106
1, 96768, Note_on_c, 0, 56, 106
1, 97024, Note_on_c, 0, 65, 0
1, 97024, Note_on_c, 0, 68, 106
1, 97178, Note_on_c, 0, 56, 0
1, 97280, Note_on_c, 0, 68, 0
1, 97280, Note_on_c, 0, 66, 106
1, 97280, Note_on_c, 0, 58, 106
1, 97536, Note_on_c, 0, 66, 0
1, 97536, Note_on_c, 0, 70, 106
1, 97690, Note_on_c, 0, 58, 0
1, 97792, Note_on_c, 0, 70, 0
1, 97792, Note_on_c, 0, 68, 106
1, 97792, Note_on_c, 0, 53, 106
1, 98048, Note_on_c, 0, 68, 0
1, 98048, Note_on_c, 0, 71, 106
1, 98202, Note_on_c, 0, 53, 0
1, 98304, Note_on_c, 0, 71, 0
1, 98304, Note_on_c, 0, 61, 0
1, 98304, Note_on_c, 0, 70, 106
1, 98304, Note_on_c, 0, 54, 106
1, 98560, Note_on_c, 0, 70, 0
1, 98560, Note_on_c, 0, 73, 106
1, 98714, Note_on_c, 0, 54, 0
1, 98816, Note_on_c, 0, 73, 0
1, 98816, Note_on_c, 0, 71, 106
1, 98816, Note_on_c, 0, 56, 106
1, 99072, Note_on_c, 0, 71, 0
1, 99072, Note_on_c, 0, 75, 106
1, 99226, Note_on_c, 0, 56, 0
1, 99328, Note_on_c, 0, 75, 0
1, 99328, Note_on_c, 0, 73, 106
1, 99328, Note_on_c, 0, 58, 106
1, 99584, Note_on_c, 0, 73, 0
1, 99584, Note_on_c, 0, 76, 106
1, 99738, Note_on_c, 0, 58, 0
1, 99840, Note_on_c, 0, 76, 0
1, 99840, Note_on_c, 0, 75, 106
1, 99840, Note_on_c, 0, 59, 106
1, 100096, Note_on_c, 0, 75, 0
1, 100096, Note_on_c, 0, 78, 106
1, 100250, Note_on_c, 0, 59, 0
1, 100352, Note_on_c, 0, 78, 0
1, 100352, Note_on_c, 0, 78, 114
1, 100352, Note_on_c, 0, 61, 114
1, 100608, Note_on_c, 0, 78, 0
1, 100608, Note_on_c, 0, 76, 114
1, 100762, Note_on_c, 0, 61, 0
1, 100864, Note_on_c, 0, 76, 0
1, 100864, Note_on_c, 0, 76, 114
1, 100864, Note_on_c, 0, 59, 114
1, 101120, Note_on_c, 0, 76, 0
1, 101120, Note_on_c, 0, 75, 114
1, 101274, Note_on_c, 0, 59, 0
1, 101376, Note_on_c, 0, 75, 0
1, 101376, Note_on_c, 0, 75, 114
1, 101376, Note_on_c, 0, 58, 114
1, 101632, Note_on_c, 0, 75, 0
1, 101632, Note_on_c, 0, 73, 114
1, 101786, Note_on_c, 0, 58, 0
1, 101888, Note_on_c, 0, 73, 0
1, 101888, Note_on_c, 0, 73, 114
1, 101888, Note_on_c, 0, 56, 114
1, 102144, Note_on_c, 0, 73, 0
1, 102144, Note_on_c, 0, 71, 114
1, 102298, Note_on_c, 0, 56, 0
1, 102400, Note_on_c, 0, 71, 0
1, 102400, Note_on_c, 0, 71, 114
1, 102400, Note_on_c, 0, 54, 114
1, 102656, Note_on_c, 0, 71, 0
1, 102656, Note_on_c, 0, 70, 114
1, 102810, Note_on_c, 0, 54, 0
1, 102912, Note_on_c, 0, 70, 0
1, 102912, Note_on_c, 0, 70, 114
1, 102912, Note_on_c, 0, 52, 114
1, 103168, Note_on_c, 0, 70, 0
1, 103168, Note_on_c, 0, 68, 114
1, 103322, Note_on_c, 0, 52, 0
1, 103424, Note_on_c, 0, 68, 0
1, 103424, Note_on_c, 0, 68, 114
1, 103424, Note_on_c, 0, 51, 114
1, 103680, Note_on_c, 0, 68, 0
1, 103680, Note_on_c, 0, 66, 114
1, 103834, Note_on_c, 0, 51, 0
1, 103936, Note_on_c, 0, 66, 0
1, 103936, Note_on_c, 0, 66, 114
1, 103936, Note_on_c, 0, 49, 114
1, 104192, Note_on_c, 0, 66, 0
1, 104192, Note_on_c, 0, 64, 114
1, 104346, Note_on_c, 0, 49, 0
1, 104448, Note_on_c, 0, 64, 0
1, 104448, Note_on_c, 0, 63, 114
1, 104448, Note_on_c, 0, 47, 114
1, 104619, Note_on_c, 0, 63, 0
1, 104619, Note_on_c, 0, 64, 114
1, 104789, Note_on_c, 0, 64, 0
1, 104789, Note_on_c, 0, 66, 114
1, 104960, Note_on_c, 0, 66, 0
1, 104960, Note_on_c, 0, 59, 114
1, 105131, Note_on_c, 0, 59, 0
1, 105131, Note_on_c, 0, 64, 114
1, 105301, Note_on_c, 0, 64, 0
1, 105301, Note_on_c, 0, 61, 114
1, 105472, Note_on_c, 0, 61, 0
1, 105472, Note_on_c, 0, 61, 114
1, 105472, Note_on_c, 0, 47, 0
1, 105472, Note_on_c, 0, 54, 114
1, 105600, Note_on_c, 0, 61, 0
1, 105600, Note_on_c, 0, 63, 114
1, 105728, Note_on_c, 0, 63, 0
1, 105728, Note_on_c, 0, 61, 114
1, 105856, Note_on_c, 0, 61, 0
1, 105856, Note_on_c, 0, 63, 114
1, 105882, Note_on_c, 0, 54, 0
1, 105984, Note_on_c, 0, 63, 0
1, 105984, Note_on_c, 0, 61, 114
1, 105984, Note_on_c, 0, 42, 114
1, 106112, Note_on_c, 0, 61, 0
1, 106112, Note_on_c, 0, 63, 114
1, 106240, Note_on_c, 0, 63, 0
1, 106240, Note_on_c, 0, 61, 114
1, 106394, Note_on_c, 0, 42, 0
1, 106496, Note_on_c, 0, 61, 0
1, 106496, Note_on_c, 0, 59, 114
1, 106496, Note_on_c, 0, 47, 114
1, 106906, Note_on_c, 0, 47, 0
1, 107008, Note_on_c, 0, 35, 114
1, 107264, Note_on_c, 0, 59, 0
1, 107264, Note_on_c, 0, 78, 75
1, 107418, Note_on_c, 0, 35, 0
1, 107520, Note_on_c, 0, 78, 0
1, 107520, Note_on_c, 0, 71, 75
1, 108032, Note_on_c, 0, 71, 0
1, 108032, Note_on_c, 0, 73, 75
1, 108544, Note_on_c, 0, 73, 0
1, 108544, Note_on_c, 0, 75, 75
1, 108544, Note_on_c, 0, 71, 75
1, 108544, Note_on_c, 0, 42, 75
1, 108544, Note_on_c, 0, 54, 75
1, 109056, Note_on_c, 0, 75, 0
1, 109056, Note_on_c, 0, 73, 75
1, 109056, Note_on_c, 0, 71, 0
1, 109056, Note_on_c, 0, 70, 75
1, 109363, Note_on_c, 0, 42, 0
1, 109363, Note_on_c, 0, 54, 0
1, 109440, Note_on_c, 0, 73, 0
1, 109440, Note_on_c, 0, 78, 75
1, 109568, Note_on_c, 0, 78, 0
1, 109568, Note_on_c, 0, 73, 75
1, 109568, Note_on_c, 0, 70, 0
1, 109568, Note_on_c, 0, 70, 75
1, 109978, Note_on_c, 0, 73, 0
1, 109978, Note_on_c, 0, 70, 0
1, 110080, Note_on_c, 0, 75, 75
1, 110080, Note_on_c, 0, 71, 75
1, 110490, Note_on_c, 0, 75, 0
1, 110490, Note_on_c, 0, 71, 0
1, 110592, Note_on_c, 0, 76, 75
1, 110592, Note_on_c, 0, 73, 75
1, 110592, Note_on_c, 0, 42, 75
1, 110592, Note_on_c, 0, 54, 75
1, 111002, Note_on_c, 0, 42, 0
1, 111002, Note_on_c, 0, 54, 0
1, 111104, Note_on_c, 0, 76, 0
1, 111104, Note_on_c, 0, 75, 75
1, 111104, Note_on_c, 0, 73, 0
1, 111104, Note_on_c, 0, 71, 75
1, 111104, Note_on_c, 0, 47, 75
1, 111104, Note_on_c, 0, 59, 75
1, 111488, Note_on_c, 0, 75, 0
1, 111488, Note_on_c, 0, 78, 75
1, 111514, Note_on_c, 0, 47, 0
1, 111514, Note_on_c, 0, 59, 0
1, 111616, Note_on_c, 0, 78, 0
1, 111616, Note_on_c, 0, 75, 75
1, 111616, Note_on_c, 0, 71, 0
1, 111616, Note_on_c, 0, 71, 75
1, 112026, Note_on_c, 0, 75, 0
1, 112026, Note_on_c, 0, 71, 0
1, 112128, Note_on_c, 0, 76, 75
1, 112128, Note_on_c, 0, 73, 75
1, 112538, Note_on_c, 0, 76, 0
1, 112538, Note_on_c, 0, 73, 0
1, 112640, Note_on_c, 0, 75, 75
1, 112640, Note_on_c, 0, 78, 75
1, 112640, Note_on_c, 0, 47, 75
1, 112640, Note_on_c, 0, 59, 75
1, 113050, Note_on_c, 0, 75, 0
1, 113050, Note_on_c, 0, 78, 0
1, 113152, Note_on_c, 0, 75, 75
1, 113152, Note_on_c, 0, 78, 75
1, 113152, Note_on_c, 0, 83, 75
1, 113562, Note_on_c, 0, 75, 0
1, 113562, Note_on_c, 0, 78, 0
1, 113562, Note_on_c, 0, 83, 0
1, 113664, Note_on_c, 0, 47, 0
1, 113664, Note_on_c, 0, 59, 0
1, 113664, Note_on_c, 0, 47, 75
1, 113664, Note_on_c, 0, 59, 75
1, 114176, Note_on_c, 0, 71, 75
1, 114176, Note_on_c, 0, 75, 75
1, 114176, Note_on_c, 0, 78, 75
1, 114586, Note_on_c, 0, 71, 0
1, 114586, Note_on_c, 0, 75, 0
1, 114586, Note_on_c, 0, 78, 0
1, 114688, Note_on_c, 0, 47, 0
1, 114688, Note_on_c, 0, 59, 0
1, 114688, Note_on_c, 0, 52, 75
1, 114944, Note_on_c, 0, 80, 75
1, 115098, Note_on_c, 0, 52, 0
1, 115200, Note_on_c, 0, 56, 75
1, 115456, Note_on_c, 0, 80, 0
1, 115456, Note_on_c, 0, 76, 75
1, 115610, Note_on_c, 0, 56, 0
1, 115712, Note_on_c, 0, 54, 75
1, 115968, Note_on_c, 0, 76, 0
1, 115968, Note_on_c, 0, 75, 75
1, 116122, Note_on_c, 0, 54, 0
1, 116224, Note_on_c, 0, 58, 75
1, 116480, Note_on_c, 0, 75, 0
1, 116480, Note_on_c, 0, 73, 75
1, 116634, Note_on_c, 0, 58, 0
1, 116736, Note_on_c, 0, 73, 0
1, 116736, Note_on_c, 0, 75, 75
1, 116736, Note_on_c, 0, 59, 75
1, 116907, Note_on_c, 0, 75, 0
1, 116907, Note_on_c, 0, 73, 75
1, 117077, Note_on_c, 0, 73, 0
1, 117077, Note_on_c, 0, 71, 75
1, 117248, Note_on_c, 0, 71, 0
1, 117248, Note_on_c, 0, 75, 75
1, 117248, Note_on_c, 0, 78, 75
1, 117248, Note_on_c, 0, 83, 75
1, 117555, Note_on_c, 0, 59, 0
1, 117760, Note_on_c, 0, 75, 0
1, 117760, Note_on_c, 0, 78, 0
1, 117760, Note_on_c, 0, 83, 0
1, 117760, Note_on_c, 0, 51, 75
1, 117760, Note_on_c, 0, 54, 75
1, 117760, Note_on_c, 0, 59, 75
1, 118272, Note_on_c, 0, 71, 75
1, 118272, Note_on_c, 0, 75, 75
1, 118272, Note_on_c, 0, 78, 75
1, 118579, Note_on_c, 0, 51, 0
1, 118579, Note_on_c, 0, 54, 0
1, 118579, Note_on_c, 0, 59, 0
1, 118682, Note_on_c, 0, 71, 0
1, 118682, Note_on_c, 0, 75, 0
1, 118682, Note_on_c, 0, 78, 0
1, 118784, Note_on_c, 0, 80, 75
1, 118784, Note_on_c, 0, 52, 75
1, 118955, Note_on_c, 0, 80, 0
1, 118955, Note_on_c, 0, 78, 75
1, 119125, Note_on_c, 0, 78, 0
1, 119125, Note_on_c, 0, 76, 75
1, 119296, Note_on_c, 0, 76, 0
1, 119296, Note_on_c, 0, 75, 75
1, 119296, Note_on_c, 0, 59, 75
1, 119467, Note_on_c, 0, 75, 0
1, 119467, Note_on_c, 0, 73, 75
1, 119603, Note_on_c, 0, 52, 0
1, 119637, Note_on_c, 0, 73, 0
1, 119637, Note_on_c, 0, 71, 75
1, 119808, Note_on_c, 0, 71, 0
1, 119808, Note_on_c, 0, 73, 75
1, 119808, Note_on_c, 0, 54, 75
1, 119936, Note_on_c, 0, 73, 0
1, 119936, Note_on_c, 0, 75, 75
1, 120064, Note_on_c, 0, 75, 0
1, 120064, Note_on_c, 0, 73, 75
1, 120192, Note_on_c, 0, 73, 0
1, 120192, Note_on_c, 0, 75, 75
1, 120320, Note_on_c, 0, 75, 0
1, 120320, Note_on_c, 0, 73, 75
1, 120320, Note_on_c, 0, 59, 0
1, 120320, Note_on_c, 0, 58, 75
1, 120448, Note_on_c, 0, 73, 0
1, 120448, Note_on_c, 0, 75, 75
1, 120576, Note_on_c, 0, 75, 0
1, 120576, Note_on_c, 0, 73, 75
1, 120627, Note_on_c, 0, 54, 0
1, 120832, Note_on_c, 0, 73, 0
1, 120832, Note_on_c, 0, 58, 0
1, 120832, Note_on_c, 0, 71, 75
1, 120832, Note_on_c, 0, 59, 75
1, 121088, Note_on_c, 0, 59, 0
1, 121344, Note_on_c, 0, 54, 75
1, 121600, Note_on_c, 0, 54, 0
1, 121856, Note_on_c, 0, 71, 0
1, 121856, Note_on_c, 0, 47, 75
1, 122675, Note_on_c, 0, 47, 0
1, 122880, Note_on_c, 0, 71, 62
1, 122880, Note_on_c, 0, 47, 62
1, 122880, Note_on_c, 0, 59, 62
1, 123136, Note_on_c, 0, 71, 0
1, 123136, Note_on_c, 0, 83, 62
1, 123392, Note_on_c, 0, 83, 0
1, 123392, Note_on_c, 0, 83, 62
1, 123597, Note_on_c, 0, 83, 0
1, 123648, Note_on_c, 0, 83, 62
1, 123853, Note_on_c, 0, 83, 0
1, 123904, Note_on_c, 0, 83, 62
1, 123904, Note_on_c, 0, 47, 0
1, 123904, Note_on_c, 0, 59, 0
1, 124160, Note_on_c, 0, 83, 0
1, 124160, Note_on_c, 0, 80, 62
1, 124416, Note_on_c, 0, 80, 0
1, 124416, Note_on_c, 0, 81, 62
1, 124672, Note_on_c, 0, 81, 0
1, 124672, Note_on_c, 0, 78, 62
1, 124928, Note_on_c, 0, 78, 0
1, 124928, Note_on_c, 0, 80, 62
1, 124928, Note_on_c, 0, 59, 62
1, 125133, Note_on_c, 0, 80, 0
1, 125184, Note_on_c, 0, 80, 62
1, 125184, Note_on_c, 0, 71, 62
1, 125389, Note_on_c, 0, 80, 0
1, 125389, Note_on_c, 0, 71, 0
1, 125440, Note_on_c, 0, 80, 62
1, 125440, Note_on_c, 0, 71, 62
1, 125645, Note_on_c, 0, 80, 0
1, 125645, Note_on_c, 0, 71, 0
1, 125696, Note_on_c, 0, 80, 62
1, 125696, Note_on_c, 0, 71, 62
1, 125901, Note_on_c, 0, 80, 0
1, 125901, Note_on_c, 0, 71, 0
1, 125952, Note_on_c, 0, 80, 62
1, 125952, Note_on_c, 0, 71, 62
1, 126208, Note_on_c, 0, 80, 0
1, 126208, Note_on_c, 0, 76, 62
1, 126208, Note_on_c, 0, 71, 0
1, 126208, Note_on_c, 0, 68, 62
1, 126464, Note_on_c, 0, 76, 0
1, 126464, Note_on_c, 0, 78, 62
1, 126464, Note_on_c, 0, 68, 0
1, 126464, Note_on_c, 0, 69, 62
1, 126720, Note_on_c, 0, 78, 0
1, 126720, Note_on_c, 0, 75, 62
1, 126720, Note_on_c, 0, 69, 0
1, 126720, Note_on_c, 0, 66, 62
1, 126976, Note_on_c, 0, 75, 0
1, 126976, Note_on_c, 0, 66, 0
1, 126976, Note_on_c, 0, 59, 0
1, 126976, Note_on_c, 0, 76, 62
1, 126976, Note_on_c, 0, 68, 62
1, 126976, Note_on_c, 0, 59, 62
1, 127232, Note_on_c, 0, 76, 0
1, 127232, Note_on_c, 0, 80, 62
1, 127386, Note_on_c, 0, 68, 0
1, 127488, Note_on_c, 0, 80, 0
1, 127488, Note_on_c, 0, 78, 62
1, 127488, Note_on_c, 0, 63, 62
1, 127744, Note_on_c, 0, 78, 0
1, 127744, Note_on_c, 0, 81, 62
1, 127898, Note_on_c, 0, 63, 0
1, 128000, Note_on_c, 0, 81, 0
1, 128000, Note_on_c, 0, 80, 62
1, 128000, Note_on_c, 0, 64, 62
1, 128256, Note_on_c, 0, 80, 0
1, 128256, Note_on_c, 0, 83, 62
1, 128410, Note_on_c, 0, 64, 0
1, 128512, Note_on_c, 0, 83, 0
1, 128512, Note_on_c, 0, 75, 62
1, 128512, Note_on_c, 0, 66, 62
1, 128768, Note_on_c, 0, 75, 0
1, 128768, Note_on_c, 0, 78, 62
1, 128768, Note_on_c, 0, 66, 0
1, 128768, Note_on_c, 0, 69, 62
1, 129024, Note_on_c, 0, 78, 0
1, 129024, Note_on_c, 0, 69, 0
1, 129024, Note_on_c, 0, 59, 0
1, 129024, Note_on_c, 0, 76, 62
1, 129024, Note_on_c, 0, 68, 62
1, 129024, Note_on_c, 0, 59, 62
1, 129280, Note_on_c, 0, 76, 0
1, 129280, Note_on_c, 0, 80, 62
1, 129434, Note_on_c, 0, 68, 0
1, 129536, Note_on_c, 0, 80, 0
1, 129536, Note_on_c, 0, 78, 62
1, 129536, Note_on_c, 0, 63, 62
1, 129792, Note_on_c, 0, 78, 0
1, 129792, Note_on_c, 0, 81, 62
1, 129946, Note_on_c, 0, 63, 0
1, 130048, Note_on_c, 0, 81, 0
1, 130048, Note_on_c, 0, 80, 62
1, 130048, Note_on_c, 0, 64, 62
1, 130304, Note_on_c, 0, 80, 0
1, 130304, Note_on_c, 0, 83, 62
1, 130458, Note_on_c, 0, 64, 0
1, 130560, Note_on_c, 0, 83, 0
1, 130560, Note_on_c, 0, 75, 62
1, 130560, Note_on_c, 0, 66, 62
1, 130816, Note_on_c, 0, 75, 0
1, 130816, Note_on_c, 0, 78, 62
1, 130816, Note_on_c, 0, 66, 0
1, 130816, Note_on_c, 0, 69, 62
1, 131072, Note_on_c, 0, 78, 0
1, 131072, Note_on_c, 0, 69, 0
1, 131072, Note_on_c, 0, 59, 0
1, 131072, Note_on_c, 0, 76, 62
1, 131072, Note_on_c, 0, 68, 62
1, 131072, Note_on_c, 0, 59, 62
1, 131328, Note_on_c, 0, 76, 0
1, 131328, Note_on_c, 0, 80, 62
1, 131482, Note_on_c, 0, 68, 0
1, 131584, Note_on_c, 0, 80, 0
1, 131584, Note_on_c, 0, 78, 62
1, 131584, Note_on_c, 0, 63, 62
1, 131840, Note_on_c, 0, 78, 0
1, 131840, Note_on_c, 0, 81, 62
1, 132096, Note_on_c, 0, 81, 0
1, 132096, Note_on_c, 0, 80, 62
1, 132096, Note_on_c, 0, 63, 0
1, 132096, Note_on_c, 0, 64, 62
1, 132352, Note_on_c, 0, 80, 0
1, 132352, Note_on_c, 0, 83, 62
1, 132506, Note_on_c, 0, 64, 0
1, 132608, Note_on_c, 0, 83, 0
1, 132608, Note_on_c, 0, 80, 62
1, 132608, Note_on_c, 0, 68, 62
1, 132864, Note_on_c, 0, 80, 0
1, 132864, Note_on_c, 0, 76, 62
1, 133018, Note_on_c, 0, 68, 0
1, 133120, Note_on_c, 0, 76, 0
1, 133120, Note_on_c, 0, 59, 0
1, 133120, Note_on_c, 0, 75, 62
1, 133120, Note_on_c, 0, 71, 62
1, 133120, Note_on_c, 0, 59, 62
1, 133291, Note_on_c, 0, 75, 0
1, 133291, Note_on_c, 0, 76, 62
1, 133461, Note_on_c, 0, 76, 0
1, 133461, Note_on_c, 0, 78, 62
1, 133632, Note_on_c, 0, 78, 0
1, 133632, Note_on_c, 0, 71, 62
1, 134144, Note_on_c, 0, 71, 0
1, 134144, Note_on_c, 0, 71, 0
1, 134144, Note_on_c, 0, 59, 0
1, 135168, Note_on_c, 0, 64, 101
1, 135168, Note_on_c, 0, 68, 101
1, 135168, Note_on_c, 0, 71, 101
1, 135168, Note_on_c, 0, 76, 101
1, 135168, Note_on_c, 0, 40, 101
1, 135168, Note_on_c, 0, 52, 101
1, 135936, Note_on_c, 0, 64, 0
1, 135936, Note_on_c, 0, 68, 0
1, 135936, Note_on_c, 0, 71, 0
1, 135936, Note_on_c, 0, 76, 0
1, 135936, Note_on_c, 0, 64, 62
1, 135936, Note_on_c, 0, 40, 0
1, 135936, Note_on_c, 0, 52, 0
1, 136192, Note_on_c, 0, 64, 0
1, 136192, Note_on_c, 0, 68, 62
1, 136192, Note_on_c, 0, 64, 62
1, 136602, Note_on_c, 0, 68, 0
1, 136602, Note_on_c, 0, 64, 0
1, 136704, Note_on_c, 0, 69, 62
1, 136704, Note_on_c, 0, 66, 62
1, 137114, Note_on_c, 0, 69, 0
1, 137114, Note_on_c, 0, 66, 0
1, 137216, Note_on_c, 0, 71, 62
1, 137216, Note_on_c, 0, 68, 62
1, 137344, Note_on_c, 0, 71, 0
1, 137344, Note_on_c, 0, 73, 62
1, 137472, Note_on_c, 0, 73, 0
1, 137472, Note_on_c, 0, 71, 62
1, 137984, Note_on_c, 0, 71, 0
1, 137984, Note_on_c, 0, 73, 62
1, 137984, Note_on_c, 0, 68, 0
1, 137984, Note_on_c, 0, 69, 62
1, 138240, Note_on_c, 0, 73, 0
1, 138240, Note_on_c, 0, 71, 62
1, 138240, Note_on_c, 0, 69, 0
1, 138240, Note_on_c, 0, 68, 62
1, 138752, Note_on_c, 0, 71, 0
1, 138752, Note_on_c, 0, 69, 75
1, 138752, Note_on_c, 0, 68, 0
1, 138752, Note_on_c, 0, 63, 75
1, 138880, Note_on_c, 0, 69, 0
1, 138880, Note_on_c, 0, 71, 75
1, 139008, Note_on_c, 0, 71, 0
1, 139008, Note_on_c, 0, 69, 75
1, 139136, Note_on_c, 0, 69, 0
1, 139136, Note_on_c, 0, 71, 75
1, 139264, Note_on_c, 0, 71, 0
1, 139264, Note_on_c, 0, 63, 0
1, 139264, Note_on_c, 0, 68, 75
1, 139264, Note_on_c, 0, 64, 75
1, 139776, Note_on_c, 0, 68, 0
1, 139776, Note_on_c, 0, 59, 75
1, 139776, Note_on_c, 0, 64, 75
1, 139776, Note_on_c, 0, 64, 0
1, 139776, Note_on_c, 0, 44, 75
1, 139776, Note_on_c, 0, 56, 75
1, 140186, Note_on_c, 0, 59, 0
1, 140186, Note_on_c, 0, 64, 0
1, 140186, Note_on_c, 0, 44, 0
1, 140186, Note_on_c, 0, 56, 0
1, 140288, Note_on_c, 0, 61, 75
1, 140288, Note_on_c, 0, 66, 75
1, 140288, Note_on_c, 0, 45, 75
1, 140288, Note_on_c, 0, 57, 75
1, 140698, Note_on_c, 0, 61, 0
1, 140698, Note_on_c, 0, 66, 0
1, 140698, Note_on_c, 0, 45, 0
1, 140698, Note_on_c, 0, 57, 0
1, 140800, Note_on_c, 0, 63, 75
1, 140800, Note_on_c, 0, 47, 75
1, 140800, Note_on_c, 0, 54, 75
1, 141210, Note_on_c, 0, 63, 0
1, 141210, Note_on_c, 0, 47, 0
1, 141210, Note_on_c, 0, 54, 0
1, 141312, Note_on_c, 0, 64, 75
1, 141312, Note_on_c, 0, 40, 75
1, 141312, Note_on_c, 0, 52, 75
1, 141483, Note_on_c, 0, 64, 0
1, 141483, Note_on_c, 0, 66, 75
1, 141653, Note_on_c, 0, 66, 0
1, 141653, Note_on_c, 0, 68, 75
1, 141824, Note_on_c, 0, 68, 0
1, 141824, Note_on_c, 0, 59, 75
1, 142336, Note_on_c, 0, 59, 0
1, 142336, Note_on_c, 0, 40, 0
1, 142336, Note_on_c, 0, 52, 0
1, 142464, Note_on_c, 0, 71, 75
1, 142592, Note_on_c, 0, 71, 0
1, 142592, Note_on_c, 0, 73, 75
1, 142720, Note_on_c, 0, 73, 0
1, 142720, Note_on_c, 0, 75, 75
1, 142848, Note_on_c, 0, 75, 0
1, 142848, Note_on_c, 0, 76, 75
1, 142976, Note_on_c, 0, 76, 0
1, 142976, Note_on_c, 0, 78, 75
1, 143104, Note_on_c, 0, 78, 0
1, 143104, Note_on_c, 0, 80, 75
1, 143232, Note_on_c, 0, 80, 0
1, 143232, Note_on_c, 0, 81, 75
1, 143360, Note_on_c, 0, 81, 0
1, 143360, Note_on_c, 0, 83, 88
1, 143360, Note_on_c, 0, 64, 88
1, 143770, Note_on_c, 0, 64, 0
1, 143872, Note_on_c, 0, 83, 0
1, 143872, Note_on_c, 0, 80, 88
1, 143872, Note_on_c, 0, 68, 88
1, 144128, Note_on_c, 0, 80, 0
1, 144128, Note_on_c, 0, 76, 88
1, 144282, Note_on_c, 0, 68, 0
1, 144384, Note_on_c, 0, 76, 0
1, 144384, Note_on_c, 0, 81, 88
1, 144384, Note_on_c, 0, 59, 88
1, 144640, Note_on_c, 0, 81, 0
1, 144640, Note_on_c, 0, 78, 88
1, 144794, Note_on_c, 0, 59, 0
1, 144896, Note_on_c, 0, 78, 0
1, 144896, Note_on_c, 0, 76, 88
1, 144896, Note_on_c, 0, 69, 88
1, 145152, Note_on_c, 0, 76, 0
1, 145152, Note_on_c, 0, 75, 88
1, 145306, Note_on_c, 0, 69, 0
1, 145408, Note_on_c, 0, 75, 0
1, 145408, Note_on_c, 0, 76, 88
1, 145408, Note_on_c, 0, 68, 88
1, 145664, Note_on_c, 0, 76, 0
1, 145664, Note_on_c, 0, 83, 88
1, 145818, Note_on_c, 0, 68, 0
1, 145920, Note_on_c, 0, 64, 88
1, 146176, Note_on_c, 0, 83, 0
1, 146176, Note_on_c, 0, 80, 88
1, 146330, Note_on_c, 0, 64, 0
1, 146432, Note_on_c, 0, 66, 88
1, 146688, Note_on_c, 0, 80, 0
1, 146688, Note_on_c, 0, 81, 88
1, 146842, Note_on_c, 0, 66, 0
1, 146944, Note_on_c, 0, 63, 88
1, 147200, Note_on_c, 0, 81, 0
1, 147200, Note_on_c, 0, 78, 88
1, 147354, Note_on_c, 0, 63, 0
1, 147456, Note_on_c, 0, 64, 88
1, 147712, Note_on_c, 0, 78, 0
1, 147712, Note_on_c, 0, 80, 88
1, 147866, Note_on_c, 0, 64, 0
1, 147968, Note_on_c, 0, 71, 88
1, 148224, Note_on_c, 0, 80, 0
1, 148224, Note_on_c, 0, 76, 88
1, 148378, Note_on_c, 0, 71, 0
1, 148480, Note_on_c, 0, 69, 88
1, 148736, Note_on_c, 0, 76, 0
1, 148736, Note_on_c, 0, 78, 88
1, 148890, Note_on_c, 0, 69, 0
1, 148992, Note_on_c, 0, 66, 88
1, 149248, Note_on_c, 0, 78, 0
1, 149248, Note_on_c, 0, 75, 94
1, 149402, Note_on_c, 0, 66, 0
1, 149504, Note_on_c, 0, 68, 94
1, 149760, Note_on_c, 0, 75, 0
1, 149760, Note_on_c, 0, 76, 100
1, 149914, Note_on_c, 0, 68, 0
1, 150016, Note_on_c, 0, 64, 100
1, 150272, Note_on_c, 0, 76, 0
1, 150272, Note_on_c, 0, 73, 106
1, 150426, Note_on_c, 0, 64, 0
1, 150528, Note_on_c, 0, 66, 106
1, 150784, Note_on_c, 0, 73, 0
1, 150784, Note_on_c, 0, 75, 114
1, 150938, Note_on_c, 0, 66, 0
1, 151040, Note_on_c, 0, 63, 114
1, 151296, Note_on_c, 0, 75, 0
1, 151296, Note_on_c, 0, 72, 120
1, 151450, Note_on_c, 0, 63, 0
1, 151552, Note_on_c, 0, 72, 0
1, 151552, Note_on_c, 0, 73, 120
1, 151552, Note_on_c, 0, 64, 120
1, 151808, Note_on_c, 0, 73, 0
1, 151808, Note_on_c, 0, 68, 126
1, 152064, Note_on_c, 0, 68, 0
1, 152064, Note_on_c, 0, 68, 126
1, 152269, Note_on_c, 0, 68, 0
1, 152320, Note_on_c, 0, 68, 127
1, 152525, Note_on_c, 0, 68, 0
1, 152576, Note_on_c, 0, 76, 127
1, 152576, Note_on_c, 0, 64, 0
1, 152576, Note_on_c, 0, 49, 127
1, 152832, Note_on_c, 0, 76, 0
1, 152832, Note_on_c, 0, 68, 127
1, 152986, Note_on_c, 0, 49, 0
1, 153088, Note_on_c, 0, 68, 0
1, 153088, Note_on_c, 0, 68, 127
1, 153088, Note_on_c, 0, 49, 127
1, 153293, Note_on_c, 0, 68, 0
1, 153344, Note_on_c, 0, 68, 127
1, 153498, Note_on_c, 0, 49, 0
1, 153549, Note_on_c, 0, 68, 0
1, 153600, Note_on_c, 0, 75, 127
1, 153600, Note_on_c, 0, 48, 127
1, 153856, Note_on_c, 0, 75, 0
1, 153856, Note_on_c, 0, 68, 127
1, 154010, Note_on_c, 0, 48, 0
1, 154112, Note_on_c, 0, 68, 0
1, 154112, Note_on_c, 0, 68, 127
1, 154112, Note_on_c, 0, 51, 127
1, 154317, Note_on_c, 0, 68, 0
1, 154368, Note_on_c, 0, 68, 127
1, 154522, Note_on_c, 0, 51, 0
1, 154573, Note_on_c, 0, 68, 0
1, 154624, Note_on_c, 0, 78, 127
1, 154624, Note_on_c, 0, 56, 127
1, 154880, Note_on_c, 0, 78, 0
1, 154880, Note_on_c, 0, 68, 127
1, 155034, Note_on_c, 0, 56, 0
1, 155136, Note_on_c, 0, 68, 0
1, 155136, Note_on_c, 0, 68, 127
1, 155136, Note_on_c, 0, 60, 127
1, 155341, Note_on_c, 0, 68, 0
1, 155392, Note_on_c, 0, 68, 127
1, 155546, Note_on_c, 0, 60, 0
1, 155597, Note_on_c, 0, 68, 0
1, 155648, Note_on_c, 0, 76, 127
1, 155648, Note_on_c, 0, 61, 127
1, 155904, Note_on_c, 0, 76, 0
1, 155904, Note_on_c, 0, 68, 127
1, 156160, Note_on_c, 0, 68, 0
1, 156160, Note_on_c, 0, 68, 127
1, 156160, Note_on_c, 0, 61, 0
1, 156160, Note_on_c, 0, 49, 127
1, 156365, Note_on_c, 0, 68, 0
1, 156416, Note_on_c, 0, 68, 127
1, 156621, Note_on_c, 0, 68, 0
1, 156672, Note_on_c, 0, 80, 127
1, 156672, Note_on_c, 0, 49, 0
1, 156928, Note_on_c, 0, 80, 0
1, 156928, Note_on_c, 0, 76, 127
1, 157184, Note_on_c, 0, 76, 0
1, 157184, Note_on_c, 0, 76, 127
1, 157184, Note_on_c, 0, 52, 127
1, 157184, Note_on_c, 0, 64, 127
1, 157389, Note_on_c, 0, 76, 0
1, 157440, Note_on_c, 0, 76, 127
1, 157594, Note_on_c, 0, 52, 0
1, 157594, Note_on_c, 0, 64, 0
1, 157645, Note_on_c, 0, 76, 0
1, 157696, Note_on_c, 0, 81, 127
1, 157696, Note_on_c, 0, 54, 127
1, 157952, Note_on_c, 0, 54, 0
1, 157952, Note_on_c, 0, 66, 127
1, 158208, Note_on_c, 0, 81, 0
1, 158208, Note_on_c, 0, 66, 0
1, 158208, Note_on_c, 0, 66, 127
1, 158413, Note_on_c, 0, 66, 0
1, 158464, Note_on_c, 0, 66, 127
1, 158669, Note_on_c, 0, 66, 0
1, 158720, Note_on_c, 0, 71, 127
1, 158720, Note_on_c, 0, 63, 127
1, 158976, Note_on_c, 0, 71, 0
1, 158976, Note_on_c, 0, 78, 127
1, 158976, Note_on_c, 0, 81, 127
1, 159232, Note_on_c, 0, 78, 0
1, 159232, Note_on_c, 0, 81, 0
1, 159232, Note_on_c, 0, 78, 127
1, 159232, Note_on_c, 0, 81, 127
1, 159488, Note_on_c, 0, 78, 0
1, 159488, Note_on_c, 0, 81, 0
1, 159488, Note_on_c, 0, 78, 127
1, 159488, Note_on_c, 0, 81, 127
1, 159744, Note_on_c, 0, 78, 0
1, 159744, Note_on_c, 0, 81, 0
1, 159744, Note_on_c, 0, 63, 0
1, 159744, Note_on_c, 0, 76, 127
1, 159744, Note_on_c, 0, 80, 127
1, 159744, Note_on_c, 0, 52, 127
1, 160000, Note_on_c, 0, 52, 0
1, 160000, Note_on_c, 0, 64, 127
1, 160256, Note_on_c, 0, 76, 0
1, 160256, Note_on_c, 0, 80, 0
1, 160256, Note_on_c, 0, 64, 0
1, 160256, Note_on_c, 0, 64, 127
1, 160461, Note_on_c, 0, 64, 0
1, 160512, Note_on_c, 0, 64, 127
1, 160717, Note_on_c, 0, 64, 0
1, 160768, Note_on_c, 0, 83, 127
1, 161024, Note_on_c, 0, 83, 0
1, 161024, Note_on_c, 0, 81, 127
1, 161280, Note_on_c, 0, 81, 0
1, 161280, Note_on_c, 0, 81, 127
1, 161280, Note_on_c, 0, 52, 127
1, 161280, Note_on_c, 0, 64, 127
1, 161536, Note_on_c, 0, 81, 0
1, 161536, Note_on_c, 0, 80, 127
1, 161690, Note_on_c, 0, 52, 0
1, 161690, Note_on_c, 0, 64, 0
1, 161792, Note_on_c, 0, 80, 0
1, 161792, Note_on_c, 0, 80, 127
1, 161792, Note_on_c, 0, 57, 127
1, 161792, Note_on_c, 0, 61, 127
1, 162048, Note_on_c, 0, 80, 0
1, 162048, Note_on_c, 0, 78, 127
1, 162304, Note_on_c, 0, 78, 0
1, 162304, Note_on_c, 0, 78, 127
1, 162304, Note_on_c, 0, 57, 0
1, 162304, Note_on_c, 0, 61, 0
1, 162304, Note_on_c, 0, 56, 127
1, 162304, Note_on_c, 0, 59, 127
1, 162560, Note_on_c, 0, 78, 0
1, 162560, Note_on_c, 0, 76, 127
1, 162816, Note_on_c, 0, 76, 0
1, 162816, Note_on_c, 0, 83, 62
1, 162816, Note_on_c, 0, 56, 0
1, 162816, Note_on_c, 0, 59, 0
1, 163072, Note_on_c, 0, 83, 0
1, 163072, Note_on_c, 0, 81, 62
1, 163328, Note_on_c, 0, 81, 0
1, 163328, Note_on_c, 0, 81, 62
1, 163328, Note_on_c, 0, 52, 62
1, 163328, Note_on_c, 0, 64, 62
1, 163584, Note_on_c, 0, 81, 0
1, 163584, Note_on_c, 0, 80, 62
1, 163738, Note_on_c, 0, 52, 0
1, 163738, Note_on_c, 0, 64, 0
1, 163840, Note_on_c, 0, 80, 0
1, 163840, Note_on_c, 0, 80, 62
1, 163840, Note_on_c, 0, 57, 62
1, 163840, Note_on_c, 0, 61, 62
1, 164096, Note_on_c, 0, 80, 0
1, 164096, Note_on_c, 0, 78, 62
1, 164352, Note_on_c, 0, 78, 0
1, 164352, Note_on_c, 0, 78, 62
1, 164352, Note_on_c, 0, 57, 0
1, 164352, Note_on_c, 0, 61, 0
1, 164352, Note_on_c, 0, 56, 62
1, 164352, Note_on_c, 0, 59, 62
1, 164608, Note_on_c, 0, 78, 0
1, 164608, Note_on_c, 0, 76, 62
1, 164864, Note_on_c, 0, 76, 0
1, 164864, Note_on_c, 0, 83, 127
1, 164864, Note_on_c, 0, 56, 0
1, 164864, Note_on_c, 0, 59, 0
1, 165120, Note_on_c, 0, 83, 0
1, 165120, Note_on_c, 0, 81, 127
1, 165376, Note_on_c, 0, 81, 0
1, 165376, Note_on_c, 0, 81, 127
1, 165376, Note_on_c, 0, 52, 127
1, 165376, Note_on_c, 0, 64, 127
1, 165632, Note_on_c, 0, 81, 0
1, 165632, Note_on_c, 0, 80, 127
1, 165786, Note_on_c, 0, 52, 0
1, 165786, Note_on_c, 0, 64, 0
1, 165888, Note_on_c, 0, 80, 0
1, 165888, Note_on_c, 0, 85, 127
1, 165888, Note_on_c, 0, 57, 127
1, 165888, Note_on_c, 0, 61, 127
1, 166144, Note_on_c, 0, 85, 0
1, 166144, Note_on_c, 0, 81, 127
1, 166400, Note_on_c, 0, 81, 0
1, 166400, Note_on_c, 0, 81, 127
1, 166656, Note_on_c, 0, 81, 0
1, 166656, Note_on_c, 0, 80, 127
1, 166707, Note_on_c, 0, 57, 0
1, 166707, Note_on_c, 0, 61, 0
1, 166912, Note_on_c, 0, 80, 0
1, 166912, Note_on_c, 0, 80, 127
1, 166912, Note_on_c, 0, 57, 127
1, 166912, Note_on_c, 0, 61, 127
1, 167168, Note_on_c, 0, 80, 0
1, 167168, Note_on_c, 0, 78, 127
1, 167322, Note_on_c, 0, 57, 0
1, 167322, Note_on_c, 0, 61, 0
1, 167424, Note_on_c, 0, 78, 0
1, 167424, Note_on_c, 0, 85, 127
1, 167424, Note_on_c, 0, 58, 127
1, 167424, Note_on_c, 0, 61, 127
1, 167680, Note_on_c, 0, 85, 0
1, 167680, Note_on_c, 0, 76, 127
1, 167834, Note_on_c, 0, 58, 0
1, 167834, Note_on_c, 0, 61, 0
1, 167936, Note_on_c, 0, 76, 0
1, 167936, Note_on_c, 0, 75, 127
1, 167936, Note_on_c, 0, 59, 127
1, 168107, Note_on_c, 0, 75, 0
1, 168107, Note_on_c, 0, 76, 127
1, 168277, Note_on_c, 0, 76, 0
1, 168277, Note_on_c, 0, 78, 127
1, 168346, Note_on_c, 0, 59, 0
1, 168448, Note_on_c, 0, 78, 0
1, 168448, Note_on_c, 0, 71, 127
1, 168448, Note_on_c, 0, 47, 127
1, 168858, Note_on_c, 0, 47, 0
1, 168960, Note_on_c, 0, 71, 0
1, 169984, Note_on_c, 0, 64, 101
1, 169984, Note_on_c, 0, 68, 101
1, 169984, Note_on_c, 0, 71, 101
1, 169984, Note_on_c, 0, 76, 101
1, 169984, Note_on_c, 0, 40, 101
1, 169984, Note_on_c, 0, 52, 101
1, 170752, Note_on_c, 0, 64, 0
1, 170752, Note_on_c, 0, 68, 0
1, 170752, Note_on_c, 0, 71, 0
1, 170752, Note_on_c, 0, 76, 0
1, 170752, Note_on_c, 0, 64, 62
1, 170752, Note_on_c, 0, 40, 0
1, 170752, Note_on_c, 0, 52, 0
1, 171008, Note_on_c, 0, 64, 0
1, 171008, Note_on_c, 0, 68, 62
1, 171008, Note_on_c, 0, 64, 62
1, 171418, Note_on_c, 0, 68, 0
1, 171418, Note_on_c, 0, 64, 0
1, 171520, Note_on_c, 0, 69, 62
1, 171520, Note_on_c, 0, 66, 62
1, 171930, Note_on_c, 0, 69, 0
1, 171930, Note_on_c, 0, 66, 0
1, 172032, Note_on_c, 0, 71, 62
1, 172032, Note_on_c, 0, 68, 62
1, 172160, Note_on_c, 0, 71, 0
1, 172160, Note_on_c, 0, 73, 62
1, 172288, Note_on_c, 0, 73, 0
1, 172288, Note_on_c, 0, 71, 62
1, 172800, Note_on_c, 0, 71, 0
1, 172800, Note_on_c, 0, 73, 62
1, 172800, Note_on_c, 0, 68, 0
1, 172800, Note_on_c, 0, 69, 62
1, 173056, Note_on_c, 0, 73, 0
1, 173056, Note_on_c, 0, 71, 62
1, 173056, Note_on_c, 0, 69, 0
1, 173056, Note_on_c, 0, 68, 62
1, 173568, Note_on_c, 0, 71, 0
1, 173568, Note_on_c, 0, 69, 75
1, 173568, Note_on_c, 0, 68, 0
1, 173568, Note_on_c, 0, 63, 75
1, 173696, Note_on_c, 0, 69, 0
1, 173696, Note_on_c, 0, 71, 75
1, 173824, Note_on_c, 0, 71, 0
1, 173824, Note_on_c, 0, 69, 75
1, 173952, Note_on_c, 0, 69, 0
1, 173952, Note_on_c, 0, 71, 75
1, 174080, Note_on_c, 0, 71, 0
1, 174080, Note_on_c, 0, 63, 0
1, 174080, Note_on_c, 0, 68, 75
1, 174080, Note_on_c, 0, 64, 75
1, 174592, Note_on_c, 0, 68, 0
1, 174592, Note_on_c, 0, 59, 75
1, 174592, Note_on_c, 0, 64, 75
1, 174592, Note_on_c, 0, 64, 0
1, 174592, Note_on_c, 0, 44, 75
1, 174592, Note_on_c, 0, 56, 75
1, 175002, Note_on_c, 0, 59, 0
1, 175002, Note_on_c, 0, 64, 0
1, 175002, Note_on_c, 0, 44, 0
1, 175002, Note_on_c, 0, 56, 0
1, 175104, Note_on_c, 0, 61, 75
1, 175104, Note_on_c, 0, 66, 75
1, 175104, Note_on_c, 0, 45, 75
1, 175104, Note_on_c, 0, 57, 75
1, 175514, Note_on_c, 0, 61, 0
1, 175514, Note_on_c, 0, 66, 0
1, 175514, Note_on_c, 0, 45, 0
1, 175514, Note_on_c, 0, 57, 0
1, 175616, Note_on_c, 0, 63, 75
1, 175616, Note_on_c, 0, 47, 75
1, 175616, Note_on_c, 0, 54, 75
1, 176026, Note_on_c, 0, 63, 0
1, 176026, Note_on_c, 0, 47, 0
1, 176026, Note_on_c, 0, 54, 0
1, 176128, Note_on_c, 0, 64, 75
1, 176128, Note_on_c, 0, 40, 75
1, 176128, Note_on_c, 0, 52, 75
1, 176299, Note_on_c, 0, 64, 0
1, 176299, Note_on_c, 0, 66, 75
1, 176469, Note_on_c, 0, 66, 0
1, 176469, Note_on_c, 0, 68, 75
1, 176640, Note_on_c, 0, 68, 0
1, 176640, Note_on_c, 0, 59, 75
1, 177152, Note_on_c, 0, 59, 0
1, 177152, Note_on_c, 0, 40, 0
1, 177152, Note_on_c, 0, 52, 0
1, 177280, Note_on_c, 0, 64, 75
1, 177408, Note_on_c, 0, 64, 0
1, 177408, Note_on_c, 0, 66, 75
1, 177536, Note_on_c, 0, 66, 0
1, 177536, Note_on_c, 0, 68, 75
1, 177664, Note_on_c, 0, 68, 0
1, 177664, Note_on_c, 0, 69, 75
1, 177792, Note_on_c, 0, 69, 0
1, 177792, Note_on_c, 0, 71, 75
1, 177920, Note_on_c, 0, 71, 0
1, 177920, Note_on_c, 0, 73, 75
1, 178048, Note_on_c, 0, 73, 0
1, 178048, Note_on_c, 0, 75, 75
1, 178176, Note_on_c, 0, 75, 0
1, 178176, Note_on_c, 0, 76, 101
1, 178176, Note_on_c, 0, 52, 101
1, 178176, Note_on_c, 0, 56, 101
1, 178176, Note_on_c, 0, 59, 101
1, 178944, Note_on_c, 0, 76, 0
1, 178944, Note_on_c, 0, 68, 62
1, 178944, Note_on_c, 0, 52, 0
1, 178944, Note_on_c, 0, 56, 0
1, 178944, Note_on_c, 0, 59, 0
1, 178944, Note_on_c, 0, 64, 62
1, 179200, Note_on_c, 0, 68, 0
1, 179200, Note_on_c, 0, 69, 62
1, 179200, Note_on_c, 0, 64, 0
1, 179200, Note_on_c, 0, 66, 62
1, 179610, Note_on_c, 0, 69, 0
1, 179610, Note_on_c, 0, 66, 0
1, 179712, Note_on_c, 0, 71, 62
1, 179712, Note_on_c, 0, 68, 62
1, 180122, Note_on_c, 0, 71, 0
1, 180122, Note_on_c, 0, 68, 0
1, 180224, Note_on_c, 0, 73, 62
1, 180224, Note_on_c, 0, 69, 62
1, 180352, Note_on_c, 0, 73, 0
1, 180352, Note_on_c, 0, 75, 62
1, 180480, Note_on_c, 0, 75, 0
1, 180480, Note_on_c, 0, 73, 62
1, 180634, Note_on_c, 0, 69, 0
1, 180736, Note_on_c, 0, 57, 62
1, 180992, Note_on_c, 0, 73, 0
1, 180992, Note_on_c, 0, 76, 62
1, 181146, Note_on_c, 0, 57, 0
1, 181248, Note_on_c, 0, 76, 0
1, 181248, Note_on_c, 0, 71, 62
1, 181248, Note_on_c, 0, 68, 62
1, 181658, Note_on_c, 0, 68, 0
1, 181760, Note_on_c, 0, 71, 0
1, 181760, Note_on_c, 0, 68, 62
1, 181760, Note_on_c, 0, 64, 62
1, 182170, Note_on_c, 0, 64, 0
1, 182272, Note_on_c, 0, 68, 0
1, 182272, Note_on_c, 0, 51, 62
1, 182528, Note_on_c, 0, 81, 62
1, 182682, Note_on_c, 0, 51, 0
1, 182784, Note_on_c, 0, 59, 62
1, 183040, Note_on_c, 0, 81, 0
1, 183040, Note_on_c, 0, 78, 62
1, 183194, Note_on_c, 0, 59, 0
1, 183296, Note_on_c, 0, 52, 62
1, 183552, Note_on_c, 0, 78, 0
1, 183552, Note_on_c, 0, 80, 62
1, 183706, Note_on_c, 0, 52, 0
1, 183808, Note_on_c, 0, 59, 62
1, 184064, Note_on_c, 0, 80, 0
1, 184064, Note_on_c, 0, 76, 62
1, 184218, Note_on_c, 0, 59, 0
1, 184320, Note_on_c, 0, 76, 0
1, 184320, Note_on_c, 0, 54, 62
1, 184576, Note_on_c, 0, 75, 62
1, 184730, Note_on_c, 0, 54, 0
1, 184832, Note_on_c, 0, 59, 62
1, 185088, Note_on_c, 0, 75, 0
1, 185088, Note_on_c, 0, 78, 62
1, 185242, Note_on_c, 0, 59, 0
1, 185344, Note_on_c, 0, 56, 62
1, 185600, Note_on_c, 0, 78, 0
1, 185600, Note_on_c, 0, 76, 62
1, 185754, Note_on_c, 0, 56, 0
1, 185856, Note_on_c, 0, 59, 62
1, 186112, Note_on_c, 0, 76, 0
1, 186112, Note_on_c, 0, 71, 62
1, 186266, Note_on_c, 0, 59, 0
1, 186368, Note_on_c, 0, 71, 0
1, 186368, Note_on_c, 0, 57, 88
1, 186624, Note_on_c, 0, 73, 88
1, 186778, Note_on_c, 0, 57, 0
1, 186880, Note_on_c, 0, 64, 88
1, 187136, Note_on_c, 0, 73, 0
1, 187136, Note_on_c, 0, 75, 88
1, 187290, Note_on_c, 0, 64, 0
1, 187392, Note_on_c, 0, 56, 88
1, 187648, Note_on_c, 0, 75, 0
1, 187648, Note_on_c, 0, 76, 88
1, 187802, Note_on_c, 0, 56, 0
1, 187904, Note_on_c, 0, 64, 88
1, 188160, Note_on_c, 0, 76, 0
1, 188160, Note_on_c, 0, 71, 88
1, 188314, Note_on_c, 0, 64, 0
1, 188416, Note_on_c, 0, 71, 0
1, 188416, Note_on_c, 0, 54, 88
1, 188672, Note_on_c, 0, 69, 88
1, 188826, Note_on_c, 0, 54, 0
1, 188928, Note_on_c, 0, 63, 88
1, 189184, Note_on_c, 0, 69, 0
1, 189184, Note_on_c, 0, 66, 88
1, 189338, Note_on_c, 0, 63, 0
1, 189440, Note_on_c, 0, 64, 88
1, 189696, Note_on_c, 0, 66, 0
1, 189696, Note_on_c, 0, 68, 88
1, 189850, Note_on_c, 0, 64, 0
1, 189952, Note_on_c, 0, 52, 88
1, 190208, Note_on_c, 0, 68, 0
1, 190208, Note_on_c, 0, 64, 88
1, 190362, Note_on_c, 0, 52, 0
1, 190464, Note_on_c, 0, 64, 0
1, 190464, Note_on_c, 0, 45, 88
1, 190464, Note_on_c, 0, 57, 88
1, 190720, Note_on_c, 0, 66, 88
1, 190976, Note_on_c, 0, 66, 0
1, 190976, Note_on_c, 0, 65, 88
1, 191232, Note_on_c, 0, 65, 0
1, 191232, Note_on_c, 0, 66, 88
1, 191488, Note_on_c, 0, 66, 0
1, 191488, Note_on_c, 0, 73, 88
1, 191488, Note_on_c, 0, 45, 0
1, 191488, Note_on_c, 0, 57, 0
1, 191488, Note_on_c, 0, 54, 88
1, 191659, Note_on_c, 0, 73, 0
1, 191659, Note_on_c, 0, 71, 88
1, 191829, Note_on_c, 0, 71, 0
1, 191829, Note_on_c, 0, 69, 88
1, 191898, Note_on_c, 0, 54, 0
1, 192000, Note_on_c, 0, 69, 0
1, 192000, Note_on_c, 0, 68, 88
1, 192000, Note_on_c, 0, 58, 88
1, 192171, Note_on_c, 0, 68, 0
1, 192171, Note_on_c, 0, 66, 88
1, 192341, Note_on_c, 0, 66, 0
1, 192341, Note_on_c, 0, 64, 88
1, 192410, Note_on_c, 0, 58, 0
1, 192512, Note_on_c, 0, 64, 0
1, 192512, Note_on_c, 0, 63, 88
1, 192512, Note_on_c, 0, 59, 88
1, 192683, Note_on_c, 0, 63, 0
1, 192683, Note_on_c, 0, 64, 88
1, 192853, Note_on_c, 0, 64, 0
1, 192853, Note_on_c, 0, 66, 88
1, 192922, Note_on_c, 0, 59, 0
1, 193024, Note_on_c, 0, 66, 0
1, 193024, Note_on_c, 0, 59, 88
1, 193024, Note_on_c, 0, 47, 88
1, 193434, Note_on_c, 0, 47, 0
1, 193536, Note_on_c, 0, 59, 0
1, 193536, Note_on_c, 0, 59, 62
1, 193792, Note_on_c, 0, 59, 0
1, 193792, Note_on_c, 0, 56, 62
1, 194048, Note_on_c, 0, 56, 0
1, 194048, Note_on_c, 0, 57, 62
1, 194304, Note_on_c, 0, 57, 0
1, 194304, Note_on_c, 0, 54, 62
1, 194560, Note_on_c, 0, 54, 0
1, 194560, Note_on_c, 0, 71, 62
1, 194560, Note_on_c, 0, 56, 62
1, 194816, Note_on_c, 0, 71, 0
1, 194816, Note_on_c, 0, 76, 62
1, 195072, Note_on_c, 0, 76, 0
1, 195072, Note_on_c, 0, 76, 62
1, 195277, Note_on_c, 0, 76, 0
1, 195328, Note_on_c, 0, 76, 62
1, 195533, Note_on_c, 0, 76, 0
1, 195584, Note_on_c, 0, 76, 62
1, 195840, Note_on_c, 0, 76, 0
1, 195840, Note_on_c, 0, 74, 62
1, 195840, Note_on_c, 0, 64, 62
1, 196096, Note_on_c, 0, 74, 0
1, 196096, Note_on_c, 0, 73, 62
1, 196096, Note_on_c, 0, 64, 0
1, 196096, Note_on_c, 0, 64, 62
1, 196352, Note_on_c, 0, 73, 0
1, 196352, Note_on_c, 0, 71, 62
1, 196352, Note_on_c, 0, 64, 0
1, 196352, Note_on_c, 0, 64, 62
1, 196608, Note_on_c, 0, 71, 0
1, 196608, Note_on_c, 0, 64, 0
1, 196608, Note_on_c, 0, 56, 0
1, 196608, Note_on_c, 0, 73, 62
1, 196608, Note_on_c, 0, 64, 62
1, 196608, Note_on_c, 0, 57, 62
1, 196864, Note_on_c, 0, 73, 0
1, 196864, Note_on_c, 0, 76, 62
1, 197018, Note_on_c, 0, 57, 0
1, 197120, Note_on_c, 0, 76, 0
1, 197120, Note_on_c, 0, 68, 62
1, 197120, Note_on_c, 0, 59, 62
1, 197376, Note_on_c, 0, 68, 0
1, 197376, Note_on_c, 0, 71, 62
1, 197530, Note_on_c, 0, 59, 0
1, 197632, Note_on_c, 0, 71, 0
1, 197632, Note_on_c, 0, 69, 62
1, 197632, Note_on_c, 0, 61, 62
1, 197888, Note_on_c, 0, 69, 0
1, 197888, Note_on_c, 0, 73, 62
1, 198042, Note_on_c, 0, 61, 0
1, 198144, Note_on_c, 0, 73, 0
1, 198144, Note_on_c, 0, 71, 62
1, 198144, Note_on_c, 0, 56, 62
1, 198400, Note_on_c, 0, 71, 0
1, 198400, Note_on_c, 0, 74, 62
1, 198554, Note_on_c, 0, 56, 0
1, 198656, Note_on_c, 0, 74, 0
1, 198656, Note_on_c, 0, 64, 0
1, 198656, Note_on_c, 0, 73, 62
1, 198656, Note_on_c, 0, 64, 62
1, 198656, Note_on_c, 0, 57, 62
1, 198912, Note_on_c, 0, 73, 0
1, 198912, Note_on_c, 0, 76, 62
1, 199066, Note_on_c, 0, 57, 0
1, 199168, Note_on_c, 0, 76, 0
1, 199168, Note_on_c, 0, 68, 62
1, 199168, Note_on_c, 0, 59, 62
1, 199424, Note_on_c, 0, 68, 0
1, 199424, Note_on_c, 0, 71, 62
1, 199578, Note_on_c, 0, 59, 0
1, 199680, Note_on_c, 0, 71, 0
1, 199680, Note_on_c, 0, 69, 62
1, 199680, Note_on_c, 0, 61, 62
1, 199936, Note_on_c, 0, 69, 0
1, 199936, Note_on_c, 0, 73, 62
1, 200090, Note_on_c, 0, 61, 0
1, 200192, Note_on_c, 0, 73, 0
1, 200192, Note_on_c, 0, 71, 62
1, 200192, Note_on_c, 0, 56, 62
1, 200448, Note_on_c, 0, 71, 0
1, 200448, Note_on_c, 0, 74, 62
1, 200602, Note_on_c, 0, 56, 0
1, 200704, Note_on_c, 0, 74, 0
1, 200704, Note_on_c, 0, 64, 0
1, 200704, Note_on_c, 0, 73, 62
1, 200704, Note_on_c, 0, 57, 62
1, 200960, Note_on_c, 0, 73, 0
1, 200960, Note_on_c, 0, 78, 62
1, 201216, Note_on_c, 0, 78, 0
1, 201216, Note_on_c, 0, 78, 62
1, 201421, Note_on_c, 0, 78, 0
1, 201472, Note_on_c, 0, 78, 62
1, 201523, Note_on_c, 0, 57, 0
1, 201677, Note_on_c, 0, 78, 0
1, 201728, Note_on_c, 0, 78, 68
1, 201728, Note_on_c, 0, 58, 68
1, 201984, Note_on_c, 0, 78, 0
1, 201984, Note_on_c, 0, 76, 68
1, 201984, Note_on_c, 0, 66, 68
1, 202240, Note_on_c, 0, 76, 0
1, 202240, Note_on_c, 0, 75, 74
1, 202240, Note_on_c, 0, 66, 0
1, 202240, Note_on_c, 0, 66, 74
1, 202496, Note_on_c, 0, 75, 0
1, 202496, Note_on_c, 0, 73, 74
1, 202496, Note_on_c, 0, 66, 0
1, 202496, Note_on_c, 0, 66, 74
1, 202547, Note_on_c, 0, 58, 0
1, 202752, Note_on_c, 0, 73, 0
1, 202752, Note_on_c, 0, 66, 0
1, 202752, Note_on_c, 0, 75, 80
1, 202752, Note_on_c, 0, 66, 80
1, 202752, Note_on_c, 0, 59, 80
1, 203008, Note_on_c, 0, 75, 0
1, 203008, Note_on_c, 0, 78, 80
1, 203162, Note_on_c, 0, 59, 0
1, 203264, Note_on_c, 0, 78, 0
1, 203264, Note_on_c, 0, 70, 88
1, 203264, Note_on_c, 0, 61, 88
1, 203520, Note_on_c, 0, 70, 0
1, 203520, Note_on_c, 0, 73, 88
1, 203674, Note_on_c, 0, 61, 0
1, 203776, Note_on_c, 0, 73, 0
1, 203776, Note_on_c, 0, 71, 94
1, 203776, Note_on_c, 0, 63, 94
1, 204032, Note_on_c, 0, 71, 0
1, 204032, Note_on_c, 0, 75, 94
1, 204186, Note_on_c, 0, 63, 0
1, 204288, Note_on_c, 0, 75, 0
1, 204288, Note_on_c, 0, 73, 100
1, 204288, Note_on_c, 0, 58, 100
1, 204544, Note_on_c, 0, 73, 0
1, 204544, Note_on_c, 0, 76, 100
1, 204698, Note_on_c, 0, 58, 0
1, 204800, Note_on_c, 0, 76, 0
1, 204800, Note_on_c, 0, 66, 0
1, 204800, Note_on_c, 0, 75, 106
1, 204800, Note_on_c, 0, 66, 106
1, 204800, Note_on_c, 0, 59, 106
1, 205056, Note_on_c, 0, 75, 0
1, 205056, Note_on_c, 0, 78, 106
1, 205210, Note_on_c, 0, 59, 0
1, 205312, Note_on_c, 0, 78, 0
1, 205312, Note_on_c, 0, 70, 106
1, 205312, Note_on_c, 0, 61, 106
1, 205568, Note_on_c, 0, 70, 0
1, 205568, Note_on_c, 0, 73, 106
1, 205722, Note_on_c, 0, 61, 0
1, 205824, Note_on_c, 0, 73, 0
1, 205824, Note_on_c, 0, 71, 106
1, 205824, Note_on_c, 0, 63, 106
1, 206080, Note_on_c, 0, 71, 0
1, 206080, Note_on_c, 0, 75, 106
1, 206234, Note_on_c, 0, 63, 0
1, 206336, Note_on_c, 0, 75, 0
1, 206336, Note_on_c, 0, 73, 106
1, 206336, Note_on_c, 0, 58, 106
1, 206592, Note_on_c, 0, 73, 0
1, 206592, Note_on_c, 0, 76, 106
1, 206746, Note_on_c, 0, 58, 0
1, 206848, Note_on_c, 0, 76, 0
1, 206848, Note_on_c, 0, 66, 0
1, 206848, Note_on_c, 0, 75, 106
1, 206848, Note_on_c, 0, 59, 106
1, 207104, Note_on_c, 0, 75, 0
1, 207104, Note_on_c, 0, 78, 106
1, 207258, Note_on_c, 0, 59, 0
1, 207360, Note_on_c, 0, 78, 0
1, 207360, Note_on_c, 0, 76, 106
1, 207360, Note_on_c, 0, 61, 106
1, 207616, Note_on_c, 0, 76, 0
1, 207616, Note_on_c, 0, 80, 106
1, 207770, Note_on_c, 0, 61, 0
1, 207872, Note_on_c, 0, 80, 0
1, 207872, Note_on_c, 0, 78, 106
1, 207872, Note_on_c, 0, 63, 106
1, 208128, Note_on_c, 0, 78, 0
1, 208128, Note_on_c, 0, 81, 106
1, 208282, Note_on_c, 0, 63, 0
1, 208384, Note_on_c, 0, 81, 0
1, 208384, Note_on_c, 0, 80, 106
1, 208384, Note_on_c, 0, 64, 106
1, 208640, Note_on_c, 0, 80, 0
1, 208640, Note_on_c, 0, 83, 106
1, 208794, Note_on_c, 0, 64, 0
1, 208896, Note_on_c, 0, 83, 0
1, 208896, Note_on_c, 0, 83, 114
1, 208896, Note_on_c, 0, 54, 114
1, 208896, Note_on_c, 0, 66, 114
1, 209152, Note_on_c, 0, 83, 0
1, 209152, Note_on_c, 0, 81, 114
1, 209306, Note_on_c, 0, 54, 0
1, 209306, Note_on_c, 0, 66, 0
1, 209408, Note_on_c, 0, 81, 0
1, 209408, Note_on_c, 0, 81, 114
1, 209408, Note_on_c, 0, 52, 114
1, 209408, Note_on_c, 0, 64, 114
1, 209664, Note_on_c, 0, 81, 0
1, 209664, Note_on_c, 0, 80, 114
1, 209818, Note_on_c, 0, 52, 0
1, 209818, Note_on_c, 0, 64, 0
1, 209920, Note_on_c, 0, 80, 0
1, 209920, Note_on_c, 0, 80, 114
1, 209920, Note_on_c, 0, 51, 114
1, 209920, Note_on_c, 0, 63, 114
1, 210176, Note_on_c, 0, 80, 0
1, 210176, Note_on_c, 0, 78, 114
1, 210330, Note_on_c, 0, 51, 0
1, 210330, Note_on_c, 0, 63, 0
1, 210432, Note_on_c, 0, 78, 0
1, 210432, Note_on_c, 0, 78, 114
1, 210432, Note_on_c, 0, 49, 114
1, 210432, Note_on_c, 0, 61, 114
1, 210688, Note_on_c, 0, 78, 0
1, 210688, Note_on_c, 0, 76, 114
1, 210842, Note_on_c, 0, 49, 0
1, 210842, Note_on_c, 0, 61, 0
1, 210944, Note_on_c, 0, 76, 0
1, 210944, Note_on_c, 0, 76, 114
1, 210944, Note_on_c, 0, 59, 114
1, 211200, Note_on_c, 0, 76, 0
1, 211200, Note_on_c, 0, 75, 114
1, 211354, Note_on_c, 0, 59, 0
1, 211456, Note_on_c, 0, 75, 0
1, 211456, Note_on_c, 0, 75, 114
1, 211456, Note_on_c, 0, 57, 114
1, 211712, Note_on_c, 0, 75, 0
1, 211712, Note_on_c, 0, 73, 114
1, 211866, Note_on_c, 0, 57, 0
1, 211968, Note_on_c, 0, 73, 0
1, 211968, Note_on_c, 0, 73, 114
1, 211968, Note_on_c, 0, 56, 114
1, 212224, Note_on_c, 0, 73, 0
1, 212224, Note_on_c, 0, 71, 114
1, 212378, Note_on_c, 0, 56, 0
1, 212480, Note_on_c, 0, 71, 0
1, 212480, Note_on_c, 0, 71, 114
1, 212480, Note_on_c, 0, 54, 114
1, 212736, Note_on_c, 0, 71, 0
1, 212736, Note_on_c, 0, 69, 114
1, 212890, Note_on_c, 0, 54, 0
1, 212992, Note_on_c, 0, 69, 0
1, 212992, Note_on_c, 0, 68, 114
1, 212992, Note_on_c, 0, 52, 114
1, 213163, Note_on_c, 0, 68, 0
1, 213163, Note_on_c, 0, 69, 114
1, 213333, Note_on_c, 0, 69, 0
1, 213333, Note_on_c, 0, 71, 114
1, 213504, Note_on_c, 0, 71, 0
1, 213504, Note_on_c, 0, 64, 114
1, 213675, Note_on_c, 0, 64, 0
1, 213675, Note_on_c, 0, 69, 114
1, 213811, Note_on_c, 0, 52, 0
1, 213845, Note_on_c, 0, 69, 0
1, 213845, Note_on_c, 0, 66, 114
1, 214016, Note_on_c, 0, 66, 0
1, 214016, Note_on_c, 0, 66, 114
1, 214016, Note_on_c, 0, 59, 114
1, 214144, Note_on_c, 0, 66, 0
1, 214144, Note_on_c, 0, 68, 114
1, 214272, Note_on_c, 0, 68, 0
1, 214272, Note_on_c, 0, 66, 114
1, 214400, Note_on_c, 0, 66, 0
1, 214400, Note_on_c, 0, 68, 114
1, 214426, Note_on_c, 0, 59, 0
1, 214528, Note_on_c, 0, 68, 0
1, 214528, Note_on_c, 0, 66, 114
1, 214528, Note_on_c, 0, 47, 114
1, 214656, Note_on_c, 0, 66, 0
1, 214656, Note_on_c, 0, 68, 114
1, 214784, Note_on_c, 0, 68, 0
1, 214784, Note_on_c, 0, 66, 114
1, 214938, Note_on_c, 0, 47, 0
1, 215040, Note_on_c, 0, 66, 0
1, 215040, Note_on_c, 0, 64, 114
1, 215040, Note_on_c, 0, 52, 114
1, 215450, Note_on_c, 0, 52, 0
1, 215552, Note_on_c, 0, 40, 114
1, 215808, Note_on_c, 0, 64, 0
1, 215808, Note_on_c, 0, 71, 75
1, 215962, Note_on_c, 0, 40, 0
1, 216064, Note_on_c, 0, 71, 0
1, 216064, Note_on_c, 0, 64, 75
1, 216576, Note_on_c, 0, 64, 0
1, 216576, Note_on_c, 0, 66, 75
1, 217088, Note_on_c, 0, 66, 0
1, 217088, Note_on_c, 0, 68, 75
1, 217088, Note_on_c, 0, 64, 75
1, 217088, Note_on_c, 0, 35, 75
1, 217088, Note_on_c, 0, 47, 75
1, 217600, Note_on_c, 0, 68, 0
1, 217600, Note_on_c, 0, 66, 75
1, 217600, Note_on_c, 0, 64, 0
1, 217600, Note_on_c, 0, 63, 75
1, 217984, Note_on_c, 0, 66, 0
1, 217984, Note_on_c, 0, 71, 75
1, 218112, Note_on_c, 0, 71, 0
1, 218112, Note_on_c, 0, 66, 75
1, 218112, Note_on_c, 0, 63, 0
1, 218112, Note_on_c, 0, 63, 75
1, 218112, Note_on_c, 0, 35, 0
1, 218112, Note_on_c, 0, 47, 0
1, 218624, Note_on_c, 0, 66, 0
1, 218624, Note_on_c, 0, 68, 75
1, 218624, Note_on_c, 0, 63, 0
1, 218624, Note_on_c, 0, 64, 75
1, 219136, Note_on_c, 0, 68, 0
1, 219136, Note_on_c, 0, 64, 0
1, 219136, Note_on_c, 0, 69, 75
1, 219136, Note_on_c, 0, 66, 75
1, 219136, Note_on_c, 0, 35, 75
1, 219136, Note_on_c, 0, 47, 75
1, 219546, Note_on_c, 0, 35, 0
1, 219546, Note_on_c, 0, 47, 0
1, 219648, Note_on_c, 0, 69, 0
1, 219648, Note_on_c, 0, 68, 75
1, 219648, Note_on_c, 0, 66, 0
1, 219648, Note_on_c, 0, 64, 75
1, 219648, Note_on_c, 0, 40, 75
1, 219648, Note_on_c, 0, 52, 75
1, 220032, Note_on_c, 0, 68, 0
1, 220032, Note_on_c, 0, 71, 75
1, 220058, Note_on_c, 0, 40, 0
1, 220058, Note_on_c, 0, 52, 0
1, 220160, Note_on_c, 0, 71, 0
1, 220160, Note_on_c, 0, 68, 75
1, 220160, Note_on_c, 0, 64, 0
1, 220160, Note_on_c, 0, 64, 75
1, 220672, Note_on_c, 0, 68, 0
1, 220672, Note_on_c, 0, 69, 75
1, 220672, Note_on_c, 0, 64, 0
1, 220672, Note_on_c, 0, 66, 75
1, 221184, Note_on_c, 0, 69, 0
1, 221184, Note_on_c, 0, 66, 0
1, 221184, Note_on_c, 0, 68, 75
1, 221184, Note_on_c, 0, 71, 75
1, 221184, Note_on_c, 0, 40, 75
1, 221184, Note_on_c, 0, 52, 75
1, 221696, Note_on_c, 0, 68, 0
1, 221696, Note_on_c, 0, 71, 0
1, 221696, Note_on_c, 0, 68, 75
1, 221696, Note_on_c, 0, 71, 75
1, 221696, Note_on_c, 0, 76, 75
1, 222003, Note_on_c, 0, 40, 0
1, 222003, Note_on_c, 0, 52, 0
1, 222208, Note_on_c, 0, 68, 0
1, 222208, Note_on_c, 0, 71, 0
1, 222208, Note_on_c, 0, 76, 0
1, 222208, Note_on_c, 0, 44, 75
1, 222208, Note_on_c, 0, 56, 75
1, 222720, Note_on_c, 0, 64, 75
1, 222720, Note_on_c, 0, 68, 75
1, 222720, Note_on_c, 0, 71, 75
1, 223027, Note_on_c, 0, 44, 0
1, 223027, Note_on_c, 0, 56, 0
1, 223232, Note_on_c, 0, 64, 0
1, 223232, Note_on_c, 0, 68, 0
1, 223232, Note_on_c, 0, 71, 0
1, 223232, Note_on_c, 0, 45, 75
1, 223232, Note_on_c, 0, 57, 75
1, 223488, Note_on_c, 0, 73, 75
1, 223642, Note_on_c, 0, 45, 0
1, 223642, Note_on_c, 0, 57, 0
1, 223744, Note_on_c, 0, 61, 75
1, 224000, Note_on_c, 0, 73, 0
1, 224000, Note_on_c, 0, 69, 75
1, 224154, Note_on_c, 0, 61, 0
1, 224256, Note_on_c, 0, 59, 75
1, 224512, Note_on_c, 0, 69, 0
1, 224512, Note_on_c, 0, 68, 75
1, 224666, Note_on_c, 0, 59, 0
1, 224768, Note_on_c, 0, 63, 75
1, 225024, Note_on_c, 0, 68, 0
1, 225024, Note_on_c, 0, 66, 75
1, 225178, Note_on_c, 0, 63, 0
1, 225280, Note_on_c, 0, 66, 0
1, 225280, Note_on_c, 0, 68, 75
1, 225280, Note_on_c, 0, 64, 75
1, 225792, Note_on_c, 0, 68, 0
1, 225792, Note_on_c, 0, 68, 75
1, 225792, Note_on_c, 0, 71, 75
1, 225792, Note_on_c, 0, 76, 75
1, 226304, Note_on_c, 0, 68, 0
1, 226304, Note_on_c, 0, 71, 0
1, 226304, Note_on_c, 0, 76, 0
1, 226304, Note_on_c, 0, 64, 0
1, 226304, Note_on_c, 0, 56, 75
1, 226304, Note_on_c, 0, 59, 75
1, 226304, Note_on_c, 0, 64, 75
1, 226816, Note_on_c, 0, 76, 75
1, 226816, Note_on_c, 0, 80, 75
1, 226816, Note_on_c, 0, 83, 75
1, 227328, Note_on_c, 0, 76, 0
1, 227328, Note_on_c, 0, 80, 0
1, 227328, Note_on_c, 0, 83, 0
1, 227328, Note_on_c, 0, 56, 0
1, 227328, Note_on_c, 0, 59, 0
1, 227328, Note_on_c, 0, 64, 0
1, 227328, Note_on_c, 0, 81, 88
1, 227328, Note_on_c, 0, 54, 88
1, 227328, Note_on_c, 0, 63, 88
1, 227499, Note_on_c, 0, 81, 0
1, 227499, Note_on_c, 0, 80, 88
1, 227669, Note_on_c, 0, 80, 0
1, 227669, Note_on_c, 0, 78, 88
1, 227738, Note_on_c, 0, 54, 0
1, 227738, Note_on_c, 0, 63, 0
1, 227840, Note_on_c, 0, 78, 0
1, 227840, Note_on_c, 0, 80, 88
1, 227840, Note_on_c, 0, 52, 88
1, 227840, Note_on_c, 0, 64, 88
1, 228011, Note_on_c, 0, 80, 0
1, 228011, Note_on_c, 0, 78, 88
1, 228181, Note_on_c, 0, 78, 0
1, 228181, Note_on_c, 0, 76, 88
1, 228250, Note_on_c, 0, 52, 0
1, 228250, Note_on_c, 0, 64, 0
1, 228352, Note_on_c, 0, 76, 0
1, 228352, Note_on_c, 0, 78, 88
1, 228352, Note_on_c, 0, 57, 88
1, 228352, Note_on_c, 0, 64, 88
1, 228480, Note_on_c, 0, 78, 0
1, 228480, Note_on_c, 0, 80, 88
1, 228608, Note_on_c, 0, 80, 0
1, 228608, Note_on_c, 0, 78, 88
1, 228736, Note_on_c, 0, 78, 0
1, 228736, Note_on_c, 0, 80, 88
1, 228762, Note_on_c, 0, 57, 0
1, 228762, Note_on_c, 0, 64, 0
1, 228864, Note_on_c, 0, 80, 0
1, 228864, Note_on_c, 0, 78, 88
1, 228864, Note_on_c, 0, 59, 88
1, 228864, Note_on_c, 0, 63, 88
1, 228992, Note_on_c, 0, 78, 0
1, 228992, Note_on_c, 0, 80, 88
1, 229120, Note_on_c, 0, 80, 0
1, 229120, Note_on_c, 0, 78, 88
1, 229274, Note_on_c, 0, 59, 0
1, 229274, Note_on_c, 0, 63, 0
1, 229376, Note_on_c, 0, 78, 0
1, 229376, Note_on_c, 0, 80, 101
1, 229376, Note_on_c, 0, 52, 101
1, 229376, Note_on_c, 0, 64, 101
1, 229547, Note_on_c, 0, 80, 0
1, 229547, Note_on_c, 0, 78, 101
1, 229717, Note_on_c, 0, 78, 0
1, 229717, Note_on_c, 0, 76, 101
1, 229888, Note_on_c, 0, 76, 0
1, 229888, Note_on_c, 0, 75, 101
1, 230059, Note_on_c, 0, 75, 0
1, 230059, Note_on_c, 0, 73, 101
1, 230229, Note_on_c, 0, 73, 0
1, 230229, Note_on_c, 0, 71, 101
1, 230400, Note_on_c, 0, 71, 0
1, 230400, Note_on_c, 0, 78, 101
1, 230400, Note_on_c, 0, 52, 0
1, 230400, Note_on_c, 0, 64, 0
1, 230400, Note_on_c, 0, 57, 101
1, 230400, Note_on_c, 0, 64, 101
1, 230528, Note_on_c, 0, 78, 0
1, 230528, Note_on_c, 0, 80, 101
1, 230656, Note_on_c, 0, 80, 0
1, 230656, Note_on_c, 0, 78, 101
1, 230784, Note_on_c, 0, 78, 0
1, 230784, Note_on_c, 0, 80, 101
1, 230912, Note_on_c, 0, 80, 0
1, 230912, Note_on_c, 0, 78, 101
1, 230912, Note_on_c, 0, 57, 0
1, 230912, Note_on_c, 0, 64, 0
1, 230912, Note_on_c, 0, 59, 101
1, 230912, Note_on_c, 0, 63, 101
1, 231040, Note_on_c, 0, 78, 0
1, 231040, Note_on_c, 0, 80, 101
1, 231168, Note_on_c, 0, 80, 0
1, 231168, Note_on_c, 0, 78, 101
1, 231424, Note_on_c, 0, 78, 0
1, 231424, Note_on_c, 0, 59, 0
1, 231424, Note_on_c, 0, 63, 0
1, 231424, Note_on_c, 0, 76, 101
1, 231424, Note_on_c, 0, 64, 101
1, 231680, Note_on_c, 0, 64, 0
1, 231936, Note_on_c, 0, 59, 101
1, 232192, Note_on_c, 0, 59, 0
1, 232448, Note_on_c, 0, 76, 0
1, 232448, Note_on_c, 0, 52, 101
1, 233472, Note_on_c, 0, 52, 0
1, 233472, Note_on_c, 0, 71, 62
1, 233472, Note_on_c, 0, 47, 62
1, 233472, Note_on_c, 0, 59, 62
1, 233728, Note_on_c, 0, 71, 0
1, 233728, Note_on_c, 0, 83, 62
1, 233984, Note_on_c, 0, 83, 0
1, 233984, Note_on_c, 0, 83, 62
1, 234189, Note_on_c, 0, 83, 0
1, 234240, Note_on_c, 0, 83, 62
1, 234445, Note_on_c, 0, 83, 0
1, 234496, Note_on_c, 0, 83, 62
1, 234496, Note_on_c, 0, 47, 0
1, 234496, Note_on_c, 0, 59, 0
1, 234752, Note_on_c, 0, 83, 0
1, 234752, Note_on_c, 0, 80, 62
1, 235008, Note_on_c, 0, 80, 0
1, 235008, Note_on_c, 0, 81, 62
1, 235264, Note_on_c, 0, 81, 0
1, 235264, Note_on_c, 0, 78, 62
1, 235520, Note_on_c, 0, 78, 0
1, 235520, Note_on_c, 0, 80, 62
1, 235520, Note_on_c, 0, 59, 62
1, 235725, Note_on_c, 0, 80, 0
1, 235776, Note_on_c, 0, 80, 62
1, 235776, Note_on_c, 0, 71, 62
1, 235981, Note_on_c, 0, 80, 0
1, 235981, Note_on_c, 0, 71, 0
1, 236032, Note_on_c, 0, 80, 62
1, 236032, Note_on_c, 0, 71, 62
1, 236237, Note_on_c, 0, 80, 0
1, 236237, Note_on_c, 0, 71, 0
1, 236288, Note_on_c, 0, 80, 62
1, 236288, Note_on_c, 0, 71, 62
1, 236493, Note_on_c, 0, 80, 0
1, 236493, Note_on_c, 0, 71, 0
1, 236544, Note_on_c, 0, 80, 62
1, 236544, Note_on_c, 0, 71, 62
1, 236800, Note_on_c, 0, 80, 0
1, 236800, Note_on_c, 0, 76, 62
1, 236800, Note_on_c, 0, 71, 0
1, 236800, Note_on_c, 0, 68, 62
1, 237056, Note_on_c, 0, 76, 0
1, 237056, Note_on_c, 0, 78, 62
1, 237056, Note_on_c, 0, 68, 0
1, 237056, Note_on_c, 0, 69, 62
1, 237312, Note_on_c, 0, 78, 0
1, 237312, Note_on_c, 0, 75, 62
1, 237312, Note_on_c, 0, 69, 0
1, 237312, Note_on_c, 0, 66, 62
1, 237568, Note_on_c, 0, 75, 0
1, 237568, Note_on_c, 0, 66, 0
1, 237568, Note_on_c, 0, 59, 0
1, 237568, Note_on_c, 0, 76, 62
1, 237568, Note_on_c, 0, 68, 62
1, 237568, Note_on_c, 0, 59, 62
1, 237824, Note_on_c, 0, 76, 0
1, 237824, Note_on_c, 0, 80, 62
1, 237978, Note_on_c, 0, 68, 0
1, 238080, Note_on_c, 0, 80, 0
1, 238080, Note_on_c, 0, 78, 62
1, 238080, Note_on_c, 0, 63, 62
1, 238336, Note_on_c, 0, 78, 0
1, 238336, Note_on_c, 0, 81, 62
1, 238490, Note_on_c, 0, 63, 0
1, 238592, Note_on_c, 0, 81, 0
1, 238592, Note_on_c, 0, 80, 62
1, 238592, Note_on_c, 0, 64, 62
1, 238848, Note_on_c, 0, 80, 0
1, 238848, Note_on_c, 0, 83, 62
1, 239002, Note_on_c, 0, 64, 0
1, 239104, Note_on_c, 0, 83, 0
1, 239104, Note_on_c, 0, 75, 62
1, 239104, Note_on_c, 0, 66, 62
1, 239360, Note_on_c, 0, 75, 0
1, 239360, Note_on_c, 0, 78, 62
1, 239360, Note_on_c, 0, 66, 0
1, 239360, Note_on_c, 0, 69, 62
1, 239616, Note_on_c, 0, 78, 0
1, 239616, Note_on_c, 0, 69, 0
1, 239616, Note_on_c, 0, 59, 0
1, 239616, Note_on_c, 0, 76, 62
1, 239616, Note_on_c, 0, 68, 62
1, 239616, Note_on_c, 0, 59, 62
1, 239872, Note_on_c, 0, 76, 0
1, 239872, Note_on_c, 0, 80, 62
1, 240026, Note_on_c, 0, 68, 0
1, 240128, Note_on_c, 0, 80, 0
1, 240128, Note_on_c, 0, 78, 62
1, 240128, Note_on_c, 0, 63, 62
1, 240384, Note_on_c, 0, 78, 0
1, 240384, Note_on_c, 0, 81, 62
1, 240538, Note_on_c, 0, 63, 0
1, 240640, Note_on_c, 0, 81, 0
1, 240640, Note_on_c, 0, 80, 62
1, 240640, Note_on_c, 0, 64, 62
1, 240896, Note_on_c, 0, 80, 0
1, 240896, Note_on_c, 0, 83, 62
1, 241050, Note_on_c, 0, 64, 0
1, 241152, Note_on_c, 0, 83, 0
1, 241152, Note_on_c, 0, 75, 62
1, 241152, Note_on_c, 0, 66, 62
1, 241408, Note_on_c, 0, 75, 0
1, 241408, Note_on_c, 0, 78, 62
1, 241408, Note_on_c, 0, 66, 0
1, 241408, Note_on_c, 0, 69, 62
1, 241664, Note_on_c, 0, 78, 0
1, 241664, Note_on_c, 0, 69, 0
1, 241664, Note_on_c, 0, 59, 0
1, 241664, Note_on_c, 0, 76, 62
1, 241664, Note_on_c, 0, 68, 62
1, 241664, Note_on_c, 0, 59, 62
1, 241920, Note_on_c, 0, 76, 0
1, 241920, Note_on_c, 0, 80, 62
1, 242074, Note_on_c, 0, 68, 0
1, 242176, Note_on_c, 0, 80, 0
1, 242176, Note_on_c, 0, 78, 62
1, 242176, Note_on_c, 0, 63, 62
1, 242432, Note_on_c, 0, 78, 0
1, 242432, Note_on_c, 0, 81, 62
1, 242688, Note_on_c, 0, 81, 0
1, 242688, Note_on_c, 0, 80, 62
1, 242688, Note_on_c, 0, 63, 0
1, 242688, Note_on_c, 0, 64, 62
1, 242944, Note_on_c, 0, 80, 0
1, 242944, Note_on_c, 0, 83, 62
1, 243098, Note_on_c, 0, 64, 0
1, 243200, Note_on_c, 0, 83, 0
1, 243200, Note_on_c, 0, 80, 62
1, 243200, Note_on_c, 0, 68, 62
1, 243456, Note_on_c, 0, 80, 0
1, 243456, Note_on_c, 0, 76, 62
1, 243610, Note_on_c, 0, 68, 0
1, 243712, Note_on_c, 0, 76, 0
1, 243712, Note_on_c, 0, 59, 0
1, 243712, Note_on_c, 0, 75, 62
1, 243712, Note_on_c, 0, 71, 62
1, 243712, Note_on_c, 0, 59, 62
1, 243883, Note_on_c, 0, 75, 0
1, 243883, Note_on_c, 0, 76, 62
1, 244053, Note_on_c, 0, 76, 0
1, 244053, Note_on_c, 0, 78, 62
1, 244224, Note_on_c, 0, 78, 0
1, 244224, Note_on_c, 0, 71, 62
1, 244736, Note_on_c, 0, 71, 0
1, 244736, Note_on_c, 0, 71, 0
1, 244736, Note_on_c, 0, 59, 0
1, 245760, Note_on_c, 0, 64, 101
1, 245760, Note_on_c, 0, 68, 101
1, 245760, Note_on_c, 0, 71, 101
1, 245760, Note_on_c, 0, 76, 101
1, 245760, Note_on_c, 0, 40, 101
1, 245760, Note_on_c, 0, 52, 101
1, 246528, Note_on_c, 0, 64, 0
1, 246528, Note_on_c, 0, 68, 0
1, 246528, Note_on_c, 0, 71, 0
1, 246528, Note_on_c, 0, 76, 0
1, 246528, Note_on_c, 0, 64, 62
1, 246528, Note_on_c, 0, 40, 0
1, 246528, Note_on_c, 0, 52, 0
1, 246784, Note_on_c, 0, 64, 0
1, 246784, Note_on_c, 0, 68, 62
1, 246784, Note_on_c, 0, 64, 62
1, 247194, Note_on_c, 0, 68, 0
1, 247194, Note_on_c, 0, 64, 0
1, 247296, Note_on_c, 0, 69, 62
1, 247296, Note_on_c, 0, 66, 62
1, 247706, Note_on_c, 0, 69, 0
1, 247706, Note_on_c, 0, 66, 0
1, 247808, Note_on_c, 0, 71, 62
1, 247808, Note_on_c, 0, 68, 62
1, 247936, Note_on_c, 0, 71, 0
1, 247936, Note_on_c, 0, 73, 62
1, 248064, Note_on_c, 0, 73, 0
1, 248064, Note_on_c, 0, 71, 62
1, 248576, Note_on_c, 0, 71, 0
1, 248576, Note_on_c, 0, 73, 62
1, 248576, Note_on_c, 0, 68, 0
1, 248576, Note_on_c, 0, 69, 62
1, 248832, Note_on_c, 0, 73, 0
1, 248832, Note_on_c, 0, 71, 62
1, 248832, Note_on_c, 0, 69, 0
1, 248832, Note_on_c, 0, 68, 62
1, 249344, Note_on_c, 0, 71, 0
1, 249344, Note_on_c, 0, 69, 75
1, 249344, Note_on_c, 0, 68, 0
1, 249344, Note_on_c, 0, 63, 75
1, 249472, Note_on_c, 0, 69, 0
1, 249472, Note_on_c, 0, 71, 75
1, 249600, Note_on_c, 0, 71, 0
1, 249600, Note_on_c, 0, 69, 75
1, 249728, Note_on_c, 0, 69, 0
1, 249728, Note_on_c, 0, 71, 75
1, 249856, Note_on_c, 0, 71, 0
1, 249856, Note_on_c, 0, 63, 0
1, 249856, Note_on_c, 0, 68, 75
1, 249856, Note_on_c, 0, 64, 75
1, 250368, Note_on_c, 0, 68, 0
1, 250368, Note_on_c, 0, 59, 75
1, 250368, Note_on_c, 0, 64, 75
1, 250368, Note_on_c, 0, 64, 0
1, 250368, Note_on_c, 0, 44, 75
1, 250368, Note_on_c, 0, 56, 75
1, 250778, Note_on_c, 0, 59, 0
1, 250778, Note_on_c, 0, 64, 0
1, 250778, Note_on_c, 0, 44, 0
1, 250778, Note_on_c, 0, 56, 0
1, 250880, Note_on_c, 0, 61, 75
1, 250880, Note_on_c, 0, 66, 75
1, 250880, Note_on_c, 0, 45, 75
1, 250880, Note_on_c, 0, 57, 75
1, 251290, Note_on_c, 0, 61, 0
1, 251290, Note_on_c, 0, 66, 0
1, 251290, Note_on_c, 0, 45, 0
1, 251290, Note_on_c, 0, 57, 0
1, 251392, Note_on_c, 0, 63, 75
1, 251392, Note_on_c, 0, 47, 75
1, 251392, Note_on_c, 0, 54, 75
1, 251802, Note_on_c, 0, 63, 0
1, 251802, Note_on_c, 0, 47, 0
1, 251802, Note_on_c, 0, 54, 0
1, 251904, Note_on_c, 0, 64, 75
1, 251904, Note_on_c, 0, 40, 75
1, 251904, Note_on_c, 0, 52, 75
1, 252075, Note_on_c, 0, 64, 0
1, 252075, Note_on_c, 0, 66, 75
1, 252245, Note_on_c, 0, 66, 0
1, 252245, Note_on_c, 0, 68, 75
1, 252416, Note_on_c, 0, 68, 0
1, 252416, Note_on_c, 0, 59, 75
1, 252928, Note_on_c, 0, 59, 0
1, 252928, Note_on_c, 0, 40, 0
1, 252928, Note_on_c, 0, 52, 0
1, 253056, Note_on_c, 0, 71, 75
1, 253184, Note_on_c, 0, 71, 0
1, 253184, Note_on_c, 0, 73, 75
1, 253312, Note_on_c, 0, 73, 0
1, 253312, Note_on_c, 0, 75, 75
1, 253440, Note_on_c, 0, 75, 0
1, 253440, Note_on_c, 0, 76, 75
1, 253568, Note_on_c, 0, 76, 0
1, 253568, Note_on_c, 0, 78, 75
1, 253696, Note_on_c, 0, 78, 0
1, 253696, Note_on_c, 0, 80, 75
1, 253824, Note_on_c, 0, 80, 0
1, 253824, Note_on_c, 0, 81, 75
1, 253952, Note_on_c, 0, 81, 0
1, 253952, Note_on_c, 0, 83, 88
1, 253952, Note_on_c, 0, 64, 88
1, 254362, Note_on_c, 0, 64, 0
1, 254464, Note_on_c, 0, 83, 0
1, 254464, Note_on_c, 0, 80, 88
1, 254464, Note_on_c, 0, 68, 88
1, 254720, Note_on_c, 0, 80, 0
1, 254720, Note_on_c, 0, 76, 88
1, 254874, Note_on_c, 0, 68, 0
1, 254976, Note_on_c, 0, 76, 0
1, 254976, Note_on_c, 0, 81, 88
1, 254976, Note_on_c, 0, 59, 88
1, 255232, Note_on_c, 0, 81, 0
1, 255232, Note_on_c, 0, 78, 88
1, 255386, Note_on_c, 0, 59, 0
1, 255488, Note_on_c, 0, 78, 0
1, 255488, Note_on_c, 0, 76, 88
1, 255488, Note_on_c, 0, 69, 88
1, 255744, Note_on_c, 0, 76, 0
1, 255744, Note_on_c, 0, 75, 88
1, 255898, Note_on_c, 0, 69, 0
1, 256000, Note_on_c, 0, 75, 0
1, 256000, Note_on_c, 0, 76, 88
1, 256000, Note_on_c, 0, 68, 88
1, 256256, Note_on_c, 0, 76, 0
1, 256256, Note_on_c, 0, 83, 88
1, 256410, Note_on_c, 0, 68, 0
1, 256512, Note_on_c, 0, 64, 88
1, 256768, Note_on_c, 0, 83, 0
1, 256768, Note_on_c, 0, 80, 88
1, 256922, Note_on_c, 0, 64, 0
1, 257024, Note_on_c, 0, 66, 88
1, 257280, Note_on_c, 0, 80, 0
1, 257280, Note_on_c, 0, 81, 88
1, 257434, Note_on_c, 0, 66, 0
1, 257536, Note_on_c, 0, 63, 88
1, 257792, Note_on_c, 0, 81, 0
1, 257792, Note_on_c, 0, 78, 88
1, 257946, Note_on_c, 0, 63, 0
1, 258048, Note_on_c, 0, 64, 88
1, 258304, Note_on_c, 0, 78, 0
1, 258304, Note_on_c, 0, 80, 88
1, 258458, Note_on_c, 0, 64, 0
1, 258560, Note_on_c, 0, 71, 88
1, 258816, Note_on_c, 0, 80, 0
1, 258816, Note_on_c, 0, 76, 88
1, 258970, Note_on_c, 0, 71, 0
1, 259072, Note_on_c, 0, 69, 88
1, 259328, Note_on_c, 0, 76, 0
1, 259328, Note_on_c, 0, 78, 88
1, 259482, Note_on_c, 0, 69, 0
1, 259584, Note_on_c, 0, 66, 88
1, 259840, Note_on_c, 0, 78, 0
1, 259840, Note_on_c, 0, 75, 94
1, 259994, Note_on_c, 0, 66, 0
1, 260096, Note_on_c, 0, 68, 94
1, 260352, Note_on_c, 0, 75, 0
1, 260352, Note_on_c, 0, 76, 100
1, 260506, Note_on_c, 0, 68, 0
1, 260608, Note_on_c, 0, 64, 100
1, 260864, Note_on_c, 0, 76, 0
1, 260864, Note_on_c, 0, 73, 106
1, 261018, Note_on_c, 0, 64, 0
1, 261120, Note_on_c, 0, 66, 106
1, 261376, Note_on_c, 0, 73, 0
1, 261376, Note_on_c, 0, 75, 114
1, 261530, Note_on_c, 0, 66, 0
1, 261632, Note_on_c, 0, 63, 114
1, 261888, Note_on_c, 0, 75, 0
1, 261888, Note_on_c, 0, 72, 120
1, 262042, Note_on_c, 0, 63, 0
1, 262144, Note_on_c, 0, 72, 0
1, 262144, Note_on_c, 0, 73, 120
1, 262144, Note_on_c, 0, 64, 120
1, 262400, Note_on_c, 0, 73, 0
1, 262400, Note_on_c, 0, 68, 126
1, 262656, Note_on_c, 0, 68, 0
1, 262656, Note_on_c, 0, 68, 126
1, 262861, Note_on_c, 0, 68, 0
1, 262912, Note_on_c, 0, 68, 127
1, 263117, Note_on_c, 0, 68, 0
1, 263168, Note_on_c, 0, 76, 127
1, 263168, Note_on_c, 0, 64, 0
1, 263168, Note_on_c, 0, 49, 127
1, 263424, Note_on_c, 0, 76, 0
1, 263424, Note_on_c, 0, 68, 127
1, 263578, Note_on_c, 0, 49, 0
1, 263680, Note_on_c, 0, 68, 0
1, 263680, Note_on_c, 0, 68, 127
1, 263680, Note_on_c, 0, 49, 127
1, 263885, Note_on_c, 0, 68, 0
1, 263936, Note_on_c, 0, 68, 127
1, 264090, Note_on_c, 0, 49, 0
1, 264141, Note_on_c, 0, 68, 0
1, 264192, Note_on_c, 0, 75, 127
1, 264192, Note_on_c, 0, 48, 127
1, 264448, Note_on_c, 0, 75, 0
1, 264448, Note_on_c, 0, 68, 127
1, 264602, Note_on_c, 0, 48, 0
1, 264704, Note_on_c, 0, 68, 0
1, 264704, Note_on_c, 0, 68, 127
1, 264704, Note_on_c, 0, 51, 127
1, 264909, Note_on_c, 0, 68, 0
1, 264960, Note_on_c, 0, 68, 127
1, 265114, Note_on_c, 0, 51, 0
1, 265165, Note_on_c, 0, 68, 0
1, 265216, Note_on_c, 0, 78, 127
1, 265216, Note_on_c, 0, 56, 127
1, 265472, Note_on_c, 0, 78, 0
1, 265472, Note_on_c, 0, 68, 127
1, 265626, Note_on_c, 0, 56, 0
1, 265728, Note_on_c, 0, 68, 0
1, 265728, Note_on_c, 0, 68, 127
1, 265728, Note_on_c, 0, 60, 127
1, 265933, Note_on_c, 0, 68, 0
1, 265984, Note_on_c, 0, 68, 127
1, 266138, Note_on_c, 0, 60, 0
1, 266189, Note_on_c, 0, 68, 0
1, 266240, Note_on_c, 0, 76, 127
1, 266240, Note_on_c, 0, 61, 127
1, 266496, Note_on_c, 0, 76, 0
1, 266496, Note_on_c, 0, 68, 127
1, 266752, Note_on_c, 0, 68, 0
1, 266752, Note_on_c, 0, 68, 127
1, 266752, Note_on_c, 0, 61, 0
1, 266752, Note_on_c, 0, 49, 127
1, 266957, Note_on_c, 0, 68, 0
1, 267008, Note_on_c, 0, 68, 127
1, 267213, Note_on_c, 0, 68, 0
1, 267264, Note_on_c, 0, 80, 127
1, 267264, Note_on_c, 0, 49, 0
1, 267520, Note_on_c, 0, 80, 0
1, 267520, Note_on_c, 0, 76, 127
1, 267776, Note_on_c, 0, 76, 0
1, 267776, Note_on_c, 0, 76, 127
1, 267776, Note_on_c, 0, 52, 127
1, 267776, Note_on_c, 0, 64, 127
1, 267981, Note_on_c, 0, 76, 0
1, 268032, Note_on_c, 0, 76, 127
1, 268186, Note_on_c, 0, 52, 0
1, 268186, Note_on_c, 0, 64, 0
1, 268237, Note_on_c, 0, 76, 0
1, 268288, Note_on_c, 0, 81, 127
1, 268288, Note_on_c, 0, 54, 127
1, 268544, Note_on_c, 0, 54, 0
1, 268544, Note_on_c, 0, 66, 127
1, 268800, Note_on_c, 0, 81, 0
1, 268800, Note_on_c, 0, 66, 0
1, 268800, Note_on_c, 0, 66, 127
1, 269005, Note_on_c, 0, 66, 0
1, 269056, Note_on_c, 0, 66, 127
1, 269261, Note_on_c, 0, 66, 0
1, 269312, Note_on_c, 0, 71, 127
1, 269312, Note_on_c, 0, 63, 127
1, 269568, Note_on_c, 0, 71, 0
1, 269568, Note_on_c, 0, 78, 127
1, 269568, Note_on_c, 0, 81, 127
1, 269824, Note_on_c, 0, 78, 0
1, 269824, Note_on_c, 0, 81, 0
1, 269824, Note_on_c, 0, 78, 127
1, 269824, Note_on_c, 0, 81, 127
1, 270080, Note_on_c, 0, 78, 0
1, 270080, Note_on_c, 0, 81, 0
1, 270080, Note_on_c, 0, 78, 127
1, 270080, Note_on_c, 0, 81, 127
1, 270336, Note_on_c, 0, 78, 0
1, 270336, Note_on_c, 0, 81, 0
1, 270336, Note_on_c, 0, 63, 0
1, 270336, Note_on_c, 0, 76, 127
1, 270336, Note_on_c, 0, 80, 127
1, 270336, Note_on_c, 0, 52, 127
1, 270592, Note_on_c, 0, 52, 0
1, 270592, Note_on_c, 0, 64, 127
1, 270848, Note_on_c, 0, 76, 0
1, 270848, Note_on_c, 0, 80, 0
1, 270848, Note_on_c, 0, 64, 0
1, 270848, Note_on_c, 0, 64, 127
1, 271053, Note_on_c, 0, 64, 0
1, 271104, Note_on_c, 0, 64, 127
1, 271309, Note_on_c, 0, 64, 0
1, 271360, Note_on_c, 0, 83, 127
1, 271616, Note_on_c, 0, 83, 0
1, 271616, Note_on_c, 0, 81, 127
1, 271872, Note_on_c, 0, 81, 0
1, 271872, Note_on_c, 0, 81, 127
1, 271872, Note_on_c, 0, 52, 127
1, 271872, Note_on_c, 0, 64, 127
1, 272128, Note_on_c, 0, 81, 0
1, 272128, Note_on_c, 0, 80, 127
1, 272282, Note_on_c, 0, 52, 0
1, 272282, Note_on_c, 0, 64, 0
1, 272384, Note_on_c, 0, 80, 0
1, 272384, Note_on_c, 0, 80, 127
1, 272384, Note_on_c, 0, 57, 127
1, 272384, Note_on_c, 0, 61, 127
1, 272640, Note_on_c, 0, 80, 0
1, 272640, Note_on_c, 0, 78, 127
1, 272896, Note_on_c, 0, 78, 0
1, 272896, Note_on_c, 0, 78, 127
1, 272896, Note_on_c, 0, 57, 0
1, 272896, Note_on_c, 0, 61, 0
1, 272896, Note_on_c, 0, 56, 127
1, 272896, Note_on_c, 0, 59, 127
1, 273152, Note_on_c, 0, 78, 0
1, 273152, Note_on_c, 0, 76, 127
1, 273408, Note_on_c, 0, 76, 0
1, 273408, Note_on_c, 0, 83, 62
1, 273408, Note_on_c, 0, 56, 0
1, 273408, Note_on_c, 0, 59, 0
1, 273664, Note_on_c, 0, 83, 0
1, 273664, Note_on_c, 0, 81, 62
1, 273920, Note_on_c, 0, 81, 0
1, 273920, Note_on_c, 0, 81, 62
1, 273920, Note_on_c, 0, 52, 62
1, 273920, Note_on_c, 0, 64, 62
1, 274176, Note_on_c, 0, 81, 0
1, 274176, Note_on_c, 0, 80, 62
1, 274330, Note_on_c, 0, 52, 0
1, 274330, Note_on_c, 0, 64, 0
1, 274432, Note_on_c, 0, 80, 0
1, 274432, Note_on_c, 0, 80, 62
1, 274432, Note_on_c, 0, 57, 62
1, 274432, Note_on_c, 0, 61, 62
1, 274688, Note_on_c, 0, 80, 0
1, 274688, Note_on_c, 0, 78, 62
1, 274944, Note_on_c, 0, 78, 0
1, 274944, Note_on_c, 0, 78, 62
1, 274944, Note_on_c, 0, 57, 0
1, 274944, Note_on_c, 0, 61, 0
1, 274944, Note_on_c, 0, 56, 62
1, 274944, Note_on_c, 0, 59, 62
1, 275200, Note_on_c, 0, 78, 0
1, 275200, Note_on_c, 0, 76, 62
1, 275456, Note_on_c, 0, 76, 0
1, 275456, Note_on_c, 0, 83, 127
1, 275456, Note_on_c, 0, 56, 0
1, 275456, Note_on_c, 0, 59, 0
1, 275712, Note_on_c, 0, 83, 0
1, 275712, Note_on_c, 0, 81, 127
1, 275968, Note_on_c, 0, 81, 0
1, 275968, Note_on_c, 0, 81, 127
1, 275968, Note_on_c, 0, 52, 127
1, 275968, Note_on_c, 0, 64, 127
1, 276224, Note_on_c, 0, 81, 0
1, 276224, Note_on_c, 0, 80, 127
1, 276378, Note_on_c, 0, 52, 0
1, 276378, Note_on_c, 0, 64, 0
1, 276480, Note_on_c, 0, 80, 0
1, 276480, Note_on_c, 0, 85, 127
1, 276480, Note_on_c, 0, 57, 127
1, 276480, Note_on_c, 0, 61, 127
1, 276736, Note_on_c, 0, 85, 0
1, 276736, Note_on_c, 0, 81, 127
1, 276992, Note_on_c, 0, 81, 0
1, 276992, Note_on_c, 0, 81, 127
1, 277248, Note_on_c, 0, 81, 0
1, 277248, Note_on_c, 0, 80, 127
1, 277299, Note_on_c, 0, 57, 0
1, 277299, Note_on_c, 0, 61, 0
1, 277504, Note_on_c, 0, 80, 0
1, 277504, Note_on_c, 0, 80, 127
1, 277504, Note_on_c, 0, 57, 127
1, 277504, Note_on_c, 0, 61, 127
1, 277760, Note_on_c, 0, 80, 0
1, 277760, Note_on_c, 0, 78, 127
1, 277914, Note_on_c, 0, 57, 0
1, 277914, Note_on_c, 0, 61, 0
1, 278016, Note_on_c, 0, 78, 0
1, 278016, Note_on_c, 0, 85, 127
1, 278016, Note_on_c, 0, 58, 127
1, 278016, Note_on_c, 0, 61, 127
1, 278272, Note_on_c, 0, 85, 0
1, 278272, Note_on_c, 0, 76, 127
1, 278426, Note_on_c, 0, 58, 0
1, 278426, Note_on_c, 0, 61, 0
1, 278528, Note_on_c, 0, 76, 0
1, 278528, Note_on_c, 0, 75, 127
1, 278528, Note_on_c, 0, 59, 127
1, 278699, Note_on_c, 0, 75, 0
1, 278699, Note_on_c, 0, 76, 127
1, 278869, Note_on_c, 0, 76, 0
1, 278869, Note_on_c, 0, 78, 127
1, 278938, Note_on_c, 0, 59, 0
1, 279040, Note_on_c, 0, 78, 0
1, 279040, Note_on_c, 0, 71, 127
1, 279040, Note_on_c, 0, 47, 127
1, 279450, Note_on_c, 0, 47, 0
1, 279552, Note_on_c, 0, 71, 0
1, 280576, Note_on_c, 0, 64, 101
1, 280576, Note_on_c, 0, 68, 101
1, 280576, Note_on_c, 0, 71, 101
1, 280576, Note_on_c, 0, 76, 101
1, 280576, Note_on_c, 0, 40, 101
1, 280576, Note_on_c, 0, 52, 101
1, 281344, Note_on_c, 0, 64, 0
1, 281344, Note_on_c, 0, 68, 0
1, 281344, Note_on_c, 0, 71, 0
1, 281344, Note_on_c, 0, 76, 0
1, 281344, Note_on_c, 0, 64, 62
1, 281344, Note_on_c, 0, 40, 0
1, 281344, Note_on_c, 0, 52, 0
1, 281600, Note_on_c, 0, 64, 0
1, 281600, Note_on_c, 0, 68, 62
1, 281600, Note_on_c, 0, 64, 62
1, 282010, Note_on_c, 0, 68, 0
1, 282010, Note_on_c, 0, 64, 0
1, 282112, Note_on_c, 0, 69, 62
1, 282112, Note_on_c, 0, 66, 62
1, 282522, Note_on_c, 0, 69, 0
1, 282522, Note_on_c, 0, 66, 0
1, 282624, Note_on_c, 0, 71, 62
1, 282624, Note_on_c, 0, 68, 62
1, 282752, Note_on_c, 0, 71, 0
1, 282752, Note_on_c, 0, 73, 62
1, 282880, Note_on_c, 0, 73, 0
1, 282880, Note_on_c, 0, 71, 62
1, 283392, Note_on_c, 0, 71, 0
1, 283392, Note_on_c, 0, 73, 62
1, 283392, Note_on_c, 0, 68, 0
1, 283392, Note_on_c, 0, 69, 62
1, 283648, Note_on_c, 0, 73, 0
1, 283648, Note_on_c, 0, 71, 62
1, 283648, Note_on_c, 0, 69, 0
1, 283648, Note_on_c, 0, 68, 62
1, 284160, Note_on_c, 0, 71, 0
1, 284160, Note_on_c, 0, 69, 75
1, 284160, Note_on_c, 0, 68, 0
1, 284160, Note_on_c, 0, 63, 75
1, 284288, Note_on_c, 0, 69, 0
1, 284288, Note_on_c, 0, 71, 75
1, 284416, Note_on_c, 0, 71, 0
1, 284416, Note_on_c, 0, 69, 75
1, 284544, Note_on_c, 0, 69, 0
1, 284544, Note_on_c, 0, 71, 75
1, 284672, Note_on_c, 0, 71, 0
1, 284672, Note_on_c, 0, 63, 0
1, 284672, Note_on_c, 0, 68, 75
1, 284672, Note_on_c, 0, 64, 75
1, 285184, Note_on_c, 0, 68, 0
1, 285184, Note_on_c, 0, 59, 75
1, 285184, Note_on_c, 0, 64, 75
1, 285184, Note_on_c, 0, 64, 0
1, 285184, Note_on_c, 0, 44, 75
1, 285184, Note_on_c, 0, 56, 75
1, 285594, Note_on_c, 0, 59, 0
1, 285594, Note_on_c, 0, 64, 0
1, 285594, Note_on_c, 0, 44, 0
1, 285594, Note_on_c, 0, 56, 0
1, 285696, Note_on_c, 0, 61, 75
1, 285696, Note_on_c, 0, 66, 75
1, 285696, Note_on_c, 0, 45, 75
1, 285696, Note_on_c, 0, 57, 75
1, 286106, Note_on_c, 0, 61, 0
1, 286106, Note_on_c, 0, 66, 0
1, 286106, Note_on_c, 0, 45, 0
1, 286106, Note_on_c, 0, 57, 0
1, 286208, Note_on_c, 0, 63, 75
1, 286208, Note_on_c, 0, 47, 75
1, 286208, Note_on_c, 0, 54, 75
1, 286618, Note_on_c, 0, 63, 0
1, 286618, Note_on_c, 0, 47, 0
1, 286618, Note_on_c, 0, 54, 0
1, 286720, Note_on_c, 0, 64, 75
1, 286720, Note_on_c, 0, 40, 75
1, 286720, Note_on_c, 0, 52, 75
1, 286891, Note_on_c, 0, 64, 0
1, 286891, Note_on_c, 0, 66, 75
1, 287061, Note_on_c, 0, 66, 0
1, 287061, Note_on_c, 0, 68, 75
1, 287232, Note_on_c, 0, 68, 0
1, 287232, Note_on_c, 0, 59, 75
1, 287744, Note_on_c, 0, 59, 0
1, 287744, Note_on_c, 0, 40, 0
1, 287744, Note_on_c, 0, 52, 0
1, 287872, Note_on_c, 0, 64, 75
1, 288000, Note_on_c, 0, 64, 0
1, 288000, Note_on_c, 0, 66, 75
1, 288128, Note_on_c, 0, 66, 0
1, 288128, Note_on_c, 0, 68, 75
1, 288256, Note_on_c, 0, 68, 0
1, 288256, Note_on_c, 0, 69, 75
1, 288384, Note_on_c, 0, 69, 0
1, 288384, Note_on_c, 0, 71, 75
1, 288512, Note_on_c, 0, 71, 0
1, 288512, Note_on_c, 0, 73, 75
1, 288640, Note_on_c, 0, 73, 0
1, 288640, Note_on_c, 0, 75, 75
1, 288768, Note_on_c, 0, 75, 0
1, 288768, Note_on_c, 0, 76, 101
1, 288768, Note_on_c, 0, 52, 101
1, 288768, Note_on_c, 0, 56, 101
1, 288768, Note_on_c, 0, 59, 101
1, 289536, Note_on_c, 0, 76, 0
1, 289536, Note_on_c, 0, 68, 62
1, 289536, Note_on_c, 0, 52, 0
1, 289536, Note_on_c, 0, 56, 0
1, 289536, Note_on_c, 0, 59, 0
1, 289536, Note_on_c, 0, 64, 62
1, 289792, Note_on_c, 0, 68, 0
1, 289792, Note_on_c, 0, 69, 62
1, 289792, Note_on_c, 0, 64, 0
1, 289792, Note_on_c, 0, 66, 62
1, 290202, Note_on_c, 0, 69, 0
1, 290202, Note_on_c, 0, 66, 0
1, 290304, Note_on_c, 0, 71, 62
1, 290304, Note_on_c, 0, 68, 62
1, 290714, Note_on_c, 0, 71, 0
1, 290714, Note_on_c, 0, 68, 0
1, 290816, Note_on_c, 0, 73, 62
1, 290816, Note_on_c, 0, 69, 62
1, 290944, Note_on_c, 0, 73, 0
1, 290944, Note_on_c, 0, 75, 62
1, 291072, Note_on_c, 0, 75, 0
1, 291072, Note_on_c, 0, 73, 62
1, 291226, Note_on_c, 0, 69, 0
1, 291328, Note_on_c, 0, 57, 62
1, 291584, Note_on_c, 0, 73, 0
1, 291584, Note_on_c, 0, 76, 62
1, 291738, Note_on_c, 0, 57, 0
1, 291840, Note_on_c, 0, 76, 0
1, 291840, Note_on_c, 0, 71, 62
1, 291840, Note_on_c, 0, 68, 62
1, 292250, Note_on_c, 0, 68, 0
1, 292352, Note_on_c, 0, 71, 0
1, 292352, Note_on_c, 0, 68, 62
1, 292352, Note_on_c, 0, 64, 62
1, 292762, Note_on_c, 0, 64, 0
1, 292864, Note_on_c, 0, 68, 0
1, 292864, Note_on_c, 0, 51, 62
1, 293120, Note_on_c, 0, 81, 62
1, 293274, Note_on_c, 0, 51, 0
1, 293376, Note_on_c, 0, 59, 62
1, 293632, Note_on_c, 0, 81, 0
1, 293632, Note_on_c, 0, 78, 62
1, 293786, Note_on_c, 0, 59, 0
1, 293888, Note_on_c, 0, 52, 62
1, 294144, Note_on_c, 0, 78, 0
1, 294144, Note_on_c, 0, 80, 62
1, 294298, Note_on_c, 0, 52, 0
1, 294400, Note_on_c, 0, 59, 62
1, 294656, Note_on_c, 0, 80, 0
1, 294656, Note_on_c, 0, 76, 62
1, 294810, Note_on_c, 0, 59, 0
1, 294912, Note_on_c, 0, 76, 0
1, 294912, Note_on_c, 0, 54, 62
1, 295168, Note_on_c, 0, 75, 62
1, 295322, Note_on_c, 0, 54, 0
1, 295424, Note_on_c, 0, 59, 62
1, 295680, Note_on_c, 0, 75, 0
1, 295680, Note_on_c, 0, 78, 62
1, 295834, Note_on_c, 0, 59, 0
1, 295936, Note_on_c, 0, 56, 62
1, 296192, Note_on_c, 0, 78, 0
1, 296192, Note_on_c, 0, 76, 62
1, 296346, Note_on_c, 0, 56, 0
1, 296448, Note_on_c, 0, 59, 62
1, 296704, Note_on_c, 0, 76, 0
1, 296704, Note_on_c, 0, 71, 62
1, 296858, Note_on_c, 0, 59, 0
1, 296960, Note_on_c, 0, 71, 0
1, 296960, Note_on_c, 0, 57, 88
1, 297216, Note_on_c, 0, 73, 88
1, 297370, Note_on_c, 0, 57, 0
1, 297472, Note_on_c, 0, 64, 88
1, 297728, Note_on_c, 0, 73, 0
1, 297728, Note_on_c, 0, 75, 88
1, 297882, Note_on_c, 0, 64, 0
1, 297984, Note_on_c, 0, 56, 88
1, 298240, Note_on_c, 0, 75, 0
1, 298240, Note_on_c, 0, 76, 88
1, 298394, Note_on_c, 0, 56, 0
1, 298496, Note_on_c, 0, 64, 88
1, 298752, Note_on_c, 0, 76, 0
1, 298752, Note_on_c, 0, 71, 88
1, 298906, Note_on_c, 0, 64, 0
1, 299008, Note_on_c, 0, 71, 0
1, 299008, Note_on_c, 0, 54, 88
1, 299264, Note_on_c, 0, 69, 88
1, 299418, Note_on_c, 0, 54, 0
1, 299520, Note_on_c, 0, 63, 88
1, 299776, Note_on_c, 0, 69, 0
1, 299776, Note_on_c, 0, 66, 88
1, 299930, Note_on_c, 0, 63, 0
1, 300032, Note_on_c, 0, 64, 88
1, 300288, Note_on_c, 0, 66, 0
1, 300288, Note_on_c, 0, 68, 88
1, 300442, Note_on_c, 0, 64, 0
1, 300544, Note_on_c, 0, 52, 88
1, 300800, Note_on_c, 0, 68, 0
1, 300800, Note_on_c, 0, 64, 88
1, 300954, Note_on_c, 0, 52, 0
1, 301056, Note_on_c, 0, 64, 0
1, 301056, Note_on_c, 0, 45, 88
1, 301056, Note_on_c, 0, 57, 88
1, 301312, Note_on_c, 0, 66, 88
1, 301568, Note_on_c, 0, 66, 0
1, 301568, Note_on_c, 0, 65, 88
1, 301824, Note_on_c, 0, 65, 0
1, 301824, Note_on_c, 0, 66, 88
1, 302080, Note_on_c, 0, 66, 0
1, 302080, Note_on_c, 0, 73, 88
1, 302080, Note_on_c, 0, 45, 0
1, 302080, Note_on_c, 0, 57, 0
1, 302080, Note_on_c, 0, 54, 88
1, 302251, Note_on_c, 0, 73, 0
1, 302251, Note_on_c, 0, 71, 88
1, 302421, Note_on_c, 0, 71, 0
1, 302421, Note_on_c, 0, 69, 88
1, 302490, Note_on_c, 0, 54, 0
1, 302592, Note_on_c, 0, 69, 0
1, 302592, Note_on_c, 0, 68, 88
1, 302592, Note_on_c, 0, 58, 88
1, 302763, Note_on_c, 0, 68, 0
1, 302763, Note_on_c, 0, 66, 88
1, 302933, Note_on_c, 0, 66, 0
1, 302933, Note_on_c, 0, 64, 88
1, 303002, Note_on_c, 0, 58, 0
1, 303104, Note_on_c, 0, 64, 0
1, 303104, Note_on_c, 0, 63, 88
1, 303104, Note_on_c, 0, 59, 88
1, 303275, Note_on_c, 0, 63, 0
1, 303275, Note_on_c, 0, 64, 88
1, 303445, Note_on_c, 0, 64, 0
1, 303445, Note_on_c, 0, 66, 88
1, 303514, Note_on_c, 0, 59, 0
1, 303616, Note_on_c, 0, 66, 0
1, 303616, Note_on_c, 0, 59, 88
1, 303616, Note_on_c, 0, 47, 88
1, 304026, Note_on_c, 0, 47, 0
1, 304128, Note_on_c, 0, 59, 0
1, 304128, Note_on_c, 0, 59, 62
1, 304384, Note_on_c, 0, 59, 0
1, 304384, Note_on_c, 0, 56, 62
1, 304640, Note_on_c, 0, 56, 0
1, 304640, Note_on_c, 0, 57, 62
1, 304896, Note_on_c, 0, 57, 0
1, 304896, Note_on_c, 0, 54, 62
1, 305152, Note_on_c, 0, 54, 0
1, 305152, Note_on_c, 0, 71, 62
1, 305152, Note_on_c, 0, 56, 62
1, 305408, Note_on_c, 0, 71, 0
1, 305408, Note_on_c, 0, 76, 62
1, 305664, Note_on_c, 0, 76, 0
1, 305664, Note_on_c, 0, 76, 62
1, 305869, Note_on_c, 0, 76, 0
1, 305920, Note_on_c, 0, 76, 62
1, 306125, Note_on_c, 0, 76, 0
1, 306176, Note_on_c, 0, 76, 62
1, 306432, Note_on_c, 0, 76, 0
1, 306432, Note_on_c, 0, 74, 62
1, 306432, Note_on_c, 0, 64, 62
1, 306688, Note_on_c, 0, 74, 0
1, 306688, Note_on_c, 0, 73, 62
1, 306688, Note_on_c, 0, 64, 0
1, 306688, Note_on_c, 0, 64, 62
1, 306944, Note_on_c, 0, 73, 0
1, 306944, Note_on_c, 0, 71, 62
1, 306944, Note_on_c, 0, 64, 0
1, 306944, Note_on_c, 0, 64, 62
1, 307200, Note_on_c, 0, 71, 0
1, 307200, Note_on_c, 0, 64, 0
1, 307200, Note_on_c, 0, 56, 0
1, 307200, Note_on_c, 0, 73, 62
1, 307200, Note_on_c, 0, 64, 62
1, 307200, Note_on_c, 0, 57, 62
1, 307456, Note_on_c, 0, 73, 0
1, 307456, Note_on_c, 0, 76, 62
1, 307610, Note_on_c, 0, 57, 0
1, 307712, Note_on_c, 0, 76, 0
1, 307712, Note_on_c, 0, 68, 62
1, 307712, Note_on_c, 0, 59, 62
1, 307968, Note_on_c, 0, 68, 0
1, 307968, Note_on_c, 0, 71, 62
1, 308122, Note_on_c, 0, 59, 0
1, 308224, Note_on_c, 0, 71, 0
1, 308224, Note_on_c, 0, 69, 62
1, 308224, Note_on_c, 0, 61, 62
1, 308480, Note_on_c, 0, 69, 0
1, 308480, Note_on_c, 0, 73, 62
1, 308634, Note_on_c, 0, 61, 0
1, 308736, Note_on_c, 0, 73, 0
1, 308736, Note_on_c, 0, 71, 62
1, 308736, Note_on_c, 0, 56, 62
1, 308992, Note_on_c, 0, 71, 0
1, 308992, Note_on_c, 0, 74, 62
1, 309146, Note_on_c, 0, 56, 0
1, 309248, Note_on_c, 0, 74, 0
1, 309248, Note_on_c, 0, 64, 0
1, 309248, Note_on_c, 0, 73, 62
1, 309248, Note_on_c, 0, 64, 62
1, 309248, Note_on_c, 0, 57, 62
1, 309504, Note_on_c, 0, 73, 0
1, 309504, Note_on_c, 0, 76, 62
1, 309658, Note_on_c, 0, 57, 0
1, 309760, Note_on_c, 0, 76, 0
1, 309760, Note_on_c, 0, 68, 62
1, 309760, Note_on_c, 0, 59, 62
1, 310016, Note_on_c, 0, 68, 0
1, 310016, Note_on_c, 0, 71, 62
1, 310170, Note_on_c, 0, 59, 0
1, 310272, Note_on_c, 0, 71, 0
1, 310272, Note_on_c, 0, 69, 62
1, 310272, Note_on_c, 0, 61, 62
1, 310528, Note_on_c, 0, 69, 0
1, 310528, Note_on_c, 0, 73, 62
1, 310682, Note_on_c, 0, 61, 0
1, 310784, Note_on_c, 0, 73, 0
1, 310784, Note_on_c, 0, 71, 62
1, 310784, Note_on_c, 0, 56, 62
1, 311040, Note_on_c, 0, 71, 0
1, 311040, Note_on_c, 0, 74, 62
1, 311194, Note_on_c, 0, 56, 0
1, 311296, Note_on_c, 0, 74, 0
1, 311296, Note_on_c, 0, 64, 0
1, 311296, Note_on_c, 0, 73, 62
1, 311296, Note_on_c, 0, 57, 62
1, 311552, Note_on_c, 0, 73, 0
1, 311552, Note_on_c, 0, 78, 62
1, 311808, Note_on_c, 0, 78, 0
1, 311808, Note_on_c, 0, 78, 62
1, 312013, Note_on_c, 0, 78, 0
1, 312064, Note_on_c, 0, 78, 62
1, 312115, Note_on_c, 0, 57, 0
1, 312269, Note_on_c, 0, 78, 0
1, 312320, Note_on_c, 0, 78, 68
1, 312320, Note_on_c, 0, 58, 68
1, 312576, Note_on_c, 0, 78, 0
1, 312576, Note_on_c, 0, 76, 68
1, 312576, Note_on_c, 0, 66, 68
1, 312832, Note_on_c, 0, 76, 0
1, 312832, Note_on_c, 0, 75, 74
1, 312832, Note_on_c, 0, 66, 0
1, 312832, Note_on_c, 0, 66, 74
1, 313088, Note_on_c, 0, 75, 0
1, 313088, Note_on_c, 0, 73, 74
1, 313088, Note_on_c, 0, 66, 0
1, 313088, Note_on_c, 0, 66, 74
1, 313139, Note_on_c, 0, 58, 0
1, 313344, Note_on_c, 0, 73, 0
1, 313344, Note_on_c, 0, 66, 0
1, 313344, Note_on_c, 0, 75, 80
1, 313344, Note_on_c, 0, 66, 80
1, 313344, Note_on_c, 0, 59, 80
1, 313600, Note_on_c, 0, 75, 0
1, 313600, Note_on_c, 0, 78, 80
1, 313754, Note_on_c, 0, 59, 0
1, 313856, Note_on_c, 0, 78, 0
1, 313856, Note_on_c, 0, 70, 88
1, 313856, Note_on_c, 0, 61, 88
1, 314112, Note_on_c, 0, 70, 0
1, 314112, Note_on_c, 0, 73, 88
1, 314266, Note_on_c, 0, 61, 0
1, 314368, Note_on_c, 0, 73, 0
1, 314368, Note_on_c, 0, 71, 94
1, 314368, Note_on_c, 0, 63, 94
1, 314624, Note_on_c, 0, 71, 0
1, 314624, Note_on_c, 0, 75, 94
1, 314778, Note_on_c, 0, 63, 0
1, 314880, Note_on_c, 0, 75, 0
1, 314880, Note_on_c, 0, 73, 100
1, 314880, Note_on_c, 0, 58, 100
1, 315136, Note_on_c, 0, 73, 0
1, 315136, Note_on_c, 0, 76, 100
1, 315290, Note_on_c, 0, 58, 0
1, 315392, Note_on_c, 0, 76, 0
1, 315392, Note_on_c, 0, 66, 0
1, 315392, Note_on_c, 0, 75, 106
1, 315392, Note_on_c, 0, 66, 106
1, 315392, Note_on_c, 0, 59, 106
1, 315648, Note_on_c, 0, 75, 0
1, 315648, Note_on_c, 0, 78, 106
1, 315802, Note_on_c, 0, 59, 0
1, 315904, Note_on_c, 0, 78, 0
1, 315904, Note_on_c, 0, 70, 106
1, 315904, Note_on_c, 0, 61, 106
1, 316160, Note_on_c, 0, 70, 0
1, 316160, Note_on_c, 0, 73, 106
1, 316314, Note_on_c, 0, 61, 0
1, 316416, Note_on_c, 0, 73, 0
1, 316416, Note_on_c, 0, 71, 106
1, 316416, Note_on_c, 0, 63, 106
1, 316672, Note_on_c, 0, 71, 0
1, 316672, Note_on_c, 0, 75, 106
1, 316826, Note_on_c, 0, 63, 0
1, 316928, Note_on_c, 0, 75, 0
1, 316928, Note_on_c, 0, 73, 106
1, 316928, Note_on_c, 0, 58, 106
1, 317184, Note_on_c, 0, 73, 0
1, 317184, Note_on_c, 0, 76, 106
1, 317338, Note_on_c, 0, 58, 0
1, 317440, Note_on_c, 0, 76, 0
1, 317440, Note_on_c, 0, 66, 0
1, 317440, Note_on_c, 0, 75, 106
1, 317440, Note_on_c, 0, 59, 106
1, 317696, Note_on_c, 0, 75, 0
1, 317696, Note_on_c, 0, 78, 106
1, 317850, Note_on_c, 0, 59, 0
1, 317952, Note_on_c, 0, 78, 0
1, 317952, Note_on_c, 0, 76, 106
1, 317952, Note_on_c, 0, 61, 106
1, 318208, Note_on_c, 0, 76, 0
1, 318208, Note_on_c, 0, 80, 106
1, 318362, Note_on_c, 0, 61, 0
1, 318464, Note_on_c, 0, 80, 0
1, 318464, Note_on_c, 0, 78, 106
1, 318464, Note_on_c, 0, 63, 106
1, 318720, Note_on_c, 0, 78, 0
1, 318720, Note_on_c, 0, 81, 106
1, 318874, Note_on_c, 0, 63, 0
1, 318976, Note_on_c, 0, 81, 0
1, 318976, Note_on_c, 0, 80, 106
1, 318976, Note_on_c, 0, 64, 106
1, 319232, Note_on_c, 0, 80, 0
1, 319232, Note_on_c, 0, 83, 106
1, 319386, Note_on_c, 0, 64, 0
1, 319488, Note_on_c, 0, 83, 0
1, 319488, Note_on_c, 0, 83, 114
1, 319488, Note_on_c, 0, 54, 114
1, 319488, Note_on_c, 0, 66, 114
1, 319744, Note_on_c, 0, 83, 0
1, 319744, Note_on_c, 0, 81, 114
1, 319898, Note_on_c, 0, 54, 0
1, 319898, Note_on_c, 0, 66, 0
1, 320000, Note_on_c, 0, 81, 0
1, 320000, Note_on_c, 0, 81, 114
1, 320000, Note_on_c, 0, 52, 114
1, 320000, Note_on_c, 0, 64, 114
1, 320256, Note_on_c, 0, 81, 0
1, 320256, Note_on_c, 0, 80, 114
1, 320410, Note_on_c, 0, 52, 0
1, 320410, Note_on_c, 0, 64, 0
1, 320512, Note_on_c, 0, 80, 0
1, 320512, Note_on_c, 0, 80, 114
1, 320512, Note_on_c, 0, 51, 114
1, 320512, Note_on_c, 0, 63, 114
1, 320768, Note_on_c, 0, 80, 0
1, 320768, Note_on_c, 0, 78, 114
1, 320922, Note_on_c, 0, 51, 0
1, 320922, Note_on_c, 0, 63, 0
1, 321024, Note_on_c, 0, 78, 0
1, 321024, Note_on_c, 0, 78, 114
1, 321024, Note_on_c, 0, 49, 114
1, 321024, Note_on_c, 0, 61, 114
1, 321280, Note_on_c, 0, 78, 0
1, 321280, Note_on_c, 0, 76, 114
1, 321434, Note_on_c, 0, 49, 0
1, 321434, Note_on_c, 0, 61, 0
1, 321536, Note_on_c, 0, 76, 0
1, 321536, Note_on_c, 0, 76, 114
1, 321536, Note_on_c, 0, 59, 114
1, 321792, Note_on_c, 0, 76, 0
1, 321792, Note_on_c, 0, 75, 114
1, 321946, Note_on_c, 0, 59, 0
1, 322048, Note_on_c, 0, 75, 0
1, 322048, Note_on_c, 0, 75, 114
1, 322048, Note_on_c, 0, 57, 114
1, 322304, Note_on_c, 0, 75, 0
1, 322304, Note_on_c, 0, 73, 114
1, 322458, Note_on_c, 0, 57, 0
1, 322560, Note_on_c, 0, 73, 0
1, 322560, Note_on_c, 0, 73, 114
1, 322560, Note_on_c, 0, 56, 114
1, 322816, Note_on_c, 0, 73, 0
1, 322816, Note_on_c, 0, 71, 114
1, 322970, Note_on_c, 0, 56, 0
1, 323072, Note_on_c, 0, 71, 0
1, 323072, Note_on_c, 0, 71, 114
1, 323072, Note_on_c, 0, 54, 114
1, 323328, Note_on_c, 0, 71, 0
1, 323328, Note_on_c, 0, 69, 114
1, 323482, Note_on_c, 0, 54, 0
1, 323584, Note_on_c, 0, 69, 0
1, 323584, Note_on_c, 0, 68, 114
1, 323584, Note_on_c, 0, 52, 114
1, 323755, Note_on_c, 0, 68, 0
1, 323755, Note_on_c, 0, 69, 114
1, 323925, Note_on_c, 0, 69, 0
1, 323925, Note_on_c, 0, 71, 114
1, 324096, Note_on_c, 0, 71, 0
1, 324096, Note_on_c, 0, 64, 114
1, 324267, Note_on_c, 0, 64, 0
1, 324267, Note_on_c, 0, 69, 114
1, 324403, Note_on_c, 0, 52, 0
1, 324437, Note_on_c, 0, 69, 0
1, 324437, Note_on_c, 0, 66, 114
1, 324608, Note_on_c, 0, 66, 0
1, 324608, Note_on_c, 0, 66, 114
1, 324608, Note_on_c, 0, 59, 114
1, 324736, Note_on_c, 0, 66, 0
1, 324736, Note_on_c, 0, 68, 114
1, 324864, Note_on_c, 0, 68, 0
1, 324864, Note_on_c, 0, 66, 114
1, 324992, Note_on_c, 0, 66, 0
1, 324992, Note_on_c, 0, 68, 114
1, 325018, Note_on_c, 0, 59, 0
1, 325120, Note_on_c, 0, 68, 0
1, 325120, Note_on_c, 0, 66, 114
1, 325120, Note_on_c, 0, 47, 114
1, 325248, Note_on_c, 0, 66, 0
1, 325248, Note_on_c, 0, 68, 114
1, 325376, Note_on_c, 0, 68, 0
1, 325376, Note_on_c, 0, 66, 114
1, 325530, Note_on_c, 0, 47, 0
1, 325632, Note_on_c, 0, 66, 0
1, 325632, Note_on_c, 0, 64, 114
1, 325632, Note_on_c, 0, 52, 114
1, 326042, Note_on_c, 0, 52, 0
1, 326144, Note_on_c, 0, 40, 114
1, 326400, Note_on_c, 0, 64, 0
1, 326400, Note_on_c, 0, 71, 75
1, 326554, Note_on_c, 0, 40, 0
1, 326656, Note_on_c, 0, 71, 0
1, 326656, Note_on_c, 0, 64, 75
1, 327168, Note_on_c, 0, 64, 0
1, 327168, Note_on_c, 0, 66, 75
1, 327680, Note_on_c, 0, 66, 0
1, 327680, Note_on_c, 0, 68, 75
1, 327680, Note_on_c, 0, 64, 75
1, 327680, Note_on_c, 0, 35, 75
1, 327680, Note_on_c, 0, 47, 75
1, 328192, Note_on_c, 0, 68, 0
1, 328192, Note_on_c, 0, 66, 75
1, 328192, Note_on_c, 0, 64, 0
1, 328192, Note_on_c, 0, 63, 75
1, 328576, Note_on_c, 0, 66, 0
1, 328576, Note_on_c, 0, 71, 75
1, 328704, Note_on_c, 0, 71, 0
1, 328704, Note_on_c, 0, 66, 75
1, 328704, Note_on_c, 0, 63, 0
1, 328704, Note_on_c, 0, 63, 75
1, 328704, Note_on_c, 0, 35, 0
1, 328704, Note_on_c, 0, 47, 0
1, 329216, Note_on_c, 0, 66, 0
1, 329216, Note_on_c, 0, 68, 75
1, 329216, Note_on_c, 0, 63, 0
1, 329216, Note_on_c, 0, 64, 75
1, 329728, Note_on_c, 0, 68, 0
1, 329728, Note_on_c, 0, 64, 0
1, 329728, Note_on_c, 0, 69, 75
1, 329728, Note_on_c, 0, 66, 75
1, 329728, Note_on_c, 0, 35, 75
1, 329728, Note_on_c, 0, 47, 75
1, 330138, Note_on_c, 0, 35, 0
1, 330138, Note_on_c, 0, 47, 0
1, 330240, Note_on_c, 0, 69, 0
1, 330240, Note_on_c, 0, 68, 75
1, 330240, Note_on_c, 0, 66, 0
1, 330240, Note_on_c, 0, 64, 75
1, 330240, Note_on_c, 0, 40, 75
1, 330240, Note_on_c, 0, 52, 75
1, 330624, Note_on_c, 0, 68, 0
1, 330624, Note_on_c, 0, 71, 75
1, 330650, Note_on_c, 0, 40, 0
1, 330650, Note_on_c, 0, 52, 0
1, 330752, Note_on_c, 0, 71, 0
1, 330752, Note_on_c, 0, 68, 75
1, 330752, Note_on_c, 0, 64, 0
1, 330752, Note_on_c, 0, 64, 75
1, 331264, Note_on_c, 0, 68, 0
1, 331264, Note_on_c, 0, 69, 75
1, 331264, Note_on_c, 0, 64, 0
1, 331264, Note_on_c, 0, 66, 75
1, 331776, Note_on_c, 0, 69, 0
1, 331776, Note_on_c, 0, 66, 0
1, 331776, Note_on_c, 0, 68, 75
1, 331776, Note_on_c, 0, 71, 75
1, 331776, Note_on_c, 0, 40, 75
1, 331776, Note_on_c, 0, 52, 75
1, 332288, Note_on_c, 0, 68, 0
1, 332288, Note_on_c, 0, 71, 0
1, 332288, Note_on_c, 0, 68, 75
1, 332288, Note_on_c, 0, 71, 75
1, 332288, Note_on_c, 0, 76, 75
1, 332595, Note_on_c, 0, 40, 0
1, 332595, Note_on_c, 0, 52, 0
1, 332800, Note_on_c, 0, 68, 0
1, 332800, Note_on_c, 0, 71, 0
1, 332800, Note_on_c, 0, 76, 0
1, 332800, Note_on_c, 0, 44, 75
1, 332800, Note_on_c, 0, 56, 75
1, 333312, Note_on_c, 0, 64, 75
1, 333312, Note_on_c, 0, 68, 75
1, 333312, Note_on_c, 0, 71, 75
1, 333619, Note_on_c, 0, 44, 0
1, 333619, Note_on_c, 0, 56, 0
1, 333824, Note_on_c, 0, 64, 0
1, 333824, Note_on_c, 0, 68, 0
1, 333824, Note_on_c, 0, 71, 0
1, 333824, Note_on_c, 0, 45, 75
1, 333824, Note_on_c, 0, 57, 75
1, 334080, Note_on_c, 0, 73, 75
1, 334234, Note_on_c, 0, 45, 0
1, 334234, Note_on_c, 0, 57, 0
1, 334336, Note_on_c, 0, 61, 75
1, 334592, Note_on_c, 0, 73, 0
1, 334592, Note_on_c, 0, 69, 75
1, 334746, Note_on_c, 0, 61, 0
1, 334848, Note_on_c, 0, 59, 75
1, 335104, Note_on_c, 0, 69, 0
1, 335104, Note_on_c, 0, 68, 75
1, 335258, Note_on_c, 0, 59, 0
1, 335360, Note_on_c, 0, 63, 75
1, 335616, Note_on_c, 0, 68, 0
1, 335616, Note_on_c, 0, 66, 75
1, 335770, Note_on_c, 0, 63, 0
1, 335872, Note_on_c, 0, 66, 0
1, 335872, Note_on_c, 0, 68, 75
1, 335872, Note_on_c, 0, 64, 75
1, 336384, Note_on_c, 0, 68, 0
1, 336384, Note_on_c, 0, 68, 75
1, 336384, Note_on_c, 0, 71, 75
1, 336384, Note_on_c, 0, 76, 75
1, 336896, Note_on_c, 0, 68, 0
1, 336896, Note_on_c, 0, 71, 0
1, 336896, Note_on_c, 0, 76, 0
1, 336896, Note_on_c, 0, 64, 0
1, 336896, Note_on_c, 0, 56, 75
1, 336896, Note_on_c, 0, 59, 75
1, 336896, Note_on_c, 0, 64, 75
1, 337408, Note_on_c, 0, 76, 75
1, 337408, Note_on_c, 0, 80, 75
1, 337408, Note_on_c, 0, 83, 75
1, 337920, Note_on_c, 0, 76, 0
1, 337920, Note_on_c, 0, 80, 0
1, 337920, Note_on_c, 0, 83, 0
1, 337920, Note_on_c, 0, 56, 0
1, 337920, Note_on_c, 0, 59, 0
1, 337920, Note_on_c, 0, 64, 0
1, 337920, Note_on_c, 0, 81, 88
1, 337920, Note_on_c, 0, 54, 88
1, 337920, Note_on_c, 0, 63, 88
1, 338091, Note_on_c, 0, 81, 0
1, 338091, Note_on_c, 0, 80, 88
1, 338261, Note_on_c, 0, 80, 0
1, 338261, Note_on_c, 0, 78, 88
1, 338330, Note_on_c, 0, 54, 0
1, 338330, Note_on_c, 0, 63, 0
1, 338432, Note_on_c, 0, 78, 0
1, 338432, Note_on_c, 0, 80, 88
1, 338432, Note_on_c, 0, 52, 88
1, 338432, Note_on_c, 0, 64, 88
1, 338603, Note_on_c, 0, 80, 0
1, 338603, Note_on_c, 0, 78, 88
1, 338773, Note_on_c, 0, 78, 0
1, 338773, Note_on_c, 0, 76, 88
1, 338842, Note_on_c, 0, 52, 0
1, 338842, Note_on_c, 0, 64, 0
1, 338944, Note_on_c, 0, 76, 0
1, 338944, Note_on_c, 0, 78, 88
1, 338944, Note_on_c, 0, 57, 88
1, 338944, Note_on_c, 0, 64, 88
1, 339072, Note_on_c, 0, 78, 0
1, 339072, Note_on_c, 0, 80, 88
1, 339200, Note_on_c, 0, 80, 0
1, 339200, Note_on_c, 0, 78, 88
1, 339328, Note_on_c, 0, 78, 0
1, 339328, Note_on_c, 0, 80, 88
1, 339354, Note_on_c, 0, 57, 0
1, 339354, Note_on_c, 0, 64, 0
1, 339456, Note_on_c, 0, 80, 0
1, 339456, Note_on_c, 0, 78, 88
1, 339456, Note_on_c, 0, 59, 88
1, 339456, Note_on_c, 0, 63, 88
1, 339584, Note_on_c, 0, 78, 0
1, 339584, Note_on_c, 0, 80, 88
1, 339712, Note_on_c, 0, 80, 0
1, 339712, Note_on_c, 0, 78, 88
1, 339866, Note_on_c, 0, 59, 0
1, 339866, Note_on_c, 0, 63, 0
1, 339968, Tempo, 666666
1, 339968, Tempo, 666666
1, 339968, Note_on_c, 0, 78, 0
1, 339968, Note_on_c, 0, 80, 114
1, 339968, Note_on_c, 0, 52, 114
1, 339968, Note_on_c, 0, 64, 114
1, 340139, Note_on_c, 0, 80, 0
1, 340139, Note_on_c, 0, 78, 114
1, 340309, Note_on_c, 0, 78, 0
1, 340309, Note_on_c, 0, 76, 114
1, 340480, Note_on_c, 0, 76, 0
1, 340480, Note_on_c, 0, 75, 114
1, 340651, Note_on_c, 0, 75, 0
1, 340651, Note_on_c, 0, 73, 114
1, 340821, Note_on_c, 0, 73, 0
1, 340821, Note_on_c, 0, 71, 114
1, 340992, Note_on_c, 0, 71, 0
1, 340992, Note_on_c, 0, 78, 114
1, 340992, Note_on_c, 0, 52, 0
1, 340992, Note_on_c, 0, 64, 0
1, 340992, Note_on_c, 0, 57, 114
1, 340992, Note_on_c, 0, 64, 114
1, 341120, Note_on_c, 0, 78, 0
1, 341120, Note_on_c, 0, 80, 114
1, 341212, Tempo, 800000
1, 341212, Tempo, 800000
1, 341248, Note_on_c, 0, 80, 0
1, 341248, Note_on_c, 0, 78, 114
1, 341376, Note_on_c, 0, 78, 0
1, 341376, Note_on_c, 0, 80, 114
1, 341504, Note_on_c, 0, 80, 0
1, 341504, Note_on_c, 0, 78, 114
1, 341504, Note_on_c, 0, 57, 0
1, 341504, Note_on_c, 0, 64, 0
1, 341504, Note_on_c, 0, 59, 114
1, 341504, Note_on_c, 0, 63, 114
1, 341632, Note_on_c, 0, 78, 0
1, 341632, Note_on_c, 0, 80, 114
1, 341760, Note_on_c, 0, 80, 0
1, 341760, Note_on_c, 0, 78, 114
1, 342016, Note_on_c, 0, 78, 0
1, 342016, Note_on_c, 0, 59, 0
1, 342016, Note_on_c, 0, 63, 0
1, 342016, Note_on_c, 0, 76, 114
1, 342016, Note_on_c, 0, 64, 114
1, 342272, Note_on_c, 0, 64, 0
1, 342528, Note_on_c, 0, 59, 114
1, 342784, Note_on_c, 0, 59, 0
1, 343040, Note_on_c, 0, 76, 0
1, 343040, Note_on_c, 0, 52, 114
1, 344064, Note_on_c, 0, 52, 0
1, 344074, End_track
0, 0, End_of_file