0, 0, Header, 0, 1, 120
1, 0, Start_track
1, 0, Tempo, 600000
1, 300, Note_on_c, 0, 39, 80
1, 300, Note_on_c, 0, 51, 80
1, 480, Note_on_c, 0, 79, 46
1, 480, Note_on_c, 0, 82, 42
1, 540, Note_on_c, 0, 51, 0
1, 540, Note_on_c, 0, 39, 0
1, 622, Note_on_c, 0, 77, 40
1, 622, Note_on_c, 0, 80, 40
1, 630, Note_on_c, 0, 79, 0
1, 634, Note_on_c, 0, 82, 0
1, 688, Note_on_c, 0, 80, 0
1, 696, Note_on_c, 0, 77, 0
1, 768, Note_on_c, 0, 75, 36
1, 768, Note_on_c, 0, 79, 35
1, 860, Note_on_c, 0, 79, 0
1, 868, Note_on_c, 0, 75, 0
1, 905, Note_on_c, 0, 74, 40
1, 905, Note_on_c, 0, 77, 48
1, 993, Note_on_c, 0, 77, 0
1, 993, Note_on_c, 0, 74, 0
1, 1052, Note_on_c, 0, 72, 33
1, 1052, Note_on_c, 0, 75, 36
1, 1118, Note_on_c, 0, 75, 0
1, 1122, Note_on_c, 0, 72, 0
1, 1197, Note_on_c, 0, 70, 32
1, 1197, Note_on_c, 0, 74, 32
1, 1280, Note_on_c, 0, 74, 0
1, 1280, Note_on_c, 0, 70, 0
1, 1356, Note_on_c, 0, 72, 25
1, 1356, Note_on_c, 0, 68, 22
1, 1422, Note_on_c, 0, 68, 0
1, 1435, Note_on_c, 0, 72, 0
1, 1506, Note_on_c, 0, 70, 36
1, 1506, Note_on_c, 0, 67, 32
1, 1506, Note_on_c, 0, 63, 16
1, 1506, Note_on_c, 0, 51, 21
1, 1576, Note_on_c, 0, 63, 0
1, 1580, Note_on_c, 0, 51, 0
1, 1598, Note_on_c, 0, 67, 0
1, 1620, Note_on_c, 0, 70, 0
1, 1639, Note_on_c, 0, 65, 38
1, 1639, Note_on_c, 0, 62, 35
1, 1639, Note_on_c, 0, 50, 29
1, 1710, Note_on_c, 0, 62, 0
1, 1714, Note_on_c, 0, 50, 0
1, 1718, Note_on_c, 0, 65, 0
1, 1777, Note_on_c, 0, 63, 54
1, 1777, Note_on_c, 0, 48, 44
1, 1777, Note_on_c, 0, 60, 45
1, 1826, Note_on_c, 0, 60, 0
1, 1839, Note_on_c, 0, 48, 0
1, 1848, Note_on_c, 0, 63, 0
1, 1918, Note_on_c, 0, 70, 52
1, 1918, Note_on_c, 0, 62, 48
1, 1918, Note_on_c, 0, 46, 48
1, 1918, Note_on_c, 0, 58, 46
1, 2013, Note_on_c, 0, 58, 0
1, 2017, Note_on_c, 0, 46, 0
1, 2051, Note_on_c, 0, 44, 66
1, 2051, Note_on_c, 0, 56, 59
1, 2089, Note_on_c, 0, 62, 0
1, 2121, Note_on_c, 0, 44, 0
1, 2130, Note_on_c, 0, 70, 0
1, 2130, Note_on_c, 0, 56, 0
1, 2198, Note_on_c, 0, 43, 53
1, 2198, Note_on_c, 0, 55, 41
1, 2198, Note_on_c, 0, 63, 38
1, 2198, Note_on_c, 0, 72, 55
1, 2281, Note_on_c, 0, 72, 0
1, 2281, Note_on_c, 0, 63, 0
1, 2286, Note_on_c, 0, 55, 0
1, 2289, Note_on_c, 0, 43, 0
1, 2364, Note_on_c, 0, 74, 32
1, 2364, Note_on_c, 0, 65, 24
1, 2364, Note_on_c, 0, 53, 24
1, 2364, Note_on_c, 0, 41, 26
1, 2439, Note_on_c, 0, 53, 0
1, 2443, Note_on_c, 0, 65, 0
1, 2448, Note_on_c, 0, 74, 0
1, 2451, Note_on_c, 0, 41, 0
1, 2578, Note_on_c, 0, 39, 19
1, 2578, Note_on_c, 0, 51, 13
1, 2578, Note_on_c, 0, 67, 16
1, 2578, Note_on_c, 0, 75, 22
1, 2624, Note_on_c, 0, 39, 0
1, 2641, Note_on_c, 0, 51, 0
1, 2722, Note_on_c, 0, 60, 35
1, 2722, Note_on_c, 0, 63, 23
1, 2739, Note_on_c, 0, 60, 0
1, 2743, Note_on_c, 0, 63, 0
1, 2765, Note_on_c, 0, 67, 0
1, 2768, Note_on_c, 0, 75, 0
1, 2864, Note_on_c, 0, 60, 28
1, 2864, Note_on_c, 0, 72, 38
1, 2864, Note_on_c, 0, 56, 36
1, 2990, Note_on_c, 0, 60, 0
1, 3002, Note_on_c, 0, 55, 18
1, 3002, Note_on_c, 0, 58, 36
1, 3002, Note_on_c, 0, 70, 36
1, 3006, Note_on_c, 0, 56, 0
1, 3014, Note_on_c, 0, 72, 0
1, 3135, Note_on_c, 0, 55, 0
1, 3135, Note_on_c, 0, 60, 41
1, 3157, Note_on_c, 0, 58, 0
1, 3164, Note_on_c, 0, 60, 0
1, 3214, Note_on_c, 0, 70, 0
1, 3276, Note_on_c, 0, 62, 54
1, 3281, Note_on_c, 0, 70, 60
1, 3302, Note_on_c, 0, 70, 0
1, 3302, Note_on_c, 0, 68, 52
1, 3314, Note_on_c, 0, 68, 0
1, 3314, Note_on_c, 0, 70, 46
1, 3335, Note_on_c, 0, 70, 0
1, 3335, Note_on_c, 0, 68, 35
1, 3352, Note_on_c, 0, 70, 46
1, 3356, Note_on_c, 0, 68, 0
1, 3373, Note_on_c, 0, 70, 0
1, 3375, Note_on_c, 0, 68, 46
1, 3396, Note_on_c, 0, 68, 0
1, 3398, Note_on_c, 0, 70, 40
1, 3419, Note_on_c, 0, 68, 51
1, 3427, Note_on_c, 0, 70, 0
1, 3431, Note_on_c, 0, 62, 0
1, 3439, Note_on_c, 0, 63, 35
1, 3439, Note_on_c, 0, 67, 50
1, 3443, Note_on_c, 0, 68, 0
1, 3577, Note_on_c, 0, 74, 40
1, 3577, Note_on_c, 0, 51, 17
1, 3723, Note_on_c, 0, 75, 45
1, 3727, Note_on_c, 0, 51, 0
1, 3727, Note_on_c, 0, 74, 0
1, 3744, Note_on_c, 0, 67, 0
1, 3760, Note_on_c, 0, 63, 0
1, 3760, Note_on_c, 0, 75, 0
1, 3835, Note_on_c, 0, 55, 45
1, 3860, Note_on_c, 0, 58, 45
1, 3873, Note_on_c, 0, 63, 37
1, 4014, Note_on_c, 0, 82, 43
1, 4156, Note_on_c, 0, 79, 42
1, 4164, Note_on_c, 0, 82, 0
1, 4164, Note_on_c, 0, 58, 0
1, 4164, Note_on_c, 0, 55, 0
1, 4169, Note_on_c, 0, 63, 0
1, 4256, Note_on_c, 0, 56, 41
1, 4272, Note_on_c, 0, 60, 47
1, 4298, Note_on_c, 0, 65, 45
1, 4356, Note_on_c, 0, 79, 0
1, 4360, Note_on_c, 0, 77, 63
1, 4422, Note_on_c, 0, 79, 66
1, 4439, Note_on_c, 0, 77, 0
1, 4490, Note_on_c, 0, 80, 63
1, 4498, Note_on_c, 0, 79, 0
1, 4506, Note_on_c, 0, 60, 0
1, 4510, Note_on_c, 0, 56, 0
1, 4514, Note_on_c, 0, 65, 0
1, 4548, Note_on_c, 0, 82, 57
1, 4556, Note_on_c, 0, 80, 0
1, 4615, Note_on_c, 0, 84, 59
1, 4623, Note_on_c, 0, 82, 0
1, 4644, Note_on_c, 0, 58, 47
1, 4656, Note_on_c, 0, 62, 60
1, 4673, Note_on_c, 0, 65, 47
1, 4686, Note_on_c, 0, 68, 76
1, 4815, Note_on_c, 0, 82, 62
1, 4823, Note_on_c, 0, 84, 0
1, 4881, Note_on_c, 0, 80, 53
1, 4898, Note_on_c, 0, 82, 0
1, 4944, Note_on_c, 0, 79, 42
1, 4948, Note_on_c, 0, 80, 0
1, 5006, Note_on_c, 0, 68, 0
1, 5010, Note_on_c, 0, 79, 0
1, 5010, Note_on_c, 0, 77, 44
1, 5019, Note_on_c, 0, 62, 0
1, 5019, Note_on_c, 0, 65, 0
1, 5027, Note_on_c, 0, 58, 0
1, 5082, Note_on_c, 0, 74, 45
1, 5090, Note_on_c, 0, 77, 0
1, 5139, Note_on_c, 0, 74, 0
1, 5140, Note_on_c, 0, 51, 42
1, 5140, Note_on_c, 0, 63, 37
1, 5140, Note_on_c, 0, 75, 49
1, 5182, Note_on_c, 0, 70, 37
1, 5219, Note_on_c, 0, 70, 0
1, 5219, Note_on_c, 0, 67, 54
1, 5252, Note_on_c, 0, 67, 0
1, 5260, Note_on_c, 0, 70, 35
1, 5270, Note_on_c, 0, 63, 0
1, 5281, Note_on_c, 0, 75, 0
1, 5290, Note_on_c, 0, 51, 0
1, 5298, Note_on_c, 0, 70, 0
1, 5298, Note_on_c, 0, 67, 55
1, 5323, Note_on_c, 0, 67, 0
1, 5340, Note_on_c, 0, 63, 53
1, 5378, Note_on_c, 0, 63, 0
1, 5378, Note_on_c, 0, 62, 52
1, 5378, Note_on_c, 0, 46, 45
1, 5379, Note_on_c, 0, 58, 38
1, 5419, Note_on_c, 0, 65, 45
1, 5423, Note_on_c, 0, 58, 0
1, 5427, Note_on_c, 0, 62, 0
1, 5435, Note_on_c, 0, 46, 0
1, 5456, Note_on_c, 0, 68, 41
1, 5461, Note_on_c, 0, 65, 0
1, 5494, Note_on_c, 0, 68, 0
1, 5494, Note_on_c, 0, 51, 45
1, 5494, Note_on_c, 0, 39, 45
1, 5494, Note_on_c, 0, 67, 47
1, 5540, Note_on_c, 0, 70, 45
1, 5544, Note_on_c, 0, 67, 0
1, 5548, Note_on_c, 0, 39, 0
1, 5556, Note_on_c, 0, 51, 0
1, 5573, Note_on_c, 0, 70, 0
1, 5573, Note_on_c, 0, 67, 55
1, 5610, Note_on_c, 0, 43, 41
1, 5610, Note_on_c, 0, 55, 40
1, 5610, Note_on_c, 0, 75, 45
1, 5636, Note_on_c, 0, 67, 0
1, 5661, Note_on_c, 0, 70, 36
1, 5664, Note_on_c, 0, 43, 0
1, 5673, Note_on_c, 0, 75, 0
1, 5678, Note_on_c, 0, 55, 0
1, 5690, Note_on_c, 0, 70, 0
1, 5690, Note_on_c, 0, 67, 53
1, 5728, Note_on_c, 0, 58, 31
1, 5732, Note_on_c, 0, 67, 0
1, 5732, Note_on_c, 0, 46, 34
1, 5732, Note_on_c, 0, 68, 40
1, 5773, Note_on_c, 0, 65, 46
1, 5782, Note_on_c, 0, 68, 0
1, 5782, Note_on_c, 0, 58, 0
1, 5798, Note_on_c, 0, 46, 0
1, 5811, Note_on_c, 0, 65, 0
1, 5815, Note_on_c, 0, 62, 35
1, 5857, Note_on_c, 0, 51, 36
1, 5857, Note_on_c, 0, 39, 40
1, 5858, Note_on_c, 0, 63, 48
1, 5860, Note_on_c, 0, 62, 0
1, 5948, Note_on_c, 0, 39, 0
1, 5952, Note_on_c, 0, 63, 0
1, 5961, Note_on_c, 0, 51, 0
1, 6123, Note_on_c, 0, 51, 32
1, 6123, Note_on_c, 0, 55, 29
1, 6123, Note_on_c, 0, 63, 33
1, 6123, Note_on_c, 0, 58, 35
1, 6143, Note_on_c, 0, 58, 0
1, 6143, Note_on_c, 0, 51, 0
1, 6143, Note_on_c, 0, 55, 0
1, 6143, Note_on_c, 0, 63, 0
1, 6265, Note_on_c, 0, 51, 24
1, 6265, Note_on_c, 0, 55, 14
1, 6265, Note_on_c, 0, 58, 26
1, 6265, Note_on_c, 0, 63, 28
1, 6348, Note_on_c, 0, 58, 0
1, 6357, Note_on_c, 0, 51, 0
1, 6360, Note_on_c, 0, 55, 0
1, 6373, Note_on_c, 0, 63, 0
1, 6715, Note_on_c, 0, 79, 39
1, 6715, Note_on_c, 0, 63, 36
1, 6790, Note_on_c, 0, 67, 40
1, 6853, Note_on_c, 0, 70, 28
1, 6861, Note_on_c, 0, 67, 0
1, 6882, Note_on_c, 0, 80, 35
1, 6886, Note_on_c, 0, 79, 0
1, 6919, Note_on_c, 0, 70, 0
1, 6919, Note_on_c, 0, 67, 35
1, 6919, Note_on_c, 0, 79, 45
1, 6936, Note_on_c, 0, 80, 0
1, 6948, Note_on_c, 0, 77, 52
1, 6953, Note_on_c, 0, 79, 0
1, 6986, Note_on_c, 0, 67, 0
1, 6986, Note_on_c, 0, 70, 30
1, 6986, Note_on_c, 0, 75, 65
1, 6994, Note_on_c, 0, 77, 0
1, 7049, Note_on_c, 0, 67, 41
1, 7052, Note_on_c, 0, 63, 0
1, 7061, Note_on_c, 0, 70, 0
1, 7115, Note_on_c, 0, 67, 0
1, 7119, Note_on_c, 0, 63, 31
1, 7136, Note_on_c, 0, 75, 0
1, 7182, Note_on_c, 0, 67, 41
1, 7244, Note_on_c, 0, 67, 0
1, 7253, Note_on_c, 0, 81, 48
1, 7253, Note_on_c, 0, 70, 25
1, 7307, Note_on_c, 0, 63, 0
1, 7311, Note_on_c, 0, 67, 35
1, 7320, Note_on_c, 0, 82, 42
1, 7328, Note_on_c, 0, 81, 0
1, 7332, Note_on_c, 0, 70, 0
1, 7382, Note_on_c, 0, 67, 0
1, 7386, Note_on_c, 0, 63, 39
1, 7386, Note_on_c, 0, 81, 45
1, 7390, Note_on_c, 0, 82, 0
1, 7448, Note_on_c, 0, 67, 35
1, 7448, Note_on_c, 0, 82, 41
1, 7449, Note_on_c, 0, 63, 0
1, 7461, Note_on_c, 0, 81, 0
1, 7510, Note_on_c, 0, 67, 0
1, 7516, Note_on_c, 0, 62, 45
1, 7516, Note_on_c, 0, 77, 42
1, 7519, Note_on_c, 0, 82, 0
1, 7595, Note_on_c, 0, 65, 35
1, 7678, Note_on_c, 0, 70, 31
1, 7691, Note_on_c, 0, 65, 0
1, 7703, Note_on_c, 0, 79, 49
1, 7707, Note_on_c, 0, 77, 0
1, 7737, Note_on_c, 0, 77, 47
1, 7740, Note_on_c, 0, 65, 41
1, 7745, Note_on_c, 0, 70, 0
1, 7753, Note_on_c, 0, 79, 0
1, 7765, Note_on_c, 0, 75, 65
1, 7774, Note_on_c, 0, 77, 0
1, 7798, Note_on_c, 0, 75, 0
1, 7799, Note_on_c, 0, 74, 68
1, 7799, Note_on_c, 0, 70, 36
1, 7803, Note_on_c, 0, 65, 0
1, 7861, Note_on_c, 0, 62, 0
1, 7866, Note_on_c, 0, 65, 36
1, 7916, Note_on_c, 0, 70, 0
1, 7924, Note_on_c, 0, 65, 0
1, 7932, Note_on_c, 0, 62, 45
1, 7995, Note_on_c, 0, 65, 39
1, 8058, Note_on_c, 0, 74, 0
1, 8062, Note_on_c, 0, 65, 0
1, 8066, Note_on_c, 0, 70, 28
1, 8066, Note_on_c, 0, 81, 39
1, 8128, Note_on_c, 0, 62, 0
1, 8128, Note_on_c, 0, 65, 40
1, 8128, Note_on_c, 0, 82, 40
1, 8140, Note_on_c, 0, 81, 0
1, 8153, Note_on_c, 0, 70, 0
1, 8195, Note_on_c, 0, 65, 0
1, 8203, Note_on_c, 0, 62, 28
1, 8203, Note_on_c, 0, 81, 47
1, 8207, Note_on_c, 0, 82, 0
1, 8270, Note_on_c, 0, 62, 0
1, 8270, Note_on_c, 0, 65, 26
1, 8270, Note_on_c, 0, 82, 35
1, 8278, Note_on_c, 0, 81, 0
1, 8307, Note_on_c, 0, 82, 0
1, 8341, Note_on_c, 0, 65, 0
1, 8349, Note_on_c, 0, 60, 39
1, 8349, Note_on_c, 0, 82, 40
1, 8424, Note_on_c, 0, 63, 25
1, 8428, Note_on_c, 0, 81, 42
1, 8440, Note_on_c, 0, 82, 0
1, 8490, Note_on_c, 0, 81, 0
1, 8491, Note_on_c, 0, 65, 32
1, 8495, Note_on_c, 0, 63, 0
1, 8495, Note_on_c, 0, 84, 39
1, 8557, Note_on_c, 0, 63, 28
1, 8557, Note_on_c, 0, 81, 34
1, 8561, Note_on_c, 0, 84, 0
1, 8566, Note_on_c, 0, 65, 0
1, 8569, Note_on_c, 0, 60, 0
1, 8570, Note_on_c, 0, 63, 0
1, 8628, Note_on_c, 0, 81, 0
1, 8628, Note_on_c, 0, 77, 36
1, 8628, Note_on_c, 0, 57, 31
1, 8695, Note_on_c, 0, 60, 39
1, 8695, Note_on_c, 0, 75, 40
1, 8704, Note_on_c, 0, 57, 0
1, 8707, Note_on_c, 0, 77, 0
1, 8761, Note_on_c, 0, 60, 0
1, 8761, Note_on_c, 0, 58, 39
1, 8761, Note_on_c, 0, 74, 49
1, 8770, Note_on_c, 0, 75, 0
1, 8828, Note_on_c, 0, 62, 46
1, 8891, Note_on_c, 0, 62, 0
1, 8891, Note_on_c, 0, 65, 40
1, 8958, Note_on_c, 0, 62, 36
1, 8962, Note_on_c, 0, 58, 0
1, 9024, Note_on_c, 0, 65, 0
1, 9032, Note_on_c, 0, 62, 0
1, 9036, Note_on_c, 0, 58, 37
1, 9037, Note_on_c, 0, 82, 59
1, 9061, Note_on_c, 0, 74, 0
1, 9124, Note_on_c, 0, 62, 35
1, 9132, Note_on_c, 0, 58, 0
1, 9157, Note_on_c, 0, 82, 0
1, 9224, Note_on_c, 0, 62, 0
1, 9228, Note_on_c, 0, 82, 42
1, 9228, Note_on_c, 0, 60, 32
1, 9342, Note_on_c, 0, 81, 45
1, 9342, Note_on_c, 0, 63, 28
1, 9349, Note_on_c, 0, 82, 0
1, 9412, Note_on_c, 0, 81, 0
1, 9412, Note_on_c, 0, 65, 36
1, 9412, Note_on_c, 0, 84, 48
1, 9420, Note_on_c, 0, 63, 0
1, 9478, Note_on_c, 0, 84, 0
1, 9479, Note_on_c, 0, 63, 35
1, 9479, Note_on_c, 0, 81, 38
1, 9482, Note_on_c, 0, 65, 0
1, 9486, Note_on_c, 0, 60, 0
1, 9495, Note_on_c, 0, 63, 0
1, 9541, Note_on_c, 0, 57, 38
1, 9545, Note_on_c, 0, 81, 0
1, 9545, Note_on_c, 0, 77, 31
1, 9607, Note_on_c, 0, 75, 45
1, 9616, Note_on_c, 0, 60, 32
1, 9620, Note_on_c, 0, 77, 0
1, 9620, Note_on_c, 0, 57, 0
1, 9678, Note_on_c, 0, 58, 36
1, 9679, Note_on_c, 0, 74, 52
1, 9682, Note_on_c, 0, 75, 0
1, 9683, Note_on_c, 0, 60, 0
1, 9745, Note_on_c, 0, 62, 46
1, 9804, Note_on_c, 0, 62, 0
1, 9808, Note_on_c, 0, 65, 41
1, 9875, Note_on_c, 0, 58, 0
1, 9875, Note_on_c, 0, 62, 40
1, 9883, Note_on_c, 0, 65, 0
1, 9886, Note_on_c, 0, 74, 0
1, 9950, Note_on_c, 0, 62, 0
1, 9950, Note_on_c, 0, 74, 46
1, 9950, Note_on_c, 0, 58, 43
1, 10029, Note_on_c, 0, 62, 53
1, 10041, Note_on_c, 0, 58, 0
1, 10045, Note_on_c, 0, 62, 0
1, 10124, Note_on_c, 0, 74, 0
1, 10124, Note_on_c, 0, 51, 40
1, 10124, Note_on_c, 0, 71, 40
1, 10208, Note_on_c, 0, 55, 41
1, 10208, Note_on_c, 0, 72, 55
1, 10220, Note_on_c, 0, 71, 0
1, 10275, Note_on_c, 0, 55, 0
1, 10279, Note_on_c, 0, 60, 42
1, 10341, Note_on_c, 0, 55, 41
1, 10345, Note_on_c, 0, 51, 0
1, 10349, Note_on_c, 0, 60, 0
1, 10403, Note_on_c, 0, 55, 0
1, 10412, Note_on_c, 0, 74, 65
1, 10412, Note_on_c, 0, 51, 34
1, 10424, Note_on_c, 0, 72, 0
1, 10478, Note_on_c, 0, 75, 66
1, 10478, Note_on_c, 0, 55, 48
1, 10491, Note_on_c, 0, 74, 0
1, 10541, Note_on_c, 0, 55, 0
1, 10549, Note_on_c, 0, 60, 65
1, 10608, Note_on_c, 0, 51, 0
1, 10612, Note_on_c, 0, 55, 46
1, 10637, Note_on_c, 0, 60, 0
1, 10683, Note_on_c, 0, 55, 0
1, 10687, Note_on_c, 0, 78, 51
1, 10687, Note_on_c, 0, 51, 59
1, 10694, Note_on_c, 0, 75, 0
1, 10770, Note_on_c, 0, 55, 39
1, 10771, Note_on_c, 0, 79, 56
1, 10778, Note_on_c, 0, 78, 0
1, 10870, Note_on_c, 0, 60, 54
1, 11000, Note_on_c, 0, 77, 36
1, 11012, Note_on_c, 0, 79, 0
1, 11029, Note_on_c, 0, 55, 0
1, 11037, Note_on_c, 0, 51, 0
1, 11037, Note_on_c, 0, 75, 29
1, 11041, Note_on_c, 0, 77, 0
1, 11054, Note_on_c, 0, 60, 0
1, 11066, Note_on_c, 0, 74, 41
1, 11083, Note_on_c, 0, 75, 0
1, 11104, Note_on_c, 0, 74, 0
1, 11104, Note_on_c, 0, 72, 31
1, 11158, Note_on_c, 0, 53, 37
1, 11158, Note_on_c, 0, 62, 30
1, 11158, Note_on_c, 0, 70, 40
1, 11166, Note_on_c, 0, 72, 0
1, 11329, Note_on_c, 0, 62, 0
1, 11504, Note_on_c, 0, 69, 28
1, 11504, Note_on_c, 0, 60, 25
1, 11516, Note_on_c, 0, 70, 0
1, 11592, Note_on_c, 0, 60, 0
1, 11604, Note_on_c, 0, 53, 0
1, 11658, Note_on_c, 0, 39, 62
1, 11658, Note_on_c, 0, 51, 53
1, 11707, Note_on_c, 0, 51, 0
1, 11707, Note_on_c, 0, 39, 0
1, 11792, Note_on_c, 0, 38, 59
1, 11792, Note_on_c, 0, 50, 54
1, 11857, Note_on_c, 0, 50, 0
1, 11857, Note_on_c, 0, 38, 0
1, 11933, Note_on_c, 0, 36, 54
1, 11933, Note_on_c, 0, 48, 45
1, 11988, Note_on_c, 0, 48, 0
1, 11992, Note_on_c, 0, 36, 0
1, 12029, Note_on_c, 0, 69, 0
1, 12071, Note_on_c, 0, 46, 47
1, 12074, Note_on_c, 0, 34, 57
1, 12111, Note_on_c, 0, 46, 0
1, 12114, Note_on_c, 0, 34, 0
1, 12212, Note_on_c, 0, 62, 40
1, 12212, Note_on_c, 0, 77, 40
1, 12237, Note_on_c, 0, 77, 0
1, 12237, Note_on_c, 0, 62, 0
1, 12250, Note_on_c, 0, 58, 40
1, 12250, Note_on_c, 0, 74, 40
1, 12275, Note_on_c, 0, 74, 0
1, 12275, Note_on_c, 0, 58, 0
1, 12291, Note_on_c, 0, 60, 40
1, 12291, Note_on_c, 0, 75, 40
1, 12316, Note_on_c, 0, 75, 0
1, 12316, Note_on_c, 0, 60, 0
1, 12333, Note_on_c, 0, 62, 40
1, 12333, Note_on_c, 0, 77, 40
1, 12358, Note_on_c, 0, 77, 0
1, 12358, Note_on_c, 0, 62, 0
1, 12370, Note_on_c, 0, 58, 40
1, 12370, Note_on_c, 0, 74, 40
1, 12395, Note_on_c, 0, 74, 0
1, 12395, Note_on_c, 0, 58, 0
1, 12408, Note_on_c, 0, 60, 40
1, 12408, Note_on_c, 0, 75, 40
1, 12433, Note_on_c, 0, 75, 0
1, 12433, Note_on_c, 0, 60, 0
1, 12458, Note_on_c, 0, 62, 40
1, 12458, Note_on_c, 0, 77, 40
1, 12478, Note_on_c, 0, 77, 0
1, 12478, Note_on_c, 0, 62, 0
1, 12604, Note_on_c, 0, 63, 30
1, 12604, Note_on_c, 0, 79, 30
1, 12746, Note_on_c, 0, 75, 32
1, 12746, Note_on_c, 0, 60, 25
1, 12762, Note_on_c, 0, 79, 0
1, 12762, Note_on_c, 0, 63, 0
1, 12791, Note_on_c, 0, 60, 0
1, 12892, Note_on_c, 0, 41, 60
1, 12892, Note_on_c, 0, 53, 60
1, 12921, Note_on_c, 0, 41, 0
1, 12929, Note_on_c, 0, 53, 0
1, 12971, Note_on_c, 0, 75, 0
1, 13046, Note_on_c, 0, 60, 46
1, 13046, Note_on_c, 0, 75, 38
1, 13086, Note_on_c, 0, 75, 0
1, 13086, Note_on_c, 0, 60, 0
1, 13092, Note_on_c, 0, 57, 23
1, 13092, Note_on_c, 0, 72, 41
1, 13132, Note_on_c, 0, 72, 0
1, 13132, Note_on_c, 0, 57, 0
1, 13134, Note_on_c, 0, 74, 46
1, 13134, Note_on_c, 0, 58, 40
1, 13164, Note_on_c, 0, 58, 0
1, 13168, Note_on_c, 0, 74, 0
1, 13175, Note_on_c, 0, 60, 45
1, 13175, Note_on_c, 0, 75, 42
1, 13213, Note_on_c, 0, 72, 45
1, 13213, Note_on_c, 0, 57, 43
1, 13215, Note_on_c, 0, 75, 0
1, 13215, Note_on_c, 0, 60, 0
1, 13253, Note_on_c, 0, 72, 0
1, 13253, Note_on_c, 0, 57, 0
1, 13254, Note_on_c, 0, 74, 46
1, 13254, Note_on_c, 0, 58, 39
1, 13282, Note_on_c, 0, 58, 0
1, 13294, Note_on_c, 0, 74, 0
1, 13296, Note_on_c, 0, 75, 45
1, 13296, Note_on_c, 0, 60, 42
1, 13336, Note_on_c, 0, 60, 0
1, 13336, Note_on_c, 0, 75, 0
1, 13446, Note_on_c, 0, 62, 28
1, 13446, Note_on_c, 0, 77, 28
1, 13604, Note_on_c, 0, 74, 25
1, 13604, Note_on_c, 0, 58, 23
1, 13609, Note_on_c, 0, 77, 0
1, 13630, Note_on_c, 0, 62, 0
1, 13666, Note_on_c, 0, 74, 0
1, 13666, Note_on_c, 0, 58, 0
1, 13776, Note_on_c, 0, 50, 28
1, 13776, Note_on_c, 0, 70, 29
1, 13825, Note_on_c, 0, 53, 35
1, 13880, Note_on_c, 0, 50, 0
1, 13883, Note_on_c, 0, 58, 33
1, 13925, Note_on_c, 0, 53, 0
1, 13934, Note_on_c, 0, 58, 0
1, 13942, Note_on_c, 0, 50, 28
1, 13942, Note_on_c, 0, 82, 46
1, 13996, Note_on_c, 0, 53, 40
1, 14017, Note_on_c, 0, 50, 0
1, 14034, Note_on_c, 0, 70, 0
1, 14046, Note_on_c, 0, 58, 37
1, 14058, Note_on_c, 0, 82, 0
1, 14092, Note_on_c, 0, 53, 0
1, 14092, Note_on_c, 0, 50, 47
1, 14096, Note_on_c, 0, 58, 0
1, 14101, Note_on_c, 0, 82, 65
1, 14155, Note_on_c, 0, 53, 45
1, 14176, Note_on_c, 0, 50, 0
1, 14213, Note_on_c, 0, 53, 0
1, 14213, Note_on_c, 0, 58, 36
1, 14288, Note_on_c, 0, 58, 0
1, 14288, Note_on_c, 0, 51, 33
1, 14301, Note_on_c, 0, 81, 68
1, 14304, Note_on_c, 0, 82, 0
1, 14343, Note_on_c, 0, 55, 49
1, 14380, Note_on_c, 0, 79, 59
1, 14396, Note_on_c, 0, 81, 0
1, 14417, Note_on_c, 0, 51, 0
1, 14422, Note_on_c, 0, 58, 36
1, 14459, Note_on_c, 0, 55, 0
1, 14467, Note_on_c, 0, 51, 40
1, 14471, Note_on_c, 0, 58, 0
1, 14471, Note_on_c, 0, 77, 60
1, 14479, Note_on_c, 0, 79, 0
1, 14521, Note_on_c, 0, 55, 45
1, 14558, Note_on_c, 0, 75, 72
1, 14563, Note_on_c, 0, 77, 0
1, 14592, Note_on_c, 0, 51, 0
1, 14596, Note_on_c, 0, 58, 41
1, 14642, Note_on_c, 0, 55, 0
1, 14646, Note_on_c, 0, 51, 40
1, 14650, Note_on_c, 0, 74, 53
1, 14654, Note_on_c, 0, 58, 0
1, 14655, Note_on_c, 0, 75, 0
1, 14705, Note_on_c, 0, 55, 39
1, 14708, Note_on_c, 0, 51, 0
1, 14759, Note_on_c, 0, 60, 40
1, 14759, Note_on_c, 0, 72, 54
1, 14763, Note_on_c, 0, 55, 0
1, 14767, Note_on_c, 0, 74, 0
1, 14780, Note_on_c, 0, 72, 0
1, 14805, Note_on_c, 0, 60, 0
1, 14817, Note_on_c, 0, 53, 48
1, 14817, Note_on_c, 0, 72, 66
1, 14871, Note_on_c, 0, 58, 36
1, 14922, Note_on_c, 0, 62, 40
1, 14925, Note_on_c, 0, 58, 0
1, 14954, Note_on_c, 0, 72, 0
1, 14959, Note_on_c, 0, 53, 40
1, 14959, Note_on_c, 0, 70, 55
1, 14967, Note_on_c, 0, 53, 0
1, 14974, Note_on_c, 0, 53, 0
1, 14975, Note_on_c, 0, 70, 0
1, 14984, Note_on_c, 0, 72, 44
1, 14992, Note_on_c, 0, 62, 0
1, 15000, Note_on_c, 0, 72, 0
1, 15001, Note_on_c, 0, 70, 45
1, 15013, Note_on_c, 0, 70, 0
1, 15021, Note_on_c, 0, 72, 42
1, 15030, Note_on_c, 0, 70, 40
1, 15030, Note_on_c, 0, 58, 39
1, 15038, Note_on_c, 0, 72, 0
1, 15045, Note_on_c, 0, 70, 0
1, 15045, Note_on_c, 0, 72, 39
1, 15055, Note_on_c, 0, 70, 46
1, 15060, Note_on_c, 0, 72, 0
1, 15076, Note_on_c, 0, 72, 45
1, 15088, Note_on_c, 0, 70, 0
1, 15090, Note_on_c, 0, 70, 45
1, 15090, Note_on_c, 0, 62, 40
1, 15096, Note_on_c, 0, 72, 0
1, 15100, Note_on_c, 0, 69, 55
1, 15105, Note_on_c, 0, 62, 0
1, 15117, Note_on_c, 0, 70, 42
1, 15140, Note_on_c, 0, 70, 0
1, 15147, Note_on_c, 0, 58, 0
1, 15158, Note_on_c, 0, 70, 0
1, 15163, Note_on_c, 0, 69, 0
1, 15163, Note_on_c, 0, 72, 57
1, 15163, Note_on_c, 0, 53, 45
1, 15215, Note_on_c, 0, 60, 46
1, 15263, Note_on_c, 0, 53, 0
1, 15267, Note_on_c, 0, 72, 0
1, 15270, Note_on_c, 0, 69, 53
1, 15270, Note_on_c, 0, 63, 45
1, 15319, Note_on_c, 0, 60, 0
1, 15320, Note_on_c, 0, 63, 0
1, 15320, Note_on_c, 0, 55, 52
1, 15320, Note_on_c, 0, 70, 70
1, 15332, Note_on_c, 0, 69, 0
1, 15372, Note_on_c, 0, 58, 37
1, 15422, Note_on_c, 0, 62, 43
1, 15424, Note_on_c, 0, 55, 0
1, 15480, Note_on_c, 0, 58, 0
1, 15480, Note_on_c, 0, 53, 51
1, 15484, Note_on_c, 0, 62, 0
1, 15530, Note_on_c, 0, 58, 45
1, 15580, Note_on_c, 0, 53, 0
1, 15588, Note_on_c, 0, 62, 45
1, 15600, Note_on_c, 0, 58, 0
1, 15642, Note_on_c, 0, 62, 0
1, 15642, Note_on_c, 0, 51, 45
1, 15697, Note_on_c, 0, 55, 40
1, 15751, Note_on_c, 0, 51, 0
1, 15751, Note_on_c, 0, 60, 44
1, 15768, Note_on_c, 0, 55, 0
1, 15775, Note_on_c, 0, 70, 0
1, 15801, Note_on_c, 0, 60, 0
1, 15809, Note_on_c, 0, 50, 56
1, 15810, Note_on_c, 0, 70, 42
1, 15872, Note_on_c, 0, 53, 48
1, 15872, Note_on_c, 0, 50, 11
1, 15885, Note_on_c, 0, 50, 0
1, 15930, Note_on_c, 0, 58, 51
1, 15940, Note_on_c, 0, 50, 0
1, 15972, Note_on_c, 0, 53, 0
1, 15988, Note_on_c, 0, 58, 0
1, 15988, Note_on_c, 0, 50, 50
1, 15988, Note_on_c, 0, 82, 52
1, 16051, Note_on_c, 0, 53, 42
1, 16105, Note_on_c, 0, 58, 42
1, 16134, Note_on_c, 0, 82, 0
1, 16136, Note_on_c, 0, 50, 0
1, 16155, Note_on_c, 0, 53, 0
1, 16159, Note_on_c, 0, 58, 0
1, 16168, Note_on_c, 0, 50, 43
1, 16168, Note_on_c, 0, 82, 53
1, 16222, Note_on_c, 0, 53, 54
1, 16251, Note_on_c, 0, 70, 0
1, 16284, Note_on_c, 0, 53, 0
1, 16288, Note_on_c, 0, 58, 41
1, 16306, Note_on_c, 0, 50, 0
1, 16355, Note_on_c, 0, 58, 0
1, 16372, Note_on_c, 0, 51, 31
1, 16380, Note_on_c, 0, 81, 54
1, 16384, Note_on_c, 0, 82, 0
1, 16430, Note_on_c, 0, 55, 40
1, 16464, Note_on_c, 0, 79, 59
1, 16480, Note_on_c, 0, 81, 0
1, 16505, Note_on_c, 0, 51, 0
1, 16509, Note_on_c, 0, 58, 38
1, 16551, Note_on_c, 0, 55, 0
1, 16555, Note_on_c, 0, 51, 32
1, 16559, Note_on_c, 0, 77, 66
1, 16564, Note_on_c, 0, 58, 0
1, 16572, Note_on_c, 0, 79, 0
1, 16614, Note_on_c, 0, 55, 45
1, 16647, Note_on_c, 0, 77, 0
1, 16647, Note_on_c, 0, 75, 72
1, 16668, Note_on_c, 0, 51, 0
1, 16689, Note_on_c, 0, 58, 36
1, 16734, Note_on_c, 0, 55, 0
1, 16734, Note_on_c, 0, 51, 49
1, 16739, Note_on_c, 0, 58, 0
1, 16739, Note_on_c, 0, 74, 62
1, 16743, Note_on_c, 0, 75, 0
1, 16792, Note_on_c, 0, 55, 42
1, 16796, Note_on_c, 0, 51, 0
1, 16847, Note_on_c, 0, 72, 65
1, 16851, Note_on_c, 0, 60, 45
1, 16855, Note_on_c, 0, 55, 0
1, 16855, Note_on_c, 0, 74, 0
1, 16864, Note_on_c, 0, 72, 0
1, 16901, Note_on_c, 0, 60, 0
1, 16901, Note_on_c, 0, 72, 83
1, 16905, Note_on_c, 0, 53, 53
1, 16964, Note_on_c, 0, 58, 41
1, 17014, Note_on_c, 0, 62, 40
1, 17017, Note_on_c, 0, 58, 0
1, 17030, Note_on_c, 0, 72, 0
1, 17034, Note_on_c, 0, 70, 47
1, 17051, Note_on_c, 0, 70, 0
1, 17055, Note_on_c, 0, 72, 46
1, 17060, Note_on_c, 0, 53, 0
1, 17060, Note_on_c, 0, 58, 39
1, 17076, Note_on_c, 0, 72, 0
1, 17076, Note_on_c, 0, 70, 40
1, 17092, Note_on_c, 0, 70, 0
1, 17093, Note_on_c, 0, 58, 0
1, 17093, Note_on_c, 0, 72, 48
1, 17096, Note_on_c, 0, 62, 0
1, 17101, Note_on_c, 0, 53, 36
1, 17113, Note_on_c, 0, 72, 0
1, 17113, Note_on_c, 0, 70, 35
1, 17131, Note_on_c, 0, 70, 0
1, 17131, Note_on_c, 0, 72, 46
1, 17134, Note_on_c, 0, 58, 38
1, 17155, Note_on_c, 0, 70, 32
1, 17163, Note_on_c, 0, 72, 0
1, 17180, Note_on_c, 0, 70, 0
1, 17184, Note_on_c, 0, 69, 46
1, 17201, Note_on_c, 0, 53, 0
1, 17205, Note_on_c, 0, 70, 45
1, 17214, Note_on_c, 0, 62, 5
1, 17243, Note_on_c, 0, 72, 60
1, 17246, Note_on_c, 0, 70, 0
1, 17251, Note_on_c, 0, 62, 0
1, 17251, Note_on_c, 0, 58, 0
1, 17251, Note_on_c, 0, 69, 0
1, 17256, Note_on_c, 0, 53, 38
1, 17305, Note_on_c, 0, 60, 29
1, 17364, Note_on_c, 0, 72, 0
1, 17364, Note_on_c, 0, 63, 50
1, 17364, Note_on_c, 0, 69, 40
1, 17372, Note_on_c, 0, 60, 0
1, 17372, Note_on_c, 0, 53, 0
1, 17380, Note_on_c, 0, 69, 0
1, 17384, Note_on_c, 0, 63, 0
1, 17434, Note_on_c, 0, 53, 67
1, 17434, Note_on_c, 0, 68, 68
1, 17434, Note_on_c, 0, 80, 63
1, 17489, Note_on_c, 0, 59, 66
1, 17539, Note_on_c, 0, 62, 66
1, 17543, Note_on_c, 0, 53, 0
1, 17556, Note_on_c, 0, 80, 0
1, 17559, Note_on_c, 0, 68, 0
1, 17572, Note_on_c, 0, 59, 0
1, 17584, Note_on_c, 0, 62, 0
1, 17589, Note_on_c, 0, 79, 63
1, 17589, Note_on_c, 0, 51, 66
1, 17589, Note_on_c, 0, 67, 59
1, 17639, Note_on_c, 0, 55, 57
1, 17659, Note_on_c, 0, 51, 0
1, 17684, Note_on_c, 0, 67, 0
1, 17685, Note_on_c, 0, 79, 0
1, 17697, Note_on_c, 0, 60, 45
1, 17756, Note_on_c, 0, 55, 0
1, 17760, Note_on_c, 0, 60, 0
1, 17760, Note_on_c, 0, 82, 57
1, 17760, Note_on_c, 0, 70, 45
1, 17760, Note_on_c, 0, 52, 66
1, 17818, Note_on_c, 0, 58, 44
1, 17880, Note_on_c, 0, 61, 39
1, 17885, Note_on_c, 0, 52, 0
1, 17910, Note_on_c, 0, 70, 0
1, 17918, Note_on_c, 0, 61, 0
1, 17918, Note_on_c, 0, 82, 0
1, 17947, Note_on_c, 0, 58, 0
1, 17951, Note_on_c, 0, 53, 45
1, 17955, Note_on_c, 0, 74, 51
1, 18014, Note_on_c, 0, 75, 42
1, 18018, Note_on_c, 0, 74, 0
1, 18039, Note_on_c, 0, 75, 0
1, 18039, Note_on_c, 0, 58, 43
1, 18040, Note_on_c, 0, 74, 40
1, 18055, Note_on_c, 0, 74, 0
1, 18055, Note_on_c, 0, 75, 49
1, 18068, Note_on_c, 0, 53, 0
1, 18076, Note_on_c, 0, 75, 0
1, 18076, Note_on_c, 0, 74, 44
1, 18084, Note_on_c, 0, 62, 42
1, 18089, Note_on_c, 0, 74, 0
1, 18089, Note_on_c, 0, 75, 48
1, 18101, Note_on_c, 0, 74, 45
1, 18106, Note_on_c, 0, 75, 0
1, 18118, Note_on_c, 0, 74, 0
1, 18118, Note_on_c, 0, 58, 0
1, 18118, Note_on_c, 0, 75, 46
1, 18130, Note_on_c, 0, 62, 0
1, 18131, Note_on_c, 0, 74, 51
1, 18131, Note_on_c, 0, 53, 46
1, 18134, Note_on_c, 0, 75, 0
1, 18147, Note_on_c, 0, 75, 44
1, 18151, Note_on_c, 0, 74, 0
1, 18160, Note_on_c, 0, 75, 0
1, 18160, Note_on_c, 0, 74, 51
1, 18176, Note_on_c, 0, 74, 0
1, 18176, Note_on_c, 0, 75, 45
1, 18180, Note_on_c, 0, 58, 33
1, 18202, Note_on_c, 0, 75, 0
1, 18205, Note_on_c, 0, 74, 46
1, 18218, Note_on_c, 0, 75, 46
1, 18235, Note_on_c, 0, 74, 52
1, 18235, Note_on_c, 0, 62, 41
1, 18240, Note_on_c, 0, 53, 0
1, 18247, Note_on_c, 0, 75, 0
1, 18250, Note_on_c, 0, 74, 0
1, 18256, Note_on_c, 0, 74, 0
1, 18256, Note_on_c, 0, 72, 53
1, 18280, Note_on_c, 0, 74, 51
1, 18293, Note_on_c, 0, 72, 0
1, 18293, Note_on_c, 0, 62, 0
1, 18306, Note_on_c, 0, 58, 0
1, 18310, Note_on_c, 0, 53, 36
1, 18310, Note_on_c, 0, 75, 38
1, 18318, Note_on_c, 0, 74, 0
1, 18368, Note_on_c, 0, 60, 45
1, 18418, Note_on_c, 0, 72, 55
1, 18418, Note_on_c, 0, 63, 52
1, 18422, Note_on_c, 0, 75, 0
1, 18434, Note_on_c, 0, 53, 0
1, 18435, Note_on_c, 0, 60, 0
1, 18448, Note_on_c, 0, 72, 0
1, 18448, Note_on_c, 0, 63, 0
1, 18476, Note_on_c, 0, 53, 56
1, 18476, Note_on_c, 0, 68, 65
1, 18476, Note_on_c, 0, 80, 63
1, 18530, Note_on_c, 0, 59, 55
1, 18580, Note_on_c, 0, 53, 0
1, 18580, Note_on_c, 0, 62, 57
1, 18602, Note_on_c, 0, 68, 0
1, 18606, Note_on_c, 0, 59, 0
1, 18606, Note_on_c, 0, 80, 0
1, 18635, Note_on_c, 0, 62, 0
1, 18635, Note_on_c, 0, 51, 56
1, 18635, Note_on_c, 0, 67, 59
1, 18635, Note_on_c, 0, 79, 66
1, 18689, Note_on_c, 0, 55, 55
1, 18702, Note_on_c, 0, 51, 0
1, 18743, Note_on_c, 0, 60, 53
1, 18747, Note_on_c, 0, 67, 0
1, 18747, Note_on_c, 0, 79, 0
1, 18801, Note_on_c, 0, 70, 52
1, 18801, Note_on_c, 0, 82, 55
1, 18801, Note_on_c, 0, 52, 55
1, 18806, Note_on_c, 0, 55, 0
1, 18806, Note_on_c, 0, 60, 0
1, 18864, Note_on_c, 0, 58, 46
1, 18923, Note_on_c, 0, 52, 0
1, 18923, Note_on_c, 0, 61, 36
1, 18938, Note_on_c, 0, 70, 0
1, 18955, Note_on_c, 0, 82, 0
1, 18960, Note_on_c, 0, 61, 0
1, 18980, Note_on_c, 0, 58, 0
1, 18985, Note_on_c, 0, 53, 38
1, 18985, Note_on_c, 0, 74, 49
1, 19048, Note_on_c, 0, 74, 0
1, 19048, Note_on_c, 0, 75, 38
1, 19064, Note_on_c, 0, 58, 33
1, 19068, Note_on_c, 0, 75, 0
1, 19068, Note_on_c, 0, 74, 36
1, 19085, Note_on_c, 0, 74, 0
1, 19085, Note_on_c, 0, 75, 44
1, 19101, Note_on_c, 0, 62, 41
1, 19101, Note_on_c, 0, 74, 45
1, 19105, Note_on_c, 0, 53, 0
1, 19106, Note_on_c, 0, 75, 0
1, 19118, Note_on_c, 0, 74, 0
1, 19118, Note_on_c, 0, 75, 48
1, 19135, Note_on_c, 0, 74, 52
1, 19139, Note_on_c, 0, 75, 0
1, 19144, Note_on_c, 0, 58, 0
1, 19151, Note_on_c, 0, 62, 0
1, 19152, Note_on_c, 0, 74, 0
1, 19152, Note_on_c, 0, 75, 47
1, 19168, Note_on_c, 0, 75, 0
1, 19168, Note_on_c, 0, 53, 43
1, 19168, Note_on_c, 0, 74, 51
1, 19181, Note_on_c, 0, 74, 0
1, 19185, Note_on_c, 0, 75, 45
1, 19201, Note_on_c, 0, 74, 46
1, 19206, Note_on_c, 0, 75, 0
1, 19223, Note_on_c, 0, 74, 0
1, 19223, Note_on_c, 0, 58, 39
1, 19223, Note_on_c, 0, 75, 46
1, 19248, Note_on_c, 0, 74, 49
1, 19264, Note_on_c, 0, 75, 0
1, 19272, Note_on_c, 0, 74, 0
1, 19272, Note_on_c, 0, 62, 42
1, 19272, Note_on_c, 0, 72, 47
1, 19288, Note_on_c, 0, 53, 0
1, 19302, Note_on_c, 0, 74, 55
1, 19314, Note_on_c, 0, 72, 0
1, 19331, Note_on_c, 0, 62, 0
1, 19335, Note_on_c, 0, 58, 0
1, 19335, Note_on_c, 0, 75, 50
1, 19335, Note_on_c, 0, 53, 46
1, 19343, Note_on_c, 0, 74, 0
1, 19390, Note_on_c, 0, 60, 46
1, 19440, Note_on_c, 0, 72, 45
1, 19440, Note_on_c, 0, 63, 41
1, 19452, Note_on_c, 0, 75, 0
1, 19456, Note_on_c, 0, 72, 0
1, 19464, Note_on_c, 0, 53, 0
1, 19464, Note_on_c, 0, 60, 0
1, 19464, Note_on_c, 0, 63, 0
1, 19502, Note_on_c, 0, 70, 59
1, 19502, Note_on_c, 0, 62, 52
1, 19502, Note_on_c, 0, 58, 47
1, 19548, Note_on_c, 0, 74, 56
1, 19577, Note_on_c, 0, 70, 0
1, 19602, Note_on_c, 0, 77, 55
1, 19610, Note_on_c, 0, 74, 0
1, 19639, Note_on_c, 0, 77, 0
1, 19652, Note_on_c, 0, 82, 45
1, 19677, Note_on_c, 0, 82, 0
1, 19698, Note_on_c, 0, 77, 47
1, 19707, Note_on_c, 0, 62, 0
1, 19718, Note_on_c, 0, 58, 0
1, 19752, Note_on_c, 0, 77, 0
1, 19752, Note_on_c, 0, 74, 36
1, 19810, Note_on_c, 0, 41, 53
1, 19810, Note_on_c, 0, 53, 40
1, 19810, Note_on_c, 0, 75, 46
1, 19814, Note_on_c, 0, 74, 0
1, 19865, Note_on_c, 0, 72, 51
1, 19872, Note_on_c, 0, 41, 0
1, 19877, Note_on_c, 0, 75, 0
1, 19885, Note_on_c, 0, 53, 0
1, 19906, Note_on_c, 0, 72, 0
1, 19910, Note_on_c, 0, 69, 44
1, 19964, Note_on_c, 0, 70, 55
1, 19964, Note_on_c, 0, 58, 45
1, 19964, Note_on_c, 0, 46, 50
1, 19977, Note_on_c, 0, 69, 0
1, 20014, Note_on_c, 0, 74, 57
1, 20019, Note_on_c, 0, 58, 0
1, 20030, Note_on_c, 0, 70, 0
1, 20031, Note_on_c, 0, 46, 0
1, 20068, Note_on_c, 0, 65, 55
1, 20114, Note_on_c, 0, 65, 0
1, 20119, Note_on_c, 0, 70, 45
1, 20120, Note_on_c, 0, 50, 45
1, 20120, Note_on_c, 0, 38, 36
1, 20156, Note_on_c, 0, 74, 0
1, 20169, Note_on_c, 0, 38, 0
1, 20172, Note_on_c, 0, 70, 0
1, 20172, Note_on_c, 0, 65, 47
1, 20182, Note_on_c, 0, 50, 0
1, 20219, Note_on_c, 0, 62, 40
1, 20231, Note_on_c, 0, 65, 0
1, 20268, Note_on_c, 0, 41, 44
1, 20268, Note_on_c, 0, 53, 40
1, 20268, Note_on_c, 0, 63, 45
1, 20272, Note_on_c, 0, 62, 0
1, 20316, Note_on_c, 0, 53, 0
1, 20323, Note_on_c, 0, 60, 39
1, 20331, Note_on_c, 0, 41, 0
1, 20336, Note_on_c, 0, 63, 0
1, 20369, Note_on_c, 0, 60, 0
1, 20369, Note_on_c, 0, 57, 44
1, 20423, Note_on_c, 0, 58, 46
1, 20423, Note_on_c, 0, 46, 36
1, 20423, Note_on_c, 0, 34, 40
1, 20431, Note_on_c, 0, 57, 0
1, 20490, Note_on_c, 0, 58, 0
1, 20493, Note_on_c, 0, 34, 0
1, 20498, Note_on_c, 0, 46, 0
1, 20752, Note_on_c, 0, 46, 35
1, 20752, Note_on_c, 0, 58, 42
1, 20752, Note_on_c, 0, 53, 45
1, 20752, Note_on_c, 0, 50, 36
1, 20769, Note_on_c, 0, 46, 0
1, 20772, Note_on_c, 0, 58, 0
1, 20772, Note_on_c, 0, 53, 0
1, 20773, Note_on_c, 0, 50, 0
1, 20916, Note_on_c, 0, 58, 39
1, 20916, Note_on_c, 0, 53, 37
1, 20916, Note_on_c, 0, 50, 37
1, 20916, Note_on_c, 0, 46, 17
1, 21045, Note_on_c, 0, 53, 0
1, 21052, Note_on_c, 0, 58, 0
1, 21052, Note_on_c, 0, 46, 0
1, 21054, Note_on_c, 0, 50, 0
1, 21614, Note_on_c, 0, 51, 53
1, 21614, Note_on_c, 0, 39, 55
1, 21777, Note_on_c, 0, 79, 59
1, 21778, Note_on_c, 0, 82, 63
1, 21806, Note_on_c, 0, 39, 0
1, 21809, Note_on_c, 0, 51, 0
1, 21856, Note_on_c, 0, 79, 0
1, 21856, Note_on_c, 0, 82, 0
1, 21940, Note_on_c, 0, 77, 44
1, 21940, Note_on_c, 0, 80, 48
1, 22006, Note_on_c, 0, 80, 0
1, 22014, Note_on_c, 0, 77, 0
1, 22086, Note_on_c, 0, 79, 46
1, 22086, Note_on_c, 0, 75, 36
1, 22144, Note_on_c, 0, 79, 0
1, 22152, Note_on_c, 0, 75, 0
1, 22232, Note_on_c, 0, 74, 40
1, 22232, Note_on_c, 0, 77, 45
1, 22337, Note_on_c, 0, 74, 0
1, 22340, Note_on_c, 0, 77, 0
1, 22398, Note_on_c, 0, 75, 38
1, 22398, Note_on_c, 0, 72, 35
1, 22440, Note_on_c, 0, 75, 0
1, 22444, Note_on_c, 0, 72, 0
1, 22544, Note_on_c, 0, 70, 39
1, 22544, Note_on_c, 0, 74, 35
1, 22636, Note_on_c, 0, 70, 0
1, 22640, Note_on_c, 0, 74, 0
1, 22706, Note_on_c, 0, 72, 46
1, 22706, Note_on_c, 0, 68, 32
1, 22782, Note_on_c, 0, 68, 0
1, 22785, Note_on_c, 0, 72, 0
1, 22861, Note_on_c, 0, 70, 40
1, 22861, Note_on_c, 0, 67, 40
1, 22861, Note_on_c, 0, 63, 36
1, 22861, Note_on_c, 0, 51, 39
1, 22944, Note_on_c, 0, 63, 0
1, 22956, Note_on_c, 0, 51, 0
1, 22964, Note_on_c, 0, 67, 0
1, 23016, Note_on_c, 0, 65, 45
1, 23016, Note_on_c, 0, 62, 39
1, 23016, Note_on_c, 0, 50, 31
1, 23099, Note_on_c, 0, 65, 0
1, 23102, Note_on_c, 0, 62, 0
1, 23119, Note_on_c, 0, 50, 0
1, 23161, Note_on_c, 0, 48, 53
1, 23162, Note_on_c, 0, 60, 51
1, 23162, Note_on_c, 0, 63, 53
1, 23228, Note_on_c, 0, 60, 0
1, 23236, Note_on_c, 0, 48, 0
1, 23244, Note_on_c, 0, 63, 0
1, 23274, Note_on_c, 0, 70, 0
1, 23319, Note_on_c, 0, 46, 54
1, 23319, Note_on_c, 0, 58, 52
1, 23319, Note_on_c, 0, 62, 54
1, 23319, Note_on_c, 0, 70, 54
1, 23420, Note_on_c, 0, 58, 0
1, 23426, Note_on_c, 0, 46, 0
1, 23465, Note_on_c, 0, 56, 65
1, 23466, Note_on_c, 0, 44, 65
1, 23519, Note_on_c, 0, 62, 0
1, 23540, Note_on_c, 0, 44, 0
1, 23540, Note_on_c, 0, 56, 0
1, 23548, Note_on_c, 0, 70, 0
1, 23624, Note_on_c, 0, 43, 37
1, 23624, Note_on_c, 0, 55, 29
1, 23624, Note_on_c, 0, 72, 53
1, 23624, Note_on_c, 0, 63, 34
1, 23719, Note_on_c, 0, 55, 0
1, 23724, Note_on_c, 0, 63, 0
1, 23732, Note_on_c, 0, 72, 0
1, 23733, Note_on_c, 0, 43, 0
1, 23804, Note_on_c, 0, 74, 35
1, 23804, Note_on_c, 0, 41, 29
1, 23804, Note_on_c, 0, 53, 18
1, 23804, Note_on_c, 0, 65, 29
1, 23874, Note_on_c, 0, 53, 0
1, 23878, Note_on_c, 0, 41, 0
1, 23883, Note_on_c, 0, 74, 0
1, 23887, Note_on_c, 0, 65, 0
1, 24012, Note_on_c, 0, 39, 16
1, 24012, Note_on_c, 0, 51, 17
1, 24012, Note_on_c, 0, 67, 25
1, 24012, Note_on_c, 0, 75, 33
1, 24054, Note_on_c, 0, 39, 0
1, 24071, Note_on_c, 0, 51, 0
1, 24165, Note_on_c, 0, 60, 28
1, 24165, Note_on_c, 0, 63, 25
1, 24190, Note_on_c, 0, 63, 0
1, 24190, Note_on_c, 0, 60, 0
1, 24212, Note_on_c, 0, 67, 0
1, 24216, Note_on_c, 0, 75, 0
1, 24307, Note_on_c, 0, 72, 37
1, 24307, Note_on_c, 0, 60, 20
1, 24307, Note_on_c, 0, 56, 20
1, 24432, Note_on_c, 0, 56, 0
1, 24440, Note_on_c, 0, 70, 34
1, 24440, Note_on_c, 0, 58, 30
1, 24440, Note_on_c, 0, 55, 17
1, 24449, Note_on_c, 0, 60, 0
1, 24465, Note_on_c, 0, 72, 0
1, 24591, Note_on_c, 0, 60, 27
1, 24594, Note_on_c, 0, 55, 0
1, 24609, Note_on_c, 0, 58, 0
1, 24620, Note_on_c, 0, 60, 0
1, 24645, Note_on_c, 0, 70, 0
1, 24744, Note_on_c, 0, 62, 38
1, 24744, Note_on_c, 0, 70, 41
1, 24765, Note_on_c, 0, 68, 38
1, 24774, Note_on_c, 0, 70, 0
1, 24795, Note_on_c, 0, 70, 40
1, 24810, Note_on_c, 0, 68, 0
1, 24810, Note_on_c, 0, 68, 38
1, 24824, Note_on_c, 0, 70, 0
1, 24832, Note_on_c, 0, 70, 45
1, 24853, Note_on_c, 0, 70, 0
1, 24855, Note_on_c, 0, 68, 0
1, 24855, Note_on_c, 0, 68, 38
1, 24870, Note_on_c, 0, 68, 0
1, 24870, Note_on_c, 0, 70, 36
1, 24891, Note_on_c, 0, 68, 46
1, 24897, Note_on_c, 0, 62, 0
1, 24903, Note_on_c, 0, 70, 0
1, 24911, Note_on_c, 0, 63, 22
1, 24911, Note_on_c, 0, 67, 40
1, 24916, Note_on_c, 0, 68, 0
1, 25045, Note_on_c, 0, 74, 39
1, 25045, Note_on_c, 0, 51, 12
1, 25186, Note_on_c, 0, 75, 45
1, 25190, Note_on_c, 0, 74, 0
1, 25203, Note_on_c, 0, 51, 0
1, 25232, Note_on_c, 0, 67, 0
1, 25278, Note_on_c, 0, 75, 0
1, 25283, Note_on_c, 0, 63, 0
1, 25294, Note_on_c, 0, 55, 42
1, 25316, Note_on_c, 0, 58, 46
1, 25328, Note_on_c, 0, 63, 42
1, 25474, Note_on_c, 0, 82, 45
1, 25612, Note_on_c, 0, 79, 43
1, 25620, Note_on_c, 0, 55, 0
1, 25628, Note_on_c, 0, 58, 0
1, 25632, Note_on_c, 0, 82, 0
1, 25636, Note_on_c, 0, 63, 0
1, 25716, Note_on_c, 0, 56, 37
1, 25736, Note_on_c, 0, 60, 44
1, 25758, Note_on_c, 0, 65, 41
1, 25824, Note_on_c, 0, 79, 0
1, 25824, Note_on_c, 0, 77, 47
1, 25887, Note_on_c, 0, 79, 57
1, 25907, Note_on_c, 0, 77, 0
1, 25953, Note_on_c, 0, 80, 68
1, 25966, Note_on_c, 0, 79, 0
1, 26011, Note_on_c, 0, 56, 0
1, 26012, Note_on_c, 0, 60, 0
1, 26016, Note_on_c, 0, 82, 65
1, 26024, Note_on_c, 0, 65, 0
1, 26024, Note_on_c, 0, 80, 0
1, 26082, Note_on_c, 0, 84, 65
1, 26087, Note_on_c, 0, 82, 0
1, 26116, Note_on_c, 0, 58, 39
1, 26128, Note_on_c, 0, 62, 47
1, 26145, Note_on_c, 0, 65, 53
1, 26162, Note_on_c, 0, 68, 61
1, 26291, Note_on_c, 0, 82, 46
1, 26299, Note_on_c, 0, 84, 0
1, 26358, Note_on_c, 0, 80, 42
1, 26383, Note_on_c, 0, 82, 0
1, 26424, Note_on_c, 0, 80, 0
1, 26424, Note_on_c, 0, 79, 46
1, 26453, Note_on_c, 0, 68, 0
1, 26470, Note_on_c, 0, 65, 0
1, 26474, Note_on_c, 0, 62, 0
1, 26491, Note_on_c, 0, 77, 40
1, 26495, Note_on_c, 0, 79, 0
1, 26499, Note_on_c, 0, 58, 0
1, 26562, Note_on_c, 0, 74, 48
1, 26570, Note_on_c, 0, 77, 0
1, 26582, Note_on_c, 0, 74, 0
1, 26620, Note_on_c, 0, 51, 47
1, 26620, Note_on_c, 0, 63, 39
1, 26620, Note_on_c, 0, 75, 40
1, 26662, Note_on_c, 0, 70, 45
1, 26704, Note_on_c, 0, 70, 0
1, 26704, Note_on_c, 0, 67, 59
1, 26737, Note_on_c, 0, 67, 0
1, 26749, Note_on_c, 0, 70, 40
1, 26757, Note_on_c, 0, 75, 0
1, 26758, Note_on_c, 0, 63, 0
1, 26774, Note_on_c, 0, 51, 0
1, 26782, Note_on_c, 0, 70, 0
1, 26782, Note_on_c, 0, 67, 55
1, 26812, Note_on_c, 0, 67, 0
1, 26820, Note_on_c, 0, 63, 47
1, 26835, Note_on_c, 0, 63, 0
1, 26866, Note_on_c, 0, 62, 56
1, 26866, Note_on_c, 0, 58, 40
1, 26866, Note_on_c, 0, 46, 48
1, 26908, Note_on_c, 0, 58, 0
1, 26908, Note_on_c, 0, 65, 40
1, 26924, Note_on_c, 0, 46, 0
1, 26924, Note_on_c, 0, 62, 0
1, 26950, Note_on_c, 0, 68, 41
1, 26958, Note_on_c, 0, 65, 0
1, 26987, Note_on_c, 0, 68, 0
1, 26991, Note_on_c, 0, 39, 46
1, 26991, Note_on_c, 0, 51, 47
1, 26991, Note_on_c, 0, 67, 46
1, 27037, Note_on_c, 0, 70, 47
1, 27050, Note_on_c, 0, 67, 0
1, 27054, Note_on_c, 0, 39, 0
1, 27070, Note_on_c, 0, 51, 0
1, 27075, Note_on_c, 0, 67, 46
1, 27078, Note_on_c, 0, 70, 0
1, 27120, Note_on_c, 0, 43, 54
1, 27120, Note_on_c, 0, 55, 46
1, 27120, Note_on_c, 0, 75, 45
1, 27149, Note_on_c, 0, 67, 0
1, 27166, Note_on_c, 0, 70, 35
1, 27174, Note_on_c, 0, 75, 0
1, 27178, Note_on_c, 0, 43, 0
1, 27191, Note_on_c, 0, 55, 0
1, 27208, Note_on_c, 0, 70, 0
1, 27208, Note_on_c, 0, 67, 55
1, 27250, Note_on_c, 0, 58, 39
1, 27250, Note_on_c, 0, 68, 53
1, 27250, Note_on_c, 0, 46, 45
1, 27254, Note_on_c, 0, 67, 0
1, 27296, Note_on_c, 0, 68, 0
1, 27296, Note_on_c, 0, 65, 47
1, 27300, Note_on_c, 0, 58, 0
1, 27312, Note_on_c, 0, 46, 0
1, 27333, Note_on_c, 0, 65, 0
1, 27333, Note_on_c, 0, 62, 45
1, 27379, Note_on_c, 0, 62, 0
1, 27383, Note_on_c, 0, 39, 42
1, 27383, Note_on_c, 0, 51, 48
1, 27383, Note_on_c, 0, 63, 53
1, 27466, Note_on_c, 0, 63, 0
1, 27471, Note_on_c, 0, 39, 0
1, 27478, Note_on_c, 0, 51, 0
1, 27670, Note_on_c, 0, 63, 36
1, 27670, Note_on_c, 0, 58, 40
1, 27670, Note_on_c, 0, 55, 28
1, 27670, Note_on_c, 0, 51, 36
1, 27690, Note_on_c, 0, 51, 0
1, 27690, Note_on_c, 0, 63, 0
1, 27690, Note_on_c, 0, 58, 0
1, 27690, Note_on_c, 0, 55, 0
1, 27830, Note_on_c, 0, 51, 29
1, 27830, Note_on_c, 0, 55, 29
1, 27830, Note_on_c, 0, 58, 29
1, 27830, Note_on_c, 0, 63, 29
1, 27967, Note_on_c, 0, 58, 0
1, 28000, Note_on_c, 0, 63, 0
1, 28022, Note_on_c, 0, 55, 0
1, 28024, Note_on_c, 0, 51, 0
1, 28458, Note_on_c, 0, 79, 39
1, 28458, Note_on_c, 0, 63, 33
1, 28537, Note_on_c, 0, 67, 32
1, 28609, Note_on_c, 0, 70, 25
1, 28621, Note_on_c, 0, 67, 0
1, 28646, Note_on_c, 0, 80, 41
1, 28654, Note_on_c, 0, 79, 0
1, 28675, Note_on_c, 0, 70, 0
1, 28679, Note_on_c, 0, 67, 42
1, 28679, Note_on_c, 0, 79, 45
1, 28692, Note_on_c, 0, 80, 0
1, 28708, Note_on_c, 0, 79, 0
1, 28708, Note_on_c, 0, 77, 47
1, 28737, Note_on_c, 0, 67, 0
1, 28738, Note_on_c, 0, 70, 39
1, 28738, Note_on_c, 0, 75, 63
1, 28745, Note_on_c, 0, 77, 0
1, 28796, Note_on_c, 0, 63, 0
1, 28800, Note_on_c, 0, 67, 46
1, 28821, Note_on_c, 0, 70, 0
1, 28862, Note_on_c, 0, 67, 0
1, 28862, Note_on_c, 0, 63, 39
1, 28904, Note_on_c, 0, 75, 0
1, 28929, Note_on_c, 0, 67, 39
1, 29000, Note_on_c, 0, 81, 46
1, 29000, Note_on_c, 0, 70, 35
1, 29004, Note_on_c, 0, 67, 0
1, 29054, Note_on_c, 0, 63, 0
1, 29062, Note_on_c, 0, 67, 28
1, 29062, Note_on_c, 0, 82, 38
1, 29070, Note_on_c, 0, 70, 0
1, 29074, Note_on_c, 0, 81, 0
1, 29125, Note_on_c, 0, 63, 39
1, 29125, Note_on_c, 0, 81, 46
1, 29129, Note_on_c, 0, 82, 0
1, 29133, Note_on_c, 0, 67, 0
1, 29187, Note_on_c, 0, 63, 0
1, 29188, Note_on_c, 0, 67, 35
1, 29188, Note_on_c, 0, 82, 44
1, 29196, Note_on_c, 0, 81, 0
1, 29229, Note_on_c, 0, 67, 0
1, 29267, Note_on_c, 0, 62, 42
1, 29267, Note_on_c, 0, 77, 41
1, 29270, Note_on_c, 0, 82, 0
1, 29342, Note_on_c, 0, 65, 31
1, 29421, Note_on_c, 0, 65, 0
1, 29425, Note_on_c, 0, 70, 25
1, 29454, Note_on_c, 0, 79, 53
1, 29463, Note_on_c, 0, 77, 0
1, 29492, Note_on_c, 0, 70, 0
1, 29492, Note_on_c, 0, 65, 39
1, 29492, Note_on_c, 0, 77, 50
1, 29504, Note_on_c, 0, 79, 0
1, 29517, Note_on_c, 0, 75, 66
1, 29525, Note_on_c, 0, 77, 0
1, 29546, Note_on_c, 0, 70, 36
1, 29546, Note_on_c, 0, 74, 63
1, 29550, Note_on_c, 0, 75, 0
1, 29550, Note_on_c, 0, 65, 0
1, 29604, Note_on_c, 0, 65, 40
1, 29609, Note_on_c, 0, 62, 0
1, 29625, Note_on_c, 0, 70, 0
1, 29667, Note_on_c, 0, 62, 45
1, 29671, Note_on_c, 0, 65, 0
1, 29730, Note_on_c, 0, 65, 45
1, 29792, Note_on_c, 0, 65, 0
1, 29800, Note_on_c, 0, 74, 0
1, 29800, Note_on_c, 0, 70, 31
1, 29800, Note_on_c, 0, 81, 40
1, 29858, Note_on_c, 0, 62, 0
1, 29858, Note_on_c, 0, 65, 47
1, 29858, Note_on_c, 0, 82, 44
1, 29871, Note_on_c, 0, 81, 0
1, 29875, Note_on_c, 0, 70, 0
1, 29917, Note_on_c, 0, 65, 0
1, 29917, Note_on_c, 0, 81, 39
1, 29917, Note_on_c, 0, 62, 42
1, 29925, Note_on_c, 0, 82, 0
1, 29984, Note_on_c, 0, 65, 34
1, 29984, Note_on_c, 0, 82, 40
1, 29988, Note_on_c, 0, 62, 0
1, 29988, Note_on_c, 0, 81, 0
1, 30017, Note_on_c, 0, 82, 0
1, 30043, Note_on_c, 0, 60, 33
1, 30043, Note_on_c, 0, 82, 40
1, 30051, Note_on_c, 0, 65, 0
1, 30113, Note_on_c, 0, 63, 40
1, 30113, Note_on_c, 0, 81, 47
1, 30123, Note_on_c, 0, 82, 0
1, 30175, Note_on_c, 0, 81, 0
1, 30175, Note_on_c, 0, 65, 36
1, 30175, Note_on_c, 0, 84, 50
1, 30179, Note_on_c, 0, 63, 0
1, 30234, Note_on_c, 0, 84, 0
1, 30234, Note_on_c, 0, 81, 37
1, 30238, Note_on_c, 0, 63, 29
1, 30242, Note_on_c, 0, 65, 0
1, 30251, Note_on_c, 0, 60, 0
1, 30254, Note_on_c, 0, 63, 0
1, 30304, Note_on_c, 0, 57, 45
1, 30304, Note_on_c, 0, 77, 34
1, 30308, Note_on_c, 0, 81, 0
1, 30363, Note_on_c, 0, 60, 45
1, 30363, Note_on_c, 0, 75, 34
1, 30375, Note_on_c, 0, 77, 0
1, 30375, Note_on_c, 0, 57, 0
1, 30421, Note_on_c, 0, 60, 0
1, 30425, Note_on_c, 0, 58, 36
1, 30426, Note_on_c, 0, 74, 54
1, 30434, Note_on_c, 0, 75, 0
1, 30492, Note_on_c, 0, 62, 42
1, 30550, Note_on_c, 0, 62, 0
1, 30554, Note_on_c, 0, 65, 37
1, 30617, Note_on_c, 0, 58, 0
1, 30622, Note_on_c, 0, 62, 39
1, 30650, Note_on_c, 0, 65, 0
1, 30692, Note_on_c, 0, 62, 0
1, 30696, Note_on_c, 0, 82, 42
1, 30696, Note_on_c, 0, 58, 42
1, 30708, Note_on_c, 0, 74, 0
1, 30776, Note_on_c, 0, 62, 31
1, 30784, Note_on_c, 0, 58, 0
1, 30804, Note_on_c, 0, 82, 0
1, 30830, Note_on_c, 0, 62, 0
1, 30855, Note_on_c, 0, 60, 34
1, 30855, Note_on_c, 0, 82, 40
1, 30984, Note_on_c, 0, 63, 29
1, 30984, Note_on_c, 0, 81, 40
1, 30992, Note_on_c, 0, 82, 0
1, 31050, Note_on_c, 0, 81, 0
1, 31050, Note_on_c, 0, 84, 41
1, 31050, Note_on_c, 0, 65, 32
1, 31054, Note_on_c, 0, 63, 0
1, 31108, Note_on_c, 0, 84, 0
1, 31113, Note_on_c, 0, 63, 36
1, 31113, Note_on_c, 0, 81, 40
1, 31122, Note_on_c, 0, 60, 0
1, 31122, Note_on_c, 0, 65, 0
1, 31129, Note_on_c, 0, 63, 0
1, 31179, Note_on_c, 0, 81, 0
1, 31180, Note_on_c, 0, 57, 39
1, 31180, Note_on_c, 0, 77, 32
1, 31238, Note_on_c, 0, 75, 40
1, 31242, Note_on_c, 0, 60, 35
1, 31250, Note_on_c, 0, 77, 0
1, 31258, Note_on_c, 0, 57, 0
1, 31275, Note_on_c, 0, 60, 0
1, 31305, Note_on_c, 0, 74, 52
1, 31305, Note_on_c, 0, 58, 35
1, 31317, Note_on_c, 0, 75, 0
1, 31371, Note_on_c, 0, 62, 39
1, 31434, Note_on_c, 0, 62, 0
1, 31438, Note_on_c, 0, 65, 39
1, 31500, Note_on_c, 0, 62, 46
1, 31504, Note_on_c, 0, 58, 0
1, 31513, Note_on_c, 0, 65, 0
1, 31521, Note_on_c, 0, 74, 0
1, 31576, Note_on_c, 0, 62, 0
1, 31576, Note_on_c, 0, 58, 46
1, 31576, Note_on_c, 0, 74, 54
1, 31659, Note_on_c, 0, 62, 45
1, 31667, Note_on_c, 0, 58, 0
1, 31671, Note_on_c, 0, 62, 0
1, 31747, Note_on_c, 0, 74, 0
1, 31750, Note_on_c, 0, 71, 45
1, 31750, Note_on_c, 0, 51, 32
1, 31834, Note_on_c, 0, 55, 45
1, 31834, Note_on_c, 0, 72, 47
1, 31846, Note_on_c, 0, 71, 0
1, 31901, Note_on_c, 0, 55, 0
1, 31905, Note_on_c, 0, 60, 53
1, 31968, Note_on_c, 0, 55, 45
1, 31971, Note_on_c, 0, 51, 0
1, 31976, Note_on_c, 0, 60, 0
1, 32030, Note_on_c, 0, 55, 0
1, 32034, Note_on_c, 0, 51, 46
1, 32034, Note_on_c, 0, 74, 59
1, 32055, Note_on_c, 0, 72, 0
1, 32105, Note_on_c, 0, 55, 50
1, 32109, Note_on_c, 0, 75, 56
1, 32117, Note_on_c, 0, 74, 0
1, 32163, Note_on_c, 0, 55, 0
1, 32171, Note_on_c, 0, 60, 62
1, 32234, Note_on_c, 0, 60, 0
1, 32234, Note_on_c, 0, 51, 0
1, 32234, Note_on_c, 0, 55, 56
1, 32305, Note_on_c, 0, 55, 0
1, 32309, Note_on_c, 0, 51, 68
1, 32310, Note_on_c, 0, 78, 55
1, 32318, Note_on_c, 0, 75, 0
1, 32388, Note_on_c, 0, 55, 56
1, 32389, Note_on_c, 0, 79, 59
1, 32400, Note_on_c, 0, 78, 0
1, 32480, Note_on_c, 0, 60, 62
1, 32589, Note_on_c, 0, 77, 41
1, 32613, Note_on_c, 0, 79, 0
1, 32613, Note_on_c, 0, 55, 0
1, 32626, Note_on_c, 0, 51, 0
1, 32626, Note_on_c, 0, 75, 45
1, 32634, Note_on_c, 0, 77, 0
1, 32651, Note_on_c, 0, 60, 0
1, 32655, Note_on_c, 0, 74, 47
1, 32668, Note_on_c, 0, 75, 0
1, 32688, Note_on_c, 0, 74, 0
1, 32689, Note_on_c, 0, 72, 42
1, 32730, Note_on_c, 0, 53, 40
1, 32730, Note_on_c, 0, 70, 45
1, 32730, Note_on_c, 0, 62, 28
1, 32742, Note_on_c, 0, 72, 0
1, 32901, Note_on_c, 0, 62, 0
1, 33063, Note_on_c, 0, 69, 36
1, 33063, Note_on_c, 0, 60, 24
1, 33072, Note_on_c, 0, 70, 0
1, 33113, Note_on_c, 0, 60, 0
1, 33122, Note_on_c, 0, 53, 0
1, 33185, Note_on_c, 0, 51, 53
1, 33185, Note_on_c, 0, 39, 56
1, 33247, Note_on_c, 0, 39, 0
1, 33247, Note_on_c, 0, 51, 0
1, 33310, Note_on_c, 0, 50, 57
1, 33310, Note_on_c, 0, 38, 62
1, 33388, Note_on_c, 0, 50, 0
1, 33393, Note_on_c, 0, 38, 0
1, 33443, Note_on_c, 0, 48, 52
1, 33443, Note_on_c, 0, 36, 62
1, 33477, Note_on_c, 0, 48, 0
1, 33480, Note_on_c, 0, 36, 0
1, 33526, Note_on_c, 0, 69, 0
1, 33580, Note_on_c, 0, 34, 60
1, 33580, Note_on_c, 0, 46, 62
1, 33605, Note_on_c, 0, 46, 0
1, 33605, Note_on_c, 0, 34, 0
1, 33714, Note_on_c, 0, 62, 56
1, 33714, Note_on_c, 0, 77, 48
1, 33754, Note_on_c, 0, 77, 0
1, 33754, Note_on_c, 0, 62, 0
1, 33754, Note_on_c, 0, 58, 45
1, 33754, Note_on_c, 0, 74, 45
1, 33793, Note_on_c, 0, 75, 44
1, 33793, Note_on_c, 0, 60, 48
1, 33794, Note_on_c, 0, 74, 0
1, 33794, Note_on_c, 0, 58, 0
1, 33833, Note_on_c, 0, 75, 0
1, 33833, Note_on_c, 0, 60, 0
1, 33835, Note_on_c, 0, 62, 54
1, 33835, Note_on_c, 0, 77, 47
1, 33872, Note_on_c, 0, 74, 45
1, 33872, Note_on_c, 0, 58, 41
1, 33875, Note_on_c, 0, 77, 0
1, 33875, Note_on_c, 0, 62, 0
1, 33902, Note_on_c, 0, 58, 0
1, 33905, Note_on_c, 0, 60, 40
1, 33905, Note_on_c, 0, 75, 53
1, 33912, Note_on_c, 0, 74, 0
1, 33945, Note_on_c, 0, 75, 0
1, 33945, Note_on_c, 0, 60, 0
1, 33951, Note_on_c, 0, 77, 52
1, 33952, Note_on_c, 0, 62, 45
1, 33991, Note_on_c, 0, 77, 0
1, 33992, Note_on_c, 0, 62, 0
1, 34093, Note_on_c, 0, 63, 38
1, 34094, Note_on_c, 0, 79, 41
1, 34255, Note_on_c, 0, 75, 40
1, 34255, Note_on_c, 0, 60, 39
1, 34268, Note_on_c, 0, 79, 0
1, 34272, Note_on_c, 0, 63, 0
1, 34292, Note_on_c, 0, 60, 0
1, 34352, Note_on_c, 0, 75, 0
1, 34389, Note_on_c, 0, 41, 63
1, 34389, Note_on_c, 0, 53, 56
1, 34422, Note_on_c, 0, 53, 0
1, 34422, Note_on_c, 0, 41, 0
1, 34531, Note_on_c, 0, 60, 55
1, 34531, Note_on_c, 0, 75, 47
1, 34571, Note_on_c, 0, 75, 0
1, 34571, Note_on_c, 0, 60, 0
1, 34573, Note_on_c, 0, 57, 46
1, 34573, Note_on_c, 0, 72, 46
1, 34610, Note_on_c, 0, 58, 52
1, 34610, Note_on_c, 0, 74, 56
1, 34613, Note_on_c, 0, 72, 0
1, 34613, Note_on_c, 0, 57, 0
1, 34650, Note_on_c, 0, 58, 0
1, 34650, Note_on_c, 0, 74, 0
1, 34656, Note_on_c, 0, 60, 51
1, 34656, Note_on_c, 0, 75, 40
1, 34689, Note_on_c, 0, 57, 47
1, 34689, Note_on_c, 0, 72, 44
1, 34696, Note_on_c, 0, 75, 0
1, 34696, Note_on_c, 0, 60, 0
1, 34729, Note_on_c, 0, 57, 0
1, 34729, Note_on_c, 0, 72, 0
1, 34731, Note_on_c, 0, 58, 41
1, 34731, Note_on_c, 0, 74, 52
1, 34771, Note_on_c, 0, 74, 0
1, 34771, Note_on_c, 0, 58, 0
1, 34781, Note_on_c, 0, 60, 35
1, 34781, Note_on_c, 0, 75, 38
1, 34801, Note_on_c, 0, 75, 0
1, 34801, Note_on_c, 0, 60, 0
1, 34910, Note_on_c, 0, 62, 36
1, 34910, Note_on_c, 0, 77, 41
1, 35060, Note_on_c, 0, 74, 31
1, 35060, Note_on_c, 0, 58, 31
1, 35068, Note_on_c, 0, 62, 0
1, 35072, Note_on_c, 0, 77, 0
1, 35114, Note_on_c, 0, 58, 0
1, 35127, Note_on_c, 0, 74, 0
1, 35247, Note_on_c, 0, 70, 28
1, 35248, Note_on_c, 0, 50, 31
1, 35306, Note_on_c, 0, 53, 31
1, 35335, Note_on_c, 0, 50, 0
1, 35356, Note_on_c, 0, 58, 30
1, 35380, Note_on_c, 0, 53, 0
1, 35398, Note_on_c, 0, 58, 0
1, 35410, Note_on_c, 0, 50, 29
1, 35410, Note_on_c, 0, 82, 40
1, 35464, Note_on_c, 0, 53, 36
1, 35485, Note_on_c, 0, 50, 0
1, 35518, Note_on_c, 0, 70, 0
1, 35518, Note_on_c, 0, 58, 31
1, 35540, Note_on_c, 0, 82, 0
1, 35540, Note_on_c, 0, 53, 0
1, 35556, Note_on_c, 0, 58, 0
1, 35568, Note_on_c, 0, 50, 45
1, 35568, Note_on_c, 0, 82, 45
1, 35619, Note_on_c, 0, 53, 42
1, 35644, Note_on_c, 0, 50, 0
1, 35676, Note_on_c, 0, 53, 0
1, 35676, Note_on_c, 0, 58, 34
1, 35735, Note_on_c, 0, 58, 0
1, 35739, Note_on_c, 0, 51, 34
1, 35756, Note_on_c, 0, 81, 55
1, 35760, Note_on_c, 0, 82, 0
1, 35802, Note_on_c, 0, 55, 45
1, 35830, Note_on_c, 0, 79, 53
1, 35847, Note_on_c, 0, 81, 0
1, 35860, Note_on_c, 0, 51, 0
1, 35864, Note_on_c, 0, 58, 36
1, 35898, Note_on_c, 0, 55, 0
1, 35910, Note_on_c, 0, 58, 0
1, 35910, Note_on_c, 0, 77, 55
1, 35910, Note_on_c, 0, 51, 40
1, 35931, Note_on_c, 0, 79, 0
1, 35964, Note_on_c, 0, 55, 46
1, 35994, Note_on_c, 0, 77, 0
1, 36002, Note_on_c, 0, 75, 68
1, 36031, Note_on_c, 0, 51, 0
1, 36039, Note_on_c, 0, 58, 36
1, 36085, Note_on_c, 0, 58, 0
1, 36085, Note_on_c, 0, 55, 0
1, 36085, Note_on_c, 0, 51, 40
1, 36093, Note_on_c, 0, 75, 0
1, 36094, Note_on_c, 0, 74, 42
1, 36106, Note_on_c, 0, 74, 0
1, 36143, Note_on_c, 0, 55, 40
1, 36152, Note_on_c, 0, 51, 0
1, 36197, Note_on_c, 0, 60, 36
1, 36197, Note_on_c, 0, 72, 51
1, 36206, Note_on_c, 0, 55, 0
1, 36218, Note_on_c, 0, 72, 0
1, 36248, Note_on_c, 0, 60, 0
1, 36256, Note_on_c, 0, 53, 43
1, 36256, Note_on_c, 0, 72, 60
1, 36331, Note_on_c, 0, 58, 48
1, 36386, Note_on_c, 0, 53, 0
1, 36406, Note_on_c, 0, 72, 0
1, 36406, Note_on_c, 0, 70, 41
1, 36406, Note_on_c, 0, 62, 25
1, 36420, Note_on_c, 0, 72, 40
1, 36422, Note_on_c, 0, 58, 0
1, 36427, Note_on_c, 0, 70, 0
1, 36435, Note_on_c, 0, 72, 0
1, 36435, Note_on_c, 0, 70, 100
1, 36450, Note_on_c, 0, 70, 0
1, 36450, Note_on_c, 0, 72, 40
1, 36450, Note_on_c, 0, 53, 37
1, 36456, Note_on_c, 0, 62, 0
1, 36465, Note_on_c, 0, 72, 0
1, 36465, Note_on_c, 0, 70, 37
1, 36480, Note_on_c, 0, 70, 0
1, 36480, Note_on_c, 0, 72, 41
1, 36495, Note_on_c, 0, 72, 0
1, 36495, Note_on_c, 0, 70, 41
1, 36510, Note_on_c, 0, 70, 0
1, 36510, Note_on_c, 0, 72, 41
1, 36510, Note_on_c, 0, 58, 48
1, 36525, Note_on_c, 0, 58, 0
1, 36525, Note_on_c, 0, 72, 0
1, 36525, Note_on_c, 0, 70, 41
1, 36533, Note_on_c, 0, 72, 41
1, 36540, Note_on_c, 0, 70, 0
1, 36540, Note_on_c, 0, 70, 48
1, 36548, Note_on_c, 0, 72, 0
1, 36548, Note_on_c, 0, 62, 45
1, 36548, Note_on_c, 0, 69, 47
1, 36555, Note_on_c, 0, 70, 0
1, 36568, Note_on_c, 0, 70, 40
1, 36575, Note_on_c, 0, 53, 0
1, 36589, Note_on_c, 0, 62, 0
1, 36610, Note_on_c, 0, 70, 0
1, 36610, Note_on_c, 0, 72, 52
1, 36610, Note_on_c, 0, 53, 34
1, 36622, Note_on_c, 0, 69, 0
1, 36660, Note_on_c, 0, 60, 39
1, 36702, Note_on_c, 0, 53, 0
1, 36710, Note_on_c, 0, 69, 47
1, 36710, Note_on_c, 0, 63, 45
1, 36718, Note_on_c, 0, 72, 0
1, 36727, Note_on_c, 0, 60, 0
1, 36727, Note_on_c, 0, 63, 0
1, 36734, Note_on_c, 0, 69, 0
1, 36764, Note_on_c, 0, 55, 49
1, 36764, Note_on_c, 0, 70, 66
1, 36818, Note_on_c, 0, 58, 37
1, 36869, Note_on_c, 0, 55, 0
1, 36873, Note_on_c, 0, 62, 41
1, 36923, Note_on_c, 0, 53, 44
1, 36931, Note_on_c, 0, 62, 0
1, 36931, Note_on_c, 0, 58, 0
1, 36981, Note_on_c, 0, 58, 34
1, 37031, Note_on_c, 0, 53, 0
1, 37035, Note_on_c, 0, 62, 44
1, 37052, Note_on_c, 0, 58, 0
1, 37089, Note_on_c, 0, 62, 0
1, 37089, Note_on_c, 0, 51, 40
1, 37148, Note_on_c, 0, 55, 20
1, 37198, Note_on_c, 0, 51, 0
1, 37198, Note_on_c, 0, 60, 31
1, 37215, Note_on_c, 0, 70, 0
1, 37231, Note_on_c, 0, 55, 0
1, 37248, Note_on_c, 0, 60, 0
1, 37256, Note_on_c, 0, 70, 41
1, 37260, Note_on_c, 0, 50, 29
1, 37319, Note_on_c, 0, 53, 27
1, 37365, Note_on_c, 0, 50, 0
1, 37373, Note_on_c, 0, 58, 26
1, 37423, Note_on_c, 0, 53, 0
1, 37427, Note_on_c, 0, 58, 0
1, 37427, Note_on_c, 0, 82, 42
1, 37427, Note_on_c, 0, 50, 35
1, 37486, Note_on_c, 0, 53, 46
1, 37506, Note_on_c, 0, 50, 0
1, 37527, Note_on_c, 0, 82, 0
1, 37540, Note_on_c, 0, 58, 39
1, 37590, Note_on_c, 0, 53, 0
1, 37598, Note_on_c, 0, 58, 0
1, 37598, Note_on_c, 0, 50, 47
1, 37602, Note_on_c, 0, 82, 65
1, 37619, Note_on_c, 0, 70, 0
1, 37661, Note_on_c, 0, 53, 45
1, 37664, Note_on_c, 0, 50, 0
1, 37718, Note_on_c, 0, 53, 0
1, 37727, Note_on_c, 0, 58, 38
1, 37798, Note_on_c, 0, 58, 0
1, 37814, Note_on_c, 0, 51, 42
1, 37814, Note_on_c, 0, 81, 65
1, 37819, Note_on_c, 0, 82, 0
1, 37865, Note_on_c, 0, 55, 47
1, 37898, Note_on_c, 0, 79, 65
1, 37910, Note_on_c, 0, 81, 0
1, 37935, Note_on_c, 0, 58, 36
1, 37944, Note_on_c, 0, 51, 0
1, 37965, Note_on_c, 0, 55, 0
1, 37986, Note_on_c, 0, 58, 0
1, 37986, Note_on_c, 0, 51, 36
1, 37986, Note_on_c, 0, 77, 79
1, 37998, Note_on_c, 0, 79, 0
1, 38040, Note_on_c, 0, 55, 45
1, 38070, Note_on_c, 0, 75, 70
1, 38077, Note_on_c, 0, 77, 0
1, 38086, Note_on_c, 0, 51, 0
1, 38115, Note_on_c, 0, 58, 40
1, 38165, Note_on_c, 0, 58, 0
1, 38165, Note_on_c, 0, 55, 0
1, 38165, Note_on_c, 0, 75, 0
1, 38169, Note_on_c, 0, 51, 39
1, 38169, Note_on_c, 0, 74, 53
1, 38223, Note_on_c, 0, 55, 39
1, 38227, Note_on_c, 0, 51, 0
1, 38277, Note_on_c, 0, 55, 0
1, 38277, Note_on_c, 0, 72, 63
1, 38281, Note_on_c, 0, 60, 46
1, 38290, Note_on_c, 0, 74, 0
1, 38294, Note_on_c, 0, 72, 0
1, 38323, Note_on_c, 0, 60, 0
1, 38336, Note_on_c, 0, 72, 68
1, 38336, Note_on_c, 0, 53, 40
1, 38390, Note_on_c, 0, 58, 40
1, 38448, Note_on_c, 0, 62, 35
1, 38452, Note_on_c, 0, 53, 0
1, 38465, Note_on_c, 0, 72, 0
1, 38465, Note_on_c, 0, 70, 43
1, 38469, Note_on_c, 0, 58, 0
1, 38482, Note_on_c, 0, 70, 0
1, 38486, Note_on_c, 0, 72, 47
1, 38498, Note_on_c, 0, 53, 41
1, 38506, Note_on_c, 0, 72, 0
1, 38506, Note_on_c, 0, 62, 0
1, 38506, Note_on_c, 0, 70, 52
1, 38519, Note_on_c, 0, 70, 0
1, 38523, Note_on_c, 0, 72, 45
1, 38536, Note_on_c, 0, 58, 37
1, 38540, Note_on_c, 0, 72, 0
1, 38544, Note_on_c, 0, 70, 31
1, 38552, Note_on_c, 0, 70, 0
1, 38560, Note_on_c, 0, 72, 45
1, 38577, Note_on_c, 0, 70, 29
1, 38590, Note_on_c, 0, 53, 0
1, 38602, Note_on_c, 0, 70, 0
1, 38602, Note_on_c, 0, 72, 0
1, 38606, Note_on_c, 0, 69, 48
1, 38614, Note_on_c, 0, 62, 26
1, 38627, Note_on_c, 0, 70, 52
1, 38648, Note_on_c, 0, 58, 0
1, 38670, Note_on_c, 0, 72, 48
1, 38673, Note_on_c, 0, 70, 0
1, 38678, Note_on_c, 0, 62, 0
1, 38678, Note_on_c, 0, 53, 36
1, 38728, Note_on_c, 0, 69, 0
1, 38731, Note_on_c, 0, 60, 40
1, 38773, Note_on_c, 0, 53, 0
1, 38777, Note_on_c, 0, 63, 46
1, 38781, Note_on_c, 0, 72, 0
1, 38781, Note_on_c, 0, 69, 38
1, 38790, Note_on_c, 0, 60, 0
1, 38794, Note_on_c, 0, 69, 0
1, 38798, Note_on_c, 0, 63, 0
1, 38856, Note_on_c, 0, 68, 62
1, 38856, Note_on_c, 0, 80, 66
1, 38856, Note_on_c, 0, 53, 52
1, 38915, Note_on_c, 0, 59, 52
1, 38961, Note_on_c, 0, 53, 0
1, 38961, Note_on_c, 0, 62, 53
1, 38969, Note_on_c, 0, 68, 0
1, 38973, Note_on_c, 0, 80, 0
1, 38982, Note_on_c, 0, 59, 0
1, 39006, Note_on_c, 0, 62, 0
1, 39006, Note_on_c, 0, 79, 60
1, 39006, Note_on_c, 0, 67, 56
1, 39006, Note_on_c, 0, 51, 56
1, 39061, Note_on_c, 0, 55, 53
1, 39073, Note_on_c, 0, 51, 0
1, 39094, Note_on_c, 0, 67, 0
1, 39097, Note_on_c, 0, 79, 0
1, 39106, Note_on_c, 0, 60, 52
1, 39160, Note_on_c, 0, 60, 0
1, 39161, Note_on_c, 0, 55, 0
1, 39165, Note_on_c, 0, 52, 55
1, 39165, Note_on_c, 0, 70, 51
1, 39165, Note_on_c, 0, 82, 53
1, 39215, Note_on_c, 0, 58, 44
1, 39257, Note_on_c, 0, 52, 0
1, 39274, Note_on_c, 0, 61, 31
1, 39286, Note_on_c, 0, 82, 0
1, 39294, Note_on_c, 0, 70, 0
1, 39294, Note_on_c, 0, 61, 0
1, 39307, Note_on_c, 0, 58, 0
1, 39332, Note_on_c, 0, 74, 45
1, 39332, Note_on_c, 0, 53, 42
1, 39390, Note_on_c, 0, 74, 0
1, 39394, Note_on_c, 0, 75, 39
1, 39398, Note_on_c, 0, 58, 36
1, 39410, Note_on_c, 0, 75, 0
1, 39411, Note_on_c, 0, 74, 44
1, 39419, Note_on_c, 0, 53, 0
1, 39428, Note_on_c, 0, 74, 0
1, 39431, Note_on_c, 0, 75, 45
1, 39444, Note_on_c, 0, 74, 49
1, 39448, Note_on_c, 0, 75, 0
1, 39448, Note_on_c, 0, 62, 38
1, 39461, Note_on_c, 0, 74, 0
1, 39461, Note_on_c, 0, 75, 42
1, 39469, Note_on_c, 0, 58, 0
1, 39474, Note_on_c, 0, 74, 50
1, 39477, Note_on_c, 0, 75, 0
1, 39490, Note_on_c, 0, 74, 0
1, 39490, Note_on_c, 0, 62, 0
1, 39490, Note_on_c, 0, 75, 45
1, 39490, Note_on_c, 0, 53, 48
1, 39506, Note_on_c, 0, 75, 0
1, 39506, Note_on_c, 0, 74, 46
1, 39519, Note_on_c, 0, 74, 0
1, 39524, Note_on_c, 0, 75, 46
1, 39532, Note_on_c, 0, 58, 38
1, 39540, Note_on_c, 0, 75, 0
1, 39540, Note_on_c, 0, 74, 37
1, 39555, Note_on_c, 0, 74, 0
1, 39561, Note_on_c, 0, 53, 0
1, 39561, Note_on_c, 0, 75, 44
1, 39582, Note_on_c, 0, 74, 46
1, 39590, Note_on_c, 0, 75, 0
1, 39590, Note_on_c, 0, 62, 37
1, 39602, Note_on_c, 0, 74, 0
1, 39603, Note_on_c, 0, 72, 45
1, 39627, Note_on_c, 0, 74, 52
1, 39636, Note_on_c, 0, 72, 0
1, 39640, Note_on_c, 0, 62, 0
1, 39653, Note_on_c, 0, 58, 0
1, 39656, Note_on_c, 0, 75, 49
1, 39661, Note_on_c, 0, 53, 39
1, 39669, Note_on_c, 0, 74, 0
1, 39715, Note_on_c, 0, 60, 36
1, 39765, Note_on_c, 0, 63, 38
1, 39765, Note_on_c, 0, 72, 52
1, 39774, Note_on_c, 0, 53, 0
1, 39774, Note_on_c, 0, 75, 0
1, 39778, Note_on_c, 0, 72, 0
1, 39782, Note_on_c, 0, 60, 0
1, 39786, Note_on_c, 0, 63, 0
1, 39824, Note_on_c, 0, 53, 54
1, 39824, Note_on_c, 0, 68, 63
1, 39824, Note_on_c, 0, 80, 63
1, 39878, Note_on_c, 0, 59, 47
1, 39924, Note_on_c, 0, 62, 47
1, 39928, Note_on_c, 0, 53, 0
1, 39936, Note_on_c, 0, 80, 0
1, 39937, Note_on_c, 0, 68, 0
1, 39948, Note_on_c, 0, 59, 0
1, 39974, Note_on_c, 0, 62, 0
1, 39974, Note_on_c, 0, 51, 55
1, 39974, Note_on_c, 0, 67, 55
1, 39974, Note_on_c, 0, 79, 54
1, 40032, Note_on_c, 0, 55, 45
1, 40057, Note_on_c, 0, 51, 0
1, 40078, Note_on_c, 0, 67, 0
1, 40082, Note_on_c, 0, 60, 39
1, 40086, Note_on_c, 0, 79, 0
1, 40145, Note_on_c, 0, 60, 0
1, 40145, Note_on_c, 0, 55, 0
1, 40145, Note_on_c, 0, 82, 53
1, 40145, Note_on_c, 0, 52, 50
1, 40145, Note_on_c, 0, 70, 46
1, 40207, Note_on_c, 0, 58, 37
1, 40270, Note_on_c, 0, 61, 36
1, 40273, Note_on_c, 0, 52, 0
1, 40290, Note_on_c, 0, 82, 0
1, 40294, Note_on_c, 0, 58, 0
1, 40294, Note_on_c, 0, 70, 0
1, 40294, Note_on_c, 0, 61, 0
1, 40345, Note_on_c, 0, 53, 46
1, 40345, Note_on_c, 0, 74, 45
1, 40403, Note_on_c, 0, 75, 39
1, 40407, Note_on_c, 0, 74, 0
1, 40415, Note_on_c, 0, 58, 39
1, 40432, Note_on_c, 0, 75, 0
1, 40432, Note_on_c, 0, 74, 42
1, 40448, Note_on_c, 0, 74, 0
1, 40448, Note_on_c, 0, 75, 40
1, 40470, Note_on_c, 0, 75, 0
1, 40470, Note_on_c, 0, 74, 42
1, 40470, Note_on_c, 0, 62, 40
1, 40478, Note_on_c, 0, 58, 0
1, 40486, Note_on_c, 0, 74, 0
1, 40487, Note_on_c, 0, 53, 0
1, 40490, Note_on_c, 0, 75, 45
1, 40503, Note_on_c, 0, 74, 53
1, 40507, Note_on_c, 0, 75, 0
1, 40524, Note_on_c, 0, 74, 0
1, 40528, Note_on_c, 0, 53, 54
1, 40528, Note_on_c, 0, 75, 47
1, 40532, Note_on_c, 0, 62, 0
1, 40544, Note_on_c, 0, 74, 44
1, 40548, Note_on_c, 0, 75, 0
1, 40566, Note_on_c, 0, 75, 42
1, 40569, Note_on_c, 0, 74, 0
1, 40578, Note_on_c, 0, 58, 48
1, 40590, Note_on_c, 0, 75, 0
1, 40590, Note_on_c, 0, 74, 33
1, 40612, Note_on_c, 0, 74, 0
1, 40612, Note_on_c, 0, 75, 42
1, 40628, Note_on_c, 0, 62, 45
1, 40636, Note_on_c, 0, 53, 0
1, 40636, Note_on_c, 0, 74, 45
1, 40649, Note_on_c, 0, 75, 0
1, 40657, Note_on_c, 0, 74, 0
1, 40661, Note_on_c, 0, 72, 49
1, 40686, Note_on_c, 0, 74, 47
1, 40698, Note_on_c, 0, 72, 0
1, 40699, Note_on_c, 0, 62, 0
1, 40699, Note_on_c, 0, 58, 0
1, 40715, Note_on_c, 0, 53, 42
1, 40715, Note_on_c, 0, 75, 40
1, 40723, Note_on_c, 0, 74, 0
1, 40770, Note_on_c, 0, 60, 40
1, 40820, Note_on_c, 0, 63, 51
1, 40820, Note_on_c, 0, 72, 48
1, 40828, Note_on_c, 0, 75, 0
1, 40832, Note_on_c, 0, 72, 0
1, 40836, Note_on_c, 0, 63, 0
1, 40840, Note_on_c, 0, 60, 0
1, 40848, Note_on_c, 0, 53, 0
1, 40874, Note_on_c, 0, 70, 60
1, 40874, Note_on_c, 0, 62, 47
1, 40874, Note_on_c, 0, 58, 51
1, 40928, Note_on_c, 0, 74, 57
1, 40941, Note_on_c, 0, 70, 0
1, 40982, Note_on_c, 0, 77, 53
1, 40994, Note_on_c, 0, 74, 0
1, 41024, Note_on_c, 0, 77, 0
1, 41028, Note_on_c, 0, 82, 40
1, 41044, Note_on_c, 0, 62, 0
1, 41057, Note_on_c, 0, 82, 0
1, 41057, Note_on_c, 0, 58, 0
1, 41074, Note_on_c, 0, 77, 51
1, 41128, Note_on_c, 0, 77, 0
1, 41128, Note_on_c, 0, 74, 45
1, 41178, Note_on_c, 0, 75, 48
1, 41178, Note_on_c, 0, 41, 46
1, 41178, Note_on_c, 0, 53, 45
1, 41190, Note_on_c, 0, 74, 0
1, 41236, Note_on_c, 0, 41, 0
1, 41240, Note_on_c, 0, 72, 44
1, 41253, Note_on_c, 0, 75, 0
1, 41253, Note_on_c, 0, 53, 0
1, 41286, Note_on_c, 0, 72, 0
1, 41290, Note_on_c, 0, 69, 54
1, 41340, Note_on_c, 0, 69, 0
1, 41341, Note_on_c, 0, 46, 53
1, 41341, Note_on_c, 0, 58, 47
1, 41341, Note_on_c, 0, 70, 54
1, 41382, Note_on_c, 0, 58, 0
1, 41391, Note_on_c, 0, 74, 55
1, 41399, Note_on_c, 0, 46, 0
1, 41411, Note_on_c, 0, 70, 0
1, 41441, Note_on_c, 0, 65, 53
1, 41465, Note_on_c, 0, 74, 0
1, 41487, Note_on_c, 0, 74, 16
1, 41487, Note_on_c, 0, 70, 55
1, 41487, Note_on_c, 0, 50, 45
1, 41487, Note_on_c, 0, 38, 35
1, 41499, Note_on_c, 0, 65, 0
1, 41529, Note_on_c, 0, 74, 0
1, 41541, Note_on_c, 0, 70, 0
1, 41541, Note_on_c, 0, 65, 50
1, 41549, Note_on_c, 0, 38, 0
1, 41558, Note_on_c, 0, 50, 0
1, 41591, Note_on_c, 0, 62, 37
1, 41595, Note_on_c, 0, 65, 0
1, 41636, Note_on_c, 0, 62, 0
1, 41636, Note_on_c, 0, 41, 45
1, 41636, Note_on_c, 0, 53, 40
1, 41636, Note_on_c, 0, 63, 46
1, 41682, Note_on_c, 0, 53, 0
1, 41686, Note_on_c, 0, 60, 43
1, 41694, Note_on_c, 0, 41, 0
1, 41695, Note_on_c, 0, 63, 0
1, 41736, Note_on_c, 0, 60, 0
1, 41737, Note_on_c, 0, 57, 39
1, 41795, Note_on_c, 0, 57, 0
1, 41795, Note_on_c, 0, 34, 46
1, 41795, Note_on_c, 0, 46, 37
1, 41795, Note_on_c, 0, 58, 46
1, 41853, Note_on_c, 0, 34, 0
1, 41857, Note_on_c, 0, 58, 0
1, 41857, Note_on_c, 0, 46, 0
1, 42112, Note_on_c, 0, 50, 25
1, 42112, Note_on_c, 0, 53, 31
1, 42112, Note_on_c, 0, 58, 40
1, 42116, Note_on_c, 0, 46, 25
1, 42132, Note_on_c, 0, 50, 0
1, 42133, Note_on_c, 0, 46, 0
1, 42137, Note_on_c, 0, 58, 0
1, 42137, Note_on_c, 0, 53, 0
1, 42261, Note_on_c, 0, 58, 26
1, 42261, Note_on_c, 0, 53, 27
1, 42261, Note_on_c, 0, 50, 26
1, 42261, Note_on_c, 0, 46, 28
1, 42452, Note_on_c, 0, 53, 0
1, 42490, Note_on_c, 0, 58, 0
1, 42603, Note_on_c, 0, 50, 0
1, 42628, Note_on_c, 0, 46, 0
1, 42941, Note_on_c, 0, 46, 35
1, 42941, Note_on_c, 0, 58, 30
1, 42996, Note_on_c, 0, 69, 40
1, 43041, Note_on_c, 0, 70, 39
1, 43091, Note_on_c, 0, 72, 52
1, 43099, Note_on_c, 0, 70, 0
1, 43099, Note_on_c, 0, 69, 0
1, 43141, Note_on_c, 0, 69, 45
1, 43183, Note_on_c, 0, 70, 54
1, 43187, Note_on_c, 0, 46, 0
1, 43195, Note_on_c, 0, 72, 0
1, 43212, Note_on_c, 0, 58, 0
1, 43233, Note_on_c, 0, 72, 53
1, 43237, Note_on_c, 0, 70, 0
1, 43245, Note_on_c, 0, 69, 0
1, 43287, Note_on_c, 0, 69, 46
1, 43333, Note_on_c, 0, 70, 44
1, 43337, Note_on_c, 0, 72, 0
1, 43345, Note_on_c, 0, 69, 0
1, 43350, Note_on_c, 0, 70, 0
1, 43395, Note_on_c, 0, 58, 40
1, 43395, Note_on_c, 0, 82, 53
1, 43445, Note_on_c, 0, 62, 45
1, 43495, Note_on_c, 0, 65, 37
1, 43503, Note_on_c, 0, 58, 0
1, 43512, Note_on_c, 0, 62, 0
1, 43545, Note_on_c, 0, 58, 42
1, 43562, Note_on_c, 0, 65, 0
1, 43591, Note_on_c, 0, 63, 36
1, 43633, Note_on_c, 0, 67, 42
1, 43678, Note_on_c, 0, 58, 52
1, 43678, Note_on_c, 0, 65, 44
1, 43678, Note_on_c, 0, 74, 52
1, 43683, Note_on_c, 0, 67, 0
1, 43687, Note_on_c, 0, 63, 0
1, 43695, Note_on_c, 0, 82, 0
1, 43708, Note_on_c, 0, 58, 0
1, 43716, Note_on_c, 0, 75, 41
1, 43716, Note_on_c, 0, 65, 52
1, 43731, Note_on_c, 0, 75, 0
1, 43732, Note_on_c, 0, 74, 41
1, 43733, Note_on_c, 0, 74, 0
1, 43737, Note_on_c, 0, 65, 0
1, 43746, Note_on_c, 0, 58, 0
1, 43746, Note_on_c, 0, 65, 0
1, 43747, Note_on_c, 0, 74, 0
1, 43754, Note_on_c, 0, 68, 32
1, 43754, Note_on_c, 0, 72, 47
1, 43778, Note_on_c, 0, 74, 44
1, 43783, Note_on_c, 0, 68, 0
1, 43795, Note_on_c, 0, 72, 0
1, 43830, Note_on_c, 0, 75, 40
1, 43830, Note_on_c, 0, 67, 46
1, 43830, Note_on_c, 0, 63, 42
1, 43830, Note_on_c, 0, 58, 45
1, 43833, Note_on_c, 0, 74, 0
1, 43875, Note_on_c, 0, 69, 55
1, 43884, Note_on_c, 0, 75, 0
1, 43916, Note_on_c, 0, 70, 47
1, 43950, Note_on_c, 0, 69, 0
1, 43966, Note_on_c, 0, 70, 0
1, 43966, Note_on_c, 0, 72, 52
1, 44012, Note_on_c, 0, 69, 48
1, 44058, Note_on_c, 0, 70, 57
1, 44066, Note_on_c, 0, 72, 0
1, 44108, Note_on_c, 0, 70, 0
1, 44108, Note_on_c, 0, 72, 55
1, 44112, Note_on_c, 0, 69, 0
1, 44154, Note_on_c, 0, 69, 45
1, 44204, Note_on_c, 0, 70, 66
1, 44208, Note_on_c, 0, 72, 0
1, 44209, Note_on_c, 0, 58, 0
1, 44212, Note_on_c, 0, 69, 0
1, 44221, Note_on_c, 0, 63, 0
1, 44221, Note_on_c, 0, 70, 0
1, 44221, Note_on_c, 0, 67, 0
1, 44258, Note_on_c, 0, 58, 53
1, 44258, Note_on_c, 0, 82, 63
1, 44308, Note_on_c, 0, 63, 46
1, 44354, Note_on_c, 0, 58, 0
1, 44354, Note_on_c, 0, 67, 45
1, 44400, Note_on_c, 0, 58, 54
1, 44408, Note_on_c, 0, 63, 0
1, 44416, Note_on_c, 0, 67, 0
1, 44446, Note_on_c, 0, 65, 46
1, 44492, Note_on_c, 0, 68, 47
1, 44500, Note_on_c, 0, 65, 0
1, 44512, Note_on_c, 0, 58, 0
1, 44537, Note_on_c, 0, 58, 55
1, 44542, Note_on_c, 0, 82, 0
1, 44542, Note_on_c, 0, 68, 0
1, 44542, Note_on_c, 0, 76, 48
1, 44558, Note_on_c, 0, 77, 48
1, 44587, Note_on_c, 0, 67, 35
1, 44592, Note_on_c, 0, 77, 0
1, 44600, Note_on_c, 0, 76, 0
1, 44604, Note_on_c, 0, 74, 47
1, 44625, Note_on_c, 0, 67, 0
1, 44629, Note_on_c, 0, 76, 45
1, 44642, Note_on_c, 0, 58, 0
1, 44650, Note_on_c, 0, 74, 0
1, 44687, Note_on_c, 0, 77, 54
1, 44687, Note_on_c, 0, 68, 43
1, 44687, Note_on_c, 0, 62, 59
1, 44687, Note_on_c, 0, 58, 49
1, 44691, Note_on_c, 0, 76, 0
1, 44738, Note_on_c, 0, 77, 0
1, 44742, Note_on_c, 0, 69, 48
1, 44787, Note_on_c, 0, 70, 55
1, 44792, Note_on_c, 0, 69, 0
1, 44833, Note_on_c, 0, 72, 57
1, 44837, Note_on_c, 0, 70, 0
1, 44879, Note_on_c, 0, 69, 53
1, 44925, Note_on_c, 0, 70, 63
1, 44933, Note_on_c, 0, 72, 0
1, 44971, Note_on_c, 0, 70, 0
1, 44971, Note_on_c, 0, 72, 54
1, 44975, Note_on_c, 0, 69, 0
1, 45021, Note_on_c, 0, 69, 43
1, 45066, Note_on_c, 0, 70, 72
1, 45070, Note_on_c, 0, 72, 0
1, 45075, Note_on_c, 0, 69, 0
1, 45075, Note_on_c, 0, 62, 0
1, 45075, Note_on_c, 0, 58, 0
1, 45075, Note_on_c, 0, 68, 0
1, 45079, Note_on_c, 0, 70, 0
1, 45117, Note_on_c, 0, 58, 50
1, 45120, Note_on_c, 0, 82, 63
1, 45162, Note_on_c, 0, 65, 50
1, 45208, Note_on_c, 0, 58, 0
1, 45208, Note_on_c, 0, 68, 51
1, 45242, Note_on_c, 0, 68, 0
1, 45246, Note_on_c, 0, 65, 0
1, 45254, Note_on_c, 0, 58, 50
1, 45300, Note_on_c, 0, 63, 45
1, 45315, Note_on_c, 0, 58, 0
1, 45323, Note_on_c, 0, 63, 0
1, 45342, Note_on_c, 0, 67, 42
1, 45357, Note_on_c, 0, 67, 0
1, 45366, Note_on_c, 0, 82, 0
1, 45396, Note_on_c, 0, 77, 41
1, 45396, Note_on_c, 0, 65, 36
1, 45396, Note_on_c, 0, 58, 35
1, 45396, Note_on_c, 0, 62, 33
1, 45406, Note_on_c, 0, 62, 0
1, 45406, Note_on_c, 0, 77, 0
1, 45406, Note_on_c, 0, 65, 0
1, 45406, Note_on_c, 0, 58, 0
1, 45408, Note_on_c, 0, 79, 40
1, 45418, Note_on_c, 0, 79, 0
1, 45425, Note_on_c, 0, 77, 40
1, 45435, Note_on_c, 0, 77, 0
1, 45442, Note_on_c, 0, 79, 40
1, 45452, Note_on_c, 0, 79, 0
1, 45458, Note_on_c, 0, 77, 40
1, 45468, Note_on_c, 0, 77, 0
1, 45480, Note_on_c, 0, 79, 40
1, 45490, Note_on_c, 0, 79, 0
1, 45496, Note_on_c, 0, 77, 30
1, 45501, Note_on_c, 0, 77, 0
1, 45533, Note_on_c, 0, 57, 55
1, 45533, Note_on_c, 0, 63, 57
1, 45548, Note_on_c, 0, 63, 0
1, 45548, Note_on_c, 0, 57, 0
1, 45667, Note_on_c, 0, 78, 47
1, 45708, Note_on_c, 0, 78, 0
1, 45800, Note_on_c, 0, 77, 45
1, 45871, Note_on_c, 0, 77, 0
1, 45871, Note_on_c, 0, 75, 28
1, 45938, Note_on_c, 0, 59, 50
1, 45938, Note_on_c, 0, 63, 50
1, 45954, Note_on_c, 0, 75, 0
1, 45959, Note_on_c, 0, 63, 0
1, 45959, Note_on_c, 0, 59, 0
1, 46071, Note_on_c, 0, 75, 30
1, 46192, Note_on_c, 0, 73, 40
1, 46225, Note_on_c, 0, 75, 0
1, 46254, Note_on_c, 0, 73, 0
1, 46258, Note_on_c, 0, 71, 38
1, 46317, Note_on_c, 0, 71, 0
1, 46317, Note_on_c, 0, 58, 36
1, 46317, Note_on_c, 0, 62, 36
1, 46388, Note_on_c, 0, 69, 49
1, 46446, Note_on_c, 0, 72, 45
1, 46458, Note_on_c, 0, 69, 0
1, 46504, Note_on_c, 0, 70, 40
1, 46509, Note_on_c, 0, 72, 0
1, 46516, Note_on_c, 0, 70, 0
1, 46567, Note_on_c, 0, 75, 40
1, 46630, Note_on_c, 0, 74, 35
1, 46634, Note_on_c, 0, 75, 0
1, 46692, Note_on_c, 0, 77, 40
1, 46725, Note_on_c, 0, 77, 0
1, 46771, Note_on_c, 0, 74, 0
1, 46813, Note_on_c, 0, 81, 49
1, 46842, Note_on_c, 0, 81, 0
1, 46938, Note_on_c, 0, 82, 48
1, 47055, Note_on_c, 0, 70, 53
1, 47058, Note_on_c, 0, 82, 0
1, 47075, Note_on_c, 0, 70, 0
1, 47088, Note_on_c, 0, 62, 0
1, 47093, Note_on_c, 0, 58, 0
1, 47300, Note_on_c, 0, 68, 55
1, 47300, Note_on_c, 0, 62, 47
1, 47300, Note_on_c, 0, 53, 46
1, 47300, Note_on_c, 0, 46, 51
1, 47317, Note_on_c, 0, 53, 0
1, 47322, Note_on_c, 0, 68, 0
1, 47322, Note_on_c, 0, 62, 0
1, 47322, Note_on_c, 0, 46, 0
1, 47450, Note_on_c, 0, 53, 29
1, 47450, Note_on_c, 0, 68, 40
1, 47452, Note_on_c, 0, 62, 36
1, 47454, Note_on_c, 0, 46, 32
1, 47738, Note_on_c, 0, 62, 0
1, 47738, Note_on_c, 0, 53, 0
1, 47746, Note_on_c, 0, 68, 0
1, 47754, Note_on_c, 0, 46, 0
1, 48034, Note_on_c, 0, 39, 55
1, 48034, Note_on_c, 0, 51, 49
1, 48176, Note_on_c, 0, 82, 68
1, 48176, Note_on_c, 0, 79, 57
1, 48230, Note_on_c, 0, 82, 0
1, 48230, Note_on_c, 0, 84, 52
1, 48234, Note_on_c, 0, 79, 0
1, 48263, Note_on_c, 0, 51, 0
1, 48272, Note_on_c, 0, 39, 0
1, 48272, Note_on_c, 0, 82, 55
1, 48276, Note_on_c, 0, 84, 0
1, 48288, Note_on_c, 0, 82, 0
1, 48317, Note_on_c, 0, 77, 53
1, 48317, Note_on_c, 0, 80, 60
1, 48358, Note_on_c, 0, 80, 0
1, 48363, Note_on_c, 0, 82, 54
1, 48404, Note_on_c, 0, 80, 55
1, 48413, Note_on_c, 0, 82, 0
1, 48413, Note_on_c, 0, 77, 0
1, 48438, Note_on_c, 0, 80, 0
1, 48446, Note_on_c, 0, 79, 59
1, 48446, Note_on_c, 0, 75, 43
1, 48488, Note_on_c, 0, 79, 0
1, 48492, Note_on_c, 0, 75, 0
1, 48492, Note_on_c, 0, 80, 49
1, 48530, Note_on_c, 0, 79, 55
1, 48538, Note_on_c, 0, 80, 0
1, 48547, Note_on_c, 0, 79, 0
1, 48576, Note_on_c, 0, 77, 60
1, 48576, Note_on_c, 0, 74, 47
1, 48622, Note_on_c, 0, 79, 40
1, 48626, Note_on_c, 0, 74, 0
1, 48630, Note_on_c, 0, 77, 0
1, 48664, Note_on_c, 0, 77, 48
1, 48667, Note_on_c, 0, 79, 0
1, 48680, Note_on_c, 0, 77, 0
1, 48709, Note_on_c, 0, 75, 62
1, 48709, Note_on_c, 0, 72, 56
1, 48749, Note_on_c, 0, 75, 0
1, 48755, Note_on_c, 0, 77, 37
1, 48797, Note_on_c, 0, 77, 0
1, 48797, Note_on_c, 0, 75, 44
1, 48809, Note_on_c, 0, 72, 0
1, 48842, Note_on_c, 0, 75, 0
1, 48846, Note_on_c, 0, 74, 55
1, 48846, Note_on_c, 0, 70, 46
1, 48887, Note_on_c, 0, 74, 0
1, 48888, Note_on_c, 0, 70, 0
1, 48893, Note_on_c, 0, 75, 28
1, 48939, Note_on_c, 0, 75, 0
1, 48939, Note_on_c, 0, 74, 46
1, 48950, Note_on_c, 0, 74, 0
1, 48984, Note_on_c, 0, 68, 43
1, 48984, Note_on_c, 0, 72, 55
1, 49026, Note_on_c, 0, 68, 0
1, 49030, Note_on_c, 0, 74, 47
1, 49042, Note_on_c, 0, 72, 0
1, 49076, Note_on_c, 0, 74, 0
1, 49076, Note_on_c, 0, 72, 44
1, 49088, Note_on_c, 0, 72, 0
1, 49130, Note_on_c, 0, 67, 47
1, 49130, Note_on_c, 0, 70, 53
1, 49130, Note_on_c, 0, 63, 43
1, 49188, Note_on_c, 0, 65, 54
1, 49192, Note_on_c, 0, 63, 0
1, 49230, Note_on_c, 0, 63, 46
1, 49234, Note_on_c, 0, 65, 0
1, 49238, Note_on_c, 0, 67, 0
1, 49276, Note_on_c, 0, 63, 0
1, 49276, Note_on_c, 0, 65, 57
1, 49276, Note_on_c, 0, 62, 52
1, 49322, Note_on_c, 0, 63, 57
1, 49326, Note_on_c, 0, 62, 0
1, 49351, Note_on_c, 0, 65, 0
1, 49364, Note_on_c, 0, 63, 0
1, 49364, Note_on_c, 0, 62, 54
1, 49405, Note_on_c, 0, 63, 48
1, 49405, Note_on_c, 0, 60, 63
1, 49409, Note_on_c, 0, 62, 0
1, 49446, Note_on_c, 0, 60, 0
1, 49447, Note_on_c, 0, 62, 53
1, 49468, Note_on_c, 0, 63, 0
1, 49489, Note_on_c, 0, 60, 53
1, 49492, Note_on_c, 0, 62, 0
1, 49501, Note_on_c, 0, 60, 0
1, 49530, Note_on_c, 0, 62, 55
1, 49530, Note_on_c, 0, 58, 68
1, 49576, Note_on_c, 0, 58, 0
1, 49576, Note_on_c, 0, 60, 55
1, 49613, Note_on_c, 0, 58, 60
1, 49626, Note_on_c, 0, 60, 0
1, 49660, Note_on_c, 0, 56, 56
1, 49668, Note_on_c, 0, 58, 0
1, 49702, Note_on_c, 0, 58, 56
1, 49705, Note_on_c, 0, 56, 0
1, 49714, Note_on_c, 0, 62, 0
1, 49742, Note_on_c, 0, 56, 56
1, 49759, Note_on_c, 0, 58, 0
1, 49793, Note_on_c, 0, 56, 0
1, 49794, Note_on_c, 0, 55, 59
1, 49794, Note_on_c, 0, 63, 48
1, 49794, Note_on_c, 0, 72, 63
1, 49801, Note_on_c, 0, 70, 0
1, 49834, Note_on_c, 0, 56, 51
1, 49844, Note_on_c, 0, 55, 0
1, 49876, Note_on_c, 0, 55, 56
1, 49884, Note_on_c, 0, 56, 0
1, 49901, Note_on_c, 0, 55, 0
1, 49902, Note_on_c, 0, 63, 0
1, 49918, Note_on_c, 0, 72, 0
1, 49926, Note_on_c, 0, 53, 50
1, 49926, Note_on_c, 0, 65, 52
1, 49926, Note_on_c, 0, 74, 63
1, 49976, Note_on_c, 0, 55, 47
1, 49992, Note_on_c, 0, 53, 0
1, 50014, Note_on_c, 0, 65, 0
1, 50018, Note_on_c, 0, 53, 45
1, 50026, Note_on_c, 0, 74, 0
1, 50026, Note_on_c, 0, 55, 0
1, 50038, Note_on_c, 0, 53, 0
1, 50072, Note_on_c, 0, 75, 42
1, 50072, Note_on_c, 0, 67, 33
1, 50072, Note_on_c, 0, 51, 51
1, 50114, Note_on_c, 0, 79, 53
1, 50125, Note_on_c, 0, 75, 0
1, 50155, Note_on_c, 0, 77, 49
1, 50171, Note_on_c, 0, 67, 0
1, 50176, Note_on_c, 0, 79, 0
1, 50197, Note_on_c, 0, 51, 0
1, 50197, Note_on_c, 0, 60, 52
1, 50197, Note_on_c, 0, 75, 51
1, 50210, Note_on_c, 0, 77, 0
1, 50243, Note_on_c, 0, 74, 49
1, 50247, Note_on_c, 0, 75, 0
1, 50285, Note_on_c, 0, 75, 39
1, 50288, Note_on_c, 0, 74, 0
1, 50297, Note_on_c, 0, 75, 0
1, 50314, Note_on_c, 0, 60, 0
1, 50326, Note_on_c, 0, 56, 40
1, 50326, Note_on_c, 0, 68, 49
1, 50326, Note_on_c, 0, 72, 56
1, 50368, Note_on_c, 0, 74, 56
1, 50372, Note_on_c, 0, 72, 0
1, 50410, Note_on_c, 0, 72, 49
1, 50414, Note_on_c, 0, 68, 0
1, 50422, Note_on_c, 0, 74, 0
1, 50455, Note_on_c, 0, 58, 46
1, 50455, Note_on_c, 0, 67, 49
1, 50455, Note_on_c, 0, 70, 60
1, 50464, Note_on_c, 0, 72, 0
1, 50468, Note_on_c, 0, 56, 0
1, 50497, Note_on_c, 0, 60, 50
1, 50501, Note_on_c, 0, 58, 0
1, 50534, Note_on_c, 0, 60, 0
1, 50539, Note_on_c, 0, 58, 47
1, 50576, Note_on_c, 0, 58, 0
1, 50576, Note_on_c, 0, 60, 55
1, 50618, Note_on_c, 0, 62, 50
1, 50626, Note_on_c, 0, 60, 0
1, 50651, Note_on_c, 0, 62, 0
1, 50651, Note_on_c, 0, 70, 0
1, 50656, Note_on_c, 0, 60, 46
1, 50664, Note_on_c, 0, 67, 0
1, 50701, Note_on_c, 0, 70, 56
1, 50701, Note_on_c, 0, 62, 63
1, 50706, Note_on_c, 0, 60, 0
1, 50718, Note_on_c, 0, 68, 54
1, 50722, Note_on_c, 0, 70, 0
1, 50730, Note_on_c, 0, 68, 0
1, 50735, Note_on_c, 0, 70, 56
1, 50751, Note_on_c, 0, 70, 0
1, 50751, Note_on_c, 0, 68, 45
1, 50768, Note_on_c, 0, 68, 0
1, 50768, Note_on_c, 0, 70, 53
1, 50784, Note_on_c, 0, 70, 0
1, 50784, Note_on_c, 0, 68, 42
1, 50797, Note_on_c, 0, 68, 0
1, 50801, Note_on_c, 0, 70, 45
1, 50814, Note_on_c, 0, 68, 46
1, 50818, Note_on_c, 0, 70, 0
1, 50831, Note_on_c, 0, 67, 52
1, 50831, Note_on_c, 0, 63, 47
1, 50834, Note_on_c, 0, 62, 0
1, 50843, Note_on_c, 0, 68, 0
1, 50968, Note_on_c, 0, 51, 39
1, 50968, Note_on_c, 0, 74, 52
1, 51010, Note_on_c, 0, 67, 0
1, 51089, Note_on_c, 0, 74, 0
1, 51089, Note_on_c, 0, 75, 70
1, 51092, Note_on_c, 0, 51, 0
1, 51114, Note_on_c, 0, 75, 0
1, 51168, Note_on_c, 0, 63, 0
1, 51189, Note_on_c, 0, 55, 54
1, 51201, Note_on_c, 0, 58, 49
1, 51218, Note_on_c, 0, 63, 45
1, 51339, Note_on_c, 0, 82, 60
1, 51456, Note_on_c, 0, 58, 0
1, 51460, Note_on_c, 0, 55, 0
1, 51468, Note_on_c, 0, 79, 51
1, 51472, Note_on_c, 0, 63, 0
1, 51480, Note_on_c, 0, 82, 0
1, 51568, Note_on_c, 0, 56, 31
1, 51577, Note_on_c, 0, 60, 55
1, 51601, Note_on_c, 0, 65, 60
1, 51660, Note_on_c, 0, 79, 0
1, 51664, Note_on_c, 0, 77, 43
1, 51726, Note_on_c, 0, 79, 62
1, 51743, Note_on_c, 0, 77, 0
1, 51794, Note_on_c, 0, 80, 62
1, 51797, Note_on_c, 0, 60, 0
1, 51802, Note_on_c, 0, 79, 0
1, 51802, Note_on_c, 0, 65, 0
1, 51802, Note_on_c, 0, 56, 0
1, 51860, Note_on_c, 0, 82, 55
1, 51864, Note_on_c, 0, 80, 0
1, 51926, Note_on_c, 0, 82, 0
1, 51926, Note_on_c, 0, 84, 55
1, 51952, Note_on_c, 0, 58, 52
1, 51968, Note_on_c, 0, 62, 66
1, 51990, Note_on_c, 0, 65, 60
1, 52002, Note_on_c, 0, 68, 67
1, 52131, Note_on_c, 0, 82, 59
1, 52143, Note_on_c, 0, 84, 0
1, 52190, Note_on_c, 0, 80, 39
1, 52202, Note_on_c, 0, 82, 0
1, 52256, Note_on_c, 0, 80, 0
1, 52256, Note_on_c, 0, 79, 41
1, 52306, Note_on_c, 0, 68, 0
1, 52314, Note_on_c, 0, 62, 0
1, 52318, Note_on_c, 0, 65, 0
1, 52322, Note_on_c, 0, 79, 0
1, 52322, Note_on_c, 0, 77, 41
1, 52335, Note_on_c, 0, 58, 0
1, 52389, Note_on_c, 0, 77, 0
1, 52389, Note_on_c, 0, 74, 40
1, 52410, Note_on_c, 0, 74, 0
1, 52452, Note_on_c, 0, 63, 51
1, 52452, Note_on_c, 0, 75, 46
1, 52452, Note_on_c, 0, 51, 48
1, 52494, Note_on_c, 0, 70, 57
1, 52527, Note_on_c, 0, 70, 0
1, 52531, Note_on_c, 0, 67, 55
1, 52564, Note_on_c, 0, 67, 0
1, 52564, Note_on_c, 0, 63, 0
1, 52577, Note_on_c, 0, 70, 40
1, 52589, Note_on_c, 0, 75, 0
1, 52593, Note_on_c, 0, 51, 0
1, 52610, Note_on_c, 0, 70, 0
1, 52610, Note_on_c, 0, 67, 60
1, 52640, Note_on_c, 0, 67, 0
1, 52656, Note_on_c, 0, 63, 63
1, 52694, Note_on_c, 0, 63, 0
1, 52694, Note_on_c, 0, 62, 46
1, 52694, Note_on_c, 0, 58, 41
1, 52698, Note_on_c, 0, 46, 54
1, 52731, Note_on_c, 0, 58, 0
1, 52735, Note_on_c, 0, 65, 45
1, 52744, Note_on_c, 0, 46, 0
1, 52744, Note_on_c, 0, 62, 0
1, 52773, Note_on_c, 0, 68, 47
1, 52776, Note_on_c, 0, 65, 0
1, 52810, Note_on_c, 0, 68, 0
1, 52818, Note_on_c, 0, 39, 47
1, 52818, Note_on_c, 0, 51, 46
1, 52818, Note_on_c, 0, 67, 54
1, 52859, Note_on_c, 0, 39, 0
1, 52860, Note_on_c, 0, 70, 56
1, 52864, Note_on_c, 0, 67, 0
1, 52873, Note_on_c, 0, 51, 0
1, 52893, Note_on_c, 0, 70, 0
1, 52893, Note_on_c, 0, 67, 54
1, 52936, Note_on_c, 0, 43, 51
1, 52936, Note_on_c, 0, 75, 42
1, 52936, Note_on_c, 0, 55, 46
1, 52968, Note_on_c, 0, 67, 0
1, 52969, Note_on_c, 0, 43, 0
1, 52981, Note_on_c, 0, 55, 0
1, 52981, Note_on_c, 0, 70, 37
1, 52982, Note_on_c, 0, 75, 0
1, 53018, Note_on_c, 0, 70, 0
1, 53018, Note_on_c, 0, 67, 47
1, 53060, Note_on_c, 0, 67, 0
1, 53062, Note_on_c, 0, 46, 43
1, 53062, Note_on_c, 0, 58, 40
1, 53062, Note_on_c, 0, 68, 45
1, 53087, Note_on_c, 0, 58, 0
1, 53095, Note_on_c, 0, 46, 0
1, 53102, Note_on_c, 0, 68, 0
1, 53106, Note_on_c, 0, 65, 45
1, 53140, Note_on_c, 0, 65, 0
1, 53148, Note_on_c, 0, 62, 33
1, 53194, Note_on_c, 0, 62, 0
1, 53202, Note_on_c, 0, 39, 45
1, 53202, Note_on_c, 0, 51, 40
1, 53202, Note_on_c, 0, 63, 41
1, 53276, Note_on_c, 0, 63, 0
1, 53277, Note_on_c, 0, 39, 0
1, 53289, Note_on_c, 0, 51, 0
1, 53477, Note_on_c, 0, 49, 35
1, 53477, Note_on_c, 0, 55, 35
1, 53477, Note_on_c, 0, 58, 35
1, 53477, Note_on_c, 0, 63, 35
1, 53492, Note_on_c, 0, 63, 0
1, 53492, Note_on_c, 0, 49, 0
1, 53492, Note_on_c, 0, 55, 0
1, 53492, Note_on_c, 0, 58, 0
1, 53632, Note_on_c, 0, 55, 25
1, 53632, Note_on_c, 0, 63, 39
1, 53632, Note_on_c, 0, 58, 29
1, 53633, Note_on_c, 0, 49, 38
1, 53798, Note_on_c, 0, 58, 0
1, 53823, Note_on_c, 0, 63, 0
1, 53952, Note_on_c, 0, 49, 0
1, 53956, Note_on_c, 0, 55, 0
1, 54348, Note_on_c, 0, 75, 40
1, 54348, Note_on_c, 0, 60, 35
1, 54415, Note_on_c, 0, 63, 31
1, 54486, Note_on_c, 0, 68, 28
1, 54498, Note_on_c, 0, 63, 0
1, 54510, Note_on_c, 0, 75, 0
1, 54519, Note_on_c, 0, 77, 47
1, 54548, Note_on_c, 0, 63, 38
1, 54552, Note_on_c, 0, 68, 0
1, 54552, Note_on_c, 0, 75, 52
1, 54560, Note_on_c, 0, 77, 0
1, 54582, Note_on_c, 0, 73, 54
1, 54602, Note_on_c, 0, 75, 0
1, 54611, Note_on_c, 0, 63, 0
1, 54615, Note_on_c, 0, 68, 31
1, 54616, Note_on_c, 0, 72, 56
1, 54619, Note_on_c, 0, 73, 0
1, 54677, Note_on_c, 0, 63, 38
1, 54682, Note_on_c, 0, 60, 0
1, 54736, Note_on_c, 0, 63, 0
1, 54740, Note_on_c, 0, 60, 48
1, 54744, Note_on_c, 0, 68, 0
1, 54802, Note_on_c, 0, 63, 41
1, 54844, Note_on_c, 0, 72, 0
1, 54860, Note_on_c, 0, 63, 0
1, 54865, Note_on_c, 0, 79, 49
1, 54865, Note_on_c, 0, 68, 35
1, 54928, Note_on_c, 0, 80, 37
1, 54928, Note_on_c, 0, 63, 40
1, 54931, Note_on_c, 0, 60, 0
1, 54936, Note_on_c, 0, 79, 0
1, 54974, Note_on_c, 0, 68, 0
1, 54981, Note_on_c, 0, 63, 0
1, 54986, Note_on_c, 0, 60, 47
1, 54990, Note_on_c, 0, 79, 45
1, 54994, Note_on_c, 0, 80, 0
1, 55044, Note_on_c, 0, 63, 41
1, 55044, Note_on_c, 0, 80, 41
1, 55048, Note_on_c, 0, 60, 0
1, 55052, Note_on_c, 0, 79, 0
1, 55102, Note_on_c, 0, 63, 0
1, 55106, Note_on_c, 0, 79, 53
1, 55106, Note_on_c, 0, 58, 36
1, 55110, Note_on_c, 0, 80, 0
1, 55173, Note_on_c, 0, 61, 34
1, 55236, Note_on_c, 0, 63, 28
1, 55240, Note_on_c, 0, 61, 0
1, 55273, Note_on_c, 0, 80, 45
1, 55293, Note_on_c, 0, 79, 0
1, 55298, Note_on_c, 0, 82, 53
1, 55306, Note_on_c, 0, 80, 0
1, 55307, Note_on_c, 0, 61, 42
1, 55310, Note_on_c, 0, 63, 0
1, 55336, Note_on_c, 0, 80, 44
1, 55344, Note_on_c, 0, 82, 0
1, 55369, Note_on_c, 0, 61, 0
1, 55370, Note_on_c, 0, 63, 36
1, 55370, Note_on_c, 0, 79, 55
1, 55378, Note_on_c, 0, 80, 0
1, 55424, Note_on_c, 0, 58, 0
1, 55427, Note_on_c, 0, 61, 38
1, 55448, Note_on_c, 0, 61, 0
1, 55486, Note_on_c, 0, 55, 40
1, 55499, Note_on_c, 0, 63, 0
1, 55552, Note_on_c, 0, 58, 31
1, 55623, Note_on_c, 0, 63, 31
1, 55623, Note_on_c, 0, 84, 44
1, 55628, Note_on_c, 0, 58, 0
1, 55640, Note_on_c, 0, 79, 0
1, 55686, Note_on_c, 0, 55, 0
1, 55686, Note_on_c, 0, 58, 40
1, 55686, Note_on_c, 0, 85, 40
1, 55694, Note_on_c, 0, 84, 0
1, 55702, Note_on_c, 0, 63, 0
1, 55711, Note_on_c, 0, 58, 0
1, 55744, Note_on_c, 0, 55, 44
1, 55744, Note_on_c, 0, 84, 51
1, 55752, Note_on_c, 0, 85, 0
1, 55807, Note_on_c, 0, 85, 44
1, 55807, Note_on_c, 0, 58, 44
1, 55811, Note_on_c, 0, 55, 0
1, 55815, Note_on_c, 0, 84, 0
1, 55865, Note_on_c, 0, 58, 0
1, 55865, Note_on_c, 0, 56, 45
1, 55865, Note_on_c, 0, 84, 53
1, 55869, Note_on_c, 0, 85, 0
1, 55932, Note_on_c, 0, 60, 40
1, 55994, Note_on_c, 0, 60, 0
1, 55994, Note_on_c, 0, 63, 35
1, 56028, Note_on_c, 0, 85, 42
1, 56048, Note_on_c, 0, 84, 0
1, 56056, Note_on_c, 0, 60, 39
1, 56056, Note_on_c, 0, 87, 46
1, 56061, Note_on_c, 0, 85, 0
1, 56061, Note_on_c, 0, 63, 0
1, 56090, Note_on_c, 0, 85, 52
1, 56098, Note_on_c, 0, 87, 0
1, 56114, Note_on_c, 0, 60, 0
1, 56119, Note_on_c, 0, 84, 60
1, 56119, Note_on_c, 0, 64, 42
1, 56123, Note_on_c, 0, 85, 0
1, 56174, Note_on_c, 0, 64, 0
1, 56182, Note_on_c, 0, 60, 39
1, 56231, Note_on_c, 0, 56, 0
1, 56244, Note_on_c, 0, 60, 0
1, 56245, Note_on_c, 0, 65, 37
1, 56303, Note_on_c, 0, 65, 0
1, 56307, Note_on_c, 0, 60, 42
1, 56365, Note_on_c, 0, 56, 39
1, 56366, Note_on_c, 0, 76, 45
1, 56368, Note_on_c, 0, 84, 0
1, 56369, Note_on_c, 0, 60, 0
1, 56420, Note_on_c, 0, 60, 45
1, 56423, Note_on_c, 0, 56, 0
1, 56424, Note_on_c, 0, 77, 52
1, 56428, Note_on_c, 0, 76, 0
1, 56482, Note_on_c, 0, 53, 55
1, 56482, Note_on_c, 0, 76, 50
1, 56486, Note_on_c, 0, 77, 0
1, 56486, Note_on_c, 0, 60, 0
1, 56545, Note_on_c, 0, 56, 46
1, 56545, Note_on_c, 0, 77, 51
1, 56549, Note_on_c, 0, 76, 0
1, 56552, Note_on_c, 0, 53, 0
1, 56570, Note_on_c, 0, 77, 0
1, 56575, Note_on_c, 0, 56, 0
1, 56603, Note_on_c, 0, 55, 46
1, 56603, Note_on_c, 0, 77, 57
1, 56669, Note_on_c, 0, 76, 45
1, 56669, Note_on_c, 0, 58, 40
1, 56682, Note_on_c, 0, 77, 0
1, 56732, Note_on_c, 0, 58, 0
1, 56732, Note_on_c, 0, 60, 45
1, 56732, Note_on_c, 0, 79, 46
1, 56735, Note_on_c, 0, 76, 0
1, 56787, Note_on_c, 0, 55, 0
1, 56795, Note_on_c, 0, 58, 35
1, 56795, Note_on_c, 0, 76, 42
1, 56799, Note_on_c, 0, 60, 0
1, 56799, Note_on_c, 0, 79, 0
1, 56811, Note_on_c, 0, 58, 0
1, 56849, Note_on_c, 0, 72, 42
1, 56849, Note_on_c, 0, 52, 45
1, 56852, Note_on_c, 0, 76, 0
1, 56911, Note_on_c, 0, 52, 0
1, 56911, Note_on_c, 0, 55, 38
1, 56911, Note_on_c, 0, 70, 45
1, 56916, Note_on_c, 0, 72, 0
1, 56932, Note_on_c, 0, 55, 0
1, 56974, Note_on_c, 0, 53, 40
1, 56974, Note_on_c, 0, 68, 55
1, 56982, Note_on_c, 0, 70, 0
1, 57036, Note_on_c, 0, 56, 41
1, 57098, Note_on_c, 0, 62, 46
1, 57103, Note_on_c, 0, 56, 0
1, 57166, Note_on_c, 0, 56, 38
1, 57169, Note_on_c, 0, 53, 0
1, 57186, Note_on_c, 0, 56, 0
1, 57207, Note_on_c, 0, 62, 0
1, 57224, Note_on_c, 0, 68, 0
1, 57240, Note_on_c, 0, 55, 44
1, 57240, Note_on_c, 0, 75, 46
1, 57315, Note_on_c, 0, 58, 35
1, 57327, Note_on_c, 0, 55, 0
1, 57361, Note_on_c, 0, 75, 0
1, 57386, Note_on_c, 0, 58, 0
1, 57407, Note_on_c, 0, 53, 46
1, 57407, Note_on_c, 0, 75, 41
1, 57494, Note_on_c, 0, 74, 45
1, 57494, Note_on_c, 0, 56, 33
1, 57511, Note_on_c, 0, 75, 0
1, 57557, Note_on_c, 0, 58, 42
1, 57557, Note_on_c, 0, 77, 52
1, 57561, Note_on_c, 0, 74, 0
1, 57570, Note_on_c, 0, 56, 0
1, 57620, Note_on_c, 0, 56, 42
1, 57620, Note_on_c, 0, 74, 43
1, 57624, Note_on_c, 0, 58, 0
1, 57624, Note_on_c, 0, 77, 0
1, 57628, Note_on_c, 0, 53, 0
1, 57636, Note_on_c, 0, 56, 0
1, 57682, Note_on_c, 0, 74, 0
1, 57682, Note_on_c, 0, 50, 45
1, 57682, Note_on_c, 0, 70, 46
1, 57741, Note_on_c, 0, 68, 54
1, 57741, Note_on_c, 0, 53, 48
1, 57749, Note_on_c, 0, 70, 0
1, 57749, Note_on_c, 0, 50, 0
1, 57753, Note_on_c, 0, 53, 0
1, 57802, Note_on_c, 0, 68, 0
1, 57803, Note_on_c, 0, 51, 47
1, 57803, Note_on_c, 0, 67, 54
1, 57870, Note_on_c, 0, 55, 46
1, 57891, Note_on_c, 0, 55, 0
1, 57928, Note_on_c, 0, 58, 55
1, 57991, Note_on_c, 0, 63, 57
1, 57995, Note_on_c, 0, 58, 0
1, 58057, Note_on_c, 0, 58, 44
1, 58058, Note_on_c, 0, 79, 42
1, 58074, Note_on_c, 0, 67, 0
1, 58116, Note_on_c, 0, 58, 0
1, 58124, Note_on_c, 0, 63, 0
1, 58128, Note_on_c, 0, 55, 45
1, 58141, Note_on_c, 0, 55, 0
1, 58141, Note_on_c, 0, 51, 0
1, 58228, Note_on_c, 0, 79, 0
1, 58228, Note_on_c, 0, 76, 40
1, 58228, Note_on_c, 0, 56, 42
1, 58303, Note_on_c, 0, 77, 50
1, 58303, Note_on_c, 0, 60, 37
1, 58315, Note_on_c, 0, 76, 0
1, 58370, Note_on_c, 0, 60, 0
1, 58370, Note_on_c, 0, 65, 49
1, 58433, Note_on_c, 0, 60, 44
1, 58441, Note_on_c, 0, 56, 0
1, 58449, Note_on_c, 0, 65, 0
1, 58495, Note_on_c, 0, 60, 0
1, 58508, Note_on_c, 0, 79, 45
1, 58512, Note_on_c, 0, 56, 41
1, 58524, Note_on_c, 0, 77, 0
1, 58583, Note_on_c, 0, 60, 38
1, 58583, Note_on_c, 0, 80, 45
1, 58595, Note_on_c, 0, 79, 0
1, 58649, Note_on_c, 0, 60, 0
1, 58649, Note_on_c, 0, 65, 36
1, 58716, Note_on_c, 0, 56, 0
1, 58716, Note_on_c, 0, 60, 52
1, 58728, Note_on_c, 0, 65, 0
1, 58791, Note_on_c, 0, 60, 0
1, 58799, Note_on_c, 0, 80, 0
1, 58800, Note_on_c, 0, 83, 53
1, 58800, Note_on_c, 0, 56, 46
1, 58878, Note_on_c, 0, 60, 36
1, 58878, Note_on_c, 0, 84, 65
1, 58891, Note_on_c, 0, 83, 0
1, 58978, Note_on_c, 0, 65, 48
1, 59091, Note_on_c, 0, 84, 0
1, 59124, Note_on_c, 0, 60, 0
1, 59132, Note_on_c, 0, 82, 31
1, 59140, Note_on_c, 0, 56, 0
1, 59149, Note_on_c, 0, 65, 0
1, 59158, Note_on_c, 0, 80, 37
1, 59166, Note_on_c, 0, 82, 0
1, 59191, Note_on_c, 0, 79, 40
1, 59200, Note_on_c, 0, 80, 0
1, 59228, Note_on_c, 0, 79, 0
1, 59229, Note_on_c, 0, 77, 28
1, 59274, Note_on_c, 0, 75, 39
1, 59274, Note_on_c, 0, 67, 23
1, 59274, Note_on_c, 0, 58, 31
1, 59279, Note_on_c, 0, 77, 0
1, 59454, Note_on_c, 0, 67, 0
1, 59570, Note_on_c, 0, 74, 36
1, 59570, Note_on_c, 0, 65, 29
1, 59578, Note_on_c, 0, 75, 0
1, 59624, Note_on_c, 0, 65, 0
1, 59641, Note_on_c, 0, 58, 0
1, 59695, Note_on_c, 0, 56, 65
1, 59696, Note_on_c, 0, 44, 56
1, 59774, Note_on_c, 0, 56, 0
1, 59778, Note_on_c, 0, 44, 0
1, 59828, Note_on_c, 0, 55, 54
1, 59828, Note_on_c, 0, 43, 57
1, 59919, Note_on_c, 0, 55, 0
1, 59924, Note_on_c, 0, 43, 0
1, 59962, Note_on_c, 0, 53, 48
1, 59962, Note_on_c, 0, 41, 60
1, 59987, Note_on_c, 0, 53, 0
1, 59991, Note_on_c, 0, 41, 0
1, 60036, Note_on_c, 0, 74, 0
1, 60104, Note_on_c, 0, 39, 57
1, 60104, Note_on_c, 0, 51, 63
1, 60141, Note_on_c, 0, 39, 0
1, 60146, Note_on_c, 0, 51, 0
1, 60250, Note_on_c, 0, 67, 40
1, 60250, Note_on_c, 0, 82, 40
1, 60275, Note_on_c, 0, 82, 0
1, 60275, Note_on_c, 0, 67, 0
1, 60287, Note_on_c, 0, 63, 40
1, 60287, Note_on_c, 0, 79, 40
1, 60312, Note_on_c, 0, 79, 0
1, 60312, Note_on_c, 0, 63, 0
1, 60329, Note_on_c, 0, 65, 40
1, 60329, Note_on_c, 0, 80, 40
1, 60354, Note_on_c, 0, 80, 0
1, 60354, Note_on_c, 0, 65, 0
1, 60375, Note_on_c, 0, 67, 40
1, 60375, Note_on_c, 0, 82, 50
1, 60400, Note_on_c, 0, 67, 0
1, 60405, Note_on_c, 0, 82, 0
1, 60412, Note_on_c, 0, 63, 40
1, 60412, Note_on_c, 0, 79, 40
1, 60437, Note_on_c, 0, 79, 0
1, 60437, Note_on_c, 0, 63, 0
1, 60454, Note_on_c, 0, 65, 40
1, 60454, Note_on_c, 0, 80, 40
1, 60479, Note_on_c, 0, 80, 0
1, 60479, Note_on_c, 0, 65, 0
1, 60500, Note_on_c, 0, 67, 40
1, 60500, Note_on_c, 0, 82, 40
1, 60525, Note_on_c, 0, 82, 0
1, 60525, Note_on_c, 0, 67, 0
1, 60650, Note_on_c, 0, 84, 39
1, 60650, Note_on_c, 0, 68, 18
1, 60800, Note_on_c, 0, 80, 32
1, 60800, Note_on_c, 0, 65, 29
1, 60812, Note_on_c, 0, 68, 0
1, 60812, Note_on_c, 0, 84, 0
1, 60825, Note_on_c, 0, 65, 0
1, 60830, Note_on_c, 0, 80, 0
1, 60946, Note_on_c, 0, 34, 68
1, 60946, Note_on_c, 0, 46, 66
1, 60962, Note_on_c, 0, 46, 0
1, 60966, Note_on_c, 0, 34, 0
1, 61100, Note_on_c, 0, 65, 44
1, 61100, Note_on_c, 0, 80, 42
1, 61135, Note_on_c, 0, 80, 0
1, 61135, Note_on_c, 0, 65, 0
1, 61137, Note_on_c, 0, 62, 45
1, 61137, Note_on_c, 0, 77, 38
1, 61172, Note_on_c, 0, 77, 0
1, 61172, Note_on_c, 0, 62, 0
1, 61179, Note_on_c, 0, 63, 35
1, 61179, Note_on_c, 0, 79, 38
1, 61214, Note_on_c, 0, 79, 0
1, 61214, Note_on_c, 0, 63, 0
1, 61220, Note_on_c, 0, 80, 44
1, 61220, Note_on_c, 0, 65, 48
1, 61254, Note_on_c, 0, 62, 46
1, 61254, Note_on_c, 0, 77, 44
1, 61255, Note_on_c, 0, 65, 0
1, 61255, Note_on_c, 0, 80, 0
1, 61289, Note_on_c, 0, 62, 0
1, 61289, Note_on_c, 0, 77, 0
1, 61291, Note_on_c, 0, 63, 51
1, 61291, Note_on_c, 0, 79, 54
1, 61326, Note_on_c, 0, 79, 0
1, 61326, Note_on_c, 0, 63, 0
1, 61346, Note_on_c, 0, 65, 52
1, 61346, Note_on_c, 0, 80, 51
1, 61384, Note_on_c, 0, 80, 0
1, 61384, Note_on_c, 0, 65, 0
1, 61491, Note_on_c, 0, 82, 43
1, 61492, Note_on_c, 0, 67, 23
1, 61658, Note_on_c, 0, 63, 24
1, 61658, Note_on_c, 0, 79, 31
1, 61662, Note_on_c, 0, 82, 0
1, 61675, Note_on_c, 0, 67, 0
1, 61692, Note_on_c, 0, 63, 0
1, 61750, Note_on_c, 0, 79, 0
1, 61846, Note_on_c, 0, 75, 40
1, 61846, Note_on_c, 0, 55, 37
1, 61908, Note_on_c, 0, 58, 36
1, 61967, Note_on_c, 0, 63, 31
1, 61970, Note_on_c, 0, 58, 0
1, 61979, Note_on_c, 0, 55, 0
1, 62016, Note_on_c, 0, 55, 46
1, 62016, Note_on_c, 0, 87, 48
1, 62021, Note_on_c, 0, 63, 0
1, 62069, Note_on_c, 0, 75, 0
1, 62075, Note_on_c, 0, 58, 36
1, 62103, Note_on_c, 0, 55, 0
1, 62117, Note_on_c, 0, 63, 36
1, 62129, Note_on_c, 0, 58, 0
1, 62133, Note_on_c, 0, 87, 0
1, 62167, Note_on_c, 0, 63, 0
1, 62171, Note_on_c, 0, 55, 41
1, 62171, Note_on_c, 0, 87, 72
1, 62225, Note_on_c, 0, 58, 40
1, 62250, Note_on_c, 0, 55, 0
1, 62279, Note_on_c, 0, 58, 0
1, 62279, Note_on_c, 0, 63, 35
1, 62338, Note_on_c, 0, 63, 0
1, 62338, Note_on_c, 0, 86, 62
1, 62338, Note_on_c, 0, 56, 40
1, 62342, Note_on_c, 0, 87, 0
1, 62396, Note_on_c, 0, 60, 40
1, 62425, Note_on_c, 0, 84, 66
1, 62438, Note_on_c, 0, 86, 0
1, 62450, Note_on_c, 0, 56, 0
1, 62458, Note_on_c, 0, 63, 39
1, 62471, Note_on_c, 0, 60, 0
1, 62508, Note_on_c, 0, 63, 0
1, 62508, Note_on_c, 0, 56, 42
1, 62508, Note_on_c, 0, 82, 68
1, 62521, Note_on_c, 0, 84, 0
1, 62558, Note_on_c, 0, 60, 43
1, 62592, Note_on_c, 0, 80, 70
1, 62596, Note_on_c, 0, 56, 0
1, 62604, Note_on_c, 0, 82, 0
1, 62629, Note_on_c, 0, 63, 37
1, 62667, Note_on_c, 0, 60, 0
1, 62679, Note_on_c, 0, 63, 0
1, 62688, Note_on_c, 0, 56, 43
1, 62688, Note_on_c, 0, 79, 54
1, 62692, Note_on_c, 0, 80, 0
1, 62738, Note_on_c, 0, 60, 46
1, 62783, Note_on_c, 0, 60, 0
1, 62784, Note_on_c, 0, 65, 45
1, 62784, Note_on_c, 0, 77, 57
1, 62787, Note_on_c, 0, 56, 0
1, 62796, Note_on_c, 0, 79, 0
1, 62804, Note_on_c, 0, 77, 0
1, 62825, Note_on_c, 0, 65, 0
1, 62842, Note_on_c, 0, 58, 56
1, 62842, Note_on_c, 0, 77, 68
1, 62896, Note_on_c, 0, 63, 47
1, 62946, Note_on_c, 0, 58, 0
1, 62950, Note_on_c, 0, 67, 40
1, 62962, Note_on_c, 0, 63, 0
1, 62971, Note_on_c, 0, 77, 0
1, 62971, Note_on_c, 0, 75, 46
1, 62992, Note_on_c, 0, 75, 0
1, 62992, Note_on_c, 0, 77, 53
1, 63005, Note_on_c, 0, 67, 0
1, 63005, Note_on_c, 0, 58, 40
1, 63013, Note_on_c, 0, 77, 0
1, 63013, Note_on_c, 0, 75, 54
1, 63030, Note_on_c, 0, 75, 0
1, 63034, Note_on_c, 0, 77, 46
1, 63050, Note_on_c, 0, 77, 0
1, 63050, Note_on_c, 0, 63, 42
1, 63054, Note_on_c, 0, 75, 40
1, 63071, Note_on_c, 0, 75, 0
1, 63075, Note_on_c, 0, 77, 45
1, 63076, Note_on_c, 0, 67, 45
1, 63084, Note_on_c, 0, 58, 0
1, 63092, Note_on_c, 0, 75, 53
1, 63104, Note_on_c, 0, 77, 0
1, 63117, Note_on_c, 0, 75, 0
1, 63117, Note_on_c, 0, 74, 62
1, 63138, Note_on_c, 0, 75, 42
1, 63154, Note_on_c, 0, 63, 0
1, 63166, Note_on_c, 0, 67, 0
1, 63171, Note_on_c, 0, 58, 46
1, 63171, Note_on_c, 0, 77, 57
1, 63175, Note_on_c, 0, 75, 0
1, 63183, Note_on_c, 0, 74, 0
1, 63221, Note_on_c, 0, 65, 26
1, 63267, Note_on_c, 0, 74, 55
1, 63267, Note_on_c, 0, 68, 45
1, 63275, Note_on_c, 0, 58, 0
1, 63275, Note_on_c, 0, 77, 0
1, 63304, Note_on_c, 0, 68, 0
1, 63317, Note_on_c, 0, 65, 0
1, 63325, Note_on_c, 0, 74, 0
1, 63326, Note_on_c, 0, 75, 70
1, 63326, Note_on_c, 0, 60, 46
1, 63380, Note_on_c, 0, 63, 47
1, 63425, Note_on_c, 0, 60, 0
1, 63430, Note_on_c, 0, 67, 48
1, 63458, Note_on_c, 0, 63, 0
1, 63484, Note_on_c, 0, 58, 50
1, 63501, Note_on_c, 0, 67, 0
1, 63538, Note_on_c, 0, 63, 42
1, 63592, Note_on_c, 0, 58, 0
1, 63592, Note_on_c, 0, 67, 43
1, 63604, Note_on_c, 0, 63, 0
1, 63650, Note_on_c, 0, 56, 39
1, 63663, Note_on_c, 0, 67, 0
1, 63709, Note_on_c, 0, 60, 39
1, 63759, Note_on_c, 0, 56, 0
1, 63763, Note_on_c, 0, 65, 33
1, 63804, Note_on_c, 0, 60, 0
1, 63817, Note_on_c, 0, 65, 0
1, 63821, Note_on_c, 0, 70, 40
1, 63821, Note_on_c, 0, 55, 40
1, 63826, Note_on_c, 0, 75, 0
1, 63876, Note_on_c, 0, 58, 45
1, 63930, Note_on_c, 0, 55, 0
1, 63930, Note_on_c, 0, 63, 48
1, 63955, Note_on_c, 0, 58, 0
1, 63967, Note_on_c, 0, 70, 0
1, 63984, Note_on_c, 0, 55, 51
1, 63988, Note_on_c, 0, 63, 0
1, 63988, Note_on_c, 0, 79, 57
1, 64043, Note_on_c, 0, 58, 40
1, 64043, Note_on_c, 0, 74, 54
1, 64092, Note_on_c, 0, 55, 0
1, 64092, Note_on_c, 0, 75, 43
1, 64093, Note_on_c, 0, 63, 34
1, 64101, Note_on_c, 0, 79, 0
1, 64109, Note_on_c, 0, 74, 0
1, 64134, Note_on_c, 0, 58, 0
1, 64146, Note_on_c, 0, 63, 0
1, 64146, Note_on_c, 0, 55, 29
1, 64146, Note_on_c, 0, 79, 54
1, 64159, Note_on_c, 0, 75, 0
1, 64200, Note_on_c, 0, 58, 40
1, 64204, Note_on_c, 0, 74, 51
1, 64243, Note_on_c, 0, 55, 0
1, 64259, Note_on_c, 0, 74, 0
1, 64259, Note_on_c, 0, 75, 39
1, 64259, Note_on_c, 0, 63, 34
1, 64271, Note_on_c, 0, 58, 0
1, 64271, Note_on_c, 0, 79, 0
1, 64326, Note_on_c, 0, 63, 0
1, 64326, Note_on_c, 0, 56, 41
1, 64326, Note_on_c, 0, 74, 54
1, 64334, Note_on_c, 0, 75, 0
1, 64376, Note_on_c, 0, 60, 45
1, 64409, Note_on_c, 0, 72, 60
1, 64413, Note_on_c, 0, 74, 0
1, 64434, Note_on_c, 0, 56, 0
1, 64442, Note_on_c, 0, 63, 45
1, 64480, Note_on_c, 0, 60, 0
1, 64496, Note_on_c, 0, 56, 44
1, 64496, Note_on_c, 0, 70, 72
1, 64505, Note_on_c, 0, 63, 0
1, 64508, Note_on_c, 0, 72, 0
1, 64559, Note_on_c, 0, 60, 37
1, 64584, Note_on_c, 0, 56, 0
1, 64584, Note_on_c, 0, 63, 28
1, 64584, Note_on_c, 0, 68, 70
1, 64588, Note_on_c, 0, 60, 0
1, 64596, Note_on_c, 0, 70, 0
1, 64600, Note_on_c, 0, 63, 0
1, 64609, Note_on_c, 0, 68, 0
1, 64638, Note_on_c, 0, 68, 63
1, 64664, Note_on_c, 0, 67, 60
1, 64664, Note_on_c, 0, 44, 53
1, 64667, Note_on_c, 0, 68, 0
1, 64721, Note_on_c, 0, 48, 45
1, 64767, Note_on_c, 0, 44, 0
1, 64771, Note_on_c, 0, 48, 0
1, 64771, Note_on_c, 0, 53, 57
1, 64771, Note_on_c, 0, 65, 62
1, 64776, Note_on_c, 0, 67, 0
1, 64797, Note_on_c, 0, 65, 0
1, 64797, Note_on_c, 0, 53, 0
1, 64830, Note_on_c, 0, 46, 59
1, 64830, Note_on_c, 0, 65, 65
1, 64888, Note_on_c, 0, 51, 58
1, 64938, Note_on_c, 0, 55, 57
1, 64947, Note_on_c, 0, 51, 0
1, 64959, Note_on_c, 0, 65, 0
1, 64968, Note_on_c, 0, 63, 65
1, 64976, Note_on_c, 0, 46, 0
1, 64988, Note_on_c, 0, 63, 0
1, 64992, Note_on_c, 0, 65, 51
1, 65009, Note_on_c, 0, 63, 51
1, 65013, Note_on_c, 0, 65, 0
1, 65013, Note_on_c, 0, 55, 0
1, 65018, Note_on_c, 0, 46, 57
1, 65025, Note_on_c, 0, 63, 0
1, 65030, Note_on_c, 0, 65, 50
1, 65051, Note_on_c, 0, 65, 0
1, 65051, Note_on_c, 0, 63, 33
1, 65059, Note_on_c, 0, 51, 52
1, 65080, Note_on_c, 0, 63, 0
1, 65080, Note_on_c, 0, 65, 47
1, 65101, Note_on_c, 0, 63, 46
1, 65105, Note_on_c, 0, 46, 0
1, 65113, Note_on_c, 0, 65, 0
1, 65122, Note_on_c, 0, 63, 0
1, 65122, Note_on_c, 0, 62, 54
1, 65130, Note_on_c, 0, 55, 58
1, 65147, Note_on_c, 0, 63, 55
1, 65172, Note_on_c, 0, 51, 0
1, 65180, Note_on_c, 0, 55, 0
1, 65184, Note_on_c, 0, 63, 0
1, 65184, Note_on_c, 0, 46, 42
1, 65184, Note_on_c, 0, 65, 57
1, 65200, Note_on_c, 0, 62, 0
1, 65239, Note_on_c, 0, 53, 48
1, 65304, Note_on_c, 0, 65, 0
1, 65309, Note_on_c, 0, 46, 0
1, 65318, Note_on_c, 0, 53, 0
1, 65320, Note_on_c, 0, 56, 53
1, 65320, Note_on_c, 0, 62, 55
1, 65517, Note_on_c, 0, 62, 0
1, 65525, Note_on_c, 0, 56, 0
1, 65537, Note_on_c, 0, 73, 65
1, 65537, Note_on_c, 0, 61, 68
1, 65537, Note_on_c, 0, 43, 63
1, 65609, Note_on_c, 0, 46, 40
1, 65646, Note_on_c, 0, 43, 0
1, 65649, Note_on_c, 0, 73, 0
1, 65650, Note_on_c, 0, 61, 0
1, 65660, Note_on_c, 0, 52, 49
1, 65668, Note_on_c, 0, 46, 0
1, 65713, Note_on_c, 0, 52, 0
1, 65714, Note_on_c, 0, 60, 45
1, 65714, Note_on_c, 0, 72, 51
1, 65714, Note_on_c, 0, 44, 53
1, 65772, Note_on_c, 0, 48, 45
1, 65814, Note_on_c, 0, 44, 0
1, 65819, Note_on_c, 0, 60, 0
1, 65826, Note_on_c, 0, 53, 46
1, 65830, Note_on_c, 0, 72, 0
1, 65838, Note_on_c, 0, 48, 0
1, 65884, Note_on_c, 0, 53, 0
1, 65884, Note_on_c, 0, 45, 56
1, 65884, Note_on_c, 0, 63, 60
1, 65884, Note_on_c, 0, 75, 63
1, 65939, Note_on_c, 0, 48, 47
1, 65964, Note_on_c, 0, 45, 0
1, 66005, Note_on_c, 0, 54, 48
1, 66010, Note_on_c, 0, 48, 0
1, 66064, Note_on_c, 0, 54, 0
1, 66076, Note_on_c, 0, 67, 47
1, 66076, Note_on_c, 0, 46, 45
1, 66124, Note_on_c, 0, 75, 0
1, 66124, Note_on_c, 0, 63, 0
1, 66138, Note_on_c, 0, 67, 0
1, 66138, Note_on_c, 0, 68, 48
1, 66142, Note_on_c, 0, 51, 36
1, 66164, Note_on_c, 0, 68, 0
1, 66164, Note_on_c, 0, 67, 44
1, 66180, Note_on_c, 0, 68, 52
1, 66184, Note_on_c, 0, 67, 0
1, 66197, Note_on_c, 0, 46, 0
1, 66202, Note_on_c, 0, 55, 29
1, 66202, Note_on_c, 0, 67, 48
1, 66205, Note_on_c, 0, 68, 0
1, 66213, Note_on_c, 0, 51, 0
1, 66218, Note_on_c, 0, 67, 0
1, 66218, Note_on_c, 0, 68, 56
1, 66238, Note_on_c, 0, 67, 45
1, 66242, Note_on_c, 0, 68, 0
1, 66242, Note_on_c, 0, 46, 42
1, 66247, Note_on_c, 0, 55, 0
1, 66255, Note_on_c, 0, 67, 0
1, 66255, Note_on_c, 0, 68, 54
1, 66280, Note_on_c, 0, 68, 0
1, 66280, Note_on_c, 0, 51, 42
1, 66281, Note_on_c, 0, 67, 39
1, 66301, Note_on_c, 0, 67, 0
1, 66306, Note_on_c, 0, 68, 40
1, 66326, Note_on_c, 0, 67, 45
1, 66338, Note_on_c, 0, 68, 0
1, 66346, Note_on_c, 0, 46, 0
1, 66351, Note_on_c, 0, 67, 0
1, 66351, Note_on_c, 0, 65, 54
1, 66355, Note_on_c, 0, 55, 30
1, 66380, Note_on_c, 0, 67, 50
1, 66392, Note_on_c, 0, 65, 0
1, 66401, Note_on_c, 0, 51, 0
1, 66414, Note_on_c, 0, 55, 0
1, 66414, Note_on_c, 0, 46, 42
1, 66414, Note_on_c, 0, 68, 55
1, 66422, Note_on_c, 0, 67, 0
1, 66468, Note_on_c, 0, 53, 46
1, 66530, Note_on_c, 0, 56, 48
1, 66530, Note_on_c, 0, 65, 57
1, 66534, Note_on_c, 0, 68, 0
1, 66534, Note_on_c, 0, 46, 0
1, 66538, Note_on_c, 0, 65, 0
1, 66538, Note_on_c, 0, 53, 0
1, 66539, Note_on_c, 0, 56, 0
1, 66609, Note_on_c, 0, 55, 59
1, 66609, Note_on_c, 0, 73, 63
1, 66609, Note_on_c, 0, 85, 65
1, 66668, Note_on_c, 0, 58, 53
1, 66717, Note_on_c, 0, 55, 0
1, 66718, Note_on_c, 0, 64, 55
1, 66726, Note_on_c, 0, 58, 0
1, 66734, Note_on_c, 0, 73, 0
1, 66734, Note_on_c, 0, 85, 0
1, 66743, Note_on_c, 0, 64, 0
1, 66768, Note_on_c, 0, 72, 59
1, 66768, Note_on_c, 0, 84, 60
1, 66768, Note_on_c, 0, 56, 52
1, 66826, Note_on_c, 0, 60, 55
1, 66868, Note_on_c, 0, 56, 0
1, 66876, Note_on_c, 0, 72, 0
1, 66876, Note_on_c, 0, 65, 47
1, 66879, Note_on_c, 0, 84, 0
1, 66918, Note_on_c, 0, 60, 0
1, 66926, Note_on_c, 0, 65, 0
1, 66934, Note_on_c, 0, 87, 66
1, 66934, Note_on_c, 0, 75, 59
1, 66934, Note_on_c, 0, 57, 55
1, 66989, Note_on_c, 0, 60, 46
1, 67035, Note_on_c, 0, 57, 0
1, 67051, Note_on_c, 0, 60, 0
1, 67051, Note_on_c, 0, 66, 44
1, 67079, Note_on_c, 0, 87, 0
1, 67084, Note_on_c, 0, 75, 0
1, 67110, Note_on_c, 0, 66, 0
1, 67118, Note_on_c, 0, 58, 50
1, 67118, Note_on_c, 0, 79, 48
1, 67176, Note_on_c, 0, 79, 0
1, 67176, Note_on_c, 0, 80, 49
1, 67185, Note_on_c, 0, 63, 42
1, 67201, Note_on_c, 0, 80, 0
1, 67201, Note_on_c, 0, 79, 49
1, 67218, Note_on_c, 0, 79, 0
1, 67218, Note_on_c, 0, 80, 45
1, 67235, Note_on_c, 0, 79, 51
1, 67238, Note_on_c, 0, 80, 0
1, 67238, Note_on_c, 0, 67, 43
1, 67239, Note_on_c, 0, 58, 0
1, 67251, Note_on_c, 0, 63, 0
1, 67256, Note_on_c, 0, 79, 0
1, 67256, Note_on_c, 0, 80, 51
1, 67268, Note_on_c, 0, 79, 50
1, 67276, Note_on_c, 0, 80, 0
1, 67289, Note_on_c, 0, 79, 0
1, 67289, Note_on_c, 0, 67, 0
1, 67289, Note_on_c, 0, 80, 54
1, 67293, Note_on_c, 0, 58, 51
1, 67314, Note_on_c, 0, 80, 0
1, 67314, Note_on_c, 0, 79, 38
1, 67338, Note_on_c, 0, 79, 0
1, 67339, Note_on_c, 0, 80, 52
1, 67339, Note_on_c, 0, 63, 44
1, 67364, Note_on_c, 0, 79, 46
1, 67368, Note_on_c, 0, 80, 0
1, 67393, Note_on_c, 0, 79, 0
1, 67393, Note_on_c, 0, 77, 63
1, 67397, Note_on_c, 0, 58, 0
1, 67406, Note_on_c, 0, 67, 43
1, 67422, Note_on_c, 0, 79, 56
1, 67430, Note_on_c, 0, 77, 0
1, 67439, Note_on_c, 0, 63, 0
1, 67451, Note_on_c, 0, 67, 0
1, 67451, Note_on_c, 0, 58, 55
1, 67451, Note_on_c, 0, 80, 57
1, 67460, Note_on_c, 0, 79, 0
1, 67514, Note_on_c, 0, 65, 42
1, 67518, Note_on_c, 0, 66, 14
1, 67522, Note_on_c, 0, 66, 0
1, 67560, Note_on_c, 0, 68, 49
1, 67560, Note_on_c, 0, 77, 57
1, 67568, Note_on_c, 0, 80, 0
1, 67572, Note_on_c, 0, 68, 0
1, 67576, Note_on_c, 0, 58, 0
1, 67576, Note_on_c, 0, 65, 0
1, 67576, Note_on_c, 0, 77, 0
1, 67614, Note_on_c, 0, 75, 70
1, 67614, Note_on_c, 0, 67, 56
1, 67614, Note_on_c, 0, 63, 63
1, 67672, Note_on_c, 0, 79, 51
1, 67710, Note_on_c, 0, 75, 0
1, 67727, Note_on_c, 0, 82, 41
1, 67764, Note_on_c, 0, 82, 0
1, 67777, Note_on_c, 0, 87, 45
1, 67789, Note_on_c, 0, 79, 0
1, 67789, Note_on_c, 0, 67, 0
1, 67802, Note_on_c, 0, 63, 0
1, 67827, Note_on_c, 0, 82, 40
1, 67830, Note_on_c, 0, 87, 0
1, 67864, Note_on_c, 0, 82, 0
1, 67872, Note_on_c, 0, 79, 54
1, 67928, Note_on_c, 0, 58, 49
1, 67928, Note_on_c, 0, 46, 52
1, 67928, Note_on_c, 0, 80, 52
1, 67930, Note_on_c, 0, 79, 0
1, 67981, Note_on_c, 0, 46, 0
1, 67981, Note_on_c, 0, 77, 56
1, 67989, Note_on_c, 0, 80, 0
1, 67994, Note_on_c, 0, 58, 0
1, 68026, Note_on_c, 0, 77, 0
1, 68031, Note_on_c, 0, 74, 55
1, 68080, Note_on_c, 0, 63, 45
1, 68080, Note_on_c, 0, 75, 44
1, 68080, Note_on_c, 0, 51, 50
1, 68118, Note_on_c, 0, 74, 0
1, 68125, Note_on_c, 0, 63, 0
1, 68131, Note_on_c, 0, 79, 52
1, 68139, Note_on_c, 0, 51, 0
1, 68167, Note_on_c, 0, 75, 0
1, 68181, Note_on_c, 0, 70, 47
1, 68226, Note_on_c, 0, 70, 0
1, 68231, Note_on_c, 0, 43, 49
1, 68231, Note_on_c, 0, 55, 45
1, 68231, Note_on_c, 0, 75, 46
1, 68268, Note_on_c, 0, 43, 0
1, 68276, Note_on_c, 0, 55, 0
1, 68285, Note_on_c, 0, 70, 26
1, 68298, Note_on_c, 0, 75, 0
1, 68302, Note_on_c, 0, 79, 0
1, 68306, Note_on_c, 0, 70, 0
1, 68335, Note_on_c, 0, 67, 54
1, 68380, Note_on_c, 0, 58, 38
1, 68380, Note_on_c, 0, 68, 46
1, 68380, Note_on_c, 0, 46, 46
1, 68389, Note_on_c, 0, 67, 0
1, 68426, Note_on_c, 0, 58, 0
1, 68435, Note_on_c, 0, 65, 43
1, 68438, Note_on_c, 0, 68, 0
1, 68447, Note_on_c, 0, 46, 0
1, 68481, Note_on_c, 0, 65, 0
1, 68489, Note_on_c, 0, 62, 36
1, 68544, Note_on_c, 0, 51, 41
1, 68544, Note_on_c, 0, 39, 45
1, 68545, Note_on_c, 0, 63, 45
1, 68551, Note_on_c, 0, 62, 0
1, 68672, Note_on_c, 0, 63, 0
1, 68677, Note_on_c, 0, 39, 0
1, 68685, Note_on_c, 0, 51, 0
1, 68881, Note_on_c, 0, 55, 35
1, 68881, Note_on_c, 0, 58, 41
1, 68882, Note_on_c, 0, 63, 41
1, 68882, Note_on_c, 0, 51, 36
1, 68902, Note_on_c, 0, 51, 0
1, 68902, Note_on_c, 0, 55, 0
1, 68905, Note_on_c, 0, 63, 0
1, 68910, Note_on_c, 0, 58, 0
1, 69044, Note_on_c, 0, 58, 30
1, 69044, Note_on_c, 0, 63, 34
1, 69048, Note_on_c, 0, 51, 26
1, 69048, Note_on_c, 0, 55, 17
1, 69231, Note_on_c, 0, 58, 0
1, 69256, Note_on_c, 0, 63, 0
1, 69264, Note_on_c, 0, 55, 0
1, 69273, Note_on_c, 0, 51, 0
1, 69627, Note_on_c, 0, 46, 36
1, 69627, Note_on_c, 0, 58, 32
1, 69685, Note_on_c, 0, 69, 35
1, 69735, Note_on_c, 0, 70, 31
1, 69785, Note_on_c, 0, 72, 56
1, 69794, Note_on_c, 0, 70, 0
1, 69794, Note_on_c, 0, 69, 0
1, 69835, Note_on_c, 0, 69, 50
1, 69881, Note_on_c, 0, 70, 54
1, 69890, Note_on_c, 0, 72, 0
1, 69898, Note_on_c, 0, 46, 0
1, 69923, Note_on_c, 0, 58, 0
1, 69931, Note_on_c, 0, 72, 57
1, 69935, Note_on_c, 0, 70, 0
1, 69940, Note_on_c, 0, 69, 0
1, 69981, Note_on_c, 0, 69, 45
1, 70035, Note_on_c, 0, 70, 48
1, 70040, Note_on_c, 0, 72, 0
1, 70048, Note_on_c, 0, 69, 0
1, 70052, Note_on_c, 0, 70, 0
1, 70106, Note_on_c, 0, 82, 51
1, 70106, Note_on_c, 0, 58, 40
1, 70161, Note_on_c, 0, 62, 41
1, 70206, Note_on_c, 0, 58, 0
1, 70206, Note_on_c, 0, 65, 42
1, 70218, Note_on_c, 0, 62, 0
1, 70256, Note_on_c, 0, 58, 44
1, 70265, Note_on_c, 0, 65, 0
1, 70307, Note_on_c, 0, 63, 37
1, 70352, Note_on_c, 0, 58, 0
1, 70352, Note_on_c, 0, 67, 40
1, 70386, Note_on_c, 0, 63, 0
1, 70402, Note_on_c, 0, 82, 0
1, 70402, Note_on_c, 0, 58, 49
1, 70402, Note_on_c, 0, 65, 32
1, 70402, Note_on_c, 0, 74, 54
1, 70406, Note_on_c, 0, 67, 0
1, 70423, Note_on_c, 0, 74, 0
1, 70423, Note_on_c, 0, 75, 45
1, 70439, Note_on_c, 0, 63, 37
1, 70440, Note_on_c, 0, 65, 0
1, 70448, Note_on_c, 0, 74, 42
1, 70465, Note_on_c, 0, 75, 0
1, 70468, Note_on_c, 0, 74, 0
1, 70469, Note_on_c, 0, 63, 0
1, 70469, Note_on_c, 0, 68, 30
1, 70473, Note_on_c, 0, 72, 53
1, 70485, Note_on_c, 0, 58, 0
1, 70511, Note_on_c, 0, 74, 47
1, 70514, Note_on_c, 0, 68, 0
1, 70523, Note_on_c, 0, 72, 0
1, 70552, Note_on_c, 0, 75, 57
1, 70552, Note_on_c, 0, 67, 44
1, 70552, Note_on_c, 0, 58, 46
1, 70552, Note_on_c, 0, 63, 49
1, 70561, Note_on_c, 0, 74, 0
1, 70602, Note_on_c, 0, 75, 0
1, 70602, Note_on_c, 0, 69, 40
1, 70652, Note_on_c, 0, 70, 54
1, 70702, Note_on_c, 0, 72, 54
1, 70706, Note_on_c, 0, 70, 0
1, 70706, Note_on_c, 0, 69, 0
1, 70753, Note_on_c, 0, 69, 47
1, 70798, Note_on_c, 0, 70, 50
1, 70802, Note_on_c, 0, 72, 0
1, 70848, Note_on_c, 0, 72, 52
1, 70856, Note_on_c, 0, 69, 0
1, 70856, Note_on_c, 0, 70, 0
1, 70902, Note_on_c, 0, 69, 40
1, 70952, Note_on_c, 0, 70, 40
1, 70956, Note_on_c, 0, 72, 0
1, 70965, Note_on_c, 0, 69, 0
1, 70965, Note_on_c, 0, 58, 0
1, 70969, Note_on_c, 0, 63, 0
1, 70973, Note_on_c, 0, 70, 0
1, 70977, Note_on_c, 0, 67, 0
1, 71023, Note_on_c, 0, 58, 45
1, 71023, Note_on_c, 0, 82, 50
1, 71073, Note_on_c, 0, 63, 38
1, 71114, Note_on_c, 0, 58, 0
1, 71128, Note_on_c, 0, 67, 43
1, 71160, Note_on_c, 0, 63, 0
1, 71178, Note_on_c, 0, 58, 50
1, 71190, Note_on_c, 0, 67, 0
1, 71227, Note_on_c, 0, 65, 42
1, 71282, Note_on_c, 0, 68, 46
1, 71286, Note_on_c, 0, 58, 0
1, 71294, Note_on_c, 0, 65, 0
1, 71315, Note_on_c, 0, 68, 0
1, 71327, Note_on_c, 0, 82, 0
1, 71331, Note_on_c, 0, 58, 54
1, 71331, Note_on_c, 0, 76, 54
1, 71348, Note_on_c, 0, 76, 0
1, 71348, Note_on_c, 0, 77, 51
1, 71357, Note_on_c, 0, 67, 35
1, 71369, Note_on_c, 0, 76, 57
1, 71382, Note_on_c, 0, 77, 0
1, 71394, Note_on_c, 0, 76, 0
1, 71394, Note_on_c, 0, 74, 57
1, 71406, Note_on_c, 0, 67, 0
1, 71427, Note_on_c, 0, 76, 45
1, 71444, Note_on_c, 0, 58, 0
1, 71469, Note_on_c, 0, 74, 0
1, 71477, Note_on_c, 0, 77, 53
1, 71477, Note_on_c, 0, 68, 49
1, 71477, Note_on_c, 0, 62, 62
1, 71477, Note_on_c, 0, 58, 52
1, 71482, Note_on_c, 0, 76, 0
1, 71528, Note_on_c, 0, 69, 52
1, 71531, Note_on_c, 0, 77, 0
1, 71578, Note_on_c, 0, 70, 62
1, 71628, Note_on_c, 0, 72, 56
1, 71636, Note_on_c, 0, 70, 0
1, 71636, Note_on_c, 0, 69, 0
1, 71682, Note_on_c, 0, 69, 55
1, 71732, Note_on_c, 0, 70, 60
1, 71740, Note_on_c, 0, 72, 0
1, 71778, Note_on_c, 0, 72, 54
1, 71786, Note_on_c, 0, 70, 0
1, 71790, Note_on_c, 0, 69, 0
1, 71832, Note_on_c, 0, 69, 54
1, 71857, Note_on_c, 0, 58, 0
1, 71877, Note_on_c, 0, 68, 0
1, 71882, Note_on_c, 0, 62, 0
1, 71882, Note_on_c, 0, 72, 0
1, 71886, Note_on_c, 0, 70, 70
1, 71894, Note_on_c, 0, 69, 0
1, 71898, Note_on_c, 0, 70, 0
1, 71944, Note_on_c, 0, 58, 47
1, 71945, Note_on_c, 0, 82, 59
1, 71990, Note_on_c, 0, 65, 26
1, 72044, Note_on_c, 0, 58, 0
1, 72044, Note_on_c, 0, 68, 42
1, 72082, Note_on_c, 0, 65, 0
1, 72086, Note_on_c, 0, 68, 0
1, 72099, Note_on_c, 0, 58, 51
1, 72148, Note_on_c, 0, 63, 43
1, 72194, Note_on_c, 0, 67, 46
1, 72211, Note_on_c, 0, 63, 0
1, 72211, Note_on_c, 0, 58, 0
1, 72223, Note_on_c, 0, 67, 0
1, 72232, Note_on_c, 0, 82, 0
1, 72253, Note_on_c, 0, 58, 47
1, 72256, Note_on_c, 0, 65, 57
1, 72256, Note_on_c, 0, 62, 49
1, 72256, Note_on_c, 0, 77, 45
1, 72269, Note_on_c, 0, 79, 45
1, 72271, Note_on_c, 0, 77, 0
1, 72284, Note_on_c, 0, 58, 0
1, 72284, Note_on_c, 0, 79, 0
1, 72288, Note_on_c, 0, 65, 0
1, 72290, Note_on_c, 0, 77, 45
1, 72303, Note_on_c, 0, 79, 45
1, 72305, Note_on_c, 0, 77, 0
1, 72306, Note_on_c, 0, 62, 0
1, 72315, Note_on_c, 0, 77, 30
1, 72318, Note_on_c, 0, 79, 0
1, 72330, Note_on_c, 0, 77, 0
1, 72330, Note_on_c, 0, 79, 30
1, 72345, Note_on_c, 0, 79, 0
1, 72346, Note_on_c, 0, 77, 30
1, 72356, Note_on_c, 0, 77, 0
1, 72357, Note_on_c, 0, 79, 35
1, 72367, Note_on_c, 0, 79, 0
1, 72374, Note_on_c, 0, 77, 33
1, 72379, Note_on_c, 0, 77, 0
1, 72403, Note_on_c, 0, 57, 54
1, 72403, Note_on_c, 0, 63, 55
1, 72428, Note_on_c, 0, 63, 0
1, 72428, Note_on_c, 0, 57, 0
1, 72548, Note_on_c, 0, 78, 45
1, 72619, Note_on_c, 0, 78, 0
1, 72698, Note_on_c, 0, 77, 31
1, 72769, Note_on_c, 0, 75, 32
1, 72778, Note_on_c, 0, 77, 0
1, 72844, Note_on_c, 0, 59, 38
1, 72844, Note_on_c, 0, 63, 47
1, 72861, Note_on_c, 0, 59, 0
1, 72861, Note_on_c, 0, 75, 0
1, 72866, Note_on_c, 0, 63, 0
1, 72978, Note_on_c, 0, 75, 38
1, 73111, Note_on_c, 0, 73, 40
1, 73136, Note_on_c, 0, 75, 0
1, 73182, Note_on_c, 0, 71, 37
1, 73186, Note_on_c, 0, 73, 0
1, 73232, Note_on_c, 0, 71, 0
1, 73249, Note_on_c, 0, 62, 37
1, 73253, Note_on_c, 0, 58, 40
1, 73320, Note_on_c, 0, 69, 35
1, 73387, Note_on_c, 0, 72, 46
1, 73398, Note_on_c, 0, 69, 0
1, 73440, Note_on_c, 0, 72, 0
1, 73453, Note_on_c, 0, 70, 40
1, 73465, Note_on_c, 0, 70, 0
1, 73520, Note_on_c, 0, 75, 40
1, 73582, Note_on_c, 0, 74, 47
1, 73586, Note_on_c, 0, 75, 0
1, 73661, Note_on_c, 0, 77, 40
1, 73703, Note_on_c, 0, 77, 0
1, 73716, Note_on_c, 0, 74, 0
1, 73795, Note_on_c, 0, 81, 35
1, 73816, Note_on_c, 0, 81, 0
1, 73932, Note_on_c, 0, 82, 49
1, 74082, Note_on_c, 0, 70, 44
1, 74094, Note_on_c, 0, 82, 0
1, 74132, Note_on_c, 0, 70, 0
1, 74178, Note_on_c, 0, 62, 0
1, 74194, Note_on_c, 0, 58, 0
1, 74353, Note_on_c, 0, 53, 45
1, 74353, Note_on_c, 0, 62, 45
1, 74354, Note_on_c, 0, 46, 45
1, 74354, Note_on_c, 0, 68, 53
1, 74374, Note_on_c, 0, 46, 0
1, 74378, Note_on_c, 0, 68, 0
1, 74378, Note_on_c, 0, 53, 0
1, 74382, Note_on_c, 0, 62, 0
1, 74524, Note_on_c, 0, 46, 31
1, 74524, Note_on_c, 0, 53, 25
1, 74524, Note_on_c, 0, 62, 32
1, 74524, Note_on_c, 0, 68, 45
1, 74779, Note_on_c, 0, 62, 0
1, 74800, Note_on_c, 0, 46, 0
1, 74803, Note_on_c, 0, 53, 0
1, 74807, Note_on_c, 0, 68, 0
1, 75154, Note_on_c, 0, 39, 51
1, 75154, Note_on_c, 0, 51, 55
1, 75236, Note_on_c, 0, 39, 0
1, 75241, Note_on_c, 0, 51, 0
1, 75300, Note_on_c, 0, 82, 63
1, 75300, Note_on_c, 0, 79, 56
1, 75345, Note_on_c, 0, 84, 52
1, 75350, Note_on_c, 0, 82, 0
1, 75362, Note_on_c, 0, 79, 0
1, 75395, Note_on_c, 0, 82, 54
1, 75399, Note_on_c, 0, 84, 0
1, 75407, Note_on_c, 0, 82, 0
1, 75442, Note_on_c, 0, 77, 56
1, 75442, Note_on_c, 0, 80, 65
1, 75482, Note_on_c, 0, 82, 47
1, 75488, Note_on_c, 0, 80, 0
1, 75488, Note_on_c, 0, 77, 0
1, 75524, Note_on_c, 0, 80, 46
1, 75540, Note_on_c, 0, 82, 0
1, 75562, Note_on_c, 0, 80, 0
1, 75570, Note_on_c, 0, 79, 57
1, 75570, Note_on_c, 0, 75, 43
1, 75612, Note_on_c, 0, 79, 0
1, 75612, Note_on_c, 0, 80, 44
1, 75637, Note_on_c, 0, 75, 0
1, 75658, Note_on_c, 0, 79, 49
1, 75662, Note_on_c, 0, 80, 0
1, 75674, Note_on_c, 0, 79, 0
1, 75704, Note_on_c, 0, 77, 60
1, 75704, Note_on_c, 0, 74, 57
1, 75754, Note_on_c, 0, 79, 42
1, 75762, Note_on_c, 0, 77, 0
1, 75766, Note_on_c, 0, 74, 0
1, 75791, Note_on_c, 0, 77, 49
1, 75795, Note_on_c, 0, 79, 0
1, 75804, Note_on_c, 0, 77, 0
1, 75837, Note_on_c, 0, 72, 55
1, 75837, Note_on_c, 0, 75, 65
1, 75883, Note_on_c, 0, 75, 0
1, 75883, Note_on_c, 0, 77, 49
1, 75920, Note_on_c, 0, 72, 0
1, 75925, Note_on_c, 0, 75, 43
1, 75928, Note_on_c, 0, 77, 0
1, 75966, Note_on_c, 0, 75, 0
1, 75966, Note_on_c, 0, 70, 47
1, 75966, Note_on_c, 0, 74, 56
1, 76008, Note_on_c, 0, 70, 0
1, 76012, Note_on_c, 0, 74, 0
1, 76016, Note_on_c, 0, 75, 32
1, 76058, Note_on_c, 0, 74, 45
1, 76062, Note_on_c, 0, 75, 0
1, 76070, Note_on_c, 0, 74, 0
1, 76104, Note_on_c, 0, 68, 50
1, 76104, Note_on_c, 0, 72, 59
1, 76141, Note_on_c, 0, 68, 0
1, 76149, Note_on_c, 0, 74, 46
1, 76162, Note_on_c, 0, 72, 0
1, 76195, Note_on_c, 0, 72, 49
1, 76199, Note_on_c, 0, 74, 0
1, 76212, Note_on_c, 0, 72, 0
1, 76245, Note_on_c, 0, 63, 52
1, 76245, Note_on_c, 0, 70, 66
1, 76245, Note_on_c, 0, 67, 52
1, 76291, Note_on_c, 0, 63, 0
1, 76291, Note_on_c, 0, 65, 49
1, 76333, Note_on_c, 0, 65, 0
1, 76333, Note_on_c, 0, 63, 41
1, 76337, Note_on_c, 0, 67, 0
1, 76378, Note_on_c, 0, 63, 0
1, 76378, Note_on_c, 0, 65, 54
1, 76378, Note_on_c, 0, 62, 47
1, 76420, Note_on_c, 0, 63, 45
1, 76429, Note_on_c, 0, 62, 0
1, 76436, Note_on_c, 0, 65, 0
1, 76462, Note_on_c, 0, 63, 0
1, 76462, Note_on_c, 0, 62, 47
1, 76508, Note_on_c, 0, 62, 0
1, 76508, Note_on_c, 0, 63, 47
1, 76508, Note_on_c, 0, 60, 49
1, 76546, Note_on_c, 0, 62, 45
1, 76549, Note_on_c, 0, 60, 0
1, 76582, Note_on_c, 0, 63, 0
1, 76587, Note_on_c, 0, 60, 47
1, 76591, Note_on_c, 0, 62, 0
1, 76599, Note_on_c, 0, 60, 0
1, 76604, Note_on_c, 0, 70, 0
1, 76633, Note_on_c, 0, 58, 62
1, 76633, Note_on_c, 0, 62, 53
1, 76633, Note_on_c, 0, 70, 60
1, 76670, Note_on_c, 0, 58, 0
1, 76674, Note_on_c, 0, 60, 54
1, 76716, Note_on_c, 0, 58, 57
1, 76729, Note_on_c, 0, 60, 0
1, 76762, Note_on_c, 0, 56, 63
1, 76774, Note_on_c, 0, 58, 0
1, 76808, Note_on_c, 0, 58, 65
1, 76812, Note_on_c, 0, 56, 0
1, 76815, Note_on_c, 0, 62, 0
1, 76850, Note_on_c, 0, 56, 55
1, 76870, Note_on_c, 0, 58, 0
1, 76904, Note_on_c, 0, 56, 0
1, 76904, Note_on_c, 0, 70, 0
1, 76904, Note_on_c, 0, 55, 68
1, 76904, Note_on_c, 0, 63, 53
1, 76904, Note_on_c, 0, 72, 62
1, 76950, Note_on_c, 0, 56, 55
1, 76962, Note_on_c, 0, 55, 0
1, 76995, Note_on_c, 0, 55, 49
1, 77003, Note_on_c, 0, 56, 0
1, 77016, Note_on_c, 0, 63, 0
1, 77016, Note_on_c, 0, 55, 0
1, 77029, Note_on_c, 0, 72, 0
1, 77045, Note_on_c, 0, 74, 63
1, 77045, Note_on_c, 0, 65, 46
1, 77045, Note_on_c, 0, 53, 40
1, 77096, Note_on_c, 0, 55, 46
1, 77108, Note_on_c, 0, 53, 0
1, 77124, Note_on_c, 0, 55, 0
1, 77128, Note_on_c, 0, 65, 0
1, 77136, Note_on_c, 0, 74, 0
1, 77141, Note_on_c, 0, 53, 45
1, 77154, Note_on_c, 0, 53, 0
1, 77192, Note_on_c, 0, 67, 33
1, 77192, Note_on_c, 0, 51, 45
1, 77192, Note_on_c, 0, 75, 45
1, 77237, Note_on_c, 0, 79, 54
1, 77245, Note_on_c, 0, 75, 0
1, 77283, Note_on_c, 0, 67, 0
1, 77283, Note_on_c, 0, 77, 48
1, 77300, Note_on_c, 0, 79, 0
1, 77325, Note_on_c, 0, 51, 0
1, 77325, Note_on_c, 0, 60, 54
1, 77325, Note_on_c, 0, 75, 48
1, 77342, Note_on_c, 0, 77, 0
1, 77374, Note_on_c, 0, 75, 0
1, 77374, Note_on_c, 0, 74, 42
1, 77416, Note_on_c, 0, 75, 42
1, 77420, Note_on_c, 0, 74, 0
1, 77458, Note_on_c, 0, 75, 0
1, 77466, Note_on_c, 0, 60, 0
1, 77466, Note_on_c, 0, 68, 53
1, 77466, Note_on_c, 0, 72, 55
1, 77466, Note_on_c, 0, 56, 31
1, 77504, Note_on_c, 0, 74, 56
1, 77508, Note_on_c, 0, 72, 0
1, 77545, Note_on_c, 0, 68, 0
1, 77550, Note_on_c, 0, 72, 51
1, 77562, Note_on_c, 0, 74, 0
1, 77595, Note_on_c, 0, 58, 43
1, 77595, Note_on_c, 0, 70, 51
1, 77595, Note_on_c, 0, 67, 45
1, 77604, Note_on_c, 0, 72, 0
1, 77604, Note_on_c, 0, 56, 0
1, 77642, Note_on_c, 0, 60, 53
1, 77645, Note_on_c, 0, 58, 0
1, 77679, Note_on_c, 0, 60, 0
1, 77683, Note_on_c, 0, 58, 38
1, 77725, Note_on_c, 0, 58, 0
1, 77725, Note_on_c, 0, 60, 54
1, 77774, Note_on_c, 0, 62, 40
1, 77788, Note_on_c, 0, 60, 0
1, 77790, Note_on_c, 0, 70, 0
1, 77800, Note_on_c, 0, 67, 0
1, 77808, Note_on_c, 0, 62, 0
1, 77812, Note_on_c, 0, 60, 45
1, 77858, Note_on_c, 0, 60, 0
1, 77858, Note_on_c, 0, 62, 55
1, 77859, Note_on_c, 0, 70, 43
1, 77875, Note_on_c, 0, 68, 51
1, 77879, Note_on_c, 0, 70, 0
1, 77892, Note_on_c, 0, 68, 0
1, 77892, Note_on_c, 0, 70, 49
1, 77912, Note_on_c, 0, 68, 40
1, 77916, Note_on_c, 0, 70, 0
1, 77929, Note_on_c, 0, 70, 45
1, 77933, Note_on_c, 0, 68, 0
1, 77940, Note_on_c, 0, 68, 43
1, 77945, Note_on_c, 0, 70, 0
1, 77964, Note_on_c, 0, 70, 44
1, 77984, Note_on_c, 0, 70, 0
1, 77990, Note_on_c, 0, 68, 0
1, 77992, Note_on_c, 0, 68, 46
1, 78004, Note_on_c, 0, 62, 0
1, 78008, Note_on_c, 0, 63, 38
1, 78008, Note_on_c, 0, 67, 46
1, 78012, Note_on_c, 0, 68, 0
1, 78134, Note_on_c, 0, 74, 49
1, 78134, Note_on_c, 0, 51, 35
1, 78263, Note_on_c, 0, 75, 53
1, 78266, Note_on_c, 0, 51, 0
1, 78268, Note_on_c, 0, 74, 0
1, 78275, Note_on_c, 0, 67, 0
1, 78304, Note_on_c, 0, 75, 0
1, 78337, Note_on_c, 0, 63, 0
1, 78367, Note_on_c, 0, 55, 40
1, 78383, Note_on_c, 0, 58, 50
1, 78400, Note_on_c, 0, 63, 45
1, 78537, Note_on_c, 0, 82, 59
1, 78667, Note_on_c, 0, 55, 0
1, 78675, Note_on_c, 0, 58, 0
1, 78679, Note_on_c, 0, 79, 50
1, 78683, Note_on_c, 0, 63, 0
1, 78692, Note_on_c, 0, 82, 0
1, 78779, Note_on_c, 0, 56, 40
1, 78792, Note_on_c, 0, 60, 48
1, 78817, Note_on_c, 0, 65, 40
1, 78871, Note_on_c, 0, 79, 0
1, 78875, Note_on_c, 0, 77, 45
1, 78942, Note_on_c, 0, 79, 65
1, 78954, Note_on_c, 0, 77, 0
1, 79004, Note_on_c, 0, 80, 63
1, 79012, Note_on_c, 0, 60, 0
1, 79016, Note_on_c, 0, 56, 0
1, 79017, Note_on_c, 0, 79, 0
1, 79017, Note_on_c, 0, 65, 0
1, 79071, Note_on_c, 0, 82, 65
1, 79075, Note_on_c, 0, 80, 0
1, 79138, Note_on_c, 0, 82, 0
1, 79138, Note_on_c, 0, 84, 59
1, 79158, Note_on_c, 0, 58, 48
1, 79166, Note_on_c, 0, 62, 53
1, 79183, Note_on_c, 0, 65, 53
1, 79200, Note_on_c, 0, 68, 54
1, 79330, Note_on_c, 0, 82, 59
1, 79338, Note_on_c, 0, 84, 0
1, 79388, Note_on_c, 0, 80, 43
1, 79404, Note_on_c, 0, 82, 0
1, 79454, Note_on_c, 0, 79, 44
1, 79462, Note_on_c, 0, 80, 0
1, 79475, Note_on_c, 0, 68, 0
1, 79492, Note_on_c, 0, 65, 0
1, 79492, Note_on_c, 0, 62, 0
1, 79517, Note_on_c, 0, 58, 0
1, 79521, Note_on_c, 0, 79, 0
1, 79521, Note_on_c, 0, 77, 43
1, 79588, Note_on_c, 0, 74, 48
1, 79596, Note_on_c, 0, 77, 0
1, 79638, Note_on_c, 0, 74, 0
1, 79650, Note_on_c, 0, 75, 70
1, 79650, Note_on_c, 0, 63, 62
1, 79650, Note_on_c, 0, 51, 62
1, 79692, Note_on_c, 0, 70, 66
1, 79729, Note_on_c, 0, 70, 0
1, 79734, Note_on_c, 0, 67, 65
1, 79762, Note_on_c, 0, 63, 0
1, 79763, Note_on_c, 0, 67, 0
1, 79776, Note_on_c, 0, 70, 49
1, 79788, Note_on_c, 0, 51, 0
1, 79795, Note_on_c, 0, 75, 0
1, 79813, Note_on_c, 0, 70, 0
1, 79813, Note_on_c, 0, 67, 55
1, 79842, Note_on_c, 0, 67, 0
1, 79854, Note_on_c, 0, 63, 55
1, 79896, Note_on_c, 0, 63, 0
1, 79900, Note_on_c, 0, 46, 51
1, 79900, Note_on_c, 0, 58, 45
1, 79900, Note_on_c, 0, 62, 54
1, 79938, Note_on_c, 0, 58, 0
1, 79942, Note_on_c, 0, 65, 30
1, 79946, Note_on_c, 0, 46, 0
1, 79950, Note_on_c, 0, 62, 0
1, 79976, Note_on_c, 0, 68, 46
1, 79984, Note_on_c, 0, 65, 0
1, 80017, Note_on_c, 0, 68, 0
1, 80022, Note_on_c, 0, 39, 45
1, 80022, Note_on_c, 0, 51, 44
1, 80022, Note_on_c, 0, 67, 40
1, 80067, Note_on_c, 0, 70, 46
1, 80068, Note_on_c, 0, 39, 0
1, 80075, Note_on_c, 0, 51, 0
1, 80079, Note_on_c, 0, 67, 0
1, 80104, Note_on_c, 0, 70, 0
1, 80105, Note_on_c, 0, 67, 45
1, 80150, Note_on_c, 0, 43, 49
1, 80150, Note_on_c, 0, 55, 45
1, 80150, Note_on_c, 0, 75, 45
1, 80180, Note_on_c, 0, 67, 0
1, 80191, Note_on_c, 0, 43, 0
1, 80192, Note_on_c, 0, 70, 36
1, 80200, Note_on_c, 0, 75, 0
1, 80203, Note_on_c, 0, 55, 0
1, 80229, Note_on_c, 0, 70, 0
1, 80229, Note_on_c, 0, 67, 53
1, 80280, Note_on_c, 0, 68, 48
1, 80280, Note_on_c, 0, 58, 42
1, 80280, Note_on_c, 0, 46, 35
1, 80284, Note_on_c, 0, 67, 0
1, 80308, Note_on_c, 0, 58, 0
1, 80317, Note_on_c, 0, 46, 0
1, 80322, Note_on_c, 0, 65, 47
1, 80326, Note_on_c, 0, 68, 0
1, 80358, Note_on_c, 0, 65, 0
1, 80363, Note_on_c, 0, 62, 46
1, 80409, Note_on_c, 0, 62, 0
1, 80409, Note_on_c, 0, 63, 45
1, 80413, Note_on_c, 0, 39, 41
1, 80414, Note_on_c, 0, 51, 35
1, 80492, Note_on_c, 0, 39, 0
1, 80496, Note_on_c, 0, 63, 0
1, 80504, Note_on_c, 0, 51, 0
1, 80709, Note_on_c, 0, 49, 45
1, 80709, Note_on_c, 0, 55, 33
1, 80709, Note_on_c, 0, 58, 40
1, 80709, Note_on_c, 0, 63, 42
1, 80729, Note_on_c, 0, 63, 0
1, 80729, Note_on_c, 0, 49, 0
1, 80729, Note_on_c, 0, 55, 0
1, 80729, Note_on_c, 0, 58, 0
1, 80872, Note_on_c, 0, 63, 37
1, 80872, Note_on_c, 0, 58, 23
1, 80872, Note_on_c, 0, 55, 18
1, 80872, Note_on_c, 0, 49, 18
1, 80989, Note_on_c, 0, 58, 0
1, 81018, Note_on_c, 0, 63, 0
1, 81134, Note_on_c, 0, 49, 0
1, 81147, Note_on_c, 0, 55, 0
1, 81534, Note_on_c, 0, 60, 31
1, 81534, Note_on_c, 0, 75, 32
1, 81605, Note_on_c, 0, 63, 32
1, 81672, Note_on_c, 0, 68, 29
1, 81676, Note_on_c, 0, 63, 0
1, 81688, Note_on_c, 0, 75, 0
1, 81705, Note_on_c, 0, 77, 42
1, 81734, Note_on_c, 0, 75, 52
1, 81734, Note_on_c, 0, 63, 45
1, 81743, Note_on_c, 0, 68, 0
1, 81751, Note_on_c, 0, 77, 0
1, 81772, Note_on_c, 0, 73, 49
1, 81784, Note_on_c, 0, 75, 0
1, 81805, Note_on_c, 0, 63, 0
1, 81805, Note_on_c, 0, 72, 62
1, 81805, Note_on_c, 0, 68, 31
1, 81809, Note_on_c, 0, 73, 0
1, 81863, Note_on_c, 0, 63, 39
1, 81884, Note_on_c, 0, 60, 0
1, 81926, Note_on_c, 0, 63, 0
1, 81934, Note_on_c, 0, 68, 0
1, 81938, Note_on_c, 0, 60, 35
1, 82005, Note_on_c, 0, 63, 25
1, 82018, Note_on_c, 0, 72, 0
1, 82064, Note_on_c, 0, 63, 0
1, 82068, Note_on_c, 0, 79, 45
1, 82068, Note_on_c, 0, 68, 31
1, 82134, Note_on_c, 0, 63, 35
1, 82134, Note_on_c, 0, 80, 39
1, 82138, Note_on_c, 0, 60, 0
1, 82142, Note_on_c, 0, 79, 0
1, 82176, Note_on_c, 0, 68, 0
1, 82188, Note_on_c, 0, 63, 0
1, 82197, Note_on_c, 0, 60, 27
1, 82197, Note_on_c, 0, 79, 41
1, 82205, Note_on_c, 0, 80, 0
1, 82264, Note_on_c, 0, 60, 0
1, 82270, Note_on_c, 0, 80, 40
1, 82270, Note_on_c, 0, 63, 37
1, 82272, Note_on_c, 0, 79, 0
1, 82319, Note_on_c, 0, 63, 0
1, 82334, Note_on_c, 0, 58, 36
1, 82334, Note_on_c, 0, 79, 40
1, 82349, Note_on_c, 0, 80, 0
1, 82414, Note_on_c, 0, 61, 31
1, 82484, Note_on_c, 0, 61, 0
1, 82484, Note_on_c, 0, 63, 33
1, 82518, Note_on_c, 0, 80, 44
1, 82538, Note_on_c, 0, 79, 0
1, 82551, Note_on_c, 0, 80, 0
1, 82551, Note_on_c, 0, 82, 45
1, 82551, Note_on_c, 0, 61, 39
1, 82555, Note_on_c, 0, 63, 0
1, 82580, Note_on_c, 0, 80, 39
1, 82597, Note_on_c, 0, 82, 0
1, 82618, Note_on_c, 0, 61, 0
1, 82618, Note_on_c, 0, 79, 56
1, 82618, Note_on_c, 0, 63, 36
1, 82622, Note_on_c, 0, 80, 0
1, 82680, Note_on_c, 0, 58, 0
1, 82680, Note_on_c, 0, 61, 38
1, 82692, Note_on_c, 0, 61, 0
1, 82734, Note_on_c, 0, 55, 48
1, 82746, Note_on_c, 0, 63, 0
1, 82797, Note_on_c, 0, 58, 45
1, 82864, Note_on_c, 0, 58, 0
1, 82864, Note_on_c, 0, 84, 52
1, 82864, Note_on_c, 0, 63, 31
1, 82872, Note_on_c, 0, 79, 0
1, 82922, Note_on_c, 0, 55, 0
1, 82922, Note_on_c, 0, 58, 42
1, 82926, Note_on_c, 0, 85, 52
1, 82934, Note_on_c, 0, 84, 0
1, 82939, Note_on_c, 0, 63, 0
1, 82968, Note_on_c, 0, 58, 0
1, 82984, Note_on_c, 0, 55, 44
1, 82984, Note_on_c, 0, 84, 59
1, 82989, Note_on_c, 0, 85, 0
1, 83047, Note_on_c, 0, 58, 40
1, 83047, Note_on_c, 0, 85, 46
1, 83055, Note_on_c, 0, 84, 0
1, 83055, Note_on_c, 0, 55, 0
1, 83072, Note_on_c, 0, 58, 0
1, 83105, Note_on_c, 0, 85, 0
1, 83106, Note_on_c, 0, 56, 40
1, 83106, Note_on_c, 0, 84, 63
1, 83168, Note_on_c, 0, 60, 24
1, 83230, Note_on_c, 0, 60, 0
1, 83235, Note_on_c, 0, 63, 31
1, 83264, Note_on_c, 0, 85, 41
1, 83285, Note_on_c, 0, 85, 0
1, 83285, Note_on_c, 0, 84, 0
1, 83288, Note_on_c, 0, 60, 37
1, 83288, Note_on_c, 0, 87, 42
1, 83293, Note_on_c, 0, 63, 0
1, 83318, Note_on_c, 0, 85, 46
1, 83338, Note_on_c, 0, 87, 0
1, 83338, Note_on_c, 0, 60, 0
1, 83343, Note_on_c, 0, 84, 55
1, 83343, Note_on_c, 0, 64, 45
1, 83352, Note_on_c, 0, 85, 0
1, 83405, Note_on_c, 0, 64, 0
1, 83405, Note_on_c, 0, 60, 28
1, 83460, Note_on_c, 0, 56, 0
1, 83464, Note_on_c, 0, 60, 0
1, 83468, Note_on_c, 0, 65, 34
1, 83530, Note_on_c, 0, 65, 0
1, 83531, Note_on_c, 0, 60, 33
1, 83584, Note_on_c, 0, 56, 39
1, 83589, Note_on_c, 0, 60, 0
1, 83589, Note_on_c, 0, 76, 49
1, 83597, Note_on_c, 0, 84, 0
1, 83648, Note_on_c, 0, 77, 47
1, 83648, Note_on_c, 0, 60, 43
1, 83651, Note_on_c, 0, 56, 0
1, 83656, Note_on_c, 0, 76, 0
1, 83706, Note_on_c, 0, 77, 0
1, 83706, Note_on_c, 0, 60, 0
1, 83706, Note_on_c, 0, 76, 47
1, 83706, Note_on_c, 0, 53, 38
1, 83764, Note_on_c, 0, 77, 45
1, 83764, Note_on_c, 0, 56, 42
1, 83768, Note_on_c, 0, 76, 0
1, 83772, Note_on_c, 0, 53, 0
1, 83785, Note_on_c, 0, 56, 0
1, 83788, Note_on_c, 0, 77, 0
1, 83822, Note_on_c, 0, 55, 40
1, 83826, Note_on_c, 0, 77, 43
1, 83884, Note_on_c, 0, 77, 0
1, 83885, Note_on_c, 0, 58, 35
1, 83885, Note_on_c, 0, 76, 45
1, 83943, Note_on_c, 0, 76, 0
1, 83943, Note_on_c, 0, 79, 42
1, 83943, Note_on_c, 0, 60, 42
1, 83947, Note_on_c, 0, 58, 0
1, 83989, Note_on_c, 0, 55, 0
1, 84002, Note_on_c, 0, 58, 36
1, 84006, Note_on_c, 0, 60, 0
1, 84006, Note_on_c, 0, 76, 40
1, 84010, Note_on_c, 0, 79, 0
1, 84018, Note_on_c, 0, 58, 0
1, 84060, Note_on_c, 0, 72, 40
1, 84060, Note_on_c, 0, 52, 38
1, 84064, Note_on_c, 0, 76, 0
1, 84118, Note_on_c, 0, 70, 48
1, 84118, Note_on_c, 0, 55, 36
1, 84122, Note_on_c, 0, 52, 0
1, 84126, Note_on_c, 0, 72, 0
1, 84176, Note_on_c, 0, 55, 0
1, 84185, Note_on_c, 0, 68, 52
1, 84185, Note_on_c, 0, 53, 38
1, 84201, Note_on_c, 0, 70, 0
1, 84251, Note_on_c, 0, 56, 35
1, 84314, Note_on_c, 0, 62, 36
1, 84318, Note_on_c, 0, 56, 0
1, 84380, Note_on_c, 0, 56, 32
1, 84389, Note_on_c, 0, 53, 0
1, 84410, Note_on_c, 0, 56, 0
1, 84448, Note_on_c, 0, 68, 0
1, 84448, Note_on_c, 0, 62, 0
1, 84451, Note_on_c, 0, 55, 36
1, 84451, Note_on_c, 0, 75, 46
1, 84526, Note_on_c, 0, 58, 35
1, 84534, Note_on_c, 0, 55, 0
1, 84543, Note_on_c, 0, 75, 0
1, 84590, Note_on_c, 0, 58, 0
1, 84606, Note_on_c, 0, 53, 37
1, 84606, Note_on_c, 0, 75, 41
1, 84681, Note_on_c, 0, 56, 33
1, 84681, Note_on_c, 0, 74, 52
1, 84689, Note_on_c, 0, 75, 0
1, 84735, Note_on_c, 0, 58, 36
1, 84735, Note_on_c, 0, 77, 53
1, 84743, Note_on_c, 0, 74, 0
1, 84751, Note_on_c, 0, 56, 0
1, 84794, Note_on_c, 0, 56, 38
1, 84794, Note_on_c, 0, 74, 48
1, 84797, Note_on_c, 0, 77, 0
1, 84797, Note_on_c, 0, 58, 0
1, 84798, Note_on_c, 0, 53, 0
1, 84810, Note_on_c, 0, 56, 0
1, 84852, Note_on_c, 0, 74, 0
1, 84852, Note_on_c, 0, 70, 45
1, 84852, Note_on_c, 0, 50, 36
1, 84910, Note_on_c, 0, 68, 54
1, 84910, Note_on_c, 0, 53, 46
1, 84914, Note_on_c, 0, 50, 0
1, 84918, Note_on_c, 0, 70, 0
1, 84926, Note_on_c, 0, 53, 0
1, 84956, Note_on_c, 0, 68, 0
1, 84972, Note_on_c, 0, 51, 49
1, 84973, Note_on_c, 0, 67, 66
1, 85035, Note_on_c, 0, 55, 47
1, 85089, Note_on_c, 0, 58, 60
1, 85101, Note_on_c, 0, 55, 0
1, 85144, Note_on_c, 0, 58, 0
1, 85148, Note_on_c, 0, 63, 60
1, 85210, Note_on_c, 0, 58, 53
1, 85210, Note_on_c, 0, 79, 55
1, 85218, Note_on_c, 0, 67, 0
1, 85222, Note_on_c, 0, 63, 0
1, 85264, Note_on_c, 0, 58, 0
1, 85277, Note_on_c, 0, 55, 51
1, 85281, Note_on_c, 0, 51, 0
1, 85289, Note_on_c, 0, 55, 0
1, 85348, Note_on_c, 0, 79, 0
1, 85348, Note_on_c, 0, 56, 49
1, 85348, Note_on_c, 0, 76, 53
1, 85418, Note_on_c, 0, 60, 48
1, 85418, Note_on_c, 0, 77, 52
1, 85426, Note_on_c, 0, 76, 0
1, 85477, Note_on_c, 0, 65, 46
1, 85481, Note_on_c, 0, 60, 0
1, 85539, Note_on_c, 0, 60, 46
1, 85543, Note_on_c, 0, 56, 0
1, 85552, Note_on_c, 0, 65, 0
1, 85585, Note_on_c, 0, 60, 0
1, 85602, Note_on_c, 0, 79, 46
1, 85602, Note_on_c, 0, 56, 37
1, 85623, Note_on_c, 0, 77, 0
1, 85673, Note_on_c, 0, 60, 38
1, 85673, Note_on_c, 0, 80, 45
1, 85677, Note_on_c, 0, 79, 0
1, 85736, Note_on_c, 0, 60, 0
1, 85739, Note_on_c, 0, 65, 27
1, 85802, Note_on_c, 0, 60, 37
1, 85810, Note_on_c, 0, 56, 0
1, 85840, Note_on_c, 0, 65, 0
1, 85868, Note_on_c, 0, 60, 0
1, 85890, Note_on_c, 0, 83, 52
1, 85893, Note_on_c, 0, 80, 0
1, 85894, Note_on_c, 0, 56, 39
1, 85981, Note_on_c, 0, 60, 38
1, 85982, Note_on_c, 0, 84, 54
1, 85994, Note_on_c, 0, 83, 0
1, 86077, Note_on_c, 0, 65, 33
1, 86114, Note_on_c, 0, 84, 0
1, 86173, Note_on_c, 0, 60, 0
1, 86181, Note_on_c, 0, 56, 0
1, 86181, Note_on_c, 0, 82, 40
1, 86194, Note_on_c, 0, 65, 0
1, 86210, Note_on_c, 0, 80, 31
1, 86218, Note_on_c, 0, 82, 0
1, 86239, Note_on_c, 0, 79, 35
1, 86252, Note_on_c, 0, 80, 0
1, 86277, Note_on_c, 0, 79, 0
1, 86277, Note_on_c, 0, 77, 42
1, 86319, Note_on_c, 0, 58, 38
1, 86319, Note_on_c, 0, 67, 28
1, 86319, Note_on_c, 0, 75, 47
1, 86327, Note_on_c, 0, 77, 0
1, 86463, Note_on_c, 0, 67, 0
1, 86602, Note_on_c, 0, 74, 46
1, 86602, Note_on_c, 0, 65, 29
1, 86606, Note_on_c, 0, 75, 0
1, 86636, Note_on_c, 0, 65, 0
1, 86652, Note_on_c, 0, 58, 0
1, 86731, Note_on_c, 0, 44, 65
1, 86731, Note_on_c, 0, 56, 63
1, 86802, Note_on_c, 0, 56, 0
1, 86806, Note_on_c, 0, 44, 0
1, 86860, Note_on_c, 0, 43, 63
1, 86860, Note_on_c, 0, 55, 55
1, 86944, Note_on_c, 0, 55, 0
1, 86944, Note_on_c, 0, 43, 0
1, 86985, Note_on_c, 0, 53, 53
1, 86985, Note_on_c, 0, 41, 57
1, 87019, Note_on_c, 0, 53, 0
1, 87023, Note_on_c, 0, 41, 0
1, 87123, Note_on_c, 0, 74, 0
1, 87123, Note_on_c, 0, 39, 66
1, 87123, Note_on_c, 0, 51, 57
1, 87156, Note_on_c, 0, 39, 0
1, 87169, Note_on_c, 0, 51, 0
1, 87256, Note_on_c, 0, 67, 59
1, 87256, Note_on_c, 0, 82, 59
1, 87294, Note_on_c, 0, 63, 45
1, 87294, Note_on_c, 0, 79, 52
1, 87306, Note_on_c, 0, 67, 0
1, 87331, Note_on_c, 0, 80, 54
1, 87331, Note_on_c, 0, 65, 47
1, 87339, Note_on_c, 0, 82, 0
1, 87340, Note_on_c, 0, 63, 0
1, 87369, Note_on_c, 0, 79, 0
1, 87373, Note_on_c, 0, 67, 54
1, 87373, Note_on_c, 0, 82, 53
1, 87377, Note_on_c, 0, 80, 0
1, 87378, Note_on_c, 0, 65, 0
1, 87406, Note_on_c, 0, 63, 48
1, 87410, Note_on_c, 0, 79, 50
1, 87415, Note_on_c, 0, 67, 0
1, 87440, Note_on_c, 0, 82, 0
1, 87448, Note_on_c, 0, 65, 37
1, 87448, Note_on_c, 0, 80, 54
1, 87456, Note_on_c, 0, 63, 0
1, 87490, Note_on_c, 0, 79, 0
1, 87494, Note_on_c, 0, 65, 0
1, 87494, Note_on_c, 0, 82, 52
1, 87494, Note_on_c, 0, 67, 54
1, 87502, Note_on_c, 0, 80, 0
1, 87514, Note_on_c, 0, 67, 0
1, 87514, Note_on_c, 0, 82, 0
1, 87636, Note_on_c, 0, 68, 32
1, 87636, Note_on_c, 0, 84, 41
1, 87798, Note_on_c, 0, 65, 38
1, 87798, Note_on_c, 0, 80, 44
1, 87811, Note_on_c, 0, 84, 0
1, 87815, Note_on_c, 0, 68, 0
1, 87819, Note_on_c, 0, 65, 0
1, 87965, Note_on_c, 0, 34, 65
1, 87965, Note_on_c, 0, 46, 57
1, 88061, Note_on_c, 0, 80, 0
1, 88093, Note_on_c, 0, 34, 0
1, 88103, Note_on_c, 0, 65, 57
1, 88103, Note_on_c, 0, 80, 49
1, 88106, Note_on_c, 0, 46, 0
1, 88140, Note_on_c, 0, 62, 49
1, 88140, Note_on_c, 0, 77, 45
1, 88148, Note_on_c, 0, 65, 0
1, 88157, Note_on_c, 0, 80, 0
1, 88178, Note_on_c, 0, 63, 54
1, 88182, Note_on_c, 0, 79, 54
1, 88194, Note_on_c, 0, 62, 0
1, 88198, Note_on_c, 0, 77, 0
1, 88223, Note_on_c, 0, 80, 49
1, 88223, Note_on_c, 0, 65, 53
1, 88228, Note_on_c, 0, 63, 0
1, 88232, Note_on_c, 0, 79, 0
1, 88256, Note_on_c, 0, 77, 53
1, 88256, Note_on_c, 0, 62, 52
1, 88265, Note_on_c, 0, 65, 0
1, 88269, Note_on_c, 0, 80, 0
1, 88294, Note_on_c, 0, 63, 55
1, 88298, Note_on_c, 0, 79, 56
1, 88302, Note_on_c, 0, 62, 0
1, 88332, Note_on_c, 0, 77, 0
1, 88344, Note_on_c, 0, 65, 54
1, 88344, Note_on_c, 0, 80, 49
1, 88352, Note_on_c, 0, 63, 0
1, 88352, Note_on_c, 0, 79, 0
1, 88365, Note_on_c, 0, 65, 0
1, 88365, Note_on_c, 0, 80, 0
1, 88482, Note_on_c, 0, 82, 53
1, 88482, Note_on_c, 0, 67, 45
1, 88632, Note_on_c, 0, 63, 28
1, 88632, Note_on_c, 0, 79, 31
1, 88636, Note_on_c, 0, 67, 0
1, 88636, Note_on_c, 0, 82, 0
1, 88711, Note_on_c, 0, 63, 0
1, 88711, Note_on_c, 0, 79, 0
1, 88798, Note_on_c, 0, 55, 32
1, 88798, Note_on_c, 0, 75, 37
1, 88848, Note_on_c, 0, 58, 36
1, 88902, Note_on_c, 0, 55, 0
1, 88903, Note_on_c, 0, 63, 37
1, 88915, Note_on_c, 0, 58, 0
1, 88952, Note_on_c, 0, 63, 0
1, 88952, Note_on_c, 0, 87, 55
1, 88953, Note_on_c, 0, 55, 32
1, 89007, Note_on_c, 0, 58, 38
1, 89040, Note_on_c, 0, 55, 0
1, 89040, Note_on_c, 0, 75, 0
1, 89052, Note_on_c, 0, 87, 0
1, 89057, Note_on_c, 0, 63, 32
1, 89074, Note_on_c, 0, 58, 0
1, 89102, Note_on_c, 0, 63, 0
1, 89107, Note_on_c, 0, 55, 43
1, 89107, Note_on_c, 0, 87, 68
1, 89161, Note_on_c, 0, 58, 39
1, 89190, Note_on_c, 0, 55, 0
1, 89215, Note_on_c, 0, 58, 0
1, 89220, Note_on_c, 0, 63, 31
1, 89282, Note_on_c, 0, 63, 0
1, 89282, Note_on_c, 0, 87, 0
1, 89282, Note_on_c, 0, 56, 37
1, 89282, Note_on_c, 0, 86, 66
1, 89328, Note_on_c, 0, 60, 45
1, 89357, Note_on_c, 0, 84, 70
1, 89374, Note_on_c, 0, 86, 0
1, 89390, Note_on_c, 0, 63, 40
1, 89394, Note_on_c, 0, 56, 0
1, 89407, Note_on_c, 0, 60, 0
1, 89440, Note_on_c, 0, 63, 0
1, 89444, Note_on_c, 0, 56, 39
1, 89444, Note_on_c, 0, 82, 70
1, 89452, Note_on_c, 0, 84, 0
1, 89490, Note_on_c, 0, 60, 44
1, 89515, Note_on_c, 0, 56, 0
1, 89523, Note_on_c, 0, 80, 72
1, 89536, Note_on_c, 0, 82, 0
1, 89561, Note_on_c, 0, 63, 34
1, 89574, Note_on_c, 0, 60, 0
1, 89611, Note_on_c, 0, 63, 0
1, 89612, Note_on_c, 0, 56, 41
1, 89612, Note_on_c, 0, 79, 54
1, 89615, Note_on_c, 0, 80, 0
1, 89661, Note_on_c, 0, 60, 45
1, 89687, Note_on_c, 0, 56, 0
1, 89703, Note_on_c, 0, 60, 0
1, 89707, Note_on_c, 0, 65, 45
1, 89711, Note_on_c, 0, 77, 56
1, 89719, Note_on_c, 0, 79, 0
1, 89732, Note_on_c, 0, 77, 0
1, 89753, Note_on_c, 0, 65, 0
1, 89765, Note_on_c, 0, 77, 63
1, 89765, Note_on_c, 0, 58, 46
1, 89815, Note_on_c, 0, 63, 38
1, 89861, Note_on_c, 0, 58, 0
1, 89861, Note_on_c, 0, 67, 31
1, 89866, Note_on_c, 0, 75, 51
1, 89868, Note_on_c, 0, 77, 0
1, 89878, Note_on_c, 0, 63, 0
1, 89890, Note_on_c, 0, 75, 0
1, 89890, Note_on_c, 0, 77, 43
1, 89912, Note_on_c, 0, 77, 0
1, 89912, Note_on_c, 0, 75, 46
1, 89912, Note_on_c, 0, 58, 33
1, 89920, Note_on_c, 0, 67, 0
1, 89928, Note_on_c, 0, 75, 0
1, 89928, Note_on_c, 0, 77, 46
1, 89944, Note_on_c, 0, 77, 0
1, 89944, Note_on_c, 0, 63, 40
1, 89949, Note_on_c, 0, 75, 39
1, 89957, Note_on_c, 0, 75, 0
1, 89965, Note_on_c, 0, 77, 49
1, 89982, Note_on_c, 0, 75, 44
1, 89986, Note_on_c, 0, 77, 0
1, 89998, Note_on_c, 0, 58, 0
1, 89999, Note_on_c, 0, 75, 0
1, 90015, Note_on_c, 0, 74, 39
1, 90020, Note_on_c, 0, 67, 29
1, 90036, Note_on_c, 0, 75, 45
1, 90053, Note_on_c, 0, 63, 0
1, 90065, Note_on_c, 0, 67, 0
1, 90070, Note_on_c, 0, 58, 46
1, 90070, Note_on_c, 0, 77, 55
1, 90074, Note_on_c, 0, 75, 0
1, 90082, Note_on_c, 0, 74, 0
1, 90120, Note_on_c, 0, 65, 45
1, 90174, Note_on_c, 0, 58, 0
1, 90174, Note_on_c, 0, 77, 0
1, 90174, Note_on_c, 0, 68, 53
1, 90174, Note_on_c, 0, 74, 54
1, 90182, Note_on_c, 0, 65, 0
1, 90198, Note_on_c, 0, 68, 0
1, 90203, Note_on_c, 0, 74, 0
1, 90224, Note_on_c, 0, 60, 44
1, 90224, Note_on_c, 0, 75, 70
1, 90274, Note_on_c, 0, 63, 40
1, 90328, Note_on_c, 0, 60, 0
1, 90328, Note_on_c, 0, 67, 48
1, 90378, Note_on_c, 0, 63, 0
1, 90382, Note_on_c, 0, 58, 52
1, 90395, Note_on_c, 0, 67, 0
1, 90437, Note_on_c, 0, 63, 37
1, 90486, Note_on_c, 0, 58, 0
1, 90487, Note_on_c, 0, 67, 49
1, 90507, Note_on_c, 0, 63, 0
1, 90545, Note_on_c, 0, 56, 49
1, 90562, Note_on_c, 0, 67, 0
1, 90603, Note_on_c, 0, 60, 41
1, 90653, Note_on_c, 0, 56, 0
1, 90662, Note_on_c, 0, 60, 0
1, 90662, Note_on_c, 0, 65, 28
1, 90682, Note_on_c, 0, 65, 0
1, 90682, Note_on_c, 0, 75, 0
1, 90716, Note_on_c, 0, 55, 39
1, 90716, Note_on_c, 0, 70, 42
1, 90774, Note_on_c, 0, 58, 40
1, 90840, Note_on_c, 0, 63, 53
1, 90841, Note_on_c, 0, 55, 0
1, 90844, Note_on_c, 0, 58, 0
1, 90864, Note_on_c, 0, 63, 0
1, 90874, Note_on_c, 0, 70, 0
1, 90883, Note_on_c, 0, 55, 32
1, 90886, Note_on_c, 0, 79, 45
1, 90941, Note_on_c, 0, 74, 47
1, 90944, Note_on_c, 0, 58, 36
1, 90986, Note_on_c, 0, 79, 0
1, 90991, Note_on_c, 0, 55, 0
1, 90991, Note_on_c, 0, 63, 33
1, 90995, Note_on_c, 0, 75, 38
1, 90999, Note_on_c, 0, 58, 0
1, 91007, Note_on_c, 0, 74, 0
1, 91036, Note_on_c, 0, 63, 0
1, 91044, Note_on_c, 0, 79, 46
1, 91049, Note_on_c, 0, 55, 34
1, 91053, Note_on_c, 0, 75, 0
1, 91099, Note_on_c, 0, 74, 44
1, 91107, Note_on_c, 0, 58, 29
1, 91132, Note_on_c, 0, 79, 0
1, 91149, Note_on_c, 0, 55, 0
1, 91149, Note_on_c, 0, 74, 0
1, 91157, Note_on_c, 0, 75, 34
1, 91162, Note_on_c, 0, 63, 31
1, 91166, Note_on_c, 0, 58, 0
1, 91216, Note_on_c, 0, 63, 0
1, 91220, Note_on_c, 0, 56, 39
1, 91224, Note_on_c, 0, 74, 50
1, 91233, Note_on_c, 0, 75, 0
1, 91270, Note_on_c, 0, 60, 45
1, 91308, Note_on_c, 0, 72, 53
1, 91312, Note_on_c, 0, 74, 0
1, 91324, Note_on_c, 0, 56, 0
1, 91341, Note_on_c, 0, 63, 35
1, 91358, Note_on_c, 0, 60, 0
1, 91386, Note_on_c, 0, 56, 42
1, 91395, Note_on_c, 0, 63, 0
1, 91395, Note_on_c, 0, 70, 68
1, 91408, Note_on_c, 0, 72, 0
1, 91453, Note_on_c, 0, 60, 44
1, 91466, Note_on_c, 0, 63, 19
1, 91470, Note_on_c, 0, 56, 0
1, 91486, Note_on_c, 0, 60, 0
1, 91487, Note_on_c, 0, 68, 70
1, 91491, Note_on_c, 0, 63, 0
1, 91495, Note_on_c, 0, 70, 0
1, 91503, Note_on_c, 0, 68, 0
1, 91537, Note_on_c, 0, 68, 57
1, 91558, Note_on_c, 0, 44, 50
1, 91558, Note_on_c, 0, 67, 68
1, 91561, Note_on_c, 0, 68, 0
1, 91612, Note_on_c, 0, 48, 45
1, 91662, Note_on_c, 0, 48, 0
1, 91662, Note_on_c, 0, 44, 0
1, 91662, Note_on_c, 0, 53, 56
1, 91666, Note_on_c, 0, 65, 46
1, 91670, Note_on_c, 0, 67, 0
1, 91687, Note_on_c, 0, 65, 0
1, 91695, Note_on_c, 0, 53, 0
1, 91720, Note_on_c, 0, 46, 55
1, 91724, Note_on_c, 0, 65, 66
1, 91778, Note_on_c, 0, 51, 38
1, 91824, Note_on_c, 0, 46, 0
1, 91828, Note_on_c, 0, 55, 49
1, 91840, Note_on_c, 0, 65, 0
1, 91845, Note_on_c, 0, 51, 0
1, 91845, Note_on_c, 0, 63, 51
1, 91870, Note_on_c, 0, 63, 0
1, 91870, Note_on_c, 0, 65, 51
1, 91878, Note_on_c, 0, 46, 47
1, 91882, Note_on_c, 0, 55, 0
1, 91891, Note_on_c, 0, 65, 0
1, 91891, Note_on_c, 0, 63, 46
1, 91905, Note_on_c, 0, 65, 53
1, 91907, Note_on_c, 0, 51, 45
1, 91912, Note_on_c, 0, 63, 0
1, 91916, Note_on_c, 0, 63, 43
1, 91920, Note_on_c, 0, 65, 0
1, 91936, Note_on_c, 0, 65, 45
1, 91949, Note_on_c, 0, 63, 0
1, 91950, Note_on_c, 0, 63, 45
1, 91962, Note_on_c, 0, 46, 0
1, 91965, Note_on_c, 0, 63, 0
1, 91965, Note_on_c, 0, 55, 45
1, 91970, Note_on_c, 0, 65, 0
1, 91970, Note_on_c, 0, 62, 45
1, 91980, Note_on_c, 0, 55, 0
1, 91991, Note_on_c, 0, 63, 45
1, 92012, Note_on_c, 0, 51, 0
1, 92037, Note_on_c, 0, 46, 45
1, 92037, Note_on_c, 0, 65, 53
1, 92041, Note_on_c, 0, 63, 0
1, 92078, Note_on_c, 0, 62, 0
1, 92087, Note_on_c, 0, 53, 43
1, 92141, Note_on_c, 0, 62, 53
1, 92141, Note_on_c, 0, 56, 53
1, 92145, Note_on_c, 0, 65, 0
1, 92150, Note_on_c, 0, 53, 0
1, 92154, Note_on_c, 0, 46, 0
1, 92157, Note_on_c, 0, 62, 0
1, 92158, Note_on_c, 0, 56, 0
1, 92224, Note_on_c, 0, 73, 66
1, 92224, Note_on_c, 0, 61, 68
1, 92224, Note_on_c, 0, 43, 65
1, 92278, Note_on_c, 0, 46, 51
1, 92324, Note_on_c, 0, 43, 0
1, 92324, Note_on_c, 0, 52, 59
1, 92337, Note_on_c, 0, 46, 0
1, 92337, Note_on_c, 0, 61, 0
1, 92341, Note_on_c, 0, 73, 0
1, 92366, Note_on_c, 0, 52, 0
1, 92378, Note_on_c, 0, 44, 56
1, 92378, Note_on_c, 0, 60, 56
1, 92378, Note_on_c, 0, 72, 60
1, 92433, Note_on_c, 0, 48, 46
1, 92462, Note_on_c, 0, 44, 0
1, 92466, Note_on_c, 0, 60, 0
1, 92470, Note_on_c, 0, 72, 0
1, 92483, Note_on_c, 0, 53, 48
1, 92533, Note_on_c, 0, 45, 55
1, 92533, Note_on_c, 0, 75, 51
1, 92534, Note_on_c, 0, 63, 52
1, 92537, Note_on_c, 0, 48, 0
1, 92541, Note_on_c, 0, 53, 0
1, 92587, Note_on_c, 0, 48, 45
1, 92612, Note_on_c, 0, 45, 0
1, 92645, Note_on_c, 0, 48, 0
1, 92645, Note_on_c, 0, 54, 40
1, 92678, Note_on_c, 0, 63, 0
1, 92683, Note_on_c, 0, 75, 0
1, 92687, Note_on_c, 0, 54, 0
1, 92712, Note_on_c, 0, 46, 45
1, 92716, Note_on_c, 0, 67, 50
1, 92770, Note_on_c, 0, 68, 45
1, 92774, Note_on_c, 0, 67, 0
1, 92779, Note_on_c, 0, 51, 35
1, 92791, Note_on_c, 0, 68, 0
1, 92791, Note_on_c, 0, 67, 44
1, 92808, Note_on_c, 0, 67, 0
1, 92808, Note_on_c, 0, 68, 51
1, 92820, Note_on_c, 0, 55, 45
1, 92824, Note_on_c, 0, 68, 0
1, 92824, Note_on_c, 0, 46, 0
1, 92824, Note_on_c, 0, 67, 52
1, 92837, Note_on_c, 0, 68, 52
1, 92841, Note_on_c, 0, 67, 0
1, 92841, Note_on_c, 0, 51, 0
1, 92849, Note_on_c, 0, 67, 40
1, 92854, Note_on_c, 0, 68, 0
1, 92866, Note_on_c, 0, 67, 0
1, 92866, Note_on_c, 0, 68, 51
1, 92870, Note_on_c, 0, 46, 39
1, 92874, Note_on_c, 0, 55, 0
1, 92887, Note_on_c, 0, 68, 0
1, 92887, Note_on_c, 0, 67, 42
1, 92904, Note_on_c, 0, 67, 0
1, 92904, Note_on_c, 0, 68, 52
1, 92908, Note_on_c, 0, 51, 37
1, 92933, Note_on_c, 0, 68, 0
1, 92933, Note_on_c, 0, 67, 53
1, 92954, Note_on_c, 0, 46, 0
1, 92962, Note_on_c, 0, 68, 25
1, 92966, Note_on_c, 0, 67, 0
1, 92966, Note_on_c, 0, 55, 32
1, 92966, Note_on_c, 0, 65, 52
1, 92983, Note_on_c, 0, 68, 0
1, 92995, Note_on_c, 0, 67, 53
1, 93008, Note_on_c, 0, 65, 0
1, 93016, Note_on_c, 0, 51, 0
1, 93028, Note_on_c, 0, 46, 41
1, 93033, Note_on_c, 0, 68, 66
1, 93037, Note_on_c, 0, 55, 0
1, 93041, Note_on_c, 0, 67, 0
1, 93083, Note_on_c, 0, 53, 46
1, 93145, Note_on_c, 0, 46, 0
1, 93145, Note_on_c, 0, 65, 55
1, 93145, Note_on_c, 0, 56, 49
1, 93150, Note_on_c, 0, 53, 0
1, 93150, Note_on_c, 0, 68, 0
1, 93157, Note_on_c, 0, 65, 0
1, 93158, Note_on_c, 0, 56, 0
1, 93221, Note_on_c, 0, 55, 66
1, 93221, Note_on_c, 0, 73, 65
1, 93221, Note_on_c, 0, 85, 62
1, 93271, Note_on_c, 0, 58, 55
1, 93320, Note_on_c, 0, 64, 53
1, 93321, Note_on_c, 0, 55, 0
1, 93333, Note_on_c, 0, 58, 0
1, 93341, Note_on_c, 0, 85, 0
1, 93342, Note_on_c, 0, 73, 0
1, 93354, Note_on_c, 0, 64, 0
1, 93371, Note_on_c, 0, 84, 46
1, 93371, Note_on_c, 0, 72, 56
1, 93371, Note_on_c, 0, 56, 55
1, 93425, Note_on_c, 0, 60, 55
1, 93445, Note_on_c, 0, 56, 0
1, 93471, Note_on_c, 0, 72, 0
1, 93477, Note_on_c, 0, 84, 0
1, 93478, Note_on_c, 0, 65, 53
1, 93521, Note_on_c, 0, 60, 0
1, 93532, Note_on_c, 0, 65, 0
1, 93533, Note_on_c, 0, 87, 60
1, 93533, Note_on_c, 0, 75, 62
1, 93533, Note_on_c, 0, 57, 53
1, 93583, Note_on_c, 0, 60, 49
1, 93600, Note_on_c, 0, 57, 0
1, 93629, Note_on_c, 0, 60, 0
1, 93642, Note_on_c, 0, 66, 38
1, 93666, Note_on_c, 0, 87, 0
1, 93670, Note_on_c, 0, 66, 0
1, 93670, Note_on_c, 0, 75, 0
1, 93704, Note_on_c, 0, 58, 45
1, 93704, Note_on_c, 0, 79, 54
1, 93758, Note_on_c, 0, 79, 0
1, 93758, Note_on_c, 0, 80, 42
1, 93766, Note_on_c, 0, 63, 39
1, 93778, Note_on_c, 0, 80, 0
1, 93779, Note_on_c, 0, 79, 45
1, 93795, Note_on_c, 0, 79, 0
1, 93796, Note_on_c, 0, 80, 49
1, 93812, Note_on_c, 0, 79, 46
1, 93816, Note_on_c, 0, 80, 0
1, 93816, Note_on_c, 0, 58, 0
1, 93820, Note_on_c, 0, 67, 41
1, 93833, Note_on_c, 0, 63, 0
1, 93833, Note_on_c, 0, 79, 0
1, 93833, Note_on_c, 0, 80, 51
1, 93846, Note_on_c, 0, 79, 48
1, 93854, Note_on_c, 0, 80, 0
1, 93866, Note_on_c, 0, 67, 0
1, 93870, Note_on_c, 0, 79, 0
1, 93870, Note_on_c, 0, 80, 51
1, 93874, Note_on_c, 0, 58, 52
1, 93896, Note_on_c, 0, 80, 0
1, 93900, Note_on_c, 0, 79, 45
1, 93920, Note_on_c, 0, 79, 0
1, 93920, Note_on_c, 0, 63, 35
1, 93920, Note_on_c, 0, 80, 45
1, 93930, Note_on_c, 0, 79, 55
1, 93941, Note_on_c, 0, 80, 0
1, 93960, Note_on_c, 0, 79, 0
1, 93962, Note_on_c, 0, 58, 0
1, 93975, Note_on_c, 0, 77, 48
1, 93979, Note_on_c, 0, 67, 38
1, 94000, Note_on_c, 0, 79, 46
1, 94012, Note_on_c, 0, 77, 0
1, 94020, Note_on_c, 0, 63, 0
1, 94025, Note_on_c, 0, 67, 0
1, 94033, Note_on_c, 0, 80, 55
1, 94033, Note_on_c, 0, 58, 45
1, 94037, Note_on_c, 0, 79, 0
1, 94083, Note_on_c, 0, 65, 40
1, 94133, Note_on_c, 0, 68, 40
1, 94133, Note_on_c, 0, 77, 52
1, 94146, Note_on_c, 0, 68, 0
1, 94147, Note_on_c, 0, 80, 0
1, 94149, Note_on_c, 0, 65, 0
1, 94150, Note_on_c, 0, 58, 0
1, 94150, Note_on_c, 0, 77, 0
1, 94188, Note_on_c, 0, 63, 56
1, 94188, Note_on_c, 0, 67, 55
1, 94191, Note_on_c, 0, 75, 70
1, 94241, Note_on_c, 0, 79, 55
1, 94271, Note_on_c, 0, 75, 0
1, 94292, Note_on_c, 0, 82, 39
1, 94329, Note_on_c, 0, 79, 0
1, 94333, Note_on_c, 0, 82, 0
1, 94337, Note_on_c, 0, 87, 42
1, 94358, Note_on_c, 0, 67, 0
1, 94375, Note_on_c, 0, 63, 0
1, 94387, Note_on_c, 0, 87, 0
1, 94387, Note_on_c, 0, 82, 45
1, 94429, Note_on_c, 0, 82, 0
1, 94437, Note_on_c, 0, 79, 46
1, 94492, Note_on_c, 0, 80, 45
1, 94492, Note_on_c, 0, 58, 45
1, 94492, Note_on_c, 0, 46, 51
1, 94496, Note_on_c, 0, 79, 0
1, 94537, Note_on_c, 0, 46, 0
1, 94542, Note_on_c, 0, 77, 56
1, 94554, Note_on_c, 0, 80, 0
1, 94559, Note_on_c, 0, 58, 0
1, 94587, Note_on_c, 0, 77, 0
1, 94588, Note_on_c, 0, 74, 55
1, 94638, Note_on_c, 0, 75, 45
1, 94638, Note_on_c, 0, 63, 45
1, 94638, Note_on_c, 0, 51, 49
1, 94654, Note_on_c, 0, 74, 0
1, 94687, Note_on_c, 0, 63, 0
1, 94688, Note_on_c, 0, 79, 48
1, 94700, Note_on_c, 0, 51, 0
1, 94713, Note_on_c, 0, 75, 0
1, 94737, Note_on_c, 0, 70, 48
1, 94771, Note_on_c, 0, 70, 0
1, 94787, Note_on_c, 0, 75, 47
1, 94787, Note_on_c, 0, 55, 39
1, 94787, Note_on_c, 0, 43, 54
1, 94829, Note_on_c, 0, 43, 0
1, 94833, Note_on_c, 0, 55, 0
1, 94842, Note_on_c, 0, 70, 39
1, 94849, Note_on_c, 0, 75, 0
1, 94850, Note_on_c, 0, 79, 0
1, 94858, Note_on_c, 0, 70, 0
1, 94891, Note_on_c, 0, 67, 25
1, 94917, Note_on_c, 0, 67, 0
1, 94938, Note_on_c, 0, 58, 44
1, 94938, Note_on_c, 0, 46, 51
1, 94938, Note_on_c, 0, 68, 50
1, 94975, Note_on_c, 0, 58, 0
1, 94992, Note_on_c, 0, 68, 0
1, 94992, Note_on_c, 0, 46, 0
1, 94992, Note_on_c, 0, 65, 46
1, 95033, Note_on_c, 0, 65, 0
1, 95038, Note_on_c, 0, 62, 44
1, 95062, Note_on_c, 0, 62, 0
1, 95096, Note_on_c, 0, 39, 47
1, 95096, Note_on_c, 0, 51, 45
1, 95096, Note_on_c, 0, 63, 55
1, 95171, Note_on_c, 0, 39, 0
1, 95179, Note_on_c, 0, 63, 0
1, 95179, Note_on_c, 0, 51, 0
1, 95417, Note_on_c, 0, 63, 46
1, 95417, Note_on_c, 0, 58, 49
1, 95417, Note_on_c, 0, 55, 45
1, 95417, Note_on_c, 0, 51, 46
1, 95463, Note_on_c, 0, 51, 0
1, 95463, Note_on_c, 0, 63, 0
1, 95463, Note_on_c, 0, 58, 0
1, 95463, Note_on_c, 0, 55, 0
1, 95595, Note_on_c, 0, 58, 46
1, 95595, Note_on_c, 0, 51, 46
1, 95595, Note_on_c, 0, 55, 40
1, 95595, Note_on_c, 0, 63, 45
1, 96232, Note_on_c, 0, 58, 0
1, 96249, Note_on_c, 0, 51, 0
1, 96249, Note_on_c, 0, 55, 0
1, 96288, Note_on_c, 0, 63, 0
1, 96298, End_track
0, 0, End_of_file