0, 0, Header, 0, 1, 120
1, 0, Start_track
1, 0, Tempo, 600000
1, 2022, Note_on_c, 2, 58, 17
1, 2022, Note_on_c, 2, 62, 34
1, 2041, Note_on_c, 2, 70, 51
1, 2067, Note_on_c, 2, 72, 52
1, 2071, Note_on_c, 2, 70, 0
1, 2086, Note_on_c, 2, 70, 54
1, 2089, Note_on_c, 2, 72, 0
1, 2104, Note_on_c, 2, 72, 47
1, 2108, Note_on_c, 2, 70, 0
1, 2130, Note_on_c, 2, 70, 65
1, 2134, Note_on_c, 2, 72, 0
1, 2152, Note_on_c, 2, 58, 0
1, 2156, Note_on_c, 2, 72, 51
1, 2160, Note_on_c, 2, 70, 0
1, 2164, Note_on_c, 2, 62, 0
1, 2178, Note_on_c, 2, 74, 53
1, 2182, Note_on_c, 2, 72, 0
1, 2204, Note_on_c, 2, 70, 45
1, 2208, Note_on_c, 2, 74, 0
1, 2208, Note_on_c, 2, 63, 31
1, 2208, Note_on_c, 2, 60, 40
1, 2234, Note_on_c, 2, 69, 39
1, 2237, Note_on_c, 2, 70, 0
1, 2256, Note_on_c, 2, 72, 45
1, 2267, Note_on_c, 2, 69, 0
1, 2286, Note_on_c, 2, 70, 56
1, 2293, Note_on_c, 2, 72, 0
1, 2304, Note_on_c, 2, 63, 0
1, 2304, Note_on_c, 2, 60, 0
1, 2308, Note_on_c, 2, 70, 0
1, 2308, Note_on_c, 2, 69, 53
1, 2330, Note_on_c, 2, 75, 40
1, 2349, Note_on_c, 2, 69, 0
1, 2360, Note_on_c, 2, 75, 0
1, 2360, Note_on_c, 2, 72, 45
1, 2363, Note_on_c, 2, 65, 31
1, 2364, Note_on_c, 2, 62, 46
1, 2386, Note_on_c, 2, 70, 40
1, 2393, Note_on_c, 2, 72, 0
1, 2412, Note_on_c, 2, 74, 51
1, 2426, Note_on_c, 2, 70, 0
1, 2438, Note_on_c, 2, 72, 52
1, 2441, Note_on_c, 2, 74, 0
1, 2464, Note_on_c, 2, 70, 55
1, 2467, Note_on_c, 2, 72, 0
1, 2486, Note_on_c, 2, 77, 52
1, 2515, Note_on_c, 2, 77, 0
1, 2516, Note_on_c, 2, 74, 49
1, 2563, Note_on_c, 2, 70, 0
1, 2582, Note_on_c, 2, 74, 0
1, 2585, Note_on_c, 2, 65, 0
1, 2593, Note_on_c, 2, 62, 0
1, 2667, Note_on_c, 2, 70, 22
1, 2674, Note_on_c, 2, 75, 46
1, 2674, Note_on_c, 2, 51, 46
1, 2676, Note_on_c, 2, 63, 36
1, 2678, Note_on_c, 2, 79, 57
1, 2690, Note_on_c, 2, 70, 0
1, 2694, Note_on_c, 2, 63, 0
1, 2697, Note_on_c, 2, 75, 0
1, 2697, Note_on_c, 2, 79, 0
1, 2701, Note_on_c, 2, 51, 0
1, 2753, Note_on_c, 2, 70, 35
1, 2756, Note_on_c, 2, 74, 45
1, 2756, Note_on_c, 2, 58, 41
1, 2756, Note_on_c, 2, 46, 44
1, 2764, Note_on_c, 2, 77, 59
1, 2772, Note_on_c, 2, 74, 0
1, 2776, Note_on_c, 2, 70, 0
1, 2794, Note_on_c, 2, 77, 0
1, 2842, Note_on_c, 2, 77, 79
1, 2861, Note_on_c, 2, 82, 63
1, 2872, Note_on_c, 2, 77, 0
1, 2880, Note_on_c, 2, 82, 0
1, 2880, Note_on_c, 2, 81, 63
1, 2902, Note_on_c, 2, 82, 60
1, 2913, Note_on_c, 2, 81, 0
1, 2924, Note_on_c, 2, 86, 57
1, 2928, Note_on_c, 2, 82, 0
1, 2932, Note_on_c, 2, 58, 0
1, 2943, Note_on_c, 2, 46, 0
1, 2947, Note_on_c, 2, 82, 65
1, 2955, Note_on_c, 2, 86, 0
1, 2970, Note_on_c, 2, 82, 0
1, 2970, Note_on_c, 2, 81, 59
1, 2988, Note_on_c, 2, 82, 55
1, 2992, Note_on_c, 2, 81, 0
1, 2999, Note_on_c, 2, 82, 0
1, 3010, Note_on_c, 2, 41, 50
1, 3011, Note_on_c, 2, 53, 43
1, 3014, Note_on_c, 2, 74, 53
1, 3014, Note_on_c, 2, 77, 68
1, 3025, Note_on_c, 2, 74, 0
1, 3025, Note_on_c, 2, 41, 0
1, 3026, Note_on_c, 2, 77, 0
1, 3029, Note_on_c, 2, 53, 0
1, 3059, Note_on_c, 2, 75, 59
1, 3059, Note_on_c, 2, 72, 47
1, 3066, Note_on_c, 2, 72, 0
1, 3066, Note_on_c, 2, 75, 0
1, 3107, Note_on_c, 2, 46, 51
1, 3108, Note_on_c, 2, 58, 45
1, 3111, Note_on_c, 2, 70, 63
1, 3111, Note_on_c, 2, 74, 62
1, 3223, Note_on_c, 2, 70, 0
1, 3223, Note_on_c, 2, 58, 0
1, 3227, Note_on_c, 2, 46, 0
1, 3234, Note_on_c, 2, 74, 0
1, 3432, Note_on_c, 2, 50, 29
1, 3436, Note_on_c, 2, 46, 35
1, 3438, Note_on_c, 2, 58, 45
1, 3461, Note_on_c, 2, 60, 49
1, 3465, Note_on_c, 2, 58, 0
1, 3479, Note_on_c, 2, 58, 53
1, 3483, Note_on_c, 2, 60, 0
1, 3498, Note_on_c, 2, 60, 53
1, 3502, Note_on_c, 2, 58, 0
1, 3520, Note_on_c, 2, 60, 0
1, 3520, Note_on_c, 2, 58, 66
1, 3531, Note_on_c, 2, 46, 0
1, 3538, Note_on_c, 2, 50, 0
1, 3542, Note_on_c, 2, 60, 52
1, 3550, Note_on_c, 2, 58, 0
1, 3568, Note_on_c, 2, 62, 52
1, 3572, Note_on_c, 2, 60, 0
1, 3594, Note_on_c, 2, 58, 44
1, 3594, Note_on_c, 2, 51, 35
1, 3598, Note_on_c, 2, 62, 0
1, 3598, Note_on_c, 2, 48, 47
1, 3620, Note_on_c, 2, 58, 0
1, 3620, Note_on_c, 2, 57, 45
1, 3646, Note_on_c, 2, 60, 45
1, 3658, Note_on_c, 2, 57, 0
1, 3672, Note_on_c, 2, 58, 57
1, 3679, Note_on_c, 2, 60, 0
1, 3698, Note_on_c, 2, 57, 45
1, 3702, Note_on_c, 2, 58, 0
1, 3702, Note_on_c, 2, 51, 0
1, 3709, Note_on_c, 2, 48, 0
1, 3724, Note_on_c, 2, 63, 39
1, 3754, Note_on_c, 2, 53, 38
1, 3754, Note_on_c, 2, 60, 50
1, 3757, Note_on_c, 2, 50, 47
1, 3761, Note_on_c, 2, 63, 0
1, 3765, Note_on_c, 2, 57, 0
1, 3783, Note_on_c, 2, 58, 52
1, 3787, Note_on_c, 2, 60, 0
1, 3809, Note_on_c, 2, 62, 46
1, 3817, Note_on_c, 2, 58, 0
1, 3839, Note_on_c, 2, 60, 49
1, 3846, Note_on_c, 2, 62, 0
1, 3865, Note_on_c, 2, 58, 48
1, 3872, Note_on_c, 2, 60, 0
1, 3888, Note_on_c, 2, 65, 48
1, 3920, Note_on_c, 2, 65, 0
1, 3924, Note_on_c, 2, 62, 56
1, 3991, Note_on_c, 2, 58, 0
1, 3998, Note_on_c, 2, 50, 0
1, 4002, Note_on_c, 2, 53, 0
1, 4009, Note_on_c, 2, 62, 0
1, 4076, Note_on_c, 2, 51, 39
1, 4084, Note_on_c, 2, 55, 47
1, 4095, Note_on_c, 2, 60, 33
1, 4095, Note_on_c, 2, 67, 39
1, 4124, Note_on_c, 2, 72, 45
1, 4139, Note_on_c, 2, 67, 0
1, 4146, Note_on_c, 2, 75, 46
1, 4150, Note_on_c, 2, 72, 0
1, 4172, Note_on_c, 2, 75, 0
1, 4172, Note_on_c, 2, 72, 51
1, 4194, Note_on_c, 2, 55, 0
1, 4198, Note_on_c, 2, 51, 0
1, 4199, Note_on_c, 2, 75, 39
1, 4205, Note_on_c, 2, 72, 0
1, 4213, Note_on_c, 2, 60, 0
1, 4224, Note_on_c, 2, 75, 0
1, 4224, Note_on_c, 2, 79, 49
1, 4235, Note_on_c, 2, 79, 0
1, 4254, Note_on_c, 2, 79, 46
1, 4254, Note_on_c, 2, 53, 45
1, 4254, Note_on_c, 2, 62, 45
1, 4280, Note_on_c, 2, 77, 45
1, 4283, Note_on_c, 2, 79, 0
1, 4287, Note_on_c, 2, 53, 0
1, 4290, Note_on_c, 2, 62, 0
1, 4302, Note_on_c, 2, 75, 45
1, 4306, Note_on_c, 2, 77, 0
1, 4324, Note_on_c, 2, 74, 40
1, 4328, Note_on_c, 2, 75, 0
1, 4335, Note_on_c, 2, 74, 0
1, 4343, Note_on_c, 2, 63, 40
1, 4344, Note_on_c, 2, 74, 52
1, 4347, Note_on_c, 2, 53, 38
1, 4361, Note_on_c, 2, 74, 0
1, 4365, Note_on_c, 2, 72, 53
1, 4387, Note_on_c, 2, 70, 53
1, 4391, Note_on_c, 2, 72, 0
1, 4391, Note_on_c, 2, 63, 0
1, 4394, Note_on_c, 2, 53, 0
1, 4406, Note_on_c, 2, 69, 46
1, 4410, Note_on_c, 2, 70, 0
1, 4435, Note_on_c, 2, 62, 37
1, 4436, Note_on_c, 2, 70, 56
1, 4439, Note_on_c, 2, 58, 44
1, 4443, Note_on_c, 2, 69, 0
1, 4458, Note_on_c, 2, 62, 0
1, 4465, Note_on_c, 2, 58, 0
1, 4480, Note_on_c, 2, 58, 31
1, 4480, Note_on_c, 2, 62, 31
1, 4495, Note_on_c, 2, 62, 0
1, 4495, Note_on_c, 2, 58, 0
1, 4520, Note_on_c, 2, 62, 31
1, 4524, Note_on_c, 2, 58, 37
1, 4532, Note_on_c, 2, 62, 0
1, 4535, Note_on_c, 2, 58, 0
1, 4565, Note_on_c, 2, 62, 33
1, 4565, Note_on_c, 2, 58, 37
1, 4580, Note_on_c, 2, 58, 0
1, 4580, Note_on_c, 2, 62, 0
1, 4609, Note_on_c, 2, 62, 35
1, 4610, Note_on_c, 2, 58, 39
1, 4620, Note_on_c, 2, 58, 0
1, 4620, Note_on_c, 2, 62, 0
1, 4621, Note_on_c, 2, 70, 0
1, 4654, Note_on_c, 2, 62, 35
1, 4654, Note_on_c, 2, 70, 44
1, 4654, Note_on_c, 2, 58, 36
1, 4665, Note_on_c, 2, 58, 0
1, 4665, Note_on_c, 2, 62, 0
1, 4672, Note_on_c, 2, 70, 0
1, 4695, Note_on_c, 2, 62, 39
1, 4695, Note_on_c, 2, 58, 37
1, 4699, Note_on_c, 2, 69, 53
1, 4706, Note_on_c, 2, 58, 0
1, 4706, Note_on_c, 2, 62, 0
1, 4710, Note_on_c, 2, 69, 0
1, 4739, Note_on_c, 2, 62, 45
1, 4739, Note_on_c, 2, 58, 40
1, 4739, Note_on_c, 2, 68, 44
1, 4747, Note_on_c, 2, 58, 0
1, 4747, Note_on_c, 2, 62, 0
1, 4750, Note_on_c, 2, 68, 0
1, 4784, Note_on_c, 2, 58, 46
1, 4784, Note_on_c, 2, 63, 62
1, 4788, Note_on_c, 2, 67, 65
1, 4810, Note_on_c, 2, 63, 0
1, 4810, Note_on_c, 2, 58, 0
1, 4828, Note_on_c, 2, 63, 45
1, 4832, Note_on_c, 2, 58, 39
1, 4832, Note_on_c, 2, 69, 48
1, 4840, Note_on_c, 2, 67, 0
1, 4847, Note_on_c, 2, 63, 0
1, 4847, Note_on_c, 2, 58, 0
1, 4850, Note_on_c, 2, 70, 59
1, 4854, Note_on_c, 2, 69, 0
1, 4869, Note_on_c, 2, 70, 0
1, 4872, Note_on_c, 2, 63, 32
1, 4872, Note_on_c, 2, 58, 38
1, 4872, Note_on_c, 2, 72, 57
1, 4887, Note_on_c, 2, 58, 0
1, 4887, Note_on_c, 2, 63, 0
1, 4894, Note_on_c, 2, 74, 48
1, 4898, Note_on_c, 2, 72, 0
1, 4910, Note_on_c, 2, 63, 37
1, 4910, Note_on_c, 2, 75, 46
1, 4913, Note_on_c, 2, 58, 45
1, 4917, Note_on_c, 2, 74, 0
1, 4924, Note_on_c, 2, 63, 0
1, 4928, Note_on_c, 2, 75, 0
1, 4928, Note_on_c, 2, 58, 0
1, 4932, Note_on_c, 2, 77, 56
1, 4950, Note_on_c, 2, 63, 35
1, 4954, Note_on_c, 2, 58, 37
1, 4955, Note_on_c, 2, 79, 60
1, 4961, Note_on_c, 2, 77, 0
1, 4965, Note_on_c, 2, 63, 0
1, 4965, Note_on_c, 2, 58, 0
1, 4976, Note_on_c, 2, 81, 55
1, 4983, Note_on_c, 2, 79, 0
1, 4995, Note_on_c, 2, 63, 36
1, 4995, Note_on_c, 2, 82, 60
1, 4998, Note_on_c, 2, 81, 0
1, 4998, Note_on_c, 2, 58, 43
1, 5010, Note_on_c, 2, 63, 0
1, 5013, Note_on_c, 2, 58, 0
1, 5017, Note_on_c, 2, 81, 68
1, 5020, Note_on_c, 2, 82, 0
1, 5035, Note_on_c, 2, 63, 34
1, 5039, Note_on_c, 2, 81, 0
1, 5039, Note_on_c, 2, 58, 40
1, 5039, Note_on_c, 2, 82, 54
1, 5050, Note_on_c, 2, 63, 0
1, 5054, Note_on_c, 2, 58, 0
1, 5058, Note_on_c, 2, 81, 49
1, 5062, Note_on_c, 2, 82, 0
1, 5076, Note_on_c, 2, 58, 43
1, 5077, Note_on_c, 2, 63, 40
1, 5080, Note_on_c, 2, 82, 53
1, 5084, Note_on_c, 2, 81, 0
1, 5095, Note_on_c, 2, 58, 0
1, 5095, Note_on_c, 2, 63, 0
1, 5099, Note_on_c, 2, 79, 54
1, 5106, Note_on_c, 2, 82, 0
1, 5121, Note_on_c, 2, 62, 47
1, 5122, Note_on_c, 2, 58, 48
1, 5122, Note_on_c, 2, 77, 59
1, 5124, Note_on_c, 2, 79, 0
1, 5143, Note_on_c, 2, 58, 0
1, 5147, Note_on_c, 2, 62, 0
1, 5162, Note_on_c, 2, 62, 40
1, 5162, Note_on_c, 2, 58, 45
1, 5180, Note_on_c, 2, 58, 0
1, 5180, Note_on_c, 2, 62, 0
1, 5206, Note_on_c, 2, 62, 39
1, 5206, Note_on_c, 2, 58, 38
1, 5221, Note_on_c, 2, 62, 0
1, 5224, Note_on_c, 2, 58, 0
1, 5247, Note_on_c, 2, 62, 40
1, 5247, Note_on_c, 2, 58, 42
1, 5258, Note_on_c, 2, 62, 0
1, 5262, Note_on_c, 2, 58, 0
1, 5291, Note_on_c, 2, 62, 48
1, 5292, Note_on_c, 2, 58, 62
1, 5295, Note_on_c, 2, 77, 0
1, 5302, Note_on_c, 2, 62, 0
1, 5303, Note_on_c, 2, 58, 0
1, 5336, Note_on_c, 2, 62, 44
1, 5336, Note_on_c, 2, 58, 54
1, 5340, Note_on_c, 2, 70, 56
1, 5347, Note_on_c, 2, 58, 0
1, 5347, Note_on_c, 2, 62, 0
1, 5354, Note_on_c, 2, 70, 0
1, 5380, Note_on_c, 2, 58, 52
1, 5380, Note_on_c, 2, 62, 41
1, 5380, Note_on_c, 2, 69, 54
1, 5392, Note_on_c, 2, 69, 0
1, 5392, Note_on_c, 2, 62, 0
1, 5392, Note_on_c, 2, 58, 0
1, 5425, Note_on_c, 2, 68, 60
1, 5425, Note_on_c, 2, 58, 53
1, 5426, Note_on_c, 2, 62, 47
1, 5435, Note_on_c, 2, 68, 0
1, 5436, Note_on_c, 2, 62, 0
1, 5436, Note_on_c, 2, 58, 0
1, 5469, Note_on_c, 2, 63, 59
1, 5470, Note_on_c, 2, 58, 55
1, 5473, Note_on_c, 2, 67, 59
1, 5499, Note_on_c, 2, 58, 0
1, 5499, Note_on_c, 2, 63, 0
1, 5513, Note_on_c, 2, 58, 41
1, 5513, Note_on_c, 2, 63, 43
1, 5513, Note_on_c, 2, 69, 46
1, 5524, Note_on_c, 2, 67, 0
1, 5528, Note_on_c, 2, 58, 0
1, 5528, Note_on_c, 2, 63, 0
1, 5536, Note_on_c, 2, 70, 56
1, 5540, Note_on_c, 2, 69, 0
1, 5554, Note_on_c, 2, 70, 0
1, 5554, Note_on_c, 2, 58, 42
1, 5554, Note_on_c, 2, 63, 46
1, 5558, Note_on_c, 2, 72, 55
1, 5565, Note_on_c, 2, 58, 0
1, 5569, Note_on_c, 2, 63, 0
1, 5576, Note_on_c, 2, 74, 37
1, 5580, Note_on_c, 2, 72, 0
1, 5595, Note_on_c, 2, 63, 38
1, 5595, Note_on_c, 2, 75, 54
1, 5598, Note_on_c, 2, 74, 0
1, 5598, Note_on_c, 2, 58, 36
1, 5610, Note_on_c, 2, 58, 0
1, 5613, Note_on_c, 2, 63, 0
1, 5614, Note_on_c, 2, 75, 0
1, 5617, Note_on_c, 2, 77, 37
1, 5639, Note_on_c, 2, 63, 46
1, 5639, Note_on_c, 2, 79, 46
1, 5639, Note_on_c, 2, 58, 35
1, 5647, Note_on_c, 2, 77, 0
1, 5658, Note_on_c, 2, 58, 0
1, 5662, Note_on_c, 2, 63, 0
1, 5662, Note_on_c, 2, 81, 48
1, 5669, Note_on_c, 2, 79, 0
1, 5680, Note_on_c, 2, 63, 39
1, 5680, Note_on_c, 2, 58, 38
1, 5682, Note_on_c, 2, 82, 53
1, 5684, Note_on_c, 2, 81, 0
1, 5695, Note_on_c, 2, 63, 0
1, 5698, Note_on_c, 2, 58, 0
1, 5703, Note_on_c, 2, 81, 66
1, 5706, Note_on_c, 2, 82, 0
1, 5721, Note_on_c, 2, 63, 39
1, 5725, Note_on_c, 2, 58, 40
1, 5725, Note_on_c, 2, 82, 55
1, 5728, Note_on_c, 2, 81, 0
1, 5736, Note_on_c, 2, 63, 0
1, 5736, Note_on_c, 2, 58, 0
1, 5747, Note_on_c, 2, 81, 59
1, 5751, Note_on_c, 2, 82, 0
1, 5765, Note_on_c, 2, 63, 40
1, 5765, Note_on_c, 2, 58, 40
1, 5765, Note_on_c, 2, 82, 54
1, 5769, Note_on_c, 2, 81, 0
1, 5777, Note_on_c, 2, 63, 0
1, 5777, Note_on_c, 2, 58, 0
1, 5792, Note_on_c, 2, 79, 45
1, 5799, Note_on_c, 2, 82, 0
1, 5806, Note_on_c, 2, 63, 48
1, 5806, Note_on_c, 2, 58, 42
1, 5810, Note_on_c, 2, 79, 0
1, 5810, Note_on_c, 2, 77, 68
1, 5817, Note_on_c, 2, 58, 0
1, 5821, Note_on_c, 2, 63, 0
1, 5839, Note_on_c, 2, 77, 0
1, 5851, Note_on_c, 2, 58, 51
1, 5899, Note_on_c, 2, 62, 45
1, 5921, Note_on_c, 2, 82, 62
1, 5940, Note_on_c, 2, 65, 51
1, 5943, Note_on_c, 2, 82, 0
1, 5943, Note_on_c, 2, 58, 0
1, 5944, Note_on_c, 2, 84, 56
1, 5962, Note_on_c, 2, 82, 72
1, 5969, Note_on_c, 2, 84, 0
1, 5984, Note_on_c, 2, 82, 0
1, 5984, Note_on_c, 2, 62, 0
1, 5984, Note_on_c, 2, 58, 63
1, 5985, Note_on_c, 2, 86, 59
1, 5988, Note_on_c, 2, 65, 0
1, 6010, Note_on_c, 2, 84, 47
1, 6018, Note_on_c, 2, 86, 0
1, 6029, Note_on_c, 2, 82, 66
1, 6036, Note_on_c, 2, 84, 0
1, 6051, Note_on_c, 2, 81, 63
1, 6062, Note_on_c, 2, 82, 0
1, 6073, Note_on_c, 2, 79, 68
1, 6076, Note_on_c, 2, 81, 0
1, 6084, Note_on_c, 2, 58, 0
1, 6095, Note_on_c, 2, 77, 54
1, 6098, Note_on_c, 2, 79, 0
1, 6118, Note_on_c, 2, 75, 68
1, 6121, Note_on_c, 2, 77, 0
1, 6136, Note_on_c, 2, 75, 0
1, 6140, Note_on_c, 2, 74, 59
1, 6162, Note_on_c, 2, 75, 88
1, 6169, Note_on_c, 2, 74, 0
1, 6203, Note_on_c, 2, 53, 54
1, 6218, Note_on_c, 2, 75, 0
1, 6251, Note_on_c, 2, 57, 54
1, 6273, Note_on_c, 2, 81, 59
1, 6295, Note_on_c, 2, 53, 0
1, 6296, Note_on_c, 2, 81, 0
1, 6296, Note_on_c, 2, 82, 62
1, 6296, Note_on_c, 2, 60, 54
1, 6314, Note_on_c, 2, 81, 60
1, 6317, Note_on_c, 2, 82, 0
1, 6332, Note_on_c, 2, 60, 0
1, 6332, Note_on_c, 2, 53, 63
1, 6336, Note_on_c, 2, 57, 0
1, 6336, Note_on_c, 2, 84, 55
1, 6340, Note_on_c, 2, 81, 0
1, 6358, Note_on_c, 2, 82, 68
1, 6366, Note_on_c, 2, 84, 0
1, 6377, Note_on_c, 2, 81, 66
1, 6384, Note_on_c, 2, 82, 0
1, 6399, Note_on_c, 2, 81, 0
1, 6399, Note_on_c, 2, 79, 70
1, 6421, Note_on_c, 2, 77, 62
1, 6425, Note_on_c, 2, 79, 0
1, 6440, Note_on_c, 2, 75, 66
1, 6447, Note_on_c, 2, 77, 0
1, 6462, Note_on_c, 2, 75, 0
1, 6462, Note_on_c, 2, 74, 65
1, 6484, Note_on_c, 2, 72, 56
1, 6496, Note_on_c, 2, 74, 0
1, 6503, Note_on_c, 2, 53, 0
1, 6507, Note_on_c, 2, 74, 56
1, 6510, Note_on_c, 2, 72, 0
1, 6551, Note_on_c, 2, 34, 62
1, 6551, Note_on_c, 2, 46, 68
1, 6562, Note_on_c, 2, 46, 0
1, 6562, Note_on_c, 2, 34, 0
1, 6592, Note_on_c, 2, 38, 62
1, 6595, Note_on_c, 2, 50, 55
1, 6606, Note_on_c, 2, 50, 0
1, 6606, Note_on_c, 2, 38, 0
1, 6618, Note_on_c, 2, 77, 49
1, 6636, Note_on_c, 2, 77, 0
1, 6636, Note_on_c, 2, 41, 56
1, 6637, Note_on_c, 2, 53, 54
1, 6637, Note_on_c, 2, 79, 48
1, 6644, Note_on_c, 2, 74, 0
1, 6647, Note_on_c, 2, 53, 0
1, 6651, Note_on_c, 2, 41, 0
1, 6658, Note_on_c, 2, 77, 57
1, 6662, Note_on_c, 2, 79, 0
1, 6680, Note_on_c, 2, 38, 65
1, 6680, Note_on_c, 2, 50, 57
1, 6682, Note_on_c, 2, 82, 65
1, 6684, Note_on_c, 2, 77, 0
1, 6702, Note_on_c, 2, 81, 66
1, 6710, Note_on_c, 2, 82, 0
1, 6721, Note_on_c, 2, 79, 66
1, 6728, Note_on_c, 2, 81, 0
1, 6743, Note_on_c, 2, 79, 0
1, 6747, Note_on_c, 2, 77, 66
1, 6758, Note_on_c, 2, 38, 0
1, 6769, Note_on_c, 2, 77, 0
1, 6769, Note_on_c, 2, 50, 0
1, 6770, Note_on_c, 2, 75, 65
1, 6788, Note_on_c, 2, 75, 0
1, 6788, Note_on_c, 2, 74, 65
1, 6807, Note_on_c, 2, 72, 68
1, 6810, Note_on_c, 2, 74, 0
1, 6817, Note_on_c, 2, 72, 0
1, 6829, Note_on_c, 2, 50, 66
1, 6830, Note_on_c, 2, 53, 53
1, 6830, Note_on_c, 2, 71, 65
1, 6836, Note_on_c, 2, 53, 0
1, 6836, Note_on_c, 2, 50, 0
1, 6854, Note_on_c, 2, 71, 0
1, 6854, Note_on_c, 2, 51, 72
1, 6854, Note_on_c, 2, 55, 63
1, 6854, Note_on_c, 2, 74, 57
1, 6873, Note_on_c, 2, 74, 0
1, 6873, Note_on_c, 2, 72, 66
1, 6899, Note_on_c, 2, 75, 59
1, 6914, Note_on_c, 2, 72, 0
1, 6922, Note_on_c, 2, 74, 65
1, 6925, Note_on_c, 2, 75, 0
1, 6940, Note_on_c, 2, 77, 57
1, 6944, Note_on_c, 2, 74, 0
1, 6962, Note_on_c, 2, 75, 65
1, 6969, Note_on_c, 2, 77, 0
1, 6974, Note_on_c, 2, 51, 0
1, 6974, Note_on_c, 2, 55, 0
1, 6981, Note_on_c, 2, 79, 56
1, 6984, Note_on_c, 2, 75, 0
1, 7003, Note_on_c, 2, 78, 65
1, 7007, Note_on_c, 2, 79, 0
1, 7025, Note_on_c, 2, 79, 62
1, 7029, Note_on_c, 2, 78, 0
1, 7048, Note_on_c, 2, 77, 57
1, 7055, Note_on_c, 2, 79, 0
1, 7066, Note_on_c, 2, 75, 56
1, 7073, Note_on_c, 2, 77, 0
1, 7092, Note_on_c, 2, 74, 54
1, 7099, Note_on_c, 2, 75, 0
1, 7110, Note_on_c, 2, 74, 0
1, 7110, Note_on_c, 2, 72, 60
1, 7129, Note_on_c, 2, 72, 0
1, 7129, Note_on_c, 2, 70, 60
1, 7147, Note_on_c, 2, 70, 0
1, 7152, Note_on_c, 2, 52, 56
1, 7152, Note_on_c, 2, 55, 48
1, 7152, Note_on_c, 2, 69, 55
1, 7170, Note_on_c, 2, 52, 0
1, 7174, Note_on_c, 2, 55, 0
1, 7174, Note_on_c, 2, 70, 59
1, 7177, Note_on_c, 2, 69, 0
1, 7195, Note_on_c, 2, 70, 0
1, 7195, Note_on_c, 2, 53, 68
1, 7196, Note_on_c, 2, 57, 57
1, 7196, Note_on_c, 2, 69, 55
1, 7218, Note_on_c, 2, 70, 65
1, 7236, Note_on_c, 2, 69, 0
1, 7236, Note_on_c, 2, 72, 55
1, 7244, Note_on_c, 2, 70, 0
1, 7259, Note_on_c, 2, 74, 54
1, 7266, Note_on_c, 2, 72, 0
1, 7281, Note_on_c, 2, 76, 66
1, 7284, Note_on_c, 2, 74, 0
1, 7292, Note_on_c, 2, 76, 0
1, 7296, Note_on_c, 2, 57, 0
1, 7303, Note_on_c, 2, 77, 54
1, 7306, Note_on_c, 2, 53, 0
1, 7325, Note_on_c, 2, 77, 0
1, 7325, Note_on_c, 2, 76, 57
1, 7347, Note_on_c, 2, 77, 50
1, 7351, Note_on_c, 2, 76, 0
1, 7366, Note_on_c, 2, 45, 52
1, 7370, Note_on_c, 2, 65, 53
1, 7374, Note_on_c, 2, 77, 0
1, 7388, Note_on_c, 2, 46, 53
1, 7396, Note_on_c, 2, 45, 0
1, 7407, Note_on_c, 2, 48, 66
1, 7414, Note_on_c, 2, 46, 0
1, 7429, Note_on_c, 2, 50, 60
1, 7440, Note_on_c, 2, 48, 0
1, 7451, Note_on_c, 2, 50, 0
1, 7451, Note_on_c, 2, 52, 62
1, 7470, Note_on_c, 2, 53, 65
1, 7481, Note_on_c, 2, 52, 0
1, 7492, Note_on_c, 2, 52, 57
1, 7500, Note_on_c, 2, 53, 0
1, 7514, Note_on_c, 2, 53, 65
1, 7521, Note_on_c, 2, 53, 0
1, 7521, Note_on_c, 2, 52, 0
1, 7540, Note_on_c, 2, 41, 72
1, 7606, Note_on_c, 2, 65, 0
1, 7614, Note_on_c, 2, 41, 0
1, 7696, Note_on_c, 2, 84, 38
1, 7718, Note_on_c, 2, 84, 0
1, 7740, Note_on_c, 2, 84, 45
1, 7755, Note_on_c, 2, 84, 0
1, 7785, Note_on_c, 2, 84, 49
1, 7796, Note_on_c, 2, 84, 0
1, 7825, Note_on_c, 2, 84, 41
1, 7840, Note_on_c, 2, 84, 0
1, 7874, Note_on_c, 2, 84, 48
1, 7888, Note_on_c, 2, 84, 0
1, 7922, Note_on_c, 2, 53, 35
1, 7922, Note_on_c, 2, 84, 45
1, 7962, Note_on_c, 2, 60, 38
1, 8004, Note_on_c, 2, 57, 42
1, 8006, Note_on_c, 2, 60, 0
1, 8044, Note_on_c, 2, 53, 0
1, 8048, Note_on_c, 2, 60, 44
1, 8048, Note_on_c, 2, 82, 47
1, 8055, Note_on_c, 2, 84, 0
1, 8055, Note_on_c, 2, 57, 0
1, 8066, Note_on_c, 2, 81, 46
1, 8074, Note_on_c, 2, 82, 0
1, 8085, Note_on_c, 2, 55, 48
1, 8088, Note_on_c, 2, 60, 0
1, 8088, Note_on_c, 2, 79, 52
1, 8092, Note_on_c, 2, 81, 0
1, 8129, Note_on_c, 2, 77, 50
1, 8129, Note_on_c, 2, 60, 42
1, 8137, Note_on_c, 2, 79, 0
1, 8170, Note_on_c, 2, 77, 0
1, 8170, Note_on_c, 2, 76, 51
1, 8170, Note_on_c, 2, 58, 41
1, 8174, Note_on_c, 2, 60, 0
1, 8177, Note_on_c, 2, 55, 0
1, 8207, Note_on_c, 2, 60, 45
1, 8210, Note_on_c, 2, 58, 0
1, 8211, Note_on_c, 2, 79, 49
1, 8214, Note_on_c, 2, 76, 0
1, 8252, Note_on_c, 2, 79, 0
1, 8252, Note_on_c, 2, 57, 39
1, 8252, Note_on_c, 2, 77, 47
1, 8288, Note_on_c, 2, 60, 0
1, 8296, Note_on_c, 2, 53, 40
1, 8340, Note_on_c, 2, 57, 0
1, 8341, Note_on_c, 2, 53, 0
1, 8341, Note_on_c, 2, 77, 0
1, 8341, Note_on_c, 2, 72, 45
1, 8342, Note_on_c, 2, 60, 49
1, 8381, Note_on_c, 2, 84, 46
1, 8392, Note_on_c, 2, 72, 0
1, 8399, Note_on_c, 2, 60, 0
1, 8400, Note_on_c, 2, 84, 0
1, 8426, Note_on_c, 2, 84, 47
1, 8437, Note_on_c, 2, 84, 0
1, 8466, Note_on_c, 2, 84, 40
1, 8478, Note_on_c, 2, 84, 0
1, 8511, Note_on_c, 2, 84, 39
1, 8522, Note_on_c, 2, 84, 0
1, 8555, Note_on_c, 2, 84, 45
1, 8570, Note_on_c, 2, 84, 0
1, 8611, Note_on_c, 2, 84, 46
1, 8615, Note_on_c, 2, 53, 44
1, 8659, Note_on_c, 2, 60, 45
1, 8696, Note_on_c, 2, 57, 48
1, 8699, Note_on_c, 2, 60, 0
1, 8711, Note_on_c, 2, 53, 0
1, 8737, Note_on_c, 2, 60, 45
1, 8740, Note_on_c, 2, 82, 55
1, 8744, Note_on_c, 2, 84, 0
1, 8748, Note_on_c, 2, 57, 0
1, 8759, Note_on_c, 2, 81, 49
1, 8763, Note_on_c, 2, 82, 0
1, 8777, Note_on_c, 2, 81, 0
1, 8778, Note_on_c, 2, 60, 0
1, 8778, Note_on_c, 2, 52, 50
1, 8778, Note_on_c, 2, 79, 68
1, 8818, Note_on_c, 2, 60, 46
1, 8818, Note_on_c, 2, 81, 48
1, 8859, Note_on_c, 2, 60, 0
1, 8859, Note_on_c, 2, 79, 0
1, 8859, Note_on_c, 2, 82, 49
1, 8859, Note_on_c, 2, 55, 31
1, 8866, Note_on_c, 2, 81, 0
1, 8900, Note_on_c, 2, 52, 0
1, 8903, Note_on_c, 2, 82, 0
1, 8904, Note_on_c, 2, 55, 0
1, 8904, Note_on_c, 2, 79, 55
1, 8904, Note_on_c, 2, 60, 45
1, 8945, Note_on_c, 2, 53, 45
1, 8945, Note_on_c, 2, 81, 53
1, 8951, Note_on_c, 2, 79, 0
1, 8952, Note_on_c, 2, 60, 0
1, 8989, Note_on_c, 2, 57, 42
1, 9033, Note_on_c, 2, 60, 57
1, 9074, Note_on_c, 2, 84, 48
1, 9081, Note_on_c, 2, 81, 0
1, 9088, Note_on_c, 2, 84, 0
1, 9118, Note_on_c, 2, 84, 60
1, 9129, Note_on_c, 2, 84, 0
1, 9159, Note_on_c, 2, 84, 68
1, 9174, Note_on_c, 2, 84, 0
1, 9204, Note_on_c, 2, 84, 66
1, 9211, Note_on_c, 2, 84, 0
1, 9214, Note_on_c, 2, 60, 0
1, 9218, Note_on_c, 2, 57, 0
1, 9218, Note_on_c, 2, 53, 0
1, 9248, Note_on_c, 2, 85, 68
1, 9289, Note_on_c, 2, 85, 0
1, 9293, Note_on_c, 2, 46, 62
1, 9293, Note_on_c, 2, 58, 54
1, 9293, Note_on_c, 2, 86, 65
1, 9318, Note_on_c, 2, 86, 0
1, 9318, Note_on_c, 2, 74, 57
1, 9337, Note_on_c, 2, 73, 72
1, 9344, Note_on_c, 2, 74, 0
1, 9359, Note_on_c, 2, 73, 0
1, 9359, Note_on_c, 2, 74, 57
1, 9382, Note_on_c, 2, 74, 0
1, 9382, Note_on_c, 2, 75, 70
1, 9396, Note_on_c, 2, 75, 0
1, 9400, Note_on_c, 2, 74, 63
1, 9422, Note_on_c, 2, 74, 0
1, 9422, Note_on_c, 2, 76, 68
1, 9441, Note_on_c, 2, 76, 0
1, 9444, Note_on_c, 2, 74, 70
1, 9463, Note_on_c, 2, 74, 0
1, 9467, Note_on_c, 2, 77, 60
1, 9485, Note_on_c, 2, 77, 0
1, 9485, Note_on_c, 2, 74, 65
1, 9504, Note_on_c, 2, 74, 0
1, 9508, Note_on_c, 2, 78, 66
1, 9526, Note_on_c, 2, 78, 0
1, 9529, Note_on_c, 2, 74, 65
1, 9552, Note_on_c, 2, 74, 0
1, 9552, Note_on_c, 2, 79, 60
1, 9570, Note_on_c, 2, 79, 0
1, 9574, Note_on_c, 2, 74, 68
1, 9586, Note_on_c, 2, 46, 0
1, 9593, Note_on_c, 2, 58, 0
1, 9593, Note_on_c, 2, 81, 65
1, 9596, Note_on_c, 2, 74, 0
1, 9611, Note_on_c, 2, 81, 0
1, 9615, Note_on_c, 2, 74, 66
1, 9637, Note_on_c, 2, 82, 72
1, 9637, Note_on_c, 2, 55, 62
1, 9659, Note_on_c, 2, 55, 0
1, 9659, Note_on_c, 2, 57, 56
1, 9682, Note_on_c, 2, 58, 68
1, 9685, Note_on_c, 2, 57, 0
1, 9700, Note_on_c, 2, 58, 0
1, 9700, Note_on_c, 2, 57, 57
1, 9722, Note_on_c, 2, 57, 0
1, 9723, Note_on_c, 2, 55, 72
1, 9741, Note_on_c, 2, 55, 0
1, 9741, Note_on_c, 2, 57, 55
1, 9763, Note_on_c, 2, 57, 0
1, 9763, Note_on_c, 2, 53, 79
1, 9786, Note_on_c, 2, 53, 0
1, 9786, Note_on_c, 2, 55, 62
1, 9804, Note_on_c, 2, 55, 0
1, 9808, Note_on_c, 2, 52, 79
1, 9826, Note_on_c, 2, 53, 57
1, 9830, Note_on_c, 2, 52, 0
1, 9849, Note_on_c, 2, 50, 79
1, 9852, Note_on_c, 2, 53, 0
1, 9870, Note_on_c, 2, 50, 0
1, 9870, Note_on_c, 2, 52, 59
1, 9878, Note_on_c, 2, 74, 0
1, 9882, Note_on_c, 2, 82, 0
1, 9889, Note_on_c, 2, 52, 0
1, 9893, Note_on_c, 2, 48, 54
1, 9893, Note_on_c, 2, 47, 56
1, 9896, Note_on_c, 2, 81, 53
1, 9904, Note_on_c, 2, 82, 56
1, 9908, Note_on_c, 2, 81, 0
1, 9911, Note_on_c, 2, 47, 0
1, 9915, Note_on_c, 2, 48, 0
1, 9915, Note_on_c, 2, 52, 39
1, 9918, Note_on_c, 2, 82, 0
1, 9918, Note_on_c, 2, 50, 36
1, 9918, Note_on_c, 2, 81, 60
1, 9930, Note_on_c, 2, 81, 0
1, 9930, Note_on_c, 2, 82, 54
1, 9937, Note_on_c, 2, 50, 0
1, 9941, Note_on_c, 2, 82, 0
1, 9941, Note_on_c, 2, 52, 0
1, 9941, Note_on_c, 2, 46, 55
1, 9941, Note_on_c, 2, 81, 52
1, 9948, Note_on_c, 2, 81, 0
1, 9952, Note_on_c, 2, 82, 46
1, 9963, Note_on_c, 2, 82, 0
1, 9963, Note_on_c, 2, 81, 33
1, 9986, Note_on_c, 2, 82, 45
1, 9992, Note_on_c, 2, 81, 0
1, 9992, Note_on_c, 2, 46, 0
1, 9993, Note_on_c, 2, 45, 52
1, 9993, Note_on_c, 2, 57, 55
1, 9993, Note_on_c, 2, 84, 65
1, 10004, Note_on_c, 2, 82, 0
1, 10011, Note_on_c, 2, 72, 70
1, 10015, Note_on_c, 2, 84, 0
1, 10034, Note_on_c, 2, 71, 83
1, 10041, Note_on_c, 2, 72, 0
1, 10056, Note_on_c, 2, 72, 60
1, 10060, Note_on_c, 2, 71, 0
1, 10074, Note_on_c, 2, 72, 0
1, 10074, Note_on_c, 2, 73, 68
1, 10092, Note_on_c, 2, 72, 56
1, 10096, Note_on_c, 2, 73, 0
1, 10122, Note_on_c, 2, 72, 0
1, 10122, Note_on_c, 2, 74, 66
1, 10144, Note_on_c, 2, 74, 0
1, 10144, Note_on_c, 2, 72, 66
1, 10167, Note_on_c, 2, 75, 42
1, 10178, Note_on_c, 2, 72, 0
1, 10189, Note_on_c, 2, 75, 0
1, 10189, Note_on_c, 2, 72, 56
1, 10208, Note_on_c, 2, 76, 68
1, 10211, Note_on_c, 2, 72, 0
1, 10230, Note_on_c, 2, 76, 0
1, 10230, Note_on_c, 2, 72, 57
1, 10252, Note_on_c, 2, 77, 65
1, 10256, Note_on_c, 2, 72, 0
1, 10274, Note_on_c, 2, 77, 0
1, 10275, Note_on_c, 2, 72, 48
1, 10297, Note_on_c, 2, 45, 0
1, 10297, Note_on_c, 2, 79, 55
1, 10315, Note_on_c, 2, 79, 0
1, 10337, Note_on_c, 2, 53, 63
1, 10338, Note_on_c, 2, 81, 65
1, 10341, Note_on_c, 2, 57, 0
1, 10356, Note_on_c, 2, 55, 72
1, 10363, Note_on_c, 2, 53, 0
1, 10378, Note_on_c, 2, 55, 0
1, 10378, Note_on_c, 2, 57, 68
1, 10396, Note_on_c, 2, 55, 53
1, 10415, Note_on_c, 2, 57, 0
1, 10418, Note_on_c, 2, 53, 60
1, 10422, Note_on_c, 2, 55, 0
1, 10437, Note_on_c, 2, 53, 0
1, 10438, Note_on_c, 2, 55, 55
1, 10460, Note_on_c, 2, 52, 70
1, 10463, Note_on_c, 2, 55, 0
1, 10482, Note_on_c, 2, 52, 0
1, 10482, Note_on_c, 2, 53, 50
1, 10504, Note_on_c, 2, 53, 0
1, 10504, Note_on_c, 2, 50, 70
1, 10523, Note_on_c, 2, 50, 0
1, 10526, Note_on_c, 2, 52, 59
1, 10545, Note_on_c, 2, 52, 0
1, 10545, Note_on_c, 2, 48, 66
1, 10559, Note_on_c, 2, 72, 0
1, 10567, Note_on_c, 2, 48, 0
1, 10567, Note_on_c, 2, 52, 57
1, 10571, Note_on_c, 2, 81, 0
1, 10589, Note_on_c, 2, 46, 70
1, 10593, Note_on_c, 2, 52, 0
1, 10593, Note_on_c, 2, 81, 50
1, 10601, Note_on_c, 2, 82, 50
1, 10604, Note_on_c, 2, 81, 0
1, 10615, Note_on_c, 2, 82, 0
1, 10615, Note_on_c, 2, 46, 0
1, 10615, Note_on_c, 2, 48, 40
1, 10615, Note_on_c, 2, 81, 53
1, 10615, Note_on_c, 2, 50, 38
1, 10626, Note_on_c, 2, 81, 0
1, 10626, Note_on_c, 2, 82, 56
1, 10630, Note_on_c, 2, 50, 0
1, 10634, Note_on_c, 2, 48, 0
1, 10634, Note_on_c, 2, 46, 39
1, 10638, Note_on_c, 2, 82, 0
1, 10638, Note_on_c, 2, 81, 53
1, 10648, Note_on_c, 2, 81, 0
1, 10648, Note_on_c, 2, 82, 50
1, 10660, Note_on_c, 2, 82, 0
1, 10663, Note_on_c, 2, 81, 47
1, 10678, Note_on_c, 2, 81, 0
1, 10682, Note_on_c, 2, 46, 0
1, 10689, Note_on_c, 2, 55, 45
1, 10693, Note_on_c, 2, 43, 55
1, 10693, Note_on_c, 2, 82, 59
1, 10715, Note_on_c, 2, 70, 72
1, 10722, Note_on_c, 2, 82, 0
1, 10741, Note_on_c, 2, 69, 60
1, 10745, Note_on_c, 2, 70, 0
1, 10760, Note_on_c, 2, 70, 52
1, 10764, Note_on_c, 2, 69, 0
1, 10782, Note_on_c, 2, 72, 62
1, 10786, Note_on_c, 2, 70, 0
1, 10804, Note_on_c, 2, 70, 72
1, 10808, Note_on_c, 2, 72, 0
1, 10823, Note_on_c, 2, 74, 65
1, 10826, Note_on_c, 2, 70, 0
1, 10845, Note_on_c, 2, 74, 0
1, 10848, Note_on_c, 2, 70, 63
1, 10867, Note_on_c, 2, 75, 68
1, 10870, Note_on_c, 2, 70, 0
1, 10889, Note_on_c, 2, 70, 53
1, 10893, Note_on_c, 2, 75, 0
1, 10912, Note_on_c, 2, 76, 56
1, 10915, Note_on_c, 2, 70, 0
1, 10934, Note_on_c, 2, 76, 0
1, 10934, Note_on_c, 2, 70, 46
1, 10956, Note_on_c, 2, 77, 49
1, 10964, Note_on_c, 2, 70, 0
1, 10982, Note_on_c, 2, 77, 0
1, 10982, Note_on_c, 2, 70, 49
1, 10997, Note_on_c, 2, 43, 0
1, 11008, Note_on_c, 2, 70, 0
1, 11008, Note_on_c, 2, 78, 44
1, 11034, Note_on_c, 2, 70, 39
1, 11037, Note_on_c, 2, 78, 0
1, 11064, Note_on_c, 2, 70, 0
1, 11071, Note_on_c, 2, 48, 40
1, 11075, Note_on_c, 2, 79, 46
1, 11090, Note_on_c, 2, 55, 0
1, 11097, Note_on_c, 2, 52, 35
1, 11119, Note_on_c, 2, 55, 39
1, 11123, Note_on_c, 2, 52, 0
1, 11142, Note_on_c, 2, 52, 42
1, 11145, Note_on_c, 2, 48, 0
1, 11156, Note_on_c, 2, 79, 0
1, 11164, Note_on_c, 2, 52, 0
1, 11164, Note_on_c, 2, 48, 45
1, 11171, Note_on_c, 2, 55, 0
1, 11186, Note_on_c, 2, 52, 45
1, 11208, Note_on_c, 2, 52, 0
1, 11208, Note_on_c, 2, 55, 45
1, 11208, Note_on_c, 2, 82, 57
1, 11226, Note_on_c, 2, 82, 0
1, 11230, Note_on_c, 2, 52, 42
1, 11234, Note_on_c, 2, 48, 0
1, 11249, Note_on_c, 2, 52, 0
1, 11252, Note_on_c, 2, 55, 0
1, 11253, Note_on_c, 2, 48, 40
1, 11253, Note_on_c, 2, 81, 52
1, 11271, Note_on_c, 2, 52, 42
1, 11294, Note_on_c, 2, 52, 0
1, 11296, Note_on_c, 2, 55, 50
1, 11297, Note_on_c, 2, 79, 53
1, 11300, Note_on_c, 2, 81, 0
1, 11319, Note_on_c, 2, 48, 0
1, 11319, Note_on_c, 2, 52, 47
1, 11338, Note_on_c, 2, 52, 0
1, 11341, Note_on_c, 2, 55, 0
1, 11342, Note_on_c, 2, 48, 45
1, 11345, Note_on_c, 2, 77, 42
1, 11348, Note_on_c, 2, 79, 0
1, 11364, Note_on_c, 2, 52, 44
1, 11390, Note_on_c, 2, 52, 0
1, 11390, Note_on_c, 2, 55, 48
1, 11390, Note_on_c, 2, 76, 48
1, 11393, Note_on_c, 2, 77, 0
1, 11412, Note_on_c, 2, 48, 0
1, 11412, Note_on_c, 2, 52, 41
1, 11434, Note_on_c, 2, 52, 0
1, 11434, Note_on_c, 2, 48, 44
1, 11438, Note_on_c, 2, 55, 0
1, 11438, Note_on_c, 2, 79, 48
1, 11445, Note_on_c, 2, 76, 0
1, 11456, Note_on_c, 2, 53, 40
1, 11478, Note_on_c, 2, 77, 50
1, 11482, Note_on_c, 2, 53, 0
1, 11482, Note_on_c, 2, 57, 54
1, 11486, Note_on_c, 2, 79, 0
1, 11504, Note_on_c, 2, 48, 0
1, 11505, Note_on_c, 2, 53, 42
1, 11527, Note_on_c, 2, 53, 0
1, 11527, Note_on_c, 2, 48, 55
1, 11530, Note_on_c, 2, 57, 0
1, 11548, Note_on_c, 2, 53, 44
1, 11567, Note_on_c, 2, 57, 52
1, 11571, Note_on_c, 2, 53, 0
1, 11571, Note_on_c, 2, 84, 47
1, 11578, Note_on_c, 2, 77, 0
1, 11593, Note_on_c, 2, 48, 0
1, 11593, Note_on_c, 2, 53, 42
1, 11612, Note_on_c, 2, 53, 0
1, 11615, Note_on_c, 2, 84, 0
1, 11616, Note_on_c, 2, 48, 54
1, 11616, Note_on_c, 2, 82, 52
1, 11619, Note_on_c, 2, 57, 0
1, 11634, Note_on_c, 2, 51, 56
1, 11656, Note_on_c, 2, 54, 54
1, 11660, Note_on_c, 2, 81, 57
1, 11664, Note_on_c, 2, 51, 0
1, 11667, Note_on_c, 2, 82, 0
1, 11678, Note_on_c, 2, 48, 0
1, 11678, Note_on_c, 2, 51, 45
1, 11697, Note_on_c, 2, 54, 0
1, 11701, Note_on_c, 2, 51, 0
1, 11701, Note_on_c, 2, 48, 50
1, 11701, Note_on_c, 2, 79, 52
1, 11704, Note_on_c, 2, 81, 0
1, 11723, Note_on_c, 2, 51, 40
1, 11741, Note_on_c, 2, 79, 0
1, 11741, Note_on_c, 2, 48, 0
1, 11745, Note_on_c, 2, 54, 45
1, 11749, Note_on_c, 2, 78, 53
1, 11752, Note_on_c, 2, 51, 0
1, 11771, Note_on_c, 2, 78, 0
1, 11771, Note_on_c, 2, 51, 40
1, 11782, Note_on_c, 2, 54, 0
1, 11790, Note_on_c, 2, 51, 0
1, 11801, Note_on_c, 2, 46, 52
1, 11801, Note_on_c, 2, 79, 47
1, 11819, Note_on_c, 2, 50, 45
1, 11838, Note_on_c, 2, 50, 0
1, 11845, Note_on_c, 2, 55, 51
1, 11864, Note_on_c, 2, 50, 45
1, 11867, Note_on_c, 2, 46, 0
1, 11867, Note_on_c, 2, 81, 56
1, 11871, Note_on_c, 2, 79, 0
1, 11886, Note_on_c, 2, 50, 0
1, 11886, Note_on_c, 2, 55, 0
1, 11890, Note_on_c, 2, 46, 45
1, 11890, Note_on_c, 2, 84, 52
1, 11893, Note_on_c, 2, 81, 0
1, 11908, Note_on_c, 2, 50, 48
1, 11912, Note_on_c, 2, 82, 62
1, 11920, Note_on_c, 2, 84, 0
1, 11934, Note_on_c, 2, 55, 54
1, 11934, Note_on_c, 2, 81, 59
1, 11941, Note_on_c, 2, 82, 0
1, 11941, Note_on_c, 2, 50, 0
1, 11945, Note_on_c, 2, 55, 0
1, 11952, Note_on_c, 2, 46, 0
1, 11956, Note_on_c, 2, 81, 0
1, 11956, Note_on_c, 2, 79, 66
1, 11956, Note_on_c, 2, 55, 50
1, 11978, Note_on_c, 2, 55, 0
1, 11979, Note_on_c, 2, 48, 55
1, 11979, Note_on_c, 2, 77, 68
1, 11982, Note_on_c, 2, 79, 0
1, 12001, Note_on_c, 2, 53, 46
1, 12023, Note_on_c, 2, 53, 0
1, 12023, Note_on_c, 2, 57, 54
1, 12045, Note_on_c, 2, 48, 0
1, 12045, Note_on_c, 2, 53, 45
1, 12057, Note_on_c, 2, 53, 0
1, 12060, Note_on_c, 2, 57, 0
1, 12060, Note_on_c, 2, 77, 0
1, 12068, Note_on_c, 2, 48, 56
1, 12072, Note_on_c, 2, 76, 59
1, 12082, Note_on_c, 2, 76, 0
1, 12082, Note_on_c, 2, 77, 46
1, 12090, Note_on_c, 2, 52, 37
1, 12093, Note_on_c, 2, 77, 0
1, 12094, Note_on_c, 2, 76, 52
1, 12094, Note_on_c, 2, 55, 43
1, 12104, Note_on_c, 2, 76, 0
1, 12104, Note_on_c, 2, 77, 56
1, 12112, Note_on_c, 2, 77, 0
1, 12112, Note_on_c, 2, 76, 45
1, 12116, Note_on_c, 2, 48, 0
1, 12119, Note_on_c, 2, 52, 0
1, 12119, Note_on_c, 2, 76, 0
1, 12123, Note_on_c, 2, 55, 0
1, 12123, Note_on_c, 2, 77, 51
1, 12134, Note_on_c, 2, 77, 0
1, 12134, Note_on_c, 2, 76, 31
1, 12157, Note_on_c, 2, 77, 48
1, 12160, Note_on_c, 2, 76, 0
1, 12164, Note_on_c, 2, 53, 66
1, 12164, Note_on_c, 2, 65, 54
1, 12168, Note_on_c, 2, 77, 0
1, 12186, Note_on_c, 2, 77, 72
1, 12208, Note_on_c, 2, 77, 0
1, 12208, Note_on_c, 2, 76, 65
1, 12212, Note_on_c, 2, 65, 0
1, 12223, Note_on_c, 2, 53, 0
1, 12227, Note_on_c, 2, 77, 55
1, 12234, Note_on_c, 2, 76, 0
1, 12249, Note_on_c, 2, 77, 0
1, 12249, Note_on_c, 2, 48, 65
1, 12249, Note_on_c, 2, 60, 55
1, 12271, Note_on_c, 2, 72, 65
1, 12293, Note_on_c, 2, 72, 0
1, 12294, Note_on_c, 2, 71, 66
1, 12305, Note_on_c, 2, 60, 0
1, 12316, Note_on_c, 2, 48, 0
1, 12316, Note_on_c, 2, 72, 60
1, 12323, Note_on_c, 2, 71, 0
1, 12334, Note_on_c, 2, 72, 0
1, 12338, Note_on_c, 2, 45, 66
1, 12339, Note_on_c, 2, 57, 56
1, 12360, Note_on_c, 2, 69, 60
1, 12382, Note_on_c, 2, 69, 0
1, 12382, Note_on_c, 2, 68, 68
1, 12390, Note_on_c, 2, 57, 0
1, 12397, Note_on_c, 2, 45, 0
1, 12405, Note_on_c, 2, 69, 57
1, 12412, Note_on_c, 2, 68, 0
1, 12427, Note_on_c, 2, 69, 0
1, 12427, Note_on_c, 2, 41, 66
1, 12430, Note_on_c, 2, 53, 56
1, 12453, Note_on_c, 2, 65, 66
1, 12464, Note_on_c, 2, 41, 0
1, 12468, Note_on_c, 2, 65, 0
1, 12475, Note_on_c, 2, 53, 0
1, 12475, Note_on_c, 2, 64, 41
1, 12501, Note_on_c, 2, 65, 52
1, 12504, Note_on_c, 2, 64, 0
1, 12508, Note_on_c, 2, 65, 0
1, 12553, Note_on_c, 2, 48, 46
1, 12553, Note_on_c, 2, 72, 45
1, 12571, Note_on_c, 2, 55, 48
1, 12598, Note_on_c, 2, 55, 0
1, 12598, Note_on_c, 2, 58, 40
1, 12619, Note_on_c, 2, 55, 47
1, 12623, Note_on_c, 2, 48, 0
1, 12642, Note_on_c, 2, 48, 52
1, 12645, Note_on_c, 2, 55, 0
1, 12645, Note_on_c, 2, 58, 0
1, 12664, Note_on_c, 2, 55, 47
1, 12690, Note_on_c, 2, 55, 0
1, 12690, Note_on_c, 2, 58, 48
1, 12690, Note_on_c, 2, 82, 47
1, 12701, Note_on_c, 2, 72, 0
1, 12712, Note_on_c, 2, 48, 0
1, 12712, Note_on_c, 2, 55, 39
1, 12720, Note_on_c, 2, 82, 0
1, 12723, Note_on_c, 2, 58, 0
1, 12734, Note_on_c, 2, 55, 0
1, 12734, Note_on_c, 2, 48, 52
1, 12738, Note_on_c, 2, 81, 63
1, 12756, Note_on_c, 2, 55, 45
1, 12782, Note_on_c, 2, 55, 0
1, 12782, Note_on_c, 2, 79, 50
1, 12782, Note_on_c, 2, 58, 45
1, 12786, Note_on_c, 2, 81, 0
1, 12805, Note_on_c, 2, 55, 48
1, 12812, Note_on_c, 2, 48, 0
1, 12812, Note_on_c, 2, 58, 0
1, 12831, Note_on_c, 2, 55, 0
1, 12831, Note_on_c, 2, 48, 52
1, 12831, Note_on_c, 2, 77, 45
1, 12838, Note_on_c, 2, 79, 0
1, 12853, Note_on_c, 2, 55, 47
1, 12875, Note_on_c, 2, 55, 0
1, 12879, Note_on_c, 2, 58, 52
1, 12879, Note_on_c, 2, 76, 50
1, 12882, Note_on_c, 2, 77, 0
1, 12902, Note_on_c, 2, 55, 39
1, 12904, Note_on_c, 2, 48, 0
1, 12923, Note_on_c, 2, 55, 0
1, 12927, Note_on_c, 2, 58, 0
1, 12930, Note_on_c, 2, 48, 46
1, 12931, Note_on_c, 2, 79, 51
1, 12942, Note_on_c, 2, 76, 0
1, 12950, Note_on_c, 2, 54, 43
1, 12952, Note_on_c, 2, 54, 0
1, 12953, Note_on_c, 2, 53, 53
1, 12979, Note_on_c, 2, 77, 50
1, 12982, Note_on_c, 2, 79, 0
1, 12986, Note_on_c, 2, 53, 0
1, 12986, Note_on_c, 2, 57, 54
1, 13008, Note_on_c, 2, 53, 37
1, 13012, Note_on_c, 2, 48, 0
1, 13027, Note_on_c, 2, 53, 0
1, 13027, Note_on_c, 2, 57, 0
1, 13030, Note_on_c, 2, 48, 43
1, 13053, Note_on_c, 2, 53, 40
1, 13068, Note_on_c, 2, 53, 0
1, 13079, Note_on_c, 2, 57, 57
1, 13079, Note_on_c, 2, 84, 52
1, 13086, Note_on_c, 2, 77, 0
1, 13101, Note_on_c, 2, 53, 35
1, 13104, Note_on_c, 2, 48, 0
1, 13116, Note_on_c, 2, 53, 0
1, 13123, Note_on_c, 2, 57, 0
1, 13123, Note_on_c, 2, 82, 53
1, 13123, Note_on_c, 2, 48, 52
1, 13127, Note_on_c, 2, 84, 0
1, 13150, Note_on_c, 2, 51, 55
1, 13160, Note_on_c, 2, 48, 0
1, 13172, Note_on_c, 2, 54, 48
1, 13172, Note_on_c, 2, 48, 5
1, 13172, Note_on_c, 2, 81, 53
1, 13175, Note_on_c, 2, 51, 0
1, 13179, Note_on_c, 2, 82, 0
1, 13190, Note_on_c, 2, 48, 0
1, 13190, Note_on_c, 2, 51, 42
1, 13204, Note_on_c, 2, 54, 0
1, 13208, Note_on_c, 2, 51, 0
1, 13216, Note_on_c, 2, 48, 42
1, 13216, Note_on_c, 2, 79, 56
1, 13220, Note_on_c, 2, 81, 0
1, 13238, Note_on_c, 2, 51, 36
1, 13249, Note_on_c, 2, 79, 0
1, 13260, Note_on_c, 2, 54, 45
1, 13260, Note_on_c, 2, 78, 60
1, 13264, Note_on_c, 2, 51, 0
1, 13275, Note_on_c, 2, 48, 0
1, 13279, Note_on_c, 2, 78, 0
1, 13282, Note_on_c, 2, 51, 36
1, 13298, Note_on_c, 2, 51, 0
1, 13298, Note_on_c, 2, 54, 0
1, 13309, Note_on_c, 2, 46, 54
1, 13309, Note_on_c, 2, 79, 55
1, 13331, Note_on_c, 2, 50, 47
1, 13350, Note_on_c, 2, 50, 0
1, 13353, Note_on_c, 2, 55, 45
1, 13372, Note_on_c, 2, 50, 45
1, 13375, Note_on_c, 2, 46, 0
1, 13379, Note_on_c, 2, 55, 0
1, 13390, Note_on_c, 2, 50, 0
1, 13398, Note_on_c, 2, 79, 0
1, 13398, Note_on_c, 2, 46, 43
1, 13398, Note_on_c, 2, 81, 54
1, 13420, Note_on_c, 2, 50, 49
1, 13421, Note_on_c, 2, 82, 47
1, 13427, Note_on_c, 2, 81, 0
1, 13442, Note_on_c, 2, 46, 0
1, 13442, Note_on_c, 2, 55, 52
1, 13446, Note_on_c, 2, 84, 53
1, 13449, Note_on_c, 2, 82, 0
1, 13457, Note_on_c, 2, 50, 0
1, 13468, Note_on_c, 2, 86, 66
1, 13472, Note_on_c, 2, 84, 0
1, 13479, Note_on_c, 2, 86, 0
1, 13482, Note_on_c, 2, 55, 0
1, 13487, Note_on_c, 2, 48, 50
1, 13487, Note_on_c, 2, 86, 66
1, 13508, Note_on_c, 2, 53, 42
1, 13509, Note_on_c, 2, 77, 63
1, 13513, Note_on_c, 2, 86, 0
1, 13531, Note_on_c, 2, 53, 0
1, 13531, Note_on_c, 2, 57, 45
1, 13550, Note_on_c, 2, 48, 0
1, 13550, Note_on_c, 2, 53, 44
1, 13557, Note_on_c, 2, 57, 0
1, 13560, Note_on_c, 2, 53, 0
1, 13561, Note_on_c, 2, 77, 0
1, 13572, Note_on_c, 2, 48, 48
1, 13579, Note_on_c, 2, 79, 66
1, 13580, Note_on_c, 2, 55, 41
1, 13580, Note_on_c, 2, 52, 39
1, 13590, Note_on_c, 2, 79, 0
1, 13590, Note_on_c, 2, 81, 54
1, 13605, Note_on_c, 2, 81, 0
1, 13605, Note_on_c, 2, 79, 53
1, 13616, Note_on_c, 2, 79, 0
1, 13616, Note_on_c, 2, 81, 54
1, 13628, Note_on_c, 2, 81, 0
1, 13628, Note_on_c, 2, 52, 0
1, 13628, Note_on_c, 2, 48, 0
1, 13631, Note_on_c, 2, 79, 40
1, 13638, Note_on_c, 2, 55, 0
1, 13642, Note_on_c, 2, 79, 0
1, 13642, Note_on_c, 2, 81, 46
1, 13657, Note_on_c, 2, 79, 37
1, 13660, Note_on_c, 2, 81, 0
1, 13672, Note_on_c, 2, 77, 50
1, 13675, Note_on_c, 2, 79, 0
1, 13675, Note_on_c, 2, 53, 57
1, 13675, Note_on_c, 2, 57, 56
1, 13720, Note_on_c, 2, 84, 55
1, 13735, Note_on_c, 2, 77, 0
1, 13739, Note_on_c, 2, 81, 54
1, 13746, Note_on_c, 2, 84, 0
1, 13761, Note_on_c, 2, 77, 54
1, 13775, Note_on_c, 2, 81, 0
1, 13780, Note_on_c, 2, 72, 60
1, 13783, Note_on_c, 2, 77, 0
1, 13794, Note_on_c, 2, 72, 0
1, 13805, Note_on_c, 2, 69, 45
1, 13824, Note_on_c, 2, 69, 0
1, 13824, Note_on_c, 2, 65, 54
1, 13831, Note_on_c, 2, 65, 0
1, 13849, Note_on_c, 2, 60, 68
1, 13850, Note_on_c, 2, 63, 100
1, 13853, Note_on_c, 2, 57, 0
1, 13861, Note_on_c, 2, 53, 0
1, 13894, Note_on_c, 2, 53, 52
1, 13894, Note_on_c, 2, 41, 62
1, 13905, Note_on_c, 2, 41, 0
1, 13908, Note_on_c, 2, 53, 0
1, 13938, Note_on_c, 2, 45, 57
1, 13939, Note_on_c, 2, 57, 55
1, 13950, Note_on_c, 2, 57, 0
1, 13950, Note_on_c, 2, 45, 0
1, 13983, Note_on_c, 2, 41, 59
1, 13983, Note_on_c, 2, 53, 53
1, 13990, Note_on_c, 2, 41, 0
1, 13994, Note_on_c, 2, 53, 0
1, 14009, Note_on_c, 2, 63, 0
1, 14016, Note_on_c, 2, 60, 0
1, 14031, Note_on_c, 2, 46, 55
1, 14031, Note_on_c, 2, 58, 59
1, 14076, Note_on_c, 2, 62, 54
1, 14113, Note_on_c, 2, 62, 0
1, 14120, Note_on_c, 2, 55, 54
1, 14124, Note_on_c, 2, 46, 0
1, 14127, Note_on_c, 2, 58, 0
1, 14164, Note_on_c, 2, 70, 46
1, 14164, Note_on_c, 2, 74, 55
1, 14213, Note_on_c, 2, 60, 47
1, 14254, Note_on_c, 2, 72, 53
1, 14257, Note_on_c, 2, 69, 46
1, 14261, Note_on_c, 2, 74, 0
1, 14261, Note_on_c, 2, 70, 0
1, 14264, Note_on_c, 2, 72, 0
1, 14268, Note_on_c, 2, 69, 0
1, 14294, Note_on_c, 2, 60, 0
1, 14298, Note_on_c, 2, 48, 54
1, 14305, Note_on_c, 2, 55, 0
1, 14339, Note_on_c, 2, 58, 42
1, 14342, Note_on_c, 2, 64, 56
1, 14350, Note_on_c, 2, 58, 0
1, 14353, Note_on_c, 2, 64, 0
1, 14386, Note_on_c, 2, 53, 47
1, 14386, Note_on_c, 2, 57, 43
1, 14390, Note_on_c, 2, 48, 0
1, 14435, Note_on_c, 2, 84, 57
1, 14457, Note_on_c, 2, 81, 51
1, 14468, Note_on_c, 2, 84, 0
1, 14479, Note_on_c, 2, 77, 46
1, 14490, Note_on_c, 2, 81, 0
1, 14501, Note_on_c, 2, 77, 0
1, 14502, Note_on_c, 2, 72, 59
1, 14512, Note_on_c, 2, 72, 0
1, 14524, Note_on_c, 2, 69, 45
1, 14542, Note_on_c, 2, 69, 0
1, 14546, Note_on_c, 2, 65, 33
1, 14550, Note_on_c, 2, 65, 0
1, 14568, Note_on_c, 2, 60, 65
1, 14569, Note_on_c, 2, 63, 72
1, 14583, Note_on_c, 2, 57, 0
1, 14587, Note_on_c, 2, 53, 0
1, 14609, Note_on_c, 2, 53, 46
1, 14612, Note_on_c, 2, 41, 56
1, 14624, Note_on_c, 2, 41, 0
1, 14624, Note_on_c, 2, 53, 0
1, 14654, Note_on_c, 2, 45, 54
1, 14654, Note_on_c, 2, 57, 54
1, 14661, Note_on_c, 2, 57, 0
1, 14665, Note_on_c, 2, 45, 0
1, 14694, Note_on_c, 2, 41, 56
1, 14694, Note_on_c, 2, 53, 50
1, 14702, Note_on_c, 2, 53, 0
1, 14702, Note_on_c, 2, 41, 0
1, 14713, Note_on_c, 2, 63, 0
1, 14717, Note_on_c, 2, 60, 0
1, 14735, Note_on_c, 2, 46, 60
1, 14736, Note_on_c, 2, 58, 57
1, 14779, Note_on_c, 2, 62, 53
1, 14824, Note_on_c, 2, 62, 0
1, 14824, Note_on_c, 2, 55, 53
1, 14828, Note_on_c, 2, 46, 0
1, 14831, Note_on_c, 2, 58, 0
1, 14872, Note_on_c, 2, 70, 45
1, 14872, Note_on_c, 2, 74, 54
1, 14920, Note_on_c, 2, 60, 45
1, 14961, Note_on_c, 2, 72, 54
1, 14962, Note_on_c, 2, 69, 41
1, 14965, Note_on_c, 2, 74, 0
1, 14965, Note_on_c, 2, 70, 0
1, 14968, Note_on_c, 2, 72, 0
1, 14972, Note_on_c, 2, 69, 0
1, 15006, Note_on_c, 2, 60, 0
1, 15006, Note_on_c, 2, 48, 53
1, 15009, Note_on_c, 2, 55, 0
1, 15020, Note_on_c, 2, 48, 0
1, 15050, Note_on_c, 2, 64, 49
1, 15064, Note_on_c, 2, 64, 0
1, 15094, Note_on_c, 2, 41, 50
1, 15094, Note_on_c, 2, 65, 56
1, 15094, Note_on_c, 2, 57, 49
1, 15117, Note_on_c, 2, 41, 0
1, 15117, Note_on_c, 2, 53, 48
1, 15136, Note_on_c, 2, 52, 50
1, 15138, Note_on_c, 2, 53, 0
1, 15157, Note_on_c, 2, 52, 0
1, 15157, Note_on_c, 2, 53, 42
1, 15164, Note_on_c, 2, 57, 0
1, 15176, Note_on_c, 2, 53, 0
1, 15180, Note_on_c, 2, 41, 55
1, 15191, Note_on_c, 2, 65, 0
1, 15202, Note_on_c, 2, 41, 0
1, 15202, Note_on_c, 2, 53, 55
1, 15224, Note_on_c, 2, 52, 54
1, 15228, Note_on_c, 2, 53, 0
1, 15228, Note_on_c, 2, 69, 51
1, 15229, Note_on_c, 2, 65, 41
1, 15246, Note_on_c, 2, 69, 0
1, 15246, Note_on_c, 2, 52, 0
1, 15246, Note_on_c, 2, 53, 45
1, 15250, Note_on_c, 2, 65, 0
1, 15265, Note_on_c, 2, 41, 54
1, 15269, Note_on_c, 2, 53, 0
1, 15269, Note_on_c, 2, 64, 46
1, 15269, Note_on_c, 2, 67, 46
1, 15283, Note_on_c, 2, 64, 0
1, 15287, Note_on_c, 2, 67, 0
1, 15287, Note_on_c, 2, 41, 0
1, 15287, Note_on_c, 2, 53, 55
1, 15310, Note_on_c, 2, 52, 53
1, 15313, Note_on_c, 2, 64, 47
1, 15313, Note_on_c, 2, 67, 46
1, 15317, Note_on_c, 2, 53, 0
1, 15332, Note_on_c, 2, 67, 0
1, 15335, Note_on_c, 2, 64, 0
1, 15335, Note_on_c, 2, 52, 0
1, 15335, Note_on_c, 2, 53, 53
1, 15354, Note_on_c, 2, 53, 0
1, 15354, Note_on_c, 2, 41, 62
1, 15372, Note_on_c, 2, 41, 0
1, 15376, Note_on_c, 2, 53, 45
1, 15398, Note_on_c, 2, 53, 0
1, 15398, Note_on_c, 2, 70, 47
1, 15398, Note_on_c, 2, 52, 55
1, 15400, Note_on_c, 2, 67, 46
1, 15416, Note_on_c, 2, 70, 0
1, 15417, Note_on_c, 2, 67, 0
1, 15421, Note_on_c, 2, 52, 0
1, 15421, Note_on_c, 2, 53, 52
1, 15439, Note_on_c, 2, 53, 0
1, 15442, Note_on_c, 2, 41, 53
1, 15442, Note_on_c, 2, 69, 53
1, 15444, Note_on_c, 2, 65, 45
1, 15454, Note_on_c, 2, 65, 0
1, 15458, Note_on_c, 2, 69, 0
1, 15458, Note_on_c, 2, 41, 0
1, 15461, Note_on_c, 2, 53, 56
1, 15484, Note_on_c, 2, 52, 50
1, 15487, Note_on_c, 2, 53, 0
1, 15487, Note_on_c, 2, 65, 53
1, 15488, Note_on_c, 2, 69, 59
1, 15509, Note_on_c, 2, 65, 0
1, 15509, Note_on_c, 2, 52, 0
1, 15510, Note_on_c, 2, 53, 54
1, 15513, Note_on_c, 2, 69, 0
1, 15524, Note_on_c, 2, 53, 0
1, 15528, Note_on_c, 2, 41, 55
1, 15546, Note_on_c, 2, 41, 0
1, 15550, Note_on_c, 2, 53, 55
1, 15572, Note_on_c, 2, 52, 52
1, 15572, Note_on_c, 2, 77, 43
1, 15572, Note_on_c, 2, 81, 48
1, 15576, Note_on_c, 2, 53, 0
1, 15587, Note_on_c, 2, 77, 0
1, 15590, Note_on_c, 2, 81, 0
1, 15594, Note_on_c, 2, 52, 0
1, 15594, Note_on_c, 2, 53, 47
1, 15609, Note_on_c, 2, 53, 0
1, 15617, Note_on_c, 2, 41, 55
1, 15617, Note_on_c, 2, 79, 48
1, 15621, Note_on_c, 2, 76, 42
1, 15628, Note_on_c, 2, 76, 0
1, 15631, Note_on_c, 2, 79, 0
1, 15631, Note_on_c, 2, 41, 0
1, 15635, Note_on_c, 2, 53, 50
1, 15661, Note_on_c, 2, 53, 0
1, 15661, Note_on_c, 2, 52, 46
1, 15661, Note_on_c, 2, 79, 59
1, 15661, Note_on_c, 2, 76, 56
1, 15680, Note_on_c, 2, 76, 0
1, 15680, Note_on_c, 2, 79, 0
1, 15684, Note_on_c, 2, 52, 0
1, 15684, Note_on_c, 2, 53, 42
1, 15702, Note_on_c, 2, 53, 0
1, 15706, Note_on_c, 2, 41, 55
1, 15724, Note_on_c, 2, 41, 0
1, 15732, Note_on_c, 2, 53, 34
1, 15754, Note_on_c, 2, 52, 47
1, 15754, Note_on_c, 2, 76, 46
1, 15755, Note_on_c, 2, 79, 49
1, 15755, Note_on_c, 2, 82, 44
1, 15757, Note_on_c, 2, 53, 0
1, 15765, Note_on_c, 2, 79, 0
1, 15765, Note_on_c, 2, 82, 0
1, 15765, Note_on_c, 2, 76, 0
1, 15769, Note_on_c, 2, 52, 0
1, 15806, Note_on_c, 2, 53, 50
1, 15806, Note_on_c, 2, 41, 49
1, 15806, Note_on_c, 2, 79, 63
1, 15806, Note_on_c, 2, 82, 68
1, 15965, Note_on_c, 2, 79, 0
1, 15972, Note_on_c, 2, 82, 0
1, 16087, Note_on_c, 2, 81, 30
1, 16087, Note_on_c, 2, 77, 29
1, 16232, Note_on_c, 2, 77, 0
1, 16235, Note_on_c, 2, 81, 0
1, 16243, Note_on_c, 2, 41, 0
1, 16250, Note_on_c, 2, 53, 0
1, 16451, Note_on_c, 2, 62, 17
1, 16454, Note_on_c, 2, 58, 35
1, 16458, Note_on_c, 2, 70, 38
1, 16480, Note_on_c, 2, 72, 40
1, 16484, Note_on_c, 2, 70, 0
1, 16498, Note_on_c, 2, 70, 40
1, 16502, Note_on_c, 2, 72, 0
1, 16517, Note_on_c, 2, 70, 0
1, 16517, Note_on_c, 2, 72, 46
1, 16539, Note_on_c, 2, 72, 0
1, 16539, Note_on_c, 2, 70, 63
1, 16562, Note_on_c, 2, 58, 0
1, 16565, Note_on_c, 2, 62, 0
1, 16566, Note_on_c, 2, 72, 47
1, 16573, Note_on_c, 2, 70, 0
1, 16591, Note_on_c, 2, 72, 0
1, 16591, Note_on_c, 2, 74, 45
1, 16617, Note_on_c, 2, 63, 22
1, 16617, Note_on_c, 2, 70, 36
1, 16617, Note_on_c, 2, 60, 35
1, 16621, Note_on_c, 2, 74, 0
1, 16643, Note_on_c, 2, 69, 41
1, 16650, Note_on_c, 2, 70, 0
1, 16669, Note_on_c, 2, 72, 40
1, 16676, Note_on_c, 2, 69, 0
1, 16698, Note_on_c, 2, 70, 46
1, 16702, Note_on_c, 2, 72, 0
1, 16720, Note_on_c, 2, 60, 0
1, 16721, Note_on_c, 2, 69, 39
1, 16724, Note_on_c, 2, 63, 0
1, 16728, Note_on_c, 2, 70, 0
1, 16747, Note_on_c, 2, 75, 39
1, 16773, Note_on_c, 2, 72, 39
1, 16776, Note_on_c, 2, 75, 0
1, 16776, Note_on_c, 2, 65, 23
1, 16780, Note_on_c, 2, 69, 0
1, 16780, Note_on_c, 2, 62, 38
1, 16798, Note_on_c, 2, 70, 45
1, 16802, Note_on_c, 2, 72, 0
1, 16828, Note_on_c, 2, 74, 48
1, 16836, Note_on_c, 2, 70, 0
1, 16854, Note_on_c, 2, 72, 48
1, 16858, Note_on_c, 2, 74, 0
1, 16880, Note_on_c, 2, 70, 49
1, 16884, Note_on_c, 2, 72, 0
1, 16902, Note_on_c, 2, 77, 53
1, 16932, Note_on_c, 2, 74, 53
1, 16936, Note_on_c, 2, 77, 0
1, 16992, Note_on_c, 2, 70, 0
1, 17006, Note_on_c, 2, 65, 0
1, 17006, Note_on_c, 2, 74, 0
1, 17014, Note_on_c, 2, 62, 0
1, 17095, Note_on_c, 2, 70, 25
1, 17102, Note_on_c, 2, 75, 44
1, 17103, Note_on_c, 2, 63, 32
1, 17106, Note_on_c, 2, 51, 40
1, 17106, Note_on_c, 2, 79, 56
1, 17118, Note_on_c, 2, 63, 0
1, 17118, Note_on_c, 2, 70, 0
1, 17120, Note_on_c, 2, 75, 0
1, 17124, Note_on_c, 2, 51, 0
1, 17125, Note_on_c, 2, 79, 0
1, 17184, Note_on_c, 2, 70, 32
1, 17188, Note_on_c, 2, 58, 41
1, 17188, Note_on_c, 2, 46, 40
1, 17188, Note_on_c, 2, 74, 25
1, 17191, Note_on_c, 2, 77, 55
1, 17199, Note_on_c, 2, 74, 0
1, 17206, Note_on_c, 2, 70, 0
1, 17236, Note_on_c, 2, 77, 0
1, 17273, Note_on_c, 2, 77, 50
1, 17291, Note_on_c, 2, 82, 59
1, 17302, Note_on_c, 2, 77, 0
1, 17310, Note_on_c, 2, 82, 0
1, 17310, Note_on_c, 2, 81, 60
1, 17332, Note_on_c, 2, 82, 49
1, 17343, Note_on_c, 2, 81, 0
1, 17351, Note_on_c, 2, 86, 56
1, 17358, Note_on_c, 2, 82, 0
1, 17362, Note_on_c, 2, 58, 0
1, 17373, Note_on_c, 2, 86, 0
1, 17373, Note_on_c, 2, 82, 60
1, 17377, Note_on_c, 2, 46, 0
1, 17391, Note_on_c, 2, 82, 0
1, 17392, Note_on_c, 2, 81, 48
1, 17414, Note_on_c, 2, 82, 47
1, 17421, Note_on_c, 2, 81, 0
1, 17425, Note_on_c, 2, 82, 0
1, 17436, Note_on_c, 2, 41, 48
1, 17436, Note_on_c, 2, 53, 41
1, 17440, Note_on_c, 2, 74, 47
1, 17440, Note_on_c, 2, 77, 57
1, 17447, Note_on_c, 2, 74, 0
1, 17448, Note_on_c, 2, 77, 0
1, 17450, Note_on_c, 2, 41, 0
1, 17454, Note_on_c, 2, 53, 0
1, 17481, Note_on_c, 2, 72, 55
1, 17481, Note_on_c, 2, 75, 65
1, 17492, Note_on_c, 2, 75, 0
1, 17495, Note_on_c, 2, 72, 0
1, 17532, Note_on_c, 2, 58, 36
1, 17536, Note_on_c, 2, 70, 32
1, 17536, Note_on_c, 2, 46, 32
1, 17536, Note_on_c, 2, 74, 47
1, 17695, Note_on_c, 2, 58, 0
1, 17706, Note_on_c, 2, 70, 0
1, 17706, Note_on_c, 2, 74, 0
1, 17724, Note_on_c, 2, 46, 0
1, 17866, Note_on_c, 2, 46, 38
1, 17866, Note_on_c, 2, 50, 41
1, 17873, Note_on_c, 2, 58, 42
1, 17892, Note_on_c, 2, 60, 55
1, 17895, Note_on_c, 2, 58, 0
1, 17910, Note_on_c, 2, 58, 55
1, 17914, Note_on_c, 2, 60, 0
1, 17929, Note_on_c, 2, 60, 53
1, 17932, Note_on_c, 2, 58, 0
1, 17950, Note_on_c, 2, 60, 0
1, 17951, Note_on_c, 2, 58, 60
1, 17958, Note_on_c, 2, 46, 0
1, 17965, Note_on_c, 2, 50, 0
1, 17977, Note_on_c, 2, 60, 46
1, 17981, Note_on_c, 2, 58, 0
1, 17999, Note_on_c, 2, 60, 0
1, 17999, Note_on_c, 2, 62, 46
1, 18021, Note_on_c, 2, 58, 39
1, 18025, Note_on_c, 2, 62, 0
1, 18025, Note_on_c, 2, 48, 44
1, 18025, Note_on_c, 2, 51, 32
1, 18047, Note_on_c, 2, 57, 45
1, 18054, Note_on_c, 2, 58, 0
1, 18073, Note_on_c, 2, 60, 44
1, 18084, Note_on_c, 2, 57, 0
1, 18100, Note_on_c, 2, 58, 45
1, 18106, Note_on_c, 2, 60, 0
1, 18122, Note_on_c, 2, 51, 0
1, 18122, Note_on_c, 2, 57, 36
1, 18129, Note_on_c, 2, 48, 0
1, 18136, Note_on_c, 2, 58, 0
1, 18151, Note_on_c, 2, 63, 40
1, 18177, Note_on_c, 2, 60, 38
1, 18177, Note_on_c, 2, 53, 21
1, 18181, Note_on_c, 2, 50, 32
1, 18184, Note_on_c, 2, 63, 0
1, 18203, Note_on_c, 2, 58, 37
1, 18210, Note_on_c, 2, 60, 0
1, 18214, Note_on_c, 2, 57, 0
1, 18229, Note_on_c, 2, 62, 48
1, 18236, Note_on_c, 2, 58, 0
1, 18254, Note_on_c, 2, 60, 46
1, 18262, Note_on_c, 2, 62, 0
1, 18281, Note_on_c, 2, 58, 46
1, 18288, Note_on_c, 2, 60, 0
1, 18303, Note_on_c, 2, 65, 54
1, 18336, Note_on_c, 2, 65, 0
1, 18336, Note_on_c, 2, 62, 46
1, 18396, Note_on_c, 2, 50, 0
1, 18399, Note_on_c, 2, 58, 0
1, 18399, Note_on_c, 2, 53, 0
1, 18418, Note_on_c, 2, 62, 0
1, 18477, Note_on_c, 2, 51, 37
1, 18484, Note_on_c, 2, 55, 40
1, 18495, Note_on_c, 2, 60, 39
1, 18503, Note_on_c, 2, 67, 53
1, 18525, Note_on_c, 2, 72, 48
1, 18536, Note_on_c, 2, 67, 0
1, 18547, Note_on_c, 2, 75, 55
1, 18555, Note_on_c, 2, 72, 0
1, 18574, Note_on_c, 2, 75, 0
1, 18574, Note_on_c, 2, 72, 57
1, 18592, Note_on_c, 2, 51, 0
1, 18596, Note_on_c, 2, 55, 0
1, 18596, Note_on_c, 2, 75, 46
1, 18610, Note_on_c, 2, 60, 0
1, 18610, Note_on_c, 2, 72, 0
1, 18625, Note_on_c, 2, 75, 0
1, 18625, Note_on_c, 2, 79, 46
1, 18636, Note_on_c, 2, 79, 0
1, 18647, Note_on_c, 2, 53, 53
1, 18647, Note_on_c, 2, 79, 54
1, 18651, Note_on_c, 2, 62, 48
1, 18674, Note_on_c, 2, 77, 57
1, 18677, Note_on_c, 2, 79, 0
1, 18681, Note_on_c, 2, 53, 0
1, 18684, Note_on_c, 2, 62, 0
1, 18692, Note_on_c, 2, 75, 57
1, 18696, Note_on_c, 2, 77, 0
1, 18714, Note_on_c, 2, 74, 56
1, 18718, Note_on_c, 2, 75, 0
1, 18725, Note_on_c, 2, 74, 0
1, 18732, Note_on_c, 2, 63, 45
1, 18732, Note_on_c, 2, 53, 45
1, 18734, Note_on_c, 2, 74, 53
1, 18747, Note_on_c, 2, 74, 0
1, 18748, Note_on_c, 2, 72, 57
1, 18770, Note_on_c, 2, 70, 66
1, 18773, Note_on_c, 2, 72, 0
1, 18792, Note_on_c, 2, 70, 0
1, 18792, Note_on_c, 2, 63, 0
1, 18792, Note_on_c, 2, 69, 63
1, 18799, Note_on_c, 2, 53, 0
1, 18814, Note_on_c, 2, 62, 45
1, 18814, Note_on_c, 2, 70, 68
1, 18818, Note_on_c, 2, 69, 0
1, 18818, Note_on_c, 2, 58, 49
1, 18844, Note_on_c, 2, 58, 0
1, 18844, Note_on_c, 2, 62, 0
1, 18858, Note_on_c, 2, 58, 37
1, 18858, Note_on_c, 2, 62, 29
1, 18877, Note_on_c, 2, 62, 0
1, 18877, Note_on_c, 2, 58, 0
1, 18899, Note_on_c, 2, 62, 40
1, 18899, Note_on_c, 2, 58, 45
1, 18914, Note_on_c, 2, 62, 0
1, 18918, Note_on_c, 2, 58, 0
1, 18944, Note_on_c, 2, 62, 32
1, 18944, Note_on_c, 2, 58, 40
1, 18955, Note_on_c, 2, 58, 0
1, 18959, Note_on_c, 2, 62, 0
1, 18984, Note_on_c, 2, 62, 36
1, 18984, Note_on_c, 2, 58, 40
1, 18996, Note_on_c, 2, 62, 0
1, 18996, Note_on_c, 2, 70, 0
1, 18999, Note_on_c, 2, 58, 0
1, 19025, Note_on_c, 2, 62, 40
1, 19025, Note_on_c, 2, 58, 37
1, 19025, Note_on_c, 2, 70, 45
1, 19040, Note_on_c, 2, 58, 0
1, 19044, Note_on_c, 2, 70, 0
1, 19044, Note_on_c, 2, 62, 0
1, 19070, Note_on_c, 2, 58, 34
1, 19070, Note_on_c, 2, 62, 35
1, 19074, Note_on_c, 2, 69, 53
1, 19081, Note_on_c, 2, 62, 0
1, 19081, Note_on_c, 2, 58, 0
1, 19085, Note_on_c, 2, 69, 0
1, 19114, Note_on_c, 2, 68, 49
1, 19114, Note_on_c, 2, 58, 45
1, 19116, Note_on_c, 2, 62, 36
1, 19121, Note_on_c, 2, 62, 0
1, 19121, Note_on_c, 2, 68, 0
1, 19125, Note_on_c, 2, 58, 0
1, 19158, Note_on_c, 2, 63, 57
1, 19158, Note_on_c, 2, 58, 54
1, 19160, Note_on_c, 2, 67, 56
1, 19188, Note_on_c, 2, 63, 0
1, 19192, Note_on_c, 2, 58, 0
1, 19203, Note_on_c, 2, 63, 47
1, 19203, Note_on_c, 2, 58, 46
1, 19207, Note_on_c, 2, 69, 50
1, 19214, Note_on_c, 2, 67, 0
1, 19218, Note_on_c, 2, 63, 0
1, 19222, Note_on_c, 2, 58, 0
1, 19225, Note_on_c, 2, 70, 59
1, 19229, Note_on_c, 2, 69, 0
1, 19240, Note_on_c, 2, 70, 0
1, 19244, Note_on_c, 2, 63, 45
1, 19244, Note_on_c, 2, 58, 40
1, 19245, Note_on_c, 2, 72, 56
1, 19262, Note_on_c, 2, 74, 43
1, 19266, Note_on_c, 2, 58, 0
1, 19266, Note_on_c, 2, 63, 0
1, 19270, Note_on_c, 2, 72, 0
1, 19284, Note_on_c, 2, 63, 38
1, 19284, Note_on_c, 2, 75, 54
1, 19286, Note_on_c, 2, 58, 40
1, 19288, Note_on_c, 2, 74, 0
1, 19303, Note_on_c, 2, 63, 0
1, 19303, Note_on_c, 2, 75, 0
1, 19303, Note_on_c, 2, 58, 0
1, 19303, Note_on_c, 2, 77, 54
1, 19322, Note_on_c, 2, 63, 39
1, 19326, Note_on_c, 2, 58, 42
1, 19326, Note_on_c, 2, 79, 45
1, 19333, Note_on_c, 2, 77, 0
1, 19344, Note_on_c, 2, 63, 0
1, 19348, Note_on_c, 2, 58, 0
1, 19348, Note_on_c, 2, 81, 49
1, 19355, Note_on_c, 2, 79, 0
1, 19363, Note_on_c, 2, 63, 39
1, 19366, Note_on_c, 2, 58, 45
1, 19366, Note_on_c, 2, 82, 48
1, 19370, Note_on_c, 2, 81, 0
1, 19381, Note_on_c, 2, 63, 0
1, 19381, Note_on_c, 2, 58, 0
1, 19392, Note_on_c, 2, 82, 0
1, 19392, Note_on_c, 2, 81, 65
1, 19410, Note_on_c, 2, 63, 30
1, 19410, Note_on_c, 2, 82, 54
1, 19412, Note_on_c, 2, 58, 40
1, 19414, Note_on_c, 2, 81, 0
1, 19429, Note_on_c, 2, 63, 0
1, 19429, Note_on_c, 2, 58, 0
1, 19433, Note_on_c, 2, 81, 57
1, 19436, Note_on_c, 2, 82, 0
1, 19451, Note_on_c, 2, 63, 42
1, 19455, Note_on_c, 2, 58, 37
1, 19455, Note_on_c, 2, 82, 54
1, 19459, Note_on_c, 2, 81, 0
1, 19474, Note_on_c, 2, 63, 0
1, 19477, Note_on_c, 2, 79, 56
1, 19488, Note_on_c, 2, 82, 0
1, 19499, Note_on_c, 2, 62, 45
1, 19503, Note_on_c, 2, 77, 54
1, 19507, Note_on_c, 2, 79, 0
1, 19525, Note_on_c, 2, 62, 0
1, 19526, Note_on_c, 2, 58, 0
1, 19544, Note_on_c, 2, 62, 40
1, 19544, Note_on_c, 2, 58, 42
1, 19563, Note_on_c, 2, 62, 0
1, 19566, Note_on_c, 2, 58, 0
1, 19588, Note_on_c, 2, 58, 46
1, 19588, Note_on_c, 2, 62, 45
1, 19603, Note_on_c, 2, 62, 0
1, 19607, Note_on_c, 2, 58, 0
1, 19630, Note_on_c, 2, 58, 54
1, 19630, Note_on_c, 2, 62, 46
1, 19644, Note_on_c, 2, 62, 0
1, 19648, Note_on_c, 2, 58, 0
1, 19659, Note_on_c, 2, 77, 0
1, 19674, Note_on_c, 2, 58, 45
1, 19674, Note_on_c, 2, 62, 41
1, 19688, Note_on_c, 2, 62, 0
1, 19688, Note_on_c, 2, 58, 0
1, 19714, Note_on_c, 2, 62, 41
1, 19714, Note_on_c, 2, 70, 65
1, 19716, Note_on_c, 2, 58, 45
1, 19726, Note_on_c, 2, 58, 0
1, 19729, Note_on_c, 2, 62, 0
1, 19733, Note_on_c, 2, 70, 0
1, 19756, Note_on_c, 2, 62, 40
1, 19759, Note_on_c, 2, 58, 45
1, 19759, Note_on_c, 2, 69, 46
1, 19770, Note_on_c, 2, 69, 0
1, 19770, Note_on_c, 2, 58, 0
1, 19770, Note_on_c, 2, 62, 0
1, 19803, Note_on_c, 2, 68, 55
1, 19803, Note_on_c, 2, 62, 42
1, 19803, Note_on_c, 2, 58, 52
1, 19811, Note_on_c, 2, 62, 0
1, 19815, Note_on_c, 2, 58, 0
1, 19815, Note_on_c, 2, 68, 0
1, 19848, Note_on_c, 2, 63, 65
1, 19848, Note_on_c, 2, 58, 49
1, 19852, Note_on_c, 2, 67, 66
1, 19878, Note_on_c, 2, 58, 0
1, 19878, Note_on_c, 2, 63, 0
1, 19896, Note_on_c, 2, 63, 47
1, 19896, Note_on_c, 2, 58, 46
1, 19900, Note_on_c, 2, 69, 54
1, 19903, Note_on_c, 2, 67, 0
1, 19910, Note_on_c, 2, 58, 0
1, 19915, Note_on_c, 2, 63, 0
1, 19918, Note_on_c, 2, 70, 62
1, 19922, Note_on_c, 2, 69, 0
1, 19937, Note_on_c, 2, 70, 0
1, 19937, Note_on_c, 2, 58, 45
1, 19937, Note_on_c, 2, 63, 44
1, 19941, Note_on_c, 2, 72, 52
1, 19956, Note_on_c, 2, 58, 0
1, 19958, Note_on_c, 2, 63, 0
1, 19959, Note_on_c, 2, 74, 45
1, 19966, Note_on_c, 2, 72, 0
1, 19977, Note_on_c, 2, 75, 56
1, 19981, Note_on_c, 2, 63, 43
1, 19982, Note_on_c, 2, 58, 47
1, 19985, Note_on_c, 2, 74, 0
1, 19996, Note_on_c, 2, 75, 0
1, 20000, Note_on_c, 2, 63, 0
1, 20000, Note_on_c, 2, 58, 0
1, 20000, Note_on_c, 2, 77, 54
1, 20022, Note_on_c, 2, 63, 42
1, 20022, Note_on_c, 2, 58, 42
1, 20022, Note_on_c, 2, 79, 56
1, 20029, Note_on_c, 2, 77, 0
1, 20037, Note_on_c, 2, 63, 0
1, 20040, Note_on_c, 2, 58, 0
1, 20044, Note_on_c, 2, 81, 52
1, 20051, Note_on_c, 2, 79, 0
1, 20062, Note_on_c, 2, 63, 36
1, 20062, Note_on_c, 2, 82, 54
1, 20062, Note_on_c, 2, 58, 39
1, 20066, Note_on_c, 2, 81, 0
1, 20074, Note_on_c, 2, 63, 0
1, 20077, Note_on_c, 2, 58, 0
1, 20085, Note_on_c, 2, 81, 70
1, 20088, Note_on_c, 2, 82, 0
1, 20103, Note_on_c, 2, 63, 47
1, 20107, Note_on_c, 2, 81, 0
1, 20107, Note_on_c, 2, 58, 44
1, 20107, Note_on_c, 2, 82, 48
1, 20118, Note_on_c, 2, 58, 0
1, 20118, Note_on_c, 2, 63, 0
1, 20126, Note_on_c, 2, 82, 0
1, 20126, Note_on_c, 2, 81, 56
1, 20144, Note_on_c, 2, 63, 46
1, 20144, Note_on_c, 2, 82, 56
1, 20148, Note_on_c, 2, 58, 41
1, 20151, Note_on_c, 2, 81, 0
1, 20155, Note_on_c, 2, 58, 0
1, 20159, Note_on_c, 2, 63, 0
1, 20166, Note_on_c, 2, 79, 50
1, 20174, Note_on_c, 2, 82, 0
1, 20189, Note_on_c, 2, 63, 48
1, 20189, Note_on_c, 2, 58, 42
1, 20190, Note_on_c, 2, 77, 68
1, 20192, Note_on_c, 2, 79, 0
1, 20196, Note_on_c, 2, 58, 0
1, 20203, Note_on_c, 2, 63, 0
1, 20229, Note_on_c, 2, 77, 0
1, 20233, Note_on_c, 2, 58, 49
1, 20281, Note_on_c, 2, 62, 47
1, 20304, Note_on_c, 2, 82, 59
1, 20322, Note_on_c, 2, 65, 53
1, 20322, Note_on_c, 2, 84, 53
1, 20326, Note_on_c, 2, 82, 0
1, 20330, Note_on_c, 2, 58, 0
1, 20344, Note_on_c, 2, 82, 68
1, 20356, Note_on_c, 2, 84, 0
1, 20363, Note_on_c, 2, 58, 55
1, 20367, Note_on_c, 2, 62, 0
1, 20367, Note_on_c, 2, 82, 0
1, 20367, Note_on_c, 2, 65, 0
1, 20367, Note_on_c, 2, 86, 59
1, 20385, Note_on_c, 2, 84, 56
1, 20396, Note_on_c, 2, 86, 0
1, 20408, Note_on_c, 2, 82, 66
1, 20415, Note_on_c, 2, 84, 0
1, 20430, Note_on_c, 2, 81, 62
1, 20440, Note_on_c, 2, 82, 0
1, 20452, Note_on_c, 2, 81, 0
1, 20452, Note_on_c, 2, 79, 66
1, 20470, Note_on_c, 2, 77, 55
1, 20477, Note_on_c, 2, 79, 0
1, 20493, Note_on_c, 2, 75, 70
1, 20500, Note_on_c, 2, 77, 0
1, 20511, Note_on_c, 2, 75, 0
1, 20515, Note_on_c, 2, 74, 68
1, 20522, Note_on_c, 2, 58, 0
1, 20537, Note_on_c, 2, 75, 96
1, 20544, Note_on_c, 2, 74, 0
1, 20581, Note_on_c, 2, 53, 55
1, 20592, Note_on_c, 2, 75, 0
1, 20626, Note_on_c, 2, 57, 57
1, 20648, Note_on_c, 2, 81, 72
1, 20666, Note_on_c, 2, 60, 55
1, 20670, Note_on_c, 2, 53, 0
1, 20670, Note_on_c, 2, 82, 59
1, 20674, Note_on_c, 2, 81, 0
1, 20689, Note_on_c, 2, 81, 70
1, 20696, Note_on_c, 2, 82, 0
1, 20708, Note_on_c, 2, 60, 0
1, 20711, Note_on_c, 2, 57, 0
1, 20711, Note_on_c, 2, 53, 60
1, 20711, Note_on_c, 2, 84, 50
1, 20715, Note_on_c, 2, 81, 0
1, 20734, Note_on_c, 2, 82, 70
1, 20741, Note_on_c, 2, 84, 0
1, 20756, Note_on_c, 2, 81, 63
1, 20761, Note_on_c, 2, 53, 0
1, 20763, Note_on_c, 2, 82, 0
1, 20778, Note_on_c, 2, 81, 0
1, 20778, Note_on_c, 2, 79, 68
1, 20796, Note_on_c, 2, 77, 57
1, 20808, Note_on_c, 2, 79, 0
1, 20819, Note_on_c, 2, 75, 62
1, 20822, Note_on_c, 2, 77, 0
1, 20840, Note_on_c, 2, 75, 0
1, 20841, Note_on_c, 2, 74, 63
1, 20863, Note_on_c, 2, 72, 63
1, 20870, Note_on_c, 2, 74, 0
1, 20885, Note_on_c, 2, 74, 59
1, 20889, Note_on_c, 2, 72, 0
1, 20926, Note_on_c, 2, 34, 59
1, 20926, Note_on_c, 2, 46, 70
1, 20937, Note_on_c, 2, 34, 0
1, 20940, Note_on_c, 2, 46, 0
1, 20970, Note_on_c, 2, 38, 66
1, 20971, Note_on_c, 2, 50, 59
1, 20982, Note_on_c, 2, 50, 0
1, 20982, Note_on_c, 2, 38, 0
1, 20993, Note_on_c, 2, 77, 48
1, 21012, Note_on_c, 2, 77, 0
1, 21015, Note_on_c, 2, 41, 55
1, 21015, Note_on_c, 2, 53, 48
1, 21016, Note_on_c, 2, 79, 40
1, 21019, Note_on_c, 2, 74, 0
1, 21022, Note_on_c, 2, 53, 0
1, 21026, Note_on_c, 2, 41, 0
1, 21034, Note_on_c, 2, 77, 54
1, 21037, Note_on_c, 2, 79, 0
1, 21056, Note_on_c, 2, 38, 66
1, 21056, Note_on_c, 2, 50, 56
1, 21059, Note_on_c, 2, 77, 0
1, 21059, Note_on_c, 2, 82, 62
1, 21078, Note_on_c, 2, 81, 59
1, 21092, Note_on_c, 2, 82, 0
1, 21100, Note_on_c, 2, 79, 56
1, 21107, Note_on_c, 2, 81, 0
1, 21122, Note_on_c, 2, 79, 0
1, 21122, Note_on_c, 2, 77, 68
1, 21130, Note_on_c, 2, 38, 0
1, 21137, Note_on_c, 2, 50, 0
1, 21141, Note_on_c, 2, 77, 0
1, 21144, Note_on_c, 2, 75, 66
1, 21163, Note_on_c, 2, 74, 57
1, 21167, Note_on_c, 2, 75, 0
1, 21185, Note_on_c, 2, 74, 0
1, 21185, Note_on_c, 2, 72, 66
1, 21193, Note_on_c, 2, 72, 0
1, 21204, Note_on_c, 2, 50, 59
1, 21204, Note_on_c, 2, 53, 44
1, 21204, Note_on_c, 2, 55, 45
1, 21206, Note_on_c, 2, 71, 50
1, 21211, Note_on_c, 2, 55, 0
1, 21211, Note_on_c, 2, 50, 0
1, 21211, Note_on_c, 2, 53, 0
1, 21226, Note_on_c, 2, 51, 72
1, 21226, Note_on_c, 2, 55, 56
1, 21226, Note_on_c, 2, 74, 56
1, 21230, Note_on_c, 2, 71, 0
1, 21248, Note_on_c, 2, 74, 0
1, 21252, Note_on_c, 2, 72, 62
1, 21271, Note_on_c, 2, 75, 66
1, 21293, Note_on_c, 2, 74, 56
1, 21296, Note_on_c, 2, 75, 0
1, 21308, Note_on_c, 2, 72, 0
1, 21311, Note_on_c, 2, 77, 54
1, 21319, Note_on_c, 2, 74, 0
1, 21334, Note_on_c, 2, 75, 63
1, 21341, Note_on_c, 2, 77, 0
1, 21346, Note_on_c, 2, 51, 0
1, 21346, Note_on_c, 2, 55, 0
1, 21356, Note_on_c, 2, 75, 0
1, 21356, Note_on_c, 2, 79, 55
1, 21370, Note_on_c, 2, 78, 55
1, 21378, Note_on_c, 2, 79, 0
1, 21397, Note_on_c, 2, 79, 53
1, 21400, Note_on_c, 2, 78, 0
1, 21415, Note_on_c, 2, 77, 56
1, 21422, Note_on_c, 2, 79, 0
1, 21437, Note_on_c, 2, 75, 59
1, 21444, Note_on_c, 2, 77, 0
1, 21463, Note_on_c, 2, 74, 56
1, 21470, Note_on_c, 2, 75, 0
1, 21482, Note_on_c, 2, 74, 0
1, 21482, Note_on_c, 2, 72, 60
1, 21500, Note_on_c, 2, 72, 0
1, 21500, Note_on_c, 2, 70, 63
1, 21522, Note_on_c, 2, 70, 0
1, 21522, Note_on_c, 2, 52, 48
1, 21522, Note_on_c, 2, 55, 46
1, 21522, Note_on_c, 2, 69, 53
1, 21537, Note_on_c, 2, 55, 0
1, 21537, Note_on_c, 2, 52, 0
1, 21545, Note_on_c, 2, 69, 0
1, 21545, Note_on_c, 2, 70, 62
1, 21567, Note_on_c, 2, 70, 0
1, 21567, Note_on_c, 2, 53, 65
1, 21567, Note_on_c, 2, 57, 56
1, 21568, Note_on_c, 2, 69, 55
1, 21589, Note_on_c, 2, 70, 63
1, 21608, Note_on_c, 2, 69, 0
1, 21608, Note_on_c, 2, 72, 55
1, 21612, Note_on_c, 2, 70, 0
1, 21630, Note_on_c, 2, 74, 50
1, 21637, Note_on_c, 2, 72, 0
1, 21652, Note_on_c, 2, 76, 54
1, 21656, Note_on_c, 2, 74, 0
1, 21656, Note_on_c, 2, 57, 0
1, 21663, Note_on_c, 2, 76, 0
1, 21671, Note_on_c, 2, 53, 0
1, 21674, Note_on_c, 2, 77, 47
1, 21692, Note_on_c, 2, 77, 0
1, 21697, Note_on_c, 2, 76, 55
1, 21719, Note_on_c, 2, 76, 0
1, 21719, Note_on_c, 2, 77, 57
1, 21737, Note_on_c, 2, 45, 55
1, 21738, Note_on_c, 2, 65, 50
1, 21741, Note_on_c, 2, 77, 0
1, 21760, Note_on_c, 2, 46, 53
1, 21764, Note_on_c, 2, 45, 0
1, 21778, Note_on_c, 2, 48, 59
1, 21782, Note_on_c, 2, 46, 0
1, 21800, Note_on_c, 2, 50, 54
1, 21808, Note_on_c, 2, 48, 0
1, 21818, Note_on_c, 2, 50, 0
1, 21819, Note_on_c, 2, 52, 66
1, 21841, Note_on_c, 2, 53, 62
1, 21848, Note_on_c, 2, 52, 0
1, 21864, Note_on_c, 2, 53, 0
1, 21864, Note_on_c, 2, 52, 52
1, 21882, Note_on_c, 2, 53, 56
1, 21889, Note_on_c, 2, 52, 0
1, 21893, Note_on_c, 2, 53, 0
1, 21908, Note_on_c, 2, 41, 66
1, 21962, Note_on_c, 2, 41, 0
1, 21974, Note_on_c, 2, 65, 0
1, 22052, Note_on_c, 2, 84, 37
1, 22070, Note_on_c, 2, 84, 0
1, 22097, Note_on_c, 2, 84, 44
1, 22112, Note_on_c, 2, 84, 0
1, 22141, Note_on_c, 2, 84, 33
1, 22156, Note_on_c, 2, 84, 0
1, 22186, Note_on_c, 2, 84, 38
1, 22200, Note_on_c, 2, 84, 0
1, 22230, Note_on_c, 2, 84, 45
1, 22245, Note_on_c, 2, 84, 0
1, 22278, Note_on_c, 2, 84, 48
1, 22278, Note_on_c, 2, 53, 28
1, 22323, Note_on_c, 2, 60, 43
1, 22360, Note_on_c, 2, 60, 0
1, 22360, Note_on_c, 2, 57, 40
1, 22393, Note_on_c, 2, 53, 0
1, 22401, Note_on_c, 2, 60, 44
1, 22401, Note_on_c, 2, 82, 39
1, 22408, Note_on_c, 2, 57, 0
1, 22411, Note_on_c, 2, 84, 0
1, 22419, Note_on_c, 2, 81, 34
1, 22426, Note_on_c, 2, 82, 0
1, 22441, Note_on_c, 2, 60, 0
1, 22441, Note_on_c, 2, 55, 42
1, 22441, Note_on_c, 2, 79, 54
1, 22445, Note_on_c, 2, 81, 0
1, 22482, Note_on_c, 2, 77, 45
1, 22482, Note_on_c, 2, 60, 39
1, 22489, Note_on_c, 2, 79, 0
1, 22523, Note_on_c, 2, 77, 0
1, 22523, Note_on_c, 2, 76, 39
1, 22523, Note_on_c, 2, 58, 40
1, 22526, Note_on_c, 2, 60, 0
1, 22534, Note_on_c, 2, 55, 0
1, 22560, Note_on_c, 2, 60, 38
1, 22564, Note_on_c, 2, 76, 0
1, 22564, Note_on_c, 2, 79, 50
1, 22570, Note_on_c, 2, 58, 0
1, 22604, Note_on_c, 2, 79, 0
1, 22604, Note_on_c, 2, 57, 41
1, 22605, Note_on_c, 2, 77, 46
1, 22630, Note_on_c, 2, 60, 0
1, 22645, Note_on_c, 2, 53, 39
1, 22690, Note_on_c, 2, 77, 0
1, 22690, Note_on_c, 2, 60, 44
1, 22690, Note_on_c, 2, 72, 42
1, 22693, Note_on_c, 2, 57, 0
1, 22697, Note_on_c, 2, 53, 0
1, 22730, Note_on_c, 2, 84, 54
1, 22738, Note_on_c, 2, 72, 0
1, 22745, Note_on_c, 2, 84, 0
1, 22745, Note_on_c, 2, 60, 0
1, 22771, Note_on_c, 2, 84, 52
1, 22782, Note_on_c, 2, 84, 0
1, 22812, Note_on_c, 2, 84, 45
1, 22823, Note_on_c, 2, 84, 0
1, 22856, Note_on_c, 2, 84, 45
1, 22867, Note_on_c, 2, 84, 0
1, 22897, Note_on_c, 2, 84, 47
1, 22912, Note_on_c, 2, 84, 0
1, 22945, Note_on_c, 2, 84, 52
1, 22945, Note_on_c, 2, 53, 34
1, 22989, Note_on_c, 2, 60, 38
1, 23026, Note_on_c, 2, 57, 43
1, 23030, Note_on_c, 2, 60, 0
1, 23041, Note_on_c, 2, 53, 0
1, 23068, Note_on_c, 2, 60, 51
1, 23071, Note_on_c, 2, 82, 54
1, 23075, Note_on_c, 2, 57, 0
1, 23079, Note_on_c, 2, 84, 0
1, 23090, Note_on_c, 2, 81, 53
1, 23097, Note_on_c, 2, 82, 0
1, 23108, Note_on_c, 2, 81, 0
1, 23108, Note_on_c, 2, 52, 48
1, 23108, Note_on_c, 2, 79, 65
1, 23112, Note_on_c, 2, 60, 0
1, 23149, Note_on_c, 2, 60, 54
1, 23149, Note_on_c, 2, 81, 59
1, 23164, Note_on_c, 2, 79, 0
1, 23186, Note_on_c, 2, 60, 0
1, 23186, Note_on_c, 2, 55, 46
1, 23186, Note_on_c, 2, 82, 65
1, 23193, Note_on_c, 2, 81, 0
1, 23223, Note_on_c, 2, 60, 57
1, 23227, Note_on_c, 2, 52, 0
1, 23227, Note_on_c, 2, 82, 0
1, 23227, Note_on_c, 2, 79, 66
1, 23230, Note_on_c, 2, 55, 0
1, 23268, Note_on_c, 2, 53, 55
1, 23268, Note_on_c, 2, 81, 54
1, 23271, Note_on_c, 2, 60, 0
1, 23275, Note_on_c, 2, 79, 0
1, 23312, Note_on_c, 2, 57, 46
1, 23356, Note_on_c, 2, 60, 54
1, 23397, Note_on_c, 2, 84, 65
1, 23412, Note_on_c, 2, 81, 0
1, 23416, Note_on_c, 2, 84, 0
1, 23438, Note_on_c, 2, 84, 59
1, 23453, Note_on_c, 2, 84, 0
1, 23479, Note_on_c, 2, 84, 68
1, 23489, Note_on_c, 2, 84, 0
1, 23523, Note_on_c, 2, 84, 79
1, 23534, Note_on_c, 2, 84, 0
1, 23534, Note_on_c, 2, 60, 0
1, 23538, Note_on_c, 2, 57, 0
1, 23538, Note_on_c, 2, 53, 0
1, 23564, Note_on_c, 2, 85, 68
1, 23608, Note_on_c, 2, 86, 62
1, 23608, Note_on_c, 2, 58, 51
1, 23608, Note_on_c, 2, 46, 56
1, 23615, Note_on_c, 2, 85, 0
1, 23623, Note_on_c, 2, 86, 0
1, 23627, Note_on_c, 2, 74, 68
1, 23649, Note_on_c, 2, 73, 72
1, 23653, Note_on_c, 2, 74, 0
1, 23668, Note_on_c, 2, 73, 0
1, 23671, Note_on_c, 2, 74, 55
1, 23686, Note_on_c, 2, 74, 0
1, 23690, Note_on_c, 2, 75, 68
1, 23704, Note_on_c, 2, 75, 0
1, 23708, Note_on_c, 2, 74, 60
1, 23727, Note_on_c, 2, 74, 0
1, 23730, Note_on_c, 2, 76, 68
1, 23750, Note_on_c, 2, 76, 0
1, 23750, Note_on_c, 2, 74, 62
1, 23768, Note_on_c, 2, 74, 0
1, 23768, Note_on_c, 2, 77, 65
1, 23786, Note_on_c, 2, 77, 0
1, 23790, Note_on_c, 2, 74, 66
1, 23808, Note_on_c, 2, 74, 0
1, 23808, Note_on_c, 2, 78, 70
1, 23830, Note_on_c, 2, 78, 0
1, 23830, Note_on_c, 2, 74, 70
1, 23850, Note_on_c, 2, 74, 0
1, 23853, Note_on_c, 2, 79, 60
1, 23872, Note_on_c, 2, 79, 0
1, 23872, Note_on_c, 2, 74, 65
1, 23882, Note_on_c, 2, 58, 0
1, 23886, Note_on_c, 2, 46, 0
1, 23893, Note_on_c, 2, 74, 0
1, 23893, Note_on_c, 2, 81, 60
1, 23908, Note_on_c, 2, 81, 0
1, 23912, Note_on_c, 2, 74, 66
1, 23931, Note_on_c, 2, 55, 63
1, 23932, Note_on_c, 2, 82, 66
1, 23957, Note_on_c, 2, 55, 0
1, 23957, Note_on_c, 2, 57, 62
1, 23976, Note_on_c, 2, 58, 70
1, 23978, Note_on_c, 2, 57, 0
1, 23990, Note_on_c, 2, 58, 0
1, 23990, Note_on_c, 2, 57, 60
1, 24012, Note_on_c, 2, 55, 72
1, 24016, Note_on_c, 2, 57, 0
1, 24030, Note_on_c, 2, 55, 0
1, 24030, Note_on_c, 2, 57, 60
1, 24049, Note_on_c, 2, 57, 0
1, 24053, Note_on_c, 2, 53, 79
1, 24072, Note_on_c, 2, 55, 59
1, 24090, Note_on_c, 2, 53, 0
1, 24094, Note_on_c, 2, 55, 0
1, 24094, Note_on_c, 2, 52, 79
1, 24116, Note_on_c, 2, 52, 0
1, 24116, Note_on_c, 2, 53, 49
1, 24134, Note_on_c, 2, 53, 0
1, 24134, Note_on_c, 2, 50, 83
1, 24153, Note_on_c, 2, 50, 0
1, 24153, Note_on_c, 2, 52, 52
1, 24154, Note_on_c, 2, 53, 52
1, 24160, Note_on_c, 2, 74, 0
1, 24164, Note_on_c, 2, 82, 0
1, 24168, Note_on_c, 2, 52, 0
1, 24168, Note_on_c, 2, 53, 0
1, 24175, Note_on_c, 2, 48, 83
1, 24179, Note_on_c, 2, 81, 50
1, 24186, Note_on_c, 2, 82, 57
1, 24190, Note_on_c, 2, 81, 0
1, 24194, Note_on_c, 2, 48, 0
1, 24194, Note_on_c, 2, 52, 37
1, 24201, Note_on_c, 2, 81, 60
1, 24205, Note_on_c, 2, 82, 0
1, 24212, Note_on_c, 2, 82, 57
1, 24213, Note_on_c, 2, 46, 50
1, 24216, Note_on_c, 2, 81, 0
1, 24216, Note_on_c, 2, 52, 0
1, 24227, Note_on_c, 2, 82, 0
1, 24227, Note_on_c, 2, 81, 63
1, 24242, Note_on_c, 2, 82, 46
1, 24250, Note_on_c, 2, 81, 0
1, 24264, Note_on_c, 2, 57, 55
1, 24268, Note_on_c, 2, 46, 0
1, 24268, Note_on_c, 2, 45, 57
1, 24268, Note_on_c, 2, 84, 65
1, 24272, Note_on_c, 2, 82, 0
1, 24283, Note_on_c, 2, 84, 0
1, 24287, Note_on_c, 2, 72, 72
1, 24305, Note_on_c, 2, 71, 70
1, 24312, Note_on_c, 2, 72, 0
1, 24327, Note_on_c, 2, 71, 0
1, 24327, Note_on_c, 2, 72, 59
1, 24346, Note_on_c, 2, 72, 0
1, 24346, Note_on_c, 2, 73, 79
1, 24364, Note_on_c, 2, 73, 0
1, 24364, Note_on_c, 2, 72, 66
1, 24382, Note_on_c, 2, 72, 0
1, 24386, Note_on_c, 2, 74, 65
1, 24405, Note_on_c, 2, 74, 0
1, 24405, Note_on_c, 2, 72, 59
1, 24424, Note_on_c, 2, 72, 0
1, 24424, Note_on_c, 2, 75, 72
1, 24446, Note_on_c, 2, 75, 0
1, 24446, Note_on_c, 2, 72, 72
1, 24464, Note_on_c, 2, 72, 0
1, 24464, Note_on_c, 2, 76, 65
1, 24482, Note_on_c, 2, 76, 0
1, 24486, Note_on_c, 2, 72, 65
1, 24505, Note_on_c, 2, 72, 0
1, 24505, Note_on_c, 2, 77, 63
1, 24520, Note_on_c, 2, 45, 0
1, 24527, Note_on_c, 2, 77, 0
1, 24528, Note_on_c, 2, 72, 68
1, 24546, Note_on_c, 2, 79, 63
1, 24549, Note_on_c, 2, 72, 0
1, 24564, Note_on_c, 2, 79, 0
1, 24568, Note_on_c, 2, 72, 66
1, 24586, Note_on_c, 2, 53, 66
1, 24586, Note_on_c, 2, 81, 70
1, 24590, Note_on_c, 2, 57, 0
1, 24605, Note_on_c, 2, 55, 70
1, 24613, Note_on_c, 2, 53, 0
1, 24624, Note_on_c, 2, 57, 66
1, 24627, Note_on_c, 2, 55, 0
1, 24646, Note_on_c, 2, 55, 57
1, 24664, Note_on_c, 2, 57, 0
1, 24664, Note_on_c, 2, 53, 65
1, 24668, Note_on_c, 2, 55, 0
1, 24686, Note_on_c, 2, 53, 0
1, 24686, Note_on_c, 2, 55, 57
1, 24705, Note_on_c, 2, 55, 0
1, 24705, Note_on_c, 2, 52, 72
1, 24724, Note_on_c, 2, 52, 0
1, 24724, Note_on_c, 2, 53, 55
1, 24746, Note_on_c, 2, 50, 79
1, 24749, Note_on_c, 2, 53, 0
1, 24764, Note_on_c, 2, 50, 0
1, 24768, Note_on_c, 2, 52, 56
1, 24783, Note_on_c, 2, 52, 0
1, 24786, Note_on_c, 2, 48, 68
1, 24801, Note_on_c, 2, 72, 0
1, 24804, Note_on_c, 2, 48, 0
1, 24808, Note_on_c, 2, 52, 51
1, 24808, Note_on_c, 2, 50, 49
1, 24816, Note_on_c, 2, 81, 0
1, 24820, Note_on_c, 2, 50, 0
1, 24824, Note_on_c, 2, 52, 0
1, 24827, Note_on_c, 2, 46, 70
1, 24831, Note_on_c, 2, 81, 49
1, 24838, Note_on_c, 2, 82, 56
1, 24842, Note_on_c, 2, 81, 0
1, 24846, Note_on_c, 2, 46, 0
1, 24849, Note_on_c, 2, 52, 36
1, 24853, Note_on_c, 2, 82, 0
1, 24853, Note_on_c, 2, 81, 54
1, 24861, Note_on_c, 2, 46, 45
1, 24864, Note_on_c, 2, 52, 0
1, 24865, Note_on_c, 2, 81, 0
1, 24865, Note_on_c, 2, 82, 55
1, 24871, Note_on_c, 2, 82, 0
1, 24875, Note_on_c, 2, 81, 43
1, 24886, Note_on_c, 2, 82, 55
1, 24890, Note_on_c, 2, 81, 0
1, 24898, Note_on_c, 2, 82, 0
1, 24909, Note_on_c, 2, 46, 0
1, 24916, Note_on_c, 2, 55, 45
1, 24916, Note_on_c, 2, 43, 56
1, 24916, Note_on_c, 2, 82, 62
1, 24939, Note_on_c, 2, 82, 0
1, 24939, Note_on_c, 2, 70, 72
1, 24965, Note_on_c, 2, 69, 41
1, 24968, Note_on_c, 2, 70, 0
1, 24979, Note_on_c, 2, 70, 46
1, 24982, Note_on_c, 2, 69, 0
1, 24997, Note_on_c, 2, 72, 53
1, 25001, Note_on_c, 2, 70, 0
1, 25020, Note_on_c, 2, 72, 0
1, 25020, Note_on_c, 2, 70, 66
1, 25038, Note_on_c, 2, 74, 63
1, 25042, Note_on_c, 2, 70, 0
1, 25057, Note_on_c, 2, 74, 0
1, 25061, Note_on_c, 2, 70, 65
1, 25079, Note_on_c, 2, 75, 60
1, 25082, Note_on_c, 2, 70, 0
1, 25098, Note_on_c, 2, 70, 55
1, 25109, Note_on_c, 2, 75, 0
1, 25120, Note_on_c, 2, 76, 57
1, 25127, Note_on_c, 2, 70, 0
1, 25142, Note_on_c, 2, 76, 0
1, 25142, Note_on_c, 2, 70, 49
1, 25160, Note_on_c, 2, 77, 55
1, 25164, Note_on_c, 2, 70, 0
1, 25183, Note_on_c, 2, 77, 0
1, 25183, Note_on_c, 2, 70, 54
1, 25194, Note_on_c, 2, 43, 0
1, 25201, Note_on_c, 2, 70, 0
1, 25205, Note_on_c, 2, 78, 53
1, 25227, Note_on_c, 2, 70, 40
1, 25231, Note_on_c, 2, 78, 0
1, 25257, Note_on_c, 2, 70, 0
1, 25257, Note_on_c, 2, 48, 28
1, 25258, Note_on_c, 2, 79, 52
1, 25276, Note_on_c, 2, 55, 0
1, 25279, Note_on_c, 2, 52, 38
1, 25302, Note_on_c, 2, 55, 48
1, 25305, Note_on_c, 2, 52, 0
1, 25324, Note_on_c, 2, 48, 0
1, 25324, Note_on_c, 2, 52, 40
1, 25335, Note_on_c, 2, 79, 0
1, 25342, Note_on_c, 2, 52, 0
1, 25346, Note_on_c, 2, 48, 49
1, 25349, Note_on_c, 2, 55, 0
1, 25368, Note_on_c, 2, 52, 48
1, 25387, Note_on_c, 2, 52, 0
1, 25387, Note_on_c, 2, 55, 47
1, 25390, Note_on_c, 2, 82, 68
1, 25405, Note_on_c, 2, 52, 46
1, 25409, Note_on_c, 2, 82, 0
1, 25409, Note_on_c, 2, 48, 0
1, 25424, Note_on_c, 2, 52, 0
1, 25428, Note_on_c, 2, 48, 47
1, 25431, Note_on_c, 2, 55, 0
1, 25431, Note_on_c, 2, 81, 60
1, 25450, Note_on_c, 2, 52, 46
1, 25472, Note_on_c, 2, 52, 0
1, 25472, Note_on_c, 2, 55, 53
1, 25472, Note_on_c, 2, 79, 52
1, 25476, Note_on_c, 2, 81, 0
1, 25491, Note_on_c, 2, 52, 48
1, 25494, Note_on_c, 2, 48, 0
1, 25509, Note_on_c, 2, 52, 0
1, 25513, Note_on_c, 2, 55, 0
1, 25513, Note_on_c, 2, 48, 53
1, 25517, Note_on_c, 2, 77, 45
1, 25520, Note_on_c, 2, 79, 0
1, 25531, Note_on_c, 2, 52, 41
1, 25553, Note_on_c, 2, 52, 0
1, 25553, Note_on_c, 2, 77, 0
1, 25554, Note_on_c, 2, 55, 52
1, 25554, Note_on_c, 2, 76, 47
1, 25576, Note_on_c, 2, 48, 0
1, 25576, Note_on_c, 2, 52, 42
1, 25598, Note_on_c, 2, 52, 0
1, 25602, Note_on_c, 2, 48, 45
1, 25605, Note_on_c, 2, 55, 0
1, 25605, Note_on_c, 2, 79, 53
1, 25617, Note_on_c, 2, 76, 0
1, 25624, Note_on_c, 2, 53, 45
1, 25646, Note_on_c, 2, 77, 48
1, 25647, Note_on_c, 2, 57, 47
1, 25650, Note_on_c, 2, 53, 0
1, 25650, Note_on_c, 2, 79, 0
1, 25665, Note_on_c, 2, 53, 45
1, 25668, Note_on_c, 2, 48, 0
1, 25687, Note_on_c, 2, 53, 0
1, 25691, Note_on_c, 2, 57, 0
1, 25691, Note_on_c, 2, 48, 55
1, 25709, Note_on_c, 2, 53, 41
1, 25731, Note_on_c, 2, 57, 45
1, 25735, Note_on_c, 2, 53, 0
1, 25735, Note_on_c, 2, 84, 45
1, 25746, Note_on_c, 2, 77, 0
1, 25753, Note_on_c, 2, 48, 0
1, 25754, Note_on_c, 2, 53, 39
1, 25772, Note_on_c, 2, 53, 0
1, 25776, Note_on_c, 2, 48, 45
1, 25776, Note_on_c, 2, 82, 53
1, 25779, Note_on_c, 2, 57, 0
1, 25779, Note_on_c, 2, 84, 0
1, 25798, Note_on_c, 2, 51, 48
1, 25816, Note_on_c, 2, 48, 0
1, 25817, Note_on_c, 2, 54, 49
1, 25817, Note_on_c, 2, 81, 51
1, 25824, Note_on_c, 2, 51, 0
1, 25827, Note_on_c, 2, 82, 0
1, 25838, Note_on_c, 2, 51, 43
1, 25846, Note_on_c, 2, 54, 0
1, 25861, Note_on_c, 2, 79, 46
1, 25861, Note_on_c, 2, 48, 47
1, 25864, Note_on_c, 2, 51, 0
1, 25864, Note_on_c, 2, 81, 0
1, 25884, Note_on_c, 2, 51, 42
1, 25898, Note_on_c, 2, 79, 0
1, 25905, Note_on_c, 2, 51, 0
1, 25905, Note_on_c, 2, 54, 47
1, 25905, Note_on_c, 2, 78, 50
1, 25916, Note_on_c, 2, 48, 0
1, 25924, Note_on_c, 2, 78, 0
1, 25924, Note_on_c, 2, 51, 39
1, 25935, Note_on_c, 2, 51, 0
1, 25935, Note_on_c, 2, 54, 0
1, 25942, Note_on_c, 2, 46, 54
1, 25946, Note_on_c, 2, 79, 49
1, 25965, Note_on_c, 2, 50, 48
1, 25979, Note_on_c, 2, 50, 0
1, 25983, Note_on_c, 2, 55, 46
1, 26006, Note_on_c, 2, 46, 0
1, 26006, Note_on_c, 2, 50, 44
1, 26006, Note_on_c, 2, 81, 68
1, 26013, Note_on_c, 2, 79, 0
1, 26024, Note_on_c, 2, 55, 0
1, 26024, Note_on_c, 2, 50, 0
1, 26028, Note_on_c, 2, 46, 48
1, 26028, Note_on_c, 2, 84, 53
1, 26031, Note_on_c, 2, 81, 0
1, 26046, Note_on_c, 2, 50, 46
1, 26050, Note_on_c, 2, 82, 66
1, 26057, Note_on_c, 2, 84, 0
1, 26068, Note_on_c, 2, 55, 54
1, 26068, Note_on_c, 2, 81, 66
1, 26076, Note_on_c, 2, 82, 0
1, 26080, Note_on_c, 2, 55, 0
1, 26080, Note_on_c, 2, 46, 0
1, 26091, Note_on_c, 2, 50, 0
1, 26091, Note_on_c, 2, 81, 0
1, 26091, Note_on_c, 2, 79, 72
1, 26091, Note_on_c, 2, 55, 44
1, 26109, Note_on_c, 2, 55, 0
1, 26109, Note_on_c, 2, 48, 63
1, 26109, Note_on_c, 2, 77, 68
1, 26113, Note_on_c, 2, 79, 0
1, 26132, Note_on_c, 2, 53, 48
1, 26154, Note_on_c, 2, 53, 0
1, 26154, Note_on_c, 2, 57, 53
1, 26176, Note_on_c, 2, 48, 0
1, 26176, Note_on_c, 2, 53, 41
1, 26183, Note_on_c, 2, 53, 0
1, 26187, Note_on_c, 2, 57, 0
1, 26187, Note_on_c, 2, 77, 0
1, 26194, Note_on_c, 2, 48, 57
1, 26198, Note_on_c, 2, 76, 52
1, 26209, Note_on_c, 2, 77, 57
1, 26213, Note_on_c, 2, 76, 0
1, 26217, Note_on_c, 2, 52, 44
1, 26217, Note_on_c, 2, 55, 38
1, 26220, Note_on_c, 2, 77, 0
1, 26220, Note_on_c, 2, 76, 49
1, 26231, Note_on_c, 2, 76, 0
1, 26232, Note_on_c, 2, 77, 47
1, 26239, Note_on_c, 2, 48, 0
1, 26242, Note_on_c, 2, 55, 0
1, 26242, Note_on_c, 2, 52, 0
1, 26246, Note_on_c, 2, 76, 49
1, 26250, Note_on_c, 2, 77, 0
1, 26261, Note_on_c, 2, 76, 0
1, 26261, Note_on_c, 2, 77, 50
1, 26272, Note_on_c, 2, 76, 48
1, 26309, Note_on_c, 2, 76, 0
1, 26309, Note_on_c, 2, 53, 53
1, 26309, Note_on_c, 2, 65, 50
1, 26313, Note_on_c, 2, 77, 0
1, 26328, Note_on_c, 2, 77, 70
1, 26339, Note_on_c, 2, 65, 0
1, 26346, Note_on_c, 2, 77, 0
1, 26347, Note_on_c, 2, 53, 0
1, 26347, Note_on_c, 2, 76, 63
1, 26365, Note_on_c, 2, 77, 55
1, 26368, Note_on_c, 2, 76, 0
1, 26380, Note_on_c, 2, 77, 0
1, 26387, Note_on_c, 2, 60, 53
1, 26387, Note_on_c, 2, 48, 57
1, 26409, Note_on_c, 2, 72, 68
1, 26428, Note_on_c, 2, 72, 0
1, 26428, Note_on_c, 2, 71, 57
1, 26435, Note_on_c, 2, 60, 0
1, 26442, Note_on_c, 2, 48, 0
1, 26450, Note_on_c, 2, 72, 55
1, 26457, Note_on_c, 2, 71, 0
1, 26465, Note_on_c, 2, 72, 0
1, 26468, Note_on_c, 2, 45, 60
1, 26468, Note_on_c, 2, 57, 54
1, 26491, Note_on_c, 2, 69, 52
1, 26513, Note_on_c, 2, 69, 0
1, 26513, Note_on_c, 2, 57, 0
1, 26513, Note_on_c, 2, 68, 68
1, 26520, Note_on_c, 2, 45, 0
1, 26531, Note_on_c, 2, 69, 59
1, 26538, Note_on_c, 2, 68, 0
1, 26546, Note_on_c, 2, 69, 0
1, 26554, Note_on_c, 2, 41, 57
1, 26557, Note_on_c, 2, 53, 51
1, 26576, Note_on_c, 2, 65, 63
1, 26587, Note_on_c, 2, 41, 0
1, 26594, Note_on_c, 2, 65, 0
1, 26598, Note_on_c, 2, 64, 33
1, 26602, Note_on_c, 2, 53, 0
1, 26620, Note_on_c, 2, 65, 42
1, 26624, Note_on_c, 2, 64, 0
1, 26631, Note_on_c, 2, 65, 0
1, 26661, Note_on_c, 2, 48, 55
1, 26669, Note_on_c, 2, 72, 55
1, 26684, Note_on_c, 2, 55, 47
1, 26702, Note_on_c, 2, 58, 48
1, 26705, Note_on_c, 2, 55, 0
1, 26724, Note_on_c, 2, 48, 0
1, 26724, Note_on_c, 2, 55, 45
1, 26746, Note_on_c, 2, 48, 52
1, 26750, Note_on_c, 2, 58, 0
1, 26754, Note_on_c, 2, 55, 0
1, 26769, Note_on_c, 2, 55, 47
1, 26791, Note_on_c, 2, 58, 48
1, 26794, Note_on_c, 2, 55, 0
1, 26794, Note_on_c, 2, 72, 0
1, 26794, Note_on_c, 2, 82, 45
1, 26813, Note_on_c, 2, 48, 0
1, 26813, Note_on_c, 2, 55, 46
1, 26824, Note_on_c, 2, 82, 0
1, 26824, Note_on_c, 2, 58, 0
1, 26836, Note_on_c, 2, 55, 0
1, 26836, Note_on_c, 2, 48, 51
1, 26839, Note_on_c, 2, 81, 51
1, 26857, Note_on_c, 2, 55, 47
1, 26876, Note_on_c, 2, 55, 0
1, 26880, Note_on_c, 2, 58, 45
1, 26880, Note_on_c, 2, 79, 48
1, 26884, Note_on_c, 2, 81, 0
1, 26898, Note_on_c, 2, 55, 45
1, 26902, Note_on_c, 2, 48, 0
1, 26910, Note_on_c, 2, 58, 0
1, 26920, Note_on_c, 2, 55, 0
1, 26921, Note_on_c, 2, 48, 53
1, 26924, Note_on_c, 2, 77, 52
1, 26928, Note_on_c, 2, 79, 0
1, 26943, Note_on_c, 2, 55, 48
1, 26965, Note_on_c, 2, 55, 0
1, 26965, Note_on_c, 2, 58, 57
1, 26968, Note_on_c, 2, 76, 46
1, 26972, Note_on_c, 2, 77, 0
1, 26991, Note_on_c, 2, 55, 44
1, 26994, Note_on_c, 2, 48, 0
1, 27006, Note_on_c, 2, 55, 0
1, 27013, Note_on_c, 2, 58, 0
1, 27014, Note_on_c, 2, 48, 46
1, 27017, Note_on_c, 2, 79, 54
1, 27024, Note_on_c, 2, 76, 0
1, 27039, Note_on_c, 2, 53, 52
1, 27062, Note_on_c, 2, 77, 52
1, 27065, Note_on_c, 2, 79, 0
1, 27069, Note_on_c, 2, 57, 66
1, 27072, Note_on_c, 2, 53, 0
1, 27091, Note_on_c, 2, 53, 45
1, 27098, Note_on_c, 2, 48, 0
1, 27113, Note_on_c, 2, 57, 0
1, 27113, Note_on_c, 2, 48, 59
1, 27117, Note_on_c, 2, 53, 0
1, 27136, Note_on_c, 2, 53, 52
1, 27150, Note_on_c, 2, 53, 0
1, 27157, Note_on_c, 2, 57, 55
1, 27158, Note_on_c, 2, 84, 53
1, 27165, Note_on_c, 2, 77, 0
1, 27176, Note_on_c, 2, 48, 0
1, 27176, Note_on_c, 2, 53, 46
1, 27191, Note_on_c, 2, 53, 0
1, 27191, Note_on_c, 2, 57, 0
1, 27198, Note_on_c, 2, 82, 63
1, 27199, Note_on_c, 2, 48, 51
1, 27202, Note_on_c, 2, 84, 0
1, 27220, Note_on_c, 2, 51, 52
1, 27228, Note_on_c, 2, 48, 0
1, 27243, Note_on_c, 2, 54, 46
1, 27243, Note_on_c, 2, 81, 55
1, 27246, Note_on_c, 2, 51, 0
1, 27250, Note_on_c, 2, 82, 0
1, 27261, Note_on_c, 2, 51, 45
1, 27280, Note_on_c, 2, 51, 0
1, 27280, Note_on_c, 2, 54, 0
1, 27284, Note_on_c, 2, 48, 37
1, 27287, Note_on_c, 2, 81, 0
1, 27288, Note_on_c, 2, 79, 53
1, 27306, Note_on_c, 2, 51, 35
1, 27313, Note_on_c, 2, 79, 0
1, 27324, Note_on_c, 2, 48, 0
1, 27328, Note_on_c, 2, 78, 56
1, 27328, Note_on_c, 2, 54, 45
1, 27335, Note_on_c, 2, 51, 0
1, 27346, Note_on_c, 2, 78, 0
1, 27350, Note_on_c, 2, 51, 39
1, 27354, Note_on_c, 2, 54, 0
1, 27361, Note_on_c, 2, 51, 0
1, 27372, Note_on_c, 2, 46, 53
1, 27372, Note_on_c, 2, 79, 57
1, 27392, Note_on_c, 2, 50, 52
1, 27414, Note_on_c, 2, 50, 0
1, 27414, Note_on_c, 2, 55, 48
1, 27432, Note_on_c, 2, 50, 49
1, 27439, Note_on_c, 2, 46, 0
1, 27443, Note_on_c, 2, 55, 0
1, 27450, Note_on_c, 2, 50, 0
1, 27454, Note_on_c, 2, 46, 56
1, 27458, Note_on_c, 2, 81, 56
1, 27465, Note_on_c, 2, 79, 0
1, 27476, Note_on_c, 2, 50, 47
1, 27480, Note_on_c, 2, 82, 38
1, 27484, Note_on_c, 2, 46, 0
1, 27488, Note_on_c, 2, 81, 0
1, 27498, Note_on_c, 2, 84, 68
1, 27502, Note_on_c, 2, 55, 17
1, 27506, Note_on_c, 2, 82, 0
1, 27517, Note_on_c, 2, 50, 0
1, 27520, Note_on_c, 2, 84, 0
1, 27520, Note_on_c, 2, 86, 62
1, 27532, Note_on_c, 2, 86, 0
1, 27536, Note_on_c, 2, 55, 0
1, 27539, Note_on_c, 2, 48, 57
1, 27539, Note_on_c, 2, 86, 62
1, 27558, Note_on_c, 2, 86, 0
1, 27558, Note_on_c, 2, 53, 43
1, 27559, Note_on_c, 2, 77, 60
1, 27580, Note_on_c, 2, 57, 57
1, 27584, Note_on_c, 2, 53, 0
1, 27602, Note_on_c, 2, 48, 0
1, 27602, Note_on_c, 2, 52, 38
1, 27602, Note_on_c, 2, 53, 40
1, 27606, Note_on_c, 2, 57, 0
1, 27609, Note_on_c, 2, 52, 0
1, 27610, Note_on_c, 2, 77, 0
1, 27610, Note_on_c, 2, 53, 0
1, 27624, Note_on_c, 2, 48, 45
1, 27624, Note_on_c, 2, 79, 63
1, 27628, Note_on_c, 2, 52, 33
1, 27636, Note_on_c, 2, 79, 0
1, 27636, Note_on_c, 2, 55, 25
1, 27636, Note_on_c, 2, 81, 49
1, 27646, Note_on_c, 2, 52, 0
1, 27650, Note_on_c, 2, 81, 0
1, 27651, Note_on_c, 2, 79, 63
1, 27661, Note_on_c, 2, 79, 0
1, 27661, Note_on_c, 2, 81, 54
1, 27665, Note_on_c, 2, 55, 0
1, 27669, Note_on_c, 2, 81, 0
1, 27669, Note_on_c, 2, 79, 40
1, 27680, Note_on_c, 2, 79, 0
1, 27680, Note_on_c, 2, 81, 45
1, 27687, Note_on_c, 2, 48, 0
1, 27694, Note_on_c, 2, 81, 0
1, 27695, Note_on_c, 2, 79, 42
1, 27713, Note_on_c, 2, 77, 63
1, 27713, Note_on_c, 2, 53, 59
1, 27713, Note_on_c, 2, 57, 56
1, 27717, Note_on_c, 2, 79, 0
1, 27758, Note_on_c, 2, 84, 59
1, 27769, Note_on_c, 2, 77, 0
1, 27780, Note_on_c, 2, 81, 54
1, 27784, Note_on_c, 2, 84, 0
1, 27799, Note_on_c, 2, 77, 57
1, 27813, Note_on_c, 2, 81, 0
1, 27821, Note_on_c, 2, 77, 0
1, 27821, Note_on_c, 2, 72, 72
1, 27832, Note_on_c, 2, 72, 0
1, 27843, Note_on_c, 2, 69, 50
1, 27861, Note_on_c, 2, 69, 0
1, 27861, Note_on_c, 2, 65, 53
1, 27869, Note_on_c, 2, 65, 0
1, 27884, Note_on_c, 2, 60, 72
1, 27887, Note_on_c, 2, 63, 83
1, 27895, Note_on_c, 2, 57, 0
1, 27898, Note_on_c, 2, 53, 0
1, 27925, Note_on_c, 2, 41, 56
1, 27925, Note_on_c, 2, 53, 52
1, 27936, Note_on_c, 2, 41, 0
1, 27940, Note_on_c, 2, 53, 0
1, 27969, Note_on_c, 2, 57, 53
1, 27969, Note_on_c, 2, 45, 65
1, 27976, Note_on_c, 2, 57, 0
1, 27980, Note_on_c, 2, 45, 0
1, 28010, Note_on_c, 2, 41, 63
1, 28013, Note_on_c, 2, 53, 54
1, 28021, Note_on_c, 2, 41, 0
1, 28024, Note_on_c, 2, 53, 0
1, 28028, Note_on_c, 2, 63, 0
1, 28043, Note_on_c, 2, 60, 0
1, 28054, Note_on_c, 2, 46, 55
1, 28058, Note_on_c, 2, 58, 62
1, 28098, Note_on_c, 2, 62, 54
1, 28128, Note_on_c, 2, 62, 0
1, 28136, Note_on_c, 2, 46, 0
1, 28143, Note_on_c, 2, 58, 0
1, 28143, Note_on_c, 2, 55, 55
1, 28184, Note_on_c, 2, 70, 53
1, 28185, Note_on_c, 2, 74, 57
1, 28229, Note_on_c, 2, 60, 51
1, 28266, Note_on_c, 2, 69, 46
1, 28266, Note_on_c, 2, 72, 52
1, 28269, Note_on_c, 2, 74, 0
1, 28269, Note_on_c, 2, 70, 0
1, 28272, Note_on_c, 2, 72, 0
1, 28276, Note_on_c, 2, 69, 0
1, 28310, Note_on_c, 2, 60, 0
1, 28314, Note_on_c, 2, 48, 52
1, 28325, Note_on_c, 2, 55, 0
1, 28350, Note_on_c, 2, 58, 47
1, 28350, Note_on_c, 2, 64, 56
1, 28362, Note_on_c, 2, 58, 0
1, 28369, Note_on_c, 2, 64, 0
1, 28395, Note_on_c, 2, 53, 48
1, 28395, Note_on_c, 2, 57, 45
1, 28398, Note_on_c, 2, 48, 0
1, 28440, Note_on_c, 2, 84, 60
1, 28462, Note_on_c, 2, 81, 50
1, 28484, Note_on_c, 2, 77, 44
1, 28488, Note_on_c, 2, 84, 0
1, 28495, Note_on_c, 2, 81, 0
1, 28506, Note_on_c, 2, 77, 0
1, 28506, Note_on_c, 2, 72, 59
1, 28514, Note_on_c, 2, 72, 0
1, 28528, Note_on_c, 2, 69, 40
1, 28547, Note_on_c, 2, 69, 0
1, 28548, Note_on_c, 2, 65, 50
1, 28554, Note_on_c, 2, 65, 0
1, 28569, Note_on_c, 2, 60, 66
1, 28569, Note_on_c, 2, 63, 79
1, 28580, Note_on_c, 2, 57, 0
1, 28584, Note_on_c, 2, 53, 0
1, 28610, Note_on_c, 2, 41, 53
1, 28611, Note_on_c, 2, 53, 54
1, 28621, Note_on_c, 2, 53, 0
1, 28621, Note_on_c, 2, 41, 0
1, 28651, Note_on_c, 2, 45, 68
1, 28652, Note_on_c, 2, 57, 55
1, 28658, Note_on_c, 2, 57, 0
1, 28662, Note_on_c, 2, 45, 0
1, 28691, Note_on_c, 2, 41, 63
1, 28692, Note_on_c, 2, 53, 54
1, 28699, Note_on_c, 2, 41, 0
1, 28702, Note_on_c, 2, 53, 0
1, 28732, Note_on_c, 2, 63, 0
1, 28732, Note_on_c, 2, 46, 63
1, 28733, Note_on_c, 2, 58, 54
1, 28736, Note_on_c, 2, 60, 0
1, 28773, Note_on_c, 2, 62, 55
1, 28810, Note_on_c, 2, 62, 0
1, 28817, Note_on_c, 2, 46, 0
1, 28817, Note_on_c, 2, 55, 48
1, 28821, Note_on_c, 2, 58, 0
1, 28862, Note_on_c, 2, 70, 53
1, 28862, Note_on_c, 2, 74, 56
1, 28906, Note_on_c, 2, 60, 46
1, 28947, Note_on_c, 2, 69, 45
1, 28947, Note_on_c, 2, 72, 50
1, 28950, Note_on_c, 2, 70, 0
1, 28951, Note_on_c, 2, 74, 0
1, 28958, Note_on_c, 2, 72, 0
1, 28962, Note_on_c, 2, 69, 0
1, 28988, Note_on_c, 2, 60, 0
1, 28988, Note_on_c, 2, 48, 54
1, 28991, Note_on_c, 2, 55, 0
1, 29002, Note_on_c, 2, 48, 0
1, 29029, Note_on_c, 2, 58, 31
1, 29029, Note_on_c, 2, 64, 45
1, 29044, Note_on_c, 2, 58, 0
1, 29047, Note_on_c, 2, 64, 0
1, 29069, Note_on_c, 2, 41, 54
1, 29070, Note_on_c, 2, 65, 60
1, 29073, Note_on_c, 2, 57, 49
1, 29092, Note_on_c, 2, 41, 0
1, 29092, Note_on_c, 2, 53, 56
1, 29110, Note_on_c, 2, 52, 55
1, 29114, Note_on_c, 2, 53, 0
1, 29132, Note_on_c, 2, 52, 0
1, 29132, Note_on_c, 2, 57, 0
1, 29133, Note_on_c, 2, 53, 51
1, 29151, Note_on_c, 2, 53, 0
1, 29151, Note_on_c, 2, 41, 59
1, 29158, Note_on_c, 2, 65, 0
1, 29173, Note_on_c, 2, 41, 0
1, 29173, Note_on_c, 2, 53, 57
1, 29195, Note_on_c, 2, 53, 0
1, 29195, Note_on_c, 2, 52, 56
1, 29195, Note_on_c, 2, 65, 46
1, 29196, Note_on_c, 2, 69, 49
1, 29214, Note_on_c, 2, 52, 0
1, 29214, Note_on_c, 2, 53, 56
1, 29217, Note_on_c, 2, 69, 0
1, 29217, Note_on_c, 2, 65, 0
1, 29232, Note_on_c, 2, 53, 0
1, 29236, Note_on_c, 2, 41, 57
1, 29240, Note_on_c, 2, 64, 46
1, 29240, Note_on_c, 2, 67, 52
1, 29251, Note_on_c, 2, 64, 0
1, 29254, Note_on_c, 2, 67, 0
1, 29254, Note_on_c, 2, 41, 0
1, 29254, Note_on_c, 2, 53, 59
1, 29277, Note_on_c, 2, 53, 0
1, 29277, Note_on_c, 2, 52, 57
1, 29277, Note_on_c, 2, 64, 55
1, 29278, Note_on_c, 2, 67, 56
1, 29299, Note_on_c, 2, 67, 0
1, 29299, Note_on_c, 2, 52, 0
1, 29299, Note_on_c, 2, 53, 56
1, 29302, Note_on_c, 2, 64, 0
1, 29314, Note_on_c, 2, 53, 0
1, 29318, Note_on_c, 2, 41, 57
1, 29336, Note_on_c, 2, 41, 0
1, 29340, Note_on_c, 2, 53, 55
1, 29358, Note_on_c, 2, 52, 59
1, 29359, Note_on_c, 2, 70, 48
1, 29362, Note_on_c, 2, 53, 0
1, 29362, Note_on_c, 2, 67, 46
1, 29377, Note_on_c, 2, 67, 0
1, 29381, Note_on_c, 2, 70, 0
1, 29381, Note_on_c, 2, 52, 0
1, 29381, Note_on_c, 2, 53, 54
1, 29403, Note_on_c, 2, 53, 0
1, 29403, Note_on_c, 2, 41, 57
1, 29403, Note_on_c, 2, 65, 53
1, 29406, Note_on_c, 2, 69, 53
1, 29418, Note_on_c, 2, 69, 0
1, 29418, Note_on_c, 2, 65, 0
1, 29421, Note_on_c, 2, 41, 0
1, 29422, Note_on_c, 2, 53, 59
1, 29444, Note_on_c, 2, 52, 51
1, 29444, Note_on_c, 2, 69, 59
1, 29447, Note_on_c, 2, 53, 0
1, 29448, Note_on_c, 2, 65, 55
1, 29466, Note_on_c, 2, 52, 0
1, 29466, Note_on_c, 2, 53, 57
1, 29470, Note_on_c, 2, 65, 0
1, 29473, Note_on_c, 2, 69, 0
1, 29484, Note_on_c, 2, 53, 0
1, 29488, Note_on_c, 2, 41, 55
1, 29503, Note_on_c, 2, 41, 0
1, 29506, Note_on_c, 2, 53, 54
1, 29529, Note_on_c, 2, 52, 48
1, 29532, Note_on_c, 2, 53, 0
1, 29532, Note_on_c, 2, 77, 41
1, 29532, Note_on_c, 2, 81, 47
1, 29540, Note_on_c, 2, 81, 0
1, 29540, Note_on_c, 2, 77, 0
1, 29551, Note_on_c, 2, 52, 0
1, 29551, Note_on_c, 2, 53, 49
1, 29570, Note_on_c, 2, 53, 0
1, 29570, Note_on_c, 2, 41, 54
1, 29570, Note_on_c, 2, 79, 53
1, 29570, Note_on_c, 2, 76, 45
1, 29580, Note_on_c, 2, 76, 0
1, 29584, Note_on_c, 2, 79, 0
1, 29588, Note_on_c, 2, 41, 0
1, 29588, Note_on_c, 2, 53, 57
1, 29610, Note_on_c, 2, 52, 53
1, 29614, Note_on_c, 2, 53, 0
1, 29614, Note_on_c, 2, 76, 53
1, 29614, Note_on_c, 2, 79, 60
1, 29628, Note_on_c, 2, 76, 0
1, 29632, Note_on_c, 2, 79, 0
1, 29636, Note_on_c, 2, 52, 0
1, 29636, Note_on_c, 2, 53, 53
1, 29651, Note_on_c, 2, 53, 0
1, 29655, Note_on_c, 2, 41, 55
1, 29677, Note_on_c, 2, 41, 0
1, 29677, Note_on_c, 2, 53, 45
1, 29699, Note_on_c, 2, 52, 53
1, 29703, Note_on_c, 2, 53, 0
1, 29703, Note_on_c, 2, 76, 47
1, 29703, Note_on_c, 2, 79, 46
1, 29704, Note_on_c, 2, 82, 42
1, 29714, Note_on_c, 2, 82, 0
1, 29714, Note_on_c, 2, 52, 0
1, 29714, Note_on_c, 2, 76, 0
1, 29714, Note_on_c, 2, 79, 0
1, 29755, Note_on_c, 2, 41, 46
1, 29755, Note_on_c, 2, 53, 48
1, 29758, Note_on_c, 2, 76, 54
1, 29758, Note_on_c, 2, 79, 66
1, 29758, Note_on_c, 2, 82, 70
1, 29892, Note_on_c, 2, 79, 0
1, 29896, Note_on_c, 2, 82, 0
1, 29922, Note_on_c, 2, 76, 0
1, 29944, Note_on_c, 2, 53, 0
1, 30040, Note_on_c, 2, 77, 30
1, 30040, Note_on_c, 2, 81, 30
1, 30048, Note_on_c, 2, 53, 30
1, 30166, Note_on_c, 2, 77, 0
1, 30169, Note_on_c, 2, 41, 0
1, 30170, Note_on_c, 2, 81, 0
1, 30177, Note_on_c, 2, 53, 0
1, 30618, Note_on_c, 2, 71, 37
1, 30633, Note_on_c, 2, 72, 45
1, 30640, Note_on_c, 2, 71, 0
1, 30644, Note_on_c, 2, 74, 46
1, 30648, Note_on_c, 2, 72, 0
1, 30662, Note_on_c, 2, 72, 47
1, 30662, Note_on_c, 2, 65, 36
1, 30666, Note_on_c, 2, 74, 0
1, 30685, Note_on_c, 2, 69, 44
1, 30688, Note_on_c, 2, 65, 0
1, 30707, Note_on_c, 2, 69, 0
1, 30707, Note_on_c, 2, 68, 46
1, 30726, Note_on_c, 2, 68, 0
1, 30726, Note_on_c, 2, 69, 49
1, 30740, Note_on_c, 2, 69, 0
1, 30744, Note_on_c, 2, 65, 39
1, 30762, Note_on_c, 2, 65, 0
1, 30762, Note_on_c, 2, 69, 39
1, 30785, Note_on_c, 2, 68, 56
1, 30788, Note_on_c, 2, 69, 0
1, 30803, Note_on_c, 2, 68, 0
1, 30804, Note_on_c, 2, 69, 51
1, 30822, Note_on_c, 2, 69, 0
1, 30822, Note_on_c, 2, 65, 45
1, 30837, Note_on_c, 2, 72, 0
1, 30840, Note_on_c, 2, 65, 0
1, 30844, Note_on_c, 2, 69, 39
1, 30862, Note_on_c, 2, 77, 51
1, 30862, Note_on_c, 2, 68, 52
1, 30866, Note_on_c, 2, 69, 0
1, 30881, Note_on_c, 2, 69, 45
1, 30885, Note_on_c, 2, 68, 0
1, 30900, Note_on_c, 2, 69, 0
1, 30903, Note_on_c, 2, 65, 45
1, 30904, Note_on_c, 2, 76, 46
1, 30910, Note_on_c, 2, 77, 0
1, 30922, Note_on_c, 2, 65, 0
1, 30922, Note_on_c, 2, 69, 42
1, 30944, Note_on_c, 2, 69, 0
1, 30944, Note_on_c, 2, 68, 44
1, 30948, Note_on_c, 2, 74, 42
1, 30955, Note_on_c, 2, 76, 0
1, 30966, Note_on_c, 2, 74, 0
1, 30966, Note_on_c, 2, 68, 0
1, 30966, Note_on_c, 2, 69, 39
1, 30981, Note_on_c, 2, 69, 0
1, 30992, Note_on_c, 2, 64, 45
1, 30992, Note_on_c, 2, 74, 43
1, 31004, Note_on_c, 2, 76, 48
1, 31006, Note_on_c, 2, 74, 0
1, 31007, Note_on_c, 2, 67, 39
1, 31010, Note_on_c, 2, 64, 0
1, 31014, Note_on_c, 2, 74, 49
1, 31022, Note_on_c, 2, 76, 0
1, 31029, Note_on_c, 2, 72, 50
1, 31029, Note_on_c, 2, 66, 47
1, 31033, Note_on_c, 2, 67, 0
1, 31037, Note_on_c, 2, 74, 0
1, 31048, Note_on_c, 2, 66, 0
1, 31052, Note_on_c, 2, 67, 46
1, 31066, Note_on_c, 2, 67, 0
1, 31070, Note_on_c, 2, 64, 48
1, 31085, Note_on_c, 2, 64, 0
1, 31088, Note_on_c, 2, 72, 0
1, 31089, Note_on_c, 2, 67, 48
1, 31111, Note_on_c, 2, 67, 0
1, 31111, Note_on_c, 2, 66, 47
1, 31112, Note_on_c, 2, 72, 53
1, 31129, Note_on_c, 2, 66, 0
1, 31130, Note_on_c, 2, 67, 40
1, 31148, Note_on_c, 2, 64, 47
1, 31152, Note_on_c, 2, 67, 0
1, 31155, Note_on_c, 2, 71, 53
1, 31158, Note_on_c, 2, 72, 0
1, 31166, Note_on_c, 2, 64, 0
1, 31170, Note_on_c, 2, 67, 49
1, 31192, Note_on_c, 2, 66, 41
1, 31192, Note_on_c, 2, 72, 48
1, 31196, Note_on_c, 2, 67, 0
1, 31200, Note_on_c, 2, 71, 0
1, 31210, Note_on_c, 2, 66, 0
1, 31211, Note_on_c, 2, 67, 39
1, 31229, Note_on_c, 2, 67, 0
1, 31233, Note_on_c, 2, 64, 48
1, 31237, Note_on_c, 2, 74, 52
1, 31240, Note_on_c, 2, 72, 0
1, 31248, Note_on_c, 2, 64, 0
1, 31252, Note_on_c, 2, 67, 40
1, 31270, Note_on_c, 2, 66, 52
1, 31274, Note_on_c, 2, 67, 0
1, 31274, Note_on_c, 2, 72, 56
1, 31278, Note_on_c, 2, 74, 0
1, 31289, Note_on_c, 2, 72, 0
1, 31289, Note_on_c, 2, 66, 0
1, 31292, Note_on_c, 2, 67, 48
1, 31307, Note_on_c, 2, 67, 0
1, 31311, Note_on_c, 2, 62, 53
1, 31314, Note_on_c, 2, 72, 52
1, 31322, Note_on_c, 2, 74, 53
1, 31326, Note_on_c, 2, 72, 0
1, 31333, Note_on_c, 2, 62, 0
1, 31333, Note_on_c, 2, 65, 48
1, 31337, Note_on_c, 2, 72, 54
1, 31340, Note_on_c, 2, 74, 0
1, 31355, Note_on_c, 2, 70, 59
1, 31355, Note_on_c, 2, 64, 39
1, 31359, Note_on_c, 2, 72, 0
1, 31370, Note_on_c, 2, 64, 0
1, 31374, Note_on_c, 2, 70, 0
1, 31381, Note_on_c, 2, 65, 0
1, 31392, Note_on_c, 2, 62, 34
1, 31396, Note_on_c, 2, 70, 55
1, 31407, Note_on_c, 2, 62, 0
1, 31411, Note_on_c, 2, 65, 41
1, 31415, Note_on_c, 2, 70, 0
1, 31433, Note_on_c, 2, 64, 49
1, 31433, Note_on_c, 2, 70, 63
1, 31441, Note_on_c, 2, 65, 0
1, 31448, Note_on_c, 2, 70, 0
1, 31448, Note_on_c, 2, 64, 0
1, 31452, Note_on_c, 2, 65, 45
1, 31466, Note_on_c, 2, 65, 0
1, 31470, Note_on_c, 2, 60, 48
1, 31470, Note_on_c, 2, 70, 62
1, 31485, Note_on_c, 2, 70, 0
1, 31485, Note_on_c, 2, 72, 53
1, 31492, Note_on_c, 2, 60, 0
1, 31492, Note_on_c, 2, 64, 47
1, 31496, Note_on_c, 2, 70, 49
1, 31504, Note_on_c, 2, 72, 0
1, 31511, Note_on_c, 2, 62, 53
1, 31515, Note_on_c, 2, 64, 0
1, 31515, Note_on_c, 2, 69, 57
1, 31518, Note_on_c, 2, 70, 0
1, 31525, Note_on_c, 2, 62, 0
1, 31529, Note_on_c, 2, 64, 38
1, 31533, Note_on_c, 2, 69, 0
1, 31544, Note_on_c, 2, 64, 0
1, 31548, Note_on_c, 2, 60, 38
1, 31552, Note_on_c, 2, 69, 49
1, 31566, Note_on_c, 2, 69, 0
1, 31566, Note_on_c, 2, 60, 0
1, 31570, Note_on_c, 2, 64, 34
1, 31589, Note_on_c, 2, 64, 0
1, 31589, Note_on_c, 2, 62, 45
1, 31593, Note_on_c, 2, 69, 46
1, 31603, Note_on_c, 2, 69, 0
1, 31608, Note_on_c, 2, 62, 0
1, 31608, Note_on_c, 2, 64, 47
1, 31626, Note_on_c, 2, 64, 0
1, 31629, Note_on_c, 2, 58, 45
1, 31629, Note_on_c, 2, 69, 42
1, 31644, Note_on_c, 2, 70, 54
1, 31648, Note_on_c, 2, 69, 0
1, 31648, Note_on_c, 2, 58, 0
1, 31648, Note_on_c, 2, 62, 53
1, 31663, Note_on_c, 2, 70, 0
1, 31663, Note_on_c, 2, 67, 51
1, 31666, Note_on_c, 2, 60, 40
1, 31678, Note_on_c, 2, 60, 0
1, 31696, Note_on_c, 2, 62, 0
1, 31696, Note_on_c, 2, 58, 52
1, 31703, Note_on_c, 2, 70, 55
1, 31714, Note_on_c, 2, 67, 0
1, 31719, Note_on_c, 2, 58, 0
1, 31722, Note_on_c, 2, 62, 48
1, 31741, Note_on_c, 2, 70, 0
1, 31741, Note_on_c, 2, 67, 45
1, 31742, Note_on_c, 2, 60, 44
1, 31744, Note_on_c, 2, 62, 0
1, 31755, Note_on_c, 2, 60, 0
1, 31755, Note_on_c, 2, 62, 48
1, 31774, Note_on_c, 2, 62, 0
1, 31778, Note_on_c, 2, 67, 0
1, 31782, Note_on_c, 2, 57, 51
1, 31785, Note_on_c, 2, 64, 48
1, 31800, Note_on_c, 2, 57, 0
1, 31800, Note_on_c, 2, 60, 54
1, 31822, Note_on_c, 2, 60, 0
1, 31822, Note_on_c, 2, 57, 56
1, 31822, Note_on_c, 2, 65, 42
1, 31826, Note_on_c, 2, 64, 0
1, 31840, Note_on_c, 2, 57, 0
1, 31844, Note_on_c, 2, 60, 57
1, 31862, Note_on_c, 2, 60, 0
1, 31863, Note_on_c, 2, 57, 53
1, 31881, Note_on_c, 2, 57, 0
1, 31885, Note_on_c, 2, 60, 41
1, 31904, Note_on_c, 2, 60, 0
1, 31908, Note_on_c, 2, 57, 59
1, 31915, Note_on_c, 2, 65, 0
1, 31919, Note_on_c, 2, 57, 0
1, 31933, Note_on_c, 2, 57, 38
1, 31940, Note_on_c, 2, 57, 0
1, 31960, Note_on_c, 2, 57, 70
1, 31966, Note_on_c, 2, 60, 35
1, 31970, Note_on_c, 2, 65, 37
1, 31986, Note_on_c, 2, 67, 50
1, 31989, Note_on_c, 2, 65, 0
1, 32000, Note_on_c, 2, 67, 0
1, 32000, Note_on_c, 2, 65, 54
1, 32014, Note_on_c, 2, 65, 0
1, 32015, Note_on_c, 2, 67, 53
1, 32034, Note_on_c, 2, 67, 0
1, 32034, Note_on_c, 2, 65, 54
1, 32056, Note_on_c, 2, 67, 46
1, 32059, Note_on_c, 2, 57, 0
1, 32060, Note_on_c, 2, 65, 0
1, 32082, Note_on_c, 2, 69, 39
1, 32085, Note_on_c, 2, 67, 0
1, 32092, Note_on_c, 2, 60, 0
1, 32107, Note_on_c, 2, 58, 40
1, 32111, Note_on_c, 2, 69, 0
1, 32111, Note_on_c, 2, 60, 45
1, 32111, Note_on_c, 2, 65, 42
1, 32138, Note_on_c, 2, 64, 52
1, 32140, Note_on_c, 2, 65, 0
1, 32163, Note_on_c, 2, 67, 45
1, 32171, Note_on_c, 2, 64, 0
1, 32186, Note_on_c, 2, 65, 49
1, 32192, Note_on_c, 2, 67, 0
1, 32211, Note_on_c, 2, 65, 0
1, 32215, Note_on_c, 2, 64, 45
1, 32226, Note_on_c, 2, 58, 0
1, 32233, Note_on_c, 2, 60, 0
1, 32237, Note_on_c, 2, 70, 34
1, 32267, Note_on_c, 2, 57, 49
1, 32267, Note_on_c, 2, 60, 39
1, 32267, Note_on_c, 2, 67, 37
1, 32274, Note_on_c, 2, 70, 0
1, 32293, Note_on_c, 2, 67, 0
1, 32296, Note_on_c, 2, 65, 33
1, 32319, Note_on_c, 2, 69, 52
1, 32326, Note_on_c, 2, 65, 0
1, 32326, Note_on_c, 2, 64, 0
1, 32348, Note_on_c, 2, 67, 48
1, 32352, Note_on_c, 2, 69, 0
1, 32374, Note_on_c, 2, 65, 55
1, 32378, Note_on_c, 2, 67, 0
1, 32400, Note_on_c, 2, 72, 59
1, 32430, Note_on_c, 2, 72, 0
1, 32430, Note_on_c, 2, 69, 60
1, 32463, Note_on_c, 2, 60, 0
1, 32466, Note_on_c, 2, 57, 0
1, 32500, Note_on_c, 2, 65, 0
1, 32526, Note_on_c, 2, 69, 0
1, 32567, Note_on_c, 2, 46, 39
1, 32582, Note_on_c, 2, 50, 54
1, 32596, Note_on_c, 2, 55, 52
1, 32600, Note_on_c, 2, 67, 66
1, 32622, Note_on_c, 2, 70, 54
1, 32648, Note_on_c, 2, 70, 0
1, 32648, Note_on_c, 2, 67, 0
1, 32648, Note_on_c, 2, 74, 57
1, 32656, Note_on_c, 2, 74, 0
1, 32674, Note_on_c, 2, 79, 56
1, 32700, Note_on_c, 2, 82, 55
1, 32708, Note_on_c, 2, 50, 0
1, 32708, Note_on_c, 2, 46, 0
1, 32722, Note_on_c, 2, 55, 0
1, 32726, Note_on_c, 2, 82, 0
1, 32726, Note_on_c, 2, 86, 46
1, 32730, Note_on_c, 2, 79, 0
1, 32737, Note_on_c, 2, 86, 0
1, 32752, Note_on_c, 2, 48, 56
1, 32752, Note_on_c, 2, 86, 55
1, 32754, Note_on_c, 2, 57, 63
1, 32778, Note_on_c, 2, 84, 44
1, 32782, Note_on_c, 2, 86, 0
1, 32797, Note_on_c, 2, 57, 0
1, 32797, Note_on_c, 2, 82, 54
1, 32800, Note_on_c, 2, 48, 0
1, 32804, Note_on_c, 2, 84, 0
1, 32822, Note_on_c, 2, 81, 49
1, 32826, Note_on_c, 2, 82, 0
1, 32833, Note_on_c, 2, 81, 0
1, 32841, Note_on_c, 2, 58, 59
1, 32841, Note_on_c, 2, 48, 55
1, 32842, Note_on_c, 2, 49, 50
1, 32842, Note_on_c, 2, 81, 52
1, 32844, Note_on_c, 2, 49, 0
1, 32863, Note_on_c, 2, 81, 0
1, 32863, Note_on_c, 2, 79, 65
1, 32885, Note_on_c, 2, 58, 0
1, 32886, Note_on_c, 2, 77, 53
1, 32893, Note_on_c, 2, 79, 0
1, 32897, Note_on_c, 2, 48, 0
1, 32908, Note_on_c, 2, 76, 50
1, 32911, Note_on_c, 2, 77, 0
1, 32930, Note_on_c, 2, 76, 0
1, 32934, Note_on_c, 2, 41, 66
1, 32934, Note_on_c, 2, 77, 66
1, 32960, Note_on_c, 2, 43, 57
1, 32970, Note_on_c, 2, 41, 0
1, 32986, Note_on_c, 2, 45, 66
1, 32996, Note_on_c, 2, 43, 0
1, 33011, Note_on_c, 2, 46, 79
1, 33018, Note_on_c, 2, 45, 0
1, 33038, Note_on_c, 2, 46, 0
1, 33038, Note_on_c, 2, 48, 66
1, 33064, Note_on_c, 2, 50, 65
1, 33067, Note_on_c, 2, 48, 0
1, 33089, Note_on_c, 2, 51, 65
1, 33096, Note_on_c, 2, 50, 0
1, 33116, Note_on_c, 2, 50, 48
1, 33118, Note_on_c, 2, 51, 0
1, 33141, Note_on_c, 2, 48, 49
1, 33148, Note_on_c, 2, 50, 0
1, 33171, Note_on_c, 2, 46, 59
1, 33175, Note_on_c, 2, 48, 0
1, 33194, Note_on_c, 2, 46, 0
1, 33196, Note_on_c, 2, 45, 46
1, 33226, Note_on_c, 2, 43, 63
1, 33230, Note_on_c, 2, 45, 0
1, 33248, Note_on_c, 2, 77, 0
1, 33256, Note_on_c, 2, 42, 72
1, 33259, Note_on_c, 2, 43, 0
1, 33286, Note_on_c, 2, 81, 56
1, 33312, Note_on_c, 2, 82, 45
1, 33315, Note_on_c, 2, 42, 0
1, 33319, Note_on_c, 2, 81, 0
1, 33337, Note_on_c, 2, 84, 52
1, 33341, Note_on_c, 2, 82, 0
1, 33363, Note_on_c, 2, 84, 0
1, 33363, Note_on_c, 2, 78, 62
1, 33393, Note_on_c, 2, 79, 47
1, 33404, Note_on_c, 2, 78, 0
1, 33419, Note_on_c, 2, 81, 56
1, 33422, Note_on_c, 2, 79, 0
1, 33445, Note_on_c, 2, 81, 0
1, 33445, Note_on_c, 2, 72, 62
1, 33471, Note_on_c, 2, 74, 52
1, 33497, Note_on_c, 2, 75, 45
1, 33501, Note_on_c, 2, 72, 0
1, 33504, Note_on_c, 2, 74, 0
1, 33526, Note_on_c, 2, 75, 0
1, 33530, Note_on_c, 2, 69, 38
1, 33556, Note_on_c, 2, 72, 40
1, 33564, Note_on_c, 2, 69, 0
1, 33582, Note_on_c, 2, 43, 57
1, 33586, Note_on_c, 2, 70, 72
1, 33590, Note_on_c, 2, 72, 0
1, 33612, Note_on_c, 2, 46, 53
1, 33627, Note_on_c, 2, 43, 0
1, 33638, Note_on_c, 2, 48, 56
1, 33644, Note_on_c, 2, 46, 0
1, 33664, Note_on_c, 2, 50, 66
1, 33667, Note_on_c, 2, 48, 0
1, 33689, Note_on_c, 2, 53, 62
1, 33693, Note_on_c, 2, 50, 0
1, 33715, Note_on_c, 2, 55, 59
1, 33719, Note_on_c, 2, 53, 0
1, 33745, Note_on_c, 2, 56, 70
1, 33748, Note_on_c, 2, 55, 0
1, 33770, Note_on_c, 2, 56, 0
1, 33771, Note_on_c, 2, 55, 48
1, 33797, Note_on_c, 2, 53, 49
1, 33804, Note_on_c, 2, 55, 0
1, 33826, Note_on_c, 2, 51, 68
1, 33830, Note_on_c, 2, 53, 0
1, 33852, Note_on_c, 2, 51, 0
1, 33853, Note_on_c, 2, 50, 51
1, 33882, Note_on_c, 2, 48, 54
1, 33886, Note_on_c, 2, 50, 0
1, 33890, Note_on_c, 2, 70, 0
1, 33912, Note_on_c, 2, 47, 66
1, 33916, Note_on_c, 2, 48, 0
1, 33938, Note_on_c, 2, 74, 57
1, 33964, Note_on_c, 2, 75, 53
1, 33967, Note_on_c, 2, 47, 0
1, 33971, Note_on_c, 2, 74, 0
1, 33989, Note_on_c, 2, 77, 47
1, 33997, Note_on_c, 2, 75, 0
1, 34015, Note_on_c, 2, 77, 0
1, 34016, Note_on_c, 2, 71, 57
1, 34042, Note_on_c, 2, 72, 50
1, 34056, Note_on_c, 2, 71, 0
1, 34068, Note_on_c, 2, 74, 53
1, 34071, Note_on_c, 2, 72, 0
1, 34094, Note_on_c, 2, 65, 63
1, 34097, Note_on_c, 2, 74, 0
1, 34123, Note_on_c, 2, 67, 47
1, 34138, Note_on_c, 2, 65, 0
1, 34149, Note_on_c, 2, 68, 49
1, 34152, Note_on_c, 2, 67, 0
1, 34174, Note_on_c, 2, 68, 0
1, 34174, Note_on_c, 2, 62, 57
1, 34200, Note_on_c, 2, 65, 57
1, 34212, Note_on_c, 2, 62, 0
1, 34230, Note_on_c, 2, 48, 56
1, 34230, Note_on_c, 2, 64, 79
1, 34234, Note_on_c, 2, 65, 0
1, 34256, Note_on_c, 2, 50, 56
1, 34264, Note_on_c, 2, 48, 0
1, 34282, Note_on_c, 2, 52, 65
1, 34290, Note_on_c, 2, 50, 0
1, 34308, Note_on_c, 2, 53, 83
1, 34319, Note_on_c, 2, 52, 0
1, 34334, Note_on_c, 2, 55, 66
1, 34338, Note_on_c, 2, 53, 0
1, 34360, Note_on_c, 2, 57, 62
1, 34367, Note_on_c, 2, 55, 0
1, 34378, Note_on_c, 2, 57, 0
1, 34390, Note_on_c, 2, 58, 70
1, 34415, Note_on_c, 2, 58, 0
1, 34415, Note_on_c, 2, 57, 49
1, 34445, Note_on_c, 2, 55, 49
1, 34449, Note_on_c, 2, 57, 0
1, 34471, Note_on_c, 2, 53, 59
1, 34474, Note_on_c, 2, 55, 0
1, 34497, Note_on_c, 2, 52, 40
1, 34508, Note_on_c, 2, 53, 0
1, 34523, Note_on_c, 2, 50, 57
1, 34530, Note_on_c, 2, 52, 0
1, 34534, Note_on_c, 2, 50, 0
1, 34534, Note_on_c, 2, 64, 0
1, 34564, Note_on_c, 2, 49, 65
1, 34593, Note_on_c, 2, 79, 47
1, 34593, Note_on_c, 2, 82, 51
1, 34620, Note_on_c, 2, 81, 53
1, 34626, Note_on_c, 2, 82, 0
1, 34626, Note_on_c, 2, 79, 0
1, 34645, Note_on_c, 2, 82, 49
1, 34652, Note_on_c, 2, 81, 0
1, 34671, Note_on_c, 2, 82, 0
1, 34671, Note_on_c, 2, 81, 54
1, 34701, Note_on_c, 2, 82, 55
1, 34704, Note_on_c, 2, 81, 0
1, 34708, Note_on_c, 2, 82, 0
1, 34730, Note_on_c, 2, 49, 0
1, 34734, Note_on_c, 2, 61, 63
1, 34764, Note_on_c, 2, 70, 60
1, 34764, Note_on_c, 2, 67, 54
1, 34790, Note_on_c, 2, 70, 0
1, 34790, Note_on_c, 2, 69, 57
1, 34797, Note_on_c, 2, 67, 0
1, 34816, Note_on_c, 2, 69, 0
1, 34816, Note_on_c, 2, 70, 57
1, 34826, Note_on_c, 2, 61, 0
1, 34838, Note_on_c, 2, 70, 0
1, 34841, Note_on_c, 2, 69, 41
1, 34860, Note_on_c, 2, 70, 46
1, 34864, Note_on_c, 2, 69, 0
1, 34886, Note_on_c, 2, 70, 0
1, 34893, Note_on_c, 2, 62, 57
1, 34894, Note_on_c, 2, 69, 49
1, 34894, Note_on_c, 2, 66, 44
1, 34919, Note_on_c, 2, 62, 0
1, 34920, Note_on_c, 2, 66, 0
1, 34927, Note_on_c, 2, 69, 0
1, 34986, Note_on_c, 2, 60, 70
1, 34986, Note_on_c, 2, 66, 79
1, 34987, Note_on_c, 2, 69, 68
1, 34987, Note_on_c, 2, 75, 66
1, 34990, Note_on_c, 2, 48, 57
1, 34991, Note_on_c, 2, 47, 68
1, 34997, Note_on_c, 2, 47, 0
1, 35146, Note_on_c, 2, 66, 0
1, 35146, Note_on_c, 2, 69, 0
1, 35164, Note_on_c, 2, 48, 0
1, 35164, Note_on_c, 2, 75, 0
1, 35167, Note_on_c, 2, 60, 0
1, 35327, Note_on_c, 2, 58, 40
1, 35327, Note_on_c, 2, 46, 48
1, 35330, Note_on_c, 2, 74, 65
1, 35353, Note_on_c, 2, 79, 53
1, 35364, Note_on_c, 2, 74, 0
1, 35375, Note_on_c, 2, 78, 55
1, 35379, Note_on_c, 2, 79, 0
1, 35398, Note_on_c, 2, 79, 45
1, 35404, Note_on_c, 2, 78, 0
1, 35419, Note_on_c, 2, 81, 43
1, 35423, Note_on_c, 2, 79, 0
1, 35442, Note_on_c, 2, 79, 47
1, 35445, Note_on_c, 2, 81, 0
1, 35460, Note_on_c, 2, 79, 0
1, 35460, Note_on_c, 2, 78, 60
1, 35478, Note_on_c, 2, 79, 46
1, 35482, Note_on_c, 2, 78, 0
1, 35501, Note_on_c, 2, 82, 59
1, 35505, Note_on_c, 2, 79, 0
1, 35523, Note_on_c, 2, 82, 0
1, 35523, Note_on_c, 2, 79, 51
1, 35538, Note_on_c, 2, 46, 0
1, 35545, Note_on_c, 2, 79, 0
1, 35546, Note_on_c, 2, 78, 56
1, 35549, Note_on_c, 2, 58, 0
1, 35564, Note_on_c, 2, 79, 45
1, 35568, Note_on_c, 2, 78, 0
1, 35590, Note_on_c, 2, 48, 47
1, 35594, Note_on_c, 2, 60, 50
1, 35594, Note_on_c, 2, 81, 55
1, 35597, Note_on_c, 2, 79, 0
1, 35612, Note_on_c, 2, 79, 46
1, 35620, Note_on_c, 2, 81, 0
1, 35638, Note_on_c, 2, 78, 53
1, 35642, Note_on_c, 2, 79, 0
1, 35649, Note_on_c, 2, 60, 0
1, 35656, Note_on_c, 2, 48, 0
1, 35664, Note_on_c, 2, 78, 0
1, 35664, Note_on_c, 2, 79, 43
1, 35686, Note_on_c, 2, 79, 0
1, 35686, Note_on_c, 2, 46, 54
1, 35687, Note_on_c, 2, 58, 63
1, 35690, Note_on_c, 2, 74, 59
1, 35709, Note_on_c, 2, 79, 49
1, 35720, Note_on_c, 2, 74, 0
1, 35731, Note_on_c, 2, 78, 57
1, 35738, Note_on_c, 2, 79, 0
1, 35753, Note_on_c, 2, 79, 46
1, 35760, Note_on_c, 2, 78, 0
1, 35779, Note_on_c, 2, 81, 54
1, 35783, Note_on_c, 2, 79, 0
1, 35798, Note_on_c, 2, 79, 53
1, 35804, Note_on_c, 2, 81, 0
1, 35820, Note_on_c, 2, 78, 59
1, 35823, Note_on_c, 2, 79, 0
1, 35842, Note_on_c, 2, 79, 46
1, 35849, Note_on_c, 2, 78, 0
1, 35868, Note_on_c, 2, 82, 55
1, 35875, Note_on_c, 2, 79, 0
1, 35890, Note_on_c, 2, 79, 42
1, 35898, Note_on_c, 2, 82, 0
1, 35905, Note_on_c, 2, 46, 0
1, 35912, Note_on_c, 2, 58, 0
1, 35912, Note_on_c, 2, 78, 55
1, 35916, Note_on_c, 2, 79, 0
1, 35938, Note_on_c, 2, 79, 35
1, 35946, Note_on_c, 2, 78, 0
1, 35964, Note_on_c, 2, 79, 0
1, 35964, Note_on_c, 2, 72, 65
1, 35964, Note_on_c, 2, 51, 53
1, 35964, Note_on_c, 2, 63, 50
1, 35987, Note_on_c, 2, 79, 52
1, 36001, Note_on_c, 2, 51, 0
1, 36008, Note_on_c, 2, 63, 0
1, 36012, Note_on_c, 2, 78, 45
1, 36020, Note_on_c, 2, 79, 0
1, 36030, Note_on_c, 2, 72, 0
1, 36038, Note_on_c, 2, 78, 0
1, 36038, Note_on_c, 2, 79, 46
1, 36049, Note_on_c, 2, 79, 0
1, 36064, Note_on_c, 2, 62, 54
1, 36065, Note_on_c, 2, 70, 66
1, 36086, Note_on_c, 2, 67, 52
1, 36105, Note_on_c, 2, 82, 57
1, 36105, Note_on_c, 2, 66, 56
1, 36108, Note_on_c, 2, 67, 0
1, 36112, Note_on_c, 2, 70, 0
1, 36127, Note_on_c, 2, 62, 0
1, 36128, Note_on_c, 2, 67, 53
1, 36135, Note_on_c, 2, 66, 0
1, 36142, Note_on_c, 2, 67, 0
1, 36149, Note_on_c, 2, 82, 0
1, 36150, Note_on_c, 2, 62, 59
1, 36150, Note_on_c, 2, 71, 59
1, 36172, Note_on_c, 2, 67, 54
1, 36190, Note_on_c, 2, 67, 0
1, 36190, Note_on_c, 2, 66, 63
1, 36194, Note_on_c, 2, 83, 57
1, 36197, Note_on_c, 2, 71, 0
1, 36216, Note_on_c, 2, 62, 0
1, 36216, Note_on_c, 2, 67, 54
1, 36227, Note_on_c, 2, 66, 0
1, 36234, Note_on_c, 2, 83, 0
1, 36235, Note_on_c, 2, 72, 55
1, 36238, Note_on_c, 2, 60, 65
1, 36242, Note_on_c, 2, 67, 0
1, 36257, Note_on_c, 2, 67, 47
1, 36279, Note_on_c, 2, 66, 55
1, 36279, Note_on_c, 2, 75, 65
1, 36282, Note_on_c, 2, 67, 0
1, 36286, Note_on_c, 2, 72, 0
1, 36286, Note_on_c, 2, 60, 0
1, 36309, Note_on_c, 2, 66, 0
1, 36309, Note_on_c, 2, 60, 52
1, 36357, Note_on_c, 2, 66, 42
1, 36372, Note_on_c, 2, 74, 48
1, 36376, Note_on_c, 2, 60, 0
1, 36379, Note_on_c, 2, 75, 0
1, 36379, Note_on_c, 2, 67, 40
1, 36387, Note_on_c, 2, 67, 0
1, 36394, Note_on_c, 2, 72, 65
1, 36398, Note_on_c, 2, 74, 0
1, 36401, Note_on_c, 2, 66, 0
1, 36412, Note_on_c, 2, 72, 0
1, 36412, Note_on_c, 2, 60, 68
1, 36412, Note_on_c, 2, 75, 65
1, 36428, Note_on_c, 2, 77, 52
1, 36431, Note_on_c, 2, 75, 0
1, 36435, Note_on_c, 2, 67, 40
1, 36442, Note_on_c, 2, 75, 48
1, 36446, Note_on_c, 2, 77, 0
1, 36453, Note_on_c, 2, 77, 53
1, 36457, Note_on_c, 2, 75, 0
1, 36461, Note_on_c, 2, 67, 0
1, 36468, Note_on_c, 2, 75, 59
1, 36468, Note_on_c, 2, 66, 25
1, 36472, Note_on_c, 2, 77, 0
1, 36479, Note_on_c, 2, 60, 0
1, 36483, Note_on_c, 2, 75, 0
1, 36487, Note_on_c, 2, 77, 26
1, 36494, Note_on_c, 2, 66, 0
1, 36501, Note_on_c, 2, 75, 55
1, 36501, Note_on_c, 2, 60, 63
1, 36505, Note_on_c, 2, 77, 0
1, 36523, Note_on_c, 2, 66, 45
1, 36542, Note_on_c, 2, 74, 53
1, 36546, Note_on_c, 2, 60, 0
1, 36549, Note_on_c, 2, 75, 0
1, 36560, Note_on_c, 2, 74, 0
1, 36560, Note_on_c, 2, 72, 65
1, 36576, Note_on_c, 2, 72, 0
1, 36576, Note_on_c, 2, 66, 0
1, 36580, Note_on_c, 2, 62, 59
1, 36580, Note_on_c, 2, 70, 79
1, 36605, Note_on_c, 2, 67, 41
1, 36620, Note_on_c, 2, 67, 0
1, 36620, Note_on_c, 2, 66, 54
1, 36638, Note_on_c, 2, 70, 0
1, 36638, Note_on_c, 2, 62, 0
1, 36646, Note_on_c, 2, 66, 0
1, 36660, Note_on_c, 2, 62, 56
1, 36664, Note_on_c, 2, 69, 62
1, 36676, Note_on_c, 2, 70, 66
1, 36679, Note_on_c, 2, 69, 0
1, 36683, Note_on_c, 2, 66, 54
1, 36690, Note_on_c, 2, 70, 0
1, 36690, Note_on_c, 2, 69, 55
1, 36702, Note_on_c, 2, 69, 0
1, 36702, Note_on_c, 2, 70, 57
1, 36705, Note_on_c, 2, 62, 0
1, 36716, Note_on_c, 2, 70, 0
1, 36716, Note_on_c, 2, 69, 54
1, 36728, Note_on_c, 2, 66, 0
1, 36731, Note_on_c, 2, 69, 0
1, 36742, Note_on_c, 2, 62, 65
1, 36742, Note_on_c, 2, 70, 68
1, 36765, Note_on_c, 2, 66, 57
1, 36787, Note_on_c, 2, 67, 48
1, 36790, Note_on_c, 2, 66, 0
1, 36809, Note_on_c, 2, 70, 0
1, 36812, Note_on_c, 2, 62, 0
1, 36812, Note_on_c, 2, 67, 0
1, 36828, Note_on_c, 2, 62, 60
1, 36828, Note_on_c, 2, 71, 55
1, 36864, Note_on_c, 2, 66, 36
1, 36876, Note_on_c, 2, 62, 0
1, 36876, Note_on_c, 2, 67, 47
1, 36879, Note_on_c, 2, 66, 0
1, 36909, Note_on_c, 2, 67, 0
1, 36909, Note_on_c, 2, 60, 65
1, 36910, Note_on_c, 2, 72, 62
1, 36913, Note_on_c, 2, 71, 0
1, 36931, Note_on_c, 2, 67, 48
1, 36938, Note_on_c, 2, 60, 0
1, 36946, Note_on_c, 2, 66, 55
1, 36953, Note_on_c, 2, 67, 0
1, 36953, Note_on_c, 2, 75, 53
1, 36957, Note_on_c, 2, 72, 0
1, 36986, Note_on_c, 2, 66, 0
1, 36990, Note_on_c, 2, 60, 62
1, 37024, Note_on_c, 2, 66, 40
1, 37028, Note_on_c, 2, 60, 0
1, 37028, Note_on_c, 2, 74, 57
1, 37031, Note_on_c, 2, 75, 0
1, 37046, Note_on_c, 2, 74, 0
1, 37046, Note_on_c, 2, 72, 60
1, 37057, Note_on_c, 2, 66, 0
1, 37064, Note_on_c, 2, 72, 0
1, 37064, Note_on_c, 2, 62, 63
1, 37068, Note_on_c, 2, 75, 70
1, 37094, Note_on_c, 2, 75, 0
1, 37102, Note_on_c, 2, 66, 45
1, 37105, Note_on_c, 2, 74, 16
1, 37109, Note_on_c, 2, 74, 0
1, 37112, Note_on_c, 2, 72, 52
1, 37116, Note_on_c, 2, 62, 0
1, 37120, Note_on_c, 2, 74, 40
1, 37124, Note_on_c, 2, 72, 0
1, 37127, Note_on_c, 2, 74, 0
1, 37135, Note_on_c, 2, 74, 42
1, 37139, Note_on_c, 2, 66, 0
1, 37139, Note_on_c, 2, 75, 45
1, 37142, Note_on_c, 2, 74, 0
1, 37146, Note_on_c, 2, 62, 56
1, 37172, Note_on_c, 2, 75, 0
1, 37190, Note_on_c, 2, 74, 60
1, 37190, Note_on_c, 2, 66, 35
1, 37202, Note_on_c, 2, 62, 0
1, 37209, Note_on_c, 2, 74, 0
1, 37209, Note_on_c, 2, 72, 45
1, 37212, Note_on_c, 2, 66, 0
1, 37228, Note_on_c, 2, 62, 65
1, 37228, Note_on_c, 2, 70, 83
1, 37231, Note_on_c, 2, 72, 0
1, 37250, Note_on_c, 2, 67, 40
1, 37260, Note_on_c, 2, 67, 0
1, 37264, Note_on_c, 2, 66, 52
1, 37275, Note_on_c, 2, 70, 0
1, 37280, Note_on_c, 2, 62, 0
1, 37283, Note_on_c, 2, 67, 45
1, 37290, Note_on_c, 2, 66, 0
1, 37298, Note_on_c, 2, 67, 0
1, 37305, Note_on_c, 2, 62, 66
1, 37309, Note_on_c, 2, 69, 53
1, 37316, Note_on_c, 2, 69, 0
1, 37316, Note_on_c, 2, 70, 56
1, 37324, Note_on_c, 2, 66, 42
1, 37328, Note_on_c, 2, 70, 0
1, 37328, Note_on_c, 2, 67, 45
1, 37328, Note_on_c, 2, 69, 48
1, 37331, Note_on_c, 2, 62, 0
1, 37335, Note_on_c, 2, 69, 0
1, 37335, Note_on_c, 2, 70, 52
1, 37339, Note_on_c, 2, 67, 0
1, 37339, Note_on_c, 2, 66, 0
1, 37350, Note_on_c, 2, 70, 0
1, 37357, Note_on_c, 2, 69, 19
1, 37365, Note_on_c, 2, 69, 0
1, 37383, Note_on_c, 2, 69, 53
1, 37395, Note_on_c, 2, 67, 63
1, 37398, Note_on_c, 2, 69, 0
1, 37435, Note_on_c, 2, 55, 50
1, 37454, Note_on_c, 2, 55, 0
1, 37480, Note_on_c, 2, 62, 54
1, 37480, Note_on_c, 2, 58, 59
1, 37490, Note_on_c, 2, 62, 0
1, 37491, Note_on_c, 2, 58, 0
1, 37491, Note_on_c, 2, 67, 0
1, 37520, Note_on_c, 2, 67, 65
1, 37535, Note_on_c, 2, 67, 0
1, 37561, Note_on_c, 2, 70, 72
1, 37606, Note_on_c, 2, 55, 54
1, 37628, Note_on_c, 2, 55, 0
1, 37646, Note_on_c, 2, 58, 57
1, 37650, Note_on_c, 2, 55, 38
1, 37657, Note_on_c, 2, 55, 0
1, 37661, Note_on_c, 2, 58, 0
1, 37665, Note_on_c, 2, 70, 0
1, 37687, Note_on_c, 2, 70, 54
1, 37702, Note_on_c, 2, 70, 0
1, 37728, Note_on_c, 2, 75, 60
1, 37765, Note_on_c, 2, 55, 49
1, 37783, Note_on_c, 2, 55, 0
1, 37810, Note_on_c, 2, 63, 55
1, 37810, Note_on_c, 2, 58, 55
1, 37820, Note_on_c, 2, 63, 0
1, 37820, Note_on_c, 2, 75, 0
1, 37821, Note_on_c, 2, 58, 0
1, 37851, Note_on_c, 2, 75, 45
1, 37895, Note_on_c, 2, 75, 0
1, 37898, Note_on_c, 2, 79, 55
1, 37936, Note_on_c, 2, 55, 47
1, 37961, Note_on_c, 2, 55, 0
1, 37987, Note_on_c, 2, 63, 41
1, 37988, Note_on_c, 2, 58, 54
1, 37994, Note_on_c, 2, 79, 0
1, 37998, Note_on_c, 2, 58, 0
1, 37998, Note_on_c, 2, 63, 0
1, 38032, Note_on_c, 2, 79, 47
1, 38058, Note_on_c, 2, 53, 39
1, 38073, Note_on_c, 2, 56, 48
1, 38080, Note_on_c, 2, 62, 40
1, 38080, Note_on_c, 2, 58, 31
1, 38098, Note_on_c, 2, 79, 0
1, 38109, Note_on_c, 2, 80, 62
1, 38128, Note_on_c, 2, 80, 0
1, 38128, Note_on_c, 2, 82, 57
1, 38150, Note_on_c, 2, 80, 66
1, 38154, Note_on_c, 2, 82, 0
1, 38172, Note_on_c, 2, 80, 0
1, 38172, Note_on_c, 2, 79, 62
1, 38191, Note_on_c, 2, 79, 0
1, 38191, Note_on_c, 2, 77, 72
1, 38210, Note_on_c, 2, 77, 0
1, 38213, Note_on_c, 2, 79, 56
1, 38228, Note_on_c, 2, 79, 0
1, 38232, Note_on_c, 2, 77, 65
1, 38254, Note_on_c, 2, 75, 66
1, 38258, Note_on_c, 2, 77, 0
1, 38276, Note_on_c, 2, 75, 0
1, 38276, Note_on_c, 2, 74, 79
1, 38298, Note_on_c, 2, 75, 62
1, 38302, Note_on_c, 2, 74, 0
1, 38321, Note_on_c, 2, 74, 70
1, 38324, Note_on_c, 2, 75, 0
1, 38339, Note_on_c, 2, 74, 0
1, 38339, Note_on_c, 2, 72, 70
1, 38361, Note_on_c, 2, 70, 65
1, 38365, Note_on_c, 2, 72, 0
1, 38380, Note_on_c, 2, 70, 0
1, 38383, Note_on_c, 2, 72, 54
1, 38391, Note_on_c, 2, 62, 0
1, 38391, Note_on_c, 2, 53, 0
1, 38394, Note_on_c, 2, 58, 0
1, 38398, Note_on_c, 2, 56, 0
1, 38409, Note_on_c, 2, 70, 68
1, 38413, Note_on_c, 2, 72, 0
1, 38432, Note_on_c, 2, 68, 54
1, 38436, Note_on_c, 2, 70, 0
1, 38450, Note_on_c, 2, 68, 0
1, 38454, Note_on_c, 2, 55, 65
1, 38472, Note_on_c, 2, 67, 55
1, 38495, Note_on_c, 2, 68, 54
1, 38506, Note_on_c, 2, 55, 0
1, 38514, Note_on_c, 2, 68, 0
1, 38514, Note_on_c, 2, 67, 0
1, 38521, Note_on_c, 2, 67, 53
1, 38535, Note_on_c, 2, 58, 66
1, 38561, Note_on_c, 2, 70, 55
1, 38576, Note_on_c, 2, 67, 0
1, 38584, Note_on_c, 2, 72, 53
1, 38587, Note_on_c, 2, 70, 0
1, 38591, Note_on_c, 2, 58, 0
1, 38606, Note_on_c, 2, 70, 57
1, 38610, Note_on_c, 2, 72, 0
1, 38620, Note_on_c, 2, 70, 0
1, 38624, Note_on_c, 2, 63, 63
1, 38643, Note_on_c, 2, 75, 46
1, 38665, Note_on_c, 2, 77, 48
1, 38669, Note_on_c, 2, 75, 0
1, 38687, Note_on_c, 2, 75, 55
1, 38691, Note_on_c, 2, 77, 0
1, 38698, Note_on_c, 2, 75, 0
1, 38706, Note_on_c, 2, 67, 60
1, 38709, Note_on_c, 2, 63, 0
1, 38732, Note_on_c, 2, 79, 55
1, 38761, Note_on_c, 2, 80, 52
1, 38765, Note_on_c, 2, 79, 0
1, 38769, Note_on_c, 2, 67, 0
1, 38791, Note_on_c, 2, 80, 0
1, 38791, Note_on_c, 2, 79, 53
1, 38828, Note_on_c, 2, 56, 43
1, 38843, Note_on_c, 2, 56, 0
1, 38843, Note_on_c, 2, 58, 35
1, 38844, Note_on_c, 2, 53, 54
1, 38844, Note_on_c, 2, 62, 2
1, 38861, Note_on_c, 2, 56, 11
1, 38869, Note_on_c, 2, 80, 46
1, 38872, Note_on_c, 2, 79, 0
1, 38887, Note_on_c, 2, 82, 47
1, 38891, Note_on_c, 2, 80, 0
1, 38910, Note_on_c, 2, 80, 55
1, 38913, Note_on_c, 2, 82, 0
1, 38928, Note_on_c, 2, 79, 63
1, 38932, Note_on_c, 2, 80, 0
1, 38950, Note_on_c, 2, 79, 0
1, 38950, Note_on_c, 2, 77, 60
1, 38969, Note_on_c, 2, 77, 0
1, 38972, Note_on_c, 2, 79, 54
1, 38987, Note_on_c, 2, 79, 0
1, 38988, Note_on_c, 2, 77, 59
1, 39010, Note_on_c, 2, 75, 68
1, 39013, Note_on_c, 2, 77, 0
1, 39032, Note_on_c, 2, 74, 72
1, 39035, Note_on_c, 2, 75, 0
1, 39054, Note_on_c, 2, 75, 55
1, 39058, Note_on_c, 2, 74, 0
1, 39076, Note_on_c, 2, 74, 60
1, 39084, Note_on_c, 2, 75, 0
1, 39098, Note_on_c, 2, 74, 0
1, 39098, Note_on_c, 2, 72, 66
1, 39102, Note_on_c, 2, 62, 0
1, 39102, Note_on_c, 2, 53, 0
1, 39106, Note_on_c, 2, 58, 0
1, 39110, Note_on_c, 2, 56, 0
1, 39121, Note_on_c, 2, 70, 66
1, 39124, Note_on_c, 2, 72, 0
1, 39139, Note_on_c, 2, 70, 0
1, 39140, Note_on_c, 2, 72, 39
1, 39169, Note_on_c, 2, 72, 0
1, 39169, Note_on_c, 2, 70, 60
1, 39191, Note_on_c, 2, 68, 47
1, 39195, Note_on_c, 2, 70, 0
1, 39210, Note_on_c, 2, 68, 0
1, 39236, Note_on_c, 2, 51, 31
1, 39236, Note_on_c, 2, 55, 49
1, 39236, Note_on_c, 2, 58, 55
1, 39236, Note_on_c, 2, 63, 46
1, 39236, Note_on_c, 2, 67, 62
1, 39258, Note_on_c, 2, 69, 45
1, 39280, Note_on_c, 2, 69, 0
1, 39280, Note_on_c, 2, 67, 0
1, 39280, Note_on_c, 2, 70, 59
1, 39299, Note_on_c, 2, 70, 0
1, 39299, Note_on_c, 2, 69, 63
1, 39321, Note_on_c, 2, 70, 62
1, 39325, Note_on_c, 2, 69, 0
1, 39343, Note_on_c, 2, 70, 0
1, 39344, Note_on_c, 2, 71, 53
1, 39365, Note_on_c, 2, 72, 62
1, 39369, Note_on_c, 2, 71, 0
1, 39384, Note_on_c, 2, 72, 0
1, 39388, Note_on_c, 2, 71, 57
1, 39406, Note_on_c, 2, 72, 56
1, 39414, Note_on_c, 2, 71, 0
1, 39424, Note_on_c, 2, 74, 54
1, 39432, Note_on_c, 2, 72, 0
1, 39450, Note_on_c, 2, 75, 45
1, 39454, Note_on_c, 2, 74, 0
1, 39469, Note_on_c, 2, 75, 0
1, 39473, Note_on_c, 2, 74, 53
1, 39491, Note_on_c, 2, 75, 57
1, 39495, Note_on_c, 2, 74, 0
1, 39498, Note_on_c, 2, 75, 0
1, 39510, Note_on_c, 2, 78, 65
1, 39528, Note_on_c, 2, 78, 0
1, 39536, Note_on_c, 2, 79, 52
1, 39554, Note_on_c, 2, 79, 0
1, 39554, Note_on_c, 2, 78, 46
1, 39576, Note_on_c, 2, 78, 0
1, 39577, Note_on_c, 2, 79, 47
1, 39580, Note_on_c, 2, 79, 0
1, 39595, Note_on_c, 2, 81, 45
1, 39618, Note_on_c, 2, 82, 59
1, 39624, Note_on_c, 2, 81, 0
1, 39640, Note_on_c, 2, 81, 53
1, 39643, Note_on_c, 2, 82, 0
1, 39662, Note_on_c, 2, 82, 41
1, 39666, Note_on_c, 2, 81, 0
1, 39684, Note_on_c, 2, 81, 41
1, 39688, Note_on_c, 2, 82, 0
1, 39702, Note_on_c, 2, 82, 42
1, 39706, Note_on_c, 2, 81, 0
1, 39725, Note_on_c, 2, 81, 54
1, 39729, Note_on_c, 2, 82, 0
1, 39747, Note_on_c, 2, 82, 46
1, 39750, Note_on_c, 2, 81, 0
1, 39759, Note_on_c, 2, 63, 0
1, 39761, Note_on_c, 2, 55, 0
1, 39769, Note_on_c, 2, 81, 54
1, 39773, Note_on_c, 2, 82, 0
1, 39781, Note_on_c, 2, 58, 0
1, 39791, Note_on_c, 2, 51, 0
1, 39792, Note_on_c, 2, 82, 46
1, 39795, Note_on_c, 2, 81, 0
1, 39817, Note_on_c, 2, 81, 42
1, 39821, Note_on_c, 2, 82, 0
1, 39847, Note_on_c, 2, 82, 39
1, 39851, Note_on_c, 2, 81, 0
1, 39854, Note_on_c, 2, 82, 0
1, 39903, Note_on_c, 2, 70, 42
1, 39906, Note_on_c, 2, 76, 50
1, 39906, Note_on_c, 2, 67, 45
1, 39907, Note_on_c, 2, 41, 22
1, 39907, Note_on_c, 2, 55, 31
1, 39907, Note_on_c, 2, 72, 52
1, 39914, Note_on_c, 2, 55, 0
1, 39914, Note_on_c, 2, 41, 0
1, 39914, Note_on_c, 2, 67, 0
1, 39917, Note_on_c, 2, 70, 0
1, 39917, Note_on_c, 2, 76, 0
1, 39918, Note_on_c, 2, 72, 0
1, 39962, Note_on_c, 2, 53, 19
1, 39966, Note_on_c, 2, 41, 42
1, 39966, Note_on_c, 2, 69, 45
1, 39966, Note_on_c, 2, 72, 54
1, 39966, Note_on_c, 2, 77, 57
1, 40002, Note_on_c, 2, 72, 0
1, 40002, Note_on_c, 2, 69, 0
1, 40010, Note_on_c, 2, 77, 0
1, 40017, Note_on_c, 2, 41, 0
1, 40021, Note_on_c, 2, 53, 0
1, 40106, Note_on_c, 2, 82, 37
1, 40125, Note_on_c, 2, 58, 42
1, 40125, Note_on_c, 2, 60, 37
1, 40129, Note_on_c, 2, 79, 36
1, 40136, Note_on_c, 2, 60, 0
1, 40140, Note_on_c, 2, 58, 0
1, 40143, Note_on_c, 2, 82, 0
1, 40147, Note_on_c, 2, 79, 0
1, 40151, Note_on_c, 2, 76, 36
1, 40173, Note_on_c, 2, 60, 44
1, 40174, Note_on_c, 2, 57, 46
1, 40174, Note_on_c, 2, 77, 45
1, 40181, Note_on_c, 2, 76, 0
1, 40225, Note_on_c, 2, 77, 0
1, 40232, Note_on_c, 2, 57, 0
1, 40232, Note_on_c, 2, 60, 0
1, 40306, Note_on_c, 2, 82, 40
1, 40328, Note_on_c, 2, 58, 44
1, 40332, Note_on_c, 2, 60, 45
1, 40332, Note_on_c, 2, 79, 55
1, 40340, Note_on_c, 2, 82, 0
1, 40343, Note_on_c, 2, 58, 0
1, 40343, Note_on_c, 2, 60, 0
1, 40351, Note_on_c, 2, 79, 0
1, 40354, Note_on_c, 2, 76, 46
1, 40377, Note_on_c, 2, 60, 45
1, 40377, Note_on_c, 2, 57, 54
1, 40378, Note_on_c, 2, 77, 50
1, 40384, Note_on_c, 2, 76, 0
1, 40447, Note_on_c, 2, 77, 0
1, 40503, Note_on_c, 2, 78, 45
1, 40525, Note_on_c, 2, 79, 59
1, 40532, Note_on_c, 2, 78, 0
1, 40547, Note_on_c, 2, 76, 45
1, 40562, Note_on_c, 2, 79, 0
1, 40573, Note_on_c, 2, 76, 0
1, 40573, Note_on_c, 2, 77, 53
1, 40592, Note_on_c, 2, 77, 0
1, 40592, Note_on_c, 2, 74, 53
1, 40614, Note_on_c, 2, 75, 53
1, 40618, Note_on_c, 2, 74, 0
1, 40636, Note_on_c, 2, 73, 59
1, 40640, Note_on_c, 2, 75, 0
1, 40658, Note_on_c, 2, 74, 40
1, 40666, Note_on_c, 2, 73, 0
1, 40684, Note_on_c, 2, 71, 33
1, 40714, Note_on_c, 2, 71, 0
1, 40714, Note_on_c, 2, 74, 0
1, 40714, Note_on_c, 2, 72, 43
1, 40722, Note_on_c, 2, 57, 0
1, 40725, Note_on_c, 2, 60, 0
1, 40736, Note_on_c, 2, 72, 0
1, 40740, Note_on_c, 2, 69, 31
1, 40762, Note_on_c, 2, 69, 0
1, 40792, Note_on_c, 2, 58, 42
1, 40792, Note_on_c, 2, 62, 34
1, 40807, Note_on_c, 2, 70, 33
1, 40822, Note_on_c, 2, 72, 49
1, 40825, Note_on_c, 2, 70, 0
1, 40840, Note_on_c, 2, 72, 0
1, 40840, Note_on_c, 2, 70, 55
1, 40859, Note_on_c, 2, 70, 0
1, 40859, Note_on_c, 2, 72, 47
1, 40877, Note_on_c, 2, 72, 0
1, 40877, Note_on_c, 2, 70, 55
1, 40892, Note_on_c, 2, 58, 0
1, 40895, Note_on_c, 2, 62, 0
1, 40900, Note_on_c, 2, 72, 48
1, 40906, Note_on_c, 2, 70, 0
1, 40925, Note_on_c, 2, 72, 0
1, 40926, Note_on_c, 2, 74, 48
1, 40951, Note_on_c, 2, 74, 0
1, 40951, Note_on_c, 2, 63, 37
1, 40952, Note_on_c, 2, 70, 41
1, 40952, Note_on_c, 2, 60, 43
1, 40973, Note_on_c, 2, 70, 0
1, 40974, Note_on_c, 2, 69, 45
1, 40999, Note_on_c, 2, 72, 46
1, 41006, Note_on_c, 2, 69, 0
1, 41025, Note_on_c, 2, 70, 31
1, 41032, Note_on_c, 2, 72, 0
1, 41051, Note_on_c, 2, 60, 0
1, 41051, Note_on_c, 2, 69, 39
1, 41055, Note_on_c, 2, 63, 0
1, 41055, Note_on_c, 2, 70, 0
1, 41073, Note_on_c, 2, 75, 37
1, 41099, Note_on_c, 2, 69, 0
1, 41103, Note_on_c, 2, 75, 0
1, 41103, Note_on_c, 2, 65, 32
1, 41104, Note_on_c, 2, 72, 41
1, 41104, Note_on_c, 2, 62, 41
1, 41129, Note_on_c, 2, 70, 41
1, 41132, Note_on_c, 2, 72, 0
1, 41151, Note_on_c, 2, 74, 50
1, 41162, Note_on_c, 2, 70, 0
1, 41177, Note_on_c, 2, 72, 49
1, 41184, Note_on_c, 2, 74, 0
1, 41199, Note_on_c, 2, 70, 40
1, 41207, Note_on_c, 2, 72, 0
1, 41225, Note_on_c, 2, 77, 51
1, 41259, Note_on_c, 2, 77, 0
1, 41259, Note_on_c, 2, 74, 52
1, 41292, Note_on_c, 2, 70, 0
1, 41295, Note_on_c, 2, 65, 0
1, 41303, Note_on_c, 2, 74, 0
1, 41307, Note_on_c, 2, 62, 0
1, 41407, Note_on_c, 2, 70, 26
1, 41414, Note_on_c, 2, 63, 36
1, 41414, Note_on_c, 2, 75, 47
1, 41414, Note_on_c, 2, 51, 47
1, 41416, Note_on_c, 2, 79, 56
1, 41425, Note_on_c, 2, 63, 0
1, 41425, Note_on_c, 2, 70, 0
1, 41429, Note_on_c, 2, 75, 0
1, 41433, Note_on_c, 2, 51, 0
1, 41433, Note_on_c, 2, 79, 0
1, 41488, Note_on_c, 2, 70, 34
1, 41495, Note_on_c, 2, 74, 40
1, 41495, Note_on_c, 2, 46, 46
1, 41495, Note_on_c, 2, 58, 40
1, 41499, Note_on_c, 2, 77, 56
1, 41507, Note_on_c, 2, 74, 0
1, 41510, Note_on_c, 2, 70, 0
1, 41536, Note_on_c, 2, 77, 0
1, 41581, Note_on_c, 2, 77, 72
1, 41603, Note_on_c, 2, 82, 55
1, 41610, Note_on_c, 2, 77, 0
1, 41621, Note_on_c, 2, 82, 0
1, 41621, Note_on_c, 2, 81, 68
1, 41640, Note_on_c, 2, 82, 59
1, 41648, Note_on_c, 2, 81, 0
1, 41658, Note_on_c, 2, 86, 59
1, 41662, Note_on_c, 2, 82, 0
1, 41670, Note_on_c, 2, 58, 0
1, 41680, Note_on_c, 2, 46, 0
1, 41681, Note_on_c, 2, 82, 65
1, 41684, Note_on_c, 2, 86, 0
1, 41700, Note_on_c, 2, 82, 0
1, 41703, Note_on_c, 2, 81, 49
1, 41722, Note_on_c, 2, 82, 47
1, 41726, Note_on_c, 2, 81, 0
1, 41732, Note_on_c, 2, 82, 0
1, 41744, Note_on_c, 2, 41, 45
1, 41744, Note_on_c, 2, 53, 46
1, 41744, Note_on_c, 2, 74, 57
1, 41747, Note_on_c, 2, 77, 68
1, 41755, Note_on_c, 2, 74, 0
1, 41755, Note_on_c, 2, 41, 0
1, 41755, Note_on_c, 2, 53, 0
1, 41756, Note_on_c, 2, 77, 0
1, 41785, Note_on_c, 2, 75, 55
1, 41785, Note_on_c, 2, 72, 56
1, 41796, Note_on_c, 2, 72, 0
1, 41796, Note_on_c, 2, 75, 0
1, 41844, Note_on_c, 2, 58, 24
1, 41844, Note_on_c, 2, 70, 31
1, 41845, Note_on_c, 2, 74, 40
1, 41845, Note_on_c, 2, 46, 36
1, 41944, Note_on_c, 2, 70, 0
1, 41947, Note_on_c, 2, 58, 0
1, 41947, Note_on_c, 2, 74, 0
1, 41955, Note_on_c, 2, 46, 0
1, 42100, Note_on_c, 2, 46, 54
1, 42100, Note_on_c, 2, 50, 46
1, 42107, Note_on_c, 2, 58, 60
1, 42122, Note_on_c, 2, 60, 54
1, 42126, Note_on_c, 2, 58, 0
1, 42140, Note_on_c, 2, 60, 0
1, 42141, Note_on_c, 2, 58, 57
1, 42159, Note_on_c, 2, 58, 0
1, 42159, Note_on_c, 2, 60, 51
1, 42181, Note_on_c, 2, 58, 63
1, 42185, Note_on_c, 2, 60, 0
1, 42185, Note_on_c, 2, 46, 0
1, 42192, Note_on_c, 2, 50, 0
1, 42207, Note_on_c, 2, 60, 46
1, 42214, Note_on_c, 2, 58, 0
1, 42229, Note_on_c, 2, 60, 0
1, 42230, Note_on_c, 2, 62, 53
1, 42252, Note_on_c, 2, 51, 36
1, 42255, Note_on_c, 2, 62, 0
1, 42255, Note_on_c, 2, 58, 53
1, 42256, Note_on_c, 2, 48, 42
1, 42277, Note_on_c, 2, 57, 45
1, 42281, Note_on_c, 2, 58, 0
1, 42299, Note_on_c, 2, 60, 45
1, 42310, Note_on_c, 2, 57, 0
1, 42326, Note_on_c, 2, 58, 54
1, 42333, Note_on_c, 2, 60, 0
1, 42348, Note_on_c, 2, 51, 0
1, 42351, Note_on_c, 2, 48, 0
1, 42351, Note_on_c, 2, 57, 48
1, 42355, Note_on_c, 2, 58, 0
1, 42374, Note_on_c, 2, 63, 36
1, 42396, Note_on_c, 2, 63, 0
1, 42400, Note_on_c, 2, 53, 29
1, 42404, Note_on_c, 2, 50, 42
1, 42404, Note_on_c, 2, 60, 44
1, 42407, Note_on_c, 2, 57, 0
1, 42426, Note_on_c, 2, 58, 40
1, 42429, Note_on_c, 2, 60, 0
1, 42452, Note_on_c, 2, 62, 50
1, 42459, Note_on_c, 2, 58, 0
1, 42481, Note_on_c, 2, 60, 46
1, 42485, Note_on_c, 2, 62, 0
1, 42507, Note_on_c, 2, 58, 53
1, 42511, Note_on_c, 2, 60, 0
1, 42529, Note_on_c, 2, 65, 54
1, 42555, Note_on_c, 2, 65, 0
1, 42559, Note_on_c, 2, 62, 40
1, 42585, Note_on_c, 2, 58, 0
1, 42596, Note_on_c, 2, 50, 0
1, 42604, Note_on_c, 2, 53, 0
1, 42618, Note_on_c, 2, 62, 0
1, 42696, Note_on_c, 2, 51, 46
1, 42708, Note_on_c, 2, 55, 45
1, 42715, Note_on_c, 2, 60, 52
1, 42718, Note_on_c, 2, 67, 56
1, 42744, Note_on_c, 2, 72, 52
1, 42752, Note_on_c, 2, 67, 0
1, 42766, Note_on_c, 2, 75, 56
1, 42770, Note_on_c, 2, 72, 0
1, 42788, Note_on_c, 2, 75, 0
1, 42789, Note_on_c, 2, 72, 55
1, 42800, Note_on_c, 2, 51, 0
1, 42800, Note_on_c, 2, 55, 0
1, 42810, Note_on_c, 2, 60, 0
1, 42815, Note_on_c, 2, 75, 38
1, 42825, Note_on_c, 2, 72, 0
1, 42837, Note_on_c, 2, 75, 0
1, 42837, Note_on_c, 2, 79, 40
1, 42848, Note_on_c, 2, 79, 0
1, 42859, Note_on_c, 2, 53, 48
1, 42860, Note_on_c, 2, 62, 44
1, 42860, Note_on_c, 2, 79, 53
1, 42881, Note_on_c, 2, 77, 51
1, 42885, Note_on_c, 2, 79, 0
1, 42885, Note_on_c, 2, 53, 0
1, 42888, Note_on_c, 2, 62, 0
1, 42900, Note_on_c, 2, 75, 56
1, 42903, Note_on_c, 2, 77, 0
1, 42915, Note_on_c, 2, 74, 48
1, 42922, Note_on_c, 2, 75, 0
1, 42929, Note_on_c, 2, 74, 0
1, 42936, Note_on_c, 2, 63, 41
1, 42937, Note_on_c, 2, 74, 54
1, 42941, Note_on_c, 2, 52, 42
1, 42941, Note_on_c, 2, 53, 40
1, 42948, Note_on_c, 2, 52, 0
1, 42956, Note_on_c, 2, 74, 0
1, 42956, Note_on_c, 2, 72, 62
1, 42977, Note_on_c, 2, 70, 57
1, 42981, Note_on_c, 2, 63, 0
1, 42985, Note_on_c, 2, 72, 0
1, 42992, Note_on_c, 2, 53, 0
1, 42996, Note_on_c, 2, 70, 0
1, 42996, Note_on_c, 2, 69, 47
1, 43018, Note_on_c, 2, 62, 40
1, 43019, Note_on_c, 2, 70, 57
1, 43019, Note_on_c, 2, 58, 46
1, 43022, Note_on_c, 2, 69, 0
1, 43044, Note_on_c, 2, 62, 0
1, 43044, Note_on_c, 2, 58, 0
1, 43059, Note_on_c, 2, 58, 29
1, 43059, Note_on_c, 2, 62, 28
1, 43074, Note_on_c, 2, 62, 0
1, 43074, Note_on_c, 2, 58, 0
1, 43096, Note_on_c, 2, 62, 33
1, 43100, Note_on_c, 2, 58, 38
1, 43107, Note_on_c, 2, 62, 0
1, 43111, Note_on_c, 2, 58, 0
1, 43137, Note_on_c, 2, 62, 29
1, 43137, Note_on_c, 2, 58, 36
1, 43148, Note_on_c, 2, 58, 0
1, 43148, Note_on_c, 2, 62, 0
1, 43174, Note_on_c, 2, 62, 24
1, 43178, Note_on_c, 2, 58, 34
1, 43185, Note_on_c, 2, 62, 0
1, 43189, Note_on_c, 2, 58, 0
1, 43189, Note_on_c, 2, 70, 0
1, 43211, Note_on_c, 2, 62, 28
1, 43211, Note_on_c, 2, 70, 46
1, 43215, Note_on_c, 2, 58, 33
1, 43226, Note_on_c, 2, 62, 0
1, 43229, Note_on_c, 2, 58, 0
1, 43237, Note_on_c, 2, 70, 0
1, 43248, Note_on_c, 2, 62, 33
1, 43252, Note_on_c, 2, 58, 39
1, 43252, Note_on_c, 2, 69, 40
1, 43259, Note_on_c, 2, 58, 0
1, 43259, Note_on_c, 2, 62, 0
1, 43267, Note_on_c, 2, 69, 0
1, 43288, Note_on_c, 2, 68, 35
1, 43288, Note_on_c, 2, 58, 39
1, 43288, Note_on_c, 2, 62, 25
1, 43296, Note_on_c, 2, 62, 0
1, 43300, Note_on_c, 2, 58, 0
1, 43300, Note_on_c, 2, 68, 0
1, 43334, Note_on_c, 2, 63, 52
1, 43334, Note_on_c, 2, 58, 44
1, 43337, Note_on_c, 2, 67, 60
1, 43366, Note_on_c, 2, 63, 0
1, 43367, Note_on_c, 2, 58, 0
1, 43378, Note_on_c, 2, 63, 34
1, 43378, Note_on_c, 2, 69, 46
1, 43382, Note_on_c, 2, 58, 45
1, 43385, Note_on_c, 2, 67, 0
1, 43393, Note_on_c, 2, 63, 0
1, 43393, Note_on_c, 2, 58, 0
1, 43400, Note_on_c, 2, 70, 57
1, 43404, Note_on_c, 2, 69, 0
1, 43415, Note_on_c, 2, 70, 0
1, 43415, Note_on_c, 2, 63, 38
1, 43415, Note_on_c, 2, 58, 46
1, 43418, Note_on_c, 2, 72, 59
1, 43430, Note_on_c, 2, 58, 0
1, 43430, Note_on_c, 2, 63, 0
1, 43437, Note_on_c, 2, 74, 45
1, 43444, Note_on_c, 2, 72, 0
1, 43456, Note_on_c, 2, 63, 34
1, 43456, Note_on_c, 2, 75, 46
1, 43460, Note_on_c, 2, 58, 42
1, 43463, Note_on_c, 2, 74, 0
1, 43470, Note_on_c, 2, 63, 0
1, 43470, Note_on_c, 2, 58, 0
1, 43474, Note_on_c, 2, 75, 0
1, 43478, Note_on_c, 2, 77, 51
1, 43492, Note_on_c, 2, 63, 35
1, 43496, Note_on_c, 2, 58, 40
1, 43500, Note_on_c, 2, 79, 40
1, 43504, Note_on_c, 2, 77, 0
1, 43511, Note_on_c, 2, 63, 0
1, 43511, Note_on_c, 2, 58, 0
1, 43519, Note_on_c, 2, 81, 45
1, 43526, Note_on_c, 2, 79, 0
1, 43537, Note_on_c, 2, 63, 29
1, 43541, Note_on_c, 2, 58, 35
1, 43541, Note_on_c, 2, 82, 42
1, 43544, Note_on_c, 2, 81, 0
1, 43548, Note_on_c, 2, 63, 0
1, 43552, Note_on_c, 2, 58, 0
1, 43559, Note_on_c, 2, 81, 56
1, 43563, Note_on_c, 2, 82, 0
1, 43578, Note_on_c, 2, 63, 38
1, 43578, Note_on_c, 2, 58, 42
1, 43582, Note_on_c, 2, 81, 0
1, 43582, Note_on_c, 2, 82, 47
1, 43589, Note_on_c, 2, 58, 0
1, 43593, Note_on_c, 2, 63, 0
1, 43600, Note_on_c, 2, 82, 0
1, 43600, Note_on_c, 2, 81, 59
1, 43615, Note_on_c, 2, 63, 40
1, 43618, Note_on_c, 2, 58, 40
1, 43618, Note_on_c, 2, 82, 56
1, 43622, Note_on_c, 2, 81, 0
1, 43633, Note_on_c, 2, 63, 0
1, 43633, Note_on_c, 2, 58, 0
1, 43641, Note_on_c, 2, 79, 52
1, 43648, Note_on_c, 2, 82, 0
1, 43659, Note_on_c, 2, 62, 44
1, 43659, Note_on_c, 2, 77, 62
1, 43659, Note_on_c, 2, 58, 45
1, 43663, Note_on_c, 2, 79, 0
1, 43682, Note_on_c, 2, 62, 0
1, 43682, Note_on_c, 2, 58, 0
1, 43700, Note_on_c, 2, 58, 45
1, 43700, Note_on_c, 2, 62, 37
1, 43714, Note_on_c, 2, 62, 0
1, 43719, Note_on_c, 2, 58, 0
1, 43737, Note_on_c, 2, 58, 44
1, 43737, Note_on_c, 2, 62, 45
1, 43752, Note_on_c, 2, 62, 0
1, 43755, Note_on_c, 2, 58, 0
1, 43778, Note_on_c, 2, 58, 46
1, 43778, Note_on_c, 2, 62, 44
1, 43789, Note_on_c, 2, 62, 0
1, 43792, Note_on_c, 2, 58, 0
1, 43804, Note_on_c, 2, 77, 0
1, 43819, Note_on_c, 2, 58, 45
1, 43819, Note_on_c, 2, 62, 40
1, 43830, Note_on_c, 2, 62, 0
1, 43834, Note_on_c, 2, 58, 0
1, 43860, Note_on_c, 2, 62, 40
1, 43860, Note_on_c, 2, 58, 39
1, 43861, Note_on_c, 2, 70, 63
1, 43870, Note_on_c, 2, 58, 0
1, 43870, Note_on_c, 2, 62, 0
1, 43878, Note_on_c, 2, 70, 0
1, 43900, Note_on_c, 2, 62, 36
1, 43900, Note_on_c, 2, 58, 39
1, 43904, Note_on_c, 2, 69, 49
1, 43911, Note_on_c, 2, 69, 0
1, 43911, Note_on_c, 2, 58, 0
1, 43911, Note_on_c, 2, 62, 0
1, 43944, Note_on_c, 2, 58, 40
1, 43944, Note_on_c, 2, 62, 35
1, 43944, Note_on_c, 2, 68, 54
1, 43952, Note_on_c, 2, 62, 0
1, 43956, Note_on_c, 2, 68, 0
1, 43956, Note_on_c, 2, 58, 0
1, 43989, Note_on_c, 2, 63, 63
1, 43990, Note_on_c, 2, 58, 52
1, 43992, Note_on_c, 2, 67, 55
1, 44019, Note_on_c, 2, 58, 0
1, 44019, Note_on_c, 2, 63, 0
1, 44037, Note_on_c, 2, 63, 42
1, 44037, Note_on_c, 2, 58, 44
1, 44038, Note_on_c, 2, 69, 45
1, 44044, Note_on_c, 2, 67, 0
1, 44052, Note_on_c, 2, 63, 0
1, 44052, Note_on_c, 2, 58, 0
1, 44056, Note_on_c, 2, 70, 60
1, 44059, Note_on_c, 2, 69, 0
1, 44070, Note_on_c, 2, 70, 0
1, 44074, Note_on_c, 2, 63, 45
1, 44075, Note_on_c, 2, 72, 62
1, 44078, Note_on_c, 2, 58, 42
1, 44089, Note_on_c, 2, 63, 0
1, 44093, Note_on_c, 2, 58, 0
1, 44096, Note_on_c, 2, 74, 49
1, 44100, Note_on_c, 2, 72, 0
1, 44115, Note_on_c, 2, 63, 37
1, 44115, Note_on_c, 2, 58, 44
1, 44115, Note_on_c, 2, 75, 53
1, 44119, Note_on_c, 2, 74, 0
1, 44126, Note_on_c, 2, 63, 0
1, 44130, Note_on_c, 2, 58, 0
1, 44134, Note_on_c, 2, 75, 0
1, 44134, Note_on_c, 2, 77, 55
1, 44156, Note_on_c, 2, 63, 35
1, 44156, Note_on_c, 2, 58, 35
1, 44156, Note_on_c, 2, 79, 48
1, 44163, Note_on_c, 2, 77, 0
1, 44170, Note_on_c, 2, 63, 0
1, 44170, Note_on_c, 2, 58, 0
1, 44182, Note_on_c, 2, 81, 54
1, 44185, Note_on_c, 2, 79, 0
1, 44196, Note_on_c, 2, 63, 34
1, 44200, Note_on_c, 2, 58, 40
1, 44200, Note_on_c, 2, 82, 54
1, 44204, Note_on_c, 2, 81, 0
1, 44215, Note_on_c, 2, 63, 0
1, 44215, Note_on_c, 2, 58, 0
1, 44222, Note_on_c, 2, 81, 70
1, 44226, Note_on_c, 2, 82, 0
1, 44241, Note_on_c, 2, 63, 38
1, 44241, Note_on_c, 2, 58, 40
1, 44241, Note_on_c, 2, 82, 55
1, 44244, Note_on_c, 2, 81, 0
1, 44252, Note_on_c, 2, 63, 0
1, 44252, Note_on_c, 2, 58, 0
1, 44260, Note_on_c, 2, 82, 0
1, 44263, Note_on_c, 2, 81, 56
1, 44282, Note_on_c, 2, 63, 43
1, 44282, Note_on_c, 2, 58, 40
1, 44283, Note_on_c, 2, 82, 59
1, 44285, Note_on_c, 2, 81, 0
1, 44293, Note_on_c, 2, 63, 0
1, 44293, Note_on_c, 2, 58, 0
1, 44304, Note_on_c, 2, 79, 40
1, 44311, Note_on_c, 2, 82, 0
1, 44319, Note_on_c, 2, 63, 44
1, 44323, Note_on_c, 2, 79, 0
1, 44323, Note_on_c, 2, 58, 40
1, 44323, Note_on_c, 2, 77, 65
1, 44330, Note_on_c, 2, 58, 0
1, 44337, Note_on_c, 2, 63, 0
1, 44363, Note_on_c, 2, 77, 0
1, 44367, Note_on_c, 2, 58, 52
1, 44411, Note_on_c, 2, 62, 45
1, 44430, Note_on_c, 2, 82, 60
1, 44448, Note_on_c, 2, 82, 0
1, 44448, Note_on_c, 2, 65, 42
1, 44449, Note_on_c, 2, 84, 54
1, 44452, Note_on_c, 2, 58, 0
1, 44467, Note_on_c, 2, 82, 72
1, 44474, Note_on_c, 2, 84, 0
1, 44489, Note_on_c, 2, 62, 0
1, 44489, Note_on_c, 2, 82, 0
1, 44490, Note_on_c, 2, 58, 54
1, 44490, Note_on_c, 2, 86, 55
1, 44493, Note_on_c, 2, 65, 0
1, 44511, Note_on_c, 2, 84, 55
1, 44522, Note_on_c, 2, 86, 0
1, 44530, Note_on_c, 2, 82, 65
1, 44534, Note_on_c, 2, 84, 0
1, 44537, Note_on_c, 2, 58, 0
1, 44548, Note_on_c, 2, 81, 56
1, 44563, Note_on_c, 2, 82, 0
1, 44571, Note_on_c, 2, 81, 0
1, 44571, Note_on_c, 2, 79, 65
1, 44589, Note_on_c, 2, 77, 54
1, 44596, Note_on_c, 2, 79, 0
1, 44612, Note_on_c, 2, 75, 66
1, 44618, Note_on_c, 2, 77, 0
1, 44630, Note_on_c, 2, 75, 0
1, 44630, Note_on_c, 2, 74, 54
1, 44652, Note_on_c, 2, 75, 72
1, 44660, Note_on_c, 2, 74, 0
1, 44697, Note_on_c, 2, 53, 53
1, 44708, Note_on_c, 2, 75, 0
1, 44748, Note_on_c, 2, 57, 53
1, 44767, Note_on_c, 2, 81, 59
1, 44786, Note_on_c, 2, 81, 0
1, 44786, Note_on_c, 2, 53, 0
1, 44786, Note_on_c, 2, 82, 53
1, 44786, Note_on_c, 2, 60, 54
1, 44804, Note_on_c, 2, 81, 55
1, 44812, Note_on_c, 2, 82, 0
1, 44826, Note_on_c, 2, 57, 0
1, 44827, Note_on_c, 2, 60, 0
1, 44827, Note_on_c, 2, 53, 65
1, 44827, Note_on_c, 2, 84, 54
1, 44830, Note_on_c, 2, 81, 0
1, 44848, Note_on_c, 2, 82, 66
1, 44856, Note_on_c, 2, 84, 0
1, 44870, Note_on_c, 2, 81, 60
1, 44878, Note_on_c, 2, 82, 0
1, 44889, Note_on_c, 2, 81, 0
1, 44890, Note_on_c, 2, 79, 60
1, 44893, Note_on_c, 2, 53, 0
1, 44908, Note_on_c, 2, 79, 0
1, 44912, Note_on_c, 2, 77, 53
1, 44930, Note_on_c, 2, 75, 62
1, 44938, Note_on_c, 2, 77, 0
1, 44949, Note_on_c, 2, 74, 47
1, 44952, Note_on_c, 2, 75, 0
1, 44975, Note_on_c, 2, 72, 62
1, 44978, Note_on_c, 2, 74, 0
1, 44997, Note_on_c, 2, 74, 55
1, 45000, Note_on_c, 2, 72, 0
1, 45041, Note_on_c, 2, 34, 63
1, 45041, Note_on_c, 2, 46, 63
1, 45049, Note_on_c, 2, 34, 0
1, 45052, Note_on_c, 2, 46, 0
1, 45082, Note_on_c, 2, 38, 66
1, 45082, Note_on_c, 2, 50, 59
1, 45093, Note_on_c, 2, 50, 0
1, 45097, Note_on_c, 2, 38, 0
1, 45108, Note_on_c, 2, 77, 43
1, 45123, Note_on_c, 2, 53, 38
1, 45123, Note_on_c, 2, 41, 45
1, 45126, Note_on_c, 2, 77, 0
1, 45126, Note_on_c, 2, 79, 52
1, 45130, Note_on_c, 2, 74, 0
1, 45138, Note_on_c, 2, 53, 0
1, 45141, Note_on_c, 2, 41, 0
1, 45141, Note_on_c, 2, 77, 53
1, 45145, Note_on_c, 2, 79, 0
1, 45167, Note_on_c, 2, 77, 0
1, 45167, Note_on_c, 2, 50, 54
1, 45167, Note_on_c, 2, 38, 68
1, 45168, Note_on_c, 2, 82, 66
1, 45190, Note_on_c, 2, 81, 65
1, 45208, Note_on_c, 2, 79, 63
1, 45211, Note_on_c, 2, 82, 0
1, 45215, Note_on_c, 2, 81, 0
1, 45230, Note_on_c, 2, 79, 0
1, 45230, Note_on_c, 2, 77, 68
1, 45241, Note_on_c, 2, 38, 0
1, 45248, Note_on_c, 2, 77, 0
1, 45252, Note_on_c, 2, 50, 0
1, 45256, Note_on_c, 2, 75, 45
1, 45275, Note_on_c, 2, 74, 55
1, 45278, Note_on_c, 2, 75, 0
1, 45297, Note_on_c, 2, 72, 57
1, 45301, Note_on_c, 2, 74, 0
1, 45304, Note_on_c, 2, 72, 0
1, 45316, Note_on_c, 2, 53, 47
1, 45316, Note_on_c, 2, 50, 51
1, 45319, Note_on_c, 2, 71, 56
1, 45322, Note_on_c, 2, 50, 0
1, 45326, Note_on_c, 2, 53, 0
1, 45338, Note_on_c, 2, 55, 54
1, 45338, Note_on_c, 2, 51, 70
1, 45341, Note_on_c, 2, 71, 0
1, 45342, Note_on_c, 2, 74, 57
1, 45360, Note_on_c, 2, 74, 0
1, 45360, Note_on_c, 2, 72, 65
1, 45382, Note_on_c, 2, 75, 65
1, 45404, Note_on_c, 2, 74, 70
1, 45408, Note_on_c, 2, 75, 0
1, 45412, Note_on_c, 2, 72, 0
1, 45423, Note_on_c, 2, 77, 63
1, 45426, Note_on_c, 2, 74, 0
1, 45445, Note_on_c, 2, 77, 0
1, 45445, Note_on_c, 2, 75, 79
1, 45464, Note_on_c, 2, 75, 0
1, 45464, Note_on_c, 2, 79, 51
1, 45482, Note_on_c, 2, 78, 46
1, 45486, Note_on_c, 2, 79, 0
1, 45496, Note_on_c, 2, 78, 0
1, 45505, Note_on_c, 2, 79, 56
1, 45522, Note_on_c, 2, 77, 70
1, 45526, Note_on_c, 2, 79, 0
1, 45545, Note_on_c, 2, 75, 68
1, 45549, Note_on_c, 2, 77, 0
1, 45552, Note_on_c, 2, 51, 0
1, 45556, Note_on_c, 2, 55, 0
1, 45564, Note_on_c, 2, 74, 55
1, 45571, Note_on_c, 2, 75, 0
1, 45582, Note_on_c, 2, 74, 0
1, 45582, Note_on_c, 2, 72, 65
1, 45600, Note_on_c, 2, 72, 0
1, 45604, Note_on_c, 2, 70, 63
1, 45619, Note_on_c, 2, 70, 0
1, 45623, Note_on_c, 2, 52, 48
1, 45623, Note_on_c, 2, 55, 45
1, 45624, Note_on_c, 2, 69, 45
1, 45634, Note_on_c, 2, 55, 0
1, 45638, Note_on_c, 2, 52, 0
1, 45642, Note_on_c, 2, 69, 0
1, 45642, Note_on_c, 2, 70, 56
1, 45664, Note_on_c, 2, 70, 0
1, 45664, Note_on_c, 2, 53, 63
1, 45664, Note_on_c, 2, 57, 54
1, 45664, Note_on_c, 2, 69, 53
1, 45682, Note_on_c, 2, 70, 63
1, 45697, Note_on_c, 2, 69, 0
1, 45701, Note_on_c, 2, 72, 54
1, 45708, Note_on_c, 2, 70, 0
1, 45726, Note_on_c, 2, 57, 0
1, 45727, Note_on_c, 2, 74, 42
1, 45730, Note_on_c, 2, 72, 0
1, 45746, Note_on_c, 2, 76, 56
1, 45748, Note_on_c, 2, 74, 0
1, 45756, Note_on_c, 2, 76, 0
1, 45760, Note_on_c, 2, 53, 0
1, 45767, Note_on_c, 2, 77, 40
1, 45782, Note_on_c, 2, 77, 0
1, 45786, Note_on_c, 2, 76, 35
1, 45808, Note_on_c, 2, 76, 0
1, 45808, Note_on_c, 2, 77, 44
1, 45823, Note_on_c, 2, 45, 52
1, 45827, Note_on_c, 2, 77, 0
1, 45827, Note_on_c, 2, 65, 40
1, 45845, Note_on_c, 2, 46, 57
1, 45849, Note_on_c, 2, 45, 0
1, 45864, Note_on_c, 2, 46, 0
1, 45864, Note_on_c, 2, 48, 54
1, 45886, Note_on_c, 2, 50, 70
1, 45894, Note_on_c, 2, 48, 0
1, 45904, Note_on_c, 2, 50, 0
1, 45905, Note_on_c, 2, 52, 63
1, 45923, Note_on_c, 2, 53, 65
1, 45934, Note_on_c, 2, 52, 0
1, 45945, Note_on_c, 2, 53, 0
1, 45946, Note_on_c, 2, 52, 63
1, 45968, Note_on_c, 2, 53, 68
1, 45971, Note_on_c, 2, 52, 0
1, 45975, Note_on_c, 2, 53, 0
1, 45986, Note_on_c, 2, 41, 70
1, 46045, Note_on_c, 2, 65, 0
1, 46049, Note_on_c, 2, 41, 0
1, 46134, Note_on_c, 2, 84, 46
1, 46149, Note_on_c, 2, 84, 0
1, 46175, Note_on_c, 2, 84, 48
1, 46190, Note_on_c, 2, 84, 0
1, 46216, Note_on_c, 2, 84, 45
1, 46227, Note_on_c, 2, 84, 0
1, 46253, Note_on_c, 2, 84, 39
1, 46271, Note_on_c, 2, 84, 0
1, 46301, Note_on_c, 2, 84, 45
1, 46316, Note_on_c, 2, 84, 0
1, 46349, Note_on_c, 2, 84, 54
1, 46353, Note_on_c, 2, 53, 31
1, 46394, Note_on_c, 2, 60, 39
1, 46431, Note_on_c, 2, 60, 0
1, 46431, Note_on_c, 2, 57, 42
1, 46457, Note_on_c, 2, 53, 0
1, 46468, Note_on_c, 2, 60, 39
1, 46472, Note_on_c, 2, 82, 59
1, 46475, Note_on_c, 2, 84, 0
1, 46483, Note_on_c, 2, 57, 0
1, 46486, Note_on_c, 2, 81, 38
1, 46494, Note_on_c, 2, 82, 0
1, 46505, Note_on_c, 2, 79, 53
1, 46505, Note_on_c, 2, 55, 42
1, 46508, Note_on_c, 2, 81, 0
1, 46508, Note_on_c, 2, 60, 0
1, 46549, Note_on_c, 2, 60, 45
1, 46549, Note_on_c, 2, 77, 50
1, 46556, Note_on_c, 2, 79, 0
1, 46586, Note_on_c, 2, 58, 39
1, 46586, Note_on_c, 2, 76, 48
1, 46590, Note_on_c, 2, 77, 0
1, 46590, Note_on_c, 2, 60, 0
1, 46623, Note_on_c, 2, 60, 40
1, 46627, Note_on_c, 2, 55, 0
1, 46627, Note_on_c, 2, 76, 0
1, 46627, Note_on_c, 2, 58, 0
1, 46627, Note_on_c, 2, 79, 46
1, 46668, Note_on_c, 2, 79, 0
1, 46668, Note_on_c, 2, 57, 47
1, 46668, Note_on_c, 2, 77, 45
1, 46690, Note_on_c, 2, 60, 0
1, 46708, Note_on_c, 2, 53, 36
1, 46746, Note_on_c, 2, 57, 0
1, 46749, Note_on_c, 2, 77, 0
1, 46749, Note_on_c, 2, 60, 46
1, 46749, Note_on_c, 2, 72, 51
1, 46752, Note_on_c, 2, 53, 0
1, 46786, Note_on_c, 2, 60, 0
1, 46790, Note_on_c, 2, 72, 0
1, 46790, Note_on_c, 2, 84, 53
1, 46805, Note_on_c, 2, 84, 0
1, 46827, Note_on_c, 2, 84, 55
1, 46842, Note_on_c, 2, 84, 0
1, 46868, Note_on_c, 2, 84, 47
1, 46879, Note_on_c, 2, 84, 0
1, 46908, Note_on_c, 2, 84, 45
1, 46924, Note_on_c, 2, 84, 0
1, 46953, Note_on_c, 2, 84, 45
1, 46964, Note_on_c, 2, 84, 0
1, 46997, Note_on_c, 2, 53, 41
1, 46998, Note_on_c, 2, 84, 51
1, 47038, Note_on_c, 2, 60, 42
1, 47079, Note_on_c, 2, 60, 0
1, 47079, Note_on_c, 2, 57, 44
1, 47094, Note_on_c, 2, 53, 0
1, 47112, Note_on_c, 2, 60, 47
1, 47116, Note_on_c, 2, 82, 65
1, 47120, Note_on_c, 2, 57, 0
1, 47120, Note_on_c, 2, 84, 0
1, 47138, Note_on_c, 2, 81, 56
1, 47142, Note_on_c, 2, 82, 0
1, 47153, Note_on_c, 2, 81, 0
1, 47153, Note_on_c, 2, 52, 48
1, 47153, Note_on_c, 2, 79, 68
1, 47157, Note_on_c, 2, 60, 0
1, 47190, Note_on_c, 2, 60, 51
1, 47194, Note_on_c, 2, 81, 60
1, 47201, Note_on_c, 2, 79, 0
1, 47231, Note_on_c, 2, 60, 0
1, 47231, Note_on_c, 2, 82, 55
1, 47231, Note_on_c, 2, 55, 41
1, 47238, Note_on_c, 2, 81, 0
1, 47268, Note_on_c, 2, 52, 0
1, 47268, Note_on_c, 2, 60, 46
1, 47268, Note_on_c, 2, 79, 54
1, 47272, Note_on_c, 2, 82, 0
1, 47272, Note_on_c, 2, 55, 0
1, 47312, Note_on_c, 2, 53, 45
1, 47316, Note_on_c, 2, 81, 48
1, 47320, Note_on_c, 2, 79, 0
1, 47324, Note_on_c, 2, 60, 0
1, 47353, Note_on_c, 2, 57, 36
1, 47398, Note_on_c, 2, 60, 45
1, 47438, Note_on_c, 2, 84, 60
1, 47460, Note_on_c, 2, 84, 0
1, 47479, Note_on_c, 2, 84, 52
1, 47498, Note_on_c, 2, 84, 0
1, 47520, Note_on_c, 2, 84, 72
1, 47535, Note_on_c, 2, 84, 0
1, 47535, Note_on_c, 2, 81, 0
1, 47560, Note_on_c, 2, 84, 83
1, 47590, Note_on_c, 2, 60, 0
1, 47597, Note_on_c, 2, 53, 0
1, 47598, Note_on_c, 2, 57, 0
1, 47605, Note_on_c, 2, 85, 48
1, 47612, Note_on_c, 2, 84, 0
1, 47650, Note_on_c, 2, 86, 63
1, 47650, Note_on_c, 2, 58, 66
1, 47650, Note_on_c, 2, 46, 62
1, 47653, Note_on_c, 2, 85, 0
1, 47672, Note_on_c, 2, 86, 0
1, 47672, Note_on_c, 2, 74, 68
1, 47694, Note_on_c, 2, 73, 79
1, 47701, Note_on_c, 2, 74, 0
1, 47712, Note_on_c, 2, 73, 0
1, 47716, Note_on_c, 2, 74, 63
1, 47735, Note_on_c, 2, 74, 0
1, 47735, Note_on_c, 2, 75, 72
1, 47750, Note_on_c, 2, 75, 0
1, 47753, Note_on_c, 2, 74, 68
1, 47772, Note_on_c, 2, 74, 0
1, 47776, Note_on_c, 2, 76, 68
1, 47794, Note_on_c, 2, 76, 0
1, 47794, Note_on_c, 2, 74, 66
1, 47813, Note_on_c, 2, 74, 0
1, 47816, Note_on_c, 2, 77, 63
1, 47835, Note_on_c, 2, 77, 0
1, 47835, Note_on_c, 2, 74, 65
1, 47853, Note_on_c, 2, 74, 0
1, 47857, Note_on_c, 2, 78, 79
1, 47875, Note_on_c, 2, 78, 0
1, 47875, Note_on_c, 2, 74, 68
1, 47894, Note_on_c, 2, 74, 0
1, 47898, Note_on_c, 2, 79, 65
1, 47916, Note_on_c, 2, 79, 0
1, 47916, Note_on_c, 2, 74, 72
1, 47931, Note_on_c, 2, 46, 0
1, 47935, Note_on_c, 2, 74, 0
1, 47935, Note_on_c, 2, 58, 0
1, 47939, Note_on_c, 2, 81, 65
1, 47954, Note_on_c, 2, 81, 0
1, 47957, Note_on_c, 2, 74, 65
1, 47975, Note_on_c, 2, 82, 79
1, 47979, Note_on_c, 2, 55, 65
1, 48005, Note_on_c, 2, 55, 0
1, 48005, Note_on_c, 2, 57, 57
1, 48027, Note_on_c, 2, 57, 0
1, 48027, Note_on_c, 2, 58, 70
1, 48043, Note_on_c, 2, 58, 0
1, 48043, Note_on_c, 2, 57, 54
1, 48064, Note_on_c, 2, 55, 79
1, 48068, Note_on_c, 2, 57, 0
1, 48083, Note_on_c, 2, 55, 0
1, 48083, Note_on_c, 2, 57, 55
1, 48101, Note_on_c, 2, 57, 0
1, 48105, Note_on_c, 2, 53, 83
1, 48124, Note_on_c, 2, 53, 0
1, 48124, Note_on_c, 2, 55, 52
1, 48142, Note_on_c, 2, 55, 0
1, 48142, Note_on_c, 2, 52, 83
1, 48160, Note_on_c, 2, 52, 0
1, 48161, Note_on_c, 2, 53, 59
1, 48179, Note_on_c, 2, 53, 0
1, 48183, Note_on_c, 2, 50, 79
1, 48201, Note_on_c, 2, 50, 0
1, 48201, Note_on_c, 2, 52, 60
1, 48209, Note_on_c, 2, 82, 0
1, 48209, Note_on_c, 2, 74, 0
1, 48220, Note_on_c, 2, 52, 0
1, 48224, Note_on_c, 2, 48, 96
1, 48224, Note_on_c, 2, 81, 56
1, 48232, Note_on_c, 2, 82, 56
1, 48234, Note_on_c, 2, 81, 0
1, 48239, Note_on_c, 2, 48, 0
1, 48242, Note_on_c, 2, 52, 45
1, 48242, Note_on_c, 2, 50, 45
1, 48246, Note_on_c, 2, 82, 0
1, 48246, Note_on_c, 2, 81, 66
1, 48257, Note_on_c, 2, 81, 0
1, 48257, Note_on_c, 2, 50, 0
1, 48257, Note_on_c, 2, 82, 55
1, 48260, Note_on_c, 2, 52, 0
1, 48260, Note_on_c, 2, 46, 53
1, 48268, Note_on_c, 2, 82, 0
1, 48268, Note_on_c, 2, 81, 47
1, 48279, Note_on_c, 2, 81, 0
1, 48283, Note_on_c, 2, 82, 45
1, 48294, Note_on_c, 2, 81, 59
1, 48298, Note_on_c, 2, 82, 0
1, 48312, Note_on_c, 2, 82, 56
1, 48316, Note_on_c, 2, 46, 0
1, 48316, Note_on_c, 2, 57, 53
1, 48317, Note_on_c, 2, 45, 60
1, 48317, Note_on_c, 2, 84, 68
1, 48320, Note_on_c, 2, 81, 0
1, 48327, Note_on_c, 2, 82, 0
1, 48335, Note_on_c, 2, 84, 0
1, 48335, Note_on_c, 2, 72, 88
1, 48353, Note_on_c, 2, 71, 88
1, 48361, Note_on_c, 2, 72, 0
1, 48376, Note_on_c, 2, 71, 0
1, 48376, Note_on_c, 2, 72, 59
1, 48390, Note_on_c, 2, 72, 0
1, 48394, Note_on_c, 2, 73, 83
1, 48409, Note_on_c, 2, 73, 0
1, 48412, Note_on_c, 2, 72, 66
1, 48428, Note_on_c, 2, 72, 0
1, 48431, Note_on_c, 2, 74, 70
1, 48450, Note_on_c, 2, 74, 0
1, 48450, Note_on_c, 2, 72, 66
1, 48468, Note_on_c, 2, 72, 0
1, 48472, Note_on_c, 2, 75, 70
1, 48490, Note_on_c, 2, 75, 0
1, 48490, Note_on_c, 2, 72, 72
1, 48509, Note_on_c, 2, 72, 0
1, 48513, Note_on_c, 2, 76, 62
1, 48531, Note_on_c, 2, 76, 0
1, 48532, Note_on_c, 2, 72, 66
1, 48550, Note_on_c, 2, 72, 0
1, 48554, Note_on_c, 2, 77, 66
1, 48576, Note_on_c, 2, 77, 0
1, 48576, Note_on_c, 2, 72, 68
1, 48587, Note_on_c, 2, 45, 0
1, 48594, Note_on_c, 2, 72, 0
1, 48594, Note_on_c, 2, 79, 66
1, 48613, Note_on_c, 2, 79, 0
1, 48616, Note_on_c, 2, 72, 65
1, 48635, Note_on_c, 2, 57, 0
1, 48635, Note_on_c, 2, 53, 72
1, 48635, Note_on_c, 2, 81, 72
1, 48657, Note_on_c, 2, 55, 72
1, 48665, Note_on_c, 2, 53, 0
1, 48676, Note_on_c, 2, 57, 72
1, 48679, Note_on_c, 2, 55, 0
1, 48698, Note_on_c, 2, 55, 52
1, 48716, Note_on_c, 2, 57, 0
1, 48716, Note_on_c, 2, 53, 63
1, 48720, Note_on_c, 2, 55, 0
1, 48735, Note_on_c, 2, 53, 0
1, 48735, Note_on_c, 2, 55, 63
1, 48754, Note_on_c, 2, 55, 0
1, 48754, Note_on_c, 2, 52, 79
1, 48757, Note_on_c, 2, 53, 53
1, 48768, Note_on_c, 2, 53, 0
1, 48772, Note_on_c, 2, 52, 0
1, 48776, Note_on_c, 2, 53, 50
1, 48776, Note_on_c, 2, 55, 54
1, 48783, Note_on_c, 2, 55, 0
1, 48791, Note_on_c, 2, 53, 0
1, 48794, Note_on_c, 2, 50, 79
1, 48813, Note_on_c, 2, 50, 0
1, 48813, Note_on_c, 2, 52, 56
1, 48832, Note_on_c, 2, 52, 0
1, 48835, Note_on_c, 2, 48, 88
1, 48846, Note_on_c, 2, 72, 0
1, 48850, Note_on_c, 2, 48, 0
1, 48850, Note_on_c, 2, 50, 53
1, 48850, Note_on_c, 2, 52, 54
1, 48857, Note_on_c, 2, 81, 0
1, 48868, Note_on_c, 2, 52, 0
1, 48868, Note_on_c, 2, 50, 0
1, 48872, Note_on_c, 2, 46, 79
1, 48876, Note_on_c, 2, 81, 57
1, 48884, Note_on_c, 2, 82, 50
1, 48887, Note_on_c, 2, 81, 0
1, 48898, Note_on_c, 2, 82, 0
1, 48898, Note_on_c, 2, 46, 0
1, 48898, Note_on_c, 2, 81, 65
1, 48906, Note_on_c, 2, 82, 57
1, 48909, Note_on_c, 2, 81, 0
1, 48909, Note_on_c, 2, 44, 62
1, 48920, Note_on_c, 2, 82, 0
1, 48924, Note_on_c, 2, 81, 45
1, 48931, Note_on_c, 2, 82, 55
1, 48935, Note_on_c, 2, 44, 0
1, 48939, Note_on_c, 2, 81, 0
1, 48950, Note_on_c, 2, 82, 0
1, 48964, Note_on_c, 2, 43, 57
1, 48965, Note_on_c, 2, 55, 48
1, 48968, Note_on_c, 2, 82, 63
1, 48987, Note_on_c, 2, 70, 72
1, 48991, Note_on_c, 2, 82, 0
1, 49006, Note_on_c, 2, 69, 45
1, 49009, Note_on_c, 2, 70, 0
1, 49028, Note_on_c, 2, 70, 60
1, 49035, Note_on_c, 2, 69, 0
1, 49046, Note_on_c, 2, 72, 59
1, 49050, Note_on_c, 2, 70, 0
1, 49064, Note_on_c, 2, 70, 68
1, 49068, Note_on_c, 2, 72, 0
1, 49087, Note_on_c, 2, 74, 65
1, 49091, Note_on_c, 2, 70, 0
1, 49106, Note_on_c, 2, 74, 0
1, 49110, Note_on_c, 2, 70, 55
1, 49128, Note_on_c, 2, 75, 63
1, 49131, Note_on_c, 2, 70, 0
1, 49150, Note_on_c, 2, 70, 59
1, 49154, Note_on_c, 2, 75, 0
1, 49168, Note_on_c, 2, 76, 60
1, 49176, Note_on_c, 2, 70, 0
1, 49187, Note_on_c, 2, 76, 0
1, 49190, Note_on_c, 2, 70, 55
1, 49213, Note_on_c, 2, 77, 57
1, 49220, Note_on_c, 2, 70, 0
1, 49239, Note_on_c, 2, 77, 0
1, 49239, Note_on_c, 2, 70, 53
1, 49246, Note_on_c, 2, 43, 0
1, 49265, Note_on_c, 2, 70, 0
1, 49265, Note_on_c, 2, 78, 55
1, 49287, Note_on_c, 2, 70, 40
1, 49290, Note_on_c, 2, 78, 0
1, 49313, Note_on_c, 2, 70, 0
1, 49320, Note_on_c, 2, 48, 28
1, 49320, Note_on_c, 2, 79, 46
1, 49339, Note_on_c, 2, 55, 0
1, 49346, Note_on_c, 2, 52, 37
1, 49368, Note_on_c, 2, 55, 42
1, 49372, Note_on_c, 2, 52, 0
1, 49391, Note_on_c, 2, 48, 0
1, 49391, Note_on_c, 2, 52, 43
1, 49395, Note_on_c, 2, 79, 0
1, 49410, Note_on_c, 2, 52, 0
1, 49413, Note_on_c, 2, 48, 47
1, 49417, Note_on_c, 2, 55, 0
1, 49432, Note_on_c, 2, 52, 44
1, 49454, Note_on_c, 2, 52, 0
1, 49454, Note_on_c, 2, 55, 47
1, 49454, Note_on_c, 2, 82, 70
1, 49476, Note_on_c, 2, 82, 0
1, 49476, Note_on_c, 2, 48, 0
1, 49476, Note_on_c, 2, 52, 50
1, 49491, Note_on_c, 2, 52, 0
1, 49498, Note_on_c, 2, 55, 0
1, 49498, Note_on_c, 2, 48, 44
1, 49499, Note_on_c, 2, 81, 66
1, 49517, Note_on_c, 2, 52, 48
1, 49539, Note_on_c, 2, 52, 0
1, 49539, Note_on_c, 2, 79, 49
1, 49540, Note_on_c, 2, 55, 54
1, 49543, Note_on_c, 2, 81, 0
1, 49558, Note_on_c, 2, 52, 46
1, 49561, Note_on_c, 2, 48, 0
1, 49576, Note_on_c, 2, 52, 0
1, 49580, Note_on_c, 2, 55, 0
1, 49580, Note_on_c, 2, 48, 55
1, 49580, Note_on_c, 2, 77, 52
1, 49583, Note_on_c, 2, 79, 0
1, 49598, Note_on_c, 2, 52, 47
1, 49620, Note_on_c, 2, 52, 0
1, 49620, Note_on_c, 2, 55, 55
1, 49624, Note_on_c, 2, 77, 0
1, 49624, Note_on_c, 2, 76, 47
1, 49642, Note_on_c, 2, 48, 0
1, 49643, Note_on_c, 2, 52, 45
1, 49665, Note_on_c, 2, 52, 0
1, 49666, Note_on_c, 2, 48, 52
1, 49668, Note_on_c, 2, 55, 0
1, 49669, Note_on_c, 2, 79, 48
1, 49672, Note_on_c, 2, 76, 0
1, 49687, Note_on_c, 2, 53, 42
1, 49710, Note_on_c, 2, 77, 48
1, 49713, Note_on_c, 2, 57, 54
1, 49716, Note_on_c, 2, 53, 0
1, 49716, Note_on_c, 2, 79, 0
1, 49731, Note_on_c, 2, 53, 48
1, 49739, Note_on_c, 2, 48, 0
1, 49754, Note_on_c, 2, 53, 0
1, 49757, Note_on_c, 2, 57, 0
1, 49758, Note_on_c, 2, 48, 56
1, 49776, Note_on_c, 2, 53, 45
1, 49794, Note_on_c, 2, 57, 50
1, 49798, Note_on_c, 2, 53, 0
1, 49798, Note_on_c, 2, 84, 46
1, 49802, Note_on_c, 2, 77, 0
1, 49817, Note_on_c, 2, 48, 0
1, 49817, Note_on_c, 2, 53, 43
1, 49832, Note_on_c, 2, 53, 0
1, 49839, Note_on_c, 2, 48, 53
1, 49840, Note_on_c, 2, 82, 55
1, 49842, Note_on_c, 2, 84, 0
1, 49843, Note_on_c, 2, 57, 0
1, 49858, Note_on_c, 2, 51, 46
1, 49876, Note_on_c, 2, 48, 0
1, 49880, Note_on_c, 2, 54, 48
1, 49884, Note_on_c, 2, 81, 49
1, 49887, Note_on_c, 2, 82, 0
1, 49891, Note_on_c, 2, 51, 0
1, 49902, Note_on_c, 2, 51, 47
1, 49913, Note_on_c, 2, 54, 0
1, 49920, Note_on_c, 2, 51, 0
1, 49924, Note_on_c, 2, 81, 0
1, 49924, Note_on_c, 2, 48, 53
1, 49924, Note_on_c, 2, 79, 57
1, 49947, Note_on_c, 2, 51, 41
1, 49950, Note_on_c, 2, 79, 0
1, 49954, Note_on_c, 2, 48, 0
1, 49968, Note_on_c, 2, 54, 46
1, 49968, Note_on_c, 2, 78, 57
1, 49976, Note_on_c, 2, 51, 0
1, 49987, Note_on_c, 2, 78, 0
1, 49987, Note_on_c, 2, 51, 35
1, 49998, Note_on_c, 2, 54, 0
1, 50002, Note_on_c, 2, 51, 0
1, 50010, Note_on_c, 2, 46, 57
1, 50010, Note_on_c, 2, 79, 56
1, 50032, Note_on_c, 2, 50, 52
1, 50050, Note_on_c, 2, 50, 0
1, 50050, Note_on_c, 2, 55, 53
1, 50069, Note_on_c, 2, 46, 0
1, 50069, Note_on_c, 2, 50, 48
1, 50073, Note_on_c, 2, 81, 66
1, 50076, Note_on_c, 2, 79, 0
1, 50087, Note_on_c, 2, 55, 0
1, 50087, Note_on_c, 2, 50, 0
1, 50091, Note_on_c, 2, 81, 0
1, 50091, Note_on_c, 2, 46, 63
1, 50091, Note_on_c, 2, 84, 59
1, 50110, Note_on_c, 2, 50, 52
1, 50110, Note_on_c, 2, 82, 72
1, 50117, Note_on_c, 2, 84, 0
1, 50132, Note_on_c, 2, 46, 0
1, 50132, Note_on_c, 2, 81, 66
1, 50132, Note_on_c, 2, 55, 47
1, 50136, Note_on_c, 2, 82, 0
1, 50139, Note_on_c, 2, 55, 0
1, 50150, Note_on_c, 2, 81, 0
1, 50150, Note_on_c, 2, 79, 83
1, 50154, Note_on_c, 2, 50, 0
1, 50169, Note_on_c, 2, 48, 60
1, 50173, Note_on_c, 2, 77, 70
1, 50176, Note_on_c, 2, 79, 0
1, 50191, Note_on_c, 2, 53, 38
1, 50213, Note_on_c, 2, 53, 0
1, 50217, Note_on_c, 2, 57, 41
1, 50232, Note_on_c, 2, 48, 0
1, 50236, Note_on_c, 2, 53, 46
1, 50247, Note_on_c, 2, 53, 0
1, 50247, Note_on_c, 2, 57, 0
1, 50258, Note_on_c, 2, 77, 0
1, 50258, Note_on_c, 2, 48, 57
1, 50262, Note_on_c, 2, 76, 72
1, 50269, Note_on_c, 2, 52, 42
1, 50272, Note_on_c, 2, 76, 0
1, 50273, Note_on_c, 2, 77, 55
1, 50277, Note_on_c, 2, 55, 46
1, 50283, Note_on_c, 2, 48, 0
1, 50284, Note_on_c, 2, 52, 0
1, 50284, Note_on_c, 2, 77, 0
1, 50284, Note_on_c, 2, 76, 52
1, 50288, Note_on_c, 2, 55, 0
1, 50291, Note_on_c, 2, 76, 0
1, 50295, Note_on_c, 2, 77, 51
1, 50302, Note_on_c, 2, 77, 0
1, 50302, Note_on_c, 2, 76, 51
1, 50313, Note_on_c, 2, 76, 0
1, 50317, Note_on_c, 2, 77, 52
1, 50328, Note_on_c, 2, 76, 53
1, 50335, Note_on_c, 2, 77, 0
1, 50350, Note_on_c, 2, 76, 0
1, 50350, Note_on_c, 2, 65, 57
1, 50350, Note_on_c, 2, 53, 68
1, 50373, Note_on_c, 2, 77, 70
1, 50391, Note_on_c, 2, 77, 0
1, 50395, Note_on_c, 2, 65, 0
1, 50395, Note_on_c, 2, 76, 68
1, 50406, Note_on_c, 2, 53, 0
1, 50414, Note_on_c, 2, 77, 59
1, 50421, Note_on_c, 2, 76, 0
1, 50432, Note_on_c, 2, 77, 0
1, 50436, Note_on_c, 2, 48, 63
1, 50436, Note_on_c, 2, 60, 60
1, 50454, Note_on_c, 2, 72, 70
1, 50472, Note_on_c, 2, 72, 0
1, 50476, Note_on_c, 2, 71, 65
1, 50491, Note_on_c, 2, 60, 0
1, 50498, Note_on_c, 2, 48, 0
1, 50498, Note_on_c, 2, 72, 60
1, 50502, Note_on_c, 2, 71, 0
1, 50513, Note_on_c, 2, 72, 0
1, 50520, Note_on_c, 2, 45, 68
1, 50521, Note_on_c, 2, 57, 60
1, 50543, Note_on_c, 2, 69, 62
1, 50561, Note_on_c, 2, 69, 0
1, 50562, Note_on_c, 2, 68, 68
1, 50565, Note_on_c, 2, 57, 0
1, 50572, Note_on_c, 2, 45, 0
1, 50587, Note_on_c, 2, 69, 60
1, 50591, Note_on_c, 2, 68, 0
1, 50602, Note_on_c, 2, 69, 0
1, 50606, Note_on_c, 2, 41, 68
1, 50610, Note_on_c, 2, 53, 66
1, 50632, Note_on_c, 2, 65, 79
1, 50647, Note_on_c, 2, 65, 0
1, 50647, Note_on_c, 2, 41, 0
1, 50654, Note_on_c, 2, 64, 34
1, 50662, Note_on_c, 2, 53, 0
1, 50676, Note_on_c, 2, 65, 50
1, 50680, Note_on_c, 2, 64, 0
1, 50688, Note_on_c, 2, 65, 0
1, 50713, Note_on_c, 2, 48, 54
1, 50717, Note_on_c, 2, 72, 65
1, 50736, Note_on_c, 2, 55, 47
1, 50762, Note_on_c, 2, 55, 0
1, 50762, Note_on_c, 2, 58, 53
1, 50780, Note_on_c, 2, 48, 0
1, 50780, Note_on_c, 2, 55, 50
1, 50802, Note_on_c, 2, 48, 51
1, 50806, Note_on_c, 2, 55, 0
1, 50806, Note_on_c, 2, 58, 0
1, 50821, Note_on_c, 2, 55, 45
1, 50843, Note_on_c, 2, 58, 55
1, 50847, Note_on_c, 2, 55, 0
1, 50847, Note_on_c, 2, 72, 0
1, 50847, Note_on_c, 2, 82, 65
1, 50865, Note_on_c, 2, 48, 0
1, 50866, Note_on_c, 2, 55, 53
1, 50873, Note_on_c, 2, 82, 0
1, 50873, Note_on_c, 2, 58, 0
1, 50888, Note_on_c, 2, 48, 56
1, 50888, Note_on_c, 2, 81, 68
1, 50891, Note_on_c, 2, 55, 0
1, 50906, Note_on_c, 2, 55, 53
1, 50928, Note_on_c, 2, 55, 0
1, 50928, Note_on_c, 2, 58, 54
1, 50932, Note_on_c, 2, 81, 0
1, 50932, Note_on_c, 2, 79, 57
1, 50951, Note_on_c, 2, 55, 50
1, 50954, Note_on_c, 2, 48, 0
1, 50958, Note_on_c, 2, 58, 0
1, 50969, Note_on_c, 2, 48, 57
1, 50973, Note_on_c, 2, 77, 56
1, 50976, Note_on_c, 2, 79, 0
1, 50976, Note_on_c, 2, 55, 0
1, 50992, Note_on_c, 2, 55, 47
1, 51014, Note_on_c, 2, 58, 48
1, 51017, Note_on_c, 2, 77, 0
1, 51018, Note_on_c, 2, 55, 0
1, 51018, Note_on_c, 2, 76, 49
1, 51040, Note_on_c, 2, 55, 41
1, 51043, Note_on_c, 2, 48, 0
1, 51054, Note_on_c, 2, 58, 0
1, 51058, Note_on_c, 2, 55, 0
1, 51065, Note_on_c, 2, 48, 49
1, 51069, Note_on_c, 2, 79, 47
1, 51073, Note_on_c, 2, 76, 0
1, 51088, Note_on_c, 2, 53, 55
1, 51110, Note_on_c, 2, 53, 0
1, 51110, Note_on_c, 2, 77, 51
1, 51111, Note_on_c, 2, 57, 66
1, 51113, Note_on_c, 2, 79, 0
1, 51124, Note_on_c, 2, 57, 0
1, 51128, Note_on_c, 2, 53, 54
1, 51136, Note_on_c, 2, 48, 0
1, 51151, Note_on_c, 2, 53, 0
1, 51154, Note_on_c, 2, 48, 63
1, 51173, Note_on_c, 2, 53, 55
1, 51192, Note_on_c, 2, 53, 0
1, 51195, Note_on_c, 2, 57, 63
1, 51199, Note_on_c, 2, 84, 45
1, 51206, Note_on_c, 2, 77, 0
1, 51218, Note_on_c, 2, 53, 42
1, 51221, Note_on_c, 2, 48, 0
1, 51240, Note_on_c, 2, 84, 0
1, 51240, Note_on_c, 2, 82, 62
1, 51240, Note_on_c, 2, 48, 63
1, 51244, Note_on_c, 2, 57, 0
1, 51244, Note_on_c, 2, 53, 0
1, 51258, Note_on_c, 2, 51, 45
1, 51277, Note_on_c, 2, 54, 48
1, 51277, Note_on_c, 2, 81, 55
1, 51280, Note_on_c, 2, 48, 0
1, 51284, Note_on_c, 2, 82, 0
1, 51284, Note_on_c, 2, 51, 0
1, 51299, Note_on_c, 2, 51, 54
1, 51310, Note_on_c, 2, 54, 0
1, 51317, Note_on_c, 2, 51, 0
1, 51321, Note_on_c, 2, 48, 47
1, 51321, Note_on_c, 2, 79, 62
1, 51325, Note_on_c, 2, 81, 0
1, 51340, Note_on_c, 2, 51, 39
1, 51347, Note_on_c, 2, 79, 0
1, 51366, Note_on_c, 2, 78, 65
1, 51366, Note_on_c, 2, 54, 45
1, 51369, Note_on_c, 2, 51, 0
1, 51377, Note_on_c, 2, 48, 0
1, 51381, Note_on_c, 2, 78, 0
1, 51384, Note_on_c, 2, 51, 47
1, 51399, Note_on_c, 2, 51, 0
1, 51399, Note_on_c, 2, 54, 0
1, 51414, Note_on_c, 2, 46, 65
1, 51414, Note_on_c, 2, 79, 66
1, 51432, Note_on_c, 2, 50, 52
1, 51451, Note_on_c, 2, 50, 0
1, 51454, Note_on_c, 2, 55, 54
1, 51473, Note_on_c, 2, 50, 49
1, 51477, Note_on_c, 2, 46, 0
1, 51492, Note_on_c, 2, 79, 0
1, 51492, Note_on_c, 2, 55, 0
1, 51492, Note_on_c, 2, 50, 0
1, 51496, Note_on_c, 2, 46, 59
1, 51499, Note_on_c, 2, 81, 63
1, 51514, Note_on_c, 2, 50, 52
1, 51521, Note_on_c, 2, 82, 40
1, 51525, Note_on_c, 2, 46, 0
1, 51528, Note_on_c, 2, 81, 0
1, 51540, Note_on_c, 2, 55, 50
1, 51547, Note_on_c, 2, 84, 60
1, 51551, Note_on_c, 2, 50, 0
1, 51551, Note_on_c, 2, 82, 0
1, 51562, Note_on_c, 2, 86, 53
1, 51565, Note_on_c, 2, 84, 0
1, 51573, Note_on_c, 2, 86, 0
1, 51577, Note_on_c, 2, 55, 0
1, 51580, Note_on_c, 2, 86, 70
1, 51584, Note_on_c, 2, 48, 63
1, 51603, Note_on_c, 2, 53, 51
1, 51604, Note_on_c, 2, 77, 79
1, 51606, Note_on_c, 2, 86, 0
1, 51614, Note_on_c, 2, 48, 0
1, 51621, Note_on_c, 2, 57, 57
1, 51632, Note_on_c, 2, 53, 0
1, 51643, Note_on_c, 2, 48, 40
1, 51650, Note_on_c, 2, 57, 0
1, 51651, Note_on_c, 2, 48, 0
1, 51654, Note_on_c, 2, 77, 0
1, 51665, Note_on_c, 2, 52, 59
1, 51666, Note_on_c, 2, 48, 55
1, 51666, Note_on_c, 2, 79, 79
1, 51666, Note_on_c, 2, 55, 55
1, 51677, Note_on_c, 2, 79, 0
1, 51677, Note_on_c, 2, 81, 53
1, 51688, Note_on_c, 2, 81, 0
1, 51688, Note_on_c, 2, 79, 56
1, 51692, Note_on_c, 2, 52, 0
1, 51695, Note_on_c, 2, 48, 0
1, 51699, Note_on_c, 2, 55, 0
1, 51699, Note_on_c, 2, 79, 0
1, 51699, Note_on_c, 2, 81, 56
1, 51706, Note_on_c, 2, 81, 0
1, 51706, Note_on_c, 2, 79, 46
1, 51717, Note_on_c, 2, 79, 0
1, 51717, Note_on_c, 2, 81, 56
1, 51733, Note_on_c, 2, 79, 32
1, 51736, Note_on_c, 2, 81, 0
1, 51754, Note_on_c, 2, 79, 0
1, 51754, Note_on_c, 2, 77, 55
1, 51754, Note_on_c, 2, 53, 62
1, 51756, Note_on_c, 2, 57, 60
1, 51799, Note_on_c, 2, 84, 62
1, 51810, Note_on_c, 2, 77, 0
1, 51822, Note_on_c, 2, 81, 55
1, 51828, Note_on_c, 2, 84, 0
1, 51840, Note_on_c, 2, 77, 70
1, 51858, Note_on_c, 2, 81, 0
1, 51862, Note_on_c, 2, 77, 0
1, 51862, Note_on_c, 2, 72, 63
1, 51873, Note_on_c, 2, 72, 0
1, 51884, Note_on_c, 2, 69, 44
1, 51903, Note_on_c, 2, 69, 0
1, 51903, Note_on_c, 2, 65, 56
1, 51910, Note_on_c, 2, 65, 0
1, 51925, Note_on_c, 2, 60, 66
1, 51925, Note_on_c, 2, 63, 96
1, 51933, Note_on_c, 2, 57, 0
1, 51936, Note_on_c, 2, 53, 0
1, 51965, Note_on_c, 2, 41, 63
1, 51965, Note_on_c, 2, 53, 56
1, 51976, Note_on_c, 2, 41, 0
1, 51977, Note_on_c, 2, 53, 0
1, 52007, Note_on_c, 2, 45, 65
1, 52007, Note_on_c, 2, 57, 54
1, 52017, Note_on_c, 2, 57, 0
1, 52017, Note_on_c, 2, 45, 0
1, 52051, Note_on_c, 2, 41, 66
1, 52051, Note_on_c, 2, 53, 57
1, 52058, Note_on_c, 2, 41, 0
1, 52062, Note_on_c, 2, 53, 0
1, 52076, Note_on_c, 2, 63, 0
1, 52084, Note_on_c, 2, 60, 0
1, 52095, Note_on_c, 2, 46, 59
1, 52095, Note_on_c, 2, 58, 65
1, 52141, Note_on_c, 2, 62, 59
1, 52166, Note_on_c, 2, 62, 0
1, 52184, Note_on_c, 2, 46, 0
1, 52184, Note_on_c, 2, 55, 56
1, 52188, Note_on_c, 2, 58, 0
1, 52225, Note_on_c, 2, 70, 51
1, 52226, Note_on_c, 2, 74, 56
1, 52269, Note_on_c, 2, 60, 65
1, 52314, Note_on_c, 2, 69, 49
1, 52315, Note_on_c, 2, 72, 55
1, 52318, Note_on_c, 2, 74, 0
1, 52318, Note_on_c, 2, 70, 0
1, 52322, Note_on_c, 2, 72, 0
1, 52325, Note_on_c, 2, 69, 0
1, 52351, Note_on_c, 2, 60, 0
1, 52354, Note_on_c, 2, 48, 55
1, 52381, Note_on_c, 2, 55, 0
1, 52396, Note_on_c, 2, 58, 45
1, 52396, Note_on_c, 2, 64, 59
1, 52406, Note_on_c, 2, 58, 0
1, 52410, Note_on_c, 2, 64, 0
1, 52440, Note_on_c, 2, 48, 0
1, 52444, Note_on_c, 2, 53, 55
1, 52444, Note_on_c, 2, 57, 52
1, 52488, Note_on_c, 2, 84, 62
1, 52507, Note_on_c, 2, 81, 56
1, 52529, Note_on_c, 2, 77, 56
1, 52532, Note_on_c, 2, 84, 0
1, 52544, Note_on_c, 2, 81, 0
1, 52551, Note_on_c, 2, 77, 0
1, 52551, Note_on_c, 2, 72, 66
1, 52562, Note_on_c, 2, 72, 0
1, 52573, Note_on_c, 2, 69, 40
1, 52592, Note_on_c, 2, 65, 56
1, 52596, Note_on_c, 2, 69, 0
1, 52600, Note_on_c, 2, 65, 0
1, 52614, Note_on_c, 2, 60, 68
1, 52618, Note_on_c, 2, 63, 100
1, 52625, Note_on_c, 2, 57, 0
1, 52629, Note_on_c, 2, 53, 0
1, 52655, Note_on_c, 2, 41, 65
1, 52655, Note_on_c, 2, 53, 60
1, 52666, Note_on_c, 2, 53, 0
1, 52666, Note_on_c, 2, 41, 0
1, 52700, Note_on_c, 2, 57, 55
1, 52700, Note_on_c, 2, 45, 66
1, 52706, Note_on_c, 2, 57, 0
1, 52710, Note_on_c, 2, 45, 0
1, 52740, Note_on_c, 2, 40, 54
1, 52741, Note_on_c, 2, 41, 49
1, 52741, Note_on_c, 2, 53, 55
1, 52747, Note_on_c, 2, 41, 0
1, 52747, Note_on_c, 2, 40, 0
1, 52751, Note_on_c, 2, 53, 0
1, 52780, Note_on_c, 2, 58, 47
1, 52781, Note_on_c, 2, 46, 56
1, 52784, Note_on_c, 2, 60, 0
1, 52788, Note_on_c, 2, 63, 0
1, 52825, Note_on_c, 2, 62, 55
1, 52862, Note_on_c, 2, 62, 0
1, 52862, Note_on_c, 2, 46, 0
1, 52866, Note_on_c, 2, 55, 56
1, 52870, Note_on_c, 2, 58, 0
1, 52907, Note_on_c, 2, 70, 47
1, 52907, Note_on_c, 2, 74, 55
1, 52952, Note_on_c, 2, 60, 55
1, 52992, Note_on_c, 2, 69, 45
1, 52992, Note_on_c, 2, 72, 56
1, 52995, Note_on_c, 2, 70, 0
1, 52996, Note_on_c, 2, 74, 0
1, 53003, Note_on_c, 2, 72, 0
1, 53007, Note_on_c, 2, 69, 0
1, 53033, Note_on_c, 2, 48, 54
1, 53036, Note_on_c, 2, 60, 0
1, 53040, Note_on_c, 2, 55, 0
1, 53052, Note_on_c, 2, 48, 0
1, 53074, Note_on_c, 2, 58, 35
1, 53074, Note_on_c, 2, 64, 47
1, 53088, Note_on_c, 2, 58, 0
1, 53092, Note_on_c, 2, 64, 0
1, 53118, Note_on_c, 2, 41, 56
1, 53119, Note_on_c, 2, 57, 54
1, 53119, Note_on_c, 2, 65, 59
1, 53137, Note_on_c, 2, 41, 0
1, 53137, Note_on_c, 2, 53, 60
1, 53159, Note_on_c, 2, 52, 56
1, 53162, Note_on_c, 2, 53, 0
1, 53170, Note_on_c, 2, 57, 0
1, 53177, Note_on_c, 2, 53, 57
1, 53181, Note_on_c, 2, 52, 0
1, 53196, Note_on_c, 2, 53, 0
1, 53196, Note_on_c, 2, 65, 0
1, 53200, Note_on_c, 2, 41, 65
1, 53214, Note_on_c, 2, 41, 0
1, 53218, Note_on_c, 2, 53, 55
1, 53240, Note_on_c, 2, 65, 54
1, 53240, Note_on_c, 2, 69, 48
1, 53240, Note_on_c, 2, 52, 60
1, 53244, Note_on_c, 2, 53, 0
1, 53259, Note_on_c, 2, 52, 0
1, 53259, Note_on_c, 2, 69, 0
1, 53259, Note_on_c, 2, 53, 54
1, 53262, Note_on_c, 2, 65, 0
1, 53277, Note_on_c, 2, 53, 0
1, 53281, Note_on_c, 2, 41, 63
1, 53285, Note_on_c, 2, 64, 48
1, 53285, Note_on_c, 2, 67, 53
1, 53296, Note_on_c, 2, 64, 0
1, 53296, Note_on_c, 2, 41, 0
1, 53300, Note_on_c, 2, 67, 0
1, 53300, Note_on_c, 2, 53, 55
1, 53322, Note_on_c, 2, 53, 0
1, 53322, Note_on_c, 2, 52, 56
1, 53322, Note_on_c, 2, 64, 53
1, 53322, Note_on_c, 2, 67, 56
1, 53344, Note_on_c, 2, 67, 0
1, 53344, Note_on_c, 2, 64, 0
1, 53344, Note_on_c, 2, 52, 0
1, 53344, Note_on_c, 2, 53, 56
1, 53362, Note_on_c, 2, 53, 0
1, 53362, Note_on_c, 2, 41, 59
1, 53381, Note_on_c, 2, 41, 0
1, 53385, Note_on_c, 2, 53, 59
1, 53407, Note_on_c, 2, 53, 0
1, 53407, Note_on_c, 2, 70, 54
1, 53407, Note_on_c, 2, 52, 55
1, 53407, Note_on_c, 2, 67, 54
1, 53421, Note_on_c, 2, 67, 0
1, 53425, Note_on_c, 2, 52, 0
1, 53425, Note_on_c, 2, 70, 0
1, 53425, Note_on_c, 2, 53, 55
1, 53440, Note_on_c, 2, 53, 0
1, 53444, Note_on_c, 2, 41, 60
1, 53448, Note_on_c, 2, 65, 54
1, 53448, Note_on_c, 2, 69, 56
1, 53462, Note_on_c, 2, 65, 0
1, 53462, Note_on_c, 2, 41, 0
1, 53463, Note_on_c, 2, 69, 0
1, 53463, Note_on_c, 2, 53, 60
1, 53488, Note_on_c, 2, 53, 0
1, 53488, Note_on_c, 2, 52, 56
1, 53489, Note_on_c, 2, 69, 56
1, 53489, Note_on_c, 2, 65, 53
1, 53510, Note_on_c, 2, 65, 0
1, 53514, Note_on_c, 2, 69, 0
1, 53514, Note_on_c, 2, 52, 0
1, 53514, Note_on_c, 2, 53, 57
1, 53529, Note_on_c, 2, 53, 0
1, 53533, Note_on_c, 2, 41, 60
1, 53547, Note_on_c, 2, 41, 0
1, 53551, Note_on_c, 2, 53, 56
1, 53574, Note_on_c, 2, 52, 56
1, 53574, Note_on_c, 2, 77, 46
1, 53574, Note_on_c, 2, 81, 48
1, 53578, Note_on_c, 2, 53, 0
1, 53596, Note_on_c, 2, 52, 0
1, 53596, Note_on_c, 2, 77, 0
1, 53596, Note_on_c, 2, 81, 0
1, 53596, Note_on_c, 2, 53, 53
1, 53614, Note_on_c, 2, 53, 0
1, 53614, Note_on_c, 2, 41, 62
1, 53618, Note_on_c, 2, 76, 52
1, 53618, Note_on_c, 2, 79, 59
1, 53630, Note_on_c, 2, 76, 0
1, 53633, Note_on_c, 2, 79, 0
1, 53633, Note_on_c, 2, 41, 0
1, 53637, Note_on_c, 2, 53, 47
1, 53659, Note_on_c, 2, 52, 40
1, 53662, Note_on_c, 2, 79, 63
1, 53662, Note_on_c, 2, 76, 55
1, 53670, Note_on_c, 2, 53, 0
1, 53673, Note_on_c, 2, 76, 0
1, 53677, Note_on_c, 2, 79, 0
1, 53681, Note_on_c, 2, 53, 47
1, 53684, Note_on_c, 2, 52, 0
1, 53699, Note_on_c, 2, 53, 0
1, 53700, Note_on_c, 2, 41, 47
1, 53718, Note_on_c, 2, 41, 0
1, 53722, Note_on_c, 2, 53, 42
1, 53744, Note_on_c, 2, 52, 47
1, 53745, Note_on_c, 2, 76, 50
1, 53745, Note_on_c, 2, 79, 46
1, 53745, Note_on_c, 2, 82, 45
1, 53748, Note_on_c, 2, 53, 0
1, 53755, Note_on_c, 2, 79, 0
1, 53759, Note_on_c, 2, 52, 0
1, 53759, Note_on_c, 2, 76, 0
1, 53759, Note_on_c, 2, 82, 0
1, 53800, Note_on_c, 2, 41, 54
1, 53800, Note_on_c, 2, 53, 54
1, 53800, Note_on_c, 2, 76, 57
1, 53800, Note_on_c, 2, 79, 62
1, 53800, Note_on_c, 2, 82, 56
1, 53957, Note_on_c, 2, 79, 0
1, 53962, Note_on_c, 2, 82, 0
1, 53974, Note_on_c, 2, 41, 0
1, 53978, Note_on_c, 2, 76, 0
1, 53989, Note_on_c, 2, 53, 0
1, 54066, Note_on_c, 2, 77, 40
1, 54066, Note_on_c, 2, 81, 40
1, 54174, Note_on_c, 2, 81, 0
1, 54174, Note_on_c, 2, 77, 0
1, 54396, Note_on_c, 2, 71, 33
1, 54411, Note_on_c, 2, 72, 45
1, 54418, Note_on_c, 2, 71, 0
1, 54426, Note_on_c, 2, 74, 47
1, 54430, Note_on_c, 2, 72, 0
1, 54440, Note_on_c, 2, 72, 52
1, 54444, Note_on_c, 2, 74, 0
1, 54445, Note_on_c, 2, 65, 45
1, 54467, Note_on_c, 2, 65, 0
1, 54467, Note_on_c, 2, 69, 54
1, 54485, Note_on_c, 2, 69, 0
1, 54485, Note_on_c, 2, 68, 56
1, 54500, Note_on_c, 2, 68, 0
1, 54504, Note_on_c, 2, 69, 51
1, 54518, Note_on_c, 2, 69, 0
1, 54522, Note_on_c, 2, 65, 49
1, 54537, Note_on_c, 2, 65, 0
1, 54540, Note_on_c, 2, 69, 43
1, 54559, Note_on_c, 2, 69, 0
1, 54560, Note_on_c, 2, 68, 54
1, 54578, Note_on_c, 2, 68, 0
1, 54578, Note_on_c, 2, 69, 50
1, 54596, Note_on_c, 2, 69, 0
1, 54600, Note_on_c, 2, 65, 45
1, 54604, Note_on_c, 2, 72, 0
1, 54618, Note_on_c, 2, 65, 0
1, 54622, Note_on_c, 2, 69, 35
1, 54640, Note_on_c, 2, 77, 46
1, 54641, Note_on_c, 2, 68, 54
1, 54644, Note_on_c, 2, 69, 0
1, 54659, Note_on_c, 2, 68, 0
1, 54663, Note_on_c, 2, 69, 45
1, 54677, Note_on_c, 2, 69, 0
1, 54678, Note_on_c, 2, 65, 52
1, 54681, Note_on_c, 2, 76, 49
1, 54685, Note_on_c, 2, 77, 0
1, 54696, Note_on_c, 2, 65, 0
1, 54700, Note_on_c, 2, 69, 44
1, 54718, Note_on_c, 2, 68, 54
1, 54722, Note_on_c, 2, 69, 0
1, 54722, Note_on_c, 2, 74, 42
1, 54726, Note_on_c, 2, 76, 0
1, 54737, Note_on_c, 2, 74, 0
1, 54740, Note_on_c, 2, 68, 0
1, 54740, Note_on_c, 2, 69, 54
1, 54755, Note_on_c, 2, 69, 0
1, 54763, Note_on_c, 2, 74, 47
1, 54763, Note_on_c, 2, 64, 52
1, 54774, Note_on_c, 2, 76, 53
1, 54778, Note_on_c, 2, 74, 0
1, 54778, Note_on_c, 2, 67, 39
1, 54781, Note_on_c, 2, 64, 0
1, 54785, Note_on_c, 2, 74, 47
1, 54792, Note_on_c, 2, 76, 0
1, 54796, Note_on_c, 2, 72, 49
1, 54801, Note_on_c, 2, 66, 48
1, 54804, Note_on_c, 2, 74, 0
1, 54804, Note_on_c, 2, 67, 0
1, 54818, Note_on_c, 2, 66, 0
1, 54819, Note_on_c, 2, 67, 46
1, 54837, Note_on_c, 2, 67, 0
1, 54837, Note_on_c, 2, 64, 49
1, 54855, Note_on_c, 2, 64, 0
1, 54856, Note_on_c, 2, 72, 0
1, 54859, Note_on_c, 2, 67, 47
1, 54878, Note_on_c, 2, 66, 56
1, 54878, Note_on_c, 2, 72, 55
1, 54882, Note_on_c, 2, 67, 0
1, 54896, Note_on_c, 2, 66, 0
1, 54897, Note_on_c, 2, 67, 45
1, 54911, Note_on_c, 2, 67, 0
1, 54911, Note_on_c, 2, 64, 45
1, 54919, Note_on_c, 2, 72, 0
1, 54922, Note_on_c, 2, 71, 62
1, 54934, Note_on_c, 2, 64, 0
1, 54934, Note_on_c, 2, 67, 46
1, 54952, Note_on_c, 2, 72, 49
1, 54956, Note_on_c, 2, 67, 0
1, 54956, Note_on_c, 2, 71, 0
1, 54956, Note_on_c, 2, 66, 62
1, 54970, Note_on_c, 2, 66, 0
1, 54970, Note_on_c, 2, 67, 52
1, 54989, Note_on_c, 2, 67, 0
1, 54989, Note_on_c, 2, 74, 55
1, 54989, Note_on_c, 2, 64, 57
1, 54992, Note_on_c, 2, 72, 0
1, 55007, Note_on_c, 2, 64, 0
1, 55007, Note_on_c, 2, 67, 55
1, 55030, Note_on_c, 2, 67, 0
1, 55030, Note_on_c, 2, 66, 63
1, 55030, Note_on_c, 2, 72, 68
1, 55037, Note_on_c, 2, 74, 0
1, 55041, Note_on_c, 2, 72, 0
1, 55045, Note_on_c, 2, 66, 0
1, 55048, Note_on_c, 2, 67, 48
1, 55063, Note_on_c, 2, 67, 0
1, 55070, Note_on_c, 2, 72, 66
1, 55070, Note_on_c, 2, 62, 56
1, 55078, Note_on_c, 2, 74, 54
1, 55082, Note_on_c, 2, 72, 0
1, 55089, Note_on_c, 2, 72, 62
1, 55093, Note_on_c, 2, 62, 0
1, 55093, Note_on_c, 2, 65, 53
1, 55096, Note_on_c, 2, 74, 0
1, 55107, Note_on_c, 2, 70, 62
1, 55107, Note_on_c, 2, 64, 46
1, 55111, Note_on_c, 2, 72, 0
1, 55115, Note_on_c, 2, 65, 0
1, 55122, Note_on_c, 2, 70, 0
1, 55122, Note_on_c, 2, 64, 0
1, 55126, Note_on_c, 2, 65, 50
1, 55145, Note_on_c, 2, 65, 0
1, 55148, Note_on_c, 2, 62, 41
1, 55148, Note_on_c, 2, 70, 68
1, 55163, Note_on_c, 2, 70, 0
1, 55163, Note_on_c, 2, 62, 0
1, 55167, Note_on_c, 2, 65, 45
1, 55186, Note_on_c, 2, 70, 65
1, 55186, Note_on_c, 2, 64, 54
1, 55189, Note_on_c, 2, 65, 0
1, 55196, Note_on_c, 2, 64, 0
1, 55196, Note_on_c, 2, 70, 0
1, 55200, Note_on_c, 2, 65, 46
1, 55215, Note_on_c, 2, 65, 0
1, 55219, Note_on_c, 2, 60, 57
1, 55220, Note_on_c, 2, 70, 70
1, 55230, Note_on_c, 2, 70, 0
1, 55234, Note_on_c, 2, 72, 57
1, 55245, Note_on_c, 2, 70, 65
1, 55248, Note_on_c, 2, 72, 0
1, 55248, Note_on_c, 2, 60, 0
1, 55248, Note_on_c, 2, 64, 56
1, 55256, Note_on_c, 2, 69, 60
1, 55263, Note_on_c, 2, 70, 0
1, 55263, Note_on_c, 2, 62, 46
1, 55274, Note_on_c, 2, 69, 0
1, 55274, Note_on_c, 2, 64, 0
1, 55275, Note_on_c, 2, 62, 0
1, 55293, Note_on_c, 2, 60, 40
1, 55296, Note_on_c, 2, 69, 46
1, 55307, Note_on_c, 2, 60, 0
1, 55311, Note_on_c, 2, 69, 0
1, 55315, Note_on_c, 2, 64, 36
1, 55330, Note_on_c, 2, 64, 0
1, 55333, Note_on_c, 2, 62, 54
1, 55337, Note_on_c, 2, 69, 50
1, 55344, Note_on_c, 2, 62, 0
1, 55348, Note_on_c, 2, 69, 0
1, 55348, Note_on_c, 2, 64, 38
1, 55366, Note_on_c, 2, 64, 0
1, 55374, Note_on_c, 2, 58, 57
1, 55374, Note_on_c, 2, 69, 42
1, 55389, Note_on_c, 2, 70, 55
1, 55393, Note_on_c, 2, 58, 0
1, 55393, Note_on_c, 2, 62, 52
1, 55396, Note_on_c, 2, 69, 0
1, 55408, Note_on_c, 2, 67, 63
1, 55411, Note_on_c, 2, 70, 0
1, 55411, Note_on_c, 2, 60, 46
1, 55422, Note_on_c, 2, 60, 0
1, 55444, Note_on_c, 2, 62, 0
1, 55444, Note_on_c, 2, 58, 59
1, 55448, Note_on_c, 2, 70, 65
1, 55456, Note_on_c, 2, 67, 0
1, 55463, Note_on_c, 2, 58, 0
1, 55463, Note_on_c, 2, 62, 53
1, 55486, Note_on_c, 2, 70, 0
1, 55486, Note_on_c, 2, 60, 39
1, 55486, Note_on_c, 2, 67, 62
1, 55492, Note_on_c, 2, 60, 0
1, 55504, Note_on_c, 2, 62, 0
1, 55507, Note_on_c, 2, 67, 0
1, 55526, Note_on_c, 2, 57, 56
1, 55530, Note_on_c, 2, 64, 60
1, 55545, Note_on_c, 2, 57, 0
1, 55548, Note_on_c, 2, 60, 54
1, 55567, Note_on_c, 2, 60, 0
1, 55567, Note_on_c, 2, 57, 56
1, 55567, Note_on_c, 2, 65, 53
1, 55570, Note_on_c, 2, 64, 0
1, 55585, Note_on_c, 2, 57, 0
1, 55585, Note_on_c, 2, 60, 53
1, 55604, Note_on_c, 2, 60, 0
1, 55608, Note_on_c, 2, 57, 52
1, 55619, Note_on_c, 2, 57, 0
1, 55641, Note_on_c, 2, 65, 0
1, 55671, Note_on_c, 2, 57, 53
1, 55674, Note_on_c, 2, 60, 46
1, 55693, Note_on_c, 2, 65, 29
1, 55693, Note_on_c, 2, 64, 20
1, 55700, Note_on_c, 2, 64, 0
1, 55700, Note_on_c, 2, 67, 52
1, 55708, Note_on_c, 2, 65, 0
1, 55718, Note_on_c, 2, 67, 0
1, 55719, Note_on_c, 2, 65, 63
1, 55737, Note_on_c, 2, 67, 52
1, 55741, Note_on_c, 2, 65, 0
1, 55760, Note_on_c, 2, 67, 0
1, 55760, Note_on_c, 2, 65, 55
1, 55778, Note_on_c, 2, 67, 49
1, 55782, Note_on_c, 2, 65, 0
1, 55782, Note_on_c, 2, 57, 0
1, 55800, Note_on_c, 2, 67, 0
1, 55800, Note_on_c, 2, 69, 46
1, 55808, Note_on_c, 2, 60, 0
1, 55826, Note_on_c, 2, 69, 0
1, 55826, Note_on_c, 2, 58, 48
1, 55826, Note_on_c, 2, 60, 53
1, 55826, Note_on_c, 2, 65, 44
1, 55845, Note_on_c, 2, 64, 49
1, 55852, Note_on_c, 2, 65, 0
1, 55871, Note_on_c, 2, 67, 46
1, 55878, Note_on_c, 2, 64, 0
1, 55893, Note_on_c, 2, 65, 49
1, 55900, Note_on_c, 2, 67, 0
1, 55919, Note_on_c, 2, 65, 0
1, 55919, Note_on_c, 2, 64, 54
1, 55938, Note_on_c, 2, 58, 0
1, 55941, Note_on_c, 2, 70, 39
1, 55945, Note_on_c, 2, 60, 0
1, 55967, Note_on_c, 2, 57, 50
1, 55967, Note_on_c, 2, 60, 52
1, 55967, Note_on_c, 2, 67, 44
1, 55974, Note_on_c, 2, 70, 0
1, 55993, Note_on_c, 2, 65, 43
1, 55997, Note_on_c, 2, 67, 0
1, 56019, Note_on_c, 2, 69, 46
1, 56023, Note_on_c, 2, 64, 0
1, 56023, Note_on_c, 2, 65, 0
1, 56045, Note_on_c, 2, 67, 53
1, 56048, Note_on_c, 2, 69, 0
1, 56068, Note_on_c, 2, 65, 56
1, 56074, Note_on_c, 2, 67, 0
1, 56093, Note_on_c, 2, 72, 54
1, 56119, Note_on_c, 2, 69, 57
1, 56123, Note_on_c, 2, 72, 0
1, 56156, Note_on_c, 2, 60, 0
1, 56163, Note_on_c, 2, 57, 0
1, 56234, Note_on_c, 2, 65, 0
1, 56256, Note_on_c, 2, 69, 0
1, 56271, Note_on_c, 2, 46, 35
1, 56278, Note_on_c, 2, 50, 42
1, 56290, Note_on_c, 2, 55, 38
1, 56293, Note_on_c, 2, 67, 62
1, 56312, Note_on_c, 2, 70, 42
1, 56334, Note_on_c, 2, 67, 0
1, 56338, Note_on_c, 2, 70, 0
1, 56338, Note_on_c, 2, 74, 60
1, 56345, Note_on_c, 2, 74, 0
1, 56364, Note_on_c, 2, 79, 59
1, 56389, Note_on_c, 2, 82, 63
1, 56393, Note_on_c, 2, 50, 0
1, 56393, Note_on_c, 2, 46, 0
1, 56404, Note_on_c, 2, 79, 0
1, 56408, Note_on_c, 2, 55, 0
1, 56412, Note_on_c, 2, 82, 0
1, 56412, Note_on_c, 2, 86, 52
1, 56426, Note_on_c, 2, 86, 0
1, 56438, Note_on_c, 2, 48, 55
1, 56438, Note_on_c, 2, 57, 49
1, 56438, Note_on_c, 2, 86, 55
1, 56460, Note_on_c, 2, 84, 52
1, 56464, Note_on_c, 2, 86, 0
1, 56474, Note_on_c, 2, 57, 0
1, 56482, Note_on_c, 2, 48, 0
1, 56486, Note_on_c, 2, 84, 0
1, 56486, Note_on_c, 2, 82, 65
1, 56500, Note_on_c, 2, 81, 66
1, 56508, Note_on_c, 2, 82, 0
1, 56512, Note_on_c, 2, 81, 0
1, 56520, Note_on_c, 2, 58, 45
1, 56522, Note_on_c, 2, 48, 55
1, 56523, Note_on_c, 2, 81, 57
1, 56538, Note_on_c, 2, 79, 66
1, 56542, Note_on_c, 2, 81, 0
1, 56552, Note_on_c, 2, 58, 0
1, 56560, Note_on_c, 2, 48, 0
1, 56560, Note_on_c, 2, 77, 62
1, 56567, Note_on_c, 2, 79, 0
1, 56582, Note_on_c, 2, 76, 65
1, 56586, Note_on_c, 2, 77, 0
1, 56604, Note_on_c, 2, 41, 60
1, 56608, Note_on_c, 2, 76, 0
1, 56608, Note_on_c, 2, 77, 70
1, 56630, Note_on_c, 2, 43, 55
1, 56641, Note_on_c, 2, 41, 0
1, 56656, Note_on_c, 2, 45, 68
1, 56664, Note_on_c, 2, 43, 0
1, 56678, Note_on_c, 2, 46, 72
1, 56686, Note_on_c, 2, 45, 0
1, 56704, Note_on_c, 2, 48, 65
1, 56708, Note_on_c, 2, 46, 0
1, 56730, Note_on_c, 2, 50, 63
1, 56734, Note_on_c, 2, 48, 0
1, 56753, Note_on_c, 2, 51, 66
1, 56756, Note_on_c, 2, 50, 0
1, 56779, Note_on_c, 2, 51, 0
1, 56779, Note_on_c, 2, 50, 65
1, 56801, Note_on_c, 2, 48, 53
1, 56808, Note_on_c, 2, 50, 0
1, 56826, Note_on_c, 2, 46, 66
1, 56830, Note_on_c, 2, 48, 0
1, 56848, Note_on_c, 2, 46, 0
1, 56849, Note_on_c, 2, 45, 48
1, 56874, Note_on_c, 2, 43, 56
1, 56878, Note_on_c, 2, 45, 0
1, 56893, Note_on_c, 2, 77, 0
1, 56901, Note_on_c, 2, 42, 68
1, 56904, Note_on_c, 2, 43, 0
1, 56926, Note_on_c, 2, 81, 59
1, 56941, Note_on_c, 2, 42, 0
1, 56949, Note_on_c, 2, 82, 55
1, 56960, Note_on_c, 2, 81, 0
1, 56975, Note_on_c, 2, 84, 60
1, 56978, Note_on_c, 2, 82, 0
1, 56997, Note_on_c, 2, 84, 0
1, 57001, Note_on_c, 2, 78, 63
1, 57026, Note_on_c, 2, 79, 51
1, 57034, Note_on_c, 2, 78, 0
1, 57049, Note_on_c, 2, 81, 55
1, 57052, Note_on_c, 2, 79, 0
1, 57071, Note_on_c, 2, 81, 0
1, 57071, Note_on_c, 2, 72, 59
1, 57097, Note_on_c, 2, 74, 45
1, 57119, Note_on_c, 2, 72, 0
1, 57119, Note_on_c, 2, 75, 44
1, 57123, Note_on_c, 2, 74, 0
1, 57145, Note_on_c, 2, 75, 0
1, 57148, Note_on_c, 2, 69, 59
1, 57172, Note_on_c, 2, 72, 59
1, 57178, Note_on_c, 2, 69, 0
1, 57197, Note_on_c, 2, 43, 54
1, 57198, Note_on_c, 2, 70, 70
1, 57205, Note_on_c, 2, 72, 0
1, 57223, Note_on_c, 2, 46, 65
1, 57238, Note_on_c, 2, 43, 0
1, 57250, Note_on_c, 0, 48, 100
1, 57252, Note_on_c, 2, 46, 0
1, 57274, Note_on_c, 2, 50, 72
1, 57280, Note_on_c, 0, 48, 0
1, 57293, Note_on_c, 2, 53, 70
1, 57295, Note_on_c, 2, 50, 0
1, 57319, Note_on_c, 2, 53, 0
1, 57319, Note_on_c, 2, 55, 66
1, 57342, Note_on_c, 2, 56, 70
1, 57348, Note_on_c, 2, 55, 0
1, 57363, Note_on_c, 2, 56, 0
1, 57364, Note_on_c, 2, 55, 54
1, 57390, Note_on_c, 2, 53, 51
1, 57393, Note_on_c, 2, 55, 0
1, 57416, Note_on_c, 2, 51, 65
1, 57420, Note_on_c, 2, 53, 0
1, 57434, Note_on_c, 2, 51, 0
1, 57434, Note_on_c, 2, 50, 55
1, 57460, Note_on_c, 2, 48, 50
1, 57464, Note_on_c, 2, 50, 0
1, 57467, Note_on_c, 2, 70, 0
1, 57486, Note_on_c, 2, 47, 66
1, 57490, Note_on_c, 2, 48, 0
1, 57512, Note_on_c, 2, 74, 54
1, 57534, Note_on_c, 2, 47, 0
1, 57538, Note_on_c, 2, 75, 45
1, 57549, Note_on_c, 2, 74, 0
1, 57560, Note_on_c, 2, 77, 52
1, 57564, Note_on_c, 2, 75, 0
1, 57586, Note_on_c, 2, 77, 0
1, 57586, Note_on_c, 2, 71, 48
1, 57608, Note_on_c, 2, 72, 47
1, 57635, Note_on_c, 2, 74, 54
1, 57638, Note_on_c, 2, 71, 0
1, 57642, Note_on_c, 2, 72, 0
1, 57660, Note_on_c, 2, 74, 0
1, 57660, Note_on_c, 2, 65, 65
1, 57686, Note_on_c, 2, 67, 47
1, 57708, Note_on_c, 2, 65, 0
1, 57708, Note_on_c, 2, 68, 46
1, 57712, Note_on_c, 2, 67, 0
1, 57734, Note_on_c, 2, 68, 0
1, 57735, Note_on_c, 2, 62, 54
1, 57760, Note_on_c, 2, 65, 52
1, 57783, Note_on_c, 2, 48, 63
1, 57783, Note_on_c, 2, 64, 83
1, 57786, Note_on_c, 2, 62, 0
1, 57790, Note_on_c, 2, 65, 0
1, 57808, Note_on_c, 2, 50, 57
1, 57812, Note_on_c, 2, 48, 0
1, 57831, Note_on_c, 2, 52, 79
1, 57838, Note_on_c, 2, 50, 0
1, 57853, Note_on_c, 2, 53, 79
1, 57864, Note_on_c, 2, 52, 0
1, 57879, Note_on_c, 2, 53, 0
1, 57879, Note_on_c, 2, 55, 66
1, 57901, Note_on_c, 2, 57, 62
1, 57905, Note_on_c, 2, 55, 0
1, 57916, Note_on_c, 2, 57, 0
1, 57927, Note_on_c, 2, 58, 63
1, 57949, Note_on_c, 2, 58, 0
1, 57950, Note_on_c, 2, 57, 53
1, 57976, Note_on_c, 2, 55, 54
1, 57978, Note_on_c, 2, 57, 0
1, 57998, Note_on_c, 2, 53, 53
1, 58005, Note_on_c, 2, 55, 0
1, 58020, Note_on_c, 2, 52, 46
1, 58030, Note_on_c, 2, 53, 0
1, 58038, Note_on_c, 2, 64, 0
1, 58045, Note_on_c, 2, 50, 43
1, 58053, Note_on_c, 2, 52, 0
1, 58056, Note_on_c, 2, 50, 0
1, 58078, Note_on_c, 2, 49, 59
1, 58101, Note_on_c, 2, 82, 39
1, 58101, Note_on_c, 2, 79, 40
1, 58119, Note_on_c, 2, 82, 0
1, 58123, Note_on_c, 2, 81, 62
1, 58131, Note_on_c, 2, 79, 0
1, 58149, Note_on_c, 2, 82, 56
1, 58153, Note_on_c, 2, 81, 0
1, 58171, Note_on_c, 2, 82, 0
1, 58175, Note_on_c, 2, 81, 53
1, 58198, Note_on_c, 2, 82, 56
1, 58201, Note_on_c, 2, 81, 0
1, 58208, Note_on_c, 2, 82, 0
1, 58224, Note_on_c, 2, 61, 59
1, 58227, Note_on_c, 2, 49, 0
1, 58246, Note_on_c, 2, 67, 53
1, 58246, Note_on_c, 2, 70, 66
1, 58268, Note_on_c, 2, 69, 63
1, 58271, Note_on_c, 2, 70, 0
1, 58278, Note_on_c, 2, 67, 0
1, 58294, Note_on_c, 2, 70, 65
1, 58297, Note_on_c, 2, 69, 0
1, 58312, Note_on_c, 2, 61, 0
1, 58316, Note_on_c, 2, 70, 0
1, 58316, Note_on_c, 2, 69, 46
1, 58338, Note_on_c, 2, 70, 53
1, 58346, Note_on_c, 2, 69, 0
1, 58364, Note_on_c, 2, 70, 0
1, 58364, Note_on_c, 2, 69, 57
1, 58368, Note_on_c, 2, 62, 54
1, 58368, Note_on_c, 2, 66, 56
1, 58382, Note_on_c, 2, 62, 0
1, 58394, Note_on_c, 2, 66, 0
1, 58401, Note_on_c, 2, 69, 0
1, 58457, Note_on_c, 2, 75, 65
1, 58457, Note_on_c, 2, 69, 62
1, 58457, Note_on_c, 2, 66, 54
1, 58457, Note_on_c, 2, 60, 55
1, 58457, Note_on_c, 2, 48, 59
1, 58598, Note_on_c, 2, 69, 0
1, 58601, Note_on_c, 2, 66, 0
1, 58612, Note_on_c, 2, 48, 0
1, 58612, Note_on_c, 2, 75, 0
1, 58616, Note_on_c, 2, 60, 0
1, 58790, Note_on_c, 2, 46, 37
1, 58790, Note_on_c, 2, 58, 34
1, 58790, Note_on_c, 2, 74, 40
1, 58809, Note_on_c, 2, 79, 46
1, 58816, Note_on_c, 2, 74, 0
1, 58835, Note_on_c, 2, 78, 45
1, 58838, Note_on_c, 2, 79, 0
1, 58857, Note_on_c, 2, 79, 40
1, 58868, Note_on_c, 2, 78, 0
1, 58879, Note_on_c, 2, 79, 0
1, 58880, Note_on_c, 2, 81, 42
1, 58898, Note_on_c, 2, 79, 53
1, 58905, Note_on_c, 2, 81, 0
1, 58912, Note_on_c, 2, 79, 0
1, 58912, Note_on_c, 2, 78, 51
1, 58931, Note_on_c, 2, 79, 47
1, 58934, Note_on_c, 2, 78, 0
1, 58957, Note_on_c, 2, 82, 59
1, 58960, Note_on_c, 2, 79, 0
1, 58975, Note_on_c, 2, 82, 0
1, 58975, Note_on_c, 2, 79, 39
1, 58983, Note_on_c, 2, 46, 0
1, 58994, Note_on_c, 2, 79, 0
1, 58994, Note_on_c, 2, 78, 39
1, 58997, Note_on_c, 2, 58, 0
1, 59016, Note_on_c, 2, 79, 38
1, 59020, Note_on_c, 2, 78, 0
1, 59039, Note_on_c, 2, 48, 48
1, 59040, Note_on_c, 2, 60, 45
1, 59042, Note_on_c, 2, 79, 0
1, 59042, Note_on_c, 2, 81, 45
1, 59061, Note_on_c, 2, 79, 43
1, 59064, Note_on_c, 2, 81, 0
1, 59079, Note_on_c, 2, 60, 0
1, 59079, Note_on_c, 2, 78, 40
1, 59083, Note_on_c, 2, 48, 0
1, 59083, Note_on_c, 2, 79, 0
1, 59102, Note_on_c, 2, 79, 32
1, 59105, Note_on_c, 2, 78, 0
1, 59124, Note_on_c, 2, 58, 44
1, 59124, Note_on_c, 2, 46, 50
1, 59128, Note_on_c, 2, 79, 0
1, 59128, Note_on_c, 2, 74, 53
1, 59142, Note_on_c, 2, 79, 49
1, 59157, Note_on_c, 2, 74, 0
1, 59165, Note_on_c, 2, 78, 49
1, 59168, Note_on_c, 2, 79, 0
1, 59186, Note_on_c, 2, 79, 48
1, 59190, Note_on_c, 2, 78, 0
1, 59209, Note_on_c, 2, 81, 50
1, 59216, Note_on_c, 2, 79, 0
1, 59231, Note_on_c, 2, 79, 45
1, 59238, Note_on_c, 2, 81, 0
1, 59253, Note_on_c, 2, 78, 53
1, 59257, Note_on_c, 2, 79, 0
1, 59276, Note_on_c, 2, 79, 45
1, 59283, Note_on_c, 2, 78, 0
1, 59298, Note_on_c, 2, 82, 60
1, 59305, Note_on_c, 2, 79, 0
1, 59316, Note_on_c, 2, 46, 0
1, 59320, Note_on_c, 2, 79, 44
1, 59324, Note_on_c, 2, 82, 0
1, 59331, Note_on_c, 2, 58, 0
1, 59342, Note_on_c, 2, 79, 0
1, 59342, Note_on_c, 2, 78, 47
1, 59364, Note_on_c, 2, 79, 41
1, 59376, Note_on_c, 2, 78, 0
1, 59386, Note_on_c, 2, 51, 54
1, 59386, Note_on_c, 2, 63, 60
1, 59388, Note_on_c, 2, 72, 65
1, 59390, Note_on_c, 2, 79, 0
1, 59409, Note_on_c, 2, 79, 56
1, 59413, Note_on_c, 2, 51, 0
1, 59420, Note_on_c, 2, 63, 0
1, 59424, Note_on_c, 2, 72, 0
1, 59431, Note_on_c, 2, 79, 0
1, 59431, Note_on_c, 2, 78, 50
1, 59453, Note_on_c, 2, 78, 0
1, 59453, Note_on_c, 2, 79, 44
1, 59464, Note_on_c, 2, 79, 0
1, 59476, Note_on_c, 2, 62, 49
1, 59479, Note_on_c, 2, 70, 66
1, 59498, Note_on_c, 2, 67, 54
1, 59517, Note_on_c, 2, 66, 65
1, 59520, Note_on_c, 2, 67, 0
1, 59520, Note_on_c, 2, 82, 55
1, 59527, Note_on_c, 2, 70, 0
1, 59531, Note_on_c, 2, 62, 0
1, 59538, Note_on_c, 2, 67, 55
1, 59546, Note_on_c, 2, 66, 0
1, 59557, Note_on_c, 2, 67, 0
1, 59557, Note_on_c, 2, 82, 0
1, 59561, Note_on_c, 2, 62, 55
1, 59562, Note_on_c, 2, 71, 65
1, 59580, Note_on_c, 2, 67, 53
1, 59601, Note_on_c, 2, 67, 0
1, 59602, Note_on_c, 2, 66, 56
1, 59602, Note_on_c, 2, 83, 57
1, 59606, Note_on_c, 2, 71, 0
1, 59620, Note_on_c, 2, 62, 0
1, 59624, Note_on_c, 2, 67, 46
1, 59634, Note_on_c, 2, 66, 0
1, 59642, Note_on_c, 2, 83, 0
1, 59642, Note_on_c, 2, 72, 60
1, 59646, Note_on_c, 2, 60, 62
1, 59650, Note_on_c, 2, 67, 0
1, 59668, Note_on_c, 2, 67, 45
1, 59687, Note_on_c, 2, 75, 63
1, 59691, Note_on_c, 2, 66, 48
1, 59694, Note_on_c, 2, 67, 0
1, 59694, Note_on_c, 2, 72, 0
1, 59709, Note_on_c, 2, 67, 54
1, 59712, Note_on_c, 2, 60, 0
1, 59713, Note_on_c, 2, 66, 0
1, 59727, Note_on_c, 2, 60, 63
1, 59735, Note_on_c, 2, 67, 0
1, 59750, Note_on_c, 2, 66, 42
1, 59768, Note_on_c, 2, 74, 52
1, 59772, Note_on_c, 2, 60, 0
1, 59772, Note_on_c, 2, 75, 0
1, 59772, Note_on_c, 2, 67, 47
1, 59790, Note_on_c, 2, 66, 0
1, 59791, Note_on_c, 2, 74, 0
1, 59791, Note_on_c, 2, 72, 63
1, 59802, Note_on_c, 2, 67, 0
1, 59805, Note_on_c, 2, 72, 0
1, 59805, Note_on_c, 2, 60, 62
1, 59809, Note_on_c, 2, 75, 68
1, 59820, Note_on_c, 2, 75, 0
1, 59820, Note_on_c, 2, 77, 49
1, 59827, Note_on_c, 2, 66, 48
1, 59831, Note_on_c, 2, 75, 45
1, 59835, Note_on_c, 2, 77, 0
1, 59842, Note_on_c, 2, 75, 0
1, 59842, Note_on_c, 2, 77, 55
1, 59853, Note_on_c, 2, 75, 55
1, 59857, Note_on_c, 2, 77, 0
1, 59857, Note_on_c, 2, 67, 39
1, 59861, Note_on_c, 2, 60, 0
1, 59868, Note_on_c, 2, 75, 0
1, 59868, Note_on_c, 2, 77, 39
1, 59872, Note_on_c, 2, 66, 0
1, 59883, Note_on_c, 2, 67, 0
1, 59890, Note_on_c, 2, 75, 55
1, 59891, Note_on_c, 2, 60, 46
1, 59894, Note_on_c, 2, 77, 0
1, 59920, Note_on_c, 2, 66, 33
1, 59932, Note_on_c, 2, 74, 40
1, 59942, Note_on_c, 2, 75, 0
1, 59946, Note_on_c, 2, 60, 0
1, 59946, Note_on_c, 2, 72, 63
1, 59950, Note_on_c, 2, 74, 0
1, 59968, Note_on_c, 2, 66, 0
1, 59968, Note_on_c, 2, 62, 65
1, 59969, Note_on_c, 2, 70, 100
1, 59972, Note_on_c, 2, 72, 0
1, 59990, Note_on_c, 2, 66, 57
1, 60016, Note_on_c, 2, 62, 0
1, 60017, Note_on_c, 2, 67, 32
1, 60024, Note_on_c, 2, 66, 0
1, 60028, Note_on_c, 2, 70, 0
1, 60032, Note_on_c, 2, 67, 0
1, 60046, Note_on_c, 2, 62, 66
1, 60047, Note_on_c, 2, 69, 63
1, 60068, Note_on_c, 2, 66, 47
1, 60076, Note_on_c, 2, 69, 0
1, 60076, Note_on_c, 2, 62, 0
1, 60080, Note_on_c, 2, 70, 62
1, 60090, Note_on_c, 2, 70, 0
1, 60094, Note_on_c, 2, 66, 0
1, 60102, Note_on_c, 2, 69, 12
1, 60113, Note_on_c, 2, 69, 0
1, 60116, Note_on_c, 2, 70, 32
1, 60120, Note_on_c, 2, 70, 0
1, 60124, Note_on_c, 2, 62, 62
1, 60124, Note_on_c, 2, 70, 56
1, 60146, Note_on_c, 2, 67, 51
1, 60161, Note_on_c, 2, 67, 0
1, 60165, Note_on_c, 2, 66, 54
1, 60179, Note_on_c, 2, 62, 0
1, 60183, Note_on_c, 2, 67, 51
1, 60194, Note_on_c, 2, 67, 0
1, 60201, Note_on_c, 2, 66, 0
1, 60202, Note_on_c, 2, 62, 60
1, 60206, Note_on_c, 2, 70, 0
1, 60206, Note_on_c, 2, 71, 57
1, 60224, Note_on_c, 2, 67, 49
1, 60239, Note_on_c, 2, 67, 0
1, 60243, Note_on_c, 2, 66, 54
1, 60254, Note_on_c, 2, 62, 0
1, 60261, Note_on_c, 2, 67, 49
1, 60269, Note_on_c, 2, 66, 0
1, 60279, Note_on_c, 2, 67, 0
1, 60284, Note_on_c, 2, 60, 59
1, 60284, Note_on_c, 2, 72, 63
1, 60287, Note_on_c, 2, 71, 0
1, 60305, Note_on_c, 2, 67, 34
1, 60324, Note_on_c, 2, 66, 56
1, 60328, Note_on_c, 2, 67, 0
1, 60328, Note_on_c, 2, 72, 0
1, 60328, Note_on_c, 2, 75, 31
1, 60339, Note_on_c, 2, 60, 0
1, 60350, Note_on_c, 2, 75, 0
1, 60350, Note_on_c, 2, 67, 41
1, 60358, Note_on_c, 2, 66, 0
1, 60364, Note_on_c, 2, 67, 0
1, 60364, Note_on_c, 2, 60, 63
1, 60387, Note_on_c, 2, 66, 53
1, 60405, Note_on_c, 2, 74, 56
1, 60409, Note_on_c, 2, 60, 0
1, 60409, Note_on_c, 2, 67, 40
1, 60424, Note_on_c, 2, 74, 0
1, 60424, Note_on_c, 2, 72, 66
1, 60428, Note_on_c, 2, 66, 0
1, 60435, Note_on_c, 2, 67, 0
1, 60439, Note_on_c, 2, 72, 0
1, 60442, Note_on_c, 2, 60, 62
1, 60446, Note_on_c, 2, 75, 55
1, 60461, Note_on_c, 2, 77, 48
1, 60465, Note_on_c, 2, 75, 0
1, 60465, Note_on_c, 2, 67, 48
1, 60472, Note_on_c, 2, 75, 47
1, 60476, Note_on_c, 2, 77, 0
1, 60483, Note_on_c, 2, 66, 31
1, 60487, Note_on_c, 2, 60, 0
1, 60487, Note_on_c, 2, 77, 55
1, 60491, Note_on_c, 2, 75, 0
1, 60502, Note_on_c, 2, 77, 0
1, 60506, Note_on_c, 2, 75, 42
1, 60513, Note_on_c, 2, 67, 0
1, 60513, Note_on_c, 2, 66, 0
1, 60516, Note_on_c, 2, 60, 45
1, 60539, Note_on_c, 2, 66, 29
1, 60557, Note_on_c, 2, 74, 63
1, 60561, Note_on_c, 2, 75, 0
1, 60565, Note_on_c, 2, 60, 0
1, 60572, Note_on_c, 2, 74, 0
1, 60576, Note_on_c, 2, 72, 66
1, 60591, Note_on_c, 2, 72, 0
1, 60591, Note_on_c, 2, 66, 0
1, 60591, Note_on_c, 2, 62, 66
1, 60594, Note_on_c, 2, 70, 79
1, 60616, Note_on_c, 2, 67, 43
1, 60635, Note_on_c, 2, 67, 0
1, 60635, Note_on_c, 2, 66, 44
1, 60646, Note_on_c, 2, 62, 0
1, 60654, Note_on_c, 2, 70, 0
1, 60654, Note_on_c, 2, 67, 49
1, 60658, Note_on_c, 2, 66, 0
1, 60665, Note_on_c, 2, 67, 0
1, 60676, Note_on_c, 2, 62, 57
1, 60680, Note_on_c, 2, 69, 51
1, 60687, Note_on_c, 2, 69, 0
1, 60687, Note_on_c, 2, 70, 55
1, 60687, Note_on_c, 2, 67, 45
1, 60698, Note_on_c, 2, 70, 0
1, 60698, Note_on_c, 2, 66, 31
1, 60698, Note_on_c, 2, 69, 46
1, 60702, Note_on_c, 2, 67, 0
1, 60702, Note_on_c, 2, 62, 0
1, 60705, Note_on_c, 2, 66, 0
1, 60709, Note_on_c, 2, 69, 0
1, 60709, Note_on_c, 2, 70, 55
1, 60720, Note_on_c, 2, 70, 0
1, 60739, Note_on_c, 2, 67, 11
1, 60742, Note_on_c, 2, 67, 0
1, 60746, Note_on_c, 2, 69, 40
1, 60761, Note_on_c, 2, 69, 0
1, 60762, Note_on_c, 2, 67, 70
1, 60795, Note_on_c, 2, 55, 53
1, 60817, Note_on_c, 2, 55, 0
1, 60839, Note_on_c, 2, 62, 56
1, 60839, Note_on_c, 2, 58, 63
1, 60850, Note_on_c, 2, 58, 0
1, 60850, Note_on_c, 2, 62, 0
1, 60857, Note_on_c, 2, 67, 0
1, 60880, Note_on_c, 2, 67, 65
1, 60891, Note_on_c, 2, 67, 0
1, 60917, Note_on_c, 2, 70, 79
1, 60958, Note_on_c, 2, 55, 49
1, 60972, Note_on_c, 2, 55, 0
1, 60998, Note_on_c, 2, 62, 57
1, 60998, Note_on_c, 2, 58, 70
1, 61002, Note_on_c, 2, 70, 0
1, 61006, Note_on_c, 2, 58, 0
1, 61006, Note_on_c, 2, 62, 0
1, 61036, Note_on_c, 2, 70, 72
1, 61047, Note_on_c, 2, 70, 0
1, 61076, Note_on_c, 2, 75, 88
1, 61117, Note_on_c, 2, 55, 54
1, 61132, Note_on_c, 2, 75, 0
1, 61136, Note_on_c, 2, 55, 0
1, 61154, Note_on_c, 2, 63, 55
1, 61158, Note_on_c, 2, 58, 57
1, 61169, Note_on_c, 2, 58, 0
1, 61172, Note_on_c, 2, 63, 0
1, 61195, Note_on_c, 2, 75, 60
1, 61213, Note_on_c, 2, 75, 0
1, 61243, Note_on_c, 2, 79, 56
1, 61284, Note_on_c, 2, 55, 48
1, 61309, Note_on_c, 2, 55, 0
1, 61332, Note_on_c, 2, 79, 0
1, 61332, Note_on_c, 2, 63, 47
1, 61335, Note_on_c, 2, 58, 55
1, 61343, Note_on_c, 2, 58, 0
1, 61347, Note_on_c, 2, 63, 0
1, 61383, Note_on_c, 2, 79, 59
1, 61410, Note_on_c, 2, 53, 46
1, 61424, Note_on_c, 2, 56, 33
1, 61432, Note_on_c, 2, 62, 52
1, 61435, Note_on_c, 2, 79, 0
1, 61435, Note_on_c, 2, 58, 41
1, 61458, Note_on_c, 2, 80, 72
1, 61476, Note_on_c, 2, 80, 0
1, 61476, Note_on_c, 2, 82, 57
1, 61495, Note_on_c, 2, 80, 65
1, 61499, Note_on_c, 2, 82, 0
1, 61514, Note_on_c, 2, 79, 68
1, 61520, Note_on_c, 2, 80, 0
1, 61536, Note_on_c, 2, 79, 0
1, 61536, Note_on_c, 2, 77, 70
1, 61554, Note_on_c, 2, 77, 0
1, 61554, Note_on_c, 2, 79, 55
1, 61569, Note_on_c, 2, 79, 0
1, 61572, Note_on_c, 2, 77, 56
1, 61587, Note_on_c, 2, 77, 0
1, 61594, Note_on_c, 2, 75, 66
1, 61614, Note_on_c, 2, 75, 0
1, 61614, Note_on_c, 2, 74, 70
1, 61632, Note_on_c, 2, 74, 0
1, 61632, Note_on_c, 2, 75, 51
1, 61654, Note_on_c, 2, 74, 59
1, 61658, Note_on_c, 2, 75, 0
1, 61673, Note_on_c, 2, 74, 0
1, 61673, Note_on_c, 2, 72, 68
1, 61691, Note_on_c, 2, 70, 59
1, 61698, Note_on_c, 2, 72, 0
1, 61714, Note_on_c, 2, 70, 0
1, 61714, Note_on_c, 2, 72, 45
1, 61724, Note_on_c, 2, 62, 0
1, 61728, Note_on_c, 2, 58, 0
1, 61732, Note_on_c, 2, 56, 0
1, 61735, Note_on_c, 2, 53, 0
1, 61739, Note_on_c, 2, 70, 63
1, 61743, Note_on_c, 2, 72, 0
1, 61762, Note_on_c, 2, 68, 65
1, 61765, Note_on_c, 2, 70, 0
1, 61780, Note_on_c, 2, 68, 0
1, 61784, Note_on_c, 2, 55, 70
1, 61802, Note_on_c, 2, 67, 55
1, 61824, Note_on_c, 2, 68, 60
1, 61828, Note_on_c, 2, 67, 0
1, 61836, Note_on_c, 2, 55, 0
1, 61843, Note_on_c, 2, 68, 0
1, 61843, Note_on_c, 2, 67, 56
1, 61861, Note_on_c, 2, 58, 72
1, 61884, Note_on_c, 2, 70, 59
1, 61891, Note_on_c, 2, 67, 0
1, 61902, Note_on_c, 2, 70, 0
1, 61902, Note_on_c, 2, 72, 54
1, 61906, Note_on_c, 2, 58, 0
1, 61921, Note_on_c, 2, 70, 46
1, 61924, Note_on_c, 2, 72, 0
1, 61932, Note_on_c, 2, 70, 0
1, 61939, Note_on_c, 2, 63, 70
1, 61939, Note_on_c, 2, 61, 39
1, 61950, Note_on_c, 2, 61, 0
1, 61958, Note_on_c, 2, 75, 43
1, 61980, Note_on_c, 2, 75, 0
1, 61980, Note_on_c, 2, 77, 51
1, 61995, Note_on_c, 2, 77, 0
1, 61998, Note_on_c, 2, 75, 57
1, 62010, Note_on_c, 2, 75, 0
1, 62017, Note_on_c, 2, 63, 0
1, 62021, Note_on_c, 2, 67, 57
1, 62040, Note_on_c, 2, 79, 52
1, 62046, Note_on_c, 2, 67, 0
1, 62065, Note_on_c, 2, 80, 48
1, 62069, Note_on_c, 2, 79, 0
1, 62084, Note_on_c, 2, 79, 49
1, 62088, Note_on_c, 2, 80, 0
1, 62099, Note_on_c, 2, 53, 39
1, 62102, Note_on_c, 2, 56, 42
1, 62110, Note_on_c, 2, 58, 40
1, 62111, Note_on_c, 2, 62, 45
1, 62128, Note_on_c, 2, 79, 0
1, 62132, Note_on_c, 2, 80, 45
1, 62147, Note_on_c, 2, 80, 0
1, 62151, Note_on_c, 2, 82, 54
1, 62166, Note_on_c, 2, 80, 45
1, 62173, Note_on_c, 2, 82, 0
1, 62187, Note_on_c, 2, 79, 56
1, 62191, Note_on_c, 2, 80, 0
1, 62206, Note_on_c, 2, 79, 0
1, 62206, Note_on_c, 2, 77, 62
1, 62224, Note_on_c, 2, 77, 0
1, 62228, Note_on_c, 2, 79, 41
1, 62243, Note_on_c, 2, 79, 0
1, 62243, Note_on_c, 2, 77, 46
1, 62262, Note_on_c, 2, 75, 65
1, 62269, Note_on_c, 2, 77, 0
1, 62284, Note_on_c, 2, 75, 0
1, 62284, Note_on_c, 2, 74, 70
1, 62302, Note_on_c, 2, 74, 0
1, 62302, Note_on_c, 2, 75, 55
1, 62325, Note_on_c, 2, 74, 63
1, 62328, Note_on_c, 2, 75, 0
1, 62339, Note_on_c, 2, 74, 0
1, 62343, Note_on_c, 2, 72, 57
1, 62350, Note_on_c, 2, 62, 0
1, 62354, Note_on_c, 2, 58, 0
1, 62354, Note_on_c, 2, 53, 0
1, 62354, Note_on_c, 2, 56, 0
1, 62366, Note_on_c, 2, 70, 52
1, 62369, Note_on_c, 2, 72, 0
1, 62380, Note_on_c, 2, 70, 0
1, 62388, Note_on_c, 2, 72, 51
1, 62414, Note_on_c, 2, 70, 56
1, 62417, Note_on_c, 2, 72, 0
1, 62440, Note_on_c, 2, 70, 0
1, 62440, Note_on_c, 2, 68, 39
1, 62458, Note_on_c, 2, 68, 0
1, 62477, Note_on_c, 2, 51, 28
1, 62477, Note_on_c, 2, 55, 49
1, 62477, Note_on_c, 2, 58, 45
1, 62477, Note_on_c, 2, 67, 49
1, 62499, Note_on_c, 2, 69, 39
1, 62502, Note_on_c, 2, 67, 0
1, 62517, Note_on_c, 2, 70, 43
1, 62521, Note_on_c, 2, 69, 0
1, 62547, Note_on_c, 2, 70, 0
1, 62547, Note_on_c, 2, 69, 52
1, 62569, Note_on_c, 2, 70, 68
1, 62573, Note_on_c, 2, 69, 0
1, 62588, Note_on_c, 2, 70, 0
1, 62588, Note_on_c, 2, 71, 55
1, 62606, Note_on_c, 2, 71, 0
1, 62610, Note_on_c, 2, 72, 63
1, 62629, Note_on_c, 2, 72, 0
1, 62632, Note_on_c, 2, 71, 59
1, 62650, Note_on_c, 2, 72, 63
1, 62658, Note_on_c, 2, 71, 0
1, 62669, Note_on_c, 2, 74, 55
1, 62676, Note_on_c, 2, 72, 0
1, 62691, Note_on_c, 2, 75, 48
1, 62699, Note_on_c, 2, 74, 0
1, 62710, Note_on_c, 2, 75, 0
1, 62714, Note_on_c, 2, 74, 22
1, 62728, Note_on_c, 2, 74, 0
1, 62729, Note_on_c, 2, 75, 42
1, 62736, Note_on_c, 2, 75, 0
1, 62751, Note_on_c, 2, 78, 51
1, 62773, Note_on_c, 2, 79, 53
1, 62780, Note_on_c, 2, 78, 0
1, 62791, Note_on_c, 2, 79, 0
1, 62792, Note_on_c, 2, 78, 55
1, 62810, Note_on_c, 2, 78, 0
1, 62813, Note_on_c, 2, 79, 40
1, 62825, Note_on_c, 2, 79, 0
1, 62836, Note_on_c, 2, 81, 45
1, 62854, Note_on_c, 2, 82, 56
1, 62858, Note_on_c, 2, 81, 0
1, 62877, Note_on_c, 2, 82, 0
1, 62877, Note_on_c, 2, 81, 68
1, 62895, Note_on_c, 2, 82, 59
1, 62899, Note_on_c, 2, 81, 0
1, 62918, Note_on_c, 2, 81, 68
1, 62921, Note_on_c, 2, 82, 0
1, 62936, Note_on_c, 2, 82, 63
1, 62940, Note_on_c, 2, 81, 0
1, 62954, Note_on_c, 2, 81, 68
1, 62958, Note_on_c, 2, 82, 0
1, 62973, Note_on_c, 2, 82, 59
1, 62976, Note_on_c, 2, 81, 0
1, 62999, Note_on_c, 2, 81, 65
1, 63002, Note_on_c, 2, 82, 0
1, 63021, Note_on_c, 2, 55, 0
1, 63025, Note_on_c, 2, 82, 68
1, 63032, Note_on_c, 2, 81, 0
1, 63036, Note_on_c, 2, 82, 0
1, 63051, Note_on_c, 2, 58, 0
1, 63077, Note_on_c, 2, 51, 0
1, 63080, Note_on_c, 2, 55, 54
1, 63081, Note_on_c, 2, 67, 40
1, 63081, Note_on_c, 2, 70, 40
1, 63084, Note_on_c, 2, 72, 38
1, 63084, Note_on_c, 2, 76, 29
1, 63092, Note_on_c, 2, 55, 0
1, 63095, Note_on_c, 2, 67, 0
1, 63095, Note_on_c, 2, 76, 0
1, 63099, Note_on_c, 2, 70, 0
1, 63102, Note_on_c, 2, 72, 0
1, 63132, Note_on_c, 2, 53, 59
1, 63136, Note_on_c, 2, 69, 52
1, 63137, Note_on_c, 2, 72, 55
1, 63137, Note_on_c, 2, 77, 59
1, 63166, Note_on_c, 2, 72, 0
1, 63166, Note_on_c, 2, 69, 0
1, 63173, Note_on_c, 2, 77, 0
1, 63176, Note_on_c, 2, 53, 0
1, 63270, Note_on_c, 2, 82, 42
1, 63288, Note_on_c, 2, 60, 38
1, 63292, Note_on_c, 2, 58, 46
1, 63292, Note_on_c, 2, 79, 50
1, 63302, Note_on_c, 2, 60, 0
1, 63306, Note_on_c, 2, 82, 0
1, 63306, Note_on_c, 2, 58, 0
1, 63310, Note_on_c, 2, 79, 0
1, 63310, Note_on_c, 2, 76, 42
1, 63336, Note_on_c, 2, 60, 43
1, 63336, Note_on_c, 2, 57, 52
1, 63336, Note_on_c, 2, 77, 40
1, 63343, Note_on_c, 2, 76, 0
1, 63403, Note_on_c, 2, 77, 0
1, 63410, Note_on_c, 2, 60, 0
1, 63414, Note_on_c, 2, 57, 0
1, 63466, Note_on_c, 2, 82, 39
1, 63488, Note_on_c, 2, 60, 38
1, 63489, Note_on_c, 2, 58, 43
1, 63489, Note_on_c, 2, 79, 46
1, 63495, Note_on_c, 2, 82, 0
1, 63506, Note_on_c, 2, 58, 0
1, 63510, Note_on_c, 2, 60, 0
1, 63510, Note_on_c, 2, 76, 44
1, 63514, Note_on_c, 2, 79, 0
1, 63532, Note_on_c, 2, 60, 38
1, 63532, Note_on_c, 2, 57, 42
1, 63532, Note_on_c, 2, 77, 39
1, 63540, Note_on_c, 2, 76, 0
1, 63592, Note_on_c, 2, 77, 0
1, 63595, Note_on_c, 2, 60, 0
1, 63610, Note_on_c, 2, 57, 0
1, 63651, Note_on_c, 2, 78, 48
1, 63670, Note_on_c, 2, 79, 57
1, 63673, Note_on_c, 2, 78, 0
1, 63692, Note_on_c, 2, 76, 41
1, 63699, Note_on_c, 2, 79, 0
1, 63714, Note_on_c, 2, 77, 51
1, 63718, Note_on_c, 2, 76, 0
1, 63732, Note_on_c, 2, 74, 50
1, 63736, Note_on_c, 2, 77, 0
1, 63755, Note_on_c, 2, 75, 54
1, 63758, Note_on_c, 2, 74, 0
1, 63777, Note_on_c, 2, 73, 59
1, 63780, Note_on_c, 2, 75, 0
1, 63800, Note_on_c, 2, 74, 47
1, 63807, Note_on_c, 2, 73, 0
1, 63825, Note_on_c, 2, 71, 36
1, 63851, Note_on_c, 2, 74, 0
1, 63855, Note_on_c, 2, 71, 0
1, 63855, Note_on_c, 2, 72, 45
1, 63892, Note_on_c, 2, 72, 0
1, 63892, Note_on_c, 2, 69, 30
1, 63929, Note_on_c, 2, 62, 31
1, 63933, Note_on_c, 2, 58, 39
1, 63944, Note_on_c, 2, 69, 0
1, 63944, Note_on_c, 2, 70, 36
1, 63966, Note_on_c, 2, 72, 47
1, 63969, Note_on_c, 2, 70, 0
1, 63981, Note_on_c, 2, 72, 0
1, 63981, Note_on_c, 2, 70, 38
1, 63996, Note_on_c, 2, 70, 0
1, 63999, Note_on_c, 2, 72, 47
1, 64010, Note_on_c, 2, 72, 0
1, 64010, Note_on_c, 2, 70, 52
1, 64018, Note_on_c, 2, 58, 0
1, 64025, Note_on_c, 2, 62, 0
1, 64032, Note_on_c, 2, 72, 36
1, 64036, Note_on_c, 2, 70, 0
1, 64051, Note_on_c, 2, 72, 0
1, 64055, Note_on_c, 2, 74, 40
1, 64078, Note_on_c, 2, 63, 31
1, 64078, Note_on_c, 2, 60, 40
1, 64081, Note_on_c, 2, 70, 36
1, 64084, Note_on_c, 2, 74, 0
1, 64103, Note_on_c, 2, 69, 38
1, 64106, Note_on_c, 2, 70, 0
1, 64125, Note_on_c, 2, 72, 47
1, 64133, Note_on_c, 2, 69, 0
1, 64148, Note_on_c, 2, 70, 56
1, 64151, Note_on_c, 2, 72, 0
1, 64162, Note_on_c, 2, 60, 0
1, 64169, Note_on_c, 2, 63, 0
1, 64170, Note_on_c, 2, 69, 39
1, 64180, Note_on_c, 2, 70, 0
1, 64192, Note_on_c, 2, 75, 37
1, 64218, Note_on_c, 2, 72, 46
1, 64218, Note_on_c, 2, 65, 36
1, 64218, Note_on_c, 2, 62, 40
1, 64222, Note_on_c, 2, 75, 0
1, 64225, Note_on_c, 2, 69, 0
1, 64240, Note_on_c, 2, 70, 41
1, 64244, Note_on_c, 2, 72, 0
1, 64262, Note_on_c, 2, 74, 47
1, 64273, Note_on_c, 2, 70, 0
1, 64288, Note_on_c, 2, 72, 47
1, 64296, Note_on_c, 2, 74, 0
1, 64310, Note_on_c, 2, 70, 37
1, 64318, Note_on_c, 2, 72, 0
1, 64333, Note_on_c, 2, 77, 54
1, 64362, Note_on_c, 2, 77, 0
1, 64362, Note_on_c, 2, 74, 46
1, 64373, Note_on_c, 2, 70, 0
1, 64392, Note_on_c, 2, 65, 0
1, 64399, Note_on_c, 2, 62, 0
1, 64399, Note_on_c, 2, 74, 0
1, 64500, Note_on_c, 2, 70, 26
1, 64507, Note_on_c, 2, 63, 38
1, 64507, Note_on_c, 2, 75, 42
1, 64508, Note_on_c, 2, 51, 47
1, 64508, Note_on_c, 2, 79, 53
1, 64514, Note_on_c, 2, 63, 0
1, 64514, Note_on_c, 2, 70, 0
1, 64518, Note_on_c, 2, 75, 0
1, 64521, Note_on_c, 2, 51, 0
1, 64522, Note_on_c, 2, 79, 0
1, 64581, Note_on_c, 2, 70, 33
1, 64582, Note_on_c, 2, 58, 36
1, 64585, Note_on_c, 2, 46, 39
1, 64585, Note_on_c, 2, 77, 59
1, 64596, Note_on_c, 2, 70, 0
1, 64618, Note_on_c, 2, 77, 0
1, 64662, Note_on_c, 2, 77, 65
1, 64677, Note_on_c, 2, 82, 55
1, 64685, Note_on_c, 2, 77, 0
1, 64696, Note_on_c, 2, 82, 0
1, 64696, Note_on_c, 2, 81, 57
1, 64714, Note_on_c, 2, 82, 56
1, 64722, Note_on_c, 2, 81, 0
1, 64733, Note_on_c, 2, 82, 0
1, 64733, Note_on_c, 2, 86, 57
1, 64736, Note_on_c, 2, 58, 0
1, 64747, Note_on_c, 2, 46, 0
1, 64751, Note_on_c, 2, 86, 0
1, 64751, Note_on_c, 2, 82, 60
1, 64766, Note_on_c, 2, 82, 0
1, 64770, Note_on_c, 2, 81, 48
1, 64788, Note_on_c, 2, 82, 40
1, 64792, Note_on_c, 2, 81, 0
1, 64796, Note_on_c, 2, 82, 0
1, 64803, Note_on_c, 2, 41, 50
1, 64807, Note_on_c, 2, 53, 39
1, 64810, Note_on_c, 2, 74, 48
1, 64811, Note_on_c, 2, 77, 48
1, 64818, Note_on_c, 2, 77, 0
1, 64818, Note_on_c, 2, 41, 0
1, 64818, Note_on_c, 2, 53, 0
1, 64818, Note_on_c, 2, 74, 0
1, 64847, Note_on_c, 2, 72, 47
1, 64847, Note_on_c, 2, 75, 41
1, 64855, Note_on_c, 2, 75, 0
1, 64859, Note_on_c, 2, 72, 0
1, 64892, Note_on_c, 2, 58, 35
1, 64896, Note_on_c, 2, 70, 35
1, 64896, Note_on_c, 2, 46, 36
1, 64900, Note_on_c, 2, 74, 17
1, 64992, Note_on_c, 2, 58, 0
1, 65007, Note_on_c, 2, 70, 0
1, 65011, Note_on_c, 2, 74, 0
1, 65018, Note_on_c, 2, 46, 0
1, 65136, Note_on_c, 2, 46, 37
1, 65136, Note_on_c, 2, 50, 37
1, 65144, Note_on_c, 2, 58, 47
1, 65163, Note_on_c, 2, 58, 0
1, 65163, Note_on_c, 2, 60, 51
1, 65178, Note_on_c, 2, 58, 63
1, 65182, Note_on_c, 2, 60, 0
1, 65196, Note_on_c, 2, 58, 0
1, 65196, Note_on_c, 2, 60, 49
1, 65218, Note_on_c, 2, 60, 0
1, 65218, Note_on_c, 2, 58, 68
1, 65222, Note_on_c, 2, 46, 0
1, 65233, Note_on_c, 2, 50, 0
1, 65237, Note_on_c, 2, 60, 47
1, 65244, Note_on_c, 2, 58, 0
1, 65259, Note_on_c, 2, 62, 50
1, 65262, Note_on_c, 2, 60, 0
1, 65281, Note_on_c, 2, 51, 40
1, 65281, Note_on_c, 2, 58, 51
1, 65285, Note_on_c, 2, 48, 45
1, 65288, Note_on_c, 2, 62, 0
1, 65304, Note_on_c, 2, 57, 46
1, 65314, Note_on_c, 2, 58, 0
1, 65326, Note_on_c, 2, 60, 47
1, 65336, Note_on_c, 2, 57, 0
1, 65352, Note_on_c, 2, 58, 60
1, 65358, Note_on_c, 2, 60, 0
1, 65374, Note_on_c, 2, 57, 45
1, 65378, Note_on_c, 2, 58, 0
1, 65381, Note_on_c, 2, 51, 0
1, 65385, Note_on_c, 2, 48, 0
1, 65396, Note_on_c, 2, 63, 40
1, 65418, Note_on_c, 2, 53, 36
1, 65419, Note_on_c, 2, 50, 42
1, 65422, Note_on_c, 2, 60, 51
1, 65426, Note_on_c, 2, 63, 0
1, 65437, Note_on_c, 2, 57, 0
1, 65444, Note_on_c, 2, 60, 0
1, 65444, Note_on_c, 2, 58, 45
1, 65444, Note_on_c, 2, 57, 11
1, 65459, Note_on_c, 2, 57, 0
1, 65466, Note_on_c, 2, 62, 49
1, 65474, Note_on_c, 2, 58, 0
1, 65493, Note_on_c, 2, 60, 49
1, 65496, Note_on_c, 2, 62, 0
1, 65515, Note_on_c, 2, 58, 53
1, 65518, Note_on_c, 2, 60, 0
1, 65537, Note_on_c, 2, 65, 56
1, 65563, Note_on_c, 2, 65, 0
1, 65566, Note_on_c, 2, 62, 48
1, 65600, Note_on_c, 2, 50, 0
1, 65603, Note_on_c, 2, 58, 0
1, 65607, Note_on_c, 2, 53, 0
1, 65630, Note_on_c, 2, 62, 0
1, 65689, Note_on_c, 2, 51, 43
1, 65700, Note_on_c, 2, 55, 45
1, 65708, Note_on_c, 2, 60, 45
1, 65711, Note_on_c, 2, 67, 52
1, 65730, Note_on_c, 2, 72, 53
1, 65737, Note_on_c, 2, 67, 0
1, 65756, Note_on_c, 2, 75, 39
1, 65760, Note_on_c, 2, 72, 0
1, 65778, Note_on_c, 2, 51, 0
1, 65782, Note_on_c, 2, 55, 0
1, 65782, Note_on_c, 2, 72, 52
1, 65786, Note_on_c, 2, 75, 0
1, 65798, Note_on_c, 2, 60, 0
1, 65808, Note_on_c, 2, 75, 46
1, 65812, Note_on_c, 2, 72, 0
1, 65827, Note_on_c, 2, 75, 0
1, 65828, Note_on_c, 2, 79, 44
1, 65839, Note_on_c, 2, 79, 0
1, 65850, Note_on_c, 2, 79, 55
1, 65850, Note_on_c, 2, 53, 49
1, 65850, Note_on_c, 2, 62, 46
1, 65873, Note_on_c, 2, 53, 0
1, 65873, Note_on_c, 2, 77, 40
1, 65877, Note_on_c, 2, 62, 0
1, 65877, Note_on_c, 2, 79, 0
1, 65888, Note_on_c, 2, 75, 45
1, 65895, Note_on_c, 2, 77, 0
1, 65906, Note_on_c, 2, 74, 55
1, 65910, Note_on_c, 2, 75, 0
1, 65918, Note_on_c, 2, 74, 0
1, 65925, Note_on_c, 2, 63, 39
1, 65925, Note_on_c, 2, 74, 52
1, 65926, Note_on_c, 2, 53, 43
1, 65944, Note_on_c, 2, 74, 0
1, 65944, Note_on_c, 2, 72, 49
1, 65959, Note_on_c, 2, 63, 0
1, 65967, Note_on_c, 2, 70, 37
1, 65974, Note_on_c, 2, 72, 0
1, 65975, Note_on_c, 2, 53, 0
1, 65986, Note_on_c, 2, 70, 0
1, 65986, Note_on_c, 2, 69, 40
1, 66006, Note_on_c, 2, 62, 33
1, 66006, Note_on_c, 2, 58, 45
1, 66006, Note_on_c, 2, 70, 63
1, 66012, Note_on_c, 2, 69, 0
1, 66027, Note_on_c, 2, 62, 0
1, 66028, Note_on_c, 2, 58, 0
1, 66043, Note_on_c, 2, 58, 32
1, 66043, Note_on_c, 2, 62, 28
1, 66055, Note_on_c, 2, 62, 0
1, 66058, Note_on_c, 2, 58, 0
1, 66078, Note_on_c, 2, 62, 30
1, 66078, Note_on_c, 2, 58, 34
1, 66088, Note_on_c, 2, 58, 0
1, 66088, Note_on_c, 2, 62, 0
1, 66112, Note_on_c, 2, 62, 26
1, 66116, Note_on_c, 2, 58, 36
1, 66127, Note_on_c, 2, 62, 0
1, 66130, Note_on_c, 2, 58, 0
1, 66150, Note_on_c, 2, 62, 28
1, 66154, Note_on_c, 2, 58, 36
1, 66165, Note_on_c, 2, 62, 0
1, 66169, Note_on_c, 2, 58, 0
1, 66176, Note_on_c, 2, 70, 0
1, 66196, Note_on_c, 2, 62, 22
1, 66196, Note_on_c, 2, 58, 34
1, 66198, Note_on_c, 2, 70, 39
1, 66212, Note_on_c, 2, 62, 0
1, 66215, Note_on_c, 2, 58, 0
1, 66227, Note_on_c, 2, 70, 0
1, 66235, Note_on_c, 2, 69, 39
1, 66235, Note_on_c, 2, 62, 24
1, 66238, Note_on_c, 2, 58, 34
1, 66250, Note_on_c, 2, 58, 0
1, 66250, Note_on_c, 2, 62, 0
1, 66261, Note_on_c, 2, 69, 0
1, 66273, Note_on_c, 2, 62, 27
1, 66273, Note_on_c, 2, 58, 39
1, 66277, Note_on_c, 2, 68, 44
1, 66284, Note_on_c, 2, 68, 0
1, 66284, Note_on_c, 2, 58, 0
1, 66284, Note_on_c, 2, 62, 0
1, 66315, Note_on_c, 2, 63, 56
1, 66315, Note_on_c, 2, 58, 43
1, 66316, Note_on_c, 2, 67, 55
1, 66342, Note_on_c, 2, 58, 0
1, 66342, Note_on_c, 2, 63, 0
1, 66357, Note_on_c, 2, 63, 34
1, 66357, Note_on_c, 2, 69, 43
1, 66357, Note_on_c, 2, 58, 42
1, 66365, Note_on_c, 2, 67, 0
1, 66369, Note_on_c, 2, 58, 0
1, 66372, Note_on_c, 2, 63, 0
1, 66376, Note_on_c, 2, 70, 52
1, 66380, Note_on_c, 2, 69, 0
1, 66392, Note_on_c, 2, 63, 39
1, 66396, Note_on_c, 2, 70, 0
1, 66396, Note_on_c, 2, 58, 45
1, 66396, Note_on_c, 2, 72, 55
1, 66407, Note_on_c, 2, 58, 0
1, 66407, Note_on_c, 2, 63, 0
1, 66415, Note_on_c, 2, 74, 42
1, 66419, Note_on_c, 2, 72, 0
1, 66431, Note_on_c, 2, 58, 45
1, 66431, Note_on_c, 2, 63, 35
1, 66431, Note_on_c, 2, 75, 53
1, 66434, Note_on_c, 2, 74, 0
1, 66446, Note_on_c, 2, 58, 0
1, 66446, Note_on_c, 2, 63, 0
1, 66450, Note_on_c, 2, 75, 0
1, 66454, Note_on_c, 2, 77, 56
1, 66465, Note_on_c, 2, 63, 39
1, 66469, Note_on_c, 2, 77, 0
1, 66469, Note_on_c, 2, 58, 38
1, 66473, Note_on_c, 2, 79, 51
1, 66480, Note_on_c, 2, 58, 0
1, 66484, Note_on_c, 2, 63, 0
1, 66492, Note_on_c, 2, 81, 47
1, 66496, Note_on_c, 2, 79, 0
1, 66508, Note_on_c, 2, 81, 0
1, 66508, Note_on_c, 2, 63, 36
1, 66508, Note_on_c, 2, 82, 45
1, 66509, Note_on_c, 2, 58, 40
1, 66519, Note_on_c, 2, 58, 0
1, 66522, Note_on_c, 2, 63, 0
1, 66527, Note_on_c, 2, 81, 56
1, 66530, Note_on_c, 2, 82, 0
1, 66542, Note_on_c, 2, 81, 0
1, 66542, Note_on_c, 2, 63, 39
1, 66542, Note_on_c, 2, 58, 38
1, 66542, Note_on_c, 2, 82, 44
1, 66553, Note_on_c, 2, 58, 0
1, 66557, Note_on_c, 2, 63, 0
1, 66561, Note_on_c, 2, 82, 0
1, 66561, Note_on_c, 2, 81, 51
1, 66580, Note_on_c, 2, 63, 39
1, 66580, Note_on_c, 2, 82, 52
1, 66580, Note_on_c, 2, 58, 40
1, 66584, Note_on_c, 2, 81, 0
1, 66596, Note_on_c, 2, 63, 0
1, 66596, Note_on_c, 2, 58, 0
1, 66604, Note_on_c, 2, 79, 48
1, 66607, Note_on_c, 2, 82, 0
1, 66619, Note_on_c, 2, 58, 42
1, 66620, Note_on_c, 2, 77, 47
1, 66623, Note_on_c, 2, 79, 0
1, 66623, Note_on_c, 2, 62, 43
1, 66642, Note_on_c, 2, 62, 0
1, 66646, Note_on_c, 2, 58, 0
1, 66658, Note_on_c, 2, 62, 35
1, 66661, Note_on_c, 2, 58, 39
1, 66676, Note_on_c, 2, 62, 0
1, 66677, Note_on_c, 2, 58, 0
1, 66700, Note_on_c, 2, 62, 30
1, 66700, Note_on_c, 2, 58, 39
1, 66712, Note_on_c, 2, 62, 0
1, 66715, Note_on_c, 2, 58, 0
1, 66735, Note_on_c, 2, 62, 35
1, 66738, Note_on_c, 2, 58, 40
1, 66750, Note_on_c, 2, 62, 0
1, 66753, Note_on_c, 2, 58, 0
1, 66769, Note_on_c, 2, 77, 0
1, 66777, Note_on_c, 2, 58, 40
1, 66777, Note_on_c, 2, 62, 37
1, 66788, Note_on_c, 2, 62, 0
1, 66792, Note_on_c, 2, 58, 0
1, 66812, Note_on_c, 2, 62, 36
1, 66815, Note_on_c, 2, 58, 38
1, 66815, Note_on_c, 2, 70, 55
1, 66823, Note_on_c, 2, 58, 0
1, 66827, Note_on_c, 2, 62, 0
1, 66830, Note_on_c, 2, 70, 0
1, 66850, Note_on_c, 2, 62, 39
1, 66850, Note_on_c, 2, 58, 38
1, 66850, Note_on_c, 2, 69, 45
1, 66861, Note_on_c, 2, 69, 0
1, 66861, Note_on_c, 2, 58, 0
1, 66861, Note_on_c, 2, 62, 0
1, 66884, Note_on_c, 2, 62, 39
1, 66888, Note_on_c, 2, 58, 39
1, 66889, Note_on_c, 2, 68, 52
1, 66896, Note_on_c, 2, 68, 0
1, 66896, Note_on_c, 2, 58, 0
1, 66896, Note_on_c, 2, 62, 0
1, 66927, Note_on_c, 2, 63, 63
1, 66927, Note_on_c, 2, 58, 46
1, 66931, Note_on_c, 2, 67, 63
1, 66946, Note_on_c, 2, 58, 0
1, 66946, Note_on_c, 2, 63, 0
1, 66966, Note_on_c, 2, 63, 48
1, 66966, Note_on_c, 2, 58, 45
1, 66969, Note_on_c, 2, 69, 47
1, 66973, Note_on_c, 2, 67, 0
1, 66980, Note_on_c, 2, 63, 0
1, 66980, Note_on_c, 2, 58, 0
1, 66984, Note_on_c, 2, 70, 63
1, 66989, Note_on_c, 2, 69, 0
1, 67000, Note_on_c, 2, 70, 0
1, 67004, Note_on_c, 2, 63, 44
1, 67004, Note_on_c, 2, 58, 42
1, 67004, Note_on_c, 2, 72, 66
1, 67011, Note_on_c, 2, 63, 0
1, 67012, Note_on_c, 2, 58, 0
1, 67023, Note_on_c, 2, 72, 0
1, 67023, Note_on_c, 2, 74, 49
1, 67039, Note_on_c, 2, 63, 38
1, 67039, Note_on_c, 2, 58, 42
1, 67039, Note_on_c, 2, 75, 57
1, 67042, Note_on_c, 2, 74, 0
1, 67050, Note_on_c, 2, 63, 0
1, 67050, Note_on_c, 2, 58, 0
1, 67057, Note_on_c, 2, 75, 0
1, 67058, Note_on_c, 2, 77, 56
1, 67073, Note_on_c, 2, 63, 42
1, 67076, Note_on_c, 2, 58, 36
1, 67077, Note_on_c, 2, 79, 53
1, 67080, Note_on_c, 2, 77, 0
1, 67084, Note_on_c, 2, 58, 0
1, 67088, Note_on_c, 2, 63, 0
1, 67096, Note_on_c, 2, 81, 42
1, 67104, Note_on_c, 2, 79, 0
1, 67111, Note_on_c, 2, 63, 40
1, 67111, Note_on_c, 2, 82, 40
1, 67115, Note_on_c, 2, 81, 0
1, 67115, Note_on_c, 2, 58, 40
1, 67123, Note_on_c, 2, 58, 0
1, 67127, Note_on_c, 2, 63, 0
1, 67131, Note_on_c, 2, 81, 52
1, 67134, Note_on_c, 2, 82, 0
1, 67150, Note_on_c, 2, 81, 0
1, 67150, Note_on_c, 2, 63, 38
1, 67150, Note_on_c, 2, 82, 48
1, 67150, Note_on_c, 2, 58, 37
1, 67161, Note_on_c, 2, 58, 0
1, 67161, Note_on_c, 2, 63, 0
1, 67169, Note_on_c, 2, 82, 0
1, 67170, Note_on_c, 2, 81, 57
1, 67188, Note_on_c, 2, 63, 39
1, 67188, Note_on_c, 2, 58, 36
1, 67192, Note_on_c, 2, 81, 0
1, 67192, Note_on_c, 2, 82, 56
1, 67196, Note_on_c, 2, 58, 0
1, 67200, Note_on_c, 2, 63, 0
1, 67215, Note_on_c, 2, 79, 52
1, 67219, Note_on_c, 2, 82, 0
1, 67227, Note_on_c, 2, 63, 38
1, 67231, Note_on_c, 2, 58, 31
1, 67231, Note_on_c, 2, 77, 72
1, 67234, Note_on_c, 2, 79, 0
1, 67235, Note_on_c, 2, 58, 0
1, 67246, Note_on_c, 2, 63, 0
1, 67270, Note_on_c, 2, 58, 53
1, 67273, Note_on_c, 2, 77, 0
1, 67308, Note_on_c, 2, 62, 49
1, 67334, Note_on_c, 2, 82, 62
1, 67354, Note_on_c, 2, 82, 0
1, 67354, Note_on_c, 2, 84, 54
1, 67354, Note_on_c, 2, 65, 53
1, 67358, Note_on_c, 2, 58, 0
1, 67373, Note_on_c, 2, 82, 72
1, 67381, Note_on_c, 2, 84, 0
1, 67392, Note_on_c, 2, 62, 0
1, 67392, Note_on_c, 2, 82, 0
1, 67393, Note_on_c, 2, 65, 0
1, 67393, Note_on_c, 2, 58, 65
1, 67393, Note_on_c, 2, 86, 63
1, 67412, Note_on_c, 2, 84, 57
1, 67419, Note_on_c, 2, 86, 0
1, 67431, Note_on_c, 2, 82, 53
1, 67435, Note_on_c, 2, 84, 0
1, 67435, Note_on_c, 2, 58, 0
1, 67450, Note_on_c, 2, 81, 55
1, 67457, Note_on_c, 2, 82, 0
1, 67469, Note_on_c, 2, 81, 0
1, 67469, Note_on_c, 2, 79, 52
1, 67488, Note_on_c, 2, 77, 52
1, 67496, Note_on_c, 2, 79, 0
1, 67512, Note_on_c, 2, 75, 66
1, 67515, Note_on_c, 2, 77, 0
1, 67527, Note_on_c, 2, 75, 0
1, 67527, Note_on_c, 2, 74, 52
1, 67546, Note_on_c, 2, 75, 83
1, 67554, Note_on_c, 2, 74, 0
1, 67585, Note_on_c, 2, 53, 53
1, 67604, Note_on_c, 2, 75, 0
1, 67627, Note_on_c, 2, 57, 45
1, 67654, Note_on_c, 2, 81, 56
1, 67669, Note_on_c, 2, 53, 0
1, 67670, Note_on_c, 2, 82, 54
1, 67673, Note_on_c, 2, 81, 0
1, 67673, Note_on_c, 2, 60, 56
1, 67688, Note_on_c, 2, 81, 56
1, 67692, Note_on_c, 2, 82, 0
1, 67708, Note_on_c, 2, 57, 0
1, 67708, Note_on_c, 2, 60, 0
1, 67708, Note_on_c, 2, 53, 79
1, 67708, Note_on_c, 2, 84, 56
1, 67716, Note_on_c, 2, 81, 0
1, 67731, Note_on_c, 2, 82, 72
1, 67738, Note_on_c, 2, 84, 0
1, 67746, Note_on_c, 2, 81, 66
1, 67754, Note_on_c, 2, 82, 0
1, 67762, Note_on_c, 2, 79, 65
1, 67766, Note_on_c, 2, 81, 0
1, 67781, Note_on_c, 2, 77, 55
1, 67788, Note_on_c, 2, 79, 0
1, 67792, Note_on_c, 2, 53, 0
1, 67800, Note_on_c, 2, 75, 55
1, 67808, Note_on_c, 2, 77, 0
1, 67819, Note_on_c, 2, 75, 0
1, 67820, Note_on_c, 2, 74, 56
1, 67842, Note_on_c, 2, 72, 45
1, 67850, Note_on_c, 2, 74, 0
1, 67866, Note_on_c, 2, 74, 54
1, 67869, Note_on_c, 2, 72, 0
1, 67904, Note_on_c, 2, 34, 59
1, 67904, Note_on_c, 2, 46, 57
1, 67915, Note_on_c, 2, 46, 0
1, 67915, Note_on_c, 2, 34, 0
1, 67946, Note_on_c, 2, 38, 66
1, 67947, Note_on_c, 2, 50, 59
1, 67958, Note_on_c, 2, 50, 0
1, 67958, Note_on_c, 2, 38, 0
1, 67969, Note_on_c, 2, 77, 31
1, 67984, Note_on_c, 2, 77, 0
1, 67984, Note_on_c, 2, 53, 46
1, 67984, Note_on_c, 2, 79, 48
1, 67984, Note_on_c, 2, 41, 55
1, 67988, Note_on_c, 2, 74, 0
1, 67996, Note_on_c, 2, 53, 0
1, 68000, Note_on_c, 2, 41, 0
1, 68008, Note_on_c, 2, 77, 45
1, 68012, Note_on_c, 2, 79, 0
1, 68027, Note_on_c, 2, 77, 0
1, 68027, Note_on_c, 2, 38, 70
1, 68027, Note_on_c, 2, 50, 56
1, 68031, Note_on_c, 2, 82, 60
1, 68050, Note_on_c, 2, 81, 66
1, 68069, Note_on_c, 2, 79, 68
1, 68073, Note_on_c, 2, 81, 0
1, 68073, Note_on_c, 2, 82, 0
1, 68085, Note_on_c, 2, 79, 0
1, 68089, Note_on_c, 2, 77, 70
1, 68097, Note_on_c, 2, 50, 0
1, 68097, Note_on_c, 2, 38, 0
1, 68104, Note_on_c, 2, 77, 0
1, 68108, Note_on_c, 2, 75, 59
1, 68131, Note_on_c, 2, 74, 62
1, 68135, Note_on_c, 2, 75, 0
1, 68154, Note_on_c, 2, 72, 60
1, 68158, Note_on_c, 2, 74, 0
1, 68162, Note_on_c, 2, 72, 0
1, 68174, Note_on_c, 2, 50, 53
1, 68174, Note_on_c, 2, 53, 48
1, 68174, Note_on_c, 2, 71, 66
1, 68185, Note_on_c, 2, 53, 0
1, 68185, Note_on_c, 2, 50, 0
1, 68188, Note_on_c, 2, 71, 0
1, 68196, Note_on_c, 2, 51, 63
1, 68196, Note_on_c, 2, 55, 48
1, 68196, Note_on_c, 2, 74, 56
1, 68212, Note_on_c, 2, 74, 0
1, 68212, Note_on_c, 2, 72, 66
1, 68231, Note_on_c, 2, 75, 70
1, 68236, Note_on_c, 2, 55, 0
1, 68236, Note_on_c, 2, 51, 0
1, 68243, Note_on_c, 2, 72, 0
1, 68254, Note_on_c, 2, 75, 0
1, 68254, Note_on_c, 2, 74, 72
1, 68270, Note_on_c, 2, 77, 50
1, 68273, Note_on_c, 2, 74, 0
1, 68293, Note_on_c, 2, 77, 0
1, 68293, Note_on_c, 2, 75, 72
1, 68312, Note_on_c, 2, 75, 0
1, 68312, Note_on_c, 2, 79, 46
1, 68331, Note_on_c, 2, 79, 0
1, 68331, Note_on_c, 2, 78, 39
1, 68339, Note_on_c, 2, 78, 0
1, 68339, Note_on_c, 2, 77, 28
1, 68350, Note_on_c, 2, 77, 0
1, 68354, Note_on_c, 2, 79, 47
1, 68374, Note_on_c, 2, 77, 54
1, 68377, Note_on_c, 2, 79, 0
1, 68393, Note_on_c, 2, 75, 65
1, 68396, Note_on_c, 2, 77, 0
1, 68412, Note_on_c, 2, 74, 51
1, 68419, Note_on_c, 2, 75, 0
1, 68427, Note_on_c, 2, 74, 0
1, 68427, Note_on_c, 2, 72, 55
1, 68442, Note_on_c, 2, 72, 0
1, 68450, Note_on_c, 2, 70, 54
1, 68466, Note_on_c, 2, 70, 0
1, 68466, Note_on_c, 2, 52, 46
1, 68466, Note_on_c, 2, 55, 39
1, 68466, Note_on_c, 2, 69, 50
1, 68477, Note_on_c, 2, 55, 0
1, 68477, Note_on_c, 2, 52, 0
1, 68489, Note_on_c, 2, 69, 0
1, 68489, Note_on_c, 2, 70, 48
1, 68508, Note_on_c, 2, 70, 0
1, 68508, Note_on_c, 2, 53, 49
1, 68508, Note_on_c, 2, 57, 47
1, 68508, Note_on_c, 2, 69, 53
1, 68527, Note_on_c, 2, 70, 54
1, 68539, Note_on_c, 2, 69, 0
1, 68546, Note_on_c, 2, 72, 54
1, 68548, Note_on_c, 2, 53, 0
1, 68548, Note_on_c, 2, 57, 0
1, 68550, Note_on_c, 2, 70, 0
1, 68569, Note_on_c, 2, 74, 48
1, 68573, Note_on_c, 2, 72, 0
1, 68588, Note_on_c, 2, 74, 0
1, 68588, Note_on_c, 2, 76, 65
1, 68596, Note_on_c, 2, 76, 0
1, 68612, Note_on_c, 2, 77, 22
1, 68627, Note_on_c, 2, 77, 0
1, 68627, Note_on_c, 2, 76, 47
1, 68650, Note_on_c, 2, 76, 0
1, 68650, Note_on_c, 2, 77, 46
1, 68666, Note_on_c, 2, 45, 54
1, 68670, Note_on_c, 2, 77, 0
1, 68670, Note_on_c, 2, 65, 56
1, 68685, Note_on_c, 2, 46, 45
1, 68689, Note_on_c, 2, 45, 0
1, 68704, Note_on_c, 2, 48, 45
1, 68708, Note_on_c, 2, 46, 0
1, 68712, Note_on_c, 2, 48, 0
1, 68723, Note_on_c, 2, 50, 60
1, 68742, Note_on_c, 2, 50, 0
1, 68742, Note_on_c, 2, 52, 56
1, 68762, Note_on_c, 2, 53, 55
1, 68766, Note_on_c, 2, 52, 0
1, 68778, Note_on_c, 2, 53, 0
1, 68785, Note_on_c, 2, 52, 42
1, 68796, Note_on_c, 2, 53, 45
1, 68804, Note_on_c, 2, 52, 0
1, 68808, Note_on_c, 2, 53, 0
1, 68835, Note_on_c, 0, 41, 100
1, 68875, Note_on_c, 0, 41, 0
1, 68938, Note_on_c, 2, 65, 0
1, 68966, Note_on_c, 2, 84, 55
1, 68981, Note_on_c, 2, 84, 0
1, 68996, Note_on_c, 2, 84, 47
1, 69008, Note_on_c, 2, 84, 0
1, 69035, Note_on_c, 2, 84, 40
1, 69046, Note_on_c, 2, 84, 0
1, 69074, Note_on_c, 2, 84, 39
1, 69085, Note_on_c, 2, 84, 0
1, 69112, Note_on_c, 2, 84, 45
1, 69123, Note_on_c, 2, 84, 0
1, 69154, Note_on_c, 2, 53, 27
1, 69154, Note_on_c, 2, 84, 44
1, 69197, Note_on_c, 2, 60, 28
1, 69231, Note_on_c, 2, 60, 0
1, 69231, Note_on_c, 2, 57, 36
1, 69254, Note_on_c, 2, 53, 0
1, 69270, Note_on_c, 2, 82, 39
1, 69270, Note_on_c, 2, 60, 35
1, 69277, Note_on_c, 2, 84, 0
1, 69285, Note_on_c, 2, 57, 0
1, 69289, Note_on_c, 2, 81, 35
1, 69297, Note_on_c, 2, 82, 0
1, 69308, Note_on_c, 2, 60, 0
1, 69308, Note_on_c, 2, 55, 35
1, 69308, Note_on_c, 2, 79, 49
1, 69312, Note_on_c, 2, 81, 0
1, 69347, Note_on_c, 2, 60, 37
1, 69347, Note_on_c, 2, 77, 46
1, 69354, Note_on_c, 2, 79, 0
1, 69381, Note_on_c, 2, 77, 0
1, 69381, Note_on_c, 2, 58, 32
1, 69381, Note_on_c, 2, 76, 35
1, 69385, Note_on_c, 2, 60, 0
1, 69393, Note_on_c, 2, 55, 0
1, 69416, Note_on_c, 2, 76, 0
1, 69416, Note_on_c, 2, 60, 35
1, 69416, Note_on_c, 2, 79, 45
1, 69419, Note_on_c, 2, 58, 0
1, 69454, Note_on_c, 2, 79, 0
1, 69454, Note_on_c, 2, 77, 40
1, 69455, Note_on_c, 2, 57, 16
1, 69489, Note_on_c, 2, 60, 0
1, 69492, Note_on_c, 2, 53, 20
1, 69535, Note_on_c, 2, 57, 0
1, 69538, Note_on_c, 2, 77, 0
1, 69543, Note_on_c, 2, 60, 38
1, 69544, Note_on_c, 2, 72, 40
1, 69585, Note_on_c, 2, 84, 45
1, 69596, Note_on_c, 2, 72, 0
1, 69600, Note_on_c, 2, 53, 0
1, 69604, Note_on_c, 2, 60, 0
1, 69604, Note_on_c, 2, 84, 0
1, 69624, Note_on_c, 2, 84, 45
1, 69639, Note_on_c, 2, 84, 0
1, 69662, Note_on_c, 2, 84, 32
1, 69678, Note_on_c, 2, 84, 0
1, 69700, Note_on_c, 2, 84, 45
1, 69716, Note_on_c, 2, 84, 0
1, 69742, Note_on_c, 2, 84, 46
1, 69754, Note_on_c, 2, 84, 0
1, 69789, Note_on_c, 2, 84, 41
1, 69790, Note_on_c, 2, 53, 23
1, 69828, Note_on_c, 2, 60, 39
1, 69862, Note_on_c, 2, 60, 0
1, 69862, Note_on_c, 2, 57, 44
1, 69893, Note_on_c, 2, 53, 0
1, 69901, Note_on_c, 2, 60, 44
1, 69901, Note_on_c, 2, 82, 55
1, 69904, Note_on_c, 2, 84, 0
1, 69912, Note_on_c, 2, 57, 0
1, 69920, Note_on_c, 2, 81, 47
1, 69927, Note_on_c, 2, 82, 0
1, 69935, Note_on_c, 2, 81, 0
1, 69935, Note_on_c, 2, 79, 56
1, 69939, Note_on_c, 2, 52, 28
1, 69943, Note_on_c, 2, 60, 0
1, 69970, Note_on_c, 2, 60, 39
1, 69970, Note_on_c, 2, 81, 45
1, 70000, Note_on_c, 2, 79, 0
1, 70004, Note_on_c, 2, 60, 0
1, 70008, Note_on_c, 2, 55, 36
1, 70009, Note_on_c, 2, 82, 40
1, 70012, Note_on_c, 2, 81, 0
1, 70043, Note_on_c, 2, 52, 0
1, 70043, Note_on_c, 2, 79, 36
1, 70043, Note_on_c, 2, 60, 35
1, 70046, Note_on_c, 2, 55, 0
1, 70054, Note_on_c, 2, 82, 0
1, 70085, Note_on_c, 2, 81, 44
1, 70085, Note_on_c, 2, 53, 38
1, 70089, Note_on_c, 2, 79, 0
1, 70128, Note_on_c, 2, 60, 0
1, 70128, Note_on_c, 2, 57, 28
1, 70170, Note_on_c, 2, 60, 38
1, 70208, Note_on_c, 2, 84, 52
1, 70228, Note_on_c, 2, 84, 0
1, 70228, Note_on_c, 2, 81, 0
1, 70247, Note_on_c, 2, 84, 51
1, 70262, Note_on_c, 2, 84, 0
1, 70285, Note_on_c, 2, 84, 59
1, 70296, Note_on_c, 2, 84, 0
1, 70324, Note_on_c, 2, 84, 68
1, 70335, Note_on_c, 2, 60, 0
1, 70339, Note_on_c, 2, 53, 0
1, 70343, Note_on_c, 2, 57, 0
1, 70362, Note_on_c, 2, 85, 49
1, 70370, Note_on_c, 2, 84, 0
1, 70408, Note_on_c, 2, 86, 56
1, 70409, Note_on_c, 2, 46, 56
1, 70409, Note_on_c, 2, 58, 46
1, 70412, Note_on_c, 2, 85, 0
1, 70427, Note_on_c, 2, 86, 0
1, 70428, Note_on_c, 2, 74, 66
1, 70447, Note_on_c, 2, 73, 79
1, 70455, Note_on_c, 2, 74, 0
1, 70466, Note_on_c, 2, 73, 0
1, 70470, Note_on_c, 2, 74, 55
1, 70486, Note_on_c, 2, 74, 0
1, 70489, Note_on_c, 2, 75, 72
1, 70504, Note_on_c, 2, 75, 0
1, 70504, Note_on_c, 2, 74, 57
1, 70524, Note_on_c, 2, 74, 0
1, 70528, Note_on_c, 2, 76, 70
1, 70543, Note_on_c, 2, 76, 0
1, 70543, Note_on_c, 2, 74, 63
1, 70562, Note_on_c, 2, 74, 0
1, 70562, Note_on_c, 2, 77, 56
1, 70577, Note_on_c, 2, 77, 0
1, 70581, Note_on_c, 2, 74, 65
1, 70601, Note_on_c, 2, 74, 0
1, 70601, Note_on_c, 2, 78, 70
1, 70616, Note_on_c, 2, 78, 0
1, 70620, Note_on_c, 2, 74, 70
1, 70635, Note_on_c, 2, 74, 0
1, 70639, Note_on_c, 2, 79, 68
1, 70651, Note_on_c, 2, 58, 0
1, 70654, Note_on_c, 2, 79, 0
1, 70654, Note_on_c, 2, 46, 0
1, 70658, Note_on_c, 2, 74, 65
1, 70678, Note_on_c, 2, 74, 0
1, 70678, Note_on_c, 2, 81, 66
1, 70693, Note_on_c, 2, 81, 0
1, 70697, Note_on_c, 2, 74, 57
1, 70716, Note_on_c, 2, 55, 62
1, 70716, Note_on_c, 2, 82, 72
1, 70743, Note_on_c, 2, 55, 0
1, 70743, Note_on_c, 2, 57, 55
1, 70763, Note_on_c, 2, 58, 68
1, 70766, Note_on_c, 2, 57, 0
1, 70777, Note_on_c, 2, 58, 0
1, 70778, Note_on_c, 2, 57, 62
1, 70801, Note_on_c, 2, 57, 0
1, 70801, Note_on_c, 2, 55, 79
1, 70816, Note_on_c, 2, 55, 0
1, 70816, Note_on_c, 2, 57, 55
1, 70835, Note_on_c, 2, 57, 0
1, 70835, Note_on_c, 2, 53, 83
1, 70854, Note_on_c, 2, 53, 0
1, 70854, Note_on_c, 2, 55, 57
1, 70874, Note_on_c, 2, 55, 0
1, 70874, Note_on_c, 2, 52, 79
1, 70894, Note_on_c, 2, 52, 0
1, 70894, Note_on_c, 2, 53, 59
1, 70912, Note_on_c, 2, 53, 0
1, 70916, Note_on_c, 2, 50, 72
1, 70924, Note_on_c, 2, 74, 0
1, 70932, Note_on_c, 2, 50, 0
1, 70932, Note_on_c, 2, 82, 0
1, 70936, Note_on_c, 2, 52, 47
1, 70950, Note_on_c, 2, 52, 0
1, 70954, Note_on_c, 2, 81, 48
1, 70954, Note_on_c, 2, 48, 79
1, 70962, Note_on_c, 2, 82, 56
1, 70966, Note_on_c, 2, 81, 0
1, 70970, Note_on_c, 2, 48, 0
1, 70978, Note_on_c, 2, 82, 0
1, 70978, Note_on_c, 2, 81, 65
1, 70980, Note_on_c, 2, 50, 49
1, 70985, Note_on_c, 2, 82, 54
1, 70989, Note_on_c, 2, 81, 0
1, 70993, Note_on_c, 2, 46, 54
1, 70997, Note_on_c, 2, 82, 0
1, 71001, Note_on_c, 2, 81, 37
1, 71016, Note_on_c, 2, 81, 0
1, 71016, Note_on_c, 2, 82, 53
1, 71027, Note_on_c, 2, 82, 0
1, 71028, Note_on_c, 2, 81, 54
1, 71038, Note_on_c, 2, 81, 0
1, 71039, Note_on_c, 2, 82, 56
1, 71043, Note_on_c, 2, 46, 0
1, 71047, Note_on_c, 2, 45, 54
1, 71047, Note_on_c, 2, 57, 55
1, 71047, Note_on_c, 2, 84, 66
1, 71054, Note_on_c, 2, 82, 0
1, 71062, Note_on_c, 2, 84, 0
1, 71062, Note_on_c, 2, 72, 66
1, 71086, Note_on_c, 2, 71, 79
1, 71089, Note_on_c, 2, 72, 0
1, 71104, Note_on_c, 2, 71, 0
1, 71104, Note_on_c, 2, 72, 53
1, 71124, Note_on_c, 2, 72, 0
1, 71124, Note_on_c, 2, 73, 79
1, 71139, Note_on_c, 2, 73, 0
1, 71139, Note_on_c, 2, 72, 55
1, 71162, Note_on_c, 2, 72, 0
1, 71162, Note_on_c, 2, 74, 66
1, 71178, Note_on_c, 2, 74, 0
1, 71182, Note_on_c, 2, 72, 57
1, 71197, Note_on_c, 2, 72, 0
1, 71197, Note_on_c, 2, 75, 72
1, 71216, Note_on_c, 2, 75, 0
1, 71216, Note_on_c, 2, 72, 66
1, 71236, Note_on_c, 2, 72, 0
1, 71236, Note_on_c, 2, 76, 55
1, 71255, Note_on_c, 2, 76, 0
1, 71255, Note_on_c, 2, 72, 63
1, 71274, Note_on_c, 2, 72, 0
1, 71278, Note_on_c, 2, 77, 65
1, 71293, Note_on_c, 2, 77, 0
1, 71297, Note_on_c, 2, 72, 70
1, 71298, Note_on_c, 2, 45, 0
1, 71316, Note_on_c, 2, 79, 56
1, 71320, Note_on_c, 2, 72, 0
1, 71335, Note_on_c, 2, 79, 0
1, 71340, Note_on_c, 2, 72, 63
1, 71358, Note_on_c, 2, 53, 57
1, 71358, Note_on_c, 2, 81, 60
1, 71362, Note_on_c, 2, 57, 0
1, 71385, Note_on_c, 2, 55, 72
1, 71389, Note_on_c, 2, 53, 0
1, 71404, Note_on_c, 2, 55, 0
1, 71405, Note_on_c, 2, 57, 68
1, 71420, Note_on_c, 2, 55, 52
1, 71440, Note_on_c, 2, 57, 0
1, 71440, Note_on_c, 2, 53, 59
1, 71447, Note_on_c, 2, 55, 0
1, 71458, Note_on_c, 2, 53, 0
1, 71458, Note_on_c, 2, 55, 56
1, 71478, Note_on_c, 2, 55, 0
1, 71482, Note_on_c, 2, 52, 66
1, 71497, Note_on_c, 2, 52, 0
1, 71497, Note_on_c, 2, 53, 57
1, 71516, Note_on_c, 2, 53, 0
1, 71516, Note_on_c, 2, 50, 68
1, 71524, Note_on_c, 2, 50, 0
1, 71536, Note_on_c, 2, 50, 0
1, 71536, Note_on_c, 2, 52, 51
1, 71551, Note_on_c, 2, 72, 0
1, 71554, Note_on_c, 2, 52, 0
1, 71555, Note_on_c, 2, 48, 66
1, 71566, Note_on_c, 2, 81, 0
1, 71574, Note_on_c, 2, 48, 0
1, 71574, Note_on_c, 2, 50, 57
1, 71593, Note_on_c, 2, 50, 0
1, 71593, Note_on_c, 2, 81, 50
1, 71593, Note_on_c, 2, 46, 72
1, 71601, Note_on_c, 2, 82, 62
1, 71604, Note_on_c, 2, 81, 0
1, 71612, Note_on_c, 2, 82, 0
1, 71612, Note_on_c, 2, 81, 59
1, 71624, Note_on_c, 2, 81, 0
1, 71624, Note_on_c, 2, 82, 54
1, 71636, Note_on_c, 2, 82, 0
1, 71640, Note_on_c, 2, 81, 36
1, 71651, Note_on_c, 2, 82, 39
1, 71655, Note_on_c, 2, 81, 0
1, 71658, Note_on_c, 2, 82, 0
1, 71678, Note_on_c, 2, 46, 0
1, 71678, Note_on_c, 2, 43, 55
1, 71679, Note_on_c, 2, 55, 54
1, 71681, Note_on_c, 2, 82, 59
1, 71701, Note_on_c, 2, 70, 41
1, 71709, Note_on_c, 2, 82, 0
1, 71709, Note_on_c, 2, 43, 0
1, 71709, Note_on_c, 2, 55, 0
1, 71728, Note_on_c, 2, 55, 54
1, 71728, Note_on_c, 2, 43, 52
1, 71732, Note_on_c, 2, 69, 39
1, 71736, Note_on_c, 2, 70, 0
1, 71755, Note_on_c, 2, 70, 55
1, 71758, Note_on_c, 2, 69, 0
1, 71770, Note_on_c, 2, 72, 54
1, 71774, Note_on_c, 2, 70, 0
1, 71789, Note_on_c, 2, 70, 59
1, 71793, Note_on_c, 2, 72, 0
1, 71808, Note_on_c, 2, 74, 56
1, 71812, Note_on_c, 2, 70, 0
1, 71824, Note_on_c, 2, 74, 0
1, 71828, Note_on_c, 2, 70, 55
1, 71847, Note_on_c, 2, 75, 57
1, 71851, Note_on_c, 2, 70, 0
1, 71870, Note_on_c, 2, 70, 40
1, 71874, Note_on_c, 2, 75, 0
1, 71889, Note_on_c, 2, 76, 59
1, 71893, Note_on_c, 2, 70, 0
1, 71905, Note_on_c, 2, 76, 0
1, 71908, Note_on_c, 2, 70, 49
1, 71932, Note_on_c, 2, 70, 0
1, 71932, Note_on_c, 2, 77, 53
1, 71955, Note_on_c, 2, 77, 0
1, 71955, Note_on_c, 2, 70, 48
1, 71959, Note_on_c, 2, 43, 0
1, 71974, Note_on_c, 2, 70, 0
1, 71982, Note_on_c, 2, 78, 45
1, 72001, Note_on_c, 2, 78, 0
1, 72009, Note_on_c, 2, 70, 19
1, 72028, Note_on_c, 2, 70, 0
1, 72039, Note_on_c, 2, 79, 46
1, 72043, Note_on_c, 2, 48, 18
1, 72051, Note_on_c, 2, 55, 0
1, 72062, Note_on_c, 2, 52, 38
1, 72086, Note_on_c, 2, 55, 45
1, 72089, Note_on_c, 2, 52, 0
1, 72109, Note_on_c, 2, 48, 0
1, 72109, Note_on_c, 2, 52, 42
1, 72124, Note_on_c, 2, 52, 0
1, 72124, Note_on_c, 2, 79, 0
1, 72128, Note_on_c, 2, 55, 0
1, 72128, Note_on_c, 2, 48, 42
1, 72147, Note_on_c, 2, 52, 42
1, 72170, Note_on_c, 2, 52, 0
1, 72170, Note_on_c, 2, 55, 45
1, 72171, Note_on_c, 2, 82, 56
1, 72189, Note_on_c, 2, 82, 0
1, 72189, Note_on_c, 2, 48, 0
1, 72190, Note_on_c, 2, 52, 43
1, 72205, Note_on_c, 2, 52, 0
1, 72212, Note_on_c, 2, 55, 0
1, 72212, Note_on_c, 2, 48, 39
1, 72216, Note_on_c, 2, 81, 39
1, 72232, Note_on_c, 2, 52, 42
1, 72251, Note_on_c, 2, 52, 0
1, 72255, Note_on_c, 2, 55, 39
1, 72255, Note_on_c, 2, 79, 45
1, 72258, Note_on_c, 2, 81, 0
1, 72274, Note_on_c, 2, 48, 0
1, 72278, Note_on_c, 2, 52, 48
1, 72293, Note_on_c, 2, 52, 0
1, 72293, Note_on_c, 2, 55, 0
1, 72298, Note_on_c, 2, 48, 49
1, 72301, Note_on_c, 2, 77, 40
1, 72305, Note_on_c, 2, 79, 0
1, 72316, Note_on_c, 2, 52, 42
1, 72340, Note_on_c, 2, 52, 0
1, 72340, Note_on_c, 2, 55, 47
1, 72344, Note_on_c, 2, 76, 40
1, 72347, Note_on_c, 2, 77, 0
1, 72358, Note_on_c, 2, 48, 0
1, 72358, Note_on_c, 2, 52, 39
1, 72378, Note_on_c, 2, 52, 0
1, 72382, Note_on_c, 2, 48, 39
1, 72385, Note_on_c, 2, 55, 0
1, 72386, Note_on_c, 2, 79, 46
1, 72397, Note_on_c, 2, 76, 0
1, 72404, Note_on_c, 2, 53, 39
1, 72432, Note_on_c, 2, 53, 0
1, 72432, Note_on_c, 2, 57, 40
1, 72432, Note_on_c, 2, 77, 46
1, 72436, Note_on_c, 2, 79, 0
1, 72451, Note_on_c, 2, 48, 0
1, 72451, Note_on_c, 2, 53, 41
1, 72474, Note_on_c, 2, 57, 0
1, 72474, Note_on_c, 2, 48, 52
1, 72478, Note_on_c, 2, 53, 0
1, 72497, Note_on_c, 2, 53, 39
1, 72516, Note_on_c, 2, 57, 50
1, 72524, Note_on_c, 2, 53, 0
1, 72524, Note_on_c, 2, 84, 51
1, 72528, Note_on_c, 2, 77, 0
1, 72544, Note_on_c, 2, 48, 0
1, 72544, Note_on_c, 2, 53, 36
1, 72559, Note_on_c, 2, 53, 0
1, 72563, Note_on_c, 2, 48, 45
1, 72566, Note_on_c, 2, 57, 0
1, 72566, Note_on_c, 2, 82, 54
1, 72570, Note_on_c, 2, 84, 0
1, 72582, Note_on_c, 2, 51, 47
1, 72593, Note_on_c, 2, 48, 0
1, 72605, Note_on_c, 2, 54, 52
1, 72606, Note_on_c, 2, 81, 46
1, 72612, Note_on_c, 2, 51, 0
1, 72613, Note_on_c, 2, 82, 0
1, 72628, Note_on_c, 2, 48, 42
1, 72636, Note_on_c, 2, 54, 0
1, 72644, Note_on_c, 2, 51, 42
1, 72651, Note_on_c, 2, 79, 49
1, 72655, Note_on_c, 2, 81, 0
1, 72674, Note_on_c, 2, 54, 37
1, 72678, Note_on_c, 2, 79, 0
1, 72678, Note_on_c, 2, 51, 0
1, 72690, Note_on_c, 2, 48, 0
1, 72690, Note_on_c, 2, 51, 36
1, 72693, Note_on_c, 2, 78, 54
1, 72713, Note_on_c, 2, 78, 0
1, 72720, Note_on_c, 2, 51, 0
1, 72724, Note_on_c, 2, 54, 0
1, 72736, Note_on_c, 2, 46, 48
1, 72740, Note_on_c, 2, 79, 54
1, 72755, Note_on_c, 2, 50, 49
1, 72774, Note_on_c, 2, 50, 0
1, 72778, Note_on_c, 2, 55, 41
1, 72797, Note_on_c, 2, 46, 0
1, 72797, Note_on_c, 2, 50, 36
1, 72798, Note_on_c, 2, 81, 54
1, 72805, Note_on_c, 2, 79, 0
1, 72816, Note_on_c, 2, 50, 0
1, 72817, Note_on_c, 2, 55, 0
1, 72817, Note_on_c, 2, 46, 53
1, 72820, Note_on_c, 2, 81, 0
1, 72821, Note_on_c, 2, 84, 51
1, 72836, Note_on_c, 2, 50, 49
1, 72840, Note_on_c, 2, 82, 63
1, 72848, Note_on_c, 2, 84, 0
1, 72855, Note_on_c, 2, 46, 0
1, 72862, Note_on_c, 2, 81, 72
1, 72862, Note_on_c, 2, 55, 25
1, 72866, Note_on_c, 2, 82, 0
1, 72870, Note_on_c, 2, 50, 0
1, 72878, Note_on_c, 2, 81, 0
1, 72878, Note_on_c, 2, 79, 66
1, 72897, Note_on_c, 2, 55, 0
1, 72898, Note_on_c, 2, 48, 54
1, 72898, Note_on_c, 2, 77, 96
1, 72901, Note_on_c, 2, 79, 0
1, 72916, Note_on_c, 2, 53, 45
1, 72940, Note_on_c, 2, 48, 0
1, 72940, Note_on_c, 2, 57, 63
1, 72966, Note_on_c, 2, 53, 0
1, 72970, Note_on_c, 2, 57, 0
1, 72974, Note_on_c, 2, 77, 0
1, 72986, Note_on_c, 2, 48, 42
1, 72986, Note_on_c, 2, 52, 57
1, 72990, Note_on_c, 2, 55, 56
1, 72990, Note_on_c, 2, 76, 48
1, 72997, Note_on_c, 2, 77, 55
1, 73001, Note_on_c, 2, 76, 0
1, 73009, Note_on_c, 2, 52, 0
1, 73009, Note_on_c, 2, 77, 0
1, 73009, Note_on_c, 2, 76, 53
1, 73012, Note_on_c, 2, 48, 0
1, 73016, Note_on_c, 2, 55, 0
1, 73021, Note_on_c, 2, 76, 0
1, 73021, Note_on_c, 2, 77, 59
1, 73032, Note_on_c, 2, 77, 0
1, 73036, Note_on_c, 2, 76, 30
1, 73044, Note_on_c, 2, 77, 57
1, 73048, Note_on_c, 2, 76, 0
1, 73058, Note_on_c, 2, 76, 49
1, 73067, Note_on_c, 2, 77, 0
1, 73074, Note_on_c, 2, 76, 0
1, 73074, Note_on_c, 2, 53, 63
1, 73074, Note_on_c, 2, 65, 56
1, 73094, Note_on_c, 2, 77, 72
1, 73113, Note_on_c, 2, 65, 0
1, 73116, Note_on_c, 2, 77, 0
1, 73117, Note_on_c, 2, 76, 66
1, 73120, Note_on_c, 2, 53, 0
1, 73136, Note_on_c, 2, 77, 57
1, 73143, Note_on_c, 2, 76, 0
1, 73155, Note_on_c, 2, 77, 0
1, 73159, Note_on_c, 2, 60, 55
1, 73159, Note_on_c, 2, 48, 65
1, 73178, Note_on_c, 2, 72, 72
1, 73197, Note_on_c, 2, 72, 0
1, 73197, Note_on_c, 2, 71, 63
1, 73209, Note_on_c, 2, 60, 0
1, 73217, Note_on_c, 2, 48, 0
1, 73220, Note_on_c, 2, 72, 57
1, 73224, Note_on_c, 2, 71, 0
1, 73236, Note_on_c, 2, 72, 0
1, 73240, Note_on_c, 2, 45, 70
1, 73240, Note_on_c, 2, 57, 55
1, 73259, Note_on_c, 2, 69, 66
1, 73278, Note_on_c, 2, 69, 0
1, 73278, Note_on_c, 2, 68, 60
1, 73282, Note_on_c, 2, 57, 0
1, 73290, Note_on_c, 2, 45, 0
1, 73305, Note_on_c, 2, 69, 54
1, 73308, Note_on_c, 2, 68, 0
1, 73320, Note_on_c, 2, 69, 0
1, 73324, Note_on_c, 2, 41, 68
1, 73325, Note_on_c, 2, 53, 59
1, 73348, Note_on_c, 2, 65, 68
1, 73363, Note_on_c, 2, 41, 0
1, 73367, Note_on_c, 2, 65, 0
1, 73371, Note_on_c, 2, 64, 46
1, 73374, Note_on_c, 2, 53, 0
1, 73394, Note_on_c, 2, 64, 0
1, 73394, Note_on_c, 2, 65, 53
1, 73401, Note_on_c, 2, 65, 0
1, 73440, Note_on_c, 2, 48, 40
1, 73448, Note_on_c, 2, 72, 40
1, 73467, Note_on_c, 2, 55, 51
1, 73486, Note_on_c, 2, 55, 0
1, 73486, Note_on_c, 2, 58, 52
1, 73505, Note_on_c, 2, 48, 0
1, 73505, Note_on_c, 2, 55, 48
1, 73528, Note_on_c, 2, 48, 46
1, 73532, Note_on_c, 2, 58, 0
1, 73536, Note_on_c, 2, 55, 0
1, 73552, Note_on_c, 2, 55, 41
1, 73563, Note_on_c, 2, 72, 0
1, 73566, Note_on_c, 2, 58, 43
1, 73570, Note_on_c, 2, 82, 54
1, 73578, Note_on_c, 2, 55, 0
1, 73586, Note_on_c, 2, 48, 0
1, 73589, Note_on_c, 2, 82, 0
1, 73590, Note_on_c, 2, 55, 49
1, 73605, Note_on_c, 2, 58, 0
1, 73613, Note_on_c, 2, 55, 0
1, 73613, Note_on_c, 2, 48, 49
1, 73616, Note_on_c, 2, 81, 53
1, 73632, Note_on_c, 2, 55, 46
1, 73656, Note_on_c, 2, 55, 0
1, 73656, Note_on_c, 2, 58, 49
1, 73659, Note_on_c, 2, 81, 0
1, 73659, Note_on_c, 2, 79, 53
1, 73678, Note_on_c, 2, 55, 45
1, 73682, Note_on_c, 2, 58, 0
1, 73686, Note_on_c, 2, 48, 0
1, 73697, Note_on_c, 2, 55, 0
1, 73698, Note_on_c, 2, 48, 54
1, 73701, Note_on_c, 2, 77, 47
1, 73705, Note_on_c, 2, 79, 0
1, 73717, Note_on_c, 2, 55, 45
1, 73740, Note_on_c, 2, 55, 0
1, 73740, Note_on_c, 2, 58, 50
1, 73744, Note_on_c, 2, 77, 0
1, 73744, Note_on_c, 2, 76, 53
1, 73763, Note_on_c, 2, 48, 0
1, 73763, Note_on_c, 2, 55, 38
1, 73778, Note_on_c, 2, 58, 0
1, 73782, Note_on_c, 2, 55, 0
1, 73786, Note_on_c, 2, 48, 50
1, 73790, Note_on_c, 2, 79, 45
1, 73794, Note_on_c, 2, 76, 0
1, 73809, Note_on_c, 2, 53, 56
1, 73828, Note_on_c, 2, 77, 55
1, 73832, Note_on_c, 2, 57, 55
1, 73836, Note_on_c, 2, 53, 0
1, 73836, Note_on_c, 2, 79, 0
1, 73844, Note_on_c, 2, 57, 0
1, 73847, Note_on_c, 2, 53, 46
1, 73855, Note_on_c, 2, 48, 0
1, 73870, Note_on_c, 2, 53, 0
1, 73875, Note_on_c, 2, 48, 57
1, 73894, Note_on_c, 2, 53, 49
1, 73909, Note_on_c, 2, 53, 0
1, 73913, Note_on_c, 2, 57, 66
1, 73917, Note_on_c, 2, 84, 52
1, 73920, Note_on_c, 2, 48, 0
1, 73924, Note_on_c, 2, 77, 0
1, 73948, Note_on_c, 2, 57, 0
1, 73955, Note_on_c, 2, 48, 55
1, 73959, Note_on_c, 2, 82, 57
1, 73963, Note_on_c, 2, 84, 0
1, 73974, Note_on_c, 2, 51, 44
1, 73998, Note_on_c, 2, 54, 39
1, 73998, Note_on_c, 2, 81, 55
1, 74005, Note_on_c, 2, 51, 0
1, 74005, Note_on_c, 2, 82, 0
1, 74017, Note_on_c, 2, 48, 0
1, 74017, Note_on_c, 2, 51, 45
1, 74024, Note_on_c, 2, 54, 0
1, 74036, Note_on_c, 2, 51, 0
1, 74040, Note_on_c, 2, 81, 0
1, 74040, Note_on_c, 2, 79, 47
1, 74040, Note_on_c, 2, 48, 49
1, 74063, Note_on_c, 2, 51, 31
1, 74067, Note_on_c, 2, 79, 0
1, 74075, Note_on_c, 2, 48, 0
1, 74082, Note_on_c, 2, 54, 45
1, 74086, Note_on_c, 2, 78, 52
1, 74090, Note_on_c, 2, 51, 0
1, 74102, Note_on_c, 2, 78, 0
1, 74109, Note_on_c, 2, 54, 0
1, 74120, Note_on_c, 2, 46, 48
1, 74128, Note_on_c, 2, 79, 65
1, 74141, Note_on_c, 2, 50, 50
1, 74160, Note_on_c, 2, 50, 0
1, 74163, Note_on_c, 2, 55, 50
1, 74182, Note_on_c, 2, 50, 46
1, 74186, Note_on_c, 2, 46, 0
1, 74197, Note_on_c, 2, 55, 0
1, 74202, Note_on_c, 2, 50, 0
1, 74206, Note_on_c, 2, 46, 60
1, 74206, Note_on_c, 2, 81, 48
1, 74213, Note_on_c, 2, 79, 0
1, 74225, Note_on_c, 2, 50, 42
1, 74232, Note_on_c, 2, 46, 0
1, 74232, Note_on_c, 2, 82, 42
1, 74240, Note_on_c, 2, 81, 0
1, 74244, Note_on_c, 2, 50, 0
1, 74251, Note_on_c, 2, 84, 47
1, 74256, Note_on_c, 2, 82, 0
1, 74266, Note_on_c, 2, 86, 45
1, 74275, Note_on_c, 2, 86, 0
1, 74275, Note_on_c, 2, 84, 0
1, 74286, Note_on_c, 2, 48, 50
1, 74286, Note_on_c, 2, 86, 49
1, 74306, Note_on_c, 2, 53, 42
1, 74310, Note_on_c, 2, 77, 48
1, 74313, Note_on_c, 2, 86, 0
1, 74328, Note_on_c, 2, 48, 0
1, 74329, Note_on_c, 2, 57, 53
1, 74344, Note_on_c, 2, 53, 0
1, 74355, Note_on_c, 2, 57, 0
1, 74356, Note_on_c, 2, 77, 0
1, 74370, Note_on_c, 2, 48, 40
1, 74371, Note_on_c, 2, 52, 55
1, 74371, Note_on_c, 2, 79, 65
1, 74375, Note_on_c, 2, 55, 52
1, 74382, Note_on_c, 2, 79, 0
1, 74382, Note_on_c, 2, 81, 48
1, 74394, Note_on_c, 2, 81, 0
1, 74394, Note_on_c, 2, 79, 54
1, 74398, Note_on_c, 2, 52, 0
1, 74401, Note_on_c, 2, 48, 0
1, 74406, Note_on_c, 2, 79, 0
1, 74406, Note_on_c, 2, 81, 43
1, 74409, Note_on_c, 2, 55, 0
1, 74413, Note_on_c, 2, 81, 0
1, 74417, Note_on_c, 2, 79, 32
1, 74424, Note_on_c, 2, 79, 0
1, 74425, Note_on_c, 2, 81, 55
1, 74440, Note_on_c, 2, 79, 39
1, 74444, Note_on_c, 2, 81, 0
1, 74459, Note_on_c, 2, 79, 0
1, 74460, Note_on_c, 2, 77, 70
1, 74460, Note_on_c, 2, 53, 66
1, 74461, Note_on_c, 2, 57, 66
1, 74502, Note_on_c, 2, 84, 55
1, 74509, Note_on_c, 2, 77, 0
1, 74521, Note_on_c, 2, 81, 53
1, 74525, Note_on_c, 2, 84, 0
1, 74540, Note_on_c, 2, 77, 57
1, 74548, Note_on_c, 2, 81, 0
1, 74559, Note_on_c, 2, 77, 0
1, 74559, Note_on_c, 2, 72, 72
1, 74571, Note_on_c, 2, 72, 0
1, 74579, Note_on_c, 2, 69, 47
1, 74594, Note_on_c, 2, 69, 0
1, 74601, Note_on_c, 2, 65, 48
1, 74609, Note_on_c, 2, 65, 0
1, 74621, Note_on_c, 2, 60, 62
1, 74624, Note_on_c, 2, 63, 72
1, 74632, Note_on_c, 2, 53, 0
1, 74633, Note_on_c, 2, 57, 0
1, 74664, Note_on_c, 2, 41, 55
1, 74664, Note_on_c, 2, 53, 54
1, 74674, Note_on_c, 2, 41, 0
1, 74675, Note_on_c, 2, 53, 0
1, 74706, Note_on_c, 2, 45, 66
1, 74706, Note_on_c, 2, 57, 53
1, 74713, Note_on_c, 2, 57, 0
1, 74713, Note_on_c, 2, 45, 0
1, 74744, Note_on_c, 2, 41, 63
1, 74744, Note_on_c, 2, 53, 49
1, 74751, Note_on_c, 2, 41, 0
1, 74756, Note_on_c, 2, 53, 0
1, 74763, Note_on_c, 2, 60, 0
1, 74763, Note_on_c, 2, 63, 0
1, 74782, Note_on_c, 2, 46, 62
1, 74786, Note_on_c, 2, 58, 63
1, 74825, Note_on_c, 2, 62, 55
1, 74848, Note_on_c, 2, 62, 0
1, 74852, Note_on_c, 2, 46, 0
1, 74863, Note_on_c, 2, 55, 55
1, 74867, Note_on_c, 2, 58, 0
1, 74909, Note_on_c, 2, 70, 52
1, 74909, Note_on_c, 2, 74, 56
1, 74948, Note_on_c, 2, 60, 54
1, 74990, Note_on_c, 2, 69, 45
1, 74991, Note_on_c, 2, 72, 55
1, 74994, Note_on_c, 2, 74, 0
1, 74994, Note_on_c, 2, 70, 0
1, 75002, Note_on_c, 2, 72, 0
1, 75005, Note_on_c, 2, 69, 0
1, 75025, Note_on_c, 2, 60, 0
1, 75029, Note_on_c, 2, 48, 52
1, 75068, Note_on_c, 2, 58, 48
1, 75068, Note_on_c, 2, 64, 56
1, 75082, Note_on_c, 2, 55, 0
1, 75086, Note_on_c, 2, 58, 0
1, 75098, Note_on_c, 2, 64, 0
1, 75110, Note_on_c, 2, 48, 0
1, 75110, Note_on_c, 2, 53, 47
1, 75113, Note_on_c, 2, 57, 53
1, 75156, Note_on_c, 2, 84, 55
1, 75175, Note_on_c, 2, 81, 47
1, 75182, Note_on_c, 2, 84, 0
1, 75194, Note_on_c, 2, 77, 50
1, 75206, Note_on_c, 2, 81, 0
1, 75217, Note_on_c, 2, 77, 0
1, 75217, Note_on_c, 2, 72, 68
1, 75229, Note_on_c, 2, 72, 0
1, 75240, Note_on_c, 2, 69, 46
1, 75252, Note_on_c, 2, 69, 0
1, 75259, Note_on_c, 2, 65, 49
1, 75263, Note_on_c, 2, 65, 0
1, 75278, Note_on_c, 2, 60, 65
1, 75279, Note_on_c, 2, 63, 83
1, 75286, Note_on_c, 2, 57, 0
1, 75290, Note_on_c, 2, 53, 0
1, 75321, Note_on_c, 2, 41, 65
1, 75322, Note_on_c, 2, 53, 55
1, 75333, Note_on_c, 2, 53, 0
1, 75333, Note_on_c, 2, 41, 0
1, 75360, Note_on_c, 2, 57, 51
1, 75363, Note_on_c, 2, 45, 53
1, 75368, Note_on_c, 2, 57, 0
1, 75371, Note_on_c, 2, 45, 0
1, 75402, Note_on_c, 2, 41, 60
1, 75402, Note_on_c, 2, 53, 54
1, 75409, Note_on_c, 2, 41, 0
1, 75413, Note_on_c, 2, 53, 0
1, 75444, Note_on_c, 2, 46, 63
1, 75445, Note_on_c, 2, 58, 65
1, 75452, Note_on_c, 2, 63, 0
1, 75456, Note_on_c, 2, 60, 0
1, 75486, Note_on_c, 2, 62, 54
1, 75517, Note_on_c, 2, 62, 0
1, 75525, Note_on_c, 2, 46, 0
1, 75529, Note_on_c, 2, 58, 0
1, 75529, Note_on_c, 2, 55, 54
1, 75571, Note_on_c, 2, 70, 51
1, 75571, Note_on_c, 2, 74, 57
1, 75613, Note_on_c, 2, 60, 59
1, 75652, Note_on_c, 2, 72, 57
1, 75652, Note_on_c, 2, 69, 50
1, 75656, Note_on_c, 2, 70, 0
1, 75660, Note_on_c, 2, 74, 0
1, 75664, Note_on_c, 2, 72, 0
1, 75667, Note_on_c, 2, 69, 0
1, 75694, Note_on_c, 2, 60, 0
1, 75694, Note_on_c, 2, 48, 52
1, 75698, Note_on_c, 2, 55, 0
1, 75710, Note_on_c, 2, 48, 0
1, 75733, Note_on_c, 2, 58, 42
1, 75734, Note_on_c, 2, 64, 54
1, 75744, Note_on_c, 2, 58, 0
1, 75751, Note_on_c, 2, 64, 0
1, 75775, Note_on_c, 2, 41, 56
1, 75775, Note_on_c, 2, 65, 65
1, 75775, Note_on_c, 2, 57, 55
1, 75794, Note_on_c, 2, 41, 0
1, 75798, Note_on_c, 2, 53, 63
1, 75813, Note_on_c, 2, 52, 63
1, 75817, Note_on_c, 2, 53, 0
1, 75829, Note_on_c, 2, 57, 0
1, 75832, Note_on_c, 2, 52, 0
1, 75833, Note_on_c, 2, 53, 57
1, 75852, Note_on_c, 2, 53, 0
1, 75852, Note_on_c, 2, 65, 0
1, 75856, Note_on_c, 2, 41, 65
1, 75875, Note_on_c, 2, 41, 0
1, 75875, Note_on_c, 2, 53, 54
1, 75898, Note_on_c, 2, 65, 53
1, 75899, Note_on_c, 2, 69, 53
1, 75899, Note_on_c, 2, 52, 57
1, 75902, Note_on_c, 2, 53, 0
1, 75915, Note_on_c, 2, 53, 51
1, 75917, Note_on_c, 2, 65, 0
1, 75917, Note_on_c, 2, 69, 0
1, 75921, Note_on_c, 2, 52, 0
1, 75923, Note_on_c, 2, 53, 0
1, 75932, Note_on_c, 2, 41, 41
1, 75936, Note_on_c, 2, 64, 54
1, 75940, Note_on_c, 2, 67, 55
1, 75952, Note_on_c, 2, 64, 0
1, 75952, Note_on_c, 2, 41, 0
1, 75956, Note_on_c, 2, 67, 0
1, 75960, Note_on_c, 2, 53, 50
1, 75975, Note_on_c, 2, 64, 56
1, 75975, Note_on_c, 2, 67, 57
1, 75982, Note_on_c, 2, 52, 54
1, 75998, Note_on_c, 2, 64, 0
1, 75998, Note_on_c, 2, 53, 0
1, 76002, Note_on_c, 2, 67, 0
1, 76002, Note_on_c, 2, 52, 0
1, 76006, Note_on_c, 2, 53, 55
1, 76017, Note_on_c, 2, 53, 0
1, 76017, Note_on_c, 2, 41, 39
1, 76036, Note_on_c, 2, 41, 0
1, 76040, Note_on_c, 2, 53, 68
1, 76059, Note_on_c, 2, 52, 57
1, 76060, Note_on_c, 2, 70, 48
1, 76063, Note_on_c, 2, 53, 0
1, 76063, Note_on_c, 2, 67, 40
1, 76075, Note_on_c, 2, 67, 0
1, 76079, Note_on_c, 2, 70, 0
1, 76079, Note_on_c, 2, 52, 0
1, 76086, Note_on_c, 2, 53, 17
1, 76091, Note_on_c, 2, 53, 0
1, 76094, Note_on_c, 2, 41, 55
1, 76098, Note_on_c, 2, 65, 56
1, 76098, Note_on_c, 2, 69, 56
1, 76113, Note_on_c, 2, 41, 0
1, 76114, Note_on_c, 2, 69, 0
1, 76114, Note_on_c, 2, 65, 0
1, 76117, Note_on_c, 2, 53, 62
1, 76140, Note_on_c, 2, 53, 0
1, 76140, Note_on_c, 2, 52, 55
1, 76141, Note_on_c, 2, 65, 48
1, 76141, Note_on_c, 2, 69, 51
1, 76152, Note_on_c, 2, 65, 0
1, 76156, Note_on_c, 2, 69, 0
1, 76160, Note_on_c, 2, 52, 0
1, 76164, Note_on_c, 2, 53, 49
1, 76179, Note_on_c, 2, 53, 0
1, 76179, Note_on_c, 2, 41, 48
1, 76198, Note_on_c, 2, 41, 0
1, 76198, Note_on_c, 2, 53, 50
1, 76218, Note_on_c, 2, 77, 49
1, 76222, Note_on_c, 2, 52, 52
1, 76222, Note_on_c, 2, 81, 46
1, 76224, Note_on_c, 2, 53, 0
1, 76236, Note_on_c, 2, 77, 0
1, 76236, Note_on_c, 2, 81, 0
1, 76240, Note_on_c, 2, 52, 0
1, 76252, Note_on_c, 2, 41, 60
1, 76259, Note_on_c, 2, 79, 59
1, 76260, Note_on_c, 2, 76, 46
1, 76271, Note_on_c, 2, 76, 0
1, 76271, Note_on_c, 2, 79, 0
1, 76275, Note_on_c, 2, 41, 0
1, 76278, Note_on_c, 2, 53, 56
1, 76294, Note_on_c, 2, 76, 56
1, 76294, Note_on_c, 2, 79, 65
1, 76298, Note_on_c, 2, 52, 56
1, 76302, Note_on_c, 2, 53, 0
1, 76317, Note_on_c, 2, 76, 0
1, 76321, Note_on_c, 2, 79, 0
1, 76321, Note_on_c, 2, 53, 45
1, 76325, Note_on_c, 2, 52, 0
1, 76340, Note_on_c, 2, 53, 0
1, 76340, Note_on_c, 2, 41, 62
1, 76360, Note_on_c, 2, 41, 0
1, 76368, Note_on_c, 2, 53, 36
1, 76390, Note_on_c, 2, 52, 60
1, 76390, Note_on_c, 2, 76, 48
1, 76394, Note_on_c, 2, 53, 0
1, 76394, Note_on_c, 2, 82, 42
1, 76394, Note_on_c, 2, 79, 40
1, 76402, Note_on_c, 2, 52, 0
1, 76406, Note_on_c, 2, 79, 0
1, 76409, Note_on_c, 2, 82, 0
1, 76409, Note_on_c, 2, 76, 0
1, 76456, Note_on_c, 2, 82, 79
1, 76456, Note_on_c, 2, 41, 56
1, 76456, Note_on_c, 2, 53, 68
1, 76456, Note_on_c, 2, 76, 65
1, 76456, Note_on_c, 2, 79, 83
1, 76625, Note_on_c, 2, 79, 0
1, 76625, Note_on_c, 2, 82, 0
1, 76668, Note_on_c, 2, 76, 0
1, 76794, Note_on_c, 2, 77, 40
1, 76794, Note_on_c, 2, 81, 40
1, 76987, Note_on_c, 2, 77, 0
1, 76995, Note_on_c, 2, 81, 0
1, 76995, Note_on_c, 2, 53, 0
1, 77002, Note_on_c, 2, 41, 0
1, 77012, End_track
0, 0, End_of_file