0, 0, Header, 0, 1, 240
1, 0, Start_track
1, 0, Tempo, 500000
1, 338, Note_on_c, 0, 72, 35
1, 534, Note_on_c, 0, 72, 0
1, 653, Note_on_c, 0, 72, 39
1, 789, Note_on_c, 0, 72, 0
1, 933, Note_on_c, 0, 72, 48
1, 1040, Note_on_c, 0, 72, 0
1, 1235, Note_on_c, 0, 72, 64
1, 1238, Note_on_c, 0, 60, 35
1, 1250, Note_on_c, 0, 53, 35
1, 1250, Note_on_c, 0, 57, 35
1, 1396, Note_on_c, 0, 72, 0
1, 1406, Note_on_c, 0, 74, 62
1, 1436, Note_on_c, 0, 74, 0
1, 1454, Note_on_c, 0, 72, 63
1, 1477, Note_on_c, 0, 72, 0
1, 1487, Note_on_c, 0, 71, 65
1, 1517, Note_on_c, 0, 71, 0
1, 1529, Note_on_c, 0, 72, 67
1, 1665, Note_on_c, 0, 77, 65
1, 1669, Note_on_c, 0, 72, 0
1, 1728, Note_on_c, 0, 77, 0
1, 1839, Note_on_c, 0, 72, 42
1, 1973, Note_on_c, 0, 72, 0
1, 2153, Note_on_c, 0, 69, 57
1, 2234, Note_on_c, 0, 60, 0
1, 2249, Note_on_c, 0, 57, 0
1, 2254, Note_on_c, 0, 53, 0
1, 2461, Note_on_c, 0, 72, 61
1, 2478, Note_on_c, 0, 55, 35
1, 2478, Note_on_c, 0, 58, 36
1, 2490, Note_on_c, 0, 48, 35
1, 2544, Note_on_c, 0, 69, 0
1, 2779, Note_on_c, 0, 64, 57
1, 2808, Note_on_c, 0, 72, 0
1, 2991, Note_on_c, 0, 58, 0
1, 3006, Note_on_c, 0, 55, 0
1, 3140, Note_on_c, 0, 67, 56
1, 3152, Note_on_c, 0, 58, 35
1, 3154, Note_on_c, 0, 50, 35
1, 3181, Note_on_c, 0, 48, 0
1, 3205, Note_on_c, 0, 64, 0
1, 3614, Note_on_c, 0, 58, 0
1, 3820, Note_on_c, 0, 65, 36
1, 3822, Note_on_c, 0, 57, 35
1, 3872, Note_on_c, 0, 67, 0
1, 3984, Note_on_c, 0, 65, 0
1, 3985, Note_on_c, 0, 50, 0
1, 4042, Note_on_c, 0, 57, 0
1, 4167, Note_on_c, 0, 65, 61
1, 4177, Note_on_c, 0, 60, 49
1, 4178, Note_on_c, 0, 57, 45
1, 4188, Note_on_c, 0, 45, 39
1, 4297, Note_on_c, 0, 45, 0
1, 4323, Note_on_c, 0, 57, 0
1, 4457, Note_on_c, 0, 64, 64
1, 4460, Note_on_c, 0, 67, 68
1, 4467, Note_on_c, 0, 55, 46
1, 4467, Note_on_c, 0, 43, 43
1, 4471, Note_on_c, 0, 65, 0
1, 4554, Note_on_c, 0, 60, 0
1, 4585, Note_on_c, 0, 64, 0
1, 4590, Note_on_c, 0, 43, 0
1, 4597, Note_on_c, 0, 55, 0
1, 4661, Note_on_c, 0, 67, 0
1, 4738, Note_on_c, 0, 69, 74
1, 4740, Note_on_c, 0, 65, 58
1, 4744, Note_on_c, 0, 60, 47
1, 4749, Note_on_c, 0, 41, 51
1, 4750, Note_on_c, 0, 53, 49
1, 4817, Note_on_c, 0, 65, 0
1, 4819, Note_on_c, 0, 60, 0
1, 4826, Note_on_c, 0, 41, 0
1, 4854, Note_on_c, 0, 53, 0
1, 4860, Note_on_c, 0, 69, 0
1, 5060, Note_on_c, 0, 70, 77
1, 5066, Note_on_c, 0, 65, 59
1, 5070, Note_on_c, 0, 62, 38
1, 5071, Note_on_c, 0, 50, 35
1, 5216, Note_on_c, 0, 62, 0
1, 5236, Note_on_c, 0, 50, 0
1, 5410, Note_on_c, 0, 58, 51
1, 5420, Note_on_c, 0, 46, 44
1, 5575, Note_on_c, 0, 72, 68
1, 5590, Note_on_c, 0, 58, 0
1, 5606, Note_on_c, 0, 70, 0
1, 5643, Note_on_c, 0, 74, 65
1, 5648, Note_on_c, 0, 72, 0
1, 5705, Note_on_c, 0, 74, 0
1, 5721, Note_on_c, 0, 46, 0
1, 5722, Note_on_c, 0, 72, 60
1, 5739, Note_on_c, 0, 45, 35
1, 5739, Note_on_c, 0, 57, 37
1, 5892, Note_on_c, 0, 72, 0
1, 5917, Note_on_c, 0, 65, 0
1, 6005, Note_on_c, 0, 45, 0
1, 6018, Note_on_c, 0, 57, 0
1, 6105, Note_on_c, 0, 65, 45
1, 6423, Note_on_c, 0, 64, 48
1, 6429, Note_on_c, 0, 59, 39
1, 6434, Note_on_c, 0, 50, 35
1, 6539, Note_on_c, 0, 65, 0
1, 6720, Note_on_c, 0, 65, 55
1, 6848, Note_on_c, 0, 64, 0
1, 6851, Note_on_c, 0, 59, 0
1, 6864, Note_on_c, 0, 65, 0
1, 7102, Note_on_c, 0, 69, 59
1, 7107, Note_on_c, 0, 60, 35
1, 7107, Note_on_c, 0, 65, 35
1, 7115, Note_on_c, 0, 48, 36
1, 7196, Note_on_c, 0, 50, 0
1, 7480, Note_on_c, 0, 65, 0
1, 7630, Note_on_c, 0, 69, 0
1, 7818, Note_on_c, 0, 67, 36
1, 7822, Note_on_c, 0, 64, 35
1, 8036, Note_on_c, 0, 60, 0
1, 8043, Note_on_c, 0, 64, 0
1, 8056, Note_on_c, 0, 67, 0
1, 8064, Note_on_c, 0, 48, 0
1, 8237, Note_on_c, 0, 67, 53
1, 8419, Note_on_c, 0, 67, 0
1, 8552, Note_on_c, 0, 67, 61
1, 8556, Note_on_c, 0, 64, 46
1, 8559, Note_on_c, 0, 60, 41
1, 8703, Note_on_c, 0, 67, 0
1, 8714, Note_on_c, 0, 64, 0
1, 8720, Note_on_c, 0, 60, 0
1, 8847, Note_on_c, 0, 67, 68
1, 8992, Note_on_c, 0, 67, 0
1, 9153, Note_on_c, 0, 67, 59
1, 9202, Note_on_c, 0, 79, 75
1, 9210, Note_on_c, 0, 59, 37
1, 9211, Note_on_c, 0, 62, 42
1, 9211, Note_on_c, 0, 65, 42
1, 9391, Note_on_c, 0, 67, 0
1, 9783, Note_on_c, 0, 74, 51
1, 9799, Note_on_c, 0, 79, 0
1, 9835, Note_on_c, 0, 74, 0
1, 9835, Note_on_c, 0, 71, 55
1, 9889, Note_on_c, 0, 71, 0
1, 9922, Note_on_c, 0, 67, 50
1, 10060, Note_on_c, 0, 67, 0
1, 10204, Note_on_c, 0, 67, 57
1, 10352, Note_on_c, 0, 67, 0
1, 10405, Note_on_c, 0, 62, 0
1, 10486, Note_on_c, 0, 67, 65
1, 10498, Note_on_c, 0, 60, 45
1, 10500, Note_on_c, 0, 65, 0
1, 10500, Note_on_c, 0, 64, 48
1, 10505, Note_on_c, 0, 59, 0
1, 10632, Note_on_c, 0, 67, 0
1, 10636, Note_on_c, 0, 64, 0
1, 10656, Note_on_c, 0, 60, 0
1, 10762, Note_on_c, 0, 67, 71
1, 10840, Note_on_c, 0, 67, 0
1, 11041, Note_on_c, 0, 67, 70
1, 11100, Note_on_c, 0, 79, 81
1, 11107, Note_on_c, 0, 59, 50
1, 11110, Note_on_c, 0, 53, 42
1, 11115, Note_on_c, 0, 50, 43
1, 11184, Note_on_c, 0, 67, 0
1, 11497, Note_on_c, 0, 59, 0
1, 11537, Note_on_c, 0, 53, 0
1, 11805, Note_on_c, 0, 52, 35
1, 11807, Note_on_c, 0, 60, 35
1, 11813, Note_on_c, 0, 55, 35
1, 11953, Note_on_c, 0, 50, 0
1, 11986, Note_on_c, 0, 79, 0
1, 11993, Note_on_c, 0, 81, 56
1, 12046, Note_on_c, 0, 83, 66
1, 12066, Note_on_c, 0, 81, 0
1, 12109, Note_on_c, 0, 83, 0
1, 12123, Note_on_c, 0, 84, 50
1, 12165, Note_on_c, 0, 84, 0
1, 12265, Note_on_c, 0, 55, 0
1, 12265, Note_on_c, 0, 60, 0
1, 12267, Note_on_c, 0, 52, 0
1, 12267, Note_on_c, 0, 83, 54
1, 12295, Note_on_c, 0, 83, 0
1, 12408, Note_on_c, 0, 81, 43
1, 12434, Note_on_c, 0, 81, 0
1, 12544, Note_on_c, 0, 79, 45
1, 12588, Note_on_c, 0, 79, 0
1, 12690, Note_on_c, 0, 77, 43
1, 12716, Note_on_c, 0, 77, 0
1, 12831, Note_on_c, 0, 76, 44
1, 12853, Note_on_c, 0, 76, 0
1, 12987, Note_on_c, 0, 73, 40
1, 13125, Note_on_c, 0, 74, 49
1, 13165, Note_on_c, 0, 73, 0
1, 13257, Note_on_c, 0, 77, 55
1, 13269, Note_on_c, 0, 62, 35
1, 13274, Note_on_c, 0, 57, 35
1, 13279, Note_on_c, 0, 53, 35
1, 13402, Note_on_c, 0, 81, 59
1, 13408, Note_on_c, 0, 57, 0
1, 13410, Note_on_c, 0, 53, 0
1, 13431, Note_on_c, 0, 74, 0
1, 13465, Note_on_c, 0, 62, 0
1, 13536, Note_on_c, 0, 77, 0
1, 13576, Note_on_c, 0, 72, 56
1, 13588, Note_on_c, 0, 55, 35
1, 13588, Note_on_c, 0, 64, 38
1, 13597, Note_on_c, 0, 60, 36
1, 13626, Note_on_c, 0, 81, 0
1, 13948, Note_on_c, 0, 64, 0
1, 14180, Note_on_c, 0, 65, 35
1, 14183, Note_on_c, 0, 62, 35
1, 14264, Note_on_c, 0, 60, 0
1, 14503, Note_on_c, 0, 72, 0
1, 14503, Note_on_c, 0, 65, 0
1, 14505, Note_on_c, 0, 76, 54
1, 14510, Note_on_c, 0, 71, 45
1, 14535, Note_on_c, 0, 62, 0
1, 14666, Note_on_c, 0, 74, 54
1, 14724, Note_on_c, 0, 71, 0
1, 14726, Note_on_c, 0, 76, 0
1, 14772, Note_on_c, 0, 74, 0
1, 14857, Note_on_c, 0, 72, 39
1, 14870, Note_on_c, 0, 60, 35
1, 14876, Note_on_c, 0, 64, 35
1, 14956, Note_on_c, 0, 55, 0
1, 15109, Note_on_c, 0, 64, 0
1, 15115, Note_on_c, 0, 60, 0
1, 15255, Note_on_c, 0, 72, 0
1, 15573, Note_on_c, 0, 48, 35
1, 15985, Note_on_c, 0, 72, 45
1, 16068, Note_on_c, 0, 48, 0
1, 16152, Note_on_c, 0, 72, 0
1, 16302, Note_on_c, 0, 72, 48
1, 16426, Note_on_c, 0, 72, 0
1, 16584, Note_on_c, 0, 72, 60
1, 16692, Note_on_c, 0, 72, 0
1, 16900, Note_on_c, 0, 72, 60
1, 16908, Note_on_c, 0, 60, 35
1, 16914, Note_on_c, 0, 57, 35
1, 16917, Note_on_c, 0, 53, 35
1, 17048, Note_on_c, 0, 72, 0
1, 17062, Note_on_c, 0, 74, 61
1, 17113, Note_on_c, 0, 74, 0
1, 17113, Note_on_c, 0, 72, 61
1, 17138, Note_on_c, 0, 72, 0
1, 17149, Note_on_c, 0, 71, 62
1, 17179, Note_on_c, 0, 71, 0
1, 17198, Note_on_c, 0, 72, 62
1, 17324, Note_on_c, 0, 72, 0
1, 17340, Note_on_c, 0, 77, 63
1, 17445, Note_on_c, 0, 77, 0
1, 17513, Note_on_c, 0, 72, 44
1, 17657, Note_on_c, 0, 72, 0
1, 17815, Note_on_c, 0, 69, 61
1, 17889, Note_on_c, 0, 60, 0
1, 17889, Note_on_c, 0, 53, 0
1, 17904, Note_on_c, 0, 57, 0
1, 18133, Note_on_c, 0, 72, 59
1, 18144, Note_on_c, 0, 55, 35
1, 18144, Note_on_c, 0, 58, 42
1, 18151, Note_on_c, 0, 48, 38
1, 18213, Note_on_c, 0, 69, 0
1, 18468, Note_on_c, 0, 64, 61
1, 18535, Note_on_c, 0, 72, 0
1, 18628, Note_on_c, 0, 58, 0
1, 18628, Note_on_c, 0, 55, 0
1, 18870, Note_on_c, 0, 48, 0
1, 18896, Note_on_c, 0, 67, 56
1, 18909, Note_on_c, 0, 58, 43
1, 18913, Note_on_c, 0, 50, 37
1, 18976, Note_on_c, 0, 64, 0
1, 19411, Note_on_c, 0, 58, 0
1, 19630, Note_on_c, 0, 65, 35
1, 19637, Note_on_c, 0, 57, 35
1, 19679, Note_on_c, 0, 67, 0
1, 19809, Note_on_c, 0, 50, 0
1, 19814, Note_on_c, 0, 65, 0
1, 19856, Note_on_c, 0, 57, 0
1, 20002, Note_on_c, 0, 65, 60
1, 20012, Note_on_c, 0, 57, 39
1, 20012, Note_on_c, 0, 60, 40
1, 20021, Note_on_c, 0, 45, 35
1, 20156, Note_on_c, 0, 45, 0
1, 20164, Note_on_c, 0, 57, 0
1, 20300, Note_on_c, 0, 67, 68
1, 20302, Note_on_c, 0, 64, 58
1, 20313, Note_on_c, 0, 43, 45
1, 20317, Note_on_c, 0, 55, 38
1, 20325, Note_on_c, 0, 65, 0
1, 20393, Note_on_c, 0, 64, 0
1, 20439, Note_on_c, 0, 43, 0
1, 20453, Note_on_c, 0, 60, 0
1, 20456, Note_on_c, 0, 55, 0
1, 20511, Note_on_c, 0, 67, 0
1, 20580, Note_on_c, 0, 69, 75
1, 20591, Note_on_c, 0, 65, 45
1, 20592, Note_on_c, 0, 41, 47
1, 20592, Note_on_c, 0, 53, 41
1, 20593, Note_on_c, 0, 60, 49
1, 20665, Note_on_c, 0, 60, 0
1, 20666, Note_on_c, 0, 41, 0
1, 20677, Note_on_c, 0, 65, 0
1, 20692, Note_on_c, 0, 53, 0
1, 20695, Note_on_c, 0, 69, 0
1, 20878, Note_on_c, 0, 70, 74
1, 20887, Note_on_c, 0, 65, 59
1, 20889, Note_on_c, 0, 62, 46
1, 20894, Note_on_c, 0, 50, 44
1, 21018, Note_on_c, 0, 62, 0
1, 21033, Note_on_c, 0, 50, 0
1, 21216, Note_on_c, 0, 58, 52
1, 21228, Note_on_c, 0, 46, 46
1, 21372, Note_on_c, 0, 72, 63
1, 21384, Note_on_c, 0, 70, 0
1, 21387, Note_on_c, 0, 58, 0
1, 21438, Note_on_c, 0, 74, 63
1, 21442, Note_on_c, 0, 72, 0
1, 21465, Note_on_c, 0, 46, 0
1, 21507, Note_on_c, 0, 74, 0
1, 21533, Note_on_c, 0, 72, 59
1, 21533, Note_on_c, 0, 57, 35
1, 21539, Note_on_c, 0, 45, 35
1, 21696, Note_on_c, 0, 72, 0
1, 21699, Note_on_c, 0, 65, 0
1, 21745, Note_on_c, 0, 57, 0
1, 21752, Note_on_c, 0, 45, 0
1, 21908, Note_on_c, 0, 65, 48
1, 22225, Note_on_c, 0, 64, 48
1, 22228, Note_on_c, 0, 59, 35
1, 22238, Note_on_c, 0, 50, 35
1, 22260, Note_on_c, 0, 65, 0
1, 22525, Note_on_c, 0, 65, 59
1, 22578, Note_on_c, 0, 64, 0
1, 22661, Note_on_c, 0, 59, 0
1, 22721, Note_on_c, 0, 65, 0
1, 22905, Note_on_c, 0, 69, 57
1, 22919, Note_on_c, 0, 48, 35
1, 22919, Note_on_c, 0, 60, 36
1, 22925, Note_on_c, 0, 65, 35
1, 22992, Note_on_c, 0, 50, 0
1, 23255, Note_on_c, 0, 65, 0
1, 23360, Note_on_c, 0, 69, 0
1, 23645, Note_on_c, 0, 67, 36
1, 23652, Note_on_c, 0, 64, 35
1, 23902, Note_on_c, 0, 60, 0
1, 23942, Note_on_c, 0, 64, 0
1, 23952, Note_on_c, 0, 48, 0
1, 23953, Note_on_c, 0, 67, 0
1, 24025, Note_on_c, 0, 67, 57
1, 24184, Note_on_c, 0, 67, 0
1, 24328, Note_on_c, 0, 67, 66
1, 24332, Note_on_c, 0, 64, 48
1, 24338, Note_on_c, 0, 60, 42
1, 24480, Note_on_c, 0, 67, 0
1, 24607, Note_on_c, 0, 67, 68
1, 24611, Note_on_c, 0, 64, 0
1, 24713, Note_on_c, 0, 67, 0
1, 24713, Note_on_c, 0, 60, 0
1, 24880, Note_on_c, 0, 67, 64
1, 24924, Note_on_c, 0, 65, 41
1, 24924, Note_on_c, 0, 79, 75
1, 24928, Note_on_c, 0, 62, 35
1, 24928, Note_on_c, 0, 59, 35
1, 25087, Note_on_c, 0, 67, 0
1, 25505, Note_on_c, 0, 74, 48
1, 25550, Note_on_c, 0, 79, 0
1, 25564, Note_on_c, 0, 71, 50
1, 25584, Note_on_c, 0, 74, 0
1, 25612, Note_on_c, 0, 71, 0
1, 25629, Note_on_c, 0, 67, 50
1, 25804, Note_on_c, 0, 67, 0
1, 25918, Note_on_c, 0, 67, 53
1, 26059, Note_on_c, 0, 67, 0
1, 26116, Note_on_c, 0, 65, 0
1, 26144, Note_on_c, 0, 62, 0
1, 26191, Note_on_c, 0, 67, 70
1, 26204, Note_on_c, 0, 59, 0
1, 26208, Note_on_c, 0, 60, 50
1, 26213, Note_on_c, 0, 64, 52
1, 26359, Note_on_c, 0, 67, 0
1, 26362, Note_on_c, 0, 64, 0
1, 26379, Note_on_c, 0, 60, 0
1, 26483, Note_on_c, 0, 67, 75
1, 26563, Note_on_c, 0, 67, 0
1, 26736, Note_on_c, 0, 67, 75
1, 26794, Note_on_c, 0, 79, 83
1, 26802, Note_on_c, 0, 50, 35
1, 26804, Note_on_c, 0, 59, 41
1, 26804, Note_on_c, 0, 53, 46
1, 26844, Note_on_c, 0, 67, 0
1, 27177, Note_on_c, 0, 53, 0
1, 27197, Note_on_c, 0, 59, 0
1, 27411, Note_on_c, 0, 60, 41
1, 27414, Note_on_c, 0, 52, 42
1, 27415, Note_on_c, 0, 55, 38
1, 27521, Note_on_c, 0, 50, 0
1, 27524, Note_on_c, 0, 79, 0
1, 27569, Note_on_c, 0, 81, 64
1, 27623, Note_on_c, 0, 83, 77
1, 27624, Note_on_c, 0, 81, 0
1, 27657, Note_on_c, 0, 83, 0
1, 27715, Note_on_c, 0, 84, 67
1, 27743, Note_on_c, 0, 84, 0
1, 27780, Note_on_c, 0, 52, 0
1, 27786, Note_on_c, 0, 60, 0
1, 27787, Note_on_c, 0, 55, 0
1, 27854, Note_on_c, 0, 83, 55
1, 27886, Note_on_c, 0, 83, 0
1, 27997, Note_on_c, 0, 81, 41
1, 28023, Note_on_c, 0, 81, 0
1, 28135, Note_on_c, 0, 79, 54
1, 28176, Note_on_c, 0, 79, 0
1, 28279, Note_on_c, 0, 77, 49
1, 28320, Note_on_c, 0, 77, 0
1, 28423, Note_on_c, 0, 76, 55
1, 28447, Note_on_c, 0, 76, 0
1, 28576, Note_on_c, 0, 73, 49
1, 28720, Note_on_c, 0, 74, 56
1, 28754, Note_on_c, 0, 73, 0
1, 28856, Note_on_c, 0, 77, 55
1, 28868, Note_on_c, 0, 62, 35
1, 28868, Note_on_c, 0, 57, 35
1, 28870, Note_on_c, 0, 53, 35
1, 29012, Note_on_c, 0, 81, 62
1, 29014, Note_on_c, 0, 53, 0
1, 29015, Note_on_c, 0, 74, 0
1, 29022, Note_on_c, 0, 57, 0
1, 29064, Note_on_c, 0, 62, 0
1, 29207, Note_on_c, 0, 77, 0
1, 29207, Note_on_c, 0, 72, 59
1, 29213, Note_on_c, 0, 64, 39
1, 29219, Note_on_c, 0, 55, 35
1, 29220, Note_on_c, 0, 60, 37
1, 29264, Note_on_c, 0, 81, 0
1, 29595, Note_on_c, 0, 64, 0
1, 29815, Note_on_c, 0, 60, 0
1, 29873, Note_on_c, 0, 65, 35
1, 29875, Note_on_c, 0, 62, 35
1, 30157, Note_on_c, 0, 72, 0
1, 30197, Note_on_c, 0, 76, 55
1, 30209, Note_on_c, 0, 71, 40
1, 30323, Note_on_c, 0, 65, 0
1, 30328, Note_on_c, 0, 62, 0
1, 30364, Note_on_c, 0, 74, 57
1, 30423, Note_on_c, 0, 76, 0
1, 30433, Note_on_c, 0, 71, 0
1, 30446, Note_on_c, 0, 74, 0
1, 30560, Note_on_c, 0, 72, 40
1, 30575, Note_on_c, 0, 64, 35
1, 30578, Note_on_c, 0, 60, 35
1, 30666, Note_on_c, 0, 55, 0
1, 30836, Note_on_c, 0, 64, 0
1, 30840, Note_on_c, 0, 60, 0
1, 31161, Note_on_c, 0, 72, 0
1, 31251, Note_on_c, 0, 48, 35
1, 31682, Note_on_c, 0, 72, 54
1, 31688, Note_on_c, 0, 48, 0
1, 31882, Note_on_c, 0, 72, 0
1, 32002, Note_on_c, 0, 74, 66
1, 32125, Note_on_c, 0, 72, 57
1, 32166, Note_on_c, 0, 74, 0
1, 32216, Note_on_c, 0, 72, 0
1, 32314, Note_on_c, 0, 70, 67
1, 32436, Note_on_c, 0, 69, 60
1, 32457, Note_on_c, 0, 70, 0
1, 32565, Note_on_c, 0, 69, 0
1, 32690, Note_on_c, 0, 67, 59
1, 32700, Note_on_c, 0, 63, 38
1, 32706, Note_on_c, 0, 60, 39
1, 33376, Note_on_c, 0, 66, 35
1, 33420, Note_on_c, 0, 67, 0
1, 33505, Note_on_c, 0, 60, 0
1, 33509, Note_on_c, 0, 63, 0
1, 33598, Note_on_c, 0, 66, 0
1, 33704, Note_on_c, 0, 66, 51
1, 33708, Note_on_c, 0, 63, 39
1, 33729, Note_on_c, 0, 60, 35
1, 33921, Note_on_c, 0, 63, 0
1, 33995, Note_on_c, 0, 67, 64
1, 33998, Note_on_c, 0, 62, 44
1, 34004, Note_on_c, 0, 60, 0
1, 34014, Note_on_c, 0, 58, 53
1, 34045, Note_on_c, 0, 66, 0
1, 34197, Note_on_c, 0, 67, 0
1, 34245, Note_on_c, 0, 62, 0
1, 34278, Note_on_c, 0, 69, 71
1, 34282, Note_on_c, 0, 62, 50
1, 34285, Note_on_c, 0, 66, 61
1, 34296, Note_on_c, 0, 57, 45
1, 34298, Note_on_c, 0, 58, 0
1, 34299, Note_on_c, 0, 60, 47
1, 34371, Note_on_c, 0, 66, 0
1, 34428, Note_on_c, 0, 69, 0
1, 34509, Note_on_c, 0, 60, 0
1, 34530, Note_on_c, 0, 62, 0
1, 34627, Note_on_c, 0, 69, 71
1, 34648, Note_on_c, 0, 62, 35
1, 34648, Note_on_c, 0, 66, 53
1, 34653, Note_on_c, 0, 55, 36
1, 34655, Note_on_c, 0, 60, 35
1, 34696, Note_on_c, 0, 57, 0
1, 35051, Note_on_c, 0, 66, 0
1, 35245, Note_on_c, 0, 69, 0
1, 35346, Note_on_c, 0, 70, 45
1, 35353, Note_on_c, 0, 60, 0
1, 35356, Note_on_c, 0, 58, 35
1, 35360, Note_on_c, 0, 67, 38
1, 35530, Note_on_c, 0, 62, 0
1, 35542, Note_on_c, 0, 55, 0
1, 35559, Note_on_c, 0, 58, 0
1, 35619, Note_on_c, 0, 70, 0
1, 35630, Note_on_c, 0, 67, 0
1, 35722, Note_on_c, 0, 64, 46
1, 35725, Note_on_c, 0, 61, 42
1, 35728, Note_on_c, 0, 58, 35
1, 35882, Note_on_c, 0, 61, 0
1, 36006, Note_on_c, 0, 58, 0
1, 36025, Note_on_c, 0, 65, 58
1, 36025, Note_on_c, 0, 60, 35
1, 36032, Note_on_c, 0, 57, 39
1, 36096, Note_on_c, 0, 64, 0
1, 36133, Note_on_c, 0, 65, 0
1, 36164, Note_on_c, 0, 57, 0
1, 36179, Note_on_c, 0, 60, 0
1, 36307, Note_on_c, 0, 67, 74
1, 36317, Note_on_c, 0, 60, 40
1, 36320, Note_on_c, 0, 58, 46
1, 36320, Note_on_c, 0, 55, 41
1, 36320, Note_on_c, 0, 64, 51
1, 36357, Note_on_c, 0, 64, 0
1, 36388, Note_on_c, 0, 67, 0
1, 36397, Note_on_c, 0, 55, 0
1, 36411, Note_on_c, 0, 58, 0
1, 36591, Note_on_c, 0, 60, 0
1, 36591, Note_on_c, 0, 60, 35
1, 36591, Note_on_c, 0, 69, 74
1, 36595, Note_on_c, 0, 65, 64
1, 36599, Note_on_c, 0, 57, 48
1, 36609, Note_on_c, 0, 53, 35
1, 36874, Note_on_c, 0, 70, 76
1, 36880, Note_on_c, 0, 57, 0
1, 36889, Note_on_c, 0, 50, 49
1, 36900, Note_on_c, 0, 53, 0
1, 36959, Note_on_c, 0, 69, 0
1, 36960, Note_on_c, 0, 60, 0
1, 37178, Note_on_c, 0, 72, 75
1, 37186, Note_on_c, 0, 45, 51
1, 37193, Note_on_c, 0, 50, 0
1, 37214, Note_on_c, 0, 70, 0
1, 37480, Note_on_c, 0, 73, 77
1, 37556, Note_on_c, 0, 72, 0
1, 37833, Note_on_c, 0, 46, 43
1, 37833, Note_on_c, 0, 76, 66
1, 37858, Note_on_c, 0, 73, 0
1, 37864, Note_on_c, 0, 45, 0
1, 37933, Note_on_c, 0, 74, 71
1, 37963, Note_on_c, 0, 76, 0
1, 37992, Note_on_c, 0, 74, 0
1, 38064, Note_on_c, 0, 65, 0
1, 38162, Note_on_c, 0, 72, 51
1, 38171, Note_on_c, 0, 43, 37
1, 38172, Note_on_c, 0, 67, 42
1, 38220, Note_on_c, 0, 46, 0
1, 38250, Note_on_c, 0, 72, 0
1, 38257, Note_on_c, 0, 70, 55
1, 38353, Note_on_c, 0, 70, 0
1, 38436, Note_on_c, 0, 67, 0
1, 38532, Note_on_c, 0, 69, 47
1, 38535, Note_on_c, 0, 65, 38
1, 38543, Note_on_c, 0, 48, 35
1, 38638, Note_on_c, 0, 43, 0
1, 39111, Note_on_c, 0, 65, 0
1, 39259, Note_on_c, 0, 67, 37
1, 39264, Note_on_c, 0, 64, 39
1, 39325, Note_on_c, 0, 69, 0
1, 39465, Note_on_c, 0, 64, 0
1, 39489, Note_on_c, 0, 67, 0
1, 39678, Note_on_c, 0, 48, 0
1, 39708, Note_on_c, 0, 72, 50
1, 39852, Note_on_c, 0, 72, 0
1, 40024, Note_on_c, 0, 72, 74
1, 40113, Note_on_c, 0, 72, 0
1, 40311, Note_on_c, 0, 72, 84
1, 40380, Note_on_c, 0, 72, 0
1, 40671, Note_on_c, 0, 72, 75
1, 40671, Note_on_c, 0, 82, 86
1, 40677, Note_on_c, 0, 36, 60
1, 40680, Note_on_c, 0, 48, 60
1, 40997, Note_on_c, 0, 36, 0
1, 41045, Note_on_c, 0, 48, 0
1, 41171, Note_on_c, 0, 50, 71
1, 41173, Note_on_c, 0, 38, 70
1, 41229, Note_on_c, 0, 38, 0
1, 41236, Note_on_c, 0, 50, 0
1, 41313, Note_on_c, 0, 52, 74
1, 41317, Note_on_c, 0, 40, 58
1, 41438, Note_on_c, 0, 40, 0
1, 41447, Note_on_c, 0, 52, 0
1, 41509, Note_on_c, 0, 82, 0
1, 41610, Note_on_c, 0, 81, 79
1, 41616, Note_on_c, 0, 53, 64
1, 41619, Note_on_c, 0, 41, 61
1, 41697, Note_on_c, 0, 41, 0
1, 41711, Note_on_c, 0, 53, 0
1, 41897, Note_on_c, 0, 79, 79
1, 41905, Note_on_c, 0, 55, 68
1, 41905, Note_on_c, 0, 43, 65
1, 41916, Note_on_c, 0, 81, 0
1, 41974, Note_on_c, 0, 43, 0
1, 41983, Note_on_c, 0, 55, 0
1, 42175, Note_on_c, 0, 79, 0
1, 42210, Note_on_c, 0, 77, 80
1, 42213, Note_on_c, 0, 69, 63
1, 42218, Note_on_c, 0, 57, 64
1, 42219, Note_on_c, 0, 45, 65
1, 42311, Note_on_c, 0, 45, 0
1, 42316, Note_on_c, 0, 57, 0
1, 42459, Note_on_c, 0, 77, 0
1, 42502, Note_on_c, 0, 69, 0
1, 42615, Note_on_c, 0, 77, 84
1, 42620, Note_on_c, 0, 67, 67
1, 42625, Note_on_c, 0, 46, 57
1, 42630, Note_on_c, 0, 58, 56
1, 43360, Note_on_c, 0, 76, 55
1, 43453, Note_on_c, 0, 77, 0
1, 43619, Note_on_c, 0, 72, 0
1, 43639, Note_on_c, 0, 67, 0
1, 43657, Note_on_c, 0, 76, 0
1, 43800, Note_on_c, 0, 58, 0
1, 43846, Note_on_c, 0, 75, 40
1, 43883, Note_on_c, 0, 46, 0
1, 44105, Note_on_c, 0, 75, 0
1, 44188, Note_on_c, 0, 75, 52
1, 44394, Note_on_c, 0, 75, 0
1, 44508, Note_on_c, 0, 75, 59
1, 44701, Note_on_c, 0, 75, 0
1, 44820, Note_on_c, 0, 65, 35
1, 44831, Note_on_c, 0, 57, 35
1, 44836, Note_on_c, 0, 60, 35
1, 44866, Note_on_c, 0, 75, 56
1, 44886, Note_on_c, 0, 75, 0
1, 44906, Note_on_c, 0, 77, 56
1, 44926, Note_on_c, 0, 77, 0
1, 44940, Note_on_c, 0, 75, 56
1, 44963, Note_on_c, 0, 75, 0
1, 44983, Note_on_c, 0, 77, 56
1, 45004, Note_on_c, 0, 75, 56
1, 45005, Note_on_c, 0, 77, 0
1, 45024, Note_on_c, 0, 75, 0
1, 45034, Note_on_c, 0, 77, 56
1, 45055, Note_on_c, 0, 77, 0
1, 45056, Note_on_c, 0, 75, 57
1, 45090, Note_on_c, 0, 77, 35
1, 45117, Note_on_c, 0, 77, 0
1, 45319, Note_on_c, 0, 77, 64
1, 45434, Note_on_c, 0, 65, 0
1, 45434, Note_on_c, 0, 60, 0
1, 45442, Note_on_c, 0, 57, 0
1, 45528, Note_on_c, 0, 75, 0
1, 45528, Note_on_c, 0, 79, 67
1, 45551, Note_on_c, 0, 65, 35
1, 45553, Note_on_c, 0, 60, 35
1, 45555, Note_on_c, 0, 57, 35
1, 45605, Note_on_c, 0, 77, 0
1, 45941, Note_on_c, 0, 77, 49
1, 46003, Note_on_c, 0, 79, 0
1, 46104, Note_on_c, 0, 75, 62
1, 46115, Note_on_c, 0, 60, 0
1, 46116, Note_on_c, 0, 57, 0
1, 46137, Note_on_c, 0, 65, 0
1, 46171, Note_on_c, 0, 77, 0
1, 46182, Note_on_c, 0, 75, 0
1, 46258, Note_on_c, 0, 75, 60
1, 46271, Note_on_c, 0, 57, 35
1, 46271, Note_on_c, 0, 65, 35
1, 46277, Note_on_c, 0, 63, 35
1, 46413, Note_on_c, 0, 74, 67
1, 46474, Note_on_c, 0, 75, 0
1, 46482, Note_on_c, 0, 74, 0
1, 46570, Note_on_c, 0, 74, 68
1, 46728, Note_on_c, 0, 73, 69
1, 46766, Note_on_c, 0, 74, 0
1, 46781, Note_on_c, 0, 65, 0
1, 46784, Note_on_c, 0, 63, 0
1, 46857, Note_on_c, 0, 73, 0
1, 46972, Note_on_c, 0, 73, 65
1, 46992, Note_on_c, 0, 65, 35
1, 46994, Note_on_c, 0, 62, 35
1, 47000, Note_on_c, 0, 58, 35
1, 47086, Note_on_c, 0, 57, 0
1, 47727, Note_on_c, 0, 74, 35
1, 47777, Note_on_c, 0, 73, 0
1, 48180, Note_on_c, 0, 74, 0
1, 48204, Note_on_c, 0, 77, 35
1, 48367, Note_on_c, 0, 76, 52
1, 48380, Note_on_c, 0, 77, 0
1, 48427, Note_on_c, 0, 62, 0
1, 48453, Note_on_c, 0, 65, 0
1, 48460, Note_on_c, 0, 58, 0
1, 48516, Note_on_c, 0, 79, 55
1, 48543, Note_on_c, 0, 76, 0
1, 48673, Note_on_c, 0, 77, 55
1, 48704, Note_on_c, 0, 79, 0
1, 48813, Note_on_c, 0, 76, 58
1, 48863, Note_on_c, 0, 77, 0
1, 48967, Note_on_c, 0, 74, 60
1, 48989, Note_on_c, 0, 76, 0
1, 49128, Note_on_c, 0, 74, 0
1, 49200, Note_on_c, 0, 74, 61
1, 49218, Note_on_c, 0, 53, 35
1, 49222, Note_on_c, 0, 58, 35
1, 49224, Note_on_c, 0, 62, 35
1, 49553, Note_on_c, 0, 62, 0
1, 49932, Note_on_c, 0, 72, 36
1, 49944, Note_on_c, 0, 57, 35
1, 49946, Note_on_c, 0, 60, 35
1, 49972, Note_on_c, 0, 74, 0
1, 49985, Note_on_c, 0, 58, 0
1, 50232, Note_on_c, 0, 72, 0
1, 50244, Note_on_c, 0, 77, 62
1, 50368, Note_on_c, 0, 53, 0
1, 50373, Note_on_c, 0, 60, 0
1, 50496, Note_on_c, 0, 72, 64
1, 50521, Note_on_c, 0, 57, 0
1, 50544, Note_on_c, 0, 81, 69
1, 50559, Note_on_c, 0, 77, 0
1, 50569, Note_on_c, 0, 72, 0
1, 50756, Note_on_c, 0, 81, 0
1, 50772, Note_on_c, 0, 77, 73
1, 50829, Note_on_c, 0, 72, 74
1, 50849, Note_on_c, 0, 77, 0
1, 51060, Note_on_c, 0, 72, 0
1, 51073, Note_on_c, 0, 69, 72
1, 51136, Note_on_c, 0, 60, 49
1, 51136, Note_on_c, 0, 72, 71
1, 51138, Note_on_c, 0, 55, 44
1, 51138, Note_on_c, 0, 52, 45
1, 51156, Note_on_c, 0, 69, 0
1, 51645, Note_on_c, 0, 71, 51
1, 51712, Note_on_c, 0, 72, 0
1, 51846, Note_on_c, 0, 70, 40
1, 51850, Note_on_c, 0, 71, 0
1, 51982, Note_on_c, 0, 70, 0
1, 52009, Note_on_c, 0, 60, 0
1, 52030, Note_on_c, 0, 55, 0
1, 52035, Note_on_c, 0, 52, 0
1, 52190, Note_on_c, 0, 67, 66
1, 52190, Note_on_c, 0, 64, 59
1, 52201, Note_on_c, 0, 58, 41
1, 52203, Note_on_c, 0, 46, 36
1, 52410, Note_on_c, 0, 58, 0
1, 52420, Note_on_c, 0, 67, 0
1, 52425, Note_on_c, 0, 64, 0
1, 52430, Note_on_c, 0, 60, 78
1, 52479, Note_on_c, 0, 69, 77
1, 52483, Note_on_c, 0, 46, 0
1, 52485, Note_on_c, 0, 57, 61
1, 52491, Note_on_c, 0, 65, 66
1, 52493, Note_on_c, 0, 60, 0
1, 52493, Note_on_c, 0, 45, 48
1, 52656, Note_on_c, 0, 57, 0
1, 52674, Note_on_c, 0, 45, 0
1, 52681, Note_on_c, 0, 65, 0
1, 52692, Note_on_c, 0, 69, 0
1, 52704, Note_on_c, 0, 60, 75
1, 52763, Note_on_c, 0, 70, 85
1, 52770, Note_on_c, 0, 67, 66
1, 52772, Note_on_c, 0, 55, 56
1, 52775, Note_on_c, 0, 43, 56
1, 52792, Note_on_c, 0, 60, 0
1, 52930, Note_on_c, 0, 55, 0
1, 52966, Note_on_c, 0, 60, 69
1, 52975, Note_on_c, 0, 67, 0
1, 52981, Note_on_c, 0, 70, 0
1, 53019, Note_on_c, 0, 60, 0
1, 53021, Note_on_c, 0, 43, 0
1, 53031, Note_on_c, 0, 69, 67
1, 53037, Note_on_c, 0, 72, 82
1, 53037, Note_on_c, 0, 53, 50
1, 53039, Note_on_c, 0, 41, 48
1, 53069, Note_on_c, 0, 69, 0
1, 53087, Note_on_c, 0, 72, 0
1, 53203, Note_on_c, 0, 74, 75
1, 53248, Note_on_c, 0, 41, 0
1, 53256, Note_on_c, 0, 74, 0
1, 53260, Note_on_c, 0, 53, 0
1, 53359, Note_on_c, 0, 76, 75
1, 53401, Note_on_c, 0, 76, 0
1, 53522, Note_on_c, 0, 77, 66
1, 53568, Note_on_c, 0, 77, 0
1, 53801, Note_on_c, 0, 65, 41
1, 53808, Note_on_c, 0, 60, 35
1, 53819, Note_on_c, 0, 48, 35
1, 53822, Note_on_c, 0, 57, 35
1, 54124, Note_on_c, 0, 57, 0
1, 54496, Note_on_c, 0, 58, 35
1, 54727, Note_on_c, 0, 60, 0
1, 54872, Note_on_c, 0, 65, 0
1, 54878, Note_on_c, 0, 69, 41
1, 54887, Note_on_c, 0, 64, 35
1, 54944, Note_on_c, 0, 58, 0
1, 55060, Note_on_c, 0, 67, 44
1, 55261, Note_on_c, 0, 69, 0
1, 55268, Note_on_c, 0, 65, 40
1, 55290, Note_on_c, 0, 53, 35
1, 55292, Note_on_c, 0, 57, 35
1, 55307, Note_on_c, 0, 64, 0
1, 55352, Note_on_c, 0, 67, 0
1, 55440, Note_on_c, 0, 48, 0
1, 55506, Note_on_c, 0, 57, 0
1, 56046, Note_on_c, 0, 41, 35
1, 56145, Note_on_c, 0, 53, 0
1, 56182, Note_on_c, 0, 65, 0
1, 56462, Note_on_c, 0, 72, 39
1, 56644, Note_on_c, 0, 41, 0
1, 56679, Note_on_c, 0, 72, 0
1, 56800, Note_on_c, 0, 74, 49
1, 56898, Note_on_c, 0, 72, 60
1, 56984, Note_on_c, 0, 74, 0
1, 57003, Note_on_c, 0, 72, 0
1, 57094, Note_on_c, 0, 70, 58
1, 57187, Note_on_c, 0, 69, 59
1, 57223, Note_on_c, 0, 70, 0
1, 57321, Note_on_c, 0, 69, 0
1, 57436, Note_on_c, 0, 67, 57
1, 57452, Note_on_c, 0, 60, 36
1, 57452, Note_on_c, 0, 63, 40
1, 58073, Note_on_c, 0, 66, 42
1, 58154, Note_on_c, 0, 67, 0
1, 58192, Note_on_c, 0, 60, 0
1, 58270, Note_on_c, 0, 63, 0
1, 58274, Note_on_c, 0, 66, 0
1, 58380, Note_on_c, 0, 66, 55
1, 58393, Note_on_c, 0, 60, 37
1, 58393, Note_on_c, 0, 63, 37
1, 58572, Note_on_c, 0, 63, 0
1, 58668, Note_on_c, 0, 67, 61
1, 58672, Note_on_c, 0, 62, 47
1, 58675, Note_on_c, 0, 60, 0
1, 58685, Note_on_c, 0, 58, 42
1, 58703, Note_on_c, 0, 66, 0
1, 58747, Note_on_c, 0, 67, 0
1, 58902, Note_on_c, 0, 62, 0
1, 58932, Note_on_c, 0, 58, 0
1, 58951, Note_on_c, 0, 69, 72
1, 58956, Note_on_c, 0, 62, 45
1, 58961, Note_on_c, 0, 57, 42
1, 58961, Note_on_c, 0, 66, 56
1, 58971, Note_on_c, 0, 60, 46
1, 59038, Note_on_c, 0, 66, 0
1, 59042, Note_on_c, 0, 69, 0
1, 59180, Note_on_c, 0, 60, 0
1, 59189, Note_on_c, 0, 62, 0
1, 59299, Note_on_c, 0, 69, 77
1, 59314, Note_on_c, 0, 66, 55
1, 59322, Note_on_c, 0, 60, 36
1, 59322, Note_on_c, 0, 62, 36
1, 59332, Note_on_c, 0, 55, 38
1, 59350, Note_on_c, 0, 66, 0
1, 59351, Note_on_c, 0, 66, 35
1, 59392, Note_on_c, 0, 57, 0
1, 59631, Note_on_c, 0, 60, 0
1, 59809, Note_on_c, 0, 66, 0
1, 59992, Note_on_c, 0, 69, 0
1, 59993, Note_on_c, 0, 70, 44
1, 59998, Note_on_c, 0, 58, 35
1, 60007, Note_on_c, 0, 67, 35
1, 60086, Note_on_c, 0, 62, 0
1, 60157, Note_on_c, 0, 55, 0
1, 60208, Note_on_c, 0, 58, 0
1, 60218, Note_on_c, 0, 67, 0
1, 60222, Note_on_c, 0, 70, 0
1, 60354, Note_on_c, 0, 64, 45
1, 60361, Note_on_c, 0, 61, 35
1, 60369, Note_on_c, 0, 58, 35
1, 60580, Note_on_c, 0, 61, 0
1, 60655, Note_on_c, 0, 65, 61
1, 60673, Note_on_c, 0, 60, 42
1, 60680, Note_on_c, 0, 57, 39
1, 60707, Note_on_c, 0, 58, 0
1, 60827, Note_on_c, 0, 64, 0
1, 60890, Note_on_c, 0, 57, 0
1, 60894, Note_on_c, 0, 60, 0
1, 60945, Note_on_c, 0, 67, 71
1, 60961, Note_on_c, 0, 64, 45
1, 60968, Note_on_c, 0, 60, 37
1, 60975, Note_on_c, 0, 65, 0
1, 60976, Note_on_c, 0, 55, 35
1, 60978, Note_on_c, 0, 58, 39
1, 61088, Note_on_c, 0, 67, 0
1, 61119, Note_on_c, 0, 55, 0
1, 61129, Note_on_c, 0, 58, 0
1, 61134, Note_on_c, 0, 64, 0
1, 61222, Note_on_c, 0, 60, 0
1, 61222, Note_on_c, 0, 60, 35
1, 61224, Note_on_c, 0, 69, 74
1, 61234, Note_on_c, 0, 65, 60
1, 61242, Note_on_c, 0, 53, 40
1, 61243, Note_on_c, 0, 57, 39
1, 61456, Note_on_c, 0, 57, 0
1, 61497, Note_on_c, 0, 70, 76
1, 61510, Note_on_c, 0, 53, 0
1, 61517, Note_on_c, 0, 50, 43
1, 61562, Note_on_c, 0, 60, 0
1, 61565, Note_on_c, 0, 69, 0
1, 61794, Note_on_c, 0, 72, 74
1, 61800, Note_on_c, 0, 45, 46
1, 61839, Note_on_c, 0, 50, 0
1, 61846, Note_on_c, 0, 70, 0
1, 62076, Note_on_c, 0, 73, 76
1, 62140, Note_on_c, 0, 72, 0
1, 62403, Note_on_c, 0, 76, 68
1, 62410, Note_on_c, 0, 46, 46
1, 62434, Note_on_c, 0, 73, 0
1, 62458, Note_on_c, 0, 45, 0
1, 62510, Note_on_c, 0, 74, 71
1, 62547, Note_on_c, 0, 76, 0
1, 62556, Note_on_c, 0, 65, 0
1, 62563, Note_on_c, 0, 74, 0
1, 62736, Note_on_c, 0, 72, 56
1, 62743, Note_on_c, 0, 67, 48
1, 62745, Note_on_c, 0, 43, 44
1, 62767, Note_on_c, 0, 46, 0
1, 62826, Note_on_c, 0, 70, 57
1, 62856, Note_on_c, 0, 72, 0
1, 62954, Note_on_c, 0, 70, 0
1, 63015, Note_on_c, 0, 67, 0
1, 63128, Note_on_c, 0, 69, 48
1, 63130, Note_on_c, 0, 65, 44
1, 63135, Note_on_c, 0, 48, 35
1, 63205, Note_on_c, 0, 43, 0
1, 63631, Note_on_c, 0, 65, 0
1, 63848, Note_on_c, 0, 67, 35
1, 63860, Note_on_c, 0, 64, 35
1, 63911, Note_on_c, 0, 69, 0
1, 64080, Note_on_c, 0, 64, 0
1, 64107, Note_on_c, 0, 67, 0
1, 64283, Note_on_c, 0, 48, 0
1, 64298, Note_on_c, 0, 72, 60
1, 64500, Note_on_c, 0, 72, 0
1, 64600, Note_on_c, 0, 72, 67
1, 64791, Note_on_c, 0, 72, 0
1, 64900, Note_on_c, 0, 72, 75
1, 65053, Note_on_c, 0, 72, 0
1, 65252, Note_on_c, 0, 82, 86
1, 65254, Note_on_c, 0, 72, 77
1, 65256, Note_on_c, 0, 36, 64
1, 65256, Note_on_c, 0, 48, 67
1, 65585, Note_on_c, 0, 36, 0
1, 65622, Note_on_c, 0, 48, 0
1, 65758, Note_on_c, 0, 38, 67
1, 65760, Note_on_c, 0, 50, 68
1, 65806, Note_on_c, 0, 38, 0
1, 65821, Note_on_c, 0, 50, 0
1, 65898, Note_on_c, 0, 52, 71
1, 65898, Note_on_c, 0, 40, 60
1, 65988, Note_on_c, 0, 40, 0
1, 65997, Note_on_c, 0, 52, 0
1, 66068, Note_on_c, 0, 82, 0
1, 66177, Note_on_c, 0, 81, 81
1, 66186, Note_on_c, 0, 41, 61
1, 66189, Note_on_c, 0, 53, 63
1, 66241, Note_on_c, 0, 41, 0
1, 66252, Note_on_c, 0, 53, 0
1, 66458, Note_on_c, 0, 79, 81
1, 66472, Note_on_c, 0, 55, 68
1, 66473, Note_on_c, 0, 43, 63
1, 66478, Note_on_c, 0, 81, 0
1, 66508, Note_on_c, 0, 43, 0
1, 66515, Note_on_c, 0, 55, 0
1, 66750, Note_on_c, 0, 77, 80
1, 66756, Note_on_c, 0, 69, 72
1, 66760, Note_on_c, 0, 45, 61
1, 66763, Note_on_c, 0, 57, 63
1, 66771, Note_on_c, 0, 79, 0
1, 66840, Note_on_c, 0, 57, 0
1, 66840, Note_on_c, 0, 45, 0
1, 66925, Note_on_c, 0, 77, 0
1, 66963, Note_on_c, 0, 69, 0
1, 67151, Note_on_c, 0, 67, 67
1, 67151, Note_on_c, 0, 77, 80
1, 67158, Note_on_c, 0, 58, 53
1, 67158, Note_on_c, 0, 46, 51
1, 67898, Note_on_c, 0, 76, 58
1, 67996, Note_on_c, 0, 77, 0
1, 68161, Note_on_c, 0, 72, 0
1, 68173, Note_on_c, 0, 76, 0
1, 68187, Note_on_c, 0, 67, 0
1, 68412, Note_on_c, 0, 75, 46
1, 68491, Note_on_c, 0, 58, 0
1, 68534, Note_on_c, 0, 46, 0
1, 68643, Note_on_c, 0, 75, 0
1, 68744, Note_on_c, 0, 75, 55
1, 68952, Note_on_c, 0, 75, 0
1, 69069, Note_on_c, 0, 75, 60
1, 69297, Note_on_c, 0, 75, 0
1, 69406, Note_on_c, 0, 65, 35
1, 69408, Note_on_c, 0, 60, 35
1, 69410, Note_on_c, 0, 57, 35
1, 69483, Note_on_c, 0, 75, 56
1, 69506, Note_on_c, 0, 75, 0
1, 69527, Note_on_c, 0, 77, 56
1, 69547, Note_on_c, 0, 77, 0
1, 69559, Note_on_c, 0, 75, 56
1, 69582, Note_on_c, 0, 75, 0
1, 69602, Note_on_c, 0, 77, 56
1, 69622, Note_on_c, 0, 77, 0
1, 69626, Note_on_c, 0, 75, 56
1, 69639, Note_on_c, 0, 75, 0
1, 69655, Note_on_c, 0, 77, 56
1, 69675, Note_on_c, 0, 77, 0
1, 69681, Note_on_c, 0, 75, 65
1, 69905, Note_on_c, 0, 77, 70
1, 69966, Note_on_c, 0, 65, 0
1, 69974, Note_on_c, 0, 57, 0
1, 69986, Note_on_c, 0, 60, 0
1, 70050, Note_on_c, 0, 75, 0
1, 70104, Note_on_c, 0, 79, 72
1, 70120, Note_on_c, 0, 57, 35
1, 70122, Note_on_c, 0, 60, 35
1, 70126, Note_on_c, 0, 65, 35
1, 70170, Note_on_c, 0, 77, 0
1, 70535, Note_on_c, 0, 77, 57
1, 70644, Note_on_c, 0, 60, 0
1, 70664, Note_on_c, 0, 57, 0
1, 70671, Note_on_c, 0, 65, 0
1, 70693, Note_on_c, 0, 75, 68
1, 70738, Note_on_c, 0, 77, 0
1, 70744, Note_on_c, 0, 79, 0
1, 70765, Note_on_c, 0, 75, 0
1, 70848, Note_on_c, 0, 75, 58
1, 70856, Note_on_c, 0, 57, 35
1, 70858, Note_on_c, 0, 65, 35
1, 70863, Note_on_c, 0, 63, 37
1, 71004, Note_on_c, 0, 74, 62
1, 71058, Note_on_c, 0, 75, 0
1, 71082, Note_on_c, 0, 74, 0
1, 71158, Note_on_c, 0, 74, 54
1, 71316, Note_on_c, 0, 73, 62
1, 71367, Note_on_c, 0, 74, 0
1, 71374, Note_on_c, 0, 65, 0
1, 71384, Note_on_c, 0, 63, 0
1, 71407, Note_on_c, 0, 73, 0
1, 71417, Note_on_c, 0, 57, 0
1, 71543, Note_on_c, 0, 73, 54
1, 71558, Note_on_c, 0, 62, 35
1, 71558, Note_on_c, 0, 65, 35
1, 71560, Note_on_c, 0, 58, 35
1, 72287, Note_on_c, 0, 74, 35
1, 72359, Note_on_c, 0, 73, 0
1, 72667, Note_on_c, 0, 74, 0
1, 72696, Note_on_c, 0, 77, 45
1, 72853, Note_on_c, 0, 65, 0
1, 72859, Note_on_c, 0, 76, 51
1, 72871, Note_on_c, 0, 77, 0
1, 72924, Note_on_c, 0, 62, 0
1, 72952, Note_on_c, 0, 58, 0
1, 73008, Note_on_c, 0, 79, 54
1, 73035, Note_on_c, 0, 76, 0
1, 73149, Note_on_c, 0, 77, 58
1, 73197, Note_on_c, 0, 79, 0
1, 73292, Note_on_c, 0, 76, 60
1, 73325, Note_on_c, 0, 77, 0
1, 73451, Note_on_c, 0, 74, 57
1, 73480, Note_on_c, 0, 76, 0
1, 73647, Note_on_c, 0, 74, 0
1, 73688, Note_on_c, 0, 74, 58
1, 73703, Note_on_c, 0, 58, 35
1, 73703, Note_on_c, 0, 62, 35
1, 73705, Note_on_c, 0, 53, 35
1, 74037, Note_on_c, 0, 62, 0
1, 74208, Note_on_c, 0, 58, 0
1, 74464, Note_on_c, 0, 72, 35
1, 74473, Note_on_c, 0, 57, 35
1, 74474, Note_on_c, 0, 60, 35
1, 74503, Note_on_c, 0, 74, 0
1, 74789, Note_on_c, 0, 77, 51
1, 74792, Note_on_c, 0, 72, 0
1, 75047, Note_on_c, 0, 72, 63
1, 75083, Note_on_c, 0, 53, 0
1, 75083, Note_on_c, 0, 60, 0
1, 75093, Note_on_c, 0, 57, 0
1, 75093, Note_on_c, 0, 81, 70
1, 75121, Note_on_c, 0, 72, 0
1, 75137, Note_on_c, 0, 77, 0
1, 75325, Note_on_c, 0, 77, 72
1, 75354, Note_on_c, 0, 81, 0
1, 75384, Note_on_c, 0, 72, 77
1, 75409, Note_on_c, 0, 77, 0
1, 75625, Note_on_c, 0, 72, 0
1, 75637, Note_on_c, 0, 69, 72
1, 75690, Note_on_c, 0, 72, 78
1, 75696, Note_on_c, 0, 52, 46
1, 75696, Note_on_c, 0, 60, 52
1, 75697, Note_on_c, 0, 55, 47
1, 75726, Note_on_c, 0, 69, 0
1, 76194, Note_on_c, 0, 71, 65
1, 76222, Note_on_c, 0, 72, 0
1, 76390, Note_on_c, 0, 70, 60
1, 76421, Note_on_c, 0, 71, 0
1, 76510, Note_on_c, 0, 60, 0
1, 76514, Note_on_c, 0, 70, 0
1, 76524, Note_on_c, 0, 52, 0
1, 76524, Note_on_c, 0, 55, 0
1, 76677, Note_on_c, 0, 67, 65
1, 76682, Note_on_c, 0, 64, 57
1, 76695, Note_on_c, 0, 46, 42
1, 76707, Note_on_c, 0, 58, 40
1, 76876, Note_on_c, 0, 58, 0
1, 76877, Note_on_c, 0, 67, 0
1, 76882, Note_on_c, 0, 64, 0
1, 76904, Note_on_c, 0, 60, 75
1, 76951, Note_on_c, 0, 46, 0
1, 76956, Note_on_c, 0, 69, 75
1, 76965, Note_on_c, 0, 57, 55
1, 76968, Note_on_c, 0, 60, 0
1, 76968, Note_on_c, 0, 65, 61
1, 76968, Note_on_c, 0, 45, 46
1, 77126, Note_on_c, 0, 57, 0
1, 77138, Note_on_c, 0, 45, 0
1, 77138, Note_on_c, 0, 65, 0
1, 77156, Note_on_c, 0, 69, 0
1, 77175, Note_on_c, 0, 60, 65
1, 77227, Note_on_c, 0, 70, 79
1, 77233, Note_on_c, 0, 43, 56
1, 77237, Note_on_c, 0, 67, 63
1, 77237, Note_on_c, 0, 55, 53
1, 77244, Note_on_c, 0, 60, 0
1, 77373, Note_on_c, 0, 67, 0
1, 77398, Note_on_c, 0, 55, 0
1, 77435, Note_on_c, 0, 60, 65
1, 77448, Note_on_c, 0, 70, 0
1, 77463, Note_on_c, 0, 43, 0
1, 77485, Note_on_c, 0, 69, 67
1, 77494, Note_on_c, 0, 72, 75
1, 77495, Note_on_c, 0, 53, 58
1, 77498, Note_on_c, 0, 41, 58
1, 77504, Note_on_c, 0, 60, 0
1, 77521, Note_on_c, 0, 69, 0
1, 77543, Note_on_c, 0, 72, 0
1, 77658, Note_on_c, 0, 74, 65
1, 77672, Note_on_c, 0, 41, 0
1, 77689, Note_on_c, 0, 53, 0
1, 77760, Note_on_c, 0, 74, 0
1, 77811, Note_on_c, 0, 76, 65
1, 77838, Note_on_c, 0, 76, 0
1, 77971, Note_on_c, 0, 77, 62
1, 78019, Note_on_c, 0, 77, 0
1, 78249, Note_on_c, 0, 65, 48
1, 78253, Note_on_c, 0, 60, 35
1, 78261, Note_on_c, 0, 48, 35
1, 78265, Note_on_c, 0, 57, 35
1, 78644, Note_on_c, 0, 57, 0
1, 78955, Note_on_c, 0, 58, 36
1, 79212, Note_on_c, 0, 60, 0
1, 79368, Note_on_c, 0, 65, 0
1, 79368, Note_on_c, 0, 69, 46
1, 79389, Note_on_c, 0, 64, 35
1, 79565, Note_on_c, 0, 67, 46
1, 79603, Note_on_c, 0, 58, 0
1, 79710, Note_on_c, 0, 69, 0
1, 79781, Note_on_c, 0, 65, 39
1, 79797, Note_on_c, 0, 53, 35
1, 79802, Note_on_c, 0, 57, 35
1, 79819, Note_on_c, 0, 64, 0
1, 79864, Note_on_c, 0, 67, 0
1, 79962, Note_on_c, 0, 48, 0
1, 80054, Note_on_c, 0, 57, 0
1, 80279, Note_on_c, 0, 53, 0
1, 80582, Note_on_c, 0, 65, 0
1, 80615, Note_on_c, 0, 41, 35
1, 80867, Note_on_c, 0, 41, 0
1, 81191, Note_on_c, 0, 68, 37
1, 81195, Note_on_c, 0, 60, 35
1, 81412, Note_on_c, 0, 60, 0
1, 81418, Note_on_c, 0, 68, 0
1, 81568, Note_on_c, 0, 60, 35
1, 81571, Note_on_c, 0, 68, 35
1, 81797, Note_on_c, 0, 60, 0
1, 81825, Note_on_c, 0, 68, 0
1, 81934, Note_on_c, 0, 68, 35
1, 81934, Note_on_c, 0, 60, 35
1, 82162, Note_on_c, 0, 60, 0
1, 82178, Note_on_c, 0, 68, 0
1, 82359, Note_on_c, 0, 41, 35
1, 82361, Note_on_c, 0, 68, 40
1, 82364, Note_on_c, 0, 60, 35
1, 82563, Note_on_c, 0, 53, 35
1, 82649, Note_on_c, 0, 53, 0
1, 82729, Note_on_c, 0, 53, 35
1, 82814, Note_on_c, 0, 53, 0
1, 82890, Note_on_c, 0, 53, 35
1, 82980, Note_on_c, 0, 53, 0
1, 83054, Note_on_c, 0, 53, 35
1, 83073, Note_on_c, 0, 60, 0
1, 83109, Note_on_c, 0, 53, 0
1, 83207, Note_on_c, 0, 53, 36
1, 83232, Note_on_c, 0, 68, 0
1, 83288, Note_on_c, 0, 53, 0
1, 83360, Note_on_c, 0, 67, 44
1, 83366, Note_on_c, 0, 58, 35
1, 83366, Note_on_c, 0, 53, 35
1, 83456, Note_on_c, 0, 53, 0
1, 83524, Note_on_c, 0, 53, 35
1, 83619, Note_on_c, 0, 53, 0
1, 83673, Note_on_c, 0, 61, 44
1, 83676, Note_on_c, 0, 70, 47
1, 83688, Note_on_c, 0, 58, 0
1, 83688, Note_on_c, 0, 53, 35
1, 83769, Note_on_c, 0, 53, 0
1, 83773, Note_on_c, 0, 67, 0
1, 83796, Note_on_c, 0, 70, 0
1, 83839, Note_on_c, 0, 53, 35
1, 83935, Note_on_c, 0, 53, 0
1, 83963, Note_on_c, 0, 61, 0
1, 83985, Note_on_c, 0, 64, 46
1, 83997, Note_on_c, 0, 55, 39
1, 84008, Note_on_c, 0, 53, 37
1, 84052, Note_on_c, 0, 53, 0
1, 84128, Note_on_c, 0, 55, 0
1, 84144, Note_on_c, 0, 53, 38
1, 84199, Note_on_c, 0, 41, 0
1, 84289, Note_on_c, 0, 53, 0
1, 84317, Note_on_c, 0, 65, 42
1, 84323, Note_on_c, 0, 41, 36
1, 84325, Note_on_c, 0, 56, 35
1, 84410, Note_on_c, 0, 64, 0
1, 84468, Note_on_c, 0, 53, 36
1, 84554, Note_on_c, 0, 53, 0
1, 84622, Note_on_c, 0, 53, 37
1, 84692, Note_on_c, 0, 53, 0
1, 84768, Note_on_c, 0, 53, 35
1, 84861, Note_on_c, 0, 56, 0
1, 84914, Note_on_c, 0, 65, 0
1, 84918, Note_on_c, 0, 53, 0
1, 84920, Note_on_c, 0, 53, 35
1, 84995, Note_on_c, 0, 53, 0
1, 85072, Note_on_c, 0, 53, 35
1, 85166, Note_on_c, 0, 53, 0
1, 85218, Note_on_c, 0, 68, 43
1, 85218, Note_on_c, 0, 72, 51
1, 85234, Note_on_c, 0, 53, 35
1, 85320, Note_on_c, 0, 53, 0
1, 85377, Note_on_c, 0, 53, 40
1, 85402, Note_on_c, 0, 68, 0
1, 85407, Note_on_c, 0, 72, 0
1, 85453, Note_on_c, 0, 53, 0
1, 85524, Note_on_c, 0, 68, 51
1, 85524, Note_on_c, 0, 72, 58
1, 85528, Note_on_c, 0, 53, 39
1, 85606, Note_on_c, 0, 53, 0
1, 85681, Note_on_c, 0, 53, 44
1, 85697, Note_on_c, 0, 68, 0
1, 85715, Note_on_c, 0, 72, 0
1, 85754, Note_on_c, 0, 53, 0
1, 85824, Note_on_c, 0, 72, 60
1, 85835, Note_on_c, 0, 68, 52
1, 85835, Note_on_c, 0, 53, 46
1, 85877, Note_on_c, 0, 53, 0
1, 85948, Note_on_c, 0, 41, 0
1, 85979, Note_on_c, 0, 53, 45
1, 85999, Note_on_c, 0, 72, 0
1, 86037, Note_on_c, 0, 53, 0
1, 86089, Note_on_c, 0, 68, 0
1, 86170, Note_on_c, 0, 72, 58
1, 86170, Note_on_c, 0, 40, 55
1, 86171, Note_on_c, 0, 67, 48
1, 86340, Note_on_c, 0, 52, 41
1, 86361, Note_on_c, 0, 40, 0
1, 86427, Note_on_c, 0, 52, 0
1, 86496, Note_on_c, 0, 52, 49
1, 86580, Note_on_c, 0, 52, 0
1, 86660, Note_on_c, 0, 52, 46
1, 86713, Note_on_c, 0, 52, 0
1, 86806, Note_on_c, 0, 52, 40
1, 86882, Note_on_c, 0, 52, 0
1, 86970, Note_on_c, 0, 52, 39
1, 87046, Note_on_c, 0, 52, 0
1, 87109, Note_on_c, 0, 73, 56
1, 87131, Note_on_c, 0, 52, 35
1, 87215, Note_on_c, 0, 52, 0
1, 87235, Note_on_c, 0, 72, 0
1, 87272, Note_on_c, 0, 52, 38
1, 87356, Note_on_c, 0, 52, 0
1, 87408, Note_on_c, 0, 72, 61
1, 87432, Note_on_c, 0, 52, 38
1, 87507, Note_on_c, 0, 52, 0
1, 87588, Note_on_c, 0, 52, 41
1, 87662, Note_on_c, 0, 52, 0
1, 87738, Note_on_c, 0, 70, 63
1, 87761, Note_on_c, 0, 52, 41
1, 87829, Note_on_c, 0, 52, 0
1, 87849, Note_on_c, 0, 73, 0
1, 87856, Note_on_c, 0, 72, 0
1, 87904, Note_on_c, 0, 52, 45
1, 87935, Note_on_c, 0, 67, 0
1, 88000, Note_on_c, 0, 70, 0
1, 88114, Note_on_c, 0, 72, 64
1, 88118, Note_on_c, 0, 52, 0
1, 88118, Note_on_c, 0, 41, 35
1, 88120, Note_on_c, 0, 67, 52
1, 88216, Note_on_c, 0, 70, 59
1, 88256, Note_on_c, 0, 72, 0
1, 88315, Note_on_c, 0, 53, 36
1, 88395, Note_on_c, 0, 53, 0
1, 88412, Note_on_c, 0, 67, 0
1, 88423, Note_on_c, 0, 41, 0
1, 88519, Note_on_c, 0, 53, 35
1, 88521, Note_on_c, 0, 68, 43
1, 88526, Note_on_c, 0, 65, 39
1, 88584, Note_on_c, 0, 70, 0
1, 88622, Note_on_c, 0, 53, 0
1, 88699, Note_on_c, 0, 53, 35
1, 88805, Note_on_c, 0, 53, 0
1, 88900, Note_on_c, 0, 53, 35
1, 89045, Note_on_c, 0, 65, 0
1, 89057, Note_on_c, 0, 68, 0
1, 89377, Note_on_c, 0, 68, 35
1, 89535, Note_on_c, 0, 53, 0
1, 89697, Note_on_c, 0, 70, 50
1, 89797, Note_on_c, 0, 68, 0
1, 89988, Note_on_c, 0, 72, 60
1, 90077, Note_on_c, 0, 70, 0
1, 90229, Note_on_c, 0, 72, 0
1, 90316, Note_on_c, 0, 75, 62
1, 90716, Note_on_c, 0, 73, 41
1, 90719, Note_on_c, 0, 56, 35
1, 90720, Note_on_c, 0, 61, 35
1, 90723, Note_on_c, 0, 53, 35
1, 90792, Note_on_c, 0, 75, 0
1, 90925, Note_on_c, 0, 53, 0
1, 90929, Note_on_c, 0, 61, 0
1, 90931, Note_on_c, 0, 56, 0
1, 91060, Note_on_c, 0, 61, 35
1, 91068, Note_on_c, 0, 53, 35
1, 91070, Note_on_c, 0, 56, 35
1, 91207, Note_on_c, 0, 56, 0
1, 91219, Note_on_c, 0, 61, 0
1, 91219, Note_on_c, 0, 53, 0
1, 91312, Note_on_c, 0, 73, 0
1, 91368, Note_on_c, 0, 72, 59
1, 91376, Note_on_c, 0, 61, 35
1, 91383, Note_on_c, 0, 53, 35
1, 91384, Note_on_c, 0, 56, 36
1, 91428, Note_on_c, 0, 73, 62
1, 91496, Note_on_c, 0, 72, 0
1, 91574, Note_on_c, 0, 61, 0
1, 91582, Note_on_c, 0, 73, 0
1, 91586, Note_on_c, 0, 56, 0
1, 91589, Note_on_c, 0, 53, 0
1, 91688, Note_on_c, 0, 61, 46
1, 91690, Note_on_c, 0, 72, 67
1, 91690, Note_on_c, 0, 56, 39
1, 91690, Note_on_c, 0, 53, 36
1, 91755, Note_on_c, 0, 73, 69
1, 91781, Note_on_c, 0, 72, 0
1, 91882, Note_on_c, 0, 73, 0
1, 91882, Note_on_c, 0, 61, 0
1, 91887, Note_on_c, 0, 53, 0
1, 91887, Note_on_c, 0, 56, 0
1, 91994, Note_on_c, 0, 72, 74
1, 92002, Note_on_c, 0, 61, 47
1, 92007, Note_on_c, 0, 53, 38
1, 92007, Note_on_c, 0, 56, 44
1, 92063, Note_on_c, 0, 73, 79
1, 92090, Note_on_c, 0, 72, 0
1, 92163, Note_on_c, 0, 53, 0
1, 92184, Note_on_c, 0, 56, 0
1, 92188, Note_on_c, 0, 73, 0
1, 92246, Note_on_c, 0, 61, 0
1, 92427, Note_on_c, 0, 73, 77
1, 92432, Note_on_c, 0, 63, 49
1, 92438, Note_on_c, 0, 58, 46
1, 92438, Note_on_c, 0, 61, 49
1, 92442, Note_on_c, 0, 55, 41
1, 92651, Note_on_c, 0, 73, 0
1, 92667, Note_on_c, 0, 75, 61
1, 92710, Note_on_c, 0, 75, 0
1, 92714, Note_on_c, 0, 73, 69
1, 92740, Note_on_c, 0, 73, 0
1, 92744, Note_on_c, 0, 72, 74
1, 92807, Note_on_c, 0, 73, 74
1, 92830, Note_on_c, 0, 72, 0
1, 92974, Note_on_c, 0, 75, 78
1, 93013, Note_on_c, 0, 73, 0
1, 93240, Note_on_c, 0, 77, 70
1, 93288, Note_on_c, 0, 75, 0
1, 94150, Note_on_c, 0, 55, 0
1, 94185, Note_on_c, 0, 61, 0
1, 94190, Note_on_c, 0, 58, 0
1, 94207, Note_on_c, 0, 63, 0
1, 94758, Note_on_c, 0, 75, 40
1, 94952, Note_on_c, 0, 73, 48
1, 95123, Note_on_c, 0, 72, 52
1, 95133, Note_on_c, 0, 56, 35
1, 95159, Note_on_c, 0, 77, 0
1, 95161, Note_on_c, 0, 75, 0
1, 95184, Note_on_c, 0, 73, 0
1, 95269, Note_on_c, 0, 75, 56
1, 95317, Note_on_c, 0, 72, 0
1, 95421, Note_on_c, 0, 73, 56
1, 95428, Note_on_c, 0, 58, 38
1, 95438, Note_on_c, 0, 49, 35
1, 95451, Note_on_c, 0, 56, 0
1, 95465, Note_on_c, 0, 75, 0
1, 95574, Note_on_c, 0, 70, 60
1, 95584, Note_on_c, 0, 49, 0
1, 95602, Note_on_c, 0, 73, 0
1, 95649, Note_on_c, 0, 58, 0
1, 95781, Note_on_c, 0, 68, 55
1, 95793, Note_on_c, 0, 51, 35
1, 95795, Note_on_c, 0, 60, 35
1, 95821, Note_on_c, 0, 70, 0
1, 96153, Note_on_c, 0, 60, 0
1, 96457, Note_on_c, 0, 61, 35
1, 96727, Note_on_c, 0, 68, 0
1, 96800, Note_on_c, 0, 72, 46
1, 96807, Note_on_c, 0, 67, 36
1, 96989, Note_on_c, 0, 70, 48
1, 97037, Note_on_c, 0, 61, 0
1, 97064, Note_on_c, 0, 72, 0
1, 97112, Note_on_c, 0, 67, 0
1, 97213, Note_on_c, 0, 68, 40
1, 97215, Note_on_c, 0, 70, 0
1, 97230, Note_on_c, 0, 56, 35
1, 97233, Note_on_c, 0, 60, 35
1, 97311, Note_on_c, 0, 51, 0
1, 97495, Note_on_c, 0, 60, 0
1, 97752, Note_on_c, 0, 56, 0
1, 98010, Note_on_c, 0, 44, 35
1, 98187, Note_on_c, 0, 68, 0
1, 98459, Note_on_c, 0, 68, 35
1, 98460, Note_on_c, 0, 60, 35
1, 98524, Note_on_c, 0, 44, 0
1, 98668, Note_on_c, 0, 60, 0
1, 98676, Note_on_c, 0, 68, 0
1, 98824, Note_on_c, 0, 60, 35
1, 98824, Note_on_c, 0, 68, 35
1, 99037, Note_on_c, 0, 60, 0
1, 99053, Note_on_c, 0, 68, 0
1, 99186, Note_on_c, 0, 68, 35
1, 99191, Note_on_c, 0, 60, 35
1, 99388, Note_on_c, 0, 68, 0
1, 99390, Note_on_c, 0, 60, 0
1, 99574, Note_on_c, 0, 60, 35
1, 99579, Note_on_c, 0, 41, 35
1, 99584, Note_on_c, 0, 68, 38
1, 99780, Note_on_c, 0, 53, 35
1, 99868, Note_on_c, 0, 53, 0
1, 99948, Note_on_c, 0, 53, 35
1, 100032, Note_on_c, 0, 53, 0
1, 100107, Note_on_c, 0, 53, 35
1, 100191, Note_on_c, 0, 53, 0
1, 100274, Note_on_c, 0, 53, 35
1, 100359, Note_on_c, 0, 60, 0
1, 100365, Note_on_c, 0, 53, 0
1, 100432, Note_on_c, 0, 68, 0
1, 100432, Note_on_c, 0, 53, 35
1, 100489, Note_on_c, 0, 53, 0
1, 100594, Note_on_c, 0, 67, 39
1, 100594, Note_on_c, 0, 53, 36
1, 100595, Note_on_c, 0, 58, 35
1, 100672, Note_on_c, 0, 53, 0
1, 100753, Note_on_c, 0, 53, 35
1, 100839, Note_on_c, 0, 53, 0
1, 100903, Note_on_c, 0, 58, 0
1, 100913, Note_on_c, 0, 70, 43
1, 100920, Note_on_c, 0, 53, 38
1, 100920, Note_on_c, 0, 61, 35
1, 100981, Note_on_c, 0, 53, 0
1, 100991, Note_on_c, 0, 67, 0
1, 101043, Note_on_c, 0, 70, 0
1, 101082, Note_on_c, 0, 53, 35
1, 101142, Note_on_c, 0, 53, 0
1, 101179, Note_on_c, 0, 61, 0
1, 101240, Note_on_c, 0, 64, 39
1, 101250, Note_on_c, 0, 53, 35
1, 101252, Note_on_c, 0, 55, 35
1, 101311, Note_on_c, 0, 53, 0
1, 101381, Note_on_c, 0, 55, 0
1, 101419, Note_on_c, 0, 53, 35
1, 101434, Note_on_c, 0, 41, 0
1, 101540, Note_on_c, 0, 53, 0
1, 101592, Note_on_c, 0, 65, 39
1, 101602, Note_on_c, 0, 56, 35
1, 101602, Note_on_c, 0, 41, 39
1, 101718, Note_on_c, 0, 64, 0
1, 101772, Note_on_c, 0, 53, 35
1, 101859, Note_on_c, 0, 53, 0
1, 101928, Note_on_c, 0, 53, 35
1, 102016, Note_on_c, 0, 53, 0
1, 102075, Note_on_c, 0, 53, 36
1, 102091, Note_on_c, 0, 56, 0
1, 102164, Note_on_c, 0, 53, 0
1, 102168, Note_on_c, 0, 65, 0
1, 102232, Note_on_c, 0, 53, 35
1, 102321, Note_on_c, 0, 53, 0
1, 102384, Note_on_c, 0, 53, 35
1, 102466, Note_on_c, 0, 53, 0
1, 102537, Note_on_c, 0, 68, 40
1, 102537, Note_on_c, 0, 72, 49
1, 102544, Note_on_c, 0, 53, 35
1, 102560, Note_on_c, 0, 41, 0
1, 102637, Note_on_c, 0, 53, 0
1, 102693, Note_on_c, 0, 53, 35
1, 102741, Note_on_c, 0, 68, 0
1, 102751, Note_on_c, 0, 72, 0
1, 102788, Note_on_c, 0, 53, 0
1, 102846, Note_on_c, 0, 72, 48
1, 102852, Note_on_c, 0, 68, 36
1, 102857, Note_on_c, 0, 53, 37
1, 102947, Note_on_c, 0, 53, 0
1, 103014, Note_on_c, 0, 53, 41
1, 103023, Note_on_c, 0, 72, 0
1, 103032, Note_on_c, 0, 68, 0
1, 103080, Note_on_c, 0, 53, 0
1, 103169, Note_on_c, 0, 72, 50
1, 103174, Note_on_c, 0, 68, 49
1, 103176, Note_on_c, 0, 53, 39
1, 103219, Note_on_c, 0, 53, 0
1, 103337, Note_on_c, 0, 53, 43
1, 103388, Note_on_c, 0, 72, 0
1, 103400, Note_on_c, 0, 53, 0
1, 103473, Note_on_c, 0, 68, 0
1, 103559, Note_on_c, 0, 72, 56
1, 103560, Note_on_c, 0, 40, 53
1, 103563, Note_on_c, 0, 67, 46
1, 103770, Note_on_c, 0, 52, 35
1, 103846, Note_on_c, 0, 52, 0
1, 103850, Note_on_c, 0, 40, 0
1, 103929, Note_on_c, 0, 52, 41
1, 104009, Note_on_c, 0, 52, 0
1, 104087, Note_on_c, 0, 52, 38
1, 104168, Note_on_c, 0, 52, 0
1, 104233, Note_on_c, 0, 52, 35
1, 104321, Note_on_c, 0, 52, 0
1, 104389, Note_on_c, 0, 52, 35
1, 104467, Note_on_c, 0, 52, 0
1, 104553, Note_on_c, 0, 73, 56
1, 104557, Note_on_c, 0, 52, 35
1, 104639, Note_on_c, 0, 52, 0
1, 104663, Note_on_c, 0, 72, 0
1, 104757, Note_on_c, 0, 52, 35
1, 104838, Note_on_c, 0, 52, 0
1, 104893, Note_on_c, 0, 72, 57
1, 104908, Note_on_c, 0, 52, 35
1, 104988, Note_on_c, 0, 52, 0
1, 105048, Note_on_c, 0, 73, 0
1, 105059, Note_on_c, 0, 52, 35
1, 105134, Note_on_c, 0, 52, 0
1, 105219, Note_on_c, 0, 70, 55
1, 105229, Note_on_c, 0, 52, 39
1, 105306, Note_on_c, 0, 52, 0
1, 105318, Note_on_c, 0, 72, 0
1, 105373, Note_on_c, 0, 67, 0
1, 105384, Note_on_c, 0, 52, 40
1, 105438, Note_on_c, 0, 70, 0
1, 105577, Note_on_c, 0, 72, 53
1, 105588, Note_on_c, 0, 41, 37
1, 105590, Note_on_c, 0, 52, 0
1, 105602, Note_on_c, 0, 67, 35
1, 105666, Note_on_c, 0, 70, 42
1, 105716, Note_on_c, 0, 72, 0
1, 105802, Note_on_c, 0, 53, 35
1, 105850, Note_on_c, 0, 67, 0
1, 105891, Note_on_c, 0, 53, 0
1, 105991, Note_on_c, 0, 53, 35
1, 105995, Note_on_c, 0, 65, 35
1, 106003, Note_on_c, 0, 68, 35
1, 106043, Note_on_c, 0, 70, 0
1, 106058, Note_on_c, 0, 53, 0
1, 106178, Note_on_c, 0, 53, 35
1, 106231, Note_on_c, 0, 53, 0
1, 106393, Note_on_c, 0, 53, 35
1, 106571, Note_on_c, 0, 41, 0
1, 106803, Note_on_c, 0, 65, 0
1, 106809, Note_on_c, 0, 68, 0
1, 106944, Note_on_c, 0, 68, 35
1, 107053, Note_on_c, 0, 53, 0
1, 107289, Note_on_c, 0, 70, 47
1, 107400, Note_on_c, 0, 68, 0
1, 107586, Note_on_c, 0, 72, 54
1, 107641, Note_on_c, 0, 70, 0
1, 107900, Note_on_c, 0, 75, 59
1, 107939, Note_on_c, 0, 72, 0
1, 108265, Note_on_c, 0, 73, 41
1, 108276, Note_on_c, 0, 61, 35
1, 108278, Note_on_c, 0, 53, 35
1, 108278, Note_on_c, 0, 56, 35
1, 108336, Note_on_c, 0, 75, 0
1, 108455, Note_on_c, 0, 56, 0
1, 108457, Note_on_c, 0, 61, 0
1, 108468, Note_on_c, 0, 53, 0
1, 108620, Note_on_c, 0, 61, 35
1, 108624, Note_on_c, 0, 53, 35
1, 108630, Note_on_c, 0, 56, 35
1, 108840, Note_on_c, 0, 56, 0
1, 108840, Note_on_c, 0, 61, 0
1, 108852, Note_on_c, 0, 53, 0
1, 108948, Note_on_c, 0, 72, 56
1, 108956, Note_on_c, 0, 73, 0
1, 108958, Note_on_c, 0, 61, 35
1, 108961, Note_on_c, 0, 53, 35
1, 108966, Note_on_c, 0, 56, 35
1, 109008, Note_on_c, 0, 73, 65
1, 109045, Note_on_c, 0, 72, 0
1, 109188, Note_on_c, 0, 56, 0
1, 109188, Note_on_c, 0, 61, 0
1, 109194, Note_on_c, 0, 53, 0
1, 109214, Note_on_c, 0, 73, 0
1, 109272, Note_on_c, 0, 72, 67
1, 109285, Note_on_c, 0, 61, 38
1, 109292, Note_on_c, 0, 53, 35
1, 109293, Note_on_c, 0, 56, 35
1, 109335, Note_on_c, 0, 73, 70
1, 109375, Note_on_c, 0, 72, 0
1, 109517, Note_on_c, 0, 61, 0
1, 109517, Note_on_c, 0, 56, 0
1, 109530, Note_on_c, 0, 53, 0
1, 109554, Note_on_c, 0, 73, 0
1, 109600, Note_on_c, 0, 72, 74
1, 109608, Note_on_c, 0, 61, 43
1, 109608, Note_on_c, 0, 53, 36
1, 109615, Note_on_c, 0, 56, 39
1, 109665, Note_on_c, 0, 73, 77
1, 109691, Note_on_c, 0, 72, 0
1, 109768, Note_on_c, 0, 53, 0
1, 109778, Note_on_c, 0, 56, 0
1, 109832, Note_on_c, 0, 73, 0
1, 109871, Note_on_c, 0, 61, 0
1, 110040, Note_on_c, 0, 73, 74
1, 110056, Note_on_c, 0, 63, 35
1, 110059, Note_on_c, 0, 61, 39
1, 110062, Note_on_c, 0, 58, 35
1, 110062, Note_on_c, 0, 55, 35
1, 110283, Note_on_c, 0, 73, 0
1, 110301, Note_on_c, 0, 75, 60
1, 110350, Note_on_c, 0, 75, 0
1, 110350, Note_on_c, 0, 73, 67
1, 110381, Note_on_c, 0, 73, 0
1, 110388, Note_on_c, 0, 72, 68
1, 110451, Note_on_c, 0, 73, 74
1, 110459, Note_on_c, 0, 72, 0
1, 110642, Note_on_c, 0, 75, 72
1, 110804, Note_on_c, 0, 73, 0
1, 110993, Note_on_c, 0, 77, 64
1, 111084, Note_on_c, 0, 75, 0
1, 111967, Note_on_c, 0, 55, 0
1, 112011, Note_on_c, 0, 58, 0
1, 112017, Note_on_c, 0, 63, 0
1, 112034, Note_on_c, 0, 61, 0
1, 112586, Note_on_c, 0, 75, 36
1, 112807, Note_on_c, 0, 73, 45
1, 112908, Note_on_c, 0, 77, 0
1, 112928, Note_on_c, 0, 75, 0
1, 112993, Note_on_c, 0, 56, 35
1, 112993, Note_on_c, 0, 72, 50
1, 113033, Note_on_c, 0, 73, 0
1, 113165, Note_on_c, 0, 75, 59
1, 113220, Note_on_c, 0, 72, 0
1, 113323, Note_on_c, 0, 73, 53
1, 113326, Note_on_c, 0, 56, 0
1, 113328, Note_on_c, 0, 58, 36
1, 113333, Note_on_c, 0, 49, 35
1, 113446, Note_on_c, 0, 49, 0
1, 113476, Note_on_c, 0, 75, 0
1, 113486, Note_on_c, 0, 70, 59
1, 113616, Note_on_c, 0, 58, 0
1, 113647, Note_on_c, 0, 73, 0
1, 113751, Note_on_c, 0, 68, 49
1, 113763, Note_on_c, 0, 51, 35
1, 113777, Note_on_c, 0, 60, 35
1, 113834, Note_on_c, 0, 70, 0
1, 114206, Note_on_c, 0, 60, 0
1, 114528, Note_on_c, 0, 61, 35
1, 114851, Note_on_c, 0, 68, 0
1, 114877, Note_on_c, 0, 72, 48
1, 114888, Note_on_c, 0, 67, 35
1, 115100, Note_on_c, 0, 70, 45
1, 115146, Note_on_c, 0, 61, 0
1, 115178, Note_on_c, 0, 72, 0
1, 115226, Note_on_c, 0, 67, 0
1, 115347, Note_on_c, 0, 68, 36
1, 115363, Note_on_c, 0, 60, 35
1, 115364, Note_on_c, 0, 56, 35
1, 115418, Note_on_c, 0, 70, 0
1, 115498, Note_on_c, 0, 51, 0
1, 115639, Note_on_c, 0, 60, 0
1, 115894, Note_on_c, 0, 56, 0
1, 116269, Note_on_c, 0, 44, 35
1, 116556, Note_on_c, 0, 68, 0
1, 116893, Note_on_c, 0, 63, 40
1, 116951, Note_on_c, 0, 44, 0
1, 117250, Note_on_c, 0, 68, 45
1, 117296, Note_on_c, 0, 63, 0
1, 117559, Note_on_c, 0, 72, 55
1, 117695, Note_on_c, 0, 68, 0
1, 117887, Note_on_c, 0, 75, 64
1, 117919, Note_on_c, 0, 72, 0
1, 118202, Note_on_c, 0, 56, 35
1, 118508, Note_on_c, 0, 60, 35
1, 118791, Note_on_c, 0, 73, 45
1, 118813, Note_on_c, 0, 63, 35
1, 118931, Note_on_c, 0, 72, 57
1, 119038, Note_on_c, 0, 63, 0
1, 119093, Note_on_c, 0, 70, 55
1, 119103, Note_on_c, 0, 60, 0
1, 119111, Note_on_c, 0, 53, 35
1, 119121, Note_on_c, 0, 75, 0
1, 119131, Note_on_c, 0, 72, 0
1, 119170, Note_on_c, 0, 73, 0
1, 119269, Note_on_c, 0, 70, 0
1, 119304, Note_on_c, 0, 56, 0
1, 119420, Note_on_c, 0, 68, 50
1, 119433, Note_on_c, 0, 62, 35
1, 119609, Note_on_c, 0, 68, 0
1, 119623, Note_on_c, 0, 62, 0
1, 119639, Note_on_c, 0, 53, 0
1, 119767, Note_on_c, 0, 72, 57
1, 120086, Note_on_c, 0, 51, 35
1, 120449, Note_on_c, 0, 70, 36
1, 120449, Note_on_c, 0, 55, 35
1, 120545, Note_on_c, 0, 72, 0
1, 120739, Note_on_c, 0, 51, 0
1, 120863, Note_on_c, 0, 60, 60
1, 120867, Note_on_c, 0, 52, 35
1, 120869, Note_on_c, 0, 58, 35
1, 120998, Note_on_c, 0, 55, 0
1, 121043, Note_on_c, 0, 52, 0
1, 121192, Note_on_c, 0, 65, 65
1, 121207, Note_on_c, 0, 53, 35
1, 121212, Note_on_c, 0, 56, 43
1, 121240, Note_on_c, 0, 60, 0
1, 121282, Note_on_c, 0, 58, 0
1, 121345, Note_on_c, 0, 70, 0
1, 121492, Note_on_c, 0, 68, 70
1, 121520, Note_on_c, 0, 65, 0
1, 121605, Note_on_c, 0, 68, 0
1, 121647, Note_on_c, 0, 53, 0
1, 121650, Note_on_c, 0, 56, 0
1, 121808, Note_on_c, 0, 72, 84
1, 122124, Note_on_c, 0, 49, 77
1, 122489, Note_on_c, 0, 53, 56
1, 122813, Note_on_c, 0, 56, 44
1, 122816, Note_on_c, 0, 70, 64
1, 122949, Note_on_c, 0, 68, 70
1, 123097, Note_on_c, 0, 67, 68
1, 123116, Note_on_c, 0, 58, 53
1, 123135, Note_on_c, 0, 68, 0
1, 123163, Note_on_c, 0, 56, 0
1, 123170, Note_on_c, 0, 70, 0
1, 123178, Note_on_c, 0, 53, 0
1, 123241, Note_on_c, 0, 72, 0
1, 123273, Note_on_c, 0, 67, 0
1, 123417, Note_on_c, 0, 58, 0
1, 123430, Note_on_c, 0, 65, 62
1, 123439, Note_on_c, 0, 59, 46
1, 123593, Note_on_c, 0, 65, 0
1, 123717, Note_on_c, 0, 59, 0
1, 123888, Note_on_c, 0, 68, 57
1, 123895, Note_on_c, 0, 65, 48
1, 123896, Note_on_c, 0, 60, 35
1, 123902, Note_on_c, 0, 48, 35
1, 124001, Note_on_c, 0, 49, 0
1, 124575, Note_on_c, 0, 65, 0
1, 124664, Note_on_c, 0, 67, 37
1, 124673, Note_on_c, 0, 64, 35
1, 124731, Note_on_c, 0, 68, 0
1, 124885, Note_on_c, 0, 64, 0
1, 124893, Note_on_c, 0, 67, 0
1, 125033, Note_on_c, 0, 60, 0
1, 125157, Note_on_c, 0, 72, 39
1, 125181, Note_on_c, 0, 48, 0
1, 125507, Note_on_c, 0, 77, 46
1, 125534, Note_on_c, 0, 72, 0
1, 125810, Note_on_c, 0, 77, 0
1, 125816, Note_on_c, 0, 80, 52
1, 125829, Note_on_c, 0, 44, 35
1, 125988, Note_on_c, 0, 80, 0
1, 126153, Note_on_c, 0, 79, 63
1, 126170, Note_on_c, 0, 46, 38
1, 126287, Note_on_c, 0, 44, 0
1, 126473, Note_on_c, 0, 77, 53
1, 126483, Note_on_c, 0, 58, 48
1, 126546, Note_on_c, 0, 79, 0
1, 126547, Note_on_c, 0, 46, 0
1, 126589, Note_on_c, 0, 58, 0
1, 126798, Note_on_c, 0, 59, 59
1, 127133, Note_on_c, 0, 72, 57
1, 127145, Note_on_c, 0, 60, 46
1, 127195, Note_on_c, 0, 59, 0
1, 127212, Note_on_c, 0, 77, 0
1, 127387, Note_on_c, 0, 60, 0
1, 127422, Note_on_c, 0, 77, 72
1, 127536, Note_on_c, 0, 72, 0
1, 127699, Note_on_c, 0, 77, 0
1, 127727, Note_on_c, 0, 80, 75
1, 127727, Note_on_c, 0, 48, 50
1, 127837, Note_on_c, 0, 80, 0
1, 128037, Note_on_c, 0, 79, 81
1, 128044, Note_on_c, 0, 49, 59
1, 128071, Note_on_c, 0, 48, 0
1, 128341, Note_on_c, 0, 77, 72
1, 128359, Note_on_c, 0, 61, 63
1, 128384, Note_on_c, 0, 79, 0
1, 128408, Note_on_c, 0, 49, 0
1, 128527, Note_on_c, 0, 77, 0
1, 128661, Note_on_c, 0, 61, 0
1, 128686, Note_on_c, 0, 63, 79
1, 128821, Note_on_c, 0, 63, 0
1, 128997, Note_on_c, 0, 77, 84
1, 129003, Note_on_c, 0, 69, 71
1, 129003, Note_on_c, 0, 72, 68
1, 129004, Note_on_c, 0, 75, 73
1, 129010, Note_on_c, 0, 48, 63
1, 129013, Note_on_c, 0, 60, 65
1, 129063, Note_on_c, 0, 60, 0
1, 129064, Note_on_c, 0, 48, 0
1, 129167, Note_on_c, 0, 69, 0
1, 129174, Note_on_c, 0, 72, 0
1, 129194, Note_on_c, 0, 77, 0
1, 129252, Note_on_c, 0, 75, 0
1, 129308, Note_on_c, 0, 77, 86
1, 129310, Note_on_c, 0, 75, 78
1, 129310, Note_on_c, 0, 72, 78
1, 129310, Note_on_c, 0, 45, 72
1, 129310, Note_on_c, 0, 69, 77
1, 129313, Note_on_c, 0, 57, 70
1, 129338, Note_on_c, 0, 57, 0
1, 129340, Note_on_c, 0, 45, 0
1, 129533, Note_on_c, 0, 69, 0
1, 129539, Note_on_c, 0, 72, 0
1, 129549, Note_on_c, 0, 77, 0
1, 129569, Note_on_c, 0, 75, 0
1, 129604, Note_on_c, 0, 77, 89
1, 129605, Note_on_c, 0, 69, 77
1, 129606, Note_on_c, 0, 72, 82
1, 129606, Note_on_c, 0, 75, 69
1, 129612, Note_on_c, 0, 41, 75
1, 129612, Note_on_c, 0, 53, 70
1, 129636, Note_on_c, 0, 53, 0
1, 129647, Note_on_c, 0, 41, 0
1, 129838, Note_on_c, 0, 72, 0
1, 129856, Note_on_c, 0, 77, 0
1, 129869, Note_on_c, 0, 69, 0
1, 129893, Note_on_c, 0, 75, 0
1, 129919, Note_on_c, 0, 77, 80
1, 129927, Note_on_c, 0, 73, 67
1, 129934, Note_on_c, 0, 58, 45
1, 129937, Note_on_c, 0, 46, 42
1, 129962, Note_on_c, 0, 73, 0
1, 130095, Note_on_c, 0, 73, 71
1, 130103, Note_on_c, 0, 70, 70
1, 130131, Note_on_c, 0, 77, 0
1, 130146, Note_on_c, 0, 70, 0
1, 130156, Note_on_c, 0, 73, 0
1, 130247, Note_on_c, 0, 73, 70
1, 130251, Note_on_c, 0, 70, 69
1, 130326, Note_on_c, 0, 70, 0
1, 130385, Note_on_c, 0, 46, 0
1, 130415, Note_on_c, 0, 70, 69
1, 130429, Note_on_c, 0, 67, 49
1, 130455, Note_on_c, 0, 58, 0
1, 130480, Note_on_c, 0, 73, 0
1, 130501, Note_on_c, 0, 70, 0
1, 130518, Note_on_c, 0, 67, 0
1, 130639, Note_on_c, 0, 68, 59
1, 130644, Note_on_c, 0, 65, 44
1, 130649, Note_on_c, 0, 48, 35
1, 130657, Note_on_c, 0, 60, 35
1, 131129, Note_on_c, 0, 68, 0
1, 131311, Note_on_c, 0, 65, 0
1, 131316, Note_on_c, 0, 48, 0
1, 131397, Note_on_c, 0, 68, 54
1, 131402, Note_on_c, 0, 48, 38
1, 131406, Note_on_c, 0, 64, 45
1, 131412, Note_on_c, 0, 60, 0
1, 131593, Note_on_c, 0, 67, 56
1, 131742, Note_on_c, 0, 65, 58
1, 131810, Note_on_c, 0, 67, 0
1, 131847, Note_on_c, 0, 68, 0
1, 131882, Note_on_c, 0, 67, 57
1, 131948, Note_on_c, 0, 65, 0
1, 132078, Note_on_c, 0, 65, 48
1, 132084, Note_on_c, 0, 67, 0
1, 132099, Note_on_c, 0, 53, 35
1, 132130, Note_on_c, 0, 64, 0
1, 132195, Note_on_c, 0, 48, 0
1, 132598, Note_on_c, 0, 53, 0
1, 132834, Note_on_c, 0, 41, 35
1, 133104, Note_on_c, 0, 65, 0
1, 133343, Note_on_c, 0, 63, 43
1, 133380, Note_on_c, 0, 41, 0
1, 133670, Note_on_c, 0, 63, 0
1, 133695, Note_on_c, 0, 68, 55
1, 133946, Note_on_c, 0, 68, 0
1, 134019, Note_on_c, 0, 72, 57
1, 134168, Note_on_c, 0, 72, 0
1, 134419, Note_on_c, 0, 75, 61
1, 134815, Note_on_c, 0, 56, 35
1, 135140, Note_on_c, 0, 60, 40
1, 135316, Note_on_c, 0, 56, 0
1, 135427, Note_on_c, 0, 73, 58
1, 135449, Note_on_c, 0, 63, 37
1, 135540, Note_on_c, 0, 72, 64
1, 135636, Note_on_c, 0, 75, 0
1, 135704, Note_on_c, 0, 70, 52
1, 135708, Note_on_c, 0, 53, 35
1, 135720, Note_on_c, 0, 63, 0
1, 135746, Note_on_c, 0, 72, 0
1, 135769, Note_on_c, 0, 73, 0
1, 135801, Note_on_c, 0, 60, 0
1, 135847, Note_on_c, 0, 70, 0
1, 136015, Note_on_c, 0, 68, 50
1, 136019, Note_on_c, 0, 62, 35
1, 136134, Note_on_c, 0, 68, 0
1, 136200, Note_on_c, 0, 62, 0
1, 136219, Note_on_c, 0, 53, 0
1, 136341, Note_on_c, 0, 72, 56
1, 136648, Note_on_c, 0, 51, 35
1, 136992, Note_on_c, 0, 55, 35
1, 136992, Note_on_c, 0, 70, 38
1, 137100, Note_on_c, 0, 72, 0
1, 137234, Note_on_c, 0, 51, 0
1, 137358, Note_on_c, 0, 60, 46
1, 137365, Note_on_c, 0, 52, 36
1, 137368, Note_on_c, 0, 58, 35
1, 137468, Note_on_c, 0, 55, 0
1, 137516, Note_on_c, 0, 52, 0
1, 137677, Note_on_c, 0, 65, 66
1, 137685, Note_on_c, 0, 56, 48
1, 137688, Note_on_c, 0, 53, 35
1, 137722, Note_on_c, 0, 70, 0
1, 137729, Note_on_c, 0, 58, 0
1, 137975, Note_on_c, 0, 68, 74
1, 138007, Note_on_c, 0, 60, 0
1, 138045, Note_on_c, 0, 53, 0
1, 138055, Note_on_c, 0, 56, 0
1, 138058, Note_on_c, 0, 65, 0
1, 138092, Note_on_c, 0, 68, 0
1, 138318, Note_on_c, 0, 72, 82
1, 138634, Note_on_c, 0, 49, 67
1, 139009, Note_on_c, 0, 53, 46
1, 139344, Note_on_c, 0, 70, 56
1, 139344, Note_on_c, 0, 56, 46
1, 139475, Note_on_c, 0, 68, 65
1, 139631, Note_on_c, 0, 67, 60
1, 139638, Note_on_c, 0, 58, 46
1, 139663, Note_on_c, 0, 68, 0
1, 139708, Note_on_c, 0, 72, 0
1, 139716, Note_on_c, 0, 70, 0
1, 139723, Note_on_c, 0, 56, 0
1, 139728, Note_on_c, 0, 53, 0
1, 139803, Note_on_c, 0, 67, 0
1, 139960, Note_on_c, 0, 65, 50
1, 139967, Note_on_c, 0, 59, 44
1, 139970, Note_on_c, 0, 58, 0
1, 140122, Note_on_c, 0, 65, 0
1, 140242, Note_on_c, 0, 59, 0
1, 140388, Note_on_c, 0, 68, 53
1, 140393, Note_on_c, 0, 65, 42
1, 140400, Note_on_c, 0, 60, 35
1, 140406, Note_on_c, 0, 48, 35
1, 140490, Note_on_c, 0, 49, 0
1, 140675, Note_on_c, 0, 65, 0
1, 141211, Note_on_c, 0, 67, 38
1, 141212, Note_on_c, 0, 64, 35
1, 141279, Note_on_c, 0, 68, 0
1, 141450, Note_on_c, 0, 64, 0
1, 141481, Note_on_c, 0, 67, 0
1, 141531, Note_on_c, 0, 60, 0
1, 141812, Note_on_c, 0, 48, 0
1, 141830, Note_on_c, 0, 72, 40
1, 142180, Note_on_c, 0, 77, 46
1, 142208, Note_on_c, 0, 72, 0
1, 142510, Note_on_c, 0, 80, 51
1, 142525, Note_on_c, 0, 44, 35
1, 142557, Note_on_c, 0, 77, 0
1, 142650, Note_on_c, 0, 80, 0
1, 142878, Note_on_c, 0, 79, 60
1, 142893, Note_on_c, 0, 46, 35
1, 143026, Note_on_c, 0, 44, 0
1, 143220, Note_on_c, 0, 77, 54
1, 143232, Note_on_c, 0, 58, 44
1, 143275, Note_on_c, 0, 79, 0
1, 143318, Note_on_c, 0, 46, 0
1, 143378, Note_on_c, 0, 58, 0
1, 143584, Note_on_c, 0, 59, 54
1, 143934, Note_on_c, 0, 72, 54
1, 143942, Note_on_c, 0, 60, 35
1, 143969, Note_on_c, 0, 59, 0
1, 143985, Note_on_c, 0, 77, 0
1, 144206, Note_on_c, 0, 60, 0
1, 144246, Note_on_c, 0, 77, 70
1, 144553, Note_on_c, 0, 48, 39
1, 144559, Note_on_c, 0, 80, 68
1, 144572, Note_on_c, 0, 72, 0
1, 144619, Note_on_c, 0, 77, 0
1, 144662, Note_on_c, 0, 80, 0
1, 144871, Note_on_c, 0, 49, 59
1, 144876, Note_on_c, 0, 79, 75
1, 144906, Note_on_c, 0, 48, 0
1, 145183, Note_on_c, 0, 61, 69
1, 145188, Note_on_c, 0, 77, 76
1, 145219, Note_on_c, 0, 49, 0
1, 145244, Note_on_c, 0, 79, 0
1, 145362, Note_on_c, 0, 77, 0
1, 145518, Note_on_c, 0, 63, 79
1, 145548, Note_on_c, 0, 61, 0
1, 145654, Note_on_c, 0, 63, 0
1, 145830, Note_on_c, 0, 77, 78
1, 145831, Note_on_c, 0, 69, 74
1, 145836, Note_on_c, 0, 75, 69
1, 145836, Note_on_c, 0, 72, 71
1, 145837, Note_on_c, 0, 60, 76
1, 145838, Note_on_c, 0, 48, 75
1, 145910, Note_on_c, 0, 60, 0
1, 145918, Note_on_c, 0, 48, 0
1, 145994, Note_on_c, 0, 72, 0
1, 145999, Note_on_c, 0, 69, 0
1, 145999, Note_on_c, 0, 75, 0
1, 146012, Note_on_c, 0, 77, 0
1, 146170, Note_on_c, 0, 77, 86
1, 146170, Note_on_c, 0, 69, 80
1, 146170, Note_on_c, 0, 72, 80
1, 146170, Note_on_c, 0, 45, 74
1, 146170, Note_on_c, 0, 57, 80
1, 146175, Note_on_c, 0, 75, 78
1, 146241, Note_on_c, 0, 57, 0
1, 146247, Note_on_c, 0, 45, 0
1, 146416, Note_on_c, 0, 75, 0
1, 146427, Note_on_c, 0, 69, 0
1, 146447, Note_on_c, 0, 72, 0
1, 146452, Note_on_c, 0, 77, 0
1, 146497, Note_on_c, 0, 69, 75
1, 146497, Note_on_c, 0, 72, 71
1, 146498, Note_on_c, 0, 77, 86
1, 146499, Note_on_c, 0, 75, 75
1, 146504, Note_on_c, 0, 41, 82
1, 146508, Note_on_c, 0, 53, 72
1, 146525, Note_on_c, 0, 53, 0
1, 146528, Note_on_c, 0, 41, 0
1, 146731, Note_on_c, 0, 72, 0
1, 146733, Note_on_c, 0, 75, 0
1, 146753, Note_on_c, 0, 77, 0
1, 146814, Note_on_c, 0, 69, 0
1, 146865, Note_on_c, 0, 73, 70
1, 146865, Note_on_c, 0, 77, 80
1, 146869, Note_on_c, 0, 46, 42
1, 146877, Note_on_c, 0, 58, 39
1, 146980, Note_on_c, 0, 73, 0
1, 147099, Note_on_c, 0, 73, 81
1, 147103, Note_on_c, 0, 70, 71
1, 147133, Note_on_c, 0, 77, 0
1, 147175, Note_on_c, 0, 70, 0
1, 147175, Note_on_c, 0, 73, 0
1, 147279, Note_on_c, 0, 73, 71
1, 147288, Note_on_c, 0, 70, 67
1, 147366, Note_on_c, 0, 70, 0
1, 147443, Note_on_c, 0, 46, 0
1, 147456, Note_on_c, 0, 70, 71
1, 147463, Note_on_c, 0, 67, 59
1, 147492, Note_on_c, 0, 58, 0
1, 147554, Note_on_c, 0, 70, 0
1, 147554, Note_on_c, 0, 73, 0
1, 147580, Note_on_c, 0, 67, 0
1, 147711, Note_on_c, 0, 68, 65
1, 147714, Note_on_c, 0, 48, 37
1, 147715, Note_on_c, 0, 65, 54
1, 147728, Note_on_c, 0, 60, 37
1, 148269, Note_on_c, 0, 68, 0
1, 148321, Note_on_c, 0, 65, 0
1, 148418, Note_on_c, 0, 48, 0
1, 148667, Note_on_c, 0, 68, 61
1, 148675, Note_on_c, 0, 60, 0
1, 148678, Note_on_c, 0, 64, 48
1, 148690, Note_on_c, 0, 48, 38
1, 148874, Note_on_c, 0, 67, 64
1, 149027, Note_on_c, 0, 65, 57
1, 149110, Note_on_c, 0, 67, 0
1, 149146, Note_on_c, 0, 68, 0
1, 149211, Note_on_c, 0, 67, 54
1, 149264, Note_on_c, 0, 65, 0
1, 149420, Note_on_c, 0, 65, 45
1, 149434, Note_on_c, 0, 53, 35
1, 149465, Note_on_c, 0, 64, 0
1, 149505, Note_on_c, 0, 67, 0
1, 149563, Note_on_c, 0, 48, 0
1, 149911, Note_on_c, 0, 53, 0
1, 150243, Note_on_c, 0, 41, 35
1, 150389, Note_on_c, 0, 65, 0
1, 150822, Note_on_c, 0, 68, 36
1, 150825, Note_on_c, 0, 60, 35
1, 150864, Note_on_c, 0, 41, 0
1, 151011, Note_on_c, 0, 60, 0
1, 151022, Note_on_c, 0, 68, 0
1, 151154, Note_on_c, 0, 68, 39
1, 151162, Note_on_c, 0, 60, 35
1, 151362, Note_on_c, 0, 60, 0
1, 151378, Note_on_c, 0, 68, 0
1, 151499, Note_on_c, 0, 68, 38
1, 151501, Note_on_c, 0, 60, 35
1, 151682, Note_on_c, 0, 60, 0
1, 151703, Note_on_c, 0, 68, 0
1, 151876, Note_on_c, 0, 68, 44
1, 151876, Note_on_c, 0, 60, 35
1, 151884, Note_on_c, 0, 41, 35
1, 152070, Note_on_c, 0, 53, 35
1, 152164, Note_on_c, 0, 53, 0
1, 152241, Note_on_c, 0, 53, 35
1, 152314, Note_on_c, 0, 53, 0
1, 152417, Note_on_c, 0, 53, 35
1, 152491, Note_on_c, 0, 53, 0
1, 152584, Note_on_c, 0, 53, 35
1, 152606, Note_on_c, 0, 60, 0
1, 152649, Note_on_c, 0, 53, 0
1, 152737, Note_on_c, 0, 53, 35
1, 152738, Note_on_c, 0, 68, 0
1, 152798, Note_on_c, 0, 53, 0
1, 152904, Note_on_c, 0, 53, 35
1, 152904, Note_on_c, 0, 67, 46
1, 152908, Note_on_c, 0, 58, 37
1, 152984, Note_on_c, 0, 53, 0
1, 153061, Note_on_c, 0, 53, 39
1, 153118, Note_on_c, 0, 53, 0
1, 153215, Note_on_c, 0, 58, 0
1, 153223, Note_on_c, 0, 70, 49
1, 153223, Note_on_c, 0, 61, 44
1, 153236, Note_on_c, 0, 53, 35
1, 153311, Note_on_c, 0, 53, 0
1, 153334, Note_on_c, 0, 67, 0
1, 153359, Note_on_c, 0, 70, 0
1, 153396, Note_on_c, 0, 53, 37
1, 153467, Note_on_c, 0, 53, 0
1, 153480, Note_on_c, 0, 61, 0
1, 153557, Note_on_c, 0, 64, 42
1, 153566, Note_on_c, 0, 55, 35
1, 153571, Note_on_c, 0, 53, 35
1, 153646, Note_on_c, 0, 53, 0
1, 153713, Note_on_c, 0, 55, 0
1, 153739, Note_on_c, 0, 53, 37
1, 153827, Note_on_c, 0, 41, 0
1, 153848, Note_on_c, 0, 53, 0
1, 153918, Note_on_c, 0, 65, 43
1, 153925, Note_on_c, 0, 41, 36
1, 153930, Note_on_c, 0, 56, 38
1, 154008, Note_on_c, 0, 64, 0
1, 154089, Note_on_c, 0, 53, 35
1, 154170, Note_on_c, 0, 53, 0
1, 154245, Note_on_c, 0, 53, 37
1, 154319, Note_on_c, 0, 53, 0
1, 154343, Note_on_c, 0, 56, 0
1, 154371, Note_on_c, 0, 65, 0
1, 154409, Note_on_c, 0, 53, 41
1, 154449, Note_on_c, 0, 53, 0
1, 154572, Note_on_c, 0, 53, 35
1, 154638, Note_on_c, 0, 53, 0
1, 154731, Note_on_c, 0, 53, 35
1, 154812, Note_on_c, 0, 53, 0
1, 154889, Note_on_c, 0, 72, 51
1, 154895, Note_on_c, 0, 68, 43
1, 154912, Note_on_c, 0, 53, 35
1, 154949, Note_on_c, 0, 53, 0
1, 155052, Note_on_c, 0, 53, 37
1, 155095, Note_on_c, 0, 53, 0
1, 155111, Note_on_c, 0, 68, 0
1, 155125, Note_on_c, 0, 72, 0
1, 155222, Note_on_c, 0, 72, 51
1, 155230, Note_on_c, 0, 68, 49
1, 155244, Note_on_c, 0, 53, 36
1, 155292, Note_on_c, 0, 53, 0
1, 155408, Note_on_c, 0, 53, 35
1, 155425, Note_on_c, 0, 68, 0
1, 155448, Note_on_c, 0, 72, 0
1, 155508, Note_on_c, 0, 53, 0
1, 155576, Note_on_c, 0, 72, 49
1, 155579, Note_on_c, 0, 68, 50
1, 155599, Note_on_c, 0, 53, 35
1, 155682, Note_on_c, 0, 53, 0
1, 155804, Note_on_c, 0, 53, 35
1, 155846, Note_on_c, 0, 68, 0
1, 155904, Note_on_c, 0, 41, 0
1, 155916, Note_on_c, 0, 72, 0
1, 155927, Note_on_c, 0, 53, 0
1, 156084, Note_on_c, 0, 72, 46
1, 156088, Note_on_c, 0, 68, 48
1, 156092, Note_on_c, 0, 64, 56
1, 156102, Note_on_c, 0, 41, 40
1, 156355, Note_on_c, 0, 53, 35
1, 156444, Note_on_c, 0, 53, 0
1, 156539, Note_on_c, 0, 53, 35
1, 156608, Note_on_c, 0, 53, 0
1, 156717, Note_on_c, 0, 53, 35
1, 156803, Note_on_c, 0, 53, 0
1, 156893, Note_on_c, 0, 53, 35
1, 156991, Note_on_c, 0, 53, 0
1, 157012, Note_on_c, 0, 68, 0
1, 157080, Note_on_c, 0, 53, 35
1, 157160, Note_on_c, 0, 53, 0
1, 157261, Note_on_c, 0, 70, 47
1, 157266, Note_on_c, 0, 67, 42
1, 157266, Note_on_c, 0, 53, 35
1, 157336, Note_on_c, 0, 72, 0
1, 157361, Note_on_c, 0, 53, 0
1, 157442, Note_on_c, 0, 53, 36
1, 157480, Note_on_c, 0, 67, 0
1, 157502, Note_on_c, 0, 70, 0
1, 157539, Note_on_c, 0, 53, 0
1, 157646, Note_on_c, 0, 73, 44
1, 157646, Note_on_c, 0, 70, 40
1, 157647, Note_on_c, 0, 53, 35
1, 157764, Note_on_c, 0, 53, 0
1, 157804, Note_on_c, 0, 73, 0
1, 157822, Note_on_c, 0, 70, 0
1, 157847, Note_on_c, 0, 64, 0
1, 157859, Note_on_c, 0, 53, 35
1, 157940, Note_on_c, 0, 53, 0
1, 158088, Note_on_c, 0, 64, 39
1, 158101, Note_on_c, 0, 58, 36
1, 158104, Note_on_c, 0, 60, 35
1, 158109, Note_on_c, 0, 53, 35
1, 158215, Note_on_c, 0, 53, 0
1, 158298, Note_on_c, 0, 64, 0
1, 158338, Note_on_c, 0, 60, 0
1, 158366, Note_on_c, 0, 53, 35
1, 158391, Note_on_c, 0, 58, 0
1, 158488, Note_on_c, 0, 53, 0
1, 158869, Note_on_c, 0, 65, 38
1, 158876, Note_on_c, 0, 60, 35
1, 158880, Note_on_c, 0, 56, 35
1, 158894, Note_on_c, 0, 53, 35
1, 159093, Note_on_c, 0, 41, 0
1, 159491, Note_on_c, 0, 56, 0
1, 159520, Note_on_c, 0, 60, 0
1, 159552, Note_on_c, 0, 65, 0
1, 159722, Note_on_c, 0, 53, 0
1, 160573, Note_on_c, 0, 72, 35
1, 160794, Note_on_c, 0, 72, 0
1, 160900, Note_on_c, 0, 72, 37
1, 161023, Note_on_c, 0, 72, 0
1, 161218, Note_on_c, 0, 72, 51
1, 161339, Note_on_c, 0, 72, 0
1, 161537, Note_on_c, 0, 72, 48
1, 161549, Note_on_c, 0, 53, 35
1, 161556, Note_on_c, 0, 60, 35
1, 161557, Note_on_c, 0, 57, 35
1, 161671, Note_on_c, 0, 72, 0
1, 161691, Note_on_c, 0, 74, 55
1, 161715, Note_on_c, 0, 74, 0
1, 161741, Note_on_c, 0, 72, 57
1, 161766, Note_on_c, 0, 72, 0
1, 161772, Note_on_c, 0, 71, 60
1, 161798, Note_on_c, 0, 71, 0
1, 161819, Note_on_c, 0, 72, 60
1, 161856, Note_on_c, 0, 72, 0
1, 161990, Note_on_c, 0, 77, 59
1, 162174, Note_on_c, 0, 72, 37
1, 162180, Note_on_c, 0, 77, 0
1, 162308, Note_on_c, 0, 72, 0
1, 162481, Note_on_c, 0, 60, 0
1, 162482, Note_on_c, 0, 57, 0
1, 162488, Note_on_c, 0, 69, 53
1, 162490, Note_on_c, 0, 53, 0
1, 162814, Note_on_c, 0, 72, 57
1, 162826, Note_on_c, 0, 55, 35
1, 162834, Note_on_c, 0, 58, 35
1, 162834, Note_on_c, 0, 48, 35
1, 162924, Note_on_c, 0, 69, 0
1, 163139, Note_on_c, 0, 64, 48
1, 163209, Note_on_c, 0, 72, 0
1, 163357, Note_on_c, 0, 58, 0
1, 163378, Note_on_c, 0, 55, 0
1, 163524, Note_on_c, 0, 67, 48
1, 163539, Note_on_c, 0, 50, 35
1, 163539, Note_on_c, 0, 58, 36
1, 163604, Note_on_c, 0, 64, 0
1, 163629, Note_on_c, 0, 48, 0
1, 164004, Note_on_c, 0, 58, 0
1, 164250, Note_on_c, 0, 65, 35
1, 164259, Note_on_c, 0, 57, 35
1, 164303, Note_on_c, 0, 67, 0
1, 164440, Note_on_c, 0, 50, 0
1, 164442, Note_on_c, 0, 65, 0
1, 164541, Note_on_c, 0, 57, 0
1, 164628, Note_on_c, 0, 65, 59
1, 164631, Note_on_c, 0, 60, 46
1, 164639, Note_on_c, 0, 57, 35
1, 164646, Note_on_c, 0, 45, 36
1, 164818, Note_on_c, 0, 45, 0
1, 164818, Note_on_c, 0, 57, 0
1, 164938, Note_on_c, 0, 67, 65
1, 164939, Note_on_c, 0, 64, 57
1, 164948, Note_on_c, 0, 43, 44
1, 164951, Note_on_c, 0, 55, 37
1, 164986, Note_on_c, 0, 65, 0
1, 165105, Note_on_c, 0, 55, 0
1, 165106, Note_on_c, 0, 64, 0
1, 165122, Note_on_c, 0, 43, 0
1, 165147, Note_on_c, 0, 60, 0
1, 165218, Note_on_c, 0, 67, 0
1, 165238, Note_on_c, 0, 69, 72
1, 165240, Note_on_c, 0, 65, 53
1, 165255, Note_on_c, 0, 41, 43
1, 165256, Note_on_c, 0, 53, 37
1, 165260, Note_on_c, 0, 60, 37
1, 165351, Note_on_c, 0, 41, 0
1, 165368, Note_on_c, 0, 65, 0
1, 165371, Note_on_c, 0, 53, 0
1, 165372, Note_on_c, 0, 60, 0
1, 165391, Note_on_c, 0, 69, 0
1, 165560, Note_on_c, 0, 70, 76
1, 165560, Note_on_c, 0, 50, 41
1, 165565, Note_on_c, 0, 65, 58
1, 165566, Note_on_c, 0, 62, 44
1, 165698, Note_on_c, 0, 62, 0
1, 165721, Note_on_c, 0, 50, 0
1, 165933, Note_on_c, 0, 58, 44
1, 165937, Note_on_c, 0, 46, 40
1, 166096, Note_on_c, 0, 72, 63
1, 166124, Note_on_c, 0, 70, 0
1, 166144, Note_on_c, 0, 58, 0
1, 166162, Note_on_c, 0, 72, 0
1, 166164, Note_on_c, 0, 74, 62
1, 166227, Note_on_c, 0, 74, 0
1, 166247, Note_on_c, 0, 72, 56
1, 166272, Note_on_c, 0, 57, 35
1, 166273, Note_on_c, 0, 45, 35
1, 166343, Note_on_c, 0, 46, 0
1, 166441, Note_on_c, 0, 72, 0
1, 166517, Note_on_c, 0, 65, 0
1, 166614, Note_on_c, 0, 57, 0
1, 166698, Note_on_c, 0, 65, 47
1, 167014, Note_on_c, 0, 64, 45
1, 167020, Note_on_c, 0, 59, 39
1, 167024, Note_on_c, 0, 50, 35
1, 167113, Note_on_c, 0, 65, 0
1, 167122, Note_on_c, 0, 45, 0
1, 167329, Note_on_c, 0, 65, 51
1, 167455, Note_on_c, 0, 64, 0
1, 167455, Note_on_c, 0, 59, 0
1, 167510, Note_on_c, 0, 65, 0
1, 167714, Note_on_c, 0, 69, 54
1, 167725, Note_on_c, 0, 60, 35
1, 167729, Note_on_c, 0, 65, 38
1, 167730, Note_on_c, 0, 48, 35
1, 167856, Note_on_c, 0, 50, 0
1, 168200, Note_on_c, 0, 65, 0
1, 168437, Note_on_c, 0, 69, 0
1, 168489, Note_on_c, 0, 67, 36
1, 168500, Note_on_c, 0, 64, 35
1, 168768, Note_on_c, 0, 60, 0
1, 168789, Note_on_c, 0, 48, 0
1, 168828, Note_on_c, 0, 67, 0
1, 168855, Note_on_c, 0, 64, 0
1, 168912, Note_on_c, 0, 67, 59
1, 169077, Note_on_c, 0, 67, 0
1, 169222, Note_on_c, 0, 67, 68
1, 169229, Note_on_c, 0, 64, 44
1, 169232, Note_on_c, 0, 60, 39
1, 169404, Note_on_c, 0, 67, 0
1, 169524, Note_on_c, 0, 67, 65
1, 169600, Note_on_c, 0, 67, 0
1, 169608, Note_on_c, 0, 64, 0
1, 169656, Note_on_c, 0, 60, 0
1, 169844, Note_on_c, 0, 67, 54
1, 169877, Note_on_c, 0, 79, 78
1, 169879, Note_on_c, 0, 59, 38
1, 169884, Note_on_c, 0, 62, 44
1, 169884, Note_on_c, 0, 65, 46
1, 169970, Note_on_c, 0, 67, 0
1, 170427, Note_on_c, 0, 79, 0
1, 170431, Note_on_c, 0, 74, 55
1, 170486, Note_on_c, 0, 71, 57
1, 170493, Note_on_c, 0, 74, 0
1, 170576, Note_on_c, 0, 71, 0
1, 170577, Note_on_c, 0, 67, 35
1, 170767, Note_on_c, 0, 67, 0
1, 170876, Note_on_c, 0, 67, 58
1, 171025, Note_on_c, 0, 67, 0
1, 171057, Note_on_c, 0, 65, 0
1, 171098, Note_on_c, 0, 62, 0
1, 171156, Note_on_c, 0, 67, 67
1, 171156, Note_on_c, 0, 60, 53
1, 171161, Note_on_c, 0, 64, 54
1, 171170, Note_on_c, 0, 59, 0
1, 171324, Note_on_c, 0, 67, 0
1, 171329, Note_on_c, 0, 64, 0
1, 171345, Note_on_c, 0, 60, 0
1, 171455, Note_on_c, 0, 67, 74
1, 171574, Note_on_c, 0, 67, 0
1, 171726, Note_on_c, 0, 67, 72
1, 171789, Note_on_c, 0, 79, 83
1, 171795, Note_on_c, 0, 67, 0
1, 171795, Note_on_c, 0, 59, 51
1, 171800, Note_on_c, 0, 50, 42
1, 171801, Note_on_c, 0, 53, 48
1, 172200, Note_on_c, 0, 53, 0
1, 172278, Note_on_c, 0, 59, 0
1, 172454, Note_on_c, 0, 60, 47
1, 172456, Note_on_c, 0, 52, 48
1, 172459, Note_on_c, 0, 55, 43
1, 172575, Note_on_c, 0, 50, 0
1, 172595, Note_on_c, 0, 79, 0
1, 172605, Note_on_c, 0, 81, 63
1, 172658, Note_on_c, 0, 81, 0
1, 172658, Note_on_c, 0, 83, 74
1, 172693, Note_on_c, 0, 83, 0
1, 172759, Note_on_c, 0, 84, 59
1, 172784, Note_on_c, 0, 84, 0
1, 172849, Note_on_c, 0, 60, 0
1, 172861, Note_on_c, 0, 55, 0
1, 172865, Note_on_c, 0, 52, 0
1, 172918, Note_on_c, 0, 83, 57
1, 172949, Note_on_c, 0, 83, 0
1, 173066, Note_on_c, 0, 81, 43
1, 173094, Note_on_c, 0, 81, 0
1, 173217, Note_on_c, 0, 79, 44
1, 173260, Note_on_c, 0, 79, 0
1, 173360, Note_on_c, 0, 77, 46
1, 173420, Note_on_c, 0, 77, 0
1, 173514, Note_on_c, 0, 76, 52
1, 173551, Note_on_c, 0, 76, 0
1, 173675, Note_on_c, 0, 73, 47
1, 173826, Note_on_c, 0, 73, 0
1, 173832, Note_on_c, 0, 74, 57
1, 173974, Note_on_c, 0, 77, 61
1, 173982, Note_on_c, 0, 74, 0
1, 173990, Note_on_c, 0, 62, 36
1, 173990, Note_on_c, 0, 57, 37
1, 173997, Note_on_c, 0, 53, 35
1, 174126, Note_on_c, 0, 53, 0
1, 174126, Note_on_c, 0, 77, 0
1, 174130, Note_on_c, 0, 81, 67
1, 174136, Note_on_c, 0, 57, 0
1, 174202, Note_on_c, 0, 62, 0
1, 174332, Note_on_c, 0, 81, 0
1, 174342, Note_on_c, 0, 72, 59
1, 174354, Note_on_c, 0, 64, 35
1, 174358, Note_on_c, 0, 55, 35
1, 174364, Note_on_c, 0, 60, 35
1, 174778, Note_on_c, 0, 64, 0
1, 175047, Note_on_c, 0, 65, 35
1, 175052, Note_on_c, 0, 62, 35
1, 175200, Note_on_c, 0, 60, 0
1, 175389, Note_on_c, 0, 72, 0
1, 175389, Note_on_c, 0, 76, 51
1, 175394, Note_on_c, 0, 71, 41
1, 175515, Note_on_c, 0, 65, 0
1, 175571, Note_on_c, 0, 74, 49
1, 175578, Note_on_c, 0, 71, 0
1, 175615, Note_on_c, 0, 76, 0
1, 175669, Note_on_c, 0, 74, 0
1, 175734, Note_on_c, 0, 62, 0
1, 175787, Note_on_c, 0, 72, 41
1, 175792, Note_on_c, 0, 60, 35
1, 175798, Note_on_c, 0, 64, 35
1, 175933, Note_on_c, 0, 55, 0
1, 176036, Note_on_c, 0, 64, 0
1, 176317, Note_on_c, 0, 60, 0
1, 176525, Note_on_c, 0, 48, 35
1, 176736, Note_on_c, 0, 72, 0
1, 176938, Note_on_c, 0, 72, 53
1, 176980, Note_on_c, 0, 48, 0
1, 177167, Note_on_c, 0, 72, 0
1, 177303, Note_on_c, 0, 74, 60
1, 177396, Note_on_c, 0, 72, 66
1, 177474, Note_on_c, 0, 74, 0
1, 177523, Note_on_c, 0, 72, 0
1, 177629, Note_on_c, 0, 70, 66
1, 177740, Note_on_c, 0, 69, 59
1, 177778, Note_on_c, 0, 70, 0
1, 177911, Note_on_c, 0, 69, 0
1, 178105, Note_on_c, 0, 67, 61
1, 178117, Note_on_c, 0, 63, 37
1, 178120, Note_on_c, 0, 60, 36
1, 178843, Note_on_c, 0, 66, 37
1, 178894, Note_on_c, 0, 67, 0
1, 179008, Note_on_c, 0, 60, 0
1, 179066, Note_on_c, 0, 63, 0
1, 179075, Note_on_c, 0, 66, 0
1, 179200, Note_on_c, 0, 66, 55
1, 179202, Note_on_c, 0, 63, 42
1, 179211, Note_on_c, 0, 60, 35
1, 179402, Note_on_c, 0, 63, 0
1, 179512, Note_on_c, 0, 67, 59
1, 179522, Note_on_c, 0, 60, 0
1, 179522, Note_on_c, 0, 62, 38
1, 179528, Note_on_c, 0, 58, 39
1, 179582, Note_on_c, 0, 66, 0
1, 179651, Note_on_c, 0, 67, 0
1, 179656, Note_on_c, 0, 62, 0
1, 179658, Note_on_c, 0, 58, 0
1, 179827, Note_on_c, 0, 69, 67
1, 179832, Note_on_c, 0, 62, 43
1, 179832, Note_on_c, 0, 57, 46
1, 179835, Note_on_c, 0, 60, 48
1, 179837, Note_on_c, 0, 66, 55
1, 179937, Note_on_c, 0, 66, 0
1, 179945, Note_on_c, 0, 69, 0
1, 180084, Note_on_c, 0, 57, 0
1, 180124, Note_on_c, 0, 60, 0
1, 180131, Note_on_c, 0, 62, 0
1, 180242, Note_on_c, 0, 69, 67
1, 180252, Note_on_c, 0, 66, 52
1, 180263, Note_on_c, 0, 55, 36
1, 180268, Note_on_c, 0, 60, 35
1, 180268, Note_on_c, 0, 62, 35
1, 180593, Note_on_c, 0, 60, 0
1, 180819, Note_on_c, 0, 66, 0
1, 180974, Note_on_c, 0, 69, 0
1, 180992, Note_on_c, 0, 70, 44
1, 180997, Note_on_c, 0, 58, 35
1, 181006, Note_on_c, 0, 67, 35
1, 181179, Note_on_c, 0, 62, 0
1, 181224, Note_on_c, 0, 55, 0
1, 181269, Note_on_c, 0, 58, 0
1, 181284, Note_on_c, 0, 70, 0
1, 181290, Note_on_c, 0, 67, 0
1, 181442, Note_on_c, 0, 64, 46
1, 181453, Note_on_c, 0, 61, 36
1, 181461, Note_on_c, 0, 58, 35
1, 181662, Note_on_c, 0, 61, 0
1, 181773, Note_on_c, 0, 65, 59
1, 181776, Note_on_c, 0, 60, 35
1, 181781, Note_on_c, 0, 57, 43
1, 181788, Note_on_c, 0, 58, 0
1, 181834, Note_on_c, 0, 64, 0
1, 181916, Note_on_c, 0, 65, 0
1, 182055, Note_on_c, 0, 57, 0
1, 182088, Note_on_c, 0, 67, 66
1, 182092, Note_on_c, 0, 64, 55
1, 182098, Note_on_c, 0, 55, 35
1, 182102, Note_on_c, 0, 58, 42
1, 182225, Note_on_c, 0, 55, 0
1, 182234, Note_on_c, 0, 67, 0
1, 182245, Note_on_c, 0, 58, 0
1, 182253, Note_on_c, 0, 64, 0
1, 182385, Note_on_c, 0, 69, 68
1, 182389, Note_on_c, 0, 60, 0
1, 182389, Note_on_c, 0, 60, 35
1, 182393, Note_on_c, 0, 65, 58
1, 182397, Note_on_c, 0, 57, 43
1, 182405, Note_on_c, 0, 53, 42
1, 182678, Note_on_c, 0, 70, 73
1, 182700, Note_on_c, 0, 50, 51
1, 182701, Note_on_c, 0, 57, 0
1, 182706, Note_on_c, 0, 53, 0
1, 182757, Note_on_c, 0, 60, 0
1, 182774, Note_on_c, 0, 69, 0
1, 183009, Note_on_c, 0, 72, 70
1, 183018, Note_on_c, 0, 45, 44
1, 183026, Note_on_c, 0, 50, 0
1, 183060, Note_on_c, 0, 70, 0
1, 183320, Note_on_c, 0, 73, 69
1, 183417, Note_on_c, 0, 72, 0
1, 183690, Note_on_c, 0, 76, 62
1, 183699, Note_on_c, 0, 46, 37
1, 183723, Note_on_c, 0, 73, 0
1, 183761, Note_on_c, 0, 45, 0
1, 183801, Note_on_c, 0, 74, 64
1, 183844, Note_on_c, 0, 76, 0
1, 183870, Note_on_c, 0, 74, 0
1, 183920, Note_on_c, 0, 65, 0
1, 184060, Note_on_c, 0, 72, 46
1, 184066, Note_on_c, 0, 43, 35
1, 184067, Note_on_c, 0, 67, 38
1, 184119, Note_on_c, 0, 46, 0
1, 184169, Note_on_c, 0, 70, 49
1, 184179, Note_on_c, 0, 72, 0
1, 184245, Note_on_c, 0, 70, 0
1, 184348, Note_on_c, 0, 67, 0
1, 184472, Note_on_c, 0, 69, 42
1, 184476, Note_on_c, 0, 65, 38
1, 184482, Note_on_c, 0, 48, 35
1, 184556, Note_on_c, 0, 43, 0
1, 184987, Note_on_c, 0, 65, 0
1, 185229, Note_on_c, 0, 67, 35
1, 185242, Note_on_c, 0, 64, 35
1, 185304, Note_on_c, 0, 69, 0
1, 185484, Note_on_c, 0, 64, 0
1, 185513, Note_on_c, 0, 67, 0
1, 185642, Note_on_c, 0, 48, 0
1, 185730, Note_on_c, 0, 72, 51
1, 185948, Note_on_c, 0, 72, 0
1, 186050, Note_on_c, 0, 72, 70
1, 186221, Note_on_c, 0, 72, 0
1, 186387, Note_on_c, 0, 72, 77
1, 186634, Note_on_c, 0, 72, 0
1, 186797, Note_on_c, 0, 82, 86
1, 186804, Note_on_c, 0, 72, 75
1, 186813, Note_on_c, 0, 36, 74
1, 186813, Note_on_c, 0, 48, 75
1, 187257, Note_on_c, 0, 36, 0
1, 187283, Note_on_c, 0, 48, 0
1, 187370, Note_on_c, 0, 50, 71
1, 187371, Note_on_c, 0, 38, 71
1, 187429, Note_on_c, 0, 38, 0
1, 187439, Note_on_c, 0, 50, 0
1, 187495, Note_on_c, 0, 52, 75
1, 187500, Note_on_c, 0, 40, 69
1, 187633, Note_on_c, 0, 40, 0
1, 187645, Note_on_c, 0, 52, 0
1, 187700, Note_on_c, 0, 82, 0
1, 187801, Note_on_c, 0, 81, 83
1, 187807, Note_on_c, 0, 53, 68
1, 187809, Note_on_c, 0, 41, 69
1, 187886, Note_on_c, 0, 41, 0
1, 187900, Note_on_c, 0, 53, 0
1, 188099, Note_on_c, 0, 79, 83
1, 188103, Note_on_c, 0, 43, 71
1, 188103, Note_on_c, 0, 55, 72
1, 188116, Note_on_c, 0, 81, 0
1, 188169, Note_on_c, 0, 43, 0
1, 188172, Note_on_c, 0, 55, 0
1, 188391, Note_on_c, 0, 77, 80
1, 188398, Note_on_c, 0, 69, 70
1, 188401, Note_on_c, 0, 45, 74
1, 188401, Note_on_c, 0, 57, 76
1, 188412, Note_on_c, 0, 79, 0
1, 188491, Note_on_c, 0, 57, 0
1, 188492, Note_on_c, 0, 45, 0
1, 188617, Note_on_c, 0, 77, 0
1, 188625, Note_on_c, 0, 69, 0
1, 188798, Note_on_c, 0, 77, 84
1, 188805, Note_on_c, 0, 67, 68
1, 188811, Note_on_c, 0, 58, 57
1, 188816, Note_on_c, 0, 46, 52
1, 189641, Note_on_c, 0, 76, 59
1, 189813, Note_on_c, 0, 77, 0
1, 189989, Note_on_c, 0, 76, 0
1, 189994, Note_on_c, 0, 72, 0
1, 190243, Note_on_c, 0, 75, 49
1, 190410, Note_on_c, 0, 67, 0
1, 190447, Note_on_c, 0, 75, 0
1, 190525, Note_on_c, 0, 58, 0
1, 190533, Note_on_c, 0, 46, 0
1, 190585, Note_on_c, 0, 75, 60
1, 190836, Note_on_c, 0, 75, 0
1, 190923, Note_on_c, 0, 75, 59
1, 191179, Note_on_c, 0, 75, 0
1, 191295, Note_on_c, 0, 65, 35
1, 191300, Note_on_c, 0, 57, 35
1, 191301, Note_on_c, 0, 60, 35
1, 191348, Note_on_c, 0, 75, 49
1, 191366, Note_on_c, 0, 75, 0
1, 191386, Note_on_c, 0, 77, 50
1, 191403, Note_on_c, 0, 77, 0
1, 191413, Note_on_c, 0, 75, 56
1, 191433, Note_on_c, 0, 75, 0
1, 191447, Note_on_c, 0, 77, 56
1, 191467, Note_on_c, 0, 77, 0
1, 191489, Note_on_c, 0, 75, 53
1, 191505, Note_on_c, 0, 75, 0
1, 191512, Note_on_c, 0, 77, 57
1, 191532, Note_on_c, 0, 77, 0
1, 191552, Note_on_c, 0, 75, 56
1, 191565, Note_on_c, 0, 75, 0
1, 191573, Note_on_c, 0, 77, 56
1, 191592, Note_on_c, 0, 77, 0
1, 191609, Note_on_c, 0, 75, 68
1, 191803, Note_on_c, 0, 77, 70
1, 191886, Note_on_c, 0, 75, 0
1, 191915, Note_on_c, 0, 65, 0
1, 191922, Note_on_c, 0, 57, 0
1, 191928, Note_on_c, 0, 60, 0
1, 192021, Note_on_c, 0, 79, 67
1, 192040, Note_on_c, 0, 57, 35
1, 192041, Note_on_c, 0, 60, 35
1, 192046, Note_on_c, 0, 65, 35
1, 192148, Note_on_c, 0, 77, 0
1, 192441, Note_on_c, 0, 77, 46
1, 192463, Note_on_c, 0, 79, 0
1, 192604, Note_on_c, 0, 75, 61
1, 192612, Note_on_c, 0, 57, 0
1, 192627, Note_on_c, 0, 65, 0
1, 192667, Note_on_c, 0, 77, 0
1, 192670, Note_on_c, 0, 60, 0
1, 192682, Note_on_c, 0, 75, 0
1, 192766, Note_on_c, 0, 75, 55
1, 192785, Note_on_c, 0, 65, 35
1, 192785, Note_on_c, 0, 57, 35
1, 192787, Note_on_c, 0, 63, 35
1, 192944, Note_on_c, 0, 74, 58
1, 192982, Note_on_c, 0, 75, 0
1, 193017, Note_on_c, 0, 74, 0
1, 193110, Note_on_c, 0, 74, 53
1, 193277, Note_on_c, 0, 73, 55
1, 193286, Note_on_c, 0, 65, 0
1, 193299, Note_on_c, 0, 63, 0
1, 193306, Note_on_c, 0, 74, 0
1, 193385, Note_on_c, 0, 73, 0
1, 193525, Note_on_c, 0, 73, 49
1, 193537, Note_on_c, 0, 58, 35
1, 193539, Note_on_c, 0, 65, 35
1, 193540, Note_on_c, 0, 62, 35
1, 193594, Note_on_c, 0, 57, 0
1, 194336, Note_on_c, 0, 74, 37
1, 194424, Note_on_c, 0, 73, 0
1, 194686, Note_on_c, 0, 74, 0
1, 194796, Note_on_c, 0, 77, 40
1, 194928, Note_on_c, 0, 65, 0
1, 194963, Note_on_c, 0, 76, 58
1, 194988, Note_on_c, 0, 58, 0
1, 194988, Note_on_c, 0, 62, 0
1, 194999, Note_on_c, 0, 77, 0
1, 195116, Note_on_c, 0, 79, 58
1, 195159, Note_on_c, 0, 76, 0
1, 195277, Note_on_c, 0, 77, 58
1, 195318, Note_on_c, 0, 79, 0
1, 195432, Note_on_c, 0, 76, 59
1, 195479, Note_on_c, 0, 77, 0
1, 195599, Note_on_c, 0, 74, 61
1, 195665, Note_on_c, 0, 76, 0
1, 195788, Note_on_c, 0, 74, 0
1, 195859, Note_on_c, 0, 74, 59
1, 195884, Note_on_c, 0, 58, 35
1, 195888, Note_on_c, 0, 62, 35
1, 195889, Note_on_c, 0, 53, 35
1, 196201, Note_on_c, 0, 62, 0
1, 196390, Note_on_c, 0, 58, 0
1, 196677, Note_on_c, 0, 72, 35
1, 196687, Note_on_c, 0, 57, 35
1, 196689, Note_on_c, 0, 60, 35
1, 196707, Note_on_c, 0, 74, 0
1, 197024, Note_on_c, 0, 72, 0
1, 197024, Note_on_c, 0, 77, 51
1, 197108, Note_on_c, 0, 60, 0
1, 197112, Note_on_c, 0, 53, 0
1, 197129, Note_on_c, 0, 57, 0
1, 197304, Note_on_c, 0, 72, 60
1, 197361, Note_on_c, 0, 77, 0
1, 197362, Note_on_c, 0, 81, 70
1, 197392, Note_on_c, 0, 72, 0
1, 197606, Note_on_c, 0, 77, 66
1, 197646, Note_on_c, 0, 81, 0
1, 197664, Note_on_c, 0, 72, 74
1, 197699, Note_on_c, 0, 77, 0
1, 197898, Note_on_c, 0, 72, 0
1, 197923, Note_on_c, 0, 69, 66
1, 197990, Note_on_c, 0, 72, 66
1, 197999, Note_on_c, 0, 69, 0
1, 198001, Note_on_c, 0, 52, 39
1, 198001, Note_on_c, 0, 55, 35
1, 198006, Note_on_c, 0, 60, 42
1, 198502, Note_on_c, 0, 71, 54
1, 198559, Note_on_c, 0, 72, 0
1, 198723, Note_on_c, 0, 71, 0
1, 198726, Note_on_c, 0, 70, 38
1, 198862, Note_on_c, 0, 70, 0
1, 198864, Note_on_c, 0, 60, 0
1, 198897, Note_on_c, 0, 55, 0
1, 198897, Note_on_c, 0, 52, 0
1, 199061, Note_on_c, 0, 67, 61
1, 199066, Note_on_c, 0, 64, 50
1, 199075, Note_on_c, 0, 58, 41
1, 199084, Note_on_c, 0, 46, 35
1, 199262, Note_on_c, 0, 58, 0
1, 199293, Note_on_c, 0, 67, 0
1, 199298, Note_on_c, 0, 64, 0
1, 199313, Note_on_c, 0, 60, 72
1, 199368, Note_on_c, 0, 46, 0
1, 199368, Note_on_c, 0, 69, 72
1, 199372, Note_on_c, 0, 65, 62
1, 199376, Note_on_c, 0, 57, 48
1, 199381, Note_on_c, 0, 60, 0
1, 199381, Note_on_c, 0, 45, 47
1, 199494, Note_on_c, 0, 57, 0
1, 199577, Note_on_c, 0, 65, 0
1, 199582, Note_on_c, 0, 69, 0
1, 199607, Note_on_c, 0, 60, 70
1, 199659, Note_on_c, 0, 45, 0
1, 199659, Note_on_c, 0, 55, 57
1, 199659, Note_on_c, 0, 70, 76
1, 199665, Note_on_c, 0, 43, 52
1, 199666, Note_on_c, 0, 67, 71
1, 199682, Note_on_c, 0, 60, 0
1, 199809, Note_on_c, 0, 55, 0
1, 199878, Note_on_c, 0, 67, 0
1, 199886, Note_on_c, 0, 60, 69
1, 199894, Note_on_c, 0, 70, 0
1, 199941, Note_on_c, 0, 60, 0
1, 199947, Note_on_c, 0, 43, 0
1, 199954, Note_on_c, 0, 69, 67
1, 199955, Note_on_c, 0, 72, 74
1, 199960, Note_on_c, 0, 53, 54
1, 199961, Note_on_c, 0, 41, 48
1, 200010, Note_on_c, 0, 69, 0
1, 200027, Note_on_c, 0, 72, 0
1, 200137, Note_on_c, 0, 74, 76
1, 200196, Note_on_c, 0, 41, 0
1, 200198, Note_on_c, 0, 53, 0
1, 200244, Note_on_c, 0, 74, 0
1, 200321, Note_on_c, 0, 76, 72
1, 200390, Note_on_c, 0, 76, 0
1, 200535, Note_on_c, 0, 77, 59
1, 200621, Note_on_c, 0, 77, 0
1, 200873, Note_on_c, 0, 65, 41
1, 200881, Note_on_c, 0, 60, 35
1, 200881, Note_on_c, 0, 57, 35
1, 200882, Note_on_c, 0, 48, 35
1, 201280, Note_on_c, 0, 57, 0
1, 201618, Note_on_c, 0, 58, 35
1, 201799, Note_on_c, 0, 60, 0
1, 201936, Note_on_c, 0, 58, 0
1, 201952, Note_on_c, 0, 65, 0
1, 202004, Note_on_c, 0, 69, 47
1, 202010, Note_on_c, 0, 64, 37
1, 202207, Note_on_c, 0, 67, 55
1, 202358, Note_on_c, 0, 64, 0
1, 202395, Note_on_c, 0, 69, 0
1, 202447, Note_on_c, 0, 65, 46
1, 202455, Note_on_c, 0, 53, 35
1, 202459, Note_on_c, 0, 57, 35
1, 202507, Note_on_c, 0, 67, 0
1, 202578, Note_on_c, 0, 48, 0
1, 202714, Note_on_c, 0, 57, 0
1, 202954, Note_on_c, 0, 53, 0
1, 203335, Note_on_c, 0, 41, 35
1, 203448, Note_on_c, 0, 65, 0
1, 203899, Note_on_c, 0, 69, 35
1, 203899, Note_on_c, 0, 60, 35
1, 203911, Note_on_c, 0, 41, 0
1, 204163, Note_on_c, 0, 60, 0
1, 204178, Note_on_c, 0, 69, 0
1, 204296, Note_on_c, 0, 69, 35
1, 204302, Note_on_c, 0, 60, 35
1, 204545, Note_on_c, 0, 60, 0
1, 204576, Note_on_c, 0, 69, 0
1, 204694, Note_on_c, 0, 69, 35
1, 204699, Note_on_c, 0, 60, 35
1, 204912, Note_on_c, 0, 60, 0
1, 204946, Note_on_c, 0, 69, 0
1, 205099, Note_on_c, 0, 41, 35
1, 205104, Note_on_c, 0, 60, 35
1, 205104, Note_on_c, 0, 69, 35
1, 205301, Note_on_c, 0, 53, 35
1, 205381, Note_on_c, 0, 53, 0
1, 205470, Note_on_c, 0, 53, 35
1, 205555, Note_on_c, 0, 53, 0
1, 205638, Note_on_c, 0, 53, 35
1, 205721, Note_on_c, 0, 53, 0
1, 205806, Note_on_c, 0, 53, 35
1, 205832, Note_on_c, 0, 60, 0
1, 205889, Note_on_c, 0, 53, 0
1, 205912, Note_on_c, 0, 69, 0
1, 205968, Note_on_c, 0, 53, 35
1, 206051, Note_on_c, 0, 53, 0
1, 206138, Note_on_c, 0, 53, 35
1, 206140, Note_on_c, 0, 65, 36
1, 206152, Note_on_c, 0, 57, 35
1, 206222, Note_on_c, 0, 53, 0
1, 206278, Note_on_c, 0, 57, 0
1, 206280, Note_on_c, 0, 65, 0
1, 206302, Note_on_c, 0, 53, 35
1, 206377, Note_on_c, 0, 53, 0
1, 206478, Note_on_c, 0, 70, 48
1, 206479, Note_on_c, 0, 53, 35
1, 206482, Note_on_c, 0, 67, 38
1, 206555, Note_on_c, 0, 53, 0
1, 206702, Note_on_c, 0, 53, 35
1, 206718, Note_on_c, 0, 67, 0
1, 206786, Note_on_c, 0, 53, 0
1, 206846, Note_on_c, 0, 67, 36
1, 206854, Note_on_c, 0, 64, 39
1, 206867, Note_on_c, 0, 53, 35
1, 206915, Note_on_c, 0, 70, 0
1, 206941, Note_on_c, 0, 53, 0
1, 207018, Note_on_c, 0, 53, 35
1, 207045, Note_on_c, 0, 41, 0
1, 207052, Note_on_c, 0, 67, 0
1, 207093, Note_on_c, 0, 53, 0
1, 207206, Note_on_c, 0, 72, 47
1, 207207, Note_on_c, 0, 41, 35
1, 207219, Note_on_c, 0, 69, 40
1, 207294, Note_on_c, 0, 64, 0
1, 207382, Note_on_c, 0, 53, 35
1, 207463, Note_on_c, 0, 53, 0
1, 207556, Note_on_c, 0, 53, 35
1, 207624, Note_on_c, 0, 53, 0
1, 207660, Note_on_c, 0, 41, 0
1, 207725, Note_on_c, 0, 53, 39
1, 207756, Note_on_c, 0, 53, 0
1, 207891, Note_on_c, 0, 72, 0
1, 207926, Note_on_c, 0, 38, 35
1, 208075, Note_on_c, 0, 69, 0
1, 208136, Note_on_c, 0, 50, 35
1, 208203, Note_on_c, 0, 50, 0
1, 208299, Note_on_c, 0, 77, 45
1, 208309, Note_on_c, 0, 50, 35
1, 208309, Note_on_c, 0, 69, 35
1, 208374, Note_on_c, 0, 50, 0
1, 208479, Note_on_c, 0, 69, 0
1, 208482, Note_on_c, 0, 50, 39
1, 208511, Note_on_c, 0, 77, 0
1, 208515, Note_on_c, 0, 50, 0
1, 208523, Note_on_c, 0, 38, 0
1, 208684, Note_on_c, 0, 77, 54
1, 208692, Note_on_c, 0, 69, 35
1, 208699, Note_on_c, 0, 35, 35
1, 208895, Note_on_c, 0, 47, 35
1, 208925, Note_on_c, 0, 69, 0
1, 208979, Note_on_c, 0, 47, 0
1, 208983, Note_on_c, 0, 77, 0
1, 209084, Note_on_c, 0, 77, 54
1, 209092, Note_on_c, 0, 47, 35
1, 209096, Note_on_c, 0, 69, 35
1, 209155, Note_on_c, 0, 35, 0
1, 209195, Note_on_c, 0, 47, 0
1, 209316, Note_on_c, 0, 47, 35
1, 209331, Note_on_c, 0, 77, 0
1, 209371, Note_on_c, 0, 69, 0
1, 209480, Note_on_c, 0, 47, 0
1, 209625, Note_on_c, 0, 69, 44
1, 209633, Note_on_c, 0, 65, 39
1, 209636, Note_on_c, 0, 36, 35
1, 209867, Note_on_c, 0, 48, 35
1, 209968, Note_on_c, 0, 48, 0
1, 210045, Note_on_c, 0, 48, 35
1, 210138, Note_on_c, 0, 48, 0
1, 210224, Note_on_c, 0, 48, 35
1, 210314, Note_on_c, 0, 48, 0
1, 210410, Note_on_c, 0, 48, 35
1, 210511, Note_on_c, 0, 48, 0
1, 210590, Note_on_c, 0, 48, 35
1, 210607, Note_on_c, 0, 69, 0
1, 210642, Note_on_c, 0, 65, 0
1, 210689, Note_on_c, 0, 48, 0
1, 210768, Note_on_c, 0, 72, 46
1, 210775, Note_on_c, 0, 69, 38
1, 210781, Note_on_c, 0, 48, 35
1, 210866, Note_on_c, 0, 48, 0
1, 210970, Note_on_c, 0, 48, 35
1, 211057, Note_on_c, 0, 48, 0
1, 211083, Note_on_c, 0, 72, 0
1, 211128, Note_on_c, 0, 69, 0
1, 211163, Note_on_c, 0, 70, 43
1, 211174, Note_on_c, 0, 67, 41
1, 211176, Note_on_c, 0, 48, 35
1, 211251, Note_on_c, 0, 48, 0
1, 211378, Note_on_c, 0, 70, 0
1, 211387, Note_on_c, 0, 67, 0
1, 211387, Note_on_c, 0, 48, 35
1, 211488, Note_on_c, 0, 48, 0
1, 211619, Note_on_c, 0, 67, 40
1, 211619, Note_on_c, 0, 48, 35
1, 211627, Note_on_c, 0, 58, 35
1, 211764, Note_on_c, 0, 48, 0
1, 211926, Note_on_c, 0, 48, 35
1, 212029, Note_on_c, 0, 48, 0
1, 212075, Note_on_c, 0, 67, 0
1, 212076, Note_on_c, 0, 36, 0
1, 212112, Note_on_c, 0, 58, 0
1, 212611, Note_on_c, 0, 65, 35
1, 212621, Note_on_c, 0, 57, 35
1, 212628, Note_on_c, 0, 41, 35
1, 214480, Note_on_c, 0, 57, 0
1, 214499, Note_on_c, 0, 41, 0
1, 214504, Note_on_c, 0, 65, 0
1, 214514, End_track
0, 0, End_of_file