0, 0, Header, 0, 1, 240
1, 0, Start_track
1, 0, Tempo, 500000
1, 559, Note_on_c, 0, 76, 60
1, 748, Note_on_c, 0, 48, 52
1, 768, Note_on_c, 0, 48, 0
1, 850, Note_on_c, 0, 77, 56
1, 896, Note_on_c, 0, 76, 0
1, 899, Note_on_c, 0, 79, 62
1, 916, Note_on_c, 0, 77, 0
1, 921, Note_on_c, 0, 72, 68
1, 926, Note_on_c, 0, 52, 57
1, 932, Note_on_c, 0, 79, 0
1, 939, Note_on_c, 0, 72, 0
1, 948, Note_on_c, 0, 52, 0
1, 1102, Note_on_c, 0, 74, 67
1, 1108, Note_on_c, 0, 71, 56
1, 1115, Note_on_c, 0, 55, 53
1, 1120, Note_on_c, 0, 74, 0
1, 1125, Note_on_c, 0, 71, 0
1, 1135, Note_on_c, 0, 55, 0
1, 1291, Note_on_c, 0, 74, 69
1, 1298, Note_on_c, 0, 71, 60
1, 1301, Note_on_c, 0, 60, 52
1, 1332, Note_on_c, 0, 60, 0
1, 1380, Note_on_c, 0, 71, 0
1, 1463, Note_on_c, 0, 74, 0
1, 1478, Note_on_c, 0, 77, 68
1, 1483, Note_on_c, 0, 48, 42
1, 1492, Note_on_c, 0, 72, 48
1, 1531, Note_on_c, 0, 76, 65
1, 1536, Note_on_c, 0, 48, 0
1, 1558, Note_on_c, 0, 77, 0
1, 1568, Note_on_c, 0, 72, 0
1, 1601, Note_on_c, 0, 76, 0
1, 1671, Note_on_c, 0, 74, 53
1, 1671, Note_on_c, 0, 55, 47
1, 1673, Note_on_c, 0, 71, 49
1, 1704, Note_on_c, 0, 55, 0
1, 1862, Note_on_c, 0, 43, 56
1, 1880, Note_on_c, 0, 74, 0
1, 1885, Note_on_c, 0, 43, 0
1, 1961, Note_on_c, 0, 71, 0
1, 2076, Note_on_c, 0, 76, 58
1, 2265, Note_on_c, 0, 48, 51
1, 2285, Note_on_c, 0, 48, 0
1, 2364, Note_on_c, 0, 77, 50
1, 2412, Note_on_c, 0, 76, 0
1, 2412, Note_on_c, 0, 79, 60
1, 2426, Note_on_c, 0, 77, 0
1, 2438, Note_on_c, 0, 72, 67
1, 2442, Note_on_c, 0, 52, 63
1, 2448, Note_on_c, 0, 79, 0
1, 2457, Note_on_c, 0, 72, 0
1, 2464, Note_on_c, 0, 52, 0
1, 2625, Note_on_c, 0, 74, 71
1, 2630, Note_on_c, 0, 71, 59
1, 2630, Note_on_c, 0, 55, 62
1, 2642, Note_on_c, 0, 74, 0
1, 2645, Note_on_c, 0, 71, 0
1, 2653, Note_on_c, 0, 55, 0
1, 2814, Note_on_c, 0, 77, 75
1, 2815, Note_on_c, 0, 74, 65
1, 2819, Note_on_c, 0, 60, 61
1, 2841, Note_on_c, 0, 60, 0
1, 2864, Note_on_c, 0, 74, 0
1, 2964, Note_on_c, 0, 77, 0
1, 3003, Note_on_c, 0, 76, 65
1, 3005, Note_on_c, 0, 48, 55
1, 3005, Note_on_c, 0, 72, 58
1, 3023, Note_on_c, 0, 76, 0
1, 3030, Note_on_c, 0, 77, 65
1, 3043, Note_on_c, 0, 48, 0
1, 3058, Note_on_c, 0, 72, 0
1, 3073, Note_on_c, 0, 76, 69
1, 3089, Note_on_c, 0, 77, 0
1, 3110, Note_on_c, 0, 76, 0
1, 3110, Note_on_c, 0, 74, 64
1, 3146, Note_on_c, 0, 74, 0
1, 3156, Note_on_c, 0, 76, 61
1, 3187, Note_on_c, 0, 55, 50
1, 3197, Note_on_c, 0, 71, 49
1, 3199, Note_on_c, 0, 76, 0
1, 3204, Note_on_c, 0, 74, 58
1, 3214, Note_on_c, 0, 55, 0
1, 3386, Note_on_c, 0, 43, 56
1, 3393, Note_on_c, 0, 74, 0
1, 3397, Note_on_c, 0, 71, 0
1, 3408, Note_on_c, 0, 43, 0
1, 3616, Note_on_c, 0, 77, 54
1, 3625, Note_on_c, 0, 57, 37
1, 3820, Note_on_c, 0, 60, 38
1, 3876, Note_on_c, 0, 57, 0
1, 3899, Note_on_c, 0, 77, 0
1, 3929, Note_on_c, 0, 79, 54
1, 3960, Note_on_c, 0, 77, 68
1, 3982, Note_on_c, 0, 60, 0
1, 3984, Note_on_c, 0, 79, 0
1, 3996, Note_on_c, 0, 55, 40
1, 4000, Note_on_c, 0, 76, 58
1, 4002, Note_on_c, 0, 77, 0
1, 4014, Note_on_c, 0, 76, 0
1, 4186, Note_on_c, 0, 76, 62
1, 4199, Note_on_c, 0, 60, 36
1, 4207, Note_on_c, 0, 76, 0
1, 4346, Note_on_c, 0, 60, 0
1, 4379, Note_on_c, 0, 81, 73
1, 4398, Note_on_c, 0, 53, 39
1, 4435, Note_on_c, 0, 55, 0
1, 4563, Note_on_c, 0, 60, 41
1, 4659, Note_on_c, 0, 83, 63
1, 4669, Note_on_c, 0, 81, 0
1, 4702, Note_on_c, 0, 84, 67
1, 4715, Note_on_c, 0, 83, 0
1, 4732, Note_on_c, 0, 60, 0
1, 4735, Note_on_c, 0, 79, 63
1, 4742, Note_on_c, 0, 52, 44
1, 4747, Note_on_c, 0, 84, 0
1, 4755, Note_on_c, 0, 79, 0
1, 4798, Note_on_c, 0, 53, 0
1, 4921, Note_on_c, 0, 79, 63
1, 4938, Note_on_c, 0, 60, 39
1, 4941, Note_on_c, 0, 79, 0
1, 4973, Note_on_c, 0, 60, 0
1, 4973, Note_on_c, 0, 52, 0
1, 5099, Note_on_c, 0, 79, 69
1, 5188, Note_on_c, 0, 77, 69
1, 5200, Note_on_c, 0, 79, 0
1, 5211, Note_on_c, 0, 77, 0
1, 5275, Note_on_c, 0, 77, 70
1, 5285, Note_on_c, 0, 67, 39
1, 5291, Note_on_c, 0, 59, 38
1, 5344, Note_on_c, 0, 59, 0
1, 5345, Note_on_c, 0, 67, 0
1, 5348, Note_on_c, 0, 77, 0
1, 5366, Note_on_c, 0, 74, 67
1, 5384, Note_on_c, 0, 74, 0
1, 5464, Note_on_c, 0, 77, 76
1, 5547, Note_on_c, 0, 76, 66
1, 5570, Note_on_c, 0, 76, 0
1, 5575, Note_on_c, 0, 77, 0
1, 5641, Note_on_c, 0, 76, 66
1, 5641, Note_on_c, 0, 60, 58
1, 5645, Note_on_c, 0, 67, 51
1, 5666, Note_on_c, 0, 67, 0
1, 5668, Note_on_c, 0, 60, 0
1, 5698, Note_on_c, 0, 76, 0
1, 5728, Note_on_c, 0, 72, 68
1, 5815, Note_on_c, 0, 72, 0
1, 5817, Note_on_c, 0, 73, 74
1, 5819, Note_on_c, 0, 55, 48
1, 5825, Note_on_c, 0, 59, 45
1, 5908, Note_on_c, 0, 74, 73
1, 5916, Note_on_c, 0, 73, 0
1, 5973, Note_on_c, 0, 74, 0
1, 5998, Note_on_c, 0, 76, 73
1, 6044, Note_on_c, 0, 76, 0
1, 6086, Note_on_c, 0, 74, 64
1, 6117, Note_on_c, 0, 74, 0
1, 6167, Note_on_c, 0, 72, 70
1, 6197, Note_on_c, 0, 72, 0
1, 6258, Note_on_c, 0, 71, 69
1, 6263, Note_on_c, 0, 59, 0
1, 6275, Note_on_c, 0, 71, 0
1, 6280, Note_on_c, 0, 55, 0
1, 6338, Note_on_c, 0, 69, 68
1, 6363, Note_on_c, 0, 69, 0
1, 6431, Note_on_c, 0, 67, 64
1, 6452, Note_on_c, 0, 67, 0
1, 6521, Note_on_c, 0, 76, 85
1, 6526, Note_on_c, 0, 36, 68
1, 6555, Note_on_c, 0, 36, 0
1, 6625, Note_on_c, 0, 40, 59
1, 6647, Note_on_c, 0, 40, 0
1, 6697, Note_on_c, 0, 43, 66
1, 6718, Note_on_c, 0, 43, 0
1, 6788, Note_on_c, 0, 77, 61
1, 6796, Note_on_c, 0, 48, 64
1, 6799, Note_on_c, 0, 76, 0
1, 6822, Note_on_c, 0, 48, 0
1, 6826, Note_on_c, 0, 79, 69
1, 6849, Note_on_c, 0, 72, 75
1, 6859, Note_on_c, 0, 77, 0
1, 6862, Note_on_c, 0, 79, 0
1, 6867, Note_on_c, 0, 72, 0
1, 6867, Note_on_c, 0, 40, 70
1, 6887, Note_on_c, 0, 40, 0
1, 6950, Note_on_c, 0, 52, 71
1, 6972, Note_on_c, 0, 52, 0
1, 7027, Note_on_c, 0, 74, 73
1, 7033, Note_on_c, 0, 43, 67
1, 7033, Note_on_c, 0, 71, 70
1, 7048, Note_on_c, 0, 74, 0
1, 7050, Note_on_c, 0, 71, 0
1, 7050, Note_on_c, 0, 43, 0
1, 7119, Note_on_c, 0, 55, 69
1, 7136, Note_on_c, 0, 55, 0
1, 7199, Note_on_c, 0, 74, 79
1, 7203, Note_on_c, 0, 71, 73
1, 7212, Note_on_c, 0, 48, 70
1, 7239, Note_on_c, 0, 48, 0
1, 7292, Note_on_c, 0, 71, 0
1, 7300, Note_on_c, 0, 52, 65
1, 7330, Note_on_c, 0, 74, 0
1, 7337, Note_on_c, 0, 52, 0
1, 7368, Note_on_c, 0, 77, 76
1, 7382, Note_on_c, 0, 55, 69
1, 7388, Note_on_c, 0, 72, 64
1, 7403, Note_on_c, 0, 76, 75
1, 7420, Note_on_c, 0, 77, 0
1, 7423, Note_on_c, 0, 55, 0
1, 7459, Note_on_c, 0, 60, 62
1, 7473, Note_on_c, 0, 72, 0
1, 7478, Note_on_c, 0, 60, 0
1, 7547, Note_on_c, 0, 76, 0
1, 7553, Note_on_c, 0, 74, 72
1, 7554, Note_on_c, 0, 71, 70
1, 7554, Note_on_c, 0, 43, 62
1, 7586, Note_on_c, 0, 43, 0
1, 7646, Note_on_c, 0, 47, 70
1, 7675, Note_on_c, 0, 47, 0
1, 7733, Note_on_c, 0, 50, 63
1, 7745, Note_on_c, 0, 71, 0
1, 7763, Note_on_c, 0, 50, 0
1, 7793, Note_on_c, 0, 74, 0
1, 7821, Note_on_c, 0, 55, 62
1, 7840, Note_on_c, 0, 55, 0
1, 7908, Note_on_c, 0, 76, 87
1, 7916, Note_on_c, 0, 36, 78
1, 7937, Note_on_c, 0, 36, 0
1, 8004, Note_on_c, 0, 40, 64
1, 8028, Note_on_c, 0, 40, 0
1, 8089, Note_on_c, 0, 43, 66
1, 8112, Note_on_c, 0, 43, 0
1, 8183, Note_on_c, 0, 77, 58
1, 8184, Note_on_c, 0, 48, 57
1, 8201, Note_on_c, 0, 76, 0
1, 8204, Note_on_c, 0, 48, 0
1, 8224, Note_on_c, 0, 79, 72
1, 8251, Note_on_c, 0, 40, 69
1, 8252, Note_on_c, 0, 72, 72
1, 8263, Note_on_c, 0, 79, 0
1, 8271, Note_on_c, 0, 72, 0
1, 8271, Note_on_c, 0, 77, 0
1, 8273, Note_on_c, 0, 40, 0
1, 8332, Note_on_c, 0, 52, 63
1, 8354, Note_on_c, 0, 52, 0
1, 8420, Note_on_c, 0, 43, 70
1, 8420, Note_on_c, 0, 74, 68
1, 8423, Note_on_c, 0, 71, 69
1, 8440, Note_on_c, 0, 43, 0
1, 8445, Note_on_c, 0, 74, 0
1, 8450, Note_on_c, 0, 71, 0
1, 8498, Note_on_c, 0, 55, 62
1, 8518, Note_on_c, 0, 55, 0
1, 8591, Note_on_c, 0, 77, 80
1, 8592, Note_on_c, 0, 74, 76
1, 8595, Note_on_c, 0, 48, 74
1, 8626, Note_on_c, 0, 48, 0
1, 8668, Note_on_c, 0, 52, 71
1, 8684, Note_on_c, 0, 74, 0
1, 8715, Note_on_c, 0, 77, 0
1, 8744, Note_on_c, 0, 55, 72
1, 8760, Note_on_c, 0, 52, 0
1, 8760, Note_on_c, 0, 76, 66
1, 8760, Note_on_c, 0, 72, 67
1, 8780, Note_on_c, 0, 76, 0
1, 8787, Note_on_c, 0, 77, 63
1, 8788, Note_on_c, 0, 55, 0
1, 8812, Note_on_c, 0, 72, 0
1, 8813, Note_on_c, 0, 60, 63
1, 8822, Note_on_c, 0, 76, 68
1, 8828, Note_on_c, 0, 60, 0
1, 8845, Note_on_c, 0, 77, 0
1, 8858, Note_on_c, 0, 74, 73
1, 8860, Note_on_c, 0, 76, 0
1, 8879, Note_on_c, 0, 71, 50
1, 8895, Note_on_c, 0, 74, 0
1, 8896, Note_on_c, 0, 71, 0
1, 8901, Note_on_c, 0, 76, 65
1, 8923, Note_on_c, 0, 43, 59
1, 8923, Note_on_c, 0, 77, 35
1, 8931, Note_on_c, 0, 74, 67
1, 8933, Note_on_c, 0, 71, 65
1, 8946, Note_on_c, 0, 76, 0
1, 8949, Note_on_c, 0, 77, 0
1, 8949, Note_on_c, 0, 43, 0
1, 9011, Note_on_c, 0, 47, 66
1, 9032, Note_on_c, 0, 47, 0
1, 9107, Note_on_c, 0, 50, 48
1, 9129, Note_on_c, 0, 50, 0
1, 9129, Note_on_c, 0, 74, 0
1, 9174, Note_on_c, 0, 71, 0
1, 9193, Note_on_c, 0, 55, 59
1, 9213, Note_on_c, 0, 55, 0
1, 9286, Note_on_c, 0, 77, 72
1, 9288, Note_on_c, 0, 57, 64
1, 9320, Note_on_c, 0, 57, 0
1, 9384, Note_on_c, 0, 60, 57
1, 9407, Note_on_c, 0, 60, 0
1, 9469, Note_on_c, 0, 57, 61
1, 9500, Note_on_c, 0, 57, 0
1, 9532, Note_on_c, 0, 77, 0
1, 9554, Note_on_c, 0, 60, 55
1, 9558, Note_on_c, 0, 79, 58
1, 9580, Note_on_c, 0, 60, 0
1, 9587, Note_on_c, 0, 77, 73
1, 9603, Note_on_c, 0, 79, 0
1, 9616, Note_on_c, 0, 76, 78
1, 9630, Note_on_c, 0, 77, 0
1, 9630, Note_on_c, 0, 55, 60
1, 9643, Note_on_c, 0, 76, 0
1, 9659, Note_on_c, 0, 55, 0
1, 9716, Note_on_c, 0, 60, 58
1, 9748, Note_on_c, 0, 60, 0
1, 9800, Note_on_c, 0, 76, 73
1, 9806, Note_on_c, 0, 55, 61
1, 9814, Note_on_c, 0, 76, 0
1, 9829, Note_on_c, 0, 55, 0
1, 9883, Note_on_c, 0, 60, 61
1, 9910, Note_on_c, 0, 60, 0
1, 9973, Note_on_c, 0, 81, 83
1, 9981, Note_on_c, 0, 53, 60
1, 10001, Note_on_c, 0, 53, 0
1, 10060, Note_on_c, 0, 60, 69
1, 10087, Note_on_c, 0, 60, 0
1, 10149, Note_on_c, 0, 53, 77
1, 10179, Note_on_c, 0, 53, 0
1, 10240, Note_on_c, 0, 83, 74
1, 10240, Note_on_c, 0, 60, 69
1, 10252, Note_on_c, 0, 81, 0
1, 10265, Note_on_c, 0, 60, 0
1, 10272, Note_on_c, 0, 84, 67
1, 10290, Note_on_c, 0, 83, 0
1, 10310, Note_on_c, 0, 79, 79
1, 10323, Note_on_c, 0, 52, 79
1, 10345, Note_on_c, 0, 84, 0
1, 10346, Note_on_c, 0, 79, 0
1, 10347, Note_on_c, 0, 52, 0
1, 10406, Note_on_c, 0, 60, 76
1, 10424, Note_on_c, 0, 60, 0
1, 10489, Note_on_c, 0, 79, 77
1, 10493, Note_on_c, 0, 52, 72
1, 10517, Note_on_c, 0, 79, 0
1, 10519, Note_on_c, 0, 52, 0
1, 10576, Note_on_c, 0, 60, 72
1, 10594, Note_on_c, 0, 60, 0
1, 10669, Note_on_c, 0, 80, 87
1, 10750, Note_on_c, 0, 81, 77
1, 10798, Note_on_c, 0, 80, 0
1, 10829, Note_on_c, 0, 81, 0
1, 10833, Note_on_c, 0, 77, 78
1, 10836, Note_on_c, 0, 53, 48
1, 10836, Note_on_c, 0, 62, 57
1, 10857, Note_on_c, 0, 62, 0
1, 10857, Note_on_c, 0, 53, 0
1, 10895, Note_on_c, 0, 77, 0
1, 10909, Note_on_c, 0, 74, 75
1, 10970, Note_on_c, 0, 74, 0
1, 11008, Note_on_c, 0, 72, 74
1, 11018, Note_on_c, 0, 64, 59
1, 11019, Note_on_c, 0, 55, 50
1, 11193, Note_on_c, 0, 64, 0
1, 11196, Note_on_c, 0, 72, 0
1, 11196, Note_on_c, 0, 71, 66
1, 11206, Note_on_c, 0, 62, 52
1, 11342, Note_on_c, 0, 71, 0
1, 11357, Note_on_c, 0, 62, 0
1, 11388, Note_on_c, 0, 72, 72
1, 11398, Note_on_c, 0, 55, 0
1, 11400, Note_on_c, 0, 64, 44
1, 11404, Note_on_c, 0, 60, 38
1, 11435, Note_on_c, 0, 72, 0
1, 11448, Note_on_c, 0, 67, 67
1, 11466, Note_on_c, 0, 67, 0
1, 11514, Note_on_c, 0, 76, 73
1, 11528, Note_on_c, 0, 76, 0
1, 11563, Note_on_c, 0, 72, 70
1, 11581, Note_on_c, 0, 72, 0
1, 11627, Note_on_c, 0, 79, 72
1, 11644, Note_on_c, 0, 79, 0
1, 11679, Note_on_c, 0, 76, 60
1, 11695, Note_on_c, 0, 76, 0
1, 11735, Note_on_c, 0, 84, 86
1, 11760, Note_on_c, 0, 64, 0
1, 11765, Note_on_c, 0, 60, 0
1, 11792, Note_on_c, 0, 83, 80
1, 11806, Note_on_c, 0, 84, 0
1, 11851, Note_on_c, 0, 81, 76
1, 11858, Note_on_c, 0, 83, 0
1, 11909, Note_on_c, 0, 81, 0
1, 11909, Note_on_c, 0, 79, 72
1, 11954, Note_on_c, 0, 79, 0
1, 11967, Note_on_c, 0, 77, 66
1, 11991, Note_on_c, 0, 77, 0
1, 12022, Note_on_c, 0, 76, 59
1, 12070, Note_on_c, 0, 76, 0
1, 12074, Note_on_c, 0, 73, 77
1, 12109, Note_on_c, 0, 73, 0
1, 12132, Note_on_c, 0, 74, 68
1, 12175, Note_on_c, 0, 74, 0
1, 12193, Note_on_c, 0, 77, 58
1, 12223, Note_on_c, 0, 77, 0
1, 12241, Note_on_c, 0, 62, 58
1, 12241, Note_on_c, 0, 57, 51
1, 12241, Note_on_c, 0, 81, 76
1, 12243, Note_on_c, 0, 53, 41
1, 12261, Note_on_c, 0, 62, 0
1, 12264, Note_on_c, 0, 57, 0
1, 12268, Note_on_c, 0, 53, 0
1, 12301, Note_on_c, 0, 77, 68
1, 12307, Note_on_c, 0, 81, 0
1, 12353, Note_on_c, 0, 77, 0
1, 12359, Note_on_c, 0, 74, 60
1, 12410, Note_on_c, 0, 55, 59
1, 12410, Note_on_c, 0, 79, 77
1, 12411, Note_on_c, 0, 64, 64
1, 12415, Note_on_c, 0, 60, 48
1, 12421, Note_on_c, 0, 74, 0
1, 12440, Note_on_c, 0, 60, 0
1, 12441, Note_on_c, 0, 64, 0
1, 12467, Note_on_c, 0, 76, 66
1, 12473, Note_on_c, 0, 79, 0
1, 12522, Note_on_c, 0, 76, 0
1, 12522, Note_on_c, 0, 72, 61
1, 12581, Note_on_c, 0, 65, 66
1, 12583, Note_on_c, 0, 77, 72
1, 12586, Note_on_c, 0, 62, 55
1, 12588, Note_on_c, 0, 72, 0
1, 12618, Note_on_c, 0, 65, 0
1, 12636, Note_on_c, 0, 74, 62
1, 12654, Note_on_c, 0, 77, 0
1, 12692, Note_on_c, 0, 74, 0
1, 12694, Note_on_c, 0, 71, 65
1, 12712, Note_on_c, 0, 62, 0
1, 12720, Note_on_c, 0, 71, 0
1, 12744, Note_on_c, 0, 72, 77
1, 12747, Note_on_c, 0, 64, 64
1, 12749, Note_on_c, 0, 60, 61
1, 12770, Note_on_c, 0, 55, 0
1, 12780, Note_on_c, 0, 64, 0
1, 12797, Note_on_c, 0, 60, 0
1, 12800, Note_on_c, 0, 72, 0
1, 12802, Note_on_c, 0, 67, 75
1, 12832, Note_on_c, 0, 67, 0
1, 12864, Note_on_c, 0, 76, 81
1, 12886, Note_on_c, 0, 76, 0
1, 12913, Note_on_c, 0, 72, 78
1, 12941, Note_on_c, 0, 72, 0
1, 12978, Note_on_c, 0, 79, 61
1, 12996, Note_on_c, 0, 79, 0
1, 13020, Note_on_c, 0, 76, 73
1, 13039, Note_on_c, 0, 76, 0
1, 13084, Note_on_c, 0, 84, 88
1, 13137, Note_on_c, 0, 83, 84
1, 13192, Note_on_c, 0, 81, 77
1, 13215, Note_on_c, 0, 84, 0
1, 13228, Note_on_c, 0, 83, 0
1, 13246, Note_on_c, 0, 79, 79
1, 13263, Note_on_c, 0, 81, 0
1, 13287, Note_on_c, 0, 79, 0
1, 13295, Note_on_c, 0, 77, 72
1, 13323, Note_on_c, 0, 77, 0
1, 13346, Note_on_c, 0, 76, 67
1, 13401, Note_on_c, 0, 76, 0
1, 13402, Note_on_c, 0, 73, 85
1, 13439, Note_on_c, 0, 73, 0
1, 13453, Note_on_c, 0, 74, 72
1, 13507, Note_on_c, 0, 77, 76
1, 13514, Note_on_c, 0, 74, 0
1, 13547, Note_on_c, 0, 77, 0
1, 13557, Note_on_c, 0, 81, 85
1, 13570, Note_on_c, 0, 57, 54
1, 13575, Note_on_c, 0, 62, 62
1, 13575, Note_on_c, 0, 53, 39
1, 13593, Note_on_c, 0, 57, 0
1, 13598, Note_on_c, 0, 62, 0
1, 13603, Note_on_c, 0, 53, 0
1, 13617, Note_on_c, 0, 77, 73
1, 13633, Note_on_c, 0, 81, 0
1, 13673, Note_on_c, 0, 74, 65
1, 13676, Note_on_c, 0, 77, 0
1, 13710, Note_on_c, 0, 74, 0
1, 13724, Note_on_c, 0, 60, 66
1, 13724, Note_on_c, 0, 64, 72
1, 13725, Note_on_c, 0, 79, 75
1, 13725, Note_on_c, 0, 55, 60
1, 13766, Note_on_c, 0, 60, 0
1, 13769, Note_on_c, 0, 64, 0
1, 13783, Note_on_c, 0, 76, 73
1, 13801, Note_on_c, 0, 79, 0
1, 13847, Note_on_c, 0, 76, 0
1, 13847, Note_on_c, 0, 72, 72
1, 13880, Note_on_c, 0, 72, 0
1, 13902, Note_on_c, 0, 65, 71
1, 13903, Note_on_c, 0, 77, 80
1, 13909, Note_on_c, 0, 62, 59
1, 13924, Note_on_c, 0, 65, 0
1, 13937, Note_on_c, 0, 62, 0
1, 13952, Note_on_c, 0, 74, 79
1, 13970, Note_on_c, 0, 77, 0
1, 14013, Note_on_c, 0, 71, 79
1, 14017, Note_on_c, 0, 74, 0
1, 14064, Note_on_c, 0, 72, 91
1, 14072, Note_on_c, 0, 60, 66
1, 14076, Note_on_c, 0, 64, 68
1, 14083, Note_on_c, 0, 55, 0
1, 14086, Note_on_c, 0, 72, 0
1, 14088, Note_on_c, 0, 60, 0
1, 14093, Note_on_c, 0, 64, 0
1, 14116, Note_on_c, 0, 71, 0
1, 14260, Note_on_c, 0, 67, 91
1, 14265, Note_on_c, 0, 55, 73
1, 14279, Note_on_c, 0, 55, 0
1, 14279, Note_on_c, 0, 67, 0
1, 14453, Note_on_c, 0, 60, 91
1, 14460, Note_on_c, 0, 36, 78
1, 14460, Note_on_c, 0, 48, 75
1, 14479, Note_on_c, 0, 48, 0
1, 14479, Note_on_c, 0, 36, 0
1, 14484, Note_on_c, 0, 60, 0
1, 14871, Note_on_c, 0, 76, 69
1, 14881, Note_on_c, 0, 60, 35
1, 14969, Note_on_c, 0, 67, 42
1, 15062, Note_on_c, 0, 66, 41
1, 15064, Note_on_c, 0, 67, 0
1, 15112, Note_on_c, 0, 60, 0
1, 15133, Note_on_c, 0, 67, 44
1, 15209, Note_on_c, 0, 66, 0
1, 15216, Note_on_c, 0, 76, 0
1, 15217, Note_on_c, 0, 60, 43
1, 15221, Note_on_c, 0, 67, 0
1, 15247, Note_on_c, 0, 77, 61
1, 15282, Note_on_c, 0, 76, 67
1, 15284, Note_on_c, 0, 77, 0
1, 15300, Note_on_c, 0, 67, 41
1, 15301, Note_on_c, 0, 76, 0
1, 15309, Note_on_c, 0, 74, 71
1, 15337, Note_on_c, 0, 60, 0
1, 15344, Note_on_c, 0, 76, 78
1, 15355, Note_on_c, 0, 74, 0
1, 15360, Note_on_c, 0, 67, 0
1, 15390, Note_on_c, 0, 79, 75
1, 15399, Note_on_c, 0, 62, 41
1, 15412, Note_on_c, 0, 76, 0
1, 15482, Note_on_c, 0, 77, 76
1, 15483, Note_on_c, 0, 67, 41
1, 15535, Note_on_c, 0, 62, 0
1, 15551, Note_on_c, 0, 79, 0
1, 15566, Note_on_c, 0, 67, 0
1, 15568, Note_on_c, 0, 64, 46
1, 15568, Note_on_c, 0, 76, 75
1, 15596, Note_on_c, 0, 77, 0
1, 15652, Note_on_c, 0, 64, 0
1, 15652, Note_on_c, 0, 67, 38
1, 15654, Note_on_c, 0, 74, 68
1, 15670, Note_on_c, 0, 76, 0
1, 15725, Note_on_c, 0, 74, 0
1, 15739, Note_on_c, 0, 72, 60
1, 15745, Note_on_c, 0, 67, 0
1, 15750, Note_on_c, 0, 65, 43
1, 15810, Note_on_c, 0, 72, 0
1, 15820, Note_on_c, 0, 65, 0
1, 15820, Note_on_c, 0, 71, 59
1, 15828, Note_on_c, 0, 67, 42
1, 15906, Note_on_c, 0, 71, 0
1, 15916, Note_on_c, 0, 72, 55
1, 15918, Note_on_c, 0, 67, 0
1, 15929, Note_on_c, 0, 64, 48
1, 15972, Note_on_c, 0, 64, 0
1, 16002, Note_on_c, 0, 72, 0
1, 16024, Note_on_c, 0, 67, 39
1, 16100, Note_on_c, 0, 67, 0
1, 16101, Note_on_c, 0, 73, 76
1, 16120, Note_on_c, 0, 58, 48
1, 16122, Note_on_c, 0, 73, 0
1, 16164, Note_on_c, 0, 58, 0
1, 16193, Note_on_c, 0, 67, 47
1, 16270, Note_on_c, 0, 67, 0
1, 16283, Note_on_c, 0, 74, 71
1, 16294, Note_on_c, 0, 59, 48
1, 16299, Note_on_c, 0, 74, 0
1, 16329, Note_on_c, 0, 59, 0
1, 16364, Note_on_c, 0, 67, 47
1, 16450, Note_on_c, 0, 67, 0
1, 16464, Note_on_c, 0, 75, 72
1, 16470, Note_on_c, 0, 59, 44
1, 16480, Note_on_c, 0, 75, 0
1, 16512, Note_on_c, 0, 59, 0
1, 16540, Note_on_c, 0, 67, 45
1, 16587, Note_on_c, 0, 67, 0
1, 16640, Note_on_c, 0, 76, 68
1, 16650, Note_on_c, 0, 60, 43
1, 16660, Note_on_c, 0, 76, 0
1, 16733, Note_on_c, 0, 67, 47
1, 16784, Note_on_c, 0, 60, 0
1, 16812, Note_on_c, 0, 79, 74
1, 16814, Note_on_c, 0, 67, 0
1, 16837, Note_on_c, 0, 62, 43
1, 16890, Note_on_c, 0, 62, 0
1, 16898, Note_on_c, 0, 77, 76
1, 16915, Note_on_c, 0, 67, 43
1, 16925, Note_on_c, 0, 79, 0
1, 16946, Note_on_c, 0, 77, 0
1, 16983, Note_on_c, 0, 67, 0
1, 17000, Note_on_c, 0, 76, 76
1, 17008, Note_on_c, 0, 60, 42
1, 17092, Note_on_c, 0, 67, 42
1, 17184, Note_on_c, 0, 66, 40
1, 17189, Note_on_c, 0, 67, 0
1, 17237, Note_on_c, 0, 60, 0
1, 17258, Note_on_c, 0, 76, 0
1, 17273, Note_on_c, 0, 67, 35
1, 17280, Note_on_c, 0, 77, 55
1, 17281, Note_on_c, 0, 66, 0
1, 17320, Note_on_c, 0, 76, 60
1, 17323, Note_on_c, 0, 77, 0
1, 17338, Note_on_c, 0, 67, 0
1, 17360, Note_on_c, 0, 76, 0
1, 17360, Note_on_c, 0, 74, 54
1, 17369, Note_on_c, 0, 59, 46
1, 17457, Note_on_c, 0, 67, 44
1, 17467, Note_on_c, 0, 74, 0
1, 17534, Note_on_c, 0, 67, 0
1, 17540, Note_on_c, 0, 66, 39
1, 17589, Note_on_c, 0, 59, 0
1, 17625, Note_on_c, 0, 67, 44
1, 17640, Note_on_c, 0, 66, 0
1, 17705, Note_on_c, 0, 67, 0
1, 17712, Note_on_c, 0, 77, 72
1, 17740, Note_on_c, 0, 59, 35
1, 17814, Note_on_c, 0, 67, 37
1, 17902, Note_on_c, 0, 66, 37
1, 17905, Note_on_c, 0, 67, 0
1, 17970, Note_on_c, 0, 59, 0
1, 17970, Note_on_c, 0, 67, 51
1, 18020, Note_on_c, 0, 66, 0
1, 18038, Note_on_c, 0, 77, 0
1, 18051, Note_on_c, 0, 59, 46
1, 18061, Note_on_c, 0, 67, 0
1, 18076, Note_on_c, 0, 79, 61
1, 18103, Note_on_c, 0, 77, 66
1, 18115, Note_on_c, 0, 79, 0
1, 18131, Note_on_c, 0, 77, 0
1, 18138, Note_on_c, 0, 67, 51
1, 18139, Note_on_c, 0, 76, 69
1, 18161, Note_on_c, 0, 59, 0
1, 18169, Note_on_c, 0, 77, 76
1, 18186, Note_on_c, 0, 76, 0
1, 18222, Note_on_c, 0, 67, 0
1, 18224, Note_on_c, 0, 81, 73
1, 18242, Note_on_c, 0, 60, 42
1, 18247, Note_on_c, 0, 77, 0
1, 18319, Note_on_c, 0, 79, 75
1, 18328, Note_on_c, 0, 67, 43
1, 18348, Note_on_c, 0, 60, 0
1, 18348, Note_on_c, 0, 81, 0
1, 18398, Note_on_c, 0, 77, 73
1, 18412, Note_on_c, 0, 67, 0
1, 18420, Note_on_c, 0, 79, 0
1, 18420, Note_on_c, 0, 62, 41
1, 18468, Note_on_c, 0, 62, 0
1, 18481, Note_on_c, 0, 76, 71
1, 18495, Note_on_c, 0, 67, 46
1, 18503, Note_on_c, 0, 77, 0
1, 18546, Note_on_c, 0, 76, 0
1, 18566, Note_on_c, 0, 74, 64
1, 18578, Note_on_c, 0, 67, 0
1, 18582, Note_on_c, 0, 64, 51
1, 18622, Note_on_c, 0, 64, 0
1, 18642, Note_on_c, 0, 74, 0
1, 18645, Note_on_c, 0, 72, 66
1, 18654, Note_on_c, 0, 67, 47
1, 18730, Note_on_c, 0, 67, 0
1, 18738, Note_on_c, 0, 72, 0
1, 18738, Note_on_c, 0, 71, 66
1, 18748, Note_on_c, 0, 65, 45
1, 18753, Note_on_c, 0, 71, 0
1, 18775, Note_on_c, 0, 65, 0
1, 18818, Note_on_c, 0, 72, 68
1, 18828, Note_on_c, 0, 67, 44
1, 18839, Note_on_c, 0, 72, 0
1, 18861, Note_on_c, 0, 67, 0
1, 18904, Note_on_c, 0, 74, 72
1, 18914, Note_on_c, 0, 62, 50
1, 18916, Note_on_c, 0, 74, 0
1, 18934, Note_on_c, 0, 62, 0
1, 18987, Note_on_c, 0, 76, 67
1, 19004, Note_on_c, 0, 76, 0
1, 19005, Note_on_c, 0, 67, 44
1, 19032, Note_on_c, 0, 67, 0
1, 19070, Note_on_c, 0, 77, 72
1, 19080, Note_on_c, 0, 59, 53
1, 19088, Note_on_c, 0, 77, 0
1, 19103, Note_on_c, 0, 59, 0
1, 19153, Note_on_c, 0, 79, 71
1, 19165, Note_on_c, 0, 67, 56
1, 19168, Note_on_c, 0, 79, 0
1, 19184, Note_on_c, 0, 67, 0
1, 19234, Note_on_c, 0, 81, 71
1, 19244, Note_on_c, 0, 62, 56
1, 19248, Note_on_c, 0, 81, 0
1, 19264, Note_on_c, 0, 62, 0
1, 19317, Note_on_c, 0, 83, 74
1, 19331, Note_on_c, 0, 83, 0
1, 19331, Note_on_c, 0, 67, 54
1, 19351, Note_on_c, 0, 67, 0
1, 19397, Note_on_c, 0, 84, 75
1, 19413, Note_on_c, 0, 84, 0
1, 19414, Note_on_c, 0, 59, 43
1, 19438, Note_on_c, 0, 59, 0
1, 19480, Note_on_c, 0, 86, 79
1, 19483, Note_on_c, 0, 67, 53
1, 19493, Note_on_c, 0, 86, 0
1, 19507, Note_on_c, 0, 67, 0
1, 19561, Note_on_c, 0, 88, 75
1, 19569, Note_on_c, 0, 55, 43
1, 19578, Note_on_c, 0, 88, 0
1, 19590, Note_on_c, 0, 55, 0
1, 19639, Note_on_c, 0, 89, 76
1, 19646, Note_on_c, 0, 67, 50
1, 19654, Note_on_c, 0, 89, 0
1, 19697, Note_on_c, 0, 67, 0
1, 19731, Note_on_c, 0, 87, 82
1, 19742, Note_on_c, 0, 60, 48
1, 19767, Note_on_c, 0, 60, 0
1, 19825, Note_on_c, 0, 67, 60
1, 19847, Note_on_c, 0, 67, 0
1, 19911, Note_on_c, 0, 64, 60
1, 19933, Note_on_c, 0, 64, 0
1, 19996, Note_on_c, 0, 67, 61
1, 20026, Note_on_c, 0, 67, 0
1, 20082, Note_on_c, 0, 88, 60
1, 20097, Note_on_c, 0, 60, 42
1, 20104, Note_on_c, 0, 87, 0
1, 20133, Note_on_c, 0, 60, 0
1, 20180, Note_on_c, 0, 88, 0
1, 20185, Note_on_c, 0, 67, 38
1, 20207, Note_on_c, 0, 67, 0
1, 20279, Note_on_c, 0, 64, 35
1, 20330, Note_on_c, 0, 64, 0
1, 20363, Note_on_c, 0, 67, 42
1, 20472, Note_on_c, 0, 67, 0
1, 20496, Note_on_c, 0, 76, 62
1, 20514, Note_on_c, 0, 60, 35
1, 20592, Note_on_c, 0, 64, 45
1, 20595, Note_on_c, 0, 60, 0
1, 20658, Note_on_c, 0, 64, 0
1, 20674, Note_on_c, 0, 69, 46
1, 20738, Note_on_c, 0, 72, 51
1, 20782, Note_on_c, 0, 81, 62
1, 20826, Note_on_c, 0, 72, 0
1, 20834, Note_on_c, 0, 69, 0
1, 20844, Note_on_c, 0, 84, 61
1, 20889, Note_on_c, 0, 84, 0
1, 20889, Note_on_c, 0, 81, 0
1, 20891, Note_on_c, 0, 88, 78
1, 20905, Note_on_c, 0, 76, 0
1, 20945, Note_on_c, 0, 84, 77
1, 20963, Note_on_c, 0, 88, 0
1, 20995, Note_on_c, 0, 84, 0
1, 20995, Note_on_c, 0, 81, 77
1, 21025, Note_on_c, 0, 81, 0
1, 21036, Note_on_c, 0, 84, 75
1, 21089, Note_on_c, 0, 81, 79
1, 21108, Note_on_c, 0, 84, 0
1, 21139, Note_on_c, 0, 76, 72
1, 21144, Note_on_c, 0, 81, 0
1, 21160, Note_on_c, 0, 76, 0
1, 21202, Note_on_c, 0, 74, 72
1, 21215, Note_on_c, 0, 59, 46
1, 21269, Note_on_c, 0, 59, 0
1, 21277, Note_on_c, 0, 62, 54
1, 21335, Note_on_c, 0, 62, 0
1, 21342, Note_on_c, 0, 67, 56
1, 21406, Note_on_c, 0, 71, 52
1, 21418, Note_on_c, 0, 67, 0
1, 21463, Note_on_c, 0, 79, 62
1, 21504, Note_on_c, 0, 71, 0
1, 21527, Note_on_c, 0, 83, 60
1, 21567, Note_on_c, 0, 83, 0
1, 21579, Note_on_c, 0, 86, 67
1, 21592, Note_on_c, 0, 79, 0
1, 21627, Note_on_c, 0, 83, 77
1, 21633, Note_on_c, 0, 74, 0
1, 21642, Note_on_c, 0, 86, 0
1, 21682, Note_on_c, 0, 79, 75
1, 21684, Note_on_c, 0, 83, 0
1, 21718, Note_on_c, 0, 79, 0
1, 21731, Note_on_c, 0, 83, 80
1, 21781, Note_on_c, 0, 79, 79
1, 21793, Note_on_c, 0, 83, 0
1, 21834, Note_on_c, 0, 79, 0
1, 21834, Note_on_c, 0, 74, 67
1, 21892, Note_on_c, 0, 74, 0
1, 21892, Note_on_c, 0, 62, 50
1, 21894, Note_on_c, 0, 54, 45
1, 21899, Note_on_c, 0, 57, 44
1, 21951, Note_on_c, 0, 74, 71
1, 21967, Note_on_c, 0, 62, 0
1, 21982, Note_on_c, 0, 57, 0
1, 21983, Note_on_c, 0, 54, 0
1, 21997, Note_on_c, 0, 81, 74
1, 22018, Note_on_c, 0, 74, 0
1, 22045, Note_on_c, 0, 81, 0
1, 22052, Note_on_c, 0, 84, 72
1, 22101, Note_on_c, 0, 81, 70
1, 22110, Note_on_c, 0, 84, 0
1, 22154, Note_on_c, 0, 81, 0
1, 22166, Note_on_c, 0, 74, 56
1, 22204, Note_on_c, 0, 74, 0
1, 22234, Note_on_c, 0, 59, 40
1, 22238, Note_on_c, 0, 62, 40
1, 22242, Note_on_c, 0, 55, 35
1, 22277, Note_on_c, 0, 74, 61
1, 22307, Note_on_c, 0, 62, 0
1, 22321, Note_on_c, 0, 79, 69
1, 22335, Note_on_c, 0, 59, 0
1, 22339, Note_on_c, 0, 74, 0
1, 22342, Note_on_c, 0, 55, 0
1, 22362, Note_on_c, 0, 79, 0
1, 22370, Note_on_c, 0, 83, 75
1, 22425, Note_on_c, 0, 79, 75
1, 22448, Note_on_c, 0, 83, 0
1, 22464, Note_on_c, 0, 79, 0
1, 22468, Note_on_c, 0, 74, 69
1, 22538, Note_on_c, 0, 81, 73
1, 22540, Note_on_c, 0, 50, 51
1, 22574, Note_on_c, 0, 74, 0
1, 22605, Note_on_c, 0, 50, 0
1, 22624, Note_on_c, 0, 62, 47
1, 22667, Note_on_c, 0, 81, 0
1, 22672, Note_on_c, 0, 78, 59
1, 22690, Note_on_c, 0, 62, 0
1, 22704, Note_on_c, 0, 78, 0
1, 22704, Note_on_c, 0, 74, 69
1, 22710, Note_on_c, 0, 61, 58
1, 22803, Note_on_c, 0, 62, 56
1, 22811, Note_on_c, 0, 61, 0
1, 22855, Note_on_c, 0, 74, 0
1, 22888, Note_on_c, 0, 61, 57
1, 22913, Note_on_c, 0, 62, 0
1, 22977, Note_on_c, 0, 62, 60
1, 22981, Note_on_c, 0, 61, 0
1, 23077, Note_on_c, 0, 60, 63
1, 23098, Note_on_c, 0, 62, 0
1, 23163, Note_on_c, 0, 62, 59
1, 23213, Note_on_c, 0, 67, 56
1, 23218, Note_on_c, 0, 60, 0
1, 23260, Note_on_c, 0, 79, 79
1, 23273, Note_on_c, 0, 59, 38
1, 23276, Note_on_c, 0, 62, 0
1, 23314, Note_on_c, 0, 67, 0
1, 23366, Note_on_c, 0, 62, 38
1, 23464, Note_on_c, 0, 59, 0
1, 23464, Note_on_c, 0, 55, 40
1, 23470, Note_on_c, 0, 62, 0
1, 23547, Note_on_c, 0, 62, 40
1, 23651, Note_on_c, 0, 59, 36
1, 23665, Note_on_c, 0, 62, 0
1, 23687, Note_on_c, 0, 55, 0
1, 23732, Note_on_c, 0, 78, 59
1, 23741, Note_on_c, 0, 62, 35
1, 23820, Note_on_c, 0, 76, 60
1, 23822, Note_on_c, 0, 59, 0
1, 23830, Note_on_c, 0, 55, 43
1, 23832, Note_on_c, 0, 62, 0
1, 23908, Note_on_c, 0, 74, 72
1, 23910, Note_on_c, 0, 62, 42
1, 23920, Note_on_c, 0, 55, 0
1, 23923, Note_on_c, 0, 76, 0
1, 23928, Note_on_c, 0, 79, 0
1, 23938, Note_on_c, 0, 74, 0
1, 23938, Note_on_c, 0, 78, 0
1, 23999, Note_on_c, 0, 74, 75
1, 24009, Note_on_c, 0, 57, 42
1, 24016, Note_on_c, 0, 62, 0
1, 24079, Note_on_c, 0, 72, 66
1, 24087, Note_on_c, 0, 62, 48
1, 24089, Note_on_c, 0, 57, 0
1, 24102, Note_on_c, 0, 74, 0
1, 24165, Note_on_c, 0, 71, 70
1, 24177, Note_on_c, 0, 55, 44
1, 24180, Note_on_c, 0, 62, 0
1, 24182, Note_on_c, 0, 72, 0
1, 24232, Note_on_c, 0, 55, 0
1, 24235, Note_on_c, 0, 71, 0
1, 24238, Note_on_c, 0, 69, 65
1, 24277, Note_on_c, 0, 62, 41
1, 24295, Note_on_c, 0, 69, 0
1, 24346, Note_on_c, 0, 74, 64
1, 24360, Note_on_c, 0, 54, 41
1, 24366, Note_on_c, 0, 74, 0
1, 24366, Note_on_c, 0, 62, 0
1, 24411, Note_on_c, 0, 54, 0
1, 24439, Note_on_c, 0, 62, 47
1, 24529, Note_on_c, 0, 62, 0
1, 24538, Note_on_c, 0, 72, 61
1, 24542, Note_on_c, 0, 50, 43
1, 24559, Note_on_c, 0, 72, 0
1, 24573, Note_on_c, 0, 50, 0
1, 24632, Note_on_c, 0, 62, 41
1, 24725, Note_on_c, 0, 62, 0
1, 24731, Note_on_c, 0, 55, 41
1, 24732, Note_on_c, 0, 70, 49
1, 24806, Note_on_c, 0, 62, 42
1, 24902, Note_on_c, 0, 71, 54
1, 24912, Note_on_c, 0, 61, 43
1, 24915, Note_on_c, 0, 70, 0
1, 24918, Note_on_c, 0, 62, 0
1, 24988, Note_on_c, 0, 62, 54
1, 25008, Note_on_c, 0, 61, 0
1, 25016, Note_on_c, 0, 55, 0
1, 25085, Note_on_c, 0, 61, 61
1, 25091, Note_on_c, 0, 62, 0
1, 25168, Note_on_c, 0, 71, 0
1, 25168, Note_on_c, 0, 62, 62
1, 25174, Note_on_c, 0, 61, 0
1, 25270, Note_on_c, 0, 64, 68
1, 25299, Note_on_c, 0, 62, 0
1, 25348, Note_on_c, 0, 64, 0
1, 25356, Note_on_c, 0, 62, 69
1, 25445, Note_on_c, 0, 60, 63
1, 25476, Note_on_c, 0, 62, 0
1, 25524, Note_on_c, 0, 62, 56
1, 25572, Note_on_c, 0, 60, 0
1, 25618, Note_on_c, 0, 59, 55
1, 25637, Note_on_c, 0, 62, 0
1, 25703, Note_on_c, 0, 62, 50
1, 25730, Note_on_c, 0, 59, 0
1, 25801, Note_on_c, 0, 60, 45
1, 25824, Note_on_c, 0, 62, 0
1, 25886, Note_on_c, 0, 62, 43
1, 25940, Note_on_c, 0, 60, 0
1, 25987, Note_on_c, 0, 57, 42
1, 26000, Note_on_c, 0, 62, 0
1, 26068, Note_on_c, 0, 62, 44
1, 26097, Note_on_c, 0, 67, 51
1, 26117, Note_on_c, 0, 57, 0
1, 26149, Note_on_c, 0, 79, 75
1, 26166, Note_on_c, 0, 59, 43
1, 26175, Note_on_c, 0, 62, 0
1, 26226, Note_on_c, 0, 67, 0
1, 26259, Note_on_c, 0, 62, 39
1, 26337, Note_on_c, 0, 59, 0
1, 26352, Note_on_c, 0, 55, 38
1, 26357, Note_on_c, 0, 62, 0
1, 26437, Note_on_c, 0, 62, 39
1, 26540, Note_on_c, 0, 62, 0
1, 26544, Note_on_c, 0, 59, 35
1, 26560, Note_on_c, 0, 55, 0
1, 26614, Note_on_c, 0, 62, 35
1, 26618, Note_on_c, 0, 78, 58
1, 26714, Note_on_c, 0, 55, 44
1, 26717, Note_on_c, 0, 76, 64
1, 26723, Note_on_c, 0, 62, 0
1, 26745, Note_on_c, 0, 59, 0
1, 26793, Note_on_c, 0, 62, 53
1, 26794, Note_on_c, 0, 74, 72
1, 26798, Note_on_c, 0, 79, 0
1, 26807, Note_on_c, 0, 55, 0
1, 26810, Note_on_c, 0, 76, 0
1, 26827, Note_on_c, 0, 74, 0
1, 26830, Note_on_c, 0, 78, 0
1, 26890, Note_on_c, 0, 74, 75
1, 26898, Note_on_c, 0, 57, 49
1, 26908, Note_on_c, 0, 62, 0
1, 26966, Note_on_c, 0, 57, 0
1, 26976, Note_on_c, 0, 72, 68
1, 26977, Note_on_c, 0, 62, 51
1, 26993, Note_on_c, 0, 74, 0
1, 27059, Note_on_c, 0, 71, 67
1, 27059, Note_on_c, 0, 55, 52
1, 27065, Note_on_c, 0, 62, 0
1, 27066, Note_on_c, 0, 72, 0
1, 27107, Note_on_c, 0, 55, 0
1, 27122, Note_on_c, 0, 71, 0
1, 27134, Note_on_c, 0, 69, 65
1, 27153, Note_on_c, 0, 62, 44
1, 27191, Note_on_c, 0, 69, 0
1, 27233, Note_on_c, 0, 74, 68
1, 27246, Note_on_c, 0, 62, 0
1, 27246, Note_on_c, 0, 54, 40
1, 27250, Note_on_c, 0, 74, 0
1, 27291, Note_on_c, 0, 54, 0
1, 27322, Note_on_c, 0, 62, 43
1, 27422, Note_on_c, 0, 72, 64
1, 27423, Note_on_c, 0, 62, 0
1, 27423, Note_on_c, 0, 50, 48
1, 27442, Note_on_c, 0, 72, 0
1, 27456, Note_on_c, 0, 50, 0
1, 27505, Note_on_c, 0, 62, 43
1, 27596, Note_on_c, 0, 62, 0
1, 27602, Note_on_c, 0, 71, 59
1, 27616, Note_on_c, 0, 55, 41
1, 27698, Note_on_c, 0, 62, 38
1, 27719, Note_on_c, 0, 71, 0
1, 27769, Note_on_c, 0, 55, 0
1, 27776, Note_on_c, 0, 62, 0
1, 27782, Note_on_c, 0, 59, 48
1, 27837, Note_on_c, 0, 59, 0
1, 27873, Note_on_c, 0, 62, 43
1, 27905, Note_on_c, 0, 76, 72
1, 27925, Note_on_c, 0, 62, 0
1, 27930, Note_on_c, 0, 76, 0
1, 27936, Note_on_c, 0, 78, 69
1, 27950, Note_on_c, 0, 55, 49
1, 27961, Note_on_c, 0, 76, 69
1, 27966, Note_on_c, 0, 78, 0
1, 28011, Note_on_c, 0, 76, 0
1, 28045, Note_on_c, 0, 64, 46
1, 28051, Note_on_c, 0, 78, 69
1, 28081, Note_on_c, 0, 78, 0
1, 28083, Note_on_c, 0, 64, 0
1, 28099, Note_on_c, 0, 55, 0
1, 28114, Note_on_c, 0, 79, 74
1, 28114, Note_on_c, 0, 60, 50
1, 28134, Note_on_c, 0, 79, 0
1, 28179, Note_on_c, 0, 60, 0
1, 28205, Note_on_c, 0, 64, 51
1, 28212, Note_on_c, 0, 79, 74
1, 28230, Note_on_c, 0, 79, 0
1, 28250, Note_on_c, 0, 64, 0
1, 28302, Note_on_c, 0, 79, 71
1, 28306, Note_on_c, 0, 55, 46
1, 28378, Note_on_c, 0, 79, 0
1, 28385, Note_on_c, 0, 62, 44
1, 28431, Note_on_c, 0, 62, 0
1, 28458, Note_on_c, 0, 55, 0
1, 28468, Note_on_c, 0, 59, 41
1, 28506, Note_on_c, 0, 59, 0
1, 28548, Note_on_c, 0, 62, 41
1, 28582, Note_on_c, 0, 81, 65
1, 28587, Note_on_c, 0, 62, 0
1, 28608, Note_on_c, 0, 83, 68
1, 28610, Note_on_c, 0, 81, 0
1, 28632, Note_on_c, 0, 81, 68
1, 28635, Note_on_c, 0, 83, 0
1, 28638, Note_on_c, 0, 53, 50
1, 28661, Note_on_c, 0, 81, 0
1, 28728, Note_on_c, 0, 60, 35
1, 28765, Note_on_c, 0, 83, 68
1, 28781, Note_on_c, 0, 60, 0
1, 28788, Note_on_c, 0, 53, 0
1, 28801, Note_on_c, 0, 57, 46
1, 28807, Note_on_c, 0, 84, 72
1, 28811, Note_on_c, 0, 83, 0
1, 28824, Note_on_c, 0, 84, 0
1, 28848, Note_on_c, 0, 57, 0
1, 28892, Note_on_c, 0, 60, 46
1, 28897, Note_on_c, 0, 84, 70
1, 28911, Note_on_c, 0, 84, 0
1, 28937, Note_on_c, 0, 60, 0
1, 28991, Note_on_c, 0, 84, 78
1, 28992, Note_on_c, 0, 52, 48
1, 29040, Note_on_c, 0, 84, 0
1, 29088, Note_on_c, 0, 60, 42
1, 29149, Note_on_c, 0, 52, 0
1, 29156, Note_on_c, 0, 55, 50
1, 29160, Note_on_c, 0, 60, 0
1, 29188, Note_on_c, 0, 55, 0
1, 29231, Note_on_c, 0, 60, 49
1, 29255, Note_on_c, 0, 84, 80
1, 29275, Note_on_c, 0, 84, 0
1, 29276, Note_on_c, 0, 86, 78
1, 29294, Note_on_c, 0, 86, 0
1, 29305, Note_on_c, 0, 60, 0
1, 29305, Note_on_c, 0, 84, 80
1, 29317, Note_on_c, 0, 48, 43
1, 29324, Note_on_c, 0, 84, 0
1, 29413, Note_on_c, 0, 55, 52
1, 29440, Note_on_c, 0, 86, 78
1, 29465, Note_on_c, 0, 86, 0
1, 29470, Note_on_c, 0, 48, 0
1, 29480, Note_on_c, 0, 55, 0
1, 29482, Note_on_c, 0, 88, 82
1, 29490, Note_on_c, 0, 52, 51
1, 29509, Note_on_c, 0, 88, 0
1, 29549, Note_on_c, 0, 52, 0
1, 29568, Note_on_c, 0, 88, 88
1, 29568, Note_on_c, 0, 55, 54
1, 29594, Note_on_c, 0, 88, 0
1, 29644, Note_on_c, 0, 55, 0
1, 29652, Note_on_c, 0, 88, 91
1, 29660, Note_on_c, 0, 50, 54
1, 29698, Note_on_c, 0, 88, 0
1, 29733, Note_on_c, 0, 86, 80
1, 29738, Note_on_c, 0, 59, 51
1, 29763, Note_on_c, 0, 86, 0
1, 29764, Note_on_c, 0, 50, 0
1, 29771, Note_on_c, 0, 59, 0
1, 29816, Note_on_c, 0, 84, 80
1, 29817, Note_on_c, 0, 55, 57
1, 29839, Note_on_c, 0, 84, 0
1, 29846, Note_on_c, 0, 55, 0
1, 29898, Note_on_c, 0, 83, 78
1, 29904, Note_on_c, 0, 59, 52
1, 29914, Note_on_c, 0, 83, 0
1, 29934, Note_on_c, 0, 59, 0
1, 29989, Note_on_c, 0, 81, 67
1, 29990, Note_on_c, 0, 50, 55
1, 30004, Note_on_c, 0, 81, 0
1, 30024, Note_on_c, 0, 50, 0
1, 30075, Note_on_c, 0, 60, 52
1, 30117, Note_on_c, 0, 60, 0
1, 30163, Note_on_c, 0, 86, 77
1, 30176, Note_on_c, 0, 86, 0
1, 30176, Note_on_c, 0, 54, 56
1, 30218, Note_on_c, 0, 54, 0
1, 30259, Note_on_c, 0, 60, 50
1, 30289, Note_on_c, 0, 60, 0
1, 30347, Note_on_c, 0, 84, 74
1, 30354, Note_on_c, 0, 55, 43
1, 30445, Note_on_c, 0, 62, 37
1, 30517, Note_on_c, 0, 62, 0
1, 30523, Note_on_c, 0, 55, 0
1, 30533, Note_on_c, 0, 83, 66
1, 30536, Note_on_c, 0, 59, 42
1, 30553, Note_on_c, 0, 84, 0
1, 30568, Note_on_c, 0, 83, 0
1, 30576, Note_on_c, 0, 59, 0
1, 30613, Note_on_c, 0, 62, 41
1, 30651, Note_on_c, 0, 62, 0
1, 30651, Note_on_c, 0, 76, 67
1, 30669, Note_on_c, 0, 76, 0
1, 30671, Note_on_c, 0, 78, 69
1, 30707, Note_on_c, 0, 76, 81
1, 30708, Note_on_c, 0, 55, 44
1, 30715, Note_on_c, 0, 78, 0
1, 30799, Note_on_c, 0, 64, 45
1, 30837, Note_on_c, 0, 78, 65
1, 30845, Note_on_c, 0, 64, 0
1, 30850, Note_on_c, 0, 76, 0
1, 30876, Note_on_c, 0, 79, 75
1, 30888, Note_on_c, 0, 55, 0
1, 30890, Note_on_c, 0, 78, 0
1, 30890, Note_on_c, 0, 60, 40
1, 30895, Note_on_c, 0, 79, 0
1, 30931, Note_on_c, 0, 60, 0
1, 30974, Note_on_c, 0, 79, 69
1, 30982, Note_on_c, 0, 64, 47
1, 30989, Note_on_c, 0, 79, 0
1, 31014, Note_on_c, 0, 64, 0
1, 31059, Note_on_c, 0, 79, 59
1, 31069, Note_on_c, 0, 55, 44
1, 31127, Note_on_c, 0, 79, 0
1, 31154, Note_on_c, 0, 62, 43
1, 31205, Note_on_c, 0, 62, 0
1, 31221, Note_on_c, 0, 55, 0
1, 31231, Note_on_c, 0, 59, 46
1, 31261, Note_on_c, 0, 59, 0
1, 31309, Note_on_c, 0, 62, 44
1, 31335, Note_on_c, 0, 81, 63
1, 31349, Note_on_c, 0, 62, 0
1, 31349, Note_on_c, 0, 83, 75
1, 31351, Note_on_c, 0, 81, 0
1, 31381, Note_on_c, 0, 81, 79
1, 31392, Note_on_c, 0, 83, 0
1, 31397, Note_on_c, 0, 53, 55
1, 31476, Note_on_c, 0, 53, 0
1, 31487, Note_on_c, 0, 60, 42
1, 31518, Note_on_c, 0, 83, 70
1, 31540, Note_on_c, 0, 81, 0
1, 31549, Note_on_c, 0, 60, 0
1, 31555, Note_on_c, 0, 57, 49
1, 31556, Note_on_c, 0, 84, 72
1, 31562, Note_on_c, 0, 83, 0
1, 31575, Note_on_c, 0, 84, 0
1, 31602, Note_on_c, 0, 57, 0
1, 31641, Note_on_c, 0, 60, 45
1, 31644, Note_on_c, 0, 84, 74
1, 31664, Note_on_c, 0, 84, 0
1, 31699, Note_on_c, 0, 60, 0
1, 31729, Note_on_c, 0, 84, 74
1, 31739, Note_on_c, 0, 52, 48
1, 31766, Note_on_c, 0, 84, 0
1, 31832, Note_on_c, 0, 60, 48
1, 31890, Note_on_c, 0, 52, 0
1, 31913, Note_on_c, 0, 55, 52
1, 31935, Note_on_c, 0, 60, 0
1, 31948, Note_on_c, 0, 55, 0
1, 31998, Note_on_c, 0, 60, 54
1, 32021, Note_on_c, 0, 84, 67
1, 32028, Note_on_c, 0, 86, 79
1, 32029, Note_on_c, 0, 84, 0
1, 32041, Note_on_c, 0, 60, 0
1, 32059, Note_on_c, 0, 48, 59
1, 32061, Note_on_c, 0, 84, 88
1, 32076, Note_on_c, 0, 86, 0
1, 32159, Note_on_c, 0, 55, 59
1, 32192, Note_on_c, 0, 86, 73
1, 32214, Note_on_c, 0, 48, 0
1, 32224, Note_on_c, 0, 84, 0
1, 32229, Note_on_c, 0, 88, 80
1, 32237, Note_on_c, 0, 55, 0
1, 32243, Note_on_c, 0, 86, 0
1, 32243, Note_on_c, 0, 52, 54
1, 32257, Note_on_c, 0, 88, 0
1, 32310, Note_on_c, 0, 52, 0
1, 32317, Note_on_c, 0, 88, 91
1, 32318, Note_on_c, 0, 55, 55
1, 32348, Note_on_c, 0, 88, 0
1, 32371, Note_on_c, 0, 55, 0
1, 32404, Note_on_c, 0, 88, 93
1, 32408, Note_on_c, 0, 50, 59
1, 32451, Note_on_c, 0, 88, 0
1, 32488, Note_on_c, 0, 86, 80
1, 32497, Note_on_c, 0, 59, 54
1, 32517, Note_on_c, 0, 50, 0
1, 32518, Note_on_c, 0, 86, 0
1, 32524, Note_on_c, 0, 59, 0
1, 32569, Note_on_c, 0, 84, 82
1, 32577, Note_on_c, 0, 55, 59
1, 32597, Note_on_c, 0, 84, 0
1, 32603, Note_on_c, 0, 55, 0
1, 32654, Note_on_c, 0, 83, 78
1, 32664, Note_on_c, 0, 59, 52
1, 32672, Note_on_c, 0, 83, 0
1, 32693, Note_on_c, 0, 59, 0
1, 32746, Note_on_c, 0, 50, 61
1, 32748, Note_on_c, 0, 83, 84
1, 32785, Note_on_c, 0, 83, 0
1, 32834, Note_on_c, 0, 81, 79
1, 32834, Note_on_c, 0, 60, 65
1, 32851, Note_on_c, 0, 50, 0
1, 32854, Note_on_c, 0, 81, 0
1, 32874, Note_on_c, 0, 60, 0
1, 32920, Note_on_c, 0, 57, 70
1, 32920, Note_on_c, 0, 79, 79
1, 32940, Note_on_c, 0, 79, 0
1, 32960, Note_on_c, 0, 57, 0
1, 33003, Note_on_c, 0, 78, 84
1, 33008, Note_on_c, 0, 60, 66
1, 33018, Note_on_c, 0, 78, 0
1, 33025, Note_on_c, 0, 60, 0
1, 33101, Note_on_c, 0, 86, 86
1, 33282, Note_on_c, 0, 59, 56
1, 33295, Note_on_c, 0, 55, 35
1, 33334, Note_on_c, 0, 83, 64
1, 33340, Note_on_c, 0, 86, 0
1, 33390, Note_on_c, 0, 83, 0
1, 33398, Note_on_c, 0, 79, 69
1, 33433, Note_on_c, 0, 59, 0
1, 33453, Note_on_c, 0, 79, 0
1, 33453, Note_on_c, 0, 78, 73
1, 33460, Note_on_c, 0, 57, 55
1, 33466, Note_on_c, 0, 60, 54
1, 33473, Note_on_c, 0, 55, 0
1, 33508, Note_on_c, 0, 78, 0
1, 33508, Note_on_c, 0, 81, 74
1, 33562, Note_on_c, 0, 81, 0
1, 33562, Note_on_c, 0, 74, 75
1, 33596, Note_on_c, 0, 60, 0
1, 33602, Note_on_c, 0, 57, 0
1, 33617, Note_on_c, 0, 79, 81
1, 33629, Note_on_c, 0, 59, 44
1, 33632, Note_on_c, 0, 62, 53
1, 33637, Note_on_c, 0, 74, 0
1, 33675, Note_on_c, 0, 83, 82
1, 33680, Note_on_c, 0, 79, 0
1, 33689, Note_on_c, 0, 62, 0
1, 33717, Note_on_c, 0, 74, 72
1, 33718, Note_on_c, 0, 59, 0
1, 33724, Note_on_c, 0, 83, 0
1, 33757, Note_on_c, 0, 74, 0
1, 33790, Note_on_c, 0, 81, 85
1, 33967, Note_on_c, 0, 54, 60
1, 33971, Note_on_c, 0, 50, 48
1, 34016, Note_on_c, 0, 81, 0
1, 34019, Note_on_c, 0, 78, 66
1, 34070, Note_on_c, 0, 78, 0
1, 34077, Note_on_c, 0, 74, 71
1, 34099, Note_on_c, 0, 54, 0
1, 34129, Note_on_c, 0, 73, 77
1, 34135, Note_on_c, 0, 74, 0
1, 34140, Note_on_c, 0, 55, 65
1, 34145, Note_on_c, 0, 52, 57
1, 34147, Note_on_c, 0, 50, 0
1, 34183, Note_on_c, 0, 73, 0
1, 34183, Note_on_c, 0, 74, 78
1, 34233, Note_on_c, 0, 74, 0
1, 34238, Note_on_c, 0, 69, 77
1, 34293, Note_on_c, 0, 72, 77
1, 34296, Note_on_c, 0, 52, 0
1, 34306, Note_on_c, 0, 69, 0
1, 34306, Note_on_c, 0, 54, 64
1, 34308, Note_on_c, 0, 55, 0
1, 34308, Note_on_c, 0, 57, 57
1, 34326, Note_on_c, 0, 54, 0
1, 34328, Note_on_c, 0, 57, 0
1, 34344, Note_on_c, 0, 74, 79
1, 34359, Note_on_c, 0, 72, 0
1, 34390, Note_on_c, 0, 74, 0
1, 34392, Note_on_c, 0, 69, 75
1, 34417, Note_on_c, 0, 69, 0
1, 34500, Note_on_c, 0, 86, 79
1, 34695, Note_on_c, 0, 59, 49
1, 34706, Note_on_c, 0, 55, 40
1, 34734, Note_on_c, 0, 83, 68
1, 34756, Note_on_c, 0, 86, 0
1, 34792, Note_on_c, 0, 83, 0
1, 34799, Note_on_c, 0, 79, 71
1, 34850, Note_on_c, 0, 60, 58
1, 34852, Note_on_c, 0, 78, 78
1, 34855, Note_on_c, 0, 79, 0
1, 34855, Note_on_c, 0, 57, 51
1, 34860, Note_on_c, 0, 59, 0
1, 34871, Note_on_c, 0, 55, 0
1, 34908, Note_on_c, 0, 78, 0
1, 34908, Note_on_c, 0, 81, 76
1, 34964, Note_on_c, 0, 81, 0
1, 34964, Note_on_c, 0, 74, 72
1, 34971, Note_on_c, 0, 60, 0
1, 35005, Note_on_c, 0, 57, 0
1, 35013, Note_on_c, 0, 79, 75
1, 35016, Note_on_c, 0, 59, 51
1, 35019, Note_on_c, 0, 62, 47
1, 35034, Note_on_c, 0, 74, 0
1, 35062, Note_on_c, 0, 62, 0
1, 35066, Note_on_c, 0, 83, 78
1, 35074, Note_on_c, 0, 79, 0
1, 35084, Note_on_c, 0, 59, 0
1, 35112, Note_on_c, 0, 83, 0
1, 35112, Note_on_c, 0, 74, 66
1, 35148, Note_on_c, 0, 74, 0
1, 35187, Note_on_c, 0, 81, 63
1, 35359, Note_on_c, 0, 54, 46
1, 35371, Note_on_c, 0, 50, 36
1, 35414, Note_on_c, 0, 78, 68
1, 35421, Note_on_c, 0, 81, 0
1, 35462, Note_on_c, 0, 78, 0
1, 35472, Note_on_c, 0, 74, 65
1, 35507, Note_on_c, 0, 54, 0
1, 35519, Note_on_c, 0, 74, 0
1, 35527, Note_on_c, 0, 73, 73
1, 35529, Note_on_c, 0, 52, 54
1, 35529, Note_on_c, 0, 55, 53
1, 35547, Note_on_c, 0, 50, 0
1, 35568, Note_on_c, 0, 73, 0
1, 35575, Note_on_c, 0, 74, 68
1, 35630, Note_on_c, 0, 74, 0
1, 35632, Note_on_c, 0, 69, 66
1, 35655, Note_on_c, 0, 55, 0
1, 35656, Note_on_c, 0, 52, 0
1, 35683, Note_on_c, 0, 54, 49
1, 35685, Note_on_c, 0, 57, 59
1, 35688, Note_on_c, 0, 72, 67
1, 35706, Note_on_c, 0, 69, 0
1, 35736, Note_on_c, 0, 72, 0
1, 35736, Note_on_c, 0, 74, 68
1, 35794, Note_on_c, 0, 74, 0
1, 35802, Note_on_c, 0, 69, 65
1, 35817, Note_on_c, 0, 54, 0
1, 35818, Note_on_c, 0, 57, 0
1, 35821, Note_on_c, 0, 69, 0
1, 35867, Note_on_c, 0, 55, 58
1, 35868, Note_on_c, 0, 71, 75
1, 35890, Note_on_c, 0, 71, 0
1, 35927, Note_on_c, 0, 67, 70
1, 35952, Note_on_c, 0, 67, 0
1, 35970, Note_on_c, 0, 71, 70
1, 35995, Note_on_c, 0, 71, 0
1, 36032, Note_on_c, 0, 74, 66
1, 36061, Note_on_c, 0, 74, 0
1, 36096, Note_on_c, 0, 71, 65
1, 36124, Note_on_c, 0, 71, 0
1, 36139, Note_on_c, 0, 74, 68
1, 36174, Note_on_c, 0, 74, 0
1, 36197, Note_on_c, 0, 55, 0
1, 36200, Note_on_c, 0, 79, 81
1, 36229, Note_on_c, 0, 79, 0
1, 36257, Note_on_c, 0, 74, 63
1, 36304, Note_on_c, 0, 74, 0
1, 36308, Note_on_c, 0, 79, 79
1, 36343, Note_on_c, 0, 79, 0
1, 36366, Note_on_c, 0, 83, 78
1, 36397, Note_on_c, 0, 83, 0
1, 36416, Note_on_c, 0, 79, 75
1, 36463, Note_on_c, 0, 83, 84
1, 36466, Note_on_c, 0, 79, 0
1, 36496, Note_on_c, 0, 83, 0
1, 36521, Note_on_c, 0, 86, 84
1, 36543, Note_on_c, 0, 55, 50
1, 36543, Note_on_c, 0, 47, 53
1, 36550, Note_on_c, 0, 50, 44
1, 36553, Note_on_c, 0, 86, 0
1, 36569, Note_on_c, 0, 43, 35
1, 36570, Note_on_c, 0, 83, 88
1, 36607, Note_on_c, 0, 83, 0
1, 36630, Note_on_c, 0, 86, 86
1, 36672, Note_on_c, 0, 86, 0
1, 36685, Note_on_c, 0, 89, 89
1, 36736, Note_on_c, 0, 89, 0
1, 36737, Note_on_c, 0, 86, 84
1, 36789, Note_on_c, 0, 86, 0
1, 36790, Note_on_c, 0, 83, 88
1, 36836, Note_on_c, 0, 83, 0
1, 36854, Note_on_c, 0, 79, 78
1, 36890, Note_on_c, 0, 79, 0
1, 36903, Note_on_c, 0, 77, 78
1, 36941, Note_on_c, 0, 74, 73
1, 36943, Note_on_c, 0, 77, 0
1, 36966, Note_on_c, 0, 47, 0
1, 36976, Note_on_c, 0, 74, 0
1, 36989, Note_on_c, 0, 71, 71
1, 37024, Note_on_c, 0, 71, 0
1, 37053, Note_on_c, 0, 67, 65
1, 37090, Note_on_c, 0, 67, 0
1, 37108, Note_on_c, 0, 65, 64
1, 37143, Note_on_c, 0, 65, 0
1, 37156, Note_on_c, 0, 50, 0
1, 37166, Note_on_c, 0, 48, 50
1, 37166, Note_on_c, 0, 64, 74
1, 37201, Note_on_c, 0, 64, 0
1, 37206, Note_on_c, 0, 43, 0
1, 37271, Note_on_c, 0, 76, 61
1, 37354, Note_on_c, 0, 75, 60
1, 37367, Note_on_c, 0, 76, 0
1, 37447, Note_on_c, 0, 76, 67
1, 37470, Note_on_c, 0, 75, 0
1, 37528, Note_on_c, 0, 75, 73
1, 37538, Note_on_c, 0, 76, 0
1, 37554, Note_on_c, 0, 55, 0
1, 37566, Note_on_c, 0, 48, 0
1, 37616, Note_on_c, 0, 76, 68
1, 37636, Note_on_c, 0, 75, 0
1, 37702, Note_on_c, 0, 75, 78
1, 37712, Note_on_c, 0, 76, 0
1, 37788, Note_on_c, 0, 76, 69
1, 37811, Note_on_c, 0, 75, 0
1, 37906, Note_on_c, 0, 67, 52
1, 37908, Note_on_c, 0, 76, 0
1, 38089, Note_on_c, 0, 58, 51
1, 38089, Note_on_c, 0, 49, 45
1, 38155, Note_on_c, 0, 49, 0
1, 38188, Note_on_c, 0, 58, 0
1, 38275, Note_on_c, 0, 59, 51
1, 38281, Note_on_c, 0, 50, 41
1, 38388, Note_on_c, 0, 59, 0
1, 38419, Note_on_c, 0, 67, 0
1, 38460, Note_on_c, 0, 71, 62
1, 38462, Note_on_c, 0, 60, 49
1, 38462, Note_on_c, 0, 66, 55
1, 38541, Note_on_c, 0, 66, 0
1, 38550, Note_on_c, 0, 69, 60
1, 38583, Note_on_c, 0, 69, 0
1, 38598, Note_on_c, 0, 60, 0
1, 38606, Note_on_c, 0, 71, 0
1, 38641, Note_on_c, 0, 71, 73
1, 38651, Note_on_c, 0, 55, 38
1, 38655, Note_on_c, 0, 59, 39
1, 38659, Note_on_c, 0, 50, 0
1, 38666, Note_on_c, 0, 71, 0
1, 38704, Note_on_c, 0, 67, 68
1, 38754, Note_on_c, 0, 67, 0
1, 38762, Note_on_c, 0, 71, 73
1, 38787, Note_on_c, 0, 71, 0
1, 38820, Note_on_c, 0, 74, 78
1, 38852, Note_on_c, 0, 74, 0
1, 38874, Note_on_c, 0, 71, 73
1, 38928, Note_on_c, 0, 71, 0
1, 38928, Note_on_c, 0, 74, 67
1, 38968, Note_on_c, 0, 74, 0
1, 38990, Note_on_c, 0, 79, 75
1, 39018, Note_on_c, 0, 79, 0
1, 39044, Note_on_c, 0, 74, 73
1, 39099, Note_on_c, 0, 79, 79
1, 39112, Note_on_c, 0, 74, 0
1, 39117, Note_on_c, 0, 59, 0
1, 39127, Note_on_c, 0, 55, 0
1, 39147, Note_on_c, 0, 79, 0
1, 39155, Note_on_c, 0, 83, 77
1, 39187, Note_on_c, 0, 83, 0
1, 39204, Note_on_c, 0, 79, 77
1, 39224, Note_on_c, 0, 79, 0
1, 39254, Note_on_c, 0, 83, 86
1, 39280, Note_on_c, 0, 83, 0
1, 39316, Note_on_c, 0, 55, 67
1, 39316, Note_on_c, 0, 50, 59
1, 39318, Note_on_c, 0, 47, 62
1, 39318, Note_on_c, 0, 86, 79
1, 39323, Note_on_c, 0, 43, 56
1, 39350, Note_on_c, 0, 86, 0
1, 39355, Note_on_c, 0, 83, 86
1, 39406, Note_on_c, 0, 83, 0
1, 39424, Note_on_c, 0, 86, 84
1, 39464, Note_on_c, 0, 86, 0
1, 39481, Note_on_c, 0, 89, 92
1, 39534, Note_on_c, 0, 86, 84
1, 39552, Note_on_c, 0, 89, 0
1, 39588, Note_on_c, 0, 83, 88
1, 39610, Note_on_c, 0, 86, 0
1, 39647, Note_on_c, 0, 83, 0
1, 39650, Note_on_c, 0, 79, 75
1, 39666, Note_on_c, 0, 79, 0
1, 39697, Note_on_c, 0, 77, 76
1, 39728, Note_on_c, 0, 77, 0
1, 39760, Note_on_c, 0, 74, 68
1, 39801, Note_on_c, 0, 74, 0
1, 39808, Note_on_c, 0, 71, 79
1, 39828, Note_on_c, 0, 47, 0
1, 39834, Note_on_c, 0, 71, 0
1, 39865, Note_on_c, 0, 67, 64
1, 39889, Note_on_c, 0, 67, 0
1, 39918, Note_on_c, 0, 65, 74
1, 39959, Note_on_c, 0, 65, 0
1, 39984, Note_on_c, 0, 64, 64
1, 39986, Note_on_c, 0, 48, 46
1, 39995, Note_on_c, 0, 50, 0
1, 40047, Note_on_c, 0, 64, 0
1, 40050, Note_on_c, 0, 43, 0
1, 40100, Note_on_c, 0, 76, 56
1, 40175, Note_on_c, 0, 76, 0
1, 40196, Note_on_c, 0, 75, 49
1, 40282, Note_on_c, 0, 76, 55
1, 40297, Note_on_c, 0, 75, 0
1, 40326, Note_on_c, 0, 55, 0
1, 40352, Note_on_c, 0, 48, 0
1, 40369, Note_on_c, 0, 75, 64
1, 40389, Note_on_c, 0, 76, 0
1, 40462, Note_on_c, 0, 76, 69
1, 40473, Note_on_c, 0, 75, 0
1, 40545, Note_on_c, 0, 75, 68
1, 40568, Note_on_c, 0, 76, 0
1, 40636, Note_on_c, 0, 76, 75
1, 40648, Note_on_c, 0, 75, 0
1, 40667, Note_on_c, 0, 76, 0
1, 40725, Note_on_c, 0, 58, 61
1, 40725, Note_on_c, 0, 49, 52
1, 40807, Note_on_c, 0, 79, 71
1, 40896, Note_on_c, 0, 78, 76
1, 40920, Note_on_c, 0, 79, 0
1, 40980, Note_on_c, 0, 79, 79
1, 41002, Note_on_c, 0, 78, 0
1, 41067, Note_on_c, 0, 78, 82
1, 41081, Note_on_c, 0, 58, 0
1, 41090, Note_on_c, 0, 79, 0
1, 41115, Note_on_c, 0, 49, 0
1, 41148, Note_on_c, 0, 78, 0
1, 41150, Note_on_c, 0, 79, 81
1, 41226, Note_on_c, 0, 78, 76
1, 41237, Note_on_c, 0, 79, 0
1, 41308, Note_on_c, 0, 79, 75
1, 41318, Note_on_c, 0, 78, 0
1, 41340, Note_on_c, 0, 79, 0
1, 41399, Note_on_c, 0, 79, 79
1, 41407, Note_on_c, 0, 50, 45
1, 41482, Note_on_c, 0, 79, 0
1, 41482, Note_on_c, 0, 74, 69
1, 41490, Note_on_c, 0, 59, 48
1, 41500, Note_on_c, 0, 74, 0
1, 41510, Note_on_c, 0, 59, 0
1, 41530, Note_on_c, 0, 50, 0
1, 41560, Note_on_c, 0, 74, 67
1, 41569, Note_on_c, 0, 55, 53
1, 41583, Note_on_c, 0, 74, 0
1, 41593, Note_on_c, 0, 55, 0
1, 41646, Note_on_c, 0, 74, 83
1, 41658, Note_on_c, 0, 59, 52
1, 41670, Note_on_c, 0, 74, 0
1, 41680, Note_on_c, 0, 59, 0
1, 41733, Note_on_c, 0, 76, 83
1, 41743, Note_on_c, 0, 50, 53
1, 41782, Note_on_c, 0, 50, 0
1, 41784, Note_on_c, 0, 76, 0
1, 41807, Note_on_c, 0, 74, 78
1, 41821, Note_on_c, 0, 59, 51
1, 41839, Note_on_c, 0, 74, 0
1, 41856, Note_on_c, 0, 59, 0
1, 41894, Note_on_c, 0, 72, 70
1, 41907, Note_on_c, 0, 55, 35
1, 41913, Note_on_c, 0, 72, 0
1, 41939, Note_on_c, 0, 55, 0
1, 41976, Note_on_c, 0, 71, 71
1, 41990, Note_on_c, 0, 59, 50
1, 42000, Note_on_c, 0, 71, 0
1, 42016, Note_on_c, 0, 59, 0
1, 42066, Note_on_c, 0, 71, 76
1, 42079, Note_on_c, 0, 50, 48
1, 42161, Note_on_c, 0, 62, 52
1, 42245, Note_on_c, 0, 62, 0
1, 42250, Note_on_c, 0, 55, 48
1, 42283, Note_on_c, 0, 50, 0
1, 42310, Note_on_c, 0, 55, 0
1, 42333, Note_on_c, 0, 62, 56
1, 42365, Note_on_c, 0, 71, 0
1, 42378, Note_on_c, 0, 62, 0
1, 42413, Note_on_c, 0, 69, 67
1, 42413, Note_on_c, 0, 50, 52
1, 42436, Note_on_c, 0, 69, 0
1, 42449, Note_on_c, 0, 71, 58
1, 42470, Note_on_c, 0, 71, 0
1, 42481, Note_on_c, 0, 69, 71
1, 42499, Note_on_c, 0, 60, 50
1, 42504, Note_on_c, 0, 69, 0
1, 42516, Note_on_c, 0, 50, 0
1, 42525, Note_on_c, 0, 71, 60
1, 42532, Note_on_c, 0, 60, 0
1, 42544, Note_on_c, 0, 71, 0
1, 42560, Note_on_c, 0, 69, 54
1, 42570, Note_on_c, 0, 54, 50
1, 42575, Note_on_c, 0, 69, 0
1, 42592, Note_on_c, 0, 71, 64
1, 42597, Note_on_c, 0, 54, 0
1, 42607, Note_on_c, 0, 69, 71
1, 42624, Note_on_c, 0, 71, 0
1, 42635, Note_on_c, 0, 60, 42
1, 42645, Note_on_c, 0, 69, 0
1, 42653, Note_on_c, 0, 67, 61
1, 42677, Note_on_c, 0, 67, 0
1, 42695, Note_on_c, 0, 60, 0
1, 42695, Note_on_c, 0, 69, 57
1, 42738, Note_on_c, 0, 69, 0
1, 42746, Note_on_c, 0, 67, 64
1, 42748, Note_on_c, 0, 55, 38
1, 42846, Note_on_c, 0, 59, 44
1, 42849, Note_on_c, 0, 67, 0
1, 42932, Note_on_c, 0, 59, 0
1, 42933, Note_on_c, 0, 67, 50
1, 43025, Note_on_c, 0, 55, 0
1, 43028, Note_on_c, 0, 59, 41
1, 43098, Note_on_c, 0, 67, 0
1, 43102, Note_on_c, 0, 59, 0
1, 43139, Note_on_c, 0, 55, 35
1, 43143, Note_on_c, 0, 74, 51
1, 43248, Note_on_c, 0, 59, 35
1, 43307, Note_on_c, 0, 59, 0
1, 43332, Note_on_c, 0, 67, 41
1, 43370, Note_on_c, 0, 74, 0
1, 43378, Note_on_c, 0, 55, 0
1, 43385, Note_on_c, 0, 78, 59
1, 43408, Note_on_c, 0, 59, 41
1, 43418, Note_on_c, 0, 67, 0
1, 43422, Note_on_c, 0, 78, 0
1, 43425, Note_on_c, 0, 76, 60
1, 43445, Note_on_c, 0, 76, 0
1, 43445, Note_on_c, 0, 74, 75
1, 43464, Note_on_c, 0, 59, 0
1, 43481, Note_on_c, 0, 74, 0
1, 43496, Note_on_c, 0, 86, 80
1, 43505, Note_on_c, 0, 55, 35
1, 43511, Note_on_c, 0, 86, 0
1, 43541, Note_on_c, 0, 55, 0
1, 43557, Note_on_c, 0, 57, 42
1, 43655, Note_on_c, 0, 57, 0
1, 43662, Note_on_c, 0, 66, 49
1, 43681, Note_on_c, 0, 84, 78
1, 43709, Note_on_c, 0, 84, 0
1, 43773, Note_on_c, 0, 57, 46
1, 43811, Note_on_c, 0, 66, 0
1, 43851, Note_on_c, 0, 57, 0
1, 43854, Note_on_c, 0, 83, 74
1, 43876, Note_on_c, 0, 83, 0
1, 43876, Note_on_c, 0, 55, 35
1, 43948, Note_on_c, 0, 60, 44
1, 44027, Note_on_c, 0, 60, 0
1, 44039, Note_on_c, 0, 66, 46
1, 44039, Note_on_c, 0, 81, 66
1, 44052, Note_on_c, 0, 55, 0
1, 44057, Note_on_c, 0, 81, 0
1, 44128, Note_on_c, 0, 60, 37
1, 44135, Note_on_c, 0, 66, 0
1, 44213, Note_on_c, 0, 60, 0
1, 44218, Note_on_c, 0, 79, 62
1, 44240, Note_on_c, 0, 55, 35
1, 44321, Note_on_c, 0, 59, 42
1, 44329, Note_on_c, 0, 79, 0
1, 44359, Note_on_c, 0, 55, 0
1, 44385, Note_on_c, 0, 59, 0
1, 44420, Note_on_c, 0, 67, 44
1, 44506, Note_on_c, 0, 59, 35
1, 44553, Note_on_c, 0, 67, 0
1, 44581, Note_on_c, 0, 59, 0
1, 44604, Note_on_c, 0, 55, 37
1, 44604, Note_on_c, 0, 74, 59
1, 44707, Note_on_c, 0, 59, 42
1, 44711, Note_on_c, 0, 55, 0
1, 44777, Note_on_c, 0, 59, 0
1, 44785, Note_on_c, 0, 67, 48
1, 44814, Note_on_c, 0, 74, 0
1, 44847, Note_on_c, 0, 78, 55
1, 44854, Note_on_c, 0, 59, 47
1, 44870, Note_on_c, 0, 67, 0
1, 44880, Note_on_c, 0, 76, 60
1, 44885, Note_on_c, 0, 78, 0
1, 44903, Note_on_c, 0, 76, 0
1, 44906, Note_on_c, 0, 74, 72
1, 44936, Note_on_c, 0, 59, 0
1, 44940, Note_on_c, 0, 74, 0
1, 44953, Note_on_c, 0, 86, 84
1, 44960, Note_on_c, 0, 55, 41
1, 44968, Note_on_c, 0, 86, 0
1, 45019, Note_on_c, 0, 55, 0
1, 45042, Note_on_c, 0, 57, 48
1, 45136, Note_on_c, 0, 57, 0
1, 45136, Note_on_c, 0, 84, 77
1, 45145, Note_on_c, 0, 66, 51
1, 45160, Note_on_c, 0, 84, 0
1, 45237, Note_on_c, 0, 57, 42
1, 45268, Note_on_c, 0, 66, 0
1, 45318, Note_on_c, 0, 57, 0
1, 45318, Note_on_c, 0, 83, 67
1, 45329, Note_on_c, 0, 55, 36
1, 45336, Note_on_c, 0, 83, 0
1, 45411, Note_on_c, 0, 60, 42
1, 45451, Note_on_c, 0, 55, 0
1, 45486, Note_on_c, 0, 60, 0
1, 45499, Note_on_c, 0, 66, 48
1, 45499, Note_on_c, 0, 81, 59
1, 45520, Note_on_c, 0, 81, 0
1, 45583, Note_on_c, 0, 60, 38
1, 45600, Note_on_c, 0, 66, 0
1, 45681, Note_on_c, 0, 60, 0
1, 45685, Note_on_c, 0, 79, 53
1, 45698, Note_on_c, 0, 55, 35
1, 45777, Note_on_c, 0, 79, 0
1, 45784, Note_on_c, 0, 59, 36
1, 45864, Note_on_c, 0, 59, 0
1, 45880, Note_on_c, 0, 55, 0
1, 45882, Note_on_c, 0, 67, 48
1, 45965, Note_on_c, 0, 59, 41
1, 45992, Note_on_c, 0, 74, 60
1, 45998, Note_on_c, 0, 67, 0
1, 46020, Note_on_c, 0, 59, 0
1, 46031, Note_on_c, 0, 86, 84
1, 46038, Note_on_c, 0, 74, 0
1, 46051, Note_on_c, 0, 55, 46
1, 46162, Note_on_c, 0, 60, 35
1, 46222, Note_on_c, 0, 60, 0
1, 46245, Note_on_c, 0, 66, 52
1, 46246, Note_on_c, 0, 86, 0
1, 46246, Note_on_c, 0, 55, 0
1, 46315, Note_on_c, 0, 84, 56
1, 46320, Note_on_c, 0, 66, 0
1, 46335, Note_on_c, 0, 84, 0
1, 46340, Note_on_c, 0, 60, 35
1, 46342, Note_on_c, 0, 83, 66
1, 46368, Note_on_c, 0, 81, 62
1, 46388, Note_on_c, 0, 83, 0
1, 46425, Note_on_c, 0, 81, 0
1, 46425, Note_on_c, 0, 79, 62
1, 46433, Note_on_c, 0, 60, 0
1, 46433, Note_on_c, 0, 55, 35
1, 46491, Note_on_c, 0, 79, 0
1, 46522, Note_on_c, 0, 59, 39
1, 46538, Note_on_c, 0, 55, 0
1, 46584, Note_on_c, 0, 59, 0
1, 46619, Note_on_c, 0, 67, 48
1, 46710, Note_on_c, 0, 59, 38
1, 46748, Note_on_c, 0, 74, 57
1, 46749, Note_on_c, 0, 67, 0
1, 46778, Note_on_c, 0, 59, 0
1, 46801, Note_on_c, 0, 86, 77
1, 46805, Note_on_c, 0, 55, 39
1, 46829, Note_on_c, 0, 74, 0
1, 46909, Note_on_c, 0, 60, 39
1, 46992, Note_on_c, 0, 60, 0
1, 47004, Note_on_c, 0, 66, 48
1, 47007, Note_on_c, 0, 86, 0
1, 47088, Note_on_c, 0, 66, 0
1, 47088, Note_on_c, 0, 84, 60
1, 47093, Note_on_c, 0, 60, 39
1, 47123, Note_on_c, 0, 84, 0
1, 47123, Note_on_c, 0, 83, 66
1, 47145, Note_on_c, 0, 81, 60
1, 47166, Note_on_c, 0, 60, 0
1, 47169, Note_on_c, 0, 55, 0
1, 47191, Note_on_c, 0, 83, 0
1, 47194, Note_on_c, 0, 59, 36
1, 47196, Note_on_c, 0, 79, 69
1, 47198, Note_on_c, 0, 67, 41
1, 47204, Note_on_c, 0, 81, 0
1, 47218, Note_on_c, 0, 79, 0
1, 47272, Note_on_c, 0, 67, 0
1, 47347, Note_on_c, 0, 59, 0
1, 47402, Note_on_c, 0, 62, 70
1, 47548, Note_on_c, 0, 67, 63
1, 47564, Note_on_c, 0, 62, 0
1, 47597, Note_on_c, 0, 71, 73
1, 47604, Note_on_c, 0, 67, 0
1, 47624, Note_on_c, 0, 71, 0
1, 47790, Note_on_c, 0, 69, 55
1, 47795, Note_on_c, 0, 60, 46
1, 47813, Note_on_c, 0, 50, 35
1, 47823, Note_on_c, 0, 69, 0
1, 47827, Note_on_c, 0, 60, 0
1, 47840, Note_on_c, 0, 50, 0
1, 48011, Note_on_c, 0, 60, 35
1, 48017, Note_on_c, 0, 69, 48
1, 48024, Note_on_c, 0, 55, 40
1, 48052, Note_on_c, 0, 55, 0
1, 48250, Note_on_c, 0, 50, 42
1, 48286, Note_on_c, 0, 50, 0
1, 48343, Note_on_c, 0, 60, 0
1, 48513, Note_on_c, 0, 67, 37
1, 48527, Note_on_c, 0, 43, 35
1, 48536, Note_on_c, 0, 59, 35
1, 48606, Note_on_c, 0, 69, 0
1, 48696, Note_on_c, 0, 43, 0
1, 48699, Note_on_c, 0, 59, 0
1, 48784, Note_on_c, 0, 67, 0
1, 49063, Note_on_c, 0, 76, 41
1, 49263, Note_on_c, 0, 48, 46
1, 49290, Note_on_c, 0, 48, 0
1, 49376, Note_on_c, 0, 77, 55
1, 49402, Note_on_c, 0, 76, 0
1, 49412, Note_on_c, 0, 79, 56
1, 49446, Note_on_c, 0, 72, 61
1, 49452, Note_on_c, 0, 52, 45
1, 49462, Note_on_c, 0, 77, 0
1, 49463, Note_on_c, 0, 72, 0
1, 49473, Note_on_c, 0, 52, 0
1, 49473, Note_on_c, 0, 79, 0
1, 49628, Note_on_c, 0, 74, 60
1, 49631, Note_on_c, 0, 71, 56
1, 49635, Note_on_c, 0, 55, 43
1, 49650, Note_on_c, 0, 71, 0
1, 49650, Note_on_c, 0, 74, 0
1, 49658, Note_on_c, 0, 55, 0
1, 49822, Note_on_c, 0, 74, 65
1, 49823, Note_on_c, 0, 60, 51
1, 49827, Note_on_c, 0, 71, 56
1, 49860, Note_on_c, 0, 60, 0
1, 49943, Note_on_c, 0, 71, 0
1, 49996, Note_on_c, 0, 74, 0
1, 50004, Note_on_c, 0, 77, 66
1, 50010, Note_on_c, 0, 48, 49
1, 50026, Note_on_c, 0, 72, 50
1, 50038, Note_on_c, 0, 48, 0
1, 50048, Note_on_c, 0, 76, 58
1, 50060, Note_on_c, 0, 77, 0
1, 50096, Note_on_c, 0, 72, 0
1, 50175, Note_on_c, 0, 76, 0
1, 50196, Note_on_c, 0, 74, 45
1, 50207, Note_on_c, 0, 55, 48
1, 50207, Note_on_c, 0, 71, 45
1, 50234, Note_on_c, 0, 55, 0
1, 50394, Note_on_c, 0, 43, 40
1, 50423, Note_on_c, 0, 43, 0
1, 50491, Note_on_c, 0, 71, 0
1, 50602, Note_on_c, 0, 76, 75
1, 50667, Note_on_c, 0, 74, 0
1, 50789, Note_on_c, 0, 48, 52
1, 50824, Note_on_c, 0, 48, 0
1, 50902, Note_on_c, 0, 77, 58
1, 50929, Note_on_c, 0, 76, 0
1, 50939, Note_on_c, 0, 79, 63
1, 50965, Note_on_c, 0, 52, 64
1, 50972, Note_on_c, 0, 72, 68
1, 50980, Note_on_c, 0, 79, 0
1, 50987, Note_on_c, 0, 52, 0
1, 50989, Note_on_c, 0, 77, 0
1, 50991, Note_on_c, 0, 72, 0
1, 51148, Note_on_c, 0, 74, 71
1, 51151, Note_on_c, 0, 55, 67
1, 51161, Note_on_c, 0, 71, 42
1, 51166, Note_on_c, 0, 74, 0
1, 51168, Note_on_c, 0, 55, 0
1, 51181, Note_on_c, 0, 71, 0
1, 51335, Note_on_c, 0, 60, 61
1, 51337, Note_on_c, 0, 74, 66
1, 51337, Note_on_c, 0, 77, 75
1, 51358, Note_on_c, 0, 60, 0
1, 51418, Note_on_c, 0, 74, 0
1, 51479, Note_on_c, 0, 77, 0
1, 51510, Note_on_c, 0, 48, 57
1, 51519, Note_on_c, 0, 76, 58
1, 51523, Note_on_c, 0, 72, 57
1, 51532, Note_on_c, 0, 76, 0
1, 51536, Note_on_c, 0, 77, 65
1, 51562, Note_on_c, 0, 72, 0
1, 51578, Note_on_c, 0, 48, 0
1, 51578, Note_on_c, 0, 76, 71
1, 51594, Note_on_c, 0, 77, 0
1, 51624, Note_on_c, 0, 76, 0
1, 51624, Note_on_c, 0, 74, 67
1, 51652, Note_on_c, 0, 74, 0
1, 51662, Note_on_c, 0, 76, 64
1, 51690, Note_on_c, 0, 55, 41
1, 51702, Note_on_c, 0, 71, 35
1, 51708, Note_on_c, 0, 76, 0
1, 51710, Note_on_c, 0, 74, 65
1, 51712, Note_on_c, 0, 55, 0
1, 51879, Note_on_c, 0, 43, 53
1, 51887, Note_on_c, 0, 74, 0
1, 51887, Note_on_c, 0, 71, 0
1, 51901, Note_on_c, 0, 43, 0
1, 52101, Note_on_c, 0, 77, 62
1, 52101, Note_on_c, 0, 57, 44
1, 52294, Note_on_c, 0, 60, 38
1, 52367, Note_on_c, 0, 77, 0
1, 52397, Note_on_c, 0, 79, 61
1, 52431, Note_on_c, 0, 77, 66
1, 52444, Note_on_c, 0, 60, 0
1, 52447, Note_on_c, 0, 79, 0
1, 52464, Note_on_c, 0, 76, 73
1, 52468, Note_on_c, 0, 55, 40
1, 52470, Note_on_c, 0, 77, 0
1, 52480, Note_on_c, 0, 76, 0
1, 52492, Note_on_c, 0, 57, 0
1, 52656, Note_on_c, 0, 76, 68
1, 52667, Note_on_c, 0, 60, 42
1, 52674, Note_on_c, 0, 76, 0
1, 52830, Note_on_c, 0, 60, 0
1, 52847, Note_on_c, 0, 81, 76
1, 52860, Note_on_c, 0, 53, 39
1, 52881, Note_on_c, 0, 55, 0
1, 53032, Note_on_c, 0, 60, 44
1, 53125, Note_on_c, 0, 83, 65
1, 53153, Note_on_c, 0, 81, 0
1, 53170, Note_on_c, 0, 84, 61
1, 53178, Note_on_c, 0, 83, 0
1, 53180, Note_on_c, 0, 60, 0
1, 53196, Note_on_c, 0, 79, 64
1, 53203, Note_on_c, 0, 52, 35
1, 53207, Note_on_c, 0, 84, 0
1, 53213, Note_on_c, 0, 79, 0
1, 53241, Note_on_c, 0, 53, 0
1, 53383, Note_on_c, 0, 79, 58
1, 53393, Note_on_c, 0, 60, 39
1, 53401, Note_on_c, 0, 79, 0
1, 53424, Note_on_c, 0, 60, 0
1, 53425, Note_on_c, 0, 52, 0
1, 53570, Note_on_c, 0, 79, 64
1, 53656, Note_on_c, 0, 77, 58
1, 53680, Note_on_c, 0, 77, 0
1, 53680, Note_on_c, 0, 79, 0
1, 53751, Note_on_c, 0, 77, 61
1, 53767, Note_on_c, 0, 59, 35
1, 53767, Note_on_c, 0, 67, 36
1, 53815, Note_on_c, 0, 77, 0
1, 53819, Note_on_c, 0, 67, 0
1, 53819, Note_on_c, 0, 59, 0
1, 53835, Note_on_c, 0, 74, 59
1, 53870, Note_on_c, 0, 74, 0
1, 53933, Note_on_c, 0, 77, 66
1, 54009, Note_on_c, 0, 76, 51
1, 54041, Note_on_c, 0, 76, 0
1, 54041, Note_on_c, 0, 77, 0
1, 54101, Note_on_c, 0, 76, 64
1, 54109, Note_on_c, 0, 60, 42
1, 54112, Note_on_c, 0, 67, 42
1, 54132, Note_on_c, 0, 67, 0
1, 54132, Note_on_c, 0, 60, 0
1, 54159, Note_on_c, 0, 76, 0
1, 54182, Note_on_c, 0, 72, 65
1, 54265, Note_on_c, 0, 72, 0
1, 54275, Note_on_c, 0, 73, 70
1, 54279, Note_on_c, 0, 59, 40
1, 54287, Note_on_c, 0, 55, 35
1, 54362, Note_on_c, 0, 74, 72
1, 54385, Note_on_c, 0, 73, 0
1, 54445, Note_on_c, 0, 76, 79
1, 54469, Note_on_c, 0, 74, 0
1, 54499, Note_on_c, 0, 76, 0
1, 54536, Note_on_c, 0, 74, 73
1, 54572, Note_on_c, 0, 74, 0
1, 54617, Note_on_c, 0, 72, 74
1, 54653, Note_on_c, 0, 72, 0
1, 54691, Note_on_c, 0, 59, 0
1, 54702, Note_on_c, 0, 71, 73
1, 54708, Note_on_c, 0, 55, 0
1, 54718, Note_on_c, 0, 71, 0
1, 54783, Note_on_c, 0, 69, 68
1, 54804, Note_on_c, 0, 69, 0
1, 54882, Note_on_c, 0, 67, 47
1, 54899, Note_on_c, 0, 67, 0
1, 54968, Note_on_c, 0, 76, 83
1, 54969, Note_on_c, 0, 36, 67
1, 54995, Note_on_c, 0, 36, 0
1, 55058, Note_on_c, 0, 40, 63
1, 55076, Note_on_c, 0, 40, 0
1, 55135, Note_on_c, 0, 43, 69
1, 55155, Note_on_c, 0, 43, 0
1, 55218, Note_on_c, 0, 77, 57
1, 55224, Note_on_c, 0, 48, 60
1, 55234, Note_on_c, 0, 76, 0
1, 55246, Note_on_c, 0, 48, 0
1, 55264, Note_on_c, 0, 79, 74
1, 55289, Note_on_c, 0, 77, 0
1, 55292, Note_on_c, 0, 72, 68
1, 55297, Note_on_c, 0, 40, 71
1, 55305, Note_on_c, 0, 79, 0
1, 55307, Note_on_c, 0, 72, 0
1, 55315, Note_on_c, 0, 40, 0
1, 55391, Note_on_c, 0, 52, 61
1, 55410, Note_on_c, 0, 52, 0
1, 55471, Note_on_c, 0, 74, 67
1, 55471, Note_on_c, 0, 43, 69
1, 55472, Note_on_c, 0, 71, 67
1, 55491, Note_on_c, 0, 43, 0
1, 55491, Note_on_c, 0, 74, 0
1, 55493, Note_on_c, 0, 71, 0
1, 55558, Note_on_c, 0, 55, 66
1, 55578, Note_on_c, 0, 55, 0
1, 55641, Note_on_c, 0, 74, 78
1, 55647, Note_on_c, 0, 71, 70
1, 55657, Note_on_c, 0, 48, 71
1, 55671, Note_on_c, 0, 48, 0
1, 55722, Note_on_c, 0, 52, 72
1, 55733, Note_on_c, 0, 71, 0
1, 55744, Note_on_c, 0, 52, 0
1, 55770, Note_on_c, 0, 74, 0
1, 55806, Note_on_c, 0, 77, 76
1, 55811, Note_on_c, 0, 55, 68
1, 55825, Note_on_c, 0, 72, 58
1, 55841, Note_on_c, 0, 55, 0
1, 55841, Note_on_c, 0, 76, 71
1, 55860, Note_on_c, 0, 77, 0
1, 55880, Note_on_c, 0, 60, 64
1, 55890, Note_on_c, 0, 72, 0
1, 55900, Note_on_c, 0, 60, 0
1, 55980, Note_on_c, 0, 43, 67
1, 55984, Note_on_c, 0, 74, 72
1, 55985, Note_on_c, 0, 76, 0
1, 55987, Note_on_c, 0, 71, 64
1, 55997, Note_on_c, 0, 43, 0
1, 56064, Note_on_c, 0, 47, 64
1, 56088, Note_on_c, 0, 47, 0
1, 56157, Note_on_c, 0, 50, 58
1, 56184, Note_on_c, 0, 50, 0
1, 56240, Note_on_c, 0, 55, 59
1, 56259, Note_on_c, 0, 55, 0
1, 56280, Note_on_c, 0, 74, 0
1, 56293, Note_on_c, 0, 71, 0
1, 56329, Note_on_c, 0, 76, 83
1, 56339, Note_on_c, 0, 36, 71
1, 56360, Note_on_c, 0, 36, 0
1, 56424, Note_on_c, 0, 40, 69
1, 56448, Note_on_c, 0, 40, 0
1, 56507, Note_on_c, 0, 43, 77
1, 56531, Note_on_c, 0, 43, 0
1, 56596, Note_on_c, 0, 48, 59
1, 56606, Note_on_c, 0, 77, 64
1, 56616, Note_on_c, 0, 48, 0
1, 56617, Note_on_c, 0, 76, 0
1, 56636, Note_on_c, 0, 79, 72
1, 56669, Note_on_c, 0, 40, 71
1, 56679, Note_on_c, 0, 72, 65
1, 56680, Note_on_c, 0, 77, 0
1, 56683, Note_on_c, 0, 79, 0
1, 56686, Note_on_c, 0, 40, 0
1, 56697, Note_on_c, 0, 72, 0
1, 56755, Note_on_c, 0, 52, 65
1, 56774, Note_on_c, 0, 52, 0
1, 56844, Note_on_c, 0, 74, 69
1, 56848, Note_on_c, 0, 71, 70
1, 56850, Note_on_c, 0, 43, 64
1, 56867, Note_on_c, 0, 43, 0
1, 56876, Note_on_c, 0, 71, 0
1, 56876, Note_on_c, 0, 74, 0
1, 56933, Note_on_c, 0, 55, 62
1, 56956, Note_on_c, 0, 55, 0
1, 57019, Note_on_c, 0, 77, 78
1, 57019, Note_on_c, 0, 74, 76
1, 57026, Note_on_c, 0, 48, 75
1, 57043, Note_on_c, 0, 48, 0
1, 57106, Note_on_c, 0, 52, 75
1, 57126, Note_on_c, 0, 52, 0
1, 57128, Note_on_c, 0, 74, 0
1, 57155, Note_on_c, 0, 77, 0
1, 57195, Note_on_c, 0, 76, 75
1, 57196, Note_on_c, 0, 55, 72
1, 57197, Note_on_c, 0, 72, 66
1, 57216, Note_on_c, 0, 55, 0
1, 57216, Note_on_c, 0, 76, 0
1, 57222, Note_on_c, 0, 77, 66
1, 57242, Note_on_c, 0, 72, 0
1, 57265, Note_on_c, 0, 76, 69
1, 57271, Note_on_c, 0, 60, 55
1, 57276, Note_on_c, 0, 77, 0
1, 57288, Note_on_c, 0, 60, 0
1, 57296, Note_on_c, 0, 74, 72
1, 57297, Note_on_c, 0, 76, 0
1, 57319, Note_on_c, 0, 74, 0
1, 57329, Note_on_c, 0, 76, 53
1, 57359, Note_on_c, 0, 71, 47
1, 57361, Note_on_c, 0, 74, 78
1, 57361, Note_on_c, 0, 43, 73
1, 57381, Note_on_c, 0, 76, 0
1, 57386, Note_on_c, 0, 43, 0
1, 57449, Note_on_c, 0, 47, 73
1, 57472, Note_on_c, 0, 47, 0
1, 57537, Note_on_c, 0, 50, 68
1, 57543, Note_on_c, 0, 71, 0
1, 57548, Note_on_c, 0, 74, 0
1, 57558, Note_on_c, 0, 50, 0
1, 57625, Note_on_c, 0, 55, 59
1, 57651, Note_on_c, 0, 55, 0
1, 57726, Note_on_c, 0, 77, 70
1, 57732, Note_on_c, 0, 57, 50
1, 57786, Note_on_c, 0, 57, 0
1, 57824, Note_on_c, 0, 60, 54
1, 57846, Note_on_c, 0, 60, 0
1, 57899, Note_on_c, 0, 57, 57
1, 57925, Note_on_c, 0, 57, 0
1, 57958, Note_on_c, 0, 77, 0
1, 57988, Note_on_c, 0, 79, 60
1, 57989, Note_on_c, 0, 60, 62
1, 58013, Note_on_c, 0, 60, 0
1, 58021, Note_on_c, 0, 77, 75
1, 58040, Note_on_c, 0, 79, 0
1, 58056, Note_on_c, 0, 76, 81
1, 58066, Note_on_c, 0, 77, 0
1, 58066, Note_on_c, 0, 55, 65
1, 58079, Note_on_c, 0, 76, 0
1, 58085, Note_on_c, 0, 55, 0
1, 58152, Note_on_c, 0, 60, 70
1, 58178, Note_on_c, 0, 60, 0
1, 58242, Note_on_c, 0, 76, 79
1, 58245, Note_on_c, 0, 55, 68
1, 58262, Note_on_c, 0, 76, 0
1, 58265, Note_on_c, 0, 55, 0
1, 58322, Note_on_c, 0, 60, 75
1, 58345, Note_on_c, 0, 60, 0
1, 58411, Note_on_c, 0, 81, 83
1, 58424, Note_on_c, 0, 53, 70
1, 58443, Note_on_c, 0, 53, 0
1, 58506, Note_on_c, 0, 60, 76
1, 58532, Note_on_c, 0, 60, 0
1, 58589, Note_on_c, 0, 53, 75
1, 58617, Note_on_c, 0, 53, 0
1, 58678, Note_on_c, 0, 83, 75
1, 58680, Note_on_c, 0, 60, 72
1, 58690, Note_on_c, 0, 81, 0
1, 58698, Note_on_c, 0, 60, 0
1, 58704, Note_on_c, 0, 84, 70
1, 58725, Note_on_c, 0, 83, 0
1, 58753, Note_on_c, 0, 79, 79
1, 58758, Note_on_c, 0, 52, 79
1, 58775, Note_on_c, 0, 84, 0
1, 58778, Note_on_c, 0, 52, 0
1, 58784, Note_on_c, 0, 79, 0
1, 58844, Note_on_c, 0, 60, 76
1, 58867, Note_on_c, 0, 60, 0
1, 58932, Note_on_c, 0, 79, 75
1, 58937, Note_on_c, 0, 52, 79
1, 58954, Note_on_c, 0, 79, 0
1, 58967, Note_on_c, 0, 52, 0
1, 59015, Note_on_c, 0, 60, 70
1, 59034, Note_on_c, 0, 60, 0
1, 59113, Note_on_c, 0, 80, 87
1, 59190, Note_on_c, 0, 81, 79
1, 59211, Note_on_c, 0, 80, 0
1, 59224, Note_on_c, 0, 81, 0
1, 59274, Note_on_c, 0, 77, 84
1, 59287, Note_on_c, 0, 62, 71
1, 59287, Note_on_c, 0, 53, 53
1, 59307, Note_on_c, 0, 62, 0
1, 59308, Note_on_c, 0, 53, 0
1, 59309, Note_on_c, 0, 77, 0
1, 59360, Note_on_c, 0, 74, 73
1, 59392, Note_on_c, 0, 74, 0
1, 59456, Note_on_c, 0, 64, 70
1, 59456, Note_on_c, 0, 72, 78
1, 59463, Note_on_c, 0, 55, 60
1, 59647, Note_on_c, 0, 64, 0
1, 59648, Note_on_c, 0, 71, 69
1, 59651, Note_on_c, 0, 62, 62
1, 59657, Note_on_c, 0, 72, 0
1, 59777, Note_on_c, 0, 71, 0
1, 59810, Note_on_c, 0, 62, 0
1, 59817, Note_on_c, 0, 55, 0
1, 59828, Note_on_c, 0, 72, 70
1, 59837, Note_on_c, 0, 60, 46
1, 59839, Note_on_c, 0, 64, 48
1, 59873, Note_on_c, 0, 72, 0
1, 59880, Note_on_c, 0, 67, 70
1, 59903, Note_on_c, 0, 67, 0
1, 59946, Note_on_c, 0, 76, 69
1, 59964, Note_on_c, 0, 76, 0
1, 59996, Note_on_c, 0, 72, 78
1, 60027, Note_on_c, 0, 72, 0
1, 60054, Note_on_c, 0, 64, 0
1, 60054, Note_on_c, 0, 79, 72
1, 60074, Note_on_c, 0, 79, 0
1, 60074, Note_on_c, 0, 60, 0
1, 60115, Note_on_c, 0, 76, 71
1, 60132, Note_on_c, 0, 76, 0
1, 60175, Note_on_c, 0, 84, 82
1, 60226, Note_on_c, 0, 83, 78
1, 60264, Note_on_c, 0, 84, 0
1, 60279, Note_on_c, 0, 81, 77
1, 60301, Note_on_c, 0, 83, 0
1, 60336, Note_on_c, 0, 79, 79
1, 60346, Note_on_c, 0, 81, 0
1, 60379, Note_on_c, 0, 79, 0
1, 60387, Note_on_c, 0, 77, 73
1, 60412, Note_on_c, 0, 77, 0
1, 60449, Note_on_c, 0, 76, 57
1, 60492, Note_on_c, 0, 76, 0
1, 60497, Note_on_c, 0, 73, 81
1, 60535, Note_on_c, 0, 73, 0
1, 60558, Note_on_c, 0, 74, 71
1, 60603, Note_on_c, 0, 74, 0
1, 60618, Note_on_c, 0, 77, 68
1, 60651, Note_on_c, 0, 77, 0
1, 60663, Note_on_c, 0, 81, 77
1, 60669, Note_on_c, 0, 53, 57
1, 60670, Note_on_c, 0, 62, 65
1, 60670, Note_on_c, 0, 57, 53
1, 60689, Note_on_c, 0, 57, 0
1, 60689, Note_on_c, 0, 62, 0
1, 60691, Note_on_c, 0, 53, 0
1, 60723, Note_on_c, 0, 77, 72
1, 60732, Note_on_c, 0, 81, 0
1, 60769, Note_on_c, 0, 74, 59
1, 60776, Note_on_c, 0, 77, 0
1, 60830, Note_on_c, 0, 79, 75
1, 60832, Note_on_c, 0, 64, 75
1, 60833, Note_on_c, 0, 55, 67
1, 60833, Note_on_c, 0, 60, 70
1, 60845, Note_on_c, 0, 74, 0
1, 60855, Note_on_c, 0, 64, 0
1, 60883, Note_on_c, 0, 76, 73
1, 60895, Note_on_c, 0, 79, 0
1, 60910, Note_on_c, 0, 60, 0
1, 60953, Note_on_c, 0, 72, 68
1, 60954, Note_on_c, 0, 76, 0
1, 61008, Note_on_c, 0, 65, 69
1, 61008, Note_on_c, 0, 77, 75
1, 61016, Note_on_c, 0, 62, 60
1, 61017, Note_on_c, 0, 72, 0
1, 61033, Note_on_c, 0, 55, 0
1, 61066, Note_on_c, 0, 74, 69
1, 61069, Note_on_c, 0, 65, 0
1, 61076, Note_on_c, 0, 77, 0
1, 61122, Note_on_c, 0, 71, 71
1, 61123, Note_on_c, 0, 74, 0
1, 61145, Note_on_c, 0, 71, 0
1, 61145, Note_on_c, 0, 62, 0
1, 61182, Note_on_c, 0, 72, 80
1, 61188, Note_on_c, 0, 60, 66
1, 61189, Note_on_c, 0, 64, 65
1, 61209, Note_on_c, 0, 64, 0
1, 61238, Note_on_c, 0, 72, 0
1, 61243, Note_on_c, 0, 67, 75
1, 61248, Note_on_c, 0, 60, 0
1, 61263, Note_on_c, 0, 67, 0
1, 61302, Note_on_c, 0, 76, 83
1, 61326, Note_on_c, 0, 76, 0
1, 61351, Note_on_c, 0, 72, 78
1, 61376, Note_on_c, 0, 72, 0
1, 61416, Note_on_c, 0, 79, 75
1, 61439, Note_on_c, 0, 79, 0
1, 61466, Note_on_c, 0, 76, 79
1, 61482, Note_on_c, 0, 76, 0
1, 61529, Note_on_c, 0, 84, 91
1, 61579, Note_on_c, 0, 83, 86
1, 61602, Note_on_c, 0, 84, 0
1, 61635, Note_on_c, 0, 81, 79
1, 61658, Note_on_c, 0, 83, 0
1, 61688, Note_on_c, 0, 79, 83
1, 61701, Note_on_c, 0, 81, 0
1, 61733, Note_on_c, 0, 79, 0
1, 61741, Note_on_c, 0, 77, 75
1, 61769, Note_on_c, 0, 77, 0
1, 61796, Note_on_c, 0, 76, 62
1, 61841, Note_on_c, 0, 76, 0
1, 61846, Note_on_c, 0, 73, 85
1, 61884, Note_on_c, 0, 73, 0
1, 61904, Note_on_c, 0, 74, 72
1, 61959, Note_on_c, 0, 74, 0
1, 61959, Note_on_c, 0, 77, 75
1, 61995, Note_on_c, 0, 77, 0
1, 62012, Note_on_c, 0, 81, 81
1, 62020, Note_on_c, 0, 57, 65
1, 62023, Note_on_c, 0, 62, 71
1, 62025, Note_on_c, 0, 53, 56
1, 62043, Note_on_c, 0, 62, 0
1, 62043, Note_on_c, 0, 57, 0
1, 62045, Note_on_c, 0, 53, 0
1, 62075, Note_on_c, 0, 77, 73
1, 62083, Note_on_c, 0, 81, 0
1, 62124, Note_on_c, 0, 74, 61
1, 62131, Note_on_c, 0, 77, 0
1, 62181, Note_on_c, 0, 55, 73
1, 62182, Note_on_c, 0, 60, 72
1, 62182, Note_on_c, 0, 64, 74
1, 62183, Note_on_c, 0, 74, 0
1, 62185, Note_on_c, 0, 79, 75
1, 62202, Note_on_c, 0, 64, 0
1, 62202, Note_on_c, 0, 60, 0
1, 62241, Note_on_c, 0, 76, 79
1, 62251, Note_on_c, 0, 79, 0
1, 62305, Note_on_c, 0, 76, 0
1, 62305, Note_on_c, 0, 72, 71
1, 62338, Note_on_c, 0, 72, 0
1, 62354, Note_on_c, 0, 65, 78
1, 62360, Note_on_c, 0, 77, 78
1, 62363, Note_on_c, 0, 62, 65
1, 62382, Note_on_c, 0, 55, 0
1, 62392, Note_on_c, 0, 65, 0
1, 62408, Note_on_c, 0, 74, 79
1, 62428, Note_on_c, 0, 77, 0
1, 62463, Note_on_c, 0, 71, 81
1, 62478, Note_on_c, 0, 74, 0
1, 62479, Note_on_c, 0, 62, 0
1, 62514, Note_on_c, 0, 71, 0
1, 62518, Note_on_c, 0, 72, 93
1, 62532, Note_on_c, 0, 60, 72
1, 62532, Note_on_c, 0, 64, 74
1, 62541, Note_on_c, 0, 72, 0
1, 62546, Note_on_c, 0, 64, 0
1, 62547, Note_on_c, 0, 60, 0
1, 62720, Note_on_c, 0, 67, 91
1, 62724, Note_on_c, 0, 55, 79
1, 62740, Note_on_c, 0, 55, 0
1, 62740, Note_on_c, 0, 67, 0
1, 62916, Note_on_c, 0, 60, 89
1, 62917, Note_on_c, 0, 36, 78
1, 62921, Note_on_c, 0, 48, 74
1, 62939, Note_on_c, 0, 48, 0
1, 62939, Note_on_c, 0, 36, 0
1, 62940, Note_on_c, 0, 60, 0
1, 63349, Note_on_c, 0, 76, 68
1, 63364, Note_on_c, 0, 60, 35
1, 63453, Note_on_c, 0, 67, 44
1, 63543, Note_on_c, 0, 67, 0
1, 63553, Note_on_c, 0, 66, 35
1, 63623, Note_on_c, 0, 67, 39
1, 63624, Note_on_c, 0, 60, 0
1, 63706, Note_on_c, 0, 60, 48
1, 63712, Note_on_c, 0, 76, 0
1, 63716, Note_on_c, 0, 66, 0
1, 63719, Note_on_c, 0, 67, 0
1, 63742, Note_on_c, 0, 77, 64
1, 63778, Note_on_c, 0, 76, 68
1, 63780, Note_on_c, 0, 77, 0
1, 63792, Note_on_c, 0, 67, 40
1, 63796, Note_on_c, 0, 76, 0
1, 63797, Note_on_c, 0, 74, 76
1, 63815, Note_on_c, 0, 60, 0
1, 63828, Note_on_c, 0, 67, 0
1, 63828, Note_on_c, 0, 76, 78
1, 63845, Note_on_c, 0, 74, 0
1, 63876, Note_on_c, 0, 79, 75
1, 63881, Note_on_c, 0, 62, 40
1, 63898, Note_on_c, 0, 76, 0
1, 63966, Note_on_c, 0, 77, 75
1, 63967, Note_on_c, 0, 67, 42
1, 64022, Note_on_c, 0, 62, 0
1, 64023, Note_on_c, 0, 79, 0
1, 64052, Note_on_c, 0, 64, 48
1, 64055, Note_on_c, 0, 67, 0
1, 64056, Note_on_c, 0, 76, 72
1, 64106, Note_on_c, 0, 77, 0
1, 64130, Note_on_c, 0, 67, 43
1, 64139, Note_on_c, 0, 64, 0
1, 64142, Note_on_c, 0, 74, 68
1, 64162, Note_on_c, 0, 76, 0
1, 64205, Note_on_c, 0, 74, 0
1, 64220, Note_on_c, 0, 72, 59
1, 64223, Note_on_c, 0, 67, 0
1, 64230, Note_on_c, 0, 65, 41
1, 64285, Note_on_c, 0, 65, 0
1, 64296, Note_on_c, 0, 72, 0
1, 64300, Note_on_c, 0, 67, 48
1, 64306, Note_on_c, 0, 71, 60
1, 64392, Note_on_c, 0, 71, 0
1, 64399, Note_on_c, 0, 67, 0
1, 64404, Note_on_c, 0, 72, 61
1, 64406, Note_on_c, 0, 64, 46
1, 64457, Note_on_c, 0, 64, 0
1, 64492, Note_on_c, 0, 67, 46
1, 64515, Note_on_c, 0, 72, 0
1, 64581, Note_on_c, 0, 73, 77
1, 64582, Note_on_c, 0, 67, 0
1, 64595, Note_on_c, 0, 58, 46
1, 64598, Note_on_c, 0, 73, 0
1, 64622, Note_on_c, 0, 58, 0
1, 64671, Note_on_c, 0, 67, 45
1, 64762, Note_on_c, 0, 67, 0
1, 64762, Note_on_c, 0, 74, 67
1, 64769, Note_on_c, 0, 59, 41
1, 64778, Note_on_c, 0, 74, 0
1, 64804, Note_on_c, 0, 59, 0
1, 64847, Note_on_c, 0, 67, 43
1, 64932, Note_on_c, 0, 67, 0
1, 64938, Note_on_c, 0, 75, 64
1, 64948, Note_on_c, 0, 59, 36
1, 64958, Note_on_c, 0, 75, 0
1, 64986, Note_on_c, 0, 59, 0
1, 65018, Note_on_c, 0, 67, 41
1, 65079, Note_on_c, 0, 67, 0
1, 65122, Note_on_c, 0, 76, 64
1, 65131, Note_on_c, 0, 60, 40
1, 65142, Note_on_c, 0, 76, 0
1, 65215, Note_on_c, 0, 67, 43
1, 65268, Note_on_c, 0, 60, 0
1, 65300, Note_on_c, 0, 79, 67
1, 65308, Note_on_c, 0, 67, 0
1, 65321, Note_on_c, 0, 62, 37
1, 65366, Note_on_c, 0, 62, 0
1, 65385, Note_on_c, 0, 77, 72
1, 65395, Note_on_c, 0, 67, 41
1, 65409, Note_on_c, 0, 79, 0
1, 65431, Note_on_c, 0, 77, 0
1, 65461, Note_on_c, 0, 67, 0
1, 65484, Note_on_c, 0, 76, 72
1, 65498, Note_on_c, 0, 60, 41
1, 65577, Note_on_c, 0, 67, 35
1, 65657, Note_on_c, 0, 66, 40
1, 65658, Note_on_c, 0, 67, 0
1, 65718, Note_on_c, 0, 60, 0
1, 65734, Note_on_c, 0, 76, 0
1, 65740, Note_on_c, 0, 67, 37
1, 65748, Note_on_c, 0, 66, 0
1, 65760, Note_on_c, 0, 77, 54
1, 65800, Note_on_c, 0, 76, 61
1, 65817, Note_on_c, 0, 67, 0
1, 65828, Note_on_c, 0, 77, 0
1, 65842, Note_on_c, 0, 76, 0
1, 65844, Note_on_c, 0, 74, 56
1, 65854, Note_on_c, 0, 59, 39
1, 65940, Note_on_c, 0, 67, 39
1, 65960, Note_on_c, 0, 74, 0
1, 66018, Note_on_c, 0, 67, 0
1, 66024, Note_on_c, 0, 66, 36
1, 66110, Note_on_c, 0, 67, 41
1, 66113, Note_on_c, 0, 59, 0
1, 66176, Note_on_c, 0, 66, 0
1, 66204, Note_on_c, 0, 77, 62
1, 66211, Note_on_c, 0, 67, 0
1, 66224, Note_on_c, 0, 59, 35
1, 66297, Note_on_c, 0, 67, 35
1, 66380, Note_on_c, 0, 67, 0
1, 66383, Note_on_c, 0, 66, 35
1, 66445, Note_on_c, 0, 59, 0
1, 66455, Note_on_c, 0, 67, 47
1, 66523, Note_on_c, 0, 77, 0
1, 66530, Note_on_c, 0, 66, 0
1, 66546, Note_on_c, 0, 59, 41
1, 66554, Note_on_c, 0, 67, 0
1, 66554, Note_on_c, 0, 79, 61
1, 66587, Note_on_c, 0, 77, 66
1, 66592, Note_on_c, 0, 79, 0
1, 66607, Note_on_c, 0, 77, 0
1, 66617, Note_on_c, 0, 76, 68
1, 66629, Note_on_c, 0, 67, 46
1, 66648, Note_on_c, 0, 77, 69
1, 66661, Note_on_c, 0, 76, 0
1, 66670, Note_on_c, 0, 59, 0
1, 66709, Note_on_c, 0, 81, 67
1, 66720, Note_on_c, 0, 67, 0
1, 66725, Note_on_c, 0, 77, 0
1, 66732, Note_on_c, 0, 60, 40
1, 66801, Note_on_c, 0, 79, 71
1, 66803, Note_on_c, 0, 67, 43
1, 66836, Note_on_c, 0, 81, 0
1, 66849, Note_on_c, 0, 60, 0
1, 66889, Note_on_c, 0, 77, 69
1, 66894, Note_on_c, 0, 67, 0
1, 66899, Note_on_c, 0, 62, 41
1, 66929, Note_on_c, 0, 79, 0
1, 66953, Note_on_c, 0, 62, 0
1, 66969, Note_on_c, 0, 76, 71
1, 66977, Note_on_c, 0, 67, 42
1, 66997, Note_on_c, 0, 77, 0
1, 67036, Note_on_c, 0, 76, 0
1, 67052, Note_on_c, 0, 74, 65
1, 67067, Note_on_c, 0, 64, 48
1, 67069, Note_on_c, 0, 67, 0
1, 67119, Note_on_c, 0, 64, 0
1, 67129, Note_on_c, 0, 74, 0
1, 67135, Note_on_c, 0, 72, 65
1, 67143, Note_on_c, 0, 67, 51
1, 67224, Note_on_c, 0, 72, 0
1, 67224, Note_on_c, 0, 71, 69
1, 67229, Note_on_c, 0, 67, 0
1, 67231, Note_on_c, 0, 65, 51
1, 67243, Note_on_c, 0, 71, 0
1, 67266, Note_on_c, 0, 65, 0
1, 67309, Note_on_c, 0, 72, 71
1, 67319, Note_on_c, 0, 67, 51
1, 67327, Note_on_c, 0, 72, 0
1, 67352, Note_on_c, 0, 67, 0
1, 67394, Note_on_c, 0, 74, 75
1, 67407, Note_on_c, 0, 62, 47
1, 67414, Note_on_c, 0, 74, 0
1, 67439, Note_on_c, 0, 62, 0
1, 67479, Note_on_c, 0, 76, 78
1, 67489, Note_on_c, 0, 67, 48
1, 67500, Note_on_c, 0, 76, 0
1, 67520, Note_on_c, 0, 67, 0
1, 67565, Note_on_c, 0, 77, 72
1, 67578, Note_on_c, 0, 59, 42
1, 67579, Note_on_c, 0, 77, 0
1, 67606, Note_on_c, 0, 59, 0
1, 67643, Note_on_c, 0, 79, 74
1, 67651, Note_on_c, 0, 67, 53
1, 67658, Note_on_c, 0, 79, 0
1, 67681, Note_on_c, 0, 67, 0
1, 67727, Note_on_c, 0, 81, 74
1, 67734, Note_on_c, 0, 62, 53
1, 67750, Note_on_c, 0, 81, 0
1, 67756, Note_on_c, 0, 62, 0
1, 67809, Note_on_c, 0, 83, 77
1, 67817, Note_on_c, 0, 67, 53
1, 67833, Note_on_c, 0, 83, 0
1, 67849, Note_on_c, 0, 67, 0
1, 67890, Note_on_c, 0, 84, 74
1, 67910, Note_on_c, 0, 84, 0
1, 67910, Note_on_c, 0, 59, 49
1, 67938, Note_on_c, 0, 59, 0
1, 67975, Note_on_c, 0, 86, 79
1, 67992, Note_on_c, 0, 86, 0
1, 67992, Note_on_c, 0, 67, 39
1, 68019, Note_on_c, 0, 67, 0
1, 68057, Note_on_c, 0, 88, 72
1, 68076, Note_on_c, 0, 88, 0
1, 68076, Note_on_c, 0, 55, 48
1, 68100, Note_on_c, 0, 55, 0
1, 68139, Note_on_c, 0, 89, 72
1, 68157, Note_on_c, 0, 89, 0
1, 68159, Note_on_c, 0, 67, 48
1, 68188, Note_on_c, 0, 67, 0
1, 68228, Note_on_c, 0, 87, 72
1, 68248, Note_on_c, 0, 60, 57
1, 68272, Note_on_c, 0, 60, 0
1, 68318, Note_on_c, 0, 67, 60
1, 68344, Note_on_c, 0, 67, 0
1, 68396, Note_on_c, 0, 64, 58
1, 68418, Note_on_c, 0, 64, 0
1, 68486, Note_on_c, 0, 67, 59
1, 68522, Note_on_c, 0, 67, 0
1, 68575, Note_on_c, 0, 88, 55
1, 68588, Note_on_c, 0, 60, 46
1, 68605, Note_on_c, 0, 87, 0
1, 68612, Note_on_c, 0, 60, 0
1, 68676, Note_on_c, 0, 67, 39
1, 68701, Note_on_c, 0, 67, 0
1, 68729, Note_on_c, 0, 88, 0
1, 68758, Note_on_c, 0, 64, 44
1, 68786, Note_on_c, 0, 64, 0
1, 68849, Note_on_c, 0, 67, 44
1, 68909, Note_on_c, 0, 67, 0
1, 68963, Note_on_c, 0, 76, 66
1, 68973, Note_on_c, 0, 60, 40
1, 69034, Note_on_c, 0, 60, 0
1, 69038, Note_on_c, 0, 64, 57
1, 69091, Note_on_c, 0, 64, 0
1, 69114, Note_on_c, 0, 69, 48
1, 69159, Note_on_c, 0, 69, 0
1, 69167, Note_on_c, 0, 72, 53
1, 69184, Note_on_c, 0, 72, 0
1, 69211, Note_on_c, 0, 81, 65
1, 69273, Note_on_c, 0, 84, 67
1, 69322, Note_on_c, 0, 84, 0
1, 69324, Note_on_c, 0, 88, 75
1, 69335, Note_on_c, 0, 81, 0
1, 69363, Note_on_c, 0, 76, 0
1, 69377, Note_on_c, 0, 84, 84
1, 69387, Note_on_c, 0, 88, 0
1, 69425, Note_on_c, 0, 84, 0
1, 69425, Note_on_c, 0, 81, 74
1, 69467, Note_on_c, 0, 81, 0
1, 69470, Note_on_c, 0, 84, 78
1, 69523, Note_on_c, 0, 81, 77
1, 69544, Note_on_c, 0, 84, 0
1, 69571, Note_on_c, 0, 76, 75
1, 69576, Note_on_c, 0, 81, 0
1, 69607, Note_on_c, 0, 76, 0
1, 69645, Note_on_c, 0, 59, 52
1, 69646, Note_on_c, 0, 74, 63
1, 69700, Note_on_c, 0, 59, 0
1, 69713, Note_on_c, 0, 62, 55
1, 69727, Note_on_c, 0, 74, 0
1, 69761, Note_on_c, 0, 67, 60
1, 69776, Note_on_c, 0, 62, 0
1, 69829, Note_on_c, 0, 71, 64
1, 69854, Note_on_c, 0, 67, 0
1, 69872, Note_on_c, 0, 71, 0
1, 69876, Note_on_c, 0, 79, 72
1, 69936, Note_on_c, 0, 83, 77
1, 69944, Note_on_c, 0, 79, 0
1, 69982, Note_on_c, 0, 83, 0
1, 69982, Note_on_c, 0, 86, 80
1, 70043, Note_on_c, 0, 83, 78
1, 70063, Note_on_c, 0, 86, 0
1, 70095, Note_on_c, 0, 79, 79
1, 70100, Note_on_c, 0, 83, 0
1, 70138, Note_on_c, 0, 79, 0
1, 70152, Note_on_c, 0, 83, 78
1, 70196, Note_on_c, 0, 79, 77
1, 70204, Note_on_c, 0, 83, 0
1, 70247, Note_on_c, 0, 79, 0
1, 70247, Note_on_c, 0, 74, 58
1, 70297, Note_on_c, 0, 74, 0
1, 70311, Note_on_c, 0, 62, 59
1, 70320, Note_on_c, 0, 57, 46
1, 70320, Note_on_c, 0, 54, 54
1, 70359, Note_on_c, 0, 54, 0
1, 70360, Note_on_c, 0, 62, 0
1, 70367, Note_on_c, 0, 74, 69
1, 70368, Note_on_c, 0, 57, 0
1, 70417, Note_on_c, 0, 81, 74
1, 70448, Note_on_c, 0, 74, 0
1, 70465, Note_on_c, 0, 81, 0
1, 70470, Note_on_c, 0, 84, 72
1, 70524, Note_on_c, 0, 81, 69
1, 70556, Note_on_c, 0, 84, 0
1, 70573, Note_on_c, 0, 81, 0
1, 70586, Note_on_c, 0, 74, 58
1, 70627, Note_on_c, 0, 74, 0
1, 70659, Note_on_c, 0, 62, 42
1, 70660, Note_on_c, 0, 55, 44
1, 70662, Note_on_c, 0, 59, 35
1, 70706, Note_on_c, 0, 74, 55
1, 70716, Note_on_c, 0, 62, 0
1, 70732, Note_on_c, 0, 59, 0
1, 70740, Note_on_c, 0, 55, 0
1, 70747, Note_on_c, 0, 79, 69
1, 70785, Note_on_c, 0, 79, 0
1, 70801, Note_on_c, 0, 83, 72
1, 70821, Note_on_c, 0, 74, 0
1, 70853, Note_on_c, 0, 79, 75
1, 70868, Note_on_c, 0, 83, 0
1, 70899, Note_on_c, 0, 79, 0
1, 70899, Note_on_c, 0, 74, 65
1, 70969, Note_on_c, 0, 81, 70
1, 70969, Note_on_c, 0, 50, 50
1, 70992, Note_on_c, 0, 74, 0
1, 71012, Note_on_c, 0, 50, 0
1, 71105, Note_on_c, 0, 62, 36
1, 71117, Note_on_c, 0, 81, 0
1, 71122, Note_on_c, 0, 78, 63
1, 71149, Note_on_c, 0, 62, 0
1, 71163, Note_on_c, 0, 74, 65
1, 71167, Note_on_c, 0, 61, 49
1, 71170, Note_on_c, 0, 78, 0
1, 71236, Note_on_c, 0, 61, 0
1, 71250, Note_on_c, 0, 62, 47
1, 71324, Note_on_c, 0, 74, 0
1, 71331, Note_on_c, 0, 61, 49
1, 71341, Note_on_c, 0, 62, 0
1, 71407, Note_on_c, 0, 61, 0
1, 71422, Note_on_c, 0, 62, 48
1, 71525, Note_on_c, 0, 60, 44
1, 71532, Note_on_c, 0, 62, 0
1, 71608, Note_on_c, 0, 62, 43
1, 71645, Note_on_c, 0, 60, 0
1, 71659, Note_on_c, 0, 67, 48
1, 71704, Note_on_c, 0, 79, 74
1, 71712, Note_on_c, 0, 62, 0
1, 71714, Note_on_c, 0, 59, 38
1, 71769, Note_on_c, 0, 67, 0
1, 71802, Note_on_c, 0, 62, 42
1, 71888, Note_on_c, 0, 59, 0
1, 71898, Note_on_c, 0, 62, 0
1, 71902, Note_on_c, 0, 55, 36
1, 71981, Note_on_c, 0, 62, 36
1, 72071, Note_on_c, 0, 59, 37
1, 72078, Note_on_c, 0, 62, 0
1, 72101, Note_on_c, 0, 55, 0
1, 72152, Note_on_c, 0, 62, 37
1, 72155, Note_on_c, 0, 78, 63
1, 72240, Note_on_c, 0, 76, 64
1, 72240, Note_on_c, 0, 55, 43
1, 72247, Note_on_c, 0, 59, 0
1, 72254, Note_on_c, 0, 62, 0
1, 72278, Note_on_c, 0, 79, 0
1, 72321, Note_on_c, 0, 74, 72
1, 72331, Note_on_c, 0, 76, 0
1, 72331, Note_on_c, 0, 62, 43
1, 72335, Note_on_c, 0, 55, 0
1, 72341, Note_on_c, 0, 78, 0
1, 72354, Note_on_c, 0, 74, 0
1, 72418, Note_on_c, 0, 74, 71
1, 72420, Note_on_c, 0, 62, 0
1, 72426, Note_on_c, 0, 57, 37
1, 72484, Note_on_c, 0, 57, 0
1, 72491, Note_on_c, 0, 72, 64
1, 72500, Note_on_c, 0, 62, 45
1, 72507, Note_on_c, 0, 74, 0
1, 72577, Note_on_c, 0, 71, 66
1, 72594, Note_on_c, 0, 55, 41
1, 72597, Note_on_c, 0, 62, 0
1, 72600, Note_on_c, 0, 72, 0
1, 72638, Note_on_c, 0, 55, 0
1, 72650, Note_on_c, 0, 71, 0
1, 72655, Note_on_c, 0, 69, 60
1, 72687, Note_on_c, 0, 62, 38
1, 72710, Note_on_c, 0, 69, 0
1, 72754, Note_on_c, 0, 74, 64
1, 72774, Note_on_c, 0, 62, 0
1, 72780, Note_on_c, 0, 74, 0
1, 72780, Note_on_c, 0, 54, 35
1, 72824, Note_on_c, 0, 54, 0
1, 72854, Note_on_c, 0, 62, 39
1, 72944, Note_on_c, 0, 62, 0
1, 72952, Note_on_c, 0, 72, 59
1, 72954, Note_on_c, 0, 50, 40
1, 72980, Note_on_c, 0, 72, 0
1, 72990, Note_on_c, 0, 50, 0
1, 73047, Note_on_c, 0, 62, 36
1, 73140, Note_on_c, 0, 62, 0
1, 73149, Note_on_c, 0, 70, 50
1, 73151, Note_on_c, 0, 55, 38
1, 73234, Note_on_c, 0, 62, 36
1, 73310, Note_on_c, 0, 62, 0
1, 73327, Note_on_c, 0, 71, 49
1, 73327, Note_on_c, 0, 61, 35
1, 73347, Note_on_c, 0, 70, 0
1, 73393, Note_on_c, 0, 55, 0
1, 73401, Note_on_c, 0, 62, 43
1, 73411, Note_on_c, 0, 61, 0
1, 73488, Note_on_c, 0, 62, 0
1, 73494, Note_on_c, 0, 61, 49
1, 73582, Note_on_c, 0, 61, 0
1, 73587, Note_on_c, 0, 62, 50
1, 73592, Note_on_c, 0, 71, 0
1, 73677, Note_on_c, 0, 62, 0
1, 73680, Note_on_c, 0, 64, 54
1, 73755, Note_on_c, 0, 64, 0
1, 73763, Note_on_c, 0, 62, 55
1, 73859, Note_on_c, 0, 60, 55
1, 73929, Note_on_c, 0, 62, 0
1, 73931, Note_on_c, 0, 62, 41
1, 73980, Note_on_c, 0, 60, 0
1, 74038, Note_on_c, 0, 59, 41
1, 74044, Note_on_c, 0, 62, 0
1, 74117, Note_on_c, 0, 62, 46
1, 74168, Note_on_c, 0, 59, 0
1, 74208, Note_on_c, 0, 60, 43
1, 74236, Note_on_c, 0, 62, 0
1, 74292, Note_on_c, 0, 62, 35
1, 74387, Note_on_c, 0, 57, 37
1, 74397, Note_on_c, 0, 62, 0
1, 74443, Note_on_c, 0, 60, 0
1, 74465, Note_on_c, 0, 62, 35
1, 74525, Note_on_c, 0, 67, 44
1, 74532, Note_on_c, 0, 57, 0
1, 74570, Note_on_c, 0, 79, 72
1, 74570, Note_on_c, 0, 59, 35
1, 74573, Note_on_c, 0, 62, 0
1, 74662, Note_on_c, 0, 62, 38
1, 74688, Note_on_c, 0, 67, 0
1, 74759, Note_on_c, 0, 55, 35
1, 74783, Note_on_c, 0, 62, 0
1, 74812, Note_on_c, 0, 59, 0
1, 74848, Note_on_c, 0, 62, 35
1, 74945, Note_on_c, 0, 59, 35
1, 74954, Note_on_c, 0, 62, 0
1, 74978, Note_on_c, 0, 55, 0
1, 75031, Note_on_c, 0, 78, 58
1, 75032, Note_on_c, 0, 62, 38
1, 75115, Note_on_c, 0, 55, 40
1, 75118, Note_on_c, 0, 76, 64
1, 75132, Note_on_c, 0, 62, 0
1, 75140, Note_on_c, 0, 59, 0
1, 75162, Note_on_c, 0, 79, 0
1, 75200, Note_on_c, 0, 62, 48
1, 75205, Note_on_c, 0, 74, 72
1, 75210, Note_on_c, 0, 55, 0
1, 75222, Note_on_c, 0, 76, 0
1, 75228, Note_on_c, 0, 78, 0
1, 75238, Note_on_c, 0, 74, 0
1, 75299, Note_on_c, 0, 74, 68
1, 75303, Note_on_c, 0, 62, 0
1, 75303, Note_on_c, 0, 57, 44
1, 75351, Note_on_c, 0, 57, 0
1, 75377, Note_on_c, 0, 72, 61
1, 75382, Note_on_c, 0, 74, 0
1, 75384, Note_on_c, 0, 62, 44
1, 75467, Note_on_c, 0, 71, 64
1, 75472, Note_on_c, 0, 72, 0
1, 75472, Note_on_c, 0, 55, 40
1, 75474, Note_on_c, 0, 62, 0
1, 75528, Note_on_c, 0, 71, 0
1, 75540, Note_on_c, 0, 55, 0
1, 75551, Note_on_c, 0, 69, 57
1, 75564, Note_on_c, 0, 62, 42
1, 75603, Note_on_c, 0, 69, 0
1, 75637, Note_on_c, 0, 74, 64
1, 75654, Note_on_c, 0, 62, 0
1, 75659, Note_on_c, 0, 74, 0
1, 75659, Note_on_c, 0, 54, 35
1, 75708, Note_on_c, 0, 54, 0
1, 75736, Note_on_c, 0, 62, 35
1, 75827, Note_on_c, 0, 72, 64
1, 75829, Note_on_c, 0, 62, 0
1, 75831, Note_on_c, 0, 50, 44
1, 75845, Note_on_c, 0, 72, 0
1, 75867, Note_on_c, 0, 50, 0
1, 75917, Note_on_c, 0, 62, 41
1, 76003, Note_on_c, 0, 62, 0
1, 76013, Note_on_c, 0, 71, 58
1, 76028, Note_on_c, 0, 55, 37
1, 76102, Note_on_c, 0, 62, 35
1, 76177, Note_on_c, 0, 71, 0
1, 76181, Note_on_c, 0, 59, 44
1, 76183, Note_on_c, 0, 62, 0
1, 76183, Note_on_c, 0, 55, 0
1, 76224, Note_on_c, 0, 59, 0
1, 76262, Note_on_c, 0, 62, 45
1, 76282, Note_on_c, 0, 76, 68
1, 76300, Note_on_c, 0, 76, 0
1, 76301, Note_on_c, 0, 62, 0
1, 76303, Note_on_c, 0, 78, 68
1, 76323, Note_on_c, 0, 78, 0
1, 76333, Note_on_c, 0, 76, 73
1, 76346, Note_on_c, 0, 55, 52
1, 76383, Note_on_c, 0, 76, 0
1, 76439, Note_on_c, 0, 64, 48
1, 76472, Note_on_c, 0, 78, 69
1, 76481, Note_on_c, 0, 55, 0
1, 76499, Note_on_c, 0, 64, 0
1, 76510, Note_on_c, 0, 78, 0
1, 76513, Note_on_c, 0, 79, 72
1, 76517, Note_on_c, 0, 60, 42
1, 76531, Note_on_c, 0, 79, 0
1, 76567, Note_on_c, 0, 60, 0
1, 76604, Note_on_c, 0, 64, 48
1, 76613, Note_on_c, 0, 79, 72
1, 76628, Note_on_c, 0, 79, 0
1, 76653, Note_on_c, 0, 64, 0
1, 76695, Note_on_c, 0, 79, 69
1, 76705, Note_on_c, 0, 55, 40
1, 76770, Note_on_c, 0, 79, 0
1, 76784, Note_on_c, 0, 62, 40
1, 76829, Note_on_c, 0, 62, 0
1, 76853, Note_on_c, 0, 55, 0
1, 76853, Note_on_c, 0, 59, 45
1, 76884, Note_on_c, 0, 59, 0
1, 76927, Note_on_c, 0, 62, 47
1, 76949, Note_on_c, 0, 81, 70
1, 76967, Note_on_c, 0, 81, 0
1, 76975, Note_on_c, 0, 62, 0
1, 76977, Note_on_c, 0, 83, 69
1, 77003, Note_on_c, 0, 83, 0
1, 77004, Note_on_c, 0, 81, 75
1, 77020, Note_on_c, 0, 53, 52
1, 77055, Note_on_c, 0, 81, 0
1, 77109, Note_on_c, 0, 60, 46
1, 77146, Note_on_c, 0, 83, 69
1, 77160, Note_on_c, 0, 60, 0
1, 77172, Note_on_c, 0, 53, 0
1, 77173, Note_on_c, 0, 57, 49
1, 77176, Note_on_c, 0, 83, 0
1, 77183, Note_on_c, 0, 84, 75
1, 77206, Note_on_c, 0, 84, 0
1, 77227, Note_on_c, 0, 57, 0
1, 77264, Note_on_c, 0, 60, 45
1, 77276, Note_on_c, 0, 84, 78
1, 77306, Note_on_c, 0, 84, 0
1, 77337, Note_on_c, 0, 60, 0
1, 77367, Note_on_c, 0, 52, 51
1, 77369, Note_on_c, 0, 84, 74
1, 77466, Note_on_c, 0, 60, 46
1, 77470, Note_on_c, 0, 84, 0
1, 77529, Note_on_c, 0, 52, 0
1, 77530, Note_on_c, 0, 60, 0
1, 77545, Note_on_c, 0, 55, 44
1, 77590, Note_on_c, 0, 55, 0
1, 77625, Note_on_c, 0, 60, 55
1, 77640, Note_on_c, 0, 84, 74
1, 77660, Note_on_c, 0, 84, 0
1, 77664, Note_on_c, 0, 60, 0
1, 77664, Note_on_c, 0, 86, 73
1, 77696, Note_on_c, 0, 86, 0
1, 77699, Note_on_c, 0, 84, 75
1, 77708, Note_on_c, 0, 48, 58
1, 77800, Note_on_c, 0, 84, 0
1, 77804, Note_on_c, 0, 55, 58
1, 77831, Note_on_c, 0, 48, 0
1, 77831, Note_on_c, 0, 86, 77
1, 77860, Note_on_c, 0, 86, 0
1, 77864, Note_on_c, 0, 55, 0
1, 77870, Note_on_c, 0, 52, 56
1, 77873, Note_on_c, 0, 88, 86
1, 77904, Note_on_c, 0, 88, 0
1, 77934, Note_on_c, 0, 52, 0
1, 77956, Note_on_c, 0, 55, 50
1, 77959, Note_on_c, 0, 88, 93
1, 77986, Note_on_c, 0, 88, 0
1, 77989, Note_on_c, 0, 55, 0
1, 78048, Note_on_c, 0, 50, 60
1, 78048, Note_on_c, 0, 88, 91
1, 78095, Note_on_c, 0, 88, 0
1, 78131, Note_on_c, 0, 86, 80
1, 78132, Note_on_c, 0, 59, 52
1, 78151, Note_on_c, 0, 86, 0
1, 78158, Note_on_c, 0, 50, 0
1, 78162, Note_on_c, 0, 59, 0
1, 78211, Note_on_c, 0, 84, 82
1, 78218, Note_on_c, 0, 55, 54
1, 78228, Note_on_c, 0, 84, 0
1, 78245, Note_on_c, 0, 55, 0
1, 78293, Note_on_c, 0, 59, 53
1, 78293, Note_on_c, 0, 83, 82
1, 78309, Note_on_c, 0, 83, 0
1, 78319, Note_on_c, 0, 59, 0
1, 78382, Note_on_c, 0, 81, 76
1, 78383, Note_on_c, 0, 50, 58
1, 78396, Note_on_c, 0, 81, 0
1, 78442, Note_on_c, 0, 50, 0
1, 78470, Note_on_c, 0, 60, 53
1, 78498, Note_on_c, 0, 60, 0
1, 78558, Note_on_c, 0, 86, 84
1, 78563, Note_on_c, 0, 54, 63
1, 78581, Note_on_c, 0, 86, 0
1, 78595, Note_on_c, 0, 54, 0
1, 78649, Note_on_c, 0, 60, 53
1, 78701, Note_on_c, 0, 60, 0
1, 78742, Note_on_c, 0, 84, 84
1, 78744, Note_on_c, 0, 55, 57
1, 78840, Note_on_c, 0, 62, 51
1, 78873, Note_on_c, 0, 62, 0
1, 78890, Note_on_c, 0, 55, 0
1, 78926, Note_on_c, 0, 83, 67
1, 78933, Note_on_c, 0, 59, 48
1, 78945, Note_on_c, 0, 84, 0
1, 78959, Note_on_c, 0, 83, 0
1, 78978, Note_on_c, 0, 59, 0
1, 79024, Note_on_c, 0, 62, 35
1, 79041, Note_on_c, 0, 76, 72
1, 79057, Note_on_c, 0, 76, 0
1, 79058, Note_on_c, 0, 62, 0
1, 79068, Note_on_c, 0, 78, 57
1, 79089, Note_on_c, 0, 76, 81
1, 79094, Note_on_c, 0, 55, 53
1, 79110, Note_on_c, 0, 78, 0
1, 79184, Note_on_c, 0, 64, 37
1, 79212, Note_on_c, 0, 55, 0
1, 79214, Note_on_c, 0, 78, 66
1, 79223, Note_on_c, 0, 76, 0
1, 79238, Note_on_c, 0, 64, 0
1, 79252, Note_on_c, 0, 60, 46
1, 79255, Note_on_c, 0, 79, 74
1, 79268, Note_on_c, 0, 78, 0
1, 79278, Note_on_c, 0, 79, 0
1, 79333, Note_on_c, 0, 60, 0
1, 79348, Note_on_c, 0, 79, 74
1, 79356, Note_on_c, 0, 64, 45
1, 79370, Note_on_c, 0, 79, 0
1, 79392, Note_on_c, 0, 64, 0
1, 79437, Note_on_c, 0, 79, 67
1, 79449, Note_on_c, 0, 55, 39
1, 79501, Note_on_c, 0, 79, 0
1, 79530, Note_on_c, 0, 62, 41
1, 79555, Note_on_c, 0, 55, 0
1, 79580, Note_on_c, 0, 62, 0
1, 79605, Note_on_c, 0, 59, 44
1, 79657, Note_on_c, 0, 59, 0
1, 79690, Note_on_c, 0, 62, 37
1, 79714, Note_on_c, 0, 81, 59
1, 79728, Note_on_c, 0, 62, 0
1, 79730, Note_on_c, 0, 81, 0
1, 79739, Note_on_c, 0, 83, 59
1, 79766, Note_on_c, 0, 81, 69
1, 79776, Note_on_c, 0, 53, 39
1, 79782, Note_on_c, 0, 83, 0
1, 79862, Note_on_c, 0, 60, 36
1, 79902, Note_on_c, 0, 83, 63
1, 79925, Note_on_c, 0, 60, 0
1, 79925, Note_on_c, 0, 81, 0
1, 79930, Note_on_c, 0, 57, 44
1, 79932, Note_on_c, 0, 53, 0
1, 79940, Note_on_c, 0, 84, 67
1, 79945, Note_on_c, 0, 83, 0
1, 79960, Note_on_c, 0, 84, 0
1, 79983, Note_on_c, 0, 57, 0
1, 80017, Note_on_c, 0, 60, 36
1, 80031, Note_on_c, 0, 84, 64
1, 80050, Note_on_c, 0, 84, 0
1, 80088, Note_on_c, 0, 60, 0
1, 80121, Note_on_c, 0, 84, 48
1, 80124, Note_on_c, 0, 52, 41
1, 80187, Note_on_c, 0, 84, 0
1, 80220, Note_on_c, 0, 60, 35
1, 80290, Note_on_c, 0, 52, 0
1, 80292, Note_on_c, 0, 60, 0
1, 80297, Note_on_c, 0, 55, 35
1, 80337, Note_on_c, 0, 55, 0
1, 80367, Note_on_c, 0, 60, 49
1, 80396, Note_on_c, 0, 60, 0
1, 80408, Note_on_c, 0, 84, 59
1, 80426, Note_on_c, 0, 84, 0
1, 80428, Note_on_c, 0, 86, 66
1, 80454, Note_on_c, 0, 84, 82
1, 80454, Note_on_c, 0, 48, 53
1, 80466, Note_on_c, 0, 86, 0
1, 80551, Note_on_c, 0, 55, 50
1, 80586, Note_on_c, 0, 86, 70
1, 80615, Note_on_c, 0, 55, 0
1, 80620, Note_on_c, 0, 48, 0
1, 80620, Note_on_c, 0, 84, 0
1, 80624, Note_on_c, 0, 88, 74
1, 80632, Note_on_c, 0, 52, 46
1, 80634, Note_on_c, 0, 86, 0
1, 80647, Note_on_c, 0, 88, 0
1, 80679, Note_on_c, 0, 52, 0
1, 80700, Note_on_c, 0, 55, 49
1, 80702, Note_on_c, 0, 88, 84
1, 80727, Note_on_c, 0, 88, 0
1, 80736, Note_on_c, 0, 55, 0
1, 80789, Note_on_c, 0, 88, 91
1, 80796, Note_on_c, 0, 50, 51
1, 80841, Note_on_c, 0, 88, 0
1, 80877, Note_on_c, 0, 86, 79
1, 80879, Note_on_c, 0, 59, 54
1, 80904, Note_on_c, 0, 86, 0
1, 80914, Note_on_c, 0, 59, 0
1, 80922, Note_on_c, 0, 50, 0
1, 80960, Note_on_c, 0, 84, 82
1, 80964, Note_on_c, 0, 55, 53
1, 80987, Note_on_c, 0, 84, 0
1, 80999, Note_on_c, 0, 55, 0
1, 81039, Note_on_c, 0, 83, 86
1, 81041, Note_on_c, 0, 59, 58
1, 81060, Note_on_c, 0, 83, 0
1, 81075, Note_on_c, 0, 59, 0
1, 81128, Note_on_c, 0, 83, 91
1, 81135, Note_on_c, 0, 50, 63
1, 81173, Note_on_c, 0, 83, 0
1, 81218, Note_on_c, 0, 60, 65
1, 81218, Note_on_c, 0, 81, 79
1, 81234, Note_on_c, 0, 81, 0
1, 81259, Note_on_c, 0, 60, 0
1, 81266, Note_on_c, 0, 50, 0
1, 81302, Note_on_c, 0, 79, 83
1, 81306, Note_on_c, 0, 57, 66
1, 81322, Note_on_c, 0, 79, 0
1, 81342, Note_on_c, 0, 57, 0
1, 81383, Note_on_c, 0, 78, 89
1, 81387, Note_on_c, 0, 60, 66
1, 81405, Note_on_c, 0, 60, 0
1, 81405, Note_on_c, 0, 78, 0
1, 81482, Note_on_c, 0, 86, 80
1, 81667, Note_on_c, 0, 59, 46
1, 81672, Note_on_c, 0, 55, 39
1, 81719, Note_on_c, 0, 83, 56
1, 81738, Note_on_c, 0, 86, 0
1, 81772, Note_on_c, 0, 83, 0
1, 81785, Note_on_c, 0, 79, 62
1, 81822, Note_on_c, 0, 59, 0
1, 81838, Note_on_c, 0, 79, 0
1, 81842, Note_on_c, 0, 78, 68
1, 81842, Note_on_c, 0, 60, 46
1, 81844, Note_on_c, 0, 55, 0
1, 81848, Note_on_c, 0, 57, 40
1, 81888, Note_on_c, 0, 78, 0
1, 81894, Note_on_c, 0, 81, 71
1, 81944, Note_on_c, 0, 74, 72
1, 81946, Note_on_c, 0, 81, 0
1, 81977, Note_on_c, 0, 60, 0
1, 81994, Note_on_c, 0, 57, 0
1, 81997, Note_on_c, 0, 79, 77
1, 82004, Note_on_c, 0, 59, 41
1, 82004, Note_on_c, 0, 62, 46
1, 82016, Note_on_c, 0, 74, 0
1, 82055, Note_on_c, 0, 83, 75
1, 82060, Note_on_c, 0, 79, 0
1, 82080, Note_on_c, 0, 62, 0
1, 82102, Note_on_c, 0, 59, 0
1, 82103, Note_on_c, 0, 74, 68
1, 82105, Note_on_c, 0, 83, 0
1, 82147, Note_on_c, 0, 74, 0
1, 82177, Note_on_c, 0, 81, 81
1, 82358, Note_on_c, 0, 54, 55
1, 82367, Note_on_c, 0, 50, 45
1, 82401, Note_on_c, 0, 81, 0
1, 82401, Note_on_c, 0, 78, 61
1, 82452, Note_on_c, 0, 78, 0
1, 82465, Note_on_c, 0, 74, 68
1, 82493, Note_on_c, 0, 54, 0
1, 82524, Note_on_c, 0, 50, 0
1, 82526, Note_on_c, 0, 74, 0
1, 82527, Note_on_c, 0, 55, 58
1, 82528, Note_on_c, 0, 73, 69
1, 82530, Note_on_c, 0, 52, 51
1, 82572, Note_on_c, 0, 73, 0
1, 82578, Note_on_c, 0, 74, 68
1, 82628, Note_on_c, 0, 74, 0
1, 82644, Note_on_c, 0, 69, 71
1, 82698, Note_on_c, 0, 72, 71
1, 82702, Note_on_c, 0, 54, 57
1, 82704, Note_on_c, 0, 57, 55
1, 82709, Note_on_c, 0, 69, 0
1, 82716, Note_on_c, 0, 55, 0
1, 82722, Note_on_c, 0, 52, 0
1, 82737, Note_on_c, 0, 57, 0
1, 82741, Note_on_c, 0, 54, 0
1, 82742, Note_on_c, 0, 74, 76
1, 82750, Note_on_c, 0, 72, 0
1, 82790, Note_on_c, 0, 74, 0
1, 82791, Note_on_c, 0, 69, 72
1, 82807, Note_on_c, 0, 69, 0
1, 82890, Note_on_c, 0, 86, 59
1, 83076, Note_on_c, 0, 59, 53
1, 83083, Note_on_c, 0, 55, 48
1, 83134, Note_on_c, 0, 83, 68
1, 83141, Note_on_c, 0, 86, 0
1, 83177, Note_on_c, 0, 83, 0
1, 83182, Note_on_c, 0, 79, 67
1, 83218, Note_on_c, 0, 59, 0
1, 83233, Note_on_c, 0, 55, 0
1, 83235, Note_on_c, 0, 78, 73
1, 83238, Note_on_c, 0, 79, 0
1, 83247, Note_on_c, 0, 60, 53
1, 83247, Note_on_c, 0, 57, 45
1, 83291, Note_on_c, 0, 78, 0
1, 83295, Note_on_c, 0, 81, 73
1, 83350, Note_on_c, 0, 81, 0
1, 83352, Note_on_c, 0, 74, 67
1, 83373, Note_on_c, 0, 60, 0
1, 83396, Note_on_c, 0, 57, 0
1, 83400, Note_on_c, 0, 79, 74
1, 83404, Note_on_c, 0, 59, 51
1, 83408, Note_on_c, 0, 62, 51
1, 83424, Note_on_c, 0, 74, 0
1, 83441, Note_on_c, 0, 62, 0
1, 83459, Note_on_c, 0, 83, 75
1, 83462, Note_on_c, 0, 79, 0
1, 83473, Note_on_c, 0, 59, 0
1, 83502, Note_on_c, 0, 83, 0
1, 83502, Note_on_c, 0, 74, 60
1, 83546, Note_on_c, 0, 74, 0
1, 83585, Note_on_c, 0, 81, 69
1, 83764, Note_on_c, 0, 54, 50
1, 83769, Note_on_c, 0, 50, 42
1, 83802, Note_on_c, 0, 81, 0
1, 83802, Note_on_c, 0, 78, 64
1, 83861, Note_on_c, 0, 74, 68
1, 83864, Note_on_c, 0, 78, 0
1, 83886, Note_on_c, 0, 54, 0
1, 83924, Note_on_c, 0, 74, 0
1, 83927, Note_on_c, 0, 73, 70
1, 83934, Note_on_c, 0, 50, 0
1, 83934, Note_on_c, 0, 55, 56
1, 83934, Note_on_c, 0, 52, 52
1, 83978, Note_on_c, 0, 73, 0
1, 83989, Note_on_c, 0, 74, 72
1, 84040, Note_on_c, 0, 74, 0
1, 84048, Note_on_c, 0, 69, 68
1, 84051, Note_on_c, 0, 55, 0
1, 84068, Note_on_c, 0, 52, 0
1, 84088, Note_on_c, 0, 54, 52
1, 84096, Note_on_c, 0, 57, 59
1, 84108, Note_on_c, 0, 72, 65
1, 84119, Note_on_c, 0, 69, 0
1, 84149, Note_on_c, 0, 72, 0
1, 84151, Note_on_c, 0, 74, 61
1, 84214, Note_on_c, 0, 69, 65
1, 84222, Note_on_c, 0, 74, 0
1, 84229, Note_on_c, 0, 57, 0
1, 84244, Note_on_c, 0, 69, 0
1, 84250, Note_on_c, 0, 54, 0
1, 84276, Note_on_c, 0, 55, 57
1, 84282, Note_on_c, 0, 71, 74
1, 84315, Note_on_c, 0, 71, 0
1, 84332, Note_on_c, 0, 67, 66
1, 84385, Note_on_c, 0, 71, 73
1, 84390, Note_on_c, 0, 67, 0
1, 84435, Note_on_c, 0, 71, 0
1, 84441, Note_on_c, 0, 74, 71
1, 84479, Note_on_c, 0, 74, 0
1, 84499, Note_on_c, 0, 71, 65
1, 84523, Note_on_c, 0, 71, 0
1, 84556, Note_on_c, 0, 74, 69
1, 84592, Note_on_c, 0, 74, 0
1, 84592, Note_on_c, 0, 55, 0
1, 84614, Note_on_c, 0, 79, 74
1, 84645, Note_on_c, 0, 79, 0
1, 84665, Note_on_c, 0, 74, 67
1, 84720, Note_on_c, 0, 79, 79
1, 84725, Note_on_c, 0, 74, 0
1, 84752, Note_on_c, 0, 79, 0
1, 84778, Note_on_c, 0, 83, 80
1, 84806, Note_on_c, 0, 83, 0
1, 84831, Note_on_c, 0, 79, 71
1, 84878, Note_on_c, 0, 83, 82
1, 84897, Note_on_c, 0, 79, 0
1, 84909, Note_on_c, 0, 83, 0
1, 84935, Note_on_c, 0, 86, 84
1, 84948, Note_on_c, 0, 50, 65
1, 84948, Note_on_c, 0, 55, 70
1, 84950, Note_on_c, 0, 47, 65
1, 84959, Note_on_c, 0, 43, 50
1, 84974, Note_on_c, 0, 86, 0
1, 84984, Note_on_c, 0, 83, 86
1, 85045, Note_on_c, 0, 86, 84
1, 85080, Note_on_c, 0, 86, 0
1, 85091, Note_on_c, 0, 83, 0
1, 85100, Note_on_c, 0, 89, 92
1, 85156, Note_on_c, 0, 86, 86
1, 85166, Note_on_c, 0, 89, 0
1, 85211, Note_on_c, 0, 83, 91
1, 85231, Note_on_c, 0, 86, 0
1, 85261, Note_on_c, 0, 83, 0
1, 85272, Note_on_c, 0, 79, 57
1, 85289, Note_on_c, 0, 79, 0
1, 85314, Note_on_c, 0, 77, 80
1, 85334, Note_on_c, 0, 77, 0
1, 85367, Note_on_c, 0, 74, 79
1, 85392, Note_on_c, 0, 74, 0
1, 85419, Note_on_c, 0, 71, 83
1, 85423, Note_on_c, 0, 47, 0
1, 85440, Note_on_c, 0, 71, 0
1, 85473, Note_on_c, 0, 67, 71
1, 85490, Note_on_c, 0, 67, 0
1, 85523, Note_on_c, 0, 65, 80
1, 85548, Note_on_c, 0, 65, 0
1, 85581, Note_on_c, 0, 50, 0
1, 85586, Note_on_c, 0, 64, 66
1, 85598, Note_on_c, 0, 43, 0
1, 85604, Note_on_c, 0, 64, 0
1, 85604, Note_on_c, 0, 48, 48
1, 85699, Note_on_c, 0, 76, 64
1, 85802, Note_on_c, 0, 76, 0
1, 85804, Note_on_c, 0, 75, 59
1, 85897, Note_on_c, 0, 76, 58
1, 85908, Note_on_c, 0, 75, 0
1, 85969, Note_on_c, 0, 55, 0
1, 85984, Note_on_c, 0, 75, 66
1, 85988, Note_on_c, 0, 48, 0
1, 86016, Note_on_c, 0, 76, 0
1, 86077, Note_on_c, 0, 76, 78
1, 86095, Note_on_c, 0, 75, 0
1, 86160, Note_on_c, 0, 75, 76
1, 86174, Note_on_c, 0, 76, 0
1, 86246, Note_on_c, 0, 76, 73
1, 86273, Note_on_c, 0, 75, 0
1, 86343, Note_on_c, 0, 67, 67
1, 86411, Note_on_c, 0, 76, 0
1, 86530, Note_on_c, 0, 49, 50
1, 86537, Note_on_c, 0, 58, 48
1, 86608, Note_on_c, 0, 49, 0
1, 86623, Note_on_c, 0, 58, 0
1, 86718, Note_on_c, 0, 59, 52
1, 86724, Note_on_c, 0, 50, 42
1, 86877, Note_on_c, 0, 67, 0
1, 86903, Note_on_c, 0, 71, 63
1, 86904, Note_on_c, 0, 59, 0
1, 86907, Note_on_c, 0, 66, 53
1, 86907, Note_on_c, 0, 60, 46
1, 86980, Note_on_c, 0, 66, 0
1, 86988, Note_on_c, 0, 69, 67
1, 87016, Note_on_c, 0, 69, 0
1, 87036, Note_on_c, 0, 60, 0
1, 87040, Note_on_c, 0, 71, 0
1, 87082, Note_on_c, 0, 59, 50
1, 87086, Note_on_c, 0, 71, 74
1, 87092, Note_on_c, 0, 55, 39
1, 87102, Note_on_c, 0, 71, 0
1, 87144, Note_on_c, 0, 67, 68
1, 87154, Note_on_c, 0, 50, 0
1, 87196, Note_on_c, 0, 71, 74
1, 87198, Note_on_c, 0, 67, 0
1, 87234, Note_on_c, 0, 71, 0
1, 87254, Note_on_c, 0, 74, 75
1, 87287, Note_on_c, 0, 74, 0
1, 87303, Note_on_c, 0, 71, 74
1, 87360, Note_on_c, 0, 71, 0
1, 87360, Note_on_c, 0, 74, 73
1, 87396, Note_on_c, 0, 74, 0
1, 87423, Note_on_c, 0, 79, 79
1, 87446, Note_on_c, 0, 79, 0
1, 87473, Note_on_c, 0, 74, 73
1, 87512, Note_on_c, 0, 74, 0
1, 87529, Note_on_c, 0, 79, 79
1, 87532, Note_on_c, 0, 59, 0
1, 87538, Note_on_c, 0, 55, 0
1, 87560, Note_on_c, 0, 79, 0
1, 87587, Note_on_c, 0, 83, 82
1, 87609, Note_on_c, 0, 83, 0
1, 87639, Note_on_c, 0, 79, 74
1, 87671, Note_on_c, 0, 79, 0
1, 87690, Note_on_c, 0, 83, 86
1, 87715, Note_on_c, 0, 83, 0
1, 87745, Note_on_c, 0, 86, 90
1, 87748, Note_on_c, 0, 55, 68
1, 87749, Note_on_c, 0, 47, 63
1, 87753, Note_on_c, 0, 50, 57
1, 87763, Note_on_c, 0, 43, 51
1, 87776, Note_on_c, 0, 86, 0
1, 87799, Note_on_c, 0, 83, 88
1, 87854, Note_on_c, 0, 83, 0
1, 87854, Note_on_c, 0, 86, 88
1, 87904, Note_on_c, 0, 86, 0
1, 87910, Note_on_c, 0, 89, 92
1, 87960, Note_on_c, 0, 89, 0
1, 87965, Note_on_c, 0, 86, 88
1, 88015, Note_on_c, 0, 86, 0
1, 88015, Note_on_c, 0, 83, 91
1, 88061, Note_on_c, 0, 83, 0
1, 88075, Note_on_c, 0, 79, 85
1, 88105, Note_on_c, 0, 79, 0
1, 88113, Note_on_c, 0, 77, 81
1, 88141, Note_on_c, 0, 77, 0
1, 88174, Note_on_c, 0, 74, 80
1, 88212, Note_on_c, 0, 74, 0
1, 88215, Note_on_c, 0, 71, 83
1, 88242, Note_on_c, 0, 47, 0
1, 88247, Note_on_c, 0, 71, 0
1, 88279, Note_on_c, 0, 67, 75
1, 88299, Note_on_c, 0, 67, 0
1, 88335, Note_on_c, 0, 65, 78
1, 88355, Note_on_c, 0, 65, 0
1, 88395, Note_on_c, 0, 50, 0
1, 88400, Note_on_c, 0, 48, 39
1, 88400, Note_on_c, 0, 64, 72
1, 88418, Note_on_c, 0, 43, 0
1, 88428, Note_on_c, 0, 64, 0
1, 88495, Note_on_c, 0, 76, 61
1, 88594, Note_on_c, 0, 76, 0
1, 88602, Note_on_c, 0, 75, 59
1, 88687, Note_on_c, 0, 76, 61
1, 88694, Note_on_c, 0, 75, 0
1, 88702, Note_on_c, 0, 55, 0
1, 88703, Note_on_c, 0, 48, 0
1, 88768, Note_on_c, 0, 75, 69
1, 88790, Note_on_c, 0, 76, 0
1, 88863, Note_on_c, 0, 76, 73
1, 88876, Note_on_c, 0, 75, 0
1, 88946, Note_on_c, 0, 75, 72
1, 88968, Note_on_c, 0, 76, 0
1, 89039, Note_on_c, 0, 76, 69
1, 89052, Note_on_c, 0, 75, 0
1, 89077, Note_on_c, 0, 76, 0
1, 89133, Note_on_c, 0, 49, 53
1, 89133, Note_on_c, 0, 58, 60
1, 89221, Note_on_c, 0, 79, 74
1, 89312, Note_on_c, 0, 78, 76
1, 89341, Note_on_c, 0, 79, 0
1, 89395, Note_on_c, 0, 79, 83
1, 89410, Note_on_c, 0, 78, 0
1, 89475, Note_on_c, 0, 78, 82
1, 89500, Note_on_c, 0, 79, 0
1, 89540, Note_on_c, 0, 58, 0
1, 89556, Note_on_c, 0, 49, 0
1, 89557, Note_on_c, 0, 79, 83
1, 89560, Note_on_c, 0, 78, 0
1, 89639, Note_on_c, 0, 78, 80
1, 89656, Note_on_c, 0, 79, 0
1, 89724, Note_on_c, 0, 79, 81
1, 89736, Note_on_c, 0, 78, 0
1, 89757, Note_on_c, 0, 79, 0
1, 89815, Note_on_c, 0, 79, 83
1, 89825, Note_on_c, 0, 50, 43
1, 89898, Note_on_c, 0, 74, 69
1, 89907, Note_on_c, 0, 59, 57
1, 89913, Note_on_c, 0, 79, 0
1, 89915, Note_on_c, 0, 74, 0
1, 89936, Note_on_c, 0, 59, 0
1, 89943, Note_on_c, 0, 50, 0
1, 89980, Note_on_c, 0, 74, 67
1, 89989, Note_on_c, 0, 55, 66
1, 90004, Note_on_c, 0, 74, 0
1, 90006, Note_on_c, 0, 55, 0
1, 90067, Note_on_c, 0, 74, 83
1, 90071, Note_on_c, 0, 59, 65
1, 90089, Note_on_c, 0, 74, 0
1, 90097, Note_on_c, 0, 59, 0
1, 90156, Note_on_c, 0, 76, 83
1, 90165, Note_on_c, 0, 50, 59
1, 90195, Note_on_c, 0, 50, 0
1, 90233, Note_on_c, 0, 74, 79
1, 90246, Note_on_c, 0, 59, 59
1, 90247, Note_on_c, 0, 76, 0
1, 90268, Note_on_c, 0, 74, 0
1, 90270, Note_on_c, 0, 59, 0
1, 90323, Note_on_c, 0, 72, 75
1, 90330, Note_on_c, 0, 55, 58
1, 90340, Note_on_c, 0, 72, 0
1, 90346, Note_on_c, 0, 55, 0
1, 90409, Note_on_c, 0, 71, 73
1, 90413, Note_on_c, 0, 59, 57
1, 90429, Note_on_c, 0, 71, 0
1, 90439, Note_on_c, 0, 59, 0
1, 90492, Note_on_c, 0, 71, 74
1, 90512, Note_on_c, 0, 50, 46
1, 90547, Note_on_c, 0, 50, 0
1, 90589, Note_on_c, 0, 62, 48
1, 90666, Note_on_c, 0, 55, 41
1, 90679, Note_on_c, 0, 62, 0
1, 90729, Note_on_c, 0, 55, 0
1, 90756, Note_on_c, 0, 62, 56
1, 90797, Note_on_c, 0, 62, 0
1, 90809, Note_on_c, 0, 71, 0
1, 90846, Note_on_c, 0, 69, 65
1, 90848, Note_on_c, 0, 50, 47
1, 90866, Note_on_c, 0, 69, 0
1, 90880, Note_on_c, 0, 71, 59
1, 90897, Note_on_c, 0, 71, 0
1, 90912, Note_on_c, 0, 69, 68
1, 90933, Note_on_c, 0, 60, 44
1, 90934, Note_on_c, 0, 69, 0
1, 90945, Note_on_c, 0, 71, 65
1, 90949, Note_on_c, 0, 50, 0
1, 90965, Note_on_c, 0, 71, 0
1, 90980, Note_on_c, 0, 60, 0
1, 90987, Note_on_c, 0, 69, 57
1, 91000, Note_on_c, 0, 69, 0
1, 91003, Note_on_c, 0, 54, 47
1, 91010, Note_on_c, 0, 71, 70
1, 91032, Note_on_c, 0, 54, 0
1, 91041, Note_on_c, 0, 69, 64
1, 91053, Note_on_c, 0, 71, 0
1, 91070, Note_on_c, 0, 60, 46
1, 91080, Note_on_c, 0, 69, 0
1, 91080, Note_on_c, 0, 67, 66
1, 91102, Note_on_c, 0, 67, 0
1, 91131, Note_on_c, 0, 69, 45
1, 91149, Note_on_c, 0, 60, 0
1, 91166, Note_on_c, 0, 69, 0
1, 91167, Note_on_c, 0, 67, 57
1, 91186, Note_on_c, 0, 55, 38
1, 91262, Note_on_c, 0, 67, 0
1, 91267, Note_on_c, 0, 59, 44
1, 91348, Note_on_c, 0, 59, 0
1, 91348, Note_on_c, 0, 67, 46
1, 91413, Note_on_c, 0, 55, 0
1, 91441, Note_on_c, 0, 59, 39
1, 91529, Note_on_c, 0, 67, 0
1, 91532, Note_on_c, 0, 59, 0
1, 91538, Note_on_c, 0, 74, 61
1, 91552, Note_on_c, 0, 55, 35
1, 91649, Note_on_c, 0, 59, 44
1, 91688, Note_on_c, 0, 55, 0
1, 91720, Note_on_c, 0, 59, 0
1, 91736, Note_on_c, 0, 67, 51
1, 91752, Note_on_c, 0, 74, 0
1, 91788, Note_on_c, 0, 78, 48
1, 91804, Note_on_c, 0, 59, 50
1, 91815, Note_on_c, 0, 78, 0
1, 91819, Note_on_c, 0, 76, 58
1, 91823, Note_on_c, 0, 67, 0
1, 91833, Note_on_c, 0, 76, 0
1, 91844, Note_on_c, 0, 74, 72
1, 91861, Note_on_c, 0, 59, 0
1, 91872, Note_on_c, 0, 74, 0
1, 91882, Note_on_c, 0, 86, 86
1, 91898, Note_on_c, 0, 55, 41
1, 91902, Note_on_c, 0, 86, 0
1, 91936, Note_on_c, 0, 55, 0
1, 91970, Note_on_c, 0, 57, 43
1, 92029, Note_on_c, 0, 57, 0
1, 92064, Note_on_c, 0, 66, 49
1, 92068, Note_on_c, 0, 84, 78
1, 92091, Note_on_c, 0, 84, 0
1, 92153, Note_on_c, 0, 57, 42
1, 92206, Note_on_c, 0, 66, 0
1, 92223, Note_on_c, 0, 57, 0
1, 92251, Note_on_c, 0, 83, 71
1, 92256, Note_on_c, 0, 55, 37
1, 92274, Note_on_c, 0, 83, 0
1, 92345, Note_on_c, 0, 60, 40
1, 92393, Note_on_c, 0, 55, 0
1, 92424, Note_on_c, 0, 60, 0
1, 92435, Note_on_c, 0, 81, 70
1, 92437, Note_on_c, 0, 66, 46
1, 92450, Note_on_c, 0, 81, 0
1, 92531, Note_on_c, 0, 60, 41
1, 92536, Note_on_c, 0, 66, 0
1, 92608, Note_on_c, 0, 60, 0
1, 92622, Note_on_c, 0, 79, 58
1, 92634, Note_on_c, 0, 55, 35
1, 92732, Note_on_c, 0, 59, 37
1, 92826, Note_on_c, 0, 59, 0
1, 92837, Note_on_c, 0, 67, 42
1, 92906, Note_on_c, 0, 55, 0
1, 92928, Note_on_c, 0, 59, 35
1, 92997, Note_on_c, 0, 67, 0
1, 93007, Note_on_c, 0, 74, 54
1, 93010, Note_on_c, 0, 55, 35
1, 93029, Note_on_c, 0, 59, 0
1, 93062, Note_on_c, 0, 79, 0
1, 93118, Note_on_c, 0, 59, 37
1, 93157, Note_on_c, 0, 55, 0
1, 93166, Note_on_c, 0, 59, 0
1, 93187, Note_on_c, 0, 67, 37
1, 93231, Note_on_c, 0, 74, 0
1, 93241, Note_on_c, 0, 78, 57
1, 93266, Note_on_c, 0, 59, 44
1, 93276, Note_on_c, 0, 67, 0
1, 93283, Note_on_c, 0, 78, 0
1, 93284, Note_on_c, 0, 76, 53
1, 93298, Note_on_c, 0, 76, 0
1, 93308, Note_on_c, 0, 74, 65
1, 93324, Note_on_c, 0, 59, 0
1, 93330, Note_on_c, 0, 74, 0
1, 93349, Note_on_c, 0, 86, 79
1, 93353, Note_on_c, 0, 55, 35
1, 93373, Note_on_c, 0, 86, 0
1, 93427, Note_on_c, 0, 55, 0
1, 93430, Note_on_c, 0, 57, 44
1, 93520, Note_on_c, 0, 57, 0
1, 93527, Note_on_c, 0, 84, 74
1, 93535, Note_on_c, 0, 66, 42
1, 93551, Note_on_c, 0, 84, 0
1, 93610, Note_on_c, 0, 57, 42
1, 93613, Note_on_c, 0, 66, 0
1, 93699, Note_on_c, 0, 57, 0
1, 93703, Note_on_c, 0, 83, 71
1, 93705, Note_on_c, 0, 55, 41
1, 93721, Note_on_c, 0, 83, 0
1, 93776, Note_on_c, 0, 55, 0
1, 93796, Note_on_c, 0, 60, 44
1, 93865, Note_on_c, 0, 60, 0
1, 93887, Note_on_c, 0, 81, 67
1, 93887, Note_on_c, 0, 66, 46
1, 93908, Note_on_c, 0, 81, 0
1, 93980, Note_on_c, 0, 60, 35
1, 93986, Note_on_c, 0, 66, 0
1, 94056, Note_on_c, 0, 60, 0
1, 94071, Note_on_c, 0, 79, 60
1, 94083, Note_on_c, 0, 55, 35
1, 94166, Note_on_c, 0, 59, 45
1, 94187, Note_on_c, 0, 79, 0
1, 94188, Note_on_c, 0, 55, 0
1, 94227, Note_on_c, 0, 59, 0
1, 94273, Note_on_c, 0, 67, 51
1, 94353, Note_on_c, 0, 59, 39
1, 94373, Note_on_c, 0, 67, 0
1, 94399, Note_on_c, 0, 74, 58
1, 94429, Note_on_c, 0, 59, 0
1, 94444, Note_on_c, 0, 86, 84
1, 94446, Note_on_c, 0, 55, 46
1, 94449, Note_on_c, 0, 74, 0
1, 94552, Note_on_c, 0, 60, 40
1, 94620, Note_on_c, 0, 55, 0
1, 94621, Note_on_c, 0, 60, 0
1, 94641, Note_on_c, 0, 66, 47
1, 94642, Note_on_c, 0, 86, 0
1, 94706, Note_on_c, 0, 84, 59
1, 94718, Note_on_c, 0, 60, 35
1, 94721, Note_on_c, 0, 66, 0
1, 94738, Note_on_c, 0, 84, 0
1, 94743, Note_on_c, 0, 83, 61
1, 94764, Note_on_c, 0, 81, 64
1, 94788, Note_on_c, 0, 83, 0
1, 94816, Note_on_c, 0, 79, 58
1, 94819, Note_on_c, 0, 55, 35
1, 94822, Note_on_c, 0, 81, 0
1, 94822, Note_on_c, 0, 60, 0
1, 94862, Note_on_c, 0, 79, 0
1, 94910, Note_on_c, 0, 59, 41
1, 94929, Note_on_c, 0, 55, 0
1, 94970, Note_on_c, 0, 59, 0
1, 95010, Note_on_c, 0, 67, 48
1, 95088, Note_on_c, 0, 59, 41
1, 95131, Note_on_c, 0, 67, 0
1, 95161, Note_on_c, 0, 74, 60
1, 95174, Note_on_c, 0, 59, 0
1, 95192, Note_on_c, 0, 86, 79
1, 95192, Note_on_c, 0, 55, 40
1, 95207, Note_on_c, 0, 74, 0
1, 95284, Note_on_c, 0, 60, 46
1, 95365, Note_on_c, 0, 60, 0
1, 95380, Note_on_c, 0, 66, 46
1, 95443, Note_on_c, 0, 86, 0
1, 95453, Note_on_c, 0, 84, 57
1, 95461, Note_on_c, 0, 66, 0
1, 95471, Note_on_c, 0, 60, 35
1, 95484, Note_on_c, 0, 84, 0
1, 95484, Note_on_c, 0, 83, 59
1, 95527, Note_on_c, 0, 83, 0
1, 95532, Note_on_c, 0, 81, 56
1, 95534, Note_on_c, 0, 60, 0
1, 95572, Note_on_c, 0, 79, 62
1, 95574, Note_on_c, 0, 81, 0
1, 95579, Note_on_c, 0, 67, 42
1, 95587, Note_on_c, 0, 59, 35
1, 95607, Note_on_c, 0, 79, 0
1, 95615, Note_on_c, 0, 55, 0
1, 95652, Note_on_c, 0, 67, 0
1, 95743, Note_on_c, 0, 59, 0
1, 95776, Note_on_c, 0, 62, 67
1, 95908, Note_on_c, 0, 67, 59
1, 95961, Note_on_c, 0, 71, 71
1, 95975, Note_on_c, 0, 67, 0
1, 95987, Note_on_c, 0, 71, 0
1, 95995, Note_on_c, 0, 62, 0
1, 96157, Note_on_c, 0, 69, 60
1, 96159, Note_on_c, 0, 60, 47
1, 96166, Note_on_c, 0, 50, 37
1, 96193, Note_on_c, 0, 69, 0
1, 96195, Note_on_c, 0, 50, 0
1, 96208, Note_on_c, 0, 60, 0
1, 96377, Note_on_c, 0, 60, 47
1, 96377, Note_on_c, 0, 55, 37
1, 96379, Note_on_c, 0, 69, 51
1, 96414, Note_on_c, 0, 55, 0
1, 96600, Note_on_c, 0, 50, 37
1, 96654, Note_on_c, 0, 50, 0
1, 96661, Note_on_c, 0, 60, 0
1, 96857, Note_on_c, 0, 67, 38
1, 96865, Note_on_c, 0, 43, 35
1, 96873, Note_on_c, 0, 59, 35
1, 96899, Note_on_c, 0, 69, 0
1, 97022, Note_on_c, 0, 59, 0
1, 97023, Note_on_c, 0, 43, 0
1, 97057, Note_on_c, 0, 67, 0
1, 97323, Note_on_c, 0, 74, 78
1, 97336, Note_on_c, 0, 59, 40
1, 97336, Note_on_c, 0, 62, 40
1, 97523, Note_on_c, 0, 71, 76
1, 97539, Note_on_c, 0, 55, 47
1, 97542, Note_on_c, 0, 71, 0
1, 97542, Note_on_c, 0, 74, 0
1, 97558, Note_on_c, 0, 55, 0
1, 97565, Note_on_c, 0, 59, 0
1, 97709, Note_on_c, 0, 71, 71
1, 97719, Note_on_c, 0, 55, 48
1, 97734, Note_on_c, 0, 71, 0
1, 97736, Note_on_c, 0, 55, 0
1, 97754, Note_on_c, 0, 62, 0
1, 97893, Note_on_c, 0, 71, 67
1, 97897, Note_on_c, 0, 55, 50
1, 97909, Note_on_c, 0, 71, 0
1, 97915, Note_on_c, 0, 55, 0
1, 97915, Note_on_c, 0, 72, 71
1, 97950, Note_on_c, 0, 71, 73
1, 97966, Note_on_c, 0, 72, 0
1, 97978, Note_on_c, 0, 71, 0
1, 97985, Note_on_c, 0, 69, 72
1, 98016, Note_on_c, 0, 71, 70
1, 98031, Note_on_c, 0, 69, 0
1, 98065, Note_on_c, 0, 74, 78
1, 98069, Note_on_c, 0, 71, 0
1, 98076, Note_on_c, 0, 59, 46
1, 98081, Note_on_c, 0, 62, 37
1, 98275, Note_on_c, 0, 72, 59
1, 98282, Note_on_c, 0, 74, 0
1, 98283, Note_on_c, 0, 59, 0
1, 98288, Note_on_c, 0, 57, 39
1, 98310, Note_on_c, 0, 72, 0
1, 98313, Note_on_c, 0, 57, 0
1, 98320, Note_on_c, 0, 62, 0
1, 98488, Note_on_c, 0, 69, 52
1, 98501, Note_on_c, 0, 62, 35
1, 98507, Note_on_c, 0, 54, 36
1, 98753, Note_on_c, 0, 62, 0
1, 98765, Note_on_c, 0, 69, 0
1, 98769, Note_on_c, 0, 54, 0
1, 98871, Note_on_c, 0, 72, 74
1, 98874, Note_on_c, 0, 62, 64
1, 98886, Note_on_c, 0, 57, 49
1, 99081, Note_on_c, 0, 57, 0
1, 99083, Note_on_c, 0, 71, 59
1, 99083, Note_on_c, 0, 55, 45
1, 99104, Note_on_c, 0, 72, 0
1, 99110, Note_on_c, 0, 55, 0
1, 99116, Note_on_c, 0, 71, 0
1, 99116, Note_on_c, 0, 62, 0
1, 99269, Note_on_c, 0, 62, 67
1, 99269, Note_on_c, 0, 74, 73
1, 99277, Note_on_c, 0, 59, 59
1, 99466, Note_on_c, 0, 72, 64
1, 99468, Note_on_c, 0, 57, 55
1, 99489, Note_on_c, 0, 59, 0
1, 99493, Note_on_c, 0, 74, 0
1, 99495, Note_on_c, 0, 57, 0
1, 99504, Note_on_c, 0, 72, 0
1, 99509, Note_on_c, 0, 62, 0
1, 99694, Note_on_c, 0, 76, 75
1, 99700, Note_on_c, 0, 62, 65
1, 99710, Note_on_c, 0, 60, 57
1, 100166, Note_on_c, 0, 74, 45
1, 100176, Note_on_c, 0, 59, 36
1, 100209, Note_on_c, 0, 76, 0
1, 100209, Note_on_c, 0, 60, 0
1, 100440, Note_on_c, 0, 74, 0
1, 100536, Note_on_c, 0, 62, 0
1, 100550, Note_on_c, 0, 59, 0
1, 100589, Note_on_c, 0, 74, 69
1, 100784, Note_on_c, 0, 74, 0
1, 100784, Note_on_c, 0, 67, 72
1, 100802, Note_on_c, 0, 67, 0
1, 100968, Note_on_c, 0, 67, 71
1, 100979, Note_on_c, 0, 50, 42
1, 100980, Note_on_c, 0, 47, 44
1, 101052, Note_on_c, 0, 67, 0
1, 101148, Note_on_c, 0, 68, 70
1, 101161, Note_on_c, 0, 68, 0
1, 101169, Note_on_c, 0, 50, 0
1, 101169, Note_on_c, 0, 69, 63
1, 101205, Note_on_c, 0, 68, 72
1, 101214, Note_on_c, 0, 69, 0
1, 101235, Note_on_c, 0, 68, 0
1, 101235, Note_on_c, 0, 67, 74
1, 101256, Note_on_c, 0, 67, 0
1, 101278, Note_on_c, 0, 68, 74
1, 101310, Note_on_c, 0, 47, 0
1, 101314, Note_on_c, 0, 48, 43
1, 101314, Note_on_c, 0, 52, 51
1, 101326, Note_on_c, 0, 69, 80
1, 101327, Note_on_c, 0, 68, 0
1, 101532, Note_on_c, 0, 72, 82
1, 101545, Note_on_c, 0, 69, 0
1, 101560, Note_on_c, 0, 72, 0
1, 101774, Note_on_c, 0, 76, 72
1, 101782, Note_on_c, 0, 55, 45
1, 101794, Note_on_c, 0, 49, 39
1, 101855, Note_on_c, 0, 48, 0
1, 101857, Note_on_c, 0, 52, 0
1, 101993, Note_on_c, 0, 76, 0
1, 102192, Note_on_c, 0, 49, 0
1, 102207, Note_on_c, 0, 74, 54
1, 102222, Note_on_c, 0, 59, 39
1, 102229, Note_on_c, 0, 50, 35
1, 102337, Note_on_c, 0, 55, 0
1, 102405, Note_on_c, 0, 67, 52
1, 102420, Note_on_c, 0, 74, 0
1, 102435, Note_on_c, 0, 67, 0
1, 102601, Note_on_c, 0, 72, 51
1, 102607, Note_on_c, 0, 57, 35
1, 102660, Note_on_c, 0, 59, 0
1, 102805, Note_on_c, 0, 66, 42
1, 102833, Note_on_c, 0, 66, 0
1, 102871, Note_on_c, 0, 72, 0
1, 103020, Note_on_c, 0, 69, 50
1, 103034, Note_on_c, 0, 55, 35
1, 103036, Note_on_c, 0, 60, 35
1, 103097, Note_on_c, 0, 57, 0
1, 103123, Note_on_c, 0, 50, 0
1, 103455, Note_on_c, 0, 67, 41
1, 103457, Note_on_c, 0, 59, 35
1, 103488, Note_on_c, 0, 69, 0
1, 103524, Note_on_c, 0, 60, 0
1, 103647, Note_on_c, 0, 55, 0
1, 103649, Note_on_c, 0, 59, 0
1, 103719, Note_on_c, 0, 67, 0
1, 103843, Note_on_c, 0, 74, 71
1, 103848, Note_on_c, 0, 59, 44
1, 103919, Note_on_c, 0, 59, 0
1, 103939, Note_on_c, 0, 62, 54
1, 103967, Note_on_c, 0, 62, 0
1, 104026, Note_on_c, 0, 71, 69
1, 104029, Note_on_c, 0, 74, 0
1, 104037, Note_on_c, 0, 55, 48
1, 104042, Note_on_c, 0, 71, 0
1, 104059, Note_on_c, 0, 55, 0
1, 104107, Note_on_c, 0, 62, 50
1, 104142, Note_on_c, 0, 62, 0
1, 104203, Note_on_c, 0, 71, 70
1, 104204, Note_on_c, 0, 55, 55
1, 104225, Note_on_c, 0, 71, 0
1, 104236, Note_on_c, 0, 55, 0
1, 104296, Note_on_c, 0, 62, 50
1, 104316, Note_on_c, 0, 62, 0
1, 104372, Note_on_c, 0, 71, 74
1, 104384, Note_on_c, 0, 56, 63
1, 104386, Note_on_c, 0, 71, 0
1, 104394, Note_on_c, 0, 56, 0
1, 104394, Note_on_c, 0, 72, 59
1, 104426, Note_on_c, 0, 71, 77
1, 104430, Note_on_c, 0, 72, 0
1, 104449, Note_on_c, 0, 71, 0
1, 104455, Note_on_c, 0, 69, 77
1, 104457, Note_on_c, 0, 62, 50
1, 104487, Note_on_c, 0, 62, 0
1, 104493, Note_on_c, 0, 71, 74
1, 104507, Note_on_c, 0, 69, 0
1, 104540, Note_on_c, 0, 74, 78
1, 104545, Note_on_c, 0, 71, 0
1, 104550, Note_on_c, 0, 57, 51
1, 104575, Note_on_c, 0, 57, 0
1, 104641, Note_on_c, 0, 62, 63
1, 104669, Note_on_c, 0, 62, 0
1, 104722, Note_on_c, 0, 72, 67
1, 104735, Note_on_c, 0, 55, 53
1, 104745, Note_on_c, 0, 74, 0
1, 104754, Note_on_c, 0, 55, 0
1, 104795, Note_on_c, 0, 72, 0
1, 104825, Note_on_c, 0, 62, 56
1, 104849, Note_on_c, 0, 62, 0
1, 104902, Note_on_c, 0, 69, 64
1, 104920, Note_on_c, 0, 54, 55
1, 104946, Note_on_c, 0, 54, 0
1, 105001, Note_on_c, 0, 62, 62
1, 105029, Note_on_c, 0, 62, 0
1, 105104, Note_on_c, 0, 50, 60
1, 105134, Note_on_c, 0, 50, 0
1, 105146, Note_on_c, 0, 69, 0
1, 105179, Note_on_c, 0, 62, 59
1, 105204, Note_on_c, 0, 62, 0
1, 105286, Note_on_c, 0, 72, 74
1, 105291, Note_on_c, 0, 55, 46
1, 105381, Note_on_c, 0, 67, 38
1, 105428, Note_on_c, 0, 67, 0
1, 105461, Note_on_c, 0, 55, 0
1, 105462, Note_on_c, 0, 72, 0
1, 105462, Note_on_c, 0, 71, 63
1, 105476, Note_on_c, 0, 59, 42
1, 105482, Note_on_c, 0, 71, 0
1, 105504, Note_on_c, 0, 59, 0
1, 105559, Note_on_c, 0, 67, 55
1, 105600, Note_on_c, 0, 67, 0
1, 105640, Note_on_c, 0, 74, 73
1, 105653, Note_on_c, 0, 57, 57
1, 105681, Note_on_c, 0, 57, 0
1, 105738, Note_on_c, 0, 67, 57
1, 105778, Note_on_c, 0, 67, 0
1, 105824, Note_on_c, 0, 72, 60
1, 105829, Note_on_c, 0, 60, 42
1, 105842, Note_on_c, 0, 74, 0
1, 105847, Note_on_c, 0, 72, 0
1, 105854, Note_on_c, 0, 60, 0
1, 105907, Note_on_c, 0, 67, 53
1, 105937, Note_on_c, 0, 67, 0
1, 106010, Note_on_c, 0, 76, 73
1, 106013, Note_on_c, 0, 60, 42
1, 106095, Note_on_c, 0, 67, 37
1, 106191, Note_on_c, 0, 64, 44
1, 106192, Note_on_c, 0, 67, 0
1, 106224, Note_on_c, 0, 60, 0
1, 106270, Note_on_c, 0, 64, 0
1, 106274, Note_on_c, 0, 67, 43
1, 106318, Note_on_c, 0, 67, 0
1, 106367, Note_on_c, 0, 74, 51
1, 106383, Note_on_c, 0, 59, 41
1, 106415, Note_on_c, 0, 59, 0
1, 106415, Note_on_c, 0, 76, 0
1, 106468, Note_on_c, 0, 67, 41
1, 106526, Note_on_c, 0, 67, 0
1, 106554, Note_on_c, 0, 62, 41
1, 106599, Note_on_c, 0, 62, 0
1, 106642, Note_on_c, 0, 67, 46
1, 106665, Note_on_c, 0, 74, 0
1, 106680, Note_on_c, 0, 67, 0
1, 106725, Note_on_c, 0, 74, 67
1, 106740, Note_on_c, 0, 57, 37
1, 106830, Note_on_c, 0, 67, 35
1, 106840, Note_on_c, 0, 57, 0
1, 106869, Note_on_c, 0, 67, 0
1, 106909, Note_on_c, 0, 72, 58
1, 106919, Note_on_c, 0, 60, 35
1, 106926, Note_on_c, 0, 74, 0
1, 106954, Note_on_c, 0, 72, 0
1, 106957, Note_on_c, 0, 60, 0
1, 107000, Note_on_c, 0, 67, 48
1, 107037, Note_on_c, 0, 67, 0
1, 107100, Note_on_c, 0, 76, 69
1, 107111, Note_on_c, 0, 59, 42
1, 107148, Note_on_c, 0, 59, 0
1, 107189, Note_on_c, 0, 67, 43
1, 107223, Note_on_c, 0, 67, 0
1, 107281, Note_on_c, 0, 74, 65
1, 107287, Note_on_c, 0, 62, 43
1, 107291, Note_on_c, 0, 76, 0
1, 107307, Note_on_c, 0, 74, 0
1, 107332, Note_on_c, 0, 62, 0
1, 107370, Note_on_c, 0, 67, 39
1, 107443, Note_on_c, 0, 67, 0
1, 107470, Note_on_c, 0, 77, 73
1, 107490, Note_on_c, 0, 62, 35
1, 107571, Note_on_c, 0, 67, 43
1, 107662, Note_on_c, 0, 65, 45
1, 107666, Note_on_c, 0, 67, 0
1, 107679, Note_on_c, 0, 62, 0
1, 107737, Note_on_c, 0, 65, 0
1, 107752, Note_on_c, 0, 67, 51
1, 107787, Note_on_c, 0, 67, 0
1, 107840, Note_on_c, 0, 76, 56
1, 107848, Note_on_c, 0, 60, 42
1, 107885, Note_on_c, 0, 60, 0
1, 107896, Note_on_c, 0, 77, 0
1, 107936, Note_on_c, 0, 67, 40
1, 107983, Note_on_c, 0, 67, 0
1, 108022, Note_on_c, 0, 64, 42
1, 108067, Note_on_c, 0, 64, 0
1, 108109, Note_on_c, 0, 67, 46
1, 108117, Note_on_c, 0, 76, 0
1, 108145, Note_on_c, 0, 67, 0
1, 108192, Note_on_c, 0, 76, 64
1, 108201, Note_on_c, 0, 59, 47
1, 108232, Note_on_c, 0, 59, 0
1, 108298, Note_on_c, 0, 67, 35
1, 108331, Note_on_c, 0, 67, 0
1, 108372, Note_on_c, 0, 74, 56
1, 108378, Note_on_c, 0, 62, 42
1, 108384, Note_on_c, 0, 76, 0
1, 108417, Note_on_c, 0, 62, 0
1, 108426, Note_on_c, 0, 74, 0
1, 108465, Note_on_c, 0, 67, 51
1, 108500, Note_on_c, 0, 67, 0
1, 108552, Note_on_c, 0, 77, 69
1, 108560, Note_on_c, 0, 60, 52
1, 108588, Note_on_c, 0, 60, 0
1, 108635, Note_on_c, 0, 67, 57
1, 108674, Note_on_c, 0, 67, 0
1, 108727, Note_on_c, 0, 76, 68
1, 108737, Note_on_c, 0, 64, 56
1, 108749, Note_on_c, 0, 77, 0
1, 108772, Note_on_c, 0, 76, 0
1, 108774, Note_on_c, 0, 64, 0
1, 108815, Note_on_c, 0, 67, 59
1, 108859, Note_on_c, 0, 67, 0
1, 108912, Note_on_c, 0, 79, 75
1, 108920, Note_on_c, 0, 64, 58
1, 108948, Note_on_c, 0, 64, 0
1, 109005, Note_on_c, 0, 67, 61
1, 109036, Note_on_c, 0, 67, 0
1, 109096, Note_on_c, 0, 66, 65
1, 109124, Note_on_c, 0, 66, 0
1, 109181, Note_on_c, 0, 67, 59
1, 109212, Note_on_c, 0, 67, 0
1, 109272, Note_on_c, 0, 77, 56
1, 109277, Note_on_c, 0, 62, 52
1, 109298, Note_on_c, 0, 79, 0
1, 109309, Note_on_c, 0, 62, 0
1, 109373, Note_on_c, 0, 67, 42
1, 109416, Note_on_c, 0, 67, 0
1, 109479, Note_on_c, 0, 66, 35
1, 109564, Note_on_c, 0, 66, 0
1, 109564, Note_on_c, 0, 67, 35
1, 109653, Note_on_c, 0, 67, 0
1, 109657, Note_on_c, 0, 77, 0
1, 109680, Note_on_c, 0, 76, 53
1, 109687, Note_on_c, 0, 60, 35
1, 109799, Note_on_c, 0, 67, 39
1, 109808, Note_on_c, 0, 60, 0
1, 109899, Note_on_c, 0, 66, 40
1, 109902, Note_on_c, 0, 67, 0
1, 109954, Note_on_c, 0, 66, 0
1, 109972, Note_on_c, 0, 77, 49
1, 109982, Note_on_c, 0, 67, 35
1, 109992, Note_on_c, 0, 76, 0
1, 110003, Note_on_c, 0, 77, 0
1, 110017, Note_on_c, 0, 79, 54
1, 110045, Note_on_c, 0, 67, 0
1, 110057, Note_on_c, 0, 77, 58
1, 110063, Note_on_c, 0, 59, 41
1, 110074, Note_on_c, 0, 79, 0
1, 110100, Note_on_c, 0, 77, 0
1, 110110, Note_on_c, 0, 59, 0
1, 110158, Note_on_c, 0, 67, 42
1, 110257, Note_on_c, 0, 67, 0
1, 110262, Note_on_c, 0, 76, 58
1, 110269, Note_on_c, 0, 60, 35
1, 110295, Note_on_c, 0, 76, 0
1, 110340, Note_on_c, 0, 60, 0
1, 110368, Note_on_c, 0, 67, 42
1, 110448, Note_on_c, 0, 67, 0
1, 110470, Note_on_c, 0, 74, 47
1, 110488, Note_on_c, 0, 55, 35
1, 110572, Note_on_c, 0, 55, 0
1, 110574, Note_on_c, 0, 67, 35
1, 110607, Note_on_c, 0, 67, 0
1, 110662, Note_on_c, 0, 59, 42
1, 110697, Note_on_c, 0, 59, 0
1, 110765, Note_on_c, 0, 67, 49
1, 110797, Note_on_c, 0, 67, 0
1, 110853, Note_on_c, 0, 55, 38
1, 110886, Note_on_c, 0, 74, 0
1, 110889, Note_on_c, 0, 55, 0
1, 110942, Note_on_c, 0, 67, 36
1, 110976, Note_on_c, 0, 67, 0
1, 111026, Note_on_c, 0, 79, 63
1, 111035, Note_on_c, 0, 59, 36
1, 111068, Note_on_c, 0, 79, 0
1, 111078, Note_on_c, 0, 59, 0
1, 111123, Note_on_c, 0, 67, 48
1, 111168, Note_on_c, 0, 67, 0
1, 111228, Note_on_c, 0, 77, 68
1, 111233, Note_on_c, 0, 55, 45
1, 111322, Note_on_c, 0, 55, 0
1, 111322, Note_on_c, 0, 67, 37
1, 111402, Note_on_c, 0, 67, 0
1, 111429, Note_on_c, 0, 75, 49
1, 111431, Note_on_c, 0, 60, 35
1, 111470, Note_on_c, 0, 77, 0
1, 111485, Note_on_c, 0, 60, 0
1, 111512, Note_on_c, 0, 67, 38
1, 111566, Note_on_c, 0, 67, 0
1, 111568, Note_on_c, 0, 75, 0
1, 111608, Note_on_c, 0, 55, 43
1, 111647, Note_on_c, 0, 55, 0
1, 111714, Note_on_c, 0, 67, 36
1, 111769, Note_on_c, 0, 67, 0
1, 111805, Note_on_c, 0, 72, 58
1, 111810, Note_on_c, 0, 63, 54
1, 111830, Note_on_c, 0, 72, 0
1, 111840, Note_on_c, 0, 63, 0
1, 111893, Note_on_c, 0, 67, 51
1, 111953, Note_on_c, 0, 67, 0
1, 111984, Note_on_c, 0, 55, 50
1, 111994, Note_on_c, 0, 71, 64
1, 112028, Note_on_c, 0, 55, 0
1, 112071, Note_on_c, 0, 67, 49
1, 112112, Note_on_c, 0, 67, 0
1, 112177, Note_on_c, 0, 74, 49
1, 112182, Note_on_c, 0, 62, 35
1, 112202, Note_on_c, 0, 71, 0
1, 112237, Note_on_c, 0, 62, 0
1, 112268, Note_on_c, 0, 67, 52
1, 112285, Note_on_c, 0, 74, 0
1, 112308, Note_on_c, 0, 67, 0
1, 112356, Note_on_c, 0, 55, 54
1, 112386, Note_on_c, 0, 55, 0
1, 112440, Note_on_c, 0, 67, 50
1, 112474, Note_on_c, 0, 67, 0
1, 112537, Note_on_c, 0, 79, 64
1, 112540, Note_on_c, 0, 59, 50
1, 112574, Note_on_c, 0, 59, 0
1, 112627, Note_on_c, 0, 79, 0
1, 112631, Note_on_c, 0, 67, 46
1, 112665, Note_on_c, 0, 67, 0
1, 112718, Note_on_c, 0, 55, 51
1, 112762, Note_on_c, 0, 55, 0
1, 112814, Note_on_c, 0, 67, 39
1, 112850, Note_on_c, 0, 67, 0
1, 112902, Note_on_c, 0, 77, 62
1, 112918, Note_on_c, 0, 60, 35
1, 112973, Note_on_c, 0, 60, 0
1, 112996, Note_on_c, 0, 75, 57
1, 113005, Note_on_c, 0, 67, 42
1, 113038, Note_on_c, 0, 67, 0
1, 113039, Note_on_c, 0, 77, 0
1, 113076, Note_on_c, 0, 75, 0
1, 113086, Note_on_c, 0, 55, 42
1, 113149, Note_on_c, 0, 55, 0
1, 113184, Note_on_c, 0, 67, 48
1, 113227, Note_on_c, 0, 67, 0
1, 113264, Note_on_c, 0, 74, 62
1, 113282, Note_on_c, 0, 63, 35
1, 113333, Note_on_c, 0, 63, 0
1, 113353, Note_on_c, 0, 72, 71
1, 113355, Note_on_c, 0, 74, 0
1, 113355, Note_on_c, 0, 67, 45
1, 113383, Note_on_c, 0, 67, 0
1, 113388, Note_on_c, 0, 72, 0
1, 113434, Note_on_c, 0, 55, 44
1, 113440, Note_on_c, 0, 71, 65
1, 113502, Note_on_c, 0, 55, 0
1, 113523, Note_on_c, 0, 67, 35
1, 113559, Note_on_c, 0, 67, 0
1, 113612, Note_on_c, 0, 62, 40
1, 113622, Note_on_c, 0, 74, 53
1, 113630, Note_on_c, 0, 71, 0
1, 113708, Note_on_c, 0, 62, 0
1, 113715, Note_on_c, 0, 67, 49
1, 113761, Note_on_c, 0, 67, 0
1, 113766, Note_on_c, 0, 74, 0
1, 113806, Note_on_c, 0, 55, 47
1, 113849, Note_on_c, 0, 55, 0
1, 113882, Note_on_c, 0, 79, 67
1, 113887, Note_on_c, 0, 67, 39
1, 113946, Note_on_c, 0, 79, 0
1, 113966, Note_on_c, 0, 67, 0
1, 113972, Note_on_c, 0, 59, 44
1, 113976, Note_on_c, 0, 78, 58
1, 114007, Note_on_c, 0, 59, 0
1, 114038, Note_on_c, 0, 78, 0
1, 114048, Note_on_c, 0, 67, 45
1, 114058, Note_on_c, 0, 79, 60
1, 114125, Note_on_c, 0, 79, 0
1, 114141, Note_on_c, 0, 67, 0
1, 114158, Note_on_c, 0, 56, 41
1, 114259, Note_on_c, 0, 67, 35
1, 114264, Note_on_c, 0, 75, 54
1, 114296, Note_on_c, 0, 56, 0
1, 114357, Note_on_c, 0, 75, 0
1, 114359, Note_on_c, 0, 74, 49
1, 114365, Note_on_c, 0, 67, 0
1, 114365, Note_on_c, 0, 60, 35
1, 114442, Note_on_c, 0, 67, 42
1, 114442, Note_on_c, 0, 75, 46
1, 114458, Note_on_c, 0, 74, 0
1, 114466, Note_on_c, 0, 60, 0
1, 114510, Note_on_c, 0, 67, 0
1, 114518, Note_on_c, 0, 75, 0
1, 114559, Note_on_c, 0, 56, 35
1, 114662, Note_on_c, 0, 72, 42
1, 114663, Note_on_c, 0, 66, 37
1, 114745, Note_on_c, 0, 72, 0
1, 114755, Note_on_c, 0, 71, 43
1, 114763, Note_on_c, 0, 66, 0
1, 114763, Note_on_c, 0, 60, 35
1, 114816, Note_on_c, 0, 71, 0
1, 114840, Note_on_c, 0, 56, 0
1, 114846, Note_on_c, 0, 66, 35
1, 114846, Note_on_c, 0, 72, 47
1, 114873, Note_on_c, 0, 66, 0
1, 114913, Note_on_c, 0, 60, 0
1, 114951, Note_on_c, 0, 72, 0
1, 114959, Note_on_c, 0, 71, 52
1, 114961, Note_on_c, 0, 67, 39
1, 114969, Note_on_c, 0, 55, 35
1, 115140, Note_on_c, 0, 55, 0
1, 115140, Note_on_c, 0, 67, 0
1, 115142, Note_on_c, 0, 74, 44
1, 115165, Note_on_c, 0, 71, 0
1, 115178, Note_on_c, 0, 74, 0
1, 115337, Note_on_c, 0, 71, 50
1, 115347, Note_on_c, 0, 67, 35
1, 115348, Note_on_c, 0, 55, 35
1, 115507, Note_on_c, 0, 55, 0
1, 115514, Note_on_c, 0, 67, 0
1, 115528, Note_on_c, 0, 74, 38
1, 115560, Note_on_c, 0, 74, 0
1, 115561, Note_on_c, 0, 71, 0
1, 115734, Note_on_c, 0, 71, 51
1, 115747, Note_on_c, 0, 55, 35
1, 115751, Note_on_c, 0, 67, 36
1, 115915, Note_on_c, 0, 55, 0
1, 115925, Note_on_c, 0, 71, 0
1, 115925, Note_on_c, 0, 74, 35
1, 115937, Note_on_c, 0, 67, 0
1, 116037, Note_on_c, 0, 74, 0
1, 116564, Note_on_c, 0, 74, 47
1, 116568, Note_on_c, 0, 65, 38
1, 116573, Note_on_c, 0, 59, 35
1, 116573, Note_on_c, 0, 55, 35
1, 116574, Note_on_c, 0, 62, 35
1, 116710, Note_on_c, 0, 55, 0
1, 116734, Note_on_c, 0, 62, 0
1, 116734, Note_on_c, 0, 65, 0
1, 116740, Note_on_c, 0, 59, 0
1, 116754, Note_on_c, 0, 77, 45
1, 116784, Note_on_c, 0, 74, 0
1, 116806, Note_on_c, 0, 77, 0
1, 116954, Note_on_c, 0, 74, 49
1, 116968, Note_on_c, 0, 59, 35
1, 116968, Note_on_c, 0, 65, 35
1, 116969, Note_on_c, 0, 55, 35
1, 116970, Note_on_c, 0, 62, 35
1, 117139, Note_on_c, 0, 55, 0
1, 117146, Note_on_c, 0, 77, 44
1, 117153, Note_on_c, 0, 65, 0
1, 117166, Note_on_c, 0, 62, 0
1, 117167, Note_on_c, 0, 59, 0
1, 117191, Note_on_c, 0, 74, 0
1, 117214, Note_on_c, 0, 77, 0
1, 117365, Note_on_c, 0, 74, 48
1, 117377, Note_on_c, 0, 65, 35
1, 117377, Note_on_c, 0, 55, 35
1, 117383, Note_on_c, 0, 62, 35
1, 117384, Note_on_c, 0, 59, 35
1, 117559, Note_on_c, 0, 65, 0
1, 117582, Note_on_c, 0, 62, 0
1, 117590, Note_on_c, 0, 77, 35
1, 117597, Note_on_c, 0, 55, 0
1, 117598, Note_on_c, 0, 74, 0
1, 117610, Note_on_c, 0, 59, 0
1, 117800, Note_on_c, 0, 77, 0
1, 118511, Note_on_c, 0, 76, 58
1, 118720, Note_on_c, 0, 48, 45
1, 118795, Note_on_c, 0, 48, 0
1, 118812, Note_on_c, 0, 77, 51
1, 118835, Note_on_c, 0, 76, 0
1, 118858, Note_on_c, 0, 79, 58
1, 118878, Note_on_c, 0, 77, 0
1, 118878, Note_on_c, 0, 72, 70
1, 118886, Note_on_c, 0, 52, 60
1, 118893, Note_on_c, 0, 79, 0
1, 118898, Note_on_c, 0, 72, 0
1, 118908, Note_on_c, 0, 52, 0
1, 119070, Note_on_c, 0, 74, 68
1, 119074, Note_on_c, 0, 71, 63
1, 119075, Note_on_c, 0, 55, 54
1, 119091, Note_on_c, 0, 71, 0
1, 119097, Note_on_c, 0, 74, 0
1, 119099, Note_on_c, 0, 55, 0
1, 119257, Note_on_c, 0, 74, 73
1, 119259, Note_on_c, 0, 60, 61
1, 119261, Note_on_c, 0, 71, 65
1, 119288, Note_on_c, 0, 60, 0
1, 119324, Note_on_c, 0, 71, 0
1, 119414, Note_on_c, 0, 74, 0
1, 119437, Note_on_c, 0, 48, 57
1, 119438, Note_on_c, 0, 77, 73
1, 119449, Note_on_c, 0, 72, 56
1, 119480, Note_on_c, 0, 72, 0
1, 119483, Note_on_c, 0, 48, 0
1, 119490, Note_on_c, 0, 76, 66
1, 119494, Note_on_c, 0, 77, 0
1, 119593, Note_on_c, 0, 76, 0
1, 119623, Note_on_c, 0, 74, 59
1, 119628, Note_on_c, 0, 71, 56
1, 119629, Note_on_c, 0, 55, 49
1, 119656, Note_on_c, 0, 55, 0
1, 119809, Note_on_c, 0, 43, 55
1, 119832, Note_on_c, 0, 43, 0
1, 119887, Note_on_c, 0, 74, 0
1, 119943, Note_on_c, 0, 71, 0
1, 119991, Note_on_c, 0, 76, 78
1, 120177, Note_on_c, 0, 48, 64
1, 120194, Note_on_c, 0, 48, 0
1, 120254, Note_on_c, 0, 77, 58
1, 120290, Note_on_c, 0, 76, 0
1, 120321, Note_on_c, 0, 79, 64
1, 120328, Note_on_c, 0, 77, 0
1, 120338, Note_on_c, 0, 72, 67
1, 120343, Note_on_c, 0, 52, 71
1, 120350, Note_on_c, 0, 79, 0
1, 120353, Note_on_c, 0, 72, 0
1, 120358, Note_on_c, 0, 52, 0
1, 120529, Note_on_c, 0, 74, 72
1, 120532, Note_on_c, 0, 55, 60
1, 120540, Note_on_c, 0, 71, 54
1, 120554, Note_on_c, 0, 71, 0
1, 120554, Note_on_c, 0, 55, 0
1, 120554, Note_on_c, 0, 74, 0
1, 120716, Note_on_c, 0, 77, 68
1, 120716, Note_on_c, 0, 60, 56
1, 120719, Note_on_c, 0, 74, 57
1, 120746, Note_on_c, 0, 60, 0
1, 120809, Note_on_c, 0, 74, 0
1, 120843, Note_on_c, 0, 77, 0
1, 120894, Note_on_c, 0, 48, 60
1, 120896, Note_on_c, 0, 72, 63
1, 120900, Note_on_c, 0, 76, 55
1, 120910, Note_on_c, 0, 77, 61
1, 120912, Note_on_c, 0, 48, 0
1, 120915, Note_on_c, 0, 76, 0
1, 120950, Note_on_c, 0, 72, 0
1, 120955, Note_on_c, 0, 76, 73
1, 120968, Note_on_c, 0, 77, 0
1, 120995, Note_on_c, 0, 76, 0
1, 120999, Note_on_c, 0, 74, 65
1, 121028, Note_on_c, 0, 74, 0
1, 121035, Note_on_c, 0, 76, 55
1, 121061, Note_on_c, 0, 55, 47
1, 121072, Note_on_c, 0, 71, 49
1, 121076, Note_on_c, 0, 74, 54
1, 121081, Note_on_c, 0, 76, 0
1, 121085, Note_on_c, 0, 55, 0
1, 121242, Note_on_c, 0, 71, 0
1, 121246, Note_on_c, 0, 74, 0
1, 121255, Note_on_c, 0, 43, 52
1, 121277, Note_on_c, 0, 43, 0
1, 121459, Note_on_c, 0, 77, 52
1, 121468, Note_on_c, 0, 57, 35
1, 121646, Note_on_c, 0, 60, 35
1, 121722, Note_on_c, 0, 77, 0
1, 121753, Note_on_c, 0, 79, 54
1, 121788, Note_on_c, 0, 77, 66
1, 121806, Note_on_c, 0, 60, 0
1, 121811, Note_on_c, 0, 79, 0
1, 121825, Note_on_c, 0, 55, 40
1, 121828, Note_on_c, 0, 76, 56
1, 121829, Note_on_c, 0, 77, 0
1, 121843, Note_on_c, 0, 76, 0
1, 121843, Note_on_c, 0, 57, 0
1, 122014, Note_on_c, 0, 76, 64
1, 122015, Note_on_c, 0, 60, 35
1, 122034, Note_on_c, 0, 76, 0
1, 122165, Note_on_c, 0, 60, 0
1, 122211, Note_on_c, 0, 81, 70
1, 122224, Note_on_c, 0, 53, 36
1, 122268, Note_on_c, 0, 55, 0
1, 122381, Note_on_c, 0, 60, 35
1, 122496, Note_on_c, 0, 83, 57
1, 122502, Note_on_c, 0, 81, 0
1, 122538, Note_on_c, 0, 84, 60
1, 122547, Note_on_c, 0, 83, 0
1, 122561, Note_on_c, 0, 60, 0
1, 122561, Note_on_c, 0, 79, 71
1, 122576, Note_on_c, 0, 79, 0
1, 122578, Note_on_c, 0, 52, 37
1, 122579, Note_on_c, 0, 84, 0
1, 122627, Note_on_c, 0, 53, 0
1, 122747, Note_on_c, 0, 79, 65
1, 122760, Note_on_c, 0, 60, 48
1, 122764, Note_on_c, 0, 79, 0
1, 122810, Note_on_c, 0, 60, 0
1, 122810, Note_on_c, 0, 52, 0
1, 122935, Note_on_c, 0, 79, 74
1, 123009, Note_on_c, 0, 77, 68
1, 123016, Note_on_c, 0, 79, 0
1, 123032, Note_on_c, 0, 77, 0
1, 123097, Note_on_c, 0, 77, 72
1, 123109, Note_on_c, 0, 67, 46
1, 123109, Note_on_c, 0, 59, 38
1, 123142, Note_on_c, 0, 59, 0
1, 123142, Note_on_c, 0, 67, 0
1, 123147, Note_on_c, 0, 77, 0
1, 123188, Note_on_c, 0, 74, 67
1, 123210, Note_on_c, 0, 74, 0
1, 123283, Note_on_c, 0, 77, 76
1, 123360, Note_on_c, 0, 76, 71
1, 123381, Note_on_c, 0, 77, 0
1, 123386, Note_on_c, 0, 76, 0
1, 123452, Note_on_c, 0, 76, 73
1, 123457, Note_on_c, 0, 60, 50
1, 123462, Note_on_c, 0, 67, 44
1, 123481, Note_on_c, 0, 67, 0
1, 123481, Note_on_c, 0, 60, 0
1, 123499, Note_on_c, 0, 76, 0
1, 123537, Note_on_c, 0, 72, 71
1, 123583, Note_on_c, 0, 72, 0
1, 123625, Note_on_c, 0, 73, 77
1, 123633, Note_on_c, 0, 55, 48
1, 123638, Note_on_c, 0, 59, 46
1, 123708, Note_on_c, 0, 74, 72
1, 123714, Note_on_c, 0, 73, 0
1, 123763, Note_on_c, 0, 74, 0
1, 123799, Note_on_c, 0, 76, 73
1, 123835, Note_on_c, 0, 76, 0
1, 123880, Note_on_c, 0, 74, 78
1, 123912, Note_on_c, 0, 74, 0
1, 123970, Note_on_c, 0, 72, 72
1, 123987, Note_on_c, 0, 72, 0
1, 123990, Note_on_c, 0, 59, 0
1, 124019, Note_on_c, 0, 55, 0
1, 124051, Note_on_c, 0, 71, 71
1, 124068, Note_on_c, 0, 71, 0
1, 124132, Note_on_c, 0, 69, 71
1, 124149, Note_on_c, 0, 69, 0
1, 124212, Note_on_c, 0, 67, 75
1, 124232, Note_on_c, 0, 67, 0
1, 124309, Note_on_c, 0, 76, 89
1, 124317, Note_on_c, 0, 36, 70
1, 124343, Note_on_c, 0, 36, 0
1, 124406, Note_on_c, 0, 40, 62
1, 124428, Note_on_c, 0, 40, 0
1, 124484, Note_on_c, 0, 43, 70
1, 124506, Note_on_c, 0, 43, 0
1, 124579, Note_on_c, 0, 48, 67
1, 124579, Note_on_c, 0, 77, 64
1, 124584, Note_on_c, 0, 76, 0
1, 124602, Note_on_c, 0, 48, 0
1, 124619, Note_on_c, 0, 79, 75
1, 124643, Note_on_c, 0, 72, 74
1, 124643, Note_on_c, 0, 40, 77
1, 124647, Note_on_c, 0, 77, 0
1, 124649, Note_on_c, 0, 79, 0
1, 124665, Note_on_c, 0, 40, 0
1, 124665, Note_on_c, 0, 72, 0
1, 124738, Note_on_c, 0, 52, 68
1, 124756, Note_on_c, 0, 52, 0
1, 124818, Note_on_c, 0, 43, 79
1, 124821, Note_on_c, 0, 74, 73
1, 124824, Note_on_c, 0, 71, 73
1, 124840, Note_on_c, 0, 43, 0
1, 124841, Note_on_c, 0, 74, 0
1, 124843, Note_on_c, 0, 71, 0
1, 124912, Note_on_c, 0, 55, 68
1, 124929, Note_on_c, 0, 55, 0
1, 124998, Note_on_c, 0, 74, 85
1, 124999, Note_on_c, 0, 71, 73
1, 125004, Note_on_c, 0, 48, 80
1, 125022, Note_on_c, 0, 48, 0
1, 125086, Note_on_c, 0, 52, 72
1, 125088, Note_on_c, 0, 71, 0
1, 125121, Note_on_c, 0, 52, 0
1, 125135, Note_on_c, 0, 74, 0
1, 125173, Note_on_c, 0, 77, 78
1, 125175, Note_on_c, 0, 55, 70
1, 125189, Note_on_c, 0, 72, 63
1, 125199, Note_on_c, 0, 76, 73
1, 125204, Note_on_c, 0, 55, 0
1, 125224, Note_on_c, 0, 77, 0
1, 125244, Note_on_c, 0, 72, 0
1, 125252, Note_on_c, 0, 60, 65
1, 125272, Note_on_c, 0, 60, 0
1, 125352, Note_on_c, 0, 74, 78
1, 125354, Note_on_c, 0, 76, 0
1, 125354, Note_on_c, 0, 43, 69
1, 125357, Note_on_c, 0, 71, 69
1, 125373, Note_on_c, 0, 43, 0
1, 125443, Note_on_c, 0, 47, 75
1, 125460, Note_on_c, 0, 47, 0
1, 125531, Note_on_c, 0, 50, 74
1, 125548, Note_on_c, 0, 50, 0
1, 125578, Note_on_c, 0, 71, 0
1, 125616, Note_on_c, 0, 74, 0
1, 125616, Note_on_c, 0, 55, 70
1, 125634, Note_on_c, 0, 55, 0
1, 125699, Note_on_c, 0, 76, 87
1, 125709, Note_on_c, 0, 36, 80
1, 125727, Note_on_c, 0, 36, 0
1, 125800, Note_on_c, 0, 40, 59
1, 125825, Note_on_c, 0, 40, 0
1, 125880, Note_on_c, 0, 43, 71
1, 125898, Note_on_c, 0, 43, 0
1, 125976, Note_on_c, 0, 48, 65
1, 125982, Note_on_c, 0, 77, 64
1, 125992, Note_on_c, 0, 76, 0
1, 126000, Note_on_c, 0, 48, 0
1, 126014, Note_on_c, 0, 79, 72
1, 126020, Note_on_c, 0, 77, 0
1, 126045, Note_on_c, 0, 72, 75
1, 126050, Note_on_c, 0, 40, 79
1, 126055, Note_on_c, 0, 79, 0
1, 126070, Note_on_c, 0, 40, 0
1, 126070, Note_on_c, 0, 72, 0
1, 126138, Note_on_c, 0, 52, 71
1, 126158, Note_on_c, 0, 52, 0
1, 126217, Note_on_c, 0, 43, 83
1, 126221, Note_on_c, 0, 74, 73
1, 126225, Note_on_c, 0, 71, 67
1, 126235, Note_on_c, 0, 43, 0
1, 126243, Note_on_c, 0, 71, 0
1, 126243, Note_on_c, 0, 74, 0
1, 126309, Note_on_c, 0, 55, 73
1, 126324, Note_on_c, 0, 55, 0
1, 126396, Note_on_c, 0, 77, 80
1, 126396, Note_on_c, 0, 74, 70
1, 126399, Note_on_c, 0, 48, 78
1, 126420, Note_on_c, 0, 48, 0
1, 126447, Note_on_c, 0, 74, 0
1, 126483, Note_on_c, 0, 52, 71
1, 126507, Note_on_c, 0, 52, 0
1, 126526, Note_on_c, 0, 77, 0
1, 126563, Note_on_c, 0, 55, 76
1, 126564, Note_on_c, 0, 76, 68
1, 126564, Note_on_c, 0, 72, 65
1, 126588, Note_on_c, 0, 55, 0
1, 126591, Note_on_c, 0, 72, 0
1, 126596, Note_on_c, 0, 77, 69
1, 126600, Note_on_c, 0, 76, 0
1, 126620, Note_on_c, 0, 77, 0
1, 126633, Note_on_c, 0, 60, 62
1, 126646, Note_on_c, 0, 76, 69
1, 126648, Note_on_c, 0, 60, 0
1, 126671, Note_on_c, 0, 76, 0
1, 126732, Note_on_c, 0, 71, 63
1, 126733, Note_on_c, 0, 74, 78
1, 126742, Note_on_c, 0, 43, 54
1, 126774, Note_on_c, 0, 43, 0
1, 126827, Note_on_c, 0, 47, 69
1, 126855, Note_on_c, 0, 47, 0
1, 126918, Note_on_c, 0, 50, 65
1, 126940, Note_on_c, 0, 50, 0
1, 126959, Note_on_c, 0, 74, 0
1, 126973, Note_on_c, 0, 71, 0
1, 127006, Note_on_c, 0, 55, 62
1, 127029, Note_on_c, 0, 55, 0
1, 127097, Note_on_c, 0, 77, 75
1, 127099, Note_on_c, 0, 57, 65
1, 127119, Note_on_c, 0, 57, 0
1, 127194, Note_on_c, 0, 60, 61
1, 127220, Note_on_c, 0, 60, 0
1, 127272, Note_on_c, 0, 57, 65
1, 127303, Note_on_c, 0, 57, 0
1, 127339, Note_on_c, 0, 77, 0
1, 127366, Note_on_c, 0, 60, 61
1, 127367, Note_on_c, 0, 79, 61
1, 127391, Note_on_c, 0, 60, 0
1, 127399, Note_on_c, 0, 77, 72
1, 127411, Note_on_c, 0, 79, 0
1, 127429, Note_on_c, 0, 76, 81
1, 127439, Note_on_c, 0, 77, 0
1, 127443, Note_on_c, 0, 55, 61
1, 127454, Note_on_c, 0, 76, 0
1, 127472, Note_on_c, 0, 55, 0
1, 127540, Note_on_c, 0, 60, 57
1, 127565, Note_on_c, 0, 60, 0
1, 127607, Note_on_c, 0, 76, 69
1, 127617, Note_on_c, 0, 55, 65
1, 127627, Note_on_c, 0, 76, 0
1, 127645, Note_on_c, 0, 55, 0
1, 127708, Note_on_c, 0, 60, 64
1, 127736, Note_on_c, 0, 60, 0
1, 127794, Note_on_c, 0, 81, 81
1, 127799, Note_on_c, 0, 53, 71
1, 127819, Note_on_c, 0, 53, 0
1, 127885, Note_on_c, 0, 60, 70
1, 127906, Note_on_c, 0, 60, 0
1, 127969, Note_on_c, 0, 53, 68
1, 127991, Note_on_c, 0, 53, 0
1, 128057, Note_on_c, 0, 83, 71
1, 128063, Note_on_c, 0, 60, 57
1, 128069, Note_on_c, 0, 81, 0
1, 128085, Note_on_c, 0, 60, 0
1, 128091, Note_on_c, 0, 84, 70
1, 128104, Note_on_c, 0, 83, 0
1, 128125, Note_on_c, 0, 79, 79
1, 128131, Note_on_c, 0, 52, 69
1, 128141, Note_on_c, 0, 84, 0
1, 128148, Note_on_c, 0, 79, 0
1, 128153, Note_on_c, 0, 52, 0
1, 128227, Note_on_c, 0, 60, 59
1, 128252, Note_on_c, 0, 60, 0
1, 128299, Note_on_c, 0, 79, 79
1, 128303, Note_on_c, 0, 52, 68
1, 128335, Note_on_c, 0, 79, 0
1, 128345, Note_on_c, 0, 52, 0
1, 128401, Note_on_c, 0, 60, 68
1, 128415, Note_on_c, 0, 60, 0
1, 128483, Note_on_c, 0, 80, 87
1, 128558, Note_on_c, 0, 81, 79
1, 128580, Note_on_c, 0, 80, 0
1, 128594, Note_on_c, 0, 81, 0
1, 128645, Note_on_c, 0, 77, 82
1, 128654, Note_on_c, 0, 53, 51
1, 128657, Note_on_c, 0, 62, 60
1, 128675, Note_on_c, 0, 53, 0
1, 128676, Note_on_c, 0, 77, 0
1, 128679, Note_on_c, 0, 62, 0
1, 128727, Note_on_c, 0, 74, 76
1, 128758, Note_on_c, 0, 74, 0
1, 128829, Note_on_c, 0, 72, 78
1, 128841, Note_on_c, 0, 64, 64
1, 128846, Note_on_c, 0, 55, 53
1, 128997, Note_on_c, 0, 64, 0
1, 129022, Note_on_c, 0, 71, 69
1, 129030, Note_on_c, 0, 62, 47
1, 129037, Note_on_c, 0, 72, 0
1, 129157, Note_on_c, 0, 71, 0
1, 129201, Note_on_c, 0, 55, 0
1, 129202, Note_on_c, 0, 62, 0
1, 129204, Note_on_c, 0, 72, 72
1, 129214, Note_on_c, 0, 60, 46
1, 129218, Note_on_c, 0, 64, 42
1, 129252, Note_on_c, 0, 72, 0
1, 129264, Note_on_c, 0, 67, 74
1, 129297, Note_on_c, 0, 67, 0
1, 129329, Note_on_c, 0, 76, 73
1, 129345, Note_on_c, 0, 76, 0
1, 129380, Note_on_c, 0, 72, 75
1, 129398, Note_on_c, 0, 72, 0
1, 129440, Note_on_c, 0, 79, 74
1, 129460, Note_on_c, 0, 79, 0
1, 129500, Note_on_c, 0, 76, 69
1, 129517, Note_on_c, 0, 76, 0
1, 129556, Note_on_c, 0, 84, 82
1, 129576, Note_on_c, 0, 64, 0
1, 129600, Note_on_c, 0, 60, 0
1, 129609, Note_on_c, 0, 83, 82
1, 129624, Note_on_c, 0, 84, 0
1, 129664, Note_on_c, 0, 81, 77
1, 129673, Note_on_c, 0, 83, 0
1, 129721, Note_on_c, 0, 81, 0
1, 129721, Note_on_c, 0, 79, 71
1, 129764, Note_on_c, 0, 79, 0
1, 129772, Note_on_c, 0, 77, 70
1, 129795, Note_on_c, 0, 77, 0
1, 129833, Note_on_c, 0, 76, 56
1, 129876, Note_on_c, 0, 76, 0
1, 129886, Note_on_c, 0, 73, 79
1, 129916, Note_on_c, 0, 73, 0
1, 129943, Note_on_c, 0, 74, 71
1, 129972, Note_on_c, 0, 74, 0
1, 130001, Note_on_c, 0, 77, 68
1, 130033, Note_on_c, 0, 77, 0
1, 130052, Note_on_c, 0, 81, 77
1, 130057, Note_on_c, 0, 57, 50
1, 130059, Note_on_c, 0, 62, 63
1, 130064, Note_on_c, 0, 53, 42
1, 130077, Note_on_c, 0, 57, 0
1, 130080, Note_on_c, 0, 62, 0
1, 130087, Note_on_c, 0, 53, 0
1, 130116, Note_on_c, 0, 81, 0
1, 130116, Note_on_c, 0, 77, 63
1, 130170, Note_on_c, 0, 77, 0
1, 130171, Note_on_c, 0, 74, 60
1, 130207, Note_on_c, 0, 74, 0
1, 130223, Note_on_c, 0, 64, 68
1, 130226, Note_on_c, 0, 79, 72
1, 130228, Note_on_c, 0, 60, 59
1, 130230, Note_on_c, 0, 55, 53
1, 130263, Note_on_c, 0, 64, 0
1, 130280, Note_on_c, 0, 76, 66
1, 130284, Note_on_c, 0, 79, 0
1, 130326, Note_on_c, 0, 60, 0
1, 130342, Note_on_c, 0, 76, 0
1, 130342, Note_on_c, 0, 72, 65
1, 130402, Note_on_c, 0, 72, 0
1, 130402, Note_on_c, 0, 77, 72
1, 130403, Note_on_c, 0, 65, 66
1, 130409, Note_on_c, 0, 62, 58
1, 130442, Note_on_c, 0, 65, 0
1, 130452, Note_on_c, 0, 74, 67
1, 130466, Note_on_c, 0, 77, 0
1, 130510, Note_on_c, 0, 71, 69
1, 130514, Note_on_c, 0, 74, 0
1, 130525, Note_on_c, 0, 62, 0
1, 130533, Note_on_c, 0, 71, 0
1, 130570, Note_on_c, 0, 72, 80
1, 130572, Note_on_c, 0, 60, 64
1, 130573, Note_on_c, 0, 64, 63
1, 130578, Note_on_c, 0, 55, 0
1, 130596, Note_on_c, 0, 64, 0
1, 130626, Note_on_c, 0, 72, 0
1, 130628, Note_on_c, 0, 67, 75
1, 130653, Note_on_c, 0, 67, 0
1, 130653, Note_on_c, 0, 60, 0
1, 130686, Note_on_c, 0, 76, 81
1, 130713, Note_on_c, 0, 76, 0
1, 130739, Note_on_c, 0, 72, 78
1, 130769, Note_on_c, 0, 72, 0
1, 130804, Note_on_c, 0, 79, 75
1, 130824, Note_on_c, 0, 79, 0
1, 130852, Note_on_c, 0, 76, 78
1, 130868, Note_on_c, 0, 76, 0
1, 130920, Note_on_c, 0, 84, 93
1, 130975, Note_on_c, 0, 83, 86
1, 130996, Note_on_c, 0, 84, 0
1, 131036, Note_on_c, 0, 81, 81
1, 131059, Note_on_c, 0, 83, 0
1, 131086, Note_on_c, 0, 79, 83
1, 131101, Note_on_c, 0, 81, 0
1, 131139, Note_on_c, 0, 79, 0
1, 131144, Note_on_c, 0, 77, 75
1, 131172, Note_on_c, 0, 77, 0
1, 131197, Note_on_c, 0, 76, 66
1, 131243, Note_on_c, 0, 76, 0
1, 131245, Note_on_c, 0, 73, 90
1, 131283, Note_on_c, 0, 73, 0
1, 131298, Note_on_c, 0, 74, 76
1, 131358, Note_on_c, 0, 74, 0
1, 131358, Note_on_c, 0, 77, 76
1, 131393, Note_on_c, 0, 77, 0
1, 131409, Note_on_c, 0, 81, 81
1, 131418, Note_on_c, 0, 53, 61
1, 131418, Note_on_c, 0, 62, 71
1, 131420, Note_on_c, 0, 57, 59
1, 131439, Note_on_c, 0, 57, 0
1, 131439, Note_on_c, 0, 62, 0
1, 131439, Note_on_c, 0, 53, 0
1, 131469, Note_on_c, 0, 77, 76
1, 131482, Note_on_c, 0, 81, 0
1, 131524, Note_on_c, 0, 74, 61
1, 131525, Note_on_c, 0, 77, 0
1, 131562, Note_on_c, 0, 74, 0
1, 131580, Note_on_c, 0, 60, 73
1, 131580, Note_on_c, 0, 64, 75
1, 131581, Note_on_c, 0, 79, 81
1, 131581, Note_on_c, 0, 55, 70
1, 131603, Note_on_c, 0, 64, 0
1, 131607, Note_on_c, 0, 60, 0
1, 131638, Note_on_c, 0, 76, 75
1, 131651, Note_on_c, 0, 79, 0
1, 131696, Note_on_c, 0, 76, 0
1, 131696, Note_on_c, 0, 72, 68
1, 131731, Note_on_c, 0, 72, 0
1, 131753, Note_on_c, 0, 65, 76
1, 131753, Note_on_c, 0, 77, 75
1, 131754, Note_on_c, 0, 62, 69
1, 131779, Note_on_c, 0, 65, 0
1, 131811, Note_on_c, 0, 74, 81
1, 131818, Note_on_c, 0, 77, 0
1, 131832, Note_on_c, 0, 62, 0
1, 131867, Note_on_c, 0, 71, 81
1, 131868, Note_on_c, 0, 74, 0
1, 131899, Note_on_c, 0, 55, 0
1, 131919, Note_on_c, 0, 72, 93
1, 131925, Note_on_c, 0, 60, 72
1, 131928, Note_on_c, 0, 64, 72
1, 131945, Note_on_c, 0, 60, 0
1, 131945, Note_on_c, 0, 72, 0
1, 131946, Note_on_c, 0, 64, 0
1, 131952, Note_on_c, 0, 71, 0
1, 132115, Note_on_c, 0, 67, 91
1, 132121, Note_on_c, 0, 55, 72
1, 132135, Note_on_c, 0, 67, 0
1, 132139, Note_on_c, 0, 55, 0
1, 132312, Note_on_c, 0, 60, 89
1, 132315, Note_on_c, 0, 36, 74
1, 132317, Note_on_c, 0, 48, 74
1, 132332, Note_on_c, 0, 60, 0
1, 132333, Note_on_c, 0, 36, 0
1, 132334, Note_on_c, 0, 48, 0
1, 132752, Note_on_c, 0, 76, 69
1, 132758, Note_on_c, 0, 60, 35
1, 132860, Note_on_c, 0, 67, 39
1, 132947, Note_on_c, 0, 66, 40
1, 132954, Note_on_c, 0, 67, 0
1, 133011, Note_on_c, 0, 60, 0
1, 133024, Note_on_c, 0, 67, 48
1, 133088, Note_on_c, 0, 67, 0
1, 133093, Note_on_c, 0, 60, 50
1, 133094, Note_on_c, 0, 66, 0
1, 133094, Note_on_c, 0, 76, 0
1, 133130, Note_on_c, 0, 77, 57
1, 133161, Note_on_c, 0, 76, 72
1, 133163, Note_on_c, 0, 77, 0
1, 133177, Note_on_c, 0, 76, 0
1, 133181, Note_on_c, 0, 67, 41
1, 133188, Note_on_c, 0, 74, 69
1, 133198, Note_on_c, 0, 60, 0
1, 133224, Note_on_c, 0, 74, 0
1, 133226, Note_on_c, 0, 76, 75
1, 133236, Note_on_c, 0, 67, 0
1, 133266, Note_on_c, 0, 79, 72
1, 133271, Note_on_c, 0, 62, 40
1, 133286, Note_on_c, 0, 76, 0
1, 133359, Note_on_c, 0, 77, 75
1, 133362, Note_on_c, 0, 67, 39
1, 133384, Note_on_c, 0, 62, 0
1, 133407, Note_on_c, 0, 79, 0
1, 133445, Note_on_c, 0, 67, 0
1, 133450, Note_on_c, 0, 76, 76
1, 133457, Note_on_c, 0, 64, 38
1, 133480, Note_on_c, 0, 77, 0
1, 133511, Note_on_c, 0, 64, 0
1, 133531, Note_on_c, 0, 74, 68
1, 133536, Note_on_c, 0, 67, 40
1, 133550, Note_on_c, 0, 76, 0
1, 133604, Note_on_c, 0, 74, 0
1, 133616, Note_on_c, 0, 67, 0
1, 133616, Note_on_c, 0, 72, 59
1, 133624, Note_on_c, 0, 65, 43
1, 133694, Note_on_c, 0, 72, 0
1, 133702, Note_on_c, 0, 65, 0
1, 133702, Note_on_c, 0, 71, 56
1, 133707, Note_on_c, 0, 67, 37
1, 133789, Note_on_c, 0, 71, 0
1, 133792, Note_on_c, 0, 72, 52
1, 133794, Note_on_c, 0, 67, 0
1, 133802, Note_on_c, 0, 64, 45
1, 133856, Note_on_c, 0, 64, 0
1, 133888, Note_on_c, 0, 67, 41
1, 133944, Note_on_c, 0, 72, 0
1, 133969, Note_on_c, 0, 73, 77
1, 133976, Note_on_c, 0, 67, 0
1, 133981, Note_on_c, 0, 58, 51
1, 133986, Note_on_c, 0, 73, 0
1, 134019, Note_on_c, 0, 58, 0
1, 134059, Note_on_c, 0, 67, 44
1, 134140, Note_on_c, 0, 67, 0
1, 134144, Note_on_c, 0, 74, 79
1, 134157, Note_on_c, 0, 59, 45
1, 134165, Note_on_c, 0, 74, 0
1, 134192, Note_on_c, 0, 59, 0
1, 134231, Note_on_c, 0, 67, 46
1, 134280, Note_on_c, 0, 67, 0
1, 134323, Note_on_c, 0, 75, 78
1, 134326, Note_on_c, 0, 59, 43
1, 134340, Note_on_c, 0, 75, 0
1, 134369, Note_on_c, 0, 59, 0
1, 134404, Note_on_c, 0, 67, 44
1, 134490, Note_on_c, 0, 67, 0
1, 134502, Note_on_c, 0, 76, 75
1, 134512, Note_on_c, 0, 60, 40
1, 134525, Note_on_c, 0, 76, 0
1, 134602, Note_on_c, 0, 67, 47
1, 134648, Note_on_c, 0, 60, 0
1, 134676, Note_on_c, 0, 79, 71
1, 134683, Note_on_c, 0, 67, 0
1, 134703, Note_on_c, 0, 62, 43
1, 134736, Note_on_c, 0, 62, 0
1, 134761, Note_on_c, 0, 77, 73
1, 134773, Note_on_c, 0, 79, 0
1, 134777, Note_on_c, 0, 67, 44
1, 134844, Note_on_c, 0, 67, 0
1, 134869, Note_on_c, 0, 76, 66
1, 134882, Note_on_c, 0, 77, 0
1, 134883, Note_on_c, 0, 60, 40
1, 134958, Note_on_c, 0, 67, 35
1, 135031, Note_on_c, 0, 66, 45
1, 135035, Note_on_c, 0, 67, 0
1, 135101, Note_on_c, 0, 60, 0
1, 135113, Note_on_c, 0, 67, 42
1, 135126, Note_on_c, 0, 76, 0
1, 135132, Note_on_c, 0, 66, 0
1, 135148, Note_on_c, 0, 77, 58
1, 135186, Note_on_c, 0, 76, 62
1, 135192, Note_on_c, 0, 77, 0
1, 135194, Note_on_c, 0, 67, 0
1, 135225, Note_on_c, 0, 76, 0
1, 135225, Note_on_c, 0, 59, 39
1, 135229, Note_on_c, 0, 74, 55
1, 135310, Note_on_c, 0, 67, 35
1, 135356, Note_on_c, 0, 74, 0
1, 135387, Note_on_c, 0, 67, 0
1, 135387, Note_on_c, 0, 66, 37
1, 135481, Note_on_c, 0, 67, 39
1, 135487, Note_on_c, 0, 59, 0
1, 135498, Note_on_c, 0, 66, 0
1, 135578, Note_on_c, 0, 67, 0
1, 135581, Note_on_c, 0, 77, 69
1, 135593, Note_on_c, 0, 59, 35
1, 135670, Note_on_c, 0, 67, 36
1, 135758, Note_on_c, 0, 66, 39
1, 135765, Note_on_c, 0, 67, 0
1, 135828, Note_on_c, 0, 59, 0
1, 135836, Note_on_c, 0, 67, 46
1, 135910, Note_on_c, 0, 77, 0
1, 135914, Note_on_c, 0, 66, 0
1, 135927, Note_on_c, 0, 59, 44
1, 135929, Note_on_c, 0, 67, 0
1, 135941, Note_on_c, 0, 79, 64
1, 135975, Note_on_c, 0, 77, 64
1, 135982, Note_on_c, 0, 79, 0
1, 135994, Note_on_c, 0, 77, 0
1, 136004, Note_on_c, 0, 76, 72
1, 136014, Note_on_c, 0, 67, 45
1, 136038, Note_on_c, 0, 77, 75
1, 136047, Note_on_c, 0, 59, 0
1, 136054, Note_on_c, 0, 76, 0
1, 136096, Note_on_c, 0, 81, 70
1, 136107, Note_on_c, 0, 77, 0
1, 136109, Note_on_c, 0, 67, 0
1, 136116, Note_on_c, 0, 60, 41
1, 136187, Note_on_c, 0, 67, 48
1, 136187, Note_on_c, 0, 79, 72
1, 136199, Note_on_c, 0, 60, 0
1, 136226, Note_on_c, 0, 81, 0
1, 136274, Note_on_c, 0, 67, 0
1, 136275, Note_on_c, 0, 77, 65
1, 136284, Note_on_c, 0, 62, 41
1, 136299, Note_on_c, 0, 79, 0
1, 136340, Note_on_c, 0, 62, 0
1, 136357, Note_on_c, 0, 76, 60
1, 136360, Note_on_c, 0, 67, 41
1, 136388, Note_on_c, 0, 77, 0
1, 136417, Note_on_c, 0, 76, 0
1, 136437, Note_on_c, 0, 74, 55
1, 136450, Note_on_c, 0, 67, 0
1, 136455, Note_on_c, 0, 64, 40
1, 136498, Note_on_c, 0, 64, 0
1, 136506, Note_on_c, 0, 74, 0
1, 136518, Note_on_c, 0, 72, 57
1, 136523, Note_on_c, 0, 67, 44
1, 136594, Note_on_c, 0, 72, 0
1, 136601, Note_on_c, 0, 71, 64
1, 136607, Note_on_c, 0, 67, 0
1, 136620, Note_on_c, 0, 65, 44
1, 136621, Note_on_c, 0, 71, 0
1, 136659, Note_on_c, 0, 65, 0
1, 136697, Note_on_c, 0, 72, 66
1, 136704, Note_on_c, 0, 67, 43
1, 136713, Note_on_c, 0, 72, 0
1, 136747, Note_on_c, 0, 67, 0
1, 136777, Note_on_c, 0, 74, 73
1, 136795, Note_on_c, 0, 62, 44
1, 136800, Note_on_c, 0, 74, 0
1, 136827, Note_on_c, 0, 62, 0
1, 136858, Note_on_c, 0, 76, 72
1, 136868, Note_on_c, 0, 67, 46
1, 136873, Note_on_c, 0, 76, 0
1, 136900, Note_on_c, 0, 67, 0
1, 136939, Note_on_c, 0, 77, 75
1, 136953, Note_on_c, 0, 77, 0
1, 137019, Note_on_c, 0, 79, 71
1, 137027, Note_on_c, 0, 67, 50
1, 137034, Note_on_c, 0, 79, 0
1, 137059, Note_on_c, 0, 67, 0
1, 137092, Note_on_c, 0, 81, 74
1, 137104, Note_on_c, 0, 62, 49
1, 137120, Note_on_c, 0, 81, 0
1, 137133, Note_on_c, 0, 62, 0
1, 137178, Note_on_c, 0, 83, 72
1, 137185, Note_on_c, 0, 67, 50
1, 137198, Note_on_c, 0, 83, 0
1, 137213, Note_on_c, 0, 67, 0
1, 137259, Note_on_c, 0, 84, 77
1, 137271, Note_on_c, 0, 59, 52
1, 137280, Note_on_c, 0, 84, 0
1, 137319, Note_on_c, 0, 59, 0
1, 137337, Note_on_c, 0, 86, 82
1, 137341, Note_on_c, 0, 67, 54
1, 137353, Note_on_c, 0, 86, 0
1, 137379, Note_on_c, 0, 67, 0
1, 137420, Note_on_c, 0, 88, 75
1, 137442, Note_on_c, 0, 88, 0
1, 137442, Note_on_c, 0, 55, 51
1, 137462, Note_on_c, 0, 55, 0
1, 137497, Note_on_c, 0, 89, 75
1, 137512, Note_on_c, 0, 89, 0
1, 137522, Note_on_c, 0, 67, 48
1, 137592, Note_on_c, 0, 67, 0
1, 137592, Note_on_c, 0, 87, 80
1, 137613, Note_on_c, 0, 60, 46
1, 137699, Note_on_c, 0, 67, 38
1, 137766, Note_on_c, 0, 60, 0
1, 137774, Note_on_c, 0, 67, 0
1, 137774, Note_on_c, 0, 64, 44
1, 137858, Note_on_c, 0, 64, 0
1, 137863, Note_on_c, 0, 67, 44
1, 137963, Note_on_c, 0, 88, 50
1, 137970, Note_on_c, 0, 67, 0
1, 137980, Note_on_c, 0, 60, 35
1, 137999, Note_on_c, 0, 87, 0
1, 138051, Note_on_c, 0, 67, 38
1, 138102, Note_on_c, 0, 88, 0
1, 138142, Note_on_c, 0, 67, 0
1, 138144, Note_on_c, 0, 64, 41
1, 138228, Note_on_c, 0, 67, 53
1, 138232, Note_on_c, 0, 60, 0
1, 138242, Note_on_c, 0, 64, 0
1, 138245, Note_on_c, 0, 67, 0
1, 138399, Note_on_c, 0, 70, 65
1, 138403, Note_on_c, 0, 48, 42
1, 138494, Note_on_c, 0, 52, 52
1, 138519, Note_on_c, 0, 48, 0
1, 138577, Note_on_c, 0, 55, 50
1, 138592, Note_on_c, 0, 52, 0
1, 138646, Note_on_c, 0, 60, 49
1, 138651, Note_on_c, 0, 55, 0
1, 138675, Note_on_c, 0, 76, 61
1, 138711, Note_on_c, 0, 70, 0
1, 138744, Note_on_c, 0, 79, 64
1, 138769, Note_on_c, 0, 76, 0
1, 138792, Note_on_c, 0, 82, 77
1, 138797, Note_on_c, 0, 60, 0
1, 138804, Note_on_c, 0, 79, 0
1, 138862, Note_on_c, 0, 79, 79
1, 138872, Note_on_c, 0, 82, 0
1, 138912, Note_on_c, 0, 76, 67
1, 138913, Note_on_c, 0, 79, 0
1, 138962, Note_on_c, 0, 79, 69
1, 138963, Note_on_c, 0, 76, 0
1, 139013, Note_on_c, 0, 76, 75
1, 139041, Note_on_c, 0, 79, 0
1, 139058, Note_on_c, 0, 70, 73
1, 139075, Note_on_c, 0, 76, 0
1, 139116, Note_on_c, 0, 70, 0
1, 139131, Note_on_c, 0, 69, 68
1, 139132, Note_on_c, 0, 41, 46
1, 139184, Note_on_c, 0, 41, 0
1, 139204, Note_on_c, 0, 45, 47
1, 139255, Note_on_c, 0, 45, 0
1, 139267, Note_on_c, 0, 48, 44
1, 139323, Note_on_c, 0, 48, 0
1, 139327, Note_on_c, 0, 53, 46
1, 139388, Note_on_c, 0, 72, 66
1, 139440, Note_on_c, 0, 69, 0
1, 139464, Note_on_c, 0, 53, 0
1, 139470, Note_on_c, 0, 77, 59
1, 139490, Note_on_c, 0, 72, 0
1, 139500, Note_on_c, 0, 81, 59
1, 139507, Note_on_c, 0, 77, 0
1, 139564, Note_on_c, 0, 77, 76
1, 139579, Note_on_c, 0, 81, 0
1, 139617, Note_on_c, 0, 72, 77
1, 139624, Note_on_c, 0, 77, 0
1, 139652, Note_on_c, 0, 72, 0
1, 139662, Note_on_c, 0, 77, 72
1, 139715, Note_on_c, 0, 72, 77
1, 139743, Note_on_c, 0, 77, 0
1, 139753, Note_on_c, 0, 69, 68
1, 139766, Note_on_c, 0, 72, 0
1, 139781, Note_on_c, 0, 69, 0
1, 139818, Note_on_c, 0, 67, 77
1, 139826, Note_on_c, 0, 45, 48
1, 139881, Note_on_c, 0, 45, 0
1, 139884, Note_on_c, 0, 49, 58
1, 139946, Note_on_c, 0, 49, 0
1, 139946, Note_on_c, 0, 52, 60
1, 139994, Note_on_c, 0, 57, 69
1, 139995, Note_on_c, 0, 52, 0
1, 140024, Note_on_c, 0, 57, 0
1, 140060, Note_on_c, 0, 73, 74
1, 140123, Note_on_c, 0, 76, 72
1, 140131, Note_on_c, 0, 67, 0
1, 140133, Note_on_c, 0, 73, 0
1, 140160, Note_on_c, 0, 76, 0
1, 140171, Note_on_c, 0, 79, 83
1, 140224, Note_on_c, 0, 76, 83
1, 140229, Note_on_c, 0, 79, 0
1, 140266, Note_on_c, 0, 76, 0
1, 140269, Note_on_c, 0, 73, 79
1, 140309, Note_on_c, 0, 73, 0
1, 140318, Note_on_c, 0, 76, 79
1, 140372, Note_on_c, 0, 76, 0
1, 140372, Note_on_c, 0, 73, 85
1, 140417, Note_on_c, 0, 67, 67
1, 140423, Note_on_c, 0, 73, 0
1, 140438, Note_on_c, 0, 67, 0
1, 140488, Note_on_c, 0, 50, 57
1, 140488, Note_on_c, 0, 66, 72
1, 140540, Note_on_c, 0, 50, 0
1, 140556, Note_on_c, 0, 54, 56
1, 140599, Note_on_c, 0, 57, 61
1, 140601, Note_on_c, 0, 54, 0
1, 140644, Note_on_c, 0, 57, 0
1, 140653, Note_on_c, 0, 62, 58
1, 140679, Note_on_c, 0, 62, 0
1, 140716, Note_on_c, 0, 69, 59
1, 140722, Note_on_c, 0, 66, 0
1, 140778, Note_on_c, 0, 74, 62
1, 140803, Note_on_c, 0, 69, 0
1, 140825, Note_on_c, 0, 74, 0
1, 140825, Note_on_c, 0, 78, 72
1, 140886, Note_on_c, 0, 74, 72
1, 140895, Note_on_c, 0, 78, 0
1, 140936, Note_on_c, 0, 69, 68
1, 140937, Note_on_c, 0, 74, 0
1, 140973, Note_on_c, 0, 69, 0
1, 140989, Note_on_c, 0, 74, 69
1, 141042, Note_on_c, 0, 69, 68
1, 141090, Note_on_c, 0, 66, 69
1, 141092, Note_on_c, 0, 74, 0
1, 141110, Note_on_c, 0, 69, 0
1, 141129, Note_on_c, 0, 66, 0
1, 141156, Note_on_c, 0, 47, 64
1, 141158, Note_on_c, 0, 65, 71
1, 141198, Note_on_c, 0, 47, 0
1, 141222, Note_on_c, 0, 50, 46
1, 141270, Note_on_c, 0, 50, 0
1, 141270, Note_on_c, 0, 55, 59
1, 141319, Note_on_c, 0, 55, 0
1, 141334, Note_on_c, 0, 59, 51
1, 141384, Note_on_c, 0, 59, 0
1, 141392, Note_on_c, 0, 71, 63
1, 141452, Note_on_c, 0, 74, 56
1, 141489, Note_on_c, 0, 71, 0
1, 141497, Note_on_c, 0, 74, 0
1, 141503, Note_on_c, 0, 77, 68
1, 141518, Note_on_c, 0, 65, 0
1, 141562, Note_on_c, 0, 74, 75
1, 141581, Note_on_c, 0, 77, 0
1, 141610, Note_on_c, 0, 74, 0
1, 141616, Note_on_c, 0, 71, 63
1, 141636, Note_on_c, 0, 71, 0
1, 141651, Note_on_c, 0, 74, 65
1, 141707, Note_on_c, 0, 71, 67
1, 141726, Note_on_c, 0, 74, 0
1, 141748, Note_on_c, 0, 71, 0
1, 141748, Note_on_c, 0, 65, 65
1, 141779, Note_on_c, 0, 65, 0
1, 141812, Note_on_c, 0, 48, 52
1, 141812, Note_on_c, 0, 64, 66
1, 141852, Note_on_c, 0, 48, 0
1, 141873, Note_on_c, 0, 52, 56
1, 141927, Note_on_c, 0, 52, 0
1, 141928, Note_on_c, 0, 55, 53
1, 141962, Note_on_c, 0, 55, 0
1, 141994, Note_on_c, 0, 60, 53
1, 142014, Note_on_c, 0, 60, 0
1, 142051, Note_on_c, 0, 67, 65
1, 142056, Note_on_c, 0, 64, 0
1, 142116, Note_on_c, 0, 72, 59
1, 142165, Note_on_c, 0, 72, 0
1, 142167, Note_on_c, 0, 76, 68
1, 142168, Note_on_c, 0, 67, 0
1, 142224, Note_on_c, 0, 72, 78
1, 142248, Note_on_c, 0, 76, 0
1, 142275, Note_on_c, 0, 72, 0
1, 142278, Note_on_c, 0, 67, 70
1, 142302, Note_on_c, 0, 67, 0
1, 142333, Note_on_c, 0, 72, 68
1, 142393, Note_on_c, 0, 67, 61
1, 142408, Note_on_c, 0, 72, 0
1, 142438, Note_on_c, 0, 67, 0
1, 142446, Note_on_c, 0, 64, 58
1, 142474, Note_on_c, 0, 64, 0
1, 142502, Note_on_c, 0, 57, 54
1, 142507, Note_on_c, 0, 53, 42
1, 142565, Note_on_c, 0, 62, 70
1, 142624, Note_on_c, 0, 69, 66
1, 142663, Note_on_c, 0, 57, 0
1, 142665, Note_on_c, 0, 69, 0
1, 142668, Note_on_c, 0, 53, 0
1, 142672, Note_on_c, 0, 74, 73
1, 142680, Note_on_c, 0, 62, 0
1, 142731, Note_on_c, 0, 69, 67
1, 142768, Note_on_c, 0, 69, 0
1, 142779, Note_on_c, 0, 62, 63
1, 142831, Note_on_c, 0, 62, 0
1, 142839, Note_on_c, 0, 74, 0
1, 142854, Note_on_c, 0, 57, 44
1, 142860, Note_on_c, 0, 54, 47
1, 142909, Note_on_c, 0, 62, 59
1, 142970, Note_on_c, 0, 57, 0
1, 142973, Note_on_c, 0, 69, 65
1, 142980, Note_on_c, 0, 54, 0
1, 143004, Note_on_c, 0, 69, 0
1, 143020, Note_on_c, 0, 72, 68
1, 143025, Note_on_c, 0, 62, 0
1, 143066, Note_on_c, 0, 69, 66
1, 143093, Note_on_c, 0, 72, 0
1, 143113, Note_on_c, 0, 62, 57
1, 143116, Note_on_c, 0, 69, 0
1, 143154, Note_on_c, 0, 62, 0
1, 143194, Note_on_c, 0, 71, 51
1, 143204, Note_on_c, 0, 55, 38
1, 143241, Note_on_c, 0, 55, 0
1, 143310, Note_on_c, 0, 67, 46
1, 143393, Note_on_c, 0, 67, 0
1, 143408, Note_on_c, 0, 66, 44
1, 143446, Note_on_c, 0, 71, 0
1, 143493, Note_on_c, 0, 66, 0
1, 143493, Note_on_c, 0, 67, 40
1, 143587, Note_on_c, 0, 66, 46
1, 143592, Note_on_c, 0, 67, 0
1, 143663, Note_on_c, 0, 66, 0
1, 143663, Note_on_c, 0, 67, 51
1, 143667, Note_on_c, 0, 79, 71
1, 143685, Note_on_c, 0, 79, 0
1, 143723, Note_on_c, 0, 67, 0
1, 143747, Note_on_c, 0, 81, 79
1, 143765, Note_on_c, 0, 81, 0
1, 143766, Note_on_c, 0, 65, 45
1, 143800, Note_on_c, 0, 65, 0
1, 143830, Note_on_c, 0, 83, 86
1, 143838, Note_on_c, 0, 67, 41
1, 143854, Note_on_c, 0, 83, 0
1, 143884, Note_on_c, 0, 67, 0
1, 143926, Note_on_c, 0, 84, 86
1, 143933, Note_on_c, 0, 64, 44
1, 144016, Note_on_c, 0, 67, 42
1, 144120, Note_on_c, 0, 64, 0
1, 144120, Note_on_c, 0, 60, 35
1, 144125, Note_on_c, 0, 67, 0
1, 144200, Note_on_c, 0, 67, 36
1, 144281, Note_on_c, 0, 60, 0
1, 144293, Note_on_c, 0, 64, 38
1, 144295, Note_on_c, 0, 67, 0
1, 144380, Note_on_c, 0, 83, 70
1, 144380, Note_on_c, 0, 67, 37
1, 144468, Note_on_c, 0, 81, 70
1, 144468, Note_on_c, 0, 60, 45
1, 144473, Note_on_c, 0, 67, 0
1, 144480, Note_on_c, 0, 64, 0
1, 144485, Note_on_c, 0, 84, 0
1, 144538, Note_on_c, 0, 79, 77
1, 144550, Note_on_c, 0, 67, 47
1, 144563, Note_on_c, 0, 81, 0
1, 144563, Note_on_c, 0, 83, 0
1, 144573, Note_on_c, 0, 79, 0
1, 144578, Note_on_c, 0, 60, 0
1, 144628, Note_on_c, 0, 79, 77
1, 144643, Note_on_c, 0, 67, 0
1, 144644, Note_on_c, 0, 62, 40
1, 144714, Note_on_c, 0, 67, 46
1, 144714, Note_on_c, 0, 77, 70
1, 144740, Note_on_c, 0, 79, 0
1, 144789, Note_on_c, 0, 76, 71
1, 144797, Note_on_c, 0, 62, 0
1, 144799, Note_on_c, 0, 67, 0
1, 144815, Note_on_c, 0, 60, 41
1, 144817, Note_on_c, 0, 77, 0
1, 144872, Note_on_c, 0, 74, 73
1, 144878, Note_on_c, 0, 60, 0
1, 144891, Note_on_c, 0, 76, 0
1, 144910, Note_on_c, 0, 67, 37
1, 144941, Note_on_c, 0, 74, 0
1, 144971, Note_on_c, 0, 79, 79
1, 144978, Note_on_c, 0, 67, 0
1, 144991, Note_on_c, 0, 79, 0
1, 144993, Note_on_c, 0, 59, 41
1, 145032, Note_on_c, 0, 59, 0
1, 145067, Note_on_c, 0, 67, 45
1, 145149, Note_on_c, 0, 67, 0
1, 145159, Note_on_c, 0, 77, 75
1, 145172, Note_on_c, 0, 55, 41
1, 145188, Note_on_c, 0, 77, 0
1, 145201, Note_on_c, 0, 55, 0
1, 145262, Note_on_c, 0, 67, 38
1, 145364, Note_on_c, 0, 75, 65
1, 145366, Note_on_c, 0, 67, 0
1, 145374, Note_on_c, 0, 60, 44
1, 145459, Note_on_c, 0, 67, 40
1, 145490, Note_on_c, 0, 75, 0
1, 145555, Note_on_c, 0, 67, 0
1, 145555, Note_on_c, 0, 66, 42
1, 145563, Note_on_c, 0, 76, 65
1, 145628, Note_on_c, 0, 66, 0
1, 145635, Note_on_c, 0, 67, 46
1, 145724, Note_on_c, 0, 60, 0
1, 145726, Note_on_c, 0, 66, 49
1, 145741, Note_on_c, 0, 67, 0
1, 145814, Note_on_c, 0, 66, 0
1, 145815, Note_on_c, 0, 67, 59
1, 145912, Note_on_c, 0, 69, 67
1, 145928, Note_on_c, 0, 67, 0
1, 145988, Note_on_c, 0, 76, 0
1, 145992, Note_on_c, 0, 69, 0
1, 145992, Note_on_c, 0, 67, 70
1, 146089, Note_on_c, 0, 65, 66
1, 146122, Note_on_c, 0, 67, 0
1, 146161, Note_on_c, 0, 67, 57
1, 146202, Note_on_c, 0, 65, 0
1, 146253, Note_on_c, 0, 64, 60
1, 146257, Note_on_c, 0, 67, 0
1, 146323, Note_on_c, 0, 64, 0
1, 146330, Note_on_c, 0, 67, 59
1, 146345, Note_on_c, 0, 79, 67
1, 146363, Note_on_c, 0, 79, 0
1, 146409, Note_on_c, 0, 67, 0
1, 146421, Note_on_c, 0, 80, 76
1, 146436, Note_on_c, 0, 80, 0
1, 146437, Note_on_c, 0, 65, 44
1, 146472, Note_on_c, 0, 65, 0
1, 146496, Note_on_c, 0, 67, 47
1, 146499, Note_on_c, 0, 81, 70
1, 146514, Note_on_c, 0, 81, 0
1, 146581, Note_on_c, 0, 82, 75
1, 146592, Note_on_c, 0, 62, 39
1, 146593, Note_on_c, 0, 67, 0
1, 146600, Note_on_c, 0, 82, 0
1, 146663, Note_on_c, 0, 62, 0
1, 146668, Note_on_c, 0, 83, 67
1, 146668, Note_on_c, 0, 67, 45
1, 146683, Note_on_c, 0, 83, 0
1, 146743, Note_on_c, 0, 67, 0
1, 146763, Note_on_c, 0, 84, 58
1, 146763, Note_on_c, 0, 64, 35
1, 146854, Note_on_c, 0, 67, 38
1, 146934, Note_on_c, 0, 60, 36
1, 146947, Note_on_c, 0, 67, 0
1, 146962, Note_on_c, 0, 64, 0
1, 147023, Note_on_c, 0, 67, 37
1, 147116, Note_on_c, 0, 67, 0
1, 147126, Note_on_c, 0, 64, 35
1, 147158, Note_on_c, 0, 60, 0
1, 147189, Note_on_c, 0, 83, 57
1, 147201, Note_on_c, 0, 67, 39
1, 147284, Note_on_c, 0, 67, 0
1, 147284, Note_on_c, 0, 64, 0
1, 147287, Note_on_c, 0, 81, 56
1, 147288, Note_on_c, 0, 84, 0
1, 147288, Note_on_c, 0, 60, 42
1, 147349, Note_on_c, 0, 83, 0
1, 147357, Note_on_c, 0, 79, 65
1, 147368, Note_on_c, 0, 67, 44
1, 147372, Note_on_c, 0, 81, 0
1, 147377, Note_on_c, 0, 60, 0
1, 147390, Note_on_c, 0, 79, 0
1, 147453, Note_on_c, 0, 79, 65
1, 147456, Note_on_c, 0, 67, 0
1, 147460, Note_on_c, 0, 62, 35
1, 147523, Note_on_c, 0, 79, 0
1, 147526, Note_on_c, 0, 62, 0
1, 147528, Note_on_c, 0, 67, 44
1, 147533, Note_on_c, 0, 77, 56
1, 147613, Note_on_c, 0, 67, 0
1, 147621, Note_on_c, 0, 60, 39
1, 147621, Note_on_c, 0, 76, 55
1, 147629, Note_on_c, 0, 77, 0
1, 147690, Note_on_c, 0, 76, 0
1, 147699, Note_on_c, 0, 67, 39
1, 147700, Note_on_c, 0, 74, 54
1, 147705, Note_on_c, 0, 60, 0
1, 147745, Note_on_c, 0, 74, 0
1, 147780, Note_on_c, 0, 79, 64
1, 147787, Note_on_c, 0, 67, 0
1, 147800, Note_on_c, 0, 59, 35
1, 147805, Note_on_c, 0, 79, 0
1, 147838, Note_on_c, 0, 59, 0
1, 147868, Note_on_c, 0, 67, 38
1, 147959, Note_on_c, 0, 67, 0
1, 147964, Note_on_c, 0, 77, 59
1, 147971, Note_on_c, 0, 55, 50
1, 147982, Note_on_c, 0, 77, 0
1, 147999, Note_on_c, 0, 55, 0
1, 148055, Note_on_c, 0, 67, 40
1, 148138, Note_on_c, 0, 67, 0
1, 148148, Note_on_c, 0, 76, 58
1, 148163, Note_on_c, 0, 60, 35
1, 148233, Note_on_c, 0, 67, 42
1, 148313, Note_on_c, 0, 60, 0
1, 148327, Note_on_c, 0, 67, 0
1, 148328, Note_on_c, 0, 64, 39
1, 148349, Note_on_c, 0, 76, 0
1, 148377, Note_on_c, 0, 64, 0
1, 148422, Note_on_c, 0, 67, 41
1, 148432, Note_on_c, 0, 81, 67
1, 148449, Note_on_c, 0, 81, 0
1, 148457, Note_on_c, 0, 67, 0
1, 148459, Note_on_c, 0, 83, 56
1, 148488, Note_on_c, 0, 81, 77
1, 148493, Note_on_c, 0, 83, 0
1, 148498, Note_on_c, 0, 60, 48
1, 148599, Note_on_c, 0, 69, 35
1, 148625, Note_on_c, 0, 83, 66
1, 148638, Note_on_c, 0, 69, 0
1, 148649, Note_on_c, 0, 81, 0
1, 148659, Note_on_c, 0, 65, 49
1, 148666, Note_on_c, 0, 84, 74
1, 148674, Note_on_c, 0, 83, 0
1, 148684, Note_on_c, 0, 84, 0
1, 148694, Note_on_c, 0, 60, 0
1, 148721, Note_on_c, 0, 65, 0
1, 148749, Note_on_c, 0, 69, 49
1, 148755, Note_on_c, 0, 84, 70
1, 148772, Note_on_c, 0, 84, 0
1, 148804, Note_on_c, 0, 69, 0
1, 148837, Note_on_c, 0, 84, 58
1, 148848, Note_on_c, 0, 60, 42
1, 148925, Note_on_c, 0, 67, 40
1, 148941, Note_on_c, 0, 84, 0
1, 148984, Note_on_c, 0, 67, 0
1, 148999, Note_on_c, 0, 60, 0
1, 149014, Note_on_c, 0, 64, 35
1, 149048, Note_on_c, 0, 64, 0
1, 149078, Note_on_c, 0, 67, 38
1, 149112, Note_on_c, 0, 67, 0
1, 149112, Note_on_c, 0, 86, 76
1, 149131, Note_on_c, 0, 86, 0
1, 149137, Note_on_c, 0, 88, 67
1, 149165, Note_on_c, 0, 58, 50
1, 149166, Note_on_c, 0, 86, 79
1, 149183, Note_on_c, 0, 88, 0
1, 149255, Note_on_c, 0, 65, 42
1, 149303, Note_on_c, 0, 88, 71
1, 149315, Note_on_c, 0, 65, 0
1, 149323, Note_on_c, 0, 86, 0
1, 149341, Note_on_c, 0, 62, 43
1, 149343, Note_on_c, 0, 89, 72
1, 149348, Note_on_c, 0, 88, 0
1, 149358, Note_on_c, 0, 89, 0
1, 149381, Note_on_c, 0, 58, 0
1, 149382, Note_on_c, 0, 62, 0
1, 149412, Note_on_c, 0, 65, 40
1, 149434, Note_on_c, 0, 89, 67
1, 149449, Note_on_c, 0, 89, 0
1, 149480, Note_on_c, 0, 65, 0
1, 149525, Note_on_c, 0, 57, 40
1, 149527, Note_on_c, 0, 89, 69
1, 149602, Note_on_c, 0, 65, 40
1, 149620, Note_on_c, 0, 89, 0
1, 149690, Note_on_c, 0, 65, 0
1, 149696, Note_on_c, 0, 60, 39
1, 149730, Note_on_c, 0, 57, 0
1, 149734, Note_on_c, 0, 60, 0
1, 149763, Note_on_c, 0, 65, 51
1, 149794, Note_on_c, 0, 65, 0
1, 149811, Note_on_c, 0, 77, 73
1, 149824, Note_on_c, 0, 77, 0
1, 149839, Note_on_c, 0, 79, 53
1, 149850, Note_on_c, 0, 53, 52
1, 149861, Note_on_c, 0, 77, 86
1, 149880, Note_on_c, 0, 79, 0
1, 149944, Note_on_c, 0, 62, 49
1, 149990, Note_on_c, 0, 79, 71
1, 150021, Note_on_c, 0, 62, 0
1, 150022, Note_on_c, 0, 81, 77
1, 150031, Note_on_c, 0, 77, 0
1, 150032, Note_on_c, 0, 53, 0
1, 150038, Note_on_c, 0, 57, 37
1, 150039, Note_on_c, 0, 79, 0
1, 150051, Note_on_c, 0, 81, 0
1, 150099, Note_on_c, 0, 57, 0
1, 150119, Note_on_c, 0, 81, 81
1, 150129, Note_on_c, 0, 62, 47
1, 150142, Note_on_c, 0, 81, 0
1, 150169, Note_on_c, 0, 62, 0
1, 150201, Note_on_c, 0, 81, 81
1, 150211, Note_on_c, 0, 55, 52
1, 150245, Note_on_c, 0, 81, 0
1, 150290, Note_on_c, 0, 79, 68
1, 150298, Note_on_c, 0, 64, 43
1, 150310, Note_on_c, 0, 79, 0
1, 150327, Note_on_c, 0, 64, 0
1, 150333, Note_on_c, 0, 55, 0
1, 150373, Note_on_c, 0, 77, 75
1, 150381, Note_on_c, 0, 60, 47
1, 150391, Note_on_c, 0, 77, 0
1, 150418, Note_on_c, 0, 60, 0
1, 150454, Note_on_c, 0, 76, 78
1, 150472, Note_on_c, 0, 76, 0
1, 150472, Note_on_c, 0, 64, 44
1, 150496, Note_on_c, 0, 64, 0
1, 150543, Note_on_c, 0, 74, 73
1, 150543, Note_on_c, 0, 55, 50
1, 150557, Note_on_c, 0, 74, 0
1, 150630, Note_on_c, 0, 65, 51
1, 150670, Note_on_c, 0, 65, 0
1, 150697, Note_on_c, 0, 55, 0
1, 150720, Note_on_c, 0, 79, 72
1, 150730, Note_on_c, 0, 59, 45
1, 150736, Note_on_c, 0, 79, 0
1, 150773, Note_on_c, 0, 59, 0
1, 150804, Note_on_c, 0, 65, 61
1, 150824, Note_on_c, 0, 65, 0
1, 150899, Note_on_c, 0, 77, 73
1, 150911, Note_on_c, 0, 48, 42
1, 150992, Note_on_c, 0, 55, 43
1, 151069, Note_on_c, 0, 55, 0
1, 151098, Note_on_c, 0, 52, 37
1, 151098, Note_on_c, 0, 76, 58
1, 151117, Note_on_c, 0, 48, 0
1, 151128, Note_on_c, 0, 77, 0
1, 151149, Note_on_c, 0, 76, 0
1, 151191, Note_on_c, 0, 52, 0
1, 151191, Note_on_c, 0, 55, 39
1, 151216, Note_on_c, 0, 69, 72
1, 151219, Note_on_c, 0, 55, 0
1, 151236, Note_on_c, 0, 69, 0
1, 151251, Note_on_c, 0, 71, 66
1, 151264, Note_on_c, 0, 48, 48
1, 151272, Note_on_c, 0, 69, 77
1, 151292, Note_on_c, 0, 71, 0
1, 151355, Note_on_c, 0, 57, 37
1, 151389, Note_on_c, 0, 71, 69
1, 151413, Note_on_c, 0, 57, 0
1, 151429, Note_on_c, 0, 53, 44
1, 151431, Note_on_c, 0, 69, 0
1, 151433, Note_on_c, 0, 72, 78
1, 151443, Note_on_c, 0, 71, 0
1, 151458, Note_on_c, 0, 72, 0
1, 151470, Note_on_c, 0, 48, 0
1, 151515, Note_on_c, 0, 57, 49
1, 151523, Note_on_c, 0, 72, 78
1, 151540, Note_on_c, 0, 72, 0
1, 151553, Note_on_c, 0, 53, 0
1, 151574, Note_on_c, 0, 57, 0
1, 151604, Note_on_c, 0, 72, 72
1, 151623, Note_on_c, 0, 48, 40
1, 151697, Note_on_c, 0, 55, 42
1, 151769, Note_on_c, 0, 55, 0
1, 151779, Note_on_c, 0, 52, 43
1, 151808, Note_on_c, 0, 72, 0
1, 151820, Note_on_c, 0, 48, 0
1, 151825, Note_on_c, 0, 52, 0
1, 151848, Note_on_c, 0, 55, 47
1, 151876, Note_on_c, 0, 74, 60
1, 151881, Note_on_c, 0, 55, 0
1, 151891, Note_on_c, 0, 74, 0
1, 151893, Note_on_c, 0, 76, 68
1, 151921, Note_on_c, 0, 74, 87
1, 151928, Note_on_c, 0, 46, 56
1, 151935, Note_on_c, 0, 76, 0
1, 152018, Note_on_c, 0, 53, 46
1, 152052, Note_on_c, 0, 76, 72
1, 152079, Note_on_c, 0, 53, 0
1, 152095, Note_on_c, 0, 77, 78
1, 152102, Note_on_c, 0, 50, 50
1, 152103, Note_on_c, 0, 76, 0
1, 152107, Note_on_c, 0, 74, 0
1, 152117, Note_on_c, 0, 77, 0
1, 152130, Note_on_c, 0, 46, 0
1, 152163, Note_on_c, 0, 50, 0
1, 152180, Note_on_c, 0, 77, 84
1, 152188, Note_on_c, 0, 53, 46
1, 152206, Note_on_c, 0, 77, 0
1, 152241, Note_on_c, 0, 53, 0
1, 152271, Note_on_c, 0, 77, 75
1, 152283, Note_on_c, 0, 45, 51
1, 152367, Note_on_c, 0, 53, 41
1, 152445, Note_on_c, 0, 48, 46
1, 152449, Note_on_c, 0, 53, 0
1, 152460, Note_on_c, 0, 45, 0
1, 152485, Note_on_c, 0, 77, 0
1, 152489, Note_on_c, 0, 48, 0
1, 152518, Note_on_c, 0, 53, 46
1, 152538, Note_on_c, 0, 53, 0
1, 152553, Note_on_c, 0, 77, 68
1, 152565, Note_on_c, 0, 79, 79
1, 152568, Note_on_c, 0, 77, 0
1, 152592, Note_on_c, 0, 41, 58
1, 152592, Note_on_c, 0, 77, 84
1, 152611, Note_on_c, 0, 79, 0
1, 152684, Note_on_c, 0, 50, 61
1, 152716, Note_on_c, 0, 79, 77
1, 152747, Note_on_c, 0, 77, 0
1, 152749, Note_on_c, 0, 41, 0
1, 152767, Note_on_c, 0, 50, 0
1, 152767, Note_on_c, 0, 81, 79
1, 152767, Note_on_c, 0, 45, 59
1, 152777, Note_on_c, 0, 79, 0
1, 152795, Note_on_c, 0, 81, 0
1, 152811, Note_on_c, 0, 45, 0
1, 152850, Note_on_c, 0, 50, 55
1, 152852, Note_on_c, 0, 81, 87
1, 152874, Note_on_c, 0, 81, 0
1, 152894, Note_on_c, 0, 50, 0
1, 152938, Note_on_c, 0, 81, 90
1, 152943, Note_on_c, 0, 43, 67
1, 152980, Note_on_c, 0, 81, 0
1, 153003, Note_on_c, 0, 43, 0
1, 153021, Note_on_c, 0, 79, 81
1, 153022, Note_on_c, 0, 52, 67
1, 153049, Note_on_c, 0, 79, 0
1, 153054, Note_on_c, 0, 52, 0
1, 153104, Note_on_c, 0, 77, 82
1, 153105, Note_on_c, 0, 48, 68
1, 153131, Note_on_c, 0, 77, 0
1, 153133, Note_on_c, 0, 48, 0
1, 153186, Note_on_c, 0, 76, 83
1, 153186, Note_on_c, 0, 52, 65
1, 153203, Note_on_c, 0, 76, 0
1, 153214, Note_on_c, 0, 52, 0
1, 153270, Note_on_c, 0, 76, 83
1, 153270, Note_on_c, 0, 43, 70
1, 153310, Note_on_c, 0, 76, 0
1, 153323, Note_on_c, 0, 43, 0
1, 153351, Note_on_c, 0, 74, 79
1, 153355, Note_on_c, 0, 53, 67
1, 153376, Note_on_c, 0, 74, 0
1, 153386, Note_on_c, 0, 53, 0
1, 153439, Note_on_c, 0, 50, 71
1, 153440, Note_on_c, 0, 72, 84
1, 153456, Note_on_c, 0, 72, 0
1, 153481, Note_on_c, 0, 50, 0
1, 153517, Note_on_c, 0, 53, 72
1, 153517, Note_on_c, 0, 71, 83
1, 153537, Note_on_c, 0, 53, 0
1, 153542, Note_on_c, 0, 71, 0
1, 153617, Note_on_c, 0, 79, 90
1, 153801, Note_on_c, 0, 52, 60
1, 153809, Note_on_c, 0, 48, 51
1, 153846, Note_on_c, 0, 79, 0
1, 153852, Note_on_c, 0, 76, 71
1, 153907, Note_on_c, 0, 76, 0
1, 153914, Note_on_c, 0, 52, 0
1, 153920, Note_on_c, 0, 72, 77
1, 153952, Note_on_c, 0, 72, 0
1, 153953, Note_on_c, 0, 48, 0
1, 153975, Note_on_c, 0, 71, 81
1, 153976, Note_on_c, 0, 53, 54
1, 153976, Note_on_c, 0, 50, 50
1, 154031, Note_on_c, 0, 71, 0
1, 154038, Note_on_c, 0, 74, 76
1, 154090, Note_on_c, 0, 67, 70
1, 154096, Note_on_c, 0, 74, 0
1, 154098, Note_on_c, 0, 53, 0
1, 154128, Note_on_c, 0, 50, 0
1, 154146, Note_on_c, 0, 52, 53
1, 154147, Note_on_c, 0, 55, 58
1, 154152, Note_on_c, 0, 72, 71
1, 154166, Note_on_c, 0, 67, 0
1, 154199, Note_on_c, 0, 55, 0
1, 154207, Note_on_c, 0, 76, 75
1, 154213, Note_on_c, 0, 72, 0
1, 154231, Note_on_c, 0, 52, 0
1, 154255, Note_on_c, 0, 76, 0
1, 154257, Note_on_c, 0, 67, 67
1, 154280, Note_on_c, 0, 67, 0
1, 154324, Note_on_c, 0, 74, 79
1, 154506, Note_on_c, 0, 47, 58
1, 154507, Note_on_c, 0, 43, 49
1, 154551, Note_on_c, 0, 74, 0
1, 154557, Note_on_c, 0, 71, 58
1, 154599, Note_on_c, 0, 71, 0
1, 154612, Note_on_c, 0, 67, 67
1, 154642, Note_on_c, 0, 47, 0
1, 154665, Note_on_c, 0, 43, 0
1, 154670, Note_on_c, 0, 67, 0
1, 154670, Note_on_c, 0, 66, 73
1, 154680, Note_on_c, 0, 45, 51
1, 154680, Note_on_c, 0, 48, 57
1, 154717, Note_on_c, 0, 66, 0
1, 154725, Note_on_c, 0, 67, 72
1, 154775, Note_on_c, 0, 67, 0
1, 154778, Note_on_c, 0, 62, 70
1, 154825, Note_on_c, 0, 48, 0
1, 154833, Note_on_c, 0, 45, 0
1, 154834, Note_on_c, 0, 65, 76
1, 154840, Note_on_c, 0, 62, 0
1, 154844, Note_on_c, 0, 47, 55
1, 154846, Note_on_c, 0, 50, 55
1, 154881, Note_on_c, 0, 67, 80
1, 154883, Note_on_c, 0, 47, 0
1, 154889, Note_on_c, 0, 50, 0
1, 154891, Note_on_c, 0, 65, 0
1, 154924, Note_on_c, 0, 67, 0
1, 154927, Note_on_c, 0, 62, 71
1, 154944, Note_on_c, 0, 62, 0
1, 155019, Note_on_c, 0, 79, 83
1, 155211, Note_on_c, 0, 52, 60
1, 155219, Note_on_c, 0, 48, 48
1, 155269, Note_on_c, 0, 79, 0
1, 155269, Note_on_c, 0, 76, 68
1, 155322, Note_on_c, 0, 76, 0
1, 155324, Note_on_c, 0, 72, 74
1, 155328, Note_on_c, 0, 52, 0
1, 155339, Note_on_c, 0, 48, 0
1, 155375, Note_on_c, 0, 53, 57
1, 155376, Note_on_c, 0, 71, 76
1, 155380, Note_on_c, 0, 72, 0
1, 155380, Note_on_c, 0, 50, 48
1, 155430, Note_on_c, 0, 71, 0
1, 155437, Note_on_c, 0, 74, 71
1, 155485, Note_on_c, 0, 74, 0
1, 155490, Note_on_c, 0, 67, 67
1, 155500, Note_on_c, 0, 53, 0
1, 155522, Note_on_c, 0, 50, 0
1, 155538, Note_on_c, 0, 72, 71
1, 155548, Note_on_c, 0, 52, 42
1, 155548, Note_on_c, 0, 55, 48
1, 155550, Note_on_c, 0, 67, 0
1, 155581, Note_on_c, 0, 55, 0
1, 155583, Note_on_c, 0, 72, 0
1, 155591, Note_on_c, 0, 76, 71
1, 155614, Note_on_c, 0, 52, 0
1, 155631, Note_on_c, 0, 76, 0
1, 155636, Note_on_c, 0, 67, 51
1, 155674, Note_on_c, 0, 67, 0
1, 155706, Note_on_c, 0, 74, 64
1, 155887, Note_on_c, 0, 47, 56
1, 155893, Note_on_c, 0, 43, 47
1, 155931, Note_on_c, 0, 74, 0
1, 155934, Note_on_c, 0, 71, 60
1, 155984, Note_on_c, 0, 71, 0
1, 155994, Note_on_c, 0, 67, 66
1, 156016, Note_on_c, 0, 47, 0
1, 156052, Note_on_c, 0, 67, 0
1, 156052, Note_on_c, 0, 66, 69
1, 156053, Note_on_c, 0, 43, 0
1, 156057, Note_on_c, 0, 48, 51
1, 156058, Note_on_c, 0, 45, 46
1, 156097, Note_on_c, 0, 66, 0
1, 156107, Note_on_c, 0, 67, 68
1, 156164, Note_on_c, 0, 62, 65
1, 156174, Note_on_c, 0, 67, 0
1, 156184, Note_on_c, 0, 48, 0
1, 156190, Note_on_c, 0, 45, 0
1, 156213, Note_on_c, 0, 47, 54
1, 156215, Note_on_c, 0, 50, 53
1, 156223, Note_on_c, 0, 65, 64
1, 156236, Note_on_c, 0, 62, 0
1, 156265, Note_on_c, 0, 65, 0
1, 156265, Note_on_c, 0, 67, 60
1, 156331, Note_on_c, 0, 62, 64
1, 156339, Note_on_c, 0, 50, 0
1, 156354, Note_on_c, 0, 67, 0
1, 156360, Note_on_c, 0, 62, 0
1, 156379, Note_on_c, 0, 47, 0
1, 156402, Note_on_c, 0, 48, 58
1, 156402, Note_on_c, 0, 64, 72
1, 156444, Note_on_c, 0, 64, 0
1, 156469, Note_on_c, 0, 60, 63
1, 156514, Note_on_c, 0, 64, 72
1, 156520, Note_on_c, 0, 60, 0
1, 156573, Note_on_c, 0, 67, 71
1, 156574, Note_on_c, 0, 64, 0
1, 156613, Note_on_c, 0, 67, 0
1, 156626, Note_on_c, 0, 64, 72
1, 156646, Note_on_c, 0, 64, 0
1, 156680, Note_on_c, 0, 67, 74
1, 156731, Note_on_c, 0, 67, 0
1, 156739, Note_on_c, 0, 72, 74
1, 156774, Note_on_c, 0, 72, 0
1, 156789, Note_on_c, 0, 67, 77
1, 156802, Note_on_c, 0, 48, 0
1, 156842, Note_on_c, 0, 72, 72
1, 156864, Note_on_c, 0, 67, 0
1, 156893, Note_on_c, 0, 76, 73
1, 156902, Note_on_c, 0, 72, 0
1, 156925, Note_on_c, 0, 76, 0
1, 156947, Note_on_c, 0, 72, 80
1, 157001, Note_on_c, 0, 76, 73
1, 157021, Note_on_c, 0, 72, 0
1, 157046, Note_on_c, 0, 76, 0
1, 157053, Note_on_c, 0, 60, 65
1, 157054, Note_on_c, 0, 79, 77
1, 157055, Note_on_c, 0, 55, 55
1, 157058, Note_on_c, 0, 52, 50
1, 157094, Note_on_c, 0, 79, 0
1, 157104, Note_on_c, 0, 76, 83
1, 157132, Note_on_c, 0, 76, 0
1, 157156, Note_on_c, 0, 79, 83
1, 157201, Note_on_c, 0, 79, 0
1, 157212, Note_on_c, 0, 82, 88
1, 157260, Note_on_c, 0, 82, 0
1, 157270, Note_on_c, 0, 79, 88
1, 157327, Note_on_c, 0, 79, 0
1, 157331, Note_on_c, 0, 76, 81
1, 157366, Note_on_c, 0, 76, 0
1, 157383, Note_on_c, 0, 72, 71
1, 157420, Note_on_c, 0, 72, 0
1, 157430, Note_on_c, 0, 70, 79
1, 157469, Note_on_c, 0, 70, 0
1, 157483, Note_on_c, 0, 67, 74
1, 157519, Note_on_c, 0, 67, 0
1, 157552, Note_on_c, 0, 55, 0
1, 157553, Note_on_c, 0, 58, 56
1, 157553, Note_on_c, 0, 72, 75
1, 157584, Note_on_c, 0, 52, 0
1, 157589, Note_on_c, 0, 72, 0
1, 157595, Note_on_c, 0, 70, 66
1, 157635, Note_on_c, 0, 70, 0
1, 157650, Note_on_c, 0, 68, 65
1, 157666, Note_on_c, 0, 58, 0
1, 157682, Note_on_c, 0, 68, 0
1, 157716, Note_on_c, 0, 53, 38
1, 157716, Note_on_c, 0, 69, 60
1, 157723, Note_on_c, 0, 57, 37
1, 157791, Note_on_c, 0, 69, 0
1, 157833, Note_on_c, 0, 81, 62
1, 157920, Note_on_c, 0, 80, 68
1, 157924, Note_on_c, 0, 81, 0
1, 157952, Note_on_c, 0, 53, 0
1, 157978, Note_on_c, 0, 60, 0
1, 157999, Note_on_c, 0, 81, 64
1, 158030, Note_on_c, 0, 80, 0
1, 158032, Note_on_c, 0, 57, 0
1, 158093, Note_on_c, 0, 81, 0
1, 158093, Note_on_c, 0, 80, 83
1, 158171, Note_on_c, 0, 81, 70
1, 158192, Note_on_c, 0, 80, 0
1, 158236, Note_on_c, 0, 81, 0
1, 158259, Note_on_c, 0, 80, 67
1, 158332, Note_on_c, 0, 81, 71
1, 158348, Note_on_c, 0, 80, 0
1, 158430, Note_on_c, 0, 81, 0
1, 158430, Note_on_c, 0, 72, 72
1, 158615, Note_on_c, 0, 54, 49
1, 158616, Note_on_c, 0, 63, 51
1, 158687, Note_on_c, 0, 54, 0
1, 158720, Note_on_c, 0, 63, 0
1, 158800, Note_on_c, 0, 64, 59
1, 158816, Note_on_c, 0, 55, 41
1, 158985, Note_on_c, 0, 72, 0
1, 158988, Note_on_c, 0, 76, 65
1, 159004, Note_on_c, 0, 71, 36
1, 159005, Note_on_c, 0, 65, 45
1, 159037, Note_on_c, 0, 64, 0
1, 159039, Note_on_c, 0, 71, 0
1, 159090, Note_on_c, 0, 74, 68
1, 159128, Note_on_c, 0, 76, 0
1, 159134, Note_on_c, 0, 65, 0
1, 159175, Note_on_c, 0, 74, 0
1, 159182, Note_on_c, 0, 72, 68
1, 159191, Note_on_c, 0, 64, 46
1, 159198, Note_on_c, 0, 60, 40
1, 159221, Note_on_c, 0, 72, 0
1, 159225, Note_on_c, 0, 55, 0
1, 159241, Note_on_c, 0, 67, 60
1, 159288, Note_on_c, 0, 67, 0
1, 159298, Note_on_c, 0, 72, 65
1, 159359, Note_on_c, 0, 72, 0
1, 159362, Note_on_c, 0, 76, 72
1, 159397, Note_on_c, 0, 76, 0
1, 159415, Note_on_c, 0, 72, 75
1, 159472, Note_on_c, 0, 76, 76
1, 159483, Note_on_c, 0, 72, 0
1, 159515, Note_on_c, 0, 76, 0
1, 159532, Note_on_c, 0, 79, 63
1, 159561, Note_on_c, 0, 79, 0
1, 159586, Note_on_c, 0, 76, 76
1, 159636, Note_on_c, 0, 79, 79
1, 159644, Note_on_c, 0, 64, 0
1, 159648, Note_on_c, 0, 76, 0
1, 159654, Note_on_c, 0, 60, 0
1, 159694, Note_on_c, 0, 84, 86
1, 159702, Note_on_c, 0, 79, 0
1, 159751, Note_on_c, 0, 84, 0
1, 159751, Note_on_c, 0, 86, 88
1, 159804, Note_on_c, 0, 84, 91
1, 159824, Note_on_c, 0, 86, 0
1, 159858, Note_on_c, 0, 52, 51
1, 159858, Note_on_c, 0, 60, 49
1, 159861, Note_on_c, 0, 55, 43
1, 159862, Note_on_c, 0, 82, 88
1, 159883, Note_on_c, 0, 84, 0
1, 159916, Note_on_c, 0, 81, 85
1, 159941, Note_on_c, 0, 82, 0
1, 159973, Note_on_c, 0, 79, 77
1, 159976, Note_on_c, 0, 81, 0
1, 159998, Note_on_c, 0, 79, 0
1, 160026, Note_on_c, 0, 77, 73
1, 160087, Note_on_c, 0, 76, 83
1, 160114, Note_on_c, 0, 77, 0
1, 160142, Note_on_c, 0, 74, 79
1, 160154, Note_on_c, 0, 76, 0
1, 160184, Note_on_c, 0, 74, 0
1, 160193, Note_on_c, 0, 72, 74
1, 160245, Note_on_c, 0, 74, 76
1, 160247, Note_on_c, 0, 72, 0
1, 160285, Note_on_c, 0, 74, 0
1, 160308, Note_on_c, 0, 72, 63
1, 160323, Note_on_c, 0, 55, 0
1, 160330, Note_on_c, 0, 72, 0
1, 160356, Note_on_c, 0, 70, 69
1, 160363, Note_on_c, 0, 58, 42
1, 160368, Note_on_c, 0, 52, 0
1, 160401, Note_on_c, 0, 70, 0
1, 160416, Note_on_c, 0, 69, 60
1, 160439, Note_on_c, 0, 69, 0
1, 160441, Note_on_c, 0, 58, 0
1, 160462, Note_on_c, 0, 68, 65
1, 160501, Note_on_c, 0, 68, 0
1, 160523, Note_on_c, 0, 69, 57
1, 160533, Note_on_c, 0, 53, 38
1, 160536, Note_on_c, 0, 57, 35
1, 160580, Note_on_c, 0, 69, 0
1, 160632, Note_on_c, 0, 81, 64
1, 160724, Note_on_c, 0, 80, 69
1, 160739, Note_on_c, 0, 81, 0
1, 160739, Note_on_c, 0, 53, 0
1, 160776, Note_on_c, 0, 60, 0
1, 160803, Note_on_c, 0, 81, 70
1, 160817, Note_on_c, 0, 57, 0
1, 160819, Note_on_c, 0, 80, 0
1, 160892, Note_on_c, 0, 80, 66
1, 160907, Note_on_c, 0, 81, 0
1, 160983, Note_on_c, 0, 80, 0
1, 160983, Note_on_c, 0, 81, 57
1, 161068, Note_on_c, 0, 81, 0
1, 161073, Note_on_c, 0, 80, 60
1, 161161, Note_on_c, 0, 81, 42
1, 161167, Note_on_c, 0, 80, 0
1, 161189, Note_on_c, 0, 81, 0
1, 161249, Note_on_c, 0, 63, 53
1, 161256, Note_on_c, 0, 54, 38
1, 161333, Note_on_c, 0, 84, 65
1, 161423, Note_on_c, 0, 83, 71
1, 161444, Note_on_c, 0, 84, 0
1, 161511, Note_on_c, 0, 84, 74
1, 161536, Note_on_c, 0, 83, 0
1, 161546, Note_on_c, 0, 63, 0
1, 161552, Note_on_c, 0, 54, 0
1, 161596, Note_on_c, 0, 83, 77
1, 161615, Note_on_c, 0, 84, 0
1, 161679, Note_on_c, 0, 84, 84
1, 161700, Note_on_c, 0, 83, 0
1, 161768, Note_on_c, 0, 83, 78
1, 161789, Note_on_c, 0, 84, 0
1, 161838, Note_on_c, 0, 84, 80
1, 161851, Note_on_c, 0, 83, 0
1, 161878, Note_on_c, 0, 84, 0
1, 161928, Note_on_c, 0, 84, 88
1, 161945, Note_on_c, 0, 55, 53
1, 162012, Note_on_c, 0, 79, 75
1, 162024, Note_on_c, 0, 64, 56
1, 162025, Note_on_c, 0, 84, 0
1, 162035, Note_on_c, 0, 55, 0
1, 162036, Note_on_c, 0, 79, 0
1, 162044, Note_on_c, 0, 64, 0
1, 162096, Note_on_c, 0, 79, 79
1, 162098, Note_on_c, 0, 60, 59
1, 162118, Note_on_c, 0, 79, 0
1, 162121, Note_on_c, 0, 60, 0
1, 162174, Note_on_c, 0, 79, 88
1, 162181, Note_on_c, 0, 64, 64
1, 162203, Note_on_c, 0, 79, 0
1, 162209, Note_on_c, 0, 64, 0
1, 162258, Note_on_c, 0, 81, 81
1, 162268, Note_on_c, 0, 55, 63
1, 162304, Note_on_c, 0, 55, 0
1, 162342, Note_on_c, 0, 79, 77
1, 162347, Note_on_c, 0, 81, 0
1, 162347, Note_on_c, 0, 64, 60
1, 162372, Note_on_c, 0, 64, 0
1, 162372, Note_on_c, 0, 79, 0
1, 162425, Note_on_c, 0, 77, 75
1, 162426, Note_on_c, 0, 60, 58
1, 162443, Note_on_c, 0, 77, 0
1, 162445, Note_on_c, 0, 60, 0
1, 162501, Note_on_c, 0, 76, 81
1, 162511, Note_on_c, 0, 64, 57
1, 162519, Note_on_c, 0, 76, 0
1, 162531, Note_on_c, 0, 64, 0
1, 162591, Note_on_c, 0, 76, 79
1, 162609, Note_on_c, 0, 55, 48
1, 162687, Note_on_c, 0, 67, 52
1, 162750, Note_on_c, 0, 55, 0
1, 162762, Note_on_c, 0, 60, 46
1, 162764, Note_on_c, 0, 67, 0
1, 162825, Note_on_c, 0, 60, 0
1, 162840, Note_on_c, 0, 67, 58
1, 162883, Note_on_c, 0, 67, 0
1, 162884, Note_on_c, 0, 76, 0
1, 162924, Note_on_c, 0, 74, 67
1, 162939, Note_on_c, 0, 55, 36
1, 162940, Note_on_c, 0, 74, 0
1, 162956, Note_on_c, 0, 76, 65
1, 162974, Note_on_c, 0, 76, 0
1, 162987, Note_on_c, 0, 74, 73
1, 163002, Note_on_c, 0, 65, 38
1, 163011, Note_on_c, 0, 74, 0
1, 163020, Note_on_c, 0, 76, 60
1, 163039, Note_on_c, 0, 76, 0
1, 163047, Note_on_c, 0, 74, 61
1, 163057, Note_on_c, 0, 65, 0
1, 163067, Note_on_c, 0, 74, 0
1, 163071, Note_on_c, 0, 59, 47
1, 163077, Note_on_c, 0, 76, 73
1, 163080, Note_on_c, 0, 55, 0
1, 163107, Note_on_c, 0, 59, 0
1, 163108, Note_on_c, 0, 74, 69
1, 163120, Note_on_c, 0, 76, 0
1, 163124, Note_on_c, 0, 65, 46
1, 163140, Note_on_c, 0, 74, 0
1, 163142, Note_on_c, 0, 65, 0
1, 163148, Note_on_c, 0, 72, 66
1, 163178, Note_on_c, 0, 72, 0
1, 163190, Note_on_c, 0, 74, 61
1, 163236, Note_on_c, 0, 48, 46
1, 163243, Note_on_c, 0, 72, 66
1, 163244, Note_on_c, 0, 74, 0
1, 163332, Note_on_c, 0, 52, 47
1, 163356, Note_on_c, 0, 48, 0
1, 163361, Note_on_c, 0, 72, 0
1, 163415, Note_on_c, 0, 60, 53
1, 163419, Note_on_c, 0, 52, 0
1, 163500, Note_on_c, 0, 52, 52
1, 163524, Note_on_c, 0, 60, 0
1, 163577, Note_on_c, 0, 52, 0
1, 163606, Note_on_c, 0, 67, 71
1, 163608, Note_on_c, 0, 48, 42
1, 163716, Note_on_c, 0, 53, 44
1, 163731, Note_on_c, 0, 48, 0
1, 163777, Note_on_c, 0, 53, 0
1, 163792, Note_on_c, 0, 59, 57
1, 163800, Note_on_c, 0, 67, 0
1, 163832, Note_on_c, 0, 71, 66
1, 163857, Note_on_c, 0, 71, 0
1, 163857, Note_on_c, 0, 59, 0
1, 163875, Note_on_c, 0, 53, 46
1, 163875, Note_on_c, 0, 69, 63
1, 163892, Note_on_c, 0, 69, 0
1, 163903, Note_on_c, 0, 67, 71
1, 163905, Note_on_c, 0, 53, 0
1, 163931, Note_on_c, 0, 67, 0
1, 163950, Note_on_c, 0, 48, 57
1, 163950, Note_on_c, 0, 79, 83
1, 163963, Note_on_c, 0, 79, 0
1, 164046, Note_on_c, 0, 50, 50
1, 164049, Note_on_c, 0, 48, 0
1, 164131, Note_on_c, 0, 77, 80
1, 164137, Note_on_c, 0, 59, 52
1, 164144, Note_on_c, 0, 50, 0
1, 164159, Note_on_c, 0, 77, 0
1, 164202, Note_on_c, 0, 59, 0
1, 164218, Note_on_c, 0, 50, 57
1, 164298, Note_on_c, 0, 50, 0
1, 164310, Note_on_c, 0, 48, 57
1, 164311, Note_on_c, 0, 76, 73
1, 164326, Note_on_c, 0, 76, 0
1, 164399, Note_on_c, 0, 53, 51
1, 164423, Note_on_c, 0, 48, 0
1, 164452, Note_on_c, 0, 53, 0
1, 164484, Note_on_c, 0, 74, 73
1, 164492, Note_on_c, 0, 59, 47
1, 164505, Note_on_c, 0, 74, 0
1, 164560, Note_on_c, 0, 59, 0
1, 164562, Note_on_c, 0, 53, 43
1, 164609, Note_on_c, 0, 53, 0
1, 164671, Note_on_c, 0, 72, 58
1, 164671, Note_on_c, 0, 48, 35
1, 164759, Note_on_c, 0, 52, 40
1, 164854, Note_on_c, 0, 52, 0
1, 164859, Note_on_c, 0, 60, 42
1, 164942, Note_on_c, 0, 48, 0
1, 164945, Note_on_c, 0, 52, 38
1, 164996, Note_on_c, 0, 60, 0
1, 165025, Note_on_c, 0, 52, 0
1, 165042, Note_on_c, 0, 67, 51
1, 165045, Note_on_c, 0, 48, 35
1, 165138, Note_on_c, 0, 52, 35
1, 165173, Note_on_c, 0, 48, 0
1, 165196, Note_on_c, 0, 52, 0
1, 165218, Note_on_c, 0, 60, 35
1, 165237, Note_on_c, 0, 72, 0
1, 165254, Note_on_c, 0, 67, 0
1, 165259, Note_on_c, 0, 60, 0
1, 165272, Note_on_c, 0, 71, 55
1, 165292, Note_on_c, 0, 52, 45
1, 165297, Note_on_c, 0, 71, 0
1, 165307, Note_on_c, 0, 69, 53
1, 165327, Note_on_c, 0, 69, 0
1, 165330, Note_on_c, 0, 67, 67
1, 165360, Note_on_c, 0, 67, 0
1, 165372, Note_on_c, 0, 52, 0
1, 165381, Note_on_c, 0, 79, 75
1, 165386, Note_on_c, 0, 48, 41
1, 165395, Note_on_c, 0, 79, 0
1, 165465, Note_on_c, 0, 50, 39
1, 165468, Note_on_c, 0, 48, 0
1, 165558, Note_on_c, 0, 77, 68
1, 165559, Note_on_c, 0, 59, 44
1, 165564, Note_on_c, 0, 50, 0
1, 165585, Note_on_c, 0, 77, 0
1, 165635, Note_on_c, 0, 59, 0
1, 165641, Note_on_c, 0, 50, 44
1, 165745, Note_on_c, 0, 48, 35
1, 165745, Note_on_c, 0, 76, 58
1, 165768, Note_on_c, 0, 76, 0
1, 165818, Note_on_c, 0, 53, 48
1, 165839, Note_on_c, 0, 50, 0
1, 165871, Note_on_c, 0, 53, 0
1, 165916, Note_on_c, 0, 59, 39
1, 165921, Note_on_c, 0, 74, 61
1, 165924, Note_on_c, 0, 48, 0
1, 165948, Note_on_c, 0, 74, 0
1, 165995, Note_on_c, 0, 53, 37
1, 165997, Note_on_c, 0, 59, 0
1, 166094, Note_on_c, 0, 53, 0
1, 166103, Note_on_c, 0, 72, 50
1, 166104, Note_on_c, 0, 48, 35
1, 166180, Note_on_c, 0, 48, 0
1, 166190, Note_on_c, 0, 52, 35
1, 166244, Note_on_c, 0, 72, 0
1, 166274, Note_on_c, 0, 52, 0
1, 166299, Note_on_c, 0, 60, 36
1, 166371, Note_on_c, 0, 52, 44
1, 166403, Note_on_c, 0, 60, 0
1, 166412, Note_on_c, 0, 67, 52
1, 166449, Note_on_c, 0, 79, 79
1, 166460, Note_on_c, 0, 67, 0
1, 166464, Note_on_c, 0, 52, 0
1, 166476, Note_on_c, 0, 48, 42
1, 166570, Note_on_c, 0, 53, 37
1, 166639, Note_on_c, 0, 53, 0
1, 166649, Note_on_c, 0, 48, 0
1, 166654, Note_on_c, 0, 59, 39
1, 166710, Note_on_c, 0, 79, 0
1, 166721, Note_on_c, 0, 77, 55
1, 166734, Note_on_c, 0, 59, 0
1, 166741, Note_on_c, 0, 53, 35
1, 166744, Note_on_c, 0, 77, 0
1, 166750, Note_on_c, 0, 76, 62
1, 166775, Note_on_c, 0, 76, 0
1, 166784, Note_on_c, 0, 74, 61
1, 166800, Note_on_c, 0, 53, 0
1, 166828, Note_on_c, 0, 74, 0
1, 166828, Note_on_c, 0, 72, 59
1, 166835, Note_on_c, 0, 48, 35
1, 166883, Note_on_c, 0, 72, 0
1, 166916, Note_on_c, 0, 52, 38
1, 166918, Note_on_c, 0, 48, 0
1, 167002, Note_on_c, 0, 52, 0
1, 167006, Note_on_c, 0, 60, 44
1, 167086, Note_on_c, 0, 52, 43
1, 167120, Note_on_c, 0, 60, 0
1, 167152, Note_on_c, 0, 67, 44
1, 167165, Note_on_c, 0, 52, 0
1, 167195, Note_on_c, 0, 79, 67
1, 167195, Note_on_c, 0, 48, 38
1, 167196, Note_on_c, 0, 67, 0
1, 167299, Note_on_c, 0, 53, 35
1, 167354, Note_on_c, 0, 79, 0
1, 167391, Note_on_c, 0, 59, 35
1, 167393, Note_on_c, 0, 53, 0
1, 167454, Note_on_c, 0, 48, 0
1, 167476, Note_on_c, 0, 53, 41
1, 167489, Note_on_c, 0, 59, 0
1, 167490, Note_on_c, 0, 81, 52
1, 167520, Note_on_c, 0, 83, 57
1, 167530, Note_on_c, 0, 81, 0
1, 167537, Note_on_c, 0, 53, 0
1, 167572, Note_on_c, 0, 84, 55
1, 167578, Note_on_c, 0, 83, 0
1, 167580, Note_on_c, 0, 48, 36
1, 167631, Note_on_c, 0, 84, 0
1, 167640, Note_on_c, 0, 48, 0
1, 167659, Note_on_c, 0, 52, 35
1, 167743, Note_on_c, 0, 52, 0
1, 167747, Note_on_c, 0, 60, 36
1, 167836, Note_on_c, 0, 52, 38
1, 167888, Note_on_c, 0, 60, 0
1, 167947, Note_on_c, 0, 48, 41
1, 167950, Note_on_c, 0, 52, 0
1, 167953, Note_on_c, 0, 79, 68
1, 167998, Note_on_c, 0, 79, 0
1, 168001, Note_on_c, 0, 81, 74
1, 168036, Note_on_c, 0, 53, 44
1, 168048, Note_on_c, 0, 79, 75
1, 168056, Note_on_c, 0, 81, 0
1, 168071, Note_on_c, 0, 48, 0
1, 168093, Note_on_c, 0, 53, 0
1, 168102, Note_on_c, 0, 77, 70
1, 168106, Note_on_c, 0, 79, 0
1, 168114, Note_on_c, 0, 59, 44
1, 168149, Note_on_c, 0, 77, 0
1, 168152, Note_on_c, 0, 76, 69
1, 168174, Note_on_c, 0, 59, 0
1, 168182, Note_on_c, 0, 76, 0
1, 168186, Note_on_c, 0, 53, 35
1, 168200, Note_on_c, 0, 74, 65
1, 168252, Note_on_c, 0, 74, 0
1, 168258, Note_on_c, 0, 53, 0
1, 168267, Note_on_c, 0, 72, 51
1, 168277, Note_on_c, 0, 48, 35
1, 168356, Note_on_c, 0, 52, 35
1, 168361, Note_on_c, 0, 72, 0
1, 168371, Note_on_c, 0, 48, 0
1, 168456, Note_on_c, 0, 60, 37
1, 168461, Note_on_c, 0, 52, 0
1, 168549, Note_on_c, 0, 52, 38
1, 168595, Note_on_c, 0, 60, 0
1, 168643, Note_on_c, 0, 78, 59
1, 168648, Note_on_c, 0, 52, 0
1, 168648, Note_on_c, 0, 48, 42
1, 168688, Note_on_c, 0, 78, 0
1, 168706, Note_on_c, 0, 79, 61
1, 168732, Note_on_c, 0, 53, 36
1, 168736, Note_on_c, 0, 79, 0
1, 168753, Note_on_c, 0, 80, 64
1, 168781, Note_on_c, 0, 80, 0
1, 168785, Note_on_c, 0, 53, 0
1, 168799, Note_on_c, 0, 48, 0
1, 168806, Note_on_c, 0, 81, 65
1, 168809, Note_on_c, 0, 59, 42
1, 168841, Note_on_c, 0, 81, 0
1, 168858, Note_on_c, 0, 82, 64
1, 168887, Note_on_c, 0, 53, 35
1, 168888, Note_on_c, 0, 59, 0
1, 168922, Note_on_c, 0, 82, 0
1, 168926, Note_on_c, 0, 83, 53
1, 168962, Note_on_c, 0, 53, 0
1, 168980, Note_on_c, 0, 83, 0
1, 168985, Note_on_c, 0, 84, 55
1, 168987, Note_on_c, 0, 52, 35
1, 169002, Note_on_c, 0, 48, 35
1, 169041, Note_on_c, 0, 84, 0
1, 169214, Note_on_c, 0, 67, 63
1, 169347, Note_on_c, 0, 48, 0
1, 169357, Note_on_c, 0, 67, 0
1, 169365, Note_on_c, 0, 52, 0
1, 169368, Note_on_c, 0, 72, 57
1, 169415, Note_on_c, 0, 76, 68
1, 169423, Note_on_c, 0, 72, 0
1, 169456, Note_on_c, 0, 76, 0
1, 169617, Note_on_c, 0, 74, 66
1, 169618, Note_on_c, 0, 65, 55
1, 169624, Note_on_c, 0, 56, 44
1, 169647, Note_on_c, 0, 65, 0
1, 169659, Note_on_c, 0, 74, 0
1, 169865, Note_on_c, 0, 65, 46
1, 169865, Note_on_c, 0, 74, 58
1, 169870, Note_on_c, 0, 57, 36
1, 169875, Note_on_c, 0, 56, 0
1, 170118, Note_on_c, 0, 65, 0
1, 170324, Note_on_c, 0, 72, 38
1, 170334, Note_on_c, 0, 64, 35
1, 170369, Note_on_c, 0, 74, 0
1, 170496, Note_on_c, 0, 57, 0
1, 170511, Note_on_c, 0, 64, 0
1, 170531, Note_on_c, 0, 72, 0
1, 170735, Note_on_c, 0, 81, 87
1, 170735, Note_on_c, 0, 77, 82
1, 170736, Note_on_c, 0, 69, 80
1, 170736, Note_on_c, 0, 74, 76
1, 170737, Note_on_c, 0, 41, 80
1, 170737, Note_on_c, 0, 53, 77
1, 170786, Note_on_c, 0, 41, 0
1, 170790, Note_on_c, 0, 53, 0
1, 170809, Note_on_c, 0, 69, 0
1, 170814, Note_on_c, 0, 81, 0
1, 170822, Note_on_c, 0, 74, 0
1, 170830, Note_on_c, 0, 77, 0
1, 171119, Note_on_c, 0, 71, 87
1, 171122, Note_on_c, 0, 62, 81
1, 171122, Note_on_c, 0, 65, 82
1, 171123, Note_on_c, 0, 43, 73
1, 171124, Note_on_c, 0, 67, 80
1, 171124, Note_on_c, 0, 55, 80
1, 171165, Note_on_c, 0, 55, 0
1, 171172, Note_on_c, 0, 43, 0
1, 171182, Note_on_c, 0, 62, 0
1, 171187, Note_on_c, 0, 65, 0
1, 171195, Note_on_c, 0, 71, 0
1, 171197, Note_on_c, 0, 67, 0
1, 171548, Note_on_c, 0, 72, 91
1, 171548, Note_on_c, 0, 60, 82
1, 171549, Note_on_c, 0, 64, 77
1, 171549, Note_on_c, 0, 67, 78
1, 171550, Note_on_c, 0, 36, 80
1, 171552, Note_on_c, 0, 48, 80
1, 171559, Note_on_c, 0, 40, 67
1, 171559, Note_on_c, 0, 43, 67
1, 171603, Note_on_c, 0, 48, 0
1, 171607, Note_on_c, 0, 36, 0
1, 171622, Note_on_c, 0, 43, 0
1, 171622, Note_on_c, 0, 40, 0
1, 171622, Note_on_c, 0, 64, 0
1, 171625, Note_on_c, 0, 60, 0
1, 171631, Note_on_c, 0, 67, 0
1, 171648, Note_on_c, 0, 72, 0
1, 171658, End_track
0, 0, End_of_file