0, 0, Header, 0, 1, 384
1, 0, Start_track
1, 0, Tempo, 500000
1, 384, Note_on_c, 0, 76, 100
1, 384, Note_on_c, 0, 79, 100
1, 448, Note_on_c, 0, 76, 0
1, 448, Note_on_c, 0, 79, 0
1, 576, Note_on_c, 0, 76, 100
1, 576, Note_on_c, 0, 79, 100
1, 640, Note_on_c, 0, 76, 0
1, 640, Note_on_c, 0, 79, 0
1, 768, Note_on_c, 0, 72, 100
1, 768, Note_on_c, 0, 76, 100
1, 768, Note_on_c, 1, 57, 100
1, 768, Note_on_c, 1, 60, 100
1, 832, Note_on_c, 0, 72, 0
1, 832, Note_on_c, 0, 76, 0
1, 832, Note_on_c, 1, 57, 0
1, 832, Note_on_c, 1, 60, 0
1, 960, Note_on_c, 1, 57, 100
1, 960, Note_on_c, 1, 60, 100
1, 1024, Note_on_c, 1, 57, 0
1, 1024, Note_on_c, 1, 60, 0
1, 1152, Note_on_c, 0, 74, 100
1, 1152, Note_on_c, 0, 77, 100
1, 1152, Note_on_c, 1, 53, 100
1, 1152, Note_on_c, 1, 57, 100
1, 1216, Note_on_c, 0, 74, 0
1, 1216, Note_on_c, 0, 77, 0
1, 1216, Note_on_c, 1, 53, 0
1, 1216, Note_on_c, 1, 57, 0
1, 1344, Note_on_c, 0, 74, 100
1, 1344, Note_on_c, 0, 77, 100
1, 1408, Note_on_c, 0, 74, 0
1, 1408, Note_on_c, 0, 77, 0
1, 1536, Note_on_c, 0, 71, 100
1, 1536, Note_on_c, 0, 74, 100
1, 1536, Note_on_c, 1, 55, 100
1, 1536, Note_on_c, 1, 59, 100
1, 1600, Note_on_c, 0, 71, 0
1, 1600, Note_on_c, 0, 74, 0
1, 1600, Note_on_c, 1, 55, 0
1, 1600, Note_on_c, 1, 59, 0
1, 1728, Note_on_c, 1, 55, 100
1, 1728, Note_on_c, 1, 59, 100
1, 1792, Note_on_c, 1, 55, 0
1, 1792, Note_on_c, 1, 59, 0
1, 1920, Note_on_c, 0, 72, 100
1, 1920, Note_on_c, 1, 52, 100
1, 1920, Note_on_c, 1, 55, 100
1, 1984, Note_on_c, 0, 72, 0
1, 1984, Note_on_c, 1, 52, 0
1, 1984, Note_on_c, 1, 55, 0
1, 2016, Note_on_c, 0, 74, 100
1, 2080, Note_on_c, 0, 74, 0
1, 2112, Note_on_c, 0, 76, 100
1, 2176, Note_on_c, 0, 76, 0
1, 2208, Note_on_c, 0, 72, 100
1, 2272, Note_on_c, 0, 72, 0
1, 2304, Note_on_c, 0, 69, 100
1, 2304, Note_on_c, 1, 53, 100
1, 2368, Note_on_c, 0, 69, 0
1, 2400, Note_on_c, 0, 71, 100
1, 2464, Note_on_c, 0, 71, 0
1, 2496, Note_on_c, 0, 72, 100
1, 2560, Note_on_c, 0, 72, 0
1, 2592, Note_on_c, 0, 73, 100
1, 2656, Note_on_c, 0, 73, 0
1, 2688, Note_on_c, 0, 74, 100
1, 2688, Note_on_c, 1, 53, 0
1, 2752, Note_on_c, 0, 74, 0
1, 2784, Note_on_c, 0, 76, 100
1, 2848, Note_on_c, 0, 76, 0
1, 2880, Note_on_c, 0, 77, 100
1, 2880, Note_on_c, 1, 50, 100
1, 2944, Note_on_c, 0, 77, 0
1, 2976, Note_on_c, 0, 74, 100
1, 3008, Note_on_c, 1, 50, 0
1, 3040, Note_on_c, 0, 74, 0
1, 3072, Note_on_c, 0, 72, 100
1, 3072, Note_on_c, 1, 55, 100
1, 3136, Note_on_c, 0, 72, 0
1, 3168, Note_on_c, 0, 71, 100
1, 3200, Note_on_c, 1, 55, 0
1, 3232, Note_on_c, 0, 71, 0
1, 3264, Note_on_c, 0, 69, 100
1, 3328, Note_on_c, 0, 69, 0
1, 3360, Note_on_c, 0, 67, 100
1, 3424, Note_on_c, 0, 67, 0
1, 3456, Note_on_c, 0, 76, 100
1, 3456, Note_on_c, 0, 79, 100
1, 3520, Note_on_c, 0, 76, 0
1, 3520, Note_on_c, 0, 79, 0
1, 3648, Note_on_c, 0, 76, 100
1, 3648, Note_on_c, 0, 79, 100
1, 3712, Note_on_c, 0, 76, 0
1, 3712, Note_on_c, 0, 79, 0
1, 3840, Note_on_c, 0, 72, 100
1, 3840, Note_on_c, 0, 76, 100
1, 3840, Note_on_c, 1, 57, 100
1, 3840, Note_on_c, 1, 60, 100
1, 3904, Note_on_c, 0, 72, 0
1, 3904, Note_on_c, 0, 76, 0
1, 3904, Note_on_c, 1, 57, 0
1, 3904, Note_on_c, 1, 60, 0
1, 4032, Note_on_c, 1, 57, 100
1, 4032, Note_on_c, 1, 60, 100
1, 4096, Note_on_c, 1, 57, 0
1, 4096, Note_on_c, 1, 60, 0
1, 4224, Note_on_c, 0, 77, 100
1, 4224, Note_on_c, 0, 81, 100
1, 4224, Note_on_c, 1, 50, 100
1, 4224, Note_on_c, 1, 53, 100
1, 4288, Note_on_c, 0, 77, 0
1, 4288, Note_on_c, 0, 81, 0
1, 4288, Note_on_c, 1, 50, 0
1, 4288, Note_on_c, 1, 53, 0
1, 4416, Note_on_c, 0, 77, 100
1, 4416, Note_on_c, 0, 81, 100
1, 4480, Note_on_c, 0, 77, 0
1, 4480, Note_on_c, 0, 81, 0
1, 4608, Note_on_c, 0, 71, 100
1, 4608, Note_on_c, 0, 74, 100
1, 4608, Note_on_c, 1, 55, 100
1, 4608, Note_on_c, 1, 59, 100
1, 4672, Note_on_c, 0, 71, 0
1, 4672, Note_on_c, 0, 74, 0
1, 4672, Note_on_c, 1, 55, 0
1, 4672, Note_on_c, 1, 59, 0
1, 4800, Note_on_c, 1, 55, 100
1, 4800, Note_on_c, 1, 59, 100
1, 4864, Note_on_c, 1, 55, 0
1, 4864, Note_on_c, 1, 59, 0
1, 4992, Note_on_c, 0, 81, 100
1, 4992, Note_on_c, 1, 48, 100
1, 4992, Note_on_c, 1, 52, 100
1, 5056, Note_on_c, 0, 81, 0
1, 5056, Note_on_c, 1, 48, 0
1, 5056, Note_on_c, 1, 52, 0
1, 5088, Note_on_c, 0, 79, 100
1, 5152, Note_on_c, 0, 79, 0
1, 5184, Note_on_c, 0, 77, 100
1, 5248, Note_on_c, 0, 77, 0
1, 5280, Note_on_c, 0, 76, 100
1, 5344, Note_on_c, 0, 76, 0
1, 5376, Note_on_c, 0, 73, 100
1, 5376, Note_on_c, 1, 53, 100
1, 5376, Note_on_c, 1, 57, 100
1, 5440, Note_on_c, 0, 73, 0
1, 5472, Note_on_c, 0, 74, 100
1, 5536, Note_on_c, 0, 74, 0
1, 5568, Note_on_c, 0, 76, 100
1, 5632, Note_on_c, 0, 76, 0
1, 5664, Note_on_c, 0, 77, 100
1, 5728, Note_on_c, 0, 77, 0
1, 5760, Note_on_c, 0, 69, 100
1, 5760, Note_on_c, 1, 53, 0
1, 5760, Note_on_c, 1, 57, 0
1, 5824, Note_on_c, 0, 69, 0
1, 5856, Note_on_c, 0, 72, 100
1, 5920, Note_on_c, 0, 72, 0
1, 5952, Note_on_c, 0, 71, 100
1, 5952, Note_on_c, 1, 55, 100
1, 5952, Note_on_c, 1, 65, 100
1, 6016, Note_on_c, 0, 71, 0
1, 6048, Note_on_c, 0, 74, 100
1, 6080, Note_on_c, 1, 55, 0
1, 6080, Note_on_c, 1, 65, 0
1, 6112, Note_on_c, 0, 74, 0
1, 6144, Note_on_c, 0, 72, 100
1, 6144, Note_on_c, 1, 60, 100
1, 6144, Note_on_c, 1, 64, 100
1, 6208, Note_on_c, 0, 72, 0
1, 6208, Note_on_c, 1, 60, 0
1, 6208, Note_on_c, 1, 64, 0
1, 6336, Note_on_c, 1, 48, 100
1, 6400, Note_on_c, 1, 48, 0
1, 6528, Note_on_c, 0, 76, 100
1, 6528, Note_on_c, 0, 79, 100
1, 6592, Note_on_c, 0, 76, 0
1, 6592, Note_on_c, 0, 79, 0
1, 6720, Note_on_c, 0, 76, 100
1, 6720, Note_on_c, 0, 79, 100
1, 6784, Note_on_c, 0, 76, 0
1, 6784, Note_on_c, 0, 79, 0
1, 6912, Note_on_c, 0, 72, 100
1, 6912, Note_on_c, 0, 76, 100
1, 6912, Note_on_c, 1, 57, 100
1, 6912, Note_on_c, 1, 60, 100
1, 6976, Note_on_c, 0, 72, 0
1, 6976, Note_on_c, 0, 76, 0
1, 6976, Note_on_c, 1, 57, 0
1, 6976, Note_on_c, 1, 60, 0
1, 7104, Note_on_c, 1, 57, 100
1, 7104, Note_on_c, 1, 60, 100
1, 7168, Note_on_c, 1, 57, 0
1, 7168, Note_on_c, 1, 60, 0
1, 7296, Note_on_c, 0, 74, 100
1, 7296, Note_on_c, 0, 77, 100
1, 7296, Note_on_c, 1, 53, 100
1, 7296, Note_on_c, 1, 57, 100
1, 7360, Note_on_c, 0, 74, 0
1, 7360, Note_on_c, 0, 77, 0
1, 7360, Note_on_c, 1, 53, 0
1, 7360, Note_on_c, 1, 57, 0
1, 7488, Note_on_c, 0, 74, 100
1, 7488, Note_on_c, 0, 77, 100
1, 7552, Note_on_c, 0, 74, 0
1, 7552, Note_on_c, 0, 77, 0
1, 7680, Note_on_c, 0, 71, 100
1, 7680, Note_on_c, 0, 74, 100
1, 7680, Note_on_c, 1, 55, 100
1, 7680, Note_on_c, 1, 59, 100
1, 7744, Note_on_c, 0, 71, 0
1, 7744, Note_on_c, 0, 74, 0
1, 7744, Note_on_c, 1, 55, 0
1, 7744, Note_on_c, 1, 59, 0
1, 7872, Note_on_c, 1, 55, 100
1, 7872, Note_on_c, 1, 59, 100
1, 7936, Note_on_c, 1, 55, 0
1, 7936, Note_on_c, 1, 59, 0
1, 8064, Note_on_c, 0, 72, 100
1, 8064, Note_on_c, 1, 52, 100
1, 8064, Note_on_c, 1, 55, 100
1, 8128, Note_on_c, 0, 72, 0
1, 8128, Note_on_c, 1, 52, 0
1, 8128, Note_on_c, 1, 55, 0
1, 8160, Note_on_c, 0, 74, 100
1, 8224, Note_on_c, 0, 74, 0
1, 8256, Note_on_c, 0, 76, 100
1, 8320, Note_on_c, 0, 76, 0
1, 8352, Note_on_c, 0, 72, 100
1, 8416, Note_on_c, 0, 72, 0
1, 8448, Note_on_c, 0, 69, 100
1, 8448, Note_on_c, 1, 53, 100
1, 8512, Note_on_c, 0, 69, 0
1, 8544, Note_on_c, 0, 71, 100
1, 8608, Note_on_c, 0, 71, 0
1, 8640, Note_on_c, 0, 72, 100
1, 8704, Note_on_c, 0, 72, 0
1, 8736, Note_on_c, 0, 73, 100
1, 8800, Note_on_c, 0, 73, 0
1, 8832, Note_on_c, 0, 74, 100
1, 8832, Note_on_c, 1, 53, 0
1, 8896, Note_on_c, 0, 74, 0
1, 8928, Note_on_c, 0, 76, 100
1, 8992, Note_on_c, 0, 76, 0
1, 9024, Note_on_c, 0, 77, 100
1, 9024, Note_on_c, 1, 50, 100
1, 9088, Note_on_c, 0, 77, 0
1, 9120, Note_on_c, 0, 74, 100
1, 9152, Note_on_c, 1, 50, 0
1, 9184, Note_on_c, 0, 74, 0
1, 9216, Note_on_c, 0, 72, 100
1, 9216, Note_on_c, 1, 55, 100
1, 9280, Note_on_c, 0, 72, 0
1, 9312, Note_on_c, 0, 71, 100
1, 9344, Note_on_c, 1, 55, 0
1, 9376, Note_on_c, 0, 71, 0
1, 9408, Note_on_c, 0, 69, 100
1, 9472, Note_on_c, 0, 69, 0
1, 9504, Note_on_c, 0, 67, 100
1, 9568, Note_on_c, 0, 67, 0
1, 9600, Note_on_c, 0, 76, 100
1, 9600, Note_on_c, 0, 79, 100
1, 9664, Note_on_c, 0, 76, 0
1, 9664, Note_on_c, 0, 79, 0
1, 9792, Note_on_c, 0, 76, 100
1, 9792, Note_on_c, 0, 79, 100
1, 9856, Note_on_c, 0, 76, 0
1, 9856, Note_on_c, 0, 79, 0
1, 9984, Note_on_c, 0, 72, 100
1, 9984, Note_on_c, 0, 76, 100
1, 9984, Note_on_c, 1, 57, 100
1, 9984, Note_on_c, 1, 60, 100
1, 10048, Note_on_c, 0, 72, 0
1, 10048, Note_on_c, 0, 76, 0
1, 10048, Note_on_c, 1, 57, 0
1, 10048, Note_on_c, 1, 60, 0
1, 10176, Note_on_c, 1, 57, 100
1, 10176, Note_on_c, 1, 60, 100
1, 10240, Note_on_c, 1, 57, 0
1, 10240, Note_on_c, 1, 60, 0
1, 10368, Note_on_c, 0, 77, 100
1, 10368, Note_on_c, 0, 81, 100
1, 10368, Note_on_c, 1, 50, 100
1, 10368, Note_on_c, 1, 53, 100
1, 10432, Note_on_c, 0, 77, 0
1, 10432, Note_on_c, 0, 81, 0
1, 10432, Note_on_c, 1, 50, 0
1, 10432, Note_on_c, 1, 53, 0
1, 10560, Note_on_c, 0, 77, 100
1, 10560, Note_on_c, 0, 81, 100
1, 10624, Note_on_c, 0, 77, 0
1, 10624, Note_on_c, 0, 81, 0
1, 10752, Note_on_c, 0, 71, 100
1, 10752, Note_on_c, 0, 74, 100
1, 10752, Note_on_c, 1, 55, 100
1, 10752, Note_on_c, 1, 59, 100
1, 10816, Note_on_c, 0, 71, 0
1, 10816, Note_on_c, 0, 74, 0
1, 10816, Note_on_c, 1, 55, 0
1, 10816, Note_on_c, 1, 59, 0
1, 10944, Note_on_c, 1, 55, 100
1, 10944, Note_on_c, 1, 59, 100
1, 11008, Note_on_c, 1, 55, 0
1, 11008, Note_on_c, 1, 59, 0
1, 11136, Note_on_c, 0, 81, 100
1, 11136, Note_on_c, 1, 48, 100
1, 11136, Note_on_c, 1, 52, 100
1, 11200, Note_on_c, 0, 81, 0
1, 11200, Note_on_c, 1, 48, 0
1, 11200, Note_on_c, 1, 52, 0
1, 11232, Note_on_c, 0, 79, 100
1, 11296, Note_on_c, 0, 79, 0
1, 11328, Note_on_c, 0, 77, 100
1, 11392, Note_on_c, 0, 77, 0
1, 11424, Note_on_c, 0, 76, 100
1, 11488, Note_on_c, 0, 76, 0
1, 11520, Note_on_c, 0, 73, 100
1, 11520, Note_on_c, 1, 53, 100
1, 11520, Note_on_c, 1, 57, 100
1, 11584, Note_on_c, 0, 73, 0
1, 11616, Note_on_c, 0, 74, 100
1, 11680, Note_on_c, 0, 74, 0
1, 11712, Note_on_c, 0, 76, 100
1, 11776, Note_on_c, 0, 76, 0
1, 11808, Note_on_c, 0, 77, 100
1, 11872, Note_on_c, 0, 77, 0
1, 11904, Note_on_c, 0, 69, 100
1, 11904, Note_on_c, 1, 53, 0
1, 11904, Note_on_c, 1, 57, 0
1, 11968, Note_on_c, 0, 69, 0
1, 12000, Note_on_c, 0, 72, 100
1, 12064, Note_on_c, 0, 72, 0
1, 12096, Note_on_c, 0, 71, 100
1, 12096, Note_on_c, 1, 55, 100
1, 12096, Note_on_c, 1, 65, 100
1, 12160, Note_on_c, 0, 71, 0
1, 12192, Note_on_c, 0, 74, 100
1, 12224, Note_on_c, 1, 55, 0
1, 12224, Note_on_c, 1, 65, 0
1, 12256, Note_on_c, 0, 74, 0
1, 12288, Note_on_c, 0, 72, 100
1, 12288, Note_on_c, 1, 64, 100
1, 12288, Note_on_c, 1, 60, 100
1, 12352, Note_on_c, 0, 72, 0
1, 12352, Note_on_c, 1, 64, 0
1, 12352, Note_on_c, 1, 60, 0
1, 12480, Note_on_c, 1, 48, 100
1, 12544, Note_on_c, 1, 48, 0
1, 12672, Note_on_c, 0, 76, 100
1, 12672, Note_on_c, 1, 60, 100
1, 12736, Note_on_c, 0, 76, 0
1, 12736, Note_on_c, 1, 60, 0
1, 12768, Note_on_c, 0, 78, 100
1, 12768, Note_on_c, 0, 67, 100
1, 12832, Note_on_c, 0, 78, 0
1, 12832, Note_on_c, 0, 67, 0
1, 12864, Note_on_c, 0, 79, 100
1, 12864, Note_on_c, 1, 64, 100
1, 12928, Note_on_c, 0, 79, 0
1, 12928, Note_on_c, 1, 64, 0
1, 12960, Note_on_c, 0, 79, 100
1, 12960, Note_on_c, 0, 67, 100
1, 13024, Note_on_c, 0, 79, 0
1, 13024, Note_on_c, 0, 67, 0
1, 13056, Note_on_c, 0, 81, 100
1, 13056, Note_on_c, 1, 59, 100
1, 13120, Note_on_c, 0, 81, 0
1, 13120, Note_on_c, 1, 59, 0
1, 13152, Note_on_c, 0, 79, 100
1, 13152, Note_on_c, 0, 67, 100
1, 13216, Note_on_c, 0, 79, 0
1, 13216, Note_on_c, 0, 67, 0
1, 13248, Note_on_c, 0, 78, 100
1, 13248, Note_on_c, 1, 62, 100
1, 13312, Note_on_c, 0, 78, 0
1, 13312, Note_on_c, 1, 62, 0
1, 13344, Note_on_c, 0, 76, 100
1, 13344, Note_on_c, 0, 67, 100
1, 13408, Note_on_c, 0, 76, 0
1, 13408, Note_on_c, 0, 67, 0
1, 13440, Note_on_c, 0, 74, 100
1, 13440, Note_on_c, 1, 54, 100
1, 13504, Note_on_c, 0, 74, 0
1, 13504, Note_on_c, 1, 54, 0
1, 13536, Note_on_c, 0, 74, 100
1, 13536, Note_on_c, 1, 62, 100
1, 13600, Note_on_c, 0, 74, 0
1, 13600, Note_on_c, 1, 62, 0
1, 13632, Note_on_c, 0, 74, 100
1, 13632, Note_on_c, 1, 57, 100
1, 13696, Note_on_c, 0, 74, 0
1, 13696, Note_on_c, 1, 57, 0
1, 13728, Note_on_c, 0, 74, 100
1, 13728, Note_on_c, 1, 62, 100
1, 13792, Note_on_c, 0, 74, 0
1, 13792, Note_on_c, 1, 62, 0
1, 13824, Note_on_c, 0, 76, 100
1, 13824, Note_on_c, 1, 55, 100
1, 13888, Note_on_c, 0, 76, 0
1, 13888, Note_on_c, 1, 55, 0
1, 13920, Note_on_c, 0, 74, 100
1, 13920, Note_on_c, 1, 62, 100
1, 13984, Note_on_c, 0, 74, 0
1, 13984, Note_on_c, 1, 62, 0
1, 14016, Note_on_c, 0, 72, 100
1, 14016, Note_on_c, 1, 59, 100
1, 14080, Note_on_c, 0, 72, 0
1, 14080, Note_on_c, 1, 59, 0
1, 14112, Note_on_c, 0, 71, 100
1, 14112, Note_on_c, 1, 62, 100
1, 14176, Note_on_c, 0, 71, 0
1, 14176, Note_on_c, 1, 62, 0
1, 14208, Note_on_c, 0, 88, 100
1, 14208, Note_on_c, 1, 47, 100
1, 14272, Note_on_c, 0, 88, 0
1, 14272, Note_on_c, 1, 47, 0
1, 14304, Note_on_c, 0, 86, 100
1, 14304, Note_on_c, 1, 55, 100
1, 14368, Note_on_c, 0, 86, 0
1, 14368, Note_on_c, 1, 55, 0
1, 14400, Note_on_c, 0, 84, 100
1, 14400, Note_on_c, 1, 50, 100
1, 14464, Note_on_c, 0, 84, 0
1, 14464, Note_on_c, 1, 50, 0
1, 14496, Note_on_c, 0, 83, 100
1, 14496, Note_on_c, 1, 55, 100
1, 14560, Note_on_c, 0, 83, 0
1, 14560, Note_on_c, 1, 55, 0
1, 14592, Note_on_c, 0, 80, 100
1, 14592, Note_on_c, 1, 48, 100
1, 14656, Note_on_c, 0, 80, 0
1, 14656, Note_on_c, 1, 48, 0
1, 14688, Note_on_c, 0, 81, 100
1, 14688, Note_on_c, 1, 57, 100
1, 14752, Note_on_c, 0, 81, 0
1, 14752, Note_on_c, 1, 57, 0
1, 14784, Note_on_c, 0, 83, 100
1, 14784, Note_on_c, 1, 52, 100
1, 14848, Note_on_c, 0, 83, 0
1, 14848, Note_on_c, 1, 52, 0
1, 14880, Note_on_c, 0, 84, 100
1, 14880, Note_on_c, 1, 57, 100
1, 14944, Note_on_c, 0, 84, 0
1, 14944, Note_on_c, 1, 57, 0
1, 14976, Note_on_c, 0, 76, 100
1, 14976, Note_on_c, 1, 49, 100
1, 15040, Note_on_c, 0, 76, 0
1, 15040, Note_on_c, 1, 49, 0
1, 15072, Note_on_c, 0, 78, 100
1, 15072, Note_on_c, 1, 57, 100
1, 15136, Note_on_c, 0, 78, 0
1, 15136, Note_on_c, 1, 57, 0
1, 15168, Note_on_c, 0, 79, 100
1, 15168, Note_on_c, 1, 52, 100
1, 15232, Note_on_c, 0, 79, 0
1, 15232, Note_on_c, 1, 52, 0
1, 15264, Note_on_c, 0, 81, 100
1, 15264, Note_on_c, 1, 57, 100
1, 15328, Note_on_c, 0, 81, 0
1, 15328, Note_on_c, 1, 57, 0
1, 15360, Note_on_c, 0, 79, 100
1, 15360, Note_on_c, 1, 50, 100
1, 15424, Note_on_c, 0, 79, 0
1, 15456, Note_on_c, 0, 78, 100
1, 15488, Note_on_c, 1, 50, 0
1, 15520, Note_on_c, 0, 78, 0
1, 15552, Note_on_c, 0, 76, 100
1, 15616, Note_on_c, 0, 76, 0
1, 15648, Note_on_c, 0, 74, 100
1, 15712, Note_on_c, 0, 74, 0
1, 15744, Note_on_c, 0, 83, 100
1, 15744, Note_on_c, 0, 86, 100
1, 15808, Note_on_c, 0, 83, 0
1, 15808, Note_on_c, 0, 86, 0
1, 15936, Note_on_c, 0, 83, 100
1, 15936, Note_on_c, 0, 86, 100
1, 16000, Note_on_c, 0, 83, 0
1, 16000, Note_on_c, 0, 86, 0
1, 16128, Note_on_c, 0, 79, 100
1, 16128, Note_on_c, 0, 83, 100
1, 16128, Note_on_c, 1, 64, 100
1, 16128, Note_on_c, 1, 67, 100
1, 16192, Note_on_c, 0, 79, 0
1, 16192, Note_on_c, 0, 83, 0
1, 16192, Note_on_c, 1, 64, 0
1, 16192, Note_on_c, 1, 67, 0
1, 16320, Note_on_c, 1, 64, 100
1, 16320, Note_on_c, 1, 67, 100
1, 16384, Note_on_c, 1, 64, 0
1, 16384, Note_on_c, 1, 67, 0
1, 16512, Note_on_c, 0, 81, 100
1, 16512, Note_on_c, 0, 84, 100
1, 16512, Note_on_c, 1, 60, 100
1, 16512, Note_on_c, 1, 64, 100
1, 16576, Note_on_c, 0, 81, 0
1, 16576, Note_on_c, 0, 84, 0
1, 16576, Note_on_c, 1, 60, 0
1, 16576, Note_on_c, 1, 64, 0
1, 16704, Note_on_c, 0, 81, 100
1, 16704, Note_on_c, 0, 84, 100
1, 16768, Note_on_c, 0, 81, 0
1, 16768, Note_on_c, 0, 84, 0
1, 16896, Note_on_c, 0, 78, 100
1, 16896, Note_on_c, 0, 81, 100
1, 16896, Note_on_c, 1, 62, 100
1, 16896, Note_on_c, 1, 66, 100
1, 16960, Note_on_c, 0, 78, 0
1, 16960, Note_on_c, 0, 81, 0
1, 16960, Note_on_c, 1, 62, 0
1, 16960, Note_on_c, 1, 66, 0
1, 17088, Note_on_c, 1, 62, 100
1, 17088, Note_on_c, 1, 66, 100
1, 17152, Note_on_c, 1, 62, 0
1, 17152, Note_on_c, 1, 66, 0
1, 17280, Note_on_c, 0, 79, 100
1, 17280, Note_on_c, 1, 59, 100
1, 17280, Note_on_c, 1, 62, 100
1, 17344, Note_on_c, 0, 79, 0
1, 17344, Note_on_c, 1, 59, 0
1, 17344, Note_on_c, 1, 62, 0
1, 17376, Note_on_c, 0, 81, 100
1, 17440, Note_on_c, 0, 81, 0
1, 17472, Note_on_c, 0, 83, 100
1, 17536, Note_on_c, 0, 83, 0
1, 17568, Note_on_c, 0, 79, 100
1, 17632, Note_on_c, 0, 79, 0
1, 17664, Note_on_c, 0, 75, 100
1, 17664, Note_on_c, 1, 48, 100
1, 17664, Note_on_c, 1, 55, 100
1, 17728, Note_on_c, 0, 75, 0
1, 17760, Note_on_c, 0, 76, 100
1, 17824, Note_on_c, 0, 76, 0
1, 17856, Note_on_c, 0, 79, 100
1, 17920, Note_on_c, 0, 79, 0
1, 17920, Note_on_c, 1, 48, 0
1, 17920, Note_on_c, 1, 55, 0
1, 17952, Note_on_c, 0, 76, 100
1, 18016, Note_on_c, 0, 76, 0
1, 18048, Note_on_c, 0, 74, 100
1, 18048, Note_on_c, 1, 50, 100
1, 18112, Note_on_c, 0, 74, 0
1, 18144, Note_on_c, 0, 71, 100
1, 18176, Note_on_c, 1, 50, 0
1, 18208, Note_on_c, 0, 71, 0
1, 18240, Note_on_c, 0, 72, 100
1, 18240, Note_on_c, 1, 54, 100
1, 18304, Note_on_c, 0, 72, 0
1, 18336, Note_on_c, 0, 69, 100
1, 18368, Note_on_c, 1, 54, 0
1, 18400, Note_on_c, 0, 69, 0
1, 18432, Note_on_c, 0, 67, 100
1, 18432, Note_on_c, 1, 55, 100
1, 18496, Note_on_c, 1, 55, 0
1, 18560, Note_on_c, 0, 67, 0
1, 18624, Note_on_c, 1, 43, 100
1, 18688, Note_on_c, 1, 43, 0
1, 18816, Note_on_c, 0, 67, 100
1, 18880, Note_on_c, 0, 67, 0
1, 18912, Note_on_c, 0, 69, 100
1, 18976, Note_on_c, 0, 69, 0
1, 19008, Note_on_c, 0, 71, 100
1, 19072, Note_on_c, 0, 71, 0
1, 19104, Note_on_c, 0, 72, 100
1, 19168, Note_on_c, 0, 72, 0
1, 19200, Note_on_c, 0, 74, 100
1, 19200, Note_on_c, 1, 55, 100
1, 19200, Note_on_c, 1, 59, 100
1, 19264, Note_on_c, 0, 74, 0
1, 19264, Note_on_c, 1, 55, 0
1, 19264, Note_on_c, 1, 59, 0
1, 19392, Note_on_c, 1, 43, 100
1, 19456, Note_on_c, 1, 43, 0
1, 19584, Note_on_c, 0, 71, 100
1, 19648, Note_on_c, 0, 71, 0
1, 19680, Note_on_c, 0, 72, 100
1, 19744, Note_on_c, 0, 72, 0
1, 19776, Note_on_c, 0, 74, 100
1, 19840, Note_on_c, 0, 74, 0
1, 19872, Note_on_c, 0, 76, 100
1, 19936, Note_on_c, 0, 76, 0
1, 19968, Note_on_c, 0, 77, 100
1, 19968, Note_on_c, 1, 55, 100
1, 19968, Note_on_c, 1, 59, 100
1, 20032, Note_on_c, 0, 77, 0
1, 20032, Note_on_c, 1, 55, 0
1, 20032, Note_on_c, 1, 59, 0
1, 20160, Note_on_c, 1, 43, 100
1, 20224, Note_on_c, 1, 43, 0
1, 20352, Note_on_c, 0, 74, 100
1, 20416, Note_on_c, 0, 74, 0
1, 20448, Note_on_c, 0, 76, 100
1, 20512, Note_on_c, 0, 76, 0
1, 20544, Note_on_c, 0, 77, 100
1, 20608, Note_on_c, 0, 77, 0
1, 20640, Note_on_c, 0, 79, 100
1, 20704, Note_on_c, 0, 79, 0
1, 20736, Note_on_c, 0, 81, 100
1, 20864, Note_on_c, 0, 81, 0
1, 20928, Note_on_c, 0, 80, 100
1, 20992, Note_on_c, 0, 80, 0
1, 21120, Note_on_c, 0, 79, 100
1, 21184, Note_on_c, 0, 79, 0
1, 21312, Note_on_c, 0, 78, 100
1, 21376, Note_on_c, 0, 78, 0
1, 21504, Note_on_c, 0, 77, 100
1, 21568, Note_on_c, 0, 77, 0
1, 21888, Note_on_c, 0, 76, 100
1, 21888, Note_on_c, 0, 79, 100
1, 21952, Note_on_c, 0, 76, 0
1, 21952, Note_on_c, 0, 79, 0
1, 22080, Note_on_c, 0, 76, 100
1, 22080, Note_on_c, 0, 79, 100
1, 22144, Note_on_c, 0, 76, 0
1, 22144, Note_on_c, 0, 79, 0
1, 22272, Note_on_c, 0, 72, 100
1, 22272, Note_on_c, 0, 76, 100
1, 22272, Note_on_c, 1, 57, 100
1, 22272, Note_on_c, 1, 60, 100
1, 22336, Note_on_c, 0, 72, 0
1, 22336, Note_on_c, 0, 76, 0
1, 22336, Note_on_c, 1, 57, 0
1, 22336, Note_on_c, 1, 60, 0
1, 22464, Note_on_c, 1, 57, 100
1, 22464, Note_on_c, 1, 60, 100
1, 22528, Note_on_c, 1, 57, 0
1, 22528, Note_on_c, 1, 60, 0
1, 22656, Note_on_c, 0, 74, 100
1, 22656, Note_on_c, 0, 77, 100
1, 22656, Note_on_c, 1, 53, 100
1, 22656, Note_on_c, 1, 57, 100
1, 22720, Note_on_c, 0, 74, 0
1, 22720, Note_on_c, 0, 77, 0
1, 22720, Note_on_c, 1, 53, 0
1, 22720, Note_on_c, 1, 57, 0
1, 22848, Note_on_c, 0, 74, 100
1, 22848, Note_on_c, 0, 77, 100
1, 22912, Note_on_c, 0, 74, 0
1, 22912, Note_on_c, 0, 77, 0
1, 23040, Note_on_c, 0, 71, 100
1, 23040, Note_on_c, 0, 74, 100
1, 23040, Note_on_c, 1, 55, 100
1, 23040, Note_on_c, 1, 59, 100
1, 23104, Note_on_c, 0, 71, 0
1, 23104, Note_on_c, 0, 74, 0
1, 23104, Note_on_c, 1, 55, 0
1, 23104, Note_on_c, 1, 59, 0
1, 23232, Note_on_c, 1, 55, 100
1, 23232, Note_on_c, 1, 59, 100
1, 23296, Note_on_c, 1, 55, 0
1, 23296, Note_on_c, 1, 59, 0
1, 23424, Note_on_c, 0, 72, 100
1, 23424, Note_on_c, 1, 52, 100
1, 23424, Note_on_c, 1, 55, 100
1, 23488, Note_on_c, 0, 72, 0
1, 23488, Note_on_c, 1, 52, 0
1, 23488, Note_on_c, 1, 55, 0
1, 23520, Note_on_c, 0, 74, 100
1, 23584, Note_on_c, 0, 74, 0
1, 23616, Note_on_c, 0, 76, 100
1, 23680, Note_on_c, 0, 76, 0
1, 23712, Note_on_c, 0, 72, 100
1, 23776, Note_on_c, 0, 72, 0
1, 23808, Note_on_c, 0, 69, 100
1, 23808, Note_on_c, 1, 53, 100
1, 23872, Note_on_c, 0, 69, 0
1, 23904, Note_on_c, 0, 71, 100
1, 23968, Note_on_c, 0, 71, 0
1, 24000, Note_on_c, 0, 72, 100
1, 24064, Note_on_c, 0, 72, 0
1, 24096, Note_on_c, 0, 73, 100
1, 24160, Note_on_c, 0, 73, 0
1, 24192, Note_on_c, 0, 74, 100
1, 24192, Note_on_c, 1, 53, 0
1, 24256, Note_on_c, 0, 74, 0
1, 24288, Note_on_c, 0, 76, 100
1, 24352, Note_on_c, 0, 76, 0
1, 24384, Note_on_c, 0, 77, 100
1, 24384, Note_on_c, 1, 50, 100
1, 24448, Note_on_c, 0, 77, 0
1, 24480, Note_on_c, 0, 74, 100
1, 24512, Note_on_c, 1, 50, 0
1, 24544, Note_on_c, 0, 74, 0
1, 24576, Note_on_c, 0, 72, 100
1, 24576, Note_on_c, 1, 55, 100
1, 24640, Note_on_c, 0, 72, 0
1, 24672, Note_on_c, 0, 71, 100
1, 24704, Note_on_c, 1, 55, 0
1, 24736, Note_on_c, 0, 71, 0
1, 24768, Note_on_c, 0, 69, 100
1, 24832, Note_on_c, 0, 69, 0
1, 24864, Note_on_c, 0, 67, 100
1, 24928, Note_on_c, 0, 67, 0
1, 24960, Note_on_c, 0, 76, 100
1, 24960, Note_on_c, 0, 79, 100
1, 25024, Note_on_c, 0, 76, 0
1, 25024, Note_on_c, 0, 79, 0
1, 25152, Note_on_c, 0, 76, 100
1, 25152, Note_on_c, 0, 79, 100
1, 25216, Note_on_c, 0, 76, 0
1, 25216, Note_on_c, 0, 79, 0
1, 25344, Note_on_c, 0, 72, 100
1, 25344, Note_on_c, 0, 76, 100
1, 25344, Note_on_c, 1, 57, 100
1, 25344, Note_on_c, 1, 60, 100
1, 25408, Note_on_c, 0, 72, 0
1, 25408, Note_on_c, 0, 76, 0
1, 25408, Note_on_c, 1, 57, 0
1, 25408, Note_on_c, 1, 60, 0
1, 25536, Note_on_c, 1, 57, 100
1, 25536, Note_on_c, 1, 60, 100
1, 25600, Note_on_c, 1, 57, 0
1, 25600, Note_on_c, 1, 60, 0
1, 25728, Note_on_c, 0, 77, 100
1, 25728, Note_on_c, 0, 81, 100
1, 25728, Note_on_c, 1, 50, 100
1, 25728, Note_on_c, 1, 53, 100
1, 25792, Note_on_c, 0, 77, 0
1, 25792, Note_on_c, 0, 81, 0
1, 25792, Note_on_c, 1, 50, 0
1, 25792, Note_on_c, 1, 53, 0
1, 25920, Note_on_c, 0, 77, 100
1, 25920, Note_on_c, 0, 81, 100
1, 25984, Note_on_c, 0, 77, 0
1, 25984, Note_on_c, 0, 81, 0
1, 26112, Note_on_c, 0, 71, 100
1, 26112, Note_on_c, 0, 74, 100
1, 26112, Note_on_c, 1, 55, 100
1, 26112, Note_on_c, 1, 59, 100
1, 26176, Note_on_c, 0, 71, 0
1, 26176, Note_on_c, 0, 74, 0
1, 26176, Note_on_c, 1, 55, 0
1, 26176, Note_on_c, 1, 59, 0
1, 26304, Note_on_c, 1, 55, 100
1, 26304, Note_on_c, 1, 59, 100
1, 26368, Note_on_c, 1, 55, 0
1, 26368, Note_on_c, 1, 59, 0
1, 26496, Note_on_c, 0, 81, 100
1, 26496, Note_on_c, 1, 48, 100
1, 26496, Note_on_c, 1, 52, 100
1, 26560, Note_on_c, 0, 81, 0
1, 26560, Note_on_c, 1, 48, 0
1, 26560, Note_on_c, 1, 52, 0
1, 26592, Note_on_c, 0, 79, 100
1, 26656, Note_on_c, 0, 79, 0
1, 26688, Note_on_c, 0, 77, 100
1, 26752, Note_on_c, 0, 77, 0
1, 26784, Note_on_c, 0, 76, 100
1, 26848, Note_on_c, 0, 76, 0
1, 26880, Note_on_c, 0, 73, 100
1, 26880, Note_on_c, 1, 53, 100
1, 26880, Note_on_c, 1, 57, 100
1, 26944, Note_on_c, 0, 73, 0
1, 26976, Note_on_c, 0, 74, 100
1, 27040, Note_on_c, 0, 74, 0
1, 27072, Note_on_c, 0, 76, 100
1, 27136, Note_on_c, 0, 76, 0
1, 27168, Note_on_c, 0, 77, 100
1, 27232, Note_on_c, 0, 77, 0
1, 27264, Note_on_c, 0, 69, 100
1, 27264, Note_on_c, 1, 53, 0
1, 27264, Note_on_c, 1, 57, 0
1, 27328, Note_on_c, 0, 69, 0
1, 27360, Note_on_c, 0, 72, 100
1, 27424, Note_on_c, 0, 72, 0
1, 27456, Note_on_c, 0, 71, 100
1, 27456, Note_on_c, 1, 55, 100
1, 27456, Note_on_c, 1, 65, 100
1, 27520, Note_on_c, 0, 71, 0
1, 27552, Note_on_c, 0, 74, 100
1, 27584, Note_on_c, 1, 55, 0
1, 27584, Note_on_c, 1, 65, 0
1, 27616, Note_on_c, 0, 74, 0
1, 27648, Note_on_c, 0, 72, 100
1, 27648, Note_on_c, 1, 60, 100
1, 27648, Note_on_c, 1, 64, 100
1, 27712, Note_on_c, 0, 72, 0
1, 27712, Note_on_c, 1, 60, 0
1, 27712, Note_on_c, 1, 64, 0
1, 27840, Note_on_c, 1, 48, 100
1, 27904, Note_on_c, 1, 48, 0
1, 28032, Note_on_c, 1, 60, 100
1, 28032, Note_on_c, 1, 64, 100
1, 28096, Note_on_c, 1, 60, 0
1, 28096, Note_on_c, 1, 64, 0
1, 28224, Note_on_c, 1, 60, 100
1, 28224, Note_on_c, 1, 64, 100
1, 28288, Note_on_c, 1, 60, 0
1, 28288, Note_on_c, 1, 64, 0
1, 28416, Note_on_c, 0, 76, 100
1, 28416, Note_on_c, 1, 57, 100
1, 28416, Note_on_c, 1, 60, 100
1, 28480, Note_on_c, 0, 76, 0
1, 28480, Note_on_c, 1, 57, 0
1, 28480, Note_on_c, 1, 60, 0
1, 28512, Note_on_c, 0, 75, 100
1, 28576, Note_on_c, 0, 75, 0
1, 28608, Note_on_c, 0, 77, 100
1, 28672, Note_on_c, 0, 77, 0
1, 28704, Note_on_c, 0, 76, 100
1, 28768, Note_on_c, 0, 76, 0
1, 28800, Note_on_c, 1, 59, 100
1, 28800, Note_on_c, 1, 62, 100
1, 28864, Note_on_c, 1, 59, 0
1, 28864, Note_on_c, 1, 62, 0
1, 28992, Note_on_c, 1, 59, 100
1, 28992, Note_on_c, 1, 62, 100
1, 29056, Note_on_c, 1, 59, 0
1, 29056, Note_on_c, 1, 62, 0
1, 29184, Note_on_c, 0, 76, 100
1, 29184, Note_on_c, 1, 56, 100
1, 29184, Note_on_c, 1, 59, 100
1, 29248, Note_on_c, 0, 76, 0
1, 29248, Note_on_c, 1, 56, 0
1, 29248, Note_on_c, 1, 59, 0
1, 29280, Note_on_c, 0, 75, 100
1, 29344, Note_on_c, 0, 75, 0
1, 29376, Note_on_c, 0, 77, 100
1, 29440, Note_on_c, 0, 77, 0
1, 29472, Note_on_c, 0, 76, 100
1, 29536, Note_on_c, 0, 76, 0
1, 29568, Note_on_c, 0, 76, 100
1, 29568, Note_on_c, 0, 84, 100
1, 29632, Note_on_c, 0, 76, 0
1, 29632, Note_on_c, 0, 84, 0
1, 29760, Note_on_c, 0, 76, 100
1, 29760, Note_on_c, 0, 84, 100
1, 29824, Note_on_c, 0, 76, 0
1, 29824, Note_on_c, 0, 84, 0
1, 29952, Note_on_c, 0, 72, 100
1, 29952, Note_on_c, 0, 81, 100
1, 29952, Note_on_c, 1, 64, 100
1, 30016, Note_on_c, 0, 72, 0
1, 30016, Note_on_c, 0, 81, 0
1, 30016, Note_on_c, 1, 64, 0
1, 30048, Note_on_c, 1, 63, 100
1, 30112, Note_on_c, 1, 63, 0
1, 30144, Note_on_c, 1, 65, 100
1, 30208, Note_on_c, 1, 65, 0
1, 30240, Note_on_c, 1, 64, 100
1, 30304, Note_on_c, 1, 64, 0
1, 30336, Note_on_c, 0, 74, 100
1, 30336, Note_on_c, 0, 83, 100
1, 30400, Note_on_c, 0, 74, 0
1, 30400, Note_on_c, 0, 83, 0
1, 30528, Note_on_c, 0, 74, 100
1, 30528, Note_on_c, 0, 83, 100
1, 30592, Note_on_c, 0, 74, 0
1, 30592, Note_on_c, 0, 83, 0
1, 30720, Note_on_c, 0, 71, 100
1, 30720, Note_on_c, 0, 80, 100
1, 30720, Note_on_c, 1, 64, 100
1, 30784, Note_on_c, 0, 71, 0
1, 30784, Note_on_c, 0, 80, 0
1, 30784, Note_on_c, 1, 64, 0
1, 30816, Note_on_c, 1, 63, 100
1, 30880, Note_on_c, 1, 63, 0
1, 30912, Note_on_c, 1, 65, 100
1, 30976, Note_on_c, 1, 65, 0
1, 31008, Note_on_c, 1, 64, 100
1, 31072, Note_on_c, 1, 64, 0
1, 31104, Note_on_c, 0, 81, 100
1, 31104, Note_on_c, 1, 60, 100
1, 31104, Note_on_c, 1, 64, 100
1, 31168, Note_on_c, 0, 81, 0
1, 31200, Note_on_c, 0, 76, 100
1, 31264, Note_on_c, 0, 76, 0
1, 31296, Note_on_c, 0, 72, 100
1, 31360, Note_on_c, 0, 72, 0
1, 31360, Note_on_c, 1, 60, 0
1, 31360, Note_on_c, 1, 64, 0
1, 31392, Note_on_c, 0, 69, 100
1, 31456, Note_on_c, 0, 69, 0
1, 31488, Note_on_c, 0, 72, 100
1, 31488, Note_on_c, 1, 62, 100
1, 31488, Note_on_c, 1, 65, 100
1, 31552, Note_on_c, 0, 72, 0
1, 31584, Note_on_c, 0, 70, 100
1, 31648, Note_on_c, 0, 70, 0
1, 31680, Note_on_c, 0, 70, 100
1, 31744, Note_on_c, 0, 70, 0
1, 31744, Note_on_c, 1, 62, 0
1, 31744, Note_on_c, 1, 65, 0
1, 31776, Note_on_c, 0, 70, 100
1, 31840, Note_on_c, 0, 70, 0
1, 31872, Note_on_c, 0, 74, 100
1, 31872, Note_on_c, 1, 64, 100
1, 31872, Note_on_c, 1, 67, 100
1, 31936, Note_on_c, 0, 74, 0
1, 31968, Note_on_c, 0, 73, 100
1, 32032, Note_on_c, 0, 73, 0
1, 32064, Note_on_c, 0, 73, 100
1, 32128, Note_on_c, 0, 73, 0
1, 32128, Note_on_c, 1, 64, 0
1, 32128, Note_on_c, 1, 67, 0
1, 32160, Note_on_c, 0, 73, 100
1, 32224, Note_on_c, 0, 73, 0
1, 32256, Note_on_c, 0, 76, 100
1, 32256, Note_on_c, 1, 65, 100
1, 32256, Note_on_c, 1, 69, 100
1, 32320, Note_on_c, 0, 76, 0
1, 32352, Note_on_c, 0, 74, 100
1, 32384, Note_on_c, 1, 65, 0
1, 32384, Note_on_c, 1, 69, 0
1, 32416, Note_on_c, 0, 74, 0
1, 32448, Note_on_c, 0, 77, 100
1, 32448, Note_on_c, 1, 61, 100
1, 32512, Note_on_c, 0, 77, 0
1, 32544, Note_on_c, 0, 76, 100
1, 32576, Note_on_c, 1, 61, 0
1, 32608, Note_on_c, 0, 76, 0
1, 32640, Note_on_c, 0, 79, 100
1, 32640, Note_on_c, 1, 62, 100
1, 32704, Note_on_c, 0, 79, 0
1, 32736, Note_on_c, 0, 77, 100
1, 32768, Note_on_c, 1, 62, 0
1, 32800, Note_on_c, 0, 77, 0
1, 32832, Note_on_c, 0, 77, 100
1, 32832, Note_on_c, 1, 64, 100
1, 32896, Note_on_c, 0, 77, 0
1, 32928, Note_on_c, 0, 76, 100
1, 32960, Note_on_c, 1, 64, 0
1, 32992, Note_on_c, 0, 76, 0
1, 33024, Note_on_c, 0, 76, 100
1, 33024, Note_on_c, 1, 65, 100
1, 33024, Note_on_c, 1, 69, 100
1, 33088, Note_on_c, 0, 76, 0
1, 33120, Note_on_c, 0, 75, 100
1, 33152, Note_on_c, 1, 65, 0
1, 33152, Note_on_c, 1, 69, 0
1, 33184, Note_on_c, 0, 75, 0
1, 33216, Note_on_c, 0, 84, 100
1, 33408, Note_on_c, 1, 65, 100
1, 33408, Note_on_c, 1, 69, 100
1, 33472, Note_on_c, 0, 84, 0
1, 33536, Note_on_c, 1, 65, 0
1, 33536, Note_on_c, 1, 69, 0
1, 33600, Note_on_c, 0, 75, 100
1, 33728, Note_on_c, 0, 75, 0
1, 33792, Note_on_c, 0, 76, 100
1, 33792, Note_on_c, 1, 52, 100
1, 33856, Note_on_c, 1, 52, 0
1, 33888, Note_on_c, 1, 64, 100
1, 33920, Note_on_c, 0, 76, 0
1, 33952, Note_on_c, 1, 64, 0
1, 33984, Note_on_c, 1, 56, 100
1, 34048, Note_on_c, 1, 56, 0
1, 34080, Note_on_c, 1, 64, 100
1, 34144, Note_on_c, 1, 64, 0
1, 34176, Note_on_c, 0, 83, 100
1, 34176, Note_on_c, 1, 59, 100
1, 34240, Note_on_c, 0, 83, 0
1, 34240, Note_on_c, 1, 59, 0
1, 34272, Note_on_c, 0, 80, 100
1, 34272, Note_on_c, 1, 64, 100
1, 34336, Note_on_c, 0, 80, 0
1, 34336, Note_on_c, 1, 64, 0
1, 34368, Note_on_c, 0, 76, 100
1, 34368, Note_on_c, 1, 56, 100
1, 34432, Note_on_c, 0, 76, 0
1, 34432, Note_on_c, 1, 56, 0
1, 34464, Note_on_c, 0, 74, 100
1, 34464, Note_on_c, 1, 64, 100
1, 34528, Note_on_c, 0, 74, 0
1, 34528, Note_on_c, 1, 64, 0
1, 34560, Note_on_c, 0, 72, 100
1, 34560, Note_on_c, 1, 52, 100
1, 34624, Note_on_c, 0, 72, 0
1, 34624, Note_on_c, 1, 52, 0
1, 34656, Note_on_c, 0, 76, 100
1, 34656, Note_on_c, 1, 64, 100
1, 34720, Note_on_c, 0, 76, 0
1, 34720, Note_on_c, 1, 64, 0
1, 34752, Note_on_c, 0, 81, 100
1, 34752, Note_on_c, 1, 57, 100
1, 34816, Note_on_c, 0, 81, 0
1, 34816, Note_on_c, 1, 57, 0
1, 34848, Note_on_c, 0, 80, 100
1, 34848, Note_on_c, 1, 64, 100
1, 34912, Note_on_c, 0, 80, 0
1, 34912, Note_on_c, 1, 64, 0
1, 34944, Note_on_c, 0, 81, 100
1, 34944, Note_on_c, 1, 60, 100
1, 35008, Note_on_c, 0, 81, 0
1, 35008, Note_on_c, 1, 60, 0
1, 35040, Note_on_c, 0, 76, 100
1, 35040, Note_on_c, 1, 64, 100
1, 35104, Note_on_c, 0, 76, 0
1, 35104, Note_on_c, 1, 64, 0
1, 35136, Note_on_c, 0, 72, 100
1, 35136, Note_on_c, 1, 57, 100
1, 35200, Note_on_c, 0, 72, 0
1, 35200, Note_on_c, 1, 57, 0
1, 35232, Note_on_c, 0, 69, 100
1, 35232, Note_on_c, 1, 64, 100
1, 35296, Note_on_c, 0, 69, 0
1, 35296, Note_on_c, 1, 64, 0
1, 35328, Note_on_c, 0, 68, 100
1, 35328, Note_on_c, 1, 52, 100
1, 35392, Note_on_c, 0, 68, 0
1, 35392, Note_on_c, 1, 52, 0
1, 35424, Note_on_c, 0, 71, 100
1, 35424, Note_on_c, 1, 64, 100
1, 35488, Note_on_c, 0, 71, 0
1, 35488, Note_on_c, 1, 64, 0
1, 35520, Note_on_c, 0, 76, 100
1, 35520, Note_on_c, 1, 56, 100
1, 35584, Note_on_c, 0, 76, 0
1, 35584, Note_on_c, 1, 56, 0
1, 35616, Note_on_c, 0, 80, 100
1, 35616, Note_on_c, 1, 64, 100
1, 35680, Note_on_c, 0, 80, 0
1, 35680, Note_on_c, 1, 64, 0
1, 35712, Note_on_c, 0, 83, 100
1, 35712, Note_on_c, 1, 59, 100
1, 35776, Note_on_c, 0, 83, 0
1, 35776, Note_on_c, 1, 59, 0
1, 35808, Note_on_c, 0, 80, 100
1, 35808, Note_on_c, 1, 64, 100
1, 35872, Note_on_c, 0, 80, 0
1, 35872, Note_on_c, 1, 64, 0
1, 35904, Note_on_c, 0, 76, 100
1, 35904, Note_on_c, 1, 56, 100
1, 35968, Note_on_c, 0, 76, 0
1, 35968, Note_on_c, 1, 56, 0
1, 36000, Note_on_c, 0, 74, 100
1, 36000, Note_on_c, 1, 64, 100
1, 36064, Note_on_c, 0, 74, 0
1, 36064, Note_on_c, 1, 64, 0
1, 36096, Note_on_c, 0, 72, 100
1, 36096, Note_on_c, 1, 52, 100
1, 36160, Note_on_c, 0, 72, 0
1, 36160, Note_on_c, 1, 52, 0
1, 36192, Note_on_c, 0, 76, 100
1, 36192, Note_on_c, 1, 64, 100
1, 36256, Note_on_c, 0, 76, 0
1, 36256, Note_on_c, 1, 64, 0
1, 36288, Note_on_c, 0, 81, 100
1, 36288, Note_on_c, 1, 57, 100
1, 36352, Note_on_c, 0, 81, 0
1, 36352, Note_on_c, 1, 57, 0
1, 36384, Note_on_c, 0, 80, 100
1, 36384, Note_on_c, 1, 64, 100
1, 36448, Note_on_c, 0, 80, 0
1, 36448, Note_on_c, 1, 64, 0
1, 36480, Note_on_c, 0, 81, 100
1, 36480, Note_on_c, 1, 60, 100
1, 36544, Note_on_c, 0, 81, 0
1, 36544, Note_on_c, 1, 60, 0
1, 36576, Note_on_c, 0, 76, 100
1, 36576, Note_on_c, 1, 64, 100
1, 36640, Note_on_c, 0, 76, 0
1, 36640, Note_on_c, 1, 64, 0
1, 36672, Note_on_c, 0, 72, 100
1, 36672, Note_on_c, 1, 57, 100
1, 36736, Note_on_c, 0, 72, 0
1, 36736, Note_on_c, 1, 57, 0
1, 36768, Note_on_c, 0, 69, 100
1, 36768, Note_on_c, 1, 64, 100
1, 36832, Note_on_c, 0, 69, 0
1, 36832, Note_on_c, 1, 64, 0
1, 36864, Note_on_c, 0, 64, 100
1, 36864, Note_on_c, 1, 52, 100
1, 36992, Note_on_c, 0, 64, 0
1, 36992, Note_on_c, 1, 52, 0
1, 37248, Note_on_c, 0, 72, 100
1, 37248, Note_on_c, 0, 76, 100
1, 37312, Note_on_c, 0, 72, 0
1, 37312, Note_on_c, 0, 76, 0
1, 37440, Note_on_c, 0, 72, 100
1, 37440, Note_on_c, 0, 76, 100
1, 37504, Note_on_c, 0, 72, 0
1, 37504, Note_on_c, 0, 76, 0
1, 37632, Note_on_c, 0, 69, 100
1, 37632, Note_on_c, 0, 72, 100
1, 37632, Note_on_c, 1, 64, 100
1, 37696, Note_on_c, 0, 69, 0
1, 37696, Note_on_c, 0, 72, 0
1, 37696, Note_on_c, 1, 64, 0
1, 37728, Note_on_c, 1, 63, 100
1, 37792, Note_on_c, 1, 63, 0
1, 37824, Note_on_c, 1, 65, 100
1, 37888, Note_on_c, 1, 65, 0
1, 37920, Note_on_c, 1, 64, 100
1, 37984, Note_on_c, 1, 64, 0
1, 38016, Note_on_c, 0, 71, 100
1, 38016, Note_on_c, 0, 74, 100
1, 38080, Note_on_c, 0, 71, 0
1, 38080, Note_on_c, 0, 74, 0
1, 38208, Note_on_c, 0, 71, 100
1, 38208, Note_on_c, 0, 74, 100
1, 38272, Note_on_c, 0, 71, 0
1, 38272, Note_on_c, 0, 74, 0
1, 38400, Note_on_c, 0, 68, 100
1, 38400, Note_on_c, 0, 71, 100
1, 38400, Note_on_c, 1, 64, 100
1, 38464, Note_on_c, 0, 68, 0
1, 38464, Note_on_c, 0, 71, 0
1, 38464, Note_on_c, 1, 64, 0
1, 38496, Note_on_c, 1, 63, 100
1, 38560, Note_on_c, 1, 63, 0
1, 38592, Note_on_c, 1, 65, 100
1, 38656, Note_on_c, 1, 65, 0
1, 38688, Note_on_c, 1, 64, 100
1, 38752, Note_on_c, 1, 64, 0
1, 38784, Note_on_c, 1, 52, 100
1, 38784, Note_on_c, 1, 60, 100
1, 38848, Note_on_c, 1, 52, 0
1, 38848, Note_on_c, 1, 60, 0
1, 38976, Note_on_c, 1, 52, 100
1, 38976, Note_on_c, 1, 60, 100
1, 39040, Note_on_c, 1, 52, 0
1, 39040, Note_on_c, 1, 60, 0
1, 39168, Note_on_c, 0, 64, 100
1, 39168, Note_on_c, 1, 48, 100
1, 39168, Note_on_c, 1, 57, 100
1, 39232, Note_on_c, 0, 64, 0
1, 39232, Note_on_c, 1, 48, 0
1, 39232, Note_on_c, 1, 57, 0
1, 39264, Note_on_c, 0, 63, 100
1, 39328, Note_on_c, 0, 63, 0
1, 39360, Note_on_c, 0, 65, 100
1, 39424, Note_on_c, 0, 65, 0
1, 39456, Note_on_c, 0, 64, 100
1, 39520, Note_on_c, 0, 64, 0
1, 39552, Note_on_c, 1, 50, 100
1, 39552, Note_on_c, 1, 59, 100
1, 39616, Note_on_c, 1, 50, 0
1, 39616, Note_on_c, 1, 59, 0
1, 39744, Note_on_c, 1, 50, 100
1, 39744, Note_on_c, 1, 59, 100
1, 39808, Note_on_c, 1, 50, 0
1, 39808, Note_on_c, 1, 59, 0
1, 39936, Note_on_c, 0, 88, 100
1, 39936, Note_on_c, 1, 47, 100
1, 39936, Note_on_c, 1, 56, 100
1, 40000, Note_on_c, 0, 88, 0
1, 40000, Note_on_c, 1, 47, 0
1, 40000, Note_on_c, 1, 56, 0
1, 40032, Note_on_c, 0, 87, 100
1, 40096, Note_on_c, 0, 87, 0
1, 40128, Note_on_c, 0, 89, 100
1, 40192, Note_on_c, 0, 89, 0
1, 40224, Note_on_c, 0, 88, 100
1, 40288, Note_on_c, 0, 88, 0
1, 40320, Note_on_c, 0, 86, 100
1, 40320, Note_on_c, 1, 56, 100
1, 40320, Note_on_c, 1, 59, 100
1, 40384, Note_on_c, 0, 86, 0
1, 40416, Note_on_c, 0, 85, 100
1, 40480, Note_on_c, 0, 85, 0
1, 40512, Note_on_c, 0, 88, 100
1, 40576, Note_on_c, 0, 88, 0
1, 40576, Note_on_c, 1, 56, 0
1, 40576, Note_on_c, 1, 59, 0
1, 40608, Note_on_c, 0, 86, 100
1, 40672, Note_on_c, 0, 86, 0
1, 40704, Note_on_c, 0, 86, 100
1, 40704, Note_on_c, 1, 57, 100
1, 40704, Note_on_c, 1, 60, 100
1, 40768, Note_on_c, 0, 86, 0
1, 40800, Note_on_c, 0, 84, 100
1, 40832, Note_on_c, 1, 57, 0
1, 40832, Note_on_c, 1, 60, 0
1, 40864, Note_on_c, 0, 84, 0
1, 40896, Note_on_c, 0, 84, 100
1, 40896, Note_on_c, 1, 59, 100
1, 40896, Note_on_c, 1, 62, 100
1, 40960, Note_on_c, 0, 84, 0
1, 40992, Note_on_c, 0, 83, 100
1, 41024, Note_on_c, 1, 59, 0
1, 41024, Note_on_c, 1, 62, 0
1, 41056, Note_on_c, 0, 83, 0
1, 41088, Note_on_c, 0, 83, 100
1, 41088, Note_on_c, 1, 60, 100
1, 41088, Note_on_c, 1, 64, 100
1, 41152, Note_on_c, 0, 83, 0
1, 41184, Note_on_c, 0, 81, 100
1, 41216, Note_on_c, 1, 60, 0
1, 41216, Note_on_c, 1, 64, 0
1, 41248, Note_on_c, 0, 81, 0
1, 41280, Note_on_c, 0, 81, 100
1, 41280, Note_on_c, 1, 61, 100
1, 41344, Note_on_c, 0, 81, 0
1, 41376, Note_on_c, 0, 79, 100
1, 41408, Note_on_c, 1, 61, 0
1, 41440, Note_on_c, 0, 79, 0
1, 41472, Note_on_c, 0, 79, 100
1, 41472, Note_on_c, 0, 69, 100
1, 41472, Note_on_c, 1, 62, 100
1, 41536, Note_on_c, 0, 79, 0
1, 41568, Note_on_c, 0, 77, 100
1, 41600, Note_on_c, 0, 69, 0
1, 41600, Note_on_c, 1, 62, 0
1, 41632, Note_on_c, 0, 77, 0
1, 41664, Note_on_c, 0, 77, 100
1, 41664, Note_on_c, 1, 64, 100
1, 41728, Note_on_c, 0, 77, 0
1, 41760, Note_on_c, 0, 76, 100
1, 41792, Note_on_c, 1, 64, 0
1, 41824, Note_on_c, 0, 76, 0
1, 41856, Note_on_c, 0, 76, 100
1, 41856, Note_on_c, 1, 65, 100
1, 41920, Note_on_c, 0, 76, 0
1, 41952, Note_on_c, 0, 74, 100
1, 41984, Note_on_c, 1, 65, 0
1, 42016, Note_on_c, 0, 74, 0
1, 42048, Note_on_c, 0, 74, 100
1, 42048, Note_on_c, 1, 64, 100
1, 42112, Note_on_c, 0, 74, 0
1, 42144, Note_on_c, 0, 72, 100
1, 42176, Note_on_c, 1, 64, 0
1, 42208, Note_on_c, 0, 72, 0
1, 42240, Note_on_c, 0, 70, 100
1, 42240, Note_on_c, 1, 62, 100
1, 42240, Note_on_c, 1, 65, 100
1, 42304, Note_on_c, 0, 70, 0
1, 42336, Note_on_c, 0, 77, 100
1, 42400, Note_on_c, 0, 77, 0
1, 42432, Note_on_c, 0, 74, 100
1, 42496, Note_on_c, 0, 74, 0
1, 42496, Note_on_c, 1, 62, 0
1, 42496, Note_on_c, 1, 65, 0
1, 42528, Note_on_c, 0, 70, 100
1, 42592, Note_on_c, 0, 70, 0
1, 42624, Note_on_c, 0, 69, 100
1, 42624, Note_on_c, 1, 52, 100
1, 42624, Note_on_c, 1, 60, 100
1, 42752, Note_on_c, 0, 69, 0
1, 42816, Note_on_c, 0, 68, 100
1, 42816, Note_on_c, 1, 59, 100
1, 42880, Note_on_c, 1, 52, 0
1, 42880, Note_on_c, 1, 60, 0
1, 42944, Note_on_c, 0, 68, 0
1, 42944, Note_on_c, 1, 59, 0
1, 43008, Note_on_c, 0, 69, 100
1, 43008, Note_on_c, 1, 57, 100
1, 43072, Note_on_c, 1, 57, 0
1, 43104, Note_on_c, 1, 60, 100
1, 43136, Note_on_c, 0, 69, 0
1, 43168, Note_on_c, 1, 60, 0
1, 43200, Note_on_c, 1, 64, 100
1, 43264, Note_on_c, 1, 64, 0
1, 43296, Note_on_c, 1, 60, 100
1, 43360, Note_on_c, 1, 60, 0
1, 43392, Note_on_c, 0, 68, 100
1, 43392, Note_on_c, 1, 52, 100
1, 43456, Note_on_c, 0, 68, 0
1, 43456, Note_on_c, 1, 52, 0
1, 43488, Note_on_c, 0, 74, 100
1, 43488, Note_on_c, 1, 59, 100
1, 43552, Note_on_c, 0, 74, 0
1, 43552, Note_on_c, 1, 59, 0
1, 43584, Note_on_c, 0, 71, 100
1, 43584, Note_on_c, 1, 62, 100
1, 43648, Note_on_c, 0, 71, 0
1, 43648, Note_on_c, 1, 62, 0
1, 43680, Note_on_c, 0, 68, 100
1, 43680, Note_on_c, 1, 59, 100
1, 43744, Note_on_c, 0, 68, 0
1, 43744, Note_on_c, 1, 59, 0
1, 43776, Note_on_c, 0, 69, 100
1, 43776, Note_on_c, 1, 57, 100
1, 43840, Note_on_c, 1, 57, 0
1, 43872, Note_on_c, 1, 60, 100
1, 43904, Note_on_c, 0, 69, 0
1, 43936, Note_on_c, 1, 60, 0
1, 43968, Note_on_c, 1, 64, 100
1, 44032, Note_on_c, 1, 64, 0
1, 44064, Note_on_c, 1, 60, 100
1, 44128, Note_on_c, 1, 60, 0
1, 44160, Note_on_c, 0, 68, 100
1, 44160, Note_on_c, 1, 52, 100
1, 44224, Note_on_c, 0, 68, 0
1, 44224, Note_on_c, 1, 52, 0
1, 44256, Note_on_c, 0, 74, 100
1, 44256, Note_on_c, 1, 59, 100
1, 44320, Note_on_c, 0, 74, 0
1, 44320, Note_on_c, 1, 59, 0
1, 44352, Note_on_c, 0, 71, 100
1, 44352, Note_on_c, 1, 62, 100
1, 44416, Note_on_c, 0, 71, 0
1, 44416, Note_on_c, 1, 62, 0
1, 44448, Note_on_c, 0, 68, 100
1, 44448, Note_on_c, 1, 59, 100
1, 44512, Note_on_c, 0, 68, 0
1, 44512, Note_on_c, 1, 59, 0
1, 44544, Note_on_c, 0, 69, 100
1, 44544, Note_on_c, 1, 57, 100
1, 44608, Note_on_c, 1, 57, 0
1, 44640, Note_on_c, 1, 60, 100
1, 44672, Note_on_c, 0, 69, 0
1, 44704, Note_on_c, 1, 60, 0
1, 44736, Note_on_c, 1, 64, 100
1, 44800, Note_on_c, 1, 64, 0
1, 44832, Note_on_c, 1, 60, 100
1, 44896, Note_on_c, 1, 60, 0
1, 44928, Note_on_c, 0, 68, 100
1, 44928, Note_on_c, 1, 52, 100
1, 44992, Note_on_c, 0, 68, 0
1, 44992, Note_on_c, 1, 52, 0
1, 45024, Note_on_c, 0, 74, 100
1, 45024, Note_on_c, 1, 59, 100
1, 45088, Note_on_c, 0, 74, 0
1, 45088, Note_on_c, 1, 59, 0
1, 45120, Note_on_c, 0, 71, 100
1, 45120, Note_on_c, 1, 62, 100
1, 45184, Note_on_c, 0, 71, 0
1, 45184, Note_on_c, 1, 62, 0
1, 45216, Note_on_c, 0, 68, 100
1, 45216, Note_on_c, 1, 59, 100
1, 45280, Note_on_c, 0, 68, 0
1, 45280, Note_on_c, 1, 59, 0
1, 45312, Note_on_c, 0, 69, 100
1, 45312, Note_on_c, 1, 57, 100
1, 45376, Note_on_c, 0, 69, 0
1, 45376, Note_on_c, 1, 57, 0
1, 45408, Note_on_c, 0, 76, 100
1, 45408, Note_on_c, 1, 60, 100
1, 45472, Note_on_c, 0, 76, 0
1, 45472, Note_on_c, 1, 60, 0
1, 45504, Note_on_c, 0, 72, 100
1, 45504, Note_on_c, 1, 64, 100
1, 45568, Note_on_c, 0, 72, 0
1, 45568, Note_on_c, 1, 64, 0
1, 45600, Note_on_c, 0, 69, 100
1, 45600, Note_on_c, 1, 60, 100
1, 45664, Note_on_c, 0, 69, 0
1, 45664, Note_on_c, 1, 60, 0
1, 45696, Note_on_c, 0, 71, 100
1, 45696, Note_on_c, 1, 55, 100
1, 45760, Note_on_c, 0, 71, 0
1, 45760, Note_on_c, 1, 55, 0
1, 45792, Note_on_c, 0, 77, 100
1, 45792, Note_on_c, 1, 62, 100
1, 45856, Note_on_c, 0, 77, 0
1, 45856, Note_on_c, 1, 62, 0
1, 45888, Note_on_c, 0, 74, 100
1, 45888, Note_on_c, 1, 65, 100
1, 45952, Note_on_c, 0, 74, 0
1, 45952, Note_on_c, 1, 65, 0
1, 45984, Note_on_c, 0, 71, 100
1, 45984, Note_on_c, 1, 62, 100
1, 46048, Note_on_c, 0, 71, 0
1, 46048, Note_on_c, 1, 62, 0
1, 46464, Note_on_c, 0, 76, 100
1, 46464, Note_on_c, 0, 79, 100
1, 46528, Note_on_c, 0, 76, 0
1, 46528, Note_on_c, 0, 79, 0
1, 46656, Note_on_c, 0, 76, 100
1, 46656, Note_on_c, 0, 79, 100
1, 46720, Note_on_c, 0, 76, 0
1, 46720, Note_on_c, 0, 79, 0
1, 46848, Note_on_c, 0, 72, 100
1, 46848, Note_on_c, 0, 76, 100
1, 46848, Note_on_c, 1, 57, 100
1, 46848, Note_on_c, 1, 60, 100
1, 46912, Note_on_c, 0, 72, 0
1, 46912, Note_on_c, 0, 76, 0
1, 46912, Note_on_c, 1, 57, 0
1, 46912, Note_on_c, 1, 60, 0
1, 47040, Note_on_c, 1, 57, 100
1, 47040, Note_on_c, 1, 60, 100
1, 47104, Note_on_c, 1, 57, 0
1, 47104, Note_on_c, 1, 60, 0
1, 47232, Note_on_c, 0, 74, 100
1, 47232, Note_on_c, 0, 77, 100
1, 47232, Note_on_c, 1, 53, 100
1, 47232, Note_on_c, 1, 57, 100
1, 47296, Note_on_c, 0, 74, 0
1, 47296, Note_on_c, 0, 77, 0
1, 47296, Note_on_c, 1, 53, 0
1, 47296, Note_on_c, 1, 57, 0
1, 47424, Note_on_c, 0, 74, 100
1, 47424, Note_on_c, 0, 77, 100
1, 47488, Note_on_c, 0, 74, 0
1, 47488, Note_on_c, 0, 77, 0
1, 47616, Note_on_c, 0, 71, 100
1, 47616, Note_on_c, 0, 74, 100
1, 47616, Note_on_c, 1, 55, 100
1, 47616, Note_on_c, 1, 59, 100
1, 47680, Note_on_c, 0, 71, 0
1, 47680, Note_on_c, 0, 74, 0
1, 47680, Note_on_c, 1, 55, 0
1, 47680, Note_on_c, 1, 59, 0
1, 47808, Note_on_c, 1, 55, 100
1, 47808, Note_on_c, 1, 59, 100
1, 47872, Note_on_c, 1, 55, 0
1, 47872, Note_on_c, 1, 59, 0
1, 48000, Note_on_c, 0, 72, 100
1, 48000, Note_on_c, 1, 52, 100
1, 48000, Note_on_c, 1, 55, 100
1, 48064, Note_on_c, 0, 72, 0
1, 48064, Note_on_c, 1, 52, 0
1, 48064, Note_on_c, 1, 55, 0
1, 48096, Note_on_c, 0, 74, 100
1, 48160, Note_on_c, 0, 74, 0
1, 48192, Note_on_c, 0, 76, 100
1, 48256, Note_on_c, 0, 76, 0
1, 48288, Note_on_c, 0, 72, 100
1, 48352, Note_on_c, 0, 72, 0
1, 48384, Note_on_c, 0, 69, 100
1, 48384, Note_on_c, 1, 53, 100
1, 48448, Note_on_c, 0, 69, 0
1, 48480, Note_on_c, 0, 71, 100
1, 48544, Note_on_c, 0, 71, 0
1, 48576, Note_on_c, 0, 72, 100
1, 48640, Note_on_c, 0, 72, 0
1, 48672, Note_on_c, 0, 73, 100
1, 48736, Note_on_c, 0, 73, 0
1, 48768, Note_on_c, 0, 74, 100
1, 48768, Note_on_c, 1, 53, 0
1, 48832, Note_on_c, 0, 74, 0
1, 48864, Note_on_c, 0, 76, 100
1, 48928, Note_on_c, 0, 76, 0
1, 48960, Note_on_c, 0, 77, 100
1, 48960, Note_on_c, 1, 50, 100
1, 49024, Note_on_c, 0, 77, 0
1, 49056, Note_on_c, 0, 74, 100
1, 49088, Note_on_c, 1, 50, 0
1, 49120, Note_on_c, 0, 74, 0
1, 49152, Note_on_c, 0, 72, 100
1, 49152, Note_on_c, 1, 55, 100
1, 49216, Note_on_c, 0, 72, 0
1, 49248, Note_on_c, 0, 71, 100
1, 49280, Note_on_c, 1, 55, 0
1, 49312, Note_on_c, 0, 71, 0
1, 49344, Note_on_c, 0, 69, 100
1, 49408, Note_on_c, 0, 69, 0
1, 49440, Note_on_c, 0, 67, 100
1, 49504, Note_on_c, 0, 67, 0
1, 49536, Note_on_c, 0, 76, 100
1, 49536, Note_on_c, 0, 79, 100
1, 49600, Note_on_c, 0, 76, 0
1, 49600, Note_on_c, 0, 79, 0
1, 49728, Note_on_c, 0, 76, 100
1, 49728, Note_on_c, 0, 79, 100
1, 49792, Note_on_c, 0, 76, 0
1, 49792, Note_on_c, 0, 79, 0
1, 49920, Note_on_c, 0, 72, 100
1, 49920, Note_on_c, 0, 76, 100
1, 49920, Note_on_c, 1, 57, 100
1, 49920, Note_on_c, 1, 60, 100
1, 49984, Note_on_c, 0, 72, 0
1, 49984, Note_on_c, 0, 76, 0
1, 49984, Note_on_c, 1, 57, 0
1, 49984, Note_on_c, 1, 60, 0
1, 50112, Note_on_c, 1, 57, 100
1, 50112, Note_on_c, 1, 60, 100
1, 50176, Note_on_c, 1, 57, 0
1, 50176, Note_on_c, 1, 60, 0
1, 50304, Note_on_c, 0, 77, 100
1, 50304, Note_on_c, 0, 81, 100
1, 50304, Note_on_c, 1, 50, 100
1, 50304, Note_on_c, 1, 53, 100
1, 50368, Note_on_c, 0, 77, 0
1, 50368, Note_on_c, 0, 81, 0
1, 50368, Note_on_c, 1, 50, 0
1, 50368, Note_on_c, 1, 53, 0
1, 50496, Note_on_c, 0, 77, 100
1, 50496, Note_on_c, 0, 81, 100
1, 50560, Note_on_c, 0, 77, 0
1, 50560, Note_on_c, 0, 81, 0
1, 50688, Note_on_c, 0, 71, 100
1, 50688, Note_on_c, 0, 74, 100
1, 50688, Note_on_c, 1, 55, 100
1, 50688, Note_on_c, 1, 59, 100
1, 50752, Note_on_c, 0, 71, 0
1, 50752, Note_on_c, 0, 74, 0
1, 50752, Note_on_c, 1, 55, 0
1, 50752, Note_on_c, 1, 59, 0
1, 50880, Note_on_c, 1, 55, 100
1, 50880, Note_on_c, 1, 59, 100
1, 50944, Note_on_c, 1, 55, 0
1, 50944, Note_on_c, 1, 59, 0
1, 51072, Note_on_c, 0, 81, 100
1, 51072, Note_on_c, 1, 48, 100
1, 51072, Note_on_c, 1, 52, 100
1, 51136, Note_on_c, 0, 81, 0
1, 51136, Note_on_c, 1, 48, 0
1, 51136, Note_on_c, 1, 52, 0
1, 51168, Note_on_c, 0, 79, 100
1, 51232, Note_on_c, 0, 79, 0
1, 51264, Note_on_c, 0, 77, 100
1, 51328, Note_on_c, 0, 77, 0
1, 51360, Note_on_c, 0, 76, 100
1, 51424, Note_on_c, 0, 76, 0
1, 51456, Note_on_c, 0, 73, 100
1, 51456, Note_on_c, 1, 53, 100
1, 51456, Note_on_c, 1, 57, 100
1, 51520, Note_on_c, 0, 73, 0
1, 51552, Note_on_c, 0, 74, 100
1, 51616, Note_on_c, 0, 74, 0
1, 51648, Note_on_c, 0, 76, 100
1, 51712, Note_on_c, 0, 76, 0
1, 51744, Note_on_c, 0, 77, 100
1, 51808, Note_on_c, 0, 77, 0
1, 51840, Note_on_c, 0, 69, 100
1, 51840, Note_on_c, 1, 53, 0
1, 51840, Note_on_c, 1, 57, 0
1, 51904, Note_on_c, 0, 69, 0
1, 51936, Note_on_c, 0, 72, 100
1, 52000, Note_on_c, 0, 72, 0
1, 52032, Note_on_c, 0, 71, 100
1, 52032, Note_on_c, 1, 55, 100
1, 52032, Note_on_c, 1, 65, 100
1, 52096, Note_on_c, 0, 71, 0
1, 52128, Note_on_c, 0, 74, 100
1, 52160, Note_on_c, 1, 55, 0
1, 52160, Note_on_c, 1, 65, 0
1, 52192, Note_on_c, 0, 74, 0
1, 52224, Note_on_c, 0, 72, 100
1, 52224, Note_on_c, 1, 60, 100
1, 52224, Note_on_c, 1, 64, 100
1, 52288, Note_on_c, 0, 72, 0
1, 52288, Note_on_c, 1, 60, 0
1, 52288, Note_on_c, 1, 64, 0
1, 52416, Note_on_c, 1, 48, 100
1, 52480, Note_on_c, 1, 48, 0
1, 52608, Note_on_c, 0, 71, 100
1, 52608, Note_on_c, 1, 53, 100
1, 52672, Note_on_c, 0, 71, 0
1, 52672, Note_on_c, 1, 53, 0
1, 52704, Note_on_c, 0, 77, 100
1, 52704, Note_on_c, 1, 59, 100
1, 52768, Note_on_c, 0, 77, 0
1, 52768, Note_on_c, 1, 59, 0
1, 52800, Note_on_c, 0, 74, 100
1, 52800, Note_on_c, 1, 55, 100
1, 52864, Note_on_c, 0, 74, 0
1, 52864, Note_on_c, 1, 55, 0
1, 52896, Note_on_c, 0, 71, 100
1, 52896, Note_on_c, 1, 59, 100
1, 52960, Note_on_c, 0, 71, 0
1, 52960, Note_on_c, 1, 59, 0
1, 52992, Note_on_c, 0, 81, 100
1, 52992, Note_on_c, 1, 52, 100
1, 53056, Note_on_c, 0, 81, 0
1, 53056, Note_on_c, 1, 52, 0
1, 53088, Note_on_c, 0, 79, 100
1, 53088, Note_on_c, 1, 60, 100
1, 53152, Note_on_c, 0, 79, 0
1, 53152, Note_on_c, 1, 60, 0
1, 53184, Note_on_c, 0, 77, 100
1, 53184, Note_on_c, 1, 55, 100
1, 53248, Note_on_c, 0, 77, 0
1, 53248, Note_on_c, 1, 55, 0
1, 53280, Note_on_c, 0, 76, 100
1, 53280, Note_on_c, 1, 60, 100
1, 53344, Note_on_c, 0, 76, 0
1, 53344, Note_on_c, 1, 60, 0
1, 53376, Note_on_c, 0, 74, 100
1, 53376, Note_on_c, 1, 53, 100
1, 53440, Note_on_c, 0, 74, 0
1, 53440, Note_on_c, 1, 53, 0
1, 53472, Note_on_c, 0, 77, 100
1, 53472, Note_on_c, 1, 59, 100
1, 53536, Note_on_c, 0, 77, 0
1, 53536, Note_on_c, 1, 59, 0
1, 53568, Note_on_c, 0, 74, 100
1, 53568, Note_on_c, 1, 55, 100
1, 53632, Note_on_c, 0, 74, 0
1, 53632, Note_on_c, 1, 55, 0
1, 53664, Note_on_c, 0, 71, 100
1, 53664, Note_on_c, 1, 59, 100
1, 53728, Note_on_c, 0, 71, 0
1, 53728, Note_on_c, 1, 59, 0
1, 53760, Note_on_c, 0, 81, 100
1, 53760, Note_on_c, 1, 52, 100
1, 53824, Note_on_c, 0, 81, 0
1, 53824, Note_on_c, 1, 52, 0
1, 53856, Note_on_c, 0, 79, 100
1, 53856, Note_on_c, 1, 60, 100
1, 53920, Note_on_c, 0, 79, 0
1, 53920, Note_on_c, 1, 60, 0
1, 53952, Note_on_c, 0, 77, 100
1, 53952, Note_on_c, 1, 55, 100
1, 54016, Note_on_c, 0, 77, 0
1, 54016, Note_on_c, 1, 55, 0
1, 54048, Note_on_c, 0, 76, 100
1, 54048, Note_on_c, 1, 60, 100
1, 54112, Note_on_c, 0, 76, 0
1, 54112, Note_on_c, 1, 60, 0
1, 54144, Note_on_c, 0, 86, 100
1, 54144, Note_on_c, 1, 53, 100
1, 54208, Note_on_c, 0, 86, 0
1, 54208, Note_on_c, 1, 53, 0
1, 54240, Note_on_c, 0, 84, 100
1, 54240, Note_on_c, 1, 62, 100
1, 54304, Note_on_c, 0, 84, 0
1, 54304, Note_on_c, 1, 62, 0
1, 54336, Note_on_c, 0, 83, 100
1, 54336, Note_on_c, 1, 57, 100
1, 54400, Note_on_c, 0, 83, 0
1, 54400, Note_on_c, 1, 57, 0
1, 54432, Note_on_c, 0, 81, 100
1, 54432, Note_on_c, 1, 62, 100
1, 54496, Note_on_c, 0, 81, 0
1, 54496, Note_on_c, 1, 62, 0
1, 54528, Note_on_c, 0, 81, 100
1, 54528, Note_on_c, 1, 55, 100
1, 54592, Note_on_c, 0, 81, 0
1, 54592, Note_on_c, 1, 55, 0
1, 54624, Note_on_c, 0, 79, 100
1, 54624, Note_on_c, 1, 64, 100
1, 54688, Note_on_c, 0, 79, 0
1, 54688, Note_on_c, 1, 64, 0
1, 54720, Note_on_c, 0, 77, 100
1, 54720, Note_on_c, 1, 60, 100
1, 54784, Note_on_c, 0, 77, 0
1, 54784, Note_on_c, 1, 60, 0
1, 54816, Note_on_c, 0, 76, 100
1, 54816, Note_on_c, 1, 64, 100
1, 54880, Note_on_c, 0, 76, 0
1, 54880, Note_on_c, 1, 64, 0
1, 54912, Note_on_c, 0, 76, 100
1, 54912, Note_on_c, 1, 55, 100
1, 54976, Note_on_c, 0, 76, 0
1, 54976, Note_on_c, 1, 55, 0
1, 55008, Note_on_c, 0, 74, 100
1, 55008, Note_on_c, 1, 65, 100
1, 55072, Note_on_c, 0, 74, 0
1, 55072, Note_on_c, 1, 65, 0
1, 55104, Note_on_c, 0, 72, 100
1, 55104, Note_on_c, 1, 62, 100
1, 55168, Note_on_c, 0, 72, 0
1, 55168, Note_on_c, 1, 62, 0
1, 55200, Note_on_c, 0, 71, 100
1, 55200, Note_on_c, 1, 65, 100
1, 55264, Note_on_c, 0, 71, 0
1, 55264, Note_on_c, 1, 65, 0
1, 55296, Note_on_c, 0, 74, 100
1, 55296, Note_on_c, 1, 60, 100
1, 55360, Note_on_c, 1, 60, 0
1, 55392, Note_on_c, 0, 67, 100
1, 55424, Note_on_c, 0, 74, 0
1, 55456, Note_on_c, 0, 67, 0
1, 55488, Note_on_c, 0, 72, 100
1, 55488, Note_on_c, 1, 64, 100
1, 55552, Note_on_c, 1, 64, 0
1, 55584, Note_on_c, 0, 67, 100
1, 55616, Note_on_c, 0, 72, 0
1, 55648, Note_on_c, 0, 67, 0
1, 55680, Note_on_c, 0, 71, 100
1, 55680, Note_on_c, 1, 53, 100
1, 55744, Note_on_c, 0, 71, 0
1, 55744, Note_on_c, 1, 53, 0
1, 55776, Note_on_c, 0, 77, 100
1, 55776, Note_on_c, 1, 59, 100
1, 55840, Note_on_c, 0, 77, 0
1, 55840, Note_on_c, 1, 59, 0
1, 55872, Note_on_c, 0, 74, 100
1, 55872, Note_on_c, 1, 55, 100
1, 55936, Note_on_c, 0, 74, 0
1, 55936, Note_on_c, 1, 55, 0
1, 55968, Note_on_c, 0, 71, 100
1, 55968, Note_on_c, 1, 59, 100
1, 56032, Note_on_c, 0, 71, 0
1, 56032, Note_on_c, 1, 59, 0
1, 56064, Note_on_c, 0, 81, 100
1, 56064, Note_on_c, 1, 52, 100
1, 56128, Note_on_c, 0, 81, 0
1, 56128, Note_on_c, 1, 52, 0
1, 56160, Note_on_c, 0, 79, 100
1, 56160, Note_on_c, 1, 60, 100
1, 56224, Note_on_c, 0, 79, 0
1, 56224, Note_on_c, 1, 60, 0
1, 56256, Note_on_c, 0, 77, 100
1, 56256, Note_on_c, 1, 55, 100
1, 56320, Note_on_c, 0, 77, 0
1, 56320, Note_on_c, 1, 55, 0
1, 56352, Note_on_c, 0, 76, 100
1, 56352, Note_on_c, 1, 60, 100
1, 56416, Note_on_c, 0, 76, 0
1, 56416, Note_on_c, 1, 60, 0
1, 56448, Note_on_c, 0, 74, 100
1, 56448, Note_on_c, 1, 53, 100
1, 56512, Note_on_c, 0, 74, 0
1, 56512, Note_on_c, 1, 53, 0
1, 56544, Note_on_c, 0, 77, 100
1, 56544, Note_on_c, 1, 59, 100
1, 56608, Note_on_c, 0, 77, 0
1, 56608, Note_on_c, 1, 59, 0
1, 56640, Note_on_c, 0, 74, 100
1, 56640, Note_on_c, 1, 55, 100
1, 56704, Note_on_c, 0, 74, 0
1, 56704, Note_on_c, 1, 55, 0
1, 56736, Note_on_c, 0, 71, 100
1, 56736, Note_on_c, 1, 59, 100
1, 56800, Note_on_c, 0, 71, 0
1, 56800, Note_on_c, 1, 59, 0
1, 56832, Note_on_c, 0, 81, 100
1, 56832, Note_on_c, 1, 52, 100
1, 56896, Note_on_c, 0, 81, 0
1, 56896, Note_on_c, 1, 52, 0
1, 56928, Note_on_c, 0, 79, 100
1, 56928, Note_on_c, 1, 60, 100
1, 56992, Note_on_c, 0, 79, 0
1, 56992, Note_on_c, 1, 60, 0
1, 57024, Note_on_c, 0, 77, 100
1, 57024, Note_on_c, 1, 55, 100
1, 57088, Note_on_c, 0, 77, 0
1, 57088, Note_on_c, 1, 55, 0
1, 57120, Note_on_c, 0, 76, 100
1, 57120, Note_on_c, 1, 60, 100
1, 57184, Note_on_c, 0, 76, 0
1, 57184, Note_on_c, 1, 60, 0
1, 57216, Note_on_c, 0, 86, 100
1, 57216, Note_on_c, 1, 53, 100
1, 57280, Note_on_c, 0, 86, 0
1, 57280, Note_on_c, 1, 53, 0
1, 57312, Note_on_c, 0, 84, 100
1, 57312, Note_on_c, 1, 62, 100
1, 57376, Note_on_c, 0, 84, 0
1, 57376, Note_on_c, 1, 62, 0
1, 57408, Note_on_c, 0, 83, 100
1, 57408, Note_on_c, 1, 57, 100
1, 57472, Note_on_c, 0, 83, 0
1, 57472, Note_on_c, 1, 57, 0
1, 57504, Note_on_c, 0, 81, 100
1, 57504, Note_on_c, 1, 62, 100
1, 57568, Note_on_c, 0, 81, 0
1, 57568, Note_on_c, 1, 62, 0
1, 57600, Note_on_c, 0, 81, 100
1, 57600, Note_on_c, 1, 55, 100
1, 57664, Note_on_c, 0, 81, 0
1, 57664, Note_on_c, 1, 55, 0
1, 57696, Note_on_c, 0, 79, 100
1, 57696, Note_on_c, 1, 64, 100
1, 57760, Note_on_c, 0, 79, 0
1, 57760, Note_on_c, 1, 64, 0
1, 57792, Note_on_c, 0, 77, 100
1, 57792, Note_on_c, 1, 60, 100
1, 57856, Note_on_c, 0, 77, 0
1, 57856, Note_on_c, 1, 60, 0
1, 57888, Note_on_c, 0, 76, 100
1, 57888, Note_on_c, 1, 64, 100
1, 57952, Note_on_c, 0, 76, 0
1, 57952, Note_on_c, 1, 64, 0
1, 57984, Note_on_c, 0, 76, 100
1, 57984, Note_on_c, 1, 55, 100
1, 58048, Note_on_c, 0, 76, 0
1, 58048, Note_on_c, 1, 55, 0
1, 58080, Note_on_c, 0, 74, 100
1, 58080, Note_on_c, 1, 65, 100
1, 58144, Note_on_c, 0, 74, 0
1, 58144, Note_on_c, 1, 65, 0
1, 58176, Note_on_c, 0, 72, 100
1, 58176, Note_on_c, 1, 62, 100
1, 58240, Note_on_c, 0, 72, 0
1, 58240, Note_on_c, 1, 62, 0
1, 58272, Note_on_c, 0, 71, 100
1, 58272, Note_on_c, 1, 65, 100
1, 58336, Note_on_c, 0, 71, 0
1, 58336, Note_on_c, 1, 65, 0
1, 58368, Note_on_c, 0, 72, 100
1, 58368, Note_on_c, 1, 60, 100
1, 58432, Note_on_c, 0, 72, 0
1, 58432, Note_on_c, 1, 60, 0
1, 58464, Note_on_c, 0, 76, 100
1, 58464, Note_on_c, 1, 64, 100
1, 58528, Note_on_c, 0, 76, 0
1, 58528, Note_on_c, 1, 64, 0
1, 58560, Note_on_c, 0, 67, 100
1, 58560, Note_on_c, 1, 55, 100
1, 58624, Note_on_c, 0, 67, 0
1, 58624, Note_on_c, 1, 55, 0
1, 58656, Note_on_c, 0, 72, 100
1, 58656, Note_on_c, 1, 60, 100
1, 58720, Note_on_c, 0, 72, 0
1, 58720, Note_on_c, 1, 60, 0
1, 58752, Note_on_c, 0, 64, 100
1, 58752, Note_on_c, 1, 52, 100
1, 58816, Note_on_c, 0, 64, 0
1, 58816, Note_on_c, 1, 52, 0
1, 58848, Note_on_c, 0, 67, 100
1, 58848, Note_on_c, 1, 55, 100
1, 58912, Note_on_c, 0, 67, 0
1, 58912, Note_on_c, 1, 55, 0
1, 58944, Note_on_c, 0, 60, 100
1, 58944, Note_on_c, 1, 48, 100
1, 59008, Note_on_c, 0, 60, 0
1, 59008, Note_on_c, 1, 48, 0
1, 59040, Note_on_c, 0, 64, 100
1, 59040, Note_on_c, 1, 52, 100
1, 59104, Note_on_c, 0, 64, 0
1, 59104, Note_on_c, 1, 52, 0
1, 59136, Note_on_c, 0, 67, 100
1, 59136, Note_on_c, 1, 55, 100
1, 59200, Note_on_c, 0, 67, 0
1, 59232, Note_on_c, 0, 72, 100
1, 59264, Note_on_c, 1, 55, 0
1, 59296, Note_on_c, 0, 72, 0
1, 59328, Note_on_c, 0, 72, 100
1, 59328, Note_on_c, 0, 76, 100
1, 59392, Note_on_c, 0, 72, 0
1, 59392, Note_on_c, 0, 76, 0
1, 59424, Note_on_c, 0, 76, 100
1, 59424, Note_on_c, 0, 79, 100
1, 59488, Note_on_c, 0, 76, 0
1, 59488, Note_on_c, 0, 79, 0
1, 59520, Note_on_c, 0, 76, 100
1, 59520, Note_on_c, 0, 79, 100
1, 59520, Note_on_c, 1, 43, 100
1, 59584, Note_on_c, 0, 76, 0
1, 59584, Note_on_c, 0, 79, 0
1, 59616, Note_on_c, 0, 74, 100
1, 59616, Note_on_c, 0, 77, 100
1, 59648, Note_on_c, 1, 43, 0
1, 59680, Note_on_c, 0, 74, 0
1, 59680, Note_on_c, 0, 77, 0
1, 59712, Note_on_c, 0, 72, 100
1, 59712, Note_on_c, 0, 76, 100
1, 59776, Note_on_c, 0, 72, 0
1, 59776, Note_on_c, 0, 76, 0
1, 59808, Note_on_c, 0, 71, 100
1, 59808, Note_on_c, 0, 74, 100
1, 59872, Note_on_c, 0, 71, 0
1, 59872, Note_on_c, 0, 74, 0
1, 59904, Note_on_c, 0, 72, 100
1, 59904, Note_on_c, 1, 60, 100
1, 59968, Note_on_c, 0, 72, 0
1, 59968, Note_on_c, 1, 60, 0
1, 60000, Note_on_c, 0, 76, 100
1, 60000, Note_on_c, 1, 64, 100
1, 60064, Note_on_c, 0, 76, 0
1, 60064, Note_on_c, 1, 64, 0
1, 60096, Note_on_c, 0, 67, 100
1, 60096, Note_on_c, 1, 55, 100
1, 60160, Note_on_c, 0, 67, 0
1, 60160, Note_on_c, 1, 55, 0
1, 60192, Note_on_c, 0, 72, 100
1, 60192, Note_on_c, 1, 60, 100
1, 60256, Note_on_c, 0, 72, 0
1, 60256, Note_on_c, 1, 60, 0
1, 60288, Note_on_c, 0, 64, 100
1, 60288, Note_on_c, 1, 52, 100
1, 60352, Note_on_c, 0, 64, 0
1, 60352, Note_on_c, 1, 52, 0
1, 60384, Note_on_c, 0, 67, 100
1, 60384, Note_on_c, 1, 55, 100
1, 60448, Note_on_c, 0, 67, 0
1, 60448, Note_on_c, 1, 55, 0
1, 60480, Note_on_c, 0, 60, 100
1, 60480, Note_on_c, 1, 48, 100
1, 60544, Note_on_c, 0, 60, 0
1, 60544, Note_on_c, 1, 48, 0
1, 60576, Note_on_c, 0, 64, 100
1, 60576, Note_on_c, 1, 52, 100
1, 60640, Note_on_c, 0, 64, 0
1, 60640, Note_on_c, 1, 52, 0
1, 60672, Note_on_c, 0, 67, 100
1, 60672, Note_on_c, 1, 55, 100
1, 60736, Note_on_c, 0, 67, 0
1, 60768, Note_on_c, 0, 72, 100
1, 60800, Note_on_c, 1, 55, 0
1, 60832, Note_on_c, 0, 72, 0
1, 60864, Note_on_c, 0, 72, 100
1, 60864, Note_on_c, 0, 76, 100
1, 60928, Note_on_c, 0, 72, 0
1, 60928, Note_on_c, 0, 76, 0
1, 60960, Note_on_c, 0, 76, 100
1, 60960, Note_on_c, 0, 79, 100
1, 61024, Note_on_c, 0, 76, 0
1, 61024, Note_on_c, 0, 79, 0
1, 61056, Note_on_c, 0, 76, 100
1, 61056, Note_on_c, 0, 79, 100
1, 61056, Note_on_c, 1, 43, 100
1, 61120, Note_on_c, 0, 76, 0
1, 61120, Note_on_c, 0, 79, 0
1, 61152, Note_on_c, 0, 74, 100
1, 61152, Note_on_c, 0, 77, 100
1, 61184, Note_on_c, 1, 43, 0
1, 61216, Note_on_c, 0, 74, 0
1, 61216, Note_on_c, 0, 77, 0
1, 61248, Note_on_c, 0, 72, 100
1, 61248, Note_on_c, 0, 76, 100
1, 61312, Note_on_c, 0, 72, 0
1, 61312, Note_on_c, 0, 76, 0
1, 61344, Note_on_c, 0, 71, 100
1, 61344, Note_on_c, 0, 74, 100
1, 61408, Note_on_c, 0, 71, 0
1, 61408, Note_on_c, 0, 74, 0
1, 61440, Note_on_c, 0, 72, 100
1, 61440, Note_on_c, 1, 36, 100
1, 61440, Note_on_c, 1, 48, 100
1, 61504, Note_on_c, 0, 72, 0
1, 61504, Note_on_c, 1, 36, 0
1, 61504, Note_on_c, 1, 48, 0
1, 61632, Note_on_c, 0, 76, 100
1, 61632, Note_on_c, 0, 79, 100
1, 61632, Note_on_c, 0, 84, 100
1, 61632, Note_on_c, 1, 40, 100
1, 61632, Note_on_c, 1, 52, 100
1, 61696, Note_on_c, 0, 76, 0
1, 61696, Note_on_c, 0, 79, 0
1, 61696, Note_on_c, 0, 84, 0
1, 61696, Note_on_c, 1, 40, 0
1, 61696, Note_on_c, 1, 52, 0
1, 61824, Note_on_c, 0, 64, 100
1, 61824, Note_on_c, 0, 72, 100
1, 61824, Note_on_c, 1, 43, 100
1, 61824, Note_on_c, 1, 55, 100
1, 61888, Note_on_c, 0, 64, 0
1, 61888, Note_on_c, 0, 72, 0
1, 61888, Note_on_c, 1, 43, 0
1, 61888, Note_on_c, 1, 55, 0
1, 62016, Note_on_c, 0, 64, 100
1, 62016, Note_on_c, 0, 72, 100
1, 62016, Note_on_c, 1, 40, 100
1, 62016, Note_on_c, 1, 52, 100
1, 62080, Note_on_c, 0, 64, 0
1, 62080, Note_on_c, 0, 72, 0
1, 62080, Note_on_c, 1, 40, 0
1, 62080, Note_on_c, 1, 52, 0
1, 62208, Note_on_c, 0, 64, 100
1, 62208, Note_on_c, 0, 72, 100
1, 62208, Note_on_c, 1, 48, 100
1, 62208, Note_on_c, 1, 36, 100
1, 62720, Note_on_c, 0, 64, 0
1, 62720, Note_on_c, 0, 72, 0
1, 62720, Note_on_c, 1, 48, 0
1, 62720, Note_on_c, 1, 36, 0
1, 62730, End_track
0, 0, End_of_file