0, 0, Header, 0, 1, 480
1, 0, Start_track
1, 0, Tempo, 857142
1, 960, Note_on_c, 0, 71, 71
1, 960, Note_on_c, 1, 55, 35
1, 960, Note_on_c, 1, 62, 35
1, 1320, Note_on_c, 0, 74, 65
1, 1328, Note_on_c, 0, 71, 0
1, 1440, Note_on_c, 0, 72, 63
1, 1465, Note_on_c, 0, 74, 0
1, 1800, Note_on_c, 0, 71, 59
1, 1834, Note_on_c, 0, 72, 0
1, 1920, Note_on_c, 0, 69, 72
1, 1920, Note_on_c, 1, 55, 0
1, 1920, Note_on_c, 1, 54, 30
1, 1938, Note_on_c, 0, 71, 0
1, 2400, Note_on_c, 0, 71, 50
1, 2400, Note_on_c, 1, 55, 34
1, 2406, Note_on_c, 0, 69, 0
1, 2406, Note_on_c, 1, 54, 0
1, 2720, Note_on_c, 1, 62, 0
1, 2758, Note_on_c, 1, 55, 0
1, 2812, Note_on_c, 0, 71, 0
1, 2880, Note_on_c, 0, 72, 74
1, 2880, Note_on_c, 1, 62, 40
1, 2880, Note_on_c, 1, 57, 40
1, 3360, Note_on_c, 0, 74, 64
1, 3360, Note_on_c, 1, 54, 30
1, 3373, Note_on_c, 1, 57, 0
1, 3379, Note_on_c, 0, 72, 0
1, 3840, Note_on_c, 0, 72, 73
1, 3840, Note_on_c, 1, 55, 24
1, 3858, Note_on_c, 0, 74, 0
1, 3859, Note_on_c, 1, 54, 0
1, 4080, Note_on_c, 0, 71, 62
1, 4087, Note_on_c, 0, 72, 0
1, 4320, Note_on_c, 0, 69, 54
1, 4356, Note_on_c, 0, 71, 0
1, 4560, Note_on_c, 0, 67, 40
1, 4584, Note_on_c, 0, 69, 0
1, 4586, Note_on_c, 1, 55, 0
1, 4587, Note_on_c, 1, 62, 0
1, 4696, Note_on_c, 0, 67, 0
1, 4800, Note_on_c, 0, 72, 94
1, 4800, Note_on_c, 0, 67, 81
1, 4800, Note_on_c, 1, 52, 61
1, 4800, Note_on_c, 1, 64, 61
1, 4943, Note_on_c, 0, 67, 0
1, 4943, Note_on_c, 0, 72, 0
1, 4943, Note_on_c, 1, 64, 0
1, 4943, Note_on_c, 1, 52, 0
1, 5280, Note_on_c, 0, 71, 94
1, 5280, Note_on_c, 0, 67, 80
1, 5280, Note_on_c, 1, 62, 57
1, 5280, Note_on_c, 1, 50, 57
1, 5409, Note_on_c, 0, 67, 0
1, 5409, Note_on_c, 0, 71, 0
1, 5409, Note_on_c, 1, 50, 0
1, 5409, Note_on_c, 1, 62, 0
1, 5760, Note_on_c, 0, 76, 115
1, 5760, Note_on_c, 0, 67, 103
1, 5760, Note_on_c, 1, 60, 62
1, 5760, Note_on_c, 1, 48, 62
1, 6201, Note_on_c, 0, 67, 0
1, 6201, Note_on_c, 0, 76, 0
1, 6201, Note_on_c, 1, 48, 0
1, 6201, Note_on_c, 1, 60, 0
1, 6480, Note_on_c, 0, 74, 59
1, 6480, Note_on_c, 0, 67, 50
1, 6480, Note_on_c, 1, 59, 53
1, 6570, Note_on_c, 0, 67, 0
1, 6570, Note_on_c, 0, 74, 0
1, 6570, Note_on_c, 1, 59, 0
1, 6720, Note_on_c, 0, 72, 64
1, 6720, Note_on_c, 1, 62, 43
1, 6720, Note_on_c, 1, 54, 43
1, 6960, Note_on_c, 0, 69, 47
1, 7012, Note_on_c, 0, 72, 0
1, 7037, Note_on_c, 0, 69, 0
1, 7185, Note_on_c, 1, 54, 0
1, 7200, Note_on_c, 0, 71, 66
1, 7200, Note_on_c, 1, 55, 31
1, 7440, Note_on_c, 0, 67, 40
1, 7466, Note_on_c, 0, 71, 0
1, 7496, Note_on_c, 1, 62, 0
1, 7502, Note_on_c, 1, 55, 0
1, 7509, Note_on_c, 0, 67, 0
1, 7680, Note_on_c, 0, 71, 74
1, 7680, Note_on_c, 0, 67, 74
1, 7680, Note_on_c, 1, 62, 28
1, 7680, Note_on_c, 1, 50, 28
1, 8160, Note_on_c, 0, 66, 29
1, 8160, Note_on_c, 0, 69, 25
1, 8166, Note_on_c, 0, 67, 0
1, 8166, Note_on_c, 0, 71, 0
1, 8427, Note_on_c, 1, 50, 0
1, 8443, Note_on_c, 1, 62, 0
1, 8519, Note_on_c, 0, 66, 0
1, 8519, Note_on_c, 0, 69, 0
1, 8640, Note_on_c, 0, 71, 71
1, 8640, Note_on_c, 1, 55, 35
1, 8640, Note_on_c, 1, 62, 35
1, 9000, Note_on_c, 0, 74, 65
1, 9008, Note_on_c, 0, 71, 0
1, 9120, Note_on_c, 0, 72, 63
1, 9145, Note_on_c, 0, 74, 0
1, 9480, Note_on_c, 0, 71, 59
1, 9514, Note_on_c, 0, 72, 0
1, 9579, Note_on_c, 1, 55, 0
1, 9600, Note_on_c, 0, 69, 72
1, 9600, Note_on_c, 1, 54, 30
1, 9618, Note_on_c, 0, 71, 0
1, 10080, Note_on_c, 0, 71, 50
1, 10080, Note_on_c, 1, 55, 34
1, 10086, Note_on_c, 0, 69, 0
1, 10086, Note_on_c, 1, 54, 0
1, 10400, Note_on_c, 1, 62, 0
1, 10400, Note_on_c, 1, 55, 0
1, 10541, Note_on_c, 0, 71, 0
1, 10560, Note_on_c, 0, 72, 66
1, 10560, Note_on_c, 1, 62, 43
1, 10560, Note_on_c, 1, 57, 43
1, 11040, Note_on_c, 0, 76, 73
1, 11040, Note_on_c, 1, 54, 33
1, 11045, Note_on_c, 0, 72, 0
1, 11045, Note_on_c, 1, 57, 0
1, 11280, Note_on_c, 0, 74, 67
1, 11309, Note_on_c, 0, 76, 0
1, 11510, Note_on_c, 1, 54, 0
1, 11520, Note_on_c, 0, 72, 70
1, 11520, Note_on_c, 1, 55, 30
1, 11528, Note_on_c, 0, 74, 0
1, 11760, Note_on_c, 0, 71, 53
1, 11796, Note_on_c, 0, 72, 0
1, 12000, Note_on_c, 0, 69, 48
1, 12018, Note_on_c, 0, 71, 0
1, 12149, Note_on_c, 1, 62, 0
1, 12176, Note_on_c, 1, 55, 0
1, 12240, Note_on_c, 0, 67, 32
1, 12253, Note_on_c, 0, 69, 0
1, 12410, Note_on_c, 0, 67, 0
1, 12480, Note_on_c, 0, 67, 85
1, 12480, Note_on_c, 0, 72, 95
1, 12480, Note_on_c, 1, 52, 66
1, 12480, Note_on_c, 1, 64, 66
1, 12606, Note_on_c, 0, 72, 0
1, 12606, Note_on_c, 0, 67, 0
1, 12606, Note_on_c, 1, 64, 0
1, 12606, Note_on_c, 1, 52, 0
1, 12960, Note_on_c, 0, 71, 90
1, 12960, Note_on_c, 0, 67, 93
1, 12960, Note_on_c, 1, 50, 58
1, 12960, Note_on_c, 1, 62, 58
1, 13095, Note_on_c, 0, 67, 0
1, 13095, Note_on_c, 0, 71, 0
1, 13095, Note_on_c, 1, 62, 0
1, 13095, Note_on_c, 1, 50, 0
1, 13440, Note_on_c, 0, 76, 96
1, 13440, Note_on_c, 0, 67, 81
1, 13440, Note_on_c, 1, 48, 70
1, 13440, Note_on_c, 1, 60, 70
1, 13661, Note_on_c, 0, 76, 0
1, 13680, Note_on_c, 0, 78, 93
1, 13710, Note_on_c, 0, 67, 0
1, 13920, Note_on_c, 0, 79, 88
1, 13951, Note_on_c, 0, 78, 0
1, 13956, Note_on_c, 1, 60, 0
1, 13956, Note_on_c, 1, 48, 0
1, 14138, Note_on_c, 0, 79, 0
1, 14160, Note_on_c, 0, 72, 68
1, 14160, Note_on_c, 1, 55, 35
1, 14160, Note_on_c, 1, 52, 35
1, 14235, Note_on_c, 1, 52, 0
1, 14235, Note_on_c, 1, 55, 0
1, 14396, Note_on_c, 0, 72, 0
1, 14400, Note_on_c, 0, 71, 61
1, 14400, Note_on_c, 1, 55, 28
1, 14400, Note_on_c, 1, 50, 28
1, 14825, Note_on_c, 0, 71, 0
1, 14880, Note_on_c, 0, 71, 62
1, 14880, Note_on_c, 1, 54, 20
1, 14908, Note_on_c, 1, 55, 0
1, 14940, Note_on_c, 0, 71, 0
1, 14944, Note_on_c, 0, 69, 54
1, 15000, Note_on_c, 0, 71, 51
1, 15008, Note_on_c, 0, 69, 0
1, 15057, Note_on_c, 0, 71, 0
1, 15063, Note_on_c, 0, 69, 47
1, 15120, Note_on_c, 0, 71, 43
1, 15128, Note_on_c, 0, 69, 0
1, 15158, Note_on_c, 1, 50, 0
1, 15167, Note_on_c, 0, 71, 0
1, 15171, Note_on_c, 0, 69, 43
1, 15182, Note_on_c, 1, 54, 0
1, 15240, Note_on_c, 0, 67, 43
1, 15244, Note_on_c, 0, 69, 0
1, 15300, Note_on_c, 0, 69, 47
1, 15321, Note_on_c, 0, 67, 0
1, 15360, Note_on_c, 0, 67, 51
1, 15360, Note_on_c, 1, 55, 24
1, 15381, Note_on_c, 0, 69, 0
1, 15600, Note_on_c, 1, 59, 31
1, 15840, Note_on_c, 1, 62, 40
1, 15937, Note_on_c, 1, 59, 0
1, 16080, Note_on_c, 1, 59, 40
1, 16096, Note_on_c, 1, 62, 0
1, 16099, Note_on_c, 1, 55, 0
1, 16163, Note_on_c, 1, 59, 0
1, 16206, Note_on_c, 0, 67, 0
1, 16320, Note_on_c, 0, 69, 70
1, 16320, Note_on_c, 1, 48, 39
1, 16560, Note_on_c, 1, 52, 37
1, 16800, Note_on_c, 1, 57, 37
1, 16852, Note_on_c, 1, 52, 0
1, 17040, Note_on_c, 1, 52, 39
1, 17055, Note_on_c, 1, 48, 0
1, 17056, Note_on_c, 1, 57, 0
1, 17116, Note_on_c, 1, 52, 0
1, 17280, Note_on_c, 0, 67, 59
1, 17280, Note_on_c, 1, 50, 37
1, 17305, Note_on_c, 0, 69, 0
1, 17520, Note_on_c, 0, 66, 74
1, 17520, Note_on_c, 1, 60, 40
1, 17530, Note_on_c, 0, 67, 0
1, 17757, Note_on_c, 1, 60, 0
1, 17760, Note_on_c, 0, 64, 62
1, 17760, Note_on_c, 1, 57, 39
1, 17801, Note_on_c, 0, 66, 0
1, 17997, Note_on_c, 1, 50, 0
1, 18000, Note_on_c, 0, 62, 51
1, 18000, Note_on_c, 1, 60, 28
1, 18001, Note_on_c, 1, 57, 0
1, 18016, Note_on_c, 0, 64, 0
1, 18099, Note_on_c, 1, 60, 0
1, 18240, Note_on_c, 0, 71, 77
1, 18240, Note_on_c, 1, 55, 24
1, 18244, Note_on_c, 0, 62, 0
1, 18480, Note_on_c, 1, 59, 31
1, 18720, Note_on_c, 1, 62, 35
1, 18828, Note_on_c, 1, 59, 0
1, 18951, Note_on_c, 1, 55, 0
1, 18960, Note_on_c, 1, 59, 31
1, 18967, Note_on_c, 1, 62, 0
1, 19028, Note_on_c, 1, 59, 0
1, 19200, Note_on_c, 0, 67, 58
1, 19200, Note_on_c, 1, 52, 31
1, 19234, Note_on_c, 0, 71, 0
1, 19407, Note_on_c, 0, 67, 0
1, 19440, Note_on_c, 1, 55, 35
1, 19604, Note_on_c, 0, 69, 66
1, 19680, Note_on_c, 0, 67, 66
1, 19681, Note_on_c, 1, 59, 37
1, 19686, Note_on_c, 0, 69, 0
1, 19735, Note_on_c, 0, 69, 62
1, 19737, Note_on_c, 0, 67, 0
1, 19778, Note_on_c, 1, 55, 0
1, 19800, Note_on_c, 0, 67, 66
1, 19805, Note_on_c, 0, 69, 0
1, 19855, Note_on_c, 0, 69, 66
1, 19877, Note_on_c, 0, 67, 0
1, 19904, Note_on_c, 0, 69, 0
1, 19912, Note_on_c, 1, 59, 0
1, 19920, Note_on_c, 0, 67, 66
1, 19920, Note_on_c, 1, 55, 33
1, 19945, Note_on_c, 1, 52, 0
1, 19949, Note_on_c, 0, 67, 0
1, 19956, Note_on_c, 0, 69, 66
1, 19984, Note_on_c, 0, 67, 70
1, 19986, Note_on_c, 1, 55, 0
1, 19988, Note_on_c, 0, 69, 0
1, 20040, Note_on_c, 0, 66, 70
1, 20041, Note_on_c, 0, 67, 0
1, 20104, Note_on_c, 0, 67, 74
1, 20116, Note_on_c, 0, 66, 0
1, 20160, Note_on_c, 0, 69, 74
1, 20160, Note_on_c, 1, 48, 26
1, 20175, Note_on_c, 0, 67, 0
1, 20400, Note_on_c, 1, 52, 31
1, 20605, Note_on_c, 0, 69, 0
1, 20640, Note_on_c, 0, 69, 66
1, 20640, Note_on_c, 1, 57, 35
1, 20692, Note_on_c, 1, 52, 0
1, 20852, Note_on_c, 1, 48, 0
1, 20866, Note_on_c, 1, 57, 0
1, 20880, Note_on_c, 1, 52, 33
1, 20924, Note_on_c, 1, 52, 0
1, 21076, Note_on_c, 0, 69, 0
1, 21120, Note_on_c, 0, 67, 53
1, 21120, Note_on_c, 1, 50, 30
1, 21360, Note_on_c, 0, 66, 50
1, 21360, Note_on_c, 1, 60, 31
1, 21366, Note_on_c, 0, 67, 0
1, 21600, Note_on_c, 0, 64, 45
1, 21600, Note_on_c, 1, 57, 31
1, 21615, Note_on_c, 0, 66, 0
1, 21626, Note_on_c, 1, 60, 0
1, 21717, Note_on_c, 1, 50, 0
1, 21808, Note_on_c, 1, 57, 0
1, 21840, Note_on_c, 0, 62, 35
1, 21840, Note_on_c, 1, 60, 30
1, 21857, Note_on_c, 0, 64, 0
1, 21928, Note_on_c, 1, 60, 0
1, 22026, Note_on_c, 0, 62, 0
1, 22080, Note_on_c, 0, 71, 71
1, 22080, Note_on_c, 1, 55, 35
1, 22080, Note_on_c, 1, 62, 35
1, 22440, Note_on_c, 0, 74, 65
1, 22448, Note_on_c, 0, 71, 0
1, 22560, Note_on_c, 0, 72, 63
1, 22585, Note_on_c, 0, 74, 0
1, 22920, Note_on_c, 0, 71, 59
1, 22954, Note_on_c, 0, 72, 0
1, 23040, Note_on_c, 0, 69, 72
1, 23040, Note_on_c, 1, 55, 0
1, 23040, Note_on_c, 1, 54, 30
1, 23058, Note_on_c, 0, 71, 0
1, 23520, Note_on_c, 0, 71, 50
1, 23520, Note_on_c, 1, 55, 34
1, 23526, Note_on_c, 0, 69, 0
1, 23526, Note_on_c, 1, 54, 0
1, 23840, Note_on_c, 1, 62, 0
1, 23878, Note_on_c, 1, 55, 0
1, 23932, Note_on_c, 0, 71, 0
1, 24000, Note_on_c, 0, 72, 74
1, 24000, Note_on_c, 1, 62, 40
1, 24000, Note_on_c, 1, 57, 40
1, 24480, Note_on_c, 0, 74, 64
1, 24480, Note_on_c, 1, 54, 30
1, 24493, Note_on_c, 1, 57, 0
1, 24499, Note_on_c, 0, 72, 0
1, 24960, Note_on_c, 0, 72, 73
1, 24960, Note_on_c, 1, 55, 24
1, 24978, Note_on_c, 0, 74, 0
1, 24979, Note_on_c, 1, 54, 0
1, 25200, Note_on_c, 0, 71, 62
1, 25207, Note_on_c, 0, 72, 0
1, 25440, Note_on_c, 0, 69, 54
1, 25476, Note_on_c, 0, 71, 0
1, 25680, Note_on_c, 0, 67, 40
1, 25704, Note_on_c, 0, 69, 0
1, 25706, Note_on_c, 1, 55, 0
1, 25707, Note_on_c, 1, 62, 0
1, 25816, Note_on_c, 0, 67, 0
1, 25920, Note_on_c, 0, 72, 94
1, 25920, Note_on_c, 0, 67, 81
1, 25920, Note_on_c, 1, 52, 63
1, 25920, Note_on_c, 1, 64, 63
1, 26063, Note_on_c, 0, 67, 0
1, 26063, Note_on_c, 0, 72, 0
1, 26063, Note_on_c, 1, 64, 0
1, 26063, Note_on_c, 1, 52, 0
1, 26400, Note_on_c, 0, 71, 94
1, 26400, Note_on_c, 0, 67, 80
1, 26400, Note_on_c, 1, 62, 57
1, 26400, Note_on_c, 1, 50, 57
1, 26529, Note_on_c, 0, 67, 0
1, 26529, Note_on_c, 0, 71, 0
1, 26529, Note_on_c, 1, 50, 0
1, 26529, Note_on_c, 1, 62, 0
1, 26880, Note_on_c, 0, 76, 115
1, 26880, Note_on_c, 0, 67, 103
1, 26880, Note_on_c, 1, 60, 70
1, 26880, Note_on_c, 1, 48, 70
1, 27321, Note_on_c, 0, 67, 0
1, 27321, Note_on_c, 0, 76, 0
1, 27321, Note_on_c, 1, 48, 0
1, 27321, Note_on_c, 1, 60, 0
1, 27600, Note_on_c, 0, 74, 59
1, 27600, Note_on_c, 0, 67, 50
1, 27600, Note_on_c, 1, 59, 53
1, 27690, Note_on_c, 0, 67, 0
1, 27690, Note_on_c, 0, 74, 0
1, 27690, Note_on_c, 1, 59, 0
1, 27840, Note_on_c, 0, 72, 64
1, 27840, Note_on_c, 1, 62, 43
1, 27840, Note_on_c, 1, 54, 43
1, 28080, Note_on_c, 0, 69, 47
1, 28132, Note_on_c, 0, 72, 0
1, 28157, Note_on_c, 0, 69, 0
1, 28305, Note_on_c, 1, 54, 0
1, 28320, Note_on_c, 0, 71, 66
1, 28320, Note_on_c, 1, 55, 31
1, 28560, Note_on_c, 0, 67, 40
1, 28586, Note_on_c, 0, 71, 0
1, 28616, Note_on_c, 1, 62, 0
1, 28622, Note_on_c, 1, 55, 0
1, 28629, Note_on_c, 0, 67, 0
1, 28800, Note_on_c, 0, 71, 74
1, 28800, Note_on_c, 0, 67, 74
1, 28800, Note_on_c, 1, 62, 28
1, 28800, Note_on_c, 1, 50, 28
1, 29280, Note_on_c, 0, 66, 29
1, 29280, Note_on_c, 0, 69, 25
1, 29286, Note_on_c, 0, 67, 0
1, 29286, Note_on_c, 0, 71, 0
1, 29547, Note_on_c, 1, 50, 0
1, 29563, Note_on_c, 1, 62, 0
1, 29639, Note_on_c, 0, 66, 0
1, 29639, Note_on_c, 0, 69, 0
1, 29760, Note_on_c, 0, 71, 71
1, 29760, Note_on_c, 1, 55, 35
1, 29760, Note_on_c, 1, 62, 35
1, 30120, Note_on_c, 0, 74, 65
1, 30128, Note_on_c, 0, 71, 0
1, 30240, Note_on_c, 0, 72, 63
1, 30265, Note_on_c, 0, 74, 0
1, 30600, Note_on_c, 0, 71, 59
1, 30634, Note_on_c, 0, 72, 0
1, 30699, Note_on_c, 1, 55, 0
1, 30720, Note_on_c, 0, 69, 72
1, 30720, Note_on_c, 1, 54, 30
1, 30738, Note_on_c, 0, 71, 0
1, 31200, Note_on_c, 0, 71, 50
1, 31200, Note_on_c, 1, 55, 34
1, 31206, Note_on_c, 0, 69, 0
1, 31206, Note_on_c, 1, 54, 0
1, 31520, Note_on_c, 1, 62, 0
1, 31520, Note_on_c, 1, 55, 0
1, 31661, Note_on_c, 0, 71, 0
1, 31680, Note_on_c, 0, 72, 66
1, 31680, Note_on_c, 1, 62, 43
1, 31680, Note_on_c, 1, 57, 43
1, 32160, Note_on_c, 0, 76, 73
1, 32160, Note_on_c, 1, 54, 33
1, 32165, Note_on_c, 0, 72, 0
1, 32165, Note_on_c, 1, 57, 0
1, 32400, Note_on_c, 0, 74, 67
1, 32429, Note_on_c, 0, 76, 0
1, 32630, Note_on_c, 1, 54, 0
1, 32640, Note_on_c, 0, 72, 70
1, 32640, Note_on_c, 1, 55, 30
1, 32648, Note_on_c, 0, 74, 0
1, 32880, Note_on_c, 0, 71, 53
1, 32916, Note_on_c, 0, 72, 0
1, 33120, Note_on_c, 0, 69, 48
1, 33138, Note_on_c, 0, 71, 0
1, 33269, Note_on_c, 1, 62, 0
1, 33296, Note_on_c, 1, 55, 0
1, 33360, Note_on_c, 0, 67, 32
1, 33373, Note_on_c, 0, 69, 0
1, 33530, Note_on_c, 0, 67, 0
1, 33600, Note_on_c, 0, 67, 85
1, 33600, Note_on_c, 0, 72, 95
1, 33600, Note_on_c, 1, 52, 66
1, 33600, Note_on_c, 1, 64, 66
1, 33726, Note_on_c, 0, 72, 0
1, 33726, Note_on_c, 0, 67, 0
1, 33726, Note_on_c, 1, 64, 0
1, 33726, Note_on_c, 1, 52, 0
1, 34080, Note_on_c, 0, 71, 90
1, 34080, Note_on_c, 0, 67, 93
1, 34080, Note_on_c, 1, 62, 62
1, 34080, Note_on_c, 1, 50, 62
1, 34215, Note_on_c, 0, 67, 0
1, 34215, Note_on_c, 0, 71, 0
1, 34215, Note_on_c, 1, 50, 0
1, 34215, Note_on_c, 1, 62, 0
1, 34560, Note_on_c, 0, 76, 96
1, 34560, Note_on_c, 0, 67, 81
1, 34560, Note_on_c, 1, 48, 72
1, 34560, Note_on_c, 1, 60, 72
1, 34781, Note_on_c, 0, 76, 0
1, 34800, Note_on_c, 0, 78, 93
1, 34830, Note_on_c, 0, 67, 0
1, 35040, Note_on_c, 0, 79, 88
1, 35071, Note_on_c, 0, 78, 0
1, 35076, Note_on_c, 1, 60, 0
1, 35076, Note_on_c, 1, 48, 0
1, 35258, Note_on_c, 0, 79, 0
1, 35280, Note_on_c, 0, 72, 68
1, 35280, Note_on_c, 1, 55, 35
1, 35280, Note_on_c, 1, 52, 35
1, 35355, Note_on_c, 1, 52, 0
1, 35355, Note_on_c, 1, 55, 0
1, 35516, Note_on_c, 0, 72, 0
1, 35520, Note_on_c, 0, 71, 61
1, 35520, Note_on_c, 1, 55, 28
1, 35520, Note_on_c, 1, 50, 28
1, 35945, Note_on_c, 0, 71, 0
1, 36000, Note_on_c, 0, 71, 62
1, 36000, Note_on_c, 1, 54, 20
1, 36028, Note_on_c, 1, 55, 0
1, 36060, Note_on_c, 0, 71, 0
1, 36064, Note_on_c, 0, 69, 54
1, 36120, Note_on_c, 0, 71, 51
1, 36128, Note_on_c, 0, 69, 0
1, 36177, Note_on_c, 0, 71, 0
1, 36183, Note_on_c, 0, 69, 47
1, 36240, Note_on_c, 0, 71, 43
1, 36248, Note_on_c, 0, 69, 0
1, 36278, Note_on_c, 1, 50, 0
1, 36287, Note_on_c, 0, 71, 0
1, 36291, Note_on_c, 0, 69, 43
1, 36302, Note_on_c, 1, 54, 0
1, 36360, Note_on_c, 0, 67, 43
1, 36364, Note_on_c, 0, 69, 0
1, 36420, Note_on_c, 0, 69, 47
1, 36441, Note_on_c, 0, 67, 0
1, 36480, Note_on_c, 0, 67, 51
1, 36480, Note_on_c, 1, 55, 24
1, 36501, Note_on_c, 0, 69, 0
1, 36720, Note_on_c, 1, 59, 31
1, 36960, Note_on_c, 1, 62, 40
1, 37057, Note_on_c, 1, 59, 0
1, 37200, Note_on_c, 1, 59, 40
1, 37216, Note_on_c, 1, 62, 0
1, 37219, Note_on_c, 1, 55, 0
1, 37283, Note_on_c, 1, 59, 0
1, 37326, Note_on_c, 0, 67, 0
1, 37440, Note_on_c, 0, 69, 70
1, 37440, Note_on_c, 1, 48, 39
1, 37680, Note_on_c, 1, 52, 37
1, 37920, Note_on_c, 1, 57, 37
1, 37972, Note_on_c, 1, 52, 0
1, 38160, Note_on_c, 1, 52, 39
1, 38175, Note_on_c, 1, 48, 0
1, 38176, Note_on_c, 1, 57, 0
1, 38236, Note_on_c, 1, 52, 0
1, 38400, Note_on_c, 0, 67, 59
1, 38400, Note_on_c, 1, 50, 37
1, 38425, Note_on_c, 0, 69, 0
1, 38640, Note_on_c, 0, 66, 74
1, 38640, Note_on_c, 1, 60, 40
1, 38650, Note_on_c, 0, 67, 0
1, 38877, Note_on_c, 1, 60, 0
1, 38880, Note_on_c, 0, 64, 62
1, 38880, Note_on_c, 1, 57, 39
1, 38921, Note_on_c, 0, 66, 0
1, 39117, Note_on_c, 1, 50, 0
1, 39120, Note_on_c, 0, 62, 51
1, 39120, Note_on_c, 1, 60, 28
1, 39121, Note_on_c, 1, 57, 0
1, 39136, Note_on_c, 0, 64, 0
1, 39219, Note_on_c, 1, 60, 0
1, 39360, Note_on_c, 0, 71, 77
1, 39360, Note_on_c, 1, 55, 24
1, 39364, Note_on_c, 0, 62, 0
1, 39600, Note_on_c, 1, 59, 31
1, 39840, Note_on_c, 1, 62, 35
1, 39948, Note_on_c, 1, 59, 0
1, 40071, Note_on_c, 1, 55, 0
1, 40080, Note_on_c, 1, 59, 31
1, 40087, Note_on_c, 1, 62, 0
1, 40148, Note_on_c, 1, 59, 0
1, 40320, Note_on_c, 0, 67, 58
1, 40320, Note_on_c, 1, 52, 31
1, 40354, Note_on_c, 0, 71, 0
1, 40527, Note_on_c, 0, 67, 0
1, 40560, Note_on_c, 1, 55, 35
1, 40724, Note_on_c, 0, 69, 66
1, 40800, Note_on_c, 0, 67, 66
1, 40801, Note_on_c, 1, 59, 37
1, 40806, Note_on_c, 0, 69, 0
1, 40855, Note_on_c, 0, 69, 62
1, 40857, Note_on_c, 0, 67, 0
1, 40898, Note_on_c, 1, 55, 0
1, 40920, Note_on_c, 0, 67, 66
1, 40925, Note_on_c, 0, 69, 0
1, 40975, Note_on_c, 0, 69, 66
1, 40997, Note_on_c, 0, 67, 0
1, 41024, Note_on_c, 0, 69, 0
1, 41032, Note_on_c, 1, 59, 0
1, 41040, Note_on_c, 0, 67, 66
1, 41040, Note_on_c, 1, 55, 33
1, 41065, Note_on_c, 1, 52, 0
1, 41069, Note_on_c, 0, 67, 0
1, 41076, Note_on_c, 0, 69, 66
1, 41104, Note_on_c, 0, 67, 70
1, 41106, Note_on_c, 1, 55, 0
1, 41108, Note_on_c, 0, 69, 0
1, 41160, Note_on_c, 0, 66, 70
1, 41161, Note_on_c, 0, 67, 0
1, 41224, Note_on_c, 0, 67, 74
1, 41236, Note_on_c, 0, 66, 0
1, 41280, Note_on_c, 0, 69, 74
1, 41280, Note_on_c, 1, 48, 26
1, 41295, Note_on_c, 0, 67, 0
1, 41520, Note_on_c, 1, 52, 31
1, 41725, Note_on_c, 0, 69, 0
1, 41760, Note_on_c, 0, 69, 66
1, 41760, Note_on_c, 1, 57, 35
1, 41812, Note_on_c, 1, 52, 0
1, 41972, Note_on_c, 1, 48, 0
1, 41986, Note_on_c, 1, 57, 0
1, 42000, Note_on_c, 1, 52, 33
1, 42044, Note_on_c, 1, 52, 0
1, 42196, Note_on_c, 0, 69, 0
1, 42240, Note_on_c, 0, 67, 53
1, 42240, Note_on_c, 1, 50, 30
1, 42480, Note_on_c, 0, 66, 50
1, 42480, Note_on_c, 1, 60, 31
1, 42486, Note_on_c, 0, 67, 0
1, 42720, Note_on_c, 0, 64, 45
1, 42720, Note_on_c, 1, 57, 31
1, 42735, Note_on_c, 0, 66, 0
1, 42746, Note_on_c, 1, 60, 0
1, 42837, Note_on_c, 1, 50, 0
1, 42928, Note_on_c, 1, 57, 0
1, 42960, Note_on_c, 0, 62, 35
1, 42960, Note_on_c, 1, 60, 30
1, 42977, Note_on_c, 0, 64, 0
1, 43048, Note_on_c, 1, 60, 0
1, 43200, Note_on_c, 0, 62, 0
1, 43200, Note_on_c, 0, 67, 61
1, 43200, Note_on_c, 1, 55, 31
1, 43200, Note_on_c, 1, 59, 31
1, 44000, Note_on_c, 0, 67, 0
1, 44040, Note_on_c, 1, 59, 0
1, 44040, Note_on_c, 1, 55, 0
1, 44160, Note_on_c, 0, 63, 93
1, 44160, Note_on_c, 1, 54, 77
1, 44160, Note_on_c, 1, 57, 77
1, 44160, Note_on_c, 1, 47, 77
1, 44286, Note_on_c, 1, 47, 0
1, 44286, Note_on_c, 1, 57, 0
1, 44286, Note_on_c, 1, 54, 0
1, 44386, Note_on_c, 0, 63, 0
1, 44640, Note_on_c, 0, 63, 85
1, 44640, Note_on_c, 1, 57, 70
1, 44640, Note_on_c, 1, 54, 70
1, 44640, Note_on_c, 1, 47, 70
1, 44800, Note_on_c, 0, 63, 0
1, 44800, Note_on_c, 1, 47, 0
1, 44800, Note_on_c, 1, 54, 0
1, 44800, Note_on_c, 1, 57, 0
1, 45120, Note_on_c, 0, 64, 73
1, 45120, Note_on_c, 1, 55, 61
1, 45120, Note_on_c, 1, 52, 61
1, 45360, Note_on_c, 0, 66, 59
1, 45364, Note_on_c, 0, 64, 0
1, 45600, Note_on_c, 0, 67, 50
1, 45600, Note_on_c, 1, 52, 0
1, 45600, Note_on_c, 1, 55, 0
1, 45633, Note_on_c, 0, 66, 0
1, 45840, Note_on_c, 0, 64, 47
1, 45856, Note_on_c, 0, 67, 0
1, 46080, Note_on_c, 0, 62, 78
1, 46080, Note_on_c, 1, 55, 40
1, 46080, Note_on_c, 1, 52, 40
1, 46080, Note_on_c, 1, 45, 40
1, 46093, Note_on_c, 0, 64, 0
1, 46320, Note_on_c, 0, 61, 51
1, 46320, Note_on_c, 1, 45, 0
1, 46320, Note_on_c, 1, 52, 0
1, 46320, Note_on_c, 1, 55, 0
1, 46333, Note_on_c, 0, 62, 0
1, 46560, Note_on_c, 0, 59, 58
1, 46560, Note_on_c, 1, 55, 34
1, 46560, Note_on_c, 1, 52, 34
1, 46560, Note_on_c, 1, 45, 34
1, 46572, Note_on_c, 0, 61, 0
1, 46800, Note_on_c, 0, 57, 62
1, 46800, Note_on_c, 1, 45, 0
1, 46800, Note_on_c, 1, 52, 0
1, 46800, Note_on_c, 1, 55, 0
1, 46816, Note_on_c, 0, 59, 0
1, 47045, Note_on_c, 0, 69, 48
1, 47045, Note_on_c, 1, 54, 16
1, 47045, Note_on_c, 1, 50, 16
1, 47048, Note_on_c, 0, 57, 0
1, 47617, Note_on_c, 0, 69, 0
1, 47617, Note_on_c, 1, 50, 0
1, 47617, Note_on_c, 1, 54, 0
1, 48000, Note_on_c, 0, 62, 73
1, 48000, Note_on_c, 0, 68, 73
1, 48000, Note_on_c, 0, 74, 105
1, 48000, Note_on_c, 1, 47, 38
1, 48000, Note_on_c, 1, 59, 38
1, 48120, Note_on_c, 0, 74, 0
1, 48120, Note_on_c, 0, 68, 0
1, 48120, Note_on_c, 0, 62, 0
1, 48120, Note_on_c, 1, 59, 0
1, 48120, Note_on_c, 1, 47, 0
1, 48480, Note_on_c, 0, 74, 101
1, 48480, Note_on_c, 0, 68, 70
1, 48480, Note_on_c, 0, 62, 70
1, 48480, Note_on_c, 1, 47, 35
1, 48480, Note_on_c, 1, 59, 40
1, 48600, Note_on_c, 0, 62, 0
1, 48600, Note_on_c, 0, 68, 0
1, 48600, Note_on_c, 0, 74, 0
1, 48600, Note_on_c, 1, 59, 0
1, 48600, Note_on_c, 1, 47, 0
1, 48967, Note_on_c, 0, 74, 48
1, 48967, Note_on_c, 0, 68, 24
1, 48967, Note_on_c, 0, 62, 24
1, 48967, Note_on_c, 1, 59, 19
1, 48967, Note_on_c, 1, 47, 19
1, 49641, Note_on_c, 0, 62, 0
1, 49641, Note_on_c, 0, 68, 0
1, 49641, Note_on_c, 0, 74, 0
1, 49641, Note_on_c, 1, 47, 0
1, 49641, Note_on_c, 1, 59, 0
1, 49925, Note_on_c, 0, 81, 40
1, 49925, Note_on_c, 0, 73, 24
1, 49925, Note_on_c, 1, 64, 30
1, 49925, Note_on_c, 1, 57, 30
1, 50025, Note_on_c, 0, 73, 0
1, 50025, Note_on_c, 0, 81, 0
1, 50025, Note_on_c, 1, 57, 0
1, 50025, Note_on_c, 1, 64, 0
1, 50400, Note_on_c, 0, 81, 37
1, 50400, Note_on_c, 0, 73, 32
1, 50400, Note_on_c, 1, 64, 23
1, 50400, Note_on_c, 1, 57, 23
1, 50500, Note_on_c, 0, 73, 0
1, 50500, Note_on_c, 0, 81, 0
1, 50500, Note_on_c, 1, 57, 0
1, 50500, Note_on_c, 1, 64, 0
1, 50892, Note_on_c, 0, 81, 28
1, 50892, Note_on_c, 0, 73, 18
1, 50892, Note_on_c, 1, 57, 14
1, 50892, Note_on_c, 1, 64, 14
1, 51852, Note_on_c, 0, 73, 0
1, 51852, Note_on_c, 0, 81, 0
1, 51852, Note_on_c, 1, 64, 0
1, 51852, Note_on_c, 1, 57, 0
1, 52320, Note_on_c, 0, 78, 59
1, 52350, Note_on_c, 0, 79, 59
1, 52380, Note_on_c, 0, 78, 59
1, 52410, Note_on_c, 0, 79, 59
1, 52440, Note_on_c, 0, 78, 59
1, 52470, Note_on_c, 0, 79, 59
1, 52500, Note_on_c, 0, 78, 59
1, 52530, Note_on_c, 0, 79, 59
1, 52560, Note_on_c, 0, 78, 0
1, 52560, Note_on_c, 0, 78, 59
1, 52590, Note_on_c, 0, 79, 0
1, 52620, Note_on_c, 0, 78, 0
1, 52650, Note_on_c, 0, 79, 0
1, 52680, Note_on_c, 0, 78, 0
1, 52710, Note_on_c, 0, 79, 0
1, 52740, Note_on_c, 0, 78, 0
1, 52740, Note_on_c, 0, 79, 54
1, 52770, Note_on_c, 0, 79, 0
1, 52800, Note_on_c, 0, 78, 0
1, 52800, Note_on_c, 0, 81, 76
1, 52800, Note_on_c, 1, 62, 51
1, 52860, Note_on_c, 0, 79, 0
1, 53040, Note_on_c, 1, 66, 35
1, 53187, Note_on_c, 0, 81, 0
1, 53274, Note_on_c, 1, 66, 0
1, 53280, Note_on_c, 0, 81, 59
1, 53280, Note_on_c, 1, 69, 48
1, 53306, Note_on_c, 1, 62, 0
1, 53520, Note_on_c, 1, 66, 37
1, 53607, Note_on_c, 1, 69, 0
1, 53755, Note_on_c, 1, 66, 0
1, 53760, Note_on_c, 1, 62, 46
1, 53941, Note_on_c, 0, 81, 0
1, 54000, Note_on_c, 0, 81, 74
1, 54000, Note_on_c, 1, 66, 37
1, 54002, Note_on_c, 1, 62, 0
1, 54131, Note_on_c, 0, 81, 0
1, 54240, Note_on_c, 0, 81, 69
1, 54240, Note_on_c, 1, 69, 51
1, 54264, Note_on_c, 1, 66, 0
1, 54360, Note_on_c, 0, 83, 62
1, 54366, Note_on_c, 0, 81, 0
1, 54399, Note_on_c, 0, 81, 66
1, 54422, Note_on_c, 0, 83, 0
1, 54438, Note_on_c, 0, 80, 82
1, 54449, Note_on_c, 0, 81, 0
1, 54480, Note_on_c, 0, 81, 75
1, 54480, Note_on_c, 1, 66, 40
1, 54503, Note_on_c, 0, 80, 0
1, 54508, Note_on_c, 1, 69, 0
1, 54575, Note_on_c, 1, 66, 0
1, 54600, Note_on_c, 0, 83, 65
1, 54605, Note_on_c, 0, 81, 0
1, 54720, Note_on_c, 0, 81, 67
1, 54720, Note_on_c, 1, 62, 44
1, 54747, Note_on_c, 0, 83, 0
1, 54960, Note_on_c, 0, 79, 58
1, 54960, Note_on_c, 1, 64, 33
1, 54964, Note_on_c, 0, 81, 0
1, 54979, Note_on_c, 1, 62, 0
1, 55070, Note_on_c, 0, 79, 0
1, 55200, Note_on_c, 0, 79, 57
1, 55200, Note_on_c, 1, 71, 44
1, 55241, Note_on_c, 1, 64, 0
1, 55440, Note_on_c, 1, 64, 37
1, 55449, Note_on_c, 1, 71, 0
1, 55680, Note_on_c, 1, 62, 42
1, 55683, Note_on_c, 1, 64, 0
1, 55877, Note_on_c, 0, 79, 0
1, 55920, Note_on_c, 0, 79, 60
1, 55920, Note_on_c, 1, 64, 37
1, 56160, Note_on_c, 0, 78, 63
1, 56160, Note_on_c, 1, 71, 44
1, 56174, Note_on_c, 1, 64, 0
1, 56180, Note_on_c, 1, 62, 0
1, 56182, Note_on_c, 0, 79, 0
1, 56400, Note_on_c, 0, 76, 55
1, 56400, Note_on_c, 1, 64, 35
1, 56402, Note_on_c, 1, 71, 0
1, 56433, Note_on_c, 0, 78, 0
1, 56556, Note_on_c, 0, 76, 0
1, 56595, Note_on_c, 1, 64, 0
1, 56640, Note_on_c, 0, 76, 77
1, 56640, Note_on_c, 1, 61, 35
1, 56880, Note_on_c, 0, 81, 62
1, 56880, Note_on_c, 1, 64, 37
1, 56894, Note_on_c, 0, 76, 0
1, 56955, Note_on_c, 0, 81, 0
1, 57120, Note_on_c, 0, 81, 66
1, 57120, Note_on_c, 1, 69, 46
1, 57132, Note_on_c, 1, 64, 0
1, 57360, Note_on_c, 1, 64, 44
1, 57369, Note_on_c, 1, 69, 0
1, 57444, Note_on_c, 1, 64, 0
1, 57448, Note_on_c, 1, 61, 0
1, 57600, Note_on_c, 1, 59, 46
1, 57836, Note_on_c, 0, 81, 0
1, 57840, Note_on_c, 0, 83, 63
1, 57840, Note_on_c, 1, 62, 37
1, 57960, Note_on_c, 0, 81, 64
1, 57992, Note_on_c, 0, 83, 0
1, 58009, Note_on_c, 0, 81, 0
1, 58080, Note_on_c, 0, 81, 77
1, 58080, Note_on_c, 1, 67, 44
1, 58104, Note_on_c, 1, 62, 0
1, 58200, Note_on_c, 0, 79, 61
1, 58217, Note_on_c, 0, 81, 0
1, 58320, Note_on_c, 0, 78, 56
1, 58320, Note_on_c, 1, 62, 40
1, 58337, Note_on_c, 0, 79, 0
1, 58439, Note_on_c, 1, 62, 0
1, 58440, Note_on_c, 0, 79, 59
1, 58441, Note_on_c, 1, 67, 0
1, 58451, Note_on_c, 0, 78, 0
1, 58485, Note_on_c, 0, 79, 0
1, 58529, Note_on_c, 1, 59, 0
1, 58560, Note_on_c, 0, 79, 72
1, 58560, Note_on_c, 1, 58, 36
1, 58800, Note_on_c, 0, 78, 60
1, 58800, Note_on_c, 1, 61, 38
1, 58835, Note_on_c, 0, 79, 0
1, 58900, Note_on_c, 0, 78, 0
1, 59040, Note_on_c, 0, 78, 58
1, 59040, Note_on_c, 1, 64, 40
1, 59116, Note_on_c, 1, 58, 0
1, 59280, Note_on_c, 1, 58, 39
1, 59284, Note_on_c, 1, 61, 0
1, 59293, Note_on_c, 1, 64, 0
1, 59520, Note_on_c, 1, 59, 46
1, 59553, Note_on_c, 1, 58, 0
1, 59688, Note_on_c, 0, 78, 0
1, 59760, Note_on_c, 0, 78, 62
1, 59760, Note_on_c, 1, 62, 44
1, 59816, Note_on_c, 0, 79, 74
1, 59836, Note_on_c, 0, 78, 0
1, 59876, Note_on_c, 0, 79, 0
1, 59880, Note_on_c, 0, 81, 75
1, 59967, Note_on_c, 1, 59, 0
1, 60000, Note_on_c, 0, 79, 49
1, 60000, Note_on_c, 1, 57, 35
1, 60018, Note_on_c, 1, 62, 0
1, 60023, Note_on_c, 0, 81, 0
1, 60240, Note_on_c, 0, 78, 65
1, 60240, Note_on_c, 1, 62, 44
1, 60246, Note_on_c, 0, 79, 0
1, 60347, Note_on_c, 0, 78, 0
1, 60464, Note_on_c, 1, 57, 0
1, 60480, Note_on_c, 0, 78, 67
1, 60480, Note_on_c, 1, 56, 35
1, 60494, Note_on_c, 1, 62, 0
1, 60720, Note_on_c, 0, 76, 60
1, 60720, Note_on_c, 1, 59, 40
1, 60749, Note_on_c, 0, 78, 0
1, 60788, Note_on_c, 0, 76, 0
1, 60960, Note_on_c, 0, 76, 64
1, 60960, Note_on_c, 1, 62, 46
1, 61001, Note_on_c, 0, 76, 0
1, 61014, Note_on_c, 1, 59, 0
1, 61186, Note_on_c, 1, 56, 0
1, 61200, Note_on_c, 0, 76, 73
1, 61200, Note_on_c, 1, 59, 39
1, 61238, Note_on_c, 0, 76, 0
1, 61289, Note_on_c, 1, 62, 0
1, 61422, Note_on_c, 1, 59, 0
1, 61440, Note_on_c, 0, 76, 66
1, 61440, Note_on_c, 1, 56, 35
1, 61680, Note_on_c, 1, 59, 41
1, 61695, Note_on_c, 1, 56, 0
1, 61860, Note_on_c, 0, 76, 0
1, 61920, Note_on_c, 0, 76, 64
1, 61920, Note_on_c, 1, 62, 41
1, 61949, Note_on_c, 1, 59, 0
1, 62160, Note_on_c, 1, 59, 37
1, 62182, Note_on_c, 1, 62, 0
1, 62325, Note_on_c, 0, 76, 0
1, 62337, Note_on_c, 1, 59, 0
1, 62400, Note_on_c, 0, 80, 70
1, 62400, Note_on_c, 1, 55, 33
1, 62456, Note_on_c, 0, 80, 0
1, 62457, Note_on_c, 0, 81, 73
1, 62502, Note_on_c, 0, 81, 0
1, 62514, Note_on_c, 0, 83, 78
1, 62570, Note_on_c, 0, 81, 76
1, 62590, Note_on_c, 0, 83, 0
1, 62640, Note_on_c, 1, 61, 39
1, 62880, Note_on_c, 1, 64, 44
1, 62980, Note_on_c, 1, 55, 0
1, 63120, Note_on_c, 1, 55, 37
1, 63157, Note_on_c, 1, 61, 0
1, 63165, Note_on_c, 1, 64, 0
1, 63354, Note_on_c, 1, 55, 0
1, 63360, Note_on_c, 1, 54, 42
1, 63600, Note_on_c, 0, 83, 69
1, 63600, Note_on_c, 1, 62, 39
1, 63652, Note_on_c, 0, 81, 0
1, 63720, Note_on_c, 0, 81, 67
1, 63740, Note_on_c, 0, 83, 0
1, 63840, Note_on_c, 0, 79, 53
1, 63840, Note_on_c, 1, 59, 33
1, 63857, Note_on_c, 0, 81, 0
1, 63895, Note_on_c, 1, 54, 0
1, 63947, Note_on_c, 1, 62, 0
1, 64080, Note_on_c, 0, 78, 55
1, 64080, Note_on_c, 1, 57, 40
1, 64099, Note_on_c, 1, 59, 0
1, 64123, Note_on_c, 0, 79, 0
1, 64170, Note_on_c, 1, 57, 0
1, 64267, Note_on_c, 0, 78, 0
1, 64320, Note_on_c, 0, 78, 62
1, 64320, Note_on_c, 1, 59, 40
1, 64320, Note_on_c, 1, 55, 40
1, 64560, Note_on_c, 0, 76, 61
1, 64587, Note_on_c, 0, 78, 0
1, 64800, Note_on_c, 0, 75, 64
1, 64812, Note_on_c, 0, 76, 0
1, 65040, Note_on_c, 0, 76, 67
1, 65071, Note_on_c, 0, 75, 0
1, 65280, Note_on_c, 0, 78, 65
1, 65305, Note_on_c, 0, 76, 0
1, 65520, Note_on_c, 0, 79, 55
1, 65525, Note_on_c, 1, 59, 0
1, 65547, Note_on_c, 0, 78, 0
1, 65549, Note_on_c, 1, 55, 0
1, 65675, Note_on_c, 0, 79, 0
1, 65760, Note_on_c, 0, 71, 57
1, 65760, Note_on_c, 1, 64, 39
1, 65760, Note_on_c, 1, 56, 39
1, 65917, Note_on_c, 1, 56, 0
1, 65917, Note_on_c, 1, 64, 0
1, 66000, Note_on_c, 0, 76, 44
1, 66024, Note_on_c, 0, 71, 0
1, 66160, Note_on_c, 0, 76, 0
1, 66240, Note_on_c, 0, 74, 63
1, 66240, Note_on_c, 1, 57, 30
1, 66240, Note_on_c, 1, 64, 30
1, 66480, Note_on_c, 0, 73, 47
1, 66505, Note_on_c, 0, 74, 0
1, 66720, Note_on_c, 0, 71, 51
1, 66747, Note_on_c, 0, 73, 0
1, 66960, Note_on_c, 0, 69, 43
1, 66985, Note_on_c, 0, 71, 0
1, 67200, Note_on_c, 0, 71, 46
1, 67213, Note_on_c, 0, 69, 0
1, 67229, Note_on_c, 1, 57, 0
1, 67245, Note_on_c, 1, 64, 0
1, 67440, Note_on_c, 0, 73, 48
1, 67448, Note_on_c, 0, 71, 0
1, 67680, Note_on_c, 0, 74, 50
1, 67700, Note_on_c, 0, 73, 0
1, 67920, Note_on_c, 0, 76, 59
1, 67940, Note_on_c, 0, 74, 0
1, 68090, Note_on_c, 0, 76, 0
1, 68160, Note_on_c, 0, 78, 66
1, 68160, Note_on_c, 1, 74, 42
1, 68400, Note_on_c, 1, 69, 30
1, 68517, Note_on_c, 1, 74, 0
1, 68520, Note_on_c, 0, 81, 61
1, 68547, Note_on_c, 0, 78, 0
1, 68555, Note_on_c, 1, 69, 0
1, 68640, Note_on_c, 0, 79, 77
1, 68640, Note_on_c, 1, 74, 42
1, 68656, Note_on_c, 0, 81, 0
1, 68880, Note_on_c, 1, 69, 31
1, 68953, Note_on_c, 1, 74, 0
1, 68955, Note_on_c, 1, 69, 0
1, 69000, Note_on_c, 0, 78, 59
1, 69010, Note_on_c, 0, 79, 0
1, 69120, Note_on_c, 0, 76, 73
1, 69120, Note_on_c, 1, 73, 39
1, 69148, Note_on_c, 0, 78, 0
1, 69360, Note_on_c, 1, 69, 31
1, 69447, Note_on_c, 1, 73, 0
1, 69598, Note_on_c, 1, 69, 0
1, 69600, Note_on_c, 0, 78, 47
1, 69600, Note_on_c, 1, 74, 33
1, 69618, Note_on_c, 0, 76, 0
1, 69840, Note_on_c, 1, 69, 24
1, 69853, Note_on_c, 1, 74, 0
1, 69960, Note_on_c, 0, 78, 0
1, 70028, Note_on_c, 1, 69, 0
1, 70080, Note_on_c, 0, 79, 70
1, 70080, Note_on_c, 1, 76, 49
1, 70320, Note_on_c, 1, 69, 33
1, 70352, Note_on_c, 1, 76, 0
1, 70560, Note_on_c, 0, 81, 68
1, 70560, Note_on_c, 1, 73, 53
1, 70576, Note_on_c, 1, 69, 0
1, 70579, Note_on_c, 0, 79, 0
1, 70800, Note_on_c, 1, 69, 37
1, 70823, Note_on_c, 1, 73, 0
1, 70874, Note_on_c, 1, 69, 0
1, 71040, Note_on_c, 0, 79, 56
1, 71040, Note_on_c, 1, 74, 42
1, 71073, Note_on_c, 0, 81, 0
1, 71268, Note_on_c, 1, 74, 0
1, 71280, Note_on_c, 1, 69, 29
1, 71387, Note_on_c, 1, 69, 0
1, 71520, Note_on_c, 0, 78, 42
1, 71520, Note_on_c, 1, 74, 37
1, 71542, Note_on_c, 0, 79, 0
1, 71760, Note_on_c, 1, 69, 28
1, 71770, Note_on_c, 1, 74, 0
1, 71793, Note_on_c, 1, 69, 0
1, 71849, Note_on_c, 0, 78, 0
1, 71989, Note_on_c, 0, 83, 57
1, 72000, Note_on_c, 1, 66, 73
1, 72000, Note_on_c, 1, 62, 67
1, 72075, Note_on_c, 0, 81, 39
1, 72080, Note_on_c, 0, 83, 0
1, 72131, Note_on_c, 0, 83, 39
1, 72135, Note_on_c, 0, 81, 0
1, 72184, Note_on_c, 0, 81, 39
1, 72185, Note_on_c, 0, 83, 0
1, 72239, Note_on_c, 0, 83, 39
1, 72244, Note_on_c, 0, 81, 0
1, 72296, Note_on_c, 0, 81, 39
1, 72306, Note_on_c, 0, 83, 0
1, 72352, Note_on_c, 0, 83, 39
1, 72356, Note_on_c, 0, 81, 0
1, 72415, Note_on_c, 0, 81, 39
1, 72423, Note_on_c, 0, 83, 0
1, 72455, Note_on_c, 1, 66, 0
1, 72469, Note_on_c, 1, 62, 0
1, 72477, Note_on_c, 0, 83, 39
1, 72480, Note_on_c, 1, 64, 55
1, 72480, Note_on_c, 1, 67, 55
1, 72483, Note_on_c, 0, 81, 0
1, 72516, Note_on_c, 0, 81, 39
1, 72524, Note_on_c, 0, 83, 0
1, 72561, Note_on_c, 0, 83, 39
1, 72563, Note_on_c, 0, 81, 0
1, 72602, Note_on_c, 0, 81, 39
1, 72605, Note_on_c, 0, 83, 0
1, 72644, Note_on_c, 0, 83, 39
1, 72646, Note_on_c, 0, 81, 0
1, 72678, Note_on_c, 0, 81, 39
1, 72682, Note_on_c, 0, 83, 0
1, 72723, Note_on_c, 0, 83, 39
1, 72725, Note_on_c, 0, 81, 0
1, 72757, Note_on_c, 1, 64, 0
1, 72763, Note_on_c, 0, 81, 39
1, 72767, Note_on_c, 0, 83, 0
1, 72798, Note_on_c, 1, 67, 0
1, 72808, Note_on_c, 0, 83, 43
1, 72810, Note_on_c, 0, 81, 0
1, 72840, Note_on_c, 1, 66, 68
1, 72840, Note_on_c, 1, 62, 68
1, 72845, Note_on_c, 0, 83, 0
1, 72845, Note_on_c, 0, 81, 47
1, 72878, Note_on_c, 0, 83, 47
1, 72880, Note_on_c, 0, 81, 0
1, 72888, Note_on_c, 1, 62, 0
1, 72906, Note_on_c, 1, 66, 0
1, 72918, Note_on_c, 0, 81, 47
1, 72920, Note_on_c, 0, 83, 0
1, 72960, Note_on_c, 1, 64, 66
1, 72960, Note_on_c, 1, 61, 66
1, 72962, Note_on_c, 0, 83, 47
1, 72966, Note_on_c, 0, 81, 0
1, 73002, Note_on_c, 0, 83, 0
1, 73005, Note_on_c, 0, 81, 47
1, 73039, Note_on_c, 0, 83, 47
1, 73041, Note_on_c, 0, 81, 0
1, 73081, Note_on_c, 0, 83, 0
1, 73081, Note_on_c, 0, 81, 47
1, 73123, Note_on_c, 0, 83, 47
1, 73127, Note_on_c, 0, 81, 0
1, 73162, Note_on_c, 0, 81, 47
1, 73168, Note_on_c, 0, 83, 0
1, 73206, Note_on_c, 0, 83, 47
1, 73209, Note_on_c, 0, 81, 0
1, 73247, Note_on_c, 0, 81, 47
1, 73249, Note_on_c, 0, 83, 0
1, 73257, Note_on_c, 1, 64, 0
1, 73268, Note_on_c, 1, 61, 0
1, 73282, Note_on_c, 0, 83, 47
1, 73285, Note_on_c, 0, 81, 0
1, 73321, Note_on_c, 0, 83, 0
1, 73321, Note_on_c, 0, 81, 47
1, 73355, Note_on_c, 0, 83, 47
1, 73358, Note_on_c, 0, 81, 0
1, 73390, Note_on_c, 0, 83, 0
1, 73391, Note_on_c, 0, 81, 47
1, 73435, Note_on_c, 0, 83, 47
1, 73440, Note_on_c, 1, 66, 55
1, 73440, Note_on_c, 1, 62, 55
1, 73442, Note_on_c, 0, 81, 0
1, 73481, Note_on_c, 0, 81, 47
1, 73483, Note_on_c, 0, 83, 0
1, 73515, Note_on_c, 0, 83, 47
1, 73521, Note_on_c, 0, 81, 0
1, 73557, Note_on_c, 0, 81, 47
1, 73560, Note_on_c, 0, 83, 0
1, 73594, Note_on_c, 0, 83, 47
1, 73598, Note_on_c, 0, 81, 0
1, 73631, Note_on_c, 0, 83, 0
1, 73635, Note_on_c, 0, 81, 47
1, 73673, Note_on_c, 0, 83, 47
1, 73677, Note_on_c, 0, 81, 0
1, 73689, Note_on_c, 1, 66, 0
1, 73701, Note_on_c, 1, 62, 0
1, 73716, Note_on_c, 0, 83, 0
1, 73718, Note_on_c, 0, 81, 47
1, 73759, Note_on_c, 0, 83, 47
1, 73760, Note_on_c, 0, 81, 0
1, 73800, Note_on_c, 0, 81, 47
1, 73801, Note_on_c, 0, 83, 0
1, 73842, Note_on_c, 0, 81, 0
1, 73842, Note_on_c, 0, 83, 47
1, 73880, Note_on_c, 0, 81, 47
1, 73882, Note_on_c, 0, 83, 0
1, 73920, Note_on_c, 1, 67, 62
1, 73920, Note_on_c, 1, 64, 62
1, 73924, Note_on_c, 0, 83, 47
1, 73926, Note_on_c, 0, 81, 0
1, 73961, Note_on_c, 0, 81, 51
1, 73963, Note_on_c, 0, 83, 0
1, 74001, Note_on_c, 0, 83, 51
1, 74005, Note_on_c, 0, 81, 0
1, 74036, Note_on_c, 0, 83, 0
1, 74036, Note_on_c, 0, 81, 51
1, 74072, Note_on_c, 0, 83, 51
1, 74073, Note_on_c, 0, 81, 0
1, 74106, Note_on_c, 0, 83, 0
1, 74108, Note_on_c, 0, 81, 51
1, 74138, Note_on_c, 0, 83, 51
1, 74142, Note_on_c, 0, 81, 0
1, 74170, Note_on_c, 0, 81, 51
1, 74172, Note_on_c, 0, 83, 0
1, 74180, Note_on_c, 1, 64, 0
1, 74190, Note_on_c, 1, 67, 0
1, 74206, Note_on_c, 0, 83, 51
1, 74207, Note_on_c, 0, 81, 0
1, 74240, Note_on_c, 0, 81, 51
1, 74241, Note_on_c, 0, 83, 0
1, 74271, Note_on_c, 0, 83, 51
1, 74273, Note_on_c, 0, 81, 0
1, 74305, Note_on_c, 0, 81, 51
1, 74312, Note_on_c, 0, 83, 0
1, 74344, Note_on_c, 0, 83, 51
1, 74345, Note_on_c, 0, 81, 0
1, 74378, Note_on_c, 0, 81, 51
1, 74385, Note_on_c, 0, 83, 0
1, 74400, Note_on_c, 1, 69, 71
1, 74400, Note_on_c, 1, 66, 71
1, 74416, Note_on_c, 0, 83, 51
1, 74418, Note_on_c, 0, 81, 0
1, 74449, Note_on_c, 0, 81, 51
1, 74456, Note_on_c, 0, 83, 0
1, 74485, Note_on_c, 0, 83, 51
1, 74492, Note_on_c, 0, 81, 0
1, 74524, Note_on_c, 0, 81, 51
1, 74528, Note_on_c, 0, 83, 0
1, 74559, Note_on_c, 0, 83, 51
1, 74566, Note_on_c, 0, 81, 0
1, 74595, Note_on_c, 0, 81, 51
1, 74602, Note_on_c, 0, 83, 0
1, 74628, Note_on_c, 0, 83, 51
1, 74646, Note_on_c, 0, 81, 0
1, 74660, Note_on_c, 1, 66, 0
1, 74663, Note_on_c, 1, 69, 0
1, 74667, Note_on_c, 0, 81, 51
1, 74679, Note_on_c, 0, 83, 0
1, 74702, Note_on_c, 0, 83, 51
1, 74716, Note_on_c, 0, 81, 0
1, 74738, Note_on_c, 0, 81, 51
1, 74754, Note_on_c, 0, 83, 0
1, 74772, Note_on_c, 0, 83, 51
1, 74787, Note_on_c, 0, 81, 0
1, 74805, Note_on_c, 0, 81, 51
1, 74822, Note_on_c, 0, 83, 0
1, 74842, Note_on_c, 0, 83, 51
1, 74855, Note_on_c, 0, 81, 0
1, 74880, Note_on_c, 0, 81, 51
1, 74880, Note_on_c, 1, 64, 73
1, 74880, Note_on_c, 1, 67, 73
1, 74892, Note_on_c, 0, 83, 0
1, 74914, Note_on_c, 0, 83, 51
1, 74929, Note_on_c, 0, 81, 0
1, 74950, Note_on_c, 0, 81, 51
1, 74960, Note_on_c, 0, 83, 0
1, 74984, Note_on_c, 0, 83, 51
1, 75006, Note_on_c, 0, 81, 0
1, 75017, Note_on_c, 0, 81, 51
1, 75033, Note_on_c, 0, 83, 0
1, 75053, Note_on_c, 0, 83, 51
1, 75055, Note_on_c, 0, 81, 0
1, 75086, Note_on_c, 0, 83, 0
1, 75088, Note_on_c, 0, 81, 51
1, 75118, Note_on_c, 0, 81, 0
1, 75123, Note_on_c, 0, 83, 51
1, 75158, Note_on_c, 0, 83, 0
1, 75159, Note_on_c, 0, 81, 51
1, 75187, Note_on_c, 1, 64, 0
1, 75197, Note_on_c, 0, 83, 51
1, 75199, Note_on_c, 0, 81, 0
1, 75202, Note_on_c, 1, 67, 0
1, 75231, Note_on_c, 0, 83, 0
1, 75234, Note_on_c, 0, 81, 51
1, 75270, Note_on_c, 0, 81, 0
1, 75272, Note_on_c, 0, 83, 51
1, 75307, Note_on_c, 0, 81, 51
1, 75309, Note_on_c, 0, 83, 0
1, 75342, Note_on_c, 0, 83, 51
1, 75354, Note_on_c, 0, 83, 0
1, 75360, Note_on_c, 1, 66, 55
1, 75360, Note_on_c, 1, 62, 55
1, 75371, Note_on_c, 0, 81, 0
1, 75375, Note_on_c, 0, 81, 51
1, 75410, Note_on_c, 0, 83, 51
1, 75414, Note_on_c, 0, 81, 0
1, 75446, Note_on_c, 0, 83, 0
1, 75446, Note_on_c, 0, 81, 51
1, 75482, Note_on_c, 0, 83, 51
1, 75485, Note_on_c, 0, 81, 0
1, 75517, Note_on_c, 0, 81, 51
1, 75521, Note_on_c, 0, 83, 0
1, 75552, Note_on_c, 0, 83, 51
1, 75553, Note_on_c, 1, 62, 0
1, 75567, Note_on_c, 0, 81, 0
1, 75568, Note_on_c, 1, 66, 0
1, 75583, Note_on_c, 0, 83, 0
1, 75587, Note_on_c, 0, 81, 51
1, 75618, Note_on_c, 0, 83, 51
1, 75635, Note_on_c, 0, 83, 0
1, 75643, Note_on_c, 0, 81, 51
1, 75677, Note_on_c, 0, 81, 0
1, 75678, Note_on_c, 0, 83, 54
1, 75699, Note_on_c, 0, 81, 54
1, 75700, Note_on_c, 0, 81, 0
1, 75720, Note_on_c, 0, 80, 54
1, 75735, Note_on_c, 0, 83, 0
1, 75756, Note_on_c, 0, 81, 0
1, 75780, Note_on_c, 0, 81, 47
1, 75788, Note_on_c, 0, 80, 0
1, 75840, Note_on_c, 0, 74, 80
1, 75840, Note_on_c, 0, 86, 82
1, 75840, Note_on_c, 1, 66, 67
1, 75840, Note_on_c, 1, 69, 65
1, 75848, Note_on_c, 0, 81, 0
1, 76320, Note_on_c, 0, 74, 0
1, 76320, Note_on_c, 0, 86, 0
1, 76320, Note_on_c, 0, 85, 66
1, 76320, Note_on_c, 0, 73, 63
1, 76320, Note_on_c, 1, 69, 0
1, 76320, Note_on_c, 1, 66, 0
1, 76320, Note_on_c, 1, 64, 57
1, 76320, Note_on_c, 1, 67, 57
1, 76320, Note_on_c, 1, 70, 57
1, 76800, Note_on_c, 0, 73, 0
1, 76800, Note_on_c, 0, 85, 0
1, 76800, Note_on_c, 0, 71, 60
1, 76800, Note_on_c, 0, 83, 60
1, 76800, Note_on_c, 1, 70, 0
1, 76800, Note_on_c, 1, 67, 0
1, 76800, Note_on_c, 1, 64, 0
1, 76800, Note_on_c, 1, 62, 42
1, 76800, Note_on_c, 1, 66, 42
1, 77210, Note_on_c, 0, 83, 0
1, 77210, Note_on_c, 0, 71, 0
1, 77210, Note_on_c, 1, 66, 0
1, 77210, Note_on_c, 1, 62, 0
1, 77520, Note_on_c, 0, 78, 51
1, 77595, Note_on_c, 0, 78, 0
1, 77760, Note_on_c, 0, 83, 53
1, 77760, Note_on_c, 0, 71, 53
1, 77760, Note_on_c, 1, 66, 40
1, 77760, Note_on_c, 1, 62, 40
1, 78240, Note_on_c, 0, 69, 52
1, 78240, Note_on_c, 0, 81, 52
1, 78240, Note_on_c, 1, 62, 0
1, 78240, Note_on_c, 1, 66, 0
1, 78240, Note_on_c, 1, 66, 33
1, 78240, Note_on_c, 1, 62, 33
1, 78240, Note_on_c, 1, 60, 33
1, 78242, Note_on_c, 0, 71, 0
1, 78242, Note_on_c, 0, 83, 0
1, 78720, Note_on_c, 0, 67, 44
1, 78720, Note_on_c, 0, 79, 44
1, 78720, Note_on_c, 1, 60, 0
1, 78720, Note_on_c, 1, 62, 0
1, 78720, Note_on_c, 1, 66, 0
1, 78720, Note_on_c, 1, 62, 28
1, 78720, Note_on_c, 1, 59, 28
1, 78745, Note_on_c, 0, 69, 0
1, 78745, Note_on_c, 0, 81, 0
1, 79214, Note_on_c, 0, 67, 0
1, 79214, Note_on_c, 0, 79, 0
1, 79214, Note_on_c, 1, 59, 0
1, 79214, Note_on_c, 1, 62, 0
1, 79440, Note_on_c, 0, 74, 84
1, 79535, Note_on_c, 0, 74, 0
1, 79680, Note_on_c, 0, 67, 84
1, 79680, Note_on_c, 0, 79, 87
1, 79680, Note_on_c, 1, 62, 62
1, 79680, Note_on_c, 1, 59, 58
1, 80160, Note_on_c, 0, 78, 81
1, 80160, Note_on_c, 0, 66, 78
1, 80160, Note_on_c, 1, 59, 0
1, 80160, Note_on_c, 1, 62, 0
1, 80160, Note_on_c, 1, 63, 42
1, 80160, Note_on_c, 1, 60, 42
1, 80160, Note_on_c, 1, 57, 42
1, 80165, Note_on_c, 0, 79, 0
1, 80165, Note_on_c, 0, 67, 0
1, 80640, Note_on_c, 0, 76, 75
1, 80640, Note_on_c, 1, 57, 0
1, 80640, Note_on_c, 1, 60, 0
1, 80640, Note_on_c, 1, 63, 0
1, 80640, Note_on_c, 1, 55, 35
1, 80640, Note_on_c, 1, 59, 35
1, 80640, Note_on_c, 1, 64, 35
1, 80641, Note_on_c, 0, 78, 0
1, 80641, Note_on_c, 0, 66, 0
1, 80880, Note_on_c, 0, 83, 73
1, 80880, Note_on_c, 1, 64, 0
1, 80880, Note_on_c, 1, 59, 0
1, 80880, Note_on_c, 1, 55, 0
1, 80894, Note_on_c, 0, 76, 0
1, 81120, Note_on_c, 0, 81, 66
1, 81126, Note_on_c, 0, 83, 0
1, 81240, Note_on_c, 0, 79, 51
1, 81259, Note_on_c, 0, 81, 0
1, 81360, Note_on_c, 0, 78, 57
1, 81387, Note_on_c, 0, 79, 0
1, 81480, Note_on_c, 0, 76, 55
1, 81487, Note_on_c, 0, 78, 0
1, 81600, Note_on_c, 0, 74, 46
1, 81600, Note_on_c, 1, 66, 31
1, 81600, Note_on_c, 1, 57, 31
1, 81606, Note_on_c, 0, 76, 0
1, 82080, Note_on_c, 0, 76, 60
1, 82080, Note_on_c, 1, 61, 37
1, 82094, Note_on_c, 0, 74, 0
1, 82119, Note_on_c, 1, 66, 0
1, 82269, Note_on_c, 1, 61, 0
1, 82286, Note_on_c, 1, 57, 0
1, 82320, Note_on_c, 0, 76, 0
1, 82560, Note_on_c, 0, 77, 60
1, 82560, Note_on_c, 1, 61, 51
1, 82560, Note_on_c, 1, 50, 51
1, 83040, Note_on_c, 0, 78, 51
1, 83040, Note_on_c, 1, 62, 30
1, 83040, Note_on_c, 1, 62, 30
1, 83074, Note_on_c, 0, 77, 0
1, 83078, Note_on_c, 1, 61, 0
1, 83233, Note_on_c, 0, 78, 0
1, 83262, Note_on_c, 1, 62, 0
1, 83262, Note_on_c, 1, 62, 0
1, 83283, Note_on_c, 1, 50, 0
1, 83520, Note_on_c, 0, 86, 92
1, 83520, Note_on_c, 1, 66, 71
1, 83520, Note_on_c, 1, 69, 71
1, 84000, Note_on_c, 0, 85, 88
1, 84000, Note_on_c, 1, 69, 0
1, 84000, Note_on_c, 1, 66, 0
1, 84000, Note_on_c, 1, 64, 51
1, 84000, Note_on_c, 1, 70, 51
1, 84000, Note_on_c, 1, 67, 51
1, 84009, Note_on_c, 0, 86, 0
1, 84062, Note_on_c, 0, 86, 73
1, 84079, Note_on_c, 0, 85, 0
1, 84120, Note_on_c, 0, 85, 85
1, 84136, Note_on_c, 0, 86, 0
1, 84178, Note_on_c, 0, 86, 83
1, 84185, Note_on_c, 0, 85, 0
1, 84229, Note_on_c, 0, 86, 0
1, 84240, Note_on_c, 0, 85, 87
1, 84271, Note_on_c, 0, 86, 81
1, 84280, Note_on_c, 0, 85, 0
1, 84304, Note_on_c, 0, 85, 84
1, 84323, Note_on_c, 0, 86, 0
1, 84360, Note_on_c, 0, 83, 72
1, 84363, Note_on_c, 0, 85, 0
1, 84411, Note_on_c, 0, 83, 0
1, 84419, Note_on_c, 0, 85, 81
1, 84470, Note_on_c, 0, 85, 0
1, 84480, Note_on_c, 0, 83, 77
1, 84480, Note_on_c, 1, 67, 0
1, 84480, Note_on_c, 1, 70, 0
1, 84480, Note_on_c, 1, 64, 0
1, 84480, Note_on_c, 1, 71, 36
1, 84480, Note_on_c, 1, 62, 36
1, 84480, Note_on_c, 1, 66, 36
1, 84700, Note_on_c, 0, 83, 0
1, 84773, Note_on_c, 1, 66, 0
1, 84773, Note_on_c, 1, 62, 0
1, 84773, Note_on_c, 1, 71, 0
1, 85200, Note_on_c, 0, 78, 74
1, 85280, Note_on_c, 0, 78, 0
1, 85440, Note_on_c, 0, 83, 84
1, 85440, Note_on_c, 1, 66, 58
1, 85440, Note_on_c, 1, 62, 58
1, 85901, Note_on_c, 0, 83, 0
1, 85920, Note_on_c, 0, 81, 47
1, 85920, Note_on_c, 1, 62, 0
1, 85920, Note_on_c, 1, 66, 0
1, 85920, Note_on_c, 1, 66, 38
1, 85920, Note_on_c, 1, 62, 38
1, 85920, Note_on_c, 1, 60, 38
1, 85986, Note_on_c, 0, 83, 58
1, 85996, Note_on_c, 0, 81, 0
1, 86040, Note_on_c, 0, 81, 54
1, 86059, Note_on_c, 0, 83, 0
1, 86097, Note_on_c, 0, 81, 0
1, 86108, Note_on_c, 0, 83, 56
1, 86168, Note_on_c, 0, 83, 0
1, 86169, Note_on_c, 0, 81, 57
1, 86199, Note_on_c, 0, 81, 0
1, 86206, Note_on_c, 0, 83, 45
1, 86233, Note_on_c, 0, 81, 62
1, 86247, Note_on_c, 0, 83, 0
1, 86280, Note_on_c, 0, 79, 65
1, 86282, Note_on_c, 0, 81, 0
1, 86343, Note_on_c, 0, 81, 57
1, 86359, Note_on_c, 0, 79, 0
1, 86400, Note_on_c, 0, 79, 54
1, 86400, Note_on_c, 1, 60, 0
1, 86400, Note_on_c, 1, 62, 0
1, 86400, Note_on_c, 1, 66, 0
1, 86400, Note_on_c, 1, 67, 28
1, 86400, Note_on_c, 1, 59, 28
1, 86400, Note_on_c, 1, 62, 28
1, 86422, Note_on_c, 0, 81, 0
1, 86880, Note_on_c, 0, 79, 0
1, 86880, Note_on_c, 1, 62, 0
1, 86880, Note_on_c, 1, 59, 0
1, 86880, Note_on_c, 1, 67, 0
1, 87120, Note_on_c, 0, 74, 90
1, 87312, Note_on_c, 0, 74, 0
1, 87360, Note_on_c, 0, 79, 90
1, 87360, Note_on_c, 1, 62, 64
1, 87360, Note_on_c, 1, 59, 64
1, 87840, Note_on_c, 0, 78, 83
1, 87840, Note_on_c, 1, 59, 0
1, 87840, Note_on_c, 1, 62, 0
1, 87840, Note_on_c, 1, 63, 43
1, 87840, Note_on_c, 1, 60, 43
1, 87840, Note_on_c, 1, 57, 43
1, 87856, Note_on_c, 0, 79, 0
1, 88320, Note_on_c, 0, 76, 81
1, 88320, Note_on_c, 1, 57, 0
1, 88320, Note_on_c, 1, 60, 0
1, 88320, Note_on_c, 1, 63, 0
1, 88320, Note_on_c, 1, 59, 31
1, 88320, Note_on_c, 1, 64, 31
1, 88320, Note_on_c, 1, 55, 31
1, 88329, Note_on_c, 0, 78, 0
1, 88557, Note_on_c, 0, 76, 0
1, 88560, Note_on_c, 0, 83, 92
1, 88734, Note_on_c, 1, 59, 0
1, 88736, Note_on_c, 1, 64, 0
1, 88736, Note_on_c, 1, 55, 0
1, 88800, Note_on_c, 0, 81, 83
1, 88838, Note_on_c, 0, 83, 0
1, 88920, Note_on_c, 0, 79, 83
1, 88930, Note_on_c, 0, 81, 0
1, 89040, Note_on_c, 0, 78, 90
1, 89045, Note_on_c, 0, 79, 0
1, 89160, Note_on_c, 0, 76, 77
1, 89167, Note_on_c, 0, 78, 0
1, 89216, Note_on_c, 0, 76, 0
1, 89280, Note_on_c, 0, 74, 40
1, 89280, Note_on_c, 1, 66, 19
1, 89280, Note_on_c, 1, 62, 19
1, 89280, Note_on_c, 1, 57, 19
1, 89493, Note_on_c, 0, 74, 0
1, 89520, Note_on_c, 0, 78, 55
1, 89588, Note_on_c, 1, 62, 0
1, 89590, Note_on_c, 1, 57, 0
1, 89594, Note_on_c, 1, 66, 0
1, 89641, Note_on_c, 0, 78, 0
1, 89760, Note_on_c, 0, 81, 63
1, 90240, Note_on_c, 1, 57, 24
1, 90240, Note_on_c, 1, 66, 24
1, 90240, Note_on_c, 1, 62, 24
1, 90480, Note_on_c, 0, 80, 57
1, 90484, Note_on_c, 0, 81, 0
1, 90533, Note_on_c, 1, 57, 0
1, 90537, Note_on_c, 1, 66, 0
1, 90537, Note_on_c, 1, 62, 0
1, 90610, Note_on_c, 0, 80, 0
1, 90720, Note_on_c, 0, 79, 61
1, 90799, Note_on_c, 0, 79, 0
1, 90960, Note_on_c, 0, 78, 59
1, 91044, Note_on_c, 0, 78, 0
1, 91200, Note_on_c, 0, 83, 58
1, 91200, Note_on_c, 1, 57, 31
1, 91200, Note_on_c, 1, 62, 31
1, 91200, Note_on_c, 1, 64, 31
1, 91290, Note_on_c, 0, 79, 58
1, 91296, Note_on_c, 0, 83, 0
1, 91380, Note_on_c, 0, 79, 0
1, 91380, Note_on_c, 0, 76, 47
1, 91414, Note_on_c, 0, 76, 0
1, 91440, Note_on_c, 0, 76, 43
1, 91485, Note_on_c, 0, 78, 43
1, 91500, Note_on_c, 0, 76, 0
1, 91530, Note_on_c, 0, 76, 43
1, 91545, Note_on_c, 0, 78, 0
1, 91575, Note_on_c, 0, 78, 47
1, 91590, Note_on_c, 0, 76, 0
1, 91615, Note_on_c, 0, 76, 47
1, 91635, Note_on_c, 0, 78, 0
1, 91660, Note_on_c, 0, 78, 47
1, 91675, Note_on_c, 0, 76, 0
1, 91680, Note_on_c, 1, 64, 0
1, 91680, Note_on_c, 1, 62, 0
1, 91680, Note_on_c, 1, 57, 0
1, 91705, Note_on_c, 0, 76, 47
1, 91720, Note_on_c, 0, 78, 0
1, 91750, Note_on_c, 0, 78, 51
1, 91765, Note_on_c, 0, 76, 0
1, 91795, Note_on_c, 0, 76, 51
1, 91810, Note_on_c, 0, 78, 0
1, 91840, Note_on_c, 0, 78, 51
1, 91855, Note_on_c, 0, 76, 0
1, 91885, Note_on_c, 0, 76, 51
1, 91900, Note_on_c, 0, 78, 0
1, 91930, Note_on_c, 0, 78, 54
1, 91945, Note_on_c, 0, 76, 0
1, 91975, Note_on_c, 0, 76, 54
1, 91990, Note_on_c, 0, 78, 0
1, 92010, Note_on_c, 0, 78, 54
1, 92035, Note_on_c, 0, 76, 0
1, 92055, Note_on_c, 0, 76, 54
1, 92070, Note_on_c, 0, 78, 0
1, 92100, Note_on_c, 0, 78, 58
1, 92115, Note_on_c, 0, 76, 0
1, 92144, Note_on_c, 0, 76, 58
1, 92160, Note_on_c, 0, 78, 0
1, 92160, Note_on_c, 1, 61, 39
1, 92160, Note_on_c, 1, 57, 39
1, 92160, Note_on_c, 1, 67, 39
1, 92197, Note_on_c, 0, 78, 62
1, 92204, Note_on_c, 0, 76, 0
1, 92241, Note_on_c, 0, 76, 62
1, 92242, Note_on_c, 0, 78, 0
1, 92280, Note_on_c, 0, 78, 66
1, 92292, Note_on_c, 0, 76, 0
1, 92326, Note_on_c, 0, 78, 0
1, 92329, Note_on_c, 0, 76, 66
1, 92360, Note_on_c, 0, 78, 66
1, 92362, Note_on_c, 0, 76, 0
1, 92400, Note_on_c, 0, 76, 66
1, 92406, Note_on_c, 0, 78, 0
1, 92440, Note_on_c, 0, 76, 0
1, 92440, Note_on_c, 0, 78, 62
1, 92483, Note_on_c, 0, 76, 62
1, 92484, Note_on_c, 0, 78, 0
1, 92520, Note_on_c, 0, 76, 0
1, 92520, Note_on_c, 0, 78, 62
1, 92558, Note_on_c, 0, 76, 58
1, 92562, Note_on_c, 0, 78, 0
1, 92592, Note_on_c, 0, 78, 58
1, 92596, Note_on_c, 0, 76, 0
1, 92636, Note_on_c, 0, 78, 0
1, 92640, Note_on_c, 0, 76, 58
1, 92675, Note_on_c, 0, 78, 54
1, 92681, Note_on_c, 0, 76, 0
1, 92716, Note_on_c, 0, 76, 54
1, 92718, Note_on_c, 0, 78, 0
1, 92760, Note_on_c, 0, 78, 54
1, 92765, Note_on_c, 0, 76, 0
1, 92796, Note_on_c, 0, 76, 54
1, 92807, Note_on_c, 0, 78, 0
1, 92831, Note_on_c, 0, 78, 51
1, 92837, Note_on_c, 0, 76, 0
1, 92880, Note_on_c, 0, 76, 51
1, 92915, Note_on_c, 0, 78, 0
1, 92918, Note_on_c, 0, 76, 0
1, 92923, Note_on_c, 0, 78, 47
1, 92960, Note_on_c, 0, 76, 47
1, 92961, Note_on_c, 0, 78, 0
1, 92996, Note_on_c, 0, 76, 0
1, 93000, Note_on_c, 0, 74, 47
1, 93000, Note_on_c, 1, 67, 0
1, 93000, Note_on_c, 1, 57, 0
1, 93000, Note_on_c, 1, 61, 0
1, 93063, Note_on_c, 0, 74, 0
1, 93066, Note_on_c, 0, 76, 43
1, 93120, Note_on_c, 0, 74, 43
1, 93120, Note_on_c, 1, 62, 26
1, 93120, Note_on_c, 1, 66, 26
1, 93133, Note_on_c, 0, 76, 0
1, 93358, Note_on_c, 0, 74, 0
1, 93360, Note_on_c, 0, 73, 62
1, 93600, Note_on_c, 0, 74, 57
1, 93629, Note_on_c, 0, 73, 0
1, 93840, Note_on_c, 0, 76, 54
1, 93870, Note_on_c, 0, 74, 0
1, 94019, Note_on_c, 1, 62, 0
1, 94023, Note_on_c, 1, 66, 0
1, 94080, Note_on_c, 0, 74, 58
1, 94092, Note_on_c, 0, 76, 0
1, 94320, Note_on_c, 0, 72, 51
1, 94348, Note_on_c, 0, 74, 0
1, 94560, Note_on_c, 0, 71, 41
1, 94569, Note_on_c, 0, 72, 0
1, 94800, Note_on_c, 0, 70, 37
1, 94844, Note_on_c, 0, 71, 0
1, 94970, Note_on_c, 0, 70, 0
1, 95040, Note_on_c, 0, 71, 56
1, 95040, Note_on_c, 1, 55, 28
1, 95040, Note_on_c, 1, 62, 28
1, 95394, Note_on_c, 0, 71, 0
1, 95400, Note_on_c, 0, 74, 65
1, 95488, Note_on_c, 1, 55, 0
1, 95520, Note_on_c, 0, 72, 45
1, 95520, Note_on_c, 1, 57, 31
1, 95535, Note_on_c, 0, 74, 0
1, 95880, Note_on_c, 0, 71, 68
1, 95880, Note_on_c, 1, 55, 23
1, 95893, Note_on_c, 0, 72, 0
1, 95898, Note_on_c, 1, 57, 0
1, 96000, Note_on_c, 0, 69, 66
1, 96000, Note_on_c, 1, 54, 22
1, 96013, Note_on_c, 1, 55, 0
1, 96022, Note_on_c, 0, 71, 0
1, 96480, Note_on_c, 0, 69, 0
1, 96480, Note_on_c, 0, 71, 68
1, 96480, Note_on_c, 1, 55, 27
1, 96495, Note_on_c, 1, 54, 0
1, 96794, Note_on_c, 1, 55, 0
1, 96834, Note_on_c, 1, 62, 0
1, 96960, Note_on_c, 0, 71, 0
1, 96960, Note_on_c, 0, 72, 66
1, 96960, Note_on_c, 1, 62, 31
1, 96960, Note_on_c, 1, 57, 31
1, 97200, Note_on_c, 0, 74, 59
1, 97210, Note_on_c, 0, 72, 0
1, 97256, Note_on_c, 0, 72, 55
1, 97279, Note_on_c, 0, 74, 0
1, 97301, Note_on_c, 1, 57, 0
1, 97322, Note_on_c, 0, 71, 53
1, 97335, Note_on_c, 0, 72, 0
1, 97379, Note_on_c, 0, 72, 58
1, 97393, Note_on_c, 0, 71, 0
1, 97440, Note_on_c, 1, 60, 37
1, 97451, Note_on_c, 0, 76, 65
1, 97463, Note_on_c, 0, 72, 0
1, 97669, Note_on_c, 0, 74, 61
1, 97680, Note_on_c, 1, 59, 37
1, 97690, Note_on_c, 0, 76, 0
1, 97691, Note_on_c, 1, 60, 0
1, 97913, Note_on_c, 1, 59, 0
1, 97920, Note_on_c, 0, 72, 43
1, 97920, Note_on_c, 1, 57, 27
1, 97921, Note_on_c, 0, 74, 0
1, 98393, Note_on_c, 1, 57, 0
1, 98400, Note_on_c, 0, 71, 28
1, 98400, Note_on_c, 1, 55, 19
1, 98471, Note_on_c, 0, 72, 0
1, 98672, Note_on_c, 1, 62, 0
1, 98689, Note_on_c, 1, 55, 0
1, 98739, Note_on_c, 0, 71, 0
1, 98880, Note_on_c, 0, 72, 100
1, 98880, Note_on_c, 0, 67, 93
1, 98880, Note_on_c, 1, 64, 65
1, 98880, Note_on_c, 1, 52, 65
1, 99023, Note_on_c, 0, 67, 0
1, 99023, Note_on_c, 0, 72, 0
1, 99023, Note_on_c, 1, 52, 0
1, 99023, Note_on_c, 1, 64, 0
1, 99360, Note_on_c, 0, 71, 100
1, 99360, Note_on_c, 0, 67, 88
1, 99360, Note_on_c, 1, 50, 60
1, 99360, Note_on_c, 1, 62, 60
1, 99489, Note_on_c, 0, 67, 0
1, 99489, Note_on_c, 0, 71, 0
1, 99489, Note_on_c, 1, 62, 0
1, 99489, Note_on_c, 1, 50, 0
1, 99850, Note_on_c, 0, 67, 101
1, 99850, Note_on_c, 0, 76, 108
1, 99850, Note_on_c, 1, 48, 60
1, 99850, Note_on_c, 1, 60, 60
1, 100388, Note_on_c, 0, 76, 0
1, 100388, Note_on_c, 0, 67, 0
1, 100388, Note_on_c, 1, 60, 0
1, 100388, Note_on_c, 1, 48, 0
1, 100560, Note_on_c, 0, 74, 52
1, 100560, Note_on_c, 0, 67, 42
1, 100560, Note_on_c, 1, 59, 39
1, 100660, Note_on_c, 0, 67, 0
1, 100660, Note_on_c, 0, 74, 0
1, 100660, Note_on_c, 1, 59, 0
1, 100800, Note_on_c, 0, 72, 55
1, 100800, Note_on_c, 1, 54, 30
1, 101040, Note_on_c, 0, 69, 37
1, 101091, Note_on_c, 0, 72, 0
1, 101152, Note_on_c, 0, 69, 0
1, 101274, Note_on_c, 1, 54, 0
1, 101280, Note_on_c, 0, 71, 53
1, 101280, Note_on_c, 1, 55, 27
1, 101520, Note_on_c, 0, 67, 37
1, 101547, Note_on_c, 0, 71, 0
1, 101605, Note_on_c, 0, 67, 0
1, 101615, Note_on_c, 1, 55, 0
1, 101760, Note_on_c, 0, 71, 55
1, 101760, Note_on_c, 1, 55, 34
1, 101760, Note_on_c, 1, 50, 34
1, 102240, Note_on_c, 0, 69, 26
1, 102240, Note_on_c, 1, 54, 17
1, 102246, Note_on_c, 1, 55, 0
1, 102258, Note_on_c, 0, 71, 0
1, 102425, Note_on_c, 1, 50, 0
1, 102535, Note_on_c, 0, 69, 0
1, 102535, Note_on_c, 1, 54, 0
1, 102720, Note_on_c, 0, 71, 51
1, 102720, Note_on_c, 1, 55, 33
1, 102720, Note_on_c, 1, 62, 33
1, 102960, Note_on_c, 0, 71, 0
1, 102960, Note_on_c, 0, 72, 52
1, 103014, Note_on_c, 0, 71, 48
1, 103044, Note_on_c, 0, 72, 0
1, 103077, Note_on_c, 0, 71, 0
1, 103080, Note_on_c, 0, 69, 54
1, 103138, Note_on_c, 0, 71, 50
1, 103166, Note_on_c, 0, 69, 0
1, 103200, Note_on_c, 0, 72, 55
1, 103200, Note_on_c, 1, 57, 42
1, 103215, Note_on_c, 1, 55, 0
1, 103224, Note_on_c, 0, 71, 0
1, 103550, Note_on_c, 1, 57, 0
1, 103560, Note_on_c, 0, 71, 52
1, 103560, Note_on_c, 1, 55, 33
1, 103578, Note_on_c, 0, 72, 0
1, 103664, Note_on_c, 0, 71, 0
1, 103665, Note_on_c, 1, 55, 0
1, 103680, Note_on_c, 0, 69, 66
1, 103680, Note_on_c, 1, 54, 30
1, 104160, Note_on_c, 0, 71, 62
1, 104160, Note_on_c, 1, 56, 31
1, 104173, Note_on_c, 1, 54, 0
1, 104204, Note_on_c, 0, 69, 0
1, 104538, Note_on_c, 1, 56, 0
1, 104565, Note_on_c, 1, 62, 0
1, 104638, Note_on_c, 0, 71, 0
1, 104640, Note_on_c, 0, 72, 70
1, 104640, Note_on_c, 1, 62, 30
1, 104640, Note_on_c, 1, 57, 30
1, 104880, Note_on_c, 0, 73, 74
1, 104901, Note_on_c, 0, 72, 0
1, 105120, Note_on_c, 0, 76, 72
1, 105120, Note_on_c, 1, 54, 30
1, 105138, Note_on_c, 0, 73, 0
1, 105143, Note_on_c, 1, 57, 0
1, 105360, Note_on_c, 0, 74, 57
1, 105388, Note_on_c, 0, 76, 0
1, 105582, Note_on_c, 1, 54, 0
1, 105600, Note_on_c, 0, 72, 47
1, 105600, Note_on_c, 1, 55, 24
1, 105610, Note_on_c, 0, 74, 0
1, 105840, Note_on_c, 0, 74, 48
1, 105855, Note_on_c, 0, 72, 0
1, 105954, Note_on_c, 0, 74, 0
1, 105960, Note_on_c, 0, 72, 33
1, 106080, Note_on_c, 0, 71, 19
1, 106118, Note_on_c, 0, 72, 0
1, 106235, Note_on_c, 0, 71, 0
1, 106262, Note_on_c, 1, 62, 0
1, 106271, Note_on_c, 1, 55, 0
1, 106560, Note_on_c, 0, 72, 105
1, 106560, Note_on_c, 0, 67, 90
1, 106560, Note_on_c, 1, 64, 70
1, 106560, Note_on_c, 1, 52, 70
1, 106694, Note_on_c, 0, 67, 0
1, 106694, Note_on_c, 0, 72, 0
1, 106694, Note_on_c, 1, 52, 0
1, 106694, Note_on_c, 1, 64, 0
1, 107040, Note_on_c, 0, 71, 105
1, 107040, Note_on_c, 0, 67, 90
1, 107040, Note_on_c, 1, 50, 62
1, 107040, Note_on_c, 1, 62, 62
1, 107180, Note_on_c, 0, 67, 0
1, 107180, Note_on_c, 0, 71, 0
1, 107180, Note_on_c, 1, 62, 0
1, 107180, Note_on_c, 1, 50, 0
1, 107520, Note_on_c, 0, 67, 88
1, 107520, Note_on_c, 0, 76, 102
1, 107520, Note_on_c, 1, 60, 50
1, 107520, Note_on_c, 1, 48, 50
1, 107760, Note_on_c, 0, 78, 103
1, 107783, Note_on_c, 0, 76, 0
1, 107817, Note_on_c, 1, 60, 0
1, 107819, Note_on_c, 1, 48, 0
1, 107872, Note_on_c, 0, 67, 0
1, 108000, Note_on_c, 0, 79, 90
1, 108006, Note_on_c, 0, 78, 0
1, 108119, Note_on_c, 0, 79, 0
1, 108240, Note_on_c, 0, 72, 64
1, 108240, Note_on_c, 1, 52, 31
1, 108240, Note_on_c, 1, 55, 31
1, 108294, Note_on_c, 1, 52, 0
1, 108299, Note_on_c, 1, 55, 0
1, 108430, Note_on_c, 0, 72, 0
1, 108480, Note_on_c, 0, 71, 55
1, 108480, Note_on_c, 1, 55, 31
1, 108480, Note_on_c, 1, 50, 31
1, 108917, Note_on_c, 0, 71, 0
1, 108948, Note_on_c, 1, 55, 0
1, 108960, Note_on_c, 0, 71, 49
1, 108960, Note_on_c, 1, 54, 35
1, 109025, Note_on_c, 0, 69, 50
1, 109031, Note_on_c, 0, 71, 0
1, 109075, Note_on_c, 0, 69, 0
1, 109080, Note_on_c, 0, 71, 57
1, 109135, Note_on_c, 0, 71, 0
1, 109137, Note_on_c, 0, 69, 51
1, 109177, Note_on_c, 1, 50, 0
1, 109200, Note_on_c, 0, 69, 0
1, 109200, Note_on_c, 0, 71, 66
1, 109202, Note_on_c, 1, 54, 0
1, 109250, Note_on_c, 0, 69, 63
1, 109273, Note_on_c, 0, 71, 0
1, 109311, Note_on_c, 0, 69, 0
1, 109320, Note_on_c, 0, 67, 51
1, 109375, Note_on_c, 0, 69, 50
1, 109387, Note_on_c, 0, 67, 0
1, 109440, Note_on_c, 0, 67, 52
1, 109440, Note_on_c, 1, 55, 30
1, 109462, Note_on_c, 0, 69, 0
1, 109680, Note_on_c, 1, 59, 46
1, 109920, Note_on_c, 1, 62, 56
1, 109963, Note_on_c, 1, 59, 0
1, 110160, Note_on_c, 1, 59, 41
1, 110184, Note_on_c, 1, 62, 0
1, 110202, Note_on_c, 1, 55, 0
1, 110235, Note_on_c, 1, 59, 0
1, 110263, Note_on_c, 0, 67, 0
1, 110400, Note_on_c, 0, 71, 70
1, 110400, Note_on_c, 1, 48, 42
1, 110640, Note_on_c, 1, 52, 36
1, 110880, Note_on_c, 0, 69, 66
1, 110880, Note_on_c, 1, 57, 37
1, 110911, Note_on_c, 0, 71, 0
1, 110937, Note_on_c, 1, 52, 0
1, 111120, Note_on_c, 1, 52, 32
1, 111125, Note_on_c, 1, 48, 0
1, 111139, Note_on_c, 1, 57, 0
1, 111215, Note_on_c, 1, 52, 0
1, 111330, Note_on_c, 0, 69, 0
1, 111360, Note_on_c, 0, 67, 65
1, 111360, Note_on_c, 1, 50, 40
1, 111600, Note_on_c, 0, 66, 54
1, 111600, Note_on_c, 1, 60, 42
1, 111606, Note_on_c, 0, 67, 0
1, 111840, Note_on_c, 0, 64, 47
1, 111840, Note_on_c, 1, 57, 33
1, 111845, Note_on_c, 1, 60, 0
1, 111863, Note_on_c, 0, 66, 0
1, 112080, Note_on_c, 0, 64, 0
1, 112080, Note_on_c, 0, 62, 42
1, 112080, Note_on_c, 1, 60, 40
1, 112098, Note_on_c, 1, 50, 0
1, 112106, Note_on_c, 1, 57, 0
1, 112219, Note_on_c, 1, 60, 0
1, 112320, Note_on_c, 0, 71, 69
1, 112320, Note_on_c, 1, 55, 46
1, 112339, Note_on_c, 0, 62, 0
1, 112560, Note_on_c, 1, 59, 36
1, 112800, Note_on_c, 1, 62, 40
1, 112832, Note_on_c, 1, 59, 0
1, 112979, Note_on_c, 1, 55, 0
1, 113040, Note_on_c, 1, 59, 37
1, 113067, Note_on_c, 1, 62, 0
1, 113141, Note_on_c, 1, 59, 0
1, 113280, Note_on_c, 0, 67, 52
1, 113280, Note_on_c, 1, 52, 33
1, 113316, Note_on_c, 0, 71, 0
1, 113520, Note_on_c, 1, 55, 30
1, 113760, Note_on_c, 1, 59, 37
1, 113823, Note_on_c, 1, 55, 0
1, 113920, Note_on_c, 0, 67, 0
1, 113980, Note_on_c, 1, 52, 0
1, 114000, Note_on_c, 0, 67, 62
1, 114000, Note_on_c, 1, 55, 35
1, 114006, Note_on_c, 1, 59, 0
1, 114044, Note_on_c, 0, 67, 0
1, 114045, Note_on_c, 0, 69, 60
1, 114052, Note_on_c, 1, 55, 0
1, 114080, Note_on_c, 0, 67, 59
1, 114089, Note_on_c, 0, 69, 0
1, 114120, Note_on_c, 0, 66, 59
1, 114124, Note_on_c, 0, 67, 0
1, 114180, Note_on_c, 0, 66, 0
1, 114188, Note_on_c, 0, 67, 59
1, 114240, Note_on_c, 0, 71, 62
1, 114240, Note_on_c, 1, 48, 37
1, 114253, Note_on_c, 0, 67, 0
1, 114480, Note_on_c, 0, 69, 65
1, 114480, Note_on_c, 1, 52, 33
1, 114484, Note_on_c, 0, 71, 0
1, 114600, Note_on_c, 0, 69, 0
1, 114720, Note_on_c, 0, 69, 79
1, 114720, Note_on_c, 1, 57, 39
1, 114812, Note_on_c, 1, 52, 0
1, 114957, Note_on_c, 1, 57, 0
1, 114960, Note_on_c, 1, 52, 33
1, 114994, Note_on_c, 1, 48, 0
1, 115050, Note_on_c, 1, 52, 0
1, 115200, Note_on_c, 0, 67, 58
1, 115200, Note_on_c, 1, 50, 31
1, 115231, Note_on_c, 0, 69, 0
1, 115439, Note_on_c, 0, 67, 0
1, 115440, Note_on_c, 0, 66, 51
1, 115440, Note_on_c, 1, 60, 31
1, 115680, Note_on_c, 0, 64, 59
1, 115680, Note_on_c, 1, 57, 35
1, 115682, Note_on_c, 1, 60, 0
1, 115706, Note_on_c, 0, 66, 0
1, 115912, Note_on_c, 1, 57, 0
1, 115920, Note_on_c, 0, 62, 57
1, 115920, Note_on_c, 1, 60, 39
1, 115921, Note_on_c, 1, 50, 0
1, 115943, Note_on_c, 0, 64, 0
1, 116024, Note_on_c, 1, 60, 0
1, 116160, Note_on_c, 0, 67, 77
1, 116160, Note_on_c, 1, 59, 30
1, 116160, Note_on_c, 1, 55, 30
1, 116170, Note_on_c, 0, 62, 0
1, 116598, Note_on_c, 1, 55, 0
1, 116618, Note_on_c, 1, 59, 0
1, 116662, Note_on_c, 0, 67, 0
1, 117120, Note_on_c, 0, 73, 81
1, 117120, Note_on_c, 0, 79, 107
1, 117120, Note_on_c, 0, 67, 93
1, 117120, Note_on_c, 1, 63, 55
1, 117120, Note_on_c, 1, 51, 55
1, 117290, Note_on_c, 0, 67, 0
1, 117290, Note_on_c, 0, 79, 0
1, 117290, Note_on_c, 0, 73, 0
1, 117290, Note_on_c, 1, 51, 0
1, 117290, Note_on_c, 1, 63, 0
1, 117600, Note_on_c, 0, 79, 89
1, 117600, Note_on_c, 0, 73, 73
1, 117600, Note_on_c, 0, 67, 73
1, 117600, Note_on_c, 1, 51, 44
1, 117600, Note_on_c, 1, 63, 44
1, 117720, Note_on_c, 0, 67, 0
1, 117720, Note_on_c, 0, 73, 0
1, 117720, Note_on_c, 0, 79, 0
1, 117720, Note_on_c, 1, 63, 0
1, 117720, Note_on_c, 1, 51, 0
1, 118080, Note_on_c, 0, 79, 51
1, 118080, Note_on_c, 0, 73, 45
1, 118080, Note_on_c, 0, 67, 45
1, 118080, Note_on_c, 1, 51, 30
1, 118080, Note_on_c, 1, 63, 30
1, 118560, Note_on_c, 0, 67, 0
1, 118560, Note_on_c, 0, 73, 0
1, 118560, Note_on_c, 0, 79, 0
1, 118560, Note_on_c, 1, 63, 0
1, 118560, Note_on_c, 1, 51, 0
1, 119040, Note_on_c, 0, 78, 45
1, 119040, Note_on_c, 0, 86, 53
1, 119040, Note_on_c, 1, 50, 39
1, 119040, Note_on_c, 1, 57, 39
1, 119114, Note_on_c, 0, 86, 0
1, 119114, Note_on_c, 0, 78, 0
1, 119114, Note_on_c, 1, 57, 0
1, 119114, Note_on_c, 1, 50, 0
1, 119520, Note_on_c, 0, 86, 41
1, 119520, Note_on_c, 0, 78, 35
1, 119520, Note_on_c, 1, 50, 18
1, 119520, Note_on_c, 1, 57, 18
1, 119600, Note_on_c, 0, 78, 0
1, 119600, Note_on_c, 0, 86, 0
1, 119600, Note_on_c, 1, 57, 0
1, 119600, Note_on_c, 1, 50, 0
1, 120000, Note_on_c, 0, 86, 36
1, 120000, Note_on_c, 0, 78, 32
1, 120000, Note_on_c, 1, 50, 10
1, 120000, Note_on_c, 1, 57, 10
1, 120960, Note_on_c, 0, 78, 0
1, 120960, Note_on_c, 0, 86, 0
1, 120960, Note_on_c, 1, 57, 0
1, 120960, Note_on_c, 1, 50, 0
1, 121650, Note_on_c, 0, 71, 66
1, 121678, Note_on_c, 0, 71, 0
1, 121680, Note_on_c, 0, 72, 60
1, 121708, Note_on_c, 0, 72, 0
1, 121710, Note_on_c, 0, 71, 60
1, 121738, Note_on_c, 0, 71, 0
1, 121740, Note_on_c, 0, 72, 60
1, 121768, Note_on_c, 0, 72, 0
1, 121770, Note_on_c, 0, 71, 60
1, 121798, Note_on_c, 0, 71, 0
1, 121800, Note_on_c, 0, 69, 68
1, 121828, Note_on_c, 0, 69, 0
1, 121830, Note_on_c, 0, 71, 69
1, 121858, Note_on_c, 0, 71, 0
1, 121860, Note_on_c, 0, 72, 73
1, 121920, Note_on_c, 0, 72, 0
1, 121920, Note_on_c, 0, 74, 77
1, 121920, Note_on_c, 1, 55, 33
1, 122160, Note_on_c, 1, 59, 39
1, 122336, Note_on_c, 0, 74, 0
1, 122385, Note_on_c, 1, 59, 0
1, 122400, Note_on_c, 0, 74, 67
1, 122400, Note_on_c, 1, 62, 35
1, 122405, Note_on_c, 1, 55, 0
1, 122640, Note_on_c, 1, 59, 37
1, 122815, Note_on_c, 1, 59, 0
1, 122880, Note_on_c, 1, 55, 35
1, 122884, Note_on_c, 1, 62, 0
1, 123067, Note_on_c, 0, 74, 0
1, 123120, Note_on_c, 0, 74, 76
1, 123120, Note_on_c, 1, 59, 43
1, 123243, Note_on_c, 0, 74, 0
1, 123360, Note_on_c, 0, 74, 66
1, 123360, Note_on_c, 1, 62, 49
1, 123400, Note_on_c, 1, 59, 0
1, 123469, Note_on_c, 0, 76, 64
1, 123485, Note_on_c, 0, 74, 0
1, 123513, Note_on_c, 0, 74, 64
1, 123529, Note_on_c, 0, 76, 0
1, 123549, Note_on_c, 0, 73, 64
1, 123558, Note_on_c, 0, 74, 0
1, 123600, Note_on_c, 0, 74, 64
1, 123600, Note_on_c, 1, 59, 42
1, 123614, Note_on_c, 0, 73, 0
1, 123627, Note_on_c, 1, 62, 0
1, 123637, Note_on_c, 1, 55, 0
1, 123720, Note_on_c, 0, 76, 66
1, 123734, Note_on_c, 1, 59, 0
1, 123738, Note_on_c, 0, 74, 0
1, 123840, Note_on_c, 0, 74, 75
1, 123840, Note_on_c, 1, 55, 37
1, 123857, Note_on_c, 0, 76, 0
1, 124080, Note_on_c, 0, 72, 58
1, 124080, Note_on_c, 1, 57, 31
1, 124110, Note_on_c, 0, 74, 0
1, 124187, Note_on_c, 0, 72, 0
1, 124320, Note_on_c, 0, 72, 69
1, 124320, Note_on_c, 1, 64, 42
1, 124357, Note_on_c, 1, 57, 0
1, 124370, Note_on_c, 1, 55, 0
1, 124560, Note_on_c, 1, 57, 37
1, 124800, Note_on_c, 1, 55, 30
1, 124820, Note_on_c, 1, 57, 0
1, 124967, Note_on_c, 1, 64, 0
1, 124971, Note_on_c, 0, 72, 0
1, 125040, Note_on_c, 0, 72, 66
1, 125040, Note_on_c, 1, 57, 35
1, 125198, Note_on_c, 1, 55, 0
1, 125280, Note_on_c, 0, 71, 59
1, 125280, Note_on_c, 1, 64, 26
1, 125289, Note_on_c, 0, 72, 0
1, 125312, Note_on_c, 1, 57, 0
1, 125520, Note_on_c, 0, 69, 59
1, 125520, Note_on_c, 1, 57, 26
1, 125544, Note_on_c, 0, 71, 0
1, 125557, Note_on_c, 1, 64, 0
1, 125667, Note_on_c, 0, 69, 0
1, 125747, Note_on_c, 1, 57, 0
1, 125760, Note_on_c, 0, 69, 60
1, 125760, Note_on_c, 1, 54, 28
1, 126000, Note_on_c, 0, 74, 52
1, 126000, Note_on_c, 1, 57, 31
1, 126005, Note_on_c, 0, 69, 0
1, 126146, Note_on_c, 0, 74, 0
1, 126240, Note_on_c, 0, 74, 68
1, 126240, Note_on_c, 1, 62, 37
1, 126316, Note_on_c, 1, 57, 0
1, 126469, Note_on_c, 1, 62, 0
1, 126480, Note_on_c, 1, 57, 31
1, 126530, Note_on_c, 1, 54, 0
1, 126677, Note_on_c, 1, 57, 0
1, 126720, Note_on_c, 1, 52, 28
1, 126960, Note_on_c, 0, 76, 65
1, 126960, Note_on_c, 1, 55, 39
1, 126968, Note_on_c, 0, 74, 0
1, 127080, Note_on_c, 0, 74, 66
1, 127102, Note_on_c, 0, 76, 0
1, 127145, Note_on_c, 0, 74, 0
1, 127200, Note_on_c, 0, 74, 66
1, 127200, Note_on_c, 1, 60, 42
1, 127259, Note_on_c, 1, 55, 0
1, 127320, Note_on_c, 0, 72, 63
1, 127341, Note_on_c, 0, 74, 0
1, 127440, Note_on_c, 0, 71, 62
1, 127440, Note_on_c, 1, 55, 33
1, 127442, Note_on_c, 1, 52, 0
1, 127454, Note_on_c, 0, 72, 0
1, 127471, Note_on_c, 1, 60, 0
1, 127560, Note_on_c, 0, 72, 61
1, 127570, Note_on_c, 0, 71, 0
1, 127578, Note_on_c, 1, 55, 0
1, 127602, Note_on_c, 0, 72, 0
1, 127680, Note_on_c, 0, 72, 71
1, 127680, Note_on_c, 1, 51, 33
1, 127920, Note_on_c, 0, 71, 51
1, 127920, Note_on_c, 1, 54, 22
1, 127923, Note_on_c, 0, 72, 0
1, 128084, Note_on_c, 0, 71, 0
1, 128160, Note_on_c, 0, 71, 57
1, 128160, Note_on_c, 1, 57, 28
1, 128184, Note_on_c, 1, 51, 0
1, 128228, Note_on_c, 1, 54, 0
1, 128394, Note_on_c, 1, 57, 0
1, 128400, Note_on_c, 1, 51, 20
1, 128640, Note_on_c, 1, 52, 26
1, 128645, Note_on_c, 1, 51, 0
1, 128753, Note_on_c, 0, 71, 0
1, 128880, Note_on_c, 0, 71, 59
1, 128880, Note_on_c, 1, 55, 35
1, 128921, Note_on_c, 0, 71, 0
1, 128935, Note_on_c, 0, 72, 58
1, 128984, Note_on_c, 0, 72, 0
1, 128990, Note_on_c, 0, 74, 75
1, 129091, Note_on_c, 1, 52, 0
1, 129106, Note_on_c, 0, 72, 56
1, 129120, Note_on_c, 1, 50, 40
1, 129135, Note_on_c, 0, 74, 0
1, 129138, Note_on_c, 1, 55, 0
1, 129360, Note_on_c, 0, 71, 67
1, 129360, Note_on_c, 1, 55, 31
1, 129365, Note_on_c, 0, 72, 0
1, 129498, Note_on_c, 0, 71, 0
1, 129535, Note_on_c, 1, 50, 0
1, 129600, Note_on_c, 0, 71, 65
1, 129600, Note_on_c, 1, 49, 28
1, 129642, Note_on_c, 1, 55, 0
1, 129840, Note_on_c, 0, 69, 61
1, 129840, Note_on_c, 1, 52, 28
1, 129849, Note_on_c, 0, 71, 0
1, 129944, Note_on_c, 0, 69, 0
1, 130080, Note_on_c, 0, 69, 66
1, 130080, Note_on_c, 1, 55, 35
1, 130108, Note_on_c, 0, 69, 0
1, 130126, Note_on_c, 1, 52, 0
1, 130210, Note_on_c, 1, 49, 0
1, 130320, Note_on_c, 0, 69, 69
1, 130320, Note_on_c, 1, 52, 35
1, 130335, Note_on_c, 1, 55, 0
1, 130347, Note_on_c, 0, 69, 0
1, 130560, Note_on_c, 0, 69, 55
1, 130560, Note_on_c, 1, 49, 26
1, 130573, Note_on_c, 1, 52, 0
1, 130800, Note_on_c, 1, 52, 22
1, 130920, Note_on_c, 0, 69, 0
1, 131040, Note_on_c, 0, 69, 68
1, 131040, Note_on_c, 1, 55, 30
1, 131079, Note_on_c, 1, 52, 0
1, 131255, Note_on_c, 1, 49, 0
1, 131280, Note_on_c, 1, 52, 30
1, 131303, Note_on_c, 1, 55, 0
1, 131321, Note_on_c, 0, 69, 0
1, 131452, Note_on_c, 1, 52, 0
1, 131520, Note_on_c, 0, 73, 61
1, 131520, Note_on_c, 1, 48, 28
1, 131566, Note_on_c, 0, 74, 60
1, 131570, Note_on_c, 0, 73, 0
1, 131627, Note_on_c, 0, 76, 72
1, 131644, Note_on_c, 0, 74, 0
1, 131690, Note_on_c, 0, 74, 84
1, 131722, Note_on_c, 0, 76, 0
1, 131760, Note_on_c, 1, 54, 35
1, 132000, Note_on_c, 1, 57, 42
1, 132039, Note_on_c, 1, 48, 0
1, 132240, Note_on_c, 1, 48, 47
1, 132254, Note_on_c, 1, 54, 0
1, 132274, Note_on_c, 1, 57, 0
1, 132361, Note_on_c, 1, 48, 0
1, 132480, Note_on_c, 1, 47, 48
1, 132720, Note_on_c, 0, 76, 66
1, 132720, Note_on_c, 1, 55, 40
1, 132721, Note_on_c, 0, 74, 0
1, 132840, Note_on_c, 0, 74, 66
1, 132863, Note_on_c, 0, 76, 0
1, 132960, Note_on_c, 0, 72, 58
1, 132960, Note_on_c, 1, 52, 35
1, 132978, Note_on_c, 0, 74, 0
1, 132982, Note_on_c, 1, 55, 0
1, 132996, Note_on_c, 1, 47, 0
1, 133200, Note_on_c, 0, 71, 57
1, 133200, Note_on_c, 1, 50, 28
1, 133202, Note_on_c, 1, 52, 0
1, 133224, Note_on_c, 0, 72, 0
1, 133269, Note_on_c, 1, 50, 0
1, 133314, Note_on_c, 0, 71, 0
1, 133440, Note_on_c, 0, 71, 61
1, 133440, Note_on_c, 1, 48, 39
1, 133440, Note_on_c, 1, 52, 39
1, 133680, Note_on_c, 0, 69, 54
1, 133705, Note_on_c, 0, 71, 0
1, 133920, Note_on_c, 0, 68, 51
1, 133929, Note_on_c, 0, 69, 0
1, 134160, Note_on_c, 0, 69, 61
1, 134200, Note_on_c, 0, 68, 0
1, 134400, Note_on_c, 0, 71, 63
1, 134419, Note_on_c, 0, 69, 0
1, 134577, Note_on_c, 1, 52, 0
1, 134583, Note_on_c, 1, 48, 0
1, 134640, Note_on_c, 0, 72, 55
1, 134661, Note_on_c, 0, 71, 0
1, 134738, Note_on_c, 0, 72, 0
1, 134880, Note_on_c, 0, 64, 57
1, 134880, Note_on_c, 1, 49, 47
1, 134880, Note_on_c, 1, 57, 57
1, 134985, Note_on_c, 1, 49, 0
1, 134993, Note_on_c, 1, 57, 0
1, 135120, Note_on_c, 0, 69, 66
1, 135144, Note_on_c, 0, 64, 0
1, 135220, Note_on_c, 0, 69, 0
1, 135360, Note_on_c, 0, 67, 54
1, 135360, Note_on_c, 1, 57, 39
1, 135360, Note_on_c, 1, 50, 39
1, 135600, Note_on_c, 0, 66, 46
1, 135618, Note_on_c, 0, 67, 0
1, 135676, Note_on_c, 1, 50, 0
1, 135695, Note_on_c, 1, 57, 0
1, 135840, Note_on_c, 0, 64, 42
1, 135861, Note_on_c, 0, 66, 0
1, 136080, Note_on_c, 0, 62, 39
1, 136081, Note_on_c, 0, 64, 0
1, 136320, Note_on_c, 0, 64, 46
1, 136331, Note_on_c, 0, 62, 0
1, 136560, Note_on_c, 0, 66, 61
1, 136578, Note_on_c, 0, 64, 0
1, 136799, Note_on_c, 0, 66, 0
1, 136800, Note_on_c, 0, 67, 52
1, 137040, Note_on_c, 0, 69, 44
1, 137066, Note_on_c, 0, 67, 0
1, 137190, Note_on_c, 0, 69, 0
1, 137280, Note_on_c, 0, 71, 39
1, 137280, Note_on_c, 1, 67, 26
1, 137520, Note_on_c, 1, 62, 20
1, 137589, Note_on_c, 1, 62, 0
1, 137616, Note_on_c, 1, 67, 0
1, 137640, Note_on_c, 0, 74, 61
1, 137641, Note_on_c, 0, 71, 0
1, 137760, Note_on_c, 0, 72, 47
1, 137760, Note_on_c, 1, 67, 28
1, 137777, Note_on_c, 0, 74, 0
1, 138000, Note_on_c, 1, 62, 22
1, 138101, Note_on_c, 1, 62, 0
1, 138108, Note_on_c, 1, 67, 0
1, 138120, Note_on_c, 0, 71, 54
1, 138141, Note_on_c, 0, 72, 0
1, 138240, Note_on_c, 0, 69, 55
1, 138240, Note_on_c, 1, 66, 31
1, 138257, Note_on_c, 0, 71, 0
1, 138480, Note_on_c, 1, 62, 22
1, 138518, Note_on_c, 1, 66, 0
1, 138581, Note_on_c, 1, 62, 0
1, 138720, Note_on_c, 0, 71, 49
1, 138720, Note_on_c, 1, 67, 30
1, 138741, Note_on_c, 0, 69, 0
1, 138960, Note_on_c, 1, 62, 22
1, 139020, Note_on_c, 1, 67, 0
1, 139078, Note_on_c, 1, 62, 0
1, 139200, Note_on_c, 0, 72, 72
1, 139200, Note_on_c, 1, 69, 33
1, 139212, Note_on_c, 0, 71, 0
1, 139440, Note_on_c, 1, 62, 28
1, 139502, Note_on_c, 1, 69, 0
1, 139680, Note_on_c, 0, 74, 81
1, 139680, Note_on_c, 1, 66, 31
1, 139686, Note_on_c, 0, 72, 0
1, 139729, Note_on_c, 1, 62, 0
1, 139920, Note_on_c, 1, 62, 28
1, 139950, Note_on_c, 1, 66, 0
1, 140039, Note_on_c, 1, 62, 0
1, 140160, Note_on_c, 0, 72, 55
1, 140160, Note_on_c, 1, 67, 30
1, 140205, Note_on_c, 0, 74, 0
1, 140400, Note_on_c, 1, 62, 26
1, 140431, Note_on_c, 1, 67, 0
1, 140486, Note_on_c, 1, 62, 0
1, 140640, Note_on_c, 0, 71, 41
1, 140640, Note_on_c, 1, 67, 22
1, 140662, Note_on_c, 0, 72, 0
1, 140880, Note_on_c, 1, 62, 20
1, 140892, Note_on_c, 1, 67, 0
1, 140914, Note_on_c, 1, 62, 0
1, 140942, Note_on_c, 0, 71, 0
1, 141120, Note_on_c, 0, 88, 42
1, 141120, Note_on_c, 1, 59, 66
1, 141120, Note_on_c, 1, 55, 66
1, 141190, Note_on_c, 0, 86, 39
1, 141201, Note_on_c, 0, 88, 0
1, 141251, Note_on_c, 0, 88, 39
1, 141253, Note_on_c, 0, 86, 0
1, 141304, Note_on_c, 0, 86, 39
1, 141316, Note_on_c, 0, 88, 0
1, 141360, Note_on_c, 0, 88, 39
1, 141366, Note_on_c, 0, 86, 0
1, 141408, Note_on_c, 0, 86, 39
1, 141415, Note_on_c, 0, 88, 0
1, 141438, Note_on_c, 0, 88, 39
1, 141442, Note_on_c, 0, 86, 0
1, 141477, Note_on_c, 0, 88, 0
1, 141478, Note_on_c, 0, 86, 39
1, 141480, Note_on_c, 1, 62, 62
1, 141490, Note_on_c, 1, 59, 0
1, 141509, Note_on_c, 1, 55, 0
1, 141522, Note_on_c, 0, 86, 0
1, 141523, Note_on_c, 0, 88, 39
1, 141559, Note_on_c, 0, 86, 40
1, 141561, Note_on_c, 0, 88, 0
1, 141600, Note_on_c, 0, 88, 40
1, 141600, Note_on_c, 1, 60, 64
1, 141600, Note_on_c, 1, 57, 64
1, 141602, Note_on_c, 1, 62, 0
1, 141603, Note_on_c, 0, 86, 0
1, 141636, Note_on_c, 0, 88, 0
1, 141640, Note_on_c, 0, 86, 40
1, 141676, Note_on_c, 0, 88, 40
1, 141678, Note_on_c, 0, 86, 0
1, 141717, Note_on_c, 0, 86, 40
1, 141722, Note_on_c, 0, 88, 0
1, 141761, Note_on_c, 0, 88, 40
1, 141764, Note_on_c, 0, 86, 0
1, 141802, Note_on_c, 0, 88, 0
1, 141802, Note_on_c, 0, 86, 40
1, 141843, Note_on_c, 0, 88, 40
1, 141846, Note_on_c, 0, 86, 0
1, 141848, Note_on_c, 1, 57, 0
1, 141883, Note_on_c, 0, 86, 40
1, 141888, Note_on_c, 0, 88, 0
1, 141919, Note_on_c, 0, 88, 42
1, 141922, Note_on_c, 0, 86, 0
1, 141954, Note_on_c, 1, 60, 0
1, 141957, Note_on_c, 0, 86, 42
1, 141960, Note_on_c, 1, 59, 69
1, 141960, Note_on_c, 1, 55, 69
1, 141961, Note_on_c, 0, 88, 0
1, 141997, Note_on_c, 0, 88, 42
1, 142001, Note_on_c, 0, 86, 0
1, 142015, Note_on_c, 1, 55, 0
1, 142030, Note_on_c, 1, 59, 0
1, 142036, Note_on_c, 0, 86, 42
1, 142037, Note_on_c, 0, 88, 0
1, 142077, Note_on_c, 0, 88, 42
1, 142080, Note_on_c, 1, 54, 55
1, 142080, Note_on_c, 1, 57, 55
1, 142083, Note_on_c, 0, 86, 0
1, 142122, Note_on_c, 0, 86, 42
1, 142125, Note_on_c, 0, 88, 0
1, 142157, Note_on_c, 0, 88, 42
1, 142164, Note_on_c, 0, 86, 0
1, 142198, Note_on_c, 0, 86, 42
1, 142202, Note_on_c, 0, 88, 0
1, 142232, Note_on_c, 0, 88, 42
1, 142237, Note_on_c, 0, 86, 0
1, 142274, Note_on_c, 0, 86, 44
1, 142280, Note_on_c, 0, 88, 0
1, 142317, Note_on_c, 0, 88, 44
1, 142322, Note_on_c, 0, 86, 0
1, 142359, Note_on_c, 0, 86, 44
1, 142363, Note_on_c, 0, 88, 0
1, 142365, Note_on_c, 1, 57, 0
1, 142395, Note_on_c, 1, 54, 0
1, 142404, Note_on_c, 0, 88, 44
1, 142405, Note_on_c, 0, 86, 0
1, 142438, Note_on_c, 0, 86, 44
1, 142442, Note_on_c, 0, 88, 0
1, 142477, Note_on_c, 0, 88, 44
1, 142479, Note_on_c, 0, 86, 0
1, 142513, Note_on_c, 0, 86, 44
1, 142515, Note_on_c, 0, 88, 0
1, 142548, Note_on_c, 0, 88, 44
1, 142551, Note_on_c, 0, 86, 0
1, 142560, Note_on_c, 1, 59, 53
1, 142560, Note_on_c, 1, 55, 53
1, 142591, Note_on_c, 0, 86, 44
1, 142596, Note_on_c, 0, 88, 0
1, 142629, Note_on_c, 0, 88, 44
1, 142634, Note_on_c, 0, 86, 0
1, 142663, Note_on_c, 0, 86, 46
1, 142667, Note_on_c, 0, 88, 0
1, 142705, Note_on_c, 0, 88, 46
1, 142706, Note_on_c, 0, 86, 0
1, 142745, Note_on_c, 0, 88, 0
1, 142746, Note_on_c, 0, 86, 46
1, 142794, Note_on_c, 0, 88, 46
1, 142798, Note_on_c, 0, 86, 0
1, 142807, Note_on_c, 1, 59, 0
1, 142820, Note_on_c, 1, 55, 0
1, 142835, Note_on_c, 0, 86, 46
1, 142836, Note_on_c, 0, 88, 0
1, 142872, Note_on_c, 0, 88, 46
1, 142874, Note_on_c, 0, 86, 0
1, 142911, Note_on_c, 0, 88, 0
1, 142914, Note_on_c, 0, 86, 46
1, 142948, Note_on_c, 0, 88, 46
1, 142949, Note_on_c, 0, 86, 0
1, 142984, Note_on_c, 0, 86, 46
1, 142990, Note_on_c, 0, 88, 0
1, 143021, Note_on_c, 0, 88, 48
1, 143024, Note_on_c, 0, 86, 0
1, 143040, Note_on_c, 1, 57, 60
1, 143040, Note_on_c, 1, 60, 60
1, 143052, Note_on_c, 0, 86, 48
1, 143060, Note_on_c, 0, 88, 0
1, 143084, Note_on_c, 0, 88, 48
1, 143091, Note_on_c, 0, 86, 0
1, 143127, Note_on_c, 0, 86, 48
1, 143133, Note_on_c, 0, 88, 0
1, 143169, Note_on_c, 0, 86, 0
1, 143170, Note_on_c, 0, 88, 48
1, 143200, Note_on_c, 0, 86, 48
1, 143202, Note_on_c, 0, 88, 0
1, 143234, Note_on_c, 0, 86, 0
1, 143235, Note_on_c, 0, 88, 48
1, 143268, Note_on_c, 0, 88, 0
1, 143268, Note_on_c, 0, 86, 48
1, 143301, Note_on_c, 0, 86, 0
1, 143302, Note_on_c, 0, 88, 48
1, 143336, Note_on_c, 0, 88, 0
1, 143337, Note_on_c, 0, 86, 48
1, 143369, Note_on_c, 0, 88, 48
1, 143370, Note_on_c, 0, 86, 0
1, 143406, Note_on_c, 0, 86, 49
1, 143408, Note_on_c, 0, 88, 0
1, 143444, Note_on_c, 0, 88, 49
1, 143446, Note_on_c, 0, 86, 0
1, 143479, Note_on_c, 0, 86, 49
1, 143481, Note_on_c, 0, 88, 0
1, 143513, Note_on_c, 1, 57, 0
1, 143515, Note_on_c, 0, 86, 0
1, 143515, Note_on_c, 0, 88, 49
1, 143520, Note_on_c, 1, 59, 68
1, 143520, Note_on_c, 1, 62, 68
1, 143528, Note_on_c, 1, 60, 0
1, 143547, Note_on_c, 0, 86, 49
1, 143549, Note_on_c, 0, 88, 0
1, 143580, Note_on_c, 0, 88, 49
1, 143582, Note_on_c, 0, 86, 0
1, 143613, Note_on_c, 0, 86, 49
1, 143615, Note_on_c, 0, 88, 0
1, 143646, Note_on_c, 0, 88, 49
1, 143647, Note_on_c, 0, 86, 0
1, 143678, Note_on_c, 0, 86, 49
1, 143680, Note_on_c, 0, 88, 0
1, 143714, Note_on_c, 0, 86, 0
1, 143715, Note_on_c, 0, 88, 49
1, 143751, Note_on_c, 0, 86, 51
1, 143753, Note_on_c, 0, 88, 0
1, 143787, Note_on_c, 0, 88, 51
1, 143788, Note_on_c, 0, 86, 0
1, 143818, Note_on_c, 0, 86, 51
1, 143821, Note_on_c, 0, 88, 0
1, 143853, Note_on_c, 0, 88, 51
1, 143854, Note_on_c, 0, 86, 0
1, 143889, Note_on_c, 0, 86, 51
1, 143891, Note_on_c, 0, 88, 0
1, 143927, Note_on_c, 0, 88, 51
1, 143929, Note_on_c, 0, 86, 0
1, 143964, Note_on_c, 0, 86, 51
1, 143966, Note_on_c, 0, 88, 0
1, 143999, Note_on_c, 0, 86, 0
1, 143999, Note_on_c, 0, 88, 51
1, 144000, Note_on_c, 1, 57, 69
1, 144000, Note_on_c, 1, 60, 69
1, 144033, Note_on_c, 1, 62, 0
1, 144034, Note_on_c, 0, 86, 51
1, 144035, Note_on_c, 0, 88, 0
1, 144043, Note_on_c, 1, 59, 0
1, 144069, Note_on_c, 0, 88, 51
1, 144070, Note_on_c, 0, 86, 0
1, 144106, Note_on_c, 0, 88, 0
1, 144106, Note_on_c, 0, 86, 51
1, 144145, Note_on_c, 0, 88, 53
1, 144147, Note_on_c, 0, 86, 0
1, 144182, Note_on_c, 0, 88, 0
1, 144183, Note_on_c, 0, 86, 53
1, 144221, Note_on_c, 0, 88, 53
1, 144223, Note_on_c, 0, 86, 0
1, 144225, Note_on_c, 1, 57, 0
1, 144246, Note_on_c, 1, 60, 0
1, 144255, Note_on_c, 0, 86, 53
1, 144258, Note_on_c, 0, 88, 0
1, 144286, Note_on_c, 0, 88, 53
1, 144288, Note_on_c, 0, 86, 0
1, 144321, Note_on_c, 0, 86, 53
1, 144323, Note_on_c, 0, 88, 0
1, 144356, Note_on_c, 0, 88, 53
1, 144360, Note_on_c, 0, 86, 0
1, 144391, Note_on_c, 0, 88, 0
1, 144391, Note_on_c, 0, 86, 53
1, 144426, Note_on_c, 0, 88, 53
1, 144429, Note_on_c, 0, 86, 0
1, 144461, Note_on_c, 0, 86, 53
1, 144462, Note_on_c, 0, 88, 0
1, 144480, Note_on_c, 1, 59, 55
1, 144480, Note_on_c, 1, 55, 55
1, 144496, Note_on_c, 0, 88, 55
1, 144498, Note_on_c, 0, 86, 0
1, 144537, Note_on_c, 0, 88, 0
1, 144537, Note_on_c, 0, 86, 55
1, 144573, Note_on_c, 0, 88, 55
1, 144575, Note_on_c, 0, 86, 0
1, 144603, Note_on_c, 0, 86, 55
1, 144605, Note_on_c, 0, 88, 0
1, 144639, Note_on_c, 0, 88, 55
1, 144644, Note_on_c, 0, 86, 0
1, 144678, Note_on_c, 0, 88, 0
1, 144683, Note_on_c, 0, 86, 55
1, 144695, Note_on_c, 1, 59, 0
1, 144726, Note_on_c, 1, 55, 0
1, 144727, Note_on_c, 0, 88, 55
1, 144737, Note_on_c, 0, 86, 0
1, 144776, Note_on_c, 0, 88, 0
1, 144776, Note_on_c, 0, 86, 55
1, 144831, Note_on_c, 0, 86, 0
1, 144834, Note_on_c, 0, 85, 55
1, 144875, Note_on_c, 0, 85, 0
1, 144889, Note_on_c, 0, 86, 75
1, 144918, Note_on_c, 0, 86, 0
1, 144960, Note_on_c, 0, 79, 92
1, 144960, Note_on_c, 0, 67, 84
1, 144960, Note_on_c, 1, 55, 48
1, 144960, Note_on_c, 1, 59, 48
1, 145440, Note_on_c, 0, 67, 0
1, 145440, Note_on_c, 0, 79, 0
1, 145440, Note_on_c, 0, 78, 92
1, 145440, Note_on_c, 0, 66, 84
1, 145440, Note_on_c, 1, 59, 0
1, 145440, Note_on_c, 1, 55, 0
1, 145440, Note_on_c, 1, 60, 57
1, 145440, Note_on_c, 1, 57, 57
1, 145920, Note_on_c, 0, 66, 0
1, 145920, Note_on_c, 0, 78, 0
1, 145920, Note_on_c, 0, 64, 51
1, 145920, Note_on_c, 0, 76, 56
1, 145920, Note_on_c, 1, 57, 0
1, 145920, Note_on_c, 1, 60, 0
1, 145920, Note_on_c, 1, 59, 27
1, 145920, Note_on_c, 1, 52, 27
1, 145920, Note_on_c, 1, 55, 27
1, 146330, Note_on_c, 0, 76, 0
1, 146330, Note_on_c, 0, 64, 0
1, 146330, Note_on_c, 1, 55, 0
1, 146330, Note_on_c, 1, 52, 0
1, 146330, Note_on_c, 1, 59, 0
1, 146640, Note_on_c, 0, 71, 49
1, 146720, Note_on_c, 0, 71, 0
1, 146880, Note_on_c, 0, 64, 44
1, 146880, Note_on_c, 0, 76, 44
1, 146880, Note_on_c, 1, 59, 35
1, 146880, Note_on_c, 1, 55, 35
1, 147360, Note_on_c, 0, 76, 0
1, 147360, Note_on_c, 0, 64, 0
1, 147360, Note_on_c, 0, 62, 44
1, 147360, Note_on_c, 0, 74, 44
1, 147360, Note_on_c, 1, 55, 0
1, 147360, Note_on_c, 1, 59, 0
1, 147360, Note_on_c, 1, 59, 31
1, 147360, Note_on_c, 1, 53, 31
1, 147360, Note_on_c, 1, 55, 31
1, 147840, Note_on_c, 0, 74, 0
1, 147840, Note_on_c, 0, 62, 0
1, 147840, Note_on_c, 0, 60, 27
1, 147840, Note_on_c, 0, 72, 27
1, 147840, Note_on_c, 1, 55, 0
1, 147840, Note_on_c, 1, 53, 0
1, 147840, Note_on_c, 1, 59, 0
1, 147840, Note_on_c, 1, 55, 22
1, 147840, Note_on_c, 1, 52, 22
1, 148250, Note_on_c, 0, 72, 0
1, 148250, Note_on_c, 0, 60, 0
1, 148250, Note_on_c, 1, 52, 0
1, 148250, Note_on_c, 1, 55, 0
1, 148560, Note_on_c, 0, 67, 83
1, 148640, Note_on_c, 0, 67, 0
1, 148800, Note_on_c, 0, 72, 93
1, 148800, Note_on_c, 0, 60, 93
1, 148800, Note_on_c, 1, 55, 60
1, 148800, Note_on_c, 1, 52, 60
1, 149280, Note_on_c, 0, 60, 0
1, 149280, Note_on_c, 0, 72, 0
1, 149280, Note_on_c, 0, 71, 90
1, 149280, Note_on_c, 0, 59, 90
1, 149280, Note_on_c, 1, 52, 0
1, 149280, Note_on_c, 1, 55, 0
1, 149280, Note_on_c, 1, 56, 49
1, 149280, Note_on_c, 1, 50, 49
1, 149280, Note_on_c, 1, 53, 49
1, 149760, Note_on_c, 0, 59, 0
1, 149760, Note_on_c, 0, 71, 0
1, 149760, Note_on_c, 0, 69, 88
1, 149760, Note_on_c, 1, 53, 0
1, 149760, Note_on_c, 1, 50, 0
1, 149760, Note_on_c, 1, 56, 0
1, 149760, Note_on_c, 1, 52, 40
1, 149760, Note_on_c, 1, 48, 40
1, 149760, Note_on_c, 1, 57, 40
1, 150000, Note_on_c, 0, 76, 95
1, 150002, Note_on_c, 0, 69, 0
1, 150228, Note_on_c, 1, 57, 0
1, 150228, Note_on_c, 1, 48, 0
1, 150228, Note_on_c, 1, 52, 0
1, 150240, Note_on_c, 0, 74, 90
1, 150248, Note_on_c, 0, 76, 0
1, 150360, Note_on_c, 0, 72, 86
1, 150375, Note_on_c, 0, 74, 0
1, 150480, Note_on_c, 0, 71, 72
1, 150513, Note_on_c, 0, 72, 0
1, 150600, Note_on_c, 0, 69, 57
1, 150618, Note_on_c, 0, 71, 0
1, 150720, Note_on_c, 0, 67, 48
1, 150720, Note_on_c, 1, 59, 24
1, 150720, Note_on_c, 1, 50, 24
1, 150738, Note_on_c, 0, 69, 0
1, 151200, Note_on_c, 0, 67, 0
1, 151200, Note_on_c, 0, 69, 45
1, 151200, Note_on_c, 1, 50, 0
1, 151200, Note_on_c, 1, 59, 0
1, 151200, Note_on_c, 1, 54, 20
1, 151300, Note_on_c, 0, 69, 0
1, 151300, Note_on_c, 1, 54, 0
1, 151680, Note_on_c, 0, 70, 53
1, 151680, Note_on_c, 1, 54, 27
1, 151680, Note_on_c, 1, 43, 27
1, 152160, Note_on_c, 0, 70, 0
1, 152160, Note_on_c, 0, 71, 32
1, 152160, Note_on_c, 1, 43, 0
1, 152160, Note_on_c, 1, 54, 0
1, 152160, Note_on_c, 1, 55, 20
1, 152260, Note_on_c, 0, 71, 0
1, 152260, Note_on_c, 1, 55, 0
1, 152640, Note_on_c, 0, 79, 95
1, 152640, Note_on_c, 1, 59, 59
1, 152640, Note_on_c, 1, 62, 59
1, 153120, Note_on_c, 0, 78, 88
1, 153120, Note_on_c, 1, 62, 0
1, 153120, Note_on_c, 1, 59, 0
1, 153120, Note_on_c, 1, 63, 55
1, 153120, Note_on_c, 1, 57, 55
1, 153120, Note_on_c, 1, 60, 55
1, 153121, Note_on_c, 0, 79, 0
1, 153195, Note_on_c, 0, 79, 82
1, 153206, Note_on_c, 0, 78, 0
1, 153251, Note_on_c, 0, 78, 80
1, 153269, Note_on_c, 0, 79, 0
1, 153305, Note_on_c, 0, 79, 79
1, 153313, Note_on_c, 0, 78, 0
1, 153356, Note_on_c, 0, 79, 0
1, 153358, Note_on_c, 0, 78, 79
1, 153399, Note_on_c, 0, 78, 0
1, 153399, Note_on_c, 0, 79, 79
1, 153429, Note_on_c, 0, 78, 79
1, 153444, Note_on_c, 0, 79, 0
1, 153483, Note_on_c, 0, 76, 80
1, 153490, Note_on_c, 0, 78, 0
1, 153539, Note_on_c, 0, 78, 82
1, 153555, Note_on_c, 0, 76, 0
1, 153600, Note_on_c, 0, 76, 84
1, 153600, Note_on_c, 1, 60, 0
1, 153600, Note_on_c, 1, 57, 0
1, 153600, Note_on_c, 1, 63, 0
1, 153600, Note_on_c, 1, 55, 40
1, 153600, Note_on_c, 1, 64, 40
1, 153600, Note_on_c, 1, 59, 40
1, 153616, Note_on_c, 0, 78, 0
1, 153905, Note_on_c, 0, 76, 0
1, 154010, Note_on_c, 1, 59, 0
1, 154010, Note_on_c, 1, 64, 0
1, 154010, Note_on_c, 1, 55, 0
1, 154320, Note_on_c, 0, 83, 54
1, 154440, Note_on_c, 0, 83, 0
1, 154560, Note_on_c, 0, 88, 55
1, 154560, Note_on_c, 1, 71, 31
1, 154560, Note_on_c, 1, 67, 31
1, 154966, Note_on_c, 0, 88, 0
1, 155040, Note_on_c, 0, 86, 49
1, 155040, Note_on_c, 1, 67, 0
1, 155040, Note_on_c, 1, 71, 0
1, 155040, Note_on_c, 1, 71, 24
1, 155040, Note_on_c, 1, 65, 24
1, 155040, Note_on_c, 1, 67, 24
1, 155117, Note_on_c, 0, 88, 51
1, 155119, Note_on_c, 0, 86, 0
1, 155180, Note_on_c, 0, 86, 49
1, 155189, Note_on_c, 0, 88, 0
1, 155236, Note_on_c, 0, 88, 50
1, 155244, Note_on_c, 0, 86, 0
1, 155280, Note_on_c, 0, 86, 47
1, 155282, Note_on_c, 0, 88, 0
1, 155314, Note_on_c, 0, 86, 0
1, 155320, Note_on_c, 0, 88, 47
1, 155358, Note_on_c, 0, 86, 47
1, 155374, Note_on_c, 0, 88, 0
1, 155400, Note_on_c, 0, 84, 45
1, 155409, Note_on_c, 0, 86, 0
1, 155458, Note_on_c, 0, 84, 0
1, 155458, Note_on_c, 0, 86, 39
1, 155518, Note_on_c, 0, 86, 0
1, 155520, Note_on_c, 0, 84, 33
1, 155520, Note_on_c, 1, 67, 0
1, 155520, Note_on_c, 1, 65, 0
1, 155520, Note_on_c, 1, 71, 0
1, 155520, Note_on_c, 1, 72, 19
1, 155520, Note_on_c, 1, 67, 19
1, 155520, Note_on_c, 1, 64, 19
1, 155915, Note_on_c, 0, 84, 0
1, 155930, Note_on_c, 1, 64, 0
1, 155930, Note_on_c, 1, 67, 0
1, 155930, Note_on_c, 1, 72, 0
1, 156240, Note_on_c, 0, 79, 73
1, 156347, Note_on_c, 0, 79, 0
1, 156480, Note_on_c, 0, 84, 88
1, 156480, Note_on_c, 1, 67, 30
1, 156480, Note_on_c, 1, 64, 30
1, 156960, Note_on_c, 0, 83, 82
1, 156960, Note_on_c, 1, 64, 0
1, 156960, Note_on_c, 1, 67, 0
1, 156960, Note_on_c, 1, 62, 39
1, 156960, Note_on_c, 1, 65, 39
1, 156960, Note_on_c, 1, 68, 39
1, 157002, Note_on_c, 0, 84, 0
1, 157440, Note_on_c, 0, 81, 80
1, 157440, Note_on_c, 1, 68, 0
1, 157440, Note_on_c, 1, 65, 0
1, 157440, Note_on_c, 1, 62, 0
1, 157440, Note_on_c, 1, 60, 49
1, 157440, Note_on_c, 1, 69, 49
1, 157440, Note_on_c, 1, 64, 49
1, 157456, Note_on_c, 0, 83, 0
1, 157679, Note_on_c, 0, 81, 0
1, 157680, Note_on_c, 0, 88, 91
1, 157918, Note_on_c, 0, 88, 0
1, 157920, Note_on_c, 0, 86, 82
1, 157947, Note_on_c, 1, 60, 0
1, 157948, Note_on_c, 1, 64, 0
1, 157965, Note_on_c, 1, 69, 0
1, 158040, Note_on_c, 0, 84, 77
1, 158052, Note_on_c, 0, 86, 0
1, 158160, Note_on_c, 0, 83, 71
1, 158189, Note_on_c, 0, 84, 0
1, 158280, Note_on_c, 0, 81, 66
1, 158288, Note_on_c, 0, 83, 0
1, 158395, Note_on_c, 0, 81, 0
1, 158400, Note_on_c, 0, 79, 46
1, 158400, Note_on_c, 0, 79, 60
1, 158400, Note_on_c, 1, 71, 35
1, 158400, Note_on_c, 1, 67, 35
1, 158400, Note_on_c, 1, 62, 35
1, 158530, Note_on_c, 0, 79, 0
1, 158530, Note_on_c, 0, 79, 0
1, 158640, Note_on_c, 0, 81, 48
1, 158665, Note_on_c, 1, 67, 0
1, 158667, Note_on_c, 1, 62, 0
1, 158669, Note_on_c, 1, 71, 0
1, 158725, Note_on_c, 0, 81, 0
1, 158880, Note_on_c, 0, 82, 50
1, 158957, Note_on_c, 0, 82, 0
1, 159120, Note_on_c, 0, 83, 56
1, 159201, Note_on_c, 0, 83, 0
1, 159360, Note_on_c, 0, 84, 63
1, 159360, Note_on_c, 1, 62, 31
1, 159360, Note_on_c, 1, 67, 31
1, 159360, Note_on_c, 1, 71, 31
1, 159439, Note_on_c, 0, 84, 0
1, 159600, Note_on_c, 0, 85, 67
1, 159643, Note_on_c, 1, 71, 0
1, 159648, Note_on_c, 1, 67, 0
1, 159652, Note_on_c, 1, 62, 0
1, 159685, Note_on_c, 0, 85, 0
1, 159840, Note_on_c, 0, 86, 71
1, 159927, Note_on_c, 0, 86, 0
1, 160080, Note_on_c, 0, 87, 79
1, 160180, Note_on_c, 0, 87, 0
1, 160200, Note_on_c, 1, 62, 54
1, 160200, Note_on_c, 1, 67, 61
1, 160320, Note_on_c, 0, 87, 66
1, 160320, Note_on_c, 1, 72, 75
1, 160440, Note_on_c, 0, 88, 58
1, 160454, Note_on_c, 0, 87, 0
1, 160560, Note_on_c, 0, 87, 61
1, 160573, Note_on_c, 0, 88, 0
1, 160680, Note_on_c, 0, 88, 66
1, 160692, Note_on_c, 0, 87, 0
1, 160800, Note_on_c, 0, 86, 58
1, 160822, Note_on_c, 0, 88, 0
1, 160920, Note_on_c, 0, 84, 66
1, 160933, Note_on_c, 0, 86, 0
1, 161040, Note_on_c, 0, 83, 59
1, 161050, Note_on_c, 0, 84, 0
1, 161096, Note_on_c, 1, 67, 0
1, 161146, Note_on_c, 1, 72, 0
1, 161160, Note_on_c, 0, 81, 67
1, 161162, Note_on_c, 1, 62, 0
1, 161179, Note_on_c, 0, 83, 0
1, 161206, Note_on_c, 0, 81, 0
1, 161280, Note_on_c, 1, 66, 46
1, 161280, Note_on_c, 1, 72, 46
1, 161280, Note_on_c, 1, 62, 46
1, 161296, Note_on_c, 0, 83, 66
1, 161356, Note_on_c, 0, 81, 64
1, 161363, Note_on_c, 0, 83, 0
1, 161422, Note_on_c, 0, 81, 0
1, 161422, Note_on_c, 0, 83, 62
1, 161468, Note_on_c, 0, 81, 60
1, 161473, Note_on_c, 0, 83, 0
1, 161520, Note_on_c, 0, 83, 60
1, 161523, Note_on_c, 0, 81, 0
1, 161571, Note_on_c, 0, 81, 59
1, 161579, Note_on_c, 0, 83, 0
1, 161616, Note_on_c, 0, 83, 59
1, 161618, Note_on_c, 0, 81, 0
1, 161657, Note_on_c, 0, 81, 57
1, 161662, Note_on_c, 0, 83, 0
1, 161704, Note_on_c, 0, 81, 0
1, 161704, Note_on_c, 0, 83, 57
1, 161747, Note_on_c, 0, 83, 0
1, 161747, Note_on_c, 0, 81, 57
1, 161788, Note_on_c, 0, 81, 0
1, 161790, Note_on_c, 0, 83, 57
1, 161831, Note_on_c, 0, 81, 55
1, 161834, Note_on_c, 0, 83, 0
1, 161841, Note_on_c, 1, 66, 0
1, 161850, Note_on_c, 1, 62, 0
1, 161869, Note_on_c, 0, 81, 0
1, 161872, Note_on_c, 0, 83, 55
1, 161874, Note_on_c, 1, 72, 0
1, 161910, Note_on_c, 0, 81, 57
1, 161913, Note_on_c, 0, 83, 0
1, 161948, Note_on_c, 0, 83, 57
1, 161949, Note_on_c, 0, 81, 0
1, 161984, Note_on_c, 0, 83, 0
1, 161987, Note_on_c, 0, 81, 57
1, 162024, Note_on_c, 0, 83, 57
1, 162027, Note_on_c, 0, 81, 0
1, 162064, Note_on_c, 0, 81, 59
1, 162084, Note_on_c, 0, 83, 0
1, 162116, Note_on_c, 0, 79, 59
1, 162123, Note_on_c, 0, 81, 0
1, 162176, Note_on_c, 0, 81, 60
1, 162188, Note_on_c, 0, 79, 0
1, 162240, Note_on_c, 0, 79, 52
1, 162240, Note_on_c, 1, 71, 42
1, 162240, Note_on_c, 1, 67, 42
1, 162261, Note_on_c, 0, 81, 0
1, 162313, Note_on_c, 0, 79, 0
1, 162360, Note_on_c, 0, 79, 53
1, 162480, Note_on_c, 0, 78, 61
1, 162482, Note_on_c, 0, 79, 0
1, 162597, Note_on_c, 0, 78, 0
1, 162600, Note_on_c, 0, 79, 63
1, 162720, Note_on_c, 0, 81, 61
1, 162731, Note_on_c, 0, 79, 0
1, 162840, Note_on_c, 0, 79, 59
1, 162863, Note_on_c, 0, 81, 0
1, 162952, Note_on_c, 1, 71, 0
1, 162956, Note_on_c, 1, 67, 0
1, 162960, Note_on_c, 0, 78, 55
1, 162981, Note_on_c, 0, 79, 0
1, 163080, Note_on_c, 0, 76, 47
1, 163087, Note_on_c, 0, 78, 0
1, 163200, Note_on_c, 0, 74, 34
1, 163203, Note_on_c, 0, 76, 0
1, 163256, Note_on_c, 0, 74, 0
1, 163320, Note_on_c, 0, 76, 63
1, 163440, Note_on_c, 0, 75, 67
1, 163456, Note_on_c, 0, 76, 0
1, 163560, Note_on_c, 0, 76, 63
1, 163570, Note_on_c, 0, 75, 0
1, 163680, Note_on_c, 0, 78, 68
1, 163687, Note_on_c, 0, 76, 0
1, 163800, Note_on_c, 0, 76, 64
1, 163824, Note_on_c, 0, 78, 0
1, 163920, Note_on_c, 0, 74, 58
1, 163934, Note_on_c, 0, 76, 0
1, 164040, Note_on_c, 0, 72, 48
1, 164047, Note_on_c, 0, 74, 0
1, 164160, Note_on_c, 0, 72, 0
1, 164160, Note_on_c, 0, 71, 55
1, 164160, Note_on_c, 1, 62, 28
1, 164160, Note_on_c, 1, 55, 28
1, 164349, Note_on_c, 0, 71, 0
1, 164400, Note_on_c, 0, 72, 59
1, 164453, Note_on_c, 0, 71, 57
1, 164473, Note_on_c, 0, 72, 0
1, 164516, Note_on_c, 0, 69, 66
1, 164525, Note_on_c, 0, 71, 0
1, 164570, Note_on_c, 0, 71, 68
1, 164576, Note_on_c, 0, 69, 0
1, 164610, Note_on_c, 0, 74, 69
1, 164617, Note_on_c, 0, 71, 0
1, 164640, Note_on_c, 0, 72, 67
1, 164640, Note_on_c, 1, 57, 31
1, 164655, Note_on_c, 0, 74, 0
1, 164661, Note_on_c, 1, 55, 0
1, 164995, Note_on_c, 0, 72, 0
1, 165000, Note_on_c, 0, 71, 61
1, 165000, Note_on_c, 1, 55, 30
1, 165004, Note_on_c, 1, 57, 0
1, 165057, Note_on_c, 1, 62, 0
1, 165084, Note_on_c, 1, 55, 0
1, 165120, Note_on_c, 1, 54, 42
1, 165120, Note_on_c, 1, 62, 42
1, 165360, Note_on_c, 0, 69, 61
1, 165396, Note_on_c, 0, 71, 0
1, 165600, Note_on_c, 1, 55, 35
1, 165647, Note_on_c, 1, 54, 0
1, 165720, Note_on_c, 0, 69, 0
1, 165840, Note_on_c, 0, 71, 67
1, 165880, Note_on_c, 1, 55, 0
1, 165957, Note_on_c, 1, 62, 0
1, 166080, Note_on_c, 1, 57, 42
1, 166080, Note_on_c, 1, 62, 42
1, 166260, Note_on_c, 0, 71, 0
1, 166320, Note_on_c, 0, 72, 69
1, 166551, Note_on_c, 1, 57, 0
1, 166560, Note_on_c, 1, 54, 30
1, 166800, Note_on_c, 0, 76, 67
1, 166819, Note_on_c, 0, 72, 0
1, 166840, Note_on_c, 1, 54, 0
1, 166887, Note_on_c, 0, 76, 0
1, 166909, Note_on_c, 1, 62, 0
1, 166920, Note_on_c, 0, 74, 65
1, 167000, Note_on_c, 0, 74, 0
1, 167040, Note_on_c, 0, 72, 64
1, 167040, Note_on_c, 1, 62, 30
1, 167040, Note_on_c, 1, 55, 30
1, 167520, Note_on_c, 0, 71, 27
1, 167536, Note_on_c, 0, 72, 0
1, 167713, Note_on_c, 1, 55, 0
1, 167726, Note_on_c, 1, 62, 0
1, 167780, Note_on_c, 0, 71, 0
1, 168000, Note_on_c, 0, 72, 103
1, 168000, Note_on_c, 0, 67, 91
1, 168000, Note_on_c, 1, 64, 66
1, 168000, Note_on_c, 1, 52, 66
1, 168153, Note_on_c, 0, 67, 0
1, 168153, Note_on_c, 0, 72, 0
1, 168153, Note_on_c, 1, 52, 0
1, 168153, Note_on_c, 1, 64, 0
1, 168480, Note_on_c, 0, 67, 92
1, 168480, Note_on_c, 0, 71, 104
1, 168480, Note_on_c, 1, 62, 69
1, 168480, Note_on_c, 1, 50, 69
1, 168600, Note_on_c, 0, 71, 0
1, 168600, Note_on_c, 0, 67, 0
1, 168600, Note_on_c, 1, 50, 0
1, 168600, Note_on_c, 1, 62, 0
1, 168960, Note_on_c, 0, 76, 116
1, 168960, Note_on_c, 0, 67, 108
1, 168960, Note_on_c, 1, 48, 84
1, 168960, Note_on_c, 1, 60, 84
1, 169440, Note_on_c, 0, 67, 0
1, 169440, Note_on_c, 0, 76, 0
1, 169440, Note_on_c, 1, 60, 0
1, 169440, Note_on_c, 1, 48, 0
1, 169680, Note_on_c, 0, 74, 70
1, 169680, Note_on_c, 1, 59, 44
1, 169747, Note_on_c, 1, 59, 0
1, 169773, Note_on_c, 0, 74, 0
1, 169920, Note_on_c, 0, 74, 79
1, 169920, Note_on_c, 1, 62, 39
1, 169920, Note_on_c, 1, 54, 39
1, 170040, Note_on_c, 0, 72, 68
1, 170050, Note_on_c, 0, 74, 0
1, 170160, Note_on_c, 0, 71, 61
1, 170170, Note_on_c, 0, 72, 0
1, 170280, Note_on_c, 0, 69, 53
1, 170290, Note_on_c, 0, 71, 0
1, 170370, Note_on_c, 0, 69, 0
1, 170394, Note_on_c, 1, 54, 0
1, 170400, Note_on_c, 0, 72, 73
1, 170400, Note_on_c, 1, 55, 30
1, 170520, Note_on_c, 0, 71, 69
1, 170530, Note_on_c, 0, 72, 0
1, 170640, Note_on_c, 0, 69, 60
1, 170650, Note_on_c, 0, 71, 0
1, 170749, Note_on_c, 1, 55, 0
1, 170760, Note_on_c, 0, 67, 42
1, 170770, Note_on_c, 0, 69, 0
1, 170770, Note_on_c, 1, 62, 0
1, 170835, Note_on_c, 0, 67, 0
1, 170888, Note_on_c, 0, 71, 79
1, 170888, Note_on_c, 0, 67, 75
1, 170888, Note_on_c, 1, 50, 39
1, 170888, Note_on_c, 1, 62, 39
1, 171376, Note_on_c, 0, 69, 23
1, 171376, Note_on_c, 0, 66, 23
1, 171388, Note_on_c, 0, 67, 0
1, 171388, Note_on_c, 0, 71, 0
1, 171514, Note_on_c, 1, 50, 0
1, 171548, Note_on_c, 1, 62, 0
1, 171666, Note_on_c, 0, 69, 0
1, 171666, Note_on_c, 0, 66, 0
1, 171840, Note_on_c, 0, 70, 61
1, 171840, Note_on_c, 1, 55, 35
1, 171840, Note_on_c, 1, 62, 35
1, 172080, Note_on_c, 0, 71, 58
1, 172104, Note_on_c, 0, 70, 0
1, 172280, Note_on_c, 0, 74, 67
1, 172290, Note_on_c, 0, 71, 0
1, 172306, Note_on_c, 1, 55, 0
1, 172320, Note_on_c, 0, 72, 62
1, 172320, Note_on_c, 1, 57, 30
1, 172361, Note_on_c, 0, 74, 0
1, 172558, Note_on_c, 1, 57, 0
1, 172560, Note_on_c, 0, 71, 40
1, 172560, Note_on_c, 1, 55, 26
1, 172570, Note_on_c, 0, 72, 0
1, 172694, Note_on_c, 0, 71, 0
1, 172694, Note_on_c, 1, 62, 0
1, 172710, Note_on_c, 1, 55, 0
1, 172800, Note_on_c, 0, 68, 43
1, 172800, Note_on_c, 1, 62, 22
1, 172800, Note_on_c, 1, 54, 22
1, 173040, Note_on_c, 0, 69, 29
1, 173050, Note_on_c, 0, 68, 0
1, 173062, Note_on_c, 1, 54, 0
1, 173070, Note_on_c, 1, 62, 0
1, 173170, Note_on_c, 0, 69, 0
1, 173280, Note_on_c, 1, 55, 31
1, 173280, Note_on_c, 1, 62, 31
1, 173389, Note_on_c, 1, 62, 0
1, 173390, Note_on_c, 1, 55, 0
1, 173520, Note_on_c, 0, 72, 75
1, 173640, Note_on_c, 0, 71, 42
1, 173650, Note_on_c, 0, 72, 0
1, 173720, Note_on_c, 0, 71, 0
1, 173760, Note_on_c, 1, 62, 49
1, 173760, Note_on_c, 1, 57, 49
1, 173809, Note_on_c, 1, 57, 0
1, 173816, Note_on_c, 1, 62, 0
1, 174000, Note_on_c, 0, 74, 76
1, 174120, Note_on_c, 0, 72, 39
1, 174130, Note_on_c, 0, 74, 0
1, 174210, Note_on_c, 0, 72, 0
1, 174240, Note_on_c, 1, 54, 39
1, 174240, Note_on_c, 1, 62, 39
1, 174292, Note_on_c, 1, 54, 0
1, 174303, Note_on_c, 1, 62, 0
1, 174480, Note_on_c, 0, 76, 75
1, 174600, Note_on_c, 0, 74, 41
1, 174610, Note_on_c, 0, 76, 0
1, 174680, Note_on_c, 0, 74, 0
1, 174720, Note_on_c, 0, 72, 77
1, 174720, Note_on_c, 1, 55, 28
1, 174720, Note_on_c, 1, 62, 28
1, 175077, Note_on_c, 0, 72, 0
1, 175080, Note_on_c, 0, 74, 62
1, 175140, Note_on_c, 0, 72, 40
1, 175153, Note_on_c, 0, 74, 0
1, 175200, Note_on_c, 0, 71, 25
1, 175218, Note_on_c, 0, 72, 0
1, 175394, Note_on_c, 1, 55, 0
1, 175423, Note_on_c, 1, 62, 0
1, 175450, Note_on_c, 0, 71, 0
1, 175680, Note_on_c, 0, 67, 106
1, 175680, Note_on_c, 0, 72, 110
1, 175680, Note_on_c, 1, 52, 64
1, 175680, Note_on_c, 1, 64, 64
1, 175800, Note_on_c, 0, 72, 0
1, 175800, Note_on_c, 0, 67, 0
1, 175800, Note_on_c, 1, 64, 0
1, 175800, Note_on_c, 1, 52, 0
1, 176160, Note_on_c, 0, 71, 108
1, 176160, Note_on_c, 0, 67, 103
1, 176160, Note_on_c, 1, 62, 60
1, 176160, Note_on_c, 1, 50, 60
1, 176280, Note_on_c, 0, 67, 0
1, 176280, Note_on_c, 0, 71, 0
1, 176280, Note_on_c, 1, 50, 0
1, 176280, Note_on_c, 1, 62, 0
1, 176640, Note_on_c, 0, 76, 89
1, 176640, Note_on_c, 1, 48, 66
1, 176640, Note_on_c, 1, 60, 66
1, 176760, Note_on_c, 0, 76, 0
1, 176760, Note_on_c, 0, 78, 87
1, 176810, Note_on_c, 0, 78, 0
1, 176810, Note_on_c, 0, 76, 86
1, 176840, Note_on_c, 0, 75, 87
1, 176845, Note_on_c, 0, 76, 0
1, 176880, Note_on_c, 0, 76, 88
1, 176895, Note_on_c, 0, 75, 0
1, 176990, Note_on_c, 1, 48, 0
1, 177000, Note_on_c, 0, 78, 84
1, 177001, Note_on_c, 0, 76, 0
1, 177031, Note_on_c, 1, 60, 0
1, 177120, Note_on_c, 0, 79, 80
1, 177145, Note_on_c, 0, 78, 0
1, 177210, Note_on_c, 0, 79, 0
1, 177360, Note_on_c, 0, 72, 60
1, 177360, Note_on_c, 1, 67, 48
1, 177360, Note_on_c, 1, 64, 48
1, 177412, Note_on_c, 1, 64, 0
1, 177419, Note_on_c, 1, 67, 0
1, 177480, Note_on_c, 0, 72, 0
1, 177600, Note_on_c, 0, 71, 60
1, 177600, Note_on_c, 1, 62, 37
1, 177600, Note_on_c, 1, 67, 37
1, 177971, Note_on_c, 0, 71, 0
1, 178001, Note_on_c, 1, 67, 0
1, 178080, Note_on_c, 0, 71, 68
1, 178080, Note_on_c, 1, 66, 37
1, 178140, Note_on_c, 0, 69, 59
1, 178150, Note_on_c, 0, 71, 0
1, 178190, Note_on_c, 0, 71, 53
1, 178193, Note_on_c, 0, 69, 0
1, 178225, Note_on_c, 0, 71, 0
1, 178226, Note_on_c, 0, 69, 49
1, 178282, Note_on_c, 0, 71, 46
1, 178286, Note_on_c, 0, 69, 0
1, 178303, Note_on_c, 1, 62, 0
1, 178318, Note_on_c, 1, 66, 0
1, 178322, Note_on_c, 0, 71, 0
1, 178322, Note_on_c, 0, 69, 44
1, 178358, Note_on_c, 0, 69, 0
1, 178358, Note_on_c, 0, 71, 42
1, 178396, Note_on_c, 0, 69, 40
1, 178401, Note_on_c, 0, 71, 0
1, 178449, Note_on_c, 0, 69, 0
1, 178453, Note_on_c, 0, 67, 39
1, 178503, Note_on_c, 0, 67, 0
1, 178503, Note_on_c, 0, 69, 39
1, 178553, Note_on_c, 0, 69, 0
1, 178560, Note_on_c, 0, 67, 37
1, 178560, Note_on_c, 1, 55, 22
1, 178800, Note_on_c, 1, 59, 31
1, 179040, Note_on_c, 1, 62, 42
1, 179072, Note_on_c, 1, 59, 0
1, 179278, Note_on_c, 1, 62, 0
1, 179280, Note_on_c, 1, 59, 31
1, 179290, Note_on_c, 0, 67, 0
1, 179312, Note_on_c, 1, 55, 0
1, 179322, Note_on_c, 1, 59, 0
1, 179520, Note_on_c, 0, 71, 70
1, 179520, Note_on_c, 1, 48, 39
1, 179760, Note_on_c, 1, 52, 22
1, 180000, Note_on_c, 0, 69, 57
1, 180000, Note_on_c, 1, 57, 30
1, 180005, Note_on_c, 0, 71, 0
1, 180117, Note_on_c, 1, 52, 0
1, 180239, Note_on_c, 1, 57, 0
1, 180240, Note_on_c, 1, 52, 28
1, 180270, Note_on_c, 1, 48, 0
1, 180303, Note_on_c, 1, 52, 0
1, 180480, Note_on_c, 0, 67, 55
1, 180480, Note_on_c, 1, 50, 28
1, 180496, Note_on_c, 0, 69, 0
1, 180720, Note_on_c, 0, 66, 50
1, 180720, Note_on_c, 1, 60, 24
1, 180723, Note_on_c, 0, 67, 0
1, 180960, Note_on_c, 0, 64, 56
1, 180960, Note_on_c, 1, 57, 28
1, 180970, Note_on_c, 1, 60, 0
1, 180980, Note_on_c, 0, 66, 0
1, 181200, Note_on_c, 0, 62, 38
1, 181200, Note_on_c, 1, 60, 22
1, 181206, Note_on_c, 0, 64, 0
1, 181224, Note_on_c, 1, 57, 0
1, 181242, Note_on_c, 1, 50, 0
1, 181323, Note_on_c, 1, 60, 0
1, 181440, Note_on_c, 0, 71, 74
1, 181440, Note_on_c, 1, 55, 28
1, 181445, Note_on_c, 0, 62, 0
1, 181680, Note_on_c, 1, 59, 49
1, 181920, Note_on_c, 1, 62, 52
1, 181973, Note_on_c, 1, 59, 0
1, 182157, Note_on_c, 1, 55, 0
1, 182160, Note_on_c, 1, 59, 44
1, 182177, Note_on_c, 1, 62, 0
1, 182216, Note_on_c, 1, 59, 0
1, 182400, Note_on_c, 0, 67, 54
1, 182400, Note_on_c, 1, 52, 19
1, 182640, Note_on_c, 1, 55, 30
1, 182880, Note_on_c, 1, 59, 40
1, 182927, Note_on_c, 1, 55, 0
1, 182957, Note_on_c, 0, 67, 0
1, 183120, Note_on_c, 0, 67, 49
1, 183120, Note_on_c, 1, 55, 30
1, 183121, Note_on_c, 1, 59, 0
1, 183143, Note_on_c, 1, 52, 0
1, 183160, Note_on_c, 0, 69, 51
1, 183167, Note_on_c, 1, 55, 0
1, 183171, Note_on_c, 0, 67, 0
1, 183200, Note_on_c, 0, 67, 53
1, 183209, Note_on_c, 0, 69, 0
1, 183240, Note_on_c, 0, 66, 57
1, 183250, Note_on_c, 0, 67, 0
1, 183300, Note_on_c, 0, 67, 62
1, 183305, Note_on_c, 0, 66, 0
1, 183360, Note_on_c, 0, 71, 0
1, 183360, Note_on_c, 0, 71, 71
1, 183360, Note_on_c, 1, 48, 40
1, 183369, Note_on_c, 0, 67, 0
1, 183600, Note_on_c, 0, 69, 59
1, 183600, Note_on_c, 1, 52, 31
1, 183605, Note_on_c, 0, 71, 0
1, 183725, Note_on_c, 0, 69, 0
1, 183840, Note_on_c, 0, 69, 77
1, 183840, Note_on_c, 1, 57, 37
1, 183919, Note_on_c, 1, 52, 0
1, 184034, Note_on_c, 1, 57, 0
1, 184071, Note_on_c, 1, 48, 0
1, 184080, Note_on_c, 1, 52, 40
1, 184132, Note_on_c, 1, 52, 0
1, 184320, Note_on_c, 0, 67, 66
1, 184320, Note_on_c, 1, 50, 35
1, 184340, Note_on_c, 0, 69, 0
1, 184560, Note_on_c, 0, 66, 53
1, 184560, Note_on_c, 1, 60, 44
1, 184582, Note_on_c, 0, 67, 0
1, 184800, Note_on_c, 0, 64, 45
1, 184800, Note_on_c, 1, 57, 40
1, 184805, Note_on_c, 1, 60, 0
1, 184811, Note_on_c, 0, 66, 0
1, 185040, Note_on_c, 0, 62, 36
1, 185040, Note_on_c, 1, 60, 28
1, 185050, Note_on_c, 1, 57, 0
1, 185060, Note_on_c, 0, 64, 0
1, 185083, Note_on_c, 1, 50, 0
1, 185084, Note_on_c, 1, 60, 0
1, 185280, Note_on_c, 0, 67, 65
1, 185280, Note_on_c, 1, 43, 51
1, 185291, Note_on_c, 0, 62, 0
1, 185520, Note_on_c, 1, 55, 37
1, 185760, Note_on_c, 1, 59, 40
1, 185948, Note_on_c, 1, 59, 0
1, 186000, Note_on_c, 1, 62, 46
1, 186043, Note_on_c, 0, 67, 0
1, 186043, Note_on_c, 1, 55, 0
1, 186057, Note_on_c, 1, 43, 0
1, 186064, Note_on_c, 1, 62, 0
1, 186240, Note_on_c, 0, 67, 85
1, 186240, Note_on_c, 0, 79, 85
1, 186240, Note_on_c, 1, 40, 60
1, 186480, Note_on_c, 1, 52, 37
1, 186720, Note_on_c, 1, 55, 42
1, 186884, Note_on_c, 1, 55, 0
1, 186932, Note_on_c, 1, 40, 0
1, 186955, Note_on_c, 1, 52, 0
1, 186960, Note_on_c, 1, 59, 49
1, 187004, Note_on_c, 1, 59, 0
1, 187200, Note_on_c, 0, 71, 95
1, 187200, Note_on_c, 0, 83, 95
1, 187200, Note_on_c, 1, 36, 72
1, 187220, Note_on_c, 0, 79, 0
1, 187220, Note_on_c, 0, 67, 0
1, 187440, Note_on_c, 1, 48, 39
1, 187680, Note_on_c, 0, 81, 74
1, 187680, Note_on_c, 0, 69, 74
1, 187680, Note_on_c, 1, 52, 46
1, 187704, Note_on_c, 0, 71, 0
1, 187704, Note_on_c, 0, 83, 0
1, 187920, Note_on_c, 1, 57, 57
1, 187925, Note_on_c, 1, 52, 0
1, 187934, Note_on_c, 1, 48, 0
1, 187962, Note_on_c, 1, 57, 0
1, 188021, Note_on_c, 1, 36, 0
1, 188064, Note_on_c, 0, 81, 0
1, 188064, Note_on_c, 0, 69, 0
1, 188160, Note_on_c, 0, 79, 76
1, 188160, Note_on_c, 0, 67, 76
1, 188160, Note_on_c, 1, 38, 71
1, 188400, Note_on_c, 0, 67, 0
1, 188400, Note_on_c, 0, 79, 0
1, 188400, Note_on_c, 0, 78, 77
1, 188400, Note_on_c, 0, 66, 77
1, 188400, Note_on_c, 1, 50, 51
1, 188640, Note_on_c, 0, 64, 80
1, 188640, Note_on_c, 0, 76, 80
1, 188640, Note_on_c, 1, 57, 60
1, 188661, Note_on_c, 0, 66, 0
1, 188661, Note_on_c, 0, 78, 0
1, 188875, Note_on_c, 1, 57, 0
1, 188880, Note_on_c, 0, 74, 85
1, 188880, Note_on_c, 0, 62, 85
1, 188880, Note_on_c, 1, 60, 53
1, 188893, Note_on_c, 0, 64, 0
1, 188893, Note_on_c, 0, 76, 0
1, 188947, Note_on_c, 1, 60, 0
1, 188969, Note_on_c, 1, 50, 0
1, 188975, Note_on_c, 1, 38, 0
1, 189120, Note_on_c, 0, 74, 92
1, 189120, Note_on_c, 0, 86, 92
1, 189120, Note_on_c, 0, 86, 99
1, 189120, Note_on_c, 0, 74, 99
1, 189120, Note_on_c, 1, 35, 79
1, 189123, Note_on_c, 0, 74, 0
1, 189123, Note_on_c, 0, 62, 0
1, 189360, Note_on_c, 1, 47, 49
1, 189600, Note_on_c, 1, 50, 60
1, 189806, Note_on_c, 1, 35, 0
1, 189820, Note_on_c, 1, 50, 0
1, 189840, Note_on_c, 1, 55, 59
1, 189847, Note_on_c, 1, 47, 0
1, 189880, Note_on_c, 1, 55, 0
1, 190080, Note_on_c, 0, 79, 78
1, 190080, Note_on_c, 0, 67, 78
1, 190080, Note_on_c, 1, 40, 82
1, 190086, Note_on_c, 0, 74, 0
1, 190086, Note_on_c, 0, 86, 0
1, 190086, Note_on_c, 0, 86, 0
1, 190086, Note_on_c, 0, 74, 0
1, 190320, Note_on_c, 1, 52, 49
1, 190347, Note_on_c, 0, 79, 0
1, 190347, Note_on_c, 0, 67, 0
1, 190560, Note_on_c, 0, 79, 90
1, 190560, Note_on_c, 0, 67, 90
1, 190560, Note_on_c, 1, 55, 55
1, 190729, Note_on_c, 1, 52, 0
1, 190744, Note_on_c, 1, 40, 0
1, 190765, Note_on_c, 1, 55, 0
1, 190800, Note_on_c, 1, 59, 64
1, 190833, Note_on_c, 1, 59, 0
1, 191020, Note_on_c, 0, 67, 0
1, 191020, Note_on_c, 0, 79, 0
1, 191040, Note_on_c, 0, 83, 103
1, 191040, Note_on_c, 0, 71, 103
1, 191040, Note_on_c, 1, 36, 82
1, 191280, Note_on_c, 0, 81, 91
1, 191280, Note_on_c, 0, 69, 91
1, 191280, Note_on_c, 1, 48, 47
1, 191303, Note_on_c, 0, 71, 0
1, 191303, Note_on_c, 0, 83, 0
1, 191345, Note_on_c, 0, 81, 0
1, 191345, Note_on_c, 0, 69, 0
1, 191520, Note_on_c, 0, 69, 87
1, 191520, Note_on_c, 0, 81, 87
1, 191520, Note_on_c, 1, 52, 53
1, 191571, Note_on_c, 0, 81, 0
1, 191571, Note_on_c, 0, 69, 0
1, 191724, Note_on_c, 1, 52, 0
1, 191755, Note_on_c, 1, 48, 0
1, 191760, Note_on_c, 0, 69, 83
1, 191760, Note_on_c, 0, 81, 83
1, 191760, Note_on_c, 1, 57, 59
1, 191790, Note_on_c, 1, 36, 0
1, 191793, Note_on_c, 1, 57, 0
1, 191800, Note_on_c, 0, 81, 0
1, 191800, Note_on_c, 0, 69, 0
1, 192000, Note_on_c, 0, 79, 75
1, 192000, Note_on_c, 0, 67, 75
1, 192000, Note_on_c, 1, 38, 73
1, 192240, Note_on_c, 0, 78, 66
1, 192240, Note_on_c, 0, 66, 66
1, 192240, Note_on_c, 1, 50, 39
1, 192255, Note_on_c, 0, 67, 0
1, 192255, Note_on_c, 0, 79, 0
1, 192480, Note_on_c, 0, 64, 59
1, 192480, Note_on_c, 0, 76, 59
1, 192480, Note_on_c, 1, 57, 34
1, 192495, Note_on_c, 0, 78, 0
1, 192495, Note_on_c, 0, 66, 0
1, 192585, Note_on_c, 1, 38, 0
1, 192681, Note_on_c, 1, 50, 0
1, 192703, Note_on_c, 1, 57, 0
1, 192720, Note_on_c, 0, 74, 43
1, 192720, Note_on_c, 0, 62, 43
1, 192720, Note_on_c, 1, 60, 26
1, 192735, Note_on_c, 0, 64, 0
1, 192735, Note_on_c, 0, 76, 0
1, 192766, Note_on_c, 1, 60, 0
1, 192950, Note_on_c, 0, 74, 0
1, 192950, Note_on_c, 0, 62, 0
1, 192960, Note_on_c, 0, 79, 51
1, 192960, Note_on_c, 0, 67, 51
1, 192960, Note_on_c, 1, 55, 48
1, 193200, Note_on_c, 1, 59, 31
1, 193200, Note_on_c, 1, 62, 31
1, 193235, Note_on_c, 1, 62, 0
1, 193235, Note_on_c, 1, 59, 0
1, 193431, Note_on_c, 1, 55, 0
1, 193440, Note_on_c, 1, 62, 28
1, 193440, Note_on_c, 1, 59, 28
1, 193478, Note_on_c, 1, 59, 0
1, 193478, Note_on_c, 1, 62, 0
1, 193680, Note_on_c, 1, 62, 27
1, 193680, Note_on_c, 1, 59, 27
1, 193716, Note_on_c, 1, 59, 0
1, 193716, Note_on_c, 1, 62, 0
1, 193855, Note_on_c, 0, 67, 0
1, 193855, Note_on_c, 0, 79, 0
1, 193920, Note_on_c, 0, 83, 67
1, 193920, Note_on_c, 1, 50, 48
1, 194160, Note_on_c, 0, 81, 58
1, 194160, Note_on_c, 1, 60, 38
1, 194160, Note_on_c, 1, 62, 38
1, 194170, Note_on_c, 0, 83, 0
1, 194177, Note_on_c, 1, 50, 0
1, 194192, Note_on_c, 1, 60, 0
1, 194196, Note_on_c, 1, 62, 0
1, 194240, Note_on_c, 0, 81, 0
1, 194400, Note_on_c, 0, 81, 68
1, 194400, Note_on_c, 1, 62, 28
1, 194400, Note_on_c, 1, 60, 28
1, 194440, Note_on_c, 1, 60, 0
1, 194444, Note_on_c, 1, 62, 0
1, 194640, Note_on_c, 0, 78, 54
1, 194640, Note_on_c, 1, 62, 26
1, 194640, Note_on_c, 1, 60, 26
1, 194650, Note_on_c, 0, 81, 0
1, 194683, Note_on_c, 1, 60, 0
1, 194688, Note_on_c, 1, 62, 0
1, 194730, Note_on_c, 0, 78, 0
1, 194880, Note_on_c, 0, 79, 78
1, 194880, Note_on_c, 1, 55, 47
1, 195120, Note_on_c, 0, 83, 66
1, 195120, Note_on_c, 1, 59, 33
1, 195120, Note_on_c, 1, 62, 33
1, 195130, Note_on_c, 0, 79, 0
1, 195154, Note_on_c, 1, 55, 0
1, 195162, Note_on_c, 1, 59, 0
1, 195164, Note_on_c, 1, 62, 0
1, 195360, Note_on_c, 0, 86, 49
1, 195360, Note_on_c, 1, 62, 24
1, 195360, Note_on_c, 1, 59, 24
1, 195370, Note_on_c, 0, 83, 0
1, 195410, Note_on_c, 1, 59, 0
1, 195418, Note_on_c, 1, 62, 0
1, 195500, Note_on_c, 0, 86, 0
1, 195600, Note_on_c, 1, 62, 24
1, 195600, Note_on_c, 1, 59, 24
1, 195644, Note_on_c, 1, 59, 0
1, 195652, Note_on_c, 1, 62, 0
1, 195840, Note_on_c, 0, 83, 78
1, 195840, Note_on_c, 1, 50, 48
1, 195840, Note_on_c, 1, 50, 48
1, 196080, Note_on_c, 0, 81, 57
1, 196080, Note_on_c, 1, 60, 31
1, 196080, Note_on_c, 1, 62, 31
1, 196092, Note_on_c, 0, 83, 0
1, 196119, Note_on_c, 1, 60, 0
1, 196123, Note_on_c, 1, 62, 0
1, 196125, Note_on_c, 1, 50, 0
1, 196125, Note_on_c, 1, 50, 0
1, 196130, Note_on_c, 0, 81, 0
1, 196320, Note_on_c, 0, 81, 73
1, 196320, Note_on_c, 1, 60, 26
1, 196320, Note_on_c, 1, 62, 26
1, 196360, Note_on_c, 1, 62, 0
1, 196361, Note_on_c, 1, 60, 0
1, 196560, Note_on_c, 0, 78, 52
1, 196560, Note_on_c, 1, 62, 26
1, 196560, Note_on_c, 1, 60, 26
1, 196570, Note_on_c, 0, 81, 0
1, 196602, Note_on_c, 1, 60, 0
1, 196605, Note_on_c, 1, 62, 0
1, 196620, Note_on_c, 0, 78, 0
1, 196800, Note_on_c, 0, 67, 83
1, 196800, Note_on_c, 0, 79, 83
1, 196800, Note_on_c, 1, 59, 41
1, 196800, Note_on_c, 1, 55, 41
1, 196800, Note_on_c, 1, 62, 41
1, 196950, Note_on_c, 1, 62, 0
1, 196950, Note_on_c, 1, 55, 0
1, 196950, Note_on_c, 1, 59, 0
1, 197040, Note_on_c, 0, 71, 61
1, 197040, Note_on_c, 0, 83, 61
1, 197050, Note_on_c, 0, 79, 0
1, 197050, Note_on_c, 0, 67, 0
1, 197235, Note_on_c, 0, 71, 0
1, 197235, Note_on_c, 0, 83, 0
1, 197280, Note_on_c, 0, 74, 51
1, 197280, Note_on_c, 0, 86, 51
1, 197280, Note_on_c, 1, 54, 28
1, 197280, Note_on_c, 1, 60, 28
1, 197280, Note_on_c, 1, 50, 28
1, 197341, Note_on_c, 0, 86, 0
1, 197341, Note_on_c, 0, 74, 0
1, 197400, Note_on_c, 1, 50, 0
1, 197400, Note_on_c, 1, 60, 0
1, 197400, Note_on_c, 1, 54, 0
1, 197520, Note_on_c, 0, 74, 41
1, 197520, Note_on_c, 0, 86, 41
1, 197576, Note_on_c, 0, 86, 0
1, 197576, Note_on_c, 0, 74, 0
1, 197774, Note_on_c, 0, 67, 53
1, 197774, Note_on_c, 0, 79, 53
1, 197774, Note_on_c, 1, 59, 37
1, 197774, Note_on_c, 1, 55, 37
1, 197994, Note_on_c, 1, 55, 0
1, 197994, Note_on_c, 1, 59, 0
1, 198009, Note_on_c, 0, 71, 40
1, 198009, Note_on_c, 0, 83, 40
1, 198041, Note_on_c, 0, 79, 0
1, 198041, Note_on_c, 0, 67, 0
1, 198229, Note_on_c, 0, 71, 0
1, 198229, Note_on_c, 0, 83, 0
1, 198240, Note_on_c, 0, 86, 35
1, 198240, Note_on_c, 0, 74, 35
1, 198240, Note_on_c, 1, 50, 28
1, 198240, Note_on_c, 1, 60, 28
1, 198240, Note_on_c, 1, 54, 28
1, 198292, Note_on_c, 0, 74, 0
1, 198292, Note_on_c, 0, 86, 0
1, 198342, Note_on_c, 1, 60, 0
1, 198349, Note_on_c, 1, 50, 0
1, 198361, Note_on_c, 1, 54, 0
1, 198480, Note_on_c, 0, 86, 28
1, 198480, Note_on_c, 0, 74, 28
1, 198520, Note_on_c, 0, 74, 0
1, 198520, Note_on_c, 0, 86, 0
1, 198720, Note_on_c, 0, 86, 33
1, 198720, Note_on_c, 0, 74, 33
1, 198720, Note_on_c, 1, 55, 19
1, 198720, Note_on_c, 1, 59, 19
1, 199680, Note_on_c, 0, 79, 15
1, 199680, Note_on_c, 0, 67, 15
1, 199702, Note_on_c, 0, 74, 0
1, 199702, Note_on_c, 0, 86, 0
1, 200545, Note_on_c, 0, 79, 0
1, 200545, Note_on_c, 0, 67, 0
1, 200819, Note_on_c, 1, 55, 0
1, 200823, Note_on_c, 1, 59, 0
1, 200833, End_track
0, 0, End_of_file