0, 0, Header, 0, 1, 480
1, 0, Start_track
1, 0, Tempo, 483870
1, 960, Note_on_c, 1, 70, 60
1, 960, Note_on_c, 2, 58, 46
1, 960, Note_on_c, 2, 62, 46
1, 1097, Note_on_c, 1, 72, 63
1, 1110, Note_on_c, 1, 70, 0
1, 1160, Note_on_c, 1, 70, 54
1, 1167, Note_on_c, 1, 72, 0
1, 1215, Note_on_c, 1, 70, 0
1, 1215, Note_on_c, 1, 72, 57
1, 1265, Note_on_c, 1, 70, 59
1, 1275, Note_on_c, 1, 72, 0
1, 1325, Note_on_c, 1, 70, 0
1, 1325, Note_on_c, 1, 72, 74
1, 1415, Note_on_c, 1, 70, 83
1, 1435, Note_on_c, 1, 72, 0
1, 1590, Note_on_c, 1, 72, 55
1, 1642, Note_on_c, 1, 70, 0
1, 1750, Note_on_c, 1, 74, 68
1, 1795, Note_on_c, 1, 72, 0
1, 1910, Note_on_c, 2, 63, 54
1, 1910, Note_on_c, 2, 60, 61
1, 1915, Note_on_c, 1, 70, 61
1, 1940, Note_on_c, 1, 74, 0
1, 1943, Note_on_c, 2, 62, 0
1, 1952, Note_on_c, 2, 58, 0
1, 2077, Note_on_c, 1, 69, 62
1, 2102, Note_on_c, 1, 70, 0
1, 2230, Note_on_c, 1, 72, 66
1, 2265, Note_on_c, 1, 69, 0
1, 2395, Note_on_c, 1, 70, 63
1, 2462, Note_on_c, 1, 72, 0
1, 2557, Note_on_c, 1, 69, 61
1, 2595, Note_on_c, 1, 70, 0
1, 2710, Note_on_c, 1, 75, 66
1, 2720, Note_on_c, 1, 69, 0
1, 2880, Note_on_c, 2, 65, 63
1, 2880, Note_on_c, 2, 62, 49
1, 2882, Note_on_c, 1, 75, 0
1, 2882, Note_on_c, 1, 72, 73
1, 2900, Note_on_c, 2, 63, 0
1, 2910, Note_on_c, 2, 60, 0
1, 3037, Note_on_c, 1, 70, 53
1, 3057, Note_on_c, 1, 72, 0
1, 3190, Note_on_c, 1, 74, 52
1, 3245, Note_on_c, 1, 70, 0
1, 3355, Note_on_c, 1, 72, 68
1, 3382, Note_on_c, 1, 74, 0
1, 3515, Note_on_c, 1, 70, 53
1, 3657, Note_on_c, 1, 72, 0
1, 3667, Note_on_c, 1, 77, 64
1, 3672, Note_on_c, 1, 70, 0
1, 3855, Note_on_c, 1, 74, 54
1, 3877, Note_on_c, 2, 62, 0
1, 3885, Note_on_c, 1, 77, 0
1, 3900, Note_on_c, 2, 65, 0
1, 4342, Note_on_c, 1, 74, 0
1, 4800, Note_on_c, 1, 70, 86
1, 4800, Note_on_c, 1, 79, 94
1, 4800, Note_on_c, 1, 75, 99
1, 4800, Note_on_c, 2, 63, 115
1, 4800, Note_on_c, 2, 51, 94
1, 5045, Note_on_c, 1, 75, 0
1, 5053, Note_on_c, 2, 51, 0
1, 5060, Note_on_c, 1, 79, 0
1, 5060, Note_on_c, 2, 63, 0
1, 5062, Note_on_c, 1, 70, 0
1, 5280, Note_on_c, 2, 58, 108
1, 5280, Note_on_c, 2, 46, 119
1, 5287, Note_on_c, 1, 77, 83
1, 5287, Note_on_c, 1, 74, 84
1, 5287, Note_on_c, 1, 70, 73
1, 5457, Note_on_c, 1, 74, 0
1, 5460, Note_on_c, 1, 70, 0
1, 5475, Note_on_c, 2, 46, 0
1, 5485, Note_on_c, 1, 77, 0
1, 5502, Note_on_c, 2, 58, 0
1, 5765, Note_on_c, 1, 77, 97
1, 5875, Note_on_c, 1, 82, 77
1, 5897, Note_on_c, 1, 77, 0
1, 6002, Note_on_c, 1, 81, 79
1, 6042, Note_on_c, 1, 82, 0
1, 6107, Note_on_c, 1, 82, 74
1, 6135, Note_on_c, 1, 81, 0
1, 6235, Note_on_c, 1, 84, 97
1, 6260, Note_on_c, 1, 82, 0
1, 6347, Note_on_c, 1, 82, 81
1, 6402, Note_on_c, 1, 84, 0
1, 6475, Note_on_c, 1, 81, 70
1, 6487, Note_on_c, 1, 82, 0
1, 6567, Note_on_c, 1, 82, 54
1, 6590, Note_on_c, 1, 81, 0
1, 6602, Note_on_c, 1, 82, 0
1, 6710, Note_on_c, 2, 53, 83
1, 6715, Note_on_c, 2, 41, 83
1, 6725, Note_on_c, 1, 74, 90
1, 6727, Note_on_c, 1, 77, 90
1, 6845, Note_on_c, 1, 75, 83
1, 6847, Note_on_c, 1, 72, 70
1, 6862, Note_on_c, 1, 74, 0
1, 6872, Note_on_c, 1, 77, 0
1, 6950, Note_on_c, 2, 41, 0
1, 6960, Note_on_c, 2, 53, 0
1, 7137, Note_on_c, 1, 75, 0
1, 7157, Note_on_c, 1, 72, 0
1, 7197, Note_on_c, 2, 58, 86
1, 7207, Note_on_c, 1, 74, 62
1, 7207, Note_on_c, 1, 70, 59
1, 7207, Note_on_c, 2, 46, 83
1, 7415, Note_on_c, 1, 70, 0
1, 7420, Note_on_c, 2, 58, 0
1, 7425, Note_on_c, 1, 74, 0
1, 7427, Note_on_c, 2, 46, 0
1, 8630, Note_on_c, 2, 46, 54
1, 8630, Note_on_c, 2, 50, 54
1, 8660, Note_on_c, 1, 58, 42
1, 8777, Note_on_c, 1, 60, 51
1, 8787, Note_on_c, 1, 58, 0
1, 8865, Note_on_c, 1, 58, 53
1, 8875, Note_on_c, 1, 60, 0
1, 8925, Note_on_c, 1, 58, 0
1, 8927, Note_on_c, 1, 60, 57
1, 8980, Note_on_c, 1, 58, 53
1, 8995, Note_on_c, 1, 60, 0
1, 9040, Note_on_c, 1, 60, 63
1, 9052, Note_on_c, 1, 58, 0
1, 9125, Note_on_c, 1, 58, 49
1, 9147, Note_on_c, 1, 60, 0
1, 9280, Note_on_c, 1, 60, 59
1, 9322, Note_on_c, 1, 58, 0
1, 9427, Note_on_c, 1, 62, 55
1, 9465, Note_on_c, 1, 60, 0
1, 9580, Note_on_c, 2, 51, 68
1, 9592, Note_on_c, 2, 48, 61
1, 9595, Note_on_c, 1, 58, 57
1, 9622, Note_on_c, 1, 62, 0
1, 9637, Note_on_c, 2, 50, 0
1, 9642, Note_on_c, 2, 46, 0
1, 9745, Note_on_c, 1, 57, 49
1, 9785, Note_on_c, 1, 58, 0
1, 9895, Note_on_c, 1, 60, 52
1, 9977, Note_on_c, 1, 57, 0
1, 10075, Note_on_c, 1, 58, 59
1, 10117, Note_on_c, 1, 60, 0
1, 10232, Note_on_c, 1, 57, 59
1, 10272, Note_on_c, 1, 58, 0
1, 10387, Note_on_c, 1, 63, 55
1, 10520, Note_on_c, 1, 57, 0
1, 10545, Note_on_c, 1, 60, 70
1, 10555, Note_on_c, 1, 63, 0
1, 10572, Note_on_c, 2, 53, 57
1, 10572, Note_on_c, 2, 50, 47
1, 10602, Note_on_c, 2, 51, 0
1, 10617, Note_on_c, 2, 48, 0
1, 10700, Note_on_c, 1, 58, 40
1, 10722, Note_on_c, 1, 60, 0
1, 10862, Note_on_c, 1, 62, 47
1, 10925, Note_on_c, 1, 58, 0
1, 11040, Note_on_c, 1, 60, 68
1, 11050, Note_on_c, 1, 62, 0
1, 11197, Note_on_c, 1, 58, 48
1, 11220, Note_on_c, 1, 60, 0
1, 11352, Note_on_c, 1, 65, 45
1, 11370, Note_on_c, 1, 58, 0
1, 11525, Note_on_c, 1, 62, 45
1, 11545, Note_on_c, 1, 65, 0
1, 11735, Note_on_c, 2, 50, 0
1, 11755, Note_on_c, 2, 53, 0
1, 12005, Note_on_c, 1, 62, 0
1, 12295, Note_on_c, 2, 51, 79
1, 12370, Note_on_c, 2, 55, 97
1, 12465, Note_on_c, 1, 67, 81
1, 12465, Note_on_c, 2, 60, 102
1, 12635, Note_on_c, 1, 72, 77
1, 12657, Note_on_c, 1, 67, 0
1, 12787, Note_on_c, 1, 75, 92
1, 12810, Note_on_c, 1, 72, 0
1, 12945, Note_on_c, 1, 75, 0
1, 12955, Note_on_c, 1, 72, 97
1, 13107, Note_on_c, 1, 75, 97
1, 13140, Note_on_c, 1, 72, 0
1, 13265, Note_on_c, 1, 79, 86
1, 13310, Note_on_c, 1, 75, 0
1, 13342, Note_on_c, 1, 79, 0
1, 13430, Note_on_c, 2, 62, 99
1, 13430, Note_on_c, 2, 53, 77
1, 13440, Note_on_c, 1, 79, 94
1, 13457, Note_on_c, 2, 60, 0
1, 13457, Note_on_c, 2, 51, 0
1, 13487, Note_on_c, 2, 55, 0
1, 13555, Note_on_c, 1, 77, 83
1, 13575, Note_on_c, 1, 79, 0
1, 13680, Note_on_c, 1, 75, 90
1, 13707, Note_on_c, 1, 77, 0
1, 13785, Note_on_c, 1, 74, 102
1, 13815, Note_on_c, 1, 75, 0
1, 13857, Note_on_c, 1, 74, 0
1, 13905, Note_on_c, 2, 63, 97
1, 13915, Note_on_c, 1, 74, 97
1, 13937, Note_on_c, 2, 62, 0
1, 14030, Note_on_c, 1, 72, 83
1, 14050, Note_on_c, 1, 74, 0
1, 14160, Note_on_c, 1, 70, 88
1, 14170, Note_on_c, 1, 72, 0
1, 14275, Note_on_c, 1, 69, 73
1, 14290, Note_on_c, 1, 70, 0
1, 14315, Note_on_c, 2, 63, 0
1, 14385, Note_on_c, 2, 53, 0
1, 14395, Note_on_c, 2, 62, 69
1, 14400, Note_on_c, 2, 58, 73
1, 14407, Note_on_c, 1, 70, 91
1, 14425, Note_on_c, 1, 69, 0
1, 14475, Note_on_c, 2, 58, 0
1, 14480, Note_on_c, 2, 62, 0
1, 14637, Note_on_c, 2, 62, 69
1, 14637, Note_on_c, 2, 58, 62
1, 14685, Note_on_c, 2, 58, 0
1, 14692, Note_on_c, 2, 62, 0
1, 14880, Note_on_c, 2, 58, 43
1, 14880, Note_on_c, 2, 62, 60
1, 14927, Note_on_c, 2, 58, 0
1, 14942, Note_on_c, 2, 62, 0
1, 15115, Note_on_c, 2, 62, 61
1, 15120, Note_on_c, 2, 58, 45
1, 15167, Note_on_c, 2, 58, 0
1, 15180, Note_on_c, 2, 62, 0
1, 15352, Note_on_c, 2, 62, 57
1, 15352, Note_on_c, 2, 58, 46
1, 15355, Note_on_c, 1, 70, 0
1, 15417, Note_on_c, 2, 58, 0
1, 15427, Note_on_c, 2, 62, 0
1, 15597, Note_on_c, 2, 58, 37
1, 15597, Note_on_c, 2, 62, 55
1, 15605, Note_on_c, 1, 70, 86
1, 15647, Note_on_c, 2, 58, 0
1, 15660, Note_on_c, 2, 62, 0
1, 15835, Note_on_c, 2, 62, 61
1, 15837, Note_on_c, 2, 58, 45
1, 15845, Note_on_c, 1, 69, 77
1, 15867, Note_on_c, 1, 70, 0
1, 15892, Note_on_c, 2, 58, 0
1, 15905, Note_on_c, 2, 62, 0
1, 16080, Note_on_c, 1, 68, 67
1, 16092, Note_on_c, 2, 62, 55
1, 16100, Note_on_c, 2, 58, 45
1, 16102, Note_on_c, 1, 69, 0
1, 16145, Note_on_c, 2, 58, 0
1, 16162, Note_on_c, 2, 62, 0
1, 16320, Note_on_c, 1, 67, 72
1, 16337, Note_on_c, 2, 63, 86
1, 16337, Note_on_c, 2, 58, 67
1, 16340, Note_on_c, 1, 68, 0
1, 16405, Note_on_c, 2, 58, 0
1, 16425, Note_on_c, 2, 63, 0
1, 16567, Note_on_c, 1, 69, 66
1, 16577, Note_on_c, 2, 63, 45
1, 16592, Note_on_c, 1, 67, 0
1, 16592, Note_on_c, 2, 58, 45
1, 16650, Note_on_c, 2, 58, 0
1, 16650, Note_on_c, 2, 63, 0
1, 16675, Note_on_c, 1, 70, 55
1, 16710, Note_on_c, 1, 69, 0
1, 16802, Note_on_c, 2, 63, 61
1, 16805, Note_on_c, 1, 70, 0
1, 16810, Note_on_c, 2, 58, 52
1, 16812, Note_on_c, 1, 72, 64
1, 16865, Note_on_c, 2, 58, 0
1, 16877, Note_on_c, 2, 63, 0
1, 16922, Note_on_c, 1, 74, 65
1, 16947, Note_on_c, 1, 72, 0
1, 17035, Note_on_c, 1, 75, 86
1, 17042, Note_on_c, 2, 63, 66
1, 17042, Note_on_c, 2, 58, 50
1, 17067, Note_on_c, 1, 74, 0
1, 17102, Note_on_c, 2, 58, 0
1, 17112, Note_on_c, 2, 63, 0
1, 17155, Note_on_c, 1, 77, 73
1, 17160, Note_on_c, 1, 75, 0
1, 17277, Note_on_c, 2, 63, 77
1, 17277, Note_on_c, 2, 58, 57
1, 17297, Note_on_c, 1, 77, 0
1, 17297, Note_on_c, 1, 79, 94
1, 17332, Note_on_c, 2, 58, 0
1, 17342, Note_on_c, 2, 63, 0
1, 17400, Note_on_c, 1, 81, 90
1, 17435, Note_on_c, 1, 79, 0
1, 17520, Note_on_c, 2, 63, 75
1, 17522, Note_on_c, 2, 58, 48
1, 17530, Note_on_c, 1, 82, 90
1, 17552, Note_on_c, 1, 81, 0
1, 17590, Note_on_c, 2, 63, 0
1, 17595, Note_on_c, 2, 58, 0
1, 17637, Note_on_c, 1, 81, 90
1, 17675, Note_on_c, 1, 82, 0
1, 17767, Note_on_c, 2, 63, 66
1, 17770, Note_on_c, 1, 82, 97
1, 17772, Note_on_c, 2, 58, 53
1, 17797, Note_on_c, 1, 81, 0
1, 17835, Note_on_c, 2, 58, 0
1, 17845, Note_on_c, 2, 63, 0
1, 17880, Note_on_c, 1, 81, 86
1, 17907, Note_on_c, 1, 82, 0
1, 18000, Note_on_c, 1, 82, 75
1, 18005, Note_on_c, 2, 63, 59
1, 18007, Note_on_c, 2, 58, 51
1, 18050, Note_on_c, 1, 81, 0
1, 18070, Note_on_c, 2, 58, 0
1, 18075, Note_on_c, 2, 63, 0
1, 18090, Note_on_c, 1, 79, 68
1, 18202, Note_on_c, 1, 82, 0
1, 18240, Note_on_c, 1, 77, 53
1, 18240, Note_on_c, 2, 62, 70
1, 18240, Note_on_c, 2, 58, 53
1, 18247, Note_on_c, 1, 79, 0
1, 18312, Note_on_c, 2, 62, 0
1, 18315, Note_on_c, 2, 58, 0
1, 18480, Note_on_c, 2, 58, 31
1, 18482, Note_on_c, 2, 62, 44
1, 18545, Note_on_c, 2, 62, 0
1, 18550, Note_on_c, 2, 58, 0
1, 18715, Note_on_c, 2, 58, 36
1, 18720, Note_on_c, 2, 62, 49
1, 18787, Note_on_c, 2, 62, 0
1, 18790, Note_on_c, 2, 58, 0
1, 18902, Note_on_c, 1, 77, 0
1, 18960, Note_on_c, 2, 58, 32
1, 18965, Note_on_c, 2, 62, 50
1, 19020, Note_on_c, 2, 62, 0
1, 19040, Note_on_c, 2, 58, 0
1, 19195, Note_on_c, 2, 58, 34
1, 19197, Note_on_c, 2, 62, 51
1, 19277, Note_on_c, 2, 62, 0
1, 19280, Note_on_c, 2, 58, 0
1, 19435, Note_on_c, 2, 58, 38
1, 19437, Note_on_c, 2, 62, 50
1, 19452, Note_on_c, 1, 70, 79
1, 19500, Note_on_c, 2, 58, 0
1, 19510, Note_on_c, 2, 62, 0
1, 19682, Note_on_c, 1, 69, 73
1, 19700, Note_on_c, 2, 62, 53
1, 19702, Note_on_c, 2, 58, 35
1, 19725, Note_on_c, 1, 70, 0
1, 19775, Note_on_c, 2, 58, 0
1, 19775, Note_on_c, 2, 62, 0
1, 19920, Note_on_c, 1, 68, 70
1, 19940, Note_on_c, 1, 69, 0
1, 19940, Note_on_c, 2, 62, 55
1, 19942, Note_on_c, 2, 58, 33
1, 20005, Note_on_c, 2, 62, 0
1, 20012, Note_on_c, 2, 58, 0
1, 20165, Note_on_c, 1, 67, 79
1, 20170, Note_on_c, 2, 58, 63
1, 20170, Note_on_c, 2, 63, 77
1, 20172, Note_on_c, 1, 68, 0
1, 20275, Note_on_c, 2, 63, 0
1, 20275, Note_on_c, 2, 58, 0
1, 20400, Note_on_c, 1, 69, 77
1, 20422, Note_on_c, 1, 67, 0
1, 20427, Note_on_c, 2, 58, 36
1, 20427, Note_on_c, 2, 63, 42
1, 20490, Note_on_c, 2, 58, 0
1, 20500, Note_on_c, 2, 63, 0
1, 20510, Note_on_c, 1, 70, 94
1, 20542, Note_on_c, 1, 69, 0
1, 20635, Note_on_c, 1, 70, 0
1, 20637, Note_on_c, 1, 72, 69
1, 20647, Note_on_c, 2, 63, 45
1, 20655, Note_on_c, 2, 58, 36
1, 20730, Note_on_c, 2, 58, 0
1, 20730, Note_on_c, 2, 63, 0
1, 20745, Note_on_c, 1, 74, 67
1, 20765, Note_on_c, 1, 72, 0
1, 20875, Note_on_c, 1, 75, 74
1, 20875, Note_on_c, 2, 58, 37
1, 20875, Note_on_c, 2, 63, 45
1, 20912, Note_on_c, 1, 74, 0
1, 20955, Note_on_c, 2, 63, 0
1, 20955, Note_on_c, 2, 58, 0
1, 20985, Note_on_c, 1, 77, 68
1, 21000, Note_on_c, 1, 75, 0
1, 21112, Note_on_c, 1, 79, 90
1, 21115, Note_on_c, 2, 58, 37
1, 21115, Note_on_c, 2, 63, 43
1, 21132, Note_on_c, 1, 77, 0
1, 21190, Note_on_c, 2, 63, 0
1, 21195, Note_on_c, 2, 58, 0
1, 21225, Note_on_c, 1, 81, 83
1, 21267, Note_on_c, 1, 79, 0
1, 21345, Note_on_c, 2, 63, 42
1, 21347, Note_on_c, 2, 58, 41
1, 21357, Note_on_c, 1, 82, 92
1, 21392, Note_on_c, 1, 81, 0
1, 21420, Note_on_c, 2, 58, 0
1, 21425, Note_on_c, 2, 63, 0
1, 21472, Note_on_c, 1, 81, 83
1, 21505, Note_on_c, 1, 82, 0
1, 21582, Note_on_c, 2, 58, 39
1, 21582, Note_on_c, 2, 63, 46
1, 21592, Note_on_c, 1, 82, 84
1, 21630, Note_on_c, 1, 81, 0
1, 21670, Note_on_c, 2, 63, 0
1, 21677, Note_on_c, 2, 58, 0
1, 21707, Note_on_c, 1, 81, 86
1, 21745, Note_on_c, 1, 82, 0
1, 21827, Note_on_c, 2, 58, 30
1, 21832, Note_on_c, 2, 63, 39
1, 21835, Note_on_c, 1, 82, 73
1, 21877, Note_on_c, 1, 81, 0
1, 21900, Note_on_c, 2, 63, 0
1, 21907, Note_on_c, 2, 58, 0
1, 21940, Note_on_c, 1, 79, 79
1, 22020, Note_on_c, 1, 82, 0
1, 22075, Note_on_c, 2, 58, 56
1, 22075, Note_on_c, 2, 62, 74
1, 22080, Note_on_c, 1, 77, 72
1, 22105, Note_on_c, 1, 79, 0
1, 22202, Note_on_c, 2, 62, 0
1, 22202, Note_on_c, 2, 58, 0
1, 22320, Note_on_c, 2, 58, 51
1, 22437, Note_on_c, 2, 58, 0
1, 22510, Note_on_c, 1, 77, 0
1, 22545, Note_on_c, 2, 62, 75
1, 22622, Note_on_c, 2, 62, 0
1, 22680, Note_on_c, 1, 82, 73
1, 22777, Note_on_c, 1, 82, 0
1, 22780, Note_on_c, 2, 65, 77
1, 22810, Note_on_c, 1, 84, 97
1, 22880, Note_on_c, 2, 65, 0
1, 22900, Note_on_c, 1, 84, 0
1, 22910, Note_on_c, 1, 82, 78
1, 22967, Note_on_c, 1, 82, 0
1, 23035, Note_on_c, 1, 86, 102
1, 23047, Note_on_c, 2, 58, 66
1, 23102, Note_on_c, 1, 86, 0
1, 23150, Note_on_c, 1, 84, 77
1, 23200, Note_on_c, 1, 84, 0
1, 23270, Note_on_c, 1, 82, 102
1, 23317, Note_on_c, 1, 82, 0
1, 23380, Note_on_c, 1, 81, 86
1, 23380, Note_on_c, 2, 58, 0
1, 23437, Note_on_c, 1, 81, 0
1, 23510, Note_on_c, 1, 79, 94
1, 23557, Note_on_c, 1, 79, 0
1, 23620, Note_on_c, 1, 77, 86
1, 23667, Note_on_c, 1, 77, 0
1, 23740, Note_on_c, 1, 75, 90
1, 23787, Note_on_c, 1, 75, 0
1, 23855, Note_on_c, 1, 74, 79
1, 23905, Note_on_c, 1, 74, 0
1, 24000, Note_on_c, 1, 75, 97
1, 24227, Note_on_c, 2, 53, 68
1, 24332, Note_on_c, 1, 75, 0
1, 24362, Note_on_c, 2, 53, 0
1, 24467, Note_on_c, 2, 57, 69
1, 24595, Note_on_c, 1, 81, 59
1, 24600, Note_on_c, 2, 57, 0
1, 24710, Note_on_c, 1, 82, 47
1, 24715, Note_on_c, 1, 81, 0
1, 24717, Note_on_c, 2, 60, 69
1, 24820, Note_on_c, 1, 81, 51
1, 24842, Note_on_c, 1, 82, 0
1, 24857, Note_on_c, 2, 60, 0
1, 24897, Note_on_c, 1, 81, 0
1, 24935, Note_on_c, 1, 84, 62
1, 24957, Note_on_c, 2, 53, 65
1, 24987, Note_on_c, 1, 84, 0
1, 25055, Note_on_c, 1, 82, 57
1, 25102, Note_on_c, 1, 82, 0
1, 25147, Note_on_c, 2, 53, 0
1, 25167, Note_on_c, 1, 81, 51
1, 25215, Note_on_c, 1, 81, 0
1, 25275, Note_on_c, 1, 79, 56
1, 25332, Note_on_c, 1, 79, 0
1, 25400, Note_on_c, 1, 77, 64
1, 25452, Note_on_c, 1, 77, 0
1, 25522, Note_on_c, 1, 75, 54
1, 25560, Note_on_c, 1, 75, 0
1, 25645, Note_on_c, 1, 74, 61
1, 25692, Note_on_c, 1, 74, 0
1, 25760, Note_on_c, 1, 72, 65
1, 25802, Note_on_c, 1, 72, 0
1, 25915, Note_on_c, 1, 74, 64
1, 26147, Note_on_c, 2, 46, 84
1, 26147, Note_on_c, 2, 34, 94
1, 26240, Note_on_c, 1, 74, 0
1, 26265, Note_on_c, 2, 34, 0
1, 26287, Note_on_c, 2, 46, 0
1, 26385, Note_on_c, 2, 50, 83
1, 26390, Note_on_c, 2, 38, 81
1, 26455, Note_on_c, 2, 50, 0
1, 26480, Note_on_c, 2, 38, 0
1, 26515, Note_on_c, 1, 77, 97
1, 26615, Note_on_c, 2, 53, 79
1, 26615, Note_on_c, 2, 41, 86
1, 26630, Note_on_c, 1, 79, 86
1, 26652, Note_on_c, 1, 77, 0
1, 26702, Note_on_c, 2, 53, 0
1, 26715, Note_on_c, 2, 41, 0
1, 26740, Note_on_c, 1, 77, 83
1, 26755, Note_on_c, 1, 79, 0
1, 26830, Note_on_c, 1, 77, 0
1, 26860, Note_on_c, 1, 82, 90
1, 26870, Note_on_c, 2, 38, 92
1, 26875, Note_on_c, 2, 50, 84
1, 26922, Note_on_c, 1, 82, 0
1, 26980, Note_on_c, 1, 81, 69
1, 27037, Note_on_c, 1, 81, 0
1, 27105, Note_on_c, 1, 79, 83
1, 27132, Note_on_c, 2, 50, 0
1, 27132, Note_on_c, 2, 38, 0
1, 27175, Note_on_c, 1, 79, 0
1, 27225, Note_on_c, 1, 77, 73
1, 27280, Note_on_c, 1, 77, 0
1, 27352, Note_on_c, 1, 75, 90
1, 27405, Note_on_c, 1, 75, 0
1, 27465, Note_on_c, 1, 74, 86
1, 27522, Note_on_c, 1, 74, 0
1, 27587, Note_on_c, 2, 65, 70
1, 27587, Note_on_c, 2, 62, 66
1, 27595, Note_on_c, 1, 72, 78
1, 27642, Note_on_c, 1, 72, 0
1, 27710, Note_on_c, 1, 70, 88
1, 27747, Note_on_c, 1, 70, 0
1, 27837, Note_on_c, 2, 63, 66
1, 27837, Note_on_c, 2, 67, 75
1, 27840, Note_on_c, 1, 74, 94
1, 27860, Note_on_c, 2, 62, 0
1, 27872, Note_on_c, 2, 65, 0
1, 27945, Note_on_c, 1, 72, 60
1, 27965, Note_on_c, 1, 74, 0
1, 28075, Note_on_c, 1, 75, 45
1, 28132, Note_on_c, 1, 72, 0
1, 28182, Note_on_c, 1, 74, 66
1, 28210, Note_on_c, 1, 75, 0
1, 28320, Note_on_c, 1, 77, 59
1, 28342, Note_on_c, 1, 74, 0
1, 28435, Note_on_c, 1, 75, 54
1, 28462, Note_on_c, 1, 77, 0
1, 28562, Note_on_c, 1, 79, 75
1, 28575, Note_on_c, 1, 75, 0
1, 28665, Note_on_c, 1, 78, 66
1, 28680, Note_on_c, 1, 79, 0
1, 28800, Note_on_c, 1, 79, 105
1, 28800, Note_on_c, 2, 63, 0
1, 28807, Note_on_c, 2, 67, 0
1, 28815, Note_on_c, 1, 78, 0
1, 28857, Note_on_c, 1, 79, 0
1, 28912, Note_on_c, 1, 77, 92
1, 28962, Note_on_c, 1, 77, 0
1, 29032, Note_on_c, 1, 75, 90
1, 29082, Note_on_c, 1, 75, 0
1, 29145, Note_on_c, 1, 74, 94
1, 29205, Note_on_c, 1, 74, 0
1, 29275, Note_on_c, 1, 72, 83
1, 29332, Note_on_c, 1, 72, 0
1, 29392, Note_on_c, 1, 70, 73
1, 29450, Note_on_c, 1, 70, 0
1, 29510, Note_on_c, 1, 69, 62
1, 29520, Note_on_c, 2, 64, 72
1, 29520, Note_on_c, 2, 67, 68
1, 29592, Note_on_c, 1, 69, 0
1, 29635, Note_on_c, 1, 70, 54
1, 29687, Note_on_c, 1, 70, 0
1, 29765, Note_on_c, 1, 69, 69
1, 29775, Note_on_c, 2, 65, 61
1, 29797, Note_on_c, 2, 64, 0
1, 29807, Note_on_c, 2, 67, 0
1, 29832, Note_on_c, 1, 69, 0
1, 29877, Note_on_c, 1, 70, 68
1, 29932, Note_on_c, 1, 70, 0
1, 30007, Note_on_c, 1, 72, 62
1, 30060, Note_on_c, 1, 72, 0
1, 30120, Note_on_c, 1, 74, 45
1, 30147, Note_on_c, 2, 65, 0
1, 30172, Note_on_c, 1, 74, 0
1, 30265, Note_on_c, 1, 76, 57
1, 30370, Note_on_c, 1, 77, 58
1, 30385, Note_on_c, 1, 76, 0
1, 30492, Note_on_c, 1, 76, 58
1, 30500, Note_on_c, 1, 77, 0
1, 30605, Note_on_c, 1, 77, 55
1, 30635, Note_on_c, 1, 76, 0
1, 30732, Note_on_c, 1, 77, 0
1, 30737, Note_on_c, 2, 45, 79
1, 30762, Note_on_c, 1, 65, 45
1, 30800, Note_on_c, 2, 45, 0
1, 30850, Note_on_c, 2, 46, 94
1, 30895, Note_on_c, 2, 46, 0
1, 30967, Note_on_c, 2, 48, 70
1, 31025, Note_on_c, 2, 48, 0
1, 31085, Note_on_c, 2, 50, 77
1, 31142, Note_on_c, 2, 50, 0
1, 31210, Note_on_c, 2, 52, 57
1, 31315, Note_on_c, 2, 53, 61
1, 31337, Note_on_c, 2, 52, 0
1, 31442, Note_on_c, 2, 53, 0
1, 31442, Note_on_c, 2, 52, 54
1, 31522, Note_on_c, 1, 65, 0
1, 31537, Note_on_c, 2, 53, 59
1, 31557, Note_on_c, 2, 52, 0
1, 31690, Note_on_c, 2, 41, 54
1, 31692, Note_on_c, 2, 53, 0
1, 32120, Note_on_c, 2, 41, 0
1, 32400, Note_on_c, 1, 84, 59
1, 32457, Note_on_c, 1, 84, 0
1, 32640, Note_on_c, 1, 84, 49
1, 32690, Note_on_c, 1, 84, 0
1, 32880, Note_on_c, 1, 84, 61
1, 32922, Note_on_c, 1, 84, 0
1, 33120, Note_on_c, 1, 84, 55
1, 33162, Note_on_c, 1, 84, 0
1, 33360, Note_on_c, 1, 84, 59
1, 33397, Note_on_c, 1, 84, 0
1, 33597, Note_on_c, 2, 65, 45
1, 33612, Note_on_c, 1, 84, 79
1, 33835, Note_on_c, 2, 72, 49
1, 33887, Note_on_c, 2, 65, 0
1, 34092, Note_on_c, 2, 69, 37
1, 34127, Note_on_c, 2, 72, 0
1, 34320, Note_on_c, 2, 72, 54
1, 34325, Note_on_c, 1, 82, 60
1, 34342, Note_on_c, 2, 69, 0
1, 34350, Note_on_c, 1, 84, 0
1, 34425, Note_on_c, 1, 81, 63
1, 34457, Note_on_c, 1, 82, 0
1, 34542, Note_on_c, 1, 81, 0
1, 34570, Note_on_c, 1, 79, 65
1, 34577, Note_on_c, 2, 67, 42
1, 34592, Note_on_c, 2, 72, 0
1, 34645, Note_on_c, 1, 79, 0
1, 34785, Note_on_c, 1, 77, 59
1, 34795, Note_on_c, 2, 72, 46
1, 34827, Note_on_c, 2, 67, 0
1, 34857, Note_on_c, 1, 77, 0
1, 35040, Note_on_c, 1, 76, 63
1, 35042, Note_on_c, 2, 70, 42
1, 35070, Note_on_c, 2, 72, 0
1, 35102, Note_on_c, 1, 76, 0
1, 35260, Note_on_c, 2, 72, 58
1, 35275, Note_on_c, 1, 79, 66
1, 35285, Note_on_c, 2, 70, 0
1, 35332, Note_on_c, 1, 79, 0
1, 35520, Note_on_c, 1, 77, 59
1, 35520, Note_on_c, 2, 69, 43
1, 35552, Note_on_c, 2, 72, 0
1, 35752, Note_on_c, 2, 69, 0
1, 35752, Note_on_c, 2, 65, 31
1, 35980, Note_on_c, 2, 72, 47
1, 36022, Note_on_c, 2, 65, 0
1, 36023, Note_on_c, 1, 77, 0
1, 36212, Note_on_c, 2, 72, 0
1, 36240, Note_on_c, 1, 84, 69
1, 36283, Note_on_c, 1, 84, 0
1, 36480, Note_on_c, 1, 84, 57
1, 36527, Note_on_c, 1, 84, 0
1, 36720, Note_on_c, 1, 84, 61
1, 36757, Note_on_c, 1, 84, 0
1, 36960, Note_on_c, 1, 84, 66
1, 37020, Note_on_c, 1, 84, 0
1, 37200, Note_on_c, 1, 84, 64
1, 37237, Note_on_c, 1, 84, 0
1, 37440, Note_on_c, 1, 84, 77
1, 37447, Note_on_c, 2, 65, 37
1, 37680, Note_on_c, 2, 72, 36
1, 37740, Note_on_c, 2, 65, 0
1, 37932, Note_on_c, 2, 69, 40
1, 37960, Note_on_c, 2, 72, 0
1, 38162, Note_on_c, 2, 72, 52
1, 38165, Note_on_c, 1, 82, 60
1, 38177, Note_on_c, 2, 69, 0
1, 38187, Note_on_c, 1, 84, 0
1, 38265, Note_on_c, 1, 81, 53
1, 38305, Note_on_c, 1, 82, 0
1, 38367, Note_on_c, 1, 81, 0
1, 38402, Note_on_c, 1, 79, 68
1, 38410, Note_on_c, 2, 64, 38
1, 38437, Note_on_c, 2, 72, 0
1, 38515, Note_on_c, 1, 79, 0
1, 38640, Note_on_c, 1, 81, 65
1, 38667, Note_on_c, 2, 72, 37
1, 38682, Note_on_c, 2, 64, 0
1, 38735, Note_on_c, 1, 81, 0
1, 38875, Note_on_c, 1, 82, 62
1, 38895, Note_on_c, 2, 67, 44
1, 38927, Note_on_c, 2, 72, 0
1, 38962, Note_on_c, 1, 82, 0
1, 39112, Note_on_c, 1, 79, 64
1, 39142, Note_on_c, 2, 72, 39
1, 39152, Note_on_c, 2, 67, 0
1, 39180, Note_on_c, 1, 79, 0
1, 39360, Note_on_c, 1, 81, 78
1, 39382, Note_on_c, 2, 65, 34
1, 39390, Note_on_c, 2, 72, 0
1, 39612, Note_on_c, 2, 69, 45
1, 39642, Note_on_c, 2, 65, 0
1, 39852, Note_on_c, 2, 72, 44
1, 39877, Note_on_c, 1, 81, 0
1, 39877, Note_on_c, 2, 69, 0
1, 40077, Note_on_c, 2, 72, 0
1, 40080, Note_on_c, 1, 84, 66
1, 40122, Note_on_c, 1, 84, 0
1, 40320, Note_on_c, 1, 84, 66
1, 40370, Note_on_c, 1, 84, 0
1, 40560, Note_on_c, 1, 84, 73
1, 40612, Note_on_c, 1, 84, 0
1, 40800, Note_on_c, 1, 84, 68
1, 40847, Note_on_c, 1, 84, 0
1, 41040, Note_on_c, 1, 85, 68
1, 41102, Note_on_c, 1, 85, 0
1, 41270, Note_on_c, 2, 58, 105
1, 41270, Note_on_c, 2, 46, 108
1, 41295, Note_on_c, 1, 86, 83
1, 41422, Note_on_c, 1, 74, 54
1, 41442, Note_on_c, 1, 86, 0
1, 41542, Note_on_c, 1, 73, 84
1, 41555, Note_on_c, 1, 74, 0
1, 41647, Note_on_c, 1, 74, 75
1, 41652, Note_on_c, 1, 73, 0
1, 41772, Note_on_c, 1, 75, 86
1, 41787, Note_on_c, 1, 74, 0
1, 41875, Note_on_c, 1, 74, 73
1, 41890, Note_on_c, 1, 75, 0
1, 42000, Note_on_c, 1, 76, 83
1, 42015, Note_on_c, 1, 74, 0
1, 42102, Note_on_c, 1, 74, 73
1, 42125, Note_on_c, 1, 76, 0
1, 42227, Note_on_c, 1, 77, 90
1, 42252, Note_on_c, 1, 74, 0
1, 42257, Note_on_c, 2, 46, 0
1, 42330, Note_on_c, 2, 58, 0
1, 42345, Note_on_c, 1, 74, 64
1, 42375, Note_on_c, 1, 77, 0
1, 42475, Note_on_c, 1, 78, 72
1, 42497, Note_on_c, 1, 74, 0
1, 42580, Note_on_c, 1, 74, 72
1, 42602, Note_on_c, 1, 78, 0
1, 42715, Note_on_c, 1, 79, 99
1, 42735, Note_on_c, 1, 74, 0
1, 42807, Note_on_c, 1, 74, 67
1, 42840, Note_on_c, 1, 79, 0
1, 42935, Note_on_c, 1, 81, 102
1, 42957, Note_on_c, 1, 74, 0
1, 43045, Note_on_c, 1, 74, 73
1, 43065, Note_on_c, 1, 81, 0
1, 43185, Note_on_c, 1, 82, 108
1, 43185, Note_on_c, 2, 67, 108
1, 43205, Note_on_c, 1, 74, 0
1, 43300, Note_on_c, 2, 69, 77
1, 43325, Note_on_c, 2, 67, 0
1, 43420, Note_on_c, 2, 70, 86
1, 43442, Note_on_c, 2, 69, 0
1, 43535, Note_on_c, 2, 69, 81
1, 43597, Note_on_c, 2, 70, 0
1, 43655, Note_on_c, 2, 67, 105
1, 43687, Note_on_c, 2, 69, 0
1, 43770, Note_on_c, 2, 69, 74
1, 43790, Note_on_c, 2, 67, 0
1, 43882, Note_on_c, 2, 65, 68
1, 43905, Note_on_c, 2, 69, 0
1, 43990, Note_on_c, 2, 67, 70
1, 44010, Note_on_c, 2, 65, 0
1, 44122, Note_on_c, 2, 64, 86
1, 44130, Note_on_c, 2, 67, 0
1, 44145, Note_on_c, 1, 82, 0
1, 44242, Note_on_c, 2, 65, 60
1, 44260, Note_on_c, 2, 64, 0
1, 44365, Note_on_c, 2, 62, 73
1, 44387, Note_on_c, 2, 65, 0
1, 44492, Note_on_c, 2, 64, 51
1, 44500, Note_on_c, 1, 82, 90
1, 44502, Note_on_c, 2, 62, 0
1, 44550, Note_on_c, 1, 82, 0
1, 44625, Note_on_c, 2, 60, 78
1, 44627, Note_on_c, 2, 64, 0
1, 44630, Note_on_c, 1, 82, 108
1, 44680, Note_on_c, 1, 82, 0
1, 44680, Note_on_c, 1, 84, 99
1, 44715, Note_on_c, 1, 84, 0
1, 44715, Note_on_c, 1, 82, 75
1, 44730, Note_on_c, 2, 62, 57
1, 44740, Note_on_c, 2, 60, 0
1, 44762, Note_on_c, 1, 84, 102
1, 44765, Note_on_c, 1, 82, 0
1, 44802, Note_on_c, 1, 82, 86
1, 44812, Note_on_c, 1, 84, 0
1, 44850, Note_on_c, 1, 81, 86
1, 44857, Note_on_c, 1, 82, 0
1, 44862, Note_on_c, 2, 58, 75
1, 44875, Note_on_c, 2, 62, 0
1, 44927, Note_on_c, 1, 81, 0
1, 44975, Note_on_c, 1, 82, 102
1, 44975, Note_on_c, 2, 60, 56
1, 44992, Note_on_c, 2, 58, 0
1, 45017, Note_on_c, 1, 82, 0
1, 45090, Note_on_c, 2, 60, 0
1, 45110, Note_on_c, 2, 57, 97
1, 45117, Note_on_c, 2, 45, 108
1, 45120, Note_on_c, 1, 84, 108
1, 45225, Note_on_c, 1, 72, 83
1, 45345, Note_on_c, 1, 71, 83
1, 45352, Note_on_c, 1, 84, 0
1, 45367, Note_on_c, 1, 72, 0
1, 45460, Note_on_c, 1, 72, 92
1, 45477, Note_on_c, 1, 71, 0
1, 45585, Note_on_c, 1, 72, 0
1, 45585, Note_on_c, 1, 73, 75
1, 45690, Note_on_c, 1, 72, 73
1, 45705, Note_on_c, 1, 73, 0
1, 45840, Note_on_c, 1, 74, 97
1, 45865, Note_on_c, 1, 72, 0
1, 45955, Note_on_c, 1, 72, 66
1, 45975, Note_on_c, 1, 74, 0
1, 46090, Note_on_c, 1, 75, 102
1, 46110, Note_on_c, 1, 72, 0
1, 46197, Note_on_c, 1, 72, 62
1, 46222, Note_on_c, 1, 75, 0
1, 46227, Note_on_c, 2, 45, 0
1, 46232, Note_on_c, 2, 57, 0
1, 46325, Note_on_c, 1, 76, 78
1, 46350, Note_on_c, 1, 72, 0
1, 46432, Note_on_c, 1, 72, 61
1, 46465, Note_on_c, 1, 76, 0
1, 46570, Note_on_c, 1, 77, 97
1, 46587, Note_on_c, 1, 72, 0
1, 46680, Note_on_c, 1, 72, 67
1, 46710, Note_on_c, 1, 77, 0
1, 46807, Note_on_c, 1, 79, 74
1, 46815, Note_on_c, 1, 72, 0
1, 46920, Note_on_c, 1, 72, 68
1, 46940, Note_on_c, 1, 79, 0
1, 47047, Note_on_c, 2, 65, 94
1, 47050, Note_on_c, 1, 81, 105
1, 47060, Note_on_c, 1, 72, 0
1, 47167, Note_on_c, 2, 67, 74
1, 47207, Note_on_c, 2, 65, 0
1, 47292, Note_on_c, 2, 69, 94
1, 47317, Note_on_c, 2, 67, 0
1, 47397, Note_on_c, 2, 67, 56
1, 47447, Note_on_c, 2, 69, 0
1, 47530, Note_on_c, 2, 65, 90
1, 47565, Note_on_c, 2, 67, 0
1, 47640, Note_on_c, 2, 67, 83
1, 47680, Note_on_c, 2, 65, 0
1, 47757, Note_on_c, 2, 64, 83
1, 47860, Note_on_c, 2, 65, 88
1, 47872, Note_on_c, 2, 67, 0
1, 47882, Note_on_c, 2, 64, 0
1, 47987, Note_on_c, 2, 62, 83
1, 47995, Note_on_c, 1, 81, 0
1, 48010, Note_on_c, 2, 65, 0
1, 48115, Note_on_c, 2, 64, 64
1, 48132, Note_on_c, 2, 62, 0
1, 48240, Note_on_c, 2, 60, 69
1, 48250, Note_on_c, 2, 64, 0
1, 48345, Note_on_c, 2, 60, 0
1, 48347, Note_on_c, 2, 62, 59
1, 48355, Note_on_c, 1, 81, 90
1, 48397, Note_on_c, 1, 81, 0
1, 48437, Note_on_c, 2, 62, 0
1, 48477, Note_on_c, 1, 81, 97
1, 48477, Note_on_c, 2, 58, 92
1, 48517, Note_on_c, 1, 81, 0
1, 48522, Note_on_c, 1, 82, 83
1, 48565, Note_on_c, 1, 82, 0
1, 48565, Note_on_c, 1, 81, 74
1, 48575, Note_on_c, 2, 60, 54
1, 48605, Note_on_c, 1, 81, 0
1, 48605, Note_on_c, 1, 82, 99
1, 48625, Note_on_c, 2, 58, 0
1, 48645, Note_on_c, 1, 81, 88
1, 48657, Note_on_c, 1, 82, 0
1, 48695, Note_on_c, 1, 79, 90
1, 48695, Note_on_c, 2, 57, 64
1, 48707, Note_on_c, 1, 81, 0
1, 48772, Note_on_c, 1, 79, 0
1, 48810, Note_on_c, 2, 60, 0
1, 48810, Note_on_c, 2, 58, 45
1, 48820, Note_on_c, 2, 57, 0
1, 48830, Note_on_c, 1, 81, 97
1, 48877, Note_on_c, 1, 81, 0
1, 48945, Note_on_c, 2, 58, 0
1, 48957, Note_on_c, 2, 55, 97
1, 48957, Note_on_c, 2, 43, 102
1, 48960, Note_on_c, 1, 82, 108
1, 49085, Note_on_c, 1, 70, 88
1, 49152, Note_on_c, 1, 82, 0
1, 49195, Note_on_c, 1, 69, 72
1, 49215, Note_on_c, 1, 70, 0
1, 49332, Note_on_c, 1, 70, 94
1, 49352, Note_on_c, 1, 69, 0
1, 49445, Note_on_c, 1, 72, 90
1, 49467, Note_on_c, 1, 70, 0
1, 49560, Note_on_c, 1, 70, 57
1, 49572, Note_on_c, 1, 72, 0
1, 49685, Note_on_c, 1, 73, 99
1, 49705, Note_on_c, 1, 70, 0
1, 49790, Note_on_c, 1, 70, 83
1, 49827, Note_on_c, 1, 73, 0
1, 49925, Note_on_c, 1, 74, 83
1, 49960, Note_on_c, 1, 70, 0
1, 50032, Note_on_c, 1, 70, 83
1, 50032, Note_on_c, 2, 43, 0
1, 50032, Note_on_c, 2, 55, 0
1, 50057, Note_on_c, 1, 74, 0
1, 50150, Note_on_c, 1, 76, 79
1, 50192, Note_on_c, 1, 70, 0
1, 50262, Note_on_c, 1, 70, 74
1, 50305, Note_on_c, 1, 76, 0
1, 50385, Note_on_c, 1, 77, 83
1, 50412, Note_on_c, 1, 70, 0
1, 50500, Note_on_c, 1, 70, 65
1, 50520, Note_on_c, 1, 77, 0
1, 50640, Note_on_c, 1, 78, 86
1, 50672, Note_on_c, 1, 70, 0
1, 50752, Note_on_c, 1, 70, 86
1, 50762, Note_on_c, 1, 78, 0
1, 50835, Note_on_c, 1, 70, 0
1, 50887, Note_on_c, 2, 60, 36
1, 50892, Note_on_c, 1, 79, 90
1, 50995, Note_on_c, 2, 64, 54
1, 51100, Note_on_c, 2, 64, 0
1, 51117, Note_on_c, 2, 60, 0
1, 51122, Note_on_c, 2, 67, 41
1, 51195, Note_on_c, 2, 67, 0
1, 51225, Note_on_c, 2, 64, 47
1, 51300, Note_on_c, 2, 64, 0
1, 51345, Note_on_c, 2, 60, 45
1, 51412, Note_on_c, 1, 79, 0
1, 51445, Note_on_c, 2, 64, 52
1, 51585, Note_on_c, 2, 64, 0
1, 51592, Note_on_c, 2, 67, 34
1, 51600, Note_on_c, 1, 82, 86
1, 51622, Note_on_c, 2, 60, 0
1, 51700, Note_on_c, 2, 64, 59
1, 51705, Note_on_c, 2, 67, 0
1, 51757, Note_on_c, 2, 64, 0
1, 51762, Note_on_c, 1, 82, 0
1, 51835, Note_on_c, 1, 81, 77
1, 51835, Note_on_c, 2, 60, 45
1, 51940, Note_on_c, 2, 67, 46
1, 52055, Note_on_c, 2, 67, 0
1, 52070, Note_on_c, 2, 70, 42
1, 52077, Note_on_c, 1, 79, 54
1, 52102, Note_on_c, 1, 81, 0
1, 52117, Note_on_c, 2, 60, 0
1, 52167, Note_on_c, 1, 79, 0
1, 52187, Note_on_c, 2, 70, 0
1, 52187, Note_on_c, 2, 67, 43
1, 52250, Note_on_c, 2, 67, 0
1, 52307, Note_on_c, 2, 60, 41
1, 52327, Note_on_c, 1, 77, 75
1, 52425, Note_on_c, 2, 67, 45
1, 52545, Note_on_c, 2, 67, 0
1, 52545, Note_on_c, 2, 70, 44
1, 52562, Note_on_c, 1, 76, 53
1, 52592, Note_on_c, 1, 77, 0
1, 52597, Note_on_c, 2, 60, 0
1, 52645, Note_on_c, 1, 76, 0
1, 52675, Note_on_c, 2, 67, 44
1, 52685, Note_on_c, 2, 70, 0
1, 52717, Note_on_c, 2, 67, 0
1, 52802, Note_on_c, 2, 60, 38
1, 52805, Note_on_c, 1, 79, 83
1, 52922, Note_on_c, 2, 65, 42
1, 53022, Note_on_c, 2, 65, 0
1, 53050, Note_on_c, 1, 77, 55
1, 53050, Note_on_c, 2, 69, 39
1, 53067, Note_on_c, 1, 79, 0
1, 53110, Note_on_c, 2, 60, 0
1, 53157, Note_on_c, 2, 69, 0
1, 53157, Note_on_c, 2, 65, 57
1, 53180, Note_on_c, 1, 77, 0
1, 53232, Note_on_c, 2, 65, 0
1, 53290, Note_on_c, 2, 60, 43
1, 53397, Note_on_c, 2, 65, 44
1, 53520, Note_on_c, 2, 65, 0
1, 53530, Note_on_c, 1, 84, 66
1, 53532, Note_on_c, 2, 69, 49
1, 53585, Note_on_c, 2, 60, 0
1, 53600, Note_on_c, 1, 84, 0
1, 53637, Note_on_c, 2, 69, 0
1, 53657, Note_on_c, 2, 65, 43
1, 53697, Note_on_c, 2, 65, 0
1, 53765, Note_on_c, 1, 82, 77
1, 53772, Note_on_c, 2, 60, 45
1, 53890, Note_on_c, 2, 63, 34
1, 54002, Note_on_c, 1, 81, 55
1, 54005, Note_on_c, 2, 66, 43
1, 54027, Note_on_c, 1, 82, 0
1, 54027, Note_on_c, 2, 63, 0
1, 54070, Note_on_c, 2, 60, 0
1, 54072, Note_on_c, 1, 81, 0
1, 54115, Note_on_c, 2, 66, 0
1, 54125, Note_on_c, 2, 63, 47
1, 54217, Note_on_c, 2, 63, 0
1, 54240, Note_on_c, 1, 79, 73
1, 54267, Note_on_c, 2, 60, 34
1, 54352, Note_on_c, 2, 63, 34
1, 54475, Note_on_c, 1, 78, 51
1, 54482, Note_on_c, 2, 69, 39
1, 54490, Note_on_c, 2, 63, 0
1, 54505, Note_on_c, 1, 79, 0
1, 54547, Note_on_c, 2, 60, 0
1, 54577, Note_on_c, 1, 78, 0
1, 54585, Note_on_c, 2, 69, 0
1, 54590, Note_on_c, 2, 63, 52
1, 54660, Note_on_c, 2, 63, 0
1, 54720, Note_on_c, 1, 79, 79
1, 54725, Note_on_c, 2, 58, 41
1, 54837, Note_on_c, 2, 62, 42
1, 54962, Note_on_c, 2, 62, 0
1, 54970, Note_on_c, 2, 67, 32
1, 55005, Note_on_c, 2, 58, 0
1, 55075, Note_on_c, 1, 81, 77
1, 55075, Note_on_c, 2, 67, 0
1, 55085, Note_on_c, 2, 62, 37
1, 55095, Note_on_c, 1, 79, 0
1, 55162, Note_on_c, 2, 62, 0
1, 55202, Note_on_c, 2, 58, 37
1, 55205, Note_on_c, 1, 84, 83
1, 55217, Note_on_c, 1, 81, 0
1, 55310, Note_on_c, 2, 62, 53
1, 55315, Note_on_c, 1, 82, 83
1, 55375, Note_on_c, 1, 84, 0
1, 55435, Note_on_c, 1, 81, 81
1, 55435, Note_on_c, 2, 67, 53
1, 55445, Note_on_c, 2, 62, 0
1, 55477, Note_on_c, 1, 82, 0
1, 55487, Note_on_c, 2, 58, 0
1, 55540, Note_on_c, 1, 79, 73
1, 55540, Note_on_c, 2, 67, 0
1, 55540, Note_on_c, 2, 62, 53
1, 55560, Note_on_c, 1, 81, 0
1, 55642, Note_on_c, 2, 62, 0
1, 55675, Note_on_c, 1, 77, 94
1, 55675, Note_on_c, 2, 60, 42
1, 55695, Note_on_c, 1, 79, 0
1, 55785, Note_on_c, 2, 65, 46
1, 55900, Note_on_c, 2, 69, 55
1, 55907, Note_on_c, 2, 65, 0
1, 55992, Note_on_c, 2, 60, 0
1, 56015, Note_on_c, 2, 65, 66
1, 56025, Note_on_c, 2, 69, 0
1, 56067, Note_on_c, 2, 65, 0
1, 56140, Note_on_c, 2, 60, 43
1, 56155, Note_on_c, 1, 76, 66
1, 56195, Note_on_c, 1, 77, 0
1, 56255, Note_on_c, 2, 67, 47
1, 56337, Note_on_c, 2, 60, 0
1, 56370, Note_on_c, 2, 70, 51
1, 56380, Note_on_c, 2, 67, 0
1, 56452, Note_on_c, 1, 76, 0
1, 56472, Note_on_c, 2, 67, 65
1, 56477, Note_on_c, 2, 70, 0
1, 56515, Note_on_c, 2, 67, 0
1, 56625, Note_on_c, 2, 53, 86
1, 56627, Note_on_c, 2, 65, 99
1, 56710, Note_on_c, 2, 65, 0
1, 56752, Note_on_c, 2, 53, 0
1, 56772, Note_on_c, 1, 77, 90
1, 56890, Note_on_c, 1, 76, 86
1, 56915, Note_on_c, 1, 77, 0
1, 57000, Note_on_c, 1, 77, 75
1, 57032, Note_on_c, 1, 76, 0
1, 57062, Note_on_c, 1, 77, 0
1, 57132, Note_on_c, 2, 60, 97
1, 57132, Note_on_c, 2, 48, 119
1, 57240, Note_on_c, 1, 72, 90
1, 57257, Note_on_c, 2, 60, 0
1, 57262, Note_on_c, 2, 48, 0
1, 57365, Note_on_c, 1, 71, 73
1, 57370, Note_on_c, 1, 72, 0
1, 57470, Note_on_c, 1, 72, 88
1, 57492, Note_on_c, 1, 71, 0
1, 57547, Note_on_c, 1, 72, 0
1, 57600, Note_on_c, 2, 57, 90
1, 57602, Note_on_c, 2, 45, 97
1, 57695, Note_on_c, 2, 45, 0
1, 57697, Note_on_c, 2, 57, 0
1, 57725, Note_on_c, 1, 69, 86
1, 57837, Note_on_c, 1, 68, 59
1, 57862, Note_on_c, 1, 69, 0
1, 57955, Note_on_c, 1, 69, 74
1, 57967, Note_on_c, 1, 68, 0
1, 58022, Note_on_c, 1, 69, 0
1, 58087, Note_on_c, 2, 53, 92
1, 58092, Note_on_c, 2, 41, 90
1, 58170, Note_on_c, 2, 41, 0
1, 58170, Note_on_c, 2, 53, 0
1, 58195, Note_on_c, 1, 65, 74
1, 58315, Note_on_c, 1, 64, 78
1, 58337, Note_on_c, 1, 65, 0
1, 58437, Note_on_c, 1, 65, 94
1, 58460, Note_on_c, 1, 64, 0
1, 58482, Note_on_c, 1, 65, 0
1, 58545, Note_on_c, 1, 70, 62
1, 58575, Note_on_c, 2, 60, 46
1, 58602, Note_on_c, 1, 72, 68
1, 58627, Note_on_c, 1, 70, 0
1, 58670, Note_on_c, 1, 76, 81
1, 58680, Note_on_c, 1, 72, 0
1, 58695, Note_on_c, 2, 67, 37
1, 58810, Note_on_c, 2, 67, 0
1, 58812, Note_on_c, 2, 70, 39
1, 58827, Note_on_c, 2, 60, 0
1, 58915, Note_on_c, 2, 70, 0
1, 58915, Note_on_c, 2, 67, 47
1, 58997, Note_on_c, 2, 67, 0
1, 59040, Note_on_c, 2, 60, 40
1, 59165, Note_on_c, 2, 67, 30
1, 59257, Note_on_c, 1, 82, 57
1, 59270, Note_on_c, 2, 67, 0
1, 59280, Note_on_c, 1, 76, 0
1, 59287, Note_on_c, 2, 70, 31
1, 59337, Note_on_c, 2, 60, 0
1, 59365, Note_on_c, 1, 82, 0
1, 59387, Note_on_c, 2, 70, 0
1, 59387, Note_on_c, 2, 67, 44
1, 59490, Note_on_c, 2, 67, 0
1, 59502, Note_on_c, 2, 60, 44
1, 59505, Note_on_c, 1, 81, 68
1, 59620, Note_on_c, 2, 67, 47
1, 59745, Note_on_c, 2, 67, 0
1, 59755, Note_on_c, 1, 79, 55
1, 59755, Note_on_c, 2, 70, 37
1, 59775, Note_on_c, 1, 81, 0
1, 59790, Note_on_c, 2, 60, 0
1, 59837, Note_on_c, 1, 79, 0
1, 59855, Note_on_c, 2, 67, 49
1, 59880, Note_on_c, 2, 70, 0
1, 59927, Note_on_c, 2, 67, 0
1, 59985, Note_on_c, 1, 77, 74
1, 59985, Note_on_c, 2, 60, 37
1, 60095, Note_on_c, 2, 67, 33
1, 60222, Note_on_c, 2, 67, 0
1, 60222, Note_on_c, 2, 70, 43
1, 60227, Note_on_c, 1, 76, 43
1, 60245, Note_on_c, 1, 77, 0
1, 60290, Note_on_c, 1, 76, 0
1, 60345, Note_on_c, 2, 67, 53
1, 60360, Note_on_c, 2, 60, 0
1, 60360, Note_on_c, 2, 70, 0
1, 60392, Note_on_c, 2, 67, 0
1, 60472, Note_on_c, 2, 60, 43
1, 60475, Note_on_c, 1, 79, 74
1, 60587, Note_on_c, 2, 65, 49
1, 60715, Note_on_c, 2, 69, 48
1, 60717, Note_on_c, 2, 65, 0
1, 60720, Note_on_c, 1, 77, 41
1, 60725, Note_on_c, 1, 79, 0
1, 60832, Note_on_c, 2, 65, 42
1, 60837, Note_on_c, 2, 69, 0
1, 60867, Note_on_c, 1, 77, 0
1, 60870, Note_on_c, 2, 60, 0
1, 60910, Note_on_c, 2, 65, 0
1, 60957, Note_on_c, 2, 60, 50
1, 61097, Note_on_c, 2, 65, 46
1, 61195, Note_on_c, 1, 84, 78
1, 61210, Note_on_c, 2, 65, 0
1, 61210, Note_on_c, 2, 69, 52
1, 61260, Note_on_c, 1, 84, 0
1, 61272, Note_on_c, 2, 60, 0
1, 61302, Note_on_c, 2, 69, 0
1, 61307, Note_on_c, 2, 65, 55
1, 61355, Note_on_c, 2, 65, 0
1, 61425, Note_on_c, 2, 60, 46
1, 61435, Note_on_c, 1, 82, 67
1, 61537, Note_on_c, 2, 63, 46
1, 61662, Note_on_c, 2, 66, 59
1, 61670, Note_on_c, 1, 81, 53
1, 61685, Note_on_c, 2, 63, 0
1, 61712, Note_on_c, 1, 82, 0
1, 61745, Note_on_c, 1, 81, 0
1, 61780, Note_on_c, 2, 63, 53
1, 61817, Note_on_c, 2, 60, 0
1, 61827, Note_on_c, 2, 66, 0
1, 61865, Note_on_c, 2, 63, 0
1, 61920, Note_on_c, 2, 60, 39
1, 61922, Note_on_c, 1, 79, 70
1, 62040, Note_on_c, 2, 63, 43
1, 62155, Note_on_c, 1, 78, 50
1, 62165, Note_on_c, 2, 69, 53
1, 62170, Note_on_c, 1, 79, 0
1, 62197, Note_on_c, 2, 63, 0
1, 62240, Note_on_c, 2, 60, 0
1, 62277, Note_on_c, 2, 63, 42
1, 62287, Note_on_c, 2, 69, 0
1, 62327, Note_on_c, 1, 78, 0
1, 62345, Note_on_c, 2, 63, 0
1, 62397, Note_on_c, 1, 79, 68
1, 62437, Note_on_c, 2, 58, 25
1, 62535, Note_on_c, 2, 62, 37
1, 62657, Note_on_c, 2, 62, 0
1, 62657, Note_on_c, 2, 67, 45
1, 62722, Note_on_c, 2, 58, 0
1, 62745, Note_on_c, 2, 67, 0
1, 62755, Note_on_c, 1, 81, 67
1, 62765, Note_on_c, 1, 79, 0
1, 62765, Note_on_c, 2, 62, 50
1, 62802, Note_on_c, 1, 81, 0
1, 62880, Note_on_c, 2, 62, 0
1, 62882, Note_on_c, 2, 58, 39
1, 62892, Note_on_c, 1, 81, 97
1, 62985, Note_on_c, 2, 62, 55
1, 62995, Note_on_c, 1, 82, 66
1, 63010, Note_on_c, 1, 81, 0
1, 63115, Note_on_c, 1, 84, 62
1, 63115, Note_on_c, 2, 67, 56
1, 63125, Note_on_c, 2, 62, 0
1, 63150, Note_on_c, 1, 82, 0
1, 63195, Note_on_c, 2, 58, 0
1, 63207, Note_on_c, 2, 67, 0
1, 63220, Note_on_c, 2, 62, 48
1, 63225, Note_on_c, 1, 86, 77
1, 63260, Note_on_c, 1, 84, 0
1, 63282, Note_on_c, 1, 86, 0
1, 63292, Note_on_c, 2, 62, 0
1, 63332, Note_on_c, 1, 86, 88
1, 63345, Note_on_c, 2, 60, 51
1, 63412, Note_on_c, 1, 77, 90
1, 63442, Note_on_c, 1, 86, 0
1, 63462, Note_on_c, 2, 65, 57
1, 63575, Note_on_c, 2, 69, 54
1, 63577, Note_on_c, 2, 65, 0
1, 63662, Note_on_c, 2, 60, 0
1, 63692, Note_on_c, 2, 69, 0
1, 63700, Note_on_c, 2, 65, 52
1, 63745, Note_on_c, 2, 65, 0
1, 63780, Note_on_c, 1, 81, 83
1, 63792, Note_on_c, 1, 77, 0
1, 63810, Note_on_c, 2, 60, 41
1, 63835, Note_on_c, 1, 81, 0
1, 63840, Note_on_c, 1, 79, 99
1, 63882, Note_on_c, 1, 79, 0
1, 63882, Note_on_c, 1, 81, 77
1, 63912, Note_on_c, 2, 64, 57
1, 63915, Note_on_c, 1, 81, 0
1, 63922, Note_on_c, 1, 79, 73
1, 63955, Note_on_c, 1, 79, 0
1, 63955, Note_on_c, 1, 81, 92
1, 63987, Note_on_c, 1, 81, 0
1, 63997, Note_on_c, 1, 79, 79
1, 64017, Note_on_c, 1, 81, 88
1, 64030, Note_on_c, 2, 70, 53
1, 64032, Note_on_c, 1, 79, 0
1, 64057, Note_on_c, 2, 64, 0
1, 64060, Note_on_c, 1, 81, 0
1, 64060, Note_on_c, 1, 79, 86
1, 64087, Note_on_c, 2, 60, 0
1, 64112, Note_on_c, 1, 77, 86
1, 64117, Note_on_c, 1, 79, 0
1, 64152, Note_on_c, 2, 64, 58
1, 64155, Note_on_c, 2, 70, 0
1, 64182, Note_on_c, 1, 79, 90
1, 64192, Note_on_c, 1, 77, 0
1, 64212, Note_on_c, 2, 64, 0
1, 64217, Note_on_c, 1, 79, 0
1, 64277, Note_on_c, 2, 69, 69
1, 64280, Note_on_c, 2, 65, 64
1, 64505, Note_on_c, 2, 65, 0
1, 64510, Note_on_c, 2, 69, 0
1, 64545, Note_on_c, 1, 84, 94
1, 64652, Note_on_c, 1, 81, 75
1, 64680, Note_on_c, 1, 84, 0
1, 64780, Note_on_c, 1, 77, 94
1, 64810, Note_on_c, 1, 81, 0
1, 64890, Note_on_c, 1, 72, 84
1, 64897, Note_on_c, 1, 77, 0
1, 64937, Note_on_c, 1, 72, 0
1, 65022, Note_on_c, 1, 69, 86
1, 65140, Note_on_c, 1, 69, 0
1, 65140, Note_on_c, 1, 65, 86
1, 65265, Note_on_c, 1, 63, 79
1, 65267, Note_on_c, 1, 60, 75
1, 65280, Note_on_c, 1, 65, 0
1, 65510, Note_on_c, 2, 53, 83
1, 65510, Note_on_c, 2, 41, 102
1, 65610, Note_on_c, 2, 53, 0
1, 65617, Note_on_c, 2, 41, 0
1, 65747, Note_on_c, 2, 57, 75
1, 65757, Note_on_c, 2, 45, 67
1, 65840, Note_on_c, 2, 45, 0
1, 65847, Note_on_c, 2, 57, 0
1, 65987, Note_on_c, 2, 53, 67
1, 65987, Note_on_c, 2, 41, 70
1, 66090, Note_on_c, 2, 41, 0
1, 66097, Note_on_c, 2, 53, 0
1, 66230, Note_on_c, 2, 58, 86
1, 66230, Note_on_c, 2, 46, 64
1, 66397, Note_on_c, 2, 46, 0
1, 66410, Note_on_c, 2, 58, 0
1, 66480, Note_on_c, 1, 62, 62
1, 66542, Note_on_c, 1, 60, 0
1, 66550, Note_on_c, 1, 63, 0
1, 66640, Note_on_c, 1, 62, 0
1, 66720, Note_on_c, 2, 55, 69
1, 66860, Note_on_c, 2, 55, 0
1, 66949, Note_on_c, 1, 70, 51
1, 66949, Note_on_c, 1, 74, 57
1, 67200, Note_on_c, 2, 60, 67
1, 67206, Note_on_c, 1, 74, 0
1, 67206, Note_on_c, 1, 70, 0
1, 67345, Note_on_c, 2, 60, 0
1, 67420, Note_on_c, 1, 72, 50
1, 67420, Note_on_c, 1, 69, 44
1, 67665, Note_on_c, 2, 48, 58
1, 67675, Note_on_c, 1, 69, 0
1, 67702, Note_on_c, 1, 72, 0
1, 67885, Note_on_c, 1, 58, 51
1, 67885, Note_on_c, 1, 64, 42
1, 67890, Note_on_c, 2, 48, 0
1, 68097, Note_on_c, 1, 64, 0
1, 68097, Note_on_c, 1, 58, 0
1, 68125, Note_on_c, 2, 57, 66
1, 68125, Note_on_c, 2, 53, 68
1, 68358, Note_on_c, 2, 53, 0
1, 68380, Note_on_c, 2, 57, 0
1, 68390, Note_on_c, 1, 84, 90
1, 68505, Note_on_c, 1, 81, 79
1, 68597, Note_on_c, 1, 84, 0
1, 68625, Note_on_c, 1, 77, 86
1, 68662, Note_on_c, 1, 81, 0
1, 68740, Note_on_c, 1, 72, 77
1, 68750, Note_on_c, 1, 77, 0
1, 68800, Note_on_c, 1, 72, 0
1, 68862, Note_on_c, 1, 69, 79
1, 68977, Note_on_c, 1, 65, 83
1, 68980, Note_on_c, 1, 69, 0
1, 69120, Note_on_c, 1, 60, 77
1, 69120, Note_on_c, 1, 63, 70
1, 69127, Note_on_c, 1, 65, 0
1, 69372, Note_on_c, 2, 41, 74
1, 69372, Note_on_c, 2, 53, 61
1, 69502, Note_on_c, 2, 41, 0
1, 69512, Note_on_c, 2, 53, 0
1, 69625, Note_on_c, 2, 45, 69
1, 69625, Note_on_c, 2, 57, 64
1, 69720, Note_on_c, 2, 45, 0
1, 69750, Note_on_c, 2, 57, 0
1, 69855, Note_on_c, 2, 41, 64
1, 69855, Note_on_c, 2, 53, 67
1, 69992, Note_on_c, 2, 41, 0
1, 70045, Note_on_c, 2, 53, 0
1, 70089, Note_on_c, 2, 46, 75
1, 70089, Note_on_c, 2, 58, 77
1, 70219, Note_on_c, 2, 58, 0
1, 70229, Note_on_c, 2, 46, 0
1, 70325, Note_on_c, 1, 62, 57
1, 70405, Note_on_c, 1, 63, 0
1, 70412, Note_on_c, 1, 60, 0
1, 70462, Note_on_c, 1, 62, 0
1, 70560, Note_on_c, 2, 55, 54
1, 70693, Note_on_c, 2, 55, 0
1, 70790, Note_on_c, 1, 74, 55
1, 70790, Note_on_c, 1, 70, 52
1, 70982, Note_on_c, 1, 70, 0
1, 70987, Note_on_c, 1, 74, 0
1, 71040, Note_on_c, 2, 60, 64
1, 71190, Note_on_c, 2, 60, 0
1, 71285, Note_on_c, 1, 72, 50
1, 71285, Note_on_c, 1, 69, 36
1, 71485, Note_on_c, 1, 69, 0
1, 71502, Note_on_c, 1, 72, 0
1, 71520, Note_on_c, 2, 48, 64
1, 71710, Note_on_c, 2, 48, 0
1, 71755, Note_on_c, 1, 64, 44
1, 71755, Note_on_c, 1, 58, 41
1, 72000, Note_on_c, 1, 65, 59
1, 72000, Note_on_c, 1, 57, 37
1, 72000, Note_on_c, 2, 41, 73
1, 72017, Note_on_c, 1, 58, 0
1, 72022, Note_on_c, 1, 64, 0
1, 72098, Note_on_c, 2, 41, 0
1, 72117, Note_on_c, 2, 53, 66
1, 72182, Note_on_c, 2, 53, 0
1, 72230, Note_on_c, 2, 52, 79
1, 72285, Note_on_c, 2, 52, 0
1, 72345, Note_on_c, 2, 53, 83
1, 72402, Note_on_c, 2, 53, 0
1, 72423, Note_on_c, 1, 57, 0
1, 72450, Note_on_c, 1, 65, 0
1, 72467, Note_on_c, 2, 41, 79
1, 72550, Note_on_c, 2, 41, 0
1, 72590, Note_on_c, 2, 53, 66
1, 72640, Note_on_c, 2, 53, 0
1, 72705, Note_on_c, 1, 69, 59
1, 72705, Note_on_c, 1, 65, 55
1, 72720, Note_on_c, 2, 52, 81
1, 72772, Note_on_c, 1, 65, 0
1, 72772, Note_on_c, 1, 69, 0
1, 72772, Note_on_c, 2, 52, 0
1, 72835, Note_on_c, 2, 53, 79
1, 72882, Note_on_c, 2, 53, 0
1, 72960, Note_on_c, 1, 67, 60
1, 72960, Note_on_c, 1, 64, 64
1, 72960, Note_on_c, 2, 41, 94
1, 73015, Note_on_c, 1, 64, 0
1, 73023, Note_on_c, 1, 67, 0
1, 73030, Note_on_c, 2, 41, 0
1, 73075, Note_on_c, 2, 53, 69
1, 73127, Note_on_c, 2, 53, 0
1, 73195, Note_on_c, 2, 52, 90
1, 73200, Note_on_c, 1, 64, 66
1, 73200, Note_on_c, 1, 67, 63
1, 73242, Note_on_c, 2, 52, 0
1, 73250, Note_on_c, 1, 64, 0
1, 73255, Note_on_c, 1, 67, 0
1, 73325, Note_on_c, 2, 53, 81
1, 73372, Note_on_c, 2, 53, 0
1, 73452, Note_on_c, 2, 41, 94
1, 73525, Note_on_c, 2, 41, 0
1, 73577, Note_on_c, 2, 53, 83
1, 73625, Note_on_c, 2, 53, 0
1, 73680, Note_on_c, 1, 70, 86
1, 73680, Note_on_c, 1, 67, 86
1, 73702, Note_on_c, 2, 52, 92
1, 73755, Note_on_c, 2, 52, 0
1, 73770, Note_on_c, 1, 67, 0
1, 73770, Note_on_c, 1, 70, 0
1, 73810, Note_on_c, 2, 53, 94
1, 73862, Note_on_c, 2, 53, 0
1, 73920, Note_on_c, 1, 69, 92
1, 73920, Note_on_c, 1, 65, 92
1, 73927, Note_on_c, 2, 41, 102
1, 74010, Note_on_c, 1, 65, 0
1, 74010, Note_on_c, 1, 69, 0
1, 74020, Note_on_c, 2, 41, 0
1, 74045, Note_on_c, 2, 53, 90
1, 74097, Note_on_c, 2, 53, 0
1, 74165, Note_on_c, 2, 52, 102
1, 74170, Note_on_c, 1, 65, 86
1, 74170, Note_on_c, 1, 69, 86
1, 74230, Note_on_c, 2, 52, 0
1, 74260, Note_on_c, 1, 69, 0
1, 74260, Note_on_c, 1, 65, 0
1, 74285, Note_on_c, 2, 53, 105
1, 74337, Note_on_c, 2, 53, 0
1, 74412, Note_on_c, 2, 41, 108
1, 74525, Note_on_c, 2, 53, 88
1, 74542, Note_on_c, 2, 41, 0
1, 74582, Note_on_c, 2, 53, 0
1, 74640, Note_on_c, 1, 81, 93
1, 74640, Note_on_c, 1, 77, 91
1, 74640, Note_on_c, 2, 52, 83
1, 74710, Note_on_c, 2, 52, 0
1, 74730, Note_on_c, 1, 77, 0
1, 74730, Note_on_c, 1, 81, 0
1, 74755, Note_on_c, 2, 53, 83
1, 74812, Note_on_c, 2, 53, 0
1, 74875, Note_on_c, 2, 41, 97
1, 74892, Note_on_c, 1, 79, 90
1, 74892, Note_on_c, 1, 76, 92
1, 74965, Note_on_c, 2, 41, 0
1, 74982, Note_on_c, 1, 76, 0
1, 74982, Note_on_c, 1, 79, 0
1, 74990, Note_on_c, 2, 53, 75
1, 75055, Note_on_c, 2, 53, 0
1, 75120, Note_on_c, 2, 52, 70
1, 75137, Note_on_c, 1, 79, 94
1, 75137, Note_on_c, 1, 76, 89
1, 75180, Note_on_c, 2, 52, 0
1, 75242, Note_on_c, 2, 53, 67
1, 75252, Note_on_c, 1, 79, 0
1, 75287, Note_on_c, 1, 76, 0
1, 75312, Note_on_c, 2, 53, 0
1, 75377, Note_on_c, 2, 41, 99
1, 75482, Note_on_c, 2, 53, 94
1, 75512, Note_on_c, 2, 41, 0
1, 75547, Note_on_c, 2, 53, 0
1, 75610, Note_on_c, 1, 82, 97
1, 75610, Note_on_c, 1, 76, 77
1, 75610, Note_on_c, 1, 79, 86
1, 75617, Note_on_c, 2, 52, 99
1, 75662, Note_on_c, 1, 79, 0
1, 75677, Note_on_c, 1, 82, 0
1, 75677, Note_on_c, 2, 52, 0
1, 75687, Note_on_c, 1, 76, 0
1, 75727, Note_on_c, 2, 53, 97
1, 75780, Note_on_c, 2, 53, 0
1, 75840, Note_on_c, 1, 76, 88
1, 75840, Note_on_c, 1, 79, 94
1, 75840, Note_on_c, 1, 82, 99
1, 75840, Note_on_c, 2, 53, 108
1, 75840, Note_on_c, 2, 41, 108
1, 76542, Note_on_c, 1, 76, 0
1, 76577, Note_on_c, 1, 79, 0
1, 76597, Note_on_c, 1, 82, 0
1, 76775, Note_on_c, 1, 77, 43
1, 76780, Note_on_c, 1, 81, 49
1, 77142, Note_on_c, 1, 81, 0
1, 77150, Note_on_c, 1, 77, 0
1, 77225, Note_on_c, 2, 41, 0
1, 77225, Note_on_c, 2, 53, 0
1, 77760, Note_on_c, 1, 70, 60
1, 77760, Note_on_c, 2, 58, 46
1, 77760, Note_on_c, 2, 62, 46
1, 77897, Note_on_c, 1, 72, 63
1, 77910, Note_on_c, 1, 70, 0
1, 77960, Note_on_c, 1, 70, 54
1, 77967, Note_on_c, 1, 72, 0
1, 78015, Note_on_c, 1, 70, 0
1, 78015, Note_on_c, 1, 72, 57
1, 78065, Note_on_c, 1, 70, 59
1, 78075, Note_on_c, 1, 72, 0
1, 78125, Note_on_c, 1, 70, 0
1, 78125, Note_on_c, 1, 72, 74
1, 78215, Note_on_c, 1, 70, 83
1, 78235, Note_on_c, 1, 72, 0
1, 78390, Note_on_c, 1, 72, 55
1, 78442, Note_on_c, 1, 70, 0
1, 78550, Note_on_c, 1, 74, 68
1, 78595, Note_on_c, 1, 72, 0
1, 78710, Note_on_c, 2, 63, 54
1, 78710, Note_on_c, 2, 60, 61
1, 78715, Note_on_c, 1, 70, 61
1, 78740, Note_on_c, 1, 74, 0
1, 78743, Note_on_c, 2, 62, 0
1, 78752, Note_on_c, 2, 58, 0
1, 78877, Note_on_c, 1, 69, 62
1, 78902, Note_on_c, 1, 70, 0
1, 79030, Note_on_c, 1, 72, 66
1, 79065, Note_on_c, 1, 69, 0
1, 79195, Note_on_c, 1, 70, 63
1, 79262, Note_on_c, 1, 72, 0
1, 79357, Note_on_c, 1, 69, 61
1, 79395, Note_on_c, 1, 70, 0
1, 79510, Note_on_c, 1, 75, 66
1, 79520, Note_on_c, 1, 69, 0
1, 79680, Note_on_c, 2, 65, 63
1, 79680, Note_on_c, 2, 62, 49
1, 79682, Note_on_c, 1, 75, 0
1, 79682, Note_on_c, 1, 72, 73
1, 79700, Note_on_c, 2, 63, 0
1, 79710, Note_on_c, 2, 60, 0
1, 79837, Note_on_c, 1, 70, 53
1, 79857, Note_on_c, 1, 72, 0
1, 79990, Note_on_c, 1, 74, 52
1, 80045, Note_on_c, 1, 70, 0
1, 80155, Note_on_c, 1, 72, 68
1, 80182, Note_on_c, 1, 74, 0
1, 80315, Note_on_c, 1, 70, 53
1, 80457, Note_on_c, 1, 72, 0
1, 80467, Note_on_c, 1, 77, 64
1, 80472, Note_on_c, 1, 70, 0
1, 80655, Note_on_c, 1, 74, 54
1, 80677, Note_on_c, 2, 62, 0
1, 80685, Note_on_c, 1, 77, 0
1, 80700, Note_on_c, 2, 65, 0
1, 81142, Note_on_c, 1, 74, 0
1, 81600, Note_on_c, 1, 70, 86
1, 81600, Note_on_c, 1, 79, 94
1, 81600, Note_on_c, 1, 75, 99
1, 81600, Note_on_c, 2, 63, 115
1, 81600, Note_on_c, 2, 51, 94
1, 81845, Note_on_c, 1, 75, 0
1, 81853, Note_on_c, 2, 51, 0
1, 81860, Note_on_c, 1, 79, 0
1, 81860, Note_on_c, 2, 63, 0
1, 81862, Note_on_c, 1, 70, 0
1, 82080, Note_on_c, 2, 58, 108
1, 82080, Note_on_c, 2, 46, 119
1, 82087, Note_on_c, 1, 77, 83
1, 82087, Note_on_c, 1, 74, 84
1, 82087, Note_on_c, 1, 70, 73
1, 82257, Note_on_c, 1, 74, 0
1, 82260, Note_on_c, 1, 70, 0
1, 82275, Note_on_c, 2, 46, 0
1, 82285, Note_on_c, 1, 77, 0
1, 82302, Note_on_c, 2, 58, 0
1, 82565, Note_on_c, 1, 77, 97
1, 82675, Note_on_c, 1, 82, 77
1, 82697, Note_on_c, 1, 77, 0
1, 82802, Note_on_c, 1, 81, 79
1, 82842, Note_on_c, 1, 82, 0
1, 82907, Note_on_c, 1, 82, 74
1, 82935, Note_on_c, 1, 81, 0
1, 83035, Note_on_c, 1, 84, 97
1, 83060, Note_on_c, 1, 82, 0
1, 83147, Note_on_c, 1, 82, 81
1, 83202, Note_on_c, 1, 84, 0
1, 83275, Note_on_c, 1, 81, 70
1, 83287, Note_on_c, 1, 82, 0
1, 83367, Note_on_c, 1, 82, 54
1, 83390, Note_on_c, 1, 81, 0
1, 83402, Note_on_c, 1, 82, 0
1, 83510, Note_on_c, 2, 53, 83
1, 83515, Note_on_c, 2, 41, 83
1, 83525, Note_on_c, 1, 74, 90
1, 83527, Note_on_c, 1, 77, 90
1, 83645, Note_on_c, 1, 75, 83
1, 83647, Note_on_c, 1, 72, 70
1, 83662, Note_on_c, 1, 74, 0
1, 83672, Note_on_c, 1, 77, 0
1, 83750, Note_on_c, 2, 41, 0
1, 83760, Note_on_c, 2, 53, 0
1, 83937, Note_on_c, 1, 75, 0
1, 83957, Note_on_c, 1, 72, 0
1, 83997, Note_on_c, 2, 58, 86
1, 84007, Note_on_c, 1, 74, 62
1, 84007, Note_on_c, 1, 70, 59
1, 84007, Note_on_c, 2, 46, 83
1, 84215, Note_on_c, 1, 70, 0
1, 84220, Note_on_c, 2, 58, 0
1, 84225, Note_on_c, 1, 74, 0
1, 84227, Note_on_c, 2, 46, 0
1, 85430, Note_on_c, 2, 46, 54
1, 85430, Note_on_c, 2, 50, 54
1, 85460, Note_on_c, 1, 58, 42
1, 85577, Note_on_c, 1, 60, 51
1, 85587, Note_on_c, 1, 58, 0
1, 85665, Note_on_c, 1, 58, 53
1, 85675, Note_on_c, 1, 60, 0
1, 85725, Note_on_c, 1, 58, 0
1, 85727, Note_on_c, 1, 60, 57
1, 85780, Note_on_c, 1, 58, 53
1, 85795, Note_on_c, 1, 60, 0
1, 85840, Note_on_c, 1, 60, 63
1, 85852, Note_on_c, 1, 58, 0
1, 85925, Note_on_c, 1, 58, 49
1, 85947, Note_on_c, 1, 60, 0
1, 86080, Note_on_c, 1, 60, 59
1, 86122, Note_on_c, 1, 58, 0
1, 86227, Note_on_c, 1, 62, 55
1, 86265, Note_on_c, 1, 60, 0
1, 86380, Note_on_c, 2, 51, 68
1, 86392, Note_on_c, 2, 48, 61
1, 86395, Note_on_c, 1, 58, 57
1, 86422, Note_on_c, 1, 62, 0
1, 86437, Note_on_c, 2, 50, 0
1, 86442, Note_on_c, 2, 46, 0
1, 86545, Note_on_c, 1, 57, 49
1, 86585, Note_on_c, 1, 58, 0
1, 86695, Note_on_c, 1, 60, 52
1, 86777, Note_on_c, 1, 57, 0
1, 86875, Note_on_c, 1, 58, 59
1, 86917, Note_on_c, 1, 60, 0
1, 87032, Note_on_c, 1, 57, 59
1, 87072, Note_on_c, 1, 58, 0
1, 87187, Note_on_c, 1, 63, 55
1, 87320, Note_on_c, 1, 57, 0
1, 87345, Note_on_c, 1, 60, 70
1, 87355, Note_on_c, 1, 63, 0
1, 87372, Note_on_c, 2, 53, 57
1, 87372, Note_on_c, 2, 50, 47
1, 87402, Note_on_c, 2, 51, 0
1, 87417, Note_on_c, 2, 48, 0
1, 87500, Note_on_c, 1, 58, 40
1, 87522, Note_on_c, 1, 60, 0
1, 87662, Note_on_c, 1, 62, 47
1, 87725, Note_on_c, 1, 58, 0
1, 87840, Note_on_c, 1, 60, 68
1, 87850, Note_on_c, 1, 62, 0
1, 87997, Note_on_c, 1, 58, 48
1, 88020, Note_on_c, 1, 60, 0
1, 88152, Note_on_c, 1, 65, 45
1, 88170, Note_on_c, 1, 58, 0
1, 88325, Note_on_c, 1, 62, 45
1, 88345, Note_on_c, 1, 65, 0
1, 88535, Note_on_c, 2, 50, 0
1, 88555, Note_on_c, 2, 53, 0
1, 88805, Note_on_c, 1, 62, 0
1, 89095, Note_on_c, 2, 51, 79
1, 89170, Note_on_c, 2, 55, 97
1, 89265, Note_on_c, 1, 67, 81
1, 89265, Note_on_c, 2, 60, 102
1, 89435, Note_on_c, 1, 72, 77
1, 89457, Note_on_c, 1, 67, 0
1, 89587, Note_on_c, 1, 75, 92
1, 89610, Note_on_c, 1, 72, 0
1, 89745, Note_on_c, 1, 75, 0
1, 89755, Note_on_c, 1, 72, 97
1, 89907, Note_on_c, 1, 75, 97
1, 89940, Note_on_c, 1, 72, 0
1, 90065, Note_on_c, 1, 79, 86
1, 90110, Note_on_c, 1, 75, 0
1, 90142, Note_on_c, 1, 79, 0
1, 90230, Note_on_c, 2, 62, 99
1, 90230, Note_on_c, 2, 53, 77
1, 90240, Note_on_c, 1, 79, 94
1, 90257, Note_on_c, 2, 60, 0
1, 90257, Note_on_c, 2, 51, 0
1, 90287, Note_on_c, 2, 55, 0
1, 90355, Note_on_c, 1, 77, 83
1, 90375, Note_on_c, 1, 79, 0
1, 90480, Note_on_c, 1, 75, 90
1, 90507, Note_on_c, 1, 77, 0
1, 90585, Note_on_c, 1, 74, 102
1, 90615, Note_on_c, 1, 75, 0
1, 90657, Note_on_c, 1, 74, 0
1, 90705, Note_on_c, 2, 63, 97
1, 90715, Note_on_c, 1, 74, 97
1, 90737, Note_on_c, 2, 62, 0
1, 90830, Note_on_c, 1, 72, 83
1, 90850, Note_on_c, 1, 74, 0
1, 90960, Note_on_c, 1, 70, 88
1, 90970, Note_on_c, 1, 72, 0
1, 91075, Note_on_c, 1, 69, 73
1, 91090, Note_on_c, 1, 70, 0
1, 91115, Note_on_c, 2, 63, 0
1, 91185, Note_on_c, 2, 53, 0
1, 91195, Note_on_c, 2, 62, 69
1, 91200, Note_on_c, 2, 58, 73
1, 91207, Note_on_c, 1, 70, 91
1, 91225, Note_on_c, 1, 69, 0
1, 91275, Note_on_c, 2, 58, 0
1, 91280, Note_on_c, 2, 62, 0
1, 91437, Note_on_c, 2, 62, 69
1, 91437, Note_on_c, 2, 58, 62
1, 91485, Note_on_c, 2, 58, 0
1, 91492, Note_on_c, 2, 62, 0
1, 91680, Note_on_c, 2, 58, 43
1, 91680, Note_on_c, 2, 62, 60
1, 91727, Note_on_c, 2, 58, 0
1, 91742, Note_on_c, 2, 62, 0
1, 91915, Note_on_c, 2, 62, 61
1, 91920, Note_on_c, 2, 58, 45
1, 91967, Note_on_c, 2, 58, 0
1, 91980, Note_on_c, 2, 62, 0
1, 92152, Note_on_c, 2, 62, 57
1, 92152, Note_on_c, 2, 58, 46
1, 92155, Note_on_c, 1, 70, 0
1, 92217, Note_on_c, 2, 58, 0
1, 92227, Note_on_c, 2, 62, 0
1, 92397, Note_on_c, 2, 58, 37
1, 92397, Note_on_c, 2, 62, 55
1, 92405, Note_on_c, 1, 70, 86
1, 92447, Note_on_c, 2, 58, 0
1, 92460, Note_on_c, 2, 62, 0
1, 92635, Note_on_c, 2, 62, 61
1, 92637, Note_on_c, 2, 58, 45
1, 92645, Note_on_c, 1, 69, 77
1, 92667, Note_on_c, 1, 70, 0
1, 92692, Note_on_c, 2, 58, 0
1, 92705, Note_on_c, 2, 62, 0
1, 92880, Note_on_c, 1, 68, 67
1, 92892, Note_on_c, 2, 62, 55
1, 92900, Note_on_c, 2, 58, 45
1, 92902, Note_on_c, 1, 69, 0
1, 92945, Note_on_c, 2, 58, 0
1, 92962, Note_on_c, 2, 62, 0
1, 93120, Note_on_c, 1, 67, 72
1, 93137, Note_on_c, 2, 63, 86
1, 93137, Note_on_c, 2, 58, 67
1, 93140, Note_on_c, 1, 68, 0
1, 93205, Note_on_c, 2, 58, 0
1, 93225, Note_on_c, 2, 63, 0
1, 93367, Note_on_c, 1, 69, 66
1, 93377, Note_on_c, 2, 63, 45
1, 93392, Note_on_c, 1, 67, 0
1, 93392, Note_on_c, 2, 58, 45
1, 93450, Note_on_c, 2, 58, 0
1, 93450, Note_on_c, 2, 63, 0
1, 93475, Note_on_c, 1, 70, 55
1, 93510, Note_on_c, 1, 69, 0
1, 93602, Note_on_c, 2, 63, 61
1, 93605, Note_on_c, 1, 70, 0
1, 93610, Note_on_c, 2, 58, 52
1, 93612, Note_on_c, 1, 72, 64
1, 93665, Note_on_c, 2, 58, 0
1, 93677, Note_on_c, 2, 63, 0
1, 93722, Note_on_c, 1, 74, 65
1, 93747, Note_on_c, 1, 72, 0
1, 93835, Note_on_c, 1, 75, 86
1, 93842, Note_on_c, 2, 63, 66
1, 93842, Note_on_c, 2, 58, 50
1, 93867, Note_on_c, 1, 74, 0
1, 93902, Note_on_c, 2, 58, 0
1, 93912, Note_on_c, 2, 63, 0
1, 93955, Note_on_c, 1, 77, 73
1, 93960, Note_on_c, 1, 75, 0
1, 94077, Note_on_c, 2, 63, 77
1, 94077, Note_on_c, 2, 58, 57
1, 94097, Note_on_c, 1, 77, 0
1, 94097, Note_on_c, 1, 79, 94
1, 94132, Note_on_c, 2, 58, 0
1, 94142, Note_on_c, 2, 63, 0
1, 94200, Note_on_c, 1, 81, 90
1, 94235, Note_on_c, 1, 79, 0
1, 94320, Note_on_c, 2, 63, 75
1, 94322, Note_on_c, 2, 58, 48
1, 94330, Note_on_c, 1, 82, 90
1, 94352, Note_on_c, 1, 81, 0
1, 94390, Note_on_c, 2, 63, 0
1, 94395, Note_on_c, 2, 58, 0
1, 94437, Note_on_c, 1, 81, 90
1, 94475, Note_on_c, 1, 82, 0
1, 94567, Note_on_c, 2, 63, 66
1, 94570, Note_on_c, 1, 82, 97
1, 94572, Note_on_c, 2, 58, 53
1, 94597, Note_on_c, 1, 81, 0
1, 94635, Note_on_c, 2, 58, 0
1, 94645, Note_on_c, 2, 63, 0
1, 94680, Note_on_c, 1, 81, 86
1, 94707, Note_on_c, 1, 82, 0
1, 94800, Note_on_c, 1, 82, 75
1, 94805, Note_on_c, 2, 63, 59
1, 94807, Note_on_c, 2, 58, 51
1, 94850, Note_on_c, 1, 81, 0
1, 94870, Note_on_c, 2, 58, 0
1, 94875, Note_on_c, 2, 63, 0
1, 94890, Note_on_c, 1, 79, 68
1, 95002, Note_on_c, 1, 82, 0
1, 95040, Note_on_c, 1, 77, 53
1, 95040, Note_on_c, 2, 62, 70
1, 95040, Note_on_c, 2, 58, 53
1, 95047, Note_on_c, 1, 79, 0
1, 95112, Note_on_c, 2, 62, 0
1, 95115, Note_on_c, 2, 58, 0
1, 95280, Note_on_c, 2, 58, 31
1, 95282, Note_on_c, 2, 62, 44
1, 95345, Note_on_c, 2, 62, 0
1, 95350, Note_on_c, 2, 58, 0
1, 95515, Note_on_c, 2, 58, 36
1, 95520, Note_on_c, 2, 62, 49
1, 95587, Note_on_c, 2, 62, 0
1, 95590, Note_on_c, 2, 58, 0
1, 95702, Note_on_c, 1, 77, 0
1, 95760, Note_on_c, 2, 58, 32
1, 95765, Note_on_c, 2, 62, 50
1, 95820, Note_on_c, 2, 62, 0
1, 95840, Note_on_c, 2, 58, 0
1, 95995, Note_on_c, 2, 58, 34
1, 95997, Note_on_c, 2, 62, 51
1, 96077, Note_on_c, 2, 62, 0
1, 96080, Note_on_c, 2, 58, 0
1, 96235, Note_on_c, 2, 58, 38
1, 96237, Note_on_c, 2, 62, 50
1, 96252, Note_on_c, 1, 70, 79
1, 96300, Note_on_c, 2, 58, 0
1, 96310, Note_on_c, 2, 62, 0
1, 96482, Note_on_c, 1, 69, 73
1, 96500, Note_on_c, 2, 62, 53
1, 96502, Note_on_c, 2, 58, 35
1, 96525, Note_on_c, 1, 70, 0
1, 96575, Note_on_c, 2, 58, 0
1, 96575, Note_on_c, 2, 62, 0
1, 96720, Note_on_c, 1, 68, 70
1, 96740, Note_on_c, 1, 69, 0
1, 96740, Note_on_c, 2, 62, 55
1, 96742, Note_on_c, 2, 58, 33
1, 96805, Note_on_c, 2, 62, 0
1, 96812, Note_on_c, 2, 58, 0
1, 96965, Note_on_c, 1, 67, 79
1, 96970, Note_on_c, 2, 58, 63
1, 96970, Note_on_c, 2, 63, 77
1, 96972, Note_on_c, 1, 68, 0
1, 97075, Note_on_c, 2, 63, 0
1, 97075, Note_on_c, 2, 58, 0
1, 97200, Note_on_c, 1, 69, 77
1, 97222, Note_on_c, 1, 67, 0
1, 97227, Note_on_c, 2, 58, 36
1, 97227, Note_on_c, 2, 63, 42
1, 97290, Note_on_c, 2, 58, 0
1, 97300, Note_on_c, 2, 63, 0
1, 97310, Note_on_c, 1, 70, 94
1, 97342, Note_on_c, 1, 69, 0
1, 97435, Note_on_c, 1, 70, 0
1, 97437, Note_on_c, 1, 72, 69
1, 97447, Note_on_c, 2, 63, 45
1, 97455, Note_on_c, 2, 58, 36
1, 97530, Note_on_c, 2, 58, 0
1, 97530, Note_on_c, 2, 63, 0
1, 97545, Note_on_c, 1, 74, 67
1, 97565, Note_on_c, 1, 72, 0
1, 97675, Note_on_c, 1, 75, 74
1, 97675, Note_on_c, 2, 58, 37
1, 97675, Note_on_c, 2, 63, 45
1, 97712, Note_on_c, 1, 74, 0
1, 97755, Note_on_c, 2, 63, 0
1, 97755, Note_on_c, 2, 58, 0
1, 97785, Note_on_c, 1, 77, 68
1, 97800, Note_on_c, 1, 75, 0
1, 97912, Note_on_c, 1, 79, 90
1, 97915, Note_on_c, 2, 58, 37
1, 97915, Note_on_c, 2, 63, 43
1, 97932, Note_on_c, 1, 77, 0
1, 97990, Note_on_c, 2, 63, 0
1, 97995, Note_on_c, 2, 58, 0
1, 98025, Note_on_c, 1, 81, 83
1, 98067, Note_on_c, 1, 79, 0
1, 98145, Note_on_c, 2, 63, 42
1, 98147, Note_on_c, 2, 58, 41
1, 98157, Note_on_c, 1, 82, 92
1, 98192, Note_on_c, 1, 81, 0
1, 98220, Note_on_c, 2, 58, 0
1, 98225, Note_on_c, 2, 63, 0
1, 98272, Note_on_c, 1, 81, 83
1, 98305, Note_on_c, 1, 82, 0
1, 98382, Note_on_c, 2, 58, 39
1, 98382, Note_on_c, 2, 63, 46
1, 98392, Note_on_c, 1, 82, 84
1, 98430, Note_on_c, 1, 81, 0
1, 98470, Note_on_c, 2, 63, 0
1, 98477, Note_on_c, 2, 58, 0
1, 98507, Note_on_c, 1, 81, 86
1, 98545, Note_on_c, 1, 82, 0
1, 98627, Note_on_c, 2, 58, 30
1, 98632, Note_on_c, 2, 63, 39
1, 98635, Note_on_c, 1, 82, 73
1, 98677, Note_on_c, 1, 81, 0
1, 98700, Note_on_c, 2, 63, 0
1, 98707, Note_on_c, 2, 58, 0
1, 98740, Note_on_c, 1, 79, 79
1, 98820, Note_on_c, 1, 82, 0
1, 98875, Note_on_c, 2, 58, 56
1, 98875, Note_on_c, 2, 62, 74
1, 98880, Note_on_c, 1, 77, 72
1, 98905, Note_on_c, 1, 79, 0
1, 99002, Note_on_c, 2, 62, 0
1, 99002, Note_on_c, 2, 58, 0
1, 99120, Note_on_c, 2, 58, 51
1, 99237, Note_on_c, 2, 58, 0
1, 99310, Note_on_c, 1, 77, 0
1, 99345, Note_on_c, 2, 62, 75
1, 99422, Note_on_c, 2, 62, 0
1, 99480, Note_on_c, 1, 82, 73
1, 99577, Note_on_c, 1, 82, 0
1, 99580, Note_on_c, 2, 65, 77
1, 99610, Note_on_c, 1, 84, 97
1, 99680, Note_on_c, 2, 65, 0
1, 99700, Note_on_c, 1, 84, 0
1, 99710, Note_on_c, 1, 82, 78
1, 99767, Note_on_c, 1, 82, 0
1, 99835, Note_on_c, 1, 86, 102
1, 99847, Note_on_c, 2, 58, 66
1, 99902, Note_on_c, 1, 86, 0
1, 99950, Note_on_c, 1, 84, 77
1, 100000, Note_on_c, 1, 84, 0
1, 100070, Note_on_c, 1, 82, 102
1, 100117, Note_on_c, 1, 82, 0
1, 100180, Note_on_c, 1, 81, 86
1, 100180, Note_on_c, 2, 58, 0
1, 100237, Note_on_c, 1, 81, 0
1, 100310, Note_on_c, 1, 79, 94
1, 100357, Note_on_c, 1, 79, 0
1, 100420, Note_on_c, 1, 77, 86
1, 100467, Note_on_c, 1, 77, 0
1, 100540, Note_on_c, 1, 75, 90
1, 100587, Note_on_c, 1, 75, 0
1, 100655, Note_on_c, 1, 74, 79
1, 100705, Note_on_c, 1, 74, 0
1, 100800, Note_on_c, 1, 75, 97
1, 101027, Note_on_c, 2, 53, 68
1, 101132, Note_on_c, 1, 75, 0
1, 101162, Note_on_c, 2, 53, 0
1, 101267, Note_on_c, 2, 57, 69
1, 101395, Note_on_c, 1, 81, 59
1, 101400, Note_on_c, 2, 57, 0
1, 101510, Note_on_c, 1, 82, 47
1, 101515, Note_on_c, 1, 81, 0
1, 101517, Note_on_c, 2, 60, 69
1, 101620, Note_on_c, 1, 81, 51
1, 101642, Note_on_c, 1, 82, 0
1, 101657, Note_on_c, 2, 60, 0
1, 101697, Note_on_c, 1, 81, 0
1, 101735, Note_on_c, 1, 84, 62
1, 101757, Note_on_c, 2, 53, 65
1, 101787, Note_on_c, 1, 84, 0
1, 101855, Note_on_c, 1, 82, 57
1, 101902, Note_on_c, 1, 82, 0
1, 101947, Note_on_c, 2, 53, 0
1, 101967, Note_on_c, 1, 81, 51
1, 102015, Note_on_c, 1, 81, 0
1, 102075, Note_on_c, 1, 79, 56
1, 102132, Note_on_c, 1, 79, 0
1, 102200, Note_on_c, 1, 77, 64
1, 102252, Note_on_c, 1, 77, 0
1, 102322, Note_on_c, 1, 75, 54
1, 102360, Note_on_c, 1, 75, 0
1, 102445, Note_on_c, 1, 74, 61
1, 102492, Note_on_c, 1, 74, 0
1, 102560, Note_on_c, 1, 72, 65
1, 102602, Note_on_c, 1, 72, 0
1, 102715, Note_on_c, 1, 74, 64
1, 102947, Note_on_c, 2, 46, 84
1, 102947, Note_on_c, 2, 34, 94
1, 103040, Note_on_c, 1, 74, 0
1, 103065, Note_on_c, 2, 34, 0
1, 103087, Note_on_c, 2, 46, 0
1, 103185, Note_on_c, 2, 50, 83
1, 103190, Note_on_c, 2, 38, 81
1, 103255, Note_on_c, 2, 50, 0
1, 103280, Note_on_c, 2, 38, 0
1, 103315, Note_on_c, 1, 77, 97
1, 103415, Note_on_c, 2, 53, 79
1, 103415, Note_on_c, 2, 41, 86
1, 103430, Note_on_c, 1, 79, 86
1, 103452, Note_on_c, 1, 77, 0
1, 103502, Note_on_c, 2, 53, 0
1, 103515, Note_on_c, 2, 41, 0
1, 103540, Note_on_c, 1, 77, 83
1, 103555, Note_on_c, 1, 79, 0
1, 103630, Note_on_c, 1, 77, 0
1, 103660, Note_on_c, 1, 82, 90
1, 103670, Note_on_c, 2, 38, 92
1, 103675, Note_on_c, 2, 50, 84
1, 103722, Note_on_c, 1, 82, 0
1, 103780, Note_on_c, 1, 81, 69
1, 103837, Note_on_c, 1, 81, 0
1, 103905, Note_on_c, 1, 79, 83
1, 103932, Note_on_c, 2, 50, 0
1, 103932, Note_on_c, 2, 38, 0
1, 103975, Note_on_c, 1, 79, 0
1, 104025, Note_on_c, 1, 77, 73
1, 104080, Note_on_c, 1, 77, 0
1, 104152, Note_on_c, 1, 75, 90
1, 104205, Note_on_c, 1, 75, 0
1, 104265, Note_on_c, 1, 74, 86
1, 104322, Note_on_c, 1, 74, 0
1, 104387, Note_on_c, 2, 65, 70
1, 104387, Note_on_c, 2, 62, 66
1, 104395, Note_on_c, 1, 72, 78
1, 104442, Note_on_c, 1, 72, 0
1, 104510, Note_on_c, 1, 70, 88
1, 104547, Note_on_c, 1, 70, 0
1, 104637, Note_on_c, 2, 63, 66
1, 104637, Note_on_c, 2, 67, 75
1, 104640, Note_on_c, 1, 74, 94
1, 104660, Note_on_c, 2, 62, 0
1, 104672, Note_on_c, 2, 65, 0
1, 104745, Note_on_c, 1, 72, 60
1, 104765, Note_on_c, 1, 74, 0
1, 104875, Note_on_c, 1, 75, 45
1, 104932, Note_on_c, 1, 72, 0
1, 104982, Note_on_c, 1, 74, 66
1, 105010, Note_on_c, 1, 75, 0
1, 105120, Note_on_c, 1, 77, 59
1, 105142, Note_on_c, 1, 74, 0
1, 105235, Note_on_c, 1, 75, 54
1, 105262, Note_on_c, 1, 77, 0
1, 105362, Note_on_c, 1, 79, 75
1, 105375, Note_on_c, 1, 75, 0
1, 105465, Note_on_c, 1, 78, 66
1, 105480, Note_on_c, 1, 79, 0
1, 105600, Note_on_c, 1, 79, 105
1, 105600, Note_on_c, 2, 63, 0
1, 105607, Note_on_c, 2, 67, 0
1, 105615, Note_on_c, 1, 78, 0
1, 105657, Note_on_c, 1, 79, 0
1, 105712, Note_on_c, 1, 77, 92
1, 105762, Note_on_c, 1, 77, 0
1, 105832, Note_on_c, 1, 75, 90
1, 105882, Note_on_c, 1, 75, 0
1, 105945, Note_on_c, 1, 74, 94
1, 106005, Note_on_c, 1, 74, 0
1, 106075, Note_on_c, 1, 72, 83
1, 106132, Note_on_c, 1, 72, 0
1, 106192, Note_on_c, 1, 70, 73
1, 106250, Note_on_c, 1, 70, 0
1, 106310, Note_on_c, 1, 69, 62
1, 106320, Note_on_c, 2, 64, 72
1, 106320, Note_on_c, 2, 67, 68
1, 106392, Note_on_c, 1, 69, 0
1, 106435, Note_on_c, 1, 70, 54
1, 106487, Note_on_c, 1, 70, 0
1, 106565, Note_on_c, 1, 69, 69
1, 106575, Note_on_c, 2, 65, 61
1, 106597, Note_on_c, 2, 64, 0
1, 106607, Note_on_c, 2, 67, 0
1, 106632, Note_on_c, 1, 69, 0
1, 106677, Note_on_c, 1, 70, 68
1, 106732, Note_on_c, 1, 70, 0
1, 106807, Note_on_c, 1, 72, 62
1, 106860, Note_on_c, 1, 72, 0
1, 106920, Note_on_c, 1, 74, 45
1, 106947, Note_on_c, 2, 65, 0
1, 106972, Note_on_c, 1, 74, 0
1, 107065, Note_on_c, 1, 76, 57
1, 107170, Note_on_c, 1, 77, 58
1, 107185, Note_on_c, 1, 76, 0
1, 107292, Note_on_c, 1, 76, 58
1, 107300, Note_on_c, 1, 77, 0
1, 107405, Note_on_c, 1, 77, 55
1, 107435, Note_on_c, 1, 76, 0
1, 107532, Note_on_c, 1, 77, 0
1, 107537, Note_on_c, 2, 45, 79
1, 107562, Note_on_c, 1, 65, 45
1, 107600, Note_on_c, 2, 45, 0
1, 107650, Note_on_c, 2, 46, 94
1, 107695, Note_on_c, 2, 46, 0
1, 107767, Note_on_c, 2, 48, 70
1, 107825, Note_on_c, 2, 48, 0
1, 107885, Note_on_c, 2, 50, 77
1, 107942, Note_on_c, 2, 50, 0
1, 108010, Note_on_c, 2, 52, 57
1, 108115, Note_on_c, 2, 53, 61
1, 108137, Note_on_c, 2, 52, 0
1, 108242, Note_on_c, 2, 53, 0
1, 108242, Note_on_c, 2, 52, 54
1, 108322, Note_on_c, 1, 65, 0
1, 108337, Note_on_c, 2, 53, 59
1, 108357, Note_on_c, 2, 52, 0
1, 108490, Note_on_c, 2, 41, 54
1, 108492, Note_on_c, 2, 53, 0
1, 108920, Note_on_c, 2, 41, 0
1, 109200, Note_on_c, 1, 84, 59
1, 109257, Note_on_c, 1, 84, 0
1, 109440, Note_on_c, 1, 84, 49
1, 109490, Note_on_c, 1, 84, 0
1, 109680, Note_on_c, 1, 84, 61
1, 109722, Note_on_c, 1, 84, 0
1, 109920, Note_on_c, 1, 84, 55
1, 109962, Note_on_c, 1, 84, 0
1, 110160, Note_on_c, 1, 84, 59
1, 110197, Note_on_c, 1, 84, 0
1, 110397, Note_on_c, 2, 65, 45
1, 110412, Note_on_c, 1, 84, 79
1, 110635, Note_on_c, 2, 72, 49
1, 110687, Note_on_c, 2, 65, 0
1, 110892, Note_on_c, 2, 69, 37
1, 110927, Note_on_c, 2, 72, 0
1, 111120, Note_on_c, 2, 72, 54
1, 111125, Note_on_c, 1, 82, 60
1, 111142, Note_on_c, 2, 69, 0
1, 111150, Note_on_c, 1, 84, 0
1, 111225, Note_on_c, 1, 81, 63
1, 111257, Note_on_c, 1, 82, 0
1, 111342, Note_on_c, 1, 81, 0
1, 111370, Note_on_c, 1, 79, 65
1, 111377, Note_on_c, 2, 67, 42
1, 111392, Note_on_c, 2, 72, 0
1, 111445, Note_on_c, 1, 79, 0
1, 111585, Note_on_c, 1, 77, 59
1, 111595, Note_on_c, 2, 72, 46
1, 111627, Note_on_c, 2, 67, 0
1, 111657, Note_on_c, 1, 77, 0
1, 111840, Note_on_c, 1, 76, 63
1, 111842, Note_on_c, 2, 70, 42
1, 111870, Note_on_c, 2, 72, 0
1, 111902, Note_on_c, 1, 76, 0
1, 112060, Note_on_c, 2, 72, 58
1, 112075, Note_on_c, 1, 79, 66
1, 112085, Note_on_c, 2, 70, 0
1, 112132, Note_on_c, 1, 79, 0
1, 112320, Note_on_c, 1, 77, 59
1, 112320, Note_on_c, 2, 69, 43
1, 112352, Note_on_c, 2, 72, 0
1, 112552, Note_on_c, 2, 69, 0
1, 112552, Note_on_c, 2, 65, 31
1, 112780, Note_on_c, 2, 72, 47
1, 112822, Note_on_c, 2, 65, 0
1, 112823, Note_on_c, 1, 77, 0
1, 113012, Note_on_c, 2, 72, 0
1, 113040, Note_on_c, 1, 84, 69
1, 113083, Note_on_c, 1, 84, 0
1, 113280, Note_on_c, 1, 84, 57
1, 113327, Note_on_c, 1, 84, 0
1, 113520, Note_on_c, 1, 84, 61
1, 113557, Note_on_c, 1, 84, 0
1, 113760, Note_on_c, 1, 84, 66
1, 113820, Note_on_c, 1, 84, 0
1, 114000, Note_on_c, 1, 84, 64
1, 114037, Note_on_c, 1, 84, 0
1, 114240, Note_on_c, 1, 84, 77
1, 114247, Note_on_c, 2, 65, 37
1, 114480, Note_on_c, 2, 72, 36
1, 114540, Note_on_c, 2, 65, 0
1, 114732, Note_on_c, 2, 69, 40
1, 114760, Note_on_c, 2, 72, 0
1, 114962, Note_on_c, 2, 72, 52
1, 114965, Note_on_c, 1, 82, 60
1, 114977, Note_on_c, 2, 69, 0
1, 114987, Note_on_c, 1, 84, 0
1, 115065, Note_on_c, 1, 81, 53
1, 115105, Note_on_c, 1, 82, 0
1, 115167, Note_on_c, 1, 81, 0
1, 115202, Note_on_c, 1, 79, 68
1, 115210, Note_on_c, 2, 64, 38
1, 115237, Note_on_c, 2, 72, 0
1, 115315, Note_on_c, 1, 79, 0
1, 115440, Note_on_c, 1, 81, 65
1, 115467, Note_on_c, 2, 72, 37
1, 115482, Note_on_c, 2, 64, 0
1, 115535, Note_on_c, 1, 81, 0
1, 115675, Note_on_c, 1, 82, 62
1, 115695, Note_on_c, 2, 67, 44
1, 115727, Note_on_c, 2, 72, 0
1, 115762, Note_on_c, 1, 82, 0
1, 115912, Note_on_c, 1, 79, 64
1, 115942, Note_on_c, 2, 72, 39
1, 115952, Note_on_c, 2, 67, 0
1, 115980, Note_on_c, 1, 79, 0
1, 116160, Note_on_c, 1, 81, 78
1, 116182, Note_on_c, 2, 65, 34
1, 116190, Note_on_c, 2, 72, 0
1, 116412, Note_on_c, 2, 69, 45
1, 116442, Note_on_c, 2, 65, 0
1, 116652, Note_on_c, 2, 72, 44
1, 116677, Note_on_c, 1, 81, 0
1, 116677, Note_on_c, 2, 69, 0
1, 116877, Note_on_c, 2, 72, 0
1, 116880, Note_on_c, 1, 84, 66
1, 116922, Note_on_c, 1, 84, 0
1, 117120, Note_on_c, 1, 84, 66
1, 117170, Note_on_c, 1, 84, 0
1, 117360, Note_on_c, 1, 84, 73
1, 117412, Note_on_c, 1, 84, 0
1, 117600, Note_on_c, 1, 84, 68
1, 117647, Note_on_c, 1, 84, 0
1, 117840, Note_on_c, 1, 85, 68
1, 117902, Note_on_c, 1, 85, 0
1, 118070, Note_on_c, 2, 58, 105
1, 118070, Note_on_c, 2, 46, 108
1, 118095, Note_on_c, 1, 86, 83
1, 118222, Note_on_c, 1, 74, 54
1, 118242, Note_on_c, 1, 86, 0
1, 118342, Note_on_c, 1, 73, 84
1, 118355, Note_on_c, 1, 74, 0
1, 118447, Note_on_c, 1, 74, 75
1, 118452, Note_on_c, 1, 73, 0
1, 118572, Note_on_c, 1, 75, 86
1, 118587, Note_on_c, 1, 74, 0
1, 118675, Note_on_c, 1, 74, 73
1, 118690, Note_on_c, 1, 75, 0
1, 118800, Note_on_c, 1, 76, 83
1, 118815, Note_on_c, 1, 74, 0
1, 118902, Note_on_c, 1, 74, 73
1, 118925, Note_on_c, 1, 76, 0
1, 119027, Note_on_c, 1, 77, 90
1, 119052, Note_on_c, 1, 74, 0
1, 119057, Note_on_c, 2, 46, 0
1, 119130, Note_on_c, 2, 58, 0
1, 119145, Note_on_c, 1, 74, 64
1, 119175, Note_on_c, 1, 77, 0
1, 119275, Note_on_c, 1, 78, 72
1, 119297, Note_on_c, 1, 74, 0
1, 119380, Note_on_c, 1, 74, 72
1, 119402, Note_on_c, 1, 78, 0
1, 119515, Note_on_c, 1, 79, 99
1, 119535, Note_on_c, 1, 74, 0
1, 119607, Note_on_c, 1, 74, 67
1, 119640, Note_on_c, 1, 79, 0
1, 119735, Note_on_c, 1, 81, 102
1, 119757, Note_on_c, 1, 74, 0
1, 119845, Note_on_c, 1, 74, 73
1, 119865, Note_on_c, 1, 81, 0
1, 119985, Note_on_c, 1, 82, 108
1, 119985, Note_on_c, 2, 67, 108
1, 120005, Note_on_c, 1, 74, 0
1, 120100, Note_on_c, 2, 69, 77
1, 120125, Note_on_c, 2, 67, 0
1, 120220, Note_on_c, 2, 70, 86
1, 120242, Note_on_c, 2, 69, 0
1, 120335, Note_on_c, 2, 69, 81
1, 120397, Note_on_c, 2, 70, 0
1, 120455, Note_on_c, 2, 67, 105
1, 120487, Note_on_c, 2, 69, 0
1, 120570, Note_on_c, 2, 69, 74
1, 120590, Note_on_c, 2, 67, 0
1, 120682, Note_on_c, 2, 65, 68
1, 120705, Note_on_c, 2, 69, 0
1, 120790, Note_on_c, 2, 67, 70
1, 120810, Note_on_c, 2, 65, 0
1, 120922, Note_on_c, 2, 64, 86
1, 120930, Note_on_c, 2, 67, 0
1, 120945, Note_on_c, 1, 82, 0
1, 121042, Note_on_c, 2, 65, 60
1, 121060, Note_on_c, 2, 64, 0
1, 121165, Note_on_c, 2, 62, 73
1, 121187, Note_on_c, 2, 65, 0
1, 121292, Note_on_c, 2, 64, 51
1, 121300, Note_on_c, 1, 82, 90
1, 121302, Note_on_c, 2, 62, 0
1, 121350, Note_on_c, 1, 82, 0
1, 121425, Note_on_c, 2, 60, 78
1, 121427, Note_on_c, 2, 64, 0
1, 121430, Note_on_c, 1, 82, 108
1, 121480, Note_on_c, 1, 82, 0
1, 121480, Note_on_c, 1, 84, 99
1, 121515, Note_on_c, 1, 84, 0
1, 121515, Note_on_c, 1, 82, 75
1, 121530, Note_on_c, 2, 62, 57
1, 121540, Note_on_c, 2, 60, 0
1, 121562, Note_on_c, 1, 84, 102
1, 121565, Note_on_c, 1, 82, 0
1, 121602, Note_on_c, 1, 82, 86
1, 121612, Note_on_c, 1, 84, 0
1, 121650, Note_on_c, 1, 81, 86
1, 121657, Note_on_c, 1, 82, 0
1, 121662, Note_on_c, 2, 58, 75
1, 121675, Note_on_c, 2, 62, 0
1, 121727, Note_on_c, 1, 81, 0
1, 121775, Note_on_c, 1, 82, 102
1, 121775, Note_on_c, 2, 60, 56
1, 121792, Note_on_c, 2, 58, 0
1, 121817, Note_on_c, 1, 82, 0
1, 121890, Note_on_c, 2, 60, 0
1, 121910, Note_on_c, 2, 57, 97
1, 121917, Note_on_c, 2, 45, 108
1, 121920, Note_on_c, 1, 84, 108
1, 122025, Note_on_c, 1, 72, 83
1, 122145, Note_on_c, 1, 71, 83
1, 122152, Note_on_c, 1, 84, 0
1, 122167, Note_on_c, 1, 72, 0
1, 122260, Note_on_c, 1, 72, 92
1, 122277, Note_on_c, 1, 71, 0
1, 122385, Note_on_c, 1, 72, 0
1, 122385, Note_on_c, 1, 73, 75
1, 122490, Note_on_c, 1, 72, 73
1, 122505, Note_on_c, 1, 73, 0
1, 122640, Note_on_c, 1, 74, 97
1, 122665, Note_on_c, 1, 72, 0
1, 122755, Note_on_c, 1, 72, 66
1, 122775, Note_on_c, 1, 74, 0
1, 122890, Note_on_c, 1, 75, 102
1, 122910, Note_on_c, 1, 72, 0
1, 122997, Note_on_c, 1, 72, 62
1, 123022, Note_on_c, 1, 75, 0
1, 123027, Note_on_c, 2, 45, 0
1, 123032, Note_on_c, 2, 57, 0
1, 123125, Note_on_c, 1, 76, 78
1, 123150, Note_on_c, 1, 72, 0
1, 123232, Note_on_c, 1, 72, 61
1, 123265, Note_on_c, 1, 76, 0
1, 123370, Note_on_c, 1, 77, 97
1, 123387, Note_on_c, 1, 72, 0
1, 123480, Note_on_c, 1, 72, 67
1, 123510, Note_on_c, 1, 77, 0
1, 123607, Note_on_c, 1, 79, 74
1, 123615, Note_on_c, 1, 72, 0
1, 123720, Note_on_c, 1, 72, 68
1, 123740, Note_on_c, 1, 79, 0
1, 123847, Note_on_c, 2, 65, 94
1, 123850, Note_on_c, 1, 81, 105
1, 123860, Note_on_c, 1, 72, 0
1, 123967, Note_on_c, 2, 67, 74
1, 124007, Note_on_c, 2, 65, 0
1, 124092, Note_on_c, 2, 69, 94
1, 124117, Note_on_c, 2, 67, 0
1, 124197, Note_on_c, 2, 67, 56
1, 124247, Note_on_c, 2, 69, 0
1, 124330, Note_on_c, 2, 65, 90
1, 124365, Note_on_c, 2, 67, 0
1, 124440, Note_on_c, 2, 67, 83
1, 124480, Note_on_c, 2, 65, 0
1, 124557, Note_on_c, 2, 64, 83
1, 124660, Note_on_c, 2, 65, 88
1, 124672, Note_on_c, 2, 67, 0
1, 124682, Note_on_c, 2, 64, 0
1, 124787, Note_on_c, 2, 62, 83
1, 124795, Note_on_c, 1, 81, 0
1, 124810, Note_on_c, 2, 65, 0
1, 124915, Note_on_c, 2, 64, 64
1, 124932, Note_on_c, 2, 62, 0
1, 125040, Note_on_c, 2, 60, 69
1, 125050, Note_on_c, 2, 64, 0
1, 125145, Note_on_c, 2, 60, 0
1, 125147, Note_on_c, 2, 62, 59
1, 125155, Note_on_c, 1, 81, 90
1, 125197, Note_on_c, 1, 81, 0
1, 125237, Note_on_c, 2, 62, 0
1, 125277, Note_on_c, 1, 81, 97
1, 125277, Note_on_c, 2, 58, 92
1, 125317, Note_on_c, 1, 81, 0
1, 125322, Note_on_c, 1, 82, 83
1, 125365, Note_on_c, 1, 82, 0
1, 125365, Note_on_c, 1, 81, 74
1, 125375, Note_on_c, 2, 60, 54
1, 125405, Note_on_c, 1, 81, 0
1, 125405, Note_on_c, 1, 82, 99
1, 125425, Note_on_c, 2, 58, 0
1, 125445, Note_on_c, 1, 81, 88
1, 125457, Note_on_c, 1, 82, 0
1, 125495, Note_on_c, 1, 79, 90
1, 125495, Note_on_c, 2, 57, 64
1, 125507, Note_on_c, 1, 81, 0
1, 125572, Note_on_c, 1, 79, 0
1, 125610, Note_on_c, 2, 60, 0
1, 125610, Note_on_c, 2, 58, 45
1, 125620, Note_on_c, 2, 57, 0
1, 125630, Note_on_c, 1, 81, 97
1, 125677, Note_on_c, 1, 81, 0
1, 125745, Note_on_c, 2, 58, 0
1, 125757, Note_on_c, 2, 55, 97
1, 125757, Note_on_c, 2, 43, 102
1, 125760, Note_on_c, 1, 82, 108
1, 125885, Note_on_c, 1, 70, 88
1, 125952, Note_on_c, 1, 82, 0
1, 125995, Note_on_c, 1, 69, 72
1, 126015, Note_on_c, 1, 70, 0
1, 126132, Note_on_c, 1, 70, 94
1, 126152, Note_on_c, 1, 69, 0
1, 126245, Note_on_c, 1, 72, 90
1, 126267, Note_on_c, 1, 70, 0
1, 126360, Note_on_c, 1, 70, 57
1, 126372, Note_on_c, 1, 72, 0
1, 126485, Note_on_c, 1, 73, 99
1, 126505, Note_on_c, 1, 70, 0
1, 126590, Note_on_c, 1, 70, 83
1, 126627, Note_on_c, 1, 73, 0
1, 126725, Note_on_c, 1, 74, 83
1, 126760, Note_on_c, 1, 70, 0
1, 126832, Note_on_c, 1, 70, 83
1, 126832, Note_on_c, 2, 43, 0
1, 126832, Note_on_c, 2, 55, 0
1, 126857, Note_on_c, 1, 74, 0
1, 126950, Note_on_c, 1, 76, 79
1, 126992, Note_on_c, 1, 70, 0
1, 127062, Note_on_c, 1, 70, 74
1, 127105, Note_on_c, 1, 76, 0
1, 127185, Note_on_c, 1, 77, 83
1, 127212, Note_on_c, 1, 70, 0
1, 127300, Note_on_c, 1, 70, 65
1, 127320, Note_on_c, 1, 77, 0
1, 127440, Note_on_c, 1, 78, 86
1, 127472, Note_on_c, 1, 70, 0
1, 127552, Note_on_c, 1, 70, 86
1, 127562, Note_on_c, 1, 78, 0
1, 127635, Note_on_c, 1, 70, 0
1, 127687, Note_on_c, 2, 60, 36
1, 127692, Note_on_c, 1, 79, 90
1, 127795, Note_on_c, 2, 64, 54
1, 127900, Note_on_c, 2, 64, 0
1, 127917, Note_on_c, 2, 60, 0
1, 127922, Note_on_c, 2, 67, 41
1, 127995, Note_on_c, 2, 67, 0
1, 128025, Note_on_c, 2, 64, 47
1, 128100, Note_on_c, 2, 64, 0
1, 128145, Note_on_c, 2, 60, 45
1, 128212, Note_on_c, 1, 79, 0
1, 128245, Note_on_c, 2, 64, 52
1, 128385, Note_on_c, 2, 64, 0
1, 128392, Note_on_c, 2, 67, 34
1, 128400, Note_on_c, 1, 82, 86
1, 128422, Note_on_c, 2, 60, 0
1, 128500, Note_on_c, 2, 64, 59
1, 128505, Note_on_c, 2, 67, 0
1, 128557, Note_on_c, 2, 64, 0
1, 128562, Note_on_c, 1, 82, 0
1, 128635, Note_on_c, 1, 81, 77
1, 128635, Note_on_c, 2, 60, 45
1, 128740, Note_on_c, 2, 67, 46
1, 128855, Note_on_c, 2, 67, 0
1, 128870, Note_on_c, 2, 70, 42
1, 128877, Note_on_c, 1, 79, 54
1, 128902, Note_on_c, 1, 81, 0
1, 128917, Note_on_c, 2, 60, 0
1, 128967, Note_on_c, 1, 79, 0
1, 128987, Note_on_c, 2, 70, 0
1, 128987, Note_on_c, 2, 67, 43
1, 129050, Note_on_c, 2, 67, 0
1, 129107, Note_on_c, 2, 60, 41
1, 129127, Note_on_c, 1, 77, 75
1, 129225, Note_on_c, 2, 67, 45
1, 129345, Note_on_c, 2, 67, 0
1, 129345, Note_on_c, 2, 70, 44
1, 129362, Note_on_c, 1, 76, 53
1, 129392, Note_on_c, 1, 77, 0
1, 129397, Note_on_c, 2, 60, 0
1, 129445, Note_on_c, 1, 76, 0
1, 129475, Note_on_c, 2, 67, 44
1, 129485, Note_on_c, 2, 70, 0
1, 129517, Note_on_c, 2, 67, 0
1, 129602, Note_on_c, 2, 60, 38
1, 129605, Note_on_c, 1, 79, 83
1, 129722, Note_on_c, 2, 65, 42
1, 129822, Note_on_c, 2, 65, 0
1, 129850, Note_on_c, 1, 77, 55
1, 129850, Note_on_c, 2, 69, 39
1, 129867, Note_on_c, 1, 79, 0
1, 129910, Note_on_c, 2, 60, 0
1, 129957, Note_on_c, 2, 69, 0
1, 129957, Note_on_c, 2, 65, 57
1, 129980, Note_on_c, 1, 77, 0
1, 130032, Note_on_c, 2, 65, 0
1, 130090, Note_on_c, 2, 60, 43
1, 130197, Note_on_c, 2, 65, 44
1, 130320, Note_on_c, 2, 65, 0
1, 130330, Note_on_c, 1, 84, 66
1, 130332, Note_on_c, 2, 69, 49
1, 130385, Note_on_c, 2, 60, 0
1, 130400, Note_on_c, 1, 84, 0
1, 130437, Note_on_c, 2, 69, 0
1, 130457, Note_on_c, 2, 65, 43
1, 130497, Note_on_c, 2, 65, 0
1, 130565, Note_on_c, 1, 82, 77
1, 130572, Note_on_c, 2, 60, 45
1, 130690, Note_on_c, 2, 63, 34
1, 130802, Note_on_c, 1, 81, 55
1, 130805, Note_on_c, 2, 66, 43
1, 130827, Note_on_c, 1, 82, 0
1, 130827, Note_on_c, 2, 63, 0
1, 130870, Note_on_c, 2, 60, 0
1, 130872, Note_on_c, 1, 81, 0
1, 130915, Note_on_c, 2, 66, 0
1, 130925, Note_on_c, 2, 63, 47
1, 131017, Note_on_c, 2, 63, 0
1, 131040, Note_on_c, 1, 79, 73
1, 131067, Note_on_c, 2, 60, 34
1, 131152, Note_on_c, 2, 63, 34
1, 131275, Note_on_c, 1, 78, 51
1, 131282, Note_on_c, 2, 69, 39
1, 131290, Note_on_c, 2, 63, 0
1, 131305, Note_on_c, 1, 79, 0
1, 131347, Note_on_c, 2, 60, 0
1, 131377, Note_on_c, 1, 78, 0
1, 131385, Note_on_c, 2, 69, 0
1, 131390, Note_on_c, 2, 63, 52
1, 131460, Note_on_c, 2, 63, 0
1, 131520, Note_on_c, 1, 79, 79
1, 131525, Note_on_c, 2, 58, 41
1, 131637, Note_on_c, 2, 62, 42
1, 131762, Note_on_c, 2, 62, 0
1, 131770, Note_on_c, 2, 67, 32
1, 131805, Note_on_c, 2, 58, 0
1, 131875, Note_on_c, 1, 81, 77
1, 131875, Note_on_c, 2, 67, 0
1, 131885, Note_on_c, 2, 62, 37
1, 131895, Note_on_c, 1, 79, 0
1, 131962, Note_on_c, 2, 62, 0
1, 132002, Note_on_c, 2, 58, 37
1, 132005, Note_on_c, 1, 84, 83
1, 132017, Note_on_c, 1, 81, 0
1, 132110, Note_on_c, 2, 62, 53
1, 132115, Note_on_c, 1, 82, 83
1, 132175, Note_on_c, 1, 84, 0
1, 132235, Note_on_c, 1, 81, 81
1, 132235, Note_on_c, 2, 67, 53
1, 132245, Note_on_c, 2, 62, 0
1, 132277, Note_on_c, 1, 82, 0
1, 132287, Note_on_c, 2, 58, 0
1, 132340, Note_on_c, 1, 79, 73
1, 132340, Note_on_c, 2, 67, 0
1, 132340, Note_on_c, 2, 62, 53
1, 132360, Note_on_c, 1, 81, 0
1, 132442, Note_on_c, 2, 62, 0
1, 132475, Note_on_c, 1, 77, 94
1, 132475, Note_on_c, 2, 60, 42
1, 132495, Note_on_c, 1, 79, 0
1, 132585, Note_on_c, 2, 65, 46
1, 132700, Note_on_c, 2, 69, 55
1, 132707, Note_on_c, 2, 65, 0
1, 132792, Note_on_c, 2, 60, 0
1, 132815, Note_on_c, 2, 65, 66
1, 132825, Note_on_c, 2, 69, 0
1, 132867, Note_on_c, 2, 65, 0
1, 132940, Note_on_c, 2, 60, 43
1, 132955, Note_on_c, 1, 76, 66
1, 132995, Note_on_c, 1, 77, 0
1, 133055, Note_on_c, 2, 67, 47
1, 133137, Note_on_c, 2, 60, 0
1, 133170, Note_on_c, 2, 70, 51
1, 133180, Note_on_c, 2, 67, 0
1, 133252, Note_on_c, 1, 76, 0
1, 133272, Note_on_c, 2, 67, 65
1, 133277, Note_on_c, 2, 70, 0
1, 133315, Note_on_c, 2, 67, 0
1, 133425, Note_on_c, 2, 53, 86
1, 133427, Note_on_c, 2, 65, 99
1, 133510, Note_on_c, 2, 65, 0
1, 133552, Note_on_c, 2, 53, 0
1, 133572, Note_on_c, 1, 77, 90
1, 133690, Note_on_c, 1, 76, 86
1, 133715, Note_on_c, 1, 77, 0
1, 133800, Note_on_c, 1, 77, 75
1, 133832, Note_on_c, 1, 76, 0
1, 133862, Note_on_c, 1, 77, 0
1, 133932, Note_on_c, 2, 60, 97
1, 133932, Note_on_c, 2, 48, 119
1, 134040, Note_on_c, 1, 72, 90
1, 134057, Note_on_c, 2, 60, 0
1, 134062, Note_on_c, 2, 48, 0
1, 134165, Note_on_c, 1, 71, 73
1, 134170, Note_on_c, 1, 72, 0
1, 134270, Note_on_c, 1, 72, 88
1, 134292, Note_on_c, 1, 71, 0
1, 134347, Note_on_c, 1, 72, 0
1, 134400, Note_on_c, 2, 57, 90
1, 134402, Note_on_c, 2, 45, 97
1, 134495, Note_on_c, 2, 45, 0
1, 134497, Note_on_c, 2, 57, 0
1, 134525, Note_on_c, 1, 69, 86
1, 134637, Note_on_c, 1, 68, 59
1, 134662, Note_on_c, 1, 69, 0
1, 134755, Note_on_c, 1, 69, 74
1, 134767, Note_on_c, 1, 68, 0
1, 134822, Note_on_c, 1, 69, 0
1, 134887, Note_on_c, 2, 53, 92
1, 134892, Note_on_c, 2, 41, 90
1, 134970, Note_on_c, 2, 41, 0
1, 134970, Note_on_c, 2, 53, 0
1, 134995, Note_on_c, 1, 65, 74
1, 135115, Note_on_c, 1, 64, 78
1, 135137, Note_on_c, 1, 65, 0
1, 135237, Note_on_c, 1, 65, 94
1, 135260, Note_on_c, 1, 64, 0
1, 135282, Note_on_c, 1, 65, 0
1, 135345, Note_on_c, 1, 70, 62
1, 135375, Note_on_c, 2, 60, 46
1, 135402, Note_on_c, 1, 72, 68
1, 135427, Note_on_c, 1, 70, 0
1, 135470, Note_on_c, 1, 76, 81
1, 135480, Note_on_c, 1, 72, 0
1, 135495, Note_on_c, 2, 67, 37
1, 135610, Note_on_c, 2, 67, 0
1, 135612, Note_on_c, 2, 70, 39
1, 135627, Note_on_c, 2, 60, 0
1, 135715, Note_on_c, 2, 70, 0
1, 135715, Note_on_c, 2, 67, 47
1, 135797, Note_on_c, 2, 67, 0
1, 135840, Note_on_c, 2, 60, 40
1, 135965, Note_on_c, 2, 67, 30
1, 136057, Note_on_c, 1, 82, 57
1, 136070, Note_on_c, 2, 67, 0
1, 136080, Note_on_c, 1, 76, 0
1, 136087, Note_on_c, 2, 70, 31
1, 136137, Note_on_c, 2, 60, 0
1, 136165, Note_on_c, 1, 82, 0
1, 136187, Note_on_c, 2, 70, 0
1, 136187, Note_on_c, 2, 67, 44
1, 136290, Note_on_c, 2, 67, 0
1, 136302, Note_on_c, 2, 60, 44
1, 136305, Note_on_c, 1, 81, 68
1, 136420, Note_on_c, 2, 67, 47
1, 136545, Note_on_c, 2, 67, 0
1, 136555, Note_on_c, 1, 79, 55
1, 136555, Note_on_c, 2, 70, 37
1, 136575, Note_on_c, 1, 81, 0
1, 136590, Note_on_c, 2, 60, 0
1, 136637, Note_on_c, 1, 79, 0
1, 136655, Note_on_c, 2, 67, 49
1, 136680, Note_on_c, 2, 70, 0
1, 136727, Note_on_c, 2, 67, 0
1, 136785, Note_on_c, 1, 77, 74
1, 136785, Note_on_c, 2, 60, 37
1, 136895, Note_on_c, 2, 67, 33
1, 137022, Note_on_c, 2, 67, 0
1, 137022, Note_on_c, 2, 70, 43
1, 137027, Note_on_c, 1, 76, 43
1, 137045, Note_on_c, 1, 77, 0
1, 137090, Note_on_c, 1, 76, 0
1, 137145, Note_on_c, 2, 67, 53
1, 137160, Note_on_c, 2, 60, 0
1, 137160, Note_on_c, 2, 70, 0
1, 137192, Note_on_c, 2, 67, 0
1, 137272, Note_on_c, 2, 60, 43
1, 137275, Note_on_c, 1, 79, 74
1, 137387, Note_on_c, 2, 65, 49
1, 137515, Note_on_c, 2, 69, 48
1, 137517, Note_on_c, 2, 65, 0
1, 137520, Note_on_c, 1, 77, 41
1, 137525, Note_on_c, 1, 79, 0
1, 137632, Note_on_c, 2, 65, 42
1, 137637, Note_on_c, 2, 69, 0
1, 137667, Note_on_c, 1, 77, 0
1, 137670, Note_on_c, 2, 60, 0
1, 137710, Note_on_c, 2, 65, 0
1, 137757, Note_on_c, 2, 60, 50
1, 137897, Note_on_c, 2, 65, 46
1, 137995, Note_on_c, 1, 84, 78
1, 138010, Note_on_c, 2, 65, 0
1, 138010, Note_on_c, 2, 69, 52
1, 138060, Note_on_c, 1, 84, 0
1, 138072, Note_on_c, 2, 60, 0
1, 138102, Note_on_c, 2, 69, 0
1, 138107, Note_on_c, 2, 65, 55
1, 138155, Note_on_c, 2, 65, 0
1, 138225, Note_on_c, 2, 60, 46
1, 138235, Note_on_c, 1, 82, 67
1, 138337, Note_on_c, 2, 63, 46
1, 138462, Note_on_c, 2, 66, 59
1, 138470, Note_on_c, 1, 81, 53
1, 138485, Note_on_c, 2, 63, 0
1, 138512, Note_on_c, 1, 82, 0
1, 138545, Note_on_c, 1, 81, 0
1, 138580, Note_on_c, 2, 63, 53
1, 138617, Note_on_c, 2, 60, 0
1, 138627, Note_on_c, 2, 66, 0
1, 138665, Note_on_c, 2, 63, 0
1, 138720, Note_on_c, 2, 60, 39
1, 138722, Note_on_c, 1, 79, 70
1, 138840, Note_on_c, 2, 63, 43
1, 138955, Note_on_c, 1, 78, 50
1, 138965, Note_on_c, 2, 69, 53
1, 138970, Note_on_c, 1, 79, 0
1, 138997, Note_on_c, 2, 63, 0
1, 139040, Note_on_c, 2, 60, 0
1, 139077, Note_on_c, 2, 63, 42
1, 139087, Note_on_c, 2, 69, 0
1, 139127, Note_on_c, 1, 78, 0
1, 139145, Note_on_c, 2, 63, 0
1, 139197, Note_on_c, 1, 79, 68
1, 139237, Note_on_c, 2, 58, 25
1, 139335, Note_on_c, 2, 62, 37
1, 139457, Note_on_c, 2, 62, 0
1, 139457, Note_on_c, 2, 67, 45
1, 139522, Note_on_c, 2, 58, 0
1, 139545, Note_on_c, 2, 67, 0
1, 139555, Note_on_c, 1, 81, 67
1, 139565, Note_on_c, 1, 79, 0
1, 139565, Note_on_c, 2, 62, 50
1, 139602, Note_on_c, 1, 81, 0
1, 139680, Note_on_c, 2, 62, 0
1, 139682, Note_on_c, 2, 58, 39
1, 139692, Note_on_c, 1, 81, 97
1, 139785, Note_on_c, 2, 62, 55
1, 139795, Note_on_c, 1, 82, 66
1, 139810, Note_on_c, 1, 81, 0
1, 139915, Note_on_c, 1, 84, 62
1, 139915, Note_on_c, 2, 67, 56
1, 139925, Note_on_c, 2, 62, 0
1, 139950, Note_on_c, 1, 82, 0
1, 139995, Note_on_c, 2, 58, 0
1, 140007, Note_on_c, 2, 67, 0
1, 140020, Note_on_c, 2, 62, 48
1, 140025, Note_on_c, 1, 86, 77
1, 140060, Note_on_c, 1, 84, 0
1, 140082, Note_on_c, 1, 86, 0
1, 140092, Note_on_c, 2, 62, 0
1, 140132, Note_on_c, 1, 86, 88
1, 140145, Note_on_c, 2, 60, 51
1, 140212, Note_on_c, 1, 77, 90
1, 140242, Note_on_c, 1, 86, 0
1, 140262, Note_on_c, 2, 65, 57
1, 140375, Note_on_c, 2, 69, 54
1, 140377, Note_on_c, 2, 65, 0
1, 140462, Note_on_c, 2, 60, 0
1, 140492, Note_on_c, 2, 69, 0
1, 140500, Note_on_c, 2, 65, 52
1, 140545, Note_on_c, 2, 65, 0
1, 140580, Note_on_c, 1, 81, 83
1, 140592, Note_on_c, 1, 77, 0
1, 140610, Note_on_c, 2, 60, 41
1, 140635, Note_on_c, 1, 81, 0
1, 140640, Note_on_c, 1, 79, 99
1, 140682, Note_on_c, 1, 79, 0
1, 140682, Note_on_c, 1, 81, 77
1, 140712, Note_on_c, 2, 64, 57
1, 140715, Note_on_c, 1, 81, 0
1, 140722, Note_on_c, 1, 79, 73
1, 140755, Note_on_c, 1, 79, 0
1, 140755, Note_on_c, 1, 81, 92
1, 140787, Note_on_c, 1, 81, 0
1, 140797, Note_on_c, 1, 79, 79
1, 140817, Note_on_c, 1, 81, 88
1, 140830, Note_on_c, 2, 70, 53
1, 140832, Note_on_c, 1, 79, 0
1, 140857, Note_on_c, 2, 64, 0
1, 140860, Note_on_c, 1, 81, 0
1, 140860, Note_on_c, 1, 79, 86
1, 140887, Note_on_c, 2, 60, 0
1, 140912, Note_on_c, 1, 77, 86
1, 140917, Note_on_c, 1, 79, 0
1, 140952, Note_on_c, 2, 64, 58
1, 140955, Note_on_c, 2, 70, 0
1, 140982, Note_on_c, 1, 79, 90
1, 140992, Note_on_c, 1, 77, 0
1, 141012, Note_on_c, 2, 64, 0
1, 141017, Note_on_c, 1, 79, 0
1, 141077, Note_on_c, 2, 69, 69
1, 141080, Note_on_c, 2, 65, 64
1, 141305, Note_on_c, 2, 65, 0
1, 141310, Note_on_c, 2, 69, 0
1, 141345, Note_on_c, 1, 84, 94
1, 141452, Note_on_c, 1, 81, 75
1, 141480, Note_on_c, 1, 84, 0
1, 141580, Note_on_c, 1, 77, 94
1, 141610, Note_on_c, 1, 81, 0
1, 141690, Note_on_c, 1, 72, 84
1, 141697, Note_on_c, 1, 77, 0
1, 141737, Note_on_c, 1, 72, 0
1, 141822, Note_on_c, 1, 69, 86
1, 141940, Note_on_c, 1, 69, 0
1, 141940, Note_on_c, 1, 65, 86
1, 142065, Note_on_c, 1, 63, 79
1, 142067, Note_on_c, 1, 60, 75
1, 142080, Note_on_c, 1, 65, 0
1, 142310, Note_on_c, 2, 53, 83
1, 142310, Note_on_c, 2, 41, 102
1, 142410, Note_on_c, 2, 53, 0
1, 142417, Note_on_c, 2, 41, 0
1, 142547, Note_on_c, 2, 57, 75
1, 142557, Note_on_c, 2, 45, 67
1, 142640, Note_on_c, 2, 45, 0
1, 142647, Note_on_c, 2, 57, 0
1, 142787, Note_on_c, 2, 53, 67
1, 142787, Note_on_c, 2, 41, 70
1, 142890, Note_on_c, 2, 41, 0
1, 142897, Note_on_c, 2, 53, 0
1, 143030, Note_on_c, 2, 58, 86
1, 143030, Note_on_c, 2, 46, 64
1, 143197, Note_on_c, 2, 46, 0
1, 143210, Note_on_c, 2, 58, 0
1, 143280, Note_on_c, 1, 62, 62
1, 143342, Note_on_c, 1, 60, 0
1, 143350, Note_on_c, 1, 63, 0
1, 143440, Note_on_c, 1, 62, 0
1, 143520, Note_on_c, 2, 55, 69
1, 143660, Note_on_c, 2, 55, 0
1, 143749, Note_on_c, 1, 70, 51
1, 143749, Note_on_c, 1, 74, 57
1, 144000, Note_on_c, 2, 60, 67
1, 144006, Note_on_c, 1, 74, 0
1, 144006, Note_on_c, 1, 70, 0
1, 144145, Note_on_c, 2, 60, 0
1, 144220, Note_on_c, 1, 72, 50
1, 144220, Note_on_c, 1, 69, 44
1, 144465, Note_on_c, 2, 48, 58
1, 144475, Note_on_c, 1, 69, 0
1, 144502, Note_on_c, 1, 72, 0
1, 144685, Note_on_c, 1, 58, 51
1, 144685, Note_on_c, 1, 64, 42
1, 144690, Note_on_c, 2, 48, 0
1, 144897, Note_on_c, 1, 64, 0
1, 144897, Note_on_c, 1, 58, 0
1, 144925, Note_on_c, 2, 57, 66
1, 144925, Note_on_c, 2, 53, 68
1, 145158, Note_on_c, 2, 53, 0
1, 145180, Note_on_c, 2, 57, 0
1, 145190, Note_on_c, 1, 84, 90
1, 145305, Note_on_c, 1, 81, 79
1, 145397, Note_on_c, 1, 84, 0
1, 145425, Note_on_c, 1, 77, 86
1, 145462, Note_on_c, 1, 81, 0
1, 145540, Note_on_c, 1, 72, 77
1, 145550, Note_on_c, 1, 77, 0
1, 145600, Note_on_c, 1, 72, 0
1, 145662, Note_on_c, 1, 69, 79
1, 145777, Note_on_c, 1, 65, 83
1, 145780, Note_on_c, 1, 69, 0
1, 145920, Note_on_c, 1, 60, 77
1, 145920, Note_on_c, 1, 63, 70
1, 145927, Note_on_c, 1, 65, 0
1, 146172, Note_on_c, 2, 41, 74
1, 146172, Note_on_c, 2, 53, 61
1, 146302, Note_on_c, 2, 41, 0
1, 146312, Note_on_c, 2, 53, 0
1, 146425, Note_on_c, 2, 45, 69
1, 146425, Note_on_c, 2, 57, 64
1, 146520, Note_on_c, 2, 45, 0
1, 146550, Note_on_c, 2, 57, 0
1, 146655, Note_on_c, 2, 41, 64
1, 146655, Note_on_c, 2, 53, 67
1, 146792, Note_on_c, 2, 41, 0
1, 146845, Note_on_c, 2, 53, 0
1, 146889, Note_on_c, 2, 46, 75
1, 146889, Note_on_c, 2, 58, 77
1, 147019, Note_on_c, 2, 58, 0
1, 147029, Note_on_c, 2, 46, 0
1, 147125, Note_on_c, 1, 62, 57
1, 147205, Note_on_c, 1, 63, 0
1, 147212, Note_on_c, 1, 60, 0
1, 147262, Note_on_c, 1, 62, 0
1, 147360, Note_on_c, 2, 55, 54
1, 147493, Note_on_c, 2, 55, 0
1, 147590, Note_on_c, 1, 74, 55
1, 147590, Note_on_c, 1, 70, 52
1, 147782, Note_on_c, 1, 70, 0
1, 147787, Note_on_c, 1, 74, 0
1, 147840, Note_on_c, 2, 60, 64
1, 147990, Note_on_c, 2, 60, 0
1, 148085, Note_on_c, 1, 72, 50
1, 148085, Note_on_c, 1, 69, 36
1, 148285, Note_on_c, 1, 69, 0
1, 148302, Note_on_c, 1, 72, 0
1, 148320, Note_on_c, 2, 48, 64
1, 148510, Note_on_c, 2, 48, 0
1, 148555, Note_on_c, 1, 64, 44
1, 148555, Note_on_c, 1, 58, 41
1, 148800, Note_on_c, 1, 65, 59
1, 148800, Note_on_c, 1, 57, 37
1, 148800, Note_on_c, 2, 41, 73
1, 148817, Note_on_c, 1, 58, 0
1, 148822, Note_on_c, 1, 64, 0
1, 148898, Note_on_c, 2, 41, 0
1, 148917, Note_on_c, 2, 53, 66
1, 148982, Note_on_c, 2, 53, 0
1, 149030, Note_on_c, 2, 52, 79
1, 149085, Note_on_c, 2, 52, 0
1, 149145, Note_on_c, 2, 53, 83
1, 149202, Note_on_c, 2, 53, 0
1, 149223, Note_on_c, 1, 57, 0
1, 149250, Note_on_c, 1, 65, 0
1, 149267, Note_on_c, 2, 41, 79
1, 149350, Note_on_c, 2, 41, 0
1, 149390, Note_on_c, 2, 53, 66
1, 149440, Note_on_c, 2, 53, 0
1, 149505, Note_on_c, 1, 69, 59
1, 149505, Note_on_c, 1, 65, 55
1, 149520, Note_on_c, 2, 52, 81
1, 149572, Note_on_c, 1, 65, 0
1, 149572, Note_on_c, 1, 69, 0
1, 149572, Note_on_c, 2, 52, 0
1, 149635, Note_on_c, 2, 53, 79
1, 149682, Note_on_c, 2, 53, 0
1, 149760, Note_on_c, 1, 67, 60
1, 149760, Note_on_c, 1, 64, 64
1, 149760, Note_on_c, 2, 41, 94
1, 149815, Note_on_c, 1, 64, 0
1, 149823, Note_on_c, 1, 67, 0
1, 149830, Note_on_c, 2, 41, 0
1, 149875, Note_on_c, 2, 53, 69
1, 149927, Note_on_c, 2, 53, 0
1, 149995, Note_on_c, 2, 52, 90
1, 150000, Note_on_c, 1, 64, 66
1, 150000, Note_on_c, 1, 67, 63
1, 150042, Note_on_c, 2, 52, 0
1, 150050, Note_on_c, 1, 64, 0
1, 150055, Note_on_c, 1, 67, 0
1, 150125, Note_on_c, 2, 53, 81
1, 150172, Note_on_c, 2, 53, 0
1, 150252, Note_on_c, 2, 41, 94
1, 150325, Note_on_c, 2, 41, 0
1, 150377, Note_on_c, 2, 53, 83
1, 150425, Note_on_c, 2, 53, 0
1, 150480, Note_on_c, 1, 70, 86
1, 150480, Note_on_c, 1, 67, 86
1, 150502, Note_on_c, 2, 52, 92
1, 150555, Note_on_c, 2, 52, 0
1, 150570, Note_on_c, 1, 67, 0
1, 150570, Note_on_c, 1, 70, 0
1, 150610, Note_on_c, 2, 53, 94
1, 150662, Note_on_c, 2, 53, 0
1, 150720, Note_on_c, 1, 69, 92
1, 150720, Note_on_c, 1, 65, 92
1, 150727, Note_on_c, 2, 41, 102
1, 150810, Note_on_c, 1, 65, 0
1, 150810, Note_on_c, 1, 69, 0
1, 150820, Note_on_c, 2, 41, 0
1, 150845, Note_on_c, 2, 53, 90
1, 150897, Note_on_c, 2, 53, 0
1, 150965, Note_on_c, 2, 52, 102
1, 150970, Note_on_c, 1, 65, 86
1, 150970, Note_on_c, 1, 69, 86
1, 151030, Note_on_c, 2, 52, 0
1, 151060, Note_on_c, 1, 69, 0
1, 151060, Note_on_c, 1, 65, 0
1, 151085, Note_on_c, 2, 53, 105
1, 151137, Note_on_c, 2, 53, 0
1, 151212, Note_on_c, 2, 41, 108
1, 151325, Note_on_c, 2, 53, 88
1, 151342, Note_on_c, 2, 41, 0
1, 151382, Note_on_c, 2, 53, 0
1, 151440, Note_on_c, 1, 81, 93
1, 151440, Note_on_c, 1, 77, 91
1, 151440, Note_on_c, 2, 52, 83
1, 151510, Note_on_c, 2, 52, 0
1, 151530, Note_on_c, 1, 77, 0
1, 151530, Note_on_c, 1, 81, 0
1, 151555, Note_on_c, 2, 53, 83
1, 151612, Note_on_c, 2, 53, 0
1, 151675, Note_on_c, 2, 41, 97
1, 151692, Note_on_c, 1, 79, 90
1, 151692, Note_on_c, 1, 76, 92
1, 151765, Note_on_c, 2, 41, 0
1, 151782, Note_on_c, 1, 76, 0
1, 151782, Note_on_c, 1, 79, 0
1, 151790, Note_on_c, 2, 53, 75
1, 151855, Note_on_c, 2, 53, 0
1, 151920, Note_on_c, 2, 52, 70
1, 151937, Note_on_c, 1, 79, 94
1, 151937, Note_on_c, 1, 76, 89
1, 151980, Note_on_c, 2, 52, 0
1, 152042, Note_on_c, 2, 53, 67
1, 152052, Note_on_c, 1, 79, 0
1, 152087, Note_on_c, 1, 76, 0
1, 152112, Note_on_c, 2, 53, 0
1, 152177, Note_on_c, 2, 41, 99
1, 152282, Note_on_c, 2, 53, 94
1, 152312, Note_on_c, 2, 41, 0
1, 152347, Note_on_c, 2, 53, 0
1, 152410, Note_on_c, 1, 82, 97
1, 152410, Note_on_c, 1, 76, 77
1, 152410, Note_on_c, 1, 79, 86
1, 152417, Note_on_c, 2, 52, 99
1, 152462, Note_on_c, 1, 79, 0
1, 152477, Note_on_c, 1, 82, 0
1, 152477, Note_on_c, 2, 52, 0
1, 152487, Note_on_c, 1, 76, 0
1, 152527, Note_on_c, 2, 53, 97
1, 152580, Note_on_c, 2, 53, 0
1, 152640, Note_on_c, 1, 76, 88
1, 152640, Note_on_c, 1, 79, 94
1, 152640, Note_on_c, 1, 82, 99
1, 152640, Note_on_c, 2, 53, 108
1, 152640, Note_on_c, 2, 41, 108
1, 153342, Note_on_c, 1, 76, 0
1, 153377, Note_on_c, 1, 79, 0
1, 153397, Note_on_c, 1, 82, 0
1, 153575, Note_on_c, 1, 77, 43
1, 153580, Note_on_c, 1, 81, 49
1, 153942, Note_on_c, 1, 81, 0
1, 153950, Note_on_c, 1, 77, 0
1, 154025, Note_on_c, 2, 41, 0
1, 154025, Note_on_c, 2, 53, 0
1, 154537, Note_on_c, 4, 71, 61
1, 154565, Note_on_c, 3, 65, 45
1, 154612, Note_on_c, 4, 72, 62
1, 154645, Note_on_c, 4, 71, 0
1, 154667, Note_on_c, 3, 69, 66
1, 154682, Note_on_c, 4, 74, 64
1, 154690, Note_on_c, 3, 65, 0
1, 154705, Note_on_c, 4, 72, 0
1, 154800, Note_on_c, 4, 72, 59
1, 154802, Note_on_c, 3, 69, 0
1, 154802, Note_on_c, 3, 68, 54
1, 154822, Note_on_c, 4, 74, 0
1, 154915, Note_on_c, 3, 69, 52
1, 154940, Note_on_c, 3, 68, 0
1, 154992, Note_on_c, 3, 69, 0
1, 155055, Note_on_c, 3, 65, 43
1, 155160, Note_on_c, 3, 69, 46
1, 155185, Note_on_c, 3, 65, 0
1, 155300, Note_on_c, 3, 68, 38
1, 155312, Note_on_c, 4, 72, 0
1, 155322, Note_on_c, 3, 69, 0
1, 155410, Note_on_c, 3, 69, 55
1, 155432, Note_on_c, 3, 68, 0
1, 155535, Note_on_c, 3, 69, 0
1, 155535, Note_on_c, 3, 65, 58
1, 155660, Note_on_c, 3, 69, 47
1, 155747, Note_on_c, 4, 77, 59
1, 155752, Note_on_c, 3, 65, 0
1, 155790, Note_on_c, 3, 68, 40
1, 155792, Note_on_c, 3, 69, 0
1, 155907, Note_on_c, 3, 69, 41
1, 155920, Note_on_c, 3, 68, 0
1, 155980, Note_on_c, 4, 76, 61
1, 155997, Note_on_c, 4, 77, 0
1, 156020, Note_on_c, 3, 69, 0
1, 156020, Note_on_c, 3, 65, 64
1, 156135, Note_on_c, 3, 69, 46
1, 156162, Note_on_c, 3, 65, 0
1, 156215, Note_on_c, 4, 74, 55
1, 156240, Note_on_c, 4, 76, 0
1, 156255, Note_on_c, 3, 68, 49
1, 156275, Note_on_c, 3, 69, 0
1, 156312, Note_on_c, 4, 74, 0
1, 156372, Note_on_c, 3, 69, 52
1, 156395, Note_on_c, 3, 68, 0
1, 156455, Note_on_c, 4, 76, 59
1, 156472, Note_on_c, 3, 69, 0
1, 156490, Note_on_c, 3, 64, 57
1, 156507, Note_on_c, 4, 74, 66
1, 156525, Note_on_c, 4, 76, 0
1, 156552, Note_on_c, 4, 74, 0
1, 156557, Note_on_c, 4, 76, 65
1, 156600, Note_on_c, 3, 67, 50
1, 156620, Note_on_c, 4, 74, 70
1, 156630, Note_on_c, 4, 76, 0
1, 156682, Note_on_c, 3, 64, 0
1, 156695, Note_on_c, 4, 74, 0
1, 156725, Note_on_c, 3, 66, 33
1, 156737, Note_on_c, 3, 67, 0
1, 156747, Note_on_c, 4, 72, 67
1, 156840, Note_on_c, 3, 67, 49
1, 156862, Note_on_c, 3, 66, 0
1, 156960, Note_on_c, 3, 67, 0
1, 156975, Note_on_c, 3, 64, 53
1, 157000, Note_on_c, 4, 72, 0
1, 157087, Note_on_c, 3, 67, 50
1, 157110, Note_on_c, 3, 64, 0
1, 157215, Note_on_c, 3, 66, 36
1, 157217, Note_on_c, 4, 72, 59
1, 157225, Note_on_c, 3, 67, 0
1, 157302, Note_on_c, 4, 72, 0
1, 157330, Note_on_c, 3, 66, 0
1, 157337, Note_on_c, 3, 67, 36
1, 157445, Note_on_c, 3, 67, 0
1, 157455, Note_on_c, 3, 64, 53
1, 157455, Note_on_c, 4, 71, 62
1, 157580, Note_on_c, 3, 67, 44
1, 157607, Note_on_c, 3, 64, 0
1, 157692, Note_on_c, 4, 72, 52
1, 157702, Note_on_c, 4, 71, 0
1, 157710, Note_on_c, 3, 66, 40
1, 157722, Note_on_c, 3, 67, 0
1, 157825, Note_on_c, 3, 67, 55
1, 157850, Note_on_c, 3, 66, 0
1, 157912, Note_on_c, 4, 74, 61
1, 157932, Note_on_c, 4, 72, 0
1, 157940, Note_on_c, 3, 67, 0
1, 157950, Note_on_c, 3, 64, 55
1, 158065, Note_on_c, 3, 67, 48
1, 158152, Note_on_c, 4, 72, 58
1, 158167, Note_on_c, 3, 64, 0
1, 158177, Note_on_c, 3, 66, 40
1, 158182, Note_on_c, 4, 74, 0
1, 158195, Note_on_c, 3, 67, 0
1, 158257, Note_on_c, 4, 72, 0
1, 158295, Note_on_c, 3, 67, 51
1, 158320, Note_on_c, 3, 66, 0
1, 158382, Note_on_c, 3, 67, 0
1, 158387, Note_on_c, 4, 74, 58
1, 158415, Note_on_c, 3, 62, 52
1, 158450, Note_on_c, 4, 72, 68
1, 158470, Note_on_c, 4, 74, 0
1, 158502, Note_on_c, 4, 72, 0
1, 158510, Note_on_c, 4, 74, 66
1, 158525, Note_on_c, 3, 65, 46
1, 158557, Note_on_c, 4, 72, 83
1, 158567, Note_on_c, 4, 74, 0
1, 158620, Note_on_c, 3, 62, 0
1, 158627, Note_on_c, 4, 72, 0
1, 158640, Note_on_c, 4, 70, 48
1, 158645, Note_on_c, 3, 64, 55
1, 158655, Note_on_c, 3, 65, 0
1, 158750, Note_on_c, 3, 65, 49
1, 158767, Note_on_c, 3, 64, 0
1, 158817, Note_on_c, 4, 70, 0
1, 158872, Note_on_c, 3, 65, 0
1, 158882, Note_on_c, 3, 62, 52
1, 158990, Note_on_c, 3, 65, 46
1, 159040, Note_on_c, 3, 62, 0
1, 159097, Note_on_c, 4, 70, 57
1, 159130, Note_on_c, 3, 64, 44
1, 159140, Note_on_c, 3, 65, 0
1, 159187, Note_on_c, 4, 70, 0
1, 159232, Note_on_c, 3, 65, 55
1, 159245, Note_on_c, 3, 64, 0
1, 159322, Note_on_c, 3, 65, 0
1, 159332, Note_on_c, 4, 72, 55
1, 159357, Note_on_c, 3, 60, 51
1, 159387, Note_on_c, 4, 70, 66
1, 159407, Note_on_c, 4, 72, 0
1, 159450, Note_on_c, 4, 72, 68
1, 159457, Note_on_c, 4, 70, 0
1, 159470, Note_on_c, 3, 64, 50
1, 159507, Note_on_c, 4, 70, 57
1, 159525, Note_on_c, 4, 72, 0
1, 159587, Note_on_c, 3, 62, 40
1, 159587, Note_on_c, 4, 70, 0
1, 159587, Note_on_c, 4, 69, 63
1, 159600, Note_on_c, 3, 60, 0
1, 159610, Note_on_c, 3, 64, 0
1, 159712, Note_on_c, 3, 64, 46
1, 159725, Note_on_c, 3, 62, 0
1, 159757, Note_on_c, 4, 69, 0
1, 159845, Note_on_c, 3, 64, 0
1, 159852, Note_on_c, 3, 60, 55
1, 159970, Note_on_c, 3, 64, 44
1, 160080, Note_on_c, 4, 69, 53
1, 160085, Note_on_c, 3, 60, 0
1, 160105, Note_on_c, 3, 62, 39
1, 160132, Note_on_c, 3, 64, 0
1, 160157, Note_on_c, 4, 69, 0
1, 160215, Note_on_c, 3, 64, 59
1, 160230, Note_on_c, 3, 62, 0
1, 160252, Note_on_c, 3, 64, 0
1, 160300, Note_on_c, 4, 70, 59
1, 160340, Note_on_c, 3, 58, 60
1, 160365, Note_on_c, 4, 70, 0
1, 160365, Note_on_c, 4, 69, 63
1, 160420, Note_on_c, 4, 70, 70
1, 160427, Note_on_c, 4, 69, 0
1, 160445, Note_on_c, 3, 62, 53
1, 160482, Note_on_c, 4, 69, 78
1, 160492, Note_on_c, 4, 70, 0
1, 160570, Note_on_c, 4, 69, 0
1, 160570, Note_on_c, 4, 67, 54
1, 160580, Note_on_c, 3, 58, 0
1, 160580, Note_on_c, 3, 60, 47
1, 160585, Note_on_c, 3, 62, 0
1, 160685, Note_on_c, 4, 67, 0
1, 160695, Note_on_c, 3, 62, 66
1, 160700, Note_on_c, 3, 60, 0
1, 160807, Note_on_c, 3, 62, 0
1, 160810, Note_on_c, 4, 70, 72
1, 160825, Note_on_c, 3, 58, 57
1, 160945, Note_on_c, 3, 62, 51
1, 161040, Note_on_c, 4, 67, 57
1, 161065, Note_on_c, 3, 62, 0
1, 161065, Note_on_c, 3, 60, 59
1, 161072, Note_on_c, 4, 70, 0
1, 161122, Note_on_c, 3, 58, 0
1, 161132, Note_on_c, 4, 67, 0
1, 161177, Note_on_c, 3, 62, 63
1, 161182, Note_on_c, 3, 60, 0
1, 161227, Note_on_c, 3, 62, 0
1, 161275, Note_on_c, 4, 64, 75
1, 161315, Note_on_c, 3, 57, 56
1, 161417, Note_on_c, 3, 60, 47
1, 161520, Note_on_c, 3, 57, 0
1, 161525, Note_on_c, 4, 65, 55
1, 161540, Note_on_c, 3, 58, 37
1, 161542, Note_on_c, 4, 64, 0
1, 161567, Note_on_c, 3, 60, 0
1, 161655, Note_on_c, 3, 60, 57
1, 161675, Note_on_c, 3, 58, 0
1, 161770, Note_on_c, 3, 60, 0
1, 161787, Note_on_c, 3, 57, 52
1, 161787, Note_on_c, 4, 65, 0
1, 161885, Note_on_c, 3, 60, 55
1, 161987, Note_on_c, 3, 57, 0
1, 162017, Note_on_c, 3, 58, 55
1, 162040, Note_on_c, 3, 60, 0
1, 162125, Note_on_c, 3, 60, 57
1, 162140, Note_on_c, 3, 58, 0
1, 162162, Note_on_c, 3, 60, 0
1, 162240, Note_on_c, 4, 65, 51
1, 162285, Note_on_c, 3, 60, 83
1, 162287, Note_on_c, 3, 57, 62
1, 162345, Note_on_c, 4, 65, 0
1, 162350, Note_on_c, 4, 67, 53
1, 162417, Note_on_c, 4, 65, 53
1, 162422, Note_on_c, 4, 67, 0
1, 162485, Note_on_c, 4, 65, 0
1, 162485, Note_on_c, 4, 67, 62
1, 162542, Note_on_c, 4, 67, 0
1, 162542, Note_on_c, 4, 65, 61
1, 162620, Note_on_c, 4, 67, 57
1, 162630, Note_on_c, 4, 65, 0
1, 162710, Note_on_c, 4, 67, 0
1, 162710, Note_on_c, 4, 65, 48
1, 162865, Note_on_c, 4, 67, 57
1, 162887, Note_on_c, 4, 65, 0
1, 163020, Note_on_c, 4, 69, 49
1, 163062, Note_on_c, 4, 67, 0
1, 163172, Note_on_c, 4, 65, 63
1, 163190, Note_on_c, 3, 58, 52
1, 163195, Note_on_c, 4, 69, 0
1, 163210, Note_on_c, 3, 57, 0
1, 163330, Note_on_c, 4, 64, 53
1, 163350, Note_on_c, 4, 65, 0
1, 163477, Note_on_c, 4, 67, 57
1, 163497, Note_on_c, 4, 64, 0
1, 163655, Note_on_c, 4, 65, 73
1, 163670, Note_on_c, 4, 67, 0
1, 163805, Note_on_c, 4, 64, 57
1, 163827, Note_on_c, 4, 65, 0
1, 163972, Note_on_c, 4, 70, 57
1, 163987, Note_on_c, 4, 64, 0
1, 164150, Note_on_c, 4, 67, 64
1, 164157, Note_on_c, 3, 57, 38
1, 164190, Note_on_c, 3, 58, 0
1, 164195, Note_on_c, 4, 70, 0
1, 164302, Note_on_c, 4, 65, 50
1, 164312, Note_on_c, 4, 67, 0
1, 164465, Note_on_c, 4, 69, 55
1, 164480, Note_on_c, 4, 65, 0
1, 164640, Note_on_c, 4, 67, 68
1, 164665, Note_on_c, 4, 69, 0
1, 164797, Note_on_c, 4, 65, 60
1, 164822, Note_on_c, 4, 67, 0
1, 164955, Note_on_c, 4, 72, 68
1, 164962, Note_on_c, 4, 65, 0
1, 165137, Note_on_c, 4, 69, 67
1, 165150, Note_on_c, 4, 72, 0
1, 165372, Note_on_c, 3, 57, 0
1, 165405, Note_on_c, 3, 60, 0
1, 165487, Note_on_c, 4, 69, 0
1, 165910, Note_on_c, 3, 46, 79
1, 165992, Note_on_c, 3, 50, 61
1, 166080, Note_on_c, 3, 55, 94
1, 166080, Note_on_c, 4, 67, 79
1, 166237, Note_on_c, 4, 70, 90
1, 166245, Note_on_c, 4, 67, 0
1, 166377, Note_on_c, 4, 70, 0
1, 166377, Note_on_c, 4, 74, 83
1, 166415, Note_on_c, 4, 74, 0
1, 166560, Note_on_c, 4, 79, 79
1, 166717, Note_on_c, 4, 82, 90
1, 166750, Note_on_c, 4, 79, 0
1, 166877, Note_on_c, 4, 86, 79
1, 166915, Note_on_c, 4, 82, 0
1, 166972, Note_on_c, 4, 86, 0
1, 167040, Note_on_c, 3, 57, 97
1, 167050, Note_on_c, 3, 48, 79
1, 167055, Note_on_c, 4, 86, 79
1, 167065, Note_on_c, 3, 55, 0
1, 167065, Note_on_c, 3, 50, 0
1, 167065, Note_on_c, 3, 46, 0
1, 167165, Note_on_c, 4, 84, 73
1, 167180, Note_on_c, 4, 86, 0
1, 167285, Note_on_c, 4, 82, 94
1, 167302, Note_on_c, 4, 84, 0
1, 167400, Note_on_c, 4, 81, 90
1, 167405, Note_on_c, 4, 82, 0
1, 167457, Note_on_c, 4, 81, 0
1, 167530, Note_on_c, 4, 81, 90
1, 167545, Note_on_c, 3, 58, 102
1, 167640, Note_on_c, 4, 79, 81
1, 167652, Note_on_c, 4, 81, 0
1, 167667, Note_on_c, 3, 57, 0
1, 167760, Note_on_c, 4, 77, 83
1, 167775, Note_on_c, 4, 79, 0
1, 167872, Note_on_c, 4, 76, 88
1, 167890, Note_on_c, 4, 77, 0
1, 167915, Note_on_c, 3, 48, 0
1, 167915, Note_on_c, 3, 58, 0
1, 168020, Note_on_c, 4, 77, 94
1, 168027, Note_on_c, 3, 53, 79
1, 168027, Note_on_c, 4, 76, 0
1, 168135, Note_on_c, 3, 53, 0
1, 168187, Note_on_c, 3, 55, 77
1, 168255, Note_on_c, 3, 55, 0
1, 168340, Note_on_c, 3, 57, 70
1, 168405, Note_on_c, 3, 57, 0
1, 168510, Note_on_c, 3, 58, 105
1, 168572, Note_on_c, 3, 58, 0
1, 168667, Note_on_c, 3, 60, 70
1, 168730, Note_on_c, 3, 60, 0
1, 168807, Note_on_c, 3, 62, 68
1, 168885, Note_on_c, 3, 62, 0
1, 168970, Note_on_c, 4, 77, 0
1, 168982, Note_on_c, 3, 63, 102
1, 169057, Note_on_c, 3, 63, 0
1, 169135, Note_on_c, 3, 62, 59
1, 169192, Note_on_c, 3, 62, 0
1, 169277, Note_on_c, 3, 60, 58
1, 169335, Note_on_c, 3, 60, 0
1, 169450, Note_on_c, 3, 58, 90
1, 169500, Note_on_c, 3, 58, 0
1, 169600, Note_on_c, 3, 57, 59
1, 169652, Note_on_c, 3, 57, 0
1, 169747, Note_on_c, 3, 55, 54
1, 169802, Note_on_c, 3, 55, 0
1, 169922, Note_on_c, 3, 54, 66
1, 170077, Note_on_c, 4, 81, 69
1, 170222, Note_on_c, 4, 82, 69
1, 170245, Note_on_c, 4, 81, 0
1, 170400, Note_on_c, 4, 84, 78
1, 170425, Note_on_c, 4, 82, 0
1, 170467, Note_on_c, 4, 84, 0
1, 170567, Note_on_c, 4, 78, 86
1, 170712, Note_on_c, 4, 79, 69
1, 170730, Note_on_c, 4, 78, 0
1, 170772, Note_on_c, 3, 54, 0
1, 170875, Note_on_c, 4, 81, 72
1, 170895, Note_on_c, 4, 79, 0
1, 170932, Note_on_c, 4, 81, 0
1, 171047, Note_on_c, 4, 72, 75
1, 171190, Note_on_c, 4, 74, 83
1, 171212, Note_on_c, 4, 72, 0
1, 171360, Note_on_c, 4, 75, 70
1, 171385, Note_on_c, 4, 74, 0
1, 171455, Note_on_c, 4, 75, 0
1, 171515, Note_on_c, 4, 69, 72
1, 171672, Note_on_c, 4, 69, 0
1, 171672, Note_on_c, 4, 72, 72
1, 171837, Note_on_c, 3, 55, 83
1, 171850, Note_on_c, 4, 70, 86
1, 171880, Note_on_c, 4, 72, 0
1, 171907, Note_on_c, 3, 55, 0
1, 171990, Note_on_c, 3, 58, 56
1, 172057, Note_on_c, 3, 58, 0
1, 172137, Note_on_c, 3, 60, 66
1, 172185, Note_on_c, 3, 60, 0
1, 172300, Note_on_c, 3, 62, 88
1, 172350, Note_on_c, 3, 62, 0
1, 172465, Note_on_c, 3, 65, 65
1, 172512, Note_on_c, 3, 65, 0
1, 172610, Note_on_c, 3, 67, 68
1, 172660, Note_on_c, 3, 67, 0
1, 172770, Note_on_c, 3, 68, 97
1, 172877, Note_on_c, 3, 68, 0
1, 172915, Note_on_c, 4, 70, 0
1, 172930, Note_on_c, 3, 67, 55
1, 172990, Note_on_c, 3, 67, 0
1, 173075, Note_on_c, 3, 65, 68
1, 173127, Note_on_c, 3, 65, 0
1, 173242, Note_on_c, 3, 63, 86
1, 173302, Note_on_c, 3, 63, 0
1, 173390, Note_on_c, 3, 62, 63
1, 173445, Note_on_c, 3, 62, 0
1, 173545, Note_on_c, 3, 60, 55
1, 173592, Note_on_c, 3, 60, 0
1, 173737, Note_on_c, 3, 59, 68
1, 173900, Note_on_c, 4, 74, 66
1, 174060, Note_on_c, 4, 75, 60
1, 174075, Note_on_c, 4, 74, 0
1, 174230, Note_on_c, 4, 77, 69
1, 174250, Note_on_c, 4, 75, 0
1, 174292, Note_on_c, 4, 77, 0
1, 174395, Note_on_c, 4, 71, 55
1, 174537, Note_on_c, 4, 72, 68
1, 174557, Note_on_c, 4, 71, 0
1, 174702, Note_on_c, 4, 74, 78
1, 174715, Note_on_c, 4, 72, 0
1, 174747, Note_on_c, 4, 74, 0
1, 174872, Note_on_c, 4, 65, 68
1, 174900, Note_on_c, 3, 59, 0
1, 175017, Note_on_c, 4, 67, 69
1, 175032, Note_on_c, 4, 65, 0
1, 175175, Note_on_c, 4, 68, 62
1, 175190, Note_on_c, 4, 67, 0
1, 175232, Note_on_c, 4, 68, 0
1, 175337, Note_on_c, 4, 62, 66
1, 175492, Note_on_c, 4, 65, 70
1, 175500, Note_on_c, 4, 62, 0
1, 175660, Note_on_c, 4, 64, 79
1, 175662, Note_on_c, 3, 48, 81
1, 175672, Note_on_c, 4, 65, 0
1, 175740, Note_on_c, 3, 48, 0
1, 175825, Note_on_c, 3, 50, 63
1, 175877, Note_on_c, 3, 50, 0
1, 175967, Note_on_c, 3, 52, 63
1, 176022, Note_on_c, 3, 52, 0
1, 176135, Note_on_c, 3, 53, 65
1, 176207, Note_on_c, 3, 53, 0
1, 176285, Note_on_c, 3, 55, 64
1, 176347, Note_on_c, 3, 55, 0
1, 176457, Note_on_c, 3, 57, 67
1, 176517, Note_on_c, 3, 57, 0
1, 176640, Note_on_c, 3, 58, 90
1, 176700, Note_on_c, 4, 64, 0
1, 176735, Note_on_c, 3, 58, 0
1, 176797, Note_on_c, 3, 57, 54
1, 176855, Note_on_c, 3, 57, 0
1, 176947, Note_on_c, 3, 55, 51
1, 177005, Note_on_c, 3, 55, 0
1, 177112, Note_on_c, 3, 53, 66
1, 177175, Note_on_c, 3, 53, 0
1, 177260, Note_on_c, 3, 52, 63
1, 177322, Note_on_c, 3, 52, 0
1, 177417, Note_on_c, 3, 50, 54
1, 177465, Note_on_c, 3, 50, 0
1, 177607, Note_on_c, 3, 49, 38
1, 177765, Note_on_c, 4, 82, 54
1, 177767, Note_on_c, 4, 79, 47
1, 177912, Note_on_c, 4, 79, 0
1, 177917, Note_on_c, 4, 81, 45
1, 177922, Note_on_c, 4, 78, 47
1, 177930, Note_on_c, 4, 82, 0
1, 178057, Note_on_c, 4, 78, 0
1, 178065, Note_on_c, 4, 81, 0
1, 178075, Note_on_c, 4, 79, 66
1, 178075, Note_on_c, 4, 82, 70
1, 178177, Note_on_c, 3, 49, 0
1, 178232, Note_on_c, 4, 79, 0
1, 178237, Note_on_c, 4, 81, 35
1, 178237, Note_on_c, 4, 78, 49
1, 178242, Note_on_c, 4, 82, 0
1, 178367, Note_on_c, 4, 78, 0
1, 178372, Note_on_c, 4, 81, 0
1, 178392, Note_on_c, 4, 82, 54
1, 178392, Note_on_c, 4, 79, 47
1, 178437, Note_on_c, 4, 82, 0
1, 178442, Note_on_c, 4, 79, 0
1, 178555, Note_on_c, 3, 61, 46
1, 178700, Note_on_c, 4, 70, 47
1, 178707, Note_on_c, 4, 67, 42
1, 178847, Note_on_c, 4, 67, 0
1, 178857, Note_on_c, 4, 70, 0
1, 178857, Note_on_c, 4, 69, 52
1, 178870, Note_on_c, 4, 66, 47
1, 178997, Note_on_c, 4, 66, 0
1, 178997, Note_on_c, 4, 69, 0
1, 179020, Note_on_c, 4, 70, 66
1, 179020, Note_on_c, 4, 67, 58
1, 179055, Note_on_c, 3, 61, 0
1, 179182, Note_on_c, 4, 67, 0
1, 179182, Note_on_c, 4, 70, 0
1, 179182, Note_on_c, 4, 66, 55
1, 179187, Note_on_c, 4, 69, 60
1, 179302, Note_on_c, 4, 66, 0
1, 179312, Note_on_c, 4, 69, 0
1, 179347, Note_on_c, 4, 70, 57
1, 179347, Note_on_c, 4, 67, 58
1, 179390, Note_on_c, 4, 70, 0
1, 179395, Note_on_c, 4, 67, 0
1, 179525, Note_on_c, 3, 50, 83
1, 179525, Note_on_c, 4, 66, 102
1, 179530, Note_on_c, 3, 62, 90
1, 179530, Note_on_c, 4, 69, 92
1, 179650, Note_on_c, 4, 69, 0
1, 179657, Note_on_c, 4, 66, 0
1, 179685, Note_on_c, 3, 62, 0
1, 179695, Note_on_c, 3, 50, 0
1, 179947, Note_on_c, 4, 66, 79
1, 179990, Note_on_c, 3, 48, 86
1, 179990, Note_on_c, 3, 60, 97
1, 180017, Note_on_c, 4, 69, 83
1, 180075, Note_on_c, 4, 75, 119
1, 180575, Note_on_c, 4, 66, 0
1, 180595, Note_on_c, 4, 69, 0
1, 180600, Note_on_c, 4, 75, 0
1, 180617, Note_on_c, 3, 48, 0
1, 180627, Note_on_c, 3, 60, 0
1, 181412, Note_on_c, 4, 74, 61
1, 181430, Note_on_c, 3, 58, 119
1, 181445, Note_on_c, 3, 46, 102
1, 181522, Note_on_c, 4, 74, 0
1, 181545, Note_on_c, 4, 79, 59
1, 181607, Note_on_c, 4, 79, 0
1, 181655, Note_on_c, 4, 78, 66
1, 181732, Note_on_c, 4, 78, 0
1, 181762, Note_on_c, 4, 79, 66
1, 181822, Note_on_c, 4, 79, 0
1, 181900, Note_on_c, 4, 81, 61
1, 181982, Note_on_c, 4, 81, 0
1, 182015, Note_on_c, 4, 79, 48
1, 182075, Note_on_c, 4, 79, 0
1, 182140, Note_on_c, 4, 78, 45
1, 182207, Note_on_c, 4, 78, 0
1, 182252, Note_on_c, 4, 79, 66
1, 182305, Note_on_c, 4, 79, 0
1, 182382, Note_on_c, 4, 82, 77
1, 182460, Note_on_c, 3, 46, 0
1, 182467, Note_on_c, 4, 82, 0
1, 182480, Note_on_c, 3, 58, 0
1, 182507, Note_on_c, 4, 79, 46
1, 182600, Note_on_c, 4, 79, 0
1, 182630, Note_on_c, 4, 78, 49
1, 182722, Note_on_c, 4, 78, 0
1, 182750, Note_on_c, 4, 79, 51
1, 182822, Note_on_c, 4, 79, 0
1, 182867, Note_on_c, 3, 60, 99
1, 182875, Note_on_c, 3, 48, 77
1, 182890, Note_on_c, 4, 75, 97
1, 183000, Note_on_c, 4, 75, 0
1, 183005, Note_on_c, 4, 79, 57
1, 183067, Note_on_c, 3, 60, 0
1, 183082, Note_on_c, 3, 48, 0
1, 183120, Note_on_c, 4, 78, 38
1, 183130, Note_on_c, 4, 79, 0
1, 183225, Note_on_c, 4, 79, 50
1, 183235, Note_on_c, 4, 78, 0
1, 183292, Note_on_c, 4, 79, 0
1, 183370, Note_on_c, 4, 74, 73
1, 183375, Note_on_c, 3, 58, 108
1, 183382, Note_on_c, 3, 46, 105
1, 183490, Note_on_c, 4, 79, 52
1, 183492, Note_on_c, 4, 74, 0
1, 183610, Note_on_c, 4, 79, 0
1, 183610, Note_on_c, 4, 78, 39
1, 183720, Note_on_c, 4, 79, 50
1, 183735, Note_on_c, 4, 78, 0
1, 183815, Note_on_c, 4, 79, 0
1, 183842, Note_on_c, 4, 81, 79
1, 183962, Note_on_c, 4, 79, 47
1, 183970, Note_on_c, 4, 81, 0
1, 184085, Note_on_c, 4, 79, 0
1, 184097, Note_on_c, 4, 78, 37
1, 184195, Note_on_c, 4, 78, 0
1, 184202, Note_on_c, 4, 79, 54
1, 184272, Note_on_c, 4, 79, 0
1, 184325, Note_on_c, 4, 82, 90
1, 184412, Note_on_c, 4, 82, 0
1, 184442, Note_on_c, 4, 79, 57
1, 184460, Note_on_c, 3, 46, 0
1, 184480, Note_on_c, 3, 58, 0
1, 184565, Note_on_c, 4, 79, 0
1, 184570, Note_on_c, 4, 78, 37
1, 184665, Note_on_c, 4, 78, 0
1, 184680, Note_on_c, 4, 79, 52
1, 184752, Note_on_c, 4, 79, 0
1, 184812, Note_on_c, 4, 72, 83
1, 184815, Note_on_c, 3, 51, 69
1, 184815, Note_on_c, 3, 63, 108
1, 184877, Note_on_c, 4, 72, 0
1, 184927, Note_on_c, 4, 79, 54
1, 185010, Note_on_c, 4, 79, 0
1, 185017, Note_on_c, 3, 63, 0
1, 185035, Note_on_c, 3, 51, 0
1, 185035, Note_on_c, 4, 78, 77
1, 185120, Note_on_c, 4, 78, 0
1, 185150, Note_on_c, 4, 79, 60
1, 185202, Note_on_c, 4, 79, 0
1, 185300, Note_on_c, 4, 70, 81
1, 185315, Note_on_c, 3, 62, 51
1, 185425, Note_on_c, 3, 67, 42
1, 185462, Note_on_c, 3, 62, 0
1, 185527, Note_on_c, 3, 67, 0
1, 185530, Note_on_c, 4, 79, 79
1, 185540, Note_on_c, 3, 66, 47
1, 185540, Note_on_c, 4, 70, 0
1, 185615, Note_on_c, 3, 66, 0
1, 185650, Note_on_c, 3, 67, 53
1, 185690, Note_on_c, 3, 67, 0
1, 185765, Note_on_c, 4, 71, 60
1, 185772, Note_on_c, 4, 79, 0
1, 185835, Note_on_c, 3, 62, 16
1, 185870, Note_on_c, 3, 67, 55
1, 186000, Note_on_c, 3, 67, 0
1, 186000, Note_on_c, 3, 66, 57
1, 186000, Note_on_c, 4, 77, 69
1, 186012, Note_on_c, 4, 71, 0
1, 186110, Note_on_c, 3, 67, 54
1, 186130, Note_on_c, 3, 62, 0
1, 186130, Note_on_c, 3, 66, 0
1, 186187, Note_on_c, 3, 67, 0
1, 186235, Note_on_c, 3, 60, 54
1, 186235, Note_on_c, 4, 72, 64
1, 186250, Note_on_c, 4, 77, 0
1, 186362, Note_on_c, 3, 67, 51
1, 186480, Note_on_c, 3, 66, 46
1, 186485, Note_on_c, 3, 67, 0
1, 186485, Note_on_c, 4, 75, 81
1, 186505, Note_on_c, 4, 72, 0
1, 186602, Note_on_c, 3, 66, 0
1, 186602, Note_on_c, 3, 67, 41
1, 186610, Note_on_c, 3, 60, 0
1, 186675, Note_on_c, 3, 67, 0
1, 186715, Note_on_c, 3, 59, 58
1, 186832, Note_on_c, 3, 67, 58
1, 186850, Note_on_c, 4, 75, 0
1, 186952, Note_on_c, 3, 66, 65
1, 186957, Note_on_c, 3, 67, 0
1, 186957, Note_on_c, 4, 74, 72
1, 186997, Note_on_c, 3, 59, 0
1, 187040, Note_on_c, 4, 74, 0
1, 187055, Note_on_c, 3, 66, 0
1, 187065, Note_on_c, 3, 67, 59
1, 187130, Note_on_c, 3, 67, 0
1, 187185, Note_on_c, 3, 60, 60
1, 187185, Note_on_c, 4, 77, 73
1, 187307, Note_on_c, 3, 67, 52
1, 187330, Note_on_c, 4, 75, 57
1, 187345, Note_on_c, 4, 77, 0
1, 187392, Note_on_c, 4, 75, 0
1, 187392, Note_on_c, 4, 77, 79
1, 187422, Note_on_c, 3, 66, 61
1, 187427, Note_on_c, 3, 67, 0
1, 187445, Note_on_c, 4, 75, 90
1, 187452, Note_on_c, 4, 77, 0
1, 187480, Note_on_c, 3, 60, 0
1, 187507, Note_on_c, 4, 75, 0
1, 187507, Note_on_c, 4, 77, 86
1, 187542, Note_on_c, 3, 67, 53
1, 187550, Note_on_c, 4, 77, 0
1, 187550, Note_on_c, 4, 75, 86
1, 187555, Note_on_c, 3, 66, 0
1, 187585, Note_on_c, 3, 67, 0
1, 187602, Note_on_c, 4, 75, 0
1, 187602, Note_on_c, 4, 77, 97
1, 187645, Note_on_c, 4, 77, 0
1, 187655, Note_on_c, 4, 75, 97
1, 187675, Note_on_c, 3, 60, 48
1, 187685, Note_on_c, 4, 75, 0
1, 187685, Note_on_c, 4, 77, 97
1, 187750, Note_on_c, 4, 77, 0
1, 187760, Note_on_c, 4, 75, 90
1, 187782, Note_on_c, 3, 69, 59
1, 187805, Note_on_c, 4, 75, 0
1, 187805, Note_on_c, 4, 77, 94
1, 187850, Note_on_c, 4, 77, 0
1, 187850, Note_on_c, 4, 75, 90
1, 187900, Note_on_c, 3, 70, 73
1, 187912, Note_on_c, 4, 75, 0
1, 187912, Note_on_c, 4, 74, 83
1, 187925, Note_on_c, 3, 69, 0
1, 187977, Note_on_c, 4, 74, 0
1, 187992, Note_on_c, 3, 70, 0
1, 188012, Note_on_c, 3, 69, 79
1, 188035, Note_on_c, 4, 72, 83
1, 188040, Note_on_c, 3, 60, 0
1, 188070, Note_on_c, 3, 69, 0
1, 188082, Note_on_c, 4, 72, 0
1, 188165, Note_on_c, 3, 62, 48
1, 188175, Note_on_c, 4, 70, 79
1, 188272, Note_on_c, 3, 67, 64
1, 188405, Note_on_c, 3, 66, 50
1, 188412, Note_on_c, 3, 67, 0
1, 188452, Note_on_c, 3, 62, 0
1, 188527, Note_on_c, 3, 67, 51
1, 188540, Note_on_c, 3, 66, 0
1, 188592, Note_on_c, 3, 67, 0
1, 188597, Note_on_c, 4, 70, 0
1, 188625, Note_on_c, 4, 69, 74
1, 188665, Note_on_c, 3, 62, 31
1, 188680, Note_on_c, 4, 69, 0
1, 188682, Note_on_c, 4, 70, 79
1, 188732, Note_on_c, 4, 70, 0
1, 188735, Note_on_c, 4, 69, 65
1, 188752, Note_on_c, 3, 66, 49
1, 188770, Note_on_c, 4, 70, 84
1, 188777, Note_on_c, 4, 69, 0
1, 188822, Note_on_c, 4, 69, 66
1, 188832, Note_on_c, 4, 70, 0
1, 188870, Note_on_c, 3, 64, 60
1, 188877, Note_on_c, 3, 66, 0
1, 188880, Note_on_c, 3, 62, 0
1, 188890, Note_on_c, 4, 67, 52
1, 188902, Note_on_c, 4, 69, 0
1, 188962, Note_on_c, 3, 64, 0
1, 188980, Note_on_c, 4, 69, 77
1, 188992, Note_on_c, 3, 66, 57
1, 189000, Note_on_c, 4, 67, 0
1, 189045, Note_on_c, 3, 66, 0
1, 189060, Note_on_c, 4, 69, 0
1, 189120, Note_on_c, 3, 55, 60
1, 189125, Note_on_c, 4, 70, 66
1, 189235, Note_on_c, 3, 67, 66
1, 189300, Note_on_c, 3, 55, 0
1, 189355, Note_on_c, 3, 66, 77
1, 189360, Note_on_c, 4, 79, 75
1, 189375, Note_on_c, 3, 67, 0
1, 189385, Note_on_c, 4, 70, 0
1, 189452, Note_on_c, 3, 66, 0
1, 189470, Note_on_c, 3, 67, 72
1, 189525, Note_on_c, 3, 67, 0
1, 189582, Note_on_c, 3, 62, 55
1, 189600, Note_on_c, 4, 71, 57
1, 189610, Note_on_c, 4, 79, 0
1, 189707, Note_on_c, 3, 67, 52
1, 189825, Note_on_c, 3, 67, 0
1, 189837, Note_on_c, 4, 77, 75
1, 189842, Note_on_c, 4, 71, 0
1, 189845, Note_on_c, 3, 66, 42
1, 189937, Note_on_c, 3, 62, 0
1, 189947, Note_on_c, 3, 67, 49
1, 189955, Note_on_c, 3, 66, 0
1, 190032, Note_on_c, 3, 67, 0
1, 190065, Note_on_c, 3, 60, 60
1, 190065, Note_on_c, 4, 72, 66
1, 190075, Note_on_c, 4, 77, 0
1, 190197, Note_on_c, 3, 67, 45
1, 190315, Note_on_c, 4, 75, 68
1, 190325, Note_on_c, 4, 72, 0
1, 190330, Note_on_c, 3, 66, 46
1, 190340, Note_on_c, 3, 67, 0
1, 190430, Note_on_c, 3, 66, 0
1, 190440, Note_on_c, 3, 67, 49
1, 190445, Note_on_c, 3, 60, 0
1, 190515, Note_on_c, 3, 67, 0
1, 190560, Note_on_c, 3, 59, 48
1, 190677, Note_on_c, 3, 67, 55
1, 190797, Note_on_c, 4, 74, 69
1, 190805, Note_on_c, 3, 66, 39
1, 190815, Note_on_c, 3, 67, 0
1, 190820, Note_on_c, 4, 75, 0
1, 190887, Note_on_c, 3, 59, 0
1, 190907, Note_on_c, 3, 67, 64
1, 190920, Note_on_c, 3, 66, 0
1, 190930, Note_on_c, 4, 74, 0
1, 190987, Note_on_c, 3, 67, 0
1, 191027, Note_on_c, 3, 60, 53
1, 191030, Note_on_c, 4, 77, 68
1, 191145, Note_on_c, 4, 75, 72
1, 191152, Note_on_c, 3, 67, 47
1, 191160, Note_on_c, 4, 77, 0
1, 191207, Note_on_c, 4, 77, 65
1, 191212, Note_on_c, 4, 75, 0
1, 191257, Note_on_c, 4, 77, 0
1, 191257, Note_on_c, 4, 75, 79
1, 191270, Note_on_c, 3, 67, 0
1, 191270, Note_on_c, 3, 66, 40
1, 191320, Note_on_c, 4, 75, 0
1, 191320, Note_on_c, 4, 77, 90
1, 191362, Note_on_c, 4, 77, 0
1, 191372, Note_on_c, 4, 75, 97
1, 191382, Note_on_c, 3, 66, 0
1, 191382, Note_on_c, 3, 67, 52
1, 191392, Note_on_c, 3, 60, 0
1, 191420, Note_on_c, 3, 67, 0
1, 191425, Note_on_c, 4, 75, 0
1, 191425, Note_on_c, 4, 77, 90
1, 191462, Note_on_c, 4, 77, 0
1, 191472, Note_on_c, 4, 75, 86
1, 191505, Note_on_c, 3, 60, 51
1, 191505, Note_on_c, 4, 75, 0
1, 191507, Note_on_c, 4, 77, 90
1, 191547, Note_on_c, 4, 77, 0
1, 191557, Note_on_c, 4, 75, 97
1, 191597, Note_on_c, 4, 77, 97
1, 191600, Note_on_c, 4, 75, 0
1, 191617, Note_on_c, 3, 69, 55
1, 191637, Note_on_c, 4, 77, 0
1, 191640, Note_on_c, 4, 75, 81
1, 191712, Note_on_c, 4, 75, 0
1, 191715, Note_on_c, 4, 74, 73
1, 191740, Note_on_c, 3, 70, 83
1, 191770, Note_on_c, 3, 69, 0
1, 191770, Note_on_c, 4, 74, 0
1, 191837, Note_on_c, 4, 72, 86
1, 191855, Note_on_c, 3, 69, 74
1, 191870, Note_on_c, 3, 70, 0
1, 191882, Note_on_c, 4, 72, 0
1, 191915, Note_on_c, 3, 69, 0
1, 191927, Note_on_c, 3, 60, 0
1, 191977, Note_on_c, 3, 62, 45
1, 191980, Note_on_c, 4, 70, 102
1, 192100, Note_on_c, 3, 67, 65
1, 192225, Note_on_c, 3, 67, 0
1, 192225, Note_on_c, 3, 66, 39
1, 192305, Note_on_c, 3, 62, 0
1, 192332, Note_on_c, 3, 67, 61
1, 192340, Note_on_c, 3, 66, 0
1, 192390, Note_on_c, 3, 67, 0
1, 192450, Note_on_c, 4, 70, 0
1, 192455, Note_on_c, 4, 69, 59
1, 192470, Note_on_c, 3, 62, 44
1, 192515, Note_on_c, 4, 69, 0
1, 192522, Note_on_c, 4, 70, 74
1, 192567, Note_on_c, 4, 70, 0
1, 192572, Note_on_c, 4, 69, 63
1, 192597, Note_on_c, 3, 66, 48
1, 192615, Note_on_c, 4, 69, 0
1, 192615, Note_on_c, 4, 70, 83
1, 192662, Note_on_c, 4, 69, 59
1, 192690, Note_on_c, 4, 69, 0
1, 192702, Note_on_c, 3, 64, 59
1, 192717, Note_on_c, 3, 66, 0
1, 192720, Note_on_c, 3, 62, 0
1, 192727, Note_on_c, 4, 69, 68
1, 192732, Note_on_c, 4, 70, 0
1, 192792, Note_on_c, 4, 67, 66
1, 192795, Note_on_c, 4, 69, 0
1, 192802, Note_on_c, 3, 64, 0
1, 192815, Note_on_c, 3, 66, 65
1, 192857, Note_on_c, 4, 69, 55
1, 192860, Note_on_c, 3, 66, 0
1, 192862, Note_on_c, 4, 67, 0
1, 192952, Note_on_c, 4, 69, 0
1, 192952, Note_on_c, 4, 67, 61
1, 193200, Note_on_c, 3, 55, 54
1, 193200, Note_on_c, 3, 58, 55
1, 193325, Note_on_c, 4, 67, 0
1, 193340, Note_on_c, 3, 55, 0
1, 193360, Note_on_c, 3, 58, 0
1, 193445, Note_on_c, 3, 58, 90
1, 193455, Note_on_c, 3, 62, 66
1, 193665, Note_on_c, 3, 58, 0
1, 193675, Note_on_c, 4, 67, 62
1, 193692, Note_on_c, 3, 62, 0
1, 193852, Note_on_c, 4, 67, 0
1, 193915, Note_on_c, 4, 70, 72
1, 194160, Note_on_c, 3, 55, 68
1, 194167, Note_on_c, 3, 58, 51
1, 194267, Note_on_c, 3, 55, 0
1, 194310, Note_on_c, 3, 58, 0
1, 194317, Note_on_c, 4, 70, 0
1, 194410, Note_on_c, 3, 58, 57
1, 194415, Note_on_c, 3, 62, 64
1, 194630, Note_on_c, 4, 70, 73
1, 194685, Note_on_c, 3, 62, 0
1, 194697, Note_on_c, 3, 58, 0
1, 194892, Note_on_c, 4, 75, 64
1, 194917, Note_on_c, 4, 70, 0
1, 195125, Note_on_c, 3, 58, 78
1, 195130, Note_on_c, 3, 55, 66
1, 195212, Note_on_c, 3, 55, 0
1, 195230, Note_on_c, 4, 75, 0
1, 195247, Note_on_c, 3, 58, 0
1, 195380, Note_on_c, 3, 63, 105
1, 195385, Note_on_c, 3, 58, 66
1, 195592, Note_on_c, 4, 75, 75
1, 195647, Note_on_c, 3, 58, 0
1, 195647, Note_on_c, 3, 63, 0
1, 195835, Note_on_c, 4, 75, 0
1, 195840, Note_on_c, 4, 79, 70
1, 196080, Note_on_c, 3, 58, 81
1, 196080, Note_on_c, 3, 55, 68
1, 196155, Note_on_c, 4, 79, 0
1, 196230, Note_on_c, 3, 55, 0
1, 196250, Note_on_c, 3, 58, 0
1, 196325, Note_on_c, 3, 63, 102
1, 196325, Note_on_c, 3, 58, 84
1, 196547, Note_on_c, 3, 58, 0
1, 196550, Note_on_c, 3, 63, 0
1, 196560, Note_on_c, 4, 79, 79
1, 196732, Note_on_c, 4, 79, 0
1, 196790, Note_on_c, 3, 56, 97
1, 196795, Note_on_c, 3, 62, 92
1, 196795, Note_on_c, 3, 58, 102
1, 196800, Note_on_c, 3, 53, 83
1, 196805, Note_on_c, 4, 80, 102
1, 196930, Note_on_c, 4, 82, 74
1, 196957, Note_on_c, 4, 80, 0
1, 197050, Note_on_c, 4, 80, 102
1, 197092, Note_on_c, 4, 82, 0
1, 197165, Note_on_c, 4, 79, 75
1, 197202, Note_on_c, 4, 80, 0
1, 197295, Note_on_c, 4, 77, 94
1, 197305, Note_on_c, 4, 79, 0
1, 197410, Note_on_c, 4, 79, 86
1, 197425, Note_on_c, 4, 77, 0
1, 197530, Note_on_c, 4, 77, 73
1, 197542, Note_on_c, 4, 79, 0
1, 197645, Note_on_c, 4, 75, 92
1, 197650, Note_on_c, 4, 77, 0
1, 197762, Note_on_c, 4, 74, 94
1, 197775, Note_on_c, 4, 75, 0
1, 197880, Note_on_c, 4, 75, 92
1, 197900, Note_on_c, 4, 74, 0
1, 197995, Note_on_c, 4, 74, 70
1, 198027, Note_on_c, 4, 75, 0
1, 198105, Note_on_c, 4, 72, 53
1, 198120, Note_on_c, 4, 74, 0
1, 198232, Note_on_c, 4, 70, 79
1, 198245, Note_on_c, 4, 72, 0
1, 198352, Note_on_c, 4, 72, 57
1, 198377, Note_on_c, 4, 70, 0
1, 198390, Note_on_c, 3, 62, 0
1, 198397, Note_on_c, 3, 56, 0
1, 198397, Note_on_c, 3, 53, 0
1, 198405, Note_on_c, 3, 58, 0
1, 198485, Note_on_c, 4, 70, 44
1, 198507, Note_on_c, 4, 72, 0
1, 198595, Note_on_c, 4, 68, 52
1, 198615, Note_on_c, 4, 70, 0
1, 198680, Note_on_c, 4, 68, 0
1, 198722, Note_on_c, 3, 51, 75
1, 198812, Note_on_c, 3, 51, 0
1, 198845, Note_on_c, 4, 67, 42
1, 198960, Note_on_c, 4, 68, 42
1, 198972, Note_on_c, 4, 67, 0
1, 199080, Note_on_c, 4, 67, 50
1, 199100, Note_on_c, 4, 68, 0
1, 199160, Note_on_c, 4, 67, 0
1, 199220, Note_on_c, 3, 55, 66
1, 199310, Note_on_c, 3, 55, 0
1, 199327, Note_on_c, 4, 70, 35
1, 199435, Note_on_c, 4, 72, 55
1, 199452, Note_on_c, 4, 70, 0
1, 199555, Note_on_c, 4, 70, 57
1, 199560, Note_on_c, 4, 72, 0
1, 199592, Note_on_c, 4, 70, 0
1, 199685, Note_on_c, 3, 58, 66
1, 199785, Note_on_c, 4, 75, 49
1, 199820, Note_on_c, 3, 58, 0
1, 199917, Note_on_c, 4, 77, 59
1, 199932, Note_on_c, 4, 75, 0
1, 200035, Note_on_c, 4, 75, 50
1, 200055, Note_on_c, 4, 77, 0
1, 200095, Note_on_c, 4, 75, 0
1, 200172, Note_on_c, 3, 63, 84
1, 200280, Note_on_c, 4, 79, 66
1, 200310, Note_on_c, 3, 63, 0
1, 200407, Note_on_c, 4, 80, 56
1, 200422, Note_on_c, 4, 79, 0
1, 200525, Note_on_c, 4, 79, 44
1, 200530, Note_on_c, 4, 80, 0
1, 200625, Note_on_c, 4, 79, 0
1, 200650, Note_on_c, 4, 80, 102
1, 200665, Note_on_c, 3, 53, 77
1, 200665, Note_on_c, 3, 56, 97
1, 200665, Note_on_c, 3, 58, 99
1, 200665, Note_on_c, 3, 62, 88
1, 200760, Note_on_c, 4, 82, 78
1, 200782, Note_on_c, 4, 80, 0
1, 200880, Note_on_c, 4, 80, 63
1, 200980, Note_on_c, 4, 82, 0
1, 200987, Note_on_c, 4, 79, 75
1, 201027, Note_on_c, 4, 80, 0
1, 201115, Note_on_c, 4, 77, 83
1, 201130, Note_on_c, 4, 79, 0
1, 201225, Note_on_c, 4, 79, 63
1, 201245, Note_on_c, 4, 77, 0
1, 201345, Note_on_c, 4, 77, 70
1, 201357, Note_on_c, 4, 79, 0
1, 201465, Note_on_c, 4, 77, 0
1, 201465, Note_on_c, 4, 75, 97
1, 201590, Note_on_c, 4, 74, 88
1, 201610, Note_on_c, 4, 75, 0
1, 201700, Note_on_c, 4, 75, 60
1, 201735, Note_on_c, 4, 74, 0
1, 201845, Note_on_c, 4, 74, 60
1, 201887, Note_on_c, 4, 75, 0
1, 201947, Note_on_c, 4, 72, 54
1, 201960, Note_on_c, 4, 74, 0
1, 202070, Note_on_c, 4, 72, 0
1, 202075, Note_on_c, 4, 70, 92
1, 202080, Note_on_c, 3, 53, 0
1, 202090, Note_on_c, 3, 56, 0
1, 202090, Note_on_c, 3, 58, 0
1, 202110, Note_on_c, 3, 62, 0
1, 202190, Note_on_c, 4, 70, 0
1, 202190, Note_on_c, 4, 72, 59
1, 202305, Note_on_c, 4, 70, 54
1, 202330, Note_on_c, 4, 72, 0
1, 202415, Note_on_c, 4, 68, 50
1, 202452, Note_on_c, 4, 70, 0
1, 202542, Note_on_c, 4, 68, 0
1, 202547, Note_on_c, 4, 67, 44
1, 202550, Note_on_c, 3, 58, 57
1, 202550, Note_on_c, 3, 63, 65
1, 202550, Note_on_c, 3, 51, 65
1, 202562, Note_on_c, 3, 55, 48
1, 202665, Note_on_c, 4, 67, 0
1, 202685, Note_on_c, 4, 69, 32
1, 202780, Note_on_c, 4, 70, 51
1, 202797, Note_on_c, 4, 69, 0
1, 202907, Note_on_c, 4, 70, 0
1, 202907, Note_on_c, 4, 69, 42
1, 203030, Note_on_c, 4, 70, 49
1, 203045, Note_on_c, 4, 69, 0
1, 203150, Note_on_c, 4, 71, 44
1, 203155, Note_on_c, 4, 70, 0
1, 203195, Note_on_c, 3, 58, 0
1, 203210, Note_on_c, 3, 55, 0
1, 203217, Note_on_c, 3, 63, 0
1, 203227, Note_on_c, 3, 51, 0
1, 203272, Note_on_c, 4, 71, 0
1, 203272, Note_on_c, 4, 72, 43
1, 203385, Note_on_c, 4, 71, 63
1, 203390, Note_on_c, 4, 72, 0
1, 203515, Note_on_c, 4, 72, 51
1, 203530, Note_on_c, 4, 71, 0
1, 203635, Note_on_c, 4, 74, 59
1, 203647, Note_on_c, 4, 72, 0
1, 203747, Note_on_c, 4, 75, 52
1, 203757, Note_on_c, 4, 74, 0
1, 203852, Note_on_c, 4, 75, 0
1, 203855, Note_on_c, 4, 74, 57
1, 203990, Note_on_c, 4, 75, 50
1, 204010, Note_on_c, 4, 74, 0
1, 204105, Note_on_c, 4, 78, 50
1, 204120, Note_on_c, 4, 75, 0
1, 204220, Note_on_c, 4, 79, 64
1, 204240, Note_on_c, 4, 78, 0
1, 204332, Note_on_c, 4, 78, 86
1, 204350, Note_on_c, 4, 79, 0
1, 204472, Note_on_c, 4, 78, 0
1, 204472, Note_on_c, 4, 79, 78
1, 204585, Note_on_c, 4, 81, 81
1, 204602, Note_on_c, 4, 79, 0
1, 204712, Note_on_c, 4, 82, 97
1, 204730, Note_on_c, 4, 81, 0
1, 204815, Note_on_c, 4, 81, 90
1, 204840, Note_on_c, 4, 82, 0
1, 204945, Note_on_c, 4, 82, 108
1, 204970, Note_on_c, 4, 81, 0
1, 205060, Note_on_c, 4, 81, 97
1, 205075, Note_on_c, 4, 82, 0
1, 205180, Note_on_c, 4, 82, 108
1, 205200, Note_on_c, 4, 81, 0
1, 205295, Note_on_c, 4, 81, 92
1, 205320, Note_on_c, 4, 82, 0
1, 205450, Note_on_c, 4, 82, 112
1, 205470, Note_on_c, 4, 81, 0
1, 205577, Note_on_c, 4, 82, 0
1, 205917, Note_on_c, 3, 55, 97
1, 205920, Note_on_c, 3, 43, 90
1, 205920, Note_on_c, 4, 72, 90
1, 205920, Note_on_c, 4, 70, 83
1, 205920, Note_on_c, 4, 76, 81
1, 205920, Note_on_c, 4, 67, 79
1, 206070, Note_on_c, 4, 70, 0
1, 206075, Note_on_c, 4, 67, 0
1, 206082, Note_on_c, 4, 72, 0
1, 206082, Note_on_c, 4, 76, 0
1, 206112, Note_on_c, 3, 43, 0
1, 206112, Note_on_c, 3, 55, 0
1, 206400, Note_on_c, 3, 53, 84
1, 206400, Note_on_c, 3, 41, 90
1, 206400, Note_on_c, 4, 72, 92
1, 206400, Note_on_c, 4, 69, 89
1, 206400, Note_on_c, 4, 77, 89
1, 206600, Note_on_c, 4, 69, 0
1, 206600, Note_on_c, 4, 72, 0
1, 206610, Note_on_c, 4, 77, 0
1, 206620, Note_on_c, 3, 41, 0
1, 206632, Note_on_c, 3, 53, 0
1, 207010, Note_on_c, 4, 82, 54
1, 207140, Note_on_c, 3, 70, 60
1, 207140, Note_on_c, 3, 72, 56
1, 207147, Note_on_c, 4, 79, 53
1, 207200, Note_on_c, 4, 82, 0
1, 207240, Note_on_c, 4, 79, 0
1, 207247, Note_on_c, 4, 76, 54
1, 207297, Note_on_c, 3, 72, 0
1, 207297, Note_on_c, 3, 70, 0
1, 207375, Note_on_c, 4, 77, 47
1, 207380, Note_on_c, 4, 76, 0
1, 207390, Note_on_c, 3, 72, 55
1, 207390, Note_on_c, 3, 69, 57
1, 207532, Note_on_c, 4, 77, 0
1, 207552, Note_on_c, 3, 69, 0
1, 207552, Note_on_c, 3, 72, 0
1, 207960, Note_on_c, 4, 82, 57
1, 208075, Note_on_c, 4, 79, 66
1, 208080, Note_on_c, 3, 70, 52
1, 208085, Note_on_c, 3, 72, 55
1, 208100, Note_on_c, 4, 82, 0
1, 208195, Note_on_c, 4, 76, 62
1, 208205, Note_on_c, 3, 70, 0
1, 208210, Note_on_c, 3, 72, 0
1, 208220, Note_on_c, 4, 79, 0
1, 208325, Note_on_c, 4, 77, 60
1, 208330, Note_on_c, 3, 72, 64
1, 208330, Note_on_c, 3, 69, 61
1, 208335, Note_on_c, 4, 76, 0
1, 208462, Note_on_c, 4, 77, 0
1, 208522, Note_on_c, 3, 72, 0
1, 208532, Note_on_c, 3, 69, 0
1, 209027, Note_on_c, 4, 78, 77
1, 209152, Note_on_c, 4, 79, 43
1, 209155, Note_on_c, 4, 78, 0
1, 209277, Note_on_c, 4, 76, 73
1, 209280, Note_on_c, 4, 79, 0
1, 209385, Note_on_c, 4, 77, 46
1, 209395, Note_on_c, 4, 76, 0
1, 209510, Note_on_c, 4, 74, 62
1, 209520, Note_on_c, 4, 77, 0
1, 209620, Note_on_c, 4, 75, 86
1, 209637, Note_on_c, 4, 74, 0
1, 209745, Note_on_c, 4, 75, 0
1, 209745, Note_on_c, 4, 73, 90
1, 209860, Note_on_c, 4, 74, 62
1, 209880, Note_on_c, 4, 73, 0
1, 209995, Note_on_c, 4, 71, 54
1, 210005, Note_on_c, 4, 74, 0
1, 210115, Note_on_c, 4, 72, 43
1, 210122, Note_on_c, 4, 71, 0
1, 210200, Note_on_c, 4, 72, 0
1, 210230, Note_on_c, 4, 70, 108
1, 210242, Note_on_c, 3, 62, 83
1, 210245, Note_on_c, 3, 58, 75
1, 210302, Note_on_c, 4, 72, 83
1, 210322, Note_on_c, 4, 70, 0
1, 210362, Note_on_c, 4, 70, 77
1, 210370, Note_on_c, 4, 72, 0
1, 210412, Note_on_c, 4, 72, 81
1, 210417, Note_on_c, 4, 70, 0
1, 210470, Note_on_c, 4, 70, 90
1, 210475, Note_on_c, 4, 72, 0
1, 210522, Note_on_c, 4, 70, 0
1, 210522, Note_on_c, 4, 72, 92
1, 210575, Note_on_c, 4, 70, 97
1, 210582, Note_on_c, 4, 72, 0
1, 210635, Note_on_c, 4, 72, 79
1, 210652, Note_on_c, 4, 70, 0
1, 210720, Note_on_c, 4, 70, 108
1, 210730, Note_on_c, 4, 72, 0
1, 210892, Note_on_c, 4, 72, 102
1, 210915, Note_on_c, 4, 70, 0
1, 211060, Note_on_c, 4, 74, 83
1, 211087, Note_on_c, 4, 72, 0
1, 211215, Note_on_c, 4, 70, 102
1, 211217, Note_on_c, 3, 63, 90
1, 211230, Note_on_c, 3, 60, 64
1, 211240, Note_on_c, 3, 62, 0
1, 211245, Note_on_c, 4, 74, 0
1, 211257, Note_on_c, 3, 58, 0
1, 211375, Note_on_c, 4, 69, 66
1, 211400, Note_on_c, 4, 70, 0
1, 211530, Note_on_c, 4, 72, 83
1, 211545, Note_on_c, 4, 69, 0
1, 211700, Note_on_c, 4, 70, 102
1, 211732, Note_on_c, 4, 72, 0
1, 211857, Note_on_c, 4, 69, 75
1, 211890, Note_on_c, 4, 70, 0
1, 212020, Note_on_c, 4, 69, 0
1, 212020, Note_on_c, 4, 75, 75
1, 212177, Note_on_c, 4, 75, 0
1, 212177, Note_on_c, 4, 72, 79
1, 212182, Note_on_c, 3, 65, 77
1, 212195, Note_on_c, 3, 62, 63
1, 212220, Note_on_c, 3, 60, 0
1, 212230, Note_on_c, 3, 63, 0
1, 212332, Note_on_c, 4, 70, 54
1, 212350, Note_on_c, 4, 72, 0
1, 212485, Note_on_c, 4, 74, 68
1, 212505, Note_on_c, 4, 70, 0
1, 212645, Note_on_c, 4, 72, 99
1, 212665, Note_on_c, 4, 74, 0
1, 212807, Note_on_c, 4, 70, 75
1, 212832, Note_on_c, 4, 72, 0
1, 212970, Note_on_c, 4, 77, 83
1, 212985, Note_on_c, 4, 70, 0
1, 213147, Note_on_c, 4, 74, 79
1, 213172, Note_on_c, 4, 77, 0
1, 213222, Note_on_c, 3, 62, 0
1, 213227, Note_on_c, 3, 65, 0
1, 213495, Note_on_c, 4, 74, 0
1, 214080, Note_on_c, 4, 79, 88
1, 214080, Note_on_c, 4, 75, 94
1, 214080, Note_on_c, 4, 70, 83
1, 214092, Note_on_c, 3, 63, 108
1, 214095, Note_on_c, 3, 51, 108
1, 214237, Note_on_c, 4, 75, 0
1, 214247, Note_on_c, 4, 79, 0
1, 214265, Note_on_c, 3, 51, 0
1, 214265, Note_on_c, 4, 70, 0
1, 214270, Note_on_c, 3, 63, 0
1, 214560, Note_on_c, 4, 77, 81
1, 214565, Note_on_c, 3, 58, 108
1, 214565, Note_on_c, 4, 70, 67
1, 214565, Note_on_c, 4, 74, 79
1, 214575, Note_on_c, 3, 46, 112
1, 214750, Note_on_c, 4, 74, 0
1, 214750, Note_on_c, 4, 70, 0
1, 214762, Note_on_c, 3, 46, 0
1, 214762, Note_on_c, 4, 77, 0
1, 214805, Note_on_c, 3, 58, 0
1, 215055, Note_on_c, 4, 77, 79
1, 215165, Note_on_c, 4, 82, 86
1, 215182, Note_on_c, 4, 77, 0
1, 215285, Note_on_c, 4, 81, 88
1, 215307, Note_on_c, 4, 82, 0
1, 215400, Note_on_c, 4, 82, 77
1, 215415, Note_on_c, 4, 81, 0
1, 215510, Note_on_c, 4, 82, 0
1, 215520, Note_on_c, 4, 84, 94
1, 215635, Note_on_c, 4, 82, 77
1, 215667, Note_on_c, 4, 84, 0
1, 215760, Note_on_c, 4, 81, 69
1, 215770, Note_on_c, 4, 82, 0
1, 215865, Note_on_c, 4, 82, 79
1, 215875, Note_on_c, 4, 81, 0
1, 215900, Note_on_c, 4, 82, 0
1, 216015, Note_on_c, 3, 53, 73
1, 216015, Note_on_c, 3, 41, 79
1, 216020, Note_on_c, 4, 77, 77
1, 216022, Note_on_c, 4, 74, 94
1, 216085, Note_on_c, 3, 41, 0
1, 216097, Note_on_c, 3, 53, 0
1, 216125, Note_on_c, 4, 75, 97
1, 216130, Note_on_c, 4, 72, 64
1, 216135, Note_on_c, 4, 77, 0
1, 216172, Note_on_c, 4, 74, 0
1, 216367, Note_on_c, 4, 75, 0
1, 216367, Note_on_c, 4, 72, 0
1, 216485, Note_on_c, 4, 74, 74
1, 216485, Note_on_c, 4, 70, 81
1, 216490, Note_on_c, 3, 46, 55
1, 216490, Note_on_c, 3, 58, 61
1, 216652, Note_on_c, 3, 46, 0
1, 216665, Note_on_c, 3, 58, 0
1, 216700, Note_on_c, 4, 74, 0
1, 216710, Note_on_c, 4, 70, 0
1, 217902, Note_on_c, 4, 58, 51
1, 217917, Note_on_c, 3, 46, 77
1, 217920, Note_on_c, 3, 50, 74
1, 217997, Note_on_c, 4, 60, 53
1, 218002, Note_on_c, 4, 58, 0
1, 218085, Note_on_c, 4, 58, 40
1, 218087, Note_on_c, 4, 60, 0
1, 218147, Note_on_c, 4, 58, 0
1, 218150, Note_on_c, 4, 60, 53
1, 218210, Note_on_c, 4, 60, 0
1, 218210, Note_on_c, 4, 58, 49
1, 218272, Note_on_c, 4, 60, 63
1, 218282, Note_on_c, 4, 58, 0
1, 218357, Note_on_c, 4, 60, 0
1, 218360, Note_on_c, 4, 58, 51
1, 218540, Note_on_c, 4, 60, 49
1, 218580, Note_on_c, 4, 58, 0
1, 218707, Note_on_c, 4, 62, 55
1, 218727, Note_on_c, 4, 60, 0
1, 218870, Note_on_c, 3, 51, 58
1, 218875, Note_on_c, 3, 48, 61
1, 218880, Note_on_c, 4, 58, 49
1, 218905, Note_on_c, 4, 62, 0
1, 218910, Note_on_c, 3, 50, 0
1, 218915, Note_on_c, 3, 46, 0
1, 219042, Note_on_c, 4, 57, 53
1, 219072, Note_on_c, 4, 58, 0
1, 219197, Note_on_c, 4, 60, 61
1, 219225, Note_on_c, 4, 57, 0
1, 219370, Note_on_c, 4, 58, 53
1, 219380, Note_on_c, 4, 60, 0
1, 219522, Note_on_c, 4, 57, 40
1, 219547, Note_on_c, 4, 58, 0
1, 219690, Note_on_c, 4, 63, 54
1, 219760, Note_on_c, 4, 57, 0
1, 219860, Note_on_c, 3, 50, 70
1, 219860, Note_on_c, 3, 53, 66
1, 219867, Note_on_c, 4, 63, 0
1, 219867, Note_on_c, 4, 60, 63
1, 219890, Note_on_c, 3, 51, 0
1, 219890, Note_on_c, 3, 48, 0
1, 220017, Note_on_c, 4, 60, 0
1, 220032, Note_on_c, 4, 58, 37
1, 220187, Note_on_c, 4, 62, 49
1, 220210, Note_on_c, 4, 58, 0
1, 220365, Note_on_c, 4, 60, 59
1, 220387, Note_on_c, 4, 62, 0
1, 220502, Note_on_c, 4, 58, 45
1, 220517, Note_on_c, 4, 60, 0
1, 220675, Note_on_c, 4, 58, 0
1, 220675, Note_on_c, 4, 65, 58
1, 220852, Note_on_c, 4, 62, 53
1, 220885, Note_on_c, 4, 65, 0
1, 221082, Note_on_c, 4, 62, 0
1, 221262, Note_on_c, 3, 50, 0
1, 221277, Note_on_c, 3, 53, 0
1, 221655, Note_on_c, 3, 51, 108
1, 221722, Note_on_c, 3, 55, 86
1, 221750, Note_on_c, 4, 67, 84
1, 221815, Note_on_c, 3, 60, 99
1, 221915, Note_on_c, 4, 72, 83
1, 221957, Note_on_c, 4, 67, 0
1, 222062, Note_on_c, 4, 75, 90
1, 222085, Note_on_c, 4, 72, 0
1, 222220, Note_on_c, 4, 72, 90
1, 222250, Note_on_c, 4, 75, 0
1, 222385, Note_on_c, 4, 75, 74
1, 222395, Note_on_c, 4, 72, 0
1, 222475, Note_on_c, 3, 60, 0
1, 222475, Note_on_c, 3, 55, 0
1, 222475, Note_on_c, 3, 51, 0
1, 222547, Note_on_c, 4, 79, 78
1, 222585, Note_on_c, 4, 75, 0
1, 222642, Note_on_c, 4, 79, 0
1, 222717, Note_on_c, 3, 62, 97
1, 222730, Note_on_c, 3, 53, 83
1, 222732, Note_on_c, 4, 79, 79
1, 222835, Note_on_c, 4, 77, 77
1, 222852, Note_on_c, 4, 79, 0
1, 222960, Note_on_c, 4, 75, 97
1, 222980, Note_on_c, 4, 77, 0
1, 223065, Note_on_c, 4, 75, 0
1, 223070, Note_on_c, 4, 74, 46
1, 223127, Note_on_c, 4, 74, 0
1, 223192, Note_on_c, 3, 63, 102
1, 223197, Note_on_c, 4, 74, 94
1, 223220, Note_on_c, 3, 62, 0
1, 223315, Note_on_c, 4, 72, 72
1, 223335, Note_on_c, 4, 74, 0
1, 223430, Note_on_c, 4, 72, 0
1, 223445, Note_on_c, 4, 70, 51
1, 223485, Note_on_c, 3, 63, 0
1, 223487, Note_on_c, 3, 53, 0
1, 223545, Note_on_c, 4, 69, 72
1, 223565, Note_on_c, 4, 70, 0
1, 223682, Note_on_c, 3, 62, 68
1, 223682, Note_on_c, 3, 58, 53
1, 223685, Note_on_c, 4, 70, 97
1, 223695, Note_on_c, 4, 69, 0
1, 223747, Note_on_c, 3, 58, 0
1, 223747, Note_on_c, 3, 62, 0
1, 223937, Note_on_c, 3, 58, 55
1, 223940, Note_on_c, 3, 62, 66
1, 223982, Note_on_c, 3, 58, 0
1, 223992, Note_on_c, 3, 62, 0
1, 224150, Note_on_c, 3, 58, 52
1, 224157, Note_on_c, 3, 62, 62
1, 224205, Note_on_c, 3, 58, 0
1, 224212, Note_on_c, 3, 62, 0
1, 224372, Note_on_c, 4, 70, 0
1, 224390, Note_on_c, 3, 62, 53
1, 224390, Note_on_c, 3, 58, 40
1, 224440, Note_on_c, 3, 58, 0
1, 224445, Note_on_c, 3, 62, 0
1, 224652, Note_on_c, 3, 62, 46
1, 224655, Note_on_c, 3, 58, 37
1, 224692, Note_on_c, 3, 58, 0
1, 224695, Note_on_c, 3, 62, 0
1, 224872, Note_on_c, 3, 62, 51
1, 224875, Note_on_c, 3, 58, 36
1, 224875, Note_on_c, 4, 70, 50
1, 224925, Note_on_c, 3, 58, 0
1, 224925, Note_on_c, 3, 62, 0
1, 225105, Note_on_c, 3, 58, 47
1, 225105, Note_on_c, 3, 62, 56
1, 225105, Note_on_c, 4, 69, 70
1, 225140, Note_on_c, 4, 70, 0
1, 225160, Note_on_c, 3, 58, 0
1, 225175, Note_on_c, 3, 62, 0
1, 225345, Note_on_c, 4, 68, 64
1, 225347, Note_on_c, 3, 62, 64
1, 225347, Note_on_c, 3, 58, 53
1, 225365, Note_on_c, 4, 69, 0
1, 225447, Note_on_c, 3, 58, 0
1, 225447, Note_on_c, 3, 62, 0
1, 225587, Note_on_c, 3, 63, 90
1, 225587, Note_on_c, 4, 67, 75
1, 225590, Note_on_c, 3, 58, 83
1, 225595, Note_on_c, 4, 68, 0
1, 225640, Note_on_c, 3, 58, 0
1, 225650, Note_on_c, 3, 63, 0
1, 225830, Note_on_c, 4, 69, 65
1, 225835, Note_on_c, 3, 63, 52
1, 225845, Note_on_c, 3, 58, 43
1, 225847, Note_on_c, 4, 67, 0
1, 225887, Note_on_c, 3, 58, 0
1, 225887, Note_on_c, 3, 63, 0
1, 225945, Note_on_c, 4, 70, 90
1, 225965, Note_on_c, 4, 69, 0
1, 226060, Note_on_c, 4, 70, 0
1, 226062, Note_on_c, 3, 63, 50
1, 226062, Note_on_c, 3, 58, 41
1, 226077, Note_on_c, 4, 72, 70
1, 226122, Note_on_c, 3, 58, 0
1, 226135, Note_on_c, 3, 63, 0
1, 226185, Note_on_c, 4, 74, 75
1, 226210, Note_on_c, 4, 72, 0
1, 226305, Note_on_c, 4, 75, 79
1, 226312, Note_on_c, 3, 63, 49
1, 226322, Note_on_c, 3, 58, 40
1, 226325, Note_on_c, 4, 74, 0
1, 226367, Note_on_c, 3, 58, 0
1, 226380, Note_on_c, 3, 63, 0
1, 226410, Note_on_c, 4, 75, 0
1, 226410, Note_on_c, 4, 77, 65
1, 226535, Note_on_c, 4, 79, 86
1, 226542, Note_on_c, 4, 77, 0
1, 226545, Note_on_c, 3, 58, 48
1, 226545, Note_on_c, 3, 63, 49
1, 226590, Note_on_c, 3, 58, 0
1, 226607, Note_on_c, 3, 63, 0
1, 226657, Note_on_c, 4, 81, 81
1, 226690, Note_on_c, 4, 79, 0
1, 226777, Note_on_c, 3, 63, 49
1, 226777, Note_on_c, 3, 58, 41
1, 226785, Note_on_c, 4, 82, 94
1, 226817, Note_on_c, 4, 81, 0
1, 226835, Note_on_c, 3, 58, 0
1, 226840, Note_on_c, 3, 63, 0
1, 226910, Note_on_c, 4, 81, 83
1, 226940, Note_on_c, 4, 82, 0
1, 227020, Note_on_c, 3, 58, 40
1, 227020, Note_on_c, 3, 63, 41
1, 227040, Note_on_c, 4, 82, 94
1, 227065, Note_on_c, 4, 81, 0
1, 227070, Note_on_c, 3, 58, 0
1, 227077, Note_on_c, 3, 63, 0
1, 227165, Note_on_c, 4, 81, 86
1, 227207, Note_on_c, 4, 82, 0
1, 227280, Note_on_c, 3, 58, 45
1, 227280, Note_on_c, 3, 63, 51
1, 227280, Note_on_c, 4, 82, 79
1, 227312, Note_on_c, 4, 81, 0
1, 227337, Note_on_c, 3, 63, 0
1, 227337, Note_on_c, 3, 58, 0
1, 227390, Note_on_c, 4, 79, 72
1, 227442, Note_on_c, 4, 82, 0
1, 227535, Note_on_c, 3, 58, 38
1, 227535, Note_on_c, 3, 62, 40
1, 227542, Note_on_c, 4, 77, 68
1, 227567, Note_on_c, 4, 79, 0
1, 227592, Note_on_c, 3, 62, 0
1, 227592, Note_on_c, 3, 58, 0
1, 227785, Note_on_c, 3, 58, 33
1, 227785, Note_on_c, 3, 62, 38
1, 227842, Note_on_c, 3, 58, 0
1, 227847, Note_on_c, 3, 62, 0
1, 228017, Note_on_c, 3, 62, 38
1, 228025, Note_on_c, 3, 58, 35
1, 228077, Note_on_c, 3, 58, 0
1, 228077, Note_on_c, 3, 62, 0
1, 228197, Note_on_c, 4, 77, 0
1, 228250, Note_on_c, 3, 62, 39
1, 228255, Note_on_c, 3, 58, 34
1, 228307, Note_on_c, 3, 58, 0
1, 228307, Note_on_c, 3, 62, 0
1, 228485, Note_on_c, 3, 58, 33
1, 228485, Note_on_c, 3, 62, 45
1, 228547, Note_on_c, 3, 58, 0
1, 228552, Note_on_c, 3, 62, 0
1, 228715, Note_on_c, 3, 58, 42
1, 228720, Note_on_c, 3, 62, 57
1, 228740, Note_on_c, 4, 70, 48
1, 228775, Note_on_c, 3, 62, 0
1, 228775, Note_on_c, 3, 58, 0
1, 228950, Note_on_c, 3, 62, 46
1, 228955, Note_on_c, 3, 58, 40
1, 228985, Note_on_c, 4, 69, 63
1, 229012, Note_on_c, 4, 70, 0
1, 229015, Note_on_c, 3, 62, 0
1, 229017, Note_on_c, 3, 58, 0
1, 229200, Note_on_c, 3, 62, 70
1, 229200, Note_on_c, 3, 58, 55
1, 229225, Note_on_c, 4, 68, 66
1, 229252, Note_on_c, 4, 69, 0
1, 229292, Note_on_c, 3, 58, 0
1, 229292, Note_on_c, 3, 62, 0
1, 229450, Note_on_c, 3, 63, 97
1, 229457, Note_on_c, 3, 58, 90
1, 229467, Note_on_c, 4, 67, 70
1, 229487, Note_on_c, 4, 68, 0
1, 229507, Note_on_c, 3, 58, 0
1, 229520, Note_on_c, 3, 63, 0
1, 229710, Note_on_c, 3, 63, 45
1, 229717, Note_on_c, 3, 58, 36
1, 229717, Note_on_c, 4, 69, 70
1, 229737, Note_on_c, 4, 67, 0
1, 229767, Note_on_c, 3, 58, 0
1, 229777, Note_on_c, 3, 63, 0
1, 229825, Note_on_c, 4, 70, 73
1, 229857, Note_on_c, 4, 69, 0
1, 229950, Note_on_c, 4, 70, 0
1, 229952, Note_on_c, 4, 72, 64
1, 229955, Note_on_c, 3, 58, 40
1, 229957, Note_on_c, 3, 63, 46
1, 230020, Note_on_c, 3, 63, 0
1, 230020, Note_on_c, 3, 58, 0
1, 230065, Note_on_c, 4, 74, 52
1, 230082, Note_on_c, 4, 72, 0
1, 230185, Note_on_c, 3, 63, 48
1, 230187, Note_on_c, 4, 75, 83
1, 230207, Note_on_c, 3, 58, 33
1, 230217, Note_on_c, 4, 74, 0
1, 230262, Note_on_c, 3, 58, 0
1, 230270, Note_on_c, 3, 63, 0
1, 230300, Note_on_c, 4, 77, 65
1, 230305, Note_on_c, 4, 75, 0
1, 230425, Note_on_c, 4, 79, 74
1, 230435, Note_on_c, 3, 63, 38
1, 230435, Note_on_c, 3, 58, 33
1, 230435, Note_on_c, 4, 77, 0
1, 230500, Note_on_c, 3, 58, 0
1, 230500, Note_on_c, 3, 63, 0
1, 230532, Note_on_c, 4, 81, 79
1, 230582, Note_on_c, 4, 79, 0
1, 230650, Note_on_c, 3, 63, 48
1, 230650, Note_on_c, 4, 82, 84
1, 230662, Note_on_c, 3, 58, 42
1, 230677, Note_on_c, 4, 81, 0
1, 230722, Note_on_c, 3, 58, 0
1, 230722, Note_on_c, 3, 63, 0
1, 230760, Note_on_c, 4, 81, 77
1, 230787, Note_on_c, 4, 82, 0
1, 230887, Note_on_c, 4, 82, 90
1, 230890, Note_on_c, 3, 63, 55
1, 230900, Note_on_c, 3, 58, 40
1, 230915, Note_on_c, 4, 81, 0
1, 230940, Note_on_c, 3, 58, 0
1, 230947, Note_on_c, 3, 63, 0
1, 230995, Note_on_c, 4, 81, 83
1, 231032, Note_on_c, 4, 82, 0
1, 231107, Note_on_c, 3, 63, 66
1, 231115, Note_on_c, 3, 58, 43
1, 231120, Note_on_c, 4, 82, 79
1, 231162, Note_on_c, 4, 81, 0
1, 231192, Note_on_c, 3, 58, 0
1, 231240, Note_on_c, 3, 63, 0
1, 231242, Note_on_c, 4, 79, 68
1, 231265, Note_on_c, 4, 82, 0
1, 231360, Note_on_c, 3, 62, 78
1, 231360, Note_on_c, 3, 58, 55
1, 231375, Note_on_c, 4, 77, 57
1, 231400, Note_on_c, 4, 79, 0
1, 231442, Note_on_c, 3, 62, 0
1, 231452, Note_on_c, 3, 58, 0
1, 231597, Note_on_c, 3, 58, 64
1, 231670, Note_on_c, 3, 58, 0
1, 231700, Note_on_c, 4, 77, 0
1, 231830, Note_on_c, 3, 62, 73
1, 231897, Note_on_c, 3, 62, 0
1, 231950, Note_on_c, 4, 82, 70
1, 232075, Note_on_c, 4, 84, 64
1, 232080, Note_on_c, 3, 65, 73
1, 232122, Note_on_c, 4, 82, 0
1, 232157, Note_on_c, 3, 65, 0
1, 232182, Note_on_c, 4, 82, 63
1, 232185, Note_on_c, 4, 84, 0
1, 232245, Note_on_c, 4, 82, 0
1, 232307, Note_on_c, 3, 58, 68
1, 232310, Note_on_c, 4, 86, 90
1, 232380, Note_on_c, 4, 86, 0
1, 232425, Note_on_c, 4, 84, 86
1, 232477, Note_on_c, 4, 84, 0
1, 232550, Note_on_c, 4, 82, 90
1, 232592, Note_on_c, 4, 82, 0
1, 232605, Note_on_c, 3, 58, 0
1, 232655, Note_on_c, 4, 81, 86
1, 232707, Note_on_c, 4, 81, 0
1, 232780, Note_on_c, 4, 79, 94
1, 232827, Note_on_c, 4, 79, 0
1, 232905, Note_on_c, 4, 77, 83
1, 232947, Note_on_c, 4, 77, 0
1, 233025, Note_on_c, 4, 75, 99
1, 233067, Note_on_c, 4, 75, 0
1, 233140, Note_on_c, 4, 74, 84
1, 233192, Note_on_c, 4, 74, 0
1, 233270, Note_on_c, 4, 75, 83
1, 233497, Note_on_c, 4, 75, 0
1, 233505, Note_on_c, 3, 53, 66
1, 233592, Note_on_c, 3, 53, 0
1, 233737, Note_on_c, 3, 57, 56
1, 233815, Note_on_c, 3, 57, 0
1, 233870, Note_on_c, 4, 81, 46
1, 233975, Note_on_c, 3, 60, 55
1, 233980, Note_on_c, 4, 82, 46
1, 233985, Note_on_c, 4, 81, 0
1, 234072, Note_on_c, 3, 60, 0
1, 234085, Note_on_c, 4, 82, 0
1, 234100, Note_on_c, 4, 81, 50
1, 234155, Note_on_c, 4, 81, 0
1, 234215, Note_on_c, 4, 84, 64
1, 234222, Note_on_c, 3, 53, 69
1, 234265, Note_on_c, 4, 84, 0
1, 234330, Note_on_c, 4, 82, 70
1, 234377, Note_on_c, 4, 82, 0
1, 234405, Note_on_c, 3, 53, 0
1, 234450, Note_on_c, 4, 81, 70
1, 234485, Note_on_c, 4, 81, 0
1, 234570, Note_on_c, 4, 79, 49
1, 234615, Note_on_c, 4, 79, 0
1, 234692, Note_on_c, 4, 77, 57
1, 234720, Note_on_c, 4, 77, 0
1, 234802, Note_on_c, 4, 75, 67
1, 234842, Note_on_c, 4, 75, 0
1, 234927, Note_on_c, 4, 74, 50
1, 234960, Note_on_c, 4, 74, 0
1, 235040, Note_on_c, 4, 72, 44
1, 235075, Note_on_c, 4, 72, 0
1, 235170, Note_on_c, 4, 74, 54
1, 235402, Note_on_c, 3, 46, 94
1, 235407, Note_on_c, 3, 34, 99
1, 235435, Note_on_c, 4, 74, 0
1, 235502, Note_on_c, 3, 34, 0
1, 235512, Note_on_c, 3, 46, 0
1, 235630, Note_on_c, 3, 50, 83
1, 235635, Note_on_c, 3, 38, 77
1, 235722, Note_on_c, 3, 50, 0
1, 235732, Note_on_c, 3, 38, 0
1, 235790, Note_on_c, 4, 77, 83
1, 235872, Note_on_c, 3, 41, 83
1, 235877, Note_on_c, 3, 53, 77
1, 235905, Note_on_c, 4, 79, 83
1, 235930, Note_on_c, 4, 77, 0
1, 235970, Note_on_c, 3, 41, 0
1, 235977, Note_on_c, 3, 53, 0
1, 236015, Note_on_c, 4, 77, 84
1, 236035, Note_on_c, 4, 79, 0
1, 236085, Note_on_c, 4, 77, 0
1, 236145, Note_on_c, 3, 50, 83
1, 236145, Note_on_c, 4, 82, 102
1, 236152, Note_on_c, 3, 38, 90
1, 236210, Note_on_c, 4, 82, 0
1, 236257, Note_on_c, 4, 81, 79
1, 236305, Note_on_c, 4, 81, 0
1, 236380, Note_on_c, 4, 79, 78
1, 236442, Note_on_c, 4, 79, 0
1, 236457, Note_on_c, 3, 50, 0
1, 236472, Note_on_c, 3, 38, 0
1, 236482, Note_on_c, 4, 77, 78
1, 236530, Note_on_c, 4, 77, 0
1, 236620, Note_on_c, 4, 75, 105
1, 236662, Note_on_c, 4, 75, 0
1, 236737, Note_on_c, 4, 74, 86
1, 236792, Note_on_c, 4, 74, 0
1, 236852, Note_on_c, 4, 72, 74
1, 236867, Note_on_c, 3, 65, 59
1, 236870, Note_on_c, 3, 62, 60
1, 236902, Note_on_c, 4, 72, 0
1, 236970, Note_on_c, 4, 70, 102
1, 237007, Note_on_c, 4, 70, 0
1, 237100, Note_on_c, 4, 74, 102
1, 237110, Note_on_c, 3, 62, 0
1, 237120, Note_on_c, 3, 63, 44
1, 237120, Note_on_c, 3, 67, 59
1, 237152, Note_on_c, 3, 65, 0
1, 237210, Note_on_c, 4, 72, 66
1, 237232, Note_on_c, 4, 74, 0
1, 237335, Note_on_c, 4, 75, 75
1, 237360, Note_on_c, 4, 72, 0
1, 237437, Note_on_c, 3, 67, 0
1, 237440, Note_on_c, 3, 63, 0
1, 237460, Note_on_c, 4, 74, 83
1, 237515, Note_on_c, 4, 75, 0
1, 237587, Note_on_c, 4, 77, 83
1, 237605, Note_on_c, 4, 74, 0
1, 237692, Note_on_c, 4, 75, 83
1, 237727, Note_on_c, 4, 77, 0
1, 237825, Note_on_c, 4, 79, 84
1, 237837, Note_on_c, 4, 75, 0
1, 237940, Note_on_c, 4, 78, 77
1, 237965, Note_on_c, 4, 79, 0
1, 238070, Note_on_c, 4, 79, 90
1, 238085, Note_on_c, 4, 78, 0
1, 238132, Note_on_c, 4, 79, 0
1, 238190, Note_on_c, 4, 77, 77
1, 238240, Note_on_c, 4, 77, 0
1, 238315, Note_on_c, 4, 75, 83
1, 238355, Note_on_c, 4, 75, 0
1, 238427, Note_on_c, 4, 74, 97
1, 238472, Note_on_c, 4, 74, 0
1, 238550, Note_on_c, 4, 72, 83
1, 238595, Note_on_c, 4, 72, 0
1, 238675, Note_on_c, 4, 70, 88
1, 238710, Note_on_c, 4, 70, 0
1, 238795, Note_on_c, 4, 69, 49
1, 238820, Note_on_c, 3, 67, 65
1, 238820, Note_on_c, 3, 64, 59
1, 238825, Note_on_c, 4, 69, 0
1, 238905, Note_on_c, 4, 70, 102
1, 238947, Note_on_c, 4, 70, 0
1, 239030, Note_on_c, 4, 69, 83
1, 239040, Note_on_c, 3, 65, 59
1, 239060, Note_on_c, 3, 64, 0
1, 239072, Note_on_c, 3, 67, 0
1, 239090, Note_on_c, 4, 69, 0
1, 239142, Note_on_c, 4, 70, 70
1, 239185, Note_on_c, 4, 70, 0
1, 239280, Note_on_c, 4, 72, 64
1, 239285, Note_on_c, 3, 65, 0
1, 239327, Note_on_c, 4, 72, 0
1, 239390, Note_on_c, 4, 74, 66
1, 239442, Note_on_c, 4, 74, 0
1, 239527, Note_on_c, 4, 76, 42
1, 239630, Note_on_c, 4, 77, 57
1, 239662, Note_on_c, 4, 76, 0
1, 239777, Note_on_c, 4, 77, 0
1, 239777, Note_on_c, 4, 76, 48
1, 239895, Note_on_c, 4, 77, 52
1, 239910, Note_on_c, 4, 76, 0
1, 240030, Note_on_c, 3, 45, 79
1, 240047, Note_on_c, 4, 77, 0
1, 240047, Note_on_c, 4, 65, 39
1, 240097, Note_on_c, 3, 45, 0
1, 240137, Note_on_c, 3, 46, 72
1, 240192, Note_on_c, 3, 46, 0
1, 240272, Note_on_c, 3, 48, 66
1, 240325, Note_on_c, 3, 48, 0
1, 240380, Note_on_c, 3, 50, 70
1, 240432, Note_on_c, 3, 50, 0
1, 240510, Note_on_c, 3, 52, 64
1, 240625, Note_on_c, 3, 53, 64
1, 240645, Note_on_c, 3, 52, 0
1, 240712, Note_on_c, 3, 53, 0
1, 240712, Note_on_c, 4, 65, 0
1, 240760, Note_on_c, 3, 52, 47
1, 240872, Note_on_c, 3, 53, 54
1, 240897, Note_on_c, 3, 52, 0
1, 240995, Note_on_c, 3, 53, 0
1, 241032, Note_on_c, 3, 41, 39
1, 241377, Note_on_c, 3, 41, 0
1, 241680, Note_on_c, 4, 77, 66
1, 241717, Note_on_c, 4, 77, 0
1, 241920, Note_on_c, 4, 77, 67
1, 241957, Note_on_c, 4, 77, 0
1, 242160, Note_on_c, 4, 77, 62
1, 242210, Note_on_c, 4, 77, 0
1, 242400, Note_on_c, 4, 77, 64
1, 242442, Note_on_c, 4, 77, 0
1, 242640, Note_on_c, 4, 77, 56
1, 242680, Note_on_c, 4, 77, 0
1, 242896, Note_on_c, 3, 58, 40
1, 242896, Note_on_c, 4, 77, 86
1, 243140, Note_on_c, 3, 65, 42
1, 243179, Note_on_c, 3, 58, 0
1, 243395, Note_on_c, 3, 62, 44
1, 243400, Note_on_c, 3, 65, 0
1, 243572, Note_on_c, 3, 62, 0
1, 243602, Note_on_c, 4, 75, 67
1, 243614, Note_on_c, 4, 77, 0
1, 243617, Note_on_c, 3, 65, 54
1, 243705, Note_on_c, 4, 74, 67
1, 243742, Note_on_c, 4, 75, 0
1, 243812, Note_on_c, 3, 65, 0
1, 243845, Note_on_c, 3, 60, 48
1, 243845, Note_on_c, 4, 72, 68
1, 243857, Note_on_c, 4, 74, 0
1, 243935, Note_on_c, 4, 72, 0
1, 244062, Note_on_c, 3, 65, 56
1, 244097, Note_on_c, 4, 70, 53
1, 244165, Note_on_c, 4, 70, 0
1, 244305, Note_on_c, 3, 63, 51
1, 244320, Note_on_c, 3, 65, 0
1, 244337, Note_on_c, 4, 69, 62
1, 244345, Note_on_c, 3, 60, 0
1, 244410, Note_on_c, 4, 69, 0
1, 244545, Note_on_c, 3, 65, 50
1, 244575, Note_on_c, 3, 63, 0
1, 244580, Note_on_c, 4, 72, 73
1, 244632, Note_on_c, 3, 65, 0
1, 244657, Note_on_c, 4, 72, 0
1, 244800, Note_on_c, 3, 62, 49
1, 244825, Note_on_c, 4, 70, 51
1, 245050, Note_on_c, 3, 65, 42
1, 245122, Note_on_c, 3, 62, 0
1, 245217, Note_on_c, 4, 70, 0
1, 245302, Note_on_c, 3, 70, 33
1, 245332, Note_on_c, 3, 65, 0
1, 245530, Note_on_c, 4, 77, 70
1, 245570, Note_on_c, 4, 77, 0
1, 245585, Note_on_c, 3, 70, 0
1, 245777, Note_on_c, 4, 77, 63
1, 245817, Note_on_c, 4, 77, 0
1, 246020, Note_on_c, 4, 77, 64
1, 246065, Note_on_c, 4, 77, 0
1, 246260, Note_on_c, 4, 77, 61
1, 246307, Note_on_c, 4, 77, 0
1, 246497, Note_on_c, 4, 77, 59
1, 246540, Note_on_c, 4, 77, 0
1, 246750, Note_on_c, 4, 77, 79
1, 246755, Note_on_c, 3, 58, 51
1, 246990, Note_on_c, 3, 65, 55
1, 247005, Note_on_c, 3, 58, 0
1, 247195, Note_on_c, 3, 65, 0
1, 247230, Note_on_c, 3, 62, 42
1, 247427, Note_on_c, 3, 62, 0
1, 247447, Note_on_c, 4, 75, 66
1, 247450, Note_on_c, 3, 65, 59
1, 247477, Note_on_c, 4, 77, 0
1, 247535, Note_on_c, 3, 65, 0
1, 247560, Note_on_c, 4, 74, 64
1, 247572, Note_on_c, 4, 75, 0
1, 247687, Note_on_c, 3, 57, 51
1, 247695, Note_on_c, 4, 72, 52
1, 247700, Note_on_c, 4, 74, 0
1, 247782, Note_on_c, 4, 72, 0
1, 247925, Note_on_c, 3, 65, 52
1, 247940, Note_on_c, 4, 74, 67
1, 247995, Note_on_c, 4, 74, 0
1, 248135, Note_on_c, 3, 65, 0
1, 248165, Note_on_c, 3, 60, 43
1, 248175, Note_on_c, 3, 57, 0
1, 248177, Note_on_c, 4, 75, 73
1, 248242, Note_on_c, 4, 75, 0
1, 248400, Note_on_c, 3, 65, 68
1, 248405, Note_on_c, 3, 60, 0
1, 248410, Note_on_c, 4, 72, 61
1, 248450, Note_on_c, 3, 65, 0
1, 248472, Note_on_c, 4, 72, 0
1, 248635, Note_on_c, 4, 74, 66
1, 248640, Note_on_c, 3, 58, 43
1, 248880, Note_on_c, 3, 62, 41
1, 249100, Note_on_c, 4, 74, 0
1, 249110, Note_on_c, 3, 62, 0
1, 249120, Note_on_c, 3, 65, 50
1, 249349, Note_on_c, 3, 65, 0
1, 249360, Note_on_c, 4, 77, 73
1, 249365, Note_on_c, 3, 58, 0
1, 249420, Note_on_c, 4, 77, 0
1, 249600, Note_on_c, 4, 77, 72
1, 249642, Note_on_c, 4, 77, 0
1, 249840, Note_on_c, 4, 77, 72
1, 249885, Note_on_c, 4, 77, 0
1, 250080, Note_on_c, 4, 77, 73
1, 250122, Note_on_c, 4, 77, 0
1, 250320, Note_on_c, 4, 78, 73
1, 250360, Note_on_c, 4, 78, 0
1, 250560, Note_on_c, 3, 63, 115
1, 250560, Note_on_c, 3, 51, 108
1, 250560, Note_on_c, 4, 79, 79
1, 250665, Note_on_c, 4, 67, 73
1, 250690, Note_on_c, 4, 79, 0
1, 250787, Note_on_c, 4, 66, 86
1, 250800, Note_on_c, 4, 67, 0
1, 250905, Note_on_c, 4, 66, 0
1, 250905, Note_on_c, 4, 67, 66
1, 251030, Note_on_c, 4, 68, 97
1, 251045, Note_on_c, 4, 67, 0
1, 251140, Note_on_c, 4, 67, 66
1, 251150, Note_on_c, 4, 68, 0
1, 251275, Note_on_c, 4, 69, 97
1, 251290, Note_on_c, 4, 67, 0
1, 251380, Note_on_c, 4, 67, 77
1, 251400, Note_on_c, 4, 69, 0
1, 251502, Note_on_c, 4, 70, 105
1, 251520, Note_on_c, 4, 67, 0
1, 251612, Note_on_c, 4, 67, 49
1, 251630, Note_on_c, 4, 70, 0
1, 251673, Note_on_c, 3, 51, 0
1, 251698, Note_on_c, 3, 63, 0
1, 251737, Note_on_c, 4, 71, 94
1, 251757, Note_on_c, 4, 67, 0
1, 251842, Note_on_c, 4, 71, 0
1, 251842, Note_on_c, 4, 67, 73
1, 251980, Note_on_c, 4, 72, 90
1, 251990, Note_on_c, 4, 67, 0
1, 252092, Note_on_c, 4, 67, 61
1, 252095, Note_on_c, 4, 72, 0
1, 252220, Note_on_c, 4, 74, 108
1, 252240, Note_on_c, 4, 67, 0
1, 252327, Note_on_c, 4, 67, 64
1, 252340, Note_on_c, 4, 74, 0
1, 252465, Note_on_c, 4, 75, 112
1, 252475, Note_on_c, 4, 67, 0
1, 252480, Note_on_c, 3, 60, 94
1, 252585, Note_on_c, 3, 62, 88
1, 252618, Note_on_c, 3, 60, 0
1, 252700, Note_on_c, 3, 63, 97
1, 252727, Note_on_c, 3, 62, 0
1, 252805, Note_on_c, 3, 62, 88
1, 252870, Note_on_c, 3, 63, 0
1, 252932, Note_on_c, 3, 60, 72
1, 252947, Note_on_c, 3, 62, 0
1, 253032, Note_on_c, 3, 62, 88
1, 253052, Note_on_c, 3, 60, 0
1, 253067, Note_on_c, 3, 62, 0
1, 253170, Note_on_c, 3, 58, 97
1, 253295, Note_on_c, 3, 60, 77
1, 253320, Note_on_c, 3, 58, 0
1, 253412, Note_on_c, 3, 57, 90
1, 253430, Note_on_c, 4, 75, 0
1, 253435, Note_on_c, 3, 60, 0
1, 253542, Note_on_c, 3, 58, 83
1, 253580, Note_on_c, 3, 57, 0
1, 253665, Note_on_c, 3, 55, 64
1, 253682, Note_on_c, 3, 58, 0
1, 253790, Note_on_c, 3, 57, 48
1, 253810, Note_on_c, 3, 55, 0
1, 253817, Note_on_c, 4, 75, 108
1, 253847, Note_on_c, 3, 57, 0
1, 253862, Note_on_c, 4, 75, 0
1, 253920, Note_on_c, 3, 53, 84
1, 253925, Note_on_c, 4, 75, 108
1, 253977, Note_on_c, 4, 77, 102
1, 253987, Note_on_c, 4, 75, 0
1, 254027, Note_on_c, 3, 55, 61
1, 254027, Note_on_c, 4, 77, 0
1, 254027, Note_on_c, 4, 75, 78
1, 254052, Note_on_c, 3, 53, 0
1, 254065, Note_on_c, 4, 77, 86
1, 254080, Note_on_c, 3, 55, 0
1, 254080, Note_on_c, 4, 75, 0
1, 254112, Note_on_c, 4, 75, 86
1, 254130, Note_on_c, 4, 77, 0
1, 254157, Note_on_c, 3, 51, 108
1, 254160, Note_on_c, 4, 75, 0
1, 254172, Note_on_c, 4, 74, 88
1, 254262, Note_on_c, 4, 74, 0
1, 254285, Note_on_c, 3, 53, 77
1, 254285, Note_on_c, 4, 75, 99
1, 254300, Note_on_c, 3, 51, 0
1, 254357, Note_on_c, 4, 75, 0
1, 254372, Note_on_c, 3, 53, 0
1, 254425, Note_on_c, 3, 50, 108
1, 254430, Note_on_c, 4, 77, 84
1, 254435, Note_on_c, 3, 38, 108
1, 254542, Note_on_c, 4, 65, 86
1, 254547, Note_on_c, 4, 77, 0
1, 254660, Note_on_c, 4, 64, 90
1, 254672, Note_on_c, 4, 65, 0
1, 254760, Note_on_c, 4, 64, 0
1, 254767, Note_on_c, 4, 65, 61
1, 254890, Note_on_c, 4, 65, 0
1, 254890, Note_on_c, 4, 67, 97
1, 254990, Note_on_c, 4, 65, 53
1, 254997, Note_on_c, 4, 67, 0
1, 255095, Note_on_c, 4, 65, 0
1, 255110, Note_on_c, 4, 68, 90
1, 255215, Note_on_c, 4, 68, 0
1, 255227, Note_on_c, 4, 65, 83
1, 255347, Note_on_c, 4, 65, 0
1, 255352, Note_on_c, 4, 69, 102
1, 255450, Note_on_c, 4, 65, 50
1, 255462, Note_on_c, 4, 69, 0
1, 255567, Note_on_c, 3, 38, 0
1, 255567, Note_on_c, 3, 50, 0
1, 255567, Note_on_c, 4, 70, 97
1, 255590, Note_on_c, 4, 65, 0
1, 255685, Note_on_c, 4, 65, 68
1, 255710, Note_on_c, 4, 70, 0
1, 255810, Note_on_c, 4, 65, 0
1, 255810, Note_on_c, 4, 72, 108
1, 255917, Note_on_c, 4, 65, 75
1, 255922, Note_on_c, 4, 72, 0
1, 256052, Note_on_c, 4, 73, 112
1, 256060, Note_on_c, 4, 65, 0
1, 256162, Note_on_c, 4, 65, 75
1, 256180, Note_on_c, 4, 73, 0
1, 256272, Note_on_c, 4, 65, 0
1, 256295, Note_on_c, 4, 74, 97
1, 256307, Note_on_c, 3, 58, 102
1, 256422, Note_on_c, 3, 60, 73
1, 256465, Note_on_c, 3, 58, 0
1, 256565, Note_on_c, 3, 62, 90
1, 256590, Note_on_c, 3, 60, 0
1, 256662, Note_on_c, 3, 62, 0
1, 256667, Note_on_c, 3, 60, 83
1, 256797, Note_on_c, 3, 58, 102
1, 256810, Note_on_c, 3, 60, 0
1, 256917, Note_on_c, 3, 60, 86
1, 256950, Note_on_c, 3, 58, 0
1, 257035, Note_on_c, 3, 57, 83
1, 257075, Note_on_c, 3, 60, 0
1, 257165, Note_on_c, 3, 58, 86
1, 257207, Note_on_c, 3, 57, 0
1, 257285, Note_on_c, 3, 58, 0
1, 257292, Note_on_c, 3, 55, 88
1, 257410, Note_on_c, 3, 57, 61
1, 257430, Note_on_c, 3, 55, 0
1, 257495, Note_on_c, 4, 74, 0
1, 257502, Note_on_c, 3, 57, 0
1, 257550, Note_on_c, 3, 53, 81
1, 257645, Note_on_c, 3, 55, 65
1, 257645, Note_on_c, 4, 86, 102
1, 257662, Note_on_c, 3, 53, 0
1, 257687, Note_on_c, 3, 55, 0
1, 257690, Note_on_c, 4, 86, 0
1, 257755, Note_on_c, 4, 86, 99
1, 257785, Note_on_c, 3, 51, 108
1, 257807, Note_on_c, 4, 86, 0
1, 257812, Note_on_c, 4, 87, 88
1, 257857, Note_on_c, 4, 87, 0
1, 257857, Note_on_c, 4, 86, 74
1, 257882, Note_on_c, 3, 53, 78
1, 257892, Note_on_c, 4, 86, 0
1, 257897, Note_on_c, 4, 87, 105
1, 257910, Note_on_c, 3, 51, 0
1, 257932, Note_on_c, 4, 86, 83
1, 257952, Note_on_c, 4, 87, 0
1, 257985, Note_on_c, 4, 84, 88
1, 258000, Note_on_c, 3, 50, 74
1, 258000, Note_on_c, 4, 86, 0
1, 258030, Note_on_c, 3, 53, 0
1, 258057, Note_on_c, 4, 84, 0
1, 258105, Note_on_c, 4, 86, 108
1, 258120, Note_on_c, 3, 51, 79
1, 258152, Note_on_c, 3, 50, 0
1, 258155, Note_on_c, 4, 86, 0
1, 258202, Note_on_c, 3, 51, 0
1, 258230, Note_on_c, 4, 87, 112
1, 258260, Note_on_c, 3, 48, 97
1, 258262, Note_on_c, 3, 36, 108
1, 258345, Note_on_c, 4, 75, 83
1, 258365, Note_on_c, 4, 87, 0
1, 258467, Note_on_c, 4, 74, 83
1, 258480, Note_on_c, 4, 75, 0
1, 258580, Note_on_c, 4, 75, 94
1, 258605, Note_on_c, 4, 74, 0
1, 258697, Note_on_c, 4, 77, 84
1, 258720, Note_on_c, 4, 75, 0
1, 258810, Note_on_c, 4, 75, 77
1, 258845, Note_on_c, 4, 77, 0
1, 258945, Note_on_c, 4, 78, 97
1, 258977, Note_on_c, 4, 75, 0
1, 259060, Note_on_c, 4, 75, 74
1, 259092, Note_on_c, 4, 78, 0
1, 259167, Note_on_c, 3, 36, 0
1, 259190, Note_on_c, 4, 79, 84
1, 259210, Note_on_c, 3, 48, 0
1, 259232, Note_on_c, 4, 75, 0
1, 259300, Note_on_c, 4, 75, 56
1, 259320, Note_on_c, 4, 79, 0
1, 259430, Note_on_c, 4, 81, 94
1, 259467, Note_on_c, 4, 75, 0
1, 259552, Note_on_c, 4, 75, 72
1, 259597, Note_on_c, 4, 81, 0
1, 259680, Note_on_c, 4, 82, 102
1, 259700, Note_on_c, 4, 75, 0
1, 259785, Note_on_c, 4, 75, 64
1, 259817, Note_on_c, 4, 82, 0
1, 259915, Note_on_c, 4, 83, 112
1, 259932, Note_on_c, 4, 75, 0
1, 260020, Note_on_c, 4, 75, 66
1, 260040, Note_on_c, 4, 83, 0
1, 260120, Note_on_c, 4, 75, 0
1, 260160, Note_on_c, 3, 65, 52
1, 260160, Note_on_c, 4, 84, 108
1, 260275, Note_on_c, 3, 69, 49
1, 260347, Note_on_c, 3, 69, 0
1, 260405, Note_on_c, 3, 72, 45
1, 260427, Note_on_c, 3, 65, 0
1, 260507, Note_on_c, 3, 72, 0
1, 260512, Note_on_c, 3, 69, 48
1, 260580, Note_on_c, 3, 69, 0
1, 260640, Note_on_c, 3, 65, 48
1, 260640, Note_on_c, 4, 84, 0
1, 260752, Note_on_c, 3, 69, 44
1, 260865, Note_on_c, 4, 87, 99
1, 260867, Note_on_c, 3, 69, 0
1, 260877, Note_on_c, 3, 72, 49
1, 260882, Note_on_c, 3, 65, 0
1, 260967, Note_on_c, 3, 72, 0
1, 260977, Note_on_c, 3, 69, 54
1, 261005, Note_on_c, 4, 87, 0
1, 261020, Note_on_c, 3, 69, 0
1, 261130, Note_on_c, 3, 65, 32
1, 261130, Note_on_c, 4, 86, 83
1, 261240, Note_on_c, 3, 72, 45
1, 261355, Note_on_c, 4, 84, 70
1, 261360, Note_on_c, 3, 75, 48
1, 261365, Note_on_c, 3, 72, 0
1, 261377, Note_on_c, 4, 86, 0
1, 261422, Note_on_c, 4, 84, 0
1, 261437, Note_on_c, 3, 65, 0
1, 261462, Note_on_c, 3, 75, 0
1, 261485, Note_on_c, 3, 72, 46
1, 261567, Note_on_c, 3, 72, 0
1, 261590, Note_on_c, 4, 82, 79
1, 261605, Note_on_c, 3, 65, 39
1, 261710, Note_on_c, 3, 72, 50
1, 261822, Note_on_c, 4, 81, 70
1, 261835, Note_on_c, 3, 72, 0
1, 261835, Note_on_c, 3, 75, 37
1, 261850, Note_on_c, 4, 82, 0
1, 261882, Note_on_c, 3, 65, 0
1, 261892, Note_on_c, 4, 81, 0
1, 261942, Note_on_c, 3, 75, 0
1, 261942, Note_on_c, 3, 72, 52
1, 261980, Note_on_c, 3, 72, 0
1, 262065, Note_on_c, 3, 65, 40
1, 262075, Note_on_c, 4, 84, 94
1, 262167, Note_on_c, 3, 70, 43
1, 262310, Note_on_c, 3, 70, 0
1, 262310, Note_on_c, 3, 74, 53
1, 262310, Note_on_c, 4, 82, 51
1, 262332, Note_on_c, 4, 84, 0
1, 262372, Note_on_c, 3, 65, 0
1, 262412, Note_on_c, 3, 74, 0
1, 262427, Note_on_c, 3, 70, 29
1, 262465, Note_on_c, 4, 82, 0
1, 262497, Note_on_c, 3, 70, 0
1, 262535, Note_on_c, 3, 65, 47
1, 262647, Note_on_c, 3, 70, 50
1, 262787, Note_on_c, 3, 74, 66
1, 262792, Note_on_c, 4, 89, 73
1, 262815, Note_on_c, 3, 70, 0
1, 262852, Note_on_c, 3, 65, 0
1, 262875, Note_on_c, 4, 89, 0
1, 262882, Note_on_c, 3, 74, 0
1, 262882, Note_on_c, 3, 70, 54
1, 262930, Note_on_c, 3, 70, 0
1, 263027, Note_on_c, 3, 65, 49
1, 263030, Note_on_c, 4, 87, 99
1, 263132, Note_on_c, 3, 68, 49
1, 263247, Note_on_c, 3, 68, 0
1, 263252, Note_on_c, 3, 71, 47
1, 263275, Note_on_c, 4, 86, 79
1, 263305, Note_on_c, 4, 87, 0
1, 263342, Note_on_c, 3, 65, 0
1, 263355, Note_on_c, 4, 86, 0
1, 263357, Note_on_c, 3, 71, 0
1, 263375, Note_on_c, 3, 68, 49
1, 263415, Note_on_c, 3, 68, 0
1, 263502, Note_on_c, 3, 65, 40
1, 263515, Note_on_c, 4, 84, 77
1, 263627, Note_on_c, 3, 68, 41
1, 263750, Note_on_c, 4, 84, 0
1, 263757, Note_on_c, 4, 83, 68
1, 263762, Note_on_c, 3, 74, 69
1, 263805, Note_on_c, 3, 68, 0
1, 263815, Note_on_c, 3, 65, 0
1, 263840, Note_on_c, 4, 83, 0
1, 263867, Note_on_c, 3, 68, 57
1, 263880, Note_on_c, 3, 74, 0
1, 263957, Note_on_c, 3, 68, 0
1, 263995, Note_on_c, 4, 84, 79
1, 264015, Note_on_c, 3, 63, 45
1, 264127, Note_on_c, 3, 67, 46
1, 264247, Note_on_c, 3, 72, 62
1, 264267, Note_on_c, 3, 67, 0
1, 264320, Note_on_c, 3, 63, 0
1, 264362, Note_on_c, 3, 72, 0
1, 264362, Note_on_c, 4, 86, 97
1, 264365, Note_on_c, 3, 67, 47
1, 264390, Note_on_c, 4, 84, 0
1, 264435, Note_on_c, 3, 67, 0
1, 264487, Note_on_c, 3, 63, 35
1, 264490, Note_on_c, 4, 89, 102
1, 264507, Note_on_c, 4, 86, 0
1, 264592, Note_on_c, 3, 67, 59
1, 264600, Note_on_c, 4, 87, 97
1, 264635, Note_on_c, 4, 89, 0
1, 264720, Note_on_c, 4, 86, 92
1, 264725, Note_on_c, 3, 72, 65
1, 264745, Note_on_c, 3, 67, 0
1, 264760, Note_on_c, 4, 87, 0
1, 264777, Note_on_c, 3, 63, 0
1, 264825, Note_on_c, 4, 84, 79
1, 264837, Note_on_c, 3, 72, 0
1, 264837, Note_on_c, 3, 67, 59
1, 264850, Note_on_c, 4, 86, 0
1, 264920, Note_on_c, 3, 67, 0
1, 264952, Note_on_c, 3, 65, 57
1, 264970, Note_on_c, 4, 82, 102
1, 264972, Note_on_c, 4, 84, 0
1, 265065, Note_on_c, 3, 70, 44
1, 265195, Note_on_c, 3, 74, 56
1, 265205, Note_on_c, 3, 70, 0
1, 265267, Note_on_c, 3, 65, 0
1, 265302, Note_on_c, 3, 74, 0
1, 265307, Note_on_c, 3, 70, 52
1, 265365, Note_on_c, 3, 70, 0
1, 265435, Note_on_c, 4, 81, 79
1, 265440, Note_on_c, 3, 65, 59
1, 265457, Note_on_c, 4, 82, 0
1, 265532, Note_on_c, 3, 72, 67
1, 265640, Note_on_c, 4, 81, 0
1, 265660, Note_on_c, 3, 75, 73
1, 265675, Note_on_c, 3, 72, 0
1, 265687, Note_on_c, 3, 65, 0
1, 265785, Note_on_c, 3, 72, 64
1, 265790, Note_on_c, 3, 75, 0
1, 265847, Note_on_c, 3, 72, 0
1, 265915, Note_on_c, 3, 70, 99
1, 266002, Note_on_c, 3, 70, 0
1, 266045, Note_on_c, 4, 82, 99
1, 266165, Note_on_c, 4, 81, 83
1, 266182, Note_on_c, 4, 82, 0
1, 266280, Note_on_c, 4, 82, 97
1, 266295, Note_on_c, 4, 81, 0
1, 266327, Note_on_c, 4, 82, 0
1, 266415, Note_on_c, 3, 65, 97
1, 266415, Note_on_c, 3, 53, 94
1, 266510, Note_on_c, 4, 77, 88
1, 266512, Note_on_c, 3, 65, 0
1, 266520, Note_on_c, 3, 53, 0
1, 266640, Note_on_c, 4, 76, 77
1, 266662, Note_on_c, 4, 77, 0
1, 266755, Note_on_c, 4, 77, 79
1, 266765, Note_on_c, 4, 76, 0
1, 266810, Note_on_c, 4, 77, 0
1, 266877, Note_on_c, 3, 62, 97
1, 266880, Note_on_c, 3, 50, 97
1, 266952, Note_on_c, 3, 62, 0
1, 266992, Note_on_c, 3, 50, 0
1, 266995, Note_on_c, 4, 74, 77
1, 267097, Note_on_c, 4, 73, 67
1, 267120, Note_on_c, 4, 74, 0
1, 267235, Note_on_c, 4, 74, 61
1, 267245, Note_on_c, 4, 73, 0
1, 267292, Note_on_c, 4, 74, 0
1, 267365, Note_on_c, 3, 58, 108
1, 267367, Note_on_c, 3, 46, 102
1, 267455, Note_on_c, 4, 70, 83
1, 267490, Note_on_c, 3, 58, 0
1, 267495, Note_on_c, 3, 46, 0
1, 267600, Note_on_c, 4, 70, 0
1, 267600, Note_on_c, 4, 69, 52
1, 267715, Note_on_c, 4, 70, 54
1, 267730, Note_on_c, 4, 69, 0
1, 267757, Note_on_c, 4, 70, 0
1, 267825, Note_on_c, 4, 63, 59
1, 267837, Note_on_c, 3, 53, 60
1, 267897, Note_on_c, 4, 63, 0
1, 267902, Note_on_c, 4, 65, 68
1, 267957, Note_on_c, 3, 60, 50
1, 267970, Note_on_c, 4, 65, 0
1, 267975, Note_on_c, 4, 69, 59
1, 268070, Note_on_c, 3, 63, 39
1, 268077, Note_on_c, 3, 60, 0
1, 268087, Note_on_c, 3, 53, 0
1, 268185, Note_on_c, 3, 63, 0
1, 268205, Note_on_c, 3, 60, 36
1, 268272, Note_on_c, 3, 60, 0
1, 268302, Note_on_c, 3, 53, 37
1, 268355, Note_on_c, 4, 69, 0
1, 268422, Note_on_c, 3, 60, 52
1, 268527, Note_on_c, 4, 75, 72
1, 268557, Note_on_c, 3, 63, 49
1, 268560, Note_on_c, 3, 60, 0
1, 268637, Note_on_c, 3, 53, 0
1, 268672, Note_on_c, 3, 60, 45
1, 268675, Note_on_c, 3, 63, 0
1, 268745, Note_on_c, 4, 75, 0
1, 268770, Note_on_c, 4, 74, 60
1, 268782, Note_on_c, 3, 60, 0
1, 268785, Note_on_c, 3, 53, 44
1, 268890, Note_on_c, 3, 60, 51
1, 269017, Note_on_c, 3, 63, 59
1, 269020, Note_on_c, 4, 72, 51
1, 269035, Note_on_c, 3, 60, 0
1, 269040, Note_on_c, 4, 74, 0
1, 269107, Note_on_c, 4, 72, 0
1, 269132, Note_on_c, 3, 53, 0
1, 269147, Note_on_c, 3, 60, 45
1, 269152, Note_on_c, 3, 63, 0
1, 269255, Note_on_c, 3, 60, 0
1, 269260, Note_on_c, 4, 70, 59
1, 269267, Note_on_c, 3, 53, 40
1, 269367, Note_on_c, 3, 60, 50
1, 269500, Note_on_c, 3, 63, 59
1, 269502, Note_on_c, 4, 69, 57
1, 269520, Note_on_c, 3, 60, 0
1, 269535, Note_on_c, 4, 70, 0
1, 269570, Note_on_c, 4, 69, 0
1, 269582, Note_on_c, 3, 53, 0
1, 269622, Note_on_c, 3, 60, 55
1, 269625, Note_on_c, 3, 63, 0
1, 269670, Note_on_c, 3, 60, 0
1, 269742, Note_on_c, 3, 53, 43
1, 269742, Note_on_c, 4, 72, 77
1, 269857, Note_on_c, 3, 58, 49
1, 269977, Note_on_c, 3, 62, 66
1, 269995, Note_on_c, 3, 58, 0
1, 270005, Note_on_c, 4, 70, 48
1, 270030, Note_on_c, 4, 72, 0
1, 270077, Note_on_c, 3, 62, 0
1, 270092, Note_on_c, 3, 58, 47
1, 270117, Note_on_c, 3, 53, 0
1, 270152, Note_on_c, 4, 70, 0
1, 270205, Note_on_c, 3, 58, 0
1, 270235, Note_on_c, 3, 53, 41
1, 270342, Note_on_c, 3, 58, 45
1, 270467, Note_on_c, 3, 62, 42
1, 270480, Note_on_c, 3, 58, 0
1, 270495, Note_on_c, 4, 77, 73
1, 270565, Note_on_c, 4, 77, 0
1, 270572, Note_on_c, 3, 53, 0
1, 270572, Note_on_c, 3, 62, 0
1, 270602, Note_on_c, 3, 58, 26
1, 270647, Note_on_c, 3, 58, 0
1, 270735, Note_on_c, 3, 53, 40
1, 270745, Note_on_c, 4, 75, 64
1, 270842, Note_on_c, 3, 56, 49
1, 270980, Note_on_c, 3, 59, 50
1, 270992, Note_on_c, 4, 74, 53
1, 270995, Note_on_c, 3, 56, 0
1, 271007, Note_on_c, 4, 75, 0
1, 271072, Note_on_c, 4, 74, 0
1, 271085, Note_on_c, 3, 59, 0
1, 271090, Note_on_c, 3, 53, 0
1, 271100, Note_on_c, 3, 56, 50
1, 271152, Note_on_c, 3, 56, 0
1, 271235, Note_on_c, 3, 53, 34
1, 271237, Note_on_c, 4, 72, 77
1, 271327, Note_on_c, 3, 56, 49
1, 271457, Note_on_c, 4, 72, 0
1, 271470, Note_on_c, 3, 62, 66
1, 271472, Note_on_c, 4, 71, 53
1, 271487, Note_on_c, 3, 56, 0
1, 271525, Note_on_c, 3, 53, 0
1, 271560, Note_on_c, 3, 62, 0
1, 271560, Note_on_c, 4, 71, 0
1, 271582, Note_on_c, 3, 56, 49
1, 271632, Note_on_c, 3, 56, 0
1, 271710, Note_on_c, 3, 51, 68
1, 271725, Note_on_c, 4, 72, 61
1, 271825, Note_on_c, 3, 55, 56
1, 271960, Note_on_c, 3, 60, 61
1, 271967, Note_on_c, 3, 55, 0
1, 272055, Note_on_c, 3, 51, 0
1, 272055, Note_on_c, 3, 60, 0
1, 272062, Note_on_c, 4, 74, 72
1, 272075, Note_on_c, 3, 55, 50
1, 272077, Note_on_c, 4, 72, 0
1, 272115, Note_on_c, 4, 74, 0
1, 272180, Note_on_c, 3, 55, 0
1, 272205, Note_on_c, 4, 74, 83
1, 272222, Note_on_c, 3, 51, 21
1, 272300, Note_on_c, 4, 75, 69
1, 272302, Note_on_c, 4, 74, 0
1, 272315, Note_on_c, 3, 55, 37
1, 272372, Note_on_c, 4, 75, 0
1, 272427, Note_on_c, 4, 77, 77
1, 272440, Note_on_c, 3, 60, 64
1, 272460, Note_on_c, 3, 55, 0
1, 272467, Note_on_c, 3, 51, 0
1, 272495, Note_on_c, 4, 77, 0
1, 272535, Note_on_c, 3, 60, 0
1, 272535, Note_on_c, 4, 79, 73
1, 272555, Note_on_c, 3, 55, 47
1, 272595, Note_on_c, 4, 79, 0
1, 272635, Note_on_c, 3, 55, 0
1, 272645, Note_on_c, 4, 79, 68
1, 272677, Note_on_c, 3, 53, 44
1, 272725, Note_on_c, 4, 70, 65
1, 272742, Note_on_c, 4, 79, 0
1, 272777, Note_on_c, 3, 58, 45
1, 272900, Note_on_c, 3, 62, 64
1, 272910, Note_on_c, 3, 58, 0
1, 272995, Note_on_c, 3, 53, 0
1, 273007, Note_on_c, 3, 62, 0
1, 273007, Note_on_c, 3, 58, 50
1, 273057, Note_on_c, 3, 58, 0
1, 273062, Note_on_c, 4, 74, 69
1, 273080, Note_on_c, 4, 70, 0
1, 273120, Note_on_c, 3, 53, 61
1, 273120, Note_on_c, 4, 74, 0
1, 273130, Note_on_c, 4, 72, 58
1, 273172, Note_on_c, 4, 74, 83
1, 273177, Note_on_c, 4, 72, 0
1, 273220, Note_on_c, 4, 74, 0
1, 273220, Note_on_c, 4, 72, 74
1, 273252, Note_on_c, 3, 57, 43
1, 273257, Note_on_c, 4, 74, 77
1, 273262, Note_on_c, 4, 72, 0
1, 273300, Note_on_c, 4, 74, 0
1, 273312, Note_on_c, 4, 74, 74
1, 273345, Note_on_c, 4, 74, 0
1, 273345, Note_on_c, 4, 72, 75
1, 273350, Note_on_c, 3, 57, 0
1, 273360, Note_on_c, 3, 63, 68
1, 273360, Note_on_c, 4, 70, 78
1, 273385, Note_on_c, 4, 72, 0
1, 273465, Note_on_c, 4, 70, 0
1, 273475, Note_on_c, 3, 63, 0
1, 273480, Note_on_c, 4, 72, 75
1, 273488, Note_on_c, 3, 53, 0
1, 273550, Note_on_c, 4, 72, 0
1, 273600, Note_on_c, 3, 58, 77
1, 273600, Note_on_c, 3, 62, 75
1, 273753, Note_on_c, 3, 58, 0
1, 273765, Note_on_c, 3, 62, 0
1, 273820, Note_on_c, 4, 89, 81
1, 273935, Note_on_c, 4, 86, 83
1, 273965, Note_on_c, 4, 89, 0
1, 274065, Note_on_c, 4, 82, 67
1, 274102, Note_on_c, 4, 86, 0
1, 274170, Note_on_c, 4, 82, 0
1, 274170, Note_on_c, 4, 77, 66
1, 274200, Note_on_c, 4, 77, 0
1, 274287, Note_on_c, 4, 74, 90
1, 274330, Note_on_c, 4, 74, 0
1, 274407, Note_on_c, 4, 70, 99
1, 274435, Note_on_c, 4, 70, 0
1, 274540, Note_on_c, 4, 65, 75
1, 274540, Note_on_c, 4, 68, 72
1, 274800, Note_on_c, 3, 46, 119
1, 274800, Note_on_c, 3, 58, 102
1, 274885, Note_on_c, 3, 58, 0
1, 274885, Note_on_c, 3, 46, 0
1, 275040, Note_on_c, 3, 62, 86
1, 275040, Note_on_c, 3, 50, 81
1, 275122, Note_on_c, 3, 50, 0
1, 275122, Note_on_c, 3, 62, 0
1, 275280, Note_on_c, 3, 58, 77
1, 275280, Note_on_c, 3, 46, 83
1, 275353, Note_on_c, 3, 46, 0
1, 275353, Note_on_c, 3, 58, 0
1, 275520, Note_on_c, 3, 63, 90
1, 275520, Note_on_c, 3, 51, 108
1, 275615, Note_on_c, 3, 51, 0
1, 275615, Note_on_c, 3, 63, 0
1, 275760, Note_on_c, 4, 67, 61
1, 275765, Note_on_c, 4, 68, 0
1, 275765, Note_on_c, 4, 65, 0
1, 275852, Note_on_c, 4, 67, 0
1, 276000, Note_on_c, 3, 60, 83
1, 276095, Note_on_c, 3, 60, 0
1, 276240, Note_on_c, 4, 75, 58
1, 276240, Note_on_c, 4, 79, 60
1, 276367, Note_on_c, 4, 79, 0
1, 276367, Note_on_c, 4, 75, 0
1, 276480, Note_on_c, 3, 65, 77
1, 276552, Note_on_c, 3, 65, 0
1, 276720, Note_on_c, 4, 77, 63
1, 276720, Note_on_c, 4, 74, 57
1, 276790, Note_on_c, 4, 74, 0
1, 276828, Note_on_c, 4, 77, 0
1, 276960, Note_on_c, 3, 53, 68
1, 277065, Note_on_c, 3, 53, 0
1, 277200, Note_on_c, 4, 63, 57
1, 277200, Note_on_c, 4, 69, 48
1, 277357, Note_on_c, 4, 69, 0
1, 277372, Note_on_c, 4, 63, 0
1, 277440, Note_on_c, 3, 58, 70
1, 277440, Note_on_c, 3, 62, 73
1, 277625, Note_on_c, 3, 62, 0
1, 277625, Note_on_c, 3, 58, 0
1, 277680, Note_on_c, 4, 77, 83
1, 277792, Note_on_c, 4, 77, 0
1, 277792, Note_on_c, 4, 74, 83
1, 277880, Note_on_c, 4, 74, 0
1, 277915, Note_on_c, 4, 70, 73
1, 278015, Note_on_c, 4, 70, 0
1, 278015, Note_on_c, 4, 65, 84
1, 278055, Note_on_c, 4, 65, 0
1, 278160, Note_on_c, 4, 62, 97
1, 278200, Note_on_c, 4, 62, 0
1, 278260, Note_on_c, 4, 58, 97
1, 278290, Note_on_c, 4, 58, 0
1, 278400, Note_on_c, 4, 56, 86
1, 278400, Note_on_c, 4, 53, 88
1, 278640, Note_on_c, 3, 46, 92
1, 278640, Note_on_c, 3, 34, 108
1, 278735, Note_on_c, 3, 34, 0
1, 278735, Note_on_c, 3, 46, 0
1, 278880, Note_on_c, 3, 50, 81
1, 278880, Note_on_c, 3, 38, 77
1, 278972, Note_on_c, 3, 38, 0
1, 278972, Note_on_c, 3, 50, 0
1, 279120, Note_on_c, 3, 34, 79
1, 279120, Note_on_c, 3, 46, 81
1, 279185, Note_on_c, 3, 46, 0
1, 279185, Note_on_c, 3, 34, 0
1, 279360, Note_on_c, 3, 39, 105
1, 279452, Note_on_c, 3, 39, 0
1, 279562, Note_on_c, 4, 53, 0
1, 279562, Note_on_c, 4, 56, 0
1, 279600, Note_on_c, 4, 51, 52
1, 279600, Note_on_c, 4, 55, 58
1, 279700, Note_on_c, 4, 55, 0
1, 279700, Note_on_c, 4, 51, 0
1, 279840, Note_on_c, 3, 48, 83
1, 279930, Note_on_c, 3, 48, 0
1, 280080, Note_on_c, 4, 63, 65
1, 280080, Note_on_c, 4, 67, 53
1, 280177, Note_on_c, 4, 67, 0
1, 280177, Note_on_c, 4, 63, 0
1, 280320, Note_on_c, 3, 53, 77
1, 280433, Note_on_c, 3, 53, 0
1, 280560, Note_on_c, 4, 65, 64
1, 280560, Note_on_c, 4, 62, 54
1, 280667, Note_on_c, 4, 62, 0
1, 280667, Note_on_c, 4, 65, 0
1, 280800, Note_on_c, 3, 41, 73
1, 280915, Note_on_c, 3, 41, 0
1, 281040, Note_on_c, 4, 69, 70
1, 281040, Note_on_c, 4, 63, 60
1, 281177, Note_on_c, 4, 63, 0
1, 281177, Note_on_c, 4, 69, 0
1, 281280, Note_on_c, 3, 46, 108
1, 281280, Note_on_c, 4, 70, 90
1, 281280, Note_on_c, 4, 62, 70
1, 281382, Note_on_c, 3, 58, 77
1, 281415, Note_on_c, 3, 46, 0
1, 281445, Note_on_c, 3, 58, 0
1, 281502, Note_on_c, 3, 57, 73
1, 281560, Note_on_c, 3, 57, 0
1, 281615, Note_on_c, 3, 58, 61
1, 281670, Note_on_c, 3, 58, 0
1, 281677, Note_on_c, 4, 62, 0
1, 281677, Note_on_c, 4, 70, 0
1, 281737, Note_on_c, 3, 46, 60
1, 281847, Note_on_c, 3, 58, 73
1, 281957, Note_on_c, 3, 58, 0
1, 281975, Note_on_c, 3, 57, 92
1, 281980, Note_on_c, 4, 70, 68
1, 281980, Note_on_c, 4, 74, 70
1, 281987, Note_on_c, 3, 46, 0
1, 282060, Note_on_c, 3, 57, 0
1, 282072, Note_on_c, 4, 70, 0
1, 282090, Note_on_c, 4, 74, 0
1, 282092, Note_on_c, 3, 58, 59
1, 282147, Note_on_c, 3, 58, 0
1, 282225, Note_on_c, 3, 46, 52
1, 282225, Note_on_c, 4, 72, 70
1, 282225, Note_on_c, 4, 69, 66
1, 282287, Note_on_c, 4, 69, 0
1, 282292, Note_on_c, 4, 72, 0
1, 282342, Note_on_c, 3, 58, 72
1, 282395, Note_on_c, 3, 46, 0
1, 282445, Note_on_c, 3, 58, 0
1, 282470, Note_on_c, 3, 57, 73
1, 282475, Note_on_c, 4, 72, 78
1, 282480, Note_on_c, 4, 69, 73
1, 282527, Note_on_c, 3, 57, 0
1, 282542, Note_on_c, 4, 69, 0
1, 282555, Note_on_c, 4, 72, 0
1, 282585, Note_on_c, 3, 58, 48
1, 282635, Note_on_c, 3, 58, 0
1, 282710, Note_on_c, 3, 46, 97
1, 282802, Note_on_c, 3, 46, 0
1, 282827, Note_on_c, 3, 58, 63
1, 282912, Note_on_c, 3, 58, 0
1, 282952, Note_on_c, 3, 57, 59
1, 282960, Note_on_c, 4, 75, 66
1, 282960, Note_on_c, 4, 72, 73
1, 283017, Note_on_c, 3, 57, 0
1, 283035, Note_on_c, 4, 72, 0
1, 283035, Note_on_c, 4, 75, 0
1, 283067, Note_on_c, 3, 58, 57
1, 283120, Note_on_c, 3, 58, 0
1, 283187, Note_on_c, 4, 70, 62
1, 283192, Note_on_c, 4, 74, 78
1, 283200, Note_on_c, 3, 46, 108
1, 283252, Note_on_c, 4, 70, 0
1, 283265, Note_on_c, 3, 46, 0
1, 283275, Note_on_c, 4, 74, 0
1, 283310, Note_on_c, 3, 58, 66
1, 283397, Note_on_c, 3, 58, 0
1, 283432, Note_on_c, 3, 57, 47
1, 283435, Note_on_c, 4, 74, 75
1, 283435, Note_on_c, 4, 70, 68
1, 283510, Note_on_c, 3, 57, 0
1, 283512, Note_on_c, 4, 70, 0
1, 283522, Note_on_c, 4, 74, 0
1, 283545, Note_on_c, 3, 58, 81
1, 283602, Note_on_c, 3, 58, 0
1, 283670, Note_on_c, 3, 46, 102
1, 283715, Note_on_c, 3, 46, 0
1, 283790, Note_on_c, 3, 58, 66
1, 283885, Note_on_c, 3, 58, 0
1, 283917, Note_on_c, 3, 57, 52
1, 283935, Note_on_c, 4, 80, 57
1, 283935, Note_on_c, 4, 74, 59
1, 283935, Note_on_c, 4, 77, 74
1, 283992, Note_on_c, 3, 57, 0
1, 283992, Note_on_c, 4, 77, 0
1, 283992, Note_on_c, 4, 74, 0
1, 284020, Note_on_c, 4, 80, 0
1, 284047, Note_on_c, 3, 58, 45
1, 284105, Note_on_c, 3, 58, 0
1, 284170, Note_on_c, 4, 75, 62
1, 284170, Note_on_c, 4, 79, 75
1, 284185, Note_on_c, 3, 46, 102
1, 284242, Note_on_c, 3, 46, 0
1, 284250, Note_on_c, 4, 75, 0
1, 284275, Note_on_c, 4, 79, 0
1, 284290, Note_on_c, 3, 58, 58
1, 284352, Note_on_c, 3, 58, 0
1, 284425, Note_on_c, 3, 57, 73
1, 284427, Note_on_c, 4, 79, 79
1, 284427, Note_on_c, 4, 75, 66
1, 284487, Note_on_c, 3, 57, 0
1, 284512, Note_on_c, 4, 79, 0
1, 284515, Note_on_c, 4, 75, 0
1, 284540, Note_on_c, 3, 58, 92
1, 284600, Note_on_c, 3, 58, 0
1, 284670, Note_on_c, 3, 46, 119
1, 284722, Note_on_c, 3, 46, 0
1, 284785, Note_on_c, 3, 58, 72
1, 284857, Note_on_c, 3, 58, 0
1, 284907, Note_on_c, 4, 75, 61
1, 284907, Note_on_c, 4, 72, 61
1, 284907, Note_on_c, 4, 81, 70
1, 284930, Note_on_c, 3, 57, 97
1, 284980, Note_on_c, 4, 72, 0
1, 284980, Note_on_c, 4, 75, 0
1, 284985, Note_on_c, 3, 57, 0
1, 284990, Note_on_c, 4, 81, 0
1, 285047, Note_on_c, 3, 58, 99
1, 285092, Note_on_c, 3, 58, 0
1, 285190, Note_on_c, 3, 46, 90
1, 285190, Note_on_c, 3, 58, 90
1, 285190, Note_on_c, 4, 75, 74
1, 285190, Note_on_c, 4, 72, 68
1, 285190, Note_on_c, 4, 81, 77
1, 285845, Note_on_c, 4, 81, 0
1, 285845, Note_on_c, 4, 72, 0
1, 285845, Note_on_c, 4, 75, 0
1, 286220, Note_on_c, 4, 82, 39
1, 286220, Note_on_c, 4, 74, 34
1, 286663, Note_on_c, 4, 74, 0
1, 286663, Note_on_c, 4, 82, 0
1, 287230, Note_on_c, 3, 58, 0
1, 287230, Note_on_c, 3, 46, 0
1, 287240, End_track
0, 0, End_of_file