0, 0, Header, 0, 1, 480
1, 0, Start_track
1, 0, Tempo, 454545
1, 1920, Note_on_c, 1, 74, 108
1, 1920, Note_on_c, 1, 66, 108
1, 1920, Note_on_c, 1, 69, 86
1, 1920, Note_on_c, 2, 50, 99
1, 1920, Note_on_c, 2, 38, 97
1, 1920, Note_on_c, 2, 45, 112
1, 1958, Note_on_c, 1, 69, 0
1, 1960, Note_on_c, 1, 66, 0
1, 1970, Note_on_c, 1, 74, 0
1, 2410, Note_on_c, 2, 50, 0
1, 2413, Note_on_c, 2, 38, 0
1, 2413, Note_on_c, 2, 45, 0
1, 2905, Note_on_c, 1, 79, 113
1, 2920, Note_on_c, 2, 62, 69
1, 2920, Note_on_c, 2, 66, 69
1, 3012, Note_on_c, 1, 78, 89
1, 3047, Note_on_c, 1, 79, 0
1, 3137, Note_on_c, 1, 76, 77
1, 3160, Note_on_c, 1, 78, 0
1, 3247, Note_on_c, 1, 78, 90
1, 3277, Note_on_c, 1, 76, 0
1, 3377, Note_on_c, 1, 81, 112
1, 3377, Note_on_c, 2, 64, 84
1, 3377, Note_on_c, 2, 67, 84
1, 3387, Note_on_c, 1, 78, 0
1, 3405, Note_on_c, 2, 62, 0
1, 3410, Note_on_c, 2, 66, 0
1, 3482, Note_on_c, 1, 79, 102
1, 3530, Note_on_c, 1, 81, 0
1, 3615, Note_on_c, 1, 78, 97
1, 3630, Note_on_c, 1, 79, 0
1, 3722, Note_on_c, 1, 79, 81
1, 3752, Note_on_c, 1, 78, 0
1, 3852, Note_on_c, 1, 81, 108
1, 3862, Note_on_c, 2, 66, 100
1, 3862, Note_on_c, 2, 69, 100
1, 3882, Note_on_c, 2, 64, 0
1, 3887, Note_on_c, 1, 79, 0
1, 3890, Note_on_c, 2, 67, 0
1, 3967, Note_on_c, 1, 81, 0
1, 4055, Note_on_c, 2, 66, 0
1, 4067, Note_on_c, 2, 69, 0
1, 4802, Note_on_c, 1, 81, 57
1, 4855, Note_on_c, 1, 81, 0
1, 5052, Note_on_c, 1, 83, 52
1, 5102, Note_on_c, 1, 83, 0
1, 5282, Note_on_c, 1, 85, 57
1, 5335, Note_on_c, 1, 85, 0
1, 5512, Note_on_c, 1, 86, 63
1, 5555, Note_on_c, 1, 86, 0
1, 5752, Note_on_c, 2, 54, 47
1, 5770, Note_on_c, 1, 81, 73
1, 5992, Note_on_c, 2, 62, 42
1, 6155, Note_on_c, 2, 54, 0
1, 6217, Note_on_c, 2, 62, 0
1, 6235, Note_on_c, 2, 50, 54
1, 6247, Note_on_c, 1, 78, 42
1, 6290, Note_on_c, 1, 81, 0
1, 6410, Note_on_c, 1, 78, 0
1, 6487, Note_on_c, 2, 62, 42
1, 6502, Note_on_c, 2, 50, 0
1, 6692, Note_on_c, 2, 62, 0
1, 6710, Note_on_c, 2, 52, 62
1, 6745, Note_on_c, 1, 81, 61
1, 6865, Note_on_c, 1, 79, 45
1, 6890, Note_on_c, 1, 81, 0
1, 6972, Note_on_c, 2, 62, 42
1, 6990, Note_on_c, 1, 78, 43
1, 7012, Note_on_c, 1, 79, 0
1, 7092, Note_on_c, 1, 79, 39
1, 7127, Note_on_c, 1, 78, 0
1, 7215, Note_on_c, 2, 52, 0
1, 7222, Note_on_c, 1, 81, 60
1, 7222, Note_on_c, 2, 57, 52
1, 7240, Note_on_c, 2, 62, 0
1, 7245, Note_on_c, 1, 79, 0
1, 7457, Note_on_c, 1, 79, 56
1, 7457, Note_on_c, 2, 61, 42
1, 7462, Note_on_c, 1, 81, 0
1, 7490, Note_on_c, 2, 57, 0
1, 7500, Note_on_c, 1, 79, 0
1, 7525, Note_on_c, 2, 61, 0
1, 7692, Note_on_c, 1, 77, 61
1, 7712, Note_on_c, 2, 62, 70
1, 7712, Note_on_c, 2, 50, 67
1, 7922, Note_on_c, 2, 50, 0
1, 7927, Note_on_c, 2, 62, 0
1, 7947, Note_on_c, 1, 78, 55
1, 7960, Note_on_c, 1, 77, 0
1, 8000, Note_on_c, 1, 78, 0
1, 8625, Note_on_c, 2, 66, 73
1, 8625, Note_on_c, 2, 62, 73
1, 8642, Note_on_c, 1, 79, 102
1, 8760, Note_on_c, 1, 78, 105
1, 8782, Note_on_c, 1, 79, 0
1, 8882, Note_on_c, 1, 76, 81
1, 8890, Note_on_c, 1, 78, 0
1, 9002, Note_on_c, 1, 78, 88
1, 9037, Note_on_c, 1, 76, 0
1, 9130, Note_on_c, 2, 67, 86
1, 9130, Note_on_c, 2, 64, 86
1, 9132, Note_on_c, 1, 81, 108
1, 9135, Note_on_c, 1, 78, 0
1, 9162, Note_on_c, 2, 62, 0
1, 9162, Note_on_c, 2, 66, 0
1, 9245, Note_on_c, 1, 79, 108
1, 9277, Note_on_c, 1, 81, 0
1, 9367, Note_on_c, 1, 78, 112
1, 9385, Note_on_c, 1, 79, 0
1, 9477, Note_on_c, 1, 79, 105
1, 9502, Note_on_c, 1, 78, 0
1, 9612, Note_on_c, 1, 81, 115
1, 9612, Note_on_c, 2, 69, 98
1, 9612, Note_on_c, 2, 66, 98
1, 9627, Note_on_c, 2, 64, 0
1, 9635, Note_on_c, 1, 79, 0
1, 9647, Note_on_c, 2, 67, 0
1, 9732, Note_on_c, 1, 81, 0
1, 9832, Note_on_c, 2, 66, 0
1, 9842, Note_on_c, 2, 69, 0
1, 10580, Note_on_c, 1, 81, 49
1, 10620, Note_on_c, 1, 81, 0
1, 10822, Note_on_c, 1, 83, 53
1, 10865, Note_on_c, 1, 83, 0
1, 11062, Note_on_c, 1, 85, 64
1, 11110, Note_on_c, 1, 85, 0
1, 11297, Note_on_c, 1, 86, 61
1, 11340, Note_on_c, 1, 86, 0
1, 11542, Note_on_c, 1, 81, 62
1, 11542, Note_on_c, 2, 54, 45
1, 11777, Note_on_c, 2, 62, 38
1, 11825, Note_on_c, 2, 54, 0
1, 12002, Note_on_c, 2, 62, 0
1, 12007, Note_on_c, 1, 78, 45
1, 12017, Note_on_c, 2, 50, 48
1, 12035, Note_on_c, 1, 81, 0
1, 12177, Note_on_c, 1, 78, 0
1, 12257, Note_on_c, 2, 62, 42
1, 12267, Note_on_c, 2, 50, 0
1, 12455, Note_on_c, 2, 62, 0
1, 12475, Note_on_c, 1, 81, 51
1, 12487, Note_on_c, 2, 52, 48
1, 12600, Note_on_c, 1, 79, 47
1, 12622, Note_on_c, 1, 81, 0
1, 12722, Note_on_c, 1, 78, 49
1, 12742, Note_on_c, 1, 79, 0
1, 12742, Note_on_c, 2, 62, 33
1, 12837, Note_on_c, 1, 79, 51
1, 12857, Note_on_c, 1, 78, 0
1, 12947, Note_on_c, 2, 52, 0
1, 12957, Note_on_c, 2, 57, 47
1, 12962, Note_on_c, 1, 81, 67
1, 12967, Note_on_c, 2, 62, 0
1, 12990, Note_on_c, 1, 79, 0
1, 13087, Note_on_c, 1, 79, 57
1, 13130, Note_on_c, 1, 81, 0
1, 13202, Note_on_c, 1, 78, 49
1, 13202, Note_on_c, 2, 61, 36
1, 13245, Note_on_c, 1, 79, 0
1, 13260, Note_on_c, 2, 57, 0
1, 13307, Note_on_c, 1, 76, 62
1, 13325, Note_on_c, 1, 78, 0
1, 13432, Note_on_c, 2, 61, 0
1, 13442, Note_on_c, 1, 74, 94
1, 13447, Note_on_c, 1, 76, 0
1, 13452, Note_on_c, 2, 62, 84
1, 13535, Note_on_c, 1, 74, 0
1, 13710, Note_on_c, 2, 66, 26
1, 13760, Note_on_c, 2, 62, 0
1, 13917, Note_on_c, 1, 69, 81
1, 13927, Note_on_c, 2, 62, 36
1, 13967, Note_on_c, 2, 66, 0
1, 13987, Note_on_c, 1, 69, 0
1, 14145, Note_on_c, 2, 66, 35
1, 14220, Note_on_c, 2, 62, 0
1, 14387, Note_on_c, 1, 78, 92
1, 14387, Note_on_c, 2, 62, 32
1, 14430, Note_on_c, 2, 66, 0
1, 14455, Note_on_c, 1, 79, 77
1, 14462, Note_on_c, 1, 78, 0
1, 14512, Note_on_c, 1, 79, 0
1, 14512, Note_on_c, 1, 78, 59
1, 14560, Note_on_c, 1, 79, 81
1, 14565, Note_on_c, 1, 78, 0
1, 14602, Note_on_c, 1, 78, 75
1, 14607, Note_on_c, 1, 79, 0
1, 14627, Note_on_c, 2, 66, 36
1, 14650, Note_on_c, 1, 79, 86
1, 14652, Note_on_c, 1, 78, 0
1, 14692, Note_on_c, 1, 79, 0
1, 14695, Note_on_c, 1, 78, 78
1, 14725, Note_on_c, 2, 62, 0
1, 14735, Note_on_c, 1, 79, 86
1, 14745, Note_on_c, 1, 78, 0
1, 14777, Note_on_c, 1, 79, 0
1, 14777, Note_on_c, 1, 78, 84
1, 14825, Note_on_c, 1, 78, 0
1, 14825, Note_on_c, 1, 79, 90
1, 14870, Note_on_c, 1, 79, 0
1, 14875, Note_on_c, 1, 78, 79
1, 14887, Note_on_c, 2, 62, 36
1, 14922, Note_on_c, 1, 79, 86
1, 14927, Note_on_c, 1, 78, 0
1, 14930, Note_on_c, 2, 66, 0
1, 14955, Note_on_c, 1, 79, 0
1, 14970, Note_on_c, 1, 78, 79
1, 15012, Note_on_c, 1, 78, 0
1, 15012, Note_on_c, 1, 79, 92
1, 15055, Note_on_c, 1, 78, 83
1, 15065, Note_on_c, 1, 79, 0
1, 15107, Note_on_c, 1, 76, 83
1, 15117, Note_on_c, 1, 78, 0
1, 15117, Note_on_c, 2, 66, 35
1, 15220, Note_on_c, 1, 76, 0
1, 15220, Note_on_c, 1, 74, 86
1, 15282, Note_on_c, 1, 74, 0
1, 15315, Note_on_c, 2, 62, 0
1, 15347, Note_on_c, 1, 73, 112
1, 15372, Note_on_c, 2, 64, 34
1, 15400, Note_on_c, 1, 73, 0
1, 15400, Note_on_c, 2, 66, 0
1, 15600, Note_on_c, 2, 67, 35
1, 15622, Note_on_c, 2, 64, 0
1, 15822, Note_on_c, 1, 69, 97
1, 15832, Note_on_c, 2, 64, 42
1, 15862, Note_on_c, 2, 67, 0
1, 15882, Note_on_c, 1, 69, 0
1, 16072, Note_on_c, 2, 67, 38
1, 16112, Note_on_c, 2, 64, 0
1, 16307, Note_on_c, 2, 67, 0
1, 16315, Note_on_c, 2, 64, 93
1, 16327, Note_on_c, 1, 76, 97
1, 16440, Note_on_c, 2, 66, 60
1, 16527, Note_on_c, 2, 64, 0
1, 16562, Note_on_c, 2, 67, 64
1, 16587, Note_on_c, 2, 66, 0
1, 16667, Note_on_c, 2, 66, 66
1, 16707, Note_on_c, 1, 76, 0
1, 16810, Note_on_c, 2, 67, 0
1, 16817, Note_on_c, 2, 64, 71
1, 16880, Note_on_c, 2, 66, 0
1, 16930, Note_on_c, 2, 62, 73
1, 16937, Note_on_c, 2, 64, 0
1, 17042, Note_on_c, 2, 62, 0
1, 17042, Note_on_c, 2, 61, 77
1, 17147, Note_on_c, 2, 59, 79
1, 17180, Note_on_c, 2, 61, 0
1, 17295, Note_on_c, 1, 76, 102
1, 17300, Note_on_c, 2, 59, 0
1, 17300, Note_on_c, 2, 57, 91
1, 17387, Note_on_c, 1, 76, 0
1, 17532, Note_on_c, 2, 61, 31
1, 17592, Note_on_c, 2, 57, 0
1, 17757, Note_on_c, 2, 57, 40
1, 17782, Note_on_c, 2, 61, 0
1, 17785, Note_on_c, 1, 69, 86
1, 17840, Note_on_c, 1, 69, 0
1, 18007, Note_on_c, 2, 61, 46
1, 18075, Note_on_c, 2, 57, 0
1, 18240, Note_on_c, 1, 79, 97
1, 18262, Note_on_c, 2, 57, 46
1, 18290, Note_on_c, 2, 61, 0
1, 18295, Note_on_c, 1, 79, 0
1, 18302, Note_on_c, 1, 81, 86
1, 18352, Note_on_c, 1, 81, 0
1, 18357, Note_on_c, 1, 79, 70
1, 18402, Note_on_c, 1, 79, 0
1, 18405, Note_on_c, 1, 81, 88
1, 18442, Note_on_c, 1, 79, 73
1, 18450, Note_on_c, 1, 81, 0
1, 18487, Note_on_c, 1, 79, 0
1, 18487, Note_on_c, 1, 81, 84
1, 18492, Note_on_c, 2, 61, 37
1, 18530, Note_on_c, 1, 81, 0
1, 18530, Note_on_c, 1, 79, 70
1, 18575, Note_on_c, 2, 57, 0
1, 18580, Note_on_c, 1, 79, 0
1, 18580, Note_on_c, 1, 81, 86
1, 18617, Note_on_c, 1, 81, 0
1, 18622, Note_on_c, 1, 79, 70
1, 18665, Note_on_c, 1, 79, 0
1, 18670, Note_on_c, 1, 81, 86
1, 18705, Note_on_c, 1, 81, 0
1, 18707, Note_on_c, 1, 79, 70
1, 18737, Note_on_c, 2, 55, 57
1, 18742, Note_on_c, 2, 61, 0
1, 18750, Note_on_c, 1, 79, 0
1, 18750, Note_on_c, 1, 81, 97
1, 18785, Note_on_c, 1, 81, 0
1, 18795, Note_on_c, 1, 79, 61
1, 18832, Note_on_c, 1, 79, 0
1, 18832, Note_on_c, 1, 81, 90
1, 18870, Note_on_c, 1, 81, 0
1, 18875, Note_on_c, 1, 79, 84
1, 18932, Note_on_c, 1, 79, 0
1, 18947, Note_on_c, 1, 78, 105
1, 18987, Note_on_c, 2, 61, 37
1, 19010, Note_on_c, 2, 55, 0
1, 19040, Note_on_c, 1, 78, 0
1, 19072, Note_on_c, 1, 76, 83
1, 19130, Note_on_c, 1, 76, 0
1, 19167, Note_on_c, 2, 61, 0
1, 19202, Note_on_c, 2, 54, 61
1, 19217, Note_on_c, 1, 74, 97
1, 19275, Note_on_c, 1, 74, 0
1, 19470, Note_on_c, 2, 62, 33
1, 19500, Note_on_c, 2, 54, 0
1, 19682, Note_on_c, 2, 54, 33
1, 19692, Note_on_c, 1, 69, 84
1, 19722, Note_on_c, 2, 62, 0
1, 19802, Note_on_c, 1, 69, 0
1, 19930, Note_on_c, 2, 62, 47
1, 19990, Note_on_c, 2, 54, 0
1, 20042, Note_on_c, 2, 62, 0
1, 20167, Note_on_c, 1, 78, 100
1, 20180, Note_on_c, 2, 54, 102
1, 20297, Note_on_c, 2, 50, 64
1, 20310, Note_on_c, 2, 54, 0
1, 20417, Note_on_c, 2, 52, 68
1, 20440, Note_on_c, 2, 50, 0
1, 20522, Note_on_c, 2, 54, 71
1, 20555, Note_on_c, 2, 52, 0
1, 20590, Note_on_c, 1, 78, 0
1, 20642, Note_on_c, 2, 55, 77
1, 20652, Note_on_c, 2, 54, 0
1, 20752, Note_on_c, 2, 57, 80
1, 20762, Note_on_c, 2, 55, 0
1, 20877, Note_on_c, 2, 59, 84
1, 20887, Note_on_c, 2, 57, 0
1, 20987, Note_on_c, 2, 61, 88
1, 21007, Note_on_c, 2, 59, 0
1, 21102, Note_on_c, 2, 61, 0
1, 21120, Note_on_c, 1, 78, 105
1, 21132, Note_on_c, 2, 62, 93
1, 21242, Note_on_c, 1, 74, 77
1, 21262, Note_on_c, 1, 78, 0
1, 21375, Note_on_c, 1, 76, 84
1, 21392, Note_on_c, 1, 74, 0
1, 21447, Note_on_c, 2, 62, 0
1, 21492, Note_on_c, 1, 78, 97
1, 21515, Note_on_c, 1, 76, 0
1, 21605, Note_on_c, 1, 78, 0
1, 21617, Note_on_c, 1, 79, 86
1, 21732, Note_on_c, 1, 81, 69
1, 21745, Note_on_c, 1, 79, 0
1, 21845, Note_on_c, 1, 83, 86
1, 21867, Note_on_c, 1, 81, 0
1, 21960, Note_on_c, 1, 85, 81
1, 21977, Note_on_c, 1, 83, 0
1, 22092, Note_on_c, 1, 86, 115
1, 22112, Note_on_c, 1, 85, 0
1, 22187, Note_on_c, 1, 85, 79
1, 22240, Note_on_c, 1, 86, 0
1, 22312, Note_on_c, 2, 57, 99
1, 22317, Note_on_c, 1, 83, 86
1, 22322, Note_on_c, 2, 54, 92
1, 22360, Note_on_c, 2, 57, 0
1, 22372, Note_on_c, 2, 54, 0
1, 22390, Note_on_c, 1, 85, 0
1, 22437, Note_on_c, 1, 81, 83
1, 22477, Note_on_c, 1, 83, 0
1, 22562, Note_on_c, 2, 57, 108
1, 22567, Note_on_c, 1, 79, 83
1, 22572, Note_on_c, 2, 54, 112
1, 22587, Note_on_c, 1, 81, 0
1, 22600, Note_on_c, 2, 57, 0
1, 22607, Note_on_c, 2, 54, 0
1, 22682, Note_on_c, 1, 78, 84
1, 22697, Note_on_c, 1, 79, 0
1, 22805, Note_on_c, 2, 57, 105
1, 22807, Note_on_c, 1, 76, 66
1, 22807, Note_on_c, 2, 54, 112
1, 22840, Note_on_c, 2, 57, 0
1, 22845, Note_on_c, 1, 78, 0
1, 22845, Note_on_c, 2, 54, 0
1, 22922, Note_on_c, 1, 74, 64
1, 22940, Note_on_c, 1, 76, 0
1, 23047, Note_on_c, 1, 76, 105
1, 23047, Note_on_c, 2, 59, 99
1, 23057, Note_on_c, 2, 55, 97
1, 23065, Note_on_c, 1, 74, 0
1, 23157, Note_on_c, 1, 78, 102
1, 23167, Note_on_c, 2, 59, 0
1, 23172, Note_on_c, 2, 55, 0
1, 23192, Note_on_c, 1, 76, 0
1, 23290, Note_on_c, 1, 76, 75
1, 23315, Note_on_c, 1, 78, 0
1, 23405, Note_on_c, 1, 75, 77
1, 23422, Note_on_c, 1, 76, 0
1, 23532, Note_on_c, 1, 75, 0
1, 23537, Note_on_c, 1, 76, 81
1, 23645, Note_on_c, 1, 78, 68
1, 23667, Note_on_c, 1, 76, 0
1, 23760, Note_on_c, 1, 79, 77
1, 23782, Note_on_c, 1, 78, 0
1, 23880, Note_on_c, 1, 81, 77
1, 23912, Note_on_c, 1, 79, 0
1, 24005, Note_on_c, 1, 83, 119
1, 24027, Note_on_c, 1, 81, 0
1, 24130, Note_on_c, 1, 81, 88
1, 24172, Note_on_c, 1, 83, 0
1, 24237, Note_on_c, 2, 55, 74
1, 24237, Note_on_c, 2, 59, 90
1, 24250, Note_on_c, 1, 79, 74
1, 24290, Note_on_c, 2, 59, 0
1, 24297, Note_on_c, 2, 55, 0
1, 24317, Note_on_c, 1, 81, 0
1, 24362, Note_on_c, 1, 78, 74
1, 24407, Note_on_c, 1, 79, 0
1, 24487, Note_on_c, 1, 76, 83
1, 24487, Note_on_c, 2, 55, 74
1, 24487, Note_on_c, 2, 59, 88
1, 24492, Note_on_c, 1, 78, 0
1, 24537, Note_on_c, 2, 59, 0
1, 24545, Note_on_c, 2, 55, 0
1, 24597, Note_on_c, 1, 74, 84
1, 24617, Note_on_c, 1, 76, 0
1, 24710, Note_on_c, 1, 73, 92
1, 24717, Note_on_c, 2, 56, 86
1, 24717, Note_on_c, 2, 59, 94
1, 24765, Note_on_c, 1, 74, 0
1, 24770, Note_on_c, 2, 56, 0
1, 24785, Note_on_c, 2, 59, 0
1, 24837, Note_on_c, 1, 71, 77
1, 24865, Note_on_c, 1, 73, 0
1, 24967, Note_on_c, 2, 57, 102
1, 24972, Note_on_c, 1, 73, 112
1, 24992, Note_on_c, 1, 71, 0
1, 25022, Note_on_c, 2, 57, 0
1, 25077, Note_on_c, 1, 74, 83
1, 25125, Note_on_c, 1, 73, 0
1, 25202, Note_on_c, 1, 73, 62
1, 25207, Note_on_c, 2, 55, 70
1, 25235, Note_on_c, 1, 74, 0
1, 25275, Note_on_c, 2, 55, 0
1, 25317, Note_on_c, 1, 69, 70
1, 25342, Note_on_c, 1, 73, 0
1, 25447, Note_on_c, 1, 74, 112
1, 25447, Note_on_c, 2, 54, 112
1, 25472, Note_on_c, 1, 69, 0
1, 25505, Note_on_c, 2, 54, 0
1, 25515, Note_on_c, 1, 74, 0
1, 25697, Note_on_c, 2, 50, 62
1, 25747, Note_on_c, 2, 50, 0
1, 25917, Note_on_c, 1, 79, 105
1, 25945, Note_on_c, 2, 49, 105
1, 26005, Note_on_c, 2, 49, 0
1, 26027, Note_on_c, 1, 81, 94
1, 26060, Note_on_c, 1, 79, 0
1, 26162, Note_on_c, 1, 79, 56
1, 26170, Note_on_c, 2, 45, 70
1, 26215, Note_on_c, 1, 81, 0
1, 26225, Note_on_c, 2, 45, 0
1, 26265, Note_on_c, 1, 76, 61
1, 26292, Note_on_c, 1, 79, 0
1, 26392, Note_on_c, 1, 79, 108
1, 26402, Note_on_c, 2, 50, 94
1, 26412, Note_on_c, 1, 76, 0
1, 26452, Note_on_c, 2, 50, 0
1, 26512, Note_on_c, 1, 78, 86
1, 26557, Note_on_c, 1, 79, 0
1, 26635, Note_on_c, 1, 76, 78
1, 26637, Note_on_c, 2, 54, 60
1, 26652, Note_on_c, 1, 78, 0
1, 26707, Note_on_c, 2, 54, 0
1, 26750, Note_on_c, 1, 74, 83
1, 26772, Note_on_c, 1, 76, 0
1, 26867, Note_on_c, 2, 57, 94
1, 26877, Note_on_c, 1, 73, 115
1, 26897, Note_on_c, 1, 74, 0
1, 26940, Note_on_c, 2, 57, 0
1, 26992, Note_on_c, 1, 74, 79
1, 27020, Note_on_c, 1, 73, 0
1, 27117, Note_on_c, 1, 73, 73
1, 27122, Note_on_c, 2, 55, 73
1, 27170, Note_on_c, 1, 74, 0
1, 27207, Note_on_c, 2, 55, 0
1, 27230, Note_on_c, 1, 69, 64
1, 27247, Note_on_c, 1, 73, 0
1, 27357, Note_on_c, 1, 74, 108
1, 27357, Note_on_c, 2, 54, 105
1, 27377, Note_on_c, 1, 69, 0
1, 27415, Note_on_c, 2, 54, 0
1, 27445, Note_on_c, 1, 74, 0
1, 27600, Note_on_c, 2, 50, 77
1, 27655, Note_on_c, 2, 50, 0
1, 27847, Note_on_c, 1, 79, 108
1, 27847, Note_on_c, 2, 49, 119
1, 27905, Note_on_c, 2, 49, 0
1, 27970, Note_on_c, 1, 81, 86
1, 27992, Note_on_c, 1, 79, 0
1, 28087, Note_on_c, 1, 79, 65
1, 28087, Note_on_c, 2, 45, 72
1, 28140, Note_on_c, 1, 81, 0
1, 28145, Note_on_c, 2, 45, 0
1, 28192, Note_on_c, 1, 76, 67
1, 28220, Note_on_c, 1, 79, 0
1, 28325, Note_on_c, 2, 50, 105
1, 28327, Note_on_c, 1, 79, 108
1, 28347, Note_on_c, 1, 76, 0
1, 28375, Note_on_c, 2, 50, 0
1, 28432, Note_on_c, 1, 78, 94
1, 28490, Note_on_c, 1, 79, 0
1, 28560, Note_on_c, 1, 76, 61
1, 28567, Note_on_c, 1, 78, 0
1, 28577, Note_on_c, 2, 54, 102
1, 28615, Note_on_c, 2, 54, 0
1, 28675, Note_on_c, 1, 74, 72
1, 28687, Note_on_c, 1, 76, 0
1, 28802, Note_on_c, 2, 57, 71
1, 28807, Note_on_c, 1, 73, 124
1, 28807, Note_on_c, 2, 52, 71
1, 28810, Note_on_c, 2, 45, 71
1, 28825, Note_on_c, 1, 74, 0
1, 28925, Note_on_c, 1, 76, 97
1, 28950, Note_on_c, 1, 73, 0
1, 29055, Note_on_c, 1, 73, 61
1, 29087, Note_on_c, 2, 52, 0
1, 29100, Note_on_c, 2, 45, 0
1, 29115, Note_on_c, 2, 57, 0
1, 29157, Note_on_c, 1, 76, 0
1, 29162, Note_on_c, 1, 69, 69
1, 29192, Note_on_c, 1, 73, 0
1, 29272, Note_on_c, 2, 57, 100
1, 29272, Note_on_c, 2, 54, 100
1, 29272, Note_on_c, 2, 50, 100
1, 29297, Note_on_c, 1, 78, 119
1, 29307, Note_on_c, 1, 69, 0
1, 29410, Note_on_c, 1, 81, 83
1, 29435, Note_on_c, 1, 78, 0
1, 29532, Note_on_c, 1, 78, 58
1, 29560, Note_on_c, 2, 50, 0
1, 29560, Note_on_c, 2, 54, 0
1, 29585, Note_on_c, 2, 57, 0
1, 29652, Note_on_c, 1, 74, 73
1, 29675, Note_on_c, 1, 81, 0
1, 29675, Note_on_c, 1, 78, 0
1, 29767, Note_on_c, 1, 73, 105
1, 29782, Note_on_c, 1, 74, 0
1, 29782, Note_on_c, 2, 52, 75
1, 29782, Note_on_c, 2, 57, 75
1, 29782, Note_on_c, 2, 45, 75
1, 29872, Note_on_c, 1, 76, 84
1, 29912, Note_on_c, 1, 73, 0
1, 30007, Note_on_c, 1, 73, 59
1, 30035, Note_on_c, 2, 52, 0
1, 30042, Note_on_c, 2, 45, 0
1, 30060, Note_on_c, 2, 57, 0
1, 30115, Note_on_c, 1, 69, 60
1, 30137, Note_on_c, 1, 73, 0
1, 30147, Note_on_c, 1, 76, 0
1, 30247, Note_on_c, 2, 50, 92
1, 30247, Note_on_c, 2, 54, 97
1, 30250, Note_on_c, 1, 78, 119
1, 30252, Note_on_c, 1, 69, 0
1, 30252, Note_on_c, 2, 57, 88
1, 30367, Note_on_c, 1, 81, 83
1, 30387, Note_on_c, 1, 78, 0
1, 30487, Note_on_c, 1, 78, 69
1, 30522, Note_on_c, 2, 50, 0
1, 30540, Note_on_c, 2, 54, 0
1, 30560, Note_on_c, 2, 57, 0
1, 30567, Note_on_c, 1, 81, 0
1, 30590, Note_on_c, 1, 74, 78
1, 30617, Note_on_c, 1, 78, 0
1, 30685, Note_on_c, 1, 74, 0
1, 30720, Note_on_c, 1, 76, 94
1, 30720, Note_on_c, 1, 73, 94
1, 30771, Note_on_c, 1, 73, 0
1, 30771, Note_on_c, 1, 76, 0
1, 31009, Note_on_c, 1, 81, 90
1, 31009, Note_on_c, 1, 76, 97
1, 31009, Note_on_c, 1, 73, 84
1, 31009, Note_on_c, 2, 49, 94
1, 31009, Note_on_c, 2, 45, 86
1, 31009, Note_on_c, 2, 57, 86
1, 31009, Note_on_c, 2, 52, 97
1, 31034, Note_on_c, 1, 76, 0
1, 31039, Note_on_c, 1, 73, 0
1, 31046, Note_on_c, 1, 81, 0
1, 31077, Note_on_c, 2, 49, 0
1, 31087, Note_on_c, 2, 45, 0
1, 31089, Note_on_c, 2, 52, 0
1, 31094, Note_on_c, 2, 57, 0
1, 31264, Note_on_c, 1, 81, 97
1, 31264, Note_on_c, 1, 73, 105
1, 31264, Note_on_c, 1, 76, 108
1, 31264, Note_on_c, 2, 52, 97
1, 31264, Note_on_c, 2, 45, 84
1, 31264, Note_on_c, 2, 49, 97
1, 31264, Note_on_c, 2, 57, 88
1, 31289, Note_on_c, 1, 76, 0
1, 31294, Note_on_c, 1, 73, 0
1, 31304, Note_on_c, 1, 81, 0
1, 31327, Note_on_c, 2, 49, 0
1, 31327, Note_on_c, 2, 52, 0
1, 31329, Note_on_c, 2, 45, 0
1, 31339, Note_on_c, 2, 57, 0
1, 31517, Note_on_c, 1, 76, 108
1, 31517, Note_on_c, 1, 73, 105
1, 31517, Note_on_c, 1, 81, 97
1, 31517, Note_on_c, 2, 57, 77
1, 31517, Note_on_c, 2, 52, 86
1, 31517, Note_on_c, 2, 49, 79
1, 31517, Note_on_c, 2, 45, 70
1, 31547, Note_on_c, 1, 73, 0
1, 31547, Note_on_c, 1, 76, 0
1, 31552, Note_on_c, 1, 81, 0
1, 31575, Note_on_c, 2, 49, 0
1, 31582, Note_on_c, 2, 52, 0
1, 31585, Note_on_c, 2, 45, 0
1, 31597, Note_on_c, 2, 57, 0
1, 31791, Note_on_c, 1, 76, 119
1, 31791, Note_on_c, 1, 73, 112
1, 31791, Note_on_c, 1, 81, 102
1, 31791, Note_on_c, 2, 49, 108
1, 31791, Note_on_c, 2, 57, 97
1, 31791, Note_on_c, 2, 52, 108
1, 31791, Note_on_c, 2, 45, 92
1, 31818, Note_on_c, 1, 73, 0
1, 31823, Note_on_c, 1, 76, 0
1, 31871, Note_on_c, 1, 81, 0
1, 31889, Note_on_c, 2, 52, 0
1, 31889, Note_on_c, 2, 49, 0
1, 31891, Note_on_c, 2, 45, 0
1, 31896, Note_on_c, 2, 57, 0
1, 32100, Note_on_c, 1, 74, 71
1, 32137, Note_on_c, 1, 73, 79
1, 32233, Note_on_c, 1, 71, 64
1, 32317, Note_on_c, 1, 73, 0
1, 32320, Note_on_c, 1, 74, 0
1, 32392, Note_on_c, 1, 73, 71
1, 32413, Note_on_c, 1, 71, 0
1, 32507, Note_on_c, 1, 74, 75
1, 32552, Note_on_c, 1, 73, 0
1, 32607, Note_on_c, 1, 74, 0
1, 32650, Note_on_c, 1, 75, 80
1, 32650, Note_on_c, 2, 57, 47
1, 32877, Note_on_c, 2, 61, 39
1, 32882, Note_on_c, 1, 76, 63
1, 32925, Note_on_c, 1, 75, 0
1, 32935, Note_on_c, 2, 57, 0
1, 32954, Note_on_c, 1, 76, 0
1, 33107, Note_on_c, 2, 59, 40
1, 33132, Note_on_c, 2, 61, 0
1, 33355, Note_on_c, 1, 76, 60
1, 33365, Note_on_c, 2, 62, 42
1, 33385, Note_on_c, 2, 59, 0
1, 33390, Note_on_c, 1, 76, 0
1, 33587, Note_on_c, 2, 61, 60
1, 33607, Note_on_c, 1, 81, 73
1, 33607, Note_on_c, 2, 62, 0
1, 33840, Note_on_c, 2, 64, 48
1, 33862, Note_on_c, 1, 80, 52
1, 33875, Note_on_c, 2, 61, 0
1, 33885, Note_on_c, 1, 81, 0
1, 34095, Note_on_c, 2, 57, 36
1, 34102, Note_on_c, 1, 78, 52
1, 34132, Note_on_c, 2, 64, 0
1, 34137, Note_on_c, 1, 80, 0
1, 34327, Note_on_c, 1, 76, 59
1, 34337, Note_on_c, 2, 61, 33
1, 34342, Note_on_c, 1, 78, 0
1, 34395, Note_on_c, 2, 57, 0
1, 34565, Note_on_c, 1, 73, 57
1, 34575, Note_on_c, 2, 59, 53
1, 34577, Note_on_c, 1, 76, 0
1, 34577, Note_on_c, 2, 61, 0
1, 34807, Note_on_c, 1, 74, 51
1, 34807, Note_on_c, 2, 66, 44
1, 34840, Note_on_c, 1, 73, 0
1, 34870, Note_on_c, 1, 74, 0
1, 34880, Note_on_c, 2, 59, 0
1, 35037, Note_on_c, 2, 62, 47
1, 35072, Note_on_c, 2, 66, 0
1, 35280, Note_on_c, 2, 59, 51
1, 35292, Note_on_c, 2, 62, 0
1, 35305, Note_on_c, 1, 74, 68
1, 35350, Note_on_c, 1, 74, 0
1, 35517, Note_on_c, 2, 56, 40
1, 35537, Note_on_c, 2, 59, 0
1, 35542, Note_on_c, 1, 76, 73
1, 35757, Note_on_c, 2, 59, 48
1, 35787, Note_on_c, 1, 74, 61
1, 35805, Note_on_c, 1, 76, 0
1, 35830, Note_on_c, 2, 56, 0
1, 36005, Note_on_c, 2, 59, 0
1, 36010, Note_on_c, 2, 52, 48
1, 36027, Note_on_c, 1, 73, 49
1, 36037, Note_on_c, 1, 74, 0
1, 36247, Note_on_c, 2, 62, 44
1, 36262, Note_on_c, 1, 71, 48
1, 36285, Note_on_c, 1, 73, 0
1, 36497, Note_on_c, 1, 68, 79
1, 36497, Note_on_c, 2, 61, 55
1, 36502, Note_on_c, 1, 71, 0
1, 36512, Note_on_c, 2, 62, 0
1, 36525, Note_on_c, 2, 52, 0
1, 36742, Note_on_c, 2, 64, 52
1, 36747, Note_on_c, 1, 69, 63
1, 36777, Note_on_c, 1, 68, 0
1, 36782, Note_on_c, 2, 61, 0
1, 36847, Note_on_c, 1, 69, 0
1, 36967, Note_on_c, 2, 64, 0
1, 36972, Note_on_c, 2, 56, 46
1, 37202, Note_on_c, 1, 71, 68
1, 37207, Note_on_c, 2, 64, 49
1, 37247, Note_on_c, 1, 71, 0
1, 37260, Note_on_c, 2, 56, 0
1, 37365, Note_on_c, 2, 64, 0
1, 37442, Note_on_c, 2, 57, 52
1, 37460, Note_on_c, 1, 72, 90
1, 37672, Note_on_c, 2, 64, 52
1, 37700, Note_on_c, 1, 73, 55
1, 37725, Note_on_c, 2, 57, 0
1, 37735, Note_on_c, 1, 72, 0
1, 37777, Note_on_c, 2, 64, 0
1, 37860, Note_on_c, 1, 73, 0
1, 37920, Note_on_c, 2, 54, 57
1, 38172, Note_on_c, 1, 76, 67
1, 38172, Note_on_c, 2, 57, 52
1, 38205, Note_on_c, 2, 54, 0
1, 38260, Note_on_c, 2, 57, 0
1, 38287, Note_on_c, 1, 74, 74
1, 38302, Note_on_c, 1, 76, 0
1, 38335, Note_on_c, 1, 74, 0
1, 38422, Note_on_c, 2, 52, 56
1, 38440, Note_on_c, 1, 73, 83
1, 38662, Note_on_c, 2, 57, 57
1, 38895, Note_on_c, 2, 61, 53
1, 38927, Note_on_c, 2, 57, 0
1, 38982, Note_on_c, 2, 61, 0
1, 39060, Note_on_c, 2, 52, 0
1, 39122, Note_on_c, 1, 74, 59
1, 39132, Note_on_c, 2, 57, 53
1, 39162, Note_on_c, 1, 73, 0
1, 39245, Note_on_c, 1, 73, 62
1, 39255, Note_on_c, 2, 57, 0
1, 39275, Note_on_c, 1, 74, 0
1, 39370, Note_on_c, 2, 56, 48
1, 39372, Note_on_c, 1, 71, 65
1, 39377, Note_on_c, 2, 52, 46
1, 39390, Note_on_c, 1, 73, 0
1, 39435, Note_on_c, 1, 71, 0
1, 39555, Note_on_c, 2, 52, 0
1, 39555, Note_on_c, 2, 56, 0
1, 39607, Note_on_c, 1, 73, 64
1, 39660, Note_on_c, 1, 73, 0
1, 39842, Note_on_c, 1, 74, 61
1, 39900, Note_on_c, 1, 74, 0
1, 40092, Note_on_c, 1, 75, 62
1, 40130, Note_on_c, 1, 75, 0
1, 40327, Note_on_c, 1, 75, 75
1, 40337, Note_on_c, 2, 57, 66
1, 40572, Note_on_c, 2, 61, 45
1, 40587, Note_on_c, 1, 76, 69
1, 40640, Note_on_c, 1, 75, 0
1, 40647, Note_on_c, 2, 57, 0
1, 40705, Note_on_c, 1, 76, 0
1, 40790, Note_on_c, 2, 59, 40
1, 40822, Note_on_c, 2, 61, 0
1, 41052, Note_on_c, 2, 62, 40
1, 41055, Note_on_c, 1, 78, 73
1, 41077, Note_on_c, 2, 59, 0
1, 41110, Note_on_c, 1, 76, 66
1, 41150, Note_on_c, 1, 78, 0
1, 41167, Note_on_c, 1, 75, 69
1, 41192, Note_on_c, 1, 76, 0
1, 41225, Note_on_c, 1, 76, 74
1, 41267, Note_on_c, 1, 75, 0
1, 41282, Note_on_c, 2, 61, 49
1, 41297, Note_on_c, 1, 81, 83
1, 41307, Note_on_c, 2, 62, 0
1, 41320, Note_on_c, 1, 76, 0
1, 41527, Note_on_c, 1, 80, 52
1, 41540, Note_on_c, 2, 64, 38
1, 41542, Note_on_c, 2, 61, 0
1, 41580, Note_on_c, 1, 81, 0
1, 41750, Note_on_c, 2, 57, 44
1, 41762, Note_on_c, 1, 78, 63
1, 41825, Note_on_c, 1, 80, 0
1, 41895, Note_on_c, 2, 64, 0
1, 41985, Note_on_c, 2, 61, 45
1, 41987, Note_on_c, 1, 76, 58
1, 42017, Note_on_c, 1, 78, 0
1, 42025, Note_on_c, 2, 57, 0
1, 42160, Note_on_c, 2, 61, 0
1, 42222, Note_on_c, 2, 59, 57
1, 42235, Note_on_c, 1, 73, 72
1, 42250, Note_on_c, 1, 76, 0
1, 42485, Note_on_c, 2, 66, 36
1, 42487, Note_on_c, 1, 74, 49
1, 42530, Note_on_c, 1, 73, 0
1, 42565, Note_on_c, 2, 59, 0
1, 42655, Note_on_c, 1, 74, 0
1, 42737, Note_on_c, 2, 62, 43
1, 42775, Note_on_c, 2, 66, 0
1, 42967, Note_on_c, 1, 76, 83
1, 42967, Note_on_c, 2, 62, 0
1, 42977, Note_on_c, 2, 59, 42
1, 43025, Note_on_c, 1, 74, 75
1, 43057, Note_on_c, 1, 76, 0
1, 43085, Note_on_c, 1, 73, 74
1, 43110, Note_on_c, 1, 74, 0
1, 43145, Note_on_c, 1, 74, 77
1, 43162, Note_on_c, 1, 73, 0
1, 43212, Note_on_c, 2, 56, 39
1, 43222, Note_on_c, 1, 76, 83
1, 43242, Note_on_c, 2, 59, 0
1, 43245, Note_on_c, 1, 74, 0
1, 43457, Note_on_c, 2, 59, 40
1, 43467, Note_on_c, 1, 74, 64
1, 43482, Note_on_c, 1, 76, 0
1, 43500, Note_on_c, 2, 56, 0
1, 43685, Note_on_c, 2, 52, 54
1, 43692, Note_on_c, 1, 73, 66
1, 43702, Note_on_c, 1, 74, 0
1, 43737, Note_on_c, 2, 59, 0
1, 43932, Note_on_c, 1, 71, 57
1, 43947, Note_on_c, 2, 56, 46
1, 43962, Note_on_c, 1, 73, 0
1, 44057, Note_on_c, 2, 52, 0
1, 44167, Note_on_c, 1, 71, 0
1, 44167, Note_on_c, 1, 73, 75
1, 44187, Note_on_c, 2, 57, 53
1, 44192, Note_on_c, 2, 56, 0
1, 44425, Note_on_c, 2, 57, 0
1, 44532, Note_on_c, 1, 69, 70
1, 44552, Note_on_c, 1, 73, 0
1, 44625, Note_on_c, 1, 66, 73
1, 44642, Note_on_c, 1, 69, 0
1, 44647, Note_on_c, 2, 62, 83
1, 44652, Note_on_c, 2, 50, 66
1, 44950, Note_on_c, 2, 50, 0
1, 44992, Note_on_c, 1, 71, 68
1, 45000, Note_on_c, 2, 62, 0
1, 45027, Note_on_c, 1, 66, 0
1, 45107, Note_on_c, 1, 69, 84
1, 45127, Note_on_c, 2, 61, 73
1, 45132, Note_on_c, 1, 71, 0
1, 45132, Note_on_c, 2, 52, 73
1, 45445, Note_on_c, 1, 69, 0
1, 45567, Note_on_c, 1, 68, 84
1, 45610, Note_on_c, 2, 59, 57
1, 45622, Note_on_c, 1, 69, 72
1, 45635, Note_on_c, 1, 68, 0
1, 45635, Note_on_c, 2, 61, 0
1, 45645, Note_on_c, 2, 52, 0
1, 45680, Note_on_c, 1, 69, 0
1, 45680, Note_on_c, 1, 68, 72
1, 45712, Note_on_c, 1, 69, 72
1, 45717, Note_on_c, 1, 68, 0
1, 45760, Note_on_c, 1, 68, 72
1, 45790, Note_on_c, 1, 69, 0
1, 45820, Note_on_c, 1, 66, 74
1, 45832, Note_on_c, 1, 68, 0
1, 45930, Note_on_c, 1, 68, 74
1, 45937, Note_on_c, 1, 66, 0
1, 46005, Note_on_c, 2, 59, 0
1, 46047, Note_on_c, 1, 68, 0
1, 46055, Note_on_c, 1, 69, 76
1, 46067, Note_on_c, 2, 57, 86
1, 46180, Note_on_c, 1, 76, 70
1, 46247, Note_on_c, 2, 57, 0
1, 46305, Note_on_c, 1, 75, 66
1, 46317, Note_on_c, 1, 69, 0
1, 46332, Note_on_c, 1, 76, 0
1, 46420, Note_on_c, 1, 76, 66
1, 46422, Note_on_c, 1, 75, 0
1, 46545, Note_on_c, 1, 78, 83
1, 46567, Note_on_c, 1, 76, 0
1, 46670, Note_on_c, 1, 76, 77
1, 46712, Note_on_c, 1, 78, 0
1, 46800, Note_on_c, 2, 69, 74
1, 46802, Note_on_c, 1, 75, 90
1, 46832, Note_on_c, 1, 76, 0
1, 46852, Note_on_c, 2, 69, 0
1, 46912, Note_on_c, 1, 76, 79
1, 46957, Note_on_c, 1, 75, 0
1, 47042, Note_on_c, 1, 74, 75
1, 47060, Note_on_c, 2, 71, 102
1, 47065, Note_on_c, 1, 76, 0
1, 47115, Note_on_c, 2, 71, 0
1, 47167, Note_on_c, 1, 76, 75
1, 47187, Note_on_c, 1, 74, 0
1, 47292, Note_on_c, 1, 74, 79
1, 47297, Note_on_c, 2, 69, 88
1, 47312, Note_on_c, 1, 76, 0
1, 47360, Note_on_c, 2, 69, 0
1, 47407, Note_on_c, 1, 76, 66
1, 47432, Note_on_c, 1, 74, 0
1, 47527, Note_on_c, 2, 68, 77
1, 47537, Note_on_c, 1, 74, 79
1, 47557, Note_on_c, 1, 76, 0
1, 47610, Note_on_c, 2, 68, 0
1, 47650, Note_on_c, 1, 76, 62
1, 47675, Note_on_c, 1, 74, 0
1, 47777, Note_on_c, 1, 74, 70
1, 47782, Note_on_c, 2, 64, 69
1, 47797, Note_on_c, 1, 76, 0
1, 47845, Note_on_c, 2, 64, 0
1, 47902, Note_on_c, 1, 76, 59
1, 47917, Note_on_c, 1, 74, 0
1, 48027, Note_on_c, 1, 73, 83
1, 48027, Note_on_c, 2, 69, 89
1, 48060, Note_on_c, 1, 76, 0
1, 48107, Note_on_c, 2, 69, 0
1, 48127, Note_on_c, 1, 76, 63
1, 48142, Note_on_c, 1, 73, 0
1, 48265, Note_on_c, 1, 75, 73
1, 48292, Note_on_c, 1, 76, 0
1, 48375, Note_on_c, 1, 76, 69
1, 48387, Note_on_c, 1, 75, 0
1, 48502, Note_on_c, 1, 78, 97
1, 48520, Note_on_c, 1, 76, 0
1, 48612, Note_on_c, 1, 76, 83
1, 48650, Note_on_c, 1, 78, 0
1, 48742, Note_on_c, 1, 75, 78
1, 48742, Note_on_c, 2, 57, 83
1, 48785, Note_on_c, 1, 76, 0
1, 48817, Note_on_c, 2, 57, 0
1, 48860, Note_on_c, 1, 76, 61
1, 48885, Note_on_c, 1, 75, 0
1, 48990, Note_on_c, 1, 74, 90
1, 48995, Note_on_c, 2, 59, 95
1, 49010, Note_on_c, 1, 76, 0
1, 49092, Note_on_c, 2, 59, 0
1, 49097, Note_on_c, 1, 76, 60
1, 49120, Note_on_c, 1, 74, 0
1, 49227, Note_on_c, 1, 74, 86
1, 49240, Note_on_c, 2, 57, 73
1, 49247, Note_on_c, 1, 76, 0
1, 49305, Note_on_c, 2, 57, 0
1, 49342, Note_on_c, 1, 76, 79
1, 49362, Note_on_c, 1, 74, 0
1, 49457, Note_on_c, 2, 56, 84
1, 49472, Note_on_c, 1, 74, 83
1, 49482, Note_on_c, 1, 76, 0
1, 49520, Note_on_c, 2, 56, 0
1, 49577, Note_on_c, 1, 76, 78
1, 49600, Note_on_c, 1, 74, 0
1, 49695, Note_on_c, 2, 52, 70
1, 49702, Note_on_c, 1, 74, 83
1, 49720, Note_on_c, 1, 76, 0
1, 49755, Note_on_c, 2, 52, 0
1, 49812, Note_on_c, 1, 76, 74
1, 49832, Note_on_c, 1, 74, 0
1, 49947, Note_on_c, 1, 73, 64
1, 49947, Note_on_c, 2, 57, 95
1, 49990, Note_on_c, 1, 76, 0
1, 50052, Note_on_c, 2, 64, 66
1, 50055, Note_on_c, 2, 57, 0
1, 50122, Note_on_c, 1, 73, 0
1, 50177, Note_on_c, 2, 63, 90
1, 50197, Note_on_c, 2, 64, 0
1, 50282, Note_on_c, 2, 64, 63
1, 50312, Note_on_c, 2, 63, 0
1, 50422, Note_on_c, 2, 66, 66
1, 50455, Note_on_c, 2, 64, 0
1, 50527, Note_on_c, 2, 64, 64
1, 50572, Note_on_c, 2, 66, 0
1, 50642, Note_on_c, 1, 81, 79
1, 50642, Note_on_c, 2, 63, 66
1, 50665, Note_on_c, 2, 64, 0
1, 50702, Note_on_c, 1, 81, 0
1, 50767, Note_on_c, 2, 64, 59
1, 50790, Note_on_c, 2, 63, 0
1, 50892, Note_on_c, 1, 83, 99
1, 50892, Note_on_c, 2, 62, 60
1, 50905, Note_on_c, 2, 64, 0
1, 50942, Note_on_c, 1, 83, 0
1, 51002, Note_on_c, 2, 64, 51
1, 51027, Note_on_c, 2, 62, 0
1, 51137, Note_on_c, 1, 81, 84
1, 51137, Note_on_c, 2, 62, 49
1, 51145, Note_on_c, 2, 64, 0
1, 51190, Note_on_c, 1, 81, 0
1, 51262, Note_on_c, 2, 64, 44
1, 51272, Note_on_c, 2, 62, 0
1, 51377, Note_on_c, 2, 62, 49
1, 51380, Note_on_c, 2, 64, 0
1, 51387, Note_on_c, 1, 80, 74
1, 51445, Note_on_c, 1, 80, 0
1, 51492, Note_on_c, 2, 64, 51
1, 51505, Note_on_c, 2, 62, 0
1, 51610, Note_on_c, 1, 76, 72
1, 51612, Note_on_c, 2, 62, 53
1, 51617, Note_on_c, 2, 64, 0
1, 51670, Note_on_c, 1, 76, 0
1, 51720, Note_on_c, 2, 64, 59
1, 51732, Note_on_c, 2, 62, 0
1, 51852, Note_on_c, 2, 61, 52
1, 51855, Note_on_c, 1, 81, 79
1, 51877, Note_on_c, 2, 64, 0
1, 51975, Note_on_c, 2, 64, 69
1, 51977, Note_on_c, 2, 61, 0
1, 52045, Note_on_c, 1, 81, 0
1, 52087, Note_on_c, 2, 63, 105
1, 52107, Note_on_c, 2, 64, 0
1, 52197, Note_on_c, 2, 64, 77
1, 52220, Note_on_c, 2, 63, 0
1, 52322, Note_on_c, 2, 66, 88
1, 52345, Note_on_c, 2, 64, 0
1, 52435, Note_on_c, 2, 64, 81
1, 52482, Note_on_c, 2, 66, 0
1, 52555, Note_on_c, 2, 63, 99
1, 52562, Note_on_c, 1, 45, 96
1, 52587, Note_on_c, 2, 64, 0
1, 52637, Note_on_c, 1, 45, 0
1, 52677, Note_on_c, 2, 64, 49
1, 52702, Note_on_c, 2, 63, 0
1, 52802, Note_on_c, 2, 62, 55
1, 52817, Note_on_c, 1, 47, 106
1, 52817, Note_on_c, 2, 64, 0
1, 52890, Note_on_c, 1, 47, 0
1, 52922, Note_on_c, 2, 64, 49
1, 52942, Note_on_c, 2, 62, 0
1, 53047, Note_on_c, 2, 62, 39
1, 53052, Note_on_c, 1, 45, 100
1, 53057, Note_on_c, 2, 64, 0
1, 53110, Note_on_c, 1, 45, 0
1, 53167, Note_on_c, 2, 64, 46
1, 53177, Note_on_c, 2, 62, 0
1, 53282, Note_on_c, 1, 44, 94
1, 53292, Note_on_c, 2, 62, 40
1, 53300, Note_on_c, 2, 64, 0
1, 53352, Note_on_c, 1, 44, 0
1, 53407, Note_on_c, 2, 64, 48
1, 53422, Note_on_c, 2, 62, 0
1, 53522, Note_on_c, 1, 40, 84
1, 53522, Note_on_c, 2, 62, 40
1, 53537, Note_on_c, 2, 64, 0
1, 53585, Note_on_c, 1, 40, 0
1, 53637, Note_on_c, 2, 64, 48
1, 53657, Note_on_c, 2, 62, 0
1, 53762, Note_on_c, 1, 45, 100
1, 53777, Note_on_c, 2, 61, 37
1, 53805, Note_on_c, 2, 64, 0
1, 53915, Note_on_c, 1, 45, 0
1, 53962, Note_on_c, 2, 61, 0
1, 54232, Note_on_c, 1, 76, 52
1, 54247, Note_on_c, 2, 61, 43
1, 54362, Note_on_c, 2, 69, 40
1, 54372, Note_on_c, 2, 61, 0
1, 54472, Note_on_c, 2, 69, 0
1, 54472, Note_on_c, 2, 61, 49
1, 54585, Note_on_c, 2, 69, 64
1, 54595, Note_on_c, 2, 61, 0
1, 54700, Note_on_c, 1, 74, 55
1, 54702, Note_on_c, 2, 69, 0
1, 54712, Note_on_c, 2, 59, 59
1, 54722, Note_on_c, 1, 76, 0
1, 54807, Note_on_c, 2, 69, 58
1, 54832, Note_on_c, 2, 59, 0
1, 54940, Note_on_c, 2, 69, 0
1, 54950, Note_on_c, 2, 59, 51
1, 55065, Note_on_c, 2, 59, 0
1, 55065, Note_on_c, 2, 69, 36
1, 55165, Note_on_c, 2, 69, 0
1, 55175, Note_on_c, 1, 73, 53
1, 55180, Note_on_c, 2, 57, 51
1, 55202, Note_on_c, 1, 74, 0
1, 55312, Note_on_c, 2, 69, 54
1, 55350, Note_on_c, 2, 57, 0
1, 55437, Note_on_c, 2, 69, 0
1, 55437, Note_on_c, 2, 57, 51
1, 55517, Note_on_c, 1, 73, 0
1, 55522, Note_on_c, 2, 57, 0
1, 55547, Note_on_c, 2, 69, 64
1, 55615, Note_on_c, 2, 69, 0
1, 55667, Note_on_c, 2, 62, 66
1, 55687, Note_on_c, 1, 78, 59
1, 55785, Note_on_c, 2, 69, 52
1, 55902, Note_on_c, 2, 62, 0
1, 55902, Note_on_c, 2, 68, 44
1, 55922, Note_on_c, 2, 69, 0
1, 55937, Note_on_c, 1, 80, 66
1, 55947, Note_on_c, 1, 78, 0
1, 56025, Note_on_c, 1, 78, 54
1, 56025, Note_on_c, 2, 69, 47
1, 56057, Note_on_c, 2, 68, 0
1, 56060, Note_on_c, 1, 80, 0
1, 56105, Note_on_c, 1, 76, 54
1, 56117, Note_on_c, 1, 78, 0
1, 56152, Note_on_c, 2, 69, 0
1, 56162, Note_on_c, 2, 62, 55
1, 56195, Note_on_c, 1, 78, 79
1, 56222, Note_on_c, 1, 76, 0
1, 56267, Note_on_c, 1, 78, 0
1, 56282, Note_on_c, 2, 69, 40
1, 56337, Note_on_c, 2, 62, 0
1, 56412, Note_on_c, 2, 68, 33
1, 56417, Note_on_c, 2, 69, 0
1, 56432, Note_on_c, 1, 80, 69
1, 56467, Note_on_c, 1, 80, 0
1, 56532, Note_on_c, 2, 69, 48
1, 56565, Note_on_c, 2, 68, 0
1, 56627, Note_on_c, 2, 69, 0
1, 56667, Note_on_c, 1, 83, 73
1, 56677, Note_on_c, 2, 62, 57
1, 56775, Note_on_c, 2, 69, 44
1, 56802, Note_on_c, 2, 62, 0
1, 56895, Note_on_c, 2, 68, 37
1, 56902, Note_on_c, 1, 81, 62
1, 56902, Note_on_c, 2, 69, 0
1, 56917, Note_on_c, 1, 83, 0
1, 56960, Note_on_c, 1, 81, 0
1, 57017, Note_on_c, 2, 69, 54
1, 57037, Note_on_c, 2, 68, 0
1, 57132, Note_on_c, 1, 80, 74
1, 57137, Note_on_c, 2, 69, 0
1, 57150, Note_on_c, 2, 62, 57
1, 57175, Note_on_c, 1, 80, 0
1, 57262, Note_on_c, 2, 69, 48
1, 57300, Note_on_c, 2, 62, 0
1, 57377, Note_on_c, 1, 78, 67
1, 57377, Note_on_c, 2, 68, 39
1, 57400, Note_on_c, 2, 69, 0
1, 57420, Note_on_c, 1, 78, 0
1, 57507, Note_on_c, 2, 69, 49
1, 57537, Note_on_c, 2, 68, 0
1, 57602, Note_on_c, 1, 76, 66
1, 57627, Note_on_c, 2, 61, 55
1, 57650, Note_on_c, 2, 69, 0
1, 57660, Note_on_c, 1, 76, 0
1, 57732, Note_on_c, 2, 69, 56
1, 57847, Note_on_c, 2, 68, 43
1, 57852, Note_on_c, 2, 61, 0
1, 57857, Note_on_c, 2, 69, 0
1, 57962, Note_on_c, 2, 69, 61
1, 58005, Note_on_c, 2, 68, 0
1, 58065, Note_on_c, 2, 69, 0
1, 58072, Note_on_c, 1, 76, 99
1, 58092, Note_on_c, 2, 61, 89
1, 58197, Note_on_c, 2, 69, 68
1, 58230, Note_on_c, 2, 61, 0
1, 58315, Note_on_c, 2, 61, 89
1, 58322, Note_on_c, 2, 69, 0
1, 58420, Note_on_c, 2, 69, 62
1, 58447, Note_on_c, 2, 61, 0
1, 58542, Note_on_c, 2, 69, 0
1, 58550, Note_on_c, 2, 59, 86
1, 58557, Note_on_c, 1, 74, 83
1, 58572, Note_on_c, 1, 76, 0
1, 58657, Note_on_c, 2, 69, 64
1, 58685, Note_on_c, 2, 59, 0
1, 58785, Note_on_c, 2, 59, 84
1, 58792, Note_on_c, 2, 69, 0
1, 58907, Note_on_c, 2, 59, 0
1, 58907, Note_on_c, 2, 69, 51
1, 59022, Note_on_c, 2, 69, 0
1, 59035, Note_on_c, 2, 57, 79
1, 59037, Note_on_c, 1, 73, 83
1, 59067, Note_on_c, 1, 74, 0
1, 59150, Note_on_c, 2, 69, 57
1, 59170, Note_on_c, 2, 57, 0
1, 59277, Note_on_c, 2, 69, 0
1, 59277, Note_on_c, 2, 57, 79
1, 59397, Note_on_c, 2, 69, 60
1, 59422, Note_on_c, 2, 57, 0
1, 59440, Note_on_c, 2, 69, 0
1, 59507, Note_on_c, 1, 71, 84
1, 59517, Note_on_c, 1, 73, 0
1, 59522, Note_on_c, 2, 50, 78
1, 59642, Note_on_c, 2, 59, 78
1, 59650, Note_on_c, 2, 50, 0
1, 59770, Note_on_c, 2, 54, 66
1, 59795, Note_on_c, 2, 59, 0
1, 59885, Note_on_c, 2, 59, 79
1, 59887, Note_on_c, 1, 78, 102
1, 59917, Note_on_c, 1, 71, 0
1, 59920, Note_on_c, 2, 54, 0
1, 59992, Note_on_c, 2, 59, 0
1, 60007, Note_on_c, 1, 76, 88
1, 60012, Note_on_c, 2, 50, 73
1, 60045, Note_on_c, 1, 78, 0
1, 60117, Note_on_c, 2, 59, 77
1, 60127, Note_on_c, 1, 74, 83
1, 60142, Note_on_c, 1, 76, 0
1, 60235, Note_on_c, 2, 54, 69
1, 60242, Note_on_c, 1, 73, 94
1, 60247, Note_on_c, 2, 59, 0
1, 60252, Note_on_c, 2, 50, 0
1, 60257, Note_on_c, 1, 74, 0
1, 60332, Note_on_c, 2, 54, 0
1, 60352, Note_on_c, 1, 71, 75
1, 60352, Note_on_c, 2, 59, 66
1, 60387, Note_on_c, 1, 73, 0
1, 60440, Note_on_c, 2, 59, 0
1, 60482, Note_on_c, 1, 69, 94
1, 60487, Note_on_c, 2, 52, 61
1, 60502, Note_on_c, 1, 71, 0
1, 60612, Note_on_c, 2, 61, 73
1, 60727, Note_on_c, 2, 57, 59
1, 60730, Note_on_c, 2, 61, 0
1, 60770, Note_on_c, 2, 52, 0
1, 60835, Note_on_c, 2, 61, 69
1, 60847, Note_on_c, 1, 69, 0
1, 60867, Note_on_c, 2, 57, 0
1, 60947, Note_on_c, 1, 71, 92
1, 60957, Note_on_c, 2, 61, 0
1, 60962, Note_on_c, 2, 52, 55
1, 60997, Note_on_c, 1, 73, 105
1, 61005, Note_on_c, 1, 71, 0
1, 61045, Note_on_c, 1, 73, 0
1, 61045, Note_on_c, 1, 71, 73
1, 61067, Note_on_c, 2, 62, 42
1, 61077, Note_on_c, 1, 73, 108
1, 61092, Note_on_c, 1, 71, 0
1, 61130, Note_on_c, 1, 73, 0
1, 61130, Note_on_c, 1, 71, 84
1, 61190, Note_on_c, 1, 69, 86
1, 61197, Note_on_c, 2, 56, 33
1, 61202, Note_on_c, 1, 71, 0
1, 61212, Note_on_c, 2, 62, 0
1, 61255, Note_on_c, 2, 52, 0
1, 61297, Note_on_c, 1, 71, 75
1, 61307, Note_on_c, 2, 62, 44
1, 61317, Note_on_c, 1, 69, 0
1, 61317, Note_on_c, 2, 56, 0
1, 61360, Note_on_c, 2, 62, 0
1, 61432, Note_on_c, 1, 69, 83
1, 61432, Note_on_c, 2, 57, 37
1, 61460, Note_on_c, 1, 71, 0
1, 61495, Note_on_c, 1, 69, 0
1, 61547, Note_on_c, 2, 64, 53
1, 61667, Note_on_c, 2, 61, 44
1, 61687, Note_on_c, 2, 64, 0
1, 61702, Note_on_c, 2, 57, 0
1, 61770, Note_on_c, 2, 64, 51
1, 61780, Note_on_c, 2, 61, 0
1, 61800, Note_on_c, 2, 64, 0
1, 61907, Note_on_c, 1, 76, 56
1, 61922, Note_on_c, 2, 61, 44
1, 62032, Note_on_c, 2, 61, 0
1, 62050, Note_on_c, 2, 69, 39
1, 62137, Note_on_c, 2, 69, 0
1, 62147, Note_on_c, 2, 61, 37
1, 62257, Note_on_c, 2, 69, 54
1, 62275, Note_on_c, 2, 61, 0
1, 62357, Note_on_c, 2, 69, 0
1, 62390, Note_on_c, 2, 59, 46
1, 62392, Note_on_c, 1, 74, 55
1, 62412, Note_on_c, 1, 76, 0
1, 62507, Note_on_c, 2, 69, 37
1, 62532, Note_on_c, 2, 59, 0
1, 62637, Note_on_c, 2, 69, 0
1, 62652, Note_on_c, 2, 59, 30
1, 62757, Note_on_c, 2, 59, 0
1, 62757, Note_on_c, 2, 69, 39
1, 62862, Note_on_c, 2, 69, 0
1, 62877, Note_on_c, 1, 73, 65
1, 62882, Note_on_c, 2, 57, 47
1, 62902, Note_on_c, 1, 74, 0
1, 63010, Note_on_c, 2, 69, 39
1, 63035, Note_on_c, 2, 57, 0
1, 63117, Note_on_c, 2, 69, 0
1, 63122, Note_on_c, 2, 57, 45
1, 63222, Note_on_c, 2, 69, 51
1, 63230, Note_on_c, 2, 57, 0
1, 63282, Note_on_c, 2, 69, 0
1, 63302, Note_on_c, 1, 73, 0
1, 63355, Note_on_c, 1, 78, 51
1, 63355, Note_on_c, 2, 62, 55
1, 63482, Note_on_c, 2, 69, 49
1, 63575, Note_on_c, 2, 62, 0
1, 63590, Note_on_c, 1, 80, 52
1, 63607, Note_on_c, 2, 68, 34
1, 63612, Note_on_c, 1, 78, 0
1, 63627, Note_on_c, 2, 69, 0
1, 63660, Note_on_c, 1, 78, 66
1, 63697, Note_on_c, 1, 80, 0
1, 63722, Note_on_c, 2, 69, 53
1, 63735, Note_on_c, 1, 76, 55
1, 63750, Note_on_c, 1, 78, 0
1, 63752, Note_on_c, 2, 68, 0
1, 63842, Note_on_c, 1, 78, 37
1, 63847, Note_on_c, 2, 62, 55
1, 63852, Note_on_c, 2, 69, 0
1, 63875, Note_on_c, 1, 76, 0
1, 63957, Note_on_c, 2, 69, 42
1, 63990, Note_on_c, 2, 62, 0
1, 64082, Note_on_c, 1, 80, 61
1, 64082, Note_on_c, 2, 68, 36
1, 64107, Note_on_c, 1, 78, 0
1, 64110, Note_on_c, 2, 69, 0
1, 64140, Note_on_c, 1, 80, 0
1, 64192, Note_on_c, 2, 69, 51
1, 64225, Note_on_c, 2, 68, 0
1, 64325, Note_on_c, 1, 83, 70
1, 64335, Note_on_c, 2, 69, 0
1, 64335, Note_on_c, 2, 62, 51
1, 64432, Note_on_c, 2, 69, 42
1, 64460, Note_on_c, 2, 62, 0
1, 64562, Note_on_c, 1, 81, 53
1, 64565, Note_on_c, 2, 68, 42
1, 64567, Note_on_c, 1, 83, 0
1, 64590, Note_on_c, 2, 69, 0
1, 64630, Note_on_c, 1, 81, 0
1, 64687, Note_on_c, 2, 69, 54
1, 64705, Note_on_c, 2, 68, 0
1, 64800, Note_on_c, 1, 80, 74
1, 64802, Note_on_c, 2, 69, 0
1, 64810, Note_on_c, 2, 62, 53
1, 64837, Note_on_c, 1, 80, 0
1, 64907, Note_on_c, 2, 69, 42
1, 64927, Note_on_c, 2, 62, 0
1, 65032, Note_on_c, 2, 68, 37
1, 65042, Note_on_c, 1, 78, 62
1, 65062, Note_on_c, 2, 69, 0
1, 65080, Note_on_c, 1, 78, 0
1, 65157, Note_on_c, 2, 69, 42
1, 65200, Note_on_c, 2, 68, 0
1, 65280, Note_on_c, 1, 76, 66
1, 65280, Note_on_c, 2, 61, 44
1, 65305, Note_on_c, 2, 69, 0
1, 65335, Note_on_c, 1, 76, 0
1, 65395, Note_on_c, 2, 69, 62
1, 65515, Note_on_c, 2, 61, 0
1, 65527, Note_on_c, 2, 68, 49
1, 65537, Note_on_c, 2, 69, 0
1, 65642, Note_on_c, 2, 69, 58
1, 65682, Note_on_c, 2, 68, 0
1, 65747, Note_on_c, 1, 76, 97
1, 65757, Note_on_c, 2, 69, 0
1, 65757, Note_on_c, 2, 61, 88
1, 65862, Note_on_c, 2, 69, 68
1, 65890, Note_on_c, 2, 61, 0
1, 65992, Note_on_c, 2, 69, 0
1, 65992, Note_on_c, 2, 61, 86
1, 66100, Note_on_c, 2, 69, 64
1, 66127, Note_on_c, 2, 61, 0
1, 66230, Note_on_c, 1, 74, 90
1, 66230, Note_on_c, 2, 59, 81
1, 66232, Note_on_c, 2, 69, 0
1, 66250, Note_on_c, 1, 76, 0
1, 66345, Note_on_c, 2, 69, 64
1, 66362, Note_on_c, 2, 59, 0
1, 66470, Note_on_c, 2, 59, 79
1, 66472, Note_on_c, 2, 69, 0
1, 66582, Note_on_c, 2, 69, 55
1, 66602, Note_on_c, 2, 59, 0
1, 66707, Note_on_c, 2, 69, 0
1, 66710, Note_on_c, 1, 73, 79
1, 66712, Note_on_c, 2, 57, 77
1, 66732, Note_on_c, 1, 74, 0
1, 66830, Note_on_c, 2, 69, 62
1, 66847, Note_on_c, 2, 57, 0
1, 66957, Note_on_c, 2, 57, 75
1, 66962, Note_on_c, 2, 69, 0
1, 67065, Note_on_c, 2, 69, 57
1, 67105, Note_on_c, 2, 57, 0
1, 67145, Note_on_c, 2, 69, 0
1, 67175, Note_on_c, 2, 50, 77
1, 67207, Note_on_c, 1, 71, 88
1, 67215, Note_on_c, 1, 73, 0
1, 67307, Note_on_c, 2, 59, 70
1, 67432, Note_on_c, 2, 54, 59
1, 67462, Note_on_c, 2, 59, 0
1, 67477, Note_on_c, 2, 50, 0
1, 67557, Note_on_c, 2, 59, 68
1, 67565, Note_on_c, 1, 78, 97
1, 67595, Note_on_c, 1, 71, 0
1, 67642, Note_on_c, 2, 54, 0
1, 67690, Note_on_c, 2, 59, 0
1, 67692, Note_on_c, 1, 76, 99
1, 67697, Note_on_c, 2, 50, 73
1, 67725, Note_on_c, 1, 78, 0
1, 67802, Note_on_c, 1, 74, 86
1, 67802, Note_on_c, 2, 59, 81
1, 67822, Note_on_c, 1, 76, 0
1, 67927, Note_on_c, 1, 73, 88
1, 67937, Note_on_c, 2, 54, 62
1, 67942, Note_on_c, 1, 74, 0
1, 67945, Note_on_c, 2, 59, 0
1, 67952, Note_on_c, 2, 50, 0
1, 68037, Note_on_c, 1, 71, 81
1, 68052, Note_on_c, 2, 59, 66
1, 68072, Note_on_c, 1, 73, 0
1, 68105, Note_on_c, 2, 54, 0
1, 68175, Note_on_c, 2, 52, 59
1, 68185, Note_on_c, 1, 69, 92
1, 68192, Note_on_c, 2, 59, 0
1, 68197, Note_on_c, 1, 71, 0
1, 68290, Note_on_c, 2, 61, 59
1, 68407, Note_on_c, 2, 57, 39
1, 68437, Note_on_c, 2, 52, 0
1, 68437, Note_on_c, 2, 61, 0
1, 68522, Note_on_c, 2, 61, 53
1, 68567, Note_on_c, 2, 57, 0
1, 68595, Note_on_c, 1, 69, 0
1, 68637, Note_on_c, 1, 71, 100
1, 68650, Note_on_c, 2, 52, 66
1, 68652, Note_on_c, 2, 61, 0
1, 68687, Note_on_c, 1, 73, 97
1, 68695, Note_on_c, 1, 71, 0
1, 68730, Note_on_c, 1, 73, 0
1, 68730, Note_on_c, 1, 71, 95
1, 68765, Note_on_c, 2, 62, 60
1, 68772, Note_on_c, 1, 73, 93
1, 68777, Note_on_c, 1, 71, 0
1, 68820, Note_on_c, 1, 71, 91
1, 68825, Note_on_c, 1, 73, 0
1, 68872, Note_on_c, 1, 69, 89
1, 68887, Note_on_c, 2, 56, 55
1, 68890, Note_on_c, 1, 71, 0
1, 68915, Note_on_c, 2, 62, 0
1, 68987, Note_on_c, 1, 71, 91
1, 69005, Note_on_c, 1, 69, 0
1, 69012, Note_on_c, 2, 62, 59
1, 69022, Note_on_c, 2, 52, 0
1, 69030, Note_on_c, 2, 56, 0
1, 69072, Note_on_c, 2, 62, 0
1, 69127, Note_on_c, 1, 71, 0
1, 69132, Note_on_c, 1, 69, 98
1, 69135, Note_on_c, 2, 61, 57
1, 69150, Note_on_c, 2, 57, 57
1, 69257, Note_on_c, 1, 64, 73
1, 69272, Note_on_c, 1, 69, 0
1, 69325, Note_on_c, 2, 57, 0
1, 69332, Note_on_c, 2, 61, 0
1, 69377, Note_on_c, 1, 69, 82
1, 69407, Note_on_c, 1, 64, 0
1, 69490, Note_on_c, 1, 73, 86
1, 69555, Note_on_c, 1, 69, 0
1, 69622, Note_on_c, 1, 76, 97
1, 69640, Note_on_c, 1, 73, 0
1, 69735, Note_on_c, 1, 73, 84
1, 69775, Note_on_c, 1, 76, 0
1, 69852, Note_on_c, 1, 74, 75
1, 69872, Note_on_c, 2, 59, 77
1, 69872, Note_on_c, 2, 56, 77
1, 69877, Note_on_c, 2, 52, 77
1, 69900, Note_on_c, 1, 73, 0
1, 69967, Note_on_c, 1, 71, 73
1, 69985, Note_on_c, 2, 52, 0
1, 69985, Note_on_c, 2, 56, 0
1, 69985, Note_on_c, 2, 59, 0
1, 70040, Note_on_c, 1, 74, 0
1, 70087, Note_on_c, 1, 71, 0
1, 70090, Note_on_c, 1, 69, 92
1, 70115, Note_on_c, 2, 61, 69
1, 70115, Note_on_c, 2, 57, 69
1, 70197, Note_on_c, 1, 64, 77
1, 70237, Note_on_c, 1, 69, 0
1, 70280, Note_on_c, 2, 57, 0
1, 70285, Note_on_c, 2, 61, 0
1, 70330, Note_on_c, 1, 69, 86
1, 70332, Note_on_c, 1, 64, 0
1, 70442, Note_on_c, 1, 73, 97
1, 70475, Note_on_c, 1, 69, 0
1, 70567, Note_on_c, 1, 76, 97
1, 70592, Note_on_c, 1, 73, 0
1, 70690, Note_on_c, 1, 73, 90
1, 70720, Note_on_c, 1, 76, 0
1, 70807, Note_on_c, 1, 74, 75
1, 70807, Note_on_c, 2, 59, 77
1, 70815, Note_on_c, 2, 56, 77
1, 70822, Note_on_c, 2, 52, 77
1, 70840, Note_on_c, 1, 73, 0
1, 70910, Note_on_c, 2, 56, 0
1, 70917, Note_on_c, 2, 59, 0
1, 70917, Note_on_c, 2, 52, 0
1, 70922, Note_on_c, 1, 71, 80
1, 70962, Note_on_c, 1, 74, 0
1, 71060, Note_on_c, 1, 69, 95
1, 71065, Note_on_c, 2, 61, 57
1, 71065, Note_on_c, 2, 57, 57
1, 71070, Note_on_c, 1, 71, 0
1, 71150, Note_on_c, 1, 69, 0
1, 71192, Note_on_c, 2, 57, 0
1, 71192, Note_on_c, 2, 61, 0
1, 71530, Note_on_c, 1, 74, 94
1, 71530, Note_on_c, 1, 71, 86
1, 71530, Note_on_c, 1, 80, 108
1, 71542, Note_on_c, 2, 41, 86
1, 71545, Note_on_c, 2, 53, 86
1, 71627, Note_on_c, 1, 74, 0
1, 71647, Note_on_c, 1, 71, 0
1, 71647, Note_on_c, 1, 80, 0
1, 71697, Note_on_c, 2, 41, 0
1, 71700, Note_on_c, 2, 53, 0
1, 72039, Note_on_c, 1, 73, 126
1, 72039, Note_on_c, 1, 81, 126
1, 72039, Note_on_c, 1, 69, 126
1, 72039, Note_on_c, 2, 42, 118
1, 72039, Note_on_c, 2, 54, 118
1, 72371, Note_on_c, 1, 81, 0
1, 72374, Note_on_c, 1, 69, 0
1, 72379, Note_on_c, 1, 73, 0
1, 72384, Note_on_c, 2, 42, 0
1, 72407, Note_on_c, 2, 54, 0
1, 72960, Note_on_c, 1, 66, 69
1, 72960, Note_on_c, 1, 74, 69
1, 72962, Note_on_c, 2, 50, 83
1, 73122, Note_on_c, 1, 66, 0
1, 73142, Note_on_c, 1, 74, 0
1, 73200, Note_on_c, 1, 64, 44
1, 73200, Note_on_c, 1, 73, 60
1, 73240, Note_on_c, 1, 64, 0
1, 73253, Note_on_c, 1, 73, 0
1, 73417, Note_on_c, 1, 73, 66
1, 73425, Note_on_c, 1, 64, 66
1, 73480, Note_on_c, 1, 64, 0
1, 73505, Note_on_c, 1, 73, 0
1, 73655, Note_on_c, 1, 71, 57
1, 73665, Note_on_c, 1, 62, 57
1, 73720, Note_on_c, 1, 71, 0
1, 73727, Note_on_c, 1, 62, 0
1, 73900, Note_on_c, 1, 71, 60
1, 73900, Note_on_c, 1, 62, 43
1, 73902, Note_on_c, 2, 52, 57
1, 73912, Note_on_c, 2, 50, 0
1, 73975, Note_on_c, 1, 62, 0
1, 73980, Note_on_c, 1, 71, 0
1, 74160, Note_on_c, 1, 69, 46
1, 74160, Note_on_c, 1, 61, 44
1, 74202, Note_on_c, 1, 69, 0
1, 74212, Note_on_c, 1, 61, 0
1, 74392, Note_on_c, 1, 61, 55
1, 74402, Note_on_c, 1, 69, 53
1, 74465, Note_on_c, 1, 61, 0
1, 74480, Note_on_c, 1, 69, 0
1, 74637, Note_on_c, 1, 59, 42
1, 74637, Note_on_c, 1, 68, 42
1, 74695, Note_on_c, 1, 59, 0
1, 74707, Note_on_c, 1, 68, 0
1, 74897, Note_on_c, 1, 68, 66
1, 74897, Note_on_c, 1, 62, 70
1, 74900, Note_on_c, 2, 57, 53
1, 74902, Note_on_c, 1, 59, 64
1, 74915, Note_on_c, 2, 52, 0
1, 75377, Note_on_c, 2, 52, 59
1, 75400, Note_on_c, 1, 62, 0
1, 75405, Note_on_c, 1, 59, 0
1, 75435, Note_on_c, 1, 68, 0
1, 75442, Note_on_c, 2, 57, 0
1, 75832, Note_on_c, 1, 61, 42
1, 75832, Note_on_c, 1, 69, 59
1, 75852, Note_on_c, 2, 45, 42
1, 75882, Note_on_c, 2, 52, 0
1, 76150, Note_on_c, 2, 45, 0
1, 76172, Note_on_c, 1, 61, 0
1, 76212, Note_on_c, 1, 69, 0
1, 76800, Note_on_c, 1, 66, 102
1, 76800, Note_on_c, 1, 74, 108
1, 76800, Note_on_c, 1, 69, 86
1, 76800, Note_on_c, 2, 38, 97
1, 76800, Note_on_c, 2, 45, 97
1, 76800, Note_on_c, 2, 50, 97
1, 77108, Note_on_c, 1, 66, 0
1, 77112, Note_on_c, 1, 69, 0
1, 77130, Note_on_c, 1, 74, 0
1, 77265, Note_on_c, 2, 45, 0
1, 77265, Note_on_c, 2, 38, 0
1, 77270, Note_on_c, 2, 50, 0
1, 77737, Note_on_c, 1, 79, 108
1, 77760, Note_on_c, 2, 66, 53
1, 77760, Note_on_c, 2, 62, 53
1, 77850, Note_on_c, 1, 78, 86
1, 77887, Note_on_c, 1, 79, 0
1, 77962, Note_on_c, 1, 76, 69
1, 77982, Note_on_c, 1, 78, 0
1, 78075, Note_on_c, 1, 78, 72
1, 78115, Note_on_c, 1, 76, 0
1, 78212, Note_on_c, 1, 78, 0
1, 78212, Note_on_c, 1, 81, 108
1, 78212, Note_on_c, 2, 67, 68
1, 78217, Note_on_c, 2, 62, 0
1, 78220, Note_on_c, 2, 66, 0
1, 78220, Note_on_c, 2, 64, 68
1, 78320, Note_on_c, 1, 79, 92
1, 78362, Note_on_c, 1, 81, 0
1, 78450, Note_on_c, 1, 78, 88
1, 78495, Note_on_c, 1, 79, 0
1, 78580, Note_on_c, 1, 79, 75
1, 78602, Note_on_c, 1, 78, 0
1, 78707, Note_on_c, 2, 69, 84
1, 78712, Note_on_c, 2, 66, 84
1, 78717, Note_on_c, 1, 81, 112
1, 78737, Note_on_c, 1, 79, 0
1, 78737, Note_on_c, 2, 67, 0
1, 78742, Note_on_c, 2, 64, 0
1, 78832, Note_on_c, 1, 81, 0
1, 78920, Note_on_c, 2, 66, 0
1, 78937, Note_on_c, 2, 69, 0
1, 79682, Note_on_c, 1, 81, 52
1, 79740, Note_on_c, 1, 81, 0
1, 79925, Note_on_c, 1, 83, 54
1, 79980, Note_on_c, 1, 83, 0
1, 80167, Note_on_c, 1, 85, 56
1, 80225, Note_on_c, 1, 85, 0
1, 80405, Note_on_c, 1, 86, 64
1, 80452, Note_on_c, 1, 86, 0
1, 80647, Note_on_c, 1, 81, 54
1, 80655, Note_on_c, 2, 54, 31
1, 80887, Note_on_c, 2, 62, 39
1, 80925, Note_on_c, 2, 54, 0
1, 81100, Note_on_c, 2, 62, 0
1, 81117, Note_on_c, 2, 50, 28
1, 81127, Note_on_c, 1, 78, 34
1, 81170, Note_on_c, 1, 81, 0
1, 81305, Note_on_c, 1, 78, 0
1, 81367, Note_on_c, 2, 62, 40
1, 81382, Note_on_c, 2, 50, 0
1, 81492, Note_on_c, 2, 62, 0
1, 81602, Note_on_c, 1, 81, 55
1, 81612, Note_on_c, 2, 52, 39
1, 81722, Note_on_c, 1, 79, 39
1, 81770, Note_on_c, 1, 81, 0
1, 81847, Note_on_c, 1, 78, 47
1, 81857, Note_on_c, 2, 62, 44
1, 81880, Note_on_c, 1, 79, 0
1, 81952, Note_on_c, 1, 79, 60
1, 81977, Note_on_c, 1, 78, 0
1, 82077, Note_on_c, 2, 57, 35
1, 82082, Note_on_c, 2, 52, 0
1, 82087, Note_on_c, 1, 81, 59
1, 82102, Note_on_c, 2, 62, 0
1, 82122, Note_on_c, 1, 79, 0
1, 82312, Note_on_c, 2, 61, 40
1, 82315, Note_on_c, 1, 79, 66
1, 82332, Note_on_c, 1, 81, 0
1, 82332, Note_on_c, 2, 57, 0
1, 82357, Note_on_c, 1, 79, 0
1, 82387, Note_on_c, 2, 61, 0
1, 82552, Note_on_c, 2, 50, 48
1, 82557, Note_on_c, 2, 62, 48
1, 82562, Note_on_c, 1, 77, 63
1, 82772, Note_on_c, 2, 62, 0
1, 82777, Note_on_c, 2, 50, 0
1, 82817, Note_on_c, 1, 78, 59
1, 82847, Note_on_c, 1, 77, 0
1, 82885, Note_on_c, 1, 78, 0
1, 83517, Note_on_c, 1, 79, 102
1, 83537, Note_on_c, 2, 66, 69
1, 83542, Note_on_c, 2, 62, 69
1, 83632, Note_on_c, 1, 78, 88
1, 83650, Note_on_c, 1, 79, 0
1, 83757, Note_on_c, 1, 76, 59
1, 83772, Note_on_c, 1, 78, 0
1, 83872, Note_on_c, 1, 78, 90
1, 83912, Note_on_c, 1, 76, 0
1, 83997, Note_on_c, 1, 78, 0
1, 83997, Note_on_c, 1, 81, 112
1, 84012, Note_on_c, 2, 64, 80
1, 84012, Note_on_c, 2, 67, 80
1, 84030, Note_on_c, 2, 62, 0
1, 84047, Note_on_c, 2, 66, 0
1, 84122, Note_on_c, 1, 79, 88
1, 84162, Note_on_c, 1, 81, 0
1, 84242, Note_on_c, 1, 78, 91
1, 84267, Note_on_c, 1, 79, 0
1, 84347, Note_on_c, 1, 79, 102
1, 84365, Note_on_c, 1, 78, 0
1, 84482, Note_on_c, 1, 81, 112
1, 84482, Note_on_c, 2, 66, 91
1, 84482, Note_on_c, 2, 69, 91
1, 84497, Note_on_c, 2, 64, 0
1, 84502, Note_on_c, 2, 67, 0
1, 84510, Note_on_c, 1, 79, 0
1, 84567, Note_on_c, 1, 81, 0
1, 84712, Note_on_c, 2, 66, 0
1, 84732, Note_on_c, 2, 69, 0
1, 85427, Note_on_c, 1, 81, 48
1, 85472, Note_on_c, 1, 81, 0
1, 85667, Note_on_c, 1, 83, 47
1, 85712, Note_on_c, 1, 83, 0
1, 85902, Note_on_c, 1, 85, 64
1, 85955, Note_on_c, 1, 85, 0
1, 86147, Note_on_c, 1, 86, 68
1, 86192, Note_on_c, 1, 86, 0
1, 86382, Note_on_c, 2, 54, 40
1, 86397, Note_on_c, 1, 81, 64
1, 86642, Note_on_c, 2, 62, 41
1, 86747, Note_on_c, 2, 54, 0
1, 86850, Note_on_c, 2, 62, 0
1, 86867, Note_on_c, 1, 78, 46
1, 86875, Note_on_c, 2, 50, 37
1, 86902, Note_on_c, 1, 81, 0
1, 87087, Note_on_c, 1, 78, 0
1, 87130, Note_on_c, 2, 62, 44
1, 87137, Note_on_c, 2, 50, 0
1, 87280, Note_on_c, 2, 62, 0
1, 87362, Note_on_c, 1, 81, 55
1, 87382, Note_on_c, 2, 52, 43
1, 87482, Note_on_c, 1, 79, 62
1, 87502, Note_on_c, 1, 81, 0
1, 87587, Note_on_c, 1, 78, 55
1, 87607, Note_on_c, 1, 79, 0
1, 87612, Note_on_c, 2, 62, 41
1, 87690, Note_on_c, 1, 79, 57
1, 87707, Note_on_c, 1, 78, 0
1, 87817, Note_on_c, 1, 81, 78
1, 87835, Note_on_c, 2, 52, 0
1, 87835, Note_on_c, 2, 57, 42
1, 87842, Note_on_c, 1, 79, 0
1, 87842, Note_on_c, 2, 62, 0
1, 87932, Note_on_c, 1, 79, 48
1, 87982, Note_on_c, 1, 81, 0
1, 88045, Note_on_c, 1, 78, 54
1, 88067, Note_on_c, 2, 61, 60
1, 88095, Note_on_c, 1, 79, 0
1, 88097, Note_on_c, 2, 57, 0
1, 88160, Note_on_c, 1, 76, 65
1, 88177, Note_on_c, 1, 78, 0
1, 88265, Note_on_c, 1, 76, 0
1, 88290, Note_on_c, 2, 61, 0
1, 88307, Note_on_c, 1, 74, 92
1, 88307, Note_on_c, 2, 62, 84
1, 88405, Note_on_c, 1, 74, 0
1, 88560, Note_on_c, 2, 66, 36
1, 88612, Note_on_c, 2, 62, 0
1, 88785, Note_on_c, 2, 62, 38
1, 88792, Note_on_c, 1, 69, 94
1, 88832, Note_on_c, 2, 66, 0
1, 88910, Note_on_c, 1, 69, 0
1, 89062, Note_on_c, 2, 66, 30
1, 89140, Note_on_c, 2, 62, 0
1, 89287, Note_on_c, 1, 78, 108
1, 89292, Note_on_c, 2, 62, 40
1, 89355, Note_on_c, 2, 66, 0
1, 89360, Note_on_c, 1, 79, 83
1, 89365, Note_on_c, 1, 78, 0
1, 89412, Note_on_c, 1, 78, 74
1, 89417, Note_on_c, 1, 79, 0
1, 89465, Note_on_c, 1, 79, 77
1, 89470, Note_on_c, 1, 78, 0
1, 89510, Note_on_c, 1, 78, 88
1, 89517, Note_on_c, 1, 79, 0
1, 89537, Note_on_c, 2, 66, 30
1, 89552, Note_on_c, 1, 79, 83
1, 89562, Note_on_c, 1, 78, 0
1, 89595, Note_on_c, 1, 78, 92
1, 89595, Note_on_c, 2, 62, 0
1, 89602, Note_on_c, 1, 79, 0
1, 89642, Note_on_c, 1, 79, 79
1, 89647, Note_on_c, 1, 78, 0
1, 89687, Note_on_c, 1, 79, 0
1, 89687, Note_on_c, 1, 78, 90
1, 89737, Note_on_c, 1, 79, 90
1, 89742, Note_on_c, 1, 78, 0
1, 89762, Note_on_c, 2, 62, 35
1, 89777, Note_on_c, 1, 79, 0
1, 89782, Note_on_c, 1, 78, 90
1, 89810, Note_on_c, 2, 66, 0
1, 89902, Note_on_c, 1, 79, 84
1, 89910, Note_on_c, 1, 78, 0
1, 89955, Note_on_c, 1, 78, 99
1, 89960, Note_on_c, 1, 79, 0
1, 89982, Note_on_c, 2, 66, 33
1, 90012, Note_on_c, 1, 76, 90
1, 90022, Note_on_c, 1, 78, 0
1, 90100, Note_on_c, 1, 76, 0
1, 90142, Note_on_c, 1, 74, 83
1, 90190, Note_on_c, 1, 74, 0
1, 90237, Note_on_c, 2, 62, 0
1, 90237, Note_on_c, 2, 64, 42
1, 90267, Note_on_c, 1, 73, 102
1, 90287, Note_on_c, 2, 66, 0
1, 90317, Note_on_c, 1, 73, 0
1, 90492, Note_on_c, 2, 67, 41
1, 90530, Note_on_c, 2, 64, 0
1, 90717, Note_on_c, 1, 69, 93
1, 90737, Note_on_c, 2, 64, 38
1, 90767, Note_on_c, 1, 69, 0
1, 90767, Note_on_c, 2, 67, 0
1, 90972, Note_on_c, 2, 67, 42
1, 91005, Note_on_c, 2, 64, 0
1, 91202, Note_on_c, 2, 64, 102
1, 91207, Note_on_c, 2, 67, 0
1, 91222, Note_on_c, 1, 76, 111
1, 91322, Note_on_c, 2, 66, 60
1, 91370, Note_on_c, 2, 64, 0
1, 91457, Note_on_c, 2, 67, 64
1, 91480, Note_on_c, 2, 66, 0
1, 91557, Note_on_c, 2, 66, 68
1, 91612, Note_on_c, 2, 67, 0
1, 91667, Note_on_c, 1, 76, 0
1, 91687, Note_on_c, 2, 64, 71
1, 91740, Note_on_c, 2, 66, 0
1, 91807, Note_on_c, 2, 62, 75
1, 91822, Note_on_c, 2, 64, 0
1, 91925, Note_on_c, 2, 61, 77
1, 91932, Note_on_c, 2, 62, 0
1, 92057, Note_on_c, 2, 59, 82
1, 92090, Note_on_c, 2, 61, 0
1, 92162, Note_on_c, 1, 76, 102
1, 92182, Note_on_c, 2, 57, 86
1, 92192, Note_on_c, 2, 59, 0
1, 92202, Note_on_c, 1, 76, 0
1, 92407, Note_on_c, 2, 61, 42
1, 92477, Note_on_c, 2, 57, 0
1, 92632, Note_on_c, 1, 69, 94
1, 92642, Note_on_c, 2, 57, 37
1, 92657, Note_on_c, 2, 61, 0
1, 92710, Note_on_c, 1, 69, 0
1, 92897, Note_on_c, 2, 61, 35
1, 92967, Note_on_c, 2, 57, 0
1, 93115, Note_on_c, 2, 57, 46
1, 93122, Note_on_c, 2, 61, 0
1, 93125, Note_on_c, 1, 79, 102
1, 93190, Note_on_c, 1, 81, 90
1, 93200, Note_on_c, 1, 79, 0
1, 93242, Note_on_c, 1, 79, 78
1, 93252, Note_on_c, 1, 81, 0
1, 93297, Note_on_c, 1, 79, 0
1, 93297, Note_on_c, 1, 81, 86
1, 93342, Note_on_c, 1, 81, 0
1, 93342, Note_on_c, 1, 79, 72
1, 93355, Note_on_c, 2, 61, 42
1, 93387, Note_on_c, 1, 79, 0
1, 93387, Note_on_c, 1, 81, 86
1, 93430, Note_on_c, 1, 81, 0
1, 93435, Note_on_c, 1, 79, 78
1, 93435, Note_on_c, 2, 57, 0
1, 93482, Note_on_c, 1, 79, 0
1, 93482, Note_on_c, 1, 81, 92
1, 93527, Note_on_c, 1, 81, 0
1, 93527, Note_on_c, 1, 79, 75
1, 93570, Note_on_c, 1, 81, 97
1, 93572, Note_on_c, 1, 79, 0
1, 93590, Note_on_c, 2, 55, 55
1, 93600, Note_on_c, 2, 61, 0
1, 93612, Note_on_c, 1, 81, 0
1, 93615, Note_on_c, 1, 79, 77
1, 93665, Note_on_c, 1, 79, 0
1, 93665, Note_on_c, 1, 81, 102
1, 93702, Note_on_c, 1, 81, 0
1, 93707, Note_on_c, 1, 79, 83
1, 93745, Note_on_c, 1, 81, 102
1, 93752, Note_on_c, 1, 79, 0
1, 93790, Note_on_c, 1, 79, 97
1, 93795, Note_on_c, 1, 81, 0
1, 93822, Note_on_c, 2, 61, 41
1, 93842, Note_on_c, 1, 79, 0
1, 93852, Note_on_c, 1, 78, 105
1, 93872, Note_on_c, 2, 55, 0
1, 93912, Note_on_c, 1, 78, 0
1, 93962, Note_on_c, 1, 76, 86
1, 94030, Note_on_c, 1, 76, 0
1, 94097, Note_on_c, 2, 54, 64
1, 94107, Note_on_c, 1, 74, 102
1, 94112, Note_on_c, 2, 61, 0
1, 94172, Note_on_c, 1, 74, 0
1, 94327, Note_on_c, 2, 62, 53
1, 94355, Note_on_c, 2, 54, 0
1, 94567, Note_on_c, 2, 54, 40
1, 94577, Note_on_c, 1, 69, 97
1, 94587, Note_on_c, 2, 62, 0
1, 94652, Note_on_c, 1, 69, 0
1, 94810, Note_on_c, 2, 62, 49
1, 94855, Note_on_c, 2, 54, 0
1, 94917, Note_on_c, 2, 62, 0
1, 95032, Note_on_c, 1, 78, 102
1, 95062, Note_on_c, 2, 54, 119
1, 95177, Note_on_c, 2, 50, 62
1, 95200, Note_on_c, 2, 54, 0
1, 95292, Note_on_c, 2, 52, 68
1, 95312, Note_on_c, 2, 50, 0
1, 95392, Note_on_c, 2, 54, 73
1, 95427, Note_on_c, 2, 52, 0
1, 95505, Note_on_c, 1, 78, 0
1, 95522, Note_on_c, 2, 55, 79
1, 95527, Note_on_c, 2, 54, 0
1, 95632, Note_on_c, 2, 57, 84
1, 95640, Note_on_c, 2, 55, 0
1, 95752, Note_on_c, 2, 59, 91
1, 95767, Note_on_c, 2, 57, 0
1, 95867, Note_on_c, 2, 61, 97
1, 95887, Note_on_c, 2, 59, 0
1, 95950, Note_on_c, 2, 61, 0
1, 96007, Note_on_c, 1, 78, 124
1, 96007, Note_on_c, 2, 62, 104
1, 96127, Note_on_c, 1, 74, 84
1, 96160, Note_on_c, 1, 78, 0
1, 96247, Note_on_c, 1, 76, 92
1, 96265, Note_on_c, 1, 74, 0
1, 96377, Note_on_c, 1, 78, 97
1, 96402, Note_on_c, 1, 76, 0
1, 96477, Note_on_c, 2, 62, 0
1, 96482, Note_on_c, 1, 78, 0
1, 96490, Note_on_c, 1, 79, 92
1, 96612, Note_on_c, 1, 81, 92
1, 96627, Note_on_c, 1, 79, 0
1, 96717, Note_on_c, 1, 83, 102
1, 96742, Note_on_c, 1, 81, 0
1, 96832, Note_on_c, 1, 85, 102
1, 96860, Note_on_c, 1, 83, 0
1, 96965, Note_on_c, 1, 86, 119
1, 96982, Note_on_c, 1, 85, 0
1, 97082, Note_on_c, 1, 85, 78
1, 97137, Note_on_c, 1, 86, 0
1, 97197, Note_on_c, 1, 83, 70
1, 97202, Note_on_c, 2, 57, 95
1, 97210, Note_on_c, 2, 54, 95
1, 97247, Note_on_c, 2, 57, 0
1, 97250, Note_on_c, 2, 54, 0
1, 97282, Note_on_c, 1, 85, 0
1, 97307, Note_on_c, 1, 81, 97
1, 97342, Note_on_c, 1, 83, 0
1, 97440, Note_on_c, 1, 79, 77
1, 97442, Note_on_c, 2, 57, 95
1, 97460, Note_on_c, 1, 81, 0
1, 97460, Note_on_c, 2, 54, 95
1, 97485, Note_on_c, 2, 57, 0
1, 97495, Note_on_c, 2, 54, 0
1, 97552, Note_on_c, 1, 78, 97
1, 97567, Note_on_c, 1, 79, 0
1, 97667, Note_on_c, 1, 76, 90
1, 97687, Note_on_c, 2, 57, 102
1, 97695, Note_on_c, 2, 54, 102
1, 97702, Note_on_c, 1, 78, 0
1, 97732, Note_on_c, 2, 54, 0
1, 97732, Note_on_c, 2, 57, 0
1, 97775, Note_on_c, 1, 74, 62
1, 97795, Note_on_c, 1, 76, 0
1, 97905, Note_on_c, 1, 76, 119
1, 97927, Note_on_c, 1, 74, 0
1, 97927, Note_on_c, 2, 59, 111
1, 97937, Note_on_c, 2, 55, 111
1, 98000, Note_on_c, 2, 59, 0
1, 98010, Note_on_c, 2, 55, 0
1, 98020, Note_on_c, 1, 78, 102
1, 98052, Note_on_c, 1, 76, 0
1, 98142, Note_on_c, 1, 76, 67
1, 98177, Note_on_c, 1, 78, 0
1, 98262, Note_on_c, 1, 75, 102
1, 98282, Note_on_c, 1, 76, 0
1, 98392, Note_on_c, 1, 76, 86
1, 98400, Note_on_c, 1, 75, 0
1, 98510, Note_on_c, 1, 78, 73
1, 98542, Note_on_c, 1, 76, 0
1, 98620, Note_on_c, 1, 79, 86
1, 98642, Note_on_c, 1, 78, 0
1, 98735, Note_on_c, 1, 81, 94
1, 98757, Note_on_c, 1, 79, 0
1, 98870, Note_on_c, 1, 83, 115
1, 98892, Note_on_c, 1, 81, 0
1, 98977, Note_on_c, 1, 81, 83
1, 99032, Note_on_c, 1, 83, 0
1, 99090, Note_on_c, 1, 79, 90
1, 99115, Note_on_c, 2, 59, 97
1, 99122, Note_on_c, 2, 55, 81
1, 99142, Note_on_c, 1, 81, 0
1, 99155, Note_on_c, 2, 59, 0
1, 99175, Note_on_c, 2, 55, 0
1, 99210, Note_on_c, 1, 78, 108
1, 99247, Note_on_c, 1, 79, 0
1, 99330, Note_on_c, 1, 76, 84
1, 99345, Note_on_c, 1, 78, 0
1, 99345, Note_on_c, 2, 59, 97
1, 99347, Note_on_c, 2, 55, 69
1, 99387, Note_on_c, 2, 59, 0
1, 99397, Note_on_c, 2, 55, 0
1, 99450, Note_on_c, 1, 74, 86
1, 99470, Note_on_c, 1, 76, 0
1, 99577, Note_on_c, 2, 59, 99
1, 99577, Note_on_c, 2, 56, 108
1, 99585, Note_on_c, 1, 73, 92
1, 99622, Note_on_c, 2, 56, 0
1, 99630, Note_on_c, 2, 59, 0
1, 99637, Note_on_c, 1, 74, 0
1, 99695, Note_on_c, 1, 71, 75
1, 99717, Note_on_c, 1, 73, 0
1, 99820, Note_on_c, 2, 57, 88
1, 99840, Note_on_c, 1, 73, 119
1, 99867, Note_on_c, 2, 57, 0
1, 99880, Note_on_c, 1, 71, 0
1, 99940, Note_on_c, 1, 74, 81
1, 99997, Note_on_c, 1, 73, 0
1, 100072, Note_on_c, 2, 55, 102
1, 100077, Note_on_c, 1, 73, 75
1, 100120, Note_on_c, 1, 74, 0
1, 100122, Note_on_c, 2, 55, 0
1, 100177, Note_on_c, 1, 69, 59
1, 100222, Note_on_c, 1, 73, 0
1, 100310, Note_on_c, 2, 54, 115
1, 100327, Note_on_c, 1, 74, 108
1, 100337, Note_on_c, 1, 69, 0
1, 100345, Note_on_c, 2, 54, 0
1, 100415, Note_on_c, 1, 74, 0
1, 100557, Note_on_c, 2, 50, 86
1, 100607, Note_on_c, 2, 50, 0
1, 100802, Note_on_c, 2, 49, 99
1, 100812, Note_on_c, 1, 79, 108
1, 100867, Note_on_c, 2, 49, 0
1, 100937, Note_on_c, 1, 81, 86
1, 100960, Note_on_c, 1, 79, 0
1, 101052, Note_on_c, 2, 45, 73
1, 101065, Note_on_c, 1, 79, 62
1, 101105, Note_on_c, 1, 81, 0
1, 101120, Note_on_c, 2, 45, 0
1, 101170, Note_on_c, 1, 76, 77
1, 101192, Note_on_c, 1, 79, 0
1, 101292, Note_on_c, 2, 50, 108
1, 101297, Note_on_c, 1, 79, 105
1, 101327, Note_on_c, 1, 76, 0
1, 101335, Note_on_c, 2, 50, 0
1, 101415, Note_on_c, 1, 78, 88
1, 101450, Note_on_c, 1, 79, 0
1, 101527, Note_on_c, 1, 76, 64
1, 101537, Note_on_c, 2, 54, 88
1, 101542, Note_on_c, 1, 78, 0
1, 101582, Note_on_c, 2, 54, 0
1, 101640, Note_on_c, 1, 74, 66
1, 101657, Note_on_c, 1, 76, 0
1, 101770, Note_on_c, 1, 73, 119
1, 101780, Note_on_c, 2, 57, 108
1, 101787, Note_on_c, 1, 74, 0
1, 101840, Note_on_c, 2, 57, 0
1, 101882, Note_on_c, 1, 74, 86
1, 101917, Note_on_c, 1, 73, 0
1, 101997, Note_on_c, 1, 73, 65
1, 102027, Note_on_c, 2, 55, 86
1, 102030, Note_on_c, 1, 74, 0
1, 102085, Note_on_c, 2, 55, 0
1, 102110, Note_on_c, 1, 69, 74
1, 102155, Note_on_c, 1, 73, 0
1, 102245, Note_on_c, 1, 74, 108
1, 102247, Note_on_c, 2, 54, 108
1, 102257, Note_on_c, 1, 69, 0
1, 102297, Note_on_c, 2, 54, 0
1, 102350, Note_on_c, 1, 74, 0
1, 102492, Note_on_c, 2, 50, 79
1, 102540, Note_on_c, 2, 50, 0
1, 102720, Note_on_c, 1, 79, 99
1, 102745, Note_on_c, 2, 49, 119
1, 102805, Note_on_c, 2, 49, 0
1, 102835, Note_on_c, 1, 81, 83
1, 102862, Note_on_c, 1, 79, 0
1, 102950, Note_on_c, 1, 79, 66
1, 102972, Note_on_c, 2, 45, 74
1, 102987, Note_on_c, 1, 81, 0
1, 103045, Note_on_c, 2, 45, 0
1, 103067, Note_on_c, 1, 76, 70
1, 103097, Note_on_c, 1, 79, 0
1, 103192, Note_on_c, 2, 50, 90
1, 103212, Note_on_c, 1, 79, 97
1, 103232, Note_on_c, 1, 76, 0
1, 103245, Note_on_c, 2, 50, 0
1, 103327, Note_on_c, 1, 78, 90
1, 103380, Note_on_c, 1, 79, 0
1, 103442, Note_on_c, 2, 54, 119
1, 103445, Note_on_c, 1, 76, 72
1, 103460, Note_on_c, 1, 78, 0
1, 103480, Note_on_c, 2, 54, 0
1, 103552, Note_on_c, 1, 74, 73
1, 103562, Note_on_c, 1, 76, 0
1, 103682, Note_on_c, 1, 73, 119
1, 103687, Note_on_c, 2, 57, 75
1, 103687, Note_on_c, 2, 52, 75
1, 103690, Note_on_c, 2, 45, 75
1, 103702, Note_on_c, 1, 74, 0
1, 103797, Note_on_c, 1, 76, 97
1, 103822, Note_on_c, 1, 73, 0
1, 103920, Note_on_c, 1, 73, 84
1, 103962, Note_on_c, 2, 45, 0
1, 103965, Note_on_c, 2, 52, 0
1, 103985, Note_on_c, 2, 57, 0
1, 104017, Note_on_c, 1, 69, 66
1, 104037, Note_on_c, 1, 76, 0
1, 104055, Note_on_c, 1, 73, 0
1, 104155, Note_on_c, 1, 78, 119
1, 104162, Note_on_c, 1, 69, 0
1, 104172, Note_on_c, 2, 50, 97
1, 104177, Note_on_c, 2, 57, 97
1, 104177, Note_on_c, 2, 54, 97
1, 104255, Note_on_c, 1, 81, 84
1, 104287, Note_on_c, 1, 78, 0
1, 104395, Note_on_c, 1, 78, 84
1, 104425, Note_on_c, 2, 50, 0
1, 104432, Note_on_c, 2, 54, 0
1, 104450, Note_on_c, 2, 57, 0
1, 104482, Note_on_c, 1, 81, 0
1, 104497, Note_on_c, 1, 74, 69
1, 104522, Note_on_c, 1, 78, 0
1, 104605, Note_on_c, 1, 74, 0
1, 104617, Note_on_c, 1, 73, 108
1, 104635, Note_on_c, 2, 57, 71
1, 104637, Note_on_c, 2, 52, 71
1, 104637, Note_on_c, 2, 45, 71
1, 104730, Note_on_c, 1, 76, 83
1, 104770, Note_on_c, 1, 73, 0
1, 104877, Note_on_c, 1, 73, 52
1, 104907, Note_on_c, 2, 45, 0
1, 104912, Note_on_c, 2, 52, 0
1, 104922, Note_on_c, 2, 57, 0
1, 104982, Note_on_c, 1, 69, 72
1, 104995, Note_on_c, 1, 76, 0
1, 104997, Note_on_c, 1, 73, 0
1, 105102, Note_on_c, 2, 57, 97
1, 105102, Note_on_c, 2, 54, 97
1, 105102, Note_on_c, 2, 50, 97
1, 105112, Note_on_c, 1, 69, 0
1, 105112, Note_on_c, 1, 78, 119
1, 105227, Note_on_c, 1, 81, 79
1, 105265, Note_on_c, 1, 78, 0
1, 105352, Note_on_c, 1, 78, 83
1, 105415, Note_on_c, 2, 50, 0
1, 105435, Note_on_c, 2, 54, 0
1, 105450, Note_on_c, 2, 57, 0
1, 105465, Note_on_c, 1, 74, 83
1, 105467, Note_on_c, 1, 81, 0
1, 105487, Note_on_c, 1, 78, 0
1, 105560, Note_on_c, 1, 74, 0
1, 105587, Note_on_c, 1, 76, 108
1, 105595, Note_on_c, 1, 73, 86
1, 105627, Note_on_c, 1, 73, 0
1, 105630, Note_on_c, 1, 76, 0
1, 105872, Note_on_c, 1, 81, 88
1, 105872, Note_on_c, 1, 76, 102
1, 105872, Note_on_c, 1, 73, 92
1, 105872, Note_on_c, 2, 52, 97
1, 105872, Note_on_c, 2, 45, 83
1, 105872, Note_on_c, 2, 49, 99
1, 105872, Note_on_c, 2, 57, 86
1, 105902, Note_on_c, 1, 73, 0
1, 105902, Note_on_c, 1, 76, 0
1, 105910, Note_on_c, 1, 81, 0
1, 105945, Note_on_c, 2, 45, 0
1, 105950, Note_on_c, 2, 52, 0
1, 105960, Note_on_c, 2, 49, 0
1, 105960, Note_on_c, 2, 57, 0
1, 106139, Note_on_c, 1, 81, 97
1, 106139, Note_on_c, 1, 76, 108
1, 106139, Note_on_c, 1, 73, 105
1, 106139, Note_on_c, 2, 49, 83
1, 106139, Note_on_c, 2, 45, 75
1, 106139, Note_on_c, 2, 52, 83
1, 106139, Note_on_c, 2, 57, 83
1, 106162, Note_on_c, 1, 73, 0
1, 106162, Note_on_c, 1, 76, 0
1, 106174, Note_on_c, 1, 81, 0
1, 106207, Note_on_c, 2, 45, 0
1, 106212, Note_on_c, 2, 52, 0
1, 106217, Note_on_c, 2, 49, 0
1, 106222, Note_on_c, 2, 57, 0
1, 106406, Note_on_c, 1, 81, 94
1, 106406, Note_on_c, 1, 73, 97
1, 106406, Note_on_c, 1, 76, 102
1, 106406, Note_on_c, 2, 57, 115
1, 106406, Note_on_c, 2, 49, 115
1, 106406, Note_on_c, 2, 45, 115
1, 106406, Note_on_c, 2, 52, 115
1, 106431, Note_on_c, 1, 76, 0
1, 106431, Note_on_c, 1, 73, 0
1, 106436, Note_on_c, 1, 81, 0
1, 106469, Note_on_c, 2, 45, 0
1, 106469, Note_on_c, 2, 49, 0
1, 106469, Note_on_c, 2, 57, 0
1, 106474, Note_on_c, 2, 52, 0
1, 106682, Note_on_c, 1, 73, 105
1, 106682, Note_on_c, 1, 81, 102
1, 106682, Note_on_c, 1, 76, 112
1, 106682, Note_on_c, 2, 45, 124
1, 106682, Note_on_c, 2, 51, 124
1, 106682, Note_on_c, 2, 49, 124
1, 106682, Note_on_c, 2, 52, 124
1, 106682, Note_on_c, 2, 57, 124
1, 106712, Note_on_c, 2, 51, 0
1, 106714, Note_on_c, 1, 76, 0
1, 106722, Note_on_c, 1, 73, 0
1, 106742, Note_on_c, 1, 81, 0
1, 106795, Note_on_c, 2, 49, 0
1, 106795, Note_on_c, 2, 52, 0
1, 106799, Note_on_c, 2, 57, 0
1, 106802, Note_on_c, 2, 45, 0
1, 106949, Note_on_c, 1, 74, 66
1, 107000, Note_on_c, 1, 73, 67
1, 107104, Note_on_c, 1, 71, 53
1, 107121, Note_on_c, 1, 74, 0
1, 107218, Note_on_c, 1, 71, 0
1, 107221, Note_on_c, 1, 73, 0
1, 107234, Note_on_c, 1, 73, 73
1, 107384, Note_on_c, 1, 73, 0
1, 107389, Note_on_c, 1, 74, 61
1, 107494, Note_on_c, 1, 74, 0
1, 107519, Note_on_c, 1, 75, 68
1, 107532, Note_on_c, 2, 57, 49
1, 107762, Note_on_c, 1, 76, 56
1, 107767, Note_on_c, 2, 61, 40
1, 107787, Note_on_c, 1, 75, 0
1, 107812, Note_on_c, 2, 57, 0
1, 107815, Note_on_c, 1, 76, 0
1, 108002, Note_on_c, 2, 59, 43
1, 108015, Note_on_c, 2, 61, 0
1, 108247, Note_on_c, 1, 76, 70
1, 108247, Note_on_c, 2, 62, 43
1, 108277, Note_on_c, 2, 59, 0
1, 108290, Note_on_c, 1, 76, 0
1, 108477, Note_on_c, 2, 61, 44
1, 108497, Note_on_c, 1, 81, 62
1, 108507, Note_on_c, 2, 62, 0
1, 108727, Note_on_c, 2, 64, 53
1, 108757, Note_on_c, 1, 80, 55
1, 108780, Note_on_c, 1, 81, 0
1, 108780, Note_on_c, 2, 61, 0
1, 108970, Note_on_c, 1, 78, 53
1, 108985, Note_on_c, 2, 57, 38
1, 108992, Note_on_c, 1, 80, 0
1, 109020, Note_on_c, 2, 64, 0
1, 109190, Note_on_c, 1, 76, 66
1, 109200, Note_on_c, 2, 61, 43
1, 109212, Note_on_c, 1, 78, 0
1, 109275, Note_on_c, 2, 57, 0
1, 109317, Note_on_c, 2, 61, 0
1, 109437, Note_on_c, 1, 73, 72
1, 109437, Note_on_c, 2, 59, 58
1, 109455, Note_on_c, 1, 76, 0
1, 109672, Note_on_c, 2, 66, 44
1, 109687, Note_on_c, 1, 74, 54
1, 109707, Note_on_c, 1, 73, 0
1, 109740, Note_on_c, 1, 74, 0
1, 109750, Note_on_c, 2, 59, 0
1, 109905, Note_on_c, 2, 62, 45
1, 109940, Note_on_c, 2, 66, 0
1, 110155, Note_on_c, 2, 59, 44
1, 110160, Note_on_c, 2, 62, 0
1, 110172, Note_on_c, 1, 74, 64
1, 110215, Note_on_c, 1, 74, 0
1, 110257, Note_on_c, 2, 59, 0
1, 110400, Note_on_c, 2, 56, 52
1, 110422, Note_on_c, 1, 76, 72
1, 110640, Note_on_c, 2, 59, 52
1, 110662, Note_on_c, 1, 74, 57
1, 110665, Note_on_c, 2, 56, 0
1, 110675, Note_on_c, 1, 76, 0
1, 110892, Note_on_c, 2, 52, 50
1, 110895, Note_on_c, 1, 73, 55
1, 110905, Note_on_c, 1, 74, 0
1, 110912, Note_on_c, 2, 59, 0
1, 111112, Note_on_c, 1, 71, 41
1, 111122, Note_on_c, 2, 62, 49
1, 111147, Note_on_c, 1, 73, 0
1, 111165, Note_on_c, 2, 52, 0
1, 111250, Note_on_c, 2, 62, 0
1, 111342, Note_on_c, 1, 68, 67
1, 111357, Note_on_c, 1, 71, 0
1, 111382, Note_on_c, 2, 61, 24
1, 111580, Note_on_c, 1, 69, 56
1, 111612, Note_on_c, 2, 64, 40
1, 111617, Note_on_c, 1, 68, 0
1, 111642, Note_on_c, 2, 61, 0
1, 111645, Note_on_c, 1, 69, 0
1, 111682, Note_on_c, 2, 64, 0
1, 111832, Note_on_c, 2, 56, 36
1, 112060, Note_on_c, 2, 64, 58
1, 112077, Note_on_c, 1, 71, 66
1, 112097, Note_on_c, 2, 56, 0
1, 112115, Note_on_c, 1, 71, 0
1, 112160, Note_on_c, 2, 64, 0
1, 112307, Note_on_c, 2, 57, 53
1, 112312, Note_on_c, 1, 72, 89
1, 112547, Note_on_c, 2, 64, 47
1, 112562, Note_on_c, 1, 73, 51
1, 112590, Note_on_c, 1, 72, 0
1, 112610, Note_on_c, 2, 57, 0
1, 112640, Note_on_c, 2, 64, 0
1, 112650, Note_on_c, 1, 73, 0
1, 112792, Note_on_c, 2, 54, 51
1, 113022, Note_on_c, 1, 76, 58
1, 113047, Note_on_c, 2, 57, 51
1, 113065, Note_on_c, 2, 54, 0
1, 113112, Note_on_c, 2, 57, 0
1, 113152, Note_on_c, 1, 74, 64
1, 113177, Note_on_c, 1, 76, 0
1, 113230, Note_on_c, 1, 74, 0
1, 113280, Note_on_c, 2, 52, 53
1, 113292, Note_on_c, 1, 73, 69
1, 113515, Note_on_c, 2, 57, 57
1, 113757, Note_on_c, 2, 61, 57
1, 113812, Note_on_c, 2, 57, 0
1, 114000, Note_on_c, 2, 57, 66
1, 114002, Note_on_c, 1, 74, 61
1, 114022, Note_on_c, 2, 61, 0
1, 114042, Note_on_c, 2, 52, 0
1, 114050, Note_on_c, 1, 73, 0
1, 114050, Note_on_c, 2, 57, 0
1, 114122, Note_on_c, 1, 73, 64
1, 114152, Note_on_c, 1, 74, 0
1, 114247, Note_on_c, 1, 71, 66
1, 114260, Note_on_c, 2, 52, 58
1, 114262, Note_on_c, 1, 73, 0
1, 114262, Note_on_c, 2, 56, 67
1, 114315, Note_on_c, 1, 71, 0
1, 114357, Note_on_c, 2, 56, 0
1, 114357, Note_on_c, 2, 52, 0
1, 114472, Note_on_c, 1, 73, 61
1, 114542, Note_on_c, 1, 73, 0
1, 114722, Note_on_c, 1, 74, 68
1, 114777, Note_on_c, 1, 74, 0
1, 114972, Note_on_c, 1, 75, 58
1, 115025, Note_on_c, 1, 75, 0
1, 115207, Note_on_c, 1, 75, 83
1, 115207, Note_on_c, 2, 57, 55
1, 115445, Note_on_c, 2, 61, 39
1, 115462, Note_on_c, 1, 76, 63
1, 115500, Note_on_c, 1, 75, 0
1, 115517, Note_on_c, 2, 57, 0
1, 115547, Note_on_c, 1, 76, 0
1, 115687, Note_on_c, 2, 59, 43
1, 115712, Note_on_c, 2, 61, 0
1, 115920, Note_on_c, 2, 62, 40
1, 115922, Note_on_c, 1, 78, 73
1, 115947, Note_on_c, 2, 59, 0
1, 115975, Note_on_c, 1, 76, 69
1, 116022, Note_on_c, 1, 78, 0
1, 116032, Note_on_c, 1, 75, 68
1, 116065, Note_on_c, 1, 76, 0
1, 116092, Note_on_c, 1, 76, 69
1, 116115, Note_on_c, 1, 75, 0
1, 116157, Note_on_c, 2, 61, 48
1, 116172, Note_on_c, 1, 81, 77
1, 116172, Note_on_c, 2, 62, 0
1, 116205, Note_on_c, 1, 76, 0
1, 116407, Note_on_c, 1, 80, 50
1, 116415, Note_on_c, 2, 64, 49
1, 116440, Note_on_c, 2, 61, 0
1, 116477, Note_on_c, 1, 81, 0
1, 116647, Note_on_c, 1, 78, 66
1, 116647, Note_on_c, 2, 57, 40
1, 116695, Note_on_c, 2, 64, 0
1, 116715, Note_on_c, 1, 80, 0
1, 116877, Note_on_c, 1, 76, 59
1, 116877, Note_on_c, 2, 61, 39
1, 116902, Note_on_c, 1, 78, 0
1, 116952, Note_on_c, 2, 57, 0
1, 117055, Note_on_c, 2, 61, 0
1, 117112, Note_on_c, 2, 59, 54
1, 117122, Note_on_c, 1, 73, 69
1, 117142, Note_on_c, 1, 76, 0
1, 117355, Note_on_c, 1, 74, 47
1, 117357, Note_on_c, 2, 66, 48
1, 117397, Note_on_c, 1, 73, 0
1, 117422, Note_on_c, 2, 59, 0
1, 117440, Note_on_c, 1, 74, 0
1, 117585, Note_on_c, 2, 62, 44
1, 117630, Note_on_c, 2, 66, 0
1, 117832, Note_on_c, 2, 59, 38
1, 117837, Note_on_c, 1, 76, 75
1, 117850, Note_on_c, 2, 62, 0
1, 117905, Note_on_c, 1, 74, 66
1, 117935, Note_on_c, 1, 76, 0
1, 117935, Note_on_c, 2, 59, 0
1, 117945, Note_on_c, 1, 73, 68
1, 117982, Note_on_c, 1, 74, 0
1, 118007, Note_on_c, 1, 74, 73
1, 118035, Note_on_c, 1, 73, 0
1, 118070, Note_on_c, 2, 56, 46
1, 118072, Note_on_c, 1, 76, 78
1, 118102, Note_on_c, 1, 74, 0
1, 118312, Note_on_c, 1, 74, 57
1, 118322, Note_on_c, 2, 59, 53
1, 118337, Note_on_c, 1, 76, 0
1, 118345, Note_on_c, 2, 56, 0
1, 118552, Note_on_c, 1, 73, 68
1, 118560, Note_on_c, 1, 74, 0
1, 118562, Note_on_c, 2, 59, 0
1, 118562, Note_on_c, 2, 52, 44
1, 118797, Note_on_c, 1, 71, 59
1, 118817, Note_on_c, 2, 56, 39
1, 118850, Note_on_c, 1, 73, 0
1, 118877, Note_on_c, 2, 52, 0
1, 118912, Note_on_c, 1, 71, 0
1, 119042, Note_on_c, 2, 57, 42
1, 119047, Note_on_c, 1, 73, 77
1, 119080, Note_on_c, 2, 56, 0
1, 119307, Note_on_c, 2, 57, 0
1, 119420, Note_on_c, 1, 69, 70
1, 119447, Note_on_c, 1, 73, 0
1, 119522, Note_on_c, 2, 62, 71
1, 119527, Note_on_c, 1, 66, 83
1, 119527, Note_on_c, 2, 50, 71
1, 119542, Note_on_c, 1, 69, 0
1, 119820, Note_on_c, 2, 50, 0
1, 119847, Note_on_c, 2, 62, 0
1, 119897, Note_on_c, 1, 71, 65
1, 119925, Note_on_c, 1, 66, 0
1, 120007, Note_on_c, 1, 69, 83
1, 120012, Note_on_c, 2, 61, 55
1, 120017, Note_on_c, 2, 52, 55
1, 120022, Note_on_c, 1, 71, 0
1, 120330, Note_on_c, 1, 69, 0
1, 120487, Note_on_c, 1, 68, 77
1, 120502, Note_on_c, 2, 59, 65
1, 120535, Note_on_c, 1, 69, 73
1, 120540, Note_on_c, 2, 52, 0
1, 120540, Note_on_c, 2, 61, 0
1, 120550, Note_on_c, 1, 68, 0
1, 120592, Note_on_c, 1, 69, 0
1, 120592, Note_on_c, 1, 68, 69
1, 120627, Note_on_c, 1, 69, 69
1, 120632, Note_on_c, 1, 68, 0
1, 120682, Note_on_c, 1, 68, 68
1, 120710, Note_on_c, 1, 69, 0
1, 120740, Note_on_c, 1, 66, 66
1, 120752, Note_on_c, 1, 68, 0
1, 120847, Note_on_c, 1, 68, 68
1, 120862, Note_on_c, 1, 66, 0
1, 120970, Note_on_c, 1, 68, 0
1, 120982, Note_on_c, 1, 69, 79
1, 120992, Note_on_c, 2, 59, 0
1, 120992, Note_on_c, 2, 57, 66
1, 121097, Note_on_c, 1, 76, 75
1, 121150, Note_on_c, 1, 69, 0
1, 121150, Note_on_c, 2, 57, 0
1, 121220, Note_on_c, 1, 75, 62
1, 121247, Note_on_c, 1, 76, 0
1, 121340, Note_on_c, 1, 75, 0
1, 121340, Note_on_c, 1, 76, 61
1, 121465, Note_on_c, 1, 78, 80
1, 121480, Note_on_c, 1, 76, 0
1, 121587, Note_on_c, 1, 76, 64
1, 121637, Note_on_c, 1, 78, 0
1, 121707, Note_on_c, 1, 75, 53
1, 121712, Note_on_c, 2, 69, 86
1, 121727, Note_on_c, 1, 76, 0
1, 121770, Note_on_c, 2, 69, 0
1, 121825, Note_on_c, 1, 76, 59
1, 121847, Note_on_c, 1, 75, 0
1, 121942, Note_on_c, 1, 74, 69
1, 121962, Note_on_c, 1, 76, 0
1, 121965, Note_on_c, 2, 71, 108
1, 122027, Note_on_c, 2, 71, 0
1, 122057, Note_on_c, 1, 76, 64
1, 122072, Note_on_c, 1, 74, 0
1, 122177, Note_on_c, 1, 74, 57
1, 122192, Note_on_c, 1, 76, 0
1, 122195, Note_on_c, 2, 69, 70
1, 122255, Note_on_c, 2, 69, 0
1, 122287, Note_on_c, 1, 76, 63
1, 122302, Note_on_c, 1, 74, 0
1, 122417, Note_on_c, 1, 74, 49
1, 122422, Note_on_c, 1, 76, 0
1, 122440, Note_on_c, 2, 68, 62
1, 122505, Note_on_c, 2, 68, 0
1, 122522, Note_on_c, 1, 76, 55
1, 122542, Note_on_c, 1, 74, 0
1, 122642, Note_on_c, 1, 74, 48
1, 122655, Note_on_c, 1, 76, 0
1, 122675, Note_on_c, 2, 64, 83
1, 122737, Note_on_c, 2, 64, 0
1, 122750, Note_on_c, 1, 76, 55
1, 122772, Note_on_c, 1, 74, 0
1, 122882, Note_on_c, 1, 73, 59
1, 122892, Note_on_c, 1, 76, 0
1, 122895, Note_on_c, 2, 69, 92
1, 122992, Note_on_c, 1, 76, 71
1, 123010, Note_on_c, 2, 69, 0
1, 123012, Note_on_c, 1, 73, 0
1, 123120, Note_on_c, 1, 75, 59
1, 123142, Note_on_c, 1, 76, 0
1, 123220, Note_on_c, 1, 76, 68
1, 123237, Note_on_c, 1, 75, 0
1, 123352, Note_on_c, 1, 78, 57
1, 123370, Note_on_c, 1, 76, 0
1, 123467, Note_on_c, 1, 76, 66
1, 123505, Note_on_c, 1, 78, 0
1, 123592, Note_on_c, 2, 57, 94
1, 123607, Note_on_c, 1, 75, 62
1, 123632, Note_on_c, 1, 76, 0
1, 123680, Note_on_c, 2, 57, 0
1, 123705, Note_on_c, 1, 76, 71
1, 123722, Note_on_c, 1, 75, 0
1, 123835, Note_on_c, 1, 74, 59
1, 123847, Note_on_c, 2, 59, 97
1, 123852, Note_on_c, 1, 76, 0
1, 123930, Note_on_c, 2, 59, 0
1, 123947, Note_on_c, 1, 76, 66
1, 123977, Note_on_c, 1, 74, 0
1, 124077, Note_on_c, 1, 74, 55
1, 124087, Note_on_c, 2, 57, 59
1, 124097, Note_on_c, 1, 76, 0
1, 124147, Note_on_c, 2, 57, 0
1, 124182, Note_on_c, 1, 76, 62
1, 124212, Note_on_c, 1, 74, 0
1, 124317, Note_on_c, 2, 56, 69
1, 124322, Note_on_c, 1, 74, 53
1, 124337, Note_on_c, 1, 76, 0
1, 124375, Note_on_c, 2, 56, 0
1, 124432, Note_on_c, 1, 76, 60
1, 124462, Note_on_c, 1, 74, 0
1, 124557, Note_on_c, 2, 52, 75
1, 124562, Note_on_c, 1, 74, 46
1, 124577, Note_on_c, 1, 76, 0
1, 124612, Note_on_c, 2, 52, 0
1, 124675, Note_on_c, 1, 76, 51
1, 124692, Note_on_c, 1, 74, 0
1, 124792, Note_on_c, 2, 57, 84
1, 124812, Note_on_c, 1, 73, 48
1, 124812, Note_on_c, 1, 73, 48
1, 124865, Note_on_c, 1, 76, 0
1, 124912, Note_on_c, 2, 64, 97
1, 124930, Note_on_c, 1, 73, 0
1, 124930, Note_on_c, 1, 73, 0
1, 124942, Note_on_c, 2, 57, 0
1, 125030, Note_on_c, 2, 63, 102
1, 125042, Note_on_c, 2, 64, 0
1, 125147, Note_on_c, 2, 64, 64
1, 125157, Note_on_c, 2, 63, 0
1, 125262, Note_on_c, 2, 66, 59
1, 125285, Note_on_c, 2, 64, 0
1, 125392, Note_on_c, 2, 64, 55
1, 125422, Note_on_c, 2, 66, 0
1, 125507, Note_on_c, 2, 63, 35
1, 125527, Note_on_c, 2, 64, 0
1, 125532, Note_on_c, 1, 81, 102
1, 125575, Note_on_c, 1, 81, 0
1, 125637, Note_on_c, 2, 64, 59
1, 125662, Note_on_c, 2, 63, 0
1, 125760, Note_on_c, 2, 62, 74
1, 125767, Note_on_c, 1, 83, 108
1, 125777, Note_on_c, 2, 64, 0
1, 125810, Note_on_c, 1, 83, 0
1, 125877, Note_on_c, 2, 64, 53
1, 125892, Note_on_c, 2, 62, 0
1, 125992, Note_on_c, 2, 62, 51
1, 126002, Note_on_c, 1, 81, 88
1, 126012, Note_on_c, 2, 64, 0
1, 126055, Note_on_c, 1, 81, 0
1, 126125, Note_on_c, 2, 62, 0
1, 126125, Note_on_c, 2, 64, 53
1, 126237, Note_on_c, 2, 62, 55
1, 126240, Note_on_c, 1, 80, 102
1, 126247, Note_on_c, 2, 64, 0
1, 126290, Note_on_c, 1, 80, 0
1, 126362, Note_on_c, 2, 64, 44
1, 126377, Note_on_c, 2, 62, 0
1, 126482, Note_on_c, 1, 76, 86
1, 126482, Note_on_c, 2, 62, 49
1, 126487, Note_on_c, 2, 64, 0
1, 126530, Note_on_c, 1, 76, 0
1, 126602, Note_on_c, 2, 64, 51
1, 126607, Note_on_c, 2, 62, 0
1, 126717, Note_on_c, 1, 81, 97
1, 126737, Note_on_c, 2, 61, 77
1, 126755, Note_on_c, 2, 64, 0
1, 126842, Note_on_c, 2, 64, 62
1, 126850, Note_on_c, 2, 61, 0
1, 126957, Note_on_c, 2, 63, 74
1, 126982, Note_on_c, 2, 64, 0
1, 127067, Note_on_c, 1, 81, 0
1, 127072, Note_on_c, 2, 64, 67
1, 127087, Note_on_c, 2, 63, 0
1, 127182, Note_on_c, 2, 66, 86
1, 127207, Note_on_c, 2, 64, 0
1, 127295, Note_on_c, 2, 64, 78
1, 127337, Note_on_c, 2, 66, 0
1, 127427, Note_on_c, 2, 63, 90
1, 127432, Note_on_c, 1, 45, 102
1, 127457, Note_on_c, 2, 64, 0
1, 127500, Note_on_c, 1, 45, 0
1, 127542, Note_on_c, 2, 64, 66
1, 127592, Note_on_c, 2, 63, 0
1, 127677, Note_on_c, 1, 47, 110
1, 127677, Note_on_c, 2, 62, 70
1, 127702, Note_on_c, 2, 64, 0
1, 127725, Note_on_c, 1, 47, 0
1, 127802, Note_on_c, 2, 64, 54
1, 127822, Note_on_c, 2, 62, 0
1, 127910, Note_on_c, 1, 45, 86
1, 127917, Note_on_c, 2, 62, 52
1, 127942, Note_on_c, 2, 64, 0
1, 127960, Note_on_c, 1, 45, 0
1, 128030, Note_on_c, 2, 64, 60
1, 128052, Note_on_c, 2, 62, 0
1, 128147, Note_on_c, 1, 44, 94
1, 128162, Note_on_c, 2, 62, 48
1, 128190, Note_on_c, 2, 64, 0
1, 128192, Note_on_c, 1, 44, 0
1, 128272, Note_on_c, 2, 64, 54
1, 128297, Note_on_c, 2, 62, 0
1, 128402, Note_on_c, 2, 62, 44
1, 128405, Note_on_c, 1, 40, 84
1, 128420, Note_on_c, 2, 64, 0
1, 128455, Note_on_c, 1, 40, 0
1, 128505, Note_on_c, 2, 64, 49
1, 128517, Note_on_c, 2, 62, 0
1, 128652, Note_on_c, 1, 45, 112
1, 128662, Note_on_c, 2, 61, 42
1, 128675, Note_on_c, 2, 64, 0
1, 128820, Note_on_c, 2, 61, 0
1, 128880, Note_on_c, 1, 45, 0
1, 129122, Note_on_c, 2, 61, 41
1, 129127, Note_on_c, 1, 76, 42
1, 129242, Note_on_c, 2, 61, 0
1, 129250, Note_on_c, 2, 69, 36
1, 129355, Note_on_c, 2, 61, 36
1, 129362, Note_on_c, 2, 69, 0
1, 129470, Note_on_c, 2, 69, 50
1, 129482, Note_on_c, 2, 61, 0
1, 129585, Note_on_c, 2, 69, 0
1, 129587, Note_on_c, 1, 74, 49
1, 129595, Note_on_c, 2, 59, 51
1, 129612, Note_on_c, 1, 76, 0
1, 129705, Note_on_c, 2, 69, 49
1, 129732, Note_on_c, 2, 59, 0
1, 129832, Note_on_c, 2, 69, 0
1, 129832, Note_on_c, 2, 59, 55
1, 129942, Note_on_c, 2, 69, 52
1, 129947, Note_on_c, 2, 59, 0
1, 130025, Note_on_c, 2, 69, 0
1, 130067, Note_on_c, 1, 73, 51
1, 130067, Note_on_c, 2, 57, 58
1, 130095, Note_on_c, 1, 74, 0
1, 130202, Note_on_c, 2, 69, 42
1, 130207, Note_on_c, 2, 57, 0
1, 130280, Note_on_c, 2, 69, 0
1, 130310, Note_on_c, 2, 57, 45
1, 130347, Note_on_c, 1, 73, 0
1, 130422, Note_on_c, 2, 69, 56
1, 130427, Note_on_c, 2, 57, 0
1, 130485, Note_on_c, 2, 69, 0
1, 130542, Note_on_c, 1, 78, 62
1, 130547, Note_on_c, 2, 62, 62
1, 130680, Note_on_c, 2, 69, 48
1, 130785, Note_on_c, 2, 68, 38
1, 130787, Note_on_c, 1, 80, 64
1, 130797, Note_on_c, 2, 69, 0
1, 130805, Note_on_c, 1, 78, 0
1, 130847, Note_on_c, 2, 62, 0
1, 130865, Note_on_c, 1, 78, 59
1, 130887, Note_on_c, 1, 80, 0
1, 130910, Note_on_c, 2, 69, 44
1, 130932, Note_on_c, 1, 76, 57
1, 130947, Note_on_c, 1, 78, 0
1, 130947, Note_on_c, 2, 68, 0
1, 131020, Note_on_c, 2, 69, 0
1, 131025, Note_on_c, 2, 62, 59
1, 131037, Note_on_c, 1, 78, 59
1, 131062, Note_on_c, 1, 76, 0
1, 131095, Note_on_c, 1, 78, 0
1, 131145, Note_on_c, 2, 69, 42
1, 131260, Note_on_c, 2, 68, 38
1, 131270, Note_on_c, 2, 69, 0
1, 131282, Note_on_c, 2, 62, 0
1, 131287, Note_on_c, 1, 80, 66
1, 131322, Note_on_c, 1, 80, 0
1, 131377, Note_on_c, 2, 69, 47
1, 131422, Note_on_c, 2, 68, 0
1, 131502, Note_on_c, 2, 69, 0
1, 131512, Note_on_c, 2, 62, 68
1, 131532, Note_on_c, 1, 83, 74
1, 131627, Note_on_c, 2, 69, 47
1, 131710, Note_on_c, 2, 62, 0
1, 131757, Note_on_c, 2, 68, 37
1, 131777, Note_on_c, 1, 81, 62
1, 131777, Note_on_c, 2, 69, 0
1, 131800, Note_on_c, 1, 83, 0
1, 131852, Note_on_c, 1, 81, 0
1, 131887, Note_on_c, 2, 69, 50
1, 131935, Note_on_c, 2, 68, 0
1, 131997, Note_on_c, 2, 69, 0
1, 132010, Note_on_c, 2, 62, 57
1, 132015, Note_on_c, 1, 80, 73
1, 132067, Note_on_c, 1, 80, 0
1, 132122, Note_on_c, 2, 69, 54
1, 132242, Note_on_c, 2, 68, 38
1, 132257, Note_on_c, 1, 78, 70
1, 132257, Note_on_c, 2, 62, 0
1, 132267, Note_on_c, 2, 69, 0
1, 132295, Note_on_c, 1, 78, 0
1, 132372, Note_on_c, 2, 69, 61
1, 132395, Note_on_c, 2, 68, 0
1, 132440, Note_on_c, 2, 69, 0
1, 132497, Note_on_c, 1, 76, 62
1, 132497, Note_on_c, 2, 61, 57
1, 132560, Note_on_c, 1, 76, 0
1, 132597, Note_on_c, 2, 69, 59
1, 132712, Note_on_c, 2, 68, 45
1, 132722, Note_on_c, 2, 69, 0
1, 132732, Note_on_c, 2, 61, 0
1, 132837, Note_on_c, 2, 69, 54
1, 132862, Note_on_c, 2, 68, 0
1, 132900, Note_on_c, 2, 69, 0
1, 132965, Note_on_c, 1, 76, 92
1, 132967, Note_on_c, 2, 61, 86
1, 133072, Note_on_c, 2, 69, 62
1, 133092, Note_on_c, 2, 61, 0
1, 133195, Note_on_c, 2, 61, 84
1, 133197, Note_on_c, 2, 69, 0
1, 133302, Note_on_c, 2, 69, 66
1, 133332, Note_on_c, 2, 61, 0
1, 133407, Note_on_c, 2, 69, 0
1, 133425, Note_on_c, 1, 74, 78
1, 133432, Note_on_c, 2, 59, 81
1, 133447, Note_on_c, 1, 76, 0
1, 133532, Note_on_c, 2, 69, 73
1, 133562, Note_on_c, 2, 59, 0
1, 133665, Note_on_c, 2, 59, 83
1, 133670, Note_on_c, 2, 69, 0
1, 133770, Note_on_c, 2, 69, 62
1, 133787, Note_on_c, 2, 59, 0
1, 133882, Note_on_c, 2, 69, 0
1, 133892, Note_on_c, 2, 57, 77
1, 133922, Note_on_c, 1, 73, 79
1, 133942, Note_on_c, 1, 74, 0
1, 134017, Note_on_c, 2, 69, 73
1, 134057, Note_on_c, 2, 57, 0
1, 134150, Note_on_c, 2, 57, 86
1, 134155, Note_on_c, 2, 69, 0
1, 134265, Note_on_c, 2, 69, 77
1, 134290, Note_on_c, 2, 57, 0
1, 134320, Note_on_c, 2, 69, 0
1, 134397, Note_on_c, 1, 71, 79
1, 134397, Note_on_c, 2, 50, 74
1, 134402, Note_on_c, 1, 73, 0
1, 134522, Note_on_c, 2, 59, 64
1, 134637, Note_on_c, 2, 54, 77
1, 134647, Note_on_c, 2, 50, 0
1, 134652, Note_on_c, 2, 59, 0
1, 134752, Note_on_c, 2, 59, 86
1, 134762, Note_on_c, 2, 54, 0
1, 134767, Note_on_c, 1, 78, 94
1, 134772, Note_on_c, 1, 71, 0
1, 134880, Note_on_c, 2, 59, 0
1, 134887, Note_on_c, 2, 50, 69
1, 134897, Note_on_c, 1, 76, 92
1, 134930, Note_on_c, 1, 78, 0
1, 134987, Note_on_c, 2, 59, 77
1, 135012, Note_on_c, 1, 74, 84
1, 135032, Note_on_c, 1, 76, 0
1, 135110, Note_on_c, 2, 59, 0
1, 135120, Note_on_c, 2, 54, 86
1, 135137, Note_on_c, 1, 73, 78
1, 135137, Note_on_c, 2, 50, 0
1, 135142, Note_on_c, 1, 74, 0
1, 135237, Note_on_c, 2, 59, 66
1, 135245, Note_on_c, 2, 54, 0
1, 135252, Note_on_c, 1, 71, 69
1, 135277, Note_on_c, 1, 73, 0
1, 135310, Note_on_c, 2, 59, 0
1, 135377, Note_on_c, 1, 69, 83
1, 135387, Note_on_c, 2, 52, 73
1, 135392, Note_on_c, 1, 71, 0
1, 135497, Note_on_c, 2, 61, 78
1, 135612, Note_on_c, 2, 57, 72
1, 135622, Note_on_c, 2, 61, 0
1, 135645, Note_on_c, 2, 52, 0
1, 135730, Note_on_c, 2, 61, 81
1, 135732, Note_on_c, 1, 69, 0
1, 135760, Note_on_c, 2, 57, 0
1, 135827, Note_on_c, 2, 61, 0
1, 135837, Note_on_c, 1, 71, 94
1, 135865, Note_on_c, 2, 52, 64
1, 135887, Note_on_c, 1, 73, 94
1, 135895, Note_on_c, 1, 71, 0
1, 135930, Note_on_c, 1, 73, 0
1, 135930, Note_on_c, 1, 71, 92
1, 135972, Note_on_c, 2, 62, 73
1, 135977, Note_on_c, 1, 71, 0
1, 135977, Note_on_c, 1, 73, 90
1, 136022, Note_on_c, 1, 71, 88
1, 136030, Note_on_c, 1, 73, 0
1, 136082, Note_on_c, 1, 69, 86
1, 136082, Note_on_c, 2, 62, 0
1, 136087, Note_on_c, 2, 56, 59
1, 136092, Note_on_c, 1, 71, 0
1, 136100, Note_on_c, 2, 52, 0
1, 136195, Note_on_c, 1, 71, 82
1, 136202, Note_on_c, 2, 56, 0
1, 136202, Note_on_c, 2, 62, 65
1, 136212, Note_on_c, 1, 69, 0
1, 136247, Note_on_c, 2, 62, 0
1, 136330, Note_on_c, 1, 69, 83
1, 136342, Note_on_c, 1, 71, 0
1, 136342, Note_on_c, 2, 57, 49
1, 136435, Note_on_c, 1, 69, 0
1, 136465, Note_on_c, 2, 64, 40
1, 136572, Note_on_c, 2, 61, 44
1, 136575, Note_on_c, 2, 64, 0
1, 136582, Note_on_c, 2, 57, 0
1, 136677, Note_on_c, 2, 61, 0
1, 136682, Note_on_c, 2, 64, 56
1, 136727, Note_on_c, 2, 64, 0
1, 136792, Note_on_c, 1, 76, 57
1, 136807, Note_on_c, 2, 61, 44
1, 136927, Note_on_c, 2, 69, 48
1, 136942, Note_on_c, 2, 61, 0
1, 137027, Note_on_c, 2, 69, 0
1, 137037, Note_on_c, 2, 61, 44
1, 137157, Note_on_c, 2, 69, 49
1, 137162, Note_on_c, 2, 61, 0
1, 137245, Note_on_c, 2, 69, 0
1, 137265, Note_on_c, 1, 74, 45
1, 137282, Note_on_c, 2, 59, 39
1, 137287, Note_on_c, 1, 76, 0
1, 137385, Note_on_c, 2, 69, 55
1, 137397, Note_on_c, 2, 59, 0
1, 137505, Note_on_c, 2, 69, 0
1, 137512, Note_on_c, 2, 59, 40
1, 137610, Note_on_c, 2, 59, 0
1, 137625, Note_on_c, 2, 69, 46
1, 137705, Note_on_c, 2, 69, 0
1, 137742, Note_on_c, 2, 57, 39
1, 137760, Note_on_c, 1, 73, 51
1, 137785, Note_on_c, 1, 74, 0
1, 137857, Note_on_c, 2, 69, 39
1, 137897, Note_on_c, 2, 57, 0
1, 137967, Note_on_c, 2, 69, 0
1, 137990, Note_on_c, 2, 57, 37
1, 138095, Note_on_c, 1, 73, 0
1, 138095, Note_on_c, 2, 57, 0
1, 138100, Note_on_c, 2, 69, 42
1, 138162, Note_on_c, 2, 69, 0
1, 138225, Note_on_c, 2, 62, 59
1, 138245, Note_on_c, 1, 78, 66
1, 138340, Note_on_c, 2, 69, 51
1, 138392, Note_on_c, 2, 62, 0
1, 138465, Note_on_c, 2, 68, 37
1, 138482, Note_on_c, 2, 69, 0
1, 138495, Note_on_c, 1, 80, 68
1, 138515, Note_on_c, 1, 78, 0
1, 138562, Note_on_c, 1, 78, 53
1, 138582, Note_on_c, 2, 69, 50
1, 138592, Note_on_c, 1, 80, 0
1, 138592, Note_on_c, 2, 68, 0
1, 138632, Note_on_c, 1, 76, 68
1, 138640, Note_on_c, 1, 78, 0
1, 138707, Note_on_c, 2, 69, 0
1, 138712, Note_on_c, 2, 62, 53
1, 138722, Note_on_c, 1, 78, 71
1, 138740, Note_on_c, 1, 76, 0
1, 138775, Note_on_c, 1, 78, 0
1, 138837, Note_on_c, 2, 69, 48
1, 138880, Note_on_c, 2, 62, 0
1, 138967, Note_on_c, 2, 68, 42
1, 138972, Note_on_c, 1, 80, 75
1, 138992, Note_on_c, 2, 69, 0
1, 139005, Note_on_c, 1, 80, 0
1, 139077, Note_on_c, 2, 69, 52
1, 139107, Note_on_c, 2, 68, 0
1, 139207, Note_on_c, 2, 69, 0
1, 139207, Note_on_c, 2, 62, 56
1, 139210, Note_on_c, 1, 83, 89
1, 139322, Note_on_c, 2, 69, 49
1, 139342, Note_on_c, 2, 62, 0
1, 139452, Note_on_c, 2, 68, 43
1, 139462, Note_on_c, 1, 81, 79
1, 139472, Note_on_c, 2, 69, 0
1, 139485, Note_on_c, 1, 83, 0
1, 139530, Note_on_c, 1, 81, 0
1, 139567, Note_on_c, 2, 69, 57
1, 139592, Note_on_c, 2, 68, 0
1, 139685, Note_on_c, 2, 62, 57
1, 139697, Note_on_c, 1, 80, 69
1, 139707, Note_on_c, 2, 69, 0
1, 139735, Note_on_c, 1, 80, 0
1, 139810, Note_on_c, 2, 69, 55
1, 139865, Note_on_c, 2, 62, 0
1, 139932, Note_on_c, 2, 68, 51
1, 139942, Note_on_c, 1, 78, 62
1, 139960, Note_on_c, 2, 69, 0
1, 139977, Note_on_c, 1, 78, 0
1, 140067, Note_on_c, 2, 69, 52
1, 140100, Note_on_c, 2, 68, 0
1, 140172, Note_on_c, 1, 76, 88
1, 140180, Note_on_c, 2, 69, 0
1, 140182, Note_on_c, 2, 61, 66
1, 140242, Note_on_c, 1, 76, 0
1, 140282, Note_on_c, 2, 69, 59
1, 140350, Note_on_c, 2, 61, 0
1, 140397, Note_on_c, 2, 68, 45
1, 140412, Note_on_c, 2, 69, 0
1, 140522, Note_on_c, 2, 69, 64
1, 140562, Note_on_c, 2, 68, 0
1, 140620, Note_on_c, 2, 69, 0
1, 140642, Note_on_c, 2, 61, 86
1, 140652, Note_on_c, 1, 76, 99
1, 140745, Note_on_c, 2, 69, 66
1, 140777, Note_on_c, 2, 61, 0
1, 140882, Note_on_c, 2, 69, 0
1, 140882, Note_on_c, 2, 61, 86
1, 141010, Note_on_c, 2, 69, 62
1, 141032, Note_on_c, 2, 61, 0
1, 141125, Note_on_c, 2, 69, 0
1, 141127, Note_on_c, 2, 59, 84
1, 141130, Note_on_c, 1, 74, 84
1, 141157, Note_on_c, 1, 76, 0
1, 141237, Note_on_c, 2, 69, 55
1, 141262, Note_on_c, 2, 59, 0
1, 141350, Note_on_c, 2, 59, 80
1, 141370, Note_on_c, 2, 69, 0
1, 141477, Note_on_c, 2, 69, 59
1, 141502, Note_on_c, 2, 59, 0
1, 141592, Note_on_c, 1, 73, 82
1, 141600, Note_on_c, 2, 69, 0
1, 141600, Note_on_c, 2, 57, 81
1, 141612, Note_on_c, 1, 74, 0
1, 141717, Note_on_c, 2, 69, 53
1, 141740, Note_on_c, 2, 57, 0
1, 141830, Note_on_c, 2, 69, 0
1, 141830, Note_on_c, 2, 57, 80
1, 141955, Note_on_c, 2, 69, 64
1, 141990, Note_on_c, 2, 57, 0
1, 142015, Note_on_c, 2, 69, 0
1, 142075, Note_on_c, 2, 50, 79
1, 142082, Note_on_c, 1, 71, 97
1, 142090, Note_on_c, 1, 73, 0
1, 142192, Note_on_c, 2, 59, 66
1, 142315, Note_on_c, 2, 54, 68
1, 142320, Note_on_c, 2, 59, 0
1, 142345, Note_on_c, 2, 50, 0
1, 142432, Note_on_c, 2, 59, 86
1, 142450, Note_on_c, 1, 78, 97
1, 142462, Note_on_c, 1, 71, 0
1, 142472, Note_on_c, 2, 54, 0
1, 142562, Note_on_c, 2, 50, 77
1, 142567, Note_on_c, 2, 59, 0
1, 142577, Note_on_c, 1, 76, 75
1, 142610, Note_on_c, 1, 78, 0
1, 142672, Note_on_c, 2, 59, 68
1, 142682, Note_on_c, 1, 74, 79
1, 142707, Note_on_c, 1, 76, 0
1, 142802, Note_on_c, 2, 54, 60
1, 142810, Note_on_c, 1, 73, 86
1, 142820, Note_on_c, 2, 59, 0
1, 142822, Note_on_c, 1, 74, 0
1, 142872, Note_on_c, 2, 50, 0
1, 142905, Note_on_c, 1, 71, 89
1, 142905, Note_on_c, 2, 54, 0
1, 142917, Note_on_c, 2, 59, 69
1, 142942, Note_on_c, 1, 73, 0
1, 143020, Note_on_c, 2, 59, 0
1, 143040, Note_on_c, 1, 69, 97
1, 143052, Note_on_c, 2, 52, 72
1, 143055, Note_on_c, 1, 71, 0
1, 143167, Note_on_c, 2, 61, 64
1, 143280, Note_on_c, 2, 57, 68
1, 143282, Note_on_c, 2, 61, 0
1, 143355, Note_on_c, 2, 52, 0
1, 143385, Note_on_c, 2, 61, 79
1, 143410, Note_on_c, 1, 69, 0
1, 143415, Note_on_c, 2, 57, 0
1, 143505, Note_on_c, 1, 71, 98
1, 143512, Note_on_c, 2, 61, 0
1, 143512, Note_on_c, 2, 52, 79
1, 143550, Note_on_c, 1, 73, 97
1, 143560, Note_on_c, 1, 71, 0
1, 143595, Note_on_c, 1, 71, 95
1, 143600, Note_on_c, 1, 73, 0
1, 143630, Note_on_c, 2, 62, 60
1, 143642, Note_on_c, 1, 73, 93
1, 143650, Note_on_c, 1, 71, 0
1, 143685, Note_on_c, 1, 73, 0
1, 143685, Note_on_c, 1, 71, 93
1, 143747, Note_on_c, 1, 69, 93
1, 143752, Note_on_c, 2, 56, 57
1, 143757, Note_on_c, 1, 71, 0
1, 143770, Note_on_c, 2, 62, 0
1, 143835, Note_on_c, 2, 52, 0
1, 143847, Note_on_c, 1, 71, 95
1, 143867, Note_on_c, 1, 69, 0
1, 143875, Note_on_c, 2, 62, 68
1, 143887, Note_on_c, 2, 56, 0
1, 143960, Note_on_c, 2, 62, 0
1, 143977, Note_on_c, 1, 71, 0
1, 143977, Note_on_c, 1, 69, 104
1, 144000, Note_on_c, 2, 61, 90
1, 144007, Note_on_c, 2, 57, 75
1, 144105, Note_on_c, 1, 64, 71
1, 144117, Note_on_c, 1, 69, 0
1, 144145, Note_on_c, 2, 57, 0
1, 144167, Note_on_c, 2, 61, 0
1, 144202, Note_on_c, 1, 64, 0
1, 144237, Note_on_c, 1, 69, 64
1, 144337, Note_on_c, 1, 73, 73
1, 144460, Note_on_c, 1, 69, 0
1, 144477, Note_on_c, 1, 76, 88
1, 144497, Note_on_c, 1, 73, 0
1, 144587, Note_on_c, 1, 73, 66
1, 144620, Note_on_c, 1, 76, 0
1, 144715, Note_on_c, 1, 74, 88
1, 144722, Note_on_c, 2, 59, 68
1, 144722, Note_on_c, 2, 52, 68
1, 144722, Note_on_c, 2, 56, 68
1, 144755, Note_on_c, 1, 73, 0
1, 144840, Note_on_c, 1, 71, 77
1, 144842, Note_on_c, 2, 52, 0
1, 144842, Note_on_c, 2, 59, 0
1, 144860, Note_on_c, 2, 56, 0
1, 144890, Note_on_c, 1, 74, 0
1, 144957, Note_on_c, 2, 61, 79
1, 144962, Note_on_c, 1, 71, 0
1, 144962, Note_on_c, 1, 69, 88
1, 144962, Note_on_c, 2, 57, 79
1, 145097, Note_on_c, 1, 64, 75
1, 145122, Note_on_c, 1, 69, 0
1, 145170, Note_on_c, 2, 57, 0
1, 145177, Note_on_c, 2, 61, 0
1, 145212, Note_on_c, 1, 69, 77
1, 145227, Note_on_c, 1, 64, 0
1, 145332, Note_on_c, 1, 73, 86
1, 145380, Note_on_c, 1, 69, 0
1, 145465, Note_on_c, 1, 76, 91
1, 145482, Note_on_c, 1, 73, 0
1, 145577, Note_on_c, 1, 73, 73
1, 145607, Note_on_c, 1, 76, 0
1, 145690, Note_on_c, 1, 74, 91
1, 145710, Note_on_c, 2, 56, 79
1, 145710, Note_on_c, 2, 52, 79
1, 145715, Note_on_c, 2, 59, 79
1, 145727, Note_on_c, 1, 73, 0
1, 145775, Note_on_c, 2, 52, 0
1, 145795, Note_on_c, 2, 56, 0
1, 145802, Note_on_c, 2, 59, 0
1, 145812, Note_on_c, 1, 71, 86
1, 145882, Note_on_c, 1, 74, 0
1, 145947, Note_on_c, 1, 69, 98
1, 145952, Note_on_c, 1, 71, 0
1, 145967, Note_on_c, 2, 57, 88
1, 145970, Note_on_c, 2, 61, 88
1, 146007, Note_on_c, 1, 69, 0
1, 146100, Note_on_c, 2, 57, 0
1, 146105, Note_on_c, 2, 61, 0
1, 146440, Note_on_c, 1, 71, 108
1, 146440, Note_on_c, 1, 74, 108
1, 146440, Note_on_c, 1, 80, 108
1, 146440, Note_on_c, 2, 53, 92
1, 146440, Note_on_c, 2, 41, 99
1, 146503, Note_on_c, 1, 74, 0
1, 146503, Note_on_c, 1, 71, 0
1, 146538, Note_on_c, 1, 80, 0
1, 146607, Note_on_c, 2, 41, 0
1, 146620, Note_on_c, 2, 53, 0
1, 146960, Note_on_c, 1, 73, 127
1, 146960, Note_on_c, 1, 69, 127
1, 146960, Note_on_c, 1, 81, 127
1, 146960, Note_on_c, 2, 42, 117
1, 146960, Note_on_c, 2, 54, 117
1, 147265, Note_on_c, 1, 81, 0
1, 147265, Note_on_c, 1, 69, 0
1, 147265, Note_on_c, 1, 73, 0
1, 147265, Note_on_c, 2, 54, 0
1, 147265, Note_on_c, 2, 42, 0
1, 147840, Note_on_c, 1, 74, 73
1, 147840, Note_on_c, 1, 66, 73
1, 147840, Note_on_c, 2, 50, 83
1, 147927, Note_on_c, 1, 66, 0
1, 147982, Note_on_c, 1, 74, 0
1, 148095, Note_on_c, 1, 64, 46
1, 148095, Note_on_c, 1, 73, 53
1, 148142, Note_on_c, 1, 64, 0
1, 148168, Note_on_c, 1, 73, 0
1, 148330, Note_on_c, 1, 73, 62
1, 148355, Note_on_c, 1, 64, 62
1, 148395, Note_on_c, 1, 64, 0
1, 148400, Note_on_c, 1, 73, 0
1, 148567, Note_on_c, 1, 62, 54
1, 148567, Note_on_c, 1, 71, 45
1, 148617, Note_on_c, 1, 71, 0
1, 148617, Note_on_c, 1, 62, 0
1, 148787, Note_on_c, 1, 71, 53
1, 148792, Note_on_c, 1, 62, 53
1, 148812, Note_on_c, 2, 52, 66
1, 148833, Note_on_c, 2, 50, 0
1, 148870, Note_on_c, 1, 62, 0
1, 148912, Note_on_c, 1, 71, 0
1, 149025, Note_on_c, 1, 69, 48
1, 149032, Note_on_c, 1, 61, 48
1, 149082, Note_on_c, 1, 61, 0
1, 149095, Note_on_c, 1, 69, 0
1, 149272, Note_on_c, 1, 61, 64
1, 149272, Note_on_c, 1, 69, 64
1, 149342, Note_on_c, 1, 61, 0
1, 149367, Note_on_c, 1, 69, 0
1, 149512, Note_on_c, 1, 68, 51
1, 149527, Note_on_c, 1, 59, 51
1, 149575, Note_on_c, 1, 59, 0
1, 149575, Note_on_c, 1, 68, 0
1, 149782, Note_on_c, 2, 52, 0
1, 149785, Note_on_c, 1, 62, 70
1, 149785, Note_on_c, 1, 68, 55
1, 149785, Note_on_c, 1, 59, 54
1, 149785, Note_on_c, 2, 57, 55
1, 150256, Note_on_c, 2, 52, 55
1, 150305, Note_on_c, 2, 57, 0
1, 150470, Note_on_c, 1, 59, 0
1, 150470, Note_on_c, 1, 68, 0
1, 150470, Note_on_c, 1, 62, 0
1, 150761, Note_on_c, 2, 52, 0
1, 150785, Note_on_c, 1, 69, 39
1, 150785, Note_on_c, 1, 61, 39
1, 150785, Note_on_c, 2, 45, 32
1, 151147, Note_on_c, 1, 61, 0
1, 151158, Note_on_c, 1, 69, 0
1, 151295, Note_on_c, 2, 45, 0
1, 151690, Note_on_c, 3, 81, 62
1, 151937, Note_on_c, 3, 79, 54
1, 151947, Note_on_c, 3, 81, 0
1, 151985, Note_on_c, 3, 79, 0
1, 152175, Note_on_c, 3, 79, 62
1, 152415, Note_on_c, 3, 78, 57
1, 152422, Note_on_c, 3, 79, 0
1, 152467, Note_on_c, 3, 78, 0
1, 152660, Note_on_c, 3, 78, 64
1, 152902, Note_on_c, 3, 76, 63
1, 152920, Note_on_c, 3, 78, 0
1, 152955, Note_on_c, 3, 76, 0
1, 153135, Note_on_c, 3, 76, 66
1, 153375, Note_on_c, 3, 76, 0
1, 153375, Note_on_c, 3, 75, 50
1, 153420, Note_on_c, 3, 75, 0
1, 153617, Note_on_c, 3, 75, 90
1, 153622, Note_on_c, 3, 72, 97
1, 153627, Note_on_c, 4, 47, 66
1, 153635, Note_on_c, 4, 59, 86
1, 153880, Note_on_c, 3, 71, 67
1, 153895, Note_on_c, 3, 72, 0
1, 153935, Note_on_c, 3, 71, 0
1, 154117, Note_on_c, 3, 71, 72
1, 154350, Note_on_c, 3, 69, 66
1, 154360, Note_on_c, 3, 71, 0
1, 154410, Note_on_c, 3, 69, 0
1, 154590, Note_on_c, 3, 69, 59
1, 154832, Note_on_c, 3, 67, 77
1, 154840, Note_on_c, 3, 69, 0
1, 154902, Note_on_c, 3, 67, 0
1, 155047, Note_on_c, 3, 67, 66
1, 155080, Note_on_c, 4, 59, 0
1, 155087, Note_on_c, 4, 47, 0
1, 155265, Note_on_c, 3, 66, 63
1, 155295, Note_on_c, 3, 67, 0
1, 155335, Note_on_c, 3, 66, 0
1, 155347, Note_on_c, 3, 75, 0
1, 155520, Note_on_c, 3, 75, 86
1, 155747, Note_on_c, 3, 76, 61
1, 155765, Note_on_c, 3, 75, 0
1, 155817, Note_on_c, 3, 76, 0
1, 155992, Note_on_c, 4, 67, 46
1, 155992, Note_on_c, 4, 71, 54
1, 156087, Note_on_c, 4, 71, 0
1, 156097, Note_on_c, 4, 67, 0
1, 156252, Note_on_c, 3, 79, 67
1, 156317, Note_on_c, 3, 79, 0
1, 156490, Note_on_c, 3, 77, 70
1, 156737, Note_on_c, 3, 78, 68
1, 156755, Note_on_c, 3, 77, 0
1, 156805, Note_on_c, 3, 78, 0
1, 156972, Note_on_c, 4, 63, 46
1, 156980, Note_on_c, 4, 71, 46
1, 157082, Note_on_c, 4, 71, 0
1, 157082, Note_on_c, 4, 63, 0
1, 157222, Note_on_c, 3, 81, 69
1, 157265, Note_on_c, 3, 81, 0
1, 157453, Note_on_c, 3, 75, 89
1, 157453, Note_on_c, 3, 78, 89
1, 157465, Note_on_c, 4, 47, 78
1, 157707, Note_on_c, 4, 45, 64
1, 157712, Note_on_c, 4, 47, 0
1, 157805, Note_on_c, 4, 45, 0
1, 157937, Note_on_c, 4, 45, 86
1, 158185, Note_on_c, 4, 43, 82
1, 158187, Note_on_c, 4, 45, 0
1, 158237, Note_on_c, 4, 43, 0
1, 158388, Note_on_c, 3, 75, 0
1, 158396, Note_on_c, 3, 78, 0
1, 158400, Note_on_c, 3, 76, 43
1, 158400, Note_on_c, 3, 79, 43
1, 158412, Note_on_c, 4, 43, 79
1, 158600, Note_on_c, 3, 76, 0
1, 158610, Note_on_c, 3, 79, 0
1, 158630, Note_on_c, 4, 42, 73
1, 158652, Note_on_c, 4, 43, 0
1, 158692, Note_on_c, 4, 42, 0
1, 158860, Note_on_c, 4, 42, 69
1, 159097, Note_on_c, 4, 40, 66
1, 159105, Note_on_c, 4, 42, 0
1, 159202, Note_on_c, 4, 40, 0
1, 159357, Note_on_c, 3, 79, 79
1, 159610, Note_on_c, 3, 78, 59
1, 159620, Note_on_c, 3, 79, 0
1, 159665, Note_on_c, 3, 78, 0
1, 159860, Note_on_c, 3, 78, 79
1, 160107, Note_on_c, 3, 76, 68
1, 160127, Note_on_c, 3, 78, 0
1, 160162, Note_on_c, 3, 76, 0
1, 160352, Note_on_c, 3, 76, 70
1, 160595, Note_on_c, 3, 74, 59
1, 160600, Note_on_c, 3, 76, 0
1, 160645, Note_on_c, 3, 74, 0
1, 160830, Note_on_c, 3, 74, 64
1, 161062, Note_on_c, 3, 73, 55
1, 161082, Note_on_c, 3, 74, 0
1, 161110, Note_on_c, 3, 73, 0
1, 161300, Note_on_c, 3, 73, 88
1, 161305, Note_on_c, 3, 70, 98
1, 161312, Note_on_c, 4, 45, 86
1, 161315, Note_on_c, 4, 57, 88
1, 161557, Note_on_c, 3, 69, 51
1, 161577, Note_on_c, 3, 70, 0
1, 161620, Note_on_c, 3, 69, 0
1, 161790, Note_on_c, 3, 69, 64
1, 162027, Note_on_c, 3, 67, 57
1, 162040, Note_on_c, 3, 69, 0
1, 162085, Note_on_c, 3, 67, 0
1, 162257, Note_on_c, 3, 67, 60
1, 162492, Note_on_c, 3, 65, 55
1, 162497, Note_on_c, 3, 67, 0
1, 162560, Note_on_c, 3, 65, 0
1, 162755, Note_on_c, 3, 65, 66
1, 162815, Note_on_c, 4, 57, 0
1, 162832, Note_on_c, 4, 45, 0
1, 162985, Note_on_c, 3, 65, 0
1, 162987, Note_on_c, 3, 64, 66
1, 163080, Note_on_c, 3, 64, 0
1, 163095, Note_on_c, 3, 73, 0
1, 163235, Note_on_c, 3, 73, 72
1, 163462, Note_on_c, 3, 74, 64
1, 163477, Note_on_c, 3, 73, 0
1, 163527, Note_on_c, 3, 74, 0
1, 163687, Note_on_c, 4, 66, 51
1, 163687, Note_on_c, 4, 69, 62
1, 163752, Note_on_c, 4, 66, 0
1, 163757, Note_on_c, 4, 69, 0
1, 163930, Note_on_c, 3, 78, 58
1, 163970, Note_on_c, 3, 78, 0
1, 164172, Note_on_c, 3, 75, 77
1, 164397, Note_on_c, 3, 76, 54
1, 164417, Note_on_c, 3, 75, 0
1, 164462, Note_on_c, 3, 76, 0
1, 164645, Note_on_c, 4, 69, 64
1, 164645, Note_on_c, 4, 61, 53
1, 164720, Note_on_c, 4, 61, 0
1, 164732, Note_on_c, 4, 69, 0
1, 164887, Note_on_c, 3, 79, 70
1, 164945, Note_on_c, 3, 79, 0
1, 165127, Note_on_c, 3, 73, 73
1, 165127, Note_on_c, 3, 76, 83
1, 165127, Note_on_c, 4, 45, 83
1, 165357, Note_on_c, 4, 43, 66
1, 165365, Note_on_c, 4, 45, 0
1, 165420, Note_on_c, 4, 43, 0
1, 165600, Note_on_c, 4, 43, 77
1, 165842, Note_on_c, 4, 42, 64
1, 165860, Note_on_c, 4, 43, 0
1, 165910, Note_on_c, 4, 42, 0
1, 165935, Note_on_c, 3, 73, 0
1, 165965, Note_on_c, 3, 76, 0
1, 166062, Note_on_c, 3, 78, 51
1, 166065, Note_on_c, 3, 74, 57
1, 166067, Note_on_c, 4, 42, 79
1, 166236, Note_on_c, 3, 78, 0
1, 166239, Note_on_c, 3, 74, 0
1, 166295, Note_on_c, 4, 42, 0
1, 166310, Note_on_c, 4, 40, 62
1, 166382, Note_on_c, 4, 40, 0
1, 166522, Note_on_c, 4, 40, 73
1, 166785, Note_on_c, 4, 38, 73
1, 166795, Note_on_c, 4, 40, 0
1, 166865, Note_on_c, 4, 38, 0
1, 167032, Note_on_c, 4, 62, 83
1, 167075, Note_on_c, 3, 78, 88
1, 167177, Note_on_c, 3, 86, 64
1, 167215, Note_on_c, 3, 78, 0
1, 167292, Note_on_c, 4, 61, 65
1, 167305, Note_on_c, 3, 78, 75
1, 167312, Note_on_c, 4, 62, 0
1, 167335, Note_on_c, 3, 86, 0
1, 167367, Note_on_c, 4, 61, 0
1, 167415, Note_on_c, 3, 86, 67
1, 167442, Note_on_c, 3, 78, 0
1, 167535, Note_on_c, 3, 78, 83
1, 167547, Note_on_c, 3, 86, 0
1, 167552, Note_on_c, 4, 61, 64
1, 167635, Note_on_c, 3, 86, 66
1, 167670, Note_on_c, 3, 78, 0
1, 167757, Note_on_c, 3, 78, 66
1, 167770, Note_on_c, 3, 86, 0
1, 167780, Note_on_c, 4, 59, 51
1, 167785, Note_on_c, 4, 61, 0
1, 167825, Note_on_c, 4, 59, 0
1, 167865, Note_on_c, 3, 86, 67
1, 167895, Note_on_c, 3, 78, 0
1, 167990, Note_on_c, 3, 86, 0
1, 167990, Note_on_c, 3, 78, 72
1, 168010, Note_on_c, 4, 59, 70
1, 168095, Note_on_c, 3, 86, 70
1, 168120, Note_on_c, 3, 78, 0
1, 168215, Note_on_c, 3, 78, 60
1, 168222, Note_on_c, 3, 86, 0
1, 168245, Note_on_c, 4, 57, 64
1, 168260, Note_on_c, 4, 59, 0
1, 168320, Note_on_c, 3, 86, 70
1, 168332, Note_on_c, 4, 57, 0
1, 168350, Note_on_c, 3, 78, 0
1, 168450, Note_on_c, 3, 86, 0
1, 168450, Note_on_c, 3, 78, 65
1, 168455, Note_on_c, 4, 57, 73
1, 168570, Note_on_c, 3, 86, 69
1, 168615, Note_on_c, 3, 78, 0
1, 168695, Note_on_c, 3, 78, 64
1, 168697, Note_on_c, 3, 86, 0
1, 168700, Note_on_c, 4, 56, 66
1, 168715, Note_on_c, 4, 57, 0
1, 168797, Note_on_c, 4, 56, 0
1, 168817, Note_on_c, 3, 86, 59
1, 168842, Note_on_c, 3, 78, 0
1, 168887, Note_on_c, 3, 86, 0
1, 168940, Note_on_c, 3, 76, 77
1, 168947, Note_on_c, 4, 56, 102
1, 168947, Note_on_c, 4, 44, 102
1, 169075, Note_on_c, 3, 86, 64
1, 169117, Note_on_c, 3, 76, 0
1, 169185, Note_on_c, 3, 76, 57
1, 169210, Note_on_c, 3, 86, 0
1, 169305, Note_on_c, 3, 86, 59
1, 169332, Note_on_c, 3, 76, 0
1, 169427, Note_on_c, 3, 86, 0
1, 169427, Note_on_c, 3, 76, 72
1, 169542, Note_on_c, 3, 86, 70
1, 169587, Note_on_c, 3, 76, 0
1, 169682, Note_on_c, 3, 86, 0
1, 169682, Note_on_c, 3, 76, 62
1, 169790, Note_on_c, 3, 86, 66
1, 169830, Note_on_c, 3, 76, 0
1, 169920, Note_on_c, 3, 76, 65
1, 169920, Note_on_c, 4, 58, 93
1, 169932, Note_on_c, 4, 46, 93
1, 169942, Note_on_c, 4, 56, 0
1, 169947, Note_on_c, 4, 44, 0
1, 169950, Note_on_c, 3, 86, 0
1, 170040, Note_on_c, 3, 85, 70
1, 170077, Note_on_c, 3, 76, 0
1, 170162, Note_on_c, 3, 76, 59
1, 170177, Note_on_c, 3, 85, 0
1, 170277, Note_on_c, 3, 85, 84
1, 170315, Note_on_c, 3, 76, 0
1, 170402, Note_on_c, 3, 76, 72
1, 170412, Note_on_c, 3, 85, 0
1, 170510, Note_on_c, 3, 85, 65
1, 170562, Note_on_c, 3, 76, 0
1, 170655, Note_on_c, 3, 76, 68
1, 170662, Note_on_c, 3, 85, 0
1, 170720, Note_on_c, 4, 46, 0
1, 170722, Note_on_c, 4, 58, 0
1, 170770, Note_on_c, 3, 85, 66
1, 170797, Note_on_c, 3, 76, 0
1, 170895, Note_on_c, 3, 74, 73
1, 170907, Note_on_c, 4, 59, 77
1, 170920, Note_on_c, 3, 85, 0
1, 170995, Note_on_c, 3, 85, 77
1, 171050, Note_on_c, 3, 74, 0
1, 171142, Note_on_c, 4, 57, 67
1, 171152, Note_on_c, 3, 74, 70
1, 171157, Note_on_c, 4, 59, 0
1, 171172, Note_on_c, 3, 85, 0
1, 171255, Note_on_c, 3, 85, 65
1, 171272, Note_on_c, 4, 57, 0
1, 171295, Note_on_c, 3, 74, 0
1, 171385, Note_on_c, 4, 57, 84
1, 171392, Note_on_c, 3, 74, 55
1, 171420, Note_on_c, 3, 85, 0
1, 171500, Note_on_c, 3, 85, 61
1, 171552, Note_on_c, 3, 74, 0
1, 171625, Note_on_c, 4, 55, 66
1, 171630, Note_on_c, 3, 74, 70
1, 171635, Note_on_c, 3, 85, 0
1, 171640, Note_on_c, 4, 57, 0
1, 171742, Note_on_c, 3, 85, 83
1, 171765, Note_on_c, 4, 55, 0
1, 171795, Note_on_c, 3, 74, 0
1, 171862, Note_on_c, 3, 74, 73
1, 171862, Note_on_c, 4, 55, 88
1, 171867, Note_on_c, 3, 85, 0
1, 171975, Note_on_c, 3, 83, 63
1, 172002, Note_on_c, 3, 74, 0
1, 172087, Note_on_c, 3, 74, 54
1, 172100, Note_on_c, 4, 54, 68
1, 172120, Note_on_c, 4, 55, 0
1, 172125, Note_on_c, 3, 83, 0
1, 172202, Note_on_c, 3, 83, 66
1, 172205, Note_on_c, 4, 54, 0
1, 172235, Note_on_c, 3, 74, 0
1, 172325, Note_on_c, 3, 74, 66
1, 172332, Note_on_c, 3, 83, 0
1, 172345, Note_on_c, 4, 54, 90
1, 172430, Note_on_c, 3, 83, 55
1, 172475, Note_on_c, 3, 74, 0
1, 172560, Note_on_c, 3, 74, 54
1, 172575, Note_on_c, 3, 83, 0
1, 172587, Note_on_c, 4, 53, 67
1, 172600, Note_on_c, 4, 54, 0
1, 172672, Note_on_c, 3, 83, 54
1, 172695, Note_on_c, 3, 74, 0
1, 172700, Note_on_c, 4, 53, 0
1, 172775, Note_on_c, 3, 83, 0
1, 172797, Note_on_c, 3, 73, 84
1, 172817, Note_on_c, 4, 41, 89
1, 172817, Note_on_c, 4, 53, 89
1, 172902, Note_on_c, 3, 83, 59
1, 172942, Note_on_c, 3, 73, 0
1, 173035, Note_on_c, 3, 73, 53
1, 173052, Note_on_c, 3, 83, 0
1, 173147, Note_on_c, 3, 83, 62
1, 173190, Note_on_c, 3, 73, 0
1, 173270, Note_on_c, 3, 83, 0
1, 173275, Note_on_c, 3, 73, 72
1, 173380, Note_on_c, 3, 83, 53
1, 173422, Note_on_c, 3, 73, 0
1, 173507, Note_on_c, 3, 83, 0
1, 173510, Note_on_c, 3, 73, 55
1, 173615, Note_on_c, 3, 83, 68
1, 173685, Note_on_c, 3, 73, 0
1, 173727, Note_on_c, 4, 54, 104
1, 173735, Note_on_c, 3, 83, 0
1, 173740, Note_on_c, 3, 72, 74
1, 173740, Note_on_c, 4, 42, 104
1, 173760, Note_on_c, 4, 41, 0
1, 173762, Note_on_c, 4, 53, 0
1, 173857, Note_on_c, 3, 81, 66
1, 173890, Note_on_c, 3, 72, 0
1, 173987, Note_on_c, 3, 81, 0
1, 173987, Note_on_c, 3, 72, 49
1, 174102, Note_on_c, 3, 81, 56
1, 174150, Note_on_c, 3, 72, 0
1, 174235, Note_on_c, 3, 81, 0
1, 174237, Note_on_c, 3, 72, 67
1, 174345, Note_on_c, 3, 81, 57
1, 174400, Note_on_c, 3, 72, 0
1, 174452, Note_on_c, 4, 54, 0
1, 174455, Note_on_c, 4, 42, 0
1, 174462, Note_on_c, 3, 81, 0
1, 174482, Note_on_c, 3, 72, 50
1, 174607, Note_on_c, 3, 81, 51
1, 174637, Note_on_c, 3, 72, 0
1, 174665, Note_on_c, 3, 81, 0
1, 174742, Note_on_c, 3, 71, 77
1, 174742, Note_on_c, 3, 81, 83
1, 174757, Note_on_c, 4, 55, 32
1, 174865, Note_on_c, 4, 62, 56
1, 174982, Note_on_c, 4, 59, 52
1, 174985, Note_on_c, 3, 79, 61
1, 174987, Note_on_c, 4, 62, 0
1, 175002, Note_on_c, 3, 81, 0
1, 175027, Note_on_c, 4, 55, 0
1, 175050, Note_on_c, 3, 79, 0
1, 175087, Note_on_c, 4, 62, 52
1, 175175, Note_on_c, 4, 59, 0
1, 175195, Note_on_c, 3, 71, 0
1, 175195, Note_on_c, 3, 79, 70
1, 175210, Note_on_c, 4, 62, 0
1, 175217, Note_on_c, 4, 55, 47
1, 175330, Note_on_c, 4, 62, 53
1, 175445, Note_on_c, 4, 62, 0
1, 175452, Note_on_c, 4, 59, 44
1, 175457, Note_on_c, 3, 78, 57
1, 175482, Note_on_c, 3, 79, 0
1, 175502, Note_on_c, 3, 78, 0
1, 175560, Note_on_c, 4, 62, 49
1, 175570, Note_on_c, 4, 55, 0
1, 175622, Note_on_c, 4, 59, 0
1, 175657, Note_on_c, 4, 62, 0
1, 175690, Note_on_c, 4, 55, 60
1, 175697, Note_on_c, 3, 86, 77
1, 175705, Note_on_c, 3, 77, 79
1, 175805, Note_on_c, 4, 62, 50
1, 175925, Note_on_c, 4, 62, 0
1, 175935, Note_on_c, 4, 59, 42
1, 175945, Note_on_c, 3, 85, 62
1, 175967, Note_on_c, 3, 86, 0
1, 176002, Note_on_c, 3, 85, 0
1, 176050, Note_on_c, 4, 62, 48
1, 176055, Note_on_c, 3, 77, 0
1, 176080, Note_on_c, 4, 55, 0
1, 176115, Note_on_c, 4, 59, 0
1, 176152, Note_on_c, 4, 62, 0
1, 176172, Note_on_c, 4, 55, 54
1, 176177, Note_on_c, 3, 85, 70
1, 176285, Note_on_c, 4, 62, 49
1, 176415, Note_on_c, 3, 83, 64
1, 176420, Note_on_c, 4, 62, 0
1, 176420, Note_on_c, 4, 59, 47
1, 176442, Note_on_c, 3, 85, 0
1, 176475, Note_on_c, 3, 83, 0
1, 176535, Note_on_c, 4, 62, 48
1, 176572, Note_on_c, 4, 55, 0
1, 176572, Note_on_c, 4, 59, 0
1, 176620, Note_on_c, 4, 62, 0
1, 176655, Note_on_c, 3, 82, 94
1, 176657, Note_on_c, 3, 79, 79
1, 176667, Note_on_c, 4, 54, 51
1, 176772, Note_on_c, 4, 61, 54
1, 176897, Note_on_c, 4, 58, 39
1, 176902, Note_on_c, 4, 61, 0
1, 176910, Note_on_c, 3, 78, 68
1, 176925, Note_on_c, 3, 79, 0
1, 176967, Note_on_c, 3, 78, 0
1, 177007, Note_on_c, 4, 61, 62
1, 177012, Note_on_c, 4, 54, 0
1, 177050, Note_on_c, 4, 58, 0
1, 177117, Note_on_c, 4, 61, 0
1, 177142, Note_on_c, 3, 78, 60
1, 177167, Note_on_c, 4, 54, 34
1, 177252, Note_on_c, 4, 61, 53
1, 177367, Note_on_c, 4, 58, 47
1, 177387, Note_on_c, 4, 61, 0
1, 177405, Note_on_c, 3, 76, 53
1, 177412, Note_on_c, 3, 78, 0
1, 177445, Note_on_c, 4, 54, 0
1, 177447, Note_on_c, 3, 76, 0
1, 177452, Note_on_c, 3, 82, 0
1, 177507, Note_on_c, 4, 61, 46
1, 177512, Note_on_c, 4, 58, 0
1, 177592, Note_on_c, 4, 61, 0
1, 177640, Note_on_c, 4, 53, 36
1, 177642, Note_on_c, 3, 83, 74
1, 177645, Note_on_c, 3, 74, 70
1, 177777, Note_on_c, 4, 62, 43
1, 177885, Note_on_c, 4, 62, 0
1, 177887, Note_on_c, 3, 73, 68
1, 177892, Note_on_c, 4, 56, 42
1, 177910, Note_on_c, 3, 74, 0
1, 177942, Note_on_c, 4, 53, 0
1, 177955, Note_on_c, 3, 73, 0
1, 178012, Note_on_c, 4, 62, 48
1, 178040, Note_on_c, 4, 56, 0
1, 178102, Note_on_c, 4, 62, 0
1, 178110, Note_on_c, 3, 73, 69
1, 178127, Note_on_c, 4, 53, 59
1, 178242, Note_on_c, 4, 62, 42
1, 178350, Note_on_c, 3, 71, 60
1, 178357, Note_on_c, 4, 56, 49
1, 178360, Note_on_c, 3, 73, 0
1, 178362, Note_on_c, 4, 53, 0
1, 178367, Note_on_c, 3, 83, 0
1, 178372, Note_on_c, 4, 62, 0
1, 178407, Note_on_c, 3, 71, 0
1, 178472, Note_on_c, 4, 62, 59
1, 178485, Note_on_c, 4, 56, 0
1, 178537, Note_on_c, 4, 62, 0
1, 178582, Note_on_c, 3, 76, 77
1, 178590, Note_on_c, 3, 67, 77
1, 178612, Note_on_c, 4, 54, 66
1, 178835, Note_on_c, 3, 66, 63
1, 178837, Note_on_c, 3, 74, 65
1, 178852, Note_on_c, 3, 67, 0
1, 178862, Note_on_c, 3, 76, 0
1, 178887, Note_on_c, 3, 66, 0
1, 178897, Note_on_c, 3, 74, 0
1, 179087, Note_on_c, 3, 74, 68
1, 179090, Note_on_c, 3, 66, 68
1, 179317, Note_on_c, 3, 64, 55
1, 179322, Note_on_c, 3, 73, 55
1, 179362, Note_on_c, 3, 66, 0
1, 179362, Note_on_c, 3, 74, 0
1, 179380, Note_on_c, 3, 64, 0
1, 179380, Note_on_c, 3, 73, 0
1, 179540, Note_on_c, 4, 42, 66
1, 179552, Note_on_c, 3, 64, 59
1, 179552, Note_on_c, 3, 73, 69
1, 179560, Note_on_c, 4, 54, 0
1, 179800, Note_on_c, 3, 71, 57
1, 179800, Note_on_c, 3, 62, 57
1, 179802, Note_on_c, 3, 64, 0
1, 179845, Note_on_c, 3, 73, 0
1, 179845, Note_on_c, 3, 62, 0
1, 179860, Note_on_c, 3, 71, 0
1, 180027, Note_on_c, 3, 71, 66
1, 180027, Note_on_c, 3, 62, 66
1, 180267, Note_on_c, 3, 70, 55
1, 180267, Note_on_c, 3, 61, 55
1, 180287, Note_on_c, 3, 71, 0
1, 180300, Note_on_c, 3, 62, 0
1, 180332, Note_on_c, 4, 42, 0
1, 180335, Note_on_c, 3, 70, 0
1, 180342, Note_on_c, 3, 61, 0
1, 180515, Note_on_c, 3, 70, 82
1, 180515, Note_on_c, 4, 47, 78
1, 180522, Note_on_c, 3, 64, 80
1, 180527, Note_on_c, 3, 61, 82
1, 181005, Note_on_c, 4, 42, 53
1, 181037, Note_on_c, 4, 47, 0
1, 181455, Note_on_c, 3, 64, 0
1, 181460, Note_on_c, 3, 61, 0
1, 181460, Note_on_c, 4, 42, 0
1, 181482, Note_on_c, 3, 70, 0
1, 181493, Note_on_c, 3, 71, 50
1, 181493, Note_on_c, 3, 62, 47
1, 181493, Note_on_c, 4, 35, 53
1, 181780, Note_on_c, 3, 62, 0
1, 181810, Note_on_c, 3, 71, 0
1, 181835, Note_on_c, 4, 35, 0
1, 182402, Note_on_c, 3, 62, 79
1, 182402, Note_on_c, 3, 71, 83
1, 182402, Note_on_c, 3, 66, 90
1, 182402, Note_on_c, 4, 59, 97
1, 182402, Note_on_c, 4, 47, 70
1, 183210, Note_on_c, 3, 66, 0
1, 183215, Note_on_c, 3, 71, 0
1, 183220, Note_on_c, 3, 62, 0
1, 183324, Note_on_c, 3, 72, 77
1, 183324, Note_on_c, 3, 66, 84
1, 183324, Note_on_c, 3, 62, 74
1, 183324, Note_on_c, 4, 57, 60
1, 183324, Note_on_c, 4, 45, 49
1, 183432, Note_on_c, 4, 47, 0
1, 183437, Note_on_c, 4, 59, 0
1, 183497, Note_on_c, 3, 62, 0
1, 183497, Note_on_c, 3, 66, 0
1, 183519, Note_on_c, 3, 72, 0
1, 183611, Note_on_c, 4, 45, 0
1, 183626, Note_on_c, 4, 57, 0
1, 184327, Note_on_c, 4, 55, 52
1, 184335, Note_on_c, 3, 74, 62
1, 184335, Note_on_c, 4, 43, 54
1, 184342, Note_on_c, 3, 71, 46
1, 185035, Note_on_c, 3, 75, 52
1, 185102, Note_on_c, 3, 74, 0
1, 185315, Note_on_c, 3, 72, 49
1, 185315, Note_on_c, 3, 76, 59
1, 185315, Note_on_c, 4, 54, 34
1, 185315, Note_on_c, 4, 42, 33
1, 185317, Note_on_c, 4, 43, 0
1, 185317, Note_on_c, 4, 55, 0
1, 185320, Note_on_c, 3, 71, 0
1, 185322, Note_on_c, 3, 75, 0
1, 185552, Note_on_c, 3, 72, 0
1, 185590, Note_on_c, 3, 76, 0
1, 185650, Note_on_c, 4, 54, 0
1, 185650, Note_on_c, 4, 42, 0
1, 186700, Note_on_c, 3, 74, 94
1, 186735, Note_on_c, 4, 59, 73
1, 186832, Note_on_c, 4, 67, 69
1, 186857, Note_on_c, 4, 59, 0
1, 186947, Note_on_c, 4, 59, 64
1, 186957, Note_on_c, 4, 67, 0
1, 187060, Note_on_c, 4, 67, 66
1, 187092, Note_on_c, 4, 59, 0
1, 187157, Note_on_c, 4, 67, 0
1, 187182, Note_on_c, 4, 57, 73
1, 187205, Note_on_c, 3, 72, 90
1, 187230, Note_on_c, 3, 74, 0
1, 187307, Note_on_c, 4, 67, 47
1, 187345, Note_on_c, 4, 57, 0
1, 187427, Note_on_c, 4, 57, 54
1, 187432, Note_on_c, 4, 67, 0
1, 187550, Note_on_c, 4, 67, 60
1, 187562, Note_on_c, 4, 57, 0
1, 187640, Note_on_c, 4, 67, 0
1, 187675, Note_on_c, 4, 55, 52
1, 187700, Note_on_c, 3, 71, 92
1, 187722, Note_on_c, 3, 72, 0
1, 187797, Note_on_c, 4, 67, 64
1, 187805, Note_on_c, 4, 55, 0
1, 187920, Note_on_c, 4, 67, 0
1, 187920, Note_on_c, 4, 55, 50
1, 188035, Note_on_c, 4, 67, 56
1, 188042, Note_on_c, 4, 55, 0
1, 188077, Note_on_c, 3, 71, 0
1, 188090, Note_on_c, 4, 67, 0
1, 188172, Note_on_c, 4, 60, 78
1, 188175, Note_on_c, 3, 76, 99
1, 188280, Note_on_c, 4, 67, 57
1, 188400, Note_on_c, 4, 66, 49
1, 188417, Note_on_c, 4, 67, 0
1, 188422, Note_on_c, 3, 78, 88
1, 188435, Note_on_c, 3, 76, 0
1, 188497, Note_on_c, 3, 76, 82
1, 188537, Note_on_c, 3, 78, 0
1, 188545, Note_on_c, 4, 67, 38
1, 188575, Note_on_c, 3, 74, 82
1, 188577, Note_on_c, 4, 66, 0
1, 188580, Note_on_c, 4, 60, 0
1, 188585, Note_on_c, 3, 76, 0
1, 188667, Note_on_c, 4, 60, 77
1, 188670, Note_on_c, 3, 76, 86
1, 188685, Note_on_c, 4, 67, 0
1, 188690, Note_on_c, 3, 74, 0
1, 188782, Note_on_c, 4, 67, 49
1, 188890, Note_on_c, 3, 76, 0
1, 188915, Note_on_c, 4, 66, 42
1, 188927, Note_on_c, 3, 78, 94
1, 188937, Note_on_c, 4, 67, 0
1, 188982, Note_on_c, 3, 78, 0
1, 189020, Note_on_c, 4, 60, 0
1, 189045, Note_on_c, 4, 67, 50
1, 189085, Note_on_c, 4, 66, 0
1, 189167, Note_on_c, 4, 60, 77
1, 189182, Note_on_c, 3, 81, 83
1, 189182, Note_on_c, 4, 67, 0
1, 189287, Note_on_c, 4, 67, 59
1, 189400, Note_on_c, 4, 66, 57
1, 189427, Note_on_c, 4, 67, 0
1, 189435, Note_on_c, 3, 79, 78
1, 189442, Note_on_c, 3, 81, 0
1, 189475, Note_on_c, 3, 79, 0
1, 189535, Note_on_c, 4, 67, 55
1, 189565, Note_on_c, 4, 60, 0
1, 189567, Note_on_c, 4, 66, 0
1, 189652, Note_on_c, 4, 67, 0
1, 189660, Note_on_c, 4, 60, 72
1, 189667, Note_on_c, 3, 78, 98
1, 189685, Note_on_c, 3, 78, 0
1, 189767, Note_on_c, 4, 67, 50
1, 189895, Note_on_c, 4, 66, 40
1, 189898, Note_on_c, 3, 76, 92
1, 189927, Note_on_c, 4, 67, 0
1, 189938, Note_on_c, 3, 76, 0
1, 190022, Note_on_c, 4, 60, 0
1, 190030, Note_on_c, 4, 67, 54
1, 190057, Note_on_c, 4, 66, 0
1, 190137, Note_on_c, 3, 74, 96
1, 190147, Note_on_c, 4, 67, 0
1, 190147, Note_on_c, 4, 59, 62
1, 190187, Note_on_c, 3, 74, 0
1, 190250, Note_on_c, 4, 67, 60
1, 190367, Note_on_c, 4, 66, 36
1, 190400, Note_on_c, 4, 67, 0
1, 190487, Note_on_c, 4, 67, 42
1, 190515, Note_on_c, 4, 59, 0
1, 190520, Note_on_c, 4, 66, 0
1, 190532, Note_on_c, 4, 67, 0
1, 190592, Note_on_c, 3, 74, 74
1, 190637, Note_on_c, 4, 59, 60
1, 190725, Note_on_c, 4, 67, 40
1, 190757, Note_on_c, 4, 59, 0
1, 190832, Note_on_c, 4, 67, 0
1, 190857, Note_on_c, 4, 59, 30
1, 190962, Note_on_c, 4, 67, 36
1, 190972, Note_on_c, 4, 59, 0
1, 191050, Note_on_c, 3, 72, 68
1, 191052, Note_on_c, 4, 67, 0
1, 191087, Note_on_c, 3, 74, 0
1, 191087, Note_on_c, 4, 57, 54
1, 191190, Note_on_c, 4, 67, 30
1, 191207, Note_on_c, 4, 57, 0
1, 191295, Note_on_c, 4, 67, 0
1, 191307, Note_on_c, 4, 57, 28
1, 191417, Note_on_c, 4, 67, 32
1, 191422, Note_on_c, 4, 57, 0
1, 191527, Note_on_c, 4, 67, 0
1, 191527, Note_on_c, 4, 55, 46
1, 191530, Note_on_c, 3, 71, 60
1, 191547, Note_on_c, 3, 72, 0
1, 191645, Note_on_c, 4, 67, 30
1, 191677, Note_on_c, 4, 55, 0
1, 191752, Note_on_c, 4, 67, 0
1, 191757, Note_on_c, 4, 55, 34
1, 191872, Note_on_c, 4, 67, 38
1, 191905, Note_on_c, 4, 67, 0
1, 191915, Note_on_c, 4, 55, 0
1, 192015, Note_on_c, 3, 69, 50
1, 192020, Note_on_c, 3, 71, 0
1, 192032, Note_on_c, 4, 48, 34
1, 192127, Note_on_c, 4, 57, 46
1, 192212, Note_on_c, 4, 57, 0
1, 192245, Note_on_c, 4, 52, 51
1, 192275, Note_on_c, 4, 48, 0
1, 192347, Note_on_c, 4, 57, 48
1, 192380, Note_on_c, 3, 76, 62
1, 192407, Note_on_c, 4, 52, 0
1, 192417, Note_on_c, 3, 69, 0
1, 192462, Note_on_c, 4, 57, 0
1, 192487, Note_on_c, 4, 48, 47
1, 192500, Note_on_c, 3, 74, 58
1, 192527, Note_on_c, 3, 76, 0
1, 192600, Note_on_c, 4, 57, 41
1, 192605, Note_on_c, 3, 72, 56
1, 192635, Note_on_c, 3, 74, 0
1, 192720, Note_on_c, 3, 71, 54
1, 192720, Note_on_c, 4, 57, 0
1, 192727, Note_on_c, 4, 52, 52
1, 192742, Note_on_c, 3, 72, 0
1, 192775, Note_on_c, 4, 48, 0
1, 192827, Note_on_c, 3, 69, 50
1, 192835, Note_on_c, 3, 71, 0
1, 192837, Note_on_c, 4, 57, 53
1, 192865, Note_on_c, 4, 52, 0
1, 192875, Note_on_c, 4, 57, 0
1, 192962, Note_on_c, 4, 50, 41
1, 192967, Note_on_c, 3, 67, 58
1, 192982, Note_on_c, 3, 69, 0
1, 193067, Note_on_c, 4, 59, 47
1, 193185, Note_on_c, 4, 59, 0
1, 193187, Note_on_c, 4, 55, 41
1, 193305, Note_on_c, 4, 59, 50
1, 193312, Note_on_c, 4, 50, 0
1, 193330, Note_on_c, 4, 55, 0
1, 193342, Note_on_c, 3, 67, 0
1, 193357, Note_on_c, 4, 59, 0
1, 193412, Note_on_c, 3, 71, 62
1, 193432, Note_on_c, 4, 50, 49
1, 193462, Note_on_c, 3, 69, 60
1, 193472, Note_on_c, 3, 71, 0
1, 193520, Note_on_c, 3, 71, 59
1, 193527, Note_on_c, 3, 69, 0
1, 193530, Note_on_c, 4, 60, 57
1, 193565, Note_on_c, 3, 71, 0
1, 193565, Note_on_c, 3, 69, 59
1, 193610, Note_on_c, 3, 71, 57
1, 193617, Note_on_c, 3, 69, 0
1, 193652, Note_on_c, 4, 60, 0
1, 193655, Note_on_c, 3, 69, 57
1, 193670, Note_on_c, 3, 71, 0
1, 193672, Note_on_c, 4, 54, 40
1, 193715, Note_on_c, 3, 67, 57
1, 193722, Note_on_c, 3, 69, 0
1, 193772, Note_on_c, 4, 60, 48
1, 193782, Note_on_c, 3, 69, 57
1, 193787, Note_on_c, 4, 54, 0
1, 193802, Note_on_c, 3, 67, 0
1, 193805, Note_on_c, 4, 50, 0
1, 193820, Note_on_c, 4, 60, 0
1, 193930, Note_on_c, 3, 67, 59
1, 193940, Note_on_c, 4, 55, 40
1, 193947, Note_on_c, 3, 69, 0
1, 194030, Note_on_c, 4, 62, 44
1, 194055, Note_on_c, 3, 67, 0
1, 194140, Note_on_c, 4, 62, 0
1, 194152, Note_on_c, 4, 59, 46
1, 194255, Note_on_c, 4, 55, 0
1, 194272, Note_on_c, 4, 59, 0
1, 194272, Note_on_c, 4, 62, 29
1, 194310, Note_on_c, 4, 62, 0
1, 194392, Note_on_c, 4, 59, 82
1, 194397, Note_on_c, 3, 74, 92
1, 194512, Note_on_c, 4, 67, 60
1, 194540, Note_on_c, 4, 59, 0
1, 194627, Note_on_c, 4, 67, 0
1, 194627, Note_on_c, 4, 59, 77
1, 194742, Note_on_c, 4, 67, 68
1, 194765, Note_on_c, 4, 59, 0
1, 194855, Note_on_c, 4, 67, 0
1, 194865, Note_on_c, 4, 57, 48
1, 194885, Note_on_c, 3, 72, 94
1, 194902, Note_on_c, 3, 74, 0
1, 195000, Note_on_c, 4, 67, 54
1, 195040, Note_on_c, 4, 57, 0
1, 195125, Note_on_c, 4, 57, 44
1, 195135, Note_on_c, 4, 67, 0
1, 195232, Note_on_c, 4, 67, 48
1, 195260, Note_on_c, 4, 57, 0
1, 195347, Note_on_c, 4, 67, 0
1, 195355, Note_on_c, 4, 55, 50
1, 195370, Note_on_c, 3, 71, 100
1, 195395, Note_on_c, 3, 72, 0
1, 195477, Note_on_c, 4, 67, 56
1, 195512, Note_on_c, 4, 55, 0
1, 195602, Note_on_c, 4, 55, 54
1, 195607, Note_on_c, 4, 67, 0
1, 195715, Note_on_c, 4, 55, 0
1, 195715, Note_on_c, 4, 67, 56
1, 195782, Note_on_c, 4, 67, 0
1, 195852, Note_on_c, 4, 60, 52
1, 195867, Note_on_c, 3, 76, 100
1, 195950, Note_on_c, 3, 71, 0
1, 195955, Note_on_c, 4, 67, 62
1, 196075, Note_on_c, 4, 66, 44
1, 196097, Note_on_c, 4, 67, 0
1, 196127, Note_on_c, 3, 78, 92
1, 196147, Note_on_c, 3, 76, 0
1, 196192, Note_on_c, 4, 67, 60
1, 196197, Note_on_c, 3, 76, 86
1, 196220, Note_on_c, 4, 60, 0
1, 196230, Note_on_c, 4, 66, 0
1, 196235, Note_on_c, 3, 78, 0
1, 196255, Note_on_c, 3, 74, 88
1, 196270, Note_on_c, 3, 76, 0
1, 196320, Note_on_c, 4, 67, 0
1, 196332, Note_on_c, 4, 60, 81
1, 196347, Note_on_c, 3, 76, 94
1, 196367, Note_on_c, 3, 74, 0
1, 196395, Note_on_c, 3, 76, 0
1, 196465, Note_on_c, 4, 67, 54
1, 196595, Note_on_c, 4, 66, 36
1, 196597, Note_on_c, 3, 78, 86
1, 196612, Note_on_c, 4, 67, 0
1, 196632, Note_on_c, 3, 78, 0
1, 196715, Note_on_c, 4, 67, 46
1, 196740, Note_on_c, 4, 60, 0
1, 196757, Note_on_c, 4, 66, 0
1, 196830, Note_on_c, 3, 81, 100
1, 196845, Note_on_c, 4, 60, 68
1, 196860, Note_on_c, 4, 67, 0
1, 196957, Note_on_c, 4, 67, 56
1, 197070, Note_on_c, 3, 79, 98
1, 197082, Note_on_c, 4, 66, 36
1, 197087, Note_on_c, 3, 81, 0
1, 197105, Note_on_c, 4, 60, 0
1, 197107, Note_on_c, 4, 67, 0
1, 197112, Note_on_c, 3, 79, 0
1, 197192, Note_on_c, 4, 67, 46
1, 197220, Note_on_c, 4, 66, 0
1, 197305, Note_on_c, 3, 78, 96
1, 197310, Note_on_c, 4, 60, 75
1, 197332, Note_on_c, 4, 67, 0
1, 197335, Note_on_c, 3, 78, 0
1, 197425, Note_on_c, 4, 67, 60
1, 197540, Note_on_c, 4, 66, 42
1, 197541, Note_on_c, 3, 76, 91
1, 197570, Note_on_c, 4, 67, 0
1, 197577, Note_on_c, 4, 60, 0
1, 197578, Note_on_c, 3, 76, 0
1, 197667, Note_on_c, 4, 67, 54
1, 197702, Note_on_c, 4, 66, 0
1, 197760, Note_on_c, 3, 74, 90
1, 197777, Note_on_c, 4, 67, 0
1, 197777, Note_on_c, 4, 59, 60
1, 197797, Note_on_c, 3, 74, 0
1, 197887, Note_on_c, 4, 67, 54
1, 198022, Note_on_c, 4, 66, 52
1, 198050, Note_on_c, 4, 67, 0
1, 198132, Note_on_c, 4, 67, 60
1, 198152, Note_on_c, 4, 59, 0
1, 198172, Note_on_c, 4, 66, 0
1, 198205, Note_on_c, 4, 67, 0
1, 198262, Note_on_c, 3, 74, 70
1, 198262, Note_on_c, 4, 59, 38
1, 198385, Note_on_c, 4, 67, 30
1, 198405, Note_on_c, 4, 59, 0
1, 198500, Note_on_c, 4, 67, 0
1, 198507, Note_on_c, 4, 59, 39
1, 198617, Note_on_c, 4, 67, 42
1, 198625, Note_on_c, 4, 59, 0
1, 198695, Note_on_c, 4, 67, 0
1, 198735, Note_on_c, 3, 72, 78
1, 198745, Note_on_c, 4, 57, 39
1, 198762, Note_on_c, 3, 74, 0
1, 198852, Note_on_c, 4, 67, 47
1, 198867, Note_on_c, 4, 57, 0
1, 198967, Note_on_c, 4, 67, 0
1, 198972, Note_on_c, 4, 57, 47
1, 199087, Note_on_c, 4, 57, 0
1, 199087, Note_on_c, 4, 67, 41
1, 199200, Note_on_c, 3, 71, 86
1, 199212, Note_on_c, 4, 55, 37
1, 199217, Note_on_c, 4, 67, 0
1, 199232, Note_on_c, 3, 72, 0
1, 199325, Note_on_c, 4, 67, 48
1, 199340, Note_on_c, 4, 55, 0
1, 199440, Note_on_c, 4, 55, 42
1, 199447, Note_on_c, 4, 67, 0
1, 199545, Note_on_c, 4, 67, 62
1, 199577, Note_on_c, 4, 67, 0
1, 199582, Note_on_c, 4, 55, 0
1, 199662, Note_on_c, 3, 69, 92
1, 199682, Note_on_c, 3, 71, 0
1, 199690, Note_on_c, 4, 48, 47
1, 199792, Note_on_c, 4, 57, 53
1, 199870, Note_on_c, 4, 57, 0
1, 199915, Note_on_c, 4, 52, 43
1, 199952, Note_on_c, 4, 48, 0
1, 200020, Note_on_c, 4, 57, 42
1, 200040, Note_on_c, 3, 76, 72
1, 200065, Note_on_c, 3, 69, 0
1, 200072, Note_on_c, 4, 52, 0
1, 200105, Note_on_c, 4, 57, 0
1, 200152, Note_on_c, 4, 48, 45
1, 200175, Note_on_c, 3, 74, 76
1, 200200, Note_on_c, 3, 76, 0
1, 200267, Note_on_c, 4, 57, 43
1, 200285, Note_on_c, 3, 72, 78
1, 200330, Note_on_c, 3, 74, 0
1, 200385, Note_on_c, 4, 57, 0
1, 200397, Note_on_c, 4, 52, 48
1, 200407, Note_on_c, 3, 71, 82
1, 200437, Note_on_c, 3, 72, 0
1, 200510, Note_on_c, 4, 57, 46
1, 200515, Note_on_c, 4, 48, 0
1, 200520, Note_on_c, 3, 69, 84
1, 200525, Note_on_c, 3, 71, 0
1, 200532, Note_on_c, 4, 52, 0
1, 200562, Note_on_c, 4, 57, 0
1, 200650, Note_on_c, 4, 50, 43
1, 200652, Note_on_c, 3, 67, 59
1, 200675, Note_on_c, 3, 69, 0
1, 200760, Note_on_c, 4, 59, 41
1, 200880, Note_on_c, 4, 59, 0
1, 200890, Note_on_c, 4, 55, 47
1, 200927, Note_on_c, 3, 67, 0
1, 201000, Note_on_c, 4, 50, 0
1, 201002, Note_on_c, 4, 59, 35
1, 201032, Note_on_c, 4, 55, 0
1, 201062, Note_on_c, 4, 59, 0
1, 201130, Note_on_c, 3, 71, 88
1, 201132, Note_on_c, 4, 50, 39
1, 201180, Note_on_c, 3, 69, 84
1, 201182, Note_on_c, 3, 71, 0
1, 201230, Note_on_c, 3, 69, 0
1, 201230, Note_on_c, 3, 71, 82
1, 201245, Note_on_c, 4, 60, 58
1, 201267, Note_on_c, 3, 71, 0
1, 201270, Note_on_c, 3, 69, 80
1, 201302, Note_on_c, 3, 71, 80
1, 201310, Note_on_c, 3, 69, 0
1, 201345, Note_on_c, 3, 69, 80
1, 201345, Note_on_c, 4, 60, 0
1, 201355, Note_on_c, 3, 71, 0
1, 201360, Note_on_c, 4, 54, 57
1, 201392, Note_on_c, 3, 67, 80
1, 201392, Note_on_c, 4, 50, 0
1, 201402, Note_on_c, 3, 69, 0
1, 201445, Note_on_c, 4, 54, 0
1, 201472, Note_on_c, 4, 60, 59
1, 201510, Note_on_c, 3, 69, 86
1, 201522, Note_on_c, 3, 67, 0
1, 201532, Note_on_c, 4, 60, 0
1, 201625, Note_on_c, 3, 69, 0
1, 201630, Note_on_c, 3, 67, 68
1, 201645, Note_on_c, 4, 59, 70
1, 201647, Note_on_c, 4, 55, 64
1, 201757, Note_on_c, 3, 69, 40
1, 201777, Note_on_c, 3, 67, 0
1, 201860, Note_on_c, 4, 59, 0
1, 201877, Note_on_c, 3, 67, 54
1, 201887, Note_on_c, 3, 69, 0
1, 201902, Note_on_c, 4, 55, 0
1, 201992, Note_on_c, 3, 66, 54
1, 202012, Note_on_c, 3, 67, 0
1, 202107, Note_on_c, 3, 66, 0
1, 202110, Note_on_c, 3, 67, 55
1, 202222, Note_on_c, 3, 71, 58
1, 202247, Note_on_c, 3, 67, 0
1, 202345, Note_on_c, 3, 69, 55
1, 202355, Note_on_c, 3, 71, 0
1, 202360, Note_on_c, 4, 54, 58
1, 202360, Note_on_c, 4, 62, 58
1, 202445, Note_on_c, 3, 72, 47
1, 202470, Note_on_c, 3, 69, 0
1, 202480, Note_on_c, 4, 62, 0
1, 202487, Note_on_c, 4, 54, 0
1, 202590, Note_on_c, 3, 71, 62
1, 202615, Note_on_c, 4, 55, 68
1, 202615, Note_on_c, 4, 62, 68
1, 202625, Note_on_c, 3, 72, 0
1, 202695, Note_on_c, 3, 69, 57
1, 202720, Note_on_c, 3, 71, 0
1, 202785, Note_on_c, 4, 62, 0
1, 202790, Note_on_c, 4, 55, 0
1, 202807, Note_on_c, 3, 67, 54
1, 202817, Note_on_c, 3, 69, 0
1, 202917, Note_on_c, 3, 66, 53
1, 202935, Note_on_c, 3, 67, 0
1, 203035, Note_on_c, 3, 66, 0
1, 203042, Note_on_c, 3, 67, 59
1, 203147, Note_on_c, 3, 71, 62
1, 203167, Note_on_c, 3, 67, 0
1, 203255, Note_on_c, 3, 69, 52
1, 203275, Note_on_c, 3, 71, 0
1, 203280, Note_on_c, 4, 54, 62
1, 203280, Note_on_c, 4, 62, 62
1, 203380, Note_on_c, 4, 54, 0
1, 203382, Note_on_c, 3, 72, 61
1, 203385, Note_on_c, 4, 62, 0
1, 203415, Note_on_c, 3, 69, 0
1, 203510, Note_on_c, 3, 71, 62
1, 203520, Note_on_c, 4, 62, 70
1, 203520, Note_on_c, 4, 55, 70
1, 203557, Note_on_c, 3, 72, 0
1, 203617, Note_on_c, 3, 69, 59
1, 203650, Note_on_c, 3, 71, 0
1, 203678, Note_on_c, 4, 55, 0
1, 203685, Note_on_c, 4, 62, 0
1, 203730, Note_on_c, 3, 67, 54
1, 203747, Note_on_c, 3, 69, 0
1, 203855, Note_on_c, 3, 66, 40
1, 203860, Note_on_c, 3, 67, 0
1, 203975, Note_on_c, 3, 66, 0
1, 203977, Note_on_c, 3, 67, 55
1, 204100, Note_on_c, 3, 71, 50
1, 204132, Note_on_c, 3, 67, 0
1, 204212, Note_on_c, 3, 69, 58
1, 204232, Note_on_c, 4, 62, 70
1, 204232, Note_on_c, 4, 54, 70
1, 204240, Note_on_c, 3, 71, 0
1, 204319, Note_on_c, 4, 54, 0
1, 204327, Note_on_c, 4, 62, 0
1, 204337, Note_on_c, 3, 72, 50
1, 204365, Note_on_c, 3, 69, 0
1, 204462, Note_on_c, 3, 71, 66
1, 204467, Note_on_c, 4, 62, 72
1, 204467, Note_on_c, 4, 55, 72
1, 204482, Note_on_c, 3, 72, 0
1, 204567, Note_on_c, 4, 55, 0
1, 204572, Note_on_c, 4, 62, 0
1, 204585, Note_on_c, 3, 74, 64
1, 204605, Note_on_c, 3, 71, 0
1, 204705, Note_on_c, 4, 62, 65
1, 204705, Note_on_c, 4, 54, 65
1, 204707, Note_on_c, 3, 72, 57
1, 204742, Note_on_c, 3, 74, 0
1, 204795, Note_on_c, 4, 62, 0
1, 204810, Note_on_c, 3, 69, 52
1, 204812, Note_on_c, 4, 54, 0
1, 204865, Note_on_c, 3, 72, 0
1, 204947, Note_on_c, 3, 71, 64
1, 204960, Note_on_c, 4, 55, 70
1, 204960, Note_on_c, 4, 62, 70
1, 204970, Note_on_c, 3, 69, 0
1, 205012, Note_on_c, 4, 62, 0
1, 205023, Note_on_c, 4, 55, 0
1, 205072, Note_on_c, 3, 74, 59
1, 205087, Note_on_c, 3, 71, 0
1, 205182, Note_on_c, 4, 55, 63
1, 205182, Note_on_c, 4, 52, 63
1, 205190, Note_on_c, 3, 73, 52
1, 205197, Note_on_c, 3, 74, 0
1, 205255, Note_on_c, 4, 52, 0
1, 205267, Note_on_c, 4, 55, 0
1, 205310, Note_on_c, 3, 76, 67
1, 205330, Note_on_c, 3, 73, 0
1, 205435, Note_on_c, 3, 74, 69
1, 205440, Note_on_c, 4, 54, 75
1, 205440, Note_on_c, 4, 57, 75
1, 205457, Note_on_c, 3, 76, 0
1, 205557, Note_on_c, 3, 76, 55
1, 205580, Note_on_c, 3, 74, 0
1, 205625, Note_on_c, 4, 54, 0
1, 205633, Note_on_c, 4, 57, 0
1, 205685, Note_on_c, 3, 74, 52
1, 205695, Note_on_c, 3, 76, 0
1, 205790, Note_on_c, 3, 73, 55
1, 205810, Note_on_c, 3, 74, 0
1, 205907, Note_on_c, 3, 73, 0
1, 205910, Note_on_c, 3, 74, 68
1, 206027, Note_on_c, 3, 78, 61
1, 206125, Note_on_c, 3, 74, 0
1, 206160, Note_on_c, 3, 76, 52
1, 206160, Note_on_c, 4, 57, 51
1, 206160, Note_on_c, 4, 49, 51
1, 206187, Note_on_c, 3, 78, 0
1, 206265, Note_on_c, 4, 49, 0
1, 206275, Note_on_c, 3, 79, 57
1, 206280, Note_on_c, 4, 57, 0
1, 206302, Note_on_c, 3, 76, 0
1, 206400, Note_on_c, 4, 57, 60
1, 206400, Note_on_c, 4, 50, 60
1, 206405, Note_on_c, 3, 78, 73
1, 206440, Note_on_c, 3, 79, 0
1, 206515, Note_on_c, 3, 76, 64
1, 206585, Note_on_c, 3, 78, 0
1, 206610, Note_on_c, 4, 50, 0
1, 206610, Note_on_c, 4, 57, 0
1, 206635, Note_on_c, 3, 74, 59
1, 206645, Note_on_c, 3, 76, 0
1, 206747, Note_on_c, 3, 73, 55
1, 206772, Note_on_c, 3, 74, 0
1, 206890, Note_on_c, 3, 74, 73
1, 206897, Note_on_c, 3, 73, 0
1, 207000, Note_on_c, 3, 78, 62
1, 207105, Note_on_c, 3, 74, 0
1, 207127, Note_on_c, 3, 76, 73
1, 207127, Note_on_c, 4, 57, 55
1, 207127, Note_on_c, 4, 49, 55
1, 207147, Note_on_c, 3, 78, 0
1, 207207, Note_on_c, 4, 49, 0
1, 207220, Note_on_c, 4, 57, 0
1, 207242, Note_on_c, 3, 79, 54
1, 207282, Note_on_c, 3, 76, 0
1, 207360, Note_on_c, 4, 50, 69
1, 207360, Note_on_c, 4, 57, 69
1, 207380, Note_on_c, 3, 78, 79
1, 207427, Note_on_c, 3, 79, 0
1, 207485, Note_on_c, 3, 76, 67
1, 207525, Note_on_c, 3, 78, 0
1, 207560, Note_on_c, 4, 50, 0
1, 207563, Note_on_c, 4, 57, 0
1, 207617, Note_on_c, 3, 74, 60
1, 207625, Note_on_c, 3, 76, 0
1, 207727, Note_on_c, 3, 73, 65
1, 207757, Note_on_c, 3, 74, 0
1, 207850, Note_on_c, 3, 73, 0
1, 207860, Note_on_c, 3, 74, 66
1, 207970, Note_on_c, 3, 76, 72
1, 208022, Note_on_c, 3, 74, 0
1, 208095, Note_on_c, 3, 78, 63
1, 208097, Note_on_c, 4, 59, 57
1, 208097, Note_on_c, 4, 51, 57
1, 208105, Note_on_c, 3, 76, 0
1, 208192, Note_on_c, 4, 51, 0
1, 208212, Note_on_c, 3, 81, 72
1, 208214, Note_on_c, 4, 59, 0
1, 208240, Note_on_c, 3, 78, 0
1, 208332, Note_on_c, 4, 59, 70
1, 208332, Note_on_c, 4, 52, 70
1, 208337, Note_on_c, 3, 79, 66
1, 208347, Note_on_c, 3, 81, 0
1, 208455, Note_on_c, 3, 78, 55
1, 208495, Note_on_c, 3, 79, 0
1, 208514, Note_on_c, 4, 52, 0
1, 208522, Note_on_c, 4, 59, 0
1, 208577, Note_on_c, 3, 76, 59
1, 208597, Note_on_c, 3, 78, 0
1, 208677, Note_on_c, 3, 75, 49
1, 208685, Note_on_c, 3, 76, 0
1, 208795, Note_on_c, 3, 75, 0
1, 208810, Note_on_c, 3, 76, 66
1, 208920, Note_on_c, 3, 78, 55
1, 208950, Note_on_c, 3, 76, 0
1, 209045, Note_on_c, 3, 79, 60
1, 209055, Note_on_c, 4, 59, 75
1, 209055, Note_on_c, 4, 51, 75
1, 209072, Note_on_c, 3, 78, 0
1, 209150, Note_on_c, 4, 51, 0
1, 209157, Note_on_c, 3, 81, 66
1, 209160, Note_on_c, 4, 59, 0
1, 209185, Note_on_c, 3, 79, 0
1, 209292, Note_on_c, 4, 59, 84
1, 209292, Note_on_c, 4, 52, 84
1, 209295, Note_on_c, 3, 79, 79
1, 209322, Note_on_c, 3, 81, 0
1, 209415, Note_on_c, 3, 78, 57
1, 209442, Note_on_c, 3, 79, 0
1, 209480, Note_on_c, 4, 59, 0
1, 209482, Note_on_c, 4, 52, 0
1, 209535, Note_on_c, 3, 76, 59
1, 209542, Note_on_c, 3, 78, 0
1, 209642, Note_on_c, 3, 75, 52
1, 209672, Note_on_c, 3, 76, 0
1, 209762, Note_on_c, 3, 75, 0
1, 209775, Note_on_c, 3, 76, 66
1, 209877, Note_on_c, 3, 78, 59
1, 209905, Note_on_c, 3, 76, 0
1, 210002, Note_on_c, 3, 79, 61
1, 210002, Note_on_c, 4, 52, 87
1, 210002, Note_on_c, 4, 61, 87
1, 210025, Note_on_c, 3, 78, 0
1, 210122, Note_on_c, 3, 83, 77
1, 210130, Note_on_c, 4, 52, 0
1, 210135, Note_on_c, 3, 79, 0
1, 210150, Note_on_c, 4, 61, 0
1, 210255, Note_on_c, 3, 81, 70
1, 210261, Note_on_c, 4, 54, 75
1, 210261, Note_on_c, 4, 62, 75
1, 210280, Note_on_c, 3, 83, 0
1, 210370, Note_on_c, 3, 79, 55
1, 210402, Note_on_c, 3, 81, 0
1, 210429, Note_on_c, 4, 54, 0
1, 210443, Note_on_c, 4, 62, 0
1, 210490, Note_on_c, 3, 78, 48
1, 210515, Note_on_c, 3, 79, 0
1, 210620, Note_on_c, 3, 76, 47
1, 210630, Note_on_c, 3, 78, 0
1, 210735, Note_on_c, 3, 78, 61
1, 210767, Note_on_c, 3, 76, 0
1, 210850, Note_on_c, 3, 79, 66
1, 210962, Note_on_c, 3, 78, 0
1, 210965, Note_on_c, 4, 61, 84
1, 210965, Note_on_c, 4, 52, 84
1, 210975, Note_on_c, 3, 81, 68
1, 211017, Note_on_c, 3, 79, 0
1, 211090, Note_on_c, 3, 83, 86
1, 211092, Note_on_c, 4, 61, 0
1, 211093, Note_on_c, 4, 52, 0
1, 211110, Note_on_c, 3, 81, 0
1, 211216, Note_on_c, 4, 54, 73
1, 211216, Note_on_c, 4, 62, 73
1, 211217, Note_on_c, 3, 81, 78
1, 211245, Note_on_c, 3, 83, 0
1, 211325, Note_on_c, 3, 79, 65
1, 211367, Note_on_c, 3, 81, 0
1, 211396, Note_on_c, 4, 62, 0
1, 211408, Note_on_c, 4, 54, 0
1, 211437, Note_on_c, 3, 78, 64
1, 211465, Note_on_c, 3, 79, 0
1, 211562, Note_on_c, 3, 76, 61
1, 211587, Note_on_c, 3, 78, 0
1, 211690, Note_on_c, 3, 78, 54
1, 211735, Note_on_c, 3, 76, 0
1, 211790, Note_on_c, 3, 79, 57
1, 211910, Note_on_c, 3, 78, 0
1, 211920, Note_on_c, 3, 81, 66
1, 211922, Note_on_c, 4, 66, 90
1, 211947, Note_on_c, 3, 79, 0
1, 212025, Note_on_c, 4, 66, 0
1, 212037, Note_on_c, 3, 84, 59
1, 212060, Note_on_c, 3, 81, 0
1, 212167, Note_on_c, 3, 83, 71
1, 212177, Note_on_c, 4, 67, 86
1, 212182, Note_on_c, 3, 84, 0
1, 212252, Note_on_c, 4, 67, 0
1, 212315, Note_on_c, 3, 86, 69
1, 212330, Note_on_c, 3, 83, 0
1, 212420, Note_on_c, 3, 81, 69
1, 212420, Note_on_c, 4, 66, 77
1, 212455, Note_on_c, 3, 86, 0
1, 212490, Note_on_c, 4, 66, 0
1, 212522, Note_on_c, 3, 86, 75
1, 212540, Note_on_c, 3, 81, 0
1, 212652, Note_on_c, 3, 83, 74
1, 212652, Note_on_c, 4, 67, 88
1, 212662, Note_on_c, 3, 86, 0
1, 212700, Note_on_c, 4, 67, 0
1, 212767, Note_on_c, 3, 86, 61
1, 212782, Note_on_c, 3, 83, 0
1, 212890, Note_on_c, 3, 78, 73
1, 212915, Note_on_c, 3, 86, 0
1, 212915, Note_on_c, 4, 63, 94
1, 212995, Note_on_c, 3, 83, 62
1, 213000, Note_on_c, 4, 63, 0
1, 213012, Note_on_c, 3, 78, 0
1, 213130, Note_on_c, 3, 79, 78
1, 213137, Note_on_c, 3, 83, 0
1, 213140, Note_on_c, 4, 64, 94
1, 213212, Note_on_c, 4, 64, 0
1, 213245, Note_on_c, 3, 83, 62
1, 213260, Note_on_c, 3, 79, 0
1, 213367, Note_on_c, 3, 78, 74
1, 213367, Note_on_c, 4, 63, 90
1, 213385, Note_on_c, 3, 83, 0
1, 213472, Note_on_c, 4, 63, 0
1, 213480, Note_on_c, 3, 83, 66
1, 213492, Note_on_c, 3, 78, 0
1, 213602, Note_on_c, 3, 79, 86
1, 213615, Note_on_c, 4, 64, 75
1, 213627, Note_on_c, 3, 83, 0
1, 213672, Note_on_c, 4, 64, 0
1, 213722, Note_on_c, 3, 83, 47
1, 213750, Note_on_c, 3, 79, 0
1, 213847, Note_on_c, 3, 76, 70
1, 213852, Note_on_c, 4, 61, 88
1, 213882, Note_on_c, 3, 83, 0
1, 213952, Note_on_c, 4, 61, 0
1, 213965, Note_on_c, 3, 81, 65
1, 214025, Note_on_c, 3, 76, 0
1, 214082, Note_on_c, 3, 78, 68
1, 214092, Note_on_c, 4, 62, 73
1, 214110, Note_on_c, 3, 81, 0
1, 214190, Note_on_c, 3, 81, 63
1, 214192, Note_on_c, 4, 62, 0
1, 214232, Note_on_c, 3, 78, 0
1, 214332, Note_on_c, 4, 61, 83
1, 214337, Note_on_c, 3, 81, 0
1, 214337, Note_on_c, 3, 76, 77
1, 214442, Note_on_c, 3, 81, 61
1, 214447, Note_on_c, 4, 61, 0
1, 214495, Note_on_c, 3, 76, 0
1, 214567, Note_on_c, 3, 78, 59
1, 214572, Note_on_c, 4, 62, 73
1, 214590, Note_on_c, 3, 81, 0
1, 214637, Note_on_c, 4, 62, 0
1, 214682, Note_on_c, 3, 81, 68
1, 214712, Note_on_c, 3, 78, 0
1, 214750, Note_on_c, 3, 81, 0
1, 214795, Note_on_c, 3, 73, 73
1, 214807, Note_on_c, 4, 58, 88
1, 214910, Note_on_c, 4, 58, 0
1, 214920, Note_on_c, 3, 78, 56
1, 214935, Note_on_c, 3, 73, 0
1, 215035, Note_on_c, 3, 78, 0
1, 215035, Note_on_c, 4, 59, 88
1, 215047, Note_on_c, 3, 74, 84
1, 215127, Note_on_c, 4, 59, 0
1, 215165, Note_on_c, 3, 78, 74
1, 215202, Note_on_c, 3, 74, 0
1, 215280, Note_on_c, 4, 58, 83
1, 215295, Note_on_c, 3, 73, 68
1, 215322, Note_on_c, 3, 78, 0
1, 215412, Note_on_c, 4, 58, 0
1, 215415, Note_on_c, 3, 78, 59
1, 215435, Note_on_c, 3, 73, 0
1, 215527, Note_on_c, 4, 59, 70
1, 215530, Note_on_c, 3, 78, 0
1, 215532, Note_on_c, 3, 74, 81
1, 215595, Note_on_c, 4, 59, 0
1, 215637, Note_on_c, 3, 78, 57
1, 215682, Note_on_c, 3, 74, 0
1, 215770, Note_on_c, 3, 75, 68
1, 215770, Note_on_c, 4, 57, 60
1, 215770, Note_on_c, 4, 60, 60
1, 215787, Note_on_c, 3, 78, 0
1, 215872, Note_on_c, 3, 78, 70
1, 215900, Note_on_c, 3, 75, 0
1, 215997, Note_on_c, 3, 76, 79
1, 216015, Note_on_c, 3, 78, 0
1, 216020, Note_on_c, 4, 59, 69
1, 216020, Note_on_c, 4, 55, 69
1, 216070, Note_on_c, 4, 60, 0
1, 216070, Note_on_c, 4, 57, 0
1, 216110, Note_on_c, 3, 75, 57
1, 216130, Note_on_c, 3, 76, 0
1, 216230, Note_on_c, 3, 75, 0
1, 216242, Note_on_c, 3, 76, 59
1, 216245, Note_on_c, 4, 59, 0
1, 216245, Note_on_c, 4, 55, 0
1, 216342, Note_on_c, 3, 78, 53
1, 216357, Note_on_c, 3, 76, 0
1, 216475, Note_on_c, 3, 79, 69
1, 216487, Note_on_c, 3, 78, 0
1, 216587, Note_on_c, 3, 78, 62
1, 216610, Note_on_c, 3, 79, 0
1, 216695, Note_on_c, 3, 78, 0
1, 216712, Note_on_c, 3, 79, 51
1, 216830, Note_on_c, 3, 81, 64
1, 216850, Note_on_c, 3, 79, 0
1, 216960, Note_on_c, 4, 64, 90
1, 216962, Note_on_c, 3, 83, 74
1, 216962, Note_on_c, 4, 55, 73
1, 216970, Note_on_c, 3, 81, 0
1, 217072, Note_on_c, 4, 55, 0
1, 217072, Note_on_c, 4, 64, 0
1, 217080, Note_on_c, 3, 85, 66
1, 217102, Note_on_c, 3, 83, 0
1, 217200, Note_on_c, 4, 64, 69
1, 217202, Note_on_c, 3, 86, 68
1, 217207, Note_on_c, 4, 55, 69
1, 217232, Note_on_c, 3, 85, 0
1, 217292, Note_on_c, 4, 64, 0
1, 217315, Note_on_c, 4, 55, 0
1, 217317, Note_on_c, 3, 85, 69
1, 217355, Note_on_c, 3, 86, 0
1, 217430, Note_on_c, 3, 83, 68
1, 217437, Note_on_c, 4, 64, 69
1, 217440, Note_on_c, 4, 55, 69
1, 217460, Note_on_c, 3, 85, 0
1, 217530, Note_on_c, 4, 55, 0
1, 217532, Note_on_c, 4, 64, 0
1, 217547, Note_on_c, 3, 81, 60
1, 217577, Note_on_c, 3, 83, 0
1, 217670, Note_on_c, 3, 79, 57
1, 217675, Note_on_c, 4, 55, 64
1, 217675, Note_on_c, 4, 64, 72
1, 217687, Note_on_c, 3, 81, 0
1, 217767, Note_on_c, 4, 64, 0
1, 217772, Note_on_c, 4, 55, 0
1, 217785, Note_on_c, 3, 78, 75
1, 217802, Note_on_c, 3, 79, 0
1, 217905, Note_on_c, 3, 76, 79
1, 217910, Note_on_c, 4, 64, 83
1, 217917, Note_on_c, 4, 55, 81
1, 217932, Note_on_c, 3, 78, 0
1, 217992, Note_on_c, 4, 64, 0
1, 218000, Note_on_c, 4, 55, 0
1, 218035, Note_on_c, 3, 78, 88
1, 218057, Note_on_c, 3, 76, 0
1, 218137, Note_on_c, 4, 64, 92
1, 218140, Note_on_c, 4, 55, 84
1, 218155, Note_on_c, 3, 79, 97
1, 218187, Note_on_c, 3, 78, 0
1, 218222, Note_on_c, 4, 55, 0
1, 218222, Note_on_c, 4, 64, 0
1, 218275, Note_on_c, 3, 78, 89
1, 218327, Note_on_c, 3, 79, 0
1, 218390, Note_on_c, 3, 76, 91
1, 218397, Note_on_c, 4, 64, 75
1, 218397, Note_on_c, 4, 56, 83
1, 218447, Note_on_c, 3, 78, 0
1, 218450, Note_on_c, 4, 64, 0
1, 218455, Note_on_c, 4, 56, 0
1, 218507, Note_on_c, 3, 74, 86
1, 218512, Note_on_c, 3, 76, 0
1, 218637, Note_on_c, 4, 64, 73
1, 218640, Note_on_c, 4, 56, 73
1, 218642, Note_on_c, 3, 73, 77
1, 218655, Note_on_c, 3, 74, 0
1, 218705, Note_on_c, 4, 64, 0
1, 218720, Note_on_c, 4, 56, 0
1, 218775, Note_on_c, 3, 71, 82
1, 218782, Note_on_c, 3, 73, 0
1, 218885, Note_on_c, 3, 71, 0
1, 218890, Note_on_c, 3, 73, 93
1, 218897, Note_on_c, 4, 57, 93
1, 218950, Note_on_c, 4, 57, 0
1, 218985, Note_on_c, 3, 74, 75
1, 219022, Note_on_c, 3, 73, 0
1, 219127, Note_on_c, 3, 73, 91
1, 219132, Note_on_c, 4, 55, 78
1, 219142, Note_on_c, 3, 74, 0
1, 219180, Note_on_c, 4, 55, 0
1, 219240, Note_on_c, 3, 73, 0
1, 219242, Note_on_c, 3, 69, 63
1, 219362, Note_on_c, 4, 54, 90
1, 219367, Note_on_c, 3, 69, 0
1, 219375, Note_on_c, 3, 74, 100
1, 219412, Note_on_c, 4, 54, 0
1, 219460, Note_on_c, 3, 74, 0
1, 219607, Note_on_c, 4, 50, 83
1, 219660, Note_on_c, 4, 50, 0
1, 219837, Note_on_c, 3, 79, 86
1, 219857, Note_on_c, 4, 49, 108
1, 219907, Note_on_c, 4, 49, 0
1, 219947, Note_on_c, 3, 81, 69
1, 219972, Note_on_c, 3, 79, 0
1, 220082, Note_on_c, 3, 79, 86
1, 220087, Note_on_c, 4, 45, 74
1, 220100, Note_on_c, 3, 81, 0
1, 220130, Note_on_c, 4, 45, 0
1, 220190, Note_on_c, 3, 76, 57
1, 220195, Note_on_c, 3, 79, 0
1, 220317, Note_on_c, 3, 79, 95
1, 220327, Note_on_c, 4, 50, 79
1, 220330, Note_on_c, 3, 76, 0
1, 220375, Note_on_c, 4, 50, 0
1, 220430, Note_on_c, 3, 78, 86
1, 220470, Note_on_c, 3, 79, 0
1, 220547, Note_on_c, 3, 76, 84
1, 220565, Note_on_c, 4, 54, 86
1, 220567, Note_on_c, 3, 78, 0
1, 220612, Note_on_c, 4, 54, 0
1, 220670, Note_on_c, 3, 74, 71
1, 220687, Note_on_c, 3, 76, 0
1, 220787, Note_on_c, 3, 74, 0
1, 220800, Note_on_c, 3, 73, 102
1, 220802, Note_on_c, 4, 57, 91
1, 220852, Note_on_c, 4, 57, 0
1, 220910, Note_on_c, 3, 74, 66
1, 220937, Note_on_c, 3, 73, 0
1, 221027, Note_on_c, 3, 73, 86
1, 221040, Note_on_c, 4, 55, 73
1, 221060, Note_on_c, 3, 74, 0
1, 221105, Note_on_c, 4, 55, 0
1, 221145, Note_on_c, 3, 69, 71
1, 221170, Note_on_c, 3, 73, 0
1, 221272, Note_on_c, 4, 54, 90
1, 221280, Note_on_c, 3, 74, 102
1, 221282, Note_on_c, 3, 69, 0
1, 221355, Note_on_c, 4, 54, 0
1, 221370, Note_on_c, 3, 74, 0
1, 221532, Note_on_c, 4, 50, 83
1, 221597, Note_on_c, 4, 50, 0
1, 221777, Note_on_c, 3, 79, 99
1, 221792, Note_on_c, 4, 49, 112
1, 221852, Note_on_c, 4, 49, 0
1, 221897, Note_on_c, 3, 81, 70
1, 221922, Note_on_c, 3, 79, 0
1, 222017, Note_on_c, 3, 79, 66
1, 222027, Note_on_c, 4, 45, 77
1, 222042, Note_on_c, 3, 81, 0
1, 222107, Note_on_c, 4, 45, 0
1, 222130, Note_on_c, 3, 76, 73
1, 222142, Note_on_c, 3, 79, 0
1, 222260, Note_on_c, 3, 79, 90
1, 222265, Note_on_c, 4, 50, 75
1, 222275, Note_on_c, 3, 76, 0
1, 222345, Note_on_c, 4, 50, 0
1, 222377, Note_on_c, 3, 78, 83
1, 222410, Note_on_c, 3, 79, 0
1, 222472, Note_on_c, 3, 76, 62
1, 222482, Note_on_c, 3, 78, 0
1, 222505, Note_on_c, 4, 54, 94
1, 222540, Note_on_c, 4, 54, 0
1, 222612, Note_on_c, 3, 74, 66
1, 222630, Note_on_c, 3, 76, 0
1, 222727, Note_on_c, 3, 73, 112
1, 222740, Note_on_c, 4, 57, 72
1, 222740, Note_on_c, 4, 52, 72
1, 222740, Note_on_c, 4, 45, 72
1, 222742, Note_on_c, 3, 74, 0
1, 222835, Note_on_c, 3, 76, 75
1, 222862, Note_on_c, 3, 73, 0
1, 222962, Note_on_c, 3, 73, 70
1, 222970, Note_on_c, 4, 52, 0
1, 222992, Note_on_c, 3, 76, 0
1, 222992, Note_on_c, 4, 45, 0
1, 223010, Note_on_c, 4, 57, 0
1, 223075, Note_on_c, 3, 69, 51
1, 223085, Note_on_c, 3, 73, 0
1, 223192, Note_on_c, 3, 69, 0
1, 223200, Note_on_c, 3, 78, 112
1, 223205, Note_on_c, 4, 57, 102
1, 223205, Note_on_c, 4, 50, 102
1, 223207, Note_on_c, 4, 54, 102
1, 223310, Note_on_c, 3, 81, 83
1, 223335, Note_on_c, 3, 78, 0
1, 223437, Note_on_c, 3, 78, 78
1, 223452, Note_on_c, 4, 50, 0
1, 223457, Note_on_c, 4, 54, 0
1, 223477, Note_on_c, 3, 81, 0
1, 223482, Note_on_c, 4, 57, 0
1, 223545, Note_on_c, 3, 74, 70
1, 223570, Note_on_c, 3, 78, 0
1, 223625, Note_on_c, 3, 74, 0
1, 223677, Note_on_c, 4, 52, 70
1, 223677, Note_on_c, 4, 57, 70
1, 223680, Note_on_c, 4, 45, 70
1, 223682, Note_on_c, 3, 73, 94
1, 223795, Note_on_c, 3, 76, 69
1, 223817, Note_on_c, 3, 73, 0
1, 223922, Note_on_c, 3, 73, 48
1, 223937, Note_on_c, 4, 45, 0
1, 223937, Note_on_c, 4, 52, 0
1, 223957, Note_on_c, 3, 76, 0
1, 223960, Note_on_c, 4, 57, 0
1, 224042, Note_on_c, 3, 69, 57
1, 224045, Note_on_c, 3, 73, 0
1, 224097, Note_on_c, 3, 69, 0
1, 224157, Note_on_c, 4, 50, 92
1, 224160, Note_on_c, 4, 54, 92
1, 224160, Note_on_c, 4, 57, 92
1, 224162, Note_on_c, 3, 78, 108
1, 224275, Note_on_c, 3, 81, 70
1, 224295, Note_on_c, 3, 78, 0
1, 224397, Note_on_c, 3, 78, 75
1, 224430, Note_on_c, 3, 81, 0
1, 224485, Note_on_c, 4, 50, 0
1, 224495, Note_on_c, 4, 54, 0
1, 224512, Note_on_c, 4, 57, 0
1, 224515, Note_on_c, 3, 74, 55
1, 224527, Note_on_c, 3, 78, 0
1, 224577, Note_on_c, 3, 74, 0
1, 224652, Note_on_c, 3, 73, 67
1, 224652, Note_on_c, 3, 76, 83
1, 224690, Note_on_c, 3, 73, 0
1, 224700, Note_on_c, 3, 76, 0
1, 224895, Note_on_c, 3, 76, 90
1, 224895, Note_on_c, 3, 73, 90
1, 224895, Note_on_c, 3, 81, 90
1, 224895, Note_on_c, 4, 52, 80
1, 224895, Note_on_c, 4, 57, 80
1, 224895, Note_on_c, 4, 49, 80
1, 224895, Note_on_c, 4, 45, 80
1, 224927, Note_on_c, 3, 76, 0
1, 224932, Note_on_c, 3, 73, 0
1, 224947, Note_on_c, 4, 45, 0
1, 224955, Note_on_c, 4, 49, 0
1, 224955, Note_on_c, 4, 52, 0
1, 224967, Note_on_c, 3, 81, 0
1, 224968, Note_on_c, 4, 57, 0
1, 225143, Note_on_c, 3, 76, 93
1, 225143, Note_on_c, 3, 81, 93
1, 225143, Note_on_c, 3, 73, 93
1, 225143, Note_on_c, 4, 45, 84
1, 225143, Note_on_c, 4, 57, 84
1, 225143, Note_on_c, 4, 52, 84
1, 225143, Note_on_c, 4, 49, 84
1, 225170, Note_on_c, 3, 76, 0
1, 225175, Note_on_c, 3, 73, 0
1, 225193, Note_on_c, 3, 81, 0
1, 225193, Note_on_c, 4, 45, 0
1, 225203, Note_on_c, 4, 52, 0
1, 225210, Note_on_c, 4, 49, 0
1, 225215, Note_on_c, 4, 57, 0
1, 225380, Note_on_c, 3, 73, 106
1, 225380, Note_on_c, 3, 81, 106
1, 225380, Note_on_c, 3, 76, 106
1, 225380, Note_on_c, 4, 52, 124
1, 225380, Note_on_c, 4, 45, 124
1, 225380, Note_on_c, 4, 57, 124
1, 225380, Note_on_c, 4, 49, 124
1, 225408, Note_on_c, 3, 76, 0
1, 225413, Note_on_c, 3, 73, 0
1, 225420, Note_on_c, 3, 81, 0
1, 225430, Note_on_c, 4, 45, 0
1, 225445, Note_on_c, 4, 52, 0
1, 225450, Note_on_c, 4, 49, 0
1, 225463, Note_on_c, 4, 57, 0
1, 225638, Note_on_c, 3, 76, 122
1, 225638, Note_on_c, 3, 81, 122
1, 225638, Note_on_c, 3, 73, 122
1, 225638, Note_on_c, 4, 52, 127
1, 225638, Note_on_c, 4, 45, 127
1, 225638, Note_on_c, 4, 49, 127
1, 225638, Note_on_c, 4, 57, 127
1, 225665, Note_on_c, 3, 76, 0
1, 225668, Note_on_c, 3, 73, 0
1, 225698, Note_on_c, 3, 81, 0
1, 225733, Note_on_c, 4, 52, 0
1, 225736, Note_on_c, 4, 49, 0
1, 225738, Note_on_c, 4, 45, 0
1, 225745, Note_on_c, 4, 57, 0
1, 225965, Note_on_c, 3, 79, 91
1, 226062, Note_on_c, 3, 78, 86
1, 226135, Note_on_c, 3, 79, 0
1, 226200, Note_on_c, 3, 76, 84
1, 226299, Note_on_c, 3, 78, 0
1, 226337, Note_on_c, 3, 78, 86
1, 226380, Note_on_c, 3, 76, 0
1, 226460, Note_on_c, 3, 79, 91
1, 226497, Note_on_c, 3, 78, 0
1, 226560, Note_on_c, 3, 80, 86
1, 226560, Note_on_c, 3, 80, 86
1, 226572, Note_on_c, 4, 62, 38
1, 226668, Note_on_c, 3, 79, 0
1, 226802, Note_on_c, 4, 66, 37
1, 226810, Note_on_c, 3, 81, 68
1, 226813, Note_on_c, 3, 80, 0
1, 226813, Note_on_c, 3, 80, 0
1, 226832, Note_on_c, 4, 62, 0
1, 226867, Note_on_c, 3, 81, 0
1, 227025, Note_on_c, 4, 64, 40
1, 227052, Note_on_c, 4, 66, 0
1, 227295, Note_on_c, 4, 67, 41
1, 227312, Note_on_c, 3, 81, 66
1, 227327, Note_on_c, 4, 64, 0
1, 227355, Note_on_c, 3, 81, 0
1, 227532, Note_on_c, 4, 67, 0
1, 227542, Note_on_c, 4, 66, 50
1, 227550, Note_on_c, 3, 86, 65
1, 227792, Note_on_c, 4, 69, 44
1, 227805, Note_on_c, 3, 85, 51
1, 227807, Note_on_c, 4, 66, 0
1, 227827, Note_on_c, 3, 86, 0
1, 228025, Note_on_c, 4, 69, 0
1, 228040, Note_on_c, 4, 62, 37
1, 228042, Note_on_c, 3, 83, 55
1, 228095, Note_on_c, 3, 85, 0
1, 228262, Note_on_c, 3, 81, 61
1, 228280, Note_on_c, 4, 66, 33
1, 228282, Note_on_c, 3, 83, 0
1, 228305, Note_on_c, 4, 62, 0
1, 228482, Note_on_c, 3, 78, 82
1, 228497, Note_on_c, 3, 81, 0
1, 228515, Note_on_c, 4, 66, 0
1, 228522, Note_on_c, 4, 64, 45
1, 228722, Note_on_c, 3, 79, 57
1, 228750, Note_on_c, 3, 78, 0
1, 228755, Note_on_c, 4, 71, 54
1, 228785, Note_on_c, 3, 79, 0
1, 228937, Note_on_c, 4, 64, 0
1, 228967, Note_on_c, 4, 71, 0
1, 228972, Note_on_c, 4, 67, 39
1, 229197, Note_on_c, 3, 79, 64
1, 229225, Note_on_c, 4, 64, 49
1, 229227, Note_on_c, 4, 67, 0
1, 229242, Note_on_c, 3, 79, 0
1, 229275, Note_on_c, 4, 64, 0
1, 229432, Note_on_c, 3, 81, 70
1, 229435, Note_on_c, 4, 61, 59
1, 229660, Note_on_c, 4, 64, 57
1, 229690, Note_on_c, 3, 79, 49
1, 229690, Note_on_c, 4, 61, 0
1, 229702, Note_on_c, 3, 81, 0
1, 229895, Note_on_c, 4, 64, 0
1, 229895, Note_on_c, 4, 57, 38
1, 229927, Note_on_c, 3, 78, 57
1, 229950, Note_on_c, 3, 79, 0
1, 230147, Note_on_c, 4, 67, 48
1, 230167, Note_on_c, 3, 76, 49
1, 230192, Note_on_c, 4, 57, 0
1, 230197, Note_on_c, 3, 78, 0
1, 230400, Note_on_c, 3, 73, 80
1, 230400, Note_on_c, 4, 66, 50
1, 230402, Note_on_c, 3, 76, 0
1, 230407, Note_on_c, 4, 67, 0
1, 230637, Note_on_c, 4, 69, 52
1, 230642, Note_on_c, 3, 74, 62
1, 230665, Note_on_c, 3, 73, 0
1, 230684, Note_on_c, 4, 66, 0
1, 230720, Note_on_c, 3, 74, 0
1, 230835, Note_on_c, 4, 69, 0
1, 230880, Note_on_c, 4, 61, 57
1, 231125, Note_on_c, 4, 69, 49
1, 231127, Note_on_c, 3, 76, 72
1, 231160, Note_on_c, 4, 61, 0
1, 231187, Note_on_c, 3, 76, 0
1, 231312, Note_on_c, 4, 69, 0
1, 231357, Note_on_c, 4, 62, 42
1, 231377, Note_on_c, 3, 77, 80
1, 231612, Note_on_c, 4, 69, 49
1, 231617, Note_on_c, 3, 78, 52
1, 231637, Note_on_c, 3, 77, 0
1, 231665, Note_on_c, 4, 62, 0
1, 231722, Note_on_c, 4, 69, 0
1, 231730, Note_on_c, 3, 78, 0
1, 231847, Note_on_c, 4, 59, 39
1, 232092, Note_on_c, 4, 62, 47
1, 232100, Note_on_c, 3, 81, 78
1, 232132, Note_on_c, 4, 59, 0
1, 232202, Note_on_c, 3, 79, 78
1, 232220, Note_on_c, 3, 81, 0
1, 232250, Note_on_c, 3, 79, 0
1, 232250, Note_on_c, 4, 62, 0
1, 232327, Note_on_c, 4, 57, 47
1, 232355, Note_on_c, 3, 78, 84
1, 232575, Note_on_c, 4, 62, 44
1, 232812, Note_on_c, 4, 66, 46
1, 232837, Note_on_c, 4, 62, 0
1, 233050, Note_on_c, 4, 62, 58
1, 233065, Note_on_c, 3, 79, 86
1, 233085, Note_on_c, 4, 66, 0
1, 233095, Note_on_c, 3, 78, 0
1, 233095, Note_on_c, 4, 57, 0
1, 233100, Note_on_c, 4, 62, 0
1, 233170, Note_on_c, 3, 78, 78
1, 233195, Note_on_c, 3, 79, 0
1, 233295, Note_on_c, 3, 76, 70
1, 233295, Note_on_c, 4, 61, 46
1, 233305, Note_on_c, 4, 57, 42
1, 233315, Note_on_c, 3, 78, 0
1, 233360, Note_on_c, 3, 76, 0
1, 233427, Note_on_c, 4, 57, 0
1, 233435, Note_on_c, 4, 61, 0
1, 233530, Note_on_c, 3, 78, 63
1, 233582, Note_on_c, 3, 78, 0
1, 233767, Note_on_c, 3, 79, 68
1, 233810, Note_on_c, 3, 79, 0
1, 234015, Note_on_c, 3, 80, 80
1, 234052, Note_on_c, 3, 80, 0
1, 234250, Note_on_c, 3, 80, 90
1, 234260, Note_on_c, 4, 62, 38
1, 234485, Note_on_c, 3, 81, 61
1, 234485, Note_on_c, 4, 65, 53
1, 234515, Note_on_c, 3, 80, 0
1, 234565, Note_on_c, 3, 81, 0
1, 234717, Note_on_c, 4, 64, 57
1, 234735, Note_on_c, 4, 65, 0
1, 234735, Note_on_c, 4, 62, 0
1, 234972, Note_on_c, 4, 67, 45
1, 234975, Note_on_c, 3, 81, 61
1, 234995, Note_on_c, 4, 64, 0
1, 235010, Note_on_c, 3, 81, 0
1, 235207, Note_on_c, 3, 86, 64
1, 235225, Note_on_c, 4, 65, 50
1, 235240, Note_on_c, 4, 67, 0
1, 235445, Note_on_c, 3, 84, 67
1, 235460, Note_on_c, 4, 69, 46
1, 235465, Note_on_c, 3, 86, 0
1, 235470, Note_on_c, 4, 65, 0
1, 235675, Note_on_c, 3, 82, 54
1, 235675, Note_on_c, 4, 62, 38
1, 235702, Note_on_c, 3, 84, 0
1, 235720, Note_on_c, 4, 69, 0
1, 235917, Note_on_c, 4, 65, 39
1, 235922, Note_on_c, 3, 81, 58
1, 235932, Note_on_c, 4, 62, 0
1, 235935, Note_on_c, 3, 82, 0
1, 236125, Note_on_c, 4, 65, 0
1, 236160, Note_on_c, 3, 78, 64
1, 236160, Note_on_c, 4, 64, 51
1, 236170, Note_on_c, 3, 81, 0
1, 236380, Note_on_c, 4, 70, 46
1, 236385, Note_on_c, 3, 79, 62
1, 236410, Note_on_c, 4, 64, 0
1, 236433, Note_on_c, 3, 78, 0
1, 236467, Note_on_c, 3, 79, 0
1, 236610, Note_on_c, 4, 67, 41
1, 236685, Note_on_c, 4, 70, 0
1, 236870, Note_on_c, 4, 64, 43
1, 236875, Note_on_c, 4, 67, 0
1, 236887, Note_on_c, 3, 81, 82
1, 236947, Note_on_c, 3, 79, 77
1, 236972, Note_on_c, 3, 81, 0
1, 236997, Note_on_c, 3, 78, 75
1, 237035, Note_on_c, 3, 79, 0
1, 237060, Note_on_c, 3, 79, 79
1, 237075, Note_on_c, 3, 78, 0
1, 237117, Note_on_c, 3, 81, 84
1, 237125, Note_on_c, 4, 61, 46
1, 237127, Note_on_c, 4, 64, 0
1, 237130, Note_on_c, 3, 79, 0
1, 237365, Note_on_c, 3, 79, 62
1, 237370, Note_on_c, 4, 64, 52
1, 237382, Note_on_c, 3, 81, 0
1, 237405, Note_on_c, 4, 61, 0
1, 237585, Note_on_c, 4, 64, 0
1, 237587, Note_on_c, 4, 57, 47
1, 237602, Note_on_c, 3, 77, 70
1, 237620, Note_on_c, 3, 79, 0
1, 237850, Note_on_c, 3, 76, 56
1, 237850, Note_on_c, 4, 61, 47
1, 237862, Note_on_c, 4, 57, 0
1, 237867, Note_on_c, 3, 77, 0
1, 238087, Note_on_c, 4, 62, 44
1, 238092, Note_on_c, 3, 79, 69
1, 238092, Note_on_c, 4, 61, 0
1, 238102, Note_on_c, 3, 76, 0
1, 238325, Note_on_c, 4, 69, 51
1, 238342, Note_on_c, 3, 77, 52
1, 238362, Note_on_c, 3, 79, 0
1, 238372, Note_on_c, 4, 62, 0
1, 238395, Note_on_c, 3, 77, 0
1, 238527, Note_on_c, 4, 69, 0
1, 238565, Note_on_c, 4, 60, 44
1, 238812, Note_on_c, 4, 69, 51
1, 238832, Note_on_c, 3, 76, 63
1, 238855, Note_on_c, 4, 60, 0
1, 238880, Note_on_c, 4, 69, 0
1, 238885, Note_on_c, 3, 76, 0
1, 239047, Note_on_c, 4, 58, 50
1, 239072, Note_on_c, 3, 73, 73
1, 239292, Note_on_c, 4, 65, 57
1, 239315, Note_on_c, 3, 74, 66
1, 239340, Note_on_c, 3, 73, 0
1, 239392, Note_on_c, 3, 74, 0
1, 239520, Note_on_c, 4, 65, 0
1, 239535, Note_on_c, 4, 64, 73
1, 239555, Note_on_c, 4, 58, 0
1, 239772, Note_on_c, 4, 64, 0
1, 239787, Note_on_c, 4, 62, 79
1, 239790, Note_on_c, 3, 80, 70
1, 239830, Note_on_c, 3, 80, 0
1, 239877, Note_on_c, 4, 62, 0
1, 240025, Note_on_c, 3, 80, 83
1, 240042, Note_on_c, 4, 57, 67
1, 240270, Note_on_c, 4, 62, 69
1, 240515, Note_on_c, 4, 65, 66
1, 240542, Note_on_c, 4, 62, 0
1, 240752, Note_on_c, 4, 62, 58
1, 240767, Note_on_c, 4, 65, 0
1, 240825, Note_on_c, 4, 57, 0
1, 240830, Note_on_c, 4, 62, 0
1, 240982, Note_on_c, 3, 80, 0
1, 240985, Note_on_c, 3, 81, 63
1, 240985, Note_on_c, 4, 57, 49
1, 240985, Note_on_c, 4, 61, 49
1, 241108, Note_on_c, 4, 57, 0
1, 241125, Note_on_c, 4, 61, 0
1, 241190, Note_on_c, 3, 81, 0
1, 241237, Note_on_c, 4, 43, 118
1, 241237, Note_on_c, 4, 55, 118
1, 241387, Note_on_c, 4, 55, 0
1, 241387, Note_on_c, 4, 43, 0
1, 241482, Note_on_c, 4, 54, 120
1, 241482, Note_on_c, 4, 42, 120
1, 241635, Note_on_c, 4, 42, 0
1, 241635, Note_on_c, 4, 54, 0
1, 241720, Note_on_c, 4, 52, 120
1, 241720, Note_on_c, 4, 40, 120
1, 241876, Note_on_c, 4, 40, 0
1, 241876, Note_on_c, 4, 52, 0
1, 241945, Note_on_c, 3, 78, 108
1, 241950, Note_on_c, 4, 38, 120
1, 241950, Note_on_c, 4, 50, 120
1, 241987, Note_on_c, 3, 78, 0
1, 242070, Note_on_c, 3, 81, 64
1, 242115, Note_on_c, 4, 50, 0
1, 242115, Note_on_c, 4, 38, 0
1, 242195, Note_on_c, 3, 80, 42
1, 242212, Note_on_c, 3, 81, 0
1, 242302, Note_on_c, 3, 81, 49
1, 242325, Note_on_c, 3, 80, 0
1, 242422, Note_on_c, 3, 83, 66
1, 242445, Note_on_c, 3, 81, 0
1, 242540, Note_on_c, 3, 81, 60
1, 242562, Note_on_c, 3, 83, 0
1, 242652, Note_on_c, 3, 80, 41
1, 242660, Note_on_c, 4, 74, 112
1, 242667, Note_on_c, 3, 81, 0
1, 242747, Note_on_c, 4, 74, 0
1, 242770, Note_on_c, 3, 81, 54
1, 242790, Note_on_c, 3, 80, 0
1, 242895, Note_on_c, 4, 76, 84
1, 242900, Note_on_c, 3, 79, 66
1, 242917, Note_on_c, 3, 81, 0
1, 242972, Note_on_c, 4, 76, 0
1, 243020, Note_on_c, 3, 81, 45
1, 243047, Note_on_c, 3, 79, 0
1, 243135, Note_on_c, 3, 79, 49
1, 243135, Note_on_c, 4, 74, 75
1, 243145, Note_on_c, 3, 81, 0
1, 243192, Note_on_c, 4, 74, 0
1, 243247, Note_on_c, 3, 81, 47
1, 243265, Note_on_c, 3, 79, 0
1, 243360, Note_on_c, 4, 73, 88
1, 243365, Note_on_c, 3, 79, 56
1, 243375, Note_on_c, 3, 81, 0
1, 243440, Note_on_c, 4, 73, 0
1, 243482, Note_on_c, 3, 81, 45
1, 243502, Note_on_c, 3, 79, 0
1, 243600, Note_on_c, 3, 81, 0
1, 243600, Note_on_c, 4, 69, 84
1, 243602, Note_on_c, 3, 79, 54
1, 243675, Note_on_c, 4, 69, 0
1, 243717, Note_on_c, 3, 81, 45
1, 243732, Note_on_c, 3, 79, 0
1, 243830, Note_on_c, 4, 74, 94
1, 243837, Note_on_c, 3, 78, 70
1, 243855, Note_on_c, 3, 81, 0
1, 243875, Note_on_c, 3, 78, 0
1, 243947, Note_on_c, 4, 74, 0
1, 243967, Note_on_c, 3, 81, 44
1, 244087, Note_on_c, 3, 80, 53
1, 244107, Note_on_c, 3, 81, 0
1, 244195, Note_on_c, 3, 81, 63
1, 244220, Note_on_c, 3, 80, 0
1, 244312, Note_on_c, 3, 83, 70
1, 244342, Note_on_c, 3, 81, 0
1, 244437, Note_on_c, 3, 81, 54
1, 244482, Note_on_c, 3, 83, 0
1, 244552, Note_on_c, 4, 62, 89
1, 244555, Note_on_c, 3, 80, 39
1, 244572, Note_on_c, 3, 81, 0
1, 244635, Note_on_c, 4, 62, 0
1, 244667, Note_on_c, 3, 81, 55
1, 244690, Note_on_c, 3, 80, 0
1, 244785, Note_on_c, 3, 79, 69
1, 244800, Note_on_c, 4, 64, 86
1, 244802, Note_on_c, 3, 81, 0
1, 244892, Note_on_c, 4, 64, 0
1, 244907, Note_on_c, 3, 81, 54
1, 244932, Note_on_c, 3, 79, 0
1, 245035, Note_on_c, 3, 79, 55
1, 245035, Note_on_c, 4, 62, 83
1, 245045, Note_on_c, 3, 81, 0
1, 245145, Note_on_c, 3, 81, 56
1, 245152, Note_on_c, 4, 62, 0
1, 245162, Note_on_c, 3, 79, 0
1, 245270, Note_on_c, 4, 61, 87
1, 245277, Note_on_c, 3, 81, 0
1, 245277, Note_on_c, 3, 79, 59
1, 245372, Note_on_c, 4, 61, 0
1, 245387, Note_on_c, 3, 81, 58
1, 245407, Note_on_c, 3, 79, 0
1, 245512, Note_on_c, 3, 79, 61
1, 245512, Note_on_c, 4, 57, 93
1, 245530, Note_on_c, 3, 81, 0
1, 245585, Note_on_c, 4, 57, 0
1, 245630, Note_on_c, 3, 81, 51
1, 245642, Note_on_c, 3, 79, 0
1, 245760, Note_on_c, 3, 78, 63
1, 245760, Note_on_c, 4, 62, 75
1, 245802, Note_on_c, 3, 81, 0
1, 245842, Note_on_c, 4, 62, 0
1, 245857, Note_on_c, 4, 69, 81
1, 245927, Note_on_c, 4, 69, 0
1, 245945, Note_on_c, 3, 78, 0
1, 245982, Note_on_c, 4, 68, 70
1, 245997, Note_on_c, 4, 68, 0
1, 246070, Note_on_c, 4, 69, 83
1, 246165, Note_on_c, 4, 69, 0
1, 246207, Note_on_c, 4, 71, 73
1, 246320, Note_on_c, 4, 71, 0
1, 246320, Note_on_c, 4, 69, 67
1, 246460, Note_on_c, 4, 68, 75
1, 246467, Note_on_c, 4, 69, 0
1, 246480, Note_on_c, 3, 86, 82
1, 246517, Note_on_c, 3, 86, 0
1, 246595, Note_on_c, 4, 69, 46
1, 246600, Note_on_c, 4, 68, 0
1, 246720, Note_on_c, 3, 88, 99
1, 246722, Note_on_c, 4, 69, 0
1, 246722, Note_on_c, 4, 67, 61
1, 246765, Note_on_c, 3, 88, 0
1, 246845, Note_on_c, 4, 69, 46
1, 246865, Note_on_c, 4, 67, 0
1, 246960, Note_on_c, 4, 67, 54
1, 246967, Note_on_c, 4, 69, 0
1, 246970, Note_on_c, 3, 86, 83
1, 247012, Note_on_c, 3, 86, 0
1, 247085, Note_on_c, 4, 69, 41
1, 247117, Note_on_c, 4, 67, 0
1, 247200, Note_on_c, 3, 85, 102
1, 247217, Note_on_c, 4, 69, 0
1, 247217, Note_on_c, 4, 67, 61
1, 247252, Note_on_c, 3, 85, 0
1, 247332, Note_on_c, 4, 69, 42
1, 247372, Note_on_c, 4, 67, 0
1, 247450, Note_on_c, 3, 81, 77
1, 247462, Note_on_c, 4, 69, 0
1, 247467, Note_on_c, 4, 67, 61
1, 247490, Note_on_c, 3, 81, 0
1, 247572, Note_on_c, 4, 69, 59
1, 247592, Note_on_c, 4, 67, 0
1, 247680, Note_on_c, 3, 86, 97
1, 247695, Note_on_c, 4, 66, 84
1, 247700, Note_on_c, 4, 69, 0
1, 247740, Note_on_c, 4, 66, 0
1, 247800, Note_on_c, 3, 86, 0
1, 247805, Note_on_c, 4, 69, 73
1, 247932, Note_on_c, 4, 68, 59
1, 247945, Note_on_c, 4, 69, 0
1, 248040, Note_on_c, 4, 69, 64
1, 248080, Note_on_c, 4, 68, 0
1, 248160, Note_on_c, 4, 71, 77
1, 248182, Note_on_c, 4, 69, 0
1, 248275, Note_on_c, 4, 69, 62
1, 248310, Note_on_c, 4, 71, 0
1, 248397, Note_on_c, 3, 50, 84
1, 248400, Note_on_c, 4, 68, 49
1, 248407, Note_on_c, 4, 69, 0
1, 248465, Note_on_c, 3, 50, 0
1, 248512, Note_on_c, 4, 69, 55
1, 248532, Note_on_c, 4, 68, 0
1, 248627, Note_on_c, 4, 67, 69
1, 248642, Note_on_c, 3, 52, 97
1, 248642, Note_on_c, 4, 69, 0
1, 248717, Note_on_c, 3, 52, 0
1, 248745, Note_on_c, 4, 69, 40
1, 248760, Note_on_c, 4, 67, 0
1, 248867, Note_on_c, 4, 69, 0
1, 248867, Note_on_c, 4, 67, 46
1, 248897, Note_on_c, 3, 50, 88
1, 248947, Note_on_c, 3, 50, 0
1, 249002, Note_on_c, 4, 69, 55
1, 249010, Note_on_c, 4, 67, 0
1, 249125, Note_on_c, 4, 67, 48
1, 249127, Note_on_c, 4, 69, 0
1, 249135, Note_on_c, 3, 49, 82
1, 249185, Note_on_c, 3, 49, 0
1, 249237, Note_on_c, 4, 69, 40
1, 249260, Note_on_c, 4, 67, 0
1, 249375, Note_on_c, 3, 45, 80
1, 249375, Note_on_c, 4, 67, 44
1, 249380, Note_on_c, 4, 69, 0
1, 249425, Note_on_c, 3, 45, 0
1, 249495, Note_on_c, 4, 67, 0
1, 249495, Note_on_c, 4, 69, 35
1, 249607, Note_on_c, 3, 50, 94
1, 249612, Note_on_c, 4, 66, 30
1, 249612, Note_on_c, 4, 66, 30
1, 249630, Note_on_c, 4, 69, 0
1, 249737, Note_on_c, 4, 66, 0
1, 249737, Note_on_c, 4, 66, 0
1, 249747, Note_on_c, 3, 50, 0
1, 250075, Note_on_c, 3, 81, 62
1, 250075, Note_on_c, 4, 66, 42
1, 250200, Note_on_c, 4, 74, 45
1, 250212, Note_on_c, 4, 66, 0
1, 250307, Note_on_c, 4, 74, 0
1, 250312, Note_on_c, 4, 66, 38
1, 250432, Note_on_c, 4, 66, 0
1, 250432, Note_on_c, 4, 74, 39
1, 250527, Note_on_c, 4, 74, 0
1, 250545, Note_on_c, 3, 79, 46
1, 250552, Note_on_c, 3, 81, 0
1, 250552, Note_on_c, 4, 64, 47
1, 250665, Note_on_c, 4, 74, 44
1, 250680, Note_on_c, 4, 64, 0
1, 250790, Note_on_c, 4, 74, 0
1, 250795, Note_on_c, 4, 64, 34
1, 250895, Note_on_c, 4, 64, 0
1, 250905, Note_on_c, 4, 74, 36
1, 250987, Note_on_c, 4, 74, 0
1, 251015, Note_on_c, 3, 78, 52
1, 251027, Note_on_c, 4, 62, 45
1, 251040, Note_on_c, 3, 79, 0
1, 251135, Note_on_c, 4, 74, 48
1, 251147, Note_on_c, 4, 62, 0
1, 251240, Note_on_c, 4, 74, 0
1, 251275, Note_on_c, 4, 62, 30
1, 251377, Note_on_c, 4, 62, 0
1, 251385, Note_on_c, 4, 74, 41
1, 251450, Note_on_c, 4, 74, 0
1, 251470, Note_on_c, 3, 78, 0
1, 251502, Note_on_c, 4, 67, 55
1, 251517, Note_on_c, 3, 83, 73
1, 251632, Note_on_c, 4, 74, 35
1, 251737, Note_on_c, 4, 73, 50
1, 251760, Note_on_c, 3, 85, 64
1, 251760, Note_on_c, 4, 74, 0
1, 251777, Note_on_c, 3, 83, 0
1, 251832, Note_on_c, 4, 67, 0
1, 251835, Note_on_c, 3, 83, 59
1, 251847, Note_on_c, 3, 85, 0
1, 251875, Note_on_c, 4, 74, 39
1, 251900, Note_on_c, 4, 73, 0
1, 251917, Note_on_c, 3, 81, 57
1, 251930, Note_on_c, 3, 83, 0
1, 252000, Note_on_c, 4, 74, 0
1, 252002, Note_on_c, 4, 67, 46
1, 252017, Note_on_c, 3, 83, 66
1, 252042, Note_on_c, 3, 81, 0
1, 252067, Note_on_c, 3, 83, 0
1, 252132, Note_on_c, 4, 74, 39
1, 252245, Note_on_c, 4, 73, 49
1, 252262, Note_on_c, 4, 74, 0
1, 252267, Note_on_c, 3, 85, 69
1, 252300, Note_on_c, 4, 67, 0
1, 252302, Note_on_c, 3, 85, 0
1, 252372, Note_on_c, 4, 74, 40
1, 252400, Note_on_c, 4, 73, 0
1, 252500, Note_on_c, 3, 88, 75
1, 252500, Note_on_c, 4, 74, 0
1, 252512, Note_on_c, 4, 67, 49
1, 252622, Note_on_c, 4, 74, 41
1, 252727, Note_on_c, 3, 86, 68
1, 252727, Note_on_c, 4, 73, 51
1, 252742, Note_on_c, 3, 88, 0
1, 252752, Note_on_c, 4, 74, 0
1, 252770, Note_on_c, 3, 86, 0
1, 252832, Note_on_c, 4, 67, 0
1, 252845, Note_on_c, 4, 74, 37
1, 252877, Note_on_c, 4, 73, 0
1, 252972, Note_on_c, 3, 85, 73
1, 252972, Note_on_c, 4, 74, 0
1, 252980, Note_on_c, 4, 67, 46
1, 253007, Note_on_c, 3, 85, 0
1, 253085, Note_on_c, 4, 74, 40
1, 253195, Note_on_c, 4, 73, 50
1, 253220, Note_on_c, 4, 74, 0
1, 253222, Note_on_c, 3, 83, 62
1, 253255, Note_on_c, 3, 83, 0
1, 253325, Note_on_c, 4, 67, 0
1, 253349, Note_on_c, 4, 73, 0
1, 253349, Note_on_c, 4, 74, 42
1, 253349, Note_on_c, 4, 74, 42
1, 253452, Note_on_c, 4, 66, 58
1, 253469, Note_on_c, 4, 74, 0
1, 253469, Note_on_c, 4, 74, 0
1, 253470, Note_on_c, 3, 81, 80
1, 253490, Note_on_c, 3, 81, 0
1, 253545, Note_on_c, 4, 74, 60
1, 253677, Note_on_c, 4, 73, 53
1, 253692, Note_on_c, 4, 74, 0
1, 253765, Note_on_c, 4, 66, 0
1, 253807, Note_on_c, 4, 74, 64
1, 253835, Note_on_c, 4, 73, 0
1, 253867, Note_on_c, 4, 74, 0
1, 253932, Note_on_c, 3, 81, 106
1, 253932, Note_on_c, 4, 66, 80
1, 254035, Note_on_c, 4, 74, 65
1, 254060, Note_on_c, 4, 66, 0
1, 254150, Note_on_c, 4, 66, 80
1, 254165, Note_on_c, 4, 74, 0
1, 254270, Note_on_c, 4, 74, 67
1, 254297, Note_on_c, 4, 66, 0
1, 254350, Note_on_c, 4, 74, 0
1, 254387, Note_on_c, 4, 64, 71
1, 254387, Note_on_c, 4, 64, 71
1, 254400, Note_on_c, 3, 79, 97
1, 254410, Note_on_c, 3, 81, 0
1, 254492, Note_on_c, 4, 74, 53
1, 254520, Note_on_c, 4, 64, 0
1, 254520, Note_on_c, 4, 64, 0
1, 254625, Note_on_c, 4, 64, 69
1, 254632, Note_on_c, 4, 74, 0
1, 254745, Note_on_c, 4, 74, 49
1, 254767, Note_on_c, 4, 64, 0
1, 254852, Note_on_c, 4, 74, 0
1, 254857, Note_on_c, 3, 78, 89
1, 254860, Note_on_c, 4, 62, 69
1, 254887, Note_on_c, 3, 79, 0
1, 254980, Note_on_c, 4, 74, 55
1, 255000, Note_on_c, 4, 62, 0
1, 255105, Note_on_c, 4, 74, 0
1, 255105, Note_on_c, 4, 62, 62
1, 255220, Note_on_c, 4, 74, 51
1, 255255, Note_on_c, 4, 74, 0
1, 255272, Note_on_c, 4, 62, 0
1, 255347, Note_on_c, 4, 55, 63
1, 255350, Note_on_c, 3, 76, 95
1, 255370, Note_on_c, 3, 78, 0
1, 255472, Note_on_c, 4, 64, 66
1, 255582, Note_on_c, 4, 59, 66
1, 255597, Note_on_c, 4, 64, 0
1, 255685, Note_on_c, 4, 64, 68
1, 255692, Note_on_c, 4, 55, 0
1, 255722, Note_on_c, 3, 83, 95
1, 255735, Note_on_c, 3, 76, 0
1, 255785, Note_on_c, 4, 59, 0
1, 255807, Note_on_c, 4, 64, 0
1, 255830, Note_on_c, 4, 55, 69
1, 255857, Note_on_c, 3, 81, 82
1, 255875, Note_on_c, 3, 83, 0
1, 255955, Note_on_c, 3, 79, 84
1, 255962, Note_on_c, 4, 64, 66
1, 255990, Note_on_c, 3, 81, 0
1, 256072, Note_on_c, 3, 78, 88
1, 256087, Note_on_c, 4, 59, 83
1, 256097, Note_on_c, 3, 79, 0
1, 256110, Note_on_c, 4, 64, 0
1, 256182, Note_on_c, 3, 76, 91
1, 256195, Note_on_c, 3, 78, 0
1, 256200, Note_on_c, 4, 64, 66
1, 256205, Note_on_c, 4, 55, 0
1, 256220, Note_on_c, 4, 59, 0
1, 256255, Note_on_c, 4, 64, 0
1, 256312, Note_on_c, 3, 74, 95
1, 256320, Note_on_c, 4, 57, 68
1, 256330, Note_on_c, 3, 76, 0
1, 256432, Note_on_c, 4, 66, 83
1, 256560, Note_on_c, 4, 62, 66
1, 256580, Note_on_c, 4, 66, 0
1, 256667, Note_on_c, 4, 66, 53
1, 256697, Note_on_c, 3, 74, 0
1, 256707, Note_on_c, 4, 62, 0
1, 256717, Note_on_c, 4, 57, 0
1, 256750, Note_on_c, 4, 66, 0
1, 256792, Note_on_c, 3, 78, 84
1, 256797, Note_on_c, 4, 57, 53
1, 256842, Note_on_c, 3, 78, 0
1, 256845, Note_on_c, 3, 76, 79
1, 256890, Note_on_c, 3, 78, 75
1, 256895, Note_on_c, 3, 76, 0
1, 256910, Note_on_c, 4, 67, 70
1, 256927, Note_on_c, 3, 78, 0
1, 256940, Note_on_c, 3, 76, 71
1, 256970, Note_on_c, 3, 78, 71
1, 256980, Note_on_c, 3, 76, 0
1, 257015, Note_on_c, 3, 76, 69
1, 257020, Note_on_c, 3, 78, 0
1, 257040, Note_on_c, 4, 61, 68
1, 257060, Note_on_c, 4, 67, 0
1, 257062, Note_on_c, 3, 74, 68
1, 257067, Note_on_c, 3, 76, 0
1, 257157, Note_on_c, 4, 61, 0
1, 257157, Note_on_c, 4, 67, 52
1, 257165, Note_on_c, 3, 76, 68
1, 257177, Note_on_c, 3, 74, 0
1, 257187, Note_on_c, 4, 57, 0
1, 257207, Note_on_c, 4, 67, 0
1, 257280, Note_on_c, 4, 62, 70
1, 257292, Note_on_c, 3, 74, 80
1, 257292, Note_on_c, 3, 74, 97
1, 257302, Note_on_c, 3, 76, 0
1, 257362, Note_on_c, 3, 74, 0
1, 257362, Note_on_c, 3, 74, 0
1, 257395, Note_on_c, 4, 66, 55
1, 257440, Note_on_c, 4, 62, 0
1, 257530, Note_on_c, 4, 62, 56
1, 257532, Note_on_c, 4, 66, 0
1, 257632, Note_on_c, 4, 62, 0
1, 257640, Note_on_c, 4, 66, 31
1, 257665, Note_on_c, 4, 66, 0
1, 257755, Note_on_c, 3, 69, 57
1, 257770, Note_on_c, 4, 54, 56
1, 257880, Note_on_c, 4, 62, 45
1, 257895, Note_on_c, 4, 54, 0
1, 257980, Note_on_c, 4, 62, 0
1, 258000, Note_on_c, 4, 54, 39
1, 258120, Note_on_c, 4, 62, 47
1, 258130, Note_on_c, 4, 54, 0
1, 258157, Note_on_c, 4, 62, 0
1, 258237, Note_on_c, 3, 67, 47
1, 258240, Note_on_c, 4, 52, 49
1, 258255, Note_on_c, 3, 69, 0
1, 258365, Note_on_c, 4, 62, 39
1, 258375, Note_on_c, 4, 52, 0
1, 258470, Note_on_c, 4, 62, 0
1, 258477, Note_on_c, 4, 52, 34
1, 258592, Note_on_c, 4, 52, 0
1, 258600, Note_on_c, 4, 62, 47
1, 258700, Note_on_c, 4, 62, 0
1, 258707, Note_on_c, 4, 50, 44
1, 258747, Note_on_c, 3, 66, 48
1, 258772, Note_on_c, 3, 67, 0
1, 258822, Note_on_c, 4, 62, 52
1, 258880, Note_on_c, 4, 50, 0
1, 258955, Note_on_c, 4, 50, 52
1, 258960, Note_on_c, 4, 62, 0
1, 259075, Note_on_c, 4, 50, 0
1, 259075, Note_on_c, 4, 62, 38
1, 259152, Note_on_c, 4, 62, 0
1, 259192, Note_on_c, 4, 55, 55
1, 259197, Note_on_c, 3, 71, 68
1, 259205, Note_on_c, 3, 66, 0
1, 259307, Note_on_c, 4, 62, 46
1, 259435, Note_on_c, 3, 73, 66
1, 259435, Note_on_c, 4, 61, 44
1, 259442, Note_on_c, 3, 71, 0
1, 259445, Note_on_c, 4, 62, 0
1, 259507, Note_on_c, 3, 71, 62
1, 259507, Note_on_c, 4, 55, 0
1, 259522, Note_on_c, 3, 73, 0
1, 259560, Note_on_c, 4, 62, 40
1, 259572, Note_on_c, 3, 69, 60
1, 259582, Note_on_c, 3, 71, 0
1, 259600, Note_on_c, 4, 61, 0
1, 259680, Note_on_c, 3, 69, 0
1, 259680, Note_on_c, 3, 71, 66
1, 259692, Note_on_c, 4, 55, 39
1, 259695, Note_on_c, 4, 62, 0
1, 259705, Note_on_c, 3, 71, 0
1, 259805, Note_on_c, 4, 62, 39
1, 259917, Note_on_c, 4, 61, 49
1, 259930, Note_on_c, 3, 73, 64
1, 259942, Note_on_c, 4, 62, 0
1, 259960, Note_on_c, 4, 55, 0
1, 259965, Note_on_c, 3, 73, 0
1, 260040, Note_on_c, 4, 62, 42
1, 260072, Note_on_c, 4, 61, 0
1, 260167, Note_on_c, 3, 76, 65
1, 260167, Note_on_c, 4, 62, 0
1, 260167, Note_on_c, 4, 55, 44
1, 260277, Note_on_c, 4, 62, 51
1, 260395, Note_on_c, 4, 61, 47
1, 260410, Note_on_c, 3, 74, 58
1, 260412, Note_on_c, 4, 62, 0
1, 260427, Note_on_c, 3, 76, 0
1, 260447, Note_on_c, 3, 74, 0
1, 260497, Note_on_c, 4, 55, 0
1, 260525, Note_on_c, 4, 62, 52
1, 260555, Note_on_c, 4, 61, 0
1, 260647, Note_on_c, 4, 62, 0
1, 260647, Note_on_c, 4, 55, 42
1, 260660, Note_on_c, 3, 73, 77
1, 260687, Note_on_c, 3, 73, 0
1, 260767, Note_on_c, 4, 62, 48
1, 260890, Note_on_c, 4, 61, 53
1, 260905, Note_on_c, 4, 62, 0
1, 260907, Note_on_c, 3, 71, 75
1, 260932, Note_on_c, 3, 71, 0
1, 261012, Note_on_c, 4, 62, 47
1, 261017, Note_on_c, 4, 55, 0
1, 261042, Note_on_c, 4, 61, 0
1, 261052, Note_on_c, 4, 62, 0
1, 261142, Note_on_c, 3, 69, 79
1, 261152, Note_on_c, 4, 54, 53
1, 261175, Note_on_c, 3, 69, 0
1, 261272, Note_on_c, 4, 62, 42
1, 261370, Note_on_c, 4, 62, 0
1, 261370, Note_on_c, 4, 61, 48
1, 261480, Note_on_c, 4, 62, 59
1, 261487, Note_on_c, 4, 61, 0
1, 261507, Note_on_c, 4, 54, 0
1, 261507, Note_on_c, 4, 62, 0
1, 261607, Note_on_c, 3, 81, 82
1, 261607, Note_on_c, 4, 42, 109
1, 261615, Note_on_c, 3, 69, 82
1, 261727, Note_on_c, 4, 50, 79
1, 261732, Note_on_c, 4, 52, 79
1, 261780, Note_on_c, 4, 42, 0
1, 261785, Note_on_c, 4, 52, 0
1, 261840, Note_on_c, 4, 42, 106
1, 261867, Note_on_c, 4, 50, 0
1, 261967, Note_on_c, 4, 50, 68
1, 262037, Note_on_c, 4, 42, 0
1, 262080, Note_on_c, 3, 79, 84
1, 262080, Note_on_c, 3, 67, 84
1, 262080, Note_on_c, 4, 40, 98
1, 262090, Note_on_c, 3, 69, 0
1, 262092, Note_on_c, 4, 50, 0
1, 262107, Note_on_c, 3, 81, 0
1, 262205, Note_on_c, 4, 50, 64
1, 262265, Note_on_c, 4, 40, 0
1, 262327, Note_on_c, 4, 40, 95
1, 262345, Note_on_c, 4, 50, 0
1, 262440, Note_on_c, 4, 50, 62
1, 262537, Note_on_c, 4, 40, 0
1, 262562, Note_on_c, 4, 38, 93
1, 262567, Note_on_c, 4, 50, 0
1, 262575, Note_on_c, 3, 66, 94
1, 262575, Note_on_c, 3, 78, 94
1, 262590, Note_on_c, 3, 79, 0
1, 262595, Note_on_c, 3, 67, 0
1, 262675, Note_on_c, 4, 50, 52
1, 262782, Note_on_c, 4, 38, 0
1, 262802, Note_on_c, 4, 50, 0
1, 262802, Note_on_c, 4, 38, 86
1, 262920, Note_on_c, 4, 50, 51
1, 263005, Note_on_c, 4, 50, 0
1, 263012, Note_on_c, 4, 38, 0
1, 263040, Note_on_c, 4, 43, 98
1, 263055, Note_on_c, 3, 66, 0
1, 263070, Note_on_c, 3, 76, 95
1, 263080, Note_on_c, 3, 64, 95
1, 263098, Note_on_c, 3, 78, 0
1, 263160, Note_on_c, 4, 52, 66
1, 263300, Note_on_c, 4, 47, 66
1, 263325, Note_on_c, 4, 52, 0
1, 263377, Note_on_c, 4, 43, 0
1, 263412, Note_on_c, 4, 52, 80
1, 263425, Note_on_c, 3, 64, 0
1, 263425, Note_on_c, 3, 83, 91
1, 263445, Note_on_c, 3, 76, 0
1, 263452, Note_on_c, 4, 47, 0
1, 263537, Note_on_c, 4, 52, 0
1, 263537, Note_on_c, 4, 43, 95
1, 263552, Note_on_c, 3, 81, 75
1, 263567, Note_on_c, 3, 83, 0
1, 263645, Note_on_c, 4, 52, 70
1, 263650, Note_on_c, 3, 79, 79
1, 263735, Note_on_c, 3, 81, 0
1, 263775, Note_on_c, 3, 78, 82
1, 263780, Note_on_c, 4, 47, 62
1, 263792, Note_on_c, 4, 52, 0
1, 263807, Note_on_c, 3, 79, 0
1, 263885, Note_on_c, 3, 76, 86
1, 263892, Note_on_c, 4, 52, 68
1, 263895, Note_on_c, 3, 78, 0
1, 263920, Note_on_c, 4, 47, 0
1, 263932, Note_on_c, 4, 43, 0
1, 263952, Note_on_c, 4, 52, 0
1, 264015, Note_on_c, 3, 74, 91
1, 264015, Note_on_c, 4, 45, 95
1, 264032, Note_on_c, 3, 76, 0
1, 264127, Note_on_c, 4, 54, 77
1, 264252, Note_on_c, 4, 50, 68
1, 264275, Note_on_c, 4, 54, 0
1, 264335, Note_on_c, 3, 74, 0
1, 264360, Note_on_c, 4, 54, 80
1, 264427, Note_on_c, 4, 45, 0
1, 264475, Note_on_c, 3, 78, 84
1, 264492, Note_on_c, 4, 54, 0
1, 264492, Note_on_c, 4, 45, 79
1, 264492, Note_on_c, 4, 45, 89
1, 264495, Note_on_c, 4, 50, 0
1, 264517, Note_on_c, 3, 78, 0
1, 264547, Note_on_c, 3, 76, 80
1, 264570, Note_on_c, 3, 78, 80
1, 264577, Note_on_c, 3, 76, 0
1, 264597, Note_on_c, 4, 55, 77
1, 264615, Note_on_c, 3, 78, 0
1, 264620, Note_on_c, 3, 76, 80
1, 264662, Note_on_c, 3, 78, 80
1, 264667, Note_on_c, 3, 76, 0
1, 264697, Note_on_c, 3, 76, 82
1, 264705, Note_on_c, 3, 78, 0
1, 264722, Note_on_c, 4, 49, 71
1, 264735, Note_on_c, 3, 74, 82
1, 264740, Note_on_c, 4, 55, 0
1, 264745, Note_on_c, 3, 76, 0
1, 264805, Note_on_c, 3, 74, 0
1, 264837, Note_on_c, 3, 76, 88
1, 264855, Note_on_c, 4, 55, 79
1, 264867, Note_on_c, 4, 49, 0
1, 264891, Note_on_c, 3, 76, 0
1, 264947, Note_on_c, 4, 45, 0
1, 264947, Note_on_c, 4, 45, 0
1, 264955, Note_on_c, 4, 55, 0
1, 264960, Note_on_c, 3, 74, 106
1, 264960, Note_on_c, 3, 69, 106
1, 264960, Note_on_c, 3, 66, 106
1, 264960, Note_on_c, 4, 54, 106
1, 264960, Note_on_c, 4, 50, 106
1, 265017, Note_on_c, 5, 38, 81
1, 265017, Note_on_c, 5, 50, 92
1, 265017, Note_on_c, 5, 45, 99
1, 265037, Note_on_c, 4, 50, 0
1, 265083, Note_on_c, 4, 54, 0
1, 265400, Note_on_c, 3, 69, 0
1, 265408, Note_on_c, 3, 66, 0
1, 265412, Note_on_c, 3, 74, 0
1, 265690, Note_on_c, 5, 45, 0
1, 265692, Note_on_c, 5, 50, 0
1, 265692, Note_on_c, 5, 38, 0
1, 265920, Note_on_c, 3, 79, 97
1, 265920, Note_on_c, 4, 62, 79
1, 265920, Note_on_c, 4, 66, 79
1, 266035, Note_on_c, 3, 78, 79
1, 266043, Note_on_c, 3, 79, 0
1, 266157, Note_on_c, 3, 76, 83
1, 266175, Note_on_c, 3, 78, 0
1, 266270, Note_on_c, 3, 78, 91
1, 266290, Note_on_c, 3, 76, 0
1, 266392, Note_on_c, 3, 81, 105
1, 266395, Note_on_c, 3, 78, 0
1, 266400, Note_on_c, 4, 67, 89
1, 266400, Note_on_c, 4, 64, 89
1, 266425, Note_on_c, 4, 66, 0
1, 266428, Note_on_c, 4, 62, 0
1, 266497, Note_on_c, 3, 79, 83
1, 266532, Note_on_c, 3, 81, 0
1, 266620, Note_on_c, 3, 78, 88
1, 266645, Note_on_c, 3, 79, 0
1, 266727, Note_on_c, 3, 79, 89
1, 266745, Note_on_c, 3, 78, 0
1, 266868, Note_on_c, 4, 67, 0
1, 266880, Note_on_c, 3, 81, 105
1, 266880, Note_on_c, 4, 69, 100
1, 266880, Note_on_c, 4, 66, 100
1, 266895, Note_on_c, 3, 79, 0
1, 266897, Note_on_c, 4, 64, 0
1, 267033, Note_on_c, 3, 81, 0
1, 267145, Note_on_c, 4, 66, 0
1, 267157, Note_on_c, 4, 69, 0
1, 267870, Note_on_c, 3, 81, 64
1, 267907, Note_on_c, 3, 81, 0
1, 268107, Note_on_c, 3, 83, 59
1, 268147, Note_on_c, 3, 83, 0
1, 268327, Note_on_c, 3, 85, 66
1, 268370, Note_on_c, 3, 85, 0
1, 268547, Note_on_c, 3, 86, 71
1, 268590, Note_on_c, 3, 86, 0
1, 268785, Note_on_c, 4, 54, 49
1, 268795, Note_on_c, 3, 81, 79
1, 269032, Note_on_c, 4, 62, 40
1, 269270, Note_on_c, 3, 78, 42
1, 269280, Note_on_c, 4, 50, 62
1, 269285, Note_on_c, 4, 62, 0
1, 269292, Note_on_c, 4, 54, 0
1, 269297, Note_on_c, 3, 81, 0
1, 269512, Note_on_c, 4, 62, 45
1, 269515, Note_on_c, 3, 78, 0
1, 269525, Note_on_c, 4, 50, 0
1, 269762, Note_on_c, 3, 81, 62
1, 269765, Note_on_c, 4, 62, 0
1, 269765, Note_on_c, 4, 52, 42
1, 269870, Note_on_c, 3, 79, 53
1, 269902, Note_on_c, 3, 81, 0
1, 269985, Note_on_c, 3, 78, 51
1, 269992, Note_on_c, 4, 62, 41
1, 270007, Note_on_c, 3, 79, 0
1, 270095, Note_on_c, 3, 79, 53
1, 270122, Note_on_c, 3, 78, 0
1, 270217, Note_on_c, 3, 79, 0
1, 270237, Note_on_c, 3, 81, 60
1, 270240, Note_on_c, 4, 57, 37
1, 270245, Note_on_c, 4, 52, 0
1, 270252, Note_on_c, 4, 62, 0
1, 270270, Note_on_c, 3, 81, 0
1, 270475, Note_on_c, 4, 61, 47
1, 270477, Note_on_c, 3, 79, 73
1, 270510, Note_on_c, 3, 79, 0
1, 270527, Note_on_c, 4, 57, 0
1, 270637, Note_on_c, 4, 61, 0
1, 270712, Note_on_c, 3, 77, 59
1, 270735, Note_on_c, 4, 62, 69
1, 270742, Note_on_c, 4, 50, 60
1, 270867, Note_on_c, 4, 62, 0
1, 270880, Note_on_c, 4, 50, 0
1, 270970, Note_on_c, 3, 78, 55
1, 270987, Note_on_c, 3, 77, 0
1, 271015, Note_on_c, 3, 78, 0
1, 271695, Note_on_c, 3, 79, 99
1, 271712, Note_on_c, 4, 66, 80
1, 271712, Note_on_c, 4, 62, 80
1, 271752, Note_on_c, 4, 66, 0
1, 271757, Note_on_c, 4, 62, 0
1, 271810, Note_on_c, 3, 78, 77
1, 271835, Note_on_c, 3, 79, 0
1, 271922, Note_on_c, 3, 76, 80
1, 271950, Note_on_c, 3, 78, 0
1, 271955, Note_on_c, 4, 66, 82
1, 271955, Note_on_c, 4, 62, 82
1, 271997, Note_on_c, 4, 62, 0
1, 272005, Note_on_c, 4, 66, 0
1, 272027, Note_on_c, 3, 78, 93
1, 272062, Note_on_c, 3, 76, 0
1, 272162, Note_on_c, 3, 81, 109
1, 272162, Note_on_c, 4, 64, 88
1, 272162, Note_on_c, 4, 67, 88
1, 272170, Note_on_c, 3, 78, 0
1, 272205, Note_on_c, 4, 64, 0
1, 272227, Note_on_c, 4, 67, 0
1, 272280, Note_on_c, 3, 79, 86
1, 272320, Note_on_c, 3, 81, 0
1, 272397, Note_on_c, 3, 78, 91
1, 272397, Note_on_c, 4, 67, 88
1, 272400, Note_on_c, 4, 64, 88
1, 272422, Note_on_c, 3, 79, 0
1, 272440, Note_on_c, 4, 64, 0
1, 272462, Note_on_c, 4, 67, 0
1, 272502, Note_on_c, 3, 79, 104
1, 272520, Note_on_c, 3, 78, 0
1, 272632, Note_on_c, 3, 81, 118
1, 272632, Note_on_c, 4, 66, 105
1, 272640, Note_on_c, 4, 69, 105
1, 272657, Note_on_c, 3, 79, 0
1, 272767, Note_on_c, 3, 81, 0
1, 272795, Note_on_c, 4, 66, 0
1, 272807, Note_on_c, 4, 69, 0
1, 273600, Note_on_c, 3, 81, 54
1, 273650, Note_on_c, 3, 81, 0
1, 273842, Note_on_c, 3, 83, 57
1, 273882, Note_on_c, 3, 83, 0
1, 274080, Note_on_c, 3, 85, 66
1, 274112, Note_on_c, 3, 85, 0
1, 274320, Note_on_c, 3, 86, 59
1, 274355, Note_on_c, 3, 86, 0
1, 274552, Note_on_c, 3, 81, 63
1, 274575, Note_on_c, 4, 54, 45
1, 274810, Note_on_c, 4, 62, 34
1, 274867, Note_on_c, 4, 54, 0
1, 275040, Note_on_c, 4, 50, 50
1, 275050, Note_on_c, 3, 78, 54
1, 275057, Note_on_c, 4, 62, 0
1, 275072, Note_on_c, 3, 81, 0
1, 275287, Note_on_c, 4, 62, 46
1, 275300, Note_on_c, 3, 78, 0
1, 275312, Note_on_c, 4, 50, 0
1, 275507, Note_on_c, 4, 62, 0
1, 275537, Note_on_c, 3, 81, 69
1, 275537, Note_on_c, 4, 52, 57
1, 275647, Note_on_c, 3, 79, 55
1, 275685, Note_on_c, 3, 81, 0
1, 275765, Note_on_c, 3, 78, 48
1, 275765, Note_on_c, 4, 62, 51
1, 275777, Note_on_c, 3, 79, 0
1, 275877, Note_on_c, 3, 79, 50
1, 275995, Note_on_c, 3, 79, 0
1, 276000, Note_on_c, 3, 78, 0
1, 276000, Note_on_c, 4, 62, 0
1, 276000, Note_on_c, 4, 57, 57
1, 276002, Note_on_c, 3, 81, 73
1, 276005, Note_on_c, 4, 52, 0
1, 276100, Note_on_c, 3, 79, 57
1, 276107, Note_on_c, 4, 57, 0
1, 276140, Note_on_c, 3, 81, 0
1, 276230, Note_on_c, 3, 78, 59
1, 276252, Note_on_c, 4, 61, 55
1, 276270, Note_on_c, 3, 79, 0
1, 276347, Note_on_c, 3, 76, 62
1, 276357, Note_on_c, 3, 78, 0
1, 276380, Note_on_c, 4, 61, 0
1, 276435, Note_on_c, 3, 76, 0
1, 276475, Note_on_c, 3, 74, 102
1, 276480, Note_on_c, 4, 54, 63
1, 276590, Note_on_c, 4, 62, 52
1, 276597, Note_on_c, 3, 76, 77
1, 276630, Note_on_c, 3, 74, 0
1, 276707, Note_on_c, 4, 54, 0
1, 276722, Note_on_c, 3, 78, 82
1, 276737, Note_on_c, 3, 76, 0
1, 276742, Note_on_c, 4, 62, 0
1, 276742, Note_on_c, 4, 57, 29
1, 276842, Note_on_c, 3, 78, 0
1, 276842, Note_on_c, 3, 79, 86
1, 276842, Note_on_c, 4, 62, 33
1, 276867, Note_on_c, 4, 57, 0
1, 276960, Note_on_c, 4, 54, 47
1, 276962, Note_on_c, 3, 81, 91
1, 276980, Note_on_c, 4, 62, 0
1, 276982, Note_on_c, 3, 79, 0
1, 277067, Note_on_c, 3, 83, 95
1, 277067, Note_on_c, 4, 62, 42
1, 277087, Note_on_c, 3, 81, 0
1, 277195, Note_on_c, 4, 57, 39
1, 277202, Note_on_c, 3, 85, 100
1, 277207, Note_on_c, 3, 83, 0
1, 277220, Note_on_c, 4, 62, 0
1, 277272, Note_on_c, 3, 85, 0
1, 277307, Note_on_c, 3, 86, 104
1, 277307, Note_on_c, 4, 62, 49
1, 277332, Note_on_c, 4, 54, 0
1, 277335, Note_on_c, 4, 57, 0
1, 277347, Note_on_c, 3, 86, 0
1, 277432, Note_on_c, 4, 62, 0
1, 277437, Note_on_c, 4, 55, 59
1, 277465, Note_on_c, 3, 86, 111
1, 277537, Note_on_c, 4, 62, 46
1, 277665, Note_on_c, 4, 59, 42
1, 277687, Note_on_c, 4, 62, 0
1, 277787, Note_on_c, 4, 62, 50
1, 277810, Note_on_c, 4, 55, 0
1, 277810, Note_on_c, 4, 59, 0
1, 277912, Note_on_c, 3, 83, 83
1, 277912, Note_on_c, 4, 55, 57
1, 277925, Note_on_c, 4, 62, 0
1, 277935, Note_on_c, 3, 86, 0
1, 278022, Note_on_c, 4, 62, 53
1, 278120, Note_on_c, 3, 83, 0
1, 278145, Note_on_c, 4, 59, 48
1, 278150, Note_on_c, 4, 62, 0
1, 278270, Note_on_c, 4, 62, 57
1, 278302, Note_on_c, 3, 79, 83
1, 278305, Note_on_c, 4, 59, 0
1, 278380, Note_on_c, 4, 55, 0
1, 278382, Note_on_c, 4, 62, 0
1, 278402, Note_on_c, 3, 79, 0
1, 278425, Note_on_c, 4, 57, 62
1, 278425, Note_on_c, 4, 57, 57
1, 278435, Note_on_c, 3, 78, 97
1, 278542, Note_on_c, 4, 66, 49
1, 278660, Note_on_c, 4, 62, 48
1, 278667, Note_on_c, 4, 66, 0
1, 278725, Note_on_c, 4, 57, 0
1, 278725, Note_on_c, 4, 57, 0
1, 278765, Note_on_c, 4, 66, 60
1, 278807, Note_on_c, 4, 62, 0
1, 278900, Note_on_c, 4, 66, 0
1, 278900, Note_on_c, 4, 57, 57
1, 278902, Note_on_c, 3, 81, 97
1, 278915, Note_on_c, 3, 78, 0
1, 278987, Note_on_c, 3, 81, 0
1, 278992, Note_on_c, 4, 66, 55
1, 279122, Note_on_c, 4, 62, 49
1, 279135, Note_on_c, 4, 66, 0
1, 279227, Note_on_c, 4, 66, 57
1, 279240, Note_on_c, 4, 57, 0
1, 279255, Note_on_c, 4, 62, 0
1, 279267, Note_on_c, 3, 74, 75
1, 279312, Note_on_c, 3, 74, 0
1, 279335, Note_on_c, 4, 66, 0
1, 279390, Note_on_c, 3, 76, 102
1, 279392, Note_on_c, 4, 57, 48
1, 279507, Note_on_c, 4, 67, 48
1, 279620, Note_on_c, 4, 64, 40
1, 279637, Note_on_c, 4, 67, 0
1, 279745, Note_on_c, 4, 67, 45
1, 279755, Note_on_c, 4, 64, 0
1, 279772, Note_on_c, 4, 57, 0
1, 279857, Note_on_c, 3, 79, 77
1, 279865, Note_on_c, 4, 67, 0
1, 279875, Note_on_c, 4, 57, 57
1, 279882, Note_on_c, 3, 76, 0
1, 279955, Note_on_c, 3, 79, 0
1, 279980, Note_on_c, 4, 67, 57
1, 280105, Note_on_c, 4, 64, 51
1, 280117, Note_on_c, 4, 67, 0
1, 280140, Note_on_c, 4, 57, 0
1, 280220, Note_on_c, 4, 67, 60
1, 280222, Note_on_c, 3, 73, 90
1, 280225, Note_on_c, 4, 64, 0
1, 280255, Note_on_c, 4, 67, 0
1, 280262, Note_on_c, 3, 73, 0
1, 280342, Note_on_c, 3, 74, 92
1, 280342, Note_on_c, 4, 54, 34
1, 280442, Note_on_c, 3, 76, 74
1, 280452, Note_on_c, 4, 62, 56
1, 280467, Note_on_c, 3, 74, 0
1, 280555, Note_on_c, 3, 78, 84
1, 280567, Note_on_c, 4, 62, 0
1, 280580, Note_on_c, 4, 57, 42
1, 280582, Note_on_c, 3, 76, 0
1, 280622, Note_on_c, 4, 54, 0
1, 280665, Note_on_c, 3, 79, 83
1, 280672, Note_on_c, 4, 62, 52
1, 280700, Note_on_c, 3, 78, 0
1, 280700, Note_on_c, 4, 57, 0
1, 280755, Note_on_c, 3, 79, 0
1, 280760, Note_on_c, 4, 62, 0
1, 280780, Note_on_c, 4, 54, 83
1, 280790, Note_on_c, 3, 81, 97
1, 280895, Note_on_c, 4, 62, 55
1, 280902, Note_on_c, 3, 83, 70
1, 280925, Note_on_c, 3, 81, 0
1, 281020, Note_on_c, 4, 57, 59
1, 281027, Note_on_c, 4, 62, 0
1, 281030, Note_on_c, 3, 85, 61
1, 281050, Note_on_c, 3, 83, 0
1, 281132, Note_on_c, 4, 54, 0
1, 281132, Note_on_c, 4, 62, 59
1, 281147, Note_on_c, 3, 86, 97
1, 281160, Note_on_c, 4, 57, 0
1, 281190, Note_on_c, 3, 85, 0
1, 281232, Note_on_c, 4, 62, 0
1, 281265, Note_on_c, 4, 55, 51
1, 281275, Note_on_c, 3, 88, 112
1, 281290, Note_on_c, 3, 86, 0
1, 281380, Note_on_c, 4, 62, 45
1, 281390, Note_on_c, 3, 86, 92
1, 281432, Note_on_c, 3, 88, 0
1, 281505, Note_on_c, 4, 55, 0
1, 281507, Note_on_c, 4, 62, 0
1, 281507, Note_on_c, 4, 59, 43
1, 281510, Note_on_c, 3, 85, 105
1, 281527, Note_on_c, 3, 86, 0
1, 281620, Note_on_c, 4, 62, 53
1, 281622, Note_on_c, 3, 86, 90
1, 281652, Note_on_c, 3, 85, 0
1, 281682, Note_on_c, 4, 59, 0
1, 281725, Note_on_c, 4, 62, 0
1, 281740, Note_on_c, 4, 55, 54
1, 281747, Note_on_c, 3, 85, 112
1, 281785, Note_on_c, 3, 86, 0
1, 281860, Note_on_c, 3, 83, 83
1, 281865, Note_on_c, 4, 62, 51
1, 281890, Note_on_c, 3, 85, 0
1, 281987, Note_on_c, 3, 81, 83
1, 281992, Note_on_c, 4, 59, 53
1, 281997, Note_on_c, 4, 62, 0
1, 282002, Note_on_c, 3, 83, 0
1, 282002, Note_on_c, 4, 55, 0
1, 282097, Note_on_c, 4, 62, 57
1, 282102, Note_on_c, 3, 79, 79
1, 282120, Note_on_c, 4, 59, 0
1, 282125, Note_on_c, 3, 81, 0
1, 282152, Note_on_c, 4, 62, 0
1, 282217, Note_on_c, 3, 78, 84
1, 282220, Note_on_c, 4, 57, 53
1, 282230, Note_on_c, 3, 79, 0
1, 282320, Note_on_c, 4, 66, 57
1, 282340, Note_on_c, 3, 78, 0
1, 282342, Note_on_c, 3, 79, 68
1, 282455, Note_on_c, 4, 66, 0
1, 282462, Note_on_c, 3, 80, 83
1, 282470, Note_on_c, 4, 62, 50
1, 282487, Note_on_c, 3, 79, 0
1, 282527, Note_on_c, 4, 57, 0
1, 282565, Note_on_c, 4, 66, 51
1, 282582, Note_on_c, 3, 81, 63
1, 282600, Note_on_c, 3, 80, 0
1, 282615, Note_on_c, 4, 62, 0
1, 282680, Note_on_c, 4, 66, 0
1, 282705, Note_on_c, 4, 57, 54
1, 282717, Note_on_c, 3, 79, 86
1, 282735, Note_on_c, 3, 81, 0
1, 282825, Note_on_c, 4, 66, 50
1, 282835, Note_on_c, 3, 78, 83
1, 282855, Note_on_c, 3, 79, 0
1, 282955, Note_on_c, 3, 76, 59
1, 282960, Note_on_c, 4, 62, 54
1, 282962, Note_on_c, 4, 66, 0
1, 282975, Note_on_c, 3, 78, 0
1, 283027, Note_on_c, 4, 57, 0
1, 283060, Note_on_c, 4, 66, 46
1, 283072, Note_on_c, 3, 74, 72
1, 283082, Note_on_c, 3, 76, 0
1, 283087, Note_on_c, 4, 62, 0
1, 283172, Note_on_c, 4, 66, 0
1, 283197, Note_on_c, 4, 57, 54
1, 283202, Note_on_c, 3, 75, 108
1, 283215, Note_on_c, 3, 74, 0
1, 283320, Note_on_c, 4, 67, 46
1, 283322, Note_on_c, 3, 76, 69
1, 283347, Note_on_c, 3, 75, 0
1, 283442, Note_on_c, 3, 78, 55
1, 283442, Note_on_c, 4, 67, 0
1, 283442, Note_on_c, 4, 64, 46
1, 283505, Note_on_c, 3, 76, 0
1, 283552, Note_on_c, 4, 67, 55
1, 283555, Note_on_c, 3, 79, 67
1, 283560, Note_on_c, 4, 57, 0
1, 283580, Note_on_c, 3, 78, 0
1, 283582, Note_on_c, 4, 64, 0
1, 283662, Note_on_c, 4, 67, 0
1, 283672, Note_on_c, 4, 57, 61
1, 283690, Note_on_c, 3, 78, 105
1, 283715, Note_on_c, 3, 79, 0
1, 283795, Note_on_c, 3, 76, 70
1, 283815, Note_on_c, 4, 67, 59
1, 283850, Note_on_c, 3, 78, 0
1, 283922, Note_on_c, 3, 74, 67
1, 283922, Note_on_c, 4, 64, 61
1, 283925, Note_on_c, 3, 76, 0
1, 283937, Note_on_c, 4, 67, 0
1, 284035, Note_on_c, 3, 73, 79
1, 284042, Note_on_c, 4, 67, 40
1, 284050, Note_on_c, 3, 74, 0
1, 284052, Note_on_c, 4, 64, 0
1, 284075, Note_on_c, 4, 57, 0
1, 284137, Note_on_c, 3, 73, 0
1, 284140, Note_on_c, 4, 67, 0
1, 284160, Note_on_c, 3, 74, 100
1, 284160, Note_on_c, 4, 66, 73
1, 284167, Note_on_c, 4, 62, 69
1, 284285, Note_on_c, 3, 69, 61
1, 284300, Note_on_c, 3, 74, 0
1, 284325, Note_on_c, 4, 62, 0
1, 284345, Note_on_c, 4, 66, 0
1, 284390, Note_on_c, 3, 69, 0
1, 284410, Note_on_c, 3, 74, 66
1, 284510, Note_on_c, 3, 78, 79
1, 284600, Note_on_c, 3, 74, 0
1, 284642, Note_on_c, 3, 81, 88
1, 284662, Note_on_c, 3, 78, 0
1, 284760, Note_on_c, 3, 78, 64
1, 284777, Note_on_c, 3, 81, 0
1, 284872, Note_on_c, 4, 64, 64
1, 284875, Note_on_c, 3, 79, 77
1, 284875, Note_on_c, 4, 61, 64
1, 284875, Note_on_c, 4, 57, 64
1, 284922, Note_on_c, 3, 78, 0
1, 284980, Note_on_c, 4, 64, 0
1, 284992, Note_on_c, 4, 61, 0
1, 284992, Note_on_c, 4, 57, 0
1, 285000, Note_on_c, 3, 76, 62
1, 285022, Note_on_c, 3, 79, 0
1, 285110, Note_on_c, 3, 76, 0
1, 285117, Note_on_c, 3, 74, 90
1, 285117, Note_on_c, 4, 62, 86
1, 285117, Note_on_c, 4, 66, 86
1, 285242, Note_on_c, 3, 69, 67
1, 285270, Note_on_c, 3, 74, 0
1, 285292, Note_on_c, 4, 66, 0
1, 285292, Note_on_c, 4, 62, 0
1, 285362, Note_on_c, 3, 74, 77
1, 285367, Note_on_c, 3, 69, 0
1, 285475, Note_on_c, 3, 78, 83
1, 285517, Note_on_c, 3, 74, 0
1, 285615, Note_on_c, 3, 81, 93
1, 285627, Note_on_c, 3, 78, 0
1, 285717, Note_on_c, 3, 78, 79
1, 285737, Note_on_c, 3, 81, 0
1, 285832, Note_on_c, 4, 61, 66
1, 285835, Note_on_c, 4, 64, 66
1, 285835, Note_on_c, 4, 57, 66
1, 285837, Note_on_c, 3, 79, 88
1, 285867, Note_on_c, 3, 78, 0
1, 285942, Note_on_c, 4, 64, 0
1, 285950, Note_on_c, 4, 57, 0
1, 285955, Note_on_c, 4, 61, 0
1, 285962, Note_on_c, 3, 76, 78
1, 285982, Note_on_c, 3, 79, 0
1, 286082, Note_on_c, 3, 76, 0
1, 286085, Note_on_c, 4, 66, 86
1, 286085, Note_on_c, 4, 62, 72
1, 286087, Note_on_c, 3, 74, 90
1, 286197, Note_on_c, 3, 74, 0
1, 286227, Note_on_c, 4, 62, 0
1, 286227, Note_on_c, 4, 66, 0
1, 286562, Note_on_c, 3, 79, 108
1, 286562, Note_on_c, 3, 85, 108
1, 286565, Note_on_c, 3, 76, 108
1, 286565, Note_on_c, 4, 46, 109
1, 286565, Note_on_c, 4, 58, 109
1, 286705, Note_on_c, 3, 79, 0
1, 286722, Note_on_c, 3, 76, 0
1, 286735, Note_on_c, 3, 85, 0
1, 286735, Note_on_c, 4, 46, 0
1, 286752, Note_on_c, 4, 58, 0
1, 287091, Note_on_c, 3, 86, 118
1, 287091, Note_on_c, 3, 78, 118
1, 287091, Note_on_c, 3, 74, 118
1, 287091, Note_on_c, 4, 47, 124
1, 287091, Note_on_c, 4, 59, 124
1, 287406, Note_on_c, 3, 78, 0
1, 287406, Note_on_c, 3, 86, 0
1, 287406, Note_on_c, 4, 59, 0
1, 287413, Note_on_c, 4, 47, 0
1, 287429, Note_on_c, 3, 74, 0
1, 287988, Note_on_c, 3, 79, 70
1, 287988, Note_on_c, 3, 71, 61
1, 287988, Note_on_c, 4, 55, 68
1, 287988, Note_on_c, 4, 43, 72
1, 288245, Note_on_c, 3, 78, 66
1, 288250, Note_on_c, 3, 71, 0
1, 288258, Note_on_c, 3, 79, 0
1, 288262, Note_on_c, 3, 69, 66
1, 288302, Note_on_c, 3, 78, 0
1, 288310, Note_on_c, 3, 69, 0
1, 288475, Note_on_c, 3, 78, 64
1, 288495, Note_on_c, 3, 69, 64
1, 288722, Note_on_c, 3, 76, 59
1, 288727, Note_on_c, 3, 67, 60
1, 288737, Note_on_c, 3, 69, 0
1, 288747, Note_on_c, 3, 78, 0
1, 288765, Note_on_c, 3, 67, 0
1, 288800, Note_on_c, 3, 76, 0
1, 288836, Note_on_c, 4, 43, 0
1, 288856, Note_on_c, 4, 55, 0
1, 288967, Note_on_c, 3, 76, 57
1, 288967, Note_on_c, 4, 57, 55
1, 288975, Note_on_c, 3, 67, 57
1, 288975, Note_on_c, 4, 45, 45
1, 289142, Note_on_c, 3, 67, 0
1, 289210, Note_on_c, 3, 74, 51
1, 289222, Note_on_c, 3, 66, 51
1, 289227, Note_on_c, 3, 76, 0
1, 289262, Note_on_c, 3, 74, 0
1, 289282, Note_on_c, 3, 66, 0
1, 289445, Note_on_c, 3, 66, 53
1, 289445, Note_on_c, 3, 74, 53
1, 289645, Note_on_c, 4, 57, 0
1, 289680, Note_on_c, 4, 45, 0
1, 289700, Note_on_c, 3, 73, 53
1, 289702, Note_on_c, 3, 66, 0
1, 289715, Note_on_c, 3, 64, 53
1, 289717, Note_on_c, 3, 74, 0
1, 289747, Note_on_c, 3, 73, 0
1, 289765, Note_on_c, 3, 64, 0
1, 289965, Note_on_c, 3, 73, 90
1, 289965, Note_on_c, 3, 64, 90
1, 289965, Note_on_c, 3, 67, 90
1, 289965, Note_on_c, 4, 50, 84
1, 290477, Note_on_c, 4, 50, 0
1, 290518, Note_on_c, 4, 45, 55
1, 291044, Note_on_c, 4, 45, 0
1, 291110, Note_on_c, 3, 67, 0
1, 291110, Note_on_c, 3, 64, 0
1, 291110, Note_on_c, 3, 73, 0
1, 291138, Note_on_c, 3, 66, 23
1, 291138, Note_on_c, 3, 74, 27
1, 291138, Note_on_c, 4, 38, 23
1, 291641, Note_on_c, 3, 74, 0
1, 291641, Note_on_c, 3, 66, 0
1, 291700, Note_on_c, 4, 38, 0
1, 291710, End_track
0, 0, End_of_file