0, 0, Header, 0, 1, 240
1, 0, Start_track
1, 0, Tempo, 400000
1, 0, Note_on_c, 0, 71, 68
1, 60, Note_on_c, 0, 71, 0
1, 60, Note_on_c, 0, 69, 68
1, 120, Note_on_c, 0, 69, 0
1, 120, Note_on_c, 0, 68, 68
1, 180, Note_on_c, 0, 68, 0
1, 180, Note_on_c, 0, 69, 68
1, 240, Tempo, 400000
1, 240, Note_on_c, 0, 69, 0
1, 240, Note_on_c, 0, 72, 68
1, 240, Note_on_c, 1, 57, 54
1, 357, Note_on_c, 0, 72, 0
1, 360, Note_on_c, 1, 57, 0
1, 360, Note_on_c, 1, 64, 54
1, 360, Note_on_c, 1, 60, 54
1, 400, Note_on_c, 1, 60, 0
1, 400, Note_on_c, 1, 64, 0
1, 480, Note_on_c, 0, 74, 68
1, 480, Note_on_c, 1, 60, 54
1, 480, Note_on_c, 1, 64, 54
1, 520, Note_on_c, 1, 64, 0
1, 520, Note_on_c, 1, 60, 0
1, 540, Note_on_c, 0, 74, 0
1, 540, Note_on_c, 0, 72, 68
1, 600, Note_on_c, 0, 72, 0
1, 600, Note_on_c, 0, 71, 68
1, 600, Note_on_c, 1, 60, 54
1, 600, Note_on_c, 1, 64, 54
1, 640, Note_on_c, 1, 64, 0
1, 640, Note_on_c, 1, 60, 0
1, 660, Note_on_c, 0, 71, 0
1, 660, Note_on_c, 0, 72, 68
1, 720, Tempo, 400000
1, 720, Note_on_c, 0, 72, 0
1, 720, Note_on_c, 0, 76, 68
1, 720, Note_on_c, 1, 57, 54
1, 837, Note_on_c, 0, 76, 0
1, 840, Note_on_c, 1, 57, 0
1, 840, Note_on_c, 1, 60, 54
1, 840, Note_on_c, 1, 64, 54
1, 880, Note_on_c, 1, 64, 0
1, 880, Note_on_c, 1, 60, 0
1, 960, Note_on_c, 0, 77, 68
1, 960, Note_on_c, 1, 60, 54
1, 960, Note_on_c, 1, 64, 54
1, 1000, Note_on_c, 1, 64, 0
1, 1000, Note_on_c, 1, 60, 0
1, 1020, Note_on_c, 0, 77, 0
1, 1020, Note_on_c, 0, 76, 68
1, 1080, Note_on_c, 0, 76, 0
1, 1080, Note_on_c, 0, 75, 68
1, 1080, Note_on_c, 1, 60, 54
1, 1080, Note_on_c, 1, 64, 54
1, 1120, Note_on_c, 1, 64, 0
1, 1120, Note_on_c, 1, 60, 0
1, 1140, Note_on_c, 0, 75, 0
1, 1140, Note_on_c, 0, 76, 68
1, 1200, Tempo, 400000
1, 1200, Note_on_c, 0, 76, 0
1, 1200, Note_on_c, 0, 83, 68
1, 1200, Note_on_c, 1, 57, 54
1, 1240, Note_on_c, 1, 57, 0
1, 1260, Note_on_c, 0, 83, 0
1, 1260, Note_on_c, 0, 81, 68
1, 1320, Note_on_c, 0, 81, 0
1, 1320, Note_on_c, 0, 80, 68
1, 1320, Note_on_c, 1, 64, 54
1, 1320, Note_on_c, 1, 60, 54
1, 1360, Note_on_c, 1, 60, 0
1, 1360, Note_on_c, 1, 64, 0
1, 1380, Note_on_c, 0, 80, 0
1, 1380, Note_on_c, 0, 81, 68
1, 1440, Note_on_c, 0, 81, 0
1, 1440, Note_on_c, 0, 83, 68
1, 1440, Note_on_c, 1, 57, 54
1, 1480, Note_on_c, 1, 57, 0
1, 1500, Note_on_c, 0, 83, 0
1, 1500, Note_on_c, 0, 81, 68
1, 1560, Note_on_c, 0, 81, 0
1, 1560, Note_on_c, 0, 80, 68
1, 1560, Note_on_c, 1, 60, 54
1, 1560, Note_on_c, 1, 64, 54
1, 1600, Note_on_c, 1, 64, 0
1, 1600, Note_on_c, 1, 60, 0
1, 1620, Note_on_c, 0, 80, 0
1, 1620, Note_on_c, 0, 81, 68
1, 1677, Note_on_c, 0, 81, 0
1, 1680, Tempo, 400000
1, 1680, Note_on_c, 0, 84, 70
1, 1680, Note_on_c, 1, 57, 54
1, 1800, Note_on_c, 1, 57, 0
1, 1800, Note_on_c, 1, 60, 54
1, 1800, Note_on_c, 1, 64, 54
1, 1840, Note_on_c, 1, 64, 0
1, 1840, Note_on_c, 1, 60, 0
1, 1880, Note_on_c, 0, 84, 0
1, 1920, Note_on_c, 0, 81, 68
1, 1920, Note_on_c, 1, 60, 54
1, 1920, Note_on_c, 1, 64, 54
1, 1960, Note_on_c, 0, 81, 0
1, 1960, Note_on_c, 1, 64, 0
1, 1960, Note_on_c, 1, 60, 0
1, 2040, Note_on_c, 0, 84, 68
1, 2040, Note_on_c, 1, 60, 54
1, 2040, Note_on_c, 1, 64, 54
1, 2080, Note_on_c, 0, 84, 0
1, 2080, Note_on_c, 1, 64, 0
1, 2080, Note_on_c, 1, 60, 0
1, 2160, Tempo, 400000
1, 2160, Note_on_c, 0, 79, 68
1, 2160, Note_on_c, 1, 52, 54
1, 2190, Note_on_c, 0, 79, 0
1, 2190, Note_on_c, 0, 81, 68
1, 2200, Note_on_c, 1, 52, 0
1, 2220, Note_on_c, 0, 81, 0
1, 2220, Note_on_c, 0, 83, 68
1, 2260, Note_on_c, 0, 83, 0
1, 2280, Note_on_c, 0, 78, 68
1, 2280, Note_on_c, 0, 81, 68
1, 2280, Note_on_c, 1, 64, 54
1, 2280, Note_on_c, 1, 59, 54
1, 2320, Note_on_c, 0, 81, 0
1, 2320, Note_on_c, 0, 78, 0
1, 2320, Note_on_c, 1, 59, 0
1, 2320, Note_on_c, 1, 64, 0
1, 2400, Note_on_c, 0, 76, 68
1, 2400, Note_on_c, 0, 79, 68
1, 2400, Note_on_c, 1, 59, 54
1, 2400, Note_on_c, 1, 64, 54
1, 2440, Note_on_c, 0, 79, 0
1, 2440, Note_on_c, 0, 76, 0
1, 2440, Note_on_c, 1, 64, 0
1, 2440, Note_on_c, 1, 59, 0
1, 2520, Note_on_c, 0, 78, 68
1, 2520, Note_on_c, 0, 81, 68
1, 2520, Note_on_c, 1, 59, 54
1, 2520, Note_on_c, 1, 64, 54
1, 2560, Note_on_c, 0, 81, 0
1, 2560, Note_on_c, 0, 78, 0
1, 2560, Note_on_c, 1, 64, 0
1, 2560, Note_on_c, 1, 59, 0
1, 2640, Tempo, 400000
1, 2640, Note_on_c, 0, 79, 68
1, 2640, Note_on_c, 1, 52, 54
1, 2670, Note_on_c, 0, 79, 0
1, 2670, Note_on_c, 0, 81, 68
1, 2680, Note_on_c, 1, 52, 0
1, 2700, Note_on_c, 0, 81, 0
1, 2700, Note_on_c, 0, 83, 68
1, 2740, Note_on_c, 0, 83, 0
1, 2760, Note_on_c, 0, 78, 68
1, 2760, Note_on_c, 0, 81, 68
1, 2760, Note_on_c, 1, 64, 54
1, 2760, Note_on_c, 1, 59, 54
1, 2800, Note_on_c, 0, 81, 0
1, 2800, Note_on_c, 0, 78, 0
1, 2800, Note_on_c, 1, 59, 0
1, 2800, Note_on_c, 1, 64, 0
1, 2880, Note_on_c, 0, 76, 68
1, 2880, Note_on_c, 0, 79, 68
1, 2880, Note_on_c, 1, 59, 54
1, 2880, Note_on_c, 1, 64, 54
1, 2920, Note_on_c, 0, 79, 0
1, 2920, Note_on_c, 0, 76, 0
1, 2920, Note_on_c, 1, 64, 0
1, 2920, Note_on_c, 1, 59, 0
1, 3000, Note_on_c, 0, 78, 68
1, 3000, Note_on_c, 0, 81, 68
1, 3000, Note_on_c, 1, 59, 54
1, 3000, Note_on_c, 1, 64, 54
1, 3040, Note_on_c, 0, 81, 0
1, 3040, Note_on_c, 0, 78, 0
1, 3040, Note_on_c, 1, 64, 0
1, 3040, Note_on_c, 1, 59, 0
1, 3120, Tempo, 400000
1, 3120, Note_on_c, 0, 79, 68
1, 3120, Note_on_c, 1, 52, 54
1, 3150, Note_on_c, 0, 79, 0
1, 3150, Note_on_c, 0, 81, 68
1, 3160, Note_on_c, 1, 52, 0
1, 3180, Note_on_c, 0, 81, 0
1, 3180, Note_on_c, 0, 83, 68
1, 3220, Note_on_c, 0, 83, 0
1, 3240, Note_on_c, 0, 78, 68
1, 3240, Note_on_c, 0, 81, 68
1, 3240, Note_on_c, 1, 64, 54
1, 3240, Note_on_c, 1, 59, 54
1, 3280, Note_on_c, 0, 81, 0
1, 3280, Note_on_c, 0, 78, 0
1, 3280, Note_on_c, 1, 59, 0
1, 3280, Note_on_c, 1, 64, 0
1, 3360, Note_on_c, 0, 76, 68
1, 3360, Note_on_c, 0, 79, 68
1, 3360, Note_on_c, 1, 47, 54
1, 3400, Note_on_c, 0, 79, 0
1, 3400, Note_on_c, 0, 76, 0
1, 3400, Note_on_c, 1, 47, 0
1, 3480, Note_on_c, 0, 75, 68
1, 3480, Note_on_c, 0, 78, 68
1, 3480, Note_on_c, 1, 59, 54
1, 3520, Note_on_c, 0, 78, 0
1, 3520, Note_on_c, 0, 75, 0
1, 3520, Note_on_c, 1, 59, 0
1, 3600, Tempo, 400000
1, 3600, Note_on_c, 0, 76, 68
1, 3600, Note_on_c, 1, 52, 54
1, 3800, Note_on_c, 0, 76, 0
1, 3800, Note_on_c, 1, 52, 0
1, 3840, Note_on_c, 0, 71, 68
1, 3900, Note_on_c, 0, 71, 0
1, 3900, Note_on_c, 0, 69, 68
1, 3960, Note_on_c, 0, 69, 0
1, 3960, Note_on_c, 0, 68, 68
1, 4020, Note_on_c, 0, 68, 0
1, 4020, Note_on_c, 0, 69, 68
1, 4080, Tempo, 400000
1, 4080, Note_on_c, 0, 69, 0
1, 4080, Note_on_c, 0, 72, 68
1, 4080, Note_on_c, 1, 57, 54
1, 4197, Note_on_c, 0, 72, 0
1, 4200, Note_on_c, 1, 57, 0
1, 4200, Note_on_c, 1, 64, 54
1, 4200, Note_on_c, 1, 60, 54
1, 4240, Note_on_c, 1, 60, 0
1, 4240, Note_on_c, 1, 64, 0
1, 4320, Note_on_c, 0, 74, 68
1, 4320, Note_on_c, 1, 60, 54
1, 4320, Note_on_c, 1, 64, 54
1, 4360, Note_on_c, 1, 64, 0
1, 4360, Note_on_c, 1, 60, 0
1, 4380, Note_on_c, 0, 74, 0
1, 4380, Note_on_c, 0, 72, 68
1, 4440, Note_on_c, 0, 72, 0
1, 4440, Note_on_c, 0, 71, 68
1, 4440, Note_on_c, 1, 60, 54
1, 4440, Note_on_c, 1, 64, 54
1, 4480, Note_on_c, 1, 64, 0
1, 4480, Note_on_c, 1, 60, 0
1, 4500, Note_on_c, 0, 71, 0
1, 4500, Note_on_c, 0, 72, 68
1, 4560, Tempo, 400000
1, 4560, Note_on_c, 0, 72, 0
1, 4560, Note_on_c, 0, 76, 68
1, 4560, Note_on_c, 1, 57, 54
1, 4677, Note_on_c, 0, 76, 0
1, 4680, Note_on_c, 1, 57, 0
1, 4680, Note_on_c, 1, 60, 54
1, 4680, Note_on_c, 1, 64, 54
1, 4720, Note_on_c, 1, 64, 0
1, 4720, Note_on_c, 1, 60, 0
1, 4800, Note_on_c, 0, 77, 68
1, 4800, Note_on_c, 1, 60, 54
1, 4800, Note_on_c, 1, 64, 54
1, 4840, Note_on_c, 1, 64, 0
1, 4840, Note_on_c, 1, 60, 0
1, 4860, Note_on_c, 0, 77, 0
1, 4860, Note_on_c, 0, 76, 68
1, 4920, Note_on_c, 0, 76, 0
1, 4920, Note_on_c, 0, 75, 68
1, 4920, Note_on_c, 1, 60, 54
1, 4920, Note_on_c, 1, 64, 54
1, 4960, Note_on_c, 1, 64, 0
1, 4960, Note_on_c, 1, 60, 0
1, 4980, Note_on_c, 0, 75, 0
1, 4980, Note_on_c, 0, 76, 68
1, 5040, Tempo, 400000
1, 5040, Note_on_c, 0, 76, 0
1, 5040, Note_on_c, 0, 83, 68
1, 5040, Note_on_c, 1, 57, 54
1, 5080, Note_on_c, 1, 57, 0
1, 5100, Note_on_c, 0, 83, 0
1, 5100, Note_on_c, 0, 81, 68
1, 5160, Note_on_c, 0, 81, 0
1, 5160, Note_on_c, 0, 80, 68
1, 5160, Note_on_c, 1, 64, 54
1, 5160, Note_on_c, 1, 60, 54
1, 5200, Note_on_c, 1, 60, 0
1, 5200, Note_on_c, 1, 64, 0
1, 5220, Note_on_c, 0, 80, 0
1, 5220, Note_on_c, 0, 81, 68
1, 5280, Note_on_c, 0, 81, 0
1, 5280, Note_on_c, 0, 83, 68
1, 5280, Note_on_c, 1, 57, 54
1, 5320, Note_on_c, 1, 57, 0
1, 5340, Note_on_c, 0, 83, 0
1, 5340, Note_on_c, 0, 81, 68
1, 5400, Note_on_c, 0, 81, 0
1, 5400, Note_on_c, 0, 80, 68
1, 5400, Note_on_c, 1, 60, 54
1, 5400, Note_on_c, 1, 64, 54
1, 5440, Note_on_c, 1, 64, 0
1, 5440, Note_on_c, 1, 60, 0
1, 5460, Note_on_c, 0, 80, 0
1, 5460, Note_on_c, 0, 81, 68
1, 5517, Note_on_c, 0, 81, 0
1, 5520, Tempo, 400000
1, 5520, Note_on_c, 0, 84, 70
1, 5520, Note_on_c, 1, 57, 54
1, 5640, Note_on_c, 1, 57, 0
1, 5640, Note_on_c, 1, 60, 54
1, 5640, Note_on_c, 1, 64, 54
1, 5680, Note_on_c, 1, 64, 0
1, 5680, Note_on_c, 1, 60, 0
1, 5720, Note_on_c, 0, 84, 0
1, 5760, Note_on_c, 0, 81, 68
1, 5760, Note_on_c, 1, 60, 54
1, 5760, Note_on_c, 1, 64, 54
1, 5800, Note_on_c, 0, 81, 0
1, 5800, Note_on_c, 1, 64, 0
1, 5800, Note_on_c, 1, 60, 0
1, 5880, Note_on_c, 0, 84, 68
1, 5880, Note_on_c, 1, 60, 54
1, 5880, Note_on_c, 1, 64, 54
1, 5920, Note_on_c, 0, 84, 0
1, 5920, Note_on_c, 1, 64, 0
1, 5920, Note_on_c, 1, 60, 0
1, 6000, Tempo, 400000
1, 6000, Note_on_c, 0, 79, 68
1, 6000, Note_on_c, 1, 52, 54
1, 6030, Note_on_c, 0, 79, 0
1, 6030, Note_on_c, 0, 81, 68
1, 6040, Note_on_c, 1, 52, 0
1, 6060, Note_on_c, 0, 81, 0
1, 6060, Note_on_c, 0, 83, 68
1, 6100, Note_on_c, 0, 83, 0
1, 6120, Note_on_c, 0, 78, 68
1, 6120, Note_on_c, 0, 81, 68
1, 6120, Note_on_c, 1, 64, 54
1, 6120, Note_on_c, 1, 59, 54
1, 6160, Note_on_c, 0, 81, 0
1, 6160, Note_on_c, 0, 78, 0
1, 6160, Note_on_c, 1, 59, 0
1, 6160, Note_on_c, 1, 64, 0
1, 6240, Note_on_c, 0, 76, 68
1, 6240, Note_on_c, 0, 79, 68
1, 6240, Note_on_c, 1, 59, 54
1, 6240, Note_on_c, 1, 64, 54
1, 6280, Note_on_c, 0, 79, 0
1, 6280, Note_on_c, 0, 76, 0
1, 6280, Note_on_c, 1, 64, 0
1, 6280, Note_on_c, 1, 59, 0
1, 6360, Note_on_c, 0, 78, 68
1, 6360, Note_on_c, 0, 81, 68
1, 6360, Note_on_c, 1, 59, 54
1, 6360, Note_on_c, 1, 64, 54
1, 6400, Note_on_c, 0, 81, 0
1, 6400, Note_on_c, 0, 78, 0
1, 6400, Note_on_c, 1, 64, 0
1, 6400, Note_on_c, 1, 59, 0
1, 6480, Tempo, 400000
1, 6480, Note_on_c, 0, 79, 68
1, 6480, Note_on_c, 1, 52, 54
1, 6510, Note_on_c, 0, 79, 0
1, 6510, Note_on_c, 0, 81, 68
1, 6520, Note_on_c, 1, 52, 0
1, 6540, Note_on_c, 0, 81, 0
1, 6540, Note_on_c, 0, 83, 68
1, 6580, Note_on_c, 0, 83, 0
1, 6600, Note_on_c, 0, 78, 68
1, 6600, Note_on_c, 0, 81, 68
1, 6600, Note_on_c, 1, 64, 54
1, 6600, Note_on_c, 1, 59, 54
1, 6640, Note_on_c, 0, 81, 0
1, 6640, Note_on_c, 0, 78, 0
1, 6640, Note_on_c, 1, 59, 0
1, 6640, Note_on_c, 1, 64, 0
1, 6720, Note_on_c, 0, 76, 68
1, 6720, Note_on_c, 0, 79, 68
1, 6720, Note_on_c, 1, 59, 54
1, 6720, Note_on_c, 1, 64, 54
1, 6760, Note_on_c, 0, 79, 0
1, 6760, Note_on_c, 0, 76, 0
1, 6760, Note_on_c, 1, 64, 0
1, 6760, Note_on_c, 1, 59, 0
1, 6840, Note_on_c, 0, 78, 68
1, 6840, Note_on_c, 0, 81, 68
1, 6840, Note_on_c, 1, 59, 54
1, 6840, Note_on_c, 1, 64, 54
1, 6880, Note_on_c, 0, 81, 0
1, 6880, Note_on_c, 0, 78, 0
1, 6880, Note_on_c, 1, 64, 0
1, 6880, Note_on_c, 1, 59, 0
1, 6960, Tempo, 400000
1, 6960, Note_on_c, 0, 79, 68
1, 6960, Note_on_c, 1, 52, 54
1, 6990, Note_on_c, 0, 79, 0
1, 6990, Note_on_c, 0, 81, 68
1, 7000, Note_on_c, 1, 52, 0
1, 7020, Note_on_c, 0, 81, 0
1, 7020, Note_on_c, 0, 83, 68
1, 7060, Note_on_c, 0, 83, 0
1, 7080, Note_on_c, 0, 78, 68
1, 7080, Note_on_c, 0, 81, 68
1, 7080, Note_on_c, 1, 64, 54
1, 7080, Note_on_c, 1, 59, 54
1, 7120, Note_on_c, 0, 81, 0
1, 7120, Note_on_c, 0, 78, 0
1, 7120, Note_on_c, 1, 59, 0
1, 7120, Note_on_c, 1, 64, 0
1, 7200, Note_on_c, 0, 76, 68
1, 7200, Note_on_c, 0, 79, 68
1, 7200, Note_on_c, 1, 47, 54
1, 7240, Note_on_c, 0, 79, 0
1, 7240, Note_on_c, 0, 76, 0
1, 7240, Note_on_c, 1, 47, 0
1, 7320, Note_on_c, 0, 75, 68
1, 7320, Note_on_c, 0, 78, 68
1, 7320, Note_on_c, 1, 59, 54
1, 7360, Note_on_c, 0, 78, 0
1, 7360, Note_on_c, 0, 75, 0
1, 7360, Note_on_c, 1, 59, 0
1, 7440, Tempo, 400000
1, 7440, Note_on_c, 0, 76, 68
1, 7440, Note_on_c, 1, 52, 54
1, 7640, Note_on_c, 0, 76, 0
1, 7640, Note_on_c, 1, 52, 0
1, 7680, Note_on_c, 0, 72, 70
1, 7680, Note_on_c, 0, 76, 70
1, 7720, Note_on_c, 0, 76, 0
1, 7720, Note_on_c, 0, 72, 0
1, 7800, Note_on_c, 0, 77, 70
1, 7800, Note_on_c, 0, 74, 70
1, 7840, Note_on_c, 0, 74, 0
1, 7840, Note_on_c, 0, 77, 0
1, 7920, Tempo, 400000
1, 7920, Note_on_c, 0, 76, 70
1, 7920, Note_on_c, 0, 79, 70
1, 7920, Note_on_c, 1, 48, 56
1, 7960, Note_on_c, 0, 79, 0
1, 7960, Note_on_c, 0, 76, 0
1, 7960, Note_on_c, 1, 48, 0
1, 8040, Note_on_c, 0, 76, 70
1, 8040, Note_on_c, 0, 79, 70
1, 8040, Note_on_c, 1, 60, 56
1, 8080, Note_on_c, 0, 79, 0
1, 8080, Note_on_c, 0, 76, 0
1, 8080, Note_on_c, 1, 60, 0
1, 8160, Note_on_c, 0, 81, 70
1, 8160, Note_on_c, 1, 52, 56
1, 8200, Note_on_c, 1, 52, 0
1, 8220, Note_on_c, 0, 81, 0
1, 8220, Note_on_c, 0, 79, 70
1, 8280, Note_on_c, 0, 79, 0
1, 8280, Note_on_c, 0, 77, 70
1, 8280, Note_on_c, 1, 64, 56
1, 8320, Note_on_c, 1, 64, 0
1, 8340, Note_on_c, 0, 77, 0
1, 8340, Note_on_c, 0, 76, 70
1, 8397, Note_on_c, 0, 76, 0
1, 8400, Tempo, 400000
1, 8400, Note_on_c, 0, 71, 92
1, 8400, Note_on_c, 0, 74, 90
1, 8400, Note_on_c, 1, 55, 59
1, 8520, Note_on_c, 0, 71, 0
1, 8520, Note_on_c, 0, 67, 70
1, 8600, Note_on_c, 0, 74, 0
1, 8600, Note_on_c, 1, 55, 0
1, 8637, Note_on_c, 0, 67, 0
1, 8640, Note_on_c, 0, 72, 70
1, 8640, Note_on_c, 0, 76, 70
1, 8680, Note_on_c, 0, 76, 0
1, 8680, Note_on_c, 0, 72, 0
1, 8760, Note_on_c, 0, 77, 70
1, 8760, Note_on_c, 0, 74, 70
1, 8800, Note_on_c, 0, 74, 0
1, 8800, Note_on_c, 0, 77, 0
1, 8880, Tempo, 400000
1, 8880, Note_on_c, 0, 76, 70
1, 8880, Note_on_c, 0, 79, 70
1, 8880, Note_on_c, 1, 48, 56
1, 8920, Note_on_c, 0, 79, 0
1, 8920, Note_on_c, 0, 76, 0
1, 8920, Note_on_c, 1, 48, 0
1, 9000, Note_on_c, 0, 76, 70
1, 9000, Note_on_c, 0, 79, 70
1, 9000, Note_on_c, 1, 60, 56
1, 9040, Note_on_c, 0, 79, 0
1, 9040, Note_on_c, 0, 76, 0
1, 9040, Note_on_c, 1, 60, 0
1, 9120, Note_on_c, 0, 81, 70
1, 9120, Note_on_c, 1, 52, 56
1, 9160, Note_on_c, 1, 52, 0
1, 9180, Note_on_c, 0, 81, 0
1, 9180, Note_on_c, 0, 79, 70
1, 9240, Note_on_c, 0, 79, 0
1, 9240, Note_on_c, 0, 77, 70
1, 9240, Note_on_c, 1, 64, 56
1, 9280, Note_on_c, 1, 64, 0
1, 9300, Note_on_c, 0, 77, 0
1, 9300, Note_on_c, 0, 76, 70
1, 9357, Note_on_c, 0, 76, 0
1, 9360, Tempo, 400000
1, 9360, Note_on_c, 0, 71, 92
1, 9360, Note_on_c, 0, 74, 92
1, 9360, Note_on_c, 1, 55, 59
1, 9560, Note_on_c, 0, 74, 0
1, 9560, Note_on_c, 0, 71, 0
1, 9560, Note_on_c, 1, 55, 0
1, 9600, Note_on_c, 0, 69, 70
1, 9600, Note_on_c, 0, 72, 70
1, 9640, Note_on_c, 0, 72, 0
1, 9640, Note_on_c, 0, 69, 0
1, 9720, Note_on_c, 0, 74, 70
1, 9720, Note_on_c, 0, 71, 70
1, 9760, Note_on_c, 0, 71, 0
1, 9760, Note_on_c, 0, 74, 0
1, 9840, Tempo, 400000
1, 9840, Note_on_c, 0, 72, 70
1, 9840, Note_on_c, 0, 76, 70
1, 9840, Note_on_c, 1, 45, 56
1, 9880, Note_on_c, 0, 76, 0
1, 9880, Note_on_c, 0, 72, 0
1, 9880, Note_on_c, 1, 45, 0
1, 9960, Note_on_c, 0, 72, 70
1, 9960, Note_on_c, 0, 76, 70
1, 9960, Note_on_c, 1, 57, 56
1, 10000, Note_on_c, 0, 76, 0
1, 10000, Note_on_c, 0, 72, 0
1, 10000, Note_on_c, 1, 57, 0
1, 10080, Note_on_c, 0, 77, 70
1, 10080, Note_on_c, 1, 48, 56
1, 10120, Note_on_c, 1, 48, 0
1, 10140, Note_on_c, 0, 77, 0
1, 10140, Note_on_c, 0, 76, 70
1, 10200, Note_on_c, 0, 76, 0
1, 10200, Note_on_c, 0, 74, 70
1, 10200, Note_on_c, 1, 60, 56
1, 10240, Note_on_c, 1, 60, 0
1, 10260, Note_on_c, 0, 74, 0
1, 10260, Note_on_c, 0, 72, 70
1, 10317, Note_on_c, 0, 72, 0
1, 10320, Tempo, 400000
1, 10320, Note_on_c, 0, 68, 92
1, 10320, Note_on_c, 0, 71, 90
1, 10320, Note_on_c, 1, 52, 59
1, 10440, Note_on_c, 0, 68, 0
1, 10440, Note_on_c, 0, 64, 70
1, 10520, Note_on_c, 0, 71, 0
1, 10520, Note_on_c, 1, 52, 0
1, 10557, Note_on_c, 0, 64, 0
1, 10560, Note_on_c, 0, 69, 70
1, 10560, Note_on_c, 0, 72, 70
1, 10600, Note_on_c, 0, 72, 0
1, 10600, Note_on_c, 0, 69, 0
1, 10680, Note_on_c, 0, 74, 70
1, 10680, Note_on_c, 0, 71, 70
1, 10720, Note_on_c, 0, 71, 0
1, 10720, Note_on_c, 0, 74, 0
1, 10800, Tempo, 400000
1, 10800, Note_on_c, 0, 72, 70
1, 10800, Note_on_c, 0, 76, 70
1, 10800, Note_on_c, 1, 45, 56
1, 10840, Note_on_c, 0, 76, 0
1, 10840, Note_on_c, 0, 72, 0
1, 10840, Note_on_c, 1, 45, 0
1, 10920, Note_on_c, 0, 72, 70
1, 10920, Note_on_c, 0, 76, 70
1, 10920, Note_on_c, 1, 57, 56
1, 10960, Note_on_c, 0, 76, 0
1, 10960, Note_on_c, 0, 72, 0
1, 10960, Note_on_c, 1, 57, 0
1, 11040, Note_on_c, 0, 77, 70
1, 11040, Note_on_c, 1, 48, 56
1, 11080, Note_on_c, 1, 48, 0
1, 11100, Note_on_c, 0, 77, 0
1, 11100, Note_on_c, 0, 76, 70
1, 11160, Note_on_c, 0, 76, 0
1, 11160, Note_on_c, 0, 74, 70
1, 11160, Note_on_c, 1, 60, 56
1, 11200, Note_on_c, 1, 60, 0
1, 11220, Note_on_c, 0, 74, 0
1, 11220, Note_on_c, 0, 72, 70
1, 11277, Note_on_c, 0, 72, 0
1, 11280, Tempo, 400000
1, 11280, Note_on_c, 0, 68, 72
1, 11280, Note_on_c, 0, 71, 72
1, 11280, Note_on_c, 1, 52, 59
1, 11480, Note_on_c, 0, 71, 0
1, 11480, Note_on_c, 0, 68, 0
1, 11480, Note_on_c, 1, 52, 0
1, 11520, Note_on_c, 0, 71, 68
1, 11580, Note_on_c, 0, 71, 0
1, 11580, Note_on_c, 0, 69, 68
1, 11640, Note_on_c, 0, 69, 0
1, 11640, Note_on_c, 0, 68, 68
1, 11700, Note_on_c, 0, 68, 0
1, 11700, Note_on_c, 0, 69, 68
1, 11760, Tempo, 400000
1, 11760, Note_on_c, 0, 69, 0
1, 11760, Note_on_c, 0, 72, 68
1, 11760, Note_on_c, 1, 57, 54
1, 11877, Note_on_c, 0, 72, 0
1, 11880, Note_on_c, 1, 57, 0
1, 11880, Note_on_c, 1, 64, 54
1, 11880, Note_on_c, 1, 60, 54
1, 11920, Note_on_c, 1, 60, 0
1, 11920, Note_on_c, 1, 64, 0
1, 12000, Note_on_c, 0, 74, 68
1, 12000, Note_on_c, 1, 60, 54
1, 12000, Note_on_c, 1, 64, 54
1, 12040, Note_on_c, 1, 64, 0
1, 12040, Note_on_c, 1, 60, 0
1, 12060, Note_on_c, 0, 74, 0
1, 12060, Note_on_c, 0, 72, 68
1, 12120, Note_on_c, 0, 72, 0
1, 12120, Note_on_c, 0, 71, 68
1, 12120, Note_on_c, 1, 60, 54
1, 12120, Note_on_c, 1, 64, 54
1, 12160, Note_on_c, 1, 64, 0
1, 12160, Note_on_c, 1, 60, 0
1, 12180, Note_on_c, 0, 71, 0
1, 12180, Note_on_c, 0, 72, 68
1, 12240, Tempo, 400000
1, 12240, Note_on_c, 0, 72, 0
1, 12240, Note_on_c, 0, 76, 68
1, 12240, Note_on_c, 1, 57, 54
1, 12357, Note_on_c, 0, 76, 0
1, 12360, Note_on_c, 1, 57, 0
1, 12360, Note_on_c, 1, 60, 54
1, 12360, Note_on_c, 1, 64, 54
1, 12400, Note_on_c, 1, 64, 0
1, 12400, Note_on_c, 1, 60, 0
1, 12480, Note_on_c, 0, 77, 68
1, 12480, Note_on_c, 1, 60, 54
1, 12480, Note_on_c, 1, 64, 54
1, 12520, Note_on_c, 1, 64, 0
1, 12520, Note_on_c, 1, 60, 0
1, 12540, Note_on_c, 0, 77, 0
1, 12540, Note_on_c, 0, 76, 68
1, 12600, Note_on_c, 0, 76, 0
1, 12600, Note_on_c, 0, 75, 68
1, 12600, Note_on_c, 1, 60, 54
1, 12600, Note_on_c, 1, 64, 54
1, 12640, Note_on_c, 1, 64, 0
1, 12640, Note_on_c, 1, 60, 0
1, 12660, Note_on_c, 0, 75, 0
1, 12660, Note_on_c, 0, 76, 68
1, 12720, Tempo, 400000
1, 12720, Note_on_c, 0, 76, 0
1, 12720, Note_on_c, 0, 83, 68
1, 12720, Note_on_c, 1, 57, 54
1, 12760, Note_on_c, 1, 57, 0
1, 12780, Note_on_c, 0, 83, 0
1, 12780, Note_on_c, 0, 81, 68
1, 12840, Note_on_c, 0, 81, 0
1, 12840, Note_on_c, 0, 80, 68
1, 12840, Note_on_c, 1, 64, 54
1, 12840, Note_on_c, 1, 60, 54
1, 12880, Note_on_c, 1, 60, 0
1, 12880, Note_on_c, 1, 64, 0
1, 12900, Note_on_c, 0, 80, 0
1, 12900, Note_on_c, 0, 81, 68
1, 12960, Note_on_c, 0, 81, 0
1, 12960, Note_on_c, 0, 83, 68
1, 12960, Note_on_c, 1, 57, 54
1, 13000, Note_on_c, 1, 57, 0
1, 13020, Note_on_c, 0, 83, 0
1, 13020, Note_on_c, 0, 81, 68
1, 13080, Note_on_c, 0, 81, 0
1, 13080, Note_on_c, 0, 80, 68
1, 13080, Note_on_c, 1, 60, 54
1, 13080, Note_on_c, 1, 64, 54
1, 13120, Note_on_c, 1, 64, 0
1, 13120, Note_on_c, 1, 60, 0
1, 13140, Note_on_c, 0, 80, 0
1, 13140, Note_on_c, 0, 81, 68
1, 13197, Note_on_c, 0, 81, 0
1, 13200, Tempo, 400000
1, 13200, Note_on_c, 0, 84, 73
1, 13200, Note_on_c, 1, 53, 54
1, 13285, Note_on_c, 1, 53, 0
1, 13320, Note_on_c, 1, 57, 54
1, 13320, Note_on_c, 1, 63, 54
1, 13360, Note_on_c, 1, 63, 0
1, 13360, Note_on_c, 1, 57, 0
1, 13400, Note_on_c, 0, 84, 0
1, 13440, Note_on_c, 0, 81, 68
1, 13440, Note_on_c, 1, 57, 54
1, 13440, Note_on_c, 1, 63, 54
1, 13480, Note_on_c, 0, 81, 0
1, 13480, Note_on_c, 1, 63, 0
1, 13480, Note_on_c, 1, 57, 0
1, 13560, Note_on_c, 0, 83, 68
1, 13560, Note_on_c, 1, 57, 54
1, 13560, Note_on_c, 1, 63, 54
1, 13600, Note_on_c, 0, 83, 0
1, 13600, Note_on_c, 1, 63, 0
1, 13600, Note_on_c, 1, 57, 0
1, 13680, Tempo, 400000
1, 13680, Note_on_c, 0, 84, 68
1, 13680, Note_on_c, 1, 52, 54
1, 13720, Note_on_c, 0, 84, 0
1, 13720, Note_on_c, 1, 52, 0
1, 13800, Note_on_c, 0, 83, 68
1, 13800, Note_on_c, 1, 57, 54
1, 13800, Note_on_c, 1, 64, 54
1, 13840, Note_on_c, 0, 83, 0
1, 13840, Note_on_c, 1, 64, 0
1, 13840, Note_on_c, 1, 57, 0
1, 13920, Note_on_c, 0, 81, 68
1, 13920, Note_on_c, 1, 50, 54
1, 13960, Note_on_c, 0, 81, 0
1, 13960, Note_on_c, 1, 50, 0
1, 14040, Note_on_c, 0, 80, 68
1, 14040, Note_on_c, 1, 53, 54
1, 14040, Note_on_c, 1, 59, 54
1, 14080, Note_on_c, 0, 80, 0
1, 14080, Note_on_c, 1, 59, 0
1, 14080, Note_on_c, 1, 53, 0
1, 14160, Tempo, 400000
1, 14160, Note_on_c, 0, 81, 68
1, 14160, Note_on_c, 1, 48, 54
1, 14200, Note_on_c, 0, 81, 0
1, 14200, Note_on_c, 1, 48, 0
1, 14280, Note_on_c, 0, 76, 68
1, 14280, Note_on_c, 1, 52, 54
1, 14280, Note_on_c, 1, 57, 54
1, 14320, Note_on_c, 0, 76, 0
1, 14320, Note_on_c, 1, 57, 0
1, 14320, Note_on_c, 1, 52, 0
1, 14400, Note_on_c, 0, 77, 68
1, 14400, Note_on_c, 1, 50, 54
1, 14440, Note_on_c, 0, 77, 0
1, 14440, Note_on_c, 1, 50, 0
1, 14520, Note_on_c, 0, 74, 68
1, 14520, Note_on_c, 1, 53, 54
1, 14520, Note_on_c, 1, 59, 54
1, 14560, Note_on_c, 0, 74, 0
1, 14560, Note_on_c, 1, 59, 0
1, 14560, Note_on_c, 1, 53, 0
1, 14640, Tempo, 400000
1, 14640, Note_on_c, 0, 72, 68
1, 14640, Note_on_c, 1, 52, 54
1, 14640, Note_on_c, 1, 57, 54
1, 14680, Note_on_c, 1, 57, 0
1, 14680, Note_on_c, 1, 52, 0
1, 14760, Note_on_c, 1, 52, 54
1, 14760, Note_on_c, 1, 57, 54
1, 14800, Note_on_c, 1, 57, 0
1, 14800, Note_on_c, 1, 52, 0
1, 14880, Note_on_c, 0, 72, 0
1, 14880, Note_on_c, 0, 71, 68
1, 14880, Note_on_c, 1, 52, 54
1, 14880, Note_on_c, 1, 56, 54
1, 14920, Note_on_c, 1, 56, 0
1, 14920, Note_on_c, 1, 52, 0
1, 14940, Note_on_c, 0, 71, 0
1, 14940, Note_on_c, 0, 72, 68
1, 15000, Note_on_c, 0, 72, 0
1, 15000, Note_on_c, 0, 71, 68
1, 15000, Note_on_c, 1, 52, 54
1, 15000, Note_on_c, 1, 56, 54
1, 15020, Note_on_c, 0, 71, 0
1, 15020, Note_on_c, 0, 72, 68
1, 15040, Note_on_c, 0, 72, 0
1, 15040, Note_on_c, 0, 71, 68
1, 15040, Note_on_c, 1, 56, 0
1, 15040, Note_on_c, 1, 52, 0
1, 15060, Note_on_c, 0, 71, 0
1, 15060, Note_on_c, 0, 69, 68
1, 15090, Note_on_c, 0, 69, 0
1, 15090, Note_on_c, 0, 71, 68
1, 15120, Tempo, 400000
1, 15120, Note_on_c, 0, 71, 0
1, 15120, Note_on_c, 0, 69, 68
1, 15120, Note_on_c, 1, 45, 54
1, 15120, Note_on_c, 1, 57, 54
1, 15320, Note_on_c, 1, 57, 0
1, 15320, Note_on_c, 1, 45, 0
1, 15360, Note_on_c, 0, 69, 0
1, 15360, Note_on_c, 0, 72, 70
1, 15360, Note_on_c, 0, 76, 70
1, 15400, Note_on_c, 0, 76, 0
1, 15400, Note_on_c, 0, 72, 0
1, 15480, Note_on_c, 0, 77, 70
1, 15480, Note_on_c, 0, 74, 70
1, 15520, Note_on_c, 0, 74, 0
1, 15520, Note_on_c, 0, 77, 0
1, 15600, Tempo, 400000
1, 15600, Note_on_c, 0, 76, 70
1, 15600, Note_on_c, 0, 79, 70
1, 15600, Note_on_c, 1, 48, 56
1, 15640, Note_on_c, 0, 79, 0
1, 15640, Note_on_c, 0, 76, 0
1, 15640, Note_on_c, 1, 48, 0
1, 15720, Note_on_c, 0, 76, 70
1, 15720, Note_on_c, 0, 79, 70
1, 15720, Note_on_c, 1, 60, 56
1, 15760, Note_on_c, 0, 79, 0
1, 15760, Note_on_c, 0, 76, 0
1, 15760, Note_on_c, 1, 60, 0
1, 15840, Note_on_c, 0, 81, 70
1, 15840, Note_on_c, 1, 52, 56
1, 15880, Note_on_c, 1, 52, 0
1, 15900, Note_on_c, 0, 81, 0
1, 15900, Note_on_c, 0, 79, 70
1, 15960, Note_on_c, 0, 79, 0
1, 15960, Note_on_c, 0, 77, 70
1, 15960, Note_on_c, 1, 64, 56
1, 16000, Note_on_c, 1, 64, 0
1, 16020, Note_on_c, 0, 77, 0
1, 16020, Note_on_c, 0, 76, 70
1, 16077, Note_on_c, 0, 76, 0
1, 16080, Tempo, 400000
1, 16080, Note_on_c, 0, 71, 92
1, 16080, Note_on_c, 0, 74, 90
1, 16080, Note_on_c, 1, 55, 59
1, 16200, Note_on_c, 0, 71, 0
1, 16200, Note_on_c, 0, 67, 70
1, 16280, Note_on_c, 0, 74, 0
1, 16280, Note_on_c, 1, 55, 0
1, 16317, Note_on_c, 0, 67, 0
1, 16320, Note_on_c, 0, 72, 70
1, 16320, Note_on_c, 0, 76, 70
1, 16360, Note_on_c, 0, 76, 0
1, 16360, Note_on_c, 0, 72, 0
1, 16440, Note_on_c, 0, 77, 70
1, 16440, Note_on_c, 0, 74, 70
1, 16480, Note_on_c, 0, 74, 0
1, 16480, Note_on_c, 0, 77, 0
1, 16560, Tempo, 400000
1, 16560, Note_on_c, 0, 76, 70
1, 16560, Note_on_c, 0, 79, 70
1, 16560, Note_on_c, 1, 48, 56
1, 16600, Note_on_c, 0, 79, 0
1, 16600, Note_on_c, 0, 76, 0
1, 16600, Note_on_c, 1, 48, 0
1, 16680, Note_on_c, 0, 76, 70
1, 16680, Note_on_c, 0, 79, 70
1, 16680, Note_on_c, 1, 60, 56
1, 16720, Note_on_c, 0, 79, 0
1, 16720, Note_on_c, 0, 76, 0
1, 16720, Note_on_c, 1, 60, 0
1, 16800, Note_on_c, 0, 81, 70
1, 16800, Note_on_c, 1, 52, 56
1, 16840, Note_on_c, 1, 52, 0
1, 16860, Note_on_c, 0, 81, 0
1, 16860, Note_on_c, 0, 79, 70
1, 16920, Note_on_c, 0, 79, 0
1, 16920, Note_on_c, 0, 77, 70
1, 16920, Note_on_c, 1, 64, 56
1, 16960, Note_on_c, 1, 64, 0
1, 16980, Note_on_c, 0, 77, 0
1, 16980, Note_on_c, 0, 76, 70
1, 17037, Note_on_c, 0, 76, 0
1, 17040, Tempo, 400000
1, 17040, Note_on_c, 0, 71, 92
1, 17040, Note_on_c, 0, 74, 92
1, 17040, Note_on_c, 1, 55, 59
1, 17240, Note_on_c, 0, 74, 0
1, 17240, Note_on_c, 0, 71, 0
1, 17240, Note_on_c, 1, 55, 0
1, 17280, Note_on_c, 0, 69, 70
1, 17280, Note_on_c, 0, 72, 70
1, 17320, Note_on_c, 0, 72, 0
1, 17320, Note_on_c, 0, 69, 0
1, 17400, Note_on_c, 0, 74, 70
1, 17400, Note_on_c, 0, 71, 70
1, 17440, Note_on_c, 0, 71, 0
1, 17440, Note_on_c, 0, 74, 0
1, 17520, Tempo, 400000
1, 17520, Note_on_c, 0, 72, 70
1, 17520, Note_on_c, 0, 76, 70
1, 17520, Note_on_c, 1, 45, 56
1, 17560, Note_on_c, 0, 76, 0
1, 17560, Note_on_c, 0, 72, 0
1, 17560, Note_on_c, 1, 45, 0
1, 17640, Note_on_c, 0, 72, 70
1, 17640, Note_on_c, 0, 76, 70
1, 17640, Note_on_c, 1, 57, 56
1, 17680, Note_on_c, 0, 76, 0
1, 17680, Note_on_c, 0, 72, 0
1, 17680, Note_on_c, 1, 57, 0
1, 17760, Note_on_c, 0, 77, 70
1, 17760, Note_on_c, 1, 48, 56
1, 17800, Note_on_c, 1, 48, 0
1, 17820, Note_on_c, 0, 77, 0
1, 17820, Note_on_c, 0, 76, 70
1, 17880, Note_on_c, 0, 76, 0
1, 17880, Note_on_c, 0, 74, 70
1, 17880, Note_on_c, 1, 60, 56
1, 17920, Note_on_c, 1, 60, 0
1, 17940, Note_on_c, 0, 74, 0
1, 17940, Note_on_c, 0, 72, 70
1, 17997, Note_on_c, 0, 72, 0
1, 18000, Tempo, 400000
1, 18000, Note_on_c, 0, 68, 92
1, 18000, Note_on_c, 0, 71, 90
1, 18000, Note_on_c, 1, 52, 59
1, 18120, Note_on_c, 0, 68, 0
1, 18120, Note_on_c, 0, 64, 70
1, 18200, Note_on_c, 0, 71, 0
1, 18200, Note_on_c, 1, 52, 0
1, 18237, Note_on_c, 0, 64, 0
1, 18240, Note_on_c, 0, 69, 70
1, 18240, Note_on_c, 0, 72, 70
1, 18280, Note_on_c, 0, 72, 0
1, 18280, Note_on_c, 0, 69, 0
1, 18360, Note_on_c, 0, 74, 70
1, 18360, Note_on_c, 0, 71, 70
1, 18400, Note_on_c, 0, 71, 0
1, 18400, Note_on_c, 0, 74, 0
1, 18480, Tempo, 400000
1, 18480, Note_on_c, 0, 72, 70
1, 18480, Note_on_c, 0, 76, 70
1, 18480, Note_on_c, 1, 45, 56
1, 18520, Note_on_c, 0, 76, 0
1, 18520, Note_on_c, 0, 72, 0
1, 18520, Note_on_c, 1, 45, 0
1, 18600, Note_on_c, 0, 72, 70
1, 18600, Note_on_c, 0, 76, 70
1, 18600, Note_on_c, 1, 57, 56
1, 18640, Note_on_c, 0, 76, 0
1, 18640, Note_on_c, 0, 72, 0
1, 18640, Note_on_c, 1, 57, 0
1, 18720, Note_on_c, 0, 77, 70
1, 18720, Note_on_c, 1, 48, 56
1, 18760, Note_on_c, 1, 48, 0
1, 18780, Note_on_c, 0, 77, 0
1, 18780, Note_on_c, 0, 76, 70
1, 18840, Note_on_c, 0, 76, 0
1, 18840, Note_on_c, 0, 74, 70
1, 18840, Note_on_c, 1, 60, 56
1, 18880, Note_on_c, 1, 60, 0
1, 18900, Note_on_c, 0, 74, 0
1, 18900, Note_on_c, 0, 72, 70
1, 18957, Note_on_c, 0, 72, 0
1, 18960, Tempo, 400000
1, 18960, Note_on_c, 0, 68, 92
1, 18960, Note_on_c, 0, 71, 92
1, 18960, Note_on_c, 1, 52, 59
1, 19160, Note_on_c, 0, 71, 0
1, 19160, Note_on_c, 0, 68, 0
1, 19160, Note_on_c, 1, 52, 0
1, 19200, Note_on_c, 0, 71, 68
1, 19260, Note_on_c, 0, 71, 0
1, 19260, Note_on_c, 0, 69, 68
1, 19320, Note_on_c, 0, 69, 0
1, 19320, Note_on_c, 0, 68, 68
1, 19380, Note_on_c, 0, 68, 0
1, 19380, Note_on_c, 0, 69, 68
1, 19440, Tempo, 400000
1, 19440, Note_on_c, 0, 69, 0
1, 19440, Note_on_c, 0, 72, 68
1, 19440, Note_on_c, 1, 57, 54
1, 19557, Note_on_c, 0, 72, 0
1, 19560, Note_on_c, 1, 57, 0
1, 19560, Note_on_c, 1, 64, 54
1, 19560, Note_on_c, 1, 60, 54
1, 19600, Note_on_c, 1, 60, 0
1, 19600, Note_on_c, 1, 64, 0
1, 19680, Note_on_c, 0, 74, 68
1, 19680, Note_on_c, 1, 60, 54
1, 19680, Note_on_c, 1, 64, 54
1, 19720, Note_on_c, 1, 64, 0
1, 19720, Note_on_c, 1, 60, 0
1, 19740, Note_on_c, 0, 74, 0
1, 19740, Note_on_c, 0, 72, 68
1, 19800, Note_on_c, 0, 72, 0
1, 19800, Note_on_c, 0, 71, 68
1, 19800, Note_on_c, 1, 60, 54
1, 19800, Note_on_c, 1, 64, 54
1, 19840, Note_on_c, 1, 64, 0
1, 19840, Note_on_c, 1, 60, 0
1, 19860, Note_on_c, 0, 71, 0
1, 19860, Note_on_c, 0, 72, 68
1, 19920, Tempo, 400000
1, 19920, Note_on_c, 0, 72, 0
1, 19920, Note_on_c, 0, 76, 68
1, 19920, Note_on_c, 1, 57, 54
1, 20037, Note_on_c, 0, 76, 0
1, 20040, Note_on_c, 1, 57, 0
1, 20040, Note_on_c, 1, 60, 54
1, 20040, Note_on_c, 1, 64, 54
1, 20080, Note_on_c, 1, 64, 0
1, 20080, Note_on_c, 1, 60, 0
1, 20160, Note_on_c, 0, 77, 68
1, 20160, Note_on_c, 1, 60, 54
1, 20160, Note_on_c, 1, 64, 54
1, 20200, Note_on_c, 1, 64, 0
1, 20200, Note_on_c, 1, 60, 0
1, 20220, Note_on_c, 0, 77, 0
1, 20220, Note_on_c, 0, 76, 68
1, 20280, Note_on_c, 0, 76, 0
1, 20280, Note_on_c, 0, 75, 68
1, 20280, Note_on_c, 1, 60, 54
1, 20280, Note_on_c, 1, 64, 54
1, 20320, Note_on_c, 1, 64, 0
1, 20320, Note_on_c, 1, 60, 0
1, 20340, Note_on_c, 0, 75, 0
1, 20340, Note_on_c, 0, 76, 68
1, 20400, Tempo, 400000
1, 20400, Note_on_c, 0, 76, 0
1, 20400, Note_on_c, 0, 83, 68
1, 20400, Note_on_c, 1, 57, 54
1, 20440, Note_on_c, 1, 57, 0
1, 20460, Note_on_c, 0, 83, 0
1, 20460, Note_on_c, 0, 81, 78
1, 20520, Note_on_c, 0, 81, 0
1, 20520, Note_on_c, 0, 80, 89
1, 20520, Note_on_c, 1, 64, 54
1, 20520, Note_on_c, 1, 60, 54
1, 20560, Note_on_c, 1, 60, 0
1, 20560, Note_on_c, 1, 64, 0
1, 20580, Note_on_c, 0, 80, 0
1, 20580, Note_on_c, 0, 81, 99
1, 20640, Note_on_c, 0, 81, 0
1, 20640, Note_on_c, 0, 83, 107
1, 20640, Note_on_c, 1, 57, 54
1, 20680, Note_on_c, 1, 57, 0
1, 20700, Note_on_c, 0, 83, 0
1, 20700, Note_on_c, 0, 81, 100
1, 20760, Note_on_c, 0, 81, 0
1, 20760, Note_on_c, 0, 80, 88
1, 20760, Note_on_c, 1, 60, 54
1, 20760, Note_on_c, 1, 64, 54
1, 20800, Note_on_c, 1, 64, 0
1, 20800, Note_on_c, 1, 60, 0
1, 20820, Note_on_c, 0, 80, 0
1, 20820, Note_on_c, 0, 81, 80
1, 20877, Note_on_c, 0, 81, 0
1, 20880, Tempo, 400000
1, 20880, Note_on_c, 0, 84, 110
1, 20880, Note_on_c, 1, 53, 54
1, 20965, Note_on_c, 1, 53, 0
1, 21000, Note_on_c, 1, 57, 54
1, 21000, Note_on_c, 1, 63, 54
1, 21040, Note_on_c, 1, 63, 0
1, 21040, Note_on_c, 1, 57, 0
1, 21080, Note_on_c, 0, 84, 0
1, 21120, Note_on_c, 0, 81, 68
1, 21120, Note_on_c, 1, 57, 54
1, 21120, Note_on_c, 1, 63, 54
1, 21160, Note_on_c, 0, 81, 0
1, 21160, Note_on_c, 1, 63, 0
1, 21160, Note_on_c, 1, 57, 0
1, 21240, Note_on_c, 0, 83, 68
1, 21240, Note_on_c, 1, 57, 54
1, 21240, Note_on_c, 1, 63, 54
1, 21280, Note_on_c, 0, 83, 0
1, 21280, Note_on_c, 1, 63, 0
1, 21280, Note_on_c, 1, 57, 0
1, 21360, Tempo, 400000
1, 21360, Note_on_c, 0, 84, 68
1, 21360, Note_on_c, 1, 52, 54
1, 21400, Note_on_c, 0, 84, 0
1, 21400, Note_on_c, 1, 52, 0
1, 21480, Note_on_c, 0, 83, 68
1, 21480, Note_on_c, 1, 57, 54
1, 21480, Note_on_c, 1, 64, 54
1, 21520, Note_on_c, 0, 83, 0
1, 21520, Note_on_c, 1, 64, 0
1, 21520, Note_on_c, 1, 57, 0
1, 21600, Note_on_c, 0, 81, 68
1, 21600, Note_on_c, 1, 50, 54
1, 21640, Note_on_c, 0, 81, 0
1, 21640, Note_on_c, 1, 50, 0
1, 21720, Note_on_c, 0, 80, 68
1, 21720, Note_on_c, 1, 53, 54
1, 21720, Note_on_c, 1, 59, 54
1, 21760, Note_on_c, 0, 80, 0
1, 21760, Note_on_c, 1, 59, 0
1, 21760, Note_on_c, 1, 53, 0
1, 21840, Tempo, 400000
1, 21840, Note_on_c, 0, 81, 68
1, 21840, Note_on_c, 1, 48, 54
1, 21880, Note_on_c, 0, 81, 0
1, 21880, Note_on_c, 1, 48, 0
1, 21960, Note_on_c, 0, 76, 68
1, 21960, Note_on_c, 1, 52, 54
1, 21960, Note_on_c, 1, 57, 54
1, 22000, Note_on_c, 0, 76, 0
1, 22000, Note_on_c, 1, 57, 0
1, 22000, Note_on_c, 1, 52, 0
1, 22080, Note_on_c, 0, 77, 68
1, 22080, Note_on_c, 1, 50, 54
1, 22120, Note_on_c, 0, 77, 0
1, 22120, Note_on_c, 1, 50, 0
1, 22200, Note_on_c, 0, 74, 68
1, 22200, Note_on_c, 1, 53, 54
1, 22200, Note_on_c, 1, 59, 54
1, 22240, Note_on_c, 0, 74, 0
1, 22240, Note_on_c, 1, 59, 0
1, 22240, Note_on_c, 1, 53, 0
1, 22320, Tempo, 400000
1, 22320, Note_on_c, 0, 72, 68
1, 22320, Note_on_c, 1, 52, 54
1, 22320, Note_on_c, 1, 57, 54
1, 22360, Note_on_c, 1, 57, 0
1, 22360, Note_on_c, 1, 52, 0
1, 22440, Note_on_c, 1, 52, 54
1, 22440, Note_on_c, 1, 57, 54
1, 22480, Note_on_c, 1, 57, 0
1, 22480, Note_on_c, 1, 52, 0
1, 22560, Note_on_c, 0, 72, 0
1, 22560, Note_on_c, 0, 71, 68
1, 22560, Note_on_c, 1, 52, 54
1, 22560, Note_on_c, 1, 56, 54
1, 22600, Note_on_c, 1, 56, 0
1, 22600, Note_on_c, 1, 52, 0
1, 22620, Note_on_c, 0, 71, 0
1, 22620, Note_on_c, 0, 72, 68
1, 22680, Note_on_c, 0, 72, 0
1, 22680, Note_on_c, 0, 71, 68
1, 22680, Note_on_c, 1, 52, 54
1, 22680, Note_on_c, 1, 56, 54
1, 22700, Note_on_c, 0, 71, 0
1, 22700, Note_on_c, 0, 72, 68
1, 22720, Note_on_c, 0, 72, 0
1, 22720, Note_on_c, 0, 71, 68
1, 22720, Note_on_c, 1, 56, 0
1, 22720, Note_on_c, 1, 52, 0
1, 22740, Note_on_c, 0, 71, 0
1, 22740, Note_on_c, 0, 69, 68
1, 22770, Note_on_c, 0, 69, 0
1, 22770, Note_on_c, 0, 71, 68
1, 22800, Tempo, 400000
1, 22800, Note_on_c, 0, 71, 0
1, 22800, Note_on_c, 0, 69, 68
1, 22800, Note_on_c, 1, 45, 54
1, 22800, Note_on_c, 1, 57, 54
1, 23000, Note_on_c, 1, 57, 0
1, 23000, Note_on_c, 1, 45, 0
1, 23040, Note_on_c, 0, 69, 0
1, 23040, Note_on_c, 0, 81, 106
1, 23040, Note_on_c, 0, 69, 106
1, 23080, Note_on_c, 0, 69, 0
1, 23080, Note_on_c, 0, 81, 0
1, 23160, Note_on_c, 0, 71, 106
1, 23160, Note_on_c, 0, 83, 106
1, 23200, Note_on_c, 0, 83, 0
1, 23200, Note_on_c, 0, 71, 0
1, 23280, Tempo, 400000
1, 23280, Note_on_c, 0, 73, 127
1, 23280, Note_on_c, 0, 85, 127
1, 23280, Note_on_c, 1, 45, 60
1, 23310, Note_on_c, 1, 45, 0
1, 23310, Note_on_c, 1, 49, 60
1, 23340, Note_on_c, 1, 49, 0
1, 23340, Note_on_c, 1, 52, 60
1, 23370, Note_on_c, 1, 52, 0
1, 23370, Note_on_c, 1, 57, 60
1, 23390, Note_on_c, 1, 57, 0
1, 23400, Note_on_c, 1, 57, 60
1, 23440, Note_on_c, 1, 57, 0
1, 23480, Note_on_c, 0, 85, 0
1, 23480, Note_on_c, 0, 73, 0
1, 23520, Note_on_c, 0, 69, 106
1, 23520, Note_on_c, 0, 81, 106
1, 23520, Note_on_c, 1, 57, 60
1, 23560, Note_on_c, 0, 81, 0
1, 23560, Note_on_c, 0, 69, 0
1, 23560, Note_on_c, 1, 57, 0
1, 23640, Note_on_c, 0, 71, 106
1, 23640, Note_on_c, 0, 83, 106
1, 23640, Note_on_c, 1, 57, 60
1, 23680, Note_on_c, 0, 83, 0
1, 23680, Note_on_c, 0, 71, 0
1, 23680, Note_on_c, 1, 57, 0
1, 23760, Tempo, 400000
1, 23760, Note_on_c, 0, 73, 127
1, 23760, Note_on_c, 0, 85, 127
1, 23760, Note_on_c, 1, 45, 60
1, 23790, Note_on_c, 1, 45, 0
1, 23790, Note_on_c, 1, 49, 60
1, 23800, Note_on_c, 0, 85, 0
1, 23800, Note_on_c, 0, 73, 0
1, 23820, Note_on_c, 1, 49, 0
1, 23820, Note_on_c, 1, 52, 60
1, 23850, Note_on_c, 1, 52, 0
1, 23850, Note_on_c, 1, 57, 60
1, 23870, Note_on_c, 1, 57, 0
1, 23880, Note_on_c, 0, 71, 106
1, 23880, Note_on_c, 0, 83, 106
1, 23880, Note_on_c, 1, 57, 60
1, 23920, Note_on_c, 0, 83, 0
1, 23920, Note_on_c, 0, 71, 0
1, 23920, Note_on_c, 1, 57, 0
1, 24000, Note_on_c, 0, 69, 106
1, 24000, Note_on_c, 0, 81, 106
1, 24000, Note_on_c, 1, 57, 60
1, 24040, Note_on_c, 0, 81, 0
1, 24040, Note_on_c, 0, 69, 0
1, 24040, Note_on_c, 1, 57, 0
1, 24120, Note_on_c, 0, 68, 106
1, 24120, Note_on_c, 0, 80, 106
1, 24120, Note_on_c, 1, 57, 60
1, 24160, Note_on_c, 0, 80, 0
1, 24160, Note_on_c, 0, 68, 0
1, 24160, Note_on_c, 1, 57, 0
1, 24240, Tempo, 400000
1, 24240, Note_on_c, 0, 66, 106
1, 24240, Note_on_c, 0, 78, 106
1, 24240, Note_on_c, 1, 38, 60
1, 24270, Note_on_c, 1, 38, 0
1, 24270, Note_on_c, 1, 42, 60
1, 24280, Note_on_c, 0, 78, 0
1, 24280, Note_on_c, 0, 66, 0
1, 24300, Note_on_c, 1, 42, 0
1, 24300, Note_on_c, 1, 45, 60
1, 24330, Note_on_c, 1, 45, 0
1, 24330, Note_on_c, 1, 50, 60
1, 24350, Note_on_c, 1, 50, 0
1, 24360, Note_on_c, 0, 68, 106
1, 24360, Note_on_c, 0, 80, 106
1, 24360, Note_on_c, 1, 50, 60
1, 24400, Note_on_c, 0, 80, 0
1, 24400, Note_on_c, 0, 68, 0
1, 24400, Note_on_c, 1, 50, 0
1, 24480, Note_on_c, 0, 69, 106
1, 24480, Note_on_c, 0, 81, 106
1, 24480, Note_on_c, 1, 39, 60
1, 24510, Note_on_c, 1, 39, 0
1, 24510, Note_on_c, 1, 42, 60
1, 24520, Note_on_c, 0, 81, 0
1, 24520, Note_on_c, 0, 69, 0
1, 24540, Note_on_c, 1, 42, 0
1, 24540, Note_on_c, 1, 45, 60
1, 24570, Note_on_c, 1, 45, 0
1, 24570, Note_on_c, 1, 51, 60
1, 24590, Note_on_c, 1, 51, 0
1, 24600, Note_on_c, 0, 71, 106
1, 24600, Note_on_c, 0, 83, 106
1, 24600, Note_on_c, 1, 51, 60
1, 24640, Note_on_c, 0, 83, 0
1, 24640, Note_on_c, 0, 71, 0
1, 24640, Note_on_c, 1, 51, 0
1, 24720, Tempo, 400000
1, 24720, Note_on_c, 0, 68, 106
1, 24720, Note_on_c, 0, 80, 106
1, 24720, Note_on_c, 1, 40, 60
1, 24750, Note_on_c, 1, 40, 0
1, 24750, Note_on_c, 1, 44, 60
1, 24780, Note_on_c, 1, 44, 0
1, 24780, Note_on_c, 1, 47, 60
1, 24810, Note_on_c, 1, 47, 0
1, 24810, Note_on_c, 1, 52, 60
1, 24830, Note_on_c, 1, 52, 0
1, 24840, Note_on_c, 0, 80, 0
1, 24840, Note_on_c, 0, 68, 0
1, 24840, Note_on_c, 0, 64, 106
1, 24840, Note_on_c, 0, 76, 106
1, 24840, Note_on_c, 1, 52, 60
1, 24880, Note_on_c, 0, 76, 0
1, 24880, Note_on_c, 0, 64, 0
1, 24880, Note_on_c, 1, 52, 0
1, 24960, Note_on_c, 0, 69, 106
1, 24960, Note_on_c, 0, 81, 106
1, 24960, Note_on_c, 1, 52, 60
1, 25000, Note_on_c, 0, 81, 0
1, 25000, Note_on_c, 0, 69, 0
1, 25000, Note_on_c, 1, 52, 0
1, 25080, Note_on_c, 0, 83, 106
1, 25080, Note_on_c, 0, 71, 106
1, 25080, Note_on_c, 1, 52, 60
1, 25120, Note_on_c, 0, 71, 0
1, 25120, Note_on_c, 0, 83, 0
1, 25120, Note_on_c, 1, 52, 0
1, 25200, Tempo, 400000
1, 25200, Note_on_c, 0, 73, 110
1, 25200, Note_on_c, 0, 85, 110
1, 25200, Note_on_c, 1, 45, 60
1, 25230, Note_on_c, 1, 45, 0
1, 25230, Note_on_c, 1, 49, 60
1, 25260, Note_on_c, 1, 49, 0
1, 25260, Note_on_c, 1, 52, 60
1, 25290, Note_on_c, 1, 52, 0
1, 25290, Note_on_c, 1, 57, 60
1, 25310, Note_on_c, 1, 57, 0
1, 25320, Note_on_c, 1, 57, 60
1, 25360, Note_on_c, 1, 57, 0
1, 25400, Note_on_c, 0, 85, 0
1, 25400, Note_on_c, 0, 73, 0
1, 25440, Note_on_c, 0, 69, 106
1, 25440, Note_on_c, 0, 81, 106
1, 25440, Note_on_c, 1, 57, 60
1, 25480, Note_on_c, 0, 81, 0
1, 25480, Note_on_c, 0, 69, 0
1, 25480, Note_on_c, 1, 57, 0
1, 25560, Note_on_c, 0, 71, 106
1, 25560, Note_on_c, 0, 83, 106
1, 25560, Note_on_c, 1, 57, 60
1, 25600, Note_on_c, 0, 83, 0
1, 25600, Note_on_c, 0, 71, 0
1, 25600, Note_on_c, 1, 57, 0
1, 25680, Tempo, 400000
1, 25680, Note_on_c, 0, 73, 110
1, 25680, Note_on_c, 0, 85, 110
1, 25680, Note_on_c, 1, 45, 60
1, 25710, Note_on_c, 1, 45, 0
1, 25710, Note_on_c, 1, 49, 60
1, 25720, Note_on_c, 0, 85, 0
1, 25720, Note_on_c, 0, 73, 0
1, 25740, Note_on_c, 1, 49, 0
1, 25740, Note_on_c, 1, 52, 60
1, 25770, Note_on_c, 1, 52, 0
1, 25770, Note_on_c, 1, 57, 60
1, 25790, Note_on_c, 1, 57, 0
1, 25800, Note_on_c, 0, 71, 106
1, 25800, Note_on_c, 0, 83, 106
1, 25800, Note_on_c, 1, 57, 60
1, 25840, Note_on_c, 0, 83, 0
1, 25840, Note_on_c, 0, 71, 0
1, 25840, Note_on_c, 1, 57, 0
1, 25920, Note_on_c, 0, 69, 106
1, 25920, Note_on_c, 0, 81, 106
1, 25920, Note_on_c, 1, 57, 60
1, 25960, Note_on_c, 0, 81, 0
1, 25960, Note_on_c, 0, 69, 0
1, 25960, Note_on_c, 1, 57, 0
1, 26040, Note_on_c, 0, 68, 106
1, 26040, Note_on_c, 0, 80, 106
1, 26040, Note_on_c, 1, 57, 60
1, 26080, Note_on_c, 0, 80, 0
1, 26080, Note_on_c, 0, 68, 0
1, 26080, Note_on_c, 1, 57, 0
1, 26160, Tempo, 400000
1, 26160, Note_on_c, 0, 66, 106
1, 26160, Note_on_c, 0, 78, 106
1, 26160, Note_on_c, 1, 38, 60
1, 26190, Note_on_c, 1, 38, 0
1, 26190, Note_on_c, 1, 42, 60
1, 26200, Note_on_c, 0, 78, 0
1, 26200, Note_on_c, 0, 66, 0
1, 26220, Note_on_c, 1, 42, 0
1, 26220, Note_on_c, 1, 45, 60
1, 26250, Note_on_c, 1, 45, 0
1, 26250, Note_on_c, 1, 50, 60
1, 26270, Note_on_c, 1, 50, 0
1, 26280, Note_on_c, 0, 71, 106
1, 26280, Note_on_c, 0, 83, 106
1, 26280, Note_on_c, 1, 50, 60
1, 26320, Note_on_c, 0, 83, 0
1, 26320, Note_on_c, 0, 71, 0
1, 26320, Note_on_c, 1, 50, 0
1, 26400, Note_on_c, 0, 68, 106
1, 26400, Note_on_c, 0, 80, 106
1, 26400, Note_on_c, 1, 40, 60
1, 26430, Note_on_c, 1, 40, 0
1, 26430, Note_on_c, 1, 44, 60
1, 26440, Note_on_c, 0, 80, 0
1, 26440, Note_on_c, 0, 68, 0
1, 26460, Note_on_c, 1, 44, 0
1, 26460, Note_on_c, 1, 47, 60
1, 26490, Note_on_c, 1, 47, 0
1, 26490, Note_on_c, 1, 52, 60
1, 26510, Note_on_c, 1, 52, 0
1, 26520, Note_on_c, 0, 64, 106
1, 26520, Note_on_c, 0, 76, 106
1, 26520, Note_on_c, 1, 52, 60
1, 26560, Note_on_c, 0, 76, 0
1, 26560, Note_on_c, 0, 64, 0
1, 26560, Note_on_c, 1, 52, 0
1, 26640, Tempo, 400000
1, 26640, Note_on_c, 0, 69, 106
1, 26640, Note_on_c, 0, 81, 106
1, 26640, Note_on_c, 1, 45, 60
1, 26840, Note_on_c, 0, 81, 0
1, 26840, Note_on_c, 0, 69, 0
1, 26840, Note_on_c, 1, 45, 0
1, 26880, Note_on_c, 0, 81, 106
1, 26880, Note_on_c, 0, 69, 106
1, 26920, Note_on_c, 0, 69, 0
1, 26920, Note_on_c, 0, 81, 0
1, 27000, Note_on_c, 0, 71, 106
1, 27000, Note_on_c, 0, 83, 106
1, 27040, Note_on_c, 0, 83, 0
1, 27040, Note_on_c, 0, 71, 0
1, 27120, Tempo, 400000
1, 27120, Note_on_c, 0, 73, 110
1, 27120, Note_on_c, 0, 85, 110
1, 27120, Note_on_c, 1, 45, 60
1, 27150, Note_on_c, 1, 45, 0
1, 27150, Note_on_c, 1, 49, 60
1, 27180, Note_on_c, 1, 49, 0
1, 27180, Note_on_c, 1, 52, 60
1, 27210, Note_on_c, 1, 52, 0
1, 27210, Note_on_c, 1, 57, 60
1, 27230, Note_on_c, 1, 57, 0
1, 27240, Note_on_c, 1, 57, 60
1, 27280, Note_on_c, 1, 57, 0
1, 27320, Note_on_c, 0, 85, 0
1, 27320, Note_on_c, 0, 73, 0
1, 27360, Note_on_c, 0, 69, 106
1, 27360, Note_on_c, 0, 81, 106
1, 27360, Note_on_c, 1, 57, 60
1, 27400, Note_on_c, 0, 81, 0
1, 27400, Note_on_c, 0, 69, 0
1, 27400, Note_on_c, 1, 57, 0
1, 27480, Note_on_c, 0, 71, 106
1, 27480, Note_on_c, 0, 83, 106
1, 27480, Note_on_c, 1, 57, 60
1, 27520, Note_on_c, 0, 83, 0
1, 27520, Note_on_c, 0, 71, 0
1, 27520, Note_on_c, 1, 57, 0
1, 27600, Tempo, 400000
1, 27600, Note_on_c, 0, 73, 110
1, 27600, Note_on_c, 0, 85, 110
1, 27600, Note_on_c, 1, 45, 60
1, 27630, Note_on_c, 1, 45, 0
1, 27630, Note_on_c, 1, 49, 60
1, 27640, Note_on_c, 0, 85, 0
1, 27640, Note_on_c, 0, 73, 0
1, 27660, Note_on_c, 1, 49, 0
1, 27660, Note_on_c, 1, 52, 60
1, 27690, Note_on_c, 1, 52, 0
1, 27690, Note_on_c, 1, 57, 60
1, 27710, Note_on_c, 1, 57, 0
1, 27720, Note_on_c, 0, 71, 106
1, 27720, Note_on_c, 0, 83, 106
1, 27720, Note_on_c, 1, 57, 60
1, 27760, Note_on_c, 0, 83, 0
1, 27760, Note_on_c, 0, 71, 0
1, 27760, Note_on_c, 1, 57, 0
1, 27840, Note_on_c, 0, 69, 106
1, 27840, Note_on_c, 0, 81, 106
1, 27840, Note_on_c, 1, 57, 60
1, 27880, Note_on_c, 0, 81, 0
1, 27880, Note_on_c, 0, 69, 0
1, 27880, Note_on_c, 1, 57, 0
1, 27960, Note_on_c, 0, 68, 106
1, 27960, Note_on_c, 0, 80, 106
1, 27960, Note_on_c, 1, 57, 60
1, 28000, Note_on_c, 0, 80, 0
1, 28000, Note_on_c, 0, 68, 0
1, 28000, Note_on_c, 1, 57, 0
1, 28080, Tempo, 400000
1, 28080, Note_on_c, 0, 66, 106
1, 28080, Note_on_c, 0, 78, 106
1, 28080, Note_on_c, 1, 38, 60
1, 28110, Note_on_c, 1, 38, 0
1, 28110, Note_on_c, 1, 42, 60
1, 28120, Note_on_c, 0, 78, 0
1, 28120, Note_on_c, 0, 66, 0
1, 28140, Note_on_c, 1, 42, 0
1, 28140, Note_on_c, 1, 45, 60
1, 28170, Note_on_c, 1, 45, 0
1, 28170, Note_on_c, 1, 50, 60
1, 28190, Note_on_c, 1, 50, 0
1, 28200, Note_on_c, 0, 68, 106
1, 28200, Note_on_c, 0, 80, 106
1, 28200, Note_on_c, 1, 50, 60
1, 28240, Note_on_c, 0, 80, 0
1, 28240, Note_on_c, 0, 68, 0
1, 28240, Note_on_c, 1, 50, 0
1, 28320, Note_on_c, 0, 69, 106
1, 28320, Note_on_c, 0, 81, 106
1, 28320, Note_on_c, 1, 39, 60
1, 28350, Note_on_c, 1, 39, 0
1, 28350, Note_on_c, 1, 42, 60
1, 28360, Note_on_c, 0, 81, 0
1, 28360, Note_on_c, 0, 69, 0
1, 28380, Note_on_c, 1, 42, 0
1, 28380, Note_on_c, 1, 45, 60
1, 28410, Note_on_c, 1, 45, 0
1, 28410, Note_on_c, 1, 51, 60
1, 28430, Note_on_c, 1, 51, 0
1, 28440, Note_on_c, 0, 71, 106
1, 28440, Note_on_c, 0, 83, 106
1, 28440, Note_on_c, 1, 51, 60
1, 28480, Note_on_c, 0, 83, 0
1, 28480, Note_on_c, 0, 71, 0
1, 28480, Note_on_c, 1, 51, 0
1, 28560, Tempo, 400000
1, 28560, Note_on_c, 0, 68, 106
1, 28560, Note_on_c, 0, 80, 106
1, 28560, Note_on_c, 1, 40, 60
1, 28590, Note_on_c, 1, 40, 0
1, 28590, Note_on_c, 1, 44, 60
1, 28620, Note_on_c, 1, 44, 0
1, 28620, Note_on_c, 1, 47, 60
1, 28650, Note_on_c, 1, 47, 0
1, 28650, Note_on_c, 1, 52, 60
1, 28670, Note_on_c, 1, 52, 0
1, 28680, Note_on_c, 0, 80, 0
1, 28680, Note_on_c, 0, 68, 0
1, 28680, Note_on_c, 0, 64, 106
1, 28680, Note_on_c, 0, 76, 106
1, 28680, Note_on_c, 1, 52, 60
1, 28720, Note_on_c, 0, 76, 0
1, 28720, Note_on_c, 0, 64, 0
1, 28720, Note_on_c, 1, 52, 0
1, 28800, Note_on_c, 0, 69, 106
1, 28800, Note_on_c, 0, 81, 106
1, 28800, Note_on_c, 1, 52, 60
1, 28840, Note_on_c, 0, 81, 0
1, 28840, Note_on_c, 0, 69, 0
1, 28840, Note_on_c, 1, 52, 0
1, 28920, Note_on_c, 0, 83, 106
1, 28920, Note_on_c, 0, 71, 106
1, 28920, Note_on_c, 1, 52, 60
1, 28960, Note_on_c, 0, 71, 0
1, 28960, Note_on_c, 0, 83, 0
1, 28960, Note_on_c, 1, 52, 0
1, 29040, Tempo, 400000
1, 29040, Note_on_c, 0, 73, 110
1, 29040, Note_on_c, 0, 85, 110
1, 29040, Note_on_c, 1, 45, 60
1, 29070, Note_on_c, 1, 45, 0
1, 29070, Note_on_c, 1, 49, 60
1, 29100, Note_on_c, 1, 49, 0
1, 29100, Note_on_c, 1, 52, 60
1, 29130, Note_on_c, 1, 52, 0
1, 29130, Note_on_c, 1, 57, 60
1, 29150, Note_on_c, 1, 57, 0
1, 29160, Note_on_c, 1, 57, 60
1, 29200, Note_on_c, 1, 57, 0
1, 29240, Note_on_c, 0, 85, 0
1, 29240, Note_on_c, 0, 73, 0
1, 29280, Note_on_c, 0, 69, 106
1, 29280, Note_on_c, 0, 81, 106
1, 29280, Note_on_c, 1, 57, 60
1, 29320, Note_on_c, 0, 81, 0
1, 29320, Note_on_c, 0, 69, 0
1, 29320, Note_on_c, 1, 57, 0
1, 29400, Note_on_c, 0, 71, 106
1, 29400, Note_on_c, 0, 83, 106
1, 29400, Note_on_c, 1, 57, 60
1, 29440, Note_on_c, 0, 83, 0
1, 29440, Note_on_c, 0, 71, 0
1, 29440, Note_on_c, 1, 57, 0
1, 29520, Tempo, 400000
1, 29520, Note_on_c, 0, 73, 110
1, 29520, Note_on_c, 0, 85, 110
1, 29520, Note_on_c, 1, 45, 60
1, 29550, Note_on_c, 1, 45, 0
1, 29550, Note_on_c, 1, 49, 60
1, 29560, Note_on_c, 0, 85, 0
1, 29560, Note_on_c, 0, 73, 0
1, 29580, Note_on_c, 1, 49, 0
1, 29580, Note_on_c, 1, 52, 60
1, 29610, Note_on_c, 1, 52, 0
1, 29610, Note_on_c, 1, 57, 60
1, 29630, Note_on_c, 1, 57, 0
1, 29640, Note_on_c, 0, 71, 106
1, 29640, Note_on_c, 0, 83, 106
1, 29640, Note_on_c, 1, 57, 60
1, 29680, Note_on_c, 0, 83, 0
1, 29680, Note_on_c, 0, 71, 0
1, 29680, Note_on_c, 1, 57, 0
1, 29760, Note_on_c, 0, 69, 106
1, 29760, Note_on_c, 0, 81, 106
1, 29760, Note_on_c, 1, 57, 60
1, 29800, Note_on_c, 0, 81, 0
1, 29800, Note_on_c, 0, 69, 0
1, 29800, Note_on_c, 1, 57, 0
1, 29880, Note_on_c, 0, 68, 106
1, 29880, Note_on_c, 0, 80, 106
1, 29880, Note_on_c, 1, 57, 60
1, 29920, Note_on_c, 0, 80, 0
1, 29920, Note_on_c, 0, 68, 0
1, 29920, Note_on_c, 1, 57, 0
1, 30000, Tempo, 400000
1, 30000, Note_on_c, 0, 66, 106
1, 30000, Note_on_c, 0, 78, 106
1, 30000, Note_on_c, 1, 38, 60
1, 30030, Note_on_c, 1, 38, 0
1, 30030, Note_on_c, 1, 42, 60
1, 30040, Note_on_c, 0, 78, 0
1, 30040, Note_on_c, 0, 66, 0
1, 30060, Note_on_c, 1, 42, 0
1, 30060, Note_on_c, 1, 45, 60
1, 30090, Note_on_c, 1, 45, 0
1, 30090, Note_on_c, 1, 50, 60
1, 30110, Note_on_c, 1, 50, 0
1, 30120, Note_on_c, 0, 71, 106
1, 30120, Note_on_c, 0, 83, 106
1, 30120, Note_on_c, 1, 50, 60
1, 30160, Note_on_c, 0, 83, 0
1, 30160, Note_on_c, 0, 71, 0
1, 30160, Note_on_c, 1, 50, 0
1, 30240, Note_on_c, 0, 68, 106
1, 30240, Note_on_c, 0, 80, 106
1, 30240, Note_on_c, 1, 40, 60
1, 30270, Note_on_c, 1, 40, 0
1, 30270, Note_on_c, 1, 44, 60
1, 30280, Note_on_c, 0, 80, 0
1, 30280, Note_on_c, 0, 68, 0
1, 30300, Note_on_c, 1, 44, 0
1, 30300, Note_on_c, 1, 47, 60
1, 30330, Note_on_c, 1, 47, 0
1, 30330, Note_on_c, 1, 52, 60
1, 30350, Note_on_c, 1, 52, 0
1, 30360, Note_on_c, 0, 64, 106
1, 30360, Note_on_c, 0, 76, 106
1, 30360, Note_on_c, 1, 52, 60
1, 30400, Note_on_c, 0, 76, 0
1, 30400, Note_on_c, 0, 64, 0
1, 30400, Note_on_c, 1, 52, 0
1, 30480, Tempo, 400000
1, 30480, Note_on_c, 0, 69, 106
1, 30480, Note_on_c, 0, 81, 106
1, 30480, Note_on_c, 1, 45, 60
1, 30680, Note_on_c, 0, 81, 0
1, 30680, Note_on_c, 0, 69, 0
1, 30680, Note_on_c, 1, 45, 0
1, 30720, Tempo, 375000
1, 30720, Note_on_c, 0, 85, 68
1, 30780, Note_on_c, 0, 85, 0
1, 30780, Note_on_c, 0, 86, 68
1, 30840, Note_on_c, 0, 86, 0
1, 30840, Note_on_c, 0, 85, 68
1, 30900, Note_on_c, 0, 85, 0
1, 30900, Note_on_c, 0, 83, 68
1, 30960, Tempo, 375000
1, 30960, Note_on_c, 0, 83, 0
1, 30960, Note_on_c, 0, 81, 68
1, 30960, Note_on_c, 1, 54, 54
1, 31020, Note_on_c, 0, 81, 0
1, 31020, Note_on_c, 0, 83, 68
1, 31045, Note_on_c, 1, 54, 0
1, 31080, Note_on_c, 0, 83, 0
1, 31080, Note_on_c, 0, 81, 68
1, 31080, Note_on_c, 1, 61, 54
1, 31080, Note_on_c, 1, 57, 54
1, 31120, Note_on_c, 1, 57, 0
1, 31120, Note_on_c, 1, 61, 0
1, 31140, Note_on_c, 0, 81, 0
1, 31140, Note_on_c, 0, 80, 68
1, 31200, Note_on_c, 0, 80, 0
1, 31200, Note_on_c, 0, 78, 68
1, 31200, Note_on_c, 1, 57, 54
1, 31200, Note_on_c, 1, 61, 54
1, 31240, Note_on_c, 1, 61, 0
1, 31240, Note_on_c, 1, 57, 0
1, 31260, Note_on_c, 0, 78, 0
1, 31260, Note_on_c, 0, 81, 68
1, 31320, Note_on_c, 0, 81, 0
1, 31320, Note_on_c, 0, 80, 68
1, 31320, Note_on_c, 1, 57, 54
1, 31320, Note_on_c, 1, 61, 54
1, 31360, Note_on_c, 1, 61, 0
1, 31360, Note_on_c, 1, 57, 0
1, 31380, Note_on_c, 0, 80, 0
1, 31380, Note_on_c, 0, 78, 68
1, 31440, Tempo, 375000
1, 31440, Note_on_c, 0, 78, 0
1, 31440, Note_on_c, 0, 77, 68
1, 31440, Note_on_c, 1, 56, 54
1, 31500, Note_on_c, 0, 77, 0
1, 31500, Note_on_c, 0, 78, 68
1, 31525, Note_on_c, 1, 56, 0
1, 31560, Note_on_c, 0, 78, 0
1, 31560, Note_on_c, 0, 80, 68
1, 31560, Note_on_c, 1, 61, 54
1, 31560, Note_on_c, 1, 59, 54
1, 31600, Note_on_c, 1, 59, 0
1, 31600, Note_on_c, 1, 61, 0
1, 31620, Note_on_c, 0, 80, 0
1, 31620, Note_on_c, 0, 77, 68
1, 31680, Note_on_c, 0, 77, 0
1, 31680, Note_on_c, 0, 73, 68
1, 31680, Note_on_c, 1, 59, 54
1, 31680, Note_on_c, 1, 61, 54
1, 31720, Note_on_c, 1, 61, 0
1, 31720, Note_on_c, 1, 59, 0
1, 31740, Note_on_c, 0, 73, 0
1, 31740, Note_on_c, 0, 75, 68
1, 31800, Note_on_c, 0, 75, 0
1, 31800, Note_on_c, 0, 77, 68
1, 31800, Note_on_c, 1, 59, 54
1, 31800, Note_on_c, 1, 61, 54
1, 31840, Note_on_c, 1, 61, 0
1, 31840, Note_on_c, 1, 59, 0
1, 31860, Note_on_c, 0, 77, 0
1, 31860, Note_on_c, 0, 73, 68
1, 31917, Note_on_c, 0, 73, 0
1, 31920, Tempo, 375000
1, 31920, Note_on_c, 0, 78, 68
1, 31920, Note_on_c, 1, 54, 54
1, 31980, Note_on_c, 0, 78, 0
1, 31980, Note_on_c, 0, 77, 68
1, 32005, Note_on_c, 1, 54, 0
1, 32040, Note_on_c, 0, 77, 0
1, 32040, Note_on_c, 0, 78, 68
1, 32040, Note_on_c, 1, 61, 54
1, 32040, Note_on_c, 1, 57, 54
1, 32080, Note_on_c, 1, 57, 0
1, 32080, Note_on_c, 1, 61, 0
1, 32100, Note_on_c, 0, 78, 0
1, 32100, Note_on_c, 0, 80, 68
1, 32160, Note_on_c, 0, 80, 0
1, 32160, Note_on_c, 0, 81, 68
1, 32160, Note_on_c, 1, 57, 54
1, 32160, Note_on_c, 1, 61, 54
1, 32200, Note_on_c, 1, 61, 0
1, 32200, Note_on_c, 1, 57, 0
1, 32220, Note_on_c, 0, 81, 0
1, 32220, Note_on_c, 0, 80, 68
1, 32280, Note_on_c, 0, 80, 0
1, 32280, Note_on_c, 0, 81, 68
1, 32280, Note_on_c, 1, 57, 54
1, 32280, Note_on_c, 1, 61, 54
1, 32320, Note_on_c, 1, 61, 0
1, 32320, Note_on_c, 1, 57, 0
1, 32340, Note_on_c, 0, 81, 0
1, 32340, Note_on_c, 0, 83, 68
1, 32400, Tempo, 375000
1, 32400, Note_on_c, 0, 83, 0
1, 32400, Note_on_c, 0, 85, 68
1, 32400, Note_on_c, 1, 53, 54
1, 32460, Note_on_c, 0, 85, 0
1, 32460, Note_on_c, 0, 84, 68
1, 32485, Note_on_c, 1, 53, 0
1, 32520, Note_on_c, 0, 84, 0
1, 32520, Note_on_c, 0, 85, 68
1, 32520, Note_on_c, 1, 61, 54
1, 32520, Note_on_c, 1, 56, 54
1, 32560, Note_on_c, 1, 56, 0
1, 32560, Note_on_c, 1, 61, 0
1, 32580, Note_on_c, 0, 85, 0
1, 32580, Note_on_c, 0, 84, 68
1, 32640, Note_on_c, 0, 84, 0
1, 32640, Note_on_c, 0, 85, 68
1, 32640, Note_on_c, 1, 56, 54
1, 32640, Note_on_c, 1, 61, 54
1, 32680, Note_on_c, 1, 61, 0
1, 32680, Note_on_c, 1, 56, 0
1, 32700, Note_on_c, 0, 85, 0
1, 32700, Note_on_c, 0, 86, 68
1, 32760, Note_on_c, 0, 86, 0
1, 32760, Note_on_c, 0, 85, 68
1, 32760, Note_on_c, 1, 56, 54
1, 32760, Note_on_c, 1, 61, 54
1, 32800, Note_on_c, 1, 61, 0
1, 32800, Note_on_c, 1, 56, 0
1, 32820, Note_on_c, 0, 85, 0
1, 32820, Note_on_c, 0, 83, 68
1, 32877, Note_on_c, 0, 83, 0
1, 32880, Tempo, 375000
1, 32880, Note_on_c, 0, 81, 68
1, 32880, Note_on_c, 1, 54, 54
1, 32940, Note_on_c, 0, 81, 0
1, 32940, Note_on_c, 0, 83, 68
1, 32965, Note_on_c, 1, 54, 0
1, 33000, Note_on_c, 0, 83, 0
1, 33000, Note_on_c, 0, 81, 68
1, 33000, Note_on_c, 1, 61, 54
1, 33000, Note_on_c, 1, 57, 54
1, 33040, Note_on_c, 1, 57, 0
1, 33040, Note_on_c, 1, 61, 0
1, 33060, Note_on_c, 0, 81, 0
1, 33060, Note_on_c, 0, 80, 68
1, 33120, Note_on_c, 0, 80, 0
1, 33120, Note_on_c, 0, 78, 68
1, 33120, Note_on_c, 1, 57, 54
1, 33120, Note_on_c, 1, 61, 54
1, 33160, Note_on_c, 1, 61, 0
1, 33160, Note_on_c, 1, 57, 0
1, 33180, Note_on_c, 0, 78, 0
1, 33180, Note_on_c, 0, 81, 68
1, 33240, Note_on_c, 0, 81, 0
1, 33240, Note_on_c, 0, 80, 68
1, 33240, Note_on_c, 1, 57, 54
1, 33240, Note_on_c, 1, 61, 54
1, 33280, Note_on_c, 1, 61, 0
1, 33280, Note_on_c, 1, 57, 0
1, 33300, Note_on_c, 0, 80, 0
1, 33300, Note_on_c, 0, 78, 68
1, 33360, Tempo, 375000
1, 33360, Note_on_c, 0, 78, 0
1, 33360, Note_on_c, 0, 76, 68
1, 33360, Note_on_c, 1, 56, 54
1, 33420, Note_on_c, 0, 76, 0
1, 33420, Note_on_c, 0, 78, 68
1, 33445, Note_on_c, 1, 56, 0
1, 33480, Note_on_c, 0, 78, 0
1, 33480, Note_on_c, 0, 80, 68
1, 33480, Note_on_c, 1, 64, 54
1, 33480, Note_on_c, 1, 61, 54
1, 33520, Note_on_c, 1, 61, 0
1, 33520, Note_on_c, 1, 64, 0
1, 33540, Note_on_c, 0, 80, 0
1, 33540, Note_on_c, 0, 76, 68
1, 33600, Note_on_c, 0, 76, 0
1, 33600, Note_on_c, 0, 73, 68
1, 33600, Note_on_c, 1, 61, 54
1, 33600, Note_on_c, 1, 64, 54
1, 33640, Note_on_c, 1, 64, 0
1, 33640, Note_on_c, 1, 61, 0
1, 33660, Note_on_c, 0, 73, 0
1, 33660, Note_on_c, 0, 75, 68
1, 33720, Note_on_c, 0, 75, 0
1, 33720, Note_on_c, 0, 76, 68
1, 33720, Note_on_c, 1, 61, 54
1, 33720, Note_on_c, 1, 64, 54
1, 33760, Note_on_c, 1, 64, 0
1, 33760, Note_on_c, 1, 61, 0
1, 33780, Note_on_c, 0, 76, 0
1, 33780, Note_on_c, 0, 73, 68
1, 33837, Note_on_c, 0, 73, 0
1, 33840, Tempo, 375000
1, 33840, Note_on_c, 0, 75, 68
1, 33840, Note_on_c, 1, 56, 54
1, 33900, Note_on_c, 0, 75, 0
1, 33900, Note_on_c, 0, 76, 68
1, 33925, Note_on_c, 1, 56, 0
1, 33960, Note_on_c, 0, 76, 0
1, 33960, Note_on_c, 0, 78, 68
1, 33960, Note_on_c, 1, 66, 54
1, 33960, Note_on_c, 1, 63, 54
1, 34000, Note_on_c, 1, 63, 0
1, 34000, Note_on_c, 1, 66, 0
1, 34020, Note_on_c, 0, 78, 0
1, 34020, Note_on_c, 0, 75, 68
1, 34080, Note_on_c, 0, 75, 0
1, 34080, Note_on_c, 0, 72, 68
1, 34080, Note_on_c, 1, 63, 54
1, 34080, Note_on_c, 1, 66, 54
1, 34120, Note_on_c, 1, 66, 0
1, 34120, Note_on_c, 1, 63, 0
1, 34140, Note_on_c, 0, 72, 0
1, 34140, Note_on_c, 0, 73, 68
1, 34200, Note_on_c, 0, 73, 0
1, 34200, Note_on_c, 0, 75, 68
1, 34200, Note_on_c, 1, 63, 54
1, 34200, Note_on_c, 1, 66, 54
1, 34240, Note_on_c, 1, 66, 0
1, 34240, Note_on_c, 1, 63, 0
1, 34260, Note_on_c, 0, 75, 0
1, 34260, Note_on_c, 0, 72, 68
1, 34320, Tempo, 375000
1, 34320, Note_on_c, 0, 72, 0
1, 34320, Note_on_c, 0, 73, 68
1, 34320, Note_on_c, 1, 61, 54
1, 34320, Note_on_c, 1, 64, 54
1, 34520, Note_on_c, 0, 73, 0
1, 34520, Note_on_c, 1, 64, 0
1, 34520, Note_on_c, 1, 61, 0
1, 34560, Note_on_c, 0, 85, 68
1, 34620, Note_on_c, 0, 85, 0
1, 34620, Note_on_c, 0, 86, 68
1, 34680, Note_on_c, 0, 86, 0
1, 34680, Note_on_c, 0, 85, 68
1, 34740, Note_on_c, 0, 85, 0
1, 34740, Note_on_c, 0, 83, 68
1, 34800, Tempo, 375000
1, 34800, Note_on_c, 0, 83, 0
1, 34800, Note_on_c, 0, 81, 68
1, 34800, Note_on_c, 1, 54, 54
1, 34860, Note_on_c, 0, 81, 0
1, 34860, Note_on_c, 0, 83, 68
1, 34885, Note_on_c, 1, 54, 0
1, 34920, Note_on_c, 0, 83, 0
1, 34920, Note_on_c, 0, 81, 68
1, 34920, Note_on_c, 1, 61, 54
1, 34920, Note_on_c, 1, 57, 54
1, 34960, Note_on_c, 1, 57, 0
1, 34960, Note_on_c, 1, 61, 0
1, 34980, Note_on_c, 0, 81, 0
1, 34980, Note_on_c, 0, 80, 68
1, 35040, Note_on_c, 0, 80, 0
1, 35040, Note_on_c, 0, 78, 68
1, 35040, Note_on_c, 1, 57, 54
1, 35040, Note_on_c, 1, 61, 54
1, 35080, Note_on_c, 1, 61, 0
1, 35080, Note_on_c, 1, 57, 0
1, 35100, Note_on_c, 0, 78, 0
1, 35100, Note_on_c, 0, 81, 68
1, 35160, Note_on_c, 0, 81, 0
1, 35160, Note_on_c, 0, 80, 68
1, 35160, Note_on_c, 1, 57, 54
1, 35160, Note_on_c, 1, 61, 54
1, 35200, Note_on_c, 1, 61, 0
1, 35200, Note_on_c, 1, 57, 0
1, 35220, Note_on_c, 0, 80, 0
1, 35220, Note_on_c, 0, 78, 68
1, 35280, Tempo, 375000
1, 35280, Note_on_c, 0, 78, 0
1, 35280, Note_on_c, 0, 77, 68
1, 35280, Note_on_c, 1, 56, 54
1, 35340, Note_on_c, 0, 77, 0
1, 35340, Note_on_c, 0, 78, 68
1, 35365, Note_on_c, 1, 56, 0
1, 35400, Note_on_c, 0, 78, 0
1, 35400, Note_on_c, 0, 80, 68
1, 35400, Note_on_c, 1, 61, 54
1, 35400, Note_on_c, 1, 59, 54
1, 35440, Note_on_c, 1, 59, 0
1, 35440, Note_on_c, 1, 61, 0
1, 35460, Note_on_c, 0, 80, 0
1, 35460, Note_on_c, 0, 77, 68
1, 35520, Note_on_c, 0, 77, 0
1, 35520, Note_on_c, 0, 73, 68
1, 35520, Note_on_c, 1, 59, 54
1, 35520, Note_on_c, 1, 61, 54
1, 35560, Note_on_c, 1, 61, 0
1, 35560, Note_on_c, 1, 59, 0
1, 35580, Note_on_c, 0, 73, 0
1, 35580, Note_on_c, 0, 75, 68
1, 35640, Note_on_c, 0, 75, 0
1, 35640, Note_on_c, 0, 77, 68
1, 35640, Note_on_c, 1, 59, 54
1, 35640, Note_on_c, 1, 61, 54
1, 35680, Note_on_c, 1, 61, 0
1, 35680, Note_on_c, 1, 59, 0
1, 35700, Note_on_c, 0, 77, 0
1, 35700, Note_on_c, 0, 73, 68
1, 35757, Note_on_c, 0, 73, 0
1, 35760, Tempo, 375000
1, 35760, Note_on_c, 0, 78, 68
1, 35760, Note_on_c, 1, 54, 54
1, 35820, Note_on_c, 0, 78, 0
1, 35820, Note_on_c, 0, 77, 68
1, 35845, Note_on_c, 1, 54, 0
1, 35880, Note_on_c, 0, 77, 0
1, 35880, Note_on_c, 0, 78, 68
1, 35880, Note_on_c, 1, 61, 54
1, 35880, Note_on_c, 1, 57, 54
1, 35920, Note_on_c, 1, 57, 0
1, 35920, Note_on_c, 1, 61, 0
1, 35940, Note_on_c, 0, 78, 0
1, 35940, Note_on_c, 0, 80, 68
1, 36000, Note_on_c, 0, 80, 0
1, 36000, Note_on_c, 0, 81, 68
1, 36000, Note_on_c, 1, 57, 54
1, 36000, Note_on_c, 1, 61, 54
1, 36040, Note_on_c, 1, 61, 0
1, 36040, Note_on_c, 1, 57, 0
1, 36060, Note_on_c, 0, 81, 0
1, 36060, Note_on_c, 0, 80, 68
1, 36120, Note_on_c, 0, 80, 0
1, 36120, Note_on_c, 0, 81, 68
1, 36120, Note_on_c, 1, 57, 54
1, 36120, Note_on_c, 1, 61, 54
1, 36160, Note_on_c, 1, 61, 0
1, 36160, Note_on_c, 1, 57, 0
1, 36180, Note_on_c, 0, 81, 0
1, 36180, Note_on_c, 0, 83, 68
1, 36240, Tempo, 375000
1, 36240, Note_on_c, 0, 83, 0
1, 36240, Note_on_c, 0, 85, 68
1, 36240, Note_on_c, 1, 53, 54
1, 36300, Note_on_c, 0, 85, 0
1, 36300, Note_on_c, 0, 84, 68
1, 36325, Note_on_c, 1, 53, 0
1, 36360, Note_on_c, 0, 84, 0
1, 36360, Note_on_c, 0, 85, 68
1, 36360, Note_on_c, 1, 61, 54
1, 36360, Note_on_c, 1, 56, 54
1, 36400, Note_on_c, 1, 56, 0
1, 36400, Note_on_c, 1, 61, 0
1, 36420, Note_on_c, 0, 85, 0
1, 36420, Note_on_c, 0, 84, 68
1, 36480, Note_on_c, 0, 84, 0
1, 36480, Note_on_c, 0, 85, 68
1, 36480, Note_on_c, 1, 56, 54
1, 36480, Note_on_c, 1, 61, 54
1, 36520, Note_on_c, 1, 61, 0
1, 36520, Note_on_c, 1, 56, 0
1, 36540, Note_on_c, 0, 85, 0
1, 36540, Note_on_c, 0, 86, 68
1, 36600, Note_on_c, 0, 86, 0
1, 36600, Note_on_c, 0, 85, 68
1, 36600, Note_on_c, 1, 56, 54
1, 36600, Note_on_c, 1, 61, 54
1, 36640, Note_on_c, 1, 61, 0
1, 36640, Note_on_c, 1, 56, 0
1, 36660, Note_on_c, 0, 85, 0
1, 36660, Note_on_c, 0, 83, 68
1, 36717, Note_on_c, 0, 83, 0
1, 36720, Tempo, 375000
1, 36720, Note_on_c, 0, 81, 68
1, 36720, Note_on_c, 1, 54, 54
1, 36780, Note_on_c, 0, 81, 0
1, 36780, Note_on_c, 0, 83, 68
1, 36805, Note_on_c, 1, 54, 0
1, 36840, Note_on_c, 0, 83, 0
1, 36840, Note_on_c, 0, 81, 68
1, 36840, Note_on_c, 1, 61, 54
1, 36840, Note_on_c, 1, 57, 54
1, 36880, Note_on_c, 1, 57, 0
1, 36880, Note_on_c, 1, 61, 0
1, 36900, Note_on_c, 0, 81, 0
1, 36900, Note_on_c, 0, 80, 68
1, 36960, Note_on_c, 0, 80, 0
1, 36960, Note_on_c, 0, 78, 68
1, 36960, Note_on_c, 1, 57, 54
1, 36960, Note_on_c, 1, 61, 54
1, 37000, Note_on_c, 1, 61, 0
1, 37000, Note_on_c, 1, 57, 0
1, 37020, Note_on_c, 0, 78, 0
1, 37020, Note_on_c, 0, 81, 68
1, 37080, Note_on_c, 0, 81, 0
1, 37080, Note_on_c, 0, 80, 68
1, 37080, Note_on_c, 1, 57, 54
1, 37080, Note_on_c, 1, 61, 54
1, 37120, Note_on_c, 1, 61, 0
1, 37120, Note_on_c, 1, 57, 0
1, 37140, Note_on_c, 0, 80, 0
1, 37140, Note_on_c, 0, 78, 68
1, 37200, Tempo, 375000
1, 37200, Note_on_c, 0, 78, 0
1, 37200, Note_on_c, 0, 76, 68
1, 37200, Note_on_c, 1, 56, 54
1, 37260, Note_on_c, 0, 76, 0
1, 37260, Note_on_c, 0, 78, 68
1, 37285, Note_on_c, 1, 56, 0
1, 37320, Note_on_c, 0, 78, 0
1, 37320, Note_on_c, 0, 80, 68
1, 37320, Note_on_c, 1, 64, 54
1, 37320, Note_on_c, 1, 61, 54
1, 37360, Note_on_c, 1, 61, 0
1, 37360, Note_on_c, 1, 64, 0
1, 37380, Note_on_c, 0, 80, 0
1, 37380, Note_on_c, 0, 76, 68
1, 37440, Note_on_c, 0, 76, 0
1, 37440, Note_on_c, 0, 73, 68
1, 37440, Note_on_c, 1, 61, 54
1, 37440, Note_on_c, 1, 64, 54
1, 37480, Note_on_c, 1, 64, 0
1, 37480, Note_on_c, 1, 61, 0
1, 37500, Note_on_c, 0, 73, 0
1, 37500, Note_on_c, 0, 75, 68
1, 37560, Note_on_c, 0, 75, 0
1, 37560, Note_on_c, 0, 76, 68
1, 37560, Note_on_c, 1, 61, 54
1, 37560, Note_on_c, 1, 64, 54
1, 37600, Note_on_c, 1, 64, 0
1, 37600, Note_on_c, 1, 61, 0
1, 37620, Note_on_c, 0, 76, 0
1, 37620, Note_on_c, 0, 73, 68
1, 37677, Note_on_c, 0, 73, 0
1, 37680, Tempo, 375000
1, 37680, Note_on_c, 0, 75, 68
1, 37680, Note_on_c, 1, 56, 54
1, 37740, Note_on_c, 0, 75, 0
1, 37740, Note_on_c, 0, 76, 68
1, 37765, Note_on_c, 1, 56, 0
1, 37800, Note_on_c, 0, 76, 0
1, 37800, Note_on_c, 0, 78, 68
1, 37800, Note_on_c, 1, 66, 54
1, 37800, Note_on_c, 1, 63, 54
1, 37840, Note_on_c, 1, 63, 0
1, 37840, Note_on_c, 1, 66, 0
1, 37860, Note_on_c, 0, 78, 0
1, 37860, Note_on_c, 0, 75, 68
1, 37920, Note_on_c, 0, 75, 0
1, 37920, Note_on_c, 0, 72, 68
1, 37920, Note_on_c, 1, 63, 54
1, 37920, Note_on_c, 1, 66, 54
1, 37960, Note_on_c, 1, 66, 0
1, 37960, Note_on_c, 1, 63, 0
1, 37980, Note_on_c, 0, 72, 0
1, 37980, Note_on_c, 0, 73, 68
1, 38040, Note_on_c, 0, 73, 0
1, 38040, Note_on_c, 0, 75, 68
1, 38040, Note_on_c, 1, 63, 54
1, 38040, Note_on_c, 1, 66, 54
1, 38080, Note_on_c, 1, 66, 0
1, 38080, Note_on_c, 1, 63, 0
1, 38100, Note_on_c, 0, 75, 0
1, 38100, Note_on_c, 0, 72, 68
1, 38160, Tempo, 375000
1, 38160, Note_on_c, 0, 72, 0
1, 38160, Note_on_c, 0, 73, 68
1, 38160, Note_on_c, 1, 61, 54
1, 38160, Note_on_c, 1, 64, 54
1, 38360, Note_on_c, 0, 73, 0
1, 38360, Note_on_c, 1, 64, 0
1, 38360, Note_on_c, 1, 61, 0
1, 38400, Note_on_c, 0, 76, 106
1, 38460, Note_on_c, 0, 76, 0
1, 38460, Note_on_c, 0, 74, 106
1, 38520, Note_on_c, 0, 74, 0
1, 38520, Note_on_c, 0, 73, 106
1, 38580, Note_on_c, 0, 73, 0
1, 38580, Note_on_c, 0, 71, 106
1, 38640, Tempo, 375000
1, 38640, Note_on_c, 0, 71, 0
1, 38640, Note_on_c, 0, 69, 106
1, 38640, Note_on_c, 1, 57, 60
1, 38680, Note_on_c, 1, 57, 0
1, 38700, Note_on_c, 0, 69, 0
1, 38700, Note_on_c, 0, 71, 106
1, 38760, Note_on_c, 0, 71, 0
1, 38760, Note_on_c, 0, 73, 106
1, 38760, Note_on_c, 1, 64, 60
1, 38760, Note_on_c, 1, 61, 60
1, 38800, Note_on_c, 1, 61, 0
1, 38800, Note_on_c, 1, 64, 0
1, 38820, Note_on_c, 0, 73, 0
1, 38820, Note_on_c, 0, 74, 106
1, 38880, Note_on_c, 0, 74, 0
1, 38880, Note_on_c, 0, 76, 106
1, 38880, Note_on_c, 1, 61, 60
1, 38880, Note_on_c, 1, 64, 60
1, 38920, Note_on_c, 1, 64, 0
1, 38920, Note_on_c, 1, 61, 0
1, 38940, Note_on_c, 0, 76, 0
1, 38940, Note_on_c, 0, 78, 106
1, 39000, Note_on_c, 0, 78, 0
1, 39000, Note_on_c, 0, 80, 106
1, 39000, Note_on_c, 1, 61, 60
1, 39000, Note_on_c, 1, 64, 60
1, 39040, Note_on_c, 1, 64, 0
1, 39040, Note_on_c, 1, 61, 0
1, 39060, Note_on_c, 0, 80, 0
1, 39060, Note_on_c, 0, 81, 106
1, 39117, Note_on_c, 0, 81, 0
1, 39120, Tempo, 375000
1, 39120, Note_on_c, 0, 81, 106
1, 39120, Note_on_c, 1, 59, 60
1, 39160, Note_on_c, 1, 59, 0
1, 39180, Note_on_c, 0, 81, 0
1, 39180, Note_on_c, 0, 80, 106
1, 39240, Note_on_c, 0, 80, 0
1, 39240, Note_on_c, 0, 78, 106
1, 39240, Note_on_c, 1, 64, 60
1, 39240, Note_on_c, 1, 62, 60
1, 39280, Note_on_c, 1, 62, 0
1, 39280, Note_on_c, 1, 64, 0
1, 39300, Note_on_c, 0, 78, 0
1, 39300, Note_on_c, 0, 76, 106
1, 39357, Note_on_c, 0, 76, 0
1, 39360, Note_on_c, 0, 76, 106
1, 39360, Note_on_c, 1, 56, 60
1, 39400, Note_on_c, 1, 56, 0
1, 39420, Note_on_c, 0, 76, 0
1, 39420, Note_on_c, 0, 74, 106
1, 39480, Note_on_c, 0, 74, 0
1, 39480, Note_on_c, 0, 73, 106
1, 39480, Note_on_c, 1, 62, 60
1, 39480, Note_on_c, 1, 64, 60
1, 39520, Note_on_c, 1, 64, 0
1, 39520, Note_on_c, 1, 62, 0
1, 39540, Note_on_c, 0, 73, 0
1, 39540, Note_on_c, 0, 71, 106
1, 39597, Note_on_c, 0, 71, 0
1, 39600, Tempo, 375000
1, 39600, Note_on_c, 0, 69, 106
1, 39600, Note_on_c, 1, 57, 60
1, 39640, Note_on_c, 1, 57, 0
1, 39660, Note_on_c, 0, 69, 0
1, 39660, Note_on_c, 0, 71, 106
1, 39720, Note_on_c, 0, 71, 0
1, 39720, Note_on_c, 0, 73, 106
1, 39720, Note_on_c, 1, 64, 60
1, 39720, Note_on_c, 1, 61, 60
1, 39760, Note_on_c, 1, 61, 0
1, 39760, Note_on_c, 1, 64, 0
1, 39780, Note_on_c, 0, 73, 0
1, 39780, Note_on_c, 0, 74, 106
1, 39840, Note_on_c, 0, 74, 0
1, 39840, Note_on_c, 0, 76, 106
1, 39840, Note_on_c, 1, 61, 60
1, 39840, Note_on_c, 1, 64, 60
1, 39880, Note_on_c, 1, 64, 0
1, 39880, Note_on_c, 1, 61, 0
1, 39900, Note_on_c, 0, 76, 0
1, 39900, Note_on_c, 0, 78, 106
1, 39960, Note_on_c, 0, 78, 0
1, 39960, Note_on_c, 0, 80, 106
1, 39960, Note_on_c, 1, 64, 60
1, 39960, Note_on_c, 1, 61, 60
1, 40000, Note_on_c, 1, 61, 0
1, 40000, Note_on_c, 1, 64, 0
1, 40020, Note_on_c, 0, 80, 0
1, 40020, Note_on_c, 0, 81, 106
1, 40077, Note_on_c, 0, 81, 0
1, 40080, Tempo, 375000
1, 40080, Note_on_c, 0, 82, 110
1, 40080, Note_on_c, 1, 52, 60
1, 40120, Note_on_c, 1, 52, 0
1, 40200, Note_on_c, 0, 82, 0
1, 40200, Note_on_c, 0, 83, 106
1, 40200, Note_on_c, 1, 62, 60
1, 40200, Note_on_c, 1, 56, 60
1, 40240, Note_on_c, 0, 83, 0
1, 40240, Note_on_c, 1, 56, 0
1, 40240, Note_on_c, 1, 62, 0
1, 40320, Note_on_c, 0, 76, 106
1, 40320, Note_on_c, 1, 56, 60
1, 40320, Note_on_c, 1, 62, 60
1, 40360, Note_on_c, 1, 62, 0
1, 40360, Note_on_c, 1, 56, 0
1, 40380, Note_on_c, 0, 76, 0
1, 40380, Note_on_c, 0, 74, 106
1, 40440, Note_on_c, 0, 74, 0
1, 40440, Note_on_c, 0, 73, 106
1, 40440, Note_on_c, 1, 56, 60
1, 40440, Note_on_c, 1, 62, 60
1, 40480, Note_on_c, 1, 62, 0
1, 40480, Note_on_c, 1, 56, 0
1, 40500, Note_on_c, 0, 73, 0
1, 40500, Note_on_c, 0, 71, 106
1, 40560, Tempo, 375000
1, 40560, Note_on_c, 0, 71, 0
1, 40560, Note_on_c, 0, 69, 106
1, 40560, Note_on_c, 1, 57, 60
1, 40600, Note_on_c, 1, 57, 0
1, 40620, Note_on_c, 0, 69, 0
1, 40620, Note_on_c, 0, 71, 106
1, 40680, Note_on_c, 0, 71, 0
1, 40680, Note_on_c, 0, 73, 106
1, 40680, Note_on_c, 1, 64, 60
1, 40680, Note_on_c, 1, 61, 60
1, 40720, Note_on_c, 1, 61, 0
1, 40720, Note_on_c, 1, 64, 0
1, 40740, Note_on_c, 0, 73, 0
1, 40740, Note_on_c, 0, 74, 106
1, 40800, Note_on_c, 0, 74, 0
1, 40800, Note_on_c, 0, 76, 106
1, 40800, Note_on_c, 1, 61, 60
1, 40800, Note_on_c, 1, 64, 60
1, 40840, Note_on_c, 1, 64, 0
1, 40840, Note_on_c, 1, 61, 0
1, 40860, Note_on_c, 0, 76, 0
1, 40860, Note_on_c, 0, 78, 106
1, 40920, Note_on_c, 0, 78, 0
1, 40920, Note_on_c, 0, 80, 106
1, 40920, Note_on_c, 1, 61, 60
1, 40920, Note_on_c, 1, 64, 60
1, 40960, Note_on_c, 1, 64, 0
1, 40960, Note_on_c, 1, 61, 0
1, 40980, Note_on_c, 0, 80, 0
1, 40980, Note_on_c, 0, 81, 106
1, 41037, Note_on_c, 0, 81, 0
1, 41040, Tempo, 375000
1, 41040, Note_on_c, 0, 81, 106
1, 41040, Note_on_c, 1, 59, 60
1, 41080, Note_on_c, 1, 59, 0
1, 41100, Note_on_c, 0, 81, 0
1, 41100, Note_on_c, 0, 80, 106
1, 41160, Note_on_c, 0, 80, 0
1, 41160, Note_on_c, 0, 78, 106
1, 41160, Note_on_c, 1, 64, 60
1, 41160, Note_on_c, 1, 62, 60
1, 41200, Note_on_c, 1, 62, 0
1, 41200, Note_on_c, 1, 64, 0
1, 41220, Note_on_c, 0, 78, 0
1, 41220, Note_on_c, 0, 76, 106
1, 41277, Note_on_c, 0, 76, 0
1, 41280, Note_on_c, 0, 76, 106
1, 41280, Note_on_c, 1, 56, 60
1, 41320, Note_on_c, 1, 56, 0
1, 41340, Note_on_c, 0, 76, 0
1, 41340, Note_on_c, 0, 74, 106
1, 41400, Note_on_c, 0, 74, 0
1, 41400, Note_on_c, 0, 73, 106
1, 41400, Note_on_c, 1, 62, 60
1, 41400, Note_on_c, 1, 64, 60
1, 41440, Note_on_c, 1, 64, 0
1, 41440, Note_on_c, 1, 62, 0
1, 41460, Note_on_c, 0, 73, 0
1, 41460, Note_on_c, 0, 71, 106
1, 41520, Tempo, 375000
1, 41520, Note_on_c, 0, 71, 0
1, 41520, Note_on_c, 0, 73, 106
1, 41520, Note_on_c, 1, 57, 60
1, 41560, Note_on_c, 1, 57, 0
1, 41580, Note_on_c, 0, 73, 0
1, 41580, Note_on_c, 0, 76, 106
1, 41640, Note_on_c, 0, 76, 0
1, 41640, Note_on_c, 0, 69, 106
1, 41640, Note_on_c, 1, 54, 60
1, 41680, Note_on_c, 1, 54, 0
1, 41700, Note_on_c, 0, 69, 0
1, 41700, Note_on_c, 0, 73, 106
1, 41760, Note_on_c, 0, 73, 0
1, 41760, Note_on_c, 0, 71, 106
1, 41760, Note_on_c, 1, 50, 60
1, 41800, Note_on_c, 1, 50, 0
1, 41820, Note_on_c, 0, 71, 0
1, 41820, Note_on_c, 0, 74, 106
1, 41880, Note_on_c, 0, 74, 0
1, 41880, Note_on_c, 0, 68, 106
1, 41880, Note_on_c, 1, 52, 60
1, 41920, Note_on_c, 1, 52, 0
1, 41940, Note_on_c, 0, 68, 0
1, 41940, Note_on_c, 0, 71, 106
1, 42000, Tempo, 375000
1, 42000, Note_on_c, 0, 71, 0
1, 42000, Note_on_c, 0, 69, 106
1, 42000, Note_on_c, 1, 45, 60
1, 42040, Note_on_c, 1, 45, 0
1, 42120, Note_on_c, 1, 57, 60
1, 42160, Note_on_c, 1, 57, 0
1, 42200, Note_on_c, 0, 69, 0
1, 42240, Note_on_c, 0, 85, 68
1, 42300, Note_on_c, 0, 85, 0
1, 42300, Note_on_c, 0, 86, 68
1, 42360, Note_on_c, 0, 86, 0
1, 42360, Note_on_c, 0, 85, 68
1, 42420, Note_on_c, 0, 85, 0
1, 42420, Note_on_c, 0, 83, 68
1, 42480, Tempo, 375000
1, 42480, Note_on_c, 0, 83, 0
1, 42480, Note_on_c, 0, 81, 68
1, 42480, Note_on_c, 1, 54, 54
1, 42520, Note_on_c, 1, 54, 0
1, 42540, Note_on_c, 0, 81, 0
1, 42540, Note_on_c, 0, 83, 68
1, 42600, Note_on_c, 0, 83, 0
1, 42600, Note_on_c, 0, 81, 68
1, 42600, Note_on_c, 1, 61, 54
1, 42600, Note_on_c, 1, 57, 54
1, 42640, Note_on_c, 1, 57, 0
1, 42640, Note_on_c, 1, 61, 0
1, 42660, Note_on_c, 0, 81, 0
1, 42660, Note_on_c, 0, 80, 68
1, 42720, Note_on_c, 0, 80, 0
1, 42720, Note_on_c, 0, 78, 68
1, 42720, Note_on_c, 1, 57, 54
1, 42720, Note_on_c, 1, 61, 54
1, 42760, Note_on_c, 1, 61, 0
1, 42760, Note_on_c, 1, 57, 0
1, 42780, Note_on_c, 0, 78, 0
1, 42780, Note_on_c, 0, 81, 68
1, 42840, Note_on_c, 0, 81, 0
1, 42840, Note_on_c, 0, 80, 68
1, 42840, Note_on_c, 1, 57, 54
1, 42840, Note_on_c, 1, 61, 54
1, 42880, Note_on_c, 1, 61, 0
1, 42880, Note_on_c, 1, 57, 0
1, 42900, Note_on_c, 0, 80, 0
1, 42900, Note_on_c, 0, 78, 68
1, 42960, Tempo, 375000
1, 42960, Note_on_c, 0, 78, 0
1, 42960, Note_on_c, 0, 77, 68
1, 42960, Note_on_c, 1, 56, 54
1, 43000, Note_on_c, 1, 56, 0
1, 43020, Note_on_c, 0, 77, 0
1, 43020, Note_on_c, 0, 78, 68
1, 43080, Note_on_c, 0, 78, 0
1, 43080, Note_on_c, 0, 80, 68
1, 43080, Note_on_c, 1, 61, 54
1, 43080, Note_on_c, 1, 59, 54
1, 43120, Note_on_c, 1, 59, 0
1, 43120, Note_on_c, 1, 61, 0
1, 43140, Note_on_c, 0, 80, 0
1, 43140, Note_on_c, 0, 77, 68
1, 43200, Note_on_c, 0, 77, 0
1, 43200, Note_on_c, 0, 73, 68
1, 43200, Note_on_c, 1, 59, 54
1, 43200, Note_on_c, 1, 61, 54
1, 43240, Note_on_c, 1, 61, 0
1, 43240, Note_on_c, 1, 59, 0
1, 43260, Note_on_c, 0, 73, 0
1, 43260, Note_on_c, 0, 75, 68
1, 43320, Note_on_c, 0, 75, 0
1, 43320, Note_on_c, 0, 77, 68
1, 43320, Note_on_c, 1, 59, 54
1, 43320, Note_on_c, 1, 61, 54
1, 43360, Note_on_c, 1, 61, 0
1, 43360, Note_on_c, 1, 59, 0
1, 43380, Note_on_c, 0, 77, 0
1, 43380, Note_on_c, 0, 73, 68
1, 43437, Note_on_c, 0, 73, 0
1, 43440, Tempo, 375000
1, 43440, Note_on_c, 0, 78, 68
1, 43440, Note_on_c, 1, 54, 54
1, 43480, Note_on_c, 1, 54, 0
1, 43500, Note_on_c, 0, 78, 0
1, 43500, Note_on_c, 0, 77, 68
1, 43560, Note_on_c, 0, 77, 0
1, 43560, Note_on_c, 0, 78, 68
1, 43560, Note_on_c, 1, 61, 54
1, 43560, Note_on_c, 1, 57, 54
1, 43600, Note_on_c, 1, 57, 0
1, 43600, Note_on_c, 1, 61, 0
1, 43620, Note_on_c, 0, 78, 0
1, 43620, Note_on_c, 0, 80, 68
1, 43680, Note_on_c, 0, 80, 0
1, 43680, Note_on_c, 0, 81, 68
1, 43680, Note_on_c, 1, 57, 54
1, 43680, Note_on_c, 1, 61, 54
1, 43720, Note_on_c, 1, 61, 0
1, 43720, Note_on_c, 1, 57, 0
1, 43740, Note_on_c, 0, 81, 0
1, 43740, Note_on_c, 0, 80, 68
1, 43800, Note_on_c, 0, 80, 0
1, 43800, Note_on_c, 0, 81, 68
1, 43800, Note_on_c, 1, 57, 54
1, 43800, Note_on_c, 1, 61, 54
1, 43840, Note_on_c, 1, 61, 0
1, 43840, Note_on_c, 1, 57, 0
1, 43860, Note_on_c, 0, 81, 0
1, 43860, Note_on_c, 0, 83, 68
1, 43920, Tempo, 375000
1, 43920, Note_on_c, 0, 83, 0
1, 43920, Note_on_c, 0, 85, 68
1, 43920, Note_on_c, 1, 49, 54
1, 43960, Note_on_c, 1, 49, 0
1, 43980, Note_on_c, 0, 85, 0
1, 43980, Note_on_c, 0, 84, 68
1, 44040, Note_on_c, 0, 84, 0
1, 44040, Note_on_c, 0, 85, 68
1, 44040, Note_on_c, 1, 61, 54
1, 44040, Note_on_c, 1, 56, 54
1, 44080, Note_on_c, 1, 56, 0
1, 44080, Note_on_c, 1, 61, 0
1, 44100, Note_on_c, 0, 85, 0
1, 44100, Note_on_c, 0, 84, 68
1, 44160, Note_on_c, 0, 84, 0
1, 44160, Note_on_c, 0, 85, 68
1, 44160, Note_on_c, 1, 55, 54
1, 44160, Note_on_c, 1, 61, 54
1, 44200, Note_on_c, 1, 61, 0
1, 44200, Note_on_c, 1, 55, 0
1, 44220, Note_on_c, 0, 85, 0
1, 44220, Note_on_c, 0, 84, 68
1, 44280, Note_on_c, 0, 84, 0
1, 44280, Note_on_c, 0, 85, 68
1, 44280, Note_on_c, 1, 54, 54
1, 44280, Note_on_c, 1, 61, 54
1, 44320, Note_on_c, 1, 61, 0
1, 44320, Note_on_c, 1, 54, 0
1, 44340, Note_on_c, 0, 85, 0
1, 44340, Note_on_c, 0, 82, 68
1, 44397, Note_on_c, 0, 82, 0
1, 44400, Tempo, 375000
1, 44400, Note_on_c, 0, 86, 68
1, 44400, Note_on_c, 1, 47, 54
1, 44440, Note_on_c, 1, 47, 0
1, 44460, Note_on_c, 0, 86, 0
1, 44460, Note_on_c, 0, 85, 68
1, 44520, Note_on_c, 0, 85, 0
1, 44520, Note_on_c, 0, 86, 68
1, 44520, Note_on_c, 1, 59, 54
1, 44520, Note_on_c, 1, 54, 54
1, 44560, Note_on_c, 1, 54, 0
1, 44560, Note_on_c, 1, 59, 0
1, 44580, Note_on_c, 0, 86, 0
1, 44580, Note_on_c, 0, 85, 68
1, 44640, Note_on_c, 0, 85, 0
1, 44640, Note_on_c, 0, 86, 68
1, 44640, Note_on_c, 1, 54, 54
1, 44640, Note_on_c, 1, 59, 54
1, 44680, Note_on_c, 1, 59, 0
1, 44680, Note_on_c, 1, 54, 0
1, 44700, Note_on_c, 0, 86, 0
1, 44700, Note_on_c, 0, 85, 68
1, 44760, Note_on_c, 0, 85, 0
1, 44760, Note_on_c, 0, 86, 68
1, 44760, Note_on_c, 1, 54, 54
1, 44760, Note_on_c, 1, 59, 54
1, 44800, Note_on_c, 1, 59, 0
1, 44800, Note_on_c, 1, 54, 0
1, 44820, Note_on_c, 0, 86, 0
1, 44820, Note_on_c, 0, 85, 68
1, 44880, Tempo, 375000
1, 44880, Note_on_c, 0, 85, 0
1, 44880, Note_on_c, 0, 86, 68
1, 44880, Note_on_c, 1, 47, 54
1, 44920, Note_on_c, 1, 47, 0
1, 44940, Note_on_c, 0, 86, 0
1, 44940, Note_on_c, 0, 85, 68
1, 45000, Note_on_c, 0, 85, 0
1, 45000, Note_on_c, 0, 83, 68
1, 45000, Note_on_c, 1, 59, 54
1, 45000, Note_on_c, 1, 56, 54
1, 45040, Note_on_c, 1, 56, 0
1, 45040, Note_on_c, 1, 59, 0
1, 45060, Note_on_c, 0, 83, 0
1, 45060, Note_on_c, 0, 81, 68
1, 45120, Note_on_c, 0, 81, 0
1, 45120, Note_on_c, 0, 80, 68
1, 45120, Note_on_c, 1, 56, 54
1, 45120, Note_on_c, 1, 59, 54
1, 45160, Note_on_c, 1, 59, 0
1, 45160, Note_on_c, 1, 56, 0
1, 45180, Note_on_c, 0, 80, 0
1, 45180, Note_on_c, 0, 81, 68
1, 45240, Note_on_c, 0, 81, 0
1, 45240, Note_on_c, 0, 83, 68
1, 45240, Note_on_c, 1, 56, 54
1, 45240, Note_on_c, 1, 59, 54
1, 45280, Note_on_c, 1, 59, 0
1, 45280, Note_on_c, 1, 56, 0
1, 45300, Note_on_c, 0, 83, 0
1, 45300, Note_on_c, 0, 80, 68
1, 45360, Tempo, 375000
1, 45360, Note_on_c, 0, 80, 0
1, 45360, Note_on_c, 0, 81, 68
1, 45360, Note_on_c, 1, 49, 54
1, 45400, Note_on_c, 1, 49, 0
1, 45420, Note_on_c, 0, 81, 0
1, 45420, Note_on_c, 0, 83, 68
1, 45480, Note_on_c, 0, 83, 0
1, 45480, Note_on_c, 0, 85, 68
1, 45480, Note_on_c, 1, 57, 54
1, 45480, Note_on_c, 1, 54, 54
1, 45520, Note_on_c, 1, 54, 0
1, 45520, Note_on_c, 1, 57, 0
1, 45540, Note_on_c, 0, 85, 0
1, 45540, Note_on_c, 0, 78, 68
1, 45600, Note_on_c, 0, 78, 0
1, 45600, Note_on_c, 0, 77, 68
1, 45600, Note_on_c, 1, 49, 54
1, 45640, Note_on_c, 1, 49, 0
1, 45660, Note_on_c, 0, 77, 0
1, 45660, Note_on_c, 0, 78, 68
1, 45720, Note_on_c, 0, 78, 0
1, 45720, Note_on_c, 0, 80, 68
1, 45720, Note_on_c, 1, 56, 54
1, 45720, Note_on_c, 1, 59, 54
1, 45760, Note_on_c, 1, 59, 0
1, 45760, Note_on_c, 1, 56, 0
1, 45780, Note_on_c, 0, 80, 0
1, 45780, Note_on_c, 0, 77, 68
1, 45840, Tempo, 375000
1, 45840, Note_on_c, 0, 77, 0
1, 45840, Note_on_c, 0, 78, 68
1, 45840, Note_on_c, 1, 54, 54
1, 45840, Note_on_c, 1, 57, 54
1, 46040, Note_on_c, 0, 78, 0
1, 46040, Note_on_c, 1, 57, 0
1, 46040, Note_on_c, 1, 54, 0
1, 46080, Note_on_c, 0, 76, 106
1, 46140, Note_on_c, 0, 76, 0
1, 46140, Note_on_c, 0, 74, 106
1, 46200, Note_on_c, 0, 74, 0
1, 46200, Note_on_c, 0, 73, 106
1, 46260, Note_on_c, 0, 73, 0
1, 46260, Note_on_c, 0, 71, 106
1, 46320, Tempo, 375000
1, 46320, Note_on_c, 0, 71, 0
1, 46320, Note_on_c, 0, 69, 106
1, 46320, Note_on_c, 1, 57, 60
1, 46360, Note_on_c, 1, 57, 0
1, 46380, Note_on_c, 0, 69, 0
1, 46380, Note_on_c, 0, 71, 106
1, 46440, Note_on_c, 0, 71, 0
1, 46440, Note_on_c, 0, 73, 106
1, 46440, Note_on_c, 1, 64, 60
1, 46440, Note_on_c, 1, 61, 60
1, 46480, Note_on_c, 1, 61, 0
1, 46480, Note_on_c, 1, 64, 0
1, 46500, Note_on_c, 0, 73, 0
1, 46500, Note_on_c, 0, 74, 106
1, 46560, Note_on_c, 0, 74, 0
1, 46560, Note_on_c, 0, 76, 106
1, 46560, Note_on_c, 1, 61, 60
1, 46560, Note_on_c, 1, 64, 60
1, 46600, Note_on_c, 1, 64, 0
1, 46600, Note_on_c, 1, 61, 0
1, 46620, Note_on_c, 0, 76, 0
1, 46620, Note_on_c, 0, 78, 106
1, 46680, Note_on_c, 0, 78, 0
1, 46680, Note_on_c, 0, 80, 106
1, 46680, Note_on_c, 1, 61, 60
1, 46680, Note_on_c, 1, 64, 60
1, 46720, Note_on_c, 1, 64, 0
1, 46720, Note_on_c, 1, 61, 0
1, 46740, Note_on_c, 0, 80, 0
1, 46740, Note_on_c, 0, 81, 106
1, 46797, Note_on_c, 0, 81, 0
1, 46800, Tempo, 375000
1, 46800, Note_on_c, 0, 81, 106
1, 46800, Note_on_c, 1, 59, 60
1, 46840, Note_on_c, 1, 59, 0
1, 46860, Note_on_c, 0, 81, 0
1, 46860, Note_on_c, 0, 80, 106
1, 46920, Note_on_c, 0, 80, 0
1, 46920, Note_on_c, 0, 78, 106
1, 46920, Note_on_c, 1, 64, 60
1, 46920, Note_on_c, 1, 62, 60
1, 46960, Note_on_c, 1, 62, 0
1, 46960, Note_on_c, 1, 64, 0
1, 46980, Note_on_c, 0, 78, 0
1, 46980, Note_on_c, 0, 76, 106
1, 47037, Note_on_c, 0, 76, 0
1, 47040, Note_on_c, 0, 76, 106
1, 47040, Note_on_c, 1, 56, 60
1, 47080, Note_on_c, 1, 56, 0
1, 47100, Note_on_c, 0, 76, 0
1, 47100, Note_on_c, 0, 74, 106
1, 47160, Note_on_c, 0, 74, 0
1, 47160, Note_on_c, 0, 73, 106
1, 47160, Note_on_c, 1, 62, 60
1, 47160, Note_on_c, 1, 64, 60
1, 47200, Note_on_c, 1, 64, 0
1, 47200, Note_on_c, 1, 62, 0
1, 47220, Note_on_c, 0, 73, 0
1, 47220, Note_on_c, 0, 71, 106
1, 47277, Note_on_c, 0, 71, 0
1, 47280, Tempo, 375000
1, 47280, Note_on_c, 0, 69, 106
1, 47280, Note_on_c, 1, 57, 60
1, 47320, Note_on_c, 1, 57, 0
1, 47340, Note_on_c, 0, 69, 0
1, 47340, Note_on_c, 0, 71, 106
1, 47400, Note_on_c, 0, 71, 0
1, 47400, Note_on_c, 0, 73, 106
1, 47400, Note_on_c, 1, 64, 60
1, 47400, Note_on_c, 1, 61, 60
1, 47440, Note_on_c, 1, 61, 0
1, 47440, Note_on_c, 1, 64, 0
1, 47460, Note_on_c, 0, 73, 0
1, 47460, Note_on_c, 0, 74, 106
1, 47520, Note_on_c, 0, 74, 0
1, 47520, Note_on_c, 0, 76, 106
1, 47520, Note_on_c, 1, 61, 60
1, 47520, Note_on_c, 1, 64, 60
1, 47560, Note_on_c, 1, 64, 0
1, 47560, Note_on_c, 1, 61, 0
1, 47580, Note_on_c, 0, 76, 0
1, 47580, Note_on_c, 0, 78, 106
1, 47640, Note_on_c, 0, 78, 0
1, 47640, Note_on_c, 0, 80, 106
1, 47640, Note_on_c, 1, 64, 60
1, 47640, Note_on_c, 1, 61, 60
1, 47680, Note_on_c, 1, 61, 0
1, 47680, Note_on_c, 1, 64, 0
1, 47700, Note_on_c, 0, 80, 0
1, 47700, Note_on_c, 0, 81, 106
1, 47757, Note_on_c, 0, 81, 0
1, 47760, Tempo, 375000
1, 47760, Note_on_c, 0, 82, 110
1, 47760, Note_on_c, 1, 52, 60
1, 47800, Note_on_c, 1, 52, 0
1, 47880, Note_on_c, 0, 82, 0
1, 47880, Note_on_c, 0, 83, 106
1, 47880, Note_on_c, 1, 62, 60
1, 47880, Note_on_c, 1, 56, 60
1, 47920, Note_on_c, 0, 83, 0
1, 47920, Note_on_c, 1, 56, 0
1, 47920, Note_on_c, 1, 62, 0
1, 48000, Note_on_c, 0, 76, 106
1, 48000, Note_on_c, 1, 56, 60
1, 48000, Note_on_c, 1, 62, 60
1, 48040, Note_on_c, 1, 62, 0
1, 48040, Note_on_c, 1, 56, 0
1, 48060, Note_on_c, 0, 76, 0
1, 48060, Note_on_c, 0, 74, 106
1, 48120, Note_on_c, 0, 74, 0
1, 48120, Note_on_c, 0, 73, 106
1, 48120, Note_on_c, 1, 56, 60
1, 48120, Note_on_c, 1, 62, 60
1, 48160, Note_on_c, 1, 62, 0
1, 48160, Note_on_c, 1, 56, 0
1, 48180, Note_on_c, 0, 73, 0
1, 48180, Note_on_c, 0, 71, 106
1, 48240, Tempo, 375000
1, 48240, Note_on_c, 0, 71, 0
1, 48240, Note_on_c, 0, 69, 106
1, 48240, Note_on_c, 1, 57, 60
1, 48280, Note_on_c, 1, 57, 0
1, 48300, Note_on_c, 0, 69, 0
1, 48300, Note_on_c, 0, 71, 106
1, 48360, Note_on_c, 0, 71, 0
1, 48360, Note_on_c, 0, 73, 106
1, 48360, Note_on_c, 1, 64, 60
1, 48360, Note_on_c, 1, 61, 60
1, 48400, Note_on_c, 1, 61, 0
1, 48400, Note_on_c, 1, 64, 0
1, 48420, Note_on_c, 0, 73, 0
1, 48420, Note_on_c, 0, 74, 106
1, 48480, Note_on_c, 0, 74, 0
1, 48480, Note_on_c, 0, 76, 106
1, 48480, Note_on_c, 1, 61, 60
1, 48480, Note_on_c, 1, 64, 60
1, 48520, Note_on_c, 1, 64, 0
1, 48520, Note_on_c, 1, 61, 0
1, 48540, Note_on_c, 0, 76, 0
1, 48540, Note_on_c, 0, 78, 106
1, 48600, Note_on_c, 0, 78, 0
1, 48600, Note_on_c, 0, 80, 106
1, 48600, Note_on_c, 1, 61, 60
1, 48600, Note_on_c, 1, 64, 60
1, 48640, Note_on_c, 1, 64, 0
1, 48640, Note_on_c, 1, 61, 0
1, 48660, Note_on_c, 0, 80, 0
1, 48660, Note_on_c, 0, 81, 106
1, 48717, Note_on_c, 0, 81, 0
1, 48720, Tempo, 375000
1, 48720, Note_on_c, 0, 81, 106
1, 48720, Note_on_c, 1, 59, 60
1, 48760, Note_on_c, 1, 59, 0
1, 48780, Note_on_c, 0, 81, 0
1, 48780, Note_on_c, 0, 80, 106
1, 48840, Note_on_c, 0, 80, 0
1, 48840, Note_on_c, 0, 78, 106
1, 48840, Note_on_c, 1, 64, 60
1, 48840, Note_on_c, 1, 62, 60
1, 48880, Note_on_c, 1, 62, 0
1, 48880, Note_on_c, 1, 64, 0
1, 48900, Note_on_c, 0, 78, 0
1, 48900, Note_on_c, 0, 76, 106
1, 48957, Note_on_c, 0, 76, 0
1, 48960, Note_on_c, 0, 76, 106
1, 48960, Note_on_c, 1, 56, 60
1, 49000, Note_on_c, 1, 56, 0
1, 49020, Note_on_c, 0, 76, 0
1, 49020, Note_on_c, 0, 74, 106
1, 49080, Note_on_c, 0, 74, 0
1, 49080, Note_on_c, 0, 73, 106
1, 49080, Note_on_c, 1, 62, 60
1, 49080, Note_on_c, 1, 64, 60
1, 49120, Note_on_c, 1, 64, 0
1, 49120, Note_on_c, 1, 62, 0
1, 49140, Note_on_c, 0, 73, 0
1, 49140, Note_on_c, 0, 71, 106
1, 49200, Tempo, 375000
1, 49200, Note_on_c, 0, 71, 0
1, 49200, Note_on_c, 0, 73, 106
1, 49200, Note_on_c, 1, 57, 60
1, 49240, Note_on_c, 1, 57, 0
1, 49260, Note_on_c, 0, 73, 0
1, 49260, Note_on_c, 0, 76, 106
1, 49320, Note_on_c, 0, 76, 0
1, 49320, Note_on_c, 0, 69, 106
1, 49320, Note_on_c, 1, 54, 60
1, 49360, Note_on_c, 1, 54, 0
1, 49380, Note_on_c, 0, 69, 0
1, 49380, Note_on_c, 0, 73, 106
1, 49440, Note_on_c, 0, 73, 0
1, 49440, Note_on_c, 0, 71, 106
1, 49440, Note_on_c, 1, 50, 60
1, 49480, Note_on_c, 1, 50, 0
1, 49500, Note_on_c, 0, 71, 0
1, 49500, Note_on_c, 0, 74, 106
1, 49560, Note_on_c, 0, 74, 0
1, 49560, Note_on_c, 0, 68, 106
1, 49560, Note_on_c, 1, 52, 60
1, 49600, Note_on_c, 1, 52, 0
1, 49620, Note_on_c, 0, 68, 0
1, 49620, Note_on_c, 0, 71, 106
1, 49680, Tempo, 375000
1, 49680, Note_on_c, 0, 71, 0
1, 49680, Note_on_c, 0, 69, 106
1, 49680, Note_on_c, 1, 45, 60
1, 49720, Note_on_c, 1, 45, 0
1, 49800, Note_on_c, 1, 57, 60
1, 49840, Note_on_c, 1, 57, 0
1, 49880, Note_on_c, 0, 69, 0
1, 49920, Note_on_c, 0, 85, 68
1, 49980, Note_on_c, 0, 85, 0
1, 49980, Note_on_c, 0, 86, 68
1, 50040, Note_on_c, 0, 86, 0
1, 50040, Note_on_c, 0, 85, 68
1, 50100, Note_on_c, 0, 85, 0
1, 50100, Note_on_c, 0, 83, 68
1, 50160, Tempo, 375000
1, 50160, Note_on_c, 0, 83, 0
1, 50160, Note_on_c, 0, 81, 68
1, 50160, Note_on_c, 1, 54, 54
1, 50200, Note_on_c, 1, 54, 0
1, 50220, Note_on_c, 0, 81, 0
1, 50220, Note_on_c, 0, 83, 68
1, 50280, Note_on_c, 0, 83, 0
1, 50280, Note_on_c, 0, 81, 68
1, 50280, Note_on_c, 1, 61, 54
1, 50280, Note_on_c, 1, 57, 54
1, 50320, Note_on_c, 1, 57, 0
1, 50320, Note_on_c, 1, 61, 0
1, 50340, Note_on_c, 0, 81, 0
1, 50340, Note_on_c, 0, 80, 68
1, 50400, Note_on_c, 0, 80, 0
1, 50400, Note_on_c, 0, 78, 68
1, 50400, Note_on_c, 1, 57, 54
1, 50400, Note_on_c, 1, 61, 54
1, 50440, Note_on_c, 1, 61, 0
1, 50440, Note_on_c, 1, 57, 0
1, 50460, Note_on_c, 0, 78, 0
1, 50460, Note_on_c, 0, 81, 68
1, 50520, Note_on_c, 0, 81, 0
1, 50520, Note_on_c, 0, 80, 68
1, 50520, Note_on_c, 1, 57, 54
1, 50520, Note_on_c, 1, 61, 54
1, 50560, Note_on_c, 1, 61, 0
1, 50560, Note_on_c, 1, 57, 0
1, 50580, Note_on_c, 0, 80, 0
1, 50580, Note_on_c, 0, 78, 68
1, 50640, Tempo, 375000
1, 50640, Note_on_c, 0, 78, 0
1, 50640, Note_on_c, 0, 77, 68
1, 50640, Note_on_c, 1, 56, 54
1, 50680, Note_on_c, 1, 56, 0
1, 50700, Note_on_c, 0, 77, 0
1, 50700, Note_on_c, 0, 78, 68
1, 50760, Note_on_c, 0, 78, 0
1, 50760, Note_on_c, 0, 80, 68
1, 50760, Note_on_c, 1, 61, 54
1, 50760, Note_on_c, 1, 59, 54
1, 50800, Note_on_c, 1, 59, 0
1, 50800, Note_on_c, 1, 61, 0
1, 50820, Note_on_c, 0, 80, 0
1, 50820, Note_on_c, 0, 77, 68
1, 50880, Note_on_c, 0, 77, 0
1, 50880, Note_on_c, 0, 73, 68
1, 50880, Note_on_c, 1, 59, 54
1, 50880, Note_on_c, 1, 61, 54
1, 50920, Note_on_c, 1, 61, 0
1, 50920, Note_on_c, 1, 59, 0
1, 50940, Note_on_c, 0, 73, 0
1, 50940, Note_on_c, 0, 75, 68
1, 51000, Note_on_c, 0, 75, 0
1, 51000, Note_on_c, 0, 77, 68
1, 51000, Note_on_c, 1, 59, 54
1, 51000, Note_on_c, 1, 61, 54
1, 51040, Note_on_c, 1, 61, 0
1, 51040, Note_on_c, 1, 59, 0
1, 51060, Note_on_c, 0, 77, 0
1, 51060, Note_on_c, 0, 73, 68
1, 51117, Note_on_c, 0, 73, 0
1, 51120, Tempo, 375000
1, 51120, Note_on_c, 0, 78, 68
1, 51120, Note_on_c, 1, 54, 54
1, 51160, Note_on_c, 1, 54, 0
1, 51180, Note_on_c, 0, 78, 0
1, 51180, Note_on_c, 0, 77, 68
1, 51240, Note_on_c, 0, 77, 0
1, 51240, Note_on_c, 0, 78, 68
1, 51240, Note_on_c, 1, 61, 54
1, 51240, Note_on_c, 1, 57, 54
1, 51280, Note_on_c, 1, 57, 0
1, 51280, Note_on_c, 1, 61, 0
1, 51300, Note_on_c, 0, 78, 0
1, 51300, Note_on_c, 0, 80, 68
1, 51360, Note_on_c, 0, 80, 0
1, 51360, Note_on_c, 0, 81, 68
1, 51360, Note_on_c, 1, 57, 54
1, 51360, Note_on_c, 1, 61, 54
1, 51400, Note_on_c, 1, 61, 0
1, 51400, Note_on_c, 1, 57, 0
1, 51420, Note_on_c, 0, 81, 0
1, 51420, Note_on_c, 0, 80, 68
1, 51480, Note_on_c, 0, 80, 0
1, 51480, Note_on_c, 0, 81, 68
1, 51480, Note_on_c, 1, 57, 54
1, 51480, Note_on_c, 1, 61, 54
1, 51520, Note_on_c, 1, 61, 0
1, 51520, Note_on_c, 1, 57, 0
1, 51540, Note_on_c, 0, 81, 0
1, 51540, Note_on_c, 0, 83, 68
1, 51600, Tempo, 375000
1, 51600, Note_on_c, 0, 83, 0
1, 51600, Note_on_c, 0, 85, 68
1, 51600, Note_on_c, 1, 49, 54
1, 51640, Note_on_c, 1, 49, 0
1, 51660, Note_on_c, 0, 85, 0
1, 51660, Note_on_c, 0, 84, 68
1, 51720, Note_on_c, 0, 84, 0
1, 51720, Note_on_c, 0, 85, 68
1, 51720, Note_on_c, 1, 61, 54
1, 51720, Note_on_c, 1, 56, 54
1, 51760, Note_on_c, 1, 56, 0
1, 51760, Note_on_c, 1, 61, 0
1, 51780, Note_on_c, 0, 85, 0
1, 51780, Note_on_c, 0, 84, 68
1, 51840, Note_on_c, 0, 84, 0
1, 51840, Note_on_c, 0, 85, 68
1, 51840, Note_on_c, 1, 55, 54
1, 51840, Note_on_c, 1, 61, 54
1, 51880, Note_on_c, 1, 61, 0
1, 51880, Note_on_c, 1, 55, 0
1, 51900, Note_on_c, 0, 85, 0
1, 51900, Note_on_c, 0, 84, 68
1, 51960, Note_on_c, 0, 84, 0
1, 51960, Note_on_c, 0, 85, 68
1, 51960, Note_on_c, 1, 54, 54
1, 51960, Note_on_c, 1, 61, 54
1, 52000, Note_on_c, 1, 61, 0
1, 52000, Note_on_c, 1, 54, 0
1, 52020, Note_on_c, 0, 85, 0
1, 52020, Note_on_c, 0, 82, 68
1, 52077, Note_on_c, 0, 82, 0
1, 52080, Tempo, 375000
1, 52080, Note_on_c, 0, 86, 68
1, 52080, Note_on_c, 1, 47, 54
1, 52120, Note_on_c, 1, 47, 0
1, 52140, Note_on_c, 0, 86, 0
1, 52140, Note_on_c, 0, 85, 68
1, 52200, Note_on_c, 0, 85, 0
1, 52200, Note_on_c, 0, 86, 68
1, 52200, Note_on_c, 1, 59, 54
1, 52200, Note_on_c, 1, 54, 54
1, 52240, Note_on_c, 1, 54, 0
1, 52240, Note_on_c, 1, 59, 0
1, 52260, Note_on_c, 0, 86, 0
1, 52260, Note_on_c, 0, 85, 68
1, 52320, Note_on_c, 0, 85, 0
1, 52320, Note_on_c, 0, 86, 68
1, 52320, Note_on_c, 1, 54, 54
1, 52320, Note_on_c, 1, 59, 54
1, 52360, Note_on_c, 1, 59, 0
1, 52360, Note_on_c, 1, 54, 0
1, 52380, Note_on_c, 0, 86, 0
1, 52380, Note_on_c, 0, 85, 68
1, 52440, Note_on_c, 0, 85, 0
1, 52440, Note_on_c, 0, 86, 68
1, 52440, Note_on_c, 1, 54, 54
1, 52440, Note_on_c, 1, 59, 54
1, 52480, Note_on_c, 1, 59, 0
1, 52480, Note_on_c, 1, 54, 0
1, 52500, Note_on_c, 0, 86, 0
1, 52500, Note_on_c, 0, 85, 68
1, 52560, Tempo, 375000
1, 52560, Note_on_c, 0, 85, 0
1, 52560, Note_on_c, 0, 86, 68
1, 52560, Note_on_c, 1, 47, 54
1, 52600, Note_on_c, 1, 47, 0
1, 52620, Note_on_c, 0, 86, 0
1, 52620, Note_on_c, 0, 85, 68
1, 52680, Note_on_c, 0, 85, 0
1, 52680, Note_on_c, 0, 83, 68
1, 52680, Note_on_c, 1, 59, 54
1, 52680, Note_on_c, 1, 56, 54
1, 52720, Note_on_c, 1, 56, 0
1, 52720, Note_on_c, 1, 59, 0
1, 52740, Note_on_c, 0, 83, 0
1, 52740, Note_on_c, 0, 81, 68
1, 52800, Note_on_c, 0, 81, 0
1, 52800, Note_on_c, 0, 80, 68
1, 52800, Note_on_c, 1, 56, 54
1, 52800, Note_on_c, 1, 59, 54
1, 52840, Note_on_c, 1, 59, 0
1, 52840, Note_on_c, 1, 56, 0
1, 52860, Note_on_c, 0, 80, 0
1, 52860, Note_on_c, 0, 81, 68
1, 52920, Note_on_c, 0, 81, 0
1, 52920, Note_on_c, 0, 83, 68
1, 52920, Note_on_c, 1, 56, 54
1, 52920, Note_on_c, 1, 59, 54
1, 52960, Note_on_c, 1, 59, 0
1, 52960, Note_on_c, 1, 56, 0
1, 52980, Note_on_c, 0, 83, 0
1, 52980, Note_on_c, 0, 80, 68
1, 53040, Tempo, 375000
1, 53040, Note_on_c, 0, 80, 0
1, 53040, Note_on_c, 0, 81, 68
1, 53040, Note_on_c, 1, 49, 54
1, 53080, Note_on_c, 1, 49, 0
1, 53100, Note_on_c, 0, 81, 0
1, 53100, Note_on_c, 0, 83, 68
1, 53160, Note_on_c, 0, 83, 0
1, 53160, Note_on_c, 0, 85, 68
1, 53160, Note_on_c, 1, 57, 54
1, 53160, Note_on_c, 1, 54, 54
1, 53200, Note_on_c, 1, 54, 0
1, 53200, Note_on_c, 1, 57, 0
1, 53220, Note_on_c, 0, 85, 0
1, 53220, Note_on_c, 0, 78, 68
1, 53280, Note_on_c, 0, 78, 0
1, 53280, Note_on_c, 0, 77, 68
1, 53280, Note_on_c, 1, 49, 54
1, 53320, Note_on_c, 1, 49, 0
1, 53340, Note_on_c, 0, 77, 0
1, 53340, Note_on_c, 0, 78, 68
1, 53400, Note_on_c, 0, 78, 0
1, 53400, Note_on_c, 0, 80, 68
1, 53400, Note_on_c, 1, 56, 54
1, 53400, Note_on_c, 1, 59, 54
1, 53440, Note_on_c, 1, 59, 0
1, 53440, Note_on_c, 1, 56, 0
1, 53460, Note_on_c, 0, 80, 0
1, 53460, Note_on_c, 0, 77, 68
1, 53520, Tempo, 375000
1, 53520, Note_on_c, 0, 77, 0
1, 53520, Note_on_c, 0, 78, 68
1, 53520, Note_on_c, 1, 54, 54
1, 53520, Note_on_c, 1, 57, 54
1, 53720, Note_on_c, 0, 78, 0
1, 53720, Note_on_c, 1, 57, 0
1, 53720, Note_on_c, 1, 54, 0
1, 53760, Tempo, 400000
1, 53760, Note_on_c, 0, 81, 106
1, 53760, Note_on_c, 0, 69, 106
1, 53800, Note_on_c, 0, 69, 0
1, 53800, Note_on_c, 0, 81, 0
1, 53880, Note_on_c, 0, 71, 106
1, 53880, Note_on_c, 0, 83, 106
1, 53920, Note_on_c, 0, 83, 0
1, 53920, Note_on_c, 0, 71, 0
1, 54000, Tempo, 400000
1, 54000, Note_on_c, 0, 73, 127
1, 54000, Note_on_c, 0, 85, 127
1, 54000, Note_on_c, 1, 45, 60
1, 54030, Note_on_c, 1, 45, 0
1, 54030, Note_on_c, 1, 49, 60
1, 54060, Note_on_c, 1, 49, 0
1, 54060, Note_on_c, 1, 52, 60
1, 54090, Note_on_c, 1, 52, 0
1, 54090, Note_on_c, 1, 57, 60
1, 54110, Note_on_c, 1, 57, 0
1, 54120, Note_on_c, 1, 57, 60
1, 54160, Note_on_c, 1, 57, 0
1, 54200, Note_on_c, 0, 85, 0
1, 54200, Note_on_c, 0, 73, 0
1, 54240, Note_on_c, 0, 69, 106
1, 54240, Note_on_c, 0, 81, 106
1, 54240, Note_on_c, 1, 57, 60
1, 54280, Note_on_c, 0, 81, 0
1, 54280, Note_on_c, 0, 69, 0
1, 54280, Note_on_c, 1, 57, 0
1, 54360, Note_on_c, 0, 71, 106
1, 54360, Note_on_c, 0, 83, 106
1, 54360, Note_on_c, 1, 57, 60
1, 54400, Note_on_c, 0, 83, 0
1, 54400, Note_on_c, 0, 71, 0
1, 54400, Note_on_c, 1, 57, 0
1, 54480, Tempo, 400000
1, 54480, Note_on_c, 0, 73, 127
1, 54480, Note_on_c, 0, 85, 127
1, 54480, Note_on_c, 1, 45, 60
1, 54510, Note_on_c, 1, 45, 0
1, 54510, Note_on_c, 1, 49, 60
1, 54520, Note_on_c, 0, 85, 0
1, 54520, Note_on_c, 0, 73, 0
1, 54540, Note_on_c, 1, 49, 0
1, 54540, Note_on_c, 1, 52, 60
1, 54570, Note_on_c, 1, 52, 0
1, 54570, Note_on_c, 1, 57, 60
1, 54590, Note_on_c, 1, 57, 0
1, 54600, Note_on_c, 0, 71, 106
1, 54600, Note_on_c, 0, 83, 106
1, 54600, Note_on_c, 1, 57, 60
1, 54640, Note_on_c, 0, 83, 0
1, 54640, Note_on_c, 0, 71, 0
1, 54640, Note_on_c, 1, 57, 0
1, 54720, Note_on_c, 0, 69, 106
1, 54720, Note_on_c, 0, 81, 106
1, 54720, Note_on_c, 1, 57, 60
1, 54760, Note_on_c, 0, 81, 0
1, 54760, Note_on_c, 0, 69, 0
1, 54760, Note_on_c, 1, 57, 0
1, 54840, Note_on_c, 0, 68, 106
1, 54840, Note_on_c, 0, 80, 106
1, 54840, Note_on_c, 1, 57, 60
1, 54880, Note_on_c, 0, 80, 0
1, 54880, Note_on_c, 0, 68, 0
1, 54880, Note_on_c, 1, 57, 0
1, 54960, Tempo, 400000
1, 54960, Note_on_c, 0, 66, 106
1, 54960, Note_on_c, 0, 78, 106
1, 54960, Note_on_c, 1, 38, 60
1, 54990, Note_on_c, 1, 38, 0
1, 54990, Note_on_c, 1, 42, 60
1, 55000, Note_on_c, 0, 78, 0
1, 55000, Note_on_c, 0, 66, 0
1, 55020, Note_on_c, 1, 42, 0
1, 55020, Note_on_c, 1, 45, 60
1, 55050, Note_on_c, 1, 45, 0
1, 55050, Note_on_c, 1, 50, 60
1, 55070, Note_on_c, 1, 50, 0
1, 55080, Note_on_c, 0, 68, 106
1, 55080, Note_on_c, 0, 80, 106
1, 55080, Note_on_c, 1, 50, 60
1, 55120, Note_on_c, 0, 80, 0
1, 55120, Note_on_c, 0, 68, 0
1, 55120, Note_on_c, 1, 50, 0
1, 55200, Note_on_c, 0, 69, 106
1, 55200, Note_on_c, 0, 81, 106
1, 55200, Note_on_c, 1, 39, 60
1, 55230, Note_on_c, 1, 39, 0
1, 55230, Note_on_c, 1, 42, 60
1, 55240, Note_on_c, 0, 81, 0
1, 55240, Note_on_c, 0, 69, 0
1, 55260, Note_on_c, 1, 42, 0
1, 55260, Note_on_c, 1, 45, 60
1, 55290, Note_on_c, 1, 45, 0
1, 55290, Note_on_c, 1, 51, 60
1, 55310, Note_on_c, 1, 51, 0
1, 55320, Note_on_c, 0, 71, 106
1, 55320, Note_on_c, 0, 83, 106
1, 55320, Note_on_c, 1, 51, 60
1, 55360, Note_on_c, 0, 83, 0
1, 55360, Note_on_c, 0, 71, 0
1, 55360, Note_on_c, 1, 51, 0
1, 55440, Tempo, 400000
1, 55440, Note_on_c, 0, 68, 106
1, 55440, Note_on_c, 0, 80, 106
1, 55440, Note_on_c, 1, 40, 60
1, 55470, Note_on_c, 1, 40, 0
1, 55470, Note_on_c, 1, 44, 60
1, 55500, Note_on_c, 1, 44, 0
1, 55500, Note_on_c, 1, 47, 60
1, 55530, Note_on_c, 1, 47, 0
1, 55530, Note_on_c, 1, 52, 60
1, 55550, Note_on_c, 1, 52, 0
1, 55560, Note_on_c, 0, 80, 0
1, 55560, Note_on_c, 0, 68, 0
1, 55560, Note_on_c, 0, 64, 106
1, 55560, Note_on_c, 0, 76, 106
1, 55560, Note_on_c, 1, 52, 60
1, 55600, Note_on_c, 0, 76, 0
1, 55600, Note_on_c, 0, 64, 0
1, 55600, Note_on_c, 1, 52, 0
1, 55680, Note_on_c, 0, 69, 106
1, 55680, Note_on_c, 0, 81, 106
1, 55680, Note_on_c, 1, 52, 60
1, 55720, Note_on_c, 0, 81, 0
1, 55720, Note_on_c, 0, 69, 0
1, 55720, Note_on_c, 1, 52, 0
1, 55800, Note_on_c, 0, 83, 106
1, 55800, Note_on_c, 0, 71, 106
1, 55800, Note_on_c, 1, 52, 60
1, 55840, Note_on_c, 0, 71, 0
1, 55840, Note_on_c, 0, 83, 0
1, 55840, Note_on_c, 1, 52, 0
1, 55920, Tempo, 400000
1, 55920, Note_on_c, 0, 73, 110
1, 55920, Note_on_c, 0, 85, 110
1, 55920, Note_on_c, 1, 45, 60
1, 55950, Note_on_c, 1, 45, 0
1, 55950, Note_on_c, 1, 49, 60
1, 55980, Note_on_c, 1, 49, 0
1, 55980, Note_on_c, 1, 52, 60
1, 56010, Note_on_c, 1, 52, 0
1, 56010, Note_on_c, 1, 57, 60
1, 56030, Note_on_c, 1, 57, 0
1, 56040, Note_on_c, 1, 57, 60
1, 56080, Note_on_c, 1, 57, 0
1, 56120, Note_on_c, 0, 85, 0
1, 56120, Note_on_c, 0, 73, 0
1, 56160, Note_on_c, 0, 69, 106
1, 56160, Note_on_c, 0, 81, 106
1, 56160, Note_on_c, 1, 57, 60
1, 56200, Note_on_c, 0, 81, 0
1, 56200, Note_on_c, 0, 69, 0
1, 56200, Note_on_c, 1, 57, 0
1, 56280, Note_on_c, 0, 71, 106
1, 56280, Note_on_c, 0, 83, 106
1, 56280, Note_on_c, 1, 57, 60
1, 56320, Note_on_c, 0, 83, 0
1, 56320, Note_on_c, 0, 71, 0
1, 56320, Note_on_c, 1, 57, 0
1, 56400, Tempo, 400000
1, 56400, Note_on_c, 0, 73, 110
1, 56400, Note_on_c, 0, 85, 110
1, 56400, Note_on_c, 1, 45, 60
1, 56430, Note_on_c, 1, 45, 0
1, 56430, Note_on_c, 1, 49, 60
1, 56440, Note_on_c, 0, 85, 0
1, 56440, Note_on_c, 0, 73, 0
1, 56460, Note_on_c, 1, 49, 0
1, 56460, Note_on_c, 1, 52, 60
1, 56490, Note_on_c, 1, 52, 0
1, 56490, Note_on_c, 1, 57, 60
1, 56510, Note_on_c, 1, 57, 0
1, 56520, Note_on_c, 0, 71, 106
1, 56520, Note_on_c, 0, 83, 106
1, 56520, Note_on_c, 1, 57, 60
1, 56560, Note_on_c, 0, 83, 0
1, 56560, Note_on_c, 0, 71, 0
1, 56560, Note_on_c, 1, 57, 0
1, 56640, Note_on_c, 0, 69, 106
1, 56640, Note_on_c, 0, 81, 106
1, 56640, Note_on_c, 1, 57, 60
1, 56680, Note_on_c, 0, 81, 0
1, 56680, Note_on_c, 0, 69, 0
1, 56680, Note_on_c, 1, 57, 0
1, 56760, Note_on_c, 0, 68, 106
1, 56760, Note_on_c, 0, 80, 106
1, 56760, Note_on_c, 1, 57, 60
1, 56800, Note_on_c, 0, 80, 0
1, 56800, Note_on_c, 0, 68, 0
1, 56800, Note_on_c, 1, 57, 0
1, 56880, Tempo, 400000
1, 56880, Note_on_c, 0, 66, 106
1, 56880, Note_on_c, 0, 78, 106
1, 56880, Note_on_c, 1, 38, 60
1, 56910, Note_on_c, 1, 38, 0
1, 56910, Note_on_c, 1, 42, 60
1, 56920, Note_on_c, 0, 78, 0
1, 56920, Note_on_c, 0, 66, 0
1, 56940, Note_on_c, 1, 42, 0
1, 56940, Note_on_c, 1, 45, 60
1, 56970, Note_on_c, 1, 45, 0
1, 56970, Note_on_c, 1, 50, 60
1, 56990, Note_on_c, 1, 50, 0
1, 57000, Note_on_c, 0, 71, 106
1, 57000, Note_on_c, 0, 83, 106
1, 57000, Note_on_c, 1, 50, 60
1, 57040, Note_on_c, 0, 83, 0
1, 57040, Note_on_c, 0, 71, 0
1, 57040, Note_on_c, 1, 50, 0
1, 57120, Note_on_c, 0, 68, 106
1, 57120, Note_on_c, 0, 80, 106
1, 57120, Note_on_c, 1, 40, 60
1, 57150, Note_on_c, 1, 40, 0
1, 57150, Note_on_c, 1, 44, 60
1, 57160, Note_on_c, 0, 80, 0
1, 57160, Note_on_c, 0, 68, 0
1, 57180, Note_on_c, 1, 44, 0
1, 57180, Note_on_c, 1, 47, 60
1, 57210, Note_on_c, 1, 47, 0
1, 57210, Note_on_c, 1, 52, 60
1, 57230, Note_on_c, 1, 52, 0
1, 57240, Note_on_c, 0, 64, 106
1, 57240, Note_on_c, 0, 76, 106
1, 57240, Note_on_c, 1, 52, 60
1, 57280, Note_on_c, 0, 76, 0
1, 57280, Note_on_c, 0, 64, 0
1, 57280, Note_on_c, 1, 52, 0
1, 57360, Tempo, 400000
1, 57360, Note_on_c, 0, 69, 106
1, 57360, Note_on_c, 0, 81, 106
1, 57360, Note_on_c, 1, 45, 60
1, 57560, Note_on_c, 0, 81, 0
1, 57560, Note_on_c, 0, 69, 0
1, 57560, Note_on_c, 1, 45, 0
1, 57600, Note_on_c, 0, 81, 106
1, 57600, Note_on_c, 0, 69, 106
1, 57640, Note_on_c, 0, 69, 0
1, 57640, Note_on_c, 0, 81, 0
1, 57720, Note_on_c, 0, 71, 106
1, 57720, Note_on_c, 0, 83, 106
1, 57760, Note_on_c, 0, 83, 0
1, 57760, Note_on_c, 0, 71, 0
1, 57840, Tempo, 400000
1, 57840, Note_on_c, 0, 73, 110
1, 57840, Note_on_c, 0, 85, 110
1, 57840, Note_on_c, 1, 45, 60
1, 57870, Note_on_c, 1, 45, 0
1, 57870, Note_on_c, 1, 49, 60
1, 57900, Note_on_c, 1, 49, 0
1, 57900, Note_on_c, 1, 52, 60
1, 57930, Note_on_c, 1, 52, 0
1, 57930, Note_on_c, 1, 57, 60
1, 57950, Note_on_c, 1, 57, 0
1, 57960, Note_on_c, 1, 57, 60
1, 58000, Note_on_c, 1, 57, 0
1, 58040, Note_on_c, 0, 85, 0
1, 58040, Note_on_c, 0, 73, 0
1, 58080, Note_on_c, 0, 69, 106
1, 58080, Note_on_c, 0, 81, 106
1, 58080, Note_on_c, 1, 57, 60
1, 58120, Note_on_c, 0, 81, 0
1, 58120, Note_on_c, 0, 69, 0
1, 58120, Note_on_c, 1, 57, 0
1, 58200, Note_on_c, 0, 71, 106
1, 58200, Note_on_c, 0, 83, 106
1, 58200, Note_on_c, 1, 57, 60
1, 58240, Note_on_c, 0, 83, 0
1, 58240, Note_on_c, 0, 71, 0
1, 58240, Note_on_c, 1, 57, 0
1, 58320, Tempo, 400000
1, 58320, Note_on_c, 0, 73, 110
1, 58320, Note_on_c, 0, 85, 110
1, 58320, Note_on_c, 1, 45, 60
1, 58350, Note_on_c, 1, 45, 0
1, 58350, Note_on_c, 1, 49, 60
1, 58360, Note_on_c, 0, 85, 0
1, 58360, Note_on_c, 0, 73, 0
1, 58380, Note_on_c, 1, 49, 0
1, 58380, Note_on_c, 1, 52, 60
1, 58410, Note_on_c, 1, 52, 0
1, 58410, Note_on_c, 1, 57, 60
1, 58430, Note_on_c, 1, 57, 0
1, 58440, Note_on_c, 0, 71, 106
1, 58440, Note_on_c, 0, 83, 106
1, 58440, Note_on_c, 1, 57, 60
1, 58480, Note_on_c, 0, 83, 0
1, 58480, Note_on_c, 0, 71, 0
1, 58480, Note_on_c, 1, 57, 0
1, 58560, Note_on_c, 0, 69, 106
1, 58560, Note_on_c, 0, 81, 106
1, 58560, Note_on_c, 1, 57, 60
1, 58600, Note_on_c, 0, 81, 0
1, 58600, Note_on_c, 0, 69, 0
1, 58600, Note_on_c, 1, 57, 0
1, 58680, Note_on_c, 0, 68, 106
1, 58680, Note_on_c, 0, 80, 106
1, 58680, Note_on_c, 1, 57, 60
1, 58720, Note_on_c, 0, 80, 0
1, 58720, Note_on_c, 0, 68, 0
1, 58720, Note_on_c, 1, 57, 0
1, 58800, Tempo, 400000
1, 58800, Note_on_c, 0, 66, 106
1, 58800, Note_on_c, 0, 78, 106
1, 58800, Note_on_c, 1, 38, 60
1, 58830, Note_on_c, 1, 38, 0
1, 58830, Note_on_c, 1, 42, 60
1, 58840, Note_on_c, 0, 78, 0
1, 58840, Note_on_c, 0, 66, 0
1, 58860, Note_on_c, 1, 42, 0
1, 58860, Note_on_c, 1, 45, 60
1, 58890, Note_on_c, 1, 45, 0
1, 58890, Note_on_c, 1, 50, 60
1, 58910, Note_on_c, 1, 50, 0
1, 58920, Note_on_c, 0, 68, 106
1, 58920, Note_on_c, 0, 80, 106
1, 58920, Note_on_c, 1, 50, 60
1, 58960, Note_on_c, 0, 80, 0
1, 58960, Note_on_c, 0, 68, 0
1, 58960, Note_on_c, 1, 50, 0
1, 59040, Note_on_c, 0, 69, 106
1, 59040, Note_on_c, 0, 81, 106
1, 59040, Note_on_c, 1, 39, 60
1, 59070, Note_on_c, 1, 39, 0
1, 59070, Note_on_c, 1, 42, 60
1, 59080, Note_on_c, 0, 81, 0
1, 59080, Note_on_c, 0, 69, 0
1, 59100, Note_on_c, 1, 42, 0
1, 59100, Note_on_c, 1, 45, 60
1, 59130, Note_on_c, 1, 45, 0
1, 59130, Note_on_c, 1, 51, 60
1, 59150, Note_on_c, 1, 51, 0
1, 59160, Note_on_c, 0, 71, 106
1, 59160, Note_on_c, 0, 83, 106
1, 59160, Note_on_c, 1, 51, 60
1, 59200, Note_on_c, 0, 83, 0
1, 59200, Note_on_c, 0, 71, 0
1, 59200, Note_on_c, 1, 51, 0
1, 59280, Tempo, 400000
1, 59280, Note_on_c, 0, 68, 106
1, 59280, Note_on_c, 0, 80, 106
1, 59280, Note_on_c, 1, 40, 60
1, 59310, Note_on_c, 1, 40, 0
1, 59310, Note_on_c, 1, 44, 60
1, 59340, Note_on_c, 1, 44, 0
1, 59340, Note_on_c, 1, 47, 60
1, 59370, Note_on_c, 1, 47, 0
1, 59370, Note_on_c, 1, 52, 60
1, 59390, Note_on_c, 1, 52, 0
1, 59400, Note_on_c, 0, 80, 0
1, 59400, Note_on_c, 0, 68, 0
1, 59400, Note_on_c, 0, 64, 106
1, 59400, Note_on_c, 0, 76, 106
1, 59400, Note_on_c, 1, 52, 60
1, 59440, Note_on_c, 0, 76, 0
1, 59440, Note_on_c, 0, 64, 0
1, 59440, Note_on_c, 1, 52, 0
1, 59520, Note_on_c, 0, 69, 106
1, 59520, Note_on_c, 0, 81, 106
1, 59520, Note_on_c, 1, 52, 60
1, 59560, Note_on_c, 0, 81, 0
1, 59560, Note_on_c, 0, 69, 0
1, 59560, Note_on_c, 1, 52, 0
1, 59640, Note_on_c, 0, 83, 106
1, 59640, Note_on_c, 0, 71, 106
1, 59640, Note_on_c, 1, 52, 60
1, 59680, Note_on_c, 0, 71, 0
1, 59680, Note_on_c, 0, 83, 0
1, 59680, Note_on_c, 1, 52, 0
1, 59760, Tempo, 400000
1, 59760, Note_on_c, 0, 73, 110
1, 59760, Note_on_c, 0, 85, 110
1, 59760, Note_on_c, 1, 45, 60
1, 59790, Note_on_c, 1, 45, 0
1, 59790, Note_on_c, 1, 49, 60
1, 59820, Note_on_c, 1, 49, 0
1, 59820, Note_on_c, 1, 52, 60
1, 59850, Note_on_c, 1, 52, 0
1, 59850, Note_on_c, 1, 57, 60
1, 59870, Note_on_c, 1, 57, 0
1, 59880, Note_on_c, 1, 57, 60
1, 59920, Note_on_c, 1, 57, 0
1, 59960, Note_on_c, 0, 85, 0
1, 59960, Note_on_c, 0, 73, 0
1, 60000, Note_on_c, 0, 69, 106
1, 60000, Note_on_c, 0, 81, 106
1, 60000, Note_on_c, 1, 57, 60
1, 60040, Note_on_c, 0, 81, 0
1, 60040, Note_on_c, 0, 69, 0
1, 60040, Note_on_c, 1, 57, 0
1, 60120, Note_on_c, 0, 71, 106
1, 60120, Note_on_c, 0, 83, 106
1, 60120, Note_on_c, 1, 57, 60
1, 60160, Note_on_c, 0, 83, 0
1, 60160, Note_on_c, 0, 71, 0
1, 60160, Note_on_c, 1, 57, 0
1, 60240, Tempo, 400000
1, 60240, Note_on_c, 0, 73, 110
1, 60240, Note_on_c, 0, 85, 110
1, 60240, Note_on_c, 1, 45, 60
1, 60270, Note_on_c, 1, 45, 0
1, 60270, Note_on_c, 1, 49, 60
1, 60280, Note_on_c, 0, 85, 0
1, 60280, Note_on_c, 0, 73, 0
1, 60300, Note_on_c, 1, 49, 0
1, 60300, Note_on_c, 1, 52, 60
1, 60330, Note_on_c, 1, 52, 0
1, 60330, Note_on_c, 1, 57, 60
1, 60350, Note_on_c, 1, 57, 0
1, 60360, Note_on_c, 0, 71, 106
1, 60360, Note_on_c, 0, 83, 106
1, 60360, Note_on_c, 1, 57, 60
1, 60400, Note_on_c, 0, 83, 0
1, 60400, Note_on_c, 0, 71, 0
1, 60400, Note_on_c, 1, 57, 0
1, 60480, Note_on_c, 0, 69, 106
1, 60480, Note_on_c, 0, 81, 106
1, 60480, Note_on_c, 1, 57, 60
1, 60520, Note_on_c, 0, 81, 0
1, 60520, Note_on_c, 0, 69, 0
1, 60520, Note_on_c, 1, 57, 0
1, 60600, Note_on_c, 0, 68, 106
1, 60600, Note_on_c, 0, 80, 106
1, 60600, Note_on_c, 1, 57, 60
1, 60640, Note_on_c, 0, 80, 0
1, 60640, Note_on_c, 0, 68, 0
1, 60640, Note_on_c, 1, 57, 0
1, 60720, Tempo, 400000
1, 60720, Note_on_c, 0, 66, 106
1, 60720, Note_on_c, 0, 78, 106
1, 60720, Note_on_c, 1, 38, 60
1, 60750, Note_on_c, 1, 38, 0
1, 60750, Note_on_c, 1, 42, 60
1, 60760, Note_on_c, 0, 78, 0
1, 60760, Note_on_c, 0, 66, 0
1, 60780, Note_on_c, 1, 42, 0
1, 60780, Note_on_c, 1, 45, 60
1, 60810, Note_on_c, 1, 45, 0
1, 60810, Note_on_c, 1, 50, 60
1, 60830, Note_on_c, 1, 50, 0
1, 60840, Note_on_c, 0, 71, 106
1, 60840, Note_on_c, 0, 83, 106
1, 60840, Note_on_c, 1, 50, 60
1, 60880, Note_on_c, 0, 83, 0
1, 60880, Note_on_c, 0, 71, 0
1, 60880, Note_on_c, 1, 50, 0
1, 60960, Note_on_c, 0, 68, 106
1, 60960, Note_on_c, 0, 80, 106
1, 60960, Note_on_c, 1, 40, 60
1, 60990, Note_on_c, 1, 40, 0
1, 60990, Note_on_c, 1, 44, 60
1, 61000, Note_on_c, 0, 80, 0
1, 61000, Note_on_c, 0, 68, 0
1, 61020, Note_on_c, 1, 44, 0
1, 61020, Note_on_c, 1, 47, 60
1, 61050, Note_on_c, 1, 47, 0
1, 61050, Note_on_c, 1, 52, 60
1, 61070, Note_on_c, 1, 52, 0
1, 61080, Note_on_c, 0, 64, 106
1, 61080, Note_on_c, 0, 76, 106
1, 61080, Note_on_c, 1, 52, 60
1, 61120, Note_on_c, 0, 76, 0
1, 61120, Note_on_c, 0, 64, 0
1, 61120, Note_on_c, 1, 52, 0
1, 61200, Tempo, 400000
1, 61200, Note_on_c, 0, 69, 106
1, 61200, Note_on_c, 0, 81, 106
1, 61200, Note_on_c, 1, 45, 60
1, 61400, Note_on_c, 0, 81, 0
1, 61400, Note_on_c, 0, 69, 0
1, 61400, Note_on_c, 1, 45, 0
1, 61440, Note_on_c, 0, 71, 68
1, 61500, Note_on_c, 0, 71, 0
1, 61500, Note_on_c, 0, 69, 68
1, 61560, Note_on_c, 0, 69, 0
1, 61560, Note_on_c, 0, 68, 68
1, 61620, Note_on_c, 0, 68, 0
1, 61620, Note_on_c, 0, 69, 68
1, 61680, Tempo, 400000
1, 61680, Note_on_c, 0, 69, 0
1, 61680, Note_on_c, 0, 72, 68
1, 61680, Note_on_c, 1, 57, 54
1, 61797, Note_on_c, 0, 72, 0
1, 61800, Note_on_c, 1, 57, 0
1, 61800, Note_on_c, 1, 64, 54
1, 61800, Note_on_c, 1, 60, 54
1, 61840, Note_on_c, 1, 60, 0
1, 61840, Note_on_c, 1, 64, 0
1, 61920, Note_on_c, 0, 74, 68
1, 61920, Note_on_c, 1, 60, 54
1, 61920, Note_on_c, 1, 64, 54
1, 61960, Note_on_c, 1, 64, 0
1, 61960, Note_on_c, 1, 60, 0
1, 61980, Note_on_c, 0, 74, 0
1, 61980, Note_on_c, 0, 72, 68
1, 62040, Note_on_c, 0, 72, 0
1, 62040, Note_on_c, 0, 71, 68
1, 62040, Note_on_c, 1, 60, 54
1, 62040, Note_on_c, 1, 64, 54
1, 62080, Note_on_c, 1, 64, 0
1, 62080, Note_on_c, 1, 60, 0
1, 62100, Note_on_c, 0, 71, 0
1, 62100, Note_on_c, 0, 72, 68
1, 62160, Tempo, 400000
1, 62160, Note_on_c, 0, 72, 0
1, 62160, Note_on_c, 0, 76, 68
1, 62160, Note_on_c, 1, 57, 54
1, 62277, Note_on_c, 0, 76, 0
1, 62280, Note_on_c, 1, 57, 0
1, 62280, Note_on_c, 1, 60, 54
1, 62280, Note_on_c, 1, 64, 54
1, 62320, Note_on_c, 1, 64, 0
1, 62320, Note_on_c, 1, 60, 0
1, 62400, Note_on_c, 0, 77, 68
1, 62400, Note_on_c, 1, 60, 54
1, 62400, Note_on_c, 1, 64, 54
1, 62440, Note_on_c, 1, 64, 0
1, 62440, Note_on_c, 1, 60, 0
1, 62460, Note_on_c, 0, 77, 0
1, 62460, Note_on_c, 0, 76, 68
1, 62520, Note_on_c, 0, 76, 0
1, 62520, Note_on_c, 0, 75, 68
1, 62520, Note_on_c, 1, 60, 54
1, 62520, Note_on_c, 1, 64, 54
1, 62560, Note_on_c, 1, 64, 0
1, 62560, Note_on_c, 1, 60, 0
1, 62580, Note_on_c, 0, 75, 0
1, 62580, Note_on_c, 0, 76, 68
1, 62640, Tempo, 400000
1, 62640, Note_on_c, 0, 76, 0
1, 62640, Note_on_c, 0, 83, 68
1, 62640, Note_on_c, 1, 57, 54
1, 62680, Note_on_c, 1, 57, 0
1, 62700, Note_on_c, 0, 83, 0
1, 62700, Note_on_c, 0, 81, 68
1, 62760, Note_on_c, 0, 81, 0
1, 62760, Note_on_c, 0, 80, 68
1, 62760, Note_on_c, 1, 64, 54
1, 62760, Note_on_c, 1, 60, 54
1, 62800, Note_on_c, 1, 60, 0
1, 62800, Note_on_c, 1, 64, 0
1, 62820, Note_on_c, 0, 80, 0
1, 62820, Note_on_c, 0, 81, 68
1, 62880, Note_on_c, 0, 81, 0
1, 62880, Note_on_c, 0, 83, 68
1, 62880, Note_on_c, 1, 57, 54
1, 62920, Note_on_c, 1, 57, 0
1, 62940, Note_on_c, 0, 83, 0
1, 62940, Note_on_c, 0, 81, 68
1, 63000, Note_on_c, 0, 81, 0
1, 63000, Note_on_c, 0, 80, 68
1, 63000, Note_on_c, 1, 60, 54
1, 63000, Note_on_c, 1, 64, 54
1, 63040, Note_on_c, 1, 64, 0
1, 63040, Note_on_c, 1, 60, 0
1, 63060, Note_on_c, 0, 80, 0
1, 63060, Note_on_c, 0, 81, 68
1, 63117, Note_on_c, 0, 81, 0
1, 63120, Tempo, 400000
1, 63120, Note_on_c, 0, 84, 70
1, 63120, Note_on_c, 1, 57, 54
1, 63240, Note_on_c, 1, 57, 0
1, 63240, Note_on_c, 1, 60, 54
1, 63240, Note_on_c, 1, 64, 54
1, 63280, Note_on_c, 1, 64, 0
1, 63280, Note_on_c, 1, 60, 0
1, 63320, Note_on_c, 0, 84, 0
1, 63360, Note_on_c, 0, 81, 68
1, 63360, Note_on_c, 1, 60, 54
1, 63360, Note_on_c, 1, 64, 54
1, 63400, Note_on_c, 0, 81, 0
1, 63400, Note_on_c, 1, 64, 0
1, 63400, Note_on_c, 1, 60, 0
1, 63480, Note_on_c, 0, 84, 68
1, 63480, Note_on_c, 1, 60, 54
1, 63480, Note_on_c, 1, 64, 54
1, 63520, Note_on_c, 0, 84, 0
1, 63520, Note_on_c, 1, 64, 0
1, 63520, Note_on_c, 1, 60, 0
1, 63600, Tempo, 400000
1, 63600, Note_on_c, 0, 79, 68
1, 63600, Note_on_c, 1, 52, 54
1, 63630, Note_on_c, 0, 79, 0
1, 63630, Note_on_c, 0, 81, 68
1, 63640, Note_on_c, 1, 52, 0
1, 63660, Note_on_c, 0, 81, 0
1, 63660, Note_on_c, 0, 83, 68
1, 63700, Note_on_c, 0, 83, 0
1, 63720, Note_on_c, 0, 78, 68
1, 63720, Note_on_c, 0, 81, 68
1, 63720, Note_on_c, 1, 64, 54
1, 63720, Note_on_c, 1, 59, 54
1, 63760, Note_on_c, 0, 81, 0
1, 63760, Note_on_c, 0, 78, 0
1, 63760, Note_on_c, 1, 59, 0
1, 63760, Note_on_c, 1, 64, 0
1, 63840, Note_on_c, 0, 76, 68
1, 63840, Note_on_c, 0, 79, 68
1, 63840, Note_on_c, 1, 59, 54
1, 63840, Note_on_c, 1, 64, 54
1, 63880, Note_on_c, 0, 79, 0
1, 63880, Note_on_c, 0, 76, 0
1, 63880, Note_on_c, 1, 64, 0
1, 63880, Note_on_c, 1, 59, 0
1, 63960, Note_on_c, 0, 78, 68
1, 63960, Note_on_c, 0, 81, 68
1, 63960, Note_on_c, 1, 59, 54
1, 63960, Note_on_c, 1, 64, 54
1, 64000, Note_on_c, 0, 81, 0
1, 64000, Note_on_c, 0, 78, 0
1, 64000, Note_on_c, 1, 64, 0
1, 64000, Note_on_c, 1, 59, 0
1, 64080, Tempo, 400000
1, 64080, Note_on_c, 0, 79, 68
1, 64080, Note_on_c, 1, 52, 54
1, 64110, Note_on_c, 0, 79, 0
1, 64110, Note_on_c, 0, 81, 68
1, 64120, Note_on_c, 1, 52, 0
1, 64140, Note_on_c, 0, 81, 0
1, 64140, Note_on_c, 0, 83, 68
1, 64180, Note_on_c, 0, 83, 0
1, 64200, Note_on_c, 0, 78, 68
1, 64200, Note_on_c, 0, 81, 68
1, 64200, Note_on_c, 1, 64, 54
1, 64200, Note_on_c, 1, 59, 54
1, 64240, Note_on_c, 0, 81, 0
1, 64240, Note_on_c, 0, 78, 0
1, 64240, Note_on_c, 1, 59, 0
1, 64240, Note_on_c, 1, 64, 0
1, 64320, Note_on_c, 0, 76, 68
1, 64320, Note_on_c, 0, 79, 68
1, 64320, Note_on_c, 1, 59, 54
1, 64320, Note_on_c, 1, 64, 54
1, 64360, Note_on_c, 0, 79, 0
1, 64360, Note_on_c, 0, 76, 0
1, 64360, Note_on_c, 1, 64, 0
1, 64360, Note_on_c, 1, 59, 0
1, 64440, Note_on_c, 0, 78, 68
1, 64440, Note_on_c, 0, 81, 68
1, 64440, Note_on_c, 1, 59, 54
1, 64440, Note_on_c, 1, 64, 54
1, 64480, Note_on_c, 0, 81, 0
1, 64480, Note_on_c, 0, 78, 0
1, 64480, Note_on_c, 1, 64, 0
1, 64480, Note_on_c, 1, 59, 0
1, 64560, Tempo, 400000
1, 64560, Note_on_c, 0, 79, 68
1, 64560, Note_on_c, 1, 52, 54
1, 64590, Note_on_c, 0, 79, 0
1, 64590, Note_on_c, 0, 81, 68
1, 64600, Note_on_c, 1, 52, 0
1, 64620, Note_on_c, 0, 81, 0
1, 64620, Note_on_c, 0, 83, 68
1, 64660, Note_on_c, 0, 83, 0
1, 64680, Note_on_c, 0, 78, 68
1, 64680, Note_on_c, 0, 81, 68
1, 64680, Note_on_c, 1, 64, 54
1, 64680, Note_on_c, 1, 59, 54
1, 64720, Note_on_c, 0, 81, 0
1, 64720, Note_on_c, 0, 78, 0
1, 64720, Note_on_c, 1, 59, 0
1, 64720, Note_on_c, 1, 64, 0
1, 64800, Note_on_c, 0, 76, 68
1, 64800, Note_on_c, 0, 79, 68
1, 64800, Note_on_c, 1, 47, 54
1, 64840, Note_on_c, 0, 79, 0
1, 64840, Note_on_c, 0, 76, 0
1, 64840, Note_on_c, 1, 47, 0
1, 64920, Note_on_c, 0, 75, 68
1, 64920, Note_on_c, 0, 78, 68
1, 64920, Note_on_c, 1, 59, 54
1, 64960, Note_on_c, 0, 78, 0
1, 64960, Note_on_c, 0, 75, 0
1, 64960, Note_on_c, 1, 59, 0
1, 65040, Tempo, 400000
1, 65040, Note_on_c, 0, 76, 68
1, 65040, Note_on_c, 1, 52, 54
1, 65240, Note_on_c, 0, 76, 0
1, 65240, Note_on_c, 1, 52, 0
1, 65280, Note_on_c, 0, 71, 68
1, 65340, Note_on_c, 0, 71, 0
1, 65340, Note_on_c, 0, 69, 68
1, 65400, Note_on_c, 0, 69, 0
1, 65400, Note_on_c, 0, 68, 68
1, 65460, Note_on_c, 0, 68, 0
1, 65460, Note_on_c, 0, 69, 68
1, 65520, Tempo, 400000
1, 65520, Note_on_c, 0, 69, 0
1, 65520, Note_on_c, 0, 72, 68
1, 65520, Note_on_c, 1, 57, 54
1, 65637, Note_on_c, 0, 72, 0
1, 65640, Note_on_c, 1, 57, 0
1, 65640, Note_on_c, 1, 64, 54
1, 65640, Note_on_c, 1, 60, 54
1, 65680, Note_on_c, 1, 60, 0
1, 65680, Note_on_c, 1, 64, 0
1, 65760, Note_on_c, 0, 74, 68
1, 65760, Note_on_c, 1, 60, 54
1, 65760, Note_on_c, 1, 64, 54
1, 65800, Note_on_c, 1, 64, 0
1, 65800, Note_on_c, 1, 60, 0
1, 65820, Note_on_c, 0, 74, 0
1, 65820, Note_on_c, 0, 72, 68
1, 65880, Note_on_c, 0, 72, 0
1, 65880, Note_on_c, 0, 71, 68
1, 65880, Note_on_c, 1, 60, 54
1, 65880, Note_on_c, 1, 64, 54
1, 65920, Note_on_c, 1, 64, 0
1, 65920, Note_on_c, 1, 60, 0
1, 65940, Note_on_c, 0, 71, 0
1, 65940, Note_on_c, 0, 72, 68
1, 66000, Tempo, 400000
1, 66000, Note_on_c, 0, 72, 0
1, 66000, Note_on_c, 0, 76, 68
1, 66000, Note_on_c, 1, 57, 54
1, 66117, Note_on_c, 0, 76, 0
1, 66120, Note_on_c, 1, 57, 0
1, 66120, Note_on_c, 1, 60, 54
1, 66120, Note_on_c, 1, 64, 54
1, 66160, Note_on_c, 1, 64, 0
1, 66160, Note_on_c, 1, 60, 0
1, 66240, Note_on_c, 0, 77, 68
1, 66240, Note_on_c, 1, 60, 54
1, 66240, Note_on_c, 1, 64, 54
1, 66280, Note_on_c, 1, 64, 0
1, 66280, Note_on_c, 1, 60, 0
1, 66300, Note_on_c, 0, 77, 0
1, 66300, Note_on_c, 0, 76, 68
1, 66360, Note_on_c, 0, 76, 0
1, 66360, Note_on_c, 0, 75, 68
1, 66360, Note_on_c, 1, 60, 54
1, 66360, Note_on_c, 1, 64, 54
1, 66400, Note_on_c, 1, 64, 0
1, 66400, Note_on_c, 1, 60, 0
1, 66420, Note_on_c, 0, 75, 0
1, 66420, Note_on_c, 0, 76, 68
1, 66480, Tempo, 400000
1, 66480, Note_on_c, 0, 76, 0
1, 66480, Note_on_c, 0, 83, 68
1, 66480, Note_on_c, 1, 57, 54
1, 66520, Note_on_c, 1, 57, 0
1, 66540, Note_on_c, 0, 83, 0
1, 66540, Note_on_c, 0, 81, 68
1, 66600, Note_on_c, 0, 81, 0
1, 66600, Note_on_c, 0, 80, 68
1, 66600, Note_on_c, 1, 64, 54
1, 66600, Note_on_c, 1, 60, 54
1, 66640, Note_on_c, 1, 60, 0
1, 66640, Note_on_c, 1, 64, 0
1, 66660, Note_on_c, 0, 80, 0
1, 66660, Note_on_c, 0, 81, 68
1, 66720, Note_on_c, 0, 81, 0
1, 66720, Note_on_c, 0, 83, 68
1, 66720, Note_on_c, 1, 57, 54
1, 66760, Note_on_c, 1, 57, 0
1, 66780, Note_on_c, 0, 83, 0
1, 66780, Note_on_c, 0, 81, 68
1, 66840, Note_on_c, 0, 81, 0
1, 66840, Note_on_c, 0, 80, 68
1, 66840, Note_on_c, 1, 60, 54
1, 66840, Note_on_c, 1, 64, 54
1, 66880, Note_on_c, 1, 64, 0
1, 66880, Note_on_c, 1, 60, 0
1, 66900, Note_on_c, 0, 80, 0
1, 66900, Note_on_c, 0, 81, 68
1, 66957, Note_on_c, 0, 81, 0
1, 66960, Tempo, 400000
1, 66960, Note_on_c, 0, 84, 70
1, 66960, Note_on_c, 1, 57, 54
1, 67080, Note_on_c, 1, 57, 0
1, 67080, Note_on_c, 1, 60, 54
1, 67080, Note_on_c, 1, 64, 54
1, 67120, Note_on_c, 1, 64, 0
1, 67120, Note_on_c, 1, 60, 0
1, 67160, Note_on_c, 0, 84, 0
1, 67200, Note_on_c, 0, 81, 68
1, 67200, Note_on_c, 1, 60, 54
1, 67200, Note_on_c, 1, 64, 54
1, 67240, Note_on_c, 0, 81, 0
1, 67240, Note_on_c, 1, 64, 0
1, 67240, Note_on_c, 1, 60, 0
1, 67320, Note_on_c, 0, 84, 68
1, 67320, Note_on_c, 1, 60, 54
1, 67320, Note_on_c, 1, 64, 54
1, 67360, Note_on_c, 0, 84, 0
1, 67360, Note_on_c, 1, 64, 0
1, 67360, Note_on_c, 1, 60, 0
1, 67440, Tempo, 400000
1, 67440, Note_on_c, 0, 79, 68
1, 67440, Note_on_c, 1, 52, 54
1, 67470, Note_on_c, 0, 79, 0
1, 67470, Note_on_c, 0, 81, 68
1, 67480, Note_on_c, 1, 52, 0
1, 67500, Note_on_c, 0, 81, 0
1, 67500, Note_on_c, 0, 83, 68
1, 67540, Note_on_c, 0, 83, 0
1, 67560, Note_on_c, 0, 78, 68
1, 67560, Note_on_c, 0, 81, 68
1, 67560, Note_on_c, 1, 64, 54
1, 67560, Note_on_c, 1, 59, 54
1, 67600, Note_on_c, 0, 81, 0
1, 67600, Note_on_c, 0, 78, 0
1, 67600, Note_on_c, 1, 59, 0
1, 67600, Note_on_c, 1, 64, 0
1, 67680, Note_on_c, 0, 76, 68
1, 67680, Note_on_c, 0, 79, 68
1, 67680, Note_on_c, 1, 59, 54
1, 67680, Note_on_c, 1, 64, 54
1, 67720, Note_on_c, 0, 79, 0
1, 67720, Note_on_c, 0, 76, 0
1, 67720, Note_on_c, 1, 64, 0
1, 67720, Note_on_c, 1, 59, 0
1, 67800, Note_on_c, 0, 78, 68
1, 67800, Note_on_c, 0, 81, 68
1, 67800, Note_on_c, 1, 59, 54
1, 67800, Note_on_c, 1, 64, 54
1, 67840, Note_on_c, 0, 81, 0
1, 67840, Note_on_c, 0, 78, 0
1, 67840, Note_on_c, 1, 64, 0
1, 67840, Note_on_c, 1, 59, 0
1, 67920, Tempo, 400000
1, 67920, Note_on_c, 0, 79, 68
1, 67920, Note_on_c, 1, 52, 54
1, 67950, Note_on_c, 0, 79, 0
1, 67950, Note_on_c, 0, 81, 68
1, 67960, Note_on_c, 1, 52, 0
1, 67980, Note_on_c, 0, 81, 0
1, 67980, Note_on_c, 0, 83, 68
1, 68020, Note_on_c, 0, 83, 0
1, 68040, Note_on_c, 0, 78, 68
1, 68040, Note_on_c, 0, 81, 68
1, 68040, Note_on_c, 1, 64, 54
1, 68040, Note_on_c, 1, 59, 54
1, 68080, Note_on_c, 0, 81, 0
1, 68080, Note_on_c, 0, 78, 0
1, 68080, Note_on_c, 1, 59, 0
1, 68080, Note_on_c, 1, 64, 0
1, 68160, Note_on_c, 0, 76, 68
1, 68160, Note_on_c, 0, 79, 68
1, 68160, Note_on_c, 1, 59, 54
1, 68160, Note_on_c, 1, 64, 54
1, 68200, Note_on_c, 0, 79, 0
1, 68200, Note_on_c, 0, 76, 0
1, 68200, Note_on_c, 1, 64, 0
1, 68200, Note_on_c, 1, 59, 0
1, 68280, Note_on_c, 0, 78, 68
1, 68280, Note_on_c, 0, 81, 68
1, 68280, Note_on_c, 1, 59, 54
1, 68280, Note_on_c, 1, 64, 54
1, 68320, Note_on_c, 0, 81, 0
1, 68320, Note_on_c, 0, 78, 0
1, 68320, Note_on_c, 1, 64, 0
1, 68320, Note_on_c, 1, 59, 0
1, 68400, Tempo, 400000
1, 68400, Note_on_c, 0, 79, 68
1, 68400, Note_on_c, 1, 52, 54
1, 68430, Note_on_c, 0, 79, 0
1, 68430, Note_on_c, 0, 81, 68
1, 68440, Note_on_c, 1, 52, 0
1, 68460, Note_on_c, 0, 81, 0
1, 68460, Note_on_c, 0, 83, 68
1, 68500, Note_on_c, 0, 83, 0
1, 68520, Note_on_c, 0, 78, 68
1, 68520, Note_on_c, 0, 81, 68
1, 68520, Note_on_c, 1, 64, 54
1, 68520, Note_on_c, 1, 59, 54
1, 68560, Note_on_c, 0, 81, 0
1, 68560, Note_on_c, 0, 78, 0
1, 68560, Note_on_c, 1, 59, 0
1, 68560, Note_on_c, 1, 64, 0
1, 68640, Note_on_c, 0, 76, 68
1, 68640, Note_on_c, 0, 79, 68
1, 68640, Note_on_c, 1, 47, 54
1, 68680, Note_on_c, 0, 79, 0
1, 68680, Note_on_c, 0, 76, 0
1, 68680, Note_on_c, 1, 47, 0
1, 68760, Note_on_c, 0, 75, 68
1, 68760, Note_on_c, 0, 78, 68
1, 68760, Note_on_c, 1, 59, 54
1, 68800, Note_on_c, 0, 78, 0
1, 68800, Note_on_c, 0, 75, 0
1, 68800, Note_on_c, 1, 59, 0
1, 68880, Tempo, 400000
1, 68880, Note_on_c, 0, 76, 68
1, 68880, Note_on_c, 1, 52, 54
1, 69080, Note_on_c, 0, 76, 0
1, 69080, Note_on_c, 1, 52, 0
1, 69120, Note_on_c, 0, 72, 70
1, 69120, Note_on_c, 0, 76, 70
1, 69160, Note_on_c, 0, 76, 0
1, 69160, Note_on_c, 0, 72, 0
1, 69240, Note_on_c, 0, 77, 70
1, 69240, Note_on_c, 0, 74, 70
1, 69280, Note_on_c, 0, 74, 0
1, 69280, Note_on_c, 0, 77, 0
1, 69360, Tempo, 400000
1, 69360, Note_on_c, 0, 76, 70
1, 69360, Note_on_c, 0, 79, 70
1, 69360, Note_on_c, 1, 48, 56
1, 69400, Note_on_c, 0, 79, 0
1, 69400, Note_on_c, 0, 76, 0
1, 69400, Note_on_c, 1, 48, 0
1, 69480, Note_on_c, 0, 76, 70
1, 69480, Note_on_c, 0, 79, 70
1, 69480, Note_on_c, 1, 60, 56
1, 69520, Note_on_c, 0, 79, 0
1, 69520, Note_on_c, 0, 76, 0
1, 69520, Note_on_c, 1, 60, 0
1, 69600, Note_on_c, 0, 81, 70
1, 69600, Note_on_c, 1, 52, 56
1, 69640, Note_on_c, 1, 52, 0
1, 69660, Note_on_c, 0, 81, 0
1, 69660, Note_on_c, 0, 79, 70
1, 69720, Note_on_c, 0, 79, 0
1, 69720, Note_on_c, 0, 77, 70
1, 69720, Note_on_c, 1, 64, 56
1, 69760, Note_on_c, 1, 64, 0
1, 69780, Note_on_c, 0, 77, 0
1, 69780, Note_on_c, 0, 76, 70
1, 69837, Note_on_c, 0, 76, 0
1, 69840, Tempo, 400000
1, 69840, Note_on_c, 0, 71, 92
1, 69840, Note_on_c, 0, 74, 90
1, 69840, Note_on_c, 1, 55, 59
1, 69960, Note_on_c, 0, 71, 0
1, 69960, Note_on_c, 0, 67, 70
1, 70040, Note_on_c, 0, 74, 0
1, 70040, Note_on_c, 1, 55, 0
1, 70077, Note_on_c, 0, 67, 0
1, 70080, Note_on_c, 0, 72, 70
1, 70080, Note_on_c, 0, 76, 70
1, 70120, Note_on_c, 0, 76, 0
1, 70120, Note_on_c, 0, 72, 0
1, 70200, Note_on_c, 0, 77, 70
1, 70200, Note_on_c, 0, 74, 70
1, 70240, Note_on_c, 0, 74, 0
1, 70240, Note_on_c, 0, 77, 0
1, 70320, Tempo, 400000
1, 70320, Note_on_c, 0, 76, 70
1, 70320, Note_on_c, 0, 79, 70
1, 70320, Note_on_c, 1, 48, 56
1, 70360, Note_on_c, 0, 79, 0
1, 70360, Note_on_c, 0, 76, 0
1, 70360, Note_on_c, 1, 48, 0
1, 70440, Note_on_c, 0, 76, 70
1, 70440, Note_on_c, 0, 79, 70
1, 70440, Note_on_c, 1, 60, 56
1, 70480, Note_on_c, 0, 79, 0
1, 70480, Note_on_c, 0, 76, 0
1, 70480, Note_on_c, 1, 60, 0
1, 70560, Note_on_c, 0, 81, 70
1, 70560, Note_on_c, 1, 52, 56
1, 70600, Note_on_c, 1, 52, 0
1, 70620, Note_on_c, 0, 81, 0
1, 70620, Note_on_c, 0, 79, 70
1, 70680, Note_on_c, 0, 79, 0
1, 70680, Note_on_c, 0, 77, 70
1, 70680, Note_on_c, 1, 64, 56
1, 70720, Note_on_c, 1, 64, 0
1, 70740, Note_on_c, 0, 77, 0
1, 70740, Note_on_c, 0, 76, 70
1, 70797, Note_on_c, 0, 76, 0
1, 70800, Tempo, 400000
1, 70800, Note_on_c, 0, 71, 92
1, 70800, Note_on_c, 0, 74, 92
1, 70800, Note_on_c, 1, 55, 59
1, 71000, Note_on_c, 0, 74, 0
1, 71000, Note_on_c, 0, 71, 0
1, 71000, Note_on_c, 1, 55, 0
1, 71040, Note_on_c, 0, 69, 70
1, 71040, Note_on_c, 0, 72, 70
1, 71080, Note_on_c, 0, 72, 0
1, 71080, Note_on_c, 0, 69, 0
1, 71160, Note_on_c, 0, 74, 70
1, 71160, Note_on_c, 0, 71, 70
1, 71200, Note_on_c, 0, 71, 0
1, 71200, Note_on_c, 0, 74, 0
1, 71280, Tempo, 400000
1, 71280, Note_on_c, 0, 72, 70
1, 71280, Note_on_c, 0, 76, 70
1, 71280, Note_on_c, 1, 45, 56
1, 71320, Note_on_c, 0, 76, 0
1, 71320, Note_on_c, 0, 72, 0
1, 71320, Note_on_c, 1, 45, 0
1, 71400, Note_on_c, 0, 72, 70
1, 71400, Note_on_c, 0, 76, 70
1, 71400, Note_on_c, 1, 57, 56
1, 71440, Note_on_c, 0, 76, 0
1, 71440, Note_on_c, 0, 72, 0
1, 71440, Note_on_c, 1, 57, 0
1, 71520, Note_on_c, 0, 77, 70
1, 71520, Note_on_c, 1, 48, 56
1, 71560, Note_on_c, 1, 48, 0
1, 71580, Note_on_c, 0, 77, 0
1, 71580, Note_on_c, 0, 76, 70
1, 71640, Note_on_c, 0, 76, 0
1, 71640, Note_on_c, 0, 74, 70
1, 71640, Note_on_c, 1, 60, 56
1, 71680, Note_on_c, 1, 60, 0
1, 71700, Note_on_c, 0, 74, 0
1, 71700, Note_on_c, 0, 72, 70
1, 71757, Note_on_c, 0, 72, 0
1, 71760, Tempo, 400000
1, 71760, Note_on_c, 0, 68, 72
1, 71760, Note_on_c, 0, 71, 70
1, 71760, Note_on_c, 1, 52, 59
1, 71880, Note_on_c, 0, 68, 0
1, 71880, Note_on_c, 0, 64, 70
1, 71960, Note_on_c, 0, 71, 0
1, 71960, Note_on_c, 1, 52, 0
1, 71997, Note_on_c, 0, 64, 0
1, 72000, Note_on_c, 0, 69, 70
1, 72000, Note_on_c, 0, 72, 70
1, 72040, Note_on_c, 0, 72, 0
1, 72040, Note_on_c, 0, 69, 0
1, 72120, Note_on_c, 0, 74, 70
1, 72120, Note_on_c, 0, 71, 70
1, 72160, Note_on_c, 0, 71, 0
1, 72160, Note_on_c, 0, 74, 0
1, 72240, Tempo, 400000
1, 72240, Note_on_c, 0, 72, 70
1, 72240, Note_on_c, 0, 76, 70
1, 72240, Note_on_c, 1, 45, 56
1, 72280, Note_on_c, 0, 76, 0
1, 72280, Note_on_c, 0, 72, 0
1, 72280, Note_on_c, 1, 45, 0
1, 72360, Note_on_c, 0, 72, 70
1, 72360, Note_on_c, 0, 76, 70
1, 72360, Note_on_c, 1, 57, 56
1, 72400, Note_on_c, 0, 76, 0
1, 72400, Note_on_c, 0, 72, 0
1, 72400, Note_on_c, 1, 57, 0
1, 72480, Note_on_c, 0, 77, 70
1, 72480, Note_on_c, 1, 48, 56
1, 72520, Note_on_c, 1, 48, 0
1, 72540, Note_on_c, 0, 77, 0
1, 72540, Note_on_c, 0, 76, 70
1, 72600, Note_on_c, 0, 76, 0
1, 72600, Note_on_c, 0, 74, 70
1, 72600, Note_on_c, 1, 60, 56
1, 72640, Note_on_c, 1, 60, 0
1, 72660, Note_on_c, 0, 74, 0
1, 72660, Note_on_c, 0, 72, 70
1, 72717, Note_on_c, 0, 72, 0
1, 72720, Tempo, 400000
1, 72720, Note_on_c, 0, 68, 92
1, 72720, Note_on_c, 0, 71, 92
1, 72720, Note_on_c, 1, 52, 59
1, 72920, Note_on_c, 0, 71, 0
1, 72920, Note_on_c, 0, 68, 0
1, 72920, Note_on_c, 1, 52, 0
1, 72960, Note_on_c, 0, 71, 68
1, 73020, Note_on_c, 0, 71, 0
1, 73020, Note_on_c, 0, 69, 68
1, 73080, Note_on_c, 0, 69, 0
1, 73080, Note_on_c, 0, 68, 68
1, 73140, Note_on_c, 0, 68, 0
1, 73140, Note_on_c, 0, 69, 68
1, 73200, Tempo, 400000
1, 73200, Note_on_c, 0, 69, 0
1, 73200, Note_on_c, 0, 72, 68
1, 73200, Note_on_c, 1, 57, 54
1, 73317, Note_on_c, 0, 72, 0
1, 73320, Note_on_c, 1, 57, 0
1, 73320, Note_on_c, 1, 64, 54
1, 73320, Note_on_c, 1, 60, 54
1, 73360, Note_on_c, 1, 60, 0
1, 73360, Note_on_c, 1, 64, 0
1, 73440, Note_on_c, 0, 74, 68
1, 73440, Note_on_c, 1, 60, 54
1, 73440, Note_on_c, 1, 64, 54
1, 73480, Note_on_c, 1, 64, 0
1, 73480, Note_on_c, 1, 60, 0
1, 73500, Note_on_c, 0, 74, 0
1, 73500, Note_on_c, 0, 72, 68
1, 73560, Note_on_c, 0, 72, 0
1, 73560, Note_on_c, 0, 71, 68
1, 73560, Note_on_c, 1, 60, 54
1, 73560, Note_on_c, 1, 64, 54
1, 73600, Note_on_c, 1, 64, 0
1, 73600, Note_on_c, 1, 60, 0
1, 73620, Note_on_c, 0, 71, 0
1, 73620, Note_on_c, 0, 72, 68
1, 73680, Tempo, 400000
1, 73680, Note_on_c, 0, 72, 0
1, 73680, Note_on_c, 0, 76, 68
1, 73680, Note_on_c, 1, 57, 54
1, 73797, Note_on_c, 0, 76, 0
1, 73800, Note_on_c, 1, 57, 0
1, 73800, Note_on_c, 1, 60, 54
1, 73800, Note_on_c, 1, 64, 54
1, 73840, Note_on_c, 1, 64, 0
1, 73840, Note_on_c, 1, 60, 0
1, 73920, Note_on_c, 0, 77, 68
1, 73920, Note_on_c, 1, 60, 54
1, 73920, Note_on_c, 1, 64, 54
1, 73960, Note_on_c, 1, 64, 0
1, 73960, Note_on_c, 1, 60, 0
1, 73980, Note_on_c, 0, 77, 0
1, 73980, Note_on_c, 0, 76, 68
1, 74040, Note_on_c, 0, 76, 0
1, 74040, Note_on_c, 0, 75, 68
1, 74040, Note_on_c, 1, 60, 54
1, 74040, Note_on_c, 1, 64, 54
1, 74080, Note_on_c, 1, 64, 0
1, 74080, Note_on_c, 1, 60, 0
1, 74100, Note_on_c, 0, 75, 0
1, 74100, Note_on_c, 0, 76, 68
1, 74160, Tempo, 400000
1, 74160, Note_on_c, 0, 76, 0
1, 74160, Note_on_c, 0, 83, 68
1, 74160, Note_on_c, 1, 57, 54
1, 74200, Note_on_c, 1, 57, 0
1, 74220, Note_on_c, 0, 83, 0
1, 74220, Note_on_c, 0, 81, 68
1, 74280, Note_on_c, 0, 81, 0
1, 74280, Note_on_c, 0, 80, 68
1, 74280, Note_on_c, 1, 64, 54
1, 74280, Note_on_c, 1, 60, 54
1, 74320, Note_on_c, 1, 60, 0
1, 74320, Note_on_c, 1, 64, 0
1, 74340, Note_on_c, 0, 80, 0
1, 74340, Note_on_c, 0, 81, 68
1, 74400, Note_on_c, 0, 81, 0
1, 74400, Note_on_c, 0, 83, 68
1, 74400, Note_on_c, 1, 57, 54
1, 74440, Note_on_c, 1, 57, 0
1, 74460, Note_on_c, 0, 83, 0
1, 74460, Note_on_c, 0, 81, 68
1, 74520, Note_on_c, 0, 81, 0
1, 74520, Note_on_c, 0, 80, 68
1, 74520, Note_on_c, 1, 60, 54
1, 74520, Note_on_c, 1, 64, 54
1, 74560, Note_on_c, 1, 64, 0
1, 74560, Note_on_c, 1, 60, 0
1, 74580, Note_on_c, 0, 80, 0
1, 74580, Note_on_c, 0, 81, 68
1, 74637, Note_on_c, 0, 81, 0
1, 74640, Tempo, 400000
1, 74640, Note_on_c, 0, 84, 73
1, 74640, Note_on_c, 1, 53, 54
1, 74725, Note_on_c, 1, 53, 0
1, 74760, Note_on_c, 1, 57, 54
1, 74760, Note_on_c, 1, 63, 54
1, 74800, Note_on_c, 1, 63, 0
1, 74800, Note_on_c, 1, 57, 0
1, 74840, Note_on_c, 0, 84, 0
1, 74880, Note_on_c, 0, 81, 68
1, 74880, Note_on_c, 1, 57, 54
1, 74880, Note_on_c, 1, 63, 54
1, 74920, Note_on_c, 0, 81, 0
1, 74920, Note_on_c, 1, 63, 0
1, 74920, Note_on_c, 1, 57, 0
1, 75000, Note_on_c, 0, 83, 68
1, 75000, Note_on_c, 1, 57, 54
1, 75000, Note_on_c, 1, 63, 54
1, 75040, Note_on_c, 0, 83, 0
1, 75040, Note_on_c, 1, 63, 0
1, 75040, Note_on_c, 1, 57, 0
1, 75120, Tempo, 400000
1, 75120, Note_on_c, 0, 84, 68
1, 75120, Note_on_c, 1, 52, 54
1, 75160, Note_on_c, 0, 84, 0
1, 75160, Note_on_c, 1, 52, 0
1, 75240, Note_on_c, 0, 83, 68
1, 75240, Note_on_c, 1, 57, 54
1, 75240, Note_on_c, 1, 64, 54
1, 75280, Note_on_c, 0, 83, 0
1, 75280, Note_on_c, 1, 64, 0
1, 75280, Note_on_c, 1, 57, 0
1, 75360, Note_on_c, 0, 81, 68
1, 75360, Note_on_c, 1, 50, 54
1, 75400, Note_on_c, 0, 81, 0
1, 75400, Note_on_c, 1, 50, 0
1, 75480, Note_on_c, 0, 80, 68
1, 75480, Note_on_c, 1, 53, 54
1, 75480, Note_on_c, 1, 59, 54
1, 75520, Note_on_c, 0, 80, 0
1, 75520, Note_on_c, 1, 59, 0
1, 75520, Note_on_c, 1, 53, 0
1, 75600, Tempo, 400000
1, 75600, Note_on_c, 0, 81, 68
1, 75600, Note_on_c, 1, 48, 54
1, 75640, Note_on_c, 0, 81, 0
1, 75640, Note_on_c, 1, 48, 0
1, 75720, Note_on_c, 0, 76, 68
1, 75720, Note_on_c, 1, 52, 54
1, 75720, Note_on_c, 1, 57, 54
1, 75760, Note_on_c, 0, 76, 0
1, 75760, Note_on_c, 1, 57, 0
1, 75760, Note_on_c, 1, 52, 0
1, 75840, Note_on_c, 0, 77, 68
1, 75840, Note_on_c, 1, 50, 54
1, 75880, Note_on_c, 0, 77, 0
1, 75880, Note_on_c, 1, 50, 0
1, 75960, Note_on_c, 0, 74, 68
1, 75960, Note_on_c, 1, 53, 54
1, 75960, Note_on_c, 1, 59, 54
1, 76000, Note_on_c, 0, 74, 0
1, 76000, Note_on_c, 1, 59, 0
1, 76000, Note_on_c, 1, 53, 0
1, 76080, Tempo, 400000
1, 76080, Note_on_c, 0, 72, 68
1, 76080, Note_on_c, 1, 52, 54
1, 76080, Note_on_c, 1, 57, 54
1, 76120, Note_on_c, 1, 57, 0
1, 76120, Note_on_c, 1, 52, 0
1, 76200, Note_on_c, 1, 52, 54
1, 76200, Note_on_c, 1, 57, 54
1, 76240, Note_on_c, 1, 57, 0
1, 76240, Note_on_c, 1, 52, 0
1, 76320, Note_on_c, 0, 72, 0
1, 76320, Note_on_c, 0, 71, 68
1, 76320, Note_on_c, 1, 52, 54
1, 76320, Note_on_c, 1, 56, 54
1, 76360, Note_on_c, 1, 56, 0
1, 76360, Note_on_c, 1, 52, 0
1, 76380, Note_on_c, 0, 71, 0
1, 76380, Note_on_c, 0, 72, 68
1, 76440, Note_on_c, 0, 72, 0
1, 76440, Note_on_c, 0, 71, 68
1, 76440, Note_on_c, 1, 52, 54
1, 76440, Note_on_c, 1, 56, 54
1, 76460, Note_on_c, 0, 71, 0
1, 76460, Note_on_c, 0, 72, 68
1, 76480, Note_on_c, 0, 72, 0
1, 76480, Note_on_c, 0, 71, 68
1, 76480, Note_on_c, 1, 56, 0
1, 76480, Note_on_c, 1, 52, 0
1, 76500, Note_on_c, 0, 71, 0
1, 76500, Note_on_c, 0, 69, 68
1, 76530, Note_on_c, 0, 69, 0
1, 76530, Note_on_c, 0, 71, 68
1, 76560, Tempo, 400000
1, 76560, Note_on_c, 0, 71, 0
1, 76560, Note_on_c, 0, 69, 68
1, 76560, Note_on_c, 1, 45, 54
1, 76560, Note_on_c, 1, 57, 54
1, 76760, Note_on_c, 1, 57, 0
1, 76760, Note_on_c, 1, 45, 0
1, 76800, Note_on_c, 0, 69, 0
1, 76800, Note_on_c, 0, 72, 70
1, 76800, Note_on_c, 0, 76, 70
1, 76840, Note_on_c, 0, 76, 0
1, 76840, Note_on_c, 0, 72, 0
1, 76920, Note_on_c, 0, 77, 70
1, 76920, Note_on_c, 0, 74, 70
1, 76960, Note_on_c, 0, 74, 0
1, 76960, Note_on_c, 0, 77, 0
1, 77040, Tempo, 400000
1, 77040, Note_on_c, 0, 76, 70
1, 77040, Note_on_c, 0, 79, 70
1, 77040, Note_on_c, 1, 48, 56
1, 77080, Note_on_c, 0, 79, 0
1, 77080, Note_on_c, 0, 76, 0
1, 77080, Note_on_c, 1, 48, 0
1, 77160, Note_on_c, 0, 76, 70
1, 77160, Note_on_c, 0, 79, 70
1, 77160, Note_on_c, 1, 60, 56
1, 77200, Note_on_c, 0, 79, 0
1, 77200, Note_on_c, 0, 76, 0
1, 77200, Note_on_c, 1, 60, 0
1, 77280, Note_on_c, 0, 81, 70
1, 77280, Note_on_c, 1, 52, 56
1, 77320, Note_on_c, 1, 52, 0
1, 77340, Note_on_c, 0, 81, 0
1, 77340, Note_on_c, 0, 79, 70
1, 77400, Note_on_c, 0, 79, 0
1, 77400, Note_on_c, 0, 77, 70
1, 77400, Note_on_c, 1, 64, 56
1, 77440, Note_on_c, 1, 64, 0
1, 77460, Note_on_c, 0, 77, 0
1, 77460, Note_on_c, 0, 76, 70
1, 77517, Note_on_c, 0, 76, 0
1, 77520, Tempo, 400000
1, 77520, Note_on_c, 0, 71, 92
1, 77520, Note_on_c, 0, 74, 90
1, 77520, Note_on_c, 1, 55, 59
1, 77640, Note_on_c, 0, 71, 0
1, 77640, Note_on_c, 0, 67, 70
1, 77720, Note_on_c, 0, 74, 0
1, 77720, Note_on_c, 1, 55, 0
1, 77757, Note_on_c, 0, 67, 0
1, 77760, Note_on_c, 0, 72, 70
1, 77760, Note_on_c, 0, 76, 70
1, 77800, Note_on_c, 0, 76, 0
1, 77800, Note_on_c, 0, 72, 0
1, 77880, Note_on_c, 0, 77, 70
1, 77880, Note_on_c, 0, 74, 70
1, 77920, Note_on_c, 0, 74, 0
1, 77920, Note_on_c, 0, 77, 0
1, 78000, Tempo, 400000
1, 78000, Note_on_c, 0, 76, 70
1, 78000, Note_on_c, 0, 79, 70
1, 78000, Note_on_c, 1, 48, 56
1, 78040, Note_on_c, 0, 79, 0
1, 78040, Note_on_c, 0, 76, 0
1, 78040, Note_on_c, 1, 48, 0
1, 78120, Note_on_c, 0, 76, 70
1, 78120, Note_on_c, 0, 79, 70
1, 78120, Note_on_c, 1, 60, 56
1, 78160, Note_on_c, 0, 79, 0
1, 78160, Note_on_c, 0, 76, 0
1, 78160, Note_on_c, 1, 60, 0
1, 78240, Note_on_c, 0, 81, 70
1, 78240, Note_on_c, 1, 52, 56
1, 78280, Note_on_c, 1, 52, 0
1, 78300, Note_on_c, 0, 81, 0
1, 78300, Note_on_c, 0, 79, 70
1, 78360, Note_on_c, 0, 79, 0
1, 78360, Note_on_c, 0, 77, 70
1, 78360, Note_on_c, 1, 64, 56
1, 78400, Note_on_c, 1, 64, 0
1, 78420, Note_on_c, 0, 77, 0
1, 78420, Note_on_c, 0, 76, 70
1, 78477, Note_on_c, 0, 76, 0
1, 78480, Tempo, 400000
1, 78480, Note_on_c, 0, 71, 92
1, 78480, Note_on_c, 0, 74, 92
1, 78480, Note_on_c, 1, 55, 59
1, 78680, Note_on_c, 0, 74, 0
1, 78680, Note_on_c, 0, 71, 0
1, 78680, Note_on_c, 1, 55, 0
1, 78720, Note_on_c, 0, 69, 70
1, 78720, Note_on_c, 0, 72, 70
1, 78760, Note_on_c, 0, 72, 0
1, 78760, Note_on_c, 0, 69, 0
1, 78840, Note_on_c, 0, 74, 70
1, 78840, Note_on_c, 0, 71, 70
1, 78880, Note_on_c, 0, 71, 0
1, 78880, Note_on_c, 0, 74, 0
1, 78960, Tempo, 400000
1, 78960, Note_on_c, 0, 72, 70
1, 78960, Note_on_c, 0, 76, 70
1, 78960, Note_on_c, 1, 45, 56
1, 79000, Note_on_c, 0, 76, 0
1, 79000, Note_on_c, 0, 72, 0
1, 79000, Note_on_c, 1, 45, 0
1, 79080, Note_on_c, 0, 72, 70
1, 79080, Note_on_c, 0, 76, 70
1, 79080, Note_on_c, 1, 57, 56
1, 79120, Note_on_c, 0, 76, 0
1, 79120, Note_on_c, 0, 72, 0
1, 79120, Note_on_c, 1, 57, 0
1, 79200, Note_on_c, 0, 77, 70
1, 79200, Note_on_c, 1, 48, 56
1, 79240, Note_on_c, 1, 48, 0
1, 79260, Note_on_c, 0, 77, 0
1, 79260, Note_on_c, 0, 76, 70
1, 79320, Note_on_c, 0, 76, 0
1, 79320, Note_on_c, 0, 74, 70
1, 79320, Note_on_c, 1, 60, 56
1, 79360, Note_on_c, 1, 60, 0
1, 79380, Note_on_c, 0, 74, 0
1, 79380, Note_on_c, 0, 72, 70
1, 79437, Note_on_c, 0, 72, 0
1, 79440, Tempo, 400000
1, 79440, Note_on_c, 0, 68, 92
1, 79440, Note_on_c, 0, 71, 90
1, 79440, Note_on_c, 1, 52, 59
1, 79560, Note_on_c, 0, 68, 0
1, 79560, Note_on_c, 0, 64, 70
1, 79640, Note_on_c, 0, 71, 0
1, 79640, Note_on_c, 1, 52, 0
1, 79677, Note_on_c, 0, 64, 0
1, 79680, Note_on_c, 0, 69, 70
1, 79680, Note_on_c, 0, 72, 70
1, 79720, Note_on_c, 0, 72, 0
1, 79720, Note_on_c, 0, 69, 0
1, 79800, Note_on_c, 0, 74, 70
1, 79800, Note_on_c, 0, 71, 70
1, 79840, Note_on_c, 0, 71, 0
1, 79840, Note_on_c, 0, 74, 0
1, 79920, Tempo, 400000
1, 79920, Note_on_c, 0, 72, 70
1, 79920, Note_on_c, 0, 76, 70
1, 79920, Note_on_c, 1, 45, 56
1, 79960, Note_on_c, 0, 76, 0
1, 79960, Note_on_c, 0, 72, 0
1, 79960, Note_on_c, 1, 45, 0
1, 80040, Note_on_c, 0, 72, 70
1, 80040, Note_on_c, 0, 76, 70
1, 80040, Note_on_c, 1, 57, 56
1, 80080, Note_on_c, 0, 76, 0
1, 80080, Note_on_c, 0, 72, 0
1, 80080, Note_on_c, 1, 57, 0
1, 80160, Note_on_c, 0, 77, 70
1, 80160, Note_on_c, 1, 48, 56
1, 80200, Note_on_c, 1, 48, 0
1, 80220, Note_on_c, 0, 77, 0
1, 80220, Note_on_c, 0, 76, 70
1, 80280, Note_on_c, 0, 76, 0
1, 80280, Note_on_c, 0, 74, 70
1, 80280, Note_on_c, 1, 60, 56
1, 80320, Note_on_c, 1, 60, 0
1, 80340, Note_on_c, 0, 74, 0
1, 80340, Note_on_c, 0, 72, 70
1, 80397, Note_on_c, 0, 72, 0
1, 80400, Tempo, 400000
1, 80400, Note_on_c, 0, 68, 92
1, 80400, Note_on_c, 0, 71, 92
1, 80400, Note_on_c, 1, 52, 59
1, 80600, Note_on_c, 0, 71, 0
1, 80600, Note_on_c, 0, 68, 0
1, 80600, Note_on_c, 1, 52, 0
1, 80640, Note_on_c, 0, 71, 68
1, 80700, Note_on_c, 0, 71, 0
1, 80700, Note_on_c, 0, 69, 68
1, 80760, Note_on_c, 0, 69, 0
1, 80760, Note_on_c, 0, 68, 68
1, 80820, Note_on_c, 0, 68, 0
1, 80820, Note_on_c, 0, 69, 68
1, 80880, Tempo, 400000
1, 80880, Note_on_c, 0, 69, 0
1, 80880, Note_on_c, 0, 72, 68
1, 80880, Note_on_c, 1, 57, 54
1, 80997, Note_on_c, 0, 72, 0
1, 81000, Note_on_c, 1, 57, 0
1, 81000, Note_on_c, 1, 64, 54
1, 81000, Note_on_c, 1, 60, 54
1, 81040, Note_on_c, 1, 60, 0
1, 81040, Note_on_c, 1, 64, 0
1, 81120, Note_on_c, 0, 74, 68
1, 81120, Note_on_c, 1, 60, 54
1, 81120, Note_on_c, 1, 64, 54
1, 81160, Note_on_c, 1, 64, 0
1, 81160, Note_on_c, 1, 60, 0
1, 81180, Note_on_c, 0, 74, 0
1, 81180, Note_on_c, 0, 72, 68
1, 81240, Note_on_c, 0, 72, 0
1, 81240, Note_on_c, 0, 71, 68
1, 81240, Note_on_c, 1, 60, 54
1, 81240, Note_on_c, 1, 64, 54
1, 81280, Note_on_c, 1, 64, 0
1, 81280, Note_on_c, 1, 60, 0
1, 81300, Note_on_c, 0, 71, 0
1, 81300, Note_on_c, 0, 72, 68
1, 81360, Tempo, 400000
1, 81360, Note_on_c, 0, 72, 0
1, 81360, Note_on_c, 0, 76, 68
1, 81360, Note_on_c, 1, 57, 54
1, 81477, Note_on_c, 0, 76, 0
1, 81480, Note_on_c, 1, 57, 0
1, 81480, Note_on_c, 1, 60, 54
1, 81480, Note_on_c, 1, 64, 54
1, 81520, Note_on_c, 1, 64, 0
1, 81520, Note_on_c, 1, 60, 0
1, 81600, Tempo, 400000
1, 81600, Note_on_c, 0, 77, 68
1, 81600, Note_on_c, 1, 60, 54
1, 81600, Note_on_c, 1, 64, 54
1, 81640, Note_on_c, 1, 64, 0
1, 81640, Note_on_c, 1, 60, 0
1, 81660, Note_on_c, 0, 77, 0
1, 81660, Note_on_c, 0, 76, 68
1, 81720, Note_on_c, 0, 76, 0
1, 81720, Note_on_c, 0, 75, 68
1, 81720, Note_on_c, 1, 64, 54
1, 81720, Note_on_c, 1, 60, 54
1, 81760, Note_on_c, 1, 60, 0
1, 81760, Note_on_c, 1, 64, 0
1, 81780, Note_on_c, 0, 75, 0
1, 81780, Note_on_c, 0, 76, 68
1, 81840, Note_on_c, 0, 76, 0
1, 81840, Note_on_c, 0, 83, 68
1, 81840, Note_on_c, 1, 57, 54
1, 81880, Note_on_c, 1, 57, 0
1, 81900, Note_on_c, 0, 83, 0
1, 81900, Note_on_c, 0, 81, 78
1, 81960, Note_on_c, 0, 81, 0
1, 81960, Note_on_c, 0, 80, 89
1, 81960, Note_on_c, 1, 64, 54
1, 81960, Note_on_c, 1, 60, 54
1, 82000, Note_on_c, 1, 60, 0
1, 82000, Note_on_c, 1, 64, 0
1, 82020, Note_on_c, 0, 80, 0
1, 82020, Note_on_c, 0, 81, 100
1, 82080, Note_on_c, 0, 81, 0
1, 82080, Note_on_c, 0, 83, 107
1, 82080, Note_on_c, 1, 57, 54
1, 82120, Note_on_c, 1, 57, 0
1, 82140, Note_on_c, 0, 83, 0
1, 82140, Note_on_c, 0, 81, 100
1, 82200, Note_on_c, 0, 81, 0
1, 82200, Note_on_c, 0, 80, 88
1, 82200, Note_on_c, 1, 60, 54
1, 82200, Note_on_c, 1, 64, 54
1, 82240, Note_on_c, 1, 64, 0
1, 82240, Note_on_c, 1, 60, 0
1, 82260, Note_on_c, 0, 80, 0
1, 82260, Note_on_c, 0, 81, 80
1, 82317, Note_on_c, 0, 81, 0
1, 82320, Tempo, 400000
1, 82320, Note_on_c, 0, 84, 110
1, 82320, Note_on_c, 1, 53, 54
1, 82405, Note_on_c, 1, 53, 0
1, 82440, Note_on_c, 1, 57, 54
1, 82440, Note_on_c, 1, 63, 54
1, 82480, Note_on_c, 1, 63, 0
1, 82480, Note_on_c, 1, 57, 0
1, 82520, Note_on_c, 0, 84, 0
1, 82560, Note_on_c, 0, 81, 68
1, 82560, Note_on_c, 1, 57, 54
1, 82560, Note_on_c, 1, 63, 54
1, 82600, Note_on_c, 0, 81, 0
1, 82600, Note_on_c, 1, 63, 0
1, 82600, Note_on_c, 1, 57, 0
1, 82680, Note_on_c, 0, 83, 68
1, 82680, Note_on_c, 1, 57, 54
1, 82680, Note_on_c, 1, 63, 54
1, 82720, Note_on_c, 0, 83, 0
1, 82720, Note_on_c, 1, 63, 0
1, 82720, Note_on_c, 1, 57, 0
1, 82800, Tempo, 400000
1, 82800, Note_on_c, 0, 84, 68
1, 82800, Note_on_c, 1, 52, 54
1, 82840, Note_on_c, 0, 84, 0
1, 82840, Note_on_c, 1, 52, 0
1, 82920, Note_on_c, 0, 83, 68
1, 82920, Note_on_c, 1, 57, 54
1, 82920, Note_on_c, 1, 64, 54
1, 82960, Note_on_c, 0, 83, 0
1, 82960, Note_on_c, 1, 64, 0
1, 82960, Note_on_c, 1, 57, 0
1, 83040, Note_on_c, 0, 81, 68
1, 83040, Note_on_c, 1, 50, 54
1, 83080, Note_on_c, 0, 81, 0
1, 83080, Note_on_c, 1, 50, 0
1, 83160, Note_on_c, 0, 80, 68
1, 83160, Note_on_c, 1, 53, 54
1, 83160, Note_on_c, 1, 59, 54
1, 83200, Note_on_c, 0, 80, 0
1, 83200, Note_on_c, 1, 59, 0
1, 83200, Note_on_c, 1, 53, 0
1, 83280, Tempo, 400000
1, 83280, Note_on_c, 0, 81, 68
1, 83280, Note_on_c, 1, 48, 54
1, 83320, Note_on_c, 0, 81, 0
1, 83320, Note_on_c, 1, 48, 0
1, 83400, Note_on_c, 0, 76, 68
1, 83400, Note_on_c, 1, 52, 54
1, 83400, Note_on_c, 1, 57, 54
1, 83440, Note_on_c, 0, 76, 0
1, 83440, Note_on_c, 1, 57, 0
1, 83440, Note_on_c, 1, 52, 0
1, 83520, Note_on_c, 0, 77, 68
1, 83520, Note_on_c, 1, 50, 54
1, 83560, Note_on_c, 0, 77, 0
1, 83560, Note_on_c, 1, 50, 0
1, 83640, Note_on_c, 0, 74, 68
1, 83640, Note_on_c, 1, 53, 54
1, 83640, Note_on_c, 1, 59, 54
1, 83680, Note_on_c, 0, 74, 0
1, 83680, Note_on_c, 1, 59, 0
1, 83680, Note_on_c, 1, 53, 0
1, 83760, Tempo, 400000
1, 83760, Note_on_c, 0, 72, 68
1, 83760, Note_on_c, 1, 52, 54
1, 83760, Note_on_c, 1, 57, 54
1, 83800, Note_on_c, 1, 57, 0
1, 83800, Note_on_c, 1, 52, 0
1, 83880, Note_on_c, 1, 52, 54
1, 83880, Note_on_c, 1, 57, 54
1, 83920, Note_on_c, 1, 57, 0
1, 83920, Note_on_c, 1, 52, 0
1, 84000, Note_on_c, 0, 72, 0
1, 84000, Note_on_c, 0, 71, 68
1, 84000, Note_on_c, 1, 52, 54
1, 84000, Note_on_c, 1, 56, 54
1, 84040, Note_on_c, 1, 56, 0
1, 84040, Note_on_c, 1, 52, 0
1, 84060, Note_on_c, 0, 71, 0
1, 84060, Note_on_c, 0, 72, 68
1, 84120, Note_on_c, 0, 72, 0
1, 84120, Note_on_c, 0, 71, 68
1, 84120, Note_on_c, 1, 52, 54
1, 84120, Note_on_c, 1, 56, 54
1, 84140, Note_on_c, 0, 71, 0
1, 84140, Note_on_c, 0, 72, 68
1, 84160, Note_on_c, 0, 72, 0
1, 84160, Note_on_c, 0, 71, 68
1, 84160, Note_on_c, 1, 56, 0
1, 84160, Note_on_c, 1, 52, 0
1, 84180, Note_on_c, 0, 71, 0
1, 84180, Note_on_c, 0, 69, 68
1, 84210, Note_on_c, 0, 69, 0
1, 84210, Note_on_c, 0, 71, 68
1, 84240, Tempo, 400000
1, 84240, Note_on_c, 0, 71, 0
1, 84240, Note_on_c, 0, 69, 68
1, 84240, Note_on_c, 1, 45, 54
1, 84240, Note_on_c, 1, 57, 54
1, 84440, Note_on_c, 1, 57, 0
1, 84440, Note_on_c, 1, 45, 0
1, 84480, Note_on_c, 0, 69, 0
1, 84480, Note_on_c, 0, 69, 106
1, 84537, Note_on_c, 0, 69, 0
1, 84540, Note_on_c, 0, 81, 106
1, 84597, Note_on_c, 0, 81, 0
1, 84600, Note_on_c, 0, 71, 106
1, 84657, Note_on_c, 0, 71, 0
1, 84660, Note_on_c, 0, 83, 106
1, 84717, Note_on_c, 0, 83, 0
1, 84720, Tempo, 400000
1, 84720, Note_on_c, 0, 73, 106
1, 84720, Note_on_c, 1, 45, 60
1, 84750, Note_on_c, 1, 45, 0
1, 84750, Note_on_c, 1, 49, 60
1, 84777, Note_on_c, 0, 73, 0
1, 84780, Note_on_c, 0, 85, 106
1, 84780, Note_on_c, 1, 49, 0
1, 84780, Note_on_c, 1, 52, 60
1, 84810, Note_on_c, 1, 52, 0
1, 84810, Note_on_c, 1, 57, 60
1, 84830, Note_on_c, 1, 57, 0
1, 84837, Note_on_c, 0, 85, 0
1, 84840, Note_on_c, 1, 57, 60
1, 84880, Note_on_c, 1, 57, 0
1, 84960, Note_on_c, 0, 69, 106
1, 84960, Note_on_c, 1, 57, 60
1, 85000, Note_on_c, 1, 57, 0
1, 85017, Note_on_c, 0, 69, 0
1, 85020, Note_on_c, 0, 81, 106
1, 85077, Note_on_c, 0, 81, 0
1, 85080, Note_on_c, 0, 71, 106
1, 85080, Note_on_c, 1, 57, 60
1, 85120, Note_on_c, 1, 57, 0
1, 85137, Note_on_c, 0, 71, 0
1, 85140, Note_on_c, 0, 83, 106
1, 85197, Note_on_c, 0, 83, 0
1, 85200, Tempo, 400000
1, 85200, Note_on_c, 0, 73, 106
1, 85200, Note_on_c, 1, 45, 60
1, 85230, Note_on_c, 1, 45, 0
1, 85230, Note_on_c, 1, 49, 60
1, 85257, Note_on_c, 0, 73, 0
1, 85260, Note_on_c, 0, 85, 106
1, 85260, Note_on_c, 1, 49, 0
1, 85260, Note_on_c, 1, 52, 60
1, 85290, Note_on_c, 1, 52, 0
1, 85290, Note_on_c, 1, 57, 60
1, 85310, Note_on_c, 1, 57, 0
1, 85317, Note_on_c, 0, 85, 0
1, 85320, Note_on_c, 0, 71, 106
1, 85320, Note_on_c, 1, 57, 60
1, 85360, Note_on_c, 1, 57, 0
1, 85377, Note_on_c, 0, 71, 0
1, 85380, Note_on_c, 0, 83, 106
1, 85437, Note_on_c, 0, 83, 0
1, 85440, Note_on_c, 0, 69, 106
1, 85440, Note_on_c, 1, 57, 60
1, 85480, Note_on_c, 1, 57, 0
1, 85497, Note_on_c, 0, 69, 0
1, 85500, Note_on_c, 0, 81, 106
1, 85557, Note_on_c, 0, 81, 0
1, 85560, Note_on_c, 0, 68, 106
1, 85560, Note_on_c, 1, 57, 60
1, 85600, Note_on_c, 1, 57, 0
1, 85617, Note_on_c, 0, 68, 0
1, 85620, Note_on_c, 0, 80, 106
1, 85677, Note_on_c, 0, 80, 0
1, 85680, Tempo, 400000
1, 85680, Note_on_c, 0, 66, 106
1, 85680, Note_on_c, 1, 38, 60
1, 85710, Note_on_c, 1, 38, 0
1, 85710, Note_on_c, 1, 42, 60
1, 85737, Note_on_c, 0, 66, 0
1, 85740, Note_on_c, 0, 78, 106
1, 85740, Note_on_c, 1, 42, 0
1, 85740, Note_on_c, 1, 45, 60
1, 85770, Note_on_c, 1, 45, 0
1, 85770, Note_on_c, 1, 50, 60
1, 85790, Note_on_c, 1, 50, 0
1, 85797, Note_on_c, 0, 78, 0
1, 85800, Note_on_c, 0, 68, 106
1, 85800, Note_on_c, 1, 50, 60
1, 85840, Note_on_c, 1, 50, 0
1, 85857, Note_on_c, 0, 68, 0
1, 85860, Note_on_c, 0, 80, 106
1, 85917, Note_on_c, 0, 80, 0
1, 85920, Note_on_c, 0, 69, 106
1, 85920, Note_on_c, 1, 39, 60
1, 85950, Note_on_c, 1, 39, 0
1, 85950, Note_on_c, 1, 42, 60
1, 85977, Note_on_c, 0, 69, 0
1, 85980, Note_on_c, 0, 81, 106
1, 85980, Note_on_c, 1, 42, 0
1, 85980, Note_on_c, 1, 45, 60
1, 86010, Note_on_c, 1, 45, 0
1, 86010, Note_on_c, 1, 51, 60
1, 86030, Note_on_c, 1, 51, 0
1, 86037, Note_on_c, 0, 81, 0
1, 86040, Note_on_c, 0, 71, 106
1, 86040, Note_on_c, 1, 51, 60
1, 86080, Note_on_c, 1, 51, 0
1, 86097, Note_on_c, 0, 71, 0
1, 86100, Note_on_c, 0, 83, 106
1, 86157, Note_on_c, 0, 83, 0
1, 86160, Tempo, 400000
1, 86160, Note_on_c, 0, 68, 106
1, 86160, Note_on_c, 1, 40, 60
1, 86190, Note_on_c, 1, 40, 0
1, 86190, Note_on_c, 1, 44, 60
1, 86217, Note_on_c, 0, 68, 0
1, 86220, Note_on_c, 0, 80, 106
1, 86220, Note_on_c, 1, 44, 0
1, 86220, Note_on_c, 1, 47, 60
1, 86250, Note_on_c, 1, 47, 0
1, 86250, Note_on_c, 1, 52, 60
1, 86270, Note_on_c, 1, 52, 0
1, 86277, Note_on_c, 0, 80, 0
1, 86280, Note_on_c, 0, 64, 106
1, 86280, Note_on_c, 1, 52, 60
1, 86320, Note_on_c, 1, 52, 0
1, 86337, Note_on_c, 0, 64, 0
1, 86340, Note_on_c, 0, 76, 106
1, 86397, Note_on_c, 0, 76, 0
1, 86400, Note_on_c, 0, 69, 106
1, 86400, Note_on_c, 1, 52, 60
1, 86440, Note_on_c, 1, 52, 0
1, 86457, Note_on_c, 0, 69, 0
1, 86460, Note_on_c, 0, 81, 106
1, 86517, Note_on_c, 0, 81, 0
1, 86520, Note_on_c, 0, 71, 106
1, 86520, Note_on_c, 1, 52, 60
1, 86560, Note_on_c, 1, 52, 0
1, 86577, Note_on_c, 0, 71, 0
1, 86580, Note_on_c, 0, 83, 106
1, 86637, Note_on_c, 0, 83, 0
1, 86640, Tempo, 400000
1, 86640, Note_on_c, 0, 73, 106
1, 86640, Note_on_c, 1, 45, 60
1, 86670, Note_on_c, 1, 45, 0
1, 86670, Note_on_c, 1, 49, 60
1, 86697, Note_on_c, 0, 73, 0
1, 86700, Note_on_c, 0, 85, 106
1, 86700, Note_on_c, 1, 49, 0
1, 86700, Note_on_c, 1, 52, 60
1, 86730, Note_on_c, 1, 52, 0
1, 86730, Note_on_c, 1, 57, 60
1, 86750, Note_on_c, 1, 57, 0
1, 86757, Note_on_c, 0, 85, 0
1, 86760, Note_on_c, 1, 57, 60
1, 86800, Note_on_c, 1, 57, 0
1, 86880, Note_on_c, 0, 69, 106
1, 86880, Note_on_c, 1, 57, 60
1, 86920, Note_on_c, 1, 57, 0
1, 86937, Note_on_c, 0, 69, 0
1, 86940, Note_on_c, 0, 81, 106
1, 86997, Note_on_c, 0, 81, 0
1, 87000, Note_on_c, 0, 71, 106
1, 87000, Note_on_c, 1, 57, 60
1, 87040, Note_on_c, 1, 57, 0
1, 87057, Note_on_c, 0, 71, 0
1, 87060, Note_on_c, 0, 83, 106
1, 87117, Note_on_c, 0, 83, 0
1, 87120, Tempo, 400000
1, 87120, Note_on_c, 0, 73, 106
1, 87120, Note_on_c, 1, 45, 60
1, 87150, Note_on_c, 1, 45, 0
1, 87150, Note_on_c, 1, 49, 60
1, 87177, Note_on_c, 0, 73, 0
1, 87180, Note_on_c, 0, 85, 106
1, 87180, Note_on_c, 1, 49, 0
1, 87180, Note_on_c, 1, 52, 60
1, 87210, Note_on_c, 1, 52, 0
1, 87210, Note_on_c, 1, 57, 60
1, 87230, Note_on_c, 1, 57, 0
1, 87237, Note_on_c, 0, 85, 0
1, 87240, Note_on_c, 0, 71, 106
1, 87240, Note_on_c, 1, 57, 60
1, 87280, Note_on_c, 1, 57, 0
1, 87297, Note_on_c, 0, 71, 0
1, 87300, Note_on_c, 0, 83, 106
1, 87357, Note_on_c, 0, 83, 0
1, 87360, Note_on_c, 0, 69, 106
1, 87360, Note_on_c, 1, 57, 60
1, 87400, Note_on_c, 1, 57, 0
1, 87417, Note_on_c, 0, 69, 0
1, 87420, Note_on_c, 0, 81, 106
1, 87477, Note_on_c, 0, 81, 0
1, 87480, Note_on_c, 0, 68, 106
1, 87480, Note_on_c, 1, 57, 60
1, 87520, Note_on_c, 1, 57, 0
1, 87537, Note_on_c, 0, 68, 0
1, 87540, Note_on_c, 0, 80, 106
1, 87597, Note_on_c, 0, 80, 0
1, 87600, Tempo, 400000
1, 87600, Note_on_c, 0, 66, 106
1, 87600, Note_on_c, 1, 38, 60
1, 87630, Note_on_c, 1, 38, 0
1, 87630, Note_on_c, 1, 42, 60
1, 87657, Note_on_c, 0, 66, 0
1, 87660, Note_on_c, 0, 78, 106
1, 87660, Note_on_c, 1, 42, 0
1, 87660, Note_on_c, 1, 45, 60
1, 87690, Note_on_c, 1, 45, 0
1, 87690, Note_on_c, 1, 50, 60
1, 87710, Note_on_c, 1, 50, 0
1, 87717, Note_on_c, 0, 78, 0
1, 87720, Note_on_c, 0, 71, 106
1, 87720, Note_on_c, 1, 50, 60
1, 87760, Note_on_c, 1, 50, 0
1, 87777, Note_on_c, 0, 71, 0
1, 87780, Note_on_c, 0, 83, 106
1, 87837, Note_on_c, 0, 83, 0
1, 87840, Note_on_c, 0, 68, 106
1, 87840, Note_on_c, 1, 40, 60
1, 87870, Note_on_c, 1, 40, 0
1, 87870, Note_on_c, 1, 44, 60
1, 87897, Note_on_c, 0, 68, 0
1, 87900, Note_on_c, 0, 80, 106
1, 87900, Note_on_c, 1, 44, 0
1, 87900, Note_on_c, 1, 47, 60
1, 87930, Note_on_c, 1, 47, 0
1, 87930, Note_on_c, 1, 52, 60
1, 87950, Note_on_c, 1, 52, 0
1, 87957, Note_on_c, 0, 80, 0
1, 87960, Note_on_c, 0, 64, 106
1, 87960, Note_on_c, 1, 52, 60
1, 88000, Note_on_c, 1, 52, 0
1, 88017, Note_on_c, 0, 64, 0
1, 88020, Note_on_c, 0, 76, 106
1, 88077, Note_on_c, 0, 76, 0
1, 88080, Tempo, 400000
1, 88080, Note_on_c, 0, 69, 106
1, 88080, Note_on_c, 0, 81, 106
1, 88080, Note_on_c, 1, 45, 60
1, 88280, Note_on_c, 0, 81, 0
1, 88280, Note_on_c, 0, 69, 0
1, 88280, Note_on_c, 1, 45, 0
1, 88320, Note_on_c, 0, 69, 106
1, 88377, Note_on_c, 0, 69, 0
1, 88380, Note_on_c, 0, 81, 106
1, 88437, Note_on_c, 0, 81, 0
1, 88440, Note_on_c, 0, 71, 106
1, 88497, Note_on_c, 0, 71, 0
1, 88500, Note_on_c, 0, 83, 106
1, 88557, Note_on_c, 0, 83, 0
1, 88560, Tempo, 400000
1, 88560, Note_on_c, 0, 73, 106
1, 88560, Note_on_c, 1, 45, 60
1, 88590, Note_on_c, 1, 45, 0
1, 88590, Note_on_c, 1, 49, 60
1, 88617, Note_on_c, 0, 73, 0
1, 88620, Note_on_c, 0, 85, 106
1, 88620, Note_on_c, 1, 49, 0
1, 88620, Note_on_c, 1, 52, 60
1, 88650, Note_on_c, 1, 52, 0
1, 88650, Note_on_c, 1, 57, 60
1, 88670, Note_on_c, 1, 57, 0
1, 88677, Note_on_c, 0, 85, 0
1, 88680, Note_on_c, 1, 57, 60
1, 88720, Note_on_c, 1, 57, 0
1, 88800, Note_on_c, 0, 69, 106
1, 88800, Note_on_c, 1, 57, 60
1, 88840, Note_on_c, 1, 57, 0
1, 88857, Note_on_c, 0, 69, 0
1, 88860, Note_on_c, 0, 81, 106
1, 88917, Note_on_c, 0, 81, 0
1, 88920, Note_on_c, 0, 71, 106
1, 88920, Note_on_c, 1, 57, 60
1, 88960, Note_on_c, 1, 57, 0
1, 88977, Note_on_c, 0, 71, 0
1, 88980, Note_on_c, 0, 83, 106
1, 89037, Note_on_c, 0, 83, 0
1, 89040, Tempo, 400000
1, 89040, Note_on_c, 0, 73, 106
1, 89040, Note_on_c, 1, 45, 60
1, 89070, Note_on_c, 1, 45, 0
1, 89070, Note_on_c, 1, 49, 60
1, 89097, Note_on_c, 0, 73, 0
1, 89100, Note_on_c, 0, 85, 106
1, 89100, Note_on_c, 1, 49, 0
1, 89100, Note_on_c, 1, 52, 60
1, 89130, Note_on_c, 1, 52, 0
1, 89130, Note_on_c, 1, 57, 60
1, 89150, Note_on_c, 1, 57, 0
1, 89157, Note_on_c, 0, 85, 0
1, 89160, Note_on_c, 0, 71, 106
1, 89160, Note_on_c, 1, 57, 60
1, 89200, Note_on_c, 1, 57, 0
1, 89217, Note_on_c, 0, 71, 0
1, 89220, Note_on_c, 0, 83, 106
1, 89277, Note_on_c, 0, 83, 0
1, 89280, Note_on_c, 0, 69, 106
1, 89280, Note_on_c, 1, 57, 60
1, 89320, Note_on_c, 1, 57, 0
1, 89337, Note_on_c, 0, 69, 0
1, 89340, Note_on_c, 0, 81, 106
1, 89397, Note_on_c, 0, 81, 0
1, 89400, Note_on_c, 0, 68, 106
1, 89400, Note_on_c, 1, 57, 60
1, 89440, Note_on_c, 1, 57, 0
1, 89457, Note_on_c, 0, 68, 0
1, 89460, Note_on_c, 0, 80, 106
1, 89517, Note_on_c, 0, 80, 0
1, 89520, Tempo, 400000
1, 89520, Note_on_c, 0, 66, 106
1, 89520, Note_on_c, 1, 38, 60
1, 89550, Note_on_c, 1, 38, 0
1, 89550, Note_on_c, 1, 42, 60
1, 89577, Note_on_c, 0, 66, 0
1, 89580, Note_on_c, 0, 78, 106
1, 89580, Note_on_c, 1, 42, 0
1, 89580, Note_on_c, 1, 45, 60
1, 89610, Note_on_c, 1, 45, 0
1, 89610, Note_on_c, 1, 50, 60
1, 89630, Note_on_c, 1, 50, 0
1, 89637, Note_on_c, 0, 78, 0
1, 89640, Note_on_c, 0, 68, 106
1, 89640, Note_on_c, 1, 50, 60
1, 89680, Note_on_c, 1, 50, 0
1, 89697, Note_on_c, 0, 68, 0
1, 89700, Note_on_c, 0, 80, 106
1, 89757, Note_on_c, 0, 80, 0
1, 89760, Note_on_c, 0, 69, 106
1, 89760, Note_on_c, 1, 39, 60
1, 89790, Note_on_c, 1, 39, 0
1, 89790, Note_on_c, 1, 42, 60
1, 89817, Note_on_c, 0, 69, 0
1, 89820, Note_on_c, 0, 81, 106
1, 89820, Note_on_c, 1, 42, 0
1, 89820, Note_on_c, 1, 45, 60
1, 89850, Note_on_c, 1, 45, 0
1, 89850, Note_on_c, 1, 51, 60
1, 89870, Note_on_c, 1, 51, 0
1, 89877, Note_on_c, 0, 81, 0
1, 89880, Note_on_c, 0, 71, 106
1, 89880, Note_on_c, 1, 51, 60
1, 89920, Note_on_c, 1, 51, 0
1, 89937, Note_on_c, 0, 71, 0
1, 89940, Note_on_c, 0, 83, 106
1, 89997, Note_on_c, 0, 83, 0
1, 90000, Tempo, 400000
1, 90000, Note_on_c, 0, 68, 106
1, 90000, Note_on_c, 1, 40, 60
1, 90030, Note_on_c, 1, 40, 0
1, 90030, Note_on_c, 1, 44, 60
1, 90057, Note_on_c, 0, 68, 0
1, 90060, Note_on_c, 0, 80, 106
1, 90060, Note_on_c, 1, 44, 0
1, 90060, Note_on_c, 1, 47, 60
1, 90090, Note_on_c, 1, 47, 0
1, 90090, Note_on_c, 1, 52, 60
1, 90110, Note_on_c, 1, 52, 0
1, 90117, Note_on_c, 0, 80, 0
1, 90120, Note_on_c, 0, 64, 106
1, 90120, Note_on_c, 1, 52, 60
1, 90160, Note_on_c, 1, 52, 0
1, 90177, Note_on_c, 0, 64, 0
1, 90180, Note_on_c, 0, 76, 106
1, 90237, Note_on_c, 0, 76, 0
1, 90240, Note_on_c, 0, 69, 106
1, 90240, Note_on_c, 1, 52, 60
1, 90280, Note_on_c, 1, 52, 0
1, 90297, Note_on_c, 0, 69, 0
1, 90300, Note_on_c, 0, 81, 106
1, 90357, Note_on_c, 0, 81, 0
1, 90360, Note_on_c, 0, 71, 106
1, 90360, Note_on_c, 1, 52, 60
1, 90400, Note_on_c, 1, 52, 0
1, 90417, Note_on_c, 0, 71, 0
1, 90420, Note_on_c, 0, 83, 106
1, 90477, Note_on_c, 0, 83, 0
1, 90480, Tempo, 400000
1, 90480, Note_on_c, 0, 73, 106
1, 90480, Note_on_c, 1, 45, 60
1, 90510, Note_on_c, 1, 45, 0
1, 90510, Note_on_c, 1, 49, 60
1, 90537, Note_on_c, 0, 73, 0
1, 90540, Note_on_c, 0, 85, 106
1, 90540, Note_on_c, 1, 49, 0
1, 90540, Note_on_c, 1, 52, 60
1, 90570, Note_on_c, 1, 52, 0
1, 90570, Note_on_c, 1, 57, 60
1, 90590, Note_on_c, 1, 57, 0
1, 90597, Note_on_c, 0, 85, 0
1, 90600, Note_on_c, 1, 57, 60
1, 90640, Note_on_c, 1, 57, 0
1, 90720, Note_on_c, 0, 69, 106
1, 90720, Note_on_c, 1, 57, 60
1, 90760, Note_on_c, 1, 57, 0
1, 90777, Note_on_c, 0, 69, 0
1, 90780, Note_on_c, 0, 81, 106
1, 90837, Note_on_c, 0, 81, 0
1, 90840, Note_on_c, 0, 71, 106
1, 90840, Note_on_c, 1, 57, 60
1, 90880, Note_on_c, 1, 57, 0
1, 90897, Note_on_c, 0, 71, 0
1, 90900, Note_on_c, 0, 83, 106
1, 90957, Note_on_c, 0, 83, 0
1, 90960, Tempo, 400000
1, 90960, Note_on_c, 0, 73, 106
1, 90960, Note_on_c, 1, 45, 60
1, 90990, Note_on_c, 1, 45, 0
1, 90990, Note_on_c, 1, 49, 60
1, 91017, Note_on_c, 0, 73, 0
1, 91020, Note_on_c, 0, 85, 106
1, 91020, Note_on_c, 1, 49, 0
1, 91020, Note_on_c, 1, 52, 60
1, 91050, Note_on_c, 1, 52, 0
1, 91050, Note_on_c, 1, 57, 60
1, 91070, Note_on_c, 1, 57, 0
1, 91077, Note_on_c, 0, 85, 0
1, 91080, Note_on_c, 0, 71, 106
1, 91080, Note_on_c, 1, 57, 60
1, 91120, Note_on_c, 1, 57, 0
1, 91137, Note_on_c, 0, 71, 0
1, 91140, Note_on_c, 0, 83, 106
1, 91197, Note_on_c, 0, 83, 0
1, 91200, Note_on_c, 0, 69, 106
1, 91200, Note_on_c, 1, 57, 60
1, 91240, Note_on_c, 1, 57, 0
1, 91257, Note_on_c, 0, 69, 0
1, 91260, Note_on_c, 0, 81, 106
1, 91317, Note_on_c, 0, 81, 0
1, 91320, Note_on_c, 0, 68, 106
1, 91320, Note_on_c, 1, 57, 60
1, 91360, Note_on_c, 1, 57, 0
1, 91377, Note_on_c, 0, 68, 0
1, 91380, Note_on_c, 0, 80, 106
1, 91437, Note_on_c, 0, 80, 0
1, 91440, Tempo, 400000
1, 91440, Note_on_c, 0, 66, 106
1, 91440, Note_on_c, 1, 38, 60
1, 91470, Note_on_c, 1, 38, 0
1, 91470, Note_on_c, 1, 42, 60
1, 91497, Note_on_c, 0, 66, 0
1, 91500, Note_on_c, 0, 78, 106
1, 91500, Note_on_c, 1, 42, 0
1, 91500, Note_on_c, 1, 45, 60
1, 91530, Note_on_c, 1, 45, 0
1, 91530, Note_on_c, 1, 50, 60
1, 91550, Note_on_c, 1, 50, 0
1, 91557, Note_on_c, 0, 78, 0
1, 91560, Note_on_c, 0, 71, 106
1, 91560, Note_on_c, 1, 50, 60
1, 91600, Note_on_c, 1, 50, 0
1, 91617, Note_on_c, 0, 71, 0
1, 91620, Note_on_c, 0, 83, 106
1, 91677, Note_on_c, 0, 83, 0
1, 91680, Note_on_c, 0, 68, 106
1, 91680, Note_on_c, 1, 40, 60
1, 91710, Note_on_c, 1, 40, 0
1, 91710, Note_on_c, 1, 44, 60
1, 91737, Note_on_c, 0, 68, 0
1, 91740, Note_on_c, 0, 80, 106
1, 91740, Note_on_c, 1, 44, 0
1, 91740, Note_on_c, 1, 47, 60
1, 91770, Note_on_c, 1, 47, 0
1, 91770, Note_on_c, 1, 52, 60
1, 91790, Note_on_c, 1, 52, 0
1, 91797, Note_on_c, 0, 80, 0
1, 91800, Note_on_c, 0, 64, 106
1, 91800, Note_on_c, 1, 52, 60
1, 91840, Note_on_c, 1, 52, 0
1, 91857, Note_on_c, 0, 64, 0
1, 91860, Note_on_c, 0, 76, 106
1, 91917, Note_on_c, 0, 76, 0
1, 91920, Tempo, 400000
1, 91920, Note_on_c, 0, 81, 106
1, 91920, Note_on_c, 0, 69, 106
1, 91920, Note_on_c, 1, 45, 60
1, 91950, Note_on_c, 1, 45, 0
1, 91950, Note_on_c, 1, 49, 60
1, 91980, Note_on_c, 1, 49, 0
1, 91980, Note_on_c, 1, 52, 60
1, 92010, Note_on_c, 1, 52, 0
1, 92010, Note_on_c, 1, 57, 60
1, 92030, Note_on_c, 1, 57, 0
1, 92040, Note_on_c, 1, 57, 60
1, 92080, Note_on_c, 1, 57, 0
1, 92120, Note_on_c, 0, 69, 0
1, 92120, Note_on_c, 0, 81, 0
1, 92160, Note_on_c, 0, 85, 106
1, 92160, Note_on_c, 0, 73, 106
1, 92160, Note_on_c, 1, 57, 60
1, 92200, Note_on_c, 1, 57, 0
1, 92280, Note_on_c, 1, 57, 58
1, 92337, Note_on_c, 0, 85, 0
1, 92340, Note_on_c, 0, 85, 106
1, 92360, Note_on_c, 0, 73, 0
1, 92376, Note_on_c, 1, 57, 0
1, 92397, Note_on_c, 0, 85, 0
1, 92400, Tempo, 400000
1, 92400, Note_on_c, 0, 73, 105
1, 92400, Note_on_c, 0, 81, 105
1, 92400, Note_on_c, 0, 85, 105
1, 92400, Note_on_c, 0, 76, 105
1, 92400, Note_on_c, 1, 45, 60
1, 92430, Note_on_c, 1, 45, 0
1, 92430, Note_on_c, 1, 49, 60
1, 92460, Note_on_c, 1, 49, 0
1, 92460, Note_on_c, 1, 52, 60
1, 92490, Note_on_c, 1, 52, 0
1, 92490, Note_on_c, 1, 57, 60
1, 92510, Note_on_c, 1, 57, 0
1, 92520, Note_on_c, 1, 57, 60
1, 92560, Note_on_c, 1, 57, 0
1, 92592, Note_on_c, 0, 76, 0
1, 92592, Note_on_c, 0, 81, 0
1, 92592, Note_on_c, 0, 73, 0
1, 92640, Note_on_c, 1, 57, 60
1, 92680, Note_on_c, 1, 57, 0
1, 92760, Note_on_c, 1, 57, 60
1, 92800, Note_on_c, 1, 57, 0
1, 92820, Note_on_c, 0, 85, 0
1, 92880, Tempo, 400000
1, 92880, Note_on_c, 0, 73, 110
1, 92880, Note_on_c, 0, 76, 110
1, 92880, Note_on_c, 0, 81, 110
1, 92880, Note_on_c, 0, 85, 106
1, 92880, Note_on_c, 1, 45, 60
1, 92910, Note_on_c, 1, 45, 0
1, 92910, Note_on_c, 1, 49, 60
1, 92940, Note_on_c, 1, 49, 0
1, 92940, Note_on_c, 1, 52, 60
1, 92970, Note_on_c, 1, 52, 0
1, 92970, Note_on_c, 1, 57, 60
1, 92990, Note_on_c, 1, 57, 0
1, 93000, Note_on_c, 1, 57, 60
1, 93040, Note_on_c, 1, 57, 0
1, 93080, Note_on_c, 0, 81, 0
1, 93080, Note_on_c, 0, 76, 0
1, 93080, Note_on_c, 0, 73, 0
1, 93120, Note_on_c, 1, 57, 60
1, 93160, Note_on_c, 1, 57, 0
1, 93240, Note_on_c, 1, 57, 60
1, 93280, Note_on_c, 1, 57, 0
1, 93300, Note_on_c, 0, 85, 0
1, 93360, Tempo, 400000
1, 93360, Note_on_c, 0, 86, 106
1, 93360, Note_on_c, 1, 45, 60
1, 93390, Note_on_c, 1, 45, 0
1, 93390, Note_on_c, 1, 49, 60
1, 93417, Note_on_c, 0, 86, 0
1, 93420, Note_on_c, 0, 85, 106
1, 93420, Note_on_c, 1, 49, 0
1, 93420, Note_on_c, 1, 52, 60
1, 93450, Note_on_c, 1, 52, 0
1, 93450, Note_on_c, 1, 57, 60
1, 93470, Note_on_c, 1, 57, 0
1, 93477, Note_on_c, 0, 85, 0
1, 93480, Note_on_c, 0, 83, 106
1, 93480, Note_on_c, 1, 57, 60
1, 93520, Note_on_c, 1, 57, 0
1, 93537, Note_on_c, 0, 83, 0
1, 93540, Note_on_c, 0, 85, 106
1, 93597, Note_on_c, 0, 85, 0
1, 93600, Note_on_c, 0, 86, 106
1, 93600, Note_on_c, 1, 57, 60
1, 93640, Note_on_c, 1, 57, 0
1, 93657, Note_on_c, 0, 86, 0
1, 93660, Note_on_c, 0, 85, 106
1, 93717, Note_on_c, 0, 85, 0
1, 93720, Note_on_c, 0, 83, 106
1, 93720, Note_on_c, 1, 57, 60
1, 93760, Note_on_c, 1, 57, 0
1, 93777, Note_on_c, 0, 83, 0
1, 93780, Note_on_c, 0, 85, 106
1, 93837, Note_on_c, 0, 85, 0
1, 93840, Tempo, 400000
1, 93840, Note_on_c, 0, 78, 110
1, 93840, Note_on_c, 0, 81, 110
1, 93840, Note_on_c, 0, 86, 110
1, 93840, Note_on_c, 1, 38, 60
1, 93870, Note_on_c, 1, 38, 0
1, 93870, Note_on_c, 1, 42, 60
1, 93900, Note_on_c, 1, 42, 0
1, 93900, Note_on_c, 1, 45, 60
1, 93930, Note_on_c, 1, 45, 0
1, 93930, Note_on_c, 1, 50, 60
1, 93957, Note_on_c, 1, 50, 0
1, 93960, Note_on_c, 1, 50, 60
1, 94000, Note_on_c, 1, 50, 0
1, 94080, Note_on_c, 1, 50, 60
1, 94120, Note_on_c, 1, 50, 0
1, 94200, Note_on_c, 1, 50, 60
1, 94240, Note_on_c, 1, 50, 0
1, 94260, Note_on_c, 0, 86, 0
1, 94260, Note_on_c, 0, 78, 0
1, 94260, Note_on_c, 0, 81, 0
1, 94320, Tempo, 400000
1, 94320, Note_on_c, 0, 86, 106
1, 94320, Note_on_c, 1, 45, 60
1, 94350, Note_on_c, 0, 86, 0
1, 94350, Note_on_c, 0, 76, 106
1, 94350, Note_on_c, 0, 81, 106
1, 94350, Note_on_c, 0, 85, 106
1, 94350, Note_on_c, 1, 45, 0
1, 94350, Note_on_c, 1, 49, 60
1, 94380, Note_on_c, 1, 49, 0
1, 94380, Note_on_c, 1, 52, 60
1, 94410, Note_on_c, 0, 85, 0
1, 94410, Note_on_c, 0, 81, 0
1, 94410, Note_on_c, 0, 76, 0
1, 94410, Note_on_c, 1, 52, 0
1, 94410, Note_on_c, 1, 57, 60
1, 94430, Note_on_c, 1, 57, 0
1, 94440, Note_on_c, 0, 86, 106
1, 94440, Note_on_c, 1, 57, 60
1, 94470, Note_on_c, 0, 86, 0
1, 94470, Note_on_c, 0, 81, 106
1, 94470, Note_on_c, 0, 85, 106
1, 94470, Note_on_c, 0, 76, 106
1, 94480, Note_on_c, 1, 57, 0
1, 94530, Note_on_c, 0, 76, 0
1, 94530, Note_on_c, 0, 85, 0
1, 94530, Note_on_c, 0, 81, 0
1, 94560, Note_on_c, 0, 86, 106
1, 94560, Note_on_c, 1, 57, 60
1, 94590, Note_on_c, 0, 86, 0
1, 94590, Note_on_c, 0, 76, 106
1, 94590, Note_on_c, 0, 81, 106
1, 94590, Note_on_c, 0, 85, 106
1, 94600, Note_on_c, 1, 57, 0
1, 94650, Note_on_c, 0, 85, 0
1, 94650, Note_on_c, 0, 81, 0
1, 94650, Note_on_c, 0, 76, 0
1, 94680, Note_on_c, 0, 86, 106
1, 94680, Note_on_c, 1, 57, 60
1, 94710, Note_on_c, 0, 86, 0
1, 94710, Note_on_c, 0, 76, 106
1, 94710, Note_on_c, 0, 81, 106
1, 94710, Note_on_c, 0, 85, 106
1, 94720, Note_on_c, 1, 57, 0
1, 94770, Note_on_c, 0, 85, 0
1, 94770, Note_on_c, 0, 81, 0
1, 94770, Note_on_c, 0, 76, 0
1, 94800, Tempo, 400000
1, 94800, Note_on_c, 0, 83, 106
1, 94800, Note_on_c, 0, 76, 106
1, 94800, Note_on_c, 0, 80, 106
1, 94800, Note_on_c, 1, 40, 60
1, 94830, Note_on_c, 1, 40, 0
1, 94830, Note_on_c, 1, 44, 60
1, 94860, Note_on_c, 1, 44, 0
1, 94860, Note_on_c, 1, 47, 60
1, 94890, Note_on_c, 1, 47, 0
1, 94890, Note_on_c, 1, 52, 60
1, 94910, Note_on_c, 1, 52, 0
1, 94920, Note_on_c, 1, 52, 60
1, 94960, Note_on_c, 1, 52, 0
1, 95040, Note_on_c, 1, 52, 60
1, 95080, Note_on_c, 1, 52, 0
1, 95160, Note_on_c, 0, 83, 0
1, 95160, Note_on_c, 0, 88, 106
1, 95160, Note_on_c, 1, 52, 60
1, 95200, Note_on_c, 0, 88, 0
1, 95200, Note_on_c, 1, 52, 0
1, 95220, Note_on_c, 0, 76, 0
1, 95220, Note_on_c, 0, 80, 0
1, 95280, Tempo, 400000
1, 95280, Note_on_c, 0, 81, 110
1, 95280, Note_on_c, 0, 73, 110
1, 95280, Note_on_c, 0, 76, 110
1, 95280, Note_on_c, 0, 85, 106
1, 95280, Note_on_c, 1, 45, 60
1, 95310, Note_on_c, 1, 45, 0
1, 95310, Note_on_c, 1, 49, 60
1, 95340, Note_on_c, 1, 49, 0
1, 95340, Note_on_c, 1, 52, 60
1, 95370, Note_on_c, 1, 52, 0
1, 95370, Note_on_c, 1, 57, 60
1, 95390, Note_on_c, 1, 57, 0
1, 95400, Note_on_c, 1, 57, 60
1, 95440, Note_on_c, 1, 57, 0
1, 95480, Note_on_c, 0, 76, 0
1, 95480, Note_on_c, 0, 73, 0
1, 95480, Note_on_c, 0, 81, 0
1, 95520, Note_on_c, 1, 57, 60
1, 95560, Note_on_c, 1, 57, 0
1, 95640, Note_on_c, 1, 57, 60
1, 95680, Note_on_c, 1, 57, 0
1, 95700, Note_on_c, 0, 85, 0
1, 95760, Tempo, 400000
1, 95760, Note_on_c, 0, 73, 110
1, 95760, Note_on_c, 0, 76, 110
1, 95760, Note_on_c, 0, 81, 110
1, 95760, Note_on_c, 0, 85, 106
1, 95760, Note_on_c, 1, 45, 60
1, 95790, Note_on_c, 1, 45, 0
1, 95790, Note_on_c, 1, 49, 60
1, 95820, Note_on_c, 1, 49, 0
1, 95820, Note_on_c, 1, 52, 60
1, 95850, Note_on_c, 1, 52, 0
1, 95850, Note_on_c, 1, 57, 60
1, 95870, Note_on_c, 1, 57, 0
1, 95880, Note_on_c, 1, 57, 60
1, 95920, Note_on_c, 1, 57, 0
1, 95960, Note_on_c, 0, 81, 0
1, 95960, Note_on_c, 0, 76, 0
1, 95960, Note_on_c, 0, 73, 0
1, 96000, Note_on_c, 1, 57, 60
1, 96040, Note_on_c, 1, 57, 0
1, 96120, Note_on_c, 1, 57, 60
1, 96160, Note_on_c, 1, 57, 0
1, 96180, Note_on_c, 0, 85, 0
1, 96240, Tempo, 400000
1, 96240, Note_on_c, 0, 86, 106
1, 96240, Note_on_c, 1, 45, 60
1, 96270, Note_on_c, 1, 45, 0
1, 96270, Note_on_c, 1, 49, 60
1, 96297, Note_on_c, 0, 86, 0
1, 96300, Note_on_c, 0, 85, 106
1, 96300, Note_on_c, 1, 49, 0
1, 96300, Note_on_c, 1, 52, 60
1, 96330, Note_on_c, 1, 52, 0
1, 96330, Note_on_c, 1, 57, 60
1, 96350, Note_on_c, 1, 57, 0
1, 96357, Note_on_c, 0, 85, 0
1, 96360, Note_on_c, 0, 83, 106
1, 96360, Note_on_c, 1, 57, 60
1, 96400, Note_on_c, 1, 57, 0
1, 96417, Note_on_c, 0, 83, 0
1, 96420, Note_on_c, 0, 85, 106
1, 96477, Note_on_c, 0, 85, 0
1, 96480, Note_on_c, 0, 86, 106
1, 96480, Note_on_c, 1, 57, 60
1, 96520, Note_on_c, 1, 57, 0
1, 96537, Note_on_c, 0, 86, 0
1, 96540, Note_on_c, 0, 85, 106
1, 96597, Note_on_c, 0, 85, 0
1, 96600, Note_on_c, 0, 83, 106
1, 96600, Note_on_c, 1, 57, 60
1, 96640, Note_on_c, 1, 57, 0
1, 96657, Note_on_c, 0, 83, 0
1, 96660, Note_on_c, 0, 85, 106
1, 96717, Note_on_c, 0, 85, 0
1, 96720, Tempo, 400000
1, 96720, Note_on_c, 0, 78, 110
1, 96720, Note_on_c, 0, 81, 110
1, 96720, Note_on_c, 0, 86, 110
1, 96720, Note_on_c, 1, 38, 60
1, 96750, Note_on_c, 1, 38, 0
1, 96750, Note_on_c, 1, 42, 60
1, 96780, Note_on_c, 1, 42, 0
1, 96780, Note_on_c, 1, 45, 60
1, 96801, Note_on_c, 1, 45, 0
1, 96810, Note_on_c, 1, 50, 60
1, 96830, Note_on_c, 1, 50, 0
1, 96840, Note_on_c, 1, 50, 60
1, 96880, Note_on_c, 1, 50, 0
1, 96960, Note_on_c, 1, 50, 60
1, 97000, Note_on_c, 1, 50, 0
1, 97080, Note_on_c, 1, 50, 60
1, 97120, Note_on_c, 1, 50, 0
1, 97140, Note_on_c, 0, 78, 0
1, 97140, Note_on_c, 0, 81, 0
1, 97140, Note_on_c, 0, 86, 0
1, 97200, Tempo, 400000
1, 97200, Note_on_c, 0, 86, 106
1, 97200, Note_on_c, 1, 45, 60
1, 97227, Note_on_c, 0, 86, 0
1, 97230, Note_on_c, 0, 76, 106
1, 97230, Note_on_c, 0, 81, 106
1, 97230, Note_on_c, 0, 85, 106
1, 97230, Note_on_c, 1, 45, 0
1, 97230, Note_on_c, 1, 49, 60
1, 97260, Note_on_c, 1, 49, 0
1, 97260, Note_on_c, 1, 52, 60
1, 97290, Note_on_c, 1, 52, 0
1, 97290, Note_on_c, 1, 57, 60
1, 97310, Note_on_c, 1, 57, 0
1, 97320, Note_on_c, 1, 57, 60
1, 97360, Note_on_c, 1, 57, 0
1, 97440, Note_on_c, 1, 57, 60
1, 97480, Note_on_c, 1, 57, 0
1, 97560, Note_on_c, 1, 57, 60
1, 97600, Note_on_c, 1, 57, 0
1, 97640, Note_on_c, 0, 85, 0
1, 97640, Note_on_c, 0, 76, 0
1, 97640, Note_on_c, 0, 81, 0
1, 97680, Tempo, 400000
1, 97680, Note_on_c, 0, 85, 106
1, 97680, Note_on_c, 1, 40, 60
1, 97710, Note_on_c, 0, 85, 0
1, 97710, Note_on_c, 0, 76, 106
1, 97710, Note_on_c, 0, 80, 106
1, 97710, Note_on_c, 0, 83, 106
1, 97710, Note_on_c, 1, 40, 0
1, 97710, Note_on_c, 1, 44, 60
1, 97740, Note_on_c, 1, 44, 0
1, 97740, Note_on_c, 1, 47, 60
1, 97770, Note_on_c, 0, 83, 0
1, 97770, Note_on_c, 0, 80, 0
1, 97770, Note_on_c, 0, 76, 0
1, 97770, Note_on_c, 1, 47, 0
1, 97770, Note_on_c, 1, 52, 60
1, 97790, Note_on_c, 1, 52, 0
1, 97800, Note_on_c, 0, 85, 106
1, 97800, Note_on_c, 1, 52, 60
1, 97830, Note_on_c, 0, 85, 0
1, 97830, Note_on_c, 0, 80, 106
1, 97830, Note_on_c, 0, 83, 106
1, 97830, Note_on_c, 0, 76, 106
1, 97840, Note_on_c, 1, 52, 0
1, 97890, Note_on_c, 0, 76, 0
1, 97890, Note_on_c, 0, 83, 0
1, 97890, Note_on_c, 0, 80, 0
1, 97920, Note_on_c, 0, 85, 106
1, 97920, Note_on_c, 1, 52, 60
1, 97950, Note_on_c, 0, 85, 0
1, 97950, Note_on_c, 0, 76, 106
1, 97950, Note_on_c, 0, 80, 106
1, 97950, Note_on_c, 0, 83, 106
1, 97960, Note_on_c, 1, 52, 0
1, 98010, Note_on_c, 0, 83, 0
1, 98010, Note_on_c, 0, 80, 0
1, 98010, Note_on_c, 0, 76, 0
1, 98040, Note_on_c, 0, 85, 106
1, 98040, Note_on_c, 1, 52, 60
1, 98070, Note_on_c, 0, 85, 0
1, 98070, Note_on_c, 0, 76, 106
1, 98070, Note_on_c, 0, 80, 106
1, 98070, Note_on_c, 0, 83, 106
1, 98080, Note_on_c, 1, 52, 0
1, 98130, Note_on_c, 0, 83, 0
1, 98130, Note_on_c, 0, 80, 0
1, 98130, Note_on_c, 0, 76, 0
1, 98160, Tempo, 400000
1, 98160, Note_on_c, 0, 81, 73
1, 98160, Note_on_c, 1, 57, 73
1, 98217, Note_on_c, 1, 57, 0
1, 98220, Note_on_c, 1, 64, 73
1, 98277, Note_on_c, 1, 64, 0
1, 98280, Note_on_c, 1, 61, 73
1, 98337, Note_on_c, 1, 61, 0
1, 98340, Note_on_c, 1, 64, 73
1, 98360, Note_on_c, 0, 81, 0
1, 98397, Note_on_c, 1, 64, 0
1, 98400, Note_on_c, 0, 76, 68
1, 98400, Note_on_c, 1, 57, 68
1, 98427, Note_on_c, 0, 76, 0
1, 98430, Note_on_c, 0, 81, 68
1, 98457, Note_on_c, 0, 81, 0
1, 98457, Note_on_c, 1, 57, 0
1, 98460, Note_on_c, 0, 85, 68
1, 98460, Note_on_c, 1, 64, 68
1, 98517, Note_on_c, 1, 64, 0
1, 98520, Note_on_c, 1, 61, 68
1, 98577, Note_on_c, 0, 85, 0
1, 98577, Note_on_c, 1, 61, 0
1, 98580, Note_on_c, 0, 85, 68
1, 98580, Note_on_c, 1, 64, 68
1, 98637, Note_on_c, 0, 85, 0
1, 98637, Note_on_c, 1, 64, 0
1, 98640, Tempo, 400000
1, 98640, Note_on_c, 0, 76, 68
1, 98640, Note_on_c, 1, 57, 68
1, 98667, Note_on_c, 0, 76, 0
1, 98670, Note_on_c, 0, 81, 68
1, 98697, Note_on_c, 0, 81, 0
1, 98697, Note_on_c, 1, 57, 0
1, 98700, Note_on_c, 0, 85, 68
1, 98700, Note_on_c, 1, 64, 68
1, 98757, Note_on_c, 1, 64, 0
1, 98760, Note_on_c, 1, 61, 68
1, 98817, Note_on_c, 1, 61, 0
1, 98820, Note_on_c, 1, 64, 68
1, 98877, Note_on_c, 1, 64, 0
1, 98880, Note_on_c, 1, 57, 68
1, 98937, Note_on_c, 1, 57, 0
1, 98940, Note_on_c, 1, 64, 68
1, 98997, Note_on_c, 1, 64, 0
1, 99000, Note_on_c, 1, 61, 68
1, 99057, Note_on_c, 1, 61, 0
1, 99060, Note_on_c, 1, 64, 68
1, 99080, Note_on_c, 0, 85, 0
1, 99117, Note_on_c, 1, 64, 0
1, 99120, Tempo, 400000
1, 99120, Note_on_c, 0, 76, 68
1, 99120, Note_on_c, 1, 57, 68
1, 99147, Note_on_c, 0, 76, 0
1, 99150, Note_on_c, 0, 81, 68
1, 99177, Note_on_c, 0, 81, 0
1, 99177, Note_on_c, 1, 57, 0
1, 99180, Note_on_c, 0, 85, 68
1, 99180, Note_on_c, 1, 64, 68
1, 99237, Note_on_c, 1, 64, 0
1, 99240, Note_on_c, 1, 61, 68
1, 99297, Note_on_c, 1, 61, 0
1, 99300, Note_on_c, 1, 64, 68
1, 99357, Note_on_c, 1, 64, 0
1, 99360, Note_on_c, 1, 57, 68
1, 99417, Note_on_c, 1, 57, 0
1, 99420, Note_on_c, 1, 64, 68
1, 99477, Note_on_c, 1, 64, 0
1, 99480, Note_on_c, 1, 61, 68
1, 99537, Note_on_c, 1, 61, 0
1, 99540, Note_on_c, 1, 64, 68
1, 99560, Note_on_c, 0, 85, 0
1, 99597, Note_on_c, 1, 64, 0
1, 99600, Tempo, 400000
1, 99600, Note_on_c, 0, 86, 68
1, 99600, Note_on_c, 1, 57, 68
1, 99657, Note_on_c, 0, 86, 0
1, 99657, Note_on_c, 1, 57, 0
1, 99660, Note_on_c, 0, 85, 68
1, 99660, Note_on_c, 1, 64, 68
1, 99717, Note_on_c, 0, 85, 0
1, 99717, Note_on_c, 1, 64, 0
1, 99720, Note_on_c, 0, 83, 68
1, 99720, Note_on_c, 1, 61, 68
1, 99777, Note_on_c, 0, 83, 0
1, 99777, Note_on_c, 1, 61, 0
1, 99780, Note_on_c, 0, 85, 68
1, 99780, Note_on_c, 1, 64, 68
1, 99837, Note_on_c, 0, 85, 0
1, 99837, Note_on_c, 1, 64, 0
1, 99840, Note_on_c, 0, 86, 68
1, 99840, Note_on_c, 1, 57, 68
1, 99897, Note_on_c, 0, 86, 0
1, 99897, Note_on_c, 1, 57, 0
1, 99900, Note_on_c, 0, 85, 68
1, 99900, Note_on_c, 1, 64, 68
1, 99957, Note_on_c, 0, 85, 0
1, 99957, Note_on_c, 1, 64, 0
1, 99960, Note_on_c, 0, 83, 68
1, 99960, Note_on_c, 1, 61, 68
1, 100017, Note_on_c, 0, 83, 0
1, 100017, Note_on_c, 1, 61, 0
1, 100020, Note_on_c, 0, 85, 68
1, 100020, Note_on_c, 1, 64, 68
1, 100077, Note_on_c, 0, 85, 0
1, 100077, Note_on_c, 1, 64, 0
1, 100080, Tempo, 400000
1, 100080, Note_on_c, 0, 86, 70
1, 100080, Note_on_c, 1, 57, 68
1, 100137, Note_on_c, 1, 57, 0
1, 100140, Note_on_c, 1, 66, 68
1, 100197, Note_on_c, 1, 66, 0
1, 100200, Note_on_c, 1, 62, 68
1, 100257, Note_on_c, 1, 62, 0
1, 100260, Note_on_c, 1, 66, 68
1, 100317, Note_on_c, 1, 66, 0
1, 100320, Note_on_c, 1, 57, 68
1, 100377, Note_on_c, 1, 57, 0
1, 100380, Note_on_c, 1, 66, 68
1, 100437, Note_on_c, 1, 66, 0
1, 100440, Note_on_c, 1, 62, 68
1, 100497, Note_on_c, 1, 62, 0
1, 100500, Note_on_c, 0, 86, 0
1, 100500, Note_on_c, 1, 66, 68
1, 100557, Note_on_c, 1, 66, 0
1, 100560, Tempo, 400000
1, 100560, Note_on_c, 0, 86, 68
1, 100560, Note_on_c, 1, 57, 68
1, 100590, Note_on_c, 0, 86, 0
1, 100590, Note_on_c, 0, 85, 68
1, 100617, Note_on_c, 1, 57, 0
1, 100620, Note_on_c, 1, 64, 68
1, 100650, Note_on_c, 0, 85, 0
1, 100677, Note_on_c, 1, 64, 0
1, 100680, Note_on_c, 0, 86, 68
1, 100680, Note_on_c, 1, 61, 68
1, 100710, Note_on_c, 0, 86, 0
1, 100710, Note_on_c, 0, 85, 68
1, 100737, Note_on_c, 1, 61, 0
1, 100740, Note_on_c, 1, 64, 68
1, 100770, Note_on_c, 0, 85, 0
1, 100797, Note_on_c, 1, 64, 0
1, 100800, Note_on_c, 0, 86, 68
1, 100800, Note_on_c, 1, 57, 68
1, 100830, Note_on_c, 0, 86, 0
1, 100830, Note_on_c, 0, 85, 68
1, 100857, Note_on_c, 1, 57, 0
1, 100860, Note_on_c, 1, 64, 68
1, 100890, Note_on_c, 0, 85, 0
1, 100917, Note_on_c, 1, 64, 0
1, 100920, Note_on_c, 0, 86, 68
1, 100920, Note_on_c, 1, 61, 68
1, 100950, Note_on_c, 0, 86, 0
1, 100950, Note_on_c, 0, 85, 68
1, 100977, Note_on_c, 1, 61, 0
1, 100980, Note_on_c, 1, 64, 68
1, 101010, Note_on_c, 0, 85, 0
1, 101037, Note_on_c, 1, 64, 0
1, 101040, Tempo, 400000
1, 101040, Note_on_c, 0, 83, 68
1, 101040, Note_on_c, 1, 52, 68
1, 101097, Note_on_c, 1, 52, 0
1, 101100, Note_on_c, 1, 64, 68
1, 101157, Note_on_c, 1, 64, 0
1, 101160, Note_on_c, 1, 56, 68
1, 101217, Note_on_c, 1, 56, 0
1, 101220, Note_on_c, 1, 64, 68
1, 101277, Note_on_c, 1, 64, 0
1, 101280, Note_on_c, 1, 52, 68
1, 101337, Note_on_c, 1, 52, 0
1, 101340, Note_on_c, 1, 64, 68
1, 101397, Note_on_c, 1, 64, 0
1, 101400, Note_on_c, 0, 83, 0
1, 101400, Note_on_c, 0, 88, 68
1, 101400, Note_on_c, 1, 56, 68
1, 101457, Note_on_c, 1, 56, 0
1, 101460, Note_on_c, 1, 64, 68
1, 101517, Note_on_c, 0, 88, 0
1, 101517, Note_on_c, 1, 64, 0
1, 101520, Tempo, 400000
1, 101520, Note_on_c, 0, 81, 110
1, 101520, Note_on_c, 0, 73, 110
1, 101520, Note_on_c, 0, 76, 110
1, 101520, Note_on_c, 0, 85, 106
1, 101520, Note_on_c, 1, 45, 73
1, 101550, Note_on_c, 1, 45, 0
1, 101550, Note_on_c, 1, 49, 73
1, 101580, Note_on_c, 1, 49, 0
1, 101580, Note_on_c, 1, 52, 73
1, 101610, Note_on_c, 1, 52, 0
1, 101610, Note_on_c, 1, 57, 73
1, 101630, Note_on_c, 1, 57, 0
1, 101640, Note_on_c, 1, 57, 73
1, 101680, Note_on_c, 1, 57, 0
1, 101720, Note_on_c, 0, 76, 0
1, 101720, Note_on_c, 0, 73, 0
1, 101720, Note_on_c, 0, 81, 0
1, 101760, Note_on_c, 1, 57, 73
1, 101800, Note_on_c, 1, 57, 0
1, 101880, Note_on_c, 1, 57, 73
1, 101920, Note_on_c, 1, 57, 0
1, 101940, Note_on_c, 0, 85, 0
1, 102000, Tempo, 400000
1, 102000, Note_on_c, 0, 73, 110
1, 102000, Note_on_c, 0, 76, 110
1, 102000, Note_on_c, 0, 81, 110
1, 102000, Note_on_c, 0, 85, 106
1, 102000, Note_on_c, 1, 45, 73
1, 102030, Note_on_c, 1, 45, 0
1, 102030, Note_on_c, 1, 49, 73
1, 102060, Note_on_c, 1, 49, 0
1, 102060, Note_on_c, 1, 52, 73
1, 102090, Note_on_c, 1, 52, 0
1, 102090, Note_on_c, 1, 57, 73
1, 102110, Note_on_c, 1, 57, 0
1, 102120, Note_on_c, 1, 57, 73
1, 102160, Note_on_c, 1, 57, 0
1, 102200, Note_on_c, 0, 81, 0
1, 102200, Note_on_c, 0, 76, 0
1, 102200, Note_on_c, 0, 73, 0
1, 102240, Note_on_c, 1, 57, 73
1, 102280, Note_on_c, 1, 57, 0
1, 102360, Note_on_c, 1, 57, 73
1, 102400, Note_on_c, 1, 57, 0
1, 102420, Note_on_c, 0, 85, 0
1, 102480, Tempo, 400000
1, 102480, Note_on_c, 0, 86, 106
1, 102480, Note_on_c, 1, 45, 73
1, 102510, Note_on_c, 1, 45, 0
1, 102510, Note_on_c, 1, 49, 73
1, 102537, Note_on_c, 0, 86, 0
1, 102540, Note_on_c, 0, 85, 106
1, 102540, Note_on_c, 1, 49, 0
1, 102540, Note_on_c, 1, 52, 73
1, 102570, Note_on_c, 1, 52, 0
1, 102570, Note_on_c, 1, 57, 73
1, 102590, Note_on_c, 1, 57, 0
1, 102597, Note_on_c, 0, 85, 0
1, 102600, Note_on_c, 0, 83, 106
1, 102600, Note_on_c, 1, 57, 73
1, 102640, Note_on_c, 1, 57, 0
1, 102657, Note_on_c, 0, 83, 0
1, 102660, Note_on_c, 0, 85, 106
1, 102717, Note_on_c, 0, 85, 0
1, 102720, Note_on_c, 0, 86, 106
1, 102720, Note_on_c, 1, 57, 73
1, 102760, Note_on_c, 1, 57, 0
1, 102777, Note_on_c, 0, 86, 0
1, 102780, Note_on_c, 0, 85, 106
1, 102837, Note_on_c, 0, 85, 0
1, 102840, Note_on_c, 0, 83, 106
1, 102840, Note_on_c, 1, 57, 73
1, 102880, Note_on_c, 1, 57, 0
1, 102897, Note_on_c, 0, 83, 0
1, 102900, Note_on_c, 0, 85, 106
1, 102957, Note_on_c, 0, 85, 0
1, 102960, Tempo, 400000
1, 102960, Note_on_c, 0, 78, 110
1, 102960, Note_on_c, 0, 81, 110
1, 102960, Note_on_c, 0, 86, 110
1, 102960, Note_on_c, 1, 38, 73
1, 102990, Note_on_c, 1, 38, 0
1, 102990, Note_on_c, 1, 42, 73
1, 103020, Note_on_c, 1, 42, 0
1, 103020, Note_on_c, 1, 45, 73
1, 103041, Note_on_c, 1, 45, 0
1, 103050, Note_on_c, 1, 50, 73
1, 103070, Note_on_c, 1, 50, 0
1, 103080, Note_on_c, 1, 50, 73
1, 103120, Note_on_c, 1, 50, 0
1, 103200, Note_on_c, 1, 50, 73
1, 103240, Note_on_c, 1, 50, 0
1, 103320, Note_on_c, 1, 50, 73
1, 103360, Note_on_c, 1, 50, 0
1, 103380, Note_on_c, 0, 78, 0
1, 103380, Note_on_c, 0, 81, 0
1, 103380, Note_on_c, 0, 86, 0
1, 103440, Tempo, 400000
1, 103440, Note_on_c, 0, 86, 106
1, 103440, Note_on_c, 1, 45, 73
1, 103467, Note_on_c, 0, 86, 0
1, 103470, Note_on_c, 0, 76, 106
1, 103470, Note_on_c, 0, 81, 106
1, 103470, Note_on_c, 0, 85, 106
1, 103470, Note_on_c, 1, 45, 0
1, 103470, Note_on_c, 1, 49, 73
1, 103500, Note_on_c, 1, 49, 0
1, 103500, Note_on_c, 1, 52, 73
1, 103530, Note_on_c, 1, 52, 0
1, 103530, Note_on_c, 1, 57, 73
1, 103550, Note_on_c, 1, 57, 0
1, 103560, Note_on_c, 1, 57, 73
1, 103600, Note_on_c, 1, 57, 0
1, 103680, Note_on_c, 1, 57, 73
1, 103720, Note_on_c, 1, 57, 0
1, 103800, Note_on_c, 1, 57, 73
1, 103840, Note_on_c, 1, 57, 0
1, 103880, Note_on_c, 0, 85, 0
1, 103880, Note_on_c, 0, 76, 0
1, 103880, Note_on_c, 0, 81, 0
1, 103920, Tempo, 400000
1, 103920, Note_on_c, 0, 85, 106
1, 103920, Note_on_c, 1, 40, 73
1, 103950, Note_on_c, 0, 85, 0
1, 103950, Note_on_c, 0, 76, 106
1, 103950, Note_on_c, 0, 80, 106
1, 103950, Note_on_c, 0, 83, 106
1, 103950, Note_on_c, 1, 40, 0
1, 103950, Note_on_c, 1, 44, 73
1, 103980, Note_on_c, 1, 44, 0
1, 103980, Note_on_c, 1, 47, 73
1, 104010, Note_on_c, 0, 83, 0
1, 104010, Note_on_c, 0, 80, 0
1, 104010, Note_on_c, 0, 76, 0
1, 104010, Note_on_c, 1, 47, 0
1, 104010, Note_on_c, 1, 52, 73
1, 104030, Note_on_c, 1, 52, 0
1, 104040, Note_on_c, 0, 85, 106
1, 104040, Note_on_c, 1, 52, 73
1, 104070, Note_on_c, 0, 85, 0
1, 104070, Note_on_c, 0, 80, 106
1, 104070, Note_on_c, 0, 83, 106
1, 104070, Note_on_c, 0, 76, 106
1, 104080, Note_on_c, 1, 52, 0
1, 104130, Note_on_c, 0, 76, 0
1, 104130, Note_on_c, 0, 83, 0
1, 104130, Note_on_c, 0, 80, 0
1, 104160, Note_on_c, 0, 85, 106
1, 104160, Note_on_c, 1, 52, 73
1, 104190, Note_on_c, 0, 85, 0
1, 104190, Note_on_c, 0, 76, 106
1, 104190, Note_on_c, 0, 80, 106
1, 104190, Note_on_c, 0, 83, 106
1, 104200, Note_on_c, 1, 52, 0
1, 104250, Note_on_c, 0, 83, 0
1, 104250, Note_on_c, 0, 80, 0
1, 104250, Note_on_c, 0, 76, 0
1, 104280, Note_on_c, 0, 85, 106
1, 104280, Note_on_c, 1, 52, 73
1, 104310, Note_on_c, 0, 85, 0
1, 104310, Note_on_c, 0, 76, 106
1, 104310, Note_on_c, 0, 80, 106
1, 104310, Note_on_c, 0, 83, 106
1, 104320, Note_on_c, 1, 52, 0
1, 104370, Note_on_c, 0, 83, 0
1, 104370, Note_on_c, 0, 80, 0
1, 104370, Note_on_c, 0, 76, 0
1, 104400, Tempo, 400000
1, 104400, Note_on_c, 0, 69, 106
1, 104400, Note_on_c, 0, 73, 106
1, 104400, Note_on_c, 0, 76, 106
1, 104400, Note_on_c, 0, 81, 106
1, 104400, Note_on_c, 1, 45, 117
1, 104430, Note_on_c, 1, 45, 0
1, 104430, Note_on_c, 1, 49, 117
1, 104460, Note_on_c, 1, 49, 0
1, 104460, Note_on_c, 1, 52, 117
1, 104490, Note_on_c, 1, 52, 0
1, 104490, Note_on_c, 1, 57, 117
1, 104510, Note_on_c, 1, 57, 0
1, 104520, Note_on_c, 1, 57, 117
1, 104560, Note_on_c, 1, 57, 0
1, 104640, Note_on_c, 1, 57, 117
1, 104680, Note_on_c, 1, 57, 0
1, 104720, Note_on_c, 0, 73, 0
1, 104720, Note_on_c, 0, 69, 0
1, 104720, Note_on_c, 0, 76, 0
1, 104720, Note_on_c, 0, 81, 0
1, 104760, Note_on_c, 0, 73, 106
1, 104760, Note_on_c, 0, 85, 106
1, 104760, Note_on_c, 1, 57, 117
1, 104800, Note_on_c, 1, 57, 0
1, 104877, Note_on_c, 0, 85, 0
1, 104877, Note_on_c, 0, 73, 0
1, 104880, Tempo, 400000
1, 104880, Note_on_c, 0, 69, 106
1, 104880, Note_on_c, 0, 81, 106
1, 104880, Note_on_c, 1, 45, 117
1, 104910, Note_on_c, 1, 45, 0
1, 104910, Note_on_c, 1, 49, 117
1, 104940, Note_on_c, 1, 49, 0
1, 104940, Note_on_c, 1, 52, 117
1, 104970, Note_on_c, 1, 52, 0
1, 104970, Note_on_c, 1, 57, 117
1, 104990, Note_on_c, 1, 57, 0
1, 105000, Note_on_c, 1, 57, 117
1, 105040, Note_on_c, 1, 57, 0
1, 105120, Note_on_c, 1, 57, 117
1, 105160, Note_on_c, 1, 57, 0
1, 105200, Note_on_c, 0, 69, 0
1, 105200, Note_on_c, 0, 81, 0
1, 105240, Note_on_c, 0, 76, 106
1, 105240, Note_on_c, 0, 88, 106
1, 105240, Note_on_c, 1, 57, 117
1, 105280, Note_on_c, 1, 57, 0
1, 105357, Note_on_c, 0, 88, 0
1, 105357, Note_on_c, 0, 76, 0
1, 105360, Tempo, 400000
1, 105360, Note_on_c, 0, 69, 106
1, 105360, Note_on_c, 0, 81, 106
1, 105360, Note_on_c, 1, 45, 117
1, 105390, Note_on_c, 1, 45, 0
1, 105390, Note_on_c, 1, 49, 117
1, 105420, Note_on_c, 1, 49, 0
1, 105420, Note_on_c, 1, 52, 117
1, 105450, Note_on_c, 1, 52, 0
1, 105450, Note_on_c, 1, 57, 117
1, 105470, Note_on_c, 1, 57, 0
1, 105480, Note_on_c, 1, 57, 117
1, 105520, Note_on_c, 1, 57, 0
1, 105600, Note_on_c, 1, 57, 117
1, 105640, Note_on_c, 1, 57, 0
1, 105680, Note_on_c, 0, 81, 0
1, 105680, Note_on_c, 0, 69, 0
1, 105720, Note_on_c, 0, 73, 106
1, 105720, Note_on_c, 0, 85, 106
1, 105720, Note_on_c, 1, 57, 117
1, 105760, Note_on_c, 1, 57, 0
1, 105837, Note_on_c, 0, 85, 0
1, 105837, Note_on_c, 0, 73, 0
1, 105840, Tempo, 400000
1, 105840, Note_on_c, 0, 69, 106
1, 105840, Note_on_c, 0, 81, 106
1, 105840, Note_on_c, 1, 45, 117
1, 105870, Note_on_c, 1, 45, 0
1, 105870, Note_on_c, 1, 49, 117
1, 105900, Note_on_c, 1, 49, 0
1, 105900, Note_on_c, 1, 52, 117
1, 105930, Note_on_c, 1, 52, 0
1, 105930, Note_on_c, 1, 57, 117
1, 105950, Note_on_c, 1, 57, 0
1, 105957, Note_on_c, 0, 81, 0
1, 105957, Note_on_c, 0, 69, 0
1, 105960, Note_on_c, 0, 73, 106
1, 105960, Note_on_c, 0, 85, 106
1, 105960, Note_on_c, 1, 57, 117
1, 106000, Note_on_c, 1, 57, 0
1, 106077, Note_on_c, 0, 85, 0
1, 106077, Note_on_c, 0, 73, 0
1, 106080, Note_on_c, 0, 69, 106
1, 106080, Note_on_c, 0, 81, 106
1, 106080, Note_on_c, 1, 45, 117
1, 106110, Note_on_c, 1, 45, 0
1, 106110, Note_on_c, 1, 49, 117
1, 106140, Note_on_c, 1, 49, 0
1, 106140, Note_on_c, 1, 52, 117
1, 106170, Note_on_c, 1, 52, 0
1, 106170, Note_on_c, 1, 57, 117
1, 106190, Note_on_c, 1, 57, 0
1, 106197, Note_on_c, 0, 81, 0
1, 106197, Note_on_c, 0, 69, 0
1, 106200, Note_on_c, 0, 76, 106
1, 106200, Note_on_c, 0, 88, 106
1, 106200, Note_on_c, 1, 57, 117
1, 106240, Note_on_c, 1, 57, 0
1, 106317, Note_on_c, 0, 88, 0
1, 106317, Note_on_c, 0, 76, 0
1, 106320, Tempo, 400000
1, 106320, Note_on_c, 0, 81, 106
1, 106320, Note_on_c, 1, 45, 117
1, 106520, Note_on_c, 0, 81, 0
1, 106520, Note_on_c, 1, 45, 0
1, 106560, Note_on_c, 0, 81, 106
1, 106560, Note_on_c, 0, 69, 106
1, 106560, Note_on_c, 0, 73, 106
1, 106560, Note_on_c, 0, 76, 106
1, 106560, Note_on_c, 1, 45, 125
1, 106560, Note_on_c, 1, 49, 125
1, 106560, Note_on_c, 1, 52, 125
1, 106560, Note_on_c, 1, 57, 125
1, 106760, Note_on_c, 0, 76, 0
1, 106760, Note_on_c, 0, 73, 0
1, 106760, Note_on_c, 0, 69, 0
1, 106760, Note_on_c, 0, 81, 0
1, 106760, Note_on_c, 1, 57, 0
1, 106760, Note_on_c, 1, 52, 0
1, 106760, Note_on_c, 1, 49, 0
1, 106760, Note_on_c, 1, 45, 0
1, 106800, Tempo, 400000
1, 106800, Note_on_c, 0, 69, 106
1, 106800, Note_on_c, 0, 73, 106
1, 106800, Note_on_c, 0, 76, 106
1, 106800, Note_on_c, 0, 81, 106
1, 106800, Note_on_c, 1, 57, 125
1, 106800, Note_on_c, 1, 45, 125
1, 106800, Note_on_c, 1, 49, 125
1, 106800, Note_on_c, 1, 52, 125
1, 107000, Note_on_c, 0, 81, 0
1, 107000, Note_on_c, 0, 76, 0
1, 107000, Note_on_c, 0, 73, 0
1, 107000, Note_on_c, 0, 69, 0
1, 107000, Note_on_c, 1, 52, 0
1, 107000, Note_on_c, 1, 49, 0
1, 107000, Note_on_c, 1, 45, 0
1, 107000, Note_on_c, 1, 57, 0
1, 107010, End_track
0, 0, End_of_file