0, 0, Header, 0, 1, 480
1, 0, Start_track
1, 0, Tempo, 500000
1, 2880, Tempo, 882352
1, 3375, Tempo, 909090
1, 3840, Tempo, 895522
1, 3840, Note_on_c, 1, 70, 52
1, 3840, Note_on_c, 4, 67, 52
1, 3840, Note_on_c, 5, 63, 52
1, 4560, Note_on_c, 1, 70, 0
1, 4560, Note_on_c, 1, 72, 56
1, 4740, Note_on_c, 1, 72, 0
1, 4740, Note_on_c, 4, 67, 0
1, 4740, Note_on_c, 5, 63, 0
1, 4800, Note_on_c, 1, 70, 54
1, 4800, Note_on_c, 4, 67, 55
1, 4800, Note_on_c, 5, 63, 55
1, 5693, Note_on_c, 5, 63, 0
1, 5700, Note_on_c, 4, 67, 0
1, 5760, Note_on_c, 4, 65, 59
1, 5760, Note_on_c, 5, 62, 59
1, 6188, Note_on_c, 1, 70, 0
1, 6240, Note_on_c, 1, 70, 60
1, 6660, Note_on_c, 5, 62, 0
1, 6668, Note_on_c, 4, 65, 0
1, 6720, Note_on_c, 1, 70, 0
1, 6720, Note_on_c, 1, 75, 62
1, 6720, Note_on_c, 4, 67, 62
1, 6720, Note_on_c, 5, 60, 62
1, 7080, Note_on_c, 1, 75, 0
1, 7200, Note_on_c, 1, 75, 64
1, 7200, Note_on_c, 4, 67, 0
1, 7200, Note_on_c, 4, 69, 64
1, 7553, Note_on_c, 1, 75, 0
1, 7560, Tempo, 923076
1, 7620, Note_on_c, 4, 69, 0
1, 7620, Note_on_c, 5, 60, 0
1, 7680, Tempo, 895522
1, 7680, Note_on_c, 1, 75, 67
1, 7680, Note_on_c, 4, 70, 67
1, 7680, Note_on_c, 5, 58, 67
1, 7920, Note_on_c, 1, 75, 0
1, 7920, Note_on_c, 1, 74, 64
1, 8160, Note_on_c, 1, 74, 0
1, 8160, Note_on_c, 1, 72, 62
1, 8380, Note_on_c, 4, 70, 0
1, 8400, Note_on_c, 1, 72, 0
1, 8400, Note_on_c, 1, 70, 60
1, 8580, Note_on_c, 1, 70, 0
1, 8588, Note_on_c, 5, 58, 0
1, 8640, Note_on_c, 1, 70, 58
1, 8640, Note_on_c, 4, 62, 60
1, 8640, Note_on_c, 5, 58, 60
1, 9480, Tempo, 923076
1, 9540, Note_on_c, 1, 70, 0
1, 9540, Note_on_c, 4, 62, 0
1, 9600, Tempo, 895522
1, 9600, Note_on_c, 1, 74, 62
1, 9600, Note_on_c, 4, 64, 57
1, 9840, Note_on_c, 1, 74, 0
1, 9840, Note_on_c, 1, 72, 59
1, 10020, Note_on_c, 1, 72, 0
1, 10080, Note_on_c, 1, 72, 56
1, 10500, Note_on_c, 4, 64, 0
1, 10500, Note_on_c, 5, 58, 0
1, 10560, Note_on_c, 4, 65, 53
1, 10560, Note_on_c, 5, 56, 53
1, 10980, Note_on_c, 1, 72, 0
1, 11040, Note_on_c, 1, 77, 53
1, 11280, Note_on_c, 1, 77, 0
1, 11280, Note_on_c, 1, 74, 55
1, 11400, Tempo, 923076
1, 11460, Note_on_c, 4, 65, 0
1, 11468, Note_on_c, 1, 74, 0
1, 11520, Tempo, 895522
1, 11520, Note_on_c, 1, 72, 58
1, 11520, Note_on_c, 4, 62, 49
1, 11760, Note_on_c, 1, 72, 0
1, 11760, Note_on_c, 1, 70, 55
1, 11940, Note_on_c, 1, 70, 0
1, 12000, Note_on_c, 1, 70, 52
1, 12420, Note_on_c, 4, 62, 0
1, 12435, Note_on_c, 5, 56, 0
1, 12480, Note_on_c, 4, 63, 46
1, 12480, Note_on_c, 5, 55, 46
1, 12960, Note_on_c, 1, 70, 0
1, 12960, Note_on_c, 1, 75, 49
1, 13200, Note_on_c, 1, 75, 0
1, 13200, Note_on_c, 1, 70, 45
1, 13320, Tempo, 923076
1, 13380, Note_on_c, 1, 70, 0
1, 13388, Note_on_c, 5, 55, 0
1, 13440, Tempo, 895522
1, 13440, Note_on_c, 1, 70, 42
1, 13440, Note_on_c, 5, 53, 42
1, 14340, Note_on_c, 5, 53, 0
1, 14400, Note_on_c, 4, 63, 0
1, 14400, Note_on_c, 4, 62, 39
1, 14400, Note_on_c, 5, 58, 39
1, 14760, Tempo, 923076
1, 14880, Note_on_c, 1, 70, 0
1, 14880, Note_on_c, 1, 70, 39
1, 14940, Note_on_c, 1, 68, 39
1, 14960, Note_on_c, 1, 70, 0
1, 15000, Note_on_c, 1, 70, 38
1, 15020, Note_on_c, 1, 68, 0
1, 15060, Note_on_c, 1, 68, 38
1, 15080, Note_on_c, 1, 70, 0
1, 15120, Note_on_c, 1, 70, 37
1, 15130, Note_on_c, 1, 68, 0
1, 15180, Note_on_c, 1, 70, 0
1, 15180, Note_on_c, 1, 68, 37
1, 15240, Tempo, 952380
1, 15240, Note_on_c, 1, 67, 36
1, 15260, Note_on_c, 1, 68, 0
1, 15300, Tempo, 1000000
1, 15300, Note_on_c, 1, 68, 36
1, 15300, Note_on_c, 5, 58, 0
1, 15308, Note_on_c, 4, 62, 0
1, 15310, Note_on_c, 1, 67, 0
1, 15360, Tempo, 895522
1, 15360, Note_on_c, 1, 67, 35
1, 15360, Note_on_c, 4, 51, 36
1, 15380, Note_on_c, 1, 68, 0
1, 15600, Note_on_c, 3, 55, 39
1, 15600, Note_on_c, 4, 51, 0
1, 15840, Note_on_c, 1, 67, 0
1, 15840, Note_on_c, 3, 55, 0
1, 15840, Note_on_c, 3, 58, 40
1, 16080, Note_on_c, 3, 58, 0
1, 16080, Note_on_c, 3, 63, 41
1, 16260, Note_on_c, 3, 63, 0
1, 16320, Note_on_c, 1, 70, 43
1, 16320, Note_on_c, 4, 51, 43
1, 16560, Note_on_c, 3, 55, 44
1, 16560, Note_on_c, 4, 51, 0
1, 16800, Note_on_c, 1, 70, 0
1, 16800, Note_on_c, 3, 55, 0
1, 16800, Note_on_c, 3, 58, 45
1, 17040, Note_on_c, 3, 58, 0
1, 17040, Note_on_c, 3, 63, 46
1, 17160, Tempo, 923076
1, 17220, Note_on_c, 3, 63, 0
1, 17280, Tempo, 895522
1, 17280, Note_on_c, 4, 51, 51
1, 17520, Note_on_c, 3, 55, 49
1, 17520, Note_on_c, 4, 51, 0
1, 17760, Note_on_c, 1, 75, 48
1, 17760, Note_on_c, 3, 55, 0
1, 17760, Note_on_c, 3, 58, 50
1, 17820, Note_on_c, 1, 77, 50
1, 17850, Note_on_c, 1, 75, 0
1, 17880, Note_on_c, 1, 79, 52
1, 17910, Note_on_c, 1, 77, 0
1, 18000, Note_on_c, 3, 58, 0
1, 18000, Note_on_c, 3, 63, 52
1, 18180, Note_on_c, 3, 63, 0
1, 18230, Note_on_c, 1, 79, 0
1, 18240, Note_on_c, 1, 77, 54
1, 18240, Note_on_c, 4, 51, 53
1, 18480, Note_on_c, 3, 55, 54
1, 18480, Note_on_c, 4, 51, 0
1, 18720, Note_on_c, 1, 77, 0
1, 18720, Note_on_c, 1, 75, 57
1, 18720, Note_on_c, 3, 55, 0
1, 18720, Note_on_c, 3, 58, 55
1, 18960, Note_on_c, 3, 58, 0
1, 18960, Note_on_c, 3, 63, 57
1, 19080, Tempo, 923076
1, 19140, Note_on_c, 1, 75, 0
1, 19140, Note_on_c, 3, 63, 0
1, 19200, Tempo, 895522
1, 19200, Note_on_c, 1, 77, 56
1, 19200, Note_on_c, 4, 53, 53
1, 19260, Note_on_c, 1, 75, 55
1, 19280, Note_on_c, 1, 77, 0
1, 19320, Note_on_c, 1, 77, 54
1, 19340, Note_on_c, 1, 75, 0
1, 19380, Note_on_c, 1, 75, 53
1, 19400, Note_on_c, 1, 77, 0
1, 19440, Note_on_c, 1, 77, 52
1, 19440, Note_on_c, 3, 56, 50
1, 19440, Note_on_c, 4, 53, 0
1, 19460, Note_on_c, 1, 75, 0
1, 19500, Note_on_c, 1, 75, 51
1, 19520, Note_on_c, 1, 77, 0
1, 19560, Note_on_c, 1, 77, 50
1, 19580, Note_on_c, 1, 75, 0
1, 19620, Note_on_c, 1, 75, 49
1, 19640, Note_on_c, 1, 77, 0
1, 19680, Note_on_c, 1, 77, 49
1, 19680, Note_on_c, 3, 56, 0
1, 19680, Note_on_c, 3, 62, 47
1, 19700, Note_on_c, 1, 75, 0
1, 19740, Note_on_c, 1, 75, 48
1, 19760, Note_on_c, 1, 77, 0
1, 19800, Note_on_c, 1, 77, 47
1, 19820, Note_on_c, 1, 75, 0
1, 19860, Note_on_c, 1, 75, 46
1, 19880, Note_on_c, 1, 77, 0
1, 19920, Note_on_c, 1, 77, 45
1, 19920, Note_on_c, 3, 62, 0
1, 19920, Note_on_c, 3, 65, 44
1, 19940, Note_on_c, 1, 75, 0
1, 19980, Note_on_c, 1, 75, 44
1, 19990, Note_on_c, 1, 77, 0
1, 20040, Note_on_c, 1, 74, 43
1, 20060, Note_on_c, 1, 75, 0
1, 20100, Note_on_c, 1, 75, 42
1, 20100, Note_on_c, 3, 65, 0
1, 20120, Note_on_c, 1, 74, 0
1, 20160, Note_on_c, 1, 74, 41
1, 20160, Note_on_c, 4, 53, 41
1, 20180, Note_on_c, 1, 75, 0
1, 20400, Note_on_c, 3, 56, 41
1, 20400, Note_on_c, 4, 53, 0
1, 20640, Note_on_c, 3, 56, 0
1, 20640, Note_on_c, 3, 62, 43
1, 20880, Note_on_c, 3, 62, 0
1, 20880, Note_on_c, 3, 65, 45
1, 21000, Tempo, 923076
1, 21060, Note_on_c, 1, 74, 0
1, 21060, Note_on_c, 3, 65, 0
1, 21120, Tempo, 895522
1, 21120, Note_on_c, 4, 53, 49
1, 21360, Note_on_c, 3, 56, 48
1, 21360, Note_on_c, 4, 53, 0
1, 21600, Note_on_c, 1, 77, 46
1, 21600, Note_on_c, 3, 56, 0
1, 21600, Note_on_c, 3, 62, 50
1, 21660, Note_on_c, 1, 79, 48
1, 21680, Note_on_c, 1, 77, 0
1, 21720, Note_on_c, 1, 80, 52
1, 21740, Note_on_c, 1, 79, 0
1, 21840, Note_on_c, 3, 62, 0
1, 21840, Note_on_c, 3, 65, 52
1, 22020, Note_on_c, 3, 65, 0
1, 22073, Note_on_c, 1, 80, 0
1, 22080, Note_on_c, 1, 79, 55
1, 22080, Note_on_c, 4, 53, 53
1, 22320, Note_on_c, 3, 56, 55
1, 22320, Note_on_c, 4, 53, 0
1, 22560, Note_on_c, 1, 79, 0
1, 22560, Note_on_c, 1, 77, 59
1, 22560, Note_on_c, 3, 56, 0
1, 22560, Note_on_c, 3, 62, 57
1, 22800, Note_on_c, 3, 62, 0
1, 22800, Note_on_c, 3, 65, 59
1, 22920, Tempo, 923076
1, 22973, Note_on_c, 3, 65, 0
1, 22988, Note_on_c, 1, 77, 0
1, 23040, Tempo, 895522
1, 23040, Note_on_c, 1, 79, 58
1, 23040, Note_on_c, 4, 55, 55
1, 23100, Note_on_c, 1, 77, 57
1, 23120, Note_on_c, 1, 79, 0
1, 23160, Note_on_c, 1, 79, 56
1, 23180, Note_on_c, 1, 77, 0
1, 23220, Note_on_c, 1, 77, 55
1, 23240, Note_on_c, 1, 79, 0
1, 23280, Note_on_c, 1, 79, 55
1, 23280, Note_on_c, 3, 58, 53
1, 23280, Note_on_c, 4, 55, 0
1, 23300, Note_on_c, 1, 77, 0
1, 23340, Note_on_c, 1, 77, 54
1, 23360, Note_on_c, 1, 79, 0
1, 23400, Note_on_c, 1, 79, 53
1, 23420, Note_on_c, 1, 77, 0
1, 23460, Note_on_c, 1, 77, 52
1, 23480, Note_on_c, 1, 79, 0
1, 23520, Note_on_c, 1, 79, 51
1, 23520, Note_on_c, 3, 58, 0
1, 23520, Note_on_c, 3, 63, 51
1, 23540, Note_on_c, 1, 77, 0
1, 23580, Note_on_c, 1, 77, 50
1, 23600, Note_on_c, 1, 79, 0
1, 23640, Note_on_c, 1, 79, 50
1, 23660, Note_on_c, 1, 77, 0
1, 23700, Note_on_c, 1, 77, 49
1, 23710, Note_on_c, 1, 79, 0
1, 23760, Note_on_c, 1, 79, 48
1, 23760, Note_on_c, 3, 63, 0
1, 23760, Note_on_c, 3, 67, 48
1, 23780, Note_on_c, 1, 77, 0
1, 23820, Note_on_c, 1, 77, 47
1, 23840, Note_on_c, 1, 79, 0
1, 23880, Note_on_c, 1, 75, 46
1, 23890, Note_on_c, 1, 77, 0
1, 23940, Note_on_c, 1, 77, 45
1, 23948, Note_on_c, 3, 67, 0
1, 23960, Note_on_c, 1, 75, 0
1, 24000, Note_on_c, 1, 75, 45
1, 24000, Note_on_c, 4, 55, 46
1, 24020, Note_on_c, 1, 77, 0
1, 24240, Note_on_c, 3, 58, 45
1, 24240, Note_on_c, 4, 55, 0
1, 24480, Note_on_c, 3, 58, 0
1, 24480, Note_on_c, 3, 63, 45
1, 24720, Note_on_c, 3, 63, 0
1, 24720, Note_on_c, 3, 67, 44
1, 24840, Tempo, 967741
1, 24900, Note_on_c, 1, 75, 0
1, 24900, Note_on_c, 3, 67, 0
1, 24960, Tempo, 923076
1, 24960, Note_on_c, 4, 54, 44
1, 25020, Tempo, 895522
1, 25200, Note_on_c, 3, 58, 44
1, 25200, Note_on_c, 4, 54, 0
1, 25440, Note_on_c, 1, 77, 38
1, 25440, Note_on_c, 3, 58, 0
1, 25440, Note_on_c, 3, 63, 43
1, 25500, Note_on_c, 1, 75, 40
1, 25510, Note_on_c, 1, 77, 0
1, 25560, Note_on_c, 1, 74, 41
1, 25570, Note_on_c, 1, 75, 0
1, 25620, Note_on_c, 1, 75, 43
1, 25640, Note_on_c, 1, 74, 0
1, 25680, Note_on_c, 3, 63, 0
1, 25680, Note_on_c, 3, 66, 44
1, 25868, Note_on_c, 3, 66, 0
1, 25913, Note_on_c, 1, 75, 0
1, 25920, Note_on_c, 1, 77, 46
1, 25920, Note_on_c, 4, 54, 43
1, 26160, Note_on_c, 3, 58, 42
1, 26160, Note_on_c, 4, 54, 0
1, 26400, Note_on_c, 1, 77, 0
1, 26400, Note_on_c, 1, 78, 50
1, 26400, Note_on_c, 3, 58, 0
1, 26400, Note_on_c, 3, 63, 42
1, 26640, Note_on_c, 3, 63, 0
1, 26640, Note_on_c, 3, 66, 48
1, 26760, Tempo, 923076
1, 26828, Note_on_c, 1, 78, 0
1, 26828, Note_on_c, 3, 66, 0
1, 26880, Tempo, 895522
1, 26880, Note_on_c, 1, 70, 50
1, 26880, Note_on_c, 4, 53, 43
1, 27120, Note_on_c, 3, 57, 41
1, 27120, Note_on_c, 4, 53, 0
1, 27360, Note_on_c, 1, 70, 0
1, 27360, Note_on_c, 1, 69, 42
1, 27360, Note_on_c, 3, 57, 0
1, 27360, Note_on_c, 3, 60, 42
1, 27600, Note_on_c, 3, 60, 0
1, 27600, Note_on_c, 3, 63, 44
1, 27773, Note_on_c, 1, 69, 0
1, 27788, Note_on_c, 3, 63, 0
1, 27840, Note_on_c, 4, 53, 48
1, 28080, Note_on_c, 3, 57, 47
1, 28080, Note_on_c, 4, 53, 0
1, 28320, Note_on_c, 1, 72, 48
1, 28320, Note_on_c, 3, 57, 0
1, 28320, Note_on_c, 3, 60, 48
1, 28560, Note_on_c, 3, 60, 0
1, 28560, Note_on_c, 3, 63, 50
1, 28630, Note_on_c, 1, 72, 0
1, 28680, Tempo, 923076
1, 28748, Note_on_c, 3, 63, 0
1, 28800, Tempo, 895522
1, 28800, Note_on_c, 1, 75, 52
1, 28800, Note_on_c, 4, 52, 54
1, 29040, Note_on_c, 3, 55, 50
1, 29040, Note_on_c, 4, 52, 0
1, 29280, Note_on_c, 1, 75, 0
1, 29280, Note_on_c, 1, 73, 47
1, 29280, Note_on_c, 3, 55, 0
1, 29280, Note_on_c, 3, 58, 47
1, 29520, Note_on_c, 3, 58, 0
1, 29520, Note_on_c, 3, 61, 45
1, 29693, Note_on_c, 1, 73, 0
1, 29708, Note_on_c, 3, 61, 0
1, 29760, Note_on_c, 4, 52, 43
1, 30000, Note_on_c, 3, 55, 40
1, 30000, Note_on_c, 4, 52, 0
1, 30240, Note_on_c, 1, 70, 38
1, 30240, Note_on_c, 3, 55, 0
1, 30240, Note_on_c, 3, 58, 38
1, 30480, Note_on_c, 3, 58, 0
1, 30480, Note_on_c, 3, 61, 36
1, 30550, Note_on_c, 1, 70, 0
1, 30600, Tempo, 952380
1, 30660, Note_on_c, 3, 61, 0
1, 30720, Tempo, 895522
1, 30720, Note_on_c, 1, 69, 34
1, 30720, Note_on_c, 4, 60, 34
1, 30720, Note_on_c, 5, 53, 34
1, 30960, Note_on_c, 1, 69, 0
1, 30960, Note_on_c, 1, 70, 35
1, 30960, Note_on_c, 4, 60, 0
1, 30960, Note_on_c, 4, 61, 35
1, 31200, Note_on_c, 1, 70, 0
1, 31200, Note_on_c, 1, 69, 36
1, 31200, Note_on_c, 4, 61, 0
1, 31200, Note_on_c, 4, 60, 36
1, 31440, Note_on_c, 1, 69, 0
1, 31440, Note_on_c, 1, 73, 37
1, 31440, Note_on_c, 4, 60, 0
1, 31440, Note_on_c, 4, 58, 37
1, 31680, Note_on_c, 1, 73, 0
1, 31680, Note_on_c, 1, 72, 38
1, 31680, Note_on_c, 4, 58, 0
1, 31680, Note_on_c, 4, 57, 38
1, 31920, Note_on_c, 1, 72, 0
1, 31920, Note_on_c, 1, 76, 39
1, 31920, Note_on_c, 2, 70, 39
1, 31920, Note_on_c, 4, 57, 0
1, 31920, Note_on_c, 4, 61, 39
1, 32160, Note_on_c, 1, 76, 0
1, 32160, Note_on_c, 1, 77, 40
1, 32160, Note_on_c, 2, 70, 0
1, 32160, Note_on_c, 2, 69, 40
1, 32160, Note_on_c, 4, 61, 0
1, 32160, Note_on_c, 4, 60, 40
1, 32400, Tempo, 1132075
1, 32400, Note_on_c, 1, 77, 0
1, 32400, Note_on_c, 1, 73, 41
1, 32400, Note_on_c, 2, 69, 0
1, 32400, Note_on_c, 2, 64, 41
1, 32400, Note_on_c, 4, 60, 0
1, 32400, Note_on_c, 4, 58, 41
1, 32610, Note_on_c, 1, 73, 0
1, 32610, Note_on_c, 2, 64, 0
1, 32610, Note_on_c, 4, 58, 0
1, 32640, Tempo, 1034482
1, 32640, Note_on_c, 1, 73, 45
1, 32640, Note_on_c, 2, 64, 45
1, 32640, Note_on_c, 4, 58, 43
1, 33600, Tempo, 1132075
1, 33600, Note_on_c, 1, 73, 0
1, 33600, Note_on_c, 1, 72, 30
1, 33600, Note_on_c, 2, 64, 0
1, 33600, Note_on_c, 2, 65, 30
1, 33600, Note_on_c, 4, 58, 0
1, 33600, Note_on_c, 4, 57, 31
1, 34080, Note_on_c, 1, 72, 0
1, 34080, Note_on_c, 2, 65, 0
1, 34080, Note_on_c, 4, 57, 0
1, 34090, Note_on_c, 5, 53, 0
1, 34560, Tempo, 923076
1, 34560, Note_on_c, 4, 58, 54
1, 34620, Tempo, 895522
1, 34800, Note_on_c, 3, 65, 42
1, 34800, Note_on_c, 3, 62, 42
1, 35010, Note_on_c, 3, 65, 0
1, 35010, Note_on_c, 3, 62, 0
1, 35040, Note_on_c, 3, 65, 42
1, 35040, Note_on_c, 3, 62, 42
1, 35250, Note_on_c, 3, 65, 0
1, 35250, Note_on_c, 3, 62, 0
1, 35280, Note_on_c, 3, 65, 42
1, 35280, Note_on_c, 3, 62, 42
1, 35483, Note_on_c, 4, 58, 0
1, 35490, Note_on_c, 3, 65, 0
1, 35490, Note_on_c, 3, 62, 0
1, 35520, Note_on_c, 4, 58, 43
1, 35760, Note_on_c, 1, 70, 43
1, 35760, Note_on_c, 3, 62, 43
1, 35760, Note_on_c, 3, 65, 43
1, 35970, Note_on_c, 3, 62, 0
1, 35970, Note_on_c, 3, 65, 0
1, 36000, Note_on_c, 1, 70, 0
1, 36000, Note_on_c, 1, 74, 43
1, 36000, Note_on_c, 3, 65, 44
1, 36000, Note_on_c, 3, 62, 44
1, 36210, Note_on_c, 3, 65, 0
1, 36210, Note_on_c, 3, 62, 0
1, 36240, Note_on_c, 1, 74, 0
1, 36240, Note_on_c, 1, 77, 45
1, 36240, Note_on_c, 3, 62, 44
1, 36240, Note_on_c, 3, 65, 44
1, 36420, Tempo, 923076
1, 36443, Note_on_c, 1, 77, 0
1, 36450, Note_on_c, 3, 62, 0
1, 36450, Note_on_c, 3, 65, 0
1, 36450, Note_on_c, 4, 58, 0
1, 36480, Tempo, 895522
1, 36480, Note_on_c, 1, 77, 49
1, 36480, Note_on_c, 4, 60, 44
1, 36720, Note_on_c, 1, 77, 0
1, 36720, Note_on_c, 1, 75, 47
1, 36720, Note_on_c, 3, 63, 45
1, 36720, Note_on_c, 3, 65, 45
1, 36816, Note_on_c, 1, 75, 0
1, 36910, Note_on_c, 3, 63, 0
1, 36910, Note_on_c, 3, 65, 0
1, 36960, Note_on_c, 1, 72, 46
1, 36960, Note_on_c, 3, 63, 45
1, 36960, Note_on_c, 3, 65, 45
1, 37056, Note_on_c, 1, 72, 0
1, 37150, Note_on_c, 3, 63, 0
1, 37150, Note_on_c, 3, 65, 0
1, 37200, Note_on_c, 1, 69, 44
1, 37200, Note_on_c, 3, 63, 46
1, 37200, Note_on_c, 3, 65, 46
1, 37296, Note_on_c, 1, 69, 0
1, 37390, Note_on_c, 3, 63, 0
1, 37390, Note_on_c, 3, 65, 0
1, 37395, Note_on_c, 4, 60, 0
1, 37440, Note_on_c, 4, 60, 46
1, 37680, Note_on_c, 1, 69, 46
1, 37680, Note_on_c, 3, 65, 46
1, 37680, Note_on_c, 3, 63, 46
1, 37870, Note_on_c, 3, 65, 0
1, 37870, Note_on_c, 3, 63, 0
1, 37920, Note_on_c, 1, 69, 0
1, 37920, Note_on_c, 1, 72, 48
1, 37920, Note_on_c, 3, 65, 47
1, 37920, Note_on_c, 3, 63, 47
1, 38110, Note_on_c, 3, 65, 0
1, 38110, Note_on_c, 3, 63, 0
1, 38160, Note_on_c, 1, 72, 0
1, 38160, Note_on_c, 1, 75, 50
1, 38160, Note_on_c, 3, 65, 47
1, 38160, Note_on_c, 3, 63, 47
1, 38340, Tempo, 923076
1, 38348, Note_on_c, 1, 75, 0
1, 38348, Note_on_c, 4, 60, 0
1, 38350, Note_on_c, 3, 65, 0
1, 38350, Note_on_c, 3, 63, 0
1, 38400, Tempo, 895522
1, 38400, Note_on_c, 1, 79, 53
1, 38400, Note_on_c, 4, 58, 48
1, 38640, Note_on_c, 1, 79, 0
1, 38640, Note_on_c, 1, 77, 51
1, 38640, Note_on_c, 3, 62, 48
1, 38640, Note_on_c, 3, 65, 48
1, 38736, Note_on_c, 1, 77, 0
1, 38830, Note_on_c, 3, 62, 0
1, 38830, Note_on_c, 3, 65, 0
1, 38880, Note_on_c, 1, 74, 49
1, 38880, Note_on_c, 3, 62, 48
1, 38880, Note_on_c, 3, 65, 48
1, 38976, Note_on_c, 1, 74, 0
1, 39070, Note_on_c, 3, 62, 0
1, 39070, Note_on_c, 3, 65, 0
1, 39120, Note_on_c, 1, 70, 46
1, 39120, Note_on_c, 3, 62, 49
1, 39120, Note_on_c, 3, 65, 49
1, 39216, Note_on_c, 1, 70, 0
1, 39308, Note_on_c, 4, 58, 0
1, 39310, Note_on_c, 3, 62, 0
1, 39310, Note_on_c, 3, 65, 0
1, 39360, Note_on_c, 4, 58, 49
1, 39600, Note_on_c, 1, 70, 50
1, 39600, Note_on_c, 3, 62, 50
1, 39600, Note_on_c, 3, 65, 50
1, 39790, Note_on_c, 3, 62, 0
1, 39790, Note_on_c, 3, 65, 0
1, 39840, Note_on_c, 1, 70, 0
1, 39840, Note_on_c, 1, 74, 51
1, 39840, Note_on_c, 3, 62, 50
1, 39840, Note_on_c, 3, 65, 50
1, 40030, Note_on_c, 3, 62, 0
1, 40030, Note_on_c, 3, 65, 0
1, 40080, Note_on_c, 1, 74, 0
1, 40080, Note_on_c, 1, 77, 53
1, 40080, Note_on_c, 3, 65, 50
1, 40080, Note_on_c, 3, 62, 50
1, 40260, Tempo, 923076
1, 40260, Note_on_c, 1, 77, 0
1, 40260, Note_on_c, 4, 58, 0
1, 40270, Note_on_c, 3, 65, 0
1, 40270, Note_on_c, 3, 62, 0
1, 40320, Tempo, 895522
1, 40320, Note_on_c, 1, 77, 56
1, 40320, Note_on_c, 4, 60, 51
1, 40560, Note_on_c, 1, 77, 0
1, 40560, Note_on_c, 1, 75, 54
1, 40560, Note_on_c, 3, 65, 51
1, 40560, Note_on_c, 3, 63, 51
1, 40656, Note_on_c, 1, 75, 0
1, 40750, Note_on_c, 3, 65, 0
1, 40750, Note_on_c, 3, 63, 0
1, 40800, Note_on_c, 1, 72, 52
1, 40800, Note_on_c, 3, 65, 52
1, 40800, Note_on_c, 3, 63, 52
1, 40896, Note_on_c, 1, 72, 0
1, 40990, Note_on_c, 3, 65, 0
1, 40990, Note_on_c, 3, 63, 0
1, 41040, Note_on_c, 1, 69, 51
1, 41040, Note_on_c, 3, 65, 52
1, 41040, Note_on_c, 3, 63, 52
1, 41136, Note_on_c, 1, 69, 0
1, 41228, Note_on_c, 4, 60, 0
1, 41230, Note_on_c, 3, 65, 0
1, 41230, Note_on_c, 3, 63, 0
1, 41280, Note_on_c, 4, 60, 52
1, 41520, Note_on_c, 1, 69, 53
1, 41520, Note_on_c, 3, 65, 53
1, 41520, Note_on_c, 3, 63, 53
1, 41710, Note_on_c, 3, 65, 0
1, 41710, Note_on_c, 3, 63, 0
1, 41760, Note_on_c, 1, 69, 0
1, 41760, Note_on_c, 1, 72, 54
1, 41760, Note_on_c, 3, 65, 53
1, 41760, Note_on_c, 3, 63, 53
1, 41950, Note_on_c, 3, 65, 0
1, 41950, Note_on_c, 3, 63, 0
1, 42000, Note_on_c, 1, 72, 0
1, 42000, Note_on_c, 1, 75, 57
1, 42000, Note_on_c, 3, 65, 54
1, 42000, Note_on_c, 3, 63, 54
1, 42180, Tempo, 923076
1, 42188, Note_on_c, 1, 75, 0
1, 42190, Note_on_c, 3, 65, 0
1, 42190, Note_on_c, 3, 63, 0
1, 42195, Note_on_c, 4, 60, 0
1, 42240, Tempo, 895522
1, 42240, Note_on_c, 1, 79, 60
1, 42240, Note_on_c, 4, 58, 54
1, 42480, Note_on_c, 1, 79, 0
1, 42480, Note_on_c, 1, 77, 57
1, 42480, Note_on_c, 3, 65, 54
1, 42480, Note_on_c, 3, 62, 54
1, 42576, Note_on_c, 1, 77, 0
1, 42670, Note_on_c, 3, 65, 0
1, 42670, Note_on_c, 3, 62, 0
1, 42720, Note_on_c, 1, 74, 55
1, 42720, Note_on_c, 3, 65, 55
1, 42720, Note_on_c, 3, 62, 55
1, 42816, Note_on_c, 1, 74, 0
1, 42910, Note_on_c, 3, 65, 0
1, 42910, Note_on_c, 3, 62, 0
1, 42960, Note_on_c, 1, 70, 53
1, 42960, Note_on_c, 3, 65, 55
1, 42960, Note_on_c, 3, 62, 55
1, 43056, Note_on_c, 1, 70, 0
1, 43080, Tempo, 923076
1, 43140, Note_on_c, 4, 58, 0
1, 43150, Note_on_c, 3, 65, 0
1, 43150, Note_on_c, 3, 62, 0
1, 43200, Tempo, 923076
1, 43200, Note_on_c, 4, 46, 66
1, 43260, Tempo, 895522
1, 43440, Note_on_c, 1, 77, 65
1, 43440, Note_on_c, 3, 50, 68
1, 43440, Note_on_c, 4, 46, 0
1, 43600, Note_on_c, 1, 77, 0
1, 43680, Note_on_c, 1, 76, 68
1, 43680, Note_on_c, 3, 50, 0
1, 43680, Note_on_c, 4, 48, 69
1, 43800, Note_on_c, 1, 76, 0
1, 43800, Note_on_c, 1, 77, 69
1, 43920, Note_on_c, 1, 77, 0
1, 43920, Note_on_c, 1, 81, 71
1, 43920, Note_on_c, 3, 51, 71
1, 43920, Note_on_c, 4, 48, 0
1, 44040, Tempo, 952380
1, 44040, Note_on_c, 1, 81, 0
1, 44040, Note_on_c, 1, 77, 72
1, 44100, Note_on_c, 3, 51, 0
1, 44138, Note_on_c, 1, 77, 0
1, 44160, Tempo, 895522
1, 44160, Note_on_c, 1, 82, 74
1, 44160, Note_on_c, 4, 50, 74
1, 44400, Note_on_c, 1, 82, 0
1, 44400, Note_on_c, 1, 77, 73
1, 44400, Note_on_c, 3, 53, 73
1, 44588, Note_on_c, 1, 77, 0
1, 44640, Note_on_c, 1, 77, 72
1, 44640, Note_on_c, 3, 53, 0
1, 44640, Note_on_c, 3, 58, 72
1, 44880, Note_on_c, 3, 58, 0
1, 44880, Note_on_c, 3, 62, 71
1, 45053, Note_on_c, 3, 62, 0
1, 45053, Note_on_c, 4, 50, 0
1, 45120, Note_on_c, 4, 50, 70
1, 45300, Note_on_c, 1, 77, 0
1, 45360, Note_on_c, 1, 74, 69
1, 45360, Note_on_c, 3, 53, 69
1, 45600, Note_on_c, 1, 74, 0
1, 45600, Note_on_c, 1, 77, 68
1, 45600, Note_on_c, 3, 53, 0
1, 45600, Note_on_c, 3, 58, 68
1, 45720, Note_on_c, 1, 77, 0
1, 45720, Note_on_c, 1, 74, 67
1, 45818, Note_on_c, 1, 74, 0
1, 45840, Note_on_c, 1, 77, 67
1, 45840, Note_on_c, 3, 58, 0
1, 45840, Note_on_c, 3, 62, 67
1, 45960, Tempo, 923076
1, 45960, Note_on_c, 1, 77, 0
1, 45960, Note_on_c, 1, 74, 66
1, 46020, Note_on_c, 3, 62, 0
1, 46035, Note_on_c, 4, 50, 0
1, 46050, Note_on_c, 1, 74, 0
1, 46080, Tempo, 895522
1, 46080, Note_on_c, 1, 79, 71
1, 46080, Note_on_c, 4, 51, 66
1, 46320, Note_on_c, 1, 79, 0
1, 46320, Note_on_c, 1, 75, 66
1, 46320, Note_on_c, 3, 55, 65
1, 46508, Note_on_c, 1, 75, 0
1, 46560, Note_on_c, 1, 75, 64
1, 46560, Note_on_c, 3, 55, 0
1, 46560, Note_on_c, 3, 60, 64
1, 46800, Note_on_c, 3, 60, 0
1, 46800, Note_on_c, 3, 63, 63
1, 46988, Note_on_c, 3, 63, 0
1, 46988, Note_on_c, 4, 51, 0
1, 47040, Note_on_c, 4, 51, 63
1, 47205, Note_on_c, 1, 75, 0
1, 47280, Note_on_c, 1, 72, 61
1, 47280, Note_on_c, 3, 55, 62
1, 47520, Note_on_c, 1, 72, 0
1, 47520, Note_on_c, 1, 75, 60
1, 47520, Note_on_c, 3, 55, 0
1, 47520, Note_on_c, 3, 60, 61
1, 47640, Note_on_c, 1, 75, 0
1, 47640, Note_on_c, 1, 72, 59
1, 47738, Note_on_c, 1, 72, 0
1, 47760, Note_on_c, 1, 75, 58
1, 47760, Note_on_c, 3, 60, 0
1, 47760, Note_on_c, 3, 63, 60
1, 47880, Tempo, 923076
1, 47880, Note_on_c, 1, 75, 0
1, 47880, Note_on_c, 1, 72, 58
1, 47948, Note_on_c, 3, 63, 0
1, 47948, Note_on_c, 4, 51, 0
1, 47978, Note_on_c, 1, 72, 0
1, 48000, Tempo, 895522
1, 48000, Note_on_c, 1, 77, 63
1, 48000, Note_on_c, 4, 53, 60
1, 48240, Note_on_c, 1, 77, 0
1, 48240, Note_on_c, 1, 74, 59
1, 48240, Note_on_c, 3, 58, 59
1, 48480, Note_on_c, 3, 58, 0
1, 48480, Note_on_c, 3, 62, 58
1, 48540, Note_on_c, 1, 74, 0
1, 48600, Note_on_c, 1, 70, 56
1, 48698, Note_on_c, 1, 70, 0
1, 48720, Note_on_c, 1, 74, 55
1, 48720, Note_on_c, 3, 62, 0
1, 48720, Note_on_c, 3, 65, 58
1, 48840, Tempo, 923076
1, 48840, Note_on_c, 1, 74, 0
1, 48840, Note_on_c, 1, 70, 54
1, 48908, Note_on_c, 4, 53, 0
1, 48923, Note_on_c, 3, 65, 0
1, 48945, Note_on_c, 1, 70, 0
1, 48960, Tempo, 895522
1, 48960, Note_on_c, 1, 75, 60
1, 48960, Note_on_c, 4, 53, 57
1, 49200, Note_on_c, 1, 75, 0
1, 49200, Note_on_c, 1, 72, 55
1, 49200, Note_on_c, 3, 57, 56
1, 49440, Note_on_c, 3, 57, 0
1, 49440, Note_on_c, 3, 60, 55
1, 49500, Note_on_c, 1, 72, 0
1, 49560, Note_on_c, 1, 69, 51
1, 49650, Note_on_c, 1, 69, 0
1, 49680, Note_on_c, 1, 72, 50
1, 49680, Note_on_c, 3, 60, 0
1, 49680, Note_on_c, 3, 63, 55
1, 49800, Tempo, 923076
1, 49800, Note_on_c, 1, 72, 0
1, 49800, Note_on_c, 1, 69, 49
1, 49868, Note_on_c, 4, 53, 0
1, 49875, Note_on_c, 3, 63, 0
1, 49890, Note_on_c, 1, 69, 0
1, 49920, Tempo, 895522
1, 49920, Note_on_c, 1, 72, 48
1, 49920, Note_on_c, 3, 62, 54
1, 49920, Note_on_c, 4, 55, 54
1, 50040, Note_on_c, 1, 72, 0
1, 50040, Note_on_c, 1, 70, 49
1, 50160, Note_on_c, 1, 70, 0
1, 50160, Note_on_c, 1, 69, 50
1, 50280, Note_on_c, 1, 69, 0
1, 50280, Note_on_c, 1, 70, 51
1, 50400, Note_on_c, 1, 70, 0
1, 50400, Note_on_c, 1, 72, 51
1, 50400, Note_on_c, 3, 62, 0
1, 50400, Note_on_c, 4, 55, 0
1, 50640, Note_on_c, 1, 72, 0
1, 50640, Note_on_c, 1, 74, 53
1, 50880, Note_on_c, 1, 74, 0
1, 50880, Note_on_c, 1, 75, 55
1, 51120, Note_on_c, 1, 75, 0
1, 51120, Note_on_c, 1, 74, 57
1, 51180, Note_on_c, 1, 77, 58
1, 51210, Note_on_c, 1, 74, 0
1, 51330, Note_on_c, 1, 77, 0
1, 51360, Note_on_c, 1, 75, 59
1, 51420, Note_on_c, 1, 79, 60
1, 51450, Note_on_c, 1, 75, 0
1, 51570, Note_on_c, 1, 79, 0
1, 51600, Note_on_c, 1, 77, 61
1, 51660, Note_on_c, 1, 81, 61
1, 51690, Note_on_c, 1, 77, 0
1, 51720, Tempo, 1034482
1, 51790, Note_on_c, 1, 81, 0
1, 51840, Tempo, 895522
1, 51840, Note_on_c, 1, 82, 59
1, 51840, Note_on_c, 4, 70, 49
1, 51840, Note_on_c, 5, 62, 49
1, 51960, Note_on_c, 1, 82, 0
1, 51960, Note_on_c, 1, 77, 57
1, 52080, Note_on_c, 1, 77, 0
1, 52080, Note_on_c, 1, 76, 56
1, 52200, Note_on_c, 1, 76, 0
1, 52200, Note_on_c, 1, 77, 55
1, 52260, Note_on_c, 4, 70, 0
1, 52260, Note_on_c, 5, 62, 0
1, 52320, Note_on_c, 1, 77, 0
1, 52320, Note_on_c, 1, 79, 54
1, 52440, Note_on_c, 1, 79, 0
1, 52440, Note_on_c, 1, 77, 53
1, 52560, Note_on_c, 1, 77, 0
1, 52560, Note_on_c, 1, 76, 52
1, 52680, Note_on_c, 1, 76, 0
1, 52680, Note_on_c, 1, 77, 51
1, 52785, Note_on_c, 1, 77, 0
1, 52800, Note_on_c, 4, 70, 56
1, 52800, Note_on_c, 5, 62, 56
1, 52920, Note_on_c, 1, 77, 59
1, 53040, Note_on_c, 1, 77, 0
1, 53040, Note_on_c, 1, 76, 58
1, 53160, Note_on_c, 1, 76, 0
1, 53160, Note_on_c, 1, 77, 57
1, 53220, Note_on_c, 4, 70, 0
1, 53220, Note_on_c, 5, 62, 0
1, 53280, Note_on_c, 1, 77, 0
1, 53280, Note_on_c, 4, 70, 52
1, 53280, Note_on_c, 5, 62, 52
1, 53400, Note_on_c, 1, 76, 55
1, 53520, Note_on_c, 1, 76, 0
1, 53520, Note_on_c, 1, 77, 55
1, 53640, Tempo, 923076
1, 53640, Note_on_c, 1, 77, 0
1, 53640, Note_on_c, 1, 78, 54
1, 53700, Note_on_c, 4, 70, 0
1, 53708, Note_on_c, 5, 62, 0
1, 53738, Note_on_c, 1, 78, 0
1, 53760, Tempo, 895522
1, 53760, Note_on_c, 1, 79, 43
1, 53760, Note_on_c, 4, 70, 42
1, 53760, Note_on_c, 5, 63, 42
1, 53880, Note_on_c, 1, 79, 0
1, 53880, Note_on_c, 1, 72, 42
1, 54000, Note_on_c, 1, 72, 0
1, 54000, Note_on_c, 1, 71, 41
1, 54120, Note_on_c, 1, 71, 0
1, 54120, Note_on_c, 1, 72, 40
1, 54180, Note_on_c, 4, 70, 0
1, 54180, Note_on_c, 5, 63, 0
1, 54240, Note_on_c, 1, 72, 0
1, 54240, Note_on_c, 1, 74, 39
1, 54360, Note_on_c, 1, 74, 0
1, 54360, Note_on_c, 1, 72, 37
1, 54480, Note_on_c, 1, 72, 0
1, 54480, Note_on_c, 1, 71, 36
1, 54600, Note_on_c, 1, 71, 0
1, 54600, Note_on_c, 1, 72, 35
1, 54698, Note_on_c, 1, 72, 0
1, 54720, Note_on_c, 4, 70, 53
1, 54720, Note_on_c, 5, 63, 53
1, 54840, Note_on_c, 1, 72, 52
1, 54960, Note_on_c, 1, 72, 0
1, 54960, Note_on_c, 1, 71, 51
1, 55080, Note_on_c, 1, 71, 0
1, 55080, Note_on_c, 1, 72, 50
1, 55140, Note_on_c, 4, 70, 0
1, 55140, Note_on_c, 5, 63, 0
1, 55200, Note_on_c, 1, 72, 0
1, 55200, Note_on_c, 4, 70, 49
1, 55200, Note_on_c, 5, 64, 49
1, 55320, Note_on_c, 1, 71, 49
1, 55440, Note_on_c, 1, 71, 0
1, 55440, Note_on_c, 1, 72, 48
1, 55560, Note_on_c, 1, 72, 0
1, 55560, Note_on_c, 1, 73, 47
1, 55620, Note_on_c, 4, 70, 0
1, 55620, Note_on_c, 5, 64, 0
1, 55665, Note_on_c, 1, 73, 0
1, 55680, Note_on_c, 1, 74, 46
1, 55680, Note_on_c, 4, 70, 46
1, 55680, Note_on_c, 5, 65, 46
1, 55920, Note_on_c, 1, 74, 0
1, 55920, Note_on_c, 1, 75, 47
1, 56160, Note_on_c, 1, 75, 0
1, 56160, Note_on_c, 1, 76, 48
1, 56400, Tempo, 923076
1, 56400, Note_on_c, 1, 76, 0
1, 56400, Note_on_c, 1, 77, 49
1, 56580, Note_on_c, 1, 77, 0
1, 56580, Note_on_c, 4, 70, 0
1, 56580, Note_on_c, 5, 65, 0
1, 56640, Note_on_c, 1, 74, 50
1, 56700, Note_on_c, 1, 72, 50
1, 56720, Note_on_c, 1, 74, 0
1, 56760, Note_on_c, 1, 74, 51
1, 56780, Note_on_c, 1, 72, 0
1, 56820, Note_on_c, 1, 72, 51
1, 56840, Note_on_c, 1, 74, 0
1, 56880, Note_on_c, 1, 74, 51
1, 56900, Note_on_c, 1, 72, 0
1, 56940, Note_on_c, 1, 72, 51
1, 56960, Note_on_c, 1, 74, 0
1, 57000, Note_on_c, 1, 74, 52
1, 57020, Note_on_c, 1, 72, 0
1, 57060, Note_on_c, 1, 72, 52
1, 57080, Note_on_c, 1, 74, 0
1, 57120, Note_on_c, 1, 74, 52
1, 57120, Note_on_c, 4, 57, 52
1, 57120, Note_on_c, 4, 63, 52
1, 57120, Note_on_c, 5, 53, 52
1, 57140, Note_on_c, 1, 72, 0
1, 57180, Note_on_c, 1, 72, 53
1, 57200, Note_on_c, 1, 74, 0
1, 57240, Note_on_c, 1, 74, 53
1, 57260, Note_on_c, 1, 72, 0
1, 57300, Note_on_c, 1, 72, 53
1, 57320, Note_on_c, 1, 74, 0
1, 57360, Note_on_c, 1, 74, 53
1, 57380, Note_on_c, 1, 72, 0
1, 57420, Note_on_c, 1, 72, 54
1, 57440, Note_on_c, 1, 74, 0
1, 57480, Tempo, 952380
1, 57480, Note_on_c, 1, 70, 54
1, 57500, Note_on_c, 1, 72, 0
1, 57533, Note_on_c, 5, 53, 0
1, 57540, Tempo, 1000000
1, 57540, Note_on_c, 1, 72, 54
1, 57540, Note_on_c, 4, 63, 0
1, 57548, Note_on_c, 4, 57, 0
1, 57560, Note_on_c, 1, 70, 0
1, 57600, Tempo, 895522
1, 57600, Note_on_c, 1, 70, 55
1, 57600, Note_on_c, 4, 62, 54
1, 57600, Note_on_c, 5, 58, 54
1, 57620, Note_on_c, 1, 72, 0
1, 57790, Note_on_c, 4, 62, 0
1, 57790, Note_on_c, 5, 58, 0
1, 57840, Note_on_c, 4, 65, 52
1, 57840, Note_on_c, 5, 62, 52
1, 58080, Note_on_c, 1, 70, 0
1, 58080, Note_on_c, 4, 65, 0
1, 58080, Note_on_c, 4, 63, 50
1, 58080, Note_on_c, 5, 62, 0
1, 58080, Note_on_c, 5, 60, 50
1, 58320, Note_on_c, 4, 63, 0
1, 58320, Note_on_c, 4, 62, 48
1, 58320, Note_on_c, 5, 60, 0
1, 58320, Note_on_c, 5, 58, 48
1, 58500, Note_on_c, 5, 58, 0
1, 58508, Note_on_c, 4, 62, 0
1, 58560, Note_on_c, 1, 69, 49
1, 58600, Note_on_c, 1, 72, 51
1, 58635, Note_on_c, 1, 69, 0
1, 58640, Note_on_c, 1, 75, 53
1, 58670, Note_on_c, 1, 72, 0
1, 58800, Note_on_c, 4, 60, 49
1, 58800, Note_on_c, 5, 57, 49
1, 59040, Note_on_c, 4, 60, 0
1, 59040, Note_on_c, 4, 58, 47
1, 59040, Note_on_c, 5, 57, 0
1, 59040, Note_on_c, 5, 55, 47
1, 59280, Note_on_c, 4, 58, 0
1, 59280, Note_on_c, 4, 57, 45
1, 59280, Note_on_c, 5, 55, 0
1, 59280, Note_on_c, 5, 53, 45
1, 59400, Tempo, 909090
1, 59468, Note_on_c, 4, 57, 0
1, 59468, Note_on_c, 5, 53, 0
1, 59500, Note_on_c, 1, 75, 0
1, 59520, Note_on_c, 1, 74, 47
1, 59520, Note_on_c, 4, 58, 43
1, 59520, Note_on_c, 5, 46, 43
1, 59750, Note_on_c, 4, 58, 0
1, 59760, Note_on_c, 1, 58, 45
1, 59870, Note_on_c, 1, 74, 0
1, 59880, Note_on_c, 1, 58, 0
1, 59880, Note_on_c, 1, 62, 45
1, 60000, Note_on_c, 1, 62, 0
1, 60000, Note_on_c, 1, 60, 44
1, 60120, Note_on_c, 1, 60, 0
1, 60120, Note_on_c, 1, 63, 43
1, 60240, Note_on_c, 1, 63, 0
1, 60240, Note_on_c, 1, 62, 42
1, 60360, Note_on_c, 1, 62, 0
1, 60360, Note_on_c, 1, 65, 42
1, 60480, Note_on_c, 1, 65, 0
1, 60480, Note_on_c, 1, 63, 41
1, 60480, Note_on_c, 5, 46, 0
1, 60600, Note_on_c, 1, 63, 0
1, 60600, Note_on_c, 1, 67, 40
1, 60720, Note_on_c, 1, 67, 0
1, 60720, Note_on_c, 1, 65, 40
1, 60840, Note_on_c, 1, 65, 0
1, 60840, Note_on_c, 1, 68, 39
1, 60960, Note_on_c, 1, 68, 0
1, 60960, Note_on_c, 1, 67, 38
1, 61080, Note_on_c, 1, 67, 0
1, 61080, Note_on_c, 1, 70, 37
1, 61150, Tempo, 923076
1, 61200, Note_on_c, 1, 70, 0
1, 61200, Note_on_c, 1, 68, 37
1, 61260, Tempo, 1034482
1, 61320, Note_on_c, 1, 68, 0
1, 61320, Note_on_c, 1, 72, 36
1, 61335, Tempo, 1764705
1, 61418, Note_on_c, 1, 72, 0
1, 61440, Tempo, 895522
1, 61440, Note_on_c, 1, 70, 36
1, 61440, Note_on_c, 4, 67, 36
1, 61440, Note_on_c, 4, 64, 36
1, 61440, Note_on_c, 5, 61, 36
1, 61800, Note_on_c, 1, 70, 0
1, 61800, Note_on_c, 1, 72, 38
1, 61898, Note_on_c, 1, 72, 0
1, 61920, Note_on_c, 1, 70, 37
1, 62333, Note_on_c, 5, 61, 0
1, 62340, Note_on_c, 4, 67, 0
1, 62340, Note_on_c, 4, 64, 0
1, 62400, Note_on_c, 4, 67, 38
1, 62400, Note_on_c, 4, 64, 38
1, 62400, Note_on_c, 5, 61, 38
1, 62820, Note_on_c, 1, 70, 0
1, 62880, Note_on_c, 1, 82, 39
1, 63300, Note_on_c, 4, 67, 0
1, 63300, Note_on_c, 4, 64, 0
1, 63308, Note_on_c, 5, 61, 0
1, 63360, Note_on_c, 4, 67, 40
1, 63360, Note_on_c, 4, 64, 40
1, 63360, Note_on_c, 5, 60, 40
1, 63840, Note_on_c, 1, 82, 0
1, 63840, Note_on_c, 1, 79, 42
1, 64260, Note_on_c, 4, 67, 0
1, 64260, Note_on_c, 4, 64, 0
1, 64260, Note_on_c, 5, 60, 0
1, 64320, Note_on_c, 1, 79, 0
1, 64320, Note_on_c, 1, 76, 44
1, 64320, Note_on_c, 4, 67, 42
1, 64320, Note_on_c, 4, 64, 42
1, 64320, Note_on_c, 5, 60, 42
1, 64800, Note_on_c, 1, 76, 0
1, 64800, Note_on_c, 1, 70, 47
1, 65160, Tempo, 923076
1, 65220, Note_on_c, 1, 70, 0
1, 65220, Note_on_c, 4, 64, 0
1, 65220, Note_on_c, 5, 60, 0
1, 65228, Note_on_c, 4, 67, 0
1, 65280, Tempo, 895522
1, 65280, Note_on_c, 1, 70, 50
1, 65280, Note_on_c, 4, 65, 46
1, 65280, Note_on_c, 5, 60, 46
1, 65520, Note_on_c, 1, 70, 0
1, 65520, Note_on_c, 1, 69, 47
1, 65708, Note_on_c, 1, 69, 0
1, 65760, Note_on_c, 1, 69, 44
1, 66173, Note_on_c, 4, 65, 0
1, 66188, Note_on_c, 5, 60, 0
1, 66240, Note_on_c, 4, 65, 39
1, 66240, Note_on_c, 5, 60, 39
1, 66660, Note_on_c, 1, 69, 0
1, 66720, Note_on_c, 1, 68, 46
1, 67133, Note_on_c, 4, 65, 0
1, 67140, Note_on_c, 5, 60, 0
1, 67200, Note_on_c, 4, 63, 50
1, 67200, Note_on_c, 5, 60, 50
1, 67620, Note_on_c, 1, 68, 0
1, 67680, Note_on_c, 1, 67, 55
1, 67740, Note_on_c, 1, 68, 58
1, 67778, Note_on_c, 1, 67, 0
1, 68100, Note_on_c, 5, 60, 0
1, 68108, Note_on_c, 4, 63, 0
1, 68160, Note_on_c, 4, 63, 59
1, 68160, Note_on_c, 5, 59, 59
1, 68580, Note_on_c, 1, 68, 0
1, 68640, Note_on_c, 1, 67, 64
1, 68700, Note_on_c, 1, 68, 69
1, 68760, Note_on_c, 1, 67, 0
1, 69000, Tempo, 923076
1, 69045, Note_on_c, 5, 59, 0
1, 69053, Note_on_c, 4, 63, 0
1, 69120, Tempo, 895522
1, 69120, Note_on_c, 4, 62, 68
1, 69120, Note_on_c, 5, 58, 68
1, 69350, Note_on_c, 1, 68, 0
1, 69360, Note_on_c, 1, 80, 70
1, 69600, Note_on_c, 1, 80, 0
1, 69600, Note_on_c, 1, 79, 68
1, 69840, Note_on_c, 1, 79, 0
1, 69840, Note_on_c, 1, 80, 67
1, 70020, Note_on_c, 4, 62, 0
1, 70020, Note_on_c, 5, 58, 0
1, 70028, Note_on_c, 1, 80, 0
1, 70080, Note_on_c, 4, 68, 64
1, 70080, Note_on_c, 5, 58, 64
1, 70320, Note_on_c, 1, 77, 64
1, 70560, Note_on_c, 1, 77, 0
1, 70560, Note_on_c, 1, 76, 63
1, 70800, Note_on_c, 1, 76, 0
1, 70800, Note_on_c, 1, 77, 61
1, 70973, Note_on_c, 4, 68, 0
1, 70980, Note_on_c, 5, 58, 0
1, 70988, Note_on_c, 1, 77, 0
1, 71040, Note_on_c, 4, 65, 61
1, 71040, Note_on_c, 5, 58, 61
1, 71280, Note_on_c, 1, 74, 59
1, 71520, Note_on_c, 1, 74, 0
1, 71520, Note_on_c, 1, 73, 57
1, 71760, Note_on_c, 1, 73, 0
1, 71760, Note_on_c, 1, 74, 56
1, 71940, Note_on_c, 1, 74, 0
1, 71940, Note_on_c, 4, 65, 0
1, 71940, Note_on_c, 5, 58, 0
1, 72000, Note_on_c, 4, 65, 57
1, 72000, Note_on_c, 4, 62, 57
1, 72000, Note_on_c, 5, 58, 57
1, 72240, Note_on_c, 1, 68, 53
1, 72480, Note_on_c, 1, 68, 0
1, 72480, Note_on_c, 1, 67, 52
1, 72720, Note_on_c, 1, 67, 0
1, 72720, Note_on_c, 1, 68, 50
1, 72840, Tempo, 923076
1, 72893, Note_on_c, 5, 58, 0
1, 72900, Note_on_c, 4, 65, 0
1, 72900, Note_on_c, 4, 62, 0
1, 72908, Note_on_c, 1, 68, 0
1, 72960, Tempo, 895522
1, 72960, Note_on_c, 1, 67, 49
1, 73200, Note_on_c, 5, 63, 54
1, 73440, Note_on_c, 5, 63, 0
1, 73440, Note_on_c, 5, 62, 53
1, 73680, Note_on_c, 5, 62, 0
1, 73680, Note_on_c, 5, 63, 51
1, 73853, Note_on_c, 1, 67, 0
1, 73868, Note_on_c, 5, 63, 0
1, 73920, Note_on_c, 1, 67, 48
1, 73920, Note_on_c, 2, 63, 48
1, 74160, Note_on_c, 5, 61, 49
1, 74400, Note_on_c, 5, 61, 0
1, 74400, Note_on_c, 5, 60, 48
1, 74640, Note_on_c, 5, 60, 0
1, 74640, Note_on_c, 5, 61, 47
1, 74813, Note_on_c, 1, 67, 0
1, 74828, Note_on_c, 2, 63, 0
1, 74828, Note_on_c, 5, 61, 0
1, 74880, Note_on_c, 1, 68, 45
1, 74880, Note_on_c, 2, 63, 45
1, 75120, Note_on_c, 5, 60, 48
1, 75360, Note_on_c, 5, 60, 0
1, 75360, Note_on_c, 5, 59, 51
1, 75600, Note_on_c, 5, 59, 0
1, 75600, Note_on_c, 5, 60, 53
1, 75780, Note_on_c, 2, 63, 0
1, 75788, Note_on_c, 1, 68, 0
1, 75788, Note_on_c, 5, 60, 0
1, 75840, Note_on_c, 1, 69, 56
1, 75840, Note_on_c, 2, 63, 56
1, 76080, Note_on_c, 5, 59, 59
1, 76320, Note_on_c, 5, 59, 0
1, 76320, Note_on_c, 5, 58, 60
1, 76560, Note_on_c, 5, 58, 0
1, 76560, Note_on_c, 5, 59, 64
1, 76680, Tempo, 923076
1, 76740, Note_on_c, 2, 63, 0
1, 76740, Note_on_c, 5, 59, 0
1, 76748, Note_on_c, 1, 69, 0
1, 76800, Tempo, 895522
1, 76800, Note_on_c, 4, 62, 75
1, 76800, Note_on_c, 5, 58, 75
1, 76920, Note_on_c, 1, 70, 73
1, 77040, Note_on_c, 1, 70, 0
1, 77040, Note_on_c, 1, 69, 72
1, 77160, Note_on_c, 1, 69, 0
1, 77160, Note_on_c, 1, 70, 72
1, 77280, Note_on_c, 1, 70, 0
1, 77280, Note_on_c, 1, 69, 71
1, 77400, Note_on_c, 1, 69, 0
1, 77400, Note_on_c, 1, 70, 70
1, 77520, Note_on_c, 1, 70, 0
1, 77520, Note_on_c, 1, 72, 69
1, 77640, Note_on_c, 1, 72, 0
1, 77640, Note_on_c, 1, 70, 68
1, 77693, Note_on_c, 4, 62, 0
1, 77708, Note_on_c, 5, 58, 0
1, 77745, Note_on_c, 1, 70, 0
1, 77760, Note_on_c, 4, 60, 55
1, 77760, Note_on_c, 5, 58, 55
1, 77880, Note_on_c, 1, 75, 54
1, 78000, Note_on_c, 1, 75, 0
1, 78000, Note_on_c, 1, 74, 54
1, 78120, Note_on_c, 1, 74, 0
1, 78120, Note_on_c, 1, 75, 53
1, 78240, Note_on_c, 1, 75, 0
1, 78240, Note_on_c, 1, 74, 52
1, 78240, Note_on_c, 4, 60, 0
1, 78240, Note_on_c, 4, 63, 52
1, 78360, Note_on_c, 1, 74, 0
1, 78360, Note_on_c, 1, 72, 51
1, 78480, Note_on_c, 1, 72, 0
1, 78480, Note_on_c, 1, 70, 51
1, 78600, Tempo, 923076
1, 78600, Note_on_c, 1, 70, 0
1, 78600, Note_on_c, 1, 69, 50
1, 78660, Note_on_c, 4, 63, 0
1, 78660, Note_on_c, 5, 58, 0
1, 78705, Note_on_c, 1, 69, 0
1, 78720, Tempo, 895522
1, 78720, Note_on_c, 4, 62, 64
1, 78720, Note_on_c, 5, 58, 64
1, 78840, Note_on_c, 1, 70, 65
1, 78960, Note_on_c, 1, 70, 0
1, 78960, Note_on_c, 1, 69, 64
1, 79080, Note_on_c, 1, 69, 0
1, 79080, Note_on_c, 1, 70, 63
1, 79200, Note_on_c, 1, 70, 0
1, 79200, Note_on_c, 1, 69, 63
1, 79320, Note_on_c, 1, 69, 0
1, 79320, Note_on_c, 1, 70, 62
1, 79440, Note_on_c, 1, 70, 0
1, 79440, Note_on_c, 1, 72, 61
1, 79560, Note_on_c, 1, 72, 0
1, 79560, Note_on_c, 1, 70, 60
1, 79620, Note_on_c, 5, 58, 0
1, 79635, Note_on_c, 4, 62, 0
1, 79665, Note_on_c, 1, 70, 0
1, 79680, Note_on_c, 4, 60, 47
1, 79680, Note_on_c, 5, 58, 47
1, 79800, Note_on_c, 1, 75, 46
1, 79920, Note_on_c, 1, 75, 0
1, 79920, Note_on_c, 1, 74, 46
1, 80040, Note_on_c, 1, 74, 0
1, 80040, Note_on_c, 1, 75, 45
1, 80160, Note_on_c, 1, 75, 0
1, 80160, Note_on_c, 1, 74, 44
1, 80160, Note_on_c, 4, 60, 0
1, 80160, Note_on_c, 4, 63, 44
1, 80280, Note_on_c, 1, 74, 0
1, 80280, Note_on_c, 1, 72, 43
1, 80400, Note_on_c, 1, 72, 0
1, 80400, Note_on_c, 1, 70, 43
1, 80520, Tempo, 923076
1, 80520, Note_on_c, 1, 70, 0
1, 80520, Note_on_c, 1, 69, 42
1, 80588, Note_on_c, 4, 63, 0
1, 80588, Note_on_c, 5, 58, 0
1, 80630, Note_on_c, 1, 69, 0
1, 80640, Note_on_c, 1, 70, 51
1, 80640, Note_on_c, 4, 63, 51
1, 80640, Note_on_c, 5, 58, 51
1, 80700, Note_on_c, 1, 69, 50
1, 80710, Note_on_c, 1, 70, 0
1, 80760, Note_on_c, 1, 70, 49
1, 80770, Note_on_c, 1, 69, 0
1, 80820, Note_on_c, 1, 70, 0
1, 80820, Note_on_c, 1, 69, 49
1, 80880, Note_on_c, 1, 70, 48
1, 80890, Note_on_c, 1, 69, 0
1, 80940, Note_on_c, 1, 70, 0
1, 80940, Note_on_c, 1, 69, 47
1, 81000, Note_on_c, 1, 68, 47
1, 81010, Note_on_c, 1, 69, 0
1, 81060, Note_on_c, 1, 68, 0
1, 81060, Note_on_c, 1, 69, 46
1, 81120, Note_on_c, 1, 72, 45
1, 81130, Note_on_c, 1, 69, 0
1, 81480, Tempo, 952380
1, 81480, Note_on_c, 1, 72, 0
1, 81480, Note_on_c, 1, 70, 41
1, 81540, Note_on_c, 5, 58, 0
1, 81548, Note_on_c, 4, 63, 0
1, 81580, Note_on_c, 1, 70, 0
1, 81600, Tempo, 1132075
1, 81600, Note_on_c, 1, 70, 38
1, 81600, Note_on_c, 4, 62, 38
1, 81600, Note_on_c, 5, 58, 38
1, 82560, Tempo, 923076
1, 82560, Note_on_c, 1, 70, 0
1, 82560, Note_on_c, 1, 71, 41
1, 82560, Note_on_c, 4, 62, 0
1, 82560, Note_on_c, 5, 58, 0
1, 82800, Note_on_c, 1, 71, 0
1, 82800, Note_on_c, 1, 72, 43
1, 83040, Note_on_c, 1, 72, 0
1, 83040, Note_on_c, 1, 74, 45
1, 83280, Note_on_c, 1, 74, 0
1, 83280, Note_on_c, 1, 72, 44
1, 83520, Note_on_c, 1, 72, 0
1, 83520, Note_on_c, 1, 70, 43
1, 83760, Note_on_c, 1, 70, 0
1, 83760, Note_on_c, 1, 68, 41
1, 84000, Note_on_c, 1, 68, 0
1, 84000, Note_on_c, 1, 67, 39
1, 84120, Tempo, 952380
1, 84240, Tempo, 1224489
1, 84240, Note_on_c, 1, 67, 0
1, 84240, Note_on_c, 1, 65, 36
1, 84420, Note_on_c, 1, 65, 0
1, 84480, Tempo, 895522
1, 84480, Note_on_c, 1, 67, 34
1, 84480, Note_on_c, 4, 51, 34
1, 84720, Note_on_c, 3, 55, 36
1, 84720, Note_on_c, 4, 51, 0
1, 84960, Note_on_c, 1, 67, 0
1, 84960, Note_on_c, 3, 55, 0
1, 84960, Note_on_c, 3, 58, 38
1, 85200, Note_on_c, 3, 58, 0
1, 85200, Note_on_c, 3, 63, 40
1, 85373, Note_on_c, 3, 63, 0
1, 85440, Note_on_c, 1, 70, 42
1, 85440, Note_on_c, 4, 51, 42
1, 85680, Note_on_c, 3, 55, 44
1, 85680, Note_on_c, 4, 51, 0
1, 85920, Note_on_c, 1, 70, 0
1, 85920, Note_on_c, 3, 55, 0
1, 85920, Note_on_c, 3, 58, 46
1, 86160, Note_on_c, 3, 58, 0
1, 86160, Note_on_c, 3, 63, 48
1, 86280, Tempo, 923076
1, 86348, Note_on_c, 3, 63, 0
1, 86400, Tempo, 895522
1, 86400, Note_on_c, 4, 49, 53
1, 86640, Note_on_c, 3, 55, 50
1, 86640, Note_on_c, 4, 49, 0
1, 86820, Note_on_c, 1, 77, 46
1, 86880, Note_on_c, 1, 77, 0
1, 86880, Note_on_c, 1, 75, 47
1, 86880, Note_on_c, 3, 55, 0
1, 86880, Note_on_c, 3, 58, 48
1, 87000, Note_on_c, 1, 75, 0
1, 87000, Note_on_c, 1, 74, 49
1, 87120, Note_on_c, 1, 74, 0
1, 87120, Note_on_c, 1, 75, 51
1, 87120, Note_on_c, 3, 58, 0
1, 87120, Note_on_c, 3, 61, 47
1, 87240, Note_on_c, 1, 75, 0
1, 87240, Note_on_c, 1, 77, 54
1, 87308, Note_on_c, 3, 61, 0
1, 87345, Note_on_c, 1, 77, 0
1, 87360, Note_on_c, 1, 75, 56
1, 87360, Note_on_c, 4, 49, 46
1, 87600, Note_on_c, 3, 55, 44
1, 87600, Note_on_c, 4, 49, 0
1, 87720, Note_on_c, 1, 75, 0
1, 87840, Note_on_c, 1, 67, 50
1, 87840, Note_on_c, 3, 55, 0
1, 87840, Note_on_c, 3, 58, 43
1, 88080, Note_on_c, 3, 58, 0
1, 88080, Note_on_c, 3, 61, 42
1, 88200, Tempo, 923076
1, 88208, Note_on_c, 1, 67, 0
1, 88268, Note_on_c, 3, 61, 0
1, 88320, Tempo, 895522
1, 88320, Note_on_c, 1, 70, 45
1, 88320, Note_on_c, 4, 48, 38
1, 88560, Note_on_c, 3, 51, 39
1, 88560, Note_on_c, 4, 48, 0
1, 88800, Note_on_c, 1, 70, 0
1, 88800, Note_on_c, 1, 68, 41
1, 88800, Note_on_c, 3, 51, 0
1, 88800, Note_on_c, 3, 56, 40
1, 89040, Note_on_c, 3, 56, 0
1, 89040, Note_on_c, 3, 60, 42
1, 89110, Note_on_c, 1, 68, 0
1, 89220, Note_on_c, 3, 60, 0
1, 89280, Note_on_c, 1, 68, 37
1, 89280, Note_on_c, 4, 48, 43
1, 89520, Note_on_c, 3, 51, 44
1, 89520, Note_on_c, 4, 48, 0
1, 89590, Note_on_c, 1, 68, 0
1, 89760, Note_on_c, 3, 51, 0
1, 89760, Note_on_c, 3, 56, 46
1, 90000, Note_on_c, 3, 56, 0
1, 90000, Note_on_c, 3, 60, 47
1, 90120, Tempo, 923076
1, 90180, Note_on_c, 3, 60, 0
1, 90240, Tempo, 895522
1, 90240, Note_on_c, 4, 55, 48
1, 90480, Note_on_c, 3, 58, 50
1, 90480, Note_on_c, 4, 55, 0
1, 90660, Note_on_c, 1, 77, 49
1, 90720, Note_on_c, 1, 77, 0
1, 90720, Note_on_c, 1, 75, 50
1, 90720, Note_on_c, 3, 58, 0
1, 90720, Note_on_c, 3, 63, 51
1, 90840, Note_on_c, 1, 75, 0
1, 90840, Note_on_c, 1, 74, 51
1, 90960, Note_on_c, 1, 74, 0
1, 90960, Note_on_c, 1, 75, 52
1, 90960, Note_on_c, 3, 63, 0
1, 90960, Note_on_c, 3, 67, 52
1, 91080, Note_on_c, 1, 75, 0
1, 91080, Note_on_c, 1, 77, 53
1, 91133, Note_on_c, 3, 67, 0
1, 91170, Note_on_c, 1, 77, 0
1, 91200, Note_on_c, 1, 75, 55
1, 91200, Note_on_c, 4, 55, 54
1, 91440, Note_on_c, 3, 58, 55
1, 91440, Note_on_c, 4, 55, 0
1, 91510, Note_on_c, 1, 75, 0
1, 91680, Note_on_c, 1, 73, 60
1, 91680, Note_on_c, 3, 58, 0
1, 91680, Note_on_c, 3, 63, 56
1, 91920, Note_on_c, 3, 63, 0
1, 91920, Note_on_c, 3, 67, 58
1, 91990, Note_on_c, 1, 73, 0
1, 92040, Tempo, 923076
1, 92108, Note_on_c, 3, 67, 0
1, 92160, Tempo, 895522
1, 92160, Note_on_c, 1, 71, 66
1, 92160, Note_on_c, 4, 56, 62
1, 92400, Note_on_c, 3, 60, 58
1, 92400, Note_on_c, 4, 56, 0
1, 92640, Note_on_c, 1, 71, 0
1, 92640, Note_on_c, 1, 72, 58
1, 92640, Note_on_c, 3, 60, 0
1, 92640, Note_on_c, 3, 63, 55
1, 92880, Note_on_c, 3, 63, 0
1, 92880, Note_on_c, 3, 68, 53
1, 92950, Note_on_c, 1, 72, 0
1, 93075, Note_on_c, 3, 68, 0
1, 93120, Note_on_c, 4, 56, 51
1, 93360, Note_on_c, 3, 60, 54
1, 93360, Note_on_c, 4, 56, 0
1, 93600, Note_on_c, 1, 72, 57
1, 93600, Note_on_c, 3, 60, 0
1, 93600, Note_on_c, 3, 63, 57
1, 93840, Note_on_c, 3, 63, 0
1, 93840, Note_on_c, 3, 68, 60
1, 93910, Note_on_c, 1, 72, 0
1, 93960, Tempo, 923076
1, 94035, Note_on_c, 3, 68, 0
1, 94080, Tempo, 895522
1, 94080, Note_on_c, 1, 75, 66
1, 94080, Note_on_c, 4, 56, 66
1, 94320, Note_on_c, 3, 58, 62
1, 94320, Note_on_c, 4, 56, 0
1, 94560, Note_on_c, 1, 75, 0
1, 94560, Note_on_c, 1, 74, 58
1, 94560, Note_on_c, 3, 58, 0
1, 94560, Note_on_c, 3, 62, 58
1, 94800, Note_on_c, 3, 62, 0
1, 94800, Note_on_c, 3, 65, 55
1, 94870, Note_on_c, 1, 74, 0
1, 94980, Note_on_c, 3, 65, 0
1, 95040, Note_on_c, 4, 56, 52
1, 95280, Note_on_c, 3, 58, 54
1, 95280, Note_on_c, 4, 56, 0
1, 95520, Note_on_c, 1, 70, 55
1, 95520, Note_on_c, 3, 58, 0
1, 95520, Note_on_c, 3, 62, 55
1, 95760, Note_on_c, 3, 62, 0
1, 95760, Note_on_c, 3, 65, 57
1, 95830, Note_on_c, 1, 70, 0
1, 95880, Tempo, 923076
1, 95948, Note_on_c, 3, 65, 0
1, 96000, Tempo, 895522
1, 96000, Note_on_c, 1, 77, 61
1, 96000, Note_on_c, 4, 55, 61
1, 96240, Note_on_c, 3, 58, 58
1, 96240, Note_on_c, 4, 55, 0
1, 96480, Note_on_c, 1, 77, 0
1, 96480, Note_on_c, 1, 75, 55
1, 96480, Note_on_c, 3, 58, 0
1, 96480, Note_on_c, 3, 63, 55
1, 96720, Note_on_c, 3, 63, 0
1, 96720, Note_on_c, 3, 67, 53
1, 96790, Note_on_c, 1, 75, 0
1, 96908, Note_on_c, 3, 67, 0
1, 96960, Note_on_c, 4, 55, 54
1, 97200, Note_on_c, 3, 58, 56
1, 97200, Note_on_c, 4, 55, 0
1, 97440, Note_on_c, 1, 75, 61
1, 97440, Note_on_c, 3, 58, 0
1, 97440, Note_on_c, 3, 63, 61
1, 97680, Note_on_c, 3, 63, 0
1, 97680, Note_on_c, 3, 67, 65
1, 97750, Note_on_c, 1, 75, 0
1, 97800, Tempo, 923076
1, 97868, Note_on_c, 3, 67, 0
1, 97920, Tempo, 895522
1, 97920, Note_on_c, 1, 77, 70
1, 97920, Note_on_c, 4, 57, 70
1, 98160, Note_on_c, 3, 60, 69
1, 98160, Note_on_c, 4, 57, 0
1, 98400, Note_on_c, 1, 77, 0
1, 98400, Note_on_c, 1, 78, 67
1, 98400, Note_on_c, 3, 60, 0
1, 98400, Note_on_c, 3, 63, 67
1, 98640, Note_on_c, 3, 63, 0
1, 98640, Note_on_c, 3, 66, 65
1, 98710, Note_on_c, 1, 78, 0
1, 98820, Note_on_c, 3, 66, 0
1, 98880, Note_on_c, 4, 57, 64
1, 99120, Note_on_c, 3, 60, 62
1, 99120, Note_on_c, 4, 57, 0
1, 99360, Note_on_c, 1, 75, 60
1, 99360, Note_on_c, 3, 60, 0
1, 99360, Note_on_c, 3, 63, 60
1, 99600, Note_on_c, 3, 63, 0
1, 99600, Note_on_c, 3, 66, 58
1, 99670, Note_on_c, 1, 75, 0
1, 99720, Tempo, 923076
1, 99780, Note_on_c, 3, 66, 0
1, 99840, Tempo, 895522
1, 99840, Note_on_c, 1, 74, 48
1, 99840, Note_on_c, 4, 65, 52
1, 99840, Note_on_c, 5, 58, 52
1, 100080, Note_on_c, 1, 74, 0
1, 100080, Note_on_c, 1, 75, 50
1, 100080, Note_on_c, 4, 65, 0
1, 100080, Note_on_c, 4, 66, 53
1, 100320, Note_on_c, 1, 75, 0
1, 100320, Note_on_c, 1, 74, 52
1, 100320, Note_on_c, 4, 66, 0
1, 100320, Note_on_c, 4, 65, 55
1, 100560, Note_on_c, 1, 74, 0
1, 100560, Note_on_c, 1, 78, 54
1, 100560, Note_on_c, 4, 65, 0
1, 100560, Note_on_c, 4, 63, 56
1, 100800, Note_on_c, 1, 78, 0
1, 100800, Note_on_c, 1, 77, 56
1, 100800, Note_on_c, 4, 63, 0
1, 100800, Note_on_c, 4, 62, 57
1, 101040, Note_on_c, 1, 77, 0
1, 101040, Note_on_c, 1, 81, 57
1, 101040, Note_on_c, 2, 75, 57
1, 101040, Note_on_c, 4, 62, 0
1, 101040, Note_on_c, 4, 66, 59
1, 101280, Note_on_c, 1, 81, 0
1, 101280, Note_on_c, 1, 82, 59
1, 101280, Note_on_c, 2, 75, 0
1, 101280, Note_on_c, 2, 74, 59
1, 101280, Note_on_c, 4, 66, 0
1, 101280, Note_on_c, 4, 65, 60
1, 101520, Tempo, 1111111
1, 101520, Note_on_c, 1, 82, 0
1, 101520, Note_on_c, 1, 78, 61
1, 101520, Note_on_c, 2, 74, 0
1, 101520, Note_on_c, 2, 69, 61
1, 101520, Note_on_c, 4, 65, 0
1, 101520, Note_on_c, 4, 63, 61
1, 101708, Note_on_c, 2, 69, 0
1, 101715, Note_on_c, 1, 78, 0
1, 101715, Note_on_c, 4, 63, 0
1, 101760, Tempo, 1034482
1, 101760, Note_on_c, 1, 78, 66
1, 101760, Note_on_c, 2, 69, 66
1, 101760, Note_on_c, 4, 63, 66
1, 102720, Tempo, 1111111
1, 102720, Note_on_c, 1, 78, 0
1, 102720, Note_on_c, 1, 77, 42
1, 102720, Note_on_c, 2, 69, 0
1, 102720, Note_on_c, 2, 70, 42
1, 102720, Note_on_c, 4, 63, 0
1, 102720, Note_on_c, 4, 62, 42
1, 103200, Note_on_c, 1, 77, 0
1, 103200, Note_on_c, 2, 70, 0
1, 103200, Note_on_c, 4, 62, 0
1, 103210, Note_on_c, 5, 58, 0
1, 103680, Tempo, 923076
1, 103680, Note_on_c, 4, 51, 52
1, 103740, Tempo, 895522
1, 103920, Note_on_c, 3, 55, 36
1, 103920, Note_on_c, 3, 58, 36
1, 104110, Note_on_c, 3, 55, 0
1, 104110, Note_on_c, 3, 58, 0
1, 104160, Note_on_c, 3, 55, 36
1, 104160, Note_on_c, 3, 58, 36
1, 104350, Note_on_c, 3, 55, 0
1, 104350, Note_on_c, 3, 58, 0
1, 104400, Note_on_c, 3, 55, 37
1, 104400, Note_on_c, 3, 58, 37
1, 104588, Note_on_c, 4, 51, 0
1, 104590, Note_on_c, 3, 55, 0
1, 104590, Note_on_c, 3, 58, 0
1, 104640, Note_on_c, 4, 51, 38
1, 104880, Note_on_c, 1, 63, 38
1, 104880, Note_on_c, 3, 55, 38
1, 104880, Note_on_c, 3, 58, 38
1, 105070, Note_on_c, 3, 55, 0
1, 105070, Note_on_c, 3, 58, 0
1, 105120, Note_on_c, 1, 63, 0
1, 105120, Note_on_c, 1, 67, 39
1, 105120, Note_on_c, 3, 58, 39
1, 105120, Note_on_c, 3, 55, 39
1, 105310, Note_on_c, 3, 58, 0
1, 105310, Note_on_c, 3, 55, 0
1, 105360, Note_on_c, 1, 67, 0
1, 105360, Note_on_c, 1, 70, 42
1, 105360, Note_on_c, 3, 55, 39
1, 105360, Note_on_c, 3, 58, 39
1, 105540, Tempo, 923076
1, 105548, Note_on_c, 1, 70, 0
1, 105548, Note_on_c, 4, 51, 0
1, 105550, Note_on_c, 3, 55, 0
1, 105550, Note_on_c, 3, 58, 0
1, 105600, Tempo, 895522
1, 105600, Note_on_c, 1, 70, 45
1, 105600, Note_on_c, 4, 53, 40
1, 105840, Note_on_c, 1, 70, 0
1, 105840, Note_on_c, 1, 68, 44
1, 105840, Note_on_c, 3, 56, 40
1, 105840, Note_on_c, 3, 58, 40
1, 105936, Note_on_c, 1, 68, 0
1, 106030, Note_on_c, 3, 56, 0
1, 106030, Note_on_c, 3, 58, 0
1, 106080, Note_on_c, 1, 65, 41
1, 106080, Note_on_c, 3, 56, 41
1, 106080, Note_on_c, 3, 58, 41
1, 106176, Note_on_c, 1, 65, 0
1, 106270, Note_on_c, 3, 56, 0
1, 106270, Note_on_c, 3, 58, 0
1, 106320, Note_on_c, 1, 62, 39
1, 106320, Note_on_c, 3, 56, 42
1, 106320, Note_on_c, 3, 58, 42
1, 106416, Note_on_c, 1, 62, 0
1, 106500, Note_on_c, 4, 53, 0
1, 106510, Note_on_c, 3, 56, 0
1, 106510, Note_on_c, 3, 58, 0
1, 106560, Note_on_c, 4, 53, 42
1, 106800, Note_on_c, 1, 62, 43
1, 106800, Note_on_c, 3, 56, 43
1, 106800, Note_on_c, 3, 58, 43
1, 106990, Note_on_c, 3, 56, 0
1, 106990, Note_on_c, 3, 58, 0
1, 107040, Note_on_c, 1, 62, 0
1, 107040, Note_on_c, 1, 65, 44
1, 107040, Note_on_c, 3, 56, 43
1, 107040, Note_on_c, 3, 58, 43
1, 107230, Note_on_c, 3, 56, 0
1, 107230, Note_on_c, 3, 58, 0
1, 107280, Note_on_c, 1, 65, 0
1, 107280, Note_on_c, 1, 68, 47
1, 107280, Note_on_c, 3, 56, 44
1, 107280, Note_on_c, 3, 58, 44
1, 107453, Note_on_c, 1, 68, 0
1, 107460, Tempo, 923076
1, 107460, Note_on_c, 4, 53, 0
1, 107470, Note_on_c, 3, 56, 0
1, 107470, Note_on_c, 3, 58, 0
1, 107520, Tempo, 895522
1, 107520, Note_on_c, 1, 72, 50
1, 107520, Note_on_c, 4, 51, 44
1, 107760, Note_on_c, 1, 72, 0
1, 107760, Note_on_c, 1, 70, 47
1, 107760, Note_on_c, 3, 55, 45
1, 107760, Note_on_c, 3, 58, 45
1, 107856, Note_on_c, 1, 70, 0
1, 107950, Note_on_c, 3, 55, 0
1, 107950, Note_on_c, 3, 58, 0
1, 108000, Note_on_c, 1, 67, 45
1, 108000, Note_on_c, 3, 55, 46
1, 108000, Note_on_c, 3, 58, 46
1, 108096, Note_on_c, 1, 67, 0
1, 108190, Note_on_c, 3, 55, 0
1, 108190, Note_on_c, 3, 58, 0
1, 108240, Note_on_c, 1, 63, 43
1, 108240, Note_on_c, 3, 58, 46
1, 108240, Note_on_c, 3, 55, 46
1, 108336, Note_on_c, 1, 63, 0
1, 108360, Tempo, 923076
1, 108428, Note_on_c, 4, 51, 0
1, 108430, Note_on_c, 3, 58, 0
1, 108430, Note_on_c, 3, 55, 0
1, 108480, Note_on_c, 4, 63, 47
1, 108540, Tempo, 895522
1, 108720, Note_on_c, 1, 75, 47
1, 108720, Note_on_c, 3, 67, 47
1, 108720, Note_on_c, 3, 70, 47
1, 108910, Note_on_c, 3, 67, 0
1, 108910, Note_on_c, 3, 70, 0
1, 108960, Note_on_c, 1, 75, 0
1, 108960, Note_on_c, 1, 79, 48
1, 108960, Note_on_c, 3, 67, 48
1, 108960, Note_on_c, 3, 70, 48
1, 109150, Note_on_c, 3, 67, 0
1, 109150, Note_on_c, 3, 70, 0
1, 109200, Note_on_c, 1, 79, 0
1, 109200, Note_on_c, 1, 82, 51
1, 109200, Note_on_c, 3, 67, 48
1, 109200, Note_on_c, 3, 70, 48
1, 109380, Tempo, 923076
1, 109380, Note_on_c, 1, 82, 0
1, 109380, Note_on_c, 4, 63, 0
1, 109390, Note_on_c, 3, 67, 0
1, 109390, Note_on_c, 3, 70, 0
1, 109440, Tempo, 895522
1, 109440, Note_on_c, 1, 82, 54
1, 109440, Note_on_c, 4, 65, 49
1, 109680, Note_on_c, 1, 82, 0
1, 109680, Note_on_c, 1, 80, 53
1, 109680, Note_on_c, 3, 68, 50
1, 109680, Note_on_c, 3, 70, 50
1, 109776, Note_on_c, 1, 80, 0
1, 109870, Note_on_c, 3, 68, 0
1, 109870, Note_on_c, 3, 70, 0
1, 109920, Note_on_c, 1, 77, 51
1, 109920, Note_on_c, 3, 70, 50
1, 109920, Note_on_c, 3, 68, 50
1, 110016, Note_on_c, 1, 77, 0
1, 110110, Note_on_c, 3, 70, 0
1, 110110, Note_on_c, 3, 68, 0
1, 110160, Note_on_c, 1, 74, 50
1, 110160, Note_on_c, 3, 70, 51
1, 110160, Note_on_c, 3, 68, 51
1, 110256, Note_on_c, 1, 74, 0
1, 110348, Note_on_c, 4, 65, 0
1, 110350, Note_on_c, 3, 70, 0
1, 110350, Note_on_c, 3, 68, 0
1, 110400, Note_on_c, 4, 65, 51
1, 110640, Note_on_c, 1, 74, 52
1, 110640, Note_on_c, 3, 70, 52
1, 110640, Note_on_c, 3, 68, 52
1, 110830, Note_on_c, 3, 70, 0
1, 110830, Note_on_c, 3, 68, 0
1, 110880, Note_on_c, 1, 74, 0
1, 110880, Note_on_c, 1, 77, 54
1, 110880, Note_on_c, 3, 70, 52
1, 110880, Note_on_c, 3, 68, 52
1, 111070, Note_on_c, 3, 70, 0
1, 111070, Note_on_c, 3, 68, 0
1, 111120, Note_on_c, 1, 77, 0
1, 111120, Note_on_c, 1, 80, 58
1, 111120, Note_on_c, 3, 70, 53
1, 111120, Note_on_c, 3, 68, 53
1, 111293, Note_on_c, 4, 65, 0
1, 111300, Tempo, 923076
1, 111310, Note_on_c, 3, 70, 0
1, 111310, Note_on_c, 3, 68, 0
1, 111315, Note_on_c, 1, 80, 0
1, 111360, Tempo, 895522
1, 111360, Note_on_c, 1, 84, 61
1, 111360, Note_on_c, 4, 63, 53
1, 111600, Note_on_c, 1, 84, 0
1, 111600, Note_on_c, 1, 82, 58
1, 111600, Note_on_c, 3, 67, 54
1, 111600, Note_on_c, 3, 70, 54
1, 111696, Note_on_c, 1, 82, 0
1, 111790, Note_on_c, 3, 67, 0
1, 111790, Note_on_c, 3, 70, 0
1, 111840, Note_on_c, 1, 79, 56
1, 111840, Note_on_c, 3, 70, 55
1, 111840, Note_on_c, 3, 67, 55
1, 111936, Note_on_c, 1, 79, 0
1, 112030, Note_on_c, 3, 70, 0
1, 112030, Note_on_c, 3, 67, 0
1, 112080, Note_on_c, 1, 75, 54
1, 112080, Note_on_c, 3, 67, 55
1, 112080, Note_on_c, 3, 70, 55
1, 112176, Note_on_c, 1, 75, 0
1, 112215, Tempo, 923076
1, 112268, Note_on_c, 4, 63, 0
1, 112270, Note_on_c, 3, 67, 0
1, 112270, Note_on_c, 3, 70, 0
1, 112320, Note_on_c, 4, 51, 68
1, 112395, Tempo, 895522
1, 112560, Note_on_c, 1, 70, 70
1, 112560, Note_on_c, 3, 55, 70
1, 112560, Note_on_c, 4, 51, 0
1, 112710, Note_on_c, 1, 70, 0
1, 112800, Note_on_c, 1, 69, 72
1, 112800, Note_on_c, 3, 55, 0
1, 112800, Note_on_c, 4, 53, 72
1, 112920, Note_on_c, 1, 69, 0
1, 112920, Note_on_c, 1, 70, 73
1, 113040, Note_on_c, 1, 70, 0
1, 113040, Note_on_c, 1, 74, 74
1, 113040, Note_on_c, 3, 56, 74
1, 113040, Note_on_c, 4, 53, 0
1, 113160, Tempo, 952380
1, 113160, Note_on_c, 1, 74, 0
1, 113160, Note_on_c, 1, 70, 75
1, 113228, Note_on_c, 3, 56, 0
1, 113258, Note_on_c, 1, 70, 0
1, 113280, Tempo, 895522
1, 113280, Note_on_c, 1, 75, 79
1, 113280, Note_on_c, 4, 55, 76
1, 113520, Note_on_c, 1, 75, 0
1, 113520, Note_on_c, 1, 70, 76
1, 113520, Note_on_c, 3, 58, 74
1, 113700, Note_on_c, 1, 70, 0
1, 113760, Note_on_c, 1, 70, 74
1, 113760, Note_on_c, 3, 58, 0
1, 113760, Note_on_c, 3, 63, 73
1, 114000, Note_on_c, 3, 63, 0
1, 114000, Note_on_c, 3, 67, 72
1, 114188, Note_on_c, 3, 67, 0
1, 114188, Note_on_c, 4, 55, 0
1, 114240, Note_on_c, 4, 43, 71
1, 114480, Note_on_c, 1, 70, 0
1, 114480, Note_on_c, 1, 67, 69
1, 114480, Note_on_c, 3, 46, 69
1, 114720, Note_on_c, 1, 67, 0
1, 114720, Note_on_c, 1, 70, 68
1, 114720, Note_on_c, 3, 46, 0
1, 114720, Note_on_c, 3, 51, 68
1, 114840, Note_on_c, 1, 70, 0
1, 114840, Note_on_c, 1, 67, 67
1, 114938, Note_on_c, 1, 67, 0
1, 114960, Note_on_c, 1, 70, 67
1, 114960, Note_on_c, 3, 51, 0
1, 114960, Note_on_c, 3, 55, 67
1, 115080, Tempo, 923076
1, 115080, Note_on_c, 1, 70, 0
1, 115080, Note_on_c, 1, 67, 66
1, 115148, Note_on_c, 3, 55, 0
1, 115148, Note_on_c, 4, 43, 0
1, 115185, Note_on_c, 1, 67, 0
1, 115200, Tempo, 895522
1, 115200, Note_on_c, 1, 72, 71
1, 115200, Note_on_c, 4, 44, 65
1, 115440, Note_on_c, 1, 72, 0
1, 115440, Note_on_c, 1, 68, 67
1, 115440, Note_on_c, 3, 48, 64
1, 115628, Note_on_c, 1, 68, 0
1, 115680, Note_on_c, 1, 68, 63
1, 115680, Note_on_c, 3, 48, 0
1, 115680, Note_on_c, 3, 53, 63
1, 115920, Note_on_c, 3, 53, 0
1, 115920, Note_on_c, 3, 56, 62
1, 116100, Note_on_c, 3, 56, 0
1, 116115, Note_on_c, 4, 44, 0
1, 116160, Note_on_c, 4, 44, 60
1, 116390, Note_on_c, 1, 68, 0
1, 116400, Note_on_c, 1, 65, 59
1, 116400, Note_on_c, 3, 48, 59
1, 116640, Note_on_c, 1, 65, 0
1, 116640, Note_on_c, 1, 68, 58
1, 116640, Note_on_c, 3, 48, 0
1, 116640, Note_on_c, 3, 53, 58
1, 116760, Note_on_c, 1, 68, 0
1, 116760, Note_on_c, 1, 65, 57
1, 116850, Note_on_c, 1, 65, 0
1, 116880, Note_on_c, 1, 68, 57
1, 116880, Note_on_c, 3, 53, 0
1, 116880, Note_on_c, 3, 56, 57
1, 117000, Tempo, 923076
1, 117000, Note_on_c, 1, 68, 0
1, 117000, Note_on_c, 1, 65, 56
1, 117068, Note_on_c, 3, 56, 0
1, 117068, Note_on_c, 4, 44, 0
1, 117098, Note_on_c, 1, 65, 0
1, 117120, Tempo, 895522
1, 117120, Note_on_c, 1, 70, 61
1, 117120, Note_on_c, 4, 46, 55
1, 117360, Note_on_c, 1, 70, 0
1, 117360, Note_on_c, 1, 67, 56
1, 117360, Note_on_c, 3, 51, 54
1, 117600, Note_on_c, 3, 51, 0
1, 117600, Note_on_c, 3, 55, 53
1, 117720, Note_on_c, 1, 67, 0
1, 117720, Note_on_c, 1, 63, 53
1, 117818, Note_on_c, 1, 63, 0
1, 117840, Note_on_c, 1, 67, 52
1, 117840, Note_on_c, 3, 55, 0
1, 117840, Note_on_c, 3, 58, 52
1, 117960, Tempo, 923076
1, 117960, Note_on_c, 1, 67, 0
1, 117960, Note_on_c, 1, 63, 51
1, 118028, Note_on_c, 3, 58, 0
1, 118028, Note_on_c, 4, 46, 0
1, 118058, Note_on_c, 1, 63, 0
1, 118080, Tempo, 895522
1, 118080, Note_on_c, 1, 68, 57
1, 118080, Note_on_c, 4, 46, 50
1, 118320, Note_on_c, 1, 68, 0
1, 118320, Note_on_c, 1, 65, 54
1, 118320, Note_on_c, 3, 50, 49
1, 118560, Note_on_c, 3, 50, 0
1, 118560, Note_on_c, 3, 53, 48
1, 118680, Note_on_c, 1, 65, 0
1, 118680, Note_on_c, 1, 62, 51
1, 118785, Note_on_c, 1, 62, 0
1, 118800, Note_on_c, 1, 65, 50
1, 118800, Note_on_c, 3, 53, 0
1, 118800, Note_on_c, 3, 56, 46
1, 118890, Tempo, 952380
1, 118920, Note_on_c, 1, 65, 0
1, 118920, Note_on_c, 1, 62, 49
1, 118980, Note_on_c, 4, 46, 0
1, 118995, Note_on_c, 3, 56, 0
1, 119025, Note_on_c, 1, 62, 0
1, 119040, Tempo, 895522
1, 119040, Note_on_c, 1, 65, 48
1, 119040, Note_on_c, 3, 55, 46
1, 119040, Note_on_c, 4, 48, 46
1, 119160, Note_on_c, 1, 65, 0
1, 119160, Note_on_c, 1, 63, 47
1, 119280, Note_on_c, 1, 63, 0
1, 119280, Note_on_c, 1, 62, 48
1, 119400, Note_on_c, 1, 62, 0
1, 119400, Note_on_c, 1, 63, 49
1, 119520, Note_on_c, 1, 63, 0
1, 119520, Note_on_c, 1, 65, 50
1, 119520, Note_on_c, 3, 55, 0
1, 119520, Note_on_c, 4, 48, 0
1, 119760, Note_on_c, 1, 65, 0
1, 119760, Note_on_c, 1, 67, 52
1, 120000, Note_on_c, 1, 67, 0
1, 120000, Note_on_c, 1, 68, 54
1, 120240, Note_on_c, 1, 68, 0
1, 120240, Note_on_c, 1, 67, 57
1, 120300, Note_on_c, 1, 70, 58
1, 120330, Note_on_c, 1, 67, 0
1, 120480, Note_on_c, 1, 70, 0
1, 120480, Note_on_c, 1, 68, 62
1, 120540, Note_on_c, 1, 72, 63
1, 120570, Note_on_c, 1, 68, 0
1, 120720, Note_on_c, 1, 70, 67
1, 120740, Note_on_c, 1, 72, 0
1, 120780, Note_on_c, 1, 74, 68
1, 120810, Tempo, 1071428
1, 120810, Note_on_c, 1, 70, 0
1, 120930, Tempo, 895522
1, 120930, Note_on_c, 1, 74, 0
1, 120960, Note_on_c, 1, 75, 77
1, 120960, Note_on_c, 4, 70, 77
1, 120960, Note_on_c, 5, 67, 77
1, 121080, Note_on_c, 1, 75, 0
1, 121080, Note_on_c, 1, 82, 77
1, 121200, Note_on_c, 1, 82, 0
1, 121200, Note_on_c, 1, 81, 76
1, 121320, Note_on_c, 1, 81, 0
1, 121320, Note_on_c, 1, 82, 76
1, 121380, Note_on_c, 4, 70, 0
1, 121388, Note_on_c, 5, 67, 0
1, 121440, Note_on_c, 1, 82, 0
1, 121440, Note_on_c, 1, 84, 75
1, 121560, Note_on_c, 1, 84, 0
1, 121560, Note_on_c, 1, 82, 75
1, 121680, Note_on_c, 1, 82, 0
1, 121680, Note_on_c, 1, 81, 74
1, 121800, Note_on_c, 1, 81, 0
1, 121800, Note_on_c, 1, 82, 74
1, 121905, Note_on_c, 1, 82, 0
1, 121920, Note_on_c, 4, 75, 59
1, 121920, Note_on_c, 5, 67, 59
1, 122040, Note_on_c, 1, 82, 59
1, 122160, Note_on_c, 1, 82, 0
1, 122160, Note_on_c, 1, 81, 59
1, 122280, Note_on_c, 1, 81, 0
1, 122280, Note_on_c, 1, 82, 58
1, 122300, Note_on_c, 4, 75, 0
1, 122300, Note_on_c, 5, 67, 0
1, 122400, Note_on_c, 1, 82, 0
1, 122400, Note_on_c, 4, 75, 58
1, 122400, Note_on_c, 5, 67, 58
1, 122520, Note_on_c, 1, 81, 57
1, 122640, Note_on_c, 1, 81, 0
1, 122640, Note_on_c, 1, 82, 57
1, 122730, Tempo, 923076
1, 122760, Note_on_c, 1, 82, 0
1, 122760, Note_on_c, 1, 83, 57
1, 122780, Note_on_c, 4, 75, 0
1, 122780, Note_on_c, 5, 67, 0
1, 122858, Note_on_c, 1, 83, 0
1, 122880, Tempo, 895522
1, 122880, Note_on_c, 1, 84, 56
1, 122880, Note_on_c, 4, 75, 56
1, 122880, Note_on_c, 5, 68, 56
1, 123000, Note_on_c, 1, 84, 0
1, 123000, Note_on_c, 1, 77, 56
1, 123120, Note_on_c, 1, 77, 0
1, 123120, Note_on_c, 1, 76, 56
1, 123240, Note_on_c, 1, 76, 0
1, 123240, Note_on_c, 1, 77, 55
1, 123240, Note_on_c, 4, 75, 0
1, 123248, Note_on_c, 5, 68, 0
1, 123360, Note_on_c, 1, 77, 0
1, 123360, Note_on_c, 1, 79, 55
1, 123480, Note_on_c, 1, 79, 0
1, 123480, Note_on_c, 1, 77, 54
1, 123600, Note_on_c, 1, 77, 0
1, 123600, Note_on_c, 1, 76, 54
1, 123720, Note_on_c, 1, 76, 0
1, 123720, Note_on_c, 1, 77, 54
1, 123825, Note_on_c, 1, 77, 0
1, 123840, Note_on_c, 4, 75, 72
1, 123840, Note_on_c, 5, 68, 72
1, 123960, Note_on_c, 1, 77, 71
1, 124080, Note_on_c, 1, 77, 0
1, 124080, Note_on_c, 1, 76, 70
1, 124200, Note_on_c, 1, 76, 0
1, 124200, Note_on_c, 1, 77, 70
1, 124220, Note_on_c, 4, 75, 0
1, 124220, Note_on_c, 5, 68, 0
1, 124320, Note_on_c, 1, 77, 0
1, 124320, Note_on_c, 4, 75, 70
1, 124320, Note_on_c, 5, 69, 70
1, 124440, Note_on_c, 1, 76, 69
1, 124560, Note_on_c, 1, 76, 0
1, 124560, Note_on_c, 1, 77, 69
1, 124680, Note_on_c, 1, 77, 0
1, 124680, Note_on_c, 1, 78, 68
1, 124700, Note_on_c, 4, 75, 0
1, 124700, Note_on_c, 5, 69, 0
1, 124770, Note_on_c, 1, 78, 0
1, 124800, Note_on_c, 1, 79, 68
1, 124800, Note_on_c, 4, 70, 68
1, 124800, Note_on_c, 4, 75, 68
1, 125040, Note_on_c, 1, 79, 0
1, 125040, Note_on_c, 1, 80, 67
1, 125280, Note_on_c, 1, 80, 0
1, 125280, Note_on_c, 1, 81, 66
1, 125520, Tempo, 923076
1, 125520, Note_on_c, 1, 81, 0
1, 125520, Note_on_c, 1, 82, 65
1, 125708, Note_on_c, 4, 70, 0
1, 125715, Note_on_c, 4, 75, 0
1, 125730, Note_on_c, 1, 82, 0
1, 125760, Note_on_c, 1, 79, 63
1, 125820, Note_on_c, 1, 77, 62
1, 125840, Note_on_c, 1, 79, 0
1, 125880, Note_on_c, 1, 79, 62
1, 125900, Note_on_c, 1, 77, 0
1, 125940, Note_on_c, 1, 77, 61
1, 125960, Note_on_c, 1, 79, 0
1, 126000, Note_on_c, 1, 79, 61
1, 126020, Note_on_c, 1, 77, 0
1, 126060, Note_on_c, 1, 77, 60
1, 126080, Note_on_c, 1, 79, 0
1, 126120, Note_on_c, 1, 79, 60
1, 126140, Note_on_c, 1, 77, 0
1, 126180, Note_on_c, 1, 77, 59
1, 126200, Note_on_c, 1, 79, 0
1, 126240, Note_on_c, 1, 79, 59
1, 126240, Note_on_c, 4, 62, 59
1, 126240, Note_on_c, 4, 68, 59
1, 126240, Note_on_c, 5, 58, 59
1, 126260, Note_on_c, 1, 77, 0
1, 126300, Note_on_c, 1, 77, 58
1, 126320, Note_on_c, 1, 79, 0
1, 126360, Note_on_c, 1, 79, 57
1, 126380, Note_on_c, 1, 77, 0
1, 126420, Note_on_c, 1, 77, 57
1, 126440, Note_on_c, 1, 79, 0
1, 126480, Note_on_c, 1, 79, 56
1, 126500, Note_on_c, 1, 77, 0
1, 126540, Note_on_c, 1, 77, 56
1, 126560, Note_on_c, 1, 79, 0
1, 126600, Tempo, 952380
1, 126600, Note_on_c, 1, 75, 55
1, 126620, Note_on_c, 1, 77, 0
1, 126620, Note_on_c, 4, 62, 0
1, 126620, Note_on_c, 4, 68, 0
1, 126620, Note_on_c, 5, 58, 0
1, 126660, Tempo, 1000000
1, 126660, Note_on_c, 1, 77, 55
1, 126670, Note_on_c, 1, 75, 0
1, 126720, Tempo, 895522
1, 126720, Note_on_c, 1, 75, 54
1, 126720, Note_on_c, 4, 67, 54
1, 126720, Note_on_c, 5, 63, 54
1, 126725, Note_on_c, 1, 77, 0
1, 126910, Note_on_c, 4, 67, 0
1, 126910, Note_on_c, 5, 63, 0
1, 126960, Note_on_c, 4, 70, 52
1, 126960, Note_on_c, 5, 67, 52
1, 127200, Note_on_c, 1, 75, 0
1, 127200, Note_on_c, 4, 70, 0
1, 127200, Note_on_c, 4, 68, 51
1, 127200, Note_on_c, 5, 67, 0
1, 127200, Note_on_c, 5, 65, 51
1, 127440, Note_on_c, 4, 68, 0
1, 127440, Note_on_c, 4, 67, 49
1, 127440, Note_on_c, 5, 65, 0
1, 127440, Note_on_c, 5, 63, 49
1, 127635, Note_on_c, 4, 67, 0
1, 127643, Note_on_c, 5, 63, 0
1, 127680, Note_on_c, 1, 74, 52
1, 127720, Note_on_c, 1, 77, 55
1, 127760, Note_on_c, 1, 80, 57
1, 127765, Note_on_c, 1, 74, 0
1, 127805, Note_on_c, 1, 77, 0
1, 127920, Note_on_c, 4, 65, 51
1, 127920, Note_on_c, 5, 62, 51
1, 128110, Note_on_c, 1, 80, 0
1, 128160, Note_on_c, 4, 65, 0
1, 128160, Note_on_c, 4, 63, 48
1, 128160, Note_on_c, 5, 62, 0
1, 128160, Note_on_c, 5, 60, 48
1, 128400, Note_on_c, 4, 63, 0
1, 128400, Note_on_c, 4, 62, 47
1, 128400, Note_on_c, 5, 60, 0
1, 128400, Note_on_c, 5, 58, 47
1, 128520, Tempo, 909090
1, 128603, Note_on_c, 4, 62, 0
1, 128610, Note_on_c, 5, 58, 0
1, 128640, Note_on_c, 4, 63, 45
1, 128640, Note_on_c, 5, 51, 45
1, 128880, Note_on_c, 1, 79, 50
1, 129000, Note_on_c, 1, 79, 0
1, 129000, Note_on_c, 1, 82, 49
1, 129120, Note_on_c, 1, 82, 0
1, 129120, Note_on_c, 1, 80, 49
1, 129240, Note_on_c, 1, 80, 0
1, 129240, Note_on_c, 1, 77, 49
1, 129360, Note_on_c, 1, 77, 0
1, 129360, Note_on_c, 1, 75, 48
1, 129480, Note_on_c, 1, 75, 0
1, 129480, Note_on_c, 1, 79, 48
1, 129600, Note_on_c, 1, 79, 0
1, 129600, Note_on_c, 1, 77, 47
1, 129600, Note_on_c, 4, 63, 0
1, 129600, Note_on_c, 5, 51, 0
1, 129720, Note_on_c, 1, 77, 0
1, 129720, Note_on_c, 1, 74, 47
1, 129840, Note_on_c, 1, 74, 0
1, 129840, Note_on_c, 1, 72, 47
1, 129960, Note_on_c, 1, 72, 0
1, 129960, Note_on_c, 1, 75, 46
1, 130080, Note_on_c, 1, 75, 0
1, 130080, Note_on_c, 1, 74, 46
1, 130200, Note_on_c, 1, 74, 0
1, 130200, Note_on_c, 1, 70, 45
1, 130270, Tempo, 923076
1, 130320, Note_on_c, 1, 70, 0
1, 130320, Note_on_c, 1, 68, 45
1, 130380, Tempo, 1071428
1, 130440, Note_on_c, 1, 68, 0
1, 130440, Note_on_c, 1, 72, 44
1, 130455, Tempo, 1578947
1, 130538, Note_on_c, 1, 72, 0
1, 130560, Tempo, 895522
1, 130560, Note_on_c, 1, 70, 44
1, 130560, Note_on_c, 4, 67, 44
1, 130560, Note_on_c, 5, 63, 44
1, 131280, Note_on_c, 1, 70, 0
1, 131280, Note_on_c, 1, 72, 50
1, 131468, Note_on_c, 4, 67, 0
1, 131468, Note_on_c, 5, 63, 0
1, 131475, Note_on_c, 1, 72, 0
1, 131520, Note_on_c, 1, 70, 46
1, 131520, Note_on_c, 4, 67, 46
1, 131520, Note_on_c, 5, 63, 46
1, 131940, Note_on_c, 1, 70, 0
1, 132000, Note_on_c, 1, 70, 48
1, 132420, Note_on_c, 4, 67, 0
1, 132420, Note_on_c, 5, 63, 0
1, 132480, Note_on_c, 4, 65, 49
1, 132480, Note_on_c, 5, 62, 49
1, 132700, Note_on_c, 1, 70, 0
1, 132720, Note_on_c, 1, 71, 50
1, 132960, Note_on_c, 1, 71, 0
1, 132960, Note_on_c, 1, 72, 51
1, 133200, Note_on_c, 1, 72, 0
1, 133200, Note_on_c, 1, 74, 53
1, 133373, Note_on_c, 4, 65, 0
1, 133388, Note_on_c, 5, 62, 0
1, 133440, Note_on_c, 1, 74, 0
1, 133440, Note_on_c, 1, 75, 54
1, 133440, Note_on_c, 4, 67, 52
1, 133440, Note_on_c, 5, 60, 52
1, 133680, Note_on_c, 1, 75, 0
1, 133680, Note_on_c, 1, 77, 56
1, 133920, Note_on_c, 1, 77, 0
1, 133920, Note_on_c, 1, 79, 57
1, 134160, Note_on_c, 1, 79, 0
1, 134160, Note_on_c, 1, 75, 59
1, 134160, Note_on_c, 4, 67, 0
1, 134160, Note_on_c, 4, 69, 54
1, 134280, Tempo, 952380
1, 134340, Note_on_c, 5, 60, 0
1, 134348, Note_on_c, 4, 69, 0
1, 134355, Note_on_c, 1, 75, 0
1, 134400, Tempo, 895522
1, 134400, Note_on_c, 1, 77, 62
1, 134400, Note_on_c, 4, 70, 57
1, 134400, Note_on_c, 5, 58, 57
1, 134630, Note_on_c, 1, 77, 0
1, 134640, Note_on_c, 1, 75, 61
1, 134870, Note_on_c, 1, 75, 0
1, 134880, Note_on_c, 1, 74, 57
1, 135300, Note_on_c, 4, 70, 0
1, 135300, Note_on_c, 5, 58, 0
1, 135360, Note_on_c, 4, 68, 50
1, 135360, Note_on_c, 5, 62, 50
1, 135840, Note_on_c, 1, 74, 0
1, 135840, Note_on_c, 1, 72, 51
1, 136200, Tempo, 952380
1, 136245, Note_on_c, 4, 68, 0
1, 136253, Note_on_c, 5, 62, 0
1, 136320, Note_on_c, 4, 67, 45
1, 136320, Note_on_c, 5, 63, 45
1, 136480, Note_on_c, 1, 72, 0
1, 136480, Note_on_c, 1, 70, 46
1, 136640, Note_on_c, 1, 70, 0
1, 136640, Note_on_c, 1, 74, 45
1, 136800, Note_on_c, 1, 74, 0
1, 136800, Note_on_c, 1, 75, 44
1, 136800, Note_on_c, 4, 67, 0
1, 136800, Note_on_c, 5, 63, 0
1, 136960, Note_on_c, 1, 75, 0
1, 136960, Note_on_c, 1, 79, 43
1, 137120, Note_on_c, 1, 79, 0
1, 137120, Note_on_c, 1, 71, 41
1, 137250, Note_on_c, 1, 71, 0
1, 137280, Note_on_c, 1, 72, 40
1, 137280, Note_on_c, 4, 68, 40
1, 137280, Note_on_c, 5, 56, 40
1, 137440, Note_on_c, 1, 72, 0
1, 137440, Note_on_c, 1, 75, 39
1, 137600, Note_on_c, 1, 75, 0
1, 137600, Note_on_c, 1, 67, 38
1, 137660, Note_on_c, 4, 68, 0
1, 137660, Note_on_c, 5, 56, 0
1, 137760, Note_on_c, 1, 67, 0
1, 137760, Note_on_c, 1, 68, 37
1, 137920, Note_on_c, 1, 68, 0
1, 137920, Note_on_c, 1, 72, 35
1, 138080, Note_on_c, 1, 72, 0
1, 138080, Note_on_c, 1, 65, 34
1, 138105, Tempo, 1034482
1, 138210, Note_on_c, 1, 65, 0
1, 138240, Tempo, 1000000
1, 138240, Note_on_c, 1, 63, 33
1, 138720, Note_on_c, 4, 55, 33
1, 138720, Note_on_c, 5, 46, 33
1, 139100, Note_on_c, 4, 55, 0
1, 139100, Note_on_c, 5, 46, 0
1, 139200, Note_on_c, 4, 55, 31
1, 139200, Note_on_c, 5, 46, 31
1, 139560, Tempo, 1034482
1, 139580, Note_on_c, 4, 55, 0
1, 139580, Note_on_c, 5, 46, 0
1, 139680, Note_on_c, 1, 63, 0
1, 139680, Note_on_c, 1, 67, 28
1, 139680, Note_on_c, 2, 62, 28
1, 139680, Note_on_c, 4, 56, 28
1, 139680, Note_on_c, 5, 46, 28
1, 139920, Note_on_c, 1, 67, 0
1, 139920, Note_on_c, 1, 65, 30
1, 139935, Tempo, 1333333
1, 140060, Note_on_c, 4, 56, 0
1, 140060, Note_on_c, 5, 46, 0
1, 140115, Note_on_c, 2, 62, 0
1, 140123, Note_on_c, 1, 65, 0
1, 140160, Note_on_c, 1, 65, 27
1, 140160, Note_on_c, 2, 62, 27
1, 140160, Note_on_c, 4, 56, 26
1, 140160, Note_on_c, 5, 51, 26
1, 141120, Tempo, 1276595
1, 141120, Note_on_c, 1, 65, 0
1, 141120, Note_on_c, 1, 63, 21
1, 141120, Note_on_c, 2, 62, 0
1, 141120, Note_on_c, 4, 56, 0
1, 141120, Note_on_c, 4, 55, 21
1, 141600, Note_on_c, 1, 63, 0
1, 141600, Note_on_c, 4, 55, 0
1, 141600, Note_on_c, 5, 51, 0
1, 142080, Tempo, 1935483
1, 142920, Tempo, 476190
1, 143040, Tempo, 472440
1, 143040, Note_on_c, 1, 74, 55
1, 143400, Note_on_c, 1, 74, 0
1, 143400, Note_on_c, 1, 75, 59
1, 143520, Note_on_c, 1, 75, 0
1, 143520, Note_on_c, 1, 72, 61
1, 143760, Note_on_c, 1, 72, 0
1, 143760, Note_on_c, 1, 70, 56
1, 143880, Note_on_c, 1, 70, 0
1, 144000, Note_on_c, 1, 70, 55
1, 144000, Note_on_c, 4, 65, 55
1, 144000, Note_on_c, 5, 62, 55
1, 144156, Note_on_c, 1, 70, 0
1, 144156, Note_on_c, 4, 65, 0
1, 144156, Note_on_c, 5, 62, 0
1, 144480, Note_on_c, 1, 70, 52
1, 144480, Note_on_c, 4, 65, 52
1, 144480, Note_on_c, 5, 62, 52
1, 144636, Note_on_c, 1, 70, 0
1, 144636, Note_on_c, 4, 65, 0
1, 144636, Note_on_c, 5, 62, 0
1, 144840, Tempo, 480000
1, 144960, Note_on_c, 1, 69, 49
1, 144960, Note_on_c, 4, 65, 49
1, 144960, Note_on_c, 5, 63, 49
1, 145320, Note_on_c, 1, 69, 0
1, 145320, Note_on_c, 4, 65, 0
1, 145320, Note_on_c, 5, 63, 0
1, 145440, Tempo, 487804
1, 145920, Tempo, 472440
1, 145920, Note_on_c, 1, 75, 57
1, 146280, Note_on_c, 1, 75, 0
1, 146280, Note_on_c, 1, 77, 61
1, 146400, Note_on_c, 1, 77, 0
1, 146400, Note_on_c, 1, 74, 62
1, 146640, Note_on_c, 1, 74, 0
1, 146640, Note_on_c, 1, 72, 60
1, 146760, Note_on_c, 1, 72, 0
1, 146880, Note_on_c, 1, 72, 58
1, 146880, Note_on_c, 4, 65, 58
1, 146880, Note_on_c, 5, 63, 58
1, 147036, Note_on_c, 1, 72, 0
1, 147036, Note_on_c, 4, 65, 0
1, 147036, Note_on_c, 5, 63, 0
1, 147360, Note_on_c, 1, 72, 54
1, 147360, Note_on_c, 4, 65, 54
1, 147360, Note_on_c, 5, 63, 54
1, 147516, Note_on_c, 1, 72, 0
1, 147516, Note_on_c, 4, 65, 0
1, 147516, Note_on_c, 5, 63, 0
1, 147720, Tempo, 480000
1, 147840, Note_on_c, 1, 70, 51
1, 147840, Note_on_c, 4, 65, 51
1, 147840, Note_on_c, 5, 62, 51
1, 148200, Note_on_c, 1, 70, 0
1, 148200, Note_on_c, 4, 65, 0
1, 148200, Note_on_c, 5, 62, 0
1, 148320, Tempo, 487804
1, 148800, Tempo, 472440
1, 148800, Note_on_c, 1, 74, 67
1, 148800, Note_on_c, 5, 58, 67
1, 149160, Note_on_c, 1, 74, 0
1, 149160, Note_on_c, 1, 75, 72
1, 149160, Note_on_c, 5, 58, 0
1, 149160, Note_on_c, 5, 60, 72
1, 149256, Note_on_c, 1, 75, 0
1, 149256, Note_on_c, 5, 60, 0
1, 149280, Note_on_c, 1, 77, 75
1, 149280, Note_on_c, 5, 62, 75
1, 149280, Note_on_c, 5, 53, 75
1, 149520, Note_on_c, 1, 77, 0
1, 149520, Note_on_c, 1, 79, 73
1, 149520, Note_on_c, 5, 62, 0
1, 149520, Note_on_c, 5, 63, 73
1, 149760, Note_on_c, 1, 79, 0
1, 149760, Note_on_c, 1, 75, 72
1, 149760, Note_on_c, 5, 63, 0
1, 149760, Note_on_c, 5, 60, 72
1, 150000, Note_on_c, 1, 75, 0
1, 150000, Note_on_c, 1, 72, 72
1, 150000, Note_on_c, 5, 60, 0
1, 150000, Note_on_c, 5, 57, 72
1, 150240, Note_on_c, 1, 72, 0
1, 150240, Note_on_c, 1, 74, 71
1, 150240, Note_on_c, 5, 57, 0
1, 150240, Note_on_c, 5, 58, 71
1, 150480, Note_on_c, 1, 74, 0
1, 150480, Note_on_c, 1, 75, 70
1, 150480, Note_on_c, 5, 58, 0
1, 150480, Note_on_c, 5, 60, 70
1, 150680, Note_on_c, 1, 75, 0
1, 150680, Note_on_c, 5, 60, 0
1, 150720, Note_on_c, 1, 77, 70
1, 150720, Note_on_c, 5, 62, 70
1, 150960, Note_on_c, 1, 77, 0
1, 150960, Note_on_c, 1, 79, 69
1, 150960, Note_on_c, 5, 62, 0
1, 150960, Note_on_c, 5, 63, 69
1, 151200, Note_on_c, 1, 79, 0
1, 151200, Note_on_c, 1, 75, 68
1, 151200, Note_on_c, 5, 63, 0
1, 151200, Note_on_c, 5, 60, 68
1, 151440, Note_on_c, 1, 75, 0
1, 151440, Note_on_c, 1, 72, 68
1, 151440, Note_on_c, 5, 60, 0
1, 151440, Note_on_c, 5, 57, 68
1, 151680, Note_on_c, 1, 72, 0
1, 151680, Note_on_c, 1, 74, 67
1, 151680, Note_on_c, 5, 57, 0
1, 151680, Note_on_c, 5, 58, 67
1, 151920, Note_on_c, 1, 74, 0
1, 151920, Note_on_c, 1, 75, 66
1, 151920, Note_on_c, 5, 58, 0
1, 152040, Tempo, 480000
1, 152160, Note_on_c, 1, 75, 0
1, 152160, Note_on_c, 1, 77, 66
1, 152160, Note_on_c, 5, 53, 0
1, 152160, Note_on_c, 5, 62, 66
1, 152210, Tempo, 472440
1, 152365, Note_on_c, 1, 77, 0
1, 152400, Note_on_c, 1, 82, 59
1, 152544, Note_on_c, 5, 62, 0
1, 152640, Note_on_c, 1, 82, 0
1, 152640, Note_on_c, 1, 81, 58
1, 152880, Note_on_c, 1, 81, 0
1, 152880, Note_on_c, 1, 79, 57
1, 153120, Note_on_c, 1, 79, 0
1, 153120, Note_on_c, 1, 77, 56
1, 153360, Note_on_c, 1, 77, 0
1, 153360, Note_on_c, 1, 76, 55
1, 153540, Tempo, 476190
1, 153600, Note_on_c, 1, 76, 0
1, 153600, Note_on_c, 1, 74, 54
1, 153840, Note_on_c, 1, 74, 0
1, 153840, Note_on_c, 1, 72, 53
1, 154080, Note_on_c, 1, 72, 0
1, 154080, Note_on_c, 1, 71, 51
1, 154320, Note_on_c, 1, 71, 0
1, 154320, Note_on_c, 1, 70, 50
1, 154560, Note_on_c, 1, 70, 0
1, 154560, Note_on_c, 1, 69, 49
1, 154800, Note_on_c, 1, 69, 0
1, 154800, Note_on_c, 1, 67, 48
1, 154920, Tempo, 487804
1, 155000, Note_on_c, 1, 67, 0
1, 155040, Tempo, 472440
1, 155040, Note_on_c, 1, 72, 67
1, 155400, Note_on_c, 1, 72, 0
1, 155400, Note_on_c, 1, 74, 65
1, 155520, Note_on_c, 1, 74, 0
1, 155520, Note_on_c, 1, 65, 65
1, 155520, Note_on_c, 4, 60, 65
1, 155520, Note_on_c, 4, 57, 65
1, 155520, Note_on_c, 5, 48, 65
1, 155676, Note_on_c, 1, 65, 0
1, 155676, Note_on_c, 4, 60, 0
1, 155676, Note_on_c, 4, 57, 0
1, 155676, Note_on_c, 5, 48, 0
1, 156000, Note_on_c, 1, 64, 62
1, 156000, Note_on_c, 4, 58, 62
1, 156000, Note_on_c, 4, 55, 62
1, 156000, Note_on_c, 5, 48, 62
1, 156156, Note_on_c, 1, 64, 0
1, 156156, Note_on_c, 4, 58, 0
1, 156156, Note_on_c, 4, 55, 0
1, 156156, Note_on_c, 5, 48, 0
1, 156360, Tempo, 480000
1, 156480, Note_on_c, 1, 65, 60
1, 156480, Note_on_c, 4, 57, 60
1, 156480, Note_on_c, 5, 53, 60
1, 156673, Note_on_c, 5, 53, 0
1, 156960, Tempo, 487804
1, 156960, Note_on_c, 1, 65, 0
1, 156960, Note_on_c, 4, 57, 0
1, 156960, Note_on_c, 5, 41, 53
1, 157153, Note_on_c, 5, 41, 0
1, 157440, Tempo, 472440
1, 157440, Note_on_c, 1, 74, 55
1, 157440, Note_on_c, 5, 70, 55
1, 157800, Note_on_c, 1, 74, 0
1, 157800, Note_on_c, 1, 72, 59
1, 157800, Note_on_c, 5, 70, 0
1, 157800, Note_on_c, 5, 69, 59
1, 157896, Note_on_c, 1, 72, 0
1, 157896, Note_on_c, 5, 69, 0
1, 157920, Note_on_c, 1, 72, 60
1, 157920, Note_on_c, 5, 69, 60
1, 158400, Note_on_c, 1, 72, 0
1, 158400, Note_on_c, 5, 69, 0
1, 158400, Note_on_c, 5, 65, 57
1, 158760, Tempo, 480000
1, 158880, Tempo, 472440
1, 158880, Note_on_c, 1, 76, 65
1, 158880, Note_on_c, 5, 65, 0
1, 158880, Note_on_c, 5, 70, 65
1, 159240, Note_on_c, 1, 76, 0
1, 159240, Note_on_c, 1, 77, 69
1, 159240, Note_on_c, 5, 70, 0
1, 159240, Note_on_c, 5, 69, 69
1, 159336, Note_on_c, 1, 77, 0
1, 159336, Note_on_c, 5, 69, 0
1, 159360, Note_on_c, 1, 77, 70
1, 159360, Note_on_c, 5, 69, 70
1, 159840, Tempo, 480000
1, 159840, Note_on_c, 1, 77, 0
1, 159840, Note_on_c, 5, 69, 0
1, 159840, Note_on_c, 5, 53, 63
1, 160280, Note_on_c, 5, 53, 0
1, 160320, Tempo, 476190
1, 160320, Note_on_c, 2, 71, 79
1, 160320, Note_on_c, 5, 53, 79
1, 160320, Note_on_c, 5, 65, 79
1, 160360, Note_on_c, 2, 74, 79
1, 160400, Note_on_c, 1, 80, 79
1, 160680, Note_on_c, 2, 71, 0
1, 160680, Note_on_c, 2, 74, 0
1, 160680, Note_on_c, 5, 53, 0
1, 160680, Note_on_c, 5, 65, 0
1, 160685, Note_on_c, 1, 80, 0
1, 160800, Note_on_c, 2, 72, 83
1, 160800, Note_on_c, 5, 52, 83
1, 160800, Note_on_c, 5, 64, 83
1, 160840, Note_on_c, 2, 76, 83
1, 160880, Note_on_c, 1, 79, 83
1, 161155, Note_on_c, 2, 76, 0
1, 161155, Note_on_c, 5, 64, 0
1, 161160, Note_on_c, 1, 79, 0
1, 161160, Note_on_c, 5, 52, 0
1, 161165, Note_on_c, 2, 72, 0
1, 161280, Note_on_c, 2, 69, 81
1, 161280, Note_on_c, 5, 51, 81
1, 161280, Note_on_c, 5, 63, 81
1, 161320, Note_on_c, 2, 72, 81
1, 161360, Note_on_c, 1, 78, 81
1, 161635, Note_on_c, 2, 72, 0
1, 161635, Note_on_c, 5, 63, 0
1, 161640, Note_on_c, 2, 69, 0
1, 161640, Note_on_c, 5, 51, 0
1, 161648, Note_on_c, 1, 78, 0
1, 161760, Note_on_c, 2, 70, 79
1, 161760, Note_on_c, 5, 50, 79
1, 161760, Note_on_c, 5, 62, 79
1, 161800, Note_on_c, 2, 74, 78
1, 161840, Note_on_c, 1, 77, 78
1, 162115, Note_on_c, 1, 77, 0
1, 162115, Note_on_c, 5, 62, 0
1, 162120, Note_on_c, 2, 70, 0
1, 162120, Note_on_c, 2, 74, 0
1, 162120, Note_on_c, 5, 50, 0
1, 162240, Note_on_c, 2, 67, 76
1, 162240, Note_on_c, 5, 43, 76
1, 162240, Note_on_c, 5, 55, 76
1, 162280, Note_on_c, 2, 70, 76
1, 162320, Note_on_c, 1, 76, 76
1, 162595, Note_on_c, 5, 43, 0
1, 162600, Note_on_c, 1, 76, 0
1, 162600, Note_on_c, 2, 67, 0
1, 162600, Note_on_c, 2, 70, 0
1, 162600, Note_on_c, 5, 55, 0
1, 162720, Note_on_c, 2, 66, 73
1, 162720, Note_on_c, 5, 45, 73
1, 162720, Note_on_c, 5, 57, 73
1, 162760, Note_on_c, 2, 72, 73
1, 162800, Note_on_c, 1, 75, 73
1, 163080, Note_on_c, 1, 75, 0
1, 163080, Note_on_c, 2, 66, 0
1, 163080, Note_on_c, 2, 72, 0
1, 163080, Note_on_c, 5, 45, 0
1, 163080, Note_on_c, 5, 57, 0
1, 163200, Note_on_c, 2, 65, 71
1, 163200, Note_on_c, 5, 46, 71
1, 163200, Note_on_c, 5, 58, 71
1, 163240, Note_on_c, 2, 70, 71
1, 163280, Note_on_c, 1, 74, 70
1, 163440, Tempo, 480000
1, 163555, Note_on_c, 2, 65, 0
1, 163555, Note_on_c, 5, 46, 0
1, 163560, Note_on_c, 2, 70, 0
1, 163560, Note_on_c, 5, 58, 0
1, 163568, Note_on_c, 1, 74, 0
1, 163680, Tempo, 476190
1, 163680, Note_on_c, 5, 51, 64
1, 164160, Note_on_c, 1, 72, 62
1, 164640, Note_on_c, 1, 72, 0
1, 164640, Note_on_c, 1, 73, 61
1, 164640, Note_on_c, 5, 51, 0
1, 164640, Note_on_c, 5, 52, 61
1, 165060, Note_on_c, 1, 73, 0
1, 165060, Note_on_c, 5, 52, 0
1, 165120, Note_on_c, 1, 70, 59
1, 165120, Note_on_c, 5, 53, 59
1, 165360, Note_on_c, 1, 70, 0
1, 165360, Note_on_c, 1, 69, 58
1, 165560, Note_on_c, 1, 69, 0
1, 165600, Note_on_c, 1, 67, 57
1, 165600, Note_on_c, 5, 51, 57
1, 165605, Note_on_c, 5, 53, 0
1, 165793, Note_on_c, 1, 67, 0
1, 165840, Note_on_c, 1, 65, 56
1, 166033, Note_on_c, 1, 65, 0
1, 166080, Note_on_c, 1, 70, 55
1, 166080, Note_on_c, 5, 51, 0
1, 166080, Note_on_c, 5, 50, 55
1, 166320, Tempo, 480000
1, 166495, Note_on_c, 1, 70, 0
1, 166500, Note_on_c, 5, 50, 0
1, 166560, Tempo, 472440
1, 166560, Note_on_c, 1, 75, 69
1, 166560, Note_on_c, 2, 72, 69
1, 166560, Note_on_c, 5, 57, 69
1, 167040, Note_on_c, 1, 75, 0
1, 167040, Note_on_c, 1, 74, 67
1, 167040, Note_on_c, 2, 72, 0
1, 167040, Note_on_c, 2, 70, 67
1, 167040, Note_on_c, 5, 57, 0
1, 167040, Note_on_c, 5, 58, 67
1, 167395, Note_on_c, 5, 58, 0
1, 167400, Tempo, 476190
1, 167400, Note_on_c, 1, 74, 0
1, 167400, Note_on_c, 1, 72, 66
1, 167400, Note_on_c, 2, 70, 0
1, 167400, Note_on_c, 2, 69, 66
1, 167496, Note_on_c, 1, 72, 0
1, 167496, Note_on_c, 2, 69, 0
1, 167520, Note_on_c, 1, 74, 65
1, 167520, Note_on_c, 2, 70, 65
1, 167520, Note_on_c, 5, 52, 65
1, 167870, Note_on_c, 5, 52, 0
1, 167880, Note_on_c, 1, 74, 0
1, 167880, Note_on_c, 1, 75, 64
1, 167880, Note_on_c, 2, 70, 0
1, 167880, Note_on_c, 2, 72, 64
1, 167976, Note_on_c, 1, 75, 0
1, 167976, Note_on_c, 2, 72, 0
1, 168000, Tempo, 480000
1, 168000, Note_on_c, 1, 74, 64
1, 168000, Note_on_c, 2, 70, 64
1, 168000, Note_on_c, 5, 53, 64
1, 168480, Tempo, 500000
1, 168480, Note_on_c, 1, 74, 0
1, 168480, Note_on_c, 1, 72, 62
1, 168480, Note_on_c, 2, 70, 0
1, 168480, Note_on_c, 2, 69, 62
1, 168840, Note_on_c, 5, 53, 0
1, 168864, Note_on_c, 1, 72, 0
1, 168864, Note_on_c, 2, 69, 0
1, 168945, Tempo, 472440
1, 168960, Note_on_c, 5, 62, 51
1, 169320, Note_on_c, 5, 62, 0
1, 169320, Note_on_c, 5, 63, 53
1, 169416, Note_on_c, 5, 63, 0
1, 169440, Note_on_c, 5, 60, 54
1, 169680, Note_on_c, 5, 60, 0
1, 169680, Note_on_c, 5, 58, 52
1, 169800, Note_on_c, 5, 58, 0
1, 169920, Note_on_c, 2, 77, 51
1, 169920, Note_on_c, 3, 74, 51
1, 169920, Note_on_c, 5, 58, 51
1, 170076, Note_on_c, 2, 77, 0
1, 170076, Note_on_c, 3, 74, 0
1, 170076, Note_on_c, 5, 58, 0
1, 170400, Note_on_c, 2, 77, 47
1, 170400, Note_on_c, 3, 74, 47
1, 170400, Note_on_c, 5, 58, 47
1, 170556, Note_on_c, 2, 77, 0
1, 170556, Note_on_c, 3, 74, 0
1, 170556, Note_on_c, 5, 58, 0
1, 170760, Tempo, 480000
1, 170880, Note_on_c, 2, 77, 42
1, 170880, Note_on_c, 3, 75, 42
1, 170880, Note_on_c, 5, 57, 42
1, 171240, Note_on_c, 2, 77, 0
1, 171240, Note_on_c, 3, 75, 0
1, 171240, Note_on_c, 5, 57, 0
1, 171360, Tempo, 487804
1, 171840, Tempo, 472440
1, 171840, Note_on_c, 5, 63, 51
1, 172200, Note_on_c, 5, 63, 0
1, 172200, Note_on_c, 5, 65, 56
1, 172296, Note_on_c, 5, 65, 0
1, 172320, Note_on_c, 5, 62, 58
1, 172560, Note_on_c, 5, 62, 0
1, 172560, Note_on_c, 5, 60, 56
1, 172680, Note_on_c, 5, 60, 0
1, 172800, Note_on_c, 2, 87, 54
1, 172800, Note_on_c, 3, 81, 54
1, 172800, Note_on_c, 5, 60, 54
1, 172956, Note_on_c, 2, 87, 0
1, 172956, Note_on_c, 3, 81, 0
1, 172956, Note_on_c, 5, 60, 0
1, 173280, Note_on_c, 2, 87, 49
1, 173280, Note_on_c, 3, 81, 49
1, 173280, Note_on_c, 5, 60, 49
1, 173436, Note_on_c, 2, 87, 0
1, 173436, Note_on_c, 3, 81, 0
1, 173436, Note_on_c, 5, 60, 0
1, 173640, Tempo, 480000
1, 173760, Note_on_c, 2, 86, 45
1, 173760, Note_on_c, 3, 82, 45
1, 173760, Note_on_c, 5, 58, 45
1, 174120, Note_on_c, 2, 86, 0
1, 174120, Note_on_c, 3, 82, 0
1, 174120, Note_on_c, 5, 58, 0
1, 174240, Tempo, 487804
1, 174720, Tempo, 472440
1, 174720, Note_on_c, 1, 74, 69
1, 174720, Note_on_c, 5, 58, 69
1, 175080, Note_on_c, 1, 74, 0
1, 175080, Note_on_c, 1, 75, 73
1, 175080, Note_on_c, 5, 58, 0
1, 175080, Note_on_c, 5, 60, 73
1, 175180, Note_on_c, 1, 75, 0
1, 175180, Note_on_c, 5, 60, 0
1, 175200, Tempo, 472440
1, 175200, Note_on_c, 1, 77, 75
1, 175200, Note_on_c, 5, 62, 75
1, 175200, Note_on_c, 5, 53, 75
1, 175440, Note_on_c, 1, 77, 0
1, 175440, Note_on_c, 1, 79, 73
1, 175440, Note_on_c, 5, 62, 0
1, 175440, Note_on_c, 5, 63, 73
1, 175680, Note_on_c, 1, 79, 0
1, 175680, Note_on_c, 1, 75, 72
1, 175680, Note_on_c, 5, 63, 0
1, 175680, Note_on_c, 5, 60, 72
1, 175920, Note_on_c, 1, 75, 0
1, 175920, Note_on_c, 1, 72, 71
1, 175920, Note_on_c, 5, 60, 0
1, 175920, Note_on_c, 5, 57, 71
1, 176160, Note_on_c, 1, 72, 0
1, 176160, Note_on_c, 1, 74, 71
1, 176160, Note_on_c, 5, 57, 0
1, 176160, Note_on_c, 5, 58, 71
1, 176400, Note_on_c, 1, 74, 0
1, 176400, Note_on_c, 1, 75, 70
1, 176400, Note_on_c, 5, 58, 0
1, 176400, Note_on_c, 5, 60, 70
1, 176600, Note_on_c, 1, 75, 0
1, 176600, Note_on_c, 5, 60, 0
1, 176640, Note_on_c, 1, 77, 69
1, 176640, Note_on_c, 5, 62, 69
1, 176880, Note_on_c, 1, 77, 0
1, 176880, Note_on_c, 1, 79, 68
1, 176880, Note_on_c, 5, 62, 0
1, 176880, Note_on_c, 5, 63, 68
1, 177120, Note_on_c, 1, 79, 0
1, 177120, Note_on_c, 1, 75, 68
1, 177120, Note_on_c, 5, 63, 0
1, 177120, Note_on_c, 5, 60, 68
1, 177360, Note_on_c, 1, 75, 0
1, 177360, Note_on_c, 1, 72, 67
1, 177360, Note_on_c, 5, 60, 0
1, 177360, Note_on_c, 5, 57, 67
1, 177600, Note_on_c, 1, 72, 0
1, 177600, Note_on_c, 1, 74, 66
1, 177600, Note_on_c, 5, 53, 0
1, 177600, Note_on_c, 5, 57, 0
1, 177600, Note_on_c, 5, 58, 66
1, 177840, Note_on_c, 1, 74, 0
1, 177840, Note_on_c, 1, 75, 65
1, 177840, Note_on_c, 5, 58, 0
1, 177840, Note_on_c, 5, 60, 65
1, 177960, Tempo, 480000
1, 178080, Note_on_c, 1, 75, 0
1, 178080, Note_on_c, 1, 77, 64
1, 178080, Note_on_c, 5, 60, 0
1, 178080, Note_on_c, 5, 62, 64
1, 178140, Tempo, 472440
1, 178280, Note_on_c, 1, 77, 0
1, 178320, Note_on_c, 1, 87, 57
1, 178464, Note_on_c, 5, 62, 0
1, 178560, Note_on_c, 1, 87, 0
1, 178560, Note_on_c, 1, 86, 56
1, 178800, Note_on_c, 1, 86, 0
1, 178800, Note_on_c, 1, 84, 55
1, 179040, Note_on_c, 1, 84, 0
1, 179040, Note_on_c, 1, 82, 54
1, 179280, Note_on_c, 1, 82, 0
1, 179280, Note_on_c, 1, 81, 53
1, 179460, Tempo, 476190
1, 179520, Note_on_c, 1, 81, 0
1, 179520, Note_on_c, 1, 79, 52
1, 179760, Note_on_c, 1, 79, 0
1, 179760, Note_on_c, 1, 77, 52
1, 180000, Note_on_c, 1, 77, 0
1, 180000, Note_on_c, 1, 76, 51
1, 180240, Note_on_c, 1, 76, 0
1, 180240, Note_on_c, 1, 75, 50
1, 180480, Note_on_c, 1, 75, 0
1, 180480, Note_on_c, 1, 74, 49
1, 180720, Note_on_c, 1, 74, 0
1, 180720, Note_on_c, 1, 72, 48
1, 180840, Tempo, 480000
1, 180920, Note_on_c, 1, 72, 0
1, 180960, Tempo, 476190
1, 180960, Note_on_c, 1, 77, 67
1, 181320, Note_on_c, 1, 77, 0
1, 181320, Note_on_c, 1, 79, 65
1, 181416, Note_on_c, 1, 79, 0
1, 181440, Note_on_c, 1, 70, 64
1, 181440, Note_on_c, 4, 65, 64
1, 181440, Note_on_c, 4, 62, 64
1, 181440, Note_on_c, 5, 53, 64
1, 181596, Note_on_c, 1, 70, 0
1, 181596, Note_on_c, 4, 65, 0
1, 181596, Note_on_c, 4, 62, 0
1, 181596, Note_on_c, 5, 53, 0
1, 181920, Note_on_c, 1, 69, 61
1, 181920, Note_on_c, 4, 63, 61
1, 181920, Note_on_c, 4, 60, 61
1, 181920, Note_on_c, 5, 53, 61
1, 182076, Note_on_c, 1, 69, 0
1, 182076, Note_on_c, 4, 63, 0
1, 182076, Note_on_c, 4, 60, 0
1, 182076, Note_on_c, 5, 53, 0
1, 182280, Tempo, 480000
1, 182400, Note_on_c, 1, 70, 58
1, 182400, Note_on_c, 4, 62, 58
1, 182400, Note_on_c, 5, 58, 58
1, 182593, Note_on_c, 5, 58, 0
1, 182784, Note_on_c, 1, 70, 0
1, 182784, Note_on_c, 4, 62, 0
1, 182865, Tempo, 495867
1, 182880, Note_on_c, 5, 46, 52
1, 183073, Note_on_c, 5, 46, 0
1, 183360, Tempo, 476190
1, 183360, Note_on_c, 1, 79, 47
1, 183360, Note_on_c, 2, 75, 47
1, 183720, Note_on_c, 1, 79, 0
1, 183720, Note_on_c, 1, 77, 51
1, 183720, Note_on_c, 2, 75, 0
1, 183720, Note_on_c, 2, 74, 51
1, 183816, Note_on_c, 1, 77, 0
1, 183816, Note_on_c, 2, 74, 0
1, 183840, Note_on_c, 1, 77, 53
1, 183840, Note_on_c, 2, 74, 53
1, 184224, Note_on_c, 1, 77, 0
1, 184224, Note_on_c, 2, 74, 0
1, 184320, Note_on_c, 5, 70, 48
1, 184560, Tempo, 480000
1, 184704, Note_on_c, 5, 70, 0
1, 184800, Tempo, 476190
1, 184800, Note_on_c, 1, 81, 53
1, 184800, Note_on_c, 2, 75, 53
1, 185160, Note_on_c, 1, 82, 58
1, 185160, Note_on_c, 2, 75, 0
1, 185160, Note_on_c, 2, 74, 58
1, 185168, Note_on_c, 1, 81, 0
1, 185256, Note_on_c, 1, 82, 0
1, 185256, Note_on_c, 2, 74, 0
1, 185280, Note_on_c, 1, 82, 61
1, 185280, Note_on_c, 2, 74, 61
1, 185664, Note_on_c, 1, 82, 0
1, 185664, Note_on_c, 2, 74, 0
1, 185760, Note_on_c, 5, 58, 55
1, 186015, Tempo, 480000
1, 186144, Note_on_c, 5, 58, 0
1, 186240, Tempo, 472440
1, 186240, Note_on_c, 1, 74, 65
1, 186240, Note_on_c, 5, 55, 65
1, 186600, Note_on_c, 1, 74, 0
1, 186600, Note_on_c, 1, 70, 70
1, 186624, Note_on_c, 5, 55, 0
1, 186696, Note_on_c, 1, 70, 0
1, 186720, Note_on_c, 1, 75, 72
1, 186720, Note_on_c, 2, 67, 72
1, 186720, Note_on_c, 5, 51, 72
1, 187104, Note_on_c, 5, 51, 0
1, 187200, Note_on_c, 5, 48, 69
1, 187560, Tempo, 480000
1, 187584, Note_on_c, 5, 48, 0
1, 187680, Note_on_c, 1, 75, 0
1, 187680, Note_on_c, 1, 72, 67
1, 187680, Note_on_c, 2, 67, 0
1, 187680, Note_on_c, 2, 63, 67
1, 187680, Note_on_c, 5, 53, 67
1, 187993, Note_on_c, 5, 53, 0
1, 188040, Note_on_c, 1, 72, 0
1, 188040, Note_on_c, 1, 69, 65
1, 188064, Note_on_c, 2, 63, 0
1, 188136, Note_on_c, 1, 69, 0
1, 188160, Tempo, 487804
1, 188160, Note_on_c, 1, 70, 64
1, 188160, Note_on_c, 2, 62, 64
1, 188160, Note_on_c, 5, 58, 64
1, 188353, Note_on_c, 5, 58, 0
1, 188544, Note_on_c, 1, 70, 0
1, 188544, Note_on_c, 2, 62, 0
1, 188640, Tempo, 550458
1, 188640, Note_on_c, 5, 46, 56
1, 188833, Note_on_c, 5, 46, 0
1, 189120, Tempo, 480000
1, 189120, Note_on_c, 1, 70, 42
1, 189240, Note_on_c, 1, 70, 0
1, 189240, Note_on_c, 1, 72, 44
1, 189360, Note_on_c, 1, 72, 0
1, 189360, Note_on_c, 1, 70, 45
1, 189480, Note_on_c, 1, 70, 0
1, 189480, Note_on_c, 1, 69, 46
1, 189600, Note_on_c, 1, 69, 0
1, 189600, Note_on_c, 1, 70, 47
1, 189600, Note_on_c, 4, 67, 47
1, 189600, Note_on_c, 4, 63, 47
1, 189840, Note_on_c, 3, 58, 49
1, 189960, Note_on_c, 4, 67, 0
1, 189960, Note_on_c, 4, 63, 0
1, 189984, Note_on_c, 1, 70, 0
1, 190032, Note_on_c, 3, 58, 0
1, 190080, Note_on_c, 4, 67, 51
1, 190080, Note_on_c, 4, 63, 51
1, 190320, Note_on_c, 3, 58, 53
1, 190440, Note_on_c, 1, 70, 54
1, 190440, Note_on_c, 4, 67, 0
1, 190440, Note_on_c, 4, 63, 0
1, 190512, Note_on_c, 3, 58, 0
1, 190560, Note_on_c, 1, 70, 0
1, 190560, Note_on_c, 1, 75, 55
1, 190560, Note_on_c, 4, 67, 55
1, 190560, Note_on_c, 4, 63, 55
1, 190800, Note_on_c, 3, 58, 57
1, 190848, Note_on_c, 1, 75, 0
1, 190920, Note_on_c, 1, 75, 58
1, 190920, Note_on_c, 4, 67, 0
1, 190920, Note_on_c, 4, 63, 0
1, 190992, Note_on_c, 3, 58, 0
1, 191016, Note_on_c, 1, 75, 0
1, 191040, Note_on_c, 1, 75, 65
1, 191040, Note_on_c, 4, 68, 65
1, 191040, Note_on_c, 4, 65, 65
1, 191280, Note_on_c, 3, 58, 61
1, 191400, Note_on_c, 4, 68, 0
1, 191400, Note_on_c, 4, 65, 0
1, 191472, Note_on_c, 3, 58, 0
1, 191520, Note_on_c, 1, 75, 0
1, 191520, Note_on_c, 1, 74, 58
1, 191520, Note_on_c, 4, 68, 58
1, 191520, Note_on_c, 4, 65, 58
1, 191760, Note_on_c, 3, 58, 54
1, 191833, Note_on_c, 1, 74, 0
1, 191880, Note_on_c, 4, 68, 0
1, 191880, Note_on_c, 4, 65, 0
1, 191952, Note_on_c, 3, 58, 0
1, 192000, Note_on_c, 1, 70, 50
1, 192000, Note_on_c, 4, 68, 50
1, 192000, Note_on_c, 4, 65, 50
1, 192120, Note_on_c, 1, 70, 0
1, 192120, Note_on_c, 1, 72, 51
1, 192240, Note_on_c, 1, 72, 0
1, 192240, Note_on_c, 1, 70, 52
1, 192240, Note_on_c, 3, 58, 52
1, 192360, Note_on_c, 1, 70, 0
1, 192360, Note_on_c, 1, 69, 53
1, 192360, Note_on_c, 4, 68, 0
1, 192360, Note_on_c, 4, 65, 0
1, 192432, Note_on_c, 3, 58, 0
1, 192480, Note_on_c, 1, 69, 0
1, 192480, Note_on_c, 1, 70, 54
1, 192480, Note_on_c, 4, 67, 54
1, 192480, Note_on_c, 4, 63, 54
1, 192720, Note_on_c, 3, 58, 56
1, 192840, Note_on_c, 4, 67, 0
1, 192840, Note_on_c, 4, 63, 0
1, 192864, Note_on_c, 1, 70, 0
1, 192912, Note_on_c, 3, 58, 0
1, 192960, Note_on_c, 4, 67, 58
1, 192960, Note_on_c, 4, 63, 58
1, 193200, Note_on_c, 3, 58, 60
1, 193320, Note_on_c, 1, 70, 61
1, 193320, Note_on_c, 4, 67, 0
1, 193320, Note_on_c, 4, 63, 0
1, 193392, Note_on_c, 3, 58, 0
1, 193440, Note_on_c, 1, 70, 0
1, 193440, Note_on_c, 1, 79, 62
1, 193440, Note_on_c, 4, 67, 62
1, 193440, Note_on_c, 4, 63, 62
1, 193680, Note_on_c, 3, 58, 64
1, 193728, Note_on_c, 1, 79, 0
1, 193800, Note_on_c, 1, 79, 65
1, 193800, Note_on_c, 4, 67, 0
1, 193800, Note_on_c, 4, 63, 0
1, 193872, Note_on_c, 3, 58, 0
1, 193896, Note_on_c, 1, 79, 0
1, 193920, Note_on_c, 1, 82, 70
1, 193920, Note_on_c, 4, 65, 70
1, 193920, Note_on_c, 4, 62, 70
1, 194160, Note_on_c, 3, 58, 67
1, 194280, Note_on_c, 4, 65, 0
1, 194280, Note_on_c, 4, 62, 0
1, 194352, Note_on_c, 3, 58, 0
1, 194400, Note_on_c, 1, 82, 0
1, 194400, Note_on_c, 1, 80, 64
1, 194400, Note_on_c, 4, 65, 64
1, 194400, Note_on_c, 4, 62, 64
1, 194640, Note_on_c, 3, 58, 61
1, 194713, Note_on_c, 1, 80, 0
1, 194760, Note_on_c, 4, 65, 0
1, 194760, Note_on_c, 4, 62, 0
1, 194832, Note_on_c, 3, 58, 0
1, 194880, Note_on_c, 1, 80, 59
1, 194880, Note_on_c, 4, 65, 59
1, 194880, Note_on_c, 4, 62, 59
1, 195000, Note_on_c, 1, 80, 0
1, 195000, Note_on_c, 1, 82, 59
1, 195120, Note_on_c, 1, 82, 0
1, 195120, Note_on_c, 1, 80, 59
1, 195120, Note_on_c, 3, 58, 59
1, 195240, Note_on_c, 1, 80, 0
1, 195240, Note_on_c, 1, 77, 58
1, 195240, Note_on_c, 4, 65, 0
1, 195240, Note_on_c, 4, 62, 0
1, 195312, Note_on_c, 3, 58, 0
1, 195345, Note_on_c, 1, 77, 0
1, 195360, Note_on_c, 1, 79, 58
1, 195360, Note_on_c, 5, 63, 58
1, 195480, Note_on_c, 1, 79, 0
1, 195480, Note_on_c, 1, 80, 57
1, 195600, Note_on_c, 1, 80, 0
1, 195600, Note_on_c, 1, 79, 57
1, 195720, Note_on_c, 1, 79, 0
1, 195720, Note_on_c, 1, 75, 57
1, 195825, Note_on_c, 1, 75, 0
1, 195840, Note_on_c, 1, 82, 56
1, 195840, Note_on_c, 5, 63, 0
1, 195944, Note_on_c, 1, 82, 0
1, 196000, Note_on_c, 1, 80, 56
1, 196104, Note_on_c, 1, 80, 0
1, 196160, Note_on_c, 1, 79, 55
1, 196264, Note_on_c, 1, 79, 0
1, 196320, Note_on_c, 1, 77, 55
1, 196320, Note_on_c, 5, 55, 55
1, 196320, Note_on_c, 5, 43, 55
1, 196424, Note_on_c, 1, 77, 0
1, 196480, Note_on_c, 1, 75, 54
1, 196584, Note_on_c, 1, 75, 0
1, 196640, Note_on_c, 1, 73, 54
1, 196704, Note_on_c, 5, 55, 0
1, 196704, Note_on_c, 5, 43, 0
1, 196744, Note_on_c, 1, 73, 0
1, 196800, Note_on_c, 1, 72, 53
1, 196800, Note_on_c, 5, 56, 53
1, 196800, Note_on_c, 5, 44, 53
1, 196920, Note_on_c, 1, 72, 0
1, 196920, Note_on_c, 1, 73, 53
1, 197040, Note_on_c, 1, 73, 0
1, 197040, Note_on_c, 1, 72, 53
1, 197160, Note_on_c, 1, 72, 0
1, 197160, Note_on_c, 1, 68, 52
1, 197184, Note_on_c, 5, 56, 0
1, 197184, Note_on_c, 5, 44, 0
1, 197280, Note_on_c, 1, 68, 0
1, 197280, Note_on_c, 1, 84, 52
1, 197440, Note_on_c, 1, 84, 0
1, 197440, Note_on_c, 1, 82, 51
1, 197600, Note_on_c, 1, 82, 0
1, 197600, Note_on_c, 1, 80, 51
1, 197760, Note_on_c, 1, 80, 0
1, 197760, Note_on_c, 1, 79, 50
1, 197760, Note_on_c, 4, 61, 50
1, 197760, Note_on_c, 5, 58, 50
1, 197920, Note_on_c, 1, 79, 0
1, 197920, Note_on_c, 1, 77, 50
1, 198080, Note_on_c, 1, 77, 0
1, 198080, Note_on_c, 1, 76, 49
1, 198144, Note_on_c, 4, 61, 0
1, 198144, Note_on_c, 5, 58, 0
1, 198225, Note_on_c, 1, 76, 0
1, 198240, Note_on_c, 1, 77, 49
1, 198240, Note_on_c, 4, 60, 49
1, 198240, Note_on_c, 5, 56, 49
1, 198360, Note_on_c, 1, 77, 0
1, 198360, Note_on_c, 1, 79, 48
1, 198480, Note_on_c, 1, 79, 0
1, 198480, Note_on_c, 1, 77, 48
1, 198600, Note_on_c, 1, 77, 0
1, 198600, Note_on_c, 1, 72, 48
1, 198624, Note_on_c, 4, 60, 0
1, 198624, Note_on_c, 5, 56, 0
1, 198710, Note_on_c, 1, 72, 0
1, 198720, Note_on_c, 1, 84, 47
1, 198848, Note_on_c, 1, 84, 0
1, 198880, Note_on_c, 1, 82, 47
1, 199008, Note_on_c, 1, 82, 0
1, 199040, Note_on_c, 1, 80, 46
1, 199168, Note_on_c, 1, 80, 0
1, 199200, Note_on_c, 1, 79, 46
1, 199200, Note_on_c, 5, 63, 46
1, 199200, Note_on_c, 5, 57, 46
1, 199328, Note_on_c, 1, 79, 0
1, 199356, Note_on_c, 5, 63, 0
1, 199360, Note_on_c, 1, 77, 45
1, 199360, Note_on_c, 5, 65, 45
1, 199488, Note_on_c, 1, 77, 0
1, 199516, Note_on_c, 5, 65, 0
1, 199520, Note_on_c, 1, 75, 45
1, 199520, Note_on_c, 5, 67, 45
1, 199560, Tempo, 487804
1, 199648, Note_on_c, 1, 75, 0
1, 199660, Note_on_c, 5, 67, 0
1, 199680, Tempo, 495867
1, 199680, Note_on_c, 1, 75, 44
1, 199680, Note_on_c, 5, 57, 0
1, 199680, Note_on_c, 5, 58, 44
1, 199680, Note_on_c, 5, 67, 44
1, 200160, Tempo, 517241
1, 200160, Note_on_c, 1, 75, 0
1, 200160, Note_on_c, 1, 74, 40
1, 200160, Note_on_c, 5, 67, 0
1, 200160, Note_on_c, 5, 65, 40
1, 200540, Note_on_c, 5, 58, 0
1, 200540, Note_on_c, 5, 65, 0
1, 200544, Note_on_c, 1, 74, 0
1, 200640, Tempo, 480000
1, 200640, Note_on_c, 1, 77, 45
1, 200640, Note_on_c, 5, 58, 45
1, 200760, Note_on_c, 1, 77, 0
1, 200760, Note_on_c, 1, 79, 46
1, 200875, Note_on_c, 5, 58, 0
1, 200880, Note_on_c, 1, 79, 0
1, 200880, Note_on_c, 1, 77, 48
1, 200880, Note_on_c, 3, 65, 48
1, 201000, Note_on_c, 1, 77, 0
1, 201000, Note_on_c, 1, 74, 49
1, 201072, Note_on_c, 3, 65, 0
1, 201100, Note_on_c, 1, 74, 0
1, 201120, Note_on_c, 1, 75, 53
1, 201120, Note_on_c, 5, 60, 53
1, 201355, Note_on_c, 5, 60, 0
1, 201360, Note_on_c, 1, 75, 0
1, 201360, Note_on_c, 3, 65, 51
1, 201552, Note_on_c, 3, 65, 0
1, 201600, Note_on_c, 1, 72, 49
1, 201600, Note_on_c, 5, 63, 49
1, 201835, Note_on_c, 5, 63, 0
1, 201840, Note_on_c, 1, 72, 0
1, 201840, Note_on_c, 3, 65, 46
1, 202032, Note_on_c, 3, 65, 0
1, 202080, Note_on_c, 1, 81, 55
1, 202080, Note_on_c, 5, 63, 55
1, 202200, Note_on_c, 1, 81, 0
1, 202200, Note_on_c, 1, 82, 58
1, 202315, Note_on_c, 5, 63, 0
1, 202320, Note_on_c, 1, 82, 0
1, 202320, Note_on_c, 1, 81, 61
1, 202320, Note_on_c, 3, 65, 61
1, 202440, Note_on_c, 1, 81, 0
1, 202440, Note_on_c, 1, 77, 64
1, 202512, Note_on_c, 3, 65, 0
1, 202545, Note_on_c, 1, 77, 0
1, 202560, Note_on_c, 1, 82, 71
1, 202560, Note_on_c, 5, 62, 71
1, 202795, Note_on_c, 5, 62, 0
1, 202800, Note_on_c, 3, 65, 66
1, 202992, Note_on_c, 3, 65, 0
1, 203040, Note_on_c, 1, 82, 0
1, 203040, Note_on_c, 1, 86, 62
1, 203040, Note_on_c, 5, 58, 62
1, 203275, Note_on_c, 5, 58, 0
1, 203280, Note_on_c, 1, 86, 0
1, 203280, Note_on_c, 3, 65, 57
1, 203472, Note_on_c, 3, 65, 0
1, 203520, Note_on_c, 1, 77, 53
1, 203520, Note_on_c, 5, 58, 53
1, 203616, Note_on_c, 1, 77, 0
1, 203640, Note_on_c, 1, 79, 55
1, 203736, Note_on_c, 1, 79, 0
1, 203755, Note_on_c, 5, 58, 0
1, 203760, Note_on_c, 1, 77, 56
1, 203760, Note_on_c, 3, 65, 56
1, 203856, Note_on_c, 1, 77, 0
1, 203880, Note_on_c, 1, 74, 58
1, 203952, Note_on_c, 3, 65, 0
1, 203976, Note_on_c, 1, 74, 0
1, 204000, Note_on_c, 1, 75, 61
1, 204000, Note_on_c, 5, 60, 61
1, 204193, Note_on_c, 1, 75, 0
1, 204235, Note_on_c, 5, 60, 0
1, 204240, Note_on_c, 3, 65, 58
1, 204432, Note_on_c, 3, 65, 0
1, 204480, Note_on_c, 1, 72, 56
1, 204480, Note_on_c, 5, 63, 56
1, 204673, Note_on_c, 1, 72, 0
1, 204715, Note_on_c, 5, 63, 0
1, 204720, Note_on_c, 3, 65, 53
1, 204912, Note_on_c, 3, 65, 0
1, 204960, Note_on_c, 1, 81, 60
1, 204960, Note_on_c, 5, 63, 60
1, 205080, Note_on_c, 1, 81, 0
1, 205080, Note_on_c, 1, 82, 63
1, 205195, Note_on_c, 5, 63, 0
1, 205200, Note_on_c, 1, 82, 0
1, 205200, Note_on_c, 1, 81, 65
1, 205200, Note_on_c, 3, 65, 65
1, 205320, Note_on_c, 1, 81, 0
1, 205320, Note_on_c, 1, 77, 68
1, 205392, Note_on_c, 3, 65, 0
1, 205420, Note_on_c, 1, 77, 0
1, 205440, Note_on_c, 1, 82, 73
1, 205440, Note_on_c, 5, 58, 73
1, 205675, Note_on_c, 5, 58, 0
1, 205680, Note_on_c, 3, 62, 68
1, 205872, Note_on_c, 3, 62, 0
1, 205920, Tempo, 487804
1, 205920, Note_on_c, 1, 82, 0
1, 205920, Note_on_c, 1, 86, 63
1, 205920, Note_on_c, 5, 58, 63
1, 206160, Note_on_c, 1, 86, 0
1, 206160, Note_on_c, 5, 58, 0
1, 206400, Note_on_c, 1, 84, 57
1, 206520, Note_on_c, 1, 84, 0
1, 206520, Note_on_c, 1, 82, 56
1, 206640, Note_on_c, 1, 82, 0
1, 206640, Note_on_c, 1, 81, 55
1, 206760, Note_on_c, 1, 81, 0
1, 206760, Note_on_c, 1, 79, 55
1, 206865, Note_on_c, 1, 79, 0
1, 206880, Note_on_c, 1, 79, 54
1, 207120, Note_on_c, 1, 79, 0
1, 207120, Note_on_c, 1, 77, 53
1, 207320, Note_on_c, 1, 77, 0
1, 207360, Note_on_c, 1, 77, 51
1, 207360, Note_on_c, 4, 58, 51
1, 207360, Note_on_c, 5, 50, 51
1, 207673, Note_on_c, 1, 77, 0
1, 207673, Note_on_c, 4, 58, 0
1, 207673, Note_on_c, 5, 50, 0
1, 207840, Note_on_c, 1, 79, 48
1, 207840, Note_on_c, 4, 58, 48
1, 207840, Note_on_c, 5, 50, 48
1, 207960, Note_on_c, 1, 79, 0
1, 207960, Note_on_c, 1, 77, 48
1, 208080, Note_on_c, 1, 77, 0
1, 208080, Note_on_c, 1, 75, 47
1, 208153, Note_on_c, 4, 58, 0
1, 208153, Note_on_c, 5, 50, 0
1, 208200, Note_on_c, 1, 75, 0
1, 208200, Note_on_c, 1, 74, 46
1, 208305, Note_on_c, 1, 74, 0
1, 208320, Note_on_c, 1, 74, 46
1, 208560, Note_on_c, 1, 74, 0
1, 208560, Note_on_c, 1, 72, 44
1, 208760, Note_on_c, 1, 72, 0
1, 208800, Note_on_c, 1, 72, 43
1, 208800, Note_on_c, 4, 58, 43
1, 208800, Note_on_c, 5, 51, 43
1, 209113, Note_on_c, 1, 72, 0
1, 209113, Note_on_c, 4, 58, 0
1, 209113, Note_on_c, 5, 51, 0
1, 209280, Note_on_c, 1, 72, 40
1, 209280, Note_on_c, 4, 58, 40
1, 209280, Note_on_c, 5, 52, 40
1, 209520, Tempo, 500000
1, 209593, Note_on_c, 1, 72, 0
1, 209593, Note_on_c, 4, 58, 0
1, 209593, Note_on_c, 5, 52, 0
1, 209760, Tempo, 480000
1, 209760, Note_on_c, 1, 74, 67
1, 209760, Note_on_c, 4, 58, 67
1, 209760, Note_on_c, 5, 53, 67
1, 209820, Note_on_c, 1, 76, 69
1, 209820, Note_on_c, 4, 60, 69
1, 209850, Note_on_c, 1, 74, 0
1, 209850, Note_on_c, 4, 58, 0
1, 209880, Note_on_c, 1, 77, 71
1, 209880, Note_on_c, 4, 62, 71
1, 209910, Note_on_c, 4, 60, 0
1, 209918, Note_on_c, 1, 76, 0
1, 210240, Tempo, 487804
1, 210480, Note_on_c, 1, 77, 0
1, 210480, Note_on_c, 4, 62, 0
1, 210480, Note_on_c, 5, 53, 0
1, 210720, Note_on_c, 1, 77, 54
1, 210720, Note_on_c, 4, 62, 54
1, 210720, Note_on_c, 5, 53, 54
1, 210840, Note_on_c, 1, 77, 0
1, 210840, Note_on_c, 1, 75, 52
1, 210840, Note_on_c, 4, 62, 0
1, 210840, Note_on_c, 4, 60, 52
1, 210960, Note_on_c, 1, 75, 0
1, 210960, Note_on_c, 1, 74, 50
1, 210960, Note_on_c, 4, 60, 0
1, 210960, Note_on_c, 4, 58, 50
1, 211080, Note_on_c, 1, 74, 0
1, 211080, Note_on_c, 1, 72, 48
1, 211080, Note_on_c, 4, 58, 0
1, 211080, Note_on_c, 4, 57, 48
1, 211180, Note_on_c, 1, 72, 0
1, 211180, Note_on_c, 4, 57, 0
1, 211185, Note_on_c, 5, 53, 0
1, 211200, Tempo, 495867
1, 211200, Note_on_c, 1, 70, 45
1, 211200, Note_on_c, 5, 58, 45
1, 211393, Note_on_c, 5, 58, 0
1, 211680, Tempo, 550458
1, 211680, Note_on_c, 1, 70, 0
1, 211680, Note_on_c, 5, 46, 36
1, 211873, Note_on_c, 5, 46, 0
1, 212160, Tempo, 480000
1, 212160, Note_on_c, 1, 70, 42
1, 212280, Note_on_c, 1, 70, 0
1, 212280, Note_on_c, 1, 72, 44
1, 212400, Note_on_c, 1, 72, 0
1, 212400, Note_on_c, 1, 70, 45
1, 212520, Note_on_c, 1, 70, 0
1, 212520, Note_on_c, 1, 69, 46
1, 212640, Note_on_c, 1, 69, 0
1, 212640, Note_on_c, 1, 70, 47
1, 212640, Note_on_c, 4, 63, 47
1, 212640, Note_on_c, 4, 67, 47
1, 212880, Note_on_c, 3, 58, 49
1, 213000, Note_on_c, 4, 63, 0
1, 213000, Note_on_c, 4, 67, 0
1, 213024, Note_on_c, 1, 70, 0
1, 213072, Note_on_c, 3, 58, 0
1, 213120, Note_on_c, 4, 63, 51
1, 213120, Note_on_c, 4, 67, 51
1, 213360, Note_on_c, 3, 58, 53
1, 213480, Note_on_c, 1, 70, 54
1, 213480, Note_on_c, 4, 63, 0
1, 213480, Note_on_c, 4, 67, 0
1, 213552, Note_on_c, 3, 58, 0
1, 213600, Note_on_c, 1, 70, 0
1, 213600, Note_on_c, 1, 75, 55
1, 213600, Note_on_c, 4, 63, 55
1, 213600, Note_on_c, 4, 67, 55
1, 213840, Note_on_c, 3, 58, 57
1, 213888, Note_on_c, 1, 75, 0
1, 213960, Note_on_c, 1, 75, 58
1, 213960, Note_on_c, 4, 63, 0
1, 213960, Note_on_c, 4, 67, 0
1, 214032, Note_on_c, 3, 58, 0
1, 214056, Note_on_c, 1, 75, 0
1, 214080, Note_on_c, 1, 75, 65
1, 214080, Note_on_c, 4, 65, 65
1, 214080, Note_on_c, 4, 68, 65
1, 214320, Note_on_c, 3, 58, 61
1, 214440, Note_on_c, 4, 65, 0
1, 214440, Note_on_c, 4, 68, 0
1, 214512, Note_on_c, 3, 58, 0
1, 214560, Note_on_c, 1, 75, 0
1, 214560, Note_on_c, 1, 74, 58
1, 214560, Note_on_c, 4, 65, 58
1, 214560, Note_on_c, 4, 68, 58
1, 214800, Note_on_c, 3, 58, 54
1, 214873, Note_on_c, 1, 74, 0
1, 214920, Note_on_c, 4, 65, 0
1, 214920, Note_on_c, 4, 68, 0
1, 214992, Note_on_c, 3, 58, 0
1, 215040, Note_on_c, 1, 70, 50
1, 215040, Note_on_c, 4, 65, 50
1, 215040, Note_on_c, 4, 68, 50
1, 215160, Note_on_c, 1, 70, 0
1, 215160, Note_on_c, 1, 72, 51
1, 215280, Note_on_c, 1, 72, 0
1, 215280, Note_on_c, 1, 70, 52
1, 215280, Note_on_c, 3, 58, 52
1, 215400, Note_on_c, 1, 70, 0
1, 215400, Note_on_c, 1, 69, 53
1, 215400, Note_on_c, 4, 65, 0
1, 215400, Note_on_c, 4, 68, 0
1, 215472, Note_on_c, 3, 58, 0
1, 215520, Note_on_c, 1, 69, 0
1, 215520, Note_on_c, 1, 70, 54
1, 215520, Note_on_c, 4, 63, 54
1, 215520, Note_on_c, 4, 67, 54
1, 215760, Note_on_c, 3, 58, 56
1, 215880, Note_on_c, 4, 63, 0
1, 215880, Note_on_c, 4, 67, 0
1, 215904, Note_on_c, 1, 70, 0
1, 215952, Note_on_c, 3, 58, 0
1, 216000, Note_on_c, 4, 63, 58
1, 216000, Note_on_c, 4, 67, 58
1, 216240, Note_on_c, 3, 58, 60
1, 216360, Note_on_c, 1, 70, 61
1, 216360, Note_on_c, 4, 63, 0
1, 216360, Note_on_c, 4, 67, 0
1, 216432, Note_on_c, 3, 58, 0
1, 216480, Note_on_c, 1, 70, 0
1, 216480, Note_on_c, 1, 79, 62
1, 216480, Note_on_c, 4, 63, 62
1, 216480, Note_on_c, 4, 67, 62
1, 216720, Note_on_c, 3, 58, 64
1, 216768, Note_on_c, 1, 79, 0
1, 216840, Note_on_c, 1, 79, 65
1, 216840, Note_on_c, 4, 63, 0
1, 216840, Note_on_c, 4, 67, 0
1, 216912, Note_on_c, 3, 58, 0
1, 216936, Note_on_c, 1, 79, 0
1, 216960, Note_on_c, 1, 82, 70
1, 216960, Note_on_c, 4, 62, 70
1, 216960, Note_on_c, 4, 65, 70
1, 217200, Note_on_c, 3, 58, 67
1, 217320, Note_on_c, 4, 62, 0
1, 217320, Note_on_c, 4, 65, 0
1, 217392, Note_on_c, 3, 58, 0
1, 217440, Note_on_c, 1, 82, 0
1, 217440, Note_on_c, 1, 80, 64
1, 217440, Note_on_c, 4, 62, 64
1, 217440, Note_on_c, 4, 65, 64
1, 217680, Note_on_c, 3, 58, 61
1, 217753, Note_on_c, 1, 80, 0
1, 217800, Note_on_c, 4, 62, 0
1, 217800, Note_on_c, 4, 65, 0
1, 217872, Note_on_c, 3, 58, 0
1, 217920, Note_on_c, 1, 80, 59
1, 217920, Note_on_c, 4, 62, 59
1, 217920, Note_on_c, 4, 65, 59
1, 218040, Note_on_c, 1, 80, 0
1, 218040, Note_on_c, 1, 82, 59
1, 218160, Note_on_c, 1, 82, 0
1, 218160, Note_on_c, 1, 80, 59
1, 218160, Note_on_c, 3, 58, 59
1, 218280, Note_on_c, 1, 80, 0
1, 218280, Note_on_c, 1, 77, 58
1, 218280, Note_on_c, 4, 62, 0
1, 218280, Note_on_c, 4, 65, 0
1, 218352, Note_on_c, 3, 58, 0
1, 218385, Note_on_c, 1, 77, 0
1, 218400, Note_on_c, 1, 79, 58
1, 218400, Note_on_c, 5, 63, 58
1, 218520, Note_on_c, 1, 79, 0
1, 218520, Note_on_c, 1, 80, 57
1, 218640, Note_on_c, 1, 80, 0
1, 218640, Note_on_c, 1, 79, 57
1, 218760, Note_on_c, 1, 79, 0
1, 218760, Note_on_c, 1, 75, 57
1, 218865, Note_on_c, 1, 75, 0
1, 218880, Note_on_c, 1, 82, 56
1, 218880, Note_on_c, 5, 63, 0
1, 218984, Note_on_c, 1, 82, 0
1, 219040, Note_on_c, 1, 80, 56
1, 219144, Note_on_c, 1, 80, 0
1, 219200, Note_on_c, 1, 79, 55
1, 219304, Note_on_c, 1, 79, 0
1, 219360, Note_on_c, 1, 77, 55
1, 219360, Note_on_c, 5, 43, 55
1, 219360, Note_on_c, 5, 55, 55
1, 219464, Note_on_c, 1, 77, 0
1, 219520, Note_on_c, 1, 75, 54
1, 219624, Note_on_c, 1, 75, 0
1, 219680, Note_on_c, 1, 73, 54
1, 219744, Note_on_c, 5, 43, 0
1, 219744, Note_on_c, 5, 55, 0
1, 219784, Note_on_c, 1, 73, 0
1, 219840, Note_on_c, 1, 72, 53
1, 219840, Note_on_c, 5, 44, 53
1, 219840, Note_on_c, 5, 56, 53
1, 219960, Note_on_c, 1, 72, 0
1, 219960, Note_on_c, 1, 73, 53
1, 220080, Note_on_c, 1, 73, 0
1, 220080, Note_on_c, 1, 72, 53
1, 220200, Note_on_c, 1, 72, 0
1, 220200, Note_on_c, 1, 68, 52
1, 220224, Note_on_c, 5, 44, 0
1, 220224, Note_on_c, 5, 56, 0
1, 220320, Note_on_c, 1, 68, 0
1, 220320, Note_on_c, 1, 84, 52
1, 220480, Note_on_c, 1, 84, 0
1, 220480, Note_on_c, 1, 82, 51
1, 220640, Note_on_c, 1, 82, 0
1, 220640, Note_on_c, 1, 80, 51
1, 220800, Note_on_c, 1, 80, 0
1, 220800, Note_on_c, 1, 79, 50
1, 220800, Note_on_c, 4, 61, 50
1, 220800, Note_on_c, 5, 58, 50
1, 220960, Note_on_c, 1, 79, 0
1, 220960, Note_on_c, 1, 77, 50
1, 221120, Note_on_c, 1, 77, 0
1, 221120, Note_on_c, 1, 76, 49
1, 221184, Note_on_c, 4, 61, 0
1, 221184, Note_on_c, 5, 58, 0
1, 221265, Note_on_c, 1, 76, 0
1, 221280, Note_on_c, 1, 77, 49
1, 221280, Note_on_c, 4, 60, 49
1, 221280, Note_on_c, 5, 56, 49
1, 221400, Note_on_c, 1, 77, 0
1, 221400, Note_on_c, 1, 79, 48
1, 221520, Note_on_c, 1, 79, 0
1, 221520, Note_on_c, 1, 77, 48
1, 221640, Note_on_c, 1, 77, 0
1, 221640, Note_on_c, 1, 72, 48
1, 221664, Note_on_c, 4, 60, 0
1, 221664, Note_on_c, 5, 56, 0
1, 221750, Note_on_c, 1, 72, 0
1, 221760, Note_on_c, 1, 84, 47
1, 221888, Note_on_c, 1, 84, 0
1, 221920, Note_on_c, 1, 82, 47
1, 222048, Note_on_c, 1, 82, 0
1, 222080, Note_on_c, 1, 80, 46
1, 222208, Note_on_c, 1, 80, 0
1, 222240, Note_on_c, 1, 79, 46
1, 222240, Note_on_c, 5, 57, 46
1, 222240, Note_on_c, 5, 63, 46
1, 222368, Note_on_c, 1, 79, 0
1, 222396, Note_on_c, 5, 63, 0
1, 222400, Note_on_c, 1, 77, 45
1, 222400, Note_on_c, 5, 65, 45
1, 222528, Note_on_c, 1, 77, 0
1, 222556, Note_on_c, 5, 65, 0
1, 222560, Note_on_c, 1, 75, 45
1, 222560, Note_on_c, 5, 67, 45
1, 222600, Tempo, 487804
1, 222688, Note_on_c, 1, 75, 0
1, 222700, Note_on_c, 5, 67, 0
1, 222720, Tempo, 495867
1, 222720, Note_on_c, 1, 75, 44
1, 222720, Note_on_c, 5, 57, 0
1, 222720, Note_on_c, 5, 67, 44
1, 222720, Note_on_c, 5, 58, 44
1, 223200, Tempo, 517241
1, 223200, Note_on_c, 1, 75, 0
1, 223200, Note_on_c, 1, 74, 40
1, 223200, Note_on_c, 5, 67, 0
1, 223200, Note_on_c, 5, 65, 40
1, 223580, Note_on_c, 5, 58, 0
1, 223580, Note_on_c, 5, 65, 0
1, 223584, Note_on_c, 1, 74, 0
1, 223680, Tempo, 480000
1, 223680, Note_on_c, 1, 77, 45
1, 223680, Note_on_c, 5, 58, 45
1, 223800, Note_on_c, 1, 77, 0
1, 223800, Note_on_c, 1, 79, 46
1, 223915, Note_on_c, 5, 58, 0
1, 223920, Note_on_c, 1, 79, 0
1, 223920, Note_on_c, 1, 77, 48
1, 223920, Note_on_c, 3, 65, 48
1, 224040, Note_on_c, 1, 77, 0
1, 224040, Note_on_c, 1, 74, 49
1, 224112, Note_on_c, 3, 65, 0
1, 224140, Note_on_c, 1, 74, 0
1, 224160, Note_on_c, 1, 75, 53
1, 224160, Note_on_c, 5, 60, 53
1, 224395, Note_on_c, 5, 60, 0
1, 224400, Note_on_c, 1, 75, 0
1, 224400, Note_on_c, 3, 65, 51
1, 224592, Note_on_c, 3, 65, 0
1, 224640, Note_on_c, 1, 72, 49
1, 224640, Note_on_c, 5, 63, 49
1, 224875, Note_on_c, 5, 63, 0
1, 224880, Note_on_c, 1, 72, 0
1, 224880, Note_on_c, 3, 65, 46
1, 225072, Note_on_c, 3, 65, 0
1, 225120, Note_on_c, 1, 81, 55
1, 225120, Note_on_c, 5, 63, 55
1, 225240, Note_on_c, 1, 81, 0
1, 225240, Note_on_c, 1, 82, 58
1, 225355, Note_on_c, 5, 63, 0
1, 225360, Note_on_c, 1, 82, 0
1, 225360, Note_on_c, 1, 81, 61
1, 225360, Note_on_c, 3, 65, 61
1, 225480, Note_on_c, 1, 81, 0
1, 225480, Note_on_c, 1, 77, 64
1, 225552, Note_on_c, 3, 65, 0
1, 225585, Note_on_c, 1, 77, 0
1, 225600, Note_on_c, 1, 82, 71
1, 225600, Note_on_c, 5, 62, 71
1, 225835, Note_on_c, 5, 62, 0
1, 225840, Note_on_c, 3, 65, 66
1, 226032, Note_on_c, 3, 65, 0
1, 226080, Note_on_c, 1, 82, 0
1, 226080, Note_on_c, 1, 86, 62
1, 226080, Note_on_c, 5, 58, 62
1, 226315, Note_on_c, 5, 58, 0
1, 226320, Note_on_c, 1, 86, 0
1, 226320, Note_on_c, 3, 65, 57
1, 226512, Note_on_c, 3, 65, 0
1, 226560, Note_on_c, 1, 77, 53
1, 226560, Note_on_c, 5, 58, 53
1, 226656, Note_on_c, 1, 77, 0
1, 226680, Note_on_c, 1, 79, 55
1, 226776, Note_on_c, 1, 79, 0
1, 226795, Note_on_c, 5, 58, 0
1, 226800, Note_on_c, 1, 77, 56
1, 226800, Note_on_c, 3, 65, 56
1, 226896, Note_on_c, 1, 77, 0
1, 226920, Note_on_c, 1, 74, 58
1, 226992, Note_on_c, 3, 65, 0
1, 227016, Note_on_c, 1, 74, 0
1, 227040, Note_on_c, 1, 75, 61
1, 227040, Note_on_c, 5, 60, 61
1, 227233, Note_on_c, 1, 75, 0
1, 227275, Note_on_c, 5, 60, 0
1, 227280, Note_on_c, 3, 65, 58
1, 227472, Note_on_c, 3, 65, 0
1, 227520, Note_on_c, 1, 72, 56
1, 227520, Note_on_c, 5, 63, 56
1, 227713, Note_on_c, 1, 72, 0
1, 227755, Note_on_c, 5, 63, 0
1, 227760, Note_on_c, 3, 65, 53
1, 227952, Note_on_c, 3, 65, 0
1, 228000, Note_on_c, 1, 81, 60
1, 228000, Note_on_c, 5, 63, 60
1, 228120, Note_on_c, 1, 81, 0
1, 228120, Note_on_c, 1, 82, 63
1, 228235, Note_on_c, 5, 63, 0
1, 228240, Note_on_c, 1, 82, 0
1, 228240, Note_on_c, 1, 81, 65
1, 228240, Note_on_c, 3, 65, 65
1, 228360, Note_on_c, 1, 81, 0
1, 228360, Note_on_c, 1, 77, 68
1, 228432, Note_on_c, 3, 65, 0
1, 228460, Note_on_c, 1, 77, 0
1, 228480, Note_on_c, 1, 82, 73
1, 228480, Note_on_c, 5, 58, 73
1, 228715, Note_on_c, 5, 58, 0
1, 228720, Note_on_c, 3, 62, 68
1, 228912, Note_on_c, 3, 62, 0
1, 228960, Tempo, 487804
1, 228960, Note_on_c, 1, 82, 0
1, 228960, Note_on_c, 1, 86, 63
1, 228960, Note_on_c, 5, 58, 63
1, 229200, Note_on_c, 1, 86, 0
1, 229200, Note_on_c, 5, 58, 0
1, 229440, Note_on_c, 1, 84, 57
1, 229560, Note_on_c, 1, 84, 0
1, 229560, Note_on_c, 1, 82, 56
1, 229680, Note_on_c, 1, 82, 0
1, 229680, Note_on_c, 1, 81, 55
1, 229800, Note_on_c, 1, 81, 0
1, 229800, Note_on_c, 1, 79, 55
1, 229905, Note_on_c, 1, 79, 0
1, 229920, Note_on_c, 1, 79, 54
1, 230160, Note_on_c, 1, 79, 0
1, 230160, Note_on_c, 1, 77, 53
1, 230360, Note_on_c, 1, 77, 0
1, 230400, Note_on_c, 1, 77, 51
1, 230400, Note_on_c, 4, 58, 51
1, 230400, Note_on_c, 5, 50, 51
1, 230713, Note_on_c, 1, 77, 0
1, 230713, Note_on_c, 4, 58, 0
1, 230713, Note_on_c, 5, 50, 0
1, 230880, Note_on_c, 1, 79, 48
1, 230880, Note_on_c, 4, 58, 48
1, 230880, Note_on_c, 5, 50, 48
1, 231000, Note_on_c, 1, 79, 0
1, 231000, Note_on_c, 1, 77, 48
1, 231120, Note_on_c, 1, 77, 0
1, 231120, Note_on_c, 1, 75, 47
1, 231193, Note_on_c, 4, 58, 0
1, 231193, Note_on_c, 5, 50, 0
1, 231240, Note_on_c, 1, 75, 0
1, 231240, Note_on_c, 1, 74, 46
1, 231345, Note_on_c, 1, 74, 0
1, 231360, Note_on_c, 1, 74, 46
1, 231600, Note_on_c, 1, 74, 0
1, 231600, Note_on_c, 1, 72, 44
1, 231800, Note_on_c, 1, 72, 0
1, 231840, Note_on_c, 1, 72, 43
1, 231840, Note_on_c, 4, 58, 43
1, 231840, Note_on_c, 5, 51, 43
1, 232153, Note_on_c, 1, 72, 0
1, 232153, Note_on_c, 4, 58, 0
1, 232153, Note_on_c, 5, 51, 0
1, 232320, Note_on_c, 1, 72, 40
1, 232320, Note_on_c, 4, 58, 40
1, 232320, Note_on_c, 5, 52, 40
1, 232560, Tempo, 500000
1, 232633, Note_on_c, 1, 72, 0
1, 232633, Note_on_c, 4, 58, 0
1, 232633, Note_on_c, 5, 52, 0
1, 232800, Tempo, 480000
1, 232800, Note_on_c, 1, 74, 67
1, 232800, Note_on_c, 4, 58, 67
1, 232800, Note_on_c, 5, 53, 67
1, 232860, Note_on_c, 1, 76, 69
1, 232860, Note_on_c, 4, 60, 69
1, 232890, Note_on_c, 1, 74, 0
1, 232890, Note_on_c, 4, 58, 0
1, 232920, Note_on_c, 1, 77, 71
1, 232920, Note_on_c, 4, 62, 71
1, 232950, Note_on_c, 4, 60, 0
1, 232958, Note_on_c, 1, 76, 0
1, 233280, Tempo, 487804
1, 233520, Note_on_c, 1, 77, 0
1, 233520, Note_on_c, 4, 62, 0
1, 233520, Note_on_c, 5, 53, 0
1, 233760, Note_on_c, 1, 77, 54
1, 233760, Note_on_c, 4, 62, 54
1, 233760, Note_on_c, 5, 53, 54
1, 233880, Note_on_c, 1, 77, 0
1, 233880, Note_on_c, 1, 75, 52
1, 233880, Note_on_c, 4, 62, 0
1, 233880, Note_on_c, 4, 60, 52
1, 234000, Note_on_c, 1, 75, 0
1, 234000, Note_on_c, 1, 74, 50
1, 234000, Note_on_c, 4, 60, 0
1, 234000, Note_on_c, 4, 58, 50
1, 234120, Note_on_c, 1, 74, 0
1, 234120, Note_on_c, 1, 72, 48
1, 234120, Note_on_c, 4, 58, 0
1, 234120, Note_on_c, 4, 57, 48
1, 234220, Note_on_c, 1, 72, 0
1, 234220, Note_on_c, 4, 57, 0
1, 234225, Note_on_c, 5, 53, 0
1, 234240, Tempo, 495867
1, 234240, Note_on_c, 1, 70, 45
1, 234240, Note_on_c, 5, 58, 45
1, 234433, Note_on_c, 5, 58, 0
1, 234720, Tempo, 550458
1, 234720, Note_on_c, 1, 70, 0
1, 234720, Note_on_c, 5, 46, 36
1, 234913, Note_on_c, 5, 46, 0
1, 235200, Tempo, 480000
1, 235200, Note_on_c, 1, 70, 40
1, 235200, Note_on_c, 4, 62, 40
1, 235320, Note_on_c, 1, 70, 0
1, 235440, Note_on_c, 1, 70, 46
1, 235440, Note_on_c, 3, 58, 46
1, 235440, Note_on_c, 4, 62, 0
1, 235560, Note_on_c, 1, 70, 0
1, 235632, Note_on_c, 3, 58, 0
1, 235680, Note_on_c, 1, 71, 57
1, 235680, Note_on_c, 4, 63, 57
1, 235800, Note_on_c, 1, 72, 55
1, 235845, Note_on_c, 1, 71, 0
1, 235920, Note_on_c, 3, 58, 53
1, 235920, Note_on_c, 4, 63, 0
1, 236112, Note_on_c, 3, 58, 0
1, 236160, Note_on_c, 4, 63, 50
1, 236168, Note_on_c, 1, 72, 0
1, 236400, Note_on_c, 3, 58, 47
1, 236400, Note_on_c, 4, 63, 0
1, 236592, Note_on_c, 3, 58, 0
1, 236640, Note_on_c, 1, 74, 49
1, 236640, Note_on_c, 4, 65, 49
1, 236760, Note_on_c, 1, 74, 0
1, 236880, Note_on_c, 1, 74, 53
1, 236880, Note_on_c, 3, 58, 53
1, 236880, Note_on_c, 4, 65, 0
1, 237000, Note_on_c, 1, 74, 0
1, 237072, Note_on_c, 3, 58, 0
1, 237120, Note_on_c, 1, 74, 62
1, 237120, Note_on_c, 4, 67, 62
1, 237240, Note_on_c, 1, 75, 60
1, 237293, Note_on_c, 1, 74, 0
1, 237360, Note_on_c, 3, 58, 59
1, 237360, Note_on_c, 4, 67, 0
1, 237552, Note_on_c, 3, 58, 0
1, 237600, Note_on_c, 4, 67, 55
1, 237608, Note_on_c, 1, 75, 0
1, 237840, Note_on_c, 3, 58, 52
1, 237840, Note_on_c, 4, 67, 0
1, 238032, Note_on_c, 3, 58, 0
1, 238080, Note_on_c, 1, 77, 55
1, 238080, Note_on_c, 4, 62, 55
1, 238200, Note_on_c, 1, 77, 0
1, 238320, Note_on_c, 1, 77, 60
1, 238320, Note_on_c, 3, 58, 60
1, 238320, Note_on_c, 4, 62, 0
1, 238440, Note_on_c, 1, 77, 0
1, 238512, Note_on_c, 3, 58, 0
1, 238560, Note_on_c, 1, 78, 72
1, 238560, Note_on_c, 4, 63, 72
1, 238680, Note_on_c, 1, 79, 70
1, 238733, Note_on_c, 1, 78, 0
1, 238800, Note_on_c, 3, 58, 68
1, 238800, Note_on_c, 4, 63, 0
1, 238992, Note_on_c, 3, 58, 0
1, 239040, Note_on_c, 4, 63, 64
1, 239063, Note_on_c, 1, 79, 0
1, 239280, Note_on_c, 3, 58, 60
1, 239280, Note_on_c, 4, 63, 0
1, 239472, Note_on_c, 3, 58, 0
1, 239520, Note_on_c, 1, 81, 61
1, 239520, Note_on_c, 4, 60, 61
1, 239640, Note_on_c, 1, 81, 0
1, 239760, Note_on_c, 1, 81, 66
1, 239760, Note_on_c, 3, 58, 66
1, 239760, Note_on_c, 4, 60, 0
1, 239880, Note_on_c, 1, 81, 0
1, 239952, Note_on_c, 3, 58, 0
1, 240000, Note_on_c, 1, 81, 76
1, 240000, Note_on_c, 4, 62, 76
1, 240120, Note_on_c, 1, 82, 72
1, 240165, Note_on_c, 1, 81, 0
1, 240240, Note_on_c, 3, 58, 67
1, 240240, Note_on_c, 4, 62, 0
1, 240432, Note_on_c, 3, 58, 0
1, 240480, Note_on_c, 4, 65, 57
1, 240495, Note_on_c, 1, 82, 0
1, 240720, Note_on_c, 3, 62, 47
1, 240720, Note_on_c, 4, 65, 0
1, 240912, Note_on_c, 3, 62, 0
1, 240960, Note_on_c, 1, 70, 41
1, 240960, Note_on_c, 5, 58, 41
1, 241080, Note_on_c, 1, 70, 0
1, 241200, Note_on_c, 1, 70, 47
1, 241320, Tempo, 487804
1, 241320, Note_on_c, 1, 70, 0
1, 241440, Tempo, 480000
1, 241440, Note_on_c, 1, 75, 75
1, 241440, Note_on_c, 5, 58, 0
1, 241440, Note_on_c, 5, 59, 75
1, 241440, Note_on_c, 5, 47, 75
1, 241680, Note_on_c, 1, 75, 0
1, 241680, Note_on_c, 1, 77, 73
1, 241920, Note_on_c, 1, 77, 0
1, 241920, Note_on_c, 1, 78, 70
1, 242160, Note_on_c, 1, 78, 0
1, 242160, Note_on_c, 1, 77, 68
1, 242400, Note_on_c, 1, 77, 0
1, 242400, Note_on_c, 1, 75, 66
1, 242640, Note_on_c, 1, 75, 0
1, 242640, Note_on_c, 1, 74, 63
1, 242855, Note_on_c, 1, 74, 0
1, 242880, Note_on_c, 1, 75, 61
1, 243120, Note_on_c, 1, 75, 0
1, 243120, Note_on_c, 1, 77, 56
1, 243360, Note_on_c, 1, 77, 0
1, 243360, Note_on_c, 1, 78, 52
1, 243600, Note_on_c, 1, 78, 0
1, 243600, Note_on_c, 1, 79, 48
1, 243840, Note_on_c, 1, 79, 0
1, 243840, Note_on_c, 1, 80, 43
1, 244080, Note_on_c, 1, 80, 0
1, 244080, Note_on_c, 1, 81, 38
1, 244200, Tempo, 487804
1, 244298, Note_on_c, 5, 47, 0
1, 244305, Note_on_c, 5, 59, 0
1, 244320, Note_on_c, 1, 81, 0
1, 244320, Note_on_c, 1, 82, 34
1, 244320, Note_on_c, 5, 46, 34
1, 244320, Note_on_c, 5, 58, 34
1, 244800, Note_on_c, 1, 82, 0
1, 244800, Note_on_c, 5, 46, 0
1, 244800, Note_on_c, 5, 58, 0
1, 245280, Tempo, 480000
1, 245280, Note_on_c, 5, 46, 72
1, 245280, Note_on_c, 5, 58, 72
1, 245400, Note_on_c, 5, 46, 0
1, 245400, Note_on_c, 5, 58, 0
1, 245400, Note_on_c, 5, 47, 74
1, 245400, Note_on_c, 5, 59, 74
1, 245520, Note_on_c, 5, 47, 0
1, 245520, Note_on_c, 5, 59, 0
1, 245520, Note_on_c, 5, 46, 75
1, 245520, Note_on_c, 5, 58, 75
1, 245640, Note_on_c, 5, 46, 0
1, 245640, Note_on_c, 5, 58, 0
1, 245640, Note_on_c, 5, 45, 77
1, 245640, Note_on_c, 5, 57, 77
1, 245760, Tempo, 487804
1, 245760, Note_on_c, 5, 45, 0
1, 245760, Note_on_c, 5, 57, 0
1, 245760, Note_on_c, 5, 46, 79
1, 245760, Note_on_c, 5, 58, 79
1, 246240, Tempo, 600000
1, 246240, Note_on_c, 5, 46, 0
1, 246240, Note_on_c, 5, 58, 0
1, 246720, Tempo, 480000
1, 246720, Note_on_c, 1, 70, 42
1, 246840, Note_on_c, 1, 70, 0
1, 246840, Note_on_c, 1, 72, 43
1, 246960, Note_on_c, 1, 72, 0
1, 246960, Note_on_c, 1, 70, 44
1, 247080, Note_on_c, 1, 70, 0
1, 247080, Note_on_c, 1, 69, 45
1, 247200, Note_on_c, 1, 69, 0
1, 247200, Note_on_c, 1, 70, 45
1, 247200, Note_on_c, 4, 67, 45
1, 247200, Note_on_c, 4, 63, 45
1, 247440, Note_on_c, 3, 58, 47
1, 247560, Note_on_c, 4, 67, 0
1, 247560, Note_on_c, 4, 63, 0
1, 247584, Note_on_c, 1, 70, 0
1, 247632, Note_on_c, 3, 58, 0
1, 247680, Note_on_c, 4, 67, 49
1, 247680, Note_on_c, 4, 63, 49
1, 247920, Note_on_c, 3, 58, 51
1, 248040, Note_on_c, 1, 70, 52
1, 248040, Note_on_c, 4, 67, 0
1, 248040, Note_on_c, 4, 63, 0
1, 248112, Note_on_c, 3, 58, 0
1, 248160, Note_on_c, 1, 70, 0
1, 248160, Note_on_c, 1, 75, 52
1, 248160, Note_on_c, 4, 67, 52
1, 248160, Note_on_c, 4, 63, 52
1, 248400, Note_on_c, 3, 58, 54
1, 248448, Note_on_c, 1, 75, 0
1, 248520, Note_on_c, 1, 75, 55
1, 248520, Note_on_c, 4, 67, 0
1, 248520, Note_on_c, 4, 63, 0
1, 248592, Note_on_c, 3, 58, 0
1, 248616, Note_on_c, 1, 75, 0
1, 248640, Note_on_c, 1, 75, 61
1, 248640, Note_on_c, 4, 68, 61
1, 248640, Note_on_c, 4, 65, 61
1, 248880, Note_on_c, 3, 58, 57
1, 249000, Note_on_c, 4, 68, 0
1, 249000, Note_on_c, 4, 65, 0
1, 249072, Note_on_c, 3, 58, 0
1, 249120, Note_on_c, 1, 75, 0
1, 249120, Note_on_c, 1, 74, 54
1, 249120, Note_on_c, 4, 68, 54
1, 249120, Note_on_c, 4, 65, 54
1, 249360, Note_on_c, 1, 74, 0
1, 249360, Note_on_c, 3, 58, 51
1, 249480, Note_on_c, 4, 68, 0
1, 249480, Note_on_c, 4, 65, 0
1, 249552, Note_on_c, 3, 58, 0
1, 249600, Note_on_c, 1, 70, 48
1, 249600, Note_on_c, 4, 68, 48
1, 249600, Note_on_c, 4, 65, 48
1, 249720, Note_on_c, 1, 70, 0
1, 249720, Note_on_c, 1, 72, 50
1, 249840, Note_on_c, 1, 72, 0
1, 249840, Note_on_c, 1, 70, 51
1, 249840, Note_on_c, 3, 58, 51
1, 249960, Note_on_c, 1, 70, 0
1, 249960, Note_on_c, 1, 69, 52
1, 249960, Note_on_c, 4, 68, 0
1, 249960, Note_on_c, 4, 65, 0
1, 250032, Note_on_c, 3, 58, 0
1, 250080, Note_on_c, 1, 69, 0
1, 250080, Note_on_c, 1, 70, 53
1, 250080, Note_on_c, 4, 67, 53
1, 250080, Note_on_c, 4, 63, 53
1, 250320, Note_on_c, 3, 58, 55
1, 250440, Note_on_c, 4, 67, 0
1, 250440, Note_on_c, 4, 63, 0
1, 250464, Note_on_c, 1, 70, 0
1, 250512, Note_on_c, 3, 58, 0
1, 250560, Note_on_c, 4, 67, 57
1, 250560, Note_on_c, 4, 63, 57
1, 250800, Note_on_c, 3, 58, 60
1, 250920, Note_on_c, 1, 70, 61
1, 250920, Note_on_c, 4, 67, 0
1, 250920, Note_on_c, 4, 63, 0
1, 250992, Note_on_c, 3, 58, 0
1, 251040, Note_on_c, 1, 70, 0
1, 251040, Note_on_c, 1, 79, 62
1, 251040, Note_on_c, 4, 67, 62
1, 251040, Note_on_c, 4, 63, 62
1, 251280, Note_on_c, 3, 58, 64
1, 251328, Note_on_c, 1, 79, 0
1, 251400, Note_on_c, 1, 79, 65
1, 251400, Note_on_c, 4, 67, 0
1, 251400, Note_on_c, 4, 63, 0
1, 251472, Note_on_c, 3, 58, 0
1, 251496, Note_on_c, 1, 79, 0
1, 251520, Note_on_c, 1, 82, 70
1, 251520, Note_on_c, 4, 65, 70
1, 251520, Note_on_c, 4, 62, 70
1, 251760, Note_on_c, 3, 58, 67
1, 251880, Note_on_c, 4, 65, 0
1, 251880, Note_on_c, 4, 62, 0
1, 251952, Note_on_c, 3, 58, 0
1, 252000, Note_on_c, 1, 82, 0
1, 252000, Note_on_c, 1, 80, 64
1, 252000, Note_on_c, 4, 65, 64
1, 252000, Note_on_c, 4, 62, 64
1, 252240, Note_on_c, 1, 80, 0
1, 252240, Note_on_c, 3, 58, 60
1, 252360, Note_on_c, 4, 65, 0
1, 252360, Note_on_c, 4, 62, 0
1, 252432, Note_on_c, 3, 58, 0
1, 252480, Note_on_c, 1, 80, 59
1, 252480, Note_on_c, 4, 65, 59
1, 252480, Note_on_c, 4, 62, 59
1, 252600, Note_on_c, 1, 80, 0
1, 252600, Note_on_c, 1, 82, 58
1, 252720, Note_on_c, 1, 82, 0
1, 252720, Note_on_c, 1, 80, 58
1, 252720, Note_on_c, 3, 58, 58
1, 252840, Note_on_c, 1, 80, 0
1, 252840, Note_on_c, 1, 77, 57
1, 252840, Note_on_c, 4, 65, 0
1, 252840, Note_on_c, 4, 62, 0
1, 252912, Note_on_c, 3, 58, 0
1, 252950, Note_on_c, 1, 77, 0
1, 252960, Note_on_c, 1, 79, 57
1, 252960, Note_on_c, 5, 63, 57
1, 253080, Note_on_c, 1, 79, 0
1, 253080, Note_on_c, 1, 80, 57
1, 253200, Note_on_c, 1, 80, 0
1, 253200, Note_on_c, 1, 79, 56
1, 253320, Note_on_c, 1, 79, 0
1, 253320, Note_on_c, 1, 75, 56
1, 253425, Note_on_c, 1, 75, 0
1, 253440, Note_on_c, 1, 82, 55
1, 253440, Note_on_c, 5, 63, 0
1, 253544, Note_on_c, 1, 82, 0
1, 253600, Note_on_c, 1, 80, 55
1, 253704, Note_on_c, 1, 80, 0
1, 253760, Note_on_c, 1, 79, 54
1, 253864, Note_on_c, 1, 79, 0
1, 253920, Note_on_c, 1, 77, 53
1, 253920, Note_on_c, 5, 55, 53
1, 253920, Note_on_c, 5, 43, 53
1, 254024, Note_on_c, 1, 77, 0
1, 254080, Note_on_c, 1, 75, 53
1, 254184, Note_on_c, 1, 75, 0
1, 254240, Note_on_c, 1, 73, 52
1, 254304, Note_on_c, 5, 55, 0
1, 254304, Note_on_c, 5, 43, 0
1, 254344, Note_on_c, 1, 73, 0
1, 254400, Note_on_c, 1, 72, 52
1, 254400, Note_on_c, 5, 56, 52
1, 254400, Note_on_c, 5, 44, 52
1, 254520, Note_on_c, 1, 72, 0
1, 254520, Note_on_c, 1, 73, 51
1, 254640, Note_on_c, 1, 73, 0
1, 254640, Note_on_c, 1, 72, 51
1, 254760, Note_on_c, 1, 72, 0
1, 254760, Note_on_c, 1, 68, 50
1, 254784, Note_on_c, 5, 56, 0
1, 254784, Note_on_c, 5, 44, 0
1, 254865, Note_on_c, 1, 68, 0
1, 254880, Note_on_c, 1, 84, 50
1, 255040, Note_on_c, 1, 84, 0
1, 255040, Note_on_c, 1, 82, 49
1, 255200, Note_on_c, 1, 82, 0
1, 255200, Note_on_c, 1, 80, 49
1, 255360, Note_on_c, 1, 80, 0
1, 255360, Note_on_c, 1, 79, 48
1, 255360, Note_on_c, 4, 61, 48
1, 255360, Note_on_c, 5, 58, 48
1, 255520, Note_on_c, 1, 79, 0
1, 255520, Note_on_c, 1, 77, 47
1, 255680, Note_on_c, 1, 77, 0
1, 255680, Note_on_c, 1, 76, 47
1, 255744, Note_on_c, 4, 61, 0
1, 255744, Note_on_c, 5, 58, 0
1, 255820, Note_on_c, 1, 76, 0
1, 255840, Note_on_c, 1, 77, 46
1, 255840, Note_on_c, 4, 60, 46
1, 255840, Note_on_c, 5, 56, 46
1, 255960, Note_on_c, 1, 77, 0
1, 255960, Note_on_c, 1, 79, 46
1, 256080, Note_on_c, 1, 79, 0
1, 256080, Note_on_c, 1, 77, 45
1, 256200, Note_on_c, 1, 77, 0
1, 256200, Note_on_c, 1, 72, 45
1, 256224, Note_on_c, 4, 60, 0
1, 256224, Note_on_c, 5, 56, 0
1, 256320, Note_on_c, 1, 72, 0
1, 256320, Note_on_c, 1, 84, 45
1, 256448, Note_on_c, 1, 84, 0
1, 256480, Note_on_c, 1, 82, 44
1, 256608, Note_on_c, 1, 82, 0
1, 256640, Note_on_c, 1, 80, 43
1, 256768, Note_on_c, 1, 80, 0
1, 256800, Note_on_c, 1, 79, 43
1, 256800, Note_on_c, 5, 57, 43
1, 256800, Note_on_c, 5, 63, 43
1, 256928, Note_on_c, 1, 79, 0
1, 256956, Note_on_c, 5, 63, 0
1, 256960, Note_on_c, 1, 77, 42
1, 256960, Note_on_c, 5, 65, 42
1, 257088, Note_on_c, 1, 77, 0
1, 257116, Note_on_c, 5, 65, 0
1, 257120, Note_on_c, 1, 75, 42
1, 257120, Note_on_c, 5, 67, 42
1, 257160, Tempo, 487804
1, 257248, Note_on_c, 1, 75, 0
1, 257276, Note_on_c, 5, 67, 0
1, 257280, Tempo, 495867
1, 257280, Note_on_c, 1, 75, 41
1, 257280, Note_on_c, 5, 57, 0
1, 257280, Note_on_c, 5, 58, 41
1, 257280, Note_on_c, 5, 67, 41
1, 257760, Tempo, 508474
1, 257760, Note_on_c, 1, 75, 0
1, 257760, Note_on_c, 1, 74, 35
1, 257760, Note_on_c, 5, 67, 0
1, 257760, Note_on_c, 5, 65, 35
1, 258000, Note_on_c, 1, 74, 0
1, 258205, Note_on_c, 5, 58, 0
1, 258205, Note_on_c, 5, 65, 0
1, 258240, Tempo, 480000
1, 258240, Note_on_c, 1, 70, 46
1, 258240, Note_on_c, 4, 51, 46
1, 258360, Note_on_c, 1, 70, 0
1, 258360, Note_on_c, 1, 72, 47
1, 258480, Note_on_c, 1, 72, 0
1, 258480, Note_on_c, 1, 70, 48
1, 258480, Note_on_c, 3, 58, 48
1, 258480, Note_on_c, 4, 51, 0
1, 258600, Note_on_c, 1, 70, 0
1, 258600, Note_on_c, 1, 67, 49
1, 258672, Note_on_c, 3, 58, 0
1, 258700, Note_on_c, 1, 67, 0
1, 258720, Note_on_c, 1, 68, 51
1, 258720, Note_on_c, 4, 53, 51
1, 258960, Note_on_c, 1, 68, 0
1, 258960, Note_on_c, 3, 58, 50
1, 258960, Note_on_c, 4, 53, 0
1, 259152, Note_on_c, 3, 58, 0
1, 259200, Note_on_c, 1, 65, 48
1, 259200, Note_on_c, 4, 56, 48
1, 259440, Note_on_c, 1, 65, 0
1, 259440, Note_on_c, 3, 58, 46
1, 259440, Note_on_c, 4, 56, 0
1, 259632, Note_on_c, 3, 58, 0
1, 259680, Note_on_c, 1, 74, 52
1, 259680, Note_on_c, 4, 56, 52
1, 259800, Note_on_c, 1, 74, 0
1, 259800, Note_on_c, 1, 75, 55
1, 259920, Note_on_c, 1, 75, 0
1, 259920, Note_on_c, 1, 74, 57
1, 259920, Note_on_c, 3, 58, 57
1, 259920, Note_on_c, 4, 56, 0
1, 260040, Note_on_c, 1, 74, 0
1, 260040, Note_on_c, 1, 70, 59
1, 260112, Note_on_c, 3, 58, 0
1, 260155, Note_on_c, 1, 70, 0
1, 260160, Note_on_c, 1, 75, 66
1, 260160, Note_on_c, 4, 55, 66
1, 260400, Note_on_c, 3, 58, 63
1, 260400, Note_on_c, 4, 55, 0
1, 260592, Note_on_c, 3, 58, 0
1, 260640, Note_on_c, 1, 75, 0
1, 260640, Note_on_c, 1, 79, 60
1, 260640, Note_on_c, 4, 51, 60
1, 260880, Note_on_c, 1, 79, 0
1, 260880, Note_on_c, 3, 58, 57
1, 260880, Note_on_c, 4, 51, 0
1, 261072, Note_on_c, 3, 58, 0
1, 261120, Note_on_c, 1, 70, 53
1, 261120, Note_on_c, 4, 51, 53
1, 261240, Note_on_c, 1, 70, 0
1, 261240, Note_on_c, 1, 72, 55
1, 261360, Note_on_c, 1, 72, 0
1, 261360, Note_on_c, 1, 70, 57
1, 261360, Note_on_c, 3, 58, 57
1, 261360, Note_on_c, 4, 51, 0
1, 261480, Note_on_c, 1, 70, 0
1, 261480, Note_on_c, 1, 67, 59
1, 261552, Note_on_c, 3, 58, 0
1, 261590, Note_on_c, 1, 67, 0
1, 261600, Note_on_c, 1, 68, 63
1, 261600, Note_on_c, 4, 53, 63
1, 261840, Note_on_c, 1, 68, 0
1, 261840, Note_on_c, 3, 58, 60
1, 261840, Note_on_c, 4, 53, 0
1, 262032, Note_on_c, 3, 58, 0
1, 262080, Note_on_c, 1, 65, 58
1, 262080, Note_on_c, 4, 56, 58
1, 262320, Note_on_c, 1, 65, 0
1, 262320, Note_on_c, 3, 58, 55
1, 262320, Note_on_c, 4, 56, 0
1, 262512, Note_on_c, 3, 58, 0
1, 262560, Note_on_c, 1, 74, 59
1, 262560, Note_on_c, 4, 56, 59
1, 262680, Note_on_c, 1, 74, 0
1, 262680, Note_on_c, 1, 75, 62
1, 262800, Note_on_c, 1, 75, 0
1, 262800, Note_on_c, 1, 74, 65
1, 262800, Note_on_c, 3, 58, 65
1, 262800, Note_on_c, 4, 56, 0
1, 262920, Note_on_c, 1, 74, 0
1, 262920, Note_on_c, 1, 70, 68
1, 262992, Note_on_c, 3, 58, 0
1, 263025, Note_on_c, 1, 70, 0
1, 263040, Note_on_c, 1, 75, 71
1, 263040, Note_on_c, 4, 55, 71
1, 263280, Note_on_c, 3, 58, 67
1, 263280, Note_on_c, 4, 55, 0
1, 263472, Note_on_c, 3, 58, 0
1, 263520, Tempo, 487804
1, 263520, Note_on_c, 1, 75, 0
1, 263520, Note_on_c, 1, 79, 64
1, 263520, Note_on_c, 4, 51, 64
1, 263760, Note_on_c, 1, 79, 0
1, 263760, Note_on_c, 4, 51, 0
1, 264000, Note_on_c, 1, 89, 63
1, 264120, Note_on_c, 1, 89, 0
1, 264120, Note_on_c, 1, 87, 62
1, 264240, Note_on_c, 1, 87, 0
1, 264240, Note_on_c, 1, 86, 61
1, 264360, Note_on_c, 1, 86, 0
1, 264360, Note_on_c, 1, 84, 60
1, 264455, Note_on_c, 1, 84, 0
1, 264480, Note_on_c, 1, 84, 60
1, 264720, Note_on_c, 1, 84, 0
1, 264720, Note_on_c, 1, 82, 58
1, 264915, Note_on_c, 1, 82, 0
1, 264960, Note_on_c, 1, 82, 56
1, 264960, Note_on_c, 4, 63, 56
1, 264960, Note_on_c, 5, 55, 56
1, 265273, Note_on_c, 1, 82, 0
1, 265273, Note_on_c, 4, 63, 0
1, 265273, Note_on_c, 5, 55, 0
1, 265440, Note_on_c, 1, 84, 53
1, 265440, Note_on_c, 4, 63, 53
1, 265440, Note_on_c, 5, 55, 53
1, 265560, Note_on_c, 1, 84, 0
1, 265560, Note_on_c, 1, 82, 52
1, 265680, Note_on_c, 1, 82, 0
1, 265680, Note_on_c, 1, 80, 51
1, 265753, Note_on_c, 4, 63, 0
1, 265753, Note_on_c, 5, 55, 0
1, 265800, Note_on_c, 1, 80, 0
1, 265800, Note_on_c, 1, 79, 51
1, 265905, Note_on_c, 1, 79, 0
1, 265920, Note_on_c, 1, 79, 50
1, 266160, Note_on_c, 1, 79, 0
1, 266160, Note_on_c, 1, 77, 48
1, 266365, Note_on_c, 1, 77, 0
1, 266400, Note_on_c, 1, 77, 46
1, 266400, Note_on_c, 4, 63, 46
1, 266400, Note_on_c, 5, 56, 46
1, 266713, Note_on_c, 1, 77, 0
1, 266713, Note_on_c, 4, 63, 0
1, 266713, Note_on_c, 5, 56, 0
1, 266880, Note_on_c, 1, 77, 43
1, 266880, Note_on_c, 4, 63, 43
1, 266880, Note_on_c, 5, 57, 43
1, 267120, Tempo, 500000
1, 267193, Note_on_c, 1, 77, 0
1, 267193, Note_on_c, 4, 63, 0
1, 267193, Note_on_c, 5, 57, 0
1, 267360, Tempo, 480000
1, 267360, Note_on_c, 1, 79, 72
1, 267360, Note_on_c, 4, 63, 72
1, 267360, Note_on_c, 5, 58, 72
1, 267420, Note_on_c, 1, 80, 74
1, 267420, Note_on_c, 4, 65, 74
1, 267450, Note_on_c, 1, 79, 0
1, 267458, Note_on_c, 4, 63, 0
1, 267480, Note_on_c, 1, 82, 77
1, 267480, Note_on_c, 4, 67, 77
1, 267503, Note_on_c, 1, 80, 0
1, 267525, Note_on_c, 4, 65, 0
1, 267840, Tempo, 487804
1, 268073, Note_on_c, 1, 82, 0
1, 268080, Note_on_c, 4, 67, 0
1, 268080, Note_on_c, 5, 58, 0
1, 268320, Note_on_c, 1, 82, 59
1, 268320, Note_on_c, 4, 67, 59
1, 268320, Note_on_c, 5, 58, 59
1, 268440, Note_on_c, 1, 82, 0
1, 268440, Note_on_c, 1, 80, 57
1, 268440, Note_on_c, 4, 67, 0
1, 268440, Note_on_c, 4, 65, 57
1, 268560, Note_on_c, 1, 80, 0
1, 268560, Note_on_c, 1, 79, 55
1, 268560, Note_on_c, 4, 65, 0
1, 268560, Note_on_c, 4, 63, 55
1, 268680, Note_on_c, 1, 79, 0
1, 268680, Note_on_c, 1, 77, 53
1, 268680, Note_on_c, 4, 63, 0
1, 268680, Note_on_c, 4, 62, 53
1, 268800, Tempo, 500000
1, 268800, Note_on_c, 1, 77, 0
1, 268800, Note_on_c, 1, 75, 51
1, 268800, Note_on_c, 4, 62, 0
1, 268800, Note_on_c, 5, 63, 51
1, 268808, Note_on_c, 5, 58, 0
1, 269040, Note_on_c, 5, 63, 0
1, 269280, Tempo, 1111111
1, 269280, Note_on_c, 1, 75, 0
1, 269280, Note_on_c, 5, 51, 40
1, 269436, Note_on_c, 5, 51, 0
1, 269760, Tempo, 472440
1, 269760, Note_on_c, 1, 74, 55
1, 270120, Note_on_c, 1, 74, 0
1, 270120, Note_on_c, 1, 75, 59
1, 270240, Note_on_c, 1, 75, 0
1, 270240, Note_on_c, 1, 72, 61
1, 270480, Note_on_c, 1, 72, 0
1, 270480, Note_on_c, 1, 70, 56
1, 270600, Note_on_c, 1, 70, 0
1, 270720, Note_on_c, 1, 70, 55
1, 270720, Note_on_c, 4, 65, 55
1, 270720, Note_on_c, 5, 62, 55
1, 270876, Note_on_c, 1, 70, 0
1, 270876, Note_on_c, 4, 65, 0
1, 270876, Note_on_c, 5, 62, 0
1, 271200, Note_on_c, 1, 70, 52
1, 271200, Note_on_c, 4, 65, 52
1, 271200, Note_on_c, 5, 62, 52
1, 271356, Note_on_c, 1, 70, 0
1, 271356, Note_on_c, 4, 65, 0
1, 271356, Note_on_c, 5, 62, 0
1, 271560, Tempo, 480000
1, 271680, Note_on_c, 1, 69, 49
1, 271680, Note_on_c, 4, 65, 49
1, 271680, Note_on_c, 5, 63, 49
1, 272040, Note_on_c, 1, 69, 0
1, 272040, Note_on_c, 4, 65, 0
1, 272040, Note_on_c, 5, 63, 0
1, 272160, Tempo, 487804
1, 272640, Tempo, 472440
1, 272640, Note_on_c, 1, 75, 57
1, 273000, Note_on_c, 1, 75, 0
1, 273000, Note_on_c, 1, 77, 61
1, 273120, Note_on_c, 1, 77, 0
1, 273120, Note_on_c, 1, 74, 62
1, 273360, Note_on_c, 1, 74, 0
1, 273360, Note_on_c, 1, 72, 60
1, 273480, Note_on_c, 1, 72, 0
1, 273600, Note_on_c, 1, 72, 58
1, 273600, Note_on_c, 4, 65, 58
1, 273600, Note_on_c, 5, 63, 58
1, 273756, Note_on_c, 1, 72, 0
1, 273756, Note_on_c, 4, 65, 0
1, 273756, Note_on_c, 5, 63, 0
1, 274080, Note_on_c, 1, 72, 54
1, 274080, Note_on_c, 4, 65, 54
1, 274080, Note_on_c, 5, 63, 54
1, 274236, Note_on_c, 1, 72, 0
1, 274236, Note_on_c, 4, 65, 0
1, 274236, Note_on_c, 5, 63, 0
1, 274440, Tempo, 480000
1, 274560, Note_on_c, 1, 70, 51
1, 274560, Note_on_c, 4, 65, 51
1, 274560, Note_on_c, 5, 62, 51
1, 274920, Note_on_c, 1, 70, 0
1, 274920, Note_on_c, 4, 65, 0
1, 274920, Note_on_c, 5, 62, 0
1, 275040, Tempo, 487804
1, 275520, Tempo, 472440
1, 275520, Note_on_c, 1, 74, 67
1, 275520, Note_on_c, 5, 58, 67
1, 275880, Note_on_c, 1, 74, 0
1, 275880, Note_on_c, 1, 75, 72
1, 275880, Note_on_c, 5, 58, 0
1, 275880, Note_on_c, 5, 60, 72
1, 275976, Note_on_c, 1, 75, 0
1, 275976, Note_on_c, 5, 60, 0
1, 276000, Note_on_c, 1, 77, 75
1, 276000, Note_on_c, 5, 53, 75
1, 276000, Note_on_c, 5, 62, 75
1, 276240, Note_on_c, 1, 77, 0
1, 276240, Note_on_c, 1, 79, 73
1, 276240, Note_on_c, 5, 62, 0
1, 276240, Note_on_c, 5, 63, 73
1, 276480, Note_on_c, 1, 79, 0
1, 276480, Note_on_c, 1, 75, 72
1, 276480, Note_on_c, 5, 63, 0
1, 276480, Note_on_c, 5, 60, 72
1, 276720, Note_on_c, 1, 75, 0
1, 276720, Note_on_c, 1, 72, 72
1, 276720, Note_on_c, 5, 60, 0
1, 276720, Note_on_c, 5, 57, 72
1, 276960, Note_on_c, 1, 72, 0
1, 276960, Note_on_c, 1, 74, 71
1, 276960, Note_on_c, 5, 57, 0
1, 276960, Note_on_c, 5, 58, 71
1, 277200, Note_on_c, 1, 74, 0
1, 277200, Note_on_c, 1, 75, 70
1, 277200, Note_on_c, 5, 58, 0
1, 277200, Note_on_c, 5, 60, 70
1, 277400, Note_on_c, 1, 75, 0
1, 277400, Note_on_c, 5, 60, 0
1, 277440, Note_on_c, 1, 77, 70
1, 277440, Note_on_c, 5, 62, 70
1, 277680, Note_on_c, 1, 77, 0
1, 277680, Note_on_c, 1, 79, 69
1, 277680, Note_on_c, 5, 62, 0
1, 277680, Note_on_c, 5, 63, 69
1, 277920, Note_on_c, 1, 79, 0
1, 277920, Note_on_c, 1, 75, 68
1, 277920, Note_on_c, 5, 63, 0
1, 277920, Note_on_c, 5, 60, 68
1, 278160, Note_on_c, 1, 75, 0
1, 278160, Note_on_c, 1, 72, 68
1, 278160, Note_on_c, 5, 60, 0
1, 278160, Note_on_c, 5, 57, 68
1, 278400, Note_on_c, 1, 72, 0
1, 278400, Note_on_c, 1, 74, 67
1, 278400, Note_on_c, 5, 57, 0
1, 278400, Note_on_c, 5, 58, 67
1, 278640, Note_on_c, 1, 74, 0
1, 278640, Note_on_c, 1, 75, 66
1, 278640, Note_on_c, 5, 58, 0
1, 278760, Tempo, 480000
1, 278880, Note_on_c, 1, 75, 0
1, 278880, Note_on_c, 1, 77, 66
1, 278880, Note_on_c, 5, 53, 0
1, 278880, Note_on_c, 5, 62, 66
1, 278930, Tempo, 472440
1, 279085, Note_on_c, 1, 77, 0
1, 279120, Note_on_c, 1, 82, 59
1, 279264, Note_on_c, 5, 62, 0
1, 279360, Note_on_c, 1, 82, 0
1, 279360, Note_on_c, 1, 81, 58
1, 279600, Note_on_c, 1, 81, 0
1, 279600, Note_on_c, 1, 79, 57
1, 279840, Note_on_c, 1, 79, 0
1, 279840, Note_on_c, 1, 77, 56
1, 280080, Note_on_c, 1, 77, 0
1, 280080, Note_on_c, 1, 76, 55
1, 280260, Tempo, 476190
1, 280320, Note_on_c, 1, 76, 0
1, 280320, Note_on_c, 1, 74, 54
1, 280560, Note_on_c, 1, 74, 0
1, 280560, Note_on_c, 1, 72, 53
1, 280800, Note_on_c, 1, 72, 0
1, 280800, Note_on_c, 1, 71, 51
1, 281040, Note_on_c, 1, 71, 0
1, 281040, Note_on_c, 1, 70, 50
1, 281280, Note_on_c, 1, 70, 0
1, 281280, Note_on_c, 1, 69, 49
1, 281520, Note_on_c, 1, 69, 0
1, 281520, Note_on_c, 1, 67, 48
1, 281640, Tempo, 487804
1, 281720, Note_on_c, 1, 67, 0
1, 281760, Tempo, 472440
1, 281760, Note_on_c, 1, 72, 67
1, 282120, Note_on_c, 1, 72, 0
1, 282120, Note_on_c, 1, 74, 65
1, 282240, Note_on_c, 1, 74, 0
1, 282240, Note_on_c, 1, 65, 65
1, 282240, Note_on_c, 4, 57, 65
1, 282240, Note_on_c, 4, 60, 65
1, 282240, Note_on_c, 5, 48, 65
1, 282396, Note_on_c, 1, 65, 0
1, 282396, Note_on_c, 4, 57, 0
1, 282396, Note_on_c, 4, 60, 0
1, 282396, Note_on_c, 5, 48, 0
1, 282720, Note_on_c, 1, 64, 62
1, 282720, Note_on_c, 4, 55, 62
1, 282720, Note_on_c, 4, 58, 62
1, 282720, Note_on_c, 5, 48, 62
1, 282876, Note_on_c, 1, 64, 0
1, 282876, Note_on_c, 4, 55, 0
1, 282876, Note_on_c, 4, 58, 0
1, 282876, Note_on_c, 5, 48, 0
1, 283080, Tempo, 480000
1, 283200, Note_on_c, 1, 65, 60
1, 283200, Note_on_c, 4, 57, 60
1, 283200, Note_on_c, 5, 53, 60
1, 283393, Note_on_c, 5, 53, 0
1, 283680, Tempo, 487804
1, 283680, Note_on_c, 1, 65, 0
1, 283680, Note_on_c, 4, 57, 0
1, 283680, Note_on_c, 5, 41, 53
1, 283873, Note_on_c, 5, 41, 0
1, 284160, Tempo, 472440
1, 284160, Note_on_c, 1, 74, 55
1, 284160, Note_on_c, 5, 70, 55
1, 284520, Note_on_c, 1, 74, 0
1, 284520, Note_on_c, 1, 72, 59
1, 284520, Note_on_c, 5, 70, 0
1, 284520, Note_on_c, 5, 69, 59
1, 284616, Note_on_c, 1, 72, 0
1, 284616, Note_on_c, 5, 69, 0
1, 284640, Note_on_c, 1, 72, 60
1, 284640, Note_on_c, 5, 69, 60
1, 285120, Note_on_c, 1, 72, 0
1, 285120, Note_on_c, 5, 69, 0
1, 285120, Note_on_c, 5, 65, 57
1, 285480, Tempo, 480000
1, 285600, Tempo, 472440
1, 285600, Note_on_c, 1, 76, 65
1, 285600, Note_on_c, 5, 65, 0
1, 285600, Note_on_c, 5, 70, 65
1, 285960, Note_on_c, 1, 76, 0
1, 285960, Note_on_c, 1, 77, 69
1, 285960, Note_on_c, 5, 70, 0
1, 285960, Note_on_c, 5, 69, 69
1, 286056, Note_on_c, 1, 77, 0
1, 286056, Note_on_c, 5, 69, 0
1, 286080, Note_on_c, 1, 77, 70
1, 286080, Note_on_c, 5, 69, 70
1, 286560, Tempo, 480000
1, 286560, Note_on_c, 1, 77, 0
1, 286560, Note_on_c, 5, 69, 0
1, 286560, Note_on_c, 5, 53, 63
1, 287000, Note_on_c, 5, 53, 0
1, 287040, Tempo, 476190
1, 287040, Note_on_c, 2, 71, 79
1, 287040, Note_on_c, 5, 65, 79
1, 287040, Note_on_c, 5, 53, 79
1, 287080, Note_on_c, 2, 74, 79
1, 287120, Note_on_c, 1, 80, 79
1, 287400, Note_on_c, 2, 71, 0
1, 287400, Note_on_c, 2, 74, 0
1, 287400, Note_on_c, 5, 65, 0
1, 287400, Note_on_c, 5, 53, 0
1, 287405, Note_on_c, 1, 80, 0
1, 287520, Note_on_c, 2, 72, 83
1, 287520, Note_on_c, 5, 64, 83
1, 287520, Note_on_c, 5, 52, 83
1, 287560, Note_on_c, 2, 76, 83
1, 287600, Note_on_c, 1, 79, 83
1, 287875, Note_on_c, 2, 76, 0
1, 287875, Note_on_c, 5, 64, 0
1, 287880, Note_on_c, 1, 79, 0
1, 287880, Note_on_c, 5, 52, 0
1, 287885, Note_on_c, 2, 72, 0
1, 288000, Note_on_c, 2, 69, 81
1, 288000, Note_on_c, 5, 63, 81
1, 288000, Note_on_c, 5, 51, 81
1, 288040, Note_on_c, 2, 72, 81
1, 288080, Note_on_c, 1, 78, 81
1, 288355, Note_on_c, 2, 72, 0
1, 288355, Note_on_c, 5, 63, 0
1, 288360, Note_on_c, 2, 69, 0
1, 288360, Note_on_c, 5, 51, 0
1, 288368, Note_on_c, 1, 78, 0
1, 288480, Note_on_c, 2, 70, 79
1, 288480, Note_on_c, 5, 62, 79
1, 288480, Note_on_c, 5, 50, 79
1, 288520, Note_on_c, 2, 74, 78
1, 288560, Note_on_c, 1, 77, 78
1, 288835, Note_on_c, 1, 77, 0
1, 288835, Note_on_c, 5, 62, 0
1, 288840, Note_on_c, 2, 70, 0
1, 288840, Note_on_c, 2, 74, 0
1, 288840, Note_on_c, 5, 50, 0
1, 288960, Note_on_c, 2, 67, 76
1, 288960, Note_on_c, 5, 55, 76
1, 288960, Note_on_c, 5, 43, 76
1, 289000, Note_on_c, 2, 70, 76
1, 289040, Note_on_c, 1, 76, 76
1, 289315, Note_on_c, 5, 43, 0
1, 289320, Note_on_c, 1, 76, 0
1, 289320, Note_on_c, 2, 67, 0
1, 289320, Note_on_c, 2, 70, 0
1, 289320, Note_on_c, 5, 55, 0
1, 289440, Note_on_c, 2, 66, 73
1, 289440, Note_on_c, 5, 57, 73
1, 289440, Note_on_c, 5, 45, 73
1, 289480, Note_on_c, 2, 72, 73
1, 289520, Note_on_c, 1, 75, 73
1, 289800, Note_on_c, 1, 75, 0
1, 289800, Note_on_c, 2, 66, 0
1, 289800, Note_on_c, 2, 72, 0
1, 289800, Note_on_c, 5, 57, 0
1, 289800, Note_on_c, 5, 45, 0
1, 289920, Note_on_c, 2, 65, 71
1, 289920, Note_on_c, 5, 58, 71
1, 289920, Note_on_c, 5, 46, 71
1, 289960, Note_on_c, 2, 70, 71
1, 290000, Note_on_c, 1, 74, 70
1, 290160, Tempo, 480000
1, 290275, Note_on_c, 2, 65, 0
1, 290275, Note_on_c, 5, 46, 0
1, 290280, Note_on_c, 2, 70, 0
1, 290280, Note_on_c, 5, 58, 0
1, 290288, Note_on_c, 1, 74, 0
1, 290400, Tempo, 476190
1, 290400, Note_on_c, 5, 51, 64
1, 290880, Note_on_c, 1, 72, 62
1, 291360, Note_on_c, 1, 72, 0
1, 291360, Note_on_c, 1, 73, 61
1, 291360, Note_on_c, 5, 51, 0
1, 291360, Note_on_c, 5, 52, 61
1, 291780, Note_on_c, 1, 73, 0
1, 291780, Note_on_c, 5, 52, 0
1, 291840, Note_on_c, 1, 70, 59
1, 291840, Note_on_c, 5, 53, 59
1, 292080, Note_on_c, 1, 70, 0
1, 292080, Note_on_c, 1, 69, 58
1, 292280, Note_on_c, 1, 69, 0
1, 292320, Note_on_c, 1, 67, 57
1, 292320, Note_on_c, 5, 51, 57
1, 292325, Note_on_c, 5, 53, 0
1, 292513, Note_on_c, 1, 67, 0
1, 292560, Note_on_c, 1, 65, 56
1, 292753, Note_on_c, 1, 65, 0
1, 292800, Note_on_c, 1, 70, 55
1, 292800, Note_on_c, 5, 51, 0
1, 292800, Note_on_c, 5, 50, 55
1, 293040, Tempo, 480000
1, 293215, Note_on_c, 1, 70, 0
1, 293220, Note_on_c, 5, 50, 0
1, 293280, Tempo, 472440
1, 293280, Note_on_c, 1, 75, 69
1, 293280, Note_on_c, 2, 72, 69
1, 293280, Note_on_c, 5, 57, 69
1, 293760, Note_on_c, 1, 75, 0
1, 293760, Note_on_c, 1, 74, 67
1, 293760, Note_on_c, 2, 72, 0
1, 293760, Note_on_c, 2, 70, 67
1, 293760, Note_on_c, 5, 57, 0
1, 293760, Note_on_c, 5, 58, 67
1, 294115, Note_on_c, 5, 58, 0
1, 294120, Tempo, 476190
1, 294120, Note_on_c, 1, 74, 0
1, 294120, Note_on_c, 1, 72, 66
1, 294120, Note_on_c, 2, 70, 0
1, 294120, Note_on_c, 2, 69, 66
1, 294216, Note_on_c, 1, 72, 0
1, 294216, Note_on_c, 2, 69, 0
1, 294240, Note_on_c, 1, 74, 65
1, 294240, Note_on_c, 2, 70, 65
1, 294240, Note_on_c, 5, 52, 65
1, 294590, Note_on_c, 5, 52, 0
1, 294600, Note_on_c, 1, 74, 0
1, 294600, Note_on_c, 1, 75, 64
1, 294600, Note_on_c, 2, 70, 0
1, 294600, Note_on_c, 2, 72, 64
1, 294696, Note_on_c, 1, 75, 0
1, 294696, Note_on_c, 2, 72, 0
1, 294720, Tempo, 480000
1, 294720, Note_on_c, 1, 74, 64
1, 294720, Note_on_c, 2, 70, 64
1, 294720, Note_on_c, 5, 53, 64
1, 295200, Tempo, 500000
1, 295200, Note_on_c, 1, 74, 0
1, 295200, Note_on_c, 1, 72, 62
1, 295200, Note_on_c, 2, 70, 0
1, 295200, Note_on_c, 2, 69, 62
1, 295560, Note_on_c, 5, 53, 0
1, 295584, Note_on_c, 1, 72, 0
1, 295584, Note_on_c, 2, 69, 0
1, 295665, Tempo, 472440
1, 295680, Note_on_c, 5, 62, 51
1, 296040, Note_on_c, 5, 62, 0
1, 296040, Note_on_c, 5, 63, 53
1, 296136, Note_on_c, 5, 63, 0
1, 296160, Note_on_c, 5, 60, 54
1, 296400, Note_on_c, 5, 60, 0
1, 296400, Note_on_c, 5, 58, 52
1, 296520, Note_on_c, 5, 58, 0
1, 296640, Note_on_c, 2, 77, 51
1, 296640, Note_on_c, 3, 74, 51
1, 296640, Note_on_c, 5, 58, 51
1, 296796, Note_on_c, 2, 77, 0
1, 296796, Note_on_c, 3, 74, 0
1, 296796, Note_on_c, 5, 58, 0
1, 297120, Note_on_c, 2, 77, 47
1, 297120, Note_on_c, 3, 74, 47
1, 297120, Note_on_c, 5, 58, 47
1, 297276, Note_on_c, 2, 77, 0
1, 297276, Note_on_c, 3, 74, 0
1, 297276, Note_on_c, 5, 58, 0
1, 297480, Tempo, 480000
1, 297600, Note_on_c, 2, 77, 42
1, 297600, Note_on_c, 3, 75, 42
1, 297600, Note_on_c, 5, 57, 42
1, 297960, Note_on_c, 2, 77, 0
1, 297960, Note_on_c, 3, 75, 0
1, 297960, Note_on_c, 5, 57, 0
1, 298080, Tempo, 487804
1, 298560, Tempo, 472440
1, 298560, Note_on_c, 5, 63, 51
1, 298920, Note_on_c, 5, 63, 0
1, 298920, Note_on_c, 5, 65, 56
1, 299016, Note_on_c, 5, 65, 0
1, 299040, Note_on_c, 5, 62, 58
1, 299280, Note_on_c, 5, 62, 0
1, 299280, Note_on_c, 5, 60, 56
1, 299400, Note_on_c, 5, 60, 0
1, 299520, Note_on_c, 2, 87, 54
1, 299520, Note_on_c, 3, 81, 54
1, 299520, Note_on_c, 5, 60, 54
1, 299676, Note_on_c, 2, 87, 0
1, 299676, Note_on_c, 3, 81, 0
1, 299676, Note_on_c, 5, 60, 0
1, 300000, Note_on_c, 2, 87, 49
1, 300000, Note_on_c, 3, 81, 49
1, 300000, Note_on_c, 5, 60, 49
1, 300156, Note_on_c, 2, 87, 0
1, 300156, Note_on_c, 3, 81, 0
1, 300156, Note_on_c, 5, 60, 0
1, 300360, Tempo, 480000
1, 300480, Note_on_c, 2, 86, 45
1, 300480, Note_on_c, 3, 82, 45
1, 300480, Note_on_c, 5, 58, 45
1, 300840, Note_on_c, 2, 86, 0
1, 300840, Note_on_c, 3, 82, 0
1, 300840, Note_on_c, 5, 58, 0
1, 300960, Tempo, 487804
1, 301440, Tempo, 472440
1, 301440, Note_on_c, 1, 74, 69
1, 301440, Note_on_c, 5, 58, 69
1, 301800, Note_on_c, 1, 74, 0
1, 301800, Note_on_c, 1, 75, 73
1, 301800, Note_on_c, 5, 58, 0
1, 301800, Note_on_c, 5, 60, 73
1, 301900, Note_on_c, 1, 75, 0
1, 301900, Note_on_c, 5, 60, 0
1, 301920, Tempo, 472440
1, 301920, Note_on_c, 1, 77, 75
1, 301920, Note_on_c, 5, 53, 75
1, 301920, Note_on_c, 5, 62, 75
1, 302160, Note_on_c, 1, 77, 0
1, 302160, Note_on_c, 1, 79, 73
1, 302160, Note_on_c, 5, 62, 0
1, 302160, Note_on_c, 5, 63, 73
1, 302400, Note_on_c, 1, 79, 0
1, 302400, Note_on_c, 1, 75, 72
1, 302400, Note_on_c, 5, 63, 0
1, 302400, Note_on_c, 5, 60, 72
1, 302640, Note_on_c, 1, 75, 0
1, 302640, Note_on_c, 1, 72, 71
1, 302640, Note_on_c, 5, 60, 0
1, 302640, Note_on_c, 5, 57, 71
1, 302880, Note_on_c, 1, 72, 0
1, 302880, Note_on_c, 1, 74, 71
1, 302880, Note_on_c, 5, 57, 0
1, 302880, Note_on_c, 5, 58, 71
1, 303120, Note_on_c, 1, 74, 0
1, 303120, Note_on_c, 1, 75, 70
1, 303120, Note_on_c, 5, 58, 0
1, 303120, Note_on_c, 5, 60, 70
1, 303320, Note_on_c, 1, 75, 0
1, 303320, Note_on_c, 5, 60, 0
1, 303360, Note_on_c, 1, 77, 69
1, 303360, Note_on_c, 5, 62, 69
1, 303600, Note_on_c, 1, 77, 0
1, 303600, Note_on_c, 1, 79, 68
1, 303600, Note_on_c, 5, 62, 0
1, 303600, Note_on_c, 5, 63, 68
1, 303840, Note_on_c, 1, 79, 0
1, 303840, Note_on_c, 1, 75, 68
1, 303840, Note_on_c, 5, 63, 0
1, 303840, Note_on_c, 5, 60, 68
1, 304080, Note_on_c, 1, 75, 0
1, 304080, Note_on_c, 1, 72, 67
1, 304080, Note_on_c, 5, 60, 0
1, 304080, Note_on_c, 5, 57, 67
1, 304320, Note_on_c, 1, 72, 0
1, 304320, Note_on_c, 1, 74, 66
1, 304320, Note_on_c, 5, 53, 0
1, 304320, Note_on_c, 5, 57, 0
1, 304320, Note_on_c, 5, 58, 66
1, 304560, Note_on_c, 1, 74, 0
1, 304560, Note_on_c, 1, 75, 65
1, 304560, Note_on_c, 5, 58, 0
1, 304560, Note_on_c, 5, 60, 65
1, 304680, Tempo, 480000
1, 304800, Note_on_c, 1, 75, 0
1, 304800, Note_on_c, 1, 77, 64
1, 304800, Note_on_c, 5, 60, 0
1, 304800, Note_on_c, 5, 62, 64
1, 304860, Tempo, 472440
1, 305000, Note_on_c, 1, 77, 0
1, 305040, Note_on_c, 1, 87, 57
1, 305184, Note_on_c, 5, 62, 0
1, 305280, Note_on_c, 1, 87, 0
1, 305280, Note_on_c, 1, 86, 56
1, 305520, Note_on_c, 1, 86, 0
1, 305520, Note_on_c, 1, 84, 55
1, 305760, Note_on_c, 1, 84, 0
1, 305760, Note_on_c, 1, 82, 54
1, 306000, Note_on_c, 1, 82, 0
1, 306000, Note_on_c, 1, 81, 53
1, 306180, Tempo, 476190
1, 306240, Note_on_c, 1, 81, 0
1, 306240, Note_on_c, 1, 79, 52
1, 306480, Note_on_c, 1, 79, 0
1, 306480, Note_on_c, 1, 77, 52
1, 306720, Note_on_c, 1, 77, 0
1, 306720, Note_on_c, 1, 76, 51
1, 306960, Note_on_c, 1, 76, 0
1, 306960, Note_on_c, 1, 75, 50
1, 307200, Note_on_c, 1, 75, 0
1, 307200, Note_on_c, 1, 74, 49
1, 307440, Note_on_c, 1, 74, 0
1, 307440, Note_on_c, 1, 72, 48
1, 307560, Tempo, 480000
1, 307640, Note_on_c, 1, 72, 0
1, 307680, Tempo, 476190
1, 307680, Note_on_c, 1, 77, 67
1, 308040, Note_on_c, 1, 77, 0
1, 308040, Note_on_c, 1, 79, 65
1, 308136, Note_on_c, 1, 79, 0
1, 308160, Note_on_c, 1, 70, 64
1, 308160, Note_on_c, 4, 62, 64
1, 308160, Note_on_c, 4, 65, 64
1, 308160, Note_on_c, 5, 53, 64
1, 308316, Note_on_c, 1, 70, 0
1, 308316, Note_on_c, 4, 62, 0
1, 308316, Note_on_c, 4, 65, 0
1, 308316, Note_on_c, 5, 53, 0
1, 308640, Note_on_c, 1, 69, 61
1, 308640, Note_on_c, 4, 60, 61
1, 308640, Note_on_c, 4, 63, 61
1, 308640, Note_on_c, 5, 53, 61
1, 308796, Note_on_c, 1, 69, 0
1, 308796, Note_on_c, 4, 60, 0
1, 308796, Note_on_c, 4, 63, 0
1, 308796, Note_on_c, 5, 53, 0
1, 309000, Tempo, 480000
1, 309120, Note_on_c, 1, 70, 58
1, 309120, Note_on_c, 4, 62, 58
1, 309120, Note_on_c, 5, 58, 58
1, 309313, Note_on_c, 5, 58, 0
1, 309504, Note_on_c, 1, 70, 0
1, 309504, Note_on_c, 4, 62, 0
1, 309585, Tempo, 495867
1, 309600, Note_on_c, 5, 46, 52
1, 309793, Note_on_c, 5, 46, 0
1, 310080, Tempo, 476190
1, 310080, Note_on_c, 1, 79, 47
1, 310080, Note_on_c, 2, 75, 47
1, 310440, Note_on_c, 1, 79, 0
1, 310440, Note_on_c, 1, 77, 51
1, 310440, Note_on_c, 2, 75, 0
1, 310440, Note_on_c, 2, 74, 51
1, 310536, Note_on_c, 1, 77, 0
1, 310536, Note_on_c, 2, 74, 0
1, 310560, Note_on_c, 1, 77, 53
1, 310560, Note_on_c, 2, 74, 53
1, 310944, Note_on_c, 1, 77, 0
1, 310944, Note_on_c, 2, 74, 0
1, 311040, Note_on_c, 5, 70, 48
1, 311280, Tempo, 480000
1, 311424, Note_on_c, 5, 70, 0
1, 311520, Tempo, 476190
1, 311520, Note_on_c, 1, 81, 53
1, 311520, Note_on_c, 2, 75, 53
1, 311880, Note_on_c, 1, 82, 58
1, 311880, Note_on_c, 2, 75, 0
1, 311880, Note_on_c, 2, 74, 58
1, 311888, Note_on_c, 1, 81, 0
1, 311976, Note_on_c, 1, 82, 0
1, 311976, Note_on_c, 2, 74, 0
1, 312000, Note_on_c, 1, 82, 61
1, 312000, Note_on_c, 2, 74, 61
1, 312384, Note_on_c, 1, 82, 0
1, 312384, Note_on_c, 2, 74, 0
1, 312480, Note_on_c, 5, 58, 55
1, 312735, Tempo, 480000
1, 312864, Note_on_c, 5, 58, 0
1, 312960, Tempo, 472440
1, 312960, Note_on_c, 1, 74, 65
1, 312960, Note_on_c, 5, 55, 65
1, 313320, Note_on_c, 1, 74, 0
1, 313320, Note_on_c, 1, 70, 70
1, 313344, Note_on_c, 5, 55, 0
1, 313416, Note_on_c, 1, 70, 0
1, 313440, Note_on_c, 1, 75, 72
1, 313440, Note_on_c, 2, 67, 72
1, 313440, Note_on_c, 5, 51, 72
1, 313824, Note_on_c, 5, 51, 0
1, 313920, Note_on_c, 5, 48, 69
1, 314280, Tempo, 480000
1, 314304, Note_on_c, 5, 48, 0
1, 314400, Note_on_c, 1, 75, 0
1, 314400, Note_on_c, 1, 72, 67
1, 314400, Note_on_c, 2, 67, 0
1, 314400, Note_on_c, 2, 63, 67
1, 314400, Note_on_c, 5, 53, 67
1, 314713, Note_on_c, 5, 53, 0
1, 314760, Note_on_c, 1, 72, 0
1, 314760, Note_on_c, 1, 69, 65
1, 314784, Note_on_c, 2, 63, 0
1, 314820, Tempo, 487804
1, 314856, Note_on_c, 1, 69, 0
1, 314880, Tempo, 500000
1, 314880, Note_on_c, 1, 70, 64
1, 314880, Note_on_c, 2, 62, 64
1, 314880, Note_on_c, 5, 58, 64
1, 315073, Note_on_c, 5, 58, 0
1, 315264, Note_on_c, 1, 70, 0
1, 315264, Note_on_c, 2, 62, 0
1, 315360, Tempo, 550458
1, 315360, Note_on_c, 5, 46, 56
1, 315553, Note_on_c, 5, 46, 0
1, 316320, Tempo, 250000
1, 317280, Tempo, 454545
1, 318000, Note_on_c, 1, 70, 42
1, 318120, Note_on_c, 1, 70, 0
1, 318200, Tempo, 461538
1, 318240, Tempo, 454545
1, 318240, Note_on_c, 1, 70, 46
1, 318480, Note_on_c, 4, 67, 44
1, 318480, Note_on_c, 5, 63, 44
1, 318624, Note_on_c, 4, 67, 0
1, 318624, Note_on_c, 5, 63, 0
1, 318720, Note_on_c, 4, 67, 45
1, 318720, Note_on_c, 5, 63, 45
1, 318930, Note_on_c, 1, 70, 0
1, 318936, Note_on_c, 4, 67, 0
1, 318936, Note_on_c, 5, 63, 0
1, 318960, Note_on_c, 1, 82, 45
1, 319080, Note_on_c, 1, 82, 0
1, 319160, Tempo, 461538
1, 319200, Tempo, 454545
1, 319200, Note_on_c, 1, 82, 50
1, 319440, Note_on_c, 4, 65, 47
1, 319440, Note_on_c, 5, 62, 47
1, 319584, Note_on_c, 4, 65, 0
1, 319584, Note_on_c, 5, 62, 0
1, 319680, Note_on_c, 4, 65, 48
1, 319680, Note_on_c, 5, 62, 48
1, 319896, Note_on_c, 4, 65, 0
1, 319896, Note_on_c, 5, 62, 0
1, 319920, Note_on_c, 1, 82, 0
1, 319920, Note_on_c, 1, 80, 49
1, 320040, Note_on_c, 1, 80, 0
1, 320120, Tempo, 461538
1, 320160, Tempo, 454545
1, 320160, Note_on_c, 1, 80, 55
1, 320160, Note_on_c, 5, 63, 53
1, 320280, Note_on_c, 1, 80, 0
1, 320280, Note_on_c, 1, 79, 54
1, 320316, Note_on_c, 5, 63, 0
1, 320400, Note_on_c, 1, 79, 0
1, 320400, Note_on_c, 1, 77, 53
1, 320400, Note_on_c, 5, 55, 51
1, 320520, Note_on_c, 1, 77, 0
1, 320520, Note_on_c, 1, 75, 51
1, 320556, Note_on_c, 5, 55, 0
1, 320618, Note_on_c, 1, 75, 0
1, 320640, Note_on_c, 1, 72, 50
1, 320640, Note_on_c, 5, 56, 49
1, 320760, Note_on_c, 1, 72, 0
1, 320760, Note_on_c, 1, 75, 49
1, 320796, Note_on_c, 5, 56, 0
1, 320880, Note_on_c, 1, 75, 0
1, 320880, Note_on_c, 1, 74, 48
1, 320880, Note_on_c, 5, 58, 47
1, 321000, Note_on_c, 1, 74, 0
1, 321000, Note_on_c, 1, 77, 47
1, 321036, Note_on_c, 5, 58, 0
1, 321120, Note_on_c, 1, 77, 0
1, 321120, Note_on_c, 1, 75, 46
1, 321120, Note_on_c, 5, 60, 45
1, 321240, Note_on_c, 1, 75, 0
1, 321240, Note_on_c, 1, 79, 44
1, 321276, Note_on_c, 5, 60, 0
1, 321360, Note_on_c, 1, 79, 0
1, 321360, Note_on_c, 1, 77, 43
1, 321360, Note_on_c, 5, 62, 43
1, 321480, Note_on_c, 1, 77, 0
1, 321480, Note_on_c, 1, 80, 42
1, 321516, Note_on_c, 5, 62, 0
1, 321585, Note_on_c, 1, 80, 0
1, 321600, Note_on_c, 1, 79, 41
1, 321600, Note_on_c, 5, 63, 41
1, 321720, Tempo, 461538
1, 321720, Note_on_c, 1, 79, 0
1, 321756, Note_on_c, 5, 63, 0
1, 321840, Tempo, 454545
1, 321840, Note_on_c, 1, 70, 66
1, 321960, Note_on_c, 1, 70, 0
1, 322040, Tempo, 461538
1, 322080, Tempo, 454545
1, 322080, Note_on_c, 1, 70, 72
1, 322320, Note_on_c, 4, 67, 67
1, 322320, Note_on_c, 5, 63, 67
1, 322464, Note_on_c, 4, 67, 0
1, 322464, Note_on_c, 5, 63, 0
1, 322560, Note_on_c, 4, 67, 68
1, 322560, Note_on_c, 5, 63, 68
1, 322770, Note_on_c, 1, 70, 0
1, 322776, Note_on_c, 4, 67, 0
1, 322776, Note_on_c, 5, 63, 0
1, 322800, Note_on_c, 1, 82, 69
1, 322920, Note_on_c, 1, 82, 0
1, 323000, Tempo, 461538
1, 323040, Tempo, 454545
1, 323040, Note_on_c, 1, 82, 76
1, 323280, Note_on_c, 4, 65, 71
1, 323280, Note_on_c, 5, 62, 71
1, 323424, Note_on_c, 4, 65, 0
1, 323424, Note_on_c, 5, 62, 0
1, 323520, Note_on_c, 4, 65, 71
1, 323520, Note_on_c, 5, 62, 71
1, 323736, Note_on_c, 4, 65, 0
1, 323736, Note_on_c, 5, 62, 0
1, 323760, Note_on_c, 1, 82, 0
1, 323760, Note_on_c, 1, 80, 72
1, 323880, Note_on_c, 1, 80, 0
1, 323960, Tempo, 461538
1, 324000, Tempo, 454545
1, 324000, Note_on_c, 1, 80, 76
1, 324000, Note_on_c, 5, 63, 75
1, 324120, Note_on_c, 1, 80, 0
1, 324120, Note_on_c, 1, 79, 75
1, 324156, Note_on_c, 5, 63, 0
1, 324240, Note_on_c, 1, 79, 0
1, 324240, Note_on_c, 1, 77, 73
1, 324240, Note_on_c, 4, 70, 72
1, 324240, Note_on_c, 5, 67, 72
1, 324360, Note_on_c, 1, 77, 0
1, 324360, Note_on_c, 1, 75, 71
1, 324396, Note_on_c, 4, 70, 0
1, 324396, Note_on_c, 5, 67, 0
1, 324450, Tempo, 461538
1, 324458, Note_on_c, 1, 75, 0
1, 324480, Note_on_c, 1, 80, 69
1, 324480, Note_on_c, 2, 74, 69
1, 324480, Note_on_c, 4, 70, 70
1, 324480, Note_on_c, 5, 65, 70
1, 324600, Note_on_c, 1, 80, 0
1, 324600, Note_on_c, 2, 74, 0
1, 324636, Note_on_c, 4, 70, 0
1, 324636, Note_on_c, 5, 65, 0
1, 324720, Note_on_c, 1, 79, 68
1, 324720, Note_on_c, 2, 75, 68
1, 324720, Note_on_c, 4, 70, 68
1, 324720, Note_on_c, 5, 63, 68
1, 324840, Note_on_c, 1, 79, 0
1, 324840, Note_on_c, 2, 75, 0
1, 324848, Tempo, 465116
1, 324876, Note_on_c, 4, 70, 0
1, 324876, Note_on_c, 5, 63, 0
1, 324960, Tempo, 472440
1, 324960, Note_on_c, 1, 79, 65
1, 324960, Note_on_c, 2, 75, 65
1, 324960, Note_on_c, 5, 58, 65
1, 325116, Note_on_c, 5, 58, 0
1, 325200, Note_on_c, 1, 79, 0
1, 325200, Note_on_c, 1, 77, 60
1, 325200, Note_on_c, 2, 75, 0
1, 325200, Note_on_c, 2, 74, 60
1, 325200, Note_on_c, 4, 70, 60
1, 325320, Tempo, 480000
1, 325320, Note_on_c, 1, 77, 0
1, 325320, Note_on_c, 2, 74, 0
1, 325354, Note_on_c, 4, 70, 0
1, 325440, Tempo, 508474
1, 325440, Note_on_c, 5, 58, 57
1, 325596, Note_on_c, 5, 58, 0
1, 325680, Tempo, 461538
1, 325680, Note_on_c, 1, 77, 53
1, 325873, Note_on_c, 1, 77, 0
1, 325880, Tempo, 465116
1, 325920, Note_on_c, 1, 76, 55
1, 325920, Note_on_c, 4, 58, 55
1, 325925, Tempo, 461538
1, 326040, Note_on_c, 1, 77, 56
1, 326040, Note_on_c, 3, 65, 56
1, 326048, Note_on_c, 1, 76, 0
1, 326160, Note_on_c, 3, 65, 0
1, 326160, Note_on_c, 3, 62, 58
1, 326280, Note_on_c, 3, 62, 0
1, 326280, Note_on_c, 3, 65, 60
1, 326280, Note_on_c, 4, 58, 0
1, 326400, Note_on_c, 1, 77, 0
1, 326400, Note_on_c, 3, 65, 0
1, 326400, Note_on_c, 4, 58, 62
1, 326520, Note_on_c, 3, 65, 64
1, 326640, Note_on_c, 1, 77, 66
1, 326640, Note_on_c, 3, 65, 0
1, 326640, Note_on_c, 3, 62, 66
1, 326680, Note_on_c, 1, 77, 0
1, 326680, Note_on_c, 1, 79, 68
1, 326720, Note_on_c, 1, 79, 0
1, 326720, Note_on_c, 1, 77, 69
1, 326760, Note_on_c, 1, 77, 0
1, 326760, Note_on_c, 1, 76, 71
1, 326760, Note_on_c, 3, 62, 0
1, 326760, Note_on_c, 3, 65, 71
1, 326760, Note_on_c, 4, 58, 0
1, 326820, Note_on_c, 1, 76, 0
1, 326820, Note_on_c, 1, 77, 73
1, 326835, Tempo, 465116
1, 326880, Tempo, 461538
1, 326880, Note_on_c, 1, 77, 0
1, 326880, Note_on_c, 1, 87, 77
1, 326880, Note_on_c, 3, 65, 0
1, 326880, Note_on_c, 4, 57, 77
1, 327000, Note_on_c, 3, 65, 74
1, 327120, Note_on_c, 3, 65, 0
1, 327120, Note_on_c, 3, 60, 71
1, 327240, Note_on_c, 1, 87, 0
1, 327240, Note_on_c, 1, 84, 68
1, 327240, Note_on_c, 3, 60, 0
1, 327240, Note_on_c, 3, 65, 68
1, 327240, Note_on_c, 4, 57, 0
1, 327360, Note_on_c, 1, 84, 0
1, 327360, Note_on_c, 1, 81, 65
1, 327360, Note_on_c, 3, 65, 0
1, 327360, Note_on_c, 4, 57, 65
1, 327480, Note_on_c, 1, 81, 0
1, 327480, Note_on_c, 3, 65, 62
1, 327600, Note_on_c, 1, 75, 59
1, 327600, Note_on_c, 3, 65, 0
1, 327600, Note_on_c, 3, 60, 59
1, 327720, Note_on_c, 1, 75, 0
1, 327720, Note_on_c, 3, 60, 0
1, 327720, Note_on_c, 3, 65, 56
1, 327720, Note_on_c, 4, 57, 0
1, 327800, Tempo, 465116
1, 327840, Note_on_c, 1, 74, 52
1, 327840, Note_on_c, 3, 65, 0
1, 327840, Note_on_c, 4, 58, 52
1, 327845, Tempo, 461538
1, 327960, Note_on_c, 1, 77, 53
1, 327960, Note_on_c, 3, 65, 53
1, 327971, Note_on_c, 1, 74, 0
1, 328080, Note_on_c, 3, 65, 0
1, 328080, Note_on_c, 3, 62, 55
1, 328200, Note_on_c, 3, 62, 0
1, 328200, Note_on_c, 3, 65, 56
1, 328200, Note_on_c, 4, 58, 0
1, 328320, Note_on_c, 1, 77, 0
1, 328320, Note_on_c, 3, 65, 0
1, 328320, Note_on_c, 4, 58, 58
1, 328440, Note_on_c, 3, 65, 59
1, 328560, Note_on_c, 1, 77, 60
1, 328560, Note_on_c, 3, 65, 0
1, 328560, Note_on_c, 3, 62, 60
1, 328600, Note_on_c, 1, 77, 0
1, 328600, Note_on_c, 1, 79, 62
1, 328640, Note_on_c, 1, 79, 0
1, 328640, Note_on_c, 1, 77, 63
1, 328680, Note_on_c, 1, 77, 0
1, 328680, Note_on_c, 1, 76, 65
1, 328680, Note_on_c, 3, 62, 0
1, 328680, Note_on_c, 3, 65, 65
1, 328680, Note_on_c, 4, 58, 0
1, 328740, Note_on_c, 1, 76, 0
1, 328740, Note_on_c, 1, 77, 68
1, 328755, Tempo, 461538
1, 328800, Tempo, 454545
1, 328800, Note_on_c, 1, 77, 0
1, 328800, Note_on_c, 1, 87, 73
1, 328800, Note_on_c, 3, 65, 0
1, 328800, Note_on_c, 4, 57, 73
1, 328920, Note_on_c, 3, 65, 71
1, 329040, Note_on_c, 3, 65, 0
1, 329040, Note_on_c, 3, 60, 69
1, 329160, Note_on_c, 1, 87, 0
1, 329160, Note_on_c, 1, 84, 67
1, 329160, Note_on_c, 3, 60, 0
1, 329160, Note_on_c, 3, 65, 67
1, 329160, Note_on_c, 4, 57, 0
1, 329280, Note_on_c, 1, 84, 0
1, 329280, Note_on_c, 1, 81, 65
1, 329280, Note_on_c, 3, 65, 0
1, 329280, Note_on_c, 4, 57, 65
1, 329400, Note_on_c, 1, 81, 0
1, 329400, Note_on_c, 3, 65, 63
1, 329520, Note_on_c, 1, 75, 61
1, 329520, Note_on_c, 3, 65, 0
1, 329520, Note_on_c, 3, 60, 61
1, 329640, Note_on_c, 1, 75, 0
1, 329640, Note_on_c, 3, 60, 0
1, 329640, Note_on_c, 3, 65, 59
1, 329640, Note_on_c, 4, 57, 0
1, 329720, Tempo, 472440
1, 329760, Note_on_c, 1, 74, 57
1, 329760, Note_on_c, 3, 65, 0
1, 329760, Note_on_c, 5, 58, 56
1, 329765, Tempo, 461538
1, 329880, Note_on_c, 1, 74, 0
1, 329880, Note_on_c, 1, 75, 58
1, 330000, Note_on_c, 1, 75, 0
1, 330000, Note_on_c, 1, 77, 60
1, 330120, Note_on_c, 1, 77, 0
1, 330120, Note_on_c, 1, 79, 62
1, 330221, Note_on_c, 1, 79, 0
1, 330240, Note_on_c, 1, 77, 63
1, 330240, Note_on_c, 5, 58, 0
1, 330240, Note_on_c, 5, 62, 62
1, 330360, Note_on_c, 1, 77, 0
1, 330360, Note_on_c, 1, 79, 65
1, 330480, Note_on_c, 1, 79, 0
1, 330480, Note_on_c, 1, 81, 67
1, 330600, Note_on_c, 1, 81, 0
1, 330600, Note_on_c, 1, 82, 68
1, 330680, Tempo, 465116
1, 330701, Note_on_c, 1, 82, 0
1, 330720, Note_on_c, 1, 78, 70
1, 330720, Note_on_c, 5, 62, 0
1, 330720, Note_on_c, 5, 63, 70
1, 330840, Note_on_c, 1, 78, 0
1, 330840, Note_on_c, 1, 79, 69
1, 330938, Note_on_c, 1, 79, 0
1, 330960, Note_on_c, 1, 74, 67
1, 331080, Note_on_c, 1, 74, 0
1, 331080, Note_on_c, 1, 75, 66
1, 331181, Note_on_c, 1, 75, 0
1, 331200, Note_on_c, 1, 71, 65
1, 331200, Note_on_c, 5, 63, 0
1, 331320, Note_on_c, 1, 71, 0
1, 331320, Note_on_c, 1, 72, 64
1, 331425, Note_on_c, 1, 72, 0
1, 331440, Note_on_c, 1, 67, 63
1, 331440, Note_on_c, 4, 63, 63
1, 331440, Note_on_c, 5, 51, 63
1, 331560, Note_on_c, 1, 67, 0
1, 331560, Note_on_c, 1, 72, 61
1, 331596, Note_on_c, 4, 63, 0
1, 331596, Note_on_c, 5, 51, 0
1, 331640, Tempo, 487804
1, 331661, Note_on_c, 1, 72, 0
1, 331680, Tempo, 472440
1, 331680, Note_on_c, 1, 70, 60
1, 331680, Note_on_c, 4, 62, 60
1, 331680, Note_on_c, 5, 53, 60
1, 331880, Tempo, 480000
1, 331920, Note_on_c, 1, 70, 0
1, 331920, Note_on_c, 1, 69, 53
1, 331920, Note_on_c, 4, 62, 0
1, 331920, Note_on_c, 4, 60, 53
1, 332040, Note_on_c, 1, 69, 0
1, 332044, Note_on_c, 4, 60, 0
1, 332044, Note_on_c, 5, 53, 0
1, 332160, Tempo, 472440
1, 332160, Note_on_c, 5, 53, 50
1, 332280, Note_on_c, 5, 53, 0
1, 332280, Note_on_c, 5, 55, 49
1, 332400, Note_on_c, 5, 55, 0
1, 332400, Note_on_c, 5, 51, 47
1, 332520, Note_on_c, 5, 51, 0
1, 332520, Note_on_c, 5, 53, 46
1, 332600, Tempo, 472440
1, 332621, Note_on_c, 5, 53, 0
1, 332640, Tempo, 461538
1, 332640, Note_on_c, 5, 50, 44
1, 332880, Note_on_c, 1, 77, 45
1, 333120, Note_on_c, 1, 77, 0
1, 333120, Note_on_c, 1, 75, 47
1, 333120, Note_on_c, 5, 50, 0
1, 333360, Note_on_c, 1, 75, 0
1, 333360, Note_on_c, 1, 74, 49
1, 333360, Note_on_c, 4, 65, 49
1, 333360, Note_on_c, 5, 62, 49
1, 333501, Note_on_c, 4, 65, 0
1, 333501, Note_on_c, 5, 62, 0
1, 333559, Note_on_c, 1, 74, 0
1, 333560, Tempo, 465116
1, 333600, Tempo, 461538
1, 333600, Note_on_c, 4, 67, 53
1, 333600, Note_on_c, 5, 63, 53
1, 333813, Note_on_c, 4, 67, 0
1, 333813, Note_on_c, 5, 63, 0
1, 333840, Note_on_c, 1, 71, 54
1, 333960, Note_on_c, 1, 71, 0
1, 334080, Note_on_c, 1, 71, 56
1, 334320, Note_on_c, 1, 71, 0
1, 334320, Note_on_c, 1, 72, 58
1, 334320, Note_on_c, 4, 67, 58
1, 334320, Note_on_c, 5, 63, 58
1, 334461, Note_on_c, 4, 67, 0
1, 334461, Note_on_c, 5, 63, 0
1, 334519, Note_on_c, 1, 72, 0
1, 334520, Tempo, 480000
1, 334560, Tempo, 461538
1, 334560, Note_on_c, 4, 69, 63
1, 334560, Note_on_c, 5, 65, 63
1, 334773, Note_on_c, 4, 69, 0
1, 334773, Note_on_c, 5, 65, 0
1, 334800, Note_on_c, 1, 79, 62
1, 335040, Note_on_c, 1, 79, 0
1, 335040, Note_on_c, 1, 77, 64
1, 335280, Note_on_c, 1, 77, 0
1, 335280, Note_on_c, 1, 75, 66
1, 335280, Note_on_c, 4, 69, 66
1, 335280, Note_on_c, 5, 65, 66
1, 335421, Note_on_c, 4, 69, 0
1, 335421, Note_on_c, 5, 65, 0
1, 335480, Tempo, 465116
1, 335483, Note_on_c, 1, 75, 0
1, 335520, Tempo, 461538
1, 335520, Note_on_c, 4, 70, 72
1, 335520, Note_on_c, 5, 67, 72
1, 335733, Note_on_c, 4, 70, 0
1, 335733, Note_on_c, 5, 67, 0
1, 335760, Note_on_c, 1, 73, 70
1, 335880, Note_on_c, 1, 73, 0
1, 336000, Note_on_c, 1, 73, 72
1, 336240, Note_on_c, 1, 73, 0
1, 336240, Note_on_c, 1, 74, 74
1, 336240, Note_on_c, 4, 70, 74
1, 336240, Note_on_c, 5, 67, 74
1, 336381, Note_on_c, 4, 70, 0
1, 336381, Note_on_c, 5, 67, 0
1, 336431, Note_on_c, 1, 74, 0
1, 336440, Tempo, 487804
1, 336480, Tempo, 454545
1, 336480, Note_on_c, 2, 70, 81
1, 336480, Note_on_c, 4, 50, 81
1, 336520, Note_on_c, 2, 74, 81
1, 336560, Note_on_c, 2, 77, 81
1, 336600, Note_on_c, 1, 82, 81
1, 336600, Note_on_c, 3, 58, 81
1, 336720, Note_on_c, 3, 58, 0
1, 336720, Note_on_c, 3, 53, 81
1, 336840, Note_on_c, 3, 53, 0
1, 336840, Note_on_c, 3, 58, 80
1, 336840, Note_on_c, 4, 50, 0
1, 336960, Note_on_c, 3, 58, 0
1, 336960, Note_on_c, 4, 50, 80
1, 337080, Note_on_c, 3, 58, 80
1, 337200, Note_on_c, 3, 58, 0
1, 337200, Note_on_c, 3, 53, 79
1, 337320, Note_on_c, 3, 53, 0
1, 337320, Note_on_c, 3, 58, 79
1, 337320, Note_on_c, 4, 50, 0
1, 337399, Note_on_c, 1, 82, 0
1, 337399, Note_on_c, 2, 70, 0
1, 337399, Note_on_c, 2, 74, 0
1, 337399, Note_on_c, 2, 77, 0
1, 337440, Note_on_c, 2, 67, 79
1, 337440, Note_on_c, 3, 58, 0
1, 337440, Note_on_c, 4, 51, 79
1, 337480, Note_on_c, 2, 72, 79
1, 337520, Note_on_c, 2, 75, 79
1, 337560, Note_on_c, 1, 79, 78
1, 337560, Note_on_c, 3, 60, 78
1, 337680, Note_on_c, 3, 60, 0
1, 337680, Note_on_c, 3, 55, 78
1, 337800, Note_on_c, 3, 55, 0
1, 337800, Note_on_c, 3, 60, 78
1, 337800, Note_on_c, 4, 51, 0
1, 337920, Note_on_c, 3, 60, 0
1, 337920, Note_on_c, 4, 51, 78
1, 338040, Note_on_c, 3, 60, 77
1, 338160, Note_on_c, 3, 60, 0
1, 338160, Note_on_c, 3, 55, 77
1, 338280, Note_on_c, 3, 55, 0
1, 338280, Note_on_c, 3, 60, 77
1, 338280, Note_on_c, 4, 51, 0
1, 338355, Note_on_c, 2, 72, 0
1, 338355, Note_on_c, 2, 75, 0
1, 338359, Note_on_c, 1, 79, 0
1, 338359, Note_on_c, 2, 67, 0
1, 338400, Note_on_c, 1, 79, 81
1, 338400, Note_on_c, 3, 60, 0
1, 338400, Note_on_c, 4, 53, 76
1, 338520, Note_on_c, 1, 79, 0
1, 338520, Note_on_c, 1, 77, 80
1, 338520, Note_on_c, 3, 62, 76
1, 338640, Note_on_c, 1, 77, 0
1, 338640, Note_on_c, 1, 75, 79
1, 338640, Note_on_c, 3, 62, 0
1, 338640, Note_on_c, 3, 58, 76
1, 338760, Note_on_c, 1, 75, 0
1, 338760, Note_on_c, 1, 74, 78
1, 338760, Note_on_c, 3, 58, 0
1, 338760, Note_on_c, 3, 62, 75
1, 338760, Note_on_c, 4, 53, 0
1, 338865, Note_on_c, 1, 74, 0
1, 338880, Note_on_c, 1, 74, 77
1, 338880, Note_on_c, 3, 62, 0
1, 338880, Note_on_c, 4, 53, 75
1, 339000, Note_on_c, 1, 74, 0
1, 339000, Note_on_c, 1, 72, 76
1, 339000, Note_on_c, 3, 63, 75
1, 339120, Note_on_c, 1, 72, 0
1, 339120, Note_on_c, 1, 70, 76
1, 339120, Note_on_c, 3, 63, 0
1, 339120, Note_on_c, 3, 60, 74
1, 339240, Note_on_c, 1, 70, 0
1, 339240, Note_on_c, 1, 69, 75
1, 339240, Note_on_c, 3, 60, 0
1, 339240, Note_on_c, 3, 63, 74
1, 339240, Note_on_c, 4, 53, 0
1, 339338, Note_on_c, 1, 69, 0
1, 339360, Note_on_c, 1, 72, 74
1, 339360, Note_on_c, 3, 63, 0
1, 339360, Note_on_c, 4, 58, 74
1, 339360, Note_on_c, 4, 62, 74
1, 339480, Note_on_c, 1, 72, 0
1, 339480, Note_on_c, 1, 70, 70
1, 339581, Note_on_c, 1, 70, 0
1, 339600, Note_on_c, 1, 74, 65
1, 339720, Note_on_c, 1, 74, 0
1, 339720, Note_on_c, 1, 72, 61
1, 339821, Note_on_c, 1, 72, 0
1, 339840, Note_on_c, 1, 75, 57
1, 339840, Note_on_c, 4, 58, 0
1, 339840, Note_on_c, 4, 62, 0
1, 339960, Note_on_c, 1, 75, 0
1, 339960, Note_on_c, 1, 74, 52
1, 340058, Note_on_c, 1, 74, 0
1, 340080, Note_on_c, 1, 77, 48
1, 340200, Note_on_c, 1, 77, 0
1, 340200, Note_on_c, 1, 75, 44
1, 340280, Tempo, 472440
1, 340298, Note_on_c, 1, 75, 0
1, 340320, Tempo, 465116
1, 340320, Note_on_c, 1, 79, 42
1, 340560, Note_on_c, 1, 79, 0
1, 340560, Note_on_c, 1, 77, 45
1, 340800, Note_on_c, 4, 65, 47
1, 340800, Note_on_c, 5, 62, 47
1, 341040, Note_on_c, 1, 77, 0
1, 341040, Note_on_c, 1, 74, 49
1, 341184, Note_on_c, 4, 65, 0
1, 341184, Note_on_c, 5, 62, 0
1, 341235, Note_on_c, 1, 74, 0
1, 341240, Tempo, 472440
1, 341280, Tempo, 465116
1, 341280, Note_on_c, 1, 71, 51
1, 341520, Note_on_c, 1, 71, 0
1, 341520, Note_on_c, 1, 74, 54
1, 341760, Note_on_c, 4, 67, 56
1, 341760, Note_on_c, 5, 63, 56
1, 342000, Note_on_c, 1, 74, 0
1, 342000, Note_on_c, 1, 72, 58
1, 342144, Note_on_c, 4, 67, 0
1, 342144, Note_on_c, 5, 63, 0
1, 342195, Note_on_c, 1, 72, 0
1, 342200, Tempo, 472440
1, 342240, Tempo, 465116
1, 342240, Note_on_c, 1, 78, 60
1, 342480, Note_on_c, 1, 78, 0
1, 342480, Note_on_c, 1, 79, 63
1, 342720, Note_on_c, 4, 69, 65
1, 342720, Note_on_c, 5, 65, 65
1, 342960, Note_on_c, 1, 79, 0
1, 342960, Note_on_c, 1, 75, 67
1, 343104, Note_on_c, 4, 69, 0
1, 343104, Note_on_c, 5, 65, 0
1, 343160, Tempo, 472440
1, 343163, Note_on_c, 1, 75, 0
1, 343200, Tempo, 465116
1, 343200, Note_on_c, 1, 73, 70
1, 343440, Note_on_c, 1, 73, 0
1, 343440, Note_on_c, 1, 75, 72
1, 343680, Note_on_c, 4, 70, 74
1, 343680, Note_on_c, 5, 67, 74
1, 343920, Note_on_c, 1, 75, 0
1, 343920, Note_on_c, 1, 74, 76
1, 344064, Note_on_c, 4, 70, 0
1, 344064, Note_on_c, 5, 67, 0
1, 344120, Tempo, 487804
1, 344123, Note_on_c, 1, 74, 0
1, 344160, Tempo, 454545
1, 344160, Note_on_c, 2, 70, 85
1, 344160, Note_on_c, 4, 50, 85
1, 344200, Note_on_c, 2, 74, 85
1, 344240, Note_on_c, 2, 77, 85
1, 344280, Note_on_c, 1, 82, 85
1, 344280, Note_on_c, 3, 58, 85
1, 344400, Note_on_c, 3, 58, 0
1, 344400, Note_on_c, 3, 53, 84
1, 344520, Note_on_c, 3, 53, 0
1, 344520, Note_on_c, 3, 58, 84
1, 344520, Note_on_c, 4, 50, 0
1, 344640, Note_on_c, 3, 58, 0
1, 344640, Note_on_c, 4, 50, 83
1, 344760, Note_on_c, 3, 58, 83
1, 344880, Note_on_c, 3, 58, 0
1, 344880, Note_on_c, 3, 53, 82
1, 345000, Note_on_c, 3, 53, 0
1, 345000, Note_on_c, 3, 58, 82
1, 345000, Note_on_c, 4, 50, 0
1, 345075, Note_on_c, 2, 70, 0
1, 345079, Note_on_c, 1, 82, 0
1, 345079, Note_on_c, 2, 74, 0
1, 345079, Note_on_c, 2, 77, 0
1, 345120, Note_on_c, 2, 67, 81
1, 345120, Note_on_c, 3, 58, 0
1, 345120, Note_on_c, 4, 51, 81
1, 345160, Note_on_c, 2, 72, 81
1, 345200, Note_on_c, 2, 75, 81
1, 345240, Note_on_c, 1, 79, 81
1, 345240, Note_on_c, 3, 60, 81
1, 345360, Note_on_c, 3, 60, 0
1, 345360, Note_on_c, 3, 55, 80
1, 345480, Note_on_c, 3, 55, 0
1, 345480, Note_on_c, 3, 60, 80
1, 345480, Note_on_c, 4, 51, 0
1, 345600, Note_on_c, 3, 60, 0
1, 345600, Note_on_c, 4, 51, 79
1, 345720, Note_on_c, 3, 60, 79
1, 345840, Note_on_c, 3, 60, 0
1, 345840, Note_on_c, 3, 55, 78
1, 345960, Note_on_c, 3, 55, 0
1, 345960, Note_on_c, 3, 60, 78
1, 345960, Note_on_c, 4, 51, 0
1, 346035, Note_on_c, 1, 79, 0
1, 346039, Note_on_c, 2, 67, 0
1, 346039, Note_on_c, 2, 72, 0
1, 346039, Note_on_c, 2, 75, 0
1, 346080, Note_on_c, 1, 79, 81
1, 346080, Note_on_c, 3, 60, 0
1, 346080, Note_on_c, 4, 53, 77
1, 346200, Note_on_c, 1, 79, 0
1, 346200, Note_on_c, 1, 77, 80
1, 346200, Note_on_c, 3, 62, 77
1, 346320, Note_on_c, 1, 77, 0
1, 346320, Note_on_c, 1, 75, 79
1, 346320, Note_on_c, 3, 62, 0
1, 346320, Note_on_c, 3, 58, 77
1, 346440, Note_on_c, 1, 75, 0
1, 346440, Note_on_c, 1, 74, 79
1, 346440, Note_on_c, 3, 58, 0
1, 346440, Note_on_c, 3, 62, 76
1, 346440, Note_on_c, 4, 53, 0
1, 346541, Note_on_c, 1, 74, 0
1, 346560, Note_on_c, 1, 74, 78
1, 346560, Note_on_c, 3, 62, 0
1, 346560, Note_on_c, 4, 53, 76
1, 346680, Note_on_c, 1, 74, 0
1, 346680, Note_on_c, 1, 72, 77
1, 346680, Note_on_c, 3, 63, 75
1, 346800, Note_on_c, 1, 72, 0
1, 346800, Note_on_c, 1, 70, 76
1, 346800, Note_on_c, 3, 63, 0
1, 346800, Note_on_c, 3, 60, 75
1, 346920, Note_on_c, 1, 70, 0
1, 346920, Note_on_c, 1, 69, 76
1, 346920, Note_on_c, 3, 60, 0
1, 346920, Note_on_c, 3, 63, 74
1, 346920, Note_on_c, 4, 53, 0
1, 347021, Note_on_c, 1, 69, 0
1, 347040, Note_on_c, 1, 69, 74
1, 347040, Note_on_c, 3, 63, 0
1, 347040, Note_on_c, 4, 58, 74
1, 347040, Note_on_c, 4, 62, 74
1, 347160, Note_on_c, 1, 69, 0
1, 347160, Note_on_c, 1, 70, 76
1, 347235, Note_on_c, 1, 70, 0
1, 347280, Note_on_c, 1, 72, 78
1, 347358, Note_on_c, 1, 72, 0
1, 347400, Note_on_c, 1, 74, 79
1, 347478, Note_on_c, 1, 74, 0
1, 347520, Note_on_c, 1, 75, 81
1, 347520, Note_on_c, 4, 58, 0
1, 347520, Note_on_c, 4, 62, 0
1, 347598, Note_on_c, 1, 75, 0
1, 347640, Note_on_c, 1, 77, 83
1, 347718, Note_on_c, 1, 77, 0
1, 347760, Note_on_c, 1, 79, 85
1, 347838, Note_on_c, 1, 79, 0
1, 347880, Note_on_c, 1, 81, 87
1, 347958, Note_on_c, 1, 81, 0
1, 347960, Tempo, 461538
1, 348000, Tempo, 454545
1, 348000, Note_on_c, 1, 82, 89
1, 348000, Note_on_c, 4, 50, 89
1, 348120, Note_on_c, 1, 82, 0
1, 348120, Note_on_c, 1, 84, 88
1, 348120, Note_on_c, 3, 58, 88
1, 348240, Note_on_c, 1, 84, 0
1, 348240, Note_on_c, 1, 86, 87
1, 348240, Note_on_c, 3, 58, 0
1, 348240, Note_on_c, 3, 53, 87
1, 348360, Note_on_c, 1, 86, 0
1, 348360, Note_on_c, 1, 81, 87
1, 348360, Note_on_c, 3, 53, 0
1, 348360, Note_on_c, 3, 58, 87
1, 348360, Note_on_c, 4, 50, 0
1, 348458, Note_on_c, 1, 81, 0
1, 348480, Note_on_c, 1, 82, 86
1, 348480, Note_on_c, 3, 58, 0
1, 348480, Note_on_c, 4, 50, 86
1, 348600, Note_on_c, 3, 58, 85
1, 348720, Note_on_c, 3, 58, 0
1, 348720, Note_on_c, 3, 53, 85
1, 348840, Note_on_c, 1, 82, 0
1, 348840, Note_on_c, 3, 53, 0
1, 348840, Note_on_c, 3, 58, 84
1, 348840, Note_on_c, 4, 50, 0
1, 348960, Note_on_c, 1, 79, 83
1, 348960, Note_on_c, 3, 58, 0
1, 348960, Note_on_c, 4, 51, 83
1, 349080, Note_on_c, 1, 79, 0
1, 349080, Note_on_c, 1, 81, 83
1, 349080, Note_on_c, 3, 58, 83
1, 349200, Note_on_c, 1, 81, 0
1, 349200, Note_on_c, 1, 82, 82
1, 349200, Note_on_c, 3, 58, 0
1, 349200, Note_on_c, 3, 55, 82
1, 349320, Note_on_c, 1, 82, 0
1, 349320, Note_on_c, 1, 78, 81
1, 349320, Note_on_c, 3, 55, 0
1, 349320, Note_on_c, 3, 58, 81
1, 349320, Note_on_c, 4, 51, 0
1, 349418, Note_on_c, 1, 78, 0
1, 349440, Note_on_c, 1, 79, 80
1, 349440, Note_on_c, 3, 58, 0
1, 349440, Note_on_c, 4, 51, 80
1, 349560, Note_on_c, 3, 58, 80
1, 349680, Note_on_c, 3, 58, 0
1, 349680, Note_on_c, 3, 55, 79
1, 349800, Note_on_c, 1, 79, 0
1, 349800, Note_on_c, 3, 55, 0
1, 349800, Note_on_c, 3, 58, 78
1, 349800, Note_on_c, 4, 51, 0
1, 349880, Tempo, 461538
1, 349920, Tempo, 454545
1, 349920, Note_on_c, 1, 79, 78
1, 349920, Note_on_c, 3, 58, 0
1, 349920, Note_on_c, 4, 53, 78
1, 350040, Note_on_c, 1, 79, 0
1, 350040, Note_on_c, 1, 77, 77
1, 350040, Note_on_c, 3, 62, 77
1, 350160, Note_on_c, 1, 77, 0
1, 350160, Note_on_c, 1, 75, 76
1, 350160, Note_on_c, 3, 62, 0
1, 350160, Note_on_c, 3, 58, 76
1, 350280, Note_on_c, 1, 75, 0
1, 350280, Note_on_c, 1, 74, 75
1, 350280, Note_on_c, 3, 58, 0
1, 350280, Note_on_c, 3, 62, 75
1, 350280, Note_on_c, 4, 53, 0
1, 350378, Note_on_c, 1, 74, 0
1, 350400, Note_on_c, 1, 74, 75
1, 350400, Note_on_c, 3, 62, 0
1, 350400, Note_on_c, 4, 53, 75
1, 350520, Note_on_c, 1, 74, 0
1, 350520, Note_on_c, 1, 72, 74
1, 350520, Note_on_c, 3, 63, 74
1, 350640, Note_on_c, 1, 72, 0
1, 350640, Note_on_c, 1, 70, 73
1, 350640, Note_on_c, 3, 63, 0
1, 350640, Note_on_c, 3, 60, 73
1, 350760, Note_on_c, 1, 70, 0
1, 350760, Note_on_c, 1, 69, 73
1, 350760, Note_on_c, 3, 60, 0
1, 350760, Note_on_c, 3, 63, 73
1, 350760, Note_on_c, 4, 53, 0
1, 350861, Note_on_c, 1, 69, 0
1, 350880, Note_on_c, 1, 70, 73
1, 350880, Note_on_c, 3, 63, 0
1, 350880, Note_on_c, 4, 58, 73
1, 350880, Note_on_c, 4, 62, 73
1, 351000, Note_on_c, 1, 70, 0
1, 351000, Note_on_c, 1, 72, 75
1, 351120, Note_on_c, 1, 72, 0
1, 351120, Note_on_c, 1, 74, 77
1, 351240, Note_on_c, 1, 74, 0
1, 351240, Note_on_c, 1, 75, 80
1, 351360, Note_on_c, 1, 75, 0
1, 351360, Note_on_c, 1, 77, 82
1, 351360, Note_on_c, 4, 58, 0
1, 351360, Note_on_c, 4, 62, 0
1, 351480, Note_on_c, 1, 77, 0
1, 351480, Note_on_c, 1, 79, 84
1, 351600, Note_on_c, 1, 79, 0
1, 351600, Note_on_c, 1, 81, 86
1, 351720, Note_on_c, 1, 81, 0
1, 351720, Note_on_c, 1, 82, 89
1, 351800, Tempo, 461538
1, 351818, Note_on_c, 1, 82, 0
1, 351840, Tempo, 454545
1, 351840, Note_on_c, 1, 78, 92
1, 351960, Note_on_c, 1, 78, 0
1, 351960, Note_on_c, 1, 79, 89
1, 352080, Note_on_c, 1, 79, 0
1, 352080, Note_on_c, 1, 75, 87
1, 352080, Note_on_c, 5, 63, 87
1, 352200, Note_on_c, 1, 75, 0
1, 352200, Note_on_c, 1, 72, 84
1, 352200, Note_on_c, 5, 63, 0
1, 352301, Note_on_c, 1, 72, 0
1, 352320, Note_on_c, 1, 74, 81
1, 352320, Note_on_c, 5, 60, 81
1, 352440, Note_on_c, 1, 74, 0
1, 352440, Note_on_c, 1, 75, 78
1, 352440, Note_on_c, 5, 60, 0
1, 352560, Note_on_c, 1, 75, 0
1, 352560, Note_on_c, 1, 72, 75
1, 352560, Note_on_c, 5, 65, 75
1, 352680, Note_on_c, 1, 72, 0
1, 352680, Note_on_c, 1, 69, 72
1, 352680, Note_on_c, 5, 65, 0
1, 352774, Note_on_c, 1, 69, 0
1, 352800, Note_on_c, 1, 70, 68
1, 352800, Note_on_c, 4, 62, 68
1, 352800, Note_on_c, 5, 58, 68
1, 352920, Note_on_c, 1, 70, 0
1, 352920, Note_on_c, 1, 72, 70
1, 353040, Note_on_c, 1, 72, 0
1, 353040, Note_on_c, 1, 74, 72
1, 353160, Note_on_c, 1, 74, 0
1, 353160, Note_on_c, 1, 75, 74
1, 353280, Note_on_c, 1, 75, 0
1, 353280, Note_on_c, 1, 77, 75
1, 353280, Note_on_c, 4, 62, 0
1, 353280, Note_on_c, 5, 58, 0
1, 353400, Note_on_c, 1, 77, 0
1, 353400, Note_on_c, 1, 79, 77
1, 353520, Note_on_c, 1, 79, 0
1, 353520, Note_on_c, 1, 81, 79
1, 353640, Note_on_c, 1, 81, 0
1, 353640, Note_on_c, 1, 82, 81
1, 353720, Tempo, 461538
1, 353741, Note_on_c, 1, 82, 0
1, 353760, Tempo, 454545
1, 353760, Note_on_c, 1, 78, 82
1, 353880, Note_on_c, 1, 78, 0
1, 353880, Note_on_c, 1, 79, 81
1, 354000, Note_on_c, 1, 79, 0
1, 354000, Note_on_c, 1, 75, 80
1, 354000, Note_on_c, 5, 51, 80
1, 354120, Note_on_c, 1, 75, 0
1, 354120, Note_on_c, 1, 72, 78
1, 354120, Note_on_c, 5, 51, 0
1, 354221, Note_on_c, 1, 72, 0
1, 354240, Note_on_c, 1, 74, 77
1, 354240, Note_on_c, 5, 48, 77
1, 354360, Note_on_c, 1, 74, 0
1, 354360, Note_on_c, 1, 75, 75
1, 354360, Note_on_c, 5, 48, 0
1, 354480, Note_on_c, 1, 75, 0
1, 354480, Note_on_c, 1, 72, 74
1, 354480, Note_on_c, 5, 53, 74
1, 354600, Note_on_c, 1, 72, 0
1, 354600, Note_on_c, 1, 69, 72
1, 354600, Note_on_c, 5, 53, 0
1, 354680, Tempo, 465116
1, 354698, Note_on_c, 1, 69, 0
1, 354720, Tempo, 465116
1, 354720, Note_on_c, 1, 70, 71
1, 354720, Note_on_c, 5, 58, 71
1, 354840, Note_on_c, 5, 58, 0
1, 354960, Note_on_c, 5, 53, 62
1, 355080, Note_on_c, 5, 53, 0
1, 355140, Tempo, 472440
1, 355200, Note_on_c, 5, 46, 46
1, 355305, Tempo, 600000
1, 355316, Note_on_c, 1, 70, 0
1, 355320, Note_on_c, 5, 46, 0
1, 355440, Tempo, 454545
1, 355440, Note_on_c, 1, 70, 47
1, 355560, Note_on_c, 1, 70, 0
1, 355640, Tempo, 461538
1, 355680, Tempo, 454545
1, 355680, Note_on_c, 1, 70, 52
1, 355920, Note_on_c, 4, 61, 49
1, 355920, Note_on_c, 5, 53, 49
1, 356076, Note_on_c, 4, 61, 0
1, 356076, Note_on_c, 5, 53, 0
1, 356160, Note_on_c, 4, 61, 50
1, 356160, Note_on_c, 5, 53, 50
1, 356400, Note_on_c, 1, 70, 0
1, 356400, Note_on_c, 1, 82, 50
1, 356400, Note_on_c, 4, 61, 0
1, 356400, Note_on_c, 5, 53, 0
1, 356520, Note_on_c, 1, 82, 0
1, 356600, Tempo, 461538
1, 356640, Tempo, 454545
1, 356640, Note_on_c, 1, 82, 54
1, 356880, Note_on_c, 4, 60, 53
1, 356880, Note_on_c, 5, 52, 53
1, 357036, Note_on_c, 4, 60, 0
1, 357036, Note_on_c, 5, 52, 0
1, 357120, Note_on_c, 4, 60, 54
1, 357120, Note_on_c, 5, 52, 54
1, 357360, Note_on_c, 1, 82, 0
1, 357360, Note_on_c, 1, 72, 66
1, 357360, Note_on_c, 4, 60, 0
1, 357360, Note_on_c, 5, 52, 0
1, 357480, Note_on_c, 1, 72, 0
1, 357560, Tempo, 461538
1, 357600, Tempo, 454545
1, 357600, Note_on_c, 1, 73, 67
1, 357720, Note_on_c, 1, 73, 0
1, 357720, Note_on_c, 1, 72, 68
1, 357840, Note_on_c, 1, 72, 0
1, 357840, Note_on_c, 1, 74, 69
1, 357840, Note_on_c, 5, 65, 69
1, 357960, Note_on_c, 1, 74, 0
1, 357960, Note_on_c, 2, 72, 70
1, 357996, Note_on_c, 5, 65, 0
1, 358080, Note_on_c, 1, 75, 71
1, 358080, Note_on_c, 2, 72, 0
1, 358080, Note_on_c, 5, 67, 71
1, 358200, Note_on_c, 1, 75, 0
1, 358200, Note_on_c, 2, 72, 71
1, 358236, Note_on_c, 5, 67, 0
1, 358320, Note_on_c, 1, 76, 72
1, 358320, Note_on_c, 2, 72, 0
1, 358320, Note_on_c, 5, 70, 72
1, 358440, Note_on_c, 1, 76, 0
1, 358440, Note_on_c, 2, 72, 73
1, 358476, Note_on_c, 5, 70, 0
1, 358560, Note_on_c, 1, 77, 74
1, 358560, Note_on_c, 2, 72, 0
1, 358560, Note_on_c, 5, 68, 74
1, 358680, Note_on_c, 1, 77, 0
1, 358680, Note_on_c, 2, 72, 74
1, 358716, Note_on_c, 5, 68, 0
1, 358800, Note_on_c, 1, 79, 75
1, 358800, Note_on_c, 2, 72, 0
1, 358800, Note_on_c, 5, 64, 75
1, 358920, Note_on_c, 1, 79, 0
1, 358920, Note_on_c, 2, 72, 76
1, 358956, Note_on_c, 5, 64, 0
1, 358980, Tempo, 461538
1, 359040, Note_on_c, 1, 80, 77
1, 359040, Note_on_c, 2, 72, 0
1, 359040, Note_on_c, 5, 65, 77
1, 359160, Note_on_c, 1, 80, 0
1, 359196, Note_on_c, 5, 65, 0
1, 359280, Note_on_c, 1, 68, 36
1, 359400, Note_on_c, 1, 68, 0
1, 359480, Tempo, 461538
1, 359520, Tempo, 454545
1, 359520, Note_on_c, 1, 68, 40
1, 359760, Note_on_c, 4, 59, 38
1, 359760, Note_on_c, 5, 51, 38
1, 359904, Note_on_c, 4, 59, 0
1, 359904, Note_on_c, 5, 51, 0
1, 360000, Note_on_c, 4, 59, 39
1, 360000, Note_on_c, 5, 51, 39
1, 360216, Note_on_c, 4, 59, 0
1, 360216, Note_on_c, 5, 51, 0
1, 360240, Note_on_c, 1, 68, 0
1, 360240, Note_on_c, 1, 80, 40
1, 360360, Note_on_c, 1, 80, 0
1, 360440, Tempo, 461538
1, 360480, Tempo, 454545
1, 360480, Note_on_c, 1, 80, 44
1, 360720, Note_on_c, 4, 58, 42
1, 360720, Note_on_c, 5, 50, 42
1, 360876, Note_on_c, 4, 58, 0
1, 360876, Note_on_c, 5, 50, 0
1, 360960, Note_on_c, 4, 58, 43
1, 360960, Note_on_c, 5, 50, 43
1, 361194, Note_on_c, 4, 58, 0
1, 361194, Note_on_c, 5, 50, 0
1, 361200, Note_on_c, 1, 80, 0
1, 361200, Note_on_c, 1, 70, 56
1, 361320, Note_on_c, 1, 70, 0
1, 361400, Tempo, 461538
1, 361440, Tempo, 454545
1, 361440, Note_on_c, 1, 71, 57
1, 361560, Note_on_c, 1, 71, 0
1, 361560, Note_on_c, 2, 70, 58
1, 361680, Note_on_c, 1, 72, 59
1, 361680, Note_on_c, 2, 70, 0
1, 361680, Note_on_c, 5, 63, 59
1, 361800, Note_on_c, 1, 72, 0
1, 361800, Note_on_c, 2, 70, 60
1, 361836, Note_on_c, 5, 63, 0
1, 361920, Note_on_c, 1, 73, 61
1, 361920, Note_on_c, 2, 70, 0
1, 361920, Note_on_c, 5, 65, 61
1, 362040, Note_on_c, 1, 73, 0
1, 362040, Note_on_c, 2, 70, 61
1, 362076, Note_on_c, 5, 65, 0
1, 362160, Note_on_c, 1, 74, 62
1, 362160, Note_on_c, 2, 70, 0
1, 362160, Note_on_c, 5, 68, 62
1, 362280, Note_on_c, 1, 74, 0
1, 362280, Note_on_c, 2, 70, 63
1, 362316, Note_on_c, 5, 68, 0
1, 362400, Note_on_c, 1, 75, 64
1, 362400, Note_on_c, 2, 70, 0
1, 362400, Note_on_c, 5, 67, 64
1, 362520, Note_on_c, 1, 75, 0
1, 362520, Note_on_c, 2, 70, 65
1, 362556, Note_on_c, 5, 67, 0
1, 362640, Note_on_c, 1, 77, 65
1, 362640, Note_on_c, 2, 70, 0
1, 362640, Note_on_c, 5, 62, 65
1, 362760, Note_on_c, 1, 77, 0
1, 362760, Note_on_c, 2, 70, 66
1, 362796, Note_on_c, 5, 62, 0
1, 362840, Tempo, 461538
1, 362880, Note_on_c, 1, 79, 67
1, 362880, Note_on_c, 2, 70, 0
1, 362880, Note_on_c, 5, 63, 67
1, 363000, Note_on_c, 1, 79, 0
1, 363036, Note_on_c, 5, 63, 0
1, 363120, Tempo, 461538
1, 363120, Note_on_c, 5, 51, 44
1, 363240, Note_on_c, 5, 51, 0
1, 363320, Tempo, 465116
1, 363360, Tempo, 461538
1, 363360, Note_on_c, 5, 51, 45
1, 363600, Note_on_c, 1, 73, 40
1, 363600, Note_on_c, 2, 67, 40
1, 363720, Note_on_c, 1, 73, 0
1, 363720, Note_on_c, 2, 67, 0
1, 363840, Note_on_c, 1, 73, 41
1, 363840, Note_on_c, 2, 67, 41
1, 364080, Note_on_c, 5, 51, 0
1, 364080, Note_on_c, 5, 63, 47
1, 364200, Note_on_c, 5, 63, 0
1, 364280, Tempo, 465116
1, 364320, Tempo, 461538
1, 364320, Note_on_c, 5, 63, 48
1, 364560, Note_on_c, 1, 73, 0
1, 364560, Note_on_c, 1, 72, 44
1, 364560, Note_on_c, 2, 67, 0
1, 364560, Note_on_c, 2, 68, 44
1, 364680, Note_on_c, 1, 72, 0
1, 364680, Note_on_c, 2, 68, 0
1, 364800, Note_on_c, 1, 72, 45
1, 364800, Note_on_c, 2, 68, 45
1, 365040, Note_on_c, 5, 63, 0
1, 365040, Note_on_c, 5, 39, 66
1, 365040, Note_on_c, 5, 51, 66
1, 365160, Note_on_c, 5, 39, 0
1, 365160, Note_on_c, 5, 51, 0
1, 365240, Tempo, 465116
1, 365280, Tempo, 461538
1, 365280, Note_on_c, 5, 51, 67
1, 365280, Note_on_c, 5, 39, 67
1, 365520, Note_on_c, 1, 72, 0
1, 365520, Note_on_c, 1, 70, 61
1, 365520, Note_on_c, 2, 68, 0
1, 365520, Note_on_c, 2, 66, 61
1, 365640, Note_on_c, 1, 70, 0
1, 365640, Note_on_c, 2, 66, 0
1, 365760, Note_on_c, 1, 70, 62
1, 365760, Note_on_c, 2, 66, 62
1, 366000, Note_on_c, 5, 51, 0
1, 366000, Note_on_c, 5, 39, 0
1, 366000, Note_on_c, 5, 63, 70
1, 366000, Note_on_c, 5, 51, 70
1, 366120, Note_on_c, 5, 63, 0
1, 366120, Note_on_c, 5, 51, 0
1, 366200, Tempo, 465116
1, 366240, Tempo, 461538
1, 366240, Note_on_c, 5, 63, 71
1, 366240, Note_on_c, 5, 51, 71
1, 366480, Note_on_c, 1, 70, 0
1, 366480, Note_on_c, 1, 69, 64
1, 366480, Note_on_c, 2, 66, 0
1, 366480, Note_on_c, 2, 65, 64
1, 366600, Note_on_c, 1, 69, 0
1, 366600, Note_on_c, 2, 65, 0
1, 366720, Note_on_c, 1, 69, 65
1, 366720, Note_on_c, 2, 65, 65
1, 366960, Note_on_c, 5, 63, 0
1, 366960, Note_on_c, 5, 51, 0
1, 366960, Note_on_c, 5, 53, 48
1, 367080, Note_on_c, 5, 53, 0
1, 367160, Tempo, 465116
1, 367200, Tempo, 461538
1, 367200, Note_on_c, 5, 53, 50
1, 367440, Note_on_c, 1, 69, 0
1, 367440, Note_on_c, 1, 75, 45
1, 367440, Note_on_c, 2, 65, 0
1, 367440, Note_on_c, 2, 70, 45
1, 367560, Note_on_c, 1, 75, 0
1, 367560, Note_on_c, 2, 70, 0
1, 367680, Note_on_c, 1, 75, 47
1, 367680, Note_on_c, 2, 70, 47
1, 367920, Note_on_c, 5, 53, 0
1, 367920, Note_on_c, 5, 65, 55
1, 368040, Note_on_c, 5, 65, 0
1, 368120, Tempo, 465116
1, 368160, Tempo, 461538
1, 368160, Note_on_c, 5, 65, 56
1, 368400, Note_on_c, 1, 75, 0
1, 368400, Note_on_c, 1, 73, 51
1, 368400, Note_on_c, 2, 70, 0
1, 368400, Note_on_c, 2, 70, 51
1, 368520, Note_on_c, 1, 73, 0
1, 368520, Note_on_c, 2, 70, 0
1, 368640, Note_on_c, 1, 73, 53
1, 368640, Note_on_c, 2, 70, 53
1, 368880, Note_on_c, 5, 65, 0
1, 368880, Note_on_c, 5, 41, 72
1, 368880, Note_on_c, 5, 53, 72
1, 369000, Note_on_c, 5, 41, 0
1, 369000, Note_on_c, 5, 53, 0
1, 369080, Tempo, 465116
1, 369120, Tempo, 461538
1, 369120, Note_on_c, 5, 41, 73
1, 369120, Note_on_c, 5, 53, 73
1, 369360, Note_on_c, 1, 73, 0
1, 369360, Note_on_c, 1, 72, 67
1, 369360, Note_on_c, 2, 70, 0
1, 369360, Note_on_c, 2, 68, 67
1, 369480, Note_on_c, 1, 72, 0
1, 369480, Note_on_c, 2, 68, 0
1, 369600, Note_on_c, 1, 72, 68
1, 369600, Note_on_c, 2, 68, 68
1, 369840, Note_on_c, 5, 41, 0
1, 369840, Note_on_c, 5, 53, 0
1, 369840, Note_on_c, 5, 53, 77
1, 369840, Note_on_c, 5, 65, 77
1, 369960, Note_on_c, 5, 53, 0
1, 369960, Note_on_c, 5, 65, 0
1, 370040, Tempo, 465116
1, 370080, Tempo, 461538
1, 370080, Note_on_c, 5, 53, 78
1, 370080, Note_on_c, 5, 65, 78
1, 370320, Note_on_c, 1, 72, 0
1, 370320, Note_on_c, 1, 71, 71
1, 370320, Note_on_c, 2, 68, 0
1, 370320, Note_on_c, 2, 67, 71
1, 370440, Note_on_c, 1, 71, 0
1, 370440, Note_on_c, 2, 67, 0
1, 370560, Note_on_c, 1, 71, 71
1, 370560, Note_on_c, 2, 67, 71
1, 370680, Note_on_c, 1, 71, 0
1, 370680, Note_on_c, 2, 67, 0
1, 370800, Note_on_c, 1, 71, 72
1, 370800, Note_on_c, 5, 53, 0
1, 370800, Note_on_c, 5, 65, 0
1, 370800, Note_on_c, 5, 65, 72
1, 370920, Note_on_c, 1, 71, 0
1, 370920, Note_on_c, 3, 67, 73
1, 370980, Note_on_c, 5, 65, 0
1, 371000, Tempo, 465116
1, 371040, Tempo, 454545
1, 371040, Note_on_c, 1, 72, 73
1, 371040, Note_on_c, 3, 67, 0
1, 371040, Note_on_c, 5, 63, 73
1, 371160, Note_on_c, 3, 67, 74
1, 371220, Note_on_c, 5, 63, 0
1, 371280, Note_on_c, 1, 72, 0
1, 371280, Note_on_c, 1, 74, 74
1, 371280, Note_on_c, 3, 67, 0
1, 371280, Note_on_c, 5, 62, 74
1, 371400, Note_on_c, 3, 67, 74
1, 371460, Note_on_c, 5, 62, 0
1, 371520, Note_on_c, 1, 74, 0
1, 371520, Note_on_c, 1, 75, 75
1, 371520, Note_on_c, 3, 67, 0
1, 371520, Note_on_c, 5, 60, 75
1, 371640, Note_on_c, 3, 67, 75
1, 371700, Note_on_c, 5, 60, 0
1, 371760, Note_on_c, 1, 75, 0
1, 371760, Note_on_c, 1, 77, 76
1, 371760, Note_on_c, 3, 67, 0
1, 371760, Note_on_c, 5, 59, 76
1, 371880, Note_on_c, 3, 67, 76
1, 371940, Note_on_c, 5, 59, 0
1, 372000, Note_on_c, 1, 77, 0
1, 372000, Note_on_c, 1, 75, 76
1, 372000, Note_on_c, 3, 67, 0
1, 372000, Note_on_c, 5, 60, 76
1, 372060, Note_on_c, 1, 75, 0
1, 372060, Note_on_c, 1, 77, 77
1, 372120, Note_on_c, 1, 77, 0
1, 372120, Note_on_c, 1, 75, 77
1, 372120, Note_on_c, 3, 67, 77
1, 372180, Note_on_c, 5, 60, 0
1, 372203, Note_on_c, 1, 75, 0
1, 372240, Note_on_c, 1, 74, 77
1, 372240, Note_on_c, 3, 67, 0
1, 372240, Note_on_c, 5, 62, 77
1, 372360, Note_on_c, 1, 74, 0
1, 372360, Note_on_c, 3, 67, 78
1, 372420, Note_on_c, 5, 62, 0
1, 372480, Note_on_c, 1, 72, 78
1, 372480, Note_on_c, 3, 67, 0
1, 372480, Note_on_c, 5, 63, 78
1, 372600, Note_on_c, 1, 72, 0
1, 372600, Note_on_c, 3, 67, 79
1, 372660, Note_on_c, 5, 63, 0
1, 372720, Note_on_c, 1, 71, 79
1, 372720, Note_on_c, 3, 67, 0
1, 372720, Note_on_c, 5, 65, 79
1, 372840, Note_on_c, 1, 71, 0
1, 372840, Note_on_c, 3, 67, 79
1, 372900, Note_on_c, 5, 65, 0
1, 372941, Note_on_c, 3, 67, 0
1, 372960, Note_on_c, 1, 72, 80
1, 372960, Note_on_c, 5, 63, 80
1, 373080, Note_on_c, 3, 67, 80
1, 373140, Note_on_c, 5, 63, 0
1, 373200, Note_on_c, 1, 72, 0
1, 373200, Note_on_c, 1, 74, 81
1, 373200, Note_on_c, 3, 67, 0
1, 373200, Note_on_c, 5, 62, 81
1, 373320, Note_on_c, 3, 67, 81
1, 373380, Note_on_c, 5, 62, 0
1, 373440, Note_on_c, 1, 74, 0
1, 373440, Note_on_c, 1, 75, 81
1, 373440, Note_on_c, 3, 67, 0
1, 373440, Note_on_c, 5, 60, 81
1, 373560, Note_on_c, 3, 67, 82
1, 373620, Note_on_c, 5, 60, 0
1, 373680, Note_on_c, 1, 75, 0
1, 373680, Note_on_c, 1, 77, 82
1, 373680, Note_on_c, 3, 67, 0
1, 373680, Note_on_c, 5, 59, 82
1, 373800, Note_on_c, 3, 67, 83
1, 373860, Note_on_c, 5, 59, 0
1, 373898, Note_on_c, 1, 77, 0
1, 373901, Note_on_c, 3, 67, 0
1, 373920, Tempo, 465116
1, 373920, Note_on_c, 1, 75, 84
1, 373920, Note_on_c, 5, 60, 84
1, 374040, Note_on_c, 1, 75, 0
1, 374100, Note_on_c, 5, 60, 0
1, 374160, Note_on_c, 1, 84, 76
1, 374160, Note_on_c, 2, 78, 76
1, 374160, Note_on_c, 5, 68, 76
1, 374160, Note_on_c, 5, 56, 76
1, 374270, Tempo, 472440
1, 374280, Note_on_c, 1, 84, 0
1, 374280, Note_on_c, 2, 78, 0
1, 374280, Note_on_c, 5, 68, 0
1, 374280, Note_on_c, 5, 56, 0
1, 374400, Note_on_c, 1, 83, 69
1, 374400, Note_on_c, 2, 79, 69
1, 374400, Note_on_c, 5, 55, 69
1, 374400, Note_on_c, 5, 67, 69
1, 374520, Note_on_c, 1, 83, 0
1, 374520, Note_on_c, 2, 79, 0
1, 374520, Note_on_c, 5, 55, 0
1, 374520, Note_on_c, 5, 67, 0
1, 374820, Tempo, 472440
1, 374880, Note_on_c, 1, 72, 60
1, 374880, Note_on_c, 4, 62, 60
1, 374880, Note_on_c, 5, 54, 60
1, 375120, Note_on_c, 1, 72, 0
1, 375120, Note_on_c, 1, 71, 57
1, 375120, Note_on_c, 5, 54, 0
1, 375120, Note_on_c, 5, 55, 57
1, 375240, Note_on_c, 1, 71, 0
1, 375360, Note_on_c, 5, 55, 0
1, 375360, Note_on_c, 5, 56, 55
1, 375600, Note_on_c, 1, 71, 51
1, 375600, Note_on_c, 5, 56, 0
1, 375600, Note_on_c, 5, 55, 52
1, 375720, Note_on_c, 1, 71, 0
1, 375780, Tempo, 480000
1, 375840, Note_on_c, 1, 71, 48
1, 375840, Note_on_c, 5, 55, 0
1, 375840, Note_on_c, 5, 54, 49
1, 376080, Note_on_c, 1, 71, 0
1, 376080, Note_on_c, 1, 70, 45
1, 376080, Note_on_c, 5, 54, 0
1, 376080, Note_on_c, 5, 55, 47
1, 376200, Note_on_c, 1, 70, 0
1, 376210, Tempo, 487804
1, 376320, Note_on_c, 5, 55, 0
1, 376320, Note_on_c, 5, 56, 44
1, 376328, Tempo, 508474
1, 376440, Tempo, 750000
1, 376560, Tempo, 454545
1, 376560, Note_on_c, 1, 70, 39
1, 376560, Note_on_c, 5, 56, 0
1, 376680, Note_on_c, 1, 70, 0
1, 376760, Tempo, 487804
1, 376800, Tempo, 454545
1, 376800, Note_on_c, 1, 70, 46
1, 376800, Note_on_c, 4, 62, 0
1, 376800, Note_on_c, 4, 63, 46
1, 376800, Note_on_c, 5, 55, 46
1, 377040, Note_on_c, 4, 63, 0
1, 377040, Note_on_c, 4, 67, 47
1, 377040, Note_on_c, 5, 55, 0
1, 377040, Note_on_c, 5, 63, 47
1, 377196, Note_on_c, 4, 67, 0
1, 377196, Note_on_c, 5, 63, 0
1, 377280, Note_on_c, 4, 67, 47
1, 377280, Note_on_c, 5, 63, 47
1, 377520, Note_on_c, 1, 70, 0
1, 377520, Note_on_c, 1, 82, 48
1, 377593, Note_on_c, 4, 67, 0
1, 377593, Note_on_c, 5, 63, 0
1, 377640, Note_on_c, 1, 82, 0
1, 377720, Tempo, 461538
1, 377760, Tempo, 454545
1, 377760, Note_on_c, 1, 82, 53
1, 378000, Note_on_c, 4, 65, 49
1, 378000, Note_on_c, 5, 62, 49
1, 378156, Note_on_c, 4, 65, 0
1, 378156, Note_on_c, 5, 62, 0
1, 378240, Note_on_c, 4, 65, 50
1, 378240, Note_on_c, 5, 62, 50
1, 378480, Note_on_c, 1, 82, 0
1, 378480, Note_on_c, 1, 80, 51
1, 378553, Note_on_c, 4, 65, 0
1, 378553, Note_on_c, 5, 62, 0
1, 378600, Note_on_c, 1, 80, 0
1, 378680, Tempo, 461538
1, 378720, Tempo, 454545
1, 378720, Note_on_c, 1, 80, 56
1, 378720, Note_on_c, 5, 63, 53
1, 378840, Note_on_c, 1, 80, 0
1, 378840, Note_on_c, 1, 79, 55
1, 378876, Note_on_c, 5, 63, 0
1, 378960, Note_on_c, 1, 79, 0
1, 378960, Note_on_c, 1, 77, 54
1, 378960, Note_on_c, 5, 55, 51
1, 379080, Note_on_c, 1, 77, 0
1, 379080, Note_on_c, 1, 75, 53
1, 379116, Note_on_c, 5, 55, 0
1, 379181, Note_on_c, 1, 75, 0
1, 379200, Note_on_c, 1, 72, 52
1, 379200, Note_on_c, 5, 56, 49
1, 379320, Note_on_c, 1, 72, 0
1, 379320, Note_on_c, 1, 75, 51
1, 379356, Note_on_c, 5, 56, 0
1, 379440, Note_on_c, 1, 75, 0
1, 379440, Note_on_c, 1, 74, 50
1, 379440, Note_on_c, 5, 58, 48
1, 379560, Note_on_c, 1, 74, 0
1, 379560, Note_on_c, 1, 77, 49
1, 379596, Note_on_c, 5, 58, 0
1, 379661, Note_on_c, 1, 77, 0
1, 379680, Note_on_c, 1, 75, 48
1, 379680, Note_on_c, 5, 60, 46
1, 379800, Note_on_c, 1, 75, 0
1, 379800, Note_on_c, 1, 79, 47
1, 379836, Note_on_c, 5, 60, 0
1, 379920, Note_on_c, 1, 79, 0
1, 379920, Note_on_c, 1, 77, 46
1, 379920, Note_on_c, 5, 62, 44
1, 380040, Note_on_c, 1, 77, 0
1, 380040, Note_on_c, 1, 80, 45
1, 380076, Note_on_c, 5, 62, 0
1, 380138, Note_on_c, 1, 80, 0
1, 380160, Note_on_c, 1, 79, 44
1, 380160, Note_on_c, 5, 63, 43
1, 380280, Tempo, 461538
1, 380280, Note_on_c, 1, 79, 0
1, 380316, Note_on_c, 5, 63, 0
1, 380400, Tempo, 454545
1, 380400, Note_on_c, 1, 70, 66
1, 380520, Note_on_c, 1, 70, 0
1, 380600, Tempo, 461538
1, 380640, Tempo, 454545
1, 380640, Note_on_c, 1, 70, 70
1, 380880, Note_on_c, 4, 67, 67
1, 380880, Note_on_c, 5, 63, 67
1, 381036, Note_on_c, 4, 67, 0
1, 381036, Note_on_c, 5, 63, 0
1, 381120, Note_on_c, 4, 67, 68
1, 381120, Note_on_c, 5, 63, 68
1, 381276, Note_on_c, 4, 67, 0
1, 381276, Note_on_c, 5, 63, 0
1, 381360, Note_on_c, 1, 70, 0
1, 381360, Note_on_c, 1, 82, 69
1, 381480, Note_on_c, 1, 82, 0
1, 381560, Tempo, 461538
1, 381600, Tempo, 454545
1, 381600, Note_on_c, 1, 82, 74
1, 381840, Note_on_c, 4, 65, 71
1, 381840, Note_on_c, 5, 62, 71
1, 381996, Note_on_c, 4, 65, 0
1, 381996, Note_on_c, 5, 62, 0
1, 382080, Note_on_c, 4, 65, 71
1, 382080, Note_on_c, 5, 62, 71
1, 382236, Note_on_c, 4, 65, 0
1, 382236, Note_on_c, 5, 62, 0
1, 382320, Note_on_c, 1, 82, 0
1, 382320, Note_on_c, 1, 80, 72
1, 382440, Note_on_c, 1, 80, 0
1, 382520, Tempo, 461538
1, 382560, Tempo, 454545
1, 382560, Note_on_c, 1, 80, 76
1, 382560, Note_on_c, 5, 63, 74
1, 382680, Note_on_c, 1, 80, 0
1, 382680, Note_on_c, 1, 79, 75
1, 382716, Note_on_c, 5, 63, 0
1, 382800, Note_on_c, 1, 79, 0
1, 382800, Note_on_c, 1, 77, 73
1, 382800, Note_on_c, 4, 70, 72
1, 382800, Note_on_c, 5, 67, 72
1, 382920, Note_on_c, 1, 77, 0
1, 382920, Note_on_c, 1, 75, 71
1, 382956, Note_on_c, 4, 70, 0
1, 382956, Note_on_c, 5, 67, 0
1, 383010, Tempo, 461538
1, 383020, Note_on_c, 1, 75, 0
1, 383040, Note_on_c, 1, 80, 69
1, 383040, Note_on_c, 2, 74, 69
1, 383040, Note_on_c, 4, 70, 70
1, 383040, Note_on_c, 5, 65, 70
1, 383160, Note_on_c, 1, 80, 0
1, 383160, Note_on_c, 2, 74, 0
1, 383196, Note_on_c, 4, 70, 0
1, 383196, Note_on_c, 5, 65, 0
1, 383280, Note_on_c, 1, 79, 66
1, 383280, Note_on_c, 2, 75, 66
1, 383280, Note_on_c, 4, 70, 67
1, 383280, Note_on_c, 5, 63, 67
1, 383400, Note_on_c, 1, 79, 0
1, 383400, Note_on_c, 2, 75, 0
1, 383408, Tempo, 465116
1, 383436, Note_on_c, 4, 70, 0
1, 383436, Note_on_c, 5, 63, 0
1, 383520, Tempo, 472440
1, 383520, Note_on_c, 1, 79, 62
1, 383520, Note_on_c, 2, 75, 62
1, 383520, Note_on_c, 5, 58, 65
1, 383676, Note_on_c, 5, 58, 0
1, 383760, Note_on_c, 1, 79, 0
1, 383760, Note_on_c, 1, 77, 54
1, 383760, Note_on_c, 2, 75, 0
1, 383760, Note_on_c, 2, 74, 54
1, 383760, Note_on_c, 4, 70, 54
1, 383880, Tempo, 480000
1, 383880, Note_on_c, 1, 77, 0
1, 383880, Note_on_c, 2, 74, 0
1, 383916, Note_on_c, 4, 70, 0
1, 384000, Tempo, 508474
1, 384000, Note_on_c, 5, 58, 40
1, 384240, Tempo, 461538
1, 384240, Note_on_c, 1, 70, 40
1, 384240, Note_on_c, 5, 58, 0
1, 384360, Note_on_c, 1, 70, 0
1, 384440, Tempo, 465116
1, 384480, Note_on_c, 1, 69, 42
1, 384480, Note_on_c, 4, 51, 42
1, 384485, Tempo, 461538
1, 384600, Note_on_c, 1, 70, 44
1, 384600, Note_on_c, 3, 58, 44
1, 384611, Note_on_c, 1, 69, 0
1, 384720, Note_on_c, 3, 58, 0
1, 384720, Note_on_c, 3, 55, 46
1, 384840, Note_on_c, 3, 55, 0
1, 384840, Note_on_c, 3, 58, 47
1, 384840, Note_on_c, 4, 51, 0
1, 384960, Note_on_c, 1, 70, 0
1, 384960, Note_on_c, 3, 58, 0
1, 384960, Note_on_c, 4, 51, 49
1, 385080, Note_on_c, 3, 58, 51
1, 385200, Note_on_c, 1, 70, 52
1, 385200, Note_on_c, 3, 58, 0
1, 385200, Note_on_c, 3, 55, 52
1, 385240, Note_on_c, 1, 70, 0
1, 385240, Note_on_c, 1, 72, 54
1, 385280, Note_on_c, 1, 72, 0
1, 385280, Note_on_c, 1, 70, 55
1, 385320, Note_on_c, 1, 70, 0
1, 385320, Note_on_c, 1, 69, 57
1, 385320, Note_on_c, 3, 55, 0
1, 385320, Note_on_c, 3, 58, 57
1, 385320, Note_on_c, 4, 51, 0
1, 385380, Note_on_c, 1, 69, 0
1, 385380, Note_on_c, 1, 70, 60
1, 385395, Tempo, 465116
1, 385440, Tempo, 461538
1, 385440, Note_on_c, 1, 70, 0
1, 385440, Note_on_c, 1, 80, 69
1, 385440, Note_on_c, 3, 58, 0
1, 385440, Note_on_c, 4, 50, 69
1, 385560, Note_on_c, 3, 58, 65
1, 385680, Note_on_c, 3, 58, 0
1, 385680, Note_on_c, 3, 53, 62
1, 385800, Note_on_c, 1, 80, 0
1, 385800, Note_on_c, 1, 77, 58
1, 385800, Note_on_c, 3, 53, 0
1, 385800, Note_on_c, 3, 58, 58
1, 385800, Note_on_c, 4, 50, 0
1, 385920, Note_on_c, 1, 77, 0
1, 385920, Note_on_c, 1, 74, 54
1, 385920, Note_on_c, 3, 58, 0
1, 385920, Note_on_c, 4, 50, 54
1, 386040, Note_on_c, 1, 74, 0
1, 386040, Note_on_c, 3, 58, 50
1, 386160, Note_on_c, 1, 68, 47
1, 386160, Note_on_c, 3, 58, 0
1, 386160, Note_on_c, 3, 53, 47
1, 386280, Note_on_c, 1, 68, 0
1, 386280, Note_on_c, 3, 53, 0
1, 386280, Note_on_c, 3, 58, 43
1, 386280, Note_on_c, 4, 50, 0
1, 386360, Tempo, 465116
1, 386400, Note_on_c, 1, 67, 42
1, 386400, Note_on_c, 3, 58, 0
1, 386400, Note_on_c, 4, 51, 42
1, 386405, Tempo, 461538
1, 386520, Note_on_c, 1, 70, 44
1, 386520, Note_on_c, 3, 58, 44
1, 386531, Note_on_c, 1, 67, 0
1, 386640, Note_on_c, 3, 58, 0
1, 386640, Note_on_c, 3, 55, 47
1, 386760, Note_on_c, 3, 55, 0
1, 386760, Note_on_c, 3, 58, 49
1, 386760, Note_on_c, 4, 51, 0
1, 386880, Note_on_c, 1, 70, 0
1, 386880, Note_on_c, 3, 58, 0
1, 386880, Note_on_c, 4, 51, 52
1, 387000, Note_on_c, 3, 58, 55
1, 387120, Note_on_c, 1, 70, 57
1, 387120, Note_on_c, 3, 58, 0
1, 387120, Note_on_c, 3, 55, 57
1, 387160, Note_on_c, 1, 70, 0
1, 387160, Note_on_c, 1, 72, 59
1, 387200, Note_on_c, 1, 72, 0
1, 387200, Note_on_c, 1, 70, 61
1, 387240, Note_on_c, 1, 70, 0
1, 387240, Note_on_c, 1, 69, 63
1, 387240, Note_on_c, 3, 55, 0
1, 387240, Note_on_c, 3, 58, 63
1, 387240, Note_on_c, 4, 51, 0
1, 387300, Note_on_c, 1, 69, 0
1, 387300, Note_on_c, 1, 70, 66
1, 387315, Tempo, 461538
1, 387360, Tempo, 454545
1, 387360, Note_on_c, 1, 70, 0
1, 387360, Note_on_c, 1, 80, 73
1, 387360, Note_on_c, 3, 58, 0
1, 387360, Note_on_c, 4, 50, 73
1, 387480, Note_on_c, 3, 58, 71
1, 387600, Note_on_c, 3, 58, 0
1, 387600, Note_on_c, 3, 53, 69
1, 387720, Note_on_c, 1, 80, 0
1, 387720, Note_on_c, 1, 77, 66
1, 387720, Note_on_c, 3, 53, 0
1, 387720, Note_on_c, 3, 58, 66
1, 387720, Note_on_c, 4, 50, 0
1, 387840, Note_on_c, 1, 77, 0
1, 387840, Note_on_c, 1, 74, 64
1, 387840, Note_on_c, 3, 58, 0
1, 387840, Note_on_c, 4, 50, 64
1, 387960, Note_on_c, 1, 74, 0
1, 387960, Note_on_c, 3, 58, 61
1, 388080, Note_on_c, 1, 68, 59
1, 388080, Note_on_c, 3, 58, 0
1, 388080, Note_on_c, 3, 53, 59
1, 388120, Note_on_c, 1, 68, 0
1, 388120, Note_on_c, 1, 70, 58
1, 388160, Note_on_c, 1, 70, 0
1, 388160, Note_on_c, 1, 68, 57
1, 388200, Note_on_c, 1, 68, 0
1, 388200, Note_on_c, 1, 67, 57
1, 388200, Note_on_c, 3, 53, 0
1, 388200, Note_on_c, 3, 58, 57
1, 388200, Note_on_c, 4, 50, 0
1, 388260, Note_on_c, 1, 67, 0
1, 388260, Note_on_c, 1, 68, 55
1, 388280, Tempo, 465116
1, 388320, Note_on_c, 1, 68, 0
1, 388320, Note_on_c, 1, 67, 56
1, 388320, Note_on_c, 3, 58, 0
1, 388320, Note_on_c, 5, 51, 56
1, 388325, Tempo, 461538
1, 388440, Note_on_c, 1, 67, 0
1, 388440, Note_on_c, 1, 70, 58
1, 388560, Note_on_c, 1, 70, 0
1, 388560, Note_on_c, 1, 75, 61
1, 388680, Note_on_c, 1, 75, 0
1, 388680, Note_on_c, 1, 79, 64
1, 388781, Note_on_c, 1, 79, 0
1, 388800, Note_on_c, 1, 82, 67
1, 388800, Note_on_c, 5, 51, 0
1, 388800, Note_on_c, 5, 55, 67
1, 388920, Note_on_c, 1, 82, 0
1, 388920, Note_on_c, 1, 79, 70
1, 389040, Note_on_c, 1, 79, 0
1, 389040, Note_on_c, 1, 75, 73
1, 389160, Note_on_c, 1, 75, 0
1, 389160, Note_on_c, 1, 70, 76
1, 389240, Tempo, 465116
1, 389269, Note_on_c, 1, 70, 0
1, 389280, Note_on_c, 1, 72, 79
1, 389280, Note_on_c, 5, 55, 0
1, 389280, Note_on_c, 5, 56, 79
1, 389400, Note_on_c, 1, 72, 0
1, 389400, Note_on_c, 1, 84, 77
1, 389520, Note_on_c, 1, 84, 0
1, 389520, Note_on_c, 1, 83, 75
1, 389640, Note_on_c, 1, 83, 0
1, 389640, Note_on_c, 1, 84, 73
1, 389760, Note_on_c, 1, 84, 0
1, 389760, Note_on_c, 1, 79, 70
1, 389760, Note_on_c, 5, 56, 0
1, 389880, Note_on_c, 1, 79, 0
1, 389880, Note_on_c, 1, 80, 68
1, 390000, Note_on_c, 1, 80, 0
1, 390000, Note_on_c, 1, 76, 66
1, 390000, Note_on_c, 4, 68, 66
1, 390000, Note_on_c, 5, 56, 66
1, 390120, Note_on_c, 1, 76, 0
1, 390120, Note_on_c, 1, 77, 64
1, 390156, Note_on_c, 4, 68, 0
1, 390156, Note_on_c, 5, 56, 0
1, 390200, Tempo, 487804
1, 390221, Note_on_c, 1, 77, 0
1, 390240, Tempo, 472440
1, 390240, Note_on_c, 1, 75, 62
1, 390240, Note_on_c, 4, 67, 62
1, 390240, Note_on_c, 5, 58, 62
1, 390440, Tempo, 487804
1, 390480, Note_on_c, 1, 75, 0
1, 390480, Note_on_c, 1, 74, 53
1, 390480, Note_on_c, 4, 67, 0
1, 390480, Note_on_c, 4, 65, 53
1, 390634, Note_on_c, 5, 58, 0
1, 390638, Note_on_c, 1, 74, 0
1, 390638, Note_on_c, 4, 65, 0
1, 390720, Tempo, 472440
1, 390720, Note_on_c, 5, 58, 47
1, 390840, Note_on_c, 5, 58, 0
1, 390840, Note_on_c, 5, 60, 44
1, 390960, Note_on_c, 5, 60, 0
1, 390960, Note_on_c, 5, 56, 42
1, 391080, Note_on_c, 5, 56, 0
1, 391080, Note_on_c, 5, 58, 39
1, 391160, Tempo, 472440
1, 391178, Note_on_c, 5, 58, 0
1, 391200, Tempo, 461538
1, 391200, Note_on_c, 5, 55, 37
1, 391440, Note_on_c, 1, 82, 37
1, 391680, Note_on_c, 1, 82, 0
1, 391680, Note_on_c, 1, 80, 38
1, 391680, Note_on_c, 5, 55, 0
1, 391920, Note_on_c, 1, 80, 0
1, 391920, Note_on_c, 1, 79, 39
1, 391920, Note_on_c, 4, 70, 39
1, 391920, Note_on_c, 5, 67, 39
1, 392076, Note_on_c, 4, 70, 0
1, 392076, Note_on_c, 5, 67, 0
1, 392119, Note_on_c, 1, 79, 0
1, 392120, Tempo, 465116
1, 392160, Tempo, 461538
1, 392160, Note_on_c, 4, 72, 40
1, 392160, Note_on_c, 5, 68, 40
1, 392400, Note_on_c, 1, 76, 42
1, 392473, Note_on_c, 4, 72, 0
1, 392473, Note_on_c, 5, 68, 0
1, 392520, Note_on_c, 1, 76, 0
1, 392640, Note_on_c, 1, 76, 43
1, 392880, Note_on_c, 1, 76, 0
1, 392880, Note_on_c, 1, 77, 44
1, 392880, Note_on_c, 4, 72, 44
1, 392880, Note_on_c, 5, 68, 44
1, 393000, Note_on_c, 1, 77, 0
1, 393036, Note_on_c, 4, 72, 0
1, 393036, Note_on_c, 5, 68, 0
1, 393080, Tempo, 480000
1, 393120, Tempo, 461538
1, 393120, Note_on_c, 4, 74, 45
1, 393120, Note_on_c, 5, 70, 45
1, 393360, Note_on_c, 1, 84, 47
1, 393433, Note_on_c, 4, 74, 0
1, 393433, Note_on_c, 5, 70, 0
1, 393600, Note_on_c, 1, 84, 0
1, 393600, Note_on_c, 1, 82, 48
1, 393840, Note_on_c, 1, 82, 0
1, 393840, Note_on_c, 1, 80, 49
1, 393840, Note_on_c, 4, 74, 49
1, 393840, Note_on_c, 5, 70, 49
1, 393996, Note_on_c, 4, 74, 0
1, 393996, Note_on_c, 5, 70, 0
1, 394040, Tempo, 465116
1, 394043, Note_on_c, 1, 80, 0
1, 394080, Tempo, 461538
1, 394080, Note_on_c, 4, 75, 51
1, 394080, Note_on_c, 5, 72, 51
1, 394320, Note_on_c, 1, 78, 52
1, 394393, Note_on_c, 4, 75, 0
1, 394393, Note_on_c, 5, 72, 0
1, 394440, Note_on_c, 1, 78, 0
1, 394560, Note_on_c, 1, 78, 53
1, 394800, Note_on_c, 1, 78, 0
1, 394800, Note_on_c, 1, 79, 54
1, 394800, Note_on_c, 4, 75, 54
1, 394800, Note_on_c, 5, 72, 54
1, 394920, Note_on_c, 1, 79, 0
1, 394956, Note_on_c, 4, 75, 0
1, 394956, Note_on_c, 5, 72, 0
1, 395000, Tempo, 495867
1, 395040, Tempo, 454545
1, 395040, Note_on_c, 2, 63, 65
1, 395040, Note_on_c, 4, 43, 65
1, 395080, Note_on_c, 2, 67, 65
1, 395120, Note_on_c, 2, 70, 65
1, 395160, Note_on_c, 1, 75, 65
1, 395160, Note_on_c, 3, 51, 65
1, 395280, Note_on_c, 3, 51, 0
1, 395280, Note_on_c, 3, 46, 65
1, 395400, Note_on_c, 3, 46, 0
1, 395400, Note_on_c, 3, 51, 64
1, 395400, Note_on_c, 4, 43, 0
1, 395520, Note_on_c, 3, 51, 0
1, 395520, Note_on_c, 4, 43, 64
1, 395640, Note_on_c, 3, 51, 63
1, 395760, Note_on_c, 3, 51, 0
1, 395760, Note_on_c, 3, 46, 63
1, 395880, Note_on_c, 3, 46, 0
1, 395880, Note_on_c, 3, 51, 62
1, 395880, Note_on_c, 4, 43, 0
1, 395955, Note_on_c, 2, 63, 0
1, 395959, Note_on_c, 1, 75, 0
1, 395959, Note_on_c, 2, 67, 0
1, 395959, Note_on_c, 2, 70, 0
1, 396000, Note_on_c, 2, 60, 62
1, 396000, Note_on_c, 3, 51, 0
1, 396000, Note_on_c, 4, 44, 62
1, 396040, Note_on_c, 2, 65, 62
1, 396080, Note_on_c, 2, 68, 62
1, 396120, Note_on_c, 1, 72, 62
1, 396120, Note_on_c, 3, 53, 62
1, 396240, Note_on_c, 3, 53, 0
1, 396240, Note_on_c, 3, 48, 61
1, 396360, Note_on_c, 3, 48, 0
1, 396360, Note_on_c, 3, 53, 61
1, 396360, Note_on_c, 4, 44, 0
1, 396480, Note_on_c, 3, 53, 0
1, 396480, Note_on_c, 4, 44, 60
1, 396600, Note_on_c, 3, 53, 60
1, 396720, Note_on_c, 3, 53, 0
1, 396720, Note_on_c, 3, 48, 59
1, 396840, Note_on_c, 3, 48, 0
1, 396840, Note_on_c, 3, 53, 59
1, 396840, Note_on_c, 4, 44, 0
1, 396870, Note_on_c, 2, 60, 0
1, 396874, Note_on_c, 2, 68, 0
1, 396878, Note_on_c, 1, 72, 0
1, 396878, Note_on_c, 2, 65, 0
1, 396960, Note_on_c, 1, 72, 59
1, 396960, Note_on_c, 3, 53, 0
1, 396960, Note_on_c, 4, 46, 59
1, 397080, Note_on_c, 1, 72, 0
1, 397080, Note_on_c, 1, 70, 58
1, 397080, Note_on_c, 3, 55, 58
1, 397200, Note_on_c, 1, 70, 0
1, 397200, Note_on_c, 1, 68, 58
1, 397200, Note_on_c, 3, 55, 0
1, 397200, Note_on_c, 3, 51, 58
1, 397320, Note_on_c, 1, 68, 0
1, 397320, Note_on_c, 1, 67, 57
1, 397320, Note_on_c, 3, 51, 0
1, 397320, Note_on_c, 3, 55, 57
1, 397320, Note_on_c, 4, 46, 0
1, 397421, Note_on_c, 1, 67, 0
1, 397425, Note_on_c, 3, 55, 0
1, 397440, Note_on_c, 1, 67, 57
1, 397440, Note_on_c, 4, 46, 57
1, 397560, Note_on_c, 1, 67, 0
1, 397560, Note_on_c, 1, 65, 56
1, 397560, Note_on_c, 3, 56, 56
1, 397680, Note_on_c, 1, 65, 0
1, 397680, Note_on_c, 1, 63, 56
1, 397680, Note_on_c, 3, 56, 0
1, 397680, Note_on_c, 3, 53, 56
1, 397800, Note_on_c, 1, 63, 0
1, 397800, Note_on_c, 1, 62, 56
1, 397800, Note_on_c, 3, 53, 0
1, 397800, Note_on_c, 3, 56, 56
1, 397800, Note_on_c, 4, 46, 0
1, 397901, Note_on_c, 1, 62, 0
1, 397901, Note_on_c, 3, 56, 0
1, 397920, Note_on_c, 1, 65, 55
1, 397920, Note_on_c, 4, 51, 55
1, 397920, Note_on_c, 4, 55, 55
1, 398040, Note_on_c, 1, 65, 0
1, 398040, Note_on_c, 1, 63, 55
1, 398160, Note_on_c, 1, 63, 0
1, 398160, Note_on_c, 1, 67, 54
1, 398280, Note_on_c, 1, 67, 0
1, 398280, Note_on_c, 1, 65, 54
1, 398400, Note_on_c, 1, 65, 0
1, 398400, Note_on_c, 1, 68, 54
1, 398400, Note_on_c, 4, 51, 0
1, 398400, Note_on_c, 4, 55, 0
1, 398520, Note_on_c, 1, 68, 0
1, 398520, Note_on_c, 1, 67, 53
1, 398640, Note_on_c, 1, 67, 0
1, 398640, Note_on_c, 1, 70, 53
1, 398760, Note_on_c, 1, 70, 0
1, 398760, Note_on_c, 1, 68, 52
1, 398840, Tempo, 472440
1, 398861, Note_on_c, 1, 68, 0
1, 398880, Tempo, 465116
1, 398880, Note_on_c, 1, 72, 52
1, 399120, Note_on_c, 1, 72, 0
1, 399120, Note_on_c, 1, 70, 53
1, 399360, Note_on_c, 4, 58, 55
1, 399360, Note_on_c, 5, 55, 55
1, 399600, Note_on_c, 1, 70, 0
1, 399600, Note_on_c, 1, 67, 57
1, 399673, Note_on_c, 4, 58, 0
1, 399673, Note_on_c, 5, 55, 0
1, 399799, Note_on_c, 1, 67, 0
1, 399800, Tempo, 472440
1, 399840, Tempo, 465116
1, 399840, Note_on_c, 1, 64, 59
1, 400080, Note_on_c, 1, 64, 0
1, 400080, Note_on_c, 1, 67, 61
1, 400320, Note_on_c, 4, 60, 63
1, 400320, Note_on_c, 5, 56, 63
1, 400560, Note_on_c, 1, 67, 0
1, 400560, Note_on_c, 1, 65, 65
1, 400633, Note_on_c, 4, 60, 0
1, 400633, Note_on_c, 5, 56, 0
1, 400760, Tempo, 472440
1, 400763, Note_on_c, 1, 65, 0
1, 400800, Tempo, 465116
1, 400800, Note_on_c, 1, 71, 67
1, 401040, Note_on_c, 1, 71, 0
1, 401040, Note_on_c, 1, 72, 69
1, 401280, Note_on_c, 4, 62, 71
1, 401280, Note_on_c, 5, 58, 71
1, 401520, Note_on_c, 1, 72, 0
1, 401520, Note_on_c, 1, 68, 73
1, 401593, Note_on_c, 4, 62, 0
1, 401593, Note_on_c, 5, 58, 0
1, 401715, Note_on_c, 1, 68, 0
1, 401720, Tempo, 472440
1, 401760, Tempo, 465116
1, 401760, Note_on_c, 1, 66, 75
1, 402000, Note_on_c, 1, 66, 0
1, 402000, Note_on_c, 1, 68, 77
1, 402240, Note_on_c, 4, 63, 79
1, 402240, Note_on_c, 5, 60, 79
1, 402480, Note_on_c, 1, 68, 0
1, 402480, Note_on_c, 1, 67, 81
1, 402553, Note_on_c, 4, 63, 0
1, 402553, Note_on_c, 5, 60, 0
1, 402679, Note_on_c, 1, 67, 0
1, 402680, Tempo, 495867
1, 402720, Tempo, 454545
1, 402720, Note_on_c, 2, 63, 85
1, 402720, Note_on_c, 4, 43, 85
1, 402760, Note_on_c, 2, 67, 85
1, 402800, Note_on_c, 2, 70, 85
1, 402840, Note_on_c, 1, 75, 85
1, 402840, Note_on_c, 3, 51, 85
1, 402960, Note_on_c, 3, 51, 0
1, 402960, Note_on_c, 3, 46, 84
1, 403080, Note_on_c, 3, 46, 0
1, 403080, Note_on_c, 3, 51, 84
1, 403080, Note_on_c, 4, 43, 0
1, 403200, Note_on_c, 3, 51, 0
1, 403200, Note_on_c, 4, 43, 83
1, 403320, Note_on_c, 3, 51, 83
1, 403440, Note_on_c, 3, 51, 0
1, 403440, Note_on_c, 3, 46, 82
1, 403560, Note_on_c, 3, 46, 0
1, 403560, Note_on_c, 3, 51, 82
1, 403560, Note_on_c, 4, 43, 0
1, 403631, Note_on_c, 2, 63, 0
1, 403635, Note_on_c, 1, 75, 0
1, 403639, Note_on_c, 2, 67, 0
1, 403643, Note_on_c, 2, 70, 0
1, 403680, Note_on_c, 2, 60, 81
1, 403680, Note_on_c, 3, 51, 0
1, 403680, Note_on_c, 4, 44, 81
1, 403720, Note_on_c, 2, 65, 81
1, 403760, Note_on_c, 2, 68, 81
1, 403800, Note_on_c, 1, 72, 81
1, 403800, Note_on_c, 3, 53, 81
1, 403920, Note_on_c, 3, 53, 0
1, 403920, Note_on_c, 3, 48, 80
1, 404040, Note_on_c, 3, 48, 0
1, 404040, Note_on_c, 3, 53, 80
1, 404040, Note_on_c, 4, 44, 0
1, 404160, Note_on_c, 3, 53, 0
1, 404160, Note_on_c, 4, 44, 79
1, 404280, Note_on_c, 3, 53, 79
1, 404400, Note_on_c, 3, 53, 0
1, 404400, Note_on_c, 3, 48, 79
1, 404520, Note_on_c, 3, 48, 0
1, 404520, Note_on_c, 3, 53, 78
1, 404520, Note_on_c, 4, 44, 0
1, 404595, Note_on_c, 2, 60, 0
1, 404595, Note_on_c, 2, 65, 0
1, 404595, Note_on_c, 2, 68, 0
1, 404603, Note_on_c, 1, 72, 0
1, 404640, Note_on_c, 1, 72, 78
1, 404640, Note_on_c, 3, 53, 0
1, 404640, Note_on_c, 4, 46, 78
1, 404760, Note_on_c, 1, 72, 0
1, 404760, Note_on_c, 1, 70, 77
1, 404760, Note_on_c, 3, 55, 77
1, 404880, Note_on_c, 1, 70, 0
1, 404880, Note_on_c, 1, 68, 77
1, 404880, Note_on_c, 3, 55, 0
1, 404880, Note_on_c, 3, 51, 77
1, 405000, Note_on_c, 1, 68, 0
1, 405000, Note_on_c, 1, 67, 76
1, 405000, Note_on_c, 3, 51, 0
1, 405000, Note_on_c, 3, 55, 76
1, 405000, Note_on_c, 4, 46, 0
1, 405101, Note_on_c, 1, 67, 0
1, 405120, Note_on_c, 1, 67, 76
1, 405120, Note_on_c, 3, 55, 0
1, 405120, Note_on_c, 4, 46, 76
1, 405240, Note_on_c, 1, 67, 0
1, 405240, Note_on_c, 1, 65, 75
1, 405240, Note_on_c, 3, 56, 75
1, 405360, Note_on_c, 1, 65, 0
1, 405360, Note_on_c, 1, 63, 75
1, 405360, Note_on_c, 3, 56, 0
1, 405360, Note_on_c, 3, 53, 75
1, 405480, Note_on_c, 1, 63, 0
1, 405480, Note_on_c, 1, 62, 74
1, 405480, Note_on_c, 3, 53, 0
1, 405480, Note_on_c, 3, 56, 74
1, 405480, Note_on_c, 4, 46, 0
1, 405581, Note_on_c, 1, 62, 0
1, 405600, Note_on_c, 1, 63, 74
1, 405600, Note_on_c, 3, 56, 0
1, 405600, Note_on_c, 4, 48, 74
1, 405600, Note_on_c, 4, 55, 74
1, 405720, Note_on_c, 1, 63, 0
1, 405720, Note_on_c, 1, 75, 74
1, 405840, Note_on_c, 1, 75, 0
1, 405840, Note_on_c, 1, 77, 74
1, 405960, Note_on_c, 1, 77, 0
1, 405960, Note_on_c, 1, 79, 75
1, 406080, Note_on_c, 1, 79, 0
1, 406080, Note_on_c, 1, 80, 75
1, 406080, Note_on_c, 4, 48, 0
1, 406080, Note_on_c, 4, 55, 0
1, 406200, Note_on_c, 1, 80, 0
1, 406200, Note_on_c, 1, 82, 75
1, 406320, Note_on_c, 1, 82, 0
1, 406320, Note_on_c, 1, 84, 76
1, 406440, Note_on_c, 1, 84, 0
1, 406440, Note_on_c, 1, 86, 76
1, 406520, Tempo, 461538
1, 406538, Note_on_c, 1, 86, 0
1, 406560, Tempo, 454545
1, 406560, Note_on_c, 1, 87, 76
1, 406560, Note_on_c, 4, 55, 76
1, 406680, Note_on_c, 1, 87, 0
1, 406680, Note_on_c, 1, 82, 77
1, 406680, Note_on_c, 3, 63, 77
1, 406800, Note_on_c, 1, 82, 0
1, 406800, Note_on_c, 1, 79, 77
1, 406800, Note_on_c, 3, 63, 0
1, 406800, Note_on_c, 3, 58, 77
1, 406920, Note_on_c, 1, 79, 0
1, 406920, Note_on_c, 1, 75, 77
1, 406920, Note_on_c, 3, 58, 0
1, 406920, Note_on_c, 3, 63, 77
1, 406920, Note_on_c, 4, 55, 0
1, 407018, Note_on_c, 1, 75, 0
1, 407040, Note_on_c, 2, 75, 70
1, 407040, Note_on_c, 3, 63, 0
1, 407040, Note_on_c, 4, 55, 78
1, 407080, Note_on_c, 2, 75, 0
1, 407080, Note_on_c, 2, 77, 71
1, 407120, Note_on_c, 2, 77, 0
1, 407120, Note_on_c, 2, 75, 72
1, 407160, Note_on_c, 2, 75, 0
1, 407160, Note_on_c, 2, 77, 72
1, 407160, Note_on_c, 3, 63, 78
1, 407200, Note_on_c, 2, 77, 0
1, 407200, Note_on_c, 2, 75, 73
1, 407240, Note_on_c, 2, 75, 0
1, 407240, Note_on_c, 2, 77, 74
1, 407280, Note_on_c, 2, 77, 0
1, 407280, Note_on_c, 2, 75, 74
1, 407280, Note_on_c, 3, 63, 0
1, 407280, Note_on_c, 3, 58, 78
1, 407320, Note_on_c, 2, 75, 0
1, 407320, Note_on_c, 2, 77, 75
1, 407360, Note_on_c, 2, 77, 0
1, 407360, Note_on_c, 2, 75, 76
1, 407400, Note_on_c, 2, 75, 0
1, 407400, Note_on_c, 2, 74, 76
1, 407400, Note_on_c, 3, 58, 0
1, 407400, Note_on_c, 3, 63, 79
1, 407400, Note_on_c, 4, 55, 0
1, 407460, Note_on_c, 2, 74, 0
1, 407460, Note_on_c, 2, 75, 77
1, 407520, Note_on_c, 1, 72, 78
1, 407520, Note_on_c, 2, 75, 0
1, 407520, Note_on_c, 3, 63, 0
1, 407520, Note_on_c, 4, 56, 79
1, 407640, Note_on_c, 1, 72, 0
1, 407640, Note_on_c, 1, 77, 79
1, 407640, Note_on_c, 3, 65, 79
1, 407760, Note_on_c, 1, 77, 0
1, 407760, Note_on_c, 1, 80, 80
1, 407760, Note_on_c, 3, 65, 0
1, 407760, Note_on_c, 3, 60, 80
1, 407880, Note_on_c, 1, 80, 0
1, 407880, Note_on_c, 1, 84, 80
1, 407880, Note_on_c, 3, 60, 0
1, 407880, Note_on_c, 3, 65, 80
1, 407880, Note_on_c, 4, 56, 0
1, 407985, Note_on_c, 1, 84, 0
1, 408000, Note_on_c, 2, 84, 73
1, 408000, Note_on_c, 3, 65, 0
1, 408000, Note_on_c, 4, 56, 80
1, 408040, Note_on_c, 2, 84, 0
1, 408040, Note_on_c, 2, 86, 74
1, 408080, Note_on_c, 2, 86, 0
1, 408080, Note_on_c, 2, 84, 74
1, 408120, Note_on_c, 2, 84, 0
1, 408120, Note_on_c, 2, 86, 75
1, 408120, Note_on_c, 3, 65, 81
1, 408160, Note_on_c, 2, 86, 0
1, 408160, Note_on_c, 2, 84, 76
1, 408200, Note_on_c, 2, 84, 0
1, 408200, Note_on_c, 2, 86, 77
1, 408240, Note_on_c, 2, 86, 0
1, 408240, Note_on_c, 2, 84, 78
1, 408240, Note_on_c, 3, 65, 0
1, 408240, Note_on_c, 3, 60, 81
1, 408280, Note_on_c, 2, 84, 0
1, 408280, Note_on_c, 2, 86, 78
1, 408320, Note_on_c, 2, 86, 0
1, 408320, Note_on_c, 2, 84, 79
1, 408360, Note_on_c, 2, 84, 0
1, 408360, Note_on_c, 2, 83, 80
1, 408360, Note_on_c, 3, 60, 0
1, 408360, Note_on_c, 3, 65, 82
1, 408360, Note_on_c, 4, 56, 0
1, 408420, Note_on_c, 2, 83, 0
1, 408420, Note_on_c, 2, 84, 81
1, 408440, Tempo, 461538
1, 408480, Tempo, 454545
1, 408480, Note_on_c, 1, 84, 83
1, 408480, Note_on_c, 2, 84, 0
1, 408480, Note_on_c, 3, 65, 0
1, 408480, Note_on_c, 4, 58, 82
1, 408600, Note_on_c, 1, 84, 0
1, 408600, Note_on_c, 1, 82, 82
1, 408600, Note_on_c, 3, 67, 82
1, 408720, Note_on_c, 1, 82, 0
1, 408720, Note_on_c, 1, 80, 83
1, 408720, Note_on_c, 3, 67, 0
1, 408720, Note_on_c, 3, 63, 83
1, 408840, Note_on_c, 1, 80, 0
1, 408840, Note_on_c, 1, 79, 83
1, 408840, Note_on_c, 3, 63, 0
1, 408840, Note_on_c, 3, 67, 83
1, 408840, Note_on_c, 4, 58, 0
1, 408938, Note_on_c, 1, 79, 0
1, 408960, Note_on_c, 1, 79, 83
1, 408960, Note_on_c, 3, 67, 0
1, 408960, Note_on_c, 4, 58, 83
1, 409080, Note_on_c, 1, 79, 0
1, 409080, Note_on_c, 1, 77, 84
1, 409080, Note_on_c, 3, 68, 84
1, 409200, Note_on_c, 1, 77, 0
1, 409200, Note_on_c, 1, 75, 84
1, 409200, Note_on_c, 3, 68, 0
1, 409200, Note_on_c, 3, 65, 84
1, 409320, Note_on_c, 1, 75, 0
1, 409320, Note_on_c, 1, 74, 84
1, 409320, Note_on_c, 3, 65, 0
1, 409320, Note_on_c, 3, 68, 84
1, 409320, Note_on_c, 4, 58, 0
1, 409414, Note_on_c, 1, 74, 0
1, 409440, Note_on_c, 1, 75, 86
1, 409440, Note_on_c, 3, 68, 0
1, 409440, Note_on_c, 4, 63, 86
1, 409440, Note_on_c, 4, 67, 86
1, 409560, Note_on_c, 1, 75, 0
1, 409560, Note_on_c, 1, 77, 86
1, 409680, Note_on_c, 1, 77, 0
1, 409680, Note_on_c, 1, 79, 87
1, 409800, Note_on_c, 1, 79, 0
1, 409800, Note_on_c, 1, 80, 87
1, 409920, Note_on_c, 1, 80, 0
1, 409920, Note_on_c, 1, 82, 87
1, 409920, Note_on_c, 4, 63, 0
1, 409920, Note_on_c, 4, 67, 0
1, 410040, Note_on_c, 1, 82, 0
1, 410040, Note_on_c, 1, 84, 88
1, 410160, Note_on_c, 1, 84, 0
1, 410160, Note_on_c, 1, 86, 88
1, 410280, Note_on_c, 1, 86, 0
1, 410280, Note_on_c, 1, 87, 89
1, 410360, Tempo, 461538
1, 410378, Note_on_c, 1, 87, 0
1, 410400, Tempo, 454545
1, 410400, Note_on_c, 1, 83, 89
1, 410520, Note_on_c, 1, 83, 0
1, 410520, Note_on_c, 1, 84, 88
1, 410640, Note_on_c, 1, 84, 0
1, 410640, Note_on_c, 1, 80, 87
1, 410640, Note_on_c, 5, 68, 87
1, 410760, Note_on_c, 1, 80, 0
1, 410760, Note_on_c, 1, 77, 86
1, 410796, Note_on_c, 5, 68, 0
1, 410861, Note_on_c, 1, 77, 0
1, 410880, Note_on_c, 1, 79, 85
1, 410880, Note_on_c, 5, 65, 85
1, 411000, Note_on_c, 1, 79, 0
1, 411000, Note_on_c, 1, 80, 84
1, 411036, Note_on_c, 5, 65, 0
1, 411120, Note_on_c, 1, 80, 0
1, 411120, Note_on_c, 1, 77, 83
1, 411120, Note_on_c, 5, 70, 83
1, 411240, Note_on_c, 1, 77, 0
1, 411240, Note_on_c, 1, 74, 82
1, 411276, Note_on_c, 5, 70, 0
1, 411338, Note_on_c, 1, 74, 0
1, 411360, Note_on_c, 1, 75, 81
1, 411360, Note_on_c, 5, 67, 81
1, 411480, Note_on_c, 1, 75, 0
1, 411480, Note_on_c, 1, 77, 80
1, 411600, Note_on_c, 1, 77, 0
1, 411600, Note_on_c, 1, 79, 79
1, 411720, Note_on_c, 1, 79, 0
1, 411720, Note_on_c, 1, 80, 78
1, 411840, Note_on_c, 1, 80, 0
1, 411840, Note_on_c, 1, 82, 77
1, 411840, Note_on_c, 5, 67, 0
1, 411960, Note_on_c, 1, 82, 0
1, 411960, Note_on_c, 1, 79, 76
1, 412080, Note_on_c, 1, 79, 0
1, 412080, Note_on_c, 1, 75, 75
1, 412200, Note_on_c, 1, 75, 0
1, 412200, Note_on_c, 1, 70, 74
1, 412280, Tempo, 461538
1, 412301, Note_on_c, 1, 70, 0
1, 412320, Tempo, 454545
1, 412320, Note_on_c, 1, 71, 73
1, 412440, Note_on_c, 1, 71, 0
1, 412440, Note_on_c, 1, 72, 72
1, 412560, Note_on_c, 1, 72, 0
1, 412560, Note_on_c, 1, 68, 71
1, 412560, Note_on_c, 5, 56, 71
1, 412680, Note_on_c, 1, 68, 0
1, 412680, Note_on_c, 1, 65, 70
1, 412716, Note_on_c, 5, 56, 0
1, 412778, Note_on_c, 1, 65, 0
1, 412800, Note_on_c, 1, 67, 69
1, 412800, Note_on_c, 5, 53, 69
1, 412920, Note_on_c, 1, 67, 0
1, 412920, Note_on_c, 1, 68, 68
1, 412956, Note_on_c, 5, 53, 0
1, 413040, Note_on_c, 1, 68, 0
1, 413040, Note_on_c, 1, 65, 67
1, 413040, Note_on_c, 5, 58, 67
1, 413160, Note_on_c, 1, 65, 0
1, 413160, Note_on_c, 1, 62, 66
1, 413196, Note_on_c, 5, 58, 0
1, 413240, Tempo, 465116
1, 413261, Note_on_c, 1, 62, 0
1, 413280, Tempo, 458015
1, 413280, Note_on_c, 1, 63, 72
1, 413280, Note_on_c, 5, 51, 72
1, 413400, Note_on_c, 1, 63, 0
1, 413400, Note_on_c, 1, 70, 74
1, 413520, Note_on_c, 1, 70, 0
1, 413520, Note_on_c, 1, 69, 75
1, 413640, Note_on_c, 1, 69, 0
1, 413640, Note_on_c, 1, 70, 77
1, 413760, Note_on_c, 1, 70, 0
1, 413760, Note_on_c, 1, 72, 78
1, 413760, Note_on_c, 5, 51, 0
1, 413880, Note_on_c, 1, 72, 0
1, 413880, Note_on_c, 1, 70, 80
1, 414000, Note_on_c, 1, 70, 0
1, 414000, Note_on_c, 1, 74, 81
1, 414000, Note_on_c, 4, 65, 81
1, 414000, Note_on_c, 4, 68, 81
1, 414000, Note_on_c, 5, 58, 81
1, 414120, Note_on_c, 1, 74, 0
1, 414120, Note_on_c, 1, 70, 83
1, 414156, Note_on_c, 4, 65, 0
1, 414156, Note_on_c, 4, 68, 0
1, 414156, Note_on_c, 5, 58, 0
1, 414240, Tempo, 454545
1, 414240, Note_on_c, 1, 70, 0
1, 414240, Note_on_c, 1, 75, 84
1, 414240, Note_on_c, 4, 67, 84
1, 414240, Note_on_c, 5, 63, 84
1, 414360, Note_on_c, 1, 75, 0
1, 414360, Note_on_c, 1, 70, 86
1, 414480, Note_on_c, 1, 70, 0
1, 414480, Note_on_c, 1, 69, 87
1, 414553, Note_on_c, 4, 67, 0
1, 414553, Note_on_c, 5, 63, 0
1, 414600, Note_on_c, 1, 69, 0
1, 414600, Note_on_c, 1, 70, 89
1, 414720, Note_on_c, 1, 70, 0
1, 414720, Note_on_c, 1, 72, 90
1, 414840, Note_on_c, 1, 72, 0
1, 414840, Note_on_c, 1, 70, 92
1, 414960, Note_on_c, 1, 70, 0
1, 414960, Note_on_c, 1, 74, 93
1, 414960, Note_on_c, 4, 65, 93
1, 414960, Note_on_c, 4, 68, 93
1, 414960, Note_on_c, 5, 58, 93
1, 415020, Tempo, 458015
1, 415080, Tempo, 600000
1, 415080, Note_on_c, 1, 74, 0
1, 415080, Note_on_c, 1, 70, 95
1, 415116, Note_on_c, 4, 65, 0
1, 415116, Note_on_c, 4, 68, 0
1, 415116, Note_on_c, 5, 58, 0
1, 415178, Note_on_c, 1, 70, 0
1, 415200, Note_on_c, 1, 75, 96
1, 415200, Note_on_c, 4, 67, 96
1, 415200, Note_on_c, 5, 63, 96
1, 415680, Note_on_c, 1, 75, 0
1, 415680, Note_on_c, 4, 67, 0
1, 415680, Note_on_c, 5, 63, 0
1, 415690, End_track
0, 0, End_of_file