0, 0, Header, 0, 1, 480
1, 0, Start_track
1, 0, Tempo, 500000
1, 0, Tempo, 500000
1, 1920, Tempo, 377358
1, 1920, Note_on_c, 1, 72, 42
1, 1920, Note_on_c, 4, 60, 42
1, 2160, Note_on_c, 3, 67, 43
1, 2160, Note_on_c, 4, 60, 0
1, 2400, Note_on_c, 3, 67, 0
1, 2400, Note_on_c, 3, 64, 44
1, 2640, Note_on_c, 3, 64, 0
1, 2640, Note_on_c, 3, 67, 46
1, 2880, Note_on_c, 1, 72, 0
1, 2880, Note_on_c, 1, 76, 47
1, 2880, Note_on_c, 3, 67, 0
1, 2880, Note_on_c, 4, 60, 47
1, 3120, Note_on_c, 3, 67, 48
1, 3120, Note_on_c, 4, 60, 0
1, 3360, Note_on_c, 1, 76, 0
1, 3360, Note_on_c, 1, 79, 49
1, 3360, Note_on_c, 3, 67, 0
1, 3360, Note_on_c, 3, 64, 49
1, 3600, Note_on_c, 3, 64, 0
1, 3600, Note_on_c, 3, 67, 50
1, 3840, Note_on_c, 1, 79, 0
1, 3840, Note_on_c, 1, 71, 53
1, 3840, Note_on_c, 3, 67, 0
1, 3840, Note_on_c, 4, 62, 53
1, 4080, Note_on_c, 3, 67, 51
1, 4080, Note_on_c, 4, 62, 0
1, 4320, Note_on_c, 3, 67, 0
1, 4320, Note_on_c, 3, 65, 50
1, 4560, Note_on_c, 1, 71, 0
1, 4560, Note_on_c, 1, 72, 49
1, 4560, Note_on_c, 3, 65, 0
1, 4560, Note_on_c, 3, 67, 49
1, 4680, Note_on_c, 1, 72, 0
1, 4680, Note_on_c, 1, 74, 49
1, 4800, Note_on_c, 1, 74, 0
1, 4800, Note_on_c, 1, 72, 48
1, 4800, Note_on_c, 3, 67, 0
1, 4800, Note_on_c, 4, 60, 48
1, 5040, Note_on_c, 3, 67, 48
1, 5040, Note_on_c, 4, 60, 0
1, 5280, Note_on_c, 1, 72, 0
1, 5280, Note_on_c, 3, 67, 0
1, 5280, Note_on_c, 3, 64, 47
1, 5520, Note_on_c, 3, 64, 0
1, 5520, Note_on_c, 3, 67, 46
1, 5712, Note_on_c, 3, 67, 0
1, 5760, Note_on_c, 1, 81, 46
1, 5760, Note_on_c, 4, 60, 46
1, 6000, Note_on_c, 3, 69, 48
1, 6000, Note_on_c, 4, 60, 0
1, 6240, Note_on_c, 3, 69, 0
1, 6240, Note_on_c, 3, 65, 49
1, 6480, Note_on_c, 3, 65, 0
1, 6480, Note_on_c, 3, 69, 51
1, 6720, Note_on_c, 1, 81, 0
1, 6720, Note_on_c, 1, 79, 52
1, 6720, Note_on_c, 3, 69, 0
1, 6720, Note_on_c, 4, 60, 52
1, 6960, Note_on_c, 3, 67, 54
1, 6960, Note_on_c, 4, 60, 0
1, 7200, Note_on_c, 1, 79, 0
1, 7200, Note_on_c, 1, 84, 55
1, 7200, Note_on_c, 3, 67, 0
1, 7200, Note_on_c, 3, 64, 55
1, 7440, Note_on_c, 3, 64, 0
1, 7440, Note_on_c, 3, 67, 57
1, 7680, Note_on_c, 1, 84, 0
1, 7680, Note_on_c, 1, 79, 59
1, 7680, Note_on_c, 3, 67, 0
1, 7680, Note_on_c, 4, 59, 59
1, 7920, Note_on_c, 3, 67, 57
1, 7920, Note_on_c, 4, 59, 0
1, 8160, Note_on_c, 1, 79, 0
1, 8160, Note_on_c, 1, 77, 56
1, 8160, Note_on_c, 3, 67, 0
1, 8160, Note_on_c, 3, 62, 56
1, 8250, Note_on_c, 1, 77, 0
1, 8256, Note_on_c, 1, 79, 55
1, 8352, Note_on_c, 1, 77, 54
1, 8362, Note_on_c, 1, 79, 0
1, 8400, Note_on_c, 3, 62, 0
1, 8400, Note_on_c, 3, 67, 54
1, 8448, Note_on_c, 1, 76, 53
1, 8460, Note_on_c, 1, 77, 0
1, 8544, Note_on_c, 1, 77, 53
1, 8557, Note_on_c, 1, 76, 0
1, 8640, Note_on_c, 1, 77, 0
1, 8640, Note_on_c, 1, 76, 52
1, 8640, Note_on_c, 3, 67, 0
1, 8640, Note_on_c, 4, 60, 52
1, 8880, Note_on_c, 3, 67, 50
1, 8880, Note_on_c, 4, 60, 0
1, 9120, Note_on_c, 1, 76, 0
1, 9120, Note_on_c, 3, 67, 0
1, 9120, Note_on_c, 3, 64, 48
1, 9360, Note_on_c, 3, 64, 0
1, 9360, Note_on_c, 3, 67, 46
1, 9540, Tempo, 379746
1, 9552, Note_on_c, 3, 67, 0
1, 9600, Tempo, 377358
1, 9600, Note_on_c, 1, 69, 77
1, 9600, Note_on_c, 5, 65, 77
1, 9790, Note_on_c, 1, 69, 0
1, 9840, Note_on_c, 1, 71, 77
1, 9935, Note_on_c, 1, 71, 0
1, 9960, Note_on_c, 1, 72, 77
1, 9985, Note_on_c, 5, 65, 0
1, 10055, Note_on_c, 1, 72, 0
1, 10080, Note_on_c, 1, 74, 77
1, 10175, Note_on_c, 1, 74, 0
1, 10200, Note_on_c, 1, 76, 77
1, 10295, Note_on_c, 1, 76, 0
1, 10320, Note_on_c, 1, 77, 76
1, 10415, Note_on_c, 1, 77, 0
1, 10440, Note_on_c, 1, 79, 76
1, 10535, Note_on_c, 1, 79, 0
1, 10560, Note_on_c, 1, 81, 76
1, 10655, Note_on_c, 1, 81, 0
1, 10680, Note_on_c, 1, 79, 76
1, 10775, Note_on_c, 1, 79, 0
1, 10800, Note_on_c, 1, 77, 76
1, 10895, Note_on_c, 1, 77, 0
1, 10920, Note_on_c, 1, 76, 75
1, 11015, Note_on_c, 1, 76, 0
1, 11040, Note_on_c, 1, 74, 75
1, 11040, Note_on_c, 4, 60, 75
1, 11040, Note_on_c, 5, 53, 75
1, 11135, Note_on_c, 1, 74, 0
1, 11160, Note_on_c, 1, 72, 75
1, 11255, Note_on_c, 1, 72, 0
1, 11280, Note_on_c, 1, 71, 75
1, 11375, Note_on_c, 1, 71, 0
1, 11400, Note_on_c, 1, 69, 75
1, 11425, Note_on_c, 4, 60, 0
1, 11425, Note_on_c, 5, 53, 0
1, 11495, Note_on_c, 1, 69, 0
1, 11520, Note_on_c, 1, 67, 74
1, 11520, Note_on_c, 4, 60, 74
1, 11520, Note_on_c, 5, 52, 74
1, 11710, Note_on_c, 1, 67, 0
1, 11760, Note_on_c, 1, 69, 74
1, 11855, Note_on_c, 1, 69, 0
1, 11880, Note_on_c, 1, 71, 74
1, 11905, Note_on_c, 4, 60, 0
1, 11905, Note_on_c, 5, 52, 0
1, 11975, Note_on_c, 1, 71, 0
1, 12000, Note_on_c, 1, 72, 74
1, 12095, Note_on_c, 1, 72, 0
1, 12120, Note_on_c, 1, 74, 74
1, 12215, Note_on_c, 1, 74, 0
1, 12240, Note_on_c, 1, 76, 73
1, 12335, Note_on_c, 1, 76, 0
1, 12360, Note_on_c, 1, 77, 73
1, 12455, Note_on_c, 1, 77, 0
1, 12480, Note_on_c, 1, 79, 73
1, 12575, Note_on_c, 1, 79, 0
1, 12600, Note_on_c, 1, 77, 73
1, 12695, Note_on_c, 1, 77, 0
1, 12720, Note_on_c, 1, 76, 73
1, 12815, Note_on_c, 1, 76, 0
1, 12840, Note_on_c, 1, 74, 72
1, 12935, Note_on_c, 1, 74, 0
1, 12960, Note_on_c, 1, 72, 72
1, 12960, Note_on_c, 4, 60, 72
1, 12960, Note_on_c, 5, 52, 72
1, 13055, Note_on_c, 1, 72, 0
1, 13080, Note_on_c, 1, 71, 72
1, 13175, Note_on_c, 1, 71, 0
1, 13200, Note_on_c, 1, 69, 72
1, 13295, Note_on_c, 1, 69, 0
1, 13320, Note_on_c, 1, 67, 72
1, 13345, Note_on_c, 4, 60, 0
1, 13345, Note_on_c, 5, 52, 0
1, 13415, Note_on_c, 1, 67, 0
1, 13440, Note_on_c, 1, 65, 72
1, 13440, Note_on_c, 4, 60, 72
1, 13440, Note_on_c, 5, 50, 72
1, 13630, Note_on_c, 1, 65, 0
1, 13680, Note_on_c, 1, 67, 71
1, 13775, Note_on_c, 1, 67, 0
1, 13800, Note_on_c, 1, 69, 71
1, 13825, Note_on_c, 4, 60, 0
1, 13825, Note_on_c, 5, 50, 0
1, 13895, Note_on_c, 1, 69, 0
1, 13920, Note_on_c, 1, 71, 71
1, 14015, Note_on_c, 1, 71, 0
1, 14040, Note_on_c, 1, 72, 71
1, 14135, Note_on_c, 1, 72, 0
1, 14160, Note_on_c, 1, 74, 70
1, 14255, Note_on_c, 1, 74, 0
1, 14280, Note_on_c, 1, 76, 70
1, 14375, Note_on_c, 1, 76, 0
1, 14400, Note_on_c, 1, 77, 70
1, 14495, Note_on_c, 1, 77, 0
1, 14520, Note_on_c, 1, 76, 70
1, 14615, Note_on_c, 1, 76, 0
1, 14640, Note_on_c, 1, 74, 70
1, 14735, Note_on_c, 1, 74, 0
1, 14760, Note_on_c, 1, 72, 70
1, 14855, Note_on_c, 1, 72, 0
1, 14880, Note_on_c, 1, 71, 69
1, 14880, Note_on_c, 4, 59, 69
1, 14880, Note_on_c, 5, 50, 69
1, 14975, Note_on_c, 1, 71, 0
1, 15000, Note_on_c, 1, 69, 69
1, 15095, Note_on_c, 1, 69, 0
1, 15120, Note_on_c, 1, 67, 69
1, 15215, Note_on_c, 1, 67, 0
1, 15240, Note_on_c, 1, 65, 69
1, 15265, Note_on_c, 4, 59, 0
1, 15265, Note_on_c, 5, 50, 0
1, 15335, Note_on_c, 1, 65, 0
1, 15360, Note_on_c, 1, 64, 69
1, 15360, Note_on_c, 4, 60, 69
1, 15360, Note_on_c, 5, 48, 69
1, 15550, Note_on_c, 1, 64, 0
1, 15600, Note_on_c, 1, 65, 68
1, 15695, Note_on_c, 1, 65, 0
1, 15720, Note_on_c, 1, 67, 68
1, 15745, Note_on_c, 4, 60, 0
1, 15745, Note_on_c, 5, 48, 0
1, 15815, Note_on_c, 1, 67, 0
1, 15840, Note_on_c, 1, 69, 68
1, 15935, Note_on_c, 1, 69, 0
1, 15960, Note_on_c, 1, 71, 68
1, 16055, Note_on_c, 1, 71, 0
1, 16080, Note_on_c, 1, 72, 67
1, 16175, Note_on_c, 1, 72, 0
1, 16200, Note_on_c, 1, 74, 67
1, 16295, Note_on_c, 1, 74, 0
1, 16320, Note_on_c, 1, 76, 67
1, 16415, Note_on_c, 1, 76, 0
1, 16440, Note_on_c, 1, 74, 67
1, 16535, Note_on_c, 1, 74, 0
1, 16560, Note_on_c, 1, 72, 67
1, 16655, Note_on_c, 1, 72, 0
1, 16680, Note_on_c, 1, 71, 67
1, 16775, Note_on_c, 1, 71, 0
1, 16800, Note_on_c, 1, 69, 66
1, 16800, Note_on_c, 4, 52, 66
1, 16800, Note_on_c, 5, 48, 66
1, 16895, Note_on_c, 1, 69, 0
1, 16920, Note_on_c, 1, 67, 66
1, 17015, Note_on_c, 1, 67, 0
1, 17040, Note_on_c, 1, 65, 66
1, 17135, Note_on_c, 1, 65, 0
1, 17160, Note_on_c, 1, 64, 66
1, 17185, Note_on_c, 4, 52, 0
1, 17185, Note_on_c, 5, 48, 0
1, 17240, Tempo, 379746
1, 17255, Note_on_c, 1, 64, 0
1, 17280, Tempo, 377358
1, 17280, Note_on_c, 1, 62, 68
1, 17280, Note_on_c, 4, 57, 68
1, 17280, Note_on_c, 5, 53, 68
1, 17470, Note_on_c, 1, 62, 0
1, 17520, Note_on_c, 1, 64, 69
1, 17615, Note_on_c, 1, 64, 0
1, 17640, Note_on_c, 1, 65, 69
1, 17735, Note_on_c, 1, 65, 0
1, 17760, Note_on_c, 1, 67, 70
1, 17855, Note_on_c, 1, 67, 0
1, 17880, Note_on_c, 1, 69, 70
1, 17975, Note_on_c, 1, 69, 0
1, 18000, Note_on_c, 1, 71, 71
1, 18095, Note_on_c, 1, 71, 0
1, 18120, Note_on_c, 1, 73, 71
1, 18215, Note_on_c, 1, 73, 0
1, 18240, Note_on_c, 1, 74, 72
1, 18335, Note_on_c, 1, 74, 0
1, 18360, Note_on_c, 1, 69, 72
1, 18455, Note_on_c, 1, 69, 0
1, 18480, Note_on_c, 1, 71, 72
1, 18575, Note_on_c, 1, 71, 0
1, 18600, Note_on_c, 1, 73, 73
1, 18695, Note_on_c, 1, 73, 0
1, 18720, Note_on_c, 1, 74, 73
1, 18815, Note_on_c, 1, 74, 0
1, 18840, Note_on_c, 1, 76, 74
1, 18935, Note_on_c, 1, 76, 0
1, 18960, Note_on_c, 1, 77, 74
1, 19055, Note_on_c, 1, 77, 0
1, 19080, Note_on_c, 1, 79, 75
1, 19080, Note_on_c, 5, 53, 0
1, 19087, Note_on_c, 4, 57, 0
1, 19175, Note_on_c, 1, 79, 0
1, 19200, Note_on_c, 1, 81, 75
1, 19200, Note_on_c, 5, 53, 75
1, 19295, Note_on_c, 1, 81, 0
1, 19320, Note_on_c, 1, 83, 76
1, 19415, Note_on_c, 1, 83, 0
1, 19440, Note_on_c, 1, 84, 76
1, 19535, Note_on_c, 1, 84, 0
1, 19560, Note_on_c, 1, 83, 77
1, 19655, Note_on_c, 1, 83, 0
1, 19680, Note_on_c, 1, 81, 77
1, 19775, Note_on_c, 1, 81, 0
1, 19775, Note_on_c, 5, 53, 0
1, 19800, Note_on_c, 1, 79, 78
1, 19895, Note_on_c, 1, 79, 0
1, 19920, Note_on_c, 1, 77, 78
1, 19920, Note_on_c, 5, 55, 78
1, 20015, Note_on_c, 1, 77, 0
1, 20040, Note_on_c, 1, 76, 79
1, 20110, Note_on_c, 5, 55, 0
1, 20135, Note_on_c, 1, 76, 0
1, 20160, Note_on_c, 1, 77, 79
1, 20160, Note_on_c, 5, 57, 79
1, 20255, Note_on_c, 1, 77, 0
1, 20280, Note_on_c, 1, 79, 80
1, 20375, Note_on_c, 1, 79, 0
1, 20400, Note_on_c, 1, 81, 80
1, 20495, Note_on_c, 1, 81, 0
1, 20520, Note_on_c, 1, 79, 81
1, 20615, Note_on_c, 1, 79, 0
1, 20640, Note_on_c, 1, 77, 81
1, 20735, Note_on_c, 1, 77, 0
1, 20735, Note_on_c, 5, 57, 0
1, 20760, Note_on_c, 1, 76, 82
1, 20855, Note_on_c, 1, 76, 0
1, 20880, Note_on_c, 1, 74, 82
1, 20880, Note_on_c, 5, 54, 82
1, 20975, Note_on_c, 1, 74, 0
1, 21000, Note_on_c, 1, 72, 82
1, 21070, Note_on_c, 5, 54, 0
1, 21095, Note_on_c, 1, 72, 0
1, 21120, Note_on_c, 1, 71, 83
1, 21120, Note_on_c, 5, 43, 83
1, 21240, Note_on_c, 3, 47, 83
1, 21300, Note_on_c, 5, 43, 0
1, 21310, Note_on_c, 1, 71, 0
1, 21335, Note_on_c, 3, 47, 0
1, 21360, Note_on_c, 1, 79, 84
1, 21360, Note_on_c, 3, 50, 84
1, 21455, Note_on_c, 3, 50, 0
1, 21480, Note_on_c, 3, 55, 84
1, 21550, Note_on_c, 1, 79, 0
1, 21575, Note_on_c, 3, 55, 0
1, 21600, Note_on_c, 1, 76, 85
1, 21600, Note_on_c, 5, 43, 85
1, 21720, Note_on_c, 3, 48, 85
1, 21780, Note_on_c, 5, 43, 0
1, 21790, Note_on_c, 1, 76, 0
1, 21815, Note_on_c, 3, 48, 0
1, 21840, Note_on_c, 1, 72, 86
1, 21840, Note_on_c, 3, 52, 86
1, 21935, Note_on_c, 3, 52, 0
1, 21960, Note_on_c, 3, 55, 86
1, 22030, Note_on_c, 1, 72, 0
1, 22055, Note_on_c, 3, 55, 0
1, 22080, Note_on_c, 1, 74, 87
1, 22080, Note_on_c, 5, 43, 87
1, 22200, Note_on_c, 3, 47, 87
1, 22260, Note_on_c, 5, 43, 0
1, 22270, Note_on_c, 1, 74, 0
1, 22295, Note_on_c, 3, 47, 0
1, 22320, Note_on_c, 1, 79, 88
1, 22320, Note_on_c, 3, 50, 88
1, 22415, Note_on_c, 3, 50, 0
1, 22440, Note_on_c, 3, 55, 88
1, 22510, Note_on_c, 1, 79, 0
1, 22535, Note_on_c, 3, 55, 0
1, 22560, Note_on_c, 1, 76, 89
1, 22560, Note_on_c, 5, 43, 89
1, 22680, Note_on_c, 3, 48, 89
1, 22740, Note_on_c, 5, 43, 0
1, 22750, Note_on_c, 1, 76, 0
1, 22775, Note_on_c, 3, 48, 0
1, 22800, Note_on_c, 1, 72, 90
1, 22800, Note_on_c, 3, 52, 90
1, 22895, Note_on_c, 3, 52, 0
1, 22920, Tempo, 384615
1, 22920, Note_on_c, 3, 55, 90
1, 22990, Note_on_c, 1, 72, 0
1, 23015, Note_on_c, 3, 55, 0
1, 23040, Tempo, 389610
1, 23040, Note_on_c, 1, 74, 91
1, 23040, Note_on_c, 5, 43, 91
1, 23350, Note_on_c, 5, 43, 0
1, 23400, Note_on_c, 1, 74, 0
1, 23520, Note_on_c, 1, 79, 86
1, 23520, Note_on_c, 2, 74, 86
1, 23520, Note_on_c, 2, 71, 86
1, 23520, Note_on_c, 5, 55, 86
1, 23830, Note_on_c, 1, 79, 0
1, 23830, Note_on_c, 2, 71, 0
1, 23830, Note_on_c, 2, 74, 0
1, 23830, Note_on_c, 5, 55, 0
1, 23865, Tempo, 394736
1, 24000, Note_on_c, 1, 67, 82
1, 24000, Note_on_c, 5, 43, 82
1, 24367, Note_on_c, 1, 67, 0
1, 24367, Note_on_c, 5, 43, 0
1, 24480, Tempo, 400000
1, 24960, Tempo, 377358
1, 24960, Note_on_c, 5, 61, 81
1, 25055, Note_on_c, 5, 61, 0
1, 25080, Note_on_c, 3, 62, 75
1, 25175, Note_on_c, 3, 62, 0
1, 25200, Note_on_c, 5, 61, 70
1, 25295, Note_on_c, 5, 61, 0
1, 25320, Note_on_c, 3, 62, 68
1, 25415, Note_on_c, 3, 62, 0
1, 25440, Note_on_c, 5, 61, 67
1, 25535, Note_on_c, 5, 61, 0
1, 25560, Note_on_c, 3, 62, 65
1, 25655, Note_on_c, 3, 62, 0
1, 25680, Note_on_c, 5, 61, 63
1, 25775, Note_on_c, 5, 61, 0
1, 25800, Note_on_c, 3, 62, 62
1, 25895, Note_on_c, 3, 62, 0
1, 25920, Note_on_c, 5, 60, 60
1, 26015, Note_on_c, 5, 60, 0
1, 26040, Note_on_c, 3, 62, 60
1, 26135, Note_on_c, 3, 62, 0
1, 26160, Note_on_c, 5, 60, 60
1, 26255, Note_on_c, 5, 60, 0
1, 26280, Note_on_c, 3, 62, 60
1, 26375, Note_on_c, 3, 62, 0
1, 26400, Note_on_c, 5, 60, 60
1, 26495, Note_on_c, 5, 60, 0
1, 26520, Note_on_c, 3, 62, 59
1, 26615, Note_on_c, 3, 62, 0
1, 26640, Note_on_c, 5, 60, 59
1, 26735, Note_on_c, 5, 60, 0
1, 26760, Note_on_c, 3, 62, 59
1, 26840, Tempo, 379746
1, 26855, Note_on_c, 3, 62, 0
1, 26880, Tempo, 377358
1, 26880, Note_on_c, 1, 86, 59
1, 26880, Note_on_c, 5, 59, 59
1, 26975, Note_on_c, 5, 59, 0
1, 27000, Note_on_c, 3, 62, 59
1, 27095, Note_on_c, 3, 62, 0
1, 27120, Note_on_c, 1, 86, 0
1, 27120, Note_on_c, 1, 83, 59
1, 27120, Note_on_c, 5, 59, 59
1, 27215, Note_on_c, 5, 59, 0
1, 27240, Note_on_c, 3, 62, 58
1, 27310, Note_on_c, 1, 83, 0
1, 27335, Note_on_c, 3, 62, 0
1, 27360, Note_on_c, 1, 79, 58
1, 27360, Note_on_c, 5, 59, 58
1, 27455, Note_on_c, 5, 59, 0
1, 27480, Note_on_c, 3, 62, 58
1, 27575, Note_on_c, 3, 62, 0
1, 27600, Note_on_c, 5, 59, 58
1, 27695, Note_on_c, 5, 59, 0
1, 27720, Note_on_c, 3, 62, 58
1, 27815, Note_on_c, 3, 62, 0
1, 27840, Note_on_c, 5, 59, 58
1, 27935, Note_on_c, 5, 59, 0
1, 27960, Note_on_c, 3, 62, 58
1, 28055, Note_on_c, 3, 62, 0
1, 28080, Note_on_c, 1, 79, 0
1, 28080, Note_on_c, 1, 81, 57
1, 28080, Note_on_c, 5, 59, 57
1, 28175, Note_on_c, 5, 59, 0
1, 28200, Note_on_c, 1, 81, 0
1, 28200, Note_on_c, 1, 83, 57
1, 28200, Note_on_c, 3, 62, 57
1, 28295, Note_on_c, 3, 62, 0
1, 28320, Note_on_c, 1, 83, 0
1, 28320, Note_on_c, 1, 81, 57
1, 28320, Note_on_c, 5, 59, 57
1, 28415, Note_on_c, 5, 59, 0
1, 28440, Note_on_c, 3, 62, 57
1, 28475, Note_on_c, 1, 81, 0
1, 28535, Note_on_c, 3, 62, 0
1, 28560, Note_on_c, 1, 79, 57
1, 28560, Note_on_c, 5, 59, 57
1, 28655, Note_on_c, 5, 59, 0
1, 28680, Note_on_c, 3, 62, 57
1, 28715, Note_on_c, 1, 79, 0
1, 28775, Note_on_c, 3, 62, 0
1, 28800, Note_on_c, 1, 79, 57
1, 28800, Note_on_c, 5, 60, 57
1, 28860, Note_on_c, 1, 79, 0
1, 28860, Note_on_c, 1, 81, 56
1, 28895, Note_on_c, 5, 60, 0
1, 28920, Note_on_c, 1, 81, 0
1, 28920, Note_on_c, 1, 79, 56
1, 28920, Note_on_c, 3, 62, 56
1, 28980, Note_on_c, 1, 79, 0
1, 28980, Note_on_c, 1, 81, 56
1, 29015, Note_on_c, 3, 62, 0
1, 29040, Note_on_c, 1, 81, 0
1, 29040, Note_on_c, 1, 79, 56
1, 29040, Note_on_c, 5, 59, 56
1, 29135, Note_on_c, 5, 59, 0
1, 29160, Note_on_c, 1, 79, 0
1, 29160, Note_on_c, 1, 78, 56
1, 29160, Note_on_c, 3, 62, 56
1, 29255, Note_on_c, 3, 62, 0
1, 29256, Note_on_c, 1, 78, 0
1, 29280, Note_on_c, 1, 78, 56
1, 29280, Note_on_c, 5, 57, 56
1, 29375, Note_on_c, 5, 57, 0
1, 29400, Note_on_c, 3, 62, 56
1, 29495, Note_on_c, 3, 62, 0
1, 29520, Note_on_c, 5, 59, 56
1, 29615, Note_on_c, 5, 59, 0
1, 29640, Note_on_c, 3, 62, 55
1, 29735, Note_on_c, 3, 62, 0
1, 29760, Note_on_c, 1, 78, 0
1, 29760, Note_on_c, 5, 60, 55
1, 29855, Note_on_c, 5, 60, 0
1, 29880, Note_on_c, 3, 62, 55
1, 29975, Note_on_c, 3, 62, 0
1, 30000, Note_on_c, 5, 59, 55
1, 30095, Note_on_c, 5, 59, 0
1, 30120, Note_on_c, 3, 62, 55
1, 30215, Note_on_c, 3, 62, 0
1, 30240, Note_on_c, 5, 60, 55
1, 30335, Note_on_c, 5, 60, 0
1, 30360, Note_on_c, 3, 62, 55
1, 30455, Note_on_c, 3, 62, 0
1, 30480, Note_on_c, 5, 57, 54
1, 30575, Note_on_c, 5, 57, 0
1, 30600, Note_on_c, 3, 62, 54
1, 30680, Tempo, 379746
1, 30695, Note_on_c, 3, 62, 0
1, 30720, Tempo, 377358
1, 30720, Note_on_c, 1, 86, 54
1, 30720, Note_on_c, 5, 59, 54
1, 30815, Note_on_c, 5, 59, 0
1, 30840, Note_on_c, 3, 62, 54
1, 30935, Note_on_c, 3, 62, 0
1, 30960, Note_on_c, 1, 86, 0
1, 30960, Note_on_c, 1, 83, 54
1, 30960, Note_on_c, 5, 59, 54
1, 31055, Note_on_c, 5, 59, 0
1, 31080, Note_on_c, 3, 62, 54
1, 31150, Note_on_c, 1, 83, 0
1, 31175, Note_on_c, 3, 62, 0
1, 31200, Note_on_c, 1, 79, 54
1, 31200, Note_on_c, 5, 59, 54
1, 31295, Note_on_c, 5, 59, 0
1, 31320, Note_on_c, 3, 62, 53
1, 31415, Note_on_c, 3, 62, 0
1, 31440, Note_on_c, 5, 59, 53
1, 31535, Note_on_c, 5, 59, 0
1, 31560, Note_on_c, 3, 62, 53
1, 31655, Note_on_c, 3, 62, 0
1, 31680, Note_on_c, 5, 59, 53
1, 31775, Note_on_c, 5, 59, 0
1, 31800, Note_on_c, 3, 62, 53
1, 31895, Note_on_c, 3, 62, 0
1, 31920, Note_on_c, 1, 79, 0
1, 31920, Note_on_c, 1, 81, 53
1, 31920, Note_on_c, 5, 59, 53
1, 32015, Note_on_c, 5, 59, 0
1, 32040, Note_on_c, 1, 81, 0
1, 32040, Note_on_c, 1, 83, 53
1, 32040, Note_on_c, 3, 62, 53
1, 32135, Note_on_c, 3, 62, 0
1, 32160, Note_on_c, 1, 83, 0
1, 32160, Note_on_c, 1, 81, 52
1, 32160, Note_on_c, 5, 59, 52
1, 32255, Note_on_c, 5, 59, 0
1, 32280, Note_on_c, 3, 62, 52
1, 32315, Note_on_c, 1, 81, 0
1, 32375, Note_on_c, 3, 62, 0
1, 32400, Note_on_c, 1, 79, 52
1, 32400, Note_on_c, 5, 59, 52
1, 32495, Note_on_c, 5, 59, 0
1, 32520, Note_on_c, 3, 62, 52
1, 32555, Note_on_c, 1, 79, 0
1, 32615, Note_on_c, 3, 62, 0
1, 32640, Note_on_c, 1, 79, 52
1, 32640, Note_on_c, 5, 60, 52
1, 32700, Note_on_c, 1, 79, 0
1, 32700, Note_on_c, 1, 81, 52
1, 32735, Note_on_c, 5, 60, 0
1, 32760, Note_on_c, 1, 81, 0
1, 32760, Note_on_c, 1, 79, 52
1, 32760, Note_on_c, 3, 62, 52
1, 32820, Note_on_c, 1, 79, 0
1, 32820, Note_on_c, 1, 81, 52
1, 32855, Note_on_c, 3, 62, 0
1, 32880, Note_on_c, 1, 81, 0
1, 32880, Note_on_c, 1, 79, 51
1, 32880, Note_on_c, 5, 59, 51
1, 32975, Note_on_c, 5, 59, 0
1, 33000, Note_on_c, 1, 79, 0
1, 33000, Note_on_c, 1, 78, 51
1, 33000, Note_on_c, 3, 62, 51
1, 33095, Note_on_c, 3, 62, 0
1, 33096, Note_on_c, 1, 78, 0
1, 33120, Note_on_c, 1, 78, 51
1, 33120, Note_on_c, 5, 57, 51
1, 33215, Note_on_c, 5, 57, 0
1, 33240, Note_on_c, 3, 62, 51
1, 33335, Note_on_c, 3, 62, 0
1, 33360, Note_on_c, 5, 59, 51
1, 33455, Note_on_c, 5, 59, 0
1, 33480, Note_on_c, 3, 62, 51
1, 33575, Note_on_c, 3, 62, 0
1, 33600, Note_on_c, 1, 78, 0
1, 33600, Note_on_c, 5, 60, 51
1, 33695, Note_on_c, 5, 60, 0
1, 33720, Note_on_c, 3, 62, 50
1, 33815, Note_on_c, 3, 62, 0
1, 33840, Note_on_c, 5, 59, 50
1, 33935, Note_on_c, 5, 59, 0
1, 33960, Note_on_c, 3, 62, 50
1, 34055, Note_on_c, 3, 62, 0
1, 34080, Note_on_c, 5, 60, 50
1, 34175, Note_on_c, 5, 60, 0
1, 34200, Note_on_c, 3, 62, 50
1, 34295, Note_on_c, 3, 62, 0
1, 34320, Note_on_c, 5, 57, 50
1, 34415, Note_on_c, 5, 57, 0
1, 34440, Note_on_c, 3, 62, 50
1, 34520, Tempo, 379746
1, 34535, Note_on_c, 3, 62, 0
1, 34560, Tempo, 377358
1, 34560, Note_on_c, 1, 86, 85
1, 34680, Note_on_c, 5, 59, 85
1, 34775, Note_on_c, 5, 59, 0
1, 34800, Note_on_c, 5, 62, 85
1, 34895, Note_on_c, 5, 62, 0
1, 34920, Note_on_c, 5, 67, 85
1, 34927, Note_on_c, 1, 86, 0
1, 35015, Note_on_c, 5, 67, 0
1, 35040, Note_on_c, 5, 71, 84
1, 35160, Note_on_c, 1, 86, 84
1, 35255, Note_on_c, 1, 86, 0
1, 35280, Note_on_c, 1, 83, 84
1, 35375, Note_on_c, 1, 83, 0
1, 35400, Note_on_c, 1, 79, 83
1, 35400, Note_on_c, 5, 71, 0
1, 35495, Note_on_c, 1, 79, 0
1, 35520, Note_on_c, 1, 76, 83
1, 35640, Note_on_c, 5, 60, 83
1, 35735, Note_on_c, 5, 60, 0
1, 35760, Note_on_c, 5, 64, 82
1, 35855, Note_on_c, 5, 64, 0
1, 35880, Note_on_c, 5, 67, 82
1, 35887, Note_on_c, 1, 76, 0
1, 35975, Note_on_c, 5, 67, 0
1, 36000, Note_on_c, 5, 72, 82
1, 36120, Note_on_c, 1, 76, 82
1, 36215, Note_on_c, 1, 76, 0
1, 36240, Note_on_c, 1, 79, 81
1, 36335, Note_on_c, 1, 79, 0
1, 36360, Note_on_c, 1, 76, 81
1, 36367, Note_on_c, 5, 72, 0
1, 36455, Note_on_c, 1, 76, 0
1, 36480, Note_on_c, 1, 84, 81
1, 36600, Note_on_c, 5, 57, 80
1, 36695, Note_on_c, 5, 57, 0
1, 36720, Note_on_c, 5, 60, 80
1, 36815, Note_on_c, 5, 60, 0
1, 36840, Note_on_c, 5, 66, 80
1, 36847, Note_on_c, 1, 84, 0
1, 36935, Note_on_c, 5, 66, 0
1, 36960, Note_on_c, 5, 69, 79
1, 37080, Note_on_c, 1, 84, 79
1, 37175, Note_on_c, 1, 84, 0
1, 37200, Note_on_c, 1, 81, 79
1, 37295, Note_on_c, 1, 81, 0
1, 37320, Note_on_c, 1, 78, 78
1, 37327, Note_on_c, 5, 69, 0
1, 37415, Note_on_c, 1, 78, 0
1, 37440, Note_on_c, 1, 74, 78
1, 37560, Note_on_c, 5, 59, 78
1, 37655, Note_on_c, 5, 59, 0
1, 37680, Note_on_c, 5, 62, 78
1, 37775, Note_on_c, 5, 62, 0
1, 37800, Note_on_c, 1, 74, 0
1, 37800, Note_on_c, 5, 66, 77
1, 37895, Note_on_c, 5, 66, 0
1, 37920, Note_on_c, 5, 71, 77
1, 38040, Note_on_c, 1, 74, 77
1, 38135, Note_on_c, 1, 74, 0
1, 38160, Note_on_c, 1, 78, 76
1, 38255, Note_on_c, 1, 78, 0
1, 38280, Note_on_c, 1, 74, 76
1, 38287, Note_on_c, 5, 71, 0
1, 38375, Note_on_c, 1, 74, 0
1, 38400, Note_on_c, 1, 83, 76
1, 38520, Note_on_c, 5, 55, 75
1, 38615, Note_on_c, 5, 55, 0
1, 38640, Note_on_c, 5, 59, 75
1, 38735, Note_on_c, 5, 59, 0
1, 38760, Note_on_c, 1, 83, 0
1, 38760, Note_on_c, 5, 64, 75
1, 38855, Note_on_c, 5, 64, 0
1, 38880, Note_on_c, 5, 67, 74
1, 39000, Note_on_c, 1, 83, 74
1, 39095, Note_on_c, 1, 83, 0
1, 39120, Note_on_c, 1, 79, 74
1, 39215, Note_on_c, 1, 79, 0
1, 39240, Note_on_c, 1, 76, 74
1, 39240, Note_on_c, 5, 67, 0
1, 39335, Note_on_c, 1, 76, 0
1, 39360, Note_on_c, 1, 72, 73
1, 39480, Note_on_c, 5, 57, 73
1, 39575, Note_on_c, 5, 57, 0
1, 39600, Note_on_c, 5, 60, 73
1, 39695, Note_on_c, 5, 60, 0
1, 39720, Note_on_c, 5, 64, 72
1, 39727, Note_on_c, 1, 72, 0
1, 39815, Note_on_c, 5, 64, 0
1, 39840, Note_on_c, 5, 69, 72
1, 39960, Note_on_c, 1, 72, 72
1, 40055, Note_on_c, 1, 72, 0
1, 40080, Note_on_c, 1, 76, 71
1, 40175, Note_on_c, 1, 76, 0
1, 40200, Note_on_c, 1, 72, 71
1, 40207, Note_on_c, 5, 69, 0
1, 40295, Note_on_c, 1, 72, 0
1, 40320, Note_on_c, 1, 81, 71
1, 40440, Note_on_c, 5, 54, 70
1, 40535, Note_on_c, 5, 54, 0
1, 40560, Note_on_c, 5, 57, 70
1, 40655, Note_on_c, 5, 57, 0
1, 40680, Note_on_c, 5, 62, 70
1, 40687, Note_on_c, 1, 81, 0
1, 40775, Note_on_c, 5, 62, 0
1, 40800, Note_on_c, 5, 66, 70
1, 40920, Note_on_c, 1, 81, 69
1, 41015, Note_on_c, 1, 81, 0
1, 41040, Note_on_c, 1, 78, 69
1, 41135, Note_on_c, 1, 78, 0
1, 41160, Note_on_c, 1, 74, 69
1, 41167, Note_on_c, 5, 66, 0
1, 41255, Note_on_c, 1, 74, 0
1, 41280, Note_on_c, 1, 71, 68
1, 41400, Note_on_c, 5, 55, 68
1, 41495, Note_on_c, 5, 55, 0
1, 41520, Note_on_c, 5, 59, 68
1, 41615, Note_on_c, 5, 59, 0
1, 41640, Note_on_c, 5, 62, 67
1, 41647, Note_on_c, 1, 71, 0
1, 41735, Note_on_c, 5, 62, 0
1, 41760, Note_on_c, 5, 67, 67
1, 41880, Note_on_c, 1, 79, 67
1, 41975, Note_on_c, 1, 79, 0
1, 42000, Note_on_c, 1, 74, 66
1, 42095, Note_on_c, 1, 74, 0
1, 42120, Note_on_c, 1, 71, 66
1, 42127, Note_on_c, 5, 67, 0
1, 42200, Tempo, 379746
1, 42215, Note_on_c, 1, 71, 0
1, 42240, Tempo, 377358
1, 42240, Note_on_c, 1, 69, 66
1, 42240, Note_on_c, 3, 64, 66
1, 42240, Note_on_c, 4, 60, 66
1, 42430, Note_on_c, 3, 64, 0
1, 42430, Note_on_c, 4, 60, 0
1, 42480, Note_on_c, 3, 64, 58
1, 42480, Note_on_c, 4, 60, 58
1, 42670, Note_on_c, 3, 64, 0
1, 42670, Note_on_c, 4, 60, 0
1, 42720, Note_on_c, 3, 64, 59
1, 42720, Note_on_c, 4, 60, 59
1, 42910, Note_on_c, 3, 64, 0
1, 42910, Note_on_c, 4, 60, 0
1, 42960, Note_on_c, 3, 64, 61
1, 42960, Note_on_c, 4, 60, 61
1, 43150, Note_on_c, 3, 64, 0
1, 43150, Note_on_c, 4, 60, 0
1, 43200, Note_on_c, 1, 69, 0
1, 43200, Note_on_c, 1, 71, 62
1, 43200, Note_on_c, 3, 64, 62
1, 43200, Note_on_c, 4, 60, 62
1, 43260, Note_on_c, 1, 72, 62
1, 43320, Note_on_c, 1, 71, 0
1, 43390, Note_on_c, 3, 64, 0
1, 43390, Note_on_c, 4, 60, 0
1, 43440, Note_on_c, 3, 64, 63
1, 43440, Note_on_c, 4, 60, 63
1, 43630, Note_on_c, 3, 64, 0
1, 43630, Note_on_c, 4, 60, 0
1, 43680, Note_on_c, 1, 72, 0
1, 43680, Note_on_c, 1, 75, 64
1, 43680, Note_on_c, 3, 64, 64
1, 43680, Note_on_c, 4, 60, 64
1, 43740, Note_on_c, 1, 76, 65
1, 43800, Note_on_c, 1, 75, 0
1, 43870, Note_on_c, 3, 64, 0
1, 43870, Note_on_c, 4, 60, 0
1, 43920, Note_on_c, 3, 64, 65
1, 43920, Note_on_c, 4, 60, 65
1, 44110, Note_on_c, 3, 64, 0
1, 44110, Note_on_c, 4, 60, 0
1, 44160, Note_on_c, 1, 76, 0
1, 44160, Note_on_c, 1, 80, 67
1, 44160, Note_on_c, 3, 64, 67
1, 44160, Note_on_c, 4, 60, 67
1, 44220, Note_on_c, 1, 81, 67
1, 44280, Note_on_c, 1, 80, 0
1, 44350, Note_on_c, 3, 64, 0
1, 44350, Note_on_c, 4, 60, 0
1, 44400, Note_on_c, 3, 64, 68
1, 44400, Note_on_c, 4, 60, 68
1, 44590, Note_on_c, 3, 64, 0
1, 44590, Note_on_c, 4, 60, 0
1, 44640, Note_on_c, 3, 64, 69
1, 44640, Note_on_c, 4, 60, 69
1, 44830, Note_on_c, 3, 64, 0
1, 44830, Note_on_c, 4, 60, 0
1, 44880, Note_on_c, 1, 83, 70
1, 44880, Note_on_c, 3, 64, 70
1, 44880, Note_on_c, 4, 60, 70
1, 44885, Note_on_c, 1, 81, 0
1, 44940, Note_on_c, 1, 83, 0
1, 44940, Note_on_c, 1, 81, 70
1, 45000, Note_on_c, 1, 81, 0
1, 45000, Note_on_c, 1, 80, 71
1, 45060, Note_on_c, 1, 80, 0
1, 45060, Note_on_c, 1, 81, 71
1, 45070, Note_on_c, 3, 64, 0
1, 45070, Note_on_c, 4, 60, 0
1, 45120, Note_on_c, 1, 81, 0
1, 45120, Note_on_c, 1, 84, 71
1, 45120, Note_on_c, 3, 64, 71
1, 45120, Note_on_c, 4, 60, 71
1, 45310, Note_on_c, 3, 64, 0
1, 45310, Note_on_c, 4, 60, 0
1, 45360, Note_on_c, 1, 84, 0
1, 45360, Note_on_c, 1, 81, 73
1, 45360, Note_on_c, 3, 64, 73
1, 45360, Note_on_c, 4, 60, 73
1, 45550, Note_on_c, 1, 81, 0
1, 45550, Note_on_c, 3, 64, 0
1, 45550, Note_on_c, 4, 60, 0
1, 45600, Note_on_c, 1, 84, 74
1, 45600, Note_on_c, 3, 64, 74
1, 45600, Note_on_c, 4, 60, 74
1, 45790, Note_on_c, 3, 64, 0
1, 45790, Note_on_c, 4, 60, 0
1, 45840, Note_on_c, 1, 84, 0
1, 45840, Note_on_c, 1, 81, 75
1, 45840, Note_on_c, 3, 64, 75
1, 45840, Note_on_c, 4, 60, 75
1, 46030, Note_on_c, 1, 81, 0
1, 46030, Note_on_c, 3, 64, 0
1, 46030, Note_on_c, 4, 60, 0
1, 46040, Tempo, 379746
1, 46080, Tempo, 377358
1, 46080, Note_on_c, 1, 83, 76
1, 46080, Note_on_c, 5, 62, 76
1, 46175, Note_on_c, 5, 62, 0
1, 46200, Note_on_c, 3, 71, 77
1, 46295, Note_on_c, 3, 71, 0
1, 46320, Note_on_c, 1, 83, 0
1, 46320, Note_on_c, 1, 79, 77
1, 46320, Note_on_c, 3, 67, 77
1, 46415, Note_on_c, 3, 67, 0
1, 46440, Note_on_c, 3, 71, 78
1, 46510, Note_on_c, 1, 79, 0
1, 46535, Note_on_c, 3, 71, 0
1, 46560, Note_on_c, 1, 86, 78
1, 46560, Note_on_c, 5, 62, 78
1, 46655, Note_on_c, 5, 62, 0
1, 46680, Note_on_c, 3, 71, 79
1, 46775, Note_on_c, 3, 71, 0
1, 46800, Note_on_c, 3, 67, 80
1, 46895, Note_on_c, 3, 67, 0
1, 46920, Note_on_c, 3, 71, 80
1, 47015, Note_on_c, 3, 71, 0
1, 47040, Note_on_c, 5, 62, 81
1, 47135, Note_on_c, 5, 62, 0
1, 47160, Note_on_c, 3, 71, 81
1, 47255, Note_on_c, 3, 71, 0
1, 47280, Note_on_c, 3, 67, 82
1, 47375, Note_on_c, 3, 67, 0
1, 47400, Note_on_c, 3, 71, 83
1, 47495, Note_on_c, 3, 71, 0
1, 47520, Note_on_c, 1, 86, 0
1, 47520, Note_on_c, 1, 84, 83
1, 47520, Note_on_c, 5, 62, 83
1, 47615, Note_on_c, 5, 62, 0
1, 47640, Note_on_c, 1, 84, 0
1, 47640, Note_on_c, 1, 83, 84
1, 47640, Note_on_c, 3, 71, 84
1, 47735, Note_on_c, 3, 71, 0
1, 47760, Note_on_c, 1, 83, 0
1, 47760, Note_on_c, 1, 81, 84
1, 47760, Note_on_c, 3, 67, 84
1, 47855, Note_on_c, 3, 67, 0
1, 47880, Note_on_c, 1, 81, 0
1, 47880, Note_on_c, 1, 79, 85
1, 47880, Note_on_c, 3, 71, 85
1, 47950, Tempo, 379746
1, 47975, Note_on_c, 3, 71, 0
1, 47976, Note_on_c, 1, 79, 0
1, 48000, Note_on_c, 1, 81, 84
1, 48000, Note_on_c, 5, 62, 84
1, 48080, Note_on_c, 1, 81, 0
1, 48080, Note_on_c, 2, 83, 84
1, 48095, Note_on_c, 5, 62, 0
1, 48120, Note_on_c, 3, 72, 84
1, 48160, Note_on_c, 2, 83, 0
1, 48160, Note_on_c, 2, 81, 84
1, 48215, Note_on_c, 3, 72, 0
1, 48240, Note_on_c, 2, 81, 0
1, 48240, Note_on_c, 2, 83, 85
1, 48240, Note_on_c, 3, 66, 85
1, 48320, Note_on_c, 2, 83, 0
1, 48320, Note_on_c, 2, 81, 85
1, 48335, Note_on_c, 3, 66, 0
1, 48360, Note_on_c, 3, 72, 85
1, 48400, Note_on_c, 2, 81, 0
1, 48400, Note_on_c, 2, 83, 85
1, 48455, Note_on_c, 3, 72, 0
1, 48480, Note_on_c, 2, 83, 0
1, 48480, Note_on_c, 2, 81, 86
1, 48480, Note_on_c, 5, 62, 86
1, 48560, Note_on_c, 2, 81, 0
1, 48560, Note_on_c, 2, 83, 86
1, 48575, Note_on_c, 5, 62, 0
1, 48600, Note_on_c, 3, 72, 86
1, 48640, Note_on_c, 2, 83, 0
1, 48640, Note_on_c, 2, 81, 86
1, 48695, Note_on_c, 3, 72, 0
1, 48720, Note_on_c, 2, 81, 0
1, 48720, Note_on_c, 2, 83, 86
1, 48720, Note_on_c, 3, 66, 86
1, 48800, Note_on_c, 2, 83, 0
1, 48800, Note_on_c, 2, 81, 87
1, 48815, Note_on_c, 3, 66, 0
1, 48840, Note_on_c, 3, 72, 87
1, 48880, Note_on_c, 2, 81, 0
1, 48880, Note_on_c, 2, 83, 87
1, 48935, Note_on_c, 3, 72, 0
1, 48960, Note_on_c, 2, 83, 0
1, 48960, Note_on_c, 2, 81, 87
1, 48960, Note_on_c, 5, 62, 87
1, 49040, Note_on_c, 2, 81, 0
1, 49040, Note_on_c, 2, 83, 88
1, 49055, Note_on_c, 5, 62, 0
1, 49080, Note_on_c, 3, 72, 88
1, 49120, Note_on_c, 2, 83, 0
1, 49120, Note_on_c, 2, 81, 88
1, 49175, Note_on_c, 3, 72, 0
1, 49200, Note_on_c, 2, 81, 0
1, 49200, Note_on_c, 2, 83, 88
1, 49200, Note_on_c, 3, 66, 88
1, 49280, Note_on_c, 2, 83, 0
1, 49280, Note_on_c, 2, 81, 89
1, 49295, Note_on_c, 3, 66, 0
1, 49320, Note_on_c, 3, 72, 89
1, 49360, Note_on_c, 2, 81, 0
1, 49360, Note_on_c, 2, 83, 89
1, 49415, Note_on_c, 3, 72, 0
1, 49440, Note_on_c, 2, 83, 0
1, 49440, Note_on_c, 2, 81, 89
1, 49440, Note_on_c, 5, 62, 89
1, 49520, Note_on_c, 2, 81, 0
1, 49520, Note_on_c, 2, 83, 90
1, 49535, Note_on_c, 5, 62, 0
1, 49560, Note_on_c, 3, 72, 90
1, 49600, Note_on_c, 2, 83, 0
1, 49600, Note_on_c, 2, 81, 90
1, 49655, Note_on_c, 3, 72, 0
1, 49680, Note_on_c, 2, 81, 0
1, 49680, Note_on_c, 2, 79, 90
1, 49680, Note_on_c, 3, 66, 90
1, 49775, Note_on_c, 3, 66, 0
1, 49800, Note_on_c, 2, 79, 0
1, 49800, Note_on_c, 2, 81, 91
1, 49800, Note_on_c, 3, 72, 91
1, 49850, Tempo, 384615
1, 49895, Note_on_c, 3, 72, 0
1, 49896, Note_on_c, 2, 81, 0
1, 49920, Tempo, 377358
1, 49920, Note_on_c, 1, 79, 93
1, 49920, Note_on_c, 4, 71, 93
1, 49920, Note_on_c, 5, 67, 93
1, 50305, Note_on_c, 1, 79, 0
1, 50305, Note_on_c, 4, 71, 0
1, 50305, Note_on_c, 5, 67, 0
1, 50400, Note_on_c, 1, 79, 91
1, 50495, Note_on_c, 1, 79, 0
1, 50520, Note_on_c, 1, 74, 91
1, 50615, Note_on_c, 1, 74, 0
1, 50640, Note_on_c, 1, 79, 90
1, 50735, Note_on_c, 1, 79, 0
1, 50760, Note_on_c, 1, 83, 90
1, 50855, Note_on_c, 1, 83, 0
1, 50880, Note_on_c, 1, 86, 89
1, 50975, Note_on_c, 1, 86, 0
1, 51000, Note_on_c, 1, 83, 89
1, 51095, Note_on_c, 1, 83, 0
1, 51120, Note_on_c, 1, 79, 89
1, 51215, Note_on_c, 1, 79, 0
1, 51240, Note_on_c, 1, 83, 88
1, 51335, Note_on_c, 1, 83, 0
1, 51360, Note_on_c, 1, 84, 88
1, 51360, Note_on_c, 4, 72, 88
1, 51360, Note_on_c, 4, 69, 88
1, 51360, Note_on_c, 5, 62, 88
1, 51455, Note_on_c, 1, 84, 0
1, 51480, Note_on_c, 1, 81, 87
1, 51575, Note_on_c, 1, 81, 0
1, 51600, Note_on_c, 1, 78, 87
1, 51695, Note_on_c, 1, 78, 0
1, 51720, Note_on_c, 1, 81, 86
1, 51745, Note_on_c, 4, 69, 0
1, 51745, Note_on_c, 4, 72, 0
1, 51745, Note_on_c, 5, 62, 0
1, 51800, Tempo, 379746
1, 51815, Note_on_c, 1, 81, 0
1, 51840, Tempo, 377358
1, 51840, Note_on_c, 1, 79, 86
1, 51840, Note_on_c, 4, 71, 86
1, 51840, Note_on_c, 5, 67, 86
1, 52225, Note_on_c, 1, 79, 0
1, 52225, Note_on_c, 4, 71, 0
1, 52225, Note_on_c, 5, 67, 0
1, 52320, Note_on_c, 1, 67, 84
1, 52415, Note_on_c, 1, 67, 0
1, 52440, Note_on_c, 1, 62, 83
1, 52535, Note_on_c, 1, 62, 0
1, 52560, Note_on_c, 1, 67, 83
1, 52655, Note_on_c, 1, 67, 0
1, 52680, Note_on_c, 1, 71, 82
1, 52775, Note_on_c, 1, 71, 0
1, 52800, Note_on_c, 1, 74, 82
1, 52895, Note_on_c, 1, 74, 0
1, 52920, Note_on_c, 1, 71, 81
1, 53015, Note_on_c, 1, 71, 0
1, 53040, Note_on_c, 1, 67, 81
1, 53135, Note_on_c, 1, 67, 0
1, 53160, Note_on_c, 1, 71, 80
1, 53255, Note_on_c, 1, 71, 0
1, 53280, Note_on_c, 1, 72, 80
1, 53280, Note_on_c, 4, 60, 80
1, 53280, Note_on_c, 4, 57, 80
1, 53280, Note_on_c, 5, 50, 80
1, 53375, Note_on_c, 1, 72, 0
1, 53400, Note_on_c, 1, 69, 79
1, 53495, Note_on_c, 1, 69, 0
1, 53520, Note_on_c, 1, 66, 79
1, 53615, Note_on_c, 1, 66, 0
1, 53640, Note_on_c, 1, 69, 78
1, 53655, Tempo, 384615
1, 53665, Note_on_c, 4, 57, 0
1, 53665, Note_on_c, 4, 60, 0
1, 53665, Note_on_c, 5, 50, 0
1, 53735, Note_on_c, 1, 69, 0
1, 53760, Tempo, 389610
1, 53760, Note_on_c, 1, 67, 78
1, 53760, Note_on_c, 4, 59, 78
1, 53760, Note_on_c, 5, 55, 78
1, 54070, Note_on_c, 1, 67, 0
1, 54070, Note_on_c, 4, 59, 0
1, 54070, Note_on_c, 5, 55, 0
1, 54240, Note_on_c, 1, 83, 76
1, 54240, Note_on_c, 2, 74, 76
1, 54240, Note_on_c, 5, 55, 76
1, 54240, Note_on_c, 5, 43, 76
1, 54550, Note_on_c, 1, 83, 0
1, 54550, Note_on_c, 2, 74, 0
1, 54550, Note_on_c, 5, 43, 0
1, 54550, Note_on_c, 5, 55, 0
1, 54615, Tempo, 394736
1, 54720, Note_on_c, 1, 79, 74
1, 54720, Note_on_c, 2, 71, 74
1, 54720, Note_on_c, 5, 43, 74
1, 54720, Note_on_c, 5, 55, 74
1, 55027, Note_on_c, 2, 71, 0
1, 55030, Note_on_c, 1, 79, 0
1, 55087, Note_on_c, 5, 55, 0
1, 55087, Note_on_c, 5, 43, 0
1, 55215, Tempo, 400000
1, 55680, Tempo, 377358
1, 55680, Note_on_c, 1, 67, 82
1, 55680, Note_on_c, 5, 55, 95
1, 55680, Note_on_c, 5, 43, 95
1, 56065, Note_on_c, 1, 67, 0
1, 56065, Note_on_c, 5, 43, 0
1, 56065, Note_on_c, 5, 55, 0
1, 56160, Note_on_c, 1, 79, 85
1, 56255, Note_on_c, 1, 79, 0
1, 56280, Note_on_c, 1, 74, 85
1, 56375, Note_on_c, 1, 74, 0
1, 56400, Note_on_c, 1, 79, 85
1, 56495, Note_on_c, 1, 79, 0
1, 56520, Note_on_c, 1, 82, 85
1, 56615, Note_on_c, 1, 82, 0
1, 56640, Note_on_c, 1, 86, 84
1, 56735, Note_on_c, 1, 86, 0
1, 56760, Note_on_c, 1, 82, 84
1, 56855, Note_on_c, 1, 82, 0
1, 56880, Note_on_c, 1, 79, 84
1, 56975, Note_on_c, 1, 79, 0
1, 57000, Note_on_c, 1, 82, 84
1, 57095, Note_on_c, 1, 82, 0
1, 57120, Note_on_c, 1, 84, 84
1, 57120, Note_on_c, 4, 72, 84
1, 57120, Note_on_c, 4, 69, 84
1, 57120, Note_on_c, 5, 62, 84
1, 57215, Note_on_c, 1, 84, 0
1, 57240, Note_on_c, 1, 81, 83
1, 57335, Note_on_c, 1, 81, 0
1, 57360, Note_on_c, 1, 78, 83
1, 57455, Note_on_c, 1, 78, 0
1, 57480, Note_on_c, 1, 81, 83
1, 57505, Note_on_c, 4, 69, 0
1, 57505, Note_on_c, 4, 72, 0
1, 57505, Note_on_c, 5, 62, 0
1, 57575, Note_on_c, 1, 81, 0
1, 57600, Note_on_c, 1, 79, 83
1, 57600, Note_on_c, 4, 70, 83
1, 57600, Note_on_c, 5, 67, 83
1, 57985, Note_on_c, 1, 79, 0
1, 57985, Note_on_c, 4, 70, 0
1, 57985, Note_on_c, 5, 67, 0
1, 58080, Note_on_c, 1, 67, 82
1, 58175, Note_on_c, 1, 67, 0
1, 58200, Note_on_c, 1, 62, 82
1, 58295, Note_on_c, 1, 62, 0
1, 58320, Note_on_c, 1, 67, 82
1, 58415, Note_on_c, 1, 67, 0
1, 58440, Note_on_c, 1, 70, 82
1, 58535, Note_on_c, 1, 70, 0
1, 58560, Note_on_c, 1, 74, 82
1, 58655, Note_on_c, 1, 74, 0
1, 58680, Note_on_c, 1, 70, 81
1, 58775, Note_on_c, 1, 70, 0
1, 58800, Note_on_c, 1, 67, 81
1, 58895, Note_on_c, 1, 67, 0
1, 58920, Note_on_c, 1, 70, 81
1, 59015, Note_on_c, 1, 70, 0
1, 59040, Note_on_c, 1, 72, 81
1, 59040, Note_on_c, 4, 60, 81
1, 59040, Note_on_c, 5, 57, 81
1, 59135, Note_on_c, 1, 72, 0
1, 59160, Note_on_c, 1, 69, 81
1, 59255, Note_on_c, 1, 69, 0
1, 59280, Note_on_c, 1, 66, 81
1, 59375, Note_on_c, 1, 66, 0
1, 59400, Note_on_c, 1, 69, 80
1, 59425, Note_on_c, 4, 60, 0
1, 59425, Note_on_c, 5, 57, 0
1, 59480, Tempo, 379746
1, 59495, Note_on_c, 1, 69, 0
1, 59520, Tempo, 377358
1, 59520, Note_on_c, 1, 67, 80
1, 59640, Note_on_c, 5, 43, 80
1, 59735, Note_on_c, 5, 43, 0
1, 59760, Note_on_c, 5, 45, 80
1, 59855, Note_on_c, 5, 45, 0
1, 59880, Note_on_c, 1, 67, 0
1, 59880, Note_on_c, 5, 46, 80
1, 59975, Note_on_c, 5, 46, 0
1, 60000, Note_on_c, 5, 48, 80
1, 60095, Note_on_c, 5, 48, 0
1, 60120, Note_on_c, 5, 50, 79
1, 60215, Note_on_c, 5, 50, 0
1, 60240, Note_on_c, 5, 52, 79
1, 60335, Note_on_c, 5, 52, 0
1, 60360, Note_on_c, 5, 54, 79
1, 60455, Note_on_c, 5, 54, 0
1, 60480, Note_on_c, 5, 55, 79
1, 60600, Note_on_c, 1, 79, 79
1, 60695, Note_on_c, 1, 79, 0
1, 60720, Note_on_c, 1, 82, 79
1, 60815, Note_on_c, 1, 82, 0
1, 60840, Note_on_c, 1, 81, 78
1, 60840, Note_on_c, 5, 55, 0
1, 60935, Note_on_c, 1, 81, 0
1, 60960, Note_on_c, 1, 79, 78
1, 61055, Note_on_c, 1, 79, 0
1, 61080, Note_on_c, 1, 77, 78
1, 61175, Note_on_c, 1, 77, 0
1, 61200, Note_on_c, 1, 76, 78
1, 61295, Note_on_c, 1, 76, 0
1, 61320, Note_on_c, 1, 74, 78
1, 61415, Note_on_c, 1, 74, 0
1, 61440, Note_on_c, 1, 73, 78
1, 61560, Note_on_c, 5, 45, 77
1, 61655, Note_on_c, 5, 45, 0
1, 61680, Note_on_c, 5, 47, 77
1, 61775, Note_on_c, 5, 47, 0
1, 61800, Note_on_c, 5, 49, 77
1, 61807, Note_on_c, 1, 73, 0
1, 61895, Note_on_c, 5, 49, 0
1, 61920, Note_on_c, 5, 50, 77
1, 62015, Note_on_c, 5, 50, 0
1, 62040, Note_on_c, 5, 52, 77
1, 62135, Note_on_c, 5, 52, 0
1, 62160, Note_on_c, 5, 54, 77
1, 62255, Note_on_c, 5, 54, 0
1, 62280, Note_on_c, 5, 56, 76
1, 62375, Note_on_c, 5, 56, 0
1, 62400, Note_on_c, 5, 57, 76
1, 62520, Note_on_c, 1, 85, 76
1, 62615, Note_on_c, 1, 85, 0
1, 62640, Note_on_c, 1, 88, 76
1, 62735, Note_on_c, 1, 88, 0
1, 62760, Note_on_c, 1, 86, 76
1, 62760, Note_on_c, 5, 57, 0
1, 62855, Note_on_c, 1, 86, 0
1, 62880, Note_on_c, 1, 85, 75
1, 62975, Note_on_c, 1, 85, 0
1, 63000, Note_on_c, 1, 82, 75
1, 63095, Note_on_c, 1, 82, 0
1, 63120, Note_on_c, 1, 81, 75
1, 63215, Note_on_c, 1, 81, 0
1, 63240, Note_on_c, 1, 79, 75
1, 63320, Tempo, 384615
1, 63335, Note_on_c, 1, 79, 0
1, 63360, Tempo, 377358
1, 63360, Note_on_c, 1, 77, 88
1, 63360, Note_on_c, 5, 50, 88
1, 63360, Note_on_c, 5, 38, 88
1, 63727, Note_on_c, 1, 77, 0
1, 63745, Note_on_c, 5, 38, 0
1, 63745, Note_on_c, 5, 50, 0
1, 63840, Note_on_c, 1, 74, 74
1, 63935, Note_on_c, 1, 74, 0
1, 63960, Note_on_c, 1, 69, 74
1, 64055, Note_on_c, 1, 69, 0
1, 64080, Note_on_c, 1, 74, 74
1, 64175, Note_on_c, 1, 74, 0
1, 64200, Note_on_c, 1, 77, 74
1, 64295, Note_on_c, 1, 77, 0
1, 64320, Note_on_c, 1, 81, 73
1, 64415, Note_on_c, 1, 81, 0
1, 64440, Note_on_c, 1, 77, 73
1, 64535, Note_on_c, 1, 77, 0
1, 64560, Note_on_c, 1, 74, 73
1, 64655, Note_on_c, 1, 74, 0
1, 64680, Note_on_c, 1, 77, 73
1, 64775, Note_on_c, 1, 77, 0
1, 64800, Note_on_c, 1, 79, 73
1, 64800, Note_on_c, 4, 64, 73
1, 64800, Note_on_c, 4, 67, 73
1, 64800, Note_on_c, 5, 57, 73
1, 64895, Note_on_c, 1, 79, 0
1, 64920, Note_on_c, 1, 76, 73
1, 65015, Note_on_c, 1, 76, 0
1, 65040, Note_on_c, 1, 73, 72
1, 65135, Note_on_c, 1, 73, 0
1, 65160, Note_on_c, 1, 76, 72
1, 65185, Note_on_c, 4, 64, 0
1, 65185, Note_on_c, 4, 67, 0
1, 65185, Note_on_c, 5, 57, 0
1, 65255, Note_on_c, 1, 76, 0
1, 65280, Note_on_c, 1, 74, 72
1, 65280, Note_on_c, 4, 65, 72
1, 65280, Note_on_c, 5, 62, 72
1, 65647, Note_on_c, 1, 74, 0
1, 65665, Note_on_c, 4, 65, 0
1, 65665, Note_on_c, 5, 62, 0
1, 65760, Note_on_c, 1, 62, 71
1, 65855, Note_on_c, 1, 62, 0
1, 65880, Note_on_c, 1, 57, 71
1, 65975, Note_on_c, 1, 57, 0
1, 66000, Note_on_c, 1, 62, 71
1, 66095, Note_on_c, 1, 62, 0
1, 66120, Note_on_c, 1, 65, 71
1, 66215, Note_on_c, 1, 65, 0
1, 66240, Note_on_c, 1, 69, 71
1, 66335, Note_on_c, 1, 69, 0
1, 66360, Note_on_c, 1, 65, 71
1, 66455, Note_on_c, 1, 65, 0
1, 66480, Note_on_c, 1, 62, 70
1, 66575, Note_on_c, 1, 62, 0
1, 66600, Note_on_c, 1, 65, 70
1, 66695, Note_on_c, 1, 65, 0
1, 66720, Note_on_c, 1, 67, 70
1, 66720, Note_on_c, 4, 52, 70
1, 66720, Note_on_c, 4, 55, 70
1, 66720, Note_on_c, 5, 45, 70
1, 66815, Note_on_c, 1, 67, 0
1, 66840, Note_on_c, 1, 64, 70
1, 66935, Note_on_c, 1, 64, 0
1, 66960, Note_on_c, 1, 61, 70
1, 67055, Note_on_c, 1, 61, 0
1, 67080, Note_on_c, 1, 64, 70
1, 67105, Note_on_c, 4, 55, 0
1, 67105, Note_on_c, 4, 52, 0
1, 67105, Note_on_c, 5, 45, 0
1, 67160, Tempo, 379746
1, 67175, Note_on_c, 1, 64, 0
1, 67200, Tempo, 377358
1, 67200, Note_on_c, 4, 53, 69
1, 67200, Note_on_c, 5, 50, 69
1, 67320, Note_on_c, 1, 62, 69
1, 67415, Note_on_c, 1, 62, 0
1, 67440, Note_on_c, 1, 64, 69
1, 67535, Note_on_c, 1, 64, 0
1, 67560, Note_on_c, 1, 65, 69
1, 67585, Note_on_c, 4, 53, 0
1, 67585, Note_on_c, 5, 50, 0
1, 67655, Note_on_c, 1, 65, 0
1, 67680, Note_on_c, 1, 67, 69
1, 67775, Note_on_c, 1, 67, 0
1, 67800, Note_on_c, 1, 69, 69
1, 67895, Note_on_c, 1, 69, 0
1, 67920, Note_on_c, 1, 71, 68
1, 68015, Note_on_c, 1, 71, 0
1, 68040, Note_on_c, 1, 73, 68
1, 68135, Note_on_c, 1, 73, 0
1, 68160, Note_on_c, 1, 74, 68
1, 68280, Note_on_c, 5, 62, 68
1, 68375, Note_on_c, 5, 62, 0
1, 68400, Note_on_c, 5, 65, 68
1, 68495, Note_on_c, 5, 65, 0
1, 68520, Note_on_c, 1, 74, 0
1, 68520, Note_on_c, 5, 64, 67
1, 68615, Note_on_c, 5, 64, 0
1, 68640, Note_on_c, 5, 62, 67
1, 68735, Note_on_c, 5, 62, 0
1, 68760, Note_on_c, 5, 60, 67
1, 68855, Note_on_c, 5, 60, 0
1, 68880, Note_on_c, 5, 59, 67
1, 68975, Note_on_c, 5, 59, 0
1, 69000, Note_on_c, 5, 57, 67
1, 69095, Note_on_c, 5, 57, 0
1, 69120, Note_on_c, 5, 56, 67
1, 69240, Note_on_c, 1, 71, 66
1, 69335, Note_on_c, 1, 71, 0
1, 69360, Note_on_c, 1, 72, 66
1, 69455, Note_on_c, 1, 72, 0
1, 69480, Note_on_c, 1, 74, 66
1, 69487, Note_on_c, 5, 56, 0
1, 69575, Note_on_c, 1, 74, 0
1, 69600, Note_on_c, 1, 76, 66
1, 69695, Note_on_c, 1, 76, 0
1, 69720, Note_on_c, 1, 78, 66
1, 69815, Note_on_c, 1, 78, 0
1, 69840, Note_on_c, 1, 80, 66
1, 69935, Note_on_c, 1, 80, 0
1, 69960, Note_on_c, 1, 81, 65
1, 70055, Note_on_c, 1, 81, 0
1, 70080, Note_on_c, 1, 83, 65
1, 70200, Note_on_c, 5, 56, 65
1, 70295, Note_on_c, 5, 56, 0
1, 70320, Note_on_c, 5, 59, 65
1, 70415, Note_on_c, 5, 59, 0
1, 70440, Note_on_c, 5, 57, 65
1, 70447, Note_on_c, 1, 83, 0
1, 70535, Note_on_c, 5, 57, 0
1, 70560, Note_on_c, 5, 56, 65
1, 70655, Note_on_c, 5, 56, 0
1, 70680, Note_on_c, 5, 53, 64
1, 70775, Note_on_c, 5, 53, 0
1, 70800, Note_on_c, 5, 52, 64
1, 70895, Note_on_c, 5, 52, 0
1, 70920, Note_on_c, 5, 50, 64
1, 71015, Note_on_c, 5, 50, 0
1, 71040, Note_on_c, 5, 48, 64
1, 71160, Note_on_c, 1, 81, 64
1, 71255, Note_on_c, 1, 81, 0
1, 71280, Note_on_c, 1, 88, 64
1, 71375, Note_on_c, 1, 88, 0
1, 71400, Note_on_c, 1, 86, 63
1, 71400, Note_on_c, 5, 48, 0
1, 71495, Note_on_c, 1, 86, 0
1, 71520, Note_on_c, 1, 84, 63
1, 71615, Note_on_c, 1, 84, 0
1, 71640, Note_on_c, 1, 83, 63
1, 71735, Note_on_c, 1, 83, 0
1, 71760, Note_on_c, 1, 81, 63
1, 71855, Note_on_c, 1, 81, 0
1, 71880, Note_on_c, 1, 79, 63
1, 71975, Note_on_c, 1, 79, 0
1, 72000, Note_on_c, 1, 77, 63
1, 72120, Note_on_c, 5, 62, 62
1, 72215, Note_on_c, 5, 62, 0
1, 72240, Note_on_c, 5, 69, 62
1, 72335, Note_on_c, 5, 69, 0
1, 72360, Note_on_c, 5, 67, 62
1, 72367, Note_on_c, 1, 77, 0
1, 72455, Note_on_c, 5, 67, 0
1, 72480, Note_on_c, 5, 65, 62
1, 72575, Note_on_c, 5, 65, 0
1, 72600, Note_on_c, 5, 64, 62
1, 72695, Note_on_c, 5, 64, 0
1, 72720, Note_on_c, 5, 62, 62
1, 72815, Note_on_c, 5, 62, 0
1, 72840, Note_on_c, 5, 60, 61
1, 72935, Note_on_c, 5, 60, 0
1, 72960, Note_on_c, 5, 59, 61
1, 73080, Note_on_c, 1, 79, 61
1, 73175, Note_on_c, 1, 79, 0
1, 73200, Note_on_c, 1, 86, 61
1, 73295, Note_on_c, 1, 86, 0
1, 73320, Note_on_c, 1, 84, 61
1, 73320, Note_on_c, 5, 59, 0
1, 73415, Note_on_c, 1, 84, 0
1, 73440, Note_on_c, 1, 83, 61
1, 73535, Note_on_c, 1, 83, 0
1, 73560, Note_on_c, 1, 81, 60
1, 73655, Note_on_c, 1, 81, 0
1, 73680, Note_on_c, 1, 79, 60
1, 73775, Note_on_c, 1, 79, 0
1, 73800, Note_on_c, 1, 77, 60
1, 73895, Note_on_c, 1, 77, 0
1, 73920, Note_on_c, 1, 76, 60
1, 74040, Note_on_c, 5, 60, 60
1, 74135, Note_on_c, 5, 60, 0
1, 74160, Note_on_c, 5, 67, 59
1, 74255, Note_on_c, 5, 67, 0
1, 74280, Note_on_c, 1, 76, 0
1, 74280, Note_on_c, 5, 65, 59
1, 74375, Note_on_c, 5, 65, 0
1, 74400, Note_on_c, 5, 64, 59
1, 74495, Note_on_c, 5, 64, 0
1, 74520, Note_on_c, 5, 62, 59
1, 74615, Note_on_c, 5, 62, 0
1, 74640, Note_on_c, 5, 60, 59
1, 74735, Note_on_c, 5, 60, 0
1, 74760, Note_on_c, 5, 59, 59
1, 74855, Note_on_c, 5, 59, 0
1, 74880, Note_on_c, 5, 57, 58
1, 75000, Note_on_c, 1, 77, 58
1, 75095, Note_on_c, 1, 77, 0
1, 75120, Note_on_c, 1, 84, 58
1, 75215, Note_on_c, 1, 84, 0
1, 75240, Note_on_c, 1, 83, 58
1, 75240, Note_on_c, 5, 57, 0
1, 75335, Note_on_c, 1, 83, 0
1, 75360, Note_on_c, 1, 81, 58
1, 75455, Note_on_c, 1, 81, 0
1, 75480, Note_on_c, 1, 79, 58
1, 75575, Note_on_c, 1, 79, 0
1, 75600, Note_on_c, 1, 77, 57
1, 75695, Note_on_c, 1, 77, 0
1, 75720, Note_on_c, 1, 76, 57
1, 75815, Note_on_c, 1, 76, 0
1, 75840, Note_on_c, 1, 74, 57
1, 75960, Note_on_c, 5, 59, 57
1, 76055, Note_on_c, 5, 59, 0
1, 76080, Note_on_c, 5, 65, 57
1, 76175, Note_on_c, 5, 65, 0
1, 76200, Note_on_c, 5, 64, 57
1, 76207, Note_on_c, 1, 74, 0
1, 76295, Note_on_c, 5, 64, 0
1, 76320, Note_on_c, 5, 62, 56
1, 76415, Note_on_c, 5, 62, 0
1, 76440, Note_on_c, 5, 60, 56
1, 76535, Note_on_c, 5, 60, 0
1, 76560, Note_on_c, 5, 59, 56
1, 76655, Note_on_c, 5, 59, 0
1, 76680, Note_on_c, 5, 57, 56
1, 76775, Note_on_c, 5, 57, 0
1, 76800, Note_on_c, 5, 56, 56
1, 76920, Note_on_c, 1, 76, 56
1, 77015, Note_on_c, 1, 76, 0
1, 77040, Note_on_c, 1, 83, 55
1, 77135, Note_on_c, 1, 83, 0
1, 77160, Note_on_c, 1, 81, 55
1, 77160, Note_on_c, 5, 56, 0
1, 77255, Note_on_c, 1, 81, 0
1, 77280, Note_on_c, 1, 80, 55
1, 77375, Note_on_c, 1, 80, 0
1, 77400, Note_on_c, 1, 77, 55
1, 77495, Note_on_c, 1, 77, 0
1, 77520, Note_on_c, 1, 76, 55
1, 77615, Note_on_c, 1, 76, 0
1, 77640, Note_on_c, 1, 74, 55
1, 77735, Note_on_c, 1, 74, 0
1, 77760, Note_on_c, 1, 72, 54
1, 77880, Note_on_c, 5, 57, 54
1, 77975, Note_on_c, 5, 57, 0
1, 78000, Note_on_c, 5, 60, 54
1, 78095, Note_on_c, 5, 60, 0
1, 78120, Note_on_c, 5, 59, 54
1, 78127, Note_on_c, 1, 72, 0
1, 78215, Note_on_c, 5, 59, 0
1, 78240, Note_on_c, 5, 57, 54
1, 78335, Note_on_c, 5, 57, 0
1, 78360, Note_on_c, 5, 55, 54
1, 78455, Note_on_c, 5, 55, 0
1, 78480, Note_on_c, 5, 53, 53
1, 78575, Note_on_c, 5, 53, 0
1, 78600, Note_on_c, 5, 52, 53
1, 78695, Note_on_c, 5, 52, 0
1, 78720, Note_on_c, 5, 50, 53
1, 78840, Note_on_c, 1, 70, 53
1, 78935, Note_on_c, 1, 70, 0
1, 78960, Note_on_c, 1, 74, 53
1, 79055, Note_on_c, 1, 74, 0
1, 79080, Note_on_c, 1, 72, 52
1, 79175, Note_on_c, 1, 72, 0
1, 79200, Note_on_c, 1, 70, 52
1, 79295, Note_on_c, 1, 70, 0
1, 79320, Note_on_c, 1, 69, 52
1, 79415, Note_on_c, 1, 69, 0
1, 79440, Note_on_c, 1, 67, 52
1, 79480, Note_on_c, 5, 50, 0
1, 79535, Note_on_c, 1, 67, 0
1, 79560, Note_on_c, 1, 65, 52
1, 79655, Note_on_c, 1, 65, 0
1, 79680, Note_on_c, 1, 64, 53
1, 79680, Note_on_c, 4, 58, 53
1, 79680, Note_on_c, 4, 55, 53
1, 79680, Note_on_c, 5, 48, 53
1, 79775, Note_on_c, 1, 64, 0
1, 79800, Note_on_c, 1, 65, 51
1, 79895, Note_on_c, 1, 65, 0
1, 79920, Note_on_c, 1, 67, 50
1, 80015, Note_on_c, 1, 67, 0
1, 80040, Note_on_c, 1, 69, 48
1, 80135, Note_on_c, 1, 69, 0
1, 80160, Note_on_c, 1, 70, 47
1, 80255, Note_on_c, 1, 70, 0
1, 80280, Note_on_c, 1, 72, 46
1, 80375, Note_on_c, 1, 72, 0
1, 80400, Note_on_c, 1, 74, 44
1, 80440, Note_on_c, 4, 55, 0
1, 80440, Note_on_c, 4, 58, 0
1, 80440, Note_on_c, 5, 48, 0
1, 80480, Tempo, 379746
1, 80495, Note_on_c, 1, 74, 0
1, 80520, Tempo, 377358
1, 80520, Note_on_c, 1, 76, 43
1, 80580, Tempo, 425531
1, 80615, Note_on_c, 1, 76, 0
1, 80640, Tempo, 377358
1, 80640, Note_on_c, 1, 77, 42
1, 80640, Note_on_c, 4, 65, 42
1, 80880, Note_on_c, 3, 72, 42
1, 80880, Note_on_c, 4, 65, 0
1, 81120, Note_on_c, 3, 72, 0
1, 81120, Note_on_c, 3, 69, 44
1, 81360, Note_on_c, 3, 69, 0
1, 81360, Note_on_c, 3, 72, 45
1, 81600, Note_on_c, 1, 77, 0
1, 81600, Note_on_c, 1, 81, 46
1, 81600, Note_on_c, 3, 72, 0
1, 81600, Note_on_c, 4, 65, 46
1, 81840, Note_on_c, 3, 72, 47
1, 81840, Note_on_c, 4, 65, 0
1, 82080, Note_on_c, 1, 81, 0
1, 82080, Note_on_c, 1, 84, 48
1, 82080, Note_on_c, 3, 72, 0
1, 82080, Note_on_c, 3, 69, 48
1, 82320, Note_on_c, 3, 69, 0
1, 82320, Note_on_c, 3, 72, 50
1, 82560, Note_on_c, 1, 84, 0
1, 82560, Note_on_c, 1, 76, 52
1, 82560, Note_on_c, 3, 72, 0
1, 82560, Note_on_c, 4, 67, 52
1, 82800, Note_on_c, 3, 72, 50
1, 82800, Note_on_c, 4, 67, 0
1, 83040, Note_on_c, 3, 72, 0
1, 83040, Note_on_c, 3, 70, 49
1, 83280, Note_on_c, 1, 76, 0
1, 83280, Note_on_c, 1, 77, 47
1, 83280, Note_on_c, 3, 70, 0
1, 83280, Note_on_c, 3, 72, 47
1, 83400, Note_on_c, 1, 77, 0
1, 83400, Note_on_c, 1, 79, 47
1, 83520, Note_on_c, 1, 79, 0
1, 83520, Note_on_c, 1, 77, 46
1, 83520, Note_on_c, 3, 72, 0
1, 83520, Note_on_c, 4, 65, 46
1, 83760, Note_on_c, 3, 72, 45
1, 83760, Note_on_c, 4, 65, 0
1, 84000, Note_on_c, 1, 77, 0
1, 84000, Note_on_c, 3, 72, 0
1, 84000, Note_on_c, 3, 69, 44
1, 84240, Note_on_c, 3, 69, 0
1, 84240, Note_on_c, 3, 72, 42
1, 84432, Note_on_c, 3, 72, 0
1, 84480, Note_on_c, 1, 86, 44
1, 84480, Note_on_c, 4, 65, 44
1, 84720, Note_on_c, 3, 74, 46
1, 84720, Note_on_c, 4, 65, 0
1, 84960, Note_on_c, 3, 74, 0
1, 84960, Note_on_c, 3, 70, 47
1, 85200, Note_on_c, 3, 70, 0
1, 85200, Note_on_c, 3, 74, 48
1, 85440, Note_on_c, 1, 86, 0
1, 85440, Note_on_c, 1, 84, 50
1, 85440, Note_on_c, 3, 74, 0
1, 85440, Note_on_c, 4, 65, 50
1, 85680, Note_on_c, 3, 72, 51
1, 85680, Note_on_c, 4, 65, 0
1, 85920, Note_on_c, 1, 84, 0
1, 85920, Note_on_c, 1, 89, 52
1, 85920, Note_on_c, 3, 72, 0
1, 85920, Note_on_c, 3, 69, 52
1, 86160, Note_on_c, 3, 69, 0
1, 86160, Note_on_c, 3, 72, 54
1, 86400, Note_on_c, 1, 89, 0
1, 86400, Note_on_c, 1, 84, 57
1, 86400, Note_on_c, 3, 72, 0
1, 86400, Note_on_c, 4, 64, 57
1, 86640, Note_on_c, 3, 72, 55
1, 86640, Note_on_c, 4, 64, 0
1, 86880, Note_on_c, 1, 84, 0
1, 86880, Note_on_c, 1, 82, 54
1, 86880, Note_on_c, 3, 72, 0
1, 86880, Note_on_c, 3, 67, 54
1, 86976, Note_on_c, 1, 82, 0
1, 86976, Note_on_c, 1, 84, 53
1, 87072, Note_on_c, 1, 84, 0
1, 87072, Note_on_c, 1, 82, 53
1, 87120, Note_on_c, 3, 67, 0
1, 87120, Note_on_c, 3, 72, 52
1, 87168, Note_on_c, 1, 82, 0
1, 87168, Note_on_c, 1, 81, 52
1, 87264, Note_on_c, 1, 81, 0
1, 87264, Note_on_c, 1, 82, 52
1, 87360, Note_on_c, 1, 82, 0
1, 87360, Note_on_c, 1, 81, 51
1, 87360, Note_on_c, 3, 72, 0
1, 87360, Note_on_c, 4, 65, 51
1, 87600, Note_on_c, 3, 72, 49
1, 87600, Note_on_c, 4, 65, 0
1, 87840, Note_on_c, 1, 81, 0
1, 87840, Note_on_c, 3, 72, 0
1, 87840, Note_on_c, 3, 69, 48
1, 88080, Note_on_c, 3, 69, 0
1, 88080, Note_on_c, 3, 72, 46
1, 88272, Note_on_c, 3, 72, 0
1, 88280, Tempo, 379746
1, 88320, Tempo, 377358
1, 88320, Note_on_c, 1, 74, 79
1, 88320, Note_on_c, 5, 70, 79
1, 88510, Note_on_c, 1, 74, 0
1, 88560, Note_on_c, 1, 76, 79
1, 88655, Note_on_c, 1, 76, 0
1, 88680, Note_on_c, 1, 77, 79
1, 88705, Note_on_c, 5, 70, 0
1, 88775, Note_on_c, 1, 77, 0
1, 88800, Note_on_c, 1, 79, 79
1, 88895, Note_on_c, 1, 79, 0
1, 88920, Note_on_c, 1, 81, 79
1, 89015, Note_on_c, 1, 81, 0
1, 89040, Note_on_c, 1, 82, 79
1, 89135, Note_on_c, 1, 82, 0
1, 89160, Note_on_c, 1, 84, 79
1, 89255, Note_on_c, 1, 84, 0
1, 89280, Note_on_c, 1, 86, 78
1, 89375, Note_on_c, 1, 86, 0
1, 89400, Note_on_c, 1, 84, 78
1, 89495, Note_on_c, 1, 84, 0
1, 89520, Note_on_c, 1, 82, 78
1, 89615, Note_on_c, 1, 82, 0
1, 89640, Note_on_c, 1, 81, 78
1, 89735, Note_on_c, 1, 81, 0
1, 89760, Note_on_c, 1, 79, 78
1, 89760, Note_on_c, 4, 65, 78
1, 89760, Note_on_c, 5, 58, 78
1, 89855, Note_on_c, 1, 79, 0
1, 89880, Note_on_c, 1, 77, 78
1, 89975, Note_on_c, 1, 77, 0
1, 90000, Note_on_c, 1, 76, 78
1, 90095, Note_on_c, 1, 76, 0
1, 90120, Note_on_c, 1, 74, 78
1, 90145, Note_on_c, 4, 65, 0
1, 90145, Note_on_c, 5, 58, 0
1, 90215, Note_on_c, 1, 74, 0
1, 90240, Note_on_c, 1, 72, 77
1, 90240, Note_on_c, 4, 65, 77
1, 90240, Note_on_c, 5, 57, 77
1, 90430, Note_on_c, 1, 72, 0
1, 90480, Note_on_c, 1, 74, 77
1, 90575, Note_on_c, 1, 74, 0
1, 90600, Note_on_c, 1, 76, 77
1, 90625, Note_on_c, 4, 65, 0
1, 90625, Note_on_c, 5, 57, 0
1, 90695, Note_on_c, 1, 76, 0
1, 90720, Note_on_c, 1, 77, 77
1, 90815, Note_on_c, 1, 77, 0
1, 90840, Note_on_c, 1, 79, 77
1, 90935, Note_on_c, 1, 79, 0
1, 90960, Note_on_c, 1, 81, 77
1, 91055, Note_on_c, 1, 81, 0
1, 91080, Note_on_c, 1, 82, 77
1, 91175, Note_on_c, 1, 82, 0
1, 91200, Note_on_c, 1, 84, 76
1, 91295, Note_on_c, 1, 84, 0
1, 91320, Note_on_c, 1, 82, 76
1, 91415, Note_on_c, 1, 82, 0
1, 91440, Note_on_c, 1, 81, 76
1, 91535, Note_on_c, 1, 81, 0
1, 91560, Note_on_c, 1, 79, 76
1, 91655, Note_on_c, 1, 79, 0
1, 91680, Note_on_c, 1, 77, 76
1, 91680, Note_on_c, 4, 65, 76
1, 91680, Note_on_c, 5, 57, 76
1, 91775, Note_on_c, 1, 77, 0
1, 91800, Note_on_c, 1, 76, 76
1, 91895, Note_on_c, 1, 76, 0
1, 91920, Note_on_c, 1, 74, 76
1, 92015, Note_on_c, 1, 74, 0
1, 92040, Note_on_c, 1, 72, 76
1, 92065, Note_on_c, 4, 65, 0
1, 92065, Note_on_c, 5, 57, 0
1, 92135, Note_on_c, 1, 72, 0
1, 92160, Note_on_c, 1, 70, 75
1, 92160, Note_on_c, 4, 65, 75
1, 92160, Note_on_c, 5, 55, 75
1, 92350, Note_on_c, 1, 70, 0
1, 92400, Note_on_c, 1, 72, 75
1, 92495, Note_on_c, 1, 72, 0
1, 92520, Note_on_c, 1, 74, 75
1, 92545, Note_on_c, 4, 65, 0
1, 92545, Note_on_c, 5, 55, 0
1, 92615, Note_on_c, 1, 74, 0
1, 92640, Note_on_c, 1, 76, 75
1, 92735, Note_on_c, 1, 76, 0
1, 92760, Note_on_c, 1, 77, 75
1, 92855, Note_on_c, 1, 77, 0
1, 92880, Note_on_c, 1, 79, 75
1, 92975, Note_on_c, 1, 79, 0
1, 93000, Note_on_c, 1, 81, 75
1, 93095, Note_on_c, 1, 81, 0
1, 93120, Note_on_c, 1, 82, 74
1, 93215, Note_on_c, 1, 82, 0
1, 93240, Note_on_c, 1, 81, 74
1, 93335, Note_on_c, 1, 81, 0
1, 93360, Note_on_c, 1, 79, 74
1, 93455, Note_on_c, 1, 79, 0
1, 93480, Note_on_c, 1, 77, 74
1, 93575, Note_on_c, 1, 77, 0
1, 93600, Note_on_c, 1, 76, 74
1, 93600, Note_on_c, 4, 64, 74
1, 93600, Note_on_c, 5, 55, 74
1, 93695, Note_on_c, 1, 76, 0
1, 93720, Note_on_c, 1, 74, 74
1, 93815, Note_on_c, 1, 74, 0
1, 93840, Note_on_c, 1, 72, 74
1, 93935, Note_on_c, 1, 72, 0
1, 93960, Note_on_c, 1, 70, 74
1, 93985, Note_on_c, 4, 64, 0
1, 93985, Note_on_c, 5, 55, 0
1, 94055, Note_on_c, 1, 70, 0
1, 94080, Note_on_c, 1, 69, 73
1, 94080, Note_on_c, 4, 65, 73
1, 94080, Note_on_c, 5, 53, 73
1, 94270, Note_on_c, 1, 69, 0
1, 94320, Note_on_c, 1, 70, 73
1, 94415, Note_on_c, 1, 70, 0
1, 94440, Note_on_c, 1, 72, 73
1, 94465, Note_on_c, 4, 65, 0
1, 94465, Note_on_c, 5, 53, 0
1, 94535, Note_on_c, 1, 72, 0
1, 94560, Note_on_c, 1, 74, 73
1, 94655, Note_on_c, 1, 74, 0
1, 94680, Note_on_c, 1, 76, 73
1, 94775, Note_on_c, 1, 76, 0
1, 94800, Note_on_c, 1, 77, 73
1, 94895, Note_on_c, 1, 77, 0
1, 94920, Note_on_c, 1, 79, 73
1, 95015, Note_on_c, 1, 79, 0
1, 95040, Note_on_c, 1, 81, 72
1, 95135, Note_on_c, 1, 81, 0
1, 95160, Note_on_c, 1, 79, 72
1, 95255, Note_on_c, 1, 79, 0
1, 95280, Note_on_c, 1, 77, 72
1, 95375, Note_on_c, 1, 77, 0
1, 95400, Note_on_c, 1, 76, 72
1, 95495, Note_on_c, 1, 76, 0
1, 95520, Note_on_c, 1, 74, 72
1, 95615, Note_on_c, 1, 74, 0
1, 95640, Note_on_c, 1, 72, 72
1, 95735, Note_on_c, 1, 72, 0
1, 95760, Note_on_c, 1, 70, 72
1, 95855, Note_on_c, 1, 70, 0
1, 95880, Note_on_c, 1, 69, 72
1, 95960, Tempo, 379746
1, 95975, Note_on_c, 1, 69, 0
1, 96000, Tempo, 377358
1, 96000, Note_on_c, 1, 81, 79
1, 96000, Note_on_c, 5, 53, 79
1, 96190, Note_on_c, 5, 53, 0
1, 96240, Note_on_c, 5, 55, 78
1, 96335, Note_on_c, 5, 55, 0
1, 96360, Note_on_c, 5, 57, 78
1, 96385, Note_on_c, 1, 81, 0
1, 96455, Note_on_c, 5, 57, 0
1, 96480, Note_on_c, 5, 58, 78
1, 96575, Note_on_c, 5, 58, 0
1, 96600, Note_on_c, 5, 60, 78
1, 96695, Note_on_c, 5, 60, 0
1, 96720, Note_on_c, 5, 62, 78
1, 96815, Note_on_c, 5, 62, 0
1, 96840, Note_on_c, 5, 64, 78
1, 96935, Note_on_c, 5, 64, 0
1, 96960, Note_on_c, 5, 65, 78
1, 97055, Note_on_c, 5, 65, 0
1, 97080, Note_on_c, 5, 64, 77
1, 97175, Note_on_c, 5, 64, 0
1, 97200, Note_on_c, 5, 62, 77
1, 97295, Note_on_c, 5, 62, 0
1, 97320, Note_on_c, 5, 60, 77
1, 97415, Note_on_c, 5, 60, 0
1, 97440, Note_on_c, 1, 81, 77
1, 97440, Note_on_c, 2, 72, 77
1, 97440, Note_on_c, 5, 58, 77
1, 97535, Note_on_c, 5, 58, 0
1, 97560, Note_on_c, 5, 57, 77
1, 97655, Note_on_c, 5, 57, 0
1, 97680, Note_on_c, 5, 55, 77
1, 97775, Note_on_c, 5, 55, 0
1, 97800, Note_on_c, 5, 53, 77
1, 97825, Note_on_c, 1, 81, 0
1, 97825, Note_on_c, 2, 72, 0
1, 97895, Note_on_c, 5, 53, 0
1, 97920, Note_on_c, 1, 79, 76
1, 97920, Note_on_c, 2, 72, 76
1, 97920, Note_on_c, 5, 52, 76
1, 98110, Note_on_c, 5, 52, 0
1, 98160, Note_on_c, 5, 53, 76
1, 98255, Note_on_c, 5, 53, 0
1, 98280, Note_on_c, 5, 55, 76
1, 98305, Note_on_c, 1, 79, 0
1, 98305, Note_on_c, 2, 72, 0
1, 98375, Note_on_c, 5, 55, 0
1, 98400, Note_on_c, 5, 57, 76
1, 98495, Note_on_c, 5, 57, 0
1, 98520, Note_on_c, 5, 59, 76
1, 98615, Note_on_c, 5, 59, 0
1, 98640, Note_on_c, 5, 60, 76
1, 98735, Note_on_c, 5, 60, 0
1, 98760, Note_on_c, 5, 62, 75
1, 98855, Note_on_c, 5, 62, 0
1, 98880, Note_on_c, 5, 64, 75
1, 98975, Note_on_c, 5, 64, 0
1, 99000, Note_on_c, 5, 62, 75
1, 99095, Note_on_c, 5, 62, 0
1, 99120, Note_on_c, 5, 60, 75
1, 99215, Note_on_c, 5, 60, 0
1, 99240, Note_on_c, 5, 59, 75
1, 99335, Note_on_c, 5, 59, 0
1, 99360, Note_on_c, 1, 79, 75
1, 99360, Note_on_c, 2, 72, 75
1, 99360, Note_on_c, 5, 57, 75
1, 99455, Note_on_c, 5, 57, 0
1, 99480, Note_on_c, 5, 55, 75
1, 99575, Note_on_c, 5, 55, 0
1, 99600, Note_on_c, 5, 53, 74
1, 99695, Note_on_c, 5, 53, 0
1, 99720, Note_on_c, 5, 52, 74
1, 99745, Note_on_c, 1, 79, 0
1, 99745, Note_on_c, 2, 72, 0
1, 99815, Note_on_c, 5, 52, 0
1, 99840, Note_on_c, 1, 77, 74
1, 99840, Note_on_c, 2, 72, 74
1, 99840, Note_on_c, 5, 50, 74
1, 100030, Note_on_c, 5, 50, 0
1, 100080, Note_on_c, 5, 52, 74
1, 100175, Note_on_c, 5, 52, 0
1, 100200, Note_on_c, 5, 53, 74
1, 100225, Note_on_c, 1, 77, 0
1, 100225, Note_on_c, 2, 72, 0
1, 100295, Note_on_c, 5, 53, 0
1, 100320, Note_on_c, 5, 55, 74
1, 100415, Note_on_c, 5, 55, 0
1, 100440, Note_on_c, 5, 57, 74
1, 100535, Note_on_c, 5, 57, 0
1, 100560, Note_on_c, 5, 59, 73
1, 100655, Note_on_c, 5, 59, 0
1, 100680, Note_on_c, 5, 60, 73
1, 100775, Note_on_c, 5, 60, 0
1, 100800, Note_on_c, 5, 62, 73
1, 100895, Note_on_c, 5, 62, 0
1, 100920, Note_on_c, 5, 60, 73
1, 101015, Note_on_c, 5, 60, 0
1, 101040, Note_on_c, 5, 59, 73
1, 101135, Note_on_c, 5, 59, 0
1, 101160, Note_on_c, 5, 57, 73
1, 101255, Note_on_c, 5, 57, 0
1, 101280, Note_on_c, 1, 77, 73
1, 101280, Note_on_c, 2, 71, 73
1, 101280, Note_on_c, 5, 55, 73
1, 101375, Note_on_c, 5, 55, 0
1, 101400, Note_on_c, 5, 53, 72
1, 101495, Note_on_c, 5, 53, 0
1, 101520, Note_on_c, 5, 52, 72
1, 101615, Note_on_c, 5, 52, 0
1, 101640, Note_on_c, 5, 50, 72
1, 101665, Note_on_c, 1, 77, 0
1, 101665, Note_on_c, 2, 71, 0
1, 101735, Note_on_c, 5, 50, 0
1, 101760, Note_on_c, 1, 76, 72
1, 101760, Note_on_c, 2, 72, 72
1, 101760, Note_on_c, 5, 48, 72
1, 101950, Note_on_c, 5, 48, 0
1, 102000, Note_on_c, 5, 50, 72
1, 102095, Note_on_c, 5, 50, 0
1, 102120, Note_on_c, 5, 52, 72
1, 102145, Note_on_c, 1, 76, 0
1, 102145, Note_on_c, 2, 72, 0
1, 102215, Note_on_c, 5, 52, 0
1, 102240, Note_on_c, 5, 53, 71
1, 102335, Note_on_c, 5, 53, 0
1, 102360, Note_on_c, 5, 55, 71
1, 102455, Note_on_c, 5, 55, 0
1, 102480, Note_on_c, 5, 57, 71
1, 102575, Note_on_c, 5, 57, 0
1, 102600, Note_on_c, 5, 59, 71
1, 102695, Note_on_c, 5, 59, 0
1, 102720, Note_on_c, 5, 60, 71
1, 102815, Note_on_c, 5, 60, 0
1, 102840, Note_on_c, 5, 59, 71
1, 102935, Note_on_c, 5, 59, 0
1, 102960, Note_on_c, 5, 57, 71
1, 103055, Note_on_c, 5, 57, 0
1, 103080, Note_on_c, 5, 55, 70
1, 103175, Note_on_c, 5, 55, 0
1, 103200, Note_on_c, 1, 76, 70
1, 103200, Note_on_c, 2, 72, 70
1, 103200, Note_on_c, 5, 53, 70
1, 103295, Note_on_c, 5, 53, 0
1, 103320, Note_on_c, 5, 52, 70
1, 103415, Note_on_c, 5, 52, 0
1, 103440, Note_on_c, 5, 50, 70
1, 103535, Note_on_c, 5, 50, 0
1, 103560, Note_on_c, 5, 48, 70
1, 103585, Note_on_c, 1, 76, 0
1, 103585, Note_on_c, 2, 72, 0
1, 103640, Tempo, 379746
1, 103655, Note_on_c, 5, 48, 0
1, 103680, Tempo, 377358
1, 103680, Note_on_c, 1, 74, 70
1, 103680, Note_on_c, 4, 57, 70
1, 103680, Note_on_c, 5, 53, 70
1, 103775, Note_on_c, 1, 74, 0
1, 103800, Note_on_c, 1, 62, 70
1, 103895, Note_on_c, 1, 62, 0
1, 103920, Note_on_c, 1, 64, 71
1, 104015, Note_on_c, 1, 64, 0
1, 104040, Note_on_c, 1, 65, 71
1, 104135, Note_on_c, 1, 65, 0
1, 104160, Note_on_c, 1, 67, 72
1, 104255, Note_on_c, 1, 67, 0
1, 104280, Note_on_c, 1, 69, 72
1, 104375, Note_on_c, 1, 69, 0
1, 104400, Note_on_c, 1, 71, 73
1, 104495, Note_on_c, 1, 71, 0
1, 104520, Note_on_c, 1, 73, 73
1, 104615, Note_on_c, 1, 73, 0
1, 104640, Note_on_c, 1, 74, 74
1, 104735, Note_on_c, 1, 74, 0
1, 104760, Note_on_c, 1, 69, 74
1, 104855, Note_on_c, 1, 69, 0
1, 104880, Note_on_c, 1, 71, 75
1, 104975, Note_on_c, 1, 71, 0
1, 105000, Note_on_c, 1, 73, 76
1, 105095, Note_on_c, 1, 73, 0
1, 105120, Note_on_c, 1, 74, 76
1, 105215, Note_on_c, 1, 74, 0
1, 105240, Note_on_c, 1, 76, 77
1, 105335, Note_on_c, 1, 76, 0
1, 105360, Note_on_c, 1, 77, 77
1, 105455, Note_on_c, 1, 77, 0
1, 105480, Note_on_c, 1, 79, 78
1, 105480, Note_on_c, 5, 53, 0
1, 105495, Note_on_c, 4, 57, 0
1, 105575, Note_on_c, 1, 79, 0
1, 105600, Note_on_c, 1, 81, 78
1, 105600, Note_on_c, 5, 53, 78
1, 105695, Note_on_c, 1, 81, 0
1, 105720, Note_on_c, 1, 83, 79
1, 105815, Note_on_c, 1, 83, 0
1, 105840, Note_on_c, 1, 84, 79
1, 105935, Note_on_c, 1, 84, 0
1, 105960, Note_on_c, 1, 83, 80
1, 106055, Note_on_c, 1, 83, 0
1, 106080, Note_on_c, 1, 81, 80
1, 106175, Note_on_c, 1, 81, 0
1, 106175, Note_on_c, 5, 53, 0
1, 106200, Note_on_c, 1, 79, 81
1, 106295, Note_on_c, 1, 79, 0
1, 106320, Note_on_c, 1, 77, 81
1, 106320, Note_on_c, 5, 55, 81
1, 106415, Note_on_c, 1, 77, 0
1, 106440, Note_on_c, 1, 76, 82
1, 106510, Note_on_c, 5, 55, 0
1, 106535, Note_on_c, 1, 76, 0
1, 106560, Note_on_c, 1, 77, 82
1, 106560, Note_on_c, 5, 57, 82
1, 106655, Note_on_c, 1, 77, 0
1, 106680, Note_on_c, 1, 79, 83
1, 106775, Note_on_c, 1, 79, 0
1, 106800, Note_on_c, 1, 81, 83
1, 106895, Note_on_c, 1, 81, 0
1, 106920, Note_on_c, 1, 79, 84
1, 107015, Note_on_c, 1, 79, 0
1, 107040, Note_on_c, 1, 77, 84
1, 107135, Note_on_c, 1, 77, 0
1, 107135, Note_on_c, 5, 57, 0
1, 107160, Note_on_c, 1, 76, 85
1, 107255, Note_on_c, 1, 76, 0
1, 107280, Note_on_c, 1, 74, 85
1, 107280, Note_on_c, 5, 54, 85
1, 107375, Note_on_c, 1, 74, 0
1, 107400, Note_on_c, 1, 72, 86
1, 107470, Note_on_c, 5, 54, 0
1, 107495, Note_on_c, 1, 72, 0
1, 107520, Note_on_c, 1, 71, 86
1, 107520, Note_on_c, 5, 43, 86
1, 107640, Note_on_c, 3, 47, 87
1, 107700, Note_on_c, 5, 43, 0
1, 107710, Note_on_c, 1, 71, 0
1, 107735, Note_on_c, 3, 47, 0
1, 107760, Note_on_c, 1, 79, 87
1, 107760, Note_on_c, 3, 50, 87
1, 107855, Note_on_c, 3, 50, 0
1, 107880, Note_on_c, 3, 55, 88
1, 107950, Note_on_c, 1, 79, 0
1, 107975, Note_on_c, 3, 55, 0
1, 108000, Note_on_c, 1, 76, 88
1, 108000, Note_on_c, 5, 43, 88
1, 108120, Note_on_c, 3, 48, 89
1, 108180, Note_on_c, 5, 43, 0
1, 108190, Note_on_c, 1, 76, 0
1, 108215, Note_on_c, 3, 48, 0
1, 108240, Note_on_c, 1, 72, 89
1, 108240, Note_on_c, 3, 52, 89
1, 108335, Note_on_c, 3, 52, 0
1, 108360, Note_on_c, 3, 55, 90
1, 108430, Note_on_c, 1, 72, 0
1, 108455, Note_on_c, 3, 55, 0
1, 108480, Note_on_c, 1, 74, 90
1, 108480, Note_on_c, 5, 43, 90
1, 108600, Note_on_c, 3, 47, 91
1, 108660, Note_on_c, 5, 43, 0
1, 108670, Note_on_c, 1, 74, 0
1, 108695, Note_on_c, 3, 47, 0
1, 108720, Note_on_c, 1, 79, 91
1, 108720, Note_on_c, 3, 50, 91
1, 108815, Note_on_c, 3, 50, 0
1, 108840, Note_on_c, 3, 55, 92
1, 108910, Note_on_c, 1, 79, 0
1, 108935, Note_on_c, 3, 55, 0
1, 108960, Note_on_c, 1, 76, 92
1, 108960, Note_on_c, 5, 43, 92
1, 109080, Note_on_c, 3, 48, 93
1, 109140, Note_on_c, 5, 43, 0
1, 109150, Note_on_c, 1, 76, 0
1, 109175, Note_on_c, 3, 48, 0
1, 109200, Note_on_c, 1, 72, 93
1, 109200, Note_on_c, 3, 52, 93
1, 109295, Note_on_c, 3, 52, 0
1, 109320, Tempo, 384615
1, 109320, Note_on_c, 3, 55, 94
1, 109390, Note_on_c, 1, 72, 0
1, 109415, Note_on_c, 3, 55, 0
1, 109440, Tempo, 389610
1, 109440, Note_on_c, 1, 74, 95
1, 109440, Note_on_c, 5, 43, 95
1, 109750, Note_on_c, 1, 74, 0
1, 109750, Note_on_c, 5, 43, 0
1, 109920, Note_on_c, 1, 79, 90
1, 109920, Note_on_c, 2, 74, 90
1, 109920, Note_on_c, 2, 71, 90
1, 109920, Note_on_c, 5, 55, 90
1, 110230, Note_on_c, 1, 79, 0
1, 110230, Note_on_c, 2, 71, 0
1, 110230, Note_on_c, 2, 74, 0
1, 110230, Note_on_c, 5, 55, 0
1, 110265, Tempo, 394736
1, 110400, Note_on_c, 1, 67, 85
1, 110400, Note_on_c, 5, 43, 85
1, 110760, Note_on_c, 1, 67, 0
1, 110760, Note_on_c, 5, 43, 0
1, 110880, Tempo, 400000
1, 111360, Tempo, 377358
1, 111360, Note_on_c, 5, 66, 83
1, 111455, Note_on_c, 5, 66, 0
1, 111480, Note_on_c, 3, 67, 77
1, 111575, Note_on_c, 3, 67, 0
1, 111600, Note_on_c, 5, 66, 73
1, 111695, Note_on_c, 5, 66, 0
1, 111720, Note_on_c, 3, 67, 69
1, 111815, Note_on_c, 3, 67, 0
1, 111840, Note_on_c, 5, 66, 66
1, 111935, Note_on_c, 5, 66, 0
1, 111960, Note_on_c, 3, 67, 63
1, 112055, Note_on_c, 3, 67, 0
1, 112080, Note_on_c, 5, 66, 61
1, 112175, Note_on_c, 5, 66, 0
1, 112200, Note_on_c, 3, 67, 59
1, 112295, Note_on_c, 3, 67, 0
1, 112320, Note_on_c, 5, 65, 59
1, 112415, Note_on_c, 5, 65, 0
1, 112440, Note_on_c, 3, 67, 59
1, 112535, Note_on_c, 3, 67, 0
1, 112560, Note_on_c, 5, 65, 59
1, 112655, Note_on_c, 5, 65, 0
1, 112680, Note_on_c, 3, 67, 59
1, 112775, Note_on_c, 3, 67, 0
1, 112800, Note_on_c, 5, 65, 59
1, 112895, Note_on_c, 5, 65, 0
1, 112920, Note_on_c, 3, 67, 58
1, 113015, Note_on_c, 3, 67, 0
1, 113040, Note_on_c, 5, 65, 58
1, 113135, Note_on_c, 5, 65, 0
1, 113160, Note_on_c, 3, 67, 58
1, 113240, Tempo, 379746
1, 113255, Note_on_c, 3, 67, 0
1, 113280, Tempo, 377358
1, 113280, Note_on_c, 1, 79, 58
1, 113280, Note_on_c, 5, 64, 58
1, 113375, Note_on_c, 5, 64, 0
1, 113400, Note_on_c, 3, 67, 58
1, 113495, Note_on_c, 3, 67, 0
1, 113520, Note_on_c, 1, 79, 0
1, 113520, Note_on_c, 1, 76, 57
1, 113520, Note_on_c, 5, 64, 57
1, 113615, Note_on_c, 5, 64, 0
1, 113640, Note_on_c, 3, 67, 57
1, 113710, Note_on_c, 1, 76, 0
1, 113735, Note_on_c, 3, 67, 0
1, 113760, Note_on_c, 1, 72, 57
1, 113760, Note_on_c, 5, 64, 57
1, 113855, Note_on_c, 5, 64, 0
1, 113880, Note_on_c, 3, 67, 57
1, 113975, Note_on_c, 3, 67, 0
1, 114000, Note_on_c, 5, 64, 57
1, 114095, Note_on_c, 5, 64, 0
1, 114120, Note_on_c, 3, 67, 57
1, 114215, Note_on_c, 3, 67, 0
1, 114240, Note_on_c, 5, 64, 56
1, 114335, Note_on_c, 5, 64, 0
1, 114360, Note_on_c, 3, 67, 56
1, 114455, Note_on_c, 3, 67, 0
1, 114480, Note_on_c, 1, 72, 0
1, 114480, Note_on_c, 1, 74, 56
1, 114480, Note_on_c, 5, 64, 56
1, 114575, Note_on_c, 5, 64, 0
1, 114600, Note_on_c, 1, 74, 0
1, 114600, Note_on_c, 1, 76, 56
1, 114600, Note_on_c, 3, 67, 56
1, 114695, Note_on_c, 3, 67, 0
1, 114720, Note_on_c, 1, 76, 0
1, 114720, Note_on_c, 1, 74, 56
1, 114720, Note_on_c, 5, 64, 56
1, 114815, Note_on_c, 5, 64, 0
1, 114840, Note_on_c, 3, 67, 55
1, 114875, Note_on_c, 1, 74, 0
1, 114935, Note_on_c, 3, 67, 0
1, 114960, Note_on_c, 1, 72, 55
1, 114960, Note_on_c, 5, 64, 55
1, 115055, Note_on_c, 5, 64, 0
1, 115080, Note_on_c, 3, 67, 55
1, 115115, Note_on_c, 1, 72, 0
1, 115175, Note_on_c, 3, 67, 0
1, 115200, Note_on_c, 1, 72, 55
1, 115200, Note_on_c, 5, 65, 55
1, 115260, Note_on_c, 1, 72, 0
1, 115260, Note_on_c, 1, 74, 55
1, 115295, Note_on_c, 5, 65, 0
1, 115320, Note_on_c, 1, 74, 0
1, 115320, Note_on_c, 1, 72, 55
1, 115320, Note_on_c, 3, 67, 55
1, 115380, Note_on_c, 1, 72, 0
1, 115380, Note_on_c, 1, 74, 54
1, 115415, Note_on_c, 3, 67, 0
1, 115440, Note_on_c, 1, 74, 0
1, 115440, Note_on_c, 1, 72, 54
1, 115440, Note_on_c, 5, 64, 54
1, 115535, Note_on_c, 5, 64, 0
1, 115560, Note_on_c, 1, 72, 0
1, 115560, Note_on_c, 1, 71, 54
1, 115560, Note_on_c, 3, 67, 54
1, 115655, Note_on_c, 3, 67, 0
1, 115656, Note_on_c, 1, 71, 0
1, 115680, Note_on_c, 1, 71, 54
1, 115680, Note_on_c, 5, 62, 54
1, 115775, Note_on_c, 5, 62, 0
1, 115800, Note_on_c, 3, 67, 54
1, 115895, Note_on_c, 3, 67, 0
1, 115920, Note_on_c, 5, 64, 54
1, 116015, Note_on_c, 5, 64, 0
1, 116040, Note_on_c, 3, 67, 53
1, 116135, Note_on_c, 3, 67, 0
1, 116160, Note_on_c, 1, 71, 0
1, 116160, Note_on_c, 5, 65, 53
1, 116255, Note_on_c, 5, 65, 0
1, 116280, Note_on_c, 3, 67, 53
1, 116375, Note_on_c, 3, 67, 0
1, 116400, Note_on_c, 5, 64, 53
1, 116495, Note_on_c, 5, 64, 0
1, 116520, Note_on_c, 3, 67, 53
1, 116615, Note_on_c, 3, 67, 0
1, 116640, Note_on_c, 5, 65, 52
1, 116735, Note_on_c, 5, 65, 0
1, 116760, Note_on_c, 3, 67, 52
1, 116855, Note_on_c, 3, 67, 0
1, 116880, Note_on_c, 5, 62, 52
1, 116975, Note_on_c, 5, 62, 0
1, 117000, Note_on_c, 3, 67, 52
1, 117080, Tempo, 379746
1, 117095, Note_on_c, 3, 67, 0
1, 117120, Tempo, 377358
1, 117120, Note_on_c, 1, 79, 52
1, 117120, Note_on_c, 5, 64, 52
1, 117215, Note_on_c, 5, 64, 0
1, 117240, Note_on_c, 3, 67, 51
1, 117335, Note_on_c, 3, 67, 0
1, 117360, Note_on_c, 1, 79, 0
1, 117360, Note_on_c, 1, 76, 51
1, 117360, Note_on_c, 5, 64, 51
1, 117455, Note_on_c, 5, 64, 0
1, 117480, Note_on_c, 3, 67, 51
1, 117550, Note_on_c, 1, 76, 0
1, 117575, Note_on_c, 3, 67, 0
1, 117600, Note_on_c, 1, 72, 51
1, 117600, Note_on_c, 5, 64, 51
1, 117695, Note_on_c, 5, 64, 0
1, 117720, Note_on_c, 3, 67, 51
1, 117815, Note_on_c, 3, 67, 0
1, 117840, Note_on_c, 5, 64, 50
1, 117935, Note_on_c, 5, 64, 0
1, 117960, Note_on_c, 3, 67, 50
1, 118055, Note_on_c, 3, 67, 0
1, 118080, Note_on_c, 5, 64, 50
1, 118175, Note_on_c, 5, 64, 0
1, 118200, Note_on_c, 3, 67, 50
1, 118295, Note_on_c, 3, 67, 0
1, 118320, Note_on_c, 1, 72, 0
1, 118320, Note_on_c, 1, 74, 50
1, 118320, Note_on_c, 5, 64, 50
1, 118415, Note_on_c, 5, 64, 0
1, 118440, Note_on_c, 1, 74, 0
1, 118440, Note_on_c, 1, 76, 50
1, 118440, Note_on_c, 3, 67, 50
1, 118535, Note_on_c, 3, 67, 0
1, 118560, Note_on_c, 1, 76, 0
1, 118560, Note_on_c, 1, 74, 49
1, 118560, Note_on_c, 5, 64, 49
1, 118655, Note_on_c, 5, 64, 0
1, 118680, Note_on_c, 3, 67, 49
1, 118715, Note_on_c, 1, 74, 0
1, 118775, Note_on_c, 3, 67, 0
1, 118800, Note_on_c, 1, 72, 49
1, 118800, Note_on_c, 5, 64, 49
1, 118895, Note_on_c, 5, 64, 0
1, 118920, Note_on_c, 3, 67, 49
1, 118955, Note_on_c, 1, 72, 0
1, 119015, Note_on_c, 3, 67, 0
1, 119040, Note_on_c, 1, 72, 49
1, 119040, Note_on_c, 5, 65, 49
1, 119100, Note_on_c, 1, 72, 0
1, 119100, Note_on_c, 1, 74, 48
1, 119135, Note_on_c, 5, 65, 0
1, 119160, Note_on_c, 1, 74, 0
1, 119160, Note_on_c, 1, 72, 48
1, 119160, Note_on_c, 3, 67, 48
1, 119220, Note_on_c, 1, 72, 0
1, 119220, Note_on_c, 1, 74, 48
1, 119255, Note_on_c, 3, 67, 0
1, 119280, Note_on_c, 1, 74, 0
1, 119280, Note_on_c, 1, 72, 48
1, 119280, Note_on_c, 5, 64, 48
1, 119375, Note_on_c, 5, 64, 0
1, 119400, Note_on_c, 1, 72, 0
1, 119400, Note_on_c, 1, 71, 48
1, 119400, Note_on_c, 3, 67, 48
1, 119495, Note_on_c, 3, 67, 0
1, 119496, Note_on_c, 1, 71, 0
1, 119520, Note_on_c, 1, 71, 48
1, 119520, Note_on_c, 5, 62, 48
1, 119615, Note_on_c, 5, 62, 0
1, 119640, Note_on_c, 3, 67, 48
1, 119735, Note_on_c, 3, 67, 0
1, 119760, Note_on_c, 5, 64, 47
1, 119855, Note_on_c, 5, 64, 0
1, 119880, Note_on_c, 3, 67, 47
1, 119975, Note_on_c, 3, 67, 0
1, 120000, Note_on_c, 1, 71, 0
1, 120000, Note_on_c, 5, 65, 47
1, 120095, Note_on_c, 5, 65, 0
1, 120120, Note_on_c, 3, 67, 47
1, 120215, Note_on_c, 3, 67, 0
1, 120240, Note_on_c, 5, 64, 47
1, 120335, Note_on_c, 5, 64, 0
1, 120360, Note_on_c, 3, 67, 46
1, 120455, Note_on_c, 3, 67, 0
1, 120480, Note_on_c, 5, 65, 46
1, 120575, Note_on_c, 5, 65, 0
1, 120600, Note_on_c, 3, 67, 46
1, 120695, Note_on_c, 3, 67, 0
1, 120720, Note_on_c, 5, 62, 46
1, 120815, Note_on_c, 5, 62, 0
1, 120840, Note_on_c, 3, 67, 46
1, 120920, Tempo, 379746
1, 120935, Note_on_c, 3, 67, 0
1, 120960, Tempo, 377358
1, 120960, Note_on_c, 1, 79, 87
1, 121080, Note_on_c, 5, 52, 87
1, 121175, Note_on_c, 5, 52, 0
1, 121200, Note_on_c, 5, 55, 87
1, 121295, Note_on_c, 5, 55, 0
1, 121320, Note_on_c, 5, 60, 87
1, 121345, Note_on_c, 1, 79, 0
1, 121415, Note_on_c, 5, 60, 0
1, 121440, Note_on_c, 5, 64, 86
1, 121560, Note_on_c, 1, 79, 86
1, 121655, Note_on_c, 1, 79, 0
1, 121680, Note_on_c, 1, 76, 86
1, 121775, Note_on_c, 1, 76, 0
1, 121800, Note_on_c, 1, 72, 86
1, 121825, Note_on_c, 5, 64, 0
1, 121895, Note_on_c, 1, 72, 0
1, 121920, Note_on_c, 1, 69, 86
1, 122040, Note_on_c, 5, 53, 85
1, 122135, Note_on_c, 5, 53, 0
1, 122160, Note_on_c, 5, 57, 85
1, 122255, Note_on_c, 5, 57, 0
1, 122280, Note_on_c, 5, 60, 85
1, 122305, Note_on_c, 1, 69, 0
1, 122375, Note_on_c, 5, 60, 0
1, 122400, Note_on_c, 5, 65, 85
1, 122520, Note_on_c, 1, 69, 84
1, 122615, Note_on_c, 1, 69, 0
1, 122640, Note_on_c, 1, 72, 84
1, 122735, Note_on_c, 1, 72, 0
1, 122760, Note_on_c, 1, 69, 84
1, 122785, Note_on_c, 5, 65, 0
1, 122855, Note_on_c, 1, 69, 0
1, 122880, Note_on_c, 1, 77, 84
1, 123000, Note_on_c, 5, 50, 83
1, 123095, Note_on_c, 5, 50, 0
1, 123120, Note_on_c, 5, 53, 83
1, 123215, Note_on_c, 5, 53, 0
1, 123240, Note_on_c, 5, 59, 83
1, 123265, Note_on_c, 1, 77, 0
1, 123335, Note_on_c, 5, 59, 0
1, 123360, Note_on_c, 5, 62, 83
1, 123480, Note_on_c, 1, 77, 82
1, 123575, Note_on_c, 1, 77, 0
1, 123600, Note_on_c, 1, 74, 82
1, 123695, Note_on_c, 1, 74, 0
1, 123720, Note_on_c, 1, 71, 82
1, 123745, Note_on_c, 5, 62, 0
1, 123815, Note_on_c, 1, 71, 0
1, 123840, Note_on_c, 1, 67, 82
1, 123960, Note_on_c, 5, 52, 81
1, 124055, Note_on_c, 5, 52, 0
1, 124080, Note_on_c, 5, 55, 81
1, 124175, Note_on_c, 5, 55, 0
1, 124200, Note_on_c, 5, 59, 81
1, 124225, Note_on_c, 1, 67, 0
1, 124295, Note_on_c, 5, 59, 0
1, 124320, Note_on_c, 5, 64, 81
1, 124440, Note_on_c, 1, 79, 80
1, 124535, Note_on_c, 1, 79, 0
1, 124560, Note_on_c, 1, 83, 80
1, 124655, Note_on_c, 1, 83, 0
1, 124680, Note_on_c, 1, 79, 80
1, 124705, Note_on_c, 5, 64, 0
1, 124760, Tempo, 379746
1, 124775, Note_on_c, 1, 79, 0
1, 124800, Tempo, 377358
1, 124800, Note_on_c, 1, 88, 85
1, 124920, Note_on_c, 5, 60, 85
1, 125015, Note_on_c, 5, 60, 0
1, 125040, Note_on_c, 5, 64, 85
1, 125135, Note_on_c, 5, 64, 0
1, 125160, Note_on_c, 5, 69, 84
1, 125185, Note_on_c, 1, 88, 0
1, 125255, Note_on_c, 5, 69, 0
1, 125280, Note_on_c, 5, 72, 84
1, 125400, Note_on_c, 1, 88, 84
1, 125495, Note_on_c, 1, 88, 0
1, 125520, Note_on_c, 1, 84, 83
1, 125615, Note_on_c, 1, 84, 0
1, 125640, Note_on_c, 1, 81, 83
1, 125665, Note_on_c, 5, 72, 0
1, 125735, Note_on_c, 1, 81, 0
1, 125760, Note_on_c, 1, 77, 83
1, 125880, Note_on_c, 5, 62, 82
1, 125975, Note_on_c, 5, 62, 0
1, 126000, Note_on_c, 5, 65, 82
1, 126095, Note_on_c, 5, 65, 0
1, 126120, Note_on_c, 5, 69, 81
1, 126145, Note_on_c, 1, 77, 0
1, 126215, Note_on_c, 5, 69, 0
1, 126240, Note_on_c, 5, 74, 81
1, 126360, Note_on_c, 1, 77, 81
1, 126455, Note_on_c, 1, 77, 0
1, 126480, Note_on_c, 1, 81, 80
1, 126575, Note_on_c, 1, 81, 0
1, 126600, Note_on_c, 1, 77, 80
1, 126625, Note_on_c, 5, 74, 0
1, 126695, Note_on_c, 1, 77, 0
1, 126720, Note_on_c, 1, 86, 80
1, 126840, Note_on_c, 5, 59, 79
1, 126935, Note_on_c, 5, 59, 0
1, 126960, Note_on_c, 5, 62, 79
1, 127055, Note_on_c, 5, 62, 0
1, 127080, Note_on_c, 5, 67, 79
1, 127105, Note_on_c, 1, 86, 0
1, 127175, Note_on_c, 5, 67, 0
1, 127200, Note_on_c, 5, 71, 78
1, 127320, Note_on_c, 1, 86, 78
1, 127415, Note_on_c, 1, 86, 0
1, 127440, Note_on_c, 1, 83, 78
1, 127535, Note_on_c, 1, 83, 0
1, 127560, Note_on_c, 1, 79, 77
1, 127585, Note_on_c, 5, 71, 0
1, 127655, Note_on_c, 1, 79, 0
1, 127680, Note_on_c, 1, 76, 77
1, 127800, Note_on_c, 5, 60, 77
1, 127895, Note_on_c, 5, 60, 0
1, 127920, Note_on_c, 5, 64, 76
1, 128015, Note_on_c, 5, 64, 0
1, 128040, Note_on_c, 5, 67, 76
1, 128065, Note_on_c, 1, 76, 0
1, 128135, Note_on_c, 5, 67, 0
1, 128160, Note_on_c, 5, 72, 75
1, 128280, Note_on_c, 1, 84, 75
1, 128375, Note_on_c, 1, 84, 0
1, 128400, Note_on_c, 1, 79, 75
1, 128495, Note_on_c, 1, 79, 0
1, 128520, Note_on_c, 1, 76, 74
1, 128545, Note_on_c, 5, 72, 0
1, 128600, Tempo, 379746
1, 128615, Note_on_c, 1, 76, 0
1, 128640, Tempo, 377358
1, 128640, Note_on_c, 1, 74, 74
1, 128880, Note_on_c, 3, 69, 56
1, 128880, Note_on_c, 4, 65, 56
1, 129070, Note_on_c, 3, 69, 0
1, 129070, Note_on_c, 4, 65, 0
1, 129120, Note_on_c, 3, 69, 57
1, 129120, Note_on_c, 4, 65, 57
1, 129310, Note_on_c, 3, 69, 0
1, 129310, Note_on_c, 4, 65, 0
1, 129360, Note_on_c, 3, 69, 58
1, 129360, Note_on_c, 4, 65, 58
1, 129550, Note_on_c, 3, 69, 0
1, 129550, Note_on_c, 4, 65, 0
1, 129600, Note_on_c, 1, 74, 0
1, 129600, Note_on_c, 1, 73, 60
1, 129600, Note_on_c, 3, 69, 60
1, 129600, Note_on_c, 4, 65, 60
1, 129660, Note_on_c, 1, 74, 60
1, 129720, Note_on_c, 1, 73, 0
1, 129790, Note_on_c, 3, 69, 0
1, 129790, Note_on_c, 4, 65, 0
1, 129840, Note_on_c, 3, 69, 61
1, 129840, Note_on_c, 4, 65, 61
1, 130030, Note_on_c, 3, 69, 0
1, 130030, Note_on_c, 4, 65, 0
1, 130070, Note_on_c, 1, 74, 0
1, 130080, Note_on_c, 1, 73, 62
1, 130080, Note_on_c, 3, 69, 62
1, 130080, Note_on_c, 4, 65, 62
1, 130140, Note_on_c, 1, 74, 62
1, 130200, Note_on_c, 1, 73, 0
1, 130270, Note_on_c, 3, 69, 0
1, 130270, Note_on_c, 4, 65, 0
1, 130320, Note_on_c, 3, 69, 63
1, 130320, Note_on_c, 4, 65, 63
1, 130510, Note_on_c, 3, 69, 0
1, 130510, Note_on_c, 4, 65, 0
1, 130520, Tempo, 379746
1, 130550, Note_on_c, 1, 74, 0
1, 130560, Tempo, 377358
1, 130560, Note_on_c, 1, 81, 64
1, 130800, Note_on_c, 3, 63, 66
1, 130800, Note_on_c, 3, 60, 66
1, 130800, Note_on_c, 4, 54, 66
1, 130990, Note_on_c, 3, 60, 0
1, 130990, Note_on_c, 3, 63, 0
1, 130990, Note_on_c, 4, 54, 0
1, 131040, Note_on_c, 3, 63, 67
1, 131040, Note_on_c, 3, 60, 67
1, 131040, Note_on_c, 4, 54, 67
1, 131230, Note_on_c, 3, 60, 0
1, 131230, Note_on_c, 3, 63, 0
1, 131230, Note_on_c, 4, 54, 0
1, 131280, Note_on_c, 3, 63, 68
1, 131280, Note_on_c, 3, 60, 68
1, 131280, Note_on_c, 4, 54, 68
1, 131470, Note_on_c, 3, 60, 0
1, 131470, Note_on_c, 3, 63, 0
1, 131470, Note_on_c, 4, 54, 0
1, 131520, Note_on_c, 1, 81, 0
1, 131520, Note_on_c, 1, 80, 69
1, 131520, Note_on_c, 3, 63, 69
1, 131520, Note_on_c, 3, 60, 69
1, 131520, Note_on_c, 4, 54, 69
1, 131580, Note_on_c, 1, 81, 69
1, 131640, Note_on_c, 1, 80, 0
1, 131710, Note_on_c, 3, 60, 0
1, 131710, Note_on_c, 3, 63, 0
1, 131710, Note_on_c, 4, 54, 0
1, 131760, Note_on_c, 3, 63, 70
1, 131760, Note_on_c, 3, 60, 70
1, 131760, Note_on_c, 4, 54, 70
1, 131950, Note_on_c, 3, 60, 0
1, 131950, Note_on_c, 3, 63, 0
1, 131950, Note_on_c, 4, 54, 0
1, 131990, Note_on_c, 1, 81, 0
1, 132000, Note_on_c, 1, 80, 71
1, 132000, Note_on_c, 3, 63, 71
1, 132000, Note_on_c, 3, 60, 71
1, 132000, Note_on_c, 4, 54, 71
1, 132060, Note_on_c, 1, 81, 72
1, 132120, Note_on_c, 1, 80, 0
1, 132190, Note_on_c, 3, 60, 0
1, 132190, Note_on_c, 3, 63, 0
1, 132190, Note_on_c, 4, 54, 0
1, 132240, Note_on_c, 3, 63, 73
1, 132240, Note_on_c, 3, 60, 73
1, 132240, Note_on_c, 4, 54, 73
1, 132430, Note_on_c, 3, 60, 0
1, 132430, Note_on_c, 3, 63, 0
1, 132430, Note_on_c, 4, 54, 0
1, 132472, Note_on_c, 1, 81, 0
1, 132480, Note_on_c, 1, 79, 74
1, 132480, Note_on_c, 5, 55, 74
1, 132575, Note_on_c, 5, 55, 0
1, 132600, Note_on_c, 3, 64, 74
1, 132695, Note_on_c, 3, 64, 0
1, 132720, Note_on_c, 1, 79, 0
1, 132720, Note_on_c, 1, 81, 75
1, 132720, Note_on_c, 3, 60, 75
1, 132815, Note_on_c, 3, 60, 0
1, 132840, Note_on_c, 1, 81, 0
1, 132840, Note_on_c, 1, 83, 76
1, 132840, Note_on_c, 3, 64, 76
1, 132935, Note_on_c, 3, 64, 0
1, 132960, Note_on_c, 1, 83, 0
1, 132960, Note_on_c, 1, 84, 76
1, 132960, Note_on_c, 5, 55, 76
1, 133055, Note_on_c, 5, 55, 0
1, 133080, Note_on_c, 1, 84, 0
1, 133080, Note_on_c, 1, 86, 77
1, 133080, Note_on_c, 3, 64, 77
1, 133175, Note_on_c, 3, 64, 0
1, 133200, Note_on_c, 1, 86, 0
1, 133200, Note_on_c, 1, 88, 77
1, 133200, Note_on_c, 3, 60, 77
1, 133295, Note_on_c, 3, 60, 0
1, 133320, Note_on_c, 1, 88, 0
1, 133320, Note_on_c, 1, 86, 78
1, 133320, Note_on_c, 3, 64, 78
1, 133415, Note_on_c, 3, 64, 0
1, 133440, Note_on_c, 1, 86, 0
1, 133440, Note_on_c, 1, 84, 79
1, 133440, Note_on_c, 5, 55, 79
1, 133535, Note_on_c, 5, 55, 0
1, 133560, Note_on_c, 1, 84, 0
1, 133560, Note_on_c, 1, 83, 79
1, 133560, Note_on_c, 3, 64, 79
1, 133655, Note_on_c, 3, 64, 0
1, 133680, Note_on_c, 1, 83, 0
1, 133680, Note_on_c, 1, 81, 80
1, 133680, Note_on_c, 3, 60, 80
1, 133775, Note_on_c, 3, 60, 0
1, 133800, Note_on_c, 1, 81, 0
1, 133800, Note_on_c, 1, 79, 80
1, 133800, Note_on_c, 3, 64, 80
1, 133895, Note_on_c, 3, 64, 0
1, 133920, Note_on_c, 1, 79, 0
1, 133920, Note_on_c, 1, 77, 81
1, 133920, Note_on_c, 5, 55, 81
1, 134015, Note_on_c, 5, 55, 0
1, 134040, Note_on_c, 1, 77, 0
1, 134040, Note_on_c, 1, 76, 82
1, 134040, Note_on_c, 3, 64, 82
1, 134135, Note_on_c, 3, 64, 0
1, 134160, Note_on_c, 1, 76, 0
1, 134160, Note_on_c, 1, 74, 82
1, 134160, Note_on_c, 3, 60, 82
1, 134255, Note_on_c, 3, 60, 0
1, 134280, Note_on_c, 1, 74, 0
1, 134280, Note_on_c, 1, 72, 83
1, 134280, Note_on_c, 3, 64, 83
1, 134330, Tempo, 379746
1, 134375, Note_on_c, 3, 64, 0
1, 134376, Note_on_c, 1, 72, 0
1, 134400, Note_on_c, 1, 74, 82
1, 134400, Note_on_c, 5, 55, 82
1, 134480, Note_on_c, 1, 74, 0
1, 134480, Note_on_c, 2, 76, 82
1, 134495, Note_on_c, 5, 55, 0
1, 134520, Note_on_c, 3, 65, 82
1, 134560, Note_on_c, 2, 76, 0
1, 134560, Note_on_c, 2, 74, 82
1, 134615, Note_on_c, 3, 65, 0
1, 134640, Note_on_c, 2, 74, 0
1, 134640, Note_on_c, 2, 76, 83
1, 134640, Note_on_c, 3, 59, 83
1, 134720, Note_on_c, 2, 76, 0
1, 134720, Note_on_c, 2, 74, 83
1, 134735, Note_on_c, 3, 59, 0
1, 134760, Note_on_c, 3, 65, 83
1, 134800, Note_on_c, 2, 74, 0
1, 134800, Note_on_c, 2, 76, 83
1, 134855, Note_on_c, 3, 65, 0
1, 134880, Note_on_c, 2, 76, 0
1, 134880, Note_on_c, 2, 74, 84
1, 134880, Note_on_c, 5, 55, 84
1, 134960, Note_on_c, 2, 74, 0
1, 134960, Note_on_c, 2, 76, 84
1, 134975, Note_on_c, 5, 55, 0
1, 135000, Note_on_c, 3, 65, 84
1, 135040, Note_on_c, 2, 76, 0
1, 135040, Note_on_c, 2, 74, 84
1, 135095, Note_on_c, 3, 65, 0
1, 135120, Note_on_c, 2, 74, 0
1, 135120, Note_on_c, 2, 76, 84
1, 135120, Note_on_c, 3, 59, 84
1, 135200, Note_on_c, 2, 76, 0
1, 135200, Note_on_c, 2, 74, 85
1, 135215, Note_on_c, 3, 59, 0
1, 135240, Note_on_c, 3, 65, 85
1, 135280, Note_on_c, 2, 74, 0
1, 135280, Note_on_c, 2, 76, 85
1, 135335, Note_on_c, 3, 65, 0
1, 135360, Note_on_c, 2, 76, 0
1, 135360, Note_on_c, 2, 74, 85
1, 135360, Note_on_c, 5, 55, 85
1, 135440, Note_on_c, 2, 74, 0
1, 135440, Note_on_c, 2, 76, 86
1, 135455, Note_on_c, 5, 55, 0
1, 135480, Note_on_c, 3, 65, 86
1, 135520, Note_on_c, 2, 76, 0
1, 135520, Note_on_c, 2, 74, 86
1, 135575, Note_on_c, 3, 65, 0
1, 135600, Note_on_c, 2, 74, 0
1, 135600, Note_on_c, 2, 76, 86
1, 135600, Note_on_c, 3, 59, 86
1, 135680, Note_on_c, 2, 76, 0
1, 135680, Note_on_c, 2, 74, 87
1, 135695, Note_on_c, 3, 59, 0
1, 135720, Note_on_c, 3, 65, 87
1, 135760, Note_on_c, 2, 74, 0
1, 135760, Note_on_c, 2, 76, 87
1, 135815, Note_on_c, 3, 65, 0
1, 135840, Note_on_c, 2, 76, 0
1, 135840, Note_on_c, 2, 74, 87
1, 135840, Note_on_c, 5, 55, 87
1, 135920, Note_on_c, 2, 74, 0
1, 135920, Note_on_c, 2, 76, 88
1, 135935, Note_on_c, 5, 55, 0
1, 135960, Note_on_c, 3, 65, 88
1, 136000, Note_on_c, 2, 76, 0
1, 136000, Note_on_c, 2, 74, 88
1, 136055, Note_on_c, 3, 65, 0
1, 136080, Note_on_c, 2, 74, 0
1, 136080, Note_on_c, 2, 72, 88
1, 136080, Note_on_c, 3, 59, 88
1, 136175, Note_on_c, 3, 59, 0
1, 136200, Note_on_c, 2, 72, 0
1, 136200, Note_on_c, 2, 74, 89
1, 136200, Note_on_c, 3, 65, 89
1, 136260, Tempo, 384615
1, 136295, Note_on_c, 3, 65, 0
1, 136296, Note_on_c, 2, 74, 0
1, 136320, Tempo, 377358
1, 136320, Note_on_c, 1, 72, 89
1, 136320, Note_on_c, 4, 64, 89
1, 136320, Note_on_c, 5, 60, 89
1, 136705, Note_on_c, 1, 72, 0
1, 136705, Note_on_c, 4, 64, 0
1, 136705, Note_on_c, 5, 60, 0
1, 136800, Note_on_c, 1, 72, 88
1, 136895, Note_on_c, 1, 72, 0
1, 136920, Note_on_c, 1, 67, 87
1, 137015, Note_on_c, 1, 67, 0
1, 137040, Note_on_c, 1, 72, 87
1, 137135, Note_on_c, 1, 72, 0
1, 137160, Note_on_c, 1, 76, 86
1, 137255, Note_on_c, 1, 76, 0
1, 137280, Note_on_c, 1, 79, 86
1, 137375, Note_on_c, 1, 79, 0
1, 137400, Note_on_c, 1, 76, 86
1, 137495, Note_on_c, 1, 76, 0
1, 137520, Note_on_c, 1, 72, 85
1, 137615, Note_on_c, 1, 72, 0
1, 137640, Note_on_c, 1, 76, 85
1, 137735, Note_on_c, 1, 76, 0
1, 137760, Note_on_c, 1, 77, 84
1, 137760, Note_on_c, 4, 65, 84
1, 137760, Note_on_c, 4, 62, 84
1, 137760, Note_on_c, 5, 55, 84
1, 137855, Note_on_c, 1, 77, 0
1, 137880, Note_on_c, 1, 74, 84
1, 137975, Note_on_c, 1, 74, 0
1, 138000, Note_on_c, 1, 71, 84
1, 138095, Note_on_c, 1, 71, 0
1, 138120, Note_on_c, 1, 74, 83
1, 138145, Note_on_c, 4, 62, 0
1, 138145, Note_on_c, 4, 65, 0
1, 138145, Note_on_c, 5, 55, 0
1, 138200, Tempo, 379746
1, 138215, Note_on_c, 1, 74, 0
1, 138240, Tempo, 377358
1, 138240, Note_on_c, 1, 72, 83
1, 138240, Note_on_c, 4, 64, 83
1, 138240, Note_on_c, 5, 60, 83
1, 138625, Note_on_c, 1, 72, 0
1, 138625, Note_on_c, 4, 64, 0
1, 138625, Note_on_c, 5, 60, 0
1, 138720, Note_on_c, 1, 60, 81
1, 138815, Note_on_c, 1, 60, 0
1, 138840, Note_on_c, 1, 55, 81
1, 138935, Note_on_c, 1, 55, 0
1, 138960, Note_on_c, 1, 60, 80
1, 139055, Note_on_c, 1, 60, 0
1, 139080, Note_on_c, 1, 64, 80
1, 139175, Note_on_c, 1, 64, 0
1, 139200, Note_on_c, 1, 67, 80
1, 139295, Note_on_c, 1, 67, 0
1, 139320, Note_on_c, 1, 64, 79
1, 139415, Note_on_c, 1, 64, 0
1, 139440, Note_on_c, 1, 60, 79
1, 139535, Note_on_c, 1, 60, 0
1, 139560, Note_on_c, 1, 64, 78
1, 139655, Note_on_c, 1, 64, 0
1, 139680, Note_on_c, 1, 65, 78
1, 139680, Note_on_c, 4, 50, 78
1, 139680, Note_on_c, 4, 53, 78
1, 139680, Note_on_c, 5, 43, 78
1, 139775, Note_on_c, 1, 65, 0
1, 139800, Note_on_c, 1, 62, 78
1, 139895, Note_on_c, 1, 62, 0
1, 139920, Note_on_c, 1, 59, 77
1, 140015, Note_on_c, 1, 59, 0
1, 140040, Note_on_c, 1, 62, 77
1, 140065, Note_on_c, 4, 53, 0
1, 140065, Note_on_c, 4, 50, 0
1, 140065, Note_on_c, 5, 43, 0
1, 140120, Tempo, 394736
1, 140135, Note_on_c, 1, 62, 0
1, 140160, Tempo, 402684
1, 140160, Note_on_c, 1, 60, 77
1, 140160, Note_on_c, 4, 52, 77
1, 140160, Note_on_c, 5, 48, 77
1, 140448, Note_on_c, 1, 60, 0
1, 140448, Note_on_c, 4, 52, 0
1, 140448, Note_on_c, 5, 48, 0
1, 140640, Note_on_c, 1, 84, 74
1, 140640, Note_on_c, 2, 79, 74
1, 140640, Note_on_c, 2, 76, 74
1, 140640, Note_on_c, 5, 48, 74
1, 140640, Note_on_c, 5, 60, 74
1, 140880, Tempo, 408163
1, 140950, Note_on_c, 1, 84, 0
1, 140950, Note_on_c, 2, 76, 0
1, 140950, Note_on_c, 2, 79, 0
1, 140950, Note_on_c, 5, 60, 0
1, 140950, Note_on_c, 5, 48, 0
1, 141120, Tempo, 428571
1, 141120, Note_on_c, 1, 72, 70
1, 141120, Note_on_c, 5, 36, 70
1, 141120, Note_on_c, 5, 48, 70
1, 141480, Note_on_c, 5, 48, 0
1, 141487, Note_on_c, 1, 72, 0
1, 141487, Note_on_c, 5, 36, 0
1, 141600, Tempo, 659340
1, 144000, Tempo, 1016949
1, 144000, Note_on_c, 1, 71, 36
1, 144000, Note_on_c, 4, 55, 36
1, 144096, Note_on_c, 4, 55, 0
1, 144120, Note_on_c, 3, 62, 37
1, 144216, Note_on_c, 3, 62, 0
1, 144240, Note_on_c, 3, 59, 38
1, 144336, Note_on_c, 3, 59, 0
1, 144360, Note_on_c, 3, 62, 38
1, 144456, Note_on_c, 3, 62, 0
1, 144480, Note_on_c, 4, 55, 39
1, 144576, Note_on_c, 4, 55, 0
1, 144600, Note_on_c, 3, 62, 40
1, 144696, Note_on_c, 3, 62, 0
1, 144720, Note_on_c, 3, 59, 41
1, 144816, Note_on_c, 3, 59, 0
1, 144840, Note_on_c, 3, 62, 41
1, 144936, Note_on_c, 3, 62, 0
1, 144960, Note_on_c, 1, 71, 0
1, 144960, Note_on_c, 1, 74, 40
1, 144960, Note_on_c, 4, 57, 42
1, 145056, Note_on_c, 4, 57, 0
1, 145080, Note_on_c, 1, 74, 0
1, 145080, Note_on_c, 1, 72, 42
1, 145080, Note_on_c, 3, 62, 43
1, 145176, Note_on_c, 3, 62, 0
1, 145200, Note_on_c, 1, 72, 0
1, 145200, Note_on_c, 1, 71, 43
1, 145200, Note_on_c, 3, 60, 44
1, 145296, Note_on_c, 3, 60, 0
1, 145320, Note_on_c, 1, 71, 0
1, 145320, Note_on_c, 1, 72, 44
1, 145320, Note_on_c, 3, 62, 44
1, 145416, Note_on_c, 3, 62, 0
1, 145440, Note_on_c, 1, 72, 0
1, 145440, Note_on_c, 1, 74, 46
1, 145440, Note_on_c, 4, 55, 46
1, 145536, Note_on_c, 4, 55, 0
1, 145560, Note_on_c, 3, 62, 45
1, 145656, Note_on_c, 3, 62, 0
1, 145680, Note_on_c, 3, 59, 44
1, 145776, Note_on_c, 3, 59, 0
1, 145800, Note_on_c, 1, 74, 0
1, 145800, Note_on_c, 1, 71, 41
1, 145800, Note_on_c, 3, 62, 44
1, 145896, Note_on_c, 3, 62, 0
1, 145920, Note_on_c, 1, 71, 0
1, 145920, Note_on_c, 1, 67, 39
1, 145920, Note_on_c, 4, 55, 43
1, 146016, Note_on_c, 4, 55, 0
1, 146040, Note_on_c, 3, 62, 42
1, 146136, Note_on_c, 3, 62, 0
1, 146160, Note_on_c, 3, 59, 41
1, 146256, Note_on_c, 3, 59, 0
1, 146280, Note_on_c, 3, 62, 41
1, 146376, Note_on_c, 3, 62, 0
1, 146400, Note_on_c, 1, 67, 0
1, 146400, Note_on_c, 4, 55, 40
1, 146496, Note_on_c, 4, 55, 0
1, 146520, Note_on_c, 3, 62, 39
1, 146616, Note_on_c, 3, 62, 0
1, 146640, Note_on_c, 3, 59, 39
1, 146736, Note_on_c, 3, 59, 0
1, 146760, Note_on_c, 3, 62, 38
1, 146840, Tempo, 1034482
1, 146856, Note_on_c, 3, 62, 0
1, 146880, Tempo, 1016949
1, 146880, Note_on_c, 1, 79, 40
1, 146880, Note_on_c, 4, 55, 40
1, 146976, Note_on_c, 4, 55, 0
1, 147000, Note_on_c, 3, 64, 41
1, 147096, Note_on_c, 3, 64, 0
1, 147120, Note_on_c, 3, 60, 42
1, 147216, Note_on_c, 3, 60, 0
1, 147240, Note_on_c, 3, 64, 42
1, 147336, Note_on_c, 3, 64, 0
1, 147360, Note_on_c, 4, 55, 43
1, 147456, Note_on_c, 4, 55, 0
1, 147480, Note_on_c, 3, 64, 44
1, 147576, Note_on_c, 3, 64, 0
1, 147600, Note_on_c, 1, 79, 0
1, 147600, Note_on_c, 1, 81, 42
1, 147600, Note_on_c, 3, 60, 45
1, 147696, Note_on_c, 3, 60, 0
1, 147720, Note_on_c, 1, 81, 0
1, 147720, Note_on_c, 1, 79, 43
1, 147720, Note_on_c, 3, 64, 45
1, 147816, Note_on_c, 3, 64, 0
1, 147840, Note_on_c, 1, 79, 0
1, 147840, Note_on_c, 1, 78, 45
1, 147840, Note_on_c, 4, 55, 46
1, 147936, Note_on_c, 4, 55, 0
1, 147960, Note_on_c, 1, 78, 0
1, 147960, Note_on_c, 1, 76, 46
1, 147960, Note_on_c, 3, 61, 47
1, 148056, Note_on_c, 3, 61, 0
1, 148080, Note_on_c, 1, 76, 0
1, 148080, Note_on_c, 1, 74, 48
1, 148080, Note_on_c, 3, 58, 48
1, 148176, Note_on_c, 3, 58, 0
1, 148200, Note_on_c, 1, 74, 0
1, 148200, Note_on_c, 1, 73, 50
1, 148200, Note_on_c, 3, 61, 48
1, 148296, Note_on_c, 3, 61, 0
1, 148320, Note_on_c, 1, 73, 0
1, 148320, Note_on_c, 1, 74, 51
1, 148320, Note_on_c, 4, 55, 50
1, 148416, Note_on_c, 4, 55, 0
1, 148440, Note_on_c, 3, 62, 49
1, 148536, Note_on_c, 3, 62, 0
1, 148560, Note_on_c, 3, 59, 48
1, 148656, Note_on_c, 3, 59, 0
1, 148680, Note_on_c, 1, 74, 0
1, 148680, Note_on_c, 1, 71, 46
1, 148680, Note_on_c, 3, 62, 47
1, 148776, Note_on_c, 3, 62, 0
1, 148800, Note_on_c, 1, 71, 0
1, 148800, Note_on_c, 1, 67, 45
1, 148800, Note_on_c, 4, 55, 46
1, 148896, Note_on_c, 4, 55, 0
1, 148920, Note_on_c, 3, 62, 45
1, 149016, Note_on_c, 3, 62, 0
1, 149040, Note_on_c, 3, 59, 44
1, 149136, Note_on_c, 3, 59, 0
1, 149160, Note_on_c, 3, 62, 44
1, 149256, Note_on_c, 3, 62, 0
1, 149280, Note_on_c, 1, 67, 0
1, 149280, Note_on_c, 4, 55, 43
1, 149376, Note_on_c, 4, 55, 0
1, 149400, Note_on_c, 3, 62, 42
1, 149496, Note_on_c, 3, 62, 0
1, 149520, Note_on_c, 3, 59, 41
1, 149616, Note_on_c, 3, 59, 0
1, 149640, Note_on_c, 3, 62, 40
1, 149700, Tempo, 1034482
1, 149736, Note_on_c, 3, 62, 0
1, 149760, Tempo, 1016949
1, 149760, Note_on_c, 1, 72, 42
1, 149760, Note_on_c, 4, 57, 42
1, 149856, Note_on_c, 4, 57, 0
1, 149880, Note_on_c, 3, 62, 43
1, 149976, Note_on_c, 3, 62, 0
1, 150000, Note_on_c, 3, 60, 44
1, 150096, Note_on_c, 3, 60, 0
1, 150120, Note_on_c, 1, 72, 0
1, 150120, Note_on_c, 1, 69, 44
1, 150120, Note_on_c, 3, 62, 44
1, 150216, Note_on_c, 3, 62, 0
1, 150240, Note_on_c, 1, 69, 0
1, 150240, Note_on_c, 1, 66, 45
1, 150240, Note_on_c, 4, 57, 45
1, 150336, Note_on_c, 4, 57, 0
1, 150360, Note_on_c, 3, 62, 46
1, 150395, Note_on_c, 1, 66, 0
1, 150456, Note_on_c, 3, 62, 0
1, 150480, Note_on_c, 1, 69, 47
1, 150480, Note_on_c, 3, 60, 47
1, 150576, Note_on_c, 3, 60, 0
1, 150600, Note_on_c, 3, 62, 48
1, 150635, Note_on_c, 1, 69, 0
1, 150696, Note_on_c, 3, 62, 0
1, 150720, Note_on_c, 1, 71, 49
1, 150720, Note_on_c, 4, 57, 49
1, 150816, Note_on_c, 4, 57, 0
1, 150840, Note_on_c, 3, 62, 49
1, 150875, Note_on_c, 1, 71, 0
1, 150936, Note_on_c, 3, 62, 0
1, 150960, Note_on_c, 1, 72, 50
1, 150960, Note_on_c, 3, 60, 50
1, 151056, Note_on_c, 3, 60, 0
1, 151080, Note_on_c, 3, 62, 51
1, 151115, Note_on_c, 1, 72, 0
1, 151160, Tempo, 1034482
1, 151176, Note_on_c, 3, 62, 0
1, 151200, Tempo, 1016949
1, 151200, Note_on_c, 1, 74, 52
1, 151200, Note_on_c, 4, 55, 52
1, 151296, Note_on_c, 4, 55, 0
1, 151320, Note_on_c, 3, 62, 53
1, 151416, Note_on_c, 3, 62, 0
1, 151440, Note_on_c, 3, 59, 54
1, 151536, Note_on_c, 3, 59, 0
1, 151560, Note_on_c, 1, 74, 0
1, 151560, Note_on_c, 1, 71, 55
1, 151560, Note_on_c, 3, 62, 55
1, 151656, Note_on_c, 3, 62, 0
1, 151680, Note_on_c, 1, 71, 0
1, 151680, Note_on_c, 1, 79, 56
1, 151680, Note_on_c, 4, 52, 55
1, 151776, Note_on_c, 4, 52, 0
1, 151800, Note_on_c, 3, 59, 56
1, 151896, Note_on_c, 3, 59, 0
1, 151920, Note_on_c, 3, 55, 57
1, 152016, Note_on_c, 3, 55, 0
1, 152040, Note_on_c, 3, 59, 58
1, 152136, Note_on_c, 3, 59, 0
1, 152160, Note_on_c, 1, 79, 0
1, 152160, Note_on_c, 4, 47, 59
1, 152256, Note_on_c, 4, 47, 0
1, 152280, Note_on_c, 3, 55, 60
1, 152376, Note_on_c, 3, 55, 0
1, 152400, Note_on_c, 3, 50, 60
1, 152496, Note_on_c, 3, 50, 0
1, 152520, Note_on_c, 3, 55, 61
1, 152600, Tempo, 1034482
1, 152616, Note_on_c, 3, 55, 0
1, 152640, Tempo, 1034482
1, 152640, Note_on_c, 1, 81, 63
1, 152640, Note_on_c, 3, 52, 63
1, 152640, Note_on_c, 4, 48, 63
1, 152760, Note_on_c, 1, 81, 0
1, 152760, Note_on_c, 1, 79, 61
1, 152880, Note_on_c, 1, 79, 0
1, 152880, Note_on_c, 1, 78, 59
1, 153000, Note_on_c, 1, 78, 0
1, 153000, Note_on_c, 1, 79, 57
1, 153120, Note_on_c, 1, 79, 0
1, 153120, Note_on_c, 1, 78, 55
1, 153120, Note_on_c, 3, 52, 0
1, 153120, Note_on_c, 3, 55, 55
1, 153240, Note_on_c, 1, 78, 0
1, 153240, Note_on_c, 1, 76, 53
1, 153360, Note_on_c, 1, 76, 0
1, 153360, Note_on_c, 1, 75, 52
1, 153480, Note_on_c, 1, 75, 0
1, 153480, Note_on_c, 1, 76, 50
1, 153600, Note_on_c, 1, 76, 0
1, 153600, Note_on_c, 1, 74, 48
1, 153600, Note_on_c, 4, 48, 0
1, 153600, Note_on_c, 4, 52, 48
1, 153720, Note_on_c, 1, 74, 0
1, 153720, Note_on_c, 1, 72, 46
1, 153840, Note_on_c, 1, 72, 0
1, 153840, Note_on_c, 1, 71, 44
1, 153960, Note_on_c, 1, 71, 0
1, 153960, Note_on_c, 1, 72, 42
1, 154040, Tempo, 1071428
1, 154080, Note_on_c, 1, 72, 0
1, 154080, Note_on_c, 1, 71, 44
1, 154080, Note_on_c, 3, 55, 0
1, 154080, Note_on_c, 3, 55, 44
1, 154080, Note_on_c, 4, 52, 0
1, 154080, Note_on_c, 4, 50, 44
1, 154440, Note_on_c, 1, 71, 0
1, 154440, Note_on_c, 1, 72, 38
1, 154500, Note_on_c, 1, 72, 0
1, 154500, Note_on_c, 1, 71, 37
1, 154560, Note_on_c, 1, 71, 0
1, 154560, Note_on_c, 1, 69, 36
1, 154560, Note_on_c, 3, 55, 0
1, 154560, Note_on_c, 3, 54, 36
1, 154750, Note_on_c, 1, 69, 0
1, 154760, Tempo, 1153846
1, 154800, Tempo, 1071428
1, 154800, Note_on_c, 1, 74, 32
1, 155040, Note_on_c, 1, 74, 0
1, 155040, Note_on_c, 1, 73, 33
1, 155040, Note_on_c, 3, 54, 0
1, 155040, Note_on_c, 4, 50, 0
1, 155280, Note_on_c, 1, 73, 0
1, 155280, Note_on_c, 1, 72, 34
1, 155460, Tempo, 1111111
1, 155520, Tempo, 1016949
1, 155520, Note_on_c, 1, 72, 0
1, 155520, Note_on_c, 1, 71, 37
1, 155520, Note_on_c, 4, 55, 37
1, 155616, Note_on_c, 4, 55, 0
1, 155640, Note_on_c, 3, 62, 38
1, 155736, Note_on_c, 3, 62, 0
1, 155760, Note_on_c, 3, 59, 39
1, 155856, Note_on_c, 3, 59, 0
1, 155880, Note_on_c, 3, 62, 39
1, 155976, Note_on_c, 3, 62, 0
1, 156000, Note_on_c, 4, 55, 40
1, 156096, Note_on_c, 4, 55, 0
1, 156120, Note_on_c, 1, 71, 0
1, 156120, Note_on_c, 1, 67, 41
1, 156120, Note_on_c, 3, 62, 41
1, 156216, Note_on_c, 3, 62, 0
1, 156240, Note_on_c, 1, 67, 0
1, 156240, Note_on_c, 1, 71, 42
1, 156240, Note_on_c, 3, 59, 42
1, 156336, Note_on_c, 3, 59, 0
1, 156360, Note_on_c, 1, 71, 0
1, 156360, Note_on_c, 1, 74, 43
1, 156360, Note_on_c, 3, 62, 43
1, 156456, Note_on_c, 3, 62, 0
1, 156480, Note_on_c, 1, 74, 0
1, 156480, Note_on_c, 1, 72, 44
1, 156480, Note_on_c, 4, 57, 44
1, 156576, Note_on_c, 4, 57, 0
1, 156600, Note_on_c, 1, 72, 0
1, 156600, Note_on_c, 1, 69, 45
1, 156600, Note_on_c, 3, 62, 45
1, 156696, Note_on_c, 3, 62, 0
1, 156720, Note_on_c, 1, 69, 0
1, 156720, Note_on_c, 1, 72, 45
1, 156720, Note_on_c, 3, 60, 45
1, 156816, Note_on_c, 3, 60, 0
1, 156840, Note_on_c, 1, 72, 0
1, 156840, Note_on_c, 1, 76, 46
1, 156840, Note_on_c, 3, 62, 46
1, 156936, Note_on_c, 3, 62, 0
1, 156960, Note_on_c, 1, 76, 0
1, 156960, Note_on_c, 1, 74, 48
1, 156960, Note_on_c, 4, 55, 48
1, 157056, Note_on_c, 4, 55, 0
1, 157080, Note_on_c, 3, 62, 49
1, 157176, Note_on_c, 3, 62, 0
1, 157200, Note_on_c, 3, 59, 48
1, 157296, Note_on_c, 3, 59, 0
1, 157320, Note_on_c, 1, 74, 0
1, 157320, Note_on_c, 1, 71, 47
1, 157320, Note_on_c, 3, 62, 47
1, 157416, Note_on_c, 3, 62, 0
1, 157440, Note_on_c, 1, 71, 0
1, 157440, Note_on_c, 1, 67, 46
1, 157440, Note_on_c, 4, 55, 46
1, 157520, Note_on_c, 1, 67, 0
1, 157536, Note_on_c, 4, 55, 0
1, 157560, Note_on_c, 1, 67, 45
1, 157560, Note_on_c, 3, 62, 45
1, 157640, Note_on_c, 1, 67, 0
1, 157656, Note_on_c, 3, 62, 0
1, 157680, Note_on_c, 1, 69, 44
1, 157680, Note_on_c, 3, 59, 44
1, 157760, Note_on_c, 1, 69, 0
1, 157776, Note_on_c, 3, 59, 0
1, 157800, Note_on_c, 1, 71, 44
1, 157800, Note_on_c, 3, 62, 44
1, 157880, Note_on_c, 1, 71, 0
1, 157896, Note_on_c, 3, 62, 0
1, 157920, Note_on_c, 1, 72, 43
1, 157920, Note_on_c, 4, 55, 43
1, 158000, Note_on_c, 1, 72, 0
1, 158016, Note_on_c, 4, 55, 0
1, 158040, Note_on_c, 1, 74, 42
1, 158040, Note_on_c, 3, 62, 42
1, 158120, Note_on_c, 1, 74, 0
1, 158136, Note_on_c, 3, 62, 0
1, 158160, Note_on_c, 1, 76, 41
1, 158160, Note_on_c, 3, 59, 41
1, 158240, Note_on_c, 1, 76, 0
1, 158256, Note_on_c, 3, 59, 0
1, 158280, Note_on_c, 1, 78, 40
1, 158280, Note_on_c, 3, 62, 40
1, 158360, Tempo, 1034482
1, 158360, Note_on_c, 1, 78, 0
1, 158376, Note_on_c, 3, 62, 0
1, 158400, Tempo, 1016949
1, 158400, Note_on_c, 1, 79, 42
1, 158400, Note_on_c, 4, 55, 42
1, 158496, Note_on_c, 4, 55, 0
1, 158520, Note_on_c, 1, 79, 0
1, 158520, Note_on_c, 1, 78, 43
1, 158520, Note_on_c, 3, 64, 43
1, 158616, Note_on_c, 3, 64, 0
1, 158640, Note_on_c, 1, 78, 0
1, 158640, Note_on_c, 1, 79, 44
1, 158640, Note_on_c, 3, 60, 44
1, 158736, Note_on_c, 3, 60, 0
1, 158760, Note_on_c, 1, 79, 0
1, 158760, Note_on_c, 1, 78, 45
1, 158760, Note_on_c, 3, 64, 45
1, 158856, Note_on_c, 3, 64, 0
1, 158880, Note_on_c, 1, 78, 0
1, 158880, Note_on_c, 1, 81, 46
1, 158880, Note_on_c, 4, 55, 46
1, 158976, Note_on_c, 4, 55, 0
1, 159000, Note_on_c, 1, 81, 0
1, 159000, Note_on_c, 1, 79, 46
1, 159000, Note_on_c, 3, 64, 46
1, 159096, Note_on_c, 3, 64, 0
1, 159120, Note_on_c, 1, 79, 0
1, 159120, Note_on_c, 1, 78, 47
1, 159120, Note_on_c, 3, 60, 47
1, 159216, Note_on_c, 3, 60, 0
1, 159240, Note_on_c, 1, 78, 0
1, 159240, Note_on_c, 1, 79, 48
1, 159240, Note_on_c, 3, 64, 48
1, 159336, Note_on_c, 3, 64, 0
1, 159360, Note_on_c, 1, 79, 0
1, 159360, Note_on_c, 1, 78, 49
1, 159360, Note_on_c, 4, 55, 49
1, 159456, Note_on_c, 4, 55, 0
1, 159480, Note_on_c, 1, 78, 0
1, 159480, Note_on_c, 1, 76, 50
1, 159480, Note_on_c, 3, 61, 50
1, 159576, Note_on_c, 3, 61, 0
1, 159600, Note_on_c, 1, 76, 0
1, 159600, Note_on_c, 1, 74, 51
1, 159600, Note_on_c, 3, 58, 51
1, 159696, Note_on_c, 3, 58, 0
1, 159720, Note_on_c, 1, 74, 0
1, 159720, Note_on_c, 1, 73, 52
1, 159720, Note_on_c, 3, 61, 52
1, 159816, Note_on_c, 3, 61, 0
1, 159840, Note_on_c, 1, 73, 0
1, 159840, Note_on_c, 1, 74, 55
1, 159840, Note_on_c, 4, 55, 52
1, 159936, Note_on_c, 4, 55, 0
1, 159960, Note_on_c, 1, 74, 0
1, 159960, Note_on_c, 1, 71, 53
1, 159960, Note_on_c, 3, 62, 51
1, 160056, Note_on_c, 3, 62, 0
1, 160080, Note_on_c, 1, 71, 0
1, 160080, Note_on_c, 1, 74, 51
1, 160080, Note_on_c, 3, 59, 50
1, 160176, Note_on_c, 3, 59, 0
1, 160200, Note_on_c, 1, 74, 0
1, 160200, Note_on_c, 1, 71, 50
1, 160200, Note_on_c, 3, 62, 49
1, 160296, Note_on_c, 3, 62, 0
1, 160320, Note_on_c, 1, 71, 0
1, 160320, Note_on_c, 1, 67, 48
1, 160320, Note_on_c, 4, 55, 48
1, 160416, Note_on_c, 4, 55, 0
1, 160440, Note_on_c, 3, 62, 47
1, 160536, Note_on_c, 3, 62, 0
1, 160560, Note_on_c, 3, 59, 47
1, 160656, Note_on_c, 3, 59, 0
1, 160680, Note_on_c, 3, 62, 46
1, 160776, Note_on_c, 3, 62, 0
1, 160800, Note_on_c, 1, 67, 0
1, 160800, Note_on_c, 4, 55, 45
1, 160896, Note_on_c, 4, 55, 0
1, 160920, Note_on_c, 3, 62, 44
1, 161016, Note_on_c, 3, 62, 0
1, 161040, Note_on_c, 3, 59, 43
1, 161136, Note_on_c, 3, 59, 0
1, 161160, Note_on_c, 3, 62, 42
1, 161220, Tempo, 1034482
1, 161256, Note_on_c, 3, 62, 0
1, 161280, Tempo, 1016949
1, 161280, Note_on_c, 1, 72, 44
1, 161280, Note_on_c, 4, 57, 44
1, 161376, Note_on_c, 4, 57, 0
1, 161400, Note_on_c, 1, 72, 0
1, 161400, Note_on_c, 1, 69, 45
1, 161400, Note_on_c, 3, 62, 45
1, 161496, Note_on_c, 3, 62, 0
1, 161520, Note_on_c, 1, 69, 0
1, 161520, Note_on_c, 1, 72, 46
1, 161520, Note_on_c, 3, 60, 46
1, 161616, Note_on_c, 3, 60, 0
1, 161640, Note_on_c, 1, 72, 0
1, 161640, Note_on_c, 1, 69, 47
1, 161640, Note_on_c, 3, 62, 47
1, 161736, Note_on_c, 3, 62, 0
1, 161760, Note_on_c, 1, 69, 0
1, 161760, Note_on_c, 1, 66, 49
1, 161760, Note_on_c, 4, 57, 49
1, 161840, Note_on_c, 1, 66, 0
1, 161856, Note_on_c, 4, 57, 0
1, 161880, Note_on_c, 1, 69, 50
1, 161880, Note_on_c, 3, 62, 50
1, 161976, Note_on_c, 3, 62, 0
1, 162000, Note_on_c, 1, 69, 0
1, 162000, Note_on_c, 1, 68, 51
1, 162000, Note_on_c, 3, 60, 51
1, 162096, Note_on_c, 3, 60, 0
1, 162120, Note_on_c, 1, 68, 0
1, 162120, Note_on_c, 1, 69, 52
1, 162120, Note_on_c, 3, 62, 52
1, 162216, Note_on_c, 3, 62, 0
1, 162240, Note_on_c, 1, 69, 0
1, 162240, Note_on_c, 1, 70, 53
1, 162240, Note_on_c, 4, 57, 53
1, 162336, Note_on_c, 4, 57, 0
1, 162360, Note_on_c, 1, 70, 0
1, 162360, Note_on_c, 1, 71, 54
1, 162360, Note_on_c, 3, 62, 54
1, 162456, Note_on_c, 3, 62, 0
1, 162480, Note_on_c, 1, 71, 0
1, 162480, Note_on_c, 1, 72, 55
1, 162480, Note_on_c, 3, 60, 55
1, 162576, Note_on_c, 3, 60, 0
1, 162600, Note_on_c, 1, 72, 0
1, 162600, Note_on_c, 1, 73, 56
1, 162600, Note_on_c, 3, 62, 56
1, 162696, Note_on_c, 1, 73, 0
1, 162696, Note_on_c, 3, 62, 0
1, 162720, Note_on_c, 1, 74, 58
1, 162720, Note_on_c, 4, 55, 58
1, 162816, Note_on_c, 4, 55, 0
1, 162840, Note_on_c, 1, 74, 0
1, 162840, Note_on_c, 1, 71, 59
1, 162840, Note_on_c, 3, 62, 59
1, 162936, Note_on_c, 3, 62, 0
1, 162960, Note_on_c, 1, 71, 0
1, 162960, Note_on_c, 1, 74, 60
1, 162960, Note_on_c, 3, 59, 60
1, 163056, Note_on_c, 3, 59, 0
1, 163080, Note_on_c, 1, 74, 0
1, 163080, Note_on_c, 1, 71, 61
1, 163080, Note_on_c, 3, 62, 61
1, 163176, Note_on_c, 3, 62, 0
1, 163200, Note_on_c, 1, 79, 62
1, 163200, Note_on_c, 4, 52, 62
1, 163207, Note_on_c, 1, 71, 0
1, 163296, Note_on_c, 4, 52, 0
1, 163320, Note_on_c, 3, 59, 63
1, 163416, Note_on_c, 3, 59, 0
1, 163440, Note_on_c, 3, 55, 64
1, 163536, Note_on_c, 3, 55, 0
1, 163560, Note_on_c, 3, 59, 65
1, 163656, Note_on_c, 3, 59, 0
1, 163680, Note_on_c, 1, 79, 0
1, 163680, Note_on_c, 4, 47, 66
1, 163776, Note_on_c, 4, 47, 0
1, 163800, Note_on_c, 1, 83, 68
1, 163800, Note_on_c, 3, 55, 68
1, 163896, Note_on_c, 3, 55, 0
1, 163920, Note_on_c, 1, 83, 0
1, 163920, Note_on_c, 1, 78, 69
1, 163920, Note_on_c, 3, 50, 69
1, 164016, Note_on_c, 3, 50, 0
1, 164040, Note_on_c, 1, 78, 0
1, 164040, Note_on_c, 1, 79, 70
1, 164040, Note_on_c, 3, 55, 70
1, 164120, Tempo, 1034482
1, 164136, Note_on_c, 3, 55, 0
1, 164160, Tempo, 1016949
1, 164160, Note_on_c, 1, 79, 0
1, 164160, Note_on_c, 1, 75, 72
1, 164160, Note_on_c, 4, 48, 72
1, 164256, Note_on_c, 4, 48, 0
1, 164280, Note_on_c, 1, 75, 0
1, 164280, Note_on_c, 1, 76, 71
1, 164280, Note_on_c, 3, 57, 71
1, 164376, Note_on_c, 3, 57, 0
1, 164400, Note_on_c, 1, 76, 0
1, 164400, Note_on_c, 1, 72, 69
1, 164400, Note_on_c, 3, 52, 69
1, 164496, Note_on_c, 3, 52, 0
1, 164520, Note_on_c, 1, 72, 0
1, 164520, Note_on_c, 1, 69, 67
1, 164520, Note_on_c, 3, 57, 67
1, 164600, Tempo, 1034482
1, 164616, Note_on_c, 3, 57, 0
1, 164640, Note_on_c, 1, 69, 0
1, 164640, Note_on_c, 1, 67, 65
1, 164640, Note_on_c, 4, 50, 65
1, 164736, Note_on_c, 4, 50, 0
1, 164760, Note_on_c, 3, 59, 63
1, 164856, Note_on_c, 3, 59, 0
1, 164880, Note_on_c, 3, 55, 61
1, 164970, Note_on_c, 1, 67, 0
1, 164976, Note_on_c, 3, 55, 0
1, 165000, Note_on_c, 1, 67, 59
1, 165000, Note_on_c, 3, 59, 59
1, 165080, Tempo, 1071428
1, 165096, Note_on_c, 1, 67, 0
1, 165096, Note_on_c, 3, 59, 0
1, 165120, Note_on_c, 1, 71, 57
1, 165120, Note_on_c, 2, 66, 57
1, 165120, Note_on_c, 4, 50, 57
1, 165216, Note_on_c, 4, 50, 0
1, 165240, Note_on_c, 1, 71, 0
1, 165240, Note_on_c, 1, 69, 55
1, 165240, Note_on_c, 3, 60, 55
1, 165336, Note_on_c, 3, 60, 0
1, 165360, Note_on_c, 1, 69, 0
1, 165360, Note_on_c, 1, 67, 53
1, 165360, Note_on_c, 3, 57, 53
1, 165456, Note_on_c, 3, 57, 0
1, 165470, Tempo, 1200000
1, 165480, Note_on_c, 1, 67, 0
1, 165480, Note_on_c, 1, 69, 51
1, 165480, Note_on_c, 3, 60, 51
1, 165562, Note_on_c, 2, 66, 0
1, 165576, Note_on_c, 1, 69, 0
1, 165576, Note_on_c, 3, 60, 0
1, 165600, Note_on_c, 1, 69, 54
1, 165600, Note_on_c, 2, 66, 54
1, 165600, Note_on_c, 3, 60, 54
1, 165600, Note_on_c, 4, 55, 54
1, 166080, Note_on_c, 1, 69, 0
1, 166080, Note_on_c, 1, 67, 40
1, 166080, Note_on_c, 2, 66, 0
1, 166080, Note_on_c, 3, 60, 0
1, 166080, Note_on_c, 3, 59, 40
1, 166560, Note_on_c, 1, 67, 0
1, 166560, Note_on_c, 3, 59, 0
1, 166560, Note_on_c, 4, 55, 0
1, 166570, Tempo, 1250000
1, 167040, Tempo, 1016949
1, 167040, Note_on_c, 1, 74, 30
1, 167040, Note_on_c, 4, 62, 30
1, 167136, Note_on_c, 4, 62, 0
1, 167160, Note_on_c, 3, 69, 31
1, 167256, Note_on_c, 3, 69, 0
1, 167280, Note_on_c, 3, 66, 31
1, 167376, Note_on_c, 3, 66, 0
1, 167400, Note_on_c, 3, 69, 32
1, 167496, Note_on_c, 3, 69, 0
1, 167520, Note_on_c, 4, 62, 33
1, 167616, Note_on_c, 4, 62, 0
1, 167640, Note_on_c, 1, 74, 0
1, 167640, Note_on_c, 1, 73, 33
1, 167640, Note_on_c, 3, 69, 34
1, 167736, Note_on_c, 3, 69, 0
1, 167760, Note_on_c, 1, 73, 0
1, 167760, Note_on_c, 1, 76, 34
1, 167760, Note_on_c, 3, 66, 34
1, 167856, Note_on_c, 3, 66, 0
1, 167880, Note_on_c, 1, 76, 0
1, 167880, Note_on_c, 1, 74, 35
1, 167880, Note_on_c, 3, 69, 35
1, 167976, Note_on_c, 3, 69, 0
1, 168000, Note_on_c, 1, 74, 0
1, 168000, Note_on_c, 1, 79, 36
1, 168000, Note_on_c, 4, 62, 36
1, 168096, Note_on_c, 4, 62, 0
1, 168120, Note_on_c, 1, 79, 0
1, 168120, Note_on_c, 1, 78, 37
1, 168120, Note_on_c, 3, 69, 37
1, 168216, Note_on_c, 3, 69, 0
1, 168240, Note_on_c, 1, 78, 0
1, 168240, Note_on_c, 1, 76, 38
1, 168240, Note_on_c, 3, 66, 37
1, 168336, Note_on_c, 3, 66, 0
1, 168360, Note_on_c, 1, 76, 0
1, 168360, Note_on_c, 1, 74, 39
1, 168360, Note_on_c, 3, 69, 38
1, 168456, Note_on_c, 3, 69, 0
1, 168480, Note_on_c, 1, 74, 0
1, 168480, Note_on_c, 1, 73, 41
1, 168480, Note_on_c, 4, 64, 40
1, 168576, Note_on_c, 4, 64, 0
1, 168600, Note_on_c, 3, 69, 39
1, 168696, Note_on_c, 3, 69, 0
1, 168720, Note_on_c, 3, 67, 38
1, 168816, Note_on_c, 3, 67, 0
1, 168840, Note_on_c, 1, 73, 0
1, 168840, Note_on_c, 1, 74, 36
1, 168840, Note_on_c, 3, 69, 38
1, 168936, Note_on_c, 3, 69, 0
1, 168960, Note_on_c, 1, 74, 0
1, 168960, Note_on_c, 1, 76, 35
1, 168960, Note_on_c, 4, 64, 37
1, 169056, Note_on_c, 4, 64, 0
1, 169080, Note_on_c, 3, 69, 36
1, 169176, Note_on_c, 3, 69, 0
1, 169200, Note_on_c, 3, 67, 36
1, 169296, Note_on_c, 3, 67, 0
1, 169320, Note_on_c, 3, 69, 35
1, 169416, Note_on_c, 3, 69, 0
1, 169440, Note_on_c, 1, 76, 0
1, 169440, Note_on_c, 4, 64, 34
1, 169536, Note_on_c, 4, 64, 0
1, 169560, Note_on_c, 3, 69, 33
1, 169656, Note_on_c, 3, 69, 0
1, 169680, Note_on_c, 3, 67, 33
1, 169776, Note_on_c, 3, 67, 0
1, 169800, Note_on_c, 3, 69, 32
1, 169880, Tempo, 1034482
1, 169896, Note_on_c, 3, 69, 0
1, 169920, Tempo, 1016949
1, 169920, Note_on_c, 1, 76, 34
1, 169920, Note_on_c, 4, 61, 34
1, 170016, Note_on_c, 4, 61, 0
1, 170040, Note_on_c, 3, 69, 35
1, 170136, Note_on_c, 3, 69, 0
1, 170160, Note_on_c, 3, 67, 36
1, 170256, Note_on_c, 3, 67, 0
1, 170280, Note_on_c, 3, 69, 37
1, 170376, Note_on_c, 3, 69, 0
1, 170400, Note_on_c, 4, 61, 38
1, 170496, Note_on_c, 4, 61, 0
1, 170520, Note_on_c, 1, 76, 0
1, 170520, Note_on_c, 1, 75, 37
1, 170520, Note_on_c, 3, 69, 39
1, 170616, Note_on_c, 3, 69, 0
1, 170640, Note_on_c, 1, 75, 0
1, 170640, Note_on_c, 1, 78, 39
1, 170640, Note_on_c, 3, 67, 40
1, 170736, Note_on_c, 3, 67, 0
1, 170760, Note_on_c, 1, 78, 0
1, 170760, Note_on_c, 1, 76, 40
1, 170760, Note_on_c, 3, 69, 40
1, 170856, Note_on_c, 3, 69, 0
1, 170880, Note_on_c, 1, 76, 0
1, 170880, Note_on_c, 1, 81, 41
1, 170880, Note_on_c, 4, 61, 41
1, 170976, Note_on_c, 4, 61, 0
1, 171000, Note_on_c, 1, 81, 0
1, 171000, Note_on_c, 1, 79, 42
1, 171000, Note_on_c, 3, 69, 42
1, 171096, Note_on_c, 3, 69, 0
1, 171120, Note_on_c, 1, 79, 0
1, 171120, Note_on_c, 1, 78, 44
1, 171120, Note_on_c, 3, 67, 43
1, 171216, Note_on_c, 3, 67, 0
1, 171240, Note_on_c, 1, 78, 0
1, 171240, Note_on_c, 1, 76, 45
1, 171240, Note_on_c, 3, 69, 44
1, 171336, Note_on_c, 3, 69, 0
1, 171360, Note_on_c, 1, 76, 0
1, 171360, Note_on_c, 1, 74, 47
1, 171360, Note_on_c, 4, 62, 45
1, 171456, Note_on_c, 4, 62, 0
1, 171480, Note_on_c, 3, 69, 41
1, 171576, Note_on_c, 3, 69, 0
1, 171600, Note_on_c, 3, 66, 39
1, 171696, Note_on_c, 3, 66, 0
1, 171720, Note_on_c, 1, 74, 0
1, 171720, Note_on_c, 1, 76, 40
1, 171720, Note_on_c, 3, 69, 38
1, 171816, Note_on_c, 3, 69, 0
1, 171840, Note_on_c, 1, 76, 0
1, 171840, Note_on_c, 1, 78, 38
1, 171840, Note_on_c, 4, 61, 39
1, 171936, Note_on_c, 4, 61, 0
1, 171960, Note_on_c, 3, 69, 41
1, 172056, Note_on_c, 3, 69, 0
1, 172080, Note_on_c, 3, 62, 43
1, 172176, Note_on_c, 3, 62, 0
1, 172200, Note_on_c, 3, 69, 45
1, 172296, Note_on_c, 3, 69, 0
1, 172320, Note_on_c, 1, 78, 0
1, 172320, Note_on_c, 4, 59, 47
1, 172416, Note_on_c, 4, 59, 0
1, 172440, Note_on_c, 3, 67, 50
1, 172536, Note_on_c, 3, 67, 0
1, 172560, Note_on_c, 3, 62, 52
1, 172656, Note_on_c, 3, 62, 0
1, 172680, Note_on_c, 3, 67, 54
1, 172740, Tempo, 1034482
1, 172776, Note_on_c, 3, 67, 0
1, 172800, Tempo, 1016949
1, 172800, Note_on_c, 1, 78, 59
1, 172800, Note_on_c, 4, 57, 59
1, 172896, Note_on_c, 4, 57, 0
1, 172920, Note_on_c, 3, 66, 58
1, 173016, Note_on_c, 3, 66, 0
1, 173040, Note_on_c, 3, 62, 57
1, 173136, Note_on_c, 3, 62, 0
1, 173160, Note_on_c, 3, 66, 56
1, 173256, Note_on_c, 3, 66, 0
1, 173280, Note_on_c, 4, 55, 54
1, 173376, Note_on_c, 4, 55, 0
1, 173400, Note_on_c, 1, 78, 0
1, 173400, Note_on_c, 1, 76, 53
1, 173400, Note_on_c, 3, 64, 53
1, 173496, Note_on_c, 3, 64, 0
1, 173520, Note_on_c, 1, 76, 0
1, 173520, Note_on_c, 1, 79, 52
1, 173520, Note_on_c, 3, 61, 52
1, 173616, Note_on_c, 3, 61, 0
1, 173640, Note_on_c, 1, 79, 0
1, 173640, Note_on_c, 1, 78, 51
1, 173640, Note_on_c, 3, 64, 51
1, 173736, Note_on_c, 3, 64, 0
1, 173760, Note_on_c, 1, 78, 0
1, 173760, Note_on_c, 1, 83, 50
1, 173760, Note_on_c, 4, 54, 50
1, 173856, Note_on_c, 4, 54, 0
1, 173880, Note_on_c, 1, 83, 0
1, 173880, Note_on_c, 1, 81, 49
1, 173880, Note_on_c, 3, 62, 49
1, 173976, Note_on_c, 3, 62, 0
1, 174000, Note_on_c, 1, 81, 0
1, 174000, Note_on_c, 1, 79, 47
1, 174000, Note_on_c, 3, 57, 47
1, 174096, Note_on_c, 3, 57, 0
1, 174120, Note_on_c, 1, 79, 0
1, 174120, Note_on_c, 1, 78, 46
1, 174120, Note_on_c, 3, 62, 46
1, 174200, Tempo, 1034482
1, 174216, Note_on_c, 1, 78, 0
1, 174216, Note_on_c, 3, 62, 0
1, 174240, Tempo, 1016949
1, 174240, Note_on_c, 1, 76, 51
1, 174240, Note_on_c, 4, 59, 51
1, 174336, Note_on_c, 4, 59, 0
1, 174360, Note_on_c, 3, 67, 50
1, 174456, Note_on_c, 3, 67, 0
1, 174480, Note_on_c, 3, 64, 49
1, 174576, Note_on_c, 3, 64, 0
1, 174600, Note_on_c, 3, 67, 48
1, 174696, Note_on_c, 3, 67, 0
1, 174720, Note_on_c, 4, 55, 47
1, 174816, Note_on_c, 4, 55, 0
1, 174840, Note_on_c, 1, 76, 0
1, 174840, Note_on_c, 1, 75, 46
1, 174840, Note_on_c, 3, 64, 46
1, 174936, Note_on_c, 3, 64, 0
1, 174960, Note_on_c, 1, 75, 0
1, 174960, Note_on_c, 1, 78, 45
1, 174960, Note_on_c, 3, 61, 45
1, 175056, Note_on_c, 3, 61, 0
1, 175080, Note_on_c, 1, 78, 0
1, 175080, Note_on_c, 1, 76, 44
1, 175080, Note_on_c, 3, 64, 44
1, 175176, Note_on_c, 3, 64, 0
1, 175200, Note_on_c, 1, 76, 0
1, 175200, Note_on_c, 1, 81, 43
1, 175200, Note_on_c, 4, 54, 43
1, 175296, Note_on_c, 4, 54, 0
1, 175320, Note_on_c, 1, 81, 0
1, 175320, Note_on_c, 1, 79, 42
1, 175320, Note_on_c, 3, 62, 42
1, 175416, Note_on_c, 3, 62, 0
1, 175440, Note_on_c, 1, 79, 0
1, 175440, Note_on_c, 1, 78, 41
1, 175440, Note_on_c, 3, 57, 41
1, 175536, Note_on_c, 3, 57, 0
1, 175560, Note_on_c, 1, 78, 0
1, 175560, Note_on_c, 1, 76, 40
1, 175560, Note_on_c, 3, 62, 40
1, 175640, Tempo, 1034482
1, 175656, Note_on_c, 1, 76, 0
1, 175656, Note_on_c, 3, 62, 0
1, 175680, Tempo, 1016949
1, 175680, Note_on_c, 1, 76, 45
1, 175680, Note_on_c, 4, 57, 45
1, 175776, Note_on_c, 4, 57, 0
1, 175800, Note_on_c, 1, 76, 0
1, 175800, Note_on_c, 1, 74, 43
1, 175800, Note_on_c, 3, 66, 44
1, 175896, Note_on_c, 1, 74, 0
1, 175896, Note_on_c, 3, 66, 0
1, 175920, Note_on_c, 1, 74, 41
1, 175920, Note_on_c, 3, 62, 43
1, 176016, Note_on_c, 3, 62, 0
1, 176040, Note_on_c, 3, 66, 42
1, 176136, Note_on_c, 3, 66, 0
1, 176160, Note_on_c, 4, 57, 41
1, 176256, Note_on_c, 4, 57, 0
1, 176257, Note_on_c, 1, 74, 0
1, 176280, Note_on_c, 1, 69, 40
1, 176280, Note_on_c, 3, 66, 40
1, 176376, Note_on_c, 3, 66, 0
1, 176400, Note_on_c, 1, 69, 0
1, 176400, Note_on_c, 1, 74, 39
1, 176400, Note_on_c, 3, 62, 39
1, 176496, Note_on_c, 3, 62, 0
1, 176520, Note_on_c, 1, 74, 0
1, 176520, Note_on_c, 1, 78, 38
1, 176520, Note_on_c, 3, 66, 38
1, 176600, Tempo, 1034482
1, 176616, Note_on_c, 1, 78, 0
1, 176616, Note_on_c, 3, 66, 0
1, 176640, Note_on_c, 1, 78, 37
1, 176640, Note_on_c, 2, 73, 37
1, 176640, Note_on_c, 4, 57, 37
1, 176736, Note_on_c, 4, 57, 0
1, 176760, Note_on_c, 1, 78, 0
1, 176760, Note_on_c, 1, 76, 36
1, 176760, Note_on_c, 3, 67, 36
1, 176856, Note_on_c, 3, 67, 0
1, 176880, Note_on_c, 1, 76, 0
1, 176880, Note_on_c, 1, 74, 35
1, 176880, Note_on_c, 3, 64, 35
1, 176976, Note_on_c, 3, 64, 0
1, 177000, Note_on_c, 1, 74, 0
1, 177000, Note_on_c, 1, 76, 34
1, 177000, Note_on_c, 3, 67, 34
1, 177080, Tempo, 1071428
1, 177090, Note_on_c, 2, 73, 0
1, 177096, Note_on_c, 1, 76, 0
1, 177096, Note_on_c, 3, 67, 0
1, 177120, Note_on_c, 1, 76, 36
1, 177120, Note_on_c, 2, 73, 36
1, 177120, Note_on_c, 3, 67, 36
1, 177120, Note_on_c, 4, 62, 36
1, 177590, Tempo, 1224489
1, 177600, Note_on_c, 1, 76, 0
1, 177600, Note_on_c, 1, 74, 32
1, 177600, Note_on_c, 2, 73, 0
1, 177600, Note_on_c, 3, 67, 0
1, 177600, Note_on_c, 3, 66, 32
1, 177705, Note_on_c, 1, 74, 0
1, 177720, Tempo, 1071428
1, 177720, Note_on_c, 1, 75, 31
1, 177840, Note_on_c, 1, 75, 0
1, 177840, Note_on_c, 1, 76, 31
1, 177960, Note_on_c, 1, 76, 0
1, 177960, Note_on_c, 1, 75, 30
1, 178080, Note_on_c, 1, 75, 0
1, 178080, Note_on_c, 1, 78, 29
1, 178080, Note_on_c, 3, 66, 0
1, 178080, Note_on_c, 4, 62, 0
1, 178200, Note_on_c, 1, 78, 0
1, 178200, Note_on_c, 1, 76, 29
1, 178320, Note_on_c, 1, 76, 0
1, 178320, Note_on_c, 1, 74, 28
1, 178440, Note_on_c, 1, 74, 0
1, 178440, Note_on_c, 1, 72, 28
1, 178490, Tempo, 1132075
1, 178560, Tempo, 1016949
1, 178560, Note_on_c, 1, 72, 0
1, 178560, Note_on_c, 1, 71, 36
1, 178560, Note_on_c, 4, 55, 36
1, 178656, Note_on_c, 4, 55, 0
1, 178680, Note_on_c, 3, 62, 37
1, 178776, Note_on_c, 3, 62, 0
1, 178800, Note_on_c, 3, 59, 38
1, 178896, Note_on_c, 3, 59, 0
1, 178920, Note_on_c, 3, 62, 38
1, 179016, Note_on_c, 3, 62, 0
1, 179040, Note_on_c, 4, 55, 39
1, 179136, Note_on_c, 4, 55, 0
1, 179160, Note_on_c, 1, 71, 0
1, 179160, Note_on_c, 1, 67, 39
1, 179160, Note_on_c, 3, 62, 40
1, 179256, Note_on_c, 3, 62, 0
1, 179280, Note_on_c, 1, 67, 0
1, 179280, Note_on_c, 1, 71, 40
1, 179280, Note_on_c, 3, 59, 41
1, 179376, Note_on_c, 3, 59, 0
1, 179400, Note_on_c, 1, 71, 0
1, 179400, Note_on_c, 1, 74, 41
1, 179400, Note_on_c, 3, 62, 42
1, 179496, Note_on_c, 3, 62, 0
1, 179520, Note_on_c, 1, 74, 0
1, 179520, Note_on_c, 1, 72, 42
1, 179520, Note_on_c, 4, 57, 43
1, 179616, Note_on_c, 4, 57, 0
1, 179640, Note_on_c, 1, 72, 0
1, 179640, Note_on_c, 1, 69, 43
1, 179640, Note_on_c, 3, 62, 43
1, 179736, Note_on_c, 3, 62, 0
1, 179760, Note_on_c, 1, 69, 0
1, 179760, Note_on_c, 1, 72, 44
1, 179760, Note_on_c, 3, 60, 44
1, 179856, Note_on_c, 3, 60, 0
1, 179880, Note_on_c, 1, 72, 0
1, 179880, Note_on_c, 1, 76, 45
1, 179880, Note_on_c, 3, 62, 45
1, 179976, Note_on_c, 3, 62, 0
1, 180000, Note_on_c, 1, 76, 0
1, 180000, Note_on_c, 1, 74, 46
1, 180000, Note_on_c, 4, 55, 46
1, 180096, Note_on_c, 4, 55, 0
1, 180120, Note_on_c, 3, 62, 45
1, 180216, Note_on_c, 3, 62, 0
1, 180240, Note_on_c, 3, 59, 44
1, 180336, Note_on_c, 3, 59, 0
1, 180360, Note_on_c, 1, 74, 0
1, 180360, Note_on_c, 1, 71, 43
1, 180360, Note_on_c, 3, 62, 43
1, 180456, Note_on_c, 3, 62, 0
1, 180480, Note_on_c, 1, 71, 0
1, 180480, Note_on_c, 1, 67, 42
1, 180480, Note_on_c, 4, 55, 42
1, 180560, Note_on_c, 1, 67, 0
1, 180576, Note_on_c, 4, 55, 0
1, 180600, Note_on_c, 1, 67, 41
1, 180600, Note_on_c, 3, 62, 41
1, 180680, Note_on_c, 1, 67, 0
1, 180696, Note_on_c, 3, 62, 0
1, 180720, Note_on_c, 1, 69, 40
1, 180720, Note_on_c, 3, 59, 40
1, 180800, Note_on_c, 1, 69, 0
1, 180816, Note_on_c, 3, 59, 0
1, 180840, Note_on_c, 1, 71, 39
1, 180840, Note_on_c, 3, 62, 39
1, 180920, Note_on_c, 1, 71, 0
1, 180936, Note_on_c, 3, 62, 0
1, 180960, Note_on_c, 1, 72, 38
1, 180960, Note_on_c, 4, 55, 38
1, 181040, Note_on_c, 1, 72, 0
1, 181056, Note_on_c, 4, 55, 0
1, 181080, Note_on_c, 1, 74, 38
1, 181080, Note_on_c, 3, 62, 38
1, 181160, Note_on_c, 1, 74, 0
1, 181176, Note_on_c, 3, 62, 0
1, 181200, Note_on_c, 1, 76, 37
1, 181200, Note_on_c, 3, 59, 37
1, 181280, Note_on_c, 1, 76, 0
1, 181296, Note_on_c, 3, 59, 0
1, 181320, Note_on_c, 1, 78, 36
1, 181320, Note_on_c, 3, 62, 36
1, 181400, Tempo, 1034482
1, 181400, Note_on_c, 1, 78, 0
1, 181416, Note_on_c, 3, 62, 0
1, 181440, Tempo, 1016949
1, 181440, Note_on_c, 1, 79, 40
1, 181440, Note_on_c, 4, 55, 40
1, 181536, Note_on_c, 4, 55, 0
1, 181560, Note_on_c, 1, 79, 0
1, 181560, Note_on_c, 1, 78, 41
1, 181560, Note_on_c, 3, 64, 41
1, 181656, Note_on_c, 3, 64, 0
1, 181680, Note_on_c, 1, 78, 0
1, 181680, Note_on_c, 1, 79, 42
1, 181680, Note_on_c, 3, 60, 41
1, 181776, Note_on_c, 3, 60, 0
1, 181800, Note_on_c, 1, 79, 0
1, 181800, Note_on_c, 1, 78, 43
1, 181800, Note_on_c, 3, 64, 42
1, 181896, Note_on_c, 3, 64, 0
1, 181920, Note_on_c, 1, 78, 0
1, 181920, Note_on_c, 1, 81, 44
1, 181920, Note_on_c, 4, 55, 43
1, 182016, Note_on_c, 4, 55, 0
1, 182040, Note_on_c, 1, 81, 0
1, 182040, Note_on_c, 1, 79, 45
1, 182040, Note_on_c, 3, 64, 44
1, 182136, Note_on_c, 3, 64, 0
1, 182160, Note_on_c, 1, 79, 0
1, 182160, Note_on_c, 1, 78, 46
1, 182160, Note_on_c, 3, 60, 45
1, 182256, Note_on_c, 3, 60, 0
1, 182280, Note_on_c, 1, 78, 0
1, 182280, Note_on_c, 1, 79, 47
1, 182280, Note_on_c, 3, 64, 45
1, 182376, Note_on_c, 3, 64, 0
1, 182400, Note_on_c, 1, 79, 0
1, 182400, Note_on_c, 1, 78, 48
1, 182400, Note_on_c, 4, 55, 46
1, 182496, Note_on_c, 4, 55, 0
1, 182520, Note_on_c, 1, 78, 0
1, 182520, Note_on_c, 1, 76, 49
1, 182520, Note_on_c, 3, 61, 47
1, 182616, Note_on_c, 3, 61, 0
1, 182640, Note_on_c, 1, 76, 0
1, 182640, Note_on_c, 1, 74, 50
1, 182640, Note_on_c, 3, 58, 48
1, 182736, Note_on_c, 3, 58, 0
1, 182760, Note_on_c, 1, 74, 0
1, 182760, Note_on_c, 1, 73, 51
1, 182760, Note_on_c, 3, 61, 48
1, 182856, Note_on_c, 3, 61, 0
1, 182880, Note_on_c, 1, 73, 0
1, 182880, Note_on_c, 1, 74, 52
1, 182880, Note_on_c, 4, 55, 50
1, 182976, Note_on_c, 4, 55, 0
1, 183000, Note_on_c, 1, 74, 0
1, 183000, Note_on_c, 1, 71, 51
1, 183000, Note_on_c, 3, 62, 49
1, 183096, Note_on_c, 3, 62, 0
1, 183120, Note_on_c, 1, 71, 0
1, 183120, Note_on_c, 1, 74, 49
1, 183120, Note_on_c, 3, 59, 49
1, 183216, Note_on_c, 3, 59, 0
1, 183240, Note_on_c, 1, 74, 0
1, 183240, Note_on_c, 1, 71, 48
1, 183240, Note_on_c, 3, 62, 48
1, 183336, Note_on_c, 3, 62, 0
1, 183360, Note_on_c, 1, 71, 0
1, 183360, Note_on_c, 1, 67, 46
1, 183360, Note_on_c, 4, 55, 48
1, 183456, Note_on_c, 4, 55, 0
1, 183480, Note_on_c, 3, 62, 47
1, 183576, Note_on_c, 3, 62, 0
1, 183600, Note_on_c, 3, 59, 46
1, 183696, Note_on_c, 3, 59, 0
1, 183720, Note_on_c, 3, 62, 46
1, 183816, Note_on_c, 3, 62, 0
1, 183840, Note_on_c, 1, 67, 0
1, 183840, Note_on_c, 4, 55, 45
1, 183936, Note_on_c, 4, 55, 0
1, 183960, Note_on_c, 3, 62, 45
1, 184056, Note_on_c, 3, 62, 0
1, 184080, Note_on_c, 3, 59, 44
1, 184176, Note_on_c, 3, 59, 0
1, 184200, Note_on_c, 3, 62, 44
1, 184240, Tempo, 1034482
1, 184296, Note_on_c, 3, 62, 0
1, 184320, Tempo, 1016949
1, 184320, Note_on_c, 1, 72, 44
1, 184320, Note_on_c, 4, 57, 44
1, 184416, Note_on_c, 4, 57, 0
1, 184440, Note_on_c, 1, 72, 0
1, 184440, Note_on_c, 1, 69, 45
1, 184440, Note_on_c, 3, 62, 45
1, 184536, Note_on_c, 3, 62, 0
1, 184560, Note_on_c, 1, 69, 0
1, 184560, Note_on_c, 1, 72, 46
1, 184560, Note_on_c, 3, 60, 46
1, 184656, Note_on_c, 3, 60, 0
1, 184680, Note_on_c, 1, 72, 0
1, 184680, Note_on_c, 1, 69, 47
1, 184680, Note_on_c, 3, 62, 47
1, 184776, Note_on_c, 3, 62, 0
1, 184800, Note_on_c, 1, 69, 0
1, 184800, Note_on_c, 1, 66, 48
1, 184800, Note_on_c, 4, 57, 47
1, 184880, Note_on_c, 1, 66, 0
1, 184896, Note_on_c, 4, 57, 0
1, 184920, Note_on_c, 1, 69, 49
1, 184920, Note_on_c, 3, 62, 48
1, 185016, Note_on_c, 3, 62, 0
1, 185040, Note_on_c, 1, 69, 0
1, 185040, Note_on_c, 1, 68, 50
1, 185040, Note_on_c, 3, 60, 49
1, 185136, Note_on_c, 3, 60, 0
1, 185160, Note_on_c, 1, 68, 0
1, 185160, Note_on_c, 1, 69, 51
1, 185160, Note_on_c, 3, 62, 50
1, 185256, Note_on_c, 3, 62, 0
1, 185280, Note_on_c, 1, 69, 0
1, 185280, Note_on_c, 1, 70, 52
1, 185280, Note_on_c, 4, 57, 51
1, 185376, Note_on_c, 4, 57, 0
1, 185400, Note_on_c, 1, 70, 0
1, 185400, Note_on_c, 1, 71, 53
1, 185400, Note_on_c, 3, 62, 51
1, 185496, Note_on_c, 3, 62, 0
1, 185520, Note_on_c, 1, 71, 0
1, 185520, Note_on_c, 1, 72, 53
1, 185520, Note_on_c, 3, 60, 52
1, 185616, Note_on_c, 3, 60, 0
1, 185640, Note_on_c, 1, 72, 0
1, 185640, Note_on_c, 1, 73, 54
1, 185640, Note_on_c, 3, 62, 53
1, 185736, Note_on_c, 3, 62, 0
1, 185760, Note_on_c, 1, 73, 0
1, 185760, Note_on_c, 1, 74, 55
1, 185760, Note_on_c, 4, 55, 54
1, 185856, Note_on_c, 4, 55, 0
1, 185880, Note_on_c, 1, 74, 0
1, 185880, Note_on_c, 1, 71, 56
1, 185880, Note_on_c, 3, 62, 54
1, 185976, Note_on_c, 3, 62, 0
1, 186000, Note_on_c, 1, 71, 0
1, 186000, Note_on_c, 1, 74, 57
1, 186000, Note_on_c, 3, 59, 55
1, 186096, Note_on_c, 3, 59, 0
1, 186120, Note_on_c, 1, 74, 0
1, 186120, Note_on_c, 1, 71, 58
1, 186120, Note_on_c, 3, 62, 56
1, 186216, Note_on_c, 3, 62, 0
1, 186240, Note_on_c, 1, 71, 0
1, 186240, Note_on_c, 1, 79, 59
1, 186240, Note_on_c, 4, 52, 57
1, 186336, Note_on_c, 4, 52, 0
1, 186360, Note_on_c, 3, 59, 58
1, 186456, Note_on_c, 3, 59, 0
1, 186480, Note_on_c, 3, 55, 58
1, 186576, Note_on_c, 3, 55, 0
1, 186600, Note_on_c, 3, 59, 59
1, 186696, Note_on_c, 3, 59, 0
1, 186720, Note_on_c, 1, 79, 0
1, 186720, Note_on_c, 4, 47, 60
1, 186816, Note_on_c, 4, 47, 0
1, 186840, Note_on_c, 1, 83, 61
1, 186840, Note_on_c, 3, 55, 61
1, 186936, Note_on_c, 3, 55, 0
1, 186960, Note_on_c, 1, 83, 0
1, 186960, Note_on_c, 1, 78, 62
1, 186960, Note_on_c, 3, 50, 62
1, 187056, Note_on_c, 3, 50, 0
1, 187080, Note_on_c, 1, 78, 0
1, 187080, Note_on_c, 1, 79, 62
1, 187080, Note_on_c, 3, 55, 62
1, 187160, Tempo, 1034482
1, 187176, Note_on_c, 3, 55, 0
1, 187200, Tempo, 1016949
1, 187200, Note_on_c, 1, 79, 0
1, 187200, Note_on_c, 1, 75, 66
1, 187200, Note_on_c, 4, 48, 66
1, 187296, Note_on_c, 4, 48, 0
1, 187320, Note_on_c, 1, 75, 0
1, 187320, Note_on_c, 1, 76, 62
1, 187320, Note_on_c, 3, 57, 62
1, 187416, Note_on_c, 3, 57, 0
1, 187440, Note_on_c, 1, 76, 0
1, 187440, Note_on_c, 1, 72, 60
1, 187440, Note_on_c, 3, 52, 60
1, 187536, Note_on_c, 3, 52, 0
1, 187560, Note_on_c, 1, 72, 0
1, 187560, Note_on_c, 1, 69, 58
1, 187560, Note_on_c, 3, 57, 58
1, 187640, Tempo, 1034482
1, 187656, Note_on_c, 3, 57, 0
1, 187680, Note_on_c, 1, 69, 0
1, 187680, Note_on_c, 1, 67, 56
1, 187680, Note_on_c, 4, 50, 56
1, 187776, Note_on_c, 4, 50, 0
1, 187800, Note_on_c, 3, 59, 54
1, 187896, Note_on_c, 3, 59, 0
1, 187920, Note_on_c, 3, 55, 52
1, 188016, Note_on_c, 3, 55, 0
1, 188017, Note_on_c, 1, 67, 0
1, 188040, Note_on_c, 1, 67, 50
1, 188040, Note_on_c, 3, 59, 50
1, 188120, Tempo, 1071428
1, 188136, Note_on_c, 1, 67, 0
1, 188136, Note_on_c, 3, 59, 0
1, 188160, Note_on_c, 1, 71, 49
1, 188160, Note_on_c, 2, 66, 49
1, 188160, Note_on_c, 4, 50, 49
1, 188256, Note_on_c, 4, 50, 0
1, 188280, Note_on_c, 1, 71, 0
1, 188280, Note_on_c, 1, 69, 47
1, 188280, Note_on_c, 3, 60, 47
1, 188376, Note_on_c, 3, 60, 0
1, 188400, Note_on_c, 1, 69, 0
1, 188400, Note_on_c, 1, 67, 45
1, 188400, Note_on_c, 3, 57, 45
1, 188496, Note_on_c, 3, 57, 0
1, 188510, Tempo, 1200000
1, 188520, Note_on_c, 1, 67, 0
1, 188520, Note_on_c, 1, 69, 43
1, 188520, Note_on_c, 3, 60, 43
1, 188616, Note_on_c, 1, 69, 0
1, 188616, Note_on_c, 3, 60, 0
1, 188617, Note_on_c, 2, 66, 0
1, 188640, Note_on_c, 1, 69, 44
1, 188640, Note_on_c, 2, 66, 44
1, 188640, Note_on_c, 3, 60, 44
1, 188640, Note_on_c, 4, 55, 44
1, 189120, Note_on_c, 1, 69, 0
1, 189120, Note_on_c, 1, 67, 32
1, 189120, Note_on_c, 2, 66, 0
1, 189120, Note_on_c, 3, 60, 0
1, 189120, Note_on_c, 3, 59, 32
1, 189600, Tempo, 1304347
1, 189600, Note_on_c, 1, 67, 0
1, 189600, Note_on_c, 3, 59, 0
1, 189600, Note_on_c, 4, 55, 0
1, 190080, Tempo, 1016949
1, 190080, Note_on_c, 1, 70, 34
1, 190080, Note_on_c, 4, 55, 34
1, 190176, Note_on_c, 4, 55, 0
1, 190200, Note_on_c, 3, 62, 35
1, 190296, Note_on_c, 3, 62, 0
1, 190320, Note_on_c, 3, 58, 36
1, 190416, Note_on_c, 3, 58, 0
1, 190440, Note_on_c, 3, 62, 36
1, 190536, Note_on_c, 3, 62, 0
1, 190560, Note_on_c, 4, 55, 37
1, 190656, Note_on_c, 4, 55, 0
1, 190680, Note_on_c, 1, 70, 0
1, 190680, Note_on_c, 1, 69, 38
1, 190680, Note_on_c, 3, 62, 38
1, 190776, Note_on_c, 3, 62, 0
1, 190800, Note_on_c, 1, 69, 0
1, 190800, Note_on_c, 1, 72, 39
1, 190800, Note_on_c, 3, 58, 39
1, 190896, Note_on_c, 3, 58, 0
1, 190920, Note_on_c, 1, 72, 0
1, 190920, Note_on_c, 1, 70, 40
1, 190920, Note_on_c, 3, 62, 40
1, 191016, Note_on_c, 3, 62, 0
1, 191040, Note_on_c, 1, 70, 0
1, 191040, Note_on_c, 1, 70, 41
1, 191040, Note_on_c, 4, 57, 41
1, 191136, Note_on_c, 4, 57, 0
1, 191160, Note_on_c, 1, 70, 0
1, 191160, Note_on_c, 1, 69, 41
1, 191160, Note_on_c, 3, 62, 41
1, 191256, Note_on_c, 3, 62, 0
1, 191280, Note_on_c, 1, 69, 0
1, 191280, Note_on_c, 1, 67, 42
1, 191280, Note_on_c, 3, 60, 42
1, 191376, Note_on_c, 3, 60, 0
1, 191400, Note_on_c, 1, 67, 0
1, 191400, Note_on_c, 1, 66, 43
1, 191400, Note_on_c, 3, 62, 43
1, 191496, Note_on_c, 3, 62, 0
1, 191520, Note_on_c, 1, 66, 0
1, 191520, Note_on_c, 1, 67, 45
1, 191520, Note_on_c, 4, 55, 43
1, 191616, Note_on_c, 4, 55, 0
1, 191640, Note_on_c, 3, 62, 42
1, 191736, Note_on_c, 3, 62, 0
1, 191760, Note_on_c, 3, 58, 41
1, 191856, Note_on_c, 3, 58, 0
1, 191880, Note_on_c, 1, 67, 0
1, 191880, Note_on_c, 1, 70, 39
1, 191880, Note_on_c, 3, 62, 40
1, 191976, Note_on_c, 3, 62, 0
1, 192000, Note_on_c, 1, 70, 0
1, 192000, Note_on_c, 1, 74, 37
1, 192000, Note_on_c, 4, 55, 40
1, 192096, Note_on_c, 4, 55, 0
1, 192120, Note_on_c, 3, 62, 39
1, 192216, Note_on_c, 3, 62, 0
1, 192240, Note_on_c, 3, 58, 38
1, 192336, Note_on_c, 3, 58, 0
1, 192360, Note_on_c, 3, 62, 37
1, 192456, Note_on_c, 3, 62, 0
1, 192480, Note_on_c, 1, 74, 0
1, 192480, Note_on_c, 4, 55, 36
1, 192576, Note_on_c, 4, 55, 0
1, 192600, Note_on_c, 3, 62, 36
1, 192696, Note_on_c, 3, 62, 0
1, 192720, Note_on_c, 3, 58, 35
1, 192816, Note_on_c, 3, 58, 0
1, 192840, Note_on_c, 3, 62, 34
1, 192920, Tempo, 1034482
1, 192936, Note_on_c, 3, 62, 0
1, 192960, Tempo, 1016949
1, 192960, Note_on_c, 1, 74, 36
1, 192960, Note_on_c, 4, 54, 36
1, 193056, Note_on_c, 4, 54, 0
1, 193080, Note_on_c, 3, 62, 37
1, 193176, Note_on_c, 3, 62, 0
1, 193200, Note_on_c, 3, 57, 37
1, 193296, Note_on_c, 3, 57, 0
1, 193320, Note_on_c, 3, 62, 38
1, 193416, Note_on_c, 3, 62, 0
1, 193440, Note_on_c, 4, 54, 39
1, 193536, Note_on_c, 4, 54, 0
1, 193560, Note_on_c, 1, 74, 0
1, 193560, Note_on_c, 1, 73, 40
1, 193560, Note_on_c, 3, 62, 40
1, 193656, Note_on_c, 3, 62, 0
1, 193680, Note_on_c, 1, 73, 0
1, 193680, Note_on_c, 1, 75, 41
1, 193680, Note_on_c, 3, 57, 41
1, 193776, Note_on_c, 3, 57, 0
1, 193800, Note_on_c, 1, 75, 0
1, 193800, Note_on_c, 1, 74, 41
1, 193800, Note_on_c, 3, 62, 41
1, 193896, Note_on_c, 3, 62, 0
1, 193920, Note_on_c, 1, 74, 0
1, 193920, Note_on_c, 1, 74, 42
1, 193920, Note_on_c, 4, 50, 42
1, 194016, Note_on_c, 4, 50, 0
1, 194040, Note_on_c, 1, 74, 0
1, 194040, Note_on_c, 1, 72, 43
1, 194040, Note_on_c, 3, 62, 43
1, 194136, Note_on_c, 3, 62, 0
1, 194160, Note_on_c, 1, 72, 0
1, 194160, Note_on_c, 1, 70, 44
1, 194160, Note_on_c, 3, 54, 44
1, 194256, Note_on_c, 3, 54, 0
1, 194280, Note_on_c, 1, 70, 0
1, 194280, Note_on_c, 1, 69, 46
1, 194280, Note_on_c, 3, 62, 44
1, 194376, Note_on_c, 3, 62, 0
1, 194400, Note_on_c, 1, 69, 0
1, 194400, Note_on_c, 1, 70, 49
1, 194400, Note_on_c, 4, 55, 47
1, 194496, Note_on_c, 4, 55, 0
1, 194520, Note_on_c, 3, 62, 43
1, 194616, Note_on_c, 3, 62, 0
1, 194640, Note_on_c, 3, 58, 41
1, 194736, Note_on_c, 3, 58, 0
1, 194760, Note_on_c, 1, 70, 0
1, 194760, Note_on_c, 1, 74, 43
1, 194760, Note_on_c, 3, 62, 38
1, 194856, Note_on_c, 3, 62, 0
1, 194880, Note_on_c, 1, 74, 0
1, 194880, Note_on_c, 1, 79, 41
1, 194880, Note_on_c, 4, 55, 40
1, 194976, Note_on_c, 4, 55, 0
1, 195000, Note_on_c, 3, 62, 42
1, 195096, Note_on_c, 3, 62, 0
1, 195120, Note_on_c, 3, 58, 44
1, 195216, Note_on_c, 3, 58, 0
1, 195240, Note_on_c, 3, 62, 46
1, 195336, Note_on_c, 3, 62, 0
1, 195360, Note_on_c, 1, 79, 0
1, 195360, Note_on_c, 4, 55, 48
1, 195456, Note_on_c, 4, 55, 0
1, 195480, Note_on_c, 3, 63, 50
1, 195576, Note_on_c, 3, 63, 0
1, 195600, Note_on_c, 3, 58, 52
1, 195696, Note_on_c, 3, 58, 0
1, 195720, Note_on_c, 3, 63, 54
1, 195780, Tempo, 1034482
1, 195816, Note_on_c, 3, 63, 0
1, 195840, Tempo, 1016949
1, 195840, Note_on_c, 1, 77, 59
1, 195840, Note_on_c, 4, 57, 59
1, 195936, Note_on_c, 4, 57, 0
1, 195960, Note_on_c, 3, 65, 58
1, 196056, Note_on_c, 3, 65, 0
1, 196080, Note_on_c, 3, 60, 57
1, 196176, Note_on_c, 3, 60, 0
1, 196200, Note_on_c, 3, 65, 56
1, 196296, Note_on_c, 3, 65, 0
1, 196320, Note_on_c, 4, 57, 55
1, 196416, Note_on_c, 4, 57, 0
1, 196440, Note_on_c, 1, 77, 0
1, 196440, Note_on_c, 1, 81, 54
1, 196440, Note_on_c, 3, 65, 54
1, 196536, Note_on_c, 3, 65, 0
1, 196560, Note_on_c, 1, 81, 0
1, 196560, Note_on_c, 1, 84, 53
1, 196560, Note_on_c, 3, 60, 53
1, 196656, Note_on_c, 3, 60, 0
1, 196680, Note_on_c, 1, 84, 0
1, 196680, Note_on_c, 1, 82, 52
1, 196680, Note_on_c, 3, 65, 52
1, 196776, Note_on_c, 3, 65, 0
1, 196800, Note_on_c, 1, 82, 0
1, 196800, Note_on_c, 1, 81, 51
1, 196800, Note_on_c, 4, 57, 51
1, 196896, Note_on_c, 4, 57, 0
1, 196920, Note_on_c, 1, 81, 0
1, 196920, Note_on_c, 1, 79, 50
1, 196920, Note_on_c, 3, 65, 50
1, 197016, Note_on_c, 3, 65, 0
1, 197040, Note_on_c, 1, 79, 0
1, 197040, Note_on_c, 1, 77, 49
1, 197040, Note_on_c, 3, 60, 49
1, 197136, Note_on_c, 3, 60, 0
1, 197160, Note_on_c, 1, 77, 0
1, 197160, Note_on_c, 1, 75, 48
1, 197160, Note_on_c, 3, 65, 48
1, 197240, Tempo, 1034482
1, 197256, Note_on_c, 1, 75, 0
1, 197256, Note_on_c, 3, 65, 0
1, 197280, Tempo, 1016949
1, 197280, Note_on_c, 1, 74, 54
1, 197280, Note_on_c, 4, 58, 54
1, 197376, Note_on_c, 4, 58, 0
1, 197400, Note_on_c, 3, 65, 52
1, 197496, Note_on_c, 3, 65, 0
1, 197520, Note_on_c, 3, 62, 51
1, 197616, Note_on_c, 3, 62, 0
1, 197640, Note_on_c, 3, 65, 49
1, 197736, Note_on_c, 3, 65, 0
1, 197760, Note_on_c, 4, 55, 48
1, 197856, Note_on_c, 4, 55, 0
1, 197880, Note_on_c, 1, 74, 0
1, 197880, Note_on_c, 1, 79, 47
1, 197880, Note_on_c, 3, 62, 47
1, 197976, Note_on_c, 3, 62, 0
1, 198000, Note_on_c, 1, 79, 0
1, 198000, Note_on_c, 1, 82, 46
1, 198000, Note_on_c, 3, 58, 46
1, 198096, Note_on_c, 3, 58, 0
1, 198120, Note_on_c, 1, 82, 0
1, 198120, Note_on_c, 1, 81, 45
1, 198120, Note_on_c, 3, 62, 45
1, 198216, Note_on_c, 3, 62, 0
1, 198240, Note_on_c, 1, 81, 0
1, 198240, Note_on_c, 1, 79, 44
1, 198240, Note_on_c, 4, 50, 44
1, 198336, Note_on_c, 4, 50, 0
1, 198360, Note_on_c, 1, 79, 0
1, 198360, Note_on_c, 1, 77, 42
1, 198360, Note_on_c, 3, 58, 42
1, 198456, Note_on_c, 3, 58, 0
1, 198480, Note_on_c, 1, 77, 0
1, 198480, Note_on_c, 1, 75, 41
1, 198480, Note_on_c, 3, 53, 41
1, 198576, Note_on_c, 3, 53, 0
1, 198600, Note_on_c, 1, 75, 0
1, 198600, Note_on_c, 1, 74, 40
1, 198600, Note_on_c, 3, 58, 40
1, 198680, Tempo, 1034482
1, 198696, Note_on_c, 1, 74, 0
1, 198696, Note_on_c, 3, 58, 0
1, 198720, Tempo, 1016949
1, 198720, Note_on_c, 1, 71, 44
1, 198720, Note_on_c, 4, 51, 44
1, 198816, Note_on_c, 4, 51, 0
1, 198840, Note_on_c, 1, 71, 0
1, 198840, Note_on_c, 1, 72, 42
1, 198840, Note_on_c, 3, 60, 42
1, 198936, Note_on_c, 3, 60, 0
1, 198960, Note_on_c, 1, 72, 0
1, 198960, Note_on_c, 1, 75, 41
1, 198960, Note_on_c, 3, 55, 41
1, 199056, Note_on_c, 3, 55, 0
1, 199080, Note_on_c, 1, 75, 0
1, 199080, Note_on_c, 1, 79, 41
1, 199080, Note_on_c, 3, 60, 41
1, 199160, Tempo, 1034482
1, 199176, Note_on_c, 3, 60, 0
1, 199200, Note_on_c, 1, 79, 0
1, 199200, Note_on_c, 1, 70, 40
1, 199200, Note_on_c, 4, 53, 40
1, 199296, Note_on_c, 4, 53, 0
1, 199320, Note_on_c, 3, 62, 39
1, 199416, Note_on_c, 3, 62, 0
1, 199440, Note_on_c, 3, 58, 38
1, 199522, Note_on_c, 1, 70, 0
1, 199536, Note_on_c, 3, 58, 0
1, 199560, Note_on_c, 1, 70, 37
1, 199560, Note_on_c, 3, 62, 37
1, 199640, Tempo, 1071428
1, 199656, Note_on_c, 3, 62, 0
1, 199680, Note_on_c, 1, 70, 0
1, 199680, Note_on_c, 1, 74, 36
1, 199680, Note_on_c, 4, 53, 36
1, 199776, Note_on_c, 4, 53, 0
1, 199800, Note_on_c, 1, 74, 0
1, 199800, Note_on_c, 1, 72, 36
1, 199800, Note_on_c, 3, 63, 36
1, 199896, Note_on_c, 3, 63, 0
1, 199920, Note_on_c, 1, 72, 0
1, 199920, Note_on_c, 1, 70, 35
1, 199920, Note_on_c, 3, 60, 35
1, 200016, Note_on_c, 3, 60, 0
1, 200030, Tempo, 1111111
1, 200040, Note_on_c, 1, 70, 0
1, 200040, Note_on_c, 1, 72, 34
1, 200040, Note_on_c, 3, 63, 34
1, 200136, Note_on_c, 1, 72, 0
1, 200136, Note_on_c, 3, 63, 0
1, 200160, Note_on_c, 1, 72, 37
1, 200160, Note_on_c, 2, 69, 37
1, 200160, Note_on_c, 3, 63, 37
1, 200160, Note_on_c, 4, 58, 37
1, 200640, Tempo, 1200000
1, 200640, Note_on_c, 1, 72, 0
1, 200640, Note_on_c, 1, 70, 30
1, 200640, Note_on_c, 2, 69, 0
1, 200640, Note_on_c, 3, 63, 0
1, 200640, Note_on_c, 3, 62, 30
1, 200760, Tempo, 1071428
1, 200760, Note_on_c, 1, 70, 0
1, 200760, Note_on_c, 1, 69, 26
1, 200880, Note_on_c, 1, 69, 0
1, 200880, Note_on_c, 1, 72, 28
1, 201000, Note_on_c, 1, 72, 0
1, 201000, Note_on_c, 1, 70, 29
1, 201120, Note_on_c, 1, 70, 0
1, 201120, Note_on_c, 1, 74, 31
1, 201120, Note_on_c, 3, 62, 0
1, 201120, Note_on_c, 4, 58, 0
1, 201240, Note_on_c, 1, 74, 0
1, 201240, Note_on_c, 1, 72, 33
1, 201360, Note_on_c, 1, 72, 0
1, 201360, Note_on_c, 1, 75, 35
1, 201480, Note_on_c, 1, 75, 0
1, 201480, Note_on_c, 1, 74, 36
1, 201560, Tempo, 1132075
1, 201576, Note_on_c, 1, 74, 0
1, 201600, Tempo, 1016949
1, 201600, Note_on_c, 1, 77, 40
1, 201600, Note_on_c, 4, 56, 40
1, 201696, Note_on_c, 4, 56, 0
1, 201720, Note_on_c, 3, 65, 41
1, 201816, Note_on_c, 3, 65, 0
1, 201840, Note_on_c, 3, 60, 42
1, 201936, Note_on_c, 3, 60, 0
1, 201960, Note_on_c, 3, 65, 43
1, 202056, Note_on_c, 3, 65, 0
1, 202080, Note_on_c, 4, 55, 44
1, 202176, Note_on_c, 4, 55, 0
1, 202200, Note_on_c, 1, 77, 0
1, 202200, Note_on_c, 1, 80, 45
1, 202200, Note_on_c, 3, 62, 45
1, 202296, Note_on_c, 3, 62, 0
1, 202320, Note_on_c, 1, 80, 0
1, 202320, Note_on_c, 1, 79, 46
1, 202320, Note_on_c, 3, 59, 46
1, 202416, Note_on_c, 3, 59, 0
1, 202440, Note_on_c, 1, 79, 0
1, 202440, Note_on_c, 1, 77, 47
1, 202440, Note_on_c, 3, 62, 47
1, 202536, Note_on_c, 3, 62, 0
1, 202560, Note_on_c, 1, 77, 0
1, 202560, Note_on_c, 1, 75, 48
1, 202560, Note_on_c, 4, 53, 48
1, 202656, Note_on_c, 4, 53, 0
1, 202680, Note_on_c, 1, 75, 0
1, 202680, Note_on_c, 1, 74, 49
1, 202680, Note_on_c, 3, 62, 49
1, 202776, Note_on_c, 3, 62, 0
1, 202800, Note_on_c, 1, 74, 0
1, 202800, Note_on_c, 1, 72, 50
1, 202800, Note_on_c, 3, 55, 50
1, 202896, Note_on_c, 3, 55, 0
1, 202920, Note_on_c, 1, 72, 0
1, 202920, Note_on_c, 1, 71, 52
1, 202920, Note_on_c, 3, 62, 51
1, 203016, Note_on_c, 3, 62, 0
1, 203040, Note_on_c, 1, 71, 0
1, 203040, Note_on_c, 1, 72, 54
1, 203040, Note_on_c, 4, 51, 53
1, 203136, Note_on_c, 4, 51, 0
1, 203160, Note_on_c, 3, 60, 49
1, 203256, Note_on_c, 3, 60, 0
1, 203280, Note_on_c, 3, 55, 46
1, 203376, Note_on_c, 3, 55, 0
1, 203400, Note_on_c, 1, 72, 0
1, 203400, Note_on_c, 1, 75, 47
1, 203400, Note_on_c, 3, 60, 44
1, 203496, Note_on_c, 3, 60, 0
1, 203520, Note_on_c, 1, 75, 0
1, 203520, Note_on_c, 1, 79, 45
1, 203520, Note_on_c, 4, 50, 46
1, 203616, Note_on_c, 4, 50, 0
1, 203640, Note_on_c, 3, 59, 47
1, 203736, Note_on_c, 3, 59, 0
1, 203760, Note_on_c, 3, 53, 48
1, 203856, Note_on_c, 3, 53, 0
1, 203880, Note_on_c, 3, 59, 49
1, 203976, Note_on_c, 3, 59, 0
1, 204000, Note_on_c, 1, 79, 0
1, 204000, Note_on_c, 4, 48, 50
1, 204096, Note_on_c, 4, 48, 0
1, 204120, Note_on_c, 3, 60, 51
1, 204216, Note_on_c, 3, 60, 0
1, 204240, Note_on_c, 3, 51, 52
1, 204336, Note_on_c, 3, 51, 0
1, 204360, Note_on_c, 3, 60, 53
1, 204440, Tempo, 1034482
1, 204456, Note_on_c, 3, 60, 0
1, 204480, Tempo, 1016949
1, 204480, Note_on_c, 1, 79, 54
1, 204480, Note_on_c, 4, 49, 54
1, 204576, Note_on_c, 4, 49, 0
1, 204600, Note_on_c, 3, 58, 55
1, 204696, Note_on_c, 3, 58, 0
1, 204720, Note_on_c, 3, 52, 56
1, 204816, Note_on_c, 3, 52, 0
1, 204840, Note_on_c, 3, 58, 57
1, 204936, Note_on_c, 3, 58, 0
1, 204960, Note_on_c, 4, 50, 58
1, 205056, Note_on_c, 4, 50, 0
1, 205080, Note_on_c, 1, 79, 0
1, 205080, Note_on_c, 1, 78, 59
1, 205080, Note_on_c, 3, 58, 59
1, 205176, Note_on_c, 3, 58, 0
1, 205200, Note_on_c, 1, 78, 0
1, 205200, Note_on_c, 1, 81, 60
1, 205200, Note_on_c, 3, 55, 60
1, 205296, Note_on_c, 3, 55, 0
1, 205320, Note_on_c, 1, 81, 0
1, 205320, Note_on_c, 1, 79, 62
1, 205320, Note_on_c, 3, 58, 62
1, 205416, Note_on_c, 3, 58, 0
1, 205440, Note_on_c, 1, 79, 0
1, 205440, Note_on_c, 1, 82, 63
1, 205440, Note_on_c, 4, 51, 63
1, 205536, Note_on_c, 4, 51, 0
1, 205560, Note_on_c, 1, 82, 0
1, 205560, Note_on_c, 1, 73, 64
1, 205560, Note_on_c, 3, 58, 64
1, 205656, Note_on_c, 3, 58, 0
1, 205680, Note_on_c, 1, 73, 0
1, 205680, Note_on_c, 1, 82, 65
1, 205680, Note_on_c, 3, 55, 65
1, 205776, Note_on_c, 3, 55, 0
1, 205800, Note_on_c, 1, 82, 0
1, 205800, Note_on_c, 1, 73, 66
1, 205800, Note_on_c, 3, 58, 66
1, 205880, Tempo, 1034482
1, 205896, Note_on_c, 1, 73, 0
1, 205896, Note_on_c, 3, 58, 0
1, 205920, Tempo, 1016949
1, 205920, Note_on_c, 1, 73, 70
1, 205920, Note_on_c, 4, 50, 69
1, 206016, Note_on_c, 4, 50, 0
1, 206040, Note_on_c, 3, 58, 66
1, 206136, Note_on_c, 3, 58, 0
1, 206160, Note_on_c, 3, 55, 64
1, 206256, Note_on_c, 3, 55, 0
1, 206280, Note_on_c, 3, 58, 61
1, 206376, Note_on_c, 3, 58, 0
1, 206400, Note_on_c, 1, 73, 0
1, 206400, Note_on_c, 1, 74, 62
1, 206400, Note_on_c, 4, 50, 58
1, 206496, Note_on_c, 4, 50, 0
1, 206520, Note_on_c, 3, 57, 59
1, 206616, Note_on_c, 3, 57, 0
1, 206640, Note_on_c, 3, 54, 60
1, 206736, Note_on_c, 3, 54, 0
1, 206760, Note_on_c, 3, 57, 61
1, 206856, Note_on_c, 3, 57, 0
1, 206880, Note_on_c, 1, 74, 0
1, 206880, Note_on_c, 4, 50, 62
1, 206976, Note_on_c, 4, 50, 0
1, 207000, Note_on_c, 3, 57, 64
1, 207096, Note_on_c, 3, 57, 0
1, 207120, Note_on_c, 3, 54, 65
1, 207216, Note_on_c, 3, 54, 0
1, 207240, Note_on_c, 3, 57, 66
1, 207310, Tempo, 1071428
1, 207336, Note_on_c, 3, 57, 0
1, 207360, Tempo, 1016949
1, 207360, Note_on_c, 1, 75, 67
1, 207360, Note_on_c, 4, 48, 67
1, 207456, Note_on_c, 4, 48, 0
1, 207480, Note_on_c, 3, 57, 68
1, 207576, Note_on_c, 3, 57, 0
1, 207600, Note_on_c, 3, 54, 69
1, 207696, Note_on_c, 3, 54, 0
1, 207720, Note_on_c, 3, 57, 70
1, 207816, Note_on_c, 3, 57, 0
1, 207840, Note_on_c, 4, 48, 71
1, 207936, Note_on_c, 4, 48, 0
1, 207960, Note_on_c, 1, 75, 0
1, 207960, Note_on_c, 1, 72, 72
1, 207960, Note_on_c, 3, 57, 72
1, 208056, Note_on_c, 3, 57, 0
1, 208080, Note_on_c, 1, 72, 0
1, 208080, Note_on_c, 1, 81, 73
1, 208080, Note_on_c, 3, 54, 73
1, 208176, Note_on_c, 3, 54, 0
1, 208200, Note_on_c, 1, 81, 0
1, 208200, Note_on_c, 1, 78, 74
1, 208200, Note_on_c, 3, 57, 74
1, 208296, Note_on_c, 3, 57, 0
1, 208320, Note_on_c, 1, 78, 0
1, 208320, Note_on_c, 1, 84, 75
1, 208320, Note_on_c, 4, 48, 75
1, 208416, Note_on_c, 4, 48, 0
1, 208440, Note_on_c, 1, 84, 0
1, 208440, Note_on_c, 1, 81, 76
1, 208440, Note_on_c, 3, 57, 76
1, 208536, Note_on_c, 3, 57, 0
1, 208560, Note_on_c, 1, 81, 0
1, 208560, Note_on_c, 1, 87, 77
1, 208560, Note_on_c, 3, 54, 77
1, 208656, Note_on_c, 3, 54, 0
1, 208680, Note_on_c, 1, 87, 0
1, 208680, Note_on_c, 1, 78, 78
1, 208680, Note_on_c, 3, 57, 78
1, 208760, Tempo, 1034482
1, 208776, Note_on_c, 1, 78, 0
1, 208776, Note_on_c, 3, 57, 0
1, 208800, Tempo, 1016949
1, 208800, Note_on_c, 1, 86, 81
1, 208800, Note_on_c, 4, 46, 81
1, 208896, Note_on_c, 4, 46, 0
1, 208920, Note_on_c, 3, 55, 79
1, 209016, Note_on_c, 3, 55, 0
1, 209040, Note_on_c, 3, 50, 77
1, 209136, Note_on_c, 3, 50, 0
1, 209160, Note_on_c, 3, 55, 76
1, 209256, Note_on_c, 3, 55, 0
1, 209280, Note_on_c, 4, 46, 74
1, 209376, Note_on_c, 4, 46, 0
1, 209400, Note_on_c, 1, 86, 0
1, 209400, Note_on_c, 1, 81, 72
1, 209400, Note_on_c, 3, 55, 72
1, 209496, Note_on_c, 3, 55, 0
1, 209520, Note_on_c, 1, 81, 0
1, 209520, Note_on_c, 1, 82, 71
1, 209520, Note_on_c, 3, 50, 71
1, 209616, Note_on_c, 3, 50, 0
1, 209640, Note_on_c, 1, 82, 0
1, 209640, Note_on_c, 1, 78, 69
1, 209640, Note_on_c, 3, 55, 69
1, 209736, Note_on_c, 3, 55, 0
1, 209760, Note_on_c, 1, 78, 0
1, 209760, Note_on_c, 1, 79, 67
1, 209760, Note_on_c, 4, 46, 67
1, 209856, Note_on_c, 4, 46, 0
1, 209880, Note_on_c, 1, 79, 0
1, 209880, Note_on_c, 1, 73, 66
1, 209880, Note_on_c, 3, 55, 66
1, 209976, Note_on_c, 3, 55, 0
1, 210000, Note_on_c, 1, 73, 0
1, 210000, Note_on_c, 1, 74, 64
1, 210000, Note_on_c, 3, 50, 64
1, 210096, Note_on_c, 3, 50, 0
1, 210120, Note_on_c, 1, 74, 0
1, 210120, Note_on_c, 1, 70, 62
1, 210120, Note_on_c, 3, 55, 62
1, 210200, Tempo, 1034482
1, 210216, Note_on_c, 1, 70, 0
1, 210216, Note_on_c, 3, 55, 0
1, 210240, Tempo, 1016949
1, 210240, Note_on_c, 1, 70, 60
1, 210240, Note_on_c, 4, 48, 60
1, 210336, Note_on_c, 4, 48, 0
1, 210360, Note_on_c, 1, 70, 0
1, 210360, Note_on_c, 1, 69, 59
1, 210360, Note_on_c, 3, 57, 59
1, 210456, Note_on_c, 3, 57, 0
1, 210480, Note_on_c, 1, 69, 0
1, 210480, Note_on_c, 1, 72, 57
1, 210480, Note_on_c, 3, 51, 57
1, 210576, Note_on_c, 3, 51, 0
1, 210600, Note_on_c, 1, 72, 0
1, 210600, Note_on_c, 1, 75, 55
1, 210600, Note_on_c, 3, 57, 55
1, 210680, Tempo, 1034482
1, 210696, Note_on_c, 3, 57, 0
1, 210720, Note_on_c, 1, 75, 0
1, 210720, Note_on_c, 1, 67, 54
1, 210720, Note_on_c, 4, 50, 54
1, 210816, Note_on_c, 4, 50, 0
1, 210840, Note_on_c, 3, 58, 52
1, 210936, Note_on_c, 3, 58, 0
1, 210960, Note_on_c, 3, 55, 50
1, 211050, Note_on_c, 1, 67, 0
1, 211056, Note_on_c, 3, 55, 0
1, 211080, Note_on_c, 1, 67, 49
1, 211080, Note_on_c, 3, 58, 49
1, 211160, Tempo, 1071428
1, 211176, Note_on_c, 3, 58, 0
1, 211200, Note_on_c, 1, 67, 0
1, 211200, Note_on_c, 1, 70, 47
1, 211200, Note_on_c, 4, 50, 47
1, 211296, Note_on_c, 4, 50, 0
1, 211320, Note_on_c, 1, 70, 0
1, 211320, Note_on_c, 1, 69, 45
1, 211320, Note_on_c, 3, 60, 45
1, 211416, Note_on_c, 3, 60, 0
1, 211440, Note_on_c, 1, 69, 0
1, 211440, Note_on_c, 1, 67, 44
1, 211440, Note_on_c, 3, 57, 44
1, 211536, Note_on_c, 3, 57, 0
1, 211560, Note_on_c, 1, 67, 0
1, 211560, Note_on_c, 1, 69, 42
1, 211560, Note_on_c, 3, 60, 42
1, 211620, Tempo, 1111111
1, 211656, Note_on_c, 1, 69, 0
1, 211656, Note_on_c, 3, 60, 0
1, 211680, Note_on_c, 1, 69, 46
1, 211680, Note_on_c, 2, 66, 46
1, 211680, Note_on_c, 3, 60, 46
1, 211680, Note_on_c, 4, 55, 46
1, 212160, Tempo, 1200000
1, 212160, Note_on_c, 1, 69, 0
1, 212160, Note_on_c, 1, 67, 28
1, 212160, Note_on_c, 2, 66, 0
1, 212160, Note_on_c, 3, 60, 0
1, 212160, Note_on_c, 3, 58, 30
1, 212280, Tempo, 1071428
1, 212280, Note_on_c, 1, 67, 0
1, 212280, Note_on_c, 1, 66, 29
1, 212400, Note_on_c, 1, 66, 0
1, 212400, Note_on_c, 1, 67, 29
1, 212520, Note_on_c, 1, 67, 0
1, 212520, Note_on_c, 1, 68, 30
1, 212640, Note_on_c, 1, 68, 0
1, 212640, Note_on_c, 1, 69, 30
1, 212640, Note_on_c, 3, 58, 0
1, 212640, Note_on_c, 4, 55, 0
1, 212760, Note_on_c, 1, 69, 0
1, 212760, Note_on_c, 1, 68, 31
1, 212880, Note_on_c, 1, 68, 0
1, 212880, Note_on_c, 1, 69, 31
1, 213000, Note_on_c, 1, 69, 0
1, 213000, Note_on_c, 1, 70, 32
1, 213080, Tempo, 1111111
1, 213120, Tempo, 1016949
1, 213120, Note_on_c, 1, 70, 0
1, 213120, Note_on_c, 1, 71, 34
1, 213120, Note_on_c, 4, 55, 31
1, 213216, Note_on_c, 4, 55, 0
1, 213240, Note_on_c, 3, 62, 31
1, 213336, Note_on_c, 3, 62, 0
1, 213360, Note_on_c, 3, 59, 32
1, 213456, Note_on_c, 3, 59, 0
1, 213480, Note_on_c, 3, 62, 33
1, 213576, Note_on_c, 3, 62, 0
1, 213600, Note_on_c, 4, 55, 34
1, 213696, Note_on_c, 4, 55, 0
1, 213720, Note_on_c, 3, 62, 35
1, 213816, Note_on_c, 3, 62, 0
1, 213840, Note_on_c, 3, 59, 36
1, 213936, Note_on_c, 3, 59, 0
1, 213960, Note_on_c, 3, 62, 37
1, 214056, Note_on_c, 3, 62, 0
1, 214080, Note_on_c, 1, 71, 0
1, 214080, Note_on_c, 1, 74, 37
1, 214080, Note_on_c, 4, 57, 38
1, 214176, Note_on_c, 4, 57, 0
1, 214200, Note_on_c, 1, 74, 0
1, 214200, Note_on_c, 1, 72, 39
1, 214200, Note_on_c, 3, 62, 38
1, 214296, Note_on_c, 3, 62, 0
1, 214320, Note_on_c, 1, 72, 0
1, 214320, Note_on_c, 1, 71, 40
1, 214320, Note_on_c, 3, 60, 39
1, 214416, Note_on_c, 3, 60, 0
1, 214440, Note_on_c, 1, 71, 0
1, 214440, Note_on_c, 1, 72, 42
1, 214440, Note_on_c, 3, 62, 40
1, 214536, Note_on_c, 3, 62, 0
1, 214560, Note_on_c, 1, 72, 0
1, 214560, Note_on_c, 1, 74, 45
1, 214560, Note_on_c, 4, 55, 42
1, 214656, Note_on_c, 4, 55, 0
1, 214680, Note_on_c, 3, 62, 43
1, 214776, Note_on_c, 3, 62, 0
1, 214800, Note_on_c, 3, 59, 42
1, 214896, Note_on_c, 3, 59, 0
1, 214920, Note_on_c, 1, 74, 0
1, 214920, Note_on_c, 1, 71, 40
1, 214920, Note_on_c, 3, 62, 41
1, 215016, Note_on_c, 3, 62, 0
1, 215040, Note_on_c, 1, 71, 0
1, 215040, Note_on_c, 1, 67, 38
1, 215040, Note_on_c, 4, 55, 40
1, 215136, Note_on_c, 4, 55, 0
1, 215160, Note_on_c, 3, 62, 39
1, 215256, Note_on_c, 3, 62, 0
1, 215280, Note_on_c, 3, 59, 38
1, 215376, Note_on_c, 3, 59, 0
1, 215400, Note_on_c, 3, 62, 38
1, 215496, Note_on_c, 3, 62, 0
1, 215520, Note_on_c, 1, 67, 0
1, 215520, Note_on_c, 4, 55, 37
1, 215616, Note_on_c, 4, 55, 0
1, 215640, Note_on_c, 3, 62, 36
1, 215736, Note_on_c, 3, 62, 0
1, 215760, Note_on_c, 3, 59, 35
1, 215856, Note_on_c, 3, 59, 0
1, 215880, Note_on_c, 3, 62, 34
1, 215960, Tempo, 1034482
1, 215976, Note_on_c, 3, 62, 0
1, 216000, Tempo, 1016949
1, 216000, Note_on_c, 1, 79, 36
1, 216000, Note_on_c, 4, 55, 36
1, 216096, Note_on_c, 4, 55, 0
1, 216120, Note_on_c, 3, 64, 37
1, 216216, Note_on_c, 3, 64, 0
1, 216240, Note_on_c, 3, 60, 38
1, 216336, Note_on_c, 3, 60, 0
1, 216360, Note_on_c, 3, 64, 39
1, 216456, Note_on_c, 3, 64, 0
1, 216480, Note_on_c, 4, 55, 40
1, 216576, Note_on_c, 4, 55, 0
1, 216600, Note_on_c, 3, 64, 40
1, 216696, Note_on_c, 3, 64, 0
1, 216720, Note_on_c, 1, 79, 0
1, 216720, Note_on_c, 1, 81, 41
1, 216720, Note_on_c, 3, 60, 41
1, 216816, Note_on_c, 3, 60, 0
1, 216840, Note_on_c, 1, 81, 0
1, 216840, Note_on_c, 1, 79, 42
1, 216840, Note_on_c, 3, 64, 42
1, 216936, Note_on_c, 3, 64, 0
1, 216960, Note_on_c, 1, 79, 0
1, 216960, Note_on_c, 1, 78, 43
1, 216960, Note_on_c, 4, 55, 43
1, 217056, Note_on_c, 4, 55, 0
1, 217080, Note_on_c, 1, 78, 0
1, 217080, Note_on_c, 1, 76, 44
1, 217080, Note_on_c, 3, 61, 44
1, 217176, Note_on_c, 3, 61, 0
1, 217200, Note_on_c, 1, 76, 0
1, 217200, Note_on_c, 1, 74, 45
1, 217200, Note_on_c, 3, 58, 45
1, 217296, Note_on_c, 3, 58, 0
1, 217320, Note_on_c, 1, 74, 0
1, 217320, Note_on_c, 1, 73, 46
1, 217320, Note_on_c, 3, 61, 46
1, 217416, Note_on_c, 3, 61, 0
1, 217440, Note_on_c, 1, 73, 0
1, 217440, Note_on_c, 1, 74, 49
1, 217440, Note_on_c, 4, 55, 49
1, 217536, Note_on_c, 4, 55, 0
1, 217560, Note_on_c, 3, 62, 47
1, 217656, Note_on_c, 3, 62, 0
1, 217680, Note_on_c, 3, 59, 46
1, 217776, Note_on_c, 3, 59, 0
1, 217800, Note_on_c, 1, 74, 0
1, 217800, Note_on_c, 1, 71, 45
1, 217800, Note_on_c, 3, 62, 45
1, 217896, Note_on_c, 3, 62, 0
1, 217920, Note_on_c, 1, 71, 0
1, 217920, Note_on_c, 1, 67, 43
1, 217920, Note_on_c, 4, 55, 43
1, 218016, Note_on_c, 4, 55, 0
1, 218040, Note_on_c, 3, 62, 42
1, 218136, Note_on_c, 3, 62, 0
1, 218160, Note_on_c, 3, 59, 41
1, 218256, Note_on_c, 3, 59, 0
1, 218280, Note_on_c, 3, 62, 40
1, 218376, Note_on_c, 3, 62, 0
1, 218400, Note_on_c, 1, 67, 0
1, 218400, Note_on_c, 4, 55, 39
1, 218496, Note_on_c, 4, 55, 0
1, 218520, Note_on_c, 3, 62, 37
1, 218616, Note_on_c, 3, 62, 0
1, 218640, Note_on_c, 3, 59, 36
1, 218736, Note_on_c, 3, 59, 0
1, 218760, Note_on_c, 3, 62, 40
1, 218790, Tempo, 1034482
1, 218856, Note_on_c, 3, 62, 0
1, 218880, Tempo, 1016949
1, 218880, Note_on_c, 1, 72, 40
1, 218880, Note_on_c, 4, 57, 40
1, 218976, Note_on_c, 4, 57, 0
1, 219000, Note_on_c, 3, 62, 41
1, 219096, Note_on_c, 3, 62, 0
1, 219120, Note_on_c, 3, 60, 41
1, 219216, Note_on_c, 3, 60, 0
1, 219240, Note_on_c, 1, 72, 0
1, 219240, Note_on_c, 1, 69, 42
1, 219240, Note_on_c, 3, 62, 42
1, 219336, Note_on_c, 3, 62, 0
1, 219360, Note_on_c, 1, 69, 0
1, 219360, Note_on_c, 1, 66, 43
1, 219360, Note_on_c, 4, 57, 43
1, 219456, Note_on_c, 4, 57, 0
1, 219480, Note_on_c, 3, 62, 43
1, 219515, Note_on_c, 1, 66, 0
1, 219576, Note_on_c, 3, 62, 0
1, 219600, Note_on_c, 1, 69, 44
1, 219600, Note_on_c, 3, 60, 44
1, 219696, Note_on_c, 3, 60, 0
1, 219720, Note_on_c, 3, 62, 45
1, 219755, Note_on_c, 1, 69, 0
1, 219816, Note_on_c, 3, 62, 0
1, 219840, Note_on_c, 1, 71, 45
1, 219840, Note_on_c, 4, 57, 45
1, 219936, Note_on_c, 4, 57, 0
1, 219960, Note_on_c, 3, 62, 46
1, 219995, Note_on_c, 1, 71, 0
1, 220056, Note_on_c, 3, 62, 0
1, 220080, Note_on_c, 1, 72, 46
1, 220080, Note_on_c, 3, 60, 46
1, 220176, Note_on_c, 3, 60, 0
1, 220200, Note_on_c, 3, 62, 47
1, 220235, Note_on_c, 1, 72, 0
1, 220280, Tempo, 1034482
1, 220296, Note_on_c, 3, 62, 0
1, 220320, Tempo, 1016949
1, 220320, Note_on_c, 1, 74, 48
1, 220320, Note_on_c, 4, 55, 48
1, 220416, Note_on_c, 4, 55, 0
1, 220440, Note_on_c, 3, 62, 48
1, 220536, Note_on_c, 3, 62, 0
1, 220560, Note_on_c, 3, 59, 49
1, 220656, Note_on_c, 3, 59, 0
1, 220680, Note_on_c, 1, 74, 0
1, 220680, Note_on_c, 1, 71, 53
1, 220680, Note_on_c, 3, 62, 49
1, 220776, Note_on_c, 3, 62, 0
1, 220800, Note_on_c, 1, 71, 0
1, 220800, Note_on_c, 1, 79, 55
1, 220800, Note_on_c, 4, 52, 50
1, 220896, Note_on_c, 4, 52, 0
1, 220920, Note_on_c, 3, 59, 51
1, 221016, Note_on_c, 3, 59, 0
1, 221040, Note_on_c, 3, 55, 51
1, 221136, Note_on_c, 3, 55, 0
1, 221160, Note_on_c, 3, 59, 52
1, 221256, Note_on_c, 3, 59, 0
1, 221280, Note_on_c, 1, 79, 0
1, 221280, Note_on_c, 4, 47, 53
1, 221376, Note_on_c, 4, 47, 0
1, 221400, Note_on_c, 3, 55, 53
1, 221496, Note_on_c, 3, 55, 0
1, 221520, Note_on_c, 3, 50, 54
1, 221616, Note_on_c, 3, 50, 0
1, 221640, Note_on_c, 3, 55, 54
1, 221660, Tempo, 1071428
1, 221736, Note_on_c, 3, 55, 0
1, 221760, Tempo, 1034482
1, 221760, Note_on_c, 1, 81, 56
1, 221760, Note_on_c, 3, 52, 56
1, 221760, Note_on_c, 4, 48, 56
1, 221880, Note_on_c, 1, 81, 0
1, 221880, Note_on_c, 1, 79, 54
1, 222000, Note_on_c, 1, 79, 0
1, 222000, Note_on_c, 1, 78, 53
1, 222120, Note_on_c, 1, 78, 0
1, 222120, Note_on_c, 1, 79, 51
1, 222240, Note_on_c, 1, 79, 0
1, 222240, Note_on_c, 1, 78, 49
1, 222240, Note_on_c, 3, 52, 0
1, 222240, Note_on_c, 3, 55, 49
1, 222360, Note_on_c, 1, 78, 0
1, 222360, Note_on_c, 1, 76, 47
1, 222480, Note_on_c, 1, 76, 0
1, 222480, Note_on_c, 1, 75, 45
1, 222600, Note_on_c, 1, 75, 0
1, 222600, Note_on_c, 1, 76, 44
1, 222720, Note_on_c, 1, 76, 0
1, 222720, Note_on_c, 1, 74, 42
1, 222720, Note_on_c, 4, 48, 0
1, 222720, Note_on_c, 4, 52, 42
1, 222840, Note_on_c, 1, 74, 0
1, 222840, Note_on_c, 1, 72, 40
1, 222960, Note_on_c, 1, 72, 0
1, 222960, Note_on_c, 1, 71, 38
1, 223080, Note_on_c, 1, 71, 0
1, 223080, Note_on_c, 1, 72, 36
1, 223160, Tempo, 1071428
1, 223200, Note_on_c, 1, 72, 0
1, 223200, Note_on_c, 1, 71, 42
1, 223200, Note_on_c, 3, 55, 0
1, 223200, Note_on_c, 3, 55, 42
1, 223200, Note_on_c, 4, 52, 0
1, 223200, Note_on_c, 4, 50, 42
1, 223560, Note_on_c, 1, 71, 0
1, 223560, Note_on_c, 1, 72, 34
1, 223620, Note_on_c, 1, 72, 0
1, 223620, Note_on_c, 1, 71, 33
1, 223665, Tempo, 1200000
1, 223680, Note_on_c, 1, 71, 0
1, 223680, Note_on_c, 1, 69, 32
1, 223680, Note_on_c, 3, 55, 0
1, 223680, Note_on_c, 3, 54, 32
1, 223870, Note_on_c, 1, 69, 0
1, 223920, Tempo, 1071428
1, 223920, Note_on_c, 1, 74, 30
1, 224160, Note_on_c, 1, 74, 0
1, 224160, Note_on_c, 1, 73, 32
1, 224160, Note_on_c, 3, 54, 0
1, 224160, Note_on_c, 4, 50, 0
1, 224400, Note_on_c, 1, 73, 0
1, 224400, Note_on_c, 1, 72, 34
1, 224600, Tempo, 1111111
1, 224640, Tempo, 1016949
1, 224640, Note_on_c, 1, 72, 0
1, 224640, Note_on_c, 1, 71, 36
1, 224640, Note_on_c, 4, 55, 34
1, 224736, Note_on_c, 4, 55, 0
1, 224760, Note_on_c, 3, 62, 35
1, 224856, Note_on_c, 3, 62, 0
1, 224880, Note_on_c, 3, 59, 37
1, 224976, Note_on_c, 3, 59, 0
1, 225000, Note_on_c, 3, 62, 38
1, 225096, Note_on_c, 3, 62, 0
1, 225120, Note_on_c, 4, 55, 39
1, 225216, Note_on_c, 4, 55, 0
1, 225240, Note_on_c, 1, 71, 0
1, 225240, Note_on_c, 1, 67, 40
1, 225240, Note_on_c, 3, 62, 40
1, 225336, Note_on_c, 3, 62, 0
1, 225360, Note_on_c, 1, 67, 0
1, 225360, Note_on_c, 1, 71, 41
1, 225360, Note_on_c, 3, 59, 41
1, 225456, Note_on_c, 3, 59, 0
1, 225480, Note_on_c, 1, 71, 0
1, 225480, Note_on_c, 1, 74, 42
1, 225480, Note_on_c, 3, 62, 42
1, 225576, Note_on_c, 3, 62, 0
1, 225600, Note_on_c, 1, 74, 0
1, 225600, Note_on_c, 1, 72, 43
1, 225600, Note_on_c, 4, 57, 43
1, 225696, Note_on_c, 4, 57, 0
1, 225720, Note_on_c, 1, 72, 0
1, 225720, Note_on_c, 1, 69, 44
1, 225720, Note_on_c, 3, 62, 44
1, 225816, Note_on_c, 3, 62, 0
1, 225840, Note_on_c, 1, 69, 0
1, 225840, Note_on_c, 1, 72, 45
1, 225840, Note_on_c, 3, 60, 45
1, 225936, Note_on_c, 3, 60, 0
1, 225960, Note_on_c, 1, 72, 0
1, 225960, Note_on_c, 1, 76, 46
1, 225960, Note_on_c, 3, 62, 46
1, 226056, Note_on_c, 3, 62, 0
1, 226080, Note_on_c, 1, 76, 0
1, 226080, Note_on_c, 1, 74, 49
1, 226080, Note_on_c, 4, 55, 49
1, 226176, Note_on_c, 4, 55, 0
1, 226200, Note_on_c, 3, 62, 49
1, 226296, Note_on_c, 3, 62, 0
1, 226320, Note_on_c, 3, 59, 48
1, 226416, Note_on_c, 3, 59, 0
1, 226440, Note_on_c, 1, 74, 0
1, 226440, Note_on_c, 1, 71, 47
1, 226440, Note_on_c, 3, 62, 47
1, 226536, Note_on_c, 3, 62, 0
1, 226560, Note_on_c, 1, 71, 0
1, 226560, Note_on_c, 1, 67, 46
1, 226560, Note_on_c, 4, 55, 46
1, 226640, Note_on_c, 1, 67, 0
1, 226656, Note_on_c, 4, 55, 0
1, 226680, Note_on_c, 1, 67, 45
1, 226680, Note_on_c, 3, 62, 45
1, 226760, Note_on_c, 1, 67, 0
1, 226776, Note_on_c, 3, 62, 0
1, 226800, Note_on_c, 1, 69, 44
1, 226800, Note_on_c, 3, 59, 44
1, 226880, Note_on_c, 1, 69, 0
1, 226896, Note_on_c, 3, 59, 0
1, 226920, Note_on_c, 1, 71, 43
1, 226920, Note_on_c, 3, 62, 43
1, 227000, Note_on_c, 1, 71, 0
1, 227016, Note_on_c, 3, 62, 0
1, 227040, Note_on_c, 1, 72, 42
1, 227040, Note_on_c, 4, 55, 42
1, 227120, Note_on_c, 1, 72, 0
1, 227136, Note_on_c, 4, 55, 0
1, 227160, Note_on_c, 1, 74, 42
1, 227160, Note_on_c, 3, 62, 42
1, 227240, Note_on_c, 1, 74, 0
1, 227256, Note_on_c, 3, 62, 0
1, 227280, Note_on_c, 1, 76, 41
1, 227280, Note_on_c, 3, 59, 41
1, 227360, Note_on_c, 1, 76, 0
1, 227376, Note_on_c, 3, 59, 0
1, 227400, Note_on_c, 1, 78, 40
1, 227400, Note_on_c, 3, 62, 40
1, 227480, Tempo, 1034482
1, 227480, Note_on_c, 1, 78, 0
1, 227496, Note_on_c, 3, 62, 0
1, 227520, Tempo, 1016949
1, 227520, Note_on_c, 1, 79, 43
1, 227520, Note_on_c, 4, 55, 43
1, 227616, Note_on_c, 4, 55, 0
1, 227640, Note_on_c, 1, 79, 0
1, 227640, Note_on_c, 1, 78, 44
1, 227640, Note_on_c, 3, 64, 44
1, 227736, Note_on_c, 3, 64, 0
1, 227760, Note_on_c, 1, 78, 0
1, 227760, Note_on_c, 1, 79, 45
1, 227760, Note_on_c, 3, 60, 45
1, 227856, Note_on_c, 3, 60, 0
1, 227880, Note_on_c, 1, 79, 0
1, 227880, Note_on_c, 1, 78, 45
1, 227880, Note_on_c, 3, 64, 45
1, 227976, Note_on_c, 3, 64, 0
1, 228000, Note_on_c, 1, 78, 0
1, 228000, Note_on_c, 1, 81, 46
1, 228000, Note_on_c, 4, 55, 46
1, 228096, Note_on_c, 4, 55, 0
1, 228120, Note_on_c, 1, 81, 0
1, 228120, Note_on_c, 1, 79, 47
1, 228120, Note_on_c, 3, 64, 47
1, 228216, Note_on_c, 3, 64, 0
1, 228240, Note_on_c, 1, 79, 0
1, 228240, Note_on_c, 1, 78, 47
1, 228240, Note_on_c, 3, 60, 47
1, 228336, Note_on_c, 3, 60, 0
1, 228360, Note_on_c, 1, 78, 0
1, 228360, Note_on_c, 1, 79, 48
1, 228360, Note_on_c, 3, 64, 48
1, 228456, Note_on_c, 3, 64, 0
1, 228480, Note_on_c, 1, 79, 0
1, 228480, Note_on_c, 1, 78, 49
1, 228480, Note_on_c, 4, 55, 49
1, 228576, Note_on_c, 4, 55, 0
1, 228600, Note_on_c, 1, 78, 0
1, 228600, Note_on_c, 1, 76, 49
1, 228600, Note_on_c, 3, 61, 49
1, 228696, Note_on_c, 3, 61, 0
1, 228720, Note_on_c, 1, 76, 0
1, 228720, Note_on_c, 1, 74, 50
1, 228720, Note_on_c, 3, 58, 50
1, 228816, Note_on_c, 3, 58, 0
1, 228840, Note_on_c, 1, 74, 0
1, 228840, Note_on_c, 1, 73, 53
1, 228840, Note_on_c, 3, 61, 51
1, 228936, Note_on_c, 3, 61, 0
1, 228960, Note_on_c, 1, 73, 0
1, 228960, Note_on_c, 1, 74, 55
1, 228960, Note_on_c, 4, 55, 53
1, 229056, Note_on_c, 4, 55, 0
1, 229080, Note_on_c, 1, 74, 0
1, 229080, Note_on_c, 1, 71, 53
1, 229080, Note_on_c, 3, 62, 51
1, 229176, Note_on_c, 3, 62, 0
1, 229200, Note_on_c, 1, 71, 0
1, 229200, Note_on_c, 1, 74, 51
1, 229200, Note_on_c, 3, 59, 50
1, 229296, Note_on_c, 3, 59, 0
1, 229320, Note_on_c, 1, 74, 0
1, 229320, Note_on_c, 1, 71, 49
1, 229320, Note_on_c, 3, 62, 49
1, 229416, Note_on_c, 3, 62, 0
1, 229440, Note_on_c, 1, 71, 0
1, 229440, Note_on_c, 1, 67, 47
1, 229440, Note_on_c, 4, 55, 48
1, 229536, Note_on_c, 4, 55, 0
1, 229560, Note_on_c, 3, 62, 48
1, 229656, Note_on_c, 3, 62, 0
1, 229680, Note_on_c, 3, 59, 47
1, 229776, Note_on_c, 3, 59, 0
1, 229800, Note_on_c, 3, 62, 46
1, 229896, Note_on_c, 3, 62, 0
1, 229920, Note_on_c, 1, 67, 0
1, 229920, Note_on_c, 4, 55, 45
1, 230016, Note_on_c, 4, 55, 0
1, 230040, Note_on_c, 3, 62, 44
1, 230136, Note_on_c, 3, 62, 0
1, 230160, Note_on_c, 3, 59, 43
1, 230256, Note_on_c, 3, 59, 0
1, 230280, Note_on_c, 3, 62, 42
1, 230330, Tempo, 1034482
1, 230376, Note_on_c, 3, 62, 0
1, 230400, Tempo, 1016949
1, 230400, Note_on_c, 1, 72, 44
1, 230400, Note_on_c, 4, 57, 44
1, 230496, Note_on_c, 4, 57, 0
1, 230520, Note_on_c, 1, 72, 0
1, 230520, Note_on_c, 1, 69, 45
1, 230520, Note_on_c, 3, 62, 45
1, 230616, Note_on_c, 3, 62, 0
1, 230640, Note_on_c, 1, 69, 0
1, 230640, Note_on_c, 1, 72, 46
1, 230640, Note_on_c, 3, 60, 46
1, 230736, Note_on_c, 3, 60, 0
1, 230760, Note_on_c, 1, 72, 0
1, 230760, Note_on_c, 1, 69, 47
1, 230760, Note_on_c, 3, 62, 47
1, 230856, Note_on_c, 3, 62, 0
1, 230880, Note_on_c, 1, 69, 0
1, 230880, Note_on_c, 1, 66, 48
1, 230880, Note_on_c, 4, 57, 48
1, 230960, Note_on_c, 1, 66, 0
1, 230976, Note_on_c, 4, 57, 0
1, 231000, Note_on_c, 1, 69, 49
1, 231000, Note_on_c, 3, 62, 49
1, 231096, Note_on_c, 3, 62, 0
1, 231120, Note_on_c, 1, 69, 0
1, 231120, Note_on_c, 1, 68, 49
1, 231120, Note_on_c, 3, 60, 49
1, 231216, Note_on_c, 3, 60, 0
1, 231240, Note_on_c, 1, 68, 0
1, 231240, Note_on_c, 1, 69, 50
1, 231240, Note_on_c, 3, 62, 50
1, 231336, Note_on_c, 3, 62, 0
1, 231360, Note_on_c, 1, 69, 0
1, 231360, Note_on_c, 1, 70, 51
1, 231360, Note_on_c, 4, 57, 51
1, 231456, Note_on_c, 4, 57, 0
1, 231480, Note_on_c, 1, 70, 0
1, 231480, Note_on_c, 1, 71, 52
1, 231480, Note_on_c, 3, 62, 52
1, 231576, Note_on_c, 3, 62, 0
1, 231600, Note_on_c, 1, 71, 0
1, 231600, Note_on_c, 1, 72, 53
1, 231600, Note_on_c, 3, 60, 53
1, 231696, Note_on_c, 3, 60, 0
1, 231720, Note_on_c, 1, 72, 0
1, 231720, Note_on_c, 1, 73, 54
1, 231720, Note_on_c, 3, 62, 54
1, 231816, Note_on_c, 3, 62, 0
1, 231840, Note_on_c, 1, 73, 0
1, 231840, Note_on_c, 1, 74, 55
1, 231840, Note_on_c, 4, 55, 55
1, 231936, Note_on_c, 4, 55, 0
1, 231960, Note_on_c, 1, 74, 0
1, 231960, Note_on_c, 1, 71, 55
1, 231960, Note_on_c, 3, 62, 55
1, 232056, Note_on_c, 3, 62, 0
1, 232080, Note_on_c, 1, 71, 0
1, 232080, Note_on_c, 1, 74, 56
1, 232080, Note_on_c, 3, 59, 56
1, 232176, Note_on_c, 3, 59, 0
1, 232200, Note_on_c, 1, 74, 0
1, 232200, Note_on_c, 1, 71, 57
1, 232200, Note_on_c, 3, 62, 57
1, 232296, Note_on_c, 3, 62, 0
1, 232320, Note_on_c, 1, 71, 0
1, 232320, Note_on_c, 1, 79, 58
1, 232320, Note_on_c, 4, 52, 58
1, 232416, Note_on_c, 4, 52, 0
1, 232440, Note_on_c, 3, 59, 59
1, 232536, Note_on_c, 3, 59, 0
1, 232560, Note_on_c, 3, 55, 60
1, 232656, Note_on_c, 3, 55, 0
1, 232680, Note_on_c, 3, 59, 60
1, 232776, Note_on_c, 3, 59, 0
1, 232800, Note_on_c, 1, 79, 0
1, 232800, Note_on_c, 4, 47, 61
1, 232896, Note_on_c, 4, 47, 0
1, 232920, Note_on_c, 1, 83, 62
1, 232920, Note_on_c, 3, 55, 62
1, 233016, Note_on_c, 3, 55, 0
1, 233040, Note_on_c, 1, 83, 0
1, 233040, Note_on_c, 1, 78, 63
1, 233040, Note_on_c, 3, 50, 63
1, 233136, Note_on_c, 3, 50, 0
1, 233160, Note_on_c, 1, 78, 0
1, 233160, Note_on_c, 1, 79, 64
1, 233160, Note_on_c, 3, 55, 64
1, 233240, Tempo, 1034482
1, 233256, Note_on_c, 3, 55, 0
1, 233280, Tempo, 1016949
1, 233280, Note_on_c, 1, 79, 0
1, 233280, Note_on_c, 1, 75, 66
1, 233280, Note_on_c, 4, 48, 66
1, 233376, Note_on_c, 4, 48, 0
1, 233400, Note_on_c, 1, 75, 0
1, 233400, Note_on_c, 1, 76, 62
1, 233400, Note_on_c, 3, 57, 62
1, 233496, Note_on_c, 3, 57, 0
1, 233520, Note_on_c, 1, 76, 0
1, 233520, Note_on_c, 1, 72, 60
1, 233520, Note_on_c, 3, 52, 60
1, 233616, Note_on_c, 3, 52, 0
1, 233640, Note_on_c, 1, 72, 0
1, 233640, Note_on_c, 1, 69, 58
1, 233640, Note_on_c, 3, 57, 58
1, 233720, Tempo, 1034482
1, 233736, Note_on_c, 3, 57, 0
1, 233760, Note_on_c, 1, 69, 0
1, 233760, Note_on_c, 1, 67, 56
1, 233760, Note_on_c, 4, 50, 56
1, 233856, Note_on_c, 4, 50, 0
1, 233880, Note_on_c, 3, 59, 54
1, 233976, Note_on_c, 3, 59, 0
1, 234000, Note_on_c, 3, 55, 52
1, 234075, Note_on_c, 1, 67, 0
1, 234096, Note_on_c, 3, 55, 0
1, 234120, Note_on_c, 1, 67, 50
1, 234120, Note_on_c, 3, 59, 50
1, 234200, Tempo, 1071428
1, 234216, Note_on_c, 1, 67, 0
1, 234216, Note_on_c, 3, 59, 0
1, 234240, Note_on_c, 1, 71, 48
1, 234240, Note_on_c, 2, 66, 48
1, 234240, Note_on_c, 4, 50, 48
1, 234336, Note_on_c, 4, 50, 0
1, 234360, Note_on_c, 1, 71, 0
1, 234360, Note_on_c, 1, 69, 46
1, 234360, Note_on_c, 3, 60, 46
1, 234456, Note_on_c, 3, 60, 0
1, 234480, Note_on_c, 1, 69, 0
1, 234480, Note_on_c, 1, 67, 44
1, 234480, Note_on_c, 3, 57, 44
1, 234576, Note_on_c, 3, 57, 0
1, 234600, Tempo, 1111111
1, 234600, Note_on_c, 1, 67, 0
1, 234600, Note_on_c, 1, 69, 42
1, 234600, Note_on_c, 3, 60, 42
1, 234690, Note_on_c, 2, 66, 0
1, 234696, Note_on_c, 1, 69, 0
1, 234696, Note_on_c, 3, 60, 0
1, 234720, Note_on_c, 1, 67, 42
1, 234720, Note_on_c, 3, 59, 42
1, 234720, Note_on_c, 4, 55, 42
1, 234760, Tempo, 1034482
1, 234840, Note_on_c, 1, 67, 0
1, 234840, Note_on_c, 1, 66, 43
1, 234960, Note_on_c, 1, 66, 0
1, 234960, Note_on_c, 1, 69, 43
1, 235080, Note_on_c, 1, 69, 0
1, 235080, Note_on_c, 1, 67, 44
1, 235200, Note_on_c, 1, 67, 0
1, 235200, Note_on_c, 1, 71, 44
1, 235200, Note_on_c, 3, 59, 0
1, 235200, Note_on_c, 4, 55, 0
1, 235320, Note_on_c, 1, 71, 0
1, 235320, Note_on_c, 1, 69, 45
1, 235440, Note_on_c, 1, 69, 0
1, 235440, Note_on_c, 1, 72, 45
1, 235560, Note_on_c, 1, 72, 0
1, 235560, Note_on_c, 1, 71, 46
1, 235680, Note_on_c, 1, 71, 0
1, 235680, Note_on_c, 1, 74, 47
1, 235800, Note_on_c, 1, 74, 0
1, 235800, Note_on_c, 1, 72, 47
1, 235920, Note_on_c, 1, 72, 0
1, 235920, Note_on_c, 1, 76, 48
1, 236040, Note_on_c, 1, 76, 0
1, 236040, Note_on_c, 1, 74, 48
1, 236120, Tempo, 1071428
1, 236160, Tempo, 1016949
1, 236160, Note_on_c, 1, 74, 0
1, 236160, Note_on_c, 1, 77, 49
1, 236160, Note_on_c, 4, 57, 49
1, 236256, Note_on_c, 4, 57, 0
1, 236280, Note_on_c, 3, 65, 50
1, 236376, Note_on_c, 3, 65, 0
1, 236400, Note_on_c, 3, 60, 50
1, 236496, Note_on_c, 3, 60, 0
1, 236520, Note_on_c, 3, 65, 51
1, 236616, Note_on_c, 3, 65, 0
1, 236640, Note_on_c, 4, 57, 51
1, 236736, Note_on_c, 4, 57, 0
1, 236760, Note_on_c, 3, 65, 52
1, 236856, Note_on_c, 3, 65, 0
1, 236880, Note_on_c, 1, 77, 0
1, 236880, Note_on_c, 1, 79, 53
1, 236880, Note_on_c, 3, 60, 53
1, 236976, Note_on_c, 3, 60, 0
1, 237000, Note_on_c, 1, 79, 0
1, 237000, Note_on_c, 1, 81, 53
1, 237000, Note_on_c, 3, 65, 53
1, 237096, Note_on_c, 3, 65, 0
1, 237120, Note_on_c, 1, 81, 0
1, 237120, Note_on_c, 1, 79, 54
1, 237120, Note_on_c, 4, 59, 54
1, 237216, Note_on_c, 4, 59, 0
1, 237240, Note_on_c, 1, 79, 0
1, 237240, Note_on_c, 1, 77, 54
1, 237240, Note_on_c, 3, 67, 54
1, 237336, Note_on_c, 3, 67, 0
1, 237360, Note_on_c, 1, 77, 0
1, 237360, Note_on_c, 1, 76, 55
1, 237360, Note_on_c, 3, 62, 55
1, 237456, Note_on_c, 3, 62, 0
1, 237480, Note_on_c, 1, 76, 0
1, 237480, Note_on_c, 1, 74, 56
1, 237480, Note_on_c, 3, 67, 56
1, 237576, Note_on_c, 1, 74, 0
1, 237576, Note_on_c, 3, 67, 0
1, 237600, Note_on_c, 1, 75, 58
1, 237600, Note_on_c, 4, 60, 56
1, 237696, Note_on_c, 4, 60, 0
1, 237720, Note_on_c, 3, 67, 57
1, 237816, Note_on_c, 3, 67, 0
1, 237840, Note_on_c, 3, 64, 57
1, 237936, Note_on_c, 3, 64, 0
1, 237960, Note_on_c, 3, 67, 58
1, 238056, Note_on_c, 3, 67, 0
1, 238080, Note_on_c, 1, 75, 0
1, 238080, Note_on_c, 1, 76, 62
1, 238080, Note_on_c, 4, 60, 59
1, 238176, Note_on_c, 4, 60, 0
1, 238200, Note_on_c, 3, 67, 59
1, 238296, Note_on_c, 3, 67, 0
1, 238320, Note_on_c, 3, 64, 60
1, 238416, Note_on_c, 3, 64, 0
1, 238440, Note_on_c, 3, 67, 60
1, 238536, Note_on_c, 3, 67, 0
1, 238560, Note_on_c, 1, 76, 0
1, 238560, Note_on_c, 4, 60, 61
1, 238656, Note_on_c, 4, 60, 0
1, 238680, Note_on_c, 1, 79, 62
1, 238680, Note_on_c, 3, 67, 61
1, 238776, Note_on_c, 3, 67, 0
1, 238800, Note_on_c, 1, 79, 0
1, 238800, Note_on_c, 1, 78, 65
1, 238800, Note_on_c, 3, 64, 62
1, 238896, Note_on_c, 3, 64, 0
1, 238920, Note_on_c, 1, 78, 0
1, 238920, Note_on_c, 1, 76, 67
1, 238920, Note_on_c, 3, 67, 63
1, 239000, Tempo, 1034482
1, 239016, Note_on_c, 3, 67, 0
1, 239040, Tempo, 1016949
1, 239040, Note_on_c, 1, 76, 0
1, 239040, Note_on_c, 1, 74, 69
1, 239040, Note_on_c, 4, 59, 63
1, 239136, Note_on_c, 4, 59, 0
1, 239160, Note_on_c, 1, 74, 0
1, 239160, Note_on_c, 1, 71, 63
1, 239160, Note_on_c, 3, 62, 60
1, 239256, Note_on_c, 3, 62, 0
1, 239280, Note_on_c, 1, 71, 0
1, 239280, Note_on_c, 1, 69, 60
1, 239280, Note_on_c, 3, 60, 59
1, 239376, Note_on_c, 3, 60, 0
1, 239400, Note_on_c, 1, 69, 0
1, 239400, Note_on_c, 1, 76, 58
1, 239400, Note_on_c, 3, 64, 57
1, 239480, Tempo, 1034482
1, 239496, Note_on_c, 3, 64, 0
1, 239520, Note_on_c, 1, 76, 0
1, 239520, Note_on_c, 1, 67, 55
1, 239520, Note_on_c, 4, 50, 56
1, 239616, Note_on_c, 4, 50, 0
1, 239640, Note_on_c, 3, 59, 55
1, 239736, Note_on_c, 3, 59, 0
1, 239760, Note_on_c, 3, 55, 53
1, 239842, Note_on_c, 1, 67, 0
1, 239856, Note_on_c, 3, 55, 0
1, 239880, Note_on_c, 1, 67, 52
1, 239880, Note_on_c, 3, 59, 52
1, 239960, Tempo, 1071428
1, 239976, Note_on_c, 1, 67, 0
1, 239976, Note_on_c, 3, 59, 0
1, 240000, Note_on_c, 1, 71, 50
1, 240000, Note_on_c, 2, 66, 50
1, 240000, Note_on_c, 4, 50, 50
1, 240096, Note_on_c, 4, 50, 0
1, 240120, Note_on_c, 1, 71, 0
1, 240120, Note_on_c, 1, 69, 49
1, 240120, Note_on_c, 3, 60, 49
1, 240216, Note_on_c, 3, 60, 0
1, 240240, Note_on_c, 1, 69, 0
1, 240240, Note_on_c, 1, 67, 48
1, 240240, Note_on_c, 3, 57, 48
1, 240336, Note_on_c, 3, 57, 0
1, 240350, Tempo, 1132075
1, 240360, Note_on_c, 1, 67, 0
1, 240360, Note_on_c, 1, 69, 46
1, 240360, Note_on_c, 3, 60, 46
1, 240442, Note_on_c, 2, 66, 0
1, 240456, Note_on_c, 1, 69, 0
1, 240456, Note_on_c, 3, 60, 0
1, 240480, Tempo, 1034482
1, 240480, Note_on_c, 1, 67, 46
1, 240480, Note_on_c, 3, 59, 46
1, 240480, Note_on_c, 4, 55, 46
1, 240600, Note_on_c, 1, 67, 0
1, 240600, Note_on_c, 1, 66, 47
1, 240720, Note_on_c, 1, 66, 0
1, 240720, Note_on_c, 1, 69, 48
1, 240840, Note_on_c, 1, 69, 0
1, 240840, Note_on_c, 1, 67, 49
1, 240960, Note_on_c, 1, 67, 0
1, 240960, Note_on_c, 1, 71, 50
1, 240960, Note_on_c, 3, 59, 0
1, 240960, Note_on_c, 4, 55, 0
1, 241080, Note_on_c, 1, 71, 0
1, 241080, Note_on_c, 1, 69, 50
1, 241200, Note_on_c, 1, 69, 0
1, 241200, Note_on_c, 1, 72, 51
1, 241320, Note_on_c, 1, 72, 0
1, 241320, Note_on_c, 1, 71, 52
1, 241440, Note_on_c, 1, 71, 0
1, 241440, Note_on_c, 1, 74, 53
1, 241560, Note_on_c, 1, 74, 0
1, 241560, Note_on_c, 1, 72, 54
1, 241680, Note_on_c, 1, 72, 0
1, 241680, Note_on_c, 1, 76, 55
1, 241800, Note_on_c, 1, 76, 0
1, 241800, Note_on_c, 1, 74, 56
1, 241880, Tempo, 1071428
1, 241920, Tempo, 1016949
1, 241920, Note_on_c, 1, 74, 0
1, 241920, Note_on_c, 1, 77, 56
1, 241920, Note_on_c, 4, 45, 56
1, 242016, Note_on_c, 4, 45, 0
1, 242040, Note_on_c, 3, 53, 57
1, 242136, Note_on_c, 3, 53, 0
1, 242160, Note_on_c, 3, 48, 58
1, 242256, Note_on_c, 3, 48, 0
1, 242280, Note_on_c, 3, 53, 59
1, 242376, Note_on_c, 3, 53, 0
1, 242400, Note_on_c, 4, 47, 60
1, 242496, Note_on_c, 4, 47, 0
1, 242520, Note_on_c, 3, 55, 61
1, 242616, Note_on_c, 3, 55, 0
1, 242640, Note_on_c, 1, 77, 0
1, 242640, Note_on_c, 1, 79, 62
1, 242640, Note_on_c, 3, 50, 62
1, 242736, Note_on_c, 3, 50, 0
1, 242760, Note_on_c, 1, 79, 0
1, 242760, Note_on_c, 1, 81, 62
1, 242760, Note_on_c, 3, 55, 62
1, 242856, Note_on_c, 3, 55, 0
1, 242880, Note_on_c, 1, 81, 0
1, 242880, Note_on_c, 1, 79, 63
1, 242880, Note_on_c, 4, 43, 63
1, 242976, Note_on_c, 4, 43, 0
1, 243000, Note_on_c, 1, 79, 0
1, 243000, Note_on_c, 1, 77, 64
1, 243000, Note_on_c, 3, 55, 64
1, 243096, Note_on_c, 3, 55, 0
1, 243120, Note_on_c, 1, 77, 0
1, 243120, Note_on_c, 1, 76, 65
1, 243120, Note_on_c, 3, 47, 65
1, 243216, Note_on_c, 3, 47, 0
1, 243240, Note_on_c, 1, 76, 0
1, 243240, Note_on_c, 1, 74, 66
1, 243240, Note_on_c, 3, 55, 66
1, 243320, Tempo, 1034482
1, 243336, Note_on_c, 1, 74, 0
1, 243336, Note_on_c, 3, 55, 0
1, 243360, Tempo, 1034482
1, 243360, Note_on_c, 1, 76, 70
1, 243360, Note_on_c, 4, 48, 67
1, 243456, Note_on_c, 4, 48, 0
1, 243480, Note_on_c, 3, 55, 68
1, 243576, Note_on_c, 3, 55, 0
1, 243600, Note_on_c, 3, 52, 69
1, 243696, Note_on_c, 3, 52, 0
1, 243720, Note_on_c, 3, 55, 69
1, 243816, Note_on_c, 3, 55, 0
1, 243817, Note_on_c, 1, 76, 0
1, 243840, Note_on_c, 1, 78, 74
1, 243840, Note_on_c, 4, 48, 70
1, 243936, Note_on_c, 4, 48, 0
1, 243960, Note_on_c, 3, 57, 71
1, 244056, Note_on_c, 3, 57, 0
1, 244080, Note_on_c, 3, 51, 72
1, 244176, Note_on_c, 3, 51, 0
1, 244200, Note_on_c, 3, 57, 73
1, 244290, Note_on_c, 1, 78, 0
1, 244296, Note_on_c, 3, 57, 0
1, 244320, Note_on_c, 1, 79, 77
1, 244320, Note_on_c, 4, 49, 74
1, 244416, Note_on_c, 4, 49, 0
1, 244440, Note_on_c, 3, 58, 75
1, 244536, Note_on_c, 3, 58, 0
1, 244560, Note_on_c, 3, 52, 75
1, 244656, Note_on_c, 3, 52, 0
1, 244660, Tempo, 1276595
1, 244680, Note_on_c, 3, 58, 76
1, 244770, Note_on_c, 1, 79, 0
1, 244776, Note_on_c, 3, 58, 0
1, 244800, Tempo, 1034482
1, 244800, Note_on_c, 1, 67, 81
1, 244800, Note_on_c, 4, 50, 77
1, 244896, Note_on_c, 4, 50, 0
1, 244920, Note_on_c, 3, 59, 75
1, 245016, Note_on_c, 3, 59, 0
1, 245040, Note_on_c, 3, 55, 74
1, 245136, Note_on_c, 3, 55, 0
1, 245160, Note_on_c, 3, 59, 72
1, 245256, Note_on_c, 3, 59, 0
1, 245280, Note_on_c, 4, 50, 71
1, 245376, Note_on_c, 4, 50, 0
1, 245400, Note_on_c, 3, 59, 70
1, 245496, Note_on_c, 3, 59, 0
1, 245520, Note_on_c, 1, 67, 0
1, 245520, Note_on_c, 2, 69, 69
1, 245520, Note_on_c, 3, 55, 69
1, 245580, Note_on_c, 2, 69, 0
1, 245580, Note_on_c, 2, 67, 68
1, 245616, Note_on_c, 3, 55, 0
1, 245640, Note_on_c, 2, 67, 0
1, 245640, Note_on_c, 2, 66, 67
1, 245640, Note_on_c, 3, 59, 67
1, 245700, Note_on_c, 2, 66, 0
1, 245700, Note_on_c, 2, 67, 67
1, 245720, Tempo, 1071428
1, 245736, Note_on_c, 3, 59, 0
1, 245760, Note_on_c, 1, 71, 66
1, 245760, Note_on_c, 2, 67, 0
1, 245760, Note_on_c, 2, 66, 66
1, 245760, Note_on_c, 4, 50, 66
1, 245856, Note_on_c, 4, 50, 0
1, 245880, Note_on_c, 3, 60, 65
1, 245976, Note_on_c, 3, 60, 0
1, 246000, Note_on_c, 1, 71, 0
1, 246000, Note_on_c, 1, 69, 63
1, 246000, Note_on_c, 3, 57, 63
1, 246096, Note_on_c, 3, 57, 0
1, 246120, Note_on_c, 3, 60, 62
1, 246200, Tempo, 1176470
1, 246216, Note_on_c, 3, 60, 0
1, 246217, Note_on_c, 1, 69, 0
1, 246217, Note_on_c, 2, 66, 0
1, 246240, Tempo, 1034482
1, 246240, Note_on_c, 1, 67, 61
1, 246240, Note_on_c, 3, 59, 61
1, 246240, Note_on_c, 4, 55, 61
1, 246360, Note_on_c, 1, 67, 0
1, 246360, Note_on_c, 1, 62, 60
1, 246480, Note_on_c, 1, 62, 0
1, 246480, Note_on_c, 1, 71, 58
1, 246560, Note_on_c, 1, 71, 0
1, 246600, Note_on_c, 1, 71, 57
1, 246660, Note_on_c, 3, 59, 0
1, 246667, Note_on_c, 4, 55, 0
1, 246680, Note_on_c, 1, 71, 0
1, 246720, Note_on_c, 1, 71, 56
1, 246840, Note_on_c, 1, 71, 0
1, 246840, Note_on_c, 1, 67, 55
1, 246960, Note_on_c, 1, 67, 0
1, 246960, Note_on_c, 1, 74, 53
1, 247040, Note_on_c, 1, 74, 0
1, 247080, Note_on_c, 1, 74, 52
1, 247160, Note_on_c, 1, 74, 0
1, 247200, Note_on_c, 1, 74, 51
1, 247320, Note_on_c, 1, 74, 0
1, 247320, Note_on_c, 1, 71, 50
1, 247440, Note_on_c, 1, 71, 0
1, 247440, Note_on_c, 1, 69, 48
1, 247440, Note_on_c, 3, 60, 48
1, 247440, Note_on_c, 4, 50, 48
1, 247560, Note_on_c, 1, 69, 0
1, 247560, Note_on_c, 1, 71, 47
1, 247600, Tempo, 1071428
1, 247656, Note_on_c, 1, 71, 0
1, 247680, Tempo, 1071428
1, 247680, Note_on_c, 1, 67, 46
1, 247680, Note_on_c, 3, 60, 0
1, 247680, Note_on_c, 3, 59, 46
1, 247680, Note_on_c, 4, 50, 0
1, 247680, Note_on_c, 4, 55, 46
1, 247800, Note_on_c, 1, 67, 0
1, 247800, Note_on_c, 1, 62, 44
1, 247920, Note_on_c, 1, 62, 0
1, 247920, Note_on_c, 1, 71, 43
1, 248000, Note_on_c, 1, 71, 0
1, 248040, Note_on_c, 1, 71, 42
1, 248100, Note_on_c, 4, 55, 0
1, 248107, Note_on_c, 3, 59, 0
1, 248120, Note_on_c, 1, 71, 0
1, 248160, Note_on_c, 1, 71, 41
1, 248280, Note_on_c, 1, 71, 0
1, 248280, Note_on_c, 1, 67, 39
1, 248400, Note_on_c, 1, 67, 0
1, 248400, Note_on_c, 1, 74, 38
1, 248480, Note_on_c, 1, 74, 0
1, 248520, Note_on_c, 1, 74, 37
1, 248600, Note_on_c, 1, 74, 0
1, 248640, Note_on_c, 1, 74, 36
1, 248760, Note_on_c, 1, 74, 0
1, 248760, Note_on_c, 1, 71, 34
1, 248880, Note_on_c, 1, 71, 0
1, 248880, Note_on_c, 1, 69, 33
1, 248880, Note_on_c, 3, 60, 33
1, 248880, Note_on_c, 4, 50, 33
1, 249000, Note_on_c, 1, 69, 0
1, 249000, Note_on_c, 1, 71, 32
1, 249060, Tempo, 1250000
1, 249096, Note_on_c, 1, 71, 0
1, 249120, Note_on_c, 1, 67, 33
1, 249120, Note_on_c, 3, 60, 0
1, 249120, Note_on_c, 3, 59, 33
1, 249120, Note_on_c, 4, 50, 0
1, 249120, Note_on_c, 4, 55, 33
1, 249360, Note_on_c, 1, 67, 0
1, 249360, Note_on_c, 3, 59, 0
1, 249360, Note_on_c, 4, 55, 0
1, 249480, Tempo, 1333333
1, 249600, Note_on_c, 1, 67, 25
1, 249600, Note_on_c, 3, 59, 25
1, 249600, Note_on_c, 4, 43, 25
1, 249840, Note_on_c, 1, 67, 0
1, 249840, Note_on_c, 3, 59, 0
1, 249840, Note_on_c, 4, 43, 0
1, 250560, Tempo, 500000
1, 252480, Tempo, 495867
1, 252480, Note_on_c, 1, 79, 77
1, 252480, Note_on_c, 2, 76, 77
1, 252635, Note_on_c, 1, 79, 0
1, 252635, Note_on_c, 2, 76, 0
1, 252720, Note_on_c, 1, 79, 77
1, 252720, Note_on_c, 2, 76, 77
1, 252875, Note_on_c, 1, 79, 0
1, 252875, Note_on_c, 2, 76, 0
1, 252960, Note_on_c, 1, 76, 76
1, 252960, Note_on_c, 2, 72, 76
1, 252960, Note_on_c, 4, 60, 76
1, 252960, Note_on_c, 5, 57, 76
1, 253104, Note_on_c, 4, 60, 0
1, 253104, Note_on_c, 5, 57, 0
1, 253115, Note_on_c, 1, 76, 0
1, 253115, Note_on_c, 2, 72, 0
1, 253200, Note_on_c, 4, 60, 76
1, 253200, Note_on_c, 5, 57, 76
1, 253344, Note_on_c, 4, 60, 0
1, 253344, Note_on_c, 5, 57, 0
1, 253440, Note_on_c, 1, 77, 76
1, 253440, Note_on_c, 2, 74, 76
1, 253440, Note_on_c, 4, 57, 76
1, 253440, Note_on_c, 5, 53, 76
1, 253584, Note_on_c, 4, 57, 0
1, 253584, Note_on_c, 5, 53, 0
1, 253595, Note_on_c, 1, 77, 0
1, 253595, Note_on_c, 2, 74, 0
1, 253680, Note_on_c, 1, 77, 75
1, 253680, Note_on_c, 2, 74, 75
1, 253835, Note_on_c, 1, 77, 0
1, 253835, Note_on_c, 2, 74, 0
1, 253920, Note_on_c, 1, 74, 75
1, 253920, Note_on_c, 2, 71, 75
1, 253920, Note_on_c, 4, 59, 75
1, 253920, Note_on_c, 5, 55, 75
1, 254064, Note_on_c, 4, 59, 0
1, 254064, Note_on_c, 5, 55, 0
1, 254075, Note_on_c, 1, 74, 0
1, 254075, Note_on_c, 2, 71, 0
1, 254160, Note_on_c, 4, 59, 74
1, 254160, Note_on_c, 5, 55, 74
1, 254304, Note_on_c, 4, 59, 0
1, 254304, Note_on_c, 5, 55, 0
1, 254400, Note_on_c, 1, 72, 74
1, 254400, Note_on_c, 4, 55, 74
1, 254400, Note_on_c, 5, 52, 74
1, 254520, Note_on_c, 1, 72, 0
1, 254520, Note_on_c, 1, 74, 75
1, 254544, Note_on_c, 4, 55, 0
1, 254544, Note_on_c, 5, 52, 0
1, 254640, Note_on_c, 1, 74, 0
1, 254640, Note_on_c, 1, 76, 75
1, 254760, Note_on_c, 1, 76, 0
1, 254760, Note_on_c, 1, 72, 76
1, 254880, Note_on_c, 1, 72, 0
1, 254880, Note_on_c, 1, 69, 79
1, 254880, Note_on_c, 5, 53, 77
1, 255000, Note_on_c, 1, 69, 0
1, 255000, Note_on_c, 1, 71, 77
1, 255120, Note_on_c, 1, 71, 0
1, 255120, Note_on_c, 1, 72, 75
1, 255240, Note_on_c, 1, 72, 0
1, 255240, Note_on_c, 1, 73, 73
1, 255360, Note_on_c, 1, 73, 0
1, 255360, Note_on_c, 1, 74, 72
1, 255480, Note_on_c, 1, 74, 0
1, 255480, Note_on_c, 1, 76, 72
1, 255600, Note_on_c, 1, 76, 0
1, 255600, Note_on_c, 1, 77, 73
1, 255600, Note_on_c, 5, 53, 0
1, 255600, Note_on_c, 5, 50, 70
1, 255720, Note_on_c, 1, 77, 0
1, 255720, Note_on_c, 1, 74, 74
1, 255840, Note_on_c, 1, 74, 0
1, 255840, Note_on_c, 1, 72, 76
1, 255840, Note_on_c, 5, 50, 0
1, 255840, Note_on_c, 5, 55, 68
1, 255960, Note_on_c, 1, 72, 0
1, 255960, Note_on_c, 1, 71, 73
1, 256080, Note_on_c, 1, 71, 0
1, 256080, Note_on_c, 1, 69, 70
1, 256080, Note_on_c, 5, 55, 0
1, 256200, Note_on_c, 1, 69, 0
1, 256200, Note_on_c, 1, 67, 66
1, 256280, Tempo, 500000
1, 256320, Tempo, 495867
1, 256320, Note_on_c, 1, 67, 0
1, 256320, Note_on_c, 1, 79, 70
1, 256320, Note_on_c, 2, 76, 70
1, 256475, Note_on_c, 1, 79, 0
1, 256475, Note_on_c, 2, 76, 0
1, 256560, Note_on_c, 1, 79, 70
1, 256560, Note_on_c, 2, 76, 70
1, 256715, Note_on_c, 1, 79, 0
1, 256715, Note_on_c, 2, 76, 0
1, 256800, Note_on_c, 1, 76, 69
1, 256800, Note_on_c, 2, 72, 69
1, 256800, Note_on_c, 4, 60, 69
1, 256800, Note_on_c, 5, 57, 69
1, 256944, Note_on_c, 4, 60, 0
1, 256944, Note_on_c, 5, 57, 0
1, 256955, Note_on_c, 1, 76, 0
1, 256955, Note_on_c, 2, 72, 0
1, 257040, Note_on_c, 4, 60, 69
1, 257040, Note_on_c, 5, 57, 69
1, 257184, Note_on_c, 4, 60, 0
1, 257184, Note_on_c, 5, 57, 0
1, 257280, Note_on_c, 1, 81, 68
1, 257280, Note_on_c, 2, 77, 68
1, 257280, Note_on_c, 4, 53, 68
1, 257280, Note_on_c, 5, 50, 68
1, 257424, Note_on_c, 4, 53, 0
1, 257424, Note_on_c, 5, 50, 0
1, 257435, Note_on_c, 1, 81, 0
1, 257435, Note_on_c, 2, 77, 0
1, 257520, Note_on_c, 1, 81, 68
1, 257520, Note_on_c, 2, 77, 68
1, 257675, Note_on_c, 1, 81, 0
1, 257675, Note_on_c, 2, 77, 0
1, 257760, Note_on_c, 1, 74, 67
1, 257760, Note_on_c, 2, 71, 67
1, 257760, Note_on_c, 4, 59, 67
1, 257760, Note_on_c, 5, 55, 67
1, 257904, Note_on_c, 4, 59, 0
1, 257904, Note_on_c, 5, 55, 0
1, 257915, Note_on_c, 1, 74, 0
1, 257915, Note_on_c, 2, 71, 0
1, 258000, Note_on_c, 4, 59, 67
1, 258000, Note_on_c, 5, 55, 67
1, 258144, Note_on_c, 4, 59, 0
1, 258144, Note_on_c, 5, 55, 0
1, 258240, Note_on_c, 1, 81, 64
1, 258240, Note_on_c, 4, 52, 66
1, 258240, Note_on_c, 5, 48, 66
1, 258360, Note_on_c, 1, 81, 0
1, 258360, Note_on_c, 1, 79, 65
1, 258384, Note_on_c, 4, 52, 0
1, 258384, Note_on_c, 5, 48, 0
1, 258480, Note_on_c, 1, 79, 0
1, 258480, Note_on_c, 1, 77, 67
1, 258600, Note_on_c, 1, 77, 0
1, 258600, Note_on_c, 1, 76, 68
1, 258720, Note_on_c, 1, 76, 0
1, 258720, Note_on_c, 1, 73, 71
1, 258720, Note_on_c, 4, 57, 67
1, 258720, Note_on_c, 5, 53, 67
1, 258840, Note_on_c, 1, 73, 0
1, 258840, Note_on_c, 1, 74, 70
1, 258960, Note_on_c, 1, 74, 0
1, 258960, Note_on_c, 1, 76, 69
1, 259080, Note_on_c, 1, 76, 0
1, 259080, Note_on_c, 1, 77, 68
1, 259200, Note_on_c, 1, 77, 0
1, 259200, Note_on_c, 1, 69, 68
1, 259320, Note_on_c, 1, 69, 0
1, 259320, Note_on_c, 1, 72, 67
1, 259440, Note_on_c, 1, 72, 0
1, 259440, Note_on_c, 1, 71, 66
1, 259440, Note_on_c, 4, 57, 0
1, 259440, Note_on_c, 4, 65, 63
1, 259440, Note_on_c, 5, 53, 0
1, 259440, Note_on_c, 5, 55, 63
1, 259560, Note_on_c, 1, 71, 0
1, 259560, Note_on_c, 1, 74, 65
1, 259680, Tempo, 500000
1, 259680, Note_on_c, 1, 74, 0
1, 259680, Note_on_c, 1, 72, 64
1, 259680, Note_on_c, 4, 65, 0
1, 259680, Note_on_c, 4, 64, 62
1, 259680, Note_on_c, 5, 55, 0
1, 259680, Note_on_c, 5, 60, 62
1, 259835, Note_on_c, 1, 72, 0
1, 259836, Note_on_c, 4, 64, 0
1, 259836, Note_on_c, 5, 60, 0
1, 259920, Note_on_c, 5, 48, 61
1, 260076, Note_on_c, 5, 48, 0
1, 260100, Tempo, 508474
1, 260160, Tempo, 495867
1, 260160, Note_on_c, 1, 79, 77
1, 260160, Note_on_c, 2, 76, 77
1, 260315, Note_on_c, 1, 79, 0
1, 260315, Note_on_c, 2, 76, 0
1, 260400, Note_on_c, 1, 79, 77
1, 260400, Note_on_c, 2, 76, 77
1, 260555, Note_on_c, 1, 79, 0
1, 260555, Note_on_c, 2, 76, 0
1, 260640, Note_on_c, 1, 76, 76
1, 260640, Note_on_c, 2, 72, 76
1, 260640, Note_on_c, 4, 60, 76
1, 260640, Note_on_c, 5, 57, 76
1, 260784, Note_on_c, 4, 60, 0
1, 260784, Note_on_c, 5, 57, 0
1, 260795, Note_on_c, 1, 76, 0
1, 260795, Note_on_c, 2, 72, 0
1, 260880, Note_on_c, 4, 60, 76
1, 260880, Note_on_c, 5, 57, 76
1, 261024, Note_on_c, 4, 60, 0
1, 261024, Note_on_c, 5, 57, 0
1, 261120, Note_on_c, 1, 77, 76
1, 261120, Note_on_c, 2, 74, 76
1, 261120, Note_on_c, 4, 57, 76
1, 261120, Note_on_c, 5, 53, 76
1, 261264, Note_on_c, 4, 57, 0
1, 261264, Note_on_c, 5, 53, 0
1, 261275, Note_on_c, 1, 77, 0
1, 261275, Note_on_c, 2, 74, 0
1, 261360, Note_on_c, 1, 77, 75
1, 261360, Note_on_c, 2, 74, 75
1, 261515, Note_on_c, 1, 77, 0
1, 261515, Note_on_c, 2, 74, 0
1, 261600, Note_on_c, 1, 74, 75
1, 261600, Note_on_c, 2, 71, 75
1, 261600, Note_on_c, 4, 59, 75
1, 261600, Note_on_c, 5, 55, 75
1, 261744, Note_on_c, 4, 59, 0
1, 261744, Note_on_c, 5, 55, 0
1, 261755, Note_on_c, 1, 74, 0
1, 261755, Note_on_c, 2, 71, 0
1, 261840, Note_on_c, 4, 59, 74
1, 261840, Note_on_c, 5, 55, 74
1, 261984, Note_on_c, 4, 59, 0
1, 261984, Note_on_c, 5, 55, 0
1, 262080, Note_on_c, 1, 72, 74
1, 262080, Note_on_c, 4, 55, 74
1, 262080, Note_on_c, 5, 52, 74
1, 262200, Note_on_c, 1, 72, 0
1, 262200, Note_on_c, 1, 74, 75
1, 262224, Note_on_c, 4, 55, 0
1, 262224, Note_on_c, 5, 52, 0
1, 262320, Note_on_c, 1, 74, 0
1, 262320, Note_on_c, 1, 76, 75
1, 262440, Note_on_c, 1, 76, 0
1, 262440, Note_on_c, 1, 72, 76
1, 262560, Note_on_c, 1, 72, 0
1, 262560, Note_on_c, 1, 69, 79
1, 262560, Note_on_c, 5, 53, 77
1, 262680, Note_on_c, 1, 69, 0
1, 262680, Note_on_c, 1, 71, 77
1, 262800, Note_on_c, 1, 71, 0
1, 262800, Note_on_c, 1, 72, 75
1, 262920, Note_on_c, 1, 72, 0
1, 262920, Note_on_c, 1, 73, 73
1, 263040, Note_on_c, 1, 73, 0
1, 263040, Note_on_c, 1, 74, 72
1, 263160, Note_on_c, 1, 74, 0
1, 263160, Note_on_c, 1, 76, 72
1, 263280, Note_on_c, 1, 76, 0
1, 263280, Note_on_c, 1, 77, 73
1, 263280, Note_on_c, 5, 53, 0
1, 263280, Note_on_c, 5, 50, 70
1, 263400, Note_on_c, 1, 77, 0
1, 263400, Note_on_c, 1, 74, 74
1, 263520, Note_on_c, 1, 74, 0
1, 263520, Note_on_c, 1, 72, 76
1, 263520, Note_on_c, 5, 50, 0
1, 263520, Note_on_c, 5, 55, 68
1, 263640, Note_on_c, 1, 72, 0
1, 263640, Note_on_c, 1, 71, 73
1, 263760, Note_on_c, 1, 71, 0
1, 263760, Note_on_c, 1, 69, 70
1, 263760, Note_on_c, 5, 55, 0
1, 263880, Note_on_c, 1, 69, 0
1, 263880, Note_on_c, 1, 67, 66
1, 263960, Tempo, 500000
1, 264000, Tempo, 495867
1, 264000, Note_on_c, 1, 67, 0
1, 264000, Note_on_c, 1, 79, 70
1, 264000, Note_on_c, 2, 76, 70
1, 264155, Note_on_c, 1, 79, 0
1, 264155, Note_on_c, 2, 76, 0
1, 264240, Note_on_c, 1, 79, 70
1, 264240, Note_on_c, 2, 76, 70
1, 264395, Note_on_c, 1, 79, 0
1, 264395, Note_on_c, 2, 76, 0
1, 264480, Note_on_c, 1, 76, 69
1, 264480, Note_on_c, 2, 72, 69
1, 264480, Note_on_c, 4, 60, 69
1, 264480, Note_on_c, 5, 57, 69
1, 264624, Note_on_c, 4, 60, 0
1, 264624, Note_on_c, 5, 57, 0
1, 264635, Note_on_c, 1, 76, 0
1, 264635, Note_on_c, 2, 72, 0
1, 264720, Note_on_c, 4, 60, 69
1, 264720, Note_on_c, 5, 57, 69
1, 264864, Note_on_c, 4, 60, 0
1, 264864, Note_on_c, 5, 57, 0
1, 264960, Note_on_c, 1, 81, 68
1, 264960, Note_on_c, 2, 77, 68
1, 264960, Note_on_c, 4, 53, 68
1, 264960, Note_on_c, 5, 50, 68
1, 265104, Note_on_c, 4, 53, 0
1, 265104, Note_on_c, 5, 50, 0
1, 265115, Note_on_c, 1, 81, 0
1, 265115, Note_on_c, 2, 77, 0
1, 265200, Note_on_c, 1, 81, 68
1, 265200, Note_on_c, 2, 77, 68
1, 265355, Note_on_c, 1, 81, 0
1, 265355, Note_on_c, 2, 77, 0
1, 265440, Note_on_c, 1, 74, 67
1, 265440, Note_on_c, 2, 71, 67
1, 265440, Note_on_c, 4, 59, 67
1, 265440, Note_on_c, 5, 55, 67
1, 265584, Note_on_c, 4, 59, 0
1, 265584, Note_on_c, 5, 55, 0
1, 265595, Note_on_c, 1, 74, 0
1, 265595, Note_on_c, 2, 71, 0
1, 265680, Note_on_c, 4, 59, 67
1, 265680, Note_on_c, 5, 55, 67
1, 265824, Note_on_c, 4, 59, 0
1, 265824, Note_on_c, 5, 55, 0
1, 265920, Note_on_c, 1, 81, 64
1, 265920, Note_on_c, 4, 52, 66
1, 265920, Note_on_c, 5, 48, 66
1, 266040, Note_on_c, 1, 81, 0
1, 266040, Note_on_c, 1, 79, 65
1, 266064, Note_on_c, 4, 52, 0
1, 266064, Note_on_c, 5, 48, 0
1, 266160, Note_on_c, 1, 79, 0
1, 266160, Note_on_c, 1, 77, 67
1, 266280, Note_on_c, 1, 77, 0
1, 266280, Note_on_c, 1, 76, 68
1, 266400, Note_on_c, 1, 76, 0
1, 266400, Note_on_c, 1, 73, 71
1, 266400, Note_on_c, 4, 57, 67
1, 266400, Note_on_c, 5, 53, 67
1, 266520, Note_on_c, 1, 73, 0
1, 266520, Note_on_c, 1, 74, 70
1, 266640, Note_on_c, 1, 74, 0
1, 266640, Note_on_c, 1, 76, 69
1, 266760, Note_on_c, 1, 76, 0
1, 266760, Note_on_c, 1, 77, 68
1, 266880, Note_on_c, 1, 77, 0
1, 266880, Note_on_c, 1, 69, 68
1, 267000, Note_on_c, 1, 69, 0
1, 267000, Note_on_c, 1, 72, 67
1, 267120, Note_on_c, 1, 72, 0
1, 267120, Note_on_c, 1, 71, 66
1, 267120, Note_on_c, 4, 57, 0
1, 267120, Note_on_c, 4, 65, 63
1, 267120, Note_on_c, 5, 53, 0
1, 267120, Note_on_c, 5, 55, 63
1, 267240, Note_on_c, 1, 71, 0
1, 267240, Note_on_c, 1, 74, 65
1, 267360, Tempo, 500000
1, 267360, Note_on_c, 1, 74, 0
1, 267360, Note_on_c, 1, 72, 64
1, 267360, Note_on_c, 4, 65, 0
1, 267360, Note_on_c, 4, 64, 62
1, 267360, Note_on_c, 5, 55, 0
1, 267360, Note_on_c, 5, 60, 62
1, 267515, Note_on_c, 1, 72, 0
1, 267516, Note_on_c, 4, 64, 0
1, 267516, Note_on_c, 5, 60, 0
1, 267600, Note_on_c, 5, 48, 61
1, 267756, Note_on_c, 5, 48, 0
1, 267780, Tempo, 508474
1, 267840, Tempo, 495867
1, 267840, Note_on_c, 1, 76, 62
1, 267840, Note_on_c, 5, 60, 63
1, 267960, Note_on_c, 1, 76, 0
1, 267960, Note_on_c, 1, 78, 64
1, 267960, Note_on_c, 3, 67, 62
1, 268080, Note_on_c, 1, 78, 0
1, 268080, Note_on_c, 1, 79, 65
1, 268080, Note_on_c, 3, 67, 0
1, 268080, Note_on_c, 3, 64, 62
1, 268160, Note_on_c, 1, 79, 0
1, 268200, Note_on_c, 1, 79, 67
1, 268200, Note_on_c, 3, 64, 0
1, 268200, Note_on_c, 3, 67, 62
1, 268200, Note_on_c, 5, 60, 0
1, 268280, Note_on_c, 1, 79, 0
1, 268320, Note_on_c, 1, 81, 69
1, 268320, Note_on_c, 3, 67, 0
1, 268320, Note_on_c, 5, 59, 62
1, 268440, Note_on_c, 1, 81, 0
1, 268440, Note_on_c, 1, 79, 67
1, 268440, Note_on_c, 3, 67, 61
1, 268560, Note_on_c, 1, 79, 0
1, 268560, Note_on_c, 1, 78, 65
1, 268560, Note_on_c, 3, 67, 0
1, 268560, Note_on_c, 3, 62, 61
1, 268680, Note_on_c, 1, 78, 0
1, 268680, Note_on_c, 1, 76, 63
1, 268680, Note_on_c, 3, 62, 0
1, 268680, Note_on_c, 3, 67, 61
1, 268680, Note_on_c, 5, 59, 0
1, 268800, Note_on_c, 1, 76, 0
1, 268800, Note_on_c, 1, 74, 60
1, 268800, Note_on_c, 3, 67, 0
1, 268800, Note_on_c, 5, 54, 61
1, 268880, Note_on_c, 1, 74, 0
1, 268920, Note_on_c, 1, 74, 61
1, 268920, Note_on_c, 3, 62, 61
1, 269000, Note_on_c, 1, 74, 0
1, 269040, Note_on_c, 1, 74, 63
1, 269040, Note_on_c, 3, 62, 0
1, 269040, Note_on_c, 3, 57, 60
1, 269120, Note_on_c, 1, 74, 0
1, 269160, Note_on_c, 1, 74, 65
1, 269160, Note_on_c, 3, 57, 0
1, 269160, Note_on_c, 3, 62, 60
1, 269160, Note_on_c, 5, 54, 0
1, 269240, Note_on_c, 1, 74, 0
1, 269280, Note_on_c, 1, 76, 67
1, 269280, Note_on_c, 3, 62, 0
1, 269280, Note_on_c, 5, 55, 60
1, 269400, Note_on_c, 1, 76, 0
1, 269400, Note_on_c, 1, 74, 64
1, 269400, Note_on_c, 3, 62, 60
1, 269520, Note_on_c, 1, 74, 0
1, 269520, Note_on_c, 1, 72, 62
1, 269520, Note_on_c, 3, 62, 0
1, 269520, Note_on_c, 3, 59, 59
1, 269640, Note_on_c, 1, 72, 0
1, 269640, Note_on_c, 1, 71, 59
1, 269640, Note_on_c, 3, 59, 0
1, 269640, Note_on_c, 3, 62, 59
1, 269640, Note_on_c, 5, 55, 0
1, 269760, Note_on_c, 1, 71, 0
1, 269760, Note_on_c, 1, 88, 56
1, 269760, Note_on_c, 3, 62, 0
1, 269760, Note_on_c, 5, 47, 59
1, 269880, Note_on_c, 1, 88, 0
1, 269880, Note_on_c, 1, 86, 58
1, 269880, Note_on_c, 3, 55, 59
1, 269975, Note_on_c, 3, 55, 0
1, 270000, Note_on_c, 1, 86, 0
1, 270000, Note_on_c, 1, 84, 59
1, 270000, Note_on_c, 3, 50, 58
1, 270095, Note_on_c, 3, 50, 0
1, 270120, Note_on_c, 1, 84, 0
1, 270120, Note_on_c, 1, 83, 61
1, 270120, Note_on_c, 3, 55, 58
1, 270120, Note_on_c, 5, 47, 0
1, 270215, Note_on_c, 3, 55, 0
1, 270240, Note_on_c, 1, 83, 0
1, 270240, Note_on_c, 1, 80, 65
1, 270240, Note_on_c, 5, 48, 58
1, 270360, Note_on_c, 1, 80, 0
1, 270360, Note_on_c, 1, 81, 63
1, 270360, Note_on_c, 3, 57, 58
1, 270455, Note_on_c, 3, 57, 0
1, 270480, Note_on_c, 1, 81, 0
1, 270480, Note_on_c, 1, 83, 61
1, 270480, Note_on_c, 3, 52, 58
1, 270575, Note_on_c, 3, 52, 0
1, 270600, Note_on_c, 1, 83, 0
1, 270600, Note_on_c, 1, 84, 58
1, 270600, Note_on_c, 3, 57, 57
1, 270600, Note_on_c, 5, 48, 0
1, 270695, Note_on_c, 3, 57, 0
1, 270720, Note_on_c, 1, 84, 0
1, 270720, Note_on_c, 1, 76, 56
1, 270720, Note_on_c, 5, 49, 57
1, 270840, Note_on_c, 1, 76, 0
1, 270840, Note_on_c, 1, 78, 57
1, 270840, Note_on_c, 3, 57, 57
1, 270935, Note_on_c, 3, 57, 0
1, 270960, Note_on_c, 1, 78, 0
1, 270960, Note_on_c, 1, 79, 58
1, 270960, Note_on_c, 3, 52, 57
1, 271055, Note_on_c, 3, 52, 0
1, 271080, Note_on_c, 1, 79, 0
1, 271080, Note_on_c, 1, 81, 60
1, 271080, Note_on_c, 3, 57, 56
1, 271080, Note_on_c, 5, 49, 0
1, 271175, Note_on_c, 3, 57, 0
1, 271200, Note_on_c, 1, 81, 0
1, 271200, Note_on_c, 1, 79, 63
1, 271200, Note_on_c, 5, 50, 56
1, 271320, Note_on_c, 1, 79, 0
1, 271320, Note_on_c, 1, 78, 60
1, 271390, Note_on_c, 5, 50, 0
1, 271440, Note_on_c, 1, 78, 0
1, 271440, Note_on_c, 1, 76, 58
1, 271560, Note_on_c, 1, 76, 0
1, 271560, Note_on_c, 1, 74, 56
1, 271640, Tempo, 500000
1, 271680, Tempo, 495867
1, 271680, Note_on_c, 1, 74, 0
1, 271680, Note_on_c, 1, 86, 55
1, 271680, Note_on_c, 2, 83, 55
1, 271835, Note_on_c, 1, 86, 0
1, 271835, Note_on_c, 2, 83, 0
1, 271920, Note_on_c, 1, 86, 55
1, 271920, Note_on_c, 2, 83, 55
1, 272075, Note_on_c, 1, 86, 0
1, 272075, Note_on_c, 2, 83, 0
1, 272160, Note_on_c, 1, 83, 54
1, 272160, Note_on_c, 2, 79, 54
1, 272160, Note_on_c, 4, 67, 54
1, 272160, Note_on_c, 5, 64, 54
1, 272315, Note_on_c, 1, 83, 0
1, 272315, Note_on_c, 2, 79, 0
1, 272315, Note_on_c, 4, 67, 0
1, 272315, Note_on_c, 5, 64, 0
1, 272400, Note_on_c, 4, 67, 54
1, 272400, Note_on_c, 5, 64, 54
1, 272555, Note_on_c, 4, 67, 0
1, 272555, Note_on_c, 5, 64, 0
1, 272640, Note_on_c, 1, 84, 53
1, 272640, Note_on_c, 2, 81, 53
1, 272640, Note_on_c, 4, 64, 53
1, 272640, Note_on_c, 5, 60, 53
1, 272795, Note_on_c, 1, 84, 0
1, 272795, Note_on_c, 2, 81, 0
1, 272795, Note_on_c, 4, 64, 0
1, 272795, Note_on_c, 5, 60, 0
1, 272880, Note_on_c, 1, 84, 53
1, 272880, Note_on_c, 2, 81, 53
1, 273035, Note_on_c, 1, 84, 0
1, 273035, Note_on_c, 2, 81, 0
1, 273120, Note_on_c, 1, 81, 52
1, 273120, Note_on_c, 2, 78, 52
1, 273120, Note_on_c, 4, 66, 52
1, 273120, Note_on_c, 5, 62, 52
1, 273275, Note_on_c, 1, 81, 0
1, 273275, Note_on_c, 2, 78, 0
1, 273275, Note_on_c, 4, 66, 0
1, 273275, Note_on_c, 5, 62, 0
1, 273360, Note_on_c, 4, 66, 52
1, 273360, Note_on_c, 5, 62, 52
1, 273515, Note_on_c, 4, 66, 0
1, 273515, Note_on_c, 5, 62, 0
1, 273600, Note_on_c, 1, 79, 62
1, 273600, Note_on_c, 4, 62, 63
1, 273600, Note_on_c, 5, 59, 63
1, 273720, Note_on_c, 1, 79, 0
1, 273720, Note_on_c, 1, 81, 64
1, 273755, Note_on_c, 4, 62, 0
1, 273755, Note_on_c, 5, 59, 0
1, 273840, Note_on_c, 1, 81, 0
1, 273840, Note_on_c, 1, 83, 66
1, 273960, Note_on_c, 1, 83, 0
1, 273960, Note_on_c, 1, 79, 67
1, 274080, Note_on_c, 1, 79, 0
1, 274080, Note_on_c, 1, 75, 69
1, 274080, Note_on_c, 4, 55, 66
1, 274080, Note_on_c, 5, 48, 66
1, 274200, Note_on_c, 1, 75, 0
1, 274200, Note_on_c, 1, 76, 68
1, 274320, Note_on_c, 1, 76, 0
1, 274320, Note_on_c, 1, 79, 66
1, 274440, Note_on_c, 1, 79, 0
1, 274440, Note_on_c, 1, 76, 65
1, 274560, Note_on_c, 1, 76, 0
1, 274560, Note_on_c, 1, 74, 64
1, 274560, Note_on_c, 5, 48, 0
1, 274560, Note_on_c, 5, 50, 60
1, 274680, Note_on_c, 1, 74, 0
1, 274680, Note_on_c, 1, 71, 62
1, 274800, Note_on_c, 1, 71, 0
1, 274800, Note_on_c, 1, 72, 61
1, 274800, Note_on_c, 4, 55, 0
1, 274800, Note_on_c, 4, 54, 59
1, 274920, Note_on_c, 1, 72, 0
1, 274920, Note_on_c, 1, 69, 59
1, 275040, Tempo, 508474
1, 275040, Note_on_c, 1, 69, 0
1, 275040, Note_on_c, 1, 67, 58
1, 275040, Note_on_c, 4, 54, 0
1, 275040, Note_on_c, 5, 50, 0
1, 275040, Note_on_c, 5, 55, 59
1, 275196, Note_on_c, 5, 55, 0
1, 275280, Note_on_c, 1, 67, 0
1, 275280, Note_on_c, 5, 43, 51
1, 275460, Tempo, 517241
1, 275472, Note_on_c, 5, 43, 0
1, 275520, Tempo, 495867
1, 275520, Note_on_c, 1, 67, 50
1, 275640, Note_on_c, 1, 67, 0
1, 275640, Note_on_c, 1, 69, 53
1, 275760, Note_on_c, 1, 69, 0
1, 275760, Note_on_c, 1, 71, 55
1, 275880, Note_on_c, 1, 71, 0
1, 275880, Note_on_c, 1, 72, 58
1, 276000, Note_on_c, 1, 72, 0
1, 276000, Note_on_c, 1, 74, 63
1, 276000, Note_on_c, 4, 59, 57
1, 276000, Note_on_c, 5, 55, 57
1, 276156, Note_on_c, 4, 59, 0
1, 276156, Note_on_c, 5, 55, 0
1, 276192, Note_on_c, 1, 74, 0
1, 276240, Note_on_c, 5, 43, 52
1, 276432, Note_on_c, 5, 43, 0
1, 276480, Note_on_c, 1, 71, 61
1, 276600, Note_on_c, 1, 71, 0
1, 276600, Note_on_c, 1, 72, 64
1, 276720, Note_on_c, 1, 72, 0
1, 276720, Note_on_c, 1, 74, 67
1, 276840, Note_on_c, 1, 74, 0
1, 276840, Note_on_c, 1, 76, 69
1, 276960, Note_on_c, 1, 76, 0
1, 276960, Note_on_c, 1, 77, 72
1, 276960, Note_on_c, 4, 59, 70
1, 276960, Note_on_c, 5, 55, 70
1, 277116, Note_on_c, 4, 59, 0
1, 277116, Note_on_c, 5, 55, 0
1, 277152, Note_on_c, 1, 77, 0
1, 277200, Note_on_c, 5, 43, 65
1, 277392, Note_on_c, 5, 43, 0
1, 277440, Note_on_c, 1, 74, 75
1, 277560, Note_on_c, 1, 74, 0
1, 277560, Note_on_c, 1, 76, 77
1, 277680, Note_on_c, 1, 76, 0
1, 277680, Note_on_c, 1, 77, 80
1, 277800, Note_on_c, 1, 77, 0
1, 277800, Note_on_c, 1, 79, 84
1, 277920, Tempo, 508474
1, 277920, Note_on_c, 1, 79, 0
1, 277920, Note_on_c, 1, 81, 91
1, 278075, Note_on_c, 1, 81, 0
1, 278160, Note_on_c, 1, 80, 82
1, 278315, Note_on_c, 1, 80, 0
1, 278400, Note_on_c, 1, 79, 74
1, 278555, Note_on_c, 1, 79, 0
1, 278600, Tempo, 517241
1, 278640, Tempo, 517241
1, 278640, Note_on_c, 1, 78, 64
1, 278795, Note_on_c, 1, 78, 0
1, 278835, Tempo, 540540
1, 278880, Note_on_c, 1, 77, 54
1, 279035, Note_on_c, 1, 77, 0
1, 279120, Tempo, 952380
1, 279360, Tempo, 495867
1, 279360, Note_on_c, 1, 79, 81
1, 279360, Note_on_c, 2, 76, 81
1, 279515, Note_on_c, 1, 79, 0
1, 279515, Note_on_c, 2, 76, 0
1, 279600, Note_on_c, 1, 79, 81
1, 279600, Note_on_c, 2, 76, 81
1, 279755, Note_on_c, 1, 79, 0
1, 279755, Note_on_c, 2, 76, 0
1, 279840, Note_on_c, 1, 76, 80
1, 279840, Note_on_c, 2, 72, 80
1, 279840, Note_on_c, 4, 60, 80
1, 279840, Note_on_c, 5, 57, 80
1, 279995, Note_on_c, 1, 76, 0
1, 279995, Note_on_c, 2, 72, 0
1, 279995, Note_on_c, 4, 60, 0
1, 279995, Note_on_c, 5, 57, 0
1, 280080, Note_on_c, 4, 60, 80
1, 280080, Note_on_c, 5, 57, 80
1, 280235, Note_on_c, 4, 60, 0
1, 280235, Note_on_c, 5, 57, 0
1, 280320, Note_on_c, 1, 77, 79
1, 280320, Note_on_c, 2, 74, 79
1, 280320, Note_on_c, 4, 57, 79
1, 280320, Note_on_c, 5, 53, 79
1, 280475, Note_on_c, 1, 77, 0
1, 280475, Note_on_c, 2, 74, 0
1, 280475, Note_on_c, 4, 57, 0
1, 280475, Note_on_c, 5, 53, 0
1, 280560, Note_on_c, 1, 77, 79
1, 280560, Note_on_c, 2, 74, 79
1, 280715, Note_on_c, 1, 77, 0
1, 280715, Note_on_c, 2, 74, 0
1, 280800, Note_on_c, 1, 74, 78
1, 280800, Note_on_c, 2, 71, 78
1, 280800, Note_on_c, 4, 59, 78
1, 280800, Note_on_c, 5, 55, 78
1, 280955, Note_on_c, 1, 74, 0
1, 280955, Note_on_c, 2, 71, 0
1, 280955, Note_on_c, 4, 59, 0
1, 280955, Note_on_c, 5, 55, 0
1, 281040, Note_on_c, 4, 59, 78
1, 281040, Note_on_c, 5, 55, 78
1, 281195, Note_on_c, 4, 59, 0
1, 281195, Note_on_c, 5, 55, 0
1, 281280, Note_on_c, 1, 72, 76
1, 281280, Note_on_c, 4, 55, 77
1, 281280, Note_on_c, 5, 52, 77
1, 281400, Note_on_c, 1, 72, 0
1, 281400, Note_on_c, 1, 74, 77
1, 281435, Note_on_c, 4, 55, 0
1, 281435, Note_on_c, 5, 52, 0
1, 281520, Note_on_c, 1, 74, 0
1, 281520, Note_on_c, 1, 76, 78
1, 281640, Note_on_c, 1, 76, 0
1, 281640, Note_on_c, 1, 72, 80
1, 281760, Note_on_c, 1, 72, 0
1, 281760, Note_on_c, 1, 69, 83
1, 281760, Note_on_c, 5, 53, 81
1, 281880, Note_on_c, 1, 69, 0
1, 281880, Note_on_c, 1, 71, 82
1, 282000, Note_on_c, 1, 71, 0
1, 282000, Note_on_c, 1, 72, 81
1, 282120, Note_on_c, 1, 72, 0
1, 282120, Note_on_c, 1, 73, 80
1, 282240, Note_on_c, 1, 73, 0
1, 282240, Note_on_c, 1, 74, 79
1, 282360, Note_on_c, 1, 74, 0
1, 282360, Note_on_c, 1, 76, 77
1, 282480, Note_on_c, 1, 76, 0
1, 282480, Note_on_c, 1, 77, 76
1, 282480, Note_on_c, 5, 53, 0
1, 282480, Note_on_c, 5, 50, 75
1, 282600, Note_on_c, 1, 77, 0
1, 282600, Note_on_c, 1, 74, 75
1, 282720, Note_on_c, 1, 74, 0
1, 282720, Note_on_c, 1, 72, 74
1, 282720, Note_on_c, 5, 50, 0
1, 282720, Note_on_c, 5, 55, 73
1, 282840, Note_on_c, 1, 72, 0
1, 282840, Note_on_c, 1, 71, 73
1, 282960, Note_on_c, 1, 71, 0
1, 282960, Note_on_c, 1, 69, 72
1, 282960, Note_on_c, 5, 55, 0
1, 283080, Note_on_c, 1, 69, 0
1, 283080, Note_on_c, 1, 67, 70
1, 283160, Tempo, 500000
1, 283200, Tempo, 495867
1, 283200, Note_on_c, 1, 67, 0
1, 283200, Note_on_c, 1, 79, 73
1, 283200, Note_on_c, 2, 76, 73
1, 283355, Note_on_c, 1, 79, 0
1, 283355, Note_on_c, 2, 76, 0
1, 283440, Note_on_c, 1, 79, 73
1, 283440, Note_on_c, 2, 76, 73
1, 283595, Note_on_c, 1, 79, 0
1, 283595, Note_on_c, 2, 76, 0
1, 283680, Note_on_c, 1, 76, 72
1, 283680, Note_on_c, 2, 72, 72
1, 283680, Note_on_c, 4, 60, 72
1, 283680, Note_on_c, 5, 57, 72
1, 283835, Note_on_c, 1, 76, 0
1, 283835, Note_on_c, 2, 72, 0
1, 283835, Note_on_c, 4, 60, 0
1, 283835, Note_on_c, 5, 57, 0
1, 283920, Note_on_c, 4, 60, 72
1, 283920, Note_on_c, 5, 57, 72
1, 284075, Note_on_c, 4, 60, 0
1, 284075, Note_on_c, 5, 57, 0
1, 284160, Note_on_c, 1, 81, 71
1, 284160, Note_on_c, 2, 77, 71
1, 284160, Note_on_c, 4, 53, 71
1, 284160, Note_on_c, 5, 50, 71
1, 284315, Note_on_c, 1, 81, 0
1, 284315, Note_on_c, 2, 77, 0
1, 284315, Note_on_c, 4, 53, 0
1, 284315, Note_on_c, 5, 50, 0
1, 284400, Note_on_c, 1, 81, 71
1, 284400, Note_on_c, 2, 77, 71
1, 284555, Note_on_c, 1, 81, 0
1, 284555, Note_on_c, 2, 77, 0
1, 284640, Note_on_c, 1, 74, 70
1, 284640, Note_on_c, 2, 71, 70
1, 284640, Note_on_c, 4, 59, 70
1, 284640, Note_on_c, 5, 55, 70
1, 284795, Note_on_c, 1, 74, 0
1, 284795, Note_on_c, 2, 71, 0
1, 284795, Note_on_c, 4, 59, 0
1, 284795, Note_on_c, 5, 55, 0
1, 284880, Note_on_c, 4, 59, 70
1, 284880, Note_on_c, 5, 55, 70
1, 285035, Note_on_c, 4, 59, 0
1, 285035, Note_on_c, 5, 55, 0
1, 285120, Note_on_c, 1, 81, 69
1, 285120, Note_on_c, 4, 52, 69
1, 285120, Note_on_c, 5, 48, 69
1, 285240, Note_on_c, 1, 81, 0
1, 285240, Note_on_c, 1, 79, 71
1, 285275, Note_on_c, 4, 52, 0
1, 285275, Note_on_c, 5, 48, 0
1, 285360, Note_on_c, 1, 79, 0
1, 285360, Note_on_c, 1, 77, 72
1, 285480, Note_on_c, 1, 77, 0
1, 285480, Note_on_c, 1, 76, 74
1, 285600, Note_on_c, 1, 76, 0
1, 285600, Note_on_c, 1, 73, 77
1, 285600, Note_on_c, 4, 57, 73
1, 285600, Note_on_c, 5, 53, 73
1, 285720, Note_on_c, 1, 73, 0
1, 285720, Note_on_c, 1, 74, 75
1, 285840, Note_on_c, 1, 74, 0
1, 285840, Note_on_c, 1, 76, 74
1, 285960, Note_on_c, 1, 76, 0
1, 285960, Note_on_c, 1, 77, 72
1, 286080, Note_on_c, 1, 77, 0
1, 286080, Note_on_c, 1, 69, 71
1, 286200, Note_on_c, 1, 69, 0
1, 286200, Note_on_c, 1, 72, 69
1, 286320, Note_on_c, 1, 72, 0
1, 286320, Note_on_c, 1, 71, 68
1, 286320, Note_on_c, 4, 57, 0
1, 286320, Note_on_c, 4, 65, 68
1, 286320, Note_on_c, 5, 53, 0
1, 286320, Note_on_c, 5, 55, 68
1, 286440, Note_on_c, 1, 71, 0
1, 286440, Note_on_c, 1, 74, 66
1, 286476, Note_on_c, 4, 65, 0
1, 286476, Note_on_c, 5, 55, 0
1, 286560, Tempo, 508474
1, 286560, Note_on_c, 1, 74, 0
1, 286560, Note_on_c, 1, 72, 65
1, 286560, Note_on_c, 4, 64, 66
1, 286560, Note_on_c, 5, 60, 66
1, 286715, Note_on_c, 1, 72, 0
1, 286715, Note_on_c, 4, 64, 0
1, 286715, Note_on_c, 5, 60, 0
1, 286800, Note_on_c, 5, 48, 60
1, 286955, Note_on_c, 5, 48, 0
1, 286980, Tempo, 517241
1, 287040, Tempo, 495867
1, 287040, Note_on_c, 4, 64, 44
1, 287040, Note_on_c, 5, 60, 44
1, 287195, Note_on_c, 4, 64, 0
1, 287195, Note_on_c, 5, 60, 0
1, 287280, Note_on_c, 4, 64, 45
1, 287280, Note_on_c, 5, 60, 45
1, 287435, Note_on_c, 4, 64, 0
1, 287435, Note_on_c, 5, 60, 0
1, 287520, Note_on_c, 1, 76, 50
1, 287520, Note_on_c, 4, 60, 47
1, 287520, Note_on_c, 5, 57, 47
1, 287640, Note_on_c, 1, 76, 0
1, 287640, Note_on_c, 1, 75, 48
1, 287675, Note_on_c, 4, 60, 0
1, 287675, Note_on_c, 5, 57, 0
1, 287760, Note_on_c, 1, 75, 0
1, 287760, Note_on_c, 1, 77, 46
1, 287880, Note_on_c, 1, 77, 0
1, 287880, Note_on_c, 1, 76, 45
1, 288000, Note_on_c, 1, 76, 0
1, 288000, Note_on_c, 4, 62, 49
1, 288000, Note_on_c, 5, 59, 49
1, 288155, Note_on_c, 4, 62, 0
1, 288155, Note_on_c, 5, 59, 0
1, 288240, Note_on_c, 4, 62, 50
1, 288240, Note_on_c, 5, 59, 50
1, 288395, Note_on_c, 4, 62, 0
1, 288395, Note_on_c, 5, 59, 0
1, 288480, Note_on_c, 1, 76, 55
1, 288480, Note_on_c, 4, 59, 51
1, 288480, Note_on_c, 5, 56, 51
1, 288600, Note_on_c, 1, 76, 0
1, 288600, Note_on_c, 1, 75, 52
1, 288635, Note_on_c, 4, 59, 0
1, 288635, Note_on_c, 5, 56, 0
1, 288720, Note_on_c, 1, 75, 0
1, 288720, Note_on_c, 1, 77, 50
1, 288840, Note_on_c, 1, 77, 0
1, 288840, Note_on_c, 1, 76, 48
1, 288920, Tempo, 500000
1, 288960, Tempo, 495867
1, 288960, Note_on_c, 1, 76, 0
1, 288960, Note_on_c, 1, 84, 54
1, 288960, Note_on_c, 2, 76, 54
1, 289115, Note_on_c, 1, 84, 0
1, 289115, Note_on_c, 2, 76, 0
1, 289200, Note_on_c, 1, 84, 55
1, 289200, Note_on_c, 2, 76, 55
1, 289355, Note_on_c, 1, 84, 0
1, 289355, Note_on_c, 2, 76, 0
1, 289440, Note_on_c, 1, 81, 56
1, 289440, Note_on_c, 2, 72, 56
1, 289440, Note_on_c, 5, 64, 61
1, 289560, Note_on_c, 5, 64, 0
1, 289560, Note_on_c, 5, 63, 59
1, 289595, Note_on_c, 1, 81, 0
1, 289595, Note_on_c, 2, 72, 0
1, 289680, Note_on_c, 5, 63, 0
1, 289680, Note_on_c, 5, 65, 57
1, 289800, Note_on_c, 5, 65, 0
1, 289800, Note_on_c, 5, 64, 55
1, 289920, Note_on_c, 1, 83, 58
1, 289920, Note_on_c, 2, 74, 58
1, 289920, Note_on_c, 5, 64, 0
1, 290075, Note_on_c, 1, 83, 0
1, 290075, Note_on_c, 2, 74, 0
1, 290160, Note_on_c, 1, 83, 59
1, 290160, Note_on_c, 2, 74, 59
1, 290315, Note_on_c, 1, 83, 0
1, 290315, Note_on_c, 2, 74, 0
1, 290400, Note_on_c, 1, 80, 61
1, 290400, Note_on_c, 2, 71, 61
1, 290400, Note_on_c, 5, 64, 65
1, 290520, Note_on_c, 5, 64, 0
1, 290520, Note_on_c, 5, 63, 63
1, 290555, Note_on_c, 1, 80, 0
1, 290555, Note_on_c, 2, 71, 0
1, 290640, Note_on_c, 5, 63, 0
1, 290640, Note_on_c, 5, 65, 62
1, 290760, Note_on_c, 5, 65, 0
1, 290760, Note_on_c, 5, 64, 60
1, 290880, Note_on_c, 1, 81, 62
1, 290880, Note_on_c, 2, 64, 63
1, 290880, Note_on_c, 5, 64, 0
1, 290880, Note_on_c, 5, 60, 63
1, 291000, Note_on_c, 1, 81, 0
1, 291000, Note_on_c, 1, 76, 64
1, 291120, Note_on_c, 1, 76, 0
1, 291120, Note_on_c, 1, 72, 65
1, 291240, Note_on_c, 1, 72, 0
1, 291240, Note_on_c, 1, 69, 67
1, 291360, Note_on_c, 1, 69, 0
1, 291360, Note_on_c, 1, 72, 71
1, 291360, Note_on_c, 2, 64, 0
1, 291360, Note_on_c, 2, 65, 64
1, 291360, Note_on_c, 5, 60, 0
1, 291360, Note_on_c, 5, 62, 64
1, 291480, Note_on_c, 1, 72, 0
1, 291480, Note_on_c, 1, 70, 69
1, 291560, Note_on_c, 1, 70, 0
1, 291600, Note_on_c, 1, 70, 68
1, 291680, Note_on_c, 1, 70, 0
1, 291720, Note_on_c, 1, 70, 67
1, 291800, Note_on_c, 1, 70, 0
1, 291840, Note_on_c, 1, 74, 74
1, 291840, Note_on_c, 2, 65, 0
1, 291840, Note_on_c, 2, 67, 67
1, 291840, Note_on_c, 5, 62, 0
1, 291840, Note_on_c, 5, 64, 67
1, 291960, Note_on_c, 1, 74, 0
1, 291960, Note_on_c, 1, 73, 72
1, 292040, Note_on_c, 1, 73, 0
1, 292080, Note_on_c, 1, 73, 71
1, 292160, Note_on_c, 1, 73, 0
1, 292200, Note_on_c, 1, 73, 70
1, 292280, Note_on_c, 1, 73, 0
1, 292320, Note_on_c, 1, 76, 78
1, 292320, Note_on_c, 2, 67, 0
1, 292320, Note_on_c, 2, 69, 71
1, 292320, Note_on_c, 5, 64, 0
1, 292320, Note_on_c, 5, 65, 71
1, 292440, Note_on_c, 1, 76, 0
1, 292440, Note_on_c, 1, 74, 74
1, 292535, Note_on_c, 1, 74, 0
1, 292560, Note_on_c, 1, 77, 80
1, 292560, Note_on_c, 5, 65, 0
1, 292560, Note_on_c, 5, 61, 72
1, 292680, Note_on_c, 1, 77, 0
1, 292680, Note_on_c, 1, 76, 76
1, 292775, Note_on_c, 1, 76, 0
1, 292800, Note_on_c, 1, 79, 84
1, 292800, Note_on_c, 5, 61, 0
1, 292800, Note_on_c, 5, 62, 74
1, 292920, Note_on_c, 1, 79, 0
1, 292920, Note_on_c, 1, 77, 79
1, 293015, Note_on_c, 1, 77, 0
1, 293040, Note_on_c, 1, 77, 87
1, 293040, Note_on_c, 5, 62, 0
1, 293040, Note_on_c, 5, 64, 78
1, 293160, Note_on_c, 1, 77, 0
1, 293160, Note_on_c, 1, 76, 82
1, 293255, Note_on_c, 1, 76, 0
1, 293280, Note_on_c, 1, 76, 90
1, 293280, Note_on_c, 2, 69, 0
1, 293280, Note_on_c, 2, 69, 83
1, 293280, Note_on_c, 5, 64, 0
1, 293280, Note_on_c, 5, 65, 83
1, 293400, Note_on_c, 1, 76, 0
1, 293400, Note_on_c, 1, 75, 89
1, 293495, Note_on_c, 1, 75, 0
1, 293520, Note_on_c, 1, 84, 96
1, 293520, Note_on_c, 2, 69, 0
1, 293520, Note_on_c, 5, 65, 0
1, 293760, Note_on_c, 2, 69, 84
1, 293760, Note_on_c, 5, 65, 84
1, 294000, Note_on_c, 1, 84, 0
1, 294000, Note_on_c, 1, 75, 85
1, 294000, Note_on_c, 2, 69, 0
1, 294000, Note_on_c, 5, 65, 0
1, 294200, Tempo, 500000
1, 294240, Tempo, 495867
1, 294240, Note_on_c, 1, 75, 0
1, 294240, Note_on_c, 1, 76, 85
1, 294240, Note_on_c, 5, 52, 85
1, 294360, Note_on_c, 3, 64, 85
1, 294455, Note_on_c, 3, 64, 0
1, 294480, Note_on_c, 1, 76, 0
1, 294480, Note_on_c, 4, 56, 84
1, 294600, Note_on_c, 3, 64, 84
1, 294660, Note_on_c, 4, 56, 0
1, 294695, Note_on_c, 3, 64, 0
1, 294720, Note_on_c, 1, 83, 83
1, 294720, Note_on_c, 4, 59, 83
1, 294840, Note_on_c, 1, 83, 0
1, 294840, Note_on_c, 1, 80, 83
1, 294840, Note_on_c, 3, 64, 83
1, 294900, Note_on_c, 4, 59, 0
1, 294935, Note_on_c, 3, 64, 0
1, 294960, Note_on_c, 1, 80, 0
1, 294960, Note_on_c, 1, 76, 82
1, 294960, Note_on_c, 4, 56, 82
1, 294960, Note_on_c, 5, 52, 0
1, 295080, Note_on_c, 1, 76, 0
1, 295080, Note_on_c, 1, 74, 82
1, 295080, Note_on_c, 3, 64, 82
1, 295140, Note_on_c, 4, 56, 0
1, 295175, Note_on_c, 3, 64, 0
1, 295200, Note_on_c, 1, 74, 0
1, 295200, Note_on_c, 1, 72, 82
1, 295200, Note_on_c, 5, 52, 82
1, 295320, Note_on_c, 1, 72, 0
1, 295320, Note_on_c, 1, 76, 81
1, 295320, Note_on_c, 3, 64, 81
1, 295415, Note_on_c, 3, 64, 0
1, 295440, Note_on_c, 1, 76, 0
1, 295440, Note_on_c, 1, 81, 81
1, 295440, Note_on_c, 4, 57, 81
1, 295560, Note_on_c, 1, 81, 0
1, 295560, Note_on_c, 1, 80, 80
1, 295560, Note_on_c, 3, 64, 80
1, 295620, Note_on_c, 4, 57, 0
1, 295655, Note_on_c, 3, 64, 0
1, 295680, Note_on_c, 1, 80, 0
1, 295680, Note_on_c, 1, 81, 80
1, 295680, Note_on_c, 4, 60, 80
1, 295800, Note_on_c, 1, 81, 0
1, 295800, Note_on_c, 1, 76, 79
1, 295800, Note_on_c, 3, 64, 80
1, 295860, Note_on_c, 4, 60, 0
1, 295895, Note_on_c, 3, 64, 0
1, 295920, Note_on_c, 1, 76, 0
1, 295920, Note_on_c, 1, 72, 79
1, 295920, Note_on_c, 4, 57, 79
1, 295920, Note_on_c, 5, 52, 0
1, 296040, Note_on_c, 1, 72, 0
1, 296040, Note_on_c, 1, 69, 79
1, 296040, Note_on_c, 3, 64, 79
1, 296100, Note_on_c, 4, 57, 0
1, 296135, Note_on_c, 3, 64, 0
1, 296160, Note_on_c, 1, 69, 0
1, 296160, Note_on_c, 1, 68, 78
1, 296160, Note_on_c, 5, 52, 78
1, 296280, Note_on_c, 1, 68, 0
1, 296280, Note_on_c, 1, 71, 78
1, 296280, Note_on_c, 3, 64, 78
1, 296375, Note_on_c, 3, 64, 0
1, 296400, Note_on_c, 1, 71, 0
1, 296400, Note_on_c, 1, 76, 77
1, 296400, Note_on_c, 4, 56, 77
1, 296520, Note_on_c, 1, 76, 0
1, 296520, Note_on_c, 1, 80, 77
1, 296520, Note_on_c, 3, 64, 77
1, 296580, Note_on_c, 4, 56, 0
1, 296615, Note_on_c, 3, 64, 0
1, 296640, Note_on_c, 1, 80, 0
1, 296640, Note_on_c, 1, 83, 77
1, 296640, Note_on_c, 4, 59, 77
1, 296760, Note_on_c, 1, 83, 0
1, 296760, Note_on_c, 1, 80, 76
1, 296760, Note_on_c, 3, 64, 76
1, 296820, Note_on_c, 4, 59, 0
1, 296855, Note_on_c, 3, 64, 0
1, 296880, Note_on_c, 1, 80, 0
1, 296880, Note_on_c, 1, 76, 76
1, 296880, Note_on_c, 4, 56, 76
1, 296880, Note_on_c, 5, 52, 0
1, 297000, Note_on_c, 1, 76, 0
1, 297000, Note_on_c, 1, 74, 75
1, 297000, Note_on_c, 3, 64, 75
1, 297060, Note_on_c, 4, 56, 0
1, 297095, Note_on_c, 3, 64, 0
1, 297120, Note_on_c, 1, 74, 0
1, 297120, Note_on_c, 1, 72, 75
1, 297120, Note_on_c, 5, 52, 75
1, 297240, Note_on_c, 1, 72, 0
1, 297240, Note_on_c, 1, 76, 74
1, 297240, Note_on_c, 3, 64, 75
1, 297335, Note_on_c, 3, 64, 0
1, 297360, Note_on_c, 1, 76, 0
1, 297360, Note_on_c, 1, 81, 74
1, 297360, Note_on_c, 4, 57, 74
1, 297480, Note_on_c, 1, 81, 0
1, 297480, Note_on_c, 1, 80, 74
1, 297480, Note_on_c, 3, 64, 74
1, 297540, Note_on_c, 4, 57, 0
1, 297575, Note_on_c, 3, 64, 0
1, 297600, Note_on_c, 1, 80, 0
1, 297600, Note_on_c, 1, 81, 73
1, 297600, Note_on_c, 4, 60, 73
1, 297720, Note_on_c, 1, 81, 0
1, 297720, Note_on_c, 1, 76, 73
1, 297720, Note_on_c, 3, 64, 73
1, 297780, Note_on_c, 4, 60, 0
1, 297815, Note_on_c, 3, 64, 0
1, 297840, Note_on_c, 1, 76, 0
1, 297840, Note_on_c, 1, 72, 72
1, 297840, Note_on_c, 4, 57, 73
1, 297840, Note_on_c, 5, 52, 0
1, 297960, Note_on_c, 1, 72, 0
1, 297960, Note_on_c, 1, 69, 72
1, 297960, Note_on_c, 3, 64, 72
1, 298020, Note_on_c, 4, 57, 0
1, 298055, Note_on_c, 3, 64, 0
1, 298080, Tempo, 508474
1, 298080, Note_on_c, 1, 69, 0
1, 298080, Note_on_c, 3, 64, 72
1, 298080, Note_on_c, 5, 52, 72
1, 298235, Note_on_c, 3, 64, 0
1, 298236, Note_on_c, 5, 52, 0
1, 298560, Tempo, 495867
1, 298560, Note_on_c, 1, 76, 70
1, 298560, Note_on_c, 2, 72, 70
1, 298715, Note_on_c, 1, 76, 0
1, 298715, Note_on_c, 2, 72, 0
1, 298800, Note_on_c, 1, 76, 69
1, 298800, Note_on_c, 2, 72, 69
1, 298955, Note_on_c, 1, 76, 0
1, 298955, Note_on_c, 2, 72, 0
1, 299040, Note_on_c, 1, 72, 68
1, 299040, Note_on_c, 2, 69, 68
1, 299040, Note_on_c, 5, 64, 71
1, 299160, Note_on_c, 5, 64, 0
1, 299160, Note_on_c, 5, 63, 69
1, 299195, Note_on_c, 1, 72, 0
1, 299195, Note_on_c, 2, 69, 0
1, 299280, Note_on_c, 5, 63, 0
1, 299280, Note_on_c, 5, 65, 67
1, 299400, Note_on_c, 5, 65, 0
1, 299400, Note_on_c, 5, 64, 64
1, 299520, Note_on_c, 1, 74, 67
1, 299520, Note_on_c, 2, 71, 67
1, 299520, Note_on_c, 5, 64, 0
1, 299675, Note_on_c, 1, 74, 0
1, 299675, Note_on_c, 2, 71, 0
1, 299760, Note_on_c, 1, 74, 66
1, 299760, Note_on_c, 2, 71, 66
1, 299915, Note_on_c, 1, 74, 0
1, 299915, Note_on_c, 2, 71, 0
1, 300000, Note_on_c, 1, 71, 65
1, 300000, Note_on_c, 2, 68, 65
1, 300000, Note_on_c, 5, 64, 67
1, 300120, Note_on_c, 5, 64, 0
1, 300120, Note_on_c, 5, 63, 65
1, 300155, Note_on_c, 1, 71, 0
1, 300155, Note_on_c, 2, 68, 0
1, 300240, Note_on_c, 5, 63, 0
1, 300240, Note_on_c, 5, 65, 63
1, 300360, Note_on_c, 5, 65, 0
1, 300360, Note_on_c, 5, 64, 60
1, 300480, Note_on_c, 4, 60, 63
1, 300480, Note_on_c, 5, 64, 0
1, 300480, Note_on_c, 5, 52, 63
1, 300635, Note_on_c, 4, 60, 0
1, 300635, Note_on_c, 5, 52, 0
1, 300720, Note_on_c, 4, 60, 63
1, 300720, Note_on_c, 5, 52, 63
1, 300875, Note_on_c, 4, 60, 0
1, 300875, Note_on_c, 5, 52, 0
1, 300960, Note_on_c, 1, 64, 65
1, 300960, Note_on_c, 4, 57, 65
1, 300960, Note_on_c, 5, 48, 65
1, 301080, Note_on_c, 1, 64, 0
1, 301080, Note_on_c, 1, 63, 63
1, 301115, Note_on_c, 4, 57, 0
1, 301115, Note_on_c, 5, 48, 0
1, 301200, Note_on_c, 1, 63, 0
1, 301200, Note_on_c, 1, 65, 61
1, 301320, Note_on_c, 1, 65, 0
1, 301320, Note_on_c, 1, 64, 59
1, 301440, Note_on_c, 1, 64, 0
1, 301440, Note_on_c, 4, 59, 60
1, 301440, Note_on_c, 5, 50, 60
1, 301595, Note_on_c, 4, 59, 0
1, 301595, Note_on_c, 5, 50, 0
1, 301680, Note_on_c, 4, 59, 59
1, 301680, Note_on_c, 5, 50, 59
1, 301835, Note_on_c, 4, 59, 0
1, 301835, Note_on_c, 5, 50, 0
1, 301920, Note_on_c, 1, 88, 65
1, 301920, Note_on_c, 4, 56, 58
1, 301920, Note_on_c, 5, 47, 58
1, 302040, Note_on_c, 1, 88, 0
1, 302040, Note_on_c, 1, 87, 64
1, 302075, Note_on_c, 4, 56, 0
1, 302075, Note_on_c, 5, 47, 0
1, 302160, Note_on_c, 1, 87, 0
1, 302160, Note_on_c, 1, 89, 62
1, 302280, Note_on_c, 1, 89, 0
1, 302280, Note_on_c, 1, 88, 61
1, 302400, Note_on_c, 1, 88, 0
1, 302400, Note_on_c, 1, 86, 59
1, 302400, Note_on_c, 2, 59, 57
1, 302400, Note_on_c, 5, 56, 57
1, 302520, Note_on_c, 1, 86, 0
1, 302520, Note_on_c, 1, 85, 58
1, 302640, Note_on_c, 1, 85, 0
1, 302640, Note_on_c, 1, 88, 56
1, 302760, Note_on_c, 1, 88, 0
1, 302760, Note_on_c, 1, 86, 55
1, 302880, Note_on_c, 1, 86, 0
1, 302880, Note_on_c, 1, 86, 62
1, 302880, Note_on_c, 2, 59, 0
1, 302880, Note_on_c, 2, 60, 59
1, 302880, Note_on_c, 5, 56, 0
1, 302880, Note_on_c, 5, 57, 59
1, 303000, Note_on_c, 1, 86, 0
1, 303000, Note_on_c, 1, 84, 55
1, 303070, Note_on_c, 2, 60, 0
1, 303070, Note_on_c, 5, 57, 0
1, 303095, Note_on_c, 1, 84, 0
1, 303120, Note_on_c, 1, 84, 61
1, 303120, Note_on_c, 2, 62, 60
1, 303120, Note_on_c, 5, 59, 60
1, 303240, Note_on_c, 1, 84, 0
1, 303240, Note_on_c, 1, 83, 54
1, 303310, Note_on_c, 2, 62, 0
1, 303310, Note_on_c, 5, 59, 0
1, 303335, Note_on_c, 1, 83, 0
1, 303360, Note_on_c, 1, 83, 60
1, 303360, Note_on_c, 2, 64, 61
1, 303360, Note_on_c, 5, 60, 61
1, 303480, Note_on_c, 1, 83, 0
1, 303480, Note_on_c, 1, 81, 53
1, 303550, Note_on_c, 5, 60, 0
1, 303575, Note_on_c, 1, 81, 0
1, 303600, Note_on_c, 1, 81, 59
1, 303600, Note_on_c, 5, 61, 61
1, 303720, Note_on_c, 1, 81, 0
1, 303720, Note_on_c, 1, 79, 52
1, 303790, Note_on_c, 5, 61, 0
1, 303815, Note_on_c, 1, 79, 0
1, 303840, Note_on_c, 1, 79, 60
1, 303840, Note_on_c, 2, 64, 0
1, 303840, Note_on_c, 2, 69, 62
1, 303840, Note_on_c, 5, 62, 62
1, 303960, Note_on_c, 1, 79, 0
1, 303960, Note_on_c, 1, 77, 51
1, 304030, Note_on_c, 5, 62, 0
1, 304055, Note_on_c, 1, 77, 0
1, 304080, Note_on_c, 1, 77, 58
1, 304080, Note_on_c, 5, 64, 63
1, 304200, Note_on_c, 1, 77, 0
1, 304200, Note_on_c, 1, 76, 51
1, 304270, Note_on_c, 5, 64, 0
1, 304295, Note_on_c, 1, 76, 0
1, 304320, Note_on_c, 1, 76, 58
1, 304320, Note_on_c, 5, 65, 64
1, 304440, Note_on_c, 1, 76, 0
1, 304440, Note_on_c, 1, 74, 50
1, 304510, Note_on_c, 5, 65, 0
1, 304535, Note_on_c, 1, 74, 0
1, 304560, Note_on_c, 1, 74, 58
1, 304560, Note_on_c, 5, 64, 65
1, 304680, Note_on_c, 1, 74, 0
1, 304680, Note_on_c, 1, 72, 49
1, 304750, Note_on_c, 5, 64, 0
1, 304775, Note_on_c, 1, 72, 0
1, 304800, Note_on_c, 1, 70, 55
1, 304800, Note_on_c, 2, 69, 0
1, 304800, Note_on_c, 2, 65, 67
1, 304800, Note_on_c, 5, 62, 67
1, 304920, Note_on_c, 1, 70, 0
1, 304920, Note_on_c, 1, 77, 54
1, 305040, Note_on_c, 1, 77, 0
1, 305040, Note_on_c, 1, 74, 52
1, 305160, Note_on_c, 1, 74, 0
1, 305160, Note_on_c, 1, 70, 50
1, 305185, Note_on_c, 2, 65, 0
1, 305185, Note_on_c, 5, 62, 0
1, 305280, Note_on_c, 1, 70, 0
1, 305280, Note_on_c, 1, 69, 49
1, 305280, Note_on_c, 4, 60, 54
1, 305280, Note_on_c, 5, 52, 54
1, 305470, Note_on_c, 1, 69, 0
1, 305520, Note_on_c, 1, 68, 46
1, 305520, Note_on_c, 4, 60, 0
1, 305520, Note_on_c, 4, 59, 47
1, 305710, Note_on_c, 1, 68, 0
1, 305760, Note_on_c, 1, 69, 45
1, 305760, Note_on_c, 4, 59, 0
1, 305760, Note_on_c, 5, 52, 0
1, 305760, Note_on_c, 5, 57, 45
1, 305880, Note_on_c, 3, 60, 45
1, 305950, Note_on_c, 1, 69, 0
1, 306000, Note_on_c, 3, 60, 0
1, 306000, Note_on_c, 3, 64, 44
1, 306120, Note_on_c, 3, 64, 0
1, 306120, Note_on_c, 3, 60, 44
1, 306120, Note_on_c, 5, 57, 0
1, 306240, Note_on_c, 1, 68, 43
1, 306240, Note_on_c, 3, 60, 0
1, 306240, Note_on_c, 5, 52, 43
1, 306335, Note_on_c, 1, 68, 0
1, 306360, Note_on_c, 1, 74, 43
1, 306360, Note_on_c, 3, 59, 43
1, 306455, Note_on_c, 1, 74, 0
1, 306480, Note_on_c, 1, 71, 43
1, 306480, Note_on_c, 3, 59, 0
1, 306480, Note_on_c, 3, 62, 43
1, 306575, Note_on_c, 1, 71, 0
1, 306600, Note_on_c, 1, 68, 42
1, 306600, Note_on_c, 3, 62, 0
1, 306600, Note_on_c, 3, 59, 42
1, 306600, Note_on_c, 5, 52, 0
1, 306695, Note_on_c, 1, 68, 0
1, 306720, Note_on_c, 1, 69, 42
1, 306720, Note_on_c, 3, 59, 0
1, 306720, Note_on_c, 5, 57, 42
1, 306840, Note_on_c, 3, 60, 41
1, 306910, Note_on_c, 1, 69, 0
1, 306960, Note_on_c, 3, 60, 0
1, 306960, Note_on_c, 3, 64, 41
1, 307080, Note_on_c, 3, 64, 0
1, 307080, Note_on_c, 3, 60, 41
1, 307080, Note_on_c, 5, 57, 0
1, 307200, Note_on_c, 1, 68, 40
1, 307200, Note_on_c, 3, 60, 0
1, 307200, Note_on_c, 5, 52, 40
1, 307295, Note_on_c, 1, 68, 0
1, 307320, Note_on_c, 1, 74, 40
1, 307320, Note_on_c, 3, 59, 40
1, 307415, Note_on_c, 1, 74, 0
1, 307440, Note_on_c, 1, 71, 39
1, 307440, Note_on_c, 3, 59, 0
1, 307440, Note_on_c, 3, 62, 39
1, 307535, Note_on_c, 1, 71, 0
1, 307560, Note_on_c, 1, 68, 39
1, 307560, Note_on_c, 3, 62, 0
1, 307560, Note_on_c, 3, 59, 39
1, 307560, Note_on_c, 5, 52, 0
1, 307655, Note_on_c, 1, 68, 0
1, 307680, Note_on_c, 1, 69, 38
1, 307680, Note_on_c, 3, 59, 0
1, 307680, Note_on_c, 5, 57, 38
1, 307800, Note_on_c, 3, 60, 38
1, 307870, Note_on_c, 1, 69, 0
1, 307920, Note_on_c, 3, 60, 0
1, 307920, Note_on_c, 3, 64, 38
1, 308040, Note_on_c, 3, 64, 0
1, 308040, Note_on_c, 3, 60, 38
1, 308040, Note_on_c, 5, 57, 0
1, 308160, Note_on_c, 1, 68, 41
1, 308160, Note_on_c, 3, 60, 0
1, 308160, Note_on_c, 5, 52, 41
1, 308255, Note_on_c, 1, 68, 0
1, 308280, Note_on_c, 1, 74, 43
1, 308280, Note_on_c, 3, 59, 43
1, 308375, Note_on_c, 1, 74, 0
1, 308400, Note_on_c, 1, 71, 45
1, 308400, Note_on_c, 3, 59, 0
1, 308400, Note_on_c, 3, 62, 45
1, 308495, Note_on_c, 1, 71, 0
1, 308520, Note_on_c, 1, 68, 47
1, 308520, Note_on_c, 3, 62, 0
1, 308520, Note_on_c, 3, 59, 47
1, 308520, Note_on_c, 5, 52, 0
1, 308615, Note_on_c, 1, 68, 0
1, 308640, Note_on_c, 1, 69, 48
1, 308640, Note_on_c, 3, 59, 0
1, 308640, Note_on_c, 5, 57, 48
1, 308735, Note_on_c, 1, 69, 0
1, 308760, Note_on_c, 1, 76, 51
1, 308760, Note_on_c, 3, 60, 51
1, 308855, Note_on_c, 1, 76, 0
1, 308880, Note_on_c, 1, 72, 54
1, 308880, Note_on_c, 3, 60, 0
1, 308880, Note_on_c, 3, 64, 54
1, 308975, Note_on_c, 1, 72, 0
1, 309000, Note_on_c, 1, 69, 57
1, 309000, Note_on_c, 3, 64, 0
1, 309000, Note_on_c, 3, 60, 57
1, 309000, Note_on_c, 5, 57, 0
1, 309095, Note_on_c, 1, 69, 0
1, 309120, Note_on_c, 1, 71, 61
1, 309120, Note_on_c, 3, 60, 0
1, 309120, Note_on_c, 5, 55, 61
1, 309215, Note_on_c, 1, 71, 0
1, 309240, Note_on_c, 1, 77, 65
1, 309240, Note_on_c, 3, 62, 65
1, 309335, Note_on_c, 1, 77, 0
1, 309360, Note_on_c, 1, 74, 70
1, 309360, Note_on_c, 3, 62, 0
1, 309360, Note_on_c, 3, 65, 70
1, 309440, Tempo, 500000
1, 309455, Note_on_c, 1, 74, 0
1, 309480, Tempo, 845070
1, 309480, Note_on_c, 1, 71, 76
1, 309480, Note_on_c, 3, 65, 0
1, 309480, Note_on_c, 3, 62, 76
1, 309480, Note_on_c, 5, 55, 0
1, 309600, Tempo, 967741
1, 309600, Note_on_c, 1, 71, 0
1, 309600, Note_on_c, 3, 62, 0
1, 310080, Tempo, 495867
1, 310080, Note_on_c, 1, 79, 83
1, 310080, Note_on_c, 2, 76, 83
1, 310235, Note_on_c, 1, 79, 0
1, 310235, Note_on_c, 2, 76, 0
1, 310320, Note_on_c, 1, 79, 83
1, 310320, Note_on_c, 2, 76, 83
1, 310475, Note_on_c, 1, 79, 0
1, 310475, Note_on_c, 2, 76, 0
1, 310560, Note_on_c, 1, 76, 82
1, 310560, Note_on_c, 2, 72, 82
1, 310560, Note_on_c, 4, 60, 82
1, 310560, Note_on_c, 5, 57, 82
1, 310715, Note_on_c, 1, 76, 0
1, 310715, Note_on_c, 2, 72, 0
1, 310715, Note_on_c, 4, 60, 0
1, 310715, Note_on_c, 5, 57, 0
1, 310800, Note_on_c, 4, 60, 82
1, 310800, Note_on_c, 5, 57, 82
1, 310955, Note_on_c, 4, 60, 0
1, 310955, Note_on_c, 5, 57, 0
1, 311040, Note_on_c, 1, 77, 81
1, 311040, Note_on_c, 2, 74, 81
1, 311040, Note_on_c, 4, 57, 81
1, 311040, Note_on_c, 5, 53, 81
1, 311195, Note_on_c, 1, 77, 0
1, 311195, Note_on_c, 2, 74, 0
1, 311195, Note_on_c, 4, 57, 0
1, 311195, Note_on_c, 5, 53, 0
1, 311280, Note_on_c, 1, 77, 80
1, 311280, Note_on_c, 2, 74, 80
1, 311435, Note_on_c, 1, 77, 0
1, 311435, Note_on_c, 2, 74, 0
1, 311520, Note_on_c, 1, 74, 80
1, 311520, Note_on_c, 2, 71, 80
1, 311520, Note_on_c, 4, 59, 80
1, 311520, Note_on_c, 5, 55, 80
1, 311675, Note_on_c, 1, 74, 0
1, 311675, Note_on_c, 2, 71, 0
1, 311675, Note_on_c, 4, 59, 0
1, 311675, Note_on_c, 5, 55, 0
1, 311760, Note_on_c, 4, 59, 79
1, 311760, Note_on_c, 5, 55, 79
1, 311915, Note_on_c, 4, 59, 0
1, 311915, Note_on_c, 5, 55, 0
1, 312000, Note_on_c, 1, 72, 78
1, 312000, Note_on_c, 4, 55, 79
1, 312000, Note_on_c, 5, 52, 79
1, 312120, Note_on_c, 1, 72, 0
1, 312120, Note_on_c, 1, 74, 79
1, 312155, Note_on_c, 4, 55, 0
1, 312155, Note_on_c, 5, 52, 0
1, 312240, Note_on_c, 1, 74, 0
1, 312240, Note_on_c, 1, 76, 81
1, 312360, Note_on_c, 1, 76, 0
1, 312360, Note_on_c, 1, 72, 82
1, 312480, Note_on_c, 1, 72, 0
1, 312480, Note_on_c, 1, 69, 85
1, 312480, Note_on_c, 5, 53, 81
1, 312600, Note_on_c, 1, 69, 0
1, 312600, Note_on_c, 1, 71, 84
1, 312720, Note_on_c, 1, 71, 0
1, 312720, Note_on_c, 1, 72, 83
1, 312840, Note_on_c, 1, 72, 0
1, 312840, Note_on_c, 1, 73, 81
1, 312960, Note_on_c, 1, 73, 0
1, 312960, Note_on_c, 1, 74, 80
1, 313080, Note_on_c, 1, 74, 0
1, 313080, Note_on_c, 1, 76, 79
1, 313200, Note_on_c, 1, 76, 0
1, 313200, Note_on_c, 1, 77, 78
1, 313200, Note_on_c, 5, 53, 0
1, 313200, Note_on_c, 5, 50, 77
1, 313320, Note_on_c, 1, 77, 0
1, 313320, Note_on_c, 1, 74, 77
1, 313440, Note_on_c, 1, 74, 0
1, 313440, Note_on_c, 1, 72, 75
1, 313440, Note_on_c, 5, 50, 0
1, 313440, Note_on_c, 5, 55, 76
1, 313560, Note_on_c, 1, 72, 0
1, 313560, Note_on_c, 1, 71, 74
1, 313680, Note_on_c, 1, 71, 0
1, 313680, Note_on_c, 1, 69, 73
1, 313680, Note_on_c, 5, 55, 0
1, 313800, Note_on_c, 1, 69, 0
1, 313800, Note_on_c, 1, 67, 72
1, 313880, Tempo, 500000
1, 313920, Tempo, 495867
1, 313920, Note_on_c, 1, 67, 0
1, 313920, Note_on_c, 1, 79, 74
1, 313920, Note_on_c, 2, 76, 74
1, 314075, Note_on_c, 1, 79, 0
1, 314075, Note_on_c, 2, 76, 0
1, 314160, Note_on_c, 1, 79, 74
1, 314160, Note_on_c, 2, 76, 74
1, 314315, Note_on_c, 1, 79, 0
1, 314315, Note_on_c, 2, 76, 0
1, 314400, Note_on_c, 1, 76, 73
1, 314400, Note_on_c, 2, 72, 73
1, 314400, Note_on_c, 4, 60, 73
1, 314400, Note_on_c, 5, 57, 73
1, 314555, Note_on_c, 1, 76, 0
1, 314555, Note_on_c, 2, 72, 0
1, 314555, Note_on_c, 4, 60, 0
1, 314555, Note_on_c, 5, 57, 0
1, 314640, Note_on_c, 4, 60, 73
1, 314640, Note_on_c, 5, 57, 73
1, 314795, Note_on_c, 4, 60, 0
1, 314795, Note_on_c, 5, 57, 0
1, 314880, Note_on_c, 1, 81, 72
1, 314880, Note_on_c, 2, 77, 72
1, 314880, Note_on_c, 4, 53, 72
1, 314880, Note_on_c, 5, 50, 72
1, 315035, Note_on_c, 1, 81, 0
1, 315035, Note_on_c, 2, 77, 0
1, 315035, Note_on_c, 4, 53, 0
1, 315035, Note_on_c, 5, 50, 0
1, 315120, Note_on_c, 1, 81, 71
1, 315120, Note_on_c, 2, 77, 71
1, 315275, Note_on_c, 1, 81, 0
1, 315275, Note_on_c, 2, 77, 0
1, 315360, Tempo, 500000
1, 315360, Note_on_c, 1, 74, 71
1, 315360, Note_on_c, 2, 71, 71
1, 315360, Note_on_c, 4, 59, 71
1, 315360, Note_on_c, 5, 55, 71
1, 315515, Note_on_c, 1, 74, 0
1, 315515, Note_on_c, 2, 71, 0
1, 315515, Note_on_c, 4, 59, 0
1, 315515, Note_on_c, 5, 55, 0
1, 315600, Note_on_c, 4, 59, 70
1, 315600, Note_on_c, 5, 55, 70
1, 315755, Note_on_c, 4, 59, 0
1, 315755, Note_on_c, 5, 55, 0
1, 315780, Tempo, 508474
1, 315840, Tempo, 495867
1, 315840, Note_on_c, 1, 81, 70
1, 315840, Note_on_c, 4, 52, 70
1, 315840, Note_on_c, 5, 48, 70
1, 315960, Note_on_c, 1, 81, 0
1, 315960, Note_on_c, 1, 79, 71
1, 315995, Note_on_c, 4, 52, 0
1, 315995, Note_on_c, 5, 48, 0
1, 316080, Note_on_c, 1, 79, 0
1, 316080, Note_on_c, 1, 77, 72
1, 316200, Note_on_c, 1, 77, 0
1, 316200, Note_on_c, 1, 76, 74
1, 316320, Note_on_c, 1, 76, 0
1, 316320, Note_on_c, 1, 73, 77
1, 316320, Note_on_c, 4, 57, 73
1, 316320, Note_on_c, 5, 53, 73
1, 316440, Note_on_c, 1, 73, 0
1, 316440, Note_on_c, 1, 74, 75
1, 316560, Note_on_c, 1, 74, 0
1, 316560, Note_on_c, 1, 76, 74
1, 316680, Note_on_c, 1, 76, 0
1, 316680, Note_on_c, 1, 77, 72
1, 316800, Note_on_c, 1, 77, 0
1, 316800, Note_on_c, 1, 69, 71
1, 316920, Note_on_c, 1, 69, 0
1, 316920, Note_on_c, 1, 72, 69
1, 317040, Note_on_c, 1, 72, 0
1, 317040, Note_on_c, 1, 71, 68
1, 317040, Note_on_c, 4, 57, 0
1, 317040, Note_on_c, 4, 65, 68
1, 317040, Note_on_c, 5, 53, 0
1, 317040, Note_on_c, 5, 55, 68
1, 317160, Note_on_c, 1, 71, 0
1, 317160, Note_on_c, 1, 74, 66
1, 317280, Tempo, 500000
1, 317280, Note_on_c, 1, 74, 0
1, 317280, Note_on_c, 1, 72, 66
1, 317280, Note_on_c, 4, 65, 0
1, 317280, Note_on_c, 4, 64, 66
1, 317280, Note_on_c, 5, 55, 0
1, 317280, Note_on_c, 5, 60, 66
1, 317435, Note_on_c, 1, 72, 0
1, 317435, Note_on_c, 4, 64, 0
1, 317435, Note_on_c, 5, 60, 0
1, 317520, Note_on_c, 5, 48, 61
1, 317675, Note_on_c, 5, 48, 0
1, 317760, Tempo, 495867
1, 317760, Note_on_c, 1, 71, 68
1, 317760, Note_on_c, 5, 53, 62
1, 317880, Note_on_c, 1, 71, 0
1, 317880, Note_on_c, 1, 77, 55
1, 317880, Note_on_c, 3, 59, 56
1, 318000, Note_on_c, 1, 77, 0
1, 318000, Note_on_c, 1, 74, 51
1, 318000, Note_on_c, 3, 59, 0
1, 318000, Note_on_c, 3, 55, 49
1, 318120, Note_on_c, 1, 74, 0
1, 318120, Note_on_c, 1, 71, 47
1, 318120, Note_on_c, 3, 55, 0
1, 318120, Note_on_c, 3, 59, 48
1, 318120, Note_on_c, 5, 53, 0
1, 318240, Note_on_c, 1, 71, 0
1, 318240, Note_on_c, 1, 81, 46
1, 318240, Note_on_c, 3, 59, 0
1, 318240, Note_on_c, 5, 52, 48
1, 318360, Note_on_c, 1, 81, 0
1, 318360, Note_on_c, 1, 79, 48
1, 318360, Note_on_c, 3, 60, 49
1, 318480, Note_on_c, 1, 79, 0
1, 318480, Note_on_c, 1, 77, 49
1, 318480, Note_on_c, 3, 60, 0
1, 318480, Note_on_c, 3, 55, 50
1, 318600, Note_on_c, 1, 77, 0
1, 318600, Note_on_c, 1, 76, 49
1, 318600, Note_on_c, 3, 55, 0
1, 318600, Note_on_c, 3, 60, 50
1, 318600, Note_on_c, 5, 52, 0
1, 318720, Note_on_c, 1, 76, 0
1, 318720, Note_on_c, 1, 74, 72
1, 318720, Note_on_c, 3, 60, 0
1, 318720, Note_on_c, 5, 53, 66
1, 318840, Note_on_c, 1, 74, 0
1, 318840, Note_on_c, 1, 77, 59
1, 318840, Note_on_c, 3, 59, 60
1, 318960, Note_on_c, 1, 77, 0
1, 318960, Note_on_c, 1, 74, 54
1, 318960, Note_on_c, 3, 59, 0
1, 318960, Note_on_c, 3, 55, 54
1, 319080, Note_on_c, 1, 74, 0
1, 319080, Note_on_c, 1, 71, 48
1, 319080, Note_on_c, 3, 55, 0
1, 319080, Note_on_c, 3, 59, 53
1, 319080, Note_on_c, 5, 53, 0
1, 319200, Note_on_c, 1, 71, 0
1, 319200, Note_on_c, 1, 81, 51
1, 319200, Note_on_c, 3, 59, 0
1, 319200, Note_on_c, 5, 52, 53
1, 319320, Note_on_c, 1, 81, 0
1, 319320, Note_on_c, 1, 79, 52
1, 319320, Note_on_c, 3, 60, 54
1, 319440, Note_on_c, 1, 79, 0
1, 319440, Note_on_c, 1, 77, 53
1, 319440, Note_on_c, 3, 60, 0
1, 319440, Note_on_c, 3, 55, 55
1, 319560, Note_on_c, 1, 77, 0
1, 319560, Note_on_c, 1, 76, 53
1, 319560, Note_on_c, 3, 55, 0
1, 319560, Note_on_c, 3, 60, 55
1, 319560, Note_on_c, 5, 52, 0
1, 319680, Note_on_c, 1, 76, 0
1, 319680, Note_on_c, 1, 86, 86
1, 319680, Note_on_c, 3, 60, 0
1, 319680, Note_on_c, 5, 53, 84
1, 319800, Note_on_c, 1, 86, 0
1, 319800, Note_on_c, 1, 84, 80
1, 319800, Note_on_c, 3, 62, 80
1, 319920, Note_on_c, 1, 84, 0
1, 319920, Note_on_c, 1, 83, 78
1, 319920, Note_on_c, 3, 62, 0
1, 319920, Note_on_c, 3, 57, 78
1, 320040, Note_on_c, 1, 83, 0
1, 320040, Note_on_c, 1, 81, 77
1, 320040, Note_on_c, 3, 57, 0
1, 320040, Note_on_c, 3, 62, 77
1, 320040, Note_on_c, 5, 53, 0
1, 320160, Note_on_c, 1, 81, 0
1, 320160, Note_on_c, 1, 81, 76
1, 320160, Note_on_c, 3, 62, 0
1, 320160, Note_on_c, 5, 55, 76
1, 320280, Note_on_c, 1, 81, 0
1, 320280, Note_on_c, 1, 79, 74
1, 320280, Note_on_c, 3, 64, 74
1, 320360, Note_on_c, 1, 79, 0
1, 320400, Note_on_c, 1, 77, 73
1, 320400, Note_on_c, 3, 64, 0
1, 320400, Note_on_c, 3, 60, 73
1, 320480, Note_on_c, 1, 77, 0
1, 320520, Note_on_c, 1, 76, 72
1, 320520, Note_on_c, 3, 60, 0
1, 320520, Note_on_c, 3, 64, 72
1, 320520, Note_on_c, 5, 55, 0
1, 320600, Note_on_c, 1, 76, 0
1, 320640, Note_on_c, 1, 76, 70
1, 320640, Note_on_c, 3, 64, 0
1, 320640, Note_on_c, 5, 55, 70
1, 320760, Note_on_c, 1, 76, 0
1, 320760, Note_on_c, 1, 74, 69
1, 320760, Note_on_c, 3, 65, 69
1, 320840, Note_on_c, 1, 74, 0
1, 320880, Note_on_c, 1, 72, 67
1, 320880, Note_on_c, 3, 65, 0
1, 320880, Note_on_c, 3, 62, 67
1, 320960, Note_on_c, 1, 72, 0
1, 321000, Note_on_c, 1, 71, 66
1, 321000, Note_on_c, 3, 62, 0
1, 321000, Note_on_c, 3, 65, 66
1, 321000, Note_on_c, 5, 55, 0
1, 321080, Note_on_c, 1, 71, 0
1, 321120, Note_on_c, 1, 74, 65
1, 321120, Note_on_c, 3, 65, 0
1, 321120, Note_on_c, 5, 60, 65
1, 321240, Note_on_c, 3, 67, 63
1, 321360, Note_on_c, 1, 74, 0
1, 321360, Note_on_c, 1, 72, 62
1, 321360, Note_on_c, 3, 67, 0
1, 321360, Note_on_c, 3, 64, 62
1, 321480, Note_on_c, 3, 64, 0
1, 321480, Note_on_c, 3, 67, 60
1, 321480, Note_on_c, 5, 60, 0
1, 321560, Tempo, 500000
1, 321600, Tempo, 495867
1, 321600, Note_on_c, 1, 72, 0
1, 321600, Note_on_c, 1, 71, 80
1, 321600, Note_on_c, 3, 67, 0
1, 321600, Note_on_c, 5, 53, 76
1, 321720, Note_on_c, 1, 71, 0
1, 321720, Note_on_c, 1, 77, 72
1, 321720, Note_on_c, 3, 59, 72
1, 321840, Note_on_c, 1, 77, 0
1, 321840, Note_on_c, 1, 74, 67
1, 321840, Note_on_c, 3, 59, 0
1, 321840, Note_on_c, 3, 55, 68
1, 321960, Note_on_c, 1, 74, 0
1, 321960, Note_on_c, 1, 71, 62
1, 321960, Note_on_c, 3, 55, 0
1, 321960, Note_on_c, 3, 59, 64
1, 321960, Note_on_c, 5, 53, 0
1, 322080, Note_on_c, 1, 71, 0
1, 322080, Note_on_c, 1, 81, 67
1, 322080, Note_on_c, 3, 59, 0
1, 322080, Note_on_c, 5, 52, 64
1, 322200, Note_on_c, 1, 81, 0
1, 322200, Note_on_c, 1, 79, 65
1, 322200, Note_on_c, 3, 60, 65
1, 322320, Note_on_c, 1, 79, 0
1, 322320, Note_on_c, 1, 77, 65
1, 322320, Note_on_c, 3, 60, 0
1, 322320, Note_on_c, 3, 55, 66
1, 322440, Note_on_c, 1, 77, 0
1, 322440, Note_on_c, 1, 76, 66
1, 322440, Note_on_c, 3, 55, 0
1, 322440, Note_on_c, 3, 60, 66
1, 322440, Note_on_c, 5, 52, 0
1, 322560, Note_on_c, 1, 76, 0
1, 322560, Note_on_c, 1, 74, 82
1, 322560, Note_on_c, 3, 60, 0
1, 322560, Note_on_c, 5, 53, 83
1, 322680, Note_on_c, 1, 74, 0
1, 322680, Note_on_c, 1, 77, 73
1, 322680, Note_on_c, 3, 59, 78
1, 322800, Note_on_c, 1, 77, 0
1, 322800, Note_on_c, 1, 74, 69
1, 322800, Note_on_c, 3, 59, 0
1, 322800, Note_on_c, 3, 55, 73
1, 322920, Note_on_c, 1, 74, 0
1, 322920, Note_on_c, 1, 71, 65
1, 322920, Note_on_c, 3, 55, 0
1, 322920, Note_on_c, 3, 59, 70
1, 322920, Note_on_c, 5, 53, 0
1, 323040, Note_on_c, 1, 71, 0
1, 323040, Note_on_c, 1, 81, 70
1, 323040, Note_on_c, 3, 59, 0
1, 323040, Note_on_c, 5, 52, 71
1, 323160, Note_on_c, 1, 81, 0
1, 323160, Note_on_c, 1, 79, 69
1, 323160, Note_on_c, 3, 60, 72
1, 323280, Note_on_c, 1, 79, 0
1, 323280, Note_on_c, 1, 77, 69
1, 323280, Note_on_c, 3, 60, 0
1, 323280, Note_on_c, 3, 55, 72
1, 323400, Note_on_c, 1, 77, 0
1, 323400, Note_on_c, 1, 76, 70
1, 323400, Note_on_c, 3, 55, 0
1, 323400, Note_on_c, 3, 60, 73
1, 323400, Note_on_c, 5, 52, 0
1, 323520, Note_on_c, 1, 76, 0
1, 323520, Note_on_c, 1, 86, 93
1, 323520, Note_on_c, 3, 60, 0
1, 323520, Note_on_c, 5, 53, 93
1, 323640, Note_on_c, 1, 86, 0
1, 323640, Note_on_c, 1, 84, 89
1, 323640, Note_on_c, 3, 62, 89
1, 323760, Note_on_c, 1, 84, 0
1, 323760, Note_on_c, 1, 83, 88
1, 323760, Note_on_c, 3, 62, 0
1, 323760, Note_on_c, 3, 57, 88
1, 323880, Note_on_c, 1, 83, 0
1, 323880, Note_on_c, 1, 81, 87
1, 323880, Note_on_c, 3, 57, 0
1, 323880, Note_on_c, 3, 62, 87
1, 323880, Note_on_c, 5, 53, 0
1, 324000, Note_on_c, 1, 81, 0
1, 324000, Note_on_c, 1, 81, 85
1, 324000, Note_on_c, 3, 62, 0
1, 324000, Note_on_c, 5, 55, 85
1, 324120, Note_on_c, 1, 81, 0
1, 324120, Note_on_c, 1, 79, 84
1, 324120, Note_on_c, 3, 64, 84
1, 324200, Note_on_c, 1, 79, 0
1, 324240, Note_on_c, 1, 77, 83
1, 324240, Note_on_c, 3, 64, 0
1, 324240, Note_on_c, 3, 60, 83
1, 324320, Note_on_c, 1, 77, 0
1, 324360, Note_on_c, 1, 76, 82
1, 324360, Note_on_c, 3, 60, 0
1, 324360, Note_on_c, 3, 64, 82
1, 324360, Note_on_c, 5, 55, 0
1, 324440, Note_on_c, 1, 76, 0
1, 324480, Note_on_c, 1, 76, 81
1, 324480, Note_on_c, 3, 64, 0
1, 324480, Note_on_c, 5, 55, 81
1, 324600, Note_on_c, 1, 76, 0
1, 324600, Note_on_c, 1, 74, 80
1, 324600, Note_on_c, 3, 65, 80
1, 324680, Note_on_c, 1, 74, 0
1, 324720, Note_on_c, 1, 72, 79
1, 324720, Note_on_c, 3, 65, 0
1, 324720, Note_on_c, 3, 62, 79
1, 324800, Note_on_c, 1, 72, 0
1, 324840, Note_on_c, 1, 71, 77
1, 324840, Note_on_c, 3, 62, 0
1, 324840, Note_on_c, 3, 65, 77
1, 324840, Note_on_c, 5, 55, 0
1, 324920, Note_on_c, 1, 71, 0
1, 324960, Note_on_c, 1, 72, 76
1, 324960, Note_on_c, 3, 65, 0
1, 324960, Note_on_c, 5, 60, 76
1, 325069, Note_on_c, 1, 72, 0
1, 325069, Note_on_c, 5, 60, 0
1, 325080, Note_on_c, 2, 76, 76
1, 325080, Note_on_c, 4, 64, 76
1, 325189, Note_on_c, 2, 76, 0
1, 325189, Note_on_c, 4, 64, 0
1, 325200, Note_on_c, 1, 67, 77
1, 325200, Note_on_c, 5, 55, 77
1, 325309, Note_on_c, 1, 67, 0
1, 325309, Note_on_c, 5, 55, 0
1, 325320, Note_on_c, 2, 72, 79
1, 325320, Note_on_c, 4, 60, 79
1, 325429, Note_on_c, 2, 72, 0
1, 325429, Note_on_c, 4, 60, 0
1, 325440, Note_on_c, 1, 64, 81
1, 325440, Note_on_c, 5, 52, 81
1, 325549, Note_on_c, 1, 64, 0
1, 325549, Note_on_c, 5, 52, 0
1, 325560, Note_on_c, 2, 67, 82
1, 325560, Note_on_c, 4, 55, 82
1, 325669, Note_on_c, 2, 67, 0
1, 325669, Note_on_c, 4, 55, 0
1, 325680, Note_on_c, 1, 60, 84
1, 325680, Note_on_c, 5, 48, 84
1, 325789, Note_on_c, 1, 60, 0
1, 325789, Note_on_c, 5, 48, 0
1, 325800, Note_on_c, 2, 64, 86
1, 325800, Note_on_c, 4, 52, 86
1, 325909, Note_on_c, 2, 64, 0
1, 325909, Note_on_c, 4, 52, 0
1, 325920, Note_on_c, 1, 67, 88
1, 325920, Note_on_c, 5, 55, 88
1, 326029, Note_on_c, 1, 67, 0
1, 326040, Note_on_c, 1, 72, 92
1, 326138, Note_on_c, 5, 55, 0
1, 326149, Note_on_c, 1, 72, 0
1, 326160, Note_on_c, 1, 76, 95
1, 326160, Note_on_c, 2, 72, 95
1, 326269, Note_on_c, 1, 76, 0
1, 326269, Note_on_c, 2, 72, 0
1, 326280, Note_on_c, 1, 79, 98
1, 326280, Note_on_c, 2, 76, 98
1, 326389, Note_on_c, 1, 79, 0
1, 326389, Note_on_c, 2, 76, 0
1, 326400, Note_on_c, 1, 79, 103
1, 326400, Note_on_c, 2, 76, 103
1, 326400, Note_on_c, 5, 43, 103
1, 326509, Note_on_c, 1, 79, 0
1, 326509, Note_on_c, 2, 76, 0
1, 326520, Note_on_c, 1, 77, 94
1, 326520, Note_on_c, 2, 74, 94
1, 326618, Note_on_c, 5, 43, 0
1, 326629, Note_on_c, 1, 77, 0
1, 326629, Note_on_c, 2, 74, 0
1, 326640, Note_on_c, 1, 76, 87
1, 326640, Note_on_c, 2, 72, 87
1, 326749, Note_on_c, 1, 76, 0
1, 326749, Note_on_c, 2, 72, 0
1, 326760, Note_on_c, 1, 74, 85
1, 326760, Note_on_c, 2, 71, 85
1, 326869, Note_on_c, 1, 74, 0
1, 326869, Note_on_c, 2, 71, 0
1, 326880, Note_on_c, 1, 72, 82
1, 326880, Note_on_c, 5, 60, 82
1, 326960, Note_on_c, 1, 72, 0
1, 326960, Note_on_c, 5, 60, 0
1, 327000, Note_on_c, 2, 76, 84
1, 327000, Note_on_c, 4, 64, 84
1, 327080, Note_on_c, 2, 76, 0
1, 327080, Note_on_c, 4, 64, 0
1, 327120, Note_on_c, 1, 67, 86
1, 327120, Note_on_c, 5, 55, 86
1, 327200, Note_on_c, 1, 67, 0
1, 327200, Note_on_c, 5, 55, 0
1, 327240, Note_on_c, 2, 72, 87
1, 327240, Note_on_c, 4, 60, 87
1, 327320, Note_on_c, 2, 72, 0
1, 327320, Note_on_c, 4, 60, 0
1, 327360, Note_on_c, 1, 64, 89
1, 327360, Note_on_c, 5, 52, 89
1, 327440, Note_on_c, 1, 64, 0
1, 327440, Note_on_c, 5, 52, 0
1, 327480, Note_on_c, 2, 67, 91
1, 327480, Note_on_c, 4, 55, 91
1, 327560, Note_on_c, 2, 67, 0
1, 327560, Note_on_c, 4, 55, 0
1, 327600, Note_on_c, 1, 60, 92
1, 327600, Note_on_c, 5, 48, 92
1, 327680, Note_on_c, 1, 60, 0
1, 327680, Note_on_c, 5, 48, 0
1, 327720, Note_on_c, 2, 64, 94
1, 327720, Note_on_c, 4, 52, 94
1, 327800, Note_on_c, 2, 64, 0
1, 327800, Note_on_c, 4, 52, 0
1, 327840, Note_on_c, 1, 67, 96
1, 327840, Note_on_c, 5, 55, 96
1, 327920, Note_on_c, 1, 67, 0
1, 327960, Note_on_c, 1, 72, 99
1, 328030, Note_on_c, 5, 55, 0
1, 328040, Note_on_c, 1, 72, 0
1, 328080, Note_on_c, 1, 76, 102
1, 328080, Note_on_c, 2, 72, 102
1, 328160, Note_on_c, 1, 76, 0
1, 328160, Note_on_c, 2, 72, 0
1, 328200, Note_on_c, 1, 79, 106
1, 328200, Note_on_c, 2, 76, 106
1, 328280, Note_on_c, 1, 79, 0
1, 328280, Note_on_c, 2, 76, 0
1, 328320, Note_on_c, 1, 79, 110
1, 328320, Note_on_c, 2, 76, 110
1, 328320, Note_on_c, 5, 43, 110
1, 328440, Note_on_c, 1, 79, 0
1, 328440, Note_on_c, 1, 77, 103
1, 328440, Note_on_c, 2, 76, 0
1, 328440, Note_on_c, 2, 74, 103
1, 328510, Note_on_c, 5, 43, 0
1, 328520, Note_on_c, 1, 77, 0
1, 328520, Note_on_c, 2, 74, 0
1, 328560, Note_on_c, 1, 76, 96
1, 328560, Note_on_c, 2, 72, 96
1, 328640, Note_on_c, 1, 76, 0
1, 328640, Note_on_c, 2, 72, 0
1, 328680, Note_on_c, 1, 74, 93
1, 328680, Note_on_c, 2, 71, 93
1, 328760, Note_on_c, 1, 74, 0
1, 328760, Note_on_c, 2, 71, 0
1, 328800, Tempo, 508474
1, 328800, Note_on_c, 1, 72, 96
1, 328800, Note_on_c, 5, 36, 96
1, 328800, Note_on_c, 5, 48, 96
1, 328955, Note_on_c, 1, 72, 0
1, 328955, Note_on_c, 5, 48, 0
1, 328955, Note_on_c, 5, 36, 0
1, 329040, Note_on_c, 1, 84, 103
1, 329040, Note_on_c, 2, 79, 103
1, 329040, Note_on_c, 2, 76, 103
1, 329040, Note_on_c, 5, 40, 103
1, 329040, Note_on_c, 5, 52, 103
1, 329195, Note_on_c, 1, 84, 0
1, 329195, Note_on_c, 2, 76, 0
1, 329195, Note_on_c, 2, 79, 0
1, 329195, Note_on_c, 5, 52, 0
1, 329195, Note_on_c, 5, 40, 0
1, 329280, Note_on_c, 1, 72, 110
1, 329280, Note_on_c, 2, 64, 110
1, 329280, Note_on_c, 5, 55, 110
1, 329280, Note_on_c, 5, 43, 110
1, 329435, Note_on_c, 1, 72, 0
1, 329435, Note_on_c, 2, 64, 0
1, 329435, Note_on_c, 5, 43, 0
1, 329435, Note_on_c, 5, 55, 0
1, 329480, Tempo, 517241
1, 329520, Note_on_c, 1, 72, 117
1, 329520, Note_on_c, 2, 64, 117
1, 329520, Note_on_c, 5, 40, 117
1, 329520, Note_on_c, 5, 52, 117
1, 329540, Tempo, 535714
1, 329675, Note_on_c, 1, 72, 0
1, 329675, Note_on_c, 2, 64, 0
1, 329675, Note_on_c, 5, 52, 0
1, 329675, Note_on_c, 5, 40, 0
1, 329760, Tempo, 638297
1, 329760, Note_on_c, 1, 72, 116
1, 329760, Note_on_c, 2, 64, 116
1, 329760, Note_on_c, 5, 48, 116
1, 329760, Note_on_c, 5, 36, 116
1, 330240, Note_on_c, 1, 72, 0
1, 330240, Note_on_c, 2, 64, 0
1, 330240, Note_on_c, 5, 36, 0
1, 330240, Note_on_c, 5, 48, 0
1, 330250, End_track
0, 0, End_of_file