0, 0, Header, 0, 1, 480
1, 0, Start_track
1, 0, Tempo, 500000
1, 1200, Note_on_c, 0, 57, 81
1, 1200, Note_on_c, 1, 45, 75
1, 1356, Note_on_c, 0, 57, 0
1, 1356, Note_on_c, 1, 45, 0
1, 1440, Note_on_c, 0, 62, 79
1, 1440, Note_on_c, 1, 50, 75
1, 1596, Note_on_c, 0, 62, 0
1, 1596, Note_on_c, 1, 50, 0
1, 1680, Note_on_c, 0, 57, 78
1, 1680, Note_on_c, 1, 45, 74
1, 1836, Note_on_c, 0, 57, 0
1, 1836, Note_on_c, 1, 45, 0
1, 1920, Note_on_c, 0, 62, 77
1, 1920, Note_on_c, 1, 50, 74
1, 2076, Note_on_c, 0, 62, 0
1, 2076, Note_on_c, 1, 50, 0
1, 2160, Note_on_c, 0, 66, 76
1, 2160, Note_on_c, 1, 54, 73
1, 2316, Note_on_c, 0, 66, 0
1, 2316, Note_on_c, 1, 54, 0
1, 2400, Note_on_c, 0, 62, 75
1, 2400, Note_on_c, 1, 50, 73
1, 2556, Note_on_c, 0, 62, 0
1, 2556, Note_on_c, 1, 50, 0
1, 2640, Note_on_c, 0, 66, 75
1, 2640, Note_on_c, 1, 54, 72
1, 2796, Note_on_c, 0, 66, 0
1, 2796, Note_on_c, 1, 54, 0
1, 2880, Note_on_c, 0, 69, 75
1, 2880, Note_on_c, 1, 57, 73
1, 3240, Note_on_c, 0, 69, 0
1, 3240, Note_on_c, 1, 57, 0
1, 3360, Note_on_c, 0, 69, 70
1, 3360, Note_on_c, 1, 57, 70
1, 3516, Note_on_c, 0, 69, 0
1, 3516, Note_on_c, 1, 57, 0
1, 3600, Note_on_c, 0, 69, 67
1, 3600, Note_on_c, 1, 57, 69
1, 3960, Note_on_c, 0, 69, 0
1, 3960, Note_on_c, 1, 57, 0
1, 4080, Note_on_c, 0, 73, 61
1, 4080, Note_on_c, 1, 69, 60
1, 4080, Note_on_c, 1, 67, 60
1, 4120, Note_on_c, 0, 73, 0
1, 4120, Note_on_c, 0, 74, 62
1, 4160, Note_on_c, 0, 74, 0
1, 4160, Note_on_c, 0, 73, 64
1, 4200, Note_on_c, 0, 73, 0
1, 4200, Note_on_c, 0, 71, 65
1, 4260, Note_on_c, 0, 71, 0
1, 4260, Note_on_c, 0, 73, 67
1, 4320, Note_on_c, 0, 73, 0
1, 4320, Note_on_c, 0, 74, 68
1, 4320, Note_on_c, 1, 67, 0
1, 4320, Note_on_c, 1, 66, 63
1, 4560, Note_on_c, 0, 74, 0
1, 4560, Note_on_c, 1, 66, 0
1, 4560, Note_on_c, 1, 69, 0
1, 4800, Note_on_c, 0, 76, 59
1, 4800, Note_on_c, 1, 61, 61
1, 4800, Note_on_c, 1, 69, 61
1, 4840, Note_on_c, 0, 76, 0
1, 4840, Note_on_c, 0, 78, 60
1, 4880, Note_on_c, 0, 78, 0
1, 4880, Note_on_c, 0, 76, 61
1, 4920, Note_on_c, 0, 76, 0
1, 4920, Note_on_c, 0, 74, 62
1, 4980, Note_on_c, 0, 74, 0
1, 4980, Note_on_c, 0, 76, 64
1, 5040, Note_on_c, 0, 76, 0
1, 5040, Note_on_c, 0, 78, 66
1, 5040, Note_on_c, 1, 61, 0
1, 5040, Note_on_c, 1, 62, 61
1, 5280, Note_on_c, 0, 78, 0
1, 5280, Note_on_c, 1, 62, 0
1, 5280, Note_on_c, 1, 69, 0
1, 5520, Note_on_c, 0, 81, 56
1, 5520, Note_on_c, 1, 64, 58
1, 5520, Note_on_c, 1, 55, 58
1, 5640, Note_on_c, 0, 81, 0
1, 5640, Note_on_c, 0, 79, 58
1, 5760, Note_on_c, 0, 79, 0
1, 5760, Note_on_c, 0, 78, 61
1, 5760, Note_on_c, 1, 55, 0
1, 5760, Note_on_c, 1, 64, 0
1, 5760, Note_on_c, 1, 62, 60
1, 5760, Note_on_c, 1, 57, 60
1, 6480, Note_on_c, 0, 78, 0
1, 6480, Note_on_c, 0, 76, 54
1, 6480, Note_on_c, 1, 62, 0
1, 6480, Note_on_c, 1, 61, 54
1, 6720, Note_on_c, 0, 76, 0
1, 6720, Note_on_c, 1, 61, 0
1, 6720, Note_on_c, 1, 57, 0
1, 6960, Note_on_c, 0, 59, 75
1, 6960, Note_on_c, 1, 47, 73
1, 7116, Note_on_c, 0, 59, 0
1, 7116, Note_on_c, 1, 47, 0
1, 7200, Note_on_c, 0, 64, 75
1, 7200, Note_on_c, 1, 52, 73
1, 7356, Note_on_c, 0, 64, 0
1, 7356, Note_on_c, 1, 52, 0
1, 7440, Note_on_c, 0, 59, 74
1, 7440, Note_on_c, 1, 47, 72
1, 7596, Note_on_c, 0, 59, 0
1, 7596, Note_on_c, 1, 47, 0
1, 7680, Note_on_c, 0, 64, 74
1, 7680, Note_on_c, 1, 52, 72
1, 7836, Note_on_c, 0, 64, 0
1, 7836, Note_on_c, 1, 52, 0
1, 7920, Note_on_c, 0, 67, 73
1, 7920, Note_on_c, 1, 55, 71
1, 8076, Note_on_c, 0, 67, 0
1, 8076, Note_on_c, 1, 55, 0
1, 8160, Note_on_c, 0, 64, 73
1, 8160, Note_on_c, 1, 52, 70
1, 8316, Note_on_c, 0, 64, 0
1, 8316, Note_on_c, 1, 52, 0
1, 8400, Note_on_c, 0, 67, 72
1, 8400, Note_on_c, 1, 55, 70
1, 8556, Note_on_c, 0, 67, 0
1, 8556, Note_on_c, 1, 55, 0
1, 8640, Note_on_c, 0, 71, 73
1, 8640, Note_on_c, 1, 59, 69
1, 9000, Note_on_c, 0, 71, 0
1, 9000, Note_on_c, 1, 59, 0
1, 9120, Note_on_c, 0, 71, 70
1, 9120, Note_on_c, 1, 59, 68
1, 9276, Note_on_c, 0, 71, 0
1, 9276, Note_on_c, 1, 59, 0
1, 9360, Note_on_c, 0, 71, 67
1, 9360, Note_on_c, 1, 59, 68
1, 9720, Note_on_c, 0, 71, 0
1, 9720, Note_on_c, 1, 59, 0
1, 9840, Note_on_c, 0, 75, 65
1, 9840, Note_on_c, 1, 69, 60
1, 9840, Note_on_c, 1, 66, 60
1, 10032, Note_on_c, 0, 75, 0
1, 10032, Note_on_c, 1, 66, 0
1, 10032, Note_on_c, 1, 69, 0
1, 10080, Note_on_c, 0, 78, 65
1, 10080, Note_on_c, 1, 71, 62
1, 10080, Note_on_c, 1, 67, 62
1, 10200, Note_on_c, 0, 78, 0
1, 10200, Note_on_c, 0, 76, 64
1, 10320, Note_on_c, 0, 76, 0
1, 10320, Note_on_c, 0, 79, 64
1, 10440, Note_on_c, 0, 79, 0
1, 10440, Note_on_c, 0, 78, 64
1, 10560, Note_on_c, 0, 78, 0
1, 10560, Note_on_c, 0, 81, 63
1, 10560, Note_on_c, 1, 67, 0
1, 10560, Note_on_c, 1, 71, 0
1, 10680, Note_on_c, 0, 81, 0
1, 10680, Note_on_c, 0, 79, 63
1, 10800, Note_on_c, 0, 79, 0
1, 10800, Note_on_c, 0, 83, 63
1, 11040, Note_on_c, 0, 83, 0
1, 11280, Note_on_c, 0, 73, 59
1, 11280, Note_on_c, 1, 57, 56
1, 11280, Note_on_c, 1, 64, 56
1, 11472, Note_on_c, 0, 73, 0
1, 11472, Note_on_c, 1, 64, 0
1, 11472, Note_on_c, 1, 57, 0
1, 11520, Note_on_c, 0, 76, 61
1, 11520, Note_on_c, 1, 67, 58
1, 11520, Note_on_c, 1, 62, 58
1, 12240, Note_on_c, 0, 76, 0
1, 12240, Note_on_c, 0, 74, 56
1, 12240, Note_on_c, 1, 67, 0
1, 12240, Note_on_c, 1, 66, 54
1, 12480, Note_on_c, 0, 74, 0
1, 12480, Note_on_c, 1, 66, 0
1, 12480, Note_on_c, 1, 62, 0
1, 12720, Note_on_c, 1, 45, 83
1, 12876, Note_on_c, 1, 45, 0
1, 12960, Note_on_c, 1, 50, 82
1, 13116, Note_on_c, 1, 50, 0
1, 13200, Note_on_c, 0, 74, 85
1, 13200, Note_on_c, 1, 45, 82
1, 13356, Note_on_c, 0, 74, 0
1, 13356, Note_on_c, 1, 45, 0
1, 13440, Note_on_c, 0, 78, 84
1, 13440, Note_on_c, 1, 50, 81
1, 13596, Note_on_c, 0, 78, 0
1, 13596, Note_on_c, 1, 50, 0
1, 13680, Note_on_c, 0, 81, 83
1, 13680, Note_on_c, 1, 54, 81
1, 13836, Note_on_c, 0, 81, 0
1, 13836, Note_on_c, 1, 54, 0
1, 13920, Note_on_c, 0, 78, 82
1, 13920, Note_on_c, 1, 50, 80
1, 14076, Note_on_c, 0, 78, 0
1, 14076, Note_on_c, 1, 50, 0
1, 14160, Note_on_c, 0, 86, 81
1, 14160, Note_on_c, 1, 54, 79
1, 14316, Note_on_c, 0, 86, 0
1, 14316, Note_on_c, 1, 54, 0
1, 14400, Note_on_c, 1, 57, 79
1, 14520, Note_on_c, 0, 85, 79
1, 14616, Note_on_c, 0, 85, 0
1, 14640, Note_on_c, 0, 88, 79
1, 14736, Note_on_c, 0, 88, 0
1, 14760, Note_on_c, 0, 86, 78
1, 14760, Note_on_c, 1, 57, 0
1, 14856, Note_on_c, 0, 86, 0
1, 14880, Note_on_c, 0, 85, 78
1, 14880, Note_on_c, 1, 57, 78
1, 14976, Note_on_c, 0, 85, 0
1, 15000, Note_on_c, 0, 83, 77
1, 15036, Note_on_c, 1, 57, 0
1, 15096, Note_on_c, 0, 83, 0
1, 15120, Note_on_c, 0, 81, 77
1, 15120, Note_on_c, 1, 57, 77
1, 15216, Note_on_c, 0, 81, 0
1, 15240, Note_on_c, 0, 83, 76
1, 15336, Note_on_c, 0, 83, 0
1, 15360, Note_on_c, 0, 81, 76
1, 15456, Note_on_c, 0, 81, 0
1, 15480, Note_on_c, 0, 79, 75
1, 15480, Note_on_c, 1, 57, 0
1, 15576, Note_on_c, 0, 79, 0
1, 15600, Note_on_c, 0, 78, 75
1, 15600, Note_on_c, 1, 61, 71
1, 15696, Note_on_c, 0, 78, 0
1, 15720, Note_on_c, 0, 76, 75
1, 15816, Note_on_c, 0, 76, 0
1, 15840, Note_on_c, 0, 78, 74
1, 15840, Note_on_c, 1, 61, 0
1, 15840, Note_on_c, 1, 62, 73
1, 15936, Note_on_c, 0, 78, 0
1, 15960, Note_on_c, 0, 81, 74
1, 16056, Note_on_c, 0, 81, 0
1, 16080, Note_on_c, 0, 78, 73
1, 16080, Note_on_c, 1, 62, 0
1, 16176, Note_on_c, 0, 78, 0
1, 16200, Note_on_c, 0, 74, 73
1, 16296, Note_on_c, 0, 74, 0
1, 16320, Note_on_c, 0, 73, 72
1, 16320, Note_on_c, 1, 64, 71
1, 16416, Note_on_c, 0, 73, 0
1, 16440, Note_on_c, 0, 69, 72
1, 16536, Note_on_c, 0, 69, 0
1, 16560, Note_on_c, 0, 74, 71
1, 16560, Note_on_c, 1, 64, 0
1, 16560, Note_on_c, 1, 66, 72
1, 16656, Note_on_c, 0, 74, 0
1, 16680, Note_on_c, 0, 73, 71
1, 16776, Note_on_c, 0, 73, 0
1, 16800, Note_on_c, 0, 74, 70
1, 16800, Note_on_c, 1, 66, 0
1, 16896, Note_on_c, 0, 74, 0
1, 16920, Note_on_c, 0, 78, 71
1, 17016, Note_on_c, 0, 78, 0
1, 17040, Note_on_c, 0, 76, 70
1, 17040, Note_on_c, 1, 67, 67
1, 17136, Note_on_c, 0, 76, 0
1, 17160, Note_on_c, 0, 79, 68
1, 17256, Note_on_c, 0, 79, 0
1, 17280, Note_on_c, 0, 74, 66
1, 17280, Note_on_c, 1, 67, 0
1, 17280, Note_on_c, 1, 57, 70
1, 17280, Note_on_c, 1, 66, 70
1, 18000, Note_on_c, 0, 74, 0
1, 18000, Note_on_c, 0, 73, 62
1, 18000, Note_on_c, 1, 66, 0
1, 18000, Note_on_c, 1, 64, 63
1, 18240, Note_on_c, 0, 73, 0
1, 18240, Note_on_c, 1, 64, 0
1, 18240, Note_on_c, 1, 57, 0
1, 18480, Note_on_c, 1, 47, 83
1, 18636, Note_on_c, 1, 47, 0
1, 18720, Note_on_c, 1, 52, 82
1, 18876, Note_on_c, 1, 52, 0
1, 18960, Note_on_c, 0, 76, 83
1, 18960, Note_on_c, 1, 47, 80
1, 19116, Note_on_c, 0, 76, 0
1, 19116, Note_on_c, 1, 47, 0
1, 19200, Note_on_c, 0, 79, 82
1, 19200, Note_on_c, 1, 52, 79
1, 19356, Note_on_c, 0, 79, 0
1, 19356, Note_on_c, 1, 52, 0
1, 19440, Note_on_c, 0, 83, 82
1, 19440, Note_on_c, 1, 55, 78
1, 19596, Note_on_c, 0, 83, 0
1, 19596, Note_on_c, 1, 55, 0
1, 19680, Note_on_c, 0, 79, 81
1, 19680, Note_on_c, 1, 52, 76
1, 19836, Note_on_c, 0, 79, 0
1, 19836, Note_on_c, 1, 52, 0
1, 19920, Note_on_c, 0, 88, 81
1, 19920, Note_on_c, 1, 55, 75
1, 20076, Note_on_c, 0, 88, 0
1, 20076, Note_on_c, 1, 55, 0
1, 20160, Note_on_c, 1, 59, 75
1, 20280, Note_on_c, 0, 87, 80
1, 20376, Note_on_c, 0, 87, 0
1, 20400, Note_on_c, 0, 84, 79
1, 20496, Note_on_c, 0, 84, 0
1, 20520, Note_on_c, 0, 83, 79
1, 20520, Note_on_c, 1, 59, 0
1, 20616, Note_on_c, 0, 83, 0
1, 20640, Note_on_c, 0, 81, 79
1, 20640, Note_on_c, 1, 59, 71
1, 20736, Note_on_c, 0, 81, 0
1, 20760, Note_on_c, 0, 79, 78
1, 20796, Note_on_c, 1, 59, 0
1, 20856, Note_on_c, 0, 79, 0
1, 20880, Note_on_c, 0, 78, 78
1, 20880, Note_on_c, 1, 59, 71
1, 20976, Note_on_c, 0, 78, 0
1, 21000, Note_on_c, 0, 76, 78
1, 21096, Note_on_c, 0, 76, 0
1, 21120, Note_on_c, 0, 75, 77
1, 21216, Note_on_c, 0, 75, 0
1, 21240, Note_on_c, 0, 72, 77
1, 21240, Note_on_c, 1, 59, 0
1, 21336, Note_on_c, 0, 72, 0
1, 21360, Note_on_c, 0, 71, 77
1, 21360, Note_on_c, 1, 63, 68
1, 21456, Note_on_c, 0, 71, 0
1, 21480, Note_on_c, 0, 69, 77
1, 21552, Note_on_c, 1, 63, 0
1, 21576, Note_on_c, 0, 69, 0
1, 21600, Note_on_c, 0, 67, 76
1, 21600, Note_on_c, 1, 64, 70
1, 21696, Note_on_c, 0, 67, 0
1, 21720, Note_on_c, 0, 71, 76
1, 21792, Note_on_c, 1, 64, 0
1, 21816, Note_on_c, 0, 71, 0
1, 21840, Note_on_c, 0, 76, 76
1, 21936, Note_on_c, 0, 76, 0
1, 21960, Note_on_c, 0, 71, 75
1, 22056, Note_on_c, 0, 71, 0
1, 22080, Note_on_c, 0, 79, 75
1, 22176, Note_on_c, 0, 79, 0
1, 22200, Note_on_c, 0, 76, 75
1, 22296, Note_on_c, 0, 76, 0
1, 22320, Note_on_c, 0, 83, 74
1, 22512, Note_on_c, 0, 83, 0
1, 22560, Note_on_c, 0, 71, 74
1, 22752, Note_on_c, 0, 71, 0
1, 22800, Note_on_c, 0, 73, 73
1, 22800, Note_on_c, 1, 57, 60
1, 22800, Note_on_c, 1, 67, 60
1, 22992, Note_on_c, 0, 73, 0
1, 22992, Note_on_c, 1, 67, 0
1, 22992, Note_on_c, 1, 57, 0
1, 23040, Note_on_c, 0, 74, 72
1, 23040, Note_on_c, 1, 62, 65
1, 23280, Note_on_c, 1, 62, 0
1, 23280, Note_on_c, 1, 66, 64
1, 23520, Note_on_c, 0, 74, 0
1, 23520, Note_on_c, 1, 66, 0
1, 23520, Note_on_c, 1, 69, 63
1, 23760, Note_on_c, 1, 69, 0
1, 23760, Note_on_c, 1, 62, 63
1, 24000, Note_on_c, 0, 86, 77
1, 24000, Note_on_c, 1, 62, 0
1, 24000, Note_on_c, 1, 66, 62
1, 24120, Note_on_c, 0, 86, 0
1, 24120, Note_on_c, 0, 85, 76
1, 24240, Note_on_c, 0, 85, 0
1, 24240, Note_on_c, 0, 83, 76
1, 24240, Note_on_c, 1, 66, 0
1, 24240, Note_on_c, 1, 69, 62
1, 24360, Note_on_c, 0, 83, 0
1, 24360, Note_on_c, 0, 81, 75
1, 24480, Note_on_c, 0, 81, 0
1, 24480, Note_on_c, 0, 80, 75
1, 24480, Note_on_c, 1, 69, 0
1, 24480, Note_on_c, 1, 61, 61
1, 24600, Note_on_c, 0, 80, 0
1, 24600, Note_on_c, 0, 81, 74
1, 24720, Note_on_c, 0, 81, 0
1, 24720, Note_on_c, 0, 80, 74
1, 24720, Note_on_c, 1, 61, 0
1, 24720, Note_on_c, 1, 64, 60
1, 24840, Note_on_c, 0, 80, 0
1, 24840, Note_on_c, 0, 81, 73
1, 24960, Note_on_c, 0, 81, 0
1, 24960, Note_on_c, 0, 83, 73
1, 24960, Note_on_c, 1, 64, 0
1, 24960, Note_on_c, 1, 69, 60
1, 25080, Note_on_c, 0, 83, 0
1, 25080, Note_on_c, 0, 81, 72
1, 25200, Note_on_c, 0, 81, 0
1, 25200, Note_on_c, 1, 69, 0
1, 25200, Note_on_c, 1, 64, 59
1, 25440, Note_on_c, 0, 81, 71
1, 25440, Note_on_c, 1, 64, 0
1, 25440, Note_on_c, 1, 67, 59
1, 25560, Note_on_c, 0, 81, 0
1, 25560, Note_on_c, 0, 79, 70
1, 25680, Note_on_c, 0, 79, 0
1, 25680, Note_on_c, 0, 78, 70
1, 25680, Note_on_c, 1, 67, 0
1, 25680, Note_on_c, 1, 69, 58
1, 25800, Note_on_c, 0, 78, 0
1, 25800, Note_on_c, 0, 76, 69
1, 25920, Note_on_c, 0, 76, 0
1, 25920, Note_on_c, 0, 73, 69
1, 25920, Note_on_c, 1, 69, 0
1, 25920, Note_on_c, 1, 62, 59
1, 26040, Note_on_c, 0, 73, 0
1, 26040, Note_on_c, 0, 74, 68
1, 26160, Note_on_c, 0, 74, 0
1, 26160, Note_on_c, 0, 73, 68
1, 26160, Note_on_c, 1, 62, 0
1, 26160, Note_on_c, 1, 66, 58
1, 26280, Note_on_c, 0, 73, 0
1, 26280, Note_on_c, 0, 74, 67
1, 26400, Note_on_c, 0, 74, 0
1, 26400, Note_on_c, 0, 76, 66
1, 26400, Note_on_c, 1, 66, 0
1, 26400, Note_on_c, 1, 69, 57
1, 26520, Note_on_c, 0, 76, 0
1, 26520, Note_on_c, 0, 74, 66
1, 26640, Note_on_c, 0, 74, 0
1, 26640, Note_on_c, 1, 69, 0
1, 26640, Note_on_c, 1, 62, 54
1, 26880, Note_on_c, 0, 86, 59
1, 26880, Note_on_c, 1, 62, 0
1, 26880, Note_on_c, 1, 66, 51
1, 27000, Note_on_c, 0, 86, 0
1, 27000, Note_on_c, 0, 85, 59
1, 27120, Note_on_c, 0, 85, 0
1, 27120, Note_on_c, 0, 83, 58
1, 27120, Note_on_c, 1, 66, 0
1, 27120, Note_on_c, 1, 69, 51
1, 27240, Note_on_c, 0, 83, 0
1, 27240, Note_on_c, 0, 81, 58
1, 27360, Note_on_c, 0, 81, 0
1, 27360, Note_on_c, 0, 80, 58
1, 27360, Note_on_c, 1, 69, 0
1, 27360, Note_on_c, 1, 61, 50
1, 27480, Note_on_c, 0, 80, 0
1, 27480, Note_on_c, 0, 81, 57
1, 27600, Note_on_c, 0, 81, 0
1, 27600, Note_on_c, 0, 80, 57
1, 27600, Note_on_c, 1, 61, 0
1, 27600, Note_on_c, 1, 64, 49
1, 27720, Note_on_c, 0, 80, 0
1, 27720, Note_on_c, 0, 81, 57
1, 27840, Note_on_c, 0, 81, 0
1, 27840, Note_on_c, 0, 83, 56
1, 27840, Note_on_c, 1, 64, 0
1, 27840, Note_on_c, 1, 69, 48
1, 27960, Note_on_c, 0, 83, 0
1, 27960, Note_on_c, 0, 81, 56
1, 28080, Note_on_c, 0, 81, 0
1, 28080, Note_on_c, 1, 69, 0
1, 28080, Note_on_c, 1, 64, 48
1, 28320, Note_on_c, 0, 81, 55
1, 28320, Note_on_c, 1, 64, 0
1, 28320, Note_on_c, 1, 67, 47
1, 28440, Note_on_c, 0, 81, 0
1, 28440, Note_on_c, 0, 79, 55
1, 28560, Note_on_c, 0, 79, 0
1, 28560, Note_on_c, 0, 78, 54
1, 28560, Note_on_c, 1, 67, 0
1, 28560, Note_on_c, 1, 69, 46
1, 28680, Note_on_c, 0, 78, 0
1, 28680, Note_on_c, 0, 76, 54
1, 28800, Note_on_c, 0, 76, 0
1, 28800, Note_on_c, 0, 73, 54
1, 28800, Note_on_c, 1, 69, 0
1, 28800, Note_on_c, 1, 66, 58
1, 28800, Note_on_c, 1, 62, 58
1, 28896, Note_on_c, 0, 73, 0
1, 28920, Note_on_c, 0, 74, 55
1, 29016, Note_on_c, 0, 74, 0
1, 29040, Note_on_c, 0, 73, 57
1, 29136, Note_on_c, 0, 73, 0
1, 29160, Note_on_c, 0, 74, 59
1, 29256, Note_on_c, 0, 74, 0
1, 29280, Note_on_c, 0, 79, 60
1, 29280, Note_on_c, 1, 62, 0
1, 29280, Note_on_c, 1, 66, 0
1, 29376, Note_on_c, 0, 79, 0
1, 29400, Note_on_c, 0, 78, 62
1, 29496, Note_on_c, 0, 78, 0
1, 29520, Note_on_c, 0, 75, 64
1, 29520, Note_on_c, 1, 61, 66
1, 29520, Note_on_c, 1, 69, 66
1, 29616, Note_on_c, 0, 75, 0
1, 29640, Note_on_c, 0, 76, 65
1, 29736, Note_on_c, 0, 76, 0
1, 29760, Note_on_c, 0, 75, 67
1, 29856, Note_on_c, 0, 75, 0
1, 29880, Note_on_c, 0, 76, 69
1, 29976, Note_on_c, 0, 76, 0
1, 30000, Note_on_c, 0, 81, 70
1, 30000, Note_on_c, 1, 69, 0
1, 30000, Note_on_c, 1, 61, 0
1, 30096, Note_on_c, 0, 81, 0
1, 30120, Note_on_c, 0, 79, 72
1, 30216, Note_on_c, 0, 79, 0
1, 30240, Note_on_c, 0, 77, 74
1, 30240, Note_on_c, 1, 62, 73
1, 30240, Note_on_c, 1, 69, 73
1, 30336, Note_on_c, 0, 77, 0
1, 30360, Note_on_c, 0, 78, 75
1, 30456, Note_on_c, 0, 78, 0
1, 30480, Note_on_c, 0, 77, 77
1, 30576, Note_on_c, 0, 77, 0
1, 30600, Note_on_c, 0, 78, 78
1, 30696, Note_on_c, 0, 78, 0
1, 30720, Note_on_c, 0, 83, 80
1, 30720, Note_on_c, 1, 69, 0
1, 30720, Note_on_c, 1, 62, 0
1, 30816, Note_on_c, 0, 83, 0
1, 30840, Note_on_c, 0, 81, 80
1, 30936, Note_on_c, 0, 81, 0
1, 30960, Note_on_c, 0, 81, 78
1, 30960, Note_on_c, 1, 69, 79
1, 30960, Note_on_c, 1, 64, 79
1, 31056, Note_on_c, 0, 81, 0
1, 31080, Note_on_c, 0, 79, 75
1, 31152, Note_on_c, 1, 64, 0
1, 31176, Note_on_c, 0, 79, 0
1, 31200, Note_on_c, 0, 78, 73
1, 31200, Note_on_c, 1, 66, 77
1, 31296, Note_on_c, 0, 78, 0
1, 31320, Note_on_c, 0, 76, 70
1, 31392, Note_on_c, 1, 66, 0
1, 31416, Note_on_c, 0, 76, 0
1, 31440, Note_on_c, 0, 74, 67
1, 31440, Note_on_c, 1, 69, 0
1, 31440, Note_on_c, 1, 67, 74
1, 31536, Note_on_c, 0, 74, 0
1, 31560, Note_on_c, 0, 73, 65
1, 31632, Note_on_c, 1, 67, 0
1, 31656, Note_on_c, 0, 73, 0
1, 31680, Note_on_c, 0, 73, 62
1, 31680, Note_on_c, 1, 62, 71
1, 31680, Note_on_c, 1, 66, 71
1, 31776, Note_on_c, 0, 73, 0
1, 31800, Note_on_c, 0, 74, 58
1, 31896, Note_on_c, 0, 74, 0
1, 31920, Note_on_c, 0, 73, 58
1, 32016, Note_on_c, 0, 73, 0
1, 32040, Note_on_c, 0, 74, 59
1, 32136, Note_on_c, 0, 74, 0
1, 32160, Note_on_c, 0, 79, 60
1, 32160, Note_on_c, 1, 66, 0
1, 32160, Note_on_c, 1, 62, 0
1, 32256, Note_on_c, 0, 79, 0
1, 32280, Note_on_c, 0, 78, 60
1, 32376, Note_on_c, 0, 78, 0
1, 32400, Note_on_c, 0, 75, 61
1, 32400, Note_on_c, 1, 69, 59
1, 32400, Note_on_c, 1, 61, 59
1, 32496, Note_on_c, 0, 75, 0
1, 32520, Note_on_c, 0, 76, 62
1, 32616, Note_on_c, 0, 76, 0
1, 32640, Note_on_c, 0, 75, 63
1, 32736, Note_on_c, 0, 75, 0
1, 32760, Note_on_c, 0, 76, 63
1, 32856, Note_on_c, 0, 76, 0
1, 32880, Note_on_c, 0, 81, 64
1, 32880, Note_on_c, 1, 61, 0
1, 32880, Note_on_c, 1, 69, 0
1, 32976, Note_on_c, 0, 81, 0
1, 33000, Note_on_c, 0, 79, 65
1, 33096, Note_on_c, 0, 79, 0
1, 33120, Note_on_c, 0, 77, 66
1, 33120, Note_on_c, 1, 69, 63
1, 33120, Note_on_c, 1, 62, 63
1, 33216, Note_on_c, 0, 77, 0
1, 33240, Note_on_c, 0, 78, 66
1, 33336, Note_on_c, 0, 78, 0
1, 33360, Note_on_c, 0, 77, 67
1, 33456, Note_on_c, 0, 77, 0
1, 33480, Note_on_c, 0, 78, 68
1, 33576, Note_on_c, 0, 78, 0
1, 33600, Note_on_c, 0, 83, 69
1, 33600, Note_on_c, 1, 62, 0
1, 33600, Note_on_c, 1, 69, 0
1, 33696, Note_on_c, 0, 83, 0
1, 33720, Note_on_c, 0, 81, 67
1, 33816, Note_on_c, 0, 81, 0
1, 33840, Note_on_c, 0, 81, 66
1, 33840, Note_on_c, 1, 64, 71
1, 33840, Note_on_c, 1, 69, 71
1, 33936, Note_on_c, 0, 81, 0
1, 33960, Note_on_c, 0, 79, 64
1, 34032, Note_on_c, 1, 64, 0
1, 34056, Note_on_c, 0, 79, 0
1, 34080, Note_on_c, 0, 78, 63
1, 34080, Note_on_c, 1, 66, 68
1, 34176, Note_on_c, 0, 78, 0
1, 34200, Note_on_c, 0, 76, 61
1, 34272, Note_on_c, 1, 66, 0
1, 34296, Note_on_c, 0, 76, 0
1, 34320, Note_on_c, 0, 74, 60
1, 34320, Note_on_c, 1, 69, 0
1, 34320, Note_on_c, 1, 67, 66
1, 34416, Note_on_c, 0, 74, 0
1, 34440, Note_on_c, 0, 73, 58
1, 34512, Note_on_c, 1, 67, 0
1, 34536, Note_on_c, 0, 73, 0
1, 34560, Note_on_c, 1, 66, 64
1, 34560, Note_on_c, 1, 69, 64
1, 34680, Note_on_c, 0, 74, 63
1, 34776, Note_on_c, 0, 74, 0
1, 34800, Note_on_c, 0, 78, 65
1, 34896, Note_on_c, 0, 78, 0
1, 34920, Note_on_c, 0, 81, 66
1, 34974, Note_on_c, 1, 69, 0
1, 34974, Note_on_c, 1, 66, 0
1, 35016, Note_on_c, 0, 81, 0
1, 35040, Note_on_c, 0, 86, 68
1, 35040, Note_on_c, 1, 67, 70
1, 35040, Note_on_c, 1, 64, 70
1, 35136, Note_on_c, 0, 86, 0
1, 35160, Note_on_c, 0, 85, 69
1, 35166, Note_on_c, 1, 64, 0
1, 35166, Note_on_c, 1, 67, 0
1, 35256, Note_on_c, 0, 85, 0
1, 35280, Note_on_c, 1, 66, 73
1, 35280, Note_on_c, 1, 62, 73
1, 35400, Note_on_c, 0, 71, 72
1, 35496, Note_on_c, 0, 71, 0
1, 35520, Note_on_c, 0, 74, 73
1, 35616, Note_on_c, 0, 74, 0
1, 35640, Note_on_c, 0, 78, 74
1, 35694, Note_on_c, 1, 62, 0
1, 35694, Note_on_c, 1, 66, 0
1, 35736, Note_on_c, 0, 78, 0
1, 35760, Note_on_c, 0, 83, 76
1, 35760, Note_on_c, 1, 61, 78
1, 35760, Note_on_c, 1, 64, 78
1, 35856, Note_on_c, 0, 83, 0
1, 35880, Note_on_c, 0, 81, 77
1, 35886, Note_on_c, 1, 64, 0
1, 35886, Note_on_c, 1, 61, 0
1, 35976, Note_on_c, 0, 81, 0
1, 36000, Note_on_c, 1, 59, 81
1, 36000, Note_on_c, 1, 62, 81
1, 36120, Note_on_c, 0, 67, 80
1, 36216, Note_on_c, 0, 67, 0
1, 36240, Note_on_c, 0, 71, 81
1, 36336, Note_on_c, 0, 71, 0
1, 36360, Note_on_c, 0, 74, 83
1, 36414, Note_on_c, 1, 62, 0
1, 36414, Note_on_c, 1, 59, 0
1, 36456, Note_on_c, 0, 74, 0
1, 36480, Note_on_c, 0, 79, 84
1, 36480, Note_on_c, 1, 57, 87
1, 36480, Note_on_c, 1, 61, 87
1, 36576, Note_on_c, 0, 79, 0
1, 36600, Note_on_c, 0, 78, 85
1, 36606, Note_on_c, 1, 61, 0
1, 36606, Note_on_c, 1, 57, 0
1, 36696, Note_on_c, 0, 78, 0
1, 36720, Note_on_c, 1, 59, 89
1, 36720, Note_on_c, 1, 55, 89
1, 36840, Note_on_c, 0, 64, 88
1, 36936, Note_on_c, 0, 64, 0
1, 36960, Note_on_c, 0, 67, 89
1, 37056, Note_on_c, 0, 67, 0
1, 37080, Note_on_c, 0, 71, 91
1, 37134, Note_on_c, 1, 55, 0
1, 37134, Note_on_c, 1, 59, 0
1, 37176, Note_on_c, 0, 71, 0
1, 37200, Note_on_c, 0, 76, 92
1, 37200, Note_on_c, 1, 56, 95
1, 37200, Note_on_c, 1, 59, 95
1, 37296, Note_on_c, 0, 76, 0
1, 37320, Note_on_c, 0, 74, 94
1, 37326, Note_on_c, 1, 59, 0
1, 37326, Note_on_c, 1, 56, 0
1, 37416, Note_on_c, 0, 74, 0
1, 37440, Note_on_c, 0, 73, 97
1, 37440, Note_on_c, 1, 57, 92
1, 37560, Note_on_c, 1, 64, 92
1, 37624, Note_on_c, 1, 57, 0
1, 37632, Note_on_c, 0, 73, 0
1, 37656, Note_on_c, 1, 64, 0
1, 37680, Note_on_c, 0, 81, 97
1, 37680, Note_on_c, 1, 61, 92
1, 37776, Note_on_c, 1, 61, 0
1, 37800, Note_on_c, 1, 64, 92
1, 37872, Note_on_c, 0, 81, 0
1, 37896, Note_on_c, 1, 64, 0
1, 37920, Note_on_c, 0, 78, 97
1, 37920, Note_on_c, 1, 74, 97
1, 37920, Note_on_c, 1, 62, 92
1, 38016, Note_on_c, 1, 62, 0
1, 38040, Note_on_c, 1, 66, 92
1, 38112, Note_on_c, 0, 78, 0
1, 38112, Note_on_c, 1, 74, 0
1, 38136, Note_on_c, 1, 66, 0
1, 38160, Note_on_c, 0, 76, 97
1, 38160, Note_on_c, 1, 73, 97
1, 38160, Note_on_c, 1, 57, 92
1, 38280, Note_on_c, 1, 64, 92
1, 38344, Note_on_c, 1, 57, 0
1, 38352, Note_on_c, 0, 76, 0
1, 38352, Note_on_c, 1, 73, 0
1, 38376, Note_on_c, 1, 64, 0
1, 38400, Note_on_c, 0, 81, 97
1, 38400, Note_on_c, 1, 61, 92
1, 38496, Note_on_c, 1, 61, 0
1, 38520, Note_on_c, 1, 64, 92
1, 38592, Note_on_c, 0, 81, 0
1, 38616, Note_on_c, 1, 64, 0
1, 38640, Note_on_c, 0, 78, 96
1, 38640, Note_on_c, 1, 74, 96
1, 38640, Note_on_c, 1, 62, 93
1, 38736, Note_on_c, 1, 62, 0
1, 38760, Note_on_c, 1, 66, 93
1, 38832, Note_on_c, 0, 78, 0
1, 38832, Note_on_c, 1, 74, 0
1, 38856, Note_on_c, 1, 66, 0
1, 38880, Note_on_c, 0, 76, 96
1, 38880, Note_on_c, 1, 73, 96
1, 38880, Note_on_c, 1, 64, 93
1, 38880, Note_on_c, 1, 57, 93
1, 39072, Note_on_c, 0, 76, 0
1, 39072, Note_on_c, 1, 57, 0
1, 39072, Note_on_c, 1, 64, 0
1, 39072, Note_on_c, 1, 73, 0
1, 39120, Note_on_c, 0, 81, 96
1, 39312, Note_on_c, 0, 81, 0
1, 39360, Note_on_c, 0, 69, 96
1, 39360, Note_on_c, 1, 57, 88
1, 39360, Note_on_c, 1, 45, 88
1, 39552, Note_on_c, 0, 69, 0
1, 39552, Note_on_c, 1, 45, 0
1, 39552, Note_on_c, 1, 57, 0
1, 39600, Note_on_c, 0, 69, 96
1, 39600, Note_on_c, 1, 45, 86
1, 39600, Note_on_c, 1, 57, 86
1, 39960, Note_on_c, 0, 69, 0
1, 39960, Note_on_c, 1, 57, 0
1, 39960, Note_on_c, 1, 45, 0
1, 40080, Note_on_c, 0, 76, 101
1, 40236, Note_on_c, 0, 76, 0
1, 40320, Note_on_c, 0, 81, 99
1, 40320, Note_on_c, 1, 64, 97
1, 40476, Note_on_c, 0, 81, 0
1, 40476, Note_on_c, 1, 64, 0
1, 40560, Note_on_c, 0, 76, 98
1, 40560, Note_on_c, 1, 69, 96
1, 40716, Note_on_c, 0, 76, 0
1, 40716, Note_on_c, 1, 69, 0
1, 40800, Note_on_c, 0, 81, 96
1, 40800, Note_on_c, 1, 64, 94
1, 40956, Note_on_c, 0, 81, 0
1, 40956, Note_on_c, 1, 64, 0
1, 41040, Note_on_c, 0, 85, 94
1, 41040, Note_on_c, 1, 69, 92
1, 41196, Note_on_c, 0, 85, 0
1, 41196, Note_on_c, 1, 69, 0
1, 41280, Note_on_c, 0, 81, 93
1, 41280, Note_on_c, 1, 73, 91
1, 41436, Note_on_c, 0, 81, 0
1, 41436, Note_on_c, 1, 73, 0
1, 41520, Note_on_c, 0, 85, 91
1, 41520, Note_on_c, 1, 69, 89
1, 41676, Note_on_c, 0, 85, 0
1, 41676, Note_on_c, 1, 69, 0
1, 41760, Note_on_c, 0, 88, 89
1, 41760, Note_on_c, 1, 73, 87
1, 41880, Note_on_c, 0, 88, 0
1, 41880, Note_on_c, 0, 86, 88
1, 41952, Note_on_c, 1, 73, 0
1, 42000, Note_on_c, 0, 86, 0
1, 42000, Note_on_c, 0, 85, 87
1, 42000, Note_on_c, 1, 76, 86
1, 42096, Note_on_c, 1, 76, 0
1, 42120, Note_on_c, 0, 85, 0
1, 42120, Note_on_c, 0, 83, 87
1, 42120, Note_on_c, 1, 74, 85
1, 42216, Note_on_c, 1, 74, 0
1, 42240, Note_on_c, 0, 83, 0
1, 42240, Note_on_c, 0, 82, 86
1, 42240, Note_on_c, 1, 73, 84
1, 42336, Note_on_c, 1, 73, 0
1, 42360, Note_on_c, 0, 82, 0
1, 42360, Note_on_c, 0, 80, 85
1, 42360, Note_on_c, 1, 71, 83
1, 42456, Note_on_c, 1, 71, 0
1, 42480, Note_on_c, 0, 80, 0
1, 42480, Note_on_c, 0, 78, 84
1, 42480, Note_on_c, 1, 70, 82
1, 42576, Note_on_c, 1, 70, 0
1, 42600, Note_on_c, 0, 78, 0
1, 42600, Note_on_c, 0, 76, 83
1, 42600, Note_on_c, 1, 68, 82
1, 42696, Note_on_c, 1, 68, 0
1, 42720, Note_on_c, 0, 76, 0
1, 42720, Note_on_c, 0, 74, 82
1, 42720, Note_on_c, 1, 66, 81
1, 42816, Note_on_c, 1, 66, 0
1, 42840, Note_on_c, 0, 74, 0
1, 42840, Note_on_c, 0, 73, 82
1, 42840, Note_on_c, 1, 64, 80
1, 42936, Note_on_c, 1, 64, 0
1, 42960, Note_on_c, 0, 73, 0
1, 42960, Note_on_c, 0, 71, 81
1, 42960, Note_on_c, 1, 62, 79
1, 43056, Note_on_c, 1, 62, 0
1, 43080, Note_on_c, 0, 71, 0
1, 43080, Note_on_c, 0, 70, 80
1, 43080, Note_on_c, 1, 61, 78
1, 43176, Note_on_c, 1, 61, 0
1, 43200, Note_on_c, 0, 70, 0
1, 43200, Note_on_c, 0, 71, 93
1, 43200, Note_on_c, 1, 59, 77
1, 43296, Note_on_c, 1, 59, 0
1, 43320, Note_on_c, 1, 58, 77
1, 43356, Note_on_c, 0, 71, 0
1, 43416, Note_on_c, 1, 58, 0
1, 43440, Note_on_c, 0, 66, 92
1, 43440, Note_on_c, 1, 59, 91
1, 43596, Note_on_c, 0, 66, 0
1, 43596, Note_on_c, 1, 59, 0
1, 43680, Note_on_c, 0, 71, 90
1, 43680, Note_on_c, 1, 54, 89
1, 43836, Note_on_c, 0, 71, 0
1, 43836, Note_on_c, 1, 54, 0
1, 43920, Note_on_c, 0, 74, 88
1, 43920, Note_on_c, 1, 59, 86
1, 44076, Note_on_c, 0, 74, 0
1, 44076, Note_on_c, 1, 59, 0
1, 44160, Note_on_c, 0, 71, 87
1, 44160, Note_on_c, 1, 62, 83
1, 44316, Note_on_c, 0, 71, 0
1, 44316, Note_on_c, 1, 62, 0
1, 44400, Note_on_c, 0, 74, 85
1, 44400, Note_on_c, 1, 59, 81
1, 44556, Note_on_c, 0, 74, 0
1, 44556, Note_on_c, 1, 59, 0
1, 44640, Note_on_c, 0, 78, 83
1, 44640, Note_on_c, 1, 62, 79
1, 44760, Note_on_c, 0, 78, 0
1, 44760, Note_on_c, 0, 76, 82
1, 44832, Note_on_c, 1, 62, 0
1, 44880, Note_on_c, 0, 76, 0
1, 44880, Note_on_c, 0, 74, 81
1, 44880, Note_on_c, 1, 66, 78
1, 44976, Note_on_c, 1, 66, 0
1, 45000, Note_on_c, 0, 74, 0
1, 45000, Note_on_c, 0, 73, 81
1, 45000, Note_on_c, 1, 64, 77
1, 45096, Note_on_c, 1, 64, 0
1, 45120, Note_on_c, 0, 73, 0
1, 45120, Note_on_c, 0, 71, 80
1, 45120, Note_on_c, 1, 62, 76
1, 45216, Note_on_c, 1, 62, 0
1, 45240, Note_on_c, 0, 71, 0
1, 45240, Note_on_c, 0, 70, 79
1, 45240, Note_on_c, 1, 61, 75
1, 45336, Note_on_c, 1, 61, 0
1, 45360, Note_on_c, 0, 70, 0
1, 45360, Note_on_c, 0, 74, 78
1, 45360, Note_on_c, 1, 59, 74
1, 45456, Note_on_c, 1, 59, 0
1, 45480, Note_on_c, 0, 74, 0
1, 45480, Note_on_c, 0, 73, 77
1, 45480, Note_on_c, 1, 58, 74
1, 45576, Note_on_c, 1, 58, 0
1, 45600, Note_on_c, 0, 73, 0
1, 45600, Note_on_c, 0, 71, 76
1, 45600, Note_on_c, 1, 62, 73
1, 45696, Note_on_c, 1, 62, 0
1, 45720, Note_on_c, 0, 71, 0
1, 45720, Note_on_c, 0, 69, 76
1, 45720, Note_on_c, 1, 61, 72
1, 45816, Note_on_c, 1, 61, 0
1, 45840, Note_on_c, 0, 69, 0
1, 45840, Note_on_c, 0, 68, 75
1, 45840, Note_on_c, 1, 59, 71
1, 45936, Note_on_c, 1, 59, 0
1, 45960, Note_on_c, 0, 68, 0
1, 45960, Note_on_c, 0, 66, 74
1, 45960, Note_on_c, 1, 57, 71
1, 46056, Note_on_c, 1, 57, 0
1, 46080, Note_on_c, 0, 66, 0
1, 46080, Note_on_c, 0, 64, 89
1, 46080, Note_on_c, 1, 56, 70
1, 46176, Note_on_c, 1, 56, 0
1, 46200, Note_on_c, 1, 54, 69
1, 46236, Note_on_c, 0, 64, 0
1, 46296, Note_on_c, 1, 54, 0
1, 46320, Note_on_c, 0, 59, 88
1, 46320, Note_on_c, 1, 52, 82
1, 46476, Note_on_c, 0, 59, 0
1, 46476, Note_on_c, 1, 52, 0
1, 46560, Note_on_c, 0, 64, 87
1, 46560, Note_on_c, 1, 47, 82
1, 46716, Note_on_c, 0, 64, 0
1, 46716, Note_on_c, 1, 47, 0
1, 46800, Note_on_c, 0, 68, 85
1, 46800, Note_on_c, 1, 52, 80
1, 46956, Note_on_c, 0, 68, 0
1, 46956, Note_on_c, 1, 52, 0
1, 47040, Note_on_c, 0, 64, 84
1, 47040, Note_on_c, 1, 56, 78
1, 47196, Note_on_c, 0, 64, 0
1, 47196, Note_on_c, 1, 56, 0
1, 47280, Note_on_c, 0, 68, 83
1, 47280, Note_on_c, 1, 52, 76
1, 47436, Note_on_c, 0, 68, 0
1, 47436, Note_on_c, 1, 52, 0
1, 47520, Note_on_c, 0, 71, 81
1, 47520, Note_on_c, 1, 56, 74
1, 47640, Note_on_c, 0, 71, 0
1, 47640, Note_on_c, 0, 73, 81
1, 47712, Note_on_c, 1, 56, 0
1, 47760, Note_on_c, 0, 73, 0
1, 47760, Note_on_c, 0, 74, 80
1, 47760, Note_on_c, 1, 59, 72
1, 47856, Note_on_c, 1, 59, 0
1, 47880, Note_on_c, 0, 74, 0
1, 47880, Note_on_c, 0, 73, 80
1, 47880, Note_on_c, 1, 61, 71
1, 47976, Note_on_c, 1, 61, 0
1, 48000, Note_on_c, 0, 73, 0
1, 48000, Note_on_c, 0, 71, 79
1, 48000, Note_on_c, 1, 62, 71
1, 48096, Note_on_c, 1, 62, 0
1, 48120, Note_on_c, 0, 71, 0
1, 48120, Note_on_c, 0, 69, 78
1, 48120, Note_on_c, 1, 61, 70
1, 48216, Note_on_c, 1, 61, 0
1, 48240, Note_on_c, 0, 69, 0
1, 48240, Note_on_c, 0, 68, 78
1, 48240, Note_on_c, 1, 59, 69
1, 48336, Note_on_c, 1, 59, 0
1, 48360, Note_on_c, 0, 68, 0
1, 48360, Note_on_c, 0, 66, 77
1, 48360, Note_on_c, 1, 57, 68
1, 48456, Note_on_c, 1, 57, 0
1, 48480, Note_on_c, 0, 66, 0
1, 48480, Note_on_c, 0, 64, 76
1, 48480, Note_on_c, 1, 56, 67
1, 48576, Note_on_c, 1, 56, 0
1, 48600, Note_on_c, 0, 64, 0
1, 48600, Note_on_c, 0, 66, 76
1, 48600, Note_on_c, 1, 54, 66
1, 48696, Note_on_c, 1, 54, 0
1, 48720, Note_on_c, 0, 66, 0
1, 48720, Note_on_c, 0, 62, 75
1, 48720, Note_on_c, 1, 56, 65
1, 48816, Note_on_c, 1, 56, 0
1, 48840, Note_on_c, 0, 62, 0
1, 48840, Note_on_c, 0, 64, 74
1, 48840, Note_on_c, 1, 52, 64
1, 48936, Note_on_c, 1, 52, 0
1, 48960, Note_on_c, 0, 64, 0
1, 48960, Note_on_c, 0, 61, 74
1, 48960, Note_on_c, 1, 57, 68
1, 49080, Note_on_c, 0, 61, 0
1, 49080, Note_on_c, 0, 64, 75
1, 49200, Note_on_c, 0, 64, 0
1, 49200, Note_on_c, 0, 63, 75
1, 49320, Note_on_c, 0, 63, 0
1, 49320, Note_on_c, 0, 64, 76
1, 49440, Note_on_c, 0, 64, 0
1, 49440, Note_on_c, 0, 66, 77
1, 49440, Note_on_c, 1, 57, 0
1, 49560, Note_on_c, 0, 66, 0
1, 49560, Note_on_c, 0, 64, 78
1, 49680, Note_on_c, 0, 64, 0
1, 49680, Note_on_c, 0, 69, 79
1, 49680, Note_on_c, 1, 57, 75
1, 49680, Note_on_c, 1, 61, 75
1, 49800, Note_on_c, 0, 69, 0
1, 49800, Note_on_c, 0, 64, 80
1, 49920, Note_on_c, 0, 64, 0
1, 49920, Note_on_c, 0, 63, 81
1, 50040, Note_on_c, 0, 63, 0
1, 50040, Note_on_c, 0, 64, 81
1, 50160, Note_on_c, 0, 64, 0
1, 50160, Note_on_c, 0, 66, 82
1, 50160, Note_on_c, 1, 61, 0
1, 50160, Note_on_c, 1, 57, 0
1, 50280, Note_on_c, 0, 66, 0
1, 50280, Note_on_c, 0, 64, 83
1, 50400, Note_on_c, 0, 64, 0
1, 50400, Note_on_c, 0, 59, 86
1, 50400, Note_on_c, 1, 56, 89
1, 50520, Note_on_c, 0, 59, 0
1, 50520, Note_on_c, 0, 64, 85
1, 50640, Note_on_c, 0, 64, 0
1, 50640, Note_on_c, 0, 63, 84
1, 50760, Note_on_c, 0, 63, 0
1, 50760, Note_on_c, 0, 64, 83
1, 50880, Note_on_c, 0, 64, 0
1, 50880, Note_on_c, 0, 61, 82
1, 50880, Note_on_c, 1, 56, 0
1, 50880, Note_on_c, 1, 57, 82
1, 51000, Note_on_c, 0, 61, 0
1, 51000, Note_on_c, 0, 64, 81
1, 51072, Note_on_c, 1, 57, 0
1, 51120, Note_on_c, 0, 64, 0
1, 51120, Note_on_c, 0, 62, 80
1, 51120, Note_on_c, 1, 59, 77
1, 51240, Note_on_c, 0, 62, 0
1, 51240, Note_on_c, 0, 64, 79
1, 51312, Note_on_c, 1, 59, 0
1, 51360, Note_on_c, 0, 64, 0
1, 51360, Note_on_c, 0, 61, 78
1, 51360, Note_on_c, 1, 57, 73
1, 51480, Note_on_c, 0, 61, 0
1, 51480, Note_on_c, 0, 64, 77
1, 51552, Note_on_c, 1, 57, 0
1, 51600, Note_on_c, 0, 64, 0
1, 51600, Note_on_c, 0, 59, 76
1, 51600, Note_on_c, 1, 56, 69
1, 51720, Note_on_c, 0, 59, 0
1, 51720, Note_on_c, 0, 64, 75
1, 51792, Note_on_c, 1, 56, 0
1, 51840, Note_on_c, 0, 64, 0
1, 51840, Note_on_c, 0, 61, 60
1, 51840, Note_on_c, 1, 57, 60
1, 51960, Note_on_c, 0, 61, 0
1, 51960, Note_on_c, 0, 64, 61
1, 52080, Note_on_c, 0, 64, 0
1, 52080, Note_on_c, 0, 63, 61
1, 52200, Note_on_c, 0, 63, 0
1, 52200, Note_on_c, 0, 64, 62
1, 52320, Note_on_c, 0, 64, 0
1, 52320, Note_on_c, 0, 66, 63
1, 52320, Note_on_c, 1, 57, 0
1, 52440, Note_on_c, 0, 66, 0
1, 52440, Note_on_c, 0, 64, 64
1, 52560, Note_on_c, 0, 64, 0
1, 52560, Note_on_c, 0, 69, 64
1, 52560, Note_on_c, 1, 61, 65
1, 52560, Note_on_c, 1, 57, 65
1, 52680, Note_on_c, 0, 69, 0
1, 52680, Note_on_c, 0, 64, 65
1, 52800, Note_on_c, 0, 64, 0
1, 52800, Note_on_c, 0, 63, 66
1, 52920, Note_on_c, 0, 63, 0
1, 52920, Note_on_c, 0, 64, 67
1, 53040, Note_on_c, 0, 64, 0
1, 53040, Note_on_c, 0, 66, 67
1, 53040, Note_on_c, 1, 57, 0
1, 53040, Note_on_c, 1, 61, 0
1, 53160, Note_on_c, 0, 66, 0
1, 53160, Note_on_c, 0, 64, 68
1, 53280, Note_on_c, 0, 64, 0
1, 53280, Note_on_c, 0, 59, 69
1, 53280, Note_on_c, 1, 56, 73
1, 53400, Note_on_c, 0, 59, 0
1, 53400, Note_on_c, 0, 64, 70
1, 53520, Note_on_c, 0, 64, 0
1, 53520, Note_on_c, 0, 63, 73
1, 53640, Note_on_c, 0, 63, 0
1, 53640, Note_on_c, 0, 64, 71
1, 53760, Note_on_c, 0, 64, 0
1, 53760, Note_on_c, 0, 61, 69
1, 53760, Note_on_c, 1, 56, 0
1, 53760, Note_on_c, 1, 57, 68
1, 53880, Note_on_c, 0, 61, 0
1, 53880, Note_on_c, 0, 64, 68
1, 53952, Note_on_c, 1, 57, 0
1, 54000, Note_on_c, 0, 64, 0
1, 54000, Note_on_c, 0, 62, 66
1, 54000, Note_on_c, 1, 59, 65
1, 54120, Note_on_c, 0, 62, 0
1, 54120, Note_on_c, 0, 64, 64
1, 54192, Note_on_c, 1, 59, 0
1, 54240, Note_on_c, 0, 64, 0
1, 54240, Note_on_c, 0, 61, 63
1, 54240, Note_on_c, 1, 57, 63
1, 54360, Note_on_c, 0, 61, 0
1, 54360, Note_on_c, 0, 64, 61
1, 54432, Note_on_c, 1, 57, 0
1, 54480, Note_on_c, 0, 64, 0
1, 54480, Note_on_c, 0, 59, 59
1, 54480, Note_on_c, 1, 56, 60
1, 54600, Note_on_c, 0, 59, 0
1, 54600, Note_on_c, 0, 64, 58
1, 54672, Note_on_c, 1, 56, 0
1, 54720, Note_on_c, 0, 64, 0
1, 54720, Note_on_c, 1, 57, 57
1, 54840, Note_on_c, 0, 61, 63
1, 54960, Note_on_c, 0, 61, 0
1, 54960, Note_on_c, 0, 64, 64
1, 55080, Note_on_c, 0, 64, 0
1, 55080, Note_on_c, 0, 69, 65
1, 55200, Note_on_c, 0, 69, 0
1, 55200, Note_on_c, 0, 73, 67
1, 55200, Note_on_c, 1, 57, 0
1, 55320, Note_on_c, 0, 73, 0
1, 55320, Note_on_c, 0, 76, 68
1, 55440, Note_on_c, 0, 76, 0
1, 55440, Note_on_c, 0, 81, 70
1, 55440, Note_on_c, 1, 57, 67
1, 55440, Note_on_c, 1, 61, 67
1, 55560, Note_on_c, 0, 81, 0
1, 55560, Note_on_c, 0, 80, 71
1, 55680, Note_on_c, 0, 80, 0
1, 55680, Note_on_c, 0, 78, 72
1, 55680, Note_on_c, 1, 61, 0
1, 55680, Note_on_c, 1, 57, 0
1, 55680, Note_on_c, 1, 62, 71
1, 55680, Note_on_c, 1, 59, 71
1, 55800, Note_on_c, 0, 78, 0
1, 55800, Note_on_c, 0, 76, 74
1, 55920, Note_on_c, 0, 76, 0
1, 55920, Note_on_c, 0, 74, 75
1, 55920, Note_on_c, 1, 59, 0
1, 55920, Note_on_c, 1, 62, 0
1, 55920, Note_on_c, 1, 61, 74
1, 55920, Note_on_c, 1, 64, 74
1, 56040, Note_on_c, 0, 74, 0
1, 56040, Note_on_c, 0, 73, 77
1, 56160, Note_on_c, 0, 73, 0
1, 56160, Note_on_c, 1, 64, 0
1, 56160, Note_on_c, 1, 61, 0
1, 56160, Note_on_c, 1, 66, 77
1, 56160, Note_on_c, 1, 62, 77
1, 56280, Note_on_c, 0, 70, 79
1, 56400, Note_on_c, 0, 70, 0
1, 56400, Note_on_c, 0, 71, 81
1, 56520, Note_on_c, 0, 71, 0
1, 56520, Note_on_c, 0, 73, 82
1, 56640, Note_on_c, 0, 73, 0
1, 56640, Note_on_c, 0, 74, 84
1, 56640, Note_on_c, 1, 62, 0
1, 56640, Note_on_c, 1, 66, 0
1, 56760, Note_on_c, 0, 74, 0
1, 56760, Note_on_c, 0, 76, 85
1, 56880, Note_on_c, 0, 76, 0
1, 56880, Note_on_c, 0, 78, 86
1, 56880, Note_on_c, 1, 59, 83
1, 56880, Note_on_c, 1, 62, 83
1, 57000, Note_on_c, 0, 78, 0
1, 57000, Note_on_c, 0, 76, 88
1, 57120, Note_on_c, 0, 76, 0
1, 57120, Note_on_c, 0, 74, 89
1, 57120, Note_on_c, 1, 62, 0
1, 57120, Note_on_c, 1, 59, 0
1, 57120, Note_on_c, 1, 61, 87
1, 57120, Note_on_c, 1, 64, 87
1, 57240, Note_on_c, 0, 74, 0
1, 57240, Note_on_c, 0, 73, 91
1, 57360, Note_on_c, 0, 73, 0
1, 57360, Note_on_c, 0, 71, 88
1, 57360, Note_on_c, 1, 64, 0
1, 57360, Note_on_c, 1, 61, 0
1, 57360, Note_on_c, 1, 62, 91
1, 57360, Note_on_c, 1, 66, 91
1, 57480, Note_on_c, 0, 71, 0
1, 57480, Note_on_c, 0, 69, 89
1, 57600, Note_on_c, 0, 69, 0
1, 57600, Note_on_c, 0, 64, 87
1, 57600, Note_on_c, 1, 66, 0
1, 57600, Note_on_c, 1, 62, 0
1, 57600, Note_on_c, 1, 52, 97
1, 57720, Note_on_c, 0, 64, 0
1, 57720, Note_on_c, 0, 73, 87
1, 57840, Note_on_c, 0, 73, 0
1, 57840, Note_on_c, 0, 69, 87
1, 57840, Note_on_c, 1, 57, 90
1, 57840, Note_on_c, 1, 61, 90
1, 57960, Note_on_c, 0, 69, 0
1, 57960, Note_on_c, 0, 76, 87
1, 58032, Note_on_c, 1, 61, 0
1, 58032, Note_on_c, 1, 57, 0
1, 58080, Note_on_c, 0, 76, 0
1, 58080, Note_on_c, 0, 73, 87
1, 58080, Note_on_c, 1, 57, 90
1, 58080, Note_on_c, 1, 61, 90
1, 58200, Note_on_c, 0, 73, 0
1, 58200, Note_on_c, 0, 81, 87
1, 58272, Note_on_c, 1, 61, 0
1, 58272, Note_on_c, 1, 57, 0
1, 58320, Note_on_c, 0, 81, 0
1, 58320, Note_on_c, 0, 71, 87
1, 58320, Note_on_c, 1, 52, 0
1, 58320, Note_on_c, 1, 52, 96
1, 58400, Note_on_c, 0, 71, 0
1, 58400, Note_on_c, 0, 73, 87
1, 58480, Note_on_c, 0, 73, 0
1, 58480, Note_on_c, 0, 71, 87
1, 58560, Note_on_c, 0, 71, 0
1, 58560, Note_on_c, 0, 73, 87
1, 58560, Note_on_c, 1, 56, 90
1, 58560, Note_on_c, 1, 62, 90
1, 58640, Note_on_c, 0, 73, 0
1, 58640, Note_on_c, 0, 71, 87
1, 58720, Note_on_c, 0, 71, 0
1, 58720, Note_on_c, 0, 73, 86
1, 58752, Note_on_c, 1, 62, 0
1, 58752, Note_on_c, 1, 56, 0
1, 58800, Note_on_c, 0, 73, 0
1, 58800, Note_on_c, 0, 69, 86
1, 58800, Note_on_c, 1, 56, 91
1, 58800, Note_on_c, 1, 62, 91
1, 58920, Note_on_c, 0, 69, 0
1, 58920, Note_on_c, 0, 71, 86
1, 58992, Note_on_c, 1, 62, 0
1, 58992, Note_on_c, 1, 56, 0
1, 59040, Note_on_c, 0, 71, 0
1, 59040, Note_on_c, 0, 69, 86
1, 59040, Note_on_c, 1, 52, 0
1, 59040, Note_on_c, 1, 57, 91
1, 59040, Note_on_c, 1, 61, 91
1, 59196, Note_on_c, 0, 69, 0
1, 59196, Note_on_c, 1, 61, 0
1, 59232, Note_on_c, 1, 57, 0
1, 59280, Note_on_c, 0, 57, 87
1, 59280, Note_on_c, 1, 45, 86
1, 59437, Note_on_c, 0, 57, 0
1, 59437, Note_on_c, 1, 45, 0
1, 59520, Note_on_c, 0, 57, 85
1, 59520, Note_on_c, 1, 45, 80
1, 59677, Note_on_c, 0, 57, 0
1, 59677, Note_on_c, 1, 45, 0
1, 59760, Note_on_c, 0, 57, 82
1, 59760, Note_on_c, 1, 45, 75
1, 60000, Note_on_c, 0, 57, 0
1, 60000, Note_on_c, 1, 45, 0
1, 60240, Note_on_c, 0, 73, 61
1, 60480, Note_on_c, 0, 73, 0
1, 60480, Note_on_c, 0, 74, 63
1, 60960, Note_on_c, 0, 74, 0
1, 60960, Note_on_c, 0, 76, 67
1, 61200, Note_on_c, 0, 76, 0
1, 61200, Note_on_c, 0, 78, 73
1, 61440, Note_on_c, 0, 78, 0
1, 61440, Note_on_c, 0, 76, 73
1, 61560, Note_on_c, 0, 76, 0
1, 61560, Note_on_c, 0, 74, 72
1, 61680, Note_on_c, 0, 74, 0
1, 61680, Note_on_c, 0, 73, 72
1, 61800, Note_on_c, 0, 73, 0
1, 61800, Note_on_c, 0, 71, 71
1, 61920, Note_on_c, 0, 71, 0
1, 61920, Note_on_c, 0, 69, 71
1, 61920, Note_on_c, 1, 52, 65
1, 61920, Note_on_c, 1, 62, 65
1, 61920, Note_on_c, 1, 59, 65
1, 62640, Note_on_c, 0, 69, 0
1, 62640, Note_on_c, 0, 68, 65
1, 63000, Note_on_c, 0, 68, 0
1, 63000, Note_on_c, 1, 59, 0
1, 63000, Note_on_c, 1, 62, 0
1, 63000, Note_on_c, 1, 52, 0
1, 63120, Note_on_c, 0, 66, 64
1, 63120, Note_on_c, 1, 50, 54
1, 63120, Note_on_c, 1, 56, 54
1, 63312, Note_on_c, 0, 66, 0
1, 63312, Note_on_c, 1, 56, 0
1, 63312, Note_on_c, 1, 50, 0
1, 63360, Note_on_c, 0, 66, 65
1, 63360, Note_on_c, 1, 49, 55
1, 63360, Note_on_c, 1, 57, 55
1, 63600, Note_on_c, 0, 66, 0
1, 63600, Note_on_c, 0, 64, 65
1, 63792, Note_on_c, 0, 64, 0
1, 63840, Note_on_c, 0, 64, 64
1, 63840, Note_on_c, 1, 57, 0
1, 63840, Note_on_c, 1, 49, 0
1, 64032, Note_on_c, 0, 64, 0
1, 64080, Note_on_c, 0, 64, 63
1, 64320, Note_on_c, 0, 64, 0
1, 64320, Note_on_c, 0, 69, 62
1, 64320, Note_on_c, 1, 49, 62
1, 64512, Note_on_c, 0, 69, 0
1, 64560, Note_on_c, 0, 73, 59
1, 64560, Note_on_c, 1, 49, 0
1, 64560, Note_on_c, 1, 69, 57
1, 64560, Note_on_c, 1, 45, 57
1, 64752, Note_on_c, 0, 73, 0
1, 64752, Note_on_c, 1, 69, 0
1, 64800, Note_on_c, 0, 73, 60
1, 64800, Note_on_c, 1, 45, 0
1, 64800, Note_on_c, 1, 69, 60
1, 64800, Note_on_c, 1, 52, 52
1, 65280, Note_on_c, 0, 73, 0
1, 65280, Note_on_c, 0, 74, 58
1, 65520, Note_on_c, 0, 74, 0
1, 65520, Note_on_c, 0, 71, 58
1, 65520, Note_on_c, 1, 69, 0
1, 65520, Note_on_c, 1, 68, 58
1, 65760, Note_on_c, 0, 71, 0
1, 65760, Note_on_c, 1, 68, 0
1, 65760, Note_on_c, 1, 52, 0
1, 66000, Note_on_c, 0, 73, 56
1, 66240, Note_on_c, 0, 73, 0
1, 66240, Note_on_c, 0, 74, 61
1, 66480, Note_on_c, 0, 74, 0
1, 66480, Note_on_c, 0, 74, 63
1, 66600, Note_on_c, 0, 74, 0
1, 66600, Note_on_c, 0, 73, 64
1, 66720, Note_on_c, 0, 73, 0
1, 66720, Note_on_c, 0, 76, 65
1, 66840, Note_on_c, 0, 76, 0
1, 66840, Note_on_c, 0, 74, 66
1, 66960, Note_on_c, 0, 74, 0
1, 66960, Note_on_c, 0, 78, 68
1, 67080, Note_on_c, 0, 78, 0
1, 67080, Note_on_c, 0, 76, 69
1, 67200, Note_on_c, 0, 76, 0
1, 67200, Note_on_c, 0, 74, 68
1, 67320, Note_on_c, 0, 74, 0
1, 67320, Note_on_c, 0, 73, 67
1, 67440, Note_on_c, 0, 73, 0
1, 67440, Note_on_c, 0, 74, 65
1, 67560, Note_on_c, 0, 74, 0
1, 67560, Note_on_c, 0, 71, 64
1, 67680, Note_on_c, 0, 71, 0
1, 67680, Note_on_c, 0, 69, 63
1, 67680, Note_on_c, 1, 52, 63
1, 67680, Note_on_c, 1, 59, 63
1, 67680, Note_on_c, 1, 62, 63
1, 67800, Note_on_c, 0, 69, 0
1, 67800, Note_on_c, 0, 68, 62
1, 67920, Note_on_c, 0, 68, 0
1, 67920, Note_on_c, 0, 71, 60
1, 68040, Note_on_c, 0, 71, 0
1, 68040, Note_on_c, 0, 69, 61
1, 68160, Note_on_c, 0, 69, 0
1, 68160, Note_on_c, 0, 73, 62
1, 68280, Note_on_c, 0, 73, 0
1, 68280, Note_on_c, 0, 71, 62
1, 68400, Note_on_c, 0, 71, 0
1, 68400, Note_on_c, 0, 74, 62
1, 68520, Note_on_c, 0, 74, 0
1, 68520, Note_on_c, 0, 73, 63
1, 68640, Note_on_c, 0, 73, 0
1, 68640, Note_on_c, 0, 76, 63
1, 68760, Note_on_c, 0, 76, 0
1, 68760, Note_on_c, 0, 74, 63
1, 68760, Note_on_c, 1, 62, 0
1, 68760, Note_on_c, 1, 59, 0
1, 68760, Note_on_c, 1, 52, 0
1, 68880, Note_on_c, 0, 74, 0
1, 68880, Note_on_c, 0, 78, 64
1, 68880, Note_on_c, 1, 62, 60
1, 68880, Note_on_c, 1, 68, 60
1, 69000, Note_on_c, 0, 78, 0
1, 69000, Note_on_c, 0, 76, 64
1, 69072, Note_on_c, 1, 68, 0
1, 69072, Note_on_c, 1, 62, 0
1, 69120, Note_on_c, 0, 76, 0
1, 69120, Note_on_c, 0, 76, 64
1, 69120, Note_on_c, 1, 61, 65
1, 69120, Note_on_c, 1, 69, 65
1, 69240, Note_on_c, 0, 76, 0
1, 69240, Note_on_c, 0, 81, 65
1, 69312, Note_on_c, 1, 69, 0
1, 69312, Note_on_c, 1, 61, 0
1, 69360, Note_on_c, 0, 81, 0
1, 69360, Note_on_c, 0, 80, 66
1, 69480, Note_on_c, 0, 80, 0
1, 69480, Note_on_c, 0, 79, 68
1, 69600, Note_on_c, 0, 79, 0
1, 69600, Note_on_c, 0, 78, 70
1, 69600, Note_on_c, 1, 62, 69
1, 69600, Note_on_c, 1, 69, 69
1, 69720, Note_on_c, 0, 78, 0
1, 69720, Note_on_c, 0, 77, 71
1, 69792, Note_on_c, 1, 69, 0
1, 69792, Note_on_c, 1, 62, 0
1, 69840, Note_on_c, 0, 77, 0
1, 69840, Note_on_c, 0, 76, 73
1, 69840, Note_on_c, 1, 61, 71
1, 69840, Note_on_c, 1, 69, 71
1, 69960, Note_on_c, 0, 76, 0
1, 69960, Note_on_c, 0, 81, 74
1, 70032, Note_on_c, 1, 69, 0
1, 70032, Note_on_c, 1, 61, 0
1, 70080, Note_on_c, 0, 81, 0
1, 70080, Note_on_c, 0, 80, 76
1, 70200, Note_on_c, 0, 80, 0
1, 70200, Note_on_c, 0, 79, 77
1, 70320, Note_on_c, 0, 79, 0
1, 70320, Note_on_c, 0, 78, 79
1, 70320, Note_on_c, 1, 62, 75
1, 70320, Note_on_c, 1, 69, 75
1, 70440, Note_on_c, 0, 78, 0
1, 70440, Note_on_c, 0, 77, 80
1, 70512, Note_on_c, 1, 69, 0
1, 70512, Note_on_c, 1, 62, 0
1, 70560, Note_on_c, 0, 77, 0
1, 70560, Note_on_c, 0, 76, 82
1, 70560, Note_on_c, 1, 61, 77
1, 70560, Note_on_c, 1, 69, 77
1, 71280, Note_on_c, 0, 76, 0
1, 71280, Note_on_c, 0, 77, 88
1, 71280, Note_on_c, 1, 69, 0
1, 71280, Note_on_c, 1, 71, 83
1, 71280, Note_on_c, 1, 68, 83
1, 72000, Note_on_c, 0, 77, 0
1, 72000, Note_on_c, 0, 78, 78
1, 72000, Note_on_c, 1, 68, 0
1, 72000, Note_on_c, 1, 71, 0
1, 72000, Note_on_c, 1, 61, 0
1, 72000, Note_on_c, 1, 66, 68
1, 72000, Note_on_c, 1, 62, 68
1, 72000, Note_on_c, 1, 69, 68
1, 72240, Note_on_c, 0, 78, 0
1, 72360, Note_on_c, 1, 69, 0
1, 72360, Note_on_c, 1, 62, 0
1, 72360, Note_on_c, 1, 66, 0
1, 72480, Note_on_c, 0, 78, 77
1, 72600, Note_on_c, 0, 78, 0
1, 72600, Note_on_c, 0, 80, 76
1, 72720, Note_on_c, 0, 80, 0
1, 72720, Note_on_c, 0, 81, 76
1, 72840, Note_on_c, 0, 81, 0
1, 72840, Note_on_c, 0, 77, 75
1, 72960, Note_on_c, 0, 77, 0
1, 72960, Note_on_c, 0, 78, 75
1, 73080, Note_on_c, 0, 78, 0
1, 73080, Note_on_c, 0, 73, 74
1, 73200, Note_on_c, 0, 73, 0
1, 73200, Note_on_c, 0, 74, 73
1, 73320, Note_on_c, 0, 74, 0
1, 73320, Note_on_c, 0, 71, 73
1, 73440, Note_on_c, 0, 71, 0
1, 73440, Note_on_c, 0, 69, 72
1, 73920, Note_on_c, 1, 52, 69
1, 73920, Note_on_c, 1, 61, 69
1, 74160, Note_on_c, 1, 61, 0
1, 74160, Note_on_c, 1, 52, 0
1, 74160, Note_on_c, 1, 62, 67
1, 74160, Note_on_c, 1, 53, 67
1, 74640, Note_on_c, 1, 53, 0
1, 74640, Note_on_c, 1, 62, 0
1, 74640, Note_on_c, 1, 63, 63
1, 74640, Note_on_c, 1, 54, 63
1, 74880, Note_on_c, 0, 69, 0
1, 74880, Note_on_c, 0, 73, 65
1, 74880, Note_on_c, 1, 54, 0
1, 74880, Note_on_c, 1, 63, 0
1, 74880, Note_on_c, 1, 69, 65
1, 74880, Note_on_c, 1, 64, 62
1, 74880, Note_on_c, 1, 52, 62
1, 75600, Note_on_c, 0, 73, 0
1, 75600, Note_on_c, 0, 73, 63
1, 75600, Note_on_c, 1, 64, 0
1, 75600, Note_on_c, 1, 69, 0
1, 75600, Note_on_c, 1, 68, 63
1, 75600, Note_on_c, 1, 62, 56
1, 75720, Note_on_c, 0, 73, 0
1, 75720, Note_on_c, 0, 71, 62
1, 75840, Note_on_c, 0, 71, 0
1, 75840, Note_on_c, 0, 69, 61
1, 75960, Note_on_c, 0, 69, 0
1, 76080, Note_on_c, 0, 71, 58
1, 76200, Note_on_c, 0, 71, 0
1, 76320, Note_on_c, 0, 69, 56
1, 76320, Note_on_c, 1, 62, 0
1, 76320, Note_on_c, 1, 68, 0
1, 76320, Note_on_c, 1, 52, 0
1, 76320, Note_on_c, 1, 57, 71
1, 76560, Note_on_c, 0, 69, 0
1, 76560, Note_on_c, 1, 57, 0
1, 76560, Note_on_c, 1, 61, 71
1, 76800, Note_on_c, 0, 75, 81
1, 76800, Note_on_c, 1, 61, 0
1, 76800, Note_on_c, 1, 64, 70
1, 76920, Note_on_c, 0, 75, 0
1, 76920, Note_on_c, 0, 76, 80
1, 77040, Note_on_c, 0, 76, 0
1, 77040, Note_on_c, 0, 78, 80
1, 77040, Note_on_c, 1, 64, 0
1, 77040, Note_on_c, 1, 57, 69
1, 77160, Note_on_c, 0, 78, 0
1, 77160, Note_on_c, 0, 76, 79
1, 77280, Note_on_c, 0, 76, 0
1, 77280, Note_on_c, 0, 74, 79
1, 77280, Note_on_c, 1, 57, 0
1, 77280, Note_on_c, 1, 61, 69
1, 77400, Note_on_c, 0, 74, 0
1, 77400, Note_on_c, 0, 73, 78
1, 77520, Note_on_c, 0, 73, 0
1, 77520, Note_on_c, 0, 71, 77
1, 77520, Note_on_c, 1, 61, 0
1, 77520, Note_on_c, 1, 64, 68
1, 77640, Note_on_c, 0, 71, 0
1, 77640, Note_on_c, 0, 69, 77
1, 77760, Note_on_c, 0, 69, 0
1, 77760, Note_on_c, 0, 68, 76
1, 77760, Note_on_c, 1, 64, 0
1, 77760, Note_on_c, 1, 52, 67
1, 77880, Note_on_c, 0, 68, 0
1, 77880, Note_on_c, 0, 69, 75
1, 78000, Note_on_c, 0, 69, 0
1, 78000, Note_on_c, 0, 71, 75
1, 78000, Note_on_c, 1, 52, 0
1, 78000, Note_on_c, 1, 56, 67
1, 78120, Note_on_c, 0, 71, 0
1, 78120, Note_on_c, 0, 73, 74
1, 78240, Note_on_c, 0, 73, 0
1, 78240, Note_on_c, 0, 74, 73
1, 78240, Note_on_c, 1, 56, 0
1, 78240, Note_on_c, 1, 59, 66
1, 78360, Note_on_c, 0, 74, 0
1, 78360, Note_on_c, 0, 76, 73
1, 78480, Note_on_c, 0, 76, 0
1, 78480, Note_on_c, 0, 78, 72
1, 78480, Note_on_c, 1, 59, 0
1, 78480, Note_on_c, 1, 52, 65
1, 78600, Note_on_c, 0, 78, 0
1, 78600, Note_on_c, 0, 80, 71
1, 78720, Note_on_c, 0, 80, 0
1, 78720, Note_on_c, 0, 81, 71
1, 78720, Note_on_c, 1, 52, 0
1, 78720, Note_on_c, 1, 56, 65
1, 78840, Note_on_c, 0, 81, 0
1, 78840, Note_on_c, 0, 83, 70
1, 78960, Note_on_c, 0, 83, 0
1, 78960, Note_on_c, 0, 85, 70
1, 78960, Note_on_c, 1, 56, 0
1, 78960, Note_on_c, 1, 59, 64
1, 79080, Note_on_c, 0, 85, 0
1, 79080, Note_on_c, 0, 86, 69
1, 79200, Note_on_c, 0, 86, 0
1, 79200, Note_on_c, 0, 88, 67
1, 79200, Note_on_c, 1, 59, 0
1, 79200, Note_on_c, 1, 57, 59
1, 79440, Note_on_c, 0, 88, 0
1, 79440, Note_on_c, 1, 57, 0
1, 79440, Note_on_c, 1, 61, 59
1, 79680, Note_on_c, 0, 75, 65
1, 79680, Note_on_c, 1, 61, 0
1, 79680, Note_on_c, 1, 64, 58
1, 79800, Note_on_c, 0, 75, 0
1, 79800, Note_on_c, 0, 76, 65
1, 79920, Note_on_c, 0, 76, 0
1, 79920, Note_on_c, 0, 78, 64
1, 79920, Note_on_c, 1, 64, 0
1, 79920, Note_on_c, 1, 57, 58
1, 80040, Note_on_c, 0, 78, 0
1, 80040, Note_on_c, 0, 76, 64
1, 80160, Note_on_c, 0, 76, 0
1, 80160, Note_on_c, 0, 74, 64
1, 80160, Note_on_c, 1, 57, 0
1, 80160, Note_on_c, 1, 61, 57
1, 80280, Note_on_c, 0, 74, 0
1, 80280, Note_on_c, 0, 73, 63
1, 80400, Note_on_c, 0, 73, 0
1, 80400, Note_on_c, 0, 71, 63
1, 80400, Note_on_c, 1, 61, 0
1, 80400, Note_on_c, 1, 64, 56
1, 80520, Note_on_c, 0, 71, 0
1, 80520, Note_on_c, 0, 69, 62
1, 80640, Note_on_c, 0, 69, 0
1, 80640, Note_on_c, 0, 68, 62
1, 80640, Note_on_c, 1, 64, 0
1, 80640, Note_on_c, 1, 52, 56
1, 80760, Note_on_c, 0, 68, 0
1, 80760, Note_on_c, 0, 66, 62
1, 80880, Note_on_c, 0, 66, 0
1, 80880, Note_on_c, 0, 64, 61
1, 80880, Note_on_c, 1, 52, 0
1, 80880, Note_on_c, 1, 59, 55
1, 81000, Note_on_c, 0, 64, 0
1, 81000, Note_on_c, 0, 66, 61
1, 81120, Note_on_c, 0, 66, 0
1, 81120, Note_on_c, 0, 68, 60
1, 81120, Note_on_c, 1, 59, 0
1, 81120, Note_on_c, 1, 62, 54
1, 81240, Note_on_c, 0, 68, 0
1, 81240, Note_on_c, 0, 69, 60
1, 81360, Note_on_c, 0, 69, 0
1, 81360, Note_on_c, 0, 71, 60
1, 81360, Note_on_c, 1, 62, 0
1, 81360, Note_on_c, 1, 52, 54
1, 81480, Note_on_c, 0, 71, 0
1, 81480, Note_on_c, 0, 73, 59
1, 81600, Note_on_c, 0, 73, 0
1, 81600, Note_on_c, 0, 74, 59
1, 81600, Note_on_c, 1, 52, 0
1, 81600, Note_on_c, 1, 59, 53
1, 81720, Note_on_c, 0, 74, 0
1, 81720, Note_on_c, 0, 76, 58
1, 81840, Note_on_c, 0, 76, 0
1, 81840, Note_on_c, 0, 78, 58
1, 81840, Note_on_c, 1, 59, 0
1, 81840, Note_on_c, 1, 62, 52
1, 81960, Note_on_c, 0, 78, 0
1, 81960, Note_on_c, 0, 80, 58
1, 82080, Note_on_c, 0, 80, 0
1, 82080, Note_on_c, 0, 81, 57
1, 82080, Note_on_c, 1, 62, 0
1, 82080, Note_on_c, 1, 61, 52
1, 82080, Note_on_c, 1, 57, 52
1, 82272, Note_on_c, 0, 81, 0
1, 82320, Note_on_c, 0, 76, 56
1, 82512, Note_on_c, 0, 76, 0
1, 82560, Note_on_c, 0, 85, 56
1, 82560, Note_on_c, 1, 61, 0
1, 82560, Note_on_c, 1, 64, 53
1, 82752, Note_on_c, 0, 85, 0
1, 82752, Note_on_c, 1, 64, 0
1, 82800, Note_on_c, 0, 81, 55
1, 82800, Note_on_c, 1, 57, 0
1, 82800, Note_on_c, 1, 57, 52
1, 82800, Note_on_c, 1, 61, 52
1, 82992, Note_on_c, 0, 81, 0
1, 83040, Note_on_c, 0, 76, 54
1, 83232, Note_on_c, 0, 76, 0
1, 83280, Note_on_c, 0, 85, 53
1, 83280, Note_on_c, 1, 61, 0
1, 83280, Note_on_c, 1, 64, 51
1, 83472, Note_on_c, 0, 85, 0
1, 83472, Note_on_c, 1, 64, 0
1, 83520, Note_on_c, 0, 81, 52
1, 83520, Note_on_c, 1, 57, 0
1, 83520, Note_on_c, 1, 61, 50
1, 83520, Note_on_c, 1, 57, 50
1, 84000, Note_on_c, 0, 81, 0
1, 84000, Note_on_c, 1, 57, 0
1, 84000, Note_on_c, 1, 61, 0
1, 84960, Note_on_c, 0, 81, 49
1, 84960, Note_on_c, 1, 57, 51
1, 84960, Note_on_c, 1, 60, 51
1, 85200, Note_on_c, 0, 81, 0
1, 85200, Note_on_c, 0, 76, 48
1, 85440, Note_on_c, 0, 76, 0
1, 85440, Note_on_c, 0, 84, 48
1, 85440, Note_on_c, 1, 60, 0
1, 85440, Note_on_c, 1, 64, 49
1, 85632, Note_on_c, 1, 64, 0
1, 85680, Note_on_c, 0, 84, 0
1, 85680, Note_on_c, 0, 81, 47
1, 85680, Note_on_c, 1, 57, 0
1, 85680, Note_on_c, 1, 57, 48
1, 85680, Note_on_c, 1, 60, 48
1, 85920, Note_on_c, 0, 81, 0
1, 85920, Note_on_c, 0, 76, 46
1, 86160, Note_on_c, 0, 76, 0
1, 86160, Note_on_c, 0, 84, 45
1, 86160, Note_on_c, 1, 60, 0
1, 86160, Note_on_c, 1, 64, 45
1, 86352, Note_on_c, 1, 64, 0
1, 86400, Note_on_c, 0, 84, 0
1, 86400, Note_on_c, 0, 81, 44
1, 86400, Note_on_c, 1, 57, 0
1, 86400, Note_on_c, 1, 57, 44
1, 86400, Note_on_c, 1, 60, 44
1, 86880, Note_on_c, 0, 81, 0
1, 86880, Note_on_c, 1, 60, 0
1, 86880, Note_on_c, 1, 57, 0
1, 87840, Note_on_c, 0, 81, 97
1, 87840, Note_on_c, 1, 63, 95
1, 87840, Note_on_c, 1, 60, 95
1, 87840, Note_on_c, 1, 53, 95
1, 88032, Note_on_c, 0, 81, 0
1, 88080, Note_on_c, 0, 75, 96
1, 88272, Note_on_c, 0, 75, 0
1, 88320, Note_on_c, 0, 84, 95
1, 88320, Note_on_c, 1, 53, 0
1, 88320, Note_on_c, 1, 54, 92
1, 88512, Note_on_c, 0, 84, 0
1, 88512, Note_on_c, 1, 54, 0
1, 88560, Note_on_c, 0, 81, 94
1, 88560, Note_on_c, 1, 60, 0
1, 88560, Note_on_c, 1, 63, 0
1, 88560, Note_on_c, 1, 60, 91
1, 88560, Note_on_c, 1, 63, 91
1, 88560, Note_on_c, 1, 53, 91
1, 88752, Note_on_c, 0, 81, 0
1, 88800, Note_on_c, 0, 75, 93
1, 88992, Note_on_c, 0, 75, 0
1, 89040, Note_on_c, 0, 84, 92
1, 89040, Note_on_c, 1, 53, 0
1, 89040, Note_on_c, 1, 54, 89
1, 89232, Note_on_c, 0, 84, 0
1, 89232, Note_on_c, 1, 54, 0
1, 89280, Note_on_c, 0, 81, 91
1, 89280, Note_on_c, 1, 63, 0
1, 89280, Note_on_c, 1, 60, 0
1, 89280, Note_on_c, 1, 60, 87
1, 89280, Note_on_c, 1, 53, 87
1, 89280, Note_on_c, 1, 63, 87
1, 89760, Note_on_c, 0, 81, 0
1, 89760, Note_on_c, 1, 63, 0
1, 89760, Note_on_c, 1, 53, 0
1, 89760, Note_on_c, 1, 60, 0
1, 90480, Note_on_c, 0, 65, 97
1, 90636, Note_on_c, 0, 65, 0
1, 90720, Note_on_c, 0, 70, 96
1, 90876, Note_on_c, 0, 70, 0
1, 90960, Note_on_c, 0, 65, 95
1, 91116, Note_on_c, 0, 65, 0
1, 91200, Note_on_c, 0, 70, 94
1, 91356, Note_on_c, 0, 70, 0
1, 91440, Note_on_c, 0, 74, 94
1, 91596, Note_on_c, 0, 74, 0
1, 91680, Note_on_c, 0, 70, 93
1, 91836, Note_on_c, 0, 70, 0
1, 91920, Note_on_c, 0, 74, 92
1, 91920, Note_on_c, 1, 53, 93
1, 92076, Note_on_c, 0, 74, 0
1, 92076, Note_on_c, 1, 53, 0
1, 92160, Note_on_c, 0, 77, 91
1, 92160, Note_on_c, 1, 58, 92
1, 92316, Note_on_c, 1, 58, 0
1, 92400, Note_on_c, 1, 53, 90
1, 92520, Note_on_c, 0, 77, 0
1, 92556, Note_on_c, 1, 53, 0
1, 92640, Note_on_c, 0, 77, 89
1, 92640, Note_on_c, 1, 58, 89
1, 92796, Note_on_c, 0, 77, 0
1, 92796, Note_on_c, 1, 58, 0
1, 92880, Note_on_c, 0, 77, 88
1, 92880, Note_on_c, 1, 62, 88
1, 93036, Note_on_c, 1, 62, 0
1, 93120, Note_on_c, 1, 58, 87
1, 93240, Note_on_c, 0, 77, 0
1, 93276, Note_on_c, 1, 58, 0
1, 93360, Note_on_c, 0, 82, 88
1, 93360, Note_on_c, 1, 62, 85
1, 93516, Note_on_c, 1, 62, 0
1, 93552, Note_on_c, 0, 82, 0
1, 93600, Note_on_c, 0, 81, 88
1, 93600, Note_on_c, 1, 65, 84
1, 93696, Note_on_c, 0, 81, 0
1, 93720, Note_on_c, 0, 79, 88
1, 93816, Note_on_c, 0, 79, 0
1, 93840, Note_on_c, 0, 77, 88
1, 93936, Note_on_c, 0, 77, 0
1, 93960, Note_on_c, 0, 79, 87
1, 93960, Note_on_c, 1, 65, 0
1, 94056, Note_on_c, 0, 79, 0
1, 94080, Note_on_c, 0, 81, 87
1, 94080, Note_on_c, 1, 65, 82
1, 94176, Note_on_c, 0, 81, 0
1, 94200, Note_on_c, 0, 82, 87
1, 94236, Note_on_c, 1, 65, 0
1, 94296, Note_on_c, 0, 82, 0
1, 94320, Note_on_c, 0, 84, 87
1, 94320, Note_on_c, 1, 65, 80
1, 94416, Note_on_c, 0, 84, 0
1, 94440, Note_on_c, 0, 82, 87
1, 94536, Note_on_c, 0, 82, 0
1, 94560, Note_on_c, 0, 81, 86
1, 94656, Note_on_c, 0, 81, 0
1, 94680, Note_on_c, 0, 82, 86
1, 94680, Note_on_c, 1, 65, 0
1, 94776, Note_on_c, 0, 82, 0
1, 94800, Note_on_c, 0, 84, 86
1, 94800, Note_on_c, 1, 70, 78
1, 94896, Note_on_c, 0, 84, 0
1, 94920, Note_on_c, 0, 86, 86
1, 94992, Note_on_c, 1, 70, 0
1, 95016, Note_on_c, 0, 86, 0
1, 95040, Note_on_c, 0, 87, 86
1, 95040, Note_on_c, 1, 69, 78
1, 95136, Note_on_c, 1, 69, 0
1, 95160, Note_on_c, 1, 67, 80
1, 95232, Note_on_c, 0, 87, 0
1, 95256, Note_on_c, 1, 67, 0
1, 95280, Note_on_c, 0, 77, 89
1, 95280, Note_on_c, 1, 65, 82
1, 95376, Note_on_c, 1, 65, 0
1, 95400, Note_on_c, 1, 67, 84
1, 95472, Note_on_c, 0, 77, 0
1, 95496, Note_on_c, 1, 67, 0
1, 95520, Note_on_c, 0, 87, 92
1, 95520, Note_on_c, 1, 69, 85
1, 95616, Note_on_c, 1, 69, 0
1, 95640, Note_on_c, 1, 70, 87
1, 95736, Note_on_c, 1, 70, 0
1, 95760, Note_on_c, 1, 72, 89
1, 95856, Note_on_c, 1, 72, 0
1, 95880, Note_on_c, 1, 70, 90
1, 95952, Note_on_c, 0, 87, 0
1, 95976, Note_on_c, 1, 70, 0
1, 96000, Note_on_c, 0, 77, 98
1, 96000, Note_on_c, 1, 69, 92
1, 96096, Note_on_c, 1, 69, 0
1, 96120, Note_on_c, 1, 70, 94
1, 96192, Note_on_c, 0, 77, 0
1, 96216, Note_on_c, 1, 70, 0
1, 96240, Note_on_c, 0, 87, 102
1, 96240, Note_on_c, 1, 72, 96
1, 96336, Note_on_c, 1, 72, 0
1, 96360, Note_on_c, 1, 74, 101
1, 96456, Note_on_c, 1, 74, 0
1, 96480, Note_on_c, 1, 75, 103
1, 96576, Note_on_c, 0, 87, 0
1, 96600, Note_on_c, 0, 89, 108
1, 96696, Note_on_c, 0, 89, 0
1, 96720, Note_on_c, 0, 87, 107
1, 96816, Note_on_c, 0, 87, 0
1, 96840, Note_on_c, 0, 86, 106
1, 96840, Note_on_c, 1, 75, 0
1, 96840, Note_on_c, 1, 77, 99
1, 96936, Note_on_c, 0, 86, 0
1, 96960, Note_on_c, 0, 84, 105
1, 96960, Note_on_c, 1, 77, 0
1, 96960, Note_on_c, 1, 75, 98
1, 97056, Note_on_c, 0, 84, 0
1, 97080, Note_on_c, 0, 82, 104
1, 97080, Note_on_c, 1, 75, 0
1, 97080, Note_on_c, 1, 74, 97
1, 97176, Note_on_c, 0, 82, 0
1, 97200, Note_on_c, 0, 81, 103
1, 97200, Note_on_c, 1, 74, 0
1, 97200, Note_on_c, 1, 72, 96
1, 97296, Note_on_c, 0, 81, 0
1, 97320, Note_on_c, 0, 82, 102
1, 97320, Note_on_c, 1, 72, 0
1, 97320, Note_on_c, 1, 74, 94
1, 97416, Note_on_c, 0, 82, 0
1, 97440, Note_on_c, 0, 81, 102
1, 97440, Note_on_c, 1, 74, 0
1, 97440, Note_on_c, 1, 72, 93
1, 97536, Note_on_c, 0, 81, 0
1, 97560, Note_on_c, 0, 79, 101
1, 97560, Note_on_c, 1, 72, 0
1, 97560, Note_on_c, 1, 70, 92
1, 97656, Note_on_c, 0, 79, 0
1, 97680, Note_on_c, 0, 77, 100
1, 97680, Note_on_c, 1, 70, 0
1, 97680, Note_on_c, 1, 69, 91
1, 97776, Note_on_c, 0, 77, 0
1, 97800, Note_on_c, 0, 75, 99
1, 97800, Note_on_c, 1, 69, 0
1, 97800, Note_on_c, 1, 67, 90
1, 97896, Note_on_c, 0, 75, 0
1, 97920, Note_on_c, 0, 74, 98
1, 97920, Note_on_c, 1, 67, 0
1, 97920, Note_on_c, 1, 66, 88
1, 98016, Note_on_c, 0, 74, 0
1, 98040, Note_on_c, 0, 75, 97
1, 98136, Note_on_c, 0, 75, 0
1, 98160, Note_on_c, 0, 74, 96
1, 98256, Note_on_c, 0, 74, 0
1, 98280, Note_on_c, 0, 84, 95
1, 98376, Note_on_c, 0, 84, 0
1, 98400, Note_on_c, 0, 75, 94
1, 98400, Note_on_c, 1, 66, 0
1, 98400, Note_on_c, 1, 67, 78
1, 98496, Note_on_c, 0, 75, 0
1, 98520, Note_on_c, 0, 84, 93
1, 98616, Note_on_c, 0, 84, 0
1, 98640, Note_on_c, 0, 74, 92
1, 98640, Note_on_c, 1, 67, 0
1, 98640, Note_on_c, 1, 66, 81
1, 98736, Note_on_c, 0, 74, 0
1, 98760, Note_on_c, 0, 75, 91
1, 98856, Note_on_c, 0, 75, 0
1, 98880, Note_on_c, 0, 74, 90
1, 98976, Note_on_c, 0, 74, 0
1, 99000, Note_on_c, 0, 84, 89
1, 99096, Note_on_c, 0, 84, 0
1, 99120, Note_on_c, 0, 75, 88
1, 99120, Note_on_c, 1, 66, 0
1, 99120, Note_on_c, 1, 67, 73
1, 99216, Note_on_c, 0, 75, 0
1, 99240, Note_on_c, 0, 84, 87
1, 99336, Note_on_c, 0, 84, 0
1, 99360, Note_on_c, 0, 74, 86
1, 99360, Note_on_c, 1, 67, 0
1, 99360, Note_on_c, 1, 66, 74
1, 99456, Note_on_c, 0, 74, 0
1, 99480, Note_on_c, 0, 84, 85
1, 99576, Note_on_c, 0, 84, 0
1, 99600, Note_on_c, 0, 81, 84
1, 99696, Note_on_c, 0, 81, 0
1, 99720, Note_on_c, 0, 79, 83
1, 99816, Note_on_c, 0, 79, 0
1, 99840, Note_on_c, 0, 78, 82
1, 99840, Note_on_c, 1, 66, 0
1, 99936, Note_on_c, 0, 78, 0
1, 99960, Note_on_c, 0, 75, 81
1, 100056, Note_on_c, 0, 75, 0
1, 100080, Note_on_c, 0, 74, 80
1, 100176, Note_on_c, 0, 74, 0
1, 100200, Note_on_c, 0, 75, 79
1, 100296, Note_on_c, 0, 75, 0
1, 100320, Note_on_c, 0, 74, 78
1, 100416, Note_on_c, 0, 74, 0
1, 100440, Note_on_c, 0, 72, 77
1, 100536, Note_on_c, 0, 72, 0
1, 100560, Note_on_c, 0, 70, 76
1, 100560, Note_on_c, 1, 50, 89
1, 100656, Note_on_c, 0, 70, 0
1, 100680, Note_on_c, 0, 69, 75
1, 100716, Note_on_c, 1, 50, 0
1, 100776, Note_on_c, 0, 69, 0
1, 100800, Note_on_c, 0, 67, 74
1, 100800, Note_on_c, 1, 55, 88
1, 100956, Note_on_c, 0, 67, 0
1, 100956, Note_on_c, 1, 55, 0
1, 101040, Note_on_c, 1, 50, 88
1, 101196, Note_on_c, 1, 50, 0
1, 101280, Note_on_c, 0, 62, 83
1, 101280, Note_on_c, 1, 55, 87
1, 101436, Note_on_c, 0, 62, 0
1, 101436, Note_on_c, 1, 55, 0
1, 101520, Note_on_c, 0, 67, 82
1, 101520, Note_on_c, 1, 58, 86
1, 101676, Note_on_c, 0, 67, 0
1, 101676, Note_on_c, 1, 58, 0
1, 101760, Note_on_c, 0, 62, 82
1, 101760, Note_on_c, 1, 55, 85
1, 101916, Note_on_c, 0, 62, 0
1, 101916, Note_on_c, 1, 55, 0
1, 102000, Note_on_c, 0, 67, 81
1, 102000, Note_on_c, 1, 58, 85
1, 102156, Note_on_c, 0, 67, 0
1, 102156, Note_on_c, 1, 58, 0
1, 102240, Note_on_c, 0, 70, 81
1, 102240, Note_on_c, 1, 62, 84
1, 102396, Note_on_c, 0, 70, 0
1, 102480, Note_on_c, 0, 67, 80
1, 102600, Note_on_c, 1, 62, 0
1, 102636, Note_on_c, 0, 67, 0
1, 102720, Note_on_c, 0, 70, 79
1, 102720, Note_on_c, 1, 62, 82
1, 102876, Note_on_c, 0, 70, 0
1, 102876, Note_on_c, 1, 62, 0
1, 102960, Note_on_c, 0, 74, 79
1, 102960, Note_on_c, 1, 62, 82
1, 103320, Note_on_c, 0, 74, 0
1, 103320, Note_on_c, 1, 62, 0
1, 103440, Note_on_c, 0, 74, 77
1, 103440, Note_on_c, 1, 67, 80
1, 103596, Note_on_c, 0, 74, 0
1, 103632, Note_on_c, 1, 67, 0
1, 103680, Note_on_c, 0, 74, 77
1, 103680, Note_on_c, 1, 66, 79
1, 103776, Note_on_c, 1, 66, 0
1, 103800, Note_on_c, 1, 64, 79
1, 103896, Note_on_c, 1, 64, 0
1, 103920, Note_on_c, 1, 66, 78
1, 104016, Note_on_c, 1, 66, 0
1, 104040, Note_on_c, 0, 74, 0
1, 104040, Note_on_c, 1, 62, 78
1, 104136, Note_on_c, 1, 62, 0
1, 104160, Note_on_c, 0, 79, 75
1, 104160, Note_on_c, 1, 70, 78
1, 104352, Note_on_c, 0, 79, 0
1, 104352, Note_on_c, 1, 70, 0
1, 104400, Note_on_c, 0, 78, 75
1, 104400, Note_on_c, 1, 69, 77
1, 104496, Note_on_c, 0, 78, 0
1, 104520, Note_on_c, 0, 76, 75
1, 104592, Note_on_c, 1, 69, 0
1, 104616, Note_on_c, 0, 76, 0
1, 104640, Note_on_c, 0, 78, 74
1, 104736, Note_on_c, 0, 78, 0
1, 104760, Note_on_c, 0, 74, 74
1, 104856, Note_on_c, 0, 74, 0
1, 104880, Note_on_c, 0, 82, 74
1, 104880, Note_on_c, 1, 67, 75
1, 105072, Note_on_c, 0, 82, 0
1, 105072, Note_on_c, 1, 67, 0
1, 105120, Note_on_c, 0, 81, 73
1, 105120, Note_on_c, 1, 66, 75
1, 105216, Note_on_c, 1, 66, 0
1, 105240, Note_on_c, 1, 64, 74
1, 105312, Note_on_c, 0, 81, 0
1, 105336, Note_on_c, 1, 64, 0
1, 105360, Note_on_c, 1, 66, 74
1, 105456, Note_on_c, 1, 66, 0
1, 105480, Note_on_c, 1, 62, 73
1, 105576, Note_on_c, 1, 62, 0
1, 105600, Note_on_c, 0, 81, 72
1, 105600, Note_on_c, 1, 72, 73
1, 105792, Note_on_c, 0, 81, 0
1, 105792, Note_on_c, 1, 72, 0
1, 105840, Note_on_c, 0, 79, 71
1, 105840, Note_on_c, 1, 70, 72
1, 105936, Note_on_c, 0, 79, 0
1, 105960, Note_on_c, 0, 78, 71
1, 106032, Note_on_c, 1, 70, 0
1, 106056, Note_on_c, 0, 78, 0
1, 106080, Note_on_c, 0, 79, 70
1, 106176, Note_on_c, 0, 79, 0
1, 106200, Note_on_c, 0, 74, 70
1, 106296, Note_on_c, 0, 74, 0
1, 106320, Note_on_c, 0, 84, 70
1, 106320, Note_on_c, 1, 69, 71
1, 106512, Note_on_c, 0, 84, 0
1, 106512, Note_on_c, 1, 69, 0
1, 106560, Note_on_c, 0, 82, 72
1, 106560, Note_on_c, 1, 67, 73
1, 106656, Note_on_c, 0, 82, 0
1, 106680, Note_on_c, 0, 74, 73
1, 106776, Note_on_c, 0, 74, 0
1, 106800, Note_on_c, 0, 75, 74
1, 106896, Note_on_c, 0, 75, 0
1, 106920, Note_on_c, 0, 74, 74
1, 107016, Note_on_c, 0, 74, 0
1, 107040, Note_on_c, 0, 75, 75
1, 107136, Note_on_c, 0, 75, 0
1, 107160, Note_on_c, 0, 74, 76
1, 107256, Note_on_c, 0, 74, 0
1, 107280, Note_on_c, 0, 81, 77
1, 107280, Note_on_c, 1, 67, 0
1, 107280, Note_on_c, 1, 65, 80
1, 107376, Note_on_c, 0, 81, 0
1, 107400, Note_on_c, 0, 75, 77
1, 107496, Note_on_c, 0, 75, 0
1, 107520, Note_on_c, 0, 76, 78
1, 107616, Note_on_c, 0, 76, 0
1, 107640, Note_on_c, 0, 75, 79
1, 107736, Note_on_c, 0, 75, 0
1, 107760, Note_on_c, 0, 76, 80
1, 107856, Note_on_c, 0, 76, 0
1, 107880, Note_on_c, 0, 75, 83
1, 107976, Note_on_c, 0, 75, 0
1, 108000, Note_on_c, 0, 80, 83
1, 108000, Note_on_c, 1, 65, 0
1, 108000, Note_on_c, 1, 64, 88
1, 108096, Note_on_c, 0, 80, 0
1, 108120, Note_on_c, 0, 81, 82
1, 108216, Note_on_c, 0, 81, 0
1, 108240, Note_on_c, 0, 83, 81
1, 108336, Note_on_c, 0, 83, 0
1, 108360, Note_on_c, 0, 84, 80
1, 108456, Note_on_c, 0, 84, 0
1, 108480, Note_on_c, 0, 86, 80
1, 108576, Note_on_c, 0, 86, 0
1, 108600, Note_on_c, 0, 84, 79
1, 108696, Note_on_c, 0, 84, 0
1, 108720, Note_on_c, 0, 83, 78
1, 108720, Note_on_c, 1, 64, 0
1, 108816, Note_on_c, 0, 83, 0
1, 108840, Note_on_c, 0, 81, 78
1, 108936, Note_on_c, 0, 81, 0
1, 108960, Note_on_c, 0, 80, 77
1, 109056, Note_on_c, 0, 80, 0
1, 109080, Note_on_c, 0, 77, 76
1, 109176, Note_on_c, 0, 77, 0
1, 109200, Note_on_c, 0, 76, 76
1, 109296, Note_on_c, 0, 76, 0
1, 109320, Note_on_c, 0, 74, 75
1, 109416, Note_on_c, 0, 74, 0
1, 109440, Note_on_c, 0, 72, 74
1, 109440, Note_on_c, 1, 57, 75
1, 109560, Note_on_c, 1, 64, 75
1, 109656, Note_on_c, 1, 64, 0
1, 109668, Note_on_c, 1, 57, 0
1, 109680, Note_on_c, 1, 65, 76
1, 109776, Note_on_c, 1, 65, 0
1, 109800, Note_on_c, 1, 64, 77
1, 109896, Note_on_c, 1, 64, 0
1, 109920, Note_on_c, 1, 65, 77
1, 110016, Note_on_c, 1, 65, 0
1, 110040, Note_on_c, 1, 64, 78
1, 110136, Note_on_c, 1, 64, 0
1, 110160, Note_on_c, 0, 72, 0
1, 110160, Note_on_c, 0, 71, 80
1, 110160, Note_on_c, 1, 55, 79
1, 110280, Note_on_c, 1, 65, 80
1, 110376, Note_on_c, 1, 65, 0
1, 110388, Note_on_c, 1, 55, 0
1, 110400, Note_on_c, 1, 66, 80
1, 110496, Note_on_c, 1, 66, 0
1, 110520, Note_on_c, 1, 65, 81
1, 110616, Note_on_c, 1, 65, 0
1, 110640, Note_on_c, 1, 66, 82
1, 110736, Note_on_c, 1, 66, 0
1, 110760, Note_on_c, 1, 65, 82
1, 110856, Note_on_c, 1, 65, 0
1, 110880, Note_on_c, 0, 71, 0
1, 110880, Note_on_c, 1, 54, 83
1, 110880, Note_on_c, 1, 66, 83
1, 111000, Note_on_c, 0, 70, 89
1, 111096, Note_on_c, 0, 70, 0
1, 111120, Note_on_c, 0, 73, 88
1, 111216, Note_on_c, 0, 73, 0
1, 111240, Note_on_c, 0, 78, 87
1, 111336, Note_on_c, 0, 78, 0
1, 111360, Note_on_c, 0, 82, 86
1, 111360, Note_on_c, 1, 66, 0
1, 111360, Note_on_c, 1, 54, 0
1, 111456, Note_on_c, 0, 82, 0
1, 111480, Note_on_c, 0, 85, 84
1, 111576, Note_on_c, 0, 85, 0
1, 111600, Note_on_c, 0, 88, 83
1, 111696, Note_on_c, 0, 88, 0
1, 111720, Note_on_c, 0, 85, 82
1, 111816, Note_on_c, 0, 85, 0
1, 111840, Note_on_c, 0, 82, 81
1, 111936, Note_on_c, 0, 82, 0
1, 111960, Note_on_c, 0, 79, 80
1, 112056, Note_on_c, 0, 79, 0
1, 112080, Note_on_c, 0, 78, 79
1, 112176, Note_on_c, 0, 78, 0
1, 112200, Note_on_c, 0, 76, 78
1, 112296, Note_on_c, 0, 76, 0
1, 112320, Note_on_c, 0, 74, 78
1, 112440, Note_on_c, 1, 59, 76
1, 112512, Note_on_c, 0, 74, 0
1, 112536, Note_on_c, 1, 59, 0
1, 112560, Note_on_c, 1, 62, 77
1, 112656, Note_on_c, 1, 62, 0
1, 112680, Note_on_c, 1, 66, 79
1, 112776, Note_on_c, 1, 66, 0
1, 112800, Note_on_c, 1, 71, 80
1, 112920, Note_on_c, 0, 74, 83
1, 112992, Note_on_c, 1, 71, 0
1, 113016, Note_on_c, 0, 74, 0
1, 113040, Note_on_c, 0, 77, 84
1, 113040, Note_on_c, 1, 71, 84
1, 113160, Note_on_c, 1, 55, 84
1, 113232, Note_on_c, 0, 77, 0
1, 113232, Note_on_c, 1, 71, 0
1, 113256, Note_on_c, 1, 55, 0
1, 113280, Note_on_c, 1, 59, 86
1, 113376, Note_on_c, 1, 59, 0
1, 113400, Note_on_c, 1, 62, 87
1, 113496, Note_on_c, 1, 62, 0
1, 113520, Note_on_c, 1, 67, 88
1, 113640, Note_on_c, 0, 77, 88
1, 113640, Note_on_c, 1, 71, 88
1, 113712, Note_on_c, 1, 67, 0
1, 113736, Note_on_c, 0, 77, 0
1, 113736, Note_on_c, 1, 71, 0
1, 113760, Note_on_c, 0, 78, 89
1, 113760, Note_on_c, 1, 54, 96
1, 113856, Note_on_c, 0, 78, 0
1, 113880, Note_on_c, 0, 73, 88
1, 113976, Note_on_c, 0, 73, 0
1, 114000, Note_on_c, 0, 78, 88
1, 114000, Note_on_c, 1, 61, 89
1, 114000, Note_on_c, 1, 58, 89
1, 114096, Note_on_c, 0, 78, 0
1, 114120, Note_on_c, 0, 82, 87
1, 114192, Note_on_c, 1, 58, 0
1, 114192, Note_on_c, 1, 61, 0
1, 114216, Note_on_c, 0, 82, 0
1, 114240, Note_on_c, 0, 85, 86
1, 114240, Note_on_c, 1, 58, 87
1, 114240, Note_on_c, 1, 61, 87
1, 114336, Note_on_c, 0, 85, 0
1, 114360, Note_on_c, 0, 82, 86
1, 114432, Note_on_c, 1, 61, 0
1, 114432, Note_on_c, 1, 58, 0
1, 114456, Note_on_c, 0, 82, 0
1, 114480, Note_on_c, 0, 86, 85
1, 114480, Note_on_c, 1, 54, 0
1, 114480, Note_on_c, 1, 54, 90
1, 114576, Note_on_c, 0, 86, 0
1, 114600, Note_on_c, 0, 83, 84
1, 114696, Note_on_c, 0, 83, 0
1, 114720, Note_on_c, 0, 86, 84
1, 114720, Note_on_c, 1, 59, 83
1, 114720, Note_on_c, 1, 62, 83
1, 114816, Note_on_c, 0, 86, 0
1, 114840, Note_on_c, 0, 83, 83
1, 114912, Note_on_c, 1, 62, 0
1, 114912, Note_on_c, 1, 59, 0
1, 114936, Note_on_c, 0, 83, 0
1, 114960, Note_on_c, 0, 80, 82
1, 114960, Note_on_c, 1, 59, 82
1, 114960, Note_on_c, 1, 62, 82
1, 115056, Note_on_c, 0, 80, 0
1, 115080, Note_on_c, 0, 77, 82
1, 115152, Note_on_c, 1, 62, 0
1, 115152, Note_on_c, 1, 59, 0
1, 115176, Note_on_c, 0, 77, 0
1, 115200, Note_on_c, 0, 78, 72
1, 115200, Note_on_c, 1, 54, 0
1, 115200, Note_on_c, 1, 54, 64
1, 115296, Note_on_c, 0, 78, 0
1, 115320, Note_on_c, 0, 73, 72
1, 115416, Note_on_c, 0, 73, 0
1, 115440, Note_on_c, 0, 78, 73
1, 115440, Note_on_c, 1, 61, 58
1, 115440, Note_on_c, 1, 58, 58
1, 115536, Note_on_c, 0, 78, 0
1, 115560, Note_on_c, 0, 82, 73
1, 115632, Note_on_c, 1, 58, 0
1, 115632, Note_on_c, 1, 61, 0
1, 115656, Note_on_c, 0, 82, 0
1, 115680, Note_on_c, 0, 85, 73
1, 115680, Note_on_c, 1, 61, 59
1, 115680, Note_on_c, 1, 58, 59
1, 115776, Note_on_c, 0, 85, 0
1, 115800, Note_on_c, 0, 82, 74
1, 115872, Note_on_c, 1, 58, 0
1, 115872, Note_on_c, 1, 61, 0
1, 115896, Note_on_c, 0, 82, 0
1, 115920, Note_on_c, 0, 86, 74
1, 115920, Note_on_c, 1, 54, 0
1, 115920, Note_on_c, 1, 54, 67
1, 116016, Note_on_c, 0, 86, 0
1, 116040, Note_on_c, 0, 83, 75
1, 116136, Note_on_c, 0, 83, 0
1, 116160, Note_on_c, 0, 86, 75
1, 116160, Note_on_c, 1, 59, 61
1, 116160, Note_on_c, 1, 62, 61
1, 116256, Note_on_c, 0, 86, 0
1, 116280, Note_on_c, 0, 83, 76
1, 116352, Note_on_c, 1, 62, 0
1, 116352, Note_on_c, 1, 59, 0
1, 116376, Note_on_c, 0, 83, 0
1, 116400, Note_on_c, 0, 80, 76
1, 116400, Note_on_c, 1, 59, 60
1, 116400, Note_on_c, 1, 62, 60
1, 116496, Note_on_c, 0, 80, 0
1, 116520, Note_on_c, 0, 77, 77
1, 116592, Note_on_c, 1, 62, 0
1, 116592, Note_on_c, 1, 59, 0
1, 116616, Note_on_c, 0, 77, 0
1, 116640, Note_on_c, 0, 78, 79
1, 116640, Note_on_c, 1, 54, 0
1, 116640, Note_on_c, 1, 54, 59
1, 116640, Note_on_c, 1, 58, 59
1, 116640, Note_on_c, 1, 61, 59
1, 116880, Note_on_c, 0, 78, 0
1, 116880, Note_on_c, 0, 73, 76
1, 117120, Note_on_c, 0, 73, 0
1, 117120, Note_on_c, 0, 82, 74
1, 117120, Note_on_c, 1, 61, 0
1, 117120, Note_on_c, 1, 58, 0
1, 117120, Note_on_c, 1, 54, 0
1, 117360, Note_on_c, 0, 82, 0
1, 117360, Note_on_c, 0, 78, 71
1, 117600, Note_on_c, 0, 78, 0
1, 117600, Note_on_c, 0, 73, 68
1, 117840, Note_on_c, 0, 73, 0
1, 117840, Note_on_c, 0, 82, 65
1, 118080, Note_on_c, 0, 82, 0
1, 118080, Note_on_c, 0, 78, 63
1, 118080, Note_on_c, 1, 66, 79
1, 118320, Note_on_c, 1, 66, 0
1, 118320, Note_on_c, 1, 61, 77
1, 118560, Note_on_c, 0, 78, 0
1, 118560, Note_on_c, 1, 61, 0
1, 118560, Note_on_c, 1, 70, 75
1, 118800, Note_on_c, 1, 70, 0
1, 118800, Note_on_c, 1, 66, 74
1, 119040, Note_on_c, 1, 66, 0
1, 119040, Note_on_c, 1, 61, 72
1, 119280, Note_on_c, 1, 61, 0
1, 119280, Note_on_c, 1, 70, 70
1, 119520, Note_on_c, 0, 78, 54
1, 119520, Note_on_c, 1, 70, 0
1, 119520, Note_on_c, 1, 66, 68
1, 119760, Note_on_c, 0, 78, 0
1, 119760, Note_on_c, 0, 73, 55
1, 120000, Note_on_c, 0, 73, 0
1, 120000, Note_on_c, 0, 81, 55
1, 120000, Note_on_c, 1, 66, 0
1, 120240, Note_on_c, 0, 81, 0
1, 120240, Note_on_c, 0, 78, 56
1, 120480, Note_on_c, 0, 78, 0
1, 120480, Note_on_c, 0, 73, 56
1, 120720, Note_on_c, 0, 73, 0
1, 120720, Note_on_c, 0, 81, 57
1, 120960, Note_on_c, 0, 81, 0
1, 120960, Note_on_c, 0, 80, 58
1, 120960, Note_on_c, 1, 66, 58
1, 120960, Note_on_c, 1, 71, 58
1, 121200, Note_on_c, 0, 80, 0
1, 121200, Note_on_c, 0, 73, 59
1, 121440, Note_on_c, 0, 73, 0
1, 121440, Note_on_c, 0, 83, 60
1, 121680, Note_on_c, 0, 83, 0
1, 121680, Note_on_c, 0, 80, 61
1, 121680, Note_on_c, 1, 66, 0
1, 121680, Note_on_c, 1, 65, 54
1, 121920, Note_on_c, 0, 80, 0
1, 121920, Note_on_c, 0, 73, 62
1, 122160, Note_on_c, 0, 73, 0
1, 122160, Note_on_c, 0, 83, 63
1, 122400, Note_on_c, 0, 83, 0
1, 122400, Note_on_c, 0, 82, 64
1, 122400, Note_on_c, 1, 65, 0
1, 122400, Note_on_c, 1, 71, 0
1, 122400, Note_on_c, 1, 67, 69
1, 122400, Note_on_c, 1, 64, 69
1, 122640, Note_on_c, 0, 82, 0
1, 122640, Note_on_c, 0, 73, 65
1, 122880, Note_on_c, 0, 73, 0
1, 122880, Note_on_c, 0, 85, 66
1, 123120, Note_on_c, 0, 85, 0
1, 123120, Note_on_c, 0, 82, 67
1, 123120, Note_on_c, 1, 67, 0
1, 123120, Note_on_c, 1, 66, 66
1, 123360, Note_on_c, 0, 82, 0
1, 123360, Note_on_c, 0, 73, 68
1, 123600, Note_on_c, 0, 73, 0
1, 123600, Note_on_c, 0, 85, 69
1, 123840, Note_on_c, 0, 85, 0
1, 123840, Note_on_c, 0, 83, 60
1, 123840, Note_on_c, 1, 66, 0
1, 123840, Note_on_c, 1, 64, 0
1, 123840, Note_on_c, 1, 59, 58
1, 124080, Note_on_c, 1, 59, 0
1, 124080, Note_on_c, 1, 54, 59
1, 124320, Note_on_c, 0, 83, 0
1, 124320, Note_on_c, 1, 54, 0
1, 124320, Note_on_c, 1, 62, 60
1, 124560, Note_on_c, 1, 62, 0
1, 124560, Note_on_c, 1, 59, 61
1, 124800, Note_on_c, 1, 59, 0
1, 124800, Note_on_c, 1, 54, 62
1, 125040, Note_on_c, 1, 54, 0
1, 125040, Note_on_c, 1, 62, 63
1, 125280, Note_on_c, 0, 83, 61
1, 125280, Note_on_c, 1, 62, 0
1, 125280, Note_on_c, 1, 76, 61
1, 125280, Note_on_c, 1, 61, 64
1, 125520, Note_on_c, 1, 61, 0
1, 125520, Note_on_c, 1, 54, 65
1, 125760, Note_on_c, 1, 54, 0
1, 125760, Note_on_c, 1, 64, 66
1, 126000, Note_on_c, 0, 83, 0
1, 126000, Note_on_c, 0, 82, 65
1, 126000, Note_on_c, 1, 64, 0
1, 126000, Note_on_c, 1, 61, 67
1, 126240, Note_on_c, 1, 61, 0
1, 126240, Note_on_c, 1, 54, 68
1, 126480, Note_on_c, 1, 54, 0
1, 126480, Note_on_c, 1, 64, 69
1, 126720, Note_on_c, 0, 82, 0
1, 126720, Note_on_c, 0, 81, 69
1, 126720, Note_on_c, 1, 64, 0
1, 126720, Note_on_c, 1, 76, 0
1, 126720, Note_on_c, 1, 72, 69
1, 126720, Note_on_c, 1, 63, 70
1, 126960, Note_on_c, 1, 63, 0
1, 126960, Note_on_c, 1, 54, 71
1, 127200, Note_on_c, 1, 54, 0
1, 127200, Note_on_c, 1, 66, 72
1, 127440, Note_on_c, 1, 66, 0
1, 127440, Note_on_c, 1, 72, 0
1, 127440, Note_on_c, 1, 71, 64
1, 127440, Note_on_c, 1, 63, 73
1, 127680, Note_on_c, 1, 63, 0
1, 127680, Note_on_c, 1, 54, 74
1, 127920, Note_on_c, 1, 54, 0
1, 127920, Note_on_c, 1, 66, 75
1, 128160, Note_on_c, 0, 81, 0
1, 128160, Note_on_c, 0, 76, 56
1, 128160, Note_on_c, 1, 66, 0
1, 128160, Note_on_c, 1, 71, 0
1, 128160, Note_on_c, 1, 64, 70
1, 128400, Note_on_c, 0, 76, 0
1, 128400, Note_on_c, 0, 71, 57
1, 128640, Note_on_c, 0, 71, 0
1, 128640, Note_on_c, 0, 79, 57
1, 128640, Note_on_c, 1, 64, 0
1, 128880, Note_on_c, 0, 79, 0
1, 128880, Note_on_c, 0, 76, 58
1, 129120, Note_on_c, 0, 76, 0
1, 129120, Note_on_c, 0, 71, 59
1, 129360, Note_on_c, 0, 71, 0
1, 129360, Note_on_c, 0, 79, 59
1, 129600, Note_on_c, 0, 79, 0
1, 129600, Note_on_c, 0, 78, 60
1, 129600, Note_on_c, 1, 64, 64
1, 129600, Note_on_c, 1, 59, 64
1, 129840, Note_on_c, 0, 78, 0
1, 129840, Note_on_c, 0, 71, 61
1, 130080, Note_on_c, 0, 71, 0
1, 130080, Note_on_c, 0, 81, 61
1, 130320, Note_on_c, 0, 81, 0
1, 130320, Note_on_c, 0, 78, 62
1, 130320, Note_on_c, 1, 64, 0
1, 130320, Note_on_c, 1, 63, 60
1, 130560, Note_on_c, 0, 78, 0
1, 130560, Note_on_c, 0, 71, 63
1, 130800, Note_on_c, 0, 71, 0
1, 130800, Note_on_c, 0, 81, 63
1, 131040, Note_on_c, 0, 81, 0
1, 131040, Note_on_c, 0, 80, 64
1, 131040, Note_on_c, 1, 63, 0
1, 131040, Note_on_c, 1, 59, 0
1, 131040, Note_on_c, 1, 53, 71
1, 131040, Note_on_c, 1, 62, 71
1, 131280, Note_on_c, 0, 80, 0
1, 131280, Note_on_c, 0, 71, 65
1, 131520, Note_on_c, 0, 71, 0
1, 131520, Note_on_c, 0, 83, 65
1, 131760, Note_on_c, 0, 83, 0
1, 131760, Note_on_c, 0, 80, 66
1, 131760, Note_on_c, 1, 53, 0
1, 131760, Note_on_c, 1, 52, 61
1, 132000, Note_on_c, 0, 80, 0
1, 132000, Note_on_c, 0, 71, 66
1, 132240, Note_on_c, 0, 71, 0
1, 132240, Note_on_c, 0, 83, 67
1, 132480, Note_on_c, 0, 83, 0
1, 132480, Note_on_c, 0, 81, 63
1, 132480, Note_on_c, 1, 52, 0
1, 132480, Note_on_c, 1, 62, 0
1, 132480, Note_on_c, 1, 61, 54
1, 132720, Note_on_c, 1, 61, 0
1, 132720, Note_on_c, 1, 57, 56
1, 132960, Note_on_c, 0, 81, 0
1, 132960, Note_on_c, 1, 57, 0
1, 132960, Note_on_c, 1, 64, 57
1, 133200, Note_on_c, 1, 64, 0
1, 133200, Note_on_c, 1, 61, 58
1, 133440, Note_on_c, 1, 61, 0
1, 133440, Note_on_c, 1, 57, 60
1, 133680, Note_on_c, 1, 57, 0
1, 133680, Note_on_c, 1, 64, 61
1, 133920, Note_on_c, 0, 81, 61
1, 133920, Note_on_c, 0, 70, 61
1, 133920, Note_on_c, 1, 64, 0
1, 133920, Note_on_c, 1, 62, 63
1, 134160, Note_on_c, 1, 62, 0
1, 134160, Note_on_c, 1, 57, 64
1, 134400, Note_on_c, 1, 57, 0
1, 134400, Note_on_c, 1, 65, 66
1, 134640, Note_on_c, 0, 70, 0
1, 134640, Note_on_c, 0, 71, 66
1, 134640, Note_on_c, 1, 65, 0
1, 134640, Note_on_c, 1, 63, 67
1, 134880, Note_on_c, 1, 63, 0
1, 134880, Note_on_c, 1, 57, 68
1, 135120, Note_on_c, 1, 57, 0
1, 135120, Note_on_c, 1, 66, 70
1, 135360, Note_on_c, 0, 71, 0
1, 135360, Note_on_c, 0, 81, 0
1, 135360, Note_on_c, 0, 81, 71
1, 135360, Note_on_c, 0, 72, 71
1, 135360, Note_on_c, 1, 66, 0
1, 135360, Note_on_c, 1, 64, 71
1, 135600, Note_on_c, 1, 64, 0
1, 135600, Note_on_c, 1, 57, 73
1, 135840, Note_on_c, 1, 57, 0
1, 135840, Note_on_c, 1, 67, 74
1, 136080, Note_on_c, 0, 72, 0
1, 136080, Note_on_c, 0, 73, 76
1, 136080, Note_on_c, 1, 67, 0
1, 136080, Note_on_c, 1, 64, 76
1, 136320, Note_on_c, 1, 64, 0
1, 136320, Note_on_c, 1, 57, 77
1, 136560, Note_on_c, 1, 57, 0
1, 136560, Note_on_c, 1, 67, 78
1, 136800, Note_on_c, 0, 73, 0
1, 136800, Note_on_c, 0, 81, 0
1, 136800, Note_on_c, 0, 81, 80
1, 136800, Note_on_c, 0, 74, 80
1, 136800, Note_on_c, 1, 67, 0
1, 136800, Note_on_c, 1, 66, 80
1, 137040, Note_on_c, 1, 66, 0
1, 137040, Note_on_c, 1, 57, 81
1, 137280, Note_on_c, 1, 57, 0
1, 137280, Note_on_c, 1, 69, 83
1, 137520, Note_on_c, 0, 74, 0
1, 137520, Note_on_c, 0, 75, 85
1, 137520, Note_on_c, 1, 69, 0
1, 137520, Note_on_c, 1, 65, 84
1, 137760, Note_on_c, 1, 65, 0
1, 137760, Note_on_c, 1, 57, 86
1, 138000, Note_on_c, 1, 57, 0
1, 138000, Note_on_c, 1, 69, 87
1, 138240, Note_on_c, 0, 75, 0
1, 138240, Note_on_c, 0, 81, 0
1, 138240, Note_on_c, 0, 81, 90
1, 138240, Note_on_c, 0, 76, 90
1, 138240, Note_on_c, 1, 69, 0
1, 138240, Note_on_c, 1, 64, 88
1, 138480, Note_on_c, 1, 64, 0
1, 138480, Note_on_c, 1, 57, 89
1, 138720, Note_on_c, 1, 57, 0
1, 138720, Note_on_c, 1, 69, 91
1, 138960, Note_on_c, 0, 76, 0
1, 138960, Note_on_c, 0, 78, 94
1, 138960, Note_on_c, 1, 69, 0
1, 138960, Note_on_c, 1, 62, 92
1, 139200, Note_on_c, 1, 62, 0
1, 139200, Note_on_c, 1, 57, 93
1, 139440, Note_on_c, 1, 57, 0
1, 139440, Note_on_c, 1, 69, 94
1, 139680, Note_on_c, 0, 78, 0
1, 139680, Note_on_c, 0, 81, 0
1, 139680, Note_on_c, 0, 79, 101
1, 139680, Note_on_c, 1, 69, 0
1, 139680, Note_on_c, 1, 57, 95
1, 139680, Note_on_c, 1, 61, 95
1, 139776, Note_on_c, 0, 79, 0
1, 139800, Note_on_c, 0, 81, 100
1, 139896, Note_on_c, 0, 81, 0
1, 139920, Note_on_c, 0, 83, 99
1, 140016, Note_on_c, 0, 83, 0
1, 140040, Note_on_c, 0, 81, 98
1, 140136, Note_on_c, 0, 81, 0
1, 140160, Note_on_c, 0, 79, 97
1, 140160, Note_on_c, 1, 61, 0
1, 140160, Note_on_c, 1, 57, 0
1, 140256, Note_on_c, 0, 79, 0
1, 140280, Note_on_c, 0, 78, 97
1, 140376, Note_on_c, 0, 78, 0
1, 140400, Note_on_c, 0, 76, 96
1, 140496, Note_on_c, 0, 76, 0
1, 140520, Note_on_c, 0, 78, 95
1, 140616, Note_on_c, 0, 78, 0
1, 140640, Note_on_c, 0, 79, 94
1, 140736, Note_on_c, 0, 79, 0
1, 140760, Note_on_c, 0, 78, 93
1, 140856, Note_on_c, 0, 78, 0
1, 140880, Note_on_c, 0, 76, 92
1, 140976, Note_on_c, 0, 76, 0
1, 141000, Note_on_c, 0, 74, 91
1, 141096, Note_on_c, 0, 74, 0
1, 141120, Note_on_c, 0, 73, 91
1, 141216, Note_on_c, 0, 73, 0
1, 141240, Note_on_c, 0, 74, 90
1, 141336, Note_on_c, 0, 74, 0
1, 141360, Note_on_c, 0, 76, 89
1, 141456, Note_on_c, 0, 76, 0
1, 141480, Note_on_c, 0, 74, 88
1, 141576, Note_on_c, 0, 74, 0
1, 141600, Note_on_c, 0, 73, 87
1, 141696, Note_on_c, 0, 73, 0
1, 141720, Note_on_c, 0, 71, 86
1, 141816, Note_on_c, 0, 71, 0
1, 141840, Note_on_c, 0, 69, 86
1, 141936, Note_on_c, 0, 69, 0
1, 141960, Note_on_c, 0, 71, 85
1, 142056, Note_on_c, 0, 71, 0
1, 142080, Note_on_c, 0, 69, 84
1, 142176, Note_on_c, 0, 69, 0
1, 142200, Note_on_c, 0, 67, 83
1, 142296, Note_on_c, 0, 67, 0
1, 142320, Note_on_c, 0, 66, 82
1, 142320, Note_on_c, 1, 45, 91
1, 142416, Note_on_c, 0, 66, 0
1, 142440, Note_on_c, 0, 64, 81
1, 142476, Note_on_c, 1, 45, 0
1, 142536, Note_on_c, 0, 64, 0
1, 142560, Note_on_c, 0, 62, 86
1, 142560, Note_on_c, 1, 50, 90
1, 142716, Note_on_c, 0, 62, 0
1, 142716, Note_on_c, 1, 50, 0
1, 142800, Note_on_c, 0, 57, 85
1, 142800, Note_on_c, 1, 45, 89
1, 142956, Note_on_c, 0, 57, 0
1, 142956, Note_on_c, 1, 45, 0
1, 143040, Note_on_c, 0, 62, 84
1, 143040, Note_on_c, 1, 50, 89
1, 143196, Note_on_c, 0, 62, 0
1, 143196, Note_on_c, 1, 50, 0
1, 143280, Note_on_c, 0, 66, 83
1, 143280, Note_on_c, 1, 54, 88
1, 143436, Note_on_c, 0, 66, 0
1, 143436, Note_on_c, 1, 54, 0
1, 143520, Note_on_c, 0, 62, 82
1, 143520, Note_on_c, 1, 50, 86
1, 143676, Note_on_c, 0, 62, 0
1, 143676, Note_on_c, 1, 50, 0
1, 143760, Note_on_c, 0, 66, 81
1, 143760, Note_on_c, 1, 54, 85
1, 143916, Note_on_c, 0, 66, 0
1, 143916, Note_on_c, 1, 54, 0
1, 144000, Note_on_c, 0, 69, 80
1, 144000, Note_on_c, 1, 57, 85
1, 144360, Note_on_c, 0, 69, 0
1, 144360, Note_on_c, 1, 57, 0
1, 144480, Note_on_c, 0, 69, 79
1, 144480, Note_on_c, 1, 57, 82
1, 144636, Note_on_c, 0, 69, 0
1, 144636, Note_on_c, 1, 57, 0
1, 144720, Note_on_c, 0, 69, 77
1, 144720, Note_on_c, 1, 57, 80
1, 145080, Note_on_c, 0, 69, 0
1, 145080, Note_on_c, 1, 57, 0
1, 145200, Note_on_c, 0, 73, 65
1, 145200, Note_on_c, 1, 67, 73
1, 145200, Note_on_c, 1, 69, 73
1, 145240, Note_on_c, 0, 73, 0
1, 145240, Note_on_c, 0, 74, 66
1, 145280, Note_on_c, 0, 74, 0
1, 145280, Note_on_c, 0, 73, 67
1, 145320, Note_on_c, 0, 73, 0
1, 145320, Note_on_c, 0, 71, 68
1, 145380, Note_on_c, 0, 71, 0
1, 145380, Note_on_c, 0, 73, 69
1, 145440, Note_on_c, 0, 73, 0
1, 145440, Note_on_c, 0, 74, 70
1, 145440, Note_on_c, 1, 67, 0
1, 145440, Note_on_c, 1, 66, 76
1, 145680, Note_on_c, 0, 74, 0
1, 145680, Note_on_c, 1, 66, 0
1, 145680, Note_on_c, 1, 69, 0
1, 145920, Note_on_c, 0, 76, 65
1, 145920, Note_on_c, 1, 69, 72
1, 145920, Note_on_c, 1, 61, 72
1, 145960, Note_on_c, 0, 76, 0
1, 145960, Note_on_c, 0, 78, 65
1, 146000, Note_on_c, 0, 78, 0
1, 146000, Note_on_c, 0, 76, 66
1, 146040, Note_on_c, 0, 76, 0
1, 146040, Note_on_c, 0, 74, 67
1, 146100, Note_on_c, 0, 74, 0
1, 146100, Note_on_c, 0, 76, 68
1, 146160, Note_on_c, 0, 76, 0
1, 146160, Note_on_c, 0, 78, 69
1, 146160, Note_on_c, 1, 61, 0
1, 146160, Note_on_c, 1, 62, 74
1, 146400, Note_on_c, 0, 78, 0
1, 146400, Note_on_c, 1, 62, 0
1, 146400, Note_on_c, 1, 69, 0
1, 146640, Note_on_c, 0, 81, 62
1, 146640, Note_on_c, 1, 55, 70
1, 146640, Note_on_c, 1, 64, 70
1, 146760, Note_on_c, 0, 81, 0
1, 146760, Note_on_c, 0, 79, 64
1, 146880, Note_on_c, 0, 79, 0
1, 146880, Note_on_c, 0, 78, 67
1, 146880, Note_on_c, 1, 64, 0
1, 146880, Note_on_c, 1, 55, 0
1, 146880, Note_on_c, 1, 57, 72
1, 146880, Note_on_c, 1, 62, 72
1, 147600, Note_on_c, 0, 78, 0
1, 147600, Note_on_c, 0, 76, 61
1, 147600, Note_on_c, 1, 62, 0
1, 147600, Note_on_c, 1, 61, 68
1, 147840, Note_on_c, 0, 76, 0
1, 147840, Note_on_c, 1, 61, 0
1, 147840, Note_on_c, 1, 57, 0
1, 148080, Note_on_c, 0, 59, 83
1, 148080, Note_on_c, 1, 47, 87
1, 148236, Note_on_c, 0, 59, 0
1, 148236, Note_on_c, 1, 47, 0
1, 148320, Note_on_c, 0, 64, 83
1, 148320, Note_on_c, 1, 52, 87
1, 148476, Note_on_c, 0, 64, 0
1, 148476, Note_on_c, 1, 52, 0
1, 148560, Note_on_c, 0, 59, 83
1, 148560, Note_on_c, 1, 47, 86
1, 148716, Note_on_c, 0, 59, 0
1, 148716, Note_on_c, 1, 47, 0
1, 148800, Note_on_c, 0, 64, 82
1, 148800, Note_on_c, 1, 52, 86
1, 148956, Note_on_c, 0, 64, 0
1, 148956, Note_on_c, 1, 52, 0
1, 149040, Note_on_c, 0, 67, 82
1, 149040, Note_on_c, 1, 55, 85
1, 149196, Note_on_c, 0, 67, 0
1, 149196, Note_on_c, 1, 55, 0
1, 149280, Note_on_c, 0, 64, 81
1, 149280, Note_on_c, 1, 52, 85
1, 149436, Note_on_c, 0, 64, 0
1, 149436, Note_on_c, 1, 52, 0
1, 149520, Note_on_c, 0, 67, 81
1, 149520, Note_on_c, 1, 55, 84
1, 149676, Note_on_c, 0, 67, 0
1, 149676, Note_on_c, 1, 55, 0
1, 149760, Note_on_c, 0, 71, 81
1, 149760, Note_on_c, 1, 59, 85
1, 150120, Note_on_c, 0, 71, 0
1, 150120, Note_on_c, 1, 59, 0
1, 150240, Note_on_c, 0, 71, 79
1, 150240, Note_on_c, 1, 59, 82
1, 150396, Note_on_c, 0, 71, 0
1, 150396, Note_on_c, 1, 59, 0
1, 150480, Note_on_c, 0, 71, 77
1, 150480, Note_on_c, 1, 59, 80
1, 150840, Note_on_c, 0, 71, 0
1, 150840, Note_on_c, 1, 59, 0
1, 150960, Note_on_c, 0, 75, 73
1, 150960, Note_on_c, 1, 66, 74
1, 150960, Note_on_c, 1, 69, 74
1, 151152, Note_on_c, 0, 75, 0
1, 151152, Note_on_c, 1, 69, 0
1, 151152, Note_on_c, 1, 66, 0
1, 151200, Note_on_c, 0, 78, 72
1, 151200, Note_on_c, 1, 67, 77
1, 151200, Note_on_c, 1, 71, 77
1, 151320, Note_on_c, 0, 78, 0
1, 151320, Note_on_c, 0, 76, 72
1, 151440, Note_on_c, 0, 76, 0
1, 151440, Note_on_c, 0, 79, 72
1, 151560, Note_on_c, 0, 79, 0
1, 151560, Note_on_c, 0, 78, 71
1, 151680, Note_on_c, 0, 78, 0
1, 151680, Note_on_c, 0, 81, 71
1, 151680, Note_on_c, 1, 71, 0
1, 151680, Note_on_c, 1, 67, 0
1, 151800, Note_on_c, 0, 81, 0
1, 151800, Note_on_c, 0, 79, 71
1, 151920, Note_on_c, 0, 79, 0
1, 151920, Note_on_c, 0, 83, 70
1, 152160, Note_on_c, 0, 83, 0
1, 152400, Note_on_c, 0, 73, 64
1, 152400, Note_on_c, 1, 64, 72
1, 152400, Note_on_c, 1, 57, 72
1, 152592, Note_on_c, 0, 73, 0
1, 152592, Note_on_c, 1, 57, 0
1, 152592, Note_on_c, 1, 64, 0
1, 152640, Note_on_c, 0, 76, 68
1, 152640, Note_on_c, 1, 62, 74
1, 152640, Note_on_c, 1, 67, 74
1, 153360, Note_on_c, 0, 76, 0
1, 153360, Note_on_c, 0, 74, 62
1, 153360, Note_on_c, 1, 67, 0
1, 153360, Note_on_c, 1, 66, 69
1, 153600, Note_on_c, 0, 74, 0
1, 153600, Note_on_c, 1, 66, 0
1, 153600, Note_on_c, 1, 62, 0
1, 153840, Note_on_c, 1, 45, 101
1, 153996, Note_on_c, 1, 45, 0
1, 154080, Note_on_c, 1, 50, 101
1, 154236, Note_on_c, 1, 50, 0
1, 154320, Note_on_c, 0, 74, 105
1, 154320, Note_on_c, 1, 45, 101
1, 154476, Note_on_c, 0, 74, 0
1, 154476, Note_on_c, 1, 45, 0
1, 154560, Note_on_c, 0, 78, 105
1, 154560, Note_on_c, 1, 50, 100
1, 154716, Note_on_c, 0, 78, 0
1, 154716, Note_on_c, 1, 50, 0
1, 154800, Note_on_c, 0, 81, 104
1, 154800, Note_on_c, 1, 54, 100
1, 154956, Note_on_c, 0, 81, 0
1, 154956, Note_on_c, 1, 54, 0
1, 155040, Note_on_c, 0, 78, 103
1, 155040, Note_on_c, 1, 50, 99
1, 155196, Note_on_c, 0, 78, 0
1, 155196, Note_on_c, 1, 50, 0
1, 155280, Note_on_c, 0, 86, 103
1, 155280, Note_on_c, 1, 54, 99
1, 155436, Note_on_c, 1, 54, 0
1, 155520, Note_on_c, 1, 57, 99
1, 155598, Note_on_c, 0, 86, 0
1, 155640, Note_on_c, 0, 85, 102
1, 155736, Note_on_c, 0, 85, 0
1, 155760, Note_on_c, 0, 88, 102
1, 155856, Note_on_c, 0, 88, 0
1, 155880, Note_on_c, 0, 86, 102
1, 155880, Note_on_c, 1, 57, 0
1, 155976, Note_on_c, 0, 86, 0
1, 156000, Note_on_c, 0, 85, 101
1, 156000, Note_on_c, 1, 57, 98
1, 156096, Note_on_c, 0, 85, 0
1, 156120, Note_on_c, 0, 83, 101
1, 156156, Note_on_c, 1, 57, 0
1, 156216, Note_on_c, 0, 83, 0
1, 156240, Note_on_c, 0, 81, 101
1, 156240, Note_on_c, 1, 57, 97
1, 156336, Note_on_c, 0, 81, 0
1, 156360, Note_on_c, 0, 83, 101
1, 156456, Note_on_c, 0, 83, 0
1, 156480, Note_on_c, 0, 81, 100
1, 156576, Note_on_c, 0, 81, 0
1, 156600, Note_on_c, 0, 79, 100
1, 156600, Note_on_c, 1, 57, 0
1, 156696, Note_on_c, 0, 79, 0
1, 156720, Note_on_c, 0, 78, 100
1, 156720, Note_on_c, 1, 67, 104
1, 156816, Note_on_c, 0, 78, 0
1, 156840, Note_on_c, 0, 76, 100
1, 156936, Note_on_c, 0, 76, 0
1, 156960, Note_on_c, 0, 74, 99
1, 157008, Note_on_c, 1, 67, 0
1, 157080, Note_on_c, 1, 66, 97
1, 157176, Note_on_c, 1, 66, 0
1, 157200, Note_on_c, 1, 69, 96
1, 157296, Note_on_c, 1, 69, 0
1, 157320, Note_on_c, 0, 74, 0
1, 157320, Note_on_c, 1, 67, 96
1, 157416, Note_on_c, 1, 67, 0
1, 157440, Note_on_c, 0, 74, 98
1, 157440, Note_on_c, 1, 66, 95
1, 157536, Note_on_c, 1, 66, 0
1, 157560, Note_on_c, 1, 64, 94
1, 157596, Note_on_c, 0, 74, 0
1, 157656, Note_on_c, 1, 64, 0
1, 157680, Note_on_c, 0, 74, 98
1, 157680, Note_on_c, 1, 62, 93
1, 157776, Note_on_c, 1, 62, 0
1, 157800, Note_on_c, 1, 64, 93
1, 157872, Note_on_c, 0, 74, 0
1, 157896, Note_on_c, 1, 64, 0
1, 157920, Note_on_c, 1, 62, 92
1, 158016, Note_on_c, 1, 62, 0
1, 158040, Note_on_c, 1, 60, 91
1, 158136, Note_on_c, 1, 60, 0
1, 158160, Note_on_c, 0, 62, 97
1, 158160, Note_on_c, 1, 59, 90
1, 158256, Note_on_c, 1, 59, 0
1, 158280, Note_on_c, 1, 57, 90
1, 158316, Note_on_c, 0, 62, 0
1, 158376, Note_on_c, 1, 57, 0
1, 158400, Note_on_c, 0, 67, 96
1, 158400, Note_on_c, 1, 55, 88
1, 158556, Note_on_c, 0, 67, 0
1, 158556, Note_on_c, 1, 55, 0
1, 158640, Note_on_c, 0, 62, 96
1, 158640, Note_on_c, 1, 43, 94
1, 158796, Note_on_c, 0, 62, 0
1, 158796, Note_on_c, 1, 43, 0
1, 158880, Note_on_c, 0, 67, 95
1, 158880, Note_on_c, 1, 47, 93
1, 159036, Note_on_c, 0, 67, 0
1, 159036, Note_on_c, 1, 47, 0
1, 159120, Note_on_c, 0, 71, 95
1, 159120, Note_on_c, 1, 50, 93
1, 159276, Note_on_c, 0, 71, 0
1, 159276, Note_on_c, 1, 50, 0
1, 159360, Note_on_c, 0, 67, 94
1, 159360, Note_on_c, 1, 47, 93
1, 159516, Note_on_c, 0, 67, 0
1, 159516, Note_on_c, 1, 47, 0
1, 159600, Note_on_c, 0, 71, 94
1, 159600, Note_on_c, 1, 55, 92
1, 159756, Note_on_c, 0, 71, 0
1, 159756, Note_on_c, 1, 55, 0
1, 159840, Note_on_c, 0, 74, 93
1, 159960, Note_on_c, 1, 54, 93
1, 160056, Note_on_c, 1, 54, 0
1, 160080, Note_on_c, 1, 57, 92
1, 160176, Note_on_c, 1, 57, 0
1, 160200, Note_on_c, 0, 74, 0
1, 160200, Note_on_c, 1, 55, 91
1, 160296, Note_on_c, 1, 55, 0
1, 160320, Note_on_c, 0, 74, 92
1, 160320, Note_on_c, 1, 54, 90
1, 160416, Note_on_c, 1, 54, 0
1, 160440, Note_on_c, 1, 52, 89
1, 160476, Note_on_c, 0, 74, 0
1, 160536, Note_on_c, 1, 52, 0
1, 160560, Note_on_c, 0, 74, 92
1, 160560, Note_on_c, 1, 50, 88
1, 160656, Note_on_c, 1, 50, 0
1, 160680, Note_on_c, 1, 52, 87
1, 160752, Note_on_c, 0, 74, 0
1, 160776, Note_on_c, 1, 52, 0
1, 160800, Note_on_c, 1, 50, 86
1, 160896, Note_on_c, 1, 50, 0
1, 160920, Note_on_c, 1, 48, 85
1, 161016, Note_on_c, 1, 48, 0
1, 161040, Note_on_c, 0, 72, 97
1, 161040, Note_on_c, 1, 47, 84
1, 161136, Note_on_c, 1, 47, 0
1, 161160, Note_on_c, 1, 45, 83
1, 161256, Note_on_c, 1, 45, 0
1, 161280, Note_on_c, 1, 43, 83
1, 161400, Note_on_c, 0, 71, 93
1, 161407, Note_on_c, 0, 72, 0
1, 161472, Note_on_c, 1, 43, 0
1, 161496, Note_on_c, 0, 71, 0
1, 161520, Note_on_c, 0, 74, 91
1, 161616, Note_on_c, 0, 74, 0
1, 161640, Note_on_c, 0, 72, 90
1, 161736, Note_on_c, 0, 72, 0
1, 161760, Note_on_c, 0, 71, 89
1, 161760, Note_on_c, 1, 60, 92
1, 161856, Note_on_c, 0, 71, 0
1, 161880, Note_on_c, 0, 69, 87
1, 161976, Note_on_c, 0, 69, 0
1, 162000, Note_on_c, 0, 67, 86
1, 162120, Note_on_c, 1, 60, 0
1, 162120, Note_on_c, 1, 59, 89
1, 162192, Note_on_c, 0, 67, 0
1, 162216, Note_on_c, 1, 59, 0
1, 162240, Note_on_c, 1, 62, 87
1, 162336, Note_on_c, 1, 62, 0
1, 162360, Note_on_c, 1, 60, 86
1, 162456, Note_on_c, 1, 60, 0
1, 162480, Note_on_c, 0, 84, 96
1, 162480, Note_on_c, 1, 59, 85
1, 162576, Note_on_c, 1, 59, 0
1, 162600, Note_on_c, 1, 57, 83
1, 162696, Note_on_c, 1, 57, 0
1, 162720, Note_on_c, 1, 55, 82
1, 162840, Note_on_c, 0, 83, 91
1, 162847, Note_on_c, 0, 84, 0
1, 162912, Note_on_c, 1, 55, 0
1, 162936, Note_on_c, 0, 83, 0
1, 162960, Note_on_c, 0, 86, 90
1, 163056, Note_on_c, 0, 86, 0
1, 163080, Note_on_c, 0, 84, 88
1, 163176, Note_on_c, 0, 84, 0
1, 163200, Note_on_c, 0, 83, 86
1, 163200, Note_on_c, 1, 72, 92
1, 163296, Note_on_c, 0, 83, 0
1, 163320, Note_on_c, 0, 81, 85
1, 163416, Note_on_c, 0, 81, 0
1, 163440, Note_on_c, 0, 80, 83
1, 163560, Note_on_c, 1, 72, 0
1, 163560, Note_on_c, 1, 71, 88
1, 163632, Note_on_c, 0, 80, 0
1, 163656, Note_on_c, 1, 71, 0
1, 163680, Note_on_c, 1, 76, 87
1, 163776, Note_on_c, 1, 76, 0
1, 163800, Note_on_c, 1, 74, 86
1, 163896, Note_on_c, 1, 74, 0
1, 163920, Note_on_c, 0, 74, 91
1, 163920, Note_on_c, 1, 72, 84
1, 164016, Note_on_c, 1, 72, 0
1, 164040, Note_on_c, 1, 71, 83
1, 164136, Note_on_c, 1, 71, 0
1, 164160, Note_on_c, 1, 69, 82
1, 164280, Note_on_c, 0, 72, 86
1, 164287, Note_on_c, 0, 74, 0
1, 164352, Note_on_c, 1, 69, 0
1, 164376, Note_on_c, 0, 72, 0
1, 164400, Note_on_c, 0, 76, 85
1, 164496, Note_on_c, 0, 76, 0
1, 164520, Note_on_c, 0, 74, 83
1, 164616, Note_on_c, 0, 74, 0
1, 164640, Note_on_c, 0, 72, 82
1, 164640, Note_on_c, 1, 62, 89
1, 164736, Note_on_c, 0, 72, 0
1, 164760, Note_on_c, 0, 71, 80
1, 164856, Note_on_c, 0, 71, 0
1, 164880, Note_on_c, 0, 69, 79
1, 165000, Note_on_c, 1, 60, 84
1, 165007, Note_on_c, 1, 62, 0
1, 165072, Note_on_c, 0, 69, 0
1, 165096, Note_on_c, 1, 60, 0
1, 165120, Note_on_c, 1, 64, 83
1, 165216, Note_on_c, 1, 64, 0
1, 165240, Note_on_c, 1, 62, 81
1, 165336, Note_on_c, 1, 62, 0
1, 165360, Note_on_c, 0, 86, 92
1, 165360, Note_on_c, 1, 60, 80
1, 165456, Note_on_c, 1, 60, 0
1, 165480, Note_on_c, 1, 59, 79
1, 165576, Note_on_c, 1, 59, 0
1, 165600, Note_on_c, 1, 57, 78
1, 165720, Note_on_c, 0, 84, 87
1, 165727, Note_on_c, 0, 86, 0
1, 165792, Note_on_c, 1, 57, 0
1, 165816, Note_on_c, 0, 84, 0
1, 165840, Note_on_c, 0, 88, 85
1, 165936, Note_on_c, 0, 88, 0
1, 165960, Note_on_c, 0, 86, 84
1, 166056, Note_on_c, 0, 86, 0
1, 166080, Note_on_c, 0, 84, 82
1, 166080, Note_on_c, 1, 74, 87
1, 166176, Note_on_c, 0, 84, 0
1, 166200, Note_on_c, 0, 83, 80
1, 166296, Note_on_c, 0, 83, 0
1, 166320, Note_on_c, 0, 82, 78
1, 166440, Note_on_c, 1, 73, 78
1, 166447, Note_on_c, 1, 74, 0
1, 166512, Note_on_c, 0, 82, 0
1, 166536, Note_on_c, 1, 73, 0
1, 166560, Note_on_c, 1, 78, 77
1, 166656, Note_on_c, 1, 78, 0
1, 166680, Note_on_c, 1, 76, 76
1, 166776, Note_on_c, 1, 76, 0
1, 166800, Note_on_c, 0, 76, 84
1, 166800, Note_on_c, 1, 74, 75
1, 166896, Note_on_c, 1, 74, 0
1, 166920, Note_on_c, 1, 73, 73
1, 167016, Note_on_c, 1, 73, 0
1, 167040, Note_on_c, 1, 71, 72
1, 167160, Note_on_c, 0, 74, 76
1, 167167, Note_on_c, 0, 76, 0
1, 167232, Note_on_c, 1, 71, 0
1, 167256, Note_on_c, 0, 74, 0
1, 167280, Note_on_c, 0, 78, 75
1, 167376, Note_on_c, 0, 78, 0
1, 167400, Note_on_c, 0, 76, 74
1, 167496, Note_on_c, 0, 76, 0
1, 167520, Note_on_c, 0, 74, 72
1, 167520, Note_on_c, 1, 64, 78
1, 167616, Note_on_c, 0, 74, 0
1, 167640, Note_on_c, 0, 73, 71
1, 167736, Note_on_c, 0, 73, 0
1, 167760, Note_on_c, 0, 71, 70
1, 167880, Note_on_c, 1, 64, 0
1, 167880, Note_on_c, 1, 62, 73
1, 167952, Note_on_c, 0, 71, 0
1, 167976, Note_on_c, 1, 62, 0
1, 168000, Note_on_c, 1, 67, 72
1, 168096, Note_on_c, 1, 67, 0
1, 168120, Note_on_c, 1, 66, 71
1, 168216, Note_on_c, 1, 66, 0
1, 168240, Note_on_c, 0, 78, 78
1, 168240, Note_on_c, 1, 64, 70
1, 168336, Note_on_c, 1, 64, 0
1, 168360, Note_on_c, 1, 62, 69
1, 168456, Note_on_c, 1, 62, 0
1, 168480, Note_on_c, 1, 61, 68
1, 168600, Note_on_c, 0, 76, 71
1, 168607, Note_on_c, 0, 78, 0
1, 168672, Note_on_c, 1, 61, 0
1, 168696, Note_on_c, 0, 76, 0
1, 168720, Note_on_c, 0, 79, 69
1, 168816, Note_on_c, 0, 79, 0
1, 168840, Note_on_c, 0, 78, 68
1, 168936, Note_on_c, 0, 78, 0
1, 168960, Note_on_c, 0, 76, 67
1, 168960, Note_on_c, 1, 66, 76
1, 169056, Note_on_c, 0, 76, 0
1, 169080, Note_on_c, 0, 74, 66
1, 169176, Note_on_c, 0, 74, 0
1, 169200, Note_on_c, 0, 73, 65
1, 169320, Note_on_c, 1, 64, 70
1, 169327, Note_on_c, 1, 66, 0
1, 169392, Note_on_c, 0, 73, 0
1, 169416, Note_on_c, 1, 64, 0
1, 169440, Note_on_c, 1, 69, 69
1, 169536, Note_on_c, 1, 69, 0
1, 169560, Note_on_c, 1, 67, 68
1, 169656, Note_on_c, 1, 67, 0
1, 169680, Note_on_c, 0, 79, 72
1, 169680, Note_on_c, 1, 66, 67
1, 169776, Note_on_c, 1, 66, 0
1, 169800, Note_on_c, 1, 64, 66
1, 169872, Note_on_c, 0, 79, 0
1, 169896, Note_on_c, 1, 64, 0
1, 169920, Note_on_c, 0, 78, 70
1, 169920, Note_on_c, 1, 62, 65
1, 170016, Note_on_c, 0, 78, 0
1, 170040, Note_on_c, 0, 74, 71
1, 170112, Note_on_c, 1, 62, 0
1, 170136, Note_on_c, 0, 74, 0
1, 170160, Note_on_c, 0, 78, 72
1, 170256, Note_on_c, 0, 78, 0
1, 170280, Note_on_c, 0, 81, 73
1, 170376, Note_on_c, 0, 81, 0
1, 170400, Note_on_c, 0, 86, 75
1, 170400, Note_on_c, 1, 67, 77
1, 170400, Note_on_c, 1, 64, 77
1, 170496, Note_on_c, 0, 86, 0
1, 170520, Note_on_c, 0, 85, 76
1, 170592, Note_on_c, 1, 64, 0
1, 170592, Note_on_c, 1, 67, 0
1, 170616, Note_on_c, 0, 85, 0
1, 170640, Note_on_c, 1, 62, 80
1, 170640, Note_on_c, 1, 66, 80
1, 170760, Note_on_c, 0, 71, 78
1, 170856, Note_on_c, 0, 71, 0
1, 170880, Note_on_c, 0, 74, 79
1, 170976, Note_on_c, 0, 74, 0
1, 171000, Note_on_c, 0, 78, 81
1, 171060, Note_on_c, 1, 66, 0
1, 171060, Note_on_c, 1, 62, 0
1, 171096, Note_on_c, 0, 78, 0
1, 171120, Note_on_c, 0, 83, 82
1, 171120, Note_on_c, 1, 61, 86
1, 171120, Note_on_c, 1, 64, 86
1, 171216, Note_on_c, 0, 83, 0
1, 171240, Note_on_c, 0, 81, 83
1, 171312, Note_on_c, 1, 64, 0
1, 171312, Note_on_c, 1, 61, 0
1, 171336, Note_on_c, 0, 81, 0
1, 171360, Note_on_c, 1, 62, 89
1, 171360, Note_on_c, 1, 59, 89
1, 171480, Note_on_c, 0, 67, 85
1, 171576, Note_on_c, 0, 67, 0
1, 171600, Note_on_c, 0, 71, 86
1, 171696, Note_on_c, 0, 71, 0
1, 171720, Note_on_c, 0, 74, 88
1, 171780, Note_on_c, 1, 59, 0
1, 171780, Note_on_c, 1, 62, 0
1, 171816, Note_on_c, 0, 74, 0
1, 171840, Note_on_c, 0, 79, 89
1, 171840, Note_on_c, 1, 57, 94
1, 171840, Note_on_c, 1, 61, 94
1, 171936, Note_on_c, 0, 79, 0
1, 171960, Note_on_c, 0, 78, 90
1, 172032, Note_on_c, 1, 61, 0
1, 172032, Note_on_c, 1, 57, 0
1, 172056, Note_on_c, 0, 78, 0
1, 172080, Note_on_c, 1, 59, 97
1, 172080, Note_on_c, 1, 55, 97
1, 172200, Note_on_c, 0, 64, 92
1, 172296, Note_on_c, 0, 64, 0
1, 172320, Note_on_c, 0, 67, 94
1, 172416, Note_on_c, 0, 67, 0
1, 172440, Note_on_c, 0, 71, 95
1, 172500, Note_on_c, 1, 55, 0
1, 172500, Note_on_c, 1, 59, 0
1, 172536, Note_on_c, 0, 71, 0
1, 172560, Note_on_c, 0, 76, 96
1, 172560, Note_on_c, 1, 56, 103
1, 172560, Note_on_c, 1, 59, 103
1, 172656, Note_on_c, 0, 76, 0
1, 172680, Note_on_c, 0, 74, 97
1, 172752, Note_on_c, 1, 59, 0
1, 172752, Note_on_c, 1, 56, 0
1, 172776, Note_on_c, 0, 74, 0
1, 172800, Note_on_c, 0, 73, 99
1, 172800, Note_on_c, 1, 57, 103
1, 172896, Note_on_c, 1, 57, 0
1, 172920, Note_on_c, 1, 64, 103
1, 172992, Note_on_c, 0, 73, 0
1, 173016, Note_on_c, 1, 64, 0
1, 173040, Note_on_c, 0, 81, 99
1, 173040, Note_on_c, 1, 61, 103
1, 173136, Note_on_c, 1, 61, 0
1, 173160, Note_on_c, 1, 64, 102
1, 173232, Note_on_c, 0, 81, 0
1, 173256, Note_on_c, 1, 64, 0
1, 173280, Note_on_c, 0, 78, 99
1, 173280, Note_on_c, 1, 74, 99
1, 173280, Note_on_c, 1, 62, 102
1, 173376, Note_on_c, 1, 62, 0
1, 173400, Note_on_c, 1, 66, 102
1, 173472, Note_on_c, 0, 78, 0
1, 173472, Note_on_c, 1, 74, 0
1, 173496, Note_on_c, 1, 66, 0
1, 173520, Note_on_c, 0, 76, 99
1, 173520, Note_on_c, 1, 73, 99
1, 173520, Note_on_c, 1, 57, 101
1, 173616, Note_on_c, 1, 57, 0
1, 173640, Note_on_c, 1, 64, 101
1, 173712, Note_on_c, 0, 76, 0
1, 173712, Note_on_c, 1, 73, 0
1, 173736, Note_on_c, 1, 64, 0
1, 173760, Note_on_c, 0, 81, 99
1, 173760, Note_on_c, 1, 61, 101
1, 173856, Note_on_c, 1, 61, 0
1, 173880, Note_on_c, 1, 64, 101
1, 173952, Note_on_c, 0, 81, 0
1, 173976, Note_on_c, 1, 64, 0
1, 174000, Note_on_c, 0, 78, 98
1, 174000, Note_on_c, 1, 74, 98
1, 174000, Note_on_c, 1, 62, 100
1, 174096, Note_on_c, 1, 62, 0
1, 174120, Note_on_c, 1, 66, 100
1, 174192, Note_on_c, 0, 78, 0
1, 174192, Note_on_c, 1, 74, 0
1, 174216, Note_on_c, 1, 66, 0
1, 174240, Note_on_c, 0, 76, 98
1, 174240, Note_on_c, 1, 73, 98
1, 174240, Note_on_c, 1, 57, 100
1, 174240, Note_on_c, 1, 64, 100
1, 174432, Note_on_c, 0, 76, 0
1, 174432, Note_on_c, 1, 64, 0
1, 174432, Note_on_c, 1, 57, 0
1, 174432, Note_on_c, 1, 73, 0
1, 174480, Note_on_c, 0, 81, 98
1, 174672, Note_on_c, 0, 81, 0
1, 174720, Note_on_c, 0, 69, 94
1, 174720, Note_on_c, 1, 57, 97
1, 174720, Note_on_c, 1, 45, 97
1, 174912, Note_on_c, 0, 69, 0
1, 174912, Note_on_c, 1, 45, 0
1, 174912, Note_on_c, 1, 57, 0
1, 174960, Note_on_c, 0, 69, 91
1, 174960, Note_on_c, 1, 57, 95
1, 174960, Note_on_c, 1, 45, 95
1, 175320, Note_on_c, 0, 69, 0
1, 175320, Note_on_c, 1, 45, 0
1, 175320, Note_on_c, 1, 57, 0
1, 175440, Note_on_c, 0, 66, 59
1, 175680, Note_on_c, 0, 66, 0
1, 175680, Note_on_c, 0, 67, 61
1, 176160, Note_on_c, 0, 67, 0
1, 176160, Note_on_c, 0, 69, 65
1, 176400, Note_on_c, 0, 69, 0
1, 176400, Note_on_c, 0, 71, 67
1, 176640, Note_on_c, 0, 71, 0
1, 176640, Note_on_c, 0, 69, 66
1, 176760, Note_on_c, 0, 69, 0
1, 176760, Note_on_c, 0, 67, 66
1, 176880, Note_on_c, 0, 67, 0
1, 176880, Note_on_c, 0, 66, 66
1, 177000, Note_on_c, 0, 66, 0
1, 177000, Note_on_c, 0, 64, 65
1, 177120, Note_on_c, 0, 64, 0
1, 177120, Note_on_c, 0, 62, 65
1, 177120, Note_on_c, 1, 55, 59
1, 177120, Note_on_c, 1, 52, 59
1, 177120, Note_on_c, 1, 45, 59
1, 177840, Note_on_c, 0, 62, 0
1, 177840, Note_on_c, 0, 61, 60
1, 178248, Note_on_c, 0, 61, 0
1, 178252, Note_on_c, 1, 45, 0
1, 178260, Note_on_c, 1, 52, 0
1, 178267, Note_on_c, 1, 55, 0
1, 178320, Note_on_c, 0, 59, 61
1, 178320, Note_on_c, 1, 43, 55
1, 178320, Note_on_c, 1, 49, 55
1, 178512, Note_on_c, 0, 59, 0
1, 178512, Note_on_c, 1, 49, 0
1, 178512, Note_on_c, 1, 43, 0
1, 178560, Note_on_c, 0, 59, 60
1, 178560, Note_on_c, 1, 42, 56
1, 178560, Note_on_c, 1, 50, 56
1, 178800, Note_on_c, 0, 59, 0
1, 178800, Note_on_c, 0, 57, 59
1, 178992, Note_on_c, 0, 57, 0
1, 179040, Note_on_c, 0, 57, 58
1, 179040, Note_on_c, 1, 50, 0
1, 179040, Note_on_c, 1, 42, 0
1, 179232, Note_on_c, 0, 57, 0
1, 179280, Note_on_c, 0, 57, 57
1, 179520, Note_on_c, 0, 57, 0
1, 179520, Note_on_c, 0, 62, 56
1, 179520, Note_on_c, 1, 42, 52
1, 179712, Note_on_c, 0, 62, 0
1, 179760, Note_on_c, 0, 66, 56
1, 179760, Note_on_c, 1, 42, 0
1, 179760, Note_on_c, 1, 62, 54
1, 179760, Note_on_c, 1, 38, 54
1, 179952, Note_on_c, 0, 66, 0
1, 179952, Note_on_c, 1, 62, 0
1, 180000, Note_on_c, 0, 66, 61
1, 180000, Note_on_c, 1, 38, 0
1, 180000, Note_on_c, 1, 62, 59
1, 180000, Note_on_c, 1, 45, 59
1, 180480, Note_on_c, 0, 66, 0
1, 180480, Note_on_c, 0, 67, 56
1, 180480, Note_on_c, 1, 62, 0
1, 180480, Note_on_c, 1, 64, 54
1, 180672, Note_on_c, 0, 67, 0
1, 180672, Note_on_c, 1, 64, 0
1, 180720, Note_on_c, 0, 64, 53
1, 180720, Note_on_c, 1, 61, 52
1, 180912, Note_on_c, 0, 64, 0
1, 180912, Note_on_c, 1, 61, 0
1, 180960, Note_on_c, 1, 45, 0
1, 181200, Note_on_c, 0, 66, 63
1, 181440, Note_on_c, 0, 66, 0
1, 181440, Note_on_c, 0, 67, 65
1, 181920, Note_on_c, 0, 67, 0
1, 181920, Note_on_c, 0, 69, 69
1, 182160, Note_on_c, 0, 69, 0
1, 182160, Note_on_c, 0, 71, 71
1, 182400, Note_on_c, 0, 71, 0
1, 182400, Note_on_c, 0, 69, 71
1, 182520, Note_on_c, 0, 69, 0
1, 182520, Note_on_c, 0, 67, 70
1, 182640, Note_on_c, 0, 67, 0
1, 182640, Note_on_c, 0, 66, 70
1, 182760, Note_on_c, 0, 66, 0
1, 182760, Note_on_c, 0, 64, 70
1, 182880, Note_on_c, 0, 64, 0
1, 182880, Note_on_c, 0, 62, 69
1, 182880, Note_on_c, 1, 55, 60
1, 182880, Note_on_c, 1, 52, 60
1, 182880, Note_on_c, 1, 45, 60
1, 183600, Note_on_c, 0, 62, 0
1, 183600, Note_on_c, 0, 61, 62
1, 183792, Note_on_c, 0, 61, 0
1, 183840, Note_on_c, 0, 71, 66
1, 184020, Note_on_c, 1, 52, 0
1, 184020, Note_on_c, 1, 55, 0
1, 184027, Note_on_c, 1, 45, 0
1, 184080, Note_on_c, 0, 71, 0
1, 184080, Note_on_c, 0, 69, 65
1, 184080, Note_on_c, 1, 43, 59
1, 184080, Note_on_c, 1, 49, 59
1, 184272, Note_on_c, 0, 69, 0
1, 184272, Note_on_c, 1, 49, 0
1, 184272, Note_on_c, 1, 43, 0
1, 184320, Note_on_c, 0, 69, 65
1, 184320, Note_on_c, 1, 42, 63
1, 184320, Note_on_c, 1, 50, 63
1, 184512, Note_on_c, 1, 50, 0
1, 184512, Note_on_c, 1, 42, 0
1, 184560, Note_on_c, 0, 69, 0
1, 184560, Note_on_c, 0, 74, 64
1, 184752, Note_on_c, 0, 74, 0
1, 184800, Note_on_c, 0, 62, 63
1, 184800, Note_on_c, 1, 47, 60
1, 184800, Note_on_c, 1, 55, 60
1, 184992, Note_on_c, 0, 62, 0
1, 184992, Note_on_c, 1, 55, 0
1, 184992, Note_on_c, 1, 47, 0
1, 185040, Note_on_c, 0, 66, 62
1, 185040, Note_on_c, 1, 62, 62
1, 185040, Note_on_c, 1, 45, 60
1, 185040, Note_on_c, 1, 57, 60
1, 185232, Note_on_c, 0, 66, 0
1, 185232, Note_on_c, 1, 57, 0
1, 185232, Note_on_c, 1, 45, 0
1, 185232, Note_on_c, 1, 62, 0
1, 185520, Note_on_c, 0, 64, 58
1, 185520, Note_on_c, 1, 61, 57
1, 185520, Note_on_c, 1, 45, 57
1, 185520, Note_on_c, 1, 55, 57
1, 185712, Note_on_c, 0, 64, 0
1, 185712, Note_on_c, 1, 55, 0
1, 185712, Note_on_c, 1, 45, 0
1, 185712, Note_on_c, 1, 61, 0
1, 185760, Note_on_c, 0, 64, 60
1, 185760, Note_on_c, 1, 61, 60
1, 185760, Note_on_c, 1, 55, 58
1, 185760, Note_on_c, 1, 50, 58
1, 186480, Note_on_c, 0, 64, 0
1, 186480, Note_on_c, 0, 62, 58
1, 186480, Note_on_c, 1, 61, 0
1, 186480, Note_on_c, 1, 54, 56
1, 186487, Note_on_c, 1, 55, 0
1, 186720, Note_on_c, 0, 62, 0
1, 186720, Note_on_c, 1, 54, 0
1, 186727, Note_on_c, 1, 50, 0
1, 186960, Note_on_c, 0, 78, 59
1, 187200, Note_on_c, 0, 78, 0
1, 187200, Note_on_c, 0, 79, 61
1, 187392, Note_on_c, 0, 79, 0
1, 187440, Note_on_c, 0, 79, 64
1, 187560, Note_on_c, 0, 79, 0
1, 187560, Note_on_c, 0, 78, 65
1, 187680, Note_on_c, 0, 78, 0
1, 187680, Note_on_c, 0, 81, 66
1, 187800, Note_on_c, 0, 81, 0
1, 187800, Note_on_c, 0, 79, 67
1, 187920, Note_on_c, 0, 79, 0
1, 187920, Note_on_c, 0, 83, 68
1, 188040, Note_on_c, 0, 83, 0
1, 188040, Note_on_c, 0, 81, 69
1, 188160, Note_on_c, 0, 81, 0
1, 188160, Note_on_c, 0, 79, 69
1, 188280, Note_on_c, 0, 79, 0
1, 188280, Note_on_c, 0, 78, 69
1, 188400, Note_on_c, 0, 78, 0
1, 188400, Note_on_c, 0, 79, 67
1, 188520, Note_on_c, 0, 79, 0
1, 188520, Note_on_c, 0, 76, 67
1, 188640, Note_on_c, 0, 76, 0
1, 188640, Note_on_c, 0, 74, 67
1, 188640, Note_on_c, 1, 67, 65
1, 188640, Note_on_c, 1, 64, 65
1, 188640, Note_on_c, 1, 57, 65
1, 189120, Note_on_c, 0, 74, 0
1, 189120, Note_on_c, 0, 76, 65
1, 189240, Note_on_c, 0, 76, 0
1, 189240, Note_on_c, 0, 74, 65
1, 189360, Note_on_c, 0, 74, 0
1, 189360, Note_on_c, 0, 73, 65
1, 189787, Note_on_c, 1, 57, 0
1, 189795, Note_on_c, 1, 67, 0
1, 189802, Note_on_c, 0, 73, 0
1, 189802, Note_on_c, 1, 64, 0
1, 189840, Note_on_c, 0, 71, 63
1, 189840, Note_on_c, 1, 68, 60
1, 189840, Note_on_c, 1, 62, 60
1, 189840, Note_on_c, 1, 59, 60
1, 190032, Note_on_c, 0, 71, 0
1, 190032, Note_on_c, 1, 59, 0
1, 190032, Note_on_c, 1, 62, 0
1, 190032, Note_on_c, 1, 68, 0
1, 190080, Note_on_c, 0, 71, 63
1, 190080, Note_on_c, 1, 67, 62
1, 190080, Note_on_c, 1, 61, 62
1, 190080, Note_on_c, 1, 64, 62
1, 190320, Note_on_c, 0, 71, 0
1, 190320, Note_on_c, 0, 69, 62
1, 190512, Note_on_c, 0, 69, 0
1, 190560, Note_on_c, 0, 69, 61
1, 190752, Note_on_c, 0, 69, 0
1, 190800, Note_on_c, 0, 69, 59
1, 190800, Note_on_c, 1, 64, 0
1, 190800, Note_on_c, 1, 61, 0
1, 190800, Note_on_c, 1, 67, 0
1, 190800, Note_on_c, 1, 66, 58
1, 190800, Note_on_c, 1, 62, 58
1, 191040, Note_on_c, 0, 69, 0
1, 191040, Note_on_c, 0, 74, 58
1, 191232, Note_on_c, 0, 74, 0
1, 191280, Note_on_c, 0, 78, 56
1, 191280, Note_on_c, 1, 74, 56
1, 191472, Note_on_c, 0, 78, 0
1, 191472, Note_on_c, 1, 74, 0
1, 191520, Note_on_c, 0, 78, 58
1, 191520, Note_on_c, 1, 62, 0
1, 191520, Note_on_c, 1, 66, 0
1, 191520, Note_on_c, 1, 74, 59
1, 191520, Note_on_c, 1, 57, 59
1, 191520, Note_on_c, 1, 69, 59
1, 192000, Note_on_c, 0, 78, 0
1, 192000, Note_on_c, 0, 79, 56
1, 192000, Note_on_c, 1, 74, 0
1, 192000, Note_on_c, 1, 76, 55
1, 192192, Note_on_c, 0, 79, 0
1, 192192, Note_on_c, 1, 76, 0
1, 192240, Note_on_c, 0, 76, 54
1, 192240, Note_on_c, 1, 73, 53
1, 192432, Note_on_c, 0, 76, 0
1, 192432, Note_on_c, 1, 73, 0
1, 192480, Note_on_c, 1, 69, 0
1, 192480, Note_on_c, 1, 57, 0
1, 192720, Note_on_c, 0, 78, 57
1, 192960, Note_on_c, 0, 78, 0
1, 192960, Note_on_c, 0, 79, 60
1, 193152, Note_on_c, 0, 79, 0
1, 193200, Note_on_c, 0, 79, 62
1, 193320, Note_on_c, 0, 79, 0
1, 193320, Note_on_c, 0, 78, 64
1, 193440, Note_on_c, 0, 78, 0
1, 193440, Note_on_c, 0, 81, 65
1, 193560, Note_on_c, 0, 81, 0
1, 193560, Note_on_c, 0, 79, 66
1, 193680, Note_on_c, 0, 79, 0
1, 193680, Note_on_c, 0, 83, 69
1, 193800, Note_on_c, 0, 83, 0
1, 193800, Note_on_c, 0, 81, 68
1, 193920, Note_on_c, 0, 81, 0
1, 193920, Note_on_c, 0, 79, 67
1, 194040, Note_on_c, 0, 79, 0
1, 194040, Note_on_c, 0, 78, 66
1, 194160, Note_on_c, 0, 78, 0
1, 194160, Note_on_c, 0, 79, 65
1, 194280, Note_on_c, 0, 79, 0
1, 194280, Note_on_c, 0, 76, 64
1, 194400, Note_on_c, 0, 76, 0
1, 194400, Note_on_c, 0, 74, 63
1, 194400, Note_on_c, 1, 69, 63
1, 194400, Note_on_c, 1, 67, 63
1, 194520, Note_on_c, 0, 74, 0
1, 194520, Note_on_c, 0, 73, 62
1, 194640, Note_on_c, 0, 73, 0
1, 194640, Note_on_c, 0, 76, 60
1, 194760, Note_on_c, 0, 76, 0
1, 194760, Note_on_c, 0, 74, 62
1, 194880, Note_on_c, 0, 74, 0
1, 194880, Note_on_c, 0, 78, 63
1, 195000, Note_on_c, 0, 78, 0
1, 195000, Note_on_c, 0, 76, 65
1, 195120, Note_on_c, 0, 76, 0
1, 195120, Note_on_c, 0, 79, 66
1, 195240, Note_on_c, 0, 79, 0
1, 195240, Note_on_c, 0, 78, 68
1, 195360, Note_on_c, 0, 78, 0
1, 195360, Note_on_c, 0, 81, 69
1, 195360, Note_on_c, 1, 67, 0
1, 195360, Note_on_c, 1, 69, 0
1, 195480, Note_on_c, 0, 81, 0
1, 195480, Note_on_c, 0, 79, 70
1, 195600, Note_on_c, 0, 79, 0
1, 195600, Note_on_c, 0, 83, 72
1, 195720, Note_on_c, 0, 83, 0
1, 195720, Note_on_c, 0, 81, 73
1, 195840, Note_on_c, 0, 81, 0
1, 195840, Note_on_c, 0, 81, 75
1, 196080, Note_on_c, 1, 65, 67
1, 196080, Note_on_c, 1, 75, 67
1, 196272, Note_on_c, 1, 75, 0
1, 196272, Note_on_c, 1, 65, 0
1, 196320, Note_on_c, 1, 75, 65
1, 196320, Note_on_c, 1, 65, 65
1, 196512, Note_on_c, 1, 65, 0
1, 196512, Note_on_c, 1, 75, 0
1, 196560, Note_on_c, 0, 81, 0
1, 196560, Note_on_c, 0, 80, 70
1, 196800, Note_on_c, 1, 64, 61
1, 196800, Note_on_c, 1, 76, 61
1, 196992, Note_on_c, 1, 76, 0
1, 196992, Note_on_c, 1, 64, 0
1, 197040, Note_on_c, 1, 64, 60
1, 197040, Note_on_c, 1, 76, 60
1, 197232, Note_on_c, 1, 76, 0
1, 197232, Note_on_c, 1, 64, 0
1, 197280, Note_on_c, 0, 80, 0
1, 197280, Note_on_c, 0, 79, 64
1, 197520, Note_on_c, 1, 74, 56
1, 197520, Note_on_c, 1, 71, 56
1, 197712, Note_on_c, 1, 71, 0
1, 197712, Note_on_c, 1, 74, 0
1, 197760, Note_on_c, 1, 74, 54
1, 197760, Note_on_c, 1, 71, 54
1, 197952, Note_on_c, 1, 71, 0
1, 197952, Note_on_c, 1, 74, 0
1, 198000, Note_on_c, 0, 79, 0
1, 198000, Note_on_c, 0, 78, 59
1, 198000, Note_on_c, 1, 70, 53
1, 198000, Note_on_c, 1, 73, 53
1, 198192, Note_on_c, 1, 73, 0
1, 198192, Note_on_c, 1, 70, 0
1, 198240, Note_on_c, 0, 78, 0
1, 198480, Note_on_c, 0, 66, 91
1, 198636, Note_on_c, 0, 66, 0
1, 198720, Note_on_c, 0, 71, 91
1, 198720, Note_on_c, 1, 54, 95
1, 198876, Note_on_c, 0, 71, 0
1, 198876, Note_on_c, 1, 54, 0
1, 198960, Note_on_c, 0, 66, 90
1, 198960, Note_on_c, 1, 59, 94
1, 199116, Note_on_c, 0, 66, 0
1, 199116, Note_on_c, 1, 59, 0
1, 199200, Note_on_c, 0, 71, 90
1, 199200, Note_on_c, 1, 54, 94
1, 199356, Note_on_c, 0, 71, 0
1, 199356, Note_on_c, 1, 54, 0
1, 199440, Note_on_c, 0, 74, 89
1, 199440, Note_on_c, 1, 59, 93
1, 199596, Note_on_c, 0, 74, 0
1, 199596, Note_on_c, 1, 59, 0
1, 199680, Note_on_c, 0, 71, 89
1, 199680, Note_on_c, 1, 62, 93
1, 199836, Note_on_c, 0, 71, 0
1, 199836, Note_on_c, 1, 62, 0
1, 199920, Note_on_c, 0, 74, 88
1, 199920, Note_on_c, 1, 59, 92
1, 200076, Note_on_c, 0, 74, 0
1, 200076, Note_on_c, 1, 59, 0
1, 200160, Note_on_c, 0, 78, 88
1, 200160, Note_on_c, 1, 62, 93
1, 200256, Note_on_c, 0, 78, 0
1, 200280, Note_on_c, 0, 76, 87
1, 200352, Note_on_c, 1, 62, 0
1, 200376, Note_on_c, 0, 76, 0
1, 200400, Note_on_c, 0, 74, 87
1, 200400, Note_on_c, 1, 66, 92
1, 200496, Note_on_c, 0, 74, 0
1, 200496, Note_on_c, 1, 66, 0
1, 200520, Note_on_c, 0, 73, 87
1, 200520, Note_on_c, 1, 64, 91
1, 200616, Note_on_c, 0, 73, 0
1, 200616, Note_on_c, 1, 64, 0
1, 200640, Note_on_c, 0, 71, 87
1, 200640, Note_on_c, 1, 62, 91
1, 200736, Note_on_c, 0, 71, 0
1, 200736, Note_on_c, 1, 62, 0
1, 200760, Note_on_c, 0, 70, 86
1, 200760, Note_on_c, 1, 61, 90
1, 200856, Note_on_c, 0, 70, 0
1, 200856, Note_on_c, 1, 61, 0
1, 200880, Note_on_c, 0, 74, 86
1, 200880, Note_on_c, 1, 59, 90
1, 200976, Note_on_c, 0, 74, 0
1, 200976, Note_on_c, 1, 59, 0
1, 201000, Note_on_c, 0, 73, 86
1, 201000, Note_on_c, 1, 58, 89
1, 201096, Note_on_c, 0, 73, 0
1, 201096, Note_on_c, 1, 58, 0
1, 201120, Note_on_c, 0, 71, 86
1, 201120, Note_on_c, 1, 62, 89
1, 201216, Note_on_c, 0, 71, 0
1, 201216, Note_on_c, 1, 62, 0
1, 201240, Note_on_c, 0, 69, 85
1, 201240, Note_on_c, 1, 61, 88
1, 201336, Note_on_c, 0, 69, 0
1, 201336, Note_on_c, 1, 61, 0
1, 201360, Note_on_c, 0, 67, 85
1, 201360, Note_on_c, 1, 59, 87
1, 201456, Note_on_c, 0, 67, 0
1, 201456, Note_on_c, 1, 59, 0
1, 201480, Note_on_c, 0, 66, 85
1, 201480, Note_on_c, 1, 57, 87
1, 201576, Note_on_c, 0, 66, 0
1, 201576, Note_on_c, 1, 57, 0
1, 201600, Note_on_c, 0, 64, 85
1, 201600, Note_on_c, 1, 55, 86
1, 201696, Note_on_c, 1, 55, 0
1, 201720, Note_on_c, 1, 54, 86
1, 201756, Note_on_c, 0, 64, 0
1, 201816, Note_on_c, 1, 54, 0
1, 201840, Note_on_c, 0, 59, 84
1, 201840, Note_on_c, 1, 52, 87
1, 201996, Note_on_c, 0, 59, 0
1, 201996, Note_on_c, 1, 52, 0
1, 202080, Note_on_c, 0, 64, 83
1, 202080, Note_on_c, 1, 47, 86
1, 202236, Note_on_c, 0, 64, 0
1, 202236, Note_on_c, 1, 47, 0
1, 202320, Note_on_c, 0, 67, 83
1, 202320, Note_on_c, 1, 52, 86
1, 202476, Note_on_c, 0, 67, 0
1, 202476, Note_on_c, 1, 52, 0
1, 202560, Note_on_c, 0, 64, 82
1, 202560, Note_on_c, 1, 55, 85
1, 202716, Note_on_c, 0, 64, 0
1, 202716, Note_on_c, 1, 55, 0
1, 202800, Note_on_c, 0, 67, 82
1, 202800, Note_on_c, 1, 52, 84
1, 202956, Note_on_c, 0, 67, 0
1, 202956, Note_on_c, 1, 52, 0
1, 203040, Note_on_c, 0, 71, 81
1, 203040, Note_on_c, 1, 55, 84
1, 203136, Note_on_c, 0, 71, 0
1, 203160, Note_on_c, 0, 69, 81
1, 203232, Note_on_c, 1, 55, 0
1, 203256, Note_on_c, 0, 69, 0
1, 203280, Note_on_c, 0, 67, 81
1, 203280, Note_on_c, 1, 59, 85
1, 203376, Note_on_c, 0, 67, 0
1, 203376, Note_on_c, 1, 59, 0
1, 203400, Note_on_c, 0, 66, 81
1, 203400, Note_on_c, 1, 57, 84
1, 203496, Note_on_c, 0, 66, 0
1, 203496, Note_on_c, 1, 57, 0
1, 203520, Note_on_c, 0, 64, 80
1, 203520, Note_on_c, 1, 55, 83
1, 203616, Note_on_c, 0, 64, 0
1, 203616, Note_on_c, 1, 55, 0
1, 203640, Note_on_c, 0, 63, 80
1, 203640, Note_on_c, 1, 54, 82
1, 203736, Note_on_c, 0, 63, 0
1, 203736, Note_on_c, 1, 54, 0
1, 203760, Note_on_c, 0, 79, 80
1, 203760, Note_on_c, 1, 52, 82
1, 203856, Note_on_c, 0, 79, 0
1, 203856, Note_on_c, 1, 52, 0
1, 203880, Note_on_c, 0, 78, 80
1, 203880, Note_on_c, 1, 51, 81
1, 203976, Note_on_c, 0, 78, 0
1, 203976, Note_on_c, 1, 51, 0
1, 204000, Note_on_c, 0, 76, 79
1, 204000, Note_on_c, 1, 67, 80
1, 204096, Note_on_c, 0, 76, 0
1, 204096, Note_on_c, 1, 67, 0
1, 204120, Note_on_c, 0, 74, 79
1, 204120, Note_on_c, 1, 66, 80
1, 204216, Note_on_c, 0, 74, 0
1, 204216, Note_on_c, 1, 66, 0
1, 204240, Note_on_c, 0, 73, 79
1, 204240, Note_on_c, 1, 64, 79
1, 204336, Note_on_c, 0, 73, 0
1, 204336, Note_on_c, 1, 64, 0
1, 204360, Note_on_c, 0, 71, 78
1, 204360, Note_on_c, 1, 62, 78
1, 204456, Note_on_c, 0, 71, 0
1, 204456, Note_on_c, 1, 62, 0
1, 204480, Note_on_c, 0, 69, 78
1, 204480, Note_on_c, 1, 61, 77
1, 204576, Note_on_c, 1, 61, 0
1, 204600, Note_on_c, 1, 59, 77
1, 204636, Note_on_c, 0, 69, 0
1, 204696, Note_on_c, 1, 59, 0
1, 204720, Note_on_c, 0, 64, 78
1, 204720, Note_on_c, 1, 57, 76
1, 204876, Note_on_c, 0, 64, 0
1, 204876, Note_on_c, 1, 57, 0
1, 204960, Note_on_c, 0, 69, 77
1, 204960, Note_on_c, 1, 52, 79
1, 205116, Note_on_c, 0, 69, 0
1, 205116, Note_on_c, 1, 52, 0
1, 205200, Note_on_c, 0, 73, 77
1, 205200, Note_on_c, 1, 57, 78
1, 205356, Note_on_c, 0, 73, 0
1, 205356, Note_on_c, 1, 57, 0
1, 205440, Note_on_c, 0, 69, 76
1, 205440, Note_on_c, 1, 61, 77
1, 205596, Note_on_c, 0, 69, 0
1, 205596, Note_on_c, 1, 61, 0
1, 205680, Note_on_c, 0, 73, 76
1, 205680, Note_on_c, 1, 57, 77
1, 205836, Note_on_c, 0, 73, 0
1, 205836, Note_on_c, 1, 57, 0
1, 205920, Note_on_c, 0, 76, 75
1, 205920, Note_on_c, 1, 61, 76
1, 206016, Note_on_c, 0, 76, 0
1, 206040, Note_on_c, 0, 78, 75
1, 206112, Note_on_c, 1, 61, 0
1, 206136, Note_on_c, 0, 78, 0
1, 206160, Note_on_c, 0, 79, 74
1, 206160, Note_on_c, 1, 64, 77
1, 206256, Note_on_c, 0, 79, 0
1, 206256, Note_on_c, 1, 64, 0
1, 206280, Note_on_c, 0, 78, 74
1, 206280, Note_on_c, 1, 66, 76
1, 206376, Note_on_c, 0, 78, 0
1, 206376, Note_on_c, 1, 66, 0
1, 206400, Note_on_c, 0, 76, 74
1, 206400, Note_on_c, 1, 67, 75
1, 206496, Note_on_c, 0, 76, 0
1, 206496, Note_on_c, 1, 67, 0
1, 206520, Note_on_c, 0, 74, 74
1, 206520, Note_on_c, 1, 66, 74
1, 206616, Note_on_c, 0, 74, 0
1, 206616, Note_on_c, 1, 66, 0
1, 206640, Note_on_c, 0, 73, 73
1, 206640, Note_on_c, 1, 64, 73
1, 206736, Note_on_c, 0, 73, 0
1, 206736, Note_on_c, 1, 64, 0
1, 206760, Note_on_c, 0, 71, 73
1, 206760, Note_on_c, 1, 62, 73
1, 206856, Note_on_c, 0, 71, 0
1, 206856, Note_on_c, 1, 62, 0
1, 206880, Note_on_c, 0, 69, 73
1, 206880, Note_on_c, 1, 61, 72
1, 206976, Note_on_c, 0, 69, 0
1, 206976, Note_on_c, 1, 61, 0
1, 207000, Note_on_c, 0, 71, 73
1, 207000, Note_on_c, 1, 59, 71
1, 207096, Note_on_c, 0, 71, 0
1, 207096, Note_on_c, 1, 59, 0
1, 207120, Note_on_c, 0, 67, 72
1, 207120, Note_on_c, 1, 61, 70
1, 207216, Note_on_c, 0, 67, 0
1, 207216, Note_on_c, 1, 61, 0
1, 207240, Note_on_c, 0, 69, 72
1, 207240, Note_on_c, 1, 57, 69
1, 207336, Note_on_c, 0, 69, 0
1, 207336, Note_on_c, 1, 57, 0
1, 207360, Note_on_c, 0, 66, 72
1, 207360, Note_on_c, 1, 62, 68
1, 207456, Note_on_c, 0, 66, 0
1, 207480, Note_on_c, 0, 69, 72
1, 207576, Note_on_c, 0, 69, 0
1, 207600, Note_on_c, 0, 68, 73
1, 207696, Note_on_c, 0, 68, 0
1, 207720, Note_on_c, 0, 69, 74
1, 207720, Note_on_c, 1, 62, 0
1, 207816, Note_on_c, 0, 69, 0
1, 207840, Note_on_c, 0, 71, 74
1, 207936, Note_on_c, 0, 71, 0
1, 207960, Note_on_c, 0, 69, 75
1, 208056, Note_on_c, 0, 69, 0
1, 208080, Note_on_c, 0, 74, 75
1, 208080, Note_on_c, 1, 62, 76
1, 208080, Note_on_c, 1, 66, 76
1, 208176, Note_on_c, 0, 74, 0
1, 208200, Note_on_c, 0, 69, 76
1, 208296, Note_on_c, 0, 69, 0
1, 208320, Note_on_c, 0, 68, 76
1, 208416, Note_on_c, 0, 68, 0
1, 208440, Note_on_c, 0, 69, 77
1, 208440, Note_on_c, 1, 66, 0
1, 208440, Note_on_c, 1, 62, 0
1, 208536, Note_on_c, 0, 69, 0
1, 208560, Note_on_c, 0, 71, 78
1, 208656, Note_on_c, 0, 71, 0
1, 208680, Note_on_c, 0, 69, 78
1, 208776, Note_on_c, 0, 69, 0
1, 208800, Note_on_c, 0, 64, 82
1, 208800, Note_on_c, 1, 61, 88
1, 208896, Note_on_c, 0, 64, 0
1, 208920, Note_on_c, 0, 69, 81
1, 209016, Note_on_c, 0, 69, 0
1, 209040, Note_on_c, 0, 68, 80
1, 209136, Note_on_c, 0, 68, 0
1, 209160, Note_on_c, 0, 69, 79
1, 209160, Note_on_c, 1, 61, 0
1, 209256, Note_on_c, 0, 69, 0
1, 209280, Note_on_c, 0, 66, 79
1, 209280, Note_on_c, 1, 62, 79
1, 209376, Note_on_c, 0, 66, 0
1, 209400, Note_on_c, 0, 69, 78
1, 209472, Note_on_c, 1, 62, 0
1, 209496, Note_on_c, 0, 69, 0
1, 209520, Note_on_c, 0, 67, 77
1, 209520, Note_on_c, 1, 64, 75
1, 209616, Note_on_c, 0, 67, 0
1, 209640, Note_on_c, 0, 69, 77
1, 209712, Note_on_c, 1, 64, 0
1, 209736, Note_on_c, 0, 69, 0
1, 209760, Note_on_c, 0, 66, 76
1, 209760, Note_on_c, 1, 62, 71
1, 209856, Note_on_c, 0, 66, 0
1, 209880, Note_on_c, 0, 69, 75
1, 209952, Note_on_c, 1, 62, 0
1, 209976, Note_on_c, 0, 69, 0
1, 210000, Note_on_c, 0, 64, 75
1, 210000, Note_on_c, 1, 61, 68
1, 210096, Note_on_c, 0, 64, 0
1, 210120, Note_on_c, 0, 69, 74
1, 210192, Note_on_c, 1, 61, 0
1, 210216, Note_on_c, 0, 69, 0
1, 210240, Note_on_c, 1, 66, 62
1, 210240, Note_on_c, 1, 62, 62
1, 210360, Note_on_c, 0, 81, 59
1, 210456, Note_on_c, 0, 81, 0
1, 210480, Note_on_c, 0, 80, 59
1, 210576, Note_on_c, 0, 80, 0
1, 210600, Note_on_c, 0, 81, 60
1, 210600, Note_on_c, 1, 62, 0
1, 210600, Note_on_c, 1, 66, 0
1, 210696, Note_on_c, 0, 81, 0
1, 210720, Note_on_c, 0, 83, 61
1, 210816, Note_on_c, 0, 83, 0
1, 210840, Note_on_c, 0, 81, 62
1, 210936, Note_on_c, 0, 81, 0
1, 210960, Note_on_c, 0, 86, 63
1, 210960, Note_on_c, 1, 74, 67
1, 210960, Note_on_c, 1, 78, 67
1, 211056, Note_on_c, 0, 86, 0
1, 211080, Note_on_c, 0, 81, 64
1, 211176, Note_on_c, 0, 81, 0
1, 211200, Note_on_c, 0, 80, 65
1, 211296, Note_on_c, 0, 80, 0
1, 211320, Note_on_c, 0, 81, 66
1, 211320, Note_on_c, 1, 78, 0
1, 211320, Note_on_c, 1, 74, 0
1, 211416, Note_on_c, 0, 81, 0
1, 211440, Note_on_c, 0, 83, 67
1, 211536, Note_on_c, 0, 83, 0
1, 211560, Note_on_c, 0, 81, 68
1, 211656, Note_on_c, 0, 81, 0
1, 211680, Note_on_c, 0, 76, 69
1, 211680, Note_on_c, 1, 73, 73
1, 211776, Note_on_c, 0, 76, 0
1, 211800, Note_on_c, 0, 81, 71
1, 211896, Note_on_c, 0, 81, 0
1, 211920, Note_on_c, 0, 80, 69
1, 212016, Note_on_c, 0, 80, 0
1, 212040, Note_on_c, 0, 81, 68
1, 212040, Note_on_c, 1, 73, 0
1, 212136, Note_on_c, 0, 81, 0
1, 212160, Note_on_c, 0, 78, 66
1, 212160, Note_on_c, 1, 74, 70
1, 212256, Note_on_c, 0, 78, 0
1, 212280, Note_on_c, 0, 81, 65
1, 212352, Note_on_c, 1, 74, 0
1, 212376, Note_on_c, 0, 81, 0
1, 212400, Note_on_c, 0, 79, 64
1, 212400, Note_on_c, 1, 76, 68
1, 212496, Note_on_c, 0, 79, 0
1, 212520, Note_on_c, 0, 81, 63
1, 212592, Note_on_c, 1, 76, 0
1, 212616, Note_on_c, 0, 81, 0
1, 212640, Note_on_c, 0, 78, 62
1, 212640, Note_on_c, 1, 74, 66
1, 212736, Note_on_c, 0, 78, 0
1, 212760, Note_on_c, 0, 81, 61
1, 212832, Note_on_c, 1, 74, 0
1, 212856, Note_on_c, 0, 81, 0
1, 212880, Note_on_c, 0, 76, 60
1, 212880, Note_on_c, 1, 73, 65
1, 212976, Note_on_c, 0, 76, 0
1, 213000, Note_on_c, 0, 81, 58
1, 213072, Note_on_c, 1, 73, 0
1, 213096, Note_on_c, 0, 81, 0
1, 213120, Note_on_c, 1, 74, 66
1, 213240, Note_on_c, 0, 78, 60
1, 213336, Note_on_c, 0, 78, 0
1, 213360, Note_on_c, 0, 79, 61
1, 213456, Note_on_c, 0, 79, 0
1, 213480, Note_on_c, 0, 81, 62
1, 213576, Note_on_c, 0, 81, 0
1, 213600, Note_on_c, 0, 83, 63
1, 213600, Note_on_c, 1, 74, 0
1, 213696, Note_on_c, 0, 83, 0
1, 213720, Note_on_c, 0, 85, 64
1, 213816, Note_on_c, 0, 85, 0
1, 213840, Note_on_c, 0, 86, 65
1, 213840, Note_on_c, 1, 62, 70
1, 213840, Note_on_c, 1, 66, 70
1, 213936, Note_on_c, 0, 86, 0
1, 213960, Note_on_c, 0, 85, 66
1, 214056, Note_on_c, 0, 85, 0
1, 214080, Note_on_c, 0, 83, 67
1, 214080, Note_on_c, 1, 66, 0
1, 214080, Note_on_c, 1, 62, 0
1, 214080, Note_on_c, 1, 67, 72
1, 214080, Note_on_c, 1, 64, 72
1, 214176, Note_on_c, 0, 83, 0
1, 214200, Note_on_c, 0, 81, 67
1, 214296, Note_on_c, 0, 81, 0
1, 214320, Note_on_c, 0, 79, 68
1, 214320, Note_on_c, 1, 64, 0
1, 214320, Note_on_c, 1, 67, 0
1, 214320, Note_on_c, 1, 66, 73
1, 214320, Note_on_c, 1, 69, 73
1, 214416, Note_on_c, 0, 79, 0
1, 214440, Note_on_c, 0, 78, 69
1, 214536, Note_on_c, 0, 78, 0
1, 214560, Note_on_c, 1, 69, 0
1, 214560, Note_on_c, 1, 66, 0
1, 214560, Note_on_c, 1, 71, 75
1, 214560, Note_on_c, 1, 67, 75
1, 214680, Note_on_c, 0, 75, 71
1, 214776, Note_on_c, 0, 75, 0
1, 214800, Note_on_c, 0, 76, 72
1, 214896, Note_on_c, 0, 76, 0
1, 214920, Note_on_c, 0, 78, 73
1, 215016, Note_on_c, 0, 78, 0
1, 215040, Note_on_c, 0, 79, 74
1, 215040, Note_on_c, 1, 67, 0
1, 215040, Note_on_c, 1, 71, 0
1, 215136, Note_on_c, 0, 79, 0
1, 215160, Note_on_c, 0, 81, 75
1, 215256, Note_on_c, 0, 81, 0
1, 215280, Note_on_c, 0, 83, 76
1, 215280, Note_on_c, 1, 64, 79
1, 215280, Note_on_c, 1, 67, 79
1, 215376, Note_on_c, 0, 83, 0
1, 215400, Note_on_c, 0, 81, 77
1, 215496, Note_on_c, 0, 81, 0
1, 215520, Note_on_c, 0, 79, 78
1, 215520, Note_on_c, 1, 67, 0
1, 215520, Note_on_c, 1, 64, 0
1, 215520, Note_on_c, 1, 66, 80
1, 215520, Note_on_c, 1, 69, 80
1, 215616, Note_on_c, 0, 79, 0
1, 215640, Note_on_c, 0, 78, 79
1, 215736, Note_on_c, 0, 78, 0
1, 215760, Note_on_c, 0, 76, 80
1, 215760, Note_on_c, 1, 69, 0
1, 215760, Note_on_c, 1, 66, 0
1, 215760, Note_on_c, 1, 67, 82
1, 215760, Note_on_c, 1, 71, 82
1, 215856, Note_on_c, 0, 76, 0
1, 215880, Note_on_c, 0, 74, 81
1, 215976, Note_on_c, 0, 74, 0
1, 216000, Note_on_c, 1, 71, 0
1, 216000, Note_on_c, 1, 67, 0
1, 216000, Note_on_c, 1, 57, 86
1, 216120, Note_on_c, 0, 68, 81
1, 216216, Note_on_c, 0, 68, 0
1, 216240, Note_on_c, 0, 71, 82
1, 216240, Note_on_c, 1, 66, 84
1, 216240, Note_on_c, 1, 62, 84
1, 216336, Note_on_c, 0, 71, 0
1, 216360, Note_on_c, 0, 69, 83
1, 216432, Note_on_c, 1, 62, 0
1, 216432, Note_on_c, 1, 66, 0
1, 216456, Note_on_c, 0, 69, 0
1, 216480, Note_on_c, 0, 73, 84
1, 216480, Note_on_c, 1, 62, 87
1, 216480, Note_on_c, 1, 66, 87
1, 216576, Note_on_c, 0, 73, 0
1, 216600, Note_on_c, 0, 71, 86
1, 216672, Note_on_c, 1, 66, 0
1, 216672, Note_on_c, 1, 62, 0
1, 216696, Note_on_c, 0, 71, 0
1, 216720, Note_on_c, 0, 74, 87
1, 216720, Note_on_c, 1, 57, 0
1, 216720, Note_on_c, 1, 57, 94
1, 216816, Note_on_c, 0, 74, 0
1, 216840, Note_on_c, 0, 73, 88
1, 216936, Note_on_c, 0, 73, 0
1, 216960, Note_on_c, 0, 76, 89
1, 216960, Note_on_c, 1, 62, 92
1, 216960, Note_on_c, 1, 66, 92
1, 217056, Note_on_c, 0, 76, 0
1, 217080, Note_on_c, 0, 74, 90
1, 217152, Note_on_c, 1, 66, 0
1, 217152, Note_on_c, 1, 62, 0
1, 217176, Note_on_c, 0, 74, 0
1, 217200, Note_on_c, 0, 78, 92
1, 217200, Note_on_c, 1, 62, 94
1, 217200, Note_on_c, 1, 66, 94
1, 217296, Note_on_c, 0, 78, 0
1, 217320, Note_on_c, 0, 76, 93
1, 217392, Note_on_c, 1, 66, 0
1, 217392, Note_on_c, 1, 62, 0
1, 217416, Note_on_c, 0, 76, 0
1, 217440, Note_on_c, 0, 79, 94
1, 217440, Note_on_c, 1, 57, 0
1, 217440, Note_on_c, 1, 57, 104
1, 217536, Note_on_c, 0, 79, 0
1, 217560, Note_on_c, 0, 78, 95
1, 217656, Note_on_c, 0, 78, 0
1, 217680, Note_on_c, 0, 81, 97
1, 217680, Note_on_c, 1, 62, 99
1, 217680, Note_on_c, 1, 66, 99
1, 217776, Note_on_c, 0, 81, 0
1, 217800, Note_on_c, 0, 79, 98
1, 217872, Note_on_c, 1, 66, 0
1, 217872, Note_on_c, 1, 62, 0
1, 217896, Note_on_c, 0, 79, 0
1, 217920, Note_on_c, 0, 83, 99
1, 217920, Note_on_c, 1, 62, 101
1, 217920, Note_on_c, 1, 66, 101
1, 218016, Note_on_c, 0, 83, 0
1, 218040, Note_on_c, 0, 81, 100
1, 218112, Note_on_c, 1, 66, 0
1, 218112, Note_on_c, 1, 62, 0
1, 218136, Note_on_c, 0, 81, 0
1, 218160, Note_on_c, 0, 85, 101
1, 218160, Note_on_c, 1, 57, 0
1, 218160, Note_on_c, 1, 57, 113
1, 218256, Note_on_c, 0, 85, 0
1, 218280, Note_on_c, 0, 83, 103
1, 218376, Note_on_c, 0, 83, 0
1, 218400, Note_on_c, 0, 86, 104
1, 218400, Note_on_c, 1, 62, 106
1, 218400, Note_on_c, 1, 66, 106
1, 218496, Note_on_c, 0, 86, 0
1, 218520, Note_on_c, 0, 85, 105
1, 218592, Note_on_c, 1, 66, 0
1, 218592, Note_on_c, 1, 62, 0
1, 218616, Note_on_c, 0, 85, 0
1, 218640, Note_on_c, 0, 88, 106
1, 218640, Note_on_c, 1, 66, 108
1, 218640, Note_on_c, 1, 62, 108
1, 218736, Note_on_c, 0, 88, 0
1, 218760, Note_on_c, 0, 86, 108
1, 218832, Note_on_c, 1, 62, 0
1, 218832, Note_on_c, 1, 66, 0
1, 218856, Note_on_c, 0, 86, 0
1, 218880, Note_on_c, 0, 88, 109
1, 218880, Note_on_c, 1, 57, 0
1, 218880, Note_on_c, 1, 65, 111
1, 218880, Note_on_c, 1, 62, 111
1, 218880, Note_on_c, 1, 59, 111
1, 218880, Note_on_c, 1, 56, 116
1, 219240, Note_on_c, 0, 88, 0
1, 219240, Note_on_c, 1, 59, 0
1, 219240, Note_on_c, 1, 65, 0
1, 219247, Note_on_c, 1, 56, 0
1, 219255, Note_on_c, 1, 62, 0
1, 219360, Note_on_c, 0, 83, 106
1, 219480, Note_on_c, 0, 83, 0
1, 219480, Note_on_c, 0, 85, 103
1, 219600, Note_on_c, 0, 85, 0
1, 219600, Note_on_c, 0, 86, 101
1, 219720, Note_on_c, 0, 86, 0
1, 219720, Note_on_c, 0, 80, 98
1, 219840, Note_on_c, 0, 80, 0
1, 219840, Note_on_c, 0, 83, 96
1, 219960, Note_on_c, 0, 83, 0
1, 219960, Note_on_c, 0, 74, 93
1, 220080, Note_on_c, 0, 74, 0
1, 220080, Note_on_c, 0, 77, 90
1, 220200, Note_on_c, 0, 77, 0
1, 220200, Note_on_c, 0, 71, 88
1, 220320, Note_on_c, 0, 71, 0
1, 220320, Note_on_c, 0, 74, 85
1, 220800, Note_on_c, 1, 57, 76
1, 220800, Note_on_c, 1, 66, 76
1, 221040, Note_on_c, 1, 66, 0
1, 221040, Note_on_c, 1, 57, 0
1, 221040, Note_on_c, 1, 58, 77
1, 221040, Note_on_c, 1, 67, 77
1, 221520, Note_on_c, 1, 67, 0
1, 221520, Note_on_c, 1, 58, 0
1, 221520, Note_on_c, 1, 59, 73
1, 221520, Note_on_c, 1, 68, 73
1, 221760, Note_on_c, 0, 74, 0
1, 221760, Note_on_c, 0, 78, 77
1, 221760, Note_on_c, 1, 68, 0
1, 221760, Note_on_c, 1, 59, 0
1, 221760, Note_on_c, 1, 74, 77
1, 221760, Note_on_c, 1, 57, 72
1, 221760, Note_on_c, 1, 69, 72
1, 222480, Note_on_c, 0, 78, 0
1, 222480, Note_on_c, 0, 78, 73
1, 222480, Note_on_c, 1, 69, 0
1, 222480, Note_on_c, 1, 74, 0
1, 222480, Note_on_c, 1, 73, 73
1, 222480, Note_on_c, 1, 67, 63
1, 222600, Note_on_c, 0, 78, 0
1, 222600, Note_on_c, 0, 76, 71
1, 222720, Note_on_c, 0, 76, 0
1, 222720, Note_on_c, 0, 74, 70
1, 222840, Note_on_c, 0, 74, 0
1, 222960, Note_on_c, 0, 76, 66
1, 223080, Note_on_c, 0, 76, 0
1, 223200, Note_on_c, 0, 74, 63
1, 223200, Note_on_c, 1, 67, 0
1, 223200, Note_on_c, 1, 73, 0
1, 223200, Note_on_c, 1, 57, 0
1, 223200, Note_on_c, 1, 62, 81
1, 223440, Note_on_c, 0, 74, 0
1, 223440, Note_on_c, 1, 62, 0
1, 223440, Note_on_c, 1, 66, 81
1, 223680, Note_on_c, 0, 80, 89
1, 223680, Note_on_c, 1, 66, 0
1, 223680, Note_on_c, 1, 69, 80
1, 223800, Note_on_c, 0, 80, 0
1, 223800, Note_on_c, 0, 81, 89
1, 223920, Note_on_c, 0, 81, 0
1, 223920, Note_on_c, 0, 83, 88
1, 223920, Note_on_c, 1, 69, 0
1, 223920, Note_on_c, 1, 62, 79
1, 224040, Note_on_c, 0, 83, 0
1, 224040, Note_on_c, 0, 81, 88
1, 224160, Note_on_c, 0, 81, 0
1, 224160, Note_on_c, 0, 79, 87
1, 224160, Note_on_c, 1, 62, 0
1, 224160, Note_on_c, 1, 66, 79
1, 224280, Note_on_c, 0, 79, 0
1, 224280, Note_on_c, 0, 78, 87
1, 224400, Note_on_c, 0, 78, 0
1, 224400, Note_on_c, 0, 76, 86
1, 224400, Note_on_c, 1, 66, 0
1, 224400, Note_on_c, 1, 69, 78
1, 224520, Note_on_c, 0, 76, 0
1, 224520, Note_on_c, 0, 74, 86
1, 224640, Note_on_c, 0, 74, 0
1, 224640, Note_on_c, 0, 73, 86
1, 224640, Note_on_c, 1, 69, 0
1, 224640, Note_on_c, 1, 57, 78
1, 224760, Note_on_c, 0, 73, 0
1, 224760, Note_on_c, 0, 74, 85
1, 224880, Note_on_c, 0, 74, 0
1, 224880, Note_on_c, 0, 75, 85
1, 224880, Note_on_c, 1, 57, 0
1, 224880, Note_on_c, 1, 61, 77
1, 225000, Note_on_c, 0, 75, 0
1, 225000, Note_on_c, 0, 76, 84
1, 225120, Note_on_c, 0, 76, 0
1, 225120, Note_on_c, 0, 77, 84
1, 225120, Note_on_c, 1, 61, 0
1, 225120, Note_on_c, 1, 64, 76
1, 225240, Note_on_c, 0, 77, 0
1, 225240, Note_on_c, 0, 78, 83
1, 225360, Note_on_c, 0, 78, 0
1, 225360, Note_on_c, 0, 79, 83
1, 225360, Note_on_c, 1, 64, 0
1, 225360, Note_on_c, 1, 57, 76
1, 225480, Note_on_c, 0, 79, 0
1, 225480, Note_on_c, 0, 80, 82
1, 225600, Note_on_c, 0, 80, 0
1, 225600, Note_on_c, 0, 81, 82
1, 225600, Note_on_c, 1, 57, 0
1, 225600, Note_on_c, 1, 61, 75
1, 225720, Note_on_c, 0, 81, 0
1, 225720, Note_on_c, 0, 82, 82
1, 225840, Note_on_c, 0, 82, 0
1, 225840, Note_on_c, 0, 83, 81
1, 225840, Note_on_c, 1, 61, 0
1, 225840, Note_on_c, 1, 64, 74
1, 225960, Note_on_c, 0, 83, 0
1, 225960, Note_on_c, 0, 79, 81
1, 226080, Note_on_c, 0, 79, 0
1, 226080, Note_on_c, 0, 78, 80
1, 226080, Note_on_c, 1, 64, 0
1, 226080, Note_on_c, 1, 62, 74
1, 226320, Note_on_c, 0, 78, 0
1, 226320, Note_on_c, 1, 62, 0
1, 226320, Note_on_c, 1, 66, 69
1, 226560, Note_on_c, 0, 80, 75
1, 226560, Note_on_c, 1, 66, 0
1, 226560, Note_on_c, 1, 69, 69
1, 226680, Note_on_c, 0, 80, 0
1, 226680, Note_on_c, 0, 81, 75
1, 226800, Note_on_c, 0, 81, 0
1, 226800, Note_on_c, 0, 83, 74
1, 226800, Note_on_c, 1, 69, 0
1, 226800, Note_on_c, 1, 62, 68
1, 226920, Note_on_c, 0, 83, 0
1, 226920, Note_on_c, 0, 81, 74
1, 227040, Note_on_c, 0, 81, 0
1, 227040, Note_on_c, 0, 79, 73
1, 227040, Note_on_c, 1, 62, 0
1, 227040, Note_on_c, 1, 66, 68
1, 227160, Note_on_c, 0, 79, 0
1, 227160, Note_on_c, 0, 78, 73
1, 227280, Note_on_c, 0, 78, 0
1, 227280, Note_on_c, 0, 76, 72
1, 227280, Note_on_c, 1, 66, 0
1, 227280, Note_on_c, 1, 69, 67
1, 227400, Note_on_c, 0, 76, 0
1, 227400, Note_on_c, 0, 74, 72
1, 227520, Note_on_c, 0, 74, 0
1, 227520, Note_on_c, 0, 73, 71
1, 227520, Note_on_c, 1, 69, 0
1, 227520, Note_on_c, 1, 57, 67
1, 227640, Note_on_c, 0, 73, 0
1, 227640, Note_on_c, 0, 74, 71
1, 227760, Note_on_c, 0, 74, 0
1, 227760, Note_on_c, 0, 75, 71
1, 227760, Note_on_c, 1, 57, 0
1, 227760, Note_on_c, 1, 64, 66
1, 227880, Note_on_c, 0, 75, 0
1, 227880, Note_on_c, 0, 76, 70
1, 228000, Note_on_c, 0, 76, 0
1, 228000, Note_on_c, 0, 77, 70
1, 228000, Note_on_c, 1, 64, 0
1, 228000, Note_on_c, 1, 67, 65
1, 228120, Note_on_c, 0, 77, 0
1, 228120, Note_on_c, 0, 78, 69
1, 228240, Note_on_c, 0, 78, 0
1, 228240, Note_on_c, 0, 79, 69
1, 228240, Note_on_c, 1, 67, 0
1, 228240, Note_on_c, 1, 57, 65
1, 228360, Note_on_c, 0, 79, 0
1, 228360, Note_on_c, 0, 81, 68
1, 228480, Note_on_c, 0, 81, 0
1, 228480, Note_on_c, 0, 83, 68
1, 228480, Note_on_c, 1, 57, 0
1, 228480, Note_on_c, 1, 64, 64
1, 228600, Note_on_c, 0, 83, 0
1, 228600, Note_on_c, 0, 79, 67
1, 228720, Note_on_c, 0, 79, 0
1, 228720, Note_on_c, 0, 76, 67
1, 228720, Note_on_c, 1, 64, 0
1, 228720, Note_on_c, 1, 67, 64
1, 228840, Note_on_c, 0, 76, 0
1, 228840, Note_on_c, 0, 73, 66
1, 228960, Note_on_c, 0, 73, 0
1, 228960, Note_on_c, 0, 74, 66
1, 228960, Note_on_c, 1, 67, 0
1, 228960, Note_on_c, 1, 62, 63
1, 228960, Note_on_c, 1, 66, 63
1, 229200, Note_on_c, 0, 74, 0
1, 229200, Note_on_c, 0, 69, 66
1, 229440, Note_on_c, 0, 69, 0
1, 229440, Note_on_c, 0, 78, 63
1, 229440, Note_on_c, 1, 66, 0
1, 229440, Note_on_c, 1, 69, 61
1, 229680, Note_on_c, 0, 78, 0
1, 229680, Note_on_c, 0, 74, 61
1, 229680, Note_on_c, 1, 69, 0
1, 229680, Note_on_c, 1, 62, 0
1, 229680, Note_on_c, 1, 62, 59
1, 229680, Note_on_c, 1, 66, 59
1, 229920, Note_on_c, 0, 74, 0
1, 229920, Note_on_c, 0, 69, 58
1, 230160, Note_on_c, 0, 69, 0
1, 230160, Note_on_c, 0, 78, 56
1, 230160, Note_on_c, 1, 66, 0
1, 230160, Note_on_c, 1, 69, 57
1, 230400, Note_on_c, 0, 78, 0
1, 230400, Note_on_c, 0, 74, 53
1, 230400, Note_on_c, 1, 69, 0
1, 230400, Note_on_c, 1, 62, 0
1, 230400, Note_on_c, 1, 66, 55
1, 230400, Note_on_c, 1, 62, 55
1, 230880, Note_on_c, 0, 74, 0
1, 230880, Note_on_c, 1, 62, 0
1, 230880, Note_on_c, 1, 66, 0
1, 231840, Note_on_c, 0, 73, 69
1, 231840, Note_on_c, 1, 64, 65
1, 231840, Note_on_c, 1, 57, 65
1, 232560, Note_on_c, 0, 73, 0
1, 232560, Note_on_c, 0, 74, 60
1, 232620, Note_on_c, 0, 74, 0
1, 232620, Note_on_c, 0, 73, 62
1, 232680, Note_on_c, 0, 73, 0
1, 232680, Note_on_c, 0, 71, 63
1, 232740, Note_on_c, 0, 71, 0
1, 232740, Note_on_c, 0, 73, 64
1, 232800, Note_on_c, 0, 73, 0
1, 232800, Note_on_c, 0, 76, 66
1, 232800, Note_on_c, 1, 57, 0
1, 232800, Note_on_c, 1, 59, 63
1, 233280, Note_on_c, 0, 76, 0
1, 233280, Note_on_c, 0, 74, 64
1, 233760, Note_on_c, 0, 74, 0
1, 233760, Note_on_c, 0, 71, 62
1, 233760, Note_on_c, 1, 59, 0
1, 233760, Note_on_c, 1, 62, 61
1, 234240, Note_on_c, 0, 71, 0
1, 234240, Note_on_c, 0, 68, 60
1, 234720, Note_on_c, 0, 68, 0
1, 234720, Note_on_c, 0, 69, 59
1, 234720, Note_on_c, 1, 62, 0
1, 234720, Note_on_c, 1, 64, 0
1, 234720, Note_on_c, 1, 64, 58
1, 234720, Note_on_c, 1, 61, 58
1, 235440, Note_on_c, 0, 69, 0
1, 235440, Note_on_c, 0, 73, 67
1, 235560, Note_on_c, 0, 73, 0
1, 235560, Note_on_c, 0, 69, 68
1, 235680, Note_on_c, 0, 69, 0
1, 235680, Note_on_c, 0, 76, 71
1, 235680, Note_on_c, 1, 61, 0
1, 235680, Note_on_c, 1, 64, 0
1, 236160, Note_on_c, 1, 74, 56
1, 236160, Note_on_c, 1, 68, 56
1, 236520, Note_on_c, 1, 68, 0
1, 236520, Note_on_c, 1, 74, 0
1, 236640, Note_on_c, 1, 74, 58
1, 236640, Note_on_c, 1, 68, 58
1, 237000, Note_on_c, 1, 68, 0
1, 237000, Note_on_c, 1, 74, 0
1, 237120, Note_on_c, 1, 74, 61
1, 237120, Note_on_c, 1, 68, 61
1, 237480, Note_on_c, 1, 68, 0
1, 237480, Note_on_c, 1, 74, 0
1, 237600, Note_on_c, 1, 69, 63
1, 237600, Note_on_c, 1, 73, 63
1, 237830, Note_on_c, 0, 76, 0
1, 237840, Note_on_c, 0, 81, 67
1, 238080, Note_on_c, 0, 81, 0
1, 238080, Note_on_c, 0, 80, 66
1, 238320, Note_on_c, 0, 80, 0
1, 238320, Note_on_c, 0, 79, 66
1, 238560, Note_on_c, 0, 79, 0
1, 238560, Note_on_c, 0, 77, 65
1, 238560, Note_on_c, 1, 73, 0
1, 238560, Note_on_c, 1, 69, 0
1, 238560, Note_on_c, 1, 74, 58
1, 238560, Note_on_c, 1, 62, 58
1, 238800, Note_on_c, 0, 77, 0
1, 238800, Note_on_c, 0, 78, 64
1, 239040, Note_on_c, 0, 78, 0
1, 239040, Note_on_c, 0, 76, 64
1, 239280, Note_on_c, 0, 76, 0
1, 239280, Note_on_c, 0, 74, 63
1, 239520, Note_on_c, 0, 74, 0
1, 239520, Note_on_c, 0, 73, 63
1, 239520, Note_on_c, 1, 62, 0
1, 239520, Note_on_c, 1, 74, 0
1, 239760, Note_on_c, 0, 73, 0
1, 239760, Note_on_c, 0, 71, 62
1, 240000, Note_on_c, 0, 71, 0
1, 240000, Note_on_c, 0, 74, 62
1, 240240, Note_on_c, 0, 74, 0
1, 240240, Note_on_c, 0, 78, 61
1, 240480, Note_on_c, 0, 78, 0
1, 240480, Note_on_c, 0, 69, 61
1, 240480, Note_on_c, 1, 52, 61
1, 240480, Note_on_c, 1, 61, 61
1, 241200, Note_on_c, 0, 69, 0
1, 241200, Note_on_c, 0, 71, 56
1, 241320, Note_on_c, 0, 71, 0
1, 241320, Note_on_c, 0, 69, 54
1, 241440, Note_on_c, 0, 69, 0
1, 241440, Note_on_c, 0, 68, 53
1, 241440, Note_on_c, 1, 61, 0
1, 241440, Note_on_c, 1, 59, 56
1, 241630, Note_on_c, 0, 68, 0
1, 241680, Note_on_c, 0, 64, 51
1, 241920, Note_on_c, 0, 64, 0
1, 241920, Note_on_c, 0, 66, 53
1, 242160, Note_on_c, 0, 66, 0
1, 242160, Note_on_c, 0, 68, 55
1, 242400, Note_on_c, 0, 68, 0
1, 242400, Note_on_c, 0, 69, 57
1, 242400, Note_on_c, 1, 59, 0
1, 242400, Note_on_c, 1, 52, 0
1, 242640, Note_on_c, 0, 69, 0
1, 242640, Note_on_c, 0, 70, 59
1, 242880, Note_on_c, 0, 70, 0
1, 242880, Note_on_c, 0, 71, 61
1, 243120, Note_on_c, 0, 71, 0
1, 243120, Note_on_c, 0, 72, 63
1, 243336, Note_on_c, 0, 72, 0
1, 243360, Note_on_c, 0, 73, 69
1, 243360, Note_on_c, 1, 69, 65
1, 243360, Note_on_c, 1, 57, 65
1, 244080, Note_on_c, 0, 73, 0
1, 244080, Note_on_c, 0, 74, 60
1, 244140, Note_on_c, 0, 74, 0
1, 244140, Note_on_c, 0, 73, 62
1, 244200, Note_on_c, 0, 73, 0
1, 244200, Note_on_c, 0, 71, 63
1, 244260, Note_on_c, 0, 71, 0
1, 244260, Note_on_c, 0, 73, 65
1, 244320, Note_on_c, 0, 73, 0
1, 244320, Note_on_c, 0, 76, 66
1, 244320, Note_on_c, 1, 57, 0
1, 244320, Note_on_c, 1, 69, 0
1, 244320, Note_on_c, 1, 68, 62
1, 244320, Note_on_c, 1, 59, 62
1, 244800, Note_on_c, 0, 76, 0
1, 244800, Note_on_c, 0, 74, 65
1, 245280, Note_on_c, 0, 74, 0
1, 245280, Note_on_c, 0, 71, 63
1, 245280, Note_on_c, 1, 59, 0
1, 245280, Note_on_c, 1, 68, 0
1, 245280, Note_on_c, 1, 64, 59
1, 245280, Note_on_c, 1, 62, 59
1, 245760, Note_on_c, 0, 71, 0
1, 245760, Note_on_c, 0, 68, 62
1, 246240, Note_on_c, 0, 68, 0
1, 246240, Note_on_c, 0, 69, 60
1, 246240, Note_on_c, 1, 62, 0
1, 246240, Note_on_c, 1, 64, 0
1, 246240, Note_on_c, 1, 61, 56
1, 246240, Note_on_c, 1, 64, 56
1, 246960, Note_on_c, 0, 69, 0
1, 246960, Note_on_c, 0, 73, 67
1, 247080, Note_on_c, 0, 73, 0
1, 247080, Note_on_c, 0, 69, 70
1, 247200, Note_on_c, 0, 69, 0
1, 247200, Note_on_c, 0, 77, 73
1, 247200, Note_on_c, 1, 64, 0
1, 247200, Note_on_c, 1, 61, 0
1, 247680, Note_on_c, 1, 71, 61
1, 247680, Note_on_c, 1, 62, 61
1, 248160, Note_on_c, 1, 62, 0
1, 248160, Note_on_c, 1, 71, 0
1, 248160, Note_on_c, 1, 63, 59
1, 248160, Note_on_c, 1, 72, 59
1, 248400, Note_on_c, 0, 78, 71
1, 248415, Note_on_c, 0, 77, 0
1, 248580, Note_on_c, 1, 63, 0
1, 248585, Note_on_c, 1, 72, 0
1, 248640, Note_on_c, 0, 78, 0
1, 248640, Note_on_c, 0, 80, 70
1, 248640, Note_on_c, 1, 63, 57
1, 248640, Note_on_c, 1, 72, 57
1, 248880, Note_on_c, 0, 80, 0
1, 248880, Note_on_c, 0, 81, 69
1, 249060, Note_on_c, 1, 63, 0
1, 249065, Note_on_c, 1, 72, 0
1, 249120, Note_on_c, 0, 81, 0
1, 249120, Note_on_c, 0, 81, 69
1, 249120, Note_on_c, 1, 64, 55
1, 249120, Note_on_c, 1, 73, 55
1, 249720, Note_on_c, 0, 81, 0
1, 249720, Note_on_c, 0, 83, 67
1, 249840, Note_on_c, 0, 83, 0
1, 249840, Note_on_c, 0, 85, 67
1, 249960, Note_on_c, 0, 85, 0
1, 249960, Note_on_c, 0, 81, 67
1, 250080, Note_on_c, 0, 81, 0
1, 250080, Note_on_c, 0, 76, 67
1, 250080, Note_on_c, 1, 73, 0
1, 250080, Note_on_c, 1, 64, 0
1, 250320, Note_on_c, 0, 76, 0
1, 250320, Note_on_c, 0, 81, 62
1, 250560, Note_on_c, 0, 81, 0
1, 250560, Note_on_c, 0, 73, 64
1, 250800, Note_on_c, 0, 73, 0
1, 250800, Note_on_c, 0, 78, 63
1, 251040, Note_on_c, 0, 78, 0
1, 251040, Note_on_c, 0, 76, 62
1, 251280, Note_on_c, 0, 76, 0
1, 251280, Note_on_c, 0, 75, 62
1, 251520, Note_on_c, 0, 75, 0
1, 251520, Note_on_c, 0, 74, 61
1, 251520, Note_on_c, 1, 52, 54
1, 251520, Note_on_c, 1, 62, 54
1, 251760, Note_on_c, 0, 74, 0
1, 251760, Note_on_c, 0, 71, 60
1, 251964, Note_on_c, 0, 71, 0
1, 252000, Note_on_c, 0, 71, 62
1, 252000, Note_on_c, 1, 62, 0
1, 252000, Note_on_c, 1, 52, 0
1, 252000, Note_on_c, 1, 57, 60
1, 252000, Note_on_c, 1, 62, 60
1, 252960, Note_on_c, 0, 71, 0
1, 252960, Note_on_c, 0, 69, 56
1, 252960, Note_on_c, 1, 62, 0
1, 252960, Note_on_c, 1, 61, 56
1, 253395, Note_on_c, 1, 61, 0
1, 253395, Note_on_c, 1, 57, 0
1, 253440, Note_on_c, 1, 52, 57
1, 253920, Note_on_c, 0, 69, 0
1, 253920, Note_on_c, 1, 52, 0
1, 253920, Note_on_c, 1, 49, 59
1, 254400, Note_on_c, 1, 49, 0
1, 254400, Note_on_c, 1, 45, 61
1, 254880, Note_on_c, 0, 74, 73
1, 254880, Note_on_c, 1, 45, 0
1, 254880, Note_on_c, 1, 52, 69
1, 255360, Note_on_c, 1, 59, 57
1, 255360, Note_on_c, 1, 56, 57
1, 255480, Note_on_c, 0, 74, 0
1, 255480, Note_on_c, 0, 78, 71
1, 255600, Note_on_c, 0, 78, 0
1, 255600, Note_on_c, 0, 76, 70
1, 255720, Note_on_c, 0, 76, 0
1, 255720, Note_on_c, 0, 78, 70
1, 255840, Note_on_c, 0, 78, 0
1, 255840, Note_on_c, 0, 74, 70
1, 255840, Note_on_c, 1, 56, 0
1, 255840, Note_on_c, 1, 59, 0
1, 255840, Note_on_c, 1, 56, 56
1, 255840, Note_on_c, 1, 59, 56
1, 255960, Note_on_c, 0, 74, 0
1, 255960, Note_on_c, 0, 76, 69
1, 256080, Note_on_c, 0, 76, 0
1, 256080, Note_on_c, 0, 73, 69
1, 256200, Note_on_c, 0, 73, 0
1, 256200, Note_on_c, 0, 74, 68
1, 256320, Note_on_c, 0, 74, 0
1, 256320, Note_on_c, 0, 71, 68
1, 256320, Note_on_c, 1, 59, 0
1, 256320, Note_on_c, 1, 56, 0
1, 256320, Note_on_c, 1, 61, 54
1, 256320, Note_on_c, 1, 57, 54
1, 256440, Note_on_c, 0, 71, 0
1, 256440, Note_on_c, 0, 73, 67
1, 256560, Note_on_c, 0, 73, 0
1, 256560, Note_on_c, 0, 69, 67
1, 256680, Note_on_c, 0, 69, 0
1, 256680, Note_on_c, 0, 71, 67
1, 256800, Note_on_c, 0, 71, 0
1, 256800, Note_on_c, 0, 68, 64
1, 256800, Note_on_c, 1, 57, 0
1, 256800, Note_on_c, 1, 61, 0
1, 256800, Note_on_c, 1, 59, 53
1, 256800, Note_on_c, 1, 62, 53
1, 257280, Note_on_c, 0, 68, 0
1, 257280, Note_on_c, 1, 62, 0
1, 257280, Note_on_c, 1, 59, 0
1, 257280, Note_on_c, 1, 52, 0
1, 257280, Note_on_c, 1, 59, 50
1, 257280, Note_on_c, 1, 62, 50
1, 257760, Note_on_c, 0, 76, 83
1, 257760, Note_on_c, 1, 62, 0
1, 257760, Note_on_c, 1, 59, 0
1, 257760, Note_on_c, 1, 57, 70
1, 258240, Note_on_c, 1, 64, 57
1, 258240, Note_on_c, 1, 61, 57
1, 258360, Note_on_c, 0, 76, 0
1, 258360, Note_on_c, 0, 75, 80
1, 258480, Note_on_c, 0, 75, 0
1, 258480, Note_on_c, 0, 78, 80
1, 258600, Note_on_c, 0, 78, 0
1, 258600, Note_on_c, 0, 76, 79
1, 258720, Note_on_c, 0, 76, 0
1, 258720, Note_on_c, 0, 81, 79
1, 258720, Note_on_c, 1, 61, 0
1, 258720, Note_on_c, 1, 64, 0
1, 258720, Note_on_c, 1, 64, 55
1, 258720, Note_on_c, 1, 61, 55
1, 258840, Note_on_c, 0, 81, 0
1, 258840, Note_on_c, 0, 80, 78
1, 258960, Note_on_c, 0, 80, 0
1, 258960, Note_on_c, 0, 83, 78
1, 259080, Note_on_c, 0, 83, 0
1, 259080, Note_on_c, 0, 81, 77
1, 259200, Note_on_c, 0, 81, 0
1, 259200, Note_on_c, 0, 85, 77
1, 259200, Note_on_c, 1, 61, 0
1, 259200, Note_on_c, 1, 64, 0
1, 259200, Note_on_c, 1, 59, 54
1, 259200, Note_on_c, 1, 62, 54
1, 259320, Note_on_c, 0, 85, 0
1, 259320, Note_on_c, 0, 83, 76
1, 259440, Note_on_c, 0, 83, 0
1, 259440, Note_on_c, 0, 86, 76
1, 259560, Note_on_c, 0, 86, 0
1, 259560, Note_on_c, 0, 85, 75
1, 259680, Note_on_c, 0, 85, 0
1, 259680, Note_on_c, 0, 88, 72
1, 259680, Note_on_c, 1, 62, 0
1, 259680, Note_on_c, 1, 59, 0
1, 259680, Note_on_c, 1, 57, 0
1, 259680, Note_on_c, 1, 61, 52
1, 259680, Note_on_c, 1, 57, 52
1, 260160, Note_on_c, 0, 88, 0
1, 260160, Note_on_c, 1, 57, 0
1, 260160, Note_on_c, 1, 61, 0
1, 260160, Note_on_c, 1, 59, 50
1, 260160, Note_on_c, 1, 56, 50
1, 260640, Note_on_c, 0, 81, 83
1, 260640, Note_on_c, 1, 56, 0
1, 260640, Note_on_c, 1, 59, 0
1, 260640, Note_on_c, 1, 54, 70
1, 261120, Note_on_c, 1, 61, 59
1, 261120, Note_on_c, 1, 57, 59
1, 261240, Note_on_c, 0, 81, 0
1, 261240, Note_on_c, 0, 85, 80
1, 261360, Note_on_c, 0, 85, 0
1, 261360, Note_on_c, 0, 83, 80
1, 261480, Note_on_c, 0, 83, 0
1, 261480, Note_on_c, 0, 85, 79
1, 261600, Note_on_c, 0, 85, 0
1, 261600, Note_on_c, 0, 81, 79
1, 261600, Note_on_c, 1, 57, 0
1, 261600, Note_on_c, 1, 61, 0
1, 261600, Note_on_c, 1, 61, 58
1, 261600, Note_on_c, 1, 57, 58
1, 261720, Note_on_c, 0, 81, 0
1, 261720, Note_on_c, 0, 83, 78
1, 261840, Note_on_c, 0, 83, 0
1, 261840, Note_on_c, 0, 80, 78
1, 261960, Note_on_c, 0, 80, 0
1, 261960, Note_on_c, 0, 81, 77
1, 262080, Note_on_c, 0, 81, 0
1, 262080, Note_on_c, 0, 78, 77
1, 262080, Note_on_c, 1, 57, 0
1, 262080, Note_on_c, 1, 61, 0
1, 262080, Note_on_c, 1, 61, 57
1, 262080, Note_on_c, 1, 57, 57
1, 262200, Note_on_c, 0, 78, 0
1, 262200, Note_on_c, 0, 80, 76
1, 262320, Note_on_c, 0, 80, 0
1, 262320, Note_on_c, 0, 76, 76
1, 262440, Note_on_c, 0, 76, 0
1, 262440, Note_on_c, 0, 78, 75
1, 262560, Note_on_c, 0, 78, 0
1, 262560, Note_on_c, 0, 75, 75
1, 262560, Note_on_c, 1, 57, 0
1, 262560, Note_on_c, 1, 61, 0
1, 262560, Note_on_c, 1, 59, 55
1, 262560, Note_on_c, 1, 57, 55
1, 262680, Note_on_c, 0, 75, 0
1, 262680, Note_on_c, 0, 76, 74
1, 262800, Note_on_c, 0, 76, 0
1, 262800, Note_on_c, 0, 78, 74
1, 262920, Note_on_c, 0, 78, 0
1, 262920, Note_on_c, 0, 80, 73
1, 263040, Note_on_c, 0, 80, 0
1, 263040, Note_on_c, 0, 83, 73
1, 263040, Note_on_c, 1, 57, 0
1, 263040, Note_on_c, 1, 59, 0
1, 263040, Note_on_c, 1, 57, 54
1, 263040, Note_on_c, 1, 59, 54
1, 263160, Note_on_c, 0, 83, 0
1, 263160, Note_on_c, 0, 81, 72
1, 263280, Note_on_c, 0, 81, 0
1, 263280, Note_on_c, 0, 78, 72
1, 263400, Note_on_c, 0, 78, 0
1, 263400, Note_on_c, 0, 75, 71
1, 263520, Note_on_c, 0, 75, 0
1, 263520, Note_on_c, 0, 78, 71
1, 263520, Note_on_c, 1, 59, 0
1, 263520, Note_on_c, 1, 57, 0
1, 263520, Note_on_c, 1, 54, 0
1, 263520, Note_on_c, 1, 59, 63
1, 263520, Note_on_c, 1, 57, 63
1, 263520, Note_on_c, 1, 52, 63
1, 264480, Note_on_c, 1, 57, 0
1, 264480, Note_on_c, 1, 56, 54
1, 264720, Note_on_c, 0, 75, 66
1, 264735, Note_on_c, 0, 78, 0
1, 264960, Note_on_c, 0, 75, 0
1, 264960, Note_on_c, 0, 76, 65
1, 264960, Note_on_c, 1, 56, 0
1, 264960, Note_on_c, 1, 52, 0
1, 264960, Note_on_c, 1, 59, 0
1, 265200, Note_on_c, 0, 76, 0
1, 265200, Note_on_c, 0, 77, 64
1, 265440, Note_on_c, 0, 77, 0
1, 265440, Note_on_c, 0, 80, 63
1, 265680, Note_on_c, 0, 80, 0
1, 265680, Note_on_c, 0, 78, 62
1, 265920, Note_on_c, 0, 78, 0
1, 265920, Note_on_c, 0, 76, 61
1, 266160, Note_on_c, 0, 76, 0
1, 266160, Note_on_c, 0, 74, 60
1, 266376, Note_on_c, 0, 74, 0
1, 266400, Note_on_c, 0, 73, 71
1, 266400, Note_on_c, 1, 67, 62
1, 266400, Note_on_c, 1, 58, 62
1, 267120, Note_on_c, 0, 73, 0
1, 267120, Note_on_c, 0, 74, 64
1, 267180, Note_on_c, 0, 74, 0
1, 267180, Note_on_c, 0, 73, 65
1, 267240, Note_on_c, 0, 73, 0
1, 267240, Note_on_c, 0, 71, 66
1, 267300, Note_on_c, 0, 71, 0
1, 267300, Note_on_c, 0, 73, 67
1, 267360, Note_on_c, 0, 73, 0
1, 267360, Note_on_c, 0, 76, 68
1, 267360, Note_on_c, 1, 58, 0
1, 267360, Note_on_c, 1, 67, 0
1, 267360, Note_on_c, 1, 66, 61
1, 267360, Note_on_c, 1, 59, 61
1, 267840, Note_on_c, 0, 76, 0
1, 267840, Note_on_c, 0, 74, 67
1, 268320, Note_on_c, 0, 74, 0
1, 268320, Note_on_c, 0, 71, 65
1, 268320, Note_on_c, 1, 59, 0
1, 268320, Note_on_c, 1, 66, 0
1, 268320, Note_on_c, 1, 62, 60
1, 268320, Note_on_c, 1, 65, 60
1, 268800, Note_on_c, 0, 71, 0
1, 268800, Note_on_c, 0, 68, 64
1, 269280, Note_on_c, 0, 68, 0
1, 269280, Note_on_c, 0, 69, 62
1, 269280, Note_on_c, 1, 65, 0
1, 269280, Note_on_c, 1, 62, 0
1, 269280, Note_on_c, 1, 64, 59
1, 269280, Note_on_c, 1, 61, 59
1, 270000, Note_on_c, 0, 69, 0
1, 270000, Note_on_c, 0, 73, 69
1, 270120, Note_on_c, 0, 73, 0
1, 270120, Note_on_c, 0, 69, 72
1, 270240, Note_on_c, 0, 69, 0
1, 270240, Note_on_c, 0, 79, 79
1, 270240, Note_on_c, 1, 61, 0
1, 270240, Note_on_c, 1, 64, 0
1, 270720, Note_on_c, 1, 70, 71
1, 270720, Note_on_c, 1, 61, 71
1, 271200, Note_on_c, 1, 61, 0
1, 271200, Note_on_c, 1, 70, 0
1, 271200, Note_on_c, 1, 71, 68
1, 271200, Note_on_c, 1, 62, 68
1, 271680, Note_on_c, 1, 62, 0
1, 271680, Note_on_c, 1, 71, 0
1, 271680, Note_on_c, 1, 73, 65
1, 271680, Note_on_c, 1, 64, 65
1, 272160, Note_on_c, 0, 79, 0
1, 272160, Note_on_c, 0, 77, 72
1, 272160, Note_on_c, 1, 64, 0
1, 272160, Note_on_c, 1, 73, 0
1, 272160, Note_on_c, 1, 74, 62
1, 272160, Note_on_c, 1, 62, 62
1, 272280, Note_on_c, 0, 77, 0
1, 272280, Note_on_c, 0, 78, 71
1, 272400, Note_on_c, 0, 78, 0
1, 272400, Note_on_c, 0, 80, 71
1, 272520, Note_on_c, 0, 80, 0
1, 272520, Note_on_c, 0, 78, 70
1, 272640, Note_on_c, 0, 78, 0
1, 272640, Note_on_c, 0, 76, 70
1, 272640, Note_on_c, 1, 62, 0
1, 272640, Note_on_c, 1, 74, 0
1, 272760, Note_on_c, 0, 76, 0
1, 272760, Note_on_c, 0, 74, 69
1, 272880, Note_on_c, 0, 74, 0
1, 272880, Note_on_c, 0, 73, 69
1, 273000, Note_on_c, 0, 73, 0
1, 273000, Note_on_c, 0, 71, 68
1, 273120, Note_on_c, 0, 71, 0
1, 273120, Note_on_c, 0, 69, 68
1, 273120, Note_on_c, 1, 61, 61
1, 273120, Note_on_c, 1, 52, 61
1, 273239, Note_on_c, 0, 69, 0
1, 273360, Note_on_c, 0, 73, 67
1, 273479, Note_on_c, 0, 73, 0
1, 273600, Note_on_c, 0, 76, 66
1, 273600, Note_on_c, 1, 52, 0
1, 273600, Note_on_c, 1, 61, 0
1, 274080, Note_on_c, 1, 62, 61
1, 274080, Note_on_c, 1, 52, 61
1, 274320, Note_on_c, 0, 76, 0
1, 274320, Note_on_c, 0, 64, 63
1, 274560, Note_on_c, 0, 64, 0
1, 274560, Note_on_c, 0, 66, 62
1, 274560, Note_on_c, 1, 52, 0
1, 274560, Note_on_c, 1, 62, 0
1, 274800, Note_on_c, 0, 66, 0
1, 274800, Note_on_c, 0, 68, 61
1, 275040, Note_on_c, 0, 68, 0
1, 275040, Note_on_c, 0, 71, 60
1, 275040, Note_on_c, 1, 57, 61
1, 275040, Note_on_c, 1, 62, 61
1, 276000, Note_on_c, 0, 71, 0
1, 276000, Note_on_c, 0, 69, 54
1, 276000, Note_on_c, 1, 62, 0
1, 276000, Note_on_c, 1, 61, 55
1, 276435, Note_on_c, 0, 69, 0
1, 276480, Note_on_c, 0, 70, 58
1, 276480, Note_on_c, 1, 61, 0
1, 276480, Note_on_c, 1, 57, 0
1, 276849, Note_on_c, 0, 70, 0
1, 276960, Note_on_c, 0, 71, 62
1, 277359, Note_on_c, 0, 71, 0
1, 277440, Note_on_c, 0, 72, 66
1, 277794, Note_on_c, 0, 72, 0
1, 277920, Note_on_c, 0, 73, 75
1, 277920, Note_on_c, 1, 54, 60
1, 278160, Note_on_c, 1, 69, 51
1, 278160, Note_on_c, 1, 66, 51
1, 278400, Note_on_c, 1, 66, 0
1, 278400, Note_on_c, 1, 69, 0
1, 278400, Note_on_c, 1, 66, 50
1, 278400, Note_on_c, 1, 69, 50
1, 278640, Note_on_c, 1, 69, 0
1, 278640, Note_on_c, 1, 66, 0
1, 278640, Note_on_c, 1, 69, 50
1, 278640, Note_on_c, 1, 66, 50
1, 278880, Note_on_c, 1, 66, 0
1, 278880, Note_on_c, 1, 69, 0
1, 278880, Note_on_c, 1, 69, 49
1, 278880, Note_on_c, 1, 66, 49
1, 279120, Note_on_c, 0, 78, 70
1, 279120, Note_on_c, 1, 66, 0
1, 279120, Note_on_c, 1, 69, 0
1, 279120, Note_on_c, 1, 69, 48
1, 279120, Note_on_c, 1, 66, 48
1, 279134, Note_on_c, 0, 73, 0
1, 279360, Note_on_c, 0, 78, 0
1, 279360, Note_on_c, 0, 81, 66
1, 279360, Note_on_c, 1, 66, 0
1, 279360, Note_on_c, 1, 69, 0
1, 279360, Note_on_c, 1, 69, 47
1, 279360, Note_on_c, 1, 66, 47
1, 279491, Note_on_c, 0, 81, 0
1, 279600, Note_on_c, 0, 77, 68
1, 279600, Note_on_c, 1, 66, 0
1, 279600, Note_on_c, 1, 69, 0
1, 279600, Note_on_c, 1, 69, 47
1, 279600, Note_on_c, 1, 66, 47
1, 279840, Note_on_c, 0, 77, 0
1, 279840, Note_on_c, 0, 78, 64
1, 279840, Note_on_c, 1, 66, 0
1, 279840, Note_on_c, 1, 69, 0
1, 279840, Note_on_c, 1, 69, 46
1, 279840, Note_on_c, 1, 66, 46
1, 279971, Note_on_c, 0, 78, 0
1, 280080, Note_on_c, 0, 72, 66
1, 280080, Note_on_c, 1, 66, 0
1, 280080, Note_on_c, 1, 69, 0
1, 280080, Note_on_c, 1, 69, 45
1, 280080, Note_on_c, 1, 66, 45
1, 280320, Note_on_c, 0, 72, 0
1, 280320, Note_on_c, 0, 74, 66
1, 280320, Note_on_c, 1, 66, 0
1, 280320, Note_on_c, 1, 69, 0
1, 280320, Note_on_c, 1, 69, 45
1, 280320, Note_on_c, 1, 66, 45
1, 280560, Note_on_c, 0, 74, 0
1, 280560, Note_on_c, 0, 73, 68
1, 280560, Note_on_c, 1, 66, 0
1, 280560, Note_on_c, 1, 69, 0
1, 280560, Note_on_c, 1, 69, 44
1, 280560, Note_on_c, 1, 66, 44
1, 280616, Note_on_c, 1, 54, 0
1, 280800, Note_on_c, 0, 73, 0
1, 280800, Note_on_c, 0, 73, 70
1, 280800, Note_on_c, 1, 66, 0
1, 280800, Note_on_c, 1, 69, 0
1, 280800, Note_on_c, 1, 53, 59
1, 281040, Note_on_c, 1, 65, 49
1, 281040, Note_on_c, 1, 68, 49
1, 281280, Note_on_c, 1, 68, 0
1, 281280, Note_on_c, 1, 65, 0
1, 281280, Note_on_c, 1, 68, 48
1, 281280, Note_on_c, 1, 65, 48
1, 281520, Note_on_c, 1, 65, 0
1, 281520, Note_on_c, 1, 68, 0
1, 281520, Note_on_c, 1, 68, 48
1, 281520, Note_on_c, 1, 65, 48
1, 281760, Note_on_c, 0, 73, 0
1, 281760, Note_on_c, 1, 65, 0
1, 281760, Note_on_c, 1, 68, 0
1, 281760, Note_on_c, 1, 65, 47
1, 281760, Note_on_c, 1, 68, 47
1, 282000, Note_on_c, 0, 80, 67
1, 282000, Note_on_c, 1, 68, 0
1, 282000, Note_on_c, 1, 65, 0
1, 282000, Note_on_c, 1, 68, 46
1, 282000, Note_on_c, 1, 65, 46
1, 282240, Note_on_c, 0, 80, 0
1, 282240, Note_on_c, 0, 83, 65
1, 282240, Note_on_c, 1, 65, 0
1, 282240, Note_on_c, 1, 68, 0
1, 282240, Note_on_c, 1, 68, 46
1, 282240, Note_on_c, 1, 65, 46
1, 282383, Note_on_c, 0, 83, 0
1, 282480, Note_on_c, 0, 77, 66
1, 282480, Note_on_c, 1, 65, 0
1, 282480, Note_on_c, 1, 68, 0
1, 282480, Note_on_c, 1, 68, 45
1, 282480, Note_on_c, 1, 65, 45
1, 282720, Note_on_c, 0, 77, 0
1, 282720, Note_on_c, 0, 80, 61
1, 282720, Note_on_c, 1, 65, 0
1, 282720, Note_on_c, 1, 68, 0
1, 282720, Note_on_c, 1, 68, 44
1, 282720, Note_on_c, 1, 65, 44
1, 282863, Note_on_c, 0, 80, 0
1, 282960, Note_on_c, 0, 72, 64
1, 282960, Note_on_c, 1, 65, 0
1, 282960, Note_on_c, 1, 68, 0
1, 282960, Note_on_c, 1, 68, 43
1, 282960, Note_on_c, 1, 65, 43
1, 283200, Note_on_c, 0, 72, 0
1, 283200, Note_on_c, 0, 74, 65
1, 283200, Note_on_c, 1, 65, 0
1, 283200, Note_on_c, 1, 68, 0
1, 283200, Note_on_c, 1, 68, 43
1, 283200, Note_on_c, 1, 65, 43
1, 283440, Note_on_c, 0, 74, 0
1, 283440, Note_on_c, 0, 73, 66
1, 283440, Note_on_c, 1, 65, 0
1, 283440, Note_on_c, 1, 68, 0
1, 283440, Note_on_c, 1, 65, 42
1, 283440, Note_on_c, 1, 68, 42
1, 283560, Note_on_c, 1, 53, 0
1, 283680, Note_on_c, 0, 73, 0
1, 283680, Note_on_c, 1, 68, 0
1, 283680, Note_on_c, 1, 65, 0
1, 283680, Note_on_c, 1, 66, 60
1, 283680, Note_on_c, 1, 73, 60
1, 283920, Note_on_c, 0, 81, 68
1, 284160, Note_on_c, 0, 81, 0
1, 284160, Note_on_c, 1, 66, 0
1, 284160, Note_on_c, 1, 64, 63
1, 284400, Note_on_c, 0, 80, 70
1, 284640, Note_on_c, 0, 80, 0
1, 284640, Note_on_c, 1, 64, 0
1, 284640, Note_on_c, 1, 62, 66
1, 284880, Note_on_c, 0, 77, 70
1, 285120, Note_on_c, 0, 77, 0
1, 285120, Note_on_c, 0, 78, 72
1, 285360, Note_on_c, 0, 78, 0
1, 285360, Note_on_c, 0, 80, 74
1, 285600, Note_on_c, 0, 80, 0
1, 285600, Note_on_c, 0, 83, 77
1, 285600, Note_on_c, 1, 73, 0
1, 285600, Note_on_c, 1, 72, 73
1, 285840, Note_on_c, 0, 83, 0
1, 285840, Note_on_c, 0, 81, 74
1, 286080, Note_on_c, 0, 81, 0
1, 286080, Note_on_c, 0, 80, 72
1, 286320, Note_on_c, 0, 80, 0
1, 286320, Note_on_c, 0, 78, 71
1, 286560, Note_on_c, 1, 72, 0
1, 286560, Note_on_c, 1, 62, 0
1, 286560, Note_on_c, 1, 73, 61
1, 286560, Note_on_c, 1, 61, 61
1, 286800, Note_on_c, 0, 78, 0
1, 286800, Note_on_c, 0, 77, 67
1, 287040, Note_on_c, 0, 77, 0
1, 287040, Note_on_c, 0, 80, 66
1, 287040, Note_on_c, 1, 61, 0
1, 287040, Note_on_c, 1, 73, 0
1, 287280, Note_on_c, 0, 80, 0
1, 287280, Note_on_c, 0, 72, 64
1, 287520, Note_on_c, 0, 72, 0
1, 287520, Note_on_c, 0, 73, 61
1, 287760, Note_on_c, 1, 65, 48
1, 288000, Note_on_c, 0, 73, 0
1, 288000, Note_on_c, 1, 65, 0
1, 288000, Note_on_c, 1, 68, 45
1, 288180, Note_on_c, 1, 68, 0
1, 288240, Note_on_c, 1, 61, 50
1, 288480, Note_on_c, 1, 61, 0
1, 288480, Note_on_c, 1, 62, 47
1, 288672, Note_on_c, 1, 62, 0
1, 288720, Note_on_c, 1, 56, 53
1, 288960, Note_on_c, 1, 56, 0
1, 288960, Note_on_c, 1, 59, 51
1, 289200, Note_on_c, 1, 53, 55
1, 289212, Note_on_c, 1, 59, 0
1, 289440, Note_on_c, 0, 73, 77
1, 289440, Note_on_c, 1, 53, 0
1, 289440, Note_on_c, 1, 54, 61
1, 289680, Note_on_c, 1, 69, 53
1, 289680, Note_on_c, 1, 66, 53
1, 289920, Note_on_c, 1, 66, 0
1, 289920, Note_on_c, 1, 69, 0
1, 289920, Note_on_c, 1, 69, 52
1, 289920, Note_on_c, 1, 66, 52
1, 290160, Note_on_c, 1, 66, 0
1, 290160, Note_on_c, 1, 69, 0
1, 290160, Note_on_c, 1, 69, 52
1, 290160, Note_on_c, 1, 66, 52
1, 290400, Note_on_c, 1, 66, 0
1, 290400, Note_on_c, 1, 69, 0
1, 290400, Note_on_c, 1, 69, 51
1, 290400, Note_on_c, 1, 66, 51
1, 290640, Note_on_c, 0, 78, 70
1, 290640, Note_on_c, 1, 66, 0
1, 290640, Note_on_c, 1, 69, 0
1, 290640, Note_on_c, 1, 69, 50
1, 290640, Note_on_c, 1, 66, 50
1, 290750, Note_on_c, 0, 73, 0
1, 290880, Note_on_c, 0, 78, 0
1, 290880, Note_on_c, 0, 81, 64
1, 290880, Note_on_c, 1, 66, 0
1, 290880, Note_on_c, 1, 69, 0
1, 290880, Note_on_c, 1, 69, 49
1, 290880, Note_on_c, 1, 66, 49
1, 291011, Note_on_c, 0, 81, 0
1, 291120, Note_on_c, 0, 77, 68
1, 291120, Note_on_c, 1, 66, 0
1, 291120, Note_on_c, 1, 69, 0
1, 291120, Note_on_c, 1, 69, 49
1, 291120, Note_on_c, 1, 66, 49
1, 291360, Note_on_c, 0, 77, 0
1, 291360, Note_on_c, 0, 78, 63
1, 291360, Note_on_c, 1, 66, 0
1, 291360, Note_on_c, 1, 69, 0
1, 291360, Note_on_c, 1, 69, 48
1, 291360, Note_on_c, 1, 66, 48
1, 291491, Note_on_c, 0, 78, 0
1, 291600, Note_on_c, 0, 72, 62
1, 291600, Note_on_c, 1, 66, 0
1, 291600, Note_on_c, 1, 69, 0
1, 291600, Note_on_c, 1, 69, 47
1, 291600, Note_on_c, 1, 66, 47
1, 291840, Note_on_c, 0, 72, 0
1, 291840, Note_on_c, 0, 74, 65
1, 291840, Note_on_c, 1, 66, 0
1, 291840, Note_on_c, 1, 69, 0
1, 291840, Note_on_c, 1, 69, 47
1, 291840, Note_on_c, 1, 66, 47
1, 292080, Note_on_c, 0, 74, 0
1, 292080, Note_on_c, 0, 73, 68
1, 292080, Note_on_c, 1, 66, 0
1, 292080, Note_on_c, 1, 69, 0
1, 292080, Note_on_c, 1, 69, 46
1, 292080, Note_on_c, 1, 66, 46
1, 292122, Note_on_c, 1, 54, 0
1, 292320, Note_on_c, 0, 73, 0
1, 292320, Note_on_c, 0, 73, 75
1, 292320, Note_on_c, 1, 66, 0
1, 292320, Note_on_c, 1, 69, 0
1, 292320, Note_on_c, 1, 52, 57
1, 292560, Note_on_c, 1, 67, 47
1, 292560, Note_on_c, 1, 64, 47
1, 292800, Note_on_c, 1, 64, 0
1, 292800, Note_on_c, 1, 67, 0
1, 292800, Note_on_c, 1, 64, 47
1, 292800, Note_on_c, 1, 67, 47
1, 293040, Note_on_c, 1, 67, 0
1, 293040, Note_on_c, 1, 64, 0
1, 293040, Note_on_c, 1, 67, 46
1, 293040, Note_on_c, 1, 64, 46
1, 293280, Note_on_c, 0, 73, 0
1, 293280, Note_on_c, 1, 64, 0
1, 293280, Note_on_c, 1, 67, 0
1, 293280, Note_on_c, 1, 67, 45
1, 293280, Note_on_c, 1, 64, 45
1, 293520, Note_on_c, 0, 79, 69
1, 293520, Note_on_c, 1, 64, 0
1, 293520, Note_on_c, 1, 67, 0
1, 293520, Note_on_c, 1, 67, 44
1, 293520, Note_on_c, 1, 64, 44
1, 293760, Note_on_c, 0, 79, 0
1, 293760, Note_on_c, 0, 83, 65
1, 293760, Note_on_c, 1, 64, 0
1, 293760, Note_on_c, 1, 67, 0
1, 293760, Note_on_c, 1, 67, 44
1, 293760, Note_on_c, 1, 64, 44
1, 293879, Note_on_c, 0, 83, 0
1, 294000, Note_on_c, 0, 76, 67
1, 294000, Note_on_c, 1, 64, 0
1, 294000, Note_on_c, 1, 67, 0
1, 294000, Note_on_c, 1, 67, 43
1, 294000, Note_on_c, 1, 64, 43
1, 294240, Note_on_c, 0, 76, 0
1, 294240, Note_on_c, 0, 79, 63
1, 294240, Note_on_c, 1, 64, 0
1, 294240, Note_on_c, 1, 67, 0
1, 294240, Note_on_c, 1, 67, 42
1, 294240, Note_on_c, 1, 64, 42
1, 294359, Note_on_c, 0, 79, 0
1, 294480, Note_on_c, 0, 71, 64
1, 294480, Note_on_c, 1, 64, 0
1, 294480, Note_on_c, 1, 67, 0
1, 294480, Note_on_c, 1, 67, 41
1, 294480, Note_on_c, 1, 64, 41
1, 294720, Note_on_c, 0, 71, 0
1, 294720, Note_on_c, 0, 74, 65
1, 294720, Note_on_c, 1, 64, 0
1, 294720, Note_on_c, 1, 67, 0
1, 294720, Note_on_c, 1, 67, 41
1, 294720, Note_on_c, 1, 64, 41
1, 294960, Note_on_c, 0, 74, 0
1, 294960, Note_on_c, 0, 73, 68
1, 294960, Note_on_c, 1, 64, 0
1, 294960, Note_on_c, 1, 67, 0
1, 294960, Note_on_c, 1, 67, 40
1, 294960, Note_on_c, 1, 64, 40
1, 295002, Note_on_c, 1, 52, 0
1, 295200, Note_on_c, 0, 73, 0
1, 295200, Note_on_c, 1, 64, 0
1, 295200, Note_on_c, 1, 67, 0
1, 295200, Note_on_c, 1, 66, 58
1, 295200, Note_on_c, 1, 69, 58
1, 295440, Note_on_c, 0, 74, 71
1, 295680, Note_on_c, 0, 74, 0
1, 295680, Note_on_c, 1, 69, 0
1, 295680, Note_on_c, 1, 72, 59
1, 295920, Note_on_c, 0, 75, 76
1, 296160, Note_on_c, 0, 75, 0
1, 296160, Note_on_c, 1, 72, 0
1, 296160, Note_on_c, 1, 66, 0
1, 296160, Note_on_c, 1, 71, 60
1, 296160, Note_on_c, 1, 67, 60
1, 296400, Note_on_c, 0, 76, 80
1, 296640, Note_on_c, 0, 76, 0
1, 296640, Note_on_c, 1, 67, 0
1, 296640, Note_on_c, 1, 71, 0
1, 296640, Note_on_c, 1, 68, 61
1, 296640, Note_on_c, 1, 74, 61
1, 296880, Note_on_c, 0, 77, 84
1, 297120, Note_on_c, 0, 77, 0
1, 297120, Note_on_c, 1, 68, 0
1, 297120, Note_on_c, 1, 69, 63
1, 297360, Note_on_c, 0, 78, 87
1, 297600, Note_on_c, 0, 78, 0
1, 297600, Note_on_c, 0, 81, 89
1, 297600, Note_on_c, 1, 69, 0
1, 297600, Note_on_c, 1, 74, 0
1, 297600, Note_on_c, 1, 67, 60
1, 297600, Note_on_c, 1, 57, 60
1, 297840, Note_on_c, 0, 81, 0
1, 297840, Note_on_c, 0, 73, 82
1, 298080, Note_on_c, 0, 73, 0
1, 298080, Note_on_c, 0, 74, 82
1, 298080, Note_on_c, 1, 57, 0
1, 298080, Note_on_c, 1, 67, 0
1, 298080, Note_on_c, 1, 66, 64
1, 298080, Note_on_c, 1, 62, 64
1, 298200, Note_on_c, 0, 74, 0
1, 298200, Note_on_c, 0, 76, 82
1, 298320, Note_on_c, 0, 76, 0
1, 298320, Note_on_c, 0, 74, 83
1, 298320, Note_on_c, 1, 66, 0
1, 298320, Note_on_c, 1, 69, 57
1, 298440, Note_on_c, 0, 74, 0
1, 298440, Note_on_c, 0, 73, 83
1, 298510, Note_on_c, 1, 69, 0
1, 298560, Note_on_c, 0, 73, 0
1, 298560, Note_on_c, 0, 74, 84
1, 298560, Note_on_c, 1, 69, 57
1, 298680, Note_on_c, 0, 74, 0
1, 298680, Note_on_c, 0, 76, 85
1, 298750, Note_on_c, 1, 69, 0
1, 298800, Note_on_c, 0, 76, 0
1, 298800, Note_on_c, 0, 78, 85
1, 298800, Note_on_c, 1, 69, 56
1, 298920, Note_on_c, 0, 78, 0
1, 298920, Note_on_c, 0, 79, 86
1, 298990, Note_on_c, 1, 69, 0
1, 299040, Note_on_c, 0, 79, 0
1, 299040, Note_on_c, 0, 81, 86
1, 299040, Note_on_c, 1, 66, 56
1, 299160, Note_on_c, 0, 81, 0
1, 299160, Note_on_c, 0, 83, 87
1, 299280, Note_on_c, 0, 83, 0
1, 299280, Note_on_c, 0, 81, 87
1, 299280, Note_on_c, 1, 66, 0
1, 299280, Note_on_c, 1, 69, 55
1, 299400, Note_on_c, 0, 81, 0
1, 299400, Note_on_c, 0, 80, 88
1, 299470, Note_on_c, 1, 69, 0
1, 299520, Note_on_c, 0, 80, 0
1, 299520, Note_on_c, 0, 81, 89
1, 299520, Note_on_c, 1, 69, 55
1, 299640, Note_on_c, 0, 81, 0
1, 299640, Note_on_c, 0, 83, 89
1, 299710, Note_on_c, 1, 69, 0
1, 299760, Note_on_c, 0, 83, 0
1, 299760, Note_on_c, 0, 85, 90
1, 299760, Note_on_c, 1, 69, 54
1, 299880, Note_on_c, 0, 85, 0
1, 299880, Note_on_c, 0, 86, 90
1, 299950, Note_on_c, 1, 69, 0
1, 300000, Note_on_c, 0, 86, 0
1, 300000, Note_on_c, 0, 85, 93
1, 300000, Note_on_c, 1, 62, 0
1, 300000, Note_on_c, 1, 67, 53
1, 300000, Note_on_c, 1, 57, 53
1, 300120, Note_on_c, 0, 85, 0
1, 300120, Note_on_c, 0, 88, 91
1, 300240, Note_on_c, 0, 88, 0
1, 300240, Note_on_c, 0, 85, 90
1, 300240, Note_on_c, 1, 67, 0
1, 300240, Note_on_c, 1, 69, 53
1, 300360, Note_on_c, 0, 85, 0
1, 300360, Note_on_c, 0, 81, 88
1, 300430, Note_on_c, 1, 69, 0
1, 300480, Note_on_c, 0, 81, 0
1, 300480, Note_on_c, 0, 79, 86
1, 300480, Note_on_c, 1, 69, 52
1, 300600, Note_on_c, 0, 79, 0
1, 300600, Note_on_c, 0, 81, 84
1, 300670, Note_on_c, 1, 69, 0
1, 300696, Note_on_c, 0, 81, 0
1, 300720, Note_on_c, 0, 79, 82
1, 300720, Note_on_c, 1, 69, 52
1, 300816, Note_on_c, 0, 79, 0
1, 300840, Note_on_c, 0, 76, 80
1, 300910, Note_on_c, 1, 69, 0
1, 300936, Note_on_c, 0, 76, 0
1, 300960, Note_on_c, 0, 74, 60
1, 300960, Note_on_c, 1, 57, 0
1, 300960, Note_on_c, 1, 66, 59
1, 300960, Note_on_c, 1, 62, 59
1, 301056, Note_on_c, 0, 74, 0
1, 301080, Note_on_c, 0, 76, 60
1, 301200, Note_on_c, 0, 76, 0
1, 301200, Note_on_c, 0, 74, 61
1, 301200, Note_on_c, 1, 66, 0
1, 301200, Note_on_c, 1, 69, 49
1, 301320, Note_on_c, 0, 74, 0
1, 301320, Note_on_c, 0, 73, 62
1, 301390, Note_on_c, 1, 69, 0
1, 301440, Note_on_c, 0, 73, 0
1, 301440, Note_on_c, 0, 74, 63
1, 301440, Note_on_c, 1, 69, 49
1, 301560, Note_on_c, 0, 74, 0
1, 301560, Note_on_c, 0, 76, 64
1, 301630, Note_on_c, 1, 69, 0
1, 301680, Note_on_c, 0, 76, 0
1, 301680, Note_on_c, 0, 78, 65
1, 301680, Note_on_c, 1, 69, 49
1, 301800, Note_on_c, 0, 78, 0
1, 301800, Note_on_c, 0, 79, 66
1, 301870, Note_on_c, 1, 69, 0
1, 301920, Note_on_c, 0, 79, 0
1, 301920, Note_on_c, 0, 81, 66
1, 301920, Note_on_c, 1, 66, 48
1, 302040, Note_on_c, 0, 81, 0
1, 302040, Note_on_c, 0, 83, 67
1, 302160, Note_on_c, 0, 83, 0
1, 302160, Note_on_c, 0, 81, 68
1, 302160, Note_on_c, 1, 66, 0
1, 302160, Note_on_c, 1, 69, 48
1, 302280, Note_on_c, 0, 81, 0
1, 302280, Note_on_c, 0, 80, 69
1, 302350, Note_on_c, 1, 69, 0
1, 302400, Note_on_c, 0, 80, 0
1, 302400, Note_on_c, 0, 81, 70
1, 302400, Note_on_c, 1, 69, 48
1, 302520, Note_on_c, 0, 81, 0
1, 302520, Note_on_c, 0, 83, 71
1, 302590, Note_on_c, 1, 69, 0
1, 302640, Note_on_c, 0, 83, 0
1, 302640, Note_on_c, 0, 85, 71
1, 302640, Note_on_c, 1, 69, 47
1, 302760, Note_on_c, 0, 85, 0
1, 302760, Note_on_c, 0, 86, 72
1, 302830, Note_on_c, 1, 69, 0
1, 302880, Note_on_c, 0, 86, 0
1, 302880, Note_on_c, 0, 85, 75
1, 302880, Note_on_c, 1, 62, 0
1, 302880, Note_on_c, 1, 67, 47
1, 302880, Note_on_c, 1, 57, 47
1, 303000, Note_on_c, 0, 85, 0
1, 303000, Note_on_c, 0, 88, 74
1, 303120, Note_on_c, 0, 88, 0
1, 303120, Note_on_c, 0, 85, 72
1, 303120, Note_on_c, 1, 67, 0
1, 303120, Note_on_c, 1, 69, 46
1, 303240, Note_on_c, 0, 85, 0
1, 303240, Note_on_c, 0, 81, 70
1, 303310, Note_on_c, 1, 69, 0
1, 303360, Note_on_c, 0, 81, 0
1, 303360, Note_on_c, 0, 79, 68
1, 303360, Note_on_c, 1, 69, 46
1, 303480, Note_on_c, 0, 79, 0
1, 303480, Note_on_c, 0, 81, 67
1, 303550, Note_on_c, 1, 69, 0
1, 303576, Note_on_c, 0, 81, 0
1, 303600, Note_on_c, 0, 79, 65
1, 303600, Note_on_c, 1, 69, 46
1, 303696, Note_on_c, 0, 79, 0
1, 303720, Note_on_c, 0, 76, 63
1, 303790, Note_on_c, 1, 69, 0
1, 303816, Note_on_c, 0, 76, 0
1, 303840, Note_on_c, 0, 74, 62
1, 303840, Note_on_c, 1, 57, 0
1, 303960, Note_on_c, 1, 50, 72
1, 304080, Note_on_c, 1, 50, 0
1, 304080, Note_on_c, 1, 52, 73
1, 304200, Note_on_c, 1, 52, 0
1, 304200, Note_on_c, 1, 54, 73
1, 304320, Note_on_c, 0, 74, 0
1, 304320, Note_on_c, 1, 54, 0
1, 304320, Note_on_c, 1, 55, 74
1, 304440, Note_on_c, 1, 55, 0
1, 304440, Note_on_c, 1, 57, 75
1, 304560, Note_on_c, 1, 57, 0
1, 304560, Note_on_c, 1, 59, 75
1, 304680, Note_on_c, 1, 59, 0
1, 304680, Note_on_c, 1, 61, 76
1, 304800, Note_on_c, 1, 61, 0
1, 304800, Note_on_c, 1, 62, 77
1, 304920, Note_on_c, 1, 62, 0
1, 304920, Note_on_c, 1, 61, 78
1, 305040, Note_on_c, 1, 61, 0
1, 305040, Note_on_c, 1, 64, 78
1, 305160, Note_on_c, 1, 64, 0
1, 305160, Note_on_c, 1, 62, 79
1, 305280, Note_on_c, 1, 62, 0
1, 305280, Note_on_c, 1, 66, 80
1, 305400, Note_on_c, 1, 66, 0
1, 305400, Note_on_c, 1, 64, 81
1, 305520, Note_on_c, 1, 64, 0
1, 305520, Note_on_c, 1, 67, 82
1, 305640, Note_on_c, 1, 67, 0
1, 305640, Note_on_c, 1, 66, 84
1, 305760, Note_on_c, 1, 66, 0
1, 305760, Note_on_c, 1, 69, 85
1, 305880, Note_on_c, 1, 69, 0
1, 305880, Note_on_c, 1, 68, 86
1, 306000, Note_on_c, 1, 68, 0
1, 306000, Note_on_c, 1, 72, 89
1, 306072, Note_on_c, 1, 72, 0
1, 306120, Note_on_c, 1, 71, 86
1, 306192, Note_on_c, 1, 71, 0
1, 306240, Note_on_c, 1, 69, 83
1, 306312, Note_on_c, 1, 69, 0
1, 306360, Note_on_c, 1, 67, 80
1, 306432, Note_on_c, 1, 67, 0
1, 306480, Note_on_c, 1, 66, 76
1, 306552, Note_on_c, 1, 66, 0
1, 306600, Note_on_c, 1, 64, 73
1, 306672, Note_on_c, 1, 64, 0
1, 306720, Note_on_c, 1, 63, 70
1, 306840, Note_on_c, 0, 71, 73
1, 306960, Note_on_c, 0, 71, 0
1, 306960, Note_on_c, 0, 73, 74
1, 307080, Note_on_c, 0, 73, 0
1, 307080, Note_on_c, 0, 75, 75
1, 307200, Note_on_c, 0, 75, 0
1, 307200, Note_on_c, 0, 76, 76
1, 307320, Note_on_c, 0, 76, 0
1, 307320, Note_on_c, 0, 78, 77
1, 307440, Note_on_c, 0, 78, 0
1, 307440, Note_on_c, 0, 80, 78
1, 307560, Note_on_c, 0, 80, 0
1, 307560, Note_on_c, 0, 82, 79
1, 307680, Note_on_c, 0, 82, 0
1, 307680, Note_on_c, 0, 83, 81
1, 307800, Note_on_c, 0, 83, 0
1, 307800, Note_on_c, 0, 81, 81
1, 307920, Note_on_c, 0, 81, 0
1, 307920, Note_on_c, 0, 84, 80
1, 308016, Note_on_c, 0, 84, 0
1, 308040, Note_on_c, 0, 83, 79
1, 308136, Note_on_c, 0, 83, 0
1, 308160, Note_on_c, 0, 81, 78
1, 308256, Note_on_c, 0, 81, 0
1, 308280, Note_on_c, 0, 79, 77
1, 308376, Note_on_c, 0, 79, 0
1, 308400, Note_on_c, 0, 78, 77
1, 308496, Note_on_c, 0, 78, 0
1, 308520, Note_on_c, 0, 76, 76
1, 308616, Note_on_c, 0, 76, 0
1, 308640, Note_on_c, 0, 75, 75
1, 308640, Note_on_c, 1, 63, 0
1, 308760, Note_on_c, 0, 75, 0
1, 308760, Note_on_c, 0, 76, 74
1, 308880, Note_on_c, 0, 76, 0
1, 308880, Note_on_c, 0, 78, 72
1, 308976, Note_on_c, 0, 78, 0
1, 309000, Note_on_c, 0, 76, 71
1, 309096, Note_on_c, 0, 76, 0
1, 309120, Note_on_c, 0, 75, 70
1, 309216, Note_on_c, 0, 75, 0
1, 309240, Note_on_c, 0, 72, 69
1, 309336, Note_on_c, 0, 72, 0
1, 309360, Note_on_c, 0, 71, 68
1, 309456, Note_on_c, 0, 71, 0
1, 309480, Note_on_c, 0, 69, 66
1, 309576, Note_on_c, 0, 69, 0
1, 309600, Note_on_c, 0, 67, 65
1, 309720, Note_on_c, 1, 52, 56
1, 309840, Note_on_c, 1, 52, 0
1, 309840, Note_on_c, 1, 54, 57
1, 309960, Note_on_c, 1, 54, 0
1, 309960, Note_on_c, 1, 55, 58
1, 310080, Note_on_c, 0, 67, 0
1, 310080, Note_on_c, 1, 55, 0
1, 310080, Note_on_c, 1, 57, 58
1, 310200, Note_on_c, 1, 57, 0
1, 310200, Note_on_c, 1, 59, 59
1, 310320, Note_on_c, 1, 59, 0
1, 310320, Note_on_c, 1, 61, 60
1, 310440, Note_on_c, 1, 61, 0
1, 310440, Note_on_c, 1, 63, 61
1, 310560, Note_on_c, 1, 63, 0
1, 310560, Note_on_c, 1, 64, 62
1, 310680, Note_on_c, 1, 64, 0
1, 310680, Note_on_c, 1, 63, 62
1, 310800, Note_on_c, 1, 63, 0
1, 310800, Note_on_c, 1, 66, 63
1, 310920, Note_on_c, 1, 66, 0
1, 310920, Note_on_c, 1, 64, 64
1, 311040, Note_on_c, 1, 64, 0
1, 311040, Note_on_c, 1, 67, 65
1, 311160, Note_on_c, 1, 67, 0
1, 311160, Note_on_c, 1, 66, 66
1, 311280, Note_on_c, 1, 66, 0
1, 311280, Note_on_c, 1, 69, 67
1, 311400, Note_on_c, 1, 69, 0
1, 311400, Note_on_c, 1, 67, 67
1, 311520, Note_on_c, 1, 67, 0
1, 311520, Note_on_c, 1, 71, 68
1, 311640, Note_on_c, 1, 71, 0
1, 311640, Note_on_c, 1, 70, 69
1, 311760, Note_on_c, 1, 70, 0
1, 311760, Note_on_c, 1, 74, 71
1, 311844, Note_on_c, 1, 74, 0
1, 311880, Note_on_c, 1, 73, 69
1, 311964, Note_on_c, 1, 73, 0
1, 312000, Note_on_c, 1, 71, 67
1, 312084, Note_on_c, 1, 71, 0
1, 312120, Note_on_c, 1, 69, 65
1, 312204, Note_on_c, 1, 69, 0
1, 312240, Note_on_c, 1, 68, 62
1, 312324, Note_on_c, 1, 68, 0
1, 312360, Note_on_c, 1, 66, 60
1, 312444, Note_on_c, 1, 66, 0
1, 312480, Note_on_c, 1, 65, 58
1, 312600, Note_on_c, 0, 73, 60
1, 312720, Note_on_c, 0, 73, 0
1, 312720, Note_on_c, 0, 75, 62
1, 312840, Note_on_c, 0, 75, 0
1, 312840, Note_on_c, 0, 77, 63
1, 312960, Note_on_c, 0, 77, 0
1, 312960, Note_on_c, 0, 78, 64
1, 313080, Note_on_c, 0, 78, 0
1, 313080, Note_on_c, 0, 80, 66
1, 313200, Note_on_c, 0, 80, 0
1, 313200, Note_on_c, 0, 82, 67
1, 313320, Note_on_c, 0, 82, 0
1, 313320, Note_on_c, 0, 84, 68
1, 313440, Note_on_c, 0, 84, 0
1, 313440, Note_on_c, 0, 85, 70
1, 313440, Note_on_c, 1, 65, 0
1, 313560, Note_on_c, 0, 85, 0
1, 313560, Note_on_c, 0, 83, 71
1, 313680, Note_on_c, 0, 83, 0
1, 313680, Note_on_c, 0, 86, 68
1, 313776, Note_on_c, 0, 86, 0
1, 313800, Note_on_c, 0, 85, 69
1, 313896, Note_on_c, 0, 85, 0
1, 313920, Note_on_c, 0, 83, 68
1, 314016, Note_on_c, 0, 83, 0
1, 314040, Note_on_c, 0, 81, 67
1, 314136, Note_on_c, 0, 81, 0
1, 314160, Note_on_c, 0, 80, 67
1, 314256, Note_on_c, 0, 80, 0
1, 314280, Note_on_c, 0, 78, 66
1, 314376, Note_on_c, 0, 78, 0
1, 314400, Note_on_c, 0, 77, 65
1, 314520, Note_on_c, 0, 77, 0
1, 314520, Note_on_c, 0, 78, 64
1, 314640, Note_on_c, 0, 78, 0
1, 314640, Note_on_c, 0, 80, 64
1, 314736, Note_on_c, 0, 80, 0
1, 314760, Note_on_c, 0, 78, 63
1, 314856, Note_on_c, 0, 78, 0
1, 314880, Note_on_c, 0, 77, 62
1, 314976, Note_on_c, 0, 77, 0
1, 315000, Note_on_c, 0, 74, 62
1, 315096, Note_on_c, 0, 74, 0
1, 315120, Note_on_c, 0, 73, 61
1, 315216, Note_on_c, 0, 73, 0
1, 315240, Note_on_c, 0, 71, 60
1, 315336, Note_on_c, 0, 71, 0
1, 315360, Note_on_c, 0, 69, 60
1, 315360, Note_on_c, 1, 54, 62
1, 315480, Note_on_c, 0, 69, 0
1, 315480, Note_on_c, 0, 66, 61
1, 315600, Note_on_c, 0, 66, 0
1, 315600, Note_on_c, 0, 68, 62
1, 315720, Note_on_c, 0, 68, 0
1, 315720, Note_on_c, 0, 69, 63
1, 315840, Note_on_c, 0, 69, 0
1, 315840, Note_on_c, 0, 71, 64
1, 315960, Note_on_c, 0, 71, 0
1, 315960, Note_on_c, 0, 73, 64
1, 316080, Note_on_c, 0, 73, 0
1, 316080, Note_on_c, 0, 75, 65
1, 316200, Note_on_c, 0, 75, 0
1, 316200, Note_on_c, 0, 77, 66
1, 316320, Note_on_c, 0, 77, 0
1, 316320, Note_on_c, 0, 78, 67
1, 316320, Note_on_c, 1, 54, 0
1, 316320, Note_on_c, 1, 59, 68
1, 316320, Note_on_c, 1, 51, 68
1, 316440, Note_on_c, 0, 78, 0
1, 316440, Note_on_c, 0, 80, 68
1, 316560, Note_on_c, 0, 80, 0
1, 316560, Note_on_c, 0, 78, 69
1, 316680, Note_on_c, 0, 78, 0
1, 316680, Note_on_c, 0, 77, 70
1, 316800, Note_on_c, 0, 77, 0
1, 316800, Note_on_c, 0, 78, 71
1, 316920, Note_on_c, 0, 78, 0
1, 316920, Note_on_c, 0, 80, 71
1, 317040, Note_on_c, 0, 80, 0
1, 317040, Note_on_c, 0, 78, 72
1, 317160, Note_on_c, 0, 78, 0
1, 317160, Note_on_c, 0, 77, 73
1, 317280, Note_on_c, 0, 77, 0
1, 317280, Note_on_c, 0, 78, 74
1, 317280, Note_on_c, 1, 51, 0
1, 317280, Note_on_c, 1, 59, 0
1, 317280, Note_on_c, 1, 60, 74
1, 317280, Note_on_c, 1, 50, 74
1, 317400, Note_on_c, 0, 78, 0
1, 317400, Note_on_c, 0, 80, 75
1, 317520, Note_on_c, 0, 80, 0
1, 317520, Note_on_c, 0, 81, 76
1, 317640, Note_on_c, 0, 81, 0
1, 317640, Note_on_c, 0, 80, 77
1, 317760, Note_on_c, 0, 80, 0
1, 317760, Note_on_c, 0, 83, 78
1, 317844, Note_on_c, 0, 83, 0
1, 317880, Note_on_c, 0, 81, 79
1, 317964, Note_on_c, 0, 81, 0
1, 318000, Note_on_c, 0, 80, 79
1, 318084, Note_on_c, 0, 80, 0
1, 318120, Note_on_c, 0, 78, 80
1, 318204, Note_on_c, 0, 78, 0
1, 318240, Note_on_c, 0, 77, 83
1, 318240, Note_on_c, 1, 50, 0
1, 318240, Note_on_c, 1, 60, 0
1, 318240, Note_on_c, 1, 61, 80
1, 318240, Note_on_c, 1, 49, 80
1, 318360, Note_on_c, 0, 77, 0
1, 318360, Note_on_c, 0, 78, 82
1, 318480, Note_on_c, 0, 78, 0
1, 318480, Note_on_c, 0, 80, 82
1, 318576, Note_on_c, 0, 80, 0
1, 318600, Note_on_c, 0, 78, 81
1, 318696, Note_on_c, 0, 78, 0
1, 318720, Note_on_c, 0, 77, 80
1, 318816, Note_on_c, 0, 77, 0
1, 318840, Note_on_c, 0, 75, 79
1, 318936, Note_on_c, 0, 75, 0
1, 318960, Note_on_c, 0, 73, 78
1, 319056, Note_on_c, 0, 73, 0
1, 319080, Note_on_c, 0, 72, 77
1, 319176, Note_on_c, 0, 72, 0
1, 319200, Note_on_c, 0, 73, 76
1, 319200, Note_on_c, 1, 49, 0
1, 319200, Note_on_c, 1, 61, 0
1, 319320, Note_on_c, 0, 73, 0
1, 319320, Note_on_c, 0, 71, 75
1, 319440, Note_on_c, 0, 71, 0
1, 319440, Note_on_c, 0, 74, 74
1, 319536, Note_on_c, 0, 74, 0
1, 319560, Note_on_c, 0, 73, 73
1, 319656, Note_on_c, 0, 73, 0
1, 319680, Note_on_c, 0, 71, 72
1, 319776, Note_on_c, 0, 71, 0
1, 319800, Note_on_c, 0, 69, 71
1, 319896, Note_on_c, 0, 69, 0
1, 319920, Note_on_c, 0, 68, 71
1, 320016, Note_on_c, 0, 68, 0
1, 320040, Note_on_c, 0, 66, 70
1, 320136, Note_on_c, 0, 66, 0
1, 320160, Note_on_c, 0, 65, 69
1, 320280, Note_on_c, 0, 65, 0
1, 320280, Note_on_c, 1, 62, 68
1, 320400, Note_on_c, 1, 62, 0
1, 320400, Note_on_c, 1, 61, 66
1, 320520, Note_on_c, 1, 61, 0
1, 320520, Note_on_c, 1, 60, 63
1, 320640, Note_on_c, 1, 60, 0
1, 320640, Note_on_c, 1, 61, 61
1, 320736, Note_on_c, 1, 61, 0
1, 320760, Note_on_c, 1, 59, 58
1, 320856, Note_on_c, 1, 59, 0
1, 320880, Note_on_c, 1, 57, 56
1, 320976, Note_on_c, 1, 57, 0
1, 321000, Note_on_c, 1, 56, 56
1, 321096, Note_on_c, 1, 56, 0
1, 321120, Note_on_c, 0, 73, 79
1, 321120, Note_on_c, 1, 54, 62
1, 321360, Note_on_c, 1, 66, 53
1, 321360, Note_on_c, 1, 69, 53
1, 321600, Note_on_c, 1, 69, 0
1, 321600, Note_on_c, 1, 66, 0
1, 321600, Note_on_c, 1, 69, 53
1, 321600, Note_on_c, 1, 66, 53
1, 321840, Note_on_c, 1, 66, 0
1, 321840, Note_on_c, 1, 69, 0
1, 321840, Note_on_c, 1, 66, 52
1, 321840, Note_on_c, 1, 69, 52
1, 322080, Note_on_c, 1, 69, 0
1, 322080, Note_on_c, 1, 66, 0
1, 322080, Note_on_c, 1, 66, 51
1, 322080, Note_on_c, 1, 69, 51
1, 322320, Note_on_c, 0, 78, 73
1, 322320, Note_on_c, 1, 69, 0
1, 322320, Note_on_c, 1, 66, 0
1, 322320, Note_on_c, 1, 66, 50
1, 322320, Note_on_c, 1, 69, 50
1, 322454, Note_on_c, 0, 73, 0
1, 322560, Note_on_c, 0, 78, 0
1, 322560, Note_on_c, 0, 81, 71
1, 322560, Note_on_c, 1, 69, 0
1, 322560, Note_on_c, 1, 66, 0
1, 322560, Note_on_c, 1, 66, 50
1, 322560, Note_on_c, 1, 69, 50
1, 322679, Note_on_c, 0, 81, 0
1, 322800, Note_on_c, 0, 77, 71
1, 322800, Note_on_c, 1, 69, 0
1, 322800, Note_on_c, 1, 66, 0
1, 322800, Note_on_c, 1, 66, 49
1, 322800, Note_on_c, 1, 69, 49
1, 323040, Note_on_c, 0, 77, 0
1, 323040, Note_on_c, 0, 78, 66
1, 323040, Note_on_c, 1, 69, 0
1, 323040, Note_on_c, 1, 66, 0
1, 323040, Note_on_c, 1, 66, 48
1, 323040, Note_on_c, 1, 69, 48
1, 323159, Note_on_c, 0, 78, 0
1, 323280, Note_on_c, 0, 72, 70
1, 323280, Note_on_c, 1, 69, 0
1, 323280, Note_on_c, 1, 66, 0
1, 323280, Note_on_c, 1, 66, 47
1, 323280, Note_on_c, 1, 69, 47
1, 323520, Note_on_c, 0, 72, 0
1, 323520, Note_on_c, 0, 74, 72
1, 323520, Note_on_c, 1, 69, 0
1, 323520, Note_on_c, 1, 66, 0
1, 323520, Note_on_c, 1, 66, 46
1, 323520, Note_on_c, 1, 69, 46
1, 323759, Note_on_c, 1, 54, 0
1, 323760, Note_on_c, 0, 74, 0
1, 323760, Note_on_c, 0, 73, 74
1, 323760, Note_on_c, 1, 69, 0
1, 323760, Note_on_c, 1, 66, 0
1, 323760, Note_on_c, 1, 66, 46
1, 323760, Note_on_c, 1, 69, 46
1, 324000, Note_on_c, 0, 73, 0
1, 324000, Note_on_c, 0, 73, 77
1, 324000, Note_on_c, 1, 69, 0
1, 324000, Note_on_c, 1, 66, 0
1, 324000, Note_on_c, 1, 53, 58
1, 324240, Note_on_c, 1, 68, 49
1, 324240, Note_on_c, 1, 65, 49
1, 324480, Note_on_c, 1, 65, 0
1, 324480, Note_on_c, 1, 68, 0
1, 324480, Note_on_c, 1, 65, 49
1, 324480, Note_on_c, 1, 68, 49
1, 324720, Note_on_c, 1, 68, 0
1, 324720, Note_on_c, 1, 65, 0
1, 324720, Note_on_c, 1, 65, 48
1, 324720, Note_on_c, 1, 68, 48
1, 324960, Note_on_c, 0, 73, 0
1, 324960, Note_on_c, 1, 68, 0
1, 324960, Note_on_c, 1, 65, 0
1, 324960, Note_on_c, 1, 68, 47
1, 324960, Note_on_c, 1, 65, 47
1, 325200, Note_on_c, 0, 80, 72
1, 325200, Note_on_c, 1, 65, 0
1, 325200, Note_on_c, 1, 68, 0
1, 325200, Note_on_c, 1, 65, 46
1, 325200, Note_on_c, 1, 68, 46
1, 325440, Note_on_c, 0, 80, 0
1, 325440, Note_on_c, 0, 83, 69
1, 325440, Note_on_c, 1, 68, 0
1, 325440, Note_on_c, 1, 65, 0
1, 325440, Note_on_c, 1, 65, 46
1, 325440, Note_on_c, 1, 68, 46
1, 325559, Note_on_c, 0, 83, 0
1, 325680, Note_on_c, 0, 77, 70
1, 325680, Note_on_c, 1, 68, 0
1, 325680, Note_on_c, 1, 65, 0
1, 325680, Note_on_c, 1, 65, 45
1, 325680, Note_on_c, 1, 68, 45
1, 325920, Note_on_c, 0, 77, 0
1, 325920, Note_on_c, 0, 80, 67
1, 325920, Note_on_c, 1, 68, 0
1, 325920, Note_on_c, 1, 65, 0
1, 325920, Note_on_c, 1, 65, 44
1, 325920, Note_on_c, 1, 68, 44
1, 326039, Note_on_c, 0, 80, 0
1, 326160, Note_on_c, 0, 72, 66
1, 326160, Note_on_c, 1, 68, 0
1, 326160, Note_on_c, 1, 65, 0
1, 326160, Note_on_c, 1, 65, 43
1, 326160, Note_on_c, 1, 68, 43
1, 326400, Note_on_c, 0, 72, 0
1, 326400, Note_on_c, 0, 74, 68
1, 326400, Note_on_c, 1, 68, 0
1, 326400, Note_on_c, 1, 65, 0
1, 326400, Note_on_c, 1, 65, 43
1, 326400, Note_on_c, 1, 68, 43
1, 326640, Note_on_c, 0, 74, 0
1, 326640, Note_on_c, 0, 73, 71
1, 326640, Note_on_c, 1, 68, 0
1, 326640, Note_on_c, 1, 65, 0
1, 326640, Note_on_c, 1, 68, 42
1, 326640, Note_on_c, 1, 65, 42
1, 326682, Note_on_c, 1, 53, 0
1, 326880, Note_on_c, 0, 73, 0
1, 326880, Note_on_c, 1, 65, 0
1, 326880, Note_on_c, 1, 68, 0
1, 326880, Note_on_c, 1, 73, 60
1, 326880, Note_on_c, 1, 66, 60
1, 327120, Note_on_c, 0, 81, 68
1, 327360, Note_on_c, 0, 81, 0
1, 327360, Note_on_c, 1, 66, 0
1, 327360, Note_on_c, 1, 64, 62
1, 327600, Note_on_c, 0, 80, 70
1, 327840, Note_on_c, 0, 80, 0
1, 327840, Note_on_c, 1, 64, 0
1, 327840, Note_on_c, 1, 62, 65
1, 328080, Note_on_c, 0, 77, 73
1, 328320, Note_on_c, 0, 77, 0
1, 328320, Note_on_c, 0, 78, 74
1, 328560, Note_on_c, 0, 78, 0
1, 328560, Note_on_c, 0, 80, 75
1, 328800, Note_on_c, 0, 80, 0
1, 328800, Note_on_c, 0, 83, 76
1, 328800, Note_on_c, 1, 73, 0
1, 328800, Note_on_c, 1, 72, 70
1, 329040, Note_on_c, 0, 83, 0
1, 329040, Note_on_c, 0, 81, 72
1, 329280, Note_on_c, 0, 81, 0
1, 329280, Note_on_c, 0, 80, 71
1, 329520, Note_on_c, 0, 80, 0
1, 329520, Note_on_c, 0, 78, 69
1, 329760, Note_on_c, 1, 72, 0
1, 329760, Note_on_c, 1, 62, 0
1, 329760, Note_on_c, 1, 61, 57
1, 329760, Note_on_c, 1, 73, 57
1, 330000, Note_on_c, 0, 78, 0
1, 330000, Note_on_c, 0, 77, 67
1, 330240, Note_on_c, 0, 77, 0
1, 330240, Note_on_c, 0, 80, 61
1, 330240, Note_on_c, 1, 73, 0
1, 330240, Note_on_c, 1, 61, 0
1, 330432, Note_on_c, 0, 80, 0
1, 330480, Note_on_c, 0, 72, 60
1, 330720, Note_on_c, 0, 72, 0
1, 330720, Note_on_c, 0, 73, 57
1, 330960, Note_on_c, 1, 65, 52
1, 331200, Note_on_c, 0, 73, 0
1, 331200, Note_on_c, 1, 65, 0
1, 331200, Note_on_c, 1, 68, 53
1, 331440, Note_on_c, 1, 68, 0
1, 331440, Note_on_c, 1, 61, 54
1, 331680, Note_on_c, 1, 61, 0
1, 331680, Note_on_c, 1, 62, 55
1, 331920, Note_on_c, 1, 62, 0
1, 331920, Note_on_c, 1, 56, 56
1, 332160, Note_on_c, 1, 56, 0
1, 332160, Note_on_c, 1, 59, 56
1, 332400, Note_on_c, 1, 59, 0
1, 332400, Note_on_c, 1, 53, 57
1, 332640, Note_on_c, 0, 73, 75
1, 332640, Note_on_c, 1, 53, 0
1, 332640, Note_on_c, 1, 54, 62
1, 332880, Note_on_c, 1, 66, 51
1, 332880, Note_on_c, 1, 69, 51
1, 333120, Note_on_c, 1, 69, 0
1, 333120, Note_on_c, 1, 66, 0
1, 333120, Note_on_c, 1, 66, 51
1, 333120, Note_on_c, 1, 69, 51
1, 333360, Note_on_c, 1, 69, 0
1, 333360, Note_on_c, 1, 66, 0
1, 333360, Note_on_c, 1, 66, 50
1, 333360, Note_on_c, 1, 69, 50
1, 333600, Note_on_c, 1, 69, 0
1, 333600, Note_on_c, 1, 66, 0
1, 333600, Note_on_c, 1, 66, 50
1, 333600, Note_on_c, 1, 69, 50
1, 333840, Note_on_c, 0, 78, 68
1, 333840, Note_on_c, 1, 69, 0
1, 333840, Note_on_c, 1, 66, 0
1, 333840, Note_on_c, 1, 66, 49
1, 333840, Note_on_c, 1, 69, 49
1, 333946, Note_on_c, 0, 73, 0
1, 334080, Note_on_c, 0, 78, 0
1, 334080, Note_on_c, 0, 81, 64
1, 334080, Note_on_c, 1, 69, 0
1, 334080, Note_on_c, 1, 66, 0
1, 334080, Note_on_c, 1, 66, 49
1, 334080, Note_on_c, 1, 69, 49
1, 334235, Note_on_c, 0, 81, 0
1, 334320, Note_on_c, 0, 77, 65
1, 334320, Note_on_c, 1, 69, 0
1, 334320, Note_on_c, 1, 66, 0
1, 334320, Note_on_c, 1, 66, 48
1, 334320, Note_on_c, 1, 69, 48
1, 334560, Note_on_c, 0, 77, 0
1, 334560, Note_on_c, 0, 78, 60
1, 334560, Note_on_c, 1, 69, 0
1, 334560, Note_on_c, 1, 66, 0
1, 334560, Note_on_c, 1, 66, 47
1, 334560, Note_on_c, 1, 69, 47
1, 334715, Note_on_c, 0, 78, 0
1, 334800, Note_on_c, 0, 72, 62
1, 334800, Note_on_c, 1, 69, 0
1, 334800, Note_on_c, 1, 66, 0
1, 334800, Note_on_c, 1, 66, 47
1, 334800, Note_on_c, 1, 69, 47
1, 335040, Note_on_c, 0, 72, 0
1, 335040, Note_on_c, 0, 74, 64
1, 335040, Note_on_c, 1, 69, 0
1, 335040, Note_on_c, 1, 66, 0
1, 335040, Note_on_c, 1, 66, 46
1, 335040, Note_on_c, 1, 69, 46
1, 335279, Note_on_c, 1, 54, 0
1, 335280, Note_on_c, 0, 74, 0
1, 335280, Note_on_c, 0, 73, 67
1, 335280, Note_on_c, 1, 69, 0
1, 335280, Note_on_c, 1, 66, 0
1, 335280, Note_on_c, 1, 66, 46
1, 335280, Note_on_c, 1, 69, 46
1, 335520, Note_on_c, 0, 73, 0
1, 335520, Note_on_c, 0, 73, 77
1, 335520, Note_on_c, 1, 69, 0
1, 335520, Note_on_c, 1, 66, 0
1, 335520, Note_on_c, 1, 52, 58
1, 335760, Note_on_c, 1, 64, 49
1, 335760, Note_on_c, 1, 67, 49
1, 336000, Note_on_c, 1, 67, 0
1, 336000, Note_on_c, 1, 64, 0
1, 336000, Note_on_c, 1, 67, 48
1, 336000, Note_on_c, 1, 64, 48
1, 336240, Note_on_c, 1, 64, 0
1, 336240, Note_on_c, 1, 67, 0
1, 336240, Note_on_c, 1, 64, 48
1, 336240, Note_on_c, 1, 67, 48
1, 336480, Note_on_c, 0, 73, 0
1, 336480, Note_on_c, 1, 67, 0
1, 336480, Note_on_c, 1, 64, 0
1, 336480, Note_on_c, 1, 64, 47
1, 336480, Note_on_c, 1, 67, 47
1, 336720, Note_on_c, 0, 79, 72
1, 336720, Note_on_c, 1, 67, 0
1, 336720, Note_on_c, 1, 64, 0
1, 336720, Note_on_c, 1, 64, 46
1, 336720, Note_on_c, 1, 67, 46
1, 336960, Note_on_c, 0, 79, 0
1, 336960, Note_on_c, 0, 82, 68
1, 336960, Note_on_c, 1, 67, 0
1, 336960, Note_on_c, 1, 64, 0
1, 336960, Note_on_c, 1, 64, 46
1, 336960, Note_on_c, 1, 67, 46
1, 337115, Note_on_c, 0, 82, 0
1, 337200, Note_on_c, 0, 76, 70
1, 337200, Note_on_c, 1, 67, 0
1, 337200, Note_on_c, 1, 64, 0
1, 337200, Note_on_c, 1, 64, 45
1, 337200, Note_on_c, 1, 67, 45
1, 337440, Note_on_c, 0, 76, 0
1, 337440, Note_on_c, 0, 79, 67
1, 337440, Note_on_c, 1, 67, 0
1, 337440, Note_on_c, 1, 64, 0
1, 337440, Note_on_c, 1, 64, 44
1, 337440, Note_on_c, 1, 67, 44
1, 337595, Note_on_c, 0, 79, 0
1, 337680, Note_on_c, 0, 73, 68
1, 337680, Note_on_c, 1, 67, 0
1, 337680, Note_on_c, 1, 64, 0
1, 337680, Note_on_c, 1, 64, 43
1, 337680, Note_on_c, 1, 67, 43
1, 337920, Note_on_c, 0, 73, 0
1, 337920, Note_on_c, 0, 76, 67
1, 337920, Note_on_c, 1, 67, 0
1, 337920, Note_on_c, 1, 64, 0
1, 337920, Note_on_c, 1, 64, 43
1, 337920, Note_on_c, 1, 67, 43
1, 338160, Note_on_c, 0, 76, 0
1, 338160, Note_on_c, 0, 70, 64
1, 338160, Note_on_c, 1, 67, 0
1, 338160, Note_on_c, 1, 64, 0
1, 338160, Note_on_c, 1, 64, 42
1, 338160, Note_on_c, 1, 67, 42
1, 338288, Note_on_c, 1, 52, 0
1, 338400, Note_on_c, 0, 70, 0
1, 338400, Note_on_c, 1, 67, 0
1, 338400, Note_on_c, 1, 64, 0
1, 338400, Note_on_c, 1, 66, 67
1, 338400, Note_on_c, 1, 63, 67
1, 338640, Note_on_c, 0, 71, 67
1, 338880, Note_on_c, 0, 71, 0
1, 338880, Note_on_c, 1, 63, 0
1, 338880, Note_on_c, 1, 62, 65
1, 339120, Note_on_c, 0, 72, 70
1, 339360, Note_on_c, 0, 72, 0
1, 339360, Note_on_c, 1, 62, 0
1, 339360, Note_on_c, 1, 61, 62
1, 339600, Note_on_c, 0, 73, 73
1, 339840, Note_on_c, 0, 73, 0
1, 339840, Note_on_c, 0, 78, 75
1, 339840, Note_on_c, 1, 61, 0
1, 339840, Note_on_c, 1, 66, 0
1, 340080, Note_on_c, 0, 78, 0
1, 340080, Note_on_c, 0, 69, 76
1, 340320, Note_on_c, 0, 69, 0
1, 340320, Note_on_c, 0, 73, 76
1, 340320, Note_on_c, 1, 57, 57
1, 340320, Note_on_c, 1, 49, 57
1, 340560, Note_on_c, 0, 73, 0
1, 340560, Note_on_c, 0, 66, 72
1, 340800, Note_on_c, 0, 66, 0
1, 340800, Note_on_c, 0, 71, 69
1, 340800, Note_on_c, 1, 57, 0
1, 340800, Note_on_c, 1, 56, 55
1, 341040, Note_on_c, 0, 71, 0
1, 341040, Note_on_c, 0, 65, 65
1, 341280, Note_on_c, 0, 65, 0
1, 341280, Note_on_c, 0, 66, 74
1, 341280, Note_on_c, 1, 56, 0
1, 341280, Note_on_c, 1, 49, 0
1, 341280, Note_on_c, 1, 57, 67
1, 341280, Note_on_c, 1, 54, 67
1, 341520, Note_on_c, 0, 66, 0
1, 341520, Note_on_c, 0, 68, 75
1, 341520, Note_on_c, 1, 57, 0
1, 341520, Note_on_c, 1, 61, 66
1, 341640, Note_on_c, 0, 68, 0
1, 341640, Note_on_c, 0, 69, 76
1, 341710, Note_on_c, 1, 61, 0
1, 341760, Note_on_c, 0, 69, 0
1, 341760, Note_on_c, 0, 71, 77
1, 341760, Note_on_c, 1, 61, 66
1, 341880, Note_on_c, 0, 71, 0
1, 341880, Note_on_c, 0, 73, 78
1, 341950, Note_on_c, 1, 61, 0
1, 342000, Note_on_c, 0, 73, 0
1, 342000, Note_on_c, 0, 75, 79
1, 342000, Note_on_c, 1, 61, 65
1, 342120, Note_on_c, 0, 75, 0
1, 342120, Note_on_c, 0, 77, 79
1, 342190, Note_on_c, 1, 61, 0
1, 342240, Note_on_c, 0, 77, 0
1, 342240, Note_on_c, 0, 78, 80
1, 342240, Note_on_c, 1, 57, 64
1, 342360, Note_on_c, 0, 78, 0
1, 342360, Note_on_c, 0, 80, 81
1, 342480, Note_on_c, 0, 80, 0
1, 342480, Note_on_c, 0, 81, 82
1, 342480, Note_on_c, 1, 57, 0
1, 342480, Note_on_c, 1, 61, 64
1, 342600, Note_on_c, 0, 81, 0
1, 342600, Note_on_c, 0, 83, 82
1, 342670, Note_on_c, 1, 61, 0
1, 342720, Note_on_c, 0, 83, 0
1, 342720, Note_on_c, 0, 85, 83
1, 342720, Note_on_c, 1, 61, 63
1, 342840, Note_on_c, 0, 85, 0
1, 342840, Note_on_c, 0, 81, 83
1, 342910, Note_on_c, 1, 61, 0
1, 342960, Note_on_c, 0, 81, 0
1, 342960, Note_on_c, 0, 80, 82
1, 342960, Note_on_c, 1, 61, 62
1, 343080, Note_on_c, 0, 80, 0
1, 343080, Note_on_c, 0, 78, 82
1, 343150, Note_on_c, 1, 61, 0
1, 343200, Note_on_c, 0, 78, 0
1, 343200, Note_on_c, 0, 77, 81
1, 343200, Note_on_c, 1, 54, 0
1, 343200, Note_on_c, 1, 59, 62
1, 343200, Note_on_c, 1, 49, 62
1, 343320, Note_on_c, 0, 77, 0
1, 343320, Note_on_c, 0, 80, 80
1, 343440, Note_on_c, 0, 80, 0
1, 343440, Note_on_c, 0, 77, 79
1, 343440, Note_on_c, 1, 59, 0
1, 343440, Note_on_c, 1, 61, 61
1, 343560, Note_on_c, 0, 77, 0
1, 343560, Note_on_c, 0, 73, 78
1, 343630, Note_on_c, 1, 61, 0
1, 343680, Note_on_c, 0, 73, 0
1, 343680, Note_on_c, 0, 71, 78
1, 343680, Note_on_c, 1, 61, 60
1, 343800, Note_on_c, 0, 71, 0
1, 343800, Note_on_c, 0, 73, 77
1, 343870, Note_on_c, 1, 61, 0
1, 343920, Note_on_c, 0, 73, 0
1, 343920, Note_on_c, 0, 71, 76
1, 343920, Note_on_c, 1, 61, 60
1, 344040, Note_on_c, 0, 71, 0
1, 344040, Note_on_c, 0, 68, 76
1, 344110, Note_on_c, 1, 61, 0
1, 344160, Note_on_c, 0, 68, 0
1, 344160, Note_on_c, 0, 66, 66
1, 344160, Note_on_c, 1, 49, 0
1, 344160, Note_on_c, 1, 57, 55
1, 344160, Note_on_c, 1, 54, 55
1, 344400, Note_on_c, 0, 66, 0
1, 344400, Note_on_c, 0, 68, 66
1, 344400, Note_on_c, 1, 57, 0
1, 344400, Note_on_c, 1, 61, 55
1, 344520, Note_on_c, 0, 68, 0
1, 344520, Note_on_c, 0, 69, 66
1, 344590, Note_on_c, 1, 61, 0
1, 344640, Note_on_c, 0, 69, 0
1, 344640, Note_on_c, 0, 71, 66
1, 344640, Note_on_c, 1, 61, 54
1, 344760, Note_on_c, 0, 71, 0
1, 344760, Note_on_c, 0, 73, 67
1, 344830, Note_on_c, 1, 61, 0
1, 344880, Note_on_c, 0, 73, 0
1, 344880, Note_on_c, 0, 75, 67
1, 344880, Note_on_c, 1, 61, 54
1, 345000, Note_on_c, 0, 75, 0
1, 345000, Note_on_c, 0, 77, 67
1, 345070, Note_on_c, 1, 61, 0
1, 345120, Note_on_c, 0, 77, 0
1, 345120, Note_on_c, 0, 78, 67
1, 345120, Note_on_c, 1, 57, 53
1, 345240, Note_on_c, 0, 78, 0
1, 345240, Note_on_c, 0, 80, 68
1, 345360, Note_on_c, 0, 80, 0
1, 345360, Note_on_c, 0, 81, 68
1, 345360, Note_on_c, 1, 57, 0
1, 345360, Note_on_c, 1, 61, 53
1, 345480, Note_on_c, 0, 81, 0
1, 345480, Note_on_c, 0, 83, 68
1, 345550, Note_on_c, 1, 61, 0
1, 345600, Note_on_c, 0, 83, 0
1, 345600, Note_on_c, 0, 85, 70
1, 345600, Note_on_c, 1, 61, 52
1, 345720, Note_on_c, 0, 85, 0
1, 345720, Note_on_c, 0, 81, 70
1, 345790, Note_on_c, 1, 61, 0
1, 345840, Note_on_c, 0, 81, 0
1, 345840, Note_on_c, 0, 80, 70
1, 345840, Note_on_c, 1, 61, 52
1, 345960, Note_on_c, 0, 80, 0
1, 345960, Note_on_c, 0, 78, 69
1, 346030, Note_on_c, 1, 61, 0
1, 346080, Note_on_c, 0, 78, 0
1, 346080, Note_on_c, 0, 77, 69
1, 346080, Note_on_c, 1, 54, 0
1, 346080, Note_on_c, 1, 59, 51
1, 346080, Note_on_c, 1, 49, 51
1, 346200, Note_on_c, 0, 77, 0
1, 346200, Note_on_c, 0, 80, 69
1, 346320, Note_on_c, 0, 80, 0
1, 346320, Note_on_c, 0, 77, 68
1, 346320, Note_on_c, 1, 59, 0
1, 346320, Note_on_c, 1, 61, 51
1, 346440, Note_on_c, 0, 77, 0
1, 346440, Note_on_c, 0, 73, 68
1, 346510, Note_on_c, 1, 61, 0
1, 346560, Note_on_c, 0, 73, 0
1, 346560, Note_on_c, 0, 71, 67
1, 346560, Note_on_c, 1, 61, 50
1, 346680, Note_on_c, 0, 71, 0
1, 346680, Note_on_c, 0, 73, 67
1, 346750, Note_on_c, 1, 61, 0
1, 346800, Note_on_c, 0, 73, 0
1, 346800, Note_on_c, 0, 71, 67
1, 346800, Note_on_c, 1, 61, 50
1, 346920, Note_on_c, 0, 71, 0
1, 346920, Note_on_c, 0, 68, 66
1, 346990, Note_on_c, 1, 61, 0
1, 347040, Note_on_c, 0, 68, 0
1, 347040, Note_on_c, 0, 66, 64
1, 347040, Note_on_c, 1, 49, 0
1, 347160, Note_on_c, 1, 42, 79
1, 347280, Note_on_c, 1, 42, 0
1, 347280, Note_on_c, 1, 44, 78
1, 347400, Note_on_c, 1, 44, 0
1, 347400, Note_on_c, 1, 45, 77
1, 347520, Note_on_c, 1, 45, 0
1, 347520, Note_on_c, 1, 47, 77
1, 347640, Note_on_c, 1, 47, 0
1, 347640, Note_on_c, 1, 49, 76
1, 347760, Note_on_c, 1, 49, 0
1, 347760, Note_on_c, 1, 51, 75
1, 347880, Note_on_c, 1, 51, 0
1, 347880, Note_on_c, 1, 53, 74
1, 348000, Note_on_c, 0, 66, 0
1, 348000, Note_on_c, 1, 53, 0
1, 348000, Note_on_c, 1, 54, 73
1, 348120, Note_on_c, 0, 66, 77
1, 348240, Note_on_c, 0, 66, 0
1, 348240, Note_on_c, 0, 68, 77
1, 348360, Note_on_c, 0, 68, 0
1, 348360, Note_on_c, 0, 69, 76
1, 348480, Note_on_c, 0, 69, 0
1, 348480, Note_on_c, 0, 71, 75
1, 348480, Note_on_c, 1, 54, 0
1, 348600, Note_on_c, 0, 71, 0
1, 348600, Note_on_c, 0, 73, 75
1, 348720, Note_on_c, 0, 73, 0
1, 348720, Note_on_c, 0, 75, 74
1, 348840, Note_on_c, 0, 75, 0
1, 348840, Note_on_c, 0, 77, 73
1, 348960, Note_on_c, 0, 77, 0
1, 348960, Note_on_c, 0, 78, 73
1, 349080, Note_on_c, 0, 78, 0
1, 349080, Note_on_c, 0, 80, 72
1, 349200, Note_on_c, 0, 80, 0
1, 349200, Note_on_c, 0, 81, 72
1, 349320, Note_on_c, 0, 81, 0
1, 349320, Note_on_c, 0, 83, 71
1, 349440, Note_on_c, 0, 83, 0
1, 349440, Note_on_c, 0, 85, 70
1, 349560, Note_on_c, 0, 85, 0
1, 349560, Note_on_c, 0, 81, 70
1, 349680, Note_on_c, 0, 81, 0
1, 349680, Note_on_c, 0, 78, 69
1, 349800, Note_on_c, 0, 78, 0
1, 349800, Note_on_c, 0, 73, 68
1, 349920, Note_on_c, 0, 73, 0
1, 349920, Note_on_c, 0, 74, 68
1, 350040, Note_on_c, 1, 53, 73
1, 350160, Note_on_c, 1, 53, 0
1, 350160, Note_on_c, 1, 55, 72
1, 350280, Note_on_c, 1, 55, 0
1, 350280, Note_on_c, 1, 57, 71
1, 350400, Note_on_c, 0, 74, 0
1, 350400, Note_on_c, 1, 57, 0
1, 350400, Note_on_c, 1, 59, 70
1, 350520, Note_on_c, 1, 59, 0
1, 350520, Note_on_c, 1, 61, 70
1, 350640, Note_on_c, 1, 61, 0
1, 350640, Note_on_c, 1, 62, 69
1, 350760, Note_on_c, 1, 62, 0
1, 350760, Note_on_c, 1, 64, 68
1, 350880, Note_on_c, 1, 64, 0
1, 350880, Note_on_c, 1, 65, 68
1, 351000, Note_on_c, 0, 69, 73
1, 351120, Note_on_c, 0, 69, 0
1, 351120, Note_on_c, 0, 71, 74
1, 351240, Note_on_c, 0, 71, 0
1, 351240, Note_on_c, 0, 73, 75
1, 351360, Note_on_c, 0, 73, 0
1, 351360, Note_on_c, 0, 74, 76
1, 351360, Note_on_c, 1, 65, 0
1, 351480, Note_on_c, 0, 74, 0
1, 351480, Note_on_c, 0, 76, 77
1, 351600, Note_on_c, 0, 76, 0
1, 351600, Note_on_c, 0, 77, 78
1, 351720, Note_on_c, 0, 77, 0
1, 351720, Note_on_c, 0, 79, 79
1, 351840, Note_on_c, 0, 79, 0
1, 351840, Note_on_c, 0, 81, 80
1, 351960, Note_on_c, 0, 81, 0
1, 351960, Note_on_c, 0, 74, 81
1, 352080, Note_on_c, 0, 74, 0
1, 352080, Note_on_c, 0, 77, 82
1, 352200, Note_on_c, 0, 77, 0
1, 352200, Note_on_c, 0, 81, 83
1, 352320, Note_on_c, 0, 81, 0
1, 352320, Note_on_c, 0, 86, 84
1, 352440, Note_on_c, 0, 86, 0
1, 352440, Note_on_c, 0, 84, 85
1, 352560, Note_on_c, 0, 84, 0
1, 352560, Note_on_c, 0, 83, 86
1, 352680, Note_on_c, 0, 83, 0
1, 352680, Note_on_c, 0, 81, 87
1, 352800, Note_on_c, 0, 81, 0
1, 352800, Note_on_c, 0, 81, 89
1, 352800, Note_on_c, 1, 59, 79
1, 352800, Note_on_c, 1, 62, 79
1, 352800, Note_on_c, 1, 52, 79
1, 352920, Note_on_c, 0, 81, 0
1, 352920, Note_on_c, 0, 80, 88
1, 353040, Note_on_c, 0, 80, 0
1, 353040, Note_on_c, 0, 83, 87
1, 353160, Note_on_c, 0, 83, 0
1, 353160, Note_on_c, 0, 82, 87
1, 353280, Note_on_c, 0, 82, 0
1, 353280, Note_on_c, 0, 85, 86
1, 353400, Note_on_c, 0, 85, 0
1, 353400, Note_on_c, 0, 83, 85
1, 353520, Note_on_c, 0, 83, 0
1, 353520, Note_on_c, 0, 81, 85
1, 353640, Note_on_c, 0, 81, 0
1, 353640, Note_on_c, 0, 80, 84
1, 353760, Note_on_c, 0, 80, 0
1, 353760, Note_on_c, 0, 78, 83
1, 353880, Note_on_c, 0, 78, 0
1, 353880, Note_on_c, 0, 76, 82
1, 354000, Note_on_c, 0, 76, 0
1, 354000, Note_on_c, 0, 78, 82
1, 354120, Note_on_c, 0, 78, 0
1, 354120, Note_on_c, 0, 77, 81
1, 354240, Note_on_c, 0, 77, 0
1, 354240, Note_on_c, 0, 80, 80
1, 354360, Note_on_c, 0, 80, 0
1, 354360, Note_on_c, 0, 78, 79
1, 354480, Note_on_c, 0, 78, 0
1, 354480, Note_on_c, 0, 76, 79
1, 354600, Note_on_c, 0, 76, 0
1, 354600, Note_on_c, 0, 74, 78
1, 354720, Note_on_c, 0, 74, 0
1, 354720, Note_on_c, 0, 73, 77
1, 354720, Note_on_c, 1, 59, 0
1, 354720, Note_on_c, 1, 56, 70
1, 354840, Note_on_c, 0, 73, 0
1, 354840, Note_on_c, 0, 71, 76
1, 354960, Note_on_c, 0, 71, 0
1, 354960, Note_on_c, 0, 74, 76
1, 355080, Note_on_c, 0, 74, 0
1, 355080, Note_on_c, 0, 73, 75
1, 355200, Note_on_c, 0, 73, 0
1, 355200, Note_on_c, 0, 76, 74
1, 355320, Note_on_c, 0, 76, 0
1, 355320, Note_on_c, 0, 74, 73
1, 355416, Note_on_c, 0, 74, 0
1, 355440, Note_on_c, 0, 73, 73
1, 355524, Note_on_c, 0, 73, 0
1, 355560, Note_on_c, 0, 72, 72
1, 355644, Note_on_c, 0, 72, 0
1, 355680, Note_on_c, 0, 73, 73
1, 355680, Note_on_c, 1, 56, 0
1, 355680, Note_on_c, 1, 52, 0
1, 355680, Note_on_c, 1, 62, 0
1, 355680, Note_on_c, 1, 57, 69
1, 355680, Note_on_c, 1, 64, 69
1, 356400, Note_on_c, 0, 73, 0
1, 356400, Note_on_c, 0, 74, 64
1, 356460, Note_on_c, 0, 74, 0
1, 356460, Note_on_c, 0, 73, 65
1, 356520, Note_on_c, 0, 73, 0
1, 356520, Note_on_c, 0, 71, 67
1, 356580, Note_on_c, 0, 71, 0
1, 356580, Note_on_c, 0, 73, 68
1, 356640, Note_on_c, 0, 73, 0
1, 356640, Note_on_c, 0, 76, 69
1, 356640, Note_on_c, 1, 57, 0
1, 356640, Note_on_c, 1, 59, 65
1, 357120, Note_on_c, 0, 76, 0
1, 357120, Note_on_c, 0, 74, 68
1, 357600, Note_on_c, 0, 74, 0
1, 357600, Note_on_c, 0, 71, 67
1, 357600, Note_on_c, 1, 59, 0
1, 357600, Note_on_c, 1, 62, 62
1, 358080, Note_on_c, 0, 71, 0
1, 358080, Note_on_c, 0, 68, 65
1, 358560, Note_on_c, 0, 68, 0
1, 358560, Note_on_c, 0, 69, 62
1, 358560, Note_on_c, 1, 62, 0
1, 358560, Note_on_c, 1, 64, 0
1, 358560, Note_on_c, 1, 61, 59
1, 358560, Note_on_c, 1, 64, 59
1, 359280, Note_on_c, 0, 69, 0
1, 359280, Note_on_c, 0, 73, 66
1, 359400, Note_on_c, 0, 73, 0
1, 359400, Note_on_c, 0, 69, 69
1, 359520, Note_on_c, 0, 69, 0
1, 359520, Note_on_c, 0, 76, 72
1, 359520, Note_on_c, 1, 64, 0
1, 359520, Note_on_c, 1, 61, 0
1, 360000, Note_on_c, 1, 68, 63
1, 360000, Note_on_c, 1, 74, 63
1, 360360, Note_on_c, 1, 74, 0
1, 360360, Note_on_c, 1, 68, 0
1, 360480, Note_on_c, 1, 68, 61
1, 360480, Note_on_c, 1, 74, 61
1, 360840, Note_on_c, 1, 74, 0
1, 360840, Note_on_c, 1, 68, 0
1, 360960, Note_on_c, 1, 68, 59
1, 360960, Note_on_c, 1, 74, 59
1, 361320, Note_on_c, 1, 74, 0
1, 361320, Note_on_c, 1, 68, 0
1, 361440, Note_on_c, 1, 73, 56
1, 361440, Note_on_c, 1, 69, 56
1, 361670, Note_on_c, 0, 76, 0
1, 361680, Note_on_c, 0, 81, 66
1, 361920, Note_on_c, 0, 81, 0
1, 361920, Note_on_c, 0, 80, 65
1, 362160, Note_on_c, 0, 80, 0
1, 362160, Note_on_c, 0, 79, 65
1, 362400, Note_on_c, 0, 79, 0
1, 362400, Note_on_c, 0, 77, 64
1, 362400, Note_on_c, 1, 69, 0
1, 362400, Note_on_c, 1, 73, 0
1, 362400, Note_on_c, 1, 62, 54
1, 362400, Note_on_c, 1, 74, 54
1, 362640, Note_on_c, 0, 77, 0
1, 362640, Note_on_c, 0, 78, 63
1, 362880, Note_on_c, 0, 78, 0
1, 362880, Note_on_c, 0, 76, 63
1, 363120, Note_on_c, 0, 76, 0
1, 363120, Note_on_c, 0, 74, 62
1, 363360, Note_on_c, 0, 74, 0
1, 363360, Note_on_c, 0, 73, 62
1, 363360, Note_on_c, 1, 74, 0
1, 363360, Note_on_c, 1, 62, 0
1, 363600, Note_on_c, 0, 73, 0
1, 363600, Note_on_c, 0, 71, 61
1, 363840, Note_on_c, 0, 71, 0
1, 363840, Note_on_c, 0, 74, 60
1, 364080, Note_on_c, 0, 74, 0
1, 364080, Note_on_c, 0, 78, 60
1, 364320, Note_on_c, 0, 78, 0
1, 364320, Note_on_c, 0, 69, 59
1, 364320, Note_on_c, 1, 61, 59
1, 364320, Note_on_c, 1, 52, 59
1, 365040, Note_on_c, 0, 69, 0
1, 365040, Note_on_c, 0, 71, 57
1, 365160, Note_on_c, 0, 71, 0
1, 365160, Note_on_c, 0, 69, 56
1, 365280, Note_on_c, 0, 69, 0
1, 365280, Note_on_c, 0, 68, 55
1, 365280, Note_on_c, 1, 61, 0
1, 365280, Note_on_c, 1, 59, 54
1, 365470, Note_on_c, 0, 68, 0
1, 365520, Note_on_c, 0, 64, 56
1, 365760, Note_on_c, 0, 64, 0
1, 365760, Note_on_c, 0, 66, 57
1, 366000, Note_on_c, 0, 66, 0
1, 366000, Note_on_c, 0, 68, 59
1, 366240, Note_on_c, 0, 68, 0
1, 366240, Note_on_c, 0, 69, 61
1, 366240, Note_on_c, 1, 59, 0
1, 366240, Note_on_c, 1, 52, 0
1, 366480, Note_on_c, 0, 69, 0
1, 366480, Note_on_c, 0, 70, 63
1, 366720, Note_on_c, 0, 70, 0
1, 366720, Note_on_c, 0, 71, 66
1, 366960, Note_on_c, 0, 71, 0
1, 366960, Note_on_c, 0, 72, 68
1, 367200, Note_on_c, 0, 72, 0
1, 367200, Note_on_c, 0, 73, 71
1, 367200, Note_on_c, 1, 57, 65
1, 367200, Note_on_c, 1, 69, 65
1, 367920, Note_on_c, 0, 73, 0
1, 367920, Note_on_c, 0, 74, 63
1, 367980, Note_on_c, 0, 74, 0
1, 367980, Note_on_c, 0, 73, 64
1, 368040, Note_on_c, 0, 73, 0
1, 368040, Note_on_c, 0, 71, 65
1, 368100, Note_on_c, 0, 71, 0
1, 368100, Note_on_c, 0, 73, 67
1, 368160, Note_on_c, 0, 73, 0
1, 368160, Note_on_c, 0, 76, 68
1, 368160, Note_on_c, 1, 69, 0
1, 368160, Note_on_c, 1, 57, 0
1, 368160, Note_on_c, 1, 59, 62
1, 368160, Note_on_c, 1, 68, 62
1, 368640, Note_on_c, 0, 76, 0
1, 368640, Note_on_c, 0, 74, 66
1, 369120, Note_on_c, 0, 74, 0
1, 369120, Note_on_c, 0, 71, 64
1, 369120, Note_on_c, 1, 68, 0
1, 369120, Note_on_c, 1, 59, 0
1, 369120, Note_on_c, 1, 62, 59
1, 369120, Note_on_c, 1, 64, 59
1, 369600, Note_on_c, 0, 71, 0
1, 369600, Note_on_c, 0, 68, 62
1, 370080, Note_on_c, 0, 68, 0
1, 370080, Note_on_c, 0, 69, 60
1, 370080, Note_on_c, 1, 64, 0
1, 370080, Note_on_c, 1, 62, 0
1, 370080, Note_on_c, 1, 64, 56
1, 370080, Note_on_c, 1, 61, 56
1, 370800, Note_on_c, 0, 69, 0
1, 370800, Note_on_c, 0, 73, 66
1, 370920, Note_on_c, 0, 73, 0
1, 370920, Note_on_c, 0, 69, 70
1, 371040, Note_on_c, 0, 69, 0
1, 371040, Note_on_c, 0, 77, 74
1, 371040, Note_on_c, 1, 61, 0
1, 371040, Note_on_c, 1, 64, 0
1, 371520, Note_on_c, 1, 62, 63
1, 371520, Note_on_c, 1, 71, 63
1, 372000, Note_on_c, 1, 71, 0
1, 372000, Note_on_c, 1, 62, 0
1, 372000, Note_on_c, 1, 72, 61
1, 372000, Note_on_c, 1, 63, 61
1, 372240, Note_on_c, 0, 78, 74
1, 372255, Note_on_c, 0, 77, 0
1, 372420, Note_on_c, 1, 63, 0
1, 372425, Note_on_c, 1, 72, 0
1, 372480, Note_on_c, 0, 78, 0
1, 372480, Note_on_c, 0, 80, 73
1, 372480, Note_on_c, 1, 72, 60
1, 372480, Note_on_c, 1, 63, 60
1, 372720, Note_on_c, 0, 80, 0
1, 372720, Note_on_c, 0, 81, 73
1, 372900, Note_on_c, 1, 63, 0
1, 372905, Note_on_c, 1, 72, 0
1, 372936, Note_on_c, 0, 81, 0
1, 372960, Note_on_c, 0, 81, 72
1, 372960, Note_on_c, 1, 73, 58
1, 372960, Note_on_c, 1, 64, 58
1, 373560, Note_on_c, 0, 81, 0
1, 373560, Note_on_c, 0, 83, 70
1, 373680, Note_on_c, 0, 83, 0
1, 373680, Note_on_c, 0, 85, 70
1, 373800, Note_on_c, 0, 85, 0
1, 373800, Note_on_c, 0, 81, 69
1, 373920, Note_on_c, 0, 81, 0
1, 373920, Note_on_c, 0, 76, 69
1, 373920, Note_on_c, 1, 64, 0
1, 373920, Note_on_c, 1, 73, 0
1, 374160, Note_on_c, 0, 76, 0
1, 374160, Note_on_c, 0, 81, 66
1, 374364, Note_on_c, 0, 81, 0
1, 374400, Note_on_c, 0, 73, 67
1, 374640, Note_on_c, 0, 73, 0
1, 374640, Note_on_c, 0, 78, 63
1, 374844, Note_on_c, 0, 78, 0
1, 374880, Note_on_c, 0, 76, 66
1, 375120, Note_on_c, 0, 76, 0
1, 375120, Note_on_c, 0, 75, 65
1, 375360, Note_on_c, 0, 75, 0
1, 375360, Note_on_c, 0, 74, 64
1, 375360, Note_on_c, 1, 62, 60
1, 375360, Note_on_c, 1, 52, 60
1, 375600, Note_on_c, 0, 74, 0
1, 375600, Note_on_c, 0, 71, 63
1, 375840, Note_on_c, 0, 71, 0
1, 375840, Note_on_c, 0, 71, 63
1, 375840, Note_on_c, 1, 52, 0
1, 375840, Note_on_c, 1, 62, 0
1, 375840, Note_on_c, 1, 62, 62
1, 375840, Note_on_c, 1, 57, 62
1, 376800, Note_on_c, 0, 71, 0
1, 376800, Note_on_c, 0, 69, 57
1, 376800, Note_on_c, 1, 62, 0
1, 376800, Note_on_c, 1, 61, 58
1, 377235, Note_on_c, 1, 61, 0
1, 377235, Note_on_c, 1, 57, 0
1, 377280, Note_on_c, 1, 52, 60
1, 377760, Note_on_c, 0, 69, 0
1, 377760, Note_on_c, 1, 52, 0
1, 377760, Note_on_c, 1, 49, 62
1, 378240, Note_on_c, 1, 49, 0
1, 378240, Note_on_c, 1, 45, 63
1, 378720, Note_on_c, 0, 74, 75
1, 378720, Note_on_c, 1, 45, 0
1, 378720, Note_on_c, 1, 52, 72
1, 379200, Note_on_c, 1, 56, 61
1, 379200, Note_on_c, 1, 59, 61
1, 379320, Note_on_c, 0, 74, 0
1, 379320, Note_on_c, 0, 78, 72
1, 379440, Note_on_c, 0, 78, 0
1, 379440, Note_on_c, 0, 76, 71
1, 379560, Note_on_c, 0, 76, 0
1, 379560, Note_on_c, 0, 78, 71
1, 379680, Note_on_c, 0, 78, 0
1, 379680, Note_on_c, 0, 74, 70
1, 379680, Note_on_c, 1, 59, 0
1, 379680, Note_on_c, 1, 56, 0
1, 379680, Note_on_c, 1, 59, 59
1, 379680, Note_on_c, 1, 56, 59
1, 379800, Note_on_c, 0, 74, 0
1, 379800, Note_on_c, 0, 76, 70
1, 379920, Note_on_c, 0, 76, 0
1, 379920, Note_on_c, 0, 73, 69
1, 380040, Note_on_c, 0, 73, 0
1, 380040, Note_on_c, 0, 74, 69
1, 380160, Note_on_c, 0, 74, 0
1, 380160, Note_on_c, 0, 71, 68
1, 380160, Note_on_c, 1, 56, 0
1, 380160, Note_on_c, 1, 59, 0
1, 380160, Note_on_c, 1, 57, 57
1, 380160, Note_on_c, 1, 61, 57
1, 380280, Note_on_c, 0, 71, 0
1, 380280, Note_on_c, 0, 73, 67
1, 380400, Note_on_c, 0, 73, 0
1, 380400, Note_on_c, 0, 69, 67
1, 380520, Note_on_c, 0, 69, 0
1, 380520, Note_on_c, 0, 71, 66
1, 380640, Note_on_c, 0, 71, 0
1, 380640, Note_on_c, 0, 68, 66
1, 380640, Note_on_c, 1, 61, 0
1, 380640, Note_on_c, 1, 57, 0
1, 380640, Note_on_c, 1, 62, 55
1, 380640, Note_on_c, 1, 59, 55
1, 381120, Note_on_c, 0, 68, 0
1, 381120, Note_on_c, 1, 59, 0
1, 381120, Note_on_c, 1, 62, 0
1, 381120, Note_on_c, 1, 52, 0
1, 381120, Note_on_c, 1, 62, 52
1, 381120, Note_on_c, 1, 59, 52
1, 381600, Note_on_c, 0, 76, 75
1, 381600, Note_on_c, 1, 59, 0
1, 381600, Note_on_c, 1, 62, 0
1, 381600, Note_on_c, 1, 57, 71
1, 382080, Note_on_c, 1, 61, 59
1, 382080, Note_on_c, 1, 64, 59
1, 382200, Note_on_c, 0, 76, 0
1, 382200, Note_on_c, 0, 75, 73
1, 382320, Note_on_c, 0, 75, 0
1, 382320, Note_on_c, 0, 78, 72
1, 382440, Note_on_c, 0, 78, 0
1, 382440, Note_on_c, 0, 76, 72
1, 382560, Note_on_c, 0, 76, 0
1, 382560, Note_on_c, 0, 81, 71
1, 382560, Note_on_c, 1, 64, 0
1, 382560, Note_on_c, 1, 61, 0
1, 382560, Note_on_c, 1, 61, 58
1, 382560, Note_on_c, 1, 64, 58
1, 382680, Note_on_c, 0, 81, 0
1, 382680, Note_on_c, 0, 80, 71
1, 382800, Note_on_c, 0, 80, 0
1, 382800, Note_on_c, 0, 83, 70
1, 382920, Note_on_c, 0, 83, 0
1, 382920, Note_on_c, 0, 81, 70
1, 383040, Note_on_c, 0, 81, 0
1, 383040, Note_on_c, 0, 85, 69
1, 383040, Note_on_c, 1, 64, 0
1, 383040, Note_on_c, 1, 61, 0
1, 383040, Note_on_c, 1, 62, 56
1, 383040, Note_on_c, 1, 59, 56
1, 383160, Note_on_c, 0, 85, 0
1, 383160, Note_on_c, 0, 83, 69
1, 383280, Note_on_c, 0, 83, 0
1, 383280, Note_on_c, 0, 86, 68
1, 383400, Note_on_c, 0, 86, 0
1, 383400, Note_on_c, 0, 85, 68
1, 383520, Note_on_c, 0, 85, 0
1, 383520, Note_on_c, 0, 88, 67
1, 383520, Note_on_c, 1, 59, 0
1, 383520, Note_on_c, 1, 62, 0
1, 383520, Note_on_c, 1, 57, 0
1, 383520, Note_on_c, 1, 61, 55
1, 383520, Note_on_c, 1, 57, 55
1, 384000, Note_on_c, 0, 88, 0
1, 384000, Note_on_c, 1, 57, 0
1, 384000, Note_on_c, 1, 61, 0
1, 384000, Note_on_c, 1, 56, 53
1, 384000, Note_on_c, 1, 59, 53
1, 384480, Note_on_c, 0, 81, 81
1, 384480, Note_on_c, 1, 59, 0
1, 384480, Note_on_c, 1, 56, 0
1, 384480, Note_on_c, 1, 54, 73
1, 384960, Note_on_c, 1, 57, 63
1, 384960, Note_on_c, 1, 61, 63
1, 385080, Note_on_c, 0, 81, 0
1, 385080, Note_on_c, 0, 85, 78
1, 385200, Note_on_c, 0, 85, 0
1, 385200, Note_on_c, 0, 83, 77
1, 385320, Note_on_c, 0, 83, 0
1, 385320, Note_on_c, 0, 85, 77
1, 385440, Note_on_c, 0, 85, 0
1, 385440, Note_on_c, 0, 81, 76
1, 385440, Note_on_c, 1, 61, 0
1, 385440, Note_on_c, 1, 57, 0
1, 385440, Note_on_c, 1, 57, 61
1, 385440, Note_on_c, 1, 61, 61
1, 385560, Note_on_c, 0, 81, 0
1, 385560, Note_on_c, 0, 83, 76
1, 385680, Note_on_c, 0, 83, 0
1, 385680, Note_on_c, 0, 80, 75
1, 385800, Note_on_c, 0, 80, 0
1, 385800, Note_on_c, 0, 81, 75
1, 385920, Note_on_c, 0, 81, 0
1, 385920, Note_on_c, 0, 78, 74
1, 385920, Note_on_c, 1, 61, 0
1, 385920, Note_on_c, 1, 57, 0
1, 385920, Note_on_c, 1, 57, 59
1, 385920, Note_on_c, 1, 61, 59
1, 386040, Note_on_c, 0, 78, 0
1, 386040, Note_on_c, 0, 80, 74
1, 386160, Note_on_c, 0, 80, 0
1, 386160, Note_on_c, 0, 76, 73
1, 386280, Note_on_c, 0, 76, 0
1, 386280, Note_on_c, 0, 78, 72
1, 386400, Note_on_c, 0, 78, 0
1, 386400, Note_on_c, 0, 75, 72
1, 386400, Note_on_c, 1, 61, 0
1, 386400, Note_on_c, 1, 57, 0
1, 386400, Note_on_c, 1, 57, 57
1, 386400, Note_on_c, 1, 59, 57
1, 386520, Note_on_c, 0, 75, 0
1, 386520, Note_on_c, 0, 76, 71
1, 386640, Note_on_c, 0, 76, 0
1, 386640, Note_on_c, 0, 78, 71
1, 386760, Note_on_c, 0, 78, 0
1, 386760, Note_on_c, 0, 80, 70
1, 386880, Note_on_c, 0, 80, 0
1, 386880, Note_on_c, 0, 83, 70
1, 386880, Note_on_c, 1, 59, 0
1, 386880, Note_on_c, 1, 57, 0
1, 386880, Note_on_c, 1, 59, 52
1, 386880, Note_on_c, 1, 57, 52
1, 386976, Note_on_c, 0, 83, 0
1, 387000, Note_on_c, 0, 81, 69
1, 387096, Note_on_c, 0, 81, 0
1, 387120, Note_on_c, 0, 78, 69
1, 387216, Note_on_c, 0, 78, 0
1, 387240, Note_on_c, 0, 75, 68
1, 387336, Note_on_c, 0, 75, 0
1, 387360, Note_on_c, 0, 78, 68
1, 387360, Note_on_c, 1, 57, 0
1, 387360, Note_on_c, 1, 59, 0
1, 387360, Note_on_c, 1, 54, 0
1, 387360, Note_on_c, 1, 52, 61
1, 387360, Note_on_c, 1, 57, 61
1, 387360, Note_on_c, 1, 59, 61
1, 388320, Note_on_c, 1, 57, 0
1, 388320, Note_on_c, 1, 56, 53
1, 388560, Note_on_c, 0, 75, 66
1, 388575, Note_on_c, 0, 78, 0
1, 388800, Note_on_c, 0, 75, 0
1, 388800, Note_on_c, 0, 76, 65
1, 388800, Note_on_c, 1, 56, 0
1, 388800, Note_on_c, 1, 59, 0
1, 388800, Note_on_c, 1, 52, 0
1, 389040, Note_on_c, 0, 76, 0
1, 389040, Note_on_c, 0, 77, 63
1, 389280, Note_on_c, 0, 77, 0
1, 389280, Note_on_c, 0, 80, 62
1, 389520, Note_on_c, 0, 80, 0
1, 389520, Note_on_c, 0, 78, 61
1, 389760, Note_on_c, 0, 78, 0
1, 389760, Note_on_c, 0, 76, 60
1, 390000, Note_on_c, 0, 76, 0
1, 390000, Note_on_c, 0, 74, 58
1, 390240, Note_on_c, 0, 74, 0
1, 390240, Note_on_c, 0, 73, 75
1, 390240, Note_on_c, 1, 58, 67
1, 390240, Note_on_c, 1, 67, 67
1, 390960, Note_on_c, 0, 73, 0
1, 390960, Note_on_c, 0, 74, 65
1, 391020, Note_on_c, 0, 74, 0
1, 391020, Note_on_c, 0, 73, 68
1, 391080, Note_on_c, 0, 73, 0
1, 391080, Note_on_c, 0, 71, 70
1, 391140, Note_on_c, 0, 71, 0
1, 391140, Note_on_c, 0, 73, 72
1, 391200, Note_on_c, 0, 73, 0
1, 391200, Note_on_c, 0, 76, 75
1, 391200, Note_on_c, 1, 67, 0
1, 391200, Note_on_c, 1, 58, 0
1, 391200, Note_on_c, 1, 59, 65
1, 391200, Note_on_c, 1, 66, 65
1, 391680, Note_on_c, 0, 76, 0
1, 391680, Note_on_c, 0, 74, 68
1, 392160, Note_on_c, 0, 74, 0
1, 392160, Note_on_c, 0, 71, 65
1, 392160, Note_on_c, 1, 66, 0
1, 392160, Note_on_c, 1, 59, 0
1, 392160, Note_on_c, 1, 65, 62
1, 392160, Note_on_c, 1, 62, 62
1, 392640, Note_on_c, 0, 71, 0
1, 392640, Note_on_c, 0, 68, 63
1, 393120, Note_on_c, 0, 68, 0
1, 393120, Note_on_c, 0, 69, 63
1, 393120, Note_on_c, 1, 62, 0
1, 393120, Note_on_c, 1, 65, 0
1, 393120, Note_on_c, 1, 61, 60
1, 393120, Note_on_c, 1, 64, 60
1, 393840, Note_on_c, 0, 69, 0
1, 393840, Note_on_c, 0, 73, 72
1, 393960, Note_on_c, 0, 73, 0
1, 393960, Note_on_c, 0, 69, 74
1, 394080, Note_on_c, 0, 69, 0
1, 394080, Note_on_c, 0, 79, 76
1, 394080, Note_on_c, 1, 64, 0
1, 394080, Note_on_c, 1, 61, 0
1, 394560, Note_on_c, 1, 61, 67
1, 394560, Note_on_c, 1, 70, 67
1, 395040, Note_on_c, 1, 70, 0
1, 395040, Note_on_c, 1, 61, 0
1, 395040, Note_on_c, 1, 62, 65
1, 395040, Note_on_c, 1, 71, 65
1, 395520, Note_on_c, 1, 71, 0
1, 395520, Note_on_c, 1, 62, 0
1, 395520, Note_on_c, 1, 64, 63
1, 395520, Note_on_c, 1, 73, 63
1, 396000, Note_on_c, 0, 79, 0
1, 396000, Note_on_c, 0, 77, 74
1, 396000, Note_on_c, 1, 73, 0
1, 396000, Note_on_c, 1, 64, 0
1, 396000, Note_on_c, 1, 62, 61
1, 396000, Note_on_c, 1, 74, 61
1, 396120, Note_on_c, 0, 77, 0
1, 396120, Note_on_c, 0, 78, 74
1, 396240, Note_on_c, 0, 78, 0
1, 396240, Note_on_c, 0, 80, 73
1, 396360, Note_on_c, 0, 80, 0
1, 396360, Note_on_c, 0, 78, 73
1, 396456, Note_on_c, 0, 78, 0
1, 396480, Note_on_c, 0, 76, 73
1, 396480, Note_on_c, 1, 74, 0
1, 396480, Note_on_c, 1, 62, 0
1, 396576, Note_on_c, 0, 76, 0
1, 396600, Note_on_c, 0, 74, 72
1, 396696, Note_on_c, 0, 74, 0
1, 396720, Note_on_c, 0, 73, 72
1, 396816, Note_on_c, 0, 73, 0
1, 396840, Note_on_c, 0, 71, 72
1, 396936, Note_on_c, 0, 71, 0
1, 396960, Note_on_c, 0, 69, 71
1, 396960, Note_on_c, 1, 52, 61
1, 396960, Note_on_c, 1, 61, 61
1, 397079, Note_on_c, 0, 69, 0
1, 397200, Note_on_c, 0, 73, 71
1, 397319, Note_on_c, 0, 73, 0
1, 397440, Note_on_c, 0, 76, 70
1, 397440, Note_on_c, 1, 61, 0
1, 397440, Note_on_c, 1, 52, 0
1, 397920, Note_on_c, 1, 52, 57
1, 397920, Note_on_c, 1, 62, 57
1, 398160, Note_on_c, 0, 76, 0
1, 398160, Note_on_c, 0, 64, 68
1, 398400, Note_on_c, 0, 64, 0
1, 398400, Note_on_c, 0, 66, 68
1, 398400, Note_on_c, 1, 62, 0
1, 398400, Note_on_c, 1, 52, 0
1, 398640, Note_on_c, 0, 66, 0
1, 398640, Note_on_c, 0, 68, 67
1, 398880, Note_on_c, 0, 68, 0
1, 398880, Note_on_c, 0, 69, 73
1, 398880, Note_on_c, 1, 45, 61
1, 399120, Note_on_c, 1, 61, 55
1, 399120, Note_on_c, 1, 57, 55
1, 399360, Note_on_c, 1, 57, 0
1, 399360, Note_on_c, 1, 61, 0
1, 399360, Note_on_c, 1, 61, 55
1, 399360, Note_on_c, 1, 57, 55
1, 399600, Note_on_c, 1, 57, 0
1, 399600, Note_on_c, 1, 61, 0
1, 399600, Note_on_c, 1, 61, 54
1, 399600, Note_on_c, 1, 57, 54
1, 399840, Note_on_c, 0, 69, 0
1, 399840, Note_on_c, 1, 57, 0
1, 399840, Note_on_c, 1, 61, 0
1, 399840, Note_on_c, 1, 61, 54
1, 399840, Note_on_c, 1, 57, 54
1, 400080, Note_on_c, 0, 81, 71
1, 400080, Note_on_c, 1, 57, 0
1, 400080, Note_on_c, 1, 61, 0
1, 400080, Note_on_c, 1, 61, 53
1, 400080, Note_on_c, 1, 57, 53
1, 400320, Note_on_c, 0, 81, 0
1, 400320, Note_on_c, 0, 85, 67
1, 400320, Note_on_c, 1, 57, 0
1, 400320, Note_on_c, 1, 61, 0
1, 400320, Note_on_c, 1, 61, 52
1, 400320, Note_on_c, 1, 57, 52
1, 400560, Note_on_c, 0, 85, 0
1, 400560, Note_on_c, 0, 76, 68
1, 400560, Note_on_c, 1, 57, 0
1, 400560, Note_on_c, 1, 61, 0
1, 400560, Note_on_c, 1, 61, 52
1, 400560, Note_on_c, 1, 57, 52
1, 400800, Note_on_c, 0, 76, 0
1, 400800, Note_on_c, 0, 77, 66
1, 400800, Note_on_c, 1, 57, 0
1, 400800, Note_on_c, 1, 61, 0
1, 400800, Note_on_c, 1, 62, 51
1, 400800, Note_on_c, 1, 57, 51
1, 401040, Note_on_c, 0, 77, 0
1, 401040, Note_on_c, 0, 78, 65
1, 401040, Note_on_c, 1, 57, 0
1, 401040, Note_on_c, 1, 62, 0
1, 401040, Note_on_c, 1, 62, 51
1, 401040, Note_on_c, 1, 57, 51
1, 401280, Note_on_c, 0, 78, 0
1, 401280, Note_on_c, 0, 81, 63
1, 401280, Note_on_c, 1, 57, 0
1, 401280, Note_on_c, 1, 62, 0
1, 401280, Note_on_c, 1, 62, 50
1, 401280, Note_on_c, 1, 57, 50
1, 401520, Note_on_c, 0, 81, 0
1, 401520, Note_on_c, 0, 78, 62
1, 401520, Note_on_c, 1, 57, 0
1, 401520, Note_on_c, 1, 62, 0
1, 401520, Note_on_c, 1, 62, 50
1, 401520, Note_on_c, 1, 57, 50
1, 401640, Note_on_c, 1, 45, 0
1, 401760, Note_on_c, 0, 78, 0
1, 401760, Note_on_c, 0, 75, 66
1, 401760, Note_on_c, 1, 57, 0
1, 401760, Note_on_c, 1, 62, 0
1, 401760, Note_on_c, 1, 45, 60
1, 402000, Note_on_c, 1, 57, 53
1, 402000, Note_on_c, 1, 61, 53
1, 402240, Note_on_c, 0, 75, 0
1, 402240, Note_on_c, 0, 76, 59
1, 402240, Note_on_c, 1, 61, 0
1, 402240, Note_on_c, 1, 57, 0
1, 402240, Note_on_c, 1, 57, 53
1, 402240, Note_on_c, 1, 61, 53
1, 402480, Note_on_c, 1, 61, 0
1, 402480, Note_on_c, 1, 57, 0
1, 402480, Note_on_c, 1, 57, 52
1, 402480, Note_on_c, 1, 61, 52
1, 402720, Note_on_c, 0, 76, 0
1, 402720, Note_on_c, 1, 61, 0
1, 402720, Note_on_c, 1, 57, 0
1, 402720, Note_on_c, 1, 57, 52
1, 402720, Note_on_c, 1, 61, 52
1, 402960, Note_on_c, 0, 81, 69
1, 402960, Note_on_c, 1, 61, 0
1, 402960, Note_on_c, 1, 57, 0
1, 402960, Note_on_c, 1, 57, 51
1, 402960, Note_on_c, 1, 61, 51
1, 403200, Note_on_c, 0, 81, 0
1, 403200, Note_on_c, 0, 85, 64
1, 403200, Note_on_c, 1, 61, 0
1, 403200, Note_on_c, 1, 57, 0
1, 403200, Note_on_c, 1, 57, 51
1, 403200, Note_on_c, 1, 61, 51
1, 403440, Note_on_c, 0, 85, 0
1, 403440, Note_on_c, 0, 76, 68
1, 403440, Note_on_c, 1, 61, 0
1, 403440, Note_on_c, 1, 57, 0
1, 403440, Note_on_c, 1, 57, 50
1, 403440, Note_on_c, 1, 61, 50
1, 403680, Note_on_c, 0, 76, 0
1, 403680, Note_on_c, 0, 77, 67
1, 403680, Note_on_c, 1, 61, 0
1, 403680, Note_on_c, 1, 57, 0
1, 403680, Note_on_c, 1, 57, 49
1, 403680, Note_on_c, 1, 62, 49
1, 403920, Note_on_c, 0, 77, 0
1, 403920, Note_on_c, 0, 78, 66
1, 403920, Note_on_c, 1, 62, 0
1, 403920, Note_on_c, 1, 57, 0
1, 403920, Note_on_c, 1, 57, 49
1, 403920, Note_on_c, 1, 62, 49
1, 404160, Note_on_c, 0, 78, 0
1, 404160, Note_on_c, 0, 81, 66
1, 404160, Note_on_c, 1, 62, 0
1, 404160, Note_on_c, 1, 57, 0
1, 404160, Note_on_c, 1, 57, 48
1, 404160, Note_on_c, 1, 62, 48
1, 404400, Note_on_c, 0, 81, 0
1, 404400, Note_on_c, 0, 78, 65
1, 404400, Note_on_c, 1, 62, 0
1, 404400, Note_on_c, 1, 57, 0
1, 404400, Note_on_c, 1, 57, 48
1, 404400, Note_on_c, 1, 62, 48
1, 404520, Note_on_c, 1, 45, 0
1, 404640, Note_on_c, 0, 78, 0
1, 404640, Note_on_c, 0, 75, 64
1, 404640, Note_on_c, 1, 62, 0
1, 404640, Note_on_c, 1, 57, 0
1, 404640, Note_on_c, 1, 61, 61
1, 404640, Note_on_c, 1, 57, 61
1, 404760, Note_on_c, 0, 75, 0
1, 404760, Note_on_c, 0, 76, 64
1, 404880, Note_on_c, 0, 76, 0
1, 404880, Note_on_c, 0, 78, 64
1, 405000, Note_on_c, 0, 78, 0
1, 405000, Note_on_c, 0, 76, 63
1, 405120, Note_on_c, 0, 76, 0
1, 405120, Note_on_c, 0, 74, 63
1, 405120, Note_on_c, 1, 57, 0
1, 405120, Note_on_c, 1, 61, 0
1, 405240, Note_on_c, 0, 74, 0
1, 405240, Note_on_c, 0, 73, 62
1, 405360, Note_on_c, 0, 73, 0
1, 405360, Note_on_c, 0, 71, 62
1, 405480, Note_on_c, 0, 71, 0
1, 405480, Note_on_c, 0, 69, 62
1, 405600, Note_on_c, 0, 69, 0
1, 405600, Note_on_c, 0, 73, 61
1, 405600, Note_on_c, 1, 64, 57
1, 405600, Note_on_c, 1, 52, 57
1, 406080, Note_on_c, 0, 73, 0
1, 406080, Note_on_c, 1, 52, 0
1, 406080, Note_on_c, 1, 64, 0
1, 406560, Note_on_c, 0, 71, 54
1, 406560, Note_on_c, 1, 62, 52
1, 406560, Note_on_c, 1, 52, 52
1, 406640, Note_on_c, 0, 71, 0
1, 406640, Note_on_c, 0, 73, 54
1, 406720, Note_on_c, 0, 73, 0
1, 406720, Note_on_c, 0, 71, 55
1, 406800, Note_on_c, 0, 71, 0
1, 406800, Note_on_c, 0, 73, 56
1, 406880, Note_on_c, 0, 73, 0
1, 406880, Note_on_c, 0, 71, 56
1, 406960, Note_on_c, 0, 71, 0
1, 406960, Note_on_c, 0, 69, 57
1, 407040, Note_on_c, 0, 69, 0
1, 407040, Note_on_c, 0, 71, 57
1, 407400, Note_on_c, 0, 71, 0
1, 407400, Note_on_c, 0, 73, 59
1, 407520, Note_on_c, 0, 73, 0
1, 407520, Note_on_c, 0, 69, 56
1, 407520, Note_on_c, 1, 52, 0
1, 407520, Note_on_c, 1, 62, 0
1, 407520, Note_on_c, 1, 45, 52
1, 407760, Note_on_c, 1, 57, 47
1, 407760, Note_on_c, 1, 61, 47
1, 408000, Note_on_c, 1, 61, 0
1, 408000, Note_on_c, 1, 57, 0
1, 408000, Note_on_c, 1, 57, 46
1, 408000, Note_on_c, 1, 61, 46
1, 408240, Note_on_c, 1, 61, 0
1, 408240, Note_on_c, 1, 57, 0
1, 408240, Note_on_c, 1, 57, 45
1, 408240, Note_on_c, 1, 61, 45
1, 408480, Note_on_c, 0, 69, 0
1, 408480, Note_on_c, 1, 61, 0
1, 408480, Note_on_c, 1, 57, 0
1, 408480, Note_on_c, 1, 57, 44
1, 408480, Note_on_c, 1, 61, 44
1, 408720, Note_on_c, 0, 81, 59
1, 408720, Note_on_c, 1, 61, 0
1, 408720, Note_on_c, 1, 57, 0
1, 408720, Note_on_c, 1, 57, 44
1, 408720, Note_on_c, 1, 61, 44
1, 408960, Note_on_c, 0, 81, 0
1, 408960, Note_on_c, 0, 85, 56
1, 408960, Note_on_c, 1, 61, 0
1, 408960, Note_on_c, 1, 57, 0
1, 408960, Note_on_c, 1, 57, 43
1, 408960, Note_on_c, 1, 61, 43
1, 409200, Note_on_c, 0, 85, 0
1, 409200, Note_on_c, 0, 76, 58
1, 409200, Note_on_c, 1, 61, 0
1, 409200, Note_on_c, 1, 57, 0
1, 409200, Note_on_c, 1, 57, 42
1, 409200, Note_on_c, 1, 61, 42
1, 409440, Note_on_c, 0, 76, 0
1, 409440, Note_on_c, 0, 77, 57
1, 409440, Note_on_c, 1, 61, 0
1, 409440, Note_on_c, 1, 57, 0
1, 409440, Note_on_c, 1, 57, 41
1, 409440, Note_on_c, 1, 62, 41
1, 409680, Note_on_c, 0, 77, 0
1, 409680, Note_on_c, 0, 78, 57
1, 409680, Note_on_c, 1, 62, 0
1, 409680, Note_on_c, 1, 57, 0
1, 409680, Note_on_c, 1, 57, 40
1, 409680, Note_on_c, 1, 62, 40
1, 409920, Note_on_c, 0, 78, 0
1, 409920, Note_on_c, 0, 81, 56
1, 409920, Note_on_c, 1, 62, 0
1, 409920, Note_on_c, 1, 57, 0
1, 409920, Note_on_c, 1, 57, 39
1, 409920, Note_on_c, 1, 62, 39
1, 410160, Note_on_c, 0, 81, 0
1, 410160, Note_on_c, 0, 78, 56
1, 410160, Note_on_c, 1, 62, 0
1, 410160, Note_on_c, 1, 57, 0
1, 410160, Note_on_c, 1, 57, 38
1, 410160, Note_on_c, 1, 62, 38
1, 410280, Note_on_c, 1, 45, 0
1, 410400, Note_on_c, 0, 78, 0
1, 410400, Note_on_c, 0, 75, 57
1, 410400, Note_on_c, 1, 62, 0
1, 410400, Note_on_c, 1, 57, 0
1, 410400, Note_on_c, 1, 45, 48
1, 410640, Note_on_c, 1, 61, 45
1, 410640, Note_on_c, 1, 57, 45
1, 410880, Note_on_c, 0, 75, 0
1, 410880, Note_on_c, 0, 76, 52
1, 410880, Note_on_c, 1, 57, 0
1, 410880, Note_on_c, 1, 61, 0
1, 410880, Note_on_c, 1, 61, 45
1, 410880, Note_on_c, 1, 57, 45
1, 411120, Note_on_c, 1, 57, 0
1, 411120, Note_on_c, 1, 61, 0
1, 411120, Note_on_c, 1, 61, 44
1, 411120, Note_on_c, 1, 57, 44
1, 411360, Note_on_c, 0, 76, 0
1, 411360, Note_on_c, 1, 57, 0
1, 411360, Note_on_c, 1, 61, 0
1, 411360, Note_on_c, 1, 61, 43
1, 411360, Note_on_c, 1, 57, 43
1, 411600, Note_on_c, 0, 81, 59
1, 411600, Note_on_c, 1, 57, 0
1, 411600, Note_on_c, 1, 61, 0
1, 411600, Note_on_c, 1, 61, 42
1, 411600, Note_on_c, 1, 57, 42
1, 411840, Note_on_c, 0, 81, 0
1, 411840, Note_on_c, 0, 85, 55
1, 411840, Note_on_c, 1, 57, 0
1, 411840, Note_on_c, 1, 61, 0
1, 411840, Note_on_c, 1, 61, 41
1, 411840, Note_on_c, 1, 57, 41
1, 412080, Note_on_c, 0, 85, 0
1, 412080, Note_on_c, 0, 76, 59
1, 412080, Note_on_c, 1, 57, 0
1, 412080, Note_on_c, 1, 61, 0
1, 412080, Note_on_c, 1, 61, 41
1, 412080, Note_on_c, 1, 57, 41
1, 412320, Note_on_c, 0, 76, 0
1, 412320, Note_on_c, 0, 77, 58
1, 412320, Note_on_c, 1, 57, 0
1, 412320, Note_on_c, 1, 61, 0
1, 412320, Note_on_c, 1, 62, 40
1, 412320, Note_on_c, 1, 57, 40
1, 412560, Note_on_c, 0, 77, 0
1, 412560, Note_on_c, 0, 78, 58
1, 412560, Note_on_c, 1, 57, 0
1, 412560, Note_on_c, 1, 62, 0
1, 412560, Note_on_c, 1, 62, 39
1, 412560, Note_on_c, 1, 57, 39
1, 412800, Note_on_c, 0, 78, 0
1, 412800, Note_on_c, 0, 81, 57
1, 412800, Note_on_c, 1, 57, 0
1, 412800, Note_on_c, 1, 62, 0
1, 412800, Note_on_c, 1, 62, 38
1, 412800, Note_on_c, 1, 57, 38
1, 413040, Note_on_c, 0, 81, 0
1, 413040, Note_on_c, 0, 78, 57
1, 413040, Note_on_c, 1, 57, 0
1, 413040, Note_on_c, 1, 62, 0
1, 413040, Note_on_c, 1, 62, 38
1, 413040, Note_on_c, 1, 57, 38
1, 413160, Note_on_c, 1, 45, 0
1, 413280, Note_on_c, 0, 78, 0
1, 413280, Note_on_c, 0, 75, 56
1, 413280, Note_on_c, 1, 57, 0
1, 413280, Note_on_c, 1, 62, 0
1, 413280, Note_on_c, 1, 57, 47
1, 413280, Note_on_c, 1, 61, 47
1, 413400, Note_on_c, 0, 75, 0
1, 413400, Note_on_c, 0, 76, 56
1, 413520, Note_on_c, 0, 76, 0
1, 413520, Note_on_c, 0, 78, 56
1, 413640, Note_on_c, 0, 78, 0
1, 413640, Note_on_c, 0, 76, 56
1, 413760, Note_on_c, 0, 76, 0
1, 413760, Note_on_c, 0, 74, 55
1, 413760, Note_on_c, 1, 61, 0
1, 413760, Note_on_c, 1, 57, 0
1, 413880, Note_on_c, 0, 74, 0
1, 413880, Note_on_c, 0, 73, 55
1, 414000, Note_on_c, 0, 73, 0
1, 414000, Note_on_c, 0, 71, 55
1, 414120, Note_on_c, 0, 71, 0
1, 414120, Note_on_c, 0, 69, 55
1, 414240, Note_on_c, 0, 69, 0
1, 414240, Note_on_c, 0, 73, 55
1, 414240, Note_on_c, 1, 52, 44
1, 414240, Note_on_c, 1, 64, 44
1, 414720, Note_on_c, 0, 73, 0
1, 414720, Note_on_c, 1, 64, 0
1, 414720, Note_on_c, 1, 52, 0
1, 415200, Note_on_c, 0, 71, 51
1, 415200, Note_on_c, 1, 52, 38
1, 415200, Note_on_c, 1, 62, 38
1, 415280, Note_on_c, 0, 71, 0
1, 415280, Note_on_c, 0, 73, 51
1, 415360, Note_on_c, 0, 73, 0
1, 415360, Note_on_c, 0, 71, 52
1, 415440, Note_on_c, 0, 71, 0
1, 415440, Note_on_c, 0, 73, 53
1, 415520, Note_on_c, 0, 73, 0
1, 415520, Note_on_c, 0, 71, 54
1, 415600, Note_on_c, 0, 71, 0
1, 415600, Note_on_c, 0, 69, 54
1, 415680, Note_on_c, 0, 69, 0
1, 415680, Note_on_c, 0, 71, 55
1, 416040, Note_on_c, 0, 71, 0
1, 416040, Note_on_c, 0, 73, 56
1, 416160, Note_on_c, 0, 73, 0
1, 416160, Note_on_c, 0, 69, 56
1, 416160, Note_on_c, 1, 62, 0
1, 416160, Note_on_c, 1, 52, 0
1, 416160, Note_on_c, 1, 61, 43
1, 416160, Note_on_c, 1, 57, 43
1, 416238, Note_on_c, 0, 69, 0
1, 416280, Note_on_c, 0, 64, 57
1, 416358, Note_on_c, 0, 64, 0
1, 416400, Note_on_c, 0, 66, 57
1, 416478, Note_on_c, 0, 66, 0
1, 416520, Note_on_c, 0, 68, 58
1, 416598, Note_on_c, 0, 68, 0
1, 416640, Note_on_c, 0, 69, 58
1, 416718, Note_on_c, 0, 69, 0
1, 416760, Note_on_c, 0, 71, 59
1, 416838, Note_on_c, 0, 71, 0
1, 416880, Note_on_c, 0, 73, 59
1, 416958, Note_on_c, 0, 73, 0
1, 417000, Note_on_c, 0, 74, 59
1, 417078, Note_on_c, 0, 74, 0
1, 417120, Note_on_c, 0, 76, 60
1, 417120, Note_on_c, 1, 57, 0
1, 417120, Note_on_c, 1, 61, 0
1, 417198, Note_on_c, 0, 76, 0
1, 417240, Note_on_c, 0, 78, 60
1, 417318, Note_on_c, 0, 78, 0
1, 417360, Note_on_c, 0, 80, 61
1, 417438, Note_on_c, 0, 80, 0
1, 417480, Note_on_c, 0, 81, 61
1, 417558, Note_on_c, 0, 81, 0
1, 417600, Note_on_c, 0, 82, 62
1, 417678, Note_on_c, 0, 82, 0
1, 417720, Note_on_c, 0, 83, 62
1, 417798, Note_on_c, 0, 83, 0
1, 417840, Note_on_c, 0, 84, 63
1, 417918, Note_on_c, 0, 84, 0
1, 417960, Note_on_c, 0, 85, 63
1, 418038, Note_on_c, 0, 85, 0
1, 418080, Note_on_c, 0, 86, 64
1, 418560, Note_on_c, 0, 86, 0
1, 418560, Note_on_c, 0, 80, 71
1, 418560, Note_on_c, 1, 74, 55
1, 418560, Note_on_c, 1, 64, 55
1, 419040, Note_on_c, 0, 80, 0
1, 419040, Note_on_c, 0, 81, 68
1, 419040, Note_on_c, 1, 64, 0
1, 419040, Note_on_c, 1, 74, 0
1, 419040, Note_on_c, 1, 69, 58
1, 419040, Note_on_c, 1, 73, 58
1, 419160, Note_on_c, 0, 81, 0
1, 419160, Note_on_c, 0, 85, 68
1, 419280, Note_on_c, 0, 85, 0
1, 419280, Note_on_c, 0, 81, 67
1, 419358, Note_on_c, 0, 81, 0
1, 419400, Note_on_c, 0, 80, 66
1, 419478, Note_on_c, 0, 80, 0
1, 419520, Note_on_c, 0, 78, 65
1, 419598, Note_on_c, 0, 78, 0
1, 419640, Note_on_c, 0, 76, 65
1, 419718, Note_on_c, 0, 76, 0
1, 419760, Note_on_c, 0, 74, 64
1, 419838, Note_on_c, 0, 74, 0
1, 419880, Note_on_c, 0, 73, 63
1, 419958, Note_on_c, 0, 73, 0
1, 420000, Note_on_c, 0, 71, 62
1, 420000, Note_on_c, 1, 73, 0
1, 420000, Note_on_c, 1, 69, 0
1, 420078, Note_on_c, 0, 71, 0
1, 420120, Note_on_c, 0, 69, 62
1, 420198, Note_on_c, 0, 69, 0
1, 420240, Note_on_c, 0, 68, 61
1, 420318, Note_on_c, 0, 68, 0
1, 420360, Note_on_c, 0, 67, 60
1, 420438, Note_on_c, 0, 67, 0
1, 420480, Note_on_c, 0, 66, 59
1, 420558, Note_on_c, 0, 66, 0
1, 420600, Note_on_c, 0, 65, 58
1, 420678, Note_on_c, 0, 65, 0
1, 420720, Note_on_c, 0, 64, 58
1, 420798, Note_on_c, 0, 64, 0
1, 420840, Note_on_c, 0, 63, 57
1, 420918, Note_on_c, 0, 63, 0
1, 420960, Note_on_c, 0, 62, 56
1, 421440, Note_on_c, 0, 62, 0
1, 421440, Note_on_c, 0, 56, 49
1, 421440, Note_on_c, 1, 50, 49
1, 421440, Note_on_c, 1, 40, 49
1, 421920, Note_on_c, 0, 56, 0
1, 421920, Note_on_c, 0, 59, 55
1, 421920, Note_on_c, 1, 40, 0
1, 421920, Note_on_c, 1, 50, 0
1, 421920, Note_on_c, 1, 45, 55
1, 421920, Note_on_c, 1, 50, 55
1, 422880, Note_on_c, 0, 59, 0
1, 422880, Note_on_c, 0, 57, 44
1, 422880, Note_on_c, 1, 50, 0
1, 422880, Note_on_c, 1, 49, 42
1, 423360, Note_on_c, 0, 57, 0
1, 423360, Note_on_c, 1, 49, 0
1, 423360, Note_on_c, 1, 45, 0
1, 425760, Note_on_c, 0, 74, 59
1, 426000, Note_on_c, 1, 66, 55
1, 426000, Note_on_c, 1, 69, 55
1, 426120, Note_on_c, 0, 74, 0
1, 426120, Note_on_c, 0, 76, 58
1, 426180, Note_on_c, 0, 76, 0
1, 426180, Note_on_c, 0, 74, 58
1, 426190, Note_on_c, 1, 69, 0
1, 426190, Note_on_c, 1, 66, 0
1, 426240, Note_on_c, 0, 74, 0
1, 426240, Note_on_c, 0, 73, 57
1, 426240, Note_on_c, 1, 69, 51
1, 426240, Note_on_c, 1, 66, 51
1, 426395, Note_on_c, 0, 73, 0
1, 426430, Note_on_c, 1, 66, 0
1, 426430, Note_on_c, 1, 69, 0
1, 426480, Note_on_c, 0, 74, 57
1, 426480, Note_on_c, 1, 66, 48
1, 426480, Note_on_c, 1, 69, 48
1, 426635, Note_on_c, 0, 74, 0
1, 426670, Note_on_c, 1, 69, 0
1, 426670, Note_on_c, 1, 66, 0
1, 426720, Note_on_c, 0, 75, 56
1, 426960, Note_on_c, 0, 75, 0
1, 426960, Note_on_c, 0, 76, 55
1, 426960, Note_on_c, 1, 71, 53
1, 426960, Note_on_c, 1, 67, 53
1, 427115, Note_on_c, 0, 76, 0
1, 427150, Note_on_c, 1, 67, 0
1, 427150, Note_on_c, 1, 71, 0
1, 427200, Note_on_c, 0, 76, 51
1, 427200, Note_on_c, 1, 71, 51
1, 427200, Note_on_c, 1, 67, 51
1, 427390, Note_on_c, 1, 67, 0
1, 427390, Note_on_c, 1, 71, 0
1, 427440, Note_on_c, 0, 76, 0
1, 427440, Note_on_c, 1, 71, 48
1, 427440, Note_on_c, 1, 67, 48
1, 427630, Note_on_c, 1, 67, 0
1, 427630, Note_on_c, 1, 71, 0
1, 427680, Note_on_c, 0, 76, 65
1, 427920, Note_on_c, 1, 69, 57
1, 427920, Note_on_c, 1, 61, 57
1, 428040, Note_on_c, 0, 76, 0
1, 428040, Note_on_c, 0, 78, 63
1, 428100, Note_on_c, 0, 78, 0
1, 428100, Note_on_c, 0, 76, 62
1, 428110, Note_on_c, 1, 61, 0
1, 428110, Note_on_c, 1, 69, 0
1, 428160, Note_on_c, 0, 76, 0
1, 428160, Note_on_c, 0, 74, 62
1, 428160, Note_on_c, 1, 69, 54
1, 428160, Note_on_c, 1, 61, 54
1, 428315, Note_on_c, 0, 74, 0
1, 428350, Note_on_c, 1, 61, 0
1, 428350, Note_on_c, 1, 69, 0
1, 428400, Note_on_c, 0, 76, 61
1, 428400, Note_on_c, 1, 69, 51
1, 428400, Note_on_c, 1, 61, 51
1, 428590, Note_on_c, 1, 61, 0
1, 428590, Note_on_c, 1, 69, 0
1, 428640, Note_on_c, 0, 76, 0
1, 428640, Note_on_c, 0, 77, 59
1, 428880, Note_on_c, 0, 77, 0
1, 428880, Note_on_c, 0, 78, 58
1, 428880, Note_on_c, 1, 69, 59
1, 428880, Note_on_c, 1, 62, 59
1, 429035, Note_on_c, 0, 78, 0
1, 429070, Note_on_c, 1, 62, 0
1, 429070, Note_on_c, 1, 69, 0
1, 429120, Note_on_c, 0, 78, 54
1, 429120, Note_on_c, 1, 69, 57
1, 429120, Note_on_c, 1, 62, 57
1, 429310, Note_on_c, 1, 62, 0
1, 429310, Note_on_c, 1, 69, 0
1, 429360, Note_on_c, 0, 78, 0
1, 429360, Note_on_c, 1, 69, 54
1, 429360, Note_on_c, 1, 62, 54
1, 429550, Note_on_c, 1, 62, 0
1, 429550, Note_on_c, 1, 69, 0
1, 429600, Note_on_c, 0, 81, 75
1, 429600, Note_on_c, 1, 69, 65
1, 429600, Note_on_c, 1, 66, 65
1, 429780, Note_on_c, 0, 81, 0
1, 429780, Note_on_c, 0, 83, 74
1, 429840, Note_on_c, 0, 83, 0
1, 429840, Note_on_c, 0, 79, 74
1, 429840, Note_on_c, 1, 66, 0
1, 429840, Note_on_c, 1, 64, 62
1, 430020, Note_on_c, 0, 79, 0
1, 430020, Note_on_c, 0, 81, 73
1, 430080, Note_on_c, 0, 81, 0
1, 430080, Note_on_c, 0, 78, 73
1, 430080, Note_on_c, 1, 64, 0
1, 430080, Note_on_c, 1, 69, 0
1, 430080, Note_on_c, 1, 69, 58
1, 430080, Note_on_c, 1, 62, 58
1, 430235, Note_on_c, 0, 78, 0
1, 430320, Note_on_c, 0, 74, 70
1, 430320, Note_on_c, 1, 62, 0
1, 430320, Note_on_c, 1, 69, 0
1, 430475, Note_on_c, 0, 74, 0
1, 430560, Note_on_c, 0, 79, 70
1, 430560, Note_on_c, 1, 64, 63
1, 430560, Note_on_c, 1, 69, 63
1, 430740, Note_on_c, 0, 79, 0
1, 430740, Note_on_c, 0, 81, 70
1, 430800, Note_on_c, 0, 81, 0
1, 430800, Note_on_c, 0, 78, 69
1, 430800, Note_on_c, 1, 64, 0
1, 430800, Note_on_c, 1, 66, 61
1, 430980, Note_on_c, 0, 78, 0
1, 430980, Note_on_c, 0, 79, 68
1, 431040, Note_on_c, 0, 79, 0
1, 431040, Note_on_c, 0, 76, 68
1, 431040, Note_on_c, 1, 66, 0
1, 431040, Note_on_c, 1, 67, 59
1, 431195, Note_on_c, 0, 76, 0
1, 431280, Note_on_c, 0, 73, 63
1, 431280, Note_on_c, 1, 67, 0
1, 431280, Note_on_c, 1, 69, 0
1, 431435, Note_on_c, 0, 73, 0
1, 431520, Note_on_c, 0, 74, 66
1, 431520, Note_on_c, 1, 69, 57
1, 431520, Note_on_c, 1, 66, 57
1, 431675, Note_on_c, 0, 74, 0
1, 431760, Note_on_c, 0, 74, 64
1, 431760, Note_on_c, 1, 66, 0
1, 431760, Note_on_c, 1, 69, 0
1, 431915, Note_on_c, 0, 74, 0
1, 432000, Note_on_c, 0, 73, 63
1, 432000, Note_on_c, 1, 64, 55
1, 432000, Note_on_c, 1, 69, 55
1, 432155, Note_on_c, 0, 73, 0
1, 432240, Note_on_c, 0, 73, 62
1, 432240, Note_on_c, 1, 69, 0
1, 432240, Note_on_c, 1, 64, 0
1, 432395, Note_on_c, 0, 73, 0
1, 432480, Note_on_c, 0, 71, 61
1, 432480, Note_on_c, 1, 62, 54
1, 432480, Note_on_c, 1, 52, 54
1, 432520, Note_on_c, 0, 71, 0
1, 432520, Note_on_c, 0, 73, 60
1, 432560, Note_on_c, 0, 73, 0
1, 432560, Note_on_c, 0, 71, 60
1, 432660, Note_on_c, 0, 69, 61
1, 432665, Note_on_c, 0, 71, 0
1, 432720, Note_on_c, 0, 69, 0
1, 432720, Note_on_c, 0, 71, 60
1, 432900, Note_on_c, 0, 71, 0
1, 432900, Note_on_c, 0, 73, 56
1, 432960, Note_on_c, 0, 73, 0
1, 432960, Note_on_c, 0, 69, 55
1, 432960, Note_on_c, 1, 52, 0
1, 432960, Note_on_c, 1, 62, 0
1, 432960, Note_on_c, 1, 61, 50
1, 432960, Note_on_c, 1, 57, 50
1, 433200, Note_on_c, 0, 69, 0
1, 433200, Note_on_c, 1, 57, 0
1, 433200, Note_on_c, 1, 61, 0
1, 433440, Note_on_c, 0, 74, 75
1, 433440, Note_on_c, 1, 62, 66
1, 433520, Note_on_c, 1, 62, 0
1, 433520, Note_on_c, 1, 64, 66
1, 433600, Note_on_c, 1, 64, 0
1, 433600, Note_on_c, 1, 66, 66
1, 433680, Note_on_c, 1, 66, 0
1, 433680, Note_on_c, 1, 64, 67
1, 433760, Note_on_c, 1, 64, 0
1, 433760, Note_on_c, 1, 62, 67
1, 433800, Note_on_c, 0, 74, 0
1, 433800, Note_on_c, 0, 76, 74
1, 433840, Note_on_c, 1, 62, 0
1, 433840, Note_on_c, 1, 61, 67
1, 433860, Note_on_c, 0, 76, 0
1, 433860, Note_on_c, 0, 74, 74
1, 433920, Note_on_c, 0, 74, 0
1, 433920, Note_on_c, 0, 73, 74
1, 433920, Note_on_c, 1, 61, 0
1, 433920, Note_on_c, 1, 59, 68
1, 434000, Note_on_c, 1, 59, 0
1, 434000, Note_on_c, 1, 61, 68
1, 434075, Note_on_c, 0, 73, 0
1, 434080, Note_on_c, 1, 61, 0
1, 434080, Note_on_c, 1, 62, 68
1, 434160, Note_on_c, 0, 74, 73
1, 434160, Note_on_c, 1, 62, 0
1, 434160, Note_on_c, 1, 61, 69
1, 434240, Note_on_c, 1, 61, 0
1, 434240, Note_on_c, 1, 59, 69
1, 434315, Note_on_c, 0, 74, 0
1, 434320, Note_on_c, 1, 59, 0
1, 434320, Note_on_c, 1, 57, 69
1, 434400, Note_on_c, 0, 75, 75
1, 434400, Note_on_c, 1, 57, 0
1, 434400, Note_on_c, 1, 55, 70
1, 434480, Note_on_c, 1, 55, 0
1, 434480, Note_on_c, 1, 57, 70
1, 434560, Note_on_c, 1, 57, 0
1, 434560, Note_on_c, 1, 59, 70
1, 434640, Note_on_c, 0, 75, 0
1, 434640, Note_on_c, 0, 76, 72
1, 434640, Note_on_c, 1, 59, 0
1, 434640, Note_on_c, 1, 57, 71
1, 434720, Note_on_c, 1, 57, 0
1, 434720, Note_on_c, 1, 55, 71
1, 434795, Note_on_c, 0, 76, 0
1, 434800, Note_on_c, 1, 55, 0
1, 434800, Note_on_c, 1, 54, 71
1, 434880, Note_on_c, 0, 76, 69
1, 434880, Note_on_c, 1, 54, 0
1, 434880, Note_on_c, 1, 52, 71
1, 434960, Note_on_c, 1, 52, 0
1, 434960, Note_on_c, 1, 54, 72
1, 435040, Note_on_c, 1, 54, 0
1, 435040, Note_on_c, 1, 55, 72
1, 435120, Note_on_c, 0, 76, 0
1, 435120, Note_on_c, 1, 55, 0
1, 435120, Note_on_c, 1, 54, 72
1, 435200, Note_on_c, 1, 54, 0
1, 435200, Note_on_c, 1, 52, 73
1, 435280, Note_on_c, 1, 52, 0
1, 435280, Note_on_c, 1, 50, 73
1, 435360, Note_on_c, 0, 76, 81
1, 435360, Note_on_c, 1, 50, 0
1, 435360, Note_on_c, 1, 49, 73
1, 435440, Note_on_c, 1, 49, 0
1, 435440, Note_on_c, 1, 50, 74
1, 435520, Note_on_c, 1, 50, 0
1, 435520, Note_on_c, 1, 52, 74
1, 435600, Note_on_c, 1, 52, 0
1, 435600, Note_on_c, 1, 50, 74
1, 435680, Note_on_c, 1, 50, 0
1, 435680, Note_on_c, 1, 49, 75
1, 435720, Note_on_c, 0, 76, 0
1, 435720, Note_on_c, 0, 78, 79
1, 435760, Note_on_c, 1, 49, 0
1, 435760, Note_on_c, 1, 47, 75
1, 435780, Note_on_c, 0, 78, 0
1, 435780, Note_on_c, 0, 76, 79
1, 435840, Note_on_c, 0, 76, 0
1, 435840, Note_on_c, 0, 74, 79
1, 435840, Note_on_c, 1, 47, 0
1, 435840, Note_on_c, 1, 45, 75
1, 435920, Note_on_c, 1, 45, 0
1, 435920, Note_on_c, 1, 47, 75
1, 435995, Note_on_c, 0, 74, 0
1, 436000, Note_on_c, 1, 47, 0
1, 436000, Note_on_c, 1, 45, 76
1, 436080, Note_on_c, 0, 76, 77
1, 436080, Note_on_c, 1, 45, 0
1, 436080, Note_on_c, 1, 43, 76
1, 436160, Note_on_c, 1, 43, 0
1, 436160, Note_on_c, 1, 42, 76
1, 436240, Note_on_c, 1, 42, 0
1, 436240, Note_on_c, 1, 40, 77
1, 436272, Note_on_c, 0, 76, 0
1, 436320, Note_on_c, 0, 77, 77
1, 436320, Note_on_c, 1, 40, 0
1, 436320, Note_on_c, 1, 38, 79
1, 436400, Note_on_c, 1, 38, 0
1, 436400, Note_on_c, 1, 42, 79
1, 436480, Note_on_c, 1, 42, 0
1, 436480, Note_on_c, 1, 43, 78
1, 436560, Note_on_c, 0, 77, 0
1, 436560, Note_on_c, 0, 78, 75
1, 436560, Note_on_c, 1, 43, 0
1, 436560, Note_on_c, 1, 45, 78
1, 436640, Note_on_c, 1, 45, 0
1, 436640, Note_on_c, 1, 47, 77
1, 436715, Note_on_c, 0, 78, 0
1, 436720, Note_on_c, 1, 47, 0
1, 436720, Note_on_c, 1, 49, 76
1, 436800, Note_on_c, 0, 78, 73
1, 436800, Note_on_c, 1, 49, 0
1, 436800, Note_on_c, 1, 50, 76
1, 436880, Note_on_c, 1, 50, 0
1, 436880, Note_on_c, 1, 52, 75
1, 436960, Note_on_c, 1, 52, 0
1, 436960, Note_on_c, 1, 54, 74
1, 437040, Note_on_c, 0, 78, 0
1, 437040, Note_on_c, 1, 54, 0
1, 437040, Note_on_c, 1, 55, 74
1, 437120, Note_on_c, 1, 55, 0
1, 437120, Note_on_c, 1, 57, 73
1, 437200, Note_on_c, 1, 57, 0
1, 437200, Note_on_c, 1, 59, 72
1, 437280, Note_on_c, 0, 62, 85
1, 437280, Note_on_c, 1, 59, 0
1, 437280, Note_on_c, 1, 60, 78
1, 437360, Note_on_c, 0, 62, 0
1, 437360, Note_on_c, 0, 66, 85
1, 437440, Note_on_c, 0, 66, 0
1, 437440, Note_on_c, 0, 69, 85
1, 437520, Note_on_c, 0, 69, 0
1, 437520, Note_on_c, 0, 74, 85
1, 437600, Note_on_c, 0, 74, 0
1, 437600, Note_on_c, 0, 76, 84
1, 437680, Note_on_c, 0, 76, 0
1, 437680, Note_on_c, 0, 78, 84
1, 437760, Note_on_c, 0, 78, 0
1, 437760, Note_on_c, 0, 79, 84
1, 437760, Note_on_c, 1, 60, 0
1, 437760, Note_on_c, 1, 59, 68
1, 437840, Note_on_c, 0, 79, 0
1, 437840, Note_on_c, 0, 78, 83
1, 437920, Note_on_c, 0, 78, 0
1, 437920, Note_on_c, 0, 79, 83
1, 438000, Note_on_c, 0, 79, 0
1, 438000, Note_on_c, 0, 83, 83
1, 438000, Note_on_c, 1, 59, 0
1, 438080, Note_on_c, 0, 83, 0
1, 438080, Note_on_c, 0, 79, 82
1, 438160, Note_on_c, 0, 79, 0
1, 438160, Note_on_c, 0, 74, 82
1, 438240, Note_on_c, 0, 74, 0
1, 438240, Note_on_c, 0, 69, 82
1, 438240, Note_on_c, 1, 55, 77
1, 438320, Note_on_c, 0, 69, 0
1, 438320, Note_on_c, 0, 73, 81
1, 438400, Note_on_c, 0, 73, 0
1, 438400, Note_on_c, 0, 76, 81
1, 438480, Note_on_c, 0, 76, 0
1, 438480, Note_on_c, 0, 81, 81
1, 438560, Note_on_c, 0, 81, 0
1, 438560, Note_on_c, 0, 83, 80
1, 438640, Note_on_c, 0, 83, 0
1, 438640, Note_on_c, 0, 85, 80
1, 438720, Note_on_c, 0, 85, 0
1, 438720, Note_on_c, 0, 86, 80
1, 438720, Note_on_c, 1, 55, 0
1, 438720, Note_on_c, 1, 54, 66
1, 438800, Note_on_c, 0, 86, 0
1, 438800, Note_on_c, 0, 85, 79
1, 438880, Note_on_c, 0, 85, 0
1, 438880, Note_on_c, 0, 83, 79
1, 438960, Note_on_c, 0, 83, 0
1, 438960, Note_on_c, 0, 81, 79
1, 438960, Note_on_c, 1, 54, 0
1, 439040, Note_on_c, 0, 81, 0
1, 439040, Note_on_c, 0, 79, 78
1, 439120, Note_on_c, 0, 79, 0
1, 439120, Note_on_c, 0, 78, 78
1, 439200, Note_on_c, 0, 78, 0
1, 439200, Note_on_c, 0, 75, 78
1, 439280, Note_on_c, 0, 75, 0
1, 439280, Note_on_c, 0, 76, 77
1, 439360, Note_on_c, 0, 76, 0
1, 439360, Note_on_c, 0, 79, 77
1, 439440, Note_on_c, 0, 79, 0
1, 439440, Note_on_c, 0, 83, 77
1, 439440, Note_on_c, 1, 67, 74
1, 439440, Note_on_c, 1, 55, 74
1, 439520, Note_on_c, 0, 83, 0
1, 439520, Note_on_c, 0, 79, 76
1, 439600, Note_on_c, 0, 79, 0
1, 439600, Note_on_c, 0, 76, 76
1, 439630, Note_on_c, 1, 55, 0
1, 439630, Note_on_c, 1, 67, 0
1, 439680, Note_on_c, 0, 76, 0
1, 439680, Note_on_c, 0, 81, 76
1, 439680, Note_on_c, 1, 66, 73
1, 439680, Note_on_c, 1, 57, 73
1, 439760, Note_on_c, 0, 81, 0
1, 439760, Note_on_c, 0, 78, 75
1, 439840, Note_on_c, 0, 78, 0
1, 439840, Note_on_c, 0, 74, 75
1, 439870, Note_on_c, 1, 57, 0
1, 439870, Note_on_c, 1, 66, 0
1, 439920, Note_on_c, 0, 74, 0
1, 439920, Note_on_c, 0, 79, 75
1, 439920, Note_on_c, 1, 64, 72
1, 439920, Note_on_c, 1, 57, 72
1, 440000, Note_on_c, 0, 79, 0
1, 440000, Note_on_c, 0, 76, 74
1, 440080, Note_on_c, 0, 76, 0
1, 440080, Note_on_c, 0, 73, 74
1, 440110, Note_on_c, 1, 57, 0
1, 440110, Note_on_c, 1, 64, 0
1, 440160, Note_on_c, 0, 73, 0
1, 440160, Note_on_c, 0, 74, 84
1, 440160, Note_on_c, 1, 50, 73
1, 440240, Note_on_c, 1, 50, 0
1, 440240, Note_on_c, 1, 54, 73
1, 440320, Note_on_c, 1, 54, 0
1, 440320, Note_on_c, 1, 57, 73
1, 440400, Note_on_c, 1, 57, 0
1, 440400, Note_on_c, 1, 62, 73
1, 440480, Note_on_c, 1, 62, 0
1, 440480, Note_on_c, 1, 57, 72
1, 440560, Note_on_c, 1, 57, 0
1, 440560, Note_on_c, 1, 54, 72
1, 440640, Note_on_c, 0, 74, 0
1, 440640, Note_on_c, 1, 54, 0
1, 440640, Note_on_c, 1, 50, 72
1, 440720, Note_on_c, 1, 50, 0
1, 440720, Note_on_c, 1, 54, 72
1, 440800, Note_on_c, 1, 54, 0
1, 440800, Note_on_c, 1, 57, 71
1, 440880, Note_on_c, 0, 86, 85
1, 440880, Note_on_c, 1, 57, 0
1, 440880, Note_on_c, 1, 62, 71
1, 440960, Note_on_c, 1, 62, 0
1, 440960, Note_on_c, 1, 57, 71
1, 441040, Note_on_c, 1, 57, 0
1, 441040, Note_on_c, 1, 54, 71
1, 441070, Note_on_c, 0, 86, 0
1, 441120, Note_on_c, 0, 85, 91
1, 441120, Note_on_c, 1, 54, 0
1, 441120, Note_on_c, 1, 50, 70
1, 441200, Note_on_c, 1, 50, 0
1, 441200, Note_on_c, 1, 52, 70
1, 441240, Note_on_c, 0, 85, 0
1, 441240, Note_on_c, 0, 81, 88
1, 441280, Note_on_c, 1, 52, 0
1, 441280, Note_on_c, 1, 55, 70
1, 441360, Note_on_c, 0, 81, 0
1, 441360, Note_on_c, 0, 79, 87
1, 441360, Note_on_c, 1, 55, 0
1, 441360, Note_on_c, 1, 61, 70
1, 441440, Note_on_c, 1, 61, 0
1, 441440, Note_on_c, 1, 55, 69
1, 441520, Note_on_c, 1, 55, 0
1, 441520, Note_on_c, 1, 52, 69
1, 441600, Note_on_c, 1, 52, 0
1, 441600, Note_on_c, 1, 50, 69
1, 441680, Note_on_c, 1, 50, 0
1, 441680, Note_on_c, 1, 52, 69
1, 441760, Note_on_c, 1, 52, 0
1, 441760, Note_on_c, 1, 55, 68
1, 441840, Note_on_c, 0, 79, 0
1, 441840, Note_on_c, 0, 76, 83
1, 441840, Note_on_c, 1, 55, 0
1, 441840, Note_on_c, 1, 61, 68
1, 441920, Note_on_c, 1, 61, 0
1, 441920, Note_on_c, 1, 55, 68
1, 441960, Note_on_c, 0, 76, 0
1, 441960, Note_on_c, 0, 73, 82
1, 442000, Note_on_c, 1, 55, 0
1, 442000, Note_on_c, 1, 52, 68
1, 442080, Note_on_c, 0, 73, 0
1, 442080, Note_on_c, 0, 74, 81
1, 442080, Note_on_c, 1, 52, 0
1, 442080, Note_on_c, 1, 50, 59
1, 442160, Note_on_c, 1, 50, 0
1, 442160, Note_on_c, 1, 54, 59
1, 442240, Note_on_c, 1, 54, 0
1, 442240, Note_on_c, 1, 57, 59
1, 442320, Note_on_c, 1, 57, 0
1, 442320, Note_on_c, 1, 62, 58
1, 442400, Note_on_c, 1, 62, 0
1, 442400, Note_on_c, 1, 57, 58
1, 442480, Note_on_c, 1, 57, 0
1, 442480, Note_on_c, 1, 54, 58
1, 442560, Note_on_c, 0, 74, 0
1, 442560, Note_on_c, 1, 54, 0
1, 442560, Note_on_c, 1, 50, 57
1, 442640, Note_on_c, 1, 50, 0
1, 442640, Note_on_c, 1, 54, 57
1, 442720, Note_on_c, 1, 54, 0
1, 442720, Note_on_c, 1, 57, 57
1, 442800, Note_on_c, 0, 86, 72
1, 442800, Note_on_c, 1, 57, 0
1, 442800, Note_on_c, 1, 62, 56
1, 442880, Note_on_c, 1, 62, 0
1, 442880, Note_on_c, 1, 57, 56
1, 442960, Note_on_c, 1, 57, 0
1, 442960, Note_on_c, 1, 54, 56
1, 442990, Note_on_c, 0, 86, 0
1, 443040, Note_on_c, 0, 85, 79
1, 443040, Note_on_c, 1, 54, 0
1, 443040, Note_on_c, 1, 50, 55
1, 443120, Note_on_c, 1, 50, 0
1, 443120, Note_on_c, 1, 52, 55
1, 443160, Note_on_c, 0, 85, 0
1, 443160, Note_on_c, 0, 81, 75
1, 443200, Note_on_c, 1, 52, 0
1, 443200, Note_on_c, 1, 55, 55
1, 443280, Note_on_c, 0, 81, 0
1, 443280, Note_on_c, 0, 79, 75
1, 443280, Note_on_c, 1, 55, 0
1, 443280, Note_on_c, 1, 61, 54
1, 443360, Note_on_c, 1, 61, 0
1, 443360, Note_on_c, 1, 55, 54
1, 443440, Note_on_c, 1, 55, 0
1, 443440, Note_on_c, 1, 52, 54
1, 443520, Note_on_c, 1, 52, 0
1, 443520, Note_on_c, 1, 50, 53
1, 443600, Note_on_c, 1, 50, 0
1, 443600, Note_on_c, 1, 52, 53
1, 443680, Note_on_c, 1, 52, 0
1, 443680, Note_on_c, 1, 55, 53
1, 443760, Note_on_c, 0, 79, 0
1, 443760, Note_on_c, 0, 76, 72
1, 443760, Note_on_c, 1, 55, 0
1, 443760, Note_on_c, 1, 61, 52
1, 443840, Note_on_c, 1, 61, 0
1, 443840, Note_on_c, 1, 55, 52
1, 443880, Note_on_c, 0, 76, 0
1, 443880, Note_on_c, 0, 73, 72
1, 443920, Note_on_c, 1, 55, 0
1, 443920, Note_on_c, 1, 52, 52
1, 444000, Note_on_c, 0, 73, 0
1, 444000, Note_on_c, 0, 74, 74
1, 444000, Note_on_c, 1, 52, 0
1, 444000, Note_on_c, 1, 50, 68
1, 444080, Note_on_c, 0, 74, 0
1, 444080, Note_on_c, 0, 69, 75
1, 444160, Note_on_c, 0, 69, 0
1, 444160, Note_on_c, 0, 78, 75
1, 444240, Note_on_c, 0, 78, 0
1, 444240, Note_on_c, 0, 76, 76
1, 444320, Note_on_c, 0, 76, 0
1, 444320, Note_on_c, 0, 73, 76
1, 444400, Note_on_c, 0, 73, 0
1, 444400, Note_on_c, 0, 79, 77
1, 444480, Note_on_c, 0, 79, 0
1, 444480, Note_on_c, 0, 78, 77
1, 444480, Note_on_c, 1, 50, 0
1, 444560, Note_on_c, 0, 78, 0
1, 444560, Note_on_c, 0, 74, 78
1, 444640, Note_on_c, 0, 74, 0
1, 444640, Note_on_c, 0, 81, 78
1, 444720, Note_on_c, 0, 81, 0
1, 444720, Note_on_c, 0, 79, 79
1, 444720, Note_on_c, 1, 64, 74
1, 444720, Note_on_c, 1, 57, 74
1, 444720, Note_on_c, 1, 67, 74
1, 444800, Note_on_c, 0, 79, 0
1, 444800, Note_on_c, 0, 76, 79
1, 444880, Note_on_c, 0, 76, 0
1, 444880, Note_on_c, 0, 73, 80
1, 444910, Note_on_c, 1, 67, 0
1, 444910, Note_on_c, 1, 57, 0
1, 444910, Note_on_c, 1, 64, 0
1, 444960, Note_on_c, 0, 73, 0
1, 444960, Note_on_c, 0, 74, 80
1, 444960, Note_on_c, 1, 62, 76
1, 444960, Note_on_c, 1, 66, 76
1, 445040, Note_on_c, 0, 74, 0
1, 445040, Note_on_c, 0, 69, 81
1, 445120, Note_on_c, 0, 69, 0
1, 445120, Note_on_c, 0, 78, 81
1, 445200, Note_on_c, 0, 78, 0
1, 445200, Note_on_c, 0, 76, 82
1, 445280, Note_on_c, 0, 76, 0
1, 445280, Note_on_c, 0, 73, 83
1, 445360, Note_on_c, 0, 73, 0
1, 445360, Note_on_c, 0, 79, 83
1, 445440, Note_on_c, 0, 79, 0
1, 445440, Note_on_c, 0, 78, 84
1, 445440, Note_on_c, 1, 66, 0
1, 445440, Note_on_c, 1, 62, 0
1, 445520, Note_on_c, 0, 78, 0
1, 445520, Note_on_c, 0, 74, 84
1, 445600, Note_on_c, 0, 74, 0
1, 445600, Note_on_c, 0, 81, 85
1, 445680, Note_on_c, 0, 81, 0
1, 445680, Note_on_c, 0, 79, 85
1, 445680, Note_on_c, 1, 67, 82
1, 445680, Note_on_c, 1, 64, 82
1, 445680, Note_on_c, 1, 57, 82
1, 445760, Note_on_c, 0, 79, 0
1, 445760, Note_on_c, 0, 76, 86
1, 445840, Note_on_c, 0, 76, 0
1, 445840, Note_on_c, 0, 73, 86
1, 445870, Note_on_c, 1, 57, 0
1, 445870, Note_on_c, 1, 64, 0
1, 445870, Note_on_c, 1, 67, 0
1, 445920, Note_on_c, 0, 73, 0
1, 445920, Note_on_c, 0, 74, 87
1, 445920, Note_on_c, 1, 50, 84
1, 445920, Note_on_c, 1, 62, 84
1, 446000, Note_on_c, 0, 74, 0
1, 446000, Note_on_c, 0, 78, 87
1, 446080, Note_on_c, 0, 78, 0
1, 446080, Note_on_c, 0, 74, 88
1, 446110, Note_on_c, 1, 62, 0
1, 446110, Note_on_c, 1, 50, 0
1, 446160, Note_on_c, 0, 74, 0
1, 446160, Note_on_c, 0, 69, 88
1, 446160, Note_on_c, 1, 45, 87
1, 446160, Note_on_c, 1, 57, 87
1, 446240, Note_on_c, 0, 69, 0
1, 446240, Note_on_c, 0, 74, 89
1, 446320, Note_on_c, 0, 74, 0
1, 446320, Note_on_c, 0, 69, 90
1, 446350, Note_on_c, 1, 57, 0
1, 446350, Note_on_c, 1, 45, 0
1, 446400, Note_on_c, 0, 69, 0
1, 446400, Note_on_c, 0, 66, 90
1, 446400, Note_on_c, 1, 54, 89
1, 446400, Note_on_c, 1, 42, 89
1, 446480, Note_on_c, 0, 66, 0
1, 446480, Note_on_c, 0, 69, 91
1, 446560, Note_on_c, 0, 69, 0
1, 446560, Note_on_c, 0, 66, 91
1, 446590, Note_on_c, 1, 42, 0
1, 446590, Note_on_c, 1, 54, 0
1, 446640, Note_on_c, 0, 66, 0
1, 446640, Note_on_c, 0, 62, 92
1, 446640, Note_on_c, 1, 38, 91
1, 446640, Note_on_c, 1, 50, 91
1, 446720, Note_on_c, 0, 62, 0
1, 446720, Note_on_c, 0, 66, 92
1, 446800, Note_on_c, 0, 66, 0
1, 446800, Note_on_c, 0, 62, 93
1, 446830, Note_on_c, 1, 50, 0
1, 446830, Note_on_c, 1, 38, 0
1, 446880, Note_on_c, 0, 62, 0
1, 446880, Note_on_c, 0, 57, 95
1, 446880, Note_on_c, 1, 33, 88
1, 446960, Note_on_c, 1, 33, 0
1, 446960, Note_on_c, 1, 37, 88
1, 447040, Note_on_c, 1, 37, 0
1, 447040, Note_on_c, 1, 40, 88
1, 447120, Note_on_c, 0, 57, 0
1, 447120, Note_on_c, 1, 40, 0
1, 447120, Note_on_c, 1, 45, 88
1, 447200, Note_on_c, 1, 45, 0
1, 447200, Note_on_c, 1, 49, 88
1, 447280, Note_on_c, 1, 49, 0
1, 447280, Note_on_c, 1, 52, 88
1, 447360, Note_on_c, 0, 78, 95
1, 447360, Note_on_c, 1, 52, 0
1, 447360, Note_on_c, 1, 74, 95
1, 447360, Note_on_c, 1, 69, 95
1, 447360, Note_on_c, 1, 38, 88
1, 447440, Note_on_c, 1, 38, 0
1, 447440, Note_on_c, 1, 42, 88
1, 447520, Note_on_c, 1, 42, 0
1, 447520, Note_on_c, 1, 45, 88
1, 447600, Note_on_c, 0, 78, 0
1, 447600, Note_on_c, 1, 45, 0
1, 447600, Note_on_c, 1, 69, 0
1, 447600, Note_on_c, 1, 74, 0
1, 447600, Note_on_c, 1, 50, 88
1, 447680, Note_on_c, 1, 50, 0
1, 447680, Note_on_c, 1, 54, 88
1, 447760, Note_on_c, 1, 54, 0
1, 447760, Note_on_c, 1, 57, 88
1, 447840, Note_on_c, 0, 57, 95
1, 447840, Note_on_c, 1, 57, 0
1, 447840, Note_on_c, 1, 45, 88
1, 447840, Note_on_c, 1, 49, 88
1, 447920, Note_on_c, 0, 57, 0
1, 447920, Note_on_c, 0, 61, 95
1, 448000, Note_on_c, 0, 61, 0
1, 448000, Note_on_c, 0, 64, 94
1, 448030, Note_on_c, 1, 49, 0
1, 448030, Note_on_c, 1, 45, 0
1, 448080, Note_on_c, 0, 64, 0
1, 448080, Note_on_c, 0, 69, 94
1, 448160, Note_on_c, 0, 69, 0
1, 448160, Note_on_c, 0, 73, 94
1, 448240, Note_on_c, 0, 73, 0
1, 448240, Note_on_c, 0, 76, 94
1, 448320, Note_on_c, 0, 76, 0
1, 448320, Note_on_c, 0, 78, 94
1, 448320, Note_on_c, 1, 45, 88
1, 448320, Note_on_c, 1, 50, 88
1, 448400, Note_on_c, 0, 78, 0
1, 448400, Note_on_c, 0, 81, 94
1, 448480, Note_on_c, 0, 81, 0
1, 448480, Note_on_c, 0, 86, 94
1, 448510, Note_on_c, 1, 50, 0
1, 448510, Note_on_c, 1, 45, 0
1, 448560, Note_on_c, 0, 86, 0
1, 448560, Note_on_c, 0, 81, 94
1, 448640, Note_on_c, 0, 81, 0
1, 448640, Note_on_c, 0, 78, 94
1, 448720, Note_on_c, 0, 78, 0
1, 448720, Note_on_c, 0, 74, 94
1, 448800, Note_on_c, 0, 74, 0
1, 448800, Note_on_c, 0, 81, 94
1, 448800, Note_on_c, 1, 45, 86
1, 448800, Note_on_c, 1, 49, 86
1, 448955, Note_on_c, 0, 81, 0
1, 448990, Note_on_c, 1, 49, 0
1, 448990, Note_on_c, 1, 45, 0
1, 449040, Note_on_c, 0, 69, 86
1, 449232, Note_on_c, 0, 69, 0
1, 449760, Note_on_c, 1, 57, 59
1, 450120, Note_on_c, 1, 57, 0
1, 450120, Note_on_c, 1, 59, 57
1, 450180, Note_on_c, 1, 59, 0
1, 450180, Note_on_c, 1, 57, 57
1, 450240, Note_on_c, 1, 57, 0
1, 450240, Note_on_c, 1, 56, 56
1, 450395, Note_on_c, 1, 56, 0
1, 450480, Note_on_c, 1, 57, 55
1, 450636, Note_on_c, 1, 57, 0
1, 450720, Note_on_c, 1, 58, 54
1, 450960, Note_on_c, 0, 86, 58
1, 450960, Note_on_c, 1, 58, 0
1, 450960, Note_on_c, 1, 59, 55
1, 451080, Note_on_c, 0, 86, 0
1, 451080, Note_on_c, 0, 78, 57
1, 451115, Note_on_c, 1, 59, 0
1, 451200, Note_on_c, 0, 78, 0
1, 451200, Note_on_c, 0, 81, 56
1, 451200, Note_on_c, 1, 59, 50
1, 451440, Note_on_c, 0, 81, 0
1, 451440, Note_on_c, 0, 80, 53
1, 451440, Note_on_c, 1, 59, 0
1, 451680, Note_on_c, 0, 80, 0
1, 451680, Note_on_c, 1, 59, 63
1, 452040, Note_on_c, 1, 59, 0
1, 452040, Note_on_c, 1, 61, 61
1, 452100, Note_on_c, 1, 61, 0
1, 452100, Note_on_c, 1, 59, 61
1, 452160, Note_on_c, 1, 59, 0
1, 452160, Note_on_c, 1, 57, 61
1, 452315, Note_on_c, 1, 57, 0
1, 452400, Note_on_c, 1, 59, 59
1, 452555, Note_on_c, 1, 59, 0
1, 452640, Note_on_c, 1, 60, 58
1, 452880, Note_on_c, 0, 88, 64
1, 452880, Note_on_c, 1, 60, 0
1, 452880, Note_on_c, 1, 61, 57
1, 453000, Note_on_c, 0, 88, 0
1, 453000, Note_on_c, 0, 80, 64
1, 453035, Note_on_c, 1, 61, 0
1, 453120, Note_on_c, 0, 80, 0
1, 453120, Note_on_c, 0, 83, 63
1, 453120, Note_on_c, 1, 61, 55
1, 453360, Note_on_c, 0, 83, 0
1, 453360, Note_on_c, 0, 82, 61
1, 453360, Note_on_c, 1, 61, 0
1, 453600, Note_on_c, 0, 82, 0
1, 453600, Note_on_c, 0, 83, 60
1, 453840, Note_on_c, 1, 78, 71
1, 453840, Note_on_c, 1, 74, 71
1, 453960, Note_on_c, 0, 83, 0
1, 453960, Note_on_c, 0, 82, 66
1, 454020, Note_on_c, 0, 82, 0
1, 454020, Note_on_c, 0, 83, 66
1, 454080, Note_on_c, 0, 83, 0
1, 454080, Note_on_c, 0, 85, 66
1, 454080, Note_on_c, 1, 74, 0
1, 454080, Note_on_c, 1, 78, 0
1, 454080, Note_on_c, 1, 76, 70
1, 454080, Note_on_c, 1, 73, 70
1, 454235, Note_on_c, 0, 85, 0
1, 454320, Note_on_c, 0, 86, 67
1, 454320, Note_on_c, 1, 73, 0
1, 454320, Note_on_c, 1, 76, 0
1, 454320, Note_on_c, 1, 71, 68
1, 454320, Note_on_c, 1, 74, 68
1, 454475, Note_on_c, 0, 86, 0
1, 454560, Note_on_c, 0, 79, 67
1, 454560, Note_on_c, 1, 74, 0
1, 454560, Note_on_c, 1, 71, 0
1, 454560, Note_on_c, 1, 76, 67
1, 454560, Note_on_c, 1, 70, 67
1, 454800, Note_on_c, 0, 79, 0
1, 454800, Note_on_c, 0, 78, 64
1, 454955, Note_on_c, 0, 78, 0
1, 455040, Note_on_c, 1, 70, 0
1, 455040, Note_on_c, 1, 76, 0
1, 455040, Note_on_c, 1, 71, 64
1, 455040, Note_on_c, 1, 74, 64
1, 455280, Note_on_c, 0, 86, 64
1, 455435, Note_on_c, 0, 86, 0
1, 455520, Note_on_c, 0, 77, 62
1, 455520, Note_on_c, 1, 71, 0
1, 455520, Note_on_c, 1, 68, 61
1, 455760, Note_on_c, 0, 77, 0
1, 455760, Note_on_c, 0, 76, 61
1, 455915, Note_on_c, 0, 76, 0
1, 456000, Note_on_c, 1, 68, 0
1, 456000, Note_on_c, 1, 74, 0
1, 456000, Note_on_c, 1, 69, 59
1, 456000, Note_on_c, 1, 73, 59
1, 456240, Note_on_c, 0, 76, 59
1, 456360, Note_on_c, 0, 76, 0
1, 456360, Note_on_c, 0, 85, 58
1, 456480, Note_on_c, 0, 85, 0
1, 456480, Note_on_c, 0, 83, 58
1, 456480, Note_on_c, 1, 69, 0
1, 456480, Note_on_c, 1, 66, 56
1, 456720, Note_on_c, 0, 83, 0
1, 456720, Note_on_c, 0, 81, 57
1, 456720, Note_on_c, 1, 73, 0
1, 456720, Note_on_c, 1, 72, 55
1, 456960, Note_on_c, 1, 72, 0
1, 456960, Note_on_c, 1, 66, 0
1, 456960, Note_on_c, 1, 71, 53
1, 456960, Note_on_c, 1, 65, 53
1, 457200, Note_on_c, 0, 81, 0
1, 457200, Note_on_c, 0, 75, 54
1, 457200, Note_on_c, 1, 71, 0
1, 457200, Note_on_c, 1, 69, 52
1, 457440, Note_on_c, 0, 75, 0
1, 457440, Note_on_c, 0, 76, 69
1, 457440, Note_on_c, 1, 69, 0
1, 457440, Note_on_c, 1, 65, 0
1, 457440, Note_on_c, 1, 64, 50
1, 457440, Note_on_c, 1, 68, 50
1, 457800, Note_on_c, 0, 76, 0
1, 457800, Note_on_c, 0, 78, 68
1, 457860, Note_on_c, 0, 78, 0
1, 457860, Note_on_c, 0, 76, 67
1, 457920, Note_on_c, 0, 76, 0
1, 457920, Note_on_c, 0, 75, 67
1, 457920, Note_on_c, 1, 68, 0
1, 457920, Note_on_c, 1, 64, 0
1, 458075, Note_on_c, 0, 75, 0
1, 458160, Note_on_c, 0, 76, 66
1, 458315, Note_on_c, 0, 76, 0
1, 458400, Note_on_c, 0, 77, 67
1, 458400, Note_on_c, 0, 69, 67
1, 458400, Note_on_c, 1, 64, 71
1, 458640, Note_on_c, 0, 77, 0
1, 458640, Note_on_c, 0, 78, 64
1, 458760, Note_on_c, 1, 64, 0
1, 458760, Note_on_c, 1, 63, 71
1, 458795, Note_on_c, 0, 78, 0
1, 458820, Note_on_c, 1, 63, 0
1, 458820, Note_on_c, 1, 64, 70
1, 458880, Note_on_c, 0, 78, 61
1, 458880, Note_on_c, 1, 64, 0
1, 458880, Note_on_c, 1, 66, 70
1, 459035, Note_on_c, 1, 66, 0
1, 459120, Note_on_c, 0, 78, 0
1, 459120, Note_on_c, 1, 64, 70
1, 459275, Note_on_c, 1, 64, 0
1, 459360, Note_on_c, 0, 69, 0
1, 459360, Note_on_c, 0, 80, 73
1, 459360, Note_on_c, 0, 71, 73
1, 459360, Note_on_c, 1, 64, 71
1, 459600, Note_on_c, 1, 64, 0
1, 459600, Note_on_c, 1, 62, 67
1, 459720, Note_on_c, 0, 80, 0
1, 459720, Note_on_c, 0, 81, 71
1, 459755, Note_on_c, 1, 62, 0
1, 459780, Note_on_c, 0, 81, 0
1, 459780, Note_on_c, 0, 80, 70
1, 459840, Note_on_c, 0, 80, 0
1, 459840, Note_on_c, 0, 78, 70
1, 459840, Note_on_c, 1, 62, 64
1, 459995, Note_on_c, 0, 78, 0
1, 460080, Note_on_c, 0, 80, 68
1, 460080, Note_on_c, 1, 62, 0
1, 460235, Note_on_c, 0, 80, 0
1, 460320, Note_on_c, 0, 71, 0
1, 460320, Note_on_c, 0, 80, 71
1, 460320, Note_on_c, 0, 76, 71
1, 460320, Note_on_c, 1, 61, 78
1, 460560, Note_on_c, 0, 80, 0
1, 460560, Note_on_c, 0, 81, 69
1, 460680, Note_on_c, 1, 61, 0
1, 460680, Note_on_c, 1, 59, 78
1, 460715, Note_on_c, 0, 81, 0
1, 460740, Note_on_c, 1, 59, 0
1, 460740, Note_on_c, 1, 61, 78
1, 460800, Note_on_c, 0, 81, 64
1, 460800, Note_on_c, 1, 61, 0
1, 460800, Note_on_c, 1, 62, 79
1, 460955, Note_on_c, 1, 62, 0
1, 461040, Note_on_c, 0, 81, 0
1, 461040, Note_on_c, 1, 61, 79
1, 461195, Note_on_c, 1, 61, 0
1, 461280, Note_on_c, 0, 76, 0
1, 461280, Note_on_c, 0, 83, 81
1, 461280, Note_on_c, 0, 80, 81
1, 461280, Note_on_c, 1, 61, 77
1, 461520, Note_on_c, 1, 61, 0
1, 461520, Note_on_c, 1, 59, 74
1, 461640, Note_on_c, 0, 83, 0
1, 461640, Note_on_c, 0, 85, 79
1, 461675, Note_on_c, 1, 59, 0
1, 461700, Note_on_c, 0, 85, 0
1, 461700, Note_on_c, 0, 83, 79
1, 461760, Note_on_c, 0, 83, 0
1, 461760, Note_on_c, 0, 81, 78
1, 461760, Note_on_c, 1, 59, 70
1, 461915, Note_on_c, 0, 81, 0
1, 462000, Note_on_c, 0, 83, 77
1, 462000, Note_on_c, 1, 59, 0
1, 462155, Note_on_c, 0, 83, 0
1, 462240, Note_on_c, 0, 80, 0
1, 462240, Note_on_c, 0, 85, 85
1, 462240, Note_on_c, 0, 76, 85
1, 462240, Note_on_c, 1, 64, 88
1, 462240, Note_on_c, 1, 69, 88
1, 462600, Note_on_c, 0, 85, 0
1, 462600, Note_on_c, 0, 86, 83
1, 462600, Note_on_c, 1, 69, 0
1, 462600, Note_on_c, 1, 71, 88
1, 462660, Note_on_c, 0, 86, 0
1, 462660, Note_on_c, 0, 85, 83
1, 462660, Note_on_c, 1, 71, 0
1, 462660, Note_on_c, 1, 69, 88
1, 462720, Note_on_c, 0, 85, 0
1, 462720, Note_on_c, 0, 83, 82
1, 462720, Note_on_c, 1, 69, 0
1, 462720, Note_on_c, 1, 68, 88
1, 462875, Note_on_c, 0, 83, 0
1, 462875, Note_on_c, 1, 68, 0
1, 462960, Note_on_c, 0, 85, 81
1, 462960, Note_on_c, 1, 70, 84
1, 463115, Note_on_c, 0, 85, 0
1, 463115, Note_on_c, 1, 70, 0
1, 463200, Note_on_c, 0, 76, 0
1, 463200, Note_on_c, 0, 86, 76
1, 463200, Note_on_c, 1, 64, 0
1, 463200, Note_on_c, 1, 71, 83
1, 463200, Note_on_c, 1, 64, 83
1, 463280, Note_on_c, 0, 86, 0
1, 463280, Note_on_c, 0, 83, 84
1, 463360, Note_on_c, 0, 83, 0
1, 463360, Note_on_c, 0, 80, 84
1, 463440, Note_on_c, 0, 80, 0
1, 463440, Note_on_c, 0, 76, 84
1, 463520, Note_on_c, 0, 76, 0
1, 463520, Note_on_c, 0, 74, 83
1, 463600, Note_on_c, 0, 74, 0
1, 463600, Note_on_c, 0, 71, 83
1, 463680, Note_on_c, 0, 71, 0
1, 463680, Note_on_c, 0, 68, 82
1, 463680, Note_on_c, 1, 64, 0
1, 463680, Note_on_c, 1, 71, 0
1, 463760, Note_on_c, 0, 68, 0
1, 463760, Note_on_c, 0, 71, 82
1, 463840, Note_on_c, 0, 71, 0
1, 463840, Note_on_c, 0, 74, 81
1, 463920, Note_on_c, 0, 74, 0
1, 463920, Note_on_c, 0, 76, 81
1, 464000, Note_on_c, 0, 76, 0
1, 464000, Note_on_c, 0, 80, 81
1, 464080, Note_on_c, 0, 80, 0
1, 464080, Note_on_c, 0, 83, 80
1, 464160, Note_on_c, 0, 83, 0
1, 464160, Note_on_c, 0, 86, 80
1, 464240, Note_on_c, 0, 86, 0
1, 464240, Note_on_c, 0, 83, 79
1, 464320, Note_on_c, 0, 83, 0
1, 464320, Note_on_c, 0, 80, 79
1, 464400, Note_on_c, 0, 80, 0
1, 464400, Note_on_c, 0, 76, 78
1, 464480, Note_on_c, 0, 76, 0
1, 464480, Note_on_c, 0, 74, 78
1, 464560, Note_on_c, 0, 74, 0
1, 464560, Note_on_c, 0, 71, 78
1, 464640, Note_on_c, 0, 71, 0
1, 464640, Note_on_c, 0, 68, 77
1, 464720, Note_on_c, 0, 68, 0
1, 464720, Note_on_c, 0, 71, 77
1, 464800, Note_on_c, 0, 71, 0
1, 464800, Note_on_c, 0, 74, 76
1, 464880, Note_on_c, 0, 74, 0
1, 464880, Note_on_c, 0, 76, 76
1, 464960, Note_on_c, 0, 76, 0
1, 464960, Note_on_c, 0, 80, 75
1, 465040, Note_on_c, 0, 80, 0
1, 465040, Note_on_c, 0, 83, 75
1, 465120, Note_on_c, 0, 83, 0
1, 465120, Note_on_c, 0, 86, 74
1, 465120, Note_on_c, 1, 71, 80
1, 465200, Note_on_c, 0, 86, 0
1, 465200, Note_on_c, 0, 83, 74
1, 465275, Note_on_c, 1, 71, 0
1, 465280, Note_on_c, 0, 83, 0
1, 465280, Note_on_c, 0, 86, 75
1, 465360, Note_on_c, 0, 86, 0
1, 465360, Note_on_c, 0, 85, 76
1, 465360, Note_on_c, 1, 69, 82
1, 465440, Note_on_c, 0, 85, 0
1, 465440, Note_on_c, 0, 81, 76
1, 465515, Note_on_c, 1, 69, 0
1, 465520, Note_on_c, 0, 81, 0
1, 465520, Note_on_c, 0, 85, 77
1, 465600, Note_on_c, 0, 85, 0
1, 465600, Note_on_c, 0, 83, 78
1, 465600, Note_on_c, 1, 68, 84
1, 465680, Note_on_c, 0, 83, 0
1, 465680, Note_on_c, 0, 80, 79
1, 465755, Note_on_c, 1, 68, 0
1, 465760, Note_on_c, 0, 80, 0
1, 465760, Note_on_c, 0, 83, 79
1, 465840, Note_on_c, 0, 83, 0
1, 465840, Note_on_c, 0, 81, 80
1, 465840, Note_on_c, 1, 66, 86
1, 465920, Note_on_c, 0, 81, 0
1, 465920, Note_on_c, 0, 78, 81
1, 465995, Note_on_c, 1, 66, 0
1, 466000, Note_on_c, 0, 78, 0
1, 466000, Note_on_c, 0, 81, 82
1, 466080, Note_on_c, 0, 81, 0
1, 466080, Note_on_c, 0, 80, 82
1, 466080, Note_on_c, 1, 64, 88
1, 466160, Note_on_c, 0, 80, 0
1, 466160, Note_on_c, 0, 76, 83
1, 466235, Note_on_c, 1, 64, 0
1, 466240, Note_on_c, 0, 76, 0
1, 466240, Note_on_c, 0, 80, 84
1, 466320, Note_on_c, 0, 80, 0
1, 466320, Note_on_c, 0, 78, 84
1, 466320, Note_on_c, 1, 62, 90
1, 466400, Note_on_c, 0, 78, 0
1, 466400, Note_on_c, 0, 74, 85
1, 466475, Note_on_c, 1, 62, 0
1, 466480, Note_on_c, 0, 74, 0
1, 466480, Note_on_c, 0, 78, 86
1, 466560, Note_on_c, 0, 78, 0
1, 466560, Note_on_c, 0, 76, 87
1, 466560, Note_on_c, 1, 61, 92
1, 466640, Note_on_c, 0, 76, 0
1, 466640, Note_on_c, 0, 73, 87
1, 466715, Note_on_c, 1, 61, 0
1, 466720, Note_on_c, 0, 73, 0
1, 466720, Note_on_c, 0, 76, 88
1, 466800, Note_on_c, 0, 76, 0
1, 466800, Note_on_c, 0, 74, 89
1, 466800, Note_on_c, 1, 59, 94
1, 466880, Note_on_c, 0, 74, 0
1, 466880, Note_on_c, 0, 71, 90
1, 466955, Note_on_c, 1, 59, 0
1, 466960, Note_on_c, 0, 71, 0
1, 466960, Note_on_c, 0, 74, 90
1, 467040, Note_on_c, 0, 74, 0
1, 467040, Note_on_c, 0, 73, 91
1, 467040, Note_on_c, 1, 57, 97
1, 467280, Note_on_c, 0, 73, 0
1, 467280, Note_on_c, 0, 88, 91
1, 467280, Note_on_c, 1, 57, 0
1, 467360, Note_on_c, 0, 88, 0
1, 467360, Note_on_c, 0, 85, 90
1, 467440, Note_on_c, 0, 85, 0
1, 467440, Note_on_c, 0, 81, 90
1, 467520, Note_on_c, 0, 81, 0
1, 467520, Note_on_c, 0, 80, 89
1, 467520, Note_on_c, 1, 76, 88
1, 467520, Note_on_c, 1, 74, 88
1, 467600, Note_on_c, 0, 80, 0
1, 467600, Note_on_c, 0, 83, 89
1, 467680, Note_on_c, 0, 83, 0
1, 467680, Note_on_c, 0, 76, 88
1, 467760, Note_on_c, 0, 76, 0
1, 467760, Note_on_c, 0, 88, 88
1, 467760, Note_on_c, 1, 74, 0
1, 467760, Note_on_c, 1, 76, 0
1, 467840, Note_on_c, 0, 88, 0
1, 467840, Note_on_c, 0, 86, 87
1, 467920, Note_on_c, 0, 86, 0
1, 467920, Note_on_c, 0, 83, 87
1, 468000, Note_on_c, 0, 83, 0
1, 468000, Note_on_c, 0, 81, 86
1, 468000, Note_on_c, 1, 76, 84
1, 468000, Note_on_c, 1, 73, 84
1, 468080, Note_on_c, 0, 81, 0
1, 468080, Note_on_c, 0, 85, 86
1, 468160, Note_on_c, 0, 85, 0
1, 468160, Note_on_c, 0, 76, 85
1, 468240, Note_on_c, 0, 76, 0
1, 468240, Note_on_c, 0, 88, 85
1, 468240, Note_on_c, 1, 73, 0
1, 468240, Note_on_c, 1, 76, 0
1, 468320, Note_on_c, 0, 88, 0
1, 468320, Note_on_c, 0, 85, 84
1, 468400, Note_on_c, 0, 85, 0
1, 468400, Note_on_c, 0, 81, 84
1, 468480, Note_on_c, 0, 81, 0
1, 468480, Note_on_c, 0, 80, 83
1, 468480, Note_on_c, 1, 76, 81
1, 468480, Note_on_c, 1, 74, 81
1, 468560, Note_on_c, 0, 80, 0
1, 468560, Note_on_c, 0, 83, 83
1, 468640, Note_on_c, 0, 83, 0
1, 468640, Note_on_c, 0, 76, 82
1, 468720, Note_on_c, 0, 76, 0
1, 468720, Note_on_c, 0, 88, 82
1, 468720, Note_on_c, 1, 74, 0
1, 468720, Note_on_c, 1, 76, 0
1, 468800, Note_on_c, 0, 88, 0
1, 468800, Note_on_c, 0, 86, 81
1, 468880, Note_on_c, 0, 86, 0
1, 468880, Note_on_c, 0, 83, 81
1, 468960, Note_on_c, 0, 83, 0
1, 468960, Note_on_c, 0, 81, 80
1, 468960, Note_on_c, 1, 76, 77
1, 468960, Note_on_c, 1, 73, 77
1, 469040, Note_on_c, 0, 81, 0
1, 469040, Note_on_c, 0, 85, 80
1, 469120, Note_on_c, 0, 85, 0
1, 469120, Note_on_c, 0, 76, 80
1, 469200, Note_on_c, 0, 76, 0
1, 469200, Note_on_c, 0, 79, 87
1, 469200, Note_on_c, 0, 88, 87
1, 469200, Note_on_c, 1, 73, 0
1, 469200, Note_on_c, 1, 76, 0
1, 469200, Note_on_c, 1, 73, 89
1, 469280, Note_on_c, 1, 73, 0
1, 469280, Note_on_c, 1, 76, 89
1, 469360, Note_on_c, 1, 76, 0
1, 469360, Note_on_c, 1, 73, 88
1, 469440, Note_on_c, 0, 79, 0
1, 469440, Note_on_c, 0, 78, 86
1, 469440, Note_on_c, 1, 73, 0
1, 469440, Note_on_c, 1, 70, 88
1, 469520, Note_on_c, 1, 70, 0
1, 469520, Note_on_c, 1, 73, 87
1, 469600, Note_on_c, 1, 73, 0
1, 469600, Note_on_c, 1, 70, 87
1, 469680, Note_on_c, 0, 88, 0
1, 469680, Note_on_c, 0, 86, 85
1, 469680, Note_on_c, 1, 70, 0
1, 469680, Note_on_c, 1, 71, 86
1, 469760, Note_on_c, 1, 71, 0
1, 469760, Note_on_c, 1, 74, 86
1, 469840, Note_on_c, 1, 74, 0
1, 469840, Note_on_c, 1, 71, 86
1, 469920, Note_on_c, 0, 78, 0
1, 469920, Note_on_c, 0, 76, 84
1, 469920, Note_on_c, 1, 71, 0
1, 469920, Note_on_c, 1, 68, 85
1, 470000, Note_on_c, 1, 68, 0
1, 470000, Note_on_c, 1, 71, 85
1, 470080, Note_on_c, 1, 71, 0
1, 470080, Note_on_c, 1, 68, 84
1, 470160, Note_on_c, 0, 86, 0
1, 470160, Note_on_c, 0, 85, 83
1, 470160, Note_on_c, 1, 68, 0
1, 470160, Note_on_c, 1, 69, 84
1, 470240, Note_on_c, 1, 69, 0
1, 470240, Note_on_c, 1, 73, 83
1, 470320, Note_on_c, 1, 73, 0
1, 470320, Note_on_c, 1, 69, 83
1, 470400, Note_on_c, 0, 76, 0
1, 470400, Note_on_c, 0, 74, 82
1, 470400, Note_on_c, 1, 69, 0
1, 470400, Note_on_c, 1, 66, 82
1, 470480, Note_on_c, 1, 66, 0
1, 470480, Note_on_c, 1, 69, 82
1, 470560, Note_on_c, 1, 69, 0
1, 470560, Note_on_c, 1, 66, 82
1, 470640, Note_on_c, 0, 85, 0
1, 470640, Note_on_c, 0, 83, 81
1, 470640, Note_on_c, 1, 66, 0
1, 470640, Note_on_c, 1, 68, 81
1, 470720, Note_on_c, 1, 68, 0
1, 470720, Note_on_c, 1, 71, 81
1, 470800, Note_on_c, 1, 71, 0
1, 470800, Note_on_c, 1, 67, 80
1, 470880, Note_on_c, 0, 74, 0
1, 470880, Note_on_c, 0, 73, 80
1, 470880, Note_on_c, 1, 67, 0
1, 470880, Note_on_c, 1, 65, 80
1, 470960, Note_on_c, 1, 65, 0
1, 470960, Note_on_c, 1, 68, 79
1, 471040, Note_on_c, 1, 68, 0
1, 471040, Note_on_c, 1, 65, 79
1, 471120, Note_on_c, 0, 83, 0
1, 471120, Note_on_c, 0, 81, 79
1, 471120, Note_on_c, 1, 65, 0
1, 471120, Note_on_c, 1, 66, 78
1, 471200, Note_on_c, 1, 66, 0
1, 471200, Note_on_c, 1, 69, 78
1, 471280, Note_on_c, 1, 69, 0
1, 471280, Note_on_c, 1, 66, 78
1, 471360, Note_on_c, 0, 73, 0
1, 471360, Note_on_c, 0, 71, 77
1, 471360, Note_on_c, 1, 66, 0
1, 471360, Note_on_c, 1, 63, 77
1, 471440, Note_on_c, 1, 63, 0
1, 471440, Note_on_c, 1, 66, 77
1, 471520, Note_on_c, 1, 66, 0
1, 471520, Note_on_c, 1, 63, 76
1, 471600, Note_on_c, 0, 81, 0
1, 471600, Note_on_c, 0, 80, 76
1, 471600, Note_on_c, 1, 63, 0
1, 471600, Note_on_c, 1, 62, 76
1, 471680, Note_on_c, 1, 62, 0
1, 471680, Note_on_c, 1, 64, 75
1, 471760, Note_on_c, 1, 64, 0
1, 471760, Note_on_c, 1, 62, 75
1, 471840, Note_on_c, 0, 80, 0
1, 471840, Note_on_c, 0, 71, 0
1, 471840, Note_on_c, 0, 81, 75
1, 471840, Note_on_c, 1, 62, 0
1, 471840, Note_on_c, 1, 61, 74
1, 471920, Note_on_c, 0, 81, 0
1, 471920, Note_on_c, 0, 85, 75
1, 472000, Note_on_c, 0, 85, 0
1, 472000, Note_on_c, 0, 76, 75
1, 472030, Note_on_c, 1, 61, 0
1, 472080, Note_on_c, 0, 76, 0
1, 472080, Note_on_c, 0, 78, 74
1, 472080, Note_on_c, 1, 62, 73
1, 472160, Note_on_c, 0, 78, 0
1, 472160, Note_on_c, 0, 81, 74
1, 472240, Note_on_c, 0, 81, 0
1, 472240, Note_on_c, 0, 74, 73
1, 472270, Note_on_c, 1, 62, 0
1, 472320, Note_on_c, 0, 74, 0
1, 472320, Note_on_c, 0, 73, 73
1, 472320, Note_on_c, 1, 64, 72
1, 472400, Note_on_c, 0, 73, 0
1, 472400, Note_on_c, 0, 76, 73
1, 472480, Note_on_c, 0, 76, 0
1, 472480, Note_on_c, 0, 69, 72
1, 472510, Note_on_c, 1, 64, 0
1, 472560, Note_on_c, 0, 69, 0
1, 472560, Note_on_c, 0, 71, 72
1, 472560, Note_on_c, 1, 52, 70
1, 472640, Note_on_c, 0, 71, 0
1, 472640, Note_on_c, 0, 74, 72
1, 472720, Note_on_c, 0, 74, 0
1, 472720, Note_on_c, 0, 68, 71
1, 472750, Note_on_c, 1, 52, 0
1, 472800, Note_on_c, 0, 68, 0
1, 472800, Note_on_c, 0, 69, 71
1, 472800, Note_on_c, 1, 57, 69
1, 472990, Note_on_c, 1, 57, 0
1, 473040, Note_on_c, 0, 69, 0
1, 473280, Note_on_c, 0, 85, 77
1, 473280, Note_on_c, 1, 76, 75
1, 473280, Note_on_c, 1, 69, 75
1, 473520, Note_on_c, 0, 85, 0
1, 473520, Note_on_c, 0, 83, 76
1, 473520, Note_on_c, 1, 69, 0
1, 473520, Note_on_c, 1, 76, 0
1, 473520, Note_on_c, 1, 77, 74
1, 473520, Note_on_c, 1, 68, 74
1, 473760, Note_on_c, 0, 83, 0
1, 473760, Note_on_c, 0, 81, 75
1, 473760, Note_on_c, 1, 68, 0
1, 473760, Note_on_c, 1, 77, 0
1, 473760, Note_on_c, 1, 78, 74
1, 473760, Note_on_c, 1, 66, 73
1, 474000, Note_on_c, 0, 81, 0
1, 474000, Note_on_c, 0, 80, 73
1, 474000, Note_on_c, 1, 66, 0
1, 474000, Note_on_c, 1, 78, 0
1, 474000, Note_on_c, 1, 73, 73
1, 474000, Note_on_c, 1, 64, 73
1, 474240, Note_on_c, 0, 80, 0
1, 474240, Note_on_c, 0, 78, 72
1, 474240, Note_on_c, 1, 64, 0
1, 474240, Note_on_c, 1, 73, 0
1, 474240, Note_on_c, 1, 74, 72
1, 474240, Note_on_c, 1, 62, 72
1, 474480, Note_on_c, 0, 78, 0
1, 474480, Note_on_c, 0, 76, 71
1, 474480, Note_on_c, 1, 62, 0
1, 474480, Note_on_c, 1, 74, 0
1, 474480, Note_on_c, 1, 69, 72
1, 474480, Note_on_c, 1, 61, 71
1, 474720, Note_on_c, 0, 76, 0
1, 474720, Note_on_c, 0, 76, 70
1, 474720, Note_on_c, 1, 61, 0
1, 474720, Note_on_c, 1, 69, 0
1, 474720, Note_on_c, 1, 68, 71
1, 474720, Note_on_c, 1, 59, 71
1, 474840, Note_on_c, 0, 76, 0
1, 474840, Note_on_c, 0, 74, 69
1, 474960, Note_on_c, 0, 74, 0
1, 474960, Note_on_c, 0, 73, 68
1, 474960, Note_on_c, 1, 59, 0
1, 474960, Note_on_c, 1, 68, 0
1, 474960, Note_on_c, 1, 69, 70
1, 474960, Note_on_c, 1, 57, 70
1, 475200, Note_on_c, 0, 73, 0
1, 475200, Note_on_c, 0, 76, 67
1, 475200, Note_on_c, 1, 57, 0
1, 475200, Note_on_c, 1, 69, 0
1, 475440, Note_on_c, 1, 64, 68
1, 475440, Note_on_c, 1, 61, 68
1, 475630, Note_on_c, 1, 61, 0
1, 475630, Note_on_c, 1, 64, 0
1, 475680, Note_on_c, 1, 69, 68
1, 475680, Note_on_c, 1, 66, 68
1, 475800, Note_on_c, 0, 76, 0
1, 475800, Note_on_c, 0, 74, 64
1, 475920, Note_on_c, 1, 66, 0
1, 475920, Note_on_c, 1, 69, 0
1, 475920, Note_on_c, 1, 64, 67
1, 475920, Note_on_c, 1, 68, 67
1, 476040, Note_on_c, 0, 74, 0
1, 476040, Note_on_c, 0, 73, 63
1, 476160, Note_on_c, 1, 68, 0
1, 476160, Note_on_c, 1, 64, 0
1, 476160, Note_on_c, 1, 66, 66
1, 476160, Note_on_c, 1, 62, 66
1, 476280, Note_on_c, 0, 73, 0
1, 476280, Note_on_c, 0, 71, 61
1, 476400, Note_on_c, 1, 62, 0
1, 476400, Note_on_c, 1, 66, 0
1, 476400, Note_on_c, 1, 63, 66
1, 476400, Note_on_c, 1, 66, 66
1, 476520, Note_on_c, 0, 71, 0
1, 476520, Note_on_c, 0, 69, 60
1, 476640, Note_on_c, 0, 69, 0
1, 476640, Note_on_c, 0, 73, 59
1, 476640, Note_on_c, 1, 66, 0
1, 476640, Note_on_c, 1, 63, 0
1, 476640, Note_on_c, 1, 69, 66
1, 476640, Note_on_c, 1, 64, 65
1, 476880, Note_on_c, 0, 73, 0
1, 476880, Note_on_c, 0, 71, 56
1, 476880, Note_on_c, 1, 69, 0
1, 476880, Note_on_c, 1, 68, 65
1, 477120, Note_on_c, 0, 71, 0
1, 477120, Note_on_c, 0, 85, 73
1, 477120, Note_on_c, 1, 68, 0
1, 477120, Note_on_c, 1, 64, 0
1, 477120, Note_on_c, 1, 69, 73
1, 477120, Note_on_c, 1, 76, 73
1, 477200, Note_on_c, 0, 85, 0
1, 477200, Note_on_c, 0, 86, 73
1, 477280, Note_on_c, 0, 86, 0
1, 477280, Note_on_c, 0, 85, 72
1, 477360, Note_on_c, 0, 85, 0
1, 477360, Note_on_c, 0, 83, 72
1, 477360, Note_on_c, 1, 69, 0
1, 477360, Note_on_c, 1, 68, 72
1, 477440, Note_on_c, 0, 83, 0
1, 477440, Note_on_c, 0, 87, 72
1, 477520, Note_on_c, 0, 87, 0
1, 477520, Note_on_c, 0, 88, 71
1, 477600, Note_on_c, 0, 88, 0
1, 477600, Note_on_c, 0, 81, 71
1, 477600, Note_on_c, 1, 68, 0
1, 477600, Note_on_c, 1, 76, 0
1, 477600, Note_on_c, 1, 66, 71
1, 477600, Note_on_c, 1, 73, 71
1, 477680, Note_on_c, 0, 81, 0
1, 477680, Note_on_c, 0, 83, 71
1, 477760, Note_on_c, 0, 83, 0
1, 477760, Note_on_c, 0, 81, 70
1, 477840, Note_on_c, 0, 81, 0
1, 477840, Note_on_c, 0, 80, 70
1, 477840, Note_on_c, 1, 66, 0
1, 477840, Note_on_c, 1, 64, 69
1, 477920, Note_on_c, 0, 80, 0
1, 477920, Note_on_c, 0, 84, 69
1, 478000, Note_on_c, 0, 84, 0
1, 478000, Note_on_c, 0, 85, 69
1, 478080, Note_on_c, 0, 85, 0
1, 478080, Note_on_c, 0, 78, 69
1, 478080, Note_on_c, 1, 64, 0
1, 478080, Note_on_c, 1, 73, 0
1, 478080, Note_on_c, 1, 62, 68
1, 478080, Note_on_c, 1, 69, 68
1, 478160, Note_on_c, 0, 78, 0
1, 478160, Note_on_c, 0, 79, 68
1, 478240, Note_on_c, 0, 79, 0
1, 478240, Note_on_c, 0, 78, 68
1, 478320, Note_on_c, 0, 78, 0
1, 478320, Note_on_c, 0, 76, 68
1, 478320, Note_on_c, 1, 62, 0
1, 478320, Note_on_c, 1, 61, 67
1, 478400, Note_on_c, 0, 76, 0
1, 478400, Note_on_c, 0, 80, 67
1, 478480, Note_on_c, 0, 80, 0
1, 478480, Note_on_c, 0, 81, 67
1, 478560, Note_on_c, 0, 81, 0
1, 478560, Note_on_c, 0, 76, 67
1, 478560, Note_on_c, 1, 61, 0
1, 478560, Note_on_c, 1, 69, 0
1, 478560, Note_on_c, 1, 68, 66
1, 478560, Note_on_c, 1, 59, 66
1, 478680, Note_on_c, 0, 76, 0
1, 478680, Note_on_c, 0, 74, 67
1, 478800, Note_on_c, 0, 74, 0
1, 478800, Note_on_c, 0, 73, 67
1, 478800, Note_on_c, 1, 59, 0
1, 478800, Note_on_c, 1, 68, 0
1, 478800, Note_on_c, 1, 69, 65
1, 478800, Note_on_c, 1, 57, 65
1, 479040, Note_on_c, 0, 73, 0
1, 479040, Note_on_c, 0, 76, 65
1, 479040, Note_on_c, 1, 57, 0
1, 479040, Note_on_c, 1, 69, 0
1, 479280, Note_on_c, 1, 49, 63
1, 479280, Note_on_c, 1, 57, 63
1, 479520, Note_on_c, 1, 49, 0
1, 479520, Note_on_c, 1, 50, 61
1, 479640, Note_on_c, 0, 78, 62
1, 479645, Note_on_c, 0, 76, 0
1, 479760, Note_on_c, 0, 78, 0
1, 479760, Note_on_c, 0, 74, 61
1, 479760, Note_on_c, 1, 57, 0
1, 479760, Note_on_c, 1, 62, 60
1, 479880, Note_on_c, 0, 74, 0
1, 479880, Note_on_c, 0, 71, 60
1, 480000, Note_on_c, 0, 71, 0
1, 480000, Note_on_c, 0, 69, 60
1, 480000, Note_on_c, 1, 62, 0
1, 480000, Note_on_c, 1, 50, 0
1, 480000, Note_on_c, 1, 52, 59
1, 480000, Note_on_c, 1, 61, 59
1, 480240, Note_on_c, 0, 69, 0
1, 480240, Note_on_c, 0, 73, 58
1, 480240, Note_on_c, 1, 61, 0
1, 480240, Note_on_c, 1, 56, 58
1, 480360, Note_on_c, 0, 73, 0
1, 480360, Note_on_c, 0, 71, 57
1, 480480, Note_on_c, 0, 71, 0
1, 480480, Note_on_c, 0, 69, 57
1, 480480, Note_on_c, 1, 56, 0
1, 480480, Note_on_c, 1, 52, 0
1, 480480, Note_on_c, 1, 45, 76
1, 480560, Note_on_c, 1, 45, 0
1, 480560, Note_on_c, 1, 49, 76
1, 480640, Note_on_c, 1, 49, 0
1, 480640, Note_on_c, 1, 52, 76
1, 480720, Note_on_c, 0, 69, 0
1, 480720, Note_on_c, 1, 52, 0
1, 480720, Note_on_c, 1, 57, 77
1, 480800, Note_on_c, 1, 57, 0
1, 480800, Note_on_c, 1, 61, 77
1, 480880, Note_on_c, 1, 61, 0
1, 480880, Note_on_c, 1, 64, 77
1, 480960, Note_on_c, 0, 81, 76
1, 480960, Note_on_c, 1, 64, 0
1, 480960, Note_on_c, 1, 69, 78
1, 481040, Note_on_c, 0, 81, 0
1, 481040, Note_on_c, 0, 76, 77
1, 481120, Note_on_c, 0, 76, 0
1, 481120, Note_on_c, 0, 73, 77
1, 481200, Note_on_c, 0, 73, 0
1, 481200, Note_on_c, 0, 69, 78
1, 481200, Note_on_c, 1, 69, 0
1, 481280, Note_on_c, 0, 69, 0
1, 481280, Note_on_c, 0, 64, 78
1, 481360, Note_on_c, 0, 64, 0
1, 481360, Note_on_c, 0, 61, 78
1, 481440, Note_on_c, 0, 61, 0
1, 481440, Note_on_c, 0, 59, 79
1, 481440, Note_on_c, 1, 45, 80
1, 481520, Note_on_c, 1, 45, 0
1, 481520, Note_on_c, 1, 50, 80
1, 481600, Note_on_c, 1, 50, 0
1, 481600, Note_on_c, 1, 56, 81
1, 481680, Note_on_c, 0, 59, 0
1, 481680, Note_on_c, 1, 56, 0
1, 481680, Note_on_c, 1, 59, 81
1, 481760, Note_on_c, 1, 59, 0
1, 481760, Note_on_c, 1, 62, 81
1, 481840, Note_on_c, 1, 62, 0
1, 481840, Note_on_c, 1, 64, 82
1, 481920, Note_on_c, 0, 83, 81
1, 481920, Note_on_c, 1, 64, 0
1, 481920, Note_on_c, 1, 68, 82
1, 482000, Note_on_c, 0, 83, 0
1, 482000, Note_on_c, 0, 80, 82
1, 482080, Note_on_c, 0, 80, 0
1, 482080, Note_on_c, 0, 74, 82
1, 482160, Note_on_c, 0, 74, 0
1, 482160, Note_on_c, 0, 71, 83
1, 482160, Note_on_c, 1, 68, 0
1, 482240, Note_on_c, 0, 71, 0
1, 482240, Note_on_c, 0, 68, 83
1, 482320, Note_on_c, 0, 68, 0
1, 482320, Note_on_c, 0, 62, 83
1, 482400, Note_on_c, 0, 62, 0
1, 482400, Note_on_c, 0, 61, 84
1, 482400, Note_on_c, 1, 45, 84
1, 482480, Note_on_c, 1, 45, 0
1, 482480, Note_on_c, 1, 49, 84
1, 482560, Note_on_c, 1, 49, 0
1, 482560, Note_on_c, 1, 52, 85
1, 482640, Note_on_c, 0, 61, 0
1, 482640, Note_on_c, 1, 52, 0
1, 482640, Note_on_c, 1, 57, 85
1, 482720, Note_on_c, 1, 57, 0
1, 482720, Note_on_c, 1, 61, 85
1, 482800, Note_on_c, 1, 61, 0
1, 482800, Note_on_c, 1, 64, 86
1, 482880, Note_on_c, 0, 85, 86
1, 482880, Note_on_c, 1, 64, 0
1, 482880, Note_on_c, 1, 67, 86
1, 482960, Note_on_c, 0, 85, 0
1, 482960, Note_on_c, 0, 81, 87
1, 483040, Note_on_c, 0, 81, 0
1, 483040, Note_on_c, 0, 76, 87
1, 483120, Note_on_c, 0, 76, 0
1, 483120, Note_on_c, 0, 73, 88
1, 483120, Note_on_c, 1, 67, 0
1, 483200, Note_on_c, 0, 73, 0
1, 483200, Note_on_c, 0, 69, 88
1, 483280, Note_on_c, 0, 69, 0
1, 483280, Note_on_c, 0, 64, 89
1, 483360, Note_on_c, 0, 64, 0
1, 483360, Note_on_c, 0, 62, 89
1, 483360, Note_on_c, 1, 45, 88
1, 483440, Note_on_c, 1, 45, 0
1, 483440, Note_on_c, 1, 50, 89
1, 483520, Note_on_c, 1, 50, 0
1, 483520, Note_on_c, 1, 54, 89
1, 483600, Note_on_c, 0, 62, 0
1, 483600, Note_on_c, 1, 54, 0
1, 483600, Note_on_c, 1, 57, 89
1, 483680, Note_on_c, 1, 57, 0
1, 483680, Note_on_c, 1, 62, 90
1, 483760, Note_on_c, 1, 62, 0
1, 483760, Note_on_c, 1, 66, 90
1, 483840, Note_on_c, 0, 86, 92
1, 483840, Note_on_c, 1, 66, 0
1, 483840, Note_on_c, 1, 69, 90
1, 483920, Note_on_c, 0, 86, 0
1, 483920, Note_on_c, 0, 81, 92
1, 484000, Note_on_c, 0, 81, 0
1, 484000, Note_on_c, 0, 78, 92
1, 484080, Note_on_c, 0, 78, 0
1, 484080, Note_on_c, 0, 74, 93
1, 484080, Note_on_c, 1, 69, 0
1, 484160, Note_on_c, 0, 74, 0
1, 484160, Note_on_c, 0, 69, 93
1, 484240, Note_on_c, 0, 69, 0
1, 484240, Note_on_c, 0, 66, 94
1, 484320, Note_on_c, 0, 66, 0
1, 484320, Note_on_c, 0, 64, 94
1, 484320, Note_on_c, 1, 45, 92
1, 484400, Note_on_c, 1, 45, 0
1, 484400, Note_on_c, 1, 49, 93
1, 484480, Note_on_c, 1, 49, 0
1, 484480, Note_on_c, 1, 52, 93
1, 484560, Note_on_c, 0, 64, 0
1, 484560, Note_on_c, 1, 52, 0
1, 484560, Note_on_c, 1, 57, 93
1, 484640, Note_on_c, 1, 57, 0
1, 484640, Note_on_c, 1, 61, 94
1, 484720, Note_on_c, 1, 61, 0
1, 484720, Note_on_c, 1, 64, 94
1, 484800, Note_on_c, 1, 64, 0
1, 484800, Note_on_c, 1, 67, 94
1, 484880, Note_on_c, 0, 69, 98
1, 484960, Note_on_c, 0, 69, 0
1, 484960, Note_on_c, 0, 73, 99
1, 485040, Note_on_c, 0, 73, 0
1, 485040, Note_on_c, 0, 76, 101
1, 485040, Note_on_c, 1, 67, 0
1, 485120, Note_on_c, 0, 76, 0
1, 485120, Note_on_c, 0, 79, 102
1, 485200, Note_on_c, 0, 79, 0
1, 485200, Note_on_c, 0, 85, 104
1, 485280, Note_on_c, 0, 85, 0
1, 485280, Note_on_c, 0, 88, 105
1, 485360, Note_on_c, 0, 88, 0
1, 485360, Note_on_c, 0, 79, 103
1, 485440, Note_on_c, 0, 79, 0
1, 485440, Note_on_c, 0, 88, 101
1, 485520, Note_on_c, 0, 88, 0
1, 485520, Note_on_c, 0, 86, 99
1, 485600, Note_on_c, 0, 86, 0
1, 485600, Note_on_c, 0, 78, 97
1, 485680, Note_on_c, 0, 78, 0
1, 485680, Note_on_c, 0, 86, 95
1, 485760, Note_on_c, 0, 86, 0
1, 485760, Note_on_c, 0, 85, 93
1, 485840, Note_on_c, 0, 85, 0
1, 485840, Note_on_c, 0, 76, 91
1, 485920, Note_on_c, 0, 76, 0
1, 485920, Note_on_c, 0, 85, 89
1, 486000, Note_on_c, 0, 85, 0
1, 486000, Note_on_c, 0, 83, 87
1, 486080, Note_on_c, 0, 83, 0
1, 486080, Note_on_c, 0, 79, 85
1, 486160, Note_on_c, 0, 79, 0
1, 486160, Note_on_c, 0, 83, 83
1, 486240, Note_on_c, 0, 83, 0
1, 486240, Note_on_c, 0, 81, 81
1, 486320, Note_on_c, 0, 81, 0
1, 486320, Note_on_c, 0, 78, 79
1, 486400, Note_on_c, 0, 78, 0
1, 486400, Note_on_c, 0, 81, 77
1, 486480, Note_on_c, 0, 81, 0
1, 486480, Note_on_c, 0, 79, 76
1, 486560, Note_on_c, 0, 79, 0
1, 486560, Note_on_c, 0, 76, 74
1, 486640, Note_on_c, 0, 76, 0
1, 486640, Note_on_c, 0, 79, 72
1, 486720, Note_on_c, 0, 79, 0
1, 486720, Note_on_c, 0, 78, 70
1, 486800, Note_on_c, 0, 78, 0
1, 486800, Note_on_c, 0, 74, 68
1, 486880, Note_on_c, 0, 74, 0
1, 486880, Note_on_c, 0, 78, 66
1, 486960, Note_on_c, 0, 78, 0
1, 486960, Note_on_c, 0, 76, 64
1, 487040, Note_on_c, 0, 76, 0
1, 487040, Note_on_c, 0, 73, 62
1, 487120, Note_on_c, 0, 73, 0
1, 487120, Note_on_c, 0, 76, 60
1, 487200, Note_on_c, 0, 76, 0
1, 487200, Note_on_c, 0, 74, 59
1, 487440, Note_on_c, 1, 69, 55
1, 487440, Note_on_c, 1, 66, 55
1, 487560, Note_on_c, 0, 74, 0
1, 487560, Note_on_c, 0, 76, 59
1, 487620, Note_on_c, 0, 76, 0
1, 487620, Note_on_c, 0, 74, 58
1, 487630, Note_on_c, 1, 66, 0
1, 487630, Note_on_c, 1, 69, 0
1, 487680, Note_on_c, 0, 74, 0
1, 487680, Note_on_c, 0, 73, 58
1, 487680, Note_on_c, 1, 66, 52
1, 487680, Note_on_c, 1, 69, 52
1, 487835, Note_on_c, 0, 73, 0
1, 487870, Note_on_c, 1, 69, 0
1, 487870, Note_on_c, 1, 66, 0
1, 487920, Note_on_c, 0, 74, 58
1, 487920, Note_on_c, 1, 69, 49
1, 487920, Note_on_c, 1, 66, 49
1, 488075, Note_on_c, 0, 74, 0
1, 488110, Note_on_c, 1, 66, 0
1, 488110, Note_on_c, 1, 69, 0
1, 488160, Note_on_c, 0, 75, 57
1, 488400, Note_on_c, 0, 75, 0
1, 488400, Note_on_c, 0, 76, 55
1, 488400, Note_on_c, 1, 67, 55
1, 488400, Note_on_c, 1, 71, 55
1, 488555, Note_on_c, 0, 76, 0
1, 488590, Note_on_c, 1, 71, 0
1, 488590, Note_on_c, 1, 67, 0
1, 488640, Note_on_c, 0, 76, 52
1, 488640, Note_on_c, 1, 67, 53
1, 488640, Note_on_c, 1, 71, 53
1, 488830, Note_on_c, 1, 71, 0
1, 488830, Note_on_c, 1, 67, 0
1, 488880, Note_on_c, 0, 76, 0
1, 488880, Note_on_c, 1, 67, 52
1, 488880, Note_on_c, 1, 71, 52
1, 489070, Note_on_c, 1, 71, 0
1, 489070, Note_on_c, 1, 67, 0
1, 489120, Note_on_c, 0, 76, 61
1, 489360, Note_on_c, 1, 61, 57
1, 489360, Note_on_c, 1, 69, 57
1, 489480, Note_on_c, 0, 76, 0
1, 489480, Note_on_c, 0, 78, 60
1, 489540, Note_on_c, 0, 78, 0
1, 489540, Note_on_c, 0, 76, 60
1, 489550, Note_on_c, 1, 69, 0
1, 489550, Note_on_c, 1, 61, 0
1, 489600, Note_on_c, 0, 76, 0
1, 489600, Note_on_c, 0, 74, 60
1, 489600, Note_on_c, 1, 61, 56
1, 489600, Note_on_c, 1, 69, 56
1, 489755, Note_on_c, 0, 74, 0
1, 489790, Note_on_c, 1, 69, 0
1, 489790, Note_on_c, 1, 61, 0
1, 489840, Note_on_c, 0, 76, 60
1, 489840, Note_on_c, 1, 61, 54
1, 489840, Note_on_c, 1, 69, 54
1, 489995, Note_on_c, 0, 76, 0
1, 490030, Note_on_c, 1, 69, 0
1, 490030, Note_on_c, 1, 61, 0
1, 490080, Note_on_c, 0, 77, 59
1, 490320, Note_on_c, 0, 77, 0
1, 490320, Note_on_c, 0, 78, 57
1, 490320, Note_on_c, 1, 62, 59
1, 490320, Note_on_c, 1, 69, 59
1, 490475, Note_on_c, 0, 78, 0
1, 490510, Note_on_c, 1, 69, 0
1, 490510, Note_on_c, 1, 62, 0
1, 490560, Note_on_c, 0, 78, 55
1, 490560, Note_on_c, 1, 62, 57
1, 490560, Note_on_c, 1, 69, 57
1, 490750, Note_on_c, 1, 69, 0
1, 490750, Note_on_c, 1, 62, 0
1, 490800, Note_on_c, 0, 78, 0
1, 490800, Note_on_c, 1, 62, 56
1, 490800, Note_on_c, 1, 69, 56
1, 490990, Note_on_c, 1, 69, 0
1, 490990, Note_on_c, 1, 62, 0
1, 491040, Note_on_c, 0, 81, 67
1, 491040, Note_on_c, 1, 66, 61
1, 491040, Note_on_c, 1, 69, 61
1, 491220, Note_on_c, 0, 81, 0
1, 491220, Note_on_c, 0, 83, 66
1, 491280, Note_on_c, 0, 83, 0
1, 491280, Note_on_c, 0, 79, 65
1, 491280, Note_on_c, 1, 66, 0
1, 491280, Note_on_c, 1, 64, 60
1, 491460, Note_on_c, 0, 79, 0
1, 491460, Note_on_c, 0, 81, 64
1, 491520, Note_on_c, 0, 81, 0
1, 491520, Note_on_c, 0, 78, 64
1, 491520, Note_on_c, 1, 64, 0
1, 491520, Note_on_c, 1, 62, 59
1, 491675, Note_on_c, 0, 78, 0
1, 491760, Note_on_c, 0, 74, 61
1, 491760, Note_on_c, 1, 62, 0
1, 491760, Note_on_c, 1, 69, 0
1, 491915, Note_on_c, 0, 74, 0
1, 492000, Note_on_c, 0, 79, 65
1, 492000, Note_on_c, 1, 69, 59
1, 492000, Note_on_c, 1, 64, 59
1, 492180, Note_on_c, 0, 79, 0
1, 492180, Note_on_c, 0, 81, 64
1, 492240, Note_on_c, 0, 81, 0
1, 492240, Note_on_c, 0, 78, 63
1, 492240, Note_on_c, 1, 64, 0
1, 492240, Note_on_c, 1, 66, 56
1, 492420, Note_on_c, 0, 78, 0
1, 492420, Note_on_c, 0, 79, 62
1, 492480, Note_on_c, 0, 79, 0
1, 492480, Note_on_c, 0, 76, 62
1, 492480, Note_on_c, 1, 66, 0
1, 492480, Note_on_c, 1, 67, 54
1, 492635, Note_on_c, 0, 76, 0
1, 492720, Note_on_c, 0, 73, 60
1, 492720, Note_on_c, 1, 67, 0
1, 492720, Note_on_c, 1, 69, 0
1, 492875, Note_on_c, 0, 73, 0
1, 492960, Note_on_c, 0, 74, 59
1, 492960, Note_on_c, 1, 66, 54
1, 492960, Note_on_c, 1, 69, 54
1, 493115, Note_on_c, 0, 74, 0
1, 493200, Note_on_c, 0, 74, 58
1, 493200, Note_on_c, 1, 69, 0
1, 493200, Note_on_c, 1, 66, 0
1, 493355, Note_on_c, 0, 74, 0
1, 493440, Note_on_c, 0, 73, 58
1, 493440, Note_on_c, 1, 69, 52
1, 493440, Note_on_c, 1, 64, 52
1, 493595, Note_on_c, 0, 73, 0
1, 493680, Note_on_c, 0, 73, 57
1, 493680, Note_on_c, 1, 64, 0
1, 493680, Note_on_c, 1, 69, 0
1, 493835, Note_on_c, 0, 73, 0
1, 493920, Note_on_c, 0, 71, 56
1, 493920, Note_on_c, 1, 52, 50
1, 493920, Note_on_c, 1, 62, 50
1, 493960, Note_on_c, 0, 71, 0
1, 493960, Note_on_c, 0, 73, 56
1, 494000, Note_on_c, 0, 73, 0
1, 494000, Note_on_c, 0, 71, 56
1, 494100, Note_on_c, 0, 69, 55
1, 494105, Note_on_c, 0, 71, 0
1, 494160, Note_on_c, 0, 69, 0
1, 494160, Note_on_c, 0, 71, 54
1, 494340, Note_on_c, 0, 71, 0
1, 494340, Note_on_c, 0, 73, 52
1, 494400, Note_on_c, 0, 73, 0
1, 494400, Note_on_c, 0, 69, 51
1, 494400, Note_on_c, 1, 62, 0
1, 494400, Note_on_c, 1, 52, 0
1, 494400, Note_on_c, 1, 57, 48
1, 494400, Note_on_c, 1, 61, 48
1, 494640, Note_on_c, 0, 69, 0
1, 494640, Note_on_c, 1, 61, 0
1, 494640, Note_on_c, 1, 57, 0
1, 494880, Note_on_c, 0, 74, 69
1, 494880, Note_on_c, 1, 62, 64
1, 494960, Note_on_c, 1, 62, 0
1, 494960, Note_on_c, 1, 64, 64
1, 495040, Note_on_c, 1, 64, 0
1, 495040, Note_on_c, 1, 66, 65
1, 495120, Note_on_c, 1, 66, 0
1, 495120, Note_on_c, 1, 64, 65
1, 495200, Note_on_c, 1, 64, 0
1, 495200, Note_on_c, 1, 62, 65
1, 495240, Note_on_c, 0, 74, 0
1, 495240, Note_on_c, 0, 76, 68
1, 495280, Note_on_c, 1, 62, 0
1, 495280, Note_on_c, 1, 61, 66
1, 495300, Note_on_c, 0, 76, 0
1, 495300, Note_on_c, 0, 74, 68
1, 495360, Note_on_c, 0, 74, 0
1, 495360, Note_on_c, 0, 73, 68
1, 495360, Note_on_c, 1, 61, 0
1, 495360, Note_on_c, 1, 59, 66
1, 495440, Note_on_c, 1, 59, 0
1, 495440, Note_on_c, 1, 61, 66
1, 495515, Note_on_c, 0, 73, 0
1, 495520, Note_on_c, 1, 61, 0
1, 495520, Note_on_c, 1, 62, 66
1, 495600, Note_on_c, 0, 74, 68
1, 495600, Note_on_c, 1, 62, 0
1, 495600, Note_on_c, 1, 61, 67
1, 495680, Note_on_c, 1, 61, 0
1, 495680, Note_on_c, 1, 59, 67
1, 495755, Note_on_c, 0, 74, 0
1, 495760, Note_on_c, 1, 59, 0
1, 495760, Note_on_c, 1, 57, 67
1, 495840, Note_on_c, 0, 75, 66
1, 495840, Note_on_c, 1, 57, 0
1, 495840, Note_on_c, 1, 55, 68
1, 495920, Note_on_c, 1, 55, 0
1, 495920, Note_on_c, 1, 57, 68
1, 496000, Note_on_c, 1, 57, 0
1, 496000, Note_on_c, 1, 59, 68
1, 496080, Note_on_c, 0, 75, 0
1, 496080, Note_on_c, 0, 76, 64
1, 496080, Note_on_c, 1, 59, 0
1, 496080, Note_on_c, 1, 57, 69
1, 496160, Note_on_c, 1, 57, 0
1, 496160, Note_on_c, 1, 55, 69
1, 496235, Note_on_c, 0, 76, 0
1, 496240, Note_on_c, 1, 55, 0
1, 496240, Note_on_c, 1, 54, 69
1, 496320, Note_on_c, 0, 76, 61
1, 496320, Note_on_c, 1, 54, 0
1, 496320, Note_on_c, 1, 52, 70
1, 496400, Note_on_c, 1, 52, 0
1, 496400, Note_on_c, 1, 54, 70
1, 496480, Note_on_c, 1, 54, 0
1, 496480, Note_on_c, 1, 55, 70
1, 496560, Note_on_c, 0, 76, 0
1, 496560, Note_on_c, 1, 55, 0
1, 496560, Note_on_c, 1, 54, 70
1, 496640, Note_on_c, 1, 54, 0
1, 496640, Note_on_c, 1, 52, 71
1, 496720, Note_on_c, 1, 52, 0
1, 496720, Note_on_c, 1, 50, 71
1, 496800, Note_on_c, 0, 76, 77
1, 496800, Note_on_c, 1, 50, 0
1, 496800, Note_on_c, 1, 49, 71
1, 496880, Note_on_c, 1, 49, 0
1, 496880, Note_on_c, 1, 50, 72
1, 496960, Note_on_c, 1, 50, 0
1, 496960, Note_on_c, 1, 52, 72
1, 497040, Note_on_c, 1, 52, 0
1, 497040, Note_on_c, 1, 50, 72
1, 497120, Note_on_c, 1, 50, 0
1, 497120, Note_on_c, 1, 49, 73
1, 497160, Note_on_c, 0, 76, 0
1, 497160, Note_on_c, 0, 78, 76
1, 497200, Note_on_c, 1, 49, 0
1, 497200, Note_on_c, 1, 47, 73
1, 497220, Note_on_c, 0, 78, 0
1, 497220, Note_on_c, 0, 76, 76
1, 497280, Note_on_c, 0, 76, 0
1, 497280, Note_on_c, 0, 74, 75
1, 497280, Note_on_c, 1, 47, 0
1, 497280, Note_on_c, 1, 45, 73
1, 497360, Note_on_c, 1, 45, 0
1, 497360, Note_on_c, 1, 47, 73
1, 497435, Note_on_c, 0, 74, 0
1, 497440, Note_on_c, 1, 47, 0
1, 497440, Note_on_c, 1, 45, 74
1, 497520, Note_on_c, 0, 76, 75
1, 497520, Note_on_c, 1, 45, 0
1, 497520, Note_on_c, 1, 43, 74
1, 497600, Note_on_c, 1, 43, 0
1, 497600, Note_on_c, 1, 42, 74
1, 497675, Note_on_c, 0, 76, 0
1, 497680, Note_on_c, 1, 42, 0
1, 497680, Note_on_c, 1, 40, 75
1, 497760, Note_on_c, 0, 77, 75
1, 497760, Note_on_c, 1, 40, 0
1, 497760, Note_on_c, 1, 38, 75
1, 497840, Note_on_c, 1, 38, 0
1, 497840, Note_on_c, 1, 42, 77
1, 497920, Note_on_c, 1, 42, 0
1, 497920, Note_on_c, 1, 43, 76
1, 498000, Note_on_c, 0, 77, 0
1, 498000, Note_on_c, 0, 78, 73
1, 498000, Note_on_c, 1, 43, 0
1, 498000, Note_on_c, 1, 45, 76
1, 498080, Note_on_c, 1, 45, 0
1, 498080, Note_on_c, 1, 47, 75
1, 498155, Note_on_c, 0, 78, 0
1, 498160, Note_on_c, 1, 47, 0
1, 498160, Note_on_c, 1, 49, 74
1, 498240, Note_on_c, 0, 78, 69
1, 498240, Note_on_c, 1, 49, 0
1, 498240, Note_on_c, 1, 50, 74
1, 498320, Note_on_c, 1, 50, 0
1, 498320, Note_on_c, 1, 52, 73
1, 498400, Note_on_c, 1, 52, 0
1, 498400, Note_on_c, 1, 54, 72
1, 498480, Note_on_c, 0, 78, 0
1, 498480, Note_on_c, 1, 54, 0
1, 498480, Note_on_c, 1, 55, 71
1, 498560, Note_on_c, 1, 55, 0
1, 498560, Note_on_c, 1, 57, 71
1, 498640, Note_on_c, 1, 57, 0
1, 498640, Note_on_c, 1, 59, 70
1, 498720, Note_on_c, 0, 62, 85
1, 498720, Note_on_c, 1, 59, 0
1, 498720, Note_on_c, 1, 60, 79
1, 498800, Note_on_c, 0, 62, 0
1, 498800, Note_on_c, 0, 66, 85
1, 498880, Note_on_c, 0, 66, 0
1, 498880, Note_on_c, 0, 69, 85
1, 498960, Note_on_c, 0, 69, 0
1, 498960, Note_on_c, 0, 74, 84
1, 499040, Note_on_c, 0, 74, 0
1, 499040, Note_on_c, 0, 76, 84
1, 499120, Note_on_c, 0, 76, 0
1, 499120, Note_on_c, 0, 78, 84
1, 499200, Note_on_c, 0, 78, 0
1, 499200, Note_on_c, 0, 79, 84
1, 499200, Note_on_c, 1, 60, 0
1, 499200, Note_on_c, 1, 59, 68
1, 499280, Note_on_c, 0, 79, 0
1, 499280, Note_on_c, 0, 78, 83
1, 499360, Note_on_c, 0, 78, 0
1, 499360, Note_on_c, 0, 79, 83
1, 499440, Note_on_c, 0, 79, 0
1, 499440, Note_on_c, 0, 83, 83
1, 499440, Note_on_c, 1, 59, 0
1, 499520, Note_on_c, 0, 83, 0
1, 499520, Note_on_c, 0, 79, 83
1, 499600, Note_on_c, 0, 79, 0
1, 499600, Note_on_c, 0, 74, 82
1, 499680, Note_on_c, 0, 74, 0
1, 499680, Note_on_c, 0, 69, 82
1, 499680, Note_on_c, 1, 55, 77
1, 499760, Note_on_c, 0, 69, 0
1, 499760, Note_on_c, 0, 73, 82
1, 499840, Note_on_c, 0, 73, 0
1, 499840, Note_on_c, 0, 76, 81
1, 499920, Note_on_c, 0, 76, 0
1, 499920, Note_on_c, 0, 81, 81
1, 500000, Note_on_c, 0, 81, 0
1, 500000, Note_on_c, 0, 83, 81
1, 500080, Note_on_c, 0, 83, 0
1, 500080, Note_on_c, 0, 85, 81
1, 500160, Note_on_c, 0, 85, 0
1, 500160, Note_on_c, 0, 86, 80
1, 500160, Note_on_c, 1, 55, 0
1, 500160, Note_on_c, 1, 54, 64
1, 500240, Note_on_c, 0, 86, 0
1, 500240, Note_on_c, 0, 85, 80
1, 500320, Note_on_c, 0, 85, 0
1, 500320, Note_on_c, 0, 83, 80
1, 500400, Note_on_c, 0, 83, 0
1, 500400, Note_on_c, 0, 81, 80
1, 500400, Note_on_c, 1, 54, 0
1, 500480, Note_on_c, 0, 81, 0
1, 500480, Note_on_c, 0, 79, 79
1, 500560, Note_on_c, 0, 79, 0
1, 500560, Note_on_c, 0, 78, 79
1, 500640, Note_on_c, 0, 78, 0
1, 500640, Note_on_c, 0, 75, 79
1, 500720, Note_on_c, 0, 75, 0
1, 500720, Note_on_c, 0, 76, 79
1, 500800, Note_on_c, 0, 76, 0
1, 500800, Note_on_c, 0, 79, 78
1, 500880, Note_on_c, 0, 79, 0
1, 500880, Note_on_c, 0, 83, 78
1, 500880, Note_on_c, 1, 55, 75
1, 500880, Note_on_c, 1, 67, 75
1, 500960, Note_on_c, 0, 83, 0
1, 500960, Note_on_c, 0, 79, 78
1, 501040, Note_on_c, 0, 79, 0
1, 501040, Note_on_c, 0, 76, 78
1, 501070, Note_on_c, 1, 67, 0
1, 501070, Note_on_c, 1, 55, 0
1, 501120, Note_on_c, 0, 76, 0
1, 501120, Note_on_c, 0, 81, 77
1, 501120, Note_on_c, 1, 57, 72
1, 501120, Note_on_c, 1, 66, 72
1, 501200, Note_on_c, 0, 81, 0
1, 501200, Note_on_c, 0, 78, 77
1, 501280, Note_on_c, 0, 78, 0
1, 501280, Note_on_c, 0, 74, 77
1, 501310, Note_on_c, 1, 66, 0
1, 501310, Note_on_c, 1, 57, 0
1, 501360, Note_on_c, 0, 74, 0
1, 501360, Note_on_c, 0, 79, 76
1, 501360, Note_on_c, 1, 57, 69
1, 501360, Note_on_c, 1, 64, 69
1, 501440, Note_on_c, 0, 79, 0
1, 501440, Note_on_c, 0, 76, 76
1, 501520, Note_on_c, 0, 76, 0
1, 501520, Note_on_c, 0, 73, 76
1, 501550, Note_on_c, 1, 64, 0
1, 501550, Note_on_c, 1, 57, 0
1, 501600, Note_on_c, 0, 73, 0
1, 501600, Note_on_c, 0, 74, 77
1, 501600, Note_on_c, 1, 50, 61
1, 501680, Note_on_c, 1, 50, 0
1, 501680, Note_on_c, 1, 54, 61
1, 501760, Note_on_c, 1, 54, 0
1, 501760, Note_on_c, 1, 57, 61
1, 501840, Note_on_c, 1, 57, 0
1, 501840, Note_on_c, 1, 62, 61
1, 501920, Note_on_c, 1, 62, 0
1, 501920, Note_on_c, 1, 57, 61
1, 502000, Note_on_c, 1, 57, 0
1, 502000, Note_on_c, 1, 54, 61
1, 502080, Note_on_c, 0, 74, 0
1, 502080, Note_on_c, 1, 54, 0
1, 502080, Note_on_c, 1, 50, 60
1, 502160, Note_on_c, 1, 50, 0
1, 502160, Note_on_c, 1, 54, 60
1, 502240, Note_on_c, 1, 54, 0
1, 502240, Note_on_c, 1, 57, 60
1, 502320, Note_on_c, 0, 86, 78
1, 502320, Note_on_c, 1, 57, 0
1, 502320, Note_on_c, 1, 62, 60
1, 502400, Note_on_c, 1, 62, 0
1, 502400, Note_on_c, 1, 57, 60
1, 502480, Note_on_c, 1, 57, 0
1, 502480, Note_on_c, 1, 54, 60
1, 502510, Note_on_c, 0, 86, 0
1, 502560, Note_on_c, 0, 85, 79
1, 502560, Note_on_c, 1, 54, 0
1, 502560, Note_on_c, 1, 50, 59
1, 502640, Note_on_c, 1, 50, 0
1, 502640, Note_on_c, 1, 52, 59
1, 502680, Note_on_c, 0, 85, 0
1, 502680, Note_on_c, 0, 81, 78
1, 502720, Note_on_c, 1, 52, 0
1, 502720, Note_on_c, 1, 55, 59
1, 502800, Note_on_c, 0, 81, 0
1, 502800, Note_on_c, 0, 79, 77
1, 502800, Note_on_c, 1, 55, 0
1, 502800, Note_on_c, 1, 61, 59
1, 502880, Note_on_c, 1, 61, 0
1, 502880, Note_on_c, 1, 55, 59
1, 502960, Note_on_c, 1, 55, 0
1, 502960, Note_on_c, 1, 52, 59
1, 503040, Note_on_c, 1, 52, 0
1, 503040, Note_on_c, 1, 50, 58
1, 503120, Note_on_c, 1, 50, 0
1, 503120, Note_on_c, 1, 52, 58
1, 503200, Note_on_c, 1, 52, 0
1, 503200, Note_on_c, 1, 55, 58
1, 503280, Note_on_c, 0, 79, 0
1, 503280, Note_on_c, 0, 76, 73
1, 503280, Note_on_c, 1, 55, 0
1, 503280, Note_on_c, 1, 61, 58
1, 503360, Note_on_c, 1, 61, 0
1, 503360, Note_on_c, 1, 55, 58
1, 503400, Note_on_c, 0, 76, 0
1, 503400, Note_on_c, 0, 73, 72
1, 503440, Note_on_c, 1, 55, 0
1, 503440, Note_on_c, 1, 52, 58
1, 503520, Note_on_c, 0, 73, 0
1, 503520, Note_on_c, 0, 74, 71
1, 503520, Note_on_c, 1, 52, 0
1, 503520, Note_on_c, 1, 50, 49
1, 503600, Note_on_c, 1, 50, 0
1, 503600, Note_on_c, 1, 54, 49
1, 503680, Note_on_c, 1, 54, 0
1, 503680, Note_on_c, 1, 57, 49
1, 503760, Note_on_c, 1, 57, 0
1, 503760, Note_on_c, 1, 62, 49
1, 503840, Note_on_c, 1, 62, 0
1, 503840, Note_on_c, 1, 57, 48
1, 503920, Note_on_c, 1, 57, 0
1, 503920, Note_on_c, 1, 54, 48
1, 504000, Note_on_c, 0, 74, 0
1, 504000, Note_on_c, 1, 54, 0
1, 504000, Note_on_c, 1, 50, 48
1, 504080, Note_on_c, 1, 50, 0
1, 504080, Note_on_c, 1, 54, 48
1, 504160, Note_on_c, 1, 54, 0
1, 504160, Note_on_c, 1, 57, 47
1, 504240, Note_on_c, 0, 86, 67
1, 504240, Note_on_c, 1, 57, 0
1, 504240, Note_on_c, 1, 62, 47
1, 504320, Note_on_c, 1, 62, 0
1, 504320, Note_on_c, 1, 57, 47
1, 504400, Note_on_c, 1, 57, 0
1, 504400, Note_on_c, 1, 54, 47
1, 504430, Note_on_c, 0, 86, 0
1, 504480, Note_on_c, 0, 85, 67
1, 504480, Note_on_c, 1, 54, 0
1, 504480, Note_on_c, 1, 50, 46
1, 504560, Note_on_c, 1, 50, 0
1, 504560, Note_on_c, 1, 52, 46
1, 504600, Note_on_c, 0, 85, 0
1, 504600, Note_on_c, 0, 81, 67
1, 504640, Note_on_c, 1, 52, 0
1, 504640, Note_on_c, 1, 55, 46
1, 504720, Note_on_c, 0, 81, 0
1, 504720, Note_on_c, 0, 79, 66
1, 504720, Note_on_c, 1, 55, 0
1, 504720, Note_on_c, 1, 61, 46
1, 504800, Note_on_c, 1, 61, 0
1, 504800, Note_on_c, 1, 55, 45
1, 504880, Note_on_c, 1, 55, 0
1, 504880, Note_on_c, 1, 52, 45
1, 504960, Note_on_c, 1, 52, 0
1, 504960, Note_on_c, 1, 50, 45
1, 505040, Note_on_c, 1, 50, 0
1, 505040, Note_on_c, 1, 52, 45
1, 505120, Note_on_c, 1, 52, 0
1, 505120, Note_on_c, 1, 55, 44
1, 505200, Note_on_c, 0, 79, 0
1, 505200, Note_on_c, 0, 76, 63
1, 505200, Note_on_c, 1, 55, 0
1, 505200, Note_on_c, 1, 61, 44
1, 505280, Note_on_c, 1, 61, 0
1, 505280, Note_on_c, 1, 55, 44
1, 505320, Note_on_c, 0, 76, 0
1, 505320, Note_on_c, 0, 73, 62
1, 505360, Note_on_c, 1, 55, 0
1, 505360, Note_on_c, 1, 52, 44
1, 505440, Note_on_c, 0, 73, 0
1, 505440, Note_on_c, 0, 74, 62
1, 505440, Note_on_c, 1, 52, 0
1, 505440, Note_on_c, 1, 50, 60
1, 505520, Note_on_c, 0, 74, 0
1, 505520, Note_on_c, 0, 69, 62
1, 505600, Note_on_c, 0, 69, 0
1, 505600, Note_on_c, 0, 77, 63
1, 505680, Note_on_c, 0, 77, 0
1, 505680, Note_on_c, 0, 76, 63
1, 505760, Note_on_c, 0, 76, 0
1, 505760, Note_on_c, 0, 73, 63
1, 505840, Note_on_c, 0, 73, 0
1, 505840, Note_on_c, 0, 79, 64
1, 505920, Note_on_c, 0, 79, 0
1, 505920, Note_on_c, 0, 77, 64
1, 505920, Note_on_c, 1, 50, 0
1, 506000, Note_on_c, 0, 77, 0
1, 506000, Note_on_c, 0, 74, 65
1, 506080, Note_on_c, 0, 74, 0
1, 506080, Note_on_c, 0, 81, 65
1, 506160, Note_on_c, 0, 81, 0
1, 506160, Note_on_c, 0, 79, 65
1, 506160, Note_on_c, 1, 64, 62
1, 506160, Note_on_c, 1, 67, 62
1, 506160, Note_on_c, 1, 57, 62
1, 506240, Note_on_c, 0, 79, 0
1, 506240, Note_on_c, 0, 76, 66
1, 506320, Note_on_c, 0, 76, 0
1, 506320, Note_on_c, 0, 73, 66
1, 506350, Note_on_c, 1, 57, 0
1, 506350, Note_on_c, 1, 67, 0
1, 506350, Note_on_c, 1, 64, 0
1, 506400, Note_on_c, 0, 73, 0
1, 506400, Note_on_c, 0, 74, 67
1, 506400, Note_on_c, 1, 62, 65
1, 506400, Note_on_c, 1, 65, 65
1, 506480, Note_on_c, 0, 74, 0
1, 506480, Note_on_c, 0, 69, 67
1, 506560, Note_on_c, 0, 69, 0
1, 506560, Note_on_c, 0, 77, 67
1, 506640, Note_on_c, 0, 77, 0
1, 506640, Note_on_c, 0, 76, 68
1, 506720, Note_on_c, 0, 76, 0
1, 506720, Note_on_c, 0, 73, 68
1, 506800, Note_on_c, 0, 73, 0
1, 506800, Note_on_c, 0, 79, 68
1, 506880, Note_on_c, 0, 79, 0
1, 506880, Note_on_c, 0, 77, 69
1, 506880, Note_on_c, 1, 65, 0
1, 506880, Note_on_c, 1, 62, 0
1, 506960, Note_on_c, 0, 77, 0
1, 506960, Note_on_c, 0, 74, 69
1, 507040, Note_on_c, 0, 74, 0
1, 507040, Note_on_c, 0, 81, 70
1, 507120, Note_on_c, 0, 81, 0
1, 507120, Note_on_c, 0, 82, 70
1, 507120, Note_on_c, 1, 67, 68
1, 507120, Note_on_c, 1, 60, 68
1, 507120, Note_on_c, 1, 70, 68
1, 507200, Note_on_c, 0, 82, 0
1, 507200, Note_on_c, 0, 79, 70
1, 507280, Note_on_c, 0, 79, 0
1, 507280, Note_on_c, 0, 76, 71
1, 507310, Note_on_c, 1, 70, 0
1, 507310, Note_on_c, 1, 60, 0
1, 507310, Note_on_c, 1, 67, 0
1, 507360, Note_on_c, 0, 76, 0
1, 507360, Note_on_c, 0, 77, 71
1, 507360, Note_on_c, 1, 65, 70
1, 507360, Note_on_c, 1, 69, 70
1, 507440, Note_on_c, 0, 77, 0
1, 507440, Note_on_c, 0, 72, 72
1, 507520, Note_on_c, 0, 72, 0
1, 507520, Note_on_c, 0, 81, 72
1, 507600, Note_on_c, 0, 81, 0
1, 507600, Note_on_c, 0, 79, 72
1, 507680, Note_on_c, 0, 79, 0
1, 507680, Note_on_c, 0, 76, 73
1, 507760, Note_on_c, 0, 76, 0
1, 507760, Note_on_c, 0, 82, 73
1, 507840, Note_on_c, 0, 82, 0
1, 507840, Note_on_c, 0, 81, 74
1, 507840, Note_on_c, 1, 69, 0
1, 507840, Note_on_c, 1, 65, 0
1, 507920, Note_on_c, 0, 81, 0
1, 507920, Note_on_c, 0, 77, 74
1, 508000, Note_on_c, 0, 77, 0
1, 508000, Note_on_c, 0, 84, 74
1, 508080, Note_on_c, 0, 84, 0
1, 508080, Note_on_c, 0, 82, 75
1, 508080, Note_on_c, 1, 67, 73
1, 508080, Note_on_c, 1, 70, 73
1, 508080, Note_on_c, 1, 60, 73
1, 508160, Note_on_c, 0, 82, 0
1, 508160, Note_on_c, 0, 79, 75
1, 508240, Note_on_c, 0, 79, 0
1, 508240, Note_on_c, 0, 76, 75
1, 508270, Note_on_c, 1, 60, 0
1, 508270, Note_on_c, 1, 70, 0
1, 508270, Note_on_c, 1, 67, 0
1, 508320, Note_on_c, 0, 76, 0
1, 508320, Note_on_c, 0, 77, 76
1, 508320, Note_on_c, 1, 69, 75
1, 508320, Note_on_c, 1, 65, 75
1, 508400, Note_on_c, 0, 77, 0
1, 508400, Note_on_c, 0, 72, 76
1, 508480, Note_on_c, 0, 72, 0
1, 508480, Note_on_c, 0, 81, 77
1, 508560, Note_on_c, 0, 81, 0
1, 508560, Note_on_c, 0, 79, 77
1, 508640, Note_on_c, 0, 79, 0
1, 508640, Note_on_c, 0, 76, 77
1, 508720, Note_on_c, 0, 76, 0
1, 508720, Note_on_c, 0, 82, 78
1, 508800, Note_on_c, 0, 82, 0
1, 508800, Note_on_c, 0, 81, 78
1, 508800, Note_on_c, 1, 65, 0
1, 508800, Note_on_c, 1, 69, 0
1, 508880, Note_on_c, 0, 81, 0
1, 508880, Note_on_c, 0, 77, 79
1, 508960, Note_on_c, 0, 77, 0
1, 508960, Note_on_c, 0, 84, 79
1, 509040, Note_on_c, 0, 84, 0
1, 509040, Note_on_c, 0, 86, 79
1, 509040, Note_on_c, 1, 71, 79
1, 509040, Note_on_c, 1, 74, 79
1, 509040, Note_on_c, 1, 64, 79
1, 509120, Note_on_c, 0, 86, 0
1, 509120, Note_on_c, 0, 83, 80
1, 509200, Note_on_c, 0, 83, 0
1, 509200, Note_on_c, 0, 80, 80
1, 509230, Note_on_c, 1, 64, 0
1, 509230, Note_on_c, 1, 74, 0
1, 509230, Note_on_c, 1, 71, 0
1, 509280, Note_on_c, 0, 80, 0
1, 509280, Note_on_c, 0, 81, 81
1, 509280, Note_on_c, 1, 69, 80
1, 509360, Note_on_c, 1, 69, 0
1, 509360, Note_on_c, 1, 64, 80
1, 509440, Note_on_c, 1, 64, 0
1, 509440, Note_on_c, 1, 72, 81
1, 509520, Note_on_c, 1, 72, 0
1, 509520, Note_on_c, 1, 71, 81
1, 509600, Note_on_c, 1, 71, 0
1, 509600, Note_on_c, 1, 68, 81
1, 509680, Note_on_c, 1, 68, 0
1, 509680, Note_on_c, 1, 74, 82
1, 509760, Note_on_c, 0, 81, 0
1, 509760, Note_on_c, 1, 74, 0
1, 509760, Note_on_c, 1, 72, 82
1, 509840, Note_on_c, 1, 72, 0
1, 509840, Note_on_c, 1, 69, 83
1, 509920, Note_on_c, 1, 69, 0
1, 509920, Note_on_c, 1, 76, 83
1, 510000, Note_on_c, 0, 86, 84
1, 510000, Note_on_c, 1, 76, 0
1, 510000, Note_on_c, 1, 77, 84
1, 510000, Note_on_c, 1, 74, 84
1, 510080, Note_on_c, 1, 74, 0
1, 510080, Note_on_c, 1, 71, 84
1, 510160, Note_on_c, 1, 71, 0
1, 510160, Note_on_c, 1, 68, 84
1, 510190, Note_on_c, 0, 86, 0
1, 510190, Note_on_c, 1, 77, 0
1, 510240, Note_on_c, 0, 85, 85
1, 510240, Note_on_c, 1, 68, 0
1, 510240, Note_on_c, 1, 76, 85
1, 510240, Note_on_c, 1, 69, 85
1, 510320, Note_on_c, 1, 69, 0
1, 510320, Note_on_c, 1, 73, 85
1, 510400, Note_on_c, 1, 73, 0
1, 510400, Note_on_c, 1, 69, 86
1, 510430, Note_on_c, 0, 85, 0
1, 510430, Note_on_c, 1, 76, 0
1, 510480, Note_on_c, 0, 84, 86
1, 510480, Note_on_c, 1, 69, 0
1, 510480, Note_on_c, 1, 75, 86
1, 510480, Note_on_c, 1, 66, 86
1, 510560, Note_on_c, 1, 66, 0
1, 510560, Note_on_c, 1, 69, 87
1, 510640, Note_on_c, 1, 69, 0
1, 510640, Note_on_c, 1, 66, 87
1, 510670, Note_on_c, 0, 84, 0
1, 510670, Note_on_c, 1, 75, 0
1, 510720, Note_on_c, 0, 83, 87
1, 510720, Note_on_c, 1, 66, 0
1, 510720, Note_on_c, 1, 74, 87
1, 510720, Note_on_c, 1, 67, 87
1, 510800, Note_on_c, 1, 67, 0
1, 510800, Note_on_c, 1, 71, 88
1, 510880, Note_on_c, 1, 71, 0
1, 510880, Note_on_c, 1, 67, 88
1, 510910, Note_on_c, 0, 83, 0
1, 510910, Note_on_c, 1, 74, 0
1, 510960, Note_on_c, 0, 82, 89
1, 510960, Note_on_c, 1, 67, 0
1, 510960, Note_on_c, 1, 73, 89
1, 510960, Note_on_c, 1, 64, 89
1, 511040, Note_on_c, 1, 64, 0
1, 511040, Note_on_c, 1, 67, 89
1, 511120, Note_on_c, 1, 67, 0
1, 511120, Note_on_c, 1, 64, 89
1, 511150, Note_on_c, 0, 82, 0
1, 511150, Note_on_c, 1, 73, 0
1, 511200, Note_on_c, 0, 81, 90
1, 511200, Note_on_c, 1, 64, 0
1, 511200, Note_on_c, 1, 72, 90
1, 511200, Note_on_c, 1, 65, 90
1, 511280, Note_on_c, 1, 65, 0
1, 511280, Note_on_c, 1, 69, 90
1, 511360, Note_on_c, 1, 69, 0
1, 511360, Note_on_c, 1, 65, 91
1, 511390, Note_on_c, 0, 81, 0
1, 511390, Note_on_c, 1, 72, 0
1, 511440, Note_on_c, 0, 79, 91
1, 511440, Note_on_c, 1, 65, 0
1, 511440, Note_on_c, 1, 70, 91
1, 511440, Note_on_c, 1, 61, 91
1, 511520, Note_on_c, 1, 61, 0
1, 511520, Note_on_c, 1, 64, 92
1, 511600, Note_on_c, 1, 64, 0
1, 511600, Note_on_c, 1, 61, 92
1, 511630, Note_on_c, 0, 79, 0
1, 511630, Note_on_c, 1, 70, 0
1, 511680, Note_on_c, 0, 77, 92
1, 511680, Note_on_c, 1, 61, 0
1, 511680, Note_on_c, 1, 69, 92
1, 511680, Note_on_c, 1, 62, 92
1, 511760, Note_on_c, 1, 62, 0
1, 511760, Note_on_c, 1, 65, 93
1, 511840, Note_on_c, 1, 65, 0
1, 511840, Note_on_c, 1, 62, 93
1, 511870, Note_on_c, 0, 77, 0
1, 511870, Note_on_c, 1, 69, 0
1, 511920, Note_on_c, 0, 75, 93
1, 511920, Note_on_c, 1, 62, 0
1, 511920, Note_on_c, 1, 66, 93
1, 511920, Note_on_c, 1, 57, 94
1, 512000, Note_on_c, 1, 57, 0
1, 512000, Note_on_c, 1, 60, 94
1, 512080, Note_on_c, 1, 60, 0
1, 512080, Note_on_c, 1, 57, 95
1, 512110, Note_on_c, 0, 75, 0
1, 512110, Note_on_c, 1, 66, 0
1, 512160, Note_on_c, 0, 74, 94
1, 512160, Note_on_c, 1, 57, 0
1, 512160, Note_on_c, 1, 58, 98
1, 512240, Note_on_c, 0, 74, 0
1, 512240, Note_on_c, 0, 67, 95
1, 512320, Note_on_c, 0, 67, 0
1, 512320, Note_on_c, 0, 70, 95
1, 512400, Note_on_c, 0, 70, 0
1, 512400, Note_on_c, 0, 74, 96
1, 512480, Note_on_c, 0, 74, 0
1, 512480, Note_on_c, 0, 79, 96
1, 512560, Note_on_c, 0, 79, 0
1, 512560, Note_on_c, 0, 82, 96
1, 512640, Note_on_c, 0, 82, 0
1, 512640, Note_on_c, 0, 86, 97
1, 512720, Note_on_c, 0, 86, 0
1, 512720, Note_on_c, 0, 84, 97
1, 512800, Note_on_c, 0, 84, 0
1, 512800, Note_on_c, 0, 82, 98
1, 512880, Note_on_c, 0, 82, 0
1, 512880, Note_on_c, 0, 81, 98
1, 512880, Note_on_c, 1, 58, 0
1, 512880, Note_on_c, 1, 59, 95
1, 512960, Note_on_c, 0, 81, 0
1, 512960, Note_on_c, 0, 79, 98
1, 513040, Note_on_c, 0, 79, 0
1, 513040, Note_on_c, 0, 77, 99
1, 513120, Note_on_c, 0, 77, 0
1, 513120, Note_on_c, 0, 76, 98
1, 513120, Note_on_c, 1, 59, 0
1, 513120, Note_on_c, 1, 36, 95
1, 513200, Note_on_c, 1, 36, 0
1, 513200, Note_on_c, 1, 40, 95
1, 513280, Note_on_c, 1, 40, 0
1, 513280, Note_on_c, 1, 43, 95
1, 513310, Note_on_c, 0, 76, 0
1, 513360, Note_on_c, 1, 43, 0
1, 513360, Note_on_c, 1, 48, 95
1, 513440, Note_on_c, 1, 48, 0
1, 513440, Note_on_c, 1, 52, 94
1, 513520, Note_on_c, 1, 52, 0
1, 513520, Note_on_c, 1, 55, 94
1, 513600, Note_on_c, 0, 81, 98
1, 513600, Note_on_c, 1, 55, 0
1, 513600, Note_on_c, 1, 77, 98
1, 513600, Note_on_c, 1, 72, 98
1, 513600, Note_on_c, 1, 41, 94
1, 513680, Note_on_c, 1, 41, 0
1, 513680, Note_on_c, 1, 45, 94
1, 513760, Note_on_c, 1, 45, 0
1, 513760, Note_on_c, 1, 48, 94
1, 513790, Note_on_c, 0, 81, 0
1, 513790, Note_on_c, 1, 72, 0
1, 513790, Note_on_c, 1, 77, 0
1, 513840, Note_on_c, 1, 48, 0
1, 513840, Note_on_c, 1, 53, 94
1, 513920, Note_on_c, 1, 53, 0
1, 513920, Note_on_c, 1, 57, 94
1, 514000, Note_on_c, 1, 57, 0
1, 514000, Note_on_c, 1, 60, 94
1, 514080, Note_on_c, 0, 60, 98
1, 514080, Note_on_c, 1, 60, 0
1, 514080, Note_on_c, 1, 48, 93
1, 514080, Note_on_c, 1, 52, 93
1, 514160, Note_on_c, 0, 60, 0
1, 514160, Note_on_c, 0, 64, 98
1, 514240, Note_on_c, 0, 64, 0
1, 514240, Note_on_c, 0, 67, 98
1, 514320, Note_on_c, 0, 67, 0
1, 514320, Note_on_c, 0, 72, 98
1, 514320, Note_on_c, 1, 52, 0
1, 514320, Note_on_c, 1, 48, 0
1, 514400, Note_on_c, 0, 72, 0
1, 514400, Note_on_c, 0, 76, 98
1, 514480, Note_on_c, 0, 76, 0
1, 514480, Note_on_c, 0, 79, 98
1, 514560, Note_on_c, 0, 79, 0
1, 514560, Note_on_c, 0, 81, 98
1, 514560, Note_on_c, 1, 48, 93
1, 514560, Note_on_c, 1, 53, 93
1, 514640, Note_on_c, 0, 81, 0
1, 514640, Note_on_c, 0, 84, 98
1, 514720, Note_on_c, 0, 84, 0
1, 514720, Note_on_c, 0, 89, 98
1, 514800, Note_on_c, 0, 89, 0
1, 514800, Note_on_c, 0, 84, 98
1, 514800, Note_on_c, 1, 53, 0
1, 514800, Note_on_c, 1, 48, 0
1, 514880, Note_on_c, 0, 84, 0
1, 514880, Note_on_c, 0, 81, 98
1, 514960, Note_on_c, 0, 81, 0
1, 514960, Note_on_c, 0, 77, 98
1, 515040, Note_on_c, 0, 77, 0
1, 515040, Note_on_c, 0, 84, 98
1, 515040, Note_on_c, 1, 52, 92
1, 515040, Note_on_c, 1, 48, 92
1, 515195, Note_on_c, 0, 84, 0
1, 515280, Note_on_c, 0, 72, 94
1, 515280, Note_on_c, 1, 48, 0
1, 515280, Note_on_c, 1, 52, 0
1, 515472, Note_on_c, 0, 72, 0
1, 516000, Note_on_c, 0, 77, 59
1, 516360, Note_on_c, 0, 77, 0
1, 516360, Note_on_c, 0, 79, 59
1, 516420, Note_on_c, 0, 79, 0
1, 516420, Note_on_c, 0, 77, 59
1, 516480, Note_on_c, 0, 77, 0
1, 516480, Note_on_c, 0, 76, 59
1, 516635, Note_on_c, 0, 76, 0
1, 516720, Note_on_c, 0, 77, 59
1, 516875, Note_on_c, 0, 77, 0
1, 516960, Note_on_c, 0, 78, 59
1, 517200, Note_on_c, 0, 78, 0
1, 517200, Note_on_c, 0, 79, 58
1, 517200, Note_on_c, 1, 70, 63
1, 517320, Note_on_c, 1, 70, 0
1, 517320, Note_on_c, 1, 62, 61
1, 517355, Note_on_c, 0, 79, 0
1, 517440, Note_on_c, 0, 79, 56
1, 517440, Note_on_c, 1, 62, 0
1, 517440, Note_on_c, 1, 65, 60
1, 517680, Note_on_c, 0, 79, 0
1, 517680, Note_on_c, 1, 65, 0
1, 517680, Note_on_c, 1, 64, 57
1, 517920, Note_on_c, 0, 79, 65
1, 517920, Note_on_c, 1, 64, 0
1, 518280, Note_on_c, 0, 79, 0
1, 518280, Note_on_c, 0, 81, 65
1, 518340, Note_on_c, 0, 81, 0
1, 518340, Note_on_c, 0, 79, 64
1, 518400, Note_on_c, 0, 79, 0
1, 518400, Note_on_c, 0, 78, 64
1, 518555, Note_on_c, 0, 78, 0
1, 518640, Note_on_c, 0, 79, 64
1, 518795, Note_on_c, 0, 79, 0
1, 518880, Note_on_c, 0, 80, 63
1, 519120, Note_on_c, 0, 80, 0
1, 519120, Note_on_c, 0, 81, 62
1, 519120, Note_on_c, 1, 72, 69
1, 519240, Note_on_c, 1, 72, 0
1, 519240, Note_on_c, 1, 64, 68
1, 519275, Note_on_c, 0, 81, 0
1, 519360, Note_on_c, 0, 81, 61
1, 519360, Note_on_c, 1, 64, 0
1, 519360, Note_on_c, 1, 67, 67
1, 519600, Note_on_c, 0, 81, 0
1, 519600, Note_on_c, 1, 67, 0
1, 519600, Note_on_c, 1, 66, 65
1, 519840, Note_on_c, 0, 82, 76
1, 519840, Note_on_c, 1, 66, 0
1, 519840, Note_on_c, 1, 55, 79
1, 519920, Note_on_c, 0, 82, 0
1, 519920, Note_on_c, 0, 84, 76
1, 520000, Note_on_c, 0, 84, 0
1, 520000, Note_on_c, 0, 86, 76
1, 520080, Note_on_c, 0, 86, 0
1, 520080, Note_on_c, 0, 84, 77
1, 520160, Note_on_c, 0, 84, 0
1, 520160, Note_on_c, 0, 82, 77
1, 520200, Note_on_c, 1, 55, 0
1, 520200, Note_on_c, 1, 57, 78
1, 520240, Note_on_c, 0, 82, 0
1, 520240, Note_on_c, 0, 81, 77
1, 520260, Note_on_c, 1, 57, 0
1, 520260, Note_on_c, 1, 55, 77
1, 520320, Note_on_c, 0, 81, 0
1, 520320, Note_on_c, 0, 79, 78
1, 520320, Note_on_c, 1, 55, 0
1, 520320, Note_on_c, 1, 54, 77
1, 520400, Note_on_c, 0, 79, 0
1, 520400, Note_on_c, 0, 81, 78
1, 520475, Note_on_c, 1, 54, 0
1, 520480, Note_on_c, 0, 81, 0
1, 520480, Note_on_c, 0, 79, 78
1, 520560, Note_on_c, 0, 79, 0
1, 520560, Note_on_c, 0, 77, 78
1, 520560, Note_on_c, 1, 55, 76
1, 520640, Note_on_c, 0, 77, 0
1, 520640, Note_on_c, 0, 75, 79
1, 520715, Note_on_c, 1, 55, 0
1, 520720, Note_on_c, 0, 75, 0
1, 520720, Note_on_c, 0, 74, 79
1, 520800, Note_on_c, 0, 74, 0
1, 520800, Note_on_c, 0, 72, 79
1, 520800, Note_on_c, 1, 56, 77
1, 520880, Note_on_c, 0, 72, 0
1, 520880, Note_on_c, 0, 74, 80
1, 520960, Note_on_c, 0, 74, 0
1, 520960, Note_on_c, 0, 75, 80
1, 521040, Note_on_c, 0, 75, 0
1, 521040, Note_on_c, 0, 74, 80
1, 521040, Note_on_c, 1, 56, 0
1, 521040, Note_on_c, 1, 57, 74
1, 521120, Note_on_c, 0, 74, 0
1, 521120, Note_on_c, 0, 72, 81
1, 521195, Note_on_c, 1, 57, 0
1, 521200, Note_on_c, 0, 72, 0
1, 521200, Note_on_c, 0, 70, 81
1, 521280, Note_on_c, 0, 70, 0
1, 521280, Note_on_c, 0, 69, 81
1, 521280, Note_on_c, 1, 57, 72
1, 521360, Note_on_c, 0, 69, 0
1, 521360, Note_on_c, 0, 70, 81
1, 521440, Note_on_c, 0, 70, 0
1, 521440, Note_on_c, 0, 72, 82
1, 521520, Note_on_c, 0, 72, 0
1, 521520, Note_on_c, 0, 70, 82
1, 521520, Note_on_c, 1, 57, 0
1, 521600, Note_on_c, 0, 70, 0
1, 521600, Note_on_c, 0, 69, 82
1, 521680, Note_on_c, 0, 69, 0
1, 521680, Note_on_c, 0, 67, 83
1, 521760, Note_on_c, 0, 67, 0
1, 521760, Note_on_c, 0, 66, 83
1, 521760, Note_on_c, 1, 57, 82
1, 521840, Note_on_c, 0, 66, 0
1, 521840, Note_on_c, 0, 72, 83
1, 521920, Note_on_c, 0, 72, 0
1, 521920, Note_on_c, 0, 74, 84
1, 522000, Note_on_c, 0, 74, 0
1, 522000, Note_on_c, 0, 75, 84
1, 522080, Note_on_c, 0, 75, 0
1, 522080, Note_on_c, 0, 74, 84
1, 522120, Note_on_c, 1, 57, 0
1, 522120, Note_on_c, 1, 58, 82
1, 522160, Note_on_c, 0, 74, 0
1, 522160, Note_on_c, 0, 72, 85
1, 522180, Note_on_c, 1, 58, 0
1, 522180, Note_on_c, 1, 57, 82
1, 522240, Note_on_c, 0, 72, 0
1, 522240, Note_on_c, 0, 81, 85
1, 522240, Note_on_c, 1, 57, 0
1, 522240, Note_on_c, 1, 56, 82
1, 522320, Note_on_c, 0, 81, 0
1, 522320, Note_on_c, 0, 79, 85
1, 522395, Note_on_c, 1, 56, 0
1, 522400, Note_on_c, 0, 79, 0
1, 522400, Note_on_c, 0, 78, 85
1, 522480, Note_on_c, 0, 78, 0
1, 522480, Note_on_c, 0, 84, 86
1, 522480, Note_on_c, 1, 57, 82
1, 522560, Note_on_c, 0, 84, 0
1, 522560, Note_on_c, 0, 82, 86
1, 522635, Note_on_c, 1, 57, 0
1, 522640, Note_on_c, 0, 82, 0
1, 522640, Note_on_c, 0, 81, 89
1, 522720, Note_on_c, 0, 81, 0
1, 522720, Note_on_c, 0, 89, 87
1, 522720, Note_on_c, 1, 58, 85
1, 522800, Note_on_c, 0, 89, 0
1, 522800, Note_on_c, 0, 88, 84
1, 522880, Note_on_c, 0, 88, 0
1, 522880, Note_on_c, 0, 86, 82
1, 522960, Note_on_c, 0, 86, 0
1, 522960, Note_on_c, 0, 84, 80
1, 522960, Note_on_c, 1, 58, 0
1, 522960, Note_on_c, 1, 59, 82
1, 523040, Note_on_c, 0, 84, 0
1, 523040, Note_on_c, 0, 83, 77
1, 523115, Note_on_c, 1, 59, 0
1, 523120, Note_on_c, 0, 83, 0
1, 523120, Note_on_c, 0, 81, 75
1, 523200, Note_on_c, 0, 81, 0
1, 523200, Note_on_c, 0, 80, 73
1, 523200, Note_on_c, 1, 59, 80
1, 523280, Note_on_c, 0, 80, 0
1, 523280, Note_on_c, 0, 77, 70
1, 523360, Note_on_c, 0, 77, 0
1, 523360, Note_on_c, 0, 76, 68
1, 523440, Note_on_c, 0, 76, 0
1, 523440, Note_on_c, 0, 74, 65
1, 523440, Note_on_c, 1, 59, 0
1, 523520, Note_on_c, 0, 74, 0
1, 523520, Note_on_c, 0, 72, 63
1, 523600, Note_on_c, 0, 72, 0
1, 523600, Note_on_c, 0, 71, 61
1, 523680, Note_on_c, 0, 71, 0
1, 523680, Note_on_c, 0, 69, 58
1, 524040, Note_on_c, 0, 69, 0
1, 524040, Note_on_c, 0, 71, 57
1, 524100, Note_on_c, 0, 71, 0
1, 524100, Note_on_c, 0, 69, 57
1, 524160, Note_on_c, 0, 69, 0
1, 524160, Note_on_c, 0, 68, 57
1, 524400, Note_on_c, 0, 68, 0
1, 524400, Note_on_c, 0, 69, 56
1, 524640, Note_on_c, 0, 69, 0
1, 524640, Note_on_c, 0, 70, 55
1, 524640, Note_on_c, 1, 62, 59
1, 524880, Note_on_c, 0, 70, 0
1, 524880, Note_on_c, 0, 71, 52
1, 525000, Note_on_c, 1, 62, 0
1, 525000, Note_on_c, 1, 64, 58
1, 525060, Note_on_c, 1, 64, 0
1, 525060, Note_on_c, 1, 62, 57
1, 525120, Note_on_c, 0, 71, 0
1, 525120, Note_on_c, 0, 69, 49
1, 525120, Note_on_c, 0, 71, 49
1, 525120, Note_on_c, 1, 62, 0
1, 525120, Note_on_c, 1, 61, 57
1, 525360, Note_on_c, 1, 61, 0
1, 525360, Note_on_c, 1, 62, 56
1, 525600, Note_on_c, 1, 62, 0
1, 525600, Note_on_c, 1, 63, 57
1, 525840, Note_on_c, 0, 69, 0
1, 525840, Note_on_c, 0, 68, 62
1, 525840, Note_on_c, 1, 63, 0
1, 525840, Note_on_c, 1, 64, 55
1, 525960, Note_on_c, 0, 71, 0
1, 525960, Note_on_c, 0, 72, 62
1, 526020, Note_on_c, 0, 72, 0
1, 526020, Note_on_c, 0, 71, 63
1, 526080, Note_on_c, 0, 71, 0
1, 526080, Note_on_c, 0, 68, 0
1, 526080, Note_on_c, 0, 69, 63
1, 526080, Note_on_c, 1, 64, 0
1, 526080, Note_on_c, 1, 64, 53
1, 526320, Note_on_c, 0, 69, 0
1, 526320, Note_on_c, 0, 71, 63
1, 526320, Note_on_c, 1, 64, 0
1, 526560, Note_on_c, 0, 71, 0
1, 526560, Note_on_c, 0, 72, 63
1, 526560, Note_on_c, 1, 65, 63
1, 526800, Note_on_c, 0, 72, 0
1, 526800, Note_on_c, 0, 73, 62
1, 526920, Note_on_c, 1, 65, 0
1, 526920, Note_on_c, 1, 66, 62
1, 526980, Note_on_c, 1, 66, 0
1, 526980, Note_on_c, 1, 65, 61
1, 527040, Note_on_c, 0, 73, 0
1, 527040, Note_on_c, 0, 73, 60
1, 527040, Note_on_c, 0, 71, 60
1, 527040, Note_on_c, 1, 65, 0
1, 527040, Note_on_c, 1, 63, 61
1, 527280, Note_on_c, 1, 63, 0
1, 527280, Note_on_c, 1, 65, 60
1, 527520, Note_on_c, 1, 65, 0
1, 527520, Note_on_c, 1, 65, 65
1, 527760, Note_on_c, 0, 71, 0
1, 527760, Note_on_c, 0, 70, 68
1, 527760, Note_on_c, 1, 65, 0
1, 527760, Note_on_c, 1, 66, 62
1, 527880, Note_on_c, 0, 73, 0
1, 527880, Note_on_c, 0, 74, 68
1, 527940, Note_on_c, 0, 74, 0
1, 527940, Note_on_c, 0, 73, 68
1, 528000, Note_on_c, 0, 73, 0
1, 528000, Note_on_c, 0, 70, 0
1, 528000, Note_on_c, 0, 71, 68
1, 528000, Note_on_c, 1, 66, 0
1, 528000, Note_on_c, 1, 66, 60
1, 528240, Note_on_c, 0, 71, 0
1, 528240, Note_on_c, 0, 73, 69
1, 528240, Note_on_c, 1, 66, 0
1, 528480, Note_on_c, 0, 73, 0
1, 528480, Note_on_c, 0, 74, 76
1, 528480, Note_on_c, 1, 59, 81
1, 528560, Note_on_c, 0, 74, 0
1, 528560, Note_on_c, 0, 66, 76
1, 528640, Note_on_c, 0, 66, 0
1, 528640, Note_on_c, 0, 71, 76
1, 528720, Note_on_c, 0, 71, 0
1, 528720, Note_on_c, 0, 74, 76
1, 528800, Note_on_c, 0, 74, 0
1, 528800, Note_on_c, 0, 78, 76
1, 528840, Note_on_c, 1, 59, 0
1, 528840, Note_on_c, 1, 61, 78
1, 528880, Note_on_c, 0, 78, 0
1, 528880, Note_on_c, 0, 83, 76
1, 528900, Note_on_c, 1, 61, 0
1, 528900, Note_on_c, 1, 59, 78
1, 528960, Note_on_c, 0, 83, 0
1, 528960, Note_on_c, 0, 86, 77
1, 528960, Note_on_c, 1, 59, 0
1, 528960, Note_on_c, 1, 58, 78
1, 529040, Note_on_c, 0, 86, 0
1, 529040, Note_on_c, 0, 83, 77
1, 529115, Note_on_c, 1, 58, 0
1, 529120, Note_on_c, 0, 83, 0
1, 529120, Note_on_c, 0, 78, 77
1, 529200, Note_on_c, 0, 78, 0
1, 529200, Note_on_c, 0, 83, 77
1, 529200, Note_on_c, 1, 59, 76
1, 529280, Note_on_c, 0, 83, 0
1, 529280, Note_on_c, 0, 78, 77
1, 529355, Note_on_c, 1, 59, 0
1, 529360, Note_on_c, 0, 78, 0
1, 529360, Note_on_c, 0, 74, 77
1, 529440, Note_on_c, 0, 74, 0
1, 529440, Note_on_c, 0, 79, 78
1, 529440, Note_on_c, 1, 52, 80
1, 529520, Note_on_c, 1, 52, 0
1, 529520, Note_on_c, 1, 40, 81
1, 529600, Note_on_c, 1, 40, 0
1, 529600, Note_on_c, 1, 43, 81
1, 529680, Note_on_c, 1, 43, 0
1, 529680, Note_on_c, 1, 47, 81
1, 529760, Note_on_c, 1, 47, 0
1, 529760, Note_on_c, 1, 52, 81
1, 529800, Note_on_c, 0, 79, 0
1, 529800, Note_on_c, 0, 81, 78
1, 529840, Note_on_c, 1, 52, 0
1, 529840, Note_on_c, 1, 55, 81
1, 529860, Note_on_c, 0, 81, 0
1, 529860, Note_on_c, 0, 79, 78
1, 529920, Note_on_c, 0, 79, 0
1, 529920, Note_on_c, 0, 78, 79
1, 529920, Note_on_c, 1, 55, 0
1, 529920, Note_on_c, 1, 59, 82
1, 530000, Note_on_c, 1, 59, 0
1, 530000, Note_on_c, 1, 55, 82
1, 530075, Note_on_c, 0, 78, 0
1, 530080, Note_on_c, 1, 55, 0
1, 530080, Note_on_c, 1, 52, 82
1, 530160, Note_on_c, 0, 79, 79
1, 530160, Note_on_c, 1, 52, 0
1, 530160, Note_on_c, 1, 55, 82
1, 530240, Note_on_c, 1, 55, 0
1, 530240, Note_on_c, 1, 52, 83
1, 530315, Note_on_c, 0, 79, 0
1, 530320, Note_on_c, 1, 52, 0
1, 530320, Note_on_c, 1, 47, 83
1, 530400, Note_on_c, 0, 73, 80
1, 530400, Note_on_c, 1, 47, 0
1, 530400, Note_on_c, 1, 57, 83
1, 530480, Note_on_c, 0, 73, 0
1, 530480, Note_on_c, 0, 64, 80
1, 530560, Note_on_c, 0, 64, 0
1, 530560, Note_on_c, 0, 69, 80
1, 530640, Note_on_c, 0, 69, 0
1, 530640, Note_on_c, 0, 73, 80
1, 530720, Note_on_c, 0, 73, 0
1, 530720, Note_on_c, 0, 76, 80
1, 530760, Note_on_c, 1, 57, 0
1, 530760, Note_on_c, 1, 59, 82
1, 530800, Note_on_c, 0, 76, 0
1, 530800, Note_on_c, 0, 81, 80
1, 530820, Note_on_c, 1, 59, 0
1, 530820, Note_on_c, 1, 57, 82
1, 530880, Note_on_c, 0, 81, 0
1, 530880, Note_on_c, 0, 85, 81
1, 530880, Note_on_c, 1, 57, 0
1, 530880, Note_on_c, 1, 56, 81
1, 530960, Note_on_c, 0, 85, 0
1, 530960, Note_on_c, 0, 81, 81
1, 531035, Note_on_c, 1, 56, 0
1, 531040, Note_on_c, 0, 81, 0
1, 531040, Note_on_c, 0, 76, 81
1, 531120, Note_on_c, 0, 76, 0
1, 531120, Note_on_c, 0, 81, 81
1, 531120, Note_on_c, 1, 57, 80
1, 531200, Note_on_c, 0, 81, 0
1, 531200, Note_on_c, 0, 76, 81
1, 531275, Note_on_c, 1, 57, 0
1, 531280, Note_on_c, 0, 76, 0
1, 531280, Note_on_c, 0, 73, 81
1, 531360, Note_on_c, 0, 73, 0
1, 531360, Note_on_c, 0, 78, 81
1, 531360, Note_on_c, 1, 50, 86
1, 531440, Note_on_c, 1, 50, 0
1, 531440, Note_on_c, 1, 38, 86
1, 531520, Note_on_c, 1, 38, 0
1, 531520, Note_on_c, 1, 42, 86
1, 531600, Note_on_c, 1, 42, 0
1, 531600, Note_on_c, 1, 45, 86
1, 531680, Note_on_c, 1, 45, 0
1, 531680, Note_on_c, 1, 50, 86
1, 531720, Note_on_c, 0, 78, 0
1, 531720, Note_on_c, 0, 79, 82
1, 531760, Note_on_c, 1, 50, 0
1, 531760, Note_on_c, 1, 54, 87
1, 531780, Note_on_c, 0, 79, 0
1, 531780, Note_on_c, 0, 78, 82
1, 531840, Note_on_c, 0, 78, 0
1, 531840, Note_on_c, 0, 76, 82
1, 531840, Note_on_c, 1, 54, 0
1, 531840, Note_on_c, 1, 57, 87
1, 531920, Note_on_c, 1, 57, 0
1, 531920, Note_on_c, 1, 54, 87
1, 531995, Note_on_c, 0, 76, 0
1, 532000, Note_on_c, 1, 54, 0
1, 532000, Note_on_c, 1, 50, 87
1, 532080, Note_on_c, 0, 78, 83
1, 532080, Note_on_c, 1, 50, 0
1, 532080, Note_on_c, 1, 54, 88
1, 532160, Note_on_c, 1, 54, 0
1, 532160, Note_on_c, 1, 50, 88
1, 532235, Note_on_c, 0, 78, 0
1, 532240, Note_on_c, 1, 50, 0
1, 532240, Note_on_c, 1, 45, 88
1, 532320, Note_on_c, 0, 71, 83
1, 532320, Note_on_c, 1, 45, 0
1, 532320, Note_on_c, 1, 55, 88
1, 532400, Note_on_c, 0, 71, 0
1, 532400, Note_on_c, 0, 64, 84
1, 532480, Note_on_c, 0, 64, 0
1, 532480, Note_on_c, 0, 67, 84
1, 532560, Note_on_c, 0, 67, 0
1, 532560, Note_on_c, 0, 71, 84
1, 532640, Note_on_c, 0, 71, 0
1, 532640, Note_on_c, 0, 67, 84
1, 532720, Note_on_c, 0, 67, 0
1, 532720, Note_on_c, 0, 71, 84
1, 532800, Note_on_c, 0, 71, 0
1, 532800, Note_on_c, 0, 76, 84
1, 532880, Note_on_c, 0, 76, 0
1, 532880, Note_on_c, 0, 71, 85
1, 532960, Note_on_c, 0, 71, 0
1, 532960, Note_on_c, 0, 76, 85
1, 533040, Note_on_c, 0, 76, 0
1, 533040, Note_on_c, 0, 79, 85
1, 533120, Note_on_c, 0, 79, 0
1, 533120, Note_on_c, 0, 76, 85
1, 533200, Note_on_c, 0, 76, 0
1, 533200, Note_on_c, 0, 79, 85
1, 533280, Note_on_c, 0, 79, 0
1, 533280, Note_on_c, 0, 83, 85
1, 533360, Note_on_c, 0, 83, 0
1, 533360, Note_on_c, 0, 84, 86
1, 533440, Note_on_c, 0, 84, 0
1, 533440, Note_on_c, 0, 83, 86
1, 533520, Note_on_c, 0, 83, 0
1, 533520, Note_on_c, 0, 81, 86
1, 533600, Note_on_c, 0, 81, 0
1, 533600, Note_on_c, 0, 79, 86
1, 533680, Note_on_c, 0, 79, 0
1, 533680, Note_on_c, 0, 78, 86
1, 533760, Note_on_c, 0, 78, 0
1, 533760, Note_on_c, 0, 79, 86
1, 533840, Note_on_c, 0, 79, 0
1, 533840, Note_on_c, 0, 81, 87
1, 533920, Note_on_c, 0, 81, 0
1, 533920, Note_on_c, 0, 79, 87
1, 534000, Note_on_c, 0, 79, 0
1, 534000, Note_on_c, 0, 78, 87
1, 534000, Note_on_c, 1, 56, 93
1, 534020, Note_on_c, 1, 55, 0
1, 534080, Note_on_c, 0, 78, 0
1, 534080, Note_on_c, 0, 76, 87
1, 534160, Note_on_c, 0, 76, 0
1, 534160, Note_on_c, 0, 74, 87
1, 534240, Note_on_c, 0, 74, 0
1, 534240, Note_on_c, 0, 73, 87
1, 534240, Note_on_c, 1, 56, 0
1, 534240, Note_on_c, 1, 33, 94
1, 534320, Note_on_c, 1, 33, 0
1, 534320, Note_on_c, 1, 37, 94
1, 534400, Note_on_c, 1, 37, 0
1, 534400, Note_on_c, 1, 40, 94
1, 534480, Note_on_c, 0, 73, 0
1, 534480, Note_on_c, 1, 40, 0
1, 534480, Note_on_c, 1, 45, 94
1, 534560, Note_on_c, 1, 45, 0
1, 534560, Note_on_c, 1, 49, 94
1, 534640, Note_on_c, 1, 49, 0
1, 534640, Note_on_c, 1, 52, 94
1, 534720, Note_on_c, 0, 78, 88
1, 534720, Note_on_c, 1, 52, 0
1, 534720, Note_on_c, 1, 74, 88
1, 534720, Note_on_c, 1, 69, 88
1, 534720, Note_on_c, 1, 38, 94
1, 534800, Note_on_c, 1, 38, 0
1, 534800, Note_on_c, 1, 42, 94
1, 534880, Note_on_c, 1, 42, 0
1, 534880, Note_on_c, 1, 45, 94
1, 534960, Note_on_c, 0, 78, 0
1, 534960, Note_on_c, 1, 45, 0
1, 534960, Note_on_c, 1, 69, 0
1, 534960, Note_on_c, 1, 74, 0
1, 534960, Note_on_c, 1, 50, 94
1, 535040, Note_on_c, 1, 50, 0
1, 535040, Note_on_c, 1, 54, 94
1, 535120, Note_on_c, 1, 54, 0
1, 535120, Note_on_c, 1, 57, 94
1, 535200, Note_on_c, 0, 57, 90
1, 535200, Note_on_c, 1, 57, 0
1, 535200, Note_on_c, 1, 45, 94
1, 535200, Note_on_c, 1, 49, 94
1, 535280, Note_on_c, 0, 57, 0
1, 535280, Note_on_c, 0, 61, 90
1, 535360, Note_on_c, 0, 61, 0
1, 535360, Note_on_c, 0, 64, 90
1, 535440, Note_on_c, 0, 64, 0
1, 535440, Note_on_c, 0, 69, 90
1, 535440, Note_on_c, 1, 49, 0
1, 535440, Note_on_c, 1, 45, 0
1, 535520, Note_on_c, 0, 69, 0
1, 535520, Note_on_c, 0, 73, 90
1, 535600, Note_on_c, 0, 73, 0
1, 535600, Note_on_c, 0, 76, 90
1, 535680, Note_on_c, 0, 76, 0
1, 535680, Note_on_c, 0, 78, 90
1, 535680, Note_on_c, 1, 45, 94
1, 535680, Note_on_c, 1, 50, 94
1, 535760, Note_on_c, 0, 78, 0
1, 535760, Note_on_c, 0, 81, 90
1, 535840, Note_on_c, 0, 81, 0
1, 535840, Note_on_c, 0, 86, 90
1, 535920, Note_on_c, 0, 86, 0
1, 535920, Note_on_c, 0, 81, 90
1, 535920, Note_on_c, 1, 50, 0
1, 535920, Note_on_c, 1, 45, 0
1, 536000, Note_on_c, 0, 81, 0
1, 536000, Note_on_c, 0, 78, 90
1, 536080, Note_on_c, 0, 78, 0
1, 536080, Note_on_c, 0, 74, 90
1, 536160, Note_on_c, 0, 74, 0
1, 536160, Note_on_c, 0, 81, 90
1, 536160, Note_on_c, 1, 45, 94
1, 536160, Note_on_c, 1, 49, 94
1, 536315, Note_on_c, 0, 81, 0
1, 536400, Note_on_c, 0, 69, 86
1, 536592, Note_on_c, 0, 69, 0
1, 536640, Note_on_c, 1, 49, 0
1, 536640, Note_on_c, 1, 45, 0
1, 537120, Note_on_c, 1, 62, 59
1, 537480, Note_on_c, 1, 62, 0
1, 537480, Note_on_c, 1, 64, 58
1, 537540, Note_on_c, 1, 64, 0
1, 537540, Note_on_c, 1, 62, 58
1, 537600, Note_on_c, 1, 62, 0
1, 537600, Note_on_c, 1, 61, 57
1, 537755, Note_on_c, 1, 61, 0
1, 537840, Note_on_c, 1, 62, 56
1, 537995, Note_on_c, 1, 62, 0
1, 538080, Note_on_c, 1, 63, 57
1, 538320, Note_on_c, 0, 79, 60
1, 538320, Note_on_c, 1, 64, 55
1, 538340, Note_on_c, 1, 63, 0
1, 538440, Note_on_c, 0, 79, 0
1, 538440, Note_on_c, 0, 71, 59
1, 538475, Note_on_c, 1, 64, 0
1, 538560, Note_on_c, 0, 71, 0
1, 538560, Note_on_c, 0, 74, 58
1, 538560, Note_on_c, 1, 64, 53
1, 538800, Note_on_c, 0, 74, 0
1, 538800, Note_on_c, 0, 73, 56
1, 538800, Note_on_c, 1, 64, 0
1, 539040, Note_on_c, 0, 73, 0
1, 539040, Note_on_c, 1, 64, 63
1, 539400, Note_on_c, 1, 64, 0
1, 539400, Note_on_c, 1, 66, 63
1, 539460, Note_on_c, 1, 66, 0
1, 539460, Note_on_c, 1, 64, 63
1, 539520, Note_on_c, 1, 64, 0
1, 539520, Note_on_c, 1, 62, 62
1, 539675, Note_on_c, 1, 62, 0
1, 539760, Note_on_c, 1, 64, 62
1, 539915, Note_on_c, 1, 64, 0
1, 540000, Note_on_c, 1, 65, 63
1, 540240, Note_on_c, 0, 81, 66
1, 540240, Note_on_c, 1, 65, 0
1, 540240, Note_on_c, 1, 66, 60
1, 540360, Note_on_c, 0, 81, 0
1, 540360, Note_on_c, 0, 73, 65
1, 540395, Note_on_c, 1, 66, 0
1, 540480, Note_on_c, 0, 73, 0
1, 540480, Note_on_c, 0, 76, 65
1, 540480, Note_on_c, 1, 66, 57
1, 540720, Note_on_c, 0, 76, 0
1, 540720, Note_on_c, 0, 75, 61
1, 540720, Note_on_c, 1, 66, 0
1, 540960, Note_on_c, 0, 75, 0
1, 540960, Note_on_c, 0, 76, 63
1, 541200, Note_on_c, 1, 67, 69
1, 541200, Note_on_c, 1, 71, 69
1, 541320, Note_on_c, 0, 76, 0
1, 541320, Note_on_c, 0, 75, 62
1, 541380, Note_on_c, 0, 75, 0
1, 541380, Note_on_c, 0, 76, 62
1, 541440, Note_on_c, 0, 76, 0
1, 541440, Note_on_c, 0, 78, 62
1, 541440, Note_on_c, 1, 71, 0
1, 541440, Note_on_c, 1, 67, 0
1, 541440, Note_on_c, 1, 66, 68
1, 541440, Note_on_c, 1, 69, 68
1, 541595, Note_on_c, 0, 78, 0
1, 541680, Note_on_c, 0, 79, 61
1, 541680, Note_on_c, 1, 69, 0
1, 541680, Note_on_c, 1, 66, 0
1, 541680, Note_on_c, 1, 67, 67
1, 541680, Note_on_c, 1, 64, 67
1, 541835, Note_on_c, 0, 79, 0
1, 541920, Note_on_c, 0, 72, 61
1, 541920, Note_on_c, 1, 64, 0
1, 541920, Note_on_c, 1, 67, 0
1, 541920, Note_on_c, 1, 69, 67
1, 541920, Note_on_c, 1, 63, 67
1, 542160, Note_on_c, 0, 72, 0
1, 542160, Note_on_c, 0, 71, 60
1, 542315, Note_on_c, 0, 71, 0
1, 542400, Note_on_c, 1, 63, 0
1, 542400, Note_on_c, 1, 69, 0
1, 542400, Note_on_c, 1, 64, 65
1, 542400, Note_on_c, 1, 67, 65
1, 542640, Note_on_c, 0, 79, 60
1, 542795, Note_on_c, 0, 79, 0
1, 542880, Note_on_c, 0, 70, 63
1, 542880, Note_on_c, 1, 64, 0
1, 542880, Note_on_c, 1, 61, 63
1, 543120, Note_on_c, 0, 70, 0
1, 543120, Note_on_c, 0, 69, 62
1, 543275, Note_on_c, 0, 69, 0
1, 543360, Note_on_c, 1, 61, 0
1, 543360, Note_on_c, 1, 67, 0
1, 543360, Note_on_c, 1, 62, 61
1, 543360, Note_on_c, 1, 66, 61
1, 543600, Note_on_c, 0, 69, 60
1, 543720, Note_on_c, 0, 69, 0
1, 543720, Note_on_c, 0, 78, 60
1, 543840, Note_on_c, 0, 78, 0
1, 543840, Note_on_c, 0, 76, 59
1, 543840, Note_on_c, 1, 62, 0
1, 543840, Note_on_c, 1, 59, 59
1, 544080, Note_on_c, 0, 76, 0
1, 544080, Note_on_c, 0, 74, 58
1, 544080, Note_on_c, 1, 66, 0
1, 544080, Note_on_c, 1, 65, 58
1, 544320, Note_on_c, 1, 65, 0
1, 544320, Note_on_c, 1, 59, 0
1, 544320, Note_on_c, 1, 64, 57
1, 544320, Note_on_c, 1, 58, 57
1, 544560, Note_on_c, 0, 74, 0
1, 544560, Note_on_c, 0, 68, 56
1, 544560, Note_on_c, 1, 64, 0
1, 544560, Note_on_c, 1, 62, 56
1, 544800, Note_on_c, 0, 68, 0
1, 544800, Note_on_c, 0, 69, 75
1, 544800, Note_on_c, 1, 62, 0
1, 544800, Note_on_c, 1, 58, 0
1, 544800, Note_on_c, 1, 61, 56
1, 544800, Note_on_c, 1, 57, 56
1, 545160, Note_on_c, 0, 69, 0
1, 545160, Note_on_c, 0, 71, 74
1, 545220, Note_on_c, 0, 71, 0
1, 545220, Note_on_c, 0, 69, 74
1, 545280, Note_on_c, 0, 69, 0
1, 545280, Note_on_c, 0, 68, 74
1, 545280, Note_on_c, 1, 57, 0
1, 545280, Note_on_c, 1, 61, 0
1, 545435, Note_on_c, 0, 68, 0
1, 545520, Note_on_c, 0, 69, 73
1, 545675, Note_on_c, 0, 69, 0
1, 545760, Note_on_c, 0, 70, 73
1, 545760, Note_on_c, 0, 62, 73
1, 545760, Note_on_c, 1, 45, 69
1, 545760, Note_on_c, 1, 57, 69
1, 546000, Note_on_c, 0, 70, 0
1, 546000, Note_on_c, 0, 71, 72
1, 546120, Note_on_c, 1, 57, 0
1, 546120, Note_on_c, 1, 56, 68
1, 546155, Note_on_c, 0, 71, 0
1, 546180, Note_on_c, 1, 56, 0
1, 546180, Note_on_c, 1, 57, 68
1, 546240, Note_on_c, 0, 71, 70
1, 546240, Note_on_c, 1, 57, 0
1, 546240, Note_on_c, 1, 59, 68
1, 546395, Note_on_c, 1, 59, 0
1, 546480, Note_on_c, 0, 71, 0
1, 546480, Note_on_c, 1, 57, 67
1, 546612, Note_on_c, 0, 62, 0
1, 546635, Note_on_c, 1, 57, 0
1, 546720, Note_on_c, 0, 73, 79
1, 546720, Note_on_c, 0, 64, 79
1, 546720, Note_on_c, 1, 45, 0
1, 546720, Note_on_c, 1, 45, 65
1, 546720, Note_on_c, 1, 57, 65
1, 546960, Note_on_c, 1, 57, 0
1, 546960, Note_on_c, 1, 55, 62
1, 547080, Note_on_c, 0, 73, 0
1, 547080, Note_on_c, 0, 74, 80
1, 547115, Note_on_c, 1, 55, 0
1, 547140, Note_on_c, 0, 74, 0
1, 547140, Note_on_c, 0, 73, 80
1, 547200, Note_on_c, 0, 73, 0
1, 547200, Note_on_c, 0, 71, 81
1, 547200, Note_on_c, 1, 55, 60
1, 547355, Note_on_c, 0, 71, 0
1, 547415, Note_on_c, 1, 55, 0
1, 547440, Note_on_c, 0, 73, 80
1, 547572, Note_on_c, 0, 64, 0
1, 547595, Note_on_c, 0, 73, 0
1, 547680, Note_on_c, 0, 73, 80
1, 547680, Note_on_c, 0, 69, 80
1, 547680, Note_on_c, 1, 45, 0
1, 547680, Note_on_c, 1, 45, 71
1, 547680, Note_on_c, 1, 54, 71
1, 547920, Note_on_c, 0, 73, 0
1, 547920, Note_on_c, 0, 74, 79
1, 548040, Note_on_c, 1, 54, 0
1, 548040, Note_on_c, 1, 52, 71
1, 548075, Note_on_c, 0, 74, 0
1, 548100, Note_on_c, 1, 52, 0
1, 548100, Note_on_c, 1, 54, 71
1, 548160, Note_on_c, 0, 74, 77
1, 548160, Note_on_c, 1, 54, 0
1, 548160, Note_on_c, 1, 55, 71
1, 548315, Note_on_c, 1, 55, 0
1, 548400, Note_on_c, 0, 74, 0
1, 548400, Note_on_c, 1, 54, 70
1, 548532, Note_on_c, 0, 69, 0
1, 548555, Note_on_c, 1, 54, 0
1, 548640, Note_on_c, 0, 76, 89
1, 548640, Note_on_c, 0, 73, 89
1, 548640, Note_on_c, 1, 45, 0
1, 548640, Note_on_c, 1, 45, 73
1, 548640, Note_on_c, 1, 54, 73
1, 548880, Note_on_c, 1, 54, 0
1, 548880, Note_on_c, 1, 52, 69
1, 549000, Note_on_c, 0, 76, 0
1, 549000, Note_on_c, 0, 78, 87
1, 549035, Note_on_c, 1, 52, 0
1, 549060, Note_on_c, 0, 78, 0
1, 549060, Note_on_c, 0, 76, 87
1, 549120, Note_on_c, 0, 76, 0
1, 549120, Note_on_c, 0, 74, 86
1, 549120, Note_on_c, 1, 52, 66
1, 549275, Note_on_c, 0, 74, 0
1, 549275, Note_on_c, 1, 52, 0
1, 549360, Note_on_c, 0, 76, 85
1, 549515, Note_on_c, 0, 76, 0
1, 549546, Note_on_c, 0, 73, 0
1, 549600, Note_on_c, 0, 78, 81
1, 549600, Note_on_c, 0, 69, 81
1, 549600, Note_on_c, 1, 45, 0
1, 549600, Note_on_c, 1, 62, 77
1, 549600, Note_on_c, 1, 57, 77
1, 549960, Note_on_c, 0, 78, 0
1, 549960, Note_on_c, 0, 79, 90
1, 549960, Note_on_c, 1, 62, 0
1, 549960, Note_on_c, 1, 64, 76
1, 550020, Note_on_c, 0, 79, 0
1, 550020, Note_on_c, 0, 78, 89
1, 550020, Note_on_c, 1, 64, 0
1, 550020, Note_on_c, 1, 62, 76
1, 550080, Note_on_c, 0, 78, 0
1, 550080, Note_on_c, 0, 76, 89
1, 550080, Note_on_c, 1, 62, 0
1, 550080, Note_on_c, 1, 61, 75
1, 550235, Note_on_c, 0, 76, 0
1, 550235, Note_on_c, 1, 61, 0
1, 550320, Note_on_c, 0, 78, 88
1, 550320, Note_on_c, 1, 63, 75
1, 550452, Note_on_c, 0, 69, 0
1, 550475, Note_on_c, 0, 78, 0
1, 550475, Note_on_c, 1, 63, 0
1, 550560, Note_on_c, 0, 79, 99
1, 550560, Note_on_c, 1, 57, 0
1, 550560, Note_on_c, 1, 64, 82
1, 550560, Note_on_c, 1, 57, 82
1, 550640, Note_on_c, 0, 79, 0
1, 550640, Note_on_c, 0, 76, 99
1, 550720, Note_on_c, 0, 76, 0
1, 550720, Note_on_c, 0, 73, 99
1, 550800, Note_on_c, 0, 73, 0
1, 550800, Note_on_c, 0, 69, 98
1, 550880, Note_on_c, 0, 69, 0
1, 550880, Note_on_c, 0, 67, 98
1, 550960, Note_on_c, 0, 67, 0
1, 550960, Note_on_c, 0, 64, 98
1, 551040, Note_on_c, 0, 64, 0
1, 551040, Note_on_c, 0, 61, 98
1, 551040, Note_on_c, 1, 57, 0
1, 551040, Note_on_c, 1, 64, 0
1, 551120, Note_on_c, 0, 61, 0
1, 551120, Note_on_c, 0, 64, 97
1, 551200, Note_on_c, 0, 64, 0
1, 551200, Note_on_c, 0, 67, 97
1, 551280, Note_on_c, 0, 67, 0
1, 551280, Note_on_c, 0, 69, 97
1, 551360, Note_on_c, 0, 69, 0
1, 551360, Note_on_c, 0, 73, 97
1, 551440, Note_on_c, 0, 73, 0
1, 551440, Note_on_c, 0, 76, 96
1, 551520, Note_on_c, 0, 76, 0
1, 551520, Note_on_c, 0, 79, 96
1, 551600, Note_on_c, 0, 79, 0
1, 551600, Note_on_c, 0, 76, 96
1, 551680, Note_on_c, 0, 76, 0
1, 551680, Note_on_c, 0, 73, 95
1, 551760, Note_on_c, 0, 73, 0
1, 551760, Note_on_c, 0, 69, 95
1, 551840, Note_on_c, 0, 69, 0
1, 551840, Note_on_c, 0, 67, 95
1, 551920, Note_on_c, 0, 67, 0
1, 551920, Note_on_c, 0, 64, 95
1, 552000, Note_on_c, 0, 64, 0
1, 552000, Note_on_c, 0, 61, 94
1, 552080, Note_on_c, 0, 61, 0
1, 552080, Note_on_c, 0, 64, 94
1, 552160, Note_on_c, 0, 64, 0
1, 552160, Note_on_c, 0, 67, 94
1, 552240, Note_on_c, 0, 67, 0
1, 552240, Note_on_c, 0, 69, 93
1, 552320, Note_on_c, 0, 69, 0
1, 552320, Note_on_c, 0, 73, 93
1, 552400, Note_on_c, 0, 73, 0
1, 552400, Note_on_c, 0, 76, 93
1, 552480, Note_on_c, 0, 76, 0
1, 552480, Note_on_c, 0, 79, 93
1, 552480, Note_on_c, 1, 64, 95
1, 552560, Note_on_c, 0, 79, 0
1, 552560, Note_on_c, 0, 76, 92
1, 552635, Note_on_c, 1, 64, 0
1, 552640, Note_on_c, 0, 76, 0
1, 552640, Note_on_c, 0, 79, 92
1, 552720, Note_on_c, 0, 79, 0
1, 552720, Note_on_c, 0, 78, 92
1, 552720, Note_on_c, 1, 62, 94
1, 552800, Note_on_c, 0, 78, 0
1, 552800, Note_on_c, 0, 74, 92
1, 552875, Note_on_c, 1, 62, 0
1, 552880, Note_on_c, 0, 74, 0
1, 552880, Note_on_c, 0, 78, 91
1, 552960, Note_on_c, 0, 78, 0
1, 552960, Note_on_c, 0, 76, 91
1, 552960, Note_on_c, 1, 61, 92
1, 553040, Note_on_c, 0, 76, 0
1, 553040, Note_on_c, 0, 73, 91
1, 553115, Note_on_c, 1, 61, 0
1, 553120, Note_on_c, 0, 73, 0
1, 553120, Note_on_c, 0, 76, 90
1, 553200, Note_on_c, 0, 76, 0
1, 553200, Note_on_c, 0, 74, 90
1, 553200, Note_on_c, 1, 59, 91
1, 553280, Note_on_c, 0, 74, 0
1, 553280, Note_on_c, 0, 71, 90
1, 553355, Note_on_c, 1, 59, 0
1, 553360, Note_on_c, 0, 71, 0
1, 553360, Note_on_c, 0, 74, 90
1, 553440, Note_on_c, 0, 74, 0
1, 553440, Note_on_c, 0, 73, 89
1, 553440, Note_on_c, 1, 57, 90
1, 553520, Note_on_c, 0, 73, 0
1, 553520, Note_on_c, 0, 69, 89
1, 553595, Note_on_c, 1, 57, 0
1, 553600, Note_on_c, 0, 69, 0
1, 553600, Note_on_c, 0, 73, 89
1, 553680, Note_on_c, 0, 73, 0
1, 553680, Note_on_c, 0, 71, 88
1, 553680, Note_on_c, 1, 55, 89
1, 553760, Note_on_c, 0, 71, 0
1, 553760, Note_on_c, 0, 67, 88
1, 553835, Note_on_c, 1, 55, 0
1, 553840, Note_on_c, 0, 67, 0
1, 553840, Note_on_c, 0, 71, 88
1, 553920, Note_on_c, 0, 71, 0
1, 553920, Note_on_c, 0, 69, 88
1, 553920, Note_on_c, 1, 54, 87
1, 554000, Note_on_c, 0, 69, 0
1, 554000, Note_on_c, 0, 66, 87
1, 554075, Note_on_c, 1, 54, 0
1, 554080, Note_on_c, 0, 66, 0
1, 554080, Note_on_c, 0, 69, 87
1, 554160, Note_on_c, 0, 69, 0
1, 554160, Note_on_c, 0, 67, 87
1, 554160, Note_on_c, 1, 52, 86
1, 554240, Note_on_c, 0, 67, 0
1, 554240, Note_on_c, 0, 64, 87
1, 554315, Note_on_c, 1, 52, 0
1, 554320, Note_on_c, 0, 64, 0
1, 554320, Note_on_c, 0, 67, 86
1, 554400, Note_on_c, 0, 67, 0
1, 554400, Note_on_c, 0, 66, 86
1, 554400, Note_on_c, 1, 50, 85
1, 554590, Note_on_c, 1, 50, 0
1, 554640, Note_on_c, 0, 66, 0
1, 554640, Note_on_c, 0, 81, 85
1, 554720, Note_on_c, 0, 81, 0
1, 554720, Note_on_c, 0, 78, 85
1, 554800, Note_on_c, 0, 78, 0
1, 554800, Note_on_c, 0, 74, 85
1, 554880, Note_on_c, 0, 74, 0
1, 554880, Note_on_c, 0, 73, 84
1, 554880, Note_on_c, 1, 69, 83
1, 554880, Note_on_c, 1, 67, 83
1, 554960, Note_on_c, 0, 73, 0
1, 554960, Note_on_c, 0, 76, 84
1, 555040, Note_on_c, 0, 76, 0
1, 555040, Note_on_c, 0, 69, 84
1, 555070, Note_on_c, 1, 67, 0
1, 555070, Note_on_c, 1, 69, 0
1, 555120, Note_on_c, 0, 69, 0
1, 555120, Note_on_c, 0, 81, 83
1, 555200, Note_on_c, 0, 81, 0
1, 555200, Note_on_c, 0, 79, 83
1, 555280, Note_on_c, 0, 79, 0
1, 555280, Note_on_c, 0, 76, 83
1, 555360, Note_on_c, 0, 76, 0
1, 555360, Note_on_c, 0, 74, 83
1, 555360, Note_on_c, 1, 69, 82
1, 555360, Note_on_c, 1, 66, 82
1, 555440, Note_on_c, 0, 74, 0
1, 555440, Note_on_c, 0, 78, 82
1, 555520, Note_on_c, 0, 78, 0
1, 555520, Note_on_c, 0, 69, 82
1, 555550, Note_on_c, 1, 66, 0
1, 555550, Note_on_c, 1, 69, 0
1, 555600, Note_on_c, 0, 69, 0
1, 555600, Note_on_c, 0, 81, 82
1, 555680, Note_on_c, 0, 81, 0
1, 555680, Note_on_c, 0, 78, 81
1, 555760, Note_on_c, 0, 78, 0
1, 555760, Note_on_c, 0, 74, 81
1, 555840, Note_on_c, 0, 74, 0
1, 555840, Note_on_c, 0, 73, 81
1, 555840, Note_on_c, 1, 69, 81
1, 555840, Note_on_c, 1, 67, 81
1, 555920, Note_on_c, 0, 73, 0
1, 555920, Note_on_c, 0, 76, 81
1, 556000, Note_on_c, 0, 76, 0
1, 556000, Note_on_c, 0, 69, 80
1, 556030, Note_on_c, 1, 67, 0
1, 556030, Note_on_c, 1, 69, 0
1, 556080, Note_on_c, 0, 69, 0
1, 556080, Note_on_c, 0, 81, 80
1, 556160, Note_on_c, 0, 81, 0
1, 556160, Note_on_c, 0, 79, 80
1, 556240, Note_on_c, 0, 79, 0
1, 556240, Note_on_c, 0, 76, 80
1, 556320, Note_on_c, 0, 76, 0
1, 556320, Note_on_c, 0, 78, 79
1, 556320, Note_on_c, 1, 69, 80
1, 556320, Note_on_c, 1, 66, 80
1, 556400, Note_on_c, 0, 78, 0
1, 556400, Note_on_c, 0, 81, 79
1, 556480, Note_on_c, 0, 81, 0
1, 556480, Note_on_c, 0, 69, 79
1, 556510, Note_on_c, 1, 66, 0
1, 556510, Note_on_c, 1, 69, 0
1, 556560, Note_on_c, 0, 69, 0
1, 556560, Note_on_c, 0, 81, 78
1, 556560, Note_on_c, 0, 72, 78
1, 556560, Note_on_c, 1, 66, 85
1, 556625, Note_on_c, 1, 66, 0
1, 556640, Note_on_c, 1, 69, 85
1, 556705, Note_on_c, 1, 69, 0
1, 556720, Note_on_c, 1, 66, 84
1, 556785, Note_on_c, 1, 66, 0
1, 556800, Note_on_c, 0, 72, 0
1, 556800, Note_on_c, 0, 71, 87
1, 556800, Note_on_c, 1, 63, 84
1, 556865, Note_on_c, 1, 63, 0
1, 556880, Note_on_c, 1, 66, 84
1, 556945, Note_on_c, 1, 66, 0
1, 556960, Note_on_c, 1, 63, 83
1, 557025, Note_on_c, 1, 63, 0
1, 557040, Note_on_c, 0, 81, 0
1, 557040, Note_on_c, 0, 79, 86
1, 557040, Note_on_c, 1, 64, 83
1, 557105, Note_on_c, 1, 64, 0
1, 557120, Note_on_c, 1, 67, 83
1, 557185, Note_on_c, 1, 67, 0
1, 557200, Note_on_c, 1, 64, 82
1, 557265, Note_on_c, 1, 64, 0
1, 557280, Note_on_c, 0, 71, 0
1, 557280, Note_on_c, 0, 69, 85
1, 557280, Note_on_c, 1, 61, 82
1, 557345, Note_on_c, 1, 61, 0
1, 557360, Note_on_c, 1, 64, 81
1, 557425, Note_on_c, 1, 64, 0
1, 557440, Note_on_c, 1, 61, 81
1, 557505, Note_on_c, 1, 61, 0
1, 557520, Note_on_c, 0, 79, 0
1, 557520, Note_on_c, 0, 78, 84
1, 557520, Note_on_c, 1, 62, 81
1, 557585, Note_on_c, 1, 62, 0
1, 557600, Note_on_c, 1, 66, 80
1, 557665, Note_on_c, 1, 66, 0
1, 557680, Note_on_c, 1, 62, 80
1, 557745, Note_on_c, 1, 62, 0
1, 557760, Note_on_c, 0, 69, 0
1, 557760, Note_on_c, 0, 67, 82
1, 557760, Note_on_c, 1, 59, 80
1, 557825, Note_on_c, 1, 59, 0
1, 557840, Note_on_c, 1, 62, 79
1, 557905, Note_on_c, 1, 62, 0
1, 557920, Note_on_c, 1, 59, 79
1, 557985, Note_on_c, 1, 59, 0
1, 558000, Note_on_c, 0, 78, 0
1, 558000, Note_on_c, 0, 76, 81
1, 558000, Note_on_c, 1, 61, 79
1, 558065, Note_on_c, 1, 61, 0
1, 558080, Note_on_c, 1, 64, 78
1, 558145, Note_on_c, 1, 64, 0
1, 558160, Note_on_c, 1, 61, 78
1, 558225, Note_on_c, 1, 61, 0
1, 558240, Note_on_c, 0, 67, 0
1, 558240, Note_on_c, 0, 66, 80
1, 558240, Note_on_c, 1, 58, 77
1, 558305, Note_on_c, 1, 58, 0
1, 558320, Note_on_c, 1, 61, 77
1, 558385, Note_on_c, 1, 61, 0
1, 558400, Note_on_c, 1, 58, 77
1, 558465, Note_on_c, 1, 58, 0
1, 558480, Note_on_c, 0, 76, 0
1, 558480, Note_on_c, 0, 74, 79
1, 558480, Note_on_c, 1, 59, 76
1, 558545, Note_on_c, 1, 59, 0
1, 558560, Note_on_c, 1, 62, 76
1, 558625, Note_on_c, 1, 62, 0
1, 558640, Note_on_c, 1, 59, 76
1, 558705, Note_on_c, 1, 59, 0
1, 558720, Note_on_c, 0, 66, 0
1, 558720, Note_on_c, 0, 64, 78
1, 558720, Note_on_c, 1, 56, 75
1, 558785, Note_on_c, 1, 56, 0
1, 558800, Note_on_c, 1, 59, 75
1, 558865, Note_on_c, 1, 59, 0
1, 558880, Note_on_c, 1, 56, 74
1, 558945, Note_on_c, 1, 56, 0
1, 558960, Note_on_c, 0, 74, 0
1, 558960, Note_on_c, 0, 73, 77
1, 558960, Note_on_c, 1, 57, 74
1, 559025, Note_on_c, 1, 57, 0
1, 559040, Note_on_c, 1, 59, 74
1, 559105, Note_on_c, 1, 59, 0
1, 559120, Note_on_c, 1, 57, 73
1, 559185, Note_on_c, 1, 57, 0
1, 559200, Note_on_c, 0, 73, 0
1, 559200, Note_on_c, 0, 64, 0
1, 559200, Note_on_c, 0, 74, 76
1, 559200, Note_on_c, 1, 54, 73
1, 559280, Note_on_c, 0, 74, 0
1, 559280, Note_on_c, 0, 86, 75
1, 559360, Note_on_c, 0, 86, 0
1, 559360, Note_on_c, 0, 81, 75
1, 559390, Note_on_c, 1, 54, 0
1, 559440, Note_on_c, 0, 81, 0
1, 559440, Note_on_c, 0, 83, 75
1, 559440, Note_on_c, 1, 55, 72
1, 559520, Note_on_c, 0, 83, 0
1, 559520, Note_on_c, 0, 86, 74
1, 559600, Note_on_c, 0, 86, 0
1, 559600, Note_on_c, 0, 79, 74
1, 559630, Note_on_c, 1, 55, 0
1, 559680, Note_on_c, 0, 79, 0
1, 559680, Note_on_c, 0, 78, 74
1, 559680, Note_on_c, 1, 57, 71
1, 559760, Note_on_c, 0, 78, 0
1, 559760, Note_on_c, 0, 81, 73
1, 559840, Note_on_c, 0, 81, 0
1, 559840, Note_on_c, 0, 74, 73
1, 559870, Note_on_c, 1, 57, 0
1, 559920, Note_on_c, 0, 74, 0
1, 559920, Note_on_c, 0, 76, 73
1, 559920, Note_on_c, 1, 45, 70
1, 560000, Note_on_c, 0, 76, 0
1, 560000, Note_on_c, 0, 79, 72
1, 560080, Note_on_c, 0, 79, 0
1, 560080, Note_on_c, 0, 73, 72
1, 560110, Note_on_c, 1, 45, 0
1, 560160, Note_on_c, 0, 73, 0
1, 560160, Note_on_c, 0, 74, 71
1, 560160, Note_on_c, 1, 50, 69
1, 560350, Note_on_c, 1, 50, 0
1, 560400, Note_on_c, 0, 74, 0
1, 560640, Note_on_c, 0, 78, 73
1, 560640, Note_on_c, 1, 69, 67
1, 560640, Note_on_c, 1, 62, 67
1, 560880, Note_on_c, 0, 78, 0
1, 560880, Note_on_c, 0, 76, 72
1, 560880, Note_on_c, 1, 62, 0
1, 560880, Note_on_c, 1, 69, 0
1, 560880, Note_on_c, 1, 70, 66
1, 560880, Note_on_c, 1, 61, 66
1, 561120, Note_on_c, 0, 76, 0
1, 561120, Note_on_c, 0, 74, 71
1, 561120, Note_on_c, 1, 61, 0
1, 561120, Note_on_c, 1, 70, 0
1, 561120, Note_on_c, 1, 71, 64
1, 561120, Note_on_c, 1, 59, 64
1, 561360, Note_on_c, 0, 74, 0
1, 561360, Note_on_c, 0, 73, 69
1, 561360, Note_on_c, 1, 59, 0
1, 561360, Note_on_c, 1, 71, 0
1, 561360, Note_on_c, 1, 66, 63
1, 561360, Note_on_c, 1, 57, 63
1, 561600, Note_on_c, 0, 73, 0
1, 561600, Note_on_c, 0, 71, 68
1, 561600, Note_on_c, 1, 57, 0
1, 561600, Note_on_c, 1, 66, 0
1, 561600, Note_on_c, 1, 67, 61
1, 561600, Note_on_c, 1, 55, 61
1, 561840, Note_on_c, 0, 71, 0
1, 561840, Note_on_c, 0, 69, 67
1, 561840, Note_on_c, 1, 55, 0
1, 561840, Note_on_c, 1, 67, 0
1, 561840, Note_on_c, 1, 62, 60
1, 561840, Note_on_c, 1, 54, 60
1, 562080, Note_on_c, 0, 69, 0
1, 562080, Note_on_c, 0, 69, 66
1, 562080, Note_on_c, 1, 54, 0
1, 562080, Note_on_c, 1, 62, 0
1, 562080, Note_on_c, 1, 61, 58
1, 562080, Note_on_c, 1, 52, 58
1, 562200, Note_on_c, 0, 69, 0
1, 562200, Note_on_c, 0, 67, 65
1, 562320, Note_on_c, 0, 67, 0
1, 562320, Note_on_c, 0, 66, 64
1, 562320, Note_on_c, 1, 52, 0
1, 562320, Note_on_c, 1, 61, 0
1, 562320, Note_on_c, 1, 50, 57
1, 562320, Note_on_c, 1, 62, 57
1, 562560, Note_on_c, 0, 66, 0
1, 562560, Note_on_c, 0, 69, 63
1, 562560, Note_on_c, 1, 62, 0
1, 562560, Note_on_c, 1, 50, 0
1, 562800, Note_on_c, 1, 57, 65
1, 562800, Note_on_c, 1, 54, 65
1, 563040, Note_on_c, 1, 54, 0
1, 563040, Note_on_c, 1, 57, 0
1, 563040, Note_on_c, 1, 62, 64
1, 563040, Note_on_c, 1, 59, 64
1, 563160, Note_on_c, 0, 69, 0
1, 563160, Note_on_c, 0, 67, 60
1, 563280, Note_on_c, 1, 59, 0
1, 563280, Note_on_c, 1, 62, 0
1, 563280, Note_on_c, 1, 57, 62
1, 563280, Note_on_c, 1, 61, 62
1, 563400, Note_on_c, 0, 67, 0
1, 563400, Note_on_c, 0, 66, 58
1, 563520, Note_on_c, 1, 61, 0
1, 563520, Note_on_c, 1, 57, 0
1, 563520, Note_on_c, 1, 59, 61
1, 563520, Note_on_c, 1, 55, 61
1, 563640, Note_on_c, 0, 66, 0
1, 563640, Note_on_c, 0, 64, 57
1, 563760, Note_on_c, 1, 55, 0
1, 563760, Note_on_c, 1, 59, 0
1, 563760, Note_on_c, 1, 59, 59
1, 563760, Note_on_c, 1, 56, 59
1, 563880, Note_on_c, 0, 64, 0
1, 563880, Note_on_c, 0, 62, 56
1, 564000, Note_on_c, 0, 62, 0
1, 564000, Note_on_c, 0, 66, 55
1, 564000, Note_on_c, 1, 56, 0
1, 564000, Note_on_c, 1, 59, 0
1, 564000, Note_on_c, 1, 62, 58
1, 564000, Note_on_c, 1, 57, 58
1, 564240, Note_on_c, 0, 66, 0
1, 564240, Note_on_c, 0, 64, 54
1, 564240, Note_on_c, 1, 62, 0
1, 564240, Note_on_c, 1, 61, 56
1, 564480, Note_on_c, 0, 64, 0
1, 564480, Note_on_c, 0, 78, 67
1, 564480, Note_on_c, 1, 61, 0
1, 564480, Note_on_c, 1, 57, 0
1, 564480, Note_on_c, 1, 62, 62
1, 564480, Note_on_c, 1, 69, 62
1, 564560, Note_on_c, 0, 78, 0
1, 564560, Note_on_c, 0, 79, 67
1, 564640, Note_on_c, 0, 79, 0
1, 564640, Note_on_c, 0, 78, 66
1, 564720, Note_on_c, 0, 78, 0
1, 564720, Note_on_c, 0, 76, 66
1, 564720, Note_on_c, 1, 62, 0
1, 564720, Note_on_c, 1, 61, 61
1, 564800, Note_on_c, 0, 76, 0
1, 564800, Note_on_c, 0, 80, 66
1, 564880, Note_on_c, 0, 80, 0
1, 564880, Note_on_c, 0, 81, 65
1, 564960, Note_on_c, 0, 81, 0
1, 564960, Note_on_c, 0, 74, 65
1, 564960, Note_on_c, 1, 61, 0
1, 564960, Note_on_c, 1, 69, 0
1, 564960, Note_on_c, 1, 59, 60
1, 564960, Note_on_c, 1, 66, 60
1, 565040, Note_on_c, 0, 74, 0
1, 565040, Note_on_c, 0, 76, 65
1, 565120, Note_on_c, 0, 76, 0
1, 565120, Note_on_c, 0, 74, 64
1, 565200, Note_on_c, 0, 74, 0
1, 565200, Note_on_c, 0, 73, 64
1, 565200, Note_on_c, 1, 59, 0
1, 565200, Note_on_c, 1, 57, 60
1, 565280, Note_on_c, 0, 73, 0
1, 565280, Note_on_c, 0, 77, 63
1, 565360, Note_on_c, 0, 77, 0
1, 565360, Note_on_c, 0, 78, 63
1, 565440, Note_on_c, 0, 78, 0
1, 565440, Note_on_c, 0, 71, 63
1, 565440, Note_on_c, 1, 57, 0
1, 565440, Note_on_c, 1, 66, 0
1, 565440, Note_on_c, 1, 55, 59
1, 565440, Note_on_c, 1, 62, 59
1, 565520, Note_on_c, 0, 71, 0
1, 565520, Note_on_c, 0, 72, 62
1, 565600, Note_on_c, 0, 72, 0
1, 565600, Note_on_c, 0, 71, 62
1, 565680, Note_on_c, 0, 71, 0
1, 565680, Note_on_c, 0, 69, 62
1, 565680, Note_on_c, 1, 55, 0
1, 565680, Note_on_c, 1, 54, 58
1, 565760, Note_on_c, 0, 69, 0
1, 565760, Note_on_c, 0, 73, 61
1, 565840, Note_on_c, 0, 73, 0
1, 565840, Note_on_c, 0, 74, 61
1, 565920, Note_on_c, 0, 74, 0
1, 565920, Note_on_c, 0, 69, 60
1, 565920, Note_on_c, 1, 54, 0
1, 565920, Note_on_c, 1, 62, 0
1, 565920, Note_on_c, 1, 61, 57
1, 565920, Note_on_c, 1, 52, 57
1, 566040, Note_on_c, 0, 69, 0
1, 566040, Note_on_c, 0, 67, 60
1, 566160, Note_on_c, 0, 67, 0
1, 566160, Note_on_c, 0, 66, 59
1, 566160, Note_on_c, 1, 52, 0
1, 566160, Note_on_c, 1, 61, 0
1, 566160, Note_on_c, 1, 50, 57
1, 566160, Note_on_c, 1, 62, 57
1, 566400, Note_on_c, 0, 66, 0
1, 566400, Note_on_c, 0, 81, 71
1, 566400, Note_on_c, 1, 62, 0
1, 566400, Note_on_c, 1, 50, 0
1, 566640, Note_on_c, 1, 62, 61
1, 566640, Note_on_c, 1, 54, 61
1, 566880, Note_on_c, 1, 54, 0
1, 566880, Note_on_c, 1, 55, 59
1, 567000, Note_on_c, 0, 81, 0
1, 567000, Note_on_c, 0, 83, 65
1, 567120, Note_on_c, 0, 83, 0
1, 567120, Note_on_c, 0, 79, 64
1, 567120, Note_on_c, 1, 62, 0
1, 567120, Note_on_c, 1, 67, 57
1, 567240, Note_on_c, 0, 79, 0
1, 567240, Note_on_c, 0, 76, 63
1, 567360, Note_on_c, 0, 76, 0
1, 567360, Note_on_c, 0, 74, 62
1, 567360, Note_on_c, 1, 67, 0
1, 567360, Note_on_c, 1, 55, 0
1, 567360, Note_on_c, 1, 66, 56
1, 567360, Note_on_c, 1, 57, 56
1, 567600, Note_on_c, 0, 74, 0
1, 567600, Note_on_c, 0, 78, 59
1, 567600, Note_on_c, 1, 66, 0
1, 567600, Note_on_c, 1, 61, 54
1, 567720, Note_on_c, 0, 78, 0
1, 567720, Note_on_c, 0, 76, 58
1, 567840, Note_on_c, 0, 76, 0
1, 567840, Note_on_c, 0, 74, 57
1, 567840, Note_on_c, 1, 61, 0
1, 567840, Note_on_c, 1, 57, 0
1, 567840, Note_on_c, 1, 38, 72
1, 567920, Note_on_c, 1, 38, 0
1, 567920, Note_on_c, 1, 42, 72
1, 568000, Note_on_c, 1, 42, 0
1, 568000, Note_on_c, 1, 45, 73
1, 568080, Note_on_c, 0, 74, 0
1, 568080, Note_on_c, 1, 45, 0
1, 568080, Note_on_c, 1, 50, 73
1, 568160, Note_on_c, 1, 50, 0
1, 568160, Note_on_c, 1, 54, 74
1, 568240, Note_on_c, 1, 54, 0
1, 568240, Note_on_c, 1, 57, 74
1, 568320, Note_on_c, 0, 86, 76
1, 568320, Note_on_c, 1, 57, 0
1, 568320, Note_on_c, 1, 62, 74
1, 568400, Note_on_c, 0, 86, 0
1, 568400, Note_on_c, 0, 81, 77
1, 568480, Note_on_c, 0, 81, 0
1, 568480, Note_on_c, 0, 78, 77
1, 568560, Note_on_c, 0, 78, 0
1, 568560, Note_on_c, 0, 74, 78
1, 568560, Note_on_c, 1, 62, 0
1, 568640, Note_on_c, 0, 74, 0
1, 568640, Note_on_c, 0, 69, 78
1, 568720, Note_on_c, 0, 69, 0
1, 568720, Note_on_c, 0, 66, 79
1, 568800, Note_on_c, 0, 66, 0
1, 568800, Note_on_c, 0, 64, 79
1, 568800, Note_on_c, 1, 38, 77
1, 568880, Note_on_c, 1, 38, 0
1, 568880, Note_on_c, 1, 43, 77
1, 568960, Note_on_c, 1, 43, 0
1, 568960, Note_on_c, 1, 49, 78
1, 569040, Note_on_c, 0, 64, 0
1, 569040, Note_on_c, 1, 49, 0
1, 569040, Note_on_c, 1, 52, 78
1, 569120, Note_on_c, 1, 52, 0
1, 569120, Note_on_c, 1, 55, 79
1, 569200, Note_on_c, 1, 55, 0
1, 569200, Note_on_c, 1, 57, 79
1, 569280, Note_on_c, 0, 88, 83
1, 569280, Note_on_c, 1, 57, 0
1, 569280, Note_on_c, 1, 61, 79
1, 569360, Note_on_c, 0, 88, 0
1, 569360, Note_on_c, 0, 85, 83
1, 569440, Note_on_c, 0, 85, 0
1, 569440, Note_on_c, 0, 79, 84
1, 569520, Note_on_c, 0, 79, 0
1, 569520, Note_on_c, 0, 76, 84
1, 569520, Note_on_c, 1, 61, 0
1, 569600, Note_on_c, 0, 76, 0
1, 569600, Note_on_c, 0, 73, 85
1, 569680, Note_on_c, 0, 73, 0
1, 569680, Note_on_c, 0, 67, 85
1, 569760, Note_on_c, 0, 67, 0
1, 569760, Note_on_c, 0, 66, 86
1, 569760, Note_on_c, 1, 38, 82
1, 569840, Note_on_c, 1, 38, 0
1, 569840, Note_on_c, 1, 42, 82
1, 569920, Note_on_c, 1, 42, 0
1, 569920, Note_on_c, 1, 45, 83
1, 570000, Note_on_c, 0, 66, 0
1, 570000, Note_on_c, 1, 45, 0
1, 570000, Note_on_c, 1, 50, 83
1, 570080, Note_on_c, 1, 50, 0
1, 570080, Note_on_c, 1, 54, 83
1, 570160, Note_on_c, 1, 54, 0
1, 570160, Note_on_c, 1, 57, 84
1, 570240, Note_on_c, 0, 84, 89
1, 570240, Note_on_c, 1, 57, 0
1, 570240, Note_on_c, 1, 62, 84
1, 570320, Note_on_c, 0, 84, 0
1, 570320, Note_on_c, 0, 81, 90
1, 570400, Note_on_c, 0, 81, 0
1, 570400, Note_on_c, 0, 78, 90
1, 570480, Note_on_c, 0, 78, 0
1, 570480, Note_on_c, 0, 74, 91
1, 570480, Note_on_c, 1, 62, 0
1, 570560, Note_on_c, 0, 74, 0
1, 570560, Note_on_c, 0, 72, 91
1, 570640, Note_on_c, 0, 72, 0
1, 570640, Note_on_c, 0, 69, 92
1, 570720, Note_on_c, 0, 69, 0
1, 570720, Note_on_c, 1, 69, 86
1, 570720, Note_on_c, 1, 63, 86
1, 570800, Note_on_c, 0, 71, 92
1, 570880, Note_on_c, 0, 71, 0
1, 570880, Note_on_c, 0, 75, 92
1, 570960, Note_on_c, 0, 75, 0
1, 570960, Note_on_c, 0, 78, 91
1, 571040, Note_on_c, 0, 78, 0
1, 571040, Note_on_c, 0, 83, 90
1, 571120, Note_on_c, 0, 83, 0
1, 571120, Note_on_c, 0, 71, 90
1, 571200, Note_on_c, 0, 71, 0
1, 571200, Note_on_c, 1, 63, 0
1, 571200, Note_on_c, 1, 69, 0
1, 571200, Note_on_c, 1, 68, 84
1, 571200, Note_on_c, 1, 62, 84
1, 571280, Note_on_c, 0, 76, 88
1, 571360, Note_on_c, 0, 76, 0
1, 571360, Note_on_c, 0, 80, 88
1, 571440, Note_on_c, 0, 80, 0
1, 571440, Note_on_c, 0, 83, 87
1, 571520, Note_on_c, 0, 83, 0
1, 571520, Note_on_c, 0, 88, 87
1, 571600, Note_on_c, 0, 88, 0
1, 571600, Note_on_c, 0, 76, 86
1, 571680, Note_on_c, 0, 76, 0
1, 571680, Note_on_c, 1, 62, 0
1, 571680, Note_on_c, 1, 68, 0
1, 571680, Note_on_c, 1, 67, 82
1, 571680, Note_on_c, 1, 61, 82
1, 571760, Note_on_c, 0, 69, 85
1, 571840, Note_on_c, 0, 69, 0
1, 571840, Note_on_c, 0, 73, 84
1, 571920, Note_on_c, 0, 73, 0
1, 571920, Note_on_c, 0, 76, 83
1, 572000, Note_on_c, 0, 76, 0
1, 572000, Note_on_c, 0, 81, 83
1, 572080, Note_on_c, 0, 81, 0
1, 572080, Note_on_c, 0, 69, 82
1, 572160, Note_on_c, 0, 69, 0
1, 572160, Note_on_c, 1, 61, 0
1, 572160, Note_on_c, 1, 67, 0
1, 572160, Note_on_c, 1, 60, 79
1, 572160, Note_on_c, 1, 66, 79
1, 572240, Note_on_c, 0, 74, 81
1, 572320, Note_on_c, 0, 74, 0
1, 572320, Note_on_c, 0, 78, 80
1, 572400, Note_on_c, 0, 78, 0
1, 572400, Note_on_c, 0, 81, 79
1, 572480, Note_on_c, 0, 81, 0
1, 572480, Note_on_c, 0, 86, 79
1, 572560, Note_on_c, 0, 86, 0
1, 572560, Note_on_c, 0, 74, 78
1, 572640, Note_on_c, 0, 74, 0
1, 572640, Note_on_c, 1, 66, 0
1, 572640, Note_on_c, 1, 60, 0
1, 572640, Note_on_c, 1, 59, 77
1, 572640, Note_on_c, 1, 62, 77
1, 572720, Note_on_c, 0, 81, 77
1, 572800, Note_on_c, 0, 81, 0
1, 572800, Note_on_c, 0, 79, 76
1, 572880, Note_on_c, 0, 79, 0
1, 572880, Note_on_c, 1, 62, 0
1, 572880, Note_on_c, 1, 59, 0
1, 572880, Note_on_c, 1, 57, 75
1, 572880, Note_on_c, 1, 61, 75
1, 572960, Note_on_c, 0, 79, 75
1, 573040, Note_on_c, 0, 79, 0
1, 573040, Note_on_c, 0, 78, 74
1, 573120, Note_on_c, 0, 78, 0
1, 573120, Note_on_c, 1, 61, 0
1, 573120, Note_on_c, 1, 57, 0
1, 573120, Note_on_c, 1, 59, 74
1, 573120, Note_on_c, 1, 55, 74
1, 573200, Note_on_c, 0, 78, 73
1, 573280, Note_on_c, 0, 78, 0
1, 573280, Note_on_c, 0, 76, 72
1, 573360, Note_on_c, 0, 76, 0
1, 573360, Note_on_c, 1, 55, 0
1, 573360, Note_on_c, 1, 56, 73
1, 573440, Note_on_c, 0, 76, 71
1, 573520, Note_on_c, 0, 76, 0
1, 573520, Note_on_c, 0, 74, 70
1, 573600, Note_on_c, 0, 74, 0
1, 573600, Note_on_c, 0, 73, 70
1, 573600, Note_on_c, 1, 56, 0
1, 573600, Note_on_c, 1, 59, 0
1, 573600, Note_on_c, 1, 57, 73
1, 573680, Note_on_c, 0, 73, 0
1, 573680, Note_on_c, 0, 69, 71
1, 573760, Note_on_c, 0, 69, 0
1, 573760, Note_on_c, 0, 76, 71
1, 573840, Note_on_c, 0, 76, 0
1, 573840, Note_on_c, 0, 73, 72
1, 573920, Note_on_c, 0, 73, 0
1, 573920, Note_on_c, 0, 81, 72
1, 574000, Note_on_c, 0, 81, 0
1, 574000, Note_on_c, 0, 76, 73
1, 574080, Note_on_c, 0, 76, 0
1, 574080, Note_on_c, 0, 85, 73
1, 574080, Note_on_c, 1, 57, 0
1, 574160, Note_on_c, 0, 85, 0
1, 574160, Note_on_c, 0, 81, 74
1, 574240, Note_on_c, 0, 81, 0
1, 574240, Note_on_c, 0, 88, 74
1, 574320, Note_on_c, 0, 88, 0
1, 574320, Note_on_c, 0, 85, 75
1, 574400, Note_on_c, 0, 85, 0
1, 574400, Note_on_c, 0, 81, 76
1, 574480, Note_on_c, 0, 81, 0
1, 574480, Note_on_c, 0, 76, 76
1, 574560, Note_on_c, 0, 76, 0
1, 574560, Note_on_c, 0, 78, 77
1, 574560, Note_on_c, 1, 62, 76
1, 574560, Note_on_c, 1, 57, 76
1, 574640, Note_on_c, 0, 78, 0
1, 574640, Note_on_c, 0, 74, 77
1, 574720, Note_on_c, 0, 74, 0
1, 574720, Note_on_c, 0, 81, 78
1, 574800, Note_on_c, 0, 81, 0
1, 574800, Note_on_c, 0, 78, 78
1, 574880, Note_on_c, 0, 78, 0
1, 574880, Note_on_c, 0, 86, 79
1, 574960, Note_on_c, 0, 86, 0
1, 574960, Note_on_c, 0, 81, 79
1, 575040, Note_on_c, 0, 81, 0
1, 575040, Note_on_c, 0, 78, 80
1, 575040, Note_on_c, 1, 57, 0
1, 575040, Note_on_c, 1, 62, 0
1, 575120, Note_on_c, 0, 78, 0
1, 575120, Note_on_c, 0, 81, 81
1, 575200, Note_on_c, 0, 81, 0
1, 575200, Note_on_c, 0, 74, 81
1, 575280, Note_on_c, 0, 74, 0
1, 575280, Note_on_c, 0, 78, 82
1, 575360, Note_on_c, 0, 78, 0
1, 575360, Note_on_c, 0, 69, 82
1, 575440, Note_on_c, 0, 69, 0
1, 575440, Note_on_c, 0, 74, 83
1, 575520, Note_on_c, 0, 74, 0
1, 575520, Note_on_c, 0, 73, 83
1, 575520, Note_on_c, 1, 61, 81
1, 575520, Note_on_c, 1, 64, 81
1, 575520, Note_on_c, 1, 57, 81
1, 575600, Note_on_c, 0, 73, 0
1, 575600, Note_on_c, 0, 69, 84
1, 575680, Note_on_c, 0, 69, 0
1, 575680, Note_on_c, 0, 76, 84
1, 575760, Note_on_c, 0, 76, 0
1, 575760, Note_on_c, 0, 73, 85
1, 575840, Note_on_c, 0, 73, 0
1, 575840, Note_on_c, 0, 81, 85
1, 575920, Note_on_c, 0, 81, 0
1, 575920, Note_on_c, 0, 76, 86
1, 576000, Note_on_c, 0, 76, 0
1, 576000, Note_on_c, 0, 85, 87
1, 576000, Note_on_c, 1, 57, 0
1, 576000, Note_on_c, 1, 64, 0
1, 576000, Note_on_c, 1, 61, 0
1, 576080, Note_on_c, 0, 85, 0
1, 576080, Note_on_c, 0, 81, 87
1, 576160, Note_on_c, 0, 81, 0
1, 576160, Note_on_c, 0, 88, 88
1, 576240, Note_on_c, 0, 88, 0
1, 576240, Note_on_c, 0, 85, 88
1, 576320, Note_on_c, 0, 85, 0
1, 576320, Note_on_c, 0, 81, 89
1, 576400, Note_on_c, 0, 81, 0
1, 576400, Note_on_c, 0, 76, 89
1, 576480, Note_on_c, 0, 76, 0
1, 576480, Note_on_c, 0, 77, 90
1, 576480, Note_on_c, 1, 62, 86
1, 576480, Note_on_c, 1, 65, 86
1, 576480, Note_on_c, 1, 57, 86
1, 576560, Note_on_c, 0, 77, 0
1, 576560, Note_on_c, 0, 74, 90
1, 576640, Note_on_c, 0, 74, 0
1, 576640, Note_on_c, 0, 81, 91
1, 576720, Note_on_c, 0, 81, 0
1, 576720, Note_on_c, 0, 77, 92
1, 576800, Note_on_c, 0, 77, 0
1, 576800, Note_on_c, 0, 86, 92
1, 576880, Note_on_c, 0, 86, 0
1, 576880, Note_on_c, 0, 81, 93
1, 576960, Note_on_c, 0, 81, 0
1, 576960, Note_on_c, 0, 77, 93
1, 576960, Note_on_c, 1, 57, 0
1, 576960, Note_on_c, 1, 65, 0
1, 576960, Note_on_c, 1, 62, 0
1, 577040, Note_on_c, 0, 77, 0
1, 577040, Note_on_c, 0, 81, 94
1, 577120, Note_on_c, 0, 81, 0
1, 577120, Note_on_c, 0, 74, 94
1, 577200, Note_on_c, 0, 74, 0
1, 577200, Note_on_c, 0, 77, 95
1, 577280, Note_on_c, 0, 77, 0
1, 577280, Note_on_c, 0, 69, 95
1, 577360, Note_on_c, 0, 69, 0
1, 577360, Note_on_c, 0, 74, 96
1, 577440, Note_on_c, 0, 74, 0
1, 577440, Note_on_c, 0, 73, 96
1, 577520, Note_on_c, 0, 73, 0
1, 577520, Note_on_c, 1, 57, 91
1, 577600, Note_on_c, 1, 57, 0
1, 577600, Note_on_c, 1, 61, 92
1, 577680, Note_on_c, 1, 61, 0
1, 577680, Note_on_c, 1, 64, 92
1, 577760, Note_on_c, 1, 64, 0
1, 577760, Note_on_c, 1, 69, 92
1, 577840, Note_on_c, 0, 73, 95
1, 577840, Note_on_c, 0, 69, 95
1, 577840, Note_on_c, 1, 69, 0
1, 577920, Note_on_c, 0, 69, 0
1, 577920, Note_on_c, 0, 73, 0
1, 577920, Note_on_c, 0, 71, 96
1, 577920, Note_on_c, 0, 74, 96
1, 578000, Note_on_c, 0, 74, 0
1, 578000, Note_on_c, 0, 71, 0
1, 578000, Note_on_c, 1, 57, 94
1, 578080, Note_on_c, 1, 57, 0
1, 578080, Note_on_c, 1, 59, 94
1, 578160, Note_on_c, 1, 59, 0
1, 578160, Note_on_c, 1, 62, 94
1, 578240, Note_on_c, 1, 62, 0
1, 578240, Note_on_c, 1, 68, 95
1, 578320, Note_on_c, 0, 71, 99
1, 578320, Note_on_c, 0, 74, 99
1, 578320, Note_on_c, 1, 68, 0
1, 578400, Note_on_c, 0, 74, 0
1, 578400, Note_on_c, 0, 71, 0
1, 578400, Note_on_c, 0, 73, 100
1, 578400, Note_on_c, 0, 76, 100
1, 578480, Note_on_c, 0, 76, 0
1, 578480, Note_on_c, 0, 73, 0
1, 578480, Note_on_c, 1, 57, 96
1, 578560, Note_on_c, 1, 57, 0
1, 578560, Note_on_c, 1, 61, 96
1, 578640, Note_on_c, 1, 61, 0
1, 578640, Note_on_c, 1, 64, 97
1, 578720, Note_on_c, 1, 64, 0
1, 578720, Note_on_c, 1, 67, 97
1, 578800, Note_on_c, 0, 76, 104
1, 578800, Note_on_c, 0, 73, 104
1, 578800, Note_on_c, 1, 67, 0
1, 578880, Note_on_c, 0, 73, 0
1, 578880, Note_on_c, 0, 76, 0
1, 578880, Note_on_c, 0, 78, 104
1, 578880, Note_on_c, 0, 74, 104
1, 578960, Note_on_c, 0, 74, 0
1, 578960, Note_on_c, 0, 78, 0
1, 578960, Note_on_c, 1, 57, 98
1, 579040, Note_on_c, 1, 57, 0
1, 579040, Note_on_c, 1, 61, 99
1, 579120, Note_on_c, 1, 61, 0
1, 579120, Note_on_c, 1, 62, 99
1, 579200, Note_on_c, 1, 62, 0
1, 579200, Note_on_c, 1, 66, 100
1, 579280, Note_on_c, 0, 78, 107
1, 579280, Note_on_c, 0, 74, 107
1, 579280, Note_on_c, 1, 66, 0
1, 579360, Note_on_c, 0, 74, 0
1, 579360, Note_on_c, 0, 78, 0
1, 579360, Note_on_c, 0, 79, 105
1, 579360, Note_on_c, 1, 45, 101
1, 579360, Note_on_c, 1, 57, 101
1, 579440, Note_on_c, 0, 79, 0
1, 579440, Note_on_c, 0, 85, 103
1, 579520, Note_on_c, 0, 85, 0
1, 579520, Note_on_c, 0, 88, 101
1, 579600, Note_on_c, 0, 88, 0
1, 579600, Note_on_c, 0, 78, 99
1, 579680, Note_on_c, 0, 78, 0
1, 579680, Note_on_c, 0, 88, 97
1, 579760, Note_on_c, 0, 88, 0
1, 579760, Note_on_c, 0, 86, 95
1, 579840, Note_on_c, 0, 86, 0
1, 579840, Note_on_c, 0, 76, 93
1, 579920, Note_on_c, 0, 76, 0
1, 579920, Note_on_c, 0, 79, 91
1, 580000, Note_on_c, 0, 79, 0
1, 580000, Note_on_c, 0, 85, 89
1, 580080, Note_on_c, 0, 85, 0
1, 580080, Note_on_c, 0, 74, 86
1, 580160, Note_on_c, 0, 74, 0
1, 580160, Note_on_c, 0, 85, 84
1, 580240, Note_on_c, 0, 85, 0
1, 580240, Note_on_c, 0, 83, 82
1, 580320, Note_on_c, 0, 83, 0
1, 580320, Note_on_c, 0, 73, 80
1, 580400, Note_on_c, 0, 73, 0
1, 580400, Note_on_c, 0, 76, 78
1, 580480, Note_on_c, 0, 76, 0
1, 580480, Note_on_c, 0, 81, 76
1, 580560, Note_on_c, 0, 81, 0
1, 580560, Note_on_c, 0, 71, 74
1, 580640, Note_on_c, 0, 71, 0
1, 580640, Note_on_c, 0, 81, 72
1, 580720, Note_on_c, 0, 81, 0
1, 580720, Note_on_c, 0, 79, 70
1, 580800, Note_on_c, 0, 79, 0
1, 580800, Note_on_c, 0, 69, 67
1, 580880, Note_on_c, 0, 69, 0
1, 580880, Note_on_c, 0, 73, 65
1, 580960, Note_on_c, 0, 73, 0
1, 580960, Note_on_c, 0, 78, 63
1, 581040, Note_on_c, 0, 78, 0
1, 581040, Note_on_c, 0, 67, 61
1, 581120, Note_on_c, 0, 67, 0
1, 581120, Note_on_c, 0, 78, 59
1, 581200, Note_on_c, 0, 78, 0
1, 581200, Note_on_c, 0, 76, 57
1, 581280, Note_on_c, 0, 76, 0
1, 581280, Note_on_c, 0, 74, 57
1, 581280, Note_on_c, 1, 57, 0
1, 581280, Note_on_c, 1, 45, 0
1, 581520, Note_on_c, 1, 69, 53
1, 581520, Note_on_c, 1, 66, 53
1, 581640, Note_on_c, 0, 74, 0
1, 581640, Note_on_c, 0, 76, 57
1, 581700, Note_on_c, 0, 76, 0
1, 581700, Note_on_c, 0, 74, 57
1, 581710, Note_on_c, 1, 66, 0
1, 581710, Note_on_c, 1, 69, 0
1, 581760, Note_on_c, 0, 74, 0
1, 581760, Note_on_c, 0, 73, 57
1, 581760, Note_on_c, 1, 66, 51
1, 581760, Note_on_c, 1, 69, 51
1, 581915, Note_on_c, 0, 73, 0
1, 581950, Note_on_c, 1, 69, 0
1, 581950, Note_on_c, 1, 66, 0
1, 582000, Note_on_c, 0, 74, 57
1, 582000, Note_on_c, 1, 69, 49
1, 582000, Note_on_c, 1, 66, 49
1, 582155, Note_on_c, 0, 74, 0
1, 582190, Note_on_c, 1, 66, 0
1, 582190, Note_on_c, 1, 69, 0
1, 582240, Note_on_c, 0, 75, 57
1, 582480, Note_on_c, 0, 75, 0
1, 582480, Note_on_c, 0, 76, 55
1, 582480, Note_on_c, 1, 67, 55
1, 582480, Note_on_c, 1, 71, 55
1, 582635, Note_on_c, 0, 76, 0
1, 582670, Note_on_c, 1, 71, 0
1, 582670, Note_on_c, 1, 67, 0
1, 582720, Note_on_c, 0, 76, 53
1, 582720, Note_on_c, 1, 67, 53
1, 582720, Note_on_c, 1, 71, 53
1, 582910, Note_on_c, 1, 71, 0
1, 582910, Note_on_c, 1, 67, 0
1, 582960, Note_on_c, 0, 76, 0
1, 582960, Note_on_c, 1, 67, 52
1, 582960, Note_on_c, 1, 71, 52
1, 583150, Note_on_c, 1, 71, 0
1, 583150, Note_on_c, 1, 67, 0
1, 583200, Note_on_c, 0, 76, 61
1, 583440, Note_on_c, 1, 61, 58
1, 583440, Note_on_c, 1, 69, 58
1, 583560, Note_on_c, 0, 76, 0
1, 583560, Note_on_c, 0, 78, 61
1, 583620, Note_on_c, 0, 78, 0
1, 583620, Note_on_c, 0, 76, 61
1, 583630, Note_on_c, 1, 69, 0
1, 583630, Note_on_c, 1, 61, 0
1, 583680, Note_on_c, 0, 76, 0
1, 583680, Note_on_c, 0, 74, 61
1, 583680, Note_on_c, 1, 61, 57
1, 583680, Note_on_c, 1, 69, 57
1, 583835, Note_on_c, 0, 74, 0
1, 583870, Note_on_c, 1, 69, 0
1, 583870, Note_on_c, 1, 61, 0
1, 583920, Note_on_c, 0, 76, 61
1, 583920, Note_on_c, 1, 61, 55
1, 583920, Note_on_c, 1, 69, 55
1, 584075, Note_on_c, 0, 76, 0
1, 584110, Note_on_c, 1, 69, 0
1, 584110, Note_on_c, 1, 61, 0
1, 584160, Note_on_c, 0, 77, 61
1, 584400, Note_on_c, 0, 77, 0
1, 584400, Note_on_c, 0, 78, 60
1, 584400, Note_on_c, 1, 62, 59
1, 584400, Note_on_c, 1, 69, 59
1, 584555, Note_on_c, 0, 78, 0
1, 584590, Note_on_c, 1, 69, 0
1, 584590, Note_on_c, 1, 62, 0
1, 584640, Note_on_c, 0, 78, 58
1, 584640, Note_on_c, 1, 62, 57
1, 584640, Note_on_c, 1, 69, 57
1, 584830, Note_on_c, 1, 69, 0
1, 584830, Note_on_c, 1, 62, 0
1, 584880, Note_on_c, 0, 78, 0
1, 584880, Note_on_c, 1, 62, 56
1, 584880, Note_on_c, 1, 69, 56
1, 585070, Note_on_c, 1, 69, 0
1, 585070, Note_on_c, 1, 62, 0
1, 585120, Note_on_c, 0, 81, 67
1, 585120, Note_on_c, 1, 66, 63
1, 585120, Note_on_c, 1, 69, 63
1, 585300, Note_on_c, 0, 81, 0
1, 585300, Note_on_c, 0, 83, 67
1, 585360, Note_on_c, 0, 83, 0
1, 585360, Note_on_c, 0, 79, 66
1, 585360, Note_on_c, 1, 66, 0
1, 585360, Note_on_c, 1, 64, 62
1, 585540, Note_on_c, 0, 79, 0
1, 585540, Note_on_c, 0, 81, 66
1, 585600, Note_on_c, 0, 81, 0
1, 585600, Note_on_c, 0, 78, 65
1, 585600, Note_on_c, 1, 64, 0
1, 585600, Note_on_c, 1, 62, 61
1, 585755, Note_on_c, 0, 78, 0
1, 585840, Note_on_c, 0, 74, 63
1, 585840, Note_on_c, 1, 62, 0
1, 585840, Note_on_c, 1, 69, 0
1, 585995, Note_on_c, 0, 74, 0
1, 586080, Note_on_c, 0, 79, 64
1, 586080, Note_on_c, 1, 69, 61
1, 586080, Note_on_c, 1, 64, 61
1, 586260, Note_on_c, 0, 79, 0
1, 586260, Note_on_c, 0, 81, 63
1, 586320, Note_on_c, 0, 81, 0
1, 586320, Note_on_c, 0, 78, 63
1, 586320, Note_on_c, 1, 64, 0
1, 586320, Note_on_c, 1, 66, 57
1, 586500, Note_on_c, 0, 78, 0
1, 586500, Note_on_c, 0, 79, 62
1, 586560, Note_on_c, 0, 79, 0
1, 586560, Note_on_c, 0, 76, 62
1, 586560, Note_on_c, 1, 66, 0
1, 586560, Note_on_c, 1, 67, 54
1, 586715, Note_on_c, 0, 76, 0
1, 586800, Note_on_c, 0, 73, 61
1, 586800, Note_on_c, 1, 67, 0
1, 586800, Note_on_c, 1, 69, 0
1, 586955, Note_on_c, 0, 73, 0
1, 587040, Note_on_c, 0, 74, 60
1, 587040, Note_on_c, 1, 66, 55
1, 587040, Note_on_c, 1, 69, 55
1, 587195, Note_on_c, 0, 74, 0
1, 587280, Note_on_c, 0, 74, 59
1, 587280, Note_on_c, 1, 69, 0
1, 587280, Note_on_c, 1, 66, 0
1, 587435, Note_on_c, 0, 74, 0
1, 587520, Note_on_c, 0, 73, 58
1, 587520, Note_on_c, 1, 69, 53
1, 587520, Note_on_c, 1, 64, 53
1, 587675, Note_on_c, 0, 73, 0
1, 587760, Note_on_c, 0, 73, 57
1, 587760, Note_on_c, 1, 64, 0
1, 587760, Note_on_c, 1, 69, 0
1, 587915, Note_on_c, 0, 73, 0
1, 588000, Note_on_c, 0, 71, 57
1, 588000, Note_on_c, 1, 52, 51
1, 588000, Note_on_c, 1, 62, 51
1, 588040, Note_on_c, 0, 71, 0
1, 588040, Note_on_c, 0, 73, 56
1, 588080, Note_on_c, 0, 73, 0
1, 588080, Note_on_c, 0, 71, 56
1, 588180, Note_on_c, 0, 69, 56
1, 588185, Note_on_c, 0, 71, 0
1, 588240, Note_on_c, 0, 69, 0
1, 588240, Note_on_c, 0, 71, 56
1, 588420, Note_on_c, 0, 71, 0
1, 588420, Note_on_c, 0, 73, 54
1, 588480, Note_on_c, 0, 73, 0
1, 588480, Note_on_c, 0, 69, 52
1, 588480, Note_on_c, 1, 62, 0
1, 588480, Note_on_c, 1, 52, 0
1, 588480, Note_on_c, 1, 57, 49
1, 588480, Note_on_c, 1, 61, 49
1, 588720, Note_on_c, 0, 69, 0
1, 588720, Note_on_c, 1, 61, 0
1, 588720, Note_on_c, 1, 57, 0
1, 588960, Note_on_c, 0, 74, 73
1, 588960, Note_on_c, 1, 62, 72
1, 589040, Note_on_c, 1, 62, 0
1, 589040, Note_on_c, 1, 64, 72
1, 589120, Note_on_c, 1, 64, 0
1, 589120, Note_on_c, 1, 66, 72
1, 589200, Note_on_c, 1, 66, 0
1, 589200, Note_on_c, 1, 64, 72
1, 589280, Note_on_c, 1, 64, 0
1, 589280, Note_on_c, 1, 62, 73
1, 589320, Note_on_c, 0, 74, 0
1, 589320, Note_on_c, 0, 76, 73
1, 589360, Note_on_c, 1, 62, 0
1, 589360, Note_on_c, 1, 61, 73
1, 589380, Note_on_c, 0, 76, 0
1, 589380, Note_on_c, 0, 74, 73
1, 589440, Note_on_c, 0, 74, 0
1, 589440, Note_on_c, 0, 73, 73
1, 589440, Note_on_c, 1, 61, 0
1, 589440, Note_on_c, 1, 59, 73
1, 589520, Note_on_c, 1, 59, 0
1, 589520, Note_on_c, 1, 61, 74
1, 589595, Note_on_c, 0, 73, 0
1, 589600, Note_on_c, 1, 61, 0
1, 589600, Note_on_c, 1, 62, 74
1, 589680, Note_on_c, 0, 74, 73
1, 589680, Note_on_c, 1, 62, 0
1, 589680, Note_on_c, 1, 61, 74
1, 589760, Note_on_c, 1, 61, 0
1, 589760, Note_on_c, 1, 59, 74
1, 589835, Note_on_c, 0, 74, 0
1, 589840, Note_on_c, 1, 59, 0
1, 589840, Note_on_c, 1, 57, 75
1, 589920, Note_on_c, 0, 75, 75
1, 589920, Note_on_c, 1, 57, 0
1, 589920, Note_on_c, 1, 55, 75
1, 590000, Note_on_c, 1, 55, 0
1, 590000, Note_on_c, 1, 57, 75
1, 590080, Note_on_c, 1, 57, 0
1, 590080, Note_on_c, 1, 59, 75
1, 590160, Note_on_c, 0, 75, 0
1, 590160, Note_on_c, 0, 76, 72
1, 590160, Note_on_c, 1, 59, 0
1, 590160, Note_on_c, 1, 57, 76
1, 590240, Note_on_c, 1, 57, 0
1, 590240, Note_on_c, 1, 55, 76
1, 590315, Note_on_c, 0, 76, 0
1, 590320, Note_on_c, 1, 55, 0
1, 590320, Note_on_c, 1, 54, 76
1, 590400, Note_on_c, 0, 76, 70
1, 590400, Note_on_c, 1, 54, 0
1, 590400, Note_on_c, 1, 52, 76
1, 590480, Note_on_c, 1, 52, 0
1, 590480, Note_on_c, 1, 54, 77
1, 590560, Note_on_c, 1, 54, 0
1, 590560, Note_on_c, 1, 55, 77
1, 590640, Note_on_c, 0, 76, 0
1, 590640, Note_on_c, 1, 55, 0
1, 590640, Note_on_c, 1, 54, 77
1, 590720, Note_on_c, 1, 54, 0
1, 590720, Note_on_c, 1, 52, 77
1, 590800, Note_on_c, 1, 52, 0
1, 590800, Note_on_c, 1, 50, 78
1, 590880, Note_on_c, 0, 76, 81
1, 590880, Note_on_c, 1, 50, 0
1, 590880, Note_on_c, 1, 49, 78
1, 590960, Note_on_c, 1, 49, 0
1, 590960, Note_on_c, 1, 50, 78
1, 591040, Note_on_c, 1, 50, 0
1, 591040, Note_on_c, 1, 52, 78
1, 591120, Note_on_c, 1, 52, 0
1, 591120, Note_on_c, 1, 50, 79
1, 591200, Note_on_c, 1, 50, 0
1, 591200, Note_on_c, 1, 49, 79
1, 591240, Note_on_c, 0, 76, 0
1, 591240, Note_on_c, 0, 78, 81
1, 591280, Note_on_c, 1, 49, 0
1, 591280, Note_on_c, 1, 47, 79
1, 591300, Note_on_c, 0, 78, 0
1, 591300, Note_on_c, 0, 76, 81
1, 591360, Note_on_c, 0, 76, 0
1, 591360, Note_on_c, 0, 74, 81
1, 591360, Note_on_c, 1, 47, 0
1, 591360, Note_on_c, 1, 45, 79
1, 591440, Note_on_c, 1, 45, 0
1, 591440, Note_on_c, 1, 47, 80
1, 591515, Note_on_c, 0, 74, 0
1, 591520, Note_on_c, 1, 47, 0
1, 591520, Note_on_c, 1, 45, 80
1, 591600, Note_on_c, 0, 76, 80
1, 591600, Note_on_c, 1, 45, 0
1, 591600, Note_on_c, 1, 43, 80
1, 591680, Note_on_c, 1, 43, 0
1, 591680, Note_on_c, 1, 42, 80
1, 591755, Note_on_c, 0, 76, 0
1, 591760, Note_on_c, 1, 42, 0
1, 591760, Note_on_c, 1, 40, 81
1, 591840, Note_on_c, 0, 77, 82
1, 591840, Note_on_c, 1, 40, 0
1, 591840, Note_on_c, 1, 38, 81
1, 591920, Note_on_c, 1, 38, 0
1, 591920, Note_on_c, 1, 42, 81
1, 592000, Note_on_c, 1, 42, 0
1, 592000, Note_on_c, 1, 43, 80
1, 592080, Note_on_c, 0, 77, 0
1, 592080, Note_on_c, 0, 78, 78
1, 592080, Note_on_c, 1, 43, 0
1, 592080, Note_on_c, 1, 45, 79
1, 592160, Note_on_c, 1, 45, 0
1, 592160, Note_on_c, 1, 47, 79
1, 592235, Note_on_c, 0, 78, 0
1, 592240, Note_on_c, 1, 47, 0
1, 592240, Note_on_c, 1, 49, 78
1, 592320, Note_on_c, 0, 78, 75
1, 592320, Note_on_c, 1, 49, 0
1, 592320, Note_on_c, 1, 50, 77
1, 592400, Note_on_c, 1, 50, 0
1, 592400, Note_on_c, 1, 52, 76
1, 592480, Note_on_c, 1, 52, 0
1, 592480, Note_on_c, 1, 54, 76
1, 592560, Note_on_c, 0, 78, 0
1, 592560, Note_on_c, 1, 54, 0
1, 592560, Note_on_c, 1, 55, 75
1, 592640, Note_on_c, 1, 55, 0
1, 592640, Note_on_c, 1, 57, 74
1, 592720, Note_on_c, 1, 57, 0
1, 592720, Note_on_c, 1, 59, 74
1, 592800, Note_on_c, 0, 62, 87
1, 592800, Note_on_c, 1, 59, 0
1, 592800, Note_on_c, 1, 60, 93
1, 592880, Note_on_c, 0, 62, 0
1, 592880, Note_on_c, 0, 66, 87
1, 592960, Note_on_c, 0, 66, 0
1, 592960, Note_on_c, 0, 69, 87
1, 593040, Note_on_c, 0, 69, 0
1, 593040, Note_on_c, 0, 74, 87
1, 593120, Note_on_c, 0, 74, 0
1, 593120, Note_on_c, 0, 76, 87
1, 593200, Note_on_c, 0, 76, 0
1, 593200, Note_on_c, 0, 78, 86
1, 593280, Note_on_c, 0, 78, 0
1, 593280, Note_on_c, 0, 79, 86
1, 593280, Note_on_c, 1, 60, 0
1, 593280, Note_on_c, 1, 59, 75
1, 593360, Note_on_c, 0, 79, 0
1, 593360, Note_on_c, 0, 78, 86
1, 593440, Note_on_c, 0, 78, 0
1, 593440, Note_on_c, 0, 79, 86
1, 593520, Note_on_c, 0, 79, 0
1, 593520, Note_on_c, 0, 83, 86
1, 593520, Note_on_c, 1, 59, 0
1, 593600, Note_on_c, 0, 83, 0
1, 593600, Note_on_c, 0, 79, 86
1, 593680, Note_on_c, 0, 79, 0
1, 593680, Note_on_c, 0, 74, 86
1, 593760, Note_on_c, 0, 74, 0
1, 593760, Note_on_c, 0, 69, 86
1, 593760, Note_on_c, 1, 55, 89
1, 593840, Note_on_c, 0, 69, 0
1, 593840, Note_on_c, 0, 73, 86
1, 593920, Note_on_c, 0, 73, 0
1, 593920, Note_on_c, 0, 76, 85
1, 594000, Note_on_c, 0, 76, 0
1, 594000, Note_on_c, 0, 81, 85
1, 594080, Note_on_c, 0, 81, 0
1, 594080, Note_on_c, 0, 83, 85
1, 594160, Note_on_c, 0, 83, 0
1, 594160, Note_on_c, 0, 85, 85
1, 594240, Note_on_c, 0, 85, 0
1, 594240, Note_on_c, 0, 86, 85
1, 594240, Note_on_c, 1, 55, 0
1, 594240, Note_on_c, 1, 54, 70
1, 594320, Note_on_c, 0, 86, 0
1, 594320, Note_on_c, 0, 85, 85
1, 594400, Note_on_c, 0, 85, 0
1, 594400, Note_on_c, 0, 83, 85
1, 594480, Note_on_c, 0, 83, 0
1, 594480, Note_on_c, 0, 81, 85
1, 594480, Note_on_c, 1, 54, 0
1, 594560, Note_on_c, 0, 81, 0
1, 594560, Note_on_c, 0, 79, 85
1, 594640, Note_on_c, 0, 79, 0
1, 594640, Note_on_c, 0, 78, 84
1, 594720, Note_on_c, 0, 78, 0
1, 594720, Note_on_c, 0, 75, 84
1, 594800, Note_on_c, 0, 75, 0
1, 594800, Note_on_c, 0, 76, 84
1, 594880, Note_on_c, 0, 76, 0
1, 594880, Note_on_c, 0, 79, 84
1, 594960, Note_on_c, 0, 79, 0
1, 594960, Note_on_c, 0, 83, 84
1, 594960, Note_on_c, 1, 55, 80
1, 594960, Note_on_c, 1, 67, 80
1, 595040, Note_on_c, 0, 83, 0
1, 595040, Note_on_c, 0, 79, 84
1, 595120, Note_on_c, 0, 79, 0
1, 595120, Note_on_c, 0, 76, 84
1, 595150, Note_on_c, 1, 67, 0
1, 595150, Note_on_c, 1, 55, 0
1, 595200, Note_on_c, 0, 76, 0
1, 595200, Note_on_c, 0, 81, 84
1, 595200, Note_on_c, 1, 57, 78
1, 595200, Note_on_c, 1, 66, 78
1, 595280, Note_on_c, 0, 81, 0
1, 595280, Note_on_c, 0, 78, 83
1, 595360, Note_on_c, 0, 78, 0
1, 595360, Note_on_c, 0, 74, 83
1, 595390, Note_on_c, 1, 66, 0
1, 595390, Note_on_c, 1, 57, 0
1, 595440, Note_on_c, 0, 74, 0
1, 595440, Note_on_c, 0, 79, 83
1, 595440, Note_on_c, 1, 57, 77
1, 595440, Note_on_c, 1, 64, 77
1, 595520, Note_on_c, 0, 79, 0
1, 595520, Note_on_c, 0, 76, 83
1, 595600, Note_on_c, 0, 76, 0
1, 595600, Note_on_c, 0, 73, 83
1, 595630, Note_on_c, 1, 64, 0
1, 595630, Note_on_c, 1, 57, 0
1, 595680, Note_on_c, 0, 73, 0
1, 595680, Note_on_c, 0, 74, 83
1, 595680, Note_on_c, 1, 57, 76
1, 595680, Note_on_c, 1, 62, 76
1, 595680, Note_on_c, 1, 54, 76
1, 595760, Note_on_c, 0, 74, 0
1, 595760, Note_on_c, 0, 78, 83
1, 595840, Note_on_c, 0, 78, 0
1, 595840, Note_on_c, 0, 81, 83
1, 595920, Note_on_c, 0, 81, 0
1, 595920, Note_on_c, 0, 86, 83
1, 596000, Note_on_c, 0, 86, 0
1, 596000, Note_on_c, 0, 74, 82
1, 596080, Note_on_c, 0, 74, 0
1, 596080, Note_on_c, 0, 86, 82
1, 596160, Note_on_c, 0, 86, 0
1, 596160, Note_on_c, 0, 86, 82
1, 596240, Note_on_c, 0, 86, 0
1, 596240, Note_on_c, 0, 85, 82
1, 596320, Note_on_c, 0, 85, 0
1, 596320, Note_on_c, 0, 83, 82
1, 596400, Note_on_c, 0, 83, 0
1, 596400, Note_on_c, 0, 81, 82
1, 596480, Note_on_c, 0, 81, 0
1, 596480, Note_on_c, 0, 79, 82
1, 596560, Note_on_c, 0, 79, 0
1, 596560, Note_on_c, 0, 78, 82
1, 596640, Note_on_c, 0, 78, 0
1, 596640, Note_on_c, 0, 71, 82
1, 596640, Note_on_c, 1, 54, 0
1, 596640, Note_on_c, 1, 62, 0
1, 596640, Note_on_c, 1, 57, 0
1, 596640, Note_on_c, 1, 62, 79
1, 596640, Note_on_c, 1, 64, 79
1, 596640, Note_on_c, 1, 55, 79
1, 596720, Note_on_c, 0, 71, 0
1, 596720, Note_on_c, 0, 76, 79
1, 596800, Note_on_c, 0, 76, 0
1, 596800, Note_on_c, 0, 79, 79
1, 596880, Note_on_c, 0, 79, 0
1, 596880, Note_on_c, 0, 83, 79
1, 596960, Note_on_c, 0, 83, 0
1, 596960, Note_on_c, 0, 71, 79
1, 597040, Note_on_c, 0, 71, 0
1, 597040, Note_on_c, 0, 83, 79
1, 597120, Note_on_c, 0, 83, 0
1, 597120, Note_on_c, 0, 83, 79
1, 597200, Note_on_c, 0, 83, 0
1, 597200, Note_on_c, 0, 81, 79
1, 597280, Note_on_c, 0, 81, 0
1, 597280, Note_on_c, 0, 79, 79
1, 597360, Note_on_c, 0, 79, 0
1, 597360, Note_on_c, 0, 78, 79
1, 597440, Note_on_c, 0, 78, 0
1, 597440, Note_on_c, 0, 76, 79
1, 597520, Note_on_c, 0, 76, 0
1, 597520, Note_on_c, 0, 74, 79
1, 597600, Note_on_c, 0, 74, 0
1, 597600, Note_on_c, 0, 69, 79
1, 597600, Note_on_c, 1, 55, 0
1, 597600, Note_on_c, 1, 64, 0
1, 597600, Note_on_c, 1, 62, 0
1, 597600, Note_on_c, 1, 62, 79
1, 597600, Note_on_c, 1, 57, 79
1, 597600, Note_on_c, 1, 66, 79
1, 597680, Note_on_c, 0, 69, 0
1, 597680, Note_on_c, 0, 74, 79
1, 597760, Note_on_c, 0, 74, 0
1, 597760, Note_on_c, 0, 78, 79
1, 597840, Note_on_c, 0, 78, 0
1, 597840, Note_on_c, 0, 81, 79
1, 597840, Note_on_c, 1, 66, 0
1, 597840, Note_on_c, 1, 57, 0
1, 597840, Note_on_c, 1, 62, 0
1, 597920, Note_on_c, 0, 81, 0
1, 597920, Note_on_c, 0, 78, 79
1, 598000, Note_on_c, 0, 78, 0
1, 598000, Note_on_c, 0, 74, 79
1, 598080, Note_on_c, 0, 74, 0
1, 598080, Note_on_c, 0, 69, 79
1, 598080, Note_on_c, 1, 64, 79
1, 598080, Note_on_c, 1, 57, 79
1, 598080, Note_on_c, 1, 67, 79
1, 598160, Note_on_c, 0, 69, 0
1, 598160, Note_on_c, 0, 73, 79
1, 598240, Note_on_c, 0, 73, 0
1, 598240, Note_on_c, 0, 76, 79
1, 598320, Note_on_c, 0, 76, 0
1, 598320, Note_on_c, 0, 79, 79
1, 598320, Note_on_c, 1, 67, 0
1, 598320, Note_on_c, 1, 57, 0
1, 598320, Note_on_c, 1, 64, 0
1, 598400, Note_on_c, 0, 79, 0
1, 598400, Note_on_c, 0, 76, 79
1, 598480, Note_on_c, 0, 76, 0
1, 598480, Note_on_c, 0, 73, 79
1, 598560, Note_on_c, 0, 73, 0
1, 598560, Note_on_c, 0, 74, 69
1, 598560, Note_on_c, 1, 62, 69
1, 598560, Note_on_c, 1, 57, 69
1, 598560, Note_on_c, 1, 54, 69
1, 598640, Note_on_c, 0, 74, 0
1, 598640, Note_on_c, 0, 78, 69
1, 598720, Note_on_c, 0, 78, 0
1, 598720, Note_on_c, 0, 81, 69
1, 598800, Note_on_c, 0, 81, 0
1, 598800, Note_on_c, 0, 86, 68
1, 598880, Note_on_c, 0, 86, 0
1, 598880, Note_on_c, 0, 74, 68
1, 598960, Note_on_c, 0, 74, 0
1, 598960, Note_on_c, 0, 86, 68
1, 599040, Note_on_c, 0, 86, 0
1, 599040, Note_on_c, 0, 86, 67
1, 599120, Note_on_c, 0, 86, 0
1, 599120, Note_on_c, 0, 85, 67
1, 599200, Note_on_c, 0, 85, 0
1, 599200, Note_on_c, 0, 83, 67
1, 599280, Note_on_c, 0, 83, 0
1, 599280, Note_on_c, 0, 81, 66
1, 599360, Note_on_c, 0, 81, 0
1, 599360, Note_on_c, 0, 79, 66
1, 599440, Note_on_c, 0, 79, 0
1, 599440, Note_on_c, 0, 78, 66
1, 599520, Note_on_c, 0, 78, 0
1, 599520, Note_on_c, 0, 71, 65
1, 599520, Note_on_c, 1, 54, 0
1, 599520, Note_on_c, 1, 57, 0
1, 599520, Note_on_c, 1, 62, 0
1, 599520, Note_on_c, 1, 62, 69
1, 599520, Note_on_c, 1, 64, 69
1, 599520, Note_on_c, 1, 55, 69
1, 599600, Note_on_c, 0, 71, 0
1, 599600, Note_on_c, 0, 76, 65
1, 599680, Note_on_c, 0, 76, 0
1, 599680, Note_on_c, 0, 79, 65
1, 599760, Note_on_c, 0, 79, 0
1, 599760, Note_on_c, 0, 83, 64
1, 599840, Note_on_c, 0, 83, 0
1, 599840, Note_on_c, 0, 71, 64
1, 599920, Note_on_c, 0, 71, 0
1, 599920, Note_on_c, 0, 83, 64
1, 600000, Note_on_c, 0, 83, 0
1, 600000, Note_on_c, 0, 83, 63
1, 600080, Note_on_c, 0, 83, 0
1, 600080, Note_on_c, 0, 81, 63
1, 600160, Note_on_c, 0, 81, 0
1, 600160, Note_on_c, 0, 79, 63
1, 600240, Note_on_c, 0, 79, 0
1, 600240, Note_on_c, 0, 78, 62
1, 600320, Note_on_c, 0, 78, 0
1, 600320, Note_on_c, 0, 76, 62
1, 600400, Note_on_c, 0, 76, 0
1, 600400, Note_on_c, 0, 74, 62
1, 600480, Note_on_c, 0, 74, 0
1, 600480, Note_on_c, 0, 69, 61
1, 600480, Note_on_c, 1, 55, 0
1, 600480, Note_on_c, 1, 64, 0
1, 600480, Note_on_c, 1, 62, 0
1, 600480, Note_on_c, 1, 62, 69
1, 600480, Note_on_c, 1, 57, 69
1, 600480, Note_on_c, 1, 66, 69
1, 600560, Note_on_c, 0, 69, 0
1, 600560, Note_on_c, 0, 74, 61
1, 600640, Note_on_c, 0, 74, 0
1, 600640, Note_on_c, 0, 78, 61
1, 600720, Note_on_c, 0, 78, 0
1, 600720, Note_on_c, 0, 81, 60
1, 600720, Note_on_c, 1, 66, 0
1, 600720, Note_on_c, 1, 57, 0
1, 600720, Note_on_c, 1, 62, 0
1, 600800, Note_on_c, 0, 81, 0
1, 600800, Note_on_c, 0, 78, 60
1, 600880, Note_on_c, 0, 78, 0
1, 600880, Note_on_c, 0, 74, 60
1, 600960, Note_on_c, 0, 74, 0
1, 600960, Note_on_c, 0, 69, 59
1, 600960, Note_on_c, 1, 64, 69
1, 600960, Note_on_c, 1, 67, 69
1, 600960, Note_on_c, 1, 57, 69
1, 601040, Note_on_c, 0, 69, 0
1, 601040, Note_on_c, 0, 73, 59
1, 601120, Note_on_c, 0, 73, 0
1, 601120, Note_on_c, 0, 76, 59
1, 601200, Note_on_c, 0, 76, 0
1, 601200, Note_on_c, 0, 79, 58
1, 601200, Note_on_c, 1, 57, 0
1, 601200, Note_on_c, 1, 67, 0
1, 601200, Note_on_c, 1, 64, 0
1, 601280, Note_on_c, 0, 79, 0
1, 601280, Note_on_c, 0, 76, 58
1, 601360, Note_on_c, 0, 76, 0
1, 601360, Note_on_c, 0, 73, 58
1, 601440, Note_on_c, 0, 73, 0
1, 601440, Note_on_c, 0, 74, 78
1, 601440, Note_on_c, 1, 50, 74
1, 601520, Note_on_c, 1, 50, 0
1, 601520, Note_on_c, 1, 62, 75
1, 601600, Note_on_c, 1, 62, 0
1, 601600, Note_on_c, 1, 61, 76
1, 601680, Note_on_c, 0, 74, 0
1, 601680, Note_on_c, 1, 61, 0
1, 601680, Note_on_c, 1, 62, 76
1, 601760, Note_on_c, 1, 62, 0
1, 601760, Note_on_c, 1, 61, 77
1, 601840, Note_on_c, 1, 61, 0
1, 601840, Note_on_c, 1, 62, 78
1, 601920, Note_on_c, 0, 83, 81
1, 601920, Note_on_c, 1, 62, 0
1, 601920, Note_on_c, 1, 79, 78
1, 601920, Note_on_c, 1, 50, 78
1, 602000, Note_on_c, 1, 50, 0
1, 602000, Note_on_c, 1, 62, 79
1, 602080, Note_on_c, 1, 62, 0
1, 602080, Note_on_c, 1, 61, 80
1, 602160, Note_on_c, 0, 83, 0
1, 602160, Note_on_c, 1, 61, 0
1, 602160, Note_on_c, 1, 79, 0
1, 602160, Note_on_c, 1, 62, 81
1, 602240, Note_on_c, 1, 62, 0
1, 602240, Note_on_c, 1, 61, 81
1, 602320, Note_on_c, 1, 61, 0
1, 602320, Note_on_c, 1, 62, 82
1, 602400, Note_on_c, 0, 81, 84
1, 602400, Note_on_c, 1, 62, 0
1, 602400, Note_on_c, 1, 78, 83
1, 602400, Note_on_c, 1, 50, 83
1, 602480, Note_on_c, 1, 50, 0
1, 602480, Note_on_c, 1, 62, 83
1, 602560, Note_on_c, 1, 62, 0
1, 602560, Note_on_c, 1, 61, 84
1, 602640, Note_on_c, 0, 81, 0
1, 602640, Note_on_c, 1, 61, 0
1, 602640, Note_on_c, 1, 78, 0
1, 602640, Note_on_c, 1, 62, 85
1, 602720, Note_on_c, 1, 62, 0
1, 602720, Note_on_c, 1, 61, 86
1, 602800, Note_on_c, 1, 61, 0
1, 602800, Note_on_c, 1, 62, 86
1, 602880, Note_on_c, 0, 79, 88
1, 602880, Note_on_c, 1, 62, 0
1, 602880, Note_on_c, 1, 73, 87
1, 602880, Note_on_c, 1, 50, 87
1, 602960, Note_on_c, 1, 50, 0
1, 602960, Note_on_c, 1, 62, 88
1, 603040, Note_on_c, 1, 62, 0
1, 603040, Note_on_c, 1, 61, 88
1, 603120, Note_on_c, 0, 79, 0
1, 603120, Note_on_c, 1, 61, 0
1, 603120, Note_on_c, 1, 73, 0
1, 603120, Note_on_c, 1, 62, 89
1, 603200, Note_on_c, 1, 62, 0
1, 603200, Note_on_c, 1, 61, 90
1, 603280, Note_on_c, 1, 61, 0
1, 603280, Note_on_c, 1, 62, 91
1, 603360, Note_on_c, 0, 78, 91
1, 603360, Note_on_c, 1, 62, 0
1, 603360, Note_on_c, 1, 74, 91
1, 603360, Note_on_c, 1, 50, 91
1, 603440, Note_on_c, 1, 50, 0
1, 603440, Note_on_c, 1, 62, 92
1, 603520, Note_on_c, 1, 62, 0
1, 603520, Note_on_c, 1, 61, 93
1, 603600, Note_on_c, 0, 78, 0
1, 603600, Note_on_c, 1, 61, 0
1, 603600, Note_on_c, 1, 74, 0
1, 603600, Note_on_c, 1, 62, 93
1, 603680, Note_on_c, 1, 62, 0
1, 603680, Note_on_c, 1, 61, 94
1, 603760, Note_on_c, 1, 61, 0
1, 603760, Note_on_c, 1, 62, 95
1, 603840, Note_on_c, 0, 79, 95
1, 603840, Note_on_c, 1, 62, 0
1, 603840, Note_on_c, 1, 71, 96
1, 603840, Note_on_c, 1, 50, 96
1, 603920, Note_on_c, 1, 50, 0
1, 603920, Note_on_c, 1, 62, 96
1, 604000, Note_on_c, 1, 62, 0
1, 604000, Note_on_c, 1, 61, 97
1, 604080, Note_on_c, 0, 79, 0
1, 604080, Note_on_c, 1, 61, 0
1, 604080, Note_on_c, 1, 71, 0
1, 604080, Note_on_c, 1, 62, 98
1, 604160, Note_on_c, 1, 62, 0
1, 604160, Note_on_c, 1, 61, 98
1, 604240, Note_on_c, 1, 61, 0
1, 604240, Note_on_c, 1, 62, 99
1, 604320, Note_on_c, 0, 78, 98
1, 604320, Note_on_c, 1, 62, 0
1, 604320, Note_on_c, 1, 69, 100
1, 604320, Note_on_c, 1, 50, 100
1, 604400, Note_on_c, 1, 50, 0
1, 604400, Note_on_c, 1, 62, 101
1, 604480, Note_on_c, 1, 62, 0
1, 604480, Note_on_c, 1, 61, 101
1, 604560, Note_on_c, 0, 78, 0
1, 604560, Note_on_c, 1, 61, 0
1, 604560, Note_on_c, 1, 69, 0
1, 604560, Note_on_c, 1, 62, 102
1, 604640, Note_on_c, 1, 62, 0
1, 604640, Note_on_c, 1, 61, 103
1, 604720, Note_on_c, 1, 61, 0
1, 604720, Note_on_c, 1, 62, 103
1, 604800, Note_on_c, 0, 73, 101
1, 604800, Note_on_c, 1, 62, 0
1, 604800, Note_on_c, 1, 67, 104
1, 604800, Note_on_c, 1, 50, 104
1, 604880, Note_on_c, 1, 50, 0
1, 604880, Note_on_c, 1, 62, 105
1, 604960, Note_on_c, 1, 62, 0
1, 604960, Note_on_c, 1, 61, 106
1, 605040, Note_on_c, 0, 73, 0
1, 605040, Note_on_c, 1, 61, 0
1, 605040, Note_on_c, 1, 67, 0
1, 605040, Note_on_c, 1, 62, 106
1, 605120, Note_on_c, 1, 62, 0
1, 605120, Note_on_c, 1, 61, 107
1, 605200, Note_on_c, 1, 61, 0
1, 605200, Note_on_c, 1, 62, 108
1, 605280, Note_on_c, 0, 74, 105
1, 605280, Note_on_c, 1, 62, 0
1, 605280, Note_on_c, 1, 66, 108
1, 605280, Note_on_c, 1, 50, 108
1, 605520, Note_on_c, 0, 74, 0
1, 605520, Note_on_c, 1, 50, 0
1, 605520, Note_on_c, 1, 66, 0
1, 605760, Note_on_c, 0, 78, 110
1, 605760, Note_on_c, 1, 69, 112
1, 605760, Note_on_c, 1, 62, 112
1, 606000, Note_on_c, 0, 78, 0
1, 606000, Note_on_c, 1, 62, 0
1, 606000, Note_on_c, 1, 69, 0
1, 606240, Note_on_c, 0, 74, 105
1, 606240, Note_on_c, 1, 66, 105
1, 606240, Note_on_c, 1, 50, 105
1, 606642, Note_on_c, 1, 50, 0
1, 606642, Note_on_c, 1, 66, 0
1, 606681, Note_on_c, 0, 74, 0
1, 606691, End_track
0, 0, End_of_file