0, 0, Header, 0, 1, 480
1, 0, Start_track
1, 0, Tempo, 500000
1, 1440, Note_on_c, 2, 69, 73
1, 1440, Note_on_c, 4, 53, 73
1, 1440, Note_on_c, 4, 45, 73
1, 1440, Note_on_c, 4, 48, 73
1, 1440, Note_on_c, 5, 41, 73
1, 1480, Note_on_c, 2, 69, 0
1, 1480, Note_on_c, 2, 72, 73
1, 1520, Note_on_c, 1, 77, 73
1, 1520, Note_on_c, 2, 72, 0
1, 1750, Note_on_c, 4, 48, 0
1, 1750, Note_on_c, 4, 45, 0
1, 1750, Note_on_c, 4, 53, 0
1, 1750, Note_on_c, 5, 41, 0
1, 1920, Note_on_c, 4, 57, 72
1, 1920, Note_on_c, 5, 53, 72
1, 2160, Note_on_c, 1, 79, 72
1, 2175, Note_on_c, 1, 77, 0
1, 2230, Note_on_c, 4, 57, 0
1, 2230, Note_on_c, 5, 53, 0
1, 2280, Note_on_c, 1, 79, 0
1, 2280, Note_on_c, 1, 77, 72
1, 2400, Note_on_c, 1, 77, 0
1, 2400, Note_on_c, 1, 76, 71
1, 2520, Note_on_c, 1, 76, 0
1, 2520, Note_on_c, 1, 77, 71
1, 2640, Note_on_c, 1, 77, 0
1, 2640, Note_on_c, 1, 81, 71
1, 2760, Note_on_c, 1, 81, 0
1, 2760, Note_on_c, 1, 77, 71
1, 2880, Note_on_c, 1, 77, 0
1, 2880, Note_on_c, 1, 72, 70
1, 2880, Note_on_c, 4, 53, 70
1, 2880, Note_on_c, 4, 48, 70
1, 2880, Note_on_c, 4, 45, 70
1, 2880, Note_on_c, 5, 41, 70
1, 3190, Note_on_c, 4, 45, 0
1, 3190, Note_on_c, 4, 48, 0
1, 3190, Note_on_c, 4, 53, 0
1, 3190, Note_on_c, 5, 41, 0
1, 3360, Note_on_c, 4, 57, 69
1, 3360, Note_on_c, 5, 53, 69
1, 3487, Note_on_c, 1, 72, 0
1, 3600, Note_on_c, 1, 74, 69
1, 3670, Note_on_c, 4, 57, 0
1, 3670, Note_on_c, 5, 53, 0
1, 3720, Note_on_c, 1, 74, 0
1, 3720, Note_on_c, 1, 72, 69
1, 3840, Note_on_c, 1, 72, 0
1, 3840, Note_on_c, 1, 71, 68
1, 3960, Note_on_c, 1, 71, 0
1, 3960, Note_on_c, 1, 72, 68
1, 4080, Note_on_c, 1, 72, 0
1, 4080, Note_on_c, 1, 77, 68
1, 4200, Note_on_c, 1, 77, 0
1, 4200, Note_on_c, 1, 72, 68
1, 4320, Note_on_c, 1, 72, 0
1, 4320, Note_on_c, 1, 69, 67
1, 4320, Note_on_c, 4, 53, 67
1, 4320, Note_on_c, 4, 45, 67
1, 4320, Note_on_c, 4, 48, 67
1, 4320, Note_on_c, 5, 41, 67
1, 4630, Note_on_c, 4, 48, 0
1, 4630, Note_on_c, 4, 45, 0
1, 4630, Note_on_c, 4, 53, 0
1, 4630, Note_on_c, 5, 41, 0
1, 4800, Note_on_c, 4, 57, 66
1, 4800, Note_on_c, 5, 53, 66
1, 4935, Note_on_c, 1, 69, 0
1, 5040, Note_on_c, 1, 70, 66
1, 5110, Note_on_c, 4, 57, 0
1, 5110, Note_on_c, 5, 53, 0
1, 5160, Note_on_c, 1, 70, 0
1, 5160, Note_on_c, 1, 69, 66
1, 5280, Note_on_c, 1, 69, 0
1, 5280, Note_on_c, 1, 68, 65
1, 5400, Note_on_c, 1, 68, 0
1, 5400, Note_on_c, 1, 69, 65
1, 5520, Note_on_c, 1, 69, 0
1, 5520, Note_on_c, 1, 72, 65
1, 5640, Note_on_c, 1, 72, 0
1, 5640, Note_on_c, 1, 69, 65
1, 5760, Note_on_c, 1, 69, 0
1, 5760, Note_on_c, 1, 65, 64
1, 6180, Note_on_c, 1, 65, 0
1, 6240, Note_on_c, 1, 65, 48
1, 6240, Note_on_c, 4, 60, 48
1, 6240, Note_on_c, 5, 57, 48
1, 6720, Note_on_c, 1, 65, 0
1, 6720, Note_on_c, 1, 65, 51
1, 6720, Note_on_c, 4, 60, 0
1, 6720, Note_on_c, 4, 62, 51
1, 6720, Note_on_c, 5, 57, 0
1, 6720, Note_on_c, 5, 58, 51
1, 7200, Note_on_c, 1, 65, 0
1, 7200, Note_on_c, 1, 65, 53
1, 7200, Note_on_c, 4, 62, 0
1, 7200, Note_on_c, 4, 63, 53
1, 7200, Note_on_c, 5, 58, 0
1, 7200, Note_on_c, 5, 60, 53
1, 7680, Note_on_c, 4, 63, 0
1, 7680, Note_on_c, 4, 62, 49
1, 7680, Note_on_c, 5, 60, 0
1, 7680, Note_on_c, 5, 58, 49
1, 8160, Note_on_c, 4, 62, 0
1, 8160, Note_on_c, 4, 61, 44
1, 8160, Note_on_c, 5, 58, 0
1, 8160, Note_on_c, 5, 57, 44
1, 8640, Note_on_c, 4, 61, 0
1, 8640, Note_on_c, 4, 62, 44
1, 8640, Note_on_c, 5, 57, 0
1, 8640, Note_on_c, 5, 58, 44
1, 9120, Note_on_c, 1, 65, 0
1, 9120, Note_on_c, 1, 70, 46
1, 9120, Note_on_c, 2, 64, 46
1, 9120, Note_on_c, 4, 62, 0
1, 9120, Note_on_c, 4, 60, 46
1, 9120, Note_on_c, 5, 58, 0
1, 9120, Note_on_c, 5, 55, 46
1, 9600, Note_on_c, 1, 70, 0
1, 9600, Note_on_c, 1, 69, 47
1, 9600, Note_on_c, 2, 64, 0
1, 9600, Note_on_c, 2, 65, 47
1, 9600, Note_on_c, 5, 55, 0
1, 9600, Note_on_c, 5, 53, 47
1, 10080, Note_on_c, 2, 65, 0
1, 10080, Note_on_c, 4, 60, 0
1, 10080, Note_on_c, 4, 62, 49
1, 10080, Note_on_c, 5, 53, 0
1, 10080, Note_on_c, 5, 58, 49
1, 10320, Note_on_c, 1, 69, 0
1, 10320, Note_on_c, 1, 67, 50
1, 10500, Note_on_c, 4, 62, 0
1, 10500, Note_on_c, 5, 58, 0
1, 10510, Note_on_c, 1, 67, 0
1, 10560, Note_on_c, 1, 74, 50
1, 10560, Note_on_c, 2, 70, 50
1, 10800, Note_on_c, 1, 74, 0
1, 10800, Note_on_c, 1, 72, 51
1, 10800, Note_on_c, 2, 70, 0
1, 10800, Note_on_c, 2, 69, 51
1, 10990, Note_on_c, 1, 72, 0
1, 10990, Note_on_c, 2, 69, 0
1, 11040, Note_on_c, 1, 70, 52
1, 11040, Note_on_c, 2, 67, 52
1, 11040, Note_on_c, 5, 46, 52
1, 11280, Note_on_c, 1, 70, 0
1, 11280, Note_on_c, 1, 69, 52
1, 11280, Note_on_c, 2, 67, 0
1, 11280, Note_on_c, 2, 65, 52
1, 11280, Note_on_c, 5, 46, 0
1, 11280, Note_on_c, 5, 47, 52
1, 11470, Note_on_c, 1, 69, 0
1, 11470, Note_on_c, 2, 65, 0
1, 11520, Note_on_c, 1, 69, 55
1, 11520, Note_on_c, 2, 65, 55
1, 11520, Note_on_c, 5, 47, 0
1, 11520, Note_on_c, 5, 48, 55
1, 11760, Note_on_c, 1, 69, 0
1, 11760, Note_on_c, 1, 67, 55
1, 11760, Note_on_c, 2, 65, 0
1, 11760, Note_on_c, 2, 64, 55
1, 11940, Note_on_c, 5, 48, 0
1, 11950, Note_on_c, 1, 67, 0
1, 11950, Note_on_c, 2, 64, 0
1, 12000, Note_on_c, 1, 65, 54
1, 12060, Note_on_c, 1, 65, 0
1, 12060, Note_on_c, 1, 67, 53
1, 12120, Note_on_c, 1, 67, 0
1, 12120, Note_on_c, 1, 65, 53
1, 12240, Note_on_c, 1, 65, 0
1, 12240, Note_on_c, 1, 64, 52
1, 12430, Note_on_c, 1, 64, 0
1, 12480, Note_on_c, 1, 62, 51
1, 12540, Note_on_c, 1, 62, 0
1, 12540, Note_on_c, 1, 64, 51
1, 12600, Note_on_c, 1, 64, 0
1, 12600, Note_on_c, 1, 62, 51
1, 12720, Note_on_c, 1, 60, 50
1, 12725, Note_on_c, 1, 62, 0
1, 12910, Note_on_c, 1, 60, 0
1, 12960, Note_on_c, 2, 69, 67
1, 12960, Note_on_c, 4, 48, 67
1, 12960, Note_on_c, 4, 45, 67
1, 12960, Note_on_c, 4, 53, 67
1, 12960, Note_on_c, 5, 41, 67
1, 13000, Note_on_c, 2, 69, 0
1, 13000, Note_on_c, 2, 72, 67
1, 13040, Note_on_c, 1, 77, 67
1, 13040, Note_on_c, 2, 72, 0
1, 13270, Note_on_c, 4, 53, 0
1, 13270, Note_on_c, 4, 45, 0
1, 13270, Note_on_c, 4, 48, 0
1, 13270, Note_on_c, 5, 41, 0
1, 13440, Note_on_c, 4, 57, 67
1, 13440, Note_on_c, 5, 53, 67
1, 13680, Note_on_c, 1, 79, 66
1, 13695, Note_on_c, 1, 77, 0
1, 13750, Note_on_c, 4, 57, 0
1, 13750, Note_on_c, 5, 53, 0
1, 13800, Note_on_c, 1, 79, 0
1, 13800, Note_on_c, 1, 77, 66
1, 13920, Note_on_c, 1, 77, 0
1, 13920, Note_on_c, 1, 76, 66
1, 14040, Note_on_c, 1, 76, 0
1, 14040, Note_on_c, 1, 77, 66
1, 14160, Note_on_c, 1, 77, 0
1, 14160, Note_on_c, 1, 81, 65
1, 14280, Note_on_c, 1, 81, 0
1, 14280, Note_on_c, 1, 77, 65
1, 14400, Note_on_c, 1, 77, 0
1, 14400, Note_on_c, 1, 72, 65
1, 14400, Note_on_c, 4, 45, 65
1, 14400, Note_on_c, 4, 48, 65
1, 14400, Note_on_c, 4, 53, 65
1, 14400, Note_on_c, 5, 41, 65
1, 14710, Note_on_c, 4, 53, 0
1, 14710, Note_on_c, 4, 48, 0
1, 14710, Note_on_c, 4, 45, 0
1, 14710, Note_on_c, 5, 41, 0
1, 14880, Note_on_c, 4, 57, 64
1, 14880, Note_on_c, 5, 53, 64
1, 15007, Note_on_c, 1, 72, 0
1, 15120, Note_on_c, 1, 74, 64
1, 15190, Note_on_c, 4, 57, 0
1, 15190, Note_on_c, 5, 53, 0
1, 15240, Note_on_c, 1, 74, 0
1, 15240, Note_on_c, 1, 72, 63
1, 15360, Note_on_c, 1, 72, 0
1, 15360, Note_on_c, 1, 71, 63
1, 15480, Note_on_c, 1, 71, 0
1, 15480, Note_on_c, 1, 72, 63
1, 15600, Note_on_c, 1, 72, 0
1, 15600, Note_on_c, 1, 77, 63
1, 15720, Note_on_c, 1, 77, 0
1, 15720, Note_on_c, 1, 72, 63
1, 15840, Note_on_c, 1, 72, 0
1, 15840, Note_on_c, 1, 69, 62
1, 15840, Note_on_c, 4, 48, 62
1, 15840, Note_on_c, 4, 45, 62
1, 15840, Note_on_c, 4, 53, 62
1, 15840, Note_on_c, 5, 41, 62
1, 16150, Note_on_c, 4, 53, 0
1, 16150, Note_on_c, 4, 45, 0
1, 16150, Note_on_c, 4, 48, 0
1, 16150, Note_on_c, 5, 41, 0
1, 16320, Note_on_c, 4, 57, 62
1, 16320, Note_on_c, 5, 53, 62
1, 16440, Note_on_c, 1, 69, 0
1, 16560, Note_on_c, 1, 70, 61
1, 16630, Note_on_c, 4, 57, 0
1, 16630, Note_on_c, 5, 53, 0
1, 16680, Note_on_c, 1, 70, 0
1, 16680, Note_on_c, 1, 69, 61
1, 16800, Note_on_c, 1, 69, 0
1, 16800, Note_on_c, 1, 68, 61
1, 16920, Note_on_c, 1, 68, 0
1, 16920, Note_on_c, 1, 69, 61
1, 17040, Note_on_c, 1, 69, 0
1, 17040, Note_on_c, 1, 72, 60
1, 17160, Note_on_c, 1, 72, 0
1, 17160, Note_on_c, 1, 69, 60
1, 17280, Note_on_c, 1, 69, 0
1, 17280, Note_on_c, 1, 65, 60
1, 17700, Note_on_c, 1, 65, 0
1, 17760, Note_on_c, 1, 65, 44
1, 17760, Note_on_c, 4, 60, 44
1, 17760, Note_on_c, 5, 57, 44
1, 18240, Note_on_c, 1, 65, 0
1, 18240, Note_on_c, 1, 65, 47
1, 18240, Note_on_c, 4, 60, 0
1, 18240, Note_on_c, 4, 62, 47
1, 18240, Note_on_c, 5, 57, 0
1, 18240, Note_on_c, 5, 58, 47
1, 18720, Note_on_c, 1, 65, 0
1, 18720, Note_on_c, 1, 65, 50
1, 18720, Note_on_c, 4, 62, 0
1, 18720, Note_on_c, 4, 63, 50
1, 18720, Note_on_c, 5, 58, 0
1, 18720, Note_on_c, 5, 60, 50
1, 19200, Note_on_c, 4, 63, 0
1, 19200, Note_on_c, 4, 62, 49
1, 19200, Note_on_c, 5, 60, 0
1, 19200, Note_on_c, 5, 58, 49
1, 19680, Note_on_c, 4, 62, 0
1, 19680, Note_on_c, 4, 61, 45
1, 19680, Note_on_c, 5, 58, 0
1, 19680, Note_on_c, 5, 57, 45
1, 20160, Note_on_c, 4, 61, 0
1, 20160, Note_on_c, 4, 62, 43
1, 20160, Note_on_c, 5, 57, 0
1, 20160, Note_on_c, 5, 58, 43
1, 20580, Note_on_c, 5, 58, 0
1, 20587, Note_on_c, 1, 65, 0
1, 20587, Note_on_c, 4, 62, 0
1, 20640, Note_on_c, 1, 74, 46
1, 20640, Note_on_c, 2, 64, 46
1, 20640, Note_on_c, 4, 58, 46
1, 20640, Note_on_c, 5, 55, 46
1, 21120, Note_on_c, 1, 74, 0
1, 21120, Note_on_c, 1, 72, 48
1, 21120, Note_on_c, 2, 64, 0
1, 21120, Note_on_c, 2, 65, 48
1, 21120, Note_on_c, 4, 58, 0
1, 21120, Note_on_c, 4, 60, 48
1, 21120, Note_on_c, 5, 55, 0
1, 21120, Note_on_c, 5, 57, 48
1, 21480, Note_on_c, 1, 69, 50
1, 21480, Note_on_c, 2, 65, 0
1, 21540, Note_on_c, 5, 57, 0
1, 21562, Note_on_c, 4, 60, 0
1, 21570, Note_on_c, 1, 72, 0
1, 21576, Note_on_c, 1, 69, 0
1, 21600, Note_on_c, 1, 72, 52
1, 21600, Note_on_c, 2, 69, 52
1, 21600, Note_on_c, 4, 62, 52
1, 21600, Note_on_c, 5, 58, 52
1, 21960, Note_on_c, 1, 70, 49
1, 21960, Note_on_c, 2, 67, 49
1, 21967, Note_on_c, 1, 72, 0
1, 21967, Note_on_c, 2, 69, 0
1, 22080, Note_on_c, 1, 70, 0
1, 22080, Note_on_c, 1, 69, 48
1, 22080, Note_on_c, 2, 67, 0
1, 22080, Note_on_c, 2, 65, 48
1, 22080, Note_on_c, 4, 62, 0
1, 22080, Note_on_c, 4, 60, 48
1, 22080, Note_on_c, 5, 58, 0
1, 22447, Note_on_c, 4, 60, 0
1, 22560, Note_on_c, 1, 69, 0
1, 22560, Note_on_c, 1, 67, 44
1, 22560, Note_on_c, 2, 65, 0
1, 22560, Note_on_c, 2, 64, 44
1, 22560, Note_on_c, 5, 48, 44
1, 22920, Note_on_c, 5, 48, 0
1, 23040, Note_on_c, 1, 67, 0
1, 23040, Note_on_c, 1, 65, 45
1, 23040, Note_on_c, 2, 64, 0
1, 23040, Note_on_c, 3, 57, 75
1, 23040, Note_on_c, 4, 53, 75
1, 23280, Note_on_c, 3, 48, 75
1, 23400, Note_on_c, 3, 57, 0
1, 23400, Note_on_c, 4, 53, 0
1, 23460, Note_on_c, 1, 65, 0
1, 23472, Note_on_c, 3, 48, 0
1, 23520, Note_on_c, 3, 57, 75
1, 23520, Note_on_c, 4, 53, 75
1, 23760, Note_on_c, 1, 84, 74
1, 23760, Note_on_c, 2, 72, 74
1, 23760, Note_on_c, 3, 48, 74
1, 23880, Note_on_c, 1, 84, 0
1, 23880, Note_on_c, 2, 72, 0
1, 23880, Note_on_c, 3, 57, 0
1, 23880, Note_on_c, 4, 53, 0
1, 23952, Note_on_c, 3, 48, 0
1, 24000, Note_on_c, 1, 84, 74
1, 24000, Note_on_c, 2, 72, 74
1, 24000, Note_on_c, 3, 57, 74
1, 24000, Note_on_c, 4, 53, 74
1, 24120, Note_on_c, 1, 84, 0
1, 24120, Note_on_c, 2, 72, 0
1, 24240, Note_on_c, 1, 84, 74
1, 24240, Note_on_c, 2, 72, 74
1, 24240, Note_on_c, 3, 48, 74
1, 24360, Note_on_c, 1, 84, 0
1, 24360, Note_on_c, 2, 72, 0
1, 24360, Note_on_c, 3, 57, 0
1, 24360, Note_on_c, 4, 53, 0
1, 24432, Note_on_c, 3, 48, 0
1, 24480, Note_on_c, 1, 84, 73
1, 24480, Note_on_c, 2, 72, 73
1, 24480, Note_on_c, 3, 57, 73
1, 24480, Note_on_c, 4, 53, 73
1, 24720, Note_on_c, 3, 48, 73
1, 24840, Note_on_c, 3, 57, 0
1, 24840, Note_on_c, 4, 53, 0
1, 24912, Note_on_c, 3, 48, 0
1, 24960, Note_on_c, 3, 57, 73
1, 24960, Note_on_c, 4, 53, 73
1, 25200, Note_on_c, 1, 84, 0
1, 25200, Note_on_c, 1, 82, 72
1, 25200, Note_on_c, 2, 72, 0
1, 25200, Note_on_c, 3, 48, 72
1, 25320, Note_on_c, 1, 82, 0
1, 25320, Note_on_c, 1, 81, 72
1, 25320, Note_on_c, 3, 57, 0
1, 25320, Note_on_c, 4, 53, 0
1, 25392, Note_on_c, 3, 48, 0
1, 25440, Note_on_c, 1, 81, 0
1, 25440, Note_on_c, 1, 79, 72
1, 25440, Note_on_c, 3, 57, 72
1, 25440, Note_on_c, 4, 53, 72
1, 25595, Note_on_c, 1, 79, 0
1, 25680, Note_on_c, 1, 77, 72
1, 25680, Note_on_c, 3, 48, 72
1, 25800, Note_on_c, 3, 57, 0
1, 25800, Note_on_c, 4, 53, 0
1, 25835, Note_on_c, 1, 77, 0
1, 25872, Note_on_c, 3, 48, 0
1, 25920, Note_on_c, 1, 77, 71
1, 25920, Note_on_c, 3, 58, 71
1, 25920, Note_on_c, 4, 55, 71
1, 25980, Note_on_c, 1, 77, 0
1, 25980, Note_on_c, 1, 79, 71
1, 26040, Note_on_c, 1, 79, 0
1, 26040, Note_on_c, 1, 77, 71
1, 26160, Note_on_c, 1, 76, 71
1, 26160, Note_on_c, 3, 48, 71
1, 26165, Note_on_c, 1, 77, 0
1, 26280, Note_on_c, 3, 58, 0
1, 26280, Note_on_c, 4, 55, 0
1, 26350, Note_on_c, 1, 76, 0
1, 26352, Note_on_c, 3, 48, 0
1, 26400, Note_on_c, 1, 76, 71
1, 26400, Note_on_c, 3, 58, 71
1, 26400, Note_on_c, 4, 55, 71
1, 26590, Note_on_c, 1, 76, 0
1, 26640, Note_on_c, 1, 72, 71
1, 26640, Note_on_c, 3, 48, 71
1, 26760, Note_on_c, 3, 58, 0
1, 26760, Note_on_c, 4, 55, 0
1, 26830, Note_on_c, 1, 72, 0
1, 26832, Note_on_c, 3, 48, 0
1, 26880, Note_on_c, 1, 72, 70
1, 26880, Note_on_c, 3, 58, 70
1, 26880, Note_on_c, 4, 55, 70
1, 27070, Note_on_c, 1, 72, 0
1, 27120, Note_on_c, 1, 72, 70
1, 27120, Note_on_c, 3, 48, 70
1, 27240, Note_on_c, 3, 58, 0
1, 27240, Note_on_c, 4, 55, 0
1, 27310, Note_on_c, 1, 72, 0
1, 27312, Note_on_c, 3, 48, 0
1, 27360, Note_on_c, 1, 79, 70
1, 27360, Note_on_c, 3, 58, 70
1, 27360, Note_on_c, 4, 52, 70
1, 27600, Note_on_c, 1, 79, 0
1, 27600, Note_on_c, 1, 81, 69
1, 27600, Note_on_c, 3, 48, 69
1, 27680, Note_on_c, 1, 81, 0
1, 27680, Note_on_c, 1, 79, 69
1, 27720, Note_on_c, 3, 58, 0
1, 27720, Note_on_c, 4, 52, 0
1, 27760, Note_on_c, 1, 79, 0
1, 27760, Note_on_c, 1, 78, 69
1, 27792, Note_on_c, 3, 48, 0
1, 27840, Note_on_c, 1, 78, 0
1, 27840, Note_on_c, 1, 79, 69
1, 27840, Note_on_c, 3, 58, 69
1, 27840, Note_on_c, 4, 52, 69
1, 28030, Note_on_c, 1, 79, 0
1, 28080, Note_on_c, 1, 84, 69
1, 28080, Note_on_c, 3, 48, 69
1, 28200, Note_on_c, 3, 58, 0
1, 28200, Note_on_c, 4, 52, 0
1, 28272, Note_on_c, 3, 48, 0
1, 28320, Note_on_c, 1, 84, 0
1, 28320, Note_on_c, 1, 83, 68
1, 28320, Note_on_c, 3, 55, 68
1, 28320, Note_on_c, 4, 52, 68
1, 28560, Note_on_c, 1, 83, 0
1, 28560, Note_on_c, 1, 84, 68
1, 28560, Note_on_c, 3, 48, 68
1, 28680, Note_on_c, 3, 55, 0
1, 28680, Note_on_c, 4, 52, 0
1, 28752, Note_on_c, 1, 84, 0
1, 28752, Note_on_c, 3, 48, 0
1, 28800, Note_on_c, 1, 81, 68
1, 28800, Note_on_c, 3, 57, 68
1, 28800, Note_on_c, 4, 53, 68
1, 29040, Note_on_c, 3, 48, 64
1, 29160, Note_on_c, 3, 57, 0
1, 29160, Note_on_c, 4, 53, 0
1, 29232, Note_on_c, 3, 48, 0
1, 29280, Note_on_c, 1, 81, 0
1, 29280, Note_on_c, 1, 77, 57
1, 29280, Note_on_c, 3, 57, 57
1, 29280, Note_on_c, 4, 53, 57
1, 29470, Note_on_c, 1, 77, 0
1, 29520, Note_on_c, 1, 84, 57
1, 29520, Note_on_c, 2, 72, 57
1, 29520, Note_on_c, 3, 48, 57
1, 29640, Note_on_c, 1, 84, 0
1, 29640, Note_on_c, 2, 72, 0
1, 29640, Note_on_c, 3, 57, 0
1, 29640, Note_on_c, 4, 53, 0
1, 29712, Note_on_c, 3, 48, 0
1, 29760, Note_on_c, 1, 84, 57
1, 29760, Note_on_c, 2, 72, 57
1, 29760, Note_on_c, 3, 57, 57
1, 29760, Note_on_c, 4, 53, 57
1, 29880, Note_on_c, 1, 84, 0
1, 29880, Note_on_c, 2, 72, 0
1, 30000, Note_on_c, 1, 84, 56
1, 30000, Note_on_c, 2, 72, 56
1, 30000, Note_on_c, 3, 48, 56
1, 30120, Note_on_c, 1, 84, 0
1, 30120, Note_on_c, 2, 72, 0
1, 30120, Note_on_c, 3, 57, 0
1, 30120, Note_on_c, 4, 53, 0
1, 30192, Note_on_c, 3, 48, 0
1, 30240, Note_on_c, 1, 84, 56
1, 30240, Note_on_c, 2, 72, 56
1, 30240, Note_on_c, 3, 57, 56
1, 30240, Note_on_c, 4, 53, 56
1, 30480, Note_on_c, 3, 48, 55
1, 30600, Note_on_c, 3, 57, 0
1, 30600, Note_on_c, 4, 53, 0
1, 30672, Note_on_c, 3, 48, 0
1, 30720, Note_on_c, 3, 57, 55
1, 30720, Note_on_c, 4, 53, 55
1, 30960, Note_on_c, 1, 84, 0
1, 30960, Note_on_c, 1, 86, 54
1, 30960, Note_on_c, 2, 72, 0
1, 30960, Note_on_c, 3, 48, 54
1, 31080, Note_on_c, 1, 86, 0
1, 31080, Note_on_c, 1, 84, 54
1, 31080, Note_on_c, 3, 57, 0
1, 31080, Note_on_c, 4, 53, 0
1, 31152, Note_on_c, 3, 48, 0
1, 31200, Note_on_c, 1, 84, 0
1, 31200, Note_on_c, 1, 82, 54
1, 31200, Note_on_c, 3, 57, 54
1, 31200, Note_on_c, 4, 53, 54
1, 31320, Note_on_c, 1, 82, 0
1, 31320, Note_on_c, 1, 81, 53
1, 31440, Note_on_c, 1, 81, 0
1, 31440, Note_on_c, 1, 79, 53
1, 31440, Note_on_c, 3, 48, 53
1, 31560, Note_on_c, 1, 79, 0
1, 31560, Note_on_c, 1, 77, 53
1, 31560, Note_on_c, 3, 57, 0
1, 31560, Note_on_c, 4, 53, 0
1, 31632, Note_on_c, 3, 48, 0
1, 31656, Note_on_c, 1, 77, 0
1, 31680, Note_on_c, 1, 77, 53
1, 31680, Note_on_c, 3, 58, 53
1, 31680, Note_on_c, 4, 55, 53
1, 31740, Note_on_c, 1, 77, 0
1, 31740, Note_on_c, 1, 79, 53
1, 31800, Note_on_c, 1, 79, 0
1, 31800, Note_on_c, 1, 77, 53
1, 31920, Note_on_c, 1, 76, 52
1, 31920, Note_on_c, 3, 48, 52
1, 31925, Note_on_c, 1, 77, 0
1, 32040, Note_on_c, 3, 58, 0
1, 32040, Note_on_c, 4, 55, 0
1, 32110, Note_on_c, 1, 76, 0
1, 32112, Note_on_c, 3, 48, 0
1, 32160, Note_on_c, 1, 76, 52
1, 32160, Note_on_c, 3, 58, 52
1, 32160, Note_on_c, 4, 55, 52
1, 32350, Note_on_c, 1, 76, 0
1, 32400, Note_on_c, 1, 72, 51
1, 32400, Note_on_c, 3, 48, 51
1, 32520, Note_on_c, 3, 58, 0
1, 32520, Note_on_c, 4, 55, 0
1, 32590, Note_on_c, 1, 72, 0
1, 32592, Note_on_c, 3, 48, 0
1, 32640, Note_on_c, 1, 72, 51
1, 32640, Note_on_c, 3, 58, 51
1, 32640, Note_on_c, 4, 55, 51
1, 32830, Note_on_c, 1, 72, 0
1, 32880, Note_on_c, 1, 72, 50
1, 32880, Note_on_c, 3, 48, 50
1, 33000, Note_on_c, 3, 58, 0
1, 33000, Note_on_c, 4, 55, 0
1, 33070, Note_on_c, 1, 72, 0
1, 33072, Note_on_c, 3, 48, 0
1, 33120, Note_on_c, 1, 79, 50
1, 33120, Note_on_c, 3, 58, 50
1, 33120, Note_on_c, 4, 52, 50
1, 33360, Note_on_c, 1, 79, 0
1, 33360, Note_on_c, 1, 81, 50
1, 33360, Note_on_c, 3, 48, 50
1, 33440, Note_on_c, 1, 81, 0
1, 33440, Note_on_c, 1, 79, 49
1, 33480, Note_on_c, 3, 58, 0
1, 33480, Note_on_c, 4, 52, 0
1, 33520, Note_on_c, 1, 79, 0
1, 33520, Note_on_c, 1, 78, 49
1, 33552, Note_on_c, 3, 48, 0
1, 33600, Note_on_c, 1, 78, 0
1, 33600, Note_on_c, 1, 79, 49
1, 33600, Note_on_c, 3, 58, 49
1, 33600, Note_on_c, 4, 52, 49
1, 33790, Note_on_c, 1, 79, 0
1, 33840, Note_on_c, 1, 84, 49
1, 33840, Note_on_c, 3, 48, 49
1, 33960, Note_on_c, 3, 58, 0
1, 33960, Note_on_c, 4, 52, 0
1, 34032, Note_on_c, 3, 48, 0
1, 34080, Note_on_c, 1, 84, 0
1, 34080, Note_on_c, 1, 83, 48
1, 34080, Note_on_c, 3, 55, 48
1, 34080, Note_on_c, 4, 52, 48
1, 34320, Note_on_c, 1, 83, 0
1, 34320, Note_on_c, 1, 84, 48
1, 34320, Note_on_c, 3, 48, 48
1, 34440, Note_on_c, 3, 55, 0
1, 34440, Note_on_c, 4, 52, 0
1, 34512, Note_on_c, 1, 84, 0
1, 34512, Note_on_c, 3, 48, 0
1, 34560, Note_on_c, 1, 81, 71
1, 34560, Note_on_c, 5, 53, 71
1, 34560, Note_on_c, 5, 41, 71
1, 34600, Note_on_c, 1, 81, 0
1, 34600, Note_on_c, 1, 82, 71
1, 34640, Note_on_c, 1, 82, 0
1, 34640, Note_on_c, 1, 81, 71
1, 34680, Note_on_c, 1, 81, 0
1, 34680, Note_on_c, 1, 79, 71
1, 34800, Note_on_c, 1, 79, 0
1, 34800, Note_on_c, 1, 81, 71
1, 34870, Note_on_c, 5, 41, 0
1, 34870, Note_on_c, 5, 53, 0
1, 34920, Note_on_c, 1, 81, 0
1, 34920, Note_on_c, 1, 82, 70
1, 35040, Note_on_c, 1, 82, 0
1, 35040, Note_on_c, 1, 84, 70
1, 35040, Note_on_c, 5, 40, 70
1, 35040, Note_on_c, 5, 52, 70
1, 35160, Note_on_c, 1, 84, 0
1, 35160, Note_on_c, 1, 82, 70
1, 35280, Note_on_c, 1, 82, 0
1, 35280, Note_on_c, 1, 81, 69
1, 35350, Note_on_c, 5, 52, 0
1, 35350, Note_on_c, 5, 40, 0
1, 35400, Note_on_c, 1, 81, 0
1, 35400, Note_on_c, 1, 79, 69
1, 35520, Note_on_c, 1, 79, 0
1, 35520, Note_on_c, 1, 77, 69
1, 35640, Note_on_c, 1, 77, 0
1, 35640, Note_on_c, 1, 76, 68
1, 35760, Note_on_c, 1, 76, 0
1, 35760, Note_on_c, 1, 74, 68
1, 35880, Note_on_c, 1, 74, 0
1, 35880, Note_on_c, 1, 72, 68
1, 35976, Note_on_c, 1, 72, 0
1, 36000, Note_on_c, 1, 77, 68
1, 36000, Note_on_c, 5, 50, 68
1, 36000, Note_on_c, 5, 38, 68
1, 36040, Note_on_c, 1, 77, 0
1, 36040, Note_on_c, 1, 79, 67
1, 36080, Note_on_c, 1, 79, 0
1, 36080, Note_on_c, 1, 77, 67
1, 36120, Note_on_c, 1, 77, 0
1, 36120, Note_on_c, 1, 76, 67
1, 36240, Note_on_c, 1, 76, 0
1, 36240, Note_on_c, 1, 77, 67
1, 36310, Note_on_c, 5, 38, 0
1, 36310, Note_on_c, 5, 50, 0
1, 36360, Note_on_c, 1, 77, 0
1, 36360, Note_on_c, 1, 79, 67
1, 36480, Note_on_c, 1, 79, 0
1, 36480, Note_on_c, 1, 81, 66
1, 36480, Note_on_c, 5, 48, 66
1, 36480, Note_on_c, 5, 36, 66
1, 36600, Note_on_c, 1, 81, 0
1, 36600, Note_on_c, 1, 79, 66
1, 36720, Note_on_c, 1, 79, 0
1, 36720, Note_on_c, 1, 77, 66
1, 36790, Note_on_c, 5, 36, 0
1, 36790, Note_on_c, 5, 48, 0
1, 36840, Note_on_c, 1, 77, 0
1, 36840, Note_on_c, 1, 76, 65
1, 36960, Note_on_c, 1, 76, 0
1, 36960, Note_on_c, 1, 74, 65
1, 37080, Note_on_c, 1, 74, 0
1, 37080, Note_on_c, 1, 72, 65
1, 37200, Note_on_c, 1, 72, 0
1, 37200, Note_on_c, 1, 70, 64
1, 37320, Note_on_c, 1, 70, 0
1, 37320, Note_on_c, 1, 69, 64
1, 37416, Note_on_c, 1, 69, 0
1, 37440, Note_on_c, 1, 74, 64
1, 37440, Note_on_c, 5, 46, 64
1, 37440, Note_on_c, 5, 58, 64
1, 37480, Note_on_c, 1, 74, 0
1, 37480, Note_on_c, 1, 76, 63
1, 37520, Note_on_c, 1, 76, 0
1, 37520, Note_on_c, 1, 74, 63
1, 37560, Note_on_c, 1, 74, 0
1, 37560, Note_on_c, 1, 72, 63
1, 37680, Note_on_c, 1, 72, 0
1, 37680, Note_on_c, 1, 74, 63
1, 37750, Note_on_c, 5, 58, 0
1, 37750, Note_on_c, 5, 46, 0
1, 37800, Note_on_c, 1, 74, 0
1, 37800, Note_on_c, 1, 76, 63
1, 37920, Note_on_c, 1, 76, 0
1, 37920, Note_on_c, 1, 77, 62
1, 37920, Note_on_c, 5, 45, 62
1, 37920, Note_on_c, 5, 57, 62
1, 38040, Note_on_c, 1, 77, 0
1, 38040, Note_on_c, 1, 76, 62
1, 38160, Note_on_c, 1, 76, 0
1, 38160, Note_on_c, 1, 74, 62
1, 38230, Note_on_c, 5, 57, 0
1, 38230, Note_on_c, 5, 45, 0
1, 38280, Note_on_c, 1, 74, 0
1, 38280, Note_on_c, 1, 72, 61
1, 38400, Note_on_c, 1, 72, 0
1, 38400, Note_on_c, 1, 70, 61
1, 38400, Note_on_c, 5, 50, 61
1, 38400, Note_on_c, 5, 62, 61
1, 38520, Note_on_c, 1, 70, 0
1, 38520, Note_on_c, 1, 69, 61
1, 38640, Note_on_c, 1, 69, 0
1, 38640, Note_on_c, 1, 67, 60
1, 38710, Note_on_c, 5, 62, 0
1, 38710, Note_on_c, 5, 50, 0
1, 38760, Note_on_c, 1, 67, 0
1, 38760, Note_on_c, 1, 65, 60
1, 38856, Note_on_c, 1, 65, 0
1, 38880, Note_on_c, 1, 72, 60
1, 38880, Note_on_c, 2, 67, 60
1, 38880, Note_on_c, 2, 64, 60
1, 38880, Note_on_c, 5, 48, 60
1, 39000, Note_on_c, 3, 60, 60
1, 39096, Note_on_c, 3, 60, 0
1, 39120, Note_on_c, 3, 59, 60
1, 39120, Note_on_c, 5, 48, 0
1, 39216, Note_on_c, 3, 59, 0
1, 39240, Note_on_c, 1, 72, 0
1, 39240, Note_on_c, 2, 64, 0
1, 39240, Note_on_c, 2, 67, 0
1, 39240, Note_on_c, 3, 60, 61
1, 39336, Note_on_c, 3, 60, 0
1, 39360, Note_on_c, 3, 62, 61
1, 39456, Note_on_c, 3, 62, 0
1, 39480, Note_on_c, 3, 60, 62
1, 39576, Note_on_c, 3, 60, 0
1, 39600, Note_on_c, 3, 59, 62
1, 39696, Note_on_c, 3, 59, 0
1, 39720, Note_on_c, 3, 60, 63
1, 39816, Note_on_c, 3, 60, 0
1, 39840, Note_on_c, 1, 76, 63
1, 39840, Note_on_c, 2, 67, 63
1, 39840, Note_on_c, 2, 72, 63
1, 39840, Note_on_c, 5, 58, 63
1, 39960, Note_on_c, 3, 60, 63
1, 40056, Note_on_c, 3, 60, 0
1, 40080, Note_on_c, 5, 58, 0
1, 40080, Note_on_c, 5, 59, 64
1, 40200, Note_on_c, 1, 76, 0
1, 40200, Note_on_c, 2, 72, 0
1, 40200, Note_on_c, 2, 67, 0
1, 40200, Note_on_c, 3, 60, 64
1, 40296, Note_on_c, 3, 60, 0
1, 40320, Note_on_c, 1, 77, 65
1, 40320, Note_on_c, 2, 69, 65
1, 40320, Note_on_c, 2, 72, 65
1, 40320, Note_on_c, 5, 59, 0
1, 40320, Note_on_c, 5, 57, 65
1, 40440, Note_on_c, 3, 60, 65
1, 40536, Note_on_c, 3, 60, 0
1, 40560, Note_on_c, 3, 59, 66
1, 40560, Note_on_c, 5, 57, 0
1, 40656, Note_on_c, 3, 59, 0
1, 40680, Note_on_c, 1, 77, 0
1, 40680, Note_on_c, 2, 72, 0
1, 40680, Note_on_c, 2, 69, 0
1, 40680, Note_on_c, 3, 60, 66
1, 40776, Note_on_c, 3, 60, 0
1, 40800, Note_on_c, 1, 82, 66
1, 40800, Note_on_c, 2, 76, 66
1, 40800, Note_on_c, 2, 72, 66
1, 40800, Note_on_c, 5, 55, 66
1, 40920, Note_on_c, 3, 60, 67
1, 41016, Note_on_c, 3, 60, 0
1, 41040, Note_on_c, 3, 59, 67
1, 41040, Note_on_c, 5, 55, 0
1, 41136, Note_on_c, 3, 59, 0
1, 41160, Note_on_c, 1, 82, 0
1, 41160, Note_on_c, 2, 72, 0
1, 41160, Note_on_c, 2, 76, 0
1, 41160, Note_on_c, 3, 60, 68
1, 41256, Note_on_c, 3, 60, 0
1, 41280, Note_on_c, 1, 81, 68
1, 41280, Note_on_c, 2, 77, 68
1, 41280, Note_on_c, 2, 72, 68
1, 41280, Note_on_c, 5, 53, 68
1, 41400, Note_on_c, 3, 60, 69
1, 41496, Note_on_c, 3, 60, 0
1, 41520, Note_on_c, 3, 59, 69
1, 41520, Note_on_c, 5, 53, 0
1, 41616, Note_on_c, 3, 59, 0
1, 41640, Note_on_c, 1, 81, 0
1, 41640, Note_on_c, 2, 72, 0
1, 41640, Note_on_c, 2, 77, 0
1, 41640, Note_on_c, 3, 60, 70
1, 41736, Note_on_c, 3, 60, 0
1, 41760, Note_on_c, 1, 84, 70
1, 41760, Note_on_c, 2, 79, 70
1, 41760, Note_on_c, 2, 76, 70
1, 41760, Note_on_c, 2, 72, 70
1, 41760, Note_on_c, 5, 48, 70
1, 41880, Note_on_c, 4, 60, 70
1, 41976, Note_on_c, 4, 60, 0
1, 42000, Note_on_c, 4, 59, 71
1, 42000, Note_on_c, 5, 48, 0
1, 42096, Note_on_c, 4, 59, 0
1, 42120, Note_on_c, 1, 84, 0
1, 42120, Note_on_c, 2, 72, 0
1, 42120, Note_on_c, 2, 76, 0
1, 42120, Note_on_c, 2, 79, 0
1, 42120, Note_on_c, 4, 60, 71
1, 42216, Note_on_c, 4, 60, 0
1, 42240, Note_on_c, 4, 62, 72
1, 42336, Note_on_c, 4, 62, 0
1, 42360, Note_on_c, 4, 60, 72
1, 42456, Note_on_c, 4, 60, 0
1, 42480, Note_on_c, 4, 59, 73
1, 42576, Note_on_c, 4, 59, 0
1, 42600, Note_on_c, 4, 60, 73
1, 42696, Note_on_c, 4, 60, 0
1, 42720, Note_on_c, 1, 76, 73
1, 42720, Note_on_c, 2, 67, 73
1, 42720, Note_on_c, 2, 72, 73
1, 42720, Note_on_c, 5, 58, 73
1, 42840, Note_on_c, 3, 60, 74
1, 42936, Note_on_c, 3, 60, 0
1, 42960, Note_on_c, 5, 58, 0
1, 42960, Note_on_c, 5, 59, 74
1, 43080, Note_on_c, 1, 76, 0
1, 43080, Note_on_c, 2, 72, 0
1, 43080, Note_on_c, 2, 67, 0
1, 43080, Note_on_c, 3, 60, 75
1, 43176, Note_on_c, 3, 60, 0
1, 43200, Note_on_c, 1, 77, 75
1, 43200, Note_on_c, 2, 72, 75
1, 43200, Note_on_c, 2, 69, 75
1, 43200, Note_on_c, 5, 59, 0
1, 43200, Note_on_c, 5, 57, 75
1, 43320, Note_on_c, 3, 60, 76
1, 43416, Note_on_c, 3, 60, 0
1, 43440, Note_on_c, 4, 59, 76
1, 43440, Note_on_c, 5, 57, 0
1, 43536, Note_on_c, 4, 59, 0
1, 43560, Note_on_c, 1, 77, 0
1, 43560, Note_on_c, 2, 69, 0
1, 43560, Note_on_c, 2, 72, 0
1, 43560, Note_on_c, 3, 60, 76
1, 43656, Note_on_c, 3, 60, 0
1, 43680, Note_on_c, 1, 82, 77
1, 43680, Note_on_c, 2, 76, 77
1, 43680, Note_on_c, 2, 72, 77
1, 43680, Note_on_c, 5, 55, 77
1, 43800, Note_on_c, 3, 60, 77
1, 43896, Note_on_c, 3, 60, 0
1, 43920, Note_on_c, 4, 59, 78
1, 43920, Note_on_c, 5, 55, 0
1, 44016, Note_on_c, 4, 59, 0
1, 44040, Note_on_c, 1, 82, 0
1, 44040, Note_on_c, 2, 72, 0
1, 44040, Note_on_c, 2, 76, 0
1, 44040, Note_on_c, 3, 60, 78
1, 44136, Note_on_c, 3, 60, 0
1, 44160, Note_on_c, 1, 81, 79
1, 44160, Note_on_c, 2, 77, 79
1, 44160, Note_on_c, 2, 72, 79
1, 44160, Note_on_c, 5, 53, 79
1, 44280, Note_on_c, 3, 60, 79
1, 44376, Note_on_c, 3, 60, 0
1, 44400, Note_on_c, 4, 59, 79
1, 44400, Note_on_c, 5, 53, 0
1, 44496, Note_on_c, 4, 59, 0
1, 44520, Note_on_c, 1, 81, 0
1, 44520, Note_on_c, 2, 72, 0
1, 44520, Note_on_c, 2, 77, 0
1, 44520, Note_on_c, 3, 60, 80
1, 44616, Note_on_c, 3, 60, 0
1, 44640, Note_on_c, 1, 84, 80
1, 44640, Note_on_c, 2, 79, 80
1, 44640, Note_on_c, 2, 76, 80
1, 44640, Note_on_c, 2, 72, 80
1, 44640, Note_on_c, 5, 48, 80
1, 45000, Note_on_c, 1, 84, 0
1, 45000, Note_on_c, 2, 72, 0
1, 45000, Note_on_c, 2, 76, 0
1, 45000, Note_on_c, 2, 79, 0
1, 45000, Note_on_c, 5, 48, 0
1, 45120, Note_on_c, 1, 60, 74
1, 45120, Note_on_c, 5, 36, 74
1, 45120, Note_on_c, 5, 48, 74
1, 45480, Note_on_c, 5, 48, 0
1, 45480, Note_on_c, 5, 36, 0
1, 45487, Note_on_c, 1, 60, 0
1, 46080, Note_on_c, 1, 67, 48
1, 46440, Note_on_c, 1, 67, 0
1, 46440, Note_on_c, 1, 64, 49
1, 46560, Note_on_c, 1, 64, 0
1, 46560, Note_on_c, 1, 72, 50
1, 46920, Note_on_c, 1, 72, 0
1, 46920, Note_on_c, 1, 67, 51
1, 47040, Note_on_c, 1, 67, 0
1, 47040, Note_on_c, 1, 76, 52
1, 47400, Note_on_c, 1, 76, 0
1, 47400, Note_on_c, 1, 72, 53
1, 47520, Note_on_c, 1, 72, 0
1, 47520, Note_on_c, 1, 79, 53
1, 47675, Note_on_c, 1, 79, 0
1, 47760, Note_on_c, 1, 79, 54
1, 47915, Note_on_c, 1, 79, 0
1, 48000, Note_on_c, 1, 79, 55
1, 48155, Note_on_c, 1, 79, 0
1, 48240, Note_on_c, 1, 79, 56
1, 48395, Note_on_c, 1, 79, 0
1, 48480, Note_on_c, 1, 79, 57
1, 48635, Note_on_c, 1, 79, 0
1, 48720, Note_on_c, 1, 79, 58
1, 48875, Note_on_c, 1, 79, 0
1, 48960, Note_on_c, 1, 79, 59
1, 48960, Note_on_c, 4, 61, 59
1, 48960, Note_on_c, 4, 64, 59
1, 48960, Note_on_c, 5, 57, 59
1, 49320, Note_on_c, 1, 79, 0
1, 49320, Note_on_c, 1, 76, 60
1, 49440, Note_on_c, 1, 76, 0
1, 49440, Note_on_c, 1, 74, 61
1, 49440, Note_on_c, 4, 64, 0
1, 49440, Note_on_c, 4, 61, 0
1, 49440, Note_on_c, 4, 62, 61
1, 49440, Note_on_c, 4, 65, 61
1, 49920, Note_on_c, 1, 74, 0
1, 49920, Note_on_c, 1, 76, 63
1, 49920, Note_on_c, 4, 65, 0
1, 49920, Note_on_c, 4, 62, 0
1, 49920, Note_on_c, 4, 64, 63
1, 49920, Note_on_c, 4, 67, 63
1, 50340, Note_on_c, 4, 64, 0
1, 50347, Note_on_c, 1, 76, 0
1, 50347, Note_on_c, 4, 67, 0
1, 50347, Note_on_c, 5, 57, 0
1, 50400, Note_on_c, 1, 79, 66
1, 50400, Note_on_c, 2, 76, 66
1, 50400, Note_on_c, 2, 73, 66
1, 50640, Note_on_c, 5, 57, 64
1, 50796, Note_on_c, 5, 57, 0
1, 50880, Note_on_c, 1, 79, 0
1, 50880, Note_on_c, 1, 77, 60
1, 50880, Note_on_c, 2, 73, 0
1, 50880, Note_on_c, 2, 76, 0
1, 50880, Note_on_c, 2, 74, 60
1, 50880, Note_on_c, 5, 62, 60
1, 51036, Note_on_c, 5, 62, 0
1, 51120, Note_on_c, 5, 57, 57
1, 51276, Note_on_c, 5, 57, 0
1, 51300, Note_on_c, 2, 74, 0
1, 51307, Note_on_c, 1, 77, 0
1, 51360, Note_on_c, 5, 53, 53
1, 51516, Note_on_c, 5, 53, 0
1, 51600, Note_on_c, 5, 50, 49
1, 51756, Note_on_c, 5, 50, 0
1, 51840, Note_on_c, 1, 65, 44
1, 52200, Note_on_c, 1, 65, 0
1, 52200, Note_on_c, 1, 62, 46
1, 52320, Note_on_c, 1, 62, 0
1, 52320, Note_on_c, 1, 71, 46
1, 52680, Note_on_c, 1, 71, 0
1, 52680, Note_on_c, 1, 65, 48
1, 52800, Note_on_c, 1, 65, 0
1, 52800, Note_on_c, 1, 74, 48
1, 53160, Note_on_c, 1, 74, 0
1, 53160, Note_on_c, 1, 71, 50
1, 53280, Note_on_c, 1, 71, 0
1, 53280, Note_on_c, 1, 77, 50
1, 53435, Note_on_c, 1, 77, 0
1, 53520, Note_on_c, 1, 77, 51
1, 53675, Note_on_c, 1, 77, 0
1, 53760, Note_on_c, 1, 77, 52
1, 53915, Note_on_c, 1, 77, 0
1, 54000, Note_on_c, 1, 77, 53
1, 54155, Note_on_c, 1, 77, 0
1, 54240, Note_on_c, 1, 77, 54
1, 54395, Note_on_c, 1, 77, 0
1, 54480, Note_on_c, 1, 77, 55
1, 54635, Note_on_c, 1, 77, 0
1, 54720, Note_on_c, 1, 77, 56
1, 54720, Note_on_c, 4, 59, 56
1, 54720, Note_on_c, 4, 62, 56
1, 54720, Note_on_c, 5, 55, 56
1, 55080, Note_on_c, 1, 77, 0
1, 55080, Note_on_c, 1, 74, 58
1, 55200, Note_on_c, 1, 74, 0
1, 55200, Note_on_c, 1, 72, 58
1, 55200, Note_on_c, 4, 62, 0
1, 55200, Note_on_c, 4, 59, 0
1, 55200, Note_on_c, 4, 60, 58
1, 55200, Note_on_c, 4, 64, 58
1, 55680, Note_on_c, 1, 72, 0
1, 55680, Note_on_c, 1, 74, 60
1, 55680, Note_on_c, 4, 64, 0
1, 55680, Note_on_c, 4, 60, 0
1, 55680, Note_on_c, 4, 62, 60
1, 55680, Note_on_c, 4, 65, 60
1, 56107, Note_on_c, 1, 74, 0
1, 56107, Note_on_c, 4, 65, 0
1, 56107, Note_on_c, 4, 62, 0
1, 56107, Note_on_c, 5, 55, 0
1, 56160, Note_on_c, 1, 77, 64
1, 56160, Note_on_c, 2, 74, 64
1, 56160, Note_on_c, 2, 71, 64
1, 56400, Note_on_c, 5, 55, 62
1, 56556, Note_on_c, 5, 55, 0
1, 56640, Note_on_c, 1, 77, 0
1, 56640, Note_on_c, 1, 76, 60
1, 56640, Note_on_c, 2, 71, 0
1, 56640, Note_on_c, 2, 74, 0
1, 56640, Note_on_c, 2, 72, 60
1, 56640, Note_on_c, 5, 60, 60
1, 56796, Note_on_c, 5, 60, 0
1, 56880, Note_on_c, 5, 55, 57
1, 57036, Note_on_c, 5, 55, 0
1, 57060, Note_on_c, 1, 76, 0
1, 57067, Note_on_c, 2, 72, 0
1, 57120, Note_on_c, 5, 52, 55
1, 57276, Note_on_c, 5, 52, 0
1, 57360, Note_on_c, 5, 48, 52
1, 57516, Note_on_c, 5, 48, 0
1, 57600, Note_on_c, 1, 76, 50
1, 57960, Note_on_c, 1, 76, 0
1, 57960, Note_on_c, 1, 74, 51
1, 58056, Note_on_c, 1, 74, 0
1, 58080, Note_on_c, 1, 74, 52
1, 58080, Note_on_c, 4, 60, 52
1, 58080, Note_on_c, 5, 53, 52
1, 58560, Note_on_c, 1, 74, 0
1, 58560, Note_on_c, 1, 76, 54
1, 58560, Note_on_c, 5, 53, 0
1, 58560, Note_on_c, 5, 55, 54
1, 58980, Note_on_c, 4, 60, 0
1, 58987, Note_on_c, 1, 76, 0
1, 58987, Note_on_c, 5, 55, 0
1, 59040, Note_on_c, 1, 79, 59
1, 59040, Note_on_c, 4, 60, 59
1, 59040, Note_on_c, 5, 57, 59
1, 59400, Note_on_c, 1, 79, 0
1, 59400, Note_on_c, 1, 78, 57
1, 59520, Note_on_c, 1, 78, 0
1, 59520, Note_on_c, 1, 77, 56
1, 60000, Note_on_c, 1, 77, 0
1, 60000, Note_on_c, 1, 76, 54
1, 60000, Note_on_c, 5, 57, 0
1, 60000, Note_on_c, 5, 55, 54
1, 60420, Note_on_c, 4, 60, 0
1, 60427, Note_on_c, 1, 76, 0
1, 60427, Note_on_c, 5, 55, 0
1, 60480, Note_on_c, 1, 81, 56
1, 60600, Note_on_c, 1, 81, 0
1, 60600, Note_on_c, 1, 77, 56
1, 60720, Note_on_c, 1, 77, 0
1, 60720, Note_on_c, 1, 81, 57
1, 60840, Note_on_c, 1, 81, 0
1, 60840, Note_on_c, 1, 77, 58
1, 60960, Note_on_c, 1, 77, 0
1, 60960, Note_on_c, 1, 74, 58
1, 60960, Note_on_c, 4, 60, 58
1, 60960, Note_on_c, 5, 54, 58
1, 61440, Note_on_c, 1, 74, 0
1, 61440, Note_on_c, 1, 76, 61
1, 61440, Note_on_c, 5, 54, 0
1, 61440, Note_on_c, 5, 55, 61
1, 61860, Note_on_c, 1, 76, 0
1, 61860, Note_on_c, 4, 60, 0
1, 61867, Note_on_c, 5, 55, 0
1, 61920, Note_on_c, 1, 79, 64
1, 61920, Note_on_c, 4, 60, 63
1, 61920, Note_on_c, 5, 57, 63
1, 62040, Note_on_c, 1, 79, 0
1, 62040, Note_on_c, 1, 78, 63
1, 62160, Note_on_c, 1, 78, 0
1, 62160, Note_on_c, 1, 81, 62
1, 62280, Note_on_c, 1, 81, 0
1, 62280, Note_on_c, 1, 79, 60
1, 62400, Note_on_c, 1, 79, 0
1, 62400, Note_on_c, 1, 77, 59
1, 62880, Note_on_c, 1, 77, 0
1, 62880, Note_on_c, 1, 76, 56
1, 62880, Note_on_c, 5, 57, 0
1, 62880, Note_on_c, 5, 55, 56
1, 63300, Note_on_c, 5, 55, 0
1, 63307, Note_on_c, 1, 76, 0
1, 63307, Note_on_c, 4, 60, 0
1, 63360, Note_on_c, 1, 76, 57
1, 63360, Note_on_c, 4, 57, 57
1, 63360, Note_on_c, 5, 54, 57
1, 63720, Note_on_c, 1, 76, 0
1, 63720, Note_on_c, 1, 74, 59
1, 63816, Note_on_c, 1, 74, 0
1, 63840, Note_on_c, 1, 81, 60
1, 63840, Note_on_c, 4, 57, 0
1, 63840, Note_on_c, 4, 62, 60
1, 64320, Note_on_c, 5, 54, 0
1, 64320, Note_on_c, 5, 54, 63
1, 64560, Note_on_c, 1, 81, 0
1, 64560, Note_on_c, 1, 72, 64
1, 64752, Note_on_c, 1, 72, 0
1, 64800, Note_on_c, 1, 71, 64
1, 64800, Note_on_c, 4, 62, 0
1, 64800, Note_on_c, 5, 54, 0
1, 64800, Note_on_c, 5, 55, 64
1, 64920, Note_on_c, 3, 79, 64
1, 65016, Note_on_c, 3, 79, 0
1, 65040, Note_on_c, 1, 71, 0
1, 65040, Note_on_c, 3, 67, 64
1, 65160, Note_on_c, 3, 79, 64
1, 65220, Note_on_c, 3, 67, 0
1, 65227, Note_on_c, 5, 55, 0
1, 65256, Note_on_c, 3, 79, 0
1, 65280, Note_on_c, 3, 67, 64
1, 65400, Note_on_c, 3, 79, 64
1, 65460, Note_on_c, 3, 67, 0
1, 65496, Note_on_c, 3, 79, 0
1, 65520, Note_on_c, 3, 67, 64
1, 65640, Note_on_c, 3, 79, 65
1, 65700, Note_on_c, 3, 67, 0
1, 65736, Note_on_c, 3, 79, 0
1, 65760, Note_on_c, 3, 67, 65
1, 65880, Note_on_c, 3, 79, 65
1, 65940, Note_on_c, 3, 67, 0
1, 65976, Note_on_c, 3, 79, 0
1, 66000, Note_on_c, 3, 67, 65
1, 66120, Note_on_c, 3, 79, 65
1, 66180, Note_on_c, 3, 67, 0
1, 66216, Note_on_c, 3, 79, 0
1, 66240, Note_on_c, 3, 67, 65
1, 66240, Note_on_c, 4, 36, 63
1, 66240, Note_on_c, 5, 48, 63
1, 66360, Note_on_c, 3, 79, 65
1, 66420, Note_on_c, 3, 67, 0
1, 66456, Note_on_c, 3, 79, 0
1, 66480, Note_on_c, 3, 67, 65
1, 66480, Note_on_c, 4, 36, 0
1, 66480, Note_on_c, 5, 48, 0
1, 66600, Note_on_c, 3, 79, 66
1, 66660, Note_on_c, 3, 67, 0
1, 66696, Note_on_c, 3, 79, 0
1, 66720, Note_on_c, 3, 67, 66
1, 66720, Note_on_c, 4, 40, 66
1, 66720, Note_on_c, 5, 52, 66
1, 66840, Note_on_c, 3, 79, 66
1, 66900, Note_on_c, 3, 67, 0
1, 66936, Note_on_c, 3, 79, 0
1, 66960, Note_on_c, 3, 67, 66
1, 66960, Note_on_c, 4, 40, 0
1, 66960, Note_on_c, 5, 52, 0
1, 67080, Note_on_c, 3, 79, 66
1, 67140, Note_on_c, 3, 67, 0
1, 67176, Note_on_c, 3, 79, 0
1, 67200, Note_on_c, 3, 67, 66
1, 67200, Note_on_c, 4, 43, 69
1, 67200, Note_on_c, 5, 55, 69
1, 67320, Note_on_c, 3, 79, 66
1, 67380, Note_on_c, 3, 67, 0
1, 67416, Note_on_c, 3, 79, 0
1, 67440, Note_on_c, 3, 67, 66
1, 67440, Note_on_c, 4, 43, 0
1, 67440, Note_on_c, 5, 55, 0
1, 67560, Note_on_c, 3, 79, 67
1, 67620, Note_on_c, 3, 67, 0
1, 67656, Note_on_c, 3, 79, 0
1, 67680, Note_on_c, 3, 67, 67
1, 67680, Note_on_c, 4, 48, 72
1, 67680, Note_on_c, 5, 60, 72
1, 67800, Note_on_c, 3, 79, 67
1, 67860, Note_on_c, 3, 67, 0
1, 67896, Note_on_c, 3, 79, 0
1, 67920, Note_on_c, 3, 67, 67
1, 67920, Note_on_c, 4, 48, 0
1, 67920, Note_on_c, 5, 60, 0
1, 68040, Note_on_c, 3, 79, 67
1, 68100, Note_on_c, 3, 67, 0
1, 68136, Note_on_c, 3, 79, 0
1, 68160, Note_on_c, 3, 67, 67
1, 68160, Note_on_c, 4, 52, 76
1, 68160, Note_on_c, 5, 64, 76
1, 68280, Note_on_c, 3, 79, 67
1, 68340, Note_on_c, 3, 67, 0
1, 68376, Note_on_c, 3, 79, 0
1, 68400, Note_on_c, 3, 67, 67
1, 68520, Note_on_c, 3, 79, 68
1, 68580, Note_on_c, 3, 67, 0
1, 68616, Note_on_c, 3, 79, 0
1, 68640, Note_on_c, 3, 67, 68
1, 68760, Note_on_c, 3, 79, 68
1, 68820, Note_on_c, 3, 67, 0
1, 68856, Note_on_c, 3, 79, 0
1, 68880, Note_on_c, 3, 67, 68
1, 68880, Note_on_c, 4, 52, 0
1, 68880, Note_on_c, 5, 64, 0
1, 68880, Note_on_c, 5, 62, 70
1, 69000, Note_on_c, 3, 79, 68
1, 69000, Note_on_c, 5, 62, 0
1, 69000, Note_on_c, 5, 60, 69
1, 69060, Note_on_c, 3, 67, 0
1, 69096, Note_on_c, 3, 79, 0
1, 69120, Note_on_c, 3, 67, 68
1, 69120, Note_on_c, 5, 60, 0
1, 69120, Note_on_c, 5, 59, 68
1, 69240, Note_on_c, 3, 79, 68
1, 69300, Note_on_c, 3, 67, 0
1, 69336, Note_on_c, 3, 79, 0
1, 69360, Note_on_c, 3, 67, 68
1, 69360, Note_on_c, 5, 59, 0
1, 69480, Note_on_c, 3, 79, 69
1, 69540, Note_on_c, 3, 67, 0
1, 69576, Note_on_c, 3, 79, 0
1, 69600, Note_on_c, 3, 67, 69
1, 69600, Note_on_c, 5, 62, 75
1, 69720, Note_on_c, 3, 79, 69
1, 69780, Note_on_c, 3, 67, 0
1, 69816, Note_on_c, 3, 79, 0
1, 69840, Note_on_c, 3, 67, 69
1, 69840, Note_on_c, 5, 62, 0
1, 69960, Note_on_c, 3, 79, 69
1, 70020, Note_on_c, 3, 67, 0
1, 70056, Note_on_c, 3, 79, 0
1, 70080, Note_on_c, 3, 67, 69
1, 70080, Note_on_c, 5, 65, 85
1, 70200, Note_on_c, 3, 79, 69
1, 70260, Note_on_c, 3, 67, 0
1, 70296, Note_on_c, 3, 79, 0
1, 70320, Note_on_c, 3, 67, 69
1, 70440, Note_on_c, 3, 79, 70
1, 70500, Note_on_c, 3, 67, 0
1, 70536, Note_on_c, 3, 79, 0
1, 70560, Note_on_c, 3, 67, 70
1, 70680, Note_on_c, 3, 79, 70
1, 70740, Note_on_c, 3, 67, 0
1, 70776, Note_on_c, 3, 79, 0
1, 70800, Note_on_c, 3, 67, 70
1, 70800, Note_on_c, 5, 65, 0
1, 70800, Note_on_c, 5, 62, 79
1, 70920, Note_on_c, 3, 79, 70
1, 70955, Note_on_c, 5, 62, 0
1, 70980, Note_on_c, 3, 67, 0
1, 71016, Note_on_c, 3, 79, 0
1, 71040, Note_on_c, 3, 67, 70
1, 71040, Note_on_c, 5, 59, 77
1, 71160, Note_on_c, 3, 79, 70
1, 71195, Note_on_c, 5, 59, 0
1, 71220, Note_on_c, 3, 67, 0
1, 71256, Note_on_c, 3, 79, 0
1, 71280, Note_on_c, 3, 67, 71
1, 71280, Note_on_c, 5, 55, 76
1, 71400, Note_on_c, 3, 79, 71
1, 71435, Note_on_c, 5, 55, 0
1, 71460, Note_on_c, 3, 67, 0
1, 71496, Note_on_c, 3, 79, 0
1, 71520, Note_on_c, 3, 67, 71
1, 71520, Note_on_c, 5, 53, 74
1, 71640, Note_on_c, 3, 79, 71
1, 71675, Note_on_c, 5, 53, 0
1, 71700, Note_on_c, 3, 67, 0
1, 71736, Note_on_c, 3, 79, 0
1, 71760, Note_on_c, 3, 67, 71
1, 71760, Note_on_c, 5, 50, 72
1, 71880, Note_on_c, 3, 79, 71
1, 71915, Note_on_c, 5, 50, 0
1, 71940, Note_on_c, 3, 67, 0
1, 71976, Note_on_c, 3, 79, 0
1, 72000, Note_on_c, 1, 72, 70
1, 72000, Note_on_c, 4, 48, 70
1, 72120, Note_on_c, 3, 55, 71
1, 72216, Note_on_c, 3, 55, 0
1, 72240, Note_on_c, 1, 72, 0
1, 72240, Note_on_c, 3, 52, 72
1, 72336, Note_on_c, 3, 52, 0
1, 72360, Note_on_c, 3, 55, 72
1, 72360, Note_on_c, 4, 48, 0
1, 72456, Note_on_c, 3, 55, 0
1, 72480, Note_on_c, 1, 76, 75
1, 72480, Note_on_c, 4, 48, 72
1, 72600, Note_on_c, 3, 55, 72
1, 72696, Note_on_c, 3, 55, 0
1, 72720, Note_on_c, 1, 76, 0
1, 72720, Note_on_c, 3, 52, 72
1, 72816, Note_on_c, 3, 52, 0
1, 72840, Note_on_c, 3, 55, 72
1, 72840, Note_on_c, 4, 48, 0
1, 72936, Note_on_c, 3, 55, 0
1, 72960, Note_on_c, 1, 79, 78
1, 72960, Note_on_c, 4, 48, 72
1, 73080, Note_on_c, 3, 55, 72
1, 73176, Note_on_c, 3, 55, 0
1, 73200, Note_on_c, 1, 79, 0
1, 73200, Note_on_c, 3, 52, 73
1, 73296, Note_on_c, 3, 52, 0
1, 73320, Note_on_c, 3, 55, 73
1, 73320, Note_on_c, 4, 48, 0
1, 73416, Note_on_c, 3, 55, 0
1, 73440, Note_on_c, 1, 84, 81
1, 73440, Note_on_c, 4, 48, 73
1, 73560, Note_on_c, 3, 55, 73
1, 73632, Note_on_c, 1, 84, 0
1, 73656, Note_on_c, 3, 55, 0
1, 73680, Note_on_c, 3, 52, 73
1, 73776, Note_on_c, 3, 52, 0
1, 73800, Note_on_c, 3, 55, 73
1, 73800, Note_on_c, 4, 48, 0
1, 73896, Note_on_c, 3, 55, 0
1, 73920, Note_on_c, 1, 88, 86
1, 73920, Note_on_c, 4, 48, 73
1, 74040, Note_on_c, 3, 55, 73
1, 74136, Note_on_c, 3, 55, 0
1, 74160, Note_on_c, 3, 52, 74
1, 74256, Note_on_c, 3, 52, 0
1, 74280, Note_on_c, 3, 55, 74
1, 74280, Note_on_c, 4, 48, 0
1, 74376, Note_on_c, 3, 55, 0
1, 74400, Note_on_c, 4, 48, 74
1, 74520, Note_on_c, 3, 55, 74
1, 74616, Note_on_c, 3, 55, 0
1, 74640, Note_on_c, 1, 88, 0
1, 74640, Note_on_c, 1, 86, 77
1, 74640, Note_on_c, 3, 52, 74
1, 74736, Note_on_c, 3, 52, 0
1, 74760, Note_on_c, 1, 86, 0
1, 74760, Note_on_c, 1, 84, 76
1, 74760, Note_on_c, 3, 55, 74
1, 74760, Note_on_c, 4, 48, 0
1, 74856, Note_on_c, 3, 55, 0
1, 74880, Note_on_c, 1, 84, 0
1, 74880, Note_on_c, 1, 83, 74
1, 74880, Note_on_c, 4, 50, 74
1, 75000, Note_on_c, 3, 55, 74
1, 75072, Note_on_c, 1, 83, 0
1, 75096, Note_on_c, 3, 55, 0
1, 75120, Note_on_c, 3, 53, 75
1, 75216, Note_on_c, 3, 53, 0
1, 75240, Note_on_c, 3, 55, 75
1, 75240, Note_on_c, 4, 50, 0
1, 75336, Note_on_c, 3, 55, 0
1, 75360, Note_on_c, 1, 86, 81
1, 75360, Note_on_c, 4, 50, 75
1, 75480, Note_on_c, 3, 55, 75
1, 75552, Note_on_c, 1, 86, 0
1, 75576, Note_on_c, 3, 55, 0
1, 75600, Note_on_c, 3, 53, 75
1, 75696, Note_on_c, 3, 53, 0
1, 75720, Note_on_c, 3, 55, 75
1, 75720, Note_on_c, 4, 50, 0
1, 75816, Note_on_c, 3, 55, 0
1, 75840, Note_on_c, 1, 89, 93
1, 75840, Note_on_c, 4, 50, 75
1, 75960, Note_on_c, 3, 55, 75
1, 76056, Note_on_c, 3, 55, 0
1, 76080, Note_on_c, 3, 53, 76
1, 76176, Note_on_c, 3, 53, 0
1, 76200, Note_on_c, 3, 55, 76
1, 76200, Note_on_c, 4, 50, 0
1, 76296, Note_on_c, 3, 55, 0
1, 76320, Note_on_c, 4, 47, 76
1, 76440, Note_on_c, 3, 55, 76
1, 76536, Note_on_c, 3, 55, 0
1, 76560, Note_on_c, 1, 89, 0
1, 76560, Note_on_c, 1, 86, 85
1, 76560, Note_on_c, 3, 50, 76
1, 76656, Note_on_c, 3, 50, 0
1, 76680, Note_on_c, 3, 55, 76
1, 76680, Note_on_c, 4, 47, 0
1, 76715, Note_on_c, 1, 86, 0
1, 76776, Note_on_c, 3, 55, 0
1, 76800, Note_on_c, 1, 83, 83
1, 76800, Note_on_c, 4, 47, 76
1, 76920, Note_on_c, 3, 55, 77
1, 76955, Note_on_c, 1, 83, 0
1, 77016, Note_on_c, 3, 55, 0
1, 77040, Note_on_c, 1, 79, 81
1, 77040, Note_on_c, 3, 50, 77
1, 77136, Note_on_c, 3, 50, 0
1, 77160, Note_on_c, 3, 55, 77
1, 77160, Note_on_c, 4, 47, 0
1, 77195, Note_on_c, 1, 79, 0
1, 77256, Note_on_c, 3, 55, 0
1, 77280, Note_on_c, 1, 77, 78
1, 77280, Note_on_c, 4, 47, 77
1, 77400, Note_on_c, 3, 55, 77
1, 77435, Note_on_c, 1, 77, 0
1, 77496, Note_on_c, 3, 55, 0
1, 77520, Note_on_c, 1, 74, 76
1, 77520, Note_on_c, 3, 50, 77
1, 77616, Note_on_c, 3, 50, 0
1, 77640, Note_on_c, 3, 55, 77
1, 77640, Note_on_c, 4, 47, 0
1, 77675, Note_on_c, 1, 74, 0
1, 77736, Note_on_c, 3, 55, 0
1, 77760, Note_on_c, 1, 76, 74
1, 77760, Note_on_c, 4, 48, 77
1, 78000, Note_on_c, 1, 76, 0
1, 78165, Note_on_c, 4, 48, 0
1, 78240, Note_on_c, 1, 79, 58
1, 78240, Note_on_c, 2, 76, 58
1, 78720, Note_on_c, 1, 79, 0
1, 78720, Note_on_c, 1, 77, 61
1, 78720, Note_on_c, 2, 76, 0
1, 78720, Note_on_c, 2, 74, 61
1, 79132, Note_on_c, 2, 74, 0
1, 79147, Note_on_c, 1, 77, 0
1, 79200, Note_on_c, 1, 76, 65
1, 79200, Note_on_c, 2, 73, 65
1, 79200, Note_on_c, 4, 70, 65
1, 79200, Note_on_c, 5, 67, 65
1, 79680, Note_on_c, 1, 76, 0
1, 79680, Note_on_c, 1, 77, 56
1, 79680, Note_on_c, 2, 73, 0
1, 79680, Note_on_c, 2, 74, 56
1, 79680, Note_on_c, 4, 70, 0
1, 79680, Note_on_c, 4, 69, 56
1, 79680, Note_on_c, 5, 67, 0
1, 79680, Note_on_c, 5, 65, 56
1, 79872, Note_on_c, 1, 77, 0
1, 79872, Note_on_c, 2, 74, 0
1, 79872, Note_on_c, 4, 69, 0
1, 79872, Note_on_c, 5, 65, 0
1, 79920, Note_on_c, 1, 77, 56
1, 79920, Note_on_c, 2, 74, 56
1, 80160, Note_on_c, 1, 77, 0
1, 80160, Note_on_c, 1, 81, 58
1, 80160, Note_on_c, 2, 74, 0
1, 80160, Note_on_c, 2, 77, 58
1, 80400, Note_on_c, 1, 81, 0
1, 80400, Note_on_c, 1, 77, 60
1, 80400, Note_on_c, 2, 77, 0
1, 80400, Note_on_c, 2, 74, 60
1, 80592, Note_on_c, 1, 77, 0
1, 80592, Note_on_c, 2, 74, 0
1, 80640, Note_on_c, 1, 74, 62
1, 80640, Note_on_c, 2, 71, 62
1, 80640, Note_on_c, 4, 68, 62
1, 80640, Note_on_c, 5, 65, 62
1, 81120, Note_on_c, 1, 74, 0
1, 81120, Note_on_c, 1, 76, 54
1, 81120, Note_on_c, 2, 71, 0
1, 81120, Note_on_c, 2, 72, 54
1, 81120, Note_on_c, 4, 68, 0
1, 81120, Note_on_c, 4, 67, 54
1, 81120, Note_on_c, 5, 65, 0
1, 81120, Note_on_c, 5, 64, 54
1, 81312, Note_on_c, 1, 76, 0
1, 81312, Note_on_c, 2, 72, 0
1, 81312, Note_on_c, 4, 67, 0
1, 81312, Note_on_c, 5, 64, 0
1, 81360, Note_on_c, 1, 79, 54
1, 81600, Note_on_c, 1, 79, 0
1, 81600, Note_on_c, 1, 81, 56
1, 81720, Note_on_c, 1, 81, 0
1, 81720, Note_on_c, 1, 79, 56
1, 81840, Note_on_c, 1, 79, 0
1, 81840, Note_on_c, 1, 77, 57
1, 81960, Note_on_c, 1, 77, 0
1, 81960, Note_on_c, 1, 76, 58
1, 82056, Note_on_c, 1, 76, 0
1, 82080, Note_on_c, 1, 73, 58
1, 82080, Note_on_c, 4, 69, 58
1, 82080, Note_on_c, 5, 65, 58
1, 82200, Note_on_c, 1, 73, 0
1, 82200, Note_on_c, 1, 74, 59
1, 82320, Note_on_c, 1, 74, 0
1, 82320, Note_on_c, 4, 69, 0
1, 82320, Note_on_c, 5, 65, 0
1, 82560, Note_on_c, 1, 73, 61
1, 82560, Note_on_c, 4, 69, 61
1, 82560, Note_on_c, 5, 65, 61
1, 82680, Note_on_c, 1, 73, 0
1, 82680, Note_on_c, 1, 74, 61
1, 82800, Note_on_c, 1, 74, 0
1, 82800, Note_on_c, 4, 69, 0
1, 82800, Note_on_c, 5, 65, 0
1, 83040, Note_on_c, 1, 73, 63
1, 83040, Note_on_c, 4, 69, 63
1, 83040, Note_on_c, 5, 65, 63
1, 83160, Note_on_c, 1, 73, 0
1, 83160, Note_on_c, 1, 74, 64
1, 83280, Note_on_c, 1, 74, 0
1, 83287, Note_on_c, 4, 69, 0
1, 83287, Note_on_c, 5, 65, 0
1, 83520, Note_on_c, 1, 81, 67
1, 83520, Note_on_c, 4, 62, 67
1, 83520, Note_on_c, 5, 53, 67
1, 83680, Note_on_c, 1, 81, 0
1, 83680, Note_on_c, 1, 77, 65
1, 83840, Note_on_c, 1, 77, 0
1, 83840, Note_on_c, 1, 74, 63
1, 83970, Note_on_c, 1, 74, 0
1, 84000, Note_on_c, 1, 72, 61
1, 84000, Note_on_c, 4, 62, 0
1, 84000, Note_on_c, 4, 64, 61
1, 84000, Note_on_c, 5, 53, 0
1, 84000, Note_on_c, 5, 55, 61
1, 84480, Note_on_c, 1, 72, 0
1, 84480, Note_on_c, 1, 71, 56
1, 84480, Note_on_c, 4, 64, 0
1, 84480, Note_on_c, 4, 65, 56
1, 84560, Note_on_c, 1, 71, 0
1, 84560, Note_on_c, 1, 72, 55
1, 84640, Note_on_c, 1, 72, 0
1, 84640, Note_on_c, 1, 71, 53
1, 84720, Note_on_c, 1, 71, 0
1, 84720, Note_on_c, 1, 69, 52
1, 84840, Note_on_c, 1, 69, 0
1, 84840, Note_on_c, 1, 71, 51
1, 84960, Note_on_c, 1, 71, 0
1, 84960, Note_on_c, 1, 72, 49
1, 84960, Note_on_c, 4, 65, 0
1, 84960, Note_on_c, 4, 64, 49
1, 84960, Note_on_c, 5, 60, 49
1, 84967, Note_on_c, 5, 55, 0
1, 85200, Note_on_c, 4, 64, 0
1, 85200, Note_on_c, 5, 60, 0
1, 85372, Note_on_c, 1, 72, 0
1, 85440, Note_on_c, 4, 55, 48
1, 85440, Note_on_c, 5, 52, 48
1, 85920, Note_on_c, 4, 55, 0
1, 85920, Note_on_c, 4, 53, 52
1, 85920, Note_on_c, 5, 52, 0
1, 85920, Note_on_c, 5, 50, 52
1, 86347, Note_on_c, 4, 53, 0
1, 86347, Note_on_c, 5, 50, 0
1, 86400, Note_on_c, 1, 70, 55
1, 86400, Note_on_c, 2, 67, 55
1, 86400, Note_on_c, 4, 52, 55
1, 86400, Note_on_c, 5, 49, 55
1, 86880, Note_on_c, 1, 70, 0
1, 86880, Note_on_c, 1, 69, 46
1, 86880, Note_on_c, 2, 67, 0
1, 86880, Note_on_c, 2, 65, 46
1, 86880, Note_on_c, 4, 52, 0
1, 86880, Note_on_c, 4, 53, 46
1, 86880, Note_on_c, 5, 49, 0
1, 86880, Note_on_c, 5, 50, 46
1, 87072, Note_on_c, 1, 69, 0
1, 87072, Note_on_c, 2, 65, 0
1, 87072, Note_on_c, 4, 53, 0
1, 87072, Note_on_c, 5, 50, 0
1, 87120, Note_on_c, 4, 53, 48
1, 87120, Note_on_c, 5, 50, 48
1, 87360, Note_on_c, 4, 53, 0
1, 87360, Note_on_c, 4, 57, 49
1, 87360, Note_on_c, 5, 50, 0
1, 87360, Note_on_c, 5, 53, 49
1, 87600, Note_on_c, 4, 57, 0
1, 87600, Note_on_c, 4, 53, 51
1, 87600, Note_on_c, 5, 53, 0
1, 87600, Note_on_c, 5, 50, 51
1, 87792, Note_on_c, 4, 53, 0
1, 87792, Note_on_c, 5, 50, 0
1, 87840, Note_on_c, 1, 68, 53
1, 87840, Note_on_c, 2, 65, 53
1, 87840, Note_on_c, 4, 50, 53
1, 87840, Note_on_c, 5, 47, 53
1, 88320, Note_on_c, 1, 68, 0
1, 88320, Note_on_c, 1, 67, 43
1, 88320, Note_on_c, 2, 65, 0
1, 88320, Note_on_c, 2, 64, 43
1, 88320, Note_on_c, 4, 50, 0
1, 88320, Note_on_c, 4, 52, 43
1, 88320, Note_on_c, 5, 47, 0
1, 88320, Note_on_c, 5, 48, 43
1, 88512, Note_on_c, 1, 67, 0
1, 88512, Note_on_c, 2, 64, 0
1, 88512, Note_on_c, 4, 52, 0
1, 88512, Note_on_c, 5, 48, 0
1, 88560, Note_on_c, 1, 67, 43
1, 88680, Note_on_c, 1, 67, 0
1, 88680, Note_on_c, 1, 66, 43
1, 88800, Note_on_c, 1, 66, 0
1, 88800, Note_on_c, 1, 69, 44
1, 88920, Note_on_c, 1, 69, 0
1, 88920, Note_on_c, 1, 67, 45
1, 89040, Note_on_c, 1, 67, 0
1, 89040, Note_on_c, 1, 65, 45
1, 89160, Note_on_c, 1, 65, 0
1, 89160, Note_on_c, 1, 64, 46
1, 89256, Note_on_c, 1, 64, 0
1, 89280, Note_on_c, 1, 64, 47
1, 89280, Note_on_c, 5, 41, 47
1, 89400, Note_on_c, 1, 64, 0
1, 89400, Note_on_c, 1, 62, 48
1, 89520, Note_on_c, 1, 62, 0
1, 89520, Note_on_c, 5, 41, 0
1, 89760, Note_on_c, 1, 61, 50
1, 89760, Note_on_c, 4, 57, 50
1, 89760, Note_on_c, 5, 53, 50
1, 89880, Note_on_c, 1, 61, 0
1, 89880, Note_on_c, 1, 62, 50
1, 90000, Note_on_c, 1, 62, 0
1, 90000, Note_on_c, 4, 57, 0
1, 90000, Note_on_c, 5, 53, 0
1, 90240, Note_on_c, 1, 61, 52
1, 90240, Note_on_c, 4, 57, 52
1, 90240, Note_on_c, 5, 53, 52
1, 90360, Note_on_c, 1, 61, 0
1, 90360, Note_on_c, 1, 62, 53
1, 90480, Note_on_c, 1, 62, 0
1, 90480, Note_on_c, 4, 57, 0
1, 90480, Note_on_c, 5, 53, 0
1, 90720, Note_on_c, 1, 68, 55
1, 90720, Note_on_c, 4, 53, 55
1, 90720, Note_on_c, 5, 41, 55
1, 90840, Note_on_c, 1, 68, 0
1, 90840, Note_on_c, 1, 69, 54
1, 90960, Note_on_c, 1, 69, 0
1, 90960, Note_on_c, 1, 65, 53
1, 91080, Note_on_c, 1, 65, 0
1, 91080, Note_on_c, 1, 62, 52
1, 91176, Note_on_c, 1, 62, 0
1, 91200, Note_on_c, 1, 60, 50
1, 91200, Note_on_c, 4, 53, 0
1, 91200, Note_on_c, 4, 52, 50
1, 91200, Note_on_c, 5, 41, 0
1, 91200, Note_on_c, 5, 43, 50
1, 91680, Note_on_c, 1, 60, 0
1, 91680, Note_on_c, 1, 59, 45
1, 91680, Note_on_c, 4, 52, 0
1, 91680, Note_on_c, 4, 50, 45
1, 91760, Note_on_c, 1, 59, 0
1, 91760, Note_on_c, 1, 60, 44
1, 91840, Note_on_c, 1, 60, 0
1, 91840, Note_on_c, 1, 59, 43
1, 91920, Note_on_c, 1, 59, 0
1, 91920, Note_on_c, 1, 57, 42
1, 92040, Note_on_c, 1, 57, 0
1, 92040, Note_on_c, 1, 59, 41
1, 92160, Note_on_c, 1, 59, 0
1, 92160, Note_on_c, 1, 60, 42
1, 92160, Note_on_c, 4, 50, 0
1, 92160, Note_on_c, 5, 43, 0
1, 92160, Note_on_c, 5, 36, 52
1, 92280, Note_on_c, 5, 36, 0
1, 92280, Note_on_c, 5, 48, 52
1, 92400, Note_on_c, 5, 48, 0
1, 92400, Note_on_c, 5, 47, 52
1, 92520, Note_on_c, 5, 47, 0
1, 92520, Note_on_c, 5, 48, 53
1, 92580, Note_on_c, 1, 60, 0
1, 92640, Note_on_c, 5, 48, 0
1, 92640, Note_on_c, 5, 36, 53
1, 92880, Note_on_c, 1, 62, 53
1, 92880, Note_on_c, 2, 59, 53
1, 93000, Note_on_c, 1, 62, 0
1, 93000, Note_on_c, 2, 59, 0
1, 93067, Note_on_c, 5, 36, 0
1, 93120, Note_on_c, 1, 64, 54
1, 93120, Note_on_c, 2, 60, 54
1, 93240, Note_on_c, 1, 64, 0
1, 93240, Note_on_c, 2, 60, 0
1, 93360, Note_on_c, 1, 65, 54
1, 93360, Note_on_c, 2, 62, 54
1, 93480, Note_on_c, 1, 65, 0
1, 93480, Note_on_c, 2, 62, 0
1, 93600, Note_on_c, 1, 67, 55
1, 93600, Note_on_c, 2, 64, 55
1, 93600, Note_on_c, 5, 36, 55
1, 93720, Note_on_c, 5, 36, 0
1, 93720, Note_on_c, 5, 48, 55
1, 93840, Note_on_c, 5, 48, 0
1, 93840, Note_on_c, 5, 47, 55
1, 93960, Note_on_c, 5, 47, 0
1, 93960, Note_on_c, 5, 48, 56
1, 94027, Note_on_c, 1, 67, 0
1, 94027, Note_on_c, 2, 64, 0
1, 94080, Note_on_c, 5, 48, 0
1, 94080, Note_on_c, 5, 36, 56
1, 94320, Note_on_c, 1, 69, 57
1, 94320, Note_on_c, 2, 65, 57
1, 94440, Note_on_c, 1, 69, 0
1, 94440, Note_on_c, 2, 65, 0
1, 94507, Note_on_c, 5, 36, 0
1, 94560, Note_on_c, 1, 70, 57
1, 94560, Note_on_c, 2, 67, 57
1, 94680, Note_on_c, 1, 70, 0
1, 94680, Note_on_c, 2, 67, 0
1, 94800, Note_on_c, 1, 64, 58
1, 94800, Note_on_c, 2, 58, 58
1, 94920, Note_on_c, 1, 64, 0
1, 94920, Note_on_c, 2, 58, 0
1, 95040, Note_on_c, 1, 65, 58
1, 95040, Note_on_c, 2, 57, 58
1, 95040, Note_on_c, 5, 36, 58
1, 95160, Note_on_c, 5, 36, 0
1, 95160, Note_on_c, 5, 48, 58
1, 95280, Note_on_c, 5, 48, 0
1, 95280, Note_on_c, 5, 47, 59
1, 95400, Note_on_c, 5, 47, 0
1, 95400, Note_on_c, 5, 48, 59
1, 95467, Note_on_c, 1, 65, 0
1, 95467, Note_on_c, 2, 57, 0
1, 95520, Note_on_c, 5, 48, 0
1, 95520, Note_on_c, 5, 36, 59
1, 95760, Note_on_c, 1, 64, 60
1, 95760, Note_on_c, 2, 60, 60
1, 95880, Note_on_c, 1, 64, 0
1, 95880, Note_on_c, 2, 60, 0
1, 95947, Note_on_c, 5, 36, 0
1, 96000, Note_on_c, 1, 65, 60
1, 96000, Note_on_c, 2, 62, 60
1, 96120, Note_on_c, 1, 65, 0
1, 96120, Note_on_c, 2, 62, 0
1, 96240, Note_on_c, 1, 67, 61
1, 96240, Note_on_c, 2, 64, 61
1, 96360, Note_on_c, 1, 67, 0
1, 96360, Note_on_c, 2, 64, 0
1, 96480, Note_on_c, 1, 69, 61
1, 96480, Note_on_c, 2, 65, 61
1, 96480, Note_on_c, 5, 36, 61
1, 96600, Note_on_c, 5, 36, 0
1, 96600, Note_on_c, 5, 48, 62
1, 96720, Note_on_c, 5, 48, 0
1, 96720, Note_on_c, 5, 47, 62
1, 96840, Note_on_c, 5, 47, 0
1, 96840, Note_on_c, 5, 48, 62
1, 96900, Note_on_c, 1, 69, 0
1, 96900, Note_on_c, 2, 65, 0
1, 96960, Note_on_c, 5, 48, 0
1, 96960, Note_on_c, 5, 36, 62
1, 97200, Note_on_c, 1, 71, 63
1, 97200, Note_on_c, 2, 67, 63
1, 97320, Note_on_c, 1, 71, 0
1, 97320, Note_on_c, 2, 67, 0
1, 97387, Note_on_c, 5, 36, 0
1, 97440, Note_on_c, 1, 72, 63
1, 97440, Note_on_c, 2, 69, 63
1, 97560, Note_on_c, 1, 72, 0
1, 97560, Note_on_c, 2, 69, 0
1, 97680, Note_on_c, 1, 69, 64
1, 97680, Note_on_c, 2, 65, 64
1, 97800, Note_on_c, 1, 69, 0
1, 97800, Note_on_c, 2, 65, 0
1, 97920, Note_on_c, 1, 67, 65
1, 97920, Note_on_c, 2, 64, 65
1, 97920, Note_on_c, 5, 48, 65
1, 97920, Note_on_c, 5, 36, 65
1, 98040, Note_on_c, 1, 67, 0
1, 98040, Note_on_c, 1, 60, 65
1, 98040, Note_on_c, 2, 64, 0
1, 98160, Note_on_c, 1, 60, 0
1, 98160, Note_on_c, 1, 62, 65
1, 98280, Note_on_c, 1, 62, 0
1, 98280, Note_on_c, 1, 64, 65
1, 98332, Note_on_c, 5, 48, 0
1, 98340, Note_on_c, 5, 36, 0
1, 98400, Note_on_c, 1, 64, 0
1, 98400, Note_on_c, 1, 65, 66
1, 98520, Note_on_c, 1, 65, 0
1, 98520, Note_on_c, 1, 67, 66
1, 98640, Note_on_c, 1, 67, 0
1, 98640, Note_on_c, 1, 69, 66
1, 98760, Note_on_c, 1, 69, 0
1, 98760, Note_on_c, 1, 71, 66
1, 98880, Note_on_c, 1, 71, 0
1, 98880, Note_on_c, 1, 72, 67
1, 99000, Note_on_c, 1, 72, 0
1, 99000, Note_on_c, 1, 74, 67
1, 99120, Note_on_c, 1, 74, 0
1, 99120, Note_on_c, 1, 76, 67
1, 99240, Note_on_c, 1, 76, 0
1, 99240, Note_on_c, 1, 77, 68
1, 99360, Note_on_c, 1, 77, 0
1, 99360, Note_on_c, 1, 79, 68
1, 99480, Note_on_c, 1, 79, 0
1, 99480, Note_on_c, 1, 81, 68
1, 99600, Note_on_c, 1, 81, 0
1, 99600, Note_on_c, 1, 77, 68
1, 99720, Note_on_c, 1, 77, 0
1, 99720, Note_on_c, 1, 79, 69
1, 99840, Note_on_c, 1, 79, 0
1, 99840, Note_on_c, 1, 76, 69
1, 99960, Note_on_c, 1, 76, 0
1, 99960, Note_on_c, 1, 77, 69
1, 100080, Note_on_c, 1, 77, 0
1, 100080, Note_on_c, 1, 74, 69
1, 100200, Note_on_c, 1, 74, 0
1, 100200, Note_on_c, 1, 76, 70
1, 100320, Note_on_c, 1, 76, 0
1, 100320, Note_on_c, 1, 72, 70
1, 100440, Note_on_c, 1, 72, 0
1, 100440, Note_on_c, 1, 74, 70
1, 100560, Note_on_c, 1, 74, 0
1, 100560, Note_on_c, 1, 70, 70
1, 100680, Note_on_c, 1, 70, 0
1, 100680, Note_on_c, 1, 72, 71
1, 100800, Note_on_c, 1, 72, 0
1, 100800, Note_on_c, 1, 69, 71
1, 100920, Note_on_c, 5, 41, 71
1, 101040, Note_on_c, 5, 41, 0
1, 101040, Note_on_c, 5, 43, 72
1, 101160, Note_on_c, 5, 43, 0
1, 101160, Note_on_c, 5, 45, 72
1, 101227, Note_on_c, 1, 69, 0
1, 101280, Note_on_c, 1, 81, 72
1, 101280, Note_on_c, 2, 77, 72
1, 101280, Note_on_c, 5, 45, 0
1, 101280, Note_on_c, 5, 46, 72
1, 101400, Note_on_c, 5, 46, 0
1, 101400, Note_on_c, 5, 48, 72
1, 101520, Note_on_c, 1, 81, 0
1, 101520, Note_on_c, 2, 77, 0
1, 101520, Note_on_c, 5, 48, 0
1, 101520, Note_on_c, 5, 50, 73
1, 101640, Note_on_c, 5, 50, 0
1, 101640, Note_on_c, 5, 52, 73
1, 101760, Note_on_c, 5, 52, 0
1, 101760, Note_on_c, 5, 53, 73
1, 101880, Note_on_c, 5, 53, 0
1, 101880, Note_on_c, 5, 55, 73
1, 102000, Note_on_c, 1, 81, 74
1, 102000, Note_on_c, 2, 77, 74
1, 102000, Note_on_c, 5, 55, 0
1, 102000, Note_on_c, 5, 57, 74
1, 102120, Note_on_c, 5, 57, 0
1, 102120, Note_on_c, 5, 59, 74
1, 102192, Note_on_c, 1, 81, 0
1, 102192, Note_on_c, 2, 77, 0
1, 102240, Note_on_c, 1, 79, 75
1, 102240, Note_on_c, 2, 76, 75
1, 102240, Note_on_c, 5, 59, 0
1, 102240, Note_on_c, 5, 60, 75
1, 102432, Note_on_c, 5, 60, 0
1, 102480, Note_on_c, 1, 79, 0
1, 102480, Note_on_c, 1, 81, 73
1, 102480, Note_on_c, 2, 76, 0
1, 102480, Note_on_c, 2, 74, 73
1, 102480, Note_on_c, 5, 53, 73
1, 102600, Note_on_c, 1, 81, 0
1, 102600, Note_on_c, 1, 77, 71
1, 102600, Note_on_c, 2, 74, 0
1, 102672, Note_on_c, 5, 53, 0
1, 102696, Note_on_c, 1, 77, 0
1, 102720, Note_on_c, 1, 76, 70
1, 102720, Note_on_c, 2, 72, 70
1, 102720, Note_on_c, 5, 55, 70
1, 103132, Note_on_c, 5, 55, 0
1, 103200, Note_on_c, 1, 76, 0
1, 103200, Note_on_c, 1, 74, 65
1, 103200, Note_on_c, 2, 72, 0
1, 103200, Note_on_c, 2, 71, 65
1, 103200, Note_on_c, 5, 43, 65
1, 103280, Note_on_c, 1, 74, 0
1, 103280, Note_on_c, 1, 76, 65
1, 103360, Note_on_c, 1, 76, 0
1, 103360, Note_on_c, 1, 74, 64
1, 103440, Note_on_c, 1, 74, 0
1, 103440, Note_on_c, 1, 72, 63
1, 103560, Note_on_c, 1, 72, 0
1, 103560, Note_on_c, 1, 74, 62
1, 103620, Note_on_c, 5, 43, 0
1, 103680, Note_on_c, 1, 74, 0
1, 103680, Note_on_c, 1, 72, 66
1, 103680, Note_on_c, 2, 71, 0
1, 103680, Note_on_c, 5, 48, 66
1, 103800, Note_on_c, 1, 72, 0
1, 103800, Note_on_c, 1, 60, 66
1, 103920, Note_on_c, 1, 60, 0
1, 103920, Note_on_c, 1, 62, 67
1, 104040, Note_on_c, 1, 62, 0
1, 104040, Note_on_c, 1, 64, 67
1, 104092, Note_on_c, 5, 48, 0
1, 104160, Note_on_c, 1, 64, 0
1, 104160, Note_on_c, 1, 65, 68
1, 104280, Note_on_c, 1, 65, 0
1, 104280, Note_on_c, 1, 67, 68
1, 104400, Note_on_c, 1, 67, 0
1, 104400, Note_on_c, 1, 69, 69
1, 104520, Note_on_c, 1, 69, 0
1, 104520, Note_on_c, 1, 71, 69
1, 104640, Note_on_c, 1, 71, 0
1, 104640, Note_on_c, 1, 72, 70
1, 104760, Note_on_c, 1, 72, 0
1, 104760, Note_on_c, 1, 74, 70
1, 104880, Note_on_c, 1, 74, 0
1, 104880, Note_on_c, 1, 76, 71
1, 105000, Note_on_c, 1, 76, 0
1, 105000, Note_on_c, 1, 77, 71
1, 105120, Note_on_c, 1, 77, 0
1, 105120, Note_on_c, 1, 79, 71
1, 105240, Note_on_c, 1, 79, 0
1, 105240, Note_on_c, 1, 81, 72
1, 105360, Note_on_c, 1, 81, 0
1, 105360, Note_on_c, 1, 77, 72
1, 105480, Note_on_c, 1, 77, 0
1, 105480, Note_on_c, 1, 79, 73
1, 105600, Note_on_c, 1, 79, 0
1, 105600, Note_on_c, 1, 76, 73
1, 105720, Note_on_c, 1, 76, 0
1, 105720, Note_on_c, 1, 77, 74
1, 105840, Note_on_c, 1, 77, 0
1, 105840, Note_on_c, 1, 74, 74
1, 105960, Note_on_c, 1, 74, 0
1, 105960, Note_on_c, 1, 76, 75
1, 106080, Note_on_c, 1, 76, 0
1, 106080, Note_on_c, 1, 72, 75
1, 106200, Note_on_c, 1, 72, 0
1, 106200, Note_on_c, 1, 74, 76
1, 106320, Note_on_c, 1, 74, 0
1, 106320, Note_on_c, 1, 70, 76
1, 106440, Note_on_c, 1, 70, 0
1, 106440, Note_on_c, 1, 72, 77
1, 106560, Note_on_c, 1, 72, 0
1, 106560, Note_on_c, 1, 69, 77
1, 106680, Note_on_c, 5, 41, 78
1, 106800, Note_on_c, 5, 41, 0
1, 106800, Note_on_c, 5, 43, 78
1, 106920, Note_on_c, 5, 43, 0
1, 106920, Note_on_c, 5, 45, 78
1, 106980, Note_on_c, 1, 69, 0
1, 107040, Note_on_c, 1, 81, 79
1, 107040, Note_on_c, 2, 77, 79
1, 107040, Note_on_c, 5, 45, 0
1, 107040, Note_on_c, 5, 46, 79
1, 107160, Note_on_c, 5, 46, 0
1, 107160, Note_on_c, 5, 48, 79
1, 107280, Note_on_c, 1, 81, 0
1, 107280, Note_on_c, 2, 77, 0
1, 107280, Note_on_c, 5, 48, 0
1, 107280, Note_on_c, 5, 50, 80
1, 107400, Note_on_c, 5, 50, 0
1, 107400, Note_on_c, 5, 52, 80
1, 107520, Note_on_c, 5, 52, 0
1, 107520, Note_on_c, 5, 53, 81
1, 107640, Note_on_c, 5, 53, 0
1, 107640, Note_on_c, 5, 55, 81
1, 107760, Note_on_c, 1, 81, 82
1, 107760, Note_on_c, 2, 77, 82
1, 107760, Note_on_c, 5, 55, 0
1, 107760, Note_on_c, 5, 57, 82
1, 107880, Note_on_c, 5, 57, 0
1, 107880, Note_on_c, 5, 59, 82
1, 107952, Note_on_c, 1, 81, 0
1, 107952, Note_on_c, 2, 77, 0
1, 108000, Note_on_c, 1, 79, 83
1, 108000, Note_on_c, 2, 76, 83
1, 108000, Note_on_c, 5, 59, 0
1, 108000, Note_on_c, 5, 60, 83
1, 108192, Note_on_c, 5, 60, 0
1, 108240, Note_on_c, 1, 79, 0
1, 108240, Note_on_c, 1, 81, 81
1, 108240, Note_on_c, 2, 76, 0
1, 108240, Note_on_c, 2, 74, 81
1, 108240, Note_on_c, 5, 53, 81
1, 108360, Note_on_c, 1, 81, 0
1, 108360, Note_on_c, 1, 77, 80
1, 108360, Note_on_c, 2, 74, 0
1, 108432, Note_on_c, 5, 53, 0
1, 108456, Note_on_c, 1, 77, 0
1, 108480, Note_on_c, 1, 76, 79
1, 108480, Note_on_c, 2, 72, 79
1, 108480, Note_on_c, 5, 55, 79
1, 108907, Note_on_c, 5, 55, 0
1, 108960, Note_on_c, 1, 76, 0
1, 108960, Note_on_c, 1, 74, 75
1, 108960, Note_on_c, 2, 72, 0
1, 108960, Note_on_c, 2, 71, 75
1, 108960, Note_on_c, 5, 43, 75
1, 109040, Note_on_c, 1, 74, 0
1, 109040, Note_on_c, 1, 76, 74
1, 109120, Note_on_c, 1, 76, 0
1, 109120, Note_on_c, 1, 74, 74
1, 109200, Note_on_c, 1, 74, 0
1, 109200, Note_on_c, 1, 72, 73
1, 109320, Note_on_c, 1, 72, 0
1, 109320, Note_on_c, 1, 74, 72
1, 109380, Note_on_c, 5, 43, 0
1, 109440, Note_on_c, 1, 74, 0
1, 109440, Note_on_c, 1, 72, 72
1, 109440, Note_on_c, 2, 71, 0
1, 109440, Note_on_c, 5, 48, 72
1, 109560, Note_on_c, 1, 72, 0
1, 109560, Note_on_c, 1, 67, 73
1, 109655, Note_on_c, 1, 67, 0
1, 109680, Note_on_c, 1, 72, 73
1, 109775, Note_on_c, 1, 72, 0
1, 109800, Note_on_c, 1, 76, 74
1, 109860, Note_on_c, 5, 48, 0
1, 109895, Note_on_c, 1, 76, 0
1, 109920, Note_on_c, 1, 79, 75
1, 110015, Note_on_c, 1, 79, 0
1, 110040, Note_on_c, 1, 76, 75
1, 110135, Note_on_c, 1, 76, 0
1, 110160, Note_on_c, 1, 72, 76
1, 110255, Note_on_c, 1, 72, 0
1, 110280, Note_on_c, 1, 67, 77
1, 110375, Note_on_c, 1, 67, 0
1, 110400, Note_on_c, 1, 77, 78
1, 110400, Note_on_c, 4, 62, 78
1, 110400, Note_on_c, 5, 55, 78
1, 110495, Note_on_c, 1, 77, 0
1, 110520, Note_on_c, 1, 74, 78
1, 110592, Note_on_c, 4, 62, 0
1, 110615, Note_on_c, 1, 74, 0
1, 110640, Note_on_c, 1, 71, 79
1, 110640, Note_on_c, 4, 65, 79
1, 110735, Note_on_c, 1, 71, 0
1, 110760, Note_on_c, 1, 67, 80
1, 110827, Note_on_c, 5, 55, 0
1, 110832, Note_on_c, 4, 65, 0
1, 110855, Note_on_c, 1, 67, 0
1, 110880, Note_on_c, 1, 72, 80
1, 110880, Note_on_c, 4, 64, 80
1, 110880, Note_on_c, 5, 60, 80
1, 110975, Note_on_c, 1, 72, 0
1, 111000, Note_on_c, 1, 67, 81
1, 111095, Note_on_c, 1, 67, 0
1, 111120, Note_on_c, 1, 72, 82
1, 111215, Note_on_c, 1, 72, 0
1, 111240, Note_on_c, 1, 76, 82
1, 111307, Note_on_c, 4, 64, 0
1, 111307, Note_on_c, 5, 60, 0
1, 111335, Note_on_c, 1, 76, 0
1, 111360, Note_on_c, 1, 79, 83
1, 111455, Note_on_c, 1, 79, 0
1, 111480, Note_on_c, 1, 76, 84
1, 111575, Note_on_c, 1, 76, 0
1, 111600, Note_on_c, 1, 72, 84
1, 111695, Note_on_c, 1, 72, 0
1, 111720, Note_on_c, 1, 67, 85
1, 111815, Note_on_c, 1, 67, 0
1, 111840, Note_on_c, 1, 77, 86
1, 111840, Note_on_c, 4, 62, 86
1, 111840, Note_on_c, 5, 55, 86
1, 111935, Note_on_c, 1, 77, 0
1, 111960, Note_on_c, 1, 74, 87
1, 112032, Note_on_c, 4, 62, 0
1, 112055, Note_on_c, 1, 74, 0
1, 112080, Note_on_c, 1, 71, 87
1, 112080, Note_on_c, 4, 65, 87
1, 112175, Note_on_c, 1, 71, 0
1, 112200, Note_on_c, 1, 67, 88
1, 112267, Note_on_c, 5, 55, 0
1, 112272, Note_on_c, 4, 65, 0
1, 112295, Note_on_c, 1, 67, 0
1, 112320, Note_on_c, 1, 72, 89
1, 112320, Note_on_c, 4, 64, 89
1, 112320, Note_on_c, 5, 60, 89
1, 112680, Note_on_c, 1, 72, 0
1, 112680, Note_on_c, 4, 64, 0
1, 112680, Note_on_c, 5, 60, 0
1, 112800, Note_on_c, 1, 84, 86
1, 112800, Note_on_c, 2, 79, 86
1, 112800, Note_on_c, 2, 76, 86
1, 112800, Note_on_c, 4, 60, 86
1, 112800, Note_on_c, 5, 48, 86
1, 113152, Note_on_c, 5, 48, 0
1, 113160, Note_on_c, 1, 84, 0
1, 113160, Note_on_c, 2, 76, 0
1, 113160, Note_on_c, 2, 79, 0
1, 113167, Note_on_c, 4, 60, 0
1, 113760, Note_on_c, 1, 84, 45
1, 114240, Note_on_c, 1, 84, 0
1, 114240, Note_on_c, 1, 76, 42
1, 114240, Note_on_c, 4, 55, 44
1, 114240, Note_on_c, 4, 60, 44
1, 114240, Note_on_c, 5, 48, 44
1, 114600, Note_on_c, 4, 60, 0
1, 114600, Note_on_c, 4, 55, 0
1, 114600, Note_on_c, 5, 48, 0
1, 114607, Note_on_c, 1, 76, 0
1, 114720, Note_on_c, 4, 60, 42
1, 114720, Note_on_c, 4, 55, 42
1, 114720, Note_on_c, 5, 48, 42
1, 115080, Note_on_c, 4, 55, 0
1, 115080, Note_on_c, 4, 60, 0
1, 115080, Note_on_c, 5, 48, 0
1, 115200, Note_on_c, 1, 81, 41
1, 115680, Note_on_c, 1, 81, 0
1, 115680, Note_on_c, 1, 71, 38
1, 115680, Note_on_c, 4, 62, 40
1, 115680, Note_on_c, 4, 55, 40
1, 115680, Note_on_c, 5, 53, 40
1, 116040, Note_on_c, 1, 71, 0
1, 116040, Note_on_c, 4, 55, 0
1, 116040, Note_on_c, 4, 62, 0
1, 116040, Note_on_c, 5, 53, 0
1, 116160, Note_on_c, 4, 62, 39
1, 116160, Note_on_c, 4, 55, 39
1, 116160, Note_on_c, 5, 53, 39
1, 116520, Note_on_c, 4, 55, 0
1, 116520, Note_on_c, 4, 62, 0
1, 116520, Note_on_c, 5, 53, 0
1, 116640, Note_on_c, 1, 72, 36
1, 116640, Note_on_c, 4, 55, 36
1, 116640, Note_on_c, 4, 60, 36
1, 116640, Note_on_c, 5, 52, 36
1, 116700, Note_on_c, 1, 72, 0
1, 116700, Note_on_c, 1, 74, 37
1, 116760, Note_on_c, 1, 74, 0
1, 116760, Note_on_c, 1, 72, 37
1, 117000, Note_on_c, 1, 72, 0
1, 117000, Note_on_c, 1, 71, 38
1, 117000, Note_on_c, 4, 55, 0
1, 117007, Note_on_c, 4, 60, 0
1, 117007, Note_on_c, 5, 52, 0
1, 117120, Note_on_c, 1, 71, 0
1, 117120, Note_on_c, 1, 72, 39
1, 117480, Note_on_c, 1, 72, 0
1, 117480, Note_on_c, 1, 74, 41
1, 117600, Note_on_c, 1, 74, 0
1, 117600, Note_on_c, 1, 76, 42
1, 117600, Note_on_c, 5, 48, 42
1, 117960, Note_on_c, 1, 76, 0
1, 117960, Note_on_c, 1, 77, 44
1, 118080, Note_on_c, 1, 77, 0
1, 118080, Note_on_c, 1, 76, 45
1, 118080, Note_on_c, 2, 72, 45
1, 118080, Note_on_c, 5, 48, 0
1, 118080, Note_on_c, 5, 55, 45
1, 118560, Note_on_c, 1, 76, 0
1, 118560, Note_on_c, 1, 74, 43
1, 118560, Note_on_c, 2, 72, 0
1, 118560, Note_on_c, 2, 71, 43
1, 118560, Note_on_c, 5, 55, 0
1, 118560, Note_on_c, 5, 53, 43
1, 118640, Note_on_c, 1, 74, 0
1, 118640, Note_on_c, 1, 76, 42
1, 118720, Note_on_c, 1, 76, 0
1, 118720, Note_on_c, 1, 74, 42
1, 118800, Note_on_c, 1, 74, 0
1, 118800, Note_on_c, 1, 72, 41
1, 118920, Note_on_c, 1, 72, 0
1, 118920, Note_on_c, 1, 74, 40
1, 119040, Note_on_c, 1, 74, 0
1, 119040, Note_on_c, 1, 72, 40
1, 119040, Note_on_c, 2, 71, 0
1, 119040, Note_on_c, 5, 53, 0
1, 119040, Note_on_c, 5, 52, 40
1, 119460, Note_on_c, 1, 72, 0
1, 119460, Note_on_c, 5, 52, 0
1, 119520, Note_on_c, 1, 69, 39
1, 119520, Note_on_c, 4, 62, 39
1, 119520, Note_on_c, 4, 57, 39
1, 119520, Note_on_c, 5, 53, 39
1, 119760, Note_on_c, 1, 69, 0
1, 119760, Note_on_c, 1, 81, 39
1, 120000, Note_on_c, 1, 81, 0
1, 120000, Note_on_c, 1, 79, 40
1, 120240, Note_on_c, 1, 79, 0
1, 120240, Note_on_c, 1, 77, 41
1, 120480, Note_on_c, 1, 77, 0
1, 120480, Note_on_c, 1, 76, 42
1, 120720, Note_on_c, 1, 76, 0
1, 120720, Note_on_c, 1, 74, 43
1, 120960, Note_on_c, 1, 74, 0
1, 120960, Note_on_c, 1, 72, 43
1, 120960, Note_on_c, 4, 57, 0
1, 120960, Note_on_c, 4, 62, 0
1, 120960, Note_on_c, 4, 55, 43
1, 120960, Note_on_c, 4, 62, 43
1, 120960, Note_on_c, 5, 53, 0
1, 120960, Note_on_c, 5, 53, 43
1, 121200, Note_on_c, 1, 72, 0
1, 121200, Note_on_c, 1, 71, 44
1, 121440, Note_on_c, 1, 71, 0
1, 121440, Note_on_c, 1, 69, 45
1, 121680, Note_on_c, 1, 69, 0
1, 121680, Note_on_c, 1, 67, 46
1, 121920, Note_on_c, 1, 67, 0
1, 121920, Note_on_c, 1, 69, 47
1, 122160, Note_on_c, 1, 69, 0
1, 122160, Note_on_c, 1, 71, 47
1, 122332, Note_on_c, 5, 53, 0
1, 122340, Note_on_c, 4, 62, 0
1, 122340, Note_on_c, 4, 55, 0
1, 122352, Note_on_c, 1, 71, 0
1, 122400, Note_on_c, 1, 72, 48
1, 122400, Note_on_c, 4, 55, 48
1, 122400, Note_on_c, 4, 60, 48
1, 122400, Note_on_c, 5, 52, 48
1, 122640, Note_on_c, 1, 72, 0
1, 122640, Note_on_c, 1, 76, 49
1, 122820, Note_on_c, 5, 52, 0
1, 122827, Note_on_c, 4, 60, 0
1, 122827, Note_on_c, 4, 55, 0
1, 122830, Note_on_c, 1, 76, 0
1, 122880, Note_on_c, 1, 79, 50
1, 122880, Note_on_c, 2, 76, 50
1, 122880, Note_on_c, 5, 48, 50
1, 123120, Note_on_c, 1, 79, 0
1, 123120, Note_on_c, 1, 76, 51
1, 123120, Note_on_c, 2, 76, 0
1, 123120, Note_on_c, 2, 72, 51
1, 123307, Note_on_c, 5, 48, 0
1, 123360, Note_on_c, 1, 76, 0
1, 123360, Note_on_c, 1, 81, 52
1, 123360, Note_on_c, 2, 72, 0
1, 123360, Note_on_c, 2, 77, 52
1, 123360, Note_on_c, 4, 53, 52
1, 123360, Note_on_c, 5, 41, 52
1, 123600, Note_on_c, 1, 81, 0
1, 123600, Note_on_c, 1, 77, 52
1, 123600, Note_on_c, 2, 77, 0
1, 123600, Note_on_c, 2, 74, 52
1, 123780, Note_on_c, 5, 41, 0
1, 123787, Note_on_c, 4, 53, 0
1, 123792, Note_on_c, 1, 77, 0
1, 123792, Note_on_c, 2, 74, 0
1, 123840, Note_on_c, 1, 76, 53
1, 123840, Note_on_c, 2, 72, 53
1, 123840, Note_on_c, 4, 55, 53
1, 123840, Note_on_c, 5, 43, 53
1, 124320, Note_on_c, 1, 76, 0
1, 124320, Note_on_c, 1, 74, 46
1, 124320, Note_on_c, 2, 72, 0
1, 124320, Note_on_c, 2, 71, 46
1, 124510, Note_on_c, 1, 74, 0
1, 124510, Note_on_c, 2, 71, 0
1, 124560, Note_on_c, 1, 79, 47
1, 124560, Note_on_c, 4, 55, 0
1, 124560, Note_on_c, 5, 43, 0
1, 124715, Note_on_c, 1, 79, 0
1, 124800, Note_on_c, 1, 81, 49
1, 124955, Note_on_c, 1, 81, 0
1, 125040, Note_on_c, 1, 83, 51
1, 125195, Note_on_c, 1, 83, 0
1, 125280, Note_on_c, 1, 84, 53
1, 125520, Note_on_c, 5, 68, 52
1, 125675, Note_on_c, 5, 68, 0
1, 125760, Note_on_c, 1, 84, 0
1, 125760, Note_on_c, 1, 76, 51
1, 125760, Note_on_c, 5, 69, 52
1, 125915, Note_on_c, 5, 69, 0
1, 126000, Note_on_c, 5, 71, 51
1, 126155, Note_on_c, 5, 71, 0
1, 126187, Note_on_c, 1, 76, 0
1, 126240, Note_on_c, 5, 72, 51
1, 126395, Note_on_c, 5, 72, 0
1, 126480, Note_on_c, 5, 69, 50
1, 126635, Note_on_c, 5, 69, 0
1, 126720, Note_on_c, 1, 81, 49
1, 126720, Note_on_c, 5, 65, 49
1, 126875, Note_on_c, 5, 65, 0
1, 126960, Note_on_c, 5, 64, 49
1, 127115, Note_on_c, 5, 64, 0
1, 127200, Note_on_c, 1, 81, 0
1, 127200, Note_on_c, 1, 71, 46
1, 127200, Note_on_c, 5, 65, 48
1, 127355, Note_on_c, 5, 65, 0
1, 127440, Note_on_c, 5, 62, 47
1, 127595, Note_on_c, 5, 62, 0
1, 127620, Note_on_c, 1, 71, 0
1, 127680, Note_on_c, 5, 67, 47
1, 127835, Note_on_c, 5, 67, 0
1, 127920, Note_on_c, 5, 65, 46
1, 128075, Note_on_c, 5, 65, 0
1, 128160, Note_on_c, 1, 72, 46
1, 128160, Note_on_c, 5, 64, 46
1, 128220, Note_on_c, 1, 72, 0
1, 128220, Note_on_c, 1, 74, 46
1, 128280, Note_on_c, 1, 74, 0
1, 128280, Note_on_c, 1, 72, 47
1, 128315, Note_on_c, 5, 64, 0
1, 128400, Note_on_c, 5, 62, 47
1, 128520, Note_on_c, 1, 72, 0
1, 128520, Note_on_c, 1, 71, 48
1, 128555, Note_on_c, 5, 62, 0
1, 128640, Note_on_c, 1, 71, 0
1, 128640, Note_on_c, 1, 72, 48
1, 128640, Note_on_c, 5, 64, 48
1, 128795, Note_on_c, 5, 64, 0
1, 128880, Note_on_c, 5, 59, 49
1, 129000, Note_on_c, 1, 72, 0
1, 129000, Note_on_c, 1, 74, 50
1, 129035, Note_on_c, 5, 59, 0
1, 129120, Note_on_c, 1, 74, 0
1, 129120, Note_on_c, 1, 76, 51
1, 129120, Note_on_c, 5, 60, 51
1, 129275, Note_on_c, 5, 60, 0
1, 129360, Note_on_c, 5, 57, 52
1, 129480, Note_on_c, 1, 76, 0
1, 129480, Note_on_c, 1, 77, 52
1, 129515, Note_on_c, 5, 57, 0
1, 129600, Note_on_c, 1, 77, 0
1, 129600, Note_on_c, 1, 76, 53
1, 129600, Note_on_c, 5, 55, 53
1, 129840, Note_on_c, 5, 60, 52
1, 129960, Note_on_c, 5, 55, 0
1, 130080, Note_on_c, 1, 76, 0
1, 130080, Note_on_c, 1, 74, 51
1, 130080, Note_on_c, 5, 60, 0
1, 130080, Note_on_c, 5, 53, 51
1, 130160, Note_on_c, 1, 74, 0
1, 130160, Note_on_c, 1, 76, 51
1, 130240, Note_on_c, 1, 76, 0
1, 130240, Note_on_c, 1, 74, 50
1, 130320, Note_on_c, 1, 74, 0
1, 130320, Note_on_c, 1, 72, 50
1, 130320, Note_on_c, 5, 59, 50
1, 130440, Note_on_c, 1, 72, 0
1, 130440, Note_on_c, 1, 74, 49
1, 130440, Note_on_c, 5, 53, 0
1, 130560, Note_on_c, 1, 74, 0
1, 130560, Note_on_c, 1, 72, 49
1, 130560, Note_on_c, 5, 59, 0
1, 130560, Note_on_c, 5, 52, 49
1, 130800, Note_on_c, 5, 60, 48
1, 130920, Note_on_c, 5, 52, 0
1, 130980, Note_on_c, 1, 72, 0
1, 130980, Note_on_c, 5, 60, 0
1, 131040, Note_on_c, 1, 69, 48
1, 131040, Note_on_c, 5, 53, 48
1, 131280, Note_on_c, 1, 69, 0
1, 131280, Note_on_c, 1, 81, 49
1, 131280, Note_on_c, 4, 57, 49
1, 131520, Note_on_c, 1, 81, 0
1, 131520, Note_on_c, 1, 79, 51
1, 131520, Note_on_c, 4, 57, 0
1, 131520, Note_on_c, 4, 61, 51
1, 131760, Note_on_c, 1, 79, 0
1, 131760, Note_on_c, 1, 77, 52
1, 131760, Note_on_c, 4, 61, 0
1, 131760, Note_on_c, 4, 62, 52
1, 132000, Note_on_c, 1, 77, 0
1, 132000, Note_on_c, 1, 76, 53
1, 132000, Note_on_c, 4, 62, 0
1, 132000, Note_on_c, 4, 64, 53
1, 132240, Note_on_c, 1, 76, 0
1, 132240, Note_on_c, 1, 74, 54
1, 132240, Note_on_c, 4, 64, 0
1, 132240, Note_on_c, 4, 65, 54
1, 132480, Note_on_c, 1, 74, 0
1, 132480, Note_on_c, 1, 72, 55
1, 132480, Note_on_c, 5, 53, 0
1, 132480, Note_on_c, 5, 55, 55
1, 132720, Note_on_c, 1, 72, 0
1, 132720, Note_on_c, 1, 71, 56
1, 132960, Note_on_c, 1, 71, 0
1, 132960, Note_on_c, 1, 77, 57
1, 132960, Note_on_c, 5, 55, 0
1, 132960, Note_on_c, 5, 56, 57
1, 133200, Note_on_c, 1, 77, 0
1, 133200, Note_on_c, 1, 71, 58
1, 133440, Note_on_c, 1, 71, 0
1, 133440, Note_on_c, 1, 74, 59
1, 133440, Note_on_c, 4, 65, 0
1, 133440, Note_on_c, 4, 64, 59
1, 133440, Note_on_c, 5, 56, 0
1, 133440, Note_on_c, 5, 57, 59
1, 133680, Note_on_c, 1, 74, 0
1, 133680, Note_on_c, 1, 72, 60
1, 133867, Note_on_c, 4, 64, 0
1, 133867, Note_on_c, 5, 57, 0
1, 133872, Note_on_c, 1, 72, 0
1, 133920, Note_on_c, 1, 71, 62
1, 133920, Note_on_c, 4, 60, 62
1, 133920, Note_on_c, 5, 53, 62
1, 134040, Note_on_c, 1, 71, 0
1, 134040, Note_on_c, 1, 69, 61
1, 134160, Note_on_c, 1, 69, 0
1, 134160, Note_on_c, 1, 67, 60
1, 134280, Note_on_c, 1, 67, 0
1, 134280, Note_on_c, 1, 65, 59
1, 134280, Note_on_c, 4, 60, 0
1, 134280, Note_on_c, 4, 62, 59
1, 134377, Note_on_c, 5, 53, 0
1, 134385, Note_on_c, 1, 65, 0
1, 134385, Note_on_c, 4, 62, 0
1, 134400, Note_on_c, 1, 64, 58
1, 134400, Note_on_c, 4, 60, 58
1, 134400, Note_on_c, 5, 55, 58
1, 134880, Note_on_c, 1, 64, 0
1, 134880, Note_on_c, 1, 62, 53
1, 134880, Note_on_c, 4, 60, 0
1, 134880, Note_on_c, 4, 59, 53
1, 134960, Note_on_c, 1, 62, 0
1, 134960, Note_on_c, 1, 64, 52
1, 135040, Note_on_c, 1, 64, 0
1, 135040, Note_on_c, 1, 62, 52
1, 135120, Note_on_c, 1, 62, 0
1, 135120, Note_on_c, 1, 60, 51
1, 135240, Note_on_c, 1, 60, 0
1, 135240, Note_on_c, 1, 62, 50
1, 135360, Note_on_c, 1, 62, 0
1, 135360, Note_on_c, 1, 60, 60
1, 135360, Note_on_c, 4, 59, 0
1, 135360, Note_on_c, 5, 55, 0
1, 135360, Note_on_c, 5, 36, 60
1, 135480, Note_on_c, 5, 36, 0
1, 135480, Note_on_c, 5, 48, 60
1, 135600, Note_on_c, 5, 48, 0
1, 135600, Note_on_c, 5, 47, 60
1, 135720, Note_on_c, 5, 47, 0
1, 135720, Note_on_c, 5, 48, 60
1, 135787, Note_on_c, 1, 60, 0
1, 135840, Note_on_c, 5, 48, 0
1, 135840, Note_on_c, 5, 36, 60
1, 136080, Note_on_c, 1, 62, 60
1, 136080, Note_on_c, 2, 59, 60
1, 136200, Note_on_c, 1, 62, 0
1, 136200, Note_on_c, 2, 59, 0
1, 136260, Note_on_c, 5, 36, 0
1, 136320, Note_on_c, 1, 63, 61
1, 136320, Note_on_c, 2, 60, 61
1, 136440, Note_on_c, 1, 63, 0
1, 136440, Note_on_c, 2, 60, 0
1, 136560, Note_on_c, 1, 65, 61
1, 136560, Note_on_c, 2, 62, 61
1, 136680, Note_on_c, 1, 65, 0
1, 136680, Note_on_c, 2, 62, 0
1, 136800, Note_on_c, 1, 67, 61
1, 136800, Note_on_c, 2, 63, 61
1, 136800, Note_on_c, 5, 36, 61
1, 136920, Note_on_c, 5, 36, 0
1, 136920, Note_on_c, 5, 48, 61
1, 137040, Note_on_c, 5, 48, 0
1, 137040, Note_on_c, 5, 47, 62
1, 137160, Note_on_c, 5, 47, 0
1, 137160, Note_on_c, 5, 48, 62
1, 137220, Note_on_c, 2, 63, 0
1, 137227, Note_on_c, 1, 67, 0
1, 137280, Note_on_c, 5, 48, 0
1, 137280, Note_on_c, 5, 36, 62
1, 137520, Note_on_c, 1, 72, 62
1, 137520, Note_on_c, 2, 63, 62
1, 137640, Note_on_c, 1, 72, 0
1, 137640, Note_on_c, 2, 63, 0
1, 137707, Note_on_c, 5, 36, 0
1, 137760, Note_on_c, 1, 69, 63
1, 137760, Note_on_c, 2, 60, 63
1, 137880, Note_on_c, 1, 69, 0
1, 137880, Note_on_c, 2, 60, 0
1, 138000, Note_on_c, 1, 67, 63
1, 138000, Note_on_c, 2, 58, 63
1, 138120, Note_on_c, 1, 67, 0
1, 138120, Note_on_c, 2, 58, 0
1, 138240, Note_on_c, 1, 66, 63
1, 138240, Note_on_c, 2, 57, 63
1, 138240, Note_on_c, 5, 38, 63
1, 138360, Note_on_c, 5, 38, 0
1, 138360, Note_on_c, 5, 50, 63
1, 138480, Note_on_c, 5, 50, 0
1, 138480, Note_on_c, 5, 49, 63
1, 138600, Note_on_c, 5, 49, 0
1, 138600, Note_on_c, 5, 50, 64
1, 138660, Note_on_c, 1, 66, 0
1, 138660, Note_on_c, 2, 57, 0
1, 138720, Note_on_c, 5, 50, 0
1, 138720, Note_on_c, 5, 38, 64
1, 138960, Note_on_c, 1, 64, 64
1, 138960, Note_on_c, 2, 61, 64
1, 139080, Note_on_c, 1, 64, 0
1, 139080, Note_on_c, 2, 61, 0
1, 139147, Note_on_c, 5, 38, 0
1, 139200, Note_on_c, 1, 66, 64
1, 139200, Note_on_c, 2, 62, 64
1, 139320, Note_on_c, 1, 66, 0
1, 139320, Note_on_c, 2, 62, 0
1, 139440, Note_on_c, 1, 67, 65
1, 139440, Note_on_c, 2, 64, 65
1, 139560, Note_on_c, 1, 67, 0
1, 139560, Note_on_c, 2, 64, 0
1, 139680, Note_on_c, 1, 69, 65
1, 139680, Note_on_c, 2, 66, 65
1, 139680, Note_on_c, 5, 38, 65
1, 139800, Note_on_c, 5, 38, 0
1, 139800, Note_on_c, 5, 50, 65
1, 139920, Note_on_c, 5, 50, 0
1, 139920, Note_on_c, 5, 49, 65
1, 140040, Note_on_c, 5, 49, 0
1, 140040, Note_on_c, 5, 50, 65
1, 140100, Note_on_c, 1, 69, 0
1, 140100, Note_on_c, 2, 66, 0
1, 140160, Note_on_c, 5, 50, 0
1, 140160, Note_on_c, 5, 38, 66
1, 140400, Note_on_c, 1, 70, 66
1, 140400, Note_on_c, 2, 67, 66
1, 140520, Note_on_c, 1, 70, 0
1, 140520, Note_on_c, 2, 67, 0
1, 140587, Note_on_c, 5, 38, 0
1, 140640, Note_on_c, 1, 72, 66
1, 140640, Note_on_c, 2, 69, 66
1, 140760, Note_on_c, 1, 72, 0
1, 140760, Note_on_c, 2, 69, 0
1, 140880, Note_on_c, 1, 74, 66
1, 140880, Note_on_c, 2, 66, 66
1, 141000, Note_on_c, 1, 74, 0
1, 141000, Note_on_c, 2, 66, 0
1, 141120, Note_on_c, 1, 70, 67
1, 141120, Note_on_c, 2, 67, 67
1, 141120, Note_on_c, 5, 43, 67
1, 141240, Note_on_c, 5, 43, 0
1, 141240, Note_on_c, 5, 55, 67
1, 141360, Note_on_c, 5, 55, 0
1, 141360, Note_on_c, 5, 54, 67
1, 141480, Note_on_c, 5, 54, 0
1, 141480, Note_on_c, 5, 55, 67
1, 141547, Note_on_c, 1, 70, 0
1, 141547, Note_on_c, 2, 67, 0
1, 141600, Note_on_c, 5, 55, 0
1, 141600, Note_on_c, 5, 43, 67
1, 141840, Note_on_c, 1, 66, 68
1, 141840, Note_on_c, 2, 57, 68
1, 141960, Note_on_c, 1, 66, 0
1, 141960, Note_on_c, 2, 57, 0
1, 142027, Note_on_c, 5, 43, 0
1, 142080, Note_on_c, 1, 67, 68
1, 142080, Note_on_c, 2, 58, 68
1, 142200, Note_on_c, 1, 67, 0
1, 142200, Note_on_c, 2, 58, 0
1, 142320, Note_on_c, 1, 69, 68
1, 142320, Note_on_c, 2, 60, 68
1, 142440, Note_on_c, 1, 69, 0
1, 142440, Note_on_c, 2, 60, 0
1, 142560, Note_on_c, 1, 70, 69
1, 142560, Note_on_c, 2, 62, 69
1, 142560, Note_on_c, 5, 43, 69
1, 142680, Note_on_c, 5, 43, 0
1, 142680, Note_on_c, 5, 55, 69
1, 142800, Note_on_c, 5, 55, 0
1, 142800, Note_on_c, 5, 54, 69
1, 142920, Note_on_c, 5, 54, 0
1, 142920, Note_on_c, 5, 55, 69
1, 142980, Note_on_c, 1, 70, 0
1, 142987, Note_on_c, 2, 62, 0
1, 143040, Note_on_c, 5, 55, 0
1, 143040, Note_on_c, 5, 43, 69
1, 143280, Note_on_c, 1, 70, 70
1, 143280, Note_on_c, 2, 67, 70
1, 143400, Note_on_c, 1, 70, 0
1, 143400, Note_on_c, 2, 67, 0
1, 143460, Note_on_c, 5, 43, 0
1, 143520, Note_on_c, 1, 67, 70
1, 143520, Note_on_c, 2, 64, 70
1, 143640, Note_on_c, 1, 67, 0
1, 143640, Note_on_c, 2, 64, 0
1, 143760, Note_on_c, 1, 65, 70
1, 143760, Note_on_c, 2, 62, 70
1, 143880, Note_on_c, 1, 65, 0
1, 143880, Note_on_c, 2, 62, 0
1, 144000, Note_on_c, 1, 64, 70
1, 144000, Note_on_c, 2, 61, 70
1, 144000, Note_on_c, 5, 45, 70
1, 144120, Note_on_c, 5, 45, 0
1, 144120, Note_on_c, 5, 57, 71
1, 144240, Note_on_c, 5, 57, 0
1, 144240, Note_on_c, 5, 56, 71
1, 144360, Note_on_c, 5, 56, 0
1, 144360, Note_on_c, 5, 57, 71
1, 144427, Note_on_c, 1, 64, 0
1, 144427, Note_on_c, 2, 61, 0
1, 144480, Note_on_c, 5, 57, 0
1, 144480, Note_on_c, 5, 45, 71
1, 144720, Note_on_c, 1, 62, 71
1, 144720, Note_on_c, 2, 59, 71
1, 144840, Note_on_c, 1, 62, 0
1, 144840, Note_on_c, 2, 59, 0
1, 144907, Note_on_c, 5, 45, 0
1, 144960, Note_on_c, 1, 64, 72
1, 144960, Note_on_c, 2, 61, 72
1, 145080, Note_on_c, 1, 64, 0
1, 145080, Note_on_c, 2, 61, 0
1, 145200, Note_on_c, 1, 65, 72
1, 145200, Note_on_c, 2, 62, 72
1, 145320, Note_on_c, 1, 65, 0
1, 145320, Note_on_c, 2, 62, 0
1, 145440, Note_on_c, 1, 67, 72
1, 145440, Note_on_c, 2, 64, 72
1, 145440, Note_on_c, 5, 45, 72
1, 145560, Note_on_c, 5, 45, 0
1, 145560, Note_on_c, 5, 57, 72
1, 145680, Note_on_c, 5, 57, 0
1, 145680, Note_on_c, 5, 56, 73
1, 145800, Note_on_c, 5, 56, 0
1, 145800, Note_on_c, 5, 57, 73
1, 145867, Note_on_c, 1, 67, 0
1, 145867, Note_on_c, 2, 64, 0
1, 145920, Note_on_c, 5, 57, 0
1, 145920, Note_on_c, 5, 45, 73
1, 146160, Note_on_c, 1, 70, 73
1, 146160, Note_on_c, 2, 67, 73
1, 146280, Note_on_c, 1, 70, 0
1, 146280, Note_on_c, 2, 67, 0
1, 146347, Note_on_c, 5, 45, 0
1, 146400, Note_on_c, 1, 69, 73
1, 146400, Note_on_c, 2, 65, 73
1, 146520, Note_on_c, 1, 69, 0
1, 146520, Note_on_c, 2, 65, 0
1, 146640, Note_on_c, 1, 67, 74
1, 146640, Note_on_c, 2, 64, 74
1, 146760, Note_on_c, 1, 67, 0
1, 146760, Note_on_c, 2, 64, 0
1, 146880, Note_on_c, 1, 65, 74
1, 146880, Note_on_c, 2, 62, 74
1, 146880, Note_on_c, 5, 46, 74
1, 147000, Note_on_c, 5, 46, 0
1, 147000, Note_on_c, 5, 58, 74
1, 147120, Note_on_c, 5, 58, 0
1, 147120, Note_on_c, 5, 57, 74
1, 147240, Note_on_c, 5, 57, 0
1, 147240, Note_on_c, 5, 58, 74
1, 147292, Note_on_c, 2, 62, 0
1, 147307, Note_on_c, 1, 65, 0
1, 147360, Note_on_c, 5, 58, 0
1, 147360, Note_on_c, 5, 46, 75
1, 147600, Note_on_c, 1, 74, 75
1, 147600, Note_on_c, 2, 65, 75
1, 147720, Note_on_c, 1, 74, 0
1, 147720, Note_on_c, 2, 65, 0
1, 147780, Note_on_c, 5, 46, 0
1, 147840, Note_on_c, 1, 70, 75
1, 147840, Note_on_c, 2, 62, 75
1, 147960, Note_on_c, 1, 70, 0
1, 147960, Note_on_c, 2, 62, 0
1, 148080, Note_on_c, 1, 69, 76
1, 148080, Note_on_c, 2, 62, 76
1, 148200, Note_on_c, 1, 69, 0
1, 148200, Note_on_c, 2, 62, 0
1, 148320, Note_on_c, 1, 68, 76
1, 148320, Note_on_c, 2, 62, 76
1, 148320, Note_on_c, 5, 46, 76
1, 148440, Note_on_c, 5, 46, 0
1, 148440, Note_on_c, 5, 58, 76
1, 148560, Note_on_c, 5, 58, 0
1, 148560, Note_on_c, 5, 57, 76
1, 148680, Note_on_c, 5, 57, 0
1, 148680, Note_on_c, 5, 58, 76
1, 148740, Note_on_c, 2, 62, 0
1, 148747, Note_on_c, 1, 68, 0
1, 148800, Note_on_c, 5, 58, 0
1, 148800, Note_on_c, 5, 46, 76
1, 149040, Note_on_c, 1, 68, 77
1, 149040, Note_on_c, 2, 65, 77
1, 149160, Note_on_c, 1, 68, 0
1, 149160, Note_on_c, 2, 65, 0
1, 149227, Note_on_c, 5, 46, 0
1, 149280, Note_on_c, 1, 68, 77
1, 149280, Note_on_c, 2, 64, 77
1, 149400, Note_on_c, 1, 68, 0
1, 149400, Note_on_c, 2, 64, 0
1, 149520, Note_on_c, 1, 68, 77
1, 149520, Note_on_c, 2, 62, 77
1, 149640, Note_on_c, 1, 68, 0
1, 149640, Note_on_c, 2, 62, 0
1, 149760, Note_on_c, 1, 69, 78
1, 149760, Note_on_c, 2, 61, 78
1, 149760, Note_on_c, 5, 45, 78
1, 149880, Note_on_c, 5, 45, 0
1, 149880, Note_on_c, 5, 57, 78
1, 150000, Note_on_c, 5, 57, 0
1, 150000, Note_on_c, 5, 56, 78
1, 150120, Note_on_c, 5, 56, 0
1, 150120, Note_on_c, 5, 57, 78
1, 150187, Note_on_c, 1, 69, 0
1, 150187, Note_on_c, 2, 61, 0
1, 150240, Note_on_c, 5, 57, 0
1, 150240, Note_on_c, 5, 45, 78
1, 150480, Note_on_c, 1, 69, 79
1, 150480, Note_on_c, 2, 61, 79
1, 150480, Note_on_c, 4, 57, 79
1, 150600, Note_on_c, 1, 69, 0
1, 150600, Note_on_c, 2, 61, 0
1, 150635, Note_on_c, 4, 57, 0
1, 150720, Note_on_c, 1, 71, 79
1, 150720, Note_on_c, 2, 62, 79
1, 150720, Note_on_c, 4, 56, 79
1, 150840, Note_on_c, 1, 71, 0
1, 150840, Note_on_c, 2, 62, 0
1, 150875, Note_on_c, 4, 56, 0
1, 150960, Note_on_c, 1, 73, 79
1, 150960, Note_on_c, 2, 64, 79
1, 150960, Note_on_c, 4, 55, 79
1, 151080, Note_on_c, 1, 73, 0
1, 151080, Note_on_c, 2, 64, 0
1, 151115, Note_on_c, 4, 55, 0
1, 151147, Note_on_c, 5, 45, 0
1, 151200, Note_on_c, 1, 74, 79
1, 151200, Note_on_c, 2, 65, 79
1, 151200, Note_on_c, 5, 45, 79
1, 151320, Note_on_c, 5, 45, 0
1, 151320, Note_on_c, 5, 53, 80
1, 151440, Note_on_c, 5, 53, 0
1, 151440, Note_on_c, 5, 52, 80
1, 151560, Note_on_c, 5, 52, 0
1, 151560, Note_on_c, 5, 53, 80
1, 151612, Note_on_c, 1, 74, 0
1, 151612, Note_on_c, 2, 65, 0
1, 151680, Note_on_c, 5, 53, 0
1, 151680, Note_on_c, 5, 45, 80
1, 151920, Note_on_c, 1, 69, 80
1, 151920, Note_on_c, 2, 65, 80
1, 151920, Note_on_c, 4, 53, 80
1, 152040, Note_on_c, 1, 69, 0
1, 152040, Note_on_c, 2, 65, 0
1, 152075, Note_on_c, 4, 53, 0
1, 152160, Note_on_c, 1, 67, 81
1, 152160, Note_on_c, 2, 64, 81
1, 152160, Note_on_c, 4, 55, 81
1, 152280, Note_on_c, 1, 67, 0
1, 152280, Note_on_c, 2, 64, 0
1, 152315, Note_on_c, 4, 55, 0
1, 152400, Note_on_c, 1, 65, 81
1, 152400, Note_on_c, 2, 62, 81
1, 152400, Note_on_c, 4, 56, 81
1, 152520, Note_on_c, 1, 65, 0
1, 152520, Note_on_c, 2, 62, 0
1, 152555, Note_on_c, 4, 56, 0
1, 152587, Note_on_c, 5, 45, 0
1, 152640, Note_on_c, 1, 64, 81
1, 152640, Note_on_c, 2, 61, 81
1, 152640, Note_on_c, 5, 45, 81
1, 152760, Note_on_c, 5, 45, 0
1, 152760, Note_on_c, 5, 57, 81
1, 152880, Note_on_c, 5, 57, 0
1, 152880, Note_on_c, 5, 56, 82
1, 153000, Note_on_c, 5, 56, 0
1, 153000, Note_on_c, 5, 57, 82
1, 153060, Note_on_c, 1, 64, 0
1, 153060, Note_on_c, 2, 61, 0
1, 153120, Note_on_c, 5, 57, 0
1, 153120, Note_on_c, 5, 45, 82
1, 153360, Note_on_c, 1, 69, 82
1, 153360, Note_on_c, 2, 61, 82
1, 153360, Note_on_c, 4, 57, 82
1, 153480, Note_on_c, 1, 69, 0
1, 153480, Note_on_c, 2, 61, 0
1, 153515, Note_on_c, 4, 57, 0
1, 153600, Note_on_c, 1, 71, 82
1, 153600, Note_on_c, 2, 62, 82
1, 153600, Note_on_c, 4, 56, 82
1, 153720, Note_on_c, 1, 71, 0
1, 153720, Note_on_c, 2, 62, 0
1, 153755, Note_on_c, 4, 56, 0
1, 153840, Note_on_c, 1, 73, 83
1, 153840, Note_on_c, 2, 64, 83
1, 153840, Note_on_c, 4, 55, 83
1, 153960, Note_on_c, 1, 73, 0
1, 153960, Note_on_c, 2, 64, 0
1, 153995, Note_on_c, 4, 55, 0
1, 154020, Note_on_c, 5, 45, 0
1, 154080, Note_on_c, 1, 74, 83
1, 154080, Note_on_c, 2, 62, 83
1, 154080, Note_on_c, 5, 45, 83
1, 154200, Note_on_c, 5, 45, 0
1, 154200, Note_on_c, 5, 53, 83
1, 154320, Note_on_c, 5, 53, 0
1, 154320, Note_on_c, 5, 52, 83
1, 154440, Note_on_c, 5, 52, 0
1, 154440, Note_on_c, 5, 53, 84
1, 154500, Note_on_c, 1, 74, 0
1, 154507, Note_on_c, 2, 62, 0
1, 154560, Note_on_c, 5, 53, 0
1, 154560, Note_on_c, 5, 45, 84
1, 154800, Note_on_c, 1, 69, 84
1, 154800, Note_on_c, 2, 65, 84
1, 154800, Note_on_c, 4, 53, 84
1, 154920, Note_on_c, 1, 69, 0
1, 154920, Note_on_c, 2, 65, 0
1, 154955, Note_on_c, 4, 53, 0
1, 155040, Note_on_c, 1, 67, 84
1, 155040, Note_on_c, 2, 64, 84
1, 155040, Note_on_c, 4, 55, 84
1, 155160, Note_on_c, 1, 67, 0
1, 155160, Note_on_c, 2, 64, 0
1, 155195, Note_on_c, 4, 55, 0
1, 155280, Note_on_c, 1, 65, 85
1, 155280, Note_on_c, 2, 62, 85
1, 155280, Note_on_c, 4, 56, 85
1, 155400, Note_on_c, 1, 65, 0
1, 155400, Note_on_c, 2, 62, 0
1, 155435, Note_on_c, 4, 56, 0
1, 155467, Note_on_c, 5, 45, 0
1, 155520, Note_on_c, 1, 64, 85
1, 155520, Note_on_c, 2, 61, 85
1, 155520, Note_on_c, 5, 45, 85
1, 155640, Note_on_c, 5, 45, 0
1, 155640, Note_on_c, 5, 57, 85
1, 155760, Note_on_c, 5, 57, 0
1, 155760, Note_on_c, 5, 56, 85
1, 155880, Note_on_c, 5, 56, 0
1, 155880, Note_on_c, 5, 57, 85
1, 155940, Note_on_c, 1, 64, 0
1, 155940, Note_on_c, 2, 61, 0
1, 156000, Note_on_c, 5, 57, 0
1, 156000, Note_on_c, 5, 45, 86
1, 156155, Note_on_c, 5, 45, 0
1, 156240, Note_on_c, 1, 64, 86
1, 156240, Note_on_c, 2, 61, 86
1, 156240, Note_on_c, 5, 57, 86
1, 156360, Note_on_c, 1, 64, 0
1, 156360, Note_on_c, 2, 61, 0
1, 156395, Note_on_c, 5, 57, 0
1, 156480, Note_on_c, 1, 69, 86
1, 156480, Note_on_c, 2, 64, 86
1, 156480, Note_on_c, 5, 45, 86
1, 156600, Note_on_c, 1, 69, 0
1, 156600, Note_on_c, 2, 64, 0
1, 156635, Note_on_c, 5, 45, 0
1, 156720, Note_on_c, 1, 73, 86
1, 156720, Note_on_c, 2, 69, 86
1, 156720, Note_on_c, 5, 57, 86
1, 156840, Note_on_c, 1, 73, 0
1, 156840, Note_on_c, 2, 69, 0
1, 156875, Note_on_c, 5, 57, 0
1, 156960, Note_on_c, 1, 72, 87
1, 156960, Note_on_c, 2, 69, 87
1, 156960, Note_on_c, 2, 64, 87
1, 156960, Note_on_c, 5, 45, 87
1, 157080, Note_on_c, 5, 45, 0
1, 157080, Note_on_c, 5, 57, 87
1, 157200, Note_on_c, 5, 57, 0
1, 157200, Note_on_c, 5, 56, 87
1, 157320, Note_on_c, 5, 56, 0
1, 157320, Note_on_c, 5, 57, 87
1, 157380, Note_on_c, 1, 72, 0
1, 157387, Note_on_c, 2, 64, 0
1, 157387, Note_on_c, 2, 69, 0
1, 157440, Note_on_c, 5, 57, 0
1, 157440, Note_on_c, 5, 45, 87
1, 157595, Note_on_c, 5, 45, 0
1, 157680, Note_on_c, 1, 64, 88
1, 157680, Note_on_c, 2, 60, 88
1, 157680, Note_on_c, 5, 57, 88
1, 157800, Note_on_c, 1, 64, 0
1, 157800, Note_on_c, 2, 60, 0
1, 157835, Note_on_c, 5, 57, 0
1, 157920, Note_on_c, 1, 69, 88
1, 157920, Note_on_c, 2, 64, 88
1, 157920, Note_on_c, 5, 45, 88
1, 158040, Note_on_c, 1, 69, 0
1, 158040, Note_on_c, 2, 64, 0
1, 158075, Note_on_c, 5, 45, 0
1, 158160, Note_on_c, 1, 72, 88
1, 158160, Note_on_c, 2, 64, 88
1, 158160, Note_on_c, 2, 69, 88
1, 158160, Note_on_c, 5, 57, 88
1, 158280, Note_on_c, 1, 72, 0
1, 158280, Note_on_c, 2, 69, 0
1, 158280, Note_on_c, 2, 64, 0
1, 158315, Note_on_c, 5, 57, 0
1, 158400, Note_on_c, 1, 73, 89
1, 158400, Note_on_c, 2, 70, 89
1, 158400, Note_on_c, 2, 65, 89
1, 158400, Note_on_c, 5, 43, 89
1, 158520, Note_on_c, 5, 43, 0
1, 158520, Note_on_c, 5, 55, 89
1, 158640, Note_on_c, 5, 55, 0
1, 158640, Note_on_c, 5, 54, 89
1, 158760, Note_on_c, 5, 54, 0
1, 158760, Note_on_c, 5, 55, 89
1, 158812, Note_on_c, 2, 65, 0
1, 158820, Note_on_c, 1, 73, 0
1, 158827, Note_on_c, 2, 70, 0
1, 158880, Note_on_c, 5, 55, 0
1, 158880, Note_on_c, 5, 43, 89
1, 159035, Note_on_c, 5, 43, 0
1, 159120, Note_on_c, 1, 64, 89
1, 159120, Note_on_c, 2, 61, 89
1, 159120, Note_on_c, 5, 55, 89
1, 159240, Note_on_c, 1, 64, 0
1, 159240, Note_on_c, 2, 61, 0
1, 159275, Note_on_c, 5, 55, 0
1, 159360, Note_on_c, 1, 70, 90
1, 159360, Note_on_c, 2, 64, 90
1, 159360, Note_on_c, 5, 43, 90
1, 159480, Note_on_c, 1, 70, 0
1, 159480, Note_on_c, 2, 64, 0
1, 159515, Note_on_c, 5, 43, 0
1, 159600, Note_on_c, 1, 73, 90
1, 159600, Note_on_c, 2, 70, 90
1, 159600, Note_on_c, 5, 55, 90
1, 159720, Note_on_c, 1, 73, 0
1, 159720, Note_on_c, 2, 70, 0
1, 159755, Note_on_c, 5, 55, 0
1, 159840, Note_on_c, 1, 73, 90
1, 159840, Note_on_c, 2, 70, 90
1, 159840, Note_on_c, 2, 65, 90
1, 159840, Note_on_c, 5, 41, 90
1, 159960, Note_on_c, 5, 41, 0
1, 159960, Note_on_c, 5, 53, 91
1, 160080, Note_on_c, 5, 53, 0
1, 160080, Note_on_c, 5, 52, 91
1, 160200, Note_on_c, 5, 52, 0
1, 160200, Note_on_c, 5, 53, 91
1, 160260, Note_on_c, 1, 73, 0
1, 160267, Note_on_c, 2, 65, 0
1, 160267, Note_on_c, 2, 70, 0
1, 160320, Note_on_c, 5, 53, 0
1, 160320, Note_on_c, 5, 41, 91
1, 160475, Note_on_c, 5, 41, 0
1, 160560, Note_on_c, 1, 65, 91
1, 160560, Note_on_c, 2, 61, 91
1, 160560, Note_on_c, 5, 53, 91
1, 160680, Note_on_c, 1, 65, 0
1, 160680, Note_on_c, 2, 61, 0
1, 160715, Note_on_c, 5, 53, 0
1, 160800, Note_on_c, 1, 70, 92
1, 160800, Note_on_c, 2, 65, 92
1, 160800, Note_on_c, 5, 41, 92
1, 160920, Note_on_c, 1, 70, 0
1, 160920, Note_on_c, 2, 65, 0
1, 160955, Note_on_c, 5, 41, 0
1, 161040, Note_on_c, 1, 73, 92
1, 161040, Note_on_c, 2, 70, 92
1, 161040, Note_on_c, 5, 53, 92
1, 161160, Note_on_c, 1, 73, 0
1, 161160, Note_on_c, 2, 70, 0
1, 161195, Note_on_c, 5, 53, 0
1, 161280, Note_on_c, 1, 72, 92
1, 161280, Note_on_c, 4, 55, 92
1, 161280, Note_on_c, 4, 58, 92
1, 161280, Note_on_c, 5, 52, 92
1, 161400, Note_on_c, 1, 72, 0
1, 161400, Note_on_c, 1, 84, 92
1, 161520, Note_on_c, 1, 84, 0
1, 161520, Note_on_c, 1, 83, 92
1, 161640, Note_on_c, 1, 83, 0
1, 161640, Note_on_c, 1, 84, 93
1, 161700, Note_on_c, 5, 52, 0
1, 161707, Note_on_c, 4, 55, 0
1, 161715, Note_on_c, 4, 58, 0
1, 161760, Note_on_c, 1, 84, 0
1, 161760, Note_on_c, 1, 72, 93
1, 161915, Note_on_c, 1, 72, 0
1, 162000, Note_on_c, 1, 73, 93
1, 162000, Note_on_c, 4, 58, 93
1, 162000, Note_on_c, 4, 55, 93
1, 162000, Note_on_c, 5, 53, 93
1, 162146, Note_on_c, 4, 55, 0
1, 162146, Note_on_c, 4, 58, 0
1, 162146, Note_on_c, 5, 53, 0
1, 162155, Note_on_c, 1, 73, 0
1, 162240, Note_on_c, 1, 72, 93
1, 162240, Note_on_c, 4, 58, 93
1, 162240, Note_on_c, 4, 55, 93
1, 162240, Note_on_c, 5, 52, 93
1, 162386, Note_on_c, 4, 55, 0
1, 162386, Note_on_c, 4, 58, 0
1, 162386, Note_on_c, 5, 52, 0
1, 162395, Note_on_c, 1, 72, 0
1, 162480, Note_on_c, 1, 73, 94
1, 162480, Note_on_c, 4, 58, 94
1, 162480, Note_on_c, 4, 55, 94
1, 162480, Note_on_c, 5, 53, 94
1, 162626, Note_on_c, 4, 55, 0
1, 162626, Note_on_c, 4, 58, 0
1, 162626, Note_on_c, 5, 53, 0
1, 162635, Note_on_c, 1, 73, 0
1, 162720, Note_on_c, 1, 72, 94
1, 162720, Note_on_c, 4, 55, 94
1, 162720, Note_on_c, 4, 58, 94
1, 162720, Note_on_c, 5, 52, 94
1, 162840, Note_on_c, 1, 72, 0
1, 162840, Note_on_c, 1, 84, 94
1, 162960, Note_on_c, 1, 84, 0
1, 162960, Note_on_c, 1, 83, 94
1, 163080, Note_on_c, 1, 83, 0
1, 163080, Note_on_c, 1, 84, 94
1, 163140, Note_on_c, 4, 55, 0
1, 163140, Note_on_c, 5, 52, 0
1, 163147, Note_on_c, 4, 58, 0
1, 163200, Note_on_c, 1, 84, 0
1, 163200, Note_on_c, 1, 72, 95
1, 163355, Note_on_c, 1, 72, 0
1, 163440, Note_on_c, 1, 73, 95
1, 163440, Note_on_c, 4, 70, 95
1, 163440, Note_on_c, 4, 67, 95
1, 163440, Note_on_c, 5, 65, 95
1, 163586, Note_on_c, 4, 67, 0
1, 163586, Note_on_c, 4, 70, 0
1, 163586, Note_on_c, 5, 65, 0
1, 163595, Note_on_c, 1, 73, 0
1, 163680, Note_on_c, 1, 72, 95
1, 163680, Note_on_c, 4, 70, 95
1, 163680, Note_on_c, 4, 67, 95
1, 163680, Note_on_c, 5, 64, 95
1, 163826, Note_on_c, 4, 67, 0
1, 163826, Note_on_c, 4, 70, 0
1, 163826, Note_on_c, 5, 64, 0
1, 163835, Note_on_c, 1, 72, 0
1, 163920, Note_on_c, 1, 73, 95
1, 163920, Note_on_c, 4, 70, 95
1, 163920, Note_on_c, 4, 67, 95
1, 163920, Note_on_c, 5, 65, 95
1, 164066, Note_on_c, 4, 67, 0
1, 164066, Note_on_c, 4, 70, 0
1, 164066, Note_on_c, 5, 65, 0
1, 164075, Note_on_c, 1, 73, 0
1, 164160, Note_on_c, 1, 72, 97
1, 164160, Note_on_c, 4, 70, 97
1, 164160, Note_on_c, 4, 67, 97
1, 164160, Note_on_c, 5, 64, 97
1, 164280, Note_on_c, 1, 72, 0
1, 164280, Note_on_c, 1, 84, 96
1, 164400, Note_on_c, 1, 84, 0
1, 164400, Note_on_c, 1, 83, 96
1, 164520, Note_on_c, 1, 83, 0
1, 164520, Note_on_c, 1, 84, 95
1, 164640, Note_on_c, 1, 84, 0
1, 164640, Note_on_c, 1, 72, 94
1, 164760, Note_on_c, 1, 72, 0
1, 164760, Note_on_c, 1, 76, 94
1, 164880, Note_on_c, 1, 76, 0
1, 164880, Note_on_c, 1, 75, 93
1, 165000, Note_on_c, 1, 75, 0
1, 165000, Note_on_c, 1, 76, 92
1, 165120, Note_on_c, 1, 76, 0
1, 165120, Note_on_c, 1, 72, 92
1, 165240, Note_on_c, 1, 72, 0
1, 165240, Note_on_c, 1, 79, 91
1, 165360, Note_on_c, 1, 79, 0
1, 165360, Note_on_c, 1, 78, 90
1, 165480, Note_on_c, 1, 78, 0
1, 165480, Note_on_c, 1, 79, 90
1, 165600, Note_on_c, 1, 79, 0
1, 165600, Note_on_c, 1, 72, 89
1, 165600, Note_on_c, 5, 64, 0
1, 165600, Note_on_c, 5, 60, 89
1, 165720, Note_on_c, 1, 72, 0
1, 165720, Note_on_c, 1, 82, 88
1, 165840, Note_on_c, 1, 82, 0
1, 165840, Note_on_c, 1, 81, 88
1, 165960, Note_on_c, 1, 81, 0
1, 165960, Note_on_c, 1, 82, 87
1, 166080, Note_on_c, 1, 82, 0
1, 166080, Note_on_c, 1, 81, 86
1, 166200, Note_on_c, 1, 81, 0
1, 166200, Note_on_c, 1, 82, 86
1, 166320, Note_on_c, 1, 82, 0
1, 166320, Note_on_c, 1, 81, 85
1, 166440, Note_on_c, 1, 81, 0
1, 166440, Note_on_c, 1, 82, 84
1, 166560, Note_on_c, 1, 82, 0
1, 166560, Note_on_c, 1, 81, 84
1, 166680, Note_on_c, 1, 81, 0
1, 166680, Note_on_c, 1, 82, 83
1, 166800, Note_on_c, 1, 82, 0
1, 166800, Note_on_c, 1, 86, 82
1, 166920, Note_on_c, 1, 86, 0
1, 166920, Note_on_c, 1, 82, 82
1, 167040, Note_on_c, 1, 82, 0
1, 167040, Note_on_c, 1, 78, 81
1, 167040, Note_on_c, 4, 67, 0
1, 167040, Note_on_c, 4, 70, 0
1, 167040, Note_on_c, 5, 60, 0
1, 167160, Note_on_c, 1, 78, 0
1, 167160, Note_on_c, 1, 79, 80
1, 167280, Note_on_c, 1, 79, 0
1, 167280, Note_on_c, 1, 82, 79
1, 167400, Note_on_c, 1, 82, 0
1, 167400, Note_on_c, 1, 79, 79
1, 167520, Note_on_c, 1, 79, 0
1, 167520, Note_on_c, 1, 75, 78
1, 167640, Note_on_c, 1, 75, 0
1, 167640, Note_on_c, 1, 76, 77
1, 167760, Note_on_c, 1, 76, 0
1, 167760, Note_on_c, 1, 79, 77
1, 167880, Note_on_c, 1, 79, 0
1, 167880, Note_on_c, 1, 76, 76
1, 168000, Note_on_c, 1, 76, 0
1, 168000, Note_on_c, 1, 69, 75
1, 168120, Note_on_c, 1, 69, 0
1, 168120, Note_on_c, 1, 70, 75
1, 168240, Note_on_c, 1, 70, 0
1, 168240, Note_on_c, 1, 76, 74
1, 168360, Note_on_c, 1, 76, 0
1, 168360, Note_on_c, 1, 70, 73
1, 168480, Note_on_c, 1, 70, 0
1, 168480, Note_on_c, 1, 66, 73
1, 168600, Note_on_c, 1, 66, 0
1, 168600, Note_on_c, 1, 67, 72
1, 168720, Note_on_c, 1, 67, 0
1, 168720, Note_on_c, 1, 70, 71
1, 168840, Note_on_c, 1, 70, 0
1, 168840, Note_on_c, 1, 67, 71
1, 168960, Note_on_c, 1, 67, 0
1, 168960, Note_on_c, 1, 64, 70
1, 169080, Note_on_c, 1, 64, 0
1, 169080, Note_on_c, 1, 67, 69
1, 169200, Note_on_c, 1, 67, 0
1, 169200, Note_on_c, 1, 65, 69
1, 169320, Note_on_c, 1, 65, 0
1, 169320, Note_on_c, 1, 69, 68
1, 169440, Note_on_c, 1, 69, 0
1, 169440, Note_on_c, 1, 67, 67
1, 169560, Note_on_c, 1, 67, 0
1, 169560, Note_on_c, 1, 70, 67
1, 169680, Note_on_c, 1, 70, 0
1, 169680, Note_on_c, 1, 69, 66
1, 169800, Note_on_c, 1, 69, 0
1, 169800, Note_on_c, 1, 72, 65
1, 169920, Note_on_c, 1, 72, 0
1, 169920, Note_on_c, 1, 70, 65
1, 170040, Note_on_c, 1, 70, 0
1, 170040, Note_on_c, 1, 69, 64
1, 170160, Note_on_c, 1, 69, 0
1, 170160, Note_on_c, 1, 67, 63
1, 170280, Note_on_c, 1, 67, 0
1, 170280, Note_on_c, 1, 65, 63
1, 170400, Note_on_c, 1, 65, 0
1, 170400, Note_on_c, 1, 64, 62
1, 170520, Note_on_c, 1, 64, 0
1, 170520, Note_on_c, 1, 65, 64
1, 170640, Note_on_c, 1, 65, 0
1, 170640, Note_on_c, 1, 67, 66
1, 170760, Note_on_c, 1, 67, 0
1, 170760, Note_on_c, 1, 69, 68
1, 170880, Note_on_c, 1, 69, 0
1, 170880, Note_on_c, 1, 70, 69
1, 171000, Note_on_c, 1, 70, 0
1, 171000, Note_on_c, 1, 72, 71
1, 171120, Note_on_c, 1, 72, 0
1, 171120, Note_on_c, 1, 74, 73
1, 171240, Note_on_c, 1, 74, 0
1, 171240, Note_on_c, 1, 76, 74
1, 171336, Note_on_c, 1, 76, 0
1, 171360, Note_on_c, 2, 69, 79
1, 171360, Note_on_c, 4, 48, 79
1, 171360, Note_on_c, 4, 45, 79
1, 171360, Note_on_c, 4, 53, 79
1, 171360, Note_on_c, 5, 41, 79
1, 171400, Note_on_c, 2, 69, 0
1, 171400, Note_on_c, 2, 72, 79
1, 171440, Note_on_c, 1, 77, 79
1, 171440, Note_on_c, 2, 72, 0
1, 171670, Note_on_c, 4, 53, 0
1, 171670, Note_on_c, 4, 45, 0
1, 171670, Note_on_c, 4, 48, 0
1, 171670, Note_on_c, 5, 41, 0
1, 171840, Note_on_c, 4, 57, 78
1, 171840, Note_on_c, 5, 53, 78
1, 172035, Note_on_c, 1, 77, 0
1, 172080, Note_on_c, 1, 79, 78
1, 172150, Note_on_c, 4, 57, 0
1, 172150, Note_on_c, 5, 53, 0
1, 172200, Note_on_c, 1, 79, 0
1, 172200, Note_on_c, 1, 77, 77
1, 172320, Note_on_c, 1, 77, 0
1, 172320, Note_on_c, 1, 76, 77
1, 172440, Note_on_c, 1, 76, 0
1, 172440, Note_on_c, 1, 77, 77
1, 172560, Note_on_c, 1, 77, 0
1, 172560, Note_on_c, 1, 81, 76
1, 172680, Note_on_c, 1, 81, 0
1, 172680, Note_on_c, 1, 77, 76
1, 172800, Note_on_c, 1, 77, 0
1, 172800, Note_on_c, 1, 72, 76
1, 172800, Note_on_c, 4, 45, 76
1, 172800, Note_on_c, 4, 48, 76
1, 172800, Note_on_c, 4, 53, 76
1, 172800, Note_on_c, 5, 41, 76
1, 173110, Note_on_c, 4, 53, 0
1, 173110, Note_on_c, 4, 48, 0
1, 173110, Note_on_c, 4, 45, 0
1, 173110, Note_on_c, 5, 41, 0
1, 173280, Note_on_c, 4, 57, 74
1, 173280, Note_on_c, 5, 53, 74
1, 173467, Note_on_c, 1, 72, 0
1, 173520, Note_on_c, 1, 74, 74
1, 173590, Note_on_c, 4, 57, 0
1, 173590, Note_on_c, 5, 53, 0
1, 173640, Note_on_c, 1, 74, 0
1, 173640, Note_on_c, 1, 72, 73
1, 173760, Note_on_c, 1, 72, 0
1, 173760, Note_on_c, 1, 71, 73
1, 173880, Note_on_c, 1, 71, 0
1, 173880, Note_on_c, 1, 72, 73
1, 174000, Note_on_c, 1, 72, 0
1, 174000, Note_on_c, 1, 77, 72
1, 174120, Note_on_c, 1, 77, 0
1, 174120, Note_on_c, 1, 72, 72
1, 174240, Note_on_c, 1, 72, 0
1, 174240, Note_on_c, 1, 69, 72
1, 174240, Note_on_c, 4, 48, 72
1, 174240, Note_on_c, 4, 45, 72
1, 174240, Note_on_c, 4, 53, 72
1, 174240, Note_on_c, 5, 41, 72
1, 174550, Note_on_c, 4, 53, 0
1, 174550, Note_on_c, 4, 45, 0
1, 174550, Note_on_c, 4, 48, 0
1, 174550, Note_on_c, 5, 41, 0
1, 174720, Note_on_c, 4, 57, 70
1, 174720, Note_on_c, 5, 53, 70
1, 174907, Note_on_c, 1, 69, 0
1, 174960, Note_on_c, 1, 70, 70
1, 175030, Note_on_c, 4, 57, 0
1, 175030, Note_on_c, 5, 53, 0
1, 175080, Note_on_c, 1, 70, 0
1, 175080, Note_on_c, 1, 69, 69
1, 175200, Note_on_c, 1, 69, 0
1, 175200, Note_on_c, 1, 68, 69
1, 175320, Note_on_c, 1, 68, 0
1, 175320, Note_on_c, 1, 69, 69
1, 175440, Note_on_c, 1, 69, 0
1, 175440, Note_on_c, 1, 72, 68
1, 175560, Note_on_c, 1, 72, 0
1, 175560, Note_on_c, 1, 69, 68
1, 175680, Note_on_c, 1, 69, 0
1, 175680, Note_on_c, 1, 65, 68
1, 176107, Note_on_c, 1, 65, 0
1, 176160, Note_on_c, 1, 65, 43
1, 176160, Note_on_c, 4, 60, 43
1, 176160, Note_on_c, 5, 57, 43
1, 176640, Note_on_c, 1, 65, 0
1, 176640, Note_on_c, 1, 65, 47
1, 176640, Note_on_c, 4, 60, 0
1, 176640, Note_on_c, 4, 62, 47
1, 176640, Note_on_c, 5, 57, 0
1, 176640, Note_on_c, 5, 58, 47
1, 177120, Note_on_c, 1, 65, 0
1, 177120, Note_on_c, 1, 65, 51
1, 177120, Note_on_c, 4, 62, 0
1, 177120, Note_on_c, 4, 63, 51
1, 177120, Note_on_c, 5, 58, 0
1, 177120, Note_on_c, 5, 60, 51
1, 177600, Note_on_c, 4, 63, 0
1, 177600, Note_on_c, 4, 62, 49
1, 177600, Note_on_c, 5, 60, 0
1, 177600, Note_on_c, 5, 58, 49
1, 178080, Note_on_c, 4, 62, 0
1, 178080, Note_on_c, 4, 61, 47
1, 178080, Note_on_c, 5, 58, 0
1, 178080, Note_on_c, 5, 57, 47
1, 178560, Note_on_c, 4, 61, 0
1, 178560, Note_on_c, 4, 62, 44
1, 178560, Note_on_c, 5, 57, 0
1, 178560, Note_on_c, 5, 58, 44
1, 178972, Note_on_c, 4, 62, 0
1, 178980, Note_on_c, 1, 65, 0
1, 178987, Note_on_c, 5, 58, 0
1, 179040, Note_on_c, 1, 70, 45
1, 179040, Note_on_c, 2, 64, 45
1, 179040, Note_on_c, 4, 60, 45
1, 179040, Note_on_c, 5, 55, 45
1, 179520, Note_on_c, 1, 70, 0
1, 179520, Note_on_c, 1, 69, 46
1, 179520, Note_on_c, 2, 64, 0
1, 179520, Note_on_c, 2, 65, 46
1, 179520, Note_on_c, 5, 55, 0
1, 179520, Note_on_c, 5, 53, 46
1, 180000, Note_on_c, 2, 65, 0
1, 180000, Note_on_c, 4, 60, 0
1, 180000, Note_on_c, 4, 62, 47
1, 180000, Note_on_c, 5, 53, 0
1, 180000, Note_on_c, 5, 58, 47
1, 180240, Note_on_c, 1, 69, 0
1, 180240, Note_on_c, 1, 67, 48
1, 180420, Note_on_c, 5, 58, 0
1, 180427, Note_on_c, 4, 62, 0
1, 180430, Note_on_c, 1, 67, 0
1, 180480, Note_on_c, 1, 74, 49
1, 180480, Note_on_c, 2, 70, 49
1, 180720, Note_on_c, 1, 74, 0
1, 180720, Note_on_c, 1, 72, 49
1, 180720, Note_on_c, 2, 70, 0
1, 180720, Note_on_c, 2, 69, 49
1, 180910, Note_on_c, 1, 72, 0
1, 180910, Note_on_c, 2, 69, 0
1, 180960, Note_on_c, 1, 70, 50
1, 180960, Note_on_c, 2, 67, 50
1, 180960, Note_on_c, 5, 46, 50
1, 181200, Note_on_c, 1, 70, 0
1, 181200, Note_on_c, 1, 69, 50
1, 181200, Note_on_c, 2, 67, 0
1, 181200, Note_on_c, 2, 65, 50
1, 181200, Note_on_c, 5, 46, 0
1, 181200, Note_on_c, 5, 47, 50
1, 181390, Note_on_c, 1, 69, 0
1, 181390, Note_on_c, 2, 65, 0
1, 181417, Note_on_c, 5, 47, 0
1, 181440, Note_on_c, 1, 69, 53
1, 181440, Note_on_c, 2, 65, 53
1, 181440, Note_on_c, 5, 48, 53
1, 181680, Note_on_c, 1, 69, 0
1, 181680, Note_on_c, 1, 67, 51
1, 181680, Note_on_c, 2, 65, 0
1, 181680, Note_on_c, 2, 64, 51
1, 181867, Note_on_c, 5, 48, 0
1, 181870, Note_on_c, 1, 67, 0
1, 181870, Note_on_c, 2, 64, 0
1, 181920, Note_on_c, 1, 65, 49
1, 181980, Note_on_c, 1, 65, 0
1, 181980, Note_on_c, 1, 67, 49
1, 182040, Note_on_c, 1, 67, 0
1, 182040, Note_on_c, 1, 65, 48
1, 182160, Note_on_c, 1, 65, 0
1, 182160, Note_on_c, 1, 64, 48
1, 182350, Note_on_c, 1, 64, 0
1, 182400, Note_on_c, 1, 62, 46
1, 182460, Note_on_c, 1, 62, 0
1, 182460, Note_on_c, 1, 64, 45
1, 182520, Note_on_c, 1, 64, 0
1, 182520, Note_on_c, 1, 62, 45
1, 182640, Note_on_c, 1, 60, 44
1, 182645, Note_on_c, 1, 62, 0
1, 182830, Note_on_c, 1, 60, 0
1, 182880, Note_on_c, 2, 69, 67
1, 182880, Note_on_c, 4, 53, 67
1, 182880, Note_on_c, 4, 45, 67
1, 182880, Note_on_c, 4, 48, 67
1, 182880, Note_on_c, 5, 41, 67
1, 182920, Note_on_c, 2, 69, 0
1, 182920, Note_on_c, 2, 72, 67
1, 182960, Note_on_c, 1, 77, 67
1, 182960, Note_on_c, 2, 72, 0
1, 183190, Note_on_c, 4, 48, 0
1, 183190, Note_on_c, 4, 45, 0
1, 183190, Note_on_c, 4, 53, 0
1, 183190, Note_on_c, 5, 41, 0
1, 183360, Note_on_c, 4, 57, 67
1, 183360, Note_on_c, 5, 53, 67
1, 183547, Note_on_c, 1, 77, 0
1, 183600, Note_on_c, 1, 79, 66
1, 183670, Note_on_c, 4, 57, 0
1, 183670, Note_on_c, 5, 53, 0
1, 183720, Note_on_c, 1, 79, 0
1, 183720, Note_on_c, 1, 77, 66
1, 183840, Note_on_c, 1, 77, 0
1, 183840, Note_on_c, 1, 76, 66
1, 183960, Note_on_c, 1, 76, 0
1, 183960, Note_on_c, 1, 77, 66
1, 184080, Note_on_c, 1, 77, 0
1, 184080, Note_on_c, 1, 81, 65
1, 184200, Note_on_c, 1, 81, 0
1, 184200, Note_on_c, 1, 77, 65
1, 184320, Note_on_c, 1, 77, 0
1, 184320, Note_on_c, 1, 72, 65
1, 184320, Note_on_c, 4, 53, 65
1, 184320, Note_on_c, 4, 48, 65
1, 184320, Note_on_c, 4, 45, 65
1, 184320, Note_on_c, 5, 41, 65
1, 184630, Note_on_c, 4, 45, 0
1, 184630, Note_on_c, 4, 48, 0
1, 184630, Note_on_c, 4, 53, 0
1, 184630, Note_on_c, 5, 41, 0
1, 184800, Note_on_c, 4, 57, 64
1, 184800, Note_on_c, 5, 53, 64
1, 184980, Note_on_c, 1, 72, 0
1, 185040, Note_on_c, 1, 74, 64
1, 185110, Note_on_c, 4, 57, 0
1, 185110, Note_on_c, 5, 53, 0
1, 185160, Note_on_c, 1, 74, 0
1, 185160, Note_on_c, 1, 72, 63
1, 185280, Note_on_c, 1, 72, 0
1, 185280, Note_on_c, 1, 71, 63
1, 185400, Note_on_c, 1, 71, 0
1, 185400, Note_on_c, 1, 72, 63
1, 185520, Note_on_c, 1, 72, 0
1, 185520, Note_on_c, 1, 77, 63
1, 185640, Note_on_c, 1, 77, 0
1, 185640, Note_on_c, 1, 72, 63
1, 185760, Note_on_c, 1, 72, 0
1, 185760, Note_on_c, 1, 69, 62
1, 185760, Note_on_c, 4, 53, 62
1, 185760, Note_on_c, 4, 45, 62
1, 185760, Note_on_c, 4, 48, 62
1, 185760, Note_on_c, 5, 41, 62
1, 186070, Note_on_c, 4, 48, 0
1, 186070, Note_on_c, 4, 45, 0
1, 186070, Note_on_c, 4, 53, 0
1, 186070, Note_on_c, 5, 41, 0
1, 186240, Note_on_c, 4, 57, 61
1, 186240, Note_on_c, 5, 53, 61
1, 186412, Note_on_c, 1, 69, 0
1, 186480, Note_on_c, 1, 70, 61
1, 186550, Note_on_c, 4, 57, 0
1, 186550, Note_on_c, 5, 53, 0
1, 186600, Note_on_c, 1, 70, 0
1, 186600, Note_on_c, 1, 69, 61
1, 186720, Note_on_c, 1, 69, 0
1, 186720, Note_on_c, 1, 68, 61
1, 186840, Note_on_c, 1, 68, 0
1, 186840, Note_on_c, 1, 69, 60
1, 186960, Note_on_c, 1, 69, 0
1, 186960, Note_on_c, 1, 72, 60
1, 187080, Note_on_c, 1, 72, 0
1, 187080, Note_on_c, 1, 69, 60
1, 187200, Note_on_c, 1, 69, 0
1, 187200, Note_on_c, 1, 65, 60
1, 187620, Note_on_c, 1, 65, 0
1, 187680, Note_on_c, 1, 65, 43
1, 187680, Note_on_c, 4, 60, 43
1, 187680, Note_on_c, 5, 57, 43
1, 188160, Note_on_c, 1, 65, 0
1, 188160, Note_on_c, 1, 65, 47
1, 188160, Note_on_c, 4, 60, 0
1, 188160, Note_on_c, 4, 62, 47
1, 188160, Note_on_c, 5, 57, 0
1, 188160, Note_on_c, 5, 58, 47
1, 188640, Note_on_c, 1, 65, 0
1, 188640, Note_on_c, 1, 65, 51
1, 188640, Note_on_c, 4, 62, 0
1, 188640, Note_on_c, 4, 63, 51
1, 188640, Note_on_c, 5, 58, 0
1, 188640, Note_on_c, 5, 60, 51
1, 189120, Note_on_c, 4, 63, 0
1, 189120, Note_on_c, 4, 62, 46
1, 189120, Note_on_c, 5, 60, 0
1, 189120, Note_on_c, 5, 58, 46
1, 189600, Note_on_c, 4, 62, 0
1, 189600, Note_on_c, 4, 61, 41
1, 189600, Note_on_c, 5, 58, 0
1, 189600, Note_on_c, 5, 57, 41
1, 190080, Note_on_c, 4, 61, 0
1, 190080, Note_on_c, 4, 62, 41
1, 190080, Note_on_c, 5, 57, 0
1, 190080, Note_on_c, 5, 58, 41
1, 190492, Note_on_c, 4, 62, 0
1, 190500, Note_on_c, 1, 65, 0
1, 190507, Note_on_c, 5, 58, 0
1, 190560, Note_on_c, 1, 74, 44
1, 190560, Note_on_c, 2, 64, 44
1, 190560, Note_on_c, 4, 58, 44
1, 190560, Note_on_c, 5, 55, 44
1, 191040, Note_on_c, 1, 74, 0
1, 191040, Note_on_c, 1, 72, 47
1, 191040, Note_on_c, 2, 64, 0
1, 191040, Note_on_c, 2, 65, 47
1, 191040, Note_on_c, 4, 58, 0
1, 191040, Note_on_c, 4, 60, 47
1, 191040, Note_on_c, 5, 55, 0
1, 191040, Note_on_c, 5, 57, 47
1, 191400, Note_on_c, 1, 69, 49
1, 191400, Note_on_c, 2, 65, 0
1, 191482, Note_on_c, 4, 60, 0
1, 191490, Note_on_c, 1, 72, 0
1, 191497, Note_on_c, 1, 69, 0
1, 191497, Note_on_c, 5, 57, 0
1, 191520, Note_on_c, 1, 72, 51
1, 191520, Note_on_c, 2, 69, 51
1, 191520, Note_on_c, 4, 62, 51
1, 191520, Note_on_c, 5, 58, 51
1, 191880, Note_on_c, 1, 72, 0
1, 191880, Note_on_c, 1, 70, 46
1, 191880, Note_on_c, 2, 69, 0
1, 191880, Note_on_c, 2, 67, 46
1, 192000, Note_on_c, 1, 70, 0
1, 192000, Note_on_c, 1, 69, 45
1, 192000, Note_on_c, 2, 67, 0
1, 192000, Note_on_c, 2, 65, 45
1, 192000, Note_on_c, 4, 62, 0
1, 192000, Note_on_c, 4, 60, 45
1, 192000, Note_on_c, 5, 58, 0
1, 192427, Note_on_c, 4, 60, 0
1, 192480, Note_on_c, 1, 69, 0
1, 192480, Note_on_c, 1, 67, 39
1, 192480, Note_on_c, 2, 65, 0
1, 192480, Note_on_c, 2, 64, 39
1, 192480, Note_on_c, 5, 48, 39
1, 192907, Note_on_c, 5, 48, 0
1, 192960, Note_on_c, 1, 67, 0
1, 192960, Note_on_c, 1, 65, 36
1, 192960, Note_on_c, 2, 64, 0
1, 192960, Note_on_c, 4, 57, 66
1, 192960, Note_on_c, 4, 53, 66
1, 193200, Note_on_c, 3, 48, 66
1, 193320, Note_on_c, 4, 53, 0
1, 193320, Note_on_c, 4, 57, 0
1, 193380, Note_on_c, 1, 65, 0
1, 193392, Note_on_c, 3, 48, 0
1, 193440, Note_on_c, 4, 57, 66
1, 193440, Note_on_c, 4, 53, 66
1, 193680, Note_on_c, 1, 84, 67
1, 193680, Note_on_c, 2, 72, 67
1, 193680, Note_on_c, 3, 48, 67
1, 193800, Note_on_c, 1, 84, 0
1, 193800, Note_on_c, 2, 72, 0
1, 193800, Note_on_c, 4, 53, 0
1, 193800, Note_on_c, 4, 57, 0
1, 193872, Note_on_c, 3, 48, 0
1, 193920, Note_on_c, 1, 84, 67
1, 193920, Note_on_c, 2, 72, 67
1, 193920, Note_on_c, 4, 57, 67
1, 193920, Note_on_c, 4, 53, 67
1, 194040, Note_on_c, 1, 84, 0
1, 194040, Note_on_c, 2, 72, 0
1, 194160, Note_on_c, 1, 84, 67
1, 194160, Note_on_c, 2, 72, 67
1, 194160, Note_on_c, 3, 48, 67
1, 194280, Note_on_c, 1, 84, 0
1, 194280, Note_on_c, 2, 72, 0
1, 194280, Note_on_c, 4, 53, 0
1, 194280, Note_on_c, 4, 57, 0
1, 194352, Note_on_c, 3, 48, 0
1, 194400, Note_on_c, 1, 84, 68
1, 194400, Note_on_c, 2, 72, 68
1, 194400, Note_on_c, 4, 57, 68
1, 194400, Note_on_c, 4, 53, 68
1, 194640, Note_on_c, 3, 48, 68
1, 194760, Note_on_c, 4, 53, 0
1, 194760, Note_on_c, 4, 57, 0
1, 194832, Note_on_c, 3, 48, 0
1, 194880, Note_on_c, 4, 57, 68
1, 194880, Note_on_c, 4, 53, 68
1, 195120, Note_on_c, 1, 84, 0
1, 195120, Note_on_c, 1, 82, 69
1, 195120, Note_on_c, 2, 72, 0
1, 195120, Note_on_c, 3, 48, 69
1, 195240, Note_on_c, 1, 82, 0
1, 195240, Note_on_c, 1, 81, 69
1, 195240, Note_on_c, 4, 53, 0
1, 195240, Note_on_c, 4, 57, 0
1, 195312, Note_on_c, 3, 48, 0
1, 195360, Note_on_c, 1, 81, 0
1, 195360, Note_on_c, 1, 79, 69
1, 195360, Note_on_c, 4, 57, 69
1, 195360, Note_on_c, 4, 53, 69
1, 195515, Note_on_c, 1, 79, 0
1, 195600, Note_on_c, 1, 77, 69
1, 195600, Note_on_c, 3, 48, 69
1, 195720, Note_on_c, 4, 53, 0
1, 195720, Note_on_c, 4, 57, 0
1, 195755, Note_on_c, 1, 77, 0
1, 195792, Note_on_c, 3, 48, 0
1, 195840, Note_on_c, 1, 77, 70
1, 195840, Note_on_c, 4, 58, 70
1, 195840, Note_on_c, 4, 55, 70
1, 195900, Note_on_c, 1, 77, 0
1, 195900, Note_on_c, 1, 79, 70
1, 195960, Note_on_c, 1, 79, 0
1, 195960, Note_on_c, 1, 77, 70
1, 196080, Note_on_c, 1, 76, 70
1, 196080, Note_on_c, 3, 48, 70
1, 196085, Note_on_c, 1, 77, 0
1, 196200, Note_on_c, 4, 55, 0
1, 196200, Note_on_c, 4, 58, 0
1, 196270, Note_on_c, 1, 76, 0
1, 196272, Note_on_c, 3, 48, 0
1, 196320, Note_on_c, 1, 76, 70
1, 196320, Note_on_c, 4, 58, 70
1, 196320, Note_on_c, 4, 55, 70
1, 196510, Note_on_c, 1, 76, 0
1, 196560, Note_on_c, 1, 72, 71
1, 196560, Note_on_c, 3, 48, 71
1, 196680, Note_on_c, 4, 55, 0
1, 196680, Note_on_c, 4, 58, 0
1, 196750, Note_on_c, 1, 72, 0
1, 196752, Note_on_c, 3, 48, 0
1, 196800, Note_on_c, 1, 72, 71
1, 196800, Note_on_c, 4, 58, 71
1, 196800, Note_on_c, 4, 55, 71
1, 196990, Note_on_c, 1, 72, 0
1, 197040, Note_on_c, 1, 72, 71
1, 197040, Note_on_c, 3, 48, 71
1, 197160, Note_on_c, 4, 55, 0
1, 197160, Note_on_c, 4, 58, 0
1, 197230, Note_on_c, 1, 72, 0
1, 197232, Note_on_c, 3, 48, 0
1, 197280, Note_on_c, 1, 79, 72
1, 197280, Note_on_c, 4, 58, 72
1, 197280, Note_on_c, 4, 52, 72
1, 197520, Note_on_c, 1, 79, 0
1, 197520, Note_on_c, 1, 81, 72
1, 197520, Note_on_c, 3, 48, 72
1, 197600, Note_on_c, 1, 81, 0
1, 197600, Note_on_c, 1, 79, 72
1, 197640, Note_on_c, 4, 52, 0
1, 197640, Note_on_c, 4, 58, 0
1, 197680, Note_on_c, 1, 79, 0
1, 197680, Note_on_c, 1, 78, 72
1, 197712, Note_on_c, 3, 48, 0
1, 197760, Note_on_c, 1, 78, 0
1, 197760, Note_on_c, 1, 79, 72
1, 197760, Note_on_c, 4, 58, 72
1, 197760, Note_on_c, 4, 52, 72
1, 197950, Note_on_c, 1, 79, 0
1, 198000, Note_on_c, 1, 84, 72
1, 198000, Note_on_c, 3, 48, 72
1, 198120, Note_on_c, 4, 52, 0
1, 198120, Note_on_c, 4, 58, 0
1, 198192, Note_on_c, 3, 48, 0
1, 198240, Note_on_c, 1, 84, 0
1, 198240, Note_on_c, 1, 83, 73
1, 198240, Note_on_c, 4, 55, 73
1, 198240, Note_on_c, 4, 52, 73
1, 198480, Note_on_c, 1, 83, 0
1, 198480, Note_on_c, 1, 84, 73
1, 198480, Note_on_c, 3, 48, 73
1, 198600, Note_on_c, 4, 52, 0
1, 198600, Note_on_c, 4, 55, 0
1, 198672, Note_on_c, 3, 48, 0
1, 198682, Note_on_c, 1, 84, 0
1, 198720, Note_on_c, 1, 81, 72
1, 198720, Note_on_c, 4, 57, 72
1, 198720, Note_on_c, 4, 53, 72
1, 198960, Note_on_c, 3, 48, 66
1, 199080, Note_on_c, 4, 53, 0
1, 199080, Note_on_c, 4, 57, 0
1, 199152, Note_on_c, 3, 48, 0
1, 199200, Note_on_c, 1, 81, 0
1, 199200, Note_on_c, 1, 77, 63
1, 199200, Note_on_c, 4, 57, 60
1, 199200, Note_on_c, 4, 53, 60
1, 199390, Note_on_c, 1, 77, 0
1, 199440, Note_on_c, 1, 84, 62
1, 199440, Note_on_c, 2, 72, 62
1, 199440, Note_on_c, 3, 48, 59
1, 199560, Note_on_c, 1, 84, 0
1, 199560, Note_on_c, 2, 72, 0
1, 199560, Note_on_c, 4, 53, 0
1, 199560, Note_on_c, 4, 57, 0
1, 199632, Note_on_c, 3, 48, 0
1, 199680, Note_on_c, 1, 84, 62
1, 199680, Note_on_c, 2, 72, 62
1, 199680, Note_on_c, 4, 57, 59
1, 199680, Note_on_c, 4, 53, 59
1, 199800, Note_on_c, 1, 84, 0
1, 199800, Note_on_c, 2, 72, 0
1, 199920, Note_on_c, 1, 84, 62
1, 199920, Note_on_c, 2, 72, 62
1, 199920, Note_on_c, 3, 48, 58
1, 200040, Note_on_c, 1, 84, 0
1, 200040, Note_on_c, 2, 72, 0
1, 200040, Note_on_c, 4, 53, 0
1, 200040, Note_on_c, 4, 57, 0
1, 200112, Note_on_c, 3, 48, 0
1, 200160, Note_on_c, 1, 84, 61
1, 200160, Note_on_c, 2, 72, 61
1, 200160, Note_on_c, 4, 57, 58
1, 200160, Note_on_c, 4, 53, 58
1, 200400, Note_on_c, 3, 48, 58
1, 200520, Note_on_c, 4, 53, 0
1, 200520, Note_on_c, 4, 57, 0
1, 200592, Note_on_c, 3, 48, 0
1, 200640, Note_on_c, 4, 57, 57
1, 200640, Note_on_c, 4, 53, 57
1, 200880, Note_on_c, 1, 84, 0
1, 200880, Note_on_c, 1, 86, 60
1, 200880, Note_on_c, 2, 72, 0
1, 200880, Note_on_c, 3, 48, 57
1, 201000, Note_on_c, 1, 86, 0
1, 201000, Note_on_c, 1, 84, 60
1, 201000, Note_on_c, 4, 53, 0
1, 201000, Note_on_c, 4, 57, 0
1, 201072, Note_on_c, 3, 48, 0
1, 201120, Note_on_c, 1, 84, 0
1, 201120, Note_on_c, 1, 82, 59
1, 201120, Note_on_c, 4, 57, 57
1, 201120, Note_on_c, 4, 53, 57
1, 201240, Note_on_c, 1, 82, 0
1, 201240, Note_on_c, 1, 81, 59
1, 201360, Note_on_c, 1, 81, 0
1, 201360, Note_on_c, 1, 79, 59
1, 201360, Note_on_c, 3, 48, 56
1, 201480, Note_on_c, 1, 79, 0
1, 201480, Note_on_c, 1, 77, 59
1, 201480, Note_on_c, 4, 53, 0
1, 201480, Note_on_c, 4, 57, 0
1, 201552, Note_on_c, 3, 48, 0
1, 201576, Note_on_c, 1, 77, 0
1, 201600, Note_on_c, 1, 77, 58
1, 201600, Note_on_c, 4, 58, 56
1, 201600, Note_on_c, 4, 55, 56
1, 201660, Note_on_c, 1, 77, 0
1, 201660, Note_on_c, 1, 79, 58
1, 201720, Note_on_c, 1, 79, 0
1, 201720, Note_on_c, 1, 77, 58
1, 201840, Note_on_c, 1, 76, 58
1, 201840, Note_on_c, 3, 48, 55
1, 201845, Note_on_c, 1, 77, 0
1, 201960, Note_on_c, 4, 55, 0
1, 201960, Note_on_c, 4, 58, 0
1, 202030, Note_on_c, 1, 76, 0
1, 202032, Note_on_c, 3, 48, 0
1, 202080, Note_on_c, 1, 76, 58
1, 202080, Note_on_c, 4, 58, 55
1, 202080, Note_on_c, 4, 55, 55
1, 202270, Note_on_c, 1, 76, 0
1, 202320, Note_on_c, 1, 72, 57
1, 202320, Note_on_c, 3, 48, 55
1, 202440, Note_on_c, 4, 55, 0
1, 202440, Note_on_c, 4, 58, 0
1, 202510, Note_on_c, 1, 72, 0
1, 202512, Note_on_c, 3, 48, 0
1, 202560, Note_on_c, 1, 72, 57
1, 202560, Note_on_c, 4, 58, 54
1, 202560, Note_on_c, 4, 55, 54
1, 202750, Note_on_c, 1, 72, 0
1, 202800, Note_on_c, 1, 72, 56
1, 202800, Note_on_c, 3, 48, 54
1, 202920, Note_on_c, 4, 55, 0
1, 202920, Note_on_c, 4, 58, 0
1, 202990, Note_on_c, 1, 72, 0
1, 202992, Note_on_c, 3, 48, 0
1, 203040, Note_on_c, 1, 79, 56
1, 203040, Note_on_c, 4, 58, 53
1, 203040, Note_on_c, 4, 52, 53
1, 203280, Note_on_c, 1, 79, 0
1, 203280, Note_on_c, 1, 81, 55
1, 203280, Note_on_c, 3, 48, 53
1, 203360, Note_on_c, 1, 81, 0
1, 203360, Note_on_c, 1, 79, 55
1, 203400, Note_on_c, 4, 52, 0
1, 203400, Note_on_c, 4, 58, 0
1, 203440, Note_on_c, 1, 79, 0
1, 203440, Note_on_c, 1, 78, 55
1, 203472, Note_on_c, 3, 48, 0
1, 203520, Note_on_c, 1, 78, 0
1, 203520, Note_on_c, 1, 79, 55
1, 203520, Note_on_c, 4, 58, 53
1, 203520, Note_on_c, 4, 52, 53
1, 203710, Note_on_c, 1, 79, 0
1, 203760, Note_on_c, 1, 84, 54
1, 203760, Note_on_c, 3, 48, 52
1, 203880, Note_on_c, 4, 52, 0
1, 203880, Note_on_c, 4, 58, 0
1, 203952, Note_on_c, 3, 48, 0
1, 204000, Note_on_c, 1, 84, 0
1, 204000, Note_on_c, 1, 83, 54
1, 204000, Note_on_c, 4, 55, 52
1, 204000, Note_on_c, 4, 52, 52
1, 204240, Note_on_c, 1, 83, 0
1, 204240, Note_on_c, 1, 84, 54
1, 204240, Note_on_c, 3, 48, 52
1, 204360, Note_on_c, 4, 52, 0
1, 204360, Note_on_c, 4, 55, 0
1, 204432, Note_on_c, 3, 48, 0
1, 204480, Note_on_c, 1, 84, 0
1, 204480, Note_on_c, 1, 81, 83
1, 204480, Note_on_c, 5, 41, 83
1, 204480, Note_on_c, 5, 53, 83
1, 204520, Note_on_c, 1, 81, 0
1, 204520, Note_on_c, 1, 82, 83
1, 204560, Note_on_c, 1, 82, 0
1, 204560, Note_on_c, 1, 81, 83
1, 204600, Note_on_c, 1, 81, 0
1, 204600, Note_on_c, 1, 79, 83
1, 204720, Note_on_c, 1, 79, 0
1, 204720, Note_on_c, 1, 81, 82
1, 204790, Note_on_c, 5, 53, 0
1, 204790, Note_on_c, 5, 41, 0
1, 204840, Note_on_c, 1, 81, 0
1, 204840, Note_on_c, 1, 82, 82
1, 204960, Note_on_c, 1, 82, 0
1, 204960, Note_on_c, 1, 84, 81
1, 204960, Note_on_c, 5, 52, 81
1, 204960, Note_on_c, 5, 40, 81
1, 205080, Note_on_c, 1, 84, 0
1, 205080, Note_on_c, 1, 82, 81
1, 205200, Note_on_c, 1, 82, 0
1, 205200, Note_on_c, 1, 81, 81
1, 205270, Note_on_c, 5, 40, 0
1, 205270, Note_on_c, 5, 52, 0
1, 205320, Note_on_c, 1, 81, 0
1, 205320, Note_on_c, 1, 79, 80
1, 205440, Note_on_c, 1, 79, 0
1, 205440, Note_on_c, 1, 77, 80
1, 205560, Note_on_c, 1, 77, 0
1, 205560, Note_on_c, 1, 76, 80
1, 205680, Note_on_c, 1, 76, 0
1, 205680, Note_on_c, 1, 74, 79
1, 205800, Note_on_c, 1, 74, 0
1, 205800, Note_on_c, 1, 72, 79
1, 205896, Note_on_c, 1, 72, 0
1, 205920, Note_on_c, 1, 77, 78
1, 205920, Note_on_c, 5, 38, 78
1, 205920, Note_on_c, 5, 50, 78
1, 205960, Note_on_c, 1, 77, 0
1, 205960, Note_on_c, 1, 79, 78
1, 206000, Note_on_c, 1, 79, 0
1, 206000, Note_on_c, 1, 77, 78
1, 206040, Note_on_c, 1, 77, 0
1, 206040, Note_on_c, 1, 76, 78
1, 206160, Note_on_c, 1, 76, 0
1, 206160, Note_on_c, 1, 77, 78
1, 206230, Note_on_c, 5, 50, 0
1, 206230, Note_on_c, 5, 38, 0
1, 206280, Note_on_c, 1, 77, 0
1, 206280, Note_on_c, 1, 79, 77
1, 206400, Note_on_c, 1, 79, 0
1, 206400, Note_on_c, 1, 81, 77
1, 206400, Note_on_c, 5, 36, 77
1, 206400, Note_on_c, 5, 48, 77
1, 206520, Note_on_c, 1, 81, 0
1, 206520, Note_on_c, 1, 79, 76
1, 206640, Note_on_c, 1, 79, 0
1, 206640, Note_on_c, 1, 77, 76
1, 206710, Note_on_c, 5, 48, 0
1, 206710, Note_on_c, 5, 36, 0
1, 206760, Note_on_c, 1, 77, 0
1, 206760, Note_on_c, 1, 76, 76
1, 206880, Note_on_c, 1, 76, 0
1, 206880, Note_on_c, 1, 74, 75
1, 207000, Note_on_c, 1, 74, 0
1, 207000, Note_on_c, 1, 72, 75
1, 207120, Note_on_c, 1, 72, 0
1, 207120, Note_on_c, 1, 70, 75
1, 207240, Note_on_c, 1, 70, 0
1, 207240, Note_on_c, 1, 69, 74
1, 207336, Note_on_c, 1, 69, 0
1, 207360, Note_on_c, 1, 74, 74
1, 207360, Note_on_c, 5, 58, 74
1, 207360, Note_on_c, 5, 46, 74
1, 207400, Note_on_c, 1, 74, 0
1, 207400, Note_on_c, 1, 76, 74
1, 207440, Note_on_c, 1, 76, 0
1, 207440, Note_on_c, 1, 74, 74
1, 207480, Note_on_c, 1, 74, 0
1, 207480, Note_on_c, 1, 72, 73
1, 207600, Note_on_c, 1, 72, 0
1, 207600, Note_on_c, 1, 74, 73
1, 207670, Note_on_c, 5, 46, 0
1, 207670, Note_on_c, 5, 58, 0
1, 207720, Note_on_c, 1, 74, 0
1, 207720, Note_on_c, 1, 76, 73
1, 207840, Note_on_c, 1, 76, 0
1, 207840, Note_on_c, 1, 77, 72
1, 207840, Note_on_c, 5, 57, 72
1, 207840, Note_on_c, 5, 45, 72
1, 207960, Note_on_c, 1, 77, 0
1, 207960, Note_on_c, 1, 76, 72
1, 208080, Note_on_c, 1, 76, 0
1, 208080, Note_on_c, 1, 74, 71
1, 208150, Note_on_c, 5, 45, 0
1, 208150, Note_on_c, 5, 57, 0
1, 208200, Note_on_c, 1, 74, 0
1, 208200, Note_on_c, 1, 72, 71
1, 208320, Note_on_c, 1, 72, 0
1, 208320, Note_on_c, 1, 70, 71
1, 208320, Note_on_c, 5, 62, 71
1, 208320, Note_on_c, 5, 50, 71
1, 208440, Note_on_c, 1, 70, 0
1, 208440, Note_on_c, 1, 69, 70
1, 208560, Note_on_c, 1, 69, 0
1, 208560, Note_on_c, 1, 67, 70
1, 208630, Note_on_c, 5, 50, 0
1, 208630, Note_on_c, 5, 62, 0
1, 208680, Note_on_c, 1, 67, 0
1, 208680, Note_on_c, 1, 65, 70
1, 208776, Note_on_c, 1, 65, 0
1, 208800, Note_on_c, 1, 72, 70
1, 208800, Note_on_c, 2, 64, 70
1, 208800, Note_on_c, 2, 67, 70
1, 208800, Note_on_c, 5, 48, 70
1, 208920, Note_on_c, 3, 60, 70
1, 209016, Note_on_c, 3, 60, 0
1, 209040, Note_on_c, 3, 59, 71
1, 209040, Note_on_c, 5, 48, 0
1, 209136, Note_on_c, 3, 59, 0
1, 209160, Note_on_c, 1, 72, 0
1, 209160, Note_on_c, 2, 67, 0
1, 209160, Note_on_c, 2, 64, 0
1, 209160, Note_on_c, 3, 60, 71
1, 209256, Note_on_c, 3, 60, 0
1, 209280, Note_on_c, 3, 62, 71
1, 209376, Note_on_c, 3, 62, 0
1, 209400, Note_on_c, 3, 60, 72
1, 209496, Note_on_c, 3, 60, 0
1, 209520, Note_on_c, 3, 59, 72
1, 209616, Note_on_c, 3, 59, 0
1, 209640, Note_on_c, 3, 60, 72
1, 209736, Note_on_c, 3, 60, 0
1, 209760, Note_on_c, 1, 76, 73
1, 209760, Note_on_c, 2, 72, 73
1, 209760, Note_on_c, 2, 67, 73
1, 209760, Note_on_c, 5, 58, 73
1, 209880, Note_on_c, 3, 60, 73
1, 209940, Note_on_c, 5, 58, 0
1, 209976, Note_on_c, 3, 60, 0
1, 210000, Note_on_c, 5, 59, 73
1, 210120, Note_on_c, 1, 76, 0
1, 210120, Note_on_c, 2, 67, 0
1, 210120, Note_on_c, 2, 72, 0
1, 210120, Note_on_c, 3, 60, 74
1, 210180, Note_on_c, 5, 59, 0
1, 210216, Note_on_c, 3, 60, 0
1, 210240, Note_on_c, 1, 77, 74
1, 210240, Note_on_c, 2, 72, 74
1, 210240, Note_on_c, 2, 69, 74
1, 210240, Note_on_c, 5, 57, 74
1, 210360, Note_on_c, 3, 60, 75
1, 210456, Note_on_c, 3, 60, 0
1, 210480, Note_on_c, 3, 59, 75
1, 210480, Note_on_c, 5, 57, 0
1, 210576, Note_on_c, 3, 59, 0
1, 210600, Note_on_c, 1, 77, 0
1, 210600, Note_on_c, 2, 69, 0
1, 210600, Note_on_c, 2, 72, 0
1, 210600, Note_on_c, 3, 60, 75
1, 210696, Note_on_c, 3, 60, 0
1, 210720, Note_on_c, 1, 82, 76
1, 210720, Note_on_c, 2, 76, 76
1, 210720, Note_on_c, 2, 72, 76
1, 210720, Note_on_c, 5, 55, 76
1, 210840, Note_on_c, 3, 60, 76
1, 210936, Note_on_c, 3, 60, 0
1, 210960, Note_on_c, 3, 59, 76
1, 210960, Note_on_c, 5, 55, 0
1, 211056, Note_on_c, 3, 59, 0
1, 211080, Note_on_c, 1, 82, 0
1, 211080, Note_on_c, 2, 72, 0
1, 211080, Note_on_c, 2, 76, 0
1, 211080, Note_on_c, 3, 60, 77
1, 211176, Note_on_c, 3, 60, 0
1, 211200, Note_on_c, 1, 81, 77
1, 211200, Note_on_c, 2, 77, 77
1, 211200, Note_on_c, 2, 72, 77
1, 211200, Note_on_c, 5, 53, 77
1, 211320, Note_on_c, 3, 60, 77
1, 211416, Note_on_c, 3, 60, 0
1, 211440, Note_on_c, 3, 59, 78
1, 211440, Note_on_c, 5, 53, 0
1, 211536, Note_on_c, 3, 59, 0
1, 211560, Note_on_c, 1, 81, 0
1, 211560, Note_on_c, 2, 72, 0
1, 211560, Note_on_c, 2, 77, 0
1, 211560, Note_on_c, 3, 60, 78
1, 211656, Note_on_c, 3, 60, 0
1, 211680, Note_on_c, 1, 84, 79
1, 211680, Note_on_c, 2, 79, 79
1, 211680, Note_on_c, 2, 76, 79
1, 211680, Note_on_c, 2, 72, 79
1, 211680, Note_on_c, 5, 48, 79
1, 211800, Note_on_c, 3, 60, 79
1, 211896, Note_on_c, 3, 60, 0
1, 211920, Note_on_c, 3, 59, 79
1, 211920, Note_on_c, 5, 48, 0
1, 212016, Note_on_c, 3, 59, 0
1, 212040, Note_on_c, 1, 84, 0
1, 212040, Note_on_c, 2, 72, 0
1, 212040, Note_on_c, 2, 76, 0
1, 212040, Note_on_c, 2, 79, 0
1, 212040, Note_on_c, 3, 60, 80
1, 212136, Note_on_c, 3, 60, 0
1, 212160, Note_on_c, 3, 62, 80
1, 212256, Note_on_c, 3, 62, 0
1, 212280, Note_on_c, 3, 60, 80
1, 212376, Note_on_c, 3, 60, 0
1, 212400, Note_on_c, 3, 59, 81
1, 212496, Note_on_c, 3, 59, 0
1, 212520, Note_on_c, 3, 60, 81
1, 212616, Note_on_c, 3, 60, 0
1, 212640, Note_on_c, 1, 76, 81
1, 212640, Note_on_c, 2, 72, 81
1, 212640, Note_on_c, 2, 67, 81
1, 212640, Note_on_c, 5, 58, 81
1, 212760, Note_on_c, 3, 60, 82
1, 212820, Note_on_c, 5, 58, 0
1, 212856, Note_on_c, 3, 60, 0
1, 212880, Note_on_c, 5, 59, 82
1, 213000, Note_on_c, 1, 76, 0
1, 213000, Note_on_c, 2, 67, 0
1, 213000, Note_on_c, 2, 72, 0
1, 213000, Note_on_c, 3, 60, 83
1, 213060, Note_on_c, 5, 59, 0
1, 213096, Note_on_c, 3, 60, 0
1, 213120, Note_on_c, 1, 77, 83
1, 213120, Note_on_c, 2, 72, 83
1, 213120, Note_on_c, 2, 69, 83
1, 213120, Note_on_c, 5, 57, 83
1, 213240, Note_on_c, 3, 60, 83
1, 213336, Note_on_c, 3, 60, 0
1, 213360, Note_on_c, 3, 59, 84
1, 213360, Note_on_c, 5, 57, 0
1, 213456, Note_on_c, 3, 59, 0
1, 213480, Note_on_c, 1, 77, 0
1, 213480, Note_on_c, 2, 69, 0
1, 213480, Note_on_c, 2, 72, 0
1, 213480, Note_on_c, 3, 60, 84
1, 213576, Note_on_c, 3, 60, 0
1, 213600, Note_on_c, 1, 82, 84
1, 213600, Note_on_c, 2, 76, 84
1, 213600, Note_on_c, 2, 72, 84
1, 213600, Note_on_c, 5, 55, 84
1, 213720, Note_on_c, 3, 60, 85
1, 213816, Note_on_c, 3, 60, 0
1, 213840, Note_on_c, 3, 59, 85
1, 213840, Note_on_c, 5, 55, 0
1, 213936, Note_on_c, 3, 59, 0
1, 213960, Note_on_c, 1, 82, 0
1, 213960, Note_on_c, 2, 72, 0
1, 213960, Note_on_c, 2, 76, 0
1, 213960, Note_on_c, 3, 60, 85
1, 214056, Note_on_c, 3, 60, 0
1, 214080, Note_on_c, 1, 81, 86
1, 214080, Note_on_c, 2, 77, 86
1, 214080, Note_on_c, 2, 72, 86
1, 214080, Note_on_c, 5, 53, 86
1, 214200, Note_on_c, 3, 60, 86
1, 214296, Note_on_c, 3, 60, 0
1, 214320, Note_on_c, 3, 59, 87
1, 214320, Note_on_c, 5, 53, 0
1, 214416, Note_on_c, 3, 59, 0
1, 214440, Note_on_c, 1, 81, 0
1, 214440, Note_on_c, 2, 72, 0
1, 214440, Note_on_c, 2, 77, 0
1, 214440, Note_on_c, 3, 60, 87
1, 214536, Note_on_c, 3, 60, 0
1, 214560, Note_on_c, 1, 84, 87
1, 214560, Note_on_c, 2, 79, 87
1, 214560, Note_on_c, 2, 76, 87
1, 214560, Note_on_c, 2, 72, 87
1, 214560, Note_on_c, 5, 48, 87
1, 214920, Note_on_c, 1, 84, 0
1, 214920, Note_on_c, 2, 72, 0
1, 214920, Note_on_c, 2, 76, 0
1, 214920, Note_on_c, 2, 79, 0
1, 214920, Note_on_c, 5, 48, 0
1, 215040, Note_on_c, 1, 60, 82
1, 215040, Note_on_c, 4, 48, 82
1, 215040, Note_on_c, 5, 36, 82
1, 215400, Note_on_c, 1, 60, 0
1, 215400, Note_on_c, 4, 48, 0
1, 215400, Note_on_c, 5, 36, 0
1, 216000, Note_on_c, 1, 60, 48
1, 216360, Note_on_c, 1, 60, 0
1, 216360, Note_on_c, 1, 57, 49
1, 216480, Note_on_c, 1, 57, 0
1, 216480, Note_on_c, 1, 65, 50
1, 216840, Note_on_c, 1, 65, 0
1, 216840, Note_on_c, 1, 60, 51
1, 216960, Note_on_c, 1, 60, 0
1, 216960, Note_on_c, 1, 69, 51
1, 217320, Note_on_c, 1, 69, 0
1, 217320, Note_on_c, 1, 65, 52
1, 217440, Note_on_c, 1, 65, 0
1, 217440, Note_on_c, 1, 72, 52
1, 217595, Note_on_c, 1, 72, 0
1, 217680, Note_on_c, 1, 72, 53
1, 217835, Note_on_c, 1, 72, 0
1, 217920, Note_on_c, 1, 72, 53
1, 218075, Note_on_c, 1, 72, 0
1, 218160, Note_on_c, 1, 72, 54
1, 218315, Note_on_c, 1, 72, 0
1, 218400, Note_on_c, 1, 72, 54
1, 218555, Note_on_c, 1, 72, 0
1, 218640, Note_on_c, 1, 72, 55
1, 218795, Note_on_c, 1, 72, 0
1, 218880, Note_on_c, 1, 72, 56
1, 218880, Note_on_c, 4, 54, 56
1, 218880, Note_on_c, 4, 57, 56
1, 218880, Note_on_c, 5, 50, 56
1, 219240, Note_on_c, 1, 72, 0
1, 219240, Note_on_c, 1, 69, 56
1, 219360, Note_on_c, 1, 69, 0
1, 219360, Note_on_c, 1, 67, 57
1, 219360, Note_on_c, 4, 57, 0
1, 219360, Note_on_c, 4, 54, 0
1, 219360, Note_on_c, 4, 58, 57
1, 219360, Note_on_c, 4, 55, 57
1, 219840, Note_on_c, 1, 67, 0
1, 219840, Note_on_c, 1, 69, 58
1, 219840, Note_on_c, 4, 55, 0
1, 219840, Note_on_c, 4, 58, 0
1, 219840, Note_on_c, 4, 60, 58
1, 219840, Note_on_c, 4, 57, 58
1, 220260, Note_on_c, 1, 69, 0
1, 220267, Note_on_c, 4, 57, 0
1, 220267, Note_on_c, 4, 60, 0
1, 220275, Note_on_c, 5, 50, 0
1, 220320, Note_on_c, 1, 72, 58
1, 220320, Note_on_c, 2, 66, 58
1, 220320, Note_on_c, 2, 69, 58
1, 220560, Note_on_c, 5, 50, 56
1, 220716, Note_on_c, 5, 50, 0
1, 220800, Note_on_c, 1, 72, 0
1, 220800, Note_on_c, 1, 70, 54
1, 220800, Note_on_c, 2, 69, 0
1, 220800, Note_on_c, 2, 66, 0
1, 220800, Note_on_c, 2, 67, 54
1, 220800, Note_on_c, 5, 55, 54
1, 220956, Note_on_c, 5, 55, 0
1, 221040, Note_on_c, 5, 50, 51
1, 221196, Note_on_c, 5, 50, 0
1, 221227, Note_on_c, 1, 70, 0
1, 221227, Note_on_c, 2, 67, 0
1, 221280, Note_on_c, 5, 46, 49
1, 221436, Note_on_c, 5, 46, 0
1, 221520, Note_on_c, 5, 43, 47
1, 221676, Note_on_c, 5, 43, 0
1, 221760, Note_on_c, 1, 58, 44
1, 222120, Note_on_c, 1, 58, 0
1, 222120, Note_on_c, 1, 55, 45
1, 222240, Note_on_c, 1, 55, 0
1, 222240, Note_on_c, 1, 64, 46
1, 222600, Note_on_c, 1, 64, 0
1, 222600, Note_on_c, 1, 58, 47
1, 222720, Note_on_c, 1, 58, 0
1, 222720, Note_on_c, 1, 67, 47
1, 223080, Note_on_c, 1, 67, 0
1, 223080, Note_on_c, 1, 64, 49
1, 223200, Note_on_c, 1, 64, 0
1, 223200, Note_on_c, 1, 70, 49
1, 223355, Note_on_c, 1, 70, 0
1, 223440, Note_on_c, 1, 70, 50
1, 223595, Note_on_c, 1, 70, 0
1, 223680, Note_on_c, 1, 70, 51
1, 223835, Note_on_c, 1, 70, 0
1, 223920, Note_on_c, 1, 70, 51
1, 224075, Note_on_c, 1, 70, 0
1, 224160, Note_on_c, 1, 70, 52
1, 224315, Note_on_c, 1, 70, 0
1, 224400, Note_on_c, 1, 70, 53
1, 224555, Note_on_c, 1, 70, 0
1, 224640, Note_on_c, 1, 70, 54
1, 224640, Note_on_c, 4, 52, 54
1, 224640, Note_on_c, 4, 55, 54
1, 224640, Note_on_c, 5, 48, 54
1, 225000, Note_on_c, 1, 70, 0
1, 225000, Note_on_c, 1, 67, 55
1, 225120, Note_on_c, 1, 67, 0
1, 225120, Note_on_c, 1, 65, 56
1, 225120, Note_on_c, 4, 55, 0
1, 225120, Note_on_c, 4, 52, 0
1, 225120, Note_on_c, 4, 57, 56
1, 225120, Note_on_c, 4, 53, 56
1, 225600, Note_on_c, 1, 65, 0
1, 225600, Note_on_c, 1, 67, 57
1, 225600, Note_on_c, 4, 53, 0
1, 225600, Note_on_c, 4, 57, 0
1, 225600, Note_on_c, 4, 55, 57
1, 225600, Note_on_c, 4, 58, 57
1, 225600, Note_on_c, 5, 48, 0
1, 226012, Note_on_c, 4, 58, 0
1, 226020, Note_on_c, 4, 55, 0
1, 226027, Note_on_c, 1, 67, 0
1, 226080, Note_on_c, 1, 70, 59
1, 226080, Note_on_c, 2, 67, 59
1, 226080, Note_on_c, 2, 64, 59
1, 226320, Note_on_c, 5, 48, 57
1, 226476, Note_on_c, 5, 48, 0
1, 226560, Note_on_c, 1, 70, 0
1, 226560, Note_on_c, 1, 69, 55
1, 226560, Note_on_c, 2, 64, 0
1, 226560, Note_on_c, 2, 67, 0
1, 226560, Note_on_c, 2, 65, 55
1, 226560, Note_on_c, 5, 53, 55
1, 226716, Note_on_c, 5, 53, 0
1, 226800, Note_on_c, 5, 48, 54
1, 226956, Note_on_c, 5, 48, 0
1, 226980, Note_on_c, 1, 69, 0
1, 226987, Note_on_c, 2, 65, 0
1, 227040, Note_on_c, 5, 45, 52
1, 227196, Note_on_c, 5, 45, 0
1, 227280, Note_on_c, 5, 41, 50
1, 227436, Note_on_c, 5, 41, 0
1, 227520, Note_on_c, 1, 69, 44
1, 227880, Note_on_c, 1, 69, 0
1, 227880, Note_on_c, 1, 67, 47
1, 227976, Note_on_c, 1, 67, 0
1, 228000, Note_on_c, 1, 67, 48
1, 228000, Note_on_c, 4, 53, 48
1, 228000, Note_on_c, 5, 46, 48
1, 228480, Note_on_c, 1, 67, 0
1, 228480, Note_on_c, 1, 69, 51
1, 228480, Note_on_c, 5, 46, 0
1, 228480, Note_on_c, 5, 48, 51
1, 228885, Note_on_c, 5, 48, 0
1, 228907, Note_on_c, 1, 69, 0
1, 228907, Note_on_c, 4, 53, 0
1, 228960, Note_on_c, 1, 72, 55
1, 228960, Note_on_c, 4, 53, 55
1, 228960, Note_on_c, 5, 50, 55
1, 229320, Note_on_c, 1, 72, 0
1, 229320, Note_on_c, 1, 71, 54
1, 229440, Note_on_c, 1, 71, 0
1, 229440, Note_on_c, 1, 70, 53
1, 229920, Note_on_c, 1, 70, 0
1, 229920, Note_on_c, 1, 69, 51
1, 229920, Note_on_c, 5, 50, 0
1, 229920, Note_on_c, 5, 48, 51
1, 230340, Note_on_c, 4, 53, 0
1, 230347, Note_on_c, 1, 69, 0
1, 230347, Note_on_c, 5, 48, 0
1, 230400, Note_on_c, 1, 86, 50
1, 230520, Note_on_c, 1, 86, 0
1, 230520, Note_on_c, 1, 82, 51
1, 230640, Note_on_c, 1, 82, 0
1, 230640, Note_on_c, 1, 86, 52
1, 230760, Note_on_c, 1, 86, 0
1, 230760, Note_on_c, 1, 82, 52
1, 230880, Note_on_c, 1, 82, 0
1, 230880, Note_on_c, 1, 79, 53
1, 230880, Note_on_c, 4, 65, 53
1, 230880, Note_on_c, 5, 59, 53
1, 231360, Note_on_c, 1, 79, 0
1, 231360, Note_on_c, 1, 81, 56
1, 231360, Note_on_c, 5, 59, 0
1, 231360, Note_on_c, 5, 60, 56
1, 231787, Note_on_c, 1, 81, 0
1, 231787, Note_on_c, 4, 65, 0
1, 231787, Note_on_c, 5, 60, 0
1, 231840, Note_on_c, 1, 84, 59
1, 231840, Note_on_c, 4, 65, 59
1, 231840, Note_on_c, 5, 62, 59
1, 231960, Note_on_c, 1, 84, 0
1, 231960, Note_on_c, 1, 83, 59
1, 232080, Note_on_c, 1, 83, 0
1, 232080, Note_on_c, 1, 86, 58
1, 232200, Note_on_c, 1, 86, 0
1, 232200, Note_on_c, 1, 84, 57
1, 232320, Note_on_c, 1, 84, 0
1, 232320, Note_on_c, 1, 82, 55
1, 232800, Note_on_c, 1, 82, 0
1, 232800, Note_on_c, 1, 81, 51
1, 232800, Note_on_c, 4, 65, 0
1, 232800, Note_on_c, 5, 62, 0
1, 232800, Note_on_c, 5, 60, 51
1, 233220, Note_on_c, 1, 81, 0
1, 233227, Note_on_c, 5, 60, 0
1, 233280, Note_on_c, 1, 81, 51
1, 233280, Note_on_c, 4, 62, 51
1, 233280, Note_on_c, 5, 58, 51
1, 233640, Note_on_c, 1, 81, 0
1, 233640, Note_on_c, 1, 79, 55
1, 233736, Note_on_c, 1, 79, 0
1, 233760, Note_on_c, 1, 86, 56
1, 233760, Note_on_c, 4, 62, 0
1, 233760, Note_on_c, 4, 67, 56
1, 234240, Note_on_c, 5, 58, 0
1, 234240, Note_on_c, 5, 59, 60
1, 234480, Note_on_c, 1, 86, 0
1, 234480, Note_on_c, 1, 77, 62
1, 234672, Note_on_c, 1, 77, 0
1, 234720, Note_on_c, 1, 76, 66
1, 234720, Note_on_c, 5, 59, 0
1, 234720, Note_on_c, 5, 60, 66
1, 234840, Note_on_c, 3, 84, 66
1, 234936, Note_on_c, 3, 84, 0
1, 234960, Note_on_c, 1, 76, 0
1, 234960, Note_on_c, 3, 72, 66
1, 235080, Note_on_c, 3, 84, 66
1, 235140, Note_on_c, 3, 72, 0
1, 235140, Note_on_c, 5, 60, 0
1, 235147, Note_on_c, 4, 67, 0
1, 235176, Note_on_c, 3, 84, 0
1, 235200, Note_on_c, 3, 72, 66
1, 235320, Note_on_c, 3, 84, 66
1, 235380, Note_on_c, 3, 72, 0
1, 235416, Note_on_c, 3, 84, 0
1, 235440, Note_on_c, 3, 72, 66
1, 235560, Note_on_c, 3, 84, 67
1, 235620, Note_on_c, 3, 72, 0
1, 235656, Note_on_c, 3, 84, 0
1, 235680, Note_on_c, 3, 72, 67
1, 235800, Note_on_c, 3, 84, 67
1, 235860, Note_on_c, 3, 72, 0
1, 235896, Note_on_c, 3, 84, 0
1, 235920, Note_on_c, 3, 72, 67
1, 236040, Note_on_c, 3, 84, 67
1, 236100, Note_on_c, 3, 72, 0
1, 236136, Note_on_c, 3, 84, 0
1, 236160, Note_on_c, 3, 72, 67
1, 236160, Note_on_c, 5, 53, 65
1, 236160, Note_on_c, 5, 41, 65
1, 236280, Note_on_c, 3, 84, 68
1, 236340, Note_on_c, 3, 72, 0
1, 236376, Note_on_c, 3, 84, 0
1, 236400, Note_on_c, 3, 72, 68
1, 236400, Note_on_c, 5, 41, 0
1, 236400, Note_on_c, 5, 53, 0
1, 236520, Note_on_c, 3, 84, 68
1, 236580, Note_on_c, 3, 72, 0
1, 236616, Note_on_c, 3, 84, 0
1, 236640, Note_on_c, 3, 72, 68
1, 236640, Note_on_c, 5, 45, 69
1, 236640, Note_on_c, 5, 57, 69
1, 236760, Note_on_c, 3, 84, 68
1, 236820, Note_on_c, 3, 72, 0
1, 236856, Note_on_c, 3, 84, 0
1, 236880, Note_on_c, 3, 72, 68
1, 236880, Note_on_c, 5, 57, 0
1, 236880, Note_on_c, 5, 45, 0
1, 237000, Note_on_c, 3, 84, 68
1, 237060, Note_on_c, 3, 72, 0
1, 237096, Note_on_c, 3, 84, 0
1, 237120, Note_on_c, 3, 72, 69
1, 237120, Note_on_c, 5, 48, 73
1, 237120, Note_on_c, 5, 60, 73
1, 237240, Note_on_c, 3, 84, 69
1, 237300, Note_on_c, 3, 72, 0
1, 237336, Note_on_c, 3, 84, 0
1, 237360, Note_on_c, 3, 72, 69
1, 237360, Note_on_c, 5, 60, 0
1, 237360, Note_on_c, 5, 48, 0
1, 237480, Note_on_c, 3, 84, 69
1, 237540, Note_on_c, 3, 72, 0
1, 237576, Note_on_c, 3, 84, 0
1, 237600, Note_on_c, 3, 72, 69
1, 237600, Note_on_c, 5, 65, 76
1, 237600, Note_on_c, 5, 53, 76
1, 237720, Note_on_c, 3, 84, 69
1, 237780, Note_on_c, 3, 72, 0
1, 237816, Note_on_c, 3, 84, 0
1, 237840, Note_on_c, 3, 72, 69
1, 237840, Note_on_c, 5, 53, 0
1, 237840, Note_on_c, 5, 65, 0
1, 237960, Note_on_c, 3, 84, 70
1, 238020, Note_on_c, 3, 72, 0
1, 238056, Note_on_c, 3, 84, 0
1, 238080, Note_on_c, 3, 72, 70
1, 238080, Note_on_c, 5, 57, 83
1, 238080, Note_on_c, 5, 69, 83
1, 238200, Note_on_c, 3, 84, 70
1, 238260, Note_on_c, 3, 72, 0
1, 238296, Note_on_c, 3, 84, 0
1, 238320, Note_on_c, 3, 72, 70
1, 238440, Note_on_c, 3, 84, 70
1, 238500, Note_on_c, 3, 72, 0
1, 238536, Note_on_c, 3, 84, 0
1, 238560, Note_on_c, 3, 72, 70
1, 238680, Note_on_c, 3, 84, 70
1, 238740, Note_on_c, 3, 72, 0
1, 238776, Note_on_c, 3, 84, 0
1, 238800, Note_on_c, 3, 72, 71
1, 238800, Note_on_c, 5, 69, 0
1, 238800, Note_on_c, 5, 57, 0
1, 238800, Note_on_c, 5, 67, 75
1, 238920, Note_on_c, 3, 84, 71
1, 238920, Note_on_c, 5, 67, 0
1, 238920, Note_on_c, 5, 65, 74
1, 238980, Note_on_c, 3, 72, 0
1, 239016, Note_on_c, 3, 84, 0
1, 239040, Note_on_c, 3, 72, 71
1, 239040, Note_on_c, 5, 65, 0
1, 239040, Note_on_c, 5, 64, 72
1, 239160, Note_on_c, 3, 84, 71
1, 239220, Note_on_c, 3, 72, 0
1, 239256, Note_on_c, 3, 84, 0
1, 239280, Note_on_c, 3, 72, 71
1, 239280, Note_on_c, 5, 64, 0
1, 239400, Note_on_c, 3, 84, 71
1, 239460, Note_on_c, 3, 72, 0
1, 239496, Note_on_c, 3, 84, 0
1, 239520, Note_on_c, 3, 72, 71
1, 239520, Note_on_c, 5, 67, 81
1, 239640, Note_on_c, 3, 84, 72
1, 239700, Note_on_c, 3, 72, 0
1, 239736, Note_on_c, 3, 84, 0
1, 239760, Note_on_c, 3, 72, 72
1, 239760, Note_on_c, 5, 67, 0
1, 239880, Note_on_c, 3, 84, 72
1, 239940, Note_on_c, 3, 72, 0
1, 239976, Note_on_c, 3, 84, 0
1, 240000, Note_on_c, 3, 72, 72
1, 240000, Note_on_c, 5, 70, 92
1, 240120, Note_on_c, 3, 84, 72
1, 240180, Note_on_c, 3, 72, 0
1, 240216, Note_on_c, 3, 84, 0
1, 240240, Note_on_c, 3, 72, 72
1, 240360, Note_on_c, 3, 84, 73
1, 240420, Note_on_c, 3, 72, 0
1, 240456, Note_on_c, 3, 84, 0
1, 240480, Note_on_c, 3, 72, 73
1, 240600, Note_on_c, 3, 84, 73
1, 240660, Note_on_c, 3, 72, 0
1, 240696, Note_on_c, 3, 84, 0
1, 240720, Note_on_c, 3, 72, 73
1, 240720, Note_on_c, 5, 70, 0
1, 240720, Note_on_c, 5, 67, 86
1, 240840, Note_on_c, 3, 84, 73
1, 240875, Note_on_c, 5, 67, 0
1, 240900, Note_on_c, 3, 72, 0
1, 240936, Note_on_c, 3, 84, 0
1, 240960, Note_on_c, 3, 72, 73
1, 240960, Note_on_c, 5, 64, 83
1, 241080, Note_on_c, 3, 84, 73
1, 241115, Note_on_c, 5, 64, 0
1, 241140, Note_on_c, 3, 72, 0
1, 241176, Note_on_c, 3, 84, 0
1, 241200, Note_on_c, 3, 72, 74
1, 241200, Note_on_c, 5, 60, 81
1, 241320, Note_on_c, 3, 84, 74
1, 241355, Note_on_c, 5, 60, 0
1, 241380, Note_on_c, 3, 72, 0
1, 241416, Note_on_c, 3, 84, 0
1, 241440, Note_on_c, 3, 72, 74
1, 241440, Note_on_c, 5, 58, 79
1, 241560, Note_on_c, 3, 84, 74
1, 241595, Note_on_c, 5, 58, 0
1, 241620, Note_on_c, 3, 72, 0
1, 241656, Note_on_c, 3, 84, 0
1, 241680, Note_on_c, 3, 72, 74
1, 241680, Note_on_c, 5, 55, 76
1, 241800, Note_on_c, 3, 84, 74
1, 241835, Note_on_c, 5, 55, 0
1, 241860, Note_on_c, 3, 72, 0
1, 241896, Note_on_c, 3, 84, 0
1, 241920, Note_on_c, 1, 65, 74
1, 241920, Note_on_c, 4, 53, 74
1, 242040, Note_on_c, 3, 60, 75
1, 242136, Note_on_c, 3, 60, 0
1, 242160, Note_on_c, 1, 65, 0
1, 242160, Note_on_c, 3, 57, 75
1, 242256, Note_on_c, 3, 57, 0
1, 242280, Note_on_c, 3, 60, 75
1, 242280, Note_on_c, 4, 53, 0
1, 242376, Note_on_c, 3, 60, 0
1, 242400, Note_on_c, 1, 69, 77
1, 242400, Note_on_c, 4, 53, 75
1, 242520, Note_on_c, 3, 60, 75
1, 242616, Note_on_c, 3, 60, 0
1, 242640, Note_on_c, 1, 69, 0
1, 242640, Note_on_c, 3, 57, 75
1, 242736, Note_on_c, 3, 57, 0
1, 242760, Note_on_c, 3, 60, 75
1, 242760, Note_on_c, 4, 53, 0
1, 242856, Note_on_c, 3, 60, 0
1, 242880, Note_on_c, 1, 72, 80
1, 242880, Note_on_c, 4, 53, 76
1, 243000, Note_on_c, 3, 60, 76
1, 243096, Note_on_c, 3, 60, 0
1, 243120, Note_on_c, 1, 72, 0
1, 243120, Note_on_c, 3, 57, 76
1, 243216, Note_on_c, 3, 57, 0
1, 243240, Note_on_c, 3, 60, 76
1, 243240, Note_on_c, 4, 53, 0
1, 243336, Note_on_c, 3, 60, 0
1, 243360, Note_on_c, 1, 77, 83
1, 243360, Note_on_c, 4, 53, 76
1, 243480, Note_on_c, 3, 60, 76
1, 243576, Note_on_c, 3, 60, 0
1, 243600, Note_on_c, 1, 77, 0
1, 243600, Note_on_c, 3, 57, 76
1, 243696, Note_on_c, 3, 57, 0
1, 243720, Note_on_c, 3, 60, 77
1, 243720, Note_on_c, 4, 53, 0
1, 243816, Note_on_c, 3, 60, 0
1, 243840, Note_on_c, 1, 81, 88
1, 243840, Note_on_c, 4, 53, 77
1, 243960, Note_on_c, 3, 60, 77
1, 244056, Note_on_c, 3, 60, 0
1, 244080, Note_on_c, 3, 57, 77
1, 244176, Note_on_c, 3, 57, 0
1, 244200, Note_on_c, 3, 60, 77
1, 244200, Note_on_c, 4, 53, 0
1, 244296, Note_on_c, 3, 60, 0
1, 244320, Note_on_c, 4, 53, 77
1, 244440, Note_on_c, 3, 60, 77
1, 244536, Note_on_c, 3, 60, 0
1, 244560, Note_on_c, 1, 81, 0
1, 244560, Note_on_c, 1, 79, 82
1, 244560, Note_on_c, 3, 57, 78
1, 244656, Note_on_c, 3, 57, 0
1, 244680, Note_on_c, 1, 79, 0
1, 244680, Note_on_c, 1, 77, 81
1, 244680, Note_on_c, 3, 60, 78
1, 244680, Note_on_c, 4, 53, 0
1, 244776, Note_on_c, 3, 60, 0
1, 244800, Note_on_c, 1, 77, 0
1, 244800, Note_on_c, 1, 76, 80
1, 244800, Note_on_c, 4, 55, 78
1, 244920, Note_on_c, 3, 60, 78
1, 245016, Note_on_c, 3, 60, 0
1, 245040, Note_on_c, 1, 76, 0
1, 245040, Note_on_c, 3, 58, 78
1, 245136, Note_on_c, 3, 58, 0
1, 245160, Note_on_c, 3, 60, 78
1, 245160, Note_on_c, 4, 55, 0
1, 245256, Note_on_c, 3, 60, 0
1, 245280, Note_on_c, 1, 79, 88
1, 245280, Note_on_c, 4, 55, 79
1, 245400, Note_on_c, 3, 60, 79
1, 245496, Note_on_c, 3, 60, 0
1, 245520, Note_on_c, 1, 79, 0
1, 245520, Note_on_c, 3, 58, 79
1, 245616, Note_on_c, 3, 58, 0
1, 245640, Note_on_c, 3, 60, 79
1, 245640, Note_on_c, 4, 55, 0
1, 245736, Note_on_c, 3, 60, 0
1, 245760, Note_on_c, 1, 82, 99
1, 245760, Note_on_c, 4, 55, 79
1, 245880, Note_on_c, 3, 60, 79
1, 245976, Note_on_c, 3, 60, 0
1, 246000, Note_on_c, 3, 58, 79
1, 246096, Note_on_c, 3, 58, 0
1, 246120, Note_on_c, 3, 60, 80
1, 246120, Note_on_c, 4, 55, 0
1, 246216, Note_on_c, 3, 60, 0
1, 246240, Note_on_c, 4, 52, 80
1, 246360, Note_on_c, 3, 60, 80
1, 246456, Note_on_c, 3, 60, 0
1, 246480, Note_on_c, 1, 82, 0
1, 246480, Note_on_c, 1, 79, 92
1, 246480, Note_on_c, 3, 55, 80
1, 246576, Note_on_c, 3, 55, 0
1, 246600, Note_on_c, 3, 60, 80
1, 246600, Note_on_c, 4, 52, 0
1, 246635, Note_on_c, 1, 79, 0
1, 246696, Note_on_c, 3, 60, 0
1, 246720, Note_on_c, 1, 76, 90
1, 246720, Note_on_c, 4, 52, 80
1, 246840, Note_on_c, 3, 60, 80
1, 246875, Note_on_c, 1, 76, 0
1, 246936, Note_on_c, 3, 60, 0
1, 246960, Note_on_c, 1, 72, 87
1, 246960, Note_on_c, 3, 55, 81
1, 247056, Note_on_c, 3, 55, 0
1, 247080, Note_on_c, 3, 60, 81
1, 247080, Note_on_c, 4, 52, 0
1, 247115, Note_on_c, 1, 72, 0
1, 247176, Note_on_c, 3, 60, 0
1, 247200, Note_on_c, 1, 70, 85
1, 247200, Note_on_c, 4, 52, 81
1, 247320, Note_on_c, 3, 60, 81
1, 247355, Note_on_c, 1, 70, 0
1, 247416, Note_on_c, 3, 60, 0
1, 247440, Note_on_c, 1, 67, 82
1, 247440, Note_on_c, 3, 55, 81
1, 247536, Note_on_c, 3, 55, 0
1, 247560, Note_on_c, 3, 60, 81
1, 247560, Note_on_c, 4, 52, 0
1, 247595, Note_on_c, 1, 67, 0
1, 247656, Note_on_c, 3, 60, 0
1, 247680, Note_on_c, 1, 65, 80
1, 247680, Note_on_c, 5, 53, 81
1, 247920, Note_on_c, 1, 65, 0
1, 248107, Note_on_c, 5, 53, 0
1, 248160, Note_on_c, 1, 84, 48
1, 248160, Note_on_c, 2, 81, 48
1, 248640, Note_on_c, 1, 84, 0
1, 248640, Note_on_c, 1, 82, 52
1, 248640, Note_on_c, 2, 81, 0
1, 248640, Note_on_c, 2, 79, 52
1, 249067, Note_on_c, 1, 82, 0
1, 249067, Note_on_c, 2, 79, 0
1, 249120, Note_on_c, 1, 81, 55
1, 249120, Note_on_c, 2, 78, 55
1, 249120, Note_on_c, 4, 63, 55
1, 249120, Note_on_c, 5, 60, 55
1, 249600, Note_on_c, 1, 81, 0
1, 249600, Note_on_c, 1, 82, 47
1, 249600, Note_on_c, 2, 78, 0
1, 249600, Note_on_c, 2, 79, 47
1, 249600, Note_on_c, 4, 63, 0
1, 249600, Note_on_c, 4, 62, 47
1, 249600, Note_on_c, 5, 60, 0
1, 249600, Note_on_c, 5, 58, 47
1, 249792, Note_on_c, 1, 82, 0
1, 249792, Note_on_c, 2, 79, 0
1, 249792, Note_on_c, 4, 62, 0
1, 249792, Note_on_c, 5, 58, 0
1, 249840, Note_on_c, 1, 82, 48
1, 249840, Note_on_c, 2, 79, 48
1, 250080, Note_on_c, 1, 82, 0
1, 250080, Note_on_c, 1, 86, 50
1, 250080, Note_on_c, 2, 79, 0
1, 250080, Note_on_c, 2, 82, 50
1, 250320, Note_on_c, 1, 86, 0
1, 250320, Note_on_c, 1, 82, 51
1, 250320, Note_on_c, 2, 82, 0
1, 250320, Note_on_c, 2, 79, 51
1, 250512, Note_on_c, 1, 82, 0
1, 250512, Note_on_c, 2, 79, 0
1, 250560, Note_on_c, 1, 79, 52
1, 250560, Note_on_c, 2, 76, 52
1, 250560, Note_on_c, 4, 61, 52
1, 250560, Note_on_c, 5, 58, 52
1, 251040, Note_on_c, 1, 79, 0
1, 251040, Note_on_c, 1, 81, 45
1, 251040, Note_on_c, 2, 76, 0
1, 251040, Note_on_c, 2, 77, 45
1, 251040, Note_on_c, 4, 61, 0
1, 251040, Note_on_c, 4, 60, 45
1, 251040, Note_on_c, 5, 58, 0
1, 251040, Note_on_c, 5, 57, 45
1, 251232, Note_on_c, 1, 81, 0
1, 251232, Note_on_c, 2, 77, 0
1, 251232, Note_on_c, 4, 60, 0
1, 251232, Note_on_c, 5, 57, 0
1, 251280, Note_on_c, 1, 84, 46
1, 251472, Note_on_c, 1, 84, 0
1, 251520, Note_on_c, 1, 86, 46
1, 251640, Note_on_c, 1, 86, 0
1, 251640, Note_on_c, 1, 84, 47
1, 251760, Note_on_c, 1, 84, 0
1, 251760, Note_on_c, 1, 82, 47
1, 251880, Note_on_c, 1, 82, 0
1, 251880, Note_on_c, 1, 81, 48
1, 252000, Note_on_c, 1, 81, 0
1, 252000, Note_on_c, 1, 78, 48
1, 252000, Note_on_c, 4, 62, 48
1, 252000, Note_on_c, 5, 59, 48
1, 252120, Note_on_c, 1, 78, 0
1, 252120, Note_on_c, 1, 79, 49
1, 252240, Note_on_c, 1, 79, 0
1, 252240, Note_on_c, 4, 62, 0
1, 252240, Note_on_c, 5, 59, 0
1, 252480, Note_on_c, 1, 78, 50
1, 252480, Note_on_c, 4, 62, 50
1, 252480, Note_on_c, 5, 59, 50
1, 252600, Note_on_c, 1, 78, 0
1, 252600, Note_on_c, 1, 79, 50
1, 252720, Note_on_c, 1, 79, 0
1, 252720, Note_on_c, 4, 62, 0
1, 252720, Note_on_c, 5, 59, 0
1, 252960, Note_on_c, 1, 78, 51
1, 252960, Note_on_c, 4, 62, 51
1, 252960, Note_on_c, 5, 59, 51
1, 253080, Note_on_c, 1, 78, 0
1, 253080, Note_on_c, 1, 79, 52
1, 253200, Note_on_c, 1, 79, 0
1, 253200, Note_on_c, 4, 62, 0
1, 253200, Note_on_c, 5, 59, 0
1, 253440, Note_on_c, 1, 86, 53
1, 253440, Note_on_c, 4, 67, 53
1, 253440, Note_on_c, 5, 58, 53
1, 253600, Note_on_c, 1, 86, 0
1, 253600, Note_on_c, 1, 82, 52
1, 253760, Note_on_c, 1, 82, 0
1, 253760, Note_on_c, 1, 79, 50
1, 253882, Note_on_c, 5, 58, 0
1, 253890, Note_on_c, 1, 79, 0
1, 253890, Note_on_c, 4, 67, 0
1, 253920, Note_on_c, 1, 77, 49
1, 253920, Note_on_c, 4, 69, 49
1, 253920, Note_on_c, 5, 60, 49
1, 254400, Note_on_c, 1, 77, 0
1, 254400, Note_on_c, 1, 76, 45
1, 254400, Note_on_c, 4, 69, 0
1, 254400, Note_on_c, 4, 70, 45
1, 254480, Note_on_c, 1, 76, 0
1, 254480, Note_on_c, 1, 77, 44
1, 254560, Note_on_c, 1, 77, 0
1, 254560, Note_on_c, 1, 76, 43
1, 254640, Note_on_c, 1, 76, 0
1, 254640, Note_on_c, 1, 74, 43
1, 254760, Note_on_c, 1, 74, 0
1, 254760, Note_on_c, 1, 76, 42
1, 254880, Note_on_c, 1, 76, 0
1, 254880, Note_on_c, 1, 77, 41
1, 254880, Note_on_c, 4, 70, 0
1, 254880, Note_on_c, 4, 69, 41
1, 254880, Note_on_c, 5, 60, 0
1, 254880, Note_on_c, 5, 65, 41
1, 255120, Note_on_c, 4, 69, 0
1, 255120, Note_on_c, 5, 65, 0
1, 255307, Note_on_c, 1, 77, 0
1, 255360, Note_on_c, 4, 60, 43
1, 255360, Note_on_c, 5, 57, 43
1, 255840, Note_on_c, 4, 60, 0
1, 255840, Note_on_c, 4, 58, 46
1, 255840, Note_on_c, 5, 57, 0
1, 255840, Note_on_c, 5, 55, 46
1, 256260, Note_on_c, 4, 58, 0
1, 256260, Note_on_c, 5, 55, 0
1, 256320, Note_on_c, 1, 75, 49
1, 256320, Note_on_c, 2, 72, 49
1, 256320, Note_on_c, 4, 57, 49
1, 256320, Note_on_c, 5, 54, 49
1, 256800, Note_on_c, 1, 75, 0
1, 256800, Note_on_c, 1, 74, 41
1, 256800, Note_on_c, 2, 72, 0
1, 256800, Note_on_c, 2, 70, 41
1, 256800, Note_on_c, 4, 57, 0
1, 256800, Note_on_c, 4, 58, 41
1, 256800, Note_on_c, 5, 54, 0
1, 256800, Note_on_c, 5, 55, 41
1, 257040, Note_on_c, 1, 74, 0
1, 257040, Note_on_c, 2, 70, 0
1, 257040, Note_on_c, 4, 58, 0
1, 257040, Note_on_c, 4, 58, 43
1, 257040, Note_on_c, 5, 55, 0
1, 257040, Note_on_c, 5, 55, 43
1, 257280, Note_on_c, 4, 58, 0
1, 257280, Note_on_c, 4, 62, 45
1, 257280, Note_on_c, 5, 55, 0
1, 257280, Note_on_c, 5, 58, 45
1, 257520, Note_on_c, 4, 62, 0
1, 257520, Note_on_c, 4, 58, 47
1, 257520, Note_on_c, 5, 58, 0
1, 257520, Note_on_c, 5, 55, 47
1, 257712, Note_on_c, 4, 58, 0
1, 257712, Note_on_c, 5, 55, 0
1, 257760, Note_on_c, 1, 73, 48
1, 257760, Note_on_c, 2, 70, 48
1, 257760, Note_on_c, 4, 55, 48
1, 257760, Note_on_c, 5, 52, 48
1, 258240, Note_on_c, 1, 73, 0
1, 258240, Note_on_c, 1, 72, 37
1, 258240, Note_on_c, 2, 70, 0
1, 258240, Note_on_c, 2, 69, 37
1, 258240, Note_on_c, 4, 55, 0
1, 258240, Note_on_c, 4, 57, 37
1, 258240, Note_on_c, 5, 52, 0
1, 258240, Note_on_c, 5, 53, 37
1, 258432, Note_on_c, 1, 72, 0
1, 258432, Note_on_c, 2, 69, 0
1, 258432, Note_on_c, 4, 57, 0
1, 258432, Note_on_c, 5, 53, 0
1, 258480, Note_on_c, 1, 72, 38
1, 258600, Note_on_c, 1, 72, 0
1, 258600, Note_on_c, 1, 71, 39
1, 258720, Note_on_c, 1, 71, 0
1, 258720, Note_on_c, 1, 74, 39
1, 258840, Note_on_c, 1, 74, 0
1, 258840, Note_on_c, 1, 72, 40
1, 258960, Note_on_c, 1, 72, 0
1, 258960, Note_on_c, 1, 70, 41
1, 259080, Note_on_c, 1, 70, 0
1, 259080, Note_on_c, 1, 69, 41
1, 259200, Note_on_c, 1, 69, 0
1, 259200, Note_on_c, 1, 69, 42
1, 259200, Note_on_c, 5, 46, 42
1, 259320, Note_on_c, 1, 69, 0
1, 259320, Note_on_c, 1, 67, 43
1, 259440, Note_on_c, 1, 67, 0
1, 259440, Note_on_c, 5, 46, 0
1, 259680, Note_on_c, 1, 66, 44
1, 259680, Note_on_c, 4, 62, 44
1, 259680, Note_on_c, 5, 58, 44
1, 259800, Note_on_c, 1, 66, 0
1, 259800, Note_on_c, 1, 67, 45
1, 259920, Note_on_c, 1, 67, 0
1, 259920, Note_on_c, 4, 62, 0
1, 259920, Note_on_c, 5, 58, 0
1, 260160, Note_on_c, 1, 66, 47
1, 260160, Note_on_c, 4, 62, 47
1, 260160, Note_on_c, 5, 58, 47
1, 260280, Note_on_c, 1, 66, 0
1, 260280, Note_on_c, 1, 67, 47
1, 260400, Note_on_c, 1, 67, 0
1, 260400, Note_on_c, 4, 62, 0
1, 260400, Note_on_c, 5, 58, 0
1, 260640, Note_on_c, 1, 73, 49
1, 260640, Note_on_c, 4, 58, 49
1, 260640, Note_on_c, 5, 46, 49
1, 260760, Note_on_c, 1, 73, 0
1, 260760, Note_on_c, 1, 74, 48
1, 260880, Note_on_c, 1, 74, 0
1, 260880, Note_on_c, 1, 70, 47
1, 261000, Note_on_c, 1, 70, 0
1, 261000, Note_on_c, 1, 67, 46
1, 261097, Note_on_c, 1, 67, 0
1, 261120, Note_on_c, 1, 65, 45
1, 261120, Note_on_c, 4, 58, 0
1, 261120, Note_on_c, 4, 57, 45
1, 261120, Note_on_c, 5, 46, 0
1, 261120, Note_on_c, 5, 48, 45
1, 261600, Note_on_c, 1, 65, 0
1, 261600, Note_on_c, 1, 64, 41
1, 261600, Note_on_c, 4, 57, 0
1, 261600, Note_on_c, 4, 55, 41
1, 261680, Note_on_c, 1, 64, 0
1, 261680, Note_on_c, 1, 65, 40
1, 261760, Note_on_c, 1, 65, 0
1, 261760, Note_on_c, 1, 64, 39
1, 261840, Note_on_c, 1, 64, 0
1, 261840, Note_on_c, 1, 62, 39
1, 261960, Note_on_c, 1, 62, 0
1, 261960, Note_on_c, 1, 64, 38
1, 262020, Note_on_c, 4, 55, 0
1, 262027, Note_on_c, 5, 48, 0
1, 262080, Note_on_c, 1, 64, 0
1, 262080, Note_on_c, 1, 65, 36
1, 262080, Note_on_c, 5, 41, 36
1, 262200, Note_on_c, 5, 41, 0
1, 262200, Note_on_c, 5, 53, 54
1, 262320, Note_on_c, 5, 53, 0
1, 262320, Note_on_c, 5, 52, 54
1, 262440, Note_on_c, 5, 52, 0
1, 262440, Note_on_c, 5, 53, 54
1, 262500, Note_on_c, 1, 65, 0
1, 262560, Note_on_c, 5, 53, 0
1, 262560, Note_on_c, 5, 41, 55
1, 262800, Note_on_c, 1, 67, 55
1, 262800, Note_on_c, 2, 64, 55
1, 262955, Note_on_c, 1, 67, 0
1, 262955, Note_on_c, 2, 64, 0
1, 262987, Note_on_c, 5, 41, 0
1, 263040, Note_on_c, 1, 69, 56
1, 263040, Note_on_c, 2, 65, 56
1, 263195, Note_on_c, 1, 69, 0
1, 263195, Note_on_c, 2, 65, 0
1, 263280, Note_on_c, 1, 70, 57
1, 263280, Note_on_c, 2, 67, 57
1, 263435, Note_on_c, 1, 70, 0
1, 263435, Note_on_c, 2, 67, 0
1, 263520, Note_on_c, 1, 72, 57
1, 263520, Note_on_c, 2, 69, 57
1, 263520, Note_on_c, 5, 41, 57
1, 263640, Note_on_c, 5, 41, 0
1, 263640, Note_on_c, 5, 53, 58
1, 263760, Note_on_c, 5, 53, 0
1, 263760, Note_on_c, 5, 52, 58
1, 263880, Note_on_c, 5, 52, 0
1, 263880, Note_on_c, 5, 53, 58
1, 263947, Note_on_c, 1, 72, 0
1, 263947, Note_on_c, 2, 69, 0
1, 264000, Note_on_c, 5, 53, 0
1, 264000, Note_on_c, 5, 41, 59
1, 264240, Note_on_c, 1, 74, 59
1, 264240, Note_on_c, 2, 70, 59
1, 264395, Note_on_c, 1, 74, 0
1, 264395, Note_on_c, 2, 70, 0
1, 264420, Note_on_c, 5, 41, 0
1, 264480, Note_on_c, 1, 75, 60
1, 264480, Note_on_c, 2, 72, 60
1, 264635, Note_on_c, 1, 75, 0
1, 264635, Note_on_c, 2, 72, 0
1, 264720, Note_on_c, 1, 69, 61
1, 264720, Note_on_c, 2, 63, 61
1, 264875, Note_on_c, 1, 69, 0
1, 264875, Note_on_c, 2, 63, 0
1, 264960, Note_on_c, 1, 70, 61
1, 264960, Note_on_c, 2, 62, 61
1, 264960, Note_on_c, 5, 41, 61
1, 265080, Note_on_c, 5, 41, 0
1, 265080, Note_on_c, 5, 53, 62
1, 265200, Note_on_c, 5, 53, 0
1, 265200, Note_on_c, 5, 52, 62
1, 265320, Note_on_c, 5, 52, 0
1, 265320, Note_on_c, 5, 53, 62
1, 265380, Note_on_c, 2, 62, 0
1, 265387, Note_on_c, 1, 70, 0
1, 265440, Note_on_c, 5, 53, 0
1, 265440, Note_on_c, 5, 41, 63
1, 265680, Note_on_c, 1, 69, 63
1, 265680, Note_on_c, 2, 65, 63
1, 265835, Note_on_c, 1, 69, 0
1, 265835, Note_on_c, 2, 65, 0
1, 265852, Note_on_c, 5, 41, 0
1, 265920, Note_on_c, 1, 70, 64
1, 265920, Note_on_c, 2, 67, 64
1, 266075, Note_on_c, 1, 70, 0
1, 266075, Note_on_c, 2, 67, 0
1, 266160, Note_on_c, 1, 72, 65
1, 266160, Note_on_c, 2, 69, 65
1, 266315, Note_on_c, 1, 72, 0
1, 266315, Note_on_c, 2, 69, 0
1, 266400, Note_on_c, 1, 74, 65
1, 266400, Note_on_c, 2, 70, 65
1, 266400, Note_on_c, 5, 41, 65
1, 266520, Note_on_c, 5, 41, 0
1, 266520, Note_on_c, 5, 53, 66
1, 266640, Note_on_c, 5, 53, 0
1, 266640, Note_on_c, 5, 52, 66
1, 266760, Note_on_c, 5, 52, 0
1, 266760, Note_on_c, 5, 53, 66
1, 266820, Note_on_c, 1, 74, 0
1, 266820, Note_on_c, 2, 70, 0
1, 266880, Note_on_c, 5, 53, 0
1, 266880, Note_on_c, 5, 41, 67
1, 267120, Note_on_c, 1, 76, 67
1, 267120, Note_on_c, 2, 72, 67
1, 267275, Note_on_c, 1, 76, 0
1, 267275, Note_on_c, 2, 72, 0
1, 267300, Note_on_c, 5, 41, 0
1, 267360, Note_on_c, 1, 77, 68
1, 267360, Note_on_c, 2, 74, 68
1, 267515, Note_on_c, 1, 77, 0
1, 267515, Note_on_c, 2, 74, 0
1, 267600, Note_on_c, 1, 74, 69
1, 267600, Note_on_c, 2, 70, 69
1, 267755, Note_on_c, 1, 74, 0
1, 267755, Note_on_c, 2, 70, 0
1, 267840, Note_on_c, 1, 72, 69
1, 267840, Note_on_c, 2, 69, 69
1, 267840, Note_on_c, 5, 53, 69
1, 267840, Note_on_c, 5, 41, 69
1, 267960, Note_on_c, 1, 72, 0
1, 267960, Note_on_c, 1, 65, 70
1, 267960, Note_on_c, 2, 69, 0
1, 268080, Note_on_c, 1, 65, 0
1, 268080, Note_on_c, 1, 67, 70
1, 268200, Note_on_c, 1, 67, 0
1, 268200, Note_on_c, 1, 69, 70
1, 268260, Note_on_c, 5, 41, 0
1, 268260, Note_on_c, 5, 53, 0
1, 268320, Note_on_c, 1, 69, 0
1, 268320, Note_on_c, 1, 70, 71
1, 268440, Note_on_c, 1, 70, 0
1, 268440, Note_on_c, 1, 72, 71
1, 268560, Note_on_c, 1, 72, 0
1, 268560, Note_on_c, 1, 74, 71
1, 268680, Note_on_c, 1, 74, 0
1, 268680, Note_on_c, 1, 76, 72
1, 268800, Note_on_c, 1, 76, 0
1, 268800, Note_on_c, 1, 77, 72
1, 268920, Note_on_c, 1, 77, 0
1, 268920, Note_on_c, 1, 79, 72
1, 269040, Note_on_c, 1, 79, 0
1, 269040, Note_on_c, 1, 81, 73
1, 269160, Note_on_c, 1, 81, 0
1, 269160, Note_on_c, 1, 82, 73
1, 269280, Note_on_c, 1, 82, 0
1, 269280, Note_on_c, 1, 84, 73
1, 269400, Note_on_c, 1, 84, 0
1, 269400, Note_on_c, 1, 86, 74
1, 269520, Note_on_c, 1, 86, 0
1, 269520, Note_on_c, 1, 82, 74
1, 269640, Note_on_c, 1, 82, 0
1, 269640, Note_on_c, 1, 84, 74
1, 269760, Note_on_c, 1, 84, 0
1, 269760, Note_on_c, 1, 81, 75
1, 269880, Note_on_c, 1, 81, 0
1, 269880, Note_on_c, 1, 82, 75
1, 270000, Note_on_c, 1, 82, 0
1, 270000, Note_on_c, 1, 79, 75
1, 270120, Note_on_c, 1, 79, 0
1, 270120, Note_on_c, 1, 81, 76
1, 270240, Note_on_c, 1, 81, 0
1, 270240, Note_on_c, 1, 77, 76
1, 270360, Note_on_c, 1, 77, 0
1, 270360, Note_on_c, 1, 79, 76
1, 270480, Note_on_c, 1, 79, 0
1, 270480, Note_on_c, 1, 75, 77
1, 270600, Note_on_c, 1, 75, 0
1, 270600, Note_on_c, 1, 77, 77
1, 270720, Note_on_c, 1, 77, 0
1, 270720, Note_on_c, 1, 74, 77
1, 270840, Note_on_c, 5, 46, 78
1, 270960, Note_on_c, 5, 46, 0
1, 270960, Note_on_c, 5, 48, 78
1, 271080, Note_on_c, 5, 48, 0
1, 271080, Note_on_c, 5, 50, 78
1, 271200, Note_on_c, 1, 74, 0
1, 271200, Note_on_c, 1, 86, 79
1, 271200, Note_on_c, 2, 82, 79
1, 271200, Note_on_c, 5, 50, 0
1, 271200, Note_on_c, 5, 51, 79
1, 271320, Note_on_c, 5, 51, 0
1, 271320, Note_on_c, 5, 53, 79
1, 271440, Note_on_c, 1, 86, 0
1, 271440, Note_on_c, 2, 82, 0
1, 271440, Note_on_c, 5, 53, 0
1, 271440, Note_on_c, 5, 55, 79
1, 271560, Note_on_c, 5, 55, 0
1, 271560, Note_on_c, 5, 57, 80
1, 271680, Note_on_c, 5, 57, 0
1, 271680, Note_on_c, 5, 58, 80
1, 271800, Note_on_c, 5, 58, 0
1, 271800, Note_on_c, 5, 60, 80
1, 271920, Note_on_c, 1, 86, 81
1, 271920, Note_on_c, 2, 82, 81
1, 271920, Note_on_c, 5, 60, 0
1, 271920, Note_on_c, 5, 62, 81
1, 272040, Note_on_c, 5, 62, 0
1, 272040, Note_on_c, 5, 64, 81
1, 272112, Note_on_c, 1, 86, 0
1, 272112, Note_on_c, 2, 82, 0
1, 272160, Note_on_c, 1, 84, 81
1, 272160, Note_on_c, 2, 81, 81
1, 272160, Note_on_c, 5, 64, 0
1, 272160, Note_on_c, 5, 65, 81
1, 272400, Note_on_c, 1, 84, 0
1, 272400, Note_on_c, 1, 86, 79
1, 272400, Note_on_c, 2, 81, 0
1, 272400, Note_on_c, 2, 79, 79
1, 272400, Note_on_c, 5, 65, 0
1, 272400, Note_on_c, 5, 58, 79
1, 272520, Note_on_c, 1, 86, 0
1, 272520, Note_on_c, 1, 82, 78
1, 272520, Note_on_c, 2, 79, 0
1, 272617, Note_on_c, 1, 82, 0
1, 272640, Note_on_c, 1, 81, 78
1, 272640, Note_on_c, 2, 77, 78
1, 272640, Note_on_c, 5, 58, 0
1, 272640, Note_on_c, 5, 60, 78
1, 273067, Note_on_c, 5, 60, 0
1, 273120, Note_on_c, 1, 81, 0
1, 273120, Note_on_c, 1, 79, 74
1, 273120, Note_on_c, 2, 77, 0
1, 273120, Note_on_c, 2, 76, 74
1, 273120, Note_on_c, 5, 48, 74
1, 273200, Note_on_c, 1, 79, 0
1, 273200, Note_on_c, 1, 81, 73
1, 273280, Note_on_c, 1, 81, 0
1, 273280, Note_on_c, 1, 79, 73
1, 273360, Note_on_c, 1, 79, 0
1, 273360, Note_on_c, 1, 77, 72
1, 273480, Note_on_c, 1, 77, 0
1, 273480, Note_on_c, 1, 79, 72
1, 273540, Note_on_c, 5, 48, 0
1, 273600, Note_on_c, 1, 79, 0
1, 273600, Note_on_c, 1, 77, 72
1, 273600, Note_on_c, 2, 76, 0
1, 273600, Note_on_c, 5, 53, 72
1, 273720, Note_on_c, 1, 77, 0
1, 273720, Note_on_c, 1, 65, 72
1, 273840, Note_on_c, 1, 65, 0
1, 273840, Note_on_c, 1, 67, 73
1, 273960, Note_on_c, 1, 67, 0
1, 273960, Note_on_c, 1, 69, 73
1, 274035, Note_on_c, 5, 53, 0
1, 274080, Note_on_c, 1, 69, 0
1, 274080, Note_on_c, 1, 70, 74
1, 274200, Note_on_c, 1, 70, 0
1, 274200, Note_on_c, 1, 72, 74
1, 274320, Note_on_c, 1, 72, 0
1, 274320, Note_on_c, 1, 74, 75
1, 274440, Note_on_c, 1, 74, 0
1, 274440, Note_on_c, 1, 76, 75
1, 274560, Note_on_c, 1, 76, 0
1, 274560, Note_on_c, 1, 77, 76
1, 274680, Note_on_c, 1, 77, 0
1, 274680, Note_on_c, 1, 79, 76
1, 274800, Note_on_c, 1, 79, 0
1, 274800, Note_on_c, 1, 81, 77
1, 274920, Note_on_c, 1, 81, 0
1, 274920, Note_on_c, 1, 82, 77
1, 275040, Note_on_c, 1, 82, 0
1, 275040, Note_on_c, 1, 84, 78
1, 275160, Note_on_c, 1, 84, 0
1, 275160, Note_on_c, 1, 86, 78
1, 275280, Note_on_c, 1, 86, 0
1, 275280, Note_on_c, 1, 82, 79
1, 275400, Note_on_c, 1, 82, 0
1, 275400, Note_on_c, 1, 84, 79
1, 275520, Note_on_c, 1, 84, 0
1, 275520, Note_on_c, 1, 81, 80
1, 275640, Note_on_c, 1, 81, 0
1, 275640, Note_on_c, 1, 82, 80
1, 275760, Note_on_c, 1, 82, 0
1, 275760, Note_on_c, 1, 79, 80
1, 275880, Note_on_c, 1, 79, 0
1, 275880, Note_on_c, 1, 81, 81
1, 276000, Note_on_c, 1, 81, 0
1, 276000, Note_on_c, 1, 77, 81
1, 276120, Note_on_c, 1, 77, 0
1, 276120, Note_on_c, 1, 79, 82
1, 276240, Note_on_c, 1, 79, 0
1, 276240, Note_on_c, 1, 75, 82
1, 276360, Note_on_c, 1, 75, 0
1, 276360, Note_on_c, 1, 77, 83
1, 276480, Note_on_c, 1, 77, 0
1, 276480, Note_on_c, 1, 74, 83
1, 276600, Note_on_c, 5, 46, 84
1, 276720, Note_on_c, 5, 46, 0
1, 276720, Note_on_c, 5, 48, 84
1, 276840, Note_on_c, 5, 48, 0
1, 276840, Note_on_c, 5, 50, 85
1, 276960, Note_on_c, 1, 74, 0
1, 276960, Note_on_c, 1, 86, 85
1, 276960, Note_on_c, 2, 82, 85
1, 276960, Note_on_c, 5, 50, 0
1, 276960, Note_on_c, 5, 51, 85
1, 277080, Note_on_c, 5, 51, 0
1, 277080, Note_on_c, 5, 53, 86
1, 277200, Note_on_c, 1, 86, 0
1, 277200, Note_on_c, 2, 82, 0
1, 277200, Note_on_c, 5, 53, 0
1, 277200, Note_on_c, 5, 55, 86
1, 277320, Note_on_c, 5, 55, 0
1, 277320, Note_on_c, 5, 57, 87
1, 277440, Note_on_c, 5, 57, 0
1, 277440, Note_on_c, 5, 58, 87
1, 277560, Note_on_c, 5, 58, 0
1, 277560, Note_on_c, 5, 60, 88
1, 277680, Note_on_c, 1, 86, 88
1, 277680, Note_on_c, 2, 82, 88
1, 277680, Note_on_c, 5, 60, 0
1, 277680, Note_on_c, 5, 62, 88
1, 277800, Note_on_c, 5, 62, 0
1, 277800, Note_on_c, 5, 64, 88
1, 277872, Note_on_c, 1, 86, 0
1, 277872, Note_on_c, 2, 82, 0
1, 277920, Note_on_c, 1, 84, 89
1, 277920, Note_on_c, 2, 81, 89
1, 277920, Note_on_c, 5, 64, 0
1, 277920, Note_on_c, 5, 65, 89
1, 278112, Note_on_c, 5, 65, 0
1, 278160, Note_on_c, 1, 84, 0
1, 278160, Note_on_c, 1, 86, 88
1, 278160, Note_on_c, 2, 81, 0
1, 278160, Note_on_c, 2, 79, 88
1, 278160, Note_on_c, 5, 58, 88
1, 278280, Note_on_c, 1, 86, 0
1, 278280, Note_on_c, 1, 82, 88
1, 278280, Note_on_c, 2, 79, 0
1, 278352, Note_on_c, 5, 58, 0
1, 278376, Note_on_c, 1, 82, 0
1, 278400, Note_on_c, 1, 81, 87
1, 278400, Note_on_c, 2, 77, 87
1, 278400, Note_on_c, 5, 60, 87
1, 278820, Note_on_c, 5, 60, 0
1, 278880, Note_on_c, 1, 81, 0
1, 278880, Note_on_c, 1, 79, 85
1, 278880, Note_on_c, 2, 77, 0
1, 278880, Note_on_c, 2, 76, 85
1, 278880, Note_on_c, 5, 48, 85
1, 278960, Note_on_c, 1, 79, 0
1, 278960, Note_on_c, 1, 81, 85
1, 279040, Note_on_c, 1, 81, 0
1, 279040, Note_on_c, 1, 79, 85
1, 279120, Note_on_c, 1, 79, 0
1, 279120, Note_on_c, 1, 77, 84
1, 279240, Note_on_c, 1, 77, 0
1, 279240, Note_on_c, 1, 79, 84
1, 279307, Note_on_c, 5, 48, 0
1, 279360, Note_on_c, 1, 79, 0
1, 279360, Note_on_c, 1, 77, 84
1, 279360, Note_on_c, 2, 76, 0
1, 279360, Note_on_c, 5, 53, 84
1, 279456, Note_on_c, 1, 77, 0
1, 279480, Note_on_c, 1, 72, 85
1, 279576, Note_on_c, 1, 72, 0
1, 279600, Note_on_c, 1, 77, 85
1, 279696, Note_on_c, 1, 77, 0
1, 279720, Note_on_c, 1, 81, 86
1, 279795, Note_on_c, 5, 53, 0
1, 279816, Note_on_c, 1, 81, 0
1, 279840, Note_on_c, 1, 84, 86
1, 279936, Note_on_c, 1, 84, 0
1, 279960, Note_on_c, 1, 81, 87
1, 280056, Note_on_c, 1, 81, 0
1, 280080, Note_on_c, 1, 77, 88
1, 280176, Note_on_c, 1, 77, 0
1, 280200, Note_on_c, 1, 72, 88
1, 280296, Note_on_c, 1, 72, 0
1, 280320, Note_on_c, 1, 82, 89
1, 280320, Note_on_c, 4, 67, 89
1, 280320, Note_on_c, 5, 60, 89
1, 280416, Note_on_c, 1, 82, 0
1, 280440, Note_on_c, 1, 79, 90
1, 280512, Note_on_c, 4, 67, 0
1, 280536, Note_on_c, 1, 79, 0
1, 280560, Note_on_c, 1, 76, 90
1, 280560, Note_on_c, 4, 70, 90
1, 280656, Note_on_c, 1, 76, 0
1, 280680, Note_on_c, 1, 72, 91
1, 280740, Note_on_c, 5, 60, 0
1, 280752, Note_on_c, 4, 70, 0
1, 280776, Note_on_c, 1, 72, 0
1, 280800, Note_on_c, 1, 77, 91
1, 280800, Note_on_c, 4, 69, 91
1, 280800, Note_on_c, 5, 65, 91
1, 280896, Note_on_c, 1, 77, 0
1, 280920, Note_on_c, 1, 72, 92
1, 281016, Note_on_c, 1, 72, 0
1, 281040, Note_on_c, 1, 77, 93
1, 281136, Note_on_c, 1, 77, 0
1, 281160, Note_on_c, 1, 81, 93
1, 281220, Note_on_c, 5, 65, 0
1, 281227, Note_on_c, 4, 69, 0
1, 281256, Note_on_c, 1, 81, 0
1, 281280, Note_on_c, 1, 84, 94
1, 281376, Note_on_c, 1, 84, 0
1, 281400, Note_on_c, 1, 81, 95
1, 281496, Note_on_c, 1, 81, 0
1, 281520, Note_on_c, 1, 77, 95
1, 281616, Note_on_c, 1, 77, 0
1, 281640, Note_on_c, 1, 72, 96
1, 281736, Note_on_c, 1, 72, 0
1, 281760, Note_on_c, 1, 82, 96
1, 281760, Note_on_c, 4, 67, 96
1, 281760, Note_on_c, 5, 60, 96
1, 281856, Note_on_c, 1, 82, 0
1, 281880, Note_on_c, 1, 79, 97
1, 281952, Note_on_c, 4, 67, 0
1, 281976, Note_on_c, 1, 79, 0
1, 282000, Note_on_c, 1, 76, 98
1, 282000, Note_on_c, 4, 70, 98
1, 282096, Note_on_c, 1, 76, 0
1, 282120, Note_on_c, 1, 72, 98
1, 282187, Note_on_c, 5, 60, 0
1, 282210, Note_on_c, 4, 70, 0
1, 282216, Note_on_c, 1, 72, 0
1, 282240, Note_on_c, 1, 77, 99
1, 282240, Note_on_c, 4, 69, 99
1, 282240, Note_on_c, 5, 65, 99
1, 282600, Note_on_c, 1, 77, 0
1, 282600, Note_on_c, 4, 69, 0
1, 282600, Note_on_c, 5, 65, 0
1, 282720, Note_on_c, 1, 89, 96
1, 282720, Note_on_c, 2, 84, 96
1, 282720, Note_on_c, 2, 81, 96
1, 282720, Note_on_c, 5, 53, 96
1, 282720, Note_on_c, 5, 41, 96
1, 283080, Note_on_c, 2, 81, 0
1, 283080, Note_on_c, 5, 41, 0
1, 283087, Note_on_c, 1, 89, 0
1, 283087, Note_on_c, 2, 84, 0
1, 283087, Note_on_c, 5, 53, 0
1, 284160, Note_on_c, 1, 84, 59
1, 284160, Note_on_c, 2, 81, 59
1, 284315, Note_on_c, 1, 84, 0
1, 284315, Note_on_c, 2, 81, 0
1, 284400, Note_on_c, 1, 84, 58
1, 284400, Note_on_c, 2, 81, 58
1, 284555, Note_on_c, 1, 84, 0
1, 284555, Note_on_c, 2, 81, 0
1, 284640, Note_on_c, 1, 81, 57
1, 284640, Note_on_c, 2, 77, 57
1, 284640, Note_on_c, 4, 65, 59
1, 284640, Note_on_c, 5, 62, 59
1, 284784, Note_on_c, 4, 65, 0
1, 284784, Note_on_c, 5, 62, 0
1, 284795, Note_on_c, 1, 81, 0
1, 284795, Note_on_c, 2, 77, 0
1, 284880, Note_on_c, 4, 65, 57
1, 284880, Note_on_c, 5, 62, 57
1, 285024, Note_on_c, 4, 65, 0
1, 285024, Note_on_c, 5, 62, 0
1, 285120, Note_on_c, 1, 82, 54
1, 285120, Note_on_c, 2, 79, 54
1, 285120, Note_on_c, 4, 62, 55
1, 285120, Note_on_c, 5, 58, 55
1, 285264, Note_on_c, 4, 62, 0
1, 285264, Note_on_c, 5, 58, 0
1, 285275, Note_on_c, 1, 82, 0
1, 285275, Note_on_c, 2, 79, 0
1, 285360, Note_on_c, 1, 82, 53
1, 285360, Note_on_c, 2, 79, 53
1, 285515, Note_on_c, 1, 82, 0
1, 285515, Note_on_c, 2, 79, 0
1, 285600, Note_on_c, 1, 79, 52
1, 285600, Note_on_c, 2, 76, 52
1, 285600, Note_on_c, 4, 64, 52
1, 285600, Note_on_c, 5, 60, 52
1, 285744, Note_on_c, 4, 64, 0
1, 285744, Note_on_c, 5, 60, 0
1, 285755, Note_on_c, 1, 79, 0
1, 285755, Note_on_c, 2, 76, 0
1, 285840, Note_on_c, 4, 64, 50
1, 285840, Note_on_c, 5, 60, 50
1, 285984, Note_on_c, 4, 64, 0
1, 285984, Note_on_c, 5, 60, 0
1, 286080, Note_on_c, 1, 77, 70
1, 286080, Note_on_c, 4, 60, 48
1, 286080, Note_on_c, 5, 57, 48
1, 286200, Note_on_c, 1, 77, 0
1, 286200, Note_on_c, 1, 79, 71
1, 286224, Note_on_c, 4, 60, 0
1, 286224, Note_on_c, 5, 57, 0
1, 286320, Note_on_c, 1, 79, 0
1, 286320, Note_on_c, 1, 81, 72
1, 286440, Note_on_c, 1, 81, 0
1, 286440, Note_on_c, 1, 77, 74
1, 286560, Note_on_c, 1, 77, 0
1, 286560, Note_on_c, 1, 76, 77
1, 286560, Note_on_c, 5, 58, 77
1, 286680, Note_on_c, 1, 76, 0
1, 286680, Note_on_c, 1, 74, 76
1, 286800, Note_on_c, 1, 74, 0
1, 286800, Note_on_c, 1, 76, 74
1, 286920, Note_on_c, 1, 76, 0
1, 286920, Note_on_c, 1, 78, 73
1, 287040, Note_on_c, 1, 78, 0
1, 287040, Note_on_c, 1, 79, 71
1, 287160, Note_on_c, 1, 79, 0
1, 287160, Note_on_c, 1, 81, 70
1, 287280, Note_on_c, 1, 81, 0
1, 287280, Note_on_c, 1, 82, 69
1, 287280, Note_on_c, 5, 58, 0
1, 287280, Note_on_c, 5, 55, 69
1, 287400, Note_on_c, 1, 82, 0
1, 287400, Note_on_c, 1, 79, 67
1, 287520, Note_on_c, 1, 79, 0
1, 287520, Note_on_c, 1, 77, 66
1, 287520, Note_on_c, 5, 55, 0
1, 287520, Note_on_c, 5, 60, 66
1, 287640, Note_on_c, 1, 77, 0
1, 287640, Note_on_c, 1, 76, 65
1, 287760, Note_on_c, 1, 76, 0
1, 287760, Note_on_c, 1, 74, 63
1, 287760, Note_on_c, 5, 60, 0
1, 287880, Note_on_c, 1, 74, 0
1, 287880, Note_on_c, 1, 72, 62
1, 288000, Note_on_c, 1, 72, 0
1, 288000, Note_on_c, 1, 84, 49
1, 288000, Note_on_c, 2, 81, 49
1, 288155, Note_on_c, 1, 84, 0
1, 288155, Note_on_c, 2, 81, 0
1, 288240, Note_on_c, 1, 84, 48
1, 288240, Note_on_c, 2, 81, 48
1, 288395, Note_on_c, 1, 84, 0
1, 288395, Note_on_c, 2, 81, 0
1, 288480, Note_on_c, 1, 81, 46
1, 288480, Note_on_c, 2, 77, 46
1, 288480, Note_on_c, 4, 65, 47
1, 288480, Note_on_c, 5, 62, 47
1, 288624, Note_on_c, 4, 65, 0
1, 288624, Note_on_c, 5, 62, 0
1, 288635, Note_on_c, 1, 81, 0
1, 288635, Note_on_c, 2, 77, 0
1, 288720, Note_on_c, 4, 65, 45
1, 288720, Note_on_c, 5, 62, 45
1, 288864, Note_on_c, 4, 65, 0
1, 288864, Note_on_c, 5, 62, 0
1, 288960, Note_on_c, 1, 86, 43
1, 288960, Note_on_c, 2, 82, 43
1, 288960, Note_on_c, 4, 58, 44
1, 288960, Note_on_c, 5, 55, 44
1, 289104, Note_on_c, 4, 58, 0
1, 289104, Note_on_c, 5, 55, 0
1, 289115, Note_on_c, 1, 86, 0
1, 289115, Note_on_c, 2, 82, 0
1, 289200, Note_on_c, 1, 86, 42
1, 289200, Note_on_c, 2, 82, 42
1, 289355, Note_on_c, 1, 86, 0
1, 289355, Note_on_c, 2, 82, 0
1, 289440, Note_on_c, 1, 79, 40
1, 289440, Note_on_c, 2, 76, 40
1, 289440, Note_on_c, 4, 64, 41
1, 289440, Note_on_c, 5, 60, 41
1, 289584, Note_on_c, 4, 64, 0
1, 289584, Note_on_c, 5, 60, 0
1, 289595, Note_on_c, 1, 79, 0
1, 289595, Note_on_c, 2, 76, 0
1, 289680, Note_on_c, 4, 64, 39
1, 289680, Note_on_c, 5, 60, 39
1, 289824, Note_on_c, 4, 64, 0
1, 289824, Note_on_c, 5, 60, 0
1, 289920, Note_on_c, 1, 86, 62
1, 289920, Note_on_c, 4, 57, 37
1, 289920, Note_on_c, 5, 53, 37
1, 290040, Note_on_c, 1, 86, 0
1, 290040, Note_on_c, 1, 84, 64
1, 290064, Note_on_c, 4, 57, 0
1, 290064, Note_on_c, 5, 53, 0
1, 290160, Note_on_c, 1, 84, 0
1, 290160, Note_on_c, 1, 82, 66
1, 290280, Note_on_c, 1, 82, 0
1, 290280, Note_on_c, 1, 81, 68
1, 290400, Note_on_c, 1, 81, 0
1, 290400, Note_on_c, 1, 78, 73
1, 290400, Note_on_c, 4, 62, 73
1, 290400, Note_on_c, 5, 58, 73
1, 290520, Note_on_c, 1, 78, 0
1, 290520, Note_on_c, 1, 79, 71
1, 290640, Note_on_c, 1, 79, 0
1, 290640, Note_on_c, 1, 81, 70
1, 290760, Note_on_c, 1, 81, 0
1, 290760, Note_on_c, 1, 82, 68
1, 290880, Note_on_c, 1, 82, 0
1, 290880, Note_on_c, 1, 74, 66
1, 291000, Note_on_c, 1, 74, 0
1, 291000, Note_on_c, 1, 77, 64
1, 291120, Note_on_c, 1, 77, 0
1, 291120, Note_on_c, 1, 76, 63
1, 291120, Note_on_c, 4, 62, 0
1, 291120, Note_on_c, 4, 70, 63
1, 291120, Note_on_c, 5, 58, 0
1, 291120, Note_on_c, 5, 60, 63
1, 291240, Note_on_c, 1, 76, 0
1, 291240, Note_on_c, 1, 79, 61
1, 291360, Note_on_c, 1, 79, 0
1, 291360, Note_on_c, 1, 77, 59
1, 291360, Note_on_c, 4, 70, 0
1, 291360, Note_on_c, 4, 69, 59
1, 291360, Note_on_c, 5, 60, 0
1, 291360, Note_on_c, 5, 65, 59
1, 291515, Note_on_c, 1, 77, 0
1, 291516, Note_on_c, 4, 69, 0
1, 291516, Note_on_c, 5, 65, 0
1, 291600, Note_on_c, 5, 53, 56
1, 291756, Note_on_c, 5, 53, 0
1, 291840, Note_on_c, 1, 81, 70
1, 291840, Note_on_c, 4, 65, 70
1, 291960, Note_on_c, 1, 81, 0
1, 291960, Note_on_c, 1, 83, 72
1, 291960, Note_on_c, 3, 72, 72
1, 292080, Note_on_c, 1, 83, 0
1, 292080, Note_on_c, 1, 84, 74
1, 292080, Note_on_c, 3, 72, 0
1, 292080, Note_on_c, 3, 69, 74
1, 292160, Note_on_c, 1, 84, 0
1, 292200, Note_on_c, 1, 84, 75
1, 292200, Note_on_c, 3, 69, 0
1, 292200, Note_on_c, 3, 72, 75
1, 292200, Note_on_c, 4, 65, 0
1, 292280, Note_on_c, 1, 84, 0
1, 292320, Note_on_c, 1, 86, 79
1, 292320, Note_on_c, 3, 72, 0
1, 292320, Note_on_c, 4, 64, 79
1, 292440, Note_on_c, 1, 86, 0
1, 292440, Note_on_c, 1, 84, 78
1, 292440, Note_on_c, 3, 72, 78
1, 292560, Note_on_c, 1, 84, 0
1, 292560, Note_on_c, 1, 83, 77
1, 292560, Note_on_c, 3, 72, 0
1, 292560, Note_on_c, 3, 67, 77
1, 292680, Note_on_c, 1, 83, 0
1, 292680, Note_on_c, 1, 81, 76
1, 292680, Note_on_c, 3, 67, 0
1, 292680, Note_on_c, 3, 72, 76
1, 292680, Note_on_c, 4, 64, 0
1, 292800, Note_on_c, 1, 81, 0
1, 292800, Note_on_c, 1, 79, 75
1, 292800, Note_on_c, 3, 72, 0
1, 292800, Note_on_c, 4, 59, 75
1, 292880, Note_on_c, 1, 79, 0
1, 292920, Note_on_c, 1, 78, 75
1, 292920, Note_on_c, 3, 67, 75
1, 293000, Note_on_c, 1, 78, 0
1, 293040, Note_on_c, 1, 79, 74
1, 293040, Note_on_c, 3, 67, 0
1, 293040, Note_on_c, 3, 62, 74
1, 293120, Note_on_c, 1, 79, 0
1, 293160, Note_on_c, 1, 77, 73
1, 293160, Note_on_c, 3, 62, 0
1, 293160, Note_on_c, 3, 67, 73
1, 293160, Note_on_c, 4, 59, 0
1, 293240, Note_on_c, 1, 77, 0
1, 293280, Note_on_c, 1, 75, 72
1, 293280, Note_on_c, 3, 67, 0
1, 293280, Note_on_c, 4, 60, 72
1, 293400, Note_on_c, 1, 75, 0
1, 293400, Note_on_c, 1, 76, 71
1, 293400, Note_on_c, 3, 67, 71
1, 293520, Note_on_c, 1, 76, 0
1, 293520, Note_on_c, 1, 77, 70
1, 293520, Note_on_c, 3, 67, 0
1, 293520, Note_on_c, 3, 64, 70
1, 293640, Note_on_c, 1, 77, 0
1, 293640, Note_on_c, 1, 76, 69
1, 293640, Note_on_c, 3, 64, 0
1, 293640, Note_on_c, 3, 67, 69
1, 293640, Note_on_c, 4, 60, 0
1, 293760, Note_on_c, 1, 76, 0
1, 293760, Note_on_c, 1, 81, 68
1, 293760, Note_on_c, 3, 67, 0
1, 293760, Note_on_c, 4, 52, 68
1, 293880, Note_on_c, 1, 81, 0
1, 293880, Note_on_c, 1, 79, 69
1, 293880, Note_on_c, 3, 60, 69
1, 293975, Note_on_c, 3, 60, 0
1, 294000, Note_on_c, 1, 79, 0
1, 294000, Note_on_c, 1, 77, 70
1, 294000, Note_on_c, 3, 55, 70
1, 294095, Note_on_c, 3, 55, 0
1, 294120, Note_on_c, 1, 77, 0
1, 294120, Note_on_c, 1, 76, 71
1, 294120, Note_on_c, 3, 60, 71
1, 294120, Note_on_c, 4, 52, 0
1, 294215, Note_on_c, 3, 60, 0
1, 294240, Note_on_c, 1, 76, 0
1, 294240, Note_on_c, 1, 73, 75
1, 294240, Note_on_c, 4, 53, 75
1, 294360, Note_on_c, 1, 73, 0
1, 294360, Note_on_c, 1, 74, 74
1, 294360, Note_on_c, 3, 62, 74
1, 294455, Note_on_c, 3, 62, 0
1, 294480, Note_on_c, 1, 74, 0
1, 294480, Note_on_c, 1, 76, 72
1, 294480, Note_on_c, 3, 57, 72
1, 294575, Note_on_c, 3, 57, 0
1, 294600, Note_on_c, 1, 76, 0
1, 294600, Note_on_c, 1, 77, 71
1, 294600, Note_on_c, 3, 62, 71
1, 294600, Note_on_c, 4, 53, 0
1, 294695, Note_on_c, 3, 62, 0
1, 294720, Note_on_c, 1, 77, 0
1, 294720, Note_on_c, 1, 69, 69
1, 294720, Note_on_c, 4, 54, 69
1, 294840, Note_on_c, 1, 69, 0
1, 294840, Note_on_c, 1, 71, 67
1, 294840, Note_on_c, 3, 62, 67
1, 294935, Note_on_c, 3, 62, 0
1, 294960, Note_on_c, 1, 71, 0
1, 294960, Note_on_c, 1, 72, 66
1, 294960, Note_on_c, 3, 57, 66
1, 295055, Note_on_c, 3, 57, 0
1, 295080, Note_on_c, 1, 72, 0
1, 295080, Note_on_c, 1, 74, 64
1, 295080, Note_on_c, 3, 62, 64
1, 295080, Note_on_c, 4, 54, 0
1, 295175, Note_on_c, 3, 62, 0
1, 295200, Note_on_c, 1, 74, 0
1, 295200, Note_on_c, 1, 72, 63
1, 295200, Note_on_c, 5, 55, 63
1, 295320, Note_on_c, 1, 72, 0
1, 295320, Note_on_c, 1, 71, 61
1, 295390, Note_on_c, 5, 55, 0
1, 295440, Note_on_c, 1, 71, 0
1, 295440, Note_on_c, 1, 69, 59
1, 295560, Note_on_c, 1, 69, 0
1, 295560, Note_on_c, 1, 67, 58
1, 295680, Note_on_c, 1, 67, 0
1, 295680, Note_on_c, 1, 79, 59
1, 295680, Note_on_c, 2, 76, 59
1, 295835, Note_on_c, 1, 79, 0
1, 295835, Note_on_c, 2, 76, 0
1, 295920, Note_on_c, 1, 79, 58
1, 295920, Note_on_c, 2, 76, 58
1, 296075, Note_on_c, 1, 79, 0
1, 296075, Note_on_c, 2, 76, 0
1, 296160, Note_on_c, 1, 76, 56
1, 296160, Note_on_c, 2, 72, 56
1, 296160, Note_on_c, 4, 60, 54
1, 296160, Note_on_c, 5, 57, 54
1, 296315, Note_on_c, 1, 76, 0
1, 296315, Note_on_c, 2, 72, 0
1, 296315, Note_on_c, 4, 60, 0
1, 296315, Note_on_c, 5, 57, 0
1, 296400, Note_on_c, 4, 60, 53
1, 296400, Note_on_c, 5, 57, 53
1, 296555, Note_on_c, 4, 60, 0
1, 296555, Note_on_c, 5, 57, 0
1, 296640, Note_on_c, 1, 77, 53
1, 296640, Note_on_c, 2, 74, 53
1, 296640, Note_on_c, 4, 57, 52
1, 296640, Note_on_c, 5, 53, 52
1, 296795, Note_on_c, 1, 77, 0
1, 296795, Note_on_c, 2, 74, 0
1, 296795, Note_on_c, 4, 57, 0
1, 296795, Note_on_c, 5, 53, 0
1, 296880, Note_on_c, 1, 77, 52
1, 296880, Note_on_c, 2, 74, 52
1, 297035, Note_on_c, 1, 77, 0
1, 297035, Note_on_c, 2, 74, 0
1, 297120, Note_on_c, 1, 74, 50
1, 297120, Note_on_c, 2, 71, 50
1, 297120, Note_on_c, 4, 59, 51
1, 297120, Note_on_c, 5, 55, 51
1, 297275, Note_on_c, 1, 74, 0
1, 297275, Note_on_c, 5, 55, 0
1, 297276, Note_on_c, 2, 71, 0
1, 297276, Note_on_c, 4, 59, 0
1, 297360, Note_on_c, 4, 59, 50
1, 297360, Note_on_c, 5, 55, 50
1, 297515, Note_on_c, 5, 55, 0
1, 297516, Note_on_c, 4, 59, 0
1, 297600, Note_on_c, 1, 84, 71
1, 297600, Note_on_c, 4, 55, 50
1, 297600, Note_on_c, 5, 52, 50
1, 297720, Note_on_c, 1, 84, 0
1, 297720, Note_on_c, 1, 86, 73
1, 297755, Note_on_c, 4, 55, 0
1, 297755, Note_on_c, 5, 52, 0
1, 297840, Note_on_c, 1, 86, 0
1, 297840, Note_on_c, 1, 88, 74
1, 297960, Note_on_c, 1, 88, 0
1, 297960, Note_on_c, 1, 84, 76
1, 298080, Note_on_c, 1, 84, 0
1, 298080, Note_on_c, 1, 80, 78
1, 298080, Note_on_c, 4, 60, 78
1, 298080, Note_on_c, 5, 53, 78
1, 298200, Note_on_c, 1, 80, 0
1, 298200, Note_on_c, 1, 81, 77
1, 298320, Note_on_c, 1, 81, 0
1, 298320, Note_on_c, 1, 84, 75
1, 298440, Note_on_c, 1, 84, 0
1, 298440, Note_on_c, 1, 81, 73
1, 298560, Note_on_c, 1, 81, 0
1, 298560, Note_on_c, 1, 79, 71
1, 298560, Note_on_c, 5, 53, 0
1, 298560, Note_on_c, 5, 55, 71
1, 298680, Note_on_c, 1, 79, 0
1, 298680, Note_on_c, 1, 76, 69
1, 298800, Note_on_c, 1, 76, 0
1, 298800, Note_on_c, 1, 77, 67
1, 298800, Note_on_c, 4, 60, 0
1, 298800, Note_on_c, 4, 59, 67
1, 298920, Note_on_c, 1, 77, 0
1, 298920, Note_on_c, 1, 74, 66
1, 299040, Note_on_c, 1, 74, 0
1, 299040, Note_on_c, 1, 72, 64
1, 299040, Note_on_c, 4, 59, 0
1, 299040, Note_on_c, 5, 55, 0
1, 299040, Note_on_c, 5, 60, 64
1, 299196, Note_on_c, 5, 60, 0
1, 299280, Note_on_c, 1, 72, 0
1, 299280, Note_on_c, 5, 48, 64
1, 299448, Note_on_c, 5, 48, 0
1, 299520, Note_on_c, 1, 72, 40
1, 299640, Note_on_c, 1, 72, 0
1, 299640, Note_on_c, 1, 74, 43
1, 299760, Note_on_c, 1, 74, 0
1, 299760, Note_on_c, 1, 76, 46
1, 299880, Note_on_c, 1, 76, 0
1, 299880, Note_on_c, 1, 77, 50
1, 300000, Note_on_c, 1, 77, 0
1, 300000, Note_on_c, 1, 79, 55
1, 300000, Note_on_c, 4, 64, 55
1, 300000, Note_on_c, 5, 60, 55
1, 300156, Note_on_c, 4, 64, 0
1, 300156, Note_on_c, 5, 60, 0
1, 300192, Note_on_c, 1, 79, 0
1, 300240, Note_on_c, 5, 48, 49
1, 300408, Note_on_c, 5, 48, 0
1, 300480, Note_on_c, 1, 76, 57
1, 300600, Note_on_c, 1, 76, 0
1, 300600, Note_on_c, 1, 77, 61
1, 300720, Note_on_c, 1, 77, 0
1, 300720, Note_on_c, 1, 79, 65
1, 300840, Note_on_c, 1, 79, 0
1, 300840, Note_on_c, 1, 81, 68
1, 300960, Note_on_c, 1, 81, 0
1, 300960, Note_on_c, 1, 82, 72
1, 300960, Note_on_c, 4, 64, 72
1, 300960, Note_on_c, 5, 60, 72
1, 301116, Note_on_c, 4, 64, 0
1, 301116, Note_on_c, 5, 60, 0
1, 301152, Note_on_c, 1, 82, 0
1, 301200, Note_on_c, 5, 48, 68
1, 301368, Note_on_c, 5, 48, 0
1, 301440, Note_on_c, 1, 79, 75
1, 301560, Note_on_c, 1, 79, 0
1, 301560, Note_on_c, 1, 81, 79
1, 301680, Note_on_c, 1, 81, 0
1, 301680, Note_on_c, 1, 82, 83
1, 301800, Note_on_c, 1, 82, 0
1, 301800, Note_on_c, 1, 84, 87
1, 301920, Note_on_c, 1, 84, 0
1, 301920, Note_on_c, 1, 86, 90
1, 302075, Note_on_c, 1, 86, 0
1, 302160, Note_on_c, 1, 85, 82
1, 302315, Note_on_c, 1, 85, 0
1, 302400, Note_on_c, 1, 84, 74
1, 302555, Note_on_c, 1, 84, 0
1, 302640, Note_on_c, 1, 83, 66
1, 302795, Note_on_c, 1, 83, 0
1, 302880, Note_on_c, 1, 82, 58
1, 303035, Note_on_c, 1, 82, 0
1, 303360, Note_on_c, 1, 84, 61
1, 303360, Note_on_c, 2, 81, 61
1, 303515, Note_on_c, 1, 84, 0
1, 303515, Note_on_c, 2, 81, 0
1, 303600, Note_on_c, 1, 84, 61
1, 303600, Note_on_c, 2, 81, 61
1, 303755, Note_on_c, 1, 84, 0
1, 303755, Note_on_c, 2, 81, 0
1, 303840, Note_on_c, 1, 81, 60
1, 303840, Note_on_c, 2, 77, 60
1, 303840, Note_on_c, 4, 65, 60
1, 303840, Note_on_c, 5, 62, 60
1, 303995, Note_on_c, 1, 81, 0
1, 303995, Note_on_c, 2, 77, 0
1, 303995, Note_on_c, 4, 65, 0
1, 303995, Note_on_c, 5, 62, 0
1, 304080, Note_on_c, 4, 65, 60
1, 304080, Note_on_c, 5, 62, 60
1, 304235, Note_on_c, 4, 65, 0
1, 304235, Note_on_c, 5, 62, 0
1, 304320, Note_on_c, 1, 82, 59
1, 304320, Note_on_c, 2, 79, 59
1, 304320, Note_on_c, 4, 62, 59
1, 304320, Note_on_c, 5, 58, 59
1, 304475, Note_on_c, 1, 82, 0
1, 304475, Note_on_c, 2, 79, 0
1, 304475, Note_on_c, 4, 62, 0
1, 304475, Note_on_c, 5, 58, 0
1, 304560, Note_on_c, 1, 82, 59
1, 304560, Note_on_c, 2, 79, 59
1, 304715, Note_on_c, 1, 82, 0
1, 304715, Note_on_c, 2, 79, 0
1, 304800, Note_on_c, 1, 79, 58
1, 304800, Note_on_c, 2, 76, 58
1, 304800, Note_on_c, 4, 64, 58
1, 304800, Note_on_c, 5, 60, 58
1, 304955, Note_on_c, 1, 79, 0
1, 304955, Note_on_c, 2, 76, 0
1, 304955, Note_on_c, 4, 64, 0
1, 304955, Note_on_c, 5, 60, 0
1, 305040, Note_on_c, 4, 64, 58
1, 305040, Note_on_c, 5, 60, 58
1, 305195, Note_on_c, 4, 64, 0
1, 305195, Note_on_c, 5, 60, 0
1, 305280, Note_on_c, 1, 77, 76
1, 305280, Note_on_c, 4, 60, 58
1, 305280, Note_on_c, 5, 57, 58
1, 305400, Note_on_c, 1, 77, 0
1, 305400, Note_on_c, 1, 79, 77
1, 305435, Note_on_c, 4, 60, 0
1, 305435, Note_on_c, 5, 57, 0
1, 305520, Note_on_c, 1, 79, 0
1, 305520, Note_on_c, 1, 81, 79
1, 305640, Note_on_c, 1, 81, 0
1, 305640, Note_on_c, 1, 77, 80
1, 305760, Note_on_c, 1, 77, 0
1, 305760, Note_on_c, 1, 76, 83
1, 305760, Note_on_c, 5, 58, 83
1, 305880, Note_on_c, 1, 76, 0
1, 305880, Note_on_c, 1, 74, 82
1, 306000, Note_on_c, 1, 74, 0
1, 306000, Note_on_c, 1, 76, 81
1, 306120, Note_on_c, 1, 76, 0
1, 306120, Note_on_c, 1, 78, 80
1, 306240, Note_on_c, 1, 78, 0
1, 306240, Note_on_c, 1, 79, 79
1, 306360, Note_on_c, 1, 79, 0
1, 306360, Note_on_c, 1, 81, 78
1, 306480, Note_on_c, 1, 81, 0
1, 306480, Note_on_c, 1, 82, 77
1, 306480, Note_on_c, 5, 58, 0
1, 306480, Note_on_c, 5, 55, 77
1, 306600, Note_on_c, 1, 82, 0
1, 306600, Note_on_c, 1, 79, 76
1, 306720, Note_on_c, 1, 79, 0
1, 306720, Note_on_c, 1, 77, 75
1, 306720, Note_on_c, 5, 55, 0
1, 306720, Note_on_c, 5, 60, 75
1, 306840, Note_on_c, 1, 77, 0
1, 306840, Note_on_c, 1, 76, 74
1, 306960, Note_on_c, 1, 76, 0
1, 306960, Note_on_c, 1, 74, 74
1, 306960, Note_on_c, 5, 60, 0
1, 307080, Note_on_c, 1, 74, 0
1, 307080, Note_on_c, 1, 72, 73
1, 307200, Note_on_c, 1, 72, 0
1, 307200, Note_on_c, 1, 84, 72
1, 307200, Note_on_c, 2, 81, 72
1, 307355, Note_on_c, 1, 84, 0
1, 307355, Note_on_c, 2, 81, 0
1, 307440, Note_on_c, 1, 84, 57
1, 307440, Note_on_c, 2, 81, 57
1, 307595, Note_on_c, 1, 84, 0
1, 307595, Note_on_c, 2, 81, 0
1, 307680, Note_on_c, 1, 81, 56
1, 307680, Note_on_c, 2, 77, 56
1, 307680, Note_on_c, 4, 65, 56
1, 307680, Note_on_c, 5, 62, 56
1, 307835, Note_on_c, 1, 81, 0
1, 307835, Note_on_c, 2, 77, 0
1, 307835, Note_on_c, 4, 65, 0
1, 307835, Note_on_c, 5, 62, 0
1, 307920, Note_on_c, 4, 65, 55
1, 307920, Note_on_c, 5, 62, 55
1, 308075, Note_on_c, 4, 65, 0
1, 308075, Note_on_c, 5, 62, 0
1, 308160, Note_on_c, 1, 82, 54
1, 308160, Note_on_c, 2, 79, 54
1, 308160, Note_on_c, 4, 58, 54
1, 308160, Note_on_c, 5, 55, 54
1, 308315, Note_on_c, 1, 82, 0
1, 308315, Note_on_c, 2, 79, 0
1, 308315, Note_on_c, 4, 58, 0
1, 308315, Note_on_c, 5, 55, 0
1, 308400, Note_on_c, 1, 82, 54
1, 308400, Note_on_c, 2, 79, 54
1, 308555, Note_on_c, 1, 82, 0
1, 308555, Note_on_c, 2, 79, 0
1, 308640, Note_on_c, 1, 79, 53
1, 308640, Note_on_c, 2, 76, 53
1, 308640, Note_on_c, 4, 64, 53
1, 308640, Note_on_c, 5, 60, 53
1, 308795, Note_on_c, 1, 79, 0
1, 308795, Note_on_c, 2, 76, 0
1, 308795, Note_on_c, 4, 64, 0
1, 308795, Note_on_c, 5, 60, 0
1, 308880, Note_on_c, 4, 64, 52
1, 308880, Note_on_c, 5, 60, 52
1, 309035, Note_on_c, 4, 64, 0
1, 309035, Note_on_c, 5, 60, 0
1, 309120, Note_on_c, 1, 86, 68
1, 309120, Note_on_c, 4, 57, 51
1, 309120, Note_on_c, 5, 53, 51
1, 309240, Note_on_c, 1, 86, 0
1, 309240, Note_on_c, 1, 84, 70
1, 309275, Note_on_c, 4, 57, 0
1, 309275, Note_on_c, 5, 53, 0
1, 309360, Note_on_c, 1, 84, 0
1, 309360, Note_on_c, 1, 82, 71
1, 309480, Note_on_c, 1, 82, 0
1, 309480, Note_on_c, 1, 81, 73
1, 309600, Note_on_c, 1, 81, 0
1, 309600, Note_on_c, 1, 78, 77
1, 309600, Note_on_c, 4, 62, 77
1, 309600, Note_on_c, 5, 58, 77
1, 309720, Note_on_c, 1, 78, 0
1, 309720, Note_on_c, 1, 79, 76
1, 309840, Note_on_c, 1, 79, 0
1, 309840, Note_on_c, 1, 81, 74
1, 309960, Note_on_c, 1, 81, 0
1, 309960, Note_on_c, 1, 82, 73
1, 310080, Note_on_c, 1, 82, 0
1, 310080, Note_on_c, 1, 74, 72
1, 310200, Note_on_c, 1, 74, 0
1, 310200, Note_on_c, 1, 77, 70
1, 310320, Note_on_c, 1, 77, 0
1, 310320, Note_on_c, 1, 76, 69
1, 310320, Note_on_c, 4, 62, 0
1, 310320, Note_on_c, 4, 70, 69
1, 310320, Note_on_c, 5, 58, 0
1, 310320, Note_on_c, 5, 60, 69
1, 310440, Note_on_c, 1, 76, 0
1, 310440, Note_on_c, 1, 79, 67
1, 310476, Note_on_c, 4, 70, 0
1, 310476, Note_on_c, 5, 60, 0
1, 310560, Note_on_c, 1, 79, 0
1, 310560, Note_on_c, 1, 77, 66
1, 310560, Note_on_c, 4, 69, 66
1, 310560, Note_on_c, 5, 65, 66
1, 310715, Note_on_c, 1, 77, 0
1, 310715, Note_on_c, 4, 69, 0
1, 310715, Note_on_c, 5, 65, 0
1, 310800, Note_on_c, 5, 53, 57
1, 310955, Note_on_c, 5, 53, 0
1, 311040, Note_on_c, 4, 69, 57
1, 311040, Note_on_c, 5, 65, 57
1, 311195, Note_on_c, 4, 69, 0
1, 311195, Note_on_c, 5, 65, 0
1, 311280, Note_on_c, 4, 69, 57
1, 311280, Note_on_c, 5, 65, 57
1, 311435, Note_on_c, 4, 69, 0
1, 311435, Note_on_c, 5, 65, 0
1, 311520, Note_on_c, 1, 81, 57
1, 311520, Note_on_c, 4, 65, 57
1, 311520, Note_on_c, 5, 62, 57
1, 311640, Note_on_c, 1, 81, 0
1, 311640, Note_on_c, 1, 80, 55
1, 311675, Note_on_c, 4, 65, 0
1, 311675, Note_on_c, 5, 62, 0
1, 311760, Note_on_c, 1, 80, 0
1, 311760, Note_on_c, 1, 82, 53
1, 311880, Note_on_c, 1, 82, 0
1, 311880, Note_on_c, 1, 81, 50
1, 312000, Note_on_c, 1, 81, 0
1, 312000, Note_on_c, 4, 67, 55
1, 312000, Note_on_c, 5, 64, 55
1, 312155, Note_on_c, 4, 67, 0
1, 312155, Note_on_c, 5, 64, 0
1, 312240, Note_on_c, 4, 67, 55
1, 312240, Note_on_c, 5, 64, 55
1, 312395, Note_on_c, 4, 67, 0
1, 312395, Note_on_c, 5, 64, 0
1, 312480, Note_on_c, 1, 81, 55
1, 312480, Note_on_c, 4, 64, 55
1, 312480, Note_on_c, 5, 61, 55
1, 312600, Note_on_c, 1, 81, 0
1, 312600, Note_on_c, 1, 80, 53
1, 312635, Note_on_c, 4, 64, 0
1, 312635, Note_on_c, 5, 61, 0
1, 312720, Note_on_c, 1, 80, 0
1, 312720, Note_on_c, 1, 82, 52
1, 312840, Note_on_c, 1, 82, 0
1, 312840, Note_on_c, 1, 81, 50
1, 312960, Note_on_c, 1, 81, 0
1, 312960, Note_on_c, 1, 89, 53
1, 312960, Note_on_c, 2, 81, 53
1, 313115, Note_on_c, 1, 89, 0
1, 313115, Note_on_c, 2, 81, 0
1, 313200, Note_on_c, 1, 89, 53
1, 313200, Note_on_c, 2, 81, 53
1, 313355, Note_on_c, 1, 89, 0
1, 313355, Note_on_c, 2, 81, 0
1, 313440, Note_on_c, 1, 86, 53
1, 313440, Note_on_c, 2, 77, 53
1, 313440, Note_on_c, 5, 69, 53
1, 313560, Note_on_c, 5, 69, 0
1, 313560, Note_on_c, 5, 68, 51
1, 313595, Note_on_c, 1, 86, 0
1, 313595, Note_on_c, 2, 77, 0
1, 313680, Note_on_c, 5, 68, 0
1, 313680, Note_on_c, 5, 70, 49
1, 313800, Note_on_c, 5, 70, 0
1, 313800, Note_on_c, 5, 69, 46
1, 313920, Note_on_c, 1, 88, 52
1, 313920, Note_on_c, 2, 79, 52
1, 313920, Note_on_c, 5, 69, 0
1, 314075, Note_on_c, 1, 88, 0
1, 314075, Note_on_c, 2, 79, 0
1, 314160, Note_on_c, 1, 88, 51
1, 314160, Note_on_c, 2, 79, 51
1, 314315, Note_on_c, 1, 88, 0
1, 314315, Note_on_c, 2, 79, 0
1, 314400, Note_on_c, 1, 85, 51
1, 314400, Note_on_c, 2, 76, 51
1, 314400, Note_on_c, 5, 69, 51
1, 314520, Note_on_c, 5, 69, 0
1, 314520, Note_on_c, 5, 68, 49
1, 314555, Note_on_c, 1, 85, 0
1, 314555, Note_on_c, 2, 76, 0
1, 314640, Note_on_c, 5, 68, 0
1, 314640, Note_on_c, 5, 70, 47
1, 314760, Note_on_c, 5, 70, 0
1, 314760, Note_on_c, 5, 69, 44
1, 314880, Note_on_c, 1, 86, 69
1, 314880, Note_on_c, 5, 69, 0
1, 315000, Note_on_c, 1, 86, 0
1, 315000, Note_on_c, 1, 81, 67
1, 315120, Note_on_c, 1, 81, 0
1, 315120, Note_on_c, 1, 77, 64
1, 315120, Note_on_c, 2, 69, 68
1, 315120, Note_on_c, 5, 65, 68
1, 315240, Note_on_c, 1, 77, 0
1, 315240, Note_on_c, 1, 74, 62
1, 315360, Note_on_c, 1, 74, 0
1, 315360, Note_on_c, 1, 77, 75
1, 315360, Note_on_c, 2, 70, 75
1, 315360, Note_on_c, 5, 67, 75
1, 315367, Note_on_c, 5, 65, 0
1, 315375, Note_on_c, 2, 69, 0
1, 315480, Note_on_c, 1, 77, 0
1, 315480, Note_on_c, 1, 75, 73
1, 315600, Note_on_c, 1, 75, 0
1, 315600, Note_on_c, 1, 74, 71
1, 315720, Note_on_c, 1, 74, 0
1, 315720, Note_on_c, 1, 75, 69
1, 315800, Note_on_c, 1, 75, 0
1, 315840, Note_on_c, 1, 79, 79
1, 315840, Note_on_c, 2, 70, 0
1, 315840, Note_on_c, 2, 72, 79
1, 315840, Note_on_c, 5, 67, 0
1, 315840, Note_on_c, 5, 69, 79
1, 315960, Note_on_c, 1, 79, 0
1, 315960, Note_on_c, 1, 78, 76
1, 316080, Note_on_c, 1, 78, 0
1, 316080, Note_on_c, 1, 77, 73
1, 316200, Note_on_c, 1, 77, 0
1, 316200, Note_on_c, 1, 78, 71
1, 316280, Note_on_c, 1, 78, 0
1, 316320, Note_on_c, 1, 81, 84
1, 316320, Note_on_c, 2, 72, 0
1, 316320, Note_on_c, 2, 74, 84
1, 316320, Note_on_c, 5, 69, 0
1, 316320, Note_on_c, 5, 70, 84
1, 316440, Note_on_c, 1, 81, 0
1, 316440, Note_on_c, 1, 79, 74
1, 316535, Note_on_c, 1, 79, 0
1, 316560, Note_on_c, 1, 82, 86
1, 316560, Note_on_c, 5, 70, 0
1, 316560, Note_on_c, 5, 66, 86
1, 316680, Note_on_c, 1, 82, 0
1, 316680, Note_on_c, 1, 81, 78
1, 316775, Note_on_c, 1, 81, 0
1, 316800, Note_on_c, 1, 84, 90
1, 316800, Note_on_c, 5, 66, 0
1, 316800, Note_on_c, 5, 67, 90
1, 316920, Note_on_c, 1, 84, 0
1, 316920, Note_on_c, 1, 82, 81
1, 317015, Note_on_c, 1, 82, 0
1, 317040, Note_on_c, 1, 82, 92
1, 317040, Note_on_c, 5, 67, 0
1, 317040, Note_on_c, 5, 69, 92
1, 317160, Note_on_c, 1, 82, 0
1, 317160, Note_on_c, 1, 81, 85
1, 317255, Note_on_c, 1, 81, 0
1, 317280, Note_on_c, 1, 81, 96
1, 317280, Note_on_c, 2, 74, 0
1, 317280, Note_on_c, 2, 74, 96
1, 317280, Note_on_c, 5, 69, 0
1, 317280, Note_on_c, 5, 70, 96
1, 317400, Note_on_c, 1, 81, 0
1, 317400, Note_on_c, 1, 80, 91
1, 317495, Note_on_c, 1, 80, 0
1, 317520, Note_on_c, 1, 89, 106
1, 317520, Note_on_c, 2, 74, 0
1, 317520, Note_on_c, 5, 70, 0
1, 317760, Note_on_c, 4, 50, 91
1, 317760, Note_on_c, 5, 46, 91
1, 318000, Note_on_c, 1, 89, 0
1, 318000, Note_on_c, 1, 80, 83
1, 318000, Note_on_c, 4, 50, 0
1, 318000, Note_on_c, 5, 46, 0
1, 318240, Note_on_c, 1, 80, 0
1, 318240, Note_on_c, 1, 81, 83
1, 318240, Note_on_c, 5, 45, 83
1, 318360, Note_on_c, 3, 57, 83
1, 318455, Note_on_c, 3, 57, 0
1, 318480, Note_on_c, 1, 81, 0
1, 318480, Note_on_c, 4, 49, 83
1, 318600, Note_on_c, 3, 57, 82
1, 318600, Note_on_c, 4, 49, 0
1, 318695, Note_on_c, 3, 57, 0
1, 318720, Note_on_c, 1, 88, 82
1, 318720, Note_on_c, 4, 52, 82
1, 318840, Note_on_c, 1, 88, 0
1, 318840, Note_on_c, 1, 85, 82
1, 318840, Note_on_c, 3, 57, 82
1, 318840, Note_on_c, 4, 52, 0
1, 318935, Note_on_c, 3, 57, 0
1, 318960, Note_on_c, 1, 85, 0
1, 318960, Note_on_c, 1, 81, 81
1, 318960, Note_on_c, 4, 49, 81
1, 318960, Note_on_c, 5, 45, 0
1, 319080, Note_on_c, 1, 81, 0
1, 319080, Note_on_c, 1, 79, 81
1, 319080, Note_on_c, 3, 57, 81
1, 319080, Note_on_c, 4, 49, 0
1, 319175, Note_on_c, 3, 57, 0
1, 319200, Note_on_c, 1, 79, 0
1, 319200, Note_on_c, 1, 77, 81
1, 319200, Note_on_c, 5, 45, 81
1, 319320, Note_on_c, 1, 77, 0
1, 319320, Note_on_c, 1, 81, 80
1, 319320, Note_on_c, 3, 57, 80
1, 319415, Note_on_c, 3, 57, 0
1, 319440, Note_on_c, 1, 81, 0
1, 319440, Note_on_c, 1, 86, 80
1, 319440, Note_on_c, 4, 50, 80
1, 319560, Note_on_c, 1, 86, 0
1, 319560, Note_on_c, 1, 85, 80
1, 319560, Note_on_c, 3, 57, 80
1, 319560, Note_on_c, 4, 50, 0
1, 319655, Note_on_c, 3, 57, 0
1, 319680, Note_on_c, 1, 85, 0
1, 319680, Note_on_c, 1, 86, 79
1, 319680, Note_on_c, 4, 53, 79
1, 319800, Note_on_c, 1, 86, 0
1, 319800, Note_on_c, 1, 81, 79
1, 319800, Note_on_c, 3, 57, 79
1, 319800, Note_on_c, 4, 53, 0
1, 319895, Note_on_c, 3, 57, 0
1, 319920, Note_on_c, 1, 81, 0
1, 319920, Note_on_c, 1, 77, 79
1, 319920, Note_on_c, 4, 50, 79
1, 319920, Note_on_c, 5, 45, 0
1, 320040, Note_on_c, 1, 77, 0
1, 320040, Note_on_c, 1, 74, 78
1, 320040, Note_on_c, 3, 57, 78
1, 320040, Note_on_c, 4, 50, 0
1, 320135, Note_on_c, 3, 57, 0
1, 320160, Note_on_c, 1, 74, 0
1, 320160, Note_on_c, 1, 73, 78
1, 320160, Note_on_c, 5, 45, 78
1, 320280, Note_on_c, 1, 73, 0
1, 320280, Note_on_c, 1, 76, 78
1, 320280, Note_on_c, 3, 57, 78
1, 320375, Note_on_c, 3, 57, 0
1, 320400, Note_on_c, 1, 76, 0
1, 320400, Note_on_c, 1, 81, 77
1, 320400, Note_on_c, 4, 49, 77
1, 320520, Note_on_c, 1, 81, 0
1, 320520, Note_on_c, 1, 85, 77
1, 320520, Note_on_c, 3, 57, 77
1, 320520, Note_on_c, 4, 49, 0
1, 320615, Note_on_c, 3, 57, 0
1, 320640, Note_on_c, 1, 85, 0
1, 320640, Note_on_c, 1, 88, 77
1, 320640, Note_on_c, 4, 52, 77
1, 320760, Note_on_c, 1, 88, 0
1, 320760, Note_on_c, 1, 85, 76
1, 320760, Note_on_c, 3, 57, 76
1, 320760, Note_on_c, 4, 52, 0
1, 320855, Note_on_c, 3, 57, 0
1, 320880, Note_on_c, 1, 85, 0
1, 320880, Note_on_c, 1, 81, 76
1, 320880, Note_on_c, 4, 49, 76
1, 320880, Note_on_c, 5, 45, 0
1, 321000, Note_on_c, 1, 81, 0
1, 321000, Note_on_c, 1, 79, 76
1, 321000, Note_on_c, 3, 57, 76
1, 321000, Note_on_c, 4, 49, 0
1, 321095, Note_on_c, 3, 57, 0
1, 321120, Note_on_c, 1, 79, 0
1, 321120, Note_on_c, 1, 77, 75
1, 321120, Note_on_c, 5, 45, 75
1, 321240, Note_on_c, 1, 77, 0
1, 321240, Note_on_c, 1, 81, 75
1, 321240, Note_on_c, 3, 57, 75
1, 321335, Note_on_c, 3, 57, 0
1, 321360, Note_on_c, 1, 81, 0
1, 321360, Note_on_c, 1, 86, 74
1, 321360, Note_on_c, 4, 50, 74
1, 321480, Note_on_c, 1, 86, 0
1, 321480, Note_on_c, 1, 85, 74
1, 321480, Note_on_c, 3, 57, 74
1, 321480, Note_on_c, 4, 50, 0
1, 321575, Note_on_c, 3, 57, 0
1, 321600, Note_on_c, 1, 85, 0
1, 321600, Note_on_c, 1, 86, 74
1, 321600, Note_on_c, 4, 53, 74
1, 321720, Note_on_c, 1, 86, 0
1, 321720, Note_on_c, 1, 81, 73
1, 321720, Note_on_c, 3, 57, 73
1, 321720, Note_on_c, 4, 53, 0
1, 321815, Note_on_c, 3, 57, 0
1, 321840, Note_on_c, 1, 81, 0
1, 321840, Note_on_c, 1, 77, 73
1, 321840, Note_on_c, 4, 50, 73
1, 321840, Note_on_c, 5, 45, 0
1, 321960, Note_on_c, 1, 77, 0
1, 321960, Note_on_c, 1, 74, 73
1, 321960, Note_on_c, 3, 57, 73
1, 321960, Note_on_c, 4, 50, 0
1, 322055, Note_on_c, 3, 57, 0
1, 322080, Note_on_c, 1, 74, 0
1, 322080, Note_on_c, 1, 69, 72
1, 322080, Note_on_c, 5, 45, 72
1, 322235, Note_on_c, 1, 69, 0
1, 322270, Note_on_c, 5, 45, 0
1, 322560, Note_on_c, 1, 81, 63
1, 322560, Note_on_c, 2, 77, 63
1, 322715, Note_on_c, 1, 81, 0
1, 322715, Note_on_c, 2, 77, 0
1, 322800, Note_on_c, 1, 81, 62
1, 322800, Note_on_c, 2, 77, 62
1, 322955, Note_on_c, 1, 81, 0
1, 322955, Note_on_c, 2, 77, 0
1, 323040, Note_on_c, 1, 77, 64
1, 323040, Note_on_c, 2, 74, 64
1, 323040, Note_on_c, 5, 69, 64
1, 323160, Note_on_c, 5, 69, 0
1, 323160, Note_on_c, 5, 68, 62
1, 323195, Note_on_c, 1, 77, 0
1, 323195, Note_on_c, 2, 74, 0
1, 323280, Note_on_c, 5, 68, 0
1, 323280, Note_on_c, 5, 70, 59
1, 323400, Note_on_c, 5, 70, 0
1, 323400, Note_on_c, 5, 69, 57
1, 323520, Note_on_c, 1, 79, 61
1, 323520, Note_on_c, 2, 76, 61
1, 323520, Note_on_c, 5, 69, 0
1, 323675, Note_on_c, 1, 79, 0
1, 323675, Note_on_c, 2, 76, 0
1, 323760, Note_on_c, 1, 79, 60
1, 323760, Note_on_c, 2, 76, 60
1, 323915, Note_on_c, 1, 79, 0
1, 323915, Note_on_c, 2, 76, 0
1, 324000, Note_on_c, 1, 76, 59
1, 324000, Note_on_c, 2, 73, 59
1, 324000, Note_on_c, 5, 69, 59
1, 324120, Note_on_c, 5, 69, 0
1, 324120, Note_on_c, 5, 68, 58
1, 324155, Note_on_c, 1, 76, 0
1, 324155, Note_on_c, 2, 73, 0
1, 324240, Note_on_c, 5, 68, 0
1, 324240, Note_on_c, 5, 70, 57
1, 324360, Note_on_c, 5, 70, 0
1, 324360, Note_on_c, 5, 69, 56
1, 324480, Note_on_c, 4, 65, 59
1, 324480, Note_on_c, 5, 69, 0
1, 324480, Note_on_c, 5, 57, 59
1, 324635, Note_on_c, 4, 65, 0
1, 324635, Note_on_c, 5, 57, 0
1, 324720, Note_on_c, 4, 65, 58
1, 324720, Note_on_c, 5, 57, 58
1, 324875, Note_on_c, 4, 65, 0
1, 324875, Note_on_c, 5, 57, 0
1, 324960, Note_on_c, 1, 69, 59
1, 324960, Note_on_c, 4, 62, 59
1, 324960, Note_on_c, 5, 53, 59
1, 325080, Note_on_c, 1, 69, 0
1, 325080, Note_on_c, 1, 68, 57
1, 325115, Note_on_c, 4, 62, 0
1, 325115, Note_on_c, 5, 53, 0
1, 325200, Note_on_c, 1, 68, 0
1, 325200, Note_on_c, 1, 70, 55
1, 325320, Note_on_c, 1, 70, 0
1, 325320, Note_on_c, 1, 69, 52
1, 325440, Note_on_c, 1, 69, 0
1, 325440, Note_on_c, 4, 64, 57
1, 325440, Note_on_c, 5, 55, 57
1, 325595, Note_on_c, 4, 64, 0
1, 325595, Note_on_c, 5, 55, 0
1, 325680, Note_on_c, 4, 64, 56
1, 325680, Note_on_c, 5, 55, 56
1, 325835, Note_on_c, 4, 64, 0
1, 325835, Note_on_c, 5, 55, 0
1, 325920, Note_on_c, 1, 81, 63
1, 325920, Note_on_c, 4, 61, 54
1, 325920, Note_on_c, 5, 52, 54
1, 326040, Note_on_c, 1, 81, 0
1, 326040, Note_on_c, 1, 80, 62
1, 326075, Note_on_c, 4, 61, 0
1, 326075, Note_on_c, 5, 52, 0
1, 326160, Note_on_c, 1, 80, 0
1, 326160, Note_on_c, 1, 82, 60
1, 326280, Note_on_c, 1, 82, 0
1, 326280, Note_on_c, 1, 81, 58
1, 326400, Note_on_c, 1, 81, 0
1, 326400, Note_on_c, 1, 79, 57
1, 326400, Note_on_c, 2, 64, 57
1, 326400, Note_on_c, 5, 61, 57
1, 326520, Note_on_c, 1, 79, 0
1, 326520, Note_on_c, 1, 78, 55
1, 326640, Note_on_c, 1, 78, 0
1, 326640, Note_on_c, 1, 81, 54
1, 326760, Note_on_c, 1, 81, 0
1, 326760, Note_on_c, 1, 79, 52
1, 326880, Note_on_c, 1, 79, 0
1, 326880, Note_on_c, 1, 79, 60
1, 326880, Note_on_c, 2, 64, 0
1, 326880, Note_on_c, 2, 65, 60
1, 326880, Note_on_c, 5, 61, 0
1, 326880, Note_on_c, 5, 62, 60
1, 327000, Note_on_c, 1, 79, 0
1, 327000, Note_on_c, 1, 77, 54
1, 327070, Note_on_c, 2, 65, 0
1, 327070, Note_on_c, 5, 62, 0
1, 327095, Note_on_c, 1, 77, 0
1, 327120, Note_on_c, 1, 77, 59
1, 327120, Note_on_c, 2, 67, 59
1, 327120, Note_on_c, 5, 64, 59
1, 327240, Note_on_c, 1, 77, 0
1, 327240, Note_on_c, 1, 76, 53
1, 327310, Note_on_c, 2, 67, 0
1, 327310, Note_on_c, 5, 64, 0
1, 327335, Note_on_c, 1, 76, 0
1, 327360, Note_on_c, 1, 76, 60
1, 327360, Note_on_c, 2, 69, 60
1, 327360, Note_on_c, 5, 65, 60
1, 327480, Note_on_c, 1, 76, 0
1, 327480, Note_on_c, 1, 74, 53
1, 327550, Note_on_c, 5, 65, 0
1, 327575, Note_on_c, 1, 74, 0
1, 327600, Note_on_c, 1, 86, 61
1, 327600, Note_on_c, 5, 66, 61
1, 327720, Note_on_c, 1, 86, 0
1, 327720, Note_on_c, 1, 84, 52
1, 327790, Note_on_c, 5, 66, 0
1, 327815, Note_on_c, 1, 84, 0
1, 327840, Note_on_c, 1, 84, 60
1, 327840, Note_on_c, 2, 69, 0
1, 327840, Note_on_c, 2, 74, 60
1, 327840, Note_on_c, 5, 67, 60
1, 327960, Note_on_c, 1, 84, 0
1, 327960, Note_on_c, 1, 82, 52
1, 328030, Note_on_c, 5, 67, 0
1, 328055, Note_on_c, 1, 82, 0
1, 328080, Note_on_c, 1, 82, 59
1, 328080, Note_on_c, 5, 69, 59
1, 328200, Note_on_c, 1, 82, 0
1, 328200, Note_on_c, 1, 81, 51
1, 328270, Note_on_c, 5, 69, 0
1, 328295, Note_on_c, 1, 81, 0
1, 328320, Note_on_c, 1, 81, 57
1, 328320, Note_on_c, 5, 70, 57
1, 328440, Note_on_c, 1, 81, 0
1, 328440, Note_on_c, 1, 79, 51
1, 328510, Note_on_c, 5, 70, 0
1, 328535, Note_on_c, 1, 79, 0
1, 328560, Note_on_c, 1, 79, 58
1, 328560, Note_on_c, 5, 69, 58
1, 328680, Note_on_c, 1, 79, 0
1, 328680, Note_on_c, 1, 77, 50
1, 328750, Note_on_c, 5, 69, 0
1, 328775, Note_on_c, 1, 77, 0
1, 328800, Note_on_c, 1, 75, 56
1, 328800, Note_on_c, 2, 74, 0
1, 328800, Note_on_c, 2, 70, 56
1, 328800, Note_on_c, 5, 67, 56
1, 328920, Note_on_c, 1, 75, 0
1, 328920, Note_on_c, 1, 82, 55
1, 329040, Note_on_c, 1, 82, 0
1, 329040, Note_on_c, 1, 79, 53
1, 329040, Note_on_c, 2, 70, 0
1, 329040, Note_on_c, 5, 67, 0
1, 329160, Note_on_c, 1, 79, 0
1, 329160, Note_on_c, 1, 75, 51
1, 329280, Note_on_c, 1, 75, 0
1, 329280, Note_on_c, 1, 74, 50
1, 329280, Note_on_c, 4, 65, 50
1, 329280, Note_on_c, 5, 57, 50
1, 329470, Note_on_c, 1, 74, 0
1, 329520, Note_on_c, 1, 73, 46
1, 329520, Note_on_c, 4, 65, 0
1, 329520, Note_on_c, 4, 64, 46
1, 329710, Note_on_c, 1, 73, 0
1, 329760, Note_on_c, 1, 74, 48
1, 329760, Note_on_c, 4, 64, 0
1, 329760, Note_on_c, 5, 57, 0
1, 329760, Note_on_c, 5, 62, 48
1, 329880, Note_on_c, 3, 65, 49
1, 329950, Note_on_c, 1, 74, 0
1, 330000, Note_on_c, 3, 65, 0
1, 330000, Note_on_c, 3, 69, 49
1, 330120, Note_on_c, 3, 69, 0
1, 330120, Note_on_c, 3, 65, 49
1, 330120, Note_on_c, 5, 62, 0
1, 330240, Note_on_c, 1, 73, 50
1, 330240, Note_on_c, 3, 65, 0
1, 330240, Note_on_c, 5, 57, 50
1, 330335, Note_on_c, 1, 73, 0
1, 330360, Note_on_c, 1, 79, 50
1, 330360, Note_on_c, 3, 64, 50
1, 330455, Note_on_c, 1, 79, 0
1, 330480, Note_on_c, 1, 76, 51
1, 330480, Note_on_c, 3, 64, 0
1, 330480, Note_on_c, 3, 67, 51
1, 330575, Note_on_c, 1, 76, 0
1, 330600, Note_on_c, 1, 73, 51
1, 330600, Note_on_c, 3, 67, 0
1, 330600, Note_on_c, 3, 64, 51
1, 330600, Note_on_c, 5, 57, 0
1, 330695, Note_on_c, 1, 73, 0
1, 330720, Note_on_c, 1, 74, 52
1, 330720, Note_on_c, 3, 64, 0
1, 330720, Note_on_c, 5, 62, 52
1, 330840, Note_on_c, 3, 65, 52
1, 330910, Note_on_c, 1, 74, 0
1, 330960, Note_on_c, 3, 65, 0
1, 330960, Note_on_c, 3, 69, 53
1, 331080, Note_on_c, 3, 69, 0
1, 331080, Note_on_c, 3, 65, 53
1, 331080, Note_on_c, 5, 62, 0
1, 331200, Note_on_c, 1, 73, 54
1, 331200, Note_on_c, 3, 65, 0
1, 331200, Note_on_c, 5, 57, 54
1, 331295, Note_on_c, 1, 73, 0
1, 331320, Note_on_c, 1, 79, 54
1, 331320, Note_on_c, 3, 64, 54
1, 331415, Note_on_c, 1, 79, 0
1, 331440, Note_on_c, 1, 76, 54
1, 331440, Note_on_c, 3, 64, 0
1, 331440, Note_on_c, 3, 67, 54
1, 331535, Note_on_c, 1, 76, 0
1, 331560, Note_on_c, 1, 73, 55
1, 331560, Note_on_c, 3, 67, 0
1, 331560, Note_on_c, 3, 64, 55
1, 331560, Note_on_c, 5, 57, 0
1, 331655, Note_on_c, 1, 73, 0
1, 331680, Note_on_c, 1, 74, 55
1, 331680, Note_on_c, 3, 64, 0
1, 331680, Note_on_c, 5, 62, 55
1, 331800, Note_on_c, 3, 65, 56
1, 331870, Note_on_c, 1, 74, 0
1, 331920, Note_on_c, 3, 65, 0
1, 331920, Note_on_c, 3, 69, 56
1, 332040, Note_on_c, 3, 69, 0
1, 332040, Note_on_c, 3, 65, 57
1, 332040, Note_on_c, 5, 62, 0
1, 332160, Note_on_c, 1, 73, 58
1, 332160, Note_on_c, 3, 65, 0
1, 332160, Note_on_c, 5, 57, 58
1, 332255, Note_on_c, 1, 73, 0
1, 332280, Note_on_c, 1, 79, 59
1, 332280, Note_on_c, 3, 64, 59
1, 332375, Note_on_c, 1, 79, 0
1, 332400, Note_on_c, 1, 76, 61
1, 332400, Note_on_c, 3, 64, 0
1, 332400, Note_on_c, 3, 67, 61
1, 332495, Note_on_c, 1, 76, 0
1, 332520, Note_on_c, 1, 73, 62
1, 332520, Note_on_c, 3, 67, 0
1, 332520, Note_on_c, 3, 64, 62
1, 332520, Note_on_c, 5, 57, 0
1, 332615, Note_on_c, 1, 73, 0
1, 332640, Note_on_c, 1, 74, 63
1, 332640, Note_on_c, 3, 64, 0
1, 332640, Note_on_c, 5, 62, 63
1, 332735, Note_on_c, 1, 74, 0
1, 332760, Note_on_c, 1, 81, 66
1, 332760, Note_on_c, 3, 65, 66
1, 332855, Note_on_c, 1, 81, 0
1, 332880, Note_on_c, 1, 77, 69
1, 332880, Note_on_c, 3, 65, 0
1, 332880, Note_on_c, 3, 69, 69
1, 332975, Note_on_c, 1, 77, 0
1, 333000, Note_on_c, 1, 74, 71
1, 333000, Note_on_c, 3, 69, 0
1, 333000, Note_on_c, 3, 65, 71
1, 333000, Note_on_c, 5, 62, 0
1, 333095, Note_on_c, 1, 74, 0
1, 333120, Note_on_c, 1, 76, 73
1, 333120, Note_on_c, 3, 65, 0
1, 333120, Note_on_c, 5, 60, 73
1, 333215, Note_on_c, 1, 76, 0
1, 333240, Note_on_c, 1, 82, 77
1, 333240, Note_on_c, 3, 67, 77
1, 333335, Note_on_c, 1, 82, 0
1, 333360, Note_on_c, 1, 79, 82
1, 333360, Note_on_c, 3, 67, 0
1, 333360, Note_on_c, 3, 70, 82
1, 333455, Note_on_c, 1, 79, 0
1, 333480, Note_on_c, 1, 76, 90
1, 333480, Note_on_c, 3, 70, 0
1, 333480, Note_on_c, 3, 67, 90
1, 333480, Note_on_c, 5, 60, 0
1, 333636, Note_on_c, 1, 76, 0
1, 333636, Note_on_c, 3, 67, 0
1, 334080, Note_on_c, 1, 84, 69
1, 334080, Note_on_c, 2, 81, 69
1, 334235, Note_on_c, 1, 84, 0
1, 334235, Note_on_c, 2, 81, 0
1, 334320, Note_on_c, 1, 84, 68
1, 334320, Note_on_c, 2, 81, 68
1, 334475, Note_on_c, 1, 84, 0
1, 334475, Note_on_c, 2, 81, 0
1, 334560, Note_on_c, 1, 81, 68
1, 334560, Note_on_c, 2, 77, 68
1, 334560, Note_on_c, 4, 65, 68
1, 334560, Note_on_c, 5, 62, 68
1, 334715, Note_on_c, 1, 81, 0
1, 334715, Note_on_c, 2, 77, 0
1, 334715, Note_on_c, 4, 65, 0
1, 334715, Note_on_c, 5, 62, 0
1, 334800, Note_on_c, 4, 65, 67
1, 334800, Note_on_c, 5, 62, 67
1, 334955, Note_on_c, 4, 65, 0
1, 334955, Note_on_c, 5, 62, 0
1, 335040, Note_on_c, 1, 82, 66
1, 335040, Note_on_c, 2, 79, 66
1, 335040, Note_on_c, 4, 62, 66
1, 335040, Note_on_c, 5, 58, 66
1, 335195, Note_on_c, 1, 82, 0
1, 335195, Note_on_c, 2, 79, 0
1, 335195, Note_on_c, 4, 62, 0
1, 335195, Note_on_c, 5, 58, 0
1, 335280, Note_on_c, 1, 82, 65
1, 335280, Note_on_c, 2, 79, 65
1, 335435, Note_on_c, 1, 82, 0
1, 335435, Note_on_c, 2, 79, 0
1, 335520, Note_on_c, 1, 79, 65
1, 335520, Note_on_c, 2, 76, 65
1, 335520, Note_on_c, 4, 64, 65
1, 335520, Note_on_c, 5, 60, 65
1, 335675, Note_on_c, 1, 79, 0
1, 335675, Note_on_c, 2, 76, 0
1, 335675, Note_on_c, 4, 64, 0
1, 335675, Note_on_c, 5, 60, 0
1, 335760, Note_on_c, 4, 64, 64
1, 335760, Note_on_c, 5, 60, 64
1, 335915, Note_on_c, 4, 64, 0
1, 335915, Note_on_c, 5, 60, 0
1, 336000, Note_on_c, 1, 77, 78
1, 336000, Note_on_c, 4, 60, 64
1, 336000, Note_on_c, 5, 57, 64
1, 336120, Note_on_c, 1, 77, 0
1, 336120, Note_on_c, 1, 79, 79
1, 336155, Note_on_c, 4, 60, 0
1, 336155, Note_on_c, 5, 57, 0
1, 336240, Note_on_c, 1, 79, 0
1, 336240, Note_on_c, 1, 81, 80
1, 336360, Note_on_c, 1, 81, 0
1, 336360, Note_on_c, 1, 77, 82
1, 336480, Note_on_c, 1, 77, 0
1, 336480, Note_on_c, 1, 76, 85
1, 336480, Note_on_c, 5, 58, 85
1, 336600, Note_on_c, 1, 76, 0
1, 336600, Note_on_c, 1, 74, 84
1, 336720, Note_on_c, 1, 74, 0
1, 336720, Note_on_c, 1, 76, 83
1, 336840, Note_on_c, 1, 76, 0
1, 336840, Note_on_c, 1, 78, 82
1, 336960, Note_on_c, 1, 78, 0
1, 336960, Note_on_c, 1, 79, 81
1, 337080, Note_on_c, 1, 79, 0
1, 337080, Note_on_c, 1, 81, 80
1, 337200, Note_on_c, 1, 81, 0
1, 337200, Note_on_c, 1, 82, 79
1, 337200, Note_on_c, 5, 58, 0
1, 337200, Note_on_c, 5, 55, 79
1, 337320, Note_on_c, 1, 82, 0
1, 337320, Note_on_c, 1, 79, 78
1, 337440, Note_on_c, 1, 79, 0
1, 337440, Note_on_c, 1, 77, 78
1, 337440, Note_on_c, 5, 55, 0
1, 337440, Note_on_c, 5, 60, 78
1, 337560, Note_on_c, 1, 77, 0
1, 337560, Note_on_c, 1, 76, 77
1, 337680, Note_on_c, 1, 76, 0
1, 337680, Note_on_c, 1, 74, 76
1, 337680, Note_on_c, 5, 60, 0
1, 337800, Note_on_c, 1, 74, 0
1, 337800, Note_on_c, 1, 72, 75
1, 337920, Note_on_c, 1, 72, 0
1, 337920, Note_on_c, 1, 84, 74
1, 337920, Note_on_c, 2, 81, 74
1, 338075, Note_on_c, 1, 84, 0
1, 338075, Note_on_c, 2, 81, 0
1, 338160, Note_on_c, 1, 84, 63
1, 338160, Note_on_c, 2, 81, 63
1, 338315, Note_on_c, 1, 84, 0
1, 338315, Note_on_c, 2, 81, 0
1, 338400, Note_on_c, 1, 81, 62
1, 338400, Note_on_c, 2, 77, 62
1, 338400, Note_on_c, 4, 65, 62
1, 338400, Note_on_c, 5, 62, 62
1, 338555, Note_on_c, 1, 81, 0
1, 338555, Note_on_c, 2, 77, 0
1, 338555, Note_on_c, 4, 65, 0
1, 338555, Note_on_c, 5, 62, 0
1, 338640, Note_on_c, 4, 65, 61
1, 338640, Note_on_c, 5, 62, 61
1, 338795, Note_on_c, 4, 65, 0
1, 338795, Note_on_c, 5, 62, 0
1, 338880, Note_on_c, 1, 86, 60
1, 338880, Note_on_c, 2, 82, 60
1, 338880, Note_on_c, 4, 58, 60
1, 338880, Note_on_c, 5, 55, 60
1, 339035, Note_on_c, 1, 86, 0
1, 339035, Note_on_c, 2, 82, 0
1, 339035, Note_on_c, 4, 58, 0
1, 339035, Note_on_c, 5, 55, 0
1, 339120, Note_on_c, 1, 86, 60
1, 339120, Note_on_c, 2, 82, 60
1, 339275, Note_on_c, 1, 86, 0
1, 339275, Note_on_c, 2, 82, 0
1, 339360, Note_on_c, 1, 79, 59
1, 339360, Note_on_c, 2, 76, 59
1, 339360, Note_on_c, 4, 64, 59
1, 339360, Note_on_c, 5, 60, 59
1, 339515, Note_on_c, 1, 79, 0
1, 339515, Note_on_c, 2, 76, 0
1, 339515, Note_on_c, 4, 64, 0
1, 339515, Note_on_c, 5, 60, 0
1, 339600, Note_on_c, 4, 64, 58
1, 339600, Note_on_c, 5, 60, 58
1, 339755, Note_on_c, 4, 64, 0
1, 339755, Note_on_c, 5, 60, 0
1, 339840, Note_on_c, 1, 86, 73
1, 339840, Note_on_c, 4, 57, 59
1, 339840, Note_on_c, 5, 53, 59
1, 339960, Note_on_c, 1, 86, 0
1, 339960, Note_on_c, 1, 84, 74
1, 339995, Note_on_c, 4, 57, 0
1, 339995, Note_on_c, 5, 53, 0
1, 340080, Note_on_c, 1, 84, 0
1, 340080, Note_on_c, 1, 82, 76
1, 340200, Note_on_c, 1, 82, 0
1, 340200, Note_on_c, 1, 81, 78
1, 340320, Note_on_c, 1, 81, 0
1, 340320, Note_on_c, 1, 78, 81
1, 340320, Note_on_c, 4, 62, 81
1, 340320, Note_on_c, 5, 58, 81
1, 340440, Note_on_c, 1, 78, 0
1, 340440, Note_on_c, 1, 79, 80
1, 340560, Note_on_c, 1, 79, 0
1, 340560, Note_on_c, 1, 81, 78
1, 340680, Note_on_c, 1, 81, 0
1, 340680, Note_on_c, 1, 82, 77
1, 340800, Note_on_c, 1, 82, 0
1, 340800, Note_on_c, 1, 74, 76
1, 340920, Note_on_c, 1, 74, 0
1, 340920, Note_on_c, 1, 77, 74
1, 341040, Note_on_c, 1, 77, 0
1, 341040, Note_on_c, 1, 76, 73
1, 341040, Note_on_c, 4, 62, 0
1, 341040, Note_on_c, 4, 70, 73
1, 341040, Note_on_c, 5, 58, 0
1, 341040, Note_on_c, 5, 60, 73
1, 341160, Note_on_c, 1, 76, 0
1, 341160, Note_on_c, 1, 79, 72
1, 341280, Note_on_c, 1, 79, 0
1, 341280, Note_on_c, 1, 77, 70
1, 341280, Note_on_c, 4, 70, 0
1, 341280, Note_on_c, 4, 69, 70
1, 341280, Note_on_c, 5, 60, 0
1, 341280, Note_on_c, 5, 65, 70
1, 341435, Note_on_c, 1, 77, 0
1, 341435, Note_on_c, 4, 69, 0
1, 341435, Note_on_c, 5, 65, 0
1, 341520, Note_on_c, 5, 53, 68
1, 341675, Note_on_c, 5, 53, 0
1, 341760, Note_on_c, 1, 76, 43
1, 341760, Note_on_c, 4, 58, 43
1, 341880, Note_on_c, 1, 76, 0
1, 341880, Note_on_c, 1, 82, 46
1, 341880, Note_on_c, 3, 64, 46
1, 342000, Note_on_c, 1, 82, 0
1, 342000, Note_on_c, 1, 79, 49
1, 342000, Note_on_c, 3, 64, 0
1, 342000, Note_on_c, 3, 60, 49
1, 342120, Note_on_c, 1, 79, 0
1, 342120, Note_on_c, 1, 76, 52
1, 342120, Note_on_c, 3, 60, 0
1, 342120, Note_on_c, 3, 64, 52
1, 342120, Note_on_c, 4, 58, 0
1, 342240, Note_on_c, 1, 76, 0
1, 342240, Note_on_c, 1, 86, 56
1, 342240, Note_on_c, 3, 64, 0
1, 342240, Note_on_c, 4, 57, 56
1, 342360, Note_on_c, 1, 86, 0
1, 342360, Note_on_c, 1, 84, 54
1, 342360, Note_on_c, 3, 65, 54
1, 342480, Note_on_c, 1, 84, 0
1, 342480, Note_on_c, 1, 82, 52
1, 342480, Note_on_c, 3, 65, 0
1, 342480, Note_on_c, 3, 60, 52
1, 342600, Note_on_c, 1, 82, 0
1, 342600, Note_on_c, 1, 81, 49
1, 342600, Note_on_c, 3, 60, 0
1, 342600, Note_on_c, 3, 65, 49
1, 342600, Note_on_c, 4, 57, 0
1, 342720, Note_on_c, 1, 81, 0
1, 342720, Note_on_c, 1, 79, 48
1, 342720, Note_on_c, 3, 65, 0
1, 342720, Note_on_c, 4, 58, 48
1, 342840, Note_on_c, 1, 79, 0
1, 342840, Note_on_c, 1, 82, 51
1, 342840, Note_on_c, 3, 64, 51
1, 342960, Note_on_c, 1, 82, 0
1, 342960, Note_on_c, 1, 79, 53
1, 342960, Note_on_c, 3, 64, 0
1, 342960, Note_on_c, 3, 60, 53
1, 343080, Note_on_c, 1, 79, 0
1, 343080, Note_on_c, 1, 76, 56
1, 343080, Note_on_c, 3, 60, 0
1, 343080, Note_on_c, 3, 64, 56
1, 343080, Note_on_c, 4, 58, 0
1, 343200, Note_on_c, 1, 76, 0
1, 343200, Note_on_c, 1, 86, 61
1, 343200, Note_on_c, 3, 64, 0
1, 343200, Note_on_c, 4, 57, 61
1, 343320, Note_on_c, 1, 86, 0
1, 343320, Note_on_c, 1, 84, 59
1, 343320, Note_on_c, 3, 65, 59
1, 343440, Note_on_c, 1, 84, 0
1, 343440, Note_on_c, 1, 82, 57
1, 343440, Note_on_c, 3, 65, 0
1, 343440, Note_on_c, 3, 60, 57
1, 343560, Note_on_c, 1, 82, 0
1, 343560, Note_on_c, 1, 81, 55
1, 343560, Note_on_c, 3, 60, 0
1, 343560, Note_on_c, 3, 65, 55
1, 343560, Note_on_c, 4, 57, 0
1, 343680, Note_on_c, 1, 81, 0
1, 343680, Note_on_c, 1, 89, 72
1, 343680, Note_on_c, 3, 65, 0
1, 343680, Note_on_c, 4, 45, 72
1, 343800, Note_on_c, 1, 89, 0
1, 343800, Note_on_c, 1, 84, 74
1, 343800, Note_on_c, 3, 53, 74
1, 343920, Note_on_c, 1, 84, 0
1, 343920, Note_on_c, 1, 82, 76
1, 343920, Note_on_c, 3, 53, 0
1, 343920, Note_on_c, 3, 48, 76
1, 344040, Note_on_c, 1, 82, 0
1, 344040, Note_on_c, 1, 81, 78
1, 344040, Note_on_c, 3, 48, 0
1, 344040, Note_on_c, 3, 53, 78
1, 344040, Note_on_c, 4, 45, 0
1, 344160, Note_on_c, 1, 81, 0
1, 344160, Note_on_c, 1, 78, 80
1, 344160, Note_on_c, 3, 53, 0
1, 344160, Note_on_c, 4, 46, 80
1, 344280, Note_on_c, 1, 78, 0
1, 344280, Note_on_c, 1, 79, 78
1, 344280, Note_on_c, 3, 55, 78
1, 344400, Note_on_c, 1, 82, 77
1, 344400, Note_on_c, 3, 55, 0
1, 344400, Note_on_c, 3, 50, 77
1, 344407, Note_on_c, 1, 79, 0
1, 344520, Note_on_c, 1, 82, 0
1, 344520, Note_on_c, 1, 86, 76
1, 344520, Note_on_c, 3, 50, 0
1, 344520, Note_on_c, 3, 55, 76
1, 344520, Note_on_c, 4, 46, 0
1, 344640, Note_on_c, 1, 84, 75
1, 344640, Note_on_c, 3, 55, 0
1, 344640, Note_on_c, 4, 48, 75
1, 344655, Note_on_c, 1, 86, 0
1, 344760, Note_on_c, 1, 84, 0
1, 344760, Note_on_c, 1, 76, 74
1, 344760, Note_on_c, 3, 58, 74
1, 344880, Note_on_c, 1, 76, 0
1, 344880, Note_on_c, 1, 79, 73
1, 344880, Note_on_c, 3, 58, 0
1, 344880, Note_on_c, 3, 55, 73
1, 345000, Note_on_c, 1, 79, 0
1, 345000, Note_on_c, 1, 76, 72
1, 345000, Note_on_c, 3, 55, 0
1, 345000, Note_on_c, 3, 58, 72
1, 345000, Note_on_c, 4, 48, 0
1, 345120, Note_on_c, 1, 77, 71
1, 345120, Note_on_c, 3, 58, 0
1, 345120, Note_on_c, 4, 53, 71
1, 345135, Note_on_c, 1, 76, 0
1, 345240, Note_on_c, 3, 57, 70
1, 345360, Note_on_c, 1, 77, 0
1, 345360, Note_on_c, 3, 57, 0
1, 345360, Note_on_c, 3, 60, 68
1, 345480, Note_on_c, 3, 60, 0
1, 345480, Note_on_c, 3, 57, 67
1, 345480, Note_on_c, 4, 53, 0
1, 345600, Note_on_c, 1, 64, 66
1, 345600, Note_on_c, 3, 57, 0
1, 345600, Note_on_c, 4, 58, 66
1, 345720, Note_on_c, 1, 64, 0
1, 345720, Note_on_c, 1, 70, 69
1, 345720, Note_on_c, 3, 60, 69
1, 345840, Note_on_c, 1, 70, 0
1, 345840, Note_on_c, 1, 67, 71
1, 345840, Note_on_c, 3, 60, 0
1, 345840, Note_on_c, 3, 58, 71
1, 345960, Note_on_c, 1, 67, 0
1, 345960, Note_on_c, 1, 64, 73
1, 345960, Note_on_c, 3, 58, 0
1, 345960, Note_on_c, 3, 60, 73
1, 345960, Note_on_c, 4, 58, 0
1, 346080, Note_on_c, 1, 64, 0
1, 346080, Note_on_c, 1, 74, 77
1, 346080, Note_on_c, 3, 60, 0
1, 346080, Note_on_c, 4, 57, 77
1, 346200, Note_on_c, 1, 74, 0
1, 346200, Note_on_c, 1, 72, 75
1, 346200, Note_on_c, 3, 60, 75
1, 346320, Note_on_c, 1, 72, 0
1, 346320, Note_on_c, 1, 70, 73
1, 346320, Note_on_c, 3, 60, 0
1, 346320, Note_on_c, 3, 65, 73
1, 346440, Note_on_c, 1, 70, 0
1, 346440, Note_on_c, 1, 69, 71
1, 346440, Note_on_c, 3, 65, 0
1, 346440, Note_on_c, 3, 60, 71
1, 346440, Note_on_c, 4, 57, 0
1, 346560, Note_on_c, 1, 69, 0
1, 346560, Note_on_c, 1, 66, 70
1, 346560, Note_on_c, 3, 60, 0
1, 346560, Note_on_c, 4, 58, 70
1, 346680, Note_on_c, 1, 66, 0
1, 346680, Note_on_c, 1, 67, 72
1, 346680, Note_on_c, 3, 60, 72
1, 346800, Note_on_c, 1, 67, 0
1, 346800, Note_on_c, 1, 69, 75
1, 346800, Note_on_c, 3, 60, 0
1, 346800, Note_on_c, 3, 64, 75
1, 346920, Note_on_c, 1, 69, 0
1, 346920, Note_on_c, 1, 70, 78
1, 346920, Note_on_c, 3, 64, 0
1, 346920, Note_on_c, 3, 60, 78
1, 346920, Note_on_c, 4, 58, 0
1, 347040, Note_on_c, 1, 70, 0
1, 347040, Note_on_c, 1, 74, 82
1, 347040, Note_on_c, 3, 60, 0
1, 347040, Note_on_c, 4, 57, 82
1, 347160, Note_on_c, 1, 74, 0
1, 347160, Note_on_c, 1, 72, 80
1, 347160, Note_on_c, 3, 60, 80
1, 347280, Note_on_c, 1, 72, 0
1, 347280, Note_on_c, 1, 71, 78
1, 347280, Note_on_c, 3, 60, 0
1, 347280, Note_on_c, 3, 65, 78
1, 347400, Note_on_c, 1, 71, 0
1, 347400, Note_on_c, 1, 72, 75
1, 347400, Note_on_c, 3, 65, 0
1, 347400, Note_on_c, 3, 60, 75
1, 347400, Note_on_c, 4, 57, 0
1, 347520, Note_on_c, 1, 72, 0
1, 347520, Note_on_c, 1, 77, 88
1, 347520, Note_on_c, 3, 60, 0
1, 347520, Note_on_c, 4, 45, 88
1, 347640, Note_on_c, 1, 77, 0
1, 347640, Note_on_c, 1, 72, 90
1, 347640, Note_on_c, 3, 53, 90
1, 347760, Note_on_c, 1, 72, 0
1, 347760, Note_on_c, 1, 70, 92
1, 347760, Note_on_c, 3, 53, 0
1, 347760, Note_on_c, 3, 48, 92
1, 347880, Note_on_c, 1, 70, 0
1, 347880, Note_on_c, 1, 69, 94
1, 347880, Note_on_c, 3, 48, 0
1, 347880, Note_on_c, 3, 53, 94
1, 347880, Note_on_c, 4, 45, 0
1, 348000, Note_on_c, 1, 69, 0
1, 348000, Note_on_c, 1, 66, 97
1, 348000, Note_on_c, 3, 53, 0
1, 348000, Note_on_c, 4, 46, 97
1, 348120, Note_on_c, 1, 66, 0
1, 348120, Note_on_c, 1, 67, 95
1, 348120, Note_on_c, 3, 55, 95
1, 348200, Note_on_c, 1, 67, 0
1, 348240, Note_on_c, 1, 70, 93
1, 348240, Note_on_c, 3, 55, 0
1, 348240, Note_on_c, 3, 50, 93
1, 348320, Note_on_c, 1, 70, 0
1, 348360, Note_on_c, 1, 74, 91
1, 348360, Note_on_c, 3, 50, 0
1, 348360, Note_on_c, 3, 55, 91
1, 348360, Note_on_c, 4, 46, 0
1, 348440, Note_on_c, 1, 74, 0
1, 348480, Note_on_c, 1, 72, 89
1, 348480, Note_on_c, 3, 55, 0
1, 348480, Note_on_c, 4, 48, 89
1, 348600, Note_on_c, 1, 72, 0
1, 348600, Note_on_c, 1, 70, 87
1, 348600, Note_on_c, 3, 58, 87
1, 348680, Note_on_c, 1, 70, 0
1, 348720, Note_on_c, 1, 67, 85
1, 348720, Note_on_c, 3, 58, 0
1, 348720, Note_on_c, 3, 55, 85
1, 348800, Note_on_c, 1, 67, 0
1, 348840, Note_on_c, 1, 64, 84
1, 348840, Note_on_c, 3, 55, 0
1, 348840, Note_on_c, 3, 58, 84
1, 348840, Note_on_c, 4, 48, 0
1, 348920, Note_on_c, 1, 64, 0
1, 348960, Note_on_c, 1, 65, 80
1, 348960, Note_on_c, 3, 58, 0
1, 348960, Note_on_c, 4, 57, 80
1, 348960, Note_on_c, 5, 53, 80
1, 349069, Note_on_c, 1, 65, 0
1, 349080, Note_on_c, 1, 60, 81
1, 349189, Note_on_c, 1, 60, 0
1, 349200, Note_on_c, 1, 69, 82
1, 349200, Note_on_c, 4, 57, 0
1, 349200, Note_on_c, 5, 53, 0
1, 349309, Note_on_c, 1, 69, 0
1, 349320, Note_on_c, 1, 65, 83
1, 349429, Note_on_c, 1, 65, 0
1, 349440, Note_on_c, 1, 72, 84
1, 349549, Note_on_c, 1, 72, 0
1, 349560, Note_on_c, 1, 69, 85
1, 349669, Note_on_c, 1, 69, 0
1, 349680, Note_on_c, 1, 77, 87
1, 349789, Note_on_c, 1, 77, 0
1, 349800, Note_on_c, 1, 72, 88
1, 349909, Note_on_c, 1, 72, 0
1, 349920, Note_on_c, 1, 81, 89
1, 350029, Note_on_c, 1, 81, 0
1, 350040, Note_on_c, 1, 77, 90
1, 350149, Note_on_c, 1, 77, 0
1, 350160, Note_on_c, 1, 84, 91
1, 350269, Note_on_c, 1, 84, 0
1, 350280, Note_on_c, 1, 81, 92
1, 350389, Note_on_c, 1, 81, 0
1, 350400, Note_on_c, 1, 82, 93
1, 350400, Note_on_c, 4, 55, 93
1, 350400, Note_on_c, 4, 52, 93
1, 350400, Note_on_c, 5, 48, 93
1, 350509, Note_on_c, 1, 82, 0
1, 350520, Note_on_c, 1, 79, 95
1, 350520, Note_on_c, 4, 52, 0
1, 350520, Note_on_c, 4, 55, 0
1, 350520, Note_on_c, 5, 48, 0
1, 350629, Note_on_c, 1, 79, 0
1, 350640, Note_on_c, 1, 76, 96
1, 350640, Note_on_c, 4, 55, 96
1, 350640, Note_on_c, 4, 58, 96
1, 350640, Note_on_c, 5, 48, 96
1, 350749, Note_on_c, 1, 76, 0
1, 350760, Note_on_c, 1, 79, 97
1, 350760, Note_on_c, 4, 58, 0
1, 350760, Note_on_c, 4, 55, 0
1, 350760, Note_on_c, 5, 48, 0
1, 350869, Note_on_c, 1, 79, 0
1, 350880, Note_on_c, 1, 77, 98
1, 350880, Note_on_c, 4, 57, 98
1, 350880, Note_on_c, 5, 53, 98
1, 350960, Note_on_c, 1, 77, 0
1, 351000, Note_on_c, 1, 81, 99
1, 351080, Note_on_c, 1, 81, 0
1, 351120, Note_on_c, 1, 72, 100
1, 351200, Note_on_c, 1, 72, 0
1, 351240, Note_on_c, 1, 77, 101
1, 351320, Note_on_c, 1, 77, 0
1, 351360, Note_on_c, 1, 69, 102
1, 351360, Note_on_c, 4, 57, 0
1, 351360, Note_on_c, 5, 53, 0
1, 351440, Note_on_c, 1, 69, 0
1, 351480, Note_on_c, 1, 72, 104
1, 351560, Note_on_c, 1, 72, 0
1, 351600, Note_on_c, 1, 65, 105
1, 351680, Note_on_c, 1, 65, 0
1, 351720, Note_on_c, 1, 69, 106
1, 351800, Note_on_c, 1, 69, 0
1, 351840, Note_on_c, 1, 60, 107
1, 351920, Note_on_c, 1, 60, 0
1, 351960, Note_on_c, 1, 65, 108
1, 352040, Note_on_c, 1, 65, 0
1, 352080, Note_on_c, 1, 69, 109
1, 352160, Note_on_c, 1, 69, 0
1, 352200, Note_on_c, 1, 72, 110
1, 352280, Note_on_c, 1, 72, 0
1, 352320, Note_on_c, 1, 70, 112
1, 352320, Note_on_c, 4, 55, 112
1, 352320, Note_on_c, 4, 52, 112
1, 352320, Note_on_c, 5, 48, 112
1, 352440, Note_on_c, 1, 70, 0
1, 352440, Note_on_c, 1, 67, 113
1, 352440, Note_on_c, 4, 52, 0
1, 352440, Note_on_c, 4, 55, 0
1, 352440, Note_on_c, 5, 48, 0
1, 352520, Note_on_c, 1, 67, 0
1, 352560, Note_on_c, 1, 64, 114
1, 352560, Note_on_c, 4, 55, 114
1, 352560, Note_on_c, 4, 58, 114
1, 352560, Note_on_c, 5, 48, 114
1, 352640, Note_on_c, 1, 64, 0
1, 352680, Note_on_c, 1, 67, 115
1, 352680, Note_on_c, 4, 58, 0
1, 352680, Note_on_c, 4, 55, 0
1, 352680, Note_on_c, 5, 48, 0
1, 352760, Note_on_c, 1, 67, 0
1, 352800, Note_on_c, 1, 65, 116
1, 352800, Note_on_c, 4, 57, 116
1, 352800, Note_on_c, 5, 53, 116
1, 352955, Note_on_c, 1, 65, 0
1, 352980, Note_on_c, 4, 57, 0
1, 352980, Note_on_c, 5, 53, 0
1, 353280, Note_on_c, 4, 60, 51
1, 353280, Note_on_c, 5, 57, 51
1, 353376, Note_on_c, 4, 60, 0
1, 353376, Note_on_c, 5, 57, 0
1, 353520, Note_on_c, 4, 60, 49
1, 353520, Note_on_c, 5, 57, 49
1, 353616, Note_on_c, 4, 60, 0
1, 353616, Note_on_c, 5, 57, 0
1, 353760, Note_on_c, 4, 57, 47
1, 353760, Note_on_c, 5, 53, 47
1, 353928, Note_on_c, 4, 57, 0
1, 353928, Note_on_c, 5, 53, 0
1, 354240, Note_on_c, 1, 81, 43
1, 354240, Note_on_c, 2, 72, 43
1, 354360, Note_on_c, 1, 81, 0
1, 354360, Note_on_c, 2, 72, 0
1, 354480, Note_on_c, 1, 81, 40
1, 354480, Note_on_c, 2, 72, 40
1, 354600, Note_on_c, 1, 81, 0
1, 354600, Note_on_c, 2, 72, 0
1, 354720, Note_on_c, 1, 77, 38
1, 354720, Note_on_c, 2, 69, 38
1, 354900, Note_on_c, 1, 77, 0
1, 354900, Note_on_c, 2, 69, 0
1, 355200, Note_on_c, 1, 89, 120
1, 355200, Note_on_c, 2, 81, 120
1, 355200, Note_on_c, 2, 77, 120
1, 355200, Note_on_c, 2, 84, 120
1, 355200, Note_on_c, 4, 60, 120
1, 355200, Note_on_c, 4, 57, 120
1, 355200, Note_on_c, 5, 53, 120
1, 355200, Note_on_c, 5, 65, 120
1, 355560, Note_on_c, 1, 89, 0
1, 355560, Note_on_c, 2, 84, 0
1, 355560, Note_on_c, 2, 77, 0
1, 355560, Note_on_c, 2, 81, 0
1, 355560, Note_on_c, 4, 57, 0
1, 355560, Note_on_c, 4, 60, 0
1, 355560, Note_on_c, 5, 65, 0
1, 355560, Note_on_c, 5, 53, 0
1, 355680, Note_on_c, 1, 65, 121
1, 355680, Note_on_c, 2, 60, 121
1, 355680, Note_on_c, 2, 57, 121
1, 355680, Note_on_c, 5, 41, 121
1, 355680, Note_on_c, 5, 29, 121
1, 356160, Note_on_c, 1, 65, 0
1, 356160, Note_on_c, 2, 57, 0
1, 356160, Note_on_c, 2, 60, 0
1, 356160, Note_on_c, 5, 29, 0
1, 356160, Note_on_c, 5, 41, 0
1, 356170, End_track
0, 0, End_of_file