0, 0, Header, 0, 1, 480
1, 0, Start_track
1, 0, Tempo, 461538
1, 1440, Note_on_c, 0, 65, 80
1, 1440, Note_on_c, 1, 53, 80
1, 1656, Note_on_c, 1, 53, 0
1, 1680, Note_on_c, 1, 57, 80
1, 1896, Note_on_c, 1, 57, 0
1, 1920, Note_on_c, 1, 60, 80
1, 2136, Note_on_c, 1, 60, 0
1, 2160, Note_on_c, 1, 57, 80
1, 2376, Note_on_c, 1, 57, 0
1, 2400, Note_on_c, 0, 65, 0
1, 2400, Note_on_c, 0, 69, 80
1, 2400, Note_on_c, 1, 60, 80
1, 2616, Note_on_c, 1, 60, 0
1, 2640, Note_on_c, 1, 57, 80
1, 2856, Note_on_c, 1, 57, 0
1, 2880, Note_on_c, 0, 69, 0
1, 2880, Note_on_c, 0, 72, 80
1, 2880, Note_on_c, 1, 53, 80
1, 3096, Note_on_c, 1, 53, 0
1, 3120, Note_on_c, 1, 60, 80
1, 3336, Note_on_c, 1, 60, 0
1, 3360, Note_on_c, 1, 63, 80
1, 3576, Note_on_c, 1, 63, 0
1, 3600, Note_on_c, 1, 60, 80
1, 3816, Note_on_c, 1, 60, 0
1, 3840, Note_on_c, 0, 72, 0
1, 3840, Note_on_c, 0, 69, 80
1, 3840, Note_on_c, 1, 63, 80
1, 4056, Note_on_c, 1, 63, 0
1, 4080, Note_on_c, 1, 60, 80
1, 4296, Note_on_c, 1, 60, 0
1, 4320, Note_on_c, 0, 69, 0
1, 4320, Note_on_c, 0, 70, 80
1, 4320, Note_on_c, 1, 53, 80
1, 4536, Note_on_c, 1, 53, 0
1, 4560, Note_on_c, 1, 58, 80
1, 4776, Note_on_c, 1, 58, 0
1, 4800, Note_on_c, 1, 62, 80
1, 5016, Note_on_c, 1, 62, 0
1, 5040, Note_on_c, 1, 58, 80
1, 5256, Note_on_c, 1, 58, 0
1, 5280, Note_on_c, 0, 70, 0
1, 5280, Note_on_c, 0, 79, 80
1, 5280, Note_on_c, 1, 62, 80
1, 5496, Note_on_c, 1, 62, 0
1, 5520, Note_on_c, 1, 58, 80
1, 5736, Note_on_c, 1, 58, 0
1, 5760, Note_on_c, 0, 79, 0
1, 5760, Note_on_c, 0, 77, 80
1, 5760, Note_on_c, 1, 53, 80
1, 5976, Note_on_c, 1, 53, 0
1, 6000, Note_on_c, 0, 77, 0
1, 6000, Note_on_c, 0, 76, 80
1, 6000, Note_on_c, 1, 55, 80
1, 6216, Note_on_c, 1, 55, 0
1, 6240, Note_on_c, 0, 76, 0
1, 6240, Tempo, 476190
1, 6240, Note_on_c, 0, 76, 80
1, 6240, Note_on_c, 1, 58, 80
1, 6456, Note_on_c, 1, 58, 0
1, 6480, Note_on_c, 1, 55, 80
1, 6672, Note_on_c, 0, 76, 0
1, 6696, Note_on_c, 1, 55, 0
1, 6720, Note_on_c, 1, 58, 80
1, 6936, Note_on_c, 1, 58, 0
1, 6960, Note_on_c, 1, 55, 80
1, 7176, Note_on_c, 1, 55, 0
1, 7200, Note_on_c, 0, 77, 75
1, 7200, Note_on_c, 1, 53, 80
1, 7200, Note_on_c, 1, 57, 80
1, 7632, Note_on_c, 1, 53, 0
1, 7632, Note_on_c, 1, 57, 0
1, 7675, Note_on_c, 0, 77, 0
1, 7680, Tempo, 461538
1, 7680, Note_on_c, 0, 69, 69
1, 8155, Note_on_c, 0, 69, 0
1, 8160, Note_on_c, 0, 74, 68
1, 8635, Note_on_c, 0, 74, 0
1, 8640, Tempo, 476190
1, 8640, Note_on_c, 0, 67, 68
1, 9115, Note_on_c, 0, 67, 0
1, 9120, Tempo, 461538
1, 9120, Note_on_c, 0, 72, 75
1, 9834, Note_on_c, 0, 72, 0
1, 9840, Note_on_c, 0, 69, 73
1, 10077, Note_on_c, 0, 69, 0
1, 10080, Note_on_c, 0, 65, 72
1, 10080, Note_on_c, 1, 53, 80
1, 10512, Note_on_c, 1, 53, 0
1, 10560, Note_on_c, 1, 45, 80
1, 10992, Note_on_c, 1, 45, 0
1, 11040, Note_on_c, 1, 50, 80
1, 11376, Note_on_c, 0, 65, 0
1, 11472, Note_on_c, 1, 50, 0
1, 11520, Note_on_c, 0, 65, 75
1, 11520, Note_on_c, 0, 67, 75
1, 11520, Note_on_c, 1, 43, 80
1, 11952, Note_on_c, 0, 65, 0
1, 11952, Note_on_c, 1, 43, 0
1, 12000, Note_on_c, 0, 64, 59
1, 12000, Note_on_c, 1, 48, 80
1, 12036, Note_on_c, 0, 64, 0
1, 12040, Note_on_c, 0, 65, 59
1, 12076, Note_on_c, 0, 65, 0
1, 12080, Note_on_c, 0, 64, 59
1, 12116, Note_on_c, 0, 64, 0
1, 12120, Note_on_c, 0, 65, 59
1, 12156, Note_on_c, 0, 65, 0
1, 12160, Note_on_c, 0, 64, 59
1, 12196, Note_on_c, 0, 64, 0
1, 12200, Note_on_c, 0, 65, 59
1, 12236, Note_on_c, 0, 65, 0
1, 12240, Note_on_c, 0, 62, 61
1, 12456, Note_on_c, 0, 62, 0
1, 12480, Note_on_c, 0, 64, 80
1, 12648, Note_on_c, 1, 48, 0
1, 12720, Note_on_c, 1, 45, 80
1, 12816, Note_on_c, 0, 67, 0
1, 12912, Note_on_c, 0, 64, 0
1, 12936, Note_on_c, 1, 45, 0
1, 12960, Note_on_c, 0, 69, 79
1, 12960, Note_on_c, 0, 65, 79
1, 12960, Note_on_c, 1, 41, 80
1, 13392, Note_on_c, 0, 69, 0
1, 13392, Note_on_c, 1, 41, 0
1, 13440, Note_on_c, 0, 70, 81
1, 13440, Note_on_c, 1, 50, 80
1, 13872, Note_on_c, 0, 70, 0
1, 13872, Note_on_c, 1, 50, 0
1, 13920, Note_on_c, 0, 74, 84
1, 13920, Note_on_c, 1, 46, 83
1, 14256, Note_on_c, 0, 65, 0
1, 14352, Note_on_c, 0, 74, 0
1, 14352, Note_on_c, 1, 46, 0
1, 14400, Note_on_c, 0, 74, 86
1, 14400, Note_on_c, 0, 65, 86
1, 14400, Note_on_c, 1, 45, 85
1, 14616, Note_on_c, 0, 74, 0
1, 14640, Note_on_c, 0, 72, 85
1, 14832, Note_on_c, 0, 65, 0
1, 14832, Note_on_c, 1, 45, 0
1, 14856, Note_on_c, 0, 72, 0
1, 14880, Note_on_c, 0, 70, 85
1, 15096, Note_on_c, 0, 70, 0
1, 15120, Note_on_c, 0, 69, 84
1, 15336, Note_on_c, 0, 69, 0
1, 15360, Note_on_c, 0, 67, 83
1, 15360, Note_on_c, 1, 50, 82
1, 15576, Note_on_c, 0, 67, 0
1, 15600, Note_on_c, 0, 65, 82
1, 15792, Note_on_c, 1, 50, 0
1, 15816, Note_on_c, 0, 65, 0
1, 15840, Tempo, 483870
1, 15840, Note_on_c, 0, 67, 85
1, 15840, Note_on_c, 1, 46, 85
1, 16272, Note_on_c, 0, 67, 0
1, 16272, Note_on_c, 1, 46, 0
1, 16320, Tempo, 476190
1, 16320, Note_on_c, 0, 70, 85
1, 16602, Note_on_c, 0, 70, 0
1, 16800, Note_on_c, 0, 64, 85
1, 16800, Note_on_c, 0, 58, 85
1, 16800, Note_on_c, 1, 48, 85
1, 17232, Note_on_c, 0, 64, 0
1, 17232, Note_on_c, 0, 58, 0
1, 17232, Note_on_c, 1, 48, 0
1, 17280, Tempo, 500000
1, 17280, Note_on_c, 0, 65, 85
1, 17280, Note_on_c, 0, 57, 85
1, 17280, Note_on_c, 1, 41, 85
1, 17712, Note_on_c, 0, 65, 0
1, 17712, Note_on_c, 0, 57, 0
1, 17712, Note_on_c, 1, 41, 0
1, 18240, Tempo, 461538
1, 18240, Note_on_c, 0, 84, 80
1, 18240, Note_on_c, 1, 72, 81
1, 18240, Note_on_c, 1, 69, 81
1, 18564, Note_on_c, 0, 84, 0
1, 18564, Note_on_c, 1, 72, 0
1, 18564, Note_on_c, 1, 69, 0
1, 18600, Note_on_c, 0, 82, 80
1, 18600, Note_on_c, 1, 70, 81
1, 18600, Note_on_c, 1, 67, 81
1, 18708, Note_on_c, 0, 82, 0
1, 18708, Note_on_c, 1, 70, 0
1, 18708, Note_on_c, 1, 67, 0
1, 18720, Note_on_c, 0, 81, 72
1, 18720, Note_on_c, 1, 69, 81
1, 18720, Note_on_c, 1, 65, 81
1, 18993, Note_on_c, 0, 81, 0
1, 18993, Note_on_c, 1, 69, 0
1, 18993, Note_on_c, 1, 65, 0
1, 19200, Note_on_c, 0, 81, 74
1, 19200, Note_on_c, 1, 65, 81
1, 19200, Note_on_c, 1, 69, 81
1, 19473, Note_on_c, 0, 81, 0
1, 19473, Note_on_c, 1, 65, 0
1, 19473, Note_on_c, 1, 69, 0
1, 19680, Note_on_c, 0, 81, 80
1, 19680, Note_on_c, 1, 69, 81
1, 19680, Note_on_c, 1, 65, 81
1, 20004, Note_on_c, 0, 81, 0
1, 20004, Note_on_c, 1, 69, 0
1, 20004, Note_on_c, 1, 65, 0
1, 20040, Note_on_c, 0, 79, 80
1, 20040, Note_on_c, 1, 67, 81
1, 20040, Note_on_c, 1, 60, 81
1, 20148, Note_on_c, 0, 79, 0
1, 20148, Note_on_c, 1, 67, 0
1, 20148, Note_on_c, 1, 60, 0
1, 20160, Note_on_c, 0, 77, 72
1, 20160, Note_on_c, 1, 57, 81
1, 20160, Note_on_c, 1, 65, 81
1, 20433, Note_on_c, 0, 77, 0
1, 20433, Note_on_c, 1, 57, 0
1, 20433, Note_on_c, 1, 65, 0
1, 20640, Note_on_c, 0, 77, 71
1, 20640, Note_on_c, 1, 57, 81
1, 20640, Note_on_c, 1, 65, 81
1, 20913, Note_on_c, 0, 77, 0
1, 20913, Note_on_c, 1, 57, 0
1, 20913, Note_on_c, 1, 65, 0
1, 21120, Note_on_c, 0, 77, 80
1, 21120, Note_on_c, 1, 57, 81
1, 21120, Note_on_c, 1, 65, 81
1, 21552, Note_on_c, 0, 77, 0
1, 21552, Note_on_c, 1, 57, 0
1, 21552, Note_on_c, 1, 65, 0
1, 21600, Note_on_c, 0, 76, 80
1, 21600, Note_on_c, 0, 79, 80
1, 21600, Note_on_c, 1, 60, 81
1, 21600, Note_on_c, 1, 67, 81
1, 21873, Note_on_c, 0, 76, 0
1, 21873, Note_on_c, 0, 79, 0
1, 21873, Note_on_c, 1, 60, 0
1, 21873, Note_on_c, 1, 67, 0
1, 22080, Note_on_c, 0, 76, 80
1, 22080, Note_on_c, 0, 79, 80
1, 22080, Note_on_c, 1, 60, 81
1, 22080, Note_on_c, 1, 67, 81
1, 22353, Note_on_c, 0, 76, 0
1, 22353, Note_on_c, 0, 79, 0
1, 22353, Note_on_c, 1, 60, 0
1, 22353, Note_on_c, 1, 67, 0
1, 22560, Note_on_c, 0, 76, 80
1, 22560, Note_on_c, 0, 79, 80
1, 22560, Note_on_c, 1, 60, 81
1, 22560, Note_on_c, 1, 67, 81
1, 22833, Note_on_c, 0, 76, 0
1, 22833, Note_on_c, 0, 79, 0
1, 22833, Note_on_c, 1, 60, 0
1, 22833, Note_on_c, 1, 67, 0
1, 23040, Note_on_c, 0, 76, 80
1, 23040, Note_on_c, 0, 79, 80
1, 23040, Note_on_c, 1, 67, 81
1, 23040, Note_on_c, 1, 60, 81
1, 23472, Note_on_c, 0, 76, 0
1, 23472, Note_on_c, 0, 79, 0
1, 23472, Note_on_c, 1, 67, 0
1, 23472, Note_on_c, 1, 60, 0
1, 23520, Note_on_c, 0, 81, 80
1, 23520, Note_on_c, 0, 77, 80
1, 23520, Note_on_c, 1, 69, 81
1, 23520, Note_on_c, 1, 65, 81
1, 23952, Note_on_c, 0, 81, 0
1, 23952, Note_on_c, 0, 77, 0
1, 23952, Note_on_c, 1, 69, 0
1, 23952, Note_on_c, 1, 65, 0
1, 24000, Note_on_c, 0, 84, 83
1, 24000, Note_on_c, 1, 72, 83
1, 24000, Note_on_c, 1, 69, 83
1, 24108, Note_on_c, 0, 84, 0
1, 24120, Note_on_c, 0, 86, 83
1, 24228, Note_on_c, 0, 86, 0
1, 24240, Note_on_c, 0, 84, 83
1, 24324, Note_on_c, 1, 72, 0
1, 24324, Note_on_c, 1, 69, 0
1, 24348, Note_on_c, 0, 84, 0
1, 24360, Note_on_c, 0, 82, 83
1, 24360, Note_on_c, 1, 70, 83
1, 24360, Note_on_c, 1, 67, 83
1, 24468, Note_on_c, 0, 82, 0
1, 24468, Note_on_c, 1, 70, 0
1, 24468, Note_on_c, 1, 67, 0
1, 24480, Note_on_c, 0, 81, 80
1, 24480, Note_on_c, 1, 69, 81
1, 24480, Note_on_c, 1, 65, 81
1, 24756, Note_on_c, 0, 81, 0
1, 24756, Note_on_c, 1, 69, 0
1, 24756, Note_on_c, 1, 65, 0
1, 24960, Note_on_c, 0, 81, 80
1, 24960, Note_on_c, 1, 65, 81
1, 24960, Note_on_c, 1, 69, 81
1, 25236, Note_on_c, 0, 81, 0
1, 25236, Note_on_c, 1, 65, 0
1, 25236, Note_on_c, 1, 69, 0
1, 25440, Note_on_c, 0, 81, 83
1, 25440, Note_on_c, 1, 69, 83
1, 25440, Note_on_c, 1, 65, 83
1, 25548, Note_on_c, 0, 81, 0
1, 25560, Note_on_c, 0, 82, 83
1, 25668, Note_on_c, 0, 82, 0
1, 25680, Note_on_c, 0, 81, 83
1, 25764, Note_on_c, 1, 69, 0
1, 25764, Note_on_c, 1, 65, 0
1, 25788, Note_on_c, 0, 81, 0
1, 25800, Note_on_c, 0, 79, 83
1, 25800, Note_on_c, 1, 67, 83
1, 25800, Note_on_c, 1, 60, 83
1, 25908, Note_on_c, 0, 79, 0
1, 25908, Note_on_c, 1, 67, 0
1, 25908, Note_on_c, 1, 60, 0
1, 25920, Note_on_c, 0, 77, 80
1, 25920, Note_on_c, 1, 57, 81
1, 25920, Note_on_c, 1, 65, 81
1, 26196, Note_on_c, 0, 77, 0
1, 26196, Note_on_c, 1, 57, 0
1, 26196, Note_on_c, 1, 65, 0
1, 26400, Note_on_c, 0, 77, 80
1, 26400, Note_on_c, 1, 57, 81
1, 26400, Note_on_c, 1, 65, 81
1, 26676, Note_on_c, 0, 77, 0
1, 26676, Note_on_c, 1, 57, 0
1, 26676, Note_on_c, 1, 65, 0
1, 26880, Note_on_c, 0, 77, 80
1, 26880, Note_on_c, 1, 57, 81
1, 26880, Note_on_c, 1, 65, 81
1, 27156, Note_on_c, 0, 77, 0
1, 27156, Note_on_c, 1, 57, 0
1, 27156, Note_on_c, 1, 65, 0
1, 27360, Tempo, 500000
1, 27360, Tempo, 483870
1, 27360, Note_on_c, 0, 79, 80
1, 27360, Note_on_c, 1, 60, 78
1, 27360, Note_on_c, 1, 67, 78
1, 27792, Note_on_c, 0, 79, 0
1, 27792, Note_on_c, 1, 60, 0
1, 27792, Note_on_c, 1, 67, 0
1, 27840, Tempo, 468750
1, 27840, Note_on_c, 0, 82, 76
1, 28122, Note_on_c, 0, 82, 0
1, 28320, Note_on_c, 0, 70, 75
1, 28320, Note_on_c, 0, 76, 75
1, 28320, Note_on_c, 1, 60, 78
1, 28320, Note_on_c, 1, 67, 78
1, 28752, Note_on_c, 0, 70, 0
1, 28752, Note_on_c, 0, 76, 0
1, 28752, Note_on_c, 1, 60, 0
1, 28752, Note_on_c, 1, 67, 0
1, 28800, Tempo, 483870
1, 28800, Note_on_c, 0, 69, 80
1, 28800, Note_on_c, 0, 77, 80
1, 28800, Note_on_c, 1, 65, 80
1, 29232, Note_on_c, 0, 69, 0
1, 29232, Note_on_c, 0, 77, 0
1, 29232, Note_on_c, 1, 65, 0
1, 29760, Tempo, 461538
1, 29760, Note_on_c, 0, 84, 82
1, 29760, Note_on_c, 1, 60, 82
1, 29760, Note_on_c, 1, 70, 82
1, 29760, Note_on_c, 1, 64, 82
1, 30192, Note_on_c, 0, 84, 0
1, 30192, Note_on_c, 1, 60, 0
1, 30192, Note_on_c, 1, 70, 0
1, 30192, Note_on_c, 1, 64, 0
1, 30240, Note_on_c, 0, 77, 82
1, 30240, Note_on_c, 1, 69, 82
1, 30240, Note_on_c, 1, 65, 82
1, 30516, Note_on_c, 0, 77, 0
1, 30516, Note_on_c, 1, 69, 0
1, 30516, Note_on_c, 1, 65, 0
1, 31200, Tempo, 468750
1, 31200, Note_on_c, 0, 72, 80
1, 31200, Note_on_c, 1, 58, 80
1, 31200, Note_on_c, 1, 48, 80
1, 31200, Note_on_c, 1, 52, 80
1, 31632, Note_on_c, 0, 72, 0
1, 31632, Note_on_c, 1, 58, 0
1, 31632, Note_on_c, 1, 48, 0
1, 31632, Note_on_c, 1, 52, 0
1, 31680, Tempo, 483870
1, 31680, Note_on_c, 0, 65, 80
1, 31680, Note_on_c, 1, 53, 80
1, 31680, Note_on_c, 1, 57, 80
1, 31956, Note_on_c, 0, 65, 0
1, 31956, Note_on_c, 1, 53, 0
1, 31956, Note_on_c, 1, 57, 0
1, 32640, Tempo, 468750
1, 32640, Note_on_c, 0, 61, 85
1, 32640, Note_on_c, 1, 49, 85
1, 32640, Note_on_c, 1, 37, 85
1, 33072, Note_on_c, 0, 61, 0
1, 33072, Note_on_c, 1, 49, 0
1, 33072, Note_on_c, 1, 37, 0
1, 33120, Tempo, 461538
1, 33120, Note_on_c, 0, 62, 85
1, 33120, Note_on_c, 1, 50, 83
1, 33120, Note_on_c, 1, 38, 83
1, 33336, Note_on_c, 1, 50, 0
1, 33336, Note_on_c, 1, 38, 0
1, 33360, Note_on_c, 1, 53, 85
1, 33576, Note_on_c, 1, 53, 0
1, 33600, Note_on_c, 1, 57, 85
1, 33768, Note_on_c, 0, 62, 0
1, 33816, Note_on_c, 1, 57, 0
1, 33840, Note_on_c, 0, 65, 85
1, 33840, Note_on_c, 1, 53, 84
1, 33948, Note_on_c, 0, 65, 0
1, 33960, Note_on_c, 0, 67, 86
1, 34056, Note_on_c, 1, 53, 0
1, 34068, Note_on_c, 0, 67, 0
1, 34080, Note_on_c, 0, 74, 88
1, 34080, Note_on_c, 1, 57, 88
1, 34218, Note_on_c, 0, 74, 0
1, 34296, Note_on_c, 1, 57, 0
1, 34320, Note_on_c, 0, 69, 83
1, 34320, Note_on_c, 1, 53, 83
1, 34428, Note_on_c, 0, 69, 0
1, 34440, Note_on_c, 0, 74, 85
1, 34536, Note_on_c, 1, 53, 0
1, 34548, Note_on_c, 0, 74, 0
1, 34560, Note_on_c, 0, 77, 87
1, 34560, Note_on_c, 1, 50, 88
1, 34698, Note_on_c, 0, 77, 0
1, 34776, Note_on_c, 1, 50, 0
1, 34800, Note_on_c, 0, 74, 83
1, 34800, Note_on_c, 1, 53, 86
1, 34908, Note_on_c, 0, 74, 0
1, 34920, Note_on_c, 0, 77, 85
1, 35016, Note_on_c, 1, 53, 0
1, 35028, Note_on_c, 0, 77, 0
1, 35040, Note_on_c, 0, 81, 88
1, 35040, Note_on_c, 1, 57, 87
1, 35178, Note_on_c, 0, 81, 0
1, 35256, Note_on_c, 1, 57, 0
1, 35280, Note_on_c, 0, 81, 89
1, 35280, Note_on_c, 1, 53, 89
1, 35496, Note_on_c, 0, 81, 0
1, 35496, Note_on_c, 1, 53, 0
1, 35520, Note_on_c, 0, 77, 89
1, 35520, Note_on_c, 1, 57, 86
1, 35736, Note_on_c, 0, 77, 0
1, 35736, Note_on_c, 1, 57, 0
1, 35760, Note_on_c, 0, 74, 85
1, 35760, Note_on_c, 1, 53, 86
1, 35880, Note_on_c, 0, 73, 85
1, 35916, Note_on_c, 0, 73, 0
1, 35920, Note_on_c, 0, 76, 85
1, 35956, Note_on_c, 0, 76, 0
1, 35960, Note_on_c, 0, 79, 85
1, 35976, Note_on_c, 0, 74, 0
1, 35976, Note_on_c, 1, 53, 0
1, 35996, Note_on_c, 0, 79, 0
1, 36000, Tempo, 500000
1, 36000, Tempo, 491803
1, 36000, Note_on_c, 0, 82, 90
1, 36000, Note_on_c, 1, 40, 90
1, 36000, Note_on_c, 1, 52, 90
1, 36276, Note_on_c, 1, 40, 0
1, 36276, Note_on_c, 1, 52, 0
1, 36480, Tempo, 461538
1, 36480, Note_on_c, 1, 56, 90
1, 36480, Note_on_c, 1, 50, 90
1, 36480, Note_on_c, 1, 59, 90
1, 36480, Note_on_c, 1, 53, 90
1, 36648, Note_on_c, 0, 82, 0
1, 36720, Note_on_c, 0, 81, 90
1, 36756, Note_on_c, 1, 56, 0
1, 36756, Note_on_c, 1, 50, 0
1, 36756, Note_on_c, 1, 59, 0
1, 36756, Note_on_c, 1, 53, 0
1, 36828, Note_on_c, 0, 81, 0
1, 36840, Note_on_c, 0, 79, 87
1, 36948, Note_on_c, 0, 79, 0
1, 36960, Note_on_c, 0, 77, 86
1, 37068, Note_on_c, 0, 77, 0
1, 37080, Note_on_c, 0, 76, 85
1, 37188, Note_on_c, 0, 76, 0
1, 37200, Note_on_c, 0, 74, 83
1, 37308, Note_on_c, 0, 74, 0
1, 37320, Note_on_c, 0, 73, 82
1, 37428, Note_on_c, 0, 73, 0
1, 37440, Tempo, 491803
1, 37440, Note_on_c, 0, 82, 90
1, 37440, Note_on_c, 1, 40, 90
1, 37440, Note_on_c, 1, 52, 90
1, 37716, Note_on_c, 1, 40, 0
1, 37716, Note_on_c, 1, 52, 0
1, 37920, Tempo, 444444
1, 37920, Tempo, 461538
1, 37920, Note_on_c, 1, 56, 90
1, 37920, Note_on_c, 1, 50, 90
1, 37920, Note_on_c, 1, 59, 90
1, 37920, Note_on_c, 1, 53, 90
1, 38088, Note_on_c, 0, 82, 0
1, 38160, Note_on_c, 0, 81, 91
1, 38196, Note_on_c, 1, 56, 0
1, 38196, Note_on_c, 1, 50, 0
1, 38196, Note_on_c, 1, 59, 0
1, 38196, Note_on_c, 1, 53, 0
1, 38268, Note_on_c, 0, 81, 0
1, 38280, Note_on_c, 0, 79, 89
1, 38388, Note_on_c, 0, 79, 0
1, 38400, Note_on_c, 0, 77, 87
1, 38508, Note_on_c, 0, 77, 0
1, 38520, Note_on_c, 0, 76, 86
1, 38628, Note_on_c, 0, 76, 0
1, 38640, Note_on_c, 0, 74, 84
1, 38748, Note_on_c, 0, 74, 0
1, 38760, Note_on_c, 0, 73, 82
1, 38868, Note_on_c, 0, 73, 0
1, 38880, Note_on_c, 0, 74, 85
1, 38880, Note_on_c, 1, 53, 85
1, 39096, Note_on_c, 1, 53, 0
1, 39120, Note_on_c, 1, 57, 85
1, 39336, Note_on_c, 1, 57, 0
1, 39360, Note_on_c, 1, 62, 85
1, 39528, Note_on_c, 0, 74, 0
1, 39576, Note_on_c, 1, 62, 0
1, 39600, Note_on_c, 0, 65, 82
1, 39600, Note_on_c, 1, 57, 84
1, 39708, Note_on_c, 0, 65, 0
1, 39720, Note_on_c, 0, 69, 88
1, 39816, Note_on_c, 1, 57, 0
1, 39828, Note_on_c, 0, 69, 0
1, 39840, Note_on_c, 0, 74, 94
1, 39840, Note_on_c, 1, 62, 88
1, 39978, Note_on_c, 0, 74, 0
1, 40056, Note_on_c, 1, 62, 0
1, 40080, Note_on_c, 0, 69, 83
1, 40080, Note_on_c, 1, 57, 84
1, 40188, Note_on_c, 0, 69, 0
1, 40200, Note_on_c, 0, 74, 89
1, 40296, Note_on_c, 1, 57, 0
1, 40308, Note_on_c, 0, 74, 0
1, 40320, Note_on_c, 0, 77, 95
1, 40320, Note_on_c, 1, 53, 89
1, 40458, Note_on_c, 0, 77, 0
1, 40536, Note_on_c, 1, 53, 0
1, 40560, Note_on_c, 0, 74, 87
1, 40560, Note_on_c, 1, 57, 85
1, 40668, Note_on_c, 0, 74, 0
1, 40680, Note_on_c, 0, 77, 94
1, 40776, Note_on_c, 1, 57, 0
1, 40788, Note_on_c, 0, 77, 0
1, 40800, Note_on_c, 0, 81, 101
1, 40800, Note_on_c, 1, 62, 91
1, 40938, Note_on_c, 0, 81, 0
1, 41016, Note_on_c, 1, 62, 0
1, 41040, Note_on_c, 0, 81, 103
1, 41040, Note_on_c, 1, 57, 91
1, 41256, Note_on_c, 0, 81, 0
1, 41256, Note_on_c, 1, 57, 0
1, 41280, Note_on_c, 0, 77, 94
1, 41280, Note_on_c, 1, 62, 88
1, 41496, Note_on_c, 0, 77, 0
1, 41496, Note_on_c, 1, 62, 0
1, 41520, Note_on_c, 0, 74, 85
1, 41520, Note_on_c, 1, 57, 87
1, 41736, Note_on_c, 0, 74, 0
1, 41736, Note_on_c, 1, 57, 0
1, 41760, Tempo, 491803
1, 41760, Note_on_c, 0, 80, 103
1, 41760, Note_on_c, 0, 74, 103
1, 41760, Note_on_c, 0, 71, 103
1, 41760, Note_on_c, 0, 77, 103
1, 41760, Note_on_c, 1, 50, 90
1, 41760, Note_on_c, 1, 38, 90
1, 42048, Note_on_c, 1, 50, 0
1, 42048, Note_on_c, 1, 38, 0
1, 42240, Tempo, 461538
1, 42240, Note_on_c, 1, 56, 90
1, 42240, Note_on_c, 1, 53, 90
1, 42240, Note_on_c, 1, 59, 90
1, 42240, Note_on_c, 1, 50, 90
1, 42408, Note_on_c, 0, 80, 0
1, 42408, Note_on_c, 0, 74, 0
1, 42408, Note_on_c, 0, 71, 0
1, 42408, Note_on_c, 0, 77, 0
1, 42480, Note_on_c, 0, 79, 98
1, 42516, Note_on_c, 1, 56, 0
1, 42516, Note_on_c, 1, 53, 0
1, 42516, Note_on_c, 1, 59, 0
1, 42516, Note_on_c, 1, 50, 0
1, 42588, Note_on_c, 0, 79, 0
1, 42600, Note_on_c, 0, 77, 94
1, 42708, Note_on_c, 0, 77, 0
1, 42720, Note_on_c, 0, 75, 91
1, 42828, Note_on_c, 0, 75, 0
1, 42840, Note_on_c, 0, 74, 87
1, 42948, Note_on_c, 0, 74, 0
1, 42960, Note_on_c, 0, 72, 84
1, 43068, Note_on_c, 0, 72, 0
1, 43080, Note_on_c, 0, 71, 80
1, 43188, Note_on_c, 0, 71, 0
1, 43200, Tempo, 491803
1, 43200, Note_on_c, 0, 80, 94
1, 43200, Note_on_c, 1, 50, 91
1, 43200, Note_on_c, 1, 38, 91
1, 43476, Note_on_c, 1, 50, 0
1, 43476, Note_on_c, 1, 38, 0
1, 43680, Tempo, 461538
1, 43680, Note_on_c, 1, 56, 91
1, 43680, Note_on_c, 1, 53, 91
1, 43680, Note_on_c, 1, 59, 91
1, 43680, Note_on_c, 1, 50, 91
1, 43848, Note_on_c, 0, 80, 0
1, 43920, Note_on_c, 0, 79, 90
1, 43956, Note_on_c, 1, 56, 0
1, 43956, Note_on_c, 1, 53, 0
1, 43956, Note_on_c, 1, 59, 0
1, 43956, Note_on_c, 1, 50, 0
1, 44028, Note_on_c, 0, 79, 0
1, 44040, Note_on_c, 0, 77, 87
1, 44148, Note_on_c, 0, 77, 0
1, 44160, Note_on_c, 0, 75, 83
1, 44268, Note_on_c, 0, 75, 0
1, 44280, Note_on_c, 0, 74, 80
1, 44388, Note_on_c, 0, 74, 0
1, 44400, Note_on_c, 0, 72, 76
1, 44508, Note_on_c, 0, 72, 0
1, 44520, Note_on_c, 0, 71, 73
1, 44628, Note_on_c, 0, 71, 0
1, 44640, Tempo, 491803
1, 44640, Note_on_c, 0, 72, 93
1, 44640, Note_on_c, 1, 51, 81
1, 44856, Note_on_c, 1, 51, 0
1, 44880, Note_on_c, 1, 55, 82
1, 45072, Note_on_c, 0, 72, 0
1, 45096, Note_on_c, 1, 55, 0
1, 45120, Tempo, 444444
1, 45120, Tempo, 461538
1, 45120, Note_on_c, 0, 72, 83
1, 45120, Note_on_c, 1, 60, 83
1, 45228, Note_on_c, 0, 72, 0
1, 45240, Note_on_c, 0, 67, 83
1, 45336, Note_on_c, 1, 60, 0
1, 45348, Note_on_c, 0, 67, 0
1, 45360, Note_on_c, 0, 72, 83
1, 45360, Note_on_c, 1, 55, 84
1, 45468, Note_on_c, 0, 72, 0
1, 45480, Note_on_c, 0, 67, 83
1, 45576, Note_on_c, 1, 55, 0
1, 45588, Note_on_c, 0, 67, 0
1, 45600, Note_on_c, 0, 75, 88
1, 45600, Note_on_c, 1, 60, 85
1, 45708, Note_on_c, 0, 75, 0
1, 45720, Note_on_c, 0, 72, 88
1, 45816, Note_on_c, 1, 60, 0
1, 45828, Note_on_c, 0, 72, 0
1, 45840, Note_on_c, 0, 75, 88
1, 45840, Note_on_c, 1, 55, 86
1, 45948, Note_on_c, 0, 75, 0
1, 45960, Note_on_c, 0, 72, 88
1, 46056, Note_on_c, 1, 55, 0
1, 46068, Note_on_c, 0, 72, 0
1, 46080, Note_on_c, 0, 79, 97
1, 46080, Note_on_c, 1, 51, 88
1, 46188, Note_on_c, 0, 79, 0
1, 46200, Note_on_c, 0, 75, 97
1, 46296, Note_on_c, 1, 51, 0
1, 46308, Note_on_c, 0, 75, 0
1, 46320, Note_on_c, 0, 79, 97
1, 46320, Note_on_c, 1, 55, 89
1, 46428, Note_on_c, 0, 79, 0
1, 46440, Note_on_c, 0, 75, 101
1, 46536, Note_on_c, 1, 55, 0
1, 46548, Note_on_c, 0, 75, 0
1, 46560, Note_on_c, 0, 84, 101
1, 46560, Note_on_c, 1, 60, 90
1, 46776, Note_on_c, 1, 60, 0
1, 46800, Note_on_c, 1, 55, 91
1, 46836, Note_on_c, 0, 84, 0
1, 47016, Note_on_c, 1, 55, 0
1, 47040, Note_on_c, 1, 60, 92
1, 47256, Note_on_c, 1, 60, 0
1, 47280, Note_on_c, 1, 55, 93
1, 47496, Note_on_c, 1, 55, 0
1, 47520, Tempo, 491803
1, 47520, Note_on_c, 0, 72, 85
1, 47520, Note_on_c, 1, 48, 79
1, 47736, Note_on_c, 1, 48, 0
1, 47760, Note_on_c, 1, 51, 80
1, 47952, Note_on_c, 0, 72, 0
1, 47976, Note_on_c, 1, 51, 0
1, 48000, Tempo, 461538
1, 48000, Note_on_c, 0, 72, 85
1, 48000, Note_on_c, 1, 56, 81
1, 48108, Note_on_c, 0, 72, 0
1, 48120, Note_on_c, 0, 67, 85
1, 48216, Note_on_c, 1, 56, 0
1, 48228, Note_on_c, 0, 67, 0
1, 48240, Note_on_c, 0, 72, 85
1, 48240, Note_on_c, 1, 51, 82
1, 48348, Note_on_c, 0, 72, 0
1, 48360, Note_on_c, 0, 67, 85
1, 48456, Note_on_c, 1, 51, 0
1, 48468, Note_on_c, 0, 67, 0
1, 48480, Note_on_c, 0, 75, 94
1, 48480, Note_on_c, 1, 56, 83
1, 48588, Note_on_c, 0, 75, 0
1, 48600, Note_on_c, 0, 72, 94
1, 48696, Note_on_c, 1, 56, 0
1, 48708, Note_on_c, 0, 72, 0
1, 48720, Note_on_c, 0, 75, 94
1, 48720, Note_on_c, 1, 51, 85
1, 48828, Note_on_c, 0, 75, 0
1, 48840, Note_on_c, 0, 72, 94
1, 48936, Note_on_c, 1, 51, 0
1, 48948, Note_on_c, 0, 72, 0
1, 48960, Note_on_c, 0, 80, 98
1, 48960, Note_on_c, 1, 48, 86
1, 49068, Note_on_c, 0, 80, 0
1, 49080, Note_on_c, 0, 75, 98
1, 49176, Note_on_c, 1, 48, 0
1, 49188, Note_on_c, 0, 75, 0
1, 49200, Note_on_c, 0, 80, 99
1, 49200, Note_on_c, 1, 51, 87
1, 49308, Note_on_c, 0, 80, 0
1, 49320, Note_on_c, 0, 75, 101
1, 49416, Note_on_c, 1, 51, 0
1, 49428, Note_on_c, 0, 75, 0
1, 49440, Note_on_c, 0, 84, 101
1, 49440, Note_on_c, 1, 56, 88
1, 49656, Note_on_c, 1, 56, 0
1, 49680, Note_on_c, 1, 51, 89
1, 49716, Note_on_c, 0, 84, 0
1, 49896, Note_on_c, 1, 51, 0
1, 49920, Note_on_c, 1, 56, 91
1, 50136, Note_on_c, 1, 56, 0
1, 50160, Note_on_c, 1, 51, 92
1, 50376, Note_on_c, 1, 51, 0
1, 50400, Tempo, 480000
1, 50400, Tempo, 500000
1, 50400, Tempo, 491803
1, 50400, Note_on_c, 0, 72, 85
1, 50400, Note_on_c, 1, 44, 77
1, 50616, Note_on_c, 1, 44, 0
1, 50640, Note_on_c, 1, 48, 79
1, 50832, Note_on_c, 0, 72, 0
1, 50856, Note_on_c, 1, 48, 0
1, 50880, Tempo, 461538
1, 50880, Note_on_c, 0, 72, 85
1, 50880, Note_on_c, 1, 51, 81
1, 50988, Note_on_c, 0, 72, 0
1, 51000, Note_on_c, 0, 66, 85
1, 51096, Note_on_c, 1, 51, 0
1, 51108, Note_on_c, 0, 66, 0
1, 51120, Note_on_c, 0, 72, 85
1, 51120, Note_on_c, 1, 48, 82
1, 51228, Note_on_c, 0, 72, 0
1, 51240, Note_on_c, 0, 66, 85
1, 51336, Note_on_c, 1, 48, 0
1, 51348, Note_on_c, 0, 66, 0
1, 51360, Note_on_c, 0, 72, 86
1, 51360, Note_on_c, 1, 51, 84
1, 51468, Note_on_c, 0, 72, 0
1, 51480, Note_on_c, 0, 75, 86
1, 51576, Note_on_c, 1, 51, 0
1, 51588, Note_on_c, 0, 75, 0
1, 51600, Note_on_c, 0, 72, 86
1, 51600, Note_on_c, 1, 48, 86
1, 51708, Note_on_c, 0, 72, 0
1, 51720, Note_on_c, 0, 75, 86
1, 51816, Note_on_c, 1, 48, 0
1, 51828, Note_on_c, 0, 75, 0
1, 51840, Note_on_c, 0, 78, 89
1, 51840, Note_on_c, 1, 44, 88
1, 51948, Note_on_c, 0, 78, 0
1, 51960, Note_on_c, 0, 75, 89
1, 52056, Note_on_c, 1, 44, 0
1, 52068, Note_on_c, 0, 75, 0
1, 52080, Note_on_c, 0, 78, 90
1, 52080, Note_on_c, 1, 48, 90
1, 52188, Note_on_c, 0, 78, 0
1, 52200, Note_on_c, 0, 75, 91
1, 52296, Note_on_c, 1, 48, 0
1, 52308, Note_on_c, 0, 75, 0
1, 52320, Tempo, 491803
1, 52320, Note_on_c, 0, 84, 92
1, 52320, Note_on_c, 1, 51, 92
1, 52536, Note_on_c, 1, 51, 0
1, 52560, Note_on_c, 1, 48, 85
1, 52752, Note_on_c, 0, 84, 0
1, 52776, Note_on_c, 1, 48, 0
1, 52800, Tempo, 461538
1, 52800, Note_on_c, 0, 78, 85
1, 52800, Note_on_c, 1, 51, 85
1, 53016, Note_on_c, 1, 51, 0
1, 53040, Note_on_c, 1, 48, 85
1, 53100, Note_on_c, 0, 67, 77
1, 53154, Note_on_c, 0, 67, 0
1, 53160, Note_on_c, 0, 71, 82
1, 53214, Note_on_c, 0, 71, 0
1, 53220, Note_on_c, 0, 74, 87
1, 53232, Note_on_c, 0, 78, 0
1, 53256, Note_on_c, 1, 48, 0
1, 53274, Note_on_c, 0, 74, 0
1, 53280, Tempo, 491803
1, 53280, Note_on_c, 0, 79, 91
1, 53280, Note_on_c, 1, 43, 87
1, 53496, Note_on_c, 1, 43, 0
1, 53520, Note_on_c, 1, 47, 87
1, 53736, Note_on_c, 1, 47, 0
1, 53760, Note_on_c, 1, 50, 87
1, 53976, Note_on_c, 1, 50, 0
1, 54000, Note_on_c, 1, 55, 87
1, 54144, Note_on_c, 0, 79, 0
1, 54216, Note_on_c, 1, 55, 0
1, 54240, Tempo, 444444
1, 54240, Tempo, 461538
1, 54240, Note_on_c, 0, 77, 88
1, 54240, Note_on_c, 1, 48, 86
1, 54348, Note_on_c, 0, 77, 0
1, 54360, Note_on_c, 0, 75, 83
1, 54456, Note_on_c, 1, 48, 0
1, 54468, Note_on_c, 0, 75, 0
1, 54480, Note_on_c, 0, 74, 78
1, 54480, Note_on_c, 1, 51, 86
1, 54588, Note_on_c, 0, 74, 0
1, 54600, Note_on_c, 0, 72, 74
1, 54696, Note_on_c, 1, 51, 0
1, 54708, Note_on_c, 0, 72, 0
1, 54720, Tempo, 500000
1, 54720, Tempo, 491803
1, 54720, Note_on_c, 0, 79, 83
1, 54720, Note_on_c, 1, 43, 89
1, 54936, Note_on_c, 1, 43, 0
1, 54960, Note_on_c, 1, 47, 89
1, 55176, Note_on_c, 1, 47, 0
1, 55200, Note_on_c, 1, 50, 89
1, 55416, Note_on_c, 1, 50, 0
1, 55440, Note_on_c, 1, 55, 89
1, 55584, Note_on_c, 0, 79, 0
1, 55656, Note_on_c, 1, 55, 0
1, 55680, Tempo, 461538
1, 55680, Note_on_c, 0, 77, 86
1, 55680, Note_on_c, 1, 48, 89
1, 55788, Note_on_c, 0, 77, 0
1, 55800, Note_on_c, 0, 75, 86
1, 55896, Note_on_c, 1, 48, 0
1, 55908, Note_on_c, 0, 75, 0
1, 55920, Note_on_c, 0, 74, 86
1, 55920, Note_on_c, 1, 51, 87
1, 56028, Note_on_c, 0, 74, 0
1, 56040, Note_on_c, 0, 72, 86
1, 56136, Note_on_c, 1, 51, 0
1, 56148, Note_on_c, 0, 72, 0
1, 56160, Tempo, 500000
1, 56160, Tempo, 491803
1, 56160, Note_on_c, 0, 79, 88
1, 56160, Note_on_c, 1, 43, 93
1, 56160, Note_on_c, 1, 55, 93
1, 56808, Note_on_c, 0, 79, 0
1, 56808, Note_on_c, 1, 43, 0
1, 56808, Note_on_c, 1, 55, 0
1, 56880, Tempo, 461538
1, 56880, Note_on_c, 0, 80, 98
1, 56880, Note_on_c, 1, 56, 94
1, 56988, Note_on_c, 0, 80, 0
1, 56988, Note_on_c, 1, 56, 0
1, 57000, Note_on_c, 0, 79, 94
1, 57000, Note_on_c, 1, 55, 92
1, 57108, Note_on_c, 0, 79, 0
1, 57108, Note_on_c, 1, 55, 0
1, 57120, Note_on_c, 0, 77, 89
1, 57120, Note_on_c, 1, 53, 90
1, 57228, Note_on_c, 0, 77, 0
1, 57228, Note_on_c, 1, 53, 0
1, 57240, Note_on_c, 0, 75, 86
1, 57240, Note_on_c, 1, 51, 87
1, 57348, Note_on_c, 0, 75, 0
1, 57348, Note_on_c, 1, 51, 0
1, 57360, Note_on_c, 0, 74, 86
1, 57360, Note_on_c, 1, 50, 85
1, 57468, Note_on_c, 0, 74, 0
1, 57468, Note_on_c, 1, 50, 0
1, 57480, Note_on_c, 0, 72, 86
1, 57480, Note_on_c, 1, 48, 83
1, 57588, Note_on_c, 0, 72, 0
1, 57588, Note_on_c, 1, 48, 0
1, 57600, Tempo, 500000
1, 57600, Note_on_c, 0, 79, 93
1, 57600, Note_on_c, 1, 55, 92
1, 57876, Note_on_c, 0, 79, 0
1, 57876, Note_on_c, 1, 55, 0
1, 58080, Tempo, 491803
1, 58080, Note_on_c, 0, 67, 93
1, 58080, Note_on_c, 1, 43, 85
1, 58356, Note_on_c, 0, 67, 0
1, 58356, Note_on_c, 1, 43, 0
1, 58880, Note_on_c, 1, 48, 72
1, 58952, Note_on_c, 1, 48, 0
1, 58960, Note_on_c, 1, 55, 72
1, 58980, Note_on_c, 0, 67, 74
1, 59032, Note_on_c, 1, 55, 0
1, 59034, Note_on_c, 0, 67, 0
1, 59040, Note_on_c, 0, 76, 80
1, 59040, Note_on_c, 1, 60, 80
1, 59178, Note_on_c, 0, 76, 0
1, 59472, Note_on_c, 1, 60, 0
1, 59520, Tempo, 461538
1, 59520, Note_on_c, 0, 76, 80
1, 59658, Note_on_c, 0, 76, 0
1, 60000, Note_on_c, 0, 76, 80
1, 60138, Note_on_c, 0, 76, 0
1, 60320, Note_on_c, 1, 55, 72
1, 60360, Tempo, 491803
1, 60392, Note_on_c, 1, 55, 0
1, 60400, Note_on_c, 1, 62, 72
1, 60420, Note_on_c, 0, 71, 73
1, 60472, Note_on_c, 1, 62, 0
1, 60474, Note_on_c, 0, 71, 0
1, 60480, Note_on_c, 0, 79, 80
1, 60480, Note_on_c, 1, 65, 80
1, 60912, Note_on_c, 1, 65, 0
1, 61128, Note_on_c, 0, 79, 0
1, 61200, Tempo, 461538
1, 61200, Note_on_c, 0, 77, 80
1, 61416, Note_on_c, 0, 77, 0
1, 61440, Note_on_c, 0, 74, 80
1, 61872, Note_on_c, 0, 74, 0
1, 61920, Note_on_c, 0, 64, 77
1, 61920, Note_on_c, 0, 74, 77
1, 61920, Note_on_c, 1, 48, 80
1, 62136, Note_on_c, 0, 74, 0
1, 62160, Note_on_c, 0, 72, 77
1, 62352, Note_on_c, 0, 64, 0
1, 62352, Note_on_c, 1, 48, 0
1, 62376, Note_on_c, 0, 72, 0
1, 62400, Note_on_c, 0, 72, 77
1, 62400, Note_on_c, 0, 67, 77
1, 62400, Note_on_c, 1, 52, 80
1, 62832, Note_on_c, 1, 52, 0
1, 62880, Note_on_c, 1, 55, 80
1, 63048, Note_on_c, 0, 72, 0
1, 63048, Note_on_c, 0, 67, 0
1, 63120, Note_on_c, 0, 74, 80
1, 63120, Note_on_c, 0, 71, 80
1, 63312, Note_on_c, 1, 55, 0
1, 63336, Note_on_c, 0, 74, 0
1, 63336, Note_on_c, 0, 71, 0
1, 63360, Note_on_c, 0, 71, 81
1, 63360, Note_on_c, 0, 74, 81
1, 63360, Note_on_c, 1, 60, 80
1, 63792, Note_on_c, 1, 60, 0
1, 63840, Note_on_c, 1, 48, 80
1, 64224, Note_on_c, 0, 71, 0
1, 64224, Note_on_c, 0, 74, 0
1, 64272, Note_on_c, 1, 48, 0
1, 64320, Note_on_c, 0, 76, 83
1, 64320, Note_on_c, 0, 72, 83
1, 64752, Note_on_c, 0, 76, 0
1, 64752, Note_on_c, 0, 72, 0
1, 64800, Tempo, 500000
1, 64800, Note_on_c, 0, 77, 80
1, 64800, Note_on_c, 1, 57, 80
1, 65280, Note_on_c, 1, 65, 80
1, 65280, Note_on_c, 1, 60, 80
1, 65400, Note_on_c, 0, 77, 0
1, 65520, Tempo, 483870
1, 65520, Tempo, 491803
1, 65520, Note_on_c, 0, 79, 74
1, 65580, Note_on_c, 0, 77, 73
1, 65634, Note_on_c, 0, 77, 0
1, 65640, Note_on_c, 0, 76, 73
1, 65664, Note_on_c, 1, 57, 0
1, 65694, Note_on_c, 0, 76, 0
1, 65700, Note_on_c, 0, 77, 72
1, 65712, Note_on_c, 1, 65, 0
1, 65712, Note_on_c, 1, 60, 0
1, 65754, Note_on_c, 0, 77, 0
1, 65760, Note_on_c, 0, 79, 0
1, 65760, Tempo, 472440
1, 65760, Note_on_c, 0, 79, 80
1, 65976, Note_on_c, 0, 79, 0
1, 66000, Note_on_c, 0, 81, 80
1, 66216, Note_on_c, 0, 81, 0
1, 66240, Tempo, 461538
1, 66240, Note_on_c, 0, 81, 80
1, 66240, Note_on_c, 1, 59, 80
1, 66456, Note_on_c, 0, 81, 0
1, 66480, Note_on_c, 0, 79, 80
1, 66696, Note_on_c, 0, 79, 0
1, 66720, Note_on_c, 0, 78, 80
1, 66720, Note_on_c, 1, 67, 80
1, 66720, Note_on_c, 1, 62, 80
1, 66936, Note_on_c, 0, 78, 0
1, 66960, Note_on_c, 0, 79, 80
1, 67104, Note_on_c, 1, 59, 0
1, 67152, Note_on_c, 1, 67, 0
1, 67152, Note_on_c, 1, 62, 0
1, 67176, Note_on_c, 0, 79, 0
1, 67200, Note_on_c, 0, 77, 80
1, 67416, Note_on_c, 0, 77, 0
1, 67440, Note_on_c, 0, 74, 80
1, 67656, Note_on_c, 0, 74, 0
1, 67680, Note_on_c, 0, 75, 80
1, 67680, Note_on_c, 1, 60, 80
1, 67896, Note_on_c, 0, 75, 0
1, 67920, Note_on_c, 0, 76, 80
1, 68112, Note_on_c, 1, 60, 0
1, 68136, Note_on_c, 0, 76, 0
1, 68160, Note_on_c, 0, 77, 80
1, 68160, Note_on_c, 1, 57, 80
1, 68160, Note_on_c, 1, 60, 80
1, 68376, Note_on_c, 0, 77, 0
1, 68400, Note_on_c, 0, 76, 80
1, 68592, Note_on_c, 1, 57, 0
1, 68592, Note_on_c, 1, 60, 0
1, 68616, Note_on_c, 0, 76, 0
1, 68640, Note_on_c, 0, 79, 80
1, 68640, Note_on_c, 1, 53, 80
1, 68640, Note_on_c, 1, 62, 80
1, 68856, Note_on_c, 0, 79, 0
1, 68880, Note_on_c, 0, 77, 80
1, 69072, Note_on_c, 1, 53, 0
1, 69072, Note_on_c, 1, 62, 0
1, 69096, Note_on_c, 0, 77, 0
1, 69120, Note_on_c, 0, 76, 80
1, 69120, Note_on_c, 1, 59, 80
1, 69120, Note_on_c, 1, 55, 80
1, 69336, Note_on_c, 0, 76, 0
1, 69360, Note_on_c, 0, 74, 80
1, 69552, Note_on_c, 1, 59, 0
1, 69552, Note_on_c, 1, 55, 0
1, 69576, Note_on_c, 0, 74, 0
1, 69600, Note_on_c, 0, 72, 80
1, 69816, Note_on_c, 0, 72, 0
1, 69840, Note_on_c, 0, 71, 80
1, 70056, Note_on_c, 0, 71, 0
1, 70080, Note_on_c, 0, 69, 80
1, 70296, Note_on_c, 0, 69, 0
1, 70320, Note_on_c, 0, 67, 80
1, 70536, Note_on_c, 0, 67, 0
1, 70560, Note_on_c, 0, 75, 80
1, 70560, Note_on_c, 1, 60, 78
1, 70704, Note_on_c, 1, 60, 0
1, 70720, Note_on_c, 1, 64, 78
1, 70776, Note_on_c, 0, 75, 0
1, 70800, Note_on_c, 0, 76, 80
1, 70864, Note_on_c, 1, 64, 0
1, 70880, Note_on_c, 1, 67, 79
1, 71016, Note_on_c, 0, 76, 0
1, 71024, Note_on_c, 1, 67, 0
1, 71040, Note_on_c, 0, 75, 81
1, 71040, Note_on_c, 1, 60, 80
1, 71184, Note_on_c, 1, 60, 0
1, 71200, Note_on_c, 1, 64, 81
1, 71256, Note_on_c, 0, 75, 0
1, 71280, Note_on_c, 0, 76, 82
1, 71344, Note_on_c, 1, 64, 0
1, 71360, Note_on_c, 1, 67, 82
1, 71496, Note_on_c, 0, 76, 0
1, 71504, Note_on_c, 1, 67, 0
1, 71520, Note_on_c, 0, 75, 83
1, 71520, Note_on_c, 1, 60, 82
1, 71664, Note_on_c, 1, 60, 0
1, 71680, Note_on_c, 1, 64, 83
1, 71736, Note_on_c, 0, 75, 0
1, 71760, Note_on_c, 0, 76, 84
1, 71824, Note_on_c, 1, 64, 0
1, 71840, Note_on_c, 1, 67, 84
1, 71976, Note_on_c, 0, 76, 0
1, 71984, Note_on_c, 1, 67, 0
1, 72000, Note_on_c, 0, 78, 85
1, 72000, Note_on_c, 1, 59, 85
1, 72144, Note_on_c, 1, 59, 0
1, 72160, Note_on_c, 1, 62, 85
1, 72216, Note_on_c, 0, 78, 0
1, 72240, Note_on_c, 0, 79, 85
1, 72304, Note_on_c, 1, 62, 0
1, 72320, Note_on_c, 1, 67, 85
1, 72456, Note_on_c, 0, 79, 0
1, 72464, Note_on_c, 1, 67, 0
1, 72480, Note_on_c, 0, 78, 84
1, 72480, Note_on_c, 1, 59, 84
1, 72624, Note_on_c, 1, 59, 0
1, 72640, Note_on_c, 1, 62, 84
1, 72696, Note_on_c, 0, 78, 0
1, 72720, Note_on_c, 0, 79, 83
1, 72784, Note_on_c, 1, 62, 0
1, 72800, Note_on_c, 1, 67, 83
1, 72936, Note_on_c, 0, 79, 0
1, 72944, Note_on_c, 1, 67, 0
1, 72960, Note_on_c, 0, 77, 82
1, 72960, Note_on_c, 1, 59, 83
1, 73104, Note_on_c, 1, 59, 0
1, 73120, Note_on_c, 1, 65, 82
1, 73176, Note_on_c, 0, 77, 0
1, 73200, Note_on_c, 0, 74, 81
1, 73264, Note_on_c, 1, 65, 0
1, 73280, Note_on_c, 1, 67, 82
1, 73416, Note_on_c, 0, 74, 0
1, 73424, Note_on_c, 1, 67, 0
1, 73440, Note_on_c, 0, 74, 80
1, 73440, Note_on_c, 1, 64, 80
1, 73440, Note_on_c, 1, 60, 80
1, 73656, Note_on_c, 0, 74, 0
1, 73680, Note_on_c, 0, 72, 80
1, 73872, Note_on_c, 1, 64, 0
1, 73872, Note_on_c, 1, 60, 0
1, 73896, Note_on_c, 0, 72, 0
1, 73920, Note_on_c, 0, 67, 75
1, 73920, Note_on_c, 0, 74, 75
1, 73920, Note_on_c, 1, 52, 74
1, 74136, Note_on_c, 0, 74, 0
1, 74160, Note_on_c, 0, 72, 75
1, 74352, Note_on_c, 0, 67, 0
1, 74352, Note_on_c, 1, 52, 0
1, 74376, Note_on_c, 0, 72, 0
1, 74400, Note_on_c, 0, 71, 75
1, 74400, Note_on_c, 0, 76, 75
1, 74400, Note_on_c, 1, 55, 74
1, 74616, Note_on_c, 0, 76, 0
1, 74640, Note_on_c, 0, 74, 75
1, 74832, Note_on_c, 0, 71, 0
1, 74832, Note_on_c, 1, 55, 0
1, 74856, Note_on_c, 0, 74, 0
1, 74880, Tempo, 476190
1, 74880, Note_on_c, 0, 74, 80
1, 74880, Note_on_c, 0, 71, 80
1, 74880, Note_on_c, 1, 60, 80
1, 75312, Note_on_c, 1, 60, 0
1, 75360, Note_on_c, 1, 55, 80
1, 75528, Note_on_c, 0, 74, 0
1, 75600, Tempo, 461538
1, 75600, Note_on_c, 0, 75, 80
1, 75744, Note_on_c, 0, 71, 0
1, 75792, Note_on_c, 1, 55, 0
1, 75816, Note_on_c, 0, 75, 0
1, 75840, Note_on_c, 0, 76, 80
1, 75840, Note_on_c, 0, 72, 80
1, 75840, Note_on_c, 1, 48, 80
1, 76272, Note_on_c, 0, 76, 0
1, 76272, Note_on_c, 0, 72, 0
1, 76272, Note_on_c, 1, 48, 0
1, 76320, Tempo, 483870
1, 76320, Note_on_c, 0, 77, 82
1, 76320, Note_on_c, 1, 57, 82
1, 76536, Note_on_c, 1, 57, 0
1, 76560, Note_on_c, 1, 60, 82
1, 76776, Note_on_c, 1, 60, 0
1, 76800, Note_on_c, 1, 65, 83
1, 76920, Note_on_c, 0, 77, 0
1, 77016, Note_on_c, 1, 65, 0
1, 77040, Tempo, 483870
1, 77040, Tempo, 491803
1, 77040, Note_on_c, 0, 79, 70
1, 77040, Note_on_c, 1, 60, 84
1, 77100, Note_on_c, 0, 77, 70
1, 77154, Note_on_c, 0, 77, 0
1, 77160, Note_on_c, 0, 76, 70
1, 77214, Note_on_c, 0, 76, 0
1, 77220, Note_on_c, 0, 77, 70
1, 77256, Note_on_c, 1, 60, 0
1, 77274, Note_on_c, 0, 77, 0
1, 77280, Note_on_c, 0, 79, 0
1, 77280, Tempo, 472440
1, 77280, Note_on_c, 0, 79, 85
1, 77280, Note_on_c, 1, 57, 85
1, 77496, Note_on_c, 0, 79, 0
1, 77496, Note_on_c, 1, 57, 0
1, 77520, Note_on_c, 0, 81, 86
1, 77520, Note_on_c, 1, 60, 86
1, 77736, Note_on_c, 0, 81, 0
1, 77736, Note_on_c, 1, 60, 0
1, 77760, Tempo, 461538
1, 77760, Note_on_c, 0, 81, 86
1, 77760, Note_on_c, 1, 59, 86
1, 77976, Note_on_c, 0, 81, 0
1, 77976, Note_on_c, 1, 59, 0
1, 78000, Note_on_c, 0, 79, 86
1, 78000, Note_on_c, 1, 62, 86
1, 78216, Note_on_c, 0, 79, 0
1, 78216, Note_on_c, 1, 62, 0
1, 78240, Note_on_c, 0, 78, 86
1, 78240, Note_on_c, 1, 67, 86
1, 78456, Note_on_c, 0, 78, 0
1, 78456, Note_on_c, 1, 67, 0
1, 78480, Note_on_c, 0, 79, 85
1, 78480, Note_on_c, 1, 62, 85
1, 78696, Note_on_c, 0, 79, 0
1, 78696, Note_on_c, 1, 62, 0
1, 78720, Note_on_c, 0, 77, 85
1, 78720, Note_on_c, 1, 58, 85
1, 78936, Note_on_c, 0, 77, 0
1, 78936, Note_on_c, 1, 58, 0
1, 78960, Note_on_c, 0, 74, 85
1, 78960, Note_on_c, 1, 62, 85
1, 79176, Note_on_c, 0, 74, 0
1, 79176, Note_on_c, 1, 62, 0
1, 79200, Note_on_c, 0, 75, 88
1, 79200, Note_on_c, 1, 60, 88
1, 79416, Note_on_c, 0, 75, 0
1, 79440, Note_on_c, 0, 76, 88
1, 79632, Note_on_c, 1, 60, 0
1, 79656, Note_on_c, 0, 76, 0
1, 79680, Note_on_c, 0, 79, 88
1, 79680, Note_on_c, 1, 62, 88
1, 79680, Note_on_c, 1, 53, 88
1, 79896, Note_on_c, 0, 79, 0
1, 79920, Note_on_c, 0, 77, 88
1, 80112, Note_on_c, 1, 62, 0
1, 80112, Note_on_c, 1, 53, 0
1, 80136, Note_on_c, 0, 77, 0
1, 80160, Note_on_c, 0, 74, 88
1, 80160, Note_on_c, 1, 65, 88
1, 80160, Note_on_c, 1, 55, 88
1, 80376, Note_on_c, 0, 74, 0
1, 80400, Note_on_c, 0, 71, 88
1, 80592, Note_on_c, 1, 65, 0
1, 80592, Note_on_c, 1, 55, 0
1, 80616, Note_on_c, 0, 71, 0
1, 80640, Note_on_c, 0, 72, 88
1, 80640, Note_on_c, 1, 60, 88
1, 80640, Note_on_c, 1, 64, 88
1, 80856, Note_on_c, 0, 72, 0
1, 80880, Note_on_c, 0, 67, 88
1, 81072, Note_on_c, 1, 60, 0
1, 81072, Note_on_c, 1, 64, 0
1, 81096, Note_on_c, 0, 67, 0
1, 81120, Note_on_c, 1, 64, 80
1, 81360, Note_on_c, 0, 67, 80
1, 81552, Note_on_c, 1, 64, 0
1, 81576, Note_on_c, 0, 67, 0
1, 81600, Note_on_c, 1, 60, 80
1, 81840, Note_on_c, 0, 67, 80
1, 82032, Note_on_c, 1, 60, 0
1, 82056, Note_on_c, 0, 67, 0
1, 82080, Tempo, 476190
1, 82080, Note_on_c, 0, 67, 80
1, 82080, Note_on_c, 0, 65, 80
1, 82080, Note_on_c, 1, 62, 80
1, 82296, Note_on_c, 0, 67, 0
1, 82296, Note_on_c, 0, 65, 0
1, 82320, Tempo, 461538
1, 82320, Note_on_c, 0, 67, 80
1, 82320, Note_on_c, 0, 65, 80
1, 82512, Note_on_c, 1, 62, 0
1, 82536, Note_on_c, 0, 67, 0
1, 82536, Note_on_c, 0, 65, 0
1, 82560, Note_on_c, 1, 59, 80
1, 82800, Note_on_c, 0, 67, 80
1, 82800, Note_on_c, 0, 65, 80
1, 82992, Note_on_c, 1, 59, 0
1, 83016, Note_on_c, 0, 67, 0
1, 83016, Note_on_c, 0, 65, 0
1, 83040, Note_on_c, 1, 55, 80
1, 83280, Note_on_c, 0, 65, 80
1, 83280, Note_on_c, 0, 67, 80
1, 83472, Note_on_c, 1, 55, 0
1, 83496, Note_on_c, 0, 65, 0
1, 83496, Note_on_c, 0, 67, 0
1, 83520, Tempo, 476190
1, 83520, Note_on_c, 0, 63, 80
1, 83520, Note_on_c, 0, 67, 80
1, 83520, Note_on_c, 1, 48, 80
1, 83736, Note_on_c, 0, 63, 0
1, 83736, Note_on_c, 0, 67, 0
1, 83760, Tempo, 461538
1, 83760, Note_on_c, 0, 63, 80
1, 83760, Note_on_c, 0, 67, 80
1, 83952, Note_on_c, 1, 48, 0
1, 83976, Note_on_c, 0, 63, 0
1, 83976, Note_on_c, 0, 67, 0
1, 84000, Note_on_c, 1, 51, 80
1, 84240, Note_on_c, 0, 63, 80
1, 84240, Note_on_c, 0, 67, 80
1, 84432, Note_on_c, 1, 51, 0
1, 84456, Note_on_c, 0, 63, 0
1, 84456, Note_on_c, 0, 67, 0
1, 84480, Note_on_c, 1, 48, 80
1, 84720, Note_on_c, 0, 63, 80
1, 84720, Note_on_c, 0, 67, 80
1, 84912, Note_on_c, 1, 48, 0
1, 84936, Note_on_c, 0, 63, 0
1, 84936, Note_on_c, 0, 67, 0
1, 84960, Tempo, 476190
1, 84960, Note_on_c, 0, 67, 80
1, 84960, Note_on_c, 0, 65, 80
1, 84960, Note_on_c, 1, 50, 80
1, 85176, Note_on_c, 0, 67, 0
1, 85176, Note_on_c, 0, 65, 0
1, 85200, Tempo, 461538
1, 85200, Note_on_c, 0, 67, 80
1, 85200, Note_on_c, 0, 65, 80
1, 85392, Note_on_c, 1, 50, 0
1, 85416, Note_on_c, 0, 67, 0
1, 85416, Note_on_c, 0, 65, 0
1, 85440, Note_on_c, 1, 47, 80
1, 85680, Note_on_c, 0, 67, 80
1, 85680, Note_on_c, 0, 65, 80
1, 85872, Note_on_c, 1, 47, 0
1, 85896, Note_on_c, 0, 67, 0
1, 85896, Note_on_c, 0, 65, 0
1, 85920, Note_on_c, 1, 43, 80
1, 86160, Note_on_c, 0, 65, 80
1, 86160, Note_on_c, 0, 67, 80
1, 86352, Note_on_c, 1, 43, 0
1, 86376, Note_on_c, 0, 65, 0
1, 86376, Note_on_c, 0, 67, 0
1, 86400, Tempo, 476190
1, 86400, Note_on_c, 0, 63, 88
1, 86400, Note_on_c, 0, 67, 88
1, 86400, Note_on_c, 1, 36, 88
1, 86400, Note_on_c, 1, 48, 88
1, 86616, Note_on_c, 0, 63, 0
1, 86616, Note_on_c, 0, 67, 0
1, 86640, Tempo, 461538
1, 86640, Note_on_c, 0, 63, 88
1, 86640, Note_on_c, 0, 67, 88
1, 86832, Note_on_c, 1, 36, 0
1, 86832, Note_on_c, 1, 48, 0
1, 86856, Note_on_c, 0, 63, 0
1, 86856, Note_on_c, 0, 67, 0
1, 86880, Note_on_c, 1, 51, 80
1, 87120, Note_on_c, 0, 63, 80
1, 87120, Note_on_c, 0, 67, 80
1, 87312, Note_on_c, 1, 51, 0
1, 87336, Note_on_c, 0, 63, 0
1, 87336, Note_on_c, 0, 67, 0
1, 87360, Note_on_c, 1, 55, 80
1, 87600, Note_on_c, 0, 63, 80
1, 87600, Note_on_c, 0, 67, 80
1, 87792, Note_on_c, 1, 55, 0
1, 87816, Note_on_c, 0, 63, 0
1, 87816, Note_on_c, 0, 67, 0
1, 87840, Tempo, 476190
1, 87840, Note_on_c, 0, 63, 88
1, 87840, Note_on_c, 0, 68, 88
1, 87840, Note_on_c, 1, 41, 88
1, 87840, Note_on_c, 1, 53, 88
1, 88056, Note_on_c, 0, 63, 0
1, 88056, Note_on_c, 0, 68, 0
1, 88080, Tempo, 461538
1, 88080, Note_on_c, 0, 63, 88
1, 88080, Note_on_c, 0, 68, 88
1, 88272, Note_on_c, 1, 41, 0
1, 88272, Note_on_c, 1, 53, 0
1, 88296, Note_on_c, 0, 63, 0
1, 88296, Note_on_c, 0, 68, 0
1, 88320, Note_on_c, 1, 56, 80
1, 88560, Note_on_c, 0, 63, 80
1, 88560, Note_on_c, 0, 68, 80
1, 88752, Note_on_c, 1, 56, 0
1, 88776, Note_on_c, 0, 63, 0
1, 88776, Note_on_c, 0, 68, 0
1, 88800, Note_on_c, 1, 60, 80
1, 89040, Note_on_c, 0, 63, 80
1, 89040, Note_on_c, 0, 68, 80
1, 89232, Note_on_c, 1, 60, 0
1, 89256, Note_on_c, 0, 63, 0
1, 89256, Note_on_c, 0, 68, 0
1, 89280, Tempo, 476190
1, 89280, Note_on_c, 0, 62, 88
1, 89280, Note_on_c, 0, 68, 88
1, 89280, Note_on_c, 1, 34, 88
1, 89280, Note_on_c, 1, 46, 88
1, 89496, Note_on_c, 0, 62, 0
1, 89496, Note_on_c, 0, 68, 0
1, 89520, Tempo, 461538
1, 89520, Note_on_c, 0, 62, 88
1, 89520, Note_on_c, 0, 68, 88
1, 89712, Note_on_c, 1, 34, 0
1, 89712, Note_on_c, 1, 46, 0
1, 89736, Note_on_c, 0, 62, 0
1, 89736, Note_on_c, 0, 68, 0
1, 89760, Note_on_c, 1, 50, 80
1, 90000, Note_on_c, 0, 62, 80
1, 90000, Note_on_c, 0, 68, 80
1, 90192, Note_on_c, 1, 50, 0
1, 90216, Note_on_c, 0, 62, 0
1, 90216, Note_on_c, 0, 68, 0
1, 90240, Note_on_c, 1, 53, 80
1, 90480, Note_on_c, 0, 62, 80
1, 90480, Note_on_c, 0, 68, 80
1, 90672, Note_on_c, 1, 53, 0
1, 90696, Note_on_c, 0, 62, 0
1, 90696, Note_on_c, 0, 68, 0
1, 90720, Tempo, 476190
1, 90720, Note_on_c, 0, 62, 88
1, 90720, Note_on_c, 0, 67, 88
1, 90720, Note_on_c, 1, 39, 88
1, 90720, Note_on_c, 1, 51, 88
1, 90936, Note_on_c, 0, 62, 0
1, 90936, Note_on_c, 0, 67, 0
1, 90960, Tempo, 461538
1, 90960, Note_on_c, 0, 62, 88
1, 90960, Note_on_c, 0, 67, 88
1, 91152, Note_on_c, 1, 39, 0
1, 91152, Note_on_c, 1, 51, 0
1, 91176, Note_on_c, 0, 62, 0
1, 91176, Note_on_c, 0, 67, 0
1, 91200, Note_on_c, 1, 55, 80
1, 91440, Note_on_c, 0, 62, 80
1, 91440, Note_on_c, 0, 67, 80
1, 91632, Note_on_c, 1, 55, 0
1, 91656, Note_on_c, 0, 62, 0
1, 91656, Note_on_c, 0, 67, 0
1, 91680, Note_on_c, 1, 58, 80
1, 91920, Note_on_c, 0, 62, 80
1, 91920, Note_on_c, 0, 67, 80
1, 92112, Note_on_c, 1, 58, 0
1, 92136, Note_on_c, 0, 62, 0
1, 92136, Note_on_c, 0, 67, 0
1, 92160, Tempo, 476190
1, 92160, Note_on_c, 0, 60, 88
1, 92160, Note_on_c, 0, 67, 88
1, 92160, Note_on_c, 1, 32, 88
1, 92160, Note_on_c, 1, 44, 88
1, 92376, Note_on_c, 0, 60, 0
1, 92376, Note_on_c, 0, 67, 0
1, 92400, Tempo, 461538
1, 92400, Note_on_c, 0, 60, 88
1, 92400, Note_on_c, 0, 67, 88
1, 92592, Note_on_c, 1, 32, 0
1, 92592, Note_on_c, 1, 44, 0
1, 92616, Note_on_c, 0, 60, 0
1, 92616, Note_on_c, 0, 67, 0
1, 92640, Note_on_c, 1, 56, 80
1, 92880, Note_on_c, 0, 60, 80
1, 92880, Note_on_c, 0, 67, 80
1, 93072, Note_on_c, 1, 56, 0
1, 93096, Note_on_c, 0, 60, 0
1, 93096, Note_on_c, 0, 67, 0
1, 93120, Note_on_c, 0, 60, 88
1, 93120, Note_on_c, 0, 65, 88
1, 93120, Note_on_c, 1, 38, 88
1, 93120, Note_on_c, 1, 50, 88
1, 93336, Note_on_c, 0, 60, 0
1, 93336, Note_on_c, 0, 65, 0
1, 93360, Note_on_c, 0, 60, 88
1, 93360, Note_on_c, 0, 65, 88
1, 93552, Note_on_c, 1, 38, 0
1, 93552, Note_on_c, 1, 50, 0
1, 93576, Note_on_c, 0, 60, 0
1, 93576, Note_on_c, 0, 65, 0
1, 93600, Note_on_c, 1, 62, 80
1, 93840, Note_on_c, 0, 60, 80
1, 93840, Note_on_c, 0, 65, 80
1, 94032, Note_on_c, 1, 62, 0
1, 94056, Note_on_c, 0, 60, 0
1, 94056, Note_on_c, 0, 65, 0
1, 94080, Note_on_c, 0, 59, 88
1, 94080, Note_on_c, 0, 65, 88
1, 94080, Note_on_c, 1, 31, 88
1, 94080, Note_on_c, 1, 43, 88
1, 94296, Note_on_c, 0, 59, 0
1, 94296, Note_on_c, 0, 65, 0
1, 94320, Note_on_c, 0, 59, 88
1, 94320, Note_on_c, 0, 65, 88
1, 94512, Note_on_c, 1, 31, 0
1, 94512, Note_on_c, 1, 43, 0
1, 94536, Note_on_c, 0, 59, 0
1, 94536, Note_on_c, 0, 65, 0
1, 94560, Note_on_c, 1, 55, 80
1, 94800, Note_on_c, 0, 59, 81
1, 94800, Note_on_c, 0, 65, 81
1, 94992, Note_on_c, 1, 55, 0
1, 95016, Note_on_c, 0, 59, 0
1, 95016, Note_on_c, 0, 65, 0
1, 95040, Tempo, 468750
1, 95040, Note_on_c, 1, 56, 77
1, 95280, Note_on_c, 0, 63, 81
1, 95280, Note_on_c, 0, 60, 81
1, 95472, Note_on_c, 1, 56, 0
1, 95496, Note_on_c, 0, 63, 0
1, 95496, Note_on_c, 0, 60, 0
1, 95520, Note_on_c, 1, 55, 77
1, 95760, Note_on_c, 0, 63, 81
1, 95760, Note_on_c, 0, 60, 81
1, 95952, Note_on_c, 1, 55, 0
1, 95976, Note_on_c, 0, 63, 0
1, 95976, Note_on_c, 0, 60, 0
1, 96000, Note_on_c, 1, 54, 77
1, 96240, Note_on_c, 0, 63, 80
1, 96240, Note_on_c, 0, 60, 80
1, 96432, Note_on_c, 1, 54, 0
1, 96456, Note_on_c, 0, 63, 0
1, 96456, Note_on_c, 0, 60, 0
1, 96480, Tempo, 483870
1, 96480, Tempo, 480000
1, 96480, Note_on_c, 0, 62, 83
1, 96480, Note_on_c, 0, 59, 83
1, 96480, Note_on_c, 1, 55, 80
1, 96696, Note_on_c, 0, 62, 0
1, 96696, Note_on_c, 0, 59, 0
1, 96720, Tempo, 465116
1, 96720, Note_on_c, 0, 67, 80
1, 96720, Note_on_c, 0, 63, 80
1, 96912, Note_on_c, 1, 55, 0
1, 96936, Note_on_c, 0, 67, 0
1, 96936, Note_on_c, 0, 63, 0
1, 96960, Note_on_c, 0, 62, 80
1, 96960, Note_on_c, 0, 65, 80
1, 97176, Note_on_c, 0, 62, 0
1, 97176, Note_on_c, 0, 65, 0
1, 97200, Note_on_c, 0, 60, 80
1, 97200, Note_on_c, 0, 63, 80
1, 97416, Note_on_c, 0, 60, 0
1, 97416, Note_on_c, 0, 63, 0
1, 97440, Note_on_c, 0, 59, 80
1, 97440, Note_on_c, 0, 62, 80
1, 97656, Note_on_c, 0, 59, 0
1, 97656, Note_on_c, 0, 62, 0
1, 97680, Note_on_c, 0, 60, 80
1, 97680, Note_on_c, 0, 63, 80
1, 97680, Note_on_c, 1, 54, 80
1, 97896, Note_on_c, 0, 60, 0
1, 97896, Note_on_c, 0, 63, 0
1, 97896, Note_on_c, 1, 54, 0
1, 97920, Tempo, 480000
1, 97920, Note_on_c, 0, 62, 83
1, 97920, Note_on_c, 0, 59, 83
1, 97920, Note_on_c, 1, 55, 80
1, 98136, Note_on_c, 0, 62, 0
1, 98136, Note_on_c, 0, 59, 0
1, 98160, Tempo, 465116
1, 98160, Note_on_c, 0, 67, 80
1, 98160, Note_on_c, 0, 63, 80
1, 98352, Note_on_c, 1, 55, 0
1, 98376, Note_on_c, 0, 67, 0
1, 98376, Note_on_c, 0, 63, 0
1, 98400, Note_on_c, 0, 62, 80
1, 98400, Note_on_c, 0, 65, 80
1, 98616, Note_on_c, 0, 62, 0
1, 98616, Note_on_c, 0, 65, 0
1, 98640, Note_on_c, 0, 60, 80
1, 98640, Note_on_c, 0, 63, 80
1, 98856, Note_on_c, 0, 60, 0
1, 98856, Note_on_c, 0, 63, 0
1, 98880, Note_on_c, 0, 59, 80
1, 98880, Note_on_c, 0, 62, 80
1, 99096, Note_on_c, 0, 59, 0
1, 99096, Note_on_c, 0, 62, 0
1, 99120, Note_on_c, 0, 60, 80
1, 99120, Note_on_c, 0, 63, 80
1, 99120, Note_on_c, 1, 54, 80
1, 99336, Note_on_c, 0, 60, 0
1, 99336, Note_on_c, 0, 63, 0
1, 99336, Note_on_c, 1, 54, 0
1, 99360, Tempo, 483870
1, 99360, Tempo, 487804
1, 99360, Tempo, 480000
1, 99360, Note_on_c, 0, 62, 83
1, 99360, Note_on_c, 0, 59, 83
1, 99360, Note_on_c, 1, 55, 80
1, 99576, Note_on_c, 0, 62, 0
1, 99576, Note_on_c, 0, 59, 0
1, 99576, Note_on_c, 1, 55, 0
1, 99600, Tempo, 468750
1, 99600, Note_on_c, 0, 60, 83
1, 99600, Note_on_c, 0, 63, 83
1, 99600, Note_on_c, 1, 54, 80
1, 99816, Note_on_c, 0, 60, 0
1, 99816, Note_on_c, 0, 63, 0
1, 99816, Note_on_c, 1, 54, 0
1, 99840, Note_on_c, 0, 62, 80
1, 99840, Note_on_c, 0, 59, 80
1, 99840, Note_on_c, 1, 55, 80
1, 100056, Note_on_c, 0, 62, 0
1, 100056, Note_on_c, 0, 59, 0
1, 100056, Note_on_c, 1, 55, 0
1, 100080, Note_on_c, 0, 60, 80
1, 100080, Note_on_c, 0, 63, 80
1, 100080, Note_on_c, 1, 54, 80
1, 100296, Note_on_c, 0, 60, 0
1, 100296, Note_on_c, 0, 63, 0
1, 100296, Note_on_c, 1, 54, 0
1, 100320, Note_on_c, 0, 62, 80
1, 100320, Note_on_c, 0, 59, 80
1, 100320, Note_on_c, 1, 55, 80
1, 100536, Note_on_c, 0, 62, 0
1, 100536, Note_on_c, 0, 59, 0
1, 100536, Note_on_c, 1, 55, 0
1, 100560, Note_on_c, 0, 60, 80
1, 100560, Note_on_c, 0, 63, 80
1, 100560, Note_on_c, 1, 54, 80
1, 100776, Note_on_c, 0, 60, 0
1, 100776, Note_on_c, 0, 63, 0
1, 100776, Note_on_c, 1, 54, 0
1, 100800, Tempo, 491803
1, 100800, Tempo, 491803
1, 100800, Tempo, 483870
1, 100800, Tempo, 491803
1, 100800, Note_on_c, 0, 62, 84
1, 100800, Note_on_c, 0, 59, 84
1, 100800, Note_on_c, 1, 55, 80
1, 101016, Note_on_c, 0, 62, 0
1, 101016, Note_on_c, 0, 59, 0
1, 101040, Note_on_c, 0, 58, 84
1, 101040, Note_on_c, 0, 61, 84
1, 101232, Note_on_c, 1, 55, 0
1, 101256, Note_on_c, 0, 58, 0
1, 101256, Note_on_c, 0, 61, 0
1, 101280, Tempo, 468750
1, 101280, Tempo, 476190
1, 101280, Tempo, 483870
1, 101280, Note_on_c, 0, 62, 84
1, 101280, Note_on_c, 0, 59, 84
1, 101496, Note_on_c, 0, 62, 0
1, 101496, Note_on_c, 0, 59, 0
1, 101520, Note_on_c, 0, 61, 85
1, 101520, Note_on_c, 0, 64, 85
1, 101736, Note_on_c, 0, 61, 0
1, 101736, Note_on_c, 0, 64, 0
1, 101760, Note_on_c, 0, 62, 85
1, 101760, Note_on_c, 0, 65, 85
1, 101976, Note_on_c, 0, 62, 0
1, 101976, Note_on_c, 0, 65, 0
1, 102000, Note_on_c, 0, 67, 84
1, 102000, Note_on_c, 0, 64, 84
1, 102216, Note_on_c, 0, 67, 0
1, 102216, Note_on_c, 0, 64, 0
1, 102240, Tempo, 500000
1, 102240, Note_on_c, 0, 69, 80
1, 102240, Note_on_c, 0, 65, 80
1, 102240, Note_on_c, 1, 53, 80
1, 102672, Note_on_c, 0, 69, 0
1, 102672, Note_on_c, 0, 65, 0
1, 102672, Note_on_c, 1, 53, 0
1, 102720, Tempo, 461538
1, 102720, Note_on_c, 0, 69, 80
1, 102720, Note_on_c, 0, 60, 80
1, 102720, Note_on_c, 0, 65, 80
1, 102720, Note_on_c, 1, 53, 80
1, 103152, Note_on_c, 0, 69, 0
1, 103152, Note_on_c, 0, 60, 0
1, 103152, Note_on_c, 0, 65, 0
1, 103152, Note_on_c, 1, 53, 0
1, 103200, Note_on_c, 0, 65, 80
1, 103200, Note_on_c, 0, 60, 80
1, 103200, Note_on_c, 0, 69, 80
1, 103200, Note_on_c, 1, 53, 80
1, 103632, Note_on_c, 0, 65, 0
1, 103632, Note_on_c, 0, 60, 0
1, 103632, Note_on_c, 0, 69, 0
1, 103632, Note_on_c, 1, 53, 0
1, 103680, Tempo, 500000
1, 103680, Note_on_c, 0, 65, 82
1, 103680, Note_on_c, 0, 60, 82
1, 103680, Note_on_c, 0, 69, 82
1, 103680, Note_on_c, 1, 53, 82
1, 104160, Tempo, 461538
1, 104544, Note_on_c, 0, 65, 0
1, 104544, Note_on_c, 0, 69, 0
1, 104544, Note_on_c, 1, 53, 0
1, 104640, Note_on_c, 0, 67, 78
1, 104640, Note_on_c, 0, 64, 78
1, 104640, Note_on_c, 1, 48, 78
1, 104976, Note_on_c, 0, 60, 0
1, 105060, Note_on_c, 0, 67, 0
1, 105060, Note_on_c, 0, 67, 77
1, 105072, Note_on_c, 0, 64, 0
1, 105072, Note_on_c, 1, 48, 0
1, 105114, Note_on_c, 0, 67, 0
1, 105120, Note_on_c, 0, 65, 80
1, 105120, Note_on_c, 0, 59, 80
1, 105120, Note_on_c, 0, 62, 80
1, 105120, Note_on_c, 1, 43, 80
1, 105552, Note_on_c, 0, 65, 0
1, 105552, Note_on_c, 0, 59, 0
1, 105552, Note_on_c, 0, 62, 0
1, 105552, Note_on_c, 1, 43, 0
1, 105600, Note_on_c, 0, 65, 80
1, 105600, Note_on_c, 0, 59, 80
1, 105600, Note_on_c, 0, 62, 80
1, 105600, Note_on_c, 1, 43, 80
1, 106032, Note_on_c, 0, 65, 0
1, 106032, Note_on_c, 0, 59, 0
1, 106032, Note_on_c, 0, 62, 0
1, 106032, Note_on_c, 1, 43, 0
1, 106080, Note_on_c, 0, 65, 80
1, 106080, Note_on_c, 0, 59, 80
1, 106080, Note_on_c, 0, 62, 80
1, 106080, Note_on_c, 1, 43, 80
1, 106512, Note_on_c, 0, 65, 0
1, 106512, Note_on_c, 0, 59, 0
1, 106512, Note_on_c, 0, 62, 0
1, 106512, Note_on_c, 1, 43, 0
1, 106560, Tempo, 500000
1, 106560, Note_on_c, 0, 59, 82
1, 106560, Note_on_c, 0, 65, 82
1, 106560, Note_on_c, 0, 62, 82
1, 106560, Note_on_c, 1, 43, 82
1, 107424, Note_on_c, 0, 59, 0
1, 107424, Note_on_c, 0, 65, 0
1, 107424, Note_on_c, 0, 62, 0
1, 107424, Note_on_c, 1, 43, 0
1, 107520, Note_on_c, 0, 64, 80
1, 107520, Note_on_c, 0, 60, 80
1, 107520, Note_on_c, 1, 45, 80
1, 107952, Note_on_c, 0, 64, 0
1, 107952, Note_on_c, 0, 60, 0
1, 107952, Note_on_c, 1, 45, 0
1, 108000, Tempo, 461538
1, 108000, Note_on_c, 0, 64, 81
1, 108000, Note_on_c, 0, 67, 81
1, 108000, Note_on_c, 1, 41, 81
1, 108216, Note_on_c, 0, 64, 0
1, 108216, Note_on_c, 0, 67, 0
1, 108240, Note_on_c, 0, 62, 81
1, 108240, Note_on_c, 0, 65, 81
1, 108432, Note_on_c, 1, 41, 0
1, 108456, Note_on_c, 0, 62, 0
1, 108456, Note_on_c, 0, 65, 0
1, 108480, Note_on_c, 0, 64, 81
1, 108480, Note_on_c, 0, 60, 81
1, 108480, Note_on_c, 1, 43, 81
1, 108912, Note_on_c, 0, 64, 0
1, 108912, Note_on_c, 0, 60, 0
1, 108912, Note_on_c, 1, 43, 0
1, 108960, Note_on_c, 0, 59, 77
1, 108960, Note_on_c, 0, 62, 77
1, 108960, Note_on_c, 1, 43, 77
1, 109392, Note_on_c, 0, 59, 0
1, 109392, Note_on_c, 0, 62, 0
1, 109392, Note_on_c, 1, 43, 0
1, 109440, Note_on_c, 0, 64, 80
1, 109440, Note_on_c, 0, 60, 80
1, 109440, Note_on_c, 1, 48, 80
1, 109656, Note_on_c, 0, 64, 0
1, 109656, Note_on_c, 0, 60, 0
1, 109680, Note_on_c, 0, 72, 80
1, 109872, Note_on_c, 1, 48, 0
1, 109887, Note_on_c, 0, 72, 0
1, 109920, Note_on_c, 0, 74, 80
1, 110127, Note_on_c, 0, 74, 0
1, 110160, Note_on_c, 0, 76, 80
1, 110367, Note_on_c, 0, 76, 0
1, 110400, Note_on_c, 0, 77, 80
1, 110607, Note_on_c, 0, 77, 0
1, 110640, Note_on_c, 0, 79, 80
1, 110847, Note_on_c, 0, 79, 0
1, 110880, Tempo, 480000
1, 110880, Note_on_c, 0, 81, 80
1, 110880, Note_on_c, 1, 60, 80
1, 110880, Note_on_c, 1, 65, 80
1, 111294, Note_on_c, 0, 81, 0
1, 111312, Note_on_c, 1, 60, 0
1, 111312, Note_on_c, 1, 65, 0
1, 111360, Tempo, 461538
1, 111360, Note_on_c, 0, 81, 80
1, 111360, Note_on_c, 1, 60, 80
1, 111360, Note_on_c, 1, 65, 80
1, 111774, Note_on_c, 0, 81, 0
1, 111792, Note_on_c, 1, 60, 0
1, 111792, Note_on_c, 1, 65, 0
1, 111840, Note_on_c, 0, 81, 80
1, 111840, Note_on_c, 1, 60, 80
1, 111840, Note_on_c, 1, 65, 80
1, 112254, Note_on_c, 0, 81, 0
1, 112272, Note_on_c, 1, 60, 0
1, 112272, Note_on_c, 1, 65, 0
1, 112320, Tempo, 500000
1, 112320, Note_on_c, 0, 81, 80
1, 112320, Note_on_c, 1, 60, 80
1, 112320, Note_on_c, 1, 65, 80
1, 112800, Tempo, 461538
1, 112968, Note_on_c, 0, 81, 0
1, 113040, Note_on_c, 0, 83, 80
1, 113148, Note_on_c, 0, 83, 0
1, 113160, Note_on_c, 0, 81, 80
1, 113184, Note_on_c, 1, 65, 0
1, 113268, Note_on_c, 0, 81, 0
1, 113280, Note_on_c, 0, 79, 80
1, 113280, Note_on_c, 1, 64, 80
1, 113616, Note_on_c, 1, 60, 0
1, 113700, Note_on_c, 0, 79, 0
1, 113700, Note_on_c, 0, 79, 74
1, 113712, Note_on_c, 1, 64, 0
1, 113754, Note_on_c, 0, 79, 0
1, 113760, Note_on_c, 0, 71, 80
1, 113760, Note_on_c, 0, 77, 80
1, 113760, Note_on_c, 1, 55, 80
1, 113760, Note_on_c, 1, 62, 80
1, 114192, Note_on_c, 0, 71, 0
1, 114192, Note_on_c, 0, 77, 0
1, 114192, Note_on_c, 1, 55, 0
1, 114192, Note_on_c, 1, 62, 0
1, 114240, Note_on_c, 0, 71, 80
1, 114240, Note_on_c, 0, 77, 80
1, 114240, Note_on_c, 1, 55, 80
1, 114240, Note_on_c, 1, 62, 80
1, 114672, Note_on_c, 0, 71, 0
1, 114672, Note_on_c, 0, 77, 0
1, 114672, Note_on_c, 1, 55, 0
1, 114672, Note_on_c, 1, 62, 0
1, 114720, Note_on_c, 0, 71, 80
1, 114720, Note_on_c, 0, 77, 80
1, 114720, Note_on_c, 1, 55, 80
1, 114720, Note_on_c, 1, 62, 80
1, 115152, Note_on_c, 0, 71, 0
1, 115152, Note_on_c, 0, 77, 0
1, 115152, Note_on_c, 1, 55, 0
1, 115152, Note_on_c, 1, 62, 0
1, 115200, Tempo, 500000
1, 115200, Note_on_c, 0, 77, 80
1, 115200, Note_on_c, 0, 71, 80
1, 115200, Note_on_c, 1, 55, 80
1, 115200, Note_on_c, 1, 62, 80
1, 116064, Note_on_c, 0, 77, 0
1, 116064, Note_on_c, 0, 71, 0
1, 116064, Note_on_c, 1, 55, 0
1, 116064, Note_on_c, 1, 62, 0
1, 116160, Tempo, 461538
1, 116160, Note_on_c, 0, 72, 74
1, 116160, Note_on_c, 0, 76, 74
1, 116160, Note_on_c, 1, 57, 70
1, 116160, Note_on_c, 1, 60, 70
1, 116592, Note_on_c, 0, 72, 0
1, 116592, Note_on_c, 0, 76, 0
1, 116592, Note_on_c, 1, 57, 0
1, 116592, Note_on_c, 1, 60, 0
1, 116640, Note_on_c, 0, 76, 80
1, 116640, Note_on_c, 0, 79, 80
1, 116640, Note_on_c, 1, 53, 80
1, 116856, Note_on_c, 0, 76, 0
1, 116856, Note_on_c, 0, 79, 0
1, 116880, Note_on_c, 0, 74, 80
1, 116880, Note_on_c, 0, 77, 80
1, 117072, Note_on_c, 1, 53, 0
1, 117096, Note_on_c, 0, 74, 0
1, 117096, Note_on_c, 0, 77, 0
1, 117120, Note_on_c, 0, 72, 80
1, 117120, Note_on_c, 0, 76, 80
1, 117120, Note_on_c, 1, 55, 80
1, 117552, Note_on_c, 0, 72, 0
1, 117552, Note_on_c, 0, 76, 0
1, 117552, Note_on_c, 1, 55, 0
1, 117600, Tempo, 480000
1, 117600, Note_on_c, 0, 74, 80
1, 117600, Note_on_c, 0, 71, 80
1, 117600, Note_on_c, 1, 53, 80
1, 118032, Note_on_c, 0, 74, 0
1, 118032, Note_on_c, 0, 71, 0
1, 118032, Note_on_c, 1, 53, 0
1, 118080, Tempo, 461538
1, 118080, Note_on_c, 0, 76, 87
1, 118080, Note_on_c, 0, 79, 87
1, 118080, Note_on_c, 1, 40, 87
1, 118080, Note_on_c, 1, 52, 87
1, 118287, Note_on_c, 0, 76, 0
1, 118287, Note_on_c, 0, 79, 0
1, 118296, Note_on_c, 1, 40, 0
1, 118296, Note_on_c, 1, 52, 0
1, 118320, Note_on_c, 0, 76, 88
1, 118320, Note_on_c, 0, 79, 88
1, 118527, Note_on_c, 0, 76, 0
1, 118527, Note_on_c, 0, 79, 0
1, 118560, Note_on_c, 1, 56, 80
1, 118776, Note_on_c, 1, 56, 0
1, 118800, Note_on_c, 0, 74, 80
1, 118800, Note_on_c, 0, 77, 80
1, 119016, Note_on_c, 0, 74, 0
1, 119016, Note_on_c, 0, 77, 0
1, 119040, Note_on_c, 1, 57, 80
1, 119256, Note_on_c, 1, 57, 0
1, 119280, Note_on_c, 0, 72, 80
1, 119280, Note_on_c, 0, 76, 80
1, 119496, Note_on_c, 0, 72, 0
1, 119496, Note_on_c, 0, 76, 0
1, 119520, Note_on_c, 1, 53, 80
1, 119736, Note_on_c, 1, 53, 0
1, 119760, Note_on_c, 0, 74, 80
1, 119760, Note_on_c, 0, 65, 80
1, 119976, Note_on_c, 0, 74, 0
1, 119976, Note_on_c, 0, 65, 0
1, 120000, Note_on_c, 1, 55, 80
1, 120216, Note_on_c, 1, 55, 0
1, 120240, Note_on_c, 0, 72, 80
1, 120240, Note_on_c, 0, 64, 80
1, 120456, Note_on_c, 0, 72, 0
1, 120456, Note_on_c, 0, 64, 0
1, 120480, Note_on_c, 1, 53, 80
1, 120696, Note_on_c, 1, 53, 0
1, 120720, Note_on_c, 0, 71, 80
1, 120720, Note_on_c, 0, 62, 80
1, 120936, Note_on_c, 0, 71, 0
1, 120936, Note_on_c, 0, 62, 0
1, 120960, Note_on_c, 1, 40, 88
1, 120960, Note_on_c, 1, 52, 88
1, 121080, Note_on_c, 0, 76, 88
1, 121188, Note_on_c, 0, 76, 0
1, 121200, Note_on_c, 0, 79, 88
1, 121308, Note_on_c, 0, 79, 0
1, 121320, Note_on_c, 0, 76, 88
1, 121374, Note_on_c, 1, 40, 0
1, 121374, Note_on_c, 1, 52, 0
1, 121428, Note_on_c, 0, 76, 0
1, 121440, Note_on_c, 1, 44, 85
1, 121440, Note_on_c, 1, 56, 85
1, 121560, Note_on_c, 0, 74, 85
1, 121668, Note_on_c, 0, 74, 0
1, 121680, Note_on_c, 0, 77, 85
1, 121788, Note_on_c, 0, 77, 0
1, 121800, Note_on_c, 0, 74, 85
1, 121854, Note_on_c, 1, 44, 0
1, 121854, Note_on_c, 1, 56, 0
1, 121908, Note_on_c, 0, 74, 0
1, 121920, Note_on_c, 1, 45, 85
1, 121920, Note_on_c, 1, 57, 85
1, 122040, Note_on_c, 0, 72, 85
1, 122148, Note_on_c, 0, 72, 0
1, 122160, Note_on_c, 0, 76, 85
1, 122268, Note_on_c, 0, 76, 0
1, 122280, Note_on_c, 0, 72, 85
1, 122334, Note_on_c, 1, 45, 0
1, 122334, Note_on_c, 1, 57, 0
1, 122388, Note_on_c, 0, 72, 0
1, 122400, Note_on_c, 1, 41, 88
1, 122400, Note_on_c, 1, 53, 88
1, 122520, Note_on_c, 0, 65, 87
1, 122628, Note_on_c, 0, 65, 0
1, 122640, Note_on_c, 0, 74, 87
1, 122748, Note_on_c, 0, 74, 0
1, 122760, Note_on_c, 0, 65, 87
1, 122814, Note_on_c, 1, 41, 0
1, 122814, Note_on_c, 1, 53, 0
1, 122868, Note_on_c, 0, 65, 0
1, 122880, Note_on_c, 1, 43, 85
1, 122880, Note_on_c, 1, 55, 85
1, 123000, Note_on_c, 0, 64, 85
1, 123108, Note_on_c, 0, 64, 0
1, 123120, Note_on_c, 0, 72, 85
1, 123228, Note_on_c, 0, 72, 0
1, 123240, Note_on_c, 0, 64, 85
1, 123294, Note_on_c, 1, 43, 0
1, 123294, Note_on_c, 1, 55, 0
1, 123348, Note_on_c, 0, 64, 0
1, 123360, Note_on_c, 1, 43, 85
1, 123360, Note_on_c, 1, 55, 85
1, 123480, Note_on_c, 0, 62, 83
1, 123588, Note_on_c, 0, 62, 0
1, 123600, Note_on_c, 0, 71, 83
1, 123708, Note_on_c, 0, 71, 0
1, 123720, Note_on_c, 0, 62, 83
1, 123774, Note_on_c, 1, 43, 0
1, 123774, Note_on_c, 1, 55, 0
1, 123828, Note_on_c, 0, 62, 0
1, 123840, Tempo, 480000
1, 123840, Note_on_c, 0, 64, 80
1, 123840, Note_on_c, 0, 72, 80
1, 123840, Note_on_c, 0, 67, 80
1, 123840, Note_on_c, 1, 48, 88
1, 123948, Note_on_c, 1, 48, 0
1, 123960, Note_on_c, 1, 52, 88
1, 124068, Note_on_c, 1, 52, 0
1, 124080, Note_on_c, 1, 55, 88
1, 124188, Note_on_c, 1, 55, 0
1, 124200, Note_on_c, 1, 60, 88
1, 124272, Note_on_c, 0, 64, 0
1, 124272, Note_on_c, 0, 72, 0
1, 124272, Note_on_c, 0, 67, 0
1, 124308, Note_on_c, 1, 60, 0
1, 124320, Note_on_c, 1, 48, 88
1, 124428, Note_on_c, 1, 48, 0
1, 124440, Note_on_c, 1, 52, 88
1, 124548, Note_on_c, 1, 52, 0
1, 124560, Note_on_c, 1, 55, 88
1, 124668, Note_on_c, 1, 55, 0
1, 124680, Note_on_c, 1, 60, 88
1, 124788, Note_on_c, 1, 60, 0
1, 124800, Tempo, 461538
1, 124800, Note_on_c, 0, 76, 80
1, 124800, Note_on_c, 1, 48, 88
1, 124872, Note_on_c, 0, 76, 0
1, 124880, Note_on_c, 0, 77, 80
1, 124908, Note_on_c, 1, 48, 0
1, 124920, Note_on_c, 1, 52, 88
1, 124952, Note_on_c, 0, 77, 0
1, 124960, Note_on_c, 0, 76, 80
1, 125028, Note_on_c, 1, 52, 0
1, 125032, Note_on_c, 0, 76, 0
1, 125040, Note_on_c, 0, 77, 80
1, 125040, Note_on_c, 1, 55, 88
1, 125112, Note_on_c, 0, 77, 0
1, 125148, Note_on_c, 1, 55, 0
1, 125160, Note_on_c, 0, 74, 75
1, 125160, Note_on_c, 1, 60, 88
1, 125214, Note_on_c, 0, 74, 0
1, 125220, Note_on_c, 0, 72, 75
1, 125268, Note_on_c, 1, 60, 0
1, 125274, Note_on_c, 0, 72, 0
1, 125280, Tempo, 500000
1, 125280, Note_on_c, 0, 79, 88
1, 125280, Note_on_c, 1, 48, 88
1, 125388, Note_on_c, 1, 48, 0
1, 125400, Note_on_c, 1, 52, 88
1, 125508, Note_on_c, 1, 52, 0
1, 125520, Note_on_c, 1, 55, 88
1, 125628, Note_on_c, 1, 55, 0
1, 125640, Note_on_c, 1, 60, 88
1, 125748, Note_on_c, 1, 60, 0
1, 125760, Note_on_c, 1, 48, 88
1, 125868, Note_on_c, 1, 48, 0
1, 125880, Note_on_c, 1, 52, 88
1, 125988, Note_on_c, 1, 52, 0
1, 126000, Note_on_c, 1, 55, 88
1, 126108, Note_on_c, 1, 55, 0
1, 126120, Note_on_c, 1, 60, 88
1, 126144, Note_on_c, 0, 79, 0
1, 126228, Note_on_c, 1, 60, 0
1, 126240, Tempo, 461538
1, 126240, Note_on_c, 0, 83, 64
1, 126240, Note_on_c, 1, 48, 92
1, 126294, Note_on_c, 0, 83, 0
1, 126300, Note_on_c, 0, 84, 64
1, 126348, Note_on_c, 1, 48, 0
1, 126354, Note_on_c, 0, 84, 0
1, 126360, Note_on_c, 0, 83, 64
1, 126360, Note_on_c, 1, 53, 92
1, 126414, Note_on_c, 0, 83, 0
1, 126420, Note_on_c, 0, 84, 64
1, 126468, Note_on_c, 1, 53, 0
1, 126474, Note_on_c, 0, 84, 0
1, 126480, Note_on_c, 0, 83, 65
1, 126480, Note_on_c, 1, 55, 92
1, 126534, Note_on_c, 0, 83, 0
1, 126540, Note_on_c, 0, 84, 65
1, 126588, Note_on_c, 1, 55, 0
1, 126594, Note_on_c, 0, 84, 0
1, 126600, Note_on_c, 0, 81, 65
1, 126600, Note_on_c, 1, 62, 92
1, 126654, Note_on_c, 0, 81, 0
1, 126660, Note_on_c, 0, 79, 65
1, 126708, Note_on_c, 1, 62, 0
1, 126714, Note_on_c, 0, 79, 0
1, 126720, Tempo, 500000
1, 126720, Note_on_c, 0, 84, 92
1, 126720, Note_on_c, 1, 48, 92
1, 126828, Note_on_c, 1, 48, 0
1, 126840, Note_on_c, 1, 52, 92
1, 126948, Note_on_c, 1, 52, 0
1, 126960, Note_on_c, 1, 55, 92
1, 127068, Note_on_c, 1, 55, 0
1, 127080, Note_on_c, 1, 60, 92
1, 127188, Note_on_c, 1, 60, 0
1, 127200, Tempo, 483870
1, 127200, Note_on_c, 1, 48, 92
1, 127308, Note_on_c, 1, 48, 0
1, 127320, Note_on_c, 1, 52, 92
1, 127428, Note_on_c, 1, 52, 0
1, 127440, Note_on_c, 1, 55, 92
1, 127548, Note_on_c, 1, 55, 0
1, 127560, Note_on_c, 1, 60, 92
1, 127584, Note_on_c, 0, 84, 0
1, 127668, Note_on_c, 1, 60, 0
1, 127680, Tempo, 461538
1, 127680, Note_on_c, 0, 76, 65
1, 127680, Note_on_c, 1, 48, 88
1, 127734, Note_on_c, 0, 76, 0
1, 127740, Note_on_c, 0, 77, 65
1, 127788, Note_on_c, 1, 48, 0
1, 127794, Note_on_c, 0, 77, 0
1, 127800, Note_on_c, 0, 76, 65
1, 127800, Note_on_c, 1, 52, 88
1, 127854, Note_on_c, 0, 76, 0
1, 127860, Note_on_c, 0, 77, 65
1, 127908, Note_on_c, 1, 52, 0
1, 127914, Note_on_c, 0, 77, 0
1, 127920, Note_on_c, 0, 76, 65
1, 127920, Note_on_c, 1, 55, 88
1, 127974, Note_on_c, 0, 76, 0
1, 127980, Note_on_c, 0, 77, 65
1, 128028, Note_on_c, 1, 55, 0
1, 128034, Note_on_c, 0, 77, 0
1, 128040, Note_on_c, 0, 74, 65
1, 128040, Note_on_c, 1, 60, 88
1, 128094, Note_on_c, 0, 74, 0
1, 128100, Note_on_c, 0, 72, 61
1, 128148, Note_on_c, 1, 60, 0
1, 128154, Note_on_c, 0, 72, 0
1, 128160, Tempo, 500000
1, 128160, Note_on_c, 0, 79, 88
1, 128160, Note_on_c, 1, 48, 88
1, 128268, Note_on_c, 1, 48, 0
1, 128280, Note_on_c, 1, 52, 88
1, 128388, Note_on_c, 1, 52, 0
1, 128400, Note_on_c, 1, 55, 88
1, 128508, Note_on_c, 1, 55, 0
1, 128520, Note_on_c, 1, 60, 88
1, 128574, Note_on_c, 0, 79, 0
1, 128628, Note_on_c, 1, 60, 0
1, 128640, Tempo, 476190
1, 128640, Note_on_c, 0, 79, 88
1, 128640, Note_on_c, 1, 48, 88
1, 128748, Note_on_c, 1, 48, 0
1, 128760, Note_on_c, 1, 52, 88
1, 128868, Note_on_c, 1, 52, 0
1, 128880, Note_on_c, 1, 55, 88
1, 128988, Note_on_c, 1, 55, 0
1, 129000, Note_on_c, 1, 60, 88
1, 129054, Note_on_c, 0, 79, 0
1, 129108, Note_on_c, 1, 60, 0
1, 129120, Tempo, 461538
1, 129120, Note_on_c, 0, 83, 69
1, 129120, Note_on_c, 1, 48, 93
1, 129174, Note_on_c, 0, 83, 0
1, 129180, Note_on_c, 0, 84, 69
1, 129228, Note_on_c, 1, 48, 0
1, 129234, Note_on_c, 0, 84, 0
1, 129240, Note_on_c, 0, 83, 69
1, 129240, Note_on_c, 1, 53, 93
1, 129294, Note_on_c, 0, 83, 0
1, 129300, Note_on_c, 0, 84, 69
1, 129348, Note_on_c, 1, 53, 0
1, 129354, Note_on_c, 0, 84, 0
1, 129360, Note_on_c, 0, 83, 69
1, 129360, Note_on_c, 1, 55, 93
1, 129414, Note_on_c, 0, 83, 0
1, 129420, Note_on_c, 0, 84, 69
1, 129468, Note_on_c, 1, 55, 0
1, 129474, Note_on_c, 0, 84, 0
1, 129480, Note_on_c, 0, 81, 69
1, 129480, Note_on_c, 1, 62, 93
1, 129534, Note_on_c, 0, 81, 0
1, 129540, Note_on_c, 0, 79, 70
1, 129588, Note_on_c, 1, 62, 0
1, 129594, Note_on_c, 0, 79, 0
1, 129600, Tempo, 500000
1, 129600, Note_on_c, 0, 84, 91
1, 129600, Note_on_c, 1, 52, 93
1, 129600, Note_on_c, 1, 55, 93
1, 129600, Note_on_c, 1, 48, 93
1, 129600, Note_on_c, 1, 60, 93
1, 130014, Note_on_c, 0, 84, 0
1, 130014, Note_on_c, 1, 52, 0
1, 130014, Note_on_c, 1, 55, 0
1, 130014, Note_on_c, 1, 48, 0
1, 130014, Note_on_c, 1, 60, 0
1, 130080, Note_on_c, 0, 88, 92
1, 130080, Note_on_c, 1, 52, 93
1, 130080, Note_on_c, 1, 64, 93
1, 130560, Tempo, 461538
1, 130728, Note_on_c, 0, 88, 0
1, 130728, Note_on_c, 1, 52, 0
1, 130728, Note_on_c, 1, 64, 0
1, 130800, Note_on_c, 0, 80, 88
1, 130800, Note_on_c, 1, 56, 88
1, 130800, Note_on_c, 1, 44, 88
1, 131016, Note_on_c, 0, 80, 0
1, 131016, Note_on_c, 1, 56, 0
1, 131016, Note_on_c, 1, 44, 0
1, 131040, Tempo, 500000
1, 131040, Note_on_c, 0, 81, 88
1, 131040, Note_on_c, 1, 45, 88
1, 131040, Note_on_c, 1, 57, 88
1, 131472, Note_on_c, 0, 81, 0
1, 131472, Note_on_c, 1, 45, 0
1, 131472, Note_on_c, 1, 57, 0
1, 131520, Tempo, 476190
1, 131520, Note_on_c, 0, 84, 92
1, 131520, Note_on_c, 1, 48, 92
1, 131520, Note_on_c, 1, 60, 92
1, 132000, Tempo, 461538
1, 132168, Note_on_c, 0, 84, 0
1, 132168, Note_on_c, 1, 48, 0
1, 132168, Note_on_c, 1, 60, 0
1, 132240, Note_on_c, 0, 76, 88
1, 132240, Note_on_c, 1, 52, 88
1, 132456, Note_on_c, 0, 76, 0
1, 132456, Note_on_c, 1, 52, 0
1, 132480, Note_on_c, 0, 77, 71
1, 132480, Note_on_c, 1, 53, 88
1, 132534, Note_on_c, 0, 77, 0
1, 132534, Note_on_c, 1, 53, 0
1, 132540, Note_on_c, 0, 79, 71
1, 132540, Note_on_c, 1, 55, 88
1, 132594, Note_on_c, 0, 79, 0
1, 132594, Note_on_c, 1, 55, 0
1, 132600, Note_on_c, 0, 77, 71
1, 132600, Note_on_c, 1, 53, 88
1, 132654, Note_on_c, 0, 77, 0
1, 132654, Note_on_c, 1, 53, 0
1, 132660, Note_on_c, 0, 79, 71
1, 132660, Note_on_c, 1, 55, 88
1, 132714, Note_on_c, 0, 79, 0
1, 132714, Note_on_c, 1, 55, 0
1, 132720, Note_on_c, 0, 77, 71
1, 132720, Note_on_c, 1, 53, 88
1, 132774, Note_on_c, 0, 77, 0
1, 132774, Note_on_c, 1, 53, 0
1, 132780, Note_on_c, 0, 79, 71
1, 132780, Note_on_c, 1, 55, 88
1, 132834, Note_on_c, 0, 79, 0
1, 132834, Note_on_c, 1, 55, 0
1, 132840, Note_on_c, 0, 76, 71
1, 132840, Note_on_c, 1, 52, 88
1, 132894, Note_on_c, 0, 76, 0
1, 132894, Note_on_c, 1, 52, 0
1, 132900, Note_on_c, 0, 74, 71
1, 132900, Note_on_c, 1, 50, 88
1, 132954, Note_on_c, 0, 74, 0
1, 132954, Note_on_c, 1, 50, 0
1, 132960, Tempo, 500000
1, 132960, Note_on_c, 0, 79, 90
1, 132960, Note_on_c, 1, 55, 88
1, 133374, Note_on_c, 0, 79, 0
1, 133374, Note_on_c, 1, 55, 0
1, 133440, Tempo, 483870
1, 133440, Note_on_c, 0, 74, 89
1, 133440, Note_on_c, 0, 83, 89
1, 133440, Note_on_c, 0, 79, 89
1, 133440, Note_on_c, 1, 43, 90
1, 133440, Note_on_c, 1, 55, 90
1, 133854, Note_on_c, 0, 74, 0
1, 133854, Note_on_c, 0, 83, 0
1, 133854, Note_on_c, 0, 79, 0
1, 133854, Note_on_c, 1, 43, 0
1, 133854, Note_on_c, 1, 55, 0
1, 133920, Note_on_c, 0, 76, 93
1, 133920, Note_on_c, 0, 84, 93
1, 133920, Note_on_c, 0, 79, 93
1, 133920, Note_on_c, 1, 48, 93
1, 133920, Note_on_c, 1, 60, 93
1, 134334, Note_on_c, 0, 76, 0
1, 134334, Note_on_c, 0, 84, 0
1, 134334, Note_on_c, 0, 79, 0
1, 134334, Note_on_c, 1, 48, 0
1, 134334, Note_on_c, 1, 60, 0
1, 134400, Note_on_c, 0, 60, 88
1, 134400, Note_on_c, 1, 36, 88
1, 134400, Note_on_c, 1, 48, 88
1, 134814, Note_on_c, 0, 60, 0
1, 134814, Note_on_c, 1, 36, 0
1, 134814, Note_on_c, 1, 48, 0
1, 135360, Tempo, 240000
1, 136800, Tempo, 472440
1, 136800, Note_on_c, 0, 67, 75
1, 137280, Tempo, 461538
1, 137280, Note_on_c, 0, 72, 80
1, 137280, Note_on_c, 1, 52, 80
1, 137712, Note_on_c, 0, 72, 0
1, 137712, Note_on_c, 1, 52, 0
1, 137760, Note_on_c, 0, 76, 80
1, 137760, Note_on_c, 1, 48, 80
1, 138096, Note_on_c, 0, 67, 0
1, 138192, Note_on_c, 0, 76, 0
1, 138192, Note_on_c, 1, 48, 0
1, 138240, Note_on_c, 0, 67, 76
1, 138240, Note_on_c, 0, 72, 76
1, 138240, Note_on_c, 0, 76, 76
1, 138240, Note_on_c, 1, 55, 76
1, 139104, Note_on_c, 0, 72, 0
1, 139104, Note_on_c, 0, 76, 0
1, 139200, Note_on_c, 0, 71, 76
1, 139200, Note_on_c, 0, 74, 76
1, 139536, Note_on_c, 0, 67, 0
1, 139536, Note_on_c, 1, 55, 0
1, 139632, Note_on_c, 0, 71, 0
1, 139632, Note_on_c, 0, 74, 0
1, 139680, Tempo, 472440
1, 139680, Note_on_c, 0, 79, 80
1, 140112, Note_on_c, 0, 79, 0
1, 140160, Tempo, 461538
1, 140160, Note_on_c, 0, 72, 80
1, 140160, Note_on_c, 0, 67, 80
1, 140160, Note_on_c, 1, 52, 80
1, 140592, Note_on_c, 0, 72, 0
1, 140592, Note_on_c, 1, 52, 0
1, 140640, Note_on_c, 0, 76, 80
1, 140640, Note_on_c, 1, 48, 80
1, 141024, Note_on_c, 0, 67, 0
1, 141072, Note_on_c, 0, 76, 0
1, 141072, Note_on_c, 1, 48, 0
1, 141120, Note_on_c, 0, 67, 76
1, 141120, Note_on_c, 0, 72, 76
1, 141120, Note_on_c, 0, 76, 76
1, 141120, Note_on_c, 1, 55, 76
1, 141984, Note_on_c, 0, 72, 0
1, 141984, Note_on_c, 0, 76, 0
1, 142080, Note_on_c, 0, 71, 76
1, 142080, Note_on_c, 0, 74, 76
1, 142416, Note_on_c, 0, 67, 0
1, 142416, Note_on_c, 1, 55, 0
1, 142512, Note_on_c, 0, 71, 0
1, 142512, Note_on_c, 0, 74, 0
1, 142560, Tempo, 487804
1, 142560, Note_on_c, 0, 69, 80
1, 142560, Note_on_c, 1, 53, 80
1, 142560, Note_on_c, 1, 62, 80
1, 142560, Note_on_c, 1, 57, 80
1, 142992, Note_on_c, 0, 69, 0
1, 142992, Note_on_c, 1, 53, 0
1, 142992, Note_on_c, 1, 62, 0
1, 142992, Note_on_c, 1, 57, 0
1, 143040, Tempo, 461538
1, 143040, Note_on_c, 0, 74, 80
1, 143484, Note_on_c, 0, 74, 0
1, 143520, Note_on_c, 0, 77, 80
1, 143964, Note_on_c, 0, 77, 0
1, 144000, Tempo, 487804
1, 144000, Note_on_c, 0, 76, 80
1, 144000, Note_on_c, 1, 53, 80
1, 144000, Note_on_c, 1, 62, 80
1, 144000, Note_on_c, 1, 57, 80
1, 144432, Note_on_c, 0, 76, 0
1, 144432, Note_on_c, 1, 53, 0
1, 144432, Note_on_c, 1, 62, 0
1, 144432, Note_on_c, 1, 57, 0
1, 144480, Tempo, 461538
1, 144480, Note_on_c, 0, 74, 80
1, 144912, Note_on_c, 0, 74, 0
1, 144960, Note_on_c, 0, 81, 80
1, 145392, Note_on_c, 0, 81, 0
1, 145440, Tempo, 487804
1, 145440, Note_on_c, 0, 81, 80
1, 145440, Note_on_c, 1, 55, 80
1, 145440, Note_on_c, 1, 62, 80
1, 145440, Note_on_c, 1, 65, 80
1, 145872, Note_on_c, 0, 81, 0
1, 145920, Tempo, 461538
1, 145920, Note_on_c, 0, 79, 78
1, 146352, Note_on_c, 0, 79, 0
1, 146400, Note_on_c, 0, 71, 78
1, 146736, Note_on_c, 1, 55, 0
1, 146736, Note_on_c, 1, 62, 0
1, 146736, Note_on_c, 1, 65, 0
1, 146832, Note_on_c, 0, 71, 0
1, 146880, Note_on_c, 0, 72, 80
1, 146880, Note_on_c, 1, 64, 80
1, 146880, Note_on_c, 1, 60, 80
1, 147096, Note_on_c, 0, 72, 0
1, 147120, Note_on_c, 0, 67, 80
1, 147312, Note_on_c, 1, 64, 0
1, 147312, Note_on_c, 1, 60, 0
1, 147336, Note_on_c, 0, 67, 0
1, 147360, Note_on_c, 0, 64, 80
1, 147576, Note_on_c, 0, 64, 0
1, 147600, Note_on_c, 0, 67, 80
1, 147816, Note_on_c, 0, 67, 0
1, 147840, Note_on_c, 0, 65, 80
1, 148056, Note_on_c, 0, 65, 0
1, 148080, Note_on_c, 0, 62, 80
1, 148296, Note_on_c, 0, 62, 0
1, 148320, Note_on_c, 0, 60, 78
1, 148644, Note_on_c, 0, 60, 0
1, 148680, Note_on_c, 0, 55, 78
1, 148788, Note_on_c, 0, 55, 0
1, 148800, Note_on_c, 0, 60, 78
1, 148800, Note_on_c, 1, 52, 78
1, 149232, Note_on_c, 0, 60, 0
1, 149232, Note_on_c, 1, 52, 0
1, 149280, Note_on_c, 0, 64, 78
1, 149280, Note_on_c, 1, 48, 78
1, 149712, Note_on_c, 0, 64, 0
1, 149712, Note_on_c, 1, 48, 0
1, 149760, Note_on_c, 0, 64, 79
1, 149760, Note_on_c, 0, 60, 79
1, 149760, Note_on_c, 1, 55, 78
1, 149760, Note_on_c, 1, 43, 78
1, 150624, Note_on_c, 0, 64, 0
1, 150624, Note_on_c, 0, 60, 0
1, 150720, Tempo, 480000
1, 150720, Note_on_c, 0, 59, 80
1, 150720, Note_on_c, 0, 62, 80
1, 151056, Note_on_c, 1, 55, 0
1, 151056, Note_on_c, 1, 43, 0
1, 151152, Note_on_c, 0, 59, 0
1, 151152, Note_on_c, 0, 62, 0
1, 151200, Tempo, 487804
1, 151200, Note_on_c, 0, 67, 80
1, 151632, Note_on_c, 0, 67, 0
1, 151680, Tempo, 461538
1, 151680, Note_on_c, 0, 55, 80
1, 151680, Note_on_c, 0, 60, 80
1, 151680, Note_on_c, 1, 52, 80
1, 152112, Note_on_c, 0, 60, 0
1, 152112, Note_on_c, 1, 52, 0
1, 152160, Note_on_c, 0, 64, 80
1, 152160, Note_on_c, 1, 48, 80
1, 152544, Note_on_c, 0, 55, 0
1, 152592, Note_on_c, 0, 64, 0
1, 152592, Note_on_c, 1, 48, 0
1, 152640, Note_on_c, 0, 64, 80
1, 152640, Note_on_c, 0, 60, 80
1, 152640, Note_on_c, 1, 55, 80
1, 152640, Note_on_c, 1, 43, 80
1, 153504, Note_on_c, 0, 64, 0
1, 153504, Note_on_c, 0, 60, 0
1, 153600, Note_on_c, 0, 59, 80
1, 153600, Note_on_c, 0, 62, 80
1, 153936, Note_on_c, 1, 55, 0
1, 153936, Note_on_c, 1, 43, 0
1, 154032, Note_on_c, 0, 59, 0
1, 154032, Note_on_c, 0, 62, 0
1, 154080, Tempo, 487804
1, 154080, Note_on_c, 0, 57, 80
1, 154080, Note_on_c, 1, 41, 80
1, 154080, Note_on_c, 1, 50, 80
1, 154080, Note_on_c, 1, 45, 80
1, 154512, Note_on_c, 0, 57, 0
1, 154512, Note_on_c, 1, 41, 0
1, 154512, Note_on_c, 1, 50, 0
1, 154512, Note_on_c, 1, 45, 0
1, 154560, Tempo, 461538
1, 154560, Note_on_c, 0, 62, 80
1, 154992, Note_on_c, 0, 62, 0
1, 155040, Note_on_c, 0, 65, 80
1, 155472, Note_on_c, 0, 65, 0
1, 155520, Tempo, 487804
1, 155520, Note_on_c, 0, 64, 80
1, 155520, Note_on_c, 1, 41, 80
1, 155520, Note_on_c, 1, 50, 80
1, 155520, Note_on_c, 1, 45, 80
1, 155952, Note_on_c, 0, 64, 0
1, 155952, Note_on_c, 1, 41, 0
1, 155952, Note_on_c, 1, 50, 0
1, 155952, Note_on_c, 1, 45, 0
1, 156000, Tempo, 461538
1, 156000, Note_on_c, 0, 62, 80
1, 156432, Note_on_c, 0, 62, 0
1, 156480, Note_on_c, 0, 69, 80
1, 156960, Note_on_c, 1, 43, 80
1, 156960, Note_on_c, 1, 50, 80
1, 156960, Note_on_c, 1, 53, 80
1, 157392, Note_on_c, 0, 69, 0
1, 157392, Note_on_c, 1, 43, 0
1, 157392, Note_on_c, 1, 50, 0
1, 157392, Note_on_c, 1, 53, 0
1, 157440, Note_on_c, 0, 67, 80
1, 157872, Note_on_c, 0, 67, 0
1, 157920, Note_on_c, 0, 59, 80
1, 158352, Note_on_c, 0, 59, 0
1, 158400, Tempo, 476190
1, 158400, Note_on_c, 0, 60, 80
1, 158400, Note_on_c, 1, 48, 80
1, 158400, Note_on_c, 1, 52, 80
1, 158616, Note_on_c, 0, 60, 0
1, 158640, Note_on_c, 0, 67, 80
1, 158832, Note_on_c, 1, 48, 0
1, 158832, Note_on_c, 1, 52, 0
1, 158856, Note_on_c, 0, 67, 0
1, 158880, Note_on_c, 1, 64, 80
1, 159120, Tempo, 476190
1, 159120, Note_on_c, 0, 67, 80
1, 159312, Note_on_c, 1, 64, 0
1, 159336, Note_on_c, 0, 67, 0
1, 159360, Note_on_c, 1, 60, 80
1, 159600, Note_on_c, 0, 67, 80
1, 159792, Note_on_c, 1, 60, 0
1, 159816, Note_on_c, 0, 67, 0
1, 159840, Tempo, 476190
1, 159840, Note_on_c, 0, 67, 80
1, 159840, Note_on_c, 0, 65, 80
1, 159840, Note_on_c, 1, 62, 80
1, 160056, Note_on_c, 0, 67, 0
1, 160056, Note_on_c, 0, 65, 0
1, 160080, Tempo, 461538
1, 160080, Note_on_c, 0, 67, 80
1, 160080, Note_on_c, 0, 65, 80
1, 160272, Note_on_c, 1, 62, 0
1, 160296, Note_on_c, 0, 67, 0
1, 160296, Note_on_c, 0, 65, 0
1, 160320, Note_on_c, 1, 59, 80
1, 160560, Note_on_c, 0, 65, 80
1, 160560, Note_on_c, 0, 67, 80
1, 160752, Note_on_c, 1, 59, 0
1, 160776, Note_on_c, 0, 65, 0
1, 160776, Note_on_c, 0, 67, 0
1, 160800, Note_on_c, 1, 55, 80
1, 161040, Note_on_c, 0, 67, 80
1, 161040, Note_on_c, 0, 65, 80
1, 161232, Note_on_c, 1, 55, 0
1, 161256, Note_on_c, 0, 67, 0
1, 161256, Note_on_c, 0, 65, 0
1, 161280, Tempo, 476190
1, 161280, Note_on_c, 0, 63, 74
1, 161280, Note_on_c, 0, 67, 74
1, 161280, Note_on_c, 1, 48, 74
1, 161496, Note_on_c, 0, 63, 0
1, 161496, Note_on_c, 0, 67, 0
1, 161520, Tempo, 461538
1, 161520, Note_on_c, 0, 63, 74
1, 161520, Note_on_c, 0, 67, 74
1, 161712, Note_on_c, 1, 48, 0
1, 161736, Note_on_c, 0, 63, 0
1, 161736, Note_on_c, 0, 67, 0
1, 161760, Note_on_c, 1, 51, 74
1, 162000, Note_on_c, 0, 63, 74
1, 162000, Note_on_c, 0, 67, 74
1, 162192, Note_on_c, 1, 51, 0
1, 162216, Note_on_c, 0, 63, 0
1, 162216, Note_on_c, 0, 67, 0
1, 162240, Note_on_c, 1, 48, 74
1, 162480, Note_on_c, 0, 63, 74
1, 162480, Note_on_c, 0, 67, 74
1, 162672, Note_on_c, 1, 48, 0
1, 162696, Note_on_c, 0, 63, 0
1, 162696, Note_on_c, 0, 67, 0
1, 162720, Tempo, 476190
1, 162720, Note_on_c, 0, 67, 80
1, 162720, Note_on_c, 0, 65, 80
1, 162720, Note_on_c, 1, 50, 80
1, 162936, Note_on_c, 0, 67, 0
1, 162936, Note_on_c, 0, 65, 0
1, 162960, Tempo, 461538
1, 162960, Note_on_c, 0, 67, 80
1, 162960, Note_on_c, 0, 65, 80
1, 163152, Note_on_c, 1, 50, 0
1, 163176, Note_on_c, 0, 67, 0
1, 163176, Note_on_c, 0, 65, 0
1, 163200, Note_on_c, 1, 47, 80
1, 163440, Note_on_c, 0, 65, 80
1, 163440, Note_on_c, 0, 67, 80
1, 163632, Note_on_c, 1, 47, 0
1, 163656, Note_on_c, 0, 65, 0
1, 163656, Note_on_c, 0, 67, 0
1, 163680, Note_on_c, 1, 43, 80
1, 163920, Note_on_c, 0, 67, 80
1, 163920, Note_on_c, 0, 65, 80
1, 164112, Note_on_c, 1, 43, 0
1, 164136, Note_on_c, 0, 67, 0
1, 164136, Note_on_c, 0, 65, 0
1, 164160, Tempo, 476190
1, 164160, Note_on_c, 0, 63, 74
1, 164160, Note_on_c, 0, 67, 74
1, 164160, Note_on_c, 1, 48, 74
1, 164160, Note_on_c, 1, 36, 74
1, 164376, Note_on_c, 0, 63, 0
1, 164376, Note_on_c, 0, 67, 0
1, 164400, Tempo, 461538
1, 164400, Note_on_c, 0, 63, 74
1, 164400, Note_on_c, 0, 67, 74
1, 164592, Note_on_c, 1, 48, 0
1, 164592, Note_on_c, 1, 36, 0
1, 164616, Note_on_c, 0, 63, 0
1, 164616, Note_on_c, 0, 67, 0
1, 164640, Note_on_c, 1, 60, 74
1, 164880, Note_on_c, 0, 63, 74
1, 164880, Note_on_c, 0, 67, 74
1, 165072, Note_on_c, 1, 60, 0
1, 165096, Note_on_c, 0, 63, 0
1, 165096, Note_on_c, 0, 67, 0
1, 165120, Note_on_c, 1, 48, 74
1, 165360, Note_on_c, 0, 63, 74
1, 165360, Note_on_c, 0, 67, 74
1, 165552, Note_on_c, 1, 48, 0
1, 165576, Note_on_c, 0, 63, 0
1, 165576, Note_on_c, 0, 67, 0
1, 165600, Tempo, 476190
1, 165600, Note_on_c, 0, 63, 80
1, 165600, Note_on_c, 0, 60, 80
1, 165600, Note_on_c, 0, 66, 80
1, 165600, Note_on_c, 1, 33, 80
1, 165600, Note_on_c, 1, 45, 80
1, 165816, Note_on_c, 0, 63, 0
1, 165816, Note_on_c, 0, 60, 0
1, 165816, Note_on_c, 0, 66, 0
1, 165840, Tempo, 461538
1, 165840, Note_on_c, 0, 63, 80
1, 165840, Note_on_c, 0, 60, 80
1, 165840, Note_on_c, 0, 66, 80
1, 166032, Note_on_c, 1, 33, 0
1, 166032, Note_on_c, 1, 45, 0
1, 166056, Note_on_c, 0, 63, 0
1, 166056, Note_on_c, 0, 60, 0
1, 166056, Note_on_c, 0, 66, 0
1, 166080, Note_on_c, 1, 57, 80
1, 166320, Note_on_c, 0, 63, 80
1, 166320, Note_on_c, 0, 60, 80
1, 166320, Note_on_c, 0, 66, 80
1, 166512, Note_on_c, 1, 57, 0
1, 166536, Note_on_c, 0, 63, 0
1, 166536, Note_on_c, 0, 60, 0
1, 166536, Note_on_c, 0, 66, 0
1, 166560, Note_on_c, 1, 45, 80
1, 166800, Note_on_c, 0, 63, 80
1, 166800, Note_on_c, 0, 60, 80
1, 166800, Note_on_c, 0, 66, 80
1, 166992, Note_on_c, 1, 45, 0
1, 167016, Note_on_c, 0, 63, 0
1, 167016, Note_on_c, 0, 60, 0
1, 167016, Note_on_c, 0, 66, 0
1, 167040, Tempo, 476190
1, 167040, Note_on_c, 0, 67, 81
1, 167040, Note_on_c, 0, 62, 81
1, 167040, Note_on_c, 1, 34, 80
1, 167040, Note_on_c, 1, 46, 80
1, 167256, Note_on_c, 0, 67, 0
1, 167256, Note_on_c, 0, 62, 0
1, 167280, Tempo, 461538
1, 167280, Note_on_c, 0, 67, 81
1, 167280, Note_on_c, 0, 62, 81
1, 167472, Note_on_c, 1, 34, 0
1, 167472, Note_on_c, 1, 46, 0
1, 167496, Note_on_c, 0, 67, 0
1, 167496, Note_on_c, 0, 62, 0
1, 167520, Note_on_c, 1, 58, 80
1, 167760, Note_on_c, 0, 67, 81
1, 167760, Note_on_c, 0, 62, 81
1, 167952, Note_on_c, 1, 58, 0
1, 167976, Note_on_c, 0, 67, 0
1, 167976, Note_on_c, 0, 62, 0
1, 168000, Note_on_c, 1, 46, 80
1, 168240, Note_on_c, 0, 67, 81
1, 168240, Note_on_c, 0, 62, 81
1, 168432, Note_on_c, 1, 46, 0
1, 168456, Note_on_c, 0, 67, 0
1, 168456, Note_on_c, 0, 62, 0
1, 168480, Tempo, 476190
1, 168480, Note_on_c, 0, 62, 82
1, 168480, Note_on_c, 0, 72, 82
1, 168480, Note_on_c, 0, 69, 82
1, 168480, Note_on_c, 1, 30, 80
1, 168480, Note_on_c, 1, 42, 80
1, 168696, Note_on_c, 0, 62, 0
1, 168696, Note_on_c, 0, 72, 0
1, 168696, Note_on_c, 0, 69, 0
1, 168720, Tempo, 461538
1, 168720, Note_on_c, 0, 62, 82
1, 168720, Note_on_c, 0, 72, 82
1, 168720, Note_on_c, 0, 69, 82
1, 168912, Note_on_c, 1, 30, 0
1, 168912, Note_on_c, 1, 42, 0
1, 168936, Note_on_c, 0, 62, 0
1, 168936, Note_on_c, 0, 72, 0
1, 168936, Note_on_c, 0, 69, 0
1, 168960, Note_on_c, 1, 54, 80
1, 169200, Note_on_c, 0, 62, 82
1, 169200, Note_on_c, 0, 72, 82
1, 169200, Note_on_c, 0, 69, 82
1, 169392, Note_on_c, 1, 54, 0
1, 169416, Note_on_c, 0, 62, 0
1, 169416, Note_on_c, 0, 72, 0
1, 169416, Note_on_c, 0, 69, 0
1, 169440, Note_on_c, 1, 42, 80
1, 169680, Note_on_c, 0, 62, 82
1, 169680, Note_on_c, 0, 72, 82
1, 169680, Note_on_c, 0, 69, 82
1, 169872, Note_on_c, 1, 42, 0
1, 169896, Note_on_c, 0, 62, 0
1, 169896, Note_on_c, 0, 72, 0
1, 169896, Note_on_c, 0, 69, 0
1, 169920, Tempo, 476190
1, 169920, Note_on_c, 0, 62, 80
1, 169920, Note_on_c, 0, 70, 80
1, 169920, Note_on_c, 0, 67, 80
1, 169920, Note_on_c, 1, 31, 80
1, 169920, Note_on_c, 1, 43, 80
1, 170136, Note_on_c, 0, 62, 0
1, 170136, Note_on_c, 0, 70, 0
1, 170136, Note_on_c, 0, 67, 0
1, 170160, Tempo, 461538
1, 170160, Note_on_c, 0, 62, 80
1, 170160, Note_on_c, 0, 70, 80
1, 170160, Note_on_c, 0, 67, 80
1, 170352, Note_on_c, 1, 31, 0
1, 170352, Note_on_c, 1, 43, 0
1, 170376, Note_on_c, 0, 62, 0
1, 170376, Note_on_c, 0, 70, 0
1, 170376, Note_on_c, 0, 67, 0
1, 170400, Note_on_c, 1, 55, 80
1, 170640, Note_on_c, 0, 62, 80
1, 170640, Note_on_c, 0, 70, 80
1, 170640, Note_on_c, 0, 67, 80
1, 170832, Note_on_c, 1, 55, 0
1, 170856, Note_on_c, 0, 62, 0
1, 170856, Note_on_c, 0, 70, 0
1, 170856, Note_on_c, 0, 67, 0
1, 170880, Note_on_c, 1, 43, 80
1, 171120, Note_on_c, 0, 62, 80
1, 171120, Note_on_c, 0, 70, 80
1, 171120, Note_on_c, 0, 67, 80
1, 171312, Note_on_c, 1, 43, 0
1, 171336, Note_on_c, 0, 62, 0
1, 171336, Note_on_c, 0, 70, 0
1, 171336, Note_on_c, 0, 67, 0
1, 171360, Tempo, 476190
1, 171360, Note_on_c, 0, 67, 81
1, 171360, Note_on_c, 0, 73, 81
1, 171360, Note_on_c, 0, 70, 81
1, 171360, Note_on_c, 1, 52, 80
1, 171360, Note_on_c, 1, 40, 80
1, 171576, Note_on_c, 0, 67, 0
1, 171576, Note_on_c, 0, 73, 0
1, 171576, Note_on_c, 0, 70, 0
1, 171600, Tempo, 461538
1, 171600, Note_on_c, 0, 67, 81
1, 171600, Note_on_c, 0, 73, 81
1, 171600, Note_on_c, 0, 70, 81
1, 171792, Note_on_c, 1, 52, 0
1, 171792, Note_on_c, 1, 40, 0
1, 171816, Note_on_c, 0, 67, 0
1, 171816, Note_on_c, 0, 73, 0
1, 171816, Note_on_c, 0, 70, 0
1, 171840, Note_on_c, 1, 64, 80
1, 172080, Note_on_c, 0, 67, 81
1, 172080, Note_on_c, 0, 73, 81
1, 172080, Note_on_c, 0, 70, 81
1, 172272, Note_on_c, 1, 64, 0
1, 172296, Note_on_c, 0, 67, 0
1, 172296, Note_on_c, 0, 73, 0
1, 172296, Note_on_c, 0, 70, 0
1, 172320, Note_on_c, 1, 52, 80
1, 172560, Note_on_c, 0, 67, 81
1, 172560, Note_on_c, 0, 73, 81
1, 172560, Note_on_c, 0, 70, 81
1, 172752, Note_on_c, 1, 52, 0
1, 172776, Note_on_c, 0, 67, 0
1, 172776, Note_on_c, 0, 73, 0
1, 172776, Note_on_c, 0, 70, 0
1, 172800, Tempo, 476190
1, 172800, Note_on_c, 0, 74, 82
1, 172800, Note_on_c, 0, 69, 82
1, 172800, Note_on_c, 1, 41, 80
1, 172800, Note_on_c, 1, 53, 80
1, 173016, Note_on_c, 0, 74, 0
1, 173016, Note_on_c, 0, 69, 0
1, 173040, Tempo, 461538
1, 173040, Note_on_c, 0, 74, 82
1, 173040, Note_on_c, 0, 69, 82
1, 173232, Note_on_c, 1, 41, 0
1, 173232, Note_on_c, 1, 53, 0
1, 173256, Note_on_c, 0, 74, 0
1, 173256, Note_on_c, 0, 69, 0
1, 173280, Note_on_c, 1, 65, 80
1, 173520, Note_on_c, 0, 74, 82
1, 173520, Note_on_c, 0, 69, 82
1, 173712, Note_on_c, 1, 65, 0
1, 173736, Note_on_c, 0, 74, 0
1, 173736, Note_on_c, 0, 69, 0
1, 173760, Note_on_c, 1, 53, 80
1, 174000, Note_on_c, 0, 74, 82
1, 174000, Note_on_c, 0, 69, 82
1, 174192, Note_on_c, 1, 53, 0
1, 174216, Note_on_c, 0, 74, 0
1, 174216, Note_on_c, 0, 69, 0
1, 174240, Tempo, 476190
1, 174240, Note_on_c, 0, 79, 83
1, 174240, Note_on_c, 0, 69, 83
1, 174240, Note_on_c, 0, 76, 83
1, 174240, Note_on_c, 1, 37, 80
1, 174240, Note_on_c, 1, 49, 80
1, 174456, Note_on_c, 0, 79, 0
1, 174456, Note_on_c, 0, 69, 0
1, 174456, Note_on_c, 0, 76, 0
1, 174480, Tempo, 461538
1, 174480, Note_on_c, 0, 79, 83
1, 174480, Note_on_c, 0, 69, 83
1, 174480, Note_on_c, 0, 76, 83
1, 174672, Note_on_c, 1, 37, 0
1, 174672, Note_on_c, 1, 49, 0
1, 174696, Note_on_c, 0, 79, 0
1, 174696, Note_on_c, 0, 69, 0
1, 174696, Note_on_c, 0, 76, 0
1, 174720, Note_on_c, 1, 61, 80
1, 174960, Note_on_c, 0, 79, 83
1, 174960, Note_on_c, 0, 69, 83
1, 174960, Note_on_c, 0, 76, 83
1, 175152, Note_on_c, 1, 61, 0
1, 175176, Note_on_c, 0, 79, 0
1, 175176, Note_on_c, 0, 69, 0
1, 175176, Note_on_c, 0, 76, 0
1, 175200, Note_on_c, 1, 49, 80
1, 175440, Note_on_c, 0, 79, 83
1, 175440, Note_on_c, 0, 69, 83
1, 175440, Note_on_c, 0, 76, 83
1, 175632, Note_on_c, 1, 49, 0
1, 175656, Note_on_c, 0, 79, 0
1, 175656, Note_on_c, 0, 69, 0
1, 175656, Note_on_c, 0, 76, 0
1, 175680, Tempo, 476190
1, 175680, Note_on_c, 0, 77, 80
1, 175680, Note_on_c, 0, 69, 80
1, 175680, Note_on_c, 0, 74, 80
1, 175680, Note_on_c, 1, 38, 80
1, 175680, Note_on_c, 1, 50, 80
1, 175896, Note_on_c, 0, 77, 0
1, 175896, Note_on_c, 0, 69, 0
1, 175896, Note_on_c, 0, 74, 0
1, 175920, Tempo, 461538
1, 175920, Note_on_c, 0, 77, 80
1, 175920, Note_on_c, 0, 69, 80
1, 175920, Note_on_c, 0, 74, 80
1, 176112, Note_on_c, 1, 38, 0
1, 176112, Note_on_c, 1, 50, 0
1, 176136, Note_on_c, 0, 77, 0
1, 176136, Note_on_c, 0, 69, 0
1, 176136, Note_on_c, 0, 74, 0
1, 176160, Note_on_c, 1, 62, 80
1, 176400, Note_on_c, 0, 77, 80
1, 176400, Note_on_c, 0, 69, 80
1, 176400, Note_on_c, 0, 74, 80
1, 176592, Note_on_c, 1, 62, 0
1, 176616, Note_on_c, 0, 77, 0
1, 176616, Note_on_c, 0, 69, 0
1, 176616, Note_on_c, 0, 74, 0
1, 176640, Note_on_c, 1, 50, 80
1, 176880, Note_on_c, 0, 77, 80
1, 176880, Note_on_c, 0, 69, 80
1, 176880, Note_on_c, 0, 74, 80
1, 177072, Note_on_c, 1, 50, 0
1, 177096, Note_on_c, 0, 77, 0
1, 177096, Note_on_c, 0, 69, 0
1, 177096, Note_on_c, 0, 74, 0
1, 177120, Tempo, 476190
1, 177120, Note_on_c, 0, 80, 80
1, 177120, Note_on_c, 0, 74, 80
1, 177120, Note_on_c, 1, 34, 80
1, 177120, Note_on_c, 1, 46, 80
1, 177336, Note_on_c, 0, 80, 0
1, 177336, Note_on_c, 0, 74, 0
1, 177360, Tempo, 461538
1, 177360, Note_on_c, 0, 80, 80
1, 177360, Note_on_c, 0, 74, 80
1, 177552, Note_on_c, 1, 34, 0
1, 177552, Note_on_c, 1, 46, 0
1, 177576, Note_on_c, 0, 80, 0
1, 177576, Note_on_c, 0, 74, 0
1, 177600, Note_on_c, 1, 58, 80
1, 177840, Note_on_c, 0, 80, 80
1, 177840, Note_on_c, 0, 74, 80
1, 178032, Note_on_c, 1, 58, 0
1, 178056, Note_on_c, 0, 80, 0
1, 178056, Note_on_c, 0, 74, 0
1, 178080, Note_on_c, 1, 46, 80
1, 178320, Note_on_c, 0, 80, 80
1, 178320, Note_on_c, 0, 74, 80
1, 178512, Note_on_c, 1, 46, 0
1, 178536, Note_on_c, 0, 80, 0
1, 178536, Note_on_c, 0, 74, 0
1, 178560, Tempo, 476190
1, 178560, Note_on_c, 0, 81, 82
1, 178560, Note_on_c, 0, 73, 82
1, 178560, Note_on_c, 1, 45, 82
1, 178776, Note_on_c, 0, 81, 0
1, 178776, Note_on_c, 0, 73, 0
1, 178800, Tempo, 461538
1, 178800, Note_on_c, 0, 77, 82
1, 178800, Note_on_c, 0, 81, 82
1, 178992, Note_on_c, 1, 45, 0
1, 179016, Note_on_c, 0, 77, 0
1, 179016, Note_on_c, 0, 81, 0
1, 179040, Note_on_c, 0, 76, 71
1, 179040, Note_on_c, 0, 79, 71
1, 179256, Note_on_c, 0, 76, 0
1, 179256, Note_on_c, 0, 79, 0
1, 179280, Note_on_c, 0, 74, 70
1, 179280, Note_on_c, 0, 77, 70
1, 179496, Note_on_c, 0, 74, 0
1, 179496, Note_on_c, 0, 77, 0
1, 179520, Note_on_c, 0, 73, 70
1, 179520, Note_on_c, 0, 76, 70
1, 179736, Note_on_c, 0, 73, 0
1, 179736, Note_on_c, 0, 76, 0
1, 179760, Note_on_c, 0, 74, 69
1, 179760, Note_on_c, 0, 77, 69
1, 179760, Note_on_c, 1, 68, 82
1, 179976, Note_on_c, 0, 74, 0
1, 179976, Note_on_c, 0, 77, 0
1, 179976, Note_on_c, 1, 68, 0
1, 180000, Note_on_c, 0, 76, 72
1, 180000, Note_on_c, 0, 73, 72
1, 180000, Note_on_c, 1, 69, 80
1, 180216, Note_on_c, 0, 76, 0
1, 180216, Note_on_c, 0, 73, 0
1, 180240, Note_on_c, 0, 69, 70
1, 180240, Note_on_c, 0, 65, 70
1, 180432, Note_on_c, 1, 69, 0
1, 180456, Note_on_c, 0, 69, 0
1, 180456, Note_on_c, 0, 65, 0
1, 180480, Note_on_c, 0, 64, 69
1, 180480, Note_on_c, 0, 67, 69
1, 180696, Note_on_c, 0, 64, 0
1, 180696, Note_on_c, 0, 67, 0
1, 180720, Note_on_c, 0, 62, 68
1, 180720, Note_on_c, 0, 65, 68
1, 180936, Note_on_c, 0, 62, 0
1, 180936, Note_on_c, 0, 65, 0
1, 180960, Note_on_c, 0, 64, 68
1, 180960, Note_on_c, 0, 61, 68
1, 181176, Note_on_c, 0, 64, 0
1, 181176, Note_on_c, 0, 61, 0
1, 181200, Note_on_c, 0, 62, 67
1, 181200, Note_on_c, 0, 65, 67
1, 181200, Note_on_c, 1, 56, 76
1, 181416, Note_on_c, 0, 62, 0
1, 181416, Note_on_c, 0, 65, 0
1, 181416, Note_on_c, 1, 56, 0
1, 181440, Tempo, 472440
1, 181440, Note_on_c, 0, 64, 68
1, 181440, Note_on_c, 0, 61, 68
1, 181440, Note_on_c, 1, 57, 75
1, 181656, Note_on_c, 0, 64, 0
1, 181656, Note_on_c, 0, 61, 0
1, 181656, Note_on_c, 1, 57, 0
1, 181680, Tempo, 468750
1, 181680, Note_on_c, 0, 62, 67
1, 181680, Note_on_c, 0, 65, 67
1, 181680, Note_on_c, 1, 56, 72
1, 181896, Note_on_c, 0, 62, 0
1, 181896, Note_on_c, 0, 65, 0
1, 181896, Note_on_c, 1, 56, 0
1, 181920, Note_on_c, 0, 64, 67
1, 181920, Note_on_c, 0, 61, 67
1, 181920, Note_on_c, 1, 57, 72
1, 182136, Note_on_c, 0, 64, 0
1, 182136, Note_on_c, 0, 61, 0
1, 182136, Note_on_c, 1, 57, 0
1, 182160, Note_on_c, 0, 62, 67
1, 182160, Note_on_c, 0, 65, 67
1, 182160, Note_on_c, 1, 56, 72
1, 182376, Note_on_c, 0, 62, 0
1, 182376, Note_on_c, 0, 65, 0
1, 182376, Note_on_c, 1, 56, 0
1, 182400, Note_on_c, 0, 64, 67
1, 182400, Note_on_c, 0, 61, 67
1, 182400, Note_on_c, 1, 57, 72
1, 182616, Note_on_c, 0, 64, 0
1, 182616, Note_on_c, 0, 61, 0
1, 182616, Note_on_c, 1, 57, 0
1, 182640, Note_on_c, 0, 62, 67
1, 182640, Note_on_c, 0, 65, 67
1, 182640, Note_on_c, 1, 56, 72
1, 182856, Note_on_c, 0, 62, 0
1, 182856, Note_on_c, 0, 65, 0
1, 182856, Note_on_c, 1, 56, 0
1, 182880, Tempo, 465116
1, 182880, Note_on_c, 0, 61, 67
1, 182880, Note_on_c, 0, 64, 67
1, 182880, Note_on_c, 1, 57, 74
1, 183312, Note_on_c, 0, 61, 0
1, 183312, Note_on_c, 0, 64, 0
1, 183312, Note_on_c, 1, 57, 0
1, 184320, Tempo, 472440
1, 184320, Note_on_c, 0, 64, 63
1, 184320, Note_on_c, 0, 60, 63
1, 184320, Note_on_c, 1, 57, 70
1, 184536, Note_on_c, 0, 64, 0
1, 184536, Note_on_c, 0, 60, 0
1, 184536, Note_on_c, 1, 57, 0
1, 184560, Tempo, 468750
1, 184560, Note_on_c, 0, 65, 63
1, 184560, Note_on_c, 0, 62, 63
1, 184560, Note_on_c, 1, 56, 68
1, 184776, Note_on_c, 0, 65, 0
1, 184776, Note_on_c, 0, 62, 0
1, 184776, Note_on_c, 1, 56, 0
1, 184800, Note_on_c, 0, 64, 63
1, 184800, Note_on_c, 0, 60, 63
1, 184800, Note_on_c, 1, 57, 68
1, 185016, Note_on_c, 0, 64, 0
1, 185016, Note_on_c, 0, 60, 0
1, 185016, Note_on_c, 1, 57, 0
1, 185040, Note_on_c, 0, 62, 63
1, 185040, Note_on_c, 0, 65, 63
1, 185040, Note_on_c, 1, 56, 68
1, 185256, Note_on_c, 0, 62, 0
1, 185256, Note_on_c, 0, 65, 0
1, 185256, Note_on_c, 1, 56, 0
1, 185280, Note_on_c, 0, 64, 62
1, 185280, Note_on_c, 0, 60, 62
1, 185280, Note_on_c, 1, 57, 68
1, 185496, Note_on_c, 0, 64, 0
1, 185496, Note_on_c, 0, 60, 0
1, 185496, Note_on_c, 1, 57, 0
1, 185520, Note_on_c, 0, 65, 62
1, 185520, Note_on_c, 0, 62, 62
1, 185520, Note_on_c, 1, 56, 68
1, 185736, Note_on_c, 0, 65, 0
1, 185736, Note_on_c, 0, 62, 0
1, 185736, Note_on_c, 1, 56, 0
1, 185760, Tempo, 465116
1, 185760, Note_on_c, 0, 60, 62
1, 185760, Note_on_c, 0, 64, 62
1, 185760, Note_on_c, 1, 57, 68
1, 186192, Note_on_c, 0, 60, 0
1, 186192, Note_on_c, 0, 64, 0
1, 186192, Note_on_c, 1, 57, 0
1, 187200, Tempo, 472440
1, 187200, Note_on_c, 0, 64, 83
1, 187200, Note_on_c, 0, 58, 83
1, 187200, Note_on_c, 0, 60, 83
1, 187200, Note_on_c, 1, 55, 89
1, 187416, Note_on_c, 0, 64, 0
1, 187416, Note_on_c, 1, 55, 0
1, 187440, Tempo, 468750
1, 187440, Note_on_c, 0, 65, 83
1, 187440, Note_on_c, 1, 57, 86
1, 187656, Note_on_c, 0, 65, 0
1, 187656, Note_on_c, 1, 57, 0
1, 187680, Note_on_c, 0, 64, 83
1, 187680, Note_on_c, 1, 55, 86
1, 187896, Note_on_c, 0, 64, 0
1, 187896, Note_on_c, 1, 55, 0
1, 187920, Note_on_c, 0, 65, 83
1, 187920, Note_on_c, 1, 57, 86
1, 188136, Note_on_c, 0, 65, 0
1, 188136, Note_on_c, 1, 57, 0
1, 188160, Note_on_c, 0, 64, 83
1, 188160, Note_on_c, 1, 55, 86
1, 188376, Note_on_c, 0, 64, 0
1, 188376, Note_on_c, 1, 55, 0
1, 188400, Note_on_c, 0, 65, 83
1, 188400, Note_on_c, 1, 57, 86
1, 188496, Note_on_c, 0, 58, 0
1, 188496, Note_on_c, 0, 60, 0
1, 188616, Note_on_c, 0, 65, 0
1, 188616, Note_on_c, 1, 57, 0
1, 188640, Tempo, 465116
1, 188640, Note_on_c, 0, 58, 83
1, 188640, Note_on_c, 0, 64, 83
1, 188640, Note_on_c, 0, 60, 83
1, 188640, Note_on_c, 1, 55, 86
1, 189072, Note_on_c, 0, 58, 0
1, 189072, Note_on_c, 0, 64, 0
1, 189072, Note_on_c, 0, 60, 0
1, 189072, Note_on_c, 1, 55, 0
1, 190080, Tempo, 468750
1, 190080, Note_on_c, 0, 76, 80
1, 190080, Note_on_c, 0, 82, 80
1, 190080, Note_on_c, 1, 60, 80
1, 190080, Note_on_c, 1, 67, 80
1, 190296, Note_on_c, 0, 82, 0
1, 190296, Note_on_c, 1, 67, 0
1, 190320, Tempo, 461538
1, 190320, Note_on_c, 0, 81, 80
1, 190320, Note_on_c, 1, 66, 80
1, 190536, Note_on_c, 0, 81, 0
1, 190536, Note_on_c, 1, 66, 0
1, 190560, Note_on_c, 0, 82, 80
1, 190560, Note_on_c, 1, 67, 80
1, 190776, Note_on_c, 0, 82, 0
1, 190776, Note_on_c, 1, 67, 0
1, 190800, Note_on_c, 0, 81, 80
1, 190800, Note_on_c, 1, 66, 80
1, 191016, Note_on_c, 0, 81, 0
1, 191016, Note_on_c, 1, 66, 0
1, 191040, Note_on_c, 0, 82, 80
1, 191040, Note_on_c, 1, 67, 80
1, 191256, Note_on_c, 0, 82, 0
1, 191256, Note_on_c, 1, 67, 0
1, 191280, Note_on_c, 0, 81, 80
1, 191280, Note_on_c, 1, 66, 80
1, 191376, Note_on_c, 0, 76, 0
1, 191376, Note_on_c, 1, 60, 0
1, 191496, Note_on_c, 0, 81, 0
1, 191496, Note_on_c, 1, 66, 0
1, 191520, Note_on_c, 0, 82, 80
1, 191520, Note_on_c, 0, 76, 80
1, 191520, Note_on_c, 1, 67, 80
1, 191520, Note_on_c, 1, 60, 80
1, 191952, Note_on_c, 0, 82, 0
1, 191952, Note_on_c, 0, 76, 0
1, 191952, Note_on_c, 1, 67, 0
1, 191952, Note_on_c, 1, 60, 0
1, 192960, Note_on_c, 0, 65, 80
1, 192960, Note_on_c, 1, 53, 80
1, 193176, Note_on_c, 1, 53, 0
1, 193200, Note_on_c, 1, 57, 80
1, 193416, Note_on_c, 1, 57, 0
1, 193440, Note_on_c, 1, 60, 80
1, 193656, Note_on_c, 1, 60, 0
1, 193680, Note_on_c, 1, 57, 80
1, 193824, Note_on_c, 0, 65, 0
1, 193896, Note_on_c, 1, 57, 0
1, 193920, Note_on_c, 0, 69, 80
1, 193920, Note_on_c, 1, 60, 80
1, 194136, Note_on_c, 1, 60, 0
1, 194160, Note_on_c, 1, 57, 80
1, 194352, Note_on_c, 0, 69, 0
1, 194376, Note_on_c, 1, 57, 0
1, 194400, Note_on_c, 0, 72, 80
1, 194400, Note_on_c, 1, 53, 80
1, 194616, Note_on_c, 1, 53, 0
1, 194640, Note_on_c, 1, 60, 80
1, 194856, Note_on_c, 1, 60, 0
1, 194880, Note_on_c, 1, 63, 80
1, 195096, Note_on_c, 1, 63, 0
1, 195120, Note_on_c, 1, 60, 80
1, 195264, Note_on_c, 0, 72, 0
1, 195336, Note_on_c, 1, 60, 0
1, 195360, Note_on_c, 0, 69, 80
1, 195360, Note_on_c, 1, 63, 80
1, 195576, Note_on_c, 1, 63, 0
1, 195600, Note_on_c, 1, 60, 80
1, 195792, Note_on_c, 0, 69, 0
1, 195816, Note_on_c, 1, 60, 0
1, 195840, Note_on_c, 0, 70, 80
1, 195840, Note_on_c, 1, 53, 80
1, 196056, Note_on_c, 1, 53, 0
1, 196080, Note_on_c, 1, 58, 80
1, 196296, Note_on_c, 1, 58, 0
1, 196320, Note_on_c, 1, 62, 80
1, 196536, Note_on_c, 1, 62, 0
1, 196560, Note_on_c, 1, 58, 80
1, 196704, Note_on_c, 0, 70, 0
1, 196776, Note_on_c, 1, 58, 0
1, 196800, Note_on_c, 0, 79, 80
1, 196800, Note_on_c, 1, 62, 80
1, 197016, Note_on_c, 1, 62, 0
1, 197040, Note_on_c, 1, 58, 80
1, 197232, Note_on_c, 0, 79, 0
1, 197256, Note_on_c, 1, 58, 0
1, 197280, Note_on_c, 0, 77, 84
1, 197280, Note_on_c, 1, 53, 83
1, 197496, Note_on_c, 0, 77, 0
1, 197496, Note_on_c, 1, 53, 0
1, 197520, Note_on_c, 0, 76, 81
1, 197520, Note_on_c, 1, 55, 81
1, 197736, Note_on_c, 0, 76, 0
1, 197736, Note_on_c, 1, 55, 0
1, 197760, Note_on_c, 0, 76, 81
1, 197760, Note_on_c, 1, 58, 81
1, 197976, Note_on_c, 1, 58, 0
1, 198000, Note_on_c, 1, 55, 80
1, 198192, Note_on_c, 0, 76, 0
1, 198216, Note_on_c, 1, 55, 0
1, 198240, Note_on_c, 1, 58, 80
1, 198456, Note_on_c, 1, 58, 0
1, 198480, Note_on_c, 1, 55, 80
1, 198696, Note_on_c, 1, 55, 0
1, 198720, Tempo, 476190
1, 198720, Note_on_c, 0, 77, 82
1, 198720, Note_on_c, 1, 53, 80
1, 198720, Note_on_c, 1, 57, 80
1, 199152, Note_on_c, 0, 77, 0
1, 199152, Note_on_c, 1, 53, 0
1, 199152, Note_on_c, 1, 57, 0
1, 199200, Tempo, 461538
1, 199200, Note_on_c, 0, 69, 78
1, 199632, Note_on_c, 0, 69, 0
1, 199680, Note_on_c, 0, 74, 80
1, 200112, Note_on_c, 0, 74, 0
1, 200160, Tempo, 476190
1, 200160, Note_on_c, 0, 67, 80
1, 200592, Note_on_c, 0, 67, 0
1, 200640, Tempo, 461538
1, 200640, Note_on_c, 0, 72, 84
1, 201288, Note_on_c, 0, 72, 0
1, 201360, Note_on_c, 0, 69, 80
1, 201576, Note_on_c, 0, 69, 0
1, 201600, Note_on_c, 0, 65, 80
1, 201600, Note_on_c, 1, 53, 80
1, 202032, Note_on_c, 1, 53, 0
1, 202080, Note_on_c, 1, 45, 80
1, 202512, Note_on_c, 1, 45, 0
1, 202560, Note_on_c, 1, 50, 80
1, 202896, Note_on_c, 0, 65, 0
1, 202992, Note_on_c, 1, 50, 0
1, 203040, Note_on_c, 0, 65, 80
1, 203040, Note_on_c, 0, 67, 80
1, 203040, Note_on_c, 1, 43, 80
1, 203472, Note_on_c, 0, 65, 0
1, 203472, Note_on_c, 1, 43, 0
1, 203520, Note_on_c, 0, 64, 71
1, 203520, Note_on_c, 1, 48, 76
1, 203574, Note_on_c, 0, 64, 0
1, 203580, Note_on_c, 0, 65, 71
1, 203634, Note_on_c, 0, 65, 0
1, 203640, Note_on_c, 0, 64, 70
1, 203694, Note_on_c, 0, 64, 0
1, 203700, Note_on_c, 0, 65, 70
1, 203754, Note_on_c, 0, 65, 0
1, 203760, Note_on_c, 0, 62, 68
1, 203954, Note_on_c, 0, 62, 0
1, 204000, Note_on_c, 0, 64, 80
1, 204168, Note_on_c, 1, 48, 0
1, 204240, Note_on_c, 1, 45, 80
1, 204336, Note_on_c, 0, 67, 0
1, 204432, Note_on_c, 0, 64, 0
1, 204456, Note_on_c, 1, 45, 0
1, 204480, Tempo, 476190
1, 204480, Note_on_c, 0, 69, 80
1, 204480, Note_on_c, 0, 65, 80
1, 204480, Note_on_c, 1, 41, 80
1, 204912, Note_on_c, 0, 69, 0
1, 204912, Note_on_c, 1, 41, 0
1, 204960, Tempo, 461538
1, 204960, Note_on_c, 0, 70, 82
1, 204960, Note_on_c, 1, 50, 82
1, 205392, Note_on_c, 0, 70, 0
1, 205392, Note_on_c, 1, 50, 0
1, 205440, Note_on_c, 0, 74, 85
1, 205440, Note_on_c, 1, 46, 84
1, 205776, Note_on_c, 0, 65, 0
1, 205872, Note_on_c, 0, 74, 0
1, 205872, Note_on_c, 1, 46, 0
1, 205920, Tempo, 476190
1, 205920, Note_on_c, 0, 74, 85
1, 205920, Note_on_c, 0, 65, 85
1, 205920, Note_on_c, 1, 45, 84
1, 206136, Note_on_c, 0, 74, 0
1, 206160, Tempo, 461538
1, 206160, Note_on_c, 0, 72, 85
1, 206352, Note_on_c, 0, 65, 0
1, 206352, Note_on_c, 1, 45, 0
1, 206376, Note_on_c, 0, 72, 0
1, 206400, Note_on_c, 0, 70, 84
1, 206616, Note_on_c, 0, 70, 0
1, 206640, Note_on_c, 0, 69, 83
1, 206856, Note_on_c, 0, 69, 0
1, 206880, Note_on_c, 0, 67, 83
1, 206880, Note_on_c, 1, 50, 84
1, 207096, Note_on_c, 0, 67, 0
1, 207120, Note_on_c, 0, 65, 82
1, 207312, Note_on_c, 1, 50, 0
1, 207336, Note_on_c, 0, 65, 0
1, 207360, Tempo, 472440
1, 207360, Note_on_c, 0, 67, 86
1, 207360, Note_on_c, 1, 46, 82
1, 207792, Note_on_c, 0, 67, 0
1, 207792, Note_on_c, 1, 46, 0
1, 207840, Tempo, 468750
1, 207840, Note_on_c, 0, 70, 84
1, 208272, Note_on_c, 0, 70, 0
1, 208320, Note_on_c, 0, 58, 81
1, 208320, Note_on_c, 0, 64, 81
1, 208320, Note_on_c, 1, 48, 77
1, 208752, Note_on_c, 0, 58, 0
1, 208752, Note_on_c, 0, 64, 0
1, 208752, Note_on_c, 1, 48, 0
1, 208800, Note_on_c, 0, 57, 83
1, 208800, Note_on_c, 0, 65, 83
1, 208800, Note_on_c, 1, 41, 77
1, 209232, Note_on_c, 0, 57, 0
1, 209232, Note_on_c, 0, 65, 0
1, 209232, Note_on_c, 1, 41, 0
1, 209280, Tempo, 461538
1, 209760, Tempo, 468750
1, 209760, Note_on_c, 0, 84, 80
1, 209760, Note_on_c, 1, 72, 84
1, 209760, Note_on_c, 1, 69, 84
1, 210084, Note_on_c, 0, 84, 0
1, 210084, Note_on_c, 1, 72, 0
1, 210084, Note_on_c, 1, 69, 0
1, 210120, Note_on_c, 0, 82, 75
1, 210120, Note_on_c, 1, 70, 76
1, 210120, Note_on_c, 1, 67, 76
1, 210228, Note_on_c, 0, 82, 0
1, 210228, Note_on_c, 1, 70, 0
1, 210228, Note_on_c, 1, 67, 0
1, 210240, Tempo, 461538
1, 210240, Note_on_c, 0, 81, 69
1, 210240, Note_on_c, 1, 69, 73
1, 210240, Note_on_c, 1, 65, 73
1, 210672, Note_on_c, 0, 81, 0
1, 210672, Note_on_c, 1, 69, 0
1, 210672, Note_on_c, 1, 65, 0
1, 210720, Note_on_c, 0, 81, 69
1, 210720, Note_on_c, 1, 65, 73
1, 210720, Note_on_c, 1, 69, 73
1, 211152, Note_on_c, 0, 81, 0
1, 211152, Note_on_c, 1, 65, 0
1, 211152, Note_on_c, 1, 69, 0
1, 211200, Note_on_c, 0, 81, 78
1, 211200, Note_on_c, 1, 69, 79
1, 211200, Note_on_c, 1, 65, 79
1, 211524, Note_on_c, 0, 81, 0
1, 211524, Note_on_c, 1, 69, 0
1, 211524, Note_on_c, 1, 65, 0
1, 211560, Note_on_c, 0, 79, 74
1, 211560, Note_on_c, 1, 67, 72
1, 211560, Note_on_c, 1, 60, 72
1, 211668, Note_on_c, 0, 79, 0
1, 211668, Note_on_c, 1, 67, 0
1, 211668, Note_on_c, 1, 60, 0
1, 211680, Note_on_c, 0, 77, 64
1, 211680, Note_on_c, 1, 57, 66
1, 211680, Note_on_c, 1, 65, 66
1, 212112, Note_on_c, 0, 77, 0
1, 212112, Note_on_c, 1, 57, 0
1, 212112, Note_on_c, 1, 65, 0
1, 212160, Note_on_c, 0, 77, 64
1, 212160, Note_on_c, 1, 57, 66
1, 212160, Note_on_c, 1, 65, 66
1, 212592, Note_on_c, 0, 77, 0
1, 212592, Note_on_c, 1, 57, 0
1, 212592, Note_on_c, 1, 65, 0
1, 212640, Note_on_c, 0, 77, 64
1, 212640, Note_on_c, 1, 57, 66
1, 212640, Note_on_c, 1, 65, 66
1, 213072, Note_on_c, 0, 77, 0
1, 213072, Note_on_c, 1, 57, 0
1, 213072, Note_on_c, 1, 65, 0
1, 213120, Tempo, 476190
1, 213120, Note_on_c, 0, 76, 68
1, 213120, Note_on_c, 0, 79, 68
1, 213120, Note_on_c, 1, 60, 70
1, 213120, Note_on_c, 1, 67, 70
1, 213552, Note_on_c, 0, 76, 0
1, 213552, Note_on_c, 0, 79, 0
1, 213552, Note_on_c, 1, 60, 0
1, 213552, Note_on_c, 1, 67, 0
1, 213600, Tempo, 461538
1, 213600, Note_on_c, 0, 76, 68
1, 213600, Note_on_c, 0, 79, 68
1, 213600, Note_on_c, 1, 60, 70
1, 213600, Note_on_c, 1, 67, 70
1, 214032, Note_on_c, 0, 76, 0
1, 214032, Note_on_c, 0, 79, 0
1, 214032, Note_on_c, 1, 60, 0
1, 214032, Note_on_c, 1, 67, 0
1, 214080, Note_on_c, 0, 76, 68
1, 214080, Note_on_c, 0, 79, 68
1, 214080, Note_on_c, 1, 60, 70
1, 214080, Note_on_c, 1, 67, 70
1, 214512, Note_on_c, 0, 76, 0
1, 214512, Note_on_c, 0, 79, 0
1, 214512, Note_on_c, 1, 60, 0
1, 214512, Note_on_c, 1, 67, 0
1, 214560, Note_on_c, 0, 76, 68
1, 214560, Note_on_c, 0, 79, 68
1, 214560, Note_on_c, 1, 67, 70
1, 214560, Note_on_c, 1, 60, 70
1, 214992, Note_on_c, 0, 76, 0
1, 214992, Note_on_c, 0, 79, 0
1, 214992, Note_on_c, 1, 67, 0
1, 214992, Note_on_c, 1, 60, 0
1, 215040, Note_on_c, 0, 81, 71
1, 215040, Note_on_c, 0, 77, 71
1, 215040, Note_on_c, 1, 69, 74
1, 215040, Note_on_c, 1, 65, 74
1, 215472, Note_on_c, 0, 81, 0
1, 215472, Note_on_c, 0, 77, 0
1, 215472, Note_on_c, 1, 69, 0
1, 215472, Note_on_c, 1, 65, 0
1, 215520, Note_on_c, 0, 84, 79
1, 215520, Note_on_c, 1, 72, 82
1, 215520, Note_on_c, 1, 69, 82
1, 215628, Note_on_c, 0, 84, 0
1, 215640, Note_on_c, 0, 86, 77
1, 215748, Note_on_c, 0, 86, 0
1, 215760, Note_on_c, 0, 84, 76
1, 215844, Note_on_c, 1, 72, 0
1, 215844, Note_on_c, 1, 69, 0
1, 215868, Note_on_c, 0, 84, 0
1, 215880, Note_on_c, 0, 82, 74
1, 215880, Note_on_c, 1, 70, 76
1, 215880, Note_on_c, 1, 67, 76
1, 215988, Note_on_c, 0, 82, 0
1, 215988, Note_on_c, 1, 70, 0
1, 215988, Note_on_c, 1, 67, 0
1, 216000, Note_on_c, 0, 81, 68
1, 216000, Note_on_c, 1, 69, 70
1, 216000, Note_on_c, 1, 65, 70
1, 216432, Note_on_c, 0, 81, 0
1, 216432, Note_on_c, 1, 69, 0
1, 216432, Note_on_c, 1, 65, 0
1, 216480, Note_on_c, 0, 81, 72
1, 216480, Note_on_c, 1, 65, 72
1, 216480, Note_on_c, 1, 69, 72
1, 216912, Note_on_c, 0, 81, 0
1, 216912, Note_on_c, 1, 65, 0
1, 216912, Note_on_c, 1, 69, 0
1, 216960, Note_on_c, 0, 81, 76
1, 216960, Note_on_c, 1, 69, 76
1, 216960, Note_on_c, 1, 65, 76
1, 217068, Note_on_c, 0, 81, 0
1, 217080, Note_on_c, 0, 82, 76
1, 217188, Note_on_c, 0, 82, 0
1, 217200, Note_on_c, 0, 81, 76
1, 217284, Note_on_c, 1, 69, 0
1, 217284, Note_on_c, 1, 65, 0
1, 217308, Note_on_c, 0, 81, 0
1, 217320, Note_on_c, 0, 79, 76
1, 217320, Note_on_c, 1, 60, 76
1, 217320, Note_on_c, 1, 67, 76
1, 217428, Note_on_c, 0, 79, 0
1, 217428, Note_on_c, 1, 60, 0
1, 217428, Note_on_c, 1, 67, 0
1, 217440, Tempo, 476190
1, 217440, Note_on_c, 0, 77, 76
1, 217440, Note_on_c, 1, 57, 76
1, 217440, Note_on_c, 1, 65, 76
1, 217872, Note_on_c, 0, 77, 0
1, 217872, Note_on_c, 1, 57, 0
1, 217872, Note_on_c, 1, 65, 0
1, 217920, Tempo, 461538
1, 217920, Note_on_c, 0, 77, 76
1, 217920, Note_on_c, 1, 57, 76
1, 217920, Note_on_c, 1, 65, 76
1, 218352, Note_on_c, 0, 77, 0
1, 218352, Note_on_c, 1, 57, 0
1, 218352, Note_on_c, 1, 65, 0
1, 218400, Note_on_c, 0, 77, 76
1, 218400, Note_on_c, 1, 57, 76
1, 218400, Note_on_c, 1, 65, 76
1, 218832, Note_on_c, 0, 77, 0
1, 218832, Note_on_c, 1, 57, 0
1, 218832, Note_on_c, 1, 65, 0
1, 218880, Tempo, 476190
1, 218880, Note_on_c, 0, 79, 76
1, 218880, Note_on_c, 1, 60, 76
1, 218880, Note_on_c, 1, 67, 76
1, 219312, Note_on_c, 0, 79, 0
1, 219312, Note_on_c, 1, 60, 0
1, 219312, Note_on_c, 1, 67, 0
1, 219360, Tempo, 461538
1, 219360, Note_on_c, 0, 82, 78
1, 219792, Note_on_c, 0, 82, 0
1, 219840, Note_on_c, 0, 70, 73
1, 219840, Note_on_c, 0, 76, 73
1, 219840, Note_on_c, 1, 60, 76
1, 219840, Note_on_c, 1, 67, 76
1, 220272, Note_on_c, 0, 70, 0
1, 220272, Note_on_c, 0, 76, 0
1, 220272, Note_on_c, 1, 60, 0
1, 220272, Note_on_c, 1, 67, 0
1, 220320, Note_on_c, 0, 69, 76
1, 220320, Note_on_c, 0, 77, 76
1, 220320, Note_on_c, 1, 65, 76
1, 220752, Note_on_c, 0, 69, 0
1, 220752, Note_on_c, 0, 77, 0
1, 220752, Note_on_c, 1, 65, 0
1, 221280, Note_on_c, 0, 84, 76
1, 221280, Note_on_c, 1, 60, 77
1, 221280, Note_on_c, 1, 70, 77
1, 221280, Note_on_c, 1, 64, 77
1, 221712, Note_on_c, 0, 84, 0
1, 221712, Note_on_c, 1, 60, 0
1, 221712, Note_on_c, 1, 70, 0
1, 221712, Note_on_c, 1, 64, 0
1, 221760, Note_on_c, 0, 77, 76
1, 221760, Note_on_c, 1, 69, 76
1, 221760, Note_on_c, 1, 65, 76
1, 222192, Note_on_c, 0, 77, 0
1, 222192, Note_on_c, 1, 69, 0
1, 222192, Note_on_c, 1, 65, 0
1, 222720, Note_on_c, 0, 72, 76
1, 222720, Note_on_c, 1, 58, 76
1, 222720, Note_on_c, 1, 48, 76
1, 222720, Note_on_c, 1, 52, 76
1, 223152, Note_on_c, 0, 72, 0
1, 223152, Note_on_c, 1, 58, 0
1, 223152, Note_on_c, 1, 48, 0
1, 223152, Note_on_c, 1, 52, 0
1, 223200, Note_on_c, 0, 65, 78
1, 223200, Note_on_c, 1, 53, 76
1, 223200, Note_on_c, 1, 57, 76
1, 223632, Note_on_c, 0, 65, 0
1, 223632, Note_on_c, 1, 53, 0
1, 223632, Note_on_c, 1, 57, 0
1, 224160, Note_on_c, 0, 61, 80
1, 224160, Note_on_c, 1, 37, 80
1, 224160, Note_on_c, 1, 49, 80
1, 224592, Note_on_c, 0, 61, 0
1, 224592, Note_on_c, 1, 37, 0
1, 224592, Note_on_c, 1, 49, 0
1, 224640, Note_on_c, 0, 62, 80
1, 224640, Note_on_c, 1, 50, 80
1, 224640, Note_on_c, 1, 38, 80
1, 224856, Note_on_c, 1, 50, 0
1, 224856, Note_on_c, 1, 38, 0
1, 224880, Note_on_c, 1, 53, 80
1, 225096, Note_on_c, 1, 53, 0
1, 225120, Note_on_c, 1, 57, 80
1, 225288, Note_on_c, 0, 62, 0
1, 225336, Note_on_c, 1, 57, 0
1, 225360, Note_on_c, 0, 65, 74
1, 225360, Note_on_c, 1, 53, 74
1, 225468, Note_on_c, 0, 65, 0
1, 225480, Note_on_c, 0, 69, 76
1, 225576, Note_on_c, 1, 53, 0
1, 225588, Note_on_c, 0, 69, 0
1, 225600, Note_on_c, 0, 74, 78
1, 225600, Note_on_c, 1, 57, 75
1, 225816, Note_on_c, 0, 74, 0
1, 225816, Note_on_c, 1, 57, 0
1, 225840, Note_on_c, 0, 69, 73
1, 225840, Note_on_c, 1, 53, 76
1, 225948, Note_on_c, 0, 69, 0
1, 225960, Note_on_c, 0, 74, 76
1, 226056, Note_on_c, 1, 53, 0
1, 226068, Note_on_c, 0, 74, 0
1, 226080, Note_on_c, 0, 77, 79
1, 226080, Note_on_c, 1, 50, 77
1, 226296, Note_on_c, 0, 77, 0
1, 226296, Note_on_c, 1, 50, 0
1, 226320, Note_on_c, 0, 74, 76
1, 226320, Note_on_c, 1, 53, 79
1, 226428, Note_on_c, 0, 74, 0
1, 226440, Note_on_c, 0, 77, 79
1, 226536, Note_on_c, 1, 53, 0
1, 226548, Note_on_c, 0, 77, 0
1, 226560, Note_on_c, 0, 81, 83
1, 226560, Note_on_c, 1, 57, 80
1, 226776, Note_on_c, 0, 81, 0
1, 226776, Note_on_c, 1, 57, 0
1, 226800, Note_on_c, 0, 81, 83
1, 226800, Note_on_c, 1, 53, 81
1, 227016, Note_on_c, 0, 81, 0
1, 227016, Note_on_c, 1, 53, 0
1, 227040, Note_on_c, 0, 77, 83
1, 227040, Note_on_c, 1, 57, 79
1, 227256, Note_on_c, 0, 77, 0
1, 227256, Note_on_c, 1, 57, 0
1, 227280, Note_on_c, 0, 74, 80
1, 227280, Note_on_c, 1, 53, 77
1, 227360, Note_on_c, 0, 73, 77
1, 227396, Note_on_c, 0, 73, 0
1, 227400, Note_on_c, 0, 76, 78
1, 227436, Note_on_c, 0, 76, 0
1, 227440, Note_on_c, 0, 79, 80
1, 227476, Note_on_c, 0, 79, 0
1, 227496, Note_on_c, 0, 74, 0
1, 227496, Note_on_c, 1, 53, 0
1, 227520, Tempo, 476190
1, 227560, Note_on_c, 0, 82, 84
1, 227560, Note_on_c, 1, 40, 80
1, 227560, Note_on_c, 1, 52, 80
1, 227992, Note_on_c, 1, 40, 0
1, 227992, Note_on_c, 1, 52, 0
1, 228040, Note_on_c, 1, 58, 77
1, 228040, Note_on_c, 1, 52, 77
1, 228040, Note_on_c, 1, 61, 77
1, 228040, Note_on_c, 1, 55, 77
1, 228208, Note_on_c, 0, 82, 0
1, 228240, Tempo, 461538
1, 228240, Note_on_c, 0, 81, 85
1, 228348, Note_on_c, 0, 81, 0
1, 228360, Note_on_c, 0, 79, 84
1, 228468, Note_on_c, 0, 79, 0
1, 228472, Note_on_c, 1, 58, 0
1, 228472, Note_on_c, 1, 52, 0
1, 228472, Note_on_c, 1, 61, 0
1, 228472, Note_on_c, 1, 55, 0
1, 228480, Note_on_c, 0, 77, 83
1, 228588, Note_on_c, 0, 77, 0
1, 228600, Note_on_c, 0, 76, 82
1, 228708, Note_on_c, 0, 76, 0
1, 228720, Note_on_c, 0, 74, 81
1, 228828, Note_on_c, 0, 74, 0
1, 228840, Note_on_c, 0, 73, 79
1, 228948, Note_on_c, 0, 73, 0
1, 228960, Tempo, 476190
1, 228960, Note_on_c, 0, 82, 84
1, 228960, Note_on_c, 1, 40, 80
1, 228960, Note_on_c, 1, 52, 80
1, 229392, Note_on_c, 1, 40, 0
1, 229392, Note_on_c, 1, 52, 0
1, 229440, Note_on_c, 1, 58, 77
1, 229440, Note_on_c, 1, 52, 77
1, 229440, Note_on_c, 1, 61, 77
1, 229440, Note_on_c, 1, 55, 77
1, 229608, Note_on_c, 0, 82, 0
1, 229680, Tempo, 461538
1, 229680, Note_on_c, 0, 81, 85
1, 229788, Note_on_c, 0, 81, 0
1, 229800, Note_on_c, 0, 79, 84
1, 229872, Note_on_c, 1, 58, 0
1, 229872, Note_on_c, 1, 52, 0
1, 229872, Note_on_c, 1, 61, 0
1, 229872, Note_on_c, 1, 55, 0
1, 229908, Note_on_c, 0, 79, 0
1, 229920, Note_on_c, 0, 77, 83
1, 230028, Note_on_c, 0, 77, 0
1, 230040, Note_on_c, 0, 76, 82
1, 230148, Note_on_c, 0, 76, 0
1, 230160, Note_on_c, 0, 74, 81
1, 230268, Note_on_c, 0, 74, 0
1, 230280, Note_on_c, 0, 73, 80
1, 230388, Note_on_c, 0, 73, 0
1, 230400, Tempo, 476190
1, 230400, Note_on_c, 0, 74, 79
1, 230400, Note_on_c, 1, 53, 80
1, 230616, Note_on_c, 1, 53, 0
1, 230640, Note_on_c, 1, 57, 80
1, 230856, Note_on_c, 1, 57, 0
1, 230880, Note_on_c, 1, 62, 80
1, 231048, Note_on_c, 0, 74, 0
1, 231096, Note_on_c, 1, 62, 0
1, 231120, Tempo, 461538
1, 231120, Note_on_c, 0, 65, 74
1, 231120, Note_on_c, 1, 57, 75
1, 231228, Note_on_c, 0, 65, 0
1, 231240, Note_on_c, 0, 69, 77
1, 231336, Note_on_c, 1, 57, 0
1, 231348, Note_on_c, 0, 69, 0
1, 231360, Note_on_c, 0, 74, 81
1, 231360, Note_on_c, 1, 62, 81
1, 231576, Note_on_c, 0, 74, 0
1, 231576, Note_on_c, 1, 62, 0
1, 231600, Note_on_c, 0, 69, 77
1, 231600, Note_on_c, 1, 57, 75
1, 231708, Note_on_c, 0, 69, 0
1, 231720, Note_on_c, 0, 74, 81
1, 231816, Note_on_c, 1, 57, 0
1, 231828, Note_on_c, 0, 74, 0
1, 231840, Note_on_c, 0, 77, 86
1, 231840, Note_on_c, 1, 53, 84
1, 232056, Note_on_c, 0, 77, 0
1, 232056, Note_on_c, 1, 53, 0
1, 232080, Note_on_c, 0, 74, 78
1, 232080, Note_on_c, 1, 57, 77
1, 232188, Note_on_c, 0, 74, 0
1, 232200, Note_on_c, 0, 77, 86
1, 232296, Note_on_c, 1, 57, 0
1, 232308, Note_on_c, 0, 77, 0
1, 232320, Note_on_c, 0, 81, 94
1, 232320, Note_on_c, 1, 62, 87
1, 232536, Note_on_c, 0, 81, 0
1, 232536, Note_on_c, 1, 62, 0
1, 232560, Note_on_c, 0, 81, 91
1, 232560, Note_on_c, 1, 57, 80
1, 232776, Note_on_c, 0, 81, 0
1, 232776, Note_on_c, 1, 57, 0
1, 232800, Note_on_c, 0, 77, 80
1, 232800, Note_on_c, 1, 62, 80
1, 233016, Note_on_c, 0, 77, 0
1, 233016, Note_on_c, 1, 62, 0
1, 233040, Note_on_c, 0, 74, 80
1, 233040, Note_on_c, 1, 57, 80
1, 233256, Note_on_c, 0, 74, 0
1, 233256, Note_on_c, 1, 57, 0
1, 233280, Tempo, 476190
1, 233280, Note_on_c, 0, 77, 86
1, 233280, Note_on_c, 0, 74, 86
1, 233280, Note_on_c, 0, 80, 86
1, 233280, Note_on_c, 0, 71, 86
1, 233280, Note_on_c, 1, 50, 86
1, 233280, Note_on_c, 1, 38, 86
1, 233712, Note_on_c, 1, 50, 0
1, 233712, Note_on_c, 1, 38, 0
1, 233760, Note_on_c, 1, 56, 80
1, 233760, Note_on_c, 1, 53, 80
1, 233760, Note_on_c, 1, 59, 80
1, 233760, Note_on_c, 1, 50, 80
1, 233880, Tempo, 461538
1, 233928, Note_on_c, 0, 77, 0
1, 233928, Note_on_c, 0, 74, 0
1, 233928, Note_on_c, 0, 80, 0
1, 233928, Note_on_c, 0, 71, 0
1, 234000, Note_on_c, 0, 79, 80
1, 234108, Note_on_c, 0, 79, 0
1, 234120, Note_on_c, 0, 77, 80
1, 234192, Note_on_c, 1, 56, 0
1, 234192, Note_on_c, 1, 53, 0
1, 234192, Note_on_c, 1, 59, 0
1, 234192, Note_on_c, 1, 50, 0
1, 234228, Note_on_c, 0, 77, 0
1, 234240, Note_on_c, 0, 75, 80
1, 234348, Note_on_c, 0, 75, 0
1, 234360, Note_on_c, 0, 74, 80
1, 234468, Note_on_c, 0, 74, 0
1, 234480, Note_on_c, 0, 72, 80
1, 234588, Note_on_c, 0, 72, 0
1, 234600, Note_on_c, 0, 71, 80
1, 234708, Note_on_c, 0, 71, 0
1, 234720, Tempo, 476190
1, 234720, Note_on_c, 0, 80, 88
1, 234720, Note_on_c, 1, 50, 90
1, 234720, Note_on_c, 1, 38, 90
1, 235152, Note_on_c, 1, 50, 0
1, 235152, Note_on_c, 1, 38, 0
1, 235200, Note_on_c, 1, 56, 80
1, 235200, Note_on_c, 1, 53, 80
1, 235200, Note_on_c, 1, 59, 80
1, 235200, Note_on_c, 1, 50, 80
1, 235368, Note_on_c, 0, 80, 0
1, 235440, Tempo, 461538
1, 235440, Note_on_c, 0, 79, 80
1, 235548, Note_on_c, 0, 79, 0
1, 235560, Note_on_c, 0, 77, 80
1, 235632, Note_on_c, 1, 56, 0
1, 235632, Note_on_c, 1, 53, 0
1, 235632, Note_on_c, 1, 59, 0
1, 235632, Note_on_c, 1, 50, 0
1, 235668, Note_on_c, 0, 77, 0
1, 235680, Note_on_c, 0, 75, 74
1, 235788, Note_on_c, 0, 75, 0
1, 235800, Note_on_c, 0, 74, 74
1, 235908, Note_on_c, 0, 74, 0
1, 235920, Note_on_c, 0, 72, 74
1, 236028, Note_on_c, 0, 72, 0
1, 236040, Note_on_c, 0, 71, 74
1, 236148, Note_on_c, 0, 71, 0
1, 236160, Note_on_c, 0, 72, 76
1, 236160, Note_on_c, 1, 51, 76
1, 236268, Note_on_c, 0, 72, 0
1, 236376, Note_on_c, 1, 51, 0
1, 236400, Note_on_c, 1, 55, 76
1, 236616, Note_on_c, 1, 55, 0
1, 236640, Note_on_c, 1, 60, 80
1, 236856, Note_on_c, 1, 60, 0
1, 236880, Note_on_c, 0, 63, 72
1, 236880, Note_on_c, 1, 55, 80
1, 236988, Note_on_c, 0, 63, 0
1, 237000, Note_on_c, 0, 67, 79
1, 237096, Note_on_c, 1, 55, 0
1, 237108, Note_on_c, 0, 67, 0
1, 237120, Note_on_c, 0, 72, 85
1, 237120, Note_on_c, 1, 60, 80
1, 237336, Note_on_c, 0, 72, 0
1, 237336, Note_on_c, 1, 60, 0
1, 237360, Note_on_c, 0, 67, 72
1, 237360, Note_on_c, 1, 55, 80
1, 237468, Note_on_c, 0, 67, 0
1, 237480, Note_on_c, 0, 72, 79
1, 237576, Note_on_c, 1, 55, 0
1, 237588, Note_on_c, 0, 72, 0
1, 237600, Note_on_c, 0, 75, 86
1, 237600, Note_on_c, 1, 51, 80
1, 237816, Note_on_c, 0, 75, 0
1, 237816, Note_on_c, 1, 51, 0
1, 237840, Note_on_c, 0, 72, 82
1, 237840, Note_on_c, 1, 55, 80
1, 237948, Note_on_c, 0, 72, 0
1, 237960, Note_on_c, 0, 75, 89
1, 238056, Note_on_c, 1, 55, 0
1, 238068, Note_on_c, 0, 75, 0
1, 238080, Note_on_c, 0, 79, 97
1, 238080, Note_on_c, 1, 60, 80
1, 238296, Note_on_c, 0, 79, 0
1, 238296, Note_on_c, 1, 60, 0
1, 238320, Note_on_c, 0, 79, 80
1, 238320, Note_on_c, 1, 55, 80
1, 238536, Note_on_c, 0, 79, 0
1, 238536, Note_on_c, 1, 55, 0
1, 238560, Note_on_c, 0, 75, 80
1, 238560, Note_on_c, 1, 60, 80
1, 238776, Note_on_c, 0, 75, 0
1, 238776, Note_on_c, 1, 60, 0
1, 238800, Note_on_c, 0, 72, 80
1, 238800, Note_on_c, 1, 55, 80
1, 239016, Note_on_c, 0, 72, 0
1, 239016, Note_on_c, 1, 55, 0
1, 239040, Tempo, 476190
1, 239040, Note_on_c, 0, 72, 87
1, 239040, Note_on_c, 0, 75, 87
1, 239040, Note_on_c, 0, 69, 87
1, 239040, Note_on_c, 0, 78, 87
1, 239040, Note_on_c, 1, 39, 85
1, 239472, Note_on_c, 1, 39, 0
1, 239520, Note_on_c, 1, 57, 80
1, 239520, Note_on_c, 1, 54, 80
1, 239520, Note_on_c, 1, 60, 80
1, 239520, Note_on_c, 1, 51, 80
1, 239688, Note_on_c, 0, 72, 0
1, 239688, Note_on_c, 0, 75, 0
1, 239688, Note_on_c, 0, 69, 0
1, 239688, Note_on_c, 0, 78, 0
1, 239760, Tempo, 461538
1, 239760, Note_on_c, 0, 77, 80
1, 239868, Note_on_c, 0, 77, 0
1, 239880, Note_on_c, 0, 75, 80
1, 239952, Note_on_c, 1, 57, 0
1, 239952, Note_on_c, 1, 54, 0
1, 239952, Note_on_c, 1, 60, 0
1, 239952, Note_on_c, 1, 51, 0
1, 239988, Note_on_c, 0, 75, 0
1, 240000, Note_on_c, 0, 73, 78
1, 240108, Note_on_c, 0, 73, 0
1, 240120, Note_on_c, 0, 72, 76
1, 240228, Note_on_c, 0, 72, 0
1, 240240, Note_on_c, 0, 70, 74
1, 240348, Note_on_c, 0, 70, 0
1, 240360, Note_on_c, 0, 69, 72
1, 240468, Note_on_c, 0, 69, 0
1, 240480, Tempo, 476190
1, 240480, Note_on_c, 0, 78, 84
1, 240480, Note_on_c, 1, 39, 85
1, 240912, Note_on_c, 1, 39, 0
1, 240960, Note_on_c, 1, 57, 80
1, 240960, Note_on_c, 1, 54, 80
1, 240960, Note_on_c, 1, 60, 80
1, 240960, Note_on_c, 1, 51, 80
1, 241128, Note_on_c, 0, 78, 0
1, 241200, Tempo, 461538
1, 241200, Note_on_c, 0, 77, 80
1, 241308, Note_on_c, 0, 77, 0
1, 241320, Note_on_c, 0, 75, 80
1, 241392, Note_on_c, 1, 57, 0
1, 241392, Note_on_c, 1, 54, 0
1, 241392, Note_on_c, 1, 60, 0
1, 241392, Note_on_c, 1, 51, 0
1, 241428, Note_on_c, 0, 75, 0
1, 241440, Note_on_c, 0, 73, 79
1, 241548, Note_on_c, 0, 73, 0
1, 241560, Note_on_c, 0, 72, 78
1, 241668, Note_on_c, 0, 72, 0
1, 241680, Note_on_c, 0, 70, 76
1, 241788, Note_on_c, 0, 70, 0
1, 241800, Note_on_c, 0, 69, 74
1, 241908, Note_on_c, 0, 69, 0
1, 241920, Tempo, 476190
1, 241920, Note_on_c, 0, 70, 80
1, 241920, Note_on_c, 1, 49, 80
1, 242136, Note_on_c, 1, 49, 0
1, 242160, Note_on_c, 1, 53, 80
1, 242376, Note_on_c, 1, 53, 0
1, 242400, Note_on_c, 1, 58, 74
1, 242508, Note_on_c, 0, 70, 0
1, 242520, Tempo, 461538
1, 242520, Note_on_c, 0, 65, 82
1, 242616, Note_on_c, 1, 58, 0
1, 242628, Note_on_c, 0, 65, 0
1, 242640, Note_on_c, 0, 70, 76
1, 242640, Note_on_c, 1, 53, 80
1, 242748, Note_on_c, 0, 70, 0
1, 242760, Note_on_c, 0, 65, 78
1, 242856, Note_on_c, 1, 53, 0
1, 242868, Note_on_c, 0, 65, 0
1, 242880, Note_on_c, 0, 73, 72
1, 242880, Note_on_c, 1, 58, 73
1, 242988, Note_on_c, 0, 73, 0
1, 243000, Note_on_c, 0, 70, 75
1, 243096, Note_on_c, 1, 58, 0
1, 243108, Note_on_c, 0, 70, 0
1, 243120, Note_on_c, 0, 73, 78
1, 243120, Note_on_c, 1, 53, 82
1, 243228, Note_on_c, 0, 73, 0
1, 243240, Note_on_c, 0, 70, 80
1, 243336, Note_on_c, 1, 53, 0
1, 243348, Note_on_c, 0, 70, 0
1, 243360, Note_on_c, 0, 77, 77
1, 243360, Note_on_c, 1, 49, 76
1, 243468, Note_on_c, 0, 77, 0
1, 243480, Note_on_c, 0, 73, 81
1, 243576, Note_on_c, 1, 49, 0
1, 243588, Note_on_c, 0, 73, 0
1, 243600, Note_on_c, 0, 77, 84
1, 243600, Note_on_c, 1, 53, 83
1, 243708, Note_on_c, 0, 77, 0
1, 243720, Note_on_c, 0, 73, 88
1, 243816, Note_on_c, 1, 53, 0
1, 243828, Note_on_c, 0, 73, 0
1, 243840, Note_on_c, 0, 82, 86
1, 243840, Note_on_c, 1, 58, 82
1, 244056, Note_on_c, 1, 58, 0
1, 244080, Note_on_c, 1, 53, 80
1, 244272, Note_on_c, 0, 82, 0
1, 244296, Note_on_c, 1, 53, 0
1, 244320, Note_on_c, 1, 58, 80
1, 244536, Note_on_c, 1, 58, 0
1, 244560, Note_on_c, 1, 53, 80
1, 244776, Note_on_c, 1, 53, 0
1, 244800, Note_on_c, 0, 69, 80
1, 244800, Note_on_c, 1, 48, 80
1, 245016, Note_on_c, 1, 48, 0
1, 245040, Note_on_c, 1, 53, 80
1, 245232, Note_on_c, 0, 69, 0
1, 245256, Note_on_c, 1, 53, 0
1, 245280, Note_on_c, 0, 69, 83
1, 245280, Note_on_c, 1, 57, 76
1, 245388, Note_on_c, 0, 69, 0
1, 245400, Note_on_c, 0, 65, 83
1, 245496, Note_on_c, 1, 57, 0
1, 245508, Note_on_c, 0, 65, 0
1, 245520, Note_on_c, 0, 69, 82
1, 245520, Note_on_c, 1, 53, 83
1, 245628, Note_on_c, 0, 69, 0
1, 245640, Note_on_c, 0, 65, 82
1, 245736, Note_on_c, 1, 53, 0
1, 245748, Note_on_c, 0, 65, 0
1, 245760, Note_on_c, 0, 72, 87
1, 245760, Note_on_c, 1, 57, 81
1, 245868, Note_on_c, 0, 72, 0
1, 245880, Note_on_c, 0, 69, 86
1, 245976, Note_on_c, 1, 57, 0
1, 245988, Note_on_c, 0, 69, 0
1, 246000, Note_on_c, 0, 72, 85
1, 246000, Note_on_c, 1, 53, 86
1, 246108, Note_on_c, 0, 72, 0
1, 246120, Note_on_c, 0, 69, 84
1, 246216, Note_on_c, 1, 53, 0
1, 246228, Note_on_c, 0, 69, 0
1, 246240, Note_on_c, 0, 77, 92
1, 246240, Note_on_c, 1, 48, 82
1, 246348, Note_on_c, 0, 77, 0
1, 246360, Note_on_c, 0, 72, 91
1, 246456, Note_on_c, 1, 48, 0
1, 246468, Note_on_c, 0, 72, 0
1, 246480, Note_on_c, 0, 77, 90
1, 246480, Note_on_c, 1, 53, 87
1, 246588, Note_on_c, 0, 77, 0
1, 246600, Note_on_c, 0, 72, 89
1, 246696, Note_on_c, 1, 53, 0
1, 246708, Note_on_c, 0, 72, 0
1, 246720, Note_on_c, 0, 81, 90
1, 246720, Note_on_c, 1, 57, 85
1, 246936, Note_on_c, 1, 57, 0
1, 246960, Note_on_c, 1, 53, 84
1, 247152, Note_on_c, 0, 81, 0
1, 247176, Note_on_c, 1, 53, 0
1, 247200, Note_on_c, 1, 57, 84
1, 247416, Note_on_c, 1, 57, 0
1, 247440, Note_on_c, 1, 53, 84
1, 247656, Note_on_c, 1, 53, 0
1, 247680, Note_on_c, 0, 68, 86
1, 247680, Note_on_c, 1, 47, 84
1, 247896, Note_on_c, 1, 47, 0
1, 247920, Note_on_c, 1, 53, 84
1, 248112, Note_on_c, 0, 68, 0
1, 248136, Note_on_c, 1, 53, 0
1, 248160, Note_on_c, 0, 68, 84
1, 248160, Note_on_c, 1, 56, 80
1, 248268, Note_on_c, 0, 68, 0
1, 248280, Note_on_c, 0, 65, 84
1, 248376, Note_on_c, 1, 56, 0
1, 248388, Note_on_c, 0, 65, 0
1, 248400, Note_on_c, 0, 68, 84
1, 248400, Note_on_c, 1, 53, 86
1, 248508, Note_on_c, 0, 68, 0
1, 248520, Note_on_c, 0, 65, 84
1, 248616, Note_on_c, 1, 53, 0
1, 248628, Note_on_c, 0, 65, 0
1, 248640, Note_on_c, 0, 74, 89
1, 248640, Note_on_c, 1, 56, 85
1, 248748, Note_on_c, 0, 74, 0
1, 248760, Note_on_c, 0, 68, 88
1, 248856, Note_on_c, 1, 56, 0
1, 248868, Note_on_c, 0, 68, 0
1, 248880, Note_on_c, 0, 74, 87
1, 248880, Note_on_c, 1, 53, 90
1, 248988, Note_on_c, 0, 74, 0
1, 249000, Note_on_c, 0, 68, 86
1, 249096, Note_on_c, 1, 53, 0
1, 249108, Note_on_c, 0, 68, 0
1, 249120, Note_on_c, 0, 77, 92
1, 249120, Note_on_c, 1, 47, 86
1, 249228, Note_on_c, 0, 77, 0
1, 249240, Note_on_c, 0, 74, 91
1, 249336, Note_on_c, 1, 47, 0
1, 249348, Note_on_c, 0, 74, 0
1, 249360, Note_on_c, 0, 77, 89
1, 249360, Note_on_c, 1, 53, 88
1, 249468, Note_on_c, 0, 77, 0
1, 249480, Note_on_c, 0, 74, 88
1, 249576, Note_on_c, 1, 53, 0
1, 249588, Note_on_c, 0, 74, 0
1, 249600, Note_on_c, 0, 80, 87
1, 249600, Note_on_c, 1, 56, 83
1, 249816, Note_on_c, 1, 56, 0
1, 249840, Note_on_c, 1, 53, 80
1, 250032, Note_on_c, 0, 80, 0
1, 250056, Note_on_c, 1, 53, 0
1, 250080, Note_on_c, 0, 77, 80
1, 250080, Note_on_c, 1, 56, 80
1, 250296, Note_on_c, 1, 56, 0
1, 250320, Note_on_c, 1, 53, 80
1, 250400, Note_on_c, 0, 72, 80
1, 250436, Note_on_c, 0, 72, 0
1, 250440, Note_on_c, 0, 76, 80
1, 250476, Note_on_c, 0, 76, 0
1, 250480, Note_on_c, 0, 79, 80
1, 250512, Note_on_c, 0, 77, 0
1, 250516, Note_on_c, 0, 79, 0
1, 250536, Note_on_c, 1, 53, 0
1, 250560, Tempo, 476190
1, 250560, Note_on_c, 0, 84, 80
1, 250560, Note_on_c, 1, 48, 76
1, 250776, Note_on_c, 1, 48, 0
1, 250800, Note_on_c, 1, 52, 76
1, 251016, Note_on_c, 1, 52, 0
1, 251040, Note_on_c, 1, 55, 76
1, 251256, Note_on_c, 1, 55, 0
1, 251280, Note_on_c, 1, 60, 80
1, 251424, Note_on_c, 0, 84, 0
1, 251496, Note_on_c, 1, 60, 0
1, 251520, Tempo, 461538
1, 251520, Note_on_c, 0, 82, 76
1, 251520, Note_on_c, 1, 53, 76
1, 251628, Note_on_c, 0, 82, 0
1, 251640, Note_on_c, 0, 80, 76
1, 251736, Note_on_c, 1, 53, 0
1, 251748, Note_on_c, 0, 80, 0
1, 251760, Note_on_c, 0, 79, 76
1, 251760, Note_on_c, 1, 56, 76
1, 251868, Note_on_c, 0, 79, 0
1, 251880, Note_on_c, 0, 77, 76
1, 251976, Note_on_c, 1, 56, 0
1, 251988, Note_on_c, 0, 77, 0
1, 252000, Tempo, 476190
1, 252000, Note_on_c, 0, 84, 80
1, 252000, Note_on_c, 1, 48, 80
1, 252216, Note_on_c, 1, 48, 0
1, 252240, Note_on_c, 1, 52, 80
1, 252456, Note_on_c, 1, 52, 0
1, 252480, Note_on_c, 1, 55, 80
1, 252696, Note_on_c, 1, 55, 0
1, 252720, Note_on_c, 1, 60, 80
1, 252864, Note_on_c, 0, 84, 0
1, 252936, Note_on_c, 1, 60, 0
1, 252960, Tempo, 461538
1, 252960, Note_on_c, 0, 82, 80
1, 252960, Note_on_c, 1, 53, 80
1, 253068, Note_on_c, 0, 82, 0
1, 253080, Note_on_c, 0, 80, 80
1, 253176, Note_on_c, 1, 53, 0
1, 253188, Note_on_c, 0, 80, 0
1, 253200, Note_on_c, 0, 79, 80
1, 253200, Note_on_c, 1, 56, 80
1, 253308, Note_on_c, 0, 79, 0
1, 253320, Note_on_c, 0, 77, 80
1, 253416, Note_on_c, 1, 56, 0
1, 253428, Note_on_c, 0, 77, 0
1, 253440, Tempo, 476190
1, 253440, Note_on_c, 0, 72, 80
1, 253440, Note_on_c, 1, 60, 80
1, 254088, Note_on_c, 0, 72, 0
1, 254088, Note_on_c, 1, 60, 0
1, 254160, Tempo, 461538
1, 254160, Note_on_c, 0, 73, 84
1, 254160, Note_on_c, 1, 61, 84
1, 254268, Note_on_c, 0, 73, 0
1, 254268, Note_on_c, 1, 61, 0
1, 254280, Note_on_c, 0, 72, 84
1, 254280, Note_on_c, 1, 60, 84
1, 254388, Note_on_c, 0, 72, 0
1, 254388, Note_on_c, 1, 60, 0
1, 254400, Note_on_c, 0, 70, 84
1, 254400, Note_on_c, 1, 58, 84
1, 254508, Note_on_c, 0, 70, 0
1, 254508, Note_on_c, 1, 58, 0
1, 254520, Note_on_c, 0, 68, 84
1, 254520, Note_on_c, 1, 56, 84
1, 254628, Note_on_c, 0, 68, 0
1, 254628, Note_on_c, 1, 56, 0
1, 254640, Note_on_c, 0, 67, 79
1, 254640, Note_on_c, 1, 55, 84
1, 254748, Note_on_c, 0, 67, 0
1, 254748, Note_on_c, 1, 55, 0
1, 254760, Note_on_c, 0, 65, 79
1, 254760, Note_on_c, 1, 53, 84
1, 254868, Note_on_c, 0, 65, 0
1, 254868, Note_on_c, 1, 53, 0
1, 254880, Tempo, 476190
1, 254880, Note_on_c, 0, 72, 93
1, 254880, Note_on_c, 1, 60, 93
1, 255312, Note_on_c, 0, 72, 0
1, 255312, Note_on_c, 1, 60, 0
1, 255360, Tempo, 461538
1, 255360, Note_on_c, 0, 60, 88
1, 255360, Note_on_c, 1, 36, 88
1, 255360, Note_on_c, 1, 48, 88
1, 255792, Note_on_c, 0, 60, 0
1, 255792, Note_on_c, 1, 36, 0
1, 255792, Note_on_c, 1, 48, 0
1, 256200, Note_on_c, 1, 41, 80
1, 256254, Note_on_c, 1, 41, 0
1, 256260, Note_on_c, 0, 60, 80
1, 256260, Note_on_c, 1, 48, 80
1, 256314, Note_on_c, 0, 60, 0
1, 256314, Note_on_c, 1, 48, 0
1, 256320, Note_on_c, 0, 69, 80
1, 256320, Note_on_c, 1, 53, 80
1, 256536, Note_on_c, 0, 69, 0
1, 256752, Note_on_c, 1, 53, 0
1, 256800, Note_on_c, 0, 69, 80
1, 257016, Note_on_c, 0, 69, 0
1, 257280, Note_on_c, 0, 69, 80
1, 257496, Note_on_c, 0, 69, 0
1, 257640, Note_on_c, 1, 48, 80
1, 257694, Note_on_c, 1, 48, 0
1, 257700, Note_on_c, 0, 60, 80
1, 257700, Note_on_c, 1, 55, 80
1, 257754, Note_on_c, 0, 60, 0
1, 257754, Note_on_c, 1, 55, 0
1, 257760, Note_on_c, 0, 72, 80
1, 257760, Note_on_c, 1, 58, 80
1, 258192, Note_on_c, 1, 58, 0
1, 258408, Note_on_c, 0, 72, 0
1, 258480, Note_on_c, 0, 70, 80
1, 258696, Note_on_c, 0, 70, 0
1, 258720, Note_on_c, 0, 67, 80
1, 259152, Note_on_c, 0, 67, 0
1, 259200, Note_on_c, 0, 67, 80
1, 259200, Note_on_c, 0, 57, 80
1, 259200, Note_on_c, 1, 41, 80
1, 259416, Note_on_c, 0, 67, 0
1, 259440, Note_on_c, 0, 65, 80
1, 259632, Note_on_c, 0, 57, 0
1, 259632, Note_on_c, 1, 41, 0
1, 259656, Note_on_c, 0, 65, 0
1, 259680, Note_on_c, 0, 65, 80
1, 259680, Note_on_c, 0, 60, 80
1, 259680, Note_on_c, 1, 45, 80
1, 260112, Note_on_c, 1, 45, 0
1, 260160, Note_on_c, 1, 48, 80
1, 260328, Note_on_c, 0, 65, 0
1, 260328, Note_on_c, 0, 60, 0
1, 260400, Note_on_c, 0, 67, 80
1, 260400, Note_on_c, 0, 64, 80
1, 260592, Note_on_c, 1, 48, 0
1, 260616, Note_on_c, 0, 67, 0
1, 260616, Note_on_c, 0, 64, 0
1, 260640, Note_on_c, 0, 67, 80
1, 260640, Note_on_c, 0, 64, 80
1, 260640, Note_on_c, 1, 53, 80
1, 261072, Note_on_c, 1, 53, 0
1, 261120, Note_on_c, 1, 41, 80
1, 261504, Note_on_c, 0, 67, 0
1, 261504, Note_on_c, 0, 64, 0
1, 261552, Note_on_c, 1, 41, 0
1, 261600, Note_on_c, 0, 69, 80
1, 261600, Note_on_c, 0, 65, 80
1, 262032, Note_on_c, 0, 69, 0
1, 262032, Note_on_c, 0, 65, 0
1, 262080, Note_on_c, 0, 70, 80
1, 262080, Note_on_c, 1, 50, 80
1, 262560, Note_on_c, 1, 58, 80
1, 262560, Note_on_c, 1, 53, 80
1, 262620, Note_on_c, 0, 72, 80
1, 262674, Note_on_c, 0, 72, 0
1, 262680, Note_on_c, 0, 70, 0
1, 262680, Note_on_c, 0, 70, 76
1, 262734, Note_on_c, 0, 70, 0
1, 262740, Note_on_c, 0, 69, 76
1, 262794, Note_on_c, 0, 69, 0
1, 262800, Note_on_c, 0, 70, 80
1, 262944, Note_on_c, 1, 50, 0
1, 262992, Note_on_c, 1, 58, 0
1, 262992, Note_on_c, 1, 53, 0
1, 263016, Note_on_c, 0, 70, 0
1, 263040, Note_on_c, 0, 72, 80
1, 263256, Note_on_c, 0, 72, 0
1, 263280, Note_on_c, 0, 74, 80
1, 263496, Note_on_c, 0, 74, 0
1, 263520, Note_on_c, 0, 74, 80
1, 263520, Note_on_c, 1, 52, 80
1, 263736, Note_on_c, 0, 74, 0
1, 263760, Note_on_c, 0, 72, 80
1, 263976, Note_on_c, 0, 72, 0
1, 264000, Note_on_c, 0, 71, 80
1, 264000, Note_on_c, 1, 60, 80
1, 264000, Note_on_c, 1, 55, 80
1, 264216, Note_on_c, 0, 71, 0
1, 264240, Note_on_c, 0, 72, 80
1, 264384, Note_on_c, 1, 52, 0
1, 264432, Note_on_c, 1, 60, 0
1, 264432, Note_on_c, 1, 55, 0
1, 264456, Note_on_c, 0, 72, 0
1, 264480, Note_on_c, 0, 70, 80
1, 264696, Note_on_c, 0, 70, 0
1, 264720, Note_on_c, 0, 67, 80
1, 264936, Note_on_c, 0, 67, 0
1, 264960, Note_on_c, 0, 68, 80
1, 264960, Note_on_c, 1, 53, 80
1, 265176, Note_on_c, 0, 68, 0
1, 265200, Note_on_c, 0, 69, 80
1, 265392, Note_on_c, 1, 53, 0
1, 265416, Note_on_c, 0, 69, 0
1, 265440, Note_on_c, 0, 70, 80
1, 265440, Note_on_c, 1, 50, 80
1, 265440, Note_on_c, 1, 53, 80
1, 265656, Note_on_c, 0, 70, 0
1, 265680, Note_on_c, 0, 69, 80
1, 265872, Note_on_c, 1, 50, 0
1, 265872, Note_on_c, 1, 53, 0
1, 265896, Note_on_c, 0, 69, 0
1, 265920, Note_on_c, 0, 72, 80
1, 265920, Note_on_c, 1, 55, 80
1, 265920, Note_on_c, 1, 46, 80
1, 266136, Note_on_c, 0, 72, 0
1, 266160, Note_on_c, 0, 70, 80
1, 266352, Note_on_c, 1, 55, 0
1, 266352, Note_on_c, 1, 46, 0
1, 266376, Note_on_c, 0, 70, 0
1, 266400, Note_on_c, 0, 69, 80
1, 266400, Note_on_c, 1, 52, 80
1, 266400, Note_on_c, 1, 48, 80
1, 266616, Note_on_c, 0, 69, 0
1, 266640, Note_on_c, 0, 67, 80
1, 266832, Note_on_c, 1, 52, 0
1, 266832, Note_on_c, 1, 48, 0
1, 266856, Note_on_c, 0, 67, 0
1, 266880, Note_on_c, 0, 65, 80
1, 267096, Note_on_c, 0, 65, 0
1, 267120, Note_on_c, 0, 64, 80
1, 267336, Note_on_c, 0, 64, 0
1, 267360, Note_on_c, 0, 62, 80
1, 267576, Note_on_c, 0, 62, 0
1, 267600, Note_on_c, 0, 60, 80
1, 267816, Note_on_c, 0, 60, 0
1, 267840, Note_on_c, 0, 80, 79
1, 267840, Note_on_c, 0, 68, 79
1, 267840, Note_on_c, 1, 53, 78
1, 267984, Note_on_c, 1, 53, 0
1, 268000, Note_on_c, 1, 57, 78
1, 268056, Note_on_c, 0, 80, 0
1, 268056, Note_on_c, 0, 68, 0
1, 268080, Note_on_c, 0, 69, 80
1, 268080, Note_on_c, 0, 81, 80
1, 268144, Note_on_c, 1, 57, 0
1, 268160, Note_on_c, 1, 60, 80
1, 268296, Note_on_c, 0, 69, 0
1, 268296, Note_on_c, 0, 81, 0
1, 268304, Note_on_c, 1, 60, 0
1, 268320, Note_on_c, 0, 68, 81
1, 268320, Note_on_c, 0, 80, 81
1, 268320, Note_on_c, 1, 53, 80
1, 268464, Note_on_c, 1, 53, 0
1, 268480, Note_on_c, 1, 57, 81
1, 268536, Note_on_c, 0, 68, 0
1, 268536, Note_on_c, 0, 80, 0
1, 268560, Note_on_c, 0, 69, 83
1, 268560, Note_on_c, 0, 81, 83
1, 268624, Note_on_c, 1, 57, 0
1, 268640, Note_on_c, 1, 60, 83
1, 268776, Note_on_c, 0, 69, 0
1, 268776, Note_on_c, 0, 81, 0
1, 268784, Note_on_c, 1, 60, 0
1, 268800, Note_on_c, 0, 68, 84
1, 268800, Note_on_c, 0, 80, 84
1, 268800, Note_on_c, 1, 53, 83
1, 268944, Note_on_c, 1, 53, 0
1, 268960, Note_on_c, 1, 57, 84
1, 269016, Note_on_c, 0, 68, 0
1, 269016, Note_on_c, 0, 80, 0
1, 269040, Note_on_c, 0, 69, 85
1, 269040, Note_on_c, 0, 81, 85
1, 269104, Note_on_c, 1, 57, 0
1, 269120, Note_on_c, 1, 60, 86
1, 269256, Note_on_c, 0, 69, 0
1, 269256, Note_on_c, 0, 81, 0
1, 269264, Note_on_c, 1, 60, 0
1, 269280, Note_on_c, 0, 71, 86
1, 269280, Note_on_c, 0, 83, 86
1, 269280, Note_on_c, 1, 52, 86
1, 269424, Note_on_c, 1, 52, 0
1, 269440, Note_on_c, 1, 55, 86
1, 269496, Note_on_c, 0, 71, 0
1, 269496, Note_on_c, 0, 83, 0
1, 269520, Note_on_c, 0, 72, 85
1, 269520, Note_on_c, 0, 84, 85
1, 269584, Note_on_c, 1, 55, 0
1, 269600, Note_on_c, 1, 60, 85
1, 269736, Note_on_c, 0, 72, 0
1, 269736, Note_on_c, 0, 84, 0
1, 269744, Note_on_c, 1, 60, 0
1, 269760, Note_on_c, 0, 71, 84
1, 269760, Note_on_c, 0, 83, 84
1, 269760, Note_on_c, 1, 52, 84
1, 269904, Note_on_c, 1, 52, 0
1, 269920, Note_on_c, 1, 55, 84
1, 269976, Note_on_c, 0, 71, 0
1, 269976, Note_on_c, 0, 83, 0
1, 270000, Note_on_c, 0, 72, 83
1, 270000, Note_on_c, 0, 84, 83
1, 270064, Note_on_c, 1, 55, 0
1, 270080, Note_on_c, 1, 60, 83
1, 270216, Note_on_c, 0, 72, 0
1, 270216, Note_on_c, 0, 84, 0
1, 270224, Note_on_c, 1, 60, 0
1, 270240, Note_on_c, 0, 82, 82
1, 270240, Note_on_c, 1, 52, 82
1, 270384, Note_on_c, 1, 52, 0
1, 270400, Note_on_c, 1, 55, 82
1, 270456, Note_on_c, 0, 82, 0
1, 270480, Note_on_c, 0, 79, 81
1, 270544, Note_on_c, 1, 55, 0
1, 270560, Note_on_c, 1, 60, 81
1, 270696, Note_on_c, 0, 79, 0
1, 270704, Note_on_c, 1, 60, 0
1, 270720, Note_on_c, 0, 79, 80
1, 270720, Note_on_c, 1, 53, 80
1, 270720, Note_on_c, 1, 57, 80
1, 270936, Note_on_c, 0, 79, 0
1, 270960, Note_on_c, 0, 77, 80
1, 271152, Note_on_c, 1, 53, 0
1, 271152, Note_on_c, 1, 57, 0
1, 271176, Note_on_c, 0, 77, 0
1, 271200, Note_on_c, 0, 72, 80
1, 271200, Note_on_c, 0, 79, 80
1, 271200, Note_on_c, 1, 57, 80
1, 271416, Note_on_c, 0, 79, 0
1, 271440, Note_on_c, 0, 77, 80
1, 271632, Note_on_c, 0, 72, 0
1, 271632, Note_on_c, 1, 57, 0
1, 271656, Note_on_c, 0, 77, 0
1, 271680, Note_on_c, 0, 76, 80
1, 271680, Note_on_c, 0, 81, 80
1, 271680, Note_on_c, 1, 60, 80
1, 271896, Note_on_c, 0, 81, 0
1, 271920, Note_on_c, 0, 79, 80
1, 272112, Note_on_c, 0, 76, 0
1, 272112, Note_on_c, 1, 60, 0
1, 272136, Note_on_c, 0, 79, 0
1, 272160, Note_on_c, 0, 79, 80
1, 272160, Note_on_c, 0, 76, 80
1, 272160, Note_on_c, 1, 65, 80
1, 272592, Note_on_c, 1, 65, 0
1, 272640, Note_on_c, 1, 60, 80
1, 272808, Note_on_c, 0, 79, 0
1, 272880, Note_on_c, 0, 80, 80
1, 273024, Note_on_c, 0, 76, 0
1, 273072, Note_on_c, 1, 60, 0
1, 273096, Note_on_c, 0, 80, 0
1, 273120, Note_on_c, 0, 81, 80
1, 273120, Note_on_c, 0, 77, 80
1, 273120, Note_on_c, 1, 53, 80
1, 273552, Note_on_c, 0, 81, 0
1, 273552, Note_on_c, 0, 77, 0
1, 273552, Note_on_c, 1, 53, 0
1, 273600, Note_on_c, 0, 82, 80
1, 273600, Note_on_c, 1, 62, 79
1, 273816, Note_on_c, 1, 62, 0
1, 273840, Note_on_c, 1, 65, 80
1, 274056, Note_on_c, 1, 65, 0
1, 274080, Note_on_c, 1, 70, 81
1, 274140, Note_on_c, 0, 84, 76
1, 274194, Note_on_c, 0, 84, 0
1, 274200, Note_on_c, 0, 82, 0
1, 274200, Note_on_c, 0, 82, 71
1, 274254, Note_on_c, 0, 82, 0
1, 274260, Note_on_c, 0, 81, 71
1, 274296, Note_on_c, 1, 70, 0
1, 274314, Note_on_c, 0, 81, 0
1, 274320, Note_on_c, 0, 82, 82
1, 274320, Note_on_c, 1, 65, 83
1, 274536, Note_on_c, 0, 82, 0
1, 274536, Note_on_c, 1, 65, 0
1, 274560, Note_on_c, 0, 84, 83
1, 274560, Note_on_c, 1, 62, 84
1, 274776, Note_on_c, 0, 84, 0
1, 274776, Note_on_c, 1, 62, 0
1, 274800, Note_on_c, 0, 86, 84
1, 274800, Note_on_c, 1, 65, 85
1, 275016, Note_on_c, 0, 86, 0
1, 275016, Note_on_c, 1, 65, 0
1, 275040, Note_on_c, 0, 86, 88
1, 275040, Note_on_c, 1, 64, 91
1, 275256, Note_on_c, 0, 86, 0
1, 275256, Note_on_c, 1, 64, 0
1, 275280, Note_on_c, 0, 84, 87
1, 275280, Note_on_c, 1, 67, 89
1, 275496, Note_on_c, 0, 84, 0
1, 275496, Note_on_c, 1, 67, 0
1, 275520, Note_on_c, 0, 83, 86
1, 275520, Note_on_c, 1, 72, 88
1, 275736, Note_on_c, 0, 83, 0
1, 275736, Note_on_c, 1, 72, 0
1, 275760, Note_on_c, 0, 84, 84
1, 275760, Note_on_c, 1, 67, 86
1, 275976, Note_on_c, 0, 84, 0
1, 275976, Note_on_c, 1, 67, 0
1, 276000, Note_on_c, 0, 82, 83
1, 276000, Note_on_c, 1, 64, 85
1, 276216, Note_on_c, 0, 82, 0
1, 276216, Note_on_c, 1, 64, 0
1, 276240, Note_on_c, 0, 79, 81
1, 276240, Note_on_c, 1, 67, 83
1, 276456, Note_on_c, 0, 79, 0
1, 276456, Note_on_c, 1, 67, 0
1, 276480, Note_on_c, 0, 80, 85
1, 276480, Note_on_c, 1, 65, 84
1, 276696, Note_on_c, 0, 80, 0
1, 276720, Note_on_c, 0, 81, 80
1, 276912, Note_on_c, 1, 65, 0
1, 276936, Note_on_c, 0, 81, 0
1, 276960, Note_on_c, 0, 84, 80
1, 276960, Note_on_c, 1, 67, 80
1, 276960, Note_on_c, 1, 58, 80
1, 277176, Note_on_c, 0, 84, 0
1, 277200, Note_on_c, 0, 82, 80
1, 277392, Note_on_c, 1, 67, 0
1, 277392, Note_on_c, 1, 58, 0
1, 277416, Note_on_c, 0, 82, 0
1, 277440, Note_on_c, 0, 79, 80
1, 277440, Note_on_c, 1, 70, 80
1, 277440, Note_on_c, 1, 60, 80
1, 277656, Note_on_c, 0, 79, 0
1, 277680, Note_on_c, 0, 76, 80
1, 277872, Note_on_c, 1, 70, 0
1, 277872, Note_on_c, 1, 60, 0
1, 277896, Note_on_c, 0, 76, 0
1, 277920, Note_on_c, 0, 77, 80
1, 277920, Note_on_c, 1, 69, 80
1, 277920, Note_on_c, 1, 65, 80
1, 278136, Note_on_c, 0, 77, 0
1, 278160, Note_on_c, 0, 72, 80
1, 278352, Note_on_c, 1, 69, 0
1, 278352, Note_on_c, 1, 65, 0
1, 278376, Note_on_c, 0, 72, 0
1, 278400, Note_on_c, 1, 69, 80
1, 278640, Note_on_c, 0, 72, 80
1, 278832, Note_on_c, 1, 69, 0
1, 278856, Note_on_c, 0, 72, 0
1, 278880, Note_on_c, 1, 65, 80
1, 279120, Note_on_c, 0, 72, 80
1, 279312, Note_on_c, 1, 65, 0
1, 279336, Note_on_c, 0, 72, 0
1, 279360, Note_on_c, 0, 70, 84
1, 279360, Note_on_c, 0, 72, 84
1, 279360, Note_on_c, 1, 67, 84
1, 279576, Note_on_c, 0, 70, 0
1, 279576, Note_on_c, 0, 72, 0
1, 279600, Note_on_c, 0, 70, 84
1, 279600, Note_on_c, 0, 72, 84
1, 279792, Note_on_c, 1, 67, 0
1, 279816, Note_on_c, 0, 70, 0
1, 279816, Note_on_c, 0, 72, 0
1, 279840, Note_on_c, 1, 64, 84
1, 280080, Note_on_c, 0, 70, 80
1, 280080, Note_on_c, 0, 72, 80
1, 280272, Note_on_c, 1, 64, 0
1, 280296, Note_on_c, 0, 70, 0
1, 280296, Note_on_c, 0, 72, 0
1, 280320, Note_on_c, 1, 60, 80
1, 280560, Note_on_c, 0, 70, 80
1, 280560, Note_on_c, 0, 72, 80
1, 280752, Note_on_c, 1, 60, 0
1, 280776, Note_on_c, 0, 70, 0
1, 280776, Note_on_c, 0, 72, 0
1, 280800, Note_on_c, 0, 68, 84
1, 280800, Note_on_c, 0, 72, 84
1, 280800, Note_on_c, 1, 53, 84
1, 281016, Note_on_c, 0, 68, 0
1, 281016, Note_on_c, 0, 72, 0
1, 281040, Note_on_c, 0, 68, 84
1, 281040, Note_on_c, 0, 72, 84
1, 281232, Note_on_c, 1, 53, 0
1, 281256, Note_on_c, 0, 68, 0
1, 281256, Note_on_c, 0, 72, 0
1, 281280, Note_on_c, 1, 56, 84
1, 281520, Note_on_c, 0, 68, 80
1, 281520, Note_on_c, 0, 72, 80
1, 281712, Note_on_c, 1, 56, 0
1, 281736, Note_on_c, 0, 68, 0
1, 281736, Note_on_c, 0, 72, 0
1, 281760, Note_on_c, 1, 53, 80
1, 282000, Note_on_c, 0, 68, 80
1, 282000, Note_on_c, 0, 72, 80
1, 282192, Note_on_c, 1, 53, 0
1, 282216, Note_on_c, 0, 68, 0
1, 282216, Note_on_c, 0, 72, 0
1, 282240, Note_on_c, 0, 70, 84
1, 282240, Note_on_c, 0, 72, 84
1, 282240, Note_on_c, 1, 55, 84
1, 282456, Note_on_c, 0, 70, 0
1, 282456, Note_on_c, 0, 72, 0
1, 282480, Note_on_c, 0, 70, 84
1, 282480, Note_on_c, 0, 72, 84
1, 282672, Note_on_c, 1, 55, 0
1, 282696, Note_on_c, 0, 70, 0
1, 282696, Note_on_c, 0, 72, 0
1, 282720, Note_on_c, 1, 52, 84
1, 282960, Note_on_c, 0, 70, 80
1, 282960, Note_on_c, 0, 72, 80
1, 283152, Note_on_c, 1, 52, 0
1, 283176, Note_on_c, 0, 70, 0
1, 283176, Note_on_c, 0, 72, 0
1, 283200, Note_on_c, 1, 48, 80
1, 283440, Note_on_c, 0, 70, 80
1, 283440, Note_on_c, 0, 72, 80
1, 283632, Note_on_c, 1, 48, 0
1, 283656, Note_on_c, 0, 70, 0
1, 283656, Note_on_c, 0, 72, 0
1, 283680, Note_on_c, 0, 68, 88
1, 283680, Note_on_c, 0, 72, 88
1, 283680, Note_on_c, 1, 41, 89
1, 283680, Note_on_c, 1, 53, 89
1, 283896, Note_on_c, 0, 68, 0
1, 283896, Note_on_c, 0, 72, 0
1, 283920, Note_on_c, 0, 68, 88
1, 283920, Note_on_c, 0, 72, 88
1, 284112, Note_on_c, 1, 41, 0
1, 284112, Note_on_c, 1, 53, 0
1, 284136, Note_on_c, 0, 68, 0
1, 284136, Note_on_c, 0, 72, 0
1, 284160, Note_on_c, 1, 56, 84
1, 284400, Note_on_c, 0, 68, 80
1, 284400, Note_on_c, 0, 72, 80
1, 284592, Note_on_c, 1, 56, 0
1, 284616, Note_on_c, 0, 68, 0
1, 284616, Note_on_c, 0, 72, 0
1, 284640, Note_on_c, 1, 60, 80
1, 284880, Note_on_c, 0, 68, 80
1, 284880, Note_on_c, 0, 72, 80
1, 285072, Note_on_c, 1, 60, 0
1, 285096, Note_on_c, 0, 68, 0
1, 285096, Note_on_c, 0, 72, 0
1, 285120, Note_on_c, 0, 68, 89
1, 285120, Note_on_c, 0, 73, 89
1, 285120, Note_on_c, 1, 46, 88
1, 285120, Note_on_c, 1, 58, 88
1, 285336, Note_on_c, 0, 68, 0
1, 285336, Note_on_c, 0, 73, 0
1, 285360, Note_on_c, 0, 68, 89
1, 285360, Note_on_c, 0, 73, 89
1, 285552, Note_on_c, 1, 46, 0
1, 285552, Note_on_c, 1, 58, 0
1, 285576, Note_on_c, 0, 68, 0
1, 285576, Note_on_c, 0, 73, 0
1, 285600, Note_on_c, 1, 61, 84
1, 285840, Note_on_c, 0, 68, 80
1, 285840, Note_on_c, 0, 73, 80
1, 286032, Note_on_c, 1, 61, 0
1, 286056, Note_on_c, 0, 68, 0
1, 286056, Note_on_c, 0, 73, 0
1, 286080, Note_on_c, 1, 65, 80
1, 286320, Note_on_c, 0, 68, 80
1, 286320, Note_on_c, 0, 73, 80
1, 286512, Note_on_c, 1, 65, 0
1, 286536, Note_on_c, 0, 68, 0
1, 286536, Note_on_c, 0, 73, 0
1, 286560, Note_on_c, 0, 67, 90
1, 286560, Note_on_c, 0, 73, 90
1, 286560, Note_on_c, 1, 39, 90
1, 286560, Note_on_c, 1, 51, 90
1, 286776, Note_on_c, 0, 67, 0
1, 286776, Note_on_c, 0, 73, 0
1, 286800, Note_on_c, 0, 67, 90
1, 286800, Note_on_c, 0, 73, 90
1, 286992, Note_on_c, 1, 39, 0
1, 286992, Note_on_c, 1, 51, 0
1, 287016, Note_on_c, 0, 67, 0
1, 287016, Note_on_c, 0, 73, 0
1, 287040, Note_on_c, 1, 55, 84
1, 287280, Note_on_c, 0, 67, 80
1, 287280, Note_on_c, 0, 73, 80
1, 287472, Note_on_c, 1, 55, 0
1, 287496, Note_on_c, 0, 67, 0
1, 287496, Note_on_c, 0, 73, 0
1, 287520, Note_on_c, 1, 58, 80
1, 287760, Note_on_c, 0, 67, 80
1, 287760, Note_on_c, 0, 73, 80
1, 287952, Note_on_c, 1, 58, 0
1, 287976, Note_on_c, 0, 67, 0
1, 287976, Note_on_c, 0, 73, 0
1, 288000, Note_on_c, 0, 72, 91
1, 288000, Note_on_c, 0, 67, 91
1, 288000, Note_on_c, 1, 44, 88
1, 288000, Note_on_c, 1, 56, 88
1, 288216, Note_on_c, 0, 72, 0
1, 288216, Note_on_c, 0, 67, 0
1, 288240, Note_on_c, 0, 72, 91
1, 288240, Note_on_c, 0, 67, 91
1, 288432, Note_on_c, 1, 44, 0
1, 288432, Note_on_c, 1, 56, 0
1, 288456, Note_on_c, 0, 72, 0
1, 288456, Note_on_c, 0, 67, 0
1, 288480, Note_on_c, 1, 60, 84
1, 288720, Note_on_c, 0, 72, 80
1, 288720, Note_on_c, 0, 67, 80
1, 288912, Note_on_c, 1, 60, 0
1, 288936, Note_on_c, 0, 72, 0
1, 288936, Note_on_c, 0, 67, 0
1, 288960, Note_on_c, 1, 63, 80
1, 289200, Note_on_c, 0, 72, 80
1, 289200, Note_on_c, 0, 67, 80
1, 289392, Note_on_c, 1, 63, 0
1, 289416, Note_on_c, 0, 72, 0
1, 289416, Note_on_c, 0, 67, 0
1, 289440, Note_on_c, 0, 65, 91
1, 289440, Note_on_c, 0, 72, 91
1, 289440, Note_on_c, 1, 49, 89
1, 289440, Note_on_c, 1, 37, 89
1, 289656, Note_on_c, 0, 65, 0
1, 289656, Note_on_c, 0, 72, 0
1, 289680, Note_on_c, 0, 72, 91
1, 289680, Note_on_c, 0, 65, 91
1, 289872, Note_on_c, 1, 49, 0
1, 289872, Note_on_c, 1, 37, 0
1, 289896, Note_on_c, 0, 72, 0
1, 289896, Note_on_c, 0, 65, 0
1, 289920, Note_on_c, 1, 61, 84
1, 290160, Note_on_c, 0, 72, 80
1, 290160, Note_on_c, 0, 65, 80
1, 290352, Note_on_c, 1, 61, 0
1, 290376, Note_on_c, 0, 72, 0
1, 290376, Note_on_c, 0, 65, 0
1, 290400, Note_on_c, 0, 70, 87
1, 290400, Note_on_c, 0, 65, 87
1, 290400, Note_on_c, 1, 55, 85
1, 290400, Note_on_c, 1, 43, 85
1, 290616, Note_on_c, 0, 70, 0
1, 290616, Note_on_c, 0, 65, 0
1, 290640, Note_on_c, 0, 70, 85
1, 290640, Note_on_c, 0, 65, 85
1, 290832, Note_on_c, 1, 55, 0
1, 290832, Note_on_c, 1, 43, 0
1, 290856, Note_on_c, 0, 70, 0
1, 290856, Note_on_c, 0, 65, 0
1, 290880, Note_on_c, 1, 67, 80
1, 291120, Note_on_c, 0, 70, 80
1, 291120, Note_on_c, 0, 65, 80
1, 291312, Note_on_c, 1, 67, 0
1, 291336, Note_on_c, 0, 70, 0
1, 291336, Note_on_c, 0, 65, 0
1, 291360, Note_on_c, 0, 70, 86
1, 291360, Note_on_c, 0, 64, 86
1, 291360, Note_on_c, 1, 36, 86
1, 291360, Note_on_c, 1, 48, 86
1, 291576, Note_on_c, 0, 70, 0
1, 291576, Note_on_c, 0, 64, 0
1, 291600, Note_on_c, 0, 70, 85
1, 291600, Note_on_c, 0, 64, 85
1, 291792, Note_on_c, 1, 36, 0
1, 291792, Note_on_c, 1, 48, 0
1, 291816, Note_on_c, 0, 70, 0
1, 291816, Note_on_c, 0, 64, 0
1, 291840, Note_on_c, 1, 60, 80
1, 292080, Note_on_c, 0, 70, 80
1, 292080, Note_on_c, 0, 64, 80
1, 292272, Note_on_c, 1, 60, 0
1, 292296, Note_on_c, 0, 70, 0
1, 292296, Note_on_c, 0, 64, 0
1, 292320, Note_on_c, 1, 61, 80
1, 292560, Note_on_c, 0, 68, 80
1, 292560, Note_on_c, 0, 65, 80
1, 292752, Note_on_c, 1, 61, 0
1, 292776, Note_on_c, 0, 68, 0
1, 292776, Note_on_c, 0, 65, 0
1, 292800, Note_on_c, 1, 60, 80
1, 293040, Note_on_c, 0, 68, 80
1, 293040, Note_on_c, 0, 65, 80
1, 293232, Note_on_c, 1, 60, 0
1, 293256, Note_on_c, 0, 68, 0
1, 293256, Note_on_c, 0, 65, 0
1, 293280, Note_on_c, 1, 59, 80
1, 293520, Note_on_c, 0, 68, 80
1, 293520, Note_on_c, 0, 65, 80
1, 293712, Note_on_c, 1, 59, 0
1, 293736, Note_on_c, 0, 68, 0
1, 293736, Note_on_c, 0, 65, 0
1, 293760, Tempo, 476190
1, 293760, Note_on_c, 0, 67, 80
1, 293760, Note_on_c, 0, 64, 80
1, 293760, Note_on_c, 1, 60, 80
1, 293976, Note_on_c, 0, 67, 0
1, 293976, Note_on_c, 0, 64, 0
1, 294000, Tempo, 461538
1, 294000, Note_on_c, 0, 72, 80
1, 294000, Note_on_c, 0, 68, 80
1, 294192, Note_on_c, 1, 60, 0
1, 294216, Note_on_c, 0, 72, 0
1, 294216, Note_on_c, 0, 68, 0
1, 294240, Note_on_c, 0, 70, 80
1, 294240, Note_on_c, 0, 67, 80
1, 294456, Note_on_c, 0, 70, 0
1, 294456, Note_on_c, 0, 67, 0
1, 294480, Note_on_c, 0, 65, 80
1, 294480, Note_on_c, 0, 68, 80
1, 294696, Note_on_c, 0, 65, 0
1, 294696, Note_on_c, 0, 68, 0
1, 294720, Note_on_c, 0, 67, 80
1, 294720, Note_on_c, 0, 64, 80
1, 294936, Note_on_c, 0, 67, 0
1, 294936, Note_on_c, 0, 64, 0
1, 294960, Note_on_c, 0, 65, 80
1, 294960, Note_on_c, 0, 68, 80
1, 294960, Note_on_c, 1, 59, 80
1, 295176, Note_on_c, 0, 65, 0
1, 295176, Note_on_c, 0, 68, 0
1, 295176, Note_on_c, 1, 59, 0
1, 295200, Note_on_c, 0, 67, 80
1, 295200, Note_on_c, 0, 64, 80
1, 295200, Note_on_c, 1, 60, 80
1, 295416, Note_on_c, 0, 67, 0
1, 295416, Note_on_c, 0, 64, 0
1, 295440, Note_on_c, 0, 72, 80
1, 295440, Note_on_c, 0, 68, 80
1, 295632, Note_on_c, 1, 60, 0
1, 295656, Note_on_c, 0, 72, 0
1, 295656, Note_on_c, 0, 68, 0
1, 295680, Note_on_c, 0, 70, 80
1, 295680, Note_on_c, 0, 67, 80
1, 295896, Note_on_c, 0, 70, 0
1, 295896, Note_on_c, 0, 67, 0
1, 295920, Note_on_c, 0, 65, 80
1, 295920, Note_on_c, 0, 68, 80
1, 296136, Note_on_c, 0, 65, 0
1, 296136, Note_on_c, 0, 68, 0
1, 296160, Note_on_c, 0, 67, 80
1, 296160, Note_on_c, 0, 64, 80
1, 296376, Note_on_c, 0, 67, 0
1, 296376, Note_on_c, 0, 64, 0
1, 296400, Note_on_c, 0, 65, 80
1, 296400, Note_on_c, 0, 68, 80
1, 296400, Note_on_c, 1, 59, 80
1, 296616, Note_on_c, 0, 65, 0
1, 296616, Note_on_c, 0, 68, 0
1, 296616, Note_on_c, 1, 59, 0
1, 296640, Note_on_c, 0, 67, 76
1, 296640, Note_on_c, 0, 64, 76
1, 296640, Note_on_c, 1, 60, 76
1, 296856, Note_on_c, 0, 67, 0
1, 296856, Note_on_c, 0, 64, 0
1, 296856, Note_on_c, 1, 60, 0
1, 296880, Note_on_c, 0, 68, 76
1, 296880, Note_on_c, 0, 65, 76
1, 296880, Note_on_c, 1, 59, 76
1, 297096, Note_on_c, 0, 68, 0
1, 297096, Note_on_c, 0, 65, 0
1, 297096, Note_on_c, 1, 59, 0
1, 297120, Note_on_c, 0, 67, 76
1, 297120, Note_on_c, 0, 64, 76
1, 297120, Note_on_c, 1, 60, 76
1, 297336, Note_on_c, 0, 67, 0
1, 297336, Note_on_c, 0, 64, 0
1, 297336, Note_on_c, 1, 60, 0
1, 297360, Note_on_c, 0, 68, 76
1, 297360, Note_on_c, 0, 65, 76
1, 297360, Note_on_c, 1, 59, 76
1, 297576, Note_on_c, 0, 68, 0
1, 297576, Note_on_c, 0, 65, 0
1, 297576, Note_on_c, 1, 59, 0
1, 297600, Note_on_c, 0, 67, 76
1, 297600, Note_on_c, 0, 64, 76
1, 297600, Note_on_c, 1, 60, 76
1, 297816, Note_on_c, 0, 67, 0
1, 297816, Note_on_c, 0, 64, 0
1, 297816, Note_on_c, 1, 60, 0
1, 297840, Note_on_c, 0, 68, 76
1, 297840, Note_on_c, 0, 65, 76
1, 297840, Note_on_c, 1, 59, 76
1, 298056, Note_on_c, 0, 68, 0
1, 298056, Note_on_c, 0, 65, 0
1, 298056, Note_on_c, 1, 59, 0
1, 298080, Note_on_c, 0, 67, 72
1, 298080, Note_on_c, 0, 64, 72
1, 298080, Note_on_c, 1, 60, 71
1, 298296, Note_on_c, 0, 67, 0
1, 298296, Note_on_c, 0, 64, 0
1, 298320, Note_on_c, 0, 66, 65
1, 298320, Note_on_c, 0, 63, 65
1, 298512, Note_on_c, 1, 60, 0
1, 298536, Note_on_c, 0, 66, 0
1, 298536, Note_on_c, 0, 63, 0
1, 298560, Note_on_c, 0, 64, 61
1, 298560, Note_on_c, 0, 67, 61
1, 298776, Note_on_c, 0, 64, 0
1, 298776, Note_on_c, 0, 67, 0
1, 298800, Note_on_c, 0, 66, 61
1, 298800, Note_on_c, 0, 69, 61
1, 299016, Note_on_c, 0, 66, 0
1, 299016, Note_on_c, 0, 69, 0
1, 299040, Note_on_c, 0, 70, 63
1, 299040, Note_on_c, 0, 67, 63
1, 299256, Note_on_c, 0, 70, 0
1, 299256, Note_on_c, 0, 67, 0
1, 299280, Note_on_c, 0, 72, 68
1, 299280, Note_on_c, 0, 69, 68
1, 299496, Note_on_c, 0, 72, 0
1, 299496, Note_on_c, 0, 69, 0
1, 299520, Tempo, 487804
1, 299520, Note_on_c, 0, 70, 86
1, 299520, Note_on_c, 0, 74, 86
1, 299520, Note_on_c, 1, 58, 80
1, 299909, Note_on_c, 0, 70, 0
1, 299909, Note_on_c, 0, 74, 0
1, 299952, Note_on_c, 1, 58, 0
1, 300000, Tempo, 461538
1, 300000, Note_on_c, 0, 65, 80
1, 300000, Note_on_c, 0, 74, 80
1, 300000, Note_on_c, 0, 70, 80
1, 300000, Note_on_c, 1, 58, 80
1, 300432, Note_on_c, 1, 58, 0
1, 300453, Note_on_c, 0, 65, 0
1, 300453, Note_on_c, 0, 74, 0
1, 300453, Note_on_c, 0, 70, 0
1, 300480, Note_on_c, 0, 65, 80
1, 300480, Note_on_c, 0, 74, 80
1, 300480, Note_on_c, 0, 70, 80
1, 300480, Note_on_c, 1, 58, 80
1, 300912, Note_on_c, 1, 58, 0
1, 300933, Note_on_c, 0, 65, 0
1, 300933, Note_on_c, 0, 74, 0
1, 300933, Note_on_c, 0, 70, 0
1, 300960, Note_on_c, 0, 65, 80
1, 300960, Note_on_c, 0, 74, 80
1, 300960, Note_on_c, 0, 70, 80
1, 300960, Note_on_c, 1, 58, 80
1, 301824, Note_on_c, 0, 74, 0
1, 301824, Note_on_c, 0, 70, 0
1, 301824, Note_on_c, 1, 58, 0
1, 301920, Note_on_c, 0, 72, 80
1, 301920, Note_on_c, 0, 69, 80
1, 301920, Note_on_c, 1, 53, 80
1, 302256, Note_on_c, 0, 65, 0
1, 302340, Note_on_c, 0, 72, 0
1, 302340, Note_on_c, 0, 72, 80
1, 302352, Note_on_c, 0, 69, 0
1, 302352, Note_on_c, 1, 53, 0
1, 302394, Note_on_c, 0, 72, 0
1, 302400, Note_on_c, 0, 64, 80
1, 302400, Note_on_c, 0, 70, 80
1, 302400, Note_on_c, 0, 67, 80
1, 302400, Note_on_c, 1, 48, 80
1, 302832, Note_on_c, 0, 64, 0
1, 302832, Note_on_c, 0, 70, 0
1, 302832, Note_on_c, 0, 67, 0
1, 302832, Note_on_c, 1, 48, 0
1, 302880, Note_on_c, 0, 64, 80
1, 302880, Note_on_c, 0, 70, 80
1, 302880, Note_on_c, 0, 67, 80
1, 302880, Note_on_c, 1, 48, 80
1, 303312, Note_on_c, 0, 64, 0
1, 303312, Note_on_c, 0, 70, 0
1, 303312, Note_on_c, 0, 67, 0
1, 303312, Note_on_c, 1, 48, 0
1, 303360, Note_on_c, 0, 64, 80
1, 303360, Note_on_c, 0, 70, 80
1, 303360, Note_on_c, 0, 67, 80
1, 303360, Note_on_c, 1, 48, 80
1, 303792, Note_on_c, 0, 64, 0
1, 303792, Note_on_c, 0, 70, 0
1, 303792, Note_on_c, 0, 67, 0
1, 303792, Note_on_c, 1, 48, 0
1, 303840, Note_on_c, 0, 64, 80
1, 303840, Note_on_c, 0, 70, 80
1, 303840, Note_on_c, 0, 67, 80
1, 303840, Note_on_c, 1, 48, 80
1, 304704, Note_on_c, 0, 64, 0
1, 304704, Note_on_c, 0, 70, 0
1, 304704, Note_on_c, 0, 67, 0
1, 304704, Note_on_c, 1, 48, 0
1, 304800, Note_on_c, 0, 69, 80
1, 304800, Note_on_c, 0, 65, 80
1, 304800, Note_on_c, 1, 50, 80
1, 305232, Note_on_c, 0, 69, 0
1, 305232, Note_on_c, 0, 65, 0
1, 305232, Note_on_c, 1, 50, 0
1, 305280, Note_on_c, 0, 72, 80
1, 305280, Note_on_c, 0, 69, 80
1, 305280, Note_on_c, 1, 46, 80
1, 305496, Note_on_c, 0, 72, 0
1, 305496, Note_on_c, 0, 69, 0
1, 305520, Note_on_c, 0, 70, 80
1, 305520, Note_on_c, 0, 67, 80
1, 305712, Note_on_c, 1, 46, 0
1, 305736, Note_on_c, 0, 70, 0
1, 305736, Note_on_c, 0, 67, 0
1, 305760, Note_on_c, 0, 69, 80
1, 305760, Note_on_c, 0, 65, 80
1, 305760, Note_on_c, 1, 48, 80
1, 306192, Note_on_c, 0, 69, 0
1, 306192, Note_on_c, 0, 65, 0
1, 306192, Note_on_c, 1, 48, 0
1, 306240, Note_on_c, 0, 67, 80
1, 306240, Note_on_c, 0, 64, 80
1, 306240, Note_on_c, 1, 48, 80
1, 306672, Note_on_c, 0, 67, 0
1, 306672, Note_on_c, 0, 64, 0
1, 306672, Note_on_c, 1, 48, 0
1, 306720, Note_on_c, 0, 69, 80
1, 306720, Note_on_c, 0, 65, 80
1, 306720, Note_on_c, 1, 53, 80
1, 306936, Note_on_c, 0, 69, 0
1, 306936, Note_on_c, 0, 65, 0
1, 306960, Note_on_c, 0, 77, 80
1, 307152, Note_on_c, 1, 53, 0
1, 307176, Note_on_c, 0, 77, 0
1, 307200, Note_on_c, 0, 79, 80
1, 307416, Note_on_c, 0, 79, 0
1, 307440, Note_on_c, 0, 81, 80
1, 307656, Note_on_c, 0, 81, 0
1, 307680, Note_on_c, 0, 82, 80
1, 307896, Note_on_c, 0, 82, 0
1, 307920, Note_on_c, 0, 84, 80
1, 308136, Note_on_c, 0, 84, 0
1, 308160, Note_on_c, 0, 86, 80
1, 308160, Note_on_c, 1, 70, 80
1, 308160, Note_on_c, 1, 65, 80
1, 308592, Note_on_c, 0, 86, 0
1, 308592, Note_on_c, 1, 70, 0
1, 308592, Note_on_c, 1, 65, 0
1, 308640, Note_on_c, 0, 86, 80
1, 308640, Note_on_c, 1, 70, 80
1, 308640, Note_on_c, 1, 65, 80
1, 309072, Note_on_c, 0, 86, 0
1, 309072, Note_on_c, 1, 70, 0
1, 309072, Note_on_c, 1, 65, 0
1, 309120, Note_on_c, 0, 86, 80
1, 309120, Note_on_c, 1, 70, 80
1, 309120, Note_on_c, 1, 65, 80
1, 309552, Note_on_c, 0, 86, 0
1, 309552, Note_on_c, 1, 70, 0
1, 309552, Note_on_c, 1, 65, 0
1, 309600, Note_on_c, 0, 86, 80
1, 309600, Note_on_c, 1, 70, 80
1, 309600, Note_on_c, 1, 65, 80
1, 310248, Note_on_c, 0, 86, 0
1, 310320, Note_on_c, 0, 88, 80
1, 310428, Note_on_c, 0, 88, 0
1, 310440, Note_on_c, 0, 86, 80
1, 310464, Note_on_c, 1, 70, 0
1, 310548, Note_on_c, 0, 86, 0
1, 310560, Note_on_c, 0, 84, 80
1, 310560, Note_on_c, 1, 69, 80
1, 310896, Note_on_c, 1, 65, 0
1, 310980, Note_on_c, 0, 84, 0
1, 310980, Note_on_c, 0, 84, 80
1, 310992, Note_on_c, 1, 69, 0
1, 311034, Note_on_c, 0, 84, 0
1, 311040, Note_on_c, 0, 82, 80
1, 311040, Note_on_c, 0, 76, 80
1, 311040, Note_on_c, 1, 60, 80
1, 311040, Note_on_c, 1, 67, 80
1, 311472, Note_on_c, 0, 82, 0
1, 311472, Note_on_c, 0, 76, 0
1, 311472, Note_on_c, 1, 60, 0
1, 311472, Note_on_c, 1, 67, 0
1, 311520, Note_on_c, 0, 82, 80
1, 311520, Note_on_c, 0, 76, 80
1, 311520, Note_on_c, 1, 60, 80
1, 311520, Note_on_c, 1, 67, 80
1, 311952, Note_on_c, 0, 82, 0
1, 311952, Note_on_c, 0, 76, 0
1, 311952, Note_on_c, 1, 60, 0
1, 311952, Note_on_c, 1, 67, 0
1, 312000, Note_on_c, 0, 82, 80
1, 312000, Note_on_c, 0, 76, 80
1, 312000, Note_on_c, 1, 60, 80
1, 312000, Note_on_c, 1, 67, 80
1, 312432, Note_on_c, 0, 82, 0
1, 312432, Note_on_c, 0, 76, 0
1, 312432, Note_on_c, 1, 60, 0
1, 312432, Note_on_c, 1, 67, 0
1, 312480, Note_on_c, 0, 76, 80
1, 312480, Note_on_c, 0, 82, 80
1, 312480, Note_on_c, 1, 67, 80
1, 312480, Note_on_c, 1, 60, 80
1, 313344, Note_on_c, 0, 76, 0
1, 313344, Note_on_c, 0, 82, 0
1, 313344, Note_on_c, 1, 67, 0
1, 313344, Note_on_c, 1, 60, 0
1, 313440, Note_on_c, 0, 81, 80
1, 313440, Note_on_c, 0, 77, 80
1, 313440, Note_on_c, 1, 62, 80
1, 313440, Note_on_c, 1, 65, 80
1, 313872, Note_on_c, 0, 81, 0
1, 313872, Note_on_c, 0, 77, 0
1, 313872, Note_on_c, 1, 62, 0
1, 313872, Note_on_c, 1, 65, 0
1, 313920, Note_on_c, 0, 84, 80
1, 313920, Note_on_c, 0, 81, 80
1, 313920, Note_on_c, 1, 58, 80
1, 314136, Note_on_c, 0, 84, 0
1, 314136, Note_on_c, 0, 81, 0
1, 314160, Note_on_c, 0, 79, 72
1, 314160, Note_on_c, 0, 82, 72
1, 314352, Note_on_c, 1, 58, 0
1, 314388, Note_on_c, 0, 79, 0
1, 314388, Note_on_c, 0, 82, 0
1, 314400, Note_on_c, 0, 77, 72
1, 314400, Note_on_c, 0, 81, 72
1, 314400, Note_on_c, 1, 60, 72
1, 314856, Note_on_c, 0, 77, 0
1, 314856, Note_on_c, 0, 81, 0
1, 314856, Note_on_c, 1, 60, 0
1, 314880, Note_on_c, 0, 79, 72
1, 314880, Note_on_c, 0, 76, 72
1, 314880, Note_on_c, 1, 58, 72
1, 315336, Note_on_c, 0, 79, 0
1, 315336, Note_on_c, 0, 76, 0
1, 315336, Note_on_c, 1, 58, 0
1, 315360, Note_on_c, 0, 84, 84
1, 315360, Note_on_c, 0, 81, 84
1, 315360, Note_on_c, 1, 45, 85
1, 315360, Note_on_c, 1, 57, 85
1, 315576, Note_on_c, 0, 84, 0
1, 315576, Note_on_c, 0, 81, 0
1, 315576, Note_on_c, 1, 45, 0
1, 315576, Note_on_c, 1, 57, 0
1, 315600, Note_on_c, 0, 81, 84
1, 315600, Note_on_c, 0, 84, 84
1, 315816, Note_on_c, 0, 81, 0
1, 315816, Note_on_c, 0, 84, 0
1, 315840, Note_on_c, 1, 61, 80
1, 316056, Note_on_c, 1, 61, 0
1, 316080, Note_on_c, 0, 79, 80
1, 316080, Note_on_c, 0, 82, 80
1, 316296, Note_on_c, 0, 79, 0
1, 316296, Note_on_c, 0, 82, 0
1, 316320, Note_on_c, 1, 62, 80
1, 316536, Note_on_c, 1, 62, 0
1, 316560, Note_on_c, 0, 81, 80
1, 316560, Note_on_c, 0, 77, 80
1, 316776, Note_on_c, 0, 81, 0
1, 316776, Note_on_c, 0, 77, 0
1, 316800, Note_on_c, 1, 58, 80
1, 317016, Note_on_c, 1, 58, 0
1, 317040, Note_on_c, 0, 70, 80
1, 317040, Note_on_c, 0, 79, 80
1, 317256, Note_on_c, 0, 70, 0
1, 317256, Note_on_c, 0, 79, 0
1, 317280, Note_on_c, 1, 60, 80
1, 317496, Note_on_c, 1, 60, 0
1, 317520, Note_on_c, 0, 69, 80
1, 317520, Note_on_c, 0, 77, 80
1, 317736, Note_on_c, 0, 69, 0
1, 317736, Note_on_c, 0, 77, 0
1, 317760, Note_on_c, 1, 58, 80
1, 317976, Note_on_c, 1, 58, 0
1, 318000, Note_on_c, 0, 67, 80
1, 318000, Note_on_c, 0, 76, 80
1, 318216, Note_on_c, 0, 67, 0
1, 318216, Note_on_c, 0, 76, 0
1, 318240, Note_on_c, 1, 45, 86
1, 318240, Note_on_c, 1, 57, 86
1, 318360, Note_on_c, 0, 81, 86
1, 318456, Note_on_c, 1, 45, 0
1, 318456, Note_on_c, 1, 57, 0
1, 318468, Note_on_c, 0, 81, 0
1, 318480, Note_on_c, 0, 84, 87
1, 318588, Note_on_c, 0, 84, 0
1, 318600, Note_on_c, 0, 81, 86
1, 318708, Note_on_c, 0, 81, 0
1, 318720, Note_on_c, 1, 49, 80
1, 318720, Note_on_c, 1, 61, 80
1, 318840, Note_on_c, 0, 79, 83
1, 318936, Note_on_c, 1, 49, 0
1, 318936, Note_on_c, 1, 61, 0
1, 318948, Note_on_c, 0, 79, 0
1, 318960, Note_on_c, 0, 82, 85
1, 319068, Note_on_c, 0, 82, 0
1, 319080, Note_on_c, 0, 79, 83
1, 319188, Note_on_c, 0, 79, 0
1, 319200, Note_on_c, 1, 50, 80
1, 319200, Note_on_c, 1, 62, 80
1, 319320, Note_on_c, 0, 77, 80
1, 319416, Note_on_c, 1, 50, 0
1, 319416, Note_on_c, 1, 62, 0
1, 319428, Note_on_c, 0, 77, 0
1, 319440, Note_on_c, 0, 81, 81
1, 319548, Note_on_c, 0, 81, 0
1, 319560, Note_on_c, 0, 77, 80
1, 319668, Note_on_c, 0, 77, 0
1, 319680, Note_on_c, 1, 46, 80
1, 319680, Note_on_c, 1, 58, 80
1, 319800, Note_on_c, 0, 70, 77
1, 319896, Note_on_c, 1, 46, 0
1, 319896, Note_on_c, 1, 58, 0
1, 319908, Note_on_c, 0, 70, 0
1, 319920, Note_on_c, 0, 79, 79
1, 320028, Note_on_c, 0, 79, 0
1, 320040, Note_on_c, 0, 70, 77
1, 320148, Note_on_c, 0, 70, 0
1, 320160, Note_on_c, 1, 60, 80
1, 320160, Note_on_c, 1, 48, 80
1, 320280, Note_on_c, 0, 69, 73
1, 320376, Note_on_c, 1, 60, 0
1, 320376, Note_on_c, 1, 48, 0
1, 320388, Note_on_c, 0, 69, 0
1, 320400, Note_on_c, 0, 77, 77
1, 320508, Note_on_c, 0, 77, 0
1, 320520, Note_on_c, 0, 69, 73
1, 320628, Note_on_c, 0, 69, 0
1, 320640, Note_on_c, 1, 36, 80
1, 320640, Note_on_c, 1, 48, 80
1, 320760, Note_on_c, 0, 67, 80
1, 320856, Note_on_c, 1, 36, 0
1, 320856, Note_on_c, 1, 48, 0
1, 320868, Note_on_c, 0, 67, 0
1, 320880, Note_on_c, 0, 76, 80
1, 320988, Note_on_c, 0, 76, 0
1, 321000, Note_on_c, 0, 67, 80
1, 321108, Note_on_c, 0, 67, 0
1, 321120, Note_on_c, 0, 77, 80
1, 321120, Note_on_c, 0, 69, 80
1, 321120, Note_on_c, 0, 72, 80
1, 321120, Note_on_c, 1, 41, 80
1, 321228, Note_on_c, 1, 41, 0
1, 321240, Note_on_c, 1, 45, 80
1, 321348, Note_on_c, 1, 45, 0
1, 321360, Note_on_c, 1, 48, 80
1, 321468, Note_on_c, 1, 48, 0
1, 321480, Note_on_c, 1, 53, 80
1, 321552, Note_on_c, 0, 77, 0
1, 321552, Note_on_c, 0, 69, 0
1, 321552, Note_on_c, 0, 72, 0
1, 321588, Note_on_c, 1, 53, 0
1, 321600, Note_on_c, 1, 41, 80
1, 321708, Note_on_c, 1, 41, 0
1, 321720, Note_on_c, 1, 45, 80
1, 321828, Note_on_c, 1, 45, 0
1, 321840, Note_on_c, 1, 48, 80
1, 321948, Note_on_c, 1, 48, 0
1, 321960, Note_on_c, 1, 53, 80
1, 322068, Note_on_c, 1, 53, 0
1, 322080, Note_on_c, 0, 69, 82
1, 322080, Note_on_c, 1, 41, 82
1, 322134, Note_on_c, 0, 69, 0
1, 322140, Note_on_c, 0, 70, 82
1, 322188, Note_on_c, 1, 41, 0
1, 322194, Note_on_c, 0, 70, 0
1, 322200, Note_on_c, 0, 69, 75
1, 322200, Note_on_c, 1, 45, 75
1, 322254, Note_on_c, 0, 69, 0
1, 322260, Note_on_c, 0, 70, 75
1, 322308, Note_on_c, 1, 45, 0
1, 322314, Note_on_c, 0, 70, 0
1, 322320, Note_on_c, 0, 69, 75
1, 322320, Note_on_c, 1, 48, 75
1, 322374, Note_on_c, 0, 69, 0
1, 322380, Note_on_c, 0, 70, 75
1, 322428, Note_on_c, 1, 48, 0
1, 322434, Note_on_c, 0, 70, 0
1, 322440, Note_on_c, 0, 67, 80
1, 322440, Note_on_c, 1, 53, 80
1, 322494, Note_on_c, 0, 67, 0
1, 322500, Note_on_c, 0, 65, 80
1, 322548, Note_on_c, 1, 53, 0
1, 322554, Note_on_c, 0, 65, 0
1, 322560, Note_on_c, 0, 72, 80
1, 322560, Note_on_c, 1, 41, 80
1, 322668, Note_on_c, 1, 41, 0
1, 322680, Note_on_c, 1, 45, 80
1, 322788, Note_on_c, 1, 45, 0
1, 322800, Note_on_c, 1, 48, 80
1, 322908, Note_on_c, 1, 48, 0
1, 322920, Note_on_c, 1, 53, 80
1, 323028, Note_on_c, 1, 53, 0
1, 323040, Note_on_c, 1, 41, 80
1, 323148, Note_on_c, 1, 41, 0
1, 323160, Note_on_c, 1, 45, 80
1, 323268, Note_on_c, 1, 45, 0
1, 323280, Note_on_c, 1, 48, 80
1, 323388, Note_on_c, 1, 48, 0
1, 323400, Note_on_c, 1, 53, 80
1, 323424, Note_on_c, 0, 72, 0
1, 323508, Note_on_c, 1, 53, 0
1, 323520, Note_on_c, 0, 76, 80
1, 323520, Note_on_c, 1, 41, 80
1, 323574, Note_on_c, 0, 76, 0
1, 323580, Note_on_c, 0, 77, 80
1, 323628, Note_on_c, 1, 41, 0
1, 323634, Note_on_c, 0, 77, 0
1, 323640, Note_on_c, 0, 76, 74
1, 323640, Note_on_c, 1, 45, 74
1, 323694, Note_on_c, 0, 76, 0
1, 323700, Note_on_c, 0, 77, 74
1, 323748, Note_on_c, 1, 45, 0
1, 323754, Note_on_c, 0, 77, 0
1, 323760, Note_on_c, 0, 76, 74
1, 323760, Note_on_c, 1, 48, 74
1, 323814, Note_on_c, 0, 76, 0
1, 323820, Note_on_c, 0, 77, 74
1, 323868, Note_on_c, 1, 48, 0
1, 323874, Note_on_c, 0, 77, 0
1, 323880, Note_on_c, 0, 74, 80
1, 323880, Note_on_c, 1, 53, 80
1, 323934, Note_on_c, 0, 74, 0
1, 323940, Note_on_c, 0, 72, 80
1, 323988, Note_on_c, 1, 53, 0
1, 323994, Note_on_c, 0, 72, 0
1, 324000, Note_on_c, 0, 77, 80
1, 324000, Note_on_c, 1, 41, 80
1, 324108, Note_on_c, 1, 41, 0
1, 324120, Note_on_c, 1, 45, 80
1, 324228, Note_on_c, 1, 45, 0
1, 324240, Note_on_c, 1, 48, 80
1, 324348, Note_on_c, 1, 48, 0
1, 324360, Note_on_c, 1, 53, 80
1, 324468, Note_on_c, 1, 53, 0
1, 324480, Note_on_c, 1, 41, 80
1, 324588, Note_on_c, 1, 41, 0
1, 324600, Note_on_c, 1, 45, 80
1, 324708, Note_on_c, 1, 45, 0
1, 324720, Note_on_c, 1, 48, 80
1, 324828, Note_on_c, 1, 48, 0
1, 324840, Note_on_c, 1, 53, 84
1, 324864, Note_on_c, 0, 77, 0
1, 324948, Note_on_c, 1, 53, 0
1, 324960, Note_on_c, 0, 81, 84
1, 324960, Note_on_c, 1, 41, 84
1, 325014, Note_on_c, 0, 81, 0
1, 325020, Note_on_c, 0, 82, 84
1, 325068, Note_on_c, 1, 41, 0
1, 325074, Note_on_c, 0, 82, 0
1, 325080, Note_on_c, 0, 81, 78
1, 325080, Note_on_c, 1, 45, 77
1, 325134, Note_on_c, 0, 81, 0
1, 325140, Note_on_c, 0, 82, 78
1, 325188, Note_on_c, 1, 45, 0
1, 325194, Note_on_c, 0, 82, 0
1, 325200, Note_on_c, 0, 81, 78
1, 325200, Note_on_c, 1, 48, 77
1, 325254, Note_on_c, 0, 81, 0
1, 325260, Note_on_c, 0, 82, 78
1, 325308, Note_on_c, 1, 48, 0
1, 325314, Note_on_c, 0, 82, 0
1, 325320, Note_on_c, 0, 79, 84
1, 325320, Note_on_c, 1, 53, 84
1, 325374, Note_on_c, 0, 79, 0
1, 325380, Note_on_c, 0, 77, 84
1, 325428, Note_on_c, 1, 53, 0
1, 325434, Note_on_c, 0, 77, 0
1, 325440, Note_on_c, 0, 84, 84
1, 325440, Note_on_c, 1, 41, 84
1, 325548, Note_on_c, 1, 41, 0
1, 325560, Note_on_c, 1, 45, 84
1, 325668, Note_on_c, 1, 45, 0
1, 325680, Note_on_c, 1, 48, 84
1, 325788, Note_on_c, 1, 48, 0
1, 325800, Note_on_c, 1, 53, 84
1, 325850, Note_on_c, 0, 84, 0
1, 325908, Note_on_c, 1, 53, 0
1, 325920, Note_on_c, 0, 84, 84
1, 325920, Note_on_c, 1, 41, 84
1, 326028, Note_on_c, 1, 41, 0
1, 326040, Note_on_c, 1, 45, 84
1, 326148, Note_on_c, 1, 45, 0
1, 326160, Note_on_c, 1, 48, 84
1, 326268, Note_on_c, 1, 48, 0
1, 326280, Note_on_c, 1, 53, 84
1, 326330, Note_on_c, 0, 84, 0
1, 326388, Note_on_c, 1, 53, 0
1, 326400, Note_on_c, 0, 88, 84
1, 326400, Note_on_c, 1, 41, 84
1, 326454, Note_on_c, 0, 88, 0
1, 326460, Note_on_c, 0, 89, 84
1, 326508, Note_on_c, 1, 41, 0
1, 326514, Note_on_c, 0, 89, 0
1, 326520, Note_on_c, 0, 88, 77
1, 326520, Note_on_c, 1, 46, 76
1, 326574, Note_on_c, 0, 88, 0
1, 326580, Note_on_c, 0, 89, 77
1, 326628, Note_on_c, 1, 46, 0
1, 326634, Note_on_c, 0, 89, 0
1, 326640, Note_on_c, 0, 88, 77
1, 326640, Note_on_c, 1, 48, 77
1, 326694, Note_on_c, 0, 88, 0
1, 326700, Note_on_c, 0, 89, 77
1, 326748, Note_on_c, 1, 48, 0
1, 326754, Note_on_c, 0, 89, 0
1, 326760, Note_on_c, 0, 86, 84
1, 326760, Note_on_c, 1, 55, 84
1, 326814, Note_on_c, 0, 86, 0
1, 326820, Note_on_c, 0, 84, 84
1, 326868, Note_on_c, 1, 55, 0
1, 326874, Note_on_c, 0, 84, 0
1, 326880, Note_on_c, 0, 89, 84
1, 326880, Note_on_c, 1, 48, 84
1, 326880, Note_on_c, 1, 45, 84
1, 326880, Note_on_c, 1, 53, 84
1, 326880, Note_on_c, 1, 41, 84
1, 327290, Note_on_c, 0, 89, 0
1, 327290, Note_on_c, 1, 48, 0
1, 327290, Note_on_c, 1, 45, 0
1, 327290, Note_on_c, 1, 53, 0
1, 327290, Note_on_c, 1, 41, 0
1, 327360, Note_on_c, 0, 81, 84
1, 327360, Note_on_c, 1, 45, 84
1, 327360, Note_on_c, 1, 57, 84
1, 328008, Note_on_c, 0, 81, 0
1, 328008, Note_on_c, 1, 45, 0
1, 328008, Note_on_c, 1, 57, 0
1, 328080, Note_on_c, 0, 73, 76
1, 328080, Note_on_c, 1, 49, 76
1, 328080, Note_on_c, 1, 61, 76
1, 328296, Note_on_c, 0, 73, 0
1, 328296, Note_on_c, 1, 49, 0
1, 328296, Note_on_c, 1, 61, 0
1, 328320, Note_on_c, 0, 74, 76
1, 328320, Note_on_c, 1, 62, 76
1, 328320, Note_on_c, 1, 50, 76
1, 328730, Note_on_c, 0, 74, 0
1, 328730, Note_on_c, 1, 62, 0
1, 328730, Note_on_c, 1, 50, 0
1, 328800, Note_on_c, 0, 77, 85
1, 328800, Note_on_c, 1, 65, 87
1, 328800, Note_on_c, 1, 53, 87
1, 329448, Note_on_c, 0, 77, 0
1, 329448, Note_on_c, 1, 65, 0
1, 329448, Note_on_c, 1, 53, 0
1, 329520, Note_on_c, 0, 69, 80
1, 329520, Note_on_c, 1, 57, 80
1, 329736, Note_on_c, 0, 69, 0
1, 329736, Note_on_c, 1, 57, 0
1, 329760, Note_on_c, 0, 70, 76
1, 329760, Note_on_c, 1, 58, 76
1, 329814, Note_on_c, 0, 70, 0
1, 329814, Note_on_c, 1, 58, 0
1, 329820, Note_on_c, 0, 72, 76
1, 329820, Note_on_c, 1, 60, 76
1, 329874, Note_on_c, 0, 72, 0
1, 329874, Note_on_c, 1, 60, 0
1, 329880, Note_on_c, 0, 70, 70
1, 329880, Note_on_c, 1, 58, 70
1, 329934, Note_on_c, 0, 70, 0
1, 329934, Note_on_c, 1, 58, 0
1, 329940, Note_on_c, 0, 72, 70
1, 329940, Note_on_c, 1, 60, 70
1, 329994, Note_on_c, 0, 72, 0
1, 329994, Note_on_c, 1, 60, 0
1, 330000, Note_on_c, 0, 70, 70
1, 330000, Note_on_c, 1, 58, 70
1, 330054, Note_on_c, 0, 70, 0
1, 330054, Note_on_c, 1, 58, 0
1, 330060, Note_on_c, 0, 72, 70
1, 330060, Note_on_c, 1, 60, 70
1, 330114, Note_on_c, 0, 72, 0
1, 330114, Note_on_c, 1, 60, 0
1, 330120, Note_on_c, 0, 69, 80
1, 330120, Note_on_c, 1, 57, 80
1, 330174, Note_on_c, 0, 69, 0
1, 330174, Note_on_c, 1, 57, 0
1, 330180, Note_on_c, 0, 67, 80
1, 330180, Note_on_c, 1, 55, 80
1, 330234, Note_on_c, 0, 67, 0
1, 330234, Note_on_c, 1, 55, 0
1, 330240, Tempo, 476190
1, 330240, Note_on_c, 0, 72, 80
1, 330240, Note_on_c, 1, 60, 80
1, 330650, Note_on_c, 0, 72, 0
1, 330650, Note_on_c, 1, 60, 0
1, 330720, Note_on_c, 0, 76, 80
1, 330720, Note_on_c, 0, 67, 80
1, 330720, Note_on_c, 0, 72, 80
1, 330720, Note_on_c, 1, 48, 80
1, 330720, Note_on_c, 1, 60, 80
1, 331130, Note_on_c, 0, 76, 0
1, 331130, Note_on_c, 0, 67, 0
1, 331130, Note_on_c, 0, 72, 0
1, 331130, Note_on_c, 1, 48, 0
1, 331130, Note_on_c, 1, 60, 0
1, 331200, Note_on_c, 0, 77, 84
1, 331200, Note_on_c, 0, 69, 84
1, 331200, Note_on_c, 0, 72, 84
1, 331200, Note_on_c, 1, 65, 84
1, 331200, Note_on_c, 1, 53, 84
1, 331589, Note_on_c, 0, 77, 0
1, 331589, Note_on_c, 0, 69, 0
1, 331589, Note_on_c, 0, 72, 0
1, 331589, Note_on_c, 1, 65, 0
1, 331589, Note_on_c, 1, 53, 0
1, 331680, Note_on_c, 0, 65, 80
1, 331680, Note_on_c, 1, 41, 80
1, 331680, Note_on_c, 1, 53, 80
1, 332090, Note_on_c, 0, 65, 0
1, 332090, Note_on_c, 1, 41, 0
1, 332090, Note_on_c, 1, 53, 0
1, 332100, End_track
0, 0, End_of_file