0, 0, Header, 0, 1, 480
1, 0, Start_track
1, 0, Tempo, 461538
1, 1440, Note_on_c, 1, 48, 80
1, 1440, Note_on_c, 1, 45, 80
1, 1440, Note_on_c, 1, 53, 80
1, 1440, Note_on_c, 1, 41, 80
1, 1560, Note_on_c, 0, 84, 80
1, 1668, Note_on_c, 0, 84, 0
1, 1680, Note_on_c, 0, 83, 80
1, 1788, Note_on_c, 0, 83, 0
1, 1800, Note_on_c, 0, 84, 80
1, 1872, Note_on_c, 1, 48, 0
1, 1872, Note_on_c, 1, 45, 0
1, 1872, Note_on_c, 1, 53, 0
1, 1872, Note_on_c, 1, 41, 0
1, 1908, Note_on_c, 0, 84, 0
1, 1920, Note_on_c, 0, 89, 80
1, 2028, Note_on_c, 0, 89, 0
1, 2040, Note_on_c, 0, 84, 80
1, 2148, Note_on_c, 0, 84, 0
1, 2160, Note_on_c, 0, 82, 80
1, 2268, Note_on_c, 0, 82, 0
1, 2280, Note_on_c, 0, 81, 80
1, 2388, Note_on_c, 0, 81, 0
1, 2400, Note_on_c, 0, 80, 80
1, 2508, Note_on_c, 0, 80, 0
1, 2520, Note_on_c, 0, 81, 80
1, 2628, Note_on_c, 0, 81, 0
1, 2640, Note_on_c, 0, 84, 80
1, 2748, Note_on_c, 0, 84, 0
1, 2760, Note_on_c, 0, 81, 80
1, 2868, Note_on_c, 0, 81, 0
1, 2880, Note_on_c, 0, 79, 80
1, 2988, Note_on_c, 0, 79, 0
1, 3000, Note_on_c, 0, 77, 80
1, 3108, Note_on_c, 0, 77, 0
1, 3120, Note_on_c, 0, 76, 80
1, 3228, Note_on_c, 0, 76, 0
1, 3240, Note_on_c, 0, 77, 80
1, 3348, Note_on_c, 0, 77, 0
1, 3360, Note_on_c, 0, 81, 80
1, 3468, Note_on_c, 0, 81, 0
1, 3480, Note_on_c, 0, 77, 80
1, 3588, Note_on_c, 0, 77, 0
1, 3600, Note_on_c, 0, 74, 80
1, 3708, Note_on_c, 0, 74, 0
1, 3720, Note_on_c, 0, 72, 80
1, 3828, Note_on_c, 0, 72, 0
1, 3840, Note_on_c, 0, 71, 80
1, 3948, Note_on_c, 0, 71, 0
1, 3960, Note_on_c, 0, 72, 80
1, 4068, Note_on_c, 0, 72, 0
1, 4080, Note_on_c, 0, 77, 80
1, 4188, Note_on_c, 0, 77, 0
1, 4200, Note_on_c, 0, 72, 80
1, 4308, Note_on_c, 0, 72, 0
1, 4320, Note_on_c, 0, 70, 80
1, 4428, Note_on_c, 0, 70, 0
1, 4440, Note_on_c, 0, 69, 80
1, 4548, Note_on_c, 0, 69, 0
1, 4560, Note_on_c, 0, 68, 80
1, 4668, Note_on_c, 0, 68, 0
1, 4680, Note_on_c, 0, 69, 80
1, 4788, Note_on_c, 0, 69, 0
1, 4800, Note_on_c, 0, 72, 80
1, 4908, Note_on_c, 0, 72, 0
1, 4920, Note_on_c, 0, 69, 80
1, 5028, Note_on_c, 0, 69, 0
1, 5040, Note_on_c, 0, 65, 80
1, 5040, Note_on_c, 1, 57, 80
1, 5148, Note_on_c, 0, 65, 0
1, 5160, Note_on_c, 0, 77, 80
1, 5256, Note_on_c, 1, 57, 0
1, 5268, Note_on_c, 0, 77, 0
1, 5280, Note_on_c, 0, 64, 80
1, 5280, Note_on_c, 1, 55, 80
1, 5388, Note_on_c, 0, 64, 0
1, 5400, Note_on_c, 0, 77, 80
1, 5496, Note_on_c, 1, 55, 0
1, 5508, Note_on_c, 0, 77, 0
1, 5520, Note_on_c, 0, 65, 80
1, 5520, Note_on_c, 1, 57, 80
1, 5628, Note_on_c, 0, 65, 0
1, 5640, Note_on_c, 0, 77, 80
1, 5736, Note_on_c, 1, 57, 0
1, 5748, Note_on_c, 0, 77, 0
1, 5760, Note_on_c, 0, 67, 80
1, 5760, Note_on_c, 1, 58, 80
1, 5868, Note_on_c, 0, 67, 0
1, 5880, Note_on_c, 0, 77, 80
1, 5976, Note_on_c, 1, 58, 0
1, 5988, Note_on_c, 0, 77, 0
1, 6000, Note_on_c, 0, 65, 80
1, 6000, Note_on_c, 1, 57, 80
1, 6108, Note_on_c, 0, 65, 0
1, 6120, Note_on_c, 0, 77, 80
1, 6216, Note_on_c, 1, 57, 0
1, 6228, Note_on_c, 0, 77, 0
1, 6240, Note_on_c, 0, 67, 80
1, 6240, Note_on_c, 1, 58, 80
1, 6348, Note_on_c, 0, 67, 0
1, 6360, Note_on_c, 0, 77, 80
1, 6456, Note_on_c, 1, 58, 0
1, 6468, Note_on_c, 0, 77, 0
1, 6480, Note_on_c, 0, 69, 80
1, 6480, Note_on_c, 1, 60, 80
1, 6588, Note_on_c, 0, 69, 0
1, 6600, Note_on_c, 0, 77, 80
1, 6696, Note_on_c, 1, 60, 0
1, 6708, Note_on_c, 0, 77, 0
1, 6720, Note_on_c, 0, 67, 80
1, 6720, Note_on_c, 1, 58, 80
1, 6828, Note_on_c, 0, 67, 0
1, 6840, Note_on_c, 0, 77, 80
1, 6936, Note_on_c, 1, 58, 0
1, 6948, Note_on_c, 0, 77, 0
1, 6960, Note_on_c, 0, 69, 80
1, 6960, Note_on_c, 1, 60, 80
1, 7068, Note_on_c, 0, 69, 0
1, 7080, Note_on_c, 0, 77, 80
1, 7176, Note_on_c, 1, 60, 0
1, 7188, Note_on_c, 0, 77, 0
1, 7200, Note_on_c, 0, 70, 80
1, 7200, Note_on_c, 1, 61, 80
1, 7308, Note_on_c, 0, 70, 0
1, 7320, Note_on_c, 0, 77, 80
1, 7428, Note_on_c, 0, 77, 0
1, 7440, Note_on_c, 0, 70, 80
1, 7548, Note_on_c, 0, 70, 0
1, 7560, Note_on_c, 0, 77, 80
1, 7632, Note_on_c, 1, 61, 0
1, 7668, Note_on_c, 0, 77, 0
1, 7680, Note_on_c, 0, 69, 80
1, 7680, Note_on_c, 1, 60, 80
1, 7788, Note_on_c, 0, 69, 0
1, 7800, Note_on_c, 0, 77, 80
1, 7896, Note_on_c, 1, 60, 0
1, 7908, Note_on_c, 0, 77, 0
1, 7920, Note_on_c, 0, 70, 80
1, 7920, Note_on_c, 1, 61, 80
1, 8028, Note_on_c, 0, 70, 0
1, 8040, Note_on_c, 0, 77, 80
1, 8148, Note_on_c, 0, 77, 0
1, 8160, Note_on_c, 0, 70, 80
1, 8268, Note_on_c, 0, 70, 0
1, 8280, Note_on_c, 0, 77, 80
1, 8352, Note_on_c, 1, 61, 0
1, 8388, Note_on_c, 0, 77, 0
1, 8400, Note_on_c, 0, 69, 80
1, 8400, Note_on_c, 1, 60, 80
1, 8508, Note_on_c, 0, 69, 0
1, 8520, Note_on_c, 0, 77, 80
1, 8616, Note_on_c, 1, 60, 0
1, 8628, Note_on_c, 0, 77, 0
1, 8640, Note_on_c, 0, 68, 80
1, 8640, Note_on_c, 1, 59, 80
1, 8748, Note_on_c, 0, 68, 0
1, 8760, Note_on_c, 0, 77, 80
1, 8856, Note_on_c, 1, 59, 0
1, 8868, Note_on_c, 0, 77, 0
1, 8880, Note_on_c, 0, 68, 80
1, 8880, Note_on_c, 1, 59, 80
1, 8988, Note_on_c, 0, 68, 0
1, 9000, Note_on_c, 0, 77, 80
1, 9096, Note_on_c, 1, 59, 0
1, 9108, Note_on_c, 0, 77, 0
1, 9120, Note_on_c, 0, 68, 80
1, 9120, Note_on_c, 1, 59, 80
1, 9228, Note_on_c, 0, 68, 0
1, 9240, Note_on_c, 0, 77, 80
1, 9336, Note_on_c, 1, 59, 0
1, 9348, Note_on_c, 0, 77, 0
1, 9360, Note_on_c, 0, 67, 80
1, 9360, Note_on_c, 0, 76, 80
1, 9360, Note_on_c, 1, 60, 80
1, 9576, Note_on_c, 0, 67, 0
1, 9576, Note_on_c, 0, 76, 0
1, 9576, Note_on_c, 1, 60, 0
1, 10080, Note_on_c, 1, 48, 80
1, 10080, Note_on_c, 1, 45, 80
1, 10080, Note_on_c, 1, 53, 80
1, 10080, Note_on_c, 1, 41, 80
1, 10200, Note_on_c, 0, 84, 80
1, 10308, Note_on_c, 0, 84, 0
1, 10320, Note_on_c, 0, 83, 80
1, 10428, Note_on_c, 0, 83, 0
1, 10440, Note_on_c, 0, 84, 80
1, 10512, Note_on_c, 1, 48, 0
1, 10512, Note_on_c, 1, 45, 0
1, 10512, Note_on_c, 1, 53, 0
1, 10512, Note_on_c, 1, 41, 0
1, 10548, Note_on_c, 0, 84, 0
1, 10560, Note_on_c, 0, 89, 80
1, 10668, Note_on_c, 0, 89, 0
1, 10680, Note_on_c, 0, 84, 80
1, 10788, Note_on_c, 0, 84, 0
1, 10800, Note_on_c, 0, 82, 80
1, 10908, Note_on_c, 0, 82, 0
1, 10920, Note_on_c, 0, 81, 80
1, 11028, Note_on_c, 0, 81, 0
1, 11040, Note_on_c, 0, 80, 80
1, 11148, Note_on_c, 0, 80, 0
1, 11160, Note_on_c, 0, 81, 80
1, 11268, Note_on_c, 0, 81, 0
1, 11280, Note_on_c, 0, 84, 80
1, 11388, Note_on_c, 0, 84, 0
1, 11400, Note_on_c, 0, 81, 80
1, 11508, Note_on_c, 0, 81, 0
1, 11520, Note_on_c, 0, 79, 80
1, 11628, Note_on_c, 0, 79, 0
1, 11640, Note_on_c, 0, 77, 80
1, 11748, Note_on_c, 0, 77, 0
1, 11760, Note_on_c, 0, 76, 80
1, 11868, Note_on_c, 0, 76, 0
1, 11880, Note_on_c, 0, 77, 80
1, 11988, Note_on_c, 0, 77, 0
1, 12000, Note_on_c, 0, 81, 80
1, 12108, Note_on_c, 0, 81, 0
1, 12120, Note_on_c, 0, 77, 80
1, 12228, Note_on_c, 0, 77, 0
1, 12240, Note_on_c, 0, 74, 80
1, 12348, Note_on_c, 0, 74, 0
1, 12360, Note_on_c, 0, 72, 80
1, 12468, Note_on_c, 0, 72, 0
1, 12480, Note_on_c, 0, 71, 80
1, 12588, Note_on_c, 0, 71, 0
1, 12600, Note_on_c, 0, 72, 80
1, 12708, Note_on_c, 0, 72, 0
1, 12720, Note_on_c, 0, 77, 80
1, 12828, Note_on_c, 0, 77, 0
1, 12840, Note_on_c, 0, 72, 80
1, 12948, Note_on_c, 0, 72, 0
1, 12960, Note_on_c, 0, 70, 80
1, 13068, Note_on_c, 0, 70, 0
1, 13080, Note_on_c, 0, 69, 80
1, 13188, Note_on_c, 0, 69, 0
1, 13200, Note_on_c, 0, 68, 80
1, 13308, Note_on_c, 0, 68, 0
1, 13320, Note_on_c, 0, 69, 80
1, 13428, Note_on_c, 0, 69, 0
1, 13440, Note_on_c, 0, 72, 80
1, 13548, Note_on_c, 0, 72, 0
1, 13560, Note_on_c, 0, 69, 80
1, 13668, Note_on_c, 0, 69, 0
1, 13680, Note_on_c, 0, 65, 80
1, 13680, Note_on_c, 1, 57, 80
1, 13788, Note_on_c, 0, 65, 0
1, 13800, Note_on_c, 0, 77, 80
1, 13896, Note_on_c, 1, 57, 0
1, 13908, Note_on_c, 0, 77, 0
1, 13920, Note_on_c, 0, 64, 80
1, 13920, Note_on_c, 1, 55, 80
1, 14028, Note_on_c, 0, 64, 0
1, 14040, Note_on_c, 0, 77, 80
1, 14136, Note_on_c, 1, 55, 0
1, 14148, Note_on_c, 0, 77, 0
1, 14160, Note_on_c, 0, 65, 80
1, 14160, Note_on_c, 1, 57, 80
1, 14268, Note_on_c, 0, 65, 0
1, 14280, Note_on_c, 0, 77, 80
1, 14376, Note_on_c, 1, 57, 0
1, 14388, Note_on_c, 0, 77, 0
1, 14400, Note_on_c, 0, 67, 80
1, 14400, Note_on_c, 1, 58, 80
1, 14508, Note_on_c, 0, 67, 0
1, 14520, Note_on_c, 0, 77, 80
1, 14616, Note_on_c, 1, 58, 0
1, 14628, Note_on_c, 0, 77, 0
1, 14640, Note_on_c, 0, 65, 80
1, 14640, Note_on_c, 1, 57, 80
1, 14748, Note_on_c, 0, 65, 0
1, 14760, Note_on_c, 0, 77, 80
1, 14856, Note_on_c, 1, 57, 0
1, 14868, Note_on_c, 0, 77, 0
1, 14880, Note_on_c, 0, 67, 80
1, 14880, Note_on_c, 1, 58, 80
1, 14988, Note_on_c, 0, 67, 0
1, 15000, Note_on_c, 0, 77, 80
1, 15096, Note_on_c, 1, 58, 0
1, 15108, Note_on_c, 0, 77, 0
1, 15120, Note_on_c, 0, 69, 80
1, 15120, Note_on_c, 1, 60, 80
1, 15228, Note_on_c, 0, 69, 0
1, 15240, Note_on_c, 0, 77, 80
1, 15336, Note_on_c, 1, 60, 0
1, 15348, Note_on_c, 0, 77, 0
1, 15360, Note_on_c, 0, 67, 80
1, 15360, Note_on_c, 1, 58, 80
1, 15468, Note_on_c, 0, 67, 0
1, 15480, Note_on_c, 0, 77, 80
1, 15576, Note_on_c, 1, 58, 0
1, 15588, Note_on_c, 0, 77, 0
1, 15600, Note_on_c, 0, 69, 80
1, 15600, Note_on_c, 1, 60, 80
1, 15708, Note_on_c, 0, 69, 0
1, 15720, Note_on_c, 0, 77, 80
1, 15816, Note_on_c, 1, 60, 0
1, 15828, Note_on_c, 0, 77, 0
1, 15840, Note_on_c, 0, 70, 80
1, 15840, Note_on_c, 1, 61, 80
1, 15948, Note_on_c, 0, 70, 0
1, 15960, Note_on_c, 0, 77, 80
1, 16068, Note_on_c, 0, 77, 0
1, 16080, Note_on_c, 0, 70, 80
1, 16188, Note_on_c, 0, 70, 0
1, 16200, Note_on_c, 0, 77, 80
1, 16272, Note_on_c, 1, 61, 0
1, 16308, Note_on_c, 0, 77, 0
1, 16320, Note_on_c, 0, 69, 80
1, 16320, Note_on_c, 1, 60, 80
1, 16428, Note_on_c, 0, 69, 0
1, 16440, Note_on_c, 0, 77, 80
1, 16536, Note_on_c, 1, 60, 0
1, 16548, Note_on_c, 0, 77, 0
1, 16560, Note_on_c, 0, 70, 80
1, 16560, Note_on_c, 1, 61, 80
1, 16668, Note_on_c, 0, 70, 0
1, 16680, Note_on_c, 0, 77, 80
1, 16788, Note_on_c, 0, 77, 0
1, 16800, Note_on_c, 0, 70, 80
1, 16908, Note_on_c, 0, 70, 0
1, 16920, Note_on_c, 0, 77, 80
1, 16992, Note_on_c, 1, 61, 0
1, 17028, Note_on_c, 0, 77, 0
1, 17040, Note_on_c, 0, 69, 80
1, 17040, Note_on_c, 1, 60, 80
1, 17148, Note_on_c, 0, 69, 0
1, 17160, Note_on_c, 0, 77, 80
1, 17256, Note_on_c, 1, 60, 0
1, 17268, Note_on_c, 0, 77, 0
1, 17280, Note_on_c, 0, 68, 80
1, 17280, Note_on_c, 1, 59, 80
1, 17388, Note_on_c, 0, 68, 0
1, 17400, Note_on_c, 0, 77, 80
1, 17496, Note_on_c, 1, 59, 0
1, 17508, Note_on_c, 0, 77, 0
1, 18000, Note_on_c, 0, 67, 80
1, 18000, Note_on_c, 1, 58, 80
1, 18108, Note_on_c, 0, 67, 0
1, 18120, Note_on_c, 0, 76, 80
1, 18216, Note_on_c, 1, 58, 0
1, 18228, Note_on_c, 0, 76, 0
1, 18720, Note_on_c, 0, 66, 80
1, 18720, Note_on_c, 1, 57, 80
1, 18828, Note_on_c, 0, 66, 0
1, 18840, Note_on_c, 0, 75, 80
1, 18936, Note_on_c, 1, 57, 0
1, 18948, Note_on_c, 0, 75, 0
1, 19440, Note_on_c, 1, 46, 80
1, 19548, Note_on_c, 1, 46, 0
1, 19560, Note_on_c, 1, 58, 80
1, 19668, Note_on_c, 1, 58, 0
1, 19680, Note_on_c, 0, 62, 80
1, 19788, Note_on_c, 0, 62, 0
1, 19800, Note_on_c, 0, 67, 80
1, 19908, Note_on_c, 0, 67, 0
1, 19920, Note_on_c, 0, 70, 80
1, 20028, Note_on_c, 0, 70, 0
1, 20040, Note_on_c, 0, 74, 80
1, 20148, Note_on_c, 0, 74, 0
1, 20160, Note_on_c, 0, 72, 80
1, 20160, Note_on_c, 1, 58, 80
1, 20160, Note_on_c, 1, 48, 80
1, 20160, Note_on_c, 1, 55, 80
1, 20268, Note_on_c, 0, 72, 0
1, 20280, Note_on_c, 0, 70, 80
1, 20388, Note_on_c, 0, 70, 0
1, 20400, Note_on_c, 0, 69, 80
1, 20508, Note_on_c, 0, 69, 0
1, 20520, Note_on_c, 0, 67, 80
1, 20628, Note_on_c, 0, 67, 0
1, 20640, Note_on_c, 0, 65, 80
1, 20748, Note_on_c, 0, 65, 0
1, 20760, Note_on_c, 0, 64, 80
1, 20808, Note_on_c, 1, 58, 0
1, 20808, Note_on_c, 1, 48, 0
1, 20808, Note_on_c, 1, 55, 0
1, 20868, Note_on_c, 0, 64, 0
1, 20880, Note_on_c, 0, 65, 80
1, 20880, Note_on_c, 1, 53, 80
1, 20880, Note_on_c, 1, 57, 80
1, 21096, Note_on_c, 0, 65, 0
1, 21096, Note_on_c, 1, 53, 0
1, 21096, Note_on_c, 1, 57, 0
1, 21120, Note_on_c, 0, 60, 80
1, 21336, Note_on_c, 0, 60, 0
1, 21360, Note_on_c, 0, 60, 80
1, 21540, Note_on_c, 0, 64, 80
1, 21576, Note_on_c, 0, 60, 0
1, 21594, Note_on_c, 0, 64, 0
1, 21600, Note_on_c, 0, 70, 80
1, 21600, Note_on_c, 1, 48, 80
1, 21816, Note_on_c, 1, 48, 0
1, 21840, Note_on_c, 1, 60, 80
1, 21840, Note_on_c, 1, 58, 80
1, 22056, Note_on_c, 1, 60, 0
1, 22056, Note_on_c, 1, 58, 0
1, 22080, Note_on_c, 1, 60, 80
1, 22080, Note_on_c, 1, 58, 80
1, 22248, Note_on_c, 0, 70, 0
1, 22296, Note_on_c, 1, 60, 0
1, 22296, Note_on_c, 1, 58, 0
1, 22320, Note_on_c, 0, 70, 80
1, 22320, Note_on_c, 1, 60, 80
1, 22320, Note_on_c, 1, 58, 80
1, 22536, Note_on_c, 0, 70, 0
1, 22536, Note_on_c, 1, 60, 0
1, 22536, Note_on_c, 1, 58, 0
1, 22560, Note_on_c, 0, 69, 80
1, 22560, Note_on_c, 1, 60, 80
1, 22560, Note_on_c, 1, 58, 80
1, 22776, Note_on_c, 0, 69, 0
1, 22776, Note_on_c, 1, 60, 0
1, 22776, Note_on_c, 1, 58, 0
1, 22800, Note_on_c, 0, 67, 80
1, 22800, Note_on_c, 1, 60, 80
1, 22800, Note_on_c, 1, 58, 80
1, 22980, Note_on_c, 0, 67, 0
1, 22980, Note_on_c, 0, 67, 80
1, 23016, Note_on_c, 1, 60, 0
1, 23016, Note_on_c, 1, 58, 0
1, 23034, Note_on_c, 0, 67, 0
1, 23040, Note_on_c, 0, 65, 80
1, 23040, Note_on_c, 1, 53, 80
1, 23256, Note_on_c, 1, 53, 0
1, 23280, Note_on_c, 1, 57, 80
1, 23280, Note_on_c, 1, 60, 80
1, 23496, Note_on_c, 1, 57, 0
1, 23496, Note_on_c, 1, 60, 0
1, 23520, Note_on_c, 1, 60, 80
1, 23520, Note_on_c, 1, 57, 80
1, 23688, Note_on_c, 0, 65, 0
1, 23736, Note_on_c, 1, 60, 0
1, 23736, Note_on_c, 1, 57, 0
1, 23760, Note_on_c, 0, 65, 80
1, 23760, Note_on_c, 1, 60, 80
1, 23760, Note_on_c, 1, 57, 80
1, 23976, Note_on_c, 1, 60, 0
1, 23976, Note_on_c, 1, 57, 0
1, 24000, Note_on_c, 1, 60, 80
1, 24000, Note_on_c, 1, 57, 80
1, 24216, Note_on_c, 1, 60, 0
1, 24216, Note_on_c, 1, 57, 0
1, 24240, Note_on_c, 1, 60, 80
1, 24240, Note_on_c, 1, 57, 80
1, 24408, Note_on_c, 0, 65, 0
1, 24420, Note_on_c, 0, 64, 80
1, 24456, Note_on_c, 1, 60, 0
1, 24456, Note_on_c, 1, 57, 0
1, 24474, Note_on_c, 0, 64, 0
1, 24480, Note_on_c, 0, 70, 80
1, 24480, Note_on_c, 1, 48, 80
1, 24696, Note_on_c, 1, 48, 0
1, 24720, Note_on_c, 1, 60, 80
1, 24720, Note_on_c, 1, 55, 80
1, 24936, Note_on_c, 1, 60, 0
1, 24936, Note_on_c, 1, 55, 0
1, 24960, Note_on_c, 1, 55, 80
1, 24960, Note_on_c, 1, 60, 80
1, 25128, Note_on_c, 0, 70, 0
1, 25176, Note_on_c, 1, 55, 0
1, 25176, Note_on_c, 1, 60, 0
1, 25200, Note_on_c, 0, 70, 80
1, 25200, Note_on_c, 1, 55, 80
1, 25200, Note_on_c, 1, 60, 80
1, 25416, Note_on_c, 0, 70, 0
1, 25416, Note_on_c, 1, 55, 0
1, 25416, Note_on_c, 1, 60, 0
1, 25440, Note_on_c, 0, 69, 80
1, 25440, Note_on_c, 1, 55, 80
1, 25440, Note_on_c, 1, 60, 80
1, 25656, Note_on_c, 0, 69, 0
1, 25656, Note_on_c, 1, 55, 0
1, 25656, Note_on_c, 1, 60, 0
1, 25680, Note_on_c, 0, 67, 80
1, 25680, Note_on_c, 1, 55, 80
1, 25680, Note_on_c, 1, 60, 80
1, 25860, Note_on_c, 0, 67, 0
1, 25896, Note_on_c, 1, 55, 0
1, 25896, Note_on_c, 1, 60, 0
1, 25920, Note_on_c, 0, 71, 80
1, 25920, Note_on_c, 1, 53, 80
1, 26136, Note_on_c, 1, 53, 0
1, 26160, Note_on_c, 1, 57, 80
1, 26160, Note_on_c, 1, 60, 80
1, 26376, Note_on_c, 1, 57, 0
1, 26376, Note_on_c, 1, 60, 0
1, 26400, Note_on_c, 1, 60, 80
1, 26400, Note_on_c, 1, 57, 80
1, 26568, Note_on_c, 0, 71, 0
1, 26616, Note_on_c, 1, 60, 0
1, 26616, Note_on_c, 1, 57, 0
1, 26640, Note_on_c, 0, 72, 80
1, 26640, Note_on_c, 1, 60, 80
1, 26640, Note_on_c, 1, 57, 80
1, 26856, Note_on_c, 0, 72, 0
1, 26856, Note_on_c, 1, 60, 0
1, 26856, Note_on_c, 1, 57, 0
1, 26880, Note_on_c, 1, 60, 80
1, 26880, Note_on_c, 1, 57, 80
1, 27096, Note_on_c, 1, 60, 0
1, 27096, Note_on_c, 1, 57, 0
1, 27120, Note_on_c, 1, 60, 80
1, 27120, Note_on_c, 1, 57, 80
1, 27300, Note_on_c, 0, 64, 80
1, 27336, Note_on_c, 1, 60, 0
1, 27336, Note_on_c, 1, 57, 0
1, 27354, Note_on_c, 0, 64, 0
1, 27360, Note_on_c, 0, 70, 80
1, 27360, Note_on_c, 1, 48, 80
1, 27576, Note_on_c, 1, 48, 0
1, 27600, Note_on_c, 1, 60, 80
1, 27600, Note_on_c, 1, 58, 80
1, 27816, Note_on_c, 1, 60, 0
1, 27816, Note_on_c, 1, 58, 0
1, 27840, Note_on_c, 1, 60, 80
1, 27840, Note_on_c, 1, 58, 80
1, 28008, Note_on_c, 0, 70, 0
1, 28056, Note_on_c, 1, 60, 0
1, 28056, Note_on_c, 1, 58, 0
1, 28080, Note_on_c, 0, 70, 80
1, 28080, Note_on_c, 1, 60, 80
1, 28080, Note_on_c, 1, 58, 80
1, 28296, Note_on_c, 0, 70, 0
1, 28296, Note_on_c, 1, 60, 0
1, 28296, Note_on_c, 1, 58, 0
1, 28320, Note_on_c, 0, 69, 80
1, 28320, Note_on_c, 1, 60, 80
1, 28320, Note_on_c, 1, 58, 80
1, 28536, Note_on_c, 0, 69, 0
1, 28536, Note_on_c, 1, 60, 0
1, 28536, Note_on_c, 1, 58, 0
1, 28560, Note_on_c, 0, 67, 80
1, 28560, Note_on_c, 1, 60, 80
1, 28560, Note_on_c, 1, 58, 80
1, 28776, Note_on_c, 0, 67, 0
1, 28776, Note_on_c, 1, 60, 0
1, 28776, Note_on_c, 1, 58, 0
1, 28800, Note_on_c, 0, 65, 80
1, 28800, Note_on_c, 1, 53, 80
1, 29016, Note_on_c, 1, 53, 0
1, 29040, Note_on_c, 1, 57, 80
1, 29040, Note_on_c, 1, 60, 80
1, 29232, Note_on_c, 0, 65, 0
1, 29256, Note_on_c, 1, 57, 0
1, 29256, Note_on_c, 1, 60, 0
1, 29280, Note_on_c, 0, 69, 80
1, 29280, Note_on_c, 1, 60, 80
1, 29280, Note_on_c, 1, 57, 80
1, 29496, Note_on_c, 0, 69, 0
1, 29496, Note_on_c, 1, 60, 0
1, 29496, Note_on_c, 1, 57, 0
1, 29520, Note_on_c, 0, 69, 80
1, 29520, Note_on_c, 1, 60, 80
1, 29520, Note_on_c, 1, 57, 80
1, 29736, Note_on_c, 1, 60, 0
1, 29736, Note_on_c, 1, 57, 0
1, 29760, Note_on_c, 1, 60, 80
1, 29760, Note_on_c, 1, 57, 80
1, 29952, Note_on_c, 0, 69, 0
1, 29976, Note_on_c, 1, 60, 0
1, 29976, Note_on_c, 1, 57, 0
1, 30000, Note_on_c, 0, 72, 80
1, 30000, Note_on_c, 1, 60, 80
1, 30000, Note_on_c, 1, 57, 80
1, 30216, Note_on_c, 0, 72, 0
1, 30216, Note_on_c, 1, 60, 0
1, 30216, Note_on_c, 1, 57, 0
1, 30240, Note_on_c, 0, 72, 80
1, 30240, Note_on_c, 1, 48, 80
1, 30456, Note_on_c, 1, 48, 0
1, 30480, Note_on_c, 1, 60, 80
1, 30480, Note_on_c, 1, 55, 80
1, 30672, Note_on_c, 0, 72, 0
1, 30696, Note_on_c, 1, 60, 0
1, 30696, Note_on_c, 1, 55, 0
1, 30720, Note_on_c, 0, 70, 80
1, 30720, Note_on_c, 1, 55, 80
1, 30720, Note_on_c, 1, 60, 80
1, 30936, Note_on_c, 0, 70, 0
1, 30936, Note_on_c, 1, 55, 0
1, 30936, Note_on_c, 1, 60, 0
1, 30960, Note_on_c, 0, 70, 80
1, 30960, Note_on_c, 1, 58, 80
1, 30960, Note_on_c, 1, 60, 80
1, 31176, Note_on_c, 1, 58, 0
1, 31176, Note_on_c, 1, 60, 0
1, 31200, Note_on_c, 1, 58, 80
1, 31200, Note_on_c, 1, 60, 80
1, 31392, Note_on_c, 0, 70, 0
1, 31416, Note_on_c, 1, 58, 0
1, 31416, Note_on_c, 1, 60, 0
1, 31440, Note_on_c, 0, 67, 80
1, 31440, Note_on_c, 1, 58, 80
1, 31440, Note_on_c, 1, 60, 80
1, 31656, Note_on_c, 0, 67, 0
1, 31656, Note_on_c, 1, 58, 0
1, 31656, Note_on_c, 1, 60, 0
1, 31680, Note_on_c, 0, 65, 80
1, 31680, Note_on_c, 1, 60, 80
1, 31680, Note_on_c, 1, 53, 80
1, 31680, Note_on_c, 1, 57, 80
1, 31896, Note_on_c, 0, 65, 0
1, 31896, Note_on_c, 1, 60, 0
1, 31896, Note_on_c, 1, 53, 0
1, 31896, Note_on_c, 1, 57, 0
1, 32160, Note_on_c, 0, 57, 80
1, 32160, Note_on_c, 1, 45, 80
1, 32376, Note_on_c, 0, 57, 0
1, 32376, Note_on_c, 1, 45, 0
1, 32400, Note_on_c, 0, 58, 80
1, 32400, Note_on_c, 1, 46, 80
1, 32616, Note_on_c, 0, 58, 0
1, 32616, Note_on_c, 1, 46, 0
1, 32640, Note_on_c, 0, 67, 80
1, 32640, Note_on_c, 1, 55, 80
1, 32856, Note_on_c, 0, 67, 0
1, 32856, Note_on_c, 1, 55, 0
1, 32880, Note_on_c, 0, 59, 80
1, 32880, Note_on_c, 1, 47, 80
1, 33096, Note_on_c, 0, 59, 0
1, 33096, Note_on_c, 1, 47, 0
1, 33120, Note_on_c, 0, 60, 80
1, 33120, Note_on_c, 1, 48, 80
1, 33336, Note_on_c, 0, 60, 0
1, 33336, Note_on_c, 1, 48, 0
1, 33360, Note_on_c, 0, 69, 80
1, 33360, Note_on_c, 1, 57, 80
1, 33576, Note_on_c, 0, 69, 0
1, 33576, Note_on_c, 1, 57, 0
1, 33600, Note_on_c, 0, 61, 80
1, 33600, Note_on_c, 1, 49, 80
1, 33816, Note_on_c, 0, 61, 0
1, 33816, Note_on_c, 1, 49, 0
1, 33840, Note_on_c, 0, 62, 80
1, 33840, Note_on_c, 1, 50, 80
1, 34056, Note_on_c, 0, 62, 0
1, 34056, Note_on_c, 1, 50, 0
1, 34080, Note_on_c, 0, 70, 80
1, 34080, Note_on_c, 1, 58, 80
1, 34296, Note_on_c, 0, 70, 0
1, 34296, Note_on_c, 1, 58, 0
1, 34320, Note_on_c, 0, 64, 80
1, 34320, Note_on_c, 1, 52, 80
1, 34536, Note_on_c, 0, 64, 0
1, 34536, Note_on_c, 1, 52, 0
1, 34560, Note_on_c, 0, 82, 80
1, 35208, Note_on_c, 0, 82, 0
1, 35280, Note_on_c, 0, 82, 80
1, 35280, Note_on_c, 1, 67, 80
1, 35280, Note_on_c, 1, 64, 80
1, 35280, Note_on_c, 1, 60, 80
1, 35280, Note_on_c, 1, 58, 80
1, 35496, Note_on_c, 0, 82, 0
1, 35520, Note_on_c, 0, 81, 80
1, 35628, Note_on_c, 0, 81, 0
1, 35640, Note_on_c, 0, 79, 80
1, 35748, Note_on_c, 0, 79, 0
1, 35760, Note_on_c, 0, 77, 80
1, 35868, Note_on_c, 0, 77, 0
1, 35880, Note_on_c, 0, 76, 80
1, 35928, Note_on_c, 1, 67, 0
1, 35928, Note_on_c, 1, 64, 0
1, 35928, Note_on_c, 1, 60, 0
1, 35928, Note_on_c, 1, 58, 0
1, 35988, Note_on_c, 0, 76, 0
1, 36000, Note_on_c, 0, 77, 80
1, 36000, Note_on_c, 1, 65, 80
1, 36000, Note_on_c, 1, 60, 80
1, 36000, Note_on_c, 1, 57, 80
1, 36216, Note_on_c, 0, 77, 0
1, 36216, Note_on_c, 1, 65, 0
1, 36216, Note_on_c, 1, 60, 0
1, 36216, Note_on_c, 1, 57, 0
1, 36240, Note_on_c, 0, 79, 80
1, 36456, Note_on_c, 0, 79, 0
1, 36480, Note_on_c, 0, 81, 80
1, 36696, Note_on_c, 0, 81, 0
1, 36720, Note_on_c, 0, 72, 80
1, 36720, Note_on_c, 0, 69, 80
1, 36720, Note_on_c, 1, 60, 80
1, 37152, Note_on_c, 0, 72, 0
1, 37152, Note_on_c, 0, 69, 0
1, 37152, Note_on_c, 1, 60, 0
1, 37200, Note_on_c, 0, 70, 80
1, 37200, Note_on_c, 0, 67, 80
1, 37200, Note_on_c, 1, 61, 80
1, 37416, Note_on_c, 0, 70, 0
1, 37416, Note_on_c, 0, 67, 0
1, 37416, Note_on_c, 1, 61, 0
1, 37440, Note_on_c, 0, 70, 80
1, 37440, Note_on_c, 0, 67, 80
1, 37440, Note_on_c, 1, 62, 80
1, 38088, Note_on_c, 0, 70, 0
1, 38088, Note_on_c, 0, 67, 0
1, 38088, Note_on_c, 1, 62, 0
1, 38160, Note_on_c, 0, 69, 80
1, 38160, Note_on_c, 0, 65, 80
1, 38160, Note_on_c, 1, 62, 80
1, 38376, Note_on_c, 0, 69, 0
1, 38376, Note_on_c, 0, 65, 0
1, 38376, Note_on_c, 1, 62, 0
1, 39360, Note_on_c, 0, 57, 80
1, 39360, Note_on_c, 1, 45, 80
1, 39576, Note_on_c, 0, 57, 0
1, 39576, Note_on_c, 1, 45, 0
1, 39600, Note_on_c, 0, 58, 80
1, 39600, Note_on_c, 1, 46, 80
1, 39816, Note_on_c, 0, 58, 0
1, 39816, Note_on_c, 1, 46, 0
1, 39840, Note_on_c, 0, 67, 80
1, 39840, Note_on_c, 1, 55, 80
1, 40056, Note_on_c, 0, 67, 0
1, 40056, Note_on_c, 1, 55, 0
1, 40080, Note_on_c, 0, 59, 80
1, 40080, Note_on_c, 1, 47, 80
1, 40296, Note_on_c, 0, 59, 0
1, 40296, Note_on_c, 1, 47, 0
1, 40320, Note_on_c, 0, 60, 80
1, 40320, Note_on_c, 1, 48, 80
1, 40536, Note_on_c, 0, 60, 0
1, 40536, Note_on_c, 1, 48, 0
1, 40560, Note_on_c, 0, 69, 80
1, 40560, Note_on_c, 1, 57, 80
1, 40776, Note_on_c, 0, 69, 0
1, 40776, Note_on_c, 1, 57, 0
1, 40800, Note_on_c, 0, 61, 80
1, 40800, Note_on_c, 1, 49, 80
1, 41016, Note_on_c, 0, 61, 0
1, 41016, Note_on_c, 1, 49, 0
1, 41040, Note_on_c, 0, 62, 80
1, 41040, Note_on_c, 1, 50, 80
1, 41256, Note_on_c, 0, 62, 0
1, 41256, Note_on_c, 1, 50, 0
1, 41280, Note_on_c, 0, 70, 80
1, 41280, Note_on_c, 1, 58, 80
1, 41496, Note_on_c, 0, 70, 0
1, 41496, Note_on_c, 1, 58, 0
1, 41520, Note_on_c, 0, 64, 80
1, 41520, Note_on_c, 1, 52, 80
1, 41736, Note_on_c, 0, 64, 0
1, 41736, Note_on_c, 1, 52, 0
1, 41760, Note_on_c, 0, 82, 80
1, 42408, Note_on_c, 0, 82, 0
1, 42480, Note_on_c, 0, 82, 80
1, 42480, Note_on_c, 1, 67, 80
1, 42480, Note_on_c, 1, 64, 80
1, 42480, Note_on_c, 1, 60, 80
1, 42480, Note_on_c, 1, 58, 80
1, 42696, Note_on_c, 0, 82, 0
1, 42720, Note_on_c, 0, 81, 80
1, 42828, Note_on_c, 0, 81, 0
1, 42840, Note_on_c, 0, 79, 80
1, 42948, Note_on_c, 0, 79, 0
1, 42960, Note_on_c, 0, 77, 80
1, 43068, Note_on_c, 0, 77, 0
1, 43080, Note_on_c, 0, 76, 80
1, 43128, Note_on_c, 1, 67, 0
1, 43128, Note_on_c, 1, 64, 0
1, 43128, Note_on_c, 1, 60, 0
1, 43128, Note_on_c, 1, 58, 0
1, 43188, Note_on_c, 0, 76, 0
1, 43200, Note_on_c, 0, 77, 80
1, 43200, Note_on_c, 1, 65, 80
1, 43200, Note_on_c, 1, 60, 80
1, 43200, Note_on_c, 1, 57, 80
1, 43254, Note_on_c, 0, 77, 0
1, 43260, Note_on_c, 0, 79, 80
1, 43314, Note_on_c, 0, 79, 0
1, 43320, Note_on_c, 0, 81, 80
1, 43416, Note_on_c, 1, 65, 0
1, 43416, Note_on_c, 1, 60, 0
1, 43416, Note_on_c, 1, 57, 0
1, 43428, Note_on_c, 0, 81, 0
1, 43920, Note_on_c, 0, 74, 80
1, 43920, Note_on_c, 1, 62, 80
1, 43920, Note_on_c, 1, 58, 80
1, 43920, Note_on_c, 1, 65, 80
1, 43974, Note_on_c, 0, 74, 0
1, 43980, Note_on_c, 0, 76, 80
1, 44034, Note_on_c, 0, 76, 0
1, 44040, Note_on_c, 0, 77, 80
1, 44136, Note_on_c, 1, 62, 0
1, 44136, Note_on_c, 1, 58, 0
1, 44136, Note_on_c, 1, 65, 0
1, 44148, Note_on_c, 0, 77, 0
1, 44640, Note_on_c, 0, 65, 80
1, 44640, Note_on_c, 1, 57, 80
1, 44640, Note_on_c, 1, 48, 80
1, 45288, Note_on_c, 0, 65, 0
1, 45288, Note_on_c, 1, 57, 0
1, 45300, Note_on_c, 0, 69, 80
1, 45354, Note_on_c, 0, 69, 0
1, 45360, Note_on_c, 0, 67, 80
1, 45360, Note_on_c, 0, 64, 80
1, 45360, Note_on_c, 1, 58, 80
1, 45792, Note_on_c, 0, 67, 0
1, 45792, Note_on_c, 0, 64, 0
1, 45840, Note_on_c, 0, 65, 80
1, 45936, Note_on_c, 1, 48, 0
1, 46008, Note_on_c, 1, 58, 0
1, 46056, Note_on_c, 0, 65, 0
1, 46080, Note_on_c, 0, 65, 80
1, 46080, Note_on_c, 1, 53, 80
1, 46320, Note_on_c, 1, 57, 80
1, 46536, Note_on_c, 1, 57, 0
1, 46560, Note_on_c, 0, 69, 80
1, 46560, Note_on_c, 1, 60, 80
1, 46728, Note_on_c, 0, 65, 0
1, 46728, Note_on_c, 1, 53, 0
1, 46776, Note_on_c, 0, 69, 0
1, 46776, Note_on_c, 1, 60, 0
1, 46800, Note_on_c, 0, 72, 80
1, 46800, Note_on_c, 0, 64, 80
1, 46800, Note_on_c, 1, 53, 80
1, 47016, Note_on_c, 0, 72, 0
1, 47040, Note_on_c, 0, 70, 80
1, 47040, Note_on_c, 1, 55, 80
1, 47256, Note_on_c, 0, 70, 0
1, 47256, Note_on_c, 1, 55, 0
1, 47280, Note_on_c, 0, 67, 80
1, 47280, Note_on_c, 1, 58, 80
1, 47448, Note_on_c, 0, 64, 0
1, 47448, Note_on_c, 1, 53, 0
1, 47496, Note_on_c, 0, 67, 0
1, 47496, Note_on_c, 1, 58, 0
1, 47520, Note_on_c, 0, 65, 80
1, 47520, Note_on_c, 1, 53, 80
1, 47760, Note_on_c, 0, 60, 80
1, 47760, Note_on_c, 1, 57, 80
1, 47976, Note_on_c, 0, 60, 0
1, 47976, Note_on_c, 1, 57, 0
1, 48000, Note_on_c, 0, 69, 80
1, 48000, Note_on_c, 1, 60, 80
1, 48168, Note_on_c, 0, 65, 0
1, 48168, Note_on_c, 1, 53, 0
1, 48216, Note_on_c, 0, 69, 0
1, 48216, Note_on_c, 1, 60, 0
1, 48240, Note_on_c, 0, 72, 80
1, 48240, Note_on_c, 0, 64, 80
1, 48240, Note_on_c, 1, 53, 80
1, 48456, Note_on_c, 0, 72, 0
1, 48480, Note_on_c, 0, 70, 80
1, 48480, Note_on_c, 1, 55, 80
1, 48696, Note_on_c, 0, 70, 0
1, 48696, Note_on_c, 1, 55, 0
1, 48720, Note_on_c, 0, 67, 80
1, 48720, Note_on_c, 1, 58, 80
1, 48888, Note_on_c, 0, 64, 0
1, 48888, Note_on_c, 1, 53, 0
1, 48936, Note_on_c, 0, 67, 0
1, 48936, Note_on_c, 1, 58, 0
1, 48960, Note_on_c, 0, 65, 80
1, 48960, Note_on_c, 1, 53, 80
1, 49176, Note_on_c, 0, 65, 0
1, 49200, Note_on_c, 0, 60, 80
1, 49200, Note_on_c, 1, 57, 80
1, 49416, Note_on_c, 0, 60, 0
1, 49416, Note_on_c, 1, 57, 0
1, 49440, Note_on_c, 0, 69, 80
1, 49440, Note_on_c, 1, 60, 80
1, 49608, Note_on_c, 1, 53, 0
1, 49656, Note_on_c, 0, 69, 0
1, 49656, Note_on_c, 1, 60, 0
1, 49680, Note_on_c, 0, 65, 80
1, 49680, Note_on_c, 1, 53, 80
1, 49896, Note_on_c, 0, 65, 0
1, 49920, Note_on_c, 0, 60, 80
1, 49920, Note_on_c, 1, 57, 80
1, 50136, Note_on_c, 0, 60, 0
1, 50136, Note_on_c, 1, 57, 0
1, 50160, Note_on_c, 0, 69, 80
1, 50160, Note_on_c, 1, 60, 80
1, 50328, Note_on_c, 1, 53, 0
1, 50376, Note_on_c, 0, 69, 0
1, 50376, Note_on_c, 1, 60, 0
1, 50400, Note_on_c, 0, 67, 80
1, 50400, Note_on_c, 0, 58, 80
1, 50400, Note_on_c, 1, 53, 80
1, 50400, Note_on_c, 1, 41, 80
1, 51048, Note_on_c, 0, 67, 0
1, 51048, Note_on_c, 0, 58, 0
1, 51048, Note_on_c, 1, 53, 0
1, 51048, Note_on_c, 1, 41, 0
1, 51120, Note_on_c, 0, 65, 80
1, 51120, Note_on_c, 0, 57, 80
1, 51120, Note_on_c, 1, 53, 80
1, 51120, Note_on_c, 1, 41, 80
1, 51336, Note_on_c, 0, 65, 0
1, 51336, Note_on_c, 0, 57, 0
1, 51336, Note_on_c, 1, 53, 0
1, 51336, Note_on_c, 1, 41, 0
1, 51840, Note_on_c, 0, 69, 80
1, 51840, Note_on_c, 0, 81, 80
1, 52488, Note_on_c, 0, 69, 0
1, 52488, Note_on_c, 0, 81, 0
1, 52560, Note_on_c, 0, 69, 80
1, 52560, Note_on_c, 0, 79, 80
1, 53208, Note_on_c, 0, 69, 0
1, 53208, Note_on_c, 0, 79, 0
1, 53280, Note_on_c, 0, 69, 80
1, 53280, Note_on_c, 0, 77, 80
1, 53280, Note_on_c, 1, 45, 80
1, 53280, Note_on_c, 1, 57, 80
1, 53928, Note_on_c, 0, 69, 0
1, 53928, Note_on_c, 0, 77, 0
1, 53928, Note_on_c, 1, 45, 0
1, 53928, Note_on_c, 1, 57, 0
1, 54000, Note_on_c, 0, 69, 80
1, 54000, Note_on_c, 0, 76, 80
1, 54000, Note_on_c, 1, 43, 80
1, 54000, Note_on_c, 1, 55, 80
1, 54648, Note_on_c, 0, 69, 0
1, 54648, Note_on_c, 0, 76, 0
1, 54648, Note_on_c, 1, 43, 0
1, 54648, Note_on_c, 1, 55, 0
1, 54720, Note_on_c, 0, 69, 80
1, 54720, Note_on_c, 0, 74, 80
1, 54720, Note_on_c, 1, 41, 80
1, 54720, Note_on_c, 1, 53, 80
1, 55368, Note_on_c, 0, 69, 0
1, 55368, Note_on_c, 0, 74, 0
1, 55368, Note_on_c, 1, 41, 0
1, 55368, Note_on_c, 1, 53, 0
1, 55440, Note_on_c, 0, 67, 80
1, 55440, Note_on_c, 0, 73, 80
1, 55440, Note_on_c, 0, 69, 80
1, 55440, Note_on_c, 1, 40, 80
1, 55440, Note_on_c, 1, 52, 80
1, 56088, Note_on_c, 0, 67, 0
1, 56088, Note_on_c, 0, 73, 0
1, 56088, Note_on_c, 0, 69, 0
1, 56088, Note_on_c, 1, 40, 0
1, 56088, Note_on_c, 1, 52, 0
1, 56160, Note_on_c, 0, 74, 80
1, 56160, Note_on_c, 1, 50, 80
1, 56268, Note_on_c, 0, 74, 0
1, 56280, Note_on_c, 0, 69, 80
1, 56376, Note_on_c, 1, 50, 0
1, 56388, Note_on_c, 0, 69, 0
1, 56400, Note_on_c, 0, 65, 80
1, 56400, Note_on_c, 1, 53, 80
1, 56508, Note_on_c, 0, 65, 0
1, 56520, Note_on_c, 0, 69, 80
1, 56616, Note_on_c, 1, 53, 0
1, 56628, Note_on_c, 0, 69, 0
1, 56640, Note_on_c, 0, 74, 80
1, 56640, Note_on_c, 1, 57, 80
1, 56748, Note_on_c, 0, 74, 0
1, 56760, Note_on_c, 0, 69, 80
1, 56856, Note_on_c, 1, 57, 0
1, 56868, Note_on_c, 0, 69, 0
1, 56880, Note_on_c, 0, 76, 80
1, 56880, Note_on_c, 1, 49, 80
1, 56988, Note_on_c, 0, 76, 0
1, 57000, Note_on_c, 0, 69, 80
1, 57096, Note_on_c, 1, 49, 0
1, 57108, Note_on_c, 0, 69, 0
1, 57120, Note_on_c, 0, 67, 80
1, 57120, Note_on_c, 1, 52, 80
1, 57228, Note_on_c, 0, 67, 0
1, 57240, Note_on_c, 0, 69, 80
1, 57336, Note_on_c, 1, 52, 0
1, 57348, Note_on_c, 0, 69, 0
1, 57360, Note_on_c, 0, 76, 80
1, 57360, Note_on_c, 1, 57, 80
1, 57468, Note_on_c, 0, 76, 0
1, 57480, Note_on_c, 0, 69, 80
1, 57576, Note_on_c, 1, 57, 0
1, 57588, Note_on_c, 0, 69, 0
1, 57600, Note_on_c, 0, 77, 80
1, 57600, Note_on_c, 1, 50, 80
1, 57708, Note_on_c, 0, 77, 0
1, 57720, Note_on_c, 0, 74, 80
1, 57816, Note_on_c, 1, 50, 0
1, 57828, Note_on_c, 0, 74, 0
1, 57840, Note_on_c, 0, 69, 80
1, 57840, Note_on_c, 1, 53, 80
1, 57948, Note_on_c, 0, 69, 0
1, 57960, Note_on_c, 0, 74, 80
1, 58056, Note_on_c, 1, 53, 0
1, 58068, Note_on_c, 0, 74, 0
1, 58080, Note_on_c, 0, 77, 80
1, 58080, Note_on_c, 1, 57, 80
1, 58188, Note_on_c, 0, 77, 0
1, 58200, Note_on_c, 0, 74, 80
1, 58296, Note_on_c, 1, 57, 0
1, 58308, Note_on_c, 0, 74, 0
1, 58320, Note_on_c, 0, 78, 80
1, 58320, Note_on_c, 1, 48, 80
1, 58428, Note_on_c, 0, 78, 0
1, 58440, Note_on_c, 0, 74, 80
1, 58536, Note_on_c, 1, 48, 0
1, 58548, Note_on_c, 0, 74, 0
1, 58560, Note_on_c, 0, 69, 80
1, 58560, Note_on_c, 1, 54, 80
1, 58668, Note_on_c, 0, 69, 0
1, 58680, Note_on_c, 0, 74, 80
1, 58776, Note_on_c, 1, 54, 0
1, 58788, Note_on_c, 0, 74, 0
1, 58800, Note_on_c, 0, 78, 80
1, 58800, Note_on_c, 1, 57, 80
1, 58908, Note_on_c, 0, 78, 0
1, 58920, Note_on_c, 0, 74, 80
1, 59016, Note_on_c, 1, 57, 0
1, 59028, Note_on_c, 0, 74, 0
1, 59040, Note_on_c, 0, 79, 80
1, 59040, Note_on_c, 1, 47, 80
1, 59472, Note_on_c, 0, 79, 0
1, 59472, Note_on_c, 1, 47, 0
1, 59520, Note_on_c, 0, 81, 80
1, 59628, Note_on_c, 0, 81, 0
1, 59640, Note_on_c, 0, 79, 80
1, 59748, Note_on_c, 0, 79, 0
1, 59760, Note_on_c, 0, 77, 80
1, 60192, Note_on_c, 0, 77, 0
1, 60240, Note_on_c, 0, 79, 80
1, 60348, Note_on_c, 0, 79, 0
1, 60360, Note_on_c, 0, 77, 80
1, 60468, Note_on_c, 0, 77, 0
1, 60480, Note_on_c, 0, 76, 80
1, 60480, Note_on_c, 1, 67, 80
1, 60912, Note_on_c, 0, 76, 0
1, 60960, Note_on_c, 0, 77, 80
1, 61068, Note_on_c, 0, 77, 0
1, 61080, Note_on_c, 0, 76, 80
1, 61128, Note_on_c, 1, 67, 0
1, 61188, Note_on_c, 0, 76, 0
1, 61200, Note_on_c, 0, 74, 80
1, 61200, Note_on_c, 1, 65, 80
1, 61200, Note_on_c, 1, 67, 80
1, 61632, Note_on_c, 0, 74, 0
1, 61680, Note_on_c, 0, 76, 80
1, 61788, Note_on_c, 0, 76, 0
1, 61800, Note_on_c, 0, 74, 80
1, 61848, Note_on_c, 1, 65, 0
1, 61848, Note_on_c, 1, 67, 0
1, 61908, Note_on_c, 0, 74, 0
1, 61920, Note_on_c, 0, 72, 80
1, 61920, Note_on_c, 1, 64, 80
1, 61920, Note_on_c, 1, 67, 80
1, 62352, Note_on_c, 0, 72, 0
1, 62400, Note_on_c, 0, 74, 80
1, 62508, Note_on_c, 0, 74, 0
1, 62520, Note_on_c, 0, 72, 80
1, 62568, Note_on_c, 1, 64, 0
1, 62568, Note_on_c, 1, 67, 0
1, 62628, Note_on_c, 0, 72, 0
1, 62640, Note_on_c, 0, 71, 80
1, 62640, Note_on_c, 1, 67, 80
1, 62640, Note_on_c, 1, 62, 80
1, 62640, Note_on_c, 1, 65, 80
1, 63072, Note_on_c, 0, 71, 0
1, 63120, Note_on_c, 0, 72, 80
1, 63228, Note_on_c, 0, 72, 0
1, 63240, Note_on_c, 0, 71, 80
1, 63288, Note_on_c, 1, 67, 0
1, 63288, Note_on_c, 1, 62, 0
1, 63288, Note_on_c, 1, 65, 0
1, 63348, Note_on_c, 0, 71, 0
1, 63360, Note_on_c, 0, 74, 80
1, 63360, Note_on_c, 1, 60, 80
1, 63468, Note_on_c, 0, 74, 0
1, 63480, Note_on_c, 0, 72, 80
1, 63576, Note_on_c, 1, 60, 0
1, 63588, Note_on_c, 0, 72, 0
1, 63600, Note_on_c, 0, 71, 80
1, 63600, Note_on_c, 1, 64, 80
1, 63708, Note_on_c, 0, 71, 0
1, 63720, Note_on_c, 0, 72, 80
1, 63816, Note_on_c, 1, 64, 0
1, 63828, Note_on_c, 0, 72, 0
1, 63840, Note_on_c, 0, 71, 80
1, 63840, Note_on_c, 1, 67, 80
1, 63948, Note_on_c, 0, 71, 0
1, 63960, Note_on_c, 0, 72, 80
1, 64056, Note_on_c, 1, 67, 0
1, 64068, Note_on_c, 0, 72, 0
1, 64080, Note_on_c, 0, 76, 80
1, 64080, Note_on_c, 1, 59, 80
1, 64188, Note_on_c, 0, 76, 0
1, 64200, Note_on_c, 0, 74, 80
1, 64296, Note_on_c, 1, 59, 0
1, 64308, Note_on_c, 0, 74, 0
1, 64320, Note_on_c, 0, 73, 80
1, 64320, Note_on_c, 1, 65, 80
1, 64428, Note_on_c, 0, 73, 0
1, 64440, Note_on_c, 0, 74, 80
1, 64536, Note_on_c, 1, 65, 0
1, 64548, Note_on_c, 0, 74, 0
1, 64560, Note_on_c, 0, 73, 80
1, 64560, Note_on_c, 1, 67, 80
1, 64668, Note_on_c, 0, 73, 0
1, 64680, Note_on_c, 0, 74, 80
1, 64776, Note_on_c, 1, 67, 0
1, 64788, Note_on_c, 0, 74, 0
1, 64800, Note_on_c, 0, 76, 80
1, 64800, Note_on_c, 1, 60, 80
1, 64800, Note_on_c, 1, 67, 80
1, 64800, Note_on_c, 1, 64, 80
1, 64908, Note_on_c, 0, 76, 0
1, 64920, Note_on_c, 0, 74, 80
1, 65016, Note_on_c, 1, 60, 0
1, 65016, Note_on_c, 1, 67, 0
1, 65016, Note_on_c, 1, 64, 0
1, 65028, Note_on_c, 0, 74, 0
1, 65040, Note_on_c, 0, 72, 80
1, 65148, Note_on_c, 0, 72, 0
1, 65160, Note_on_c, 0, 74, 80
1, 65268, Note_on_c, 0, 74, 0
1, 65280, Note_on_c, 0, 76, 80
1, 65388, Note_on_c, 0, 76, 0
1, 65400, Note_on_c, 0, 77, 80
1, 65508, Note_on_c, 0, 77, 0
1, 65520, Note_on_c, 0, 79, 80
1, 65628, Note_on_c, 0, 79, 0
1, 65640, Note_on_c, 0, 77, 80
1, 65748, Note_on_c, 0, 77, 0
1, 65760, Note_on_c, 0, 76, 80
1, 65868, Note_on_c, 0, 76, 0
1, 65880, Note_on_c, 0, 77, 80
1, 65988, Note_on_c, 0, 77, 0
1, 66000, Note_on_c, 0, 79, 80
1, 66108, Note_on_c, 0, 79, 0
1, 66120, Note_on_c, 0, 80, 80
1, 66228, Note_on_c, 0, 80, 0
1, 66240, Note_on_c, 0, 81, 80
1, 66240, Note_on_c, 1, 53, 80
1, 66348, Note_on_c, 0, 81, 0
1, 66360, Note_on_c, 0, 83, 80
1, 66456, Note_on_c, 1, 53, 0
1, 66468, Note_on_c, 0, 83, 0
1, 66480, Note_on_c, 0, 81, 80
1, 66480, Note_on_c, 1, 65, 80
1, 66588, Note_on_c, 0, 81, 0
1, 66600, Note_on_c, 0, 79, 80
1, 66696, Note_on_c, 1, 65, 0
1, 66708, Note_on_c, 0, 79, 0
1, 66720, Note_on_c, 0, 77, 80
1, 66828, Note_on_c, 0, 77, 0
1, 66840, Note_on_c, 0, 76, 80
1, 66948, Note_on_c, 0, 76, 0
1, 66960, Note_on_c, 0, 74, 80
1, 66960, Note_on_c, 1, 47, 80
1, 67068, Note_on_c, 0, 74, 0
1, 67080, Note_on_c, 0, 85, 80
1, 67176, Note_on_c, 1, 47, 0
1, 67188, Note_on_c, 0, 85, 0
1, 67200, Note_on_c, 0, 86, 80
1, 67200, Note_on_c, 1, 59, 80
1, 67308, Note_on_c, 0, 86, 0
1, 67320, Note_on_c, 0, 84, 80
1, 67416, Note_on_c, 1, 59, 0
1, 67428, Note_on_c, 0, 84, 0
1, 67440, Note_on_c, 0, 83, 80
1, 67548, Note_on_c, 0, 83, 0
1, 67560, Note_on_c, 0, 81, 80
1, 67668, Note_on_c, 0, 81, 0
1, 67680, Note_on_c, 0, 79, 80
1, 67680, Note_on_c, 1, 52, 80
1, 67788, Note_on_c, 0, 79, 0
1, 67800, Note_on_c, 0, 81, 80
1, 67896, Note_on_c, 1, 52, 0
1, 67908, Note_on_c, 0, 81, 0
1, 67920, Note_on_c, 0, 79, 80
1, 67920, Note_on_c, 1, 64, 80
1, 68028, Note_on_c, 0, 79, 0
1, 68040, Note_on_c, 0, 77, 80
1, 68136, Note_on_c, 1, 64, 0
1, 68148, Note_on_c, 0, 77, 0
1, 68160, Note_on_c, 0, 76, 80
1, 68268, Note_on_c, 0, 76, 0
1, 68280, Note_on_c, 0, 74, 80
1, 68388, Note_on_c, 0, 74, 0
1, 68400, Note_on_c, 0, 72, 80
1, 68400, Note_on_c, 1, 45, 80
1, 68508, Note_on_c, 0, 72, 0
1, 68520, Note_on_c, 0, 83, 80
1, 68616, Note_on_c, 1, 45, 0
1, 68628, Note_on_c, 0, 83, 0
1, 68640, Note_on_c, 0, 84, 80
1, 68640, Note_on_c, 1, 57, 80
1, 68748, Note_on_c, 0, 84, 0
1, 68760, Note_on_c, 0, 83, 80
1, 68856, Note_on_c, 1, 57, 0
1, 68868, Note_on_c, 0, 83, 0
1, 68880, Note_on_c, 0, 81, 80
1, 68988, Note_on_c, 0, 81, 0
1, 69000, Note_on_c, 0, 79, 80
1, 69108, Note_on_c, 0, 79, 0
1, 69120, Note_on_c, 0, 77, 80
1, 69120, Note_on_c, 1, 50, 80
1, 69228, Note_on_c, 0, 77, 0
1, 69240, Note_on_c, 0, 85, 80
1, 69336, Note_on_c, 1, 50, 0
1, 69348, Note_on_c, 0, 85, 0
1, 69360, Note_on_c, 0, 86, 80
1, 69468, Note_on_c, 0, 86, 0
1, 69480, Note_on_c, 0, 83, 80
1, 69588, Note_on_c, 0, 83, 0
1, 69600, Note_on_c, 0, 79, 80
1, 69600, Note_on_c, 1, 59, 80
1, 69708, Note_on_c, 0, 79, 0
1, 69720, Note_on_c, 0, 77, 80
1, 69816, Note_on_c, 1, 59, 0
1, 69828, Note_on_c, 0, 77, 0
1, 69840, Note_on_c, 0, 76, 80
1, 69840, Note_on_c, 1, 60, 80
1, 69948, Note_on_c, 0, 76, 0
1, 69960, Note_on_c, 0, 82, 80
1, 70056, Note_on_c, 1, 60, 0
1, 70068, Note_on_c, 0, 82, 0
1, 70080, Note_on_c, 0, 84, 80
1, 70188, Note_on_c, 0, 84, 0
1, 70200, Note_on_c, 0, 79, 80
1, 70308, Note_on_c, 0, 79, 0
1, 70320, Note_on_c, 0, 77, 80
1, 70320, Note_on_c, 1, 48, 80
1, 70428, Note_on_c, 0, 77, 0
1, 70440, Note_on_c, 0, 76, 80
1, 70536, Note_on_c, 1, 48, 0
1, 70548, Note_on_c, 0, 76, 0
1, 70560, Note_on_c, 0, 74, 80
1, 70560, Note_on_c, 1, 55, 80
1, 70668, Note_on_c, 0, 74, 0
1, 70680, Note_on_c, 0, 76, 80
1, 70776, Note_on_c, 1, 55, 0
1, 70788, Note_on_c, 0, 76, 0
1, 70800, Note_on_c, 0, 74, 80
1, 70908, Note_on_c, 0, 74, 0
1, 70920, Note_on_c, 0, 72, 80
1, 71028, Note_on_c, 0, 72, 0
1, 71040, Note_on_c, 0, 71, 80
1, 71148, Note_on_c, 0, 71, 0
1, 71160, Note_on_c, 0, 69, 80
1, 71268, Note_on_c, 0, 69, 0
1, 71280, Note_on_c, 0, 67, 80
1, 71388, Note_on_c, 0, 67, 0
1, 71400, Note_on_c, 1, 69, 80
1, 71508, Note_on_c, 1, 69, 0
1, 71520, Note_on_c, 1, 67, 80
1, 71628, Note_on_c, 1, 67, 0
1, 71640, Note_on_c, 1, 65, 80
1, 71748, Note_on_c, 1, 65, 0
1, 71760, Note_on_c, 1, 64, 80
1, 71868, Note_on_c, 1, 64, 0
1, 71880, Note_on_c, 1, 62, 80
1, 71988, Note_on_c, 1, 62, 0
1, 72000, Note_on_c, 0, 75, 80
1, 72000, Note_on_c, 1, 60, 80
1, 72216, Note_on_c, 1, 60, 0
1, 72240, Note_on_c, 1, 63, 80
1, 72456, Note_on_c, 1, 63, 0
1, 72480, Note_on_c, 1, 67, 80
1, 72648, Note_on_c, 0, 75, 0
1, 72696, Note_on_c, 1, 67, 0
1, 72720, Note_on_c, 0, 75, 80
1, 72720, Note_on_c, 1, 60, 80
1, 72936, Note_on_c, 0, 75, 0
1, 72936, Note_on_c, 1, 60, 0
1, 72960, Note_on_c, 0, 74, 80
1, 72960, Note_on_c, 1, 63, 80
1, 73176, Note_on_c, 0, 74, 0
1, 73176, Note_on_c, 1, 63, 0
1, 73200, Note_on_c, 0, 72, 80
1, 73200, Note_on_c, 1, 67, 80
1, 73416, Note_on_c, 0, 72, 0
1, 73416, Note_on_c, 1, 67, 0
1, 73440, Note_on_c, 0, 78, 80
1, 73440, Note_on_c, 1, 59, 80
1, 73656, Note_on_c, 1, 59, 0
1, 73680, Note_on_c, 1, 62, 80
1, 73872, Note_on_c, 0, 78, 0
1, 73896, Note_on_c, 1, 62, 0
1, 73920, Note_on_c, 0, 79, 80
1, 73920, Note_on_c, 1, 67, 80
1, 74136, Note_on_c, 0, 79, 0
1, 74136, Note_on_c, 1, 67, 0
1, 74160, Note_on_c, 0, 74, 80
1, 74160, Note_on_c, 1, 59, 80
1, 74376, Note_on_c, 1, 59, 0
1, 74400, Note_on_c, 1, 62, 80
1, 74592, Note_on_c, 0, 74, 0
1, 74616, Note_on_c, 1, 62, 0
1, 74640, Note_on_c, 1, 67, 80
1, 74856, Note_on_c, 1, 67, 0
1, 74880, Note_on_c, 0, 80, 80
1, 74880, Note_on_c, 1, 59, 80
1, 75096, Note_on_c, 1, 59, 0
1, 75120, Note_on_c, 1, 62, 80
1, 75336, Note_on_c, 1, 62, 0
1, 75360, Note_on_c, 1, 65, 80
1, 75528, Note_on_c, 0, 80, 0
1, 75576, Note_on_c, 1, 65, 0
1, 75600, Note_on_c, 0, 80, 80
1, 75600, Note_on_c, 1, 59, 80
1, 75816, Note_on_c, 0, 80, 0
1, 75816, Note_on_c, 1, 59, 0
1, 75840, Note_on_c, 0, 79, 80
1, 75840, Note_on_c, 1, 62, 80
1, 76056, Note_on_c, 0, 79, 0
1, 76056, Note_on_c, 1, 62, 0
1, 76080, Note_on_c, 0, 77, 80
1, 76080, Note_on_c, 1, 67, 80
1, 76296, Note_on_c, 0, 77, 0
1, 76296, Note_on_c, 1, 67, 0
1, 76320, Note_on_c, 0, 75, 80
1, 76320, Note_on_c, 1, 60, 80
1, 76536, Note_on_c, 0, 75, 0
1, 76536, Note_on_c, 1, 60, 0
1, 76560, Note_on_c, 0, 77, 80
1, 76560, Note_on_c, 1, 63, 80
1, 76632, Note_on_c, 0, 77, 0
1, 76640, Note_on_c, 0, 75, 80
1, 76712, Note_on_c, 0, 75, 0
1, 76720, Note_on_c, 0, 74, 80
1, 76776, Note_on_c, 1, 63, 0
1, 76792, Note_on_c, 0, 74, 0
1, 76800, Note_on_c, 0, 75, 80
1, 76800, Note_on_c, 1, 67, 80
1, 76908, Note_on_c, 0, 75, 0
1, 76920, Note_on_c, 0, 77, 80
1, 77016, Note_on_c, 1, 67, 0
1, 77028, Note_on_c, 0, 77, 0
1, 77040, Note_on_c, 0, 79, 80
1, 77040, Note_on_c, 1, 60, 80
1, 77256, Note_on_c, 1, 60, 0
1, 77280, Note_on_c, 1, 63, 80
1, 77472, Note_on_c, 0, 79, 0
1, 77496, Note_on_c, 1, 63, 0
1, 77520, Note_on_c, 1, 67, 80
1, 77736, Note_on_c, 1, 67, 0
1, 77760, Note_on_c, 0, 84, 80
1, 77760, Note_on_c, 1, 63, 80
1, 77976, Note_on_c, 1, 63, 0
1, 78000, Note_on_c, 1, 67, 80
1, 78216, Note_on_c, 1, 67, 0
1, 78240, Note_on_c, 1, 72, 80
1, 78408, Note_on_c, 0, 84, 0
1, 78456, Note_on_c, 1, 72, 0
1, 78480, Note_on_c, 0, 82, 80
1, 78480, Note_on_c, 1, 62, 80
1, 78696, Note_on_c, 1, 62, 0
1, 78720, Note_on_c, 1, 65, 80
1, 78912, Note_on_c, 0, 82, 0
1, 78936, Note_on_c, 1, 65, 0
1, 78960, Note_on_c, 0, 84, 80
1, 78960, Note_on_c, 1, 70, 80
1, 79176, Note_on_c, 0, 84, 0
1, 79176, Note_on_c, 1, 70, 0
1, 79200, Note_on_c, 0, 82, 80
1, 79200, Note_on_c, 1, 60, 80
1, 79416, Note_on_c, 1, 60, 0
1, 79440, Note_on_c, 1, 63, 80
1, 79632, Note_on_c, 0, 82, 0
1, 79656, Note_on_c, 1, 63, 0
1, 79680, Note_on_c, 0, 80, 80
1, 79680, Note_on_c, 1, 68, 80
1, 79896, Note_on_c, 0, 80, 0
1, 79896, Note_on_c, 1, 68, 0
1, 79920, Note_on_c, 0, 79, 80
1, 79920, Note_on_c, 1, 58, 80
1, 80136, Note_on_c, 1, 58, 0
1, 80160, Note_on_c, 1, 62, 80
1, 80376, Note_on_c, 1, 62, 0
1, 80400, Note_on_c, 1, 67, 80
1, 80568, Note_on_c, 0, 79, 0
1, 80616, Note_on_c, 1, 67, 0
1, 80640, Note_on_c, 0, 77, 80
1, 80640, Note_on_c, 1, 56, 80
1, 80856, Note_on_c, 1, 56, 0
1, 80880, Note_on_c, 1, 60, 80
1, 81072, Note_on_c, 0, 77, 0
1, 81096, Note_on_c, 1, 60, 0
1, 81120, Note_on_c, 0, 75, 80
1, 81120, Note_on_c, 1, 65, 80
1, 81336, Note_on_c, 0, 75, 0
1, 81336, Note_on_c, 1, 65, 0
1, 81360, Note_on_c, 0, 74, 80
1, 81360, Note_on_c, 1, 56, 80
1, 81576, Note_on_c, 1, 56, 0
1, 81600, Note_on_c, 1, 60, 80
1, 81792, Note_on_c, 0, 74, 0
1, 81816, Note_on_c, 1, 60, 0
1, 81840, Note_on_c, 0, 72, 80
1, 81840, Note_on_c, 1, 66, 80
1, 82056, Note_on_c, 0, 72, 0
1, 82056, Note_on_c, 1, 66, 0
1, 82080, Note_on_c, 0, 75, 80
1, 82080, Note_on_c, 1, 55, 80
1, 82296, Note_on_c, 1, 55, 0
1, 82320, Note_on_c, 1, 60, 80
1, 82536, Note_on_c, 1, 60, 0
1, 82560, Note_on_c, 1, 67, 80
1, 82728, Note_on_c, 0, 75, 0
1, 82776, Note_on_c, 1, 67, 0
1, 82800, Note_on_c, 0, 74, 80
1, 82800, Note_on_c, 1, 55, 80
1, 83016, Note_on_c, 0, 74, 0
1, 83016, Note_on_c, 1, 55, 0
1, 83040, Note_on_c, 1, 59, 80
1, 83256, Note_on_c, 1, 59, 0
1, 83280, Note_on_c, 1, 67, 80
1, 83496, Note_on_c, 1, 67, 0
1, 83520, Note_on_c, 0, 75, 80
1, 83520, Note_on_c, 1, 60, 80
1, 83736, Note_on_c, 1, 60, 0
1, 83760, Note_on_c, 1, 63, 80
1, 83976, Note_on_c, 1, 63, 0
1, 84000, Note_on_c, 1, 67, 80
1, 84168, Note_on_c, 0, 75, 0
1, 84216, Note_on_c, 1, 67, 0
1, 84240, Note_on_c, 0, 75, 80
1, 84240, Note_on_c, 1, 60, 80
1, 84456, Note_on_c, 0, 75, 0
1, 84456, Note_on_c, 1, 60, 0
1, 84480, Note_on_c, 0, 74, 80
1, 84480, Note_on_c, 1, 63, 80
1, 84696, Note_on_c, 0, 74, 0
1, 84696, Note_on_c, 1, 63, 0
1, 84720, Note_on_c, 0, 72, 80
1, 84720, Note_on_c, 1, 67, 80
1, 84936, Note_on_c, 0, 72, 0
1, 84936, Note_on_c, 1, 67, 0
1, 84960, Note_on_c, 0, 78, 80
1, 84960, Note_on_c, 1, 59, 80
1, 85176, Note_on_c, 1, 59, 0
1, 85200, Note_on_c, 1, 62, 80
1, 85392, Note_on_c, 0, 78, 0
1, 85416, Note_on_c, 1, 62, 0
1, 85440, Note_on_c, 0, 79, 80
1, 85440, Note_on_c, 1, 67, 80
1, 85656, Note_on_c, 0, 79, 0
1, 85656, Note_on_c, 1, 67, 0
1, 85680, Note_on_c, 0, 74, 80
1, 85680, Note_on_c, 1, 59, 80
1, 85896, Note_on_c, 1, 59, 0
1, 85920, Note_on_c, 1, 62, 80
1, 86112, Note_on_c, 0, 74, 0
1, 86136, Note_on_c, 1, 62, 0
1, 86160, Note_on_c, 1, 67, 80
1, 86376, Note_on_c, 1, 67, 0
1, 86400, Note_on_c, 0, 80, 80
1, 86400, Note_on_c, 1, 59, 80
1, 86616, Note_on_c, 1, 59, 0
1, 86640, Note_on_c, 1, 62, 80
1, 86856, Note_on_c, 1, 62, 0
1, 86880, Note_on_c, 1, 65, 80
1, 87048, Note_on_c, 0, 80, 0
1, 87096, Note_on_c, 1, 65, 0
1, 87120, Note_on_c, 0, 80, 80
1, 87120, Note_on_c, 1, 59, 80
1, 87336, Note_on_c, 0, 80, 0
1, 87336, Note_on_c, 1, 59, 0
1, 87360, Note_on_c, 0, 79, 80
1, 87360, Note_on_c, 1, 62, 80
1, 87576, Note_on_c, 0, 79, 0
1, 87576, Note_on_c, 1, 62, 0
1, 87600, Note_on_c, 0, 77, 80
1, 87600, Note_on_c, 1, 67, 80
1, 87816, Note_on_c, 0, 77, 0
1, 87816, Note_on_c, 1, 67, 0
1, 87840, Note_on_c, 0, 76, 80
1, 87840, Note_on_c, 1, 58, 80
1, 88056, Note_on_c, 1, 58, 0
1, 88080, Note_on_c, 1, 61, 80
1, 88272, Note_on_c, 0, 76, 0
1, 88296, Note_on_c, 1, 61, 0
1, 88320, Note_on_c, 0, 77, 80
1, 88320, Note_on_c, 1, 67, 80
1, 88428, Note_on_c, 0, 77, 0
1, 88440, Note_on_c, 0, 79, 80
1, 88536, Note_on_c, 1, 67, 0
1, 88548, Note_on_c, 0, 79, 0
1, 88560, Note_on_c, 0, 77, 80
1, 88560, Note_on_c, 1, 57, 80
1, 88776, Note_on_c, 1, 57, 0
1, 88800, Note_on_c, 1, 60, 80
1, 88992, Note_on_c, 0, 77, 0
1, 89016, Note_on_c, 1, 60, 0
1, 89040, Note_on_c, 1, 65, 80
1, 89256, Note_on_c, 1, 65, 0
1, 89280, Note_on_c, 0, 87, 80
1, 89280, Note_on_c, 1, 56, 80
1, 89496, Note_on_c, 1, 56, 0
1, 89520, Note_on_c, 1, 60, 80
1, 89736, Note_on_c, 1, 60, 0
1, 89760, Note_on_c, 1, 66, 80
1, 89928, Note_on_c, 0, 87, 0
1, 89976, Note_on_c, 1, 66, 0
1, 90000, Note_on_c, 0, 87, 80
1, 90000, Note_on_c, 1, 55, 80
1, 90216, Note_on_c, 0, 87, 0
1, 90216, Note_on_c, 1, 55, 0
1, 90240, Note_on_c, 0, 86, 80
1, 90240, Note_on_c, 1, 60, 80
1, 90456, Note_on_c, 0, 86, 0
1, 90456, Note_on_c, 1, 60, 0
1, 90480, Note_on_c, 0, 84, 80
1, 90480, Note_on_c, 1, 67, 80
1, 90696, Note_on_c, 0, 84, 0
1, 90696, Note_on_c, 1, 67, 0
1, 90720, Note_on_c, 0, 83, 80
1, 90720, Note_on_c, 1, 53, 80
1, 90936, Note_on_c, 1, 53, 0
1, 90960, Note_on_c, 1, 56, 80
1, 91176, Note_on_c, 1, 56, 0
1, 91200, Note_on_c, 1, 62, 80
1, 91368, Note_on_c, 0, 83, 0
1, 91416, Note_on_c, 1, 62, 0
1, 91440, Note_on_c, 0, 84, 80
1, 91440, Note_on_c, 1, 51, 80
1, 91656, Note_on_c, 1, 51, 0
1, 91680, Note_on_c, 1, 60, 80
1, 91872, Note_on_c, 0, 84, 0
1, 91896, Note_on_c, 1, 60, 0
1, 91920, Note_on_c, 0, 80, 80
1, 91920, Note_on_c, 1, 53, 80
1, 92136, Note_on_c, 0, 80, 0
1, 92136, Note_on_c, 1, 53, 0
1, 92160, Note_on_c, 0, 72, 80
1, 92160, Note_on_c, 1, 55, 80
1, 92376, Note_on_c, 1, 55, 0
1, 92400, Note_on_c, 1, 60, 80
1, 92616, Note_on_c, 1, 60, 0
1, 92640, Note_on_c, 1, 63, 80
1, 92808, Note_on_c, 0, 72, 0
1, 92820, Note_on_c, 0, 75, 80
1, 92856, Note_on_c, 1, 63, 0
1, 92874, Note_on_c, 0, 75, 0
1, 92880, Note_on_c, 0, 71, 80
1, 92880, Note_on_c, 0, 74, 80
1, 92880, Note_on_c, 1, 55, 80
1, 93096, Note_on_c, 1, 55, 0
1, 93120, Note_on_c, 1, 62, 80
1, 93336, Note_on_c, 1, 62, 0
1, 93360, Note_on_c, 1, 65, 80
1, 93528, Note_on_c, 0, 71, 0
1, 93528, Note_on_c, 0, 74, 0
1, 93576, Note_on_c, 1, 65, 0
1, 93600, Note_on_c, 0, 72, 80
1, 93600, Note_on_c, 1, 60, 80
1, 93600, Note_on_c, 1, 64, 80
1, 93708, Note_on_c, 0, 72, 0
1, 93720, Note_on_c, 0, 79, 80
1, 93828, Note_on_c, 0, 79, 0
1, 93840, Note_on_c, 0, 78, 80
1, 93948, Note_on_c, 0, 78, 0
1, 93960, Note_on_c, 0, 79, 80
1, 94032, Note_on_c, 1, 60, 0
1, 94032, Note_on_c, 1, 64, 0
1, 94068, Note_on_c, 0, 79, 0
1, 94080, Note_on_c, 0, 81, 80
1, 94188, Note_on_c, 0, 81, 0
1, 94200, Note_on_c, 0, 79, 80
1, 94308, Note_on_c, 0, 79, 0
1, 94320, Note_on_c, 0, 77, 80
1, 94320, Note_on_c, 1, 62, 80
1, 94428, Note_on_c, 0, 77, 0
1, 94440, Note_on_c, 0, 79, 80
1, 94536, Note_on_c, 1, 62, 0
1, 94548, Note_on_c, 0, 79, 0
1, 94560, Note_on_c, 0, 77, 80
1, 94560, Note_on_c, 1, 59, 80
1, 94668, Note_on_c, 0, 77, 0
1, 94680, Note_on_c, 0, 79, 80
1, 94776, Note_on_c, 1, 59, 0
1, 94788, Note_on_c, 0, 79, 0
1, 94800, Note_on_c, 0, 77, 80
1, 94800, Note_on_c, 1, 55, 80
1, 94908, Note_on_c, 0, 77, 0
1, 94920, Note_on_c, 0, 79, 80
1, 95016, Note_on_c, 1, 55, 0
1, 95028, Note_on_c, 0, 79, 0
1, 95040, Note_on_c, 0, 76, 80
1, 95040, Note_on_c, 1, 60, 80
1, 95148, Note_on_c, 0, 76, 0
1, 95160, Note_on_c, 0, 79, 80
1, 95268, Note_on_c, 0, 79, 0
1, 95280, Note_on_c, 0, 78, 80
1, 95388, Note_on_c, 0, 78, 0
1, 95400, Note_on_c, 0, 79, 80
1, 95472, Note_on_c, 1, 60, 0
1, 95508, Note_on_c, 0, 79, 0
1, 95520, Note_on_c, 0, 84, 80
1, 95628, Note_on_c, 0, 84, 0
1, 95640, Note_on_c, 0, 79, 80
1, 95748, Note_on_c, 0, 79, 0
1, 95760, Note_on_c, 0, 77, 80
1, 95760, Note_on_c, 1, 62, 80
1, 95868, Note_on_c, 0, 77, 0
1, 95880, Note_on_c, 0, 79, 80
1, 95976, Note_on_c, 1, 62, 0
1, 95988, Note_on_c, 0, 79, 0
1, 96000, Note_on_c, 0, 77, 80
1, 96000, Note_on_c, 1, 59, 80
1, 96108, Note_on_c, 0, 77, 0
1, 96120, Note_on_c, 0, 79, 80
1, 96216, Note_on_c, 1, 59, 0
1, 96228, Note_on_c, 0, 79, 0
1, 96240, Note_on_c, 0, 77, 80
1, 96240, Note_on_c, 1, 55, 80
1, 96348, Note_on_c, 0, 77, 0
1, 96360, Note_on_c, 0, 79, 80
1, 96456, Note_on_c, 1, 55, 0
1, 96468, Note_on_c, 0, 79, 0
1, 96480, Note_on_c, 0, 76, 80
1, 96480, Note_on_c, 1, 60, 80
1, 96588, Note_on_c, 0, 76, 0
1, 96600, Note_on_c, 0, 79, 80
1, 96708, Note_on_c, 0, 79, 0
1, 96720, Note_on_c, 0, 78, 80
1, 96828, Note_on_c, 0, 78, 0
1, 96840, Note_on_c, 0, 79, 80
1, 96912, Note_on_c, 1, 60, 0
1, 96948, Note_on_c, 0, 79, 0
1, 96960, Note_on_c, 0, 84, 80
1, 97068, Note_on_c, 0, 84, 0
1, 97080, Note_on_c, 0, 79, 80
1, 97188, Note_on_c, 0, 79, 0
1, 97200, Note_on_c, 0, 77, 80
1, 97200, Note_on_c, 1, 62, 80
1, 97308, Note_on_c, 0, 77, 0
1, 97320, Note_on_c, 0, 79, 80
1, 97416, Note_on_c, 1, 62, 0
1, 97428, Note_on_c, 0, 79, 0
1, 97440, Note_on_c, 0, 77, 80
1, 97440, Note_on_c, 1, 59, 80
1, 97548, Note_on_c, 0, 77, 0
1, 97560, Note_on_c, 0, 79, 80
1, 97656, Note_on_c, 1, 59, 0
1, 97668, Note_on_c, 0, 79, 0
1, 97680, Note_on_c, 0, 77, 80
1, 97680, Note_on_c, 1, 55, 80
1, 97788, Note_on_c, 0, 77, 0
1, 97800, Note_on_c, 0, 79, 80
1, 97896, Note_on_c, 1, 55, 0
1, 97908, Note_on_c, 0, 79, 0
1, 97920, Note_on_c, 0, 76, 80
1, 97920, Note_on_c, 1, 60, 80
1, 98028, Note_on_c, 0, 76, 0
1, 98040, Note_on_c, 0, 79, 80
1, 98148, Note_on_c, 0, 79, 0
1, 98160, Note_on_c, 0, 84, 80
1, 98268, Note_on_c, 0, 84, 0
1, 98280, Note_on_c, 0, 76, 80
1, 98352, Note_on_c, 1, 60, 0
1, 98388, Note_on_c, 0, 76, 0
1, 98400, Note_on_c, 0, 74, 80
1, 98508, Note_on_c, 0, 74, 0
1, 98520, Note_on_c, 0, 83, 80
1, 98628, Note_on_c, 0, 83, 0
1, 98640, Note_on_c, 0, 72, 80
1, 98748, Note_on_c, 0, 72, 0
1, 98760, Note_on_c, 0, 81, 80
1, 98868, Note_on_c, 0, 81, 0
1, 98880, Note_on_c, 0, 71, 80
1, 98988, Note_on_c, 0, 71, 0
1, 99000, Note_on_c, 0, 79, 80
1, 99108, Note_on_c, 0, 79, 0
1, 99120, Note_on_c, 0, 69, 80
1, 99228, Note_on_c, 0, 69, 0
1, 99240, Note_on_c, 0, 77, 80
1, 99348, Note_on_c, 0, 77, 0
1, 99360, Note_on_c, 0, 67, 80
1, 99468, Note_on_c, 0, 67, 0
1, 99480, Note_on_c, 0, 76, 80
1, 99588, Note_on_c, 0, 76, 0
1, 99600, Note_on_c, 0, 65, 80
1, 99708, Note_on_c, 0, 65, 0
1, 99720, Note_on_c, 0, 74, 80
1, 99828, Note_on_c, 0, 74, 0
1, 99840, Note_on_c, 0, 64, 80
1, 99948, Note_on_c, 0, 64, 0
1, 99960, Note_on_c, 0, 72, 80
1, 100068, Note_on_c, 0, 72, 0
1, 100080, Note_on_c, 0, 62, 80
1, 100188, Note_on_c, 0, 62, 0
1, 100200, Note_on_c, 0, 71, 80
1, 100308, Note_on_c, 0, 71, 0
1, 100320, Note_on_c, 0, 60, 80
1, 100428, Note_on_c, 0, 60, 0
1, 100440, Note_on_c, 0, 69, 80
1, 100548, Note_on_c, 0, 69, 0
1, 100560, Note_on_c, 0, 59, 80
1, 100668, Note_on_c, 0, 59, 0
1, 100680, Note_on_c, 0, 67, 80
1, 100788, Note_on_c, 0, 67, 0
1, 100800, Note_on_c, 0, 66, 80
1, 100800, Note_on_c, 0, 57, 80
1, 101040, Note_on_c, 1, 45, 80
1, 101256, Note_on_c, 1, 45, 0
1, 101280, Note_on_c, 1, 48, 80
1, 101448, Note_on_c, 0, 66, 0
1, 101448, Note_on_c, 0, 57, 0
1, 101496, Note_on_c, 1, 48, 0
1, 101520, Note_on_c, 0, 56, 80
1, 101520, Note_on_c, 0, 65, 80
1, 101520, Note_on_c, 1, 51, 80
1, 101736, Note_on_c, 1, 51, 0
1, 101760, Note_on_c, 1, 50, 80
1, 101976, Note_on_c, 1, 50, 0
1, 102000, Note_on_c, 1, 48, 80
1, 102168, Note_on_c, 0, 56, 0
1, 102168, Note_on_c, 0, 65, 0
1, 102216, Note_on_c, 1, 48, 0
1, 102240, Note_on_c, 0, 77, 80
1, 102240, Note_on_c, 0, 68, 80
1, 102240, Note_on_c, 1, 48, 80
1, 102456, Note_on_c, 1, 48, 0
1, 102480, Note_on_c, 1, 47, 80
1, 102696, Note_on_c, 1, 47, 0
1, 102720, Note_on_c, 1, 50, 80
1, 102888, Note_on_c, 0, 77, 0
1, 102888, Note_on_c, 0, 68, 0
1, 102936, Note_on_c, 1, 50, 0
1, 102960, Note_on_c, 0, 62, 80
1, 102960, Note_on_c, 0, 71, 80
1, 102960, Note_on_c, 1, 56, 80
1, 103176, Note_on_c, 1, 56, 0
1, 103200, Note_on_c, 1, 55, 80
1, 103416, Note_on_c, 1, 55, 0
1, 103440, Note_on_c, 1, 53, 80
1, 103608, Note_on_c, 0, 62, 0
1, 103608, Note_on_c, 0, 71, 0
1, 103656, Note_on_c, 1, 53, 0
1, 103680, Note_on_c, 1, 52, 80
1, 103896, Note_on_c, 1, 52, 0
1, 103920, Note_on_c, 0, 79, 80
1, 104136, Note_on_c, 0, 79, 0
1, 104160, Note_on_c, 0, 79, 80
1, 104376, Note_on_c, 0, 79, 0
1, 104400, Note_on_c, 1, 53, 80
1, 104616, Note_on_c, 1, 53, 0
1, 104640, Note_on_c, 0, 81, 80
1, 104856, Note_on_c, 0, 81, 0
1, 104880, Note_on_c, 0, 81, 80
1, 105096, Note_on_c, 0, 81, 0
1, 105120, Note_on_c, 0, 72, 80
1, 105120, Note_on_c, 0, 67, 80
1, 105120, Note_on_c, 1, 64, 80
1, 105120, Note_on_c, 1, 55, 80
1, 105768, Note_on_c, 0, 72, 0
1, 105768, Note_on_c, 0, 67, 0
1, 105768, Note_on_c, 1, 64, 0
1, 105780, Note_on_c, 0, 76, 80
1, 105834, Note_on_c, 0, 76, 0
1, 105840, Note_on_c, 0, 71, 80
1, 105840, Note_on_c, 0, 74, 80
1, 105840, Note_on_c, 1, 65, 80
1, 106416, Note_on_c, 1, 55, 0
1, 106488, Note_on_c, 0, 71, 0
1, 106488, Note_on_c, 0, 74, 0
1, 106488, Note_on_c, 1, 65, 0
1, 106560, Note_on_c, 0, 72, 80
1, 106560, Note_on_c, 1, 60, 80
1, 106560, Note_on_c, 1, 64, 80
1, 106668, Note_on_c, 0, 72, 0
1, 106680, Note_on_c, 0, 79, 80
1, 106788, Note_on_c, 0, 79, 0
1, 106800, Note_on_c, 0, 78, 80
1, 106908, Note_on_c, 0, 78, 0
1, 106920, Note_on_c, 0, 79, 80
1, 106992, Note_on_c, 1, 60, 0
1, 106992, Note_on_c, 1, 64, 0
1, 107028, Note_on_c, 0, 79, 0
1, 107040, Note_on_c, 0, 81, 80
1, 107148, Note_on_c, 0, 81, 0
1, 107160, Note_on_c, 0, 79, 80
1, 107268, Note_on_c, 0, 79, 0
1, 107280, Note_on_c, 0, 77, 80
1, 107280, Note_on_c, 1, 62, 80
1, 107388, Note_on_c, 0, 77, 0
1, 107400, Note_on_c, 0, 79, 80
1, 107496, Note_on_c, 1, 62, 0
1, 107508, Note_on_c, 0, 79, 0
1, 107520, Note_on_c, 0, 77, 80
1, 107520, Note_on_c, 1, 59, 80
1, 107628, Note_on_c, 0, 77, 0
1, 107640, Note_on_c, 0, 79, 80
1, 107736, Note_on_c, 1, 59, 0
1, 107748, Note_on_c, 0, 79, 0
1, 107760, Note_on_c, 0, 77, 80
1, 107760, Note_on_c, 1, 55, 80
1, 107868, Note_on_c, 0, 77, 0
1, 107880, Note_on_c, 0, 79, 80
1, 107976, Note_on_c, 1, 55, 0
1, 107988, Note_on_c, 0, 79, 0
1, 108000, Note_on_c, 0, 76, 80
1, 108000, Note_on_c, 1, 60, 80
1, 108108, Note_on_c, 0, 76, 0
1, 108120, Note_on_c, 0, 79, 80
1, 108228, Note_on_c, 0, 79, 0
1, 108240, Note_on_c, 0, 78, 80
1, 108348, Note_on_c, 0, 78, 0
1, 108360, Note_on_c, 0, 79, 80
1, 108432, Note_on_c, 1, 60, 0
1, 108468, Note_on_c, 0, 79, 0
1, 108480, Note_on_c, 0, 84, 80
1, 108588, Note_on_c, 0, 84, 0
1, 108600, Note_on_c, 0, 79, 80
1, 108708, Note_on_c, 0, 79, 0
1, 108720, Note_on_c, 0, 77, 80
1, 108720, Note_on_c, 1, 62, 80
1, 108828, Note_on_c, 0, 77, 0
1, 108840, Note_on_c, 0, 79, 80
1, 108936, Note_on_c, 1, 62, 0
1, 108948, Note_on_c, 0, 79, 0
1, 108960, Note_on_c, 0, 77, 80
1, 108960, Note_on_c, 1, 59, 80
1, 109068, Note_on_c, 0, 77, 0
1, 109080, Note_on_c, 0, 79, 80
1, 109176, Note_on_c, 1, 59, 0
1, 109188, Note_on_c, 0, 79, 0
1, 109200, Note_on_c, 0, 77, 80
1, 109200, Note_on_c, 1, 55, 80
1, 109308, Note_on_c, 0, 77, 0
1, 109320, Note_on_c, 0, 79, 80
1, 109416, Note_on_c, 1, 55, 0
1, 109428, Note_on_c, 0, 79, 0
1, 109440, Note_on_c, 0, 76, 80
1, 109440, Note_on_c, 1, 60, 80
1, 109548, Note_on_c, 0, 76, 0
1, 109560, Note_on_c, 0, 79, 80
1, 109668, Note_on_c, 0, 79, 0
1, 109680, Note_on_c, 0, 78, 80
1, 109788, Note_on_c, 0, 78, 0
1, 109800, Note_on_c, 0, 79, 80
1, 109872, Note_on_c, 1, 60, 0
1, 109908, Note_on_c, 0, 79, 0
1, 109920, Note_on_c, 0, 84, 80
1, 110028, Note_on_c, 0, 84, 0
1, 110040, Note_on_c, 0, 79, 80
1, 110148, Note_on_c, 0, 79, 0
1, 110160, Note_on_c, 0, 77, 80
1, 110160, Note_on_c, 1, 62, 80
1, 110268, Note_on_c, 0, 77, 0
1, 110280, Note_on_c, 0, 79, 80
1, 110376, Note_on_c, 1, 62, 0
1, 110388, Note_on_c, 0, 79, 0
1, 110400, Note_on_c, 0, 77, 80
1, 110400, Note_on_c, 1, 59, 80
1, 110508, Note_on_c, 0, 77, 0
1, 110520, Note_on_c, 0, 79, 80
1, 110616, Note_on_c, 1, 59, 0
1, 110628, Note_on_c, 0, 79, 0
1, 110640, Note_on_c, 0, 77, 80
1, 110640, Note_on_c, 1, 55, 80
1, 110748, Note_on_c, 0, 77, 0
1, 110760, Note_on_c, 0, 79, 80
1, 110856, Note_on_c, 1, 55, 0
1, 110868, Note_on_c, 0, 79, 0
1, 110880, Note_on_c, 0, 76, 80
1, 110880, Note_on_c, 1, 60, 80
1, 110988, Note_on_c, 0, 76, 0
1, 111000, Note_on_c, 0, 79, 80
1, 111108, Note_on_c, 0, 79, 0
1, 111120, Note_on_c, 0, 84, 80
1, 111228, Note_on_c, 0, 84, 0
1, 111240, Note_on_c, 0, 76, 80
1, 111312, Note_on_c, 1, 60, 0
1, 111348, Note_on_c, 0, 76, 0
1, 111360, Note_on_c, 0, 74, 80
1, 111468, Note_on_c, 0, 74, 0
1, 111480, Note_on_c, 0, 83, 80
1, 111588, Note_on_c, 0, 83, 0
1, 111600, Note_on_c, 0, 72, 80
1, 111708, Note_on_c, 0, 72, 0
1, 111720, Note_on_c, 0, 81, 80
1, 111828, Note_on_c, 0, 81, 0
1, 111840, Note_on_c, 0, 71, 80
1, 111948, Note_on_c, 0, 71, 0
1, 111960, Note_on_c, 0, 79, 80
1, 112068, Note_on_c, 0, 79, 0
1, 112080, Note_on_c, 0, 69, 80
1, 112188, Note_on_c, 0, 69, 0
1, 112200, Note_on_c, 0, 77, 80
1, 112308, Note_on_c, 0, 77, 0
1, 112320, Note_on_c, 0, 67, 80
1, 112428, Note_on_c, 0, 67, 0
1, 112440, Note_on_c, 0, 76, 80
1, 112548, Note_on_c, 0, 76, 0
1, 112560, Note_on_c, 0, 65, 80
1, 112668, Note_on_c, 0, 65, 0
1, 112680, Note_on_c, 0, 74, 80
1, 112788, Note_on_c, 0, 74, 0
1, 112800, Note_on_c, 0, 64, 80
1, 112908, Note_on_c, 0, 64, 0
1, 112920, Note_on_c, 0, 72, 80
1, 113028, Note_on_c, 0, 72, 0
1, 113040, Note_on_c, 0, 62, 80
1, 113148, Note_on_c, 0, 62, 0
1, 113160, Note_on_c, 0, 71, 80
1, 113268, Note_on_c, 0, 71, 0
1, 113280, Note_on_c, 0, 60, 80
1, 113388, Note_on_c, 0, 60, 0
1, 113400, Note_on_c, 0, 69, 80
1, 113508, Note_on_c, 0, 69, 0
1, 113520, Note_on_c, 0, 59, 80
1, 113628, Note_on_c, 0, 59, 0
1, 113640, Note_on_c, 0, 67, 80
1, 113748, Note_on_c, 0, 67, 0
1, 113760, Note_on_c, 0, 66, 80
1, 113760, Note_on_c, 0, 57, 80
1, 114000, Note_on_c, 1, 45, 80
1, 114216, Note_on_c, 1, 45, 0
1, 114240, Note_on_c, 1, 48, 80
1, 114408, Note_on_c, 0, 66, 0
1, 114408, Note_on_c, 0, 57, 0
1, 114456, Note_on_c, 1, 48, 0
1, 114480, Note_on_c, 0, 56, 80
1, 114480, Note_on_c, 0, 65, 80
1, 114480, Note_on_c, 1, 51, 80
1, 114696, Note_on_c, 1, 51, 0
1, 114720, Note_on_c, 1, 50, 80
1, 114936, Note_on_c, 1, 50, 0
1, 114960, Note_on_c, 1, 48, 80
1, 115128, Note_on_c, 0, 56, 0
1, 115128, Note_on_c, 0, 65, 0
1, 115176, Note_on_c, 1, 48, 0
1, 115200, Note_on_c, 0, 77, 80
1, 115200, Note_on_c, 0, 68, 80
1, 115200, Note_on_c, 1, 48, 80
1, 115416, Note_on_c, 1, 48, 0
1, 115440, Note_on_c, 1, 47, 80
1, 115656, Note_on_c, 1, 47, 0
1, 115680, Note_on_c, 1, 50, 80
1, 115848, Note_on_c, 0, 77, 0
1, 115848, Note_on_c, 0, 68, 0
1, 115896, Note_on_c, 1, 50, 0
1, 115920, Note_on_c, 0, 62, 80
1, 115920, Note_on_c, 0, 71, 80
1, 115920, Note_on_c, 1, 56, 80
1, 116136, Note_on_c, 1, 56, 0
1, 116160, Note_on_c, 1, 55, 80
1, 116376, Note_on_c, 1, 55, 0
1, 116400, Note_on_c, 1, 53, 80
1, 116568, Note_on_c, 0, 62, 0
1, 116568, Note_on_c, 0, 71, 0
1, 116616, Note_on_c, 1, 53, 0
1, 116640, Note_on_c, 1, 52, 80
1, 116856, Note_on_c, 1, 52, 0
1, 116880, Note_on_c, 0, 79, 80
1, 117096, Note_on_c, 0, 79, 0
1, 117120, Note_on_c, 0, 79, 80
1, 117336, Note_on_c, 0, 79, 0
1, 117360, Note_on_c, 1, 53, 80
1, 117576, Note_on_c, 1, 53, 0
1, 117600, Note_on_c, 0, 81, 80
1, 117816, Note_on_c, 0, 81, 0
1, 117840, Note_on_c, 0, 81, 80
1, 118056, Note_on_c, 0, 81, 0
1, 118080, Note_on_c, 0, 72, 80
1, 118080, Note_on_c, 0, 67, 80
1, 118080, Note_on_c, 1, 64, 80
1, 118080, Note_on_c, 1, 55, 80
1, 118728, Note_on_c, 0, 72, 0
1, 118728, Note_on_c, 1, 64, 0
1, 118728, Note_on_c, 1, 55, 0
1, 118800, Note_on_c, 0, 71, 80
1, 118800, Note_on_c, 1, 53, 80
1, 118800, Note_on_c, 1, 62, 80
1, 119376, Note_on_c, 0, 67, 0
1, 119448, Note_on_c, 0, 71, 0
1, 119448, Note_on_c, 1, 53, 0
1, 119448, Note_on_c, 1, 62, 0
1, 119520, Note_on_c, 0, 78, 80
1, 119520, Note_on_c, 1, 52, 80
1, 119628, Note_on_c, 0, 78, 0
1, 119640, Note_on_c, 0, 79, 80
1, 119736, Note_on_c, 1, 52, 0
1, 119748, Note_on_c, 0, 79, 0
1, 119760, Note_on_c, 0, 78, 80
1, 119760, Note_on_c, 1, 55, 80
1, 119868, Note_on_c, 0, 78, 0
1, 119880, Note_on_c, 0, 79, 80
1, 119976, Note_on_c, 1, 55, 0
1, 119988, Note_on_c, 0, 79, 0
1, 120000, Note_on_c, 0, 78, 80
1, 120000, Note_on_c, 1, 60, 80
1, 120108, Note_on_c, 0, 78, 0
1, 120120, Note_on_c, 0, 79, 80
1, 120216, Note_on_c, 1, 60, 0
1, 120228, Note_on_c, 0, 79, 0
1, 120240, Note_on_c, 0, 80, 80
1, 120240, Note_on_c, 1, 53, 80
1, 120348, Note_on_c, 0, 80, 0
1, 120360, Note_on_c, 0, 81, 80
1, 120456, Note_on_c, 1, 53, 0
1, 120468, Note_on_c, 0, 81, 0
1, 120480, Note_on_c, 0, 80, 80
1, 120480, Note_on_c, 1, 57, 80
1, 120588, Note_on_c, 0, 80, 0
1, 120600, Note_on_c, 0, 81, 80
1, 120696, Note_on_c, 1, 57, 0
1, 120708, Note_on_c, 0, 81, 0
1, 120720, Note_on_c, 0, 83, 80
1, 120720, Note_on_c, 1, 62, 80
1, 120828, Note_on_c, 0, 83, 0
1, 120840, Note_on_c, 0, 84, 80
1, 120936, Note_on_c, 1, 62, 0
1, 120948, Note_on_c, 0, 84, 0
1, 120960, Note_on_c, 0, 72, 80
1, 120960, Note_on_c, 1, 55, 80
1, 121176, Note_on_c, 1, 55, 0
1, 121200, Note_on_c, 1, 60, 80
1, 121416, Note_on_c, 1, 60, 0
1, 121440, Note_on_c, 1, 64, 80
1, 121608, Note_on_c, 0, 72, 0
1, 121620, Note_on_c, 0, 76, 80
1, 121656, Note_on_c, 1, 64, 0
1, 121674, Note_on_c, 0, 76, 0
1, 121680, Note_on_c, 0, 71, 80
1, 121680, Note_on_c, 0, 74, 80
1, 121680, Note_on_c, 1, 55, 80
1, 121896, Note_on_c, 1, 55, 0
1, 121920, Note_on_c, 1, 62, 80
1, 122112, Note_on_c, 0, 71, 0
1, 122112, Note_on_c, 0, 74, 0
1, 122136, Note_on_c, 1, 62, 0
1, 122160, Note_on_c, 0, 74, 80
1, 122160, Note_on_c, 1, 65, 80
1, 122268, Note_on_c, 0, 74, 0
1, 122280, Note_on_c, 0, 72, 80
1, 122376, Note_on_c, 1, 65, 0
1, 122388, Note_on_c, 0, 72, 0
1, 122400, Note_on_c, 0, 72, 80
1, 122400, Note_on_c, 1, 64, 80
1, 122400, Note_on_c, 1, 60, 80
1, 122508, Note_on_c, 0, 72, 0
1, 122520, Note_on_c, 0, 76, 80
1, 122628, Note_on_c, 0, 76, 0
1, 122640, Note_on_c, 0, 79, 80
1, 122748, Note_on_c, 0, 79, 0
1, 122760, Note_on_c, 0, 84, 80
1, 122832, Note_on_c, 1, 64, 0
1, 122832, Note_on_c, 1, 60, 0
1, 122868, Note_on_c, 0, 84, 0
1, 122880, Note_on_c, 0, 83, 80
1, 122988, Note_on_c, 0, 83, 0
1, 123000, Note_on_c, 0, 81, 80
1, 123108, Note_on_c, 0, 81, 0
1, 123120, Note_on_c, 0, 79, 80
1, 123120, Note_on_c, 1, 55, 80
1, 123120, Note_on_c, 1, 59, 80
1, 123120, Note_on_c, 1, 65, 80
1, 123228, Note_on_c, 0, 79, 0
1, 123240, Note_on_c, 0, 81, 80
1, 123348, Note_on_c, 0, 81, 0
1, 123360, Note_on_c, 0, 79, 80
1, 123468, Note_on_c, 0, 79, 0
1, 123480, Note_on_c, 0, 77, 80
1, 123552, Note_on_c, 1, 55, 0
1, 123552, Note_on_c, 1, 59, 0
1, 123552, Note_on_c, 1, 65, 0
1, 123588, Note_on_c, 0, 77, 0
1, 123600, Note_on_c, 0, 76, 80
1, 123708, Note_on_c, 0, 76, 0
1, 123720, Note_on_c, 0, 74, 80
1, 123828, Note_on_c, 0, 74, 0
1, 123840, Note_on_c, 0, 72, 80
1, 123840, Note_on_c, 1, 64, 80
1, 123840, Note_on_c, 1, 60, 80
1, 123948, Note_on_c, 0, 72, 0
1, 123960, Note_on_c, 0, 76, 80
1, 124068, Note_on_c, 0, 76, 0
1, 124080, Note_on_c, 0, 74, 80
1, 124188, Note_on_c, 0, 74, 0
1, 124200, Note_on_c, 0, 72, 80
1, 124272, Note_on_c, 1, 64, 0
1, 124272, Note_on_c, 1, 60, 0
1, 124308, Note_on_c, 0, 72, 0
1, 124320, Note_on_c, 0, 71, 80
1, 124428, Note_on_c, 0, 71, 0
1, 124440, Note_on_c, 0, 69, 80
1, 124548, Note_on_c, 0, 69, 0
1, 124560, Note_on_c, 0, 67, 80
1, 124560, Note_on_c, 1, 55, 80
1, 124560, Note_on_c, 1, 59, 80
1, 124560, Note_on_c, 1, 65, 80
1, 124668, Note_on_c, 0, 67, 0
1, 124680, Note_on_c, 0, 69, 80
1, 124788, Note_on_c, 0, 69, 0
1, 124800, Note_on_c, 0, 67, 80
1, 124908, Note_on_c, 0, 67, 0
1, 124920, Note_on_c, 0, 65, 80
1, 124992, Note_on_c, 1, 55, 0
1, 124992, Note_on_c, 1, 59, 0
1, 124992, Note_on_c, 1, 65, 0
1, 125028, Note_on_c, 0, 65, 0
1, 125040, Note_on_c, 0, 64, 80
1, 125148, Note_on_c, 0, 64, 0
1, 125160, Note_on_c, 0, 62, 80
1, 125268, Note_on_c, 0, 62, 0
1, 125280, Note_on_c, 0, 60, 80
1, 125280, Note_on_c, 1, 48, 80
1, 125280, Note_on_c, 1, 52, 80
1, 125388, Note_on_c, 0, 60, 0
1, 125400, Note_on_c, 0, 64, 80
1, 125508, Note_on_c, 0, 64, 0
1, 125520, Note_on_c, 0, 62, 80
1, 125628, Note_on_c, 0, 62, 0
1, 125640, Note_on_c, 0, 60, 80
1, 125712, Note_on_c, 1, 48, 0
1, 125712, Note_on_c, 1, 52, 0
1, 125748, Note_on_c, 0, 60, 0
1, 125760, Note_on_c, 0, 59, 80
1, 125868, Note_on_c, 0, 59, 0
1, 125880, Note_on_c, 0, 57, 80
1, 125988, Note_on_c, 0, 57, 0
1, 126000, Note_on_c, 0, 55, 80
1, 126000, Note_on_c, 1, 53, 80
1, 126000, Note_on_c, 1, 43, 80
1, 126000, Note_on_c, 1, 55, 80
1, 126000, Note_on_c, 1, 47, 80
1, 126108, Note_on_c, 0, 55, 0
1, 126108, Note_on_c, 1, 55, 0
1, 126120, Note_on_c, 0, 57, 80
1, 126120, Note_on_c, 1, 57, 80
1, 126228, Note_on_c, 0, 57, 0
1, 126228, Note_on_c, 1, 57, 0
1, 126240, Note_on_c, 0, 55, 80
1, 126240, Note_on_c, 1, 55, 80
1, 126348, Note_on_c, 0, 55, 0
1, 126348, Note_on_c, 1, 55, 0
1, 126360, Note_on_c, 1, 53, 0
1, 126360, Note_on_c, 0, 53, 80
1, 126360, Note_on_c, 1, 53, 80
1, 126432, Note_on_c, 1, 43, 0
1, 126432, Note_on_c, 1, 47, 0
1, 126468, Note_on_c, 0, 53, 0
1, 126468, Note_on_c, 1, 53, 0
1, 126480, Note_on_c, 0, 52, 80
1, 126480, Note_on_c, 1, 52, 80
1, 126588, Note_on_c, 0, 52, 0
1, 126588, Note_on_c, 1, 52, 0
1, 126600, Note_on_c, 0, 50, 80
1, 126600, Note_on_c, 1, 50, 80
1, 126708, Note_on_c, 0, 50, 0
1, 126708, Note_on_c, 1, 50, 0
1, 126720, Note_on_c, 0, 48, 80
1, 126720, Note_on_c, 1, 48, 80
1, 126720, Note_on_c, 1, 36, 80
1, 126936, Note_on_c, 0, 48, 0
1, 126936, Note_on_c, 1, 48, 0
1, 126936, Note_on_c, 1, 36, 0
1, 126960, Note_on_c, 0, 52, 80
1, 126960, Note_on_c, 1, 52, 80
1, 126960, Note_on_c, 1, 40, 80
1, 127176, Note_on_c, 0, 52, 0
1, 127176, Note_on_c, 1, 52, 0
1, 127176, Note_on_c, 1, 40, 0
1, 127200, Note_on_c, 0, 55, 80
1, 127200, Note_on_c, 1, 55, 80
1, 127200, Note_on_c, 1, 43, 80
1, 127416, Note_on_c, 0, 55, 0
1, 127416, Note_on_c, 1, 55, 0
1, 127416, Note_on_c, 1, 43, 0
1, 127440, Note_on_c, 0, 60, 80
1, 127440, Note_on_c, 1, 48, 80
1, 127656, Note_on_c, 0, 60, 0
1, 127656, Note_on_c, 1, 48, 0
1, 127680, Note_on_c, 0, 64, 80
1, 127680, Note_on_c, 1, 52, 80
1, 127896, Note_on_c, 0, 64, 0
1, 127896, Note_on_c, 1, 52, 0
1, 127920, Note_on_c, 0, 67, 80
1, 127920, Note_on_c, 1, 55, 80
1, 128136, Note_on_c, 0, 67, 0
1, 128136, Note_on_c, 1, 55, 0
1, 128160, Note_on_c, 0, 72, 80
1, 128160, Note_on_c, 1, 60, 80
1, 128592, Note_on_c, 0, 72, 0
1, 128592, Note_on_c, 1, 60, 0
1, 128880, Note_on_c, 0, 72, 80
1, 128880, Note_on_c, 0, 76, 80
1, 128880, Note_on_c, 0, 67, 80
1, 128880, Note_on_c, 0, 79, 80
1, 128880, Note_on_c, 1, 52, 80
1, 128880, Note_on_c, 1, 55, 80
1, 128880, Note_on_c, 1, 48, 80
1, 128880, Note_on_c, 1, 60, 80
1, 129312, Note_on_c, 0, 72, 0
1, 129312, Note_on_c, 0, 76, 0
1, 129312, Note_on_c, 0, 67, 0
1, 129312, Note_on_c, 0, 79, 0
1, 129312, Note_on_c, 1, 52, 0
1, 129312, Note_on_c, 1, 55, 0
1, 129312, Note_on_c, 1, 48, 0
1, 129312, Note_on_c, 1, 60, 0
1, 129600, Note_on_c, 0, 72, 80
1, 129600, Note_on_c, 0, 76, 80
1, 129600, Note_on_c, 0, 84, 80
1, 129600, Note_on_c, 0, 79, 80
1, 129600, Note_on_c, 1, 52, 80
1, 129600, Note_on_c, 1, 55, 80
1, 129600, Note_on_c, 1, 48, 80
1, 129600, Note_on_c, 1, 60, 80
1, 130032, Note_on_c, 0, 72, 0
1, 130032, Note_on_c, 0, 76, 0
1, 130032, Note_on_c, 0, 84, 0
1, 130032, Note_on_c, 0, 79, 0
1, 130032, Note_on_c, 1, 52, 0
1, 130032, Note_on_c, 1, 55, 0
1, 130032, Note_on_c, 1, 48, 0
1, 130032, Note_on_c, 1, 60, 0
1, 131040, Note_on_c, 1, 48, 80
1, 131040, Note_on_c, 1, 43, 80
1, 131040, Note_on_c, 1, 39, 80
1, 131040, Note_on_c, 1, 36, 80
1, 131160, Note_on_c, 0, 79, 80
1, 131268, Note_on_c, 0, 79, 0
1, 131280, Note_on_c, 0, 78, 80
1, 131388, Note_on_c, 0, 78, 0
1, 131400, Note_on_c, 0, 79, 80
1, 131472, Note_on_c, 1, 48, 0
1, 131472, Note_on_c, 1, 43, 0
1, 131472, Note_on_c, 1, 39, 0
1, 131472, Note_on_c, 1, 36, 0
1, 131508, Note_on_c, 0, 79, 0
1, 131520, Note_on_c, 0, 84, 80
1, 131628, Note_on_c, 0, 84, 0
1, 131640, Note_on_c, 0, 79, 80
1, 131748, Note_on_c, 0, 79, 0
1, 131760, Note_on_c, 0, 77, 80
1, 131868, Note_on_c, 0, 77, 0
1, 131880, Note_on_c, 0, 75, 80
1, 131988, Note_on_c, 0, 75, 0
1, 132000, Note_on_c, 0, 74, 80
1, 132108, Note_on_c, 0, 74, 0
1, 132120, Note_on_c, 0, 75, 80
1, 132228, Note_on_c, 0, 75, 0
1, 132240, Note_on_c, 0, 79, 80
1, 132348, Note_on_c, 0, 79, 0
1, 132360, Note_on_c, 0, 75, 80
1, 132468, Note_on_c, 0, 75, 0
1, 132480, Note_on_c, 0, 74, 80
1, 132588, Note_on_c, 0, 74, 0
1, 132600, Note_on_c, 0, 72, 80
1, 132708, Note_on_c, 0, 72, 0
1, 132720, Note_on_c, 0, 71, 80
1, 132828, Note_on_c, 0, 71, 0
1, 132840, Note_on_c, 0, 72, 80
1, 132948, Note_on_c, 0, 72, 0
1, 132960, Note_on_c, 0, 75, 80
1, 133068, Note_on_c, 0, 75, 0
1, 133080, Note_on_c, 0, 72, 80
1, 133188, Note_on_c, 0, 72, 0
1, 133200, Note_on_c, 0, 68, 80
1, 133308, Note_on_c, 0, 68, 0
1, 133320, Note_on_c, 0, 67, 80
1, 133428, Note_on_c, 0, 67, 0
1, 133440, Note_on_c, 0, 66, 80
1, 133548, Note_on_c, 0, 66, 0
1, 133560, Note_on_c, 0, 67, 80
1, 133668, Note_on_c, 0, 67, 0
1, 133680, Note_on_c, 0, 72, 80
1, 133788, Note_on_c, 0, 72, 0
1, 133800, Note_on_c, 0, 67, 80
1, 133908, Note_on_c, 0, 67, 0
1, 133920, Note_on_c, 0, 65, 80
1, 134028, Note_on_c, 0, 65, 0
1, 134040, Note_on_c, 0, 63, 80
1, 134148, Note_on_c, 0, 63, 0
1, 134160, Note_on_c, 0, 62, 80
1, 134268, Note_on_c, 0, 62, 0
1, 134280, Note_on_c, 0, 63, 80
1, 134388, Note_on_c, 0, 63, 0
1, 134400, Note_on_c, 0, 67, 80
1, 134508, Note_on_c, 0, 67, 0
1, 134520, Note_on_c, 0, 63, 80
1, 134628, Note_on_c, 0, 63, 0
1, 134640, Note_on_c, 0, 60, 80
1, 134640, Note_on_c, 1, 51, 80
1, 134748, Note_on_c, 0, 60, 0
1, 134760, Note_on_c, 0, 72, 80
1, 134856, Note_on_c, 1, 51, 0
1, 134868, Note_on_c, 0, 72, 0
1, 134880, Note_on_c, 0, 59, 80
1, 134880, Note_on_c, 1, 50, 80
1, 134988, Note_on_c, 0, 59, 0
1, 135000, Note_on_c, 0, 72, 80
1, 135096, Note_on_c, 1, 50, 0
1, 135108, Note_on_c, 0, 72, 0
1, 135120, Note_on_c, 0, 60, 80
1, 135120, Note_on_c, 1, 51, 80
1, 135228, Note_on_c, 0, 60, 0
1, 135240, Note_on_c, 0, 72, 80
1, 135336, Note_on_c, 1, 51, 0
1, 135348, Note_on_c, 0, 72, 0
1, 135360, Note_on_c, 0, 62, 80
1, 135360, Note_on_c, 1, 53, 80
1, 135468, Note_on_c, 0, 62, 0
1, 135480, Note_on_c, 0, 72, 80
1, 135576, Note_on_c, 1, 53, 0
1, 135588, Note_on_c, 0, 72, 0
1, 135600, Note_on_c, 0, 60, 80
1, 135600, Note_on_c, 1, 51, 80
1, 135708, Note_on_c, 0, 60, 0
1, 135720, Note_on_c, 0, 72, 80
1, 135816, Note_on_c, 1, 51, 0
1, 135828, Note_on_c, 0, 72, 0
1, 135840, Note_on_c, 0, 62, 80
1, 135840, Note_on_c, 1, 53, 80
1, 135948, Note_on_c, 0, 62, 0
1, 135960, Note_on_c, 0, 72, 80
1, 136056, Note_on_c, 1, 53, 0
1, 136068, Note_on_c, 0, 72, 0
1, 136080, Note_on_c, 0, 64, 80
1, 136080, Note_on_c, 1, 55, 80
1, 136188, Note_on_c, 0, 64, 0
1, 136200, Note_on_c, 0, 72, 80
1, 136296, Note_on_c, 1, 55, 0
1, 136308, Note_on_c, 0, 72, 0
1, 136320, Note_on_c, 0, 62, 80
1, 136320, Note_on_c, 1, 53, 80
1, 136428, Note_on_c, 0, 62, 0
1, 136440, Note_on_c, 0, 72, 80
1, 136536, Note_on_c, 1, 53, 0
1, 136548, Note_on_c, 0, 72, 0
1, 136560, Note_on_c, 0, 64, 80
1, 136560, Note_on_c, 1, 55, 80
1, 136668, Note_on_c, 0, 64, 0
1, 136680, Note_on_c, 0, 72, 80
1, 136776, Note_on_c, 1, 55, 0
1, 136788, Note_on_c, 0, 72, 0
1, 136800, Note_on_c, 0, 65, 80
1, 136800, Note_on_c, 1, 56, 80
1, 136908, Note_on_c, 0, 65, 0
1, 136920, Note_on_c, 0, 72, 80
1, 137028, Note_on_c, 0, 72, 0
1, 137040, Note_on_c, 0, 65, 80
1, 137148, Note_on_c, 0, 65, 0
1, 137160, Note_on_c, 0, 72, 80
1, 137232, Note_on_c, 1, 56, 0
1, 137268, Note_on_c, 0, 72, 0
1, 137280, Note_on_c, 0, 63, 80
1, 137280, Note_on_c, 1, 55, 80
1, 137388, Note_on_c, 0, 63, 0
1, 137400, Note_on_c, 0, 72, 80
1, 137496, Note_on_c, 1, 55, 0
1, 137508, Note_on_c, 0, 72, 0
1, 137520, Note_on_c, 0, 65, 80
1, 137520, Note_on_c, 1, 56, 80
1, 137628, Note_on_c, 0, 65, 0
1, 137640, Note_on_c, 0, 72, 80
1, 137748, Note_on_c, 0, 72, 0
1, 137760, Note_on_c, 0, 65, 80
1, 137868, Note_on_c, 0, 65, 0
1, 137880, Note_on_c, 0, 72, 80
1, 137952, Note_on_c, 1, 56, 0
1, 137988, Note_on_c, 0, 72, 0
1, 138000, Note_on_c, 0, 63, 80
1, 138000, Note_on_c, 1, 55, 80
1, 138108, Note_on_c, 0, 63, 0
1, 138120, Note_on_c, 0, 72, 80
1, 138216, Note_on_c, 1, 55, 0
1, 138228, Note_on_c, 0, 72, 0
1, 138240, Note_on_c, 0, 62, 80
1, 138240, Note_on_c, 1, 54, 80
1, 138348, Note_on_c, 0, 62, 0
1, 138360, Note_on_c, 0, 72, 80
1, 138456, Note_on_c, 1, 54, 0
1, 138468, Note_on_c, 0, 72, 0
1, 138480, Note_on_c, 0, 63, 80
1, 138480, Note_on_c, 1, 55, 80
1, 138588, Note_on_c, 0, 63, 0
1, 138600, Note_on_c, 0, 72, 80
1, 138696, Note_on_c, 1, 55, 0
1, 138708, Note_on_c, 0, 72, 0
1, 138720, Note_on_c, 0, 62, 80
1, 138720, Note_on_c, 1, 54, 80
1, 138828, Note_on_c, 0, 62, 0
1, 138840, Note_on_c, 0, 72, 80
1, 138936, Note_on_c, 1, 54, 0
1, 138948, Note_on_c, 0, 72, 0
1, 138960, Note_on_c, 0, 63, 80
1, 138960, Note_on_c, 1, 55, 80
1, 139068, Note_on_c, 0, 63, 0
1, 139080, Note_on_c, 0, 72, 80
1, 139176, Note_on_c, 1, 55, 0
1, 139188, Note_on_c, 0, 72, 0
1, 139200, Note_on_c, 0, 65, 80
1, 139200, Note_on_c, 1, 56, 80
1, 139308, Note_on_c, 0, 65, 0
1, 139320, Note_on_c, 0, 72, 80
1, 139416, Note_on_c, 1, 56, 0
1, 139428, Note_on_c, 0, 72, 0
1, 139440, Note_on_c, 0, 63, 80
1, 139440, Note_on_c, 1, 55, 80
1, 139548, Note_on_c, 0, 63, 0
1, 139560, Note_on_c, 0, 72, 80
1, 139656, Note_on_c, 1, 55, 0
1, 139668, Note_on_c, 0, 72, 0
1, 139680, Note_on_c, 0, 62, 80
1, 139680, Note_on_c, 1, 54, 80
1, 139788, Note_on_c, 0, 62, 0
1, 139800, Note_on_c, 0, 72, 80
1, 139896, Note_on_c, 1, 54, 0
1, 139908, Note_on_c, 0, 72, 0
1, 139920, Note_on_c, 0, 63, 80
1, 139920, Note_on_c, 1, 55, 80
1, 140028, Note_on_c, 0, 63, 0
1, 140040, Note_on_c, 0, 72, 80
1, 140136, Note_on_c, 1, 55, 0
1, 140148, Note_on_c, 0, 72, 0
1, 140160, Note_on_c, 0, 62, 80
1, 140160, Note_on_c, 1, 54, 80
1, 140268, Note_on_c, 0, 62, 0
1, 140280, Note_on_c, 0, 72, 80
1, 140376, Note_on_c, 1, 54, 0
1, 140388, Note_on_c, 0, 72, 0
1, 140400, Note_on_c, 0, 63, 80
1, 140400, Note_on_c, 1, 55, 80
1, 140508, Note_on_c, 0, 63, 0
1, 140520, Note_on_c, 0, 72, 80
1, 140616, Note_on_c, 1, 55, 0
1, 140628, Note_on_c, 0, 72, 0
1, 140640, Note_on_c, 0, 65, 80
1, 140640, Note_on_c, 1, 56, 80
1, 140748, Note_on_c, 0, 65, 0
1, 140760, Note_on_c, 0, 72, 80
1, 140856, Note_on_c, 1, 56, 0
1, 140868, Note_on_c, 0, 72, 0
1, 140880, Note_on_c, 0, 63, 80
1, 140880, Note_on_c, 1, 55, 80
1, 140988, Note_on_c, 0, 63, 0
1, 141000, Note_on_c, 0, 72, 80
1, 141096, Note_on_c, 1, 55, 0
1, 141108, Note_on_c, 0, 72, 0
1, 141120, Note_on_c, 0, 62, 80
1, 141228, Note_on_c, 0, 62, 0
1, 141240, Note_on_c, 1, 54, 80
1, 141348, Note_on_c, 1, 54, 0
1, 141360, Note_on_c, 1, 57, 80
1, 141468, Note_on_c, 1, 57, 0
1, 141480, Note_on_c, 1, 60, 80
1, 141588, Note_on_c, 1, 60, 0
1, 141600, Note_on_c, 1, 62, 80
1, 141708, Note_on_c, 1, 62, 0
1, 141720, Note_on_c, 0, 66, 80
1, 141828, Note_on_c, 0, 66, 0
1, 141840, Note_on_c, 0, 72, 80
1, 141948, Note_on_c, 0, 72, 0
1, 141960, Note_on_c, 0, 62, 80
1, 142068, Note_on_c, 0, 62, 0
1, 142080, Note_on_c, 0, 66, 80
1, 142188, Note_on_c, 0, 66, 0
1, 142200, Note_on_c, 0, 69, 80
1, 142308, Note_on_c, 0, 69, 0
1, 142320, Note_on_c, 0, 72, 80
1, 142428, Note_on_c, 0, 72, 0
1, 142440, Note_on_c, 0, 78, 80
1, 142548, Note_on_c, 0, 78, 0
1, 142560, Note_on_c, 0, 84, 80
1, 142668, Note_on_c, 0, 84, 0
1, 142680, Note_on_c, 0, 82, 80
1, 142788, Note_on_c, 0, 82, 0
1, 142800, Note_on_c, 0, 81, 80
1, 142908, Note_on_c, 0, 81, 0
1, 142920, Note_on_c, 0, 79, 80
1, 143028, Note_on_c, 0, 79, 0
1, 143040, Note_on_c, 0, 78, 80
1, 143148, Note_on_c, 0, 78, 0
1, 143160, Note_on_c, 0, 79, 80
1, 143268, Note_on_c, 0, 79, 0
1, 143280, Note_on_c, 0, 78, 80
1, 143388, Note_on_c, 0, 78, 0
1, 143400, Note_on_c, 0, 79, 80
1, 143508, Note_on_c, 0, 79, 0
1, 143520, Note_on_c, 0, 78, 80
1, 143628, Note_on_c, 0, 78, 0
1, 143640, Note_on_c, 0, 75, 80
1, 143748, Note_on_c, 0, 75, 0
1, 143760, Note_on_c, 0, 74, 80
1, 143868, Note_on_c, 0, 74, 0
1, 143880, Note_on_c, 0, 72, 80
1, 143988, Note_on_c, 0, 72, 0
1, 144000, Note_on_c, 0, 71, 80
1, 144000, Note_on_c, 1, 55, 80
1, 144108, Note_on_c, 0, 71, 0
1, 144120, Note_on_c, 0, 77, 80
1, 144216, Note_on_c, 1, 55, 0
1, 144228, Note_on_c, 0, 77, 0
1, 144240, Note_on_c, 0, 72, 80
1, 144240, Note_on_c, 1, 56, 80
1, 144348, Note_on_c, 0, 72, 0
1, 144360, Note_on_c, 0, 77, 80
1, 144456, Note_on_c, 1, 56, 0
1, 144468, Note_on_c, 0, 77, 0
1, 144480, Note_on_c, 0, 71, 80
1, 144480, Note_on_c, 1, 55, 80
1, 144588, Note_on_c, 0, 71, 0
1, 144600, Note_on_c, 0, 77, 80
1, 144696, Note_on_c, 1, 55, 0
1, 144708, Note_on_c, 0, 77, 0
1, 144720, Note_on_c, 0, 72, 80
1, 144720, Note_on_c, 1, 56, 80
1, 144828, Note_on_c, 0, 72, 0
1, 144840, Note_on_c, 0, 77, 80
1, 144936, Note_on_c, 1, 56, 0
1, 144948, Note_on_c, 0, 77, 0
1, 144960, Note_on_c, 0, 73, 80
1, 144960, Note_on_c, 1, 58, 80
1, 145068, Note_on_c, 0, 73, 0
1, 145080, Note_on_c, 0, 77, 80
1, 145176, Note_on_c, 1, 58, 0
1, 145188, Note_on_c, 0, 77, 0
1, 145200, Note_on_c, 0, 72, 80
1, 145200, Note_on_c, 1, 56, 80
1, 145308, Note_on_c, 0, 72, 0
1, 145320, Note_on_c, 0, 77, 80
1, 145416, Note_on_c, 1, 56, 0
1, 145428, Note_on_c, 0, 77, 0
1, 145440, Note_on_c, 0, 71, 80
1, 145440, Note_on_c, 1, 55, 80
1, 145548, Note_on_c, 0, 71, 0
1, 145560, Note_on_c, 0, 77, 80
1, 145656, Note_on_c, 1, 55, 0
1, 145668, Note_on_c, 0, 77, 0
1, 145680, Note_on_c, 0, 72, 80
1, 145680, Note_on_c, 1, 56, 80
1, 145788, Note_on_c, 0, 72, 0
1, 145800, Note_on_c, 0, 77, 80
1, 145896, Note_on_c, 1, 56, 0
1, 145908, Note_on_c, 0, 77, 0
1, 145920, Note_on_c, 0, 71, 80
1, 145920, Note_on_c, 1, 55, 80
1, 146028, Note_on_c, 0, 71, 0
1, 146040, Note_on_c, 0, 77, 80
1, 146136, Note_on_c, 1, 55, 0
1, 146148, Note_on_c, 0, 77, 0
1, 146160, Note_on_c, 0, 72, 80
1, 146160, Note_on_c, 1, 56, 80
1, 146268, Note_on_c, 0, 72, 0
1, 146280, Note_on_c, 0, 77, 80
1, 146376, Note_on_c, 1, 56, 0
1, 146388, Note_on_c, 0, 77, 0
1, 146400, Note_on_c, 0, 73, 80
1, 146400, Note_on_c, 1, 58, 80
1, 146508, Note_on_c, 0, 73, 0
1, 146520, Note_on_c, 0, 77, 80
1, 146616, Note_on_c, 1, 58, 0
1, 146628, Note_on_c, 0, 77, 0
1, 146640, Note_on_c, 0, 72, 80
1, 146640, Note_on_c, 1, 56, 80
1, 146748, Note_on_c, 0, 72, 0
1, 146760, Note_on_c, 0, 77, 80
1, 146856, Note_on_c, 1, 56, 0
1, 146868, Note_on_c, 0, 77, 0
1, 146880, Note_on_c, 0, 71, 80
1, 146988, Note_on_c, 0, 71, 0
1, 147000, Note_on_c, 1, 55, 80
1, 147108, Note_on_c, 1, 55, 0
1, 147120, Note_on_c, 1, 59, 80
1, 147228, Note_on_c, 1, 59, 0
1, 147240, Note_on_c, 1, 62, 80
1, 147348, Note_on_c, 1, 62, 0
1, 147360, Note_on_c, 1, 65, 80
1, 147468, Note_on_c, 1, 65, 0
1, 147480, Note_on_c, 0, 71, 80
1, 147588, Note_on_c, 0, 71, 0
1, 147600, Note_on_c, 0, 77, 80
1, 147708, Note_on_c, 0, 77, 0
1, 147720, Note_on_c, 0, 67, 80
1, 147828, Note_on_c, 0, 67, 0
1, 147840, Note_on_c, 0, 71, 80
1, 147948, Note_on_c, 0, 71, 0
1, 147960, Note_on_c, 0, 74, 80
1, 148068, Note_on_c, 0, 74, 0
1, 148080, Note_on_c, 0, 77, 80
1, 148188, Note_on_c, 0, 77, 0
1, 148200, Note_on_c, 0, 83, 80
1, 148308, Note_on_c, 0, 83, 0
1, 148320, Note_on_c, 0, 89, 80
1, 148428, Note_on_c, 0, 89, 0
1, 148440, Note_on_c, 0, 87, 80
1, 148548, Note_on_c, 0, 87, 0
1, 148560, Note_on_c, 0, 86, 80
1, 148668, Note_on_c, 0, 86, 0
1, 148680, Note_on_c, 0, 84, 80
1, 148788, Note_on_c, 0, 84, 0
1, 148800, Note_on_c, 0, 83, 80
1, 148908, Note_on_c, 0, 83, 0
1, 148920, Note_on_c, 0, 80, 80
1, 149028, Note_on_c, 0, 80, 0
1, 149040, Note_on_c, 0, 79, 80
1, 149148, Note_on_c, 0, 79, 0
1, 149160, Note_on_c, 0, 78, 80
1, 149268, Note_on_c, 0, 78, 0
1, 149280, Note_on_c, 0, 79, 80
1, 149388, Note_on_c, 0, 79, 0
1, 149400, Note_on_c, 0, 80, 80
1, 149508, Note_on_c, 0, 80, 0
1, 149520, Note_on_c, 0, 79, 80
1, 149628, Note_on_c, 0, 79, 0
1, 149640, Note_on_c, 0, 77, 80
1, 149748, Note_on_c, 0, 77, 0
1, 149760, Note_on_c, 0, 76, 80
1, 149760, Note_on_c, 1, 60, 80
1, 149868, Note_on_c, 0, 76, 0
1, 149880, Note_on_c, 0, 67, 80
1, 149976, Note_on_c, 1, 60, 0
1, 149988, Note_on_c, 0, 67, 0
1, 150000, Note_on_c, 0, 77, 80
1, 150000, Note_on_c, 1, 59, 80
1, 150108, Note_on_c, 0, 77, 0
1, 150120, Note_on_c, 0, 67, 80
1, 150216, Note_on_c, 1, 59, 0
1, 150228, Note_on_c, 0, 67, 0
1, 150240, Note_on_c, 0, 76, 80
1, 150240, Note_on_c, 1, 60, 80
1, 150348, Note_on_c, 0, 76, 0
1, 150360, Note_on_c, 0, 67, 80
1, 150456, Note_on_c, 1, 60, 0
1, 150468, Note_on_c, 0, 67, 0
1, 150480, Note_on_c, 0, 77, 80
1, 150480, Note_on_c, 1, 61, 80
1, 150588, Note_on_c, 0, 77, 0
1, 150600, Note_on_c, 0, 67, 80
1, 150696, Note_on_c, 1, 61, 0
1, 150708, Note_on_c, 0, 67, 0
1, 150720, Note_on_c, 0, 76, 80
1, 150720, Note_on_c, 1, 60, 80
1, 150828, Note_on_c, 0, 76, 0
1, 150840, Note_on_c, 0, 67, 80
1, 150936, Note_on_c, 1, 60, 0
1, 150948, Note_on_c, 0, 67, 0
1, 150960, Note_on_c, 0, 77, 80
1, 150960, Note_on_c, 1, 59, 80
1, 151068, Note_on_c, 0, 77, 0
1, 151080, Note_on_c, 0, 67, 80
1, 151176, Note_on_c, 1, 59, 0
1, 151188, Note_on_c, 0, 67, 0
1, 151200, Note_on_c, 0, 76, 80
1, 151200, Note_on_c, 1, 60, 80
1, 151308, Note_on_c, 0, 76, 0
1, 151320, Note_on_c, 0, 67, 80
1, 151416, Note_on_c, 1, 60, 0
1, 151428, Note_on_c, 0, 67, 0
1, 151440, Note_on_c, 0, 77, 80
1, 151440, Note_on_c, 1, 59, 80
1, 151548, Note_on_c, 0, 77, 0
1, 151560, Note_on_c, 0, 67, 80
1, 151656, Note_on_c, 1, 59, 0
1, 151668, Note_on_c, 0, 67, 0
1, 151680, Note_on_c, 0, 76, 80
1, 151680, Note_on_c, 1, 60, 80
1, 151788, Note_on_c, 0, 76, 0
1, 151800, Note_on_c, 0, 67, 80
1, 151896, Note_on_c, 1, 60, 0
1, 151908, Note_on_c, 0, 67, 0
1, 151920, Note_on_c, 0, 77, 80
1, 151920, Note_on_c, 1, 61, 80
1, 152028, Note_on_c, 0, 77, 0
1, 152040, Note_on_c, 0, 67, 80
1, 152136, Note_on_c, 1, 61, 0
1, 152148, Note_on_c, 0, 67, 0
1, 152160, Note_on_c, 0, 76, 80
1, 152160, Note_on_c, 1, 60, 80
1, 152268, Note_on_c, 0, 76, 0
1, 152280, Note_on_c, 0, 67, 80
1, 152376, Note_on_c, 1, 60, 0
1, 152388, Note_on_c, 0, 67, 0
1, 152400, Note_on_c, 0, 77, 80
1, 152400, Note_on_c, 1, 59, 80
1, 152508, Note_on_c, 0, 77, 0
1, 152520, Note_on_c, 0, 67, 80
1, 152616, Note_on_c, 1, 59, 0
1, 152628, Note_on_c, 0, 67, 0
1, 152640, Note_on_c, 0, 76, 80
1, 152748, Note_on_c, 0, 76, 0
1, 152760, Note_on_c, 1, 48, 80
1, 152868, Note_on_c, 1, 48, 0
1, 152880, Note_on_c, 1, 52, 80
1, 152988, Note_on_c, 1, 52, 0
1, 153000, Note_on_c, 1, 55, 80
1, 153108, Note_on_c, 1, 55, 0
1, 153120, Note_on_c, 1, 58, 80
1, 153228, Note_on_c, 1, 58, 0
1, 153240, Note_on_c, 0, 64, 80
1, 153348, Note_on_c, 0, 64, 0
1, 153360, Note_on_c, 0, 70, 80
1, 153468, Note_on_c, 0, 70, 0
1, 153480, Note_on_c, 0, 60, 80
1, 153588, Note_on_c, 0, 60, 0
1, 153600, Note_on_c, 0, 64, 80
1, 153708, Note_on_c, 0, 64, 0
1, 153720, Note_on_c, 0, 67, 80
1, 153828, Note_on_c, 0, 67, 0
1, 153840, Note_on_c, 0, 70, 80
1, 153948, Note_on_c, 0, 70, 0
1, 153960, Note_on_c, 0, 76, 80
1, 154068, Note_on_c, 0, 76, 0
1, 154080, Note_on_c, 0, 82, 80
1, 154188, Note_on_c, 0, 82, 0
1, 154200, Note_on_c, 0, 81, 80
1, 154308, Note_on_c, 0, 81, 0
1, 154320, Note_on_c, 0, 79, 80
1, 154428, Note_on_c, 0, 79, 0
1, 154440, Note_on_c, 0, 77, 80
1, 154548, Note_on_c, 0, 77, 0
1, 154560, Note_on_c, 0, 76, 80
1, 154668, Note_on_c, 0, 76, 0
1, 154680, Note_on_c, 0, 74, 80
1, 154788, Note_on_c, 0, 74, 0
1, 154800, Note_on_c, 0, 72, 80
1, 154908, Note_on_c, 0, 72, 0
1, 154920, Note_on_c, 0, 74, 80
1, 155028, Note_on_c, 0, 74, 0
1, 155040, Note_on_c, 0, 72, 80
1, 155148, Note_on_c, 0, 72, 0
1, 155160, Note_on_c, 0, 70, 80
1, 155268, Note_on_c, 0, 70, 0
1, 155280, Note_on_c, 0, 69, 80
1, 155388, Note_on_c, 0, 69, 0
1, 155400, Note_on_c, 0, 67, 80
1, 155508, Note_on_c, 0, 67, 0
1, 155520, Note_on_c, 0, 65, 80
1, 155520, Note_on_c, 1, 57, 80
1, 155628, Note_on_c, 0, 65, 0
1, 155640, Note_on_c, 0, 75, 80
1, 155736, Note_on_c, 1, 57, 0
1, 155748, Note_on_c, 0, 75, 0
1, 155760, Note_on_c, 0, 66, 80
1, 155760, Note_on_c, 1, 58, 80
1, 155868, Note_on_c, 0, 66, 0
1, 155880, Note_on_c, 0, 75, 80
1, 155976, Note_on_c, 1, 58, 0
1, 155988, Note_on_c, 0, 75, 0
1, 156000, Note_on_c, 0, 65, 80
1, 156000, Note_on_c, 1, 57, 80
1, 156108, Note_on_c, 0, 65, 0
1, 156120, Note_on_c, 0, 75, 80
1, 156216, Note_on_c, 1, 57, 0
1, 156228, Note_on_c, 0, 75, 0
1, 156240, Note_on_c, 0, 66, 80
1, 156240, Note_on_c, 1, 58, 80
1, 156348, Note_on_c, 0, 66, 0
1, 156360, Note_on_c, 0, 75, 80
1, 156456, Note_on_c, 1, 58, 0
1, 156468, Note_on_c, 0, 75, 0
1, 156480, Note_on_c, 0, 68, 80
1, 156480, Note_on_c, 1, 59, 80
1, 156588, Note_on_c, 0, 68, 0
1, 156600, Note_on_c, 0, 75, 80
1, 156696, Note_on_c, 1, 59, 0
1, 156708, Note_on_c, 0, 75, 0
1, 156720, Note_on_c, 0, 66, 80
1, 156720, Note_on_c, 1, 58, 80
1, 156828, Note_on_c, 0, 66, 0
1, 156840, Note_on_c, 0, 75, 80
1, 156936, Note_on_c, 1, 58, 0
1, 156948, Note_on_c, 0, 75, 0
1, 156960, Note_on_c, 0, 65, 80
1, 156960, Note_on_c, 1, 57, 80
1, 157068, Note_on_c, 0, 65, 0
1, 157080, Note_on_c, 0, 75, 80
1, 157176, Note_on_c, 1, 57, 0
1, 157188, Note_on_c, 0, 75, 0
1, 157200, Note_on_c, 0, 66, 80
1, 157200, Note_on_c, 1, 58, 80
1, 157308, Note_on_c, 0, 66, 0
1, 157320, Note_on_c, 0, 75, 80
1, 157416, Note_on_c, 1, 58, 0
1, 157428, Note_on_c, 0, 75, 0
1, 157440, Note_on_c, 0, 65, 80
1, 157440, Note_on_c, 1, 57, 80
1, 157548, Note_on_c, 0, 65, 0
1, 157560, Note_on_c, 0, 75, 80
1, 157656, Note_on_c, 1, 57, 0
1, 157668, Note_on_c, 0, 75, 0
1, 157680, Note_on_c, 0, 66, 80
1, 157680, Note_on_c, 1, 58, 80
1, 157788, Note_on_c, 0, 66, 0
1, 157800, Note_on_c, 0, 75, 80
1, 157896, Note_on_c, 1, 58, 0
1, 157908, Note_on_c, 0, 75, 0
1, 157920, Note_on_c, 0, 68, 80
1, 157920, Note_on_c, 1, 59, 80
1, 158028, Note_on_c, 0, 68, 0
1, 158040, Note_on_c, 0, 75, 80
1, 158136, Note_on_c, 1, 59, 0
1, 158148, Note_on_c, 0, 75, 0
1, 158160, Note_on_c, 0, 66, 80
1, 158160, Note_on_c, 1, 58, 80
1, 158268, Note_on_c, 0, 66, 0
1, 158280, Note_on_c, 0, 75, 80
1, 158376, Note_on_c, 1, 58, 0
1, 158388, Note_on_c, 0, 75, 0
1, 158400, Note_on_c, 0, 65, 80
1, 158508, Note_on_c, 0, 65, 0
1, 158520, Note_on_c, 1, 57, 80
1, 158628, Note_on_c, 1, 57, 0
1, 158640, Note_on_c, 1, 60, 80
1, 158748, Note_on_c, 1, 60, 0
1, 158760, Note_on_c, 1, 63, 80
1, 158868, Note_on_c, 1, 63, 0
1, 158880, Note_on_c, 1, 65, 80
1, 158988, Note_on_c, 1, 65, 0
1, 159000, Note_on_c, 0, 69, 80
1, 159108, Note_on_c, 0, 69, 0
1, 159120, Note_on_c, 0, 75, 80
1, 159228, Note_on_c, 0, 75, 0
1, 159240, Note_on_c, 0, 65, 80
1, 159348, Note_on_c, 0, 65, 0
1, 159360, Note_on_c, 0, 69, 80
1, 159468, Note_on_c, 0, 69, 0
1, 159480, Note_on_c, 0, 72, 80
1, 159588, Note_on_c, 0, 72, 0
1, 159600, Note_on_c, 0, 75, 80
1, 159708, Note_on_c, 0, 75, 0
1, 159720, Note_on_c, 0, 81, 80
1, 159828, Note_on_c, 0, 81, 0
1, 159840, Note_on_c, 0, 87, 80
1, 159948, Note_on_c, 0, 87, 0
1, 159960, Note_on_c, 0, 86, 80
1, 160068, Note_on_c, 0, 86, 0
1, 160080, Note_on_c, 0, 84, 80
1, 160188, Note_on_c, 0, 84, 0
1, 160200, Note_on_c, 0, 82, 80
1, 160308, Note_on_c, 0, 82, 0
1, 160320, Note_on_c, 0, 81, 80
1, 160428, Note_on_c, 0, 81, 0
1, 160440, Note_on_c, 0, 79, 80
1, 160548, Note_on_c, 0, 79, 0
1, 160560, Note_on_c, 0, 77, 80
1, 160668, Note_on_c, 0, 77, 0
1, 160680, Note_on_c, 0, 79, 80
1, 160788, Note_on_c, 0, 79, 0
1, 160800, Note_on_c, 0, 77, 80
1, 160908, Note_on_c, 0, 77, 0
1, 160920, Note_on_c, 0, 75, 80
1, 161028, Note_on_c, 0, 75, 0
1, 161040, Note_on_c, 0, 74, 80
1, 161148, Note_on_c, 0, 74, 0
1, 161160, Note_on_c, 0, 72, 80
1, 161268, Note_on_c, 0, 72, 0
1, 161280, Note_on_c, 0, 74, 80
1, 161280, Note_on_c, 1, 58, 80
1, 161496, Note_on_c, 0, 74, 0
1, 161496, Note_on_c, 1, 58, 0
1, 161520, Note_on_c, 1, 62, 80
1, 161736, Note_on_c, 1, 62, 0
1, 161760, Note_on_c, 0, 74, 80
1, 161760, Note_on_c, 1, 65, 80
1, 161976, Note_on_c, 0, 74, 0
1, 161976, Note_on_c, 1, 65, 0
1, 162000, Note_on_c, 0, 72, 80
1, 162000, Note_on_c, 1, 57, 80
1, 162216, Note_on_c, 0, 72, 0
1, 162216, Note_on_c, 1, 57, 0
1, 162240, Note_on_c, 1, 60, 80
1, 162456, Note_on_c, 1, 60, 0
1, 162480, Note_on_c, 0, 72, 80
1, 162480, Note_on_c, 1, 65, 80
1, 162696, Note_on_c, 0, 72, 0
1, 162696, Note_on_c, 1, 65, 0
1, 162720, Note_on_c, 0, 75, 80
1, 162720, Note_on_c, 1, 55, 80
1, 162936, Note_on_c, 1, 55, 0
1, 162960, Note_on_c, 1, 58, 80
1, 163176, Note_on_c, 1, 58, 0
1, 163200, Note_on_c, 1, 63, 80
1, 163368, Note_on_c, 0, 75, 0
1, 163416, Note_on_c, 1, 63, 0
1, 163440, Note_on_c, 0, 75, 80
1, 163440, Note_on_c, 1, 54, 80
1, 163656, Note_on_c, 1, 54, 0
1, 163680, Note_on_c, 1, 57, 80
1, 163872, Note_on_c, 0, 75, 0
1, 163896, Note_on_c, 1, 57, 0
1, 163920, Note_on_c, 0, 74, 80
1, 163920, Note_on_c, 1, 62, 80
1, 164136, Note_on_c, 0, 74, 0
1, 164136, Note_on_c, 1, 62, 0
1, 164160, Note_on_c, 0, 75, 80
1, 164160, Note_on_c, 1, 55, 80
1, 164376, Note_on_c, 0, 75, 0
1, 164376, Note_on_c, 1, 55, 0
1, 164400, Note_on_c, 1, 58, 80
1, 164616, Note_on_c, 1, 58, 0
1, 164640, Note_on_c, 0, 75, 80
1, 164640, Note_on_c, 1, 63, 80
1, 164856, Note_on_c, 0, 75, 0
1, 164856, Note_on_c, 1, 63, 0
1, 164880, Note_on_c, 0, 74, 80
1, 164880, Note_on_c, 1, 53, 80
1, 165096, Note_on_c, 0, 74, 0
1, 165096, Note_on_c, 1, 53, 0
1, 165120, Note_on_c, 1, 57, 80
1, 165336, Note_on_c, 1, 57, 0
1, 165360, Note_on_c, 0, 74, 80
1, 165360, Note_on_c, 1, 62, 80
1, 165576, Note_on_c, 0, 74, 0
1, 165576, Note_on_c, 1, 62, 0
1, 165600, Note_on_c, 0, 79, 80
1, 165600, Note_on_c, 1, 51, 80
1, 165816, Note_on_c, 1, 51, 0
1, 165840, Note_on_c, 1, 55, 80
1, 166056, Note_on_c, 1, 55, 0
1, 166080, Note_on_c, 1, 60, 80
1, 166248, Note_on_c, 0, 79, 0
1, 166296, Note_on_c, 1, 60, 0
1, 166320, Note_on_c, 0, 79, 80
1, 166320, Note_on_c, 1, 50, 80
1, 166536, Note_on_c, 1, 50, 0
1, 166560, Note_on_c, 1, 53, 80
1, 166752, Note_on_c, 0, 79, 0
1, 166776, Note_on_c, 1, 53, 0
1, 166800, Note_on_c, 0, 77, 80
1, 166800, Note_on_c, 1, 58, 80
1, 167016, Note_on_c, 0, 77, 0
1, 167016, Note_on_c, 1, 58, 0
1, 167040, Note_on_c, 0, 77, 80
1, 167040, Note_on_c, 1, 48, 80
1, 167256, Note_on_c, 0, 77, 0
1, 167256, Note_on_c, 1, 48, 0
1, 167280, Note_on_c, 0, 76, 80
1, 167280, Note_on_c, 1, 55, 80
1, 167496, Note_on_c, 0, 76, 0
1, 167496, Note_on_c, 1, 55, 0
1, 167520, Note_on_c, 0, 72, 80
1, 167520, Note_on_c, 1, 58, 80
1, 167736, Note_on_c, 1, 58, 0
1, 167760, Note_on_c, 1, 53, 80
1, 167952, Note_on_c, 0, 72, 0
1, 167976, Note_on_c, 1, 53, 0
1, 168000, Note_on_c, 0, 74, 80
1, 168000, Note_on_c, 1, 57, 80
1, 168216, Note_on_c, 0, 74, 0
1, 168216, Note_on_c, 1, 57, 0
1, 168240, Note_on_c, 0, 75, 80
1, 168240, Note_on_c, 1, 60, 80
1, 168456, Note_on_c, 0, 75, 0
1, 168456, Note_on_c, 1, 60, 0
1, 168480, Note_on_c, 0, 75, 80
1, 168480, Note_on_c, 1, 46, 80
1, 168696, Note_on_c, 0, 75, 0
1, 168696, Note_on_c, 1, 46, 0
1, 168720, Note_on_c, 0, 74, 80
1, 168720, Note_on_c, 1, 53, 80
1, 168936, Note_on_c, 0, 74, 0
1, 168936, Note_on_c, 1, 53, 0
1, 168960, Note_on_c, 0, 70, 80
1, 168960, Note_on_c, 1, 58, 80
1, 169176, Note_on_c, 1, 58, 0
1, 169200, Note_on_c, 1, 54, 80
1, 169392, Note_on_c, 0, 70, 0
1, 169416, Note_on_c, 1, 54, 0
1, 169440, Note_on_c, 0, 72, 80
1, 169440, Note_on_c, 1, 58, 80
1, 169656, Note_on_c, 0, 72, 0
1, 169656, Note_on_c, 1, 58, 0
1, 169680, Note_on_c, 0, 73, 80
1, 169680, Note_on_c, 1, 61, 80
1, 169896, Note_on_c, 0, 73, 0
1, 169896, Note_on_c, 1, 61, 0
1, 169920, Note_on_c, 0, 73, 80
1, 169920, Note_on_c, 1, 51, 80
1, 170136, Note_on_c, 0, 73, 0
1, 170136, Note_on_c, 1, 51, 0
1, 170160, Note_on_c, 0, 72, 80
1, 170160, Note_on_c, 1, 54, 80
1, 170376, Note_on_c, 0, 72, 0
1, 170376, Note_on_c, 1, 54, 0
1, 170400, Note_on_c, 0, 73, 80
1, 170400, Note_on_c, 1, 58, 80
1, 170616, Note_on_c, 1, 58, 0
1, 170640, Note_on_c, 1, 52, 80
1, 170832, Note_on_c, 0, 73, 0
1, 170856, Note_on_c, 1, 52, 0
1, 170880, Note_on_c, 0, 72, 80
1, 170880, Note_on_c, 1, 55, 80
1, 171096, Note_on_c, 0, 72, 0
1, 171096, Note_on_c, 1, 55, 0
1, 171120, Note_on_c, 0, 70, 80
1, 171120, Note_on_c, 1, 61, 80
1, 171336, Note_on_c, 0, 70, 0
1, 171336, Note_on_c, 1, 61, 0
1, 171360, Note_on_c, 0, 69, 80
1, 171360, Note_on_c, 1, 53, 80
1, 171576, Note_on_c, 1, 53, 0
1, 171600, Note_on_c, 1, 57, 80
1, 171816, Note_on_c, 1, 57, 0
1, 171840, Note_on_c, 1, 60, 80
1, 172008, Note_on_c, 0, 69, 0
1, 172056, Note_on_c, 1, 60, 0
1, 172080, Note_on_c, 0, 72, 80
1, 172080, Note_on_c, 1, 53, 80
1, 172296, Note_on_c, 0, 72, 0
1, 172296, Note_on_c, 1, 53, 0
1, 172320, Note_on_c, 1, 51, 80
1, 172536, Note_on_c, 1, 51, 0
1, 172560, Note_on_c, 1, 48, 80
1, 172776, Note_on_c, 1, 48, 0
1, 172800, Note_on_c, 0, 74, 80
1, 172800, Note_on_c, 1, 46, 80
1, 172800, Note_on_c, 1, 58, 80
1, 172908, Note_on_c, 0, 74, 0
1, 172920, Note_on_c, 0, 70, 80
1, 173028, Note_on_c, 0, 70, 0
1, 173040, Note_on_c, 0, 65, 80
1, 173148, Note_on_c, 0, 65, 0
1, 173160, Note_on_c, 0, 70, 80
1, 173232, Note_on_c, 1, 46, 0
1, 173232, Note_on_c, 1, 58, 0
1, 173268, Note_on_c, 0, 70, 0
1, 173280, Note_on_c, 0, 74, 80
1, 173388, Note_on_c, 0, 74, 0
1, 173400, Note_on_c, 0, 70, 80
1, 173508, Note_on_c, 0, 70, 0
1, 173520, Note_on_c, 0, 72, 80
1, 173520, Note_on_c, 1, 45, 80
1, 173520, Note_on_c, 1, 57, 80
1, 173628, Note_on_c, 0, 72, 0
1, 173640, Note_on_c, 0, 69, 80
1, 173748, Note_on_c, 0, 69, 0
1, 173760, Note_on_c, 0, 65, 80
1, 173868, Note_on_c, 0, 65, 0
1, 173880, Note_on_c, 0, 69, 80
1, 173952, Note_on_c, 1, 45, 0
1, 173952, Note_on_c, 1, 57, 0
1, 173988, Note_on_c, 0, 69, 0
1, 174000, Note_on_c, 0, 72, 80
1, 174108, Note_on_c, 0, 72, 0
1, 174120, Note_on_c, 0, 69, 80
1, 174228, Note_on_c, 0, 69, 0
1, 174240, Note_on_c, 0, 75, 80
1, 174240, Note_on_c, 1, 43, 80
1, 174240, Note_on_c, 1, 55, 80
1, 174348, Note_on_c, 0, 75, 0
1, 174360, Note_on_c, 0, 70, 80
1, 174468, Note_on_c, 0, 70, 0
1, 174480, Note_on_c, 0, 67, 80
1, 174588, Note_on_c, 0, 67, 0
1, 174600, Note_on_c, 0, 70, 80
1, 174708, Note_on_c, 0, 70, 0
1, 174720, Note_on_c, 0, 75, 80
1, 174828, Note_on_c, 0, 75, 0
1, 174840, Note_on_c, 0, 70, 80
1, 174948, Note_on_c, 0, 70, 0
1, 174960, Note_on_c, 0, 75, 80
1, 175068, Note_on_c, 0, 75, 0
1, 175080, Note_on_c, 0, 70, 80
1, 175188, Note_on_c, 0, 70, 0
1, 175200, Note_on_c, 0, 75, 80
1, 175308, Note_on_c, 0, 75, 0
1, 175320, Note_on_c, 0, 70, 80
1, 175392, Note_on_c, 1, 55, 0
1, 175392, Note_on_c, 1, 43, 0
1, 175428, Note_on_c, 0, 70, 0
1, 175440, Note_on_c, 0, 74, 80
1, 175440, Note_on_c, 1, 42, 80
1, 175440, Note_on_c, 1, 54, 80
1, 175548, Note_on_c, 0, 74, 0
1, 175560, Note_on_c, 0, 70, 80
1, 175656, Note_on_c, 1, 42, 0
1, 175656, Note_on_c, 1, 54, 0
1, 175668, Note_on_c, 0, 70, 0
1, 175680, Note_on_c, 0, 75, 80
1, 175680, Note_on_c, 1, 55, 80
1, 175680, Note_on_c, 1, 43, 80
1, 175788, Note_on_c, 0, 75, 0
1, 175800, Note_on_c, 0, 70, 80
1, 175908, Note_on_c, 0, 70, 0
1, 175920, Note_on_c, 0, 67, 80
1, 176028, Note_on_c, 0, 67, 0
1, 176040, Note_on_c, 0, 70, 80
1, 176112, Note_on_c, 1, 55, 0
1, 176112, Note_on_c, 1, 43, 0
1, 176148, Note_on_c, 0, 70, 0
1, 176160, Note_on_c, 0, 75, 80
1, 176268, Note_on_c, 0, 75, 0
1, 176280, Note_on_c, 0, 70, 80
1, 176388, Note_on_c, 0, 70, 0
1, 176400, Note_on_c, 0, 74, 80
1, 176400, Note_on_c, 1, 53, 80
1, 176400, Note_on_c, 1, 41, 80
1, 176508, Note_on_c, 0, 74, 0
1, 176520, Note_on_c, 0, 69, 80
1, 176628, Note_on_c, 0, 69, 0
1, 176640, Note_on_c, 0, 64, 80
1, 176748, Note_on_c, 0, 64, 0
1, 176760, Note_on_c, 0, 69, 80
1, 176832, Note_on_c, 1, 53, 0
1, 176832, Note_on_c, 1, 41, 0
1, 176868, Note_on_c, 0, 69, 0
1, 176880, Note_on_c, 0, 74, 80
1, 176988, Note_on_c, 0, 74, 0
1, 177000, Note_on_c, 0, 69, 80
1, 177108, Note_on_c, 0, 69, 0
1, 177120, Note_on_c, 0, 79, 80
1, 177120, Note_on_c, 1, 51, 80
1, 177120, Note_on_c, 1, 39, 80
1, 177228, Note_on_c, 0, 79, 0
1, 177240, Note_on_c, 0, 70, 80
1, 177348, Note_on_c, 0, 70, 0
1, 177360, Note_on_c, 0, 67, 80
1, 177468, Note_on_c, 0, 67, 0
1, 177480, Note_on_c, 0, 70, 80
1, 177588, Note_on_c, 0, 70, 0
1, 177600, Note_on_c, 0, 79, 80
1, 177708, Note_on_c, 0, 79, 0
1, 177720, Note_on_c, 0, 70, 80
1, 177828, Note_on_c, 0, 70, 0
1, 177840, Note_on_c, 0, 79, 80
1, 177948, Note_on_c, 0, 79, 0
1, 177960, Note_on_c, 0, 70, 80
1, 178068, Note_on_c, 0, 70, 0
1, 178080, Note_on_c, 0, 79, 80
1, 178080, Note_on_c, 1, 50, 80
1, 178080, Note_on_c, 1, 38, 80
1, 178188, Note_on_c, 0, 79, 0
1, 178200, Note_on_c, 0, 70, 80
1, 178272, Note_on_c, 1, 51, 0
1, 178272, Note_on_c, 1, 39, 0
1, 178308, Note_on_c, 0, 70, 0
1, 178320, Note_on_c, 0, 77, 80
1, 178428, Note_on_c, 0, 77, 0
1, 178440, Note_on_c, 0, 70, 80
1, 178512, Note_on_c, 1, 50, 0
1, 178512, Note_on_c, 1, 38, 0
1, 178548, Note_on_c, 0, 70, 0
1, 178560, Note_on_c, 1, 48, 80
1, 178668, Note_on_c, 1, 48, 0
1, 178680, Note_on_c, 1, 55, 80
1, 178788, Note_on_c, 1, 55, 0
1, 178800, Note_on_c, 1, 58, 80
1, 178908, Note_on_c, 1, 58, 0
1, 178920, Note_on_c, 0, 67, 80
1, 179028, Note_on_c, 0, 67, 0
1, 179040, Note_on_c, 0, 70, 80
1, 179148, Note_on_c, 0, 70, 0
1, 179160, Note_on_c, 0, 76, 80
1, 179268, Note_on_c, 0, 76, 0
1, 179280, Note_on_c, 1, 51, 80
1, 179388, Note_on_c, 1, 51, 0
1, 179400, Note_on_c, 1, 57, 80
1, 179508, Note_on_c, 1, 57, 0
1, 179520, Note_on_c, 1, 60, 80
1, 179628, Note_on_c, 1, 60, 0
1, 179640, Note_on_c, 0, 69, 80
1, 179748, Note_on_c, 0, 69, 0
1, 179760, Note_on_c, 0, 72, 80
1, 179868, Note_on_c, 0, 72, 0
1, 179880, Note_on_c, 0, 75, 80
1, 179988, Note_on_c, 0, 75, 0
1, 180000, Note_on_c, 1, 55, 80
1, 180108, Note_on_c, 1, 55, 0
1, 180120, Note_on_c, 1, 58, 80
1, 180228, Note_on_c, 1, 58, 0
1, 180240, Note_on_c, 1, 62, 80
1, 180348, Note_on_c, 1, 62, 0
1, 180360, Note_on_c, 0, 67, 80
1, 180468, Note_on_c, 0, 67, 0
1, 180480, Note_on_c, 0, 70, 80
1, 180588, Note_on_c, 0, 70, 0
1, 180600, Note_on_c, 0, 74, 80
1, 180708, Note_on_c, 0, 74, 0
1, 180720, Note_on_c, 1, 51, 80
1, 180828, Note_on_c, 1, 51, 0
1, 180840, Note_on_c, 1, 55, 80
1, 180948, Note_on_c, 1, 55, 0
1, 180960, Note_on_c, 1, 60, 80
1, 181068, Note_on_c, 1, 60, 0
1, 181080, Note_on_c, 0, 63, 80
1, 181188, Note_on_c, 0, 63, 0
1, 181200, Note_on_c, 0, 67, 80
1, 181308, Note_on_c, 0, 67, 0
1, 181320, Note_on_c, 0, 72, 80
1, 181428, Note_on_c, 0, 72, 0
1, 181440, Note_on_c, 1, 41, 80
1, 181548, Note_on_c, 1, 41, 0
1, 181560, Note_on_c, 1, 50, 80
1, 181668, Note_on_c, 1, 50, 0
1, 181680, Note_on_c, 1, 53, 80
1, 181788, Note_on_c, 1, 53, 0
1, 181800, Note_on_c, 0, 62, 80
1, 181908, Note_on_c, 0, 62, 0
1, 181920, Note_on_c, 0, 65, 80
1, 182028, Note_on_c, 0, 65, 0
1, 182040, Note_on_c, 0, 70, 80
1, 182148, Note_on_c, 0, 70, 0
1, 182160, Note_on_c, 1, 41, 80
1, 182268, Note_on_c, 1, 41, 0
1, 182280, Note_on_c, 1, 48, 80
1, 182388, Note_on_c, 1, 48, 0
1, 182400, Note_on_c, 1, 53, 80
1, 182508, Note_on_c, 1, 53, 0
1, 182520, Note_on_c, 0, 63, 80
1, 182628, Note_on_c, 0, 63, 0
1, 182640, Note_on_c, 0, 65, 80
1, 182748, Note_on_c, 0, 65, 0
1, 182760, Note_on_c, 0, 69, 80
1, 182868, Note_on_c, 0, 69, 0
1, 182880, Note_on_c, 1, 34, 80
1, 183528, Note_on_c, 1, 34, 0
1, 183600, Note_on_c, 1, 34, 80
1, 183816, Note_on_c, 1, 34, 0
1, 183840, Note_on_c, 1, 38, 80
1, 184056, Note_on_c, 1, 38, 0
1, 184080, Note_on_c, 1, 41, 80
1, 184296, Note_on_c, 1, 41, 0
1, 184320, Note_on_c, 1, 46, 80
1, 184560, Note_on_c, 1, 50, 80
1, 184776, Note_on_c, 1, 50, 0
1, 184800, Note_on_c, 1, 53, 80
1, 185016, Note_on_c, 1, 53, 0
1, 185040, Note_on_c, 1, 58, 80
1, 185256, Note_on_c, 1, 58, 0
1, 185280, Note_on_c, 0, 62, 80
1, 185496, Note_on_c, 0, 62, 0
1, 185520, Note_on_c, 0, 65, 80
1, 185616, Note_on_c, 1, 46, 0
1, 185736, Note_on_c, 0, 65, 0
1, 185760, Note_on_c, 0, 66, 80
1, 185760, Note_on_c, 1, 45, 80
1, 185760, Note_on_c, 1, 51, 80
1, 185760, Note_on_c, 1, 48, 80
1, 185976, Note_on_c, 0, 66, 0
1, 186000, Note_on_c, 0, 69, 80
1, 186216, Note_on_c, 0, 69, 0
1, 186240, Note_on_c, 0, 72, 80
1, 186456, Note_on_c, 0, 72, 0
1, 186480, Note_on_c, 0, 75, 80
1, 186696, Note_on_c, 0, 75, 0
1, 186720, Note_on_c, 0, 78, 80
1, 186936, Note_on_c, 0, 78, 0
1, 186960, Note_on_c, 0, 81, 80
1, 187056, Note_on_c, 1, 45, 0
1, 187056, Note_on_c, 1, 51, 0
1, 187056, Note_on_c, 1, 48, 0
1, 187176, Note_on_c, 0, 81, 0
1, 187200, Note_on_c, 0, 84, 80
1, 187200, Note_on_c, 1, 48, 80
1, 187200, Note_on_c, 1, 54, 80
1, 187200, Note_on_c, 1, 45, 80
1, 187416, Note_on_c, 0, 84, 0
1, 187440, Note_on_c, 0, 81, 80
1, 187656, Note_on_c, 0, 81, 0
1, 187680, Note_on_c, 0, 78, 80
1, 187896, Note_on_c, 0, 78, 0
1, 187920, Note_on_c, 0, 75, 80
1, 188136, Note_on_c, 0, 75, 0
1, 188160, Note_on_c, 0, 74, 80
1, 188376, Note_on_c, 0, 74, 0
1, 188400, Note_on_c, 0, 66, 80
1, 188496, Note_on_c, 1, 48, 0
1, 188496, Note_on_c, 1, 54, 0
1, 188496, Note_on_c, 1, 45, 0
1, 188616, Note_on_c, 0, 66, 0
1, 188640, Note_on_c, 0, 69, 80
1, 188640, Note_on_c, 1, 55, 80
1, 188640, Note_on_c, 1, 46, 80
1, 188640, Note_on_c, 1, 50, 80
1, 188856, Note_on_c, 0, 69, 0
1, 188880, Note_on_c, 0, 67, 80
1, 189096, Note_on_c, 0, 67, 0
1, 189120, Note_on_c, 0, 73, 80
1, 189336, Note_on_c, 0, 73, 0
1, 189360, Note_on_c, 0, 74, 80
1, 189576, Note_on_c, 0, 74, 0
1, 189600, Note_on_c, 0, 78, 80
1, 189816, Note_on_c, 0, 78, 0
1, 189840, Note_on_c, 0, 79, 80
1, 189936, Note_on_c, 1, 55, 0
1, 189936, Note_on_c, 1, 46, 0
1, 189936, Note_on_c, 1, 50, 0
1, 190056, Note_on_c, 0, 79, 0
1, 190080, Note_on_c, 0, 85, 80
1, 190080, Note_on_c, 1, 55, 80
1, 190080, Note_on_c, 1, 46, 80
1, 190080, Note_on_c, 1, 50, 80
1, 190296, Note_on_c, 0, 85, 0
1, 190320, Note_on_c, 0, 86, 80
1, 190536, Note_on_c, 0, 86, 0
1, 190560, Note_on_c, 0, 81, 80
1, 190776, Note_on_c, 0, 81, 0
1, 190800, Note_on_c, 0, 82, 80
1, 191016, Note_on_c, 0, 82, 0
1, 191040, Note_on_c, 0, 78, 80
1, 191256, Note_on_c, 0, 78, 0
1, 191280, Note_on_c, 0, 79, 80
1, 191376, Note_on_c, 1, 55, 0
1, 191376, Note_on_c, 1, 46, 0
1, 191376, Note_on_c, 1, 50, 0
1, 191496, Note_on_c, 0, 79, 0
1, 191520, Note_on_c, 1, 61, 80
1, 191520, Note_on_c, 1, 58, 80
1, 191760, Note_on_c, 0, 77, 80
1, 191952, Note_on_c, 1, 61, 0
1, 191952, Note_on_c, 1, 58, 0
1, 191976, Note_on_c, 0, 77, 0
1, 192000, Note_on_c, 0, 76, 80
1, 192216, Note_on_c, 0, 76, 0
1, 192240, Note_on_c, 1, 61, 80
1, 192240, Note_on_c, 1, 58, 80
1, 192480, Note_on_c, 0, 76, 80
1, 192672, Note_on_c, 1, 61, 0
1, 192672, Note_on_c, 1, 58, 0
1, 192696, Note_on_c, 0, 76, 0
1, 192720, Note_on_c, 0, 85, 80
1, 192936, Note_on_c, 0, 85, 0
1, 192960, Note_on_c, 1, 60, 80
1, 192960, Note_on_c, 1, 58, 80
1, 193200, Note_on_c, 0, 85, 80
1, 193392, Note_on_c, 1, 60, 0
1, 193392, Note_on_c, 1, 58, 0
1, 193416, Note_on_c, 0, 85, 0
1, 193440, Note_on_c, 0, 84, 80
1, 193656, Note_on_c, 0, 84, 0
1, 193680, Note_on_c, 1, 60, 80
1, 193680, Note_on_c, 1, 58, 80
1, 193920, Note_on_c, 0, 84, 80
1, 194112, Note_on_c, 1, 60, 0
1, 194112, Note_on_c, 1, 58, 0
1, 194136, Note_on_c, 0, 84, 0
1, 194160, Note_on_c, 0, 76, 80
1, 194376, Note_on_c, 0, 76, 0
1, 194400, Note_on_c, 1, 44, 80
1, 194400, Note_on_c, 1, 56, 80
1, 194640, Note_on_c, 0, 76, 80
1, 194856, Note_on_c, 0, 76, 0
1, 194880, Note_on_c, 0, 77, 80
1, 195096, Note_on_c, 0, 77, 0
1, 195120, Note_on_c, 0, 84, 80
1, 195336, Note_on_c, 0, 84, 0
1, 195360, Note_on_c, 0, 79, 80
1, 195576, Note_on_c, 0, 79, 0
1, 195600, Note_on_c, 0, 82, 80
1, 195696, Note_on_c, 1, 44, 0
1, 195696, Note_on_c, 1, 56, 0
1, 195816, Note_on_c, 0, 82, 0
1, 195840, Note_on_c, 0, 80, 80
1, 195840, Note_on_c, 1, 44, 80
1, 195840, Note_on_c, 1, 56, 80
1, 196056, Note_on_c, 0, 80, 0
1, 196080, Note_on_c, 0, 76, 80
1, 196296, Note_on_c, 0, 76, 0
1, 196320, Note_on_c, 0, 79, 80
1, 196536, Note_on_c, 0, 79, 0
1, 196560, Note_on_c, 0, 77, 80
1, 196776, Note_on_c, 0, 77, 0
1, 196800, Note_on_c, 0, 75, 80
1, 197016, Note_on_c, 0, 75, 0
1, 197040, Note_on_c, 0, 73, 80
1, 197136, Note_on_c, 1, 44, 0
1, 197136, Note_on_c, 1, 56, 0
1, 197256, Note_on_c, 0, 73, 0
1, 197280, Note_on_c, 0, 72, 80
1, 197280, Note_on_c, 1, 41, 80
1, 197520, Note_on_c, 1, 43, 80
1, 197736, Note_on_c, 1, 43, 0
1, 197760, Note_on_c, 1, 45, 80
1, 197928, Note_on_c, 0, 72, 0
1, 197976, Note_on_c, 1, 45, 0
1, 198000, Note_on_c, 0, 71, 80
1, 198000, Note_on_c, 1, 47, 80
1, 198216, Note_on_c, 1, 47, 0
1, 198240, Note_on_c, 1, 43, 80
1, 198456, Note_on_c, 1, 43, 0
1, 198480, Note_on_c, 1, 45, 80
1, 198576, Note_on_c, 1, 41, 0
1, 198648, Note_on_c, 0, 71, 0
1, 198696, Note_on_c, 1, 45, 0
1, 198720, Note_on_c, 0, 77, 80
1, 198720, Note_on_c, 1, 47, 80
1, 198720, Note_on_c, 1, 40, 80
1, 198936, Note_on_c, 1, 47, 0
1, 198960, Note_on_c, 1, 43, 80
1, 199176, Note_on_c, 1, 43, 0
1, 199200, Note_on_c, 1, 45, 80
1, 199368, Note_on_c, 0, 77, 0
1, 199416, Note_on_c, 1, 45, 0
1, 199440, Note_on_c, 0, 71, 80
1, 199440, Note_on_c, 1, 47, 80
1, 199656, Note_on_c, 1, 47, 0
1, 199680, Note_on_c, 1, 46, 80
1, 199896, Note_on_c, 1, 46, 0
1, 199920, Note_on_c, 1, 45, 80
1, 200016, Note_on_c, 1, 40, 0
1, 200088, Note_on_c, 0, 71, 0
1, 200136, Note_on_c, 1, 45, 0
1, 200160, Note_on_c, 1, 48, 80
1, 200160, Note_on_c, 1, 60, 80
1, 200400, Note_on_c, 0, 64, 80
1, 200400, Note_on_c, 0, 72, 80
1, 200400, Note_on_c, 0, 67, 80
1, 200592, Note_on_c, 1, 48, 0
1, 200592, Note_on_c, 1, 60, 0
1, 200616, Note_on_c, 0, 64, 0
1, 200616, Note_on_c, 0, 72, 0
1, 200616, Note_on_c, 0, 67, 0
1, 200640, Note_on_c, 0, 65, 80
1, 200640, Note_on_c, 0, 74, 80
1, 200640, Note_on_c, 0, 71, 80
1, 200856, Note_on_c, 0, 65, 0
1, 200856, Note_on_c, 0, 74, 0
1, 200856, Note_on_c, 0, 71, 0
1, 200880, Note_on_c, 1, 48, 80
1, 200880, Note_on_c, 1, 60, 80
1, 201120, Note_on_c, 0, 71, 80
1, 201120, Note_on_c, 0, 65, 80
1, 201120, Note_on_c, 0, 74, 80
1, 201312, Note_on_c, 1, 48, 0
1, 201312, Note_on_c, 1, 60, 0
1, 201336, Note_on_c, 0, 71, 0
1, 201336, Note_on_c, 0, 65, 0
1, 201336, Note_on_c, 0, 74, 0
1, 201360, Note_on_c, 0, 67, 80
1, 201360, Note_on_c, 0, 70, 80
1, 201360, Note_on_c, 0, 76, 80
1, 201576, Note_on_c, 0, 67, 0
1, 201576, Note_on_c, 0, 70, 0
1, 201576, Note_on_c, 0, 76, 0
1, 201600, Note_on_c, 1, 48, 80
1, 201600, Note_on_c, 1, 60, 80
1, 201840, Note_on_c, 0, 70, 80
1, 201840, Note_on_c, 0, 76, 80
1, 201840, Note_on_c, 0, 67, 80
1, 202032, Note_on_c, 1, 48, 0
1, 202032, Note_on_c, 1, 60, 0
1, 202056, Note_on_c, 0, 70, 0
1, 202056, Note_on_c, 0, 76, 0
1, 202056, Note_on_c, 0, 67, 0
1, 202080, Note_on_c, 0, 77, 80
1, 202080, Note_on_c, 0, 69, 80
1, 202080, Note_on_c, 0, 72, 80
1, 202296, Note_on_c, 0, 77, 0
1, 202296, Note_on_c, 0, 69, 0
1, 202296, Note_on_c, 0, 72, 0
1, 202320, Note_on_c, 1, 48, 80
1, 202320, Note_on_c, 1, 60, 80
1, 202560, Note_on_c, 0, 78, 80
1, 202560, Note_on_c, 0, 69, 80
1, 202560, Note_on_c, 0, 72, 80
1, 202752, Note_on_c, 1, 48, 0
1, 202752, Note_on_c, 1, 60, 0
1, 202776, Note_on_c, 0, 78, 0
1, 202776, Note_on_c, 0, 69, 0
1, 202776, Note_on_c, 0, 72, 0
1, 202800, Note_on_c, 0, 79, 80
1, 202800, Note_on_c, 0, 70, 80
1, 202800, Note_on_c, 0, 76, 80
1, 203016, Note_on_c, 0, 79, 0
1, 203016, Note_on_c, 0, 70, 0
1, 203016, Note_on_c, 0, 76, 0
1, 203040, Note_on_c, 1, 48, 80
1, 203040, Note_on_c, 1, 60, 80
1, 203280, Note_on_c, 0, 79, 80
1, 203280, Note_on_c, 0, 70, 80
1, 203280, Note_on_c, 0, 76, 80
1, 203472, Note_on_c, 1, 48, 0
1, 203472, Note_on_c, 1, 60, 0
1, 203496, Note_on_c, 0, 79, 0
1, 203496, Note_on_c, 0, 70, 0
1, 203496, Note_on_c, 0, 76, 0
1, 203520, Note_on_c, 0, 81, 80
1, 203520, Note_on_c, 0, 72, 80
1, 203736, Note_on_c, 0, 81, 0
1, 203736, Note_on_c, 0, 72, 0
1, 203760, Note_on_c, 1, 48, 80
1, 203760, Note_on_c, 1, 60, 80
1, 204000, Note_on_c, 0, 81, 80
1, 204000, Note_on_c, 0, 78, 80
1, 204000, Note_on_c, 0, 72, 80
1, 204192, Note_on_c, 1, 48, 0
1, 204192, Note_on_c, 1, 60, 0
1, 204216, Note_on_c, 0, 81, 0
1, 204216, Note_on_c, 0, 78, 0
1, 204216, Note_on_c, 0, 72, 0
1, 204240, Note_on_c, 0, 76, 80
1, 204240, Note_on_c, 0, 82, 80
1, 204240, Note_on_c, 0, 79, 80
1, 204456, Note_on_c, 0, 76, 0
1, 204456, Note_on_c, 0, 82, 0
1, 204456, Note_on_c, 0, 79, 0
1, 204480, Note_on_c, 0, 82, 80
1, 204480, Note_on_c, 0, 76, 80
1, 204480, Note_on_c, 0, 79, 80
1, 204480, Note_on_c, 1, 36, 80
1, 204696, Note_on_c, 1, 36, 0
1, 204720, Note_on_c, 1, 40, 80
1, 204936, Note_on_c, 1, 40, 0
1, 204960, Note_on_c, 1, 43, 80
1, 205176, Note_on_c, 1, 43, 0
1, 205200, Note_on_c, 1, 48, 80
1, 205416, Note_on_c, 1, 48, 0
1, 205440, Note_on_c, 1, 52, 80
1, 205656, Note_on_c, 1, 52, 0
1, 205680, Note_on_c, 1, 55, 80
1, 205776, Note_on_c, 0, 82, 0
1, 205776, Note_on_c, 0, 76, 0
1, 205776, Note_on_c, 0, 79, 0
1, 205896, Note_on_c, 1, 55, 0
1, 205920, Note_on_c, 0, 82, 80
1, 205920, Note_on_c, 1, 60, 80
1, 206028, Note_on_c, 0, 82, 0
1, 206040, Note_on_c, 0, 84, 80
1, 206136, Note_on_c, 1, 60, 0
1, 206148, Note_on_c, 0, 84, 0
1, 206160, Note_on_c, 0, 86, 80
1, 206268, Note_on_c, 0, 86, 0
1, 206280, Note_on_c, 0, 84, 80
1, 206388, Note_on_c, 0, 84, 0
1, 206400, Note_on_c, 0, 82, 80
1, 206508, Note_on_c, 0, 82, 0
1, 206520, Note_on_c, 0, 81, 80
1, 206628, Note_on_c, 0, 81, 0
1, 206640, Note_on_c, 0, 79, 80
1, 206748, Note_on_c, 0, 79, 0
1, 206760, Note_on_c, 0, 81, 80
1, 206868, Note_on_c, 0, 81, 0
1, 206880, Note_on_c, 0, 82, 80
1, 206988, Note_on_c, 0, 82, 0
1, 207000, Note_on_c, 0, 81, 80
1, 207108, Note_on_c, 0, 81, 0
1, 207120, Note_on_c, 0, 79, 80
1, 207228, Note_on_c, 0, 79, 0
1, 207240, Note_on_c, 0, 77, 80
1, 207348, Note_on_c, 0, 77, 0
1, 207360, Note_on_c, 0, 76, 80
1, 207468, Note_on_c, 0, 76, 0
1, 207480, Note_on_c, 0, 77, 80
1, 207588, Note_on_c, 0, 77, 0
1, 207600, Note_on_c, 0, 79, 80
1, 207708, Note_on_c, 0, 79, 0
1, 207720, Note_on_c, 0, 77, 80
1, 207828, Note_on_c, 0, 77, 0
1, 207840, Note_on_c, 0, 76, 80
1, 207948, Note_on_c, 0, 76, 0
1, 207960, Note_on_c, 0, 74, 80
1, 208068, Note_on_c, 0, 74, 0
1, 208080, Note_on_c, 0, 72, 80
1, 208188, Note_on_c, 0, 72, 0
1, 208200, Note_on_c, 0, 73, 80
1, 208308, Note_on_c, 0, 73, 0
1, 208320, Note_on_c, 0, 74, 80
1, 208428, Note_on_c, 0, 74, 0
1, 208440, Note_on_c, 0, 72, 80
1, 208548, Note_on_c, 0, 72, 0
1, 208560, Note_on_c, 0, 70, 80
1, 208668, Note_on_c, 0, 70, 0
1, 208680, Note_on_c, 0, 69, 80
1, 208788, Note_on_c, 0, 69, 0
1, 208800, Note_on_c, 0, 67, 80
1, 208908, Note_on_c, 0, 67, 0
1, 208920, Note_on_c, 0, 69, 80
1, 209028, Note_on_c, 0, 69, 0
1, 209040, Note_on_c, 0, 70, 80
1, 209148, Note_on_c, 0, 70, 0
1, 209160, Note_on_c, 0, 69, 80
1, 209268, Note_on_c, 0, 69, 0
1, 209280, Note_on_c, 0, 67, 80
1, 209388, Note_on_c, 0, 67, 0
1, 209400, Note_on_c, 0, 65, 80
1, 209508, Note_on_c, 0, 65, 0
1, 209520, Note_on_c, 0, 64, 80
1, 209628, Note_on_c, 0, 64, 0
1, 209640, Note_on_c, 0, 65, 80
1, 209748, Note_on_c, 0, 65, 0
1, 209760, Note_on_c, 0, 67, 80
1, 209868, Note_on_c, 0, 67, 0
1, 209880, Note_on_c, 0, 65, 80
1, 209988, Note_on_c, 0, 65, 0
1, 210000, Note_on_c, 0, 64, 80
1, 210108, Note_on_c, 0, 64, 0
1, 210120, Note_on_c, 0, 62, 80
1, 210228, Note_on_c, 0, 62, 0
1, 210240, Note_on_c, 1, 60, 80
1, 210348, Note_on_c, 1, 60, 0
1, 210360, Note_on_c, 1, 61, 80
1, 210468, Note_on_c, 1, 61, 0
1, 210480, Note_on_c, 1, 62, 80
1, 210588, Note_on_c, 1, 62, 0
1, 210600, Note_on_c, 1, 60, 80
1, 210708, Note_on_c, 1, 60, 0
1, 210720, Note_on_c, 1, 58, 80
1, 210828, Note_on_c, 1, 58, 0
1, 210840, Note_on_c, 1, 57, 80
1, 210948, Note_on_c, 1, 57, 0
1, 210960, Note_on_c, 1, 55, 80
1, 211068, Note_on_c, 1, 55, 0
1, 211080, Note_on_c, 1, 57, 80
1, 211188, Note_on_c, 1, 57, 0
1, 211200, Note_on_c, 1, 58, 80
1, 211308, Note_on_c, 1, 58, 0
1, 211320, Note_on_c, 1, 57, 80
1, 211428, Note_on_c, 1, 57, 0
1, 211440, Note_on_c, 1, 55, 80
1, 211548, Note_on_c, 1, 55, 0
1, 211560, Note_on_c, 1, 53, 80
1, 211668, Note_on_c, 1, 53, 0
1, 211680, Note_on_c, 1, 52, 80
1, 211788, Note_on_c, 1, 52, 0
1, 211800, Note_on_c, 1, 53, 80
1, 211908, Note_on_c, 1, 53, 0
1, 211920, Note_on_c, 1, 55, 80
1, 212028, Note_on_c, 1, 55, 0
1, 212040, Note_on_c, 1, 53, 80
1, 212148, Note_on_c, 1, 53, 0
1, 212160, Note_on_c, 1, 52, 80
1, 212268, Note_on_c, 1, 52, 0
1, 212280, Note_on_c, 1, 50, 80
1, 212388, Note_on_c, 1, 50, 0
1, 212400, Note_on_c, 1, 48, 80
1, 212508, Note_on_c, 1, 48, 0
1, 212520, Note_on_c, 1, 50, 80
1, 212628, Note_on_c, 1, 50, 0
1, 212640, Note_on_c, 1, 48, 80
1, 212748, Note_on_c, 1, 48, 0
1, 212760, Note_on_c, 1, 46, 80
1, 212868, Note_on_c, 1, 46, 0
1, 212880, Note_on_c, 1, 45, 80
1, 212988, Note_on_c, 1, 45, 0
1, 213000, Note_on_c, 1, 43, 80
1, 213108, Note_on_c, 1, 43, 0
1, 213120, Note_on_c, 1, 48, 80
1, 213120, Note_on_c, 1, 45, 80
1, 213120, Note_on_c, 1, 53, 80
1, 213120, Note_on_c, 1, 41, 80
1, 213240, Note_on_c, 0, 84, 80
1, 213348, Note_on_c, 0, 84, 0
1, 213360, Note_on_c, 0, 83, 80
1, 213468, Note_on_c, 0, 83, 0
1, 213480, Note_on_c, 0, 84, 80
1, 213552, Note_on_c, 1, 48, 0
1, 213552, Note_on_c, 1, 45, 0
1, 213552, Note_on_c, 1, 53, 0
1, 213552, Note_on_c, 1, 41, 0
1, 213588, Note_on_c, 0, 84, 0
1, 213600, Note_on_c, 0, 89, 80
1, 213708, Note_on_c, 0, 89, 0
1, 213720, Note_on_c, 0, 84, 80
1, 213828, Note_on_c, 0, 84, 0
1, 213840, Note_on_c, 0, 82, 80
1, 213948, Note_on_c, 0, 82, 0
1, 213960, Note_on_c, 0, 81, 80
1, 214068, Note_on_c, 0, 81, 0
1, 214080, Note_on_c, 0, 80, 80
1, 214188, Note_on_c, 0, 80, 0
1, 214200, Note_on_c, 0, 81, 80
1, 214308, Note_on_c, 0, 81, 0
1, 214320, Note_on_c, 0, 84, 80
1, 214428, Note_on_c, 0, 84, 0
1, 214440, Note_on_c, 0, 81, 80
1, 214548, Note_on_c, 0, 81, 0
1, 214560, Note_on_c, 0, 79, 80
1, 214668, Note_on_c, 0, 79, 0
1, 214680, Note_on_c, 0, 77, 80
1, 214788, Note_on_c, 0, 77, 0
1, 214800, Note_on_c, 0, 76, 80
1, 214908, Note_on_c, 0, 76, 0
1, 214920, Note_on_c, 0, 77, 80
1, 215028, Note_on_c, 0, 77, 0
1, 215040, Note_on_c, 0, 81, 80
1, 215148, Note_on_c, 0, 81, 0
1, 215160, Note_on_c, 0, 77, 80
1, 215268, Note_on_c, 0, 77, 0
1, 215280, Note_on_c, 0, 74, 80
1, 215388, Note_on_c, 0, 74, 0
1, 215400, Note_on_c, 0, 72, 80
1, 215508, Note_on_c, 0, 72, 0
1, 215520, Note_on_c, 0, 74, 80
1, 215628, Note_on_c, 0, 74, 0
1, 215640, Note_on_c, 0, 72, 80
1, 215748, Note_on_c, 0, 72, 0
1, 215760, Note_on_c, 0, 77, 80
1, 215868, Note_on_c, 0, 77, 0
1, 215880, Note_on_c, 0, 72, 80
1, 215988, Note_on_c, 0, 72, 0
1, 216000, Note_on_c, 0, 70, 80
1, 216108, Note_on_c, 0, 70, 0
1, 216120, Note_on_c, 0, 69, 80
1, 216228, Note_on_c, 0, 69, 0
1, 216240, Note_on_c, 0, 68, 80
1, 216348, Note_on_c, 0, 68, 0
1, 216360, Note_on_c, 0, 69, 80
1, 216468, Note_on_c, 0, 69, 0
1, 216480, Note_on_c, 0, 72, 80
1, 216588, Note_on_c, 0, 72, 0
1, 216600, Note_on_c, 0, 69, 80
1, 216708, Note_on_c, 0, 69, 0
1, 216720, Note_on_c, 0, 65, 80
1, 216720, Note_on_c, 1, 57, 80
1, 216828, Note_on_c, 0, 65, 0
1, 216840, Note_on_c, 0, 77, 80
1, 216936, Note_on_c, 1, 57, 0
1, 216948, Note_on_c, 0, 77, 0
1, 216960, Note_on_c, 0, 64, 80
1, 216960, Note_on_c, 1, 55, 80
1, 217068, Note_on_c, 0, 64, 0
1, 217080, Note_on_c, 0, 77, 80
1, 217176, Note_on_c, 1, 55, 0
1, 217188, Note_on_c, 0, 77, 0
1, 217200, Note_on_c, 0, 65, 80
1, 217200, Note_on_c, 1, 57, 80
1, 217308, Note_on_c, 0, 65, 0
1, 217320, Note_on_c, 0, 77, 80
1, 217416, Note_on_c, 1, 57, 0
1, 217428, Note_on_c, 0, 77, 0
1, 217440, Note_on_c, 0, 67, 80
1, 217440, Note_on_c, 1, 58, 80
1, 217548, Note_on_c, 0, 67, 0
1, 217560, Note_on_c, 0, 77, 80
1, 217656, Note_on_c, 1, 58, 0
1, 217668, Note_on_c, 0, 77, 0
1, 217680, Note_on_c, 0, 65, 80
1, 217680, Note_on_c, 1, 57, 80
1, 217788, Note_on_c, 0, 65, 0
1, 217800, Note_on_c, 0, 77, 80
1, 217896, Note_on_c, 1, 57, 0
1, 217908, Note_on_c, 0, 77, 0
1, 217920, Note_on_c, 0, 67, 80
1, 217920, Note_on_c, 1, 58, 80
1, 218028, Note_on_c, 0, 67, 0
1, 218040, Note_on_c, 0, 77, 80
1, 218136, Note_on_c, 1, 58, 0
1, 218148, Note_on_c, 0, 77, 0
1, 218160, Note_on_c, 0, 69, 80
1, 218160, Note_on_c, 1, 60, 80
1, 218268, Note_on_c, 0, 69, 0
1, 218280, Note_on_c, 0, 77, 80
1, 218376, Note_on_c, 1, 60, 0
1, 218388, Note_on_c, 0, 77, 0
1, 218400, Note_on_c, 0, 67, 80
1, 218400, Note_on_c, 1, 58, 80
1, 218508, Note_on_c, 0, 67, 0
1, 218520, Note_on_c, 0, 77, 80
1, 218616, Note_on_c, 1, 58, 0
1, 218628, Note_on_c, 0, 77, 0
1, 218640, Note_on_c, 0, 69, 80
1, 218640, Note_on_c, 1, 60, 80
1, 218748, Note_on_c, 0, 69, 0
1, 218760, Note_on_c, 0, 77, 80
1, 218856, Note_on_c, 1, 60, 0
1, 218868, Note_on_c, 0, 77, 0
1, 218880, Note_on_c, 0, 70, 80
1, 218880, Note_on_c, 1, 61, 80
1, 218988, Note_on_c, 0, 70, 0
1, 219000, Note_on_c, 0, 77, 80
1, 219108, Note_on_c, 0, 77, 0
1, 219120, Note_on_c, 0, 70, 80
1, 219228, Note_on_c, 0, 70, 0
1, 219240, Note_on_c, 0, 77, 80
1, 219312, Note_on_c, 1, 61, 0
1, 219348, Note_on_c, 0, 77, 0
1, 219360, Note_on_c, 0, 69, 80
1, 219360, Note_on_c, 1, 60, 80
1, 219468, Note_on_c, 0, 69, 0
1, 219480, Note_on_c, 0, 77, 80
1, 219576, Note_on_c, 1, 60, 0
1, 219588, Note_on_c, 0, 77, 0
1, 219600, Note_on_c, 0, 70, 80
1, 219600, Note_on_c, 1, 61, 80
1, 219708, Note_on_c, 0, 70, 0
1, 219720, Note_on_c, 0, 77, 80
1, 219828, Note_on_c, 0, 77, 0
1, 219840, Note_on_c, 0, 70, 80
1, 219948, Note_on_c, 0, 70, 0
1, 219960, Note_on_c, 0, 77, 80
1, 220032, Note_on_c, 1, 61, 0
1, 220068, Note_on_c, 0, 77, 0
1, 220080, Note_on_c, 0, 69, 80
1, 220080, Note_on_c, 1, 60, 80
1, 220188, Note_on_c, 0, 69, 0
1, 220200, Note_on_c, 0, 77, 80
1, 220296, Note_on_c, 1, 60, 0
1, 220308, Note_on_c, 0, 77, 0
1, 220320, Note_on_c, 0, 68, 80
1, 220320, Note_on_c, 1, 59, 80
1, 220428, Note_on_c, 0, 68, 0
1, 220440, Note_on_c, 0, 77, 80
1, 220536, Note_on_c, 1, 59, 0
1, 220548, Note_on_c, 0, 77, 0
1, 220560, Note_on_c, 0, 68, 80
1, 220560, Note_on_c, 1, 59, 80
1, 220668, Note_on_c, 0, 68, 0
1, 220680, Note_on_c, 0, 77, 80
1, 220776, Note_on_c, 1, 59, 0
1, 220788, Note_on_c, 0, 77, 0
1, 220800, Note_on_c, 0, 68, 80
1, 220800, Note_on_c, 1, 59, 80
1, 220908, Note_on_c, 0, 68, 0
1, 220920, Note_on_c, 0, 77, 80
1, 221016, Note_on_c, 1, 59, 0
1, 221028, Note_on_c, 0, 77, 0
1, 221040, Note_on_c, 0, 67, 80
1, 221040, Note_on_c, 0, 76, 80
1, 221040, Note_on_c, 1, 60, 80
1, 221256, Note_on_c, 0, 67, 0
1, 221256, Note_on_c, 0, 76, 0
1, 221256, Note_on_c, 1, 60, 0
1, 221760, Note_on_c, 1, 48, 80
1, 221760, Note_on_c, 1, 45, 80
1, 221760, Note_on_c, 1, 53, 80
1, 221760, Note_on_c, 1, 41, 80
1, 221880, Note_on_c, 0, 84, 80
1, 221988, Note_on_c, 0, 84, 0
1, 222000, Note_on_c, 0, 83, 80
1, 222108, Note_on_c, 0, 83, 0
1, 222120, Note_on_c, 0, 84, 80
1, 222192, Note_on_c, 1, 48, 0
1, 222192, Note_on_c, 1, 45, 0
1, 222192, Note_on_c, 1, 53, 0
1, 222192, Note_on_c, 1, 41, 0
1, 222228, Note_on_c, 0, 84, 0
1, 222240, Note_on_c, 0, 89, 80
1, 222348, Note_on_c, 0, 89, 0
1, 222360, Note_on_c, 0, 84, 80
1, 222468, Note_on_c, 0, 84, 0
1, 222480, Note_on_c, 0, 82, 80
1, 222588, Note_on_c, 0, 82, 0
1, 222600, Note_on_c, 0, 81, 80
1, 222708, Note_on_c, 0, 81, 0
1, 222720, Note_on_c, 0, 80, 80
1, 222828, Note_on_c, 0, 80, 0
1, 222840, Note_on_c, 0, 81, 80
1, 222948, Note_on_c, 0, 81, 0
1, 222960, Note_on_c, 0, 84, 80
1, 223068, Note_on_c, 0, 84, 0
1, 223080, Note_on_c, 0, 81, 80
1, 223188, Note_on_c, 0, 81, 0
1, 223200, Note_on_c, 0, 79, 80
1, 223308, Note_on_c, 0, 79, 0
1, 223320, Note_on_c, 0, 77, 80
1, 223428, Note_on_c, 0, 77, 0
1, 223440, Note_on_c, 0, 76, 80
1, 223548, Note_on_c, 0, 76, 0
1, 223560, Note_on_c, 0, 77, 80
1, 223668, Note_on_c, 0, 77, 0
1, 223680, Note_on_c, 0, 81, 80
1, 223788, Note_on_c, 0, 81, 0
1, 223800, Note_on_c, 0, 77, 80
1, 223908, Note_on_c, 0, 77, 0
1, 223920, Note_on_c, 0, 74, 80
1, 224028, Note_on_c, 0, 74, 0
1, 224040, Note_on_c, 0, 72, 80
1, 224148, Note_on_c, 0, 72, 0
1, 224160, Note_on_c, 0, 74, 80
1, 224268, Note_on_c, 0, 74, 0
1, 224280, Note_on_c, 0, 72, 80
1, 224388, Note_on_c, 0, 72, 0
1, 224400, Note_on_c, 0, 77, 80
1, 224508, Note_on_c, 0, 77, 0
1, 224520, Note_on_c, 0, 72, 80
1, 224628, Note_on_c, 0, 72, 0
1, 224640, Note_on_c, 0, 70, 80
1, 224748, Note_on_c, 0, 70, 0
1, 224760, Note_on_c, 0, 69, 80
1, 224868, Note_on_c, 0, 69, 0
1, 224880, Note_on_c, 0, 68, 80
1, 224988, Note_on_c, 0, 68, 0
1, 225000, Note_on_c, 0, 69, 80
1, 225108, Note_on_c, 0, 69, 0
1, 225120, Note_on_c, 0, 72, 80
1, 225228, Note_on_c, 0, 72, 0
1, 225240, Note_on_c, 0, 69, 80
1, 225348, Note_on_c, 0, 69, 0
1, 225360, Note_on_c, 0, 65, 80
1, 225360, Note_on_c, 1, 57, 80
1, 225468, Note_on_c, 0, 65, 0
1, 225480, Note_on_c, 0, 77, 80
1, 225576, Note_on_c, 1, 57, 0
1, 225588, Note_on_c, 0, 77, 0
1, 225600, Note_on_c, 0, 64, 80
1, 225600, Note_on_c, 1, 55, 80
1, 225708, Note_on_c, 0, 64, 0
1, 225720, Note_on_c, 0, 77, 80
1, 225816, Note_on_c, 1, 55, 0
1, 225828, Note_on_c, 0, 77, 0
1, 225840, Note_on_c, 0, 65, 80
1, 225840, Note_on_c, 1, 57, 80
1, 225948, Note_on_c, 0, 65, 0
1, 225960, Note_on_c, 0, 77, 80
1, 226056, Note_on_c, 1, 57, 0
1, 226068, Note_on_c, 0, 77, 0
1, 226080, Note_on_c, 0, 67, 80
1, 226080, Note_on_c, 1, 58, 80
1, 226188, Note_on_c, 0, 67, 0
1, 226200, Note_on_c, 0, 77, 80
1, 226296, Note_on_c, 1, 58, 0
1, 226308, Note_on_c, 0, 77, 0
1, 226320, Note_on_c, 0, 65, 80
1, 226320, Note_on_c, 1, 57, 80
1, 226428, Note_on_c, 0, 65, 0
1, 226440, Note_on_c, 0, 77, 80
1, 226536, Note_on_c, 1, 57, 0
1, 226548, Note_on_c, 0, 77, 0
1, 226560, Note_on_c, 0, 67, 80
1, 226560, Note_on_c, 1, 58, 80
1, 226668, Note_on_c, 0, 67, 0
1, 226680, Note_on_c, 0, 77, 80
1, 226776, Note_on_c, 1, 58, 0
1, 226788, Note_on_c, 0, 77, 0
1, 226800, Note_on_c, 0, 69, 80
1, 226800, Note_on_c, 1, 60, 80
1, 226908, Note_on_c, 0, 69, 0
1, 226920, Note_on_c, 0, 77, 80
1, 227016, Note_on_c, 1, 60, 0
1, 227028, Note_on_c, 0, 77, 0
1, 227040, Note_on_c, 0, 67, 80
1, 227040, Note_on_c, 1, 58, 80
1, 227148, Note_on_c, 0, 67, 0
1, 227160, Note_on_c, 0, 77, 80
1, 227256, Note_on_c, 1, 58, 0
1, 227268, Note_on_c, 0, 77, 0
1, 227280, Note_on_c, 0, 69, 80
1, 227280, Note_on_c, 1, 60, 80
1, 227388, Note_on_c, 0, 69, 0
1, 227400, Note_on_c, 0, 77, 80
1, 227496, Note_on_c, 1, 60, 0
1, 227508, Note_on_c, 0, 77, 0
1, 227520, Note_on_c, 0, 70, 80
1, 227520, Note_on_c, 1, 61, 80
1, 227628, Note_on_c, 0, 70, 0
1, 227640, Note_on_c, 0, 77, 80
1, 227748, Note_on_c, 0, 77, 0
1, 227760, Note_on_c, 0, 70, 80
1, 227868, Note_on_c, 0, 70, 0
1, 227880, Note_on_c, 0, 77, 80
1, 227952, Note_on_c, 1, 61, 0
1, 227988, Note_on_c, 0, 77, 0
1, 228000, Note_on_c, 0, 69, 80
1, 228000, Note_on_c, 1, 60, 80
1, 228108, Note_on_c, 0, 69, 0
1, 228120, Note_on_c, 0, 77, 80
1, 228216, Note_on_c, 1, 60, 0
1, 228228, Note_on_c, 0, 77, 0
1, 228240, Note_on_c, 0, 70, 80
1, 228240, Note_on_c, 1, 61, 80
1, 228348, Note_on_c, 0, 70, 0
1, 228360, Note_on_c, 0, 77, 80
1, 228468, Note_on_c, 0, 77, 0
1, 228480, Note_on_c, 0, 70, 80
1, 228588, Note_on_c, 0, 70, 0
1, 228600, Note_on_c, 0, 77, 80
1, 228672, Note_on_c, 1, 61, 0
1, 228708, Note_on_c, 0, 77, 0
1, 228720, Note_on_c, 0, 69, 80
1, 228720, Note_on_c, 1, 60, 80
1, 228828, Note_on_c, 0, 69, 0
1, 228840, Note_on_c, 0, 77, 80
1, 228936, Note_on_c, 1, 60, 0
1, 228948, Note_on_c, 0, 77, 0
1, 228960, Note_on_c, 0, 68, 80
1, 228960, Note_on_c, 1, 59, 80
1, 229068, Note_on_c, 0, 68, 0
1, 229080, Note_on_c, 0, 77, 80
1, 229176, Note_on_c, 1, 59, 0
1, 229188, Note_on_c, 0, 77, 0
1, 229680, Note_on_c, 0, 67, 80
1, 229680, Note_on_c, 1, 58, 80
1, 229788, Note_on_c, 0, 67, 0
1, 229800, Note_on_c, 0, 76, 80
1, 229896, Note_on_c, 1, 58, 0
1, 229908, Note_on_c, 0, 76, 0
1, 230400, Note_on_c, 0, 66, 80
1, 230400, Note_on_c, 1, 57, 80
1, 230508, Note_on_c, 0, 66, 0
1, 230520, Note_on_c, 0, 75, 80
1, 230616, Note_on_c, 1, 57, 0
1, 230628, Note_on_c, 0, 75, 0
1, 231120, Note_on_c, 1, 46, 80
1, 231228, Note_on_c, 1, 46, 0
1, 231240, Note_on_c, 1, 58, 80
1, 231348, Note_on_c, 1, 58, 0
1, 231360, Note_on_c, 0, 62, 80
1, 231468, Note_on_c, 0, 62, 0
1, 231480, Note_on_c, 0, 67, 80
1, 231588, Note_on_c, 0, 67, 0
1, 231600, Note_on_c, 0, 70, 80
1, 231708, Note_on_c, 0, 70, 0
1, 231720, Note_on_c, 0, 74, 80
1, 231828, Note_on_c, 0, 74, 0
1, 231840, Note_on_c, 0, 72, 80
1, 231840, Note_on_c, 1, 58, 80
1, 231840, Note_on_c, 1, 48, 80
1, 231840, Note_on_c, 1, 55, 80
1, 231948, Note_on_c, 0, 72, 0
1, 231960, Note_on_c, 0, 70, 80
1, 232068, Note_on_c, 0, 70, 0
1, 232080, Note_on_c, 0, 69, 80
1, 232188, Note_on_c, 0, 69, 0
1, 232200, Note_on_c, 0, 67, 80
1, 232308, Note_on_c, 0, 67, 0
1, 232320, Note_on_c, 0, 65, 80
1, 232428, Note_on_c, 0, 65, 0
1, 232440, Note_on_c, 0, 64, 80
1, 232488, Note_on_c, 1, 58, 0
1, 232488, Note_on_c, 1, 48, 0
1, 232488, Note_on_c, 1, 55, 0
1, 232548, Note_on_c, 0, 64, 0
1, 232560, Note_on_c, 0, 65, 80
1, 232560, Note_on_c, 1, 53, 80
1, 232560, Note_on_c, 1, 57, 80
1, 232776, Note_on_c, 0, 65, 0
1, 232776, Note_on_c, 1, 53, 0
1, 232776, Note_on_c, 1, 57, 0
1, 232800, Note_on_c, 0, 60, 80
1, 233016, Note_on_c, 0, 60, 0
1, 233040, Note_on_c, 0, 60, 80
1, 233220, Note_on_c, 0, 64, 80
1, 233256, Note_on_c, 0, 60, 0
1, 233274, Note_on_c, 0, 64, 0
1, 233280, Note_on_c, 0, 70, 80
1, 233280, Note_on_c, 1, 48, 80
1, 233496, Note_on_c, 1, 48, 0
1, 233520, Note_on_c, 1, 60, 80
1, 233520, Note_on_c, 1, 58, 80
1, 233736, Note_on_c, 1, 60, 0
1, 233736, Note_on_c, 1, 58, 0
1, 233760, Note_on_c, 1, 60, 80
1, 233760, Note_on_c, 1, 58, 80
1, 233928, Note_on_c, 0, 70, 0
1, 233976, Note_on_c, 1, 60, 0
1, 233976, Note_on_c, 1, 58, 0
1, 234000, Note_on_c, 0, 70, 80
1, 234000, Note_on_c, 1, 60, 80
1, 234000, Note_on_c, 1, 58, 80
1, 234216, Note_on_c, 0, 70, 0
1, 234216, Note_on_c, 1, 60, 0
1, 234216, Note_on_c, 1, 58, 0
1, 234240, Note_on_c, 0, 69, 80
1, 234240, Note_on_c, 1, 60, 80
1, 234240, Note_on_c, 1, 58, 80
1, 234456, Note_on_c, 0, 69, 0
1, 234456, Note_on_c, 1, 60, 0
1, 234456, Note_on_c, 1, 58, 0
1, 234480, Note_on_c, 0, 67, 80
1, 234480, Note_on_c, 1, 60, 80
1, 234480, Note_on_c, 1, 58, 80
1, 234696, Note_on_c, 0, 67, 0
1, 234696, Note_on_c, 1, 60, 0
1, 234696, Note_on_c, 1, 58, 0
1, 234720, Note_on_c, 0, 67, 80
1, 234720, Note_on_c, 1, 53, 80
1, 234936, Note_on_c, 1, 53, 0
1, 234960, Note_on_c, 1, 60, 80
1, 234960, Note_on_c, 1, 57, 80
1, 235152, Note_on_c, 0, 67, 0
1, 235176, Note_on_c, 1, 60, 0
1, 235176, Note_on_c, 1, 57, 0
1, 235200, Note_on_c, 0, 65, 80
1, 235200, Note_on_c, 1, 60, 80
1, 235200, Note_on_c, 1, 57, 80
1, 235416, Note_on_c, 0, 65, 0
1, 235416, Note_on_c, 1, 60, 0
1, 235416, Note_on_c, 1, 57, 0
1, 235440, Note_on_c, 0, 65, 80
1, 235440, Note_on_c, 1, 60, 80
1, 235440, Note_on_c, 1, 57, 80
1, 235656, Note_on_c, 1, 60, 0
1, 235656, Note_on_c, 1, 57, 0
1, 235680, Note_on_c, 1, 60, 80
1, 235680, Note_on_c, 1, 57, 80
1, 235896, Note_on_c, 1, 60, 0
1, 235896, Note_on_c, 1, 57, 0
1, 235920, Note_on_c, 1, 60, 80
1, 235920, Note_on_c, 1, 57, 80
1, 236088, Note_on_c, 0, 65, 0
1, 236100, Note_on_c, 0, 64, 80
1, 236136, Note_on_c, 1, 60, 0
1, 236136, Note_on_c, 1, 57, 0
1, 236154, Note_on_c, 0, 64, 0
1, 236160, Note_on_c, 0, 70, 80
1, 236160, Note_on_c, 1, 48, 80
1, 236376, Note_on_c, 1, 48, 0
1, 236400, Note_on_c, 1, 60, 80
1, 236400, Note_on_c, 1, 55, 80
1, 236616, Note_on_c, 1, 60, 0
1, 236616, Note_on_c, 1, 55, 0
1, 236640, Note_on_c, 1, 60, 80
1, 236640, Note_on_c, 1, 55, 80
1, 236808, Note_on_c, 0, 70, 0
1, 236856, Note_on_c, 1, 60, 0
1, 236856, Note_on_c, 1, 55, 0
1, 236880, Note_on_c, 0, 70, 80
1, 236880, Note_on_c, 1, 60, 80
1, 236880, Note_on_c, 1, 55, 80
1, 237096, Note_on_c, 0, 70, 0
1, 237096, Note_on_c, 1, 60, 0
1, 237096, Note_on_c, 1, 55, 0
1, 237120, Note_on_c, 0, 69, 80
1, 237120, Note_on_c, 1, 60, 80
1, 237120, Note_on_c, 1, 55, 80
1, 237336, Note_on_c, 0, 69, 0
1, 237336, Note_on_c, 1, 60, 0
1, 237336, Note_on_c, 1, 55, 0
1, 237360, Note_on_c, 0, 67, 80
1, 237360, Note_on_c, 1, 60, 80
1, 237360, Note_on_c, 1, 55, 80
1, 237576, Note_on_c, 0, 67, 0
1, 237576, Note_on_c, 1, 60, 0
1, 237576, Note_on_c, 1, 55, 0
1, 237600, Note_on_c, 0, 71, 80
1, 237600, Note_on_c, 1, 53, 80
1, 237654, Note_on_c, 0, 71, 0
1, 237816, Note_on_c, 1, 53, 0
1, 237840, Note_on_c, 1, 60, 80
1, 237840, Note_on_c, 1, 57, 80
1, 238056, Note_on_c, 1, 60, 0
1, 238056, Note_on_c, 1, 57, 0
1, 238080, Note_on_c, 1, 60, 80
1, 238080, Note_on_c, 1, 57, 80
1, 238296, Note_on_c, 1, 60, 0
1, 238296, Note_on_c, 1, 57, 0
1, 238320, Note_on_c, 0, 72, 80
1, 238320, Note_on_c, 1, 60, 80
1, 238320, Note_on_c, 1, 57, 80
1, 238536, Note_on_c, 0, 72, 0
1, 238536, Note_on_c, 1, 60, 0
1, 238536, Note_on_c, 1, 57, 0
1, 238560, Note_on_c, 1, 60, 80
1, 238560, Note_on_c, 1, 57, 80
1, 238776, Note_on_c, 1, 60, 0
1, 238776, Note_on_c, 1, 57, 0
1, 238800, Note_on_c, 1, 60, 80
1, 238800, Note_on_c, 1, 57, 80
1, 238980, Note_on_c, 0, 64, 80
1, 239016, Note_on_c, 1, 60, 0
1, 239016, Note_on_c, 1, 57, 0
1, 239034, Note_on_c, 0, 64, 0
1, 239040, Note_on_c, 0, 70, 80
1, 239040, Note_on_c, 1, 48, 80
1, 239256, Note_on_c, 1, 48, 0
1, 239280, Note_on_c, 1, 60, 80
1, 239280, Note_on_c, 1, 58, 80
1, 239496, Note_on_c, 1, 60, 0
1, 239496, Note_on_c, 1, 58, 0
1, 239520, Note_on_c, 1, 60, 80
1, 239520, Note_on_c, 1, 58, 80
1, 239688, Note_on_c, 0, 70, 0
1, 239736, Note_on_c, 1, 60, 0
1, 239736, Note_on_c, 1, 58, 0
1, 239760, Note_on_c, 0, 70, 80
1, 239760, Note_on_c, 1, 60, 80
1, 239760, Note_on_c, 1, 58, 80
1, 239976, Note_on_c, 0, 70, 0
1, 239976, Note_on_c, 1, 60, 0
1, 239976, Note_on_c, 1, 58, 0
1, 240000, Note_on_c, 0, 69, 80
1, 240000, Note_on_c, 1, 60, 80
1, 240000, Note_on_c, 1, 58, 80
1, 240216, Note_on_c, 0, 69, 0
1, 240216, Note_on_c, 1, 60, 0
1, 240216, Note_on_c, 1, 58, 0
1, 240240, Note_on_c, 0, 67, 80
1, 240240, Note_on_c, 1, 60, 80
1, 240240, Note_on_c, 1, 58, 80
1, 240456, Note_on_c, 0, 67, 0
1, 240456, Note_on_c, 1, 60, 0
1, 240456, Note_on_c, 1, 58, 0
1, 240480, Note_on_c, 0, 65, 80
1, 240480, Note_on_c, 1, 53, 80
1, 240696, Note_on_c, 1, 53, 0
1, 240720, Note_on_c, 1, 60, 80
1, 240720, Note_on_c, 1, 57, 80
1, 240912, Note_on_c, 0, 65, 0
1, 240936, Note_on_c, 1, 60, 0
1, 240936, Note_on_c, 1, 57, 0
1, 240960, Note_on_c, 0, 69, 80
1, 240960, Note_on_c, 1, 60, 80
1, 240960, Note_on_c, 1, 57, 80
1, 241176, Note_on_c, 0, 69, 0
1, 241176, Note_on_c, 1, 60, 0
1, 241176, Note_on_c, 1, 57, 0
1, 241200, Note_on_c, 0, 69, 80
1, 241200, Note_on_c, 1, 60, 80
1, 241200, Note_on_c, 1, 57, 80
1, 241416, Note_on_c, 1, 60, 0
1, 241416, Note_on_c, 1, 57, 0
1, 241440, Note_on_c, 1, 60, 80
1, 241440, Note_on_c, 1, 57, 80
1, 241632, Note_on_c, 0, 69, 0
1, 241656, Note_on_c, 1, 60, 0
1, 241656, Note_on_c, 1, 57, 0
1, 241680, Note_on_c, 0, 72, 80
1, 241680, Note_on_c, 1, 60, 80
1, 241680, Note_on_c, 1, 57, 80
1, 241896, Note_on_c, 0, 72, 0
1, 241896, Note_on_c, 1, 60, 0
1, 241896, Note_on_c, 1, 57, 0
1, 241920, Note_on_c, 0, 72, 80
1, 241920, Note_on_c, 1, 48, 80
1, 242136, Note_on_c, 1, 48, 0
1, 242160, Note_on_c, 1, 60, 80
1, 242160, Note_on_c, 1, 55, 80
1, 242352, Note_on_c, 0, 72, 0
1, 242376, Note_on_c, 1, 60, 0
1, 242376, Note_on_c, 1, 55, 0
1, 242400, Note_on_c, 0, 70, 80
1, 242400, Note_on_c, 1, 60, 80
1, 242400, Note_on_c, 1, 55, 80
1, 242616, Note_on_c, 0, 70, 0
1, 242616, Note_on_c, 1, 60, 0
1, 242616, Note_on_c, 1, 55, 0
1, 242640, Note_on_c, 0, 70, 80
1, 242640, Note_on_c, 1, 58, 80
1, 242640, Note_on_c, 1, 60, 80
1, 242856, Note_on_c, 1, 58, 0
1, 242856, Note_on_c, 1, 60, 0
1, 242880, Note_on_c, 1, 58, 80
1, 242880, Note_on_c, 1, 60, 80
1, 243072, Note_on_c, 0, 70, 0
1, 243096, Note_on_c, 1, 58, 0
1, 243096, Note_on_c, 1, 60, 0
1, 243120, Note_on_c, 0, 67, 80
1, 243120, Note_on_c, 1, 58, 80
1, 243120, Note_on_c, 1, 60, 80
1, 243336, Note_on_c, 0, 67, 0
1, 243336, Note_on_c, 1, 58, 0
1, 243336, Note_on_c, 1, 60, 0
1, 243360, Note_on_c, 0, 65, 80
1, 243360, Note_on_c, 1, 60, 80
1, 243360, Note_on_c, 1, 53, 80
1, 243360, Note_on_c, 1, 57, 80
1, 243576, Note_on_c, 0, 65, 0
1, 243576, Note_on_c, 1, 60, 0
1, 243576, Note_on_c, 1, 53, 0
1, 243576, Note_on_c, 1, 57, 0
1, 244080, Note_on_c, 0, 85, 80
1, 244080, Note_on_c, 0, 73, 80
1, 244080, Note_on_c, 1, 61, 80
1, 244080, Note_on_c, 1, 55, 80
1, 244080, Note_on_c, 1, 51, 80
1, 244728, Note_on_c, 0, 85, 0
1, 244728, Note_on_c, 0, 73, 0
1, 244728, Note_on_c, 1, 61, 0
1, 244728, Note_on_c, 1, 55, 0
1, 244728, Note_on_c, 1, 51, 0
1, 244800, Note_on_c, 0, 74, 80
1, 244800, Note_on_c, 0, 86, 80
1, 244800, Note_on_c, 1, 62, 80
1, 244800, Note_on_c, 1, 54, 80
1, 244800, Note_on_c, 1, 50, 80
1, 245232, Note_on_c, 1, 62, 0
1, 245232, Note_on_c, 1, 54, 0
1, 245232, Note_on_c, 1, 50, 0
1, 245448, Note_on_c, 0, 74, 0
1, 245448, Note_on_c, 0, 86, 0
1, 245520, Note_on_c, 0, 84, 80
1, 245520, Note_on_c, 0, 74, 80
1, 246168, Note_on_c, 0, 84, 0
1, 246168, Note_on_c, 0, 74, 0
1, 246240, Note_on_c, 0, 74, 80
1, 246240, Note_on_c, 0, 82, 80
1, 246240, Note_on_c, 1, 50, 80
1, 246240, Note_on_c, 1, 62, 80
1, 246888, Note_on_c, 0, 74, 0
1, 246888, Note_on_c, 0, 82, 0
1, 246888, Note_on_c, 1, 50, 0
1, 246888, Note_on_c, 1, 62, 0
1, 246960, Note_on_c, 0, 81, 80
1, 246960, Note_on_c, 0, 74, 80
1, 246960, Note_on_c, 1, 48, 80
1, 246960, Note_on_c, 1, 60, 80
1, 247608, Note_on_c, 0, 81, 0
1, 247608, Note_on_c, 0, 74, 0
1, 247608, Note_on_c, 1, 48, 0
1, 247608, Note_on_c, 1, 60, 0
1, 247680, Note_on_c, 0, 74, 80
1, 247680, Note_on_c, 0, 79, 80
1, 247680, Note_on_c, 1, 46, 80
1, 247680, Note_on_c, 1, 58, 80
1, 248328, Note_on_c, 0, 74, 0
1, 248328, Note_on_c, 0, 79, 0
1, 248328, Note_on_c, 1, 46, 0
1, 248328, Note_on_c, 1, 58, 0
1, 248400, Note_on_c, 0, 74, 80
1, 248400, Note_on_c, 0, 78, 80
1, 248400, Note_on_c, 0, 72, 80
1, 248400, Note_on_c, 1, 45, 80
1, 248400, Note_on_c, 1, 57, 80
1, 249048, Note_on_c, 0, 74, 0
1, 249048, Note_on_c, 0, 78, 0
1, 249048, Note_on_c, 0, 72, 0
1, 249048, Note_on_c, 1, 45, 0
1, 249048, Note_on_c, 1, 57, 0
1, 249120, Note_on_c, 0, 79, 80
1, 249120, Note_on_c, 1, 55, 80
1, 249228, Note_on_c, 0, 79, 0
1, 249240, Note_on_c, 0, 74, 80
1, 249336, Note_on_c, 1, 55, 0
1, 249348, Note_on_c, 0, 74, 0
1, 249360, Note_on_c, 0, 70, 80
1, 249360, Note_on_c, 1, 58, 80
1, 249468, Note_on_c, 0, 70, 0
1, 249480, Note_on_c, 0, 74, 80
1, 249576, Note_on_c, 1, 58, 0
1, 249588, Note_on_c, 0, 74, 0
1, 249600, Note_on_c, 0, 79, 80
1, 249600, Note_on_c, 1, 62, 80
1, 249708, Note_on_c, 0, 79, 0
1, 249720, Note_on_c, 0, 74, 80
1, 249816, Note_on_c, 1, 62, 0
1, 249828, Note_on_c, 0, 74, 0
1, 249840, Note_on_c, 0, 81, 80
1, 249840, Note_on_c, 1, 54, 80
1, 249948, Note_on_c, 0, 81, 0
1, 249960, Note_on_c, 0, 74, 80
1, 250056, Note_on_c, 1, 54, 0
1, 250068, Note_on_c, 0, 74, 0
1, 250080, Note_on_c, 0, 72, 80
1, 250080, Note_on_c, 1, 57, 80
1, 250188, Note_on_c, 0, 72, 0
1, 250200, Note_on_c, 0, 74, 80
1, 250296, Note_on_c, 1, 57, 0
1, 250308, Note_on_c, 0, 74, 0
1, 250320, Note_on_c, 0, 81, 80
1, 250320, Note_on_c, 1, 62, 80
1, 250428, Note_on_c, 0, 81, 0
1, 250440, Note_on_c, 0, 74, 80
1, 250536, Note_on_c, 1, 62, 0
1, 250548, Note_on_c, 0, 74, 0
1, 250560, Note_on_c, 0, 82, 80
1, 250560, Note_on_c, 1, 55, 80
1, 250668, Note_on_c, 0, 82, 0
1, 250680, Note_on_c, 0, 79, 80
1, 250776, Note_on_c, 1, 55, 0
1, 250788, Note_on_c, 0, 79, 0
1, 250800, Note_on_c, 0, 74, 80
1, 250800, Note_on_c, 1, 58, 80
1, 250908, Note_on_c, 0, 74, 0
1, 250920, Note_on_c, 0, 79, 80
1, 251016, Note_on_c, 1, 58, 0
1, 251028, Note_on_c, 0, 79, 0
1, 251040, Note_on_c, 0, 82, 80
1, 251040, Note_on_c, 1, 62, 80
1, 251148, Note_on_c, 0, 82, 0
1, 251160, Note_on_c, 0, 79, 80
1, 251256, Note_on_c, 1, 62, 0
1, 251268, Note_on_c, 0, 79, 0
1, 251280, Note_on_c, 0, 83, 80
1, 251280, Note_on_c, 1, 53, 80
1, 251388, Note_on_c, 0, 83, 0
1, 251400, Note_on_c, 0, 79, 80
1, 251496, Note_on_c, 1, 53, 0
1, 251508, Note_on_c, 0, 79, 0
1, 251520, Note_on_c, 0, 74, 80
1, 251520, Note_on_c, 1, 59, 80
1, 251628, Note_on_c, 0, 74, 0
1, 251640, Note_on_c, 0, 79, 80
1, 251736, Note_on_c, 1, 59, 0
1, 251748, Note_on_c, 0, 79, 0
1, 251760, Note_on_c, 0, 83, 80
1, 251760, Note_on_c, 1, 62, 80
1, 251868, Note_on_c, 0, 83, 0
1, 251880, Note_on_c, 0, 79, 80
1, 251976, Note_on_c, 1, 62, 0
1, 251988, Note_on_c, 0, 79, 0
1, 252000, Note_on_c, 0, 84, 80
1, 252000, Note_on_c, 1, 52, 80
1, 252432, Note_on_c, 0, 84, 0
1, 252432, Note_on_c, 1, 52, 0
1, 252480, Note_on_c, 0, 86, 80
1, 252588, Note_on_c, 0, 86, 0
1, 252600, Note_on_c, 0, 84, 80
1, 252708, Note_on_c, 0, 84, 0
1, 252720, Note_on_c, 0, 82, 80
1, 253152, Note_on_c, 0, 82, 0
1, 253200, Note_on_c, 0, 84, 80
1, 253308, Note_on_c, 0, 84, 0
1, 253320, Note_on_c, 0, 82, 80
1, 253428, Note_on_c, 0, 82, 0
1, 253440, Note_on_c, 0, 81, 80
1, 253440, Note_on_c, 1, 72, 80
1, 253872, Note_on_c, 0, 81, 0
1, 253920, Note_on_c, 0, 82, 80
1, 254028, Note_on_c, 0, 82, 0
1, 254040, Note_on_c, 0, 81, 80
1, 254088, Note_on_c, 1, 72, 0
1, 254148, Note_on_c, 0, 81, 0
1, 254160, Note_on_c, 0, 79, 80
1, 254160, Note_on_c, 1, 70, 80
1, 254160, Note_on_c, 1, 72, 80
1, 254592, Note_on_c, 0, 79, 0
1, 254640, Note_on_c, 0, 81, 80
1, 254748, Note_on_c, 0, 81, 0
1, 254760, Note_on_c, 0, 79, 80
1, 254808, Note_on_c, 1, 70, 0
1, 254808, Note_on_c, 1, 72, 0
1, 254868, Note_on_c, 0, 79, 0
1, 254880, Note_on_c, 0, 77, 80
1, 254880, Note_on_c, 1, 69, 80
1, 254880, Note_on_c, 1, 72, 80
1, 255312, Note_on_c, 0, 77, 0
1, 255360, Note_on_c, 0, 79, 80
1, 255468, Note_on_c, 0, 79, 0
1, 255480, Note_on_c, 0, 77, 80
1, 255528, Note_on_c, 1, 69, 0
1, 255528, Note_on_c, 1, 72, 0
1, 255588, Note_on_c, 0, 77, 0
1, 255600, Note_on_c, 0, 76, 80
1, 255600, Note_on_c, 1, 72, 80
1, 255600, Note_on_c, 1, 67, 80
1, 255600, Note_on_c, 1, 70, 80
1, 256032, Note_on_c, 0, 76, 0
1, 256080, Note_on_c, 0, 77, 80
1, 256188, Note_on_c, 0, 77, 0
1, 256200, Note_on_c, 0, 76, 80
1, 256248, Note_on_c, 1, 72, 0
1, 256248, Note_on_c, 1, 67, 0
1, 256248, Note_on_c, 1, 70, 0
1, 256308, Note_on_c, 0, 76, 0
1, 256320, Note_on_c, 0, 79, 80
1, 256320, Note_on_c, 1, 65, 80
1, 256428, Note_on_c, 0, 79, 0
1, 256440, Note_on_c, 0, 77, 80
1, 256536, Note_on_c, 1, 65, 0
1, 256548, Note_on_c, 0, 77, 0
1, 256560, Note_on_c, 0, 76, 80
1, 256560, Note_on_c, 1, 69, 80
1, 256668, Note_on_c, 0, 76, 0
1, 256680, Note_on_c, 0, 77, 80
1, 256776, Note_on_c, 1, 69, 0
1, 256788, Note_on_c, 0, 77, 0
1, 256800, Note_on_c, 0, 76, 80
1, 256800, Note_on_c, 1, 72, 80
1, 256908, Note_on_c, 0, 76, 0
1, 256920, Note_on_c, 0, 77, 80
1, 257016, Note_on_c, 1, 72, 0
1, 257028, Note_on_c, 0, 77, 0
1, 257040, Note_on_c, 0, 81, 80
1, 257040, Note_on_c, 1, 64, 80
1, 257148, Note_on_c, 0, 81, 0
1, 257160, Note_on_c, 0, 79, 80
1, 257256, Note_on_c, 1, 64, 0
1, 257268, Note_on_c, 0, 79, 0
1, 257280, Note_on_c, 0, 78, 80
1, 257280, Note_on_c, 1, 67, 80
1, 257388, Note_on_c, 0, 78, 0
1, 257400, Note_on_c, 0, 79, 80
1, 257496, Note_on_c, 1, 67, 0
1, 257508, Note_on_c, 0, 79, 0
1, 257520, Note_on_c, 0, 78, 80
1, 257520, Note_on_c, 1, 72, 80
1, 257628, Note_on_c, 0, 78, 0
1, 257640, Note_on_c, 0, 79, 80
1, 257736, Note_on_c, 1, 72, 0
1, 257748, Note_on_c, 0, 79, 0
1, 257760, Note_on_c, 0, 81, 80
1, 257760, Note_on_c, 1, 65, 80
1, 257760, Note_on_c, 1, 72, 80
1, 257760, Note_on_c, 1, 69, 80
1, 257868, Note_on_c, 0, 81, 0
1, 257880, Note_on_c, 0, 79, 80
1, 257976, Note_on_c, 1, 65, 0
1, 257976, Note_on_c, 1, 72, 0
1, 257976, Note_on_c, 1, 69, 0
1, 257988, Note_on_c, 0, 79, 0
1, 258000, Note_on_c, 0, 77, 80
1, 258108, Note_on_c, 0, 77, 0
1, 258120, Note_on_c, 0, 79, 80
1, 258228, Note_on_c, 0, 79, 0
1, 258240, Note_on_c, 0, 81, 80
1, 258348, Note_on_c, 0, 81, 0
1, 258360, Note_on_c, 0, 82, 80
1, 258468, Note_on_c, 0, 82, 0
1, 258480, Note_on_c, 0, 84, 80
1, 258588, Note_on_c, 0, 84, 0
1, 258600, Note_on_c, 0, 82, 80
1, 258708, Note_on_c, 0, 82, 0
1, 258720, Note_on_c, 0, 81, 80
1, 258828, Note_on_c, 0, 81, 0
1, 258840, Note_on_c, 0, 82, 80
1, 258948, Note_on_c, 0, 82, 0
1, 258960, Note_on_c, 0, 84, 80
1, 259068, Note_on_c, 0, 84, 0
1, 259080, Note_on_c, 0, 85, 80
1, 259188, Note_on_c, 0, 85, 0
1, 259200, Note_on_c, 0, 86, 80
1, 259200, Note_on_c, 1, 46, 80
1, 259308, Note_on_c, 0, 86, 0
1, 259320, Note_on_c, 0, 74, 80
1, 259416, Note_on_c, 1, 46, 0
1, 259428, Note_on_c, 0, 74, 0
1, 259440, Note_on_c, 0, 86, 80
1, 259440, Note_on_c, 1, 58, 80
1, 259548, Note_on_c, 0, 86, 0
1, 259560, Note_on_c, 0, 84, 80
1, 259656, Note_on_c, 1, 58, 0
1, 259668, Note_on_c, 0, 84, 0
1, 259680, Note_on_c, 0, 82, 80
1, 259788, Note_on_c, 0, 82, 0
1, 259800, Note_on_c, 0, 81, 80
1, 259908, Note_on_c, 0, 81, 0
1, 259920, Note_on_c, 0, 79, 80
1, 259920, Note_on_c, 1, 52, 80
1, 260028, Note_on_c, 0, 79, 0
1, 260040, Note_on_c, 0, 78, 80
1, 260136, Note_on_c, 1, 52, 0
1, 260148, Note_on_c, 0, 78, 0
1, 260160, Note_on_c, 0, 79, 80
1, 260160, Note_on_c, 1, 64, 80
1, 260268, Note_on_c, 0, 79, 0
1, 260280, Note_on_c, 0, 81, 80
1, 260376, Note_on_c, 1, 64, 0
1, 260388, Note_on_c, 0, 81, 0
1, 260400, Note_on_c, 0, 82, 80
1, 260508, Note_on_c, 0, 82, 0
1, 260520, Note_on_c, 0, 83, 80
1, 260628, Note_on_c, 0, 83, 0
1, 260640, Note_on_c, 0, 84, 80
1, 260640, Note_on_c, 1, 45, 80
1, 260748, Note_on_c, 0, 84, 0
1, 260760, Note_on_c, 0, 72, 80
1, 260856, Note_on_c, 1, 45, 0
1, 260868, Note_on_c, 0, 72, 0
1, 260880, Note_on_c, 0, 84, 80
1, 260880, Note_on_c, 1, 57, 80
1, 260988, Note_on_c, 0, 84, 0
1, 261000, Note_on_c, 0, 82, 80
1, 261096, Note_on_c, 1, 57, 0
1, 261108, Note_on_c, 0, 82, 0
1, 261120, Note_on_c, 0, 81, 80
1, 261228, Note_on_c, 0, 81, 0
1, 261240, Note_on_c, 0, 79, 80
1, 261348, Note_on_c, 0, 79, 0
1, 261360, Note_on_c, 0, 77, 80
1, 261360, Note_on_c, 1, 50, 80
1, 261468, Note_on_c, 0, 77, 0
1, 261480, Note_on_c, 0, 76, 80
1, 261576, Note_on_c, 1, 50, 0
1, 261588, Note_on_c, 0, 76, 0
1, 261600, Note_on_c, 0, 77, 80
1, 261600, Note_on_c, 1, 62, 80
1, 261708, Note_on_c, 0, 77, 0
1, 261720, Note_on_c, 0, 79, 80
1, 261816, Note_on_c, 1, 62, 0
1, 261828, Note_on_c, 0, 79, 0
1, 261840, Note_on_c, 0, 80, 80
1, 261948, Note_on_c, 0, 80, 0
1, 261960, Note_on_c, 0, 81, 80
1, 262068, Note_on_c, 0, 81, 0
1, 262080, Note_on_c, 0, 82, 80
1, 262080, Note_on_c, 1, 43, 80
1, 262188, Note_on_c, 0, 82, 0
1, 262200, Note_on_c, 0, 84, 80
1, 262296, Note_on_c, 1, 43, 0
1, 262308, Note_on_c, 0, 84, 0
1, 262320, Note_on_c, 0, 82, 80
1, 262320, Note_on_c, 1, 45, 80
1, 262428, Note_on_c, 0, 82, 0
1, 262440, Note_on_c, 0, 81, 80
1, 262536, Note_on_c, 1, 45, 0
1, 262548, Note_on_c, 0, 81, 0
1, 262560, Note_on_c, 0, 79, 80
1, 262560, Note_on_c, 1, 46, 80
1, 262668, Note_on_c, 0, 79, 0
1, 262680, Note_on_c, 0, 77, 80
1, 262776, Note_on_c, 1, 46, 0
1, 262788, Note_on_c, 0, 77, 0
1, 262800, Note_on_c, 0, 76, 80
1, 262800, Note_on_c, 1, 48, 80
1, 262908, Note_on_c, 0, 76, 0
1, 262920, Note_on_c, 0, 77, 80
1, 263016, Note_on_c, 1, 48, 0
1, 263028, Note_on_c, 0, 77, 0
1, 263040, Note_on_c, 0, 76, 80
1, 263040, Note_on_c, 1, 50, 80
1, 263148, Note_on_c, 0, 76, 0
1, 263160, Note_on_c, 0, 74, 80
1, 263256, Note_on_c, 1, 50, 0
1, 263268, Note_on_c, 0, 74, 0
1, 263280, Note_on_c, 0, 72, 80
1, 263280, Note_on_c, 1, 52, 80
1, 263388, Note_on_c, 0, 72, 0
1, 263400, Note_on_c, 0, 70, 80
1, 263496, Note_on_c, 1, 52, 0
1, 263508, Note_on_c, 0, 70, 0
1, 263520, Note_on_c, 0, 69, 80
1, 263520, Note_on_c, 1, 53, 80
1, 263628, Note_on_c, 0, 69, 0
1, 263640, Note_on_c, 0, 72, 80
1, 263736, Note_on_c, 1, 53, 0
1, 263748, Note_on_c, 0, 72, 0
1, 263760, Note_on_c, 0, 77, 80
1, 263868, Note_on_c, 0, 77, 0
1, 263880, Note_on_c, 0, 79, 80
1, 263988, Note_on_c, 0, 79, 0
1, 264000, Note_on_c, 0, 77, 80
1, 264000, Note_on_c, 1, 45, 80
1, 264108, Note_on_c, 0, 77, 0
1, 264120, Note_on_c, 0, 76, 80
1, 264216, Note_on_c, 1, 45, 0
1, 264228, Note_on_c, 0, 76, 0
1, 264240, Note_on_c, 0, 74, 80
1, 264240, Note_on_c, 1, 46, 80
1, 264348, Note_on_c, 0, 74, 0
1, 264360, Note_on_c, 0, 72, 80
1, 264456, Note_on_c, 1, 46, 0
1, 264468, Note_on_c, 0, 72, 0
1, 264480, Note_on_c, 0, 70, 80
1, 264588, Note_on_c, 0, 70, 0
1, 264600, Note_on_c, 0, 69, 80
1, 264708, Note_on_c, 0, 69, 0
1, 264720, Note_on_c, 0, 67, 80
1, 264720, Note_on_c, 1, 47, 80
1, 264828, Note_on_c, 0, 67, 0
1, 264840, Note_on_c, 0, 65, 80
1, 264936, Note_on_c, 1, 47, 0
1, 264948, Note_on_c, 0, 65, 0
1, 264960, Note_on_c, 0, 64, 80
1, 264960, Note_on_c, 1, 48, 80
1, 265068, Note_on_c, 0, 64, 0
1, 265080, Note_on_c, 0, 65, 80
1, 265176, Note_on_c, 1, 48, 0
1, 265188, Note_on_c, 0, 65, 0
1, 265200, Note_on_c, 0, 67, 80
1, 265308, Note_on_c, 0, 67, 0
1, 265320, Note_on_c, 0, 65, 80
1, 265428, Note_on_c, 0, 65, 0
1, 265440, Note_on_c, 0, 64, 80
1, 265548, Note_on_c, 0, 64, 0
1, 265560, Note_on_c, 0, 62, 80
1, 265668, Note_on_c, 0, 62, 0
1, 265680, Note_on_c, 0, 60, 80
1, 265788, Note_on_c, 0, 60, 0
1, 265800, Note_on_c, 1, 62, 80
1, 265908, Note_on_c, 1, 62, 0
1, 265920, Note_on_c, 1, 60, 80
1, 266028, Note_on_c, 1, 60, 0
1, 266040, Note_on_c, 1, 58, 80
1, 266148, Note_on_c, 1, 58, 0
1, 266160, Note_on_c, 1, 57, 80
1, 266268, Note_on_c, 1, 57, 0
1, 266280, Note_on_c, 1, 55, 80
1, 266388, Note_on_c, 1, 55, 0
1, 266400, Note_on_c, 0, 68, 80
1, 266400, Note_on_c, 1, 53, 80
1, 266616, Note_on_c, 1, 53, 0
1, 266640, Note_on_c, 1, 56, 80
1, 266856, Note_on_c, 1, 56, 0
1, 266880, Note_on_c, 1, 60, 80
1, 267048, Note_on_c, 0, 68, 0
1, 267096, Note_on_c, 1, 60, 0
1, 267120, Note_on_c, 0, 68, 80
1, 267120, Note_on_c, 1, 53, 80
1, 267336, Note_on_c, 0, 68, 0
1, 267336, Note_on_c, 1, 53, 0
1, 267360, Note_on_c, 0, 67, 80
1, 267360, Note_on_c, 1, 56, 80
1, 267576, Note_on_c, 0, 67, 0
1, 267576, Note_on_c, 1, 56, 0
1, 267600, Note_on_c, 0, 65, 80
1, 267600, Note_on_c, 1, 60, 80
1, 267816, Note_on_c, 0, 65, 0
1, 267816, Note_on_c, 1, 60, 0
1, 267840, Note_on_c, 0, 71, 80
1, 267840, Note_on_c, 1, 52, 80
1, 268056, Note_on_c, 1, 52, 0
1, 268080, Note_on_c, 1, 55, 80
1, 268272, Note_on_c, 0, 71, 0
1, 268296, Note_on_c, 1, 55, 0
1, 268320, Note_on_c, 0, 72, 80
1, 268320, Note_on_c, 1, 60, 80
1, 268536, Note_on_c, 0, 72, 0
1, 268536, Note_on_c, 1, 60, 0
1, 268560, Note_on_c, 0, 67, 80
1, 268560, Note_on_c, 1, 52, 80
1, 268776, Note_on_c, 1, 52, 0
1, 268800, Note_on_c, 1, 55, 80
1, 268992, Note_on_c, 0, 67, 0
1, 269016, Note_on_c, 1, 55, 0
1, 269040, Note_on_c, 1, 60, 80
1, 269256, Note_on_c, 1, 60, 0
1, 269280, Note_on_c, 0, 73, 80
1, 269280, Note_on_c, 1, 52, 80
1, 269496, Note_on_c, 1, 52, 0
1, 269520, Note_on_c, 1, 55, 80
1, 269736, Note_on_c, 1, 55, 0
1, 269760, Note_on_c, 1, 58, 80
1, 269928, Note_on_c, 0, 73, 0
1, 269976, Note_on_c, 1, 58, 0
1, 270000, Note_on_c, 0, 73, 80
1, 270000, Note_on_c, 1, 52, 80
1, 270216, Note_on_c, 0, 73, 0
1, 270216, Note_on_c, 1, 52, 0
1, 270240, Note_on_c, 0, 72, 80
1, 270240, Note_on_c, 1, 55, 80
1, 270456, Note_on_c, 0, 72, 0
1, 270456, Note_on_c, 1, 55, 0
1, 270480, Note_on_c, 0, 70, 80
1, 270480, Note_on_c, 1, 60, 80
1, 270696, Note_on_c, 0, 70, 0
1, 270696, Note_on_c, 1, 60, 0
1, 270720, Note_on_c, 0, 68, 80
1, 270720, Note_on_c, 1, 53, 80
1, 270936, Note_on_c, 0, 68, 0
1, 270936, Note_on_c, 1, 53, 0
1, 270960, Note_on_c, 0, 72, 80
1, 270960, Note_on_c, 1, 56, 80
1, 271032, Note_on_c, 0, 72, 0
1, 271040, Note_on_c, 0, 70, 80
1, 271112, Note_on_c, 0, 70, 0
1, 271120, Note_on_c, 0, 68, 80
1, 271176, Note_on_c, 1, 56, 0
1, 271192, Note_on_c, 0, 68, 0
1, 271200, Note_on_c, 0, 68, 80
1, 271200, Note_on_c, 1, 60, 80
1, 271308, Note_on_c, 0, 68, 0
1, 271320, Note_on_c, 0, 70, 80
1, 271416, Note_on_c, 1, 60, 0
1, 271428, Note_on_c, 0, 70, 0
1, 271440, Note_on_c, 0, 72, 80
1, 271440, Note_on_c, 1, 53, 80
1, 271656, Note_on_c, 1, 53, 0
1, 271680, Note_on_c, 1, 56, 80
1, 271872, Note_on_c, 0, 72, 0
1, 271896, Note_on_c, 1, 56, 0
1, 271920, Note_on_c, 1, 60, 80
1, 272136, Note_on_c, 1, 60, 0
1, 272160, Note_on_c, 0, 77, 80
1, 272160, Note_on_c, 1, 56, 80
1, 272376, Note_on_c, 1, 56, 0
1, 272400, Note_on_c, 1, 60, 80
1, 272616, Note_on_c, 1, 60, 0
1, 272640, Note_on_c, 1, 65, 80
1, 272808, Note_on_c, 0, 77, 0
1, 272856, Note_on_c, 1, 65, 0
1, 272880, Note_on_c, 0, 75, 80
1, 272880, Note_on_c, 1, 55, 80
1, 273096, Note_on_c, 1, 55, 0
1, 273120, Note_on_c, 1, 58, 80
1, 273312, Note_on_c, 0, 75, 0
1, 273336, Note_on_c, 1, 58, 0
1, 273360, Note_on_c, 0, 77, 80
1, 273360, Note_on_c, 1, 63, 80
1, 273576, Note_on_c, 0, 77, 0
1, 273576, Note_on_c, 1, 63, 0
1, 273600, Note_on_c, 0, 75, 80
1, 273600, Note_on_c, 1, 53, 80
1, 273816, Note_on_c, 1, 53, 0
1, 273840, Note_on_c, 1, 56, 80
1, 274032, Note_on_c, 0, 75, 0
1, 274056, Note_on_c, 1, 56, 0
1, 274080, Note_on_c, 0, 73, 80
1, 274080, Note_on_c, 1, 61, 80
1, 274296, Note_on_c, 0, 73, 0
1, 274296, Note_on_c, 1, 61, 0
1, 274320, Note_on_c, 0, 72, 80
1, 274320, Note_on_c, 1, 51, 80
1, 274536, Note_on_c, 1, 51, 0
1, 274560, Note_on_c, 1, 55, 80
1, 274776, Note_on_c, 1, 55, 0
1, 274800, Note_on_c, 1, 60, 80
1, 274968, Note_on_c, 0, 72, 0
1, 275016, Note_on_c, 1, 60, 0
1, 275040, Note_on_c, 0, 70, 80
1, 275040, Note_on_c, 1, 49, 80
1, 275256, Note_on_c, 1, 49, 0
1, 275280, Note_on_c, 1, 53, 80
1, 275472, Note_on_c, 0, 70, 0
1, 275496, Note_on_c, 1, 53, 0
1, 275520, Note_on_c, 0, 68, 80
1, 275520, Note_on_c, 1, 58, 80
1, 275736, Note_on_c, 0, 68, 0
1, 275736, Note_on_c, 1, 58, 0
1, 275760, Note_on_c, 0, 67, 80
1, 275760, Note_on_c, 1, 49, 80
1, 275976, Note_on_c, 1, 49, 0
1, 276000, Note_on_c, 1, 53, 80
1, 276192, Note_on_c, 0, 67, 0
1, 276216, Note_on_c, 1, 53, 0
1, 276240, Note_on_c, 0, 65, 80
1, 276240, Note_on_c, 1, 59, 80
1, 276456, Note_on_c, 0, 65, 0
1, 276456, Note_on_c, 1, 59, 0
1, 276480, Note_on_c, 0, 68, 80
1, 276480, Note_on_c, 1, 48, 80
1, 276696, Note_on_c, 1, 48, 0
1, 276720, Note_on_c, 1, 53, 80
1, 276936, Note_on_c, 1, 53, 0
1, 276960, Note_on_c, 1, 60, 80
1, 277128, Note_on_c, 0, 68, 0
1, 277176, Note_on_c, 1, 60, 0
1, 277200, Note_on_c, 0, 67, 80
1, 277200, Note_on_c, 1, 48, 80
1, 277416, Note_on_c, 0, 67, 0
1, 277416, Note_on_c, 1, 48, 0
1, 277440, Note_on_c, 1, 52, 80
1, 277656, Note_on_c, 1, 52, 0
1, 277680, Note_on_c, 1, 60, 80
1, 277896, Note_on_c, 1, 60, 0
1, 277920, Note_on_c, 0, 68, 80
1, 277920, Note_on_c, 0, 80, 80
1, 277920, Note_on_c, 1, 53, 80
1, 278136, Note_on_c, 1, 53, 0
1, 278160, Note_on_c, 1, 56, 80
1, 278376, Note_on_c, 1, 56, 0
1, 278400, Note_on_c, 1, 60, 80
1, 278568, Note_on_c, 0, 68, 0
1, 278568, Note_on_c, 0, 80, 0
1, 278616, Note_on_c, 1, 60, 0
1, 278640, Note_on_c, 0, 68, 80
1, 278640, Note_on_c, 0, 80, 80
1, 278640, Note_on_c, 1, 53, 80
1, 278856, Note_on_c, 0, 68, 0
1, 278856, Note_on_c, 0, 80, 0
1, 278856, Note_on_c, 1, 53, 0
1, 278880, Note_on_c, 0, 67, 80
1, 278880, Note_on_c, 0, 79, 80
1, 278880, Note_on_c, 1, 56, 80
1, 279096, Note_on_c, 0, 67, 0
1, 279096, Note_on_c, 0, 79, 0
1, 279096, Note_on_c, 1, 56, 0
1, 279120, Note_on_c, 0, 65, 80
1, 279120, Note_on_c, 0, 77, 80
1, 279120, Note_on_c, 1, 60, 80
1, 279336, Note_on_c, 0, 65, 0
1, 279336, Note_on_c, 0, 77, 0
1, 279336, Note_on_c, 1, 60, 0
1, 279360, Note_on_c, 0, 71, 80
1, 279360, Note_on_c, 0, 83, 80
1, 279360, Note_on_c, 1, 52, 80
1, 279576, Note_on_c, 1, 52, 0
1, 279600, Note_on_c, 1, 55, 80
1, 279792, Note_on_c, 0, 71, 0
1, 279792, Note_on_c, 0, 83, 0
1, 279816, Note_on_c, 1, 55, 0
1, 279840, Note_on_c, 0, 72, 80
1, 279840, Note_on_c, 0, 84, 80
1, 279840, Note_on_c, 1, 58, 80
1, 280056, Note_on_c, 0, 72, 0
1, 280056, Note_on_c, 0, 84, 0
1, 280056, Note_on_c, 1, 58, 0
1, 280080, Note_on_c, 0, 67, 80
1, 280080, Note_on_c, 0, 79, 80
1, 280080, Note_on_c, 1, 52, 80
1, 280296, Note_on_c, 1, 52, 0
1, 280320, Note_on_c, 1, 55, 80
1, 280512, Note_on_c, 0, 67, 0
1, 280512, Note_on_c, 0, 79, 0
1, 280536, Note_on_c, 1, 55, 0
1, 280560, Note_on_c, 1, 60, 80
1, 280776, Note_on_c, 1, 60, 0
1, 280800, Note_on_c, 0, 85, 80
1, 280800, Note_on_c, 0, 73, 80
1, 280800, Note_on_c, 1, 52, 80
1, 281016, Note_on_c, 1, 52, 0
1, 281040, Note_on_c, 1, 55, 80
1, 281256, Note_on_c, 1, 55, 0
1, 281280, Note_on_c, 1, 58, 80
1, 281448, Note_on_c, 0, 85, 0
1, 281448, Note_on_c, 0, 73, 0
1, 281496, Note_on_c, 1, 58, 0
1, 281520, Note_on_c, 0, 73, 80
1, 281520, Note_on_c, 0, 85, 80
1, 281520, Note_on_c, 1, 52, 80
1, 281736, Note_on_c, 0, 73, 0
1, 281736, Note_on_c, 0, 85, 0
1, 281736, Note_on_c, 1, 52, 0
1, 281760, Note_on_c, 0, 72, 80
1, 281760, Note_on_c, 0, 84, 80
1, 281760, Note_on_c, 1, 55, 80
1, 281976, Note_on_c, 0, 72, 0
1, 281976, Note_on_c, 0, 84, 0
1, 281976, Note_on_c, 1, 55, 0
1, 282000, Note_on_c, 0, 70, 80
1, 282000, Note_on_c, 0, 82, 80
1, 282000, Note_on_c, 1, 60, 80
1, 282216, Note_on_c, 0, 70, 0
1, 282216, Note_on_c, 0, 82, 0
1, 282216, Note_on_c, 1, 60, 0
1, 282240, Note_on_c, 0, 69, 80
1, 282240, Note_on_c, 0, 81, 80
1, 282240, Note_on_c, 1, 51, 80
1, 282456, Note_on_c, 1, 51, 0
1, 282480, Note_on_c, 1, 54, 80
1, 282672, Note_on_c, 0, 69, 0
1, 282672, Note_on_c, 0, 81, 0
1, 282696, Note_on_c, 1, 54, 0
1, 282720, Note_on_c, 0, 72, 80
1, 282720, Note_on_c, 0, 84, 80
1, 282720, Note_on_c, 1, 57, 80
1, 282936, Note_on_c, 0, 72, 0
1, 282936, Note_on_c, 0, 84, 0
1, 282936, Note_on_c, 1, 57, 0
1, 282960, Note_on_c, 0, 70, 80
1, 282960, Note_on_c, 0, 82, 80
1, 282960, Note_on_c, 1, 50, 80
1, 283176, Note_on_c, 1, 50, 0
1, 283200, Note_on_c, 1, 53, 80
1, 283392, Note_on_c, 0, 70, 0
1, 283392, Note_on_c, 0, 82, 0
1, 283416, Note_on_c, 1, 53, 0
1, 283440, Note_on_c, 1, 58, 80
1, 283656, Note_on_c, 1, 58, 0
1, 283680, Note_on_c, 0, 71, 80
1, 283680, Note_on_c, 0, 83, 80
1, 283680, Note_on_c, 1, 49, 80
1, 283896, Note_on_c, 1, 49, 0
1, 283920, Note_on_c, 1, 53, 80
1, 284136, Note_on_c, 1, 53, 0
1, 284160, Note_on_c, 1, 56, 80
1, 284328, Note_on_c, 0, 71, 0
1, 284328, Note_on_c, 0, 83, 0
1, 284376, Note_on_c, 1, 56, 0
1, 284400, Note_on_c, 0, 72, 80
1, 284400, Note_on_c, 0, 84, 80
1, 284400, Note_on_c, 1, 48, 80
1, 284616, Note_on_c, 1, 48, 0
1, 284640, Note_on_c, 1, 53, 80
1, 284856, Note_on_c, 1, 53, 0
1, 284880, Note_on_c, 1, 56, 80
1, 285048, Note_on_c, 0, 72, 0
1, 285048, Note_on_c, 0, 84, 0
1, 285096, Note_on_c, 1, 56, 0
1, 285120, Note_on_c, 0, 73, 80
1, 285120, Note_on_c, 0, 85, 80
1, 285120, Note_on_c, 1, 46, 80
1, 285336, Note_on_c, 1, 46, 0
1, 285360, Note_on_c, 1, 52, 80
1, 285576, Note_on_c, 1, 52, 0
1, 285600, Note_on_c, 1, 55, 80
1, 285768, Note_on_c, 0, 73, 0
1, 285768, Note_on_c, 0, 85, 0
1, 285816, Note_on_c, 1, 55, 0
1, 285840, Note_on_c, 0, 84, 80
1, 285840, Note_on_c, 0, 72, 80
1, 285840, Note_on_c, 1, 44, 80
1, 286056, Note_on_c, 0, 84, 0
1, 286056, Note_on_c, 0, 72, 0
1, 286056, Note_on_c, 1, 44, 0
1, 286080, Note_on_c, 1, 48, 80
1, 286296, Note_on_c, 1, 48, 0
1, 286320, Note_on_c, 1, 53, 80
1, 286440, Note_on_c, 0, 89, 80
1, 286536, Note_on_c, 1, 53, 0
1, 286548, Note_on_c, 0, 89, 0
1, 286560, Note_on_c, 0, 72, 80
1, 286560, Note_on_c, 0, 77, 80
1, 286560, Note_on_c, 1, 48, 80
1, 286776, Note_on_c, 1, 48, 0
1, 286800, Note_on_c, 1, 53, 80
1, 287016, Note_on_c, 1, 53, 0
1, 287040, Note_on_c, 1, 56, 80
1, 287160, Note_on_c, 0, 80, 80
1, 287208, Note_on_c, 0, 72, 0
1, 287208, Note_on_c, 0, 77, 0
1, 287214, Note_on_c, 0, 80, 0
1, 287256, Note_on_c, 1, 56, 0
1, 287280, Note_on_c, 0, 76, 80
1, 287280, Note_on_c, 0, 79, 80
1, 287280, Note_on_c, 1, 48, 80
1, 287496, Note_on_c, 1, 48, 0
1, 287520, Note_on_c, 1, 55, 80
1, 287736, Note_on_c, 1, 55, 0
1, 287760, Note_on_c, 1, 58, 80
1, 287928, Note_on_c, 0, 76, 0
1, 287928, Note_on_c, 0, 79, 0
1, 287976, Note_on_c, 1, 58, 0
1, 288000, Note_on_c, 0, 77, 80
1, 288000, Note_on_c, 1, 57, 80
1, 288000, Note_on_c, 1, 53, 80
1, 288108, Note_on_c, 0, 77, 0
1, 288120, Note_on_c, 0, 72, 80
1, 288228, Note_on_c, 0, 72, 0
1, 288240, Note_on_c, 0, 71, 80
1, 288348, Note_on_c, 0, 71, 0
1, 288360, Note_on_c, 0, 72, 80
1, 288432, Note_on_c, 1, 57, 0
1, 288432, Note_on_c, 1, 53, 0
1, 288468, Note_on_c, 0, 72, 0
1, 288480, Note_on_c, 0, 74, 80
1, 288588, Note_on_c, 0, 74, 0
1, 288600, Note_on_c, 0, 72, 80
1, 288708, Note_on_c, 0, 72, 0
1, 288720, Note_on_c, 0, 70, 80
1, 288720, Note_on_c, 1, 55, 80
1, 288828, Note_on_c, 0, 70, 0
1, 288840, Note_on_c, 0, 72, 80
1, 288936, Note_on_c, 1, 55, 0
1, 288948, Note_on_c, 0, 72, 0
1, 288960, Note_on_c, 0, 70, 80
1, 288960, Note_on_c, 1, 52, 80
1, 289068, Note_on_c, 0, 70, 0
1, 289080, Note_on_c, 0, 72, 80
1, 289176, Note_on_c, 1, 52, 0
1, 289188, Note_on_c, 0, 72, 0
1, 289200, Note_on_c, 0, 70, 80
1, 289200, Note_on_c, 1, 48, 80
1, 289308, Note_on_c, 0, 70, 0
1, 289320, Note_on_c, 0, 72, 80
1, 289416, Note_on_c, 1, 48, 0
1, 289428, Note_on_c, 0, 72, 0
1, 289440, Note_on_c, 0, 69, 80
1, 289440, Note_on_c, 1, 53, 80
1, 289548, Note_on_c, 0, 69, 0
1, 289560, Note_on_c, 0, 72, 80
1, 289668, Note_on_c, 0, 72, 0
1, 289680, Note_on_c, 0, 71, 80
1, 289788, Note_on_c, 0, 71, 0
1, 289800, Note_on_c, 0, 72, 80
1, 289872, Note_on_c, 1, 53, 0
1, 289908, Note_on_c, 0, 72, 0
1, 289920, Note_on_c, 0, 77, 80
1, 290028, Note_on_c, 0, 77, 0
1, 290040, Note_on_c, 0, 72, 80
1, 290148, Note_on_c, 0, 72, 0
1, 290160, Note_on_c, 0, 70, 80
1, 290160, Note_on_c, 1, 55, 80
1, 290268, Note_on_c, 0, 70, 0
1, 290280, Note_on_c, 0, 72, 80
1, 290376, Note_on_c, 1, 55, 0
1, 290388, Note_on_c, 0, 72, 0
1, 290400, Note_on_c, 0, 70, 80
1, 290400, Note_on_c, 1, 52, 80
1, 290508, Note_on_c, 0, 70, 0
1, 290520, Note_on_c, 0, 72, 80
1, 290616, Note_on_c, 1, 52, 0
1, 290628, Note_on_c, 0, 72, 0
1, 290640, Note_on_c, 0, 70, 80
1, 290640, Note_on_c, 1, 48, 80
1, 290748, Note_on_c, 0, 70, 0
1, 290760, Note_on_c, 0, 72, 80
1, 290856, Note_on_c, 1, 48, 0
1, 290868, Note_on_c, 0, 72, 0
1, 290880, Note_on_c, 0, 69, 80
1, 290880, Note_on_c, 1, 53, 80
1, 290988, Note_on_c, 0, 69, 0
1, 291000, Note_on_c, 0, 84, 80
1, 291108, Note_on_c, 0, 84, 0
1, 291120, Note_on_c, 0, 83, 80
1, 291228, Note_on_c, 0, 83, 0
1, 291240, Note_on_c, 0, 84, 80
1, 291312, Note_on_c, 1, 53, 0
1, 291348, Note_on_c, 0, 84, 0
1, 291360, Note_on_c, 0, 86, 80
1, 291468, Note_on_c, 0, 86, 0
1, 291480, Note_on_c, 0, 84, 80
1, 291588, Note_on_c, 0, 84, 0
1, 291600, Note_on_c, 0, 82, 80
1, 291600, Note_on_c, 1, 67, 80
1, 291708, Note_on_c, 0, 82, 0
1, 291720, Note_on_c, 0, 84, 80
1, 291816, Note_on_c, 1, 67, 0
1, 291828, Note_on_c, 0, 84, 0
1, 291840, Note_on_c, 0, 82, 80
1, 291840, Note_on_c, 1, 64, 80
1, 291948, Note_on_c, 0, 82, 0
1, 291960, Note_on_c, 0, 84, 80
1, 292056, Note_on_c, 1, 64, 0
1, 292068, Note_on_c, 0, 84, 0
1, 292080, Note_on_c, 0, 82, 80
1, 292080, Note_on_c, 1, 60, 80
1, 292188, Note_on_c, 0, 82, 0
1, 292200, Note_on_c, 0, 84, 80
1, 292296, Note_on_c, 1, 60, 0
1, 292308, Note_on_c, 0, 84, 0
1, 292320, Note_on_c, 0, 81, 80
1, 292320, Note_on_c, 1, 65, 80
1, 292428, Note_on_c, 0, 81, 0
1, 292440, Note_on_c, 0, 84, 80
1, 292548, Note_on_c, 0, 84, 0
1, 292560, Note_on_c, 0, 83, 80
1, 292668, Note_on_c, 0, 83, 0
1, 292680, Note_on_c, 0, 84, 80
1, 292752, Note_on_c, 1, 65, 0
1, 292788, Note_on_c, 0, 84, 0
1, 292800, Note_on_c, 0, 89, 80
1, 292908, Note_on_c, 0, 89, 0
1, 292920, Note_on_c, 0, 84, 80
1, 293028, Note_on_c, 0, 84, 0
1, 293040, Note_on_c, 0, 82, 80
1, 293040, Note_on_c, 1, 67, 80
1, 293148, Note_on_c, 0, 82, 0
1, 293160, Note_on_c, 0, 84, 80
1, 293256, Note_on_c, 1, 67, 0
1, 293268, Note_on_c, 0, 84, 0
1, 293280, Note_on_c, 0, 82, 80
1, 293280, Note_on_c, 1, 64, 80
1, 293388, Note_on_c, 0, 82, 0
1, 293400, Note_on_c, 0, 84, 80
1, 293496, Note_on_c, 1, 64, 0
1, 293508, Note_on_c, 0, 84, 0
1, 293520, Note_on_c, 0, 82, 80
1, 293520, Note_on_c, 1, 60, 80
1, 293628, Note_on_c, 0, 82, 0
1, 293640, Note_on_c, 0, 84, 80
1, 293736, Note_on_c, 1, 60, 0
1, 293748, Note_on_c, 0, 84, 0
1, 293760, Note_on_c, 0, 81, 80
1, 293760, Note_on_c, 1, 65, 80
1, 293868, Note_on_c, 0, 81, 0
1, 293880, Note_on_c, 0, 84, 80
1, 293988, Note_on_c, 0, 84, 0
1, 294000, Note_on_c, 0, 89, 80
1, 294108, Note_on_c, 0, 89, 0
1, 294120, Note_on_c, 0, 81, 80
1, 294192, Note_on_c, 1, 65, 0
1, 294228, Note_on_c, 0, 81, 0
1, 294240, Note_on_c, 0, 79, 80
1, 294348, Note_on_c, 0, 79, 0
1, 294360, Note_on_c, 0, 88, 80
1, 294468, Note_on_c, 0, 88, 0
1, 294480, Note_on_c, 0, 77, 80
1, 294588, Note_on_c, 0, 77, 0
1, 294600, Note_on_c, 0, 86, 80
1, 294708, Note_on_c, 0, 86, 0
1, 294720, Note_on_c, 0, 76, 80
1, 294828, Note_on_c, 0, 76, 0
1, 294840, Note_on_c, 0, 84, 80
1, 294948, Note_on_c, 0, 84, 0
1, 294960, Note_on_c, 0, 74, 80
1, 295068, Note_on_c, 0, 74, 0
1, 295080, Note_on_c, 0, 82, 80
1, 295188, Note_on_c, 0, 82, 0
1, 295200, Note_on_c, 0, 72, 80
1, 295308, Note_on_c, 0, 72, 0
1, 295320, Note_on_c, 0, 81, 80
1, 295428, Note_on_c, 0, 81, 0
1, 295440, Note_on_c, 0, 70, 80
1, 295548, Note_on_c, 0, 70, 0
1, 295560, Note_on_c, 0, 79, 80
1, 295668, Note_on_c, 0, 79, 0
1, 295680, Note_on_c, 0, 69, 80
1, 295788, Note_on_c, 0, 69, 0
1, 295800, Note_on_c, 0, 77, 80
1, 295908, Note_on_c, 0, 77, 0
1, 295920, Note_on_c, 0, 67, 80
1, 296028, Note_on_c, 0, 67, 0
1, 296040, Note_on_c, 0, 76, 80
1, 296148, Note_on_c, 0, 76, 0
1, 296160, Note_on_c, 0, 65, 80
1, 296268, Note_on_c, 0, 65, 0
1, 296280, Note_on_c, 0, 74, 80
1, 296388, Note_on_c, 0, 74, 0
1, 296400, Note_on_c, 0, 64, 80
1, 296508, Note_on_c, 0, 64, 0
1, 296520, Note_on_c, 0, 72, 80
1, 296628, Note_on_c, 0, 72, 0
1, 296640, Note_on_c, 0, 71, 80
1, 296640, Note_on_c, 0, 62, 80
1, 296880, Note_on_c, 1, 50, 80
1, 297096, Note_on_c, 1, 50, 0
1, 297120, Note_on_c, 1, 53, 80
1, 297288, Note_on_c, 0, 71, 0
1, 297288, Note_on_c, 0, 62, 0
1, 297336, Note_on_c, 1, 53, 0
1, 297360, Note_on_c, 0, 70, 80
1, 297360, Note_on_c, 0, 61, 80
1, 297360, Note_on_c, 1, 56, 80
1, 297576, Note_on_c, 1, 56, 0
1, 297600, Note_on_c, 1, 55, 80
1, 297816, Note_on_c, 1, 55, 0
1, 297840, Note_on_c, 1, 53, 80
1, 298008, Note_on_c, 0, 70, 0
1, 298008, Note_on_c, 0, 61, 0
1, 298056, Note_on_c, 1, 53, 0
1, 298080, Note_on_c, 0, 73, 80
1, 298080, Note_on_c, 0, 82, 80
1, 298080, Note_on_c, 1, 53, 80
1, 298296, Note_on_c, 1, 53, 0
1, 298320, Note_on_c, 1, 52, 80
1, 298536, Note_on_c, 1, 52, 0
1, 298560, Note_on_c, 1, 55, 80
1, 298728, Note_on_c, 0, 73, 0
1, 298728, Note_on_c, 0, 82, 0
1, 298776, Note_on_c, 1, 55, 0
1, 298800, Note_on_c, 0, 67, 80
1, 298800, Note_on_c, 0, 76, 80
1, 298800, Note_on_c, 1, 61, 80
1, 299016, Note_on_c, 1, 61, 0
1, 299040, Note_on_c, 1, 60, 80
1, 299256, Note_on_c, 1, 60, 0
1, 299280, Note_on_c, 1, 58, 80
1, 299448, Note_on_c, 0, 67, 0
1, 299448, Note_on_c, 0, 76, 0
1, 299496, Note_on_c, 1, 58, 0
1, 299520, Note_on_c, 1, 57, 80
1, 299736, Note_on_c, 1, 57, 0
1, 299760, Note_on_c, 0, 84, 80
1, 299976, Note_on_c, 0, 84, 0
1, 300000, Note_on_c, 0, 84, 80
1, 300216, Note_on_c, 0, 84, 0
1, 300240, Note_on_c, 1, 58, 80
1, 300456, Note_on_c, 1, 58, 0
1, 300480, Note_on_c, 0, 86, 80
1, 300696, Note_on_c, 0, 86, 0
1, 300720, Note_on_c, 0, 86, 80
1, 300936, Note_on_c, 0, 86, 0
1, 300960, Note_on_c, 0, 72, 80
1, 300960, Note_on_c, 0, 77, 80
1, 300960, Note_on_c, 1, 69, 80
1, 300960, Note_on_c, 1, 60, 80
1, 301608, Note_on_c, 0, 72, 0
1, 301608, Note_on_c, 0, 77, 0
1, 301608, Note_on_c, 1, 69, 0
1, 301620, Note_on_c, 0, 81, 80
1, 301674, Note_on_c, 0, 81, 0
1, 301680, Note_on_c, 0, 79, 80
1, 301680, Note_on_c, 0, 76, 80
1, 301680, Note_on_c, 1, 70, 80
1, 302256, Note_on_c, 1, 60, 0
1, 302328, Note_on_c, 0, 79, 0
1, 302328, Note_on_c, 0, 76, 0
1, 302328, Note_on_c, 1, 70, 0
1, 302400, Note_on_c, 0, 77, 80
1, 302400, Note_on_c, 1, 69, 80
1, 302400, Note_on_c, 1, 65, 80
1, 302508, Note_on_c, 0, 77, 0
1, 302520, Note_on_c, 0, 72, 80
1, 302628, Note_on_c, 0, 72, 0
1, 302640, Note_on_c, 0, 71, 80
1, 302748, Note_on_c, 0, 71, 0
1, 302760, Note_on_c, 0, 72, 80
1, 302832, Note_on_c, 1, 69, 0
1, 302832, Note_on_c, 1, 65, 0
1, 302868, Note_on_c, 0, 72, 0
1, 302880, Note_on_c, 0, 74, 80
1, 302988, Note_on_c, 0, 74, 0
1, 303000, Note_on_c, 0, 72, 80
1, 303108, Note_on_c, 0, 72, 0
1, 303120, Note_on_c, 0, 70, 80
1, 303120, Note_on_c, 1, 55, 80
1, 303228, Note_on_c, 0, 70, 0
1, 303240, Note_on_c, 0, 72, 80
1, 303336, Note_on_c, 1, 55, 0
1, 303348, Note_on_c, 0, 72, 0
1, 303360, Note_on_c, 0, 70, 80
1, 303360, Note_on_c, 1, 52, 80
1, 303468, Note_on_c, 0, 70, 0
1, 303480, Note_on_c, 0, 72, 80
1, 303576, Note_on_c, 1, 52, 0
1, 303588, Note_on_c, 0, 72, 0
1, 303600, Note_on_c, 0, 70, 80
1, 303600, Note_on_c, 1, 48, 80
1, 303708, Note_on_c, 0, 70, 0
1, 303720, Note_on_c, 0, 72, 80
1, 303816, Note_on_c, 1, 48, 0
1, 303828, Note_on_c, 0, 72, 0
1, 303840, Note_on_c, 0, 69, 80
1, 303840, Note_on_c, 1, 53, 80
1, 303948, Note_on_c, 0, 69, 0
1, 303960, Note_on_c, 0, 72, 80
1, 304068, Note_on_c, 0, 72, 0
1, 304080, Note_on_c, 0, 71, 80
1, 304188, Note_on_c, 0, 71, 0
1, 304200, Note_on_c, 0, 72, 80
1, 304272, Note_on_c, 1, 53, 0
1, 304308, Note_on_c, 0, 72, 0
1, 304320, Note_on_c, 0, 77, 80
1, 304428, Note_on_c, 0, 77, 0
1, 304440, Note_on_c, 0, 72, 80
1, 304548, Note_on_c, 0, 72, 0
1, 304560, Note_on_c, 0, 70, 80
1, 304560, Note_on_c, 1, 55, 80
1, 304668, Note_on_c, 0, 70, 0
1, 304680, Note_on_c, 0, 72, 80
1, 304776, Note_on_c, 1, 55, 0
1, 304788, Note_on_c, 0, 72, 0
1, 304800, Note_on_c, 0, 70, 80
1, 304800, Note_on_c, 1, 52, 80
1, 304908, Note_on_c, 0, 70, 0
1, 304920, Note_on_c, 0, 72, 80
1, 305016, Note_on_c, 1, 52, 0
1, 305028, Note_on_c, 0, 72, 0
1, 305040, Note_on_c, 0, 70, 80
1, 305040, Note_on_c, 1, 48, 80
1, 305148, Note_on_c, 0, 70, 0
1, 305160, Note_on_c, 0, 72, 80
1, 305256, Note_on_c, 1, 48, 0
1, 305268, Note_on_c, 0, 72, 0
1, 305280, Note_on_c, 0, 69, 80
1, 305280, Note_on_c, 1, 53, 80
1, 305388, Note_on_c, 0, 69, 0
1, 305400, Note_on_c, 0, 84, 80
1, 305508, Note_on_c, 0, 84, 0
1, 305520, Note_on_c, 0, 83, 80
1, 305628, Note_on_c, 0, 83, 0
1, 305640, Note_on_c, 0, 84, 80
1, 305712, Note_on_c, 1, 53, 0
1, 305748, Note_on_c, 0, 84, 0
1, 305760, Note_on_c, 0, 86, 80
1, 305868, Note_on_c, 0, 86, 0
1, 305880, Note_on_c, 0, 84, 80
1, 305988, Note_on_c, 0, 84, 0
1, 306000, Note_on_c, 0, 82, 80
1, 306000, Note_on_c, 1, 67, 80
1, 306108, Note_on_c, 0, 82, 0
1, 306120, Note_on_c, 0, 84, 80
1, 306216, Note_on_c, 1, 67, 0
1, 306228, Note_on_c, 0, 84, 0
1, 306240, Note_on_c, 0, 82, 80
1, 306240, Note_on_c, 1, 64, 80
1, 306348, Note_on_c, 0, 82, 0
1, 306360, Note_on_c, 0, 84, 80
1, 306456, Note_on_c, 1, 64, 0
1, 306468, Note_on_c, 0, 84, 0
1, 306480, Note_on_c, 0, 82, 80
1, 306480, Note_on_c, 1, 60, 80
1, 306588, Note_on_c, 0, 82, 0
1, 306600, Note_on_c, 0, 84, 80
1, 306696, Note_on_c, 1, 60, 0
1, 306708, Note_on_c, 0, 84, 0
1, 306720, Note_on_c, 0, 81, 80
1, 306720, Note_on_c, 1, 65, 80
1, 306828, Note_on_c, 0, 81, 0
1, 306840, Note_on_c, 0, 84, 80
1, 306948, Note_on_c, 0, 84, 0
1, 306960, Note_on_c, 0, 83, 80
1, 307068, Note_on_c, 0, 83, 0
1, 307080, Note_on_c, 0, 84, 80
1, 307152, Note_on_c, 1, 65, 0
1, 307188, Note_on_c, 0, 84, 0
1, 307200, Note_on_c, 0, 89, 80
1, 307308, Note_on_c, 0, 89, 0
1, 307320, Note_on_c, 0, 84, 80
1, 307428, Note_on_c, 0, 84, 0
1, 307440, Note_on_c, 0, 82, 80
1, 307440, Note_on_c, 1, 67, 80
1, 307548, Note_on_c, 0, 82, 0
1, 307560, Note_on_c, 0, 84, 80
1, 307656, Note_on_c, 1, 67, 0
1, 307668, Note_on_c, 0, 84, 0
1, 307680, Note_on_c, 0, 82, 80
1, 307680, Note_on_c, 1, 64, 80
1, 307788, Note_on_c, 0, 82, 0
1, 307800, Note_on_c, 0, 84, 80
1, 307896, Note_on_c, 1, 64, 0
1, 307908, Note_on_c, 0, 84, 0
1, 307920, Note_on_c, 0, 82, 80
1, 307920, Note_on_c, 1, 60, 80
1, 308028, Note_on_c, 0, 82, 0
1, 308040, Note_on_c, 0, 84, 80
1, 308136, Note_on_c, 1, 60, 0
1, 308148, Note_on_c, 0, 84, 0
1, 308160, Note_on_c, 0, 81, 80
1, 308160, Note_on_c, 1, 65, 80
1, 308268, Note_on_c, 0, 81, 0
1, 308280, Note_on_c, 0, 84, 80
1, 308388, Note_on_c, 0, 84, 0
1, 308400, Note_on_c, 0, 89, 80
1, 308508, Note_on_c, 0, 89, 0
1, 308520, Note_on_c, 0, 81, 80
1, 308592, Note_on_c, 1, 65, 0
1, 308628, Note_on_c, 0, 81, 0
1, 308640, Note_on_c, 0, 79, 80
1, 308748, Note_on_c, 0, 79, 0
1, 308760, Note_on_c, 0, 88, 80
1, 308868, Note_on_c, 0, 88, 0
1, 308880, Note_on_c, 0, 77, 80
1, 308988, Note_on_c, 0, 77, 0
1, 309000, Note_on_c, 0, 86, 80
1, 309108, Note_on_c, 0, 86, 0
1, 309120, Note_on_c, 0, 76, 80
1, 309228, Note_on_c, 0, 76, 0
1, 309240, Note_on_c, 0, 84, 80
1, 309348, Note_on_c, 0, 84, 0
1, 309360, Note_on_c, 0, 74, 80
1, 309468, Note_on_c, 0, 74, 0
1, 309480, Note_on_c, 0, 82, 80
1, 309588, Note_on_c, 0, 82, 0
1, 309600, Note_on_c, 0, 72, 80
1, 309708, Note_on_c, 0, 72, 0
1, 309720, Note_on_c, 0, 81, 80
1, 309828, Note_on_c, 0, 81, 0
1, 309840, Note_on_c, 0, 70, 80
1, 309948, Note_on_c, 0, 70, 0
1, 309960, Note_on_c, 0, 79, 80
1, 310068, Note_on_c, 0, 79, 0
1, 310080, Note_on_c, 0, 69, 80
1, 310188, Note_on_c, 0, 69, 0
1, 310200, Note_on_c, 0, 77, 80
1, 310308, Note_on_c, 0, 77, 0
1, 310320, Note_on_c, 0, 67, 80
1, 310428, Note_on_c, 0, 67, 0
1, 310440, Note_on_c, 0, 76, 80
1, 310548, Note_on_c, 0, 76, 0
1, 310560, Note_on_c, 0, 65, 80
1, 310668, Note_on_c, 0, 65, 0
1, 310680, Note_on_c, 0, 74, 80
1, 310788, Note_on_c, 0, 74, 0
1, 310800, Note_on_c, 0, 64, 80
1, 310908, Note_on_c, 0, 64, 0
1, 310920, Note_on_c, 0, 72, 80
1, 311028, Note_on_c, 0, 72, 0
1, 311040, Note_on_c, 0, 71, 80
1, 311040, Note_on_c, 0, 62, 80
1, 311280, Note_on_c, 1, 50, 80
1, 311496, Note_on_c, 1, 50, 0
1, 311520, Note_on_c, 1, 53, 80
1, 311688, Note_on_c, 0, 71, 0
1, 311688, Note_on_c, 0, 62, 0
1, 311736, Note_on_c, 1, 53, 0
1, 311760, Note_on_c, 0, 70, 80
1, 311760, Note_on_c, 0, 61, 80
1, 311760, Note_on_c, 1, 56, 80
1, 311976, Note_on_c, 1, 56, 0
1, 312000, Note_on_c, 1, 55, 80
1, 312216, Note_on_c, 1, 55, 0
1, 312240, Note_on_c, 1, 53, 80
1, 312408, Note_on_c, 0, 70, 0
1, 312408, Note_on_c, 0, 61, 0
1, 312456, Note_on_c, 1, 53, 0
1, 312480, Note_on_c, 0, 73, 80
1, 312480, Note_on_c, 0, 82, 80
1, 312480, Note_on_c, 1, 53, 80
1, 312696, Note_on_c, 1, 53, 0
1, 312720, Note_on_c, 1, 52, 80
1, 312936, Note_on_c, 1, 52, 0
1, 312960, Note_on_c, 1, 55, 80
1, 313128, Note_on_c, 0, 73, 0
1, 313128, Note_on_c, 0, 82, 0
1, 313176, Note_on_c, 1, 55, 0
1, 313200, Note_on_c, 0, 67, 80
1, 313200, Note_on_c, 0, 76, 80
1, 313200, Note_on_c, 1, 61, 80
1, 313416, Note_on_c, 1, 61, 0
1, 313440, Note_on_c, 1, 60, 80
1, 313656, Note_on_c, 1, 60, 0
1, 313680, Note_on_c, 1, 58, 80
1, 313848, Note_on_c, 0, 67, 0
1, 313848, Note_on_c, 0, 76, 0
1, 313896, Note_on_c, 1, 58, 0
1, 313920, Note_on_c, 1, 57, 80
1, 314136, Note_on_c, 1, 57, 0
1, 314160, Note_on_c, 0, 84, 80
1, 314376, Note_on_c, 0, 84, 0
1, 314400, Note_on_c, 0, 84, 80
1, 314616, Note_on_c, 0, 84, 0
1, 314640, Note_on_c, 1, 58, 80
1, 314856, Note_on_c, 1, 58, 0
1, 314880, Note_on_c, 0, 86, 80
1, 315096, Note_on_c, 0, 86, 0
1, 315120, Note_on_c, 0, 86, 80
1, 315336, Note_on_c, 0, 86, 0
1, 315360, Note_on_c, 0, 77, 80
1, 315360, Note_on_c, 0, 72, 80
1, 315360, Note_on_c, 1, 69, 80
1, 315360, Note_on_c, 1, 60, 80
1, 316008, Note_on_c, 1, 69, 0
1, 316008, Note_on_c, 1, 60, 0
1, 316080, Note_on_c, 0, 76, 80
1, 316080, Note_on_c, 1, 67, 80
1, 316080, Note_on_c, 1, 58, 80
1, 316656, Note_on_c, 0, 77, 0
1, 316656, Note_on_c, 0, 72, 0
1, 316728, Note_on_c, 0, 76, 0
1, 316728, Note_on_c, 1, 67, 0
1, 316728, Note_on_c, 1, 58, 0
1, 316800, Note_on_c, 0, 83, 80
1, 316800, Note_on_c, 1, 57, 80
1, 316908, Note_on_c, 0, 83, 0
1, 316920, Note_on_c, 0, 84, 80
1, 317016, Note_on_c, 1, 57, 0
1, 317028, Note_on_c, 0, 84, 0
1, 317040, Note_on_c, 0, 83, 80
1, 317040, Note_on_c, 1, 60, 80
1, 317148, Note_on_c, 0, 83, 0
1, 317160, Note_on_c, 0, 84, 80
1, 317268, Note_on_c, 0, 84, 0
1, 317280, Note_on_c, 0, 83, 80
1, 317280, Note_on_c, 1, 65, 80
1, 317388, Note_on_c, 0, 83, 0
1, 317400, Note_on_c, 0, 84, 80
1, 317508, Note_on_c, 0, 84, 0
1, 317520, Note_on_c, 0, 85, 80
1, 317520, Note_on_c, 1, 58, 80
1, 317628, Note_on_c, 0, 85, 0
1, 317640, Note_on_c, 0, 86, 80
1, 317688, Note_on_c, 1, 60, 0
1, 317748, Note_on_c, 0, 86, 0
1, 317760, Note_on_c, 0, 85, 80
1, 317760, Note_on_c, 1, 62, 80
1, 317868, Note_on_c, 0, 85, 0
1, 317880, Note_on_c, 0, 86, 80
1, 317928, Note_on_c, 1, 65, 0
1, 317976, Note_on_c, 1, 62, 0
1, 317988, Note_on_c, 0, 86, 0
1, 318000, Note_on_c, 0, 88, 80
1, 318000, Note_on_c, 1, 67, 80
1, 318108, Note_on_c, 0, 88, 0
1, 318120, Note_on_c, 0, 89, 80
1, 318168, Note_on_c, 1, 58, 0
1, 318216, Note_on_c, 1, 67, 0
1, 318228, Note_on_c, 0, 89, 0
1, 318240, Note_on_c, 0, 77, 80
1, 318240, Note_on_c, 0, 72, 80
1, 318240, Note_on_c, 1, 60, 80
1, 318456, Note_on_c, 1, 60, 0
1, 318480, Note_on_c, 1, 65, 80
1, 318720, Note_on_c, 1, 69, 80
1, 318888, Note_on_c, 0, 77, 0
1, 318888, Note_on_c, 0, 72, 0
1, 318900, Note_on_c, 0, 81, 80
1, 318954, Note_on_c, 0, 81, 0
1, 318960, Note_on_c, 0, 76, 80
1, 318960, Note_on_c, 0, 79, 80
1, 318960, Note_on_c, 1, 60, 80
1, 319128, Note_on_c, 1, 65, 0
1, 319200, Note_on_c, 1, 67, 80
1, 319368, Note_on_c, 1, 69, 0
1, 319392, Note_on_c, 0, 76, 0
1, 319392, Note_on_c, 0, 79, 0
1, 319416, Note_on_c, 1, 67, 0
1, 319440, Note_on_c, 0, 79, 80
1, 319440, Note_on_c, 1, 70, 80
1, 319548, Note_on_c, 0, 79, 0
1, 319560, Note_on_c, 0, 77, 80
1, 319608, Note_on_c, 1, 60, 0
1, 319656, Note_on_c, 1, 70, 0
1, 319668, Note_on_c, 0, 77, 0
1, 319680, Note_on_c, 0, 77, 80
1, 319680, Note_on_c, 1, 69, 80
1, 319680, Note_on_c, 1, 65, 80
1, 319788, Note_on_c, 0, 77, 0
1, 319800, Note_on_c, 0, 81, 80
1, 319908, Note_on_c, 0, 81, 0
1, 319920, Note_on_c, 0, 84, 80
1, 320028, Note_on_c, 0, 84, 0
1, 320040, Note_on_c, 0, 89, 80
1, 320112, Note_on_c, 1, 69, 0
1, 320112, Note_on_c, 1, 65, 0
1, 320148, Note_on_c, 0, 89, 0
1, 320160, Note_on_c, 0, 88, 80
1, 320268, Note_on_c, 0, 88, 0
1, 320280, Note_on_c, 0, 86, 80
1, 320388, Note_on_c, 0, 86, 0
1, 320400, Note_on_c, 0, 84, 80
1, 320400, Note_on_c, 1, 60, 80
1, 320400, Note_on_c, 1, 64, 80
1, 320400, Note_on_c, 1, 70, 80
1, 320508, Note_on_c, 0, 84, 0
1, 320520, Note_on_c, 0, 86, 80
1, 320628, Note_on_c, 0, 86, 0
1, 320640, Note_on_c, 0, 84, 80
1, 320748, Note_on_c, 0, 84, 0
1, 320760, Note_on_c, 0, 82, 80
1, 320832, Note_on_c, 1, 60, 0
1, 320832, Note_on_c, 1, 64, 0
1, 320832, Note_on_c, 1, 70, 0
1, 320868, Note_on_c, 0, 82, 0
1, 320880, Note_on_c, 0, 81, 80
1, 320988, Note_on_c, 0, 81, 0
1, 321000, Note_on_c, 0, 79, 80
1, 321108, Note_on_c, 0, 79, 0
1, 321120, Note_on_c, 0, 77, 80
1, 321120, Note_on_c, 1, 65, 80
1, 321120, Note_on_c, 1, 69, 80
1, 321228, Note_on_c, 0, 77, 0
1, 321240, Note_on_c, 0, 81, 80
1, 321348, Note_on_c, 0, 81, 0
1, 321360, Note_on_c, 0, 79, 80
1, 321468, Note_on_c, 0, 79, 0
1, 321480, Note_on_c, 0, 77, 80
1, 321552, Note_on_c, 1, 65, 0
1, 321552, Note_on_c, 1, 69, 0
1, 321588, Note_on_c, 0, 77, 0
1, 321600, Note_on_c, 0, 76, 80
1, 321708, Note_on_c, 0, 76, 0
1, 321720, Note_on_c, 0, 74, 80
1, 321828, Note_on_c, 0, 74, 0
1, 321840, Note_on_c, 0, 72, 80
1, 321840, Note_on_c, 1, 60, 80
1, 321840, Note_on_c, 1, 64, 80
1, 321840, Note_on_c, 1, 70, 80
1, 321948, Note_on_c, 0, 72, 0
1, 321960, Note_on_c, 0, 74, 80
1, 322068, Note_on_c, 0, 74, 0
1, 322080, Note_on_c, 0, 72, 80
1, 322188, Note_on_c, 0, 72, 0
1, 322200, Note_on_c, 0, 70, 80
1, 322272, Note_on_c, 1, 60, 0
1, 322272, Note_on_c, 1, 64, 0
1, 322272, Note_on_c, 1, 70, 0
1, 322308, Note_on_c, 0, 70, 0
1, 322320, Note_on_c, 0, 69, 80
1, 322428, Note_on_c, 0, 69, 0
1, 322440, Note_on_c, 0, 67, 80
1, 322548, Note_on_c, 0, 67, 0
1, 322560, Note_on_c, 0, 65, 80
1, 322560, Note_on_c, 1, 57, 80
1, 322560, Note_on_c, 1, 53, 80
1, 322668, Note_on_c, 0, 65, 0
1, 322680, Note_on_c, 0, 69, 80
1, 322788, Note_on_c, 0, 69, 0
1, 322800, Note_on_c, 0, 67, 80
1, 322908, Note_on_c, 0, 67, 0
1, 322920, Note_on_c, 0, 65, 80
1, 322992, Note_on_c, 1, 57, 0
1, 322992, Note_on_c, 1, 53, 0
1, 323028, Note_on_c, 0, 65, 0
1, 323040, Note_on_c, 0, 64, 80
1, 323148, Note_on_c, 0, 64, 0
1, 323160, Note_on_c, 0, 62, 80
1, 323268, Note_on_c, 0, 62, 0
1, 323280, Note_on_c, 1, 52, 80
1, 323280, Note_on_c, 1, 48, 80
1, 323280, Note_on_c, 1, 58, 80
1, 323280, Note_on_c, 1, 60, 80
1, 323388, Note_on_c, 1, 60, 0
1, 323400, Note_on_c, 1, 62, 80
1, 323508, Note_on_c, 1, 62, 0
1, 323520, Note_on_c, 1, 60, 80
1, 323628, Note_on_c, 1, 60, 0
1, 323640, Note_on_c, 1, 58, 0
1, 323640, Note_on_c, 1, 58, 80
1, 323712, Note_on_c, 1, 52, 0
1, 323712, Note_on_c, 1, 48, 0
1, 323748, Note_on_c, 1, 58, 0
1, 323760, Note_on_c, 1, 57, 80
1, 323868, Note_on_c, 1, 57, 0
1, 323880, Note_on_c, 1, 55, 80
1, 323988, Note_on_c, 1, 55, 0
1, 324000, Note_on_c, 1, 41, 80
1, 324000, Note_on_c, 1, 53, 80
1, 324216, Note_on_c, 1, 41, 0
1, 324216, Note_on_c, 1, 53, 0
1, 324240, Note_on_c, 1, 57, 80
1, 324240, Note_on_c, 1, 45, 80
1, 324456, Note_on_c, 1, 57, 0
1, 324456, Note_on_c, 1, 45, 0
1, 324480, Note_on_c, 1, 48, 80
1, 324480, Note_on_c, 1, 60, 80
1, 324696, Note_on_c, 1, 48, 0
1, 324696, Note_on_c, 1, 60, 0
1, 324720, Note_on_c, 0, 65, 80
1, 324720, Note_on_c, 1, 53, 80
1, 324936, Note_on_c, 0, 65, 0
1, 324936, Note_on_c, 1, 53, 0
1, 324960, Note_on_c, 0, 69, 80
1, 324960, Note_on_c, 1, 57, 80
1, 325176, Note_on_c, 0, 69, 0
1, 325176, Note_on_c, 1, 57, 0
1, 325200, Note_on_c, 0, 72, 80
1, 325200, Note_on_c, 1, 60, 80
1, 325416, Note_on_c, 0, 72, 0
1, 325416, Note_on_c, 1, 60, 0
1, 325440, Note_on_c, 0, 77, 80
1, 325440, Note_on_c, 1, 65, 80
1, 325872, Note_on_c, 0, 77, 0
1, 325872, Note_on_c, 1, 65, 0
1, 326160, Note_on_c, 0, 72, 80
1, 326160, Note_on_c, 0, 84, 80
1, 326160, Note_on_c, 0, 81, 80
1, 326160, Note_on_c, 1, 53, 80
1, 326160, Note_on_c, 1, 65, 80
1, 326592, Note_on_c, 0, 72, 0
1, 326592, Note_on_c, 0, 84, 0
1, 326592, Note_on_c, 0, 81, 0
1, 326592, Note_on_c, 1, 53, 0
1, 326592, Note_on_c, 1, 65, 0
1, 326880, Note_on_c, 0, 77, 80
1, 326880, Note_on_c, 0, 87, 80
1, 326880, Note_on_c, 0, 84, 80
1, 326880, Note_on_c, 1, 45, 80
1, 326880, Note_on_c, 1, 57, 80
1, 327312, Note_on_c, 0, 77, 0
1, 327312, Note_on_c, 0, 87, 0
1, 327312, Note_on_c, 0, 84, 0
1, 327312, Note_on_c, 1, 45, 0
1, 327312, Note_on_c, 1, 57, 0
1, 328320, Note_on_c, 0, 77, 80
1, 328320, Note_on_c, 0, 86, 80
1, 328320, Note_on_c, 0, 82, 80
1, 328320, Note_on_c, 1, 58, 80
1, 328320, Note_on_c, 1, 46, 80
1, 328752, Note_on_c, 0, 77, 0
1, 328752, Note_on_c, 0, 86, 0
1, 328752, Note_on_c, 0, 82, 0
1, 328752, Note_on_c, 1, 58, 0
1, 328752, Note_on_c, 1, 46, 0
1, 329760, Note_on_c, 0, 86, 80
1, 329760, Note_on_c, 0, 77, 80
1, 329760, Note_on_c, 0, 89, 80
1, 329760, Note_on_c, 0, 80, 80
1, 329760, Note_on_c, 1, 47, 80
1, 329760, Note_on_c, 1, 59, 80
1, 330192, Note_on_c, 0, 86, 0
1, 330192, Note_on_c, 0, 77, 0
1, 330192, Note_on_c, 0, 89, 0
1, 330192, Note_on_c, 0, 80, 0
1, 330192, Note_on_c, 1, 47, 0
1, 330192, Note_on_c, 1, 59, 0
1, 331200, Note_on_c, 0, 60, 80
1, 331200, Note_on_c, 0, 65, 80
1, 331200, Note_on_c, 1, 48, 80
1, 331200, Note_on_c, 1, 57, 80
1, 332496, Note_on_c, 0, 60, 0
1, 332496, Note_on_c, 0, 65, 0
1, 332496, Note_on_c, 1, 48, 0
1, 332496, Note_on_c, 1, 57, 0
1, 332580, Note_on_c, 0, 69, 80
1, 332634, Note_on_c, 0, 69, 0
1, 332640, Note_on_c, 0, 64, 80
1, 332640, Note_on_c, 0, 67, 80
1, 332640, Note_on_c, 0, 60, 80
1, 332640, Note_on_c, 1, 48, 80
1, 332640, Note_on_c, 1, 58, 80
1, 333792, Note_on_c, 0, 67, 0
1, 333840, Note_on_c, 0, 65, 80
1, 333936, Note_on_c, 0, 64, 0
1, 333936, Note_on_c, 0, 60, 0
1, 333936, Note_on_c, 1, 48, 0
1, 333936, Note_on_c, 1, 58, 0
1, 334056, Note_on_c, 0, 65, 0
1, 334080, Note_on_c, 0, 60, 80
1, 334080, Note_on_c, 0, 65, 80
1, 334080, Note_on_c, 1, 53, 80
1, 334080, Note_on_c, 1, 57, 80
1, 334296, Note_on_c, 0, 60, 0
1, 334296, Note_on_c, 0, 65, 0
1, 334296, Note_on_c, 1, 53, 0
1, 334296, Note_on_c, 1, 57, 0
1, 334560, Note_on_c, 0, 57, 80
1, 334560, Note_on_c, 1, 45, 80
1, 334776, Note_on_c, 0, 57, 0
1, 334776, Note_on_c, 1, 45, 0
1, 334800, Note_on_c, 0, 58, 80
1, 334800, Note_on_c, 1, 46, 80
1, 335016, Note_on_c, 0, 58, 0
1, 335016, Note_on_c, 1, 46, 0
1, 335040, Note_on_c, 0, 67, 80
1, 335040, Note_on_c, 1, 55, 80
1, 335256, Note_on_c, 0, 67, 0
1, 335256, Note_on_c, 1, 55, 0
1, 335280, Note_on_c, 0, 59, 80
1, 335280, Note_on_c, 1, 47, 80
1, 335496, Note_on_c, 0, 59, 0
1, 335496, Note_on_c, 1, 47, 0
1, 335520, Note_on_c, 0, 60, 80
1, 335520, Note_on_c, 1, 48, 80
1, 335736, Note_on_c, 0, 60, 0
1, 335736, Note_on_c, 1, 48, 0
1, 335760, Note_on_c, 0, 69, 80
1, 335760, Note_on_c, 1, 57, 80
1, 335976, Note_on_c, 0, 69, 0
1, 335976, Note_on_c, 1, 57, 0
1, 336000, Note_on_c, 0, 61, 80
1, 336000, Note_on_c, 1, 49, 80
1, 336216, Note_on_c, 0, 61, 0
1, 336216, Note_on_c, 1, 49, 0
1, 336240, Note_on_c, 0, 62, 80
1, 336240, Note_on_c, 1, 50, 80
1, 336456, Note_on_c, 0, 62, 0
1, 336456, Note_on_c, 1, 50, 0
1, 336480, Note_on_c, 0, 70, 80
1, 336480, Note_on_c, 1, 58, 80
1, 336696, Note_on_c, 0, 70, 0
1, 336696, Note_on_c, 1, 58, 0
1, 336720, Note_on_c, 0, 62, 80
1, 336720, Note_on_c, 1, 52, 80
1, 336936, Note_on_c, 0, 62, 0
1, 336936, Note_on_c, 1, 52, 0
1, 336960, Note_on_c, 0, 82, 80
1, 337680, Note_on_c, 1, 64, 80
1, 337680, Note_on_c, 1, 58, 80
1, 337680, Note_on_c, 1, 67, 80
1, 337680, Note_on_c, 1, 60, 80
1, 337896, Note_on_c, 0, 82, 0
1, 337920, Note_on_c, 0, 81, 80
1, 338028, Note_on_c, 0, 81, 0
1, 338040, Note_on_c, 0, 79, 80
1, 338148, Note_on_c, 0, 79, 0
1, 338160, Note_on_c, 0, 77, 80
1, 338268, Note_on_c, 0, 77, 0
1, 338280, Note_on_c, 0, 76, 80
1, 338328, Note_on_c, 1, 64, 0
1, 338328, Note_on_c, 1, 58, 0
1, 338328, Note_on_c, 1, 67, 0
1, 338328, Note_on_c, 1, 60, 0
1, 338388, Note_on_c, 0, 76, 0
1, 338400, Note_on_c, 0, 77, 80
1, 338400, Note_on_c, 1, 65, 80
1, 338400, Note_on_c, 1, 57, 80
1, 338400, Note_on_c, 1, 60, 80
1, 338616, Note_on_c, 0, 77, 0
1, 338616, Note_on_c, 1, 65, 0
1, 338616, Note_on_c, 1, 57, 0
1, 338616, Note_on_c, 1, 60, 0
1, 338640, Note_on_c, 0, 79, 80
1, 338856, Note_on_c, 0, 79, 0
1, 338880, Note_on_c, 0, 81, 80
1, 339096, Note_on_c, 0, 81, 0
1, 339120, Note_on_c, 0, 72, 80
1, 339120, Note_on_c, 0, 69, 80
1, 339120, Note_on_c, 1, 60, 80
1, 339552, Note_on_c, 0, 72, 0
1, 339552, Note_on_c, 0, 69, 0
1, 339552, Note_on_c, 1, 60, 0
1, 339600, Note_on_c, 0, 70, 80
1, 339600, Note_on_c, 0, 67, 80
1, 339600, Note_on_c, 1, 61, 80
1, 339816, Note_on_c, 0, 70, 0
1, 339816, Note_on_c, 0, 67, 0
1, 339816, Note_on_c, 1, 61, 0
1, 339840, Note_on_c, 0, 70, 80
1, 339840, Note_on_c, 0, 67, 80
1, 339840, Note_on_c, 1, 62, 80
1, 340488, Note_on_c, 0, 70, 0
1, 340488, Note_on_c, 0, 67, 0
1, 340560, Note_on_c, 0, 69, 80
1, 340560, Note_on_c, 0, 65, 80
1, 340776, Note_on_c, 0, 69, 0
1, 340776, Note_on_c, 0, 65, 0
1, 340776, Note_on_c, 1, 62, 0
1, 341760, Note_on_c, 0, 57, 80
1, 341760, Note_on_c, 1, 45, 80
1, 341976, Note_on_c, 0, 57, 0
1, 341976, Note_on_c, 1, 45, 0
1, 342000, Note_on_c, 0, 58, 80
1, 342000, Note_on_c, 1, 46, 80
1, 342216, Note_on_c, 0, 58, 0
1, 342216, Note_on_c, 1, 46, 0
1, 342240, Note_on_c, 0, 67, 80
1, 342240, Note_on_c, 1, 55, 80
1, 342456, Note_on_c, 0, 67, 0
1, 342456, Note_on_c, 1, 55, 0
1, 342480, Note_on_c, 0, 59, 80
1, 342480, Note_on_c, 1, 47, 80
1, 342696, Note_on_c, 0, 59, 0
1, 342696, Note_on_c, 1, 47, 0
1, 342720, Note_on_c, 0, 60, 80
1, 342720, Note_on_c, 1, 48, 80
1, 342936, Note_on_c, 0, 60, 0
1, 342936, Note_on_c, 1, 48, 0
1, 342960, Note_on_c, 0, 69, 80
1, 342960, Note_on_c, 1, 57, 80
1, 343176, Note_on_c, 0, 69, 0
1, 343176, Note_on_c, 1, 57, 0
1, 343200, Note_on_c, 0, 61, 80
1, 343200, Note_on_c, 1, 49, 80
1, 343416, Note_on_c, 0, 61, 0
1, 343416, Note_on_c, 1, 49, 0
1, 343440, Note_on_c, 0, 62, 80
1, 343440, Note_on_c, 1, 50, 80
1, 343656, Note_on_c, 0, 62, 0
1, 343656, Note_on_c, 1, 50, 0
1, 343680, Note_on_c, 0, 70, 80
1, 343680, Note_on_c, 1, 58, 80
1, 343896, Note_on_c, 0, 70, 0
1, 343896, Note_on_c, 1, 58, 0
1, 343920, Note_on_c, 0, 64, 80
1, 343920, Note_on_c, 1, 52, 80
1, 344136, Note_on_c, 0, 64, 0
1, 344136, Note_on_c, 1, 52, 0
1, 344160, Note_on_c, 0, 82, 80
1, 344880, Note_on_c, 1, 64, 80
1, 344880, Note_on_c, 1, 58, 80
1, 344880, Note_on_c, 1, 67, 80
1, 344880, Note_on_c, 1, 60, 80
1, 345096, Note_on_c, 0, 82, 0
1, 345120, Note_on_c, 0, 81, 80
1, 345228, Note_on_c, 0, 81, 0
1, 345240, Note_on_c, 0, 79, 80
1, 345348, Note_on_c, 0, 79, 0
1, 345360, Note_on_c, 0, 77, 80
1, 345468, Note_on_c, 0, 77, 0
1, 345480, Note_on_c, 0, 76, 80
1, 345528, Note_on_c, 1, 64, 0
1, 345528, Note_on_c, 1, 58, 0
1, 345528, Note_on_c, 1, 67, 0
1, 345528, Note_on_c, 1, 60, 0
1, 345588, Note_on_c, 0, 76, 0
1, 345600, Note_on_c, 0, 77, 80
1, 345600, Note_on_c, 1, 65, 80
1, 345600, Note_on_c, 1, 57, 80
1, 345600, Note_on_c, 1, 60, 80
1, 345654, Note_on_c, 0, 77, 0
1, 345660, Note_on_c, 0, 79, 80
1, 345714, Note_on_c, 0, 79, 0
1, 345720, Note_on_c, 0, 81, 80
1, 345816, Note_on_c, 1, 65, 0
1, 345816, Note_on_c, 1, 57, 0
1, 345816, Note_on_c, 1, 60, 0
1, 345828, Note_on_c, 0, 81, 0
1, 346320, Note_on_c, 0, 74, 80
1, 346320, Note_on_c, 1, 65, 80
1, 346320, Note_on_c, 1, 58, 80
1, 346320, Note_on_c, 1, 62, 80
1, 346374, Note_on_c, 0, 74, 0
1, 346380, Note_on_c, 0, 76, 80
1, 346434, Note_on_c, 0, 76, 0
1, 346440, Note_on_c, 0, 77, 80
1, 346536, Note_on_c, 1, 65, 0
1, 346536, Note_on_c, 1, 58, 0
1, 346536, Note_on_c, 1, 62, 0
1, 346548, Note_on_c, 0, 77, 0
1, 347040, Note_on_c, 0, 60, 80
1, 347040, Note_on_c, 0, 65, 80
1, 347040, Note_on_c, 1, 57, 80
1, 347040, Note_on_c, 1, 48, 80
1, 347688, Note_on_c, 0, 65, 0
1, 347688, Note_on_c, 1, 57, 0
1, 347700, Note_on_c, 0, 69, 80
1, 347754, Note_on_c, 0, 69, 0
1, 347760, Note_on_c, 0, 67, 80
1, 347760, Note_on_c, 0, 64, 80
1, 347760, Note_on_c, 1, 58, 80
1, 348192, Note_on_c, 0, 67, 0
1, 348192, Note_on_c, 0, 64, 0
1, 348240, Note_on_c, 0, 65, 80
1, 348336, Note_on_c, 0, 60, 0
1, 348336, Note_on_c, 1, 48, 0
1, 348408, Note_on_c, 1, 58, 0
1, 348456, Note_on_c, 0, 65, 0
1, 348480, Note_on_c, 0, 65, 80
1, 348480, Note_on_c, 1, 53, 80
1, 348720, Note_on_c, 1, 57, 80
1, 348936, Note_on_c, 1, 57, 0
1, 348960, Note_on_c, 0, 69, 80
1, 348960, Note_on_c, 1, 60, 80
1, 349128, Note_on_c, 0, 65, 0
1, 349128, Note_on_c, 1, 53, 0
1, 349176, Note_on_c, 0, 69, 0
1, 349176, Note_on_c, 1, 60, 0
1, 349200, Note_on_c, 0, 72, 80
1, 349200, Note_on_c, 0, 64, 80
1, 349200, Note_on_c, 1, 53, 80
1, 349416, Note_on_c, 0, 72, 0
1, 349440, Note_on_c, 0, 70, 80
1, 349440, Note_on_c, 1, 55, 80
1, 349656, Note_on_c, 0, 70, 0
1, 349656, Note_on_c, 1, 55, 0
1, 349680, Note_on_c, 0, 67, 80
1, 349680, Note_on_c, 1, 58, 80
1, 349848, Note_on_c, 0, 64, 0
1, 349848, Note_on_c, 1, 53, 0
1, 349896, Note_on_c, 0, 67, 0
1, 349896, Note_on_c, 1, 58, 0
1, 349920, Note_on_c, 0, 65, 80
1, 349920, Note_on_c, 1, 53, 80
1, 350160, Note_on_c, 0, 60, 80
1, 350160, Note_on_c, 1, 57, 80
1, 350376, Note_on_c, 0, 60, 0
1, 350376, Note_on_c, 1, 57, 0
1, 350400, Note_on_c, 0, 69, 80
1, 350400, Note_on_c, 1, 60, 80
1, 350568, Note_on_c, 0, 65, 0
1, 350568, Note_on_c, 1, 53, 0
1, 350616, Note_on_c, 0, 69, 0
1, 350616, Note_on_c, 1, 60, 0
1, 350640, Note_on_c, 0, 72, 80
1, 350640, Note_on_c, 0, 64, 80
1, 350640, Note_on_c, 1, 53, 80
1, 350856, Note_on_c, 0, 72, 0
1, 350880, Note_on_c, 0, 70, 80
1, 350880, Note_on_c, 1, 55, 80
1, 351096, Note_on_c, 0, 70, 0
1, 351096, Note_on_c, 1, 55, 0
1, 351120, Note_on_c, 0, 67, 80
1, 351120, Note_on_c, 1, 58, 80
1, 351288, Note_on_c, 0, 64, 0
1, 351288, Note_on_c, 1, 53, 0
1, 351336, Note_on_c, 0, 67, 0
1, 351336, Note_on_c, 1, 58, 0
1, 351360, Note_on_c, 0, 65, 80
1, 351360, Note_on_c, 1, 53, 80
1, 351576, Note_on_c, 0, 65, 0
1, 351600, Note_on_c, 0, 60, 80
1, 351600, Note_on_c, 1, 57, 80
1, 351816, Note_on_c, 0, 60, 0
1, 351816, Note_on_c, 1, 57, 0
1, 351840, Note_on_c, 0, 69, 80
1, 351840, Note_on_c, 1, 60, 80
1, 352008, Note_on_c, 1, 53, 0
1, 352056, Note_on_c, 0, 69, 0
1, 352056, Note_on_c, 1, 60, 0
1, 352080, Note_on_c, 0, 65, 80
1, 352080, Note_on_c, 1, 53, 80
1, 352296, Note_on_c, 0, 65, 0
1, 352320, Note_on_c, 0, 60, 80
1, 352320, Note_on_c, 1, 57, 80
1, 352536, Note_on_c, 0, 60, 0
1, 352536, Note_on_c, 1, 57, 0
1, 352560, Note_on_c, 0, 69, 80
1, 352560, Note_on_c, 1, 60, 80
1, 352728, Note_on_c, 1, 53, 0
1, 352776, Note_on_c, 0, 69, 0
1, 352776, Note_on_c, 1, 60, 0
1, 352800, Note_on_c, 0, 58, 80
1, 352800, Note_on_c, 0, 67, 80
1, 352800, Note_on_c, 1, 53, 80
1, 352800, Note_on_c, 1, 41, 80
1, 353448, Note_on_c, 0, 58, 0
1, 353448, Note_on_c, 0, 67, 0
1, 353520, Note_on_c, 0, 57, 80
1, 353520, Note_on_c, 0, 65, 80
1, 353736, Note_on_c, 0, 57, 0
1, 353736, Note_on_c, 0, 65, 0
1, 353736, Note_on_c, 1, 41, 0
1, 353736, Note_on_c, 1, 53, 0
1, 353746, End_track
0, 0, End_of_file