0, 0, Header, 0, 1, 192
1, 0, Start_track
1, 0, Tempo, 500000
1, 0, Note_on_c, 0, 64, 94
1, 0, Note_on_c, 0, 67, 94
1, 0, Note_on_c, 0, 72, 94
1, 0, Note_on_c, 1, 48, 94
1, 37, Note_on_c, 1, 48, 0
1, 48, Note_on_c, 0, 60, 94
1, 85, Note_on_c, 0, 60, 0
1, 96, Note_on_c, 1, 59, 94
1, 133, Note_on_c, 1, 59, 0
1, 144, Note_on_c, 0, 60, 94
1, 152, Note_on_c, 0, 72, 0
1, 152, Note_on_c, 0, 67, 0
1, 152, Note_on_c, 0, 64, 0
1, 181, Note_on_c, 0, 60, 0
1, 192, Note_on_c, 1, 48, 94
1, 268, Note_on_c, 1, 48, 0
1, 288, Note_on_c, 0, 72, 94
1, 325, Note_on_c, 0, 72, 0
1, 336, Note_on_c, 0, 71, 94
1, 373, Note_on_c, 0, 71, 0
1, 384, Note_on_c, 0, 74, 94
1, 421, Note_on_c, 0, 74, 0
1, 432, Note_on_c, 0, 72, 94
1, 469, Note_on_c, 0, 72, 0
1, 480, Note_on_c, 0, 76, 94
1, 517, Note_on_c, 0, 76, 0
1, 528, Note_on_c, 0, 74, 94
1, 565, Note_on_c, 0, 74, 0
1, 576, Note_on_c, 0, 77, 94
1, 613, Note_on_c, 0, 77, 0
1, 624, Note_on_c, 0, 76, 94
1, 661, Note_on_c, 0, 76, 0
1, 672, Note_on_c, 0, 79, 94
1, 709, Note_on_c, 0, 79, 0
1, 720, Note_on_c, 0, 77, 94
1, 757, Note_on_c, 0, 77, 0
1, 768, Note_on_c, 0, 77, 94
1, 768, Note_on_c, 0, 74, 94
1, 768, Note_on_c, 0, 81, 94
1, 768, Note_on_c, 0, 69, 94
1, 768, Note_on_c, 1, 53, 94
1, 768, Note_on_c, 1, 41, 94
1, 920, Note_on_c, 0, 69, 0
1, 920, Note_on_c, 0, 81, 0
1, 920, Note_on_c, 0, 74, 0
1, 920, Note_on_c, 0, 77, 0
1, 920, Note_on_c, 1, 41, 0
1, 920, Note_on_c, 1, 53, 0
1, 960, Note_on_c, 0, 79, 94
1, 997, Note_on_c, 0, 79, 0
1, 1008, Note_on_c, 0, 77, 94
1, 1045, Note_on_c, 0, 77, 0
1, 1056, Note_on_c, 0, 76, 94
1, 1093, Note_on_c, 0, 76, 0
1, 1104, Note_on_c, 0, 74, 94
1, 1141, Note_on_c, 0, 74, 0
1, 1152, Note_on_c, 0, 72, 94
1, 1169, Note_on_c, 0, 72, 0
1, 1176, Note_on_c, 0, 74, 94
1, 1193, Note_on_c, 0, 74, 0
1, 1200, Note_on_c, 0, 71, 94
1, 1237, Note_on_c, 0, 71, 0
1, 1248, Note_on_c, 0, 72, 94
1, 1248, Note_on_c, 1, 52, 94
1, 1285, Note_on_c, 0, 72, 0
1, 1296, Note_on_c, 0, 76, 94
1, 1324, Note_on_c, 1, 52, 0
1, 1333, Note_on_c, 0, 76, 0
1, 1344, Note_on_c, 0, 74, 94
1, 1344, Note_on_c, 1, 53, 94
1, 1381, Note_on_c, 0, 74, 0
1, 1392, Note_on_c, 0, 77, 94
1, 1420, Note_on_c, 1, 53, 0
1, 1429, Note_on_c, 0, 77, 0
1, 1440, Note_on_c, 0, 71, 94
1, 1440, Note_on_c, 1, 55, 94
1, 1477, Note_on_c, 0, 71, 0
1, 1488, Note_on_c, 0, 74, 94
1, 1516, Note_on_c, 1, 55, 0
1, 1525, Note_on_c, 0, 74, 0
1, 1536, Note_on_c, 0, 64, 94
1, 1536, Note_on_c, 0, 67, 94
1, 1536, Note_on_c, 0, 72, 94
1, 1536, Note_on_c, 1, 48, 94
1, 1573, Note_on_c, 1, 48, 0
1, 1584, Note_on_c, 0, 60, 94
1, 1621, Note_on_c, 0, 60, 0
1, 1632, Note_on_c, 1, 59, 94
1, 1669, Note_on_c, 1, 59, 0
1, 1680, Note_on_c, 0, 60, 94
1, 1688, Note_on_c, 0, 72, 0
1, 1688, Note_on_c, 0, 67, 0
1, 1688, Note_on_c, 0, 64, 0
1, 1717, Note_on_c, 0, 60, 0
1, 1728, Note_on_c, 1, 48, 94
1, 1765, Note_on_c, 1, 48, 0
1, 1824, Note_on_c, 0, 72, 94
1, 1861, Note_on_c, 0, 72, 0
1, 1872, Note_on_c, 0, 71, 94
1, 1909, Note_on_c, 0, 71, 0
1, 1920, Note_on_c, 0, 74, 94
1, 1957, Note_on_c, 0, 74, 0
1, 1968, Note_on_c, 0, 72, 94
1, 2005, Note_on_c, 0, 72, 0
1, 2016, Note_on_c, 0, 76, 94
1, 2053, Note_on_c, 0, 76, 0
1, 2064, Note_on_c, 0, 74, 94
1, 2101, Note_on_c, 0, 74, 0
1, 2112, Note_on_c, 0, 77, 94
1, 2149, Note_on_c, 0, 77, 0
1, 2160, Note_on_c, 0, 76, 94
1, 2197, Note_on_c, 0, 76, 0
1, 2208, Note_on_c, 0, 79, 94
1, 2245, Note_on_c, 0, 79, 0
1, 2256, Note_on_c, 0, 76, 94
1, 2293, Note_on_c, 0, 76, 0
1, 2304, Note_on_c, 0, 77, 94
1, 2304, Note_on_c, 0, 74, 94
1, 2304, Note_on_c, 0, 81, 94
1, 2304, Note_on_c, 0, 69, 94
1, 2304, Note_on_c, 1, 41, 94
1, 2304, Note_on_c, 1, 53, 94
1, 2456, Note_on_c, 0, 69, 0
1, 2456, Note_on_c, 0, 81, 0
1, 2456, Note_on_c, 0, 74, 0
1, 2456, Note_on_c, 0, 77, 0
1, 2456, Note_on_c, 1, 53, 0
1, 2456, Note_on_c, 1, 41, 0
1, 2496, Note_on_c, 0, 79, 94
1, 2533, Note_on_c, 0, 79, 0
1, 2544, Note_on_c, 0, 77, 94
1, 2581, Note_on_c, 0, 77, 0
1, 2592, Note_on_c, 0, 76, 94
1, 2629, Note_on_c, 0, 76, 0
1, 2640, Note_on_c, 0, 74, 94
1, 2677, Note_on_c, 0, 74, 0
1, 2688, Note_on_c, 0, 72, 94
1, 2705, Note_on_c, 0, 72, 0
1, 2712, Note_on_c, 0, 74, 94
1, 2729, Note_on_c, 0, 74, 0
1, 2736, Note_on_c, 0, 71, 94
1, 2773, Note_on_c, 0, 71, 0
1, 2784, Note_on_c, 0, 72, 94
1, 2784, Note_on_c, 1, 52, 94
1, 2821, Note_on_c, 0, 72, 0
1, 2832, Note_on_c, 0, 76, 94
1, 2860, Note_on_c, 1, 52, 0
1, 2869, Note_on_c, 0, 76, 0
1, 2880, Note_on_c, 0, 74, 94
1, 2880, Note_on_c, 1, 53, 94
1, 2917, Note_on_c, 0, 74, 0
1, 2928, Note_on_c, 0, 77, 94
1, 2956, Note_on_c, 1, 53, 0
1, 2965, Note_on_c, 0, 77, 0
1, 2976, Note_on_c, 0, 71, 94
1, 2976, Note_on_c, 1, 55, 94
1, 3013, Note_on_c, 0, 71, 0
1, 3024, Note_on_c, 0, 74, 94
1, 3052, Note_on_c, 1, 55, 0
1, 3061, Note_on_c, 0, 74, 0
1, 3072, Note_on_c, 0, 60, 94
1, 3072, Note_on_c, 0, 72, 94
1, 3109, Note_on_c, 0, 60, 0
1, 3120, Note_on_c, 0, 67, 94
1, 3148, Note_on_c, 0, 72, 0
1, 3157, Note_on_c, 0, 67, 0
1, 3168, Note_on_c, 0, 64, 94
1, 3168, Note_on_c, 0, 74, 94
1, 3189, Note_on_c, 0, 74, 0
1, 3192, Note_on_c, 0, 72, 94
1, 3205, Note_on_c, 0, 64, 0
1, 3216, Note_on_c, 0, 67, 94
1, 3229, Note_on_c, 0, 72, 0
1, 3240, Note_on_c, 0, 71, 94
1, 3253, Note_on_c, 0, 67, 0
1, 3264, Note_on_c, 0, 60, 94
1, 3277, Note_on_c, 0, 71, 0
1, 3288, Note_on_c, 0, 72, 94
1, 3301, Note_on_c, 0, 60, 0
1, 3312, Note_on_c, 0, 67, 94
1, 3349, Note_on_c, 0, 67, 0
1, 3360, Note_on_c, 0, 64, 94
1, 3364, Note_on_c, 0, 72, 0
1, 3384, Note_on_c, 0, 76, 94
1, 3397, Note_on_c, 0, 64, 0
1, 3408, Note_on_c, 0, 67, 94
1, 3445, Note_on_c, 0, 67, 0
1, 3456, Note_on_c, 1, 59, 94
1, 3460, Note_on_c, 0, 76, 0
1, 3480, Note_on_c, 0, 73, 94
1, 3493, Note_on_c, 1, 59, 0
1, 3504, Note_on_c, 0, 67, 94
1, 3541, Note_on_c, 0, 67, 0
1, 3552, Note_on_c, 0, 62, 94
1, 3589, Note_on_c, 0, 62, 0
1, 3600, Note_on_c, 0, 67, 94
1, 3632, Note_on_c, 0, 73, 0
1, 3637, Note_on_c, 0, 67, 0
1, 3648, Note_on_c, 1, 59, 94
1, 3672, Note_on_c, 0, 74, 94
1, 3685, Note_on_c, 1, 59, 0
1, 3696, Note_on_c, 0, 67, 94
1, 3733, Note_on_c, 0, 67, 0
1, 3744, Note_on_c, 0, 62, 94
1, 3748, Note_on_c, 0, 74, 0
1, 3781, Note_on_c, 0, 62, 0
1, 3792, Note_on_c, 0, 67, 94
1, 3829, Note_on_c, 0, 67, 0
1, 3840, Note_on_c, 1, 59, 94
1, 3877, Note_on_c, 1, 59, 0
1, 3888, Note_on_c, 0, 67, 94
1, 3925, Note_on_c, 0, 67, 0
1, 3936, Note_on_c, 0, 76, 94
1, 3936, Note_on_c, 0, 62, 94
1, 3941, Note_on_c, 0, 76, 0
1, 3960, Note_on_c, 0, 74, 94
1, 3973, Note_on_c, 0, 62, 0
1, 3984, Note_on_c, 0, 67, 94
1, 3997, Note_on_c, 0, 74, 0
1, 4008, Note_on_c, 0, 73, 94
1, 4021, Note_on_c, 0, 67, 0
1, 4032, Note_on_c, 1, 59, 94
1, 4045, Note_on_c, 0, 73, 0
1, 4056, Note_on_c, 0, 74, 94
1, 4069, Note_on_c, 1, 59, 0
1, 4080, Note_on_c, 0, 67, 94
1, 4117, Note_on_c, 0, 67, 0
1, 4128, Note_on_c, 0, 62, 94
1, 4132, Note_on_c, 0, 74, 0
1, 4152, Note_on_c, 0, 77, 94
1, 4165, Note_on_c, 0, 62, 0
1, 4176, Note_on_c, 0, 67, 94
1, 4213, Note_on_c, 0, 67, 0
1, 4224, Note_on_c, 0, 60, 94
1, 4228, Note_on_c, 0, 77, 0
1, 4248, Note_on_c, 0, 75, 94
1, 4261, Note_on_c, 0, 60, 0
1, 4272, Note_on_c, 0, 67, 94
1, 4309, Note_on_c, 0, 67, 0
1, 4320, Note_on_c, 0, 64, 94
1, 4357, Note_on_c, 0, 64, 0
1, 4368, Note_on_c, 0, 67, 94
1, 4400, Note_on_c, 0, 75, 0
1, 4405, Note_on_c, 0, 67, 0
1, 4416, Note_on_c, 0, 60, 94
1, 4440, Note_on_c, 0, 76, 94
1, 4453, Note_on_c, 0, 60, 0
1, 4464, Note_on_c, 0, 67, 94
1, 4501, Note_on_c, 0, 67, 0
1, 4512, Note_on_c, 0, 64, 94
1, 4516, Note_on_c, 0, 76, 0
1, 4549, Note_on_c, 0, 64, 0
1, 4560, Note_on_c, 0, 67, 94
1, 4597, Note_on_c, 0, 67, 0
1, 4608, Note_on_c, 0, 60, 94
1, 4645, Note_on_c, 0, 60, 0
1, 4656, Note_on_c, 0, 67, 94
1, 4693, Note_on_c, 0, 67, 0
1, 4704, Note_on_c, 0, 64, 94
1, 4704, Note_on_c, 0, 79, 94
1, 4721, Note_on_c, 0, 79, 0
1, 4728, Note_on_c, 0, 78, 94
1, 4741, Note_on_c, 0, 64, 0
1, 4745, Note_on_c, 0, 78, 0
1, 4752, Note_on_c, 0, 67, 94
1, 4752, Note_on_c, 0, 79, 94
1, 4769, Note_on_c, 0, 79, 0
1, 4776, Note_on_c, 0, 81, 94
1, 4789, Note_on_c, 0, 67, 0
1, 4793, Note_on_c, 0, 81, 0
1, 4800, Note_on_c, 0, 60, 94
1, 4800, Note_on_c, 0, 84, 94
1, 4837, Note_on_c, 0, 60, 0
1, 4848, Note_on_c, 0, 67, 94
1, 4876, Note_on_c, 0, 84, 0
1, 4885, Note_on_c, 0, 67, 0
1, 4896, Note_on_c, 0, 82, 94
1, 4896, Note_on_c, 0, 64, 94
1, 4933, Note_on_c, 0, 64, 0
1, 4944, Note_on_c, 0, 67, 94
1, 4972, Note_on_c, 0, 82, 0
1, 4981, Note_on_c, 0, 67, 0
1, 4992, Note_on_c, 0, 60, 94
1, 4992, Note_on_c, 0, 80, 94
1, 5029, Note_on_c, 0, 60, 0
1, 5040, Note_on_c, 0, 69, 94
1, 5077, Note_on_c, 0, 69, 0
1, 5088, Note_on_c, 0, 65, 94
1, 5125, Note_on_c, 0, 65, 0
1, 5136, Note_on_c, 0, 69, 94
1, 5144, Note_on_c, 0, 80, 0
1, 5173, Note_on_c, 0, 69, 0
1, 5184, Note_on_c, 0, 60, 94
1, 5184, Note_on_c, 0, 81, 94
1, 5221, Note_on_c, 0, 60, 0
1, 5232, Note_on_c, 0, 69, 94
1, 5260, Note_on_c, 0, 81, 0
1, 5269, Note_on_c, 0, 69, 0
1, 5280, Note_on_c, 0, 65, 94
1, 5317, Note_on_c, 0, 65, 0
1, 5328, Note_on_c, 0, 69, 94
1, 5365, Note_on_c, 0, 69, 0
1, 5376, Note_on_c, 0, 60, 94
1, 5376, Note_on_c, 0, 84, 94
1, 5413, Note_on_c, 0, 60, 0
1, 5424, Note_on_c, 0, 69, 94
1, 5461, Note_on_c, 0, 69, 0
1, 5472, Note_on_c, 0, 65, 94
1, 5509, Note_on_c, 0, 65, 0
1, 5520, Note_on_c, 0, 69, 94
1, 5528, Note_on_c, 0, 84, 0
1, 5557, Note_on_c, 0, 69, 0
1, 5568, Note_on_c, 0, 60, 94
1, 5568, Note_on_c, 0, 83, 94
1, 5605, Note_on_c, 0, 83, 0
1, 5605, Note_on_c, 0, 60, 0
1, 5616, Note_on_c, 0, 81, 94
1, 5616, Note_on_c, 0, 69, 94
1, 5653, Note_on_c, 0, 69, 0
1, 5653, Note_on_c, 0, 81, 0
1, 5664, Note_on_c, 0, 79, 94
1, 5664, Note_on_c, 0, 65, 94
1, 5701, Note_on_c, 0, 65, 0
1, 5701, Note_on_c, 0, 79, 0
1, 5712, Note_on_c, 0, 77, 94
1, 5712, Note_on_c, 0, 69, 94
1, 5749, Note_on_c, 0, 69, 0
1, 5749, Note_on_c, 0, 77, 0
1, 5760, Note_on_c, 0, 60, 94
1, 5760, Note_on_c, 0, 78, 94
1, 5797, Note_on_c, 0, 60, 0
1, 5808, Note_on_c, 0, 67, 94
1, 5845, Note_on_c, 0, 67, 0
1, 5856, Note_on_c, 0, 64, 94
1, 5893, Note_on_c, 0, 64, 0
1, 5904, Note_on_c, 0, 67, 94
1, 5912, Note_on_c, 0, 78, 0
1, 5941, Note_on_c, 0, 67, 0
1, 5952, Note_on_c, 0, 60, 94
1, 5952, Note_on_c, 0, 79, 94
1, 5989, Note_on_c, 0, 60, 0
1, 6000, Note_on_c, 0, 67, 94
1, 6028, Note_on_c, 0, 79, 0
1, 6037, Note_on_c, 0, 67, 0
1, 6048, Note_on_c, 0, 64, 94
1, 6085, Note_on_c, 0, 64, 0
1, 6096, Note_on_c, 0, 67, 94
1, 6133, Note_on_c, 0, 67, 0
1, 6144, Note_on_c, 1, 52, 94
1, 6181, Note_on_c, 1, 52, 0
1, 6192, Note_on_c, 1, 55, 94
1, 6229, Note_on_c, 1, 55, 0
1, 6240, Note_on_c, 0, 60, 94
1, 6277, Note_on_c, 0, 60, 0
1, 6288, Note_on_c, 0, 64, 94
1, 6325, Note_on_c, 0, 64, 0
1, 6336, Note_on_c, 0, 67, 94
1, 6373, Note_on_c, 0, 67, 0
1, 6384, Note_on_c, 0, 72, 94
1, 6421, Note_on_c, 0, 72, 0
1, 6432, Note_on_c, 0, 76, 94
1, 6469, Note_on_c, 0, 76, 0
1, 6480, Note_on_c, 0, 79, 94
1, 6517, Note_on_c, 0, 79, 0
1, 6528, Note_on_c, 1, 53, 94
1, 6565, Note_on_c, 1, 53, 0
1, 6576, Note_on_c, 1, 57, 94
1, 6613, Note_on_c, 1, 57, 0
1, 6624, Note_on_c, 0, 60, 94
1, 6661, Note_on_c, 0, 60, 0
1, 6672, Note_on_c, 0, 65, 94
1, 6709, Note_on_c, 0, 65, 0
1, 6720, Note_on_c, 0, 69, 94
1, 6757, Note_on_c, 0, 69, 0
1, 6768, Note_on_c, 0, 72, 94
1, 6805, Note_on_c, 0, 72, 0
1, 6816, Note_on_c, 0, 77, 94
1, 6853, Note_on_c, 0, 77, 0
1, 6864, Note_on_c, 0, 81, 94
1, 6901, Note_on_c, 0, 81, 0
1, 6912, Note_on_c, 0, 79, 94
1, 6988, Note_on_c, 0, 79, 0
1, 7008, Note_on_c, 0, 60, 94
1, 7008, Note_on_c, 0, 77, 94
1, 7008, Note_on_c, 1, 55, 94
1, 7045, Note_on_c, 0, 77, 0
1, 7056, Note_on_c, 0, 77, 94
1, 7084, Note_on_c, 0, 60, 0
1, 7084, Note_on_c, 1, 55, 0
1, 7093, Note_on_c, 0, 77, 0
1, 7104, Note_on_c, 0, 74, 94
1, 7104, Note_on_c, 1, 55, 94
1, 7104, Note_on_c, 1, 59, 94
1, 7180, Note_on_c, 0, 74, 0
1, 7180, Note_on_c, 1, 59, 0
1, 7180, Note_on_c, 1, 55, 0
1, 7200, Note_on_c, 0, 76, 94
1, 7200, Note_on_c, 0, 62, 94
1, 7200, Note_on_c, 1, 55, 94
1, 7237, Note_on_c, 0, 76, 0
1, 7248, Note_on_c, 0, 77, 94
1, 7276, Note_on_c, 0, 62, 0
1, 7276, Note_on_c, 1, 55, 0
1, 7285, Note_on_c, 0, 77, 0
1, 7296, Note_on_c, 0, 62, 94
1, 7296, Note_on_c, 0, 77, 94
1, 7296, Note_on_c, 1, 56, 94
1, 7448, Note_on_c, 0, 77, 0
1, 7448, Note_on_c, 0, 62, 0
1, 7448, Note_on_c, 1, 56, 0
1, 7488, Note_on_c, 0, 60, 94
1, 7488, Note_on_c, 0, 76, 94
1, 7488, Note_on_c, 1, 57, 94
1, 7564, Note_on_c, 0, 76, 0
1, 7564, Note_on_c, 0, 60, 0
1, 7564, Note_on_c, 1, 57, 0
1, 7680, Note_on_c, 1, 52, 94
1, 7717, Note_on_c, 1, 52, 0
1, 7728, Note_on_c, 1, 55, 94
1, 7765, Note_on_c, 1, 55, 0
1, 7776, Note_on_c, 0, 60, 94
1, 7813, Note_on_c, 0, 60, 0
1, 7824, Note_on_c, 0, 64, 94
1, 7861, Note_on_c, 0, 64, 0
1, 7872, Note_on_c, 0, 67, 94
1, 7909, Note_on_c, 0, 67, 0
1, 7920, Note_on_c, 0, 72, 94
1, 7957, Note_on_c, 0, 72, 0
1, 7968, Note_on_c, 0, 76, 94
1, 8005, Note_on_c, 0, 76, 0
1, 8016, Note_on_c, 0, 79, 94
1, 8053, Note_on_c, 0, 79, 0
1, 8064, Note_on_c, 1, 53, 94
1, 8101, Note_on_c, 1, 53, 0
1, 8112, Note_on_c, 1, 57, 94
1, 8149, Note_on_c, 1, 57, 0
1, 8160, Note_on_c, 0, 62, 94
1, 8197, Note_on_c, 0, 62, 0
1, 8208, Note_on_c, 0, 65, 94
1, 8245, Note_on_c, 0, 65, 0
1, 8256, Note_on_c, 0, 69, 94
1, 8293, Note_on_c, 0, 69, 0
1, 8304, Note_on_c, 0, 72, 94
1, 8341, Note_on_c, 0, 72, 0
1, 8352, Note_on_c, 0, 77, 94
1, 8389, Note_on_c, 0, 77, 0
1, 8400, Note_on_c, 0, 81, 94
1, 8437, Note_on_c, 0, 81, 0
1, 8448, Note_on_c, 0, 79, 94
1, 8524, Note_on_c, 0, 79, 0
1, 8544, Note_on_c, 0, 60, 94
1, 8544, Note_on_c, 0, 77, 94
1, 8544, Note_on_c, 1, 55, 94
1, 8581, Note_on_c, 0, 77, 0
1, 8592, Note_on_c, 0, 76, 94
1, 8620, Note_on_c, 0, 60, 0
1, 8620, Note_on_c, 1, 55, 0
1, 8629, Note_on_c, 0, 76, 0
1, 8640, Note_on_c, 0, 74, 94
1, 8640, Note_on_c, 1, 59, 94
1, 8640, Note_on_c, 1, 55, 94
1, 8716, Note_on_c, 0, 74, 0
1, 8716, Note_on_c, 1, 55, 0
1, 8716, Note_on_c, 1, 59, 0
1, 8736, Note_on_c, 0, 65, 94
1, 8736, Note_on_c, 0, 72, 94
1, 8736, Note_on_c, 1, 55, 94
1, 8773, Note_on_c, 0, 72, 0
1, 8784, Note_on_c, 0, 71, 94
1, 8812, Note_on_c, 0, 65, 0
1, 8812, Note_on_c, 1, 55, 0
1, 8821, Note_on_c, 0, 71, 0
1, 8832, Note_on_c, 0, 72, 94
1, 8832, Note_on_c, 0, 64, 94
1, 8832, Note_on_c, 0, 60, 94
1, 8869, Note_on_c, 0, 60, 0
1, 8869, Note_on_c, 0, 64, 0
1, 8880, Note_on_c, 0, 60, 94
1, 8917, Note_on_c, 0, 60, 0
1, 8928, Note_on_c, 1, 59, 94
1, 8965, Note_on_c, 1, 59, 0
1, 8976, Note_on_c, 0, 60, 94
1, 8984, Note_on_c, 0, 72, 0
1, 9013, Note_on_c, 0, 60, 0
1, 9024, Note_on_c, 0, 67, 94
1, 9024, Note_on_c, 0, 70, 94
1, 9024, Note_on_c, 0, 76, 94
1, 9024, Note_on_c, 1, 47, 94
1, 9061, Note_on_c, 1, 47, 0
1, 9072, Note_on_c, 1, 48, 94
1, 9109, Note_on_c, 1, 48, 0
1, 9120, Note_on_c, 1, 47, 94
1, 9157, Note_on_c, 1, 47, 0
1, 9168, Note_on_c, 1, 48, 94
1, 9205, Note_on_c, 1, 48, 0
1, 9216, Note_on_c, 1, 36, 80
1, 9292, Note_on_c, 0, 76, 0
1, 9292, Note_on_c, 0, 70, 0
1, 9292, Note_on_c, 0, 67, 0
1, 9292, Note_on_c, 1, 36, 0
1, 9312, Note_on_c, 0, 69, 80
1, 9312, Note_on_c, 0, 77, 80
1, 9388, Note_on_c, 0, 77, 0
1, 9388, Note_on_c, 0, 69, 0
1, 9408, Note_on_c, 0, 69, 80
1, 9408, Note_on_c, 0, 65, 80
1, 9484, Note_on_c, 0, 65, 0
1, 9484, Note_on_c, 0, 69, 0
1, 9504, Note_on_c, 0, 62, 80
1, 9504, Note_on_c, 0, 71, 80
1, 9525, Note_on_c, 0, 71, 0
1, 9525, Note_on_c, 0, 62, 0
1, 9528, Note_on_c, 0, 72, 80
1, 9549, Note_on_c, 0, 72, 0
1, 9552, Note_on_c, 0, 71, 80
1, 9573, Note_on_c, 0, 71, 0
1, 9576, Note_on_c, 0, 72, 80
1, 9597, Note_on_c, 0, 72, 0
1, 9600, Note_on_c, 0, 64, 80
1, 9600, Note_on_c, 0, 72, 80
1, 9600, Note_on_c, 1, 59, 80
1, 9637, Note_on_c, 1, 59, 0
1, 9648, Note_on_c, 0, 60, 80
1, 9685, Note_on_c, 0, 60, 0
1, 9696, Note_on_c, 1, 59, 80
1, 9733, Note_on_c, 1, 59, 0
1, 9744, Note_on_c, 0, 60, 80
1, 9752, Note_on_c, 0, 72, 0
1, 9752, Note_on_c, 0, 64, 0
1, 9781, Note_on_c, 0, 60, 0
1, 9792, Note_on_c, 0, 67, 80
1, 9792, Note_on_c, 0, 70, 80
1, 9792, Note_on_c, 0, 76, 80
1, 9792, Note_on_c, 1, 47, 80
1, 9829, Note_on_c, 1, 47, 0
1, 9840, Note_on_c, 1, 48, 80
1, 9877, Note_on_c, 1, 48, 0
1, 9888, Note_on_c, 1, 47, 80
1, 9925, Note_on_c, 1, 47, 0
1, 9936, Note_on_c, 1, 48, 80
1, 9973, Note_on_c, 1, 48, 0
1, 9984, Note_on_c, 1, 36, 94
1, 10060, Note_on_c, 0, 76, 0
1, 10060, Note_on_c, 0, 70, 0
1, 10060, Note_on_c, 0, 67, 0
1, 10060, Note_on_c, 1, 36, 0
1, 10080, Note_on_c, 0, 77, 94
1, 10080, Note_on_c, 0, 69, 94
1, 10156, Note_on_c, 0, 69, 0
1, 10156, Note_on_c, 0, 77, 0
1, 10176, Note_on_c, 0, 65, 94
1, 10176, Note_on_c, 0, 69, 94
1, 10252, Note_on_c, 0, 69, 0
1, 10252, Note_on_c, 0, 65, 0
1, 10272, Note_on_c, 0, 62, 94
1, 10272, Note_on_c, 0, 71, 94
1, 10289, Note_on_c, 0, 71, 0
1, 10289, Note_on_c, 0, 62, 0
1, 10296, Note_on_c, 0, 72, 94
1, 10313, Note_on_c, 0, 72, 0
1, 10320, Note_on_c, 0, 71, 94
1, 10337, Note_on_c, 0, 71, 0
1, 10344, Note_on_c, 0, 72, 94
1, 10361, Note_on_c, 0, 72, 0
1, 10368, Note_on_c, 0, 64, 94
1, 10368, Note_on_c, 0, 72, 94
1, 10385, Note_on_c, 0, 72, 0
1, 10392, Note_on_c, 0, 74, 94
1, 10409, Note_on_c, 0, 74, 0
1, 10416, Note_on_c, 0, 71, 94
1, 10444, Note_on_c, 0, 64, 0
1, 10453, Note_on_c, 0, 71, 0
1, 10464, Note_on_c, 0, 72, 94
1, 10464, Note_on_c, 1, 55, 94
1, 10501, Note_on_c, 0, 72, 0
1, 10512, Note_on_c, 0, 76, 94
1, 10540, Note_on_c, 1, 55, 0
1, 10549, Note_on_c, 0, 76, 0
1, 10560, Note_on_c, 0, 74, 94
1, 10560, Note_on_c, 1, 59, 94
1, 10577, Note_on_c, 0, 74, 0
1, 10584, Note_on_c, 0, 76, 94
1, 10601, Note_on_c, 0, 76, 0
1, 10608, Note_on_c, 0, 72, 94
1, 10636, Note_on_c, 1, 59, 0
1, 10645, Note_on_c, 0, 72, 0
1, 10656, Note_on_c, 0, 74, 94
1, 10656, Note_on_c, 1, 55, 94
1, 10693, Note_on_c, 0, 74, 0
1, 10704, Note_on_c, 0, 77, 94
1, 10732, Note_on_c, 1, 55, 0
1, 10741, Note_on_c, 0, 77, 0
1, 10752, Note_on_c, 0, 60, 94
1, 10752, Note_on_c, 0, 76, 94
1, 10769, Note_on_c, 0, 76, 0
1, 10776, Note_on_c, 0, 77, 94
1, 10793, Note_on_c, 0, 77, 0
1, 10800, Note_on_c, 0, 74, 94
1, 10828, Note_on_c, 0, 60, 0
1, 10837, Note_on_c, 0, 74, 0
1, 10848, Note_on_c, 0, 76, 94
1, 10848, Note_on_c, 1, 55, 94
1, 10885, Note_on_c, 0, 76, 0
1, 10896, Note_on_c, 0, 79, 94
1, 10924, Note_on_c, 1, 55, 0
1, 10933, Note_on_c, 0, 79, 0
1, 10944, Note_on_c, 0, 62, 94
1, 10944, Note_on_c, 0, 77, 94
1, 10961, Note_on_c, 0, 77, 0
1, 10968, Note_on_c, 0, 79, 94
1, 10985, Note_on_c, 0, 79, 0
1, 10992, Note_on_c, 0, 76, 94
1, 11020, Note_on_c, 0, 62, 0
1, 11029, Note_on_c, 0, 76, 0
1, 11040, Note_on_c, 0, 77, 94
1, 11040, Note_on_c, 1, 55, 94
1, 11077, Note_on_c, 0, 77, 0
1, 11088, Note_on_c, 0, 81, 94
1, 11116, Note_on_c, 1, 55, 0
1, 11125, Note_on_c, 0, 81, 0
1, 11136, Note_on_c, 0, 79, 94
1, 11136, Note_on_c, 0, 64, 94
1, 11173, Note_on_c, 0, 79, 0
1, 11184, Note_on_c, 0, 84, 94
1, 11221, Note_on_c, 0, 84, 0
1, 11232, Note_on_c, 0, 88, 94
1, 11269, Note_on_c, 0, 88, 0
1, 11280, Note_on_c, 0, 83, 94
1, 11288, Note_on_c, 0, 64, 0
1, 11317, Note_on_c, 0, 83, 0
1, 11328, Note_on_c, 0, 84, 94
1, 11365, Note_on_c, 0, 84, 0
1, 11376, Note_on_c, 0, 79, 94
1, 11413, Note_on_c, 0, 79, 0
1, 11424, Note_on_c, 0, 81, 94
1, 11424, Note_on_c, 0, 62, 94
1, 11424, Note_on_c, 1, 53, 94
1, 11461, Note_on_c, 0, 81, 0
1, 11472, Note_on_c, 0, 77, 94
1, 11500, Note_on_c, 0, 62, 0
1, 11500, Note_on_c, 1, 53, 0
1, 11509, Note_on_c, 0, 77, 0
1, 11520, Note_on_c, 0, 76, 94
1, 11520, Note_on_c, 0, 60, 94
1, 11520, Note_on_c, 1, 55, 94
1, 11537, Note_on_c, 0, 76, 0
1, 11544, Note_on_c, 0, 77, 94
1, 11561, Note_on_c, 0, 77, 0
1, 11568, Note_on_c, 0, 76, 94
1, 11585, Note_on_c, 0, 76, 0
1, 11592, Note_on_c, 0, 77, 94
1, 11596, Note_on_c, 0, 60, 0
1, 11596, Note_on_c, 1, 55, 0
1, 11609, Note_on_c, 0, 77, 0
1, 11616, Note_on_c, 0, 74, 94
1, 11616, Note_on_c, 1, 59, 94
1, 11692, Note_on_c, 0, 74, 0
1, 11692, Note_on_c, 1, 59, 0
1, 11904, Note_on_c, 0, 75, 94
1, 11925, Note_on_c, 0, 75, 0
1, 11928, Note_on_c, 0, 76, 94
1, 12080, Note_on_c, 0, 76, 0
1, 12120, Note_on_c, 0, 75, 94
1, 12141, Note_on_c, 0, 75, 0
1, 12144, Note_on_c, 0, 76, 94
1, 12288, Note_on_c, 0, 71, 94
1, 12293, Note_on_c, 0, 71, 0
1, 12296, Note_on_c, 0, 76, 0
1, 12312, Note_on_c, 0, 74, 94
1, 12317, Note_on_c, 0, 74, 0
1, 12336, Note_on_c, 0, 80, 94
1, 12336, Note_on_c, 1, 40, 94
1, 12341, Note_on_c, 0, 80, 0
1, 12360, Note_on_c, 0, 83, 94
1, 12373, Note_on_c, 1, 40, 0
1, 12384, Note_on_c, 1, 44, 94
1, 12421, Note_on_c, 1, 44, 0
1, 12432, Note_on_c, 1, 47, 94
1, 12469, Note_on_c, 1, 47, 0
1, 12480, Note_on_c, 1, 52, 94
1, 12517, Note_on_c, 1, 52, 0
1, 12528, Note_on_c, 1, 56, 94
1, 12565, Note_on_c, 1, 56, 0
1, 12576, Note_on_c, 1, 59, 94
1, 12613, Note_on_c, 1, 59, 0
1, 12624, Note_on_c, 0, 64, 94
1, 12661, Note_on_c, 0, 64, 0
1, 12672, Note_on_c, 1, 52, 94
1, 12781, Note_on_c, 0, 83, 0
1, 12792, Note_on_c, 0, 81, 94
1, 12824, Note_on_c, 1, 52, 0
1, 12829, Note_on_c, 0, 81, 0
1, 12840, Note_on_c, 0, 80, 94
1, 12877, Note_on_c, 0, 80, 0
1, 12888, Note_on_c, 0, 77, 94
1, 12925, Note_on_c, 0, 77, 0
1, 12936, Note_on_c, 0, 76, 94
1, 12960, Note_on_c, 1, 56, 94
1, 12960, Note_on_c, 1, 52, 94
1, 12973, Note_on_c, 0, 76, 0
1, 12984, Note_on_c, 0, 74, 94
1, 13021, Note_on_c, 0, 74, 0
1, 13036, Note_on_c, 1, 52, 0
1, 13036, Note_on_c, 1, 56, 0
1, 13056, Note_on_c, 0, 72, 94
1, 13056, Note_on_c, 0, 74, 94
1, 13056, Note_on_c, 1, 45, 94
1, 13056, Note_on_c, 1, 57, 94
1, 13069, Note_on_c, 0, 72, 0
1, 13093, Note_on_c, 0, 74, 0
1, 13104, Note_on_c, 0, 72, 94
1, 13132, Note_on_c, 1, 57, 0
1, 13132, Note_on_c, 1, 45, 0
1, 13141, Note_on_c, 0, 72, 0
1, 13152, Note_on_c, 0, 71, 94
1, 13189, Note_on_c, 0, 71, 0
1, 13200, Note_on_c, 0, 72, 94
1, 13237, Note_on_c, 0, 72, 0
1, 13248, Note_on_c, 0, 71, 94
1, 13285, Note_on_c, 0, 71, 0
1, 13296, Note_on_c, 0, 72, 94
1, 13333, Note_on_c, 0, 72, 0
1, 13344, Note_on_c, 0, 74, 94
1, 13381, Note_on_c, 0, 74, 0
1, 13392, Note_on_c, 0, 72, 94
1, 13429, Note_on_c, 0, 72, 0
1, 13440, Note_on_c, 0, 71, 94
1, 13461, Note_on_c, 0, 71, 0
1, 13464, Note_on_c, 0, 72, 94
1, 13616, Note_on_c, 0, 72, 0
1, 13656, Note_on_c, 0, 71, 94
1, 13677, Note_on_c, 0, 71, 0
1, 13680, Note_on_c, 0, 72, 94
1, 13824, Note_on_c, 0, 69, 94
1, 13829, Note_on_c, 0, 69, 0
1, 13832, Note_on_c, 0, 72, 0
1, 13848, Note_on_c, 0, 72, 94
1, 13853, Note_on_c, 0, 72, 0
1, 13872, Note_on_c, 0, 78, 94
1, 13872, Note_on_c, 1, 38, 94
1, 13877, Note_on_c, 0, 78, 0
1, 13896, Note_on_c, 0, 81, 94
1, 13909, Note_on_c, 1, 38, 0
1, 13920, Note_on_c, 1, 42, 94
1, 13957, Note_on_c, 1, 42, 0
1, 13968, Note_on_c, 1, 45, 94
1, 14005, Note_on_c, 1, 45, 0
1, 14016, Note_on_c, 1, 50, 94
1, 14053, Note_on_c, 1, 50, 0
1, 14064, Note_on_c, 1, 54, 94
1, 14101, Note_on_c, 1, 54, 0
1, 14112, Note_on_c, 1, 57, 94
1, 14149, Note_on_c, 1, 57, 0
1, 14160, Note_on_c, 0, 62, 94
1, 14197, Note_on_c, 0, 62, 0
1, 14208, Note_on_c, 1, 50, 94
1, 14317, Note_on_c, 0, 81, 0
1, 14328, Note_on_c, 0, 79, 94
1, 14360, Note_on_c, 1, 50, 0
1, 14365, Note_on_c, 0, 79, 0
1, 14376, Note_on_c, 0, 78, 94
1, 14413, Note_on_c, 0, 78, 0
1, 14424, Note_on_c, 0, 76, 94
1, 14461, Note_on_c, 0, 76, 0
1, 14472, Note_on_c, 0, 74, 94
1, 14496, Note_on_c, 1, 54, 94
1, 14496, Note_on_c, 1, 50, 94
1, 14509, Note_on_c, 0, 74, 0
1, 14520, Note_on_c, 0, 72, 94
1, 14557, Note_on_c, 0, 72, 0
1, 14572, Note_on_c, 1, 50, 0
1, 14572, Note_on_c, 1, 54, 0
1, 14592, Note_on_c, 0, 71, 52
1, 14592, Note_on_c, 0, 71, 94
1, 14592, Note_on_c, 1, 55, 52
1, 14605, Note_on_c, 0, 71, 0
1, 14629, Note_on_c, 1, 55, 0
1, 14640, Note_on_c, 0, 67, 52
1, 14677, Note_on_c, 0, 67, 0
1, 14688, Note_on_c, 0, 66, 52
1, 14725, Note_on_c, 0, 66, 0
1, 14736, Note_on_c, 0, 67, 52
1, 14744, Note_on_c, 0, 71, 0
1, 14773, Note_on_c, 0, 67, 0
1, 14784, Note_on_c, 0, 74, 52
1, 14784, Note_on_c, 1, 59, 52
1, 14821, Note_on_c, 1, 59, 0
1, 14832, Note_on_c, 0, 67, 52
1, 14860, Note_on_c, 0, 74, 0
1, 14869, Note_on_c, 0, 67, 0
1, 14880, Note_on_c, 0, 74, 52
1, 14880, Note_on_c, 0, 66, 52
1, 14917, Note_on_c, 0, 66, 0
1, 14928, Note_on_c, 0, 67, 52
1, 14956, Note_on_c, 0, 74, 0
1, 14965, Note_on_c, 0, 67, 0
1, 14976, Note_on_c, 0, 76, 52
1, 14976, Note_on_c, 0, 60, 52
1, 15013, Note_on_c, 0, 60, 0
1, 15024, Note_on_c, 0, 67, 52
1, 15061, Note_on_c, 0, 67, 0
1, 15072, Note_on_c, 0, 66, 52
1, 15089, Note_on_c, 0, 76, 0
1, 15109, Note_on_c, 0, 66, 0
1, 15120, Note_on_c, 0, 67, 52
1, 15120, Note_on_c, 0, 78, 52
1, 15157, Note_on_c, 0, 78, 0
1, 15157, Note_on_c, 0, 67, 0
1, 15168, Note_on_c, 0, 60, 52
1, 15168, Note_on_c, 0, 79, 52
1, 15205, Note_on_c, 0, 60, 0
1, 15216, Note_on_c, 0, 67, 52
1, 15244, Note_on_c, 0, 79, 0
1, 15253, Note_on_c, 0, 67, 0
1, 15264, Note_on_c, 0, 66, 52
1, 15264, Note_on_c, 0, 78, 52
1, 15301, Note_on_c, 0, 78, 0
1, 15301, Note_on_c, 0, 66, 0
1, 15312, Note_on_c, 0, 67, 52
1, 15312, Note_on_c, 0, 76, 52
1, 15349, Note_on_c, 0, 76, 0
1, 15349, Note_on_c, 0, 67, 0
1, 15360, Note_on_c, 0, 74, 52
1, 15360, Note_on_c, 1, 59, 52
1, 15397, Note_on_c, 1, 59, 0
1, 15408, Note_on_c, 0, 67, 52
1, 15436, Note_on_c, 0, 74, 0
1, 15445, Note_on_c, 0, 67, 0
1, 15456, Note_on_c, 0, 66, 52
1, 15493, Note_on_c, 0, 66, 0
1, 15504, Note_on_c, 0, 67, 52
1, 15541, Note_on_c, 0, 67, 0
1, 15552, Note_on_c, 0, 74, 52
1, 15552, Note_on_c, 1, 59, 52
1, 15589, Note_on_c, 0, 74, 0
1, 15589, Note_on_c, 1, 59, 0
1, 15600, Note_on_c, 0, 71, 52
1, 15600, Note_on_c, 0, 67, 52
1, 15637, Note_on_c, 0, 67, 0
1, 15637, Note_on_c, 0, 71, 0
1, 15648, Note_on_c, 0, 66, 52
1, 15648, Note_on_c, 0, 74, 52
1, 15685, Note_on_c, 0, 74, 0
1, 15685, Note_on_c, 0, 66, 0
1, 15696, Note_on_c, 0, 67, 52
1, 15696, Note_on_c, 0, 71, 52
1, 15733, Note_on_c, 0, 71, 0
1, 15733, Note_on_c, 0, 67, 0
1, 15744, Note_on_c, 0, 76, 52
1, 15744, Note_on_c, 0, 60, 52
1, 15781, Note_on_c, 0, 60, 0
1, 15792, Note_on_c, 0, 67, 52
1, 15829, Note_on_c, 0, 67, 0
1, 15840, Note_on_c, 0, 66, 52
1, 15857, Note_on_c, 0, 76, 0
1, 15877, Note_on_c, 0, 66, 0
1, 15888, Note_on_c, 0, 67, 52
1, 15888, Note_on_c, 0, 78, 52
1, 15925, Note_on_c, 0, 78, 0
1, 15925, Note_on_c, 0, 67, 0
1, 15936, Note_on_c, 0, 60, 52
1, 15936, Note_on_c, 0, 79, 52
1, 15973, Note_on_c, 0, 60, 0
1, 15984, Note_on_c, 0, 67, 52
1, 16012, Note_on_c, 0, 79, 0
1, 16021, Note_on_c, 0, 67, 0
1, 16032, Note_on_c, 0, 66, 52
1, 16032, Note_on_c, 0, 78, 52
1, 16069, Note_on_c, 0, 78, 0
1, 16069, Note_on_c, 0, 66, 0
1, 16080, Note_on_c, 0, 67, 52
1, 16080, Note_on_c, 0, 76, 52
1, 16117, Note_on_c, 0, 76, 0
1, 16117, Note_on_c, 0, 67, 0
1, 16128, Note_on_c, 0, 74, 52
1, 16128, Note_on_c, 1, 59, 52
1, 16204, Note_on_c, 0, 74, 0
1, 16224, Note_on_c, 0, 83, 52
1, 16261, Note_on_c, 0, 83, 0
1, 16272, Note_on_c, 0, 81, 52
1, 16280, Note_on_c, 1, 59, 0
1, 16309, Note_on_c, 0, 81, 0
1, 16320, Note_on_c, 0, 79, 52
1, 16357, Note_on_c, 0, 79, 0
1, 16368, Note_on_c, 0, 78, 52
1, 16405, Note_on_c, 0, 78, 0
1, 16416, Note_on_c, 0, 68, 52
1, 16416, Note_on_c, 0, 76, 52
1, 16453, Note_on_c, 0, 76, 0
1, 16464, Note_on_c, 0, 74, 52
1, 16492, Note_on_c, 0, 68, 0
1, 16501, Note_on_c, 0, 74, 0
1, 16512, Note_on_c, 0, 72, 52
1, 16512, Note_on_c, 0, 69, 52
1, 16529, Note_on_c, 0, 72, 0
1, 16536, Note_on_c, 0, 74, 52
1, 16553, Note_on_c, 0, 74, 0
1, 16560, Note_on_c, 0, 72, 52
1, 16577, Note_on_c, 0, 72, 0
1, 16584, Note_on_c, 0, 74, 52
1, 16601, Note_on_c, 0, 74, 0
1, 16608, Note_on_c, 0, 81, 52
1, 16645, Note_on_c, 0, 81, 0
1, 16656, Note_on_c, 0, 79, 52
1, 16664, Note_on_c, 0, 69, 0
1, 16693, Note_on_c, 0, 79, 0
1, 16704, Note_on_c, 0, 78, 52
1, 16741, Note_on_c, 0, 78, 0
1, 16752, Note_on_c, 0, 76, 52
1, 16789, Note_on_c, 0, 76, 0
1, 16800, Note_on_c, 0, 74, 52
1, 16800, Note_on_c, 0, 66, 52
1, 16837, Note_on_c, 0, 74, 0
1, 16848, Note_on_c, 0, 72, 52
1, 16876, Note_on_c, 0, 66, 0
1, 16885, Note_on_c, 0, 72, 0
1, 16896, Note_on_c, 0, 71, 52
1, 16896, Note_on_c, 0, 67, 52
1, 16913, Note_on_c, 0, 71, 0
1, 16920, Note_on_c, 0, 72, 52
1, 16937, Note_on_c, 0, 72, 0
1, 16944, Note_on_c, 0, 71, 52
1, 16961, Note_on_c, 0, 71, 0
1, 16968, Note_on_c, 0, 72, 52
1, 16985, Note_on_c, 0, 72, 0
1, 16992, Note_on_c, 0, 79, 52
1, 17029, Note_on_c, 0, 79, 0
1, 17040, Note_on_c, 0, 78, 52
1, 17048, Note_on_c, 0, 67, 0
1, 17077, Note_on_c, 0, 78, 0
1, 17088, Note_on_c, 0, 76, 52
1, 17125, Note_on_c, 0, 76, 0
1, 17136, Note_on_c, 0, 74, 52
1, 17173, Note_on_c, 0, 74, 0
1, 17184, Note_on_c, 0, 64, 52
1, 17184, Note_on_c, 0, 72, 52
1, 17221, Note_on_c, 0, 72, 0
1, 17232, Note_on_c, 0, 71, 52
1, 17260, Note_on_c, 0, 64, 0
1, 17269, Note_on_c, 0, 71, 0
1, 17280, Note_on_c, 0, 69, 52
1, 17280, Note_on_c, 0, 60, 52
1, 17297, Note_on_c, 0, 69, 0
1, 17304, Note_on_c, 0, 71, 52
1, 17321, Note_on_c, 0, 71, 0
1, 17328, Note_on_c, 0, 69, 52
1, 17345, Note_on_c, 0, 69, 0
1, 17352, Note_on_c, 0, 71, 52
1, 17369, Note_on_c, 0, 71, 0
1, 17376, Note_on_c, 0, 76, 52
1, 17413, Note_on_c, 0, 76, 0
1, 17424, Note_on_c, 0, 74, 52
1, 17432, Note_on_c, 0, 60, 0
1, 17461, Note_on_c, 0, 74, 0
1, 17472, Note_on_c, 0, 72, 52
1, 17509, Note_on_c, 0, 72, 0
1, 17520, Note_on_c, 0, 71, 52
1, 17557, Note_on_c, 0, 71, 0
1, 17568, Note_on_c, 0, 69, 52
1, 17568, Note_on_c, 0, 61, 52
1, 17605, Note_on_c, 0, 69, 0
1, 17616, Note_on_c, 0, 67, 52
1, 17644, Note_on_c, 0, 61, 0
1, 17653, Note_on_c, 0, 67, 0
1, 17664, Note_on_c, 0, 66, 94
1, 17664, Note_on_c, 0, 62, 94
1, 17701, Note_on_c, 0, 66, 0
1, 17712, Note_on_c, 0, 74, 94
1, 17749, Note_on_c, 0, 74, 0
1, 17760, Note_on_c, 0, 83, 94
1, 17797, Note_on_c, 0, 83, 0
1, 17808, Note_on_c, 0, 81, 94
1, 17816, Note_on_c, 0, 62, 0
1, 17845, Note_on_c, 0, 81, 0
1, 17856, Note_on_c, 0, 79, 94
1, 17893, Note_on_c, 0, 79, 0
1, 17904, Note_on_c, 0, 78, 94
1, 17941, Note_on_c, 0, 78, 0
1, 17952, Note_on_c, 0, 68, 94
1, 17952, Note_on_c, 0, 76, 94
1, 17989, Note_on_c, 0, 76, 0
1, 18000, Note_on_c, 0, 74, 94
1, 18028, Note_on_c, 0, 68, 0
1, 18037, Note_on_c, 0, 74, 0
1, 18048, Note_on_c, 0, 74, 94
1, 18048, Note_on_c, 0, 69, 94
1, 18085, Note_on_c, 0, 74, 0
1, 18096, Note_on_c, 0, 73, 94
1, 18133, Note_on_c, 0, 73, 0
1, 18144, Note_on_c, 0, 81, 94
1, 18181, Note_on_c, 0, 81, 0
1, 18192, Note_on_c, 0, 79, 94
1, 18200, Note_on_c, 0, 69, 0
1, 18229, Note_on_c, 0, 79, 0
1, 18240, Note_on_c, 0, 78, 94
1, 18277, Note_on_c, 0, 78, 0
1, 18288, Note_on_c, 0, 76, 94
1, 18325, Note_on_c, 0, 76, 0
1, 18336, Note_on_c, 0, 74, 94
1, 18336, Note_on_c, 0, 66, 94
1, 18373, Note_on_c, 0, 74, 0
1, 18384, Note_on_c, 0, 72, 94
1, 18412, Note_on_c, 0, 66, 0
1, 18421, Note_on_c, 0, 72, 0
1, 18432, Note_on_c, 0, 72, 94
1, 18432, Note_on_c, 0, 67, 94
1, 18469, Note_on_c, 0, 72, 0
1, 18480, Note_on_c, 0, 71, 94
1, 18517, Note_on_c, 0, 71, 0
1, 18528, Note_on_c, 0, 79, 94
1, 18565, Note_on_c, 0, 79, 0
1, 18576, Note_on_c, 0, 78, 94
1, 18584, Note_on_c, 0, 67, 0
1, 18613, Note_on_c, 0, 78, 0
1, 18624, Note_on_c, 0, 76, 94
1, 18661, Note_on_c, 0, 76, 0
1, 18672, Note_on_c, 0, 74, 94
1, 18709, Note_on_c, 0, 74, 0
1, 18720, Note_on_c, 0, 64, 94
1, 18720, Note_on_c, 0, 72, 94
1, 18757, Note_on_c, 0, 72, 0
1, 18768, Note_on_c, 0, 71, 94
1, 18796, Note_on_c, 0, 64, 0
1, 18805, Note_on_c, 0, 71, 0
1, 18816, Note_on_c, 0, 60, 94
1, 18816, Note_on_c, 0, 69, 94
1, 18853, Note_on_c, 0, 60, 0
1, 18864, Note_on_c, 0, 67, 94
1, 18901, Note_on_c, 0, 67, 0
1, 18912, Note_on_c, 0, 66, 94
1, 18949, Note_on_c, 0, 66, 0
1, 18960, Note_on_c, 0, 67, 94
1, 18968, Note_on_c, 0, 69, 0
1, 18997, Note_on_c, 0, 67, 0
1, 19008, Note_on_c, 0, 71, 94
1, 19008, Note_on_c, 0, 62, 94
1, 19025, Note_on_c, 0, 71, 0
1, 19032, Note_on_c, 0, 72, 94
1, 19045, Note_on_c, 0, 62, 0
1, 19049, Note_on_c, 0, 72, 0
1, 19056, Note_on_c, 0, 71, 94
1, 19056, Note_on_c, 0, 67, 94
1, 19073, Note_on_c, 0, 71, 0
1, 19080, Note_on_c, 0, 72, 94
1, 19093, Note_on_c, 0, 67, 0
1, 19097, Note_on_c, 0, 72, 0
1, 19104, Note_on_c, 0, 71, 94
1, 19104, Note_on_c, 0, 66, 94
1, 19121, Note_on_c, 0, 71, 0
1, 19128, Note_on_c, 0, 72, 94
1, 19141, Note_on_c, 0, 66, 0
1, 19145, Note_on_c, 0, 72, 0
1, 19152, Note_on_c, 0, 69, 94
1, 19152, Note_on_c, 0, 67, 94
1, 19169, Note_on_c, 0, 69, 0
1, 19176, Note_on_c, 0, 71, 94
1, 19189, Note_on_c, 0, 67, 0
1, 19193, Note_on_c, 0, 71, 0
1, 19200, Note_on_c, 0, 64, 52
1, 19200, Note_on_c, 0, 72, 52
1, 19237, Note_on_c, 0, 64, 0
1, 19248, Note_on_c, 0, 67, 52
1, 19285, Note_on_c, 0, 67, 0
1, 19296, Note_on_c, 0, 66, 52
1, 19333, Note_on_c, 0, 66, 0
1, 19344, Note_on_c, 0, 67, 52
1, 19381, Note_on_c, 0, 67, 0
1, 19392, Note_on_c, 0, 62, 52
1, 19429, Note_on_c, 0, 72, 0
1, 19429, Note_on_c, 0, 62, 0
1, 19440, Note_on_c, 0, 67, 52
1, 19477, Note_on_c, 0, 67, 0
1, 19488, Note_on_c, 0, 71, 52
1, 19488, Note_on_c, 0, 66, 52
1, 19525, Note_on_c, 0, 66, 0
1, 19536, Note_on_c, 0, 67, 52
1, 19564, Note_on_c, 0, 71, 0
1, 19573, Note_on_c, 0, 67, 0
1, 19584, Note_on_c, 0, 69, 52
1, 19584, Note_on_c, 0, 60, 52
1, 19621, Note_on_c, 0, 60, 0
1, 19632, Note_on_c, 0, 67, 52
1, 19660, Note_on_c, 0, 69, 0
1, 19669, Note_on_c, 0, 67, 0
1, 19680, Note_on_c, 0, 66, 52
1, 19680, Note_on_c, 0, 68, 52
1, 19701, Note_on_c, 0, 68, 0
1, 19704, Note_on_c, 0, 69, 52
1, 19717, Note_on_c, 0, 66, 0
1, 19728, Note_on_c, 0, 67, 52
1, 19765, Note_on_c, 0, 67, 0
1, 19776, Note_on_c, 0, 62, 52
1, 19780, Note_on_c, 0, 69, 0
1, 19800, Note_on_c, 0, 71, 52
1, 19813, Note_on_c, 0, 62, 0
1, 19824, Note_on_c, 0, 67, 52
1, 19861, Note_on_c, 0, 67, 0
1, 19872, Note_on_c, 0, 66, 52
1, 19876, Note_on_c, 0, 71, 0
1, 19896, Note_on_c, 0, 71, 52
1, 19909, Note_on_c, 0, 66, 0
1, 19920, Note_on_c, 0, 67, 52
1, 19957, Note_on_c, 0, 67, 0
1, 19968, Note_on_c, 0, 71, 52
1, 19968, Note_on_c, 0, 64, 52
1, 19972, Note_on_c, 0, 71, 0
1, 19973, Note_on_c, 0, 71, 0
1, 19992, Note_on_c, 0, 74, 52
1, 19997, Note_on_c, 0, 74, 0
1, 20005, Note_on_c, 0, 64, 0
1, 20016, Note_on_c, 0, 67, 52
1, 20016, Note_on_c, 0, 72, 52
1, 20053, Note_on_c, 0, 67, 0
1, 20064, Note_on_c, 0, 66, 52
1, 20101, Note_on_c, 0, 66, 0
1, 20112, Note_on_c, 0, 67, 52
1, 20149, Note_on_c, 0, 67, 0
1, 20160, Note_on_c, 0, 62, 52
1, 20197, Note_on_c, 0, 62, 0
1, 20208, Note_on_c, 0, 67, 52
1, 20245, Note_on_c, 0, 72, 0
1, 20245, Note_on_c, 0, 67, 0
1, 20256, Note_on_c, 0, 66, 52
1, 20293, Note_on_c, 0, 66, 0
1, 20304, Note_on_c, 0, 71, 52
1, 20304, Note_on_c, 0, 67, 52
1, 20341, Note_on_c, 0, 67, 0
1, 20380, Note_on_c, 0, 71, 0
1, 20400, Note_on_c, 0, 68, 52
1, 20405, Note_on_c, 0, 68, 0
1, 20424, Note_on_c, 0, 69, 52
1, 20448, Note_on_c, 0, 64, 52
1, 20448, Note_on_c, 0, 60, 52
1, 20524, Note_on_c, 0, 60, 0
1, 20524, Note_on_c, 0, 64, 0
1, 20544, Note_on_c, 0, 60, 52
1, 20544, Note_on_c, 0, 62, 52
1, 20576, Note_on_c, 0, 69, 0
1, 20620, Note_on_c, 0, 60, 0
1, 20620, Note_on_c, 0, 62, 0
1, 20640, Note_on_c, 0, 64, 52
1, 20640, Note_on_c, 0, 60, 52
1, 20716, Note_on_c, 0, 60, 0
1, 20716, Note_on_c, 0, 64, 0
1, 20736, Note_on_c, 0, 71, 94
1, 20741, Note_on_c, 0, 71, 0
1, 20760, Note_on_c, 0, 72, 94
1, 20832, Note_on_c, 0, 60, 94
1, 20832, Note_on_c, 0, 64, 94
1, 20908, Note_on_c, 0, 64, 0
1, 20908, Note_on_c, 0, 60, 0
1, 20912, Note_on_c, 0, 72, 0
1, 20928, Note_on_c, 0, 63, 94
1, 20928, Note_on_c, 1, 59, 94
1, 21004, Note_on_c, 0, 63, 0
1, 21004, Note_on_c, 1, 59, 0
1, 21024, Note_on_c, 0, 60, 94
1, 21024, Note_on_c, 0, 64, 94
1, 21100, Note_on_c, 0, 64, 0
1, 21100, Note_on_c, 0, 60, 0
1, 21144, Note_on_c, 0, 75, 94
1, 21149, Note_on_c, 0, 75, 0
1, 21168, Note_on_c, 0, 76, 94
1, 21216, Note_on_c, 0, 64, 94
1, 21216, Note_on_c, 0, 60, 94
1, 21292, Note_on_c, 0, 60, 0
1, 21292, Note_on_c, 0, 64, 0
1, 21312, Note_on_c, 0, 63, 94
1, 21312, Note_on_c, 1, 59, 94
1, 21320, Note_on_c, 0, 76, 0
1, 21388, Note_on_c, 0, 63, 0
1, 21388, Note_on_c, 1, 59, 0
1, 21408, Note_on_c, 0, 60, 94
1, 21408, Note_on_c, 0, 64, 94
1, 21484, Note_on_c, 0, 64, 0
1, 21484, Note_on_c, 0, 60, 0
1, 21504, Note_on_c, 0, 68, 52
1, 21509, Note_on_c, 0, 68, 0
1, 21528, Note_on_c, 0, 69, 52
1, 21604, Note_on_c, 0, 69, 0
1, 21624, Note_on_c, 0, 71, 52
1, 21629, Note_on_c, 0, 71, 0
1, 21648, Note_on_c, 0, 72, 52
1, 21724, Note_on_c, 0, 72, 0
1, 21744, Note_on_c, 0, 75, 52
1, 21765, Note_on_c, 0, 75, 0
1, 21768, Note_on_c, 0, 76, 52
1, 21840, Note_on_c, 0, 80, 52
1, 21845, Note_on_c, 0, 80, 0
1, 21857, Note_on_c, 0, 76, 0
1, 21864, Note_on_c, 0, 81, 52
1, 21940, Note_on_c, 0, 81, 0
1, 21952, Note_on_c, 0, 83, 52
1, 21960, Note_on_c, 0, 83, 0
1, 21960, Note_on_c, 0, 84, 52
1, 22036, Note_on_c, 0, 84, 0
1, 22048, Note_on_c, 0, 80, 52
1, 22056, Note_on_c, 0, 80, 0
1, 22056, Note_on_c, 0, 81, 52
1, 22132, Note_on_c, 0, 81, 0
1, 22144, Note_on_c, 0, 75, 52
1, 22152, Note_on_c, 0, 75, 0
1, 22152, Note_on_c, 0, 76, 52
1, 22228, Note_on_c, 0, 76, 0
1, 22240, Note_on_c, 0, 71, 52
1, 22248, Note_on_c, 0, 71, 0
1, 22272, Note_on_c, 0, 74, 94
1, 22272, Note_on_c, 0, 72, 52
1, 22272, Note_on_c, 1, 50, 94
1, 22309, Note_on_c, 1, 50, 0
1, 22320, Note_on_c, 1, 59, 94
1, 22324, Note_on_c, 0, 72, 0
1, 22357, Note_on_c, 1, 59, 0
1, 22368, Note_on_c, 1, 55, 94
1, 22405, Note_on_c, 1, 55, 0
1, 22416, Note_on_c, 1, 59, 94
1, 22453, Note_on_c, 1, 59, 0
1, 22464, Note_on_c, 1, 50, 94
1, 22501, Note_on_c, 0, 74, 0
1, 22501, Note_on_c, 1, 50, 0
1, 22512, Note_on_c, 1, 59, 94
1, 22549, Note_on_c, 1, 59, 0
1, 22560, Note_on_c, 0, 71, 94
1, 22560, Note_on_c, 1, 55, 94
1, 22597, Note_on_c, 1, 55, 0
1, 22608, Note_on_c, 1, 59, 94
1, 22636, Note_on_c, 0, 71, 0
1, 22645, Note_on_c, 1, 59, 0
1, 22656, Note_on_c, 0, 68, 94
1, 22656, Note_on_c, 1, 50, 94
1, 22661, Note_on_c, 0, 68, 0
1, 22680, Note_on_c, 0, 69, 94
1, 22693, Note_on_c, 1, 50, 0
1, 22704, Note_on_c, 0, 60, 94
1, 22741, Note_on_c, 0, 60, 0
1, 22752, Note_on_c, 1, 54, 94
1, 22789, Note_on_c, 1, 54, 0
1, 22800, Note_on_c, 0, 60, 94
1, 22832, Note_on_c, 0, 69, 0
1, 22837, Note_on_c, 0, 60, 0
1, 22848, Note_on_c, 1, 50, 94
1, 22885, Note_on_c, 1, 50, 0
1, 22896, Note_on_c, 0, 60, 94
1, 22933, Note_on_c, 0, 60, 0
1, 22944, Note_on_c, 1, 54, 94
1, 22981, Note_on_c, 1, 54, 0
1, 22992, Note_on_c, 0, 60, 94
1, 23029, Note_on_c, 0, 60, 0
1, 23040, Note_on_c, 0, 67, 94
1, 23040, Note_on_c, 1, 55, 94
1, 23077, Note_on_c, 1, 55, 0
1, 23088, Note_on_c, 0, 62, 94
1, 23116, Note_on_c, 0, 67, 0
1, 23125, Note_on_c, 0, 62, 0
1, 23136, Note_on_c, 0, 79, 94
1, 23136, Note_on_c, 1, 59, 94
1, 23173, Note_on_c, 0, 79, 0
1, 23173, Note_on_c, 1, 59, 0
1, 23184, Note_on_c, 0, 62, 94
1, 23184, Note_on_c, 0, 79, 94
1, 23221, Note_on_c, 0, 79, 0
1, 23221, Note_on_c, 0, 62, 0
1, 23232, Note_on_c, 0, 79, 94
1, 23232, Note_on_c, 1, 55, 94
1, 23269, Note_on_c, 0, 79, 0
1, 23280, Note_on_c, 0, 74, 94
1, 23308, Note_on_c, 1, 55, 0
1, 23317, Note_on_c, 0, 74, 0
1, 23328, Note_on_c, 0, 71, 94
1, 23365, Note_on_c, 0, 71, 0
1, 23376, Note_on_c, 0, 67, 94
1, 23413, Note_on_c, 0, 67, 0
1, 23424, Note_on_c, 0, 69, 94
1, 23424, Note_on_c, 1, 54, 94
1, 23461, Note_on_c, 1, 54, 0
1, 23472, Note_on_c, 0, 62, 94
1, 23500, Note_on_c, 0, 69, 0
1, 23509, Note_on_c, 0, 62, 0
1, 23520, Note_on_c, 0, 81, 94
1, 23520, Note_on_c, 1, 57, 94
1, 23557, Note_on_c, 0, 81, 0
1, 23557, Note_on_c, 1, 57, 0
1, 23568, Note_on_c, 0, 62, 94
1, 23568, Note_on_c, 0, 81, 94
1, 23605, Note_on_c, 0, 81, 0
1, 23605, Note_on_c, 0, 62, 0
1, 23616, Note_on_c, 0, 81, 94
1, 23616, Note_on_c, 1, 54, 94
1, 23653, Note_on_c, 0, 81, 0
1, 23664, Note_on_c, 0, 78, 94
1, 23692, Note_on_c, 1, 54, 0
1, 23701, Note_on_c, 0, 78, 0
1, 23712, Note_on_c, 0, 74, 94
1, 23749, Note_on_c, 0, 74, 0
1, 23760, Note_on_c, 0, 69, 94
1, 23797, Note_on_c, 0, 69, 0
1, 23808, Note_on_c, 0, 71, 94
1, 23808, Note_on_c, 1, 55, 94
1, 23845, Note_on_c, 1, 55, 0
1, 23856, Note_on_c, 0, 62, 94
1, 23884, Note_on_c, 0, 71, 0
1, 23893, Note_on_c, 0, 62, 0
1, 23904, Note_on_c, 0, 83, 94
1, 23904, Note_on_c, 1, 59, 94
1, 23941, Note_on_c, 0, 83, 0
1, 23941, Note_on_c, 1, 59, 0
1, 23952, Note_on_c, 0, 62, 94
1, 23952, Note_on_c, 0, 83, 94
1, 23989, Note_on_c, 0, 83, 0
1, 23989, Note_on_c, 0, 62, 0
1, 24000, Note_on_c, 0, 83, 94
1, 24000, Note_on_c, 1, 55, 94
1, 24037, Note_on_c, 0, 83, 0
1, 24048, Note_on_c, 0, 79, 94
1, 24076, Note_on_c, 1, 55, 0
1, 24085, Note_on_c, 0, 79, 0
1, 24096, Note_on_c, 0, 74, 94
1, 24133, Note_on_c, 0, 74, 0
1, 24144, Note_on_c, 0, 71, 94
1, 24181, Note_on_c, 0, 71, 0
1, 24192, Note_on_c, 0, 75, 94
1, 24192, Note_on_c, 1, 48, 94
1, 24192, Note_on_c, 1, 57, 94
1, 24192, Note_on_c, 1, 52, 94
1, 24229, Note_on_c, 0, 75, 0
1, 24240, Note_on_c, 0, 76, 94
1, 24277, Note_on_c, 0, 76, 0
1, 24288, Note_on_c, 0, 72, 94
1, 24325, Note_on_c, 0, 72, 0
1, 24336, Note_on_c, 0, 69, 94
1, 24344, Note_on_c, 1, 52, 0
1, 24344, Note_on_c, 1, 57, 0
1, 24344, Note_on_c, 1, 48, 0
1, 24373, Note_on_c, 0, 69, 0
1, 24384, Note_on_c, 0, 60, 94
1, 24384, Note_on_c, 0, 71, 94
1, 24384, Note_on_c, 1, 50, 94
1, 24384, Note_on_c, 1, 57, 94
1, 24421, Note_on_c, 0, 71, 0
1, 24432, Note_on_c, 0, 72, 94
1, 24469, Note_on_c, 0, 72, 0
1, 24480, Note_on_c, 0, 69, 94
1, 24517, Note_on_c, 0, 69, 0
1, 24528, Note_on_c, 0, 66, 94
1, 24536, Note_on_c, 0, 60, 0
1, 24536, Note_on_c, 1, 57, 0
1, 24536, Note_on_c, 1, 50, 0
1, 24565, Note_on_c, 0, 66, 0
1, 24576, Note_on_c, 0, 67, 94
1, 24576, Note_on_c, 1, 59, 94
1, 24576, Note_on_c, 1, 55, 94
1, 24613, Note_on_c, 0, 67, 0
1, 24624, Note_on_c, 0, 78, 94
1, 24652, Note_on_c, 1, 55, 0
1, 24652, Note_on_c, 1, 59, 0
1, 24661, Note_on_c, 0, 78, 0
1, 24672, Note_on_c, 0, 79, 94
1, 24709, Note_on_c, 0, 79, 0
1, 24720, Note_on_c, 0, 78, 94
1, 24757, Note_on_c, 0, 78, 0
1, 24768, Note_on_c, 0, 79, 94
1, 24768, Note_on_c, 1, 43, 94
1, 24805, Note_on_c, 0, 79, 0
1, 24805, Note_on_c, 1, 43, 0
1, 24816, Note_on_c, 0, 74, 94
1, 24816, Note_on_c, 1, 55, 94
1, 24853, Note_on_c, 0, 74, 0
1, 24853, Note_on_c, 1, 55, 0
1, 24864, Note_on_c, 0, 71, 94
1, 24864, Note_on_c, 1, 54, 94
1, 24901, Note_on_c, 0, 71, 0
1, 24901, Note_on_c, 1, 54, 0
1, 24912, Note_on_c, 0, 67, 94
1, 24912, Note_on_c, 1, 55, 94
1, 24949, Note_on_c, 0, 67, 0
1, 24949, Note_on_c, 1, 55, 0
1, 24960, Note_on_c, 0, 69, 94
1, 24960, Note_on_c, 1, 54, 94
1, 24997, Note_on_c, 0, 69, 0
1, 25008, Note_on_c, 0, 80, 94
1, 25036, Note_on_c, 1, 54, 0
1, 25045, Note_on_c, 0, 80, 0
1, 25056, Note_on_c, 0, 81, 94
1, 25093, Note_on_c, 0, 81, 0
1, 25104, Note_on_c, 0, 80, 94
1, 25141, Note_on_c, 0, 80, 0
1, 25152, Note_on_c, 0, 81, 94
1, 25152, Note_on_c, 1, 42, 94
1, 25189, Note_on_c, 0, 81, 0
1, 25189, Note_on_c, 1, 42, 0
1, 25200, Note_on_c, 0, 78, 94
1, 25200, Note_on_c, 1, 54, 94
1, 25237, Note_on_c, 0, 78, 0
1, 25237, Note_on_c, 1, 54, 0
1, 25248, Note_on_c, 0, 74, 94
1, 25248, Note_on_c, 1, 52, 94
1, 25285, Note_on_c, 0, 74, 0
1, 25285, Note_on_c, 1, 52, 0
1, 25296, Note_on_c, 0, 69, 94
1, 25296, Note_on_c, 1, 54, 94
1, 25333, Note_on_c, 0, 69, 0
1, 25333, Note_on_c, 1, 54, 0
1, 25344, Note_on_c, 0, 71, 94
1, 25344, Note_on_c, 1, 55, 94
1, 25381, Note_on_c, 0, 71, 0
1, 25392, Note_on_c, 0, 82, 94
1, 25420, Note_on_c, 1, 55, 0
1, 25429, Note_on_c, 0, 82, 0
1, 25440, Note_on_c, 0, 83, 94
1, 25477, Note_on_c, 0, 83, 0
1, 25488, Note_on_c, 0, 82, 94
1, 25525, Note_on_c, 0, 82, 0
1, 25536, Note_on_c, 0, 83, 94
1, 25536, Note_on_c, 1, 43, 94
1, 25573, Note_on_c, 0, 83, 0
1, 25573, Note_on_c, 1, 43, 0
1, 25584, Note_on_c, 0, 79, 94
1, 25584, Note_on_c, 1, 55, 94
1, 25621, Note_on_c, 0, 79, 0
1, 25621, Note_on_c, 1, 55, 0
1, 25632, Note_on_c, 0, 74, 94
1, 25632, Note_on_c, 1, 54, 94
1, 25669, Note_on_c, 0, 74, 0
1, 25669, Note_on_c, 1, 54, 0
1, 25680, Note_on_c, 0, 71, 94
1, 25680, Note_on_c, 1, 55, 94
1, 25717, Note_on_c, 0, 71, 0
1, 25717, Note_on_c, 1, 55, 0
1, 25728, Note_on_c, 0, 75, 94
1, 25728, Note_on_c, 1, 57, 94
1, 25728, Note_on_c, 1, 48, 94
1, 25728, Note_on_c, 1, 52, 94
1, 25765, Note_on_c, 0, 75, 0
1, 25776, Note_on_c, 0, 76, 94
1, 25813, Note_on_c, 0, 76, 0
1, 25824, Note_on_c, 0, 72, 94
1, 25861, Note_on_c, 0, 72, 0
1, 25872, Note_on_c, 0, 69, 94
1, 25880, Note_on_c, 1, 52, 0
1, 25880, Note_on_c, 1, 48, 0
1, 25880, Note_on_c, 1, 57, 0
1, 25909, Note_on_c, 0, 69, 0
1, 25920, Note_on_c, 0, 60, 94
1, 25920, Note_on_c, 0, 71, 94
1, 25920, Note_on_c, 1, 57, 94
1, 25920, Note_on_c, 1, 50, 94
1, 25957, Note_on_c, 0, 71, 0
1, 25968, Note_on_c, 0, 72, 94
1, 26005, Note_on_c, 0, 72, 0
1, 26016, Note_on_c, 0, 69, 94
1, 26053, Note_on_c, 0, 69, 0
1, 26064, Note_on_c, 0, 66, 94
1, 26072, Note_on_c, 0, 60, 0
1, 26072, Note_on_c, 1, 50, 0
1, 26072, Note_on_c, 1, 57, 0
1, 26101, Note_on_c, 0, 66, 0
1, 26112, Note_on_c, 0, 67, 94
1, 26112, Note_on_c, 1, 55, 94
1, 26112, Note_on_c, 1, 59, 94
1, 26149, Note_on_c, 0, 67, 0
1, 26160, Note_on_c, 0, 79, 94
1, 26197, Note_on_c, 0, 79, 0
1, 26208, Note_on_c, 0, 83, 94
1, 26245, Note_on_c, 0, 83, 0
1, 26256, Note_on_c, 0, 81, 94
1, 26264, Note_on_c, 1, 59, 0
1, 26264, Note_on_c, 1, 55, 0
1, 26293, Note_on_c, 0, 81, 0
1, 26304, Note_on_c, 0, 79, 94
1, 26341, Note_on_c, 0, 79, 0
1, 26352, Note_on_c, 0, 78, 94
1, 26389, Note_on_c, 0, 78, 0
1, 26400, Note_on_c, 0, 76, 94
1, 26437, Note_on_c, 0, 76, 0
1, 26448, Note_on_c, 0, 74, 94
1, 26485, Note_on_c, 0, 74, 0
1, 26496, Note_on_c, 0, 72, 94
1, 26533, Note_on_c, 0, 72, 0
1, 26544, Note_on_c, 0, 71, 94
1, 26581, Note_on_c, 0, 71, 0
1, 26592, Note_on_c, 0, 69, 94
1, 26629, Note_on_c, 0, 69, 0
1, 26640, Note_on_c, 0, 67, 94
1, 26677, Note_on_c, 0, 67, 0
1, 26688, Note_on_c, 0, 66, 94
1, 26725, Note_on_c, 0, 66, 0
1, 26736, Note_on_c, 0, 64, 94
1, 26773, Note_on_c, 0, 64, 0
1, 26784, Note_on_c, 0, 62, 94
1, 26821, Note_on_c, 0, 62, 0
1, 26832, Note_on_c, 0, 61, 94
1, 26869, Note_on_c, 0, 61, 0
1, 26880, Note_on_c, 0, 60, 94
1, 27072, Note_on_c, 1, 45, 94
1, 27072, Note_on_c, 1, 57, 94
1, 27224, Note_on_c, 1, 57, 0
1, 27224, Note_on_c, 1, 45, 0
1, 27264, Note_on_c, 1, 54, 94
1, 27264, Note_on_c, 1, 42, 94
1, 27301, Note_on_c, 0, 60, 0
1, 27312, Note_on_c, 0, 62, 94
1, 27349, Note_on_c, 0, 62, 0
1, 27360, Note_on_c, 0, 64, 94
1, 27397, Note_on_c, 0, 64, 0
1, 27408, Note_on_c, 0, 62, 94
1, 27416, Note_on_c, 1, 42, 0
1, 27416, Note_on_c, 1, 54, 0
1, 27444, Note_on_c, 0, 66, 94
1, 27445, Note_on_c, 0, 62, 0
1, 27456, Note_on_c, 0, 66, 0
1, 27456, Note_on_c, 0, 64, 94
1, 27456, Note_on_c, 1, 38, 94
1, 27456, Note_on_c, 1, 50, 94
1, 27532, Note_on_c, 0, 64, 0
1, 27552, Note_on_c, 0, 62, 94
1, 27589, Note_on_c, 0, 62, 0
1, 27608, Note_on_c, 1, 50, 0
1, 27608, Note_on_c, 1, 38, 0
1, 27648, Note_on_c, 0, 60, 94
1, 27648, Note_on_c, 1, 57, 94
1, 27648, Note_on_c, 1, 43, 94
1, 27685, Note_on_c, 1, 43, 0
1, 27696, Note_on_c, 1, 55, 94
1, 27733, Note_on_c, 1, 55, 0
1, 27744, Note_on_c, 1, 54, 94
1, 27781, Note_on_c, 1, 54, 0
1, 27792, Note_on_c, 1, 55, 94
1, 27829, Note_on_c, 1, 55, 0
1, 27840, Note_on_c, 1, 54, 94
1, 27877, Note_on_c, 1, 54, 0
1, 27888, Note_on_c, 1, 55, 94
1, 27925, Note_on_c, 1, 55, 0
1, 27936, Note_on_c, 1, 54, 94
1, 27953, Note_on_c, 0, 60, 0
1, 27953, Note_on_c, 1, 57, 0
1, 27973, Note_on_c, 1, 54, 0
1, 27984, Note_on_c, 1, 55, 94
1, 28021, Note_on_c, 1, 55, 0
1, 28032, Note_on_c, 1, 43, 94
1, 28032, Note_on_c, 1, 59, 94
1, 28032, Note_on_c, 1, 55, 94
1, 28076, Note_on_c, 1, 55, 0
1, 28076, Note_on_c, 1, 59, 0
1, 28080, Note_on_c, 0, 67, 94
1, 28117, Note_on_c, 0, 67, 0
1, 28128, Note_on_c, 0, 66, 94
1, 28165, Note_on_c, 0, 66, 0
1, 28176, Note_on_c, 0, 67, 94
1, 28184, Note_on_c, 1, 43, 0
1, 28213, Note_on_c, 0, 67, 0
1, 28224, Note_on_c, 0, 62, 94
1, 28261, Note_on_c, 0, 62, 0
1, 28272, Note_on_c, 0, 74, 94
1, 28309, Note_on_c, 0, 74, 0
1, 28320, Note_on_c, 0, 73, 94
1, 28357, Note_on_c, 0, 73, 0
1, 28368, Note_on_c, 0, 74, 94
1, 28405, Note_on_c, 0, 74, 0
1, 28416, Note_on_c, 0, 71, 94
1, 28453, Note_on_c, 0, 71, 0
1, 28464, Note_on_c, 0, 79, 94
1, 28501, Note_on_c, 0, 79, 0
1, 28512, Note_on_c, 0, 78, 94
1, 28549, Note_on_c, 0, 78, 0
1, 28560, Note_on_c, 0, 79, 94
1, 28597, Note_on_c, 0, 79, 0
1, 28608, Note_on_c, 0, 74, 94
1, 28645, Note_on_c, 0, 74, 0
1, 28656, Note_on_c, 0, 83, 94
1, 28693, Note_on_c, 0, 83, 0
1, 28704, Note_on_c, 0, 81, 94
1, 28741, Note_on_c, 0, 81, 0
1, 28752, Note_on_c, 0, 83, 94
1, 28789, Note_on_c, 0, 83, 0
1, 28800, Note_on_c, 0, 79, 94
1, 28876, Note_on_c, 0, 79, 0
1, 29184, Note_on_c, 0, 72, 94
1, 29184, Note_on_c, 0, 67, 94
1, 29184, Note_on_c, 0, 64, 94
1, 29184, Note_on_c, 1, 48, 94
1, 29221, Note_on_c, 1, 48, 0
1, 29232, Note_on_c, 0, 60, 94
1, 29269, Note_on_c, 0, 60, 0
1, 29280, Note_on_c, 1, 59, 94
1, 29317, Note_on_c, 1, 59, 0
1, 29328, Note_on_c, 0, 60, 94
1, 29336, Note_on_c, 0, 64, 0
1, 29336, Note_on_c, 0, 67, 0
1, 29336, Note_on_c, 0, 72, 0
1, 29365, Note_on_c, 0, 60, 0
1, 29376, Note_on_c, 1, 48, 94
1, 29452, Note_on_c, 1, 48, 0
1, 29472, Note_on_c, 0, 72, 94
1, 29509, Note_on_c, 0, 72, 0
1, 29520, Note_on_c, 0, 71, 94
1, 29557, Note_on_c, 0, 71, 0
1, 29568, Note_on_c, 0, 74, 94
1, 29605, Note_on_c, 0, 74, 0
1, 29616, Note_on_c, 0, 72, 94
1, 29653, Note_on_c, 0, 72, 0
1, 29664, Note_on_c, 0, 76, 94
1, 29701, Note_on_c, 0, 76, 0
1, 29712, Note_on_c, 0, 74, 94
1, 29749, Note_on_c, 0, 74, 0
1, 29760, Note_on_c, 0, 77, 94
1, 29797, Note_on_c, 0, 77, 0
1, 29808, Note_on_c, 0, 76, 94
1, 29845, Note_on_c, 0, 76, 0
1, 29856, Note_on_c, 0, 79, 94
1, 29893, Note_on_c, 0, 79, 0
1, 29904, Note_on_c, 0, 77, 94
1, 29941, Note_on_c, 0, 77, 0
1, 29952, Note_on_c, 0, 81, 94
1, 29952, Note_on_c, 0, 69, 94
1, 29952, Note_on_c, 0, 77, 94
1, 29952, Note_on_c, 0, 74, 94
1, 29952, Note_on_c, 1, 41, 94
1, 29952, Note_on_c, 1, 53, 94
1, 30104, Note_on_c, 0, 74, 0
1, 30104, Note_on_c, 0, 77, 0
1, 30104, Note_on_c, 0, 69, 0
1, 30104, Note_on_c, 0, 81, 0
1, 30104, Note_on_c, 1, 53, 0
1, 30104, Note_on_c, 1, 41, 0
1, 30144, Note_on_c, 0, 79, 94
1, 30181, Note_on_c, 0, 79, 0
1, 30192, Note_on_c, 0, 77, 94
1, 30229, Note_on_c, 0, 77, 0
1, 30240, Note_on_c, 0, 76, 94
1, 30277, Note_on_c, 0, 76, 0
1, 30288, Note_on_c, 0, 74, 94
1, 30325, Note_on_c, 0, 74, 0
1, 30336, Note_on_c, 0, 72, 94
1, 30353, Note_on_c, 0, 72, 0
1, 30360, Note_on_c, 0, 74, 94
1, 30377, Note_on_c, 0, 74, 0
1, 30384, Note_on_c, 0, 71, 94
1, 30421, Note_on_c, 0, 71, 0
1, 30432, Note_on_c, 0, 72, 94
1, 30432, Note_on_c, 1, 52, 94
1, 30469, Note_on_c, 0, 72, 0
1, 30480, Note_on_c, 0, 76, 94
1, 30508, Note_on_c, 1, 52, 0
1, 30517, Note_on_c, 0, 76, 0
1, 30528, Note_on_c, 0, 74, 94
1, 30528, Note_on_c, 1, 53, 94
1, 30565, Note_on_c, 0, 74, 0
1, 30576, Note_on_c, 0, 77, 94
1, 30604, Note_on_c, 1, 53, 0
1, 30613, Note_on_c, 0, 77, 0
1, 30624, Note_on_c, 0, 71, 94
1, 30624, Note_on_c, 1, 55, 94
1, 30661, Note_on_c, 0, 71, 0
1, 30672, Note_on_c, 0, 74, 94
1, 30700, Note_on_c, 1, 55, 0
1, 30709, Note_on_c, 0, 74, 0
1, 30720, Note_on_c, 0, 72, 94
1, 30720, Note_on_c, 0, 67, 94
1, 30720, Note_on_c, 0, 64, 94
1, 30720, Note_on_c, 1, 48, 94
1, 30757, Note_on_c, 1, 48, 0
1, 30768, Note_on_c, 0, 60, 94
1, 30805, Note_on_c, 0, 60, 0
1, 30816, Note_on_c, 1, 59, 94
1, 30853, Note_on_c, 1, 59, 0
1, 30864, Note_on_c, 0, 60, 94
1, 30872, Note_on_c, 0, 64, 0
1, 30872, Note_on_c, 0, 67, 0
1, 30872, Note_on_c, 0, 72, 0
1, 30901, Note_on_c, 0, 60, 0
1, 30912, Note_on_c, 1, 48, 94
1, 30949, Note_on_c, 1, 48, 0
1, 31008, Note_on_c, 0, 72, 94
1, 31045, Note_on_c, 0, 72, 0
1, 31056, Note_on_c, 0, 71, 94
1, 31093, Note_on_c, 0, 71, 0
1, 31104, Note_on_c, 0, 74, 94
1, 31141, Note_on_c, 0, 74, 0
1, 31152, Note_on_c, 0, 72, 94
1, 31189, Note_on_c, 0, 72, 0
1, 31200, Note_on_c, 0, 76, 94
1, 31237, Note_on_c, 0, 76, 0
1, 31248, Note_on_c, 0, 74, 94
1, 31285, Note_on_c, 0, 74, 0
1, 31296, Note_on_c, 0, 77, 94
1, 31333, Note_on_c, 0, 77, 0
1, 31344, Note_on_c, 0, 76, 94
1, 31381, Note_on_c, 0, 76, 0
1, 31392, Note_on_c, 0, 79, 94
1, 31429, Note_on_c, 0, 79, 0
1, 31440, Note_on_c, 0, 76, 94
1, 31477, Note_on_c, 0, 76, 0
1, 31488, Note_on_c, 0, 81, 94
1, 31488, Note_on_c, 0, 69, 94
1, 31488, Note_on_c, 0, 77, 94
1, 31488, Note_on_c, 0, 74, 94
1, 31488, Note_on_c, 1, 53, 94
1, 31488, Note_on_c, 1, 41, 94
1, 31640, Note_on_c, 0, 74, 0
1, 31640, Note_on_c, 0, 77, 0
1, 31640, Note_on_c, 0, 69, 0
1, 31640, Note_on_c, 0, 81, 0
1, 31640, Note_on_c, 1, 41, 0
1, 31640, Note_on_c, 1, 53, 0
1, 31680, Note_on_c, 0, 79, 94
1, 31717, Note_on_c, 0, 79, 0
1, 31728, Note_on_c, 0, 77, 94
1, 31765, Note_on_c, 0, 77, 0
1, 31776, Note_on_c, 0, 76, 94
1, 31813, Note_on_c, 0, 76, 0
1, 31824, Note_on_c, 0, 74, 94
1, 31861, Note_on_c, 0, 74, 0
1, 31872, Note_on_c, 0, 72, 94
1, 31889, Note_on_c, 0, 72, 0
1, 31896, Note_on_c, 0, 74, 94
1, 31913, Note_on_c, 0, 74, 0
1, 31920, Note_on_c, 0, 71, 94
1, 31957, Note_on_c, 0, 71, 0
1, 31968, Note_on_c, 0, 72, 94
1, 31968, Note_on_c, 1, 52, 94
1, 32005, Note_on_c, 0, 72, 0
1, 32016, Note_on_c, 0, 76, 94
1, 32044, Note_on_c, 1, 52, 0
1, 32053, Note_on_c, 0, 76, 0
1, 32064, Note_on_c, 0, 74, 94
1, 32064, Note_on_c, 1, 53, 94
1, 32101, Note_on_c, 0, 74, 0
1, 32112, Note_on_c, 0, 77, 94
1, 32140, Note_on_c, 1, 53, 0
1, 32149, Note_on_c, 0, 77, 0
1, 32160, Note_on_c, 0, 71, 94
1, 32160, Note_on_c, 1, 55, 94
1, 32197, Note_on_c, 0, 71, 0
1, 32208, Note_on_c, 0, 74, 94
1, 32236, Note_on_c, 1, 55, 0
1, 32245, Note_on_c, 0, 74, 0
1, 32256, Note_on_c, 0, 60, 94
1, 32256, Note_on_c, 0, 72, 94
1, 32293, Note_on_c, 0, 60, 0
1, 32304, Note_on_c, 0, 67, 94
1, 32332, Note_on_c, 0, 72, 0
1, 32341, Note_on_c, 0, 67, 0
1, 32352, Note_on_c, 0, 74, 94
1, 32352, Note_on_c, 0, 64, 94
1, 32373, Note_on_c, 0, 74, 0
1, 32376, Note_on_c, 0, 72, 94
1, 32389, Note_on_c, 0, 64, 0
1, 32400, Note_on_c, 0, 67, 94
1, 32413, Note_on_c, 0, 72, 0
1, 32424, Note_on_c, 0, 71, 94
1, 32437, Note_on_c, 0, 67, 0
1, 32448, Note_on_c, 0, 60, 94
1, 32461, Note_on_c, 0, 71, 0
1, 32472, Note_on_c, 0, 72, 94
1, 32485, Note_on_c, 0, 60, 0
1, 32496, Note_on_c, 0, 67, 94
1, 32533, Note_on_c, 0, 67, 0
1, 32544, Note_on_c, 0, 64, 94
1, 32548, Note_on_c, 0, 72, 0
1, 32568, Note_on_c, 0, 76, 94
1, 32581, Note_on_c, 0, 64, 0
1, 32592, Note_on_c, 0, 67, 94
1, 32629, Note_on_c, 0, 67, 0
1, 32640, Note_on_c, 1, 59, 94
1, 32644, Note_on_c, 0, 76, 0
1, 32664, Note_on_c, 0, 73, 94
1, 32677, Note_on_c, 1, 59, 0
1, 32688, Note_on_c, 0, 67, 94
1, 32725, Note_on_c, 0, 67, 0
1, 32736, Note_on_c, 0, 62, 94
1, 32773, Note_on_c, 0, 62, 0
1, 32784, Note_on_c, 0, 67, 94
1, 32816, Note_on_c, 0, 73, 0
1, 32821, Note_on_c, 0, 67, 0
1, 32832, Note_on_c, 1, 59, 94
1, 32856, Note_on_c, 0, 74, 94
1, 32869, Note_on_c, 1, 59, 0
1, 32880, Note_on_c, 0, 67, 94
1, 32917, Note_on_c, 0, 67, 0
1, 32928, Note_on_c, 0, 62, 94
1, 32932, Note_on_c, 0, 74, 0
1, 32965, Note_on_c, 0, 62, 0
1, 32976, Note_on_c, 0, 67, 94
1, 33013, Note_on_c, 0, 67, 0
1, 33024, Note_on_c, 1, 59, 94
1, 33061, Note_on_c, 1, 59, 0
1, 33072, Note_on_c, 0, 67, 94
1, 33109, Note_on_c, 0, 67, 0
1, 33120, Note_on_c, 0, 76, 94
1, 33120, Note_on_c, 0, 62, 94
1, 33125, Note_on_c, 0, 76, 0
1, 33144, Note_on_c, 0, 74, 94
1, 33157, Note_on_c, 0, 62, 0
1, 33168, Note_on_c, 0, 67, 94
1, 33181, Note_on_c, 0, 74, 0
1, 33192, Note_on_c, 0, 73, 94
1, 33205, Note_on_c, 0, 67, 0
1, 33216, Note_on_c, 1, 59, 94
1, 33229, Note_on_c, 0, 73, 0
1, 33240, Note_on_c, 0, 74, 94
1, 33253, Note_on_c, 1, 59, 0
1, 33264, Note_on_c, 0, 67, 94
1, 33301, Note_on_c, 0, 67, 0
1, 33312, Note_on_c, 0, 62, 94
1, 33316, Note_on_c, 0, 74, 0
1, 33336, Note_on_c, 0, 77, 94
1, 33349, Note_on_c, 0, 62, 0
1, 33360, Note_on_c, 0, 67, 94
1, 33397, Note_on_c, 0, 67, 0
1, 33408, Note_on_c, 0, 60, 94
1, 33412, Note_on_c, 0, 77, 0
1, 33432, Note_on_c, 0, 75, 94
1, 33445, Note_on_c, 0, 60, 0
1, 33456, Note_on_c, 0, 67, 94
1, 33493, Note_on_c, 0, 67, 0
1, 33504, Note_on_c, 0, 64, 94
1, 33541, Note_on_c, 0, 64, 0
1, 33552, Note_on_c, 0, 67, 94
1, 33584, Note_on_c, 0, 75, 0
1, 33589, Note_on_c, 0, 67, 0
1, 33600, Note_on_c, 0, 60, 94
1, 33624, Note_on_c, 0, 76, 94
1, 33637, Note_on_c, 0, 60, 0
1, 33648, Note_on_c, 0, 67, 94
1, 33685, Note_on_c, 0, 67, 0
1, 33696, Note_on_c, 0, 64, 94
1, 33700, Note_on_c, 0, 76, 0
1, 33733, Note_on_c, 0, 64, 0
1, 33744, Note_on_c, 0, 67, 94
1, 33781, Note_on_c, 0, 67, 0
1, 33792, Note_on_c, 0, 60, 94
1, 33829, Note_on_c, 0, 60, 0
1, 33840, Note_on_c, 0, 67, 94
1, 33877, Note_on_c, 0, 67, 0
1, 33888, Note_on_c, 0, 79, 94
1, 33888, Note_on_c, 0, 64, 94
1, 33905, Note_on_c, 0, 79, 0
1, 33912, Note_on_c, 0, 78, 94
1, 33925, Note_on_c, 0, 64, 0
1, 33929, Note_on_c, 0, 78, 0
1, 33936, Note_on_c, 0, 79, 94
1, 33936, Note_on_c, 0, 67, 94
1, 33953, Note_on_c, 0, 79, 0
1, 33960, Note_on_c, 0, 81, 94
1, 33973, Note_on_c, 0, 67, 0
1, 33977, Note_on_c, 0, 81, 0
1, 33984, Note_on_c, 0, 60, 94
1, 33984, Note_on_c, 0, 84, 94
1, 34021, Note_on_c, 0, 60, 0
1, 34032, Note_on_c, 0, 67, 94
1, 34060, Note_on_c, 0, 84, 0
1, 34069, Note_on_c, 0, 67, 0
1, 34080, Note_on_c, 0, 64, 94
1, 34080, Note_on_c, 0, 82, 94
1, 34117, Note_on_c, 0, 64, 0
1, 34128, Note_on_c, 0, 67, 94
1, 34156, Note_on_c, 0, 82, 0
1, 34165, Note_on_c, 0, 67, 0
1, 34176, Note_on_c, 0, 80, 94
1, 34176, Note_on_c, 0, 60, 94
1, 34213, Note_on_c, 0, 60, 0
1, 34224, Note_on_c, 0, 69, 94
1, 34261, Note_on_c, 0, 69, 0
1, 34272, Note_on_c, 0, 65, 94
1, 34309, Note_on_c, 0, 65, 0
1, 34320, Note_on_c, 0, 69, 94
1, 34328, Note_on_c, 0, 80, 0
1, 34357, Note_on_c, 0, 69, 0
1, 34368, Note_on_c, 0, 60, 94
1, 34368, Note_on_c, 0, 81, 94
1, 34405, Note_on_c, 0, 60, 0
1, 34416, Note_on_c, 0, 69, 94
1, 34444, Note_on_c, 0, 81, 0
1, 34453, Note_on_c, 0, 69, 0
1, 34464, Note_on_c, 0, 65, 94
1, 34501, Note_on_c, 0, 65, 0
1, 34512, Note_on_c, 0, 69, 94
1, 34549, Note_on_c, 0, 69, 0
1, 34560, Note_on_c, 0, 84, 94
1, 34560, Note_on_c, 0, 60, 94
1, 34597, Note_on_c, 0, 60, 0
1, 34608, Note_on_c, 0, 69, 94
1, 34645, Note_on_c, 0, 69, 0
1, 34656, Note_on_c, 0, 65, 94
1, 34693, Note_on_c, 0, 65, 0
1, 34704, Note_on_c, 0, 69, 94
1, 34712, Note_on_c, 0, 84, 0
1, 34741, Note_on_c, 0, 69, 0
1, 34752, Note_on_c, 0, 83, 94
1, 34752, Note_on_c, 0, 60, 94
1, 34789, Note_on_c, 0, 60, 0
1, 34789, Note_on_c, 0, 83, 0
1, 34800, Note_on_c, 0, 69, 94
1, 34800, Note_on_c, 0, 81, 94
1, 34837, Note_on_c, 0, 81, 0
1, 34837, Note_on_c, 0, 69, 0
1, 34848, Note_on_c, 0, 65, 94
1, 34848, Note_on_c, 0, 79, 94
1, 34885, Note_on_c, 0, 79, 0
1, 34885, Note_on_c, 0, 65, 0
1, 34896, Note_on_c, 0, 69, 94
1, 34896, Note_on_c, 0, 77, 94
1, 34933, Note_on_c, 0, 77, 0
1, 34933, Note_on_c, 0, 69, 0
1, 34944, Note_on_c, 0, 78, 94
1, 34944, Note_on_c, 0, 60, 94
1, 34981, Note_on_c, 0, 60, 0
1, 34992, Note_on_c, 0, 67, 94
1, 35029, Note_on_c, 0, 67, 0
1, 35040, Note_on_c, 0, 64, 94
1, 35077, Note_on_c, 0, 64, 0
1, 35088, Note_on_c, 0, 67, 94
1, 35096, Note_on_c, 0, 78, 0
1, 35125, Note_on_c, 0, 67, 0
1, 35136, Note_on_c, 0, 60, 94
1, 35136, Note_on_c, 0, 79, 94
1, 35173, Note_on_c, 0, 60, 0
1, 35184, Note_on_c, 0, 67, 94
1, 35212, Note_on_c, 0, 79, 0
1, 35221, Note_on_c, 0, 67, 0
1, 35232, Note_on_c, 0, 64, 94
1, 35269, Note_on_c, 0, 64, 0
1, 35280, Note_on_c, 0, 67, 94
1, 35317, Note_on_c, 0, 67, 0
1, 35328, Note_on_c, 1, 52, 94
1, 35365, Note_on_c, 1, 52, 0
1, 35376, Note_on_c, 1, 55, 94
1, 35413, Note_on_c, 1, 55, 0
1, 35424, Note_on_c, 0, 60, 94
1, 35461, Note_on_c, 0, 60, 0
1, 35472, Note_on_c, 0, 64, 94
1, 35509, Note_on_c, 0, 64, 0
1, 35520, Note_on_c, 0, 67, 94
1, 35557, Note_on_c, 0, 67, 0
1, 35568, Note_on_c, 0, 72, 94
1, 35605, Note_on_c, 0, 72, 0
1, 35616, Note_on_c, 0, 76, 94
1, 35653, Note_on_c, 0, 76, 0
1, 35664, Note_on_c, 0, 79, 94
1, 35701, Note_on_c, 0, 79, 0
1, 35712, Note_on_c, 1, 53, 94
1, 35749, Note_on_c, 1, 53, 0
1, 35760, Note_on_c, 1, 57, 94
1, 35797, Note_on_c, 1, 57, 0
1, 35808, Note_on_c, 0, 60, 94
1, 35845, Note_on_c, 0, 60, 0
1, 35856, Note_on_c, 0, 65, 94
1, 35893, Note_on_c, 0, 65, 0
1, 35904, Note_on_c, 0, 69, 94
1, 35941, Note_on_c, 0, 69, 0
1, 35952, Note_on_c, 0, 72, 94
1, 35989, Note_on_c, 0, 72, 0
1, 36000, Note_on_c, 0, 77, 94
1, 36037, Note_on_c, 0, 77, 0
1, 36048, Note_on_c, 0, 81, 94
1, 36085, Note_on_c, 0, 81, 0
1, 36096, Note_on_c, 0, 79, 94
1, 36172, Note_on_c, 0, 79, 0
1, 36192, Note_on_c, 0, 77, 94
1, 36192, Note_on_c, 0, 60, 94
1, 36192, Note_on_c, 1, 55, 94
1, 36229, Note_on_c, 0, 77, 0
1, 36240, Note_on_c, 0, 77, 94
1, 36268, Note_on_c, 0, 60, 0
1, 36268, Note_on_c, 1, 55, 0
1, 36277, Note_on_c, 0, 77, 0
1, 36288, Note_on_c, 0, 74, 94
1, 36288, Note_on_c, 1, 55, 94
1, 36288, Note_on_c, 1, 59, 94
1, 36364, Note_on_c, 0, 74, 0
1, 36364, Note_on_c, 1, 59, 0
1, 36364, Note_on_c, 1, 55, 0
1, 36384, Note_on_c, 0, 76, 94
1, 36384, Note_on_c, 0, 62, 94
1, 36384, Note_on_c, 1, 55, 94
1, 36421, Note_on_c, 0, 76, 0
1, 36432, Note_on_c, 0, 77, 94
1, 36460, Note_on_c, 0, 62, 0
1, 36460, Note_on_c, 1, 55, 0
1, 36469, Note_on_c, 0, 77, 0
1, 36480, Note_on_c, 0, 62, 94
1, 36480, Note_on_c, 0, 77, 94
1, 36480, Note_on_c, 1, 56, 94
1, 36632, Note_on_c, 0, 77, 0
1, 36632, Note_on_c, 0, 62, 0
1, 36632, Note_on_c, 1, 56, 0
1, 36672, Note_on_c, 0, 60, 94
1, 36672, Note_on_c, 0, 76, 94
1, 36672, Note_on_c, 1, 57, 94
1, 36748, Note_on_c, 0, 76, 0
1, 36748, Note_on_c, 0, 60, 0
1, 36748, Note_on_c, 1, 57, 0
1, 36864, Note_on_c, 1, 52, 94
1, 36901, Note_on_c, 1, 52, 0
1, 36912, Note_on_c, 1, 55, 94
1, 36949, Note_on_c, 1, 55, 0
1, 36960, Note_on_c, 0, 60, 94
1, 36997, Note_on_c, 0, 60, 0
1, 37008, Note_on_c, 0, 64, 94
1, 37045, Note_on_c, 0, 64, 0
1, 37056, Note_on_c, 0, 67, 94
1, 37093, Note_on_c, 0, 67, 0
1, 37104, Note_on_c, 0, 72, 94
1, 37141, Note_on_c, 0, 72, 0
1, 37152, Note_on_c, 0, 76, 94
1, 37189, Note_on_c, 0, 76, 0
1, 37200, Note_on_c, 0, 79, 94
1, 37237, Note_on_c, 0, 79, 0
1, 37248, Note_on_c, 1, 53, 94
1, 37285, Note_on_c, 1, 53, 0
1, 37296, Note_on_c, 1, 57, 94
1, 37333, Note_on_c, 1, 57, 0
1, 37344, Note_on_c, 0, 62, 94
1, 37381, Note_on_c, 0, 62, 0
1, 37392, Note_on_c, 0, 65, 94
1, 37429, Note_on_c, 0, 65, 0
1, 37440, Note_on_c, 0, 69, 94
1, 37477, Note_on_c, 0, 69, 0
1, 37488, Note_on_c, 0, 72, 94
1, 37525, Note_on_c, 0, 72, 0
1, 37536, Note_on_c, 0, 77, 94
1, 37573, Note_on_c, 0, 77, 0
1, 37584, Note_on_c, 0, 81, 94
1, 37621, Note_on_c, 0, 81, 0
1, 37632, Note_on_c, 0, 79, 94
1, 37708, Note_on_c, 0, 79, 0
1, 37728, Note_on_c, 0, 77, 94
1, 37728, Note_on_c, 0, 60, 94
1, 37728, Note_on_c, 1, 55, 94
1, 37765, Note_on_c, 0, 77, 0
1, 37776, Note_on_c, 0, 76, 94
1, 37804, Note_on_c, 0, 60, 0
1, 37804, Note_on_c, 1, 55, 0
1, 37813, Note_on_c, 0, 76, 0
1, 37824, Note_on_c, 0, 74, 94
1, 37824, Note_on_c, 1, 59, 94
1, 37824, Note_on_c, 1, 55, 94
1, 37900, Note_on_c, 0, 74, 0
1, 37900, Note_on_c, 1, 55, 0
1, 37900, Note_on_c, 1, 59, 0
1, 37920, Note_on_c, 0, 72, 94
1, 37920, Note_on_c, 0, 65, 94
1, 37920, Note_on_c, 1, 55, 94
1, 37957, Note_on_c, 0, 72, 0
1, 37968, Note_on_c, 0, 71, 94
1, 37996, Note_on_c, 0, 65, 0
1, 37996, Note_on_c, 1, 55, 0
1, 38005, Note_on_c, 0, 71, 0
1, 38016, Note_on_c, 0, 60, 94
1, 38016, Note_on_c, 0, 72, 94
1, 38016, Note_on_c, 0, 64, 94
1, 38053, Note_on_c, 0, 64, 0
1, 38053, Note_on_c, 0, 60, 0
1, 38064, Note_on_c, 0, 60, 94
1, 38101, Note_on_c, 0, 60, 0
1, 38112, Note_on_c, 1, 59, 94
1, 38149, Note_on_c, 1, 59, 0
1, 38160, Note_on_c, 0, 60, 94
1, 38168, Note_on_c, 0, 72, 0
1, 38197, Note_on_c, 0, 60, 0
1, 38208, Note_on_c, 0, 67, 94
1, 38208, Note_on_c, 0, 70, 94
1, 38208, Note_on_c, 0, 76, 94
1, 38208, Note_on_c, 1, 47, 94
1, 38245, Note_on_c, 1, 47, 0
1, 38256, Note_on_c, 1, 48, 94
1, 38293, Note_on_c, 1, 48, 0
1, 38304, Note_on_c, 1, 47, 94
1, 38341, Note_on_c, 1, 47, 0
1, 38352, Note_on_c, 1, 48, 94
1, 38389, Note_on_c, 1, 48, 0
1, 38400, Note_on_c, 1, 36, 80
1, 38476, Note_on_c, 0, 76, 0
1, 38476, Note_on_c, 0, 70, 0
1, 38476, Note_on_c, 0, 67, 0
1, 38476, Note_on_c, 1, 36, 0
1, 38496, Note_on_c, 0, 77, 80
1, 38496, Note_on_c, 0, 69, 80
1, 38572, Note_on_c, 0, 69, 0
1, 38572, Note_on_c, 0, 77, 0
1, 38592, Note_on_c, 0, 65, 80
1, 38592, Note_on_c, 0, 69, 80
1, 38668, Note_on_c, 0, 69, 0
1, 38668, Note_on_c, 0, 65, 0
1, 38688, Note_on_c, 0, 71, 80
1, 38688, Note_on_c, 0, 62, 80
1, 38709, Note_on_c, 0, 62, 0
1, 38709, Note_on_c, 0, 71, 0
1, 38712, Note_on_c, 0, 72, 80
1, 38733, Note_on_c, 0, 72, 0
1, 38736, Note_on_c, 0, 71, 80
1, 38757, Note_on_c, 0, 71, 0
1, 38760, Note_on_c, 0, 72, 80
1, 38781, Note_on_c, 0, 72, 0
1, 38784, Note_on_c, 0, 64, 80
1, 38784, Note_on_c, 0, 72, 80
1, 38784, Note_on_c, 1, 59, 80
1, 38821, Note_on_c, 1, 59, 0
1, 38832, Note_on_c, 0, 60, 80
1, 38869, Note_on_c, 0, 60, 0
1, 38880, Note_on_c, 1, 59, 80
1, 38917, Note_on_c, 1, 59, 0
1, 38928, Note_on_c, 0, 60, 80
1, 38936, Note_on_c, 0, 72, 0
1, 38936, Note_on_c, 0, 64, 0
1, 38965, Note_on_c, 0, 60, 0
1, 38976, Note_on_c, 0, 67, 80
1, 38976, Note_on_c, 0, 70, 80
1, 38976, Note_on_c, 0, 76, 80
1, 38976, Note_on_c, 1, 47, 80
1, 39013, Note_on_c, 1, 47, 0
1, 39024, Note_on_c, 1, 48, 80
1, 39061, Note_on_c, 1, 48, 0
1, 39072, Note_on_c, 1, 47, 80
1, 39109, Note_on_c, 1, 47, 0
1, 39120, Note_on_c, 1, 48, 80
1, 39157, Note_on_c, 1, 48, 0
1, 39168, Note_on_c, 1, 36, 94
1, 39244, Note_on_c, 0, 76, 0
1, 39244, Note_on_c, 0, 70, 0
1, 39244, Note_on_c, 0, 67, 0
1, 39244, Note_on_c, 1, 36, 0
1, 39264, Note_on_c, 0, 77, 94
1, 39264, Note_on_c, 0, 69, 94
1, 39340, Note_on_c, 0, 69, 0
1, 39340, Note_on_c, 0, 77, 0
1, 39360, Note_on_c, 0, 69, 94
1, 39360, Note_on_c, 0, 65, 94
1, 39436, Note_on_c, 0, 65, 0
1, 39436, Note_on_c, 0, 69, 0
1, 39456, Note_on_c, 0, 71, 94
1, 39456, Note_on_c, 0, 62, 94
1, 39473, Note_on_c, 0, 62, 0
1, 39473, Note_on_c, 0, 71, 0
1, 39480, Note_on_c, 0, 72, 94
1, 39497, Note_on_c, 0, 72, 0
1, 39504, Note_on_c, 0, 71, 94
1, 39521, Note_on_c, 0, 71, 0
1, 39528, Note_on_c, 0, 72, 94
1, 39545, Note_on_c, 0, 72, 0
1, 39552, Note_on_c, 0, 72, 94
1, 39552, Note_on_c, 0, 64, 94
1, 39569, Note_on_c, 0, 72, 0
1, 39576, Note_on_c, 0, 74, 94
1, 39593, Note_on_c, 0, 74, 0
1, 39600, Note_on_c, 0, 71, 94
1, 39628, Note_on_c, 0, 64, 0
1, 39637, Note_on_c, 0, 71, 0
1, 39648, Note_on_c, 0, 72, 94
1, 39648, Note_on_c, 1, 55, 94
1, 39685, Note_on_c, 0, 72, 0
1, 39696, Note_on_c, 0, 76, 94
1, 39724, Note_on_c, 1, 55, 0
1, 39733, Note_on_c, 0, 76, 0
1, 39744, Note_on_c, 0, 74, 94
1, 39744, Note_on_c, 1, 59, 94
1, 39761, Note_on_c, 0, 74, 0
1, 39768, Note_on_c, 0, 76, 94
1, 39785, Note_on_c, 0, 76, 0
1, 39792, Note_on_c, 0, 72, 94
1, 39820, Note_on_c, 1, 59, 0
1, 39829, Note_on_c, 0, 72, 0
1, 39840, Note_on_c, 0, 74, 94
1, 39840, Note_on_c, 1, 55, 94
1, 39877, Note_on_c, 0, 74, 0
1, 39888, Note_on_c, 0, 77, 94
1, 39916, Note_on_c, 1, 55, 0
1, 39925, Note_on_c, 0, 77, 0
1, 39936, Note_on_c, 0, 60, 94
1, 39936, Note_on_c, 0, 76, 94
1, 39953, Note_on_c, 0, 76, 0
1, 39960, Note_on_c, 0, 77, 94
1, 39977, Note_on_c, 0, 77, 0
1, 39984, Note_on_c, 0, 74, 94
1, 40012, Note_on_c, 0, 60, 0
1, 40021, Note_on_c, 0, 74, 0
1, 40032, Note_on_c, 0, 76, 94
1, 40032, Note_on_c, 1, 55, 94
1, 40069, Note_on_c, 0, 76, 0
1, 40080, Note_on_c, 0, 79, 94
1, 40108, Note_on_c, 1, 55, 0
1, 40117, Note_on_c, 0, 79, 0
1, 40128, Note_on_c, 0, 77, 94
1, 40128, Note_on_c, 0, 62, 94
1, 40145, Note_on_c, 0, 77, 0
1, 40152, Note_on_c, 0, 79, 94
1, 40169, Note_on_c, 0, 79, 0
1, 40176, Note_on_c, 0, 76, 94
1, 40204, Note_on_c, 0, 62, 0
1, 40213, Note_on_c, 0, 76, 0
1, 40224, Note_on_c, 0, 77, 94
1, 40224, Note_on_c, 1, 55, 94
1, 40261, Note_on_c, 0, 77, 0
1, 40272, Note_on_c, 0, 81, 94
1, 40300, Note_on_c, 1, 55, 0
1, 40309, Note_on_c, 0, 81, 0
1, 40320, Note_on_c, 0, 64, 94
1, 40320, Note_on_c, 0, 79, 94
1, 40357, Note_on_c, 0, 79, 0
1, 40368, Note_on_c, 0, 84, 94
1, 40405, Note_on_c, 0, 84, 0
1, 40416, Note_on_c, 0, 88, 94
1, 40453, Note_on_c, 0, 88, 0
1, 40464, Note_on_c, 0, 83, 94
1, 40472, Note_on_c, 0, 64, 0
1, 40501, Note_on_c, 0, 83, 0
1, 40512, Note_on_c, 0, 84, 94
1, 40549, Note_on_c, 0, 84, 0
1, 40560, Note_on_c, 0, 79, 94
1, 40597, Note_on_c, 0, 79, 0
1, 40608, Note_on_c, 0, 81, 94
1, 40608, Note_on_c, 0, 62, 94
1, 40608, Note_on_c, 1, 53, 94
1, 40645, Note_on_c, 0, 81, 0
1, 40656, Note_on_c, 0, 77, 94
1, 40684, Note_on_c, 0, 62, 0
1, 40684, Note_on_c, 1, 53, 0
1, 40693, Note_on_c, 0, 77, 0
1, 40704, Note_on_c, 0, 60, 94
1, 40704, Note_on_c, 0, 76, 94
1, 40704, Note_on_c, 1, 55, 94
1, 40721, Note_on_c, 0, 76, 0
1, 40728, Note_on_c, 0, 77, 94
1, 40745, Note_on_c, 0, 77, 0
1, 40752, Note_on_c, 0, 76, 94
1, 40769, Note_on_c, 0, 76, 0
1, 40776, Note_on_c, 0, 77, 94
1, 40780, Note_on_c, 0, 60, 0
1, 40780, Note_on_c, 1, 55, 0
1, 40793, Note_on_c, 0, 77, 0
1, 40800, Note_on_c, 0, 74, 94
1, 40800, Note_on_c, 1, 59, 94
1, 40876, Note_on_c, 0, 74, 0
1, 40876, Note_on_c, 1, 59, 0
1, 41088, Note_on_c, 0, 75, 94
1, 41109, Note_on_c, 0, 75, 0
1, 41112, Note_on_c, 0, 76, 94
1, 41264, Note_on_c, 0, 76, 0
1, 41304, Note_on_c, 0, 75, 94
1, 41325, Note_on_c, 0, 75, 0
1, 41328, Note_on_c, 0, 76, 94
1, 41472, Note_on_c, 0, 71, 94
1, 41477, Note_on_c, 0, 71, 0
1, 41480, Note_on_c, 0, 76, 0
1, 41496, Note_on_c, 0, 74, 94
1, 41501, Note_on_c, 0, 74, 0
1, 41520, Note_on_c, 0, 80, 94
1, 41520, Note_on_c, 1, 40, 94
1, 41525, Note_on_c, 0, 80, 0
1, 41544, Note_on_c, 0, 83, 94
1, 41557, Note_on_c, 1, 40, 0
1, 41568, Note_on_c, 1, 44, 94
1, 41605, Note_on_c, 1, 44, 0
1, 41616, Note_on_c, 1, 47, 94
1, 41653, Note_on_c, 1, 47, 0
1, 41664, Note_on_c, 1, 52, 94
1, 41701, Note_on_c, 1, 52, 0
1, 41712, Note_on_c, 1, 56, 94
1, 41749, Note_on_c, 1, 56, 0
1, 41760, Note_on_c, 1, 59, 94
1, 41797, Note_on_c, 1, 59, 0
1, 41808, Note_on_c, 0, 64, 94
1, 41845, Note_on_c, 0, 64, 0
1, 41856, Note_on_c, 1, 52, 94
1, 41965, Note_on_c, 0, 83, 0
1, 41976, Note_on_c, 0, 81, 94
1, 42008, Note_on_c, 1, 52, 0
1, 42013, Note_on_c, 0, 81, 0
1, 42024, Note_on_c, 0, 80, 94
1, 42061, Note_on_c, 0, 80, 0
1, 42072, Note_on_c, 0, 77, 94
1, 42109, Note_on_c, 0, 77, 0
1, 42120, Note_on_c, 0, 76, 94
1, 42144, Note_on_c, 1, 56, 94
1, 42144, Note_on_c, 1, 52, 94
1, 42157, Note_on_c, 0, 76, 0
1, 42168, Note_on_c, 0, 74, 94
1, 42205, Note_on_c, 0, 74, 0
1, 42220, Note_on_c, 1, 52, 0
1, 42220, Note_on_c, 1, 56, 0
1, 42240, Note_on_c, 0, 72, 94
1, 42240, Note_on_c, 0, 74, 94
1, 42240, Note_on_c, 1, 57, 94
1, 42240, Note_on_c, 1, 45, 94
1, 42253, Note_on_c, 0, 72, 0
1, 42277, Note_on_c, 0, 74, 0
1, 42288, Note_on_c, 0, 72, 94
1, 42316, Note_on_c, 1, 45, 0
1, 42316, Note_on_c, 1, 57, 0
1, 42325, Note_on_c, 0, 72, 0
1, 42336, Note_on_c, 0, 71, 94
1, 42373, Note_on_c, 0, 71, 0
1, 42384, Note_on_c, 0, 72, 94
1, 42421, Note_on_c, 0, 72, 0
1, 42432, Note_on_c, 0, 71, 94
1, 42469, Note_on_c, 0, 71, 0
1, 42480, Note_on_c, 0, 72, 94
1, 42517, Note_on_c, 0, 72, 0
1, 42528, Note_on_c, 0, 74, 94
1, 42565, Note_on_c, 0, 74, 0
1, 42576, Note_on_c, 0, 72, 94
1, 42613, Note_on_c, 0, 72, 0
1, 42624, Note_on_c, 0, 71, 94
1, 42645, Note_on_c, 0, 71, 0
1, 42648, Note_on_c, 0, 72, 94
1, 42800, Note_on_c, 0, 72, 0
1, 42840, Note_on_c, 0, 71, 94
1, 42861, Note_on_c, 0, 71, 0
1, 42864, Note_on_c, 0, 72, 94
1, 43008, Note_on_c, 0, 69, 94
1, 43013, Note_on_c, 0, 69, 0
1, 43016, Note_on_c, 0, 72, 0
1, 43032, Note_on_c, 0, 72, 94
1, 43037, Note_on_c, 0, 72, 0
1, 43056, Note_on_c, 0, 78, 94
1, 43056, Note_on_c, 1, 38, 94
1, 43061, Note_on_c, 0, 78, 0
1, 43080, Note_on_c, 0, 81, 94
1, 43093, Note_on_c, 1, 38, 0
1, 43104, Note_on_c, 1, 42, 94
1, 43141, Note_on_c, 1, 42, 0
1, 43152, Note_on_c, 1, 45, 94
1, 43189, Note_on_c, 1, 45, 0
1, 43200, Note_on_c, 1, 50, 94
1, 43237, Note_on_c, 1, 50, 0
1, 43248, Note_on_c, 1, 54, 94
1, 43285, Note_on_c, 1, 54, 0
1, 43296, Note_on_c, 1, 57, 94
1, 43333, Note_on_c, 1, 57, 0
1, 43344, Note_on_c, 0, 62, 94
1, 43381, Note_on_c, 0, 62, 0
1, 43392, Note_on_c, 1, 50, 94
1, 43501, Note_on_c, 0, 81, 0
1, 43512, Note_on_c, 0, 79, 94
1, 43544, Note_on_c, 1, 50, 0
1, 43549, Note_on_c, 0, 79, 0
1, 43560, Note_on_c, 0, 78, 94
1, 43597, Note_on_c, 0, 78, 0
1, 43608, Note_on_c, 0, 76, 94
1, 43645, Note_on_c, 0, 76, 0
1, 43656, Note_on_c, 0, 74, 94
1, 43680, Note_on_c, 1, 54, 94
1, 43680, Note_on_c, 1, 50, 94
1, 43693, Note_on_c, 0, 74, 0
1, 43704, Note_on_c, 0, 72, 94
1, 43741, Note_on_c, 0, 72, 0
1, 43756, Note_on_c, 1, 50, 0
1, 43756, Note_on_c, 1, 54, 0
1, 43776, Note_on_c, 0, 71, 94
1, 43776, Note_on_c, 0, 71, 52
1, 43776, Note_on_c, 1, 55, 52
1, 43789, Note_on_c, 0, 71, 0
1, 43813, Note_on_c, 1, 55, 0
1, 43824, Note_on_c, 0, 67, 52
1, 43861, Note_on_c, 0, 67, 0
1, 43872, Note_on_c, 0, 66, 52
1, 43909, Note_on_c, 0, 66, 0
1, 43920, Note_on_c, 0, 67, 52
1, 43928, Note_on_c, 0, 71, 0
1, 43957, Note_on_c, 0, 67, 0
1, 43968, Note_on_c, 0, 74, 52
1, 43968, Note_on_c, 1, 59, 52
1, 44005, Note_on_c, 1, 59, 0
1, 44016, Note_on_c, 0, 67, 52
1, 44044, Note_on_c, 0, 74, 0
1, 44053, Note_on_c, 0, 67, 0
1, 44064, Note_on_c, 0, 66, 52
1, 44064, Note_on_c, 0, 74, 52
1, 44101, Note_on_c, 0, 66, 0
1, 44112, Note_on_c, 0, 67, 52
1, 44140, Note_on_c, 0, 74, 0
1, 44149, Note_on_c, 0, 67, 0
1, 44160, Note_on_c, 0, 60, 52
1, 44160, Note_on_c, 0, 76, 52
1, 44197, Note_on_c, 0, 60, 0
1, 44208, Note_on_c, 0, 67, 52
1, 44245, Note_on_c, 0, 67, 0
1, 44256, Note_on_c, 0, 66, 52
1, 44273, Note_on_c, 0, 76, 0
1, 44293, Note_on_c, 0, 66, 0
1, 44304, Note_on_c, 0, 78, 52
1, 44304, Note_on_c, 0, 67, 52
1, 44341, Note_on_c, 0, 67, 0
1, 44341, Note_on_c, 0, 78, 0
1, 44352, Note_on_c, 0, 60, 52
1, 44352, Note_on_c, 0, 79, 52
1, 44389, Note_on_c, 0, 60, 0
1, 44400, Note_on_c, 0, 67, 52
1, 44428, Note_on_c, 0, 79, 0
1, 44437, Note_on_c, 0, 67, 0
1, 44448, Note_on_c, 0, 66, 52
1, 44448, Note_on_c, 0, 78, 52
1, 44485, Note_on_c, 0, 78, 0
1, 44485, Note_on_c, 0, 66, 0
1, 44496, Note_on_c, 0, 67, 52
1, 44496, Note_on_c, 0, 76, 52
1, 44533, Note_on_c, 0, 76, 0
1, 44533, Note_on_c, 0, 67, 0
1, 44544, Note_on_c, 0, 74, 52
1, 44544, Note_on_c, 1, 59, 52
1, 44581, Note_on_c, 1, 59, 0
1, 44592, Note_on_c, 0, 67, 52
1, 44620, Note_on_c, 0, 74, 0
1, 44629, Note_on_c, 0, 67, 0
1, 44640, Note_on_c, 0, 66, 52
1, 44677, Note_on_c, 0, 66, 0
1, 44688, Note_on_c, 0, 67, 52
1, 44725, Note_on_c, 0, 67, 0
1, 44736, Note_on_c, 0, 74, 52
1, 44736, Note_on_c, 1, 59, 52
1, 44773, Note_on_c, 0, 74, 0
1, 44773, Note_on_c, 1, 59, 0
1, 44784, Note_on_c, 0, 67, 52
1, 44784, Note_on_c, 0, 71, 52
1, 44821, Note_on_c, 0, 71, 0
1, 44821, Note_on_c, 0, 67, 0
1, 44832, Note_on_c, 0, 74, 52
1, 44832, Note_on_c, 0, 66, 52
1, 44869, Note_on_c, 0, 66, 0
1, 44869, Note_on_c, 0, 74, 0
1, 44880, Note_on_c, 0, 71, 52
1, 44880, Note_on_c, 0, 67, 52
1, 44917, Note_on_c, 0, 67, 0
1, 44917, Note_on_c, 0, 71, 0
1, 44928, Note_on_c, 0, 60, 52
1, 44928, Note_on_c, 0, 76, 52
1, 44965, Note_on_c, 0, 60, 0
1, 44976, Note_on_c, 0, 67, 52
1, 45013, Note_on_c, 0, 67, 0
1, 45024, Note_on_c, 0, 66, 52
1, 45041, Note_on_c, 0, 76, 0
1, 45061, Note_on_c, 0, 66, 0
1, 45072, Note_on_c, 0, 78, 52
1, 45072, Note_on_c, 0, 67, 52
1, 45109, Note_on_c, 0, 67, 0
1, 45109, Note_on_c, 0, 78, 0
1, 45120, Note_on_c, 0, 60, 52
1, 45120, Note_on_c, 0, 79, 52
1, 45157, Note_on_c, 0, 60, 0
1, 45168, Note_on_c, 0, 67, 52
1, 45196, Note_on_c, 0, 79, 0
1, 45205, Note_on_c, 0, 67, 0
1, 45216, Note_on_c, 0, 66, 52
1, 45216, Note_on_c, 0, 78, 52
1, 45253, Note_on_c, 0, 78, 0
1, 45253, Note_on_c, 0, 66, 0
1, 45264, Note_on_c, 0, 67, 52
1, 45264, Note_on_c, 0, 76, 52
1, 45301, Note_on_c, 0, 76, 0
1, 45301, Note_on_c, 0, 67, 0
1, 45312, Note_on_c, 0, 74, 52
1, 45312, Note_on_c, 1, 59, 52
1, 45388, Note_on_c, 0, 74, 0
1, 45408, Note_on_c, 0, 83, 52
1, 45445, Note_on_c, 0, 83, 0
1, 45456, Note_on_c, 0, 81, 52
1, 45464, Note_on_c, 1, 59, 0
1, 45493, Note_on_c, 0, 81, 0
1, 45504, Note_on_c, 0, 79, 52
1, 45541, Note_on_c, 0, 79, 0
1, 45552, Note_on_c, 0, 78, 52
1, 45589, Note_on_c, 0, 78, 0
1, 45600, Note_on_c, 0, 76, 52
1, 45600, Note_on_c, 0, 68, 52
1, 45637, Note_on_c, 0, 76, 0
1, 45648, Note_on_c, 0, 74, 52
1, 45676, Note_on_c, 0, 68, 0
1, 45685, Note_on_c, 0, 74, 0
1, 45696, Note_on_c, 0, 69, 52
1, 45696, Note_on_c, 0, 72, 52
1, 45713, Note_on_c, 0, 72, 0
1, 45720, Note_on_c, 0, 74, 52
1, 45737, Note_on_c, 0, 74, 0
1, 45744, Note_on_c, 0, 72, 52
1, 45761, Note_on_c, 0, 72, 0
1, 45768, Note_on_c, 0, 74, 52
1, 45785, Note_on_c, 0, 74, 0
1, 45792, Note_on_c, 0, 81, 52
1, 45829, Note_on_c, 0, 81, 0
1, 45840, Note_on_c, 0, 79, 52
1, 45848, Note_on_c, 0, 69, 0
1, 45877, Note_on_c, 0, 79, 0
1, 45888, Note_on_c, 0, 78, 52
1, 45925, Note_on_c, 0, 78, 0
1, 45936, Note_on_c, 0, 76, 52
1, 45973, Note_on_c, 0, 76, 0
1, 45984, Note_on_c, 0, 74, 52
1, 45984, Note_on_c, 0, 66, 52
1, 46021, Note_on_c, 0, 74, 0
1, 46032, Note_on_c, 0, 72, 52
1, 46060, Note_on_c, 0, 66, 0
1, 46069, Note_on_c, 0, 72, 0
1, 46080, Note_on_c, 0, 67, 52
1, 46080, Note_on_c, 0, 71, 52
1, 46097, Note_on_c, 0, 71, 0
1, 46104, Note_on_c, 0, 72, 52
1, 46121, Note_on_c, 0, 72, 0
1, 46128, Note_on_c, 0, 71, 52
1, 46145, Note_on_c, 0, 71, 0
1, 46152, Note_on_c, 0, 72, 52
1, 46169, Note_on_c, 0, 72, 0
1, 46176, Note_on_c, 0, 79, 52
1, 46213, Note_on_c, 0, 79, 0
1, 46224, Note_on_c, 0, 78, 52
1, 46232, Note_on_c, 0, 67, 0
1, 46261, Note_on_c, 0, 78, 0
1, 46272, Note_on_c, 0, 76, 52
1, 46309, Note_on_c, 0, 76, 0
1, 46320, Note_on_c, 0, 74, 52
1, 46357, Note_on_c, 0, 74, 0
1, 46368, Note_on_c, 0, 72, 52
1, 46368, Note_on_c, 0, 64, 52
1, 46405, Note_on_c, 0, 72, 0
1, 46416, Note_on_c, 0, 71, 52
1, 46444, Note_on_c, 0, 64, 0
1, 46453, Note_on_c, 0, 71, 0
1, 46464, Note_on_c, 0, 60, 52
1, 46464, Note_on_c, 0, 69, 52
1, 46481, Note_on_c, 0, 69, 0
1, 46488, Note_on_c, 0, 71, 52
1, 46505, Note_on_c, 0, 71, 0
1, 46512, Note_on_c, 0, 69, 52
1, 46529, Note_on_c, 0, 69, 0
1, 46536, Note_on_c, 0, 71, 52
1, 46553, Note_on_c, 0, 71, 0
1, 46560, Note_on_c, 0, 76, 52
1, 46597, Note_on_c, 0, 76, 0
1, 46608, Note_on_c, 0, 74, 52
1, 46616, Note_on_c, 0, 60, 0
1, 46645, Note_on_c, 0, 74, 0
1, 46656, Note_on_c, 0, 72, 52
1, 46693, Note_on_c, 0, 72, 0
1, 46704, Note_on_c, 0, 71, 52
1, 46741, Note_on_c, 0, 71, 0
1, 46752, Note_on_c, 0, 69, 52
1, 46752, Note_on_c, 0, 61, 52
1, 46789, Note_on_c, 0, 69, 0
1, 46800, Note_on_c, 0, 67, 52
1, 46828, Note_on_c, 0, 61, 0
1, 46837, Note_on_c, 0, 67, 0
1, 46848, Note_on_c, 0, 62, 94
1, 46848, Note_on_c, 0, 66, 94
1, 46885, Note_on_c, 0, 66, 0
1, 46896, Note_on_c, 0, 74, 94
1, 46933, Note_on_c, 0, 74, 0
1, 46944, Note_on_c, 0, 83, 94
1, 46981, Note_on_c, 0, 83, 0
1, 46992, Note_on_c, 0, 81, 94
1, 47000, Note_on_c, 0, 62, 0
1, 47029, Note_on_c, 0, 81, 0
1, 47040, Note_on_c, 0, 79, 94
1, 47077, Note_on_c, 0, 79, 0
1, 47088, Note_on_c, 0, 78, 94
1, 47125, Note_on_c, 0, 78, 0
1, 47136, Note_on_c, 0, 76, 94
1, 47136, Note_on_c, 0, 68, 94
1, 47173, Note_on_c, 0, 76, 0
1, 47184, Note_on_c, 0, 74, 94
1, 47212, Note_on_c, 0, 68, 0
1, 47221, Note_on_c, 0, 74, 0
1, 47232, Note_on_c, 0, 69, 94
1, 47232, Note_on_c, 0, 74, 94
1, 47269, Note_on_c, 0, 74, 0
1, 47280, Note_on_c, 0, 73, 94
1, 47317, Note_on_c, 0, 73, 0
1, 47328, Note_on_c, 0, 81, 94
1, 47365, Note_on_c, 0, 81, 0
1, 47376, Note_on_c, 0, 79, 94
1, 47384, Note_on_c, 0, 69, 0
1, 47413, Note_on_c, 0, 79, 0
1, 47424, Note_on_c, 0, 78, 94
1, 47461, Note_on_c, 0, 78, 0
1, 47472, Note_on_c, 0, 76, 94
1, 47509, Note_on_c, 0, 76, 0
1, 47520, Note_on_c, 0, 74, 94
1, 47520, Note_on_c, 0, 66, 94
1, 47557, Note_on_c, 0, 74, 0
1, 47568, Note_on_c, 0, 72, 94
1, 47596, Note_on_c, 0, 66, 0
1, 47605, Note_on_c, 0, 72, 0
1, 47616, Note_on_c, 0, 67, 94
1, 47616, Note_on_c, 0, 72, 94
1, 47653, Note_on_c, 0, 72, 0
1, 47664, Note_on_c, 0, 71, 94
1, 47701, Note_on_c, 0, 71, 0
1, 47712, Note_on_c, 0, 79, 94
1, 47749, Note_on_c, 0, 79, 0
1, 47760, Note_on_c, 0, 78, 94
1, 47768, Note_on_c, 0, 67, 0
1, 47797, Note_on_c, 0, 78, 0
1, 47808, Note_on_c, 0, 76, 94
1, 47845, Note_on_c, 0, 76, 0
1, 47856, Note_on_c, 0, 74, 94
1, 47893, Note_on_c, 0, 74, 0
1, 47904, Note_on_c, 0, 72, 94
1, 47904, Note_on_c, 0, 64, 94
1, 47941, Note_on_c, 0, 72, 0
1, 47952, Note_on_c, 0, 71, 94
1, 47980, Note_on_c, 0, 64, 0
1, 47989, Note_on_c, 0, 71, 0
1, 48000, Note_on_c, 0, 69, 94
1, 48000, Note_on_c, 0, 60, 94
1, 48037, Note_on_c, 0, 60, 0
1, 48048, Note_on_c, 0, 67, 94
1, 48085, Note_on_c, 0, 67, 0
1, 48096, Note_on_c, 0, 66, 94
1, 48133, Note_on_c, 0, 66, 0
1, 48144, Note_on_c, 0, 67, 94
1, 48152, Note_on_c, 0, 69, 0
1, 48181, Note_on_c, 0, 67, 0
1, 48192, Note_on_c, 0, 71, 94
1, 48192, Note_on_c, 0, 62, 94
1, 48209, Note_on_c, 0, 71, 0
1, 48216, Note_on_c, 0, 72, 94
1, 48229, Note_on_c, 0, 62, 0
1, 48233, Note_on_c, 0, 72, 0
1, 48240, Note_on_c, 0, 71, 94
1, 48240, Note_on_c, 0, 67, 94
1, 48257, Note_on_c, 0, 71, 0
1, 48264, Note_on_c, 0, 72, 94
1, 48277, Note_on_c, 0, 67, 0
1, 48281, Note_on_c, 0, 72, 0
1, 48288, Note_on_c, 0, 71, 94
1, 48288, Note_on_c, 0, 66, 94
1, 48305, Note_on_c, 0, 71, 0
1, 48312, Note_on_c, 0, 72, 94
1, 48325, Note_on_c, 0, 66, 0
1, 48329, Note_on_c, 0, 72, 0
1, 48336, Note_on_c, 0, 69, 94
1, 48336, Note_on_c, 0, 67, 94
1, 48353, Note_on_c, 0, 69, 0
1, 48360, Note_on_c, 0, 71, 94
1, 48373, Note_on_c, 0, 67, 0
1, 48377, Note_on_c, 0, 71, 0
1, 48384, Note_on_c, 0, 72, 52
1, 48384, Note_on_c, 0, 64, 52
1, 48421, Note_on_c, 0, 64, 0
1, 48432, Note_on_c, 0, 67, 52
1, 48469, Note_on_c, 0, 67, 0
1, 48480, Note_on_c, 0, 66, 52
1, 48517, Note_on_c, 0, 66, 0
1, 48528, Note_on_c, 0, 67, 52
1, 48565, Note_on_c, 0, 67, 0
1, 48576, Note_on_c, 0, 62, 52
1, 48613, Note_on_c, 0, 72, 0
1, 48613, Note_on_c, 0, 62, 0
1, 48624, Note_on_c, 0, 67, 52
1, 48661, Note_on_c, 0, 67, 0
1, 48672, Note_on_c, 0, 66, 52
1, 48672, Note_on_c, 0, 71, 52
1, 48709, Note_on_c, 0, 66, 0
1, 48720, Note_on_c, 0, 67, 52
1, 48748, Note_on_c, 0, 71, 0
1, 48757, Note_on_c, 0, 67, 0
1, 48768, Note_on_c, 0, 60, 52
1, 48768, Note_on_c, 0, 69, 52
1, 48805, Note_on_c, 0, 60, 0
1, 48816, Note_on_c, 0, 67, 52
1, 48844, Note_on_c, 0, 69, 0
1, 48853, Note_on_c, 0, 67, 0
1, 48864, Note_on_c, 0, 68, 52
1, 48864, Note_on_c, 0, 66, 52
1, 48885, Note_on_c, 0, 68, 0
1, 48888, Note_on_c, 0, 69, 52
1, 48901, Note_on_c, 0, 66, 0
1, 48912, Note_on_c, 0, 67, 52
1, 48949, Note_on_c, 0, 67, 0
1, 48960, Note_on_c, 0, 62, 52
1, 48964, Note_on_c, 0, 69, 0
1, 48984, Note_on_c, 0, 71, 52
1, 48997, Note_on_c, 0, 62, 0
1, 49008, Note_on_c, 0, 67, 52
1, 49045, Note_on_c, 0, 67, 0
1, 49056, Note_on_c, 0, 66, 52
1, 49060, Note_on_c, 0, 71, 0
1, 49080, Note_on_c, 0, 71, 52
1, 49093, Note_on_c, 0, 66, 0
1, 49104, Note_on_c, 0, 67, 52
1, 49141, Note_on_c, 0, 67, 0
1, 49152, Note_on_c, 0, 71, 52
1, 49152, Note_on_c, 0, 64, 52
1, 49156, Note_on_c, 0, 71, 0
1, 49157, Note_on_c, 0, 71, 0
1, 49176, Note_on_c, 0, 74, 52
1, 49181, Note_on_c, 0, 74, 0
1, 49189, Note_on_c, 0, 64, 0
1, 49200, Note_on_c, 0, 67, 52
1, 49200, Note_on_c, 0, 72, 52
1, 49237, Note_on_c, 0, 67, 0
1, 49248, Note_on_c, 0, 66, 52
1, 49285, Note_on_c, 0, 66, 0
1, 49296, Note_on_c, 0, 67, 52
1, 49333, Note_on_c, 0, 67, 0
1, 49344, Note_on_c, 0, 62, 52
1, 49381, Note_on_c, 0, 62, 0
1, 49392, Note_on_c, 0, 67, 52
1, 49429, Note_on_c, 0, 72, 0
1, 49429, Note_on_c, 0, 67, 0
1, 49440, Note_on_c, 0, 66, 52
1, 49477, Note_on_c, 0, 66, 0
1, 49488, Note_on_c, 0, 67, 52
1, 49488, Note_on_c, 0, 71, 52
1, 49525, Note_on_c, 0, 67, 0
1, 49564, Note_on_c, 0, 71, 0
1, 49584, Note_on_c, 0, 68, 52
1, 49589, Note_on_c, 0, 68, 0
1, 49608, Note_on_c, 0, 69, 52
1, 49632, Note_on_c, 0, 60, 52
1, 49632, Note_on_c, 0, 64, 52
1, 49708, Note_on_c, 0, 64, 0
1, 49708, Note_on_c, 0, 60, 0
1, 49728, Note_on_c, 0, 60, 52
1, 49728, Note_on_c, 0, 62, 52
1, 49760, Note_on_c, 0, 69, 0
1, 49804, Note_on_c, 0, 60, 0
1, 49804, Note_on_c, 0, 62, 0
1, 49824, Note_on_c, 0, 64, 52
1, 49824, Note_on_c, 0, 60, 52
1, 49900, Note_on_c, 0, 60, 0
1, 49900, Note_on_c, 0, 64, 0
1, 49920, Note_on_c, 0, 71, 94
1, 49925, Note_on_c, 0, 71, 0
1, 49944, Note_on_c, 0, 72, 94
1, 50016, Note_on_c, 0, 64, 94
1, 50016, Note_on_c, 0, 60, 94
1, 50092, Note_on_c, 0, 60, 0
1, 50092, Note_on_c, 0, 64, 0
1, 50096, Note_on_c, 0, 72, 0
1, 50112, Note_on_c, 0, 63, 94
1, 50112, Note_on_c, 1, 59, 94
1, 50188, Note_on_c, 0, 63, 0
1, 50188, Note_on_c, 1, 59, 0
1, 50208, Note_on_c, 0, 64, 94
1, 50208, Note_on_c, 0, 60, 94
1, 50284, Note_on_c, 0, 60, 0
1, 50284, Note_on_c, 0, 64, 0
1, 50328, Note_on_c, 0, 75, 94
1, 50333, Note_on_c, 0, 75, 0
1, 50352, Note_on_c, 0, 76, 94
1, 50400, Note_on_c, 0, 60, 94
1, 50400, Note_on_c, 0, 64, 94
1, 50476, Note_on_c, 0, 64, 0
1, 50476, Note_on_c, 0, 60, 0
1, 50496, Note_on_c, 0, 63, 94
1, 50496, Note_on_c, 1, 59, 94
1, 50504, Note_on_c, 0, 76, 0
1, 50572, Note_on_c, 0, 63, 0
1, 50572, Note_on_c, 1, 59, 0
1, 50592, Note_on_c, 0, 60, 94
1, 50592, Note_on_c, 0, 64, 94
1, 50668, Note_on_c, 0, 64, 0
1, 50668, Note_on_c, 0, 60, 0
1, 50688, Note_on_c, 0, 68, 52
1, 50693, Note_on_c, 0, 68, 0
1, 50712, Note_on_c, 0, 69, 52
1, 50788, Note_on_c, 0, 69, 0
1, 50808, Note_on_c, 0, 71, 52
1, 50813, Note_on_c, 0, 71, 0
1, 50832, Note_on_c, 0, 72, 52
1, 50908, Note_on_c, 0, 72, 0
1, 50928, Note_on_c, 0, 75, 52
1, 50949, Note_on_c, 0, 75, 0
1, 50952, Note_on_c, 0, 76, 52
1, 51024, Note_on_c, 0, 80, 52
1, 51029, Note_on_c, 0, 80, 0
1, 51041, Note_on_c, 0, 76, 0
1, 51048, Note_on_c, 0, 81, 52
1, 51124, Note_on_c, 0, 81, 0
1, 51136, Note_on_c, 0, 83, 52
1, 51144, Note_on_c, 0, 83, 0
1, 51144, Note_on_c, 0, 84, 52
1, 51220, Note_on_c, 0, 84, 0
1, 51232, Note_on_c, 0, 80, 52
1, 51240, Note_on_c, 0, 80, 0
1, 51240, Note_on_c, 0, 81, 52
1, 51316, Note_on_c, 0, 81, 0
1, 51328, Note_on_c, 0, 75, 52
1, 51336, Note_on_c, 0, 75, 0
1, 51336, Note_on_c, 0, 76, 52
1, 51412, Note_on_c, 0, 76, 0
1, 51424, Note_on_c, 0, 71, 52
1, 51432, Note_on_c, 0, 71, 0
1, 51456, Note_on_c, 0, 72, 52
1, 51456, Note_on_c, 0, 74, 94
1, 51456, Note_on_c, 1, 50, 94
1, 51493, Note_on_c, 1, 50, 0
1, 51504, Note_on_c, 1, 59, 94
1, 51508, Note_on_c, 0, 72, 0
1, 51541, Note_on_c, 1, 59, 0
1, 51552, Note_on_c, 1, 55, 94
1, 51589, Note_on_c, 1, 55, 0
1, 51600, Note_on_c, 1, 59, 94
1, 51637, Note_on_c, 1, 59, 0
1, 51648, Note_on_c, 1, 50, 94
1, 51685, Note_on_c, 0, 74, 0
1, 51685, Note_on_c, 1, 50, 0
1, 51696, Note_on_c, 1, 59, 94
1, 51733, Note_on_c, 1, 59, 0
1, 51744, Note_on_c, 0, 71, 94
1, 51744, Note_on_c, 1, 55, 94
1, 51781, Note_on_c, 1, 55, 0
1, 51792, Note_on_c, 1, 59, 94
1, 51820, Note_on_c, 0, 71, 0
1, 51829, Note_on_c, 1, 59, 0
1, 51840, Note_on_c, 0, 68, 94
1, 51840, Note_on_c, 1, 50, 94
1, 51845, Note_on_c, 0, 68, 0
1, 51864, Note_on_c, 0, 69, 94
1, 51877, Note_on_c, 1, 50, 0
1, 51888, Note_on_c, 0, 60, 94
1, 51925, Note_on_c, 0, 60, 0
1, 51936, Note_on_c, 1, 54, 94
1, 51973, Note_on_c, 1, 54, 0
1, 51984, Note_on_c, 0, 60, 94
1, 52016, Note_on_c, 0, 69, 0
1, 52021, Note_on_c, 0, 60, 0
1, 52032, Note_on_c, 1, 50, 94
1, 52069, Note_on_c, 1, 50, 0
1, 52080, Note_on_c, 0, 60, 94
1, 52117, Note_on_c, 0, 60, 0
1, 52128, Note_on_c, 1, 54, 94
1, 52165, Note_on_c, 1, 54, 0
1, 52176, Note_on_c, 0, 60, 94
1, 52213, Note_on_c, 0, 60, 0
1, 52224, Note_on_c, 0, 67, 94
1, 52224, Note_on_c, 1, 55, 94
1, 52261, Note_on_c, 1, 55, 0
1, 52272, Note_on_c, 0, 62, 94
1, 52300, Note_on_c, 0, 67, 0
1, 52309, Note_on_c, 0, 62, 0
1, 52320, Note_on_c, 0, 79, 94
1, 52320, Note_on_c, 1, 59, 94
1, 52357, Note_on_c, 0, 79, 0
1, 52357, Note_on_c, 1, 59, 0
1, 52368, Note_on_c, 0, 62, 94
1, 52368, Note_on_c, 0, 79, 94
1, 52405, Note_on_c, 0, 79, 0
1, 52405, Note_on_c, 0, 62, 0
1, 52416, Note_on_c, 0, 79, 94
1, 52416, Note_on_c, 1, 55, 94
1, 52453, Note_on_c, 0, 79, 0
1, 52464, Note_on_c, 0, 74, 94
1, 52492, Note_on_c, 1, 55, 0
1, 52501, Note_on_c, 0, 74, 0
1, 52512, Note_on_c, 0, 71, 94
1, 52549, Note_on_c, 0, 71, 0
1, 52560, Note_on_c, 0, 67, 94
1, 52597, Note_on_c, 0, 67, 0
1, 52608, Note_on_c, 0, 69, 94
1, 52608, Note_on_c, 1, 54, 94
1, 52645, Note_on_c, 1, 54, 0
1, 52656, Note_on_c, 0, 62, 94
1, 52684, Note_on_c, 0, 69, 0
1, 52693, Note_on_c, 0, 62, 0
1, 52704, Note_on_c, 0, 81, 94
1, 52704, Note_on_c, 1, 57, 94
1, 52741, Note_on_c, 0, 81, 0
1, 52741, Note_on_c, 1, 57, 0
1, 52752, Note_on_c, 0, 81, 94
1, 52752, Note_on_c, 0, 62, 94
1, 52789, Note_on_c, 0, 62, 0
1, 52789, Note_on_c, 0, 81, 0
1, 52800, Note_on_c, 0, 81, 94
1, 52800, Note_on_c, 1, 54, 94
1, 52837, Note_on_c, 0, 81, 0
1, 52848, Note_on_c, 0, 78, 94
1, 52876, Note_on_c, 1, 54, 0
1, 52885, Note_on_c, 0, 78, 0
1, 52896, Note_on_c, 0, 74, 94
1, 52933, Note_on_c, 0, 74, 0
1, 52944, Note_on_c, 0, 69, 94
1, 52981, Note_on_c, 0, 69, 0
1, 52992, Note_on_c, 0, 71, 94
1, 52992, Note_on_c, 1, 55, 94
1, 53029, Note_on_c, 1, 55, 0
1, 53040, Note_on_c, 0, 62, 94
1, 53068, Note_on_c, 0, 71, 0
1, 53077, Note_on_c, 0, 62, 0
1, 53088, Note_on_c, 0, 83, 94
1, 53088, Note_on_c, 1, 59, 94
1, 53125, Note_on_c, 0, 83, 0
1, 53125, Note_on_c, 1, 59, 0
1, 53136, Note_on_c, 0, 83, 94
1, 53136, Note_on_c, 0, 62, 94
1, 53173, Note_on_c, 0, 62, 0
1, 53173, Note_on_c, 0, 83, 0
1, 53184, Note_on_c, 0, 83, 94
1, 53184, Note_on_c, 1, 55, 94
1, 53221, Note_on_c, 0, 83, 0
1, 53232, Note_on_c, 0, 79, 94
1, 53260, Note_on_c, 1, 55, 0
1, 53269, Note_on_c, 0, 79, 0
1, 53280, Note_on_c, 0, 74, 94
1, 53317, Note_on_c, 0, 74, 0
1, 53328, Note_on_c, 0, 71, 94
1, 53365, Note_on_c, 0, 71, 0
1, 53376, Note_on_c, 0, 75, 94
1, 53376, Note_on_c, 1, 48, 94
1, 53376, Note_on_c, 1, 57, 94
1, 53376, Note_on_c, 1, 52, 94
1, 53413, Note_on_c, 0, 75, 0
1, 53424, Note_on_c, 0, 76, 94
1, 53461, Note_on_c, 0, 76, 0
1, 53472, Note_on_c, 0, 72, 94
1, 53509, Note_on_c, 0, 72, 0
1, 53520, Note_on_c, 0, 69, 94
1, 53528, Note_on_c, 1, 52, 0
1, 53528, Note_on_c, 1, 57, 0
1, 53528, Note_on_c, 1, 48, 0
1, 53557, Note_on_c, 0, 69, 0
1, 53568, Note_on_c, 0, 60, 94
1, 53568, Note_on_c, 0, 71, 94
1, 53568, Note_on_c, 1, 50, 94
1, 53568, Note_on_c, 1, 57, 94
1, 53605, Note_on_c, 0, 71, 0
1, 53616, Note_on_c, 0, 72, 94
1, 53653, Note_on_c, 0, 72, 0
1, 53664, Note_on_c, 0, 69, 94
1, 53701, Note_on_c, 0, 69, 0
1, 53712, Note_on_c, 0, 66, 94
1, 53720, Note_on_c, 0, 60, 0
1, 53720, Note_on_c, 1, 57, 0
1, 53720, Note_on_c, 1, 50, 0
1, 53749, Note_on_c, 0, 66, 0
1, 53760, Note_on_c, 0, 67, 94
1, 53760, Note_on_c, 1, 55, 94
1, 53760, Note_on_c, 1, 59, 94
1, 53797, Note_on_c, 0, 67, 0
1, 53808, Note_on_c, 0, 78, 94
1, 53836, Note_on_c, 1, 59, 0
1, 53836, Note_on_c, 1, 55, 0
1, 53845, Note_on_c, 0, 78, 0
1, 53856, Note_on_c, 0, 79, 94
1, 53893, Note_on_c, 0, 79, 0
1, 53904, Note_on_c, 0, 78, 94
1, 53941, Note_on_c, 0, 78, 0
1, 53952, Note_on_c, 0, 79, 94
1, 53952, Note_on_c, 1, 43, 94
1, 53989, Note_on_c, 0, 79, 0
1, 53989, Note_on_c, 1, 43, 0
1, 54000, Note_on_c, 0, 74, 94
1, 54000, Note_on_c, 1, 55, 94
1, 54037, Note_on_c, 0, 74, 0
1, 54037, Note_on_c, 1, 55, 0
1, 54048, Note_on_c, 0, 71, 94
1, 54048, Note_on_c, 1, 54, 94
1, 54085, Note_on_c, 0, 71, 0
1, 54085, Note_on_c, 1, 54, 0
1, 54096, Note_on_c, 0, 67, 94
1, 54096, Note_on_c, 1, 55, 94
1, 54133, Note_on_c, 0, 67, 0
1, 54133, Note_on_c, 1, 55, 0
1, 54144, Note_on_c, 0, 69, 94
1, 54144, Note_on_c, 1, 54, 94
1, 54181, Note_on_c, 0, 69, 0
1, 54192, Note_on_c, 0, 80, 94
1, 54220, Note_on_c, 1, 54, 0
1, 54229, Note_on_c, 0, 80, 0
1, 54240, Note_on_c, 0, 81, 94
1, 54277, Note_on_c, 0, 81, 0
1, 54288, Note_on_c, 0, 80, 94
1, 54325, Note_on_c, 0, 80, 0
1, 54336, Note_on_c, 0, 81, 94
1, 54336, Note_on_c, 1, 42, 94
1, 54373, Note_on_c, 0, 81, 0
1, 54373, Note_on_c, 1, 42, 0
1, 54384, Note_on_c, 0, 78, 94
1, 54384, Note_on_c, 1, 54, 94
1, 54421, Note_on_c, 0, 78, 0
1, 54421, Note_on_c, 1, 54, 0
1, 54432, Note_on_c, 0, 74, 94
1, 54432, Note_on_c, 1, 52, 94
1, 54469, Note_on_c, 0, 74, 0
1, 54469, Note_on_c, 1, 52, 0
1, 54480, Note_on_c, 0, 69, 94
1, 54480, Note_on_c, 1, 54, 94
1, 54517, Note_on_c, 0, 69, 0
1, 54517, Note_on_c, 1, 54, 0
1, 54528, Note_on_c, 0, 71, 94
1, 54528, Note_on_c, 1, 55, 94
1, 54565, Note_on_c, 0, 71, 0
1, 54576, Note_on_c, 0, 82, 94
1, 54604, Note_on_c, 1, 55, 0
1, 54613, Note_on_c, 0, 82, 0
1, 54624, Note_on_c, 0, 83, 94
1, 54661, Note_on_c, 0, 83, 0
1, 54672, Note_on_c, 0, 82, 94
1, 54709, Note_on_c, 0, 82, 0
1, 54720, Note_on_c, 0, 83, 94
1, 54720, Note_on_c, 1, 43, 94
1, 54757, Note_on_c, 0, 83, 0
1, 54757, Note_on_c, 1, 43, 0
1, 54768, Note_on_c, 0, 79, 94
1, 54768, Note_on_c, 1, 55, 94
1, 54805, Note_on_c, 0, 79, 0
1, 54805, Note_on_c, 1, 55, 0
1, 54816, Note_on_c, 0, 74, 94
1, 54816, Note_on_c, 1, 54, 94
1, 54853, Note_on_c, 0, 74, 0
1, 54853, Note_on_c, 1, 54, 0
1, 54864, Note_on_c, 0, 71, 94
1, 54864, Note_on_c, 1, 55, 94
1, 54901, Note_on_c, 0, 71, 0
1, 54901, Note_on_c, 1, 55, 0
1, 54912, Note_on_c, 0, 75, 94
1, 54912, Note_on_c, 1, 57, 94
1, 54912, Note_on_c, 1, 48, 94
1, 54912, Note_on_c, 1, 52, 94
1, 54949, Note_on_c, 0, 75, 0
1, 54960, Note_on_c, 0, 76, 94
1, 54997, Note_on_c, 0, 76, 0
1, 55008, Note_on_c, 0, 72, 94
1, 55045, Note_on_c, 0, 72, 0
1, 55056, Note_on_c, 0, 69, 94
1, 55064, Note_on_c, 1, 52, 0
1, 55064, Note_on_c, 1, 48, 0
1, 55064, Note_on_c, 1, 57, 0
1, 55093, Note_on_c, 0, 69, 0
1, 55104, Note_on_c, 0, 60, 94
1, 55104, Note_on_c, 0, 71, 94
1, 55104, Note_on_c, 1, 57, 94
1, 55104, Note_on_c, 1, 50, 94
1, 55141, Note_on_c, 0, 71, 0
1, 55152, Note_on_c, 0, 72, 94
1, 55189, Note_on_c, 0, 72, 0
1, 55200, Note_on_c, 0, 69, 94
1, 55237, Note_on_c, 0, 69, 0
1, 55248, Note_on_c, 0, 66, 94
1, 55256, Note_on_c, 0, 60, 0
1, 55256, Note_on_c, 1, 50, 0
1, 55256, Note_on_c, 1, 57, 0
1, 55285, Note_on_c, 0, 66, 0
1, 55296, Note_on_c, 0, 67, 94
1, 55296, Note_on_c, 1, 55, 94
1, 55296, Note_on_c, 1, 59, 94
1, 55333, Note_on_c, 0, 67, 0
1, 55344, Note_on_c, 0, 79, 94
1, 55381, Note_on_c, 0, 79, 0
1, 55392, Note_on_c, 0, 83, 94
1, 55429, Note_on_c, 0, 83, 0
1, 55440, Note_on_c, 0, 81, 94
1, 55448, Note_on_c, 1, 59, 0
1, 55448, Note_on_c, 1, 55, 0
1, 55477, Note_on_c, 0, 81, 0
1, 55488, Note_on_c, 0, 79, 94
1, 55525, Note_on_c, 0, 79, 0
1, 55536, Note_on_c, 0, 78, 94
1, 55573, Note_on_c, 0, 78, 0
1, 55584, Note_on_c, 0, 76, 94
1, 55621, Note_on_c, 0, 76, 0
1, 55632, Note_on_c, 0, 74, 94
1, 55669, Note_on_c, 0, 74, 0
1, 55680, Note_on_c, 0, 72, 94
1, 55717, Note_on_c, 0, 72, 0
1, 55728, Note_on_c, 0, 71, 94
1, 55765, Note_on_c, 0, 71, 0
1, 55776, Note_on_c, 0, 69, 94
1, 55813, Note_on_c, 0, 69, 0
1, 55824, Note_on_c, 0, 67, 94
1, 55861, Note_on_c, 0, 67, 0
1, 55872, Note_on_c, 0, 66, 94
1, 55909, Note_on_c, 0, 66, 0
1, 55920, Note_on_c, 0, 64, 94
1, 55957, Note_on_c, 0, 64, 0
1, 55968, Note_on_c, 0, 62, 94
1, 56005, Note_on_c, 0, 62, 0
1, 56016, Note_on_c, 0, 61, 94
1, 56053, Note_on_c, 0, 61, 0
1, 56064, Note_on_c, 0, 60, 94
1, 56256, Note_on_c, 1, 57, 94
1, 56256, Note_on_c, 1, 45, 94
1, 56408, Note_on_c, 1, 45, 0
1, 56408, Note_on_c, 1, 57, 0
1, 56448, Note_on_c, 1, 42, 94
1, 56448, Note_on_c, 1, 54, 94
1, 56485, Note_on_c, 0, 60, 0
1, 56496, Note_on_c, 0, 62, 94
1, 56533, Note_on_c, 0, 62, 0
1, 56544, Note_on_c, 0, 64, 94
1, 56581, Note_on_c, 0, 64, 0
1, 56592, Note_on_c, 0, 62, 94
1, 56600, Note_on_c, 1, 54, 0
1, 56600, Note_on_c, 1, 42, 0
1, 56628, Note_on_c, 0, 66, 94
1, 56629, Note_on_c, 0, 62, 0
1, 56640, Note_on_c, 0, 66, 0
1, 56640, Note_on_c, 0, 64, 94
1, 56640, Note_on_c, 1, 38, 94
1, 56640, Note_on_c, 1, 50, 94
1, 56716, Note_on_c, 0, 64, 0
1, 56736, Note_on_c, 0, 62, 94
1, 56773, Note_on_c, 0, 62, 0
1, 56792, Note_on_c, 1, 50, 0
1, 56792, Note_on_c, 1, 38, 0
1, 56832, Note_on_c, 0, 60, 94
1, 56832, Note_on_c, 1, 57, 94
1, 56832, Note_on_c, 1, 43, 94
1, 56869, Note_on_c, 1, 43, 0
1, 56880, Note_on_c, 1, 55, 94
1, 56917, Note_on_c, 1, 55, 0
1, 56928, Note_on_c, 1, 54, 94
1, 56965, Note_on_c, 1, 54, 0
1, 56976, Note_on_c, 1, 55, 94
1, 57013, Note_on_c, 1, 55, 0
1, 57024, Note_on_c, 1, 54, 94
1, 57061, Note_on_c, 1, 54, 0
1, 57072, Note_on_c, 1, 55, 94
1, 57109, Note_on_c, 1, 55, 0
1, 57120, Note_on_c, 1, 54, 94
1, 57137, Note_on_c, 0, 60, 0
1, 57137, Note_on_c, 1, 57, 0
1, 57157, Note_on_c, 1, 54, 0
1, 57168, Note_on_c, 1, 55, 94
1, 57205, Note_on_c, 1, 55, 0
1, 57216, Note_on_c, 1, 55, 94
1, 57216, Note_on_c, 1, 59, 94
1, 57216, Note_on_c, 1, 43, 94
1, 57260, Note_on_c, 1, 59, 0
1, 57260, Note_on_c, 1, 55, 0
1, 57264, Note_on_c, 0, 67, 94
1, 57301, Note_on_c, 0, 67, 0
1, 57312, Note_on_c, 0, 66, 94
1, 57349, Note_on_c, 0, 66, 0
1, 57360, Note_on_c, 0, 67, 94
1, 57368, Note_on_c, 1, 43, 0
1, 57397, Note_on_c, 0, 67, 0
1, 57408, Note_on_c, 0, 62, 94
1, 57445, Note_on_c, 0, 62, 0
1, 57456, Note_on_c, 0, 74, 94
1, 57493, Note_on_c, 0, 74, 0
1, 57504, Note_on_c, 0, 73, 94
1, 57541, Note_on_c, 0, 73, 0
1, 57552, Note_on_c, 0, 74, 94
1, 57589, Note_on_c, 0, 74, 0
1, 57600, Note_on_c, 0, 71, 94
1, 57637, Note_on_c, 0, 71, 0
1, 57648, Note_on_c, 0, 79, 94
1, 57685, Note_on_c, 0, 79, 0
1, 57696, Note_on_c, 0, 78, 94
1, 57733, Note_on_c, 0, 78, 0
1, 57744, Note_on_c, 0, 79, 94
1, 57781, Note_on_c, 0, 79, 0
1, 57792, Note_on_c, 0, 74, 94
1, 57829, Note_on_c, 0, 74, 0
1, 57840, Note_on_c, 0, 83, 94
1, 57877, Note_on_c, 0, 83, 0
1, 57888, Note_on_c, 0, 81, 94
1, 57925, Note_on_c, 0, 81, 0
1, 57936, Note_on_c, 0, 83, 94
1, 57973, Note_on_c, 0, 83, 0
1, 57984, Note_on_c, 0, 79, 94
1, 58060, Note_on_c, 0, 79, 0
1, 58368, Note_on_c, 0, 67, 94
1, 58368, Note_on_c, 0, 62, 94
1, 58368, Note_on_c, 1, 43, 94
1, 58368, Note_on_c, 1, 58, 94
1, 58405, Note_on_c, 1, 43, 0
1, 58416, Note_on_c, 1, 55, 94
1, 58453, Note_on_c, 1, 55, 0
1, 58464, Note_on_c, 1, 54, 94
1, 58501, Note_on_c, 1, 54, 0
1, 58512, Note_on_c, 1, 55, 94
1, 58520, Note_on_c, 0, 62, 0
1, 58520, Note_on_c, 0, 67, 0
1, 58520, Note_on_c, 1, 58, 0
1, 58549, Note_on_c, 1, 55, 0
1, 58560, Note_on_c, 1, 43, 94
1, 58636, Note_on_c, 1, 43, 0
1, 58656, Note_on_c, 0, 67, 94
1, 58693, Note_on_c, 0, 67, 0
1, 58704, Note_on_c, 0, 62, 94
1, 58741, Note_on_c, 0, 62, 0
1, 58752, Note_on_c, 0, 70, 94
1, 58789, Note_on_c, 0, 70, 0
1, 58800, Note_on_c, 0, 67, 94
1, 58837, Note_on_c, 0, 67, 0
1, 58848, Note_on_c, 0, 74, 94
1, 58885, Note_on_c, 0, 74, 0
1, 58896, Note_on_c, 0, 70, 94
1, 58933, Note_on_c, 0, 70, 0
1, 58944, Note_on_c, 0, 79, 94
1, 58981, Note_on_c, 0, 79, 0
1, 58992, Note_on_c, 0, 74, 94
1, 59029, Note_on_c, 0, 74, 0
1, 59040, Note_on_c, 0, 70, 94
1, 59077, Note_on_c, 0, 70, 0
1, 59088, Note_on_c, 0, 67, 94
1, 59125, Note_on_c, 0, 67, 0
1, 59136, Note_on_c, 0, 64, 94
1, 59136, Note_on_c, 0, 69, 94
1, 59136, Note_on_c, 0, 73, 94
1, 59136, Note_on_c, 1, 43, 94
1, 59173, Note_on_c, 1, 43, 0
1, 59184, Note_on_c, 1, 55, 94
1, 59221, Note_on_c, 1, 55, 0
1, 59232, Note_on_c, 1, 54, 94
1, 59269, Note_on_c, 1, 54, 0
1, 59280, Note_on_c, 1, 55, 94
1, 59288, Note_on_c, 0, 73, 0
1, 59288, Note_on_c, 0, 69, 0
1, 59288, Note_on_c, 0, 64, 0
1, 59317, Note_on_c, 1, 55, 0
1, 59328, Note_on_c, 1, 43, 94
1, 59404, Note_on_c, 1, 43, 0
1, 59424, Note_on_c, 0, 69, 94
1, 59461, Note_on_c, 0, 69, 0
1, 59472, Note_on_c, 0, 64, 94
1, 59509, Note_on_c, 0, 64, 0
1, 59520, Note_on_c, 0, 72, 94
1, 59557, Note_on_c, 0, 72, 0
1, 59568, Note_on_c, 0, 69, 94
1, 59605, Note_on_c, 0, 69, 0
1, 59616, Note_on_c, 0, 76, 94
1, 59653, Note_on_c, 0, 76, 0
1, 59664, Note_on_c, 0, 72, 94
1, 59701, Note_on_c, 0, 72, 0
1, 59712, Note_on_c, 0, 81, 94
1, 59749, Note_on_c, 0, 81, 0
1, 59760, Note_on_c, 0, 76, 94
1, 59797, Note_on_c, 0, 76, 0
1, 59808, Note_on_c, 0, 72, 94
1, 59845, Note_on_c, 0, 72, 0
1, 59856, Note_on_c, 0, 69, 94
1, 59893, Note_on_c, 0, 69, 0
1, 59904, Note_on_c, 0, 74, 94
1, 59904, Note_on_c, 0, 69, 94
1, 59904, Note_on_c, 0, 65, 94
1, 59904, Note_on_c, 1, 41, 94
1, 59941, Note_on_c, 1, 41, 0
1, 59952, Note_on_c, 1, 53, 94
1, 59989, Note_on_c, 1, 53, 0
1, 60000, Note_on_c, 1, 52, 94
1, 60037, Note_on_c, 1, 52, 0
1, 60048, Note_on_c, 1, 53, 94
1, 60056, Note_on_c, 0, 65, 0
1, 60056, Note_on_c, 0, 69, 0
1, 60056, Note_on_c, 0, 74, 0
1, 60085, Note_on_c, 1, 53, 0
1, 60096, Note_on_c, 1, 41, 94
1, 60172, Note_on_c, 1, 41, 0
1, 60192, Note_on_c, 0, 69, 94
1, 60229, Note_on_c, 0, 69, 0
1, 60240, Note_on_c, 0, 65, 94
1, 60277, Note_on_c, 0, 65, 0
1, 60288, Note_on_c, 0, 74, 94
1, 60325, Note_on_c, 0, 74, 0
1, 60336, Note_on_c, 0, 69, 94
1, 60373, Note_on_c, 0, 69, 0
1, 60384, Note_on_c, 0, 77, 94
1, 60421, Note_on_c, 0, 77, 0
1, 60432, Note_on_c, 0, 74, 94
1, 60469, Note_on_c, 0, 74, 0
1, 60480, Note_on_c, 0, 81, 94
1, 60517, Note_on_c, 0, 81, 0
1, 60528, Note_on_c, 0, 77, 94
1, 60565, Note_on_c, 0, 77, 0
1, 60576, Note_on_c, 0, 74, 94
1, 60613, Note_on_c, 0, 74, 0
1, 60624, Note_on_c, 0, 69, 94
1, 60661, Note_on_c, 0, 69, 0
1, 60672, Note_on_c, 0, 62, 94
1, 60672, Note_on_c, 0, 67, 94
1, 60672, Note_on_c, 0, 71, 94
1, 60672, Note_on_c, 1, 41, 94
1, 60709, Note_on_c, 1, 41, 0
1, 60720, Note_on_c, 1, 53, 94
1, 60757, Note_on_c, 1, 53, 0
1, 60768, Note_on_c, 1, 52, 94
1, 60805, Note_on_c, 1, 52, 0
1, 60816, Note_on_c, 1, 53, 94
1, 60824, Note_on_c, 0, 71, 0
1, 60824, Note_on_c, 0, 67, 0
1, 60824, Note_on_c, 0, 62, 0
1, 60853, Note_on_c, 1, 53, 0
1, 60864, Note_on_c, 1, 41, 94
1, 60940, Note_on_c, 1, 41, 0
1, 60960, Note_on_c, 0, 67, 94
1, 60997, Note_on_c, 0, 67, 0
1, 61008, Note_on_c, 0, 62, 94
1, 61045, Note_on_c, 0, 62, 0
1, 61056, Note_on_c, 0, 71, 94
1, 61093, Note_on_c, 0, 71, 0
1, 61104, Note_on_c, 0, 67, 94
1, 61141, Note_on_c, 0, 67, 0
1, 61152, Note_on_c, 0, 74, 94
1, 61189, Note_on_c, 0, 74, 0
1, 61200, Note_on_c, 0, 71, 94
1, 61237, Note_on_c, 0, 71, 0
1, 61248, Note_on_c, 0, 79, 94
1, 61285, Note_on_c, 0, 79, 0
1, 61296, Note_on_c, 0, 74, 94
1, 61333, Note_on_c, 0, 74, 0
1, 61344, Note_on_c, 0, 71, 94
1, 61381, Note_on_c, 0, 71, 0
1, 61392, Note_on_c, 0, 67, 94
1, 61429, Note_on_c, 0, 67, 0
1, 61440, Note_on_c, 0, 64, 94
1, 61440, Note_on_c, 0, 67, 94
1, 61440, Note_on_c, 0, 72, 94
1, 61440, Note_on_c, 1, 40, 94
1, 61477, Note_on_c, 1, 40, 0
1, 61488, Note_on_c, 1, 52, 94
1, 61525, Note_on_c, 1, 52, 0
1, 61536, Note_on_c, 1, 50, 94
1, 61573, Note_on_c, 1, 50, 0
1, 61584, Note_on_c, 1, 52, 94
1, 61592, Note_on_c, 0, 72, 0
1, 61592, Note_on_c, 0, 67, 0
1, 61592, Note_on_c, 0, 64, 0
1, 61621, Note_on_c, 1, 52, 0
1, 61632, Note_on_c, 1, 40, 94
1, 61708, Note_on_c, 1, 40, 0
1, 61728, Note_on_c, 0, 67, 94
1, 61765, Note_on_c, 0, 67, 0
1, 61776, Note_on_c, 0, 64, 94
1, 61813, Note_on_c, 0, 64, 0
1, 61824, Note_on_c, 0, 72, 94
1, 61861, Note_on_c, 0, 72, 0
1, 61872, Note_on_c, 0, 67, 94
1, 61909, Note_on_c, 0, 67, 0
1, 61920, Note_on_c, 0, 76, 94
1, 61957, Note_on_c, 0, 76, 0
1, 61968, Note_on_c, 0, 72, 94
1, 62005, Note_on_c, 0, 72, 0
1, 62016, Note_on_c, 0, 79, 94
1, 62053, Note_on_c, 0, 79, 0
1, 62064, Note_on_c, 0, 76, 94
1, 62101, Note_on_c, 0, 76, 0
1, 62112, Note_on_c, 0, 72, 94
1, 62149, Note_on_c, 0, 72, 0
1, 62160, Note_on_c, 0, 67, 94
1, 62197, Note_on_c, 0, 67, 0
1, 62208, Note_on_c, 0, 70, 94
1, 62208, Note_on_c, 0, 62, 94
1, 62208, Note_on_c, 0, 65, 94
1, 62208, Note_on_c, 1, 38, 94
1, 62245, Note_on_c, 1, 38, 0
1, 62256, Note_on_c, 1, 50, 94
1, 62293, Note_on_c, 1, 50, 0
1, 62304, Note_on_c, 1, 49, 94
1, 62341, Note_on_c, 1, 49, 0
1, 62352, Note_on_c, 1, 50, 94
1, 62360, Note_on_c, 0, 65, 0
1, 62360, Note_on_c, 0, 62, 0
1, 62360, Note_on_c, 0, 70, 0
1, 62389, Note_on_c, 1, 50, 0
1, 62400, Note_on_c, 1, 38, 94
1, 62476, Note_on_c, 1, 38, 0
1, 62496, Note_on_c, 0, 65, 94
1, 62533, Note_on_c, 0, 65, 0
1, 62544, Note_on_c, 0, 62, 94
1, 62581, Note_on_c, 0, 62, 0
1, 62592, Note_on_c, 0, 70, 94
1, 62629, Note_on_c, 0, 70, 0
1, 62640, Note_on_c, 0, 65, 94
1, 62677, Note_on_c, 0, 65, 0
1, 62688, Note_on_c, 0, 74, 94
1, 62725, Note_on_c, 0, 74, 0
1, 62736, Note_on_c, 0, 70, 94
1, 62773, Note_on_c, 0, 70, 0
1, 62784, Note_on_c, 0, 77, 94
1, 62821, Note_on_c, 0, 77, 0
1, 62832, Note_on_c, 0, 74, 94
1, 62869, Note_on_c, 0, 74, 0
1, 62880, Note_on_c, 0, 82, 94
1, 62917, Note_on_c, 0, 82, 0
1, 62928, Note_on_c, 0, 77, 94
1, 62965, Note_on_c, 0, 77, 0
1, 62976, Note_on_c, 0, 80, 94
1, 62976, Note_on_c, 1, 40, 94
1, 62976, Note_on_c, 1, 52, 94
1, 63013, Note_on_c, 0, 80, 0
1, 63024, Note_on_c, 0, 83, 94
1, 63061, Note_on_c, 0, 83, 0
1, 63072, Note_on_c, 0, 77, 94
1, 63109, Note_on_c, 0, 77, 0
1, 63120, Note_on_c, 0, 83, 94
1, 63128, Note_on_c, 1, 52, 0
1, 63128, Note_on_c, 1, 40, 0
1, 63157, Note_on_c, 0, 83, 0
1, 63168, Note_on_c, 0, 76, 94
1, 63205, Note_on_c, 0, 76, 0
1, 63216, Note_on_c, 0, 83, 94
1, 63253, Note_on_c, 0, 83, 0
1, 63264, Note_on_c, 0, 74, 94
1, 63264, Note_on_c, 1, 56, 94
1, 63301, Note_on_c, 0, 74, 0
1, 63312, Note_on_c, 0, 83, 94
1, 63340, Note_on_c, 1, 56, 0
1, 63349, Note_on_c, 0, 83, 0
1, 63360, Note_on_c, 0, 72, 94
1, 63360, Note_on_c, 1, 57, 94
1, 63397, Note_on_c, 1, 57, 0
1, 63408, Note_on_c, 0, 60, 94
1, 63445, Note_on_c, 0, 60, 0
1, 63456, Note_on_c, 1, 55, 94
1, 63493, Note_on_c, 1, 55, 0
1, 63504, Note_on_c, 0, 60, 94
1, 63512, Note_on_c, 0, 72, 0
1, 63541, Note_on_c, 0, 60, 0
1, 63552, Note_on_c, 0, 81, 94
1, 63552, Note_on_c, 1, 54, 94
1, 63589, Note_on_c, 1, 54, 0
1, 63600, Note_on_c, 0, 60, 94
1, 63628, Note_on_c, 0, 81, 0
1, 63637, Note_on_c, 0, 60, 0
1, 63648, Note_on_c, 0, 79, 94
1, 63648, Note_on_c, 1, 51, 94
1, 63665, Note_on_c, 0, 79, 0
1, 63672, Note_on_c, 0, 81, 94
1, 63685, Note_on_c, 1, 51, 0
1, 63689, Note_on_c, 0, 81, 0
1, 63696, Note_on_c, 0, 79, 94
1, 63696, Note_on_c, 0, 60, 94
1, 63713, Note_on_c, 0, 79, 0
1, 63720, Note_on_c, 0, 81, 94
1, 63733, Note_on_c, 0, 60, 0
1, 63737, Note_on_c, 0, 81, 0
1, 63744, Note_on_c, 0, 78, 94
1, 63744, Note_on_c, 1, 50, 94
1, 63781, Note_on_c, 0, 78, 0
1, 63792, Note_on_c, 0, 81, 94
1, 63829, Note_on_c, 0, 81, 0
1, 63840, Note_on_c, 0, 75, 94
1, 63877, Note_on_c, 0, 75, 0
1, 63888, Note_on_c, 0, 81, 94
1, 63896, Note_on_c, 1, 50, 0
1, 63925, Note_on_c, 0, 81, 0
1, 63936, Note_on_c, 0, 74, 94
1, 63973, Note_on_c, 0, 74, 0
1, 63984, Note_on_c, 0, 81, 94
1, 64021, Note_on_c, 0, 81, 0
1, 64032, Note_on_c, 0, 72, 94
1, 64032, Note_on_c, 1, 54, 94
1, 64069, Note_on_c, 0, 72, 0
1, 64080, Note_on_c, 0, 81, 94
1, 64108, Note_on_c, 1, 54, 0
1, 64117, Note_on_c, 0, 81, 0
1, 64128, Note_on_c, 0, 70, 94
1, 64128, Note_on_c, 1, 55, 94
1, 64165, Note_on_c, 1, 55, 0
1, 64176, Note_on_c, 1, 58, 94
1, 64213, Note_on_c, 1, 58, 0
1, 64224, Note_on_c, 1, 53, 94
1, 64261, Note_on_c, 1, 53, 0
1, 64272, Note_on_c, 1, 58, 94
1, 64280, Note_on_c, 0, 70, 0
1, 64309, Note_on_c, 1, 58, 0
1, 64320, Note_on_c, 0, 79, 94
1, 64320, Note_on_c, 1, 52, 94
1, 64357, Note_on_c, 1, 52, 0
1, 64368, Note_on_c, 1, 58, 94
1, 64396, Note_on_c, 0, 79, 0
1, 64405, Note_on_c, 1, 58, 0
1, 64416, Note_on_c, 0, 77, 94
1, 64416, Note_on_c, 1, 50, 94
1, 64437, Note_on_c, 0, 77, 0
1, 64440, Note_on_c, 0, 79, 94
1, 64453, Note_on_c, 1, 50, 0
1, 64461, Note_on_c, 0, 79, 0
1, 64464, Note_on_c, 0, 77, 94
1, 64464, Note_on_c, 1, 58, 94
1, 64481, Note_on_c, 0, 77, 0
1, 64488, Note_on_c, 0, 79, 94
1, 64501, Note_on_c, 1, 58, 0
1, 64505, Note_on_c, 0, 79, 0
1, 64512, Note_on_c, 0, 76, 94
1, 64512, Note_on_c, 1, 48, 94
1, 64549, Note_on_c, 0, 76, 0
1, 64560, Note_on_c, 0, 79, 94
1, 64597, Note_on_c, 0, 79, 0
1, 64608, Note_on_c, 0, 74, 94
1, 64645, Note_on_c, 0, 74, 0
1, 64656, Note_on_c, 0, 79, 94
1, 64664, Note_on_c, 1, 48, 0
1, 64693, Note_on_c, 0, 79, 0
1, 64704, Note_on_c, 0, 72, 94
1, 64741, Note_on_c, 0, 72, 0
1, 64752, Note_on_c, 0, 79, 94
1, 64789, Note_on_c, 0, 79, 0
1, 64800, Note_on_c, 0, 70, 94
1, 64800, Note_on_c, 1, 52, 94
1, 64837, Note_on_c, 0, 70, 0
1, 64848, Note_on_c, 0, 79, 94
1, 64876, Note_on_c, 1, 52, 0
1, 64885, Note_on_c, 0, 79, 0
1, 64896, Note_on_c, 0, 69, 94
1, 64896, Note_on_c, 1, 53, 94
1, 64933, Note_on_c, 1, 53, 0
1, 64944, Note_on_c, 0, 60, 94
1, 64981, Note_on_c, 0, 60, 0
1, 64992, Note_on_c, 1, 58, 94
1, 65029, Note_on_c, 1, 58, 0
1, 65040, Note_on_c, 1, 57, 94
1, 65048, Note_on_c, 0, 69, 0
1, 65077, Note_on_c, 1, 57, 0
1, 65088, Note_on_c, 1, 58, 94
1, 65125, Note_on_c, 1, 58, 0
1, 65136, Note_on_c, 0, 60, 94
1, 65173, Note_on_c, 0, 60, 0
1, 65184, Note_on_c, 0, 62, 94
1, 65221, Note_on_c, 0, 62, 0
1, 65232, Note_on_c, 0, 64, 94
1, 65269, Note_on_c, 0, 64, 0
1, 65280, Note_on_c, 0, 65, 52
1, 65317, Note_on_c, 0, 65, 0
1, 65328, Note_on_c, 0, 72, 52
1, 65365, Note_on_c, 0, 72, 0
1, 65376, Note_on_c, 0, 69, 52
1, 65376, Note_on_c, 0, 81, 52
1, 65413, Note_on_c, 0, 81, 0
1, 65413, Note_on_c, 0, 69, 0
1, 65424, Note_on_c, 0, 72, 52
1, 65424, Note_on_c, 0, 83, 52
1, 65461, Note_on_c, 0, 83, 0
1, 65461, Note_on_c, 0, 72, 0
1, 65472, Note_on_c, 0, 65, 52
1, 65472, Note_on_c, 0, 84, 52
1, 65509, Note_on_c, 0, 65, 0
1, 65520, Note_on_c, 0, 72, 52
1, 65548, Note_on_c, 0, 84, 0
1, 65557, Note_on_c, 0, 72, 0
1, 65568, Note_on_c, 0, 84, 52
1, 65568, Note_on_c, 0, 69, 52
1, 65605, Note_on_c, 0, 69, 0
1, 65616, Note_on_c, 0, 72, 52
1, 65644, Note_on_c, 0, 84, 0
1, 65653, Note_on_c, 0, 72, 0
1, 65664, Note_on_c, 0, 64, 52
1, 65664, Note_on_c, 0, 84, 52
1, 65701, Note_on_c, 0, 64, 0
1, 65712, Note_on_c, 0, 72, 52
1, 65749, Note_on_c, 0, 72, 0
1, 65760, Note_on_c, 0, 67, 52
1, 65797, Note_on_c, 0, 67, 0
1, 65808, Note_on_c, 0, 72, 52
1, 65816, Note_on_c, 0, 84, 0
1, 65845, Note_on_c, 0, 72, 0
1, 65856, Note_on_c, 0, 64, 52
1, 65856, Note_on_c, 0, 79, 52
1, 65893, Note_on_c, 0, 64, 0
1, 65904, Note_on_c, 0, 72, 52
1, 65932, Note_on_c, 0, 79, 0
1, 65941, Note_on_c, 0, 72, 0
1, 65952, Note_on_c, 0, 67, 52
1, 65989, Note_on_c, 0, 67, 0
1, 66000, Note_on_c, 0, 72, 52
1, 66037, Note_on_c, 0, 72, 0
1, 66048, Note_on_c, 0, 62, 94
1, 66048, Note_on_c, 0, 77, 94
1, 66065, Note_on_c, 0, 77, 0
1, 66072, Note_on_c, 0, 79, 94
1, 66085, Note_on_c, 0, 62, 0
1, 66089, Note_on_c, 0, 79, 0
1, 66096, Note_on_c, 0, 71, 94
1, 66096, Note_on_c, 0, 77, 94
1, 66113, Note_on_c, 0, 77, 0
1, 66120, Note_on_c, 0, 79, 94
1, 66133, Note_on_c, 0, 71, 0
1, 66137, Note_on_c, 0, 79, 0
1, 66144, Note_on_c, 0, 67, 94
1, 66144, Note_on_c, 0, 77, 94
1, 66161, Note_on_c, 0, 77, 0
1, 66168, Note_on_c, 0, 79, 94
1, 66181, Note_on_c, 0, 67, 0
1, 66185, Note_on_c, 0, 79, 0
1, 66192, Note_on_c, 0, 71, 94
1, 66192, Note_on_c, 0, 76, 94
1, 66209, Note_on_c, 0, 76, 0
1, 66216, Note_on_c, 0, 77, 94
1, 66229, Note_on_c, 0, 71, 0
1, 66233, Note_on_c, 0, 77, 0
1, 66240, Note_on_c, 0, 62, 94
1, 66240, Note_on_c, 0, 79, 94
1, 66277, Note_on_c, 0, 62, 0
1, 66288, Note_on_c, 0, 71, 94
1, 66316, Note_on_c, 0, 79, 0
1, 66325, Note_on_c, 0, 71, 0
1, 66336, Note_on_c, 0, 77, 94
1, 66336, Note_on_c, 0, 67, 94
1, 66373, Note_on_c, 0, 67, 0
1, 66384, Note_on_c, 0, 71, 94
1, 66412, Note_on_c, 0, 77, 0
1, 66421, Note_on_c, 0, 71, 0
1, 66432, Note_on_c, 0, 60, 94
1, 66432, Note_on_c, 0, 75, 94
1, 66469, Note_on_c, 0, 60, 0
1, 66480, Note_on_c, 0, 72, 94
1, 66517, Note_on_c, 0, 72, 0
1, 66528, Note_on_c, 0, 67, 94
1, 66565, Note_on_c, 0, 67, 0
1, 66576, Note_on_c, 0, 72, 94
1, 66584, Note_on_c, 0, 75, 0
1, 66613, Note_on_c, 0, 72, 0
1, 66624, Note_on_c, 0, 60, 94
1, 66624, Note_on_c, 0, 76, 94
1, 66661, Note_on_c, 0, 60, 0
1, 66672, Note_on_c, 0, 72, 94
1, 66700, Note_on_c, 0, 76, 0
1, 66709, Note_on_c, 0, 72, 0
1, 66720, Note_on_c, 0, 67, 94
1, 66757, Note_on_c, 0, 67, 0
1, 66768, Note_on_c, 0, 72, 94
1, 66805, Note_on_c, 0, 72, 0
1, 66816, Note_on_c, 0, 60, 80
1, 66853, Note_on_c, 0, 60, 0
1, 66864, Note_on_c, 0, 67, 80
1, 66901, Note_on_c, 0, 67, 0
1, 66912, Note_on_c, 0, 64, 80
1, 66912, Note_on_c, 0, 76, 80
1, 66949, Note_on_c, 0, 76, 0
1, 66949, Note_on_c, 0, 64, 0
1, 66960, Note_on_c, 0, 67, 80
1, 66960, Note_on_c, 0, 77, 80
1, 66997, Note_on_c, 0, 77, 0
1, 66997, Note_on_c, 0, 67, 0
1, 67008, Note_on_c, 0, 79, 80
1, 67008, Note_on_c, 0, 60, 80
1, 67045, Note_on_c, 0, 60, 0
1, 67056, Note_on_c, 0, 67, 80
1, 67084, Note_on_c, 0, 79, 0
1, 67093, Note_on_c, 0, 67, 0
1, 67104, Note_on_c, 0, 79, 80
1, 67104, Note_on_c, 0, 64, 80
1, 67141, Note_on_c, 0, 64, 0
1, 67152, Note_on_c, 0, 67, 80
1, 67180, Note_on_c, 0, 79, 0
1, 67189, Note_on_c, 0, 67, 0
1, 67200, Note_on_c, 0, 79, 80
1, 67200, Note_on_c, 1, 59, 80
1, 67237, Note_on_c, 1, 59, 0
1, 67248, Note_on_c, 0, 67, 80
1, 67285, Note_on_c, 0, 67, 0
1, 67296, Note_on_c, 0, 62, 80
1, 67333, Note_on_c, 0, 62, 0
1, 67344, Note_on_c, 0, 67, 80
1, 67352, Note_on_c, 0, 79, 0
1, 67381, Note_on_c, 0, 67, 0
1, 67392, Note_on_c, 0, 74, 80
1, 67392, Note_on_c, 1, 59, 80
1, 67429, Note_on_c, 1, 59, 0
1, 67440, Note_on_c, 0, 67, 80
1, 67468, Note_on_c, 0, 74, 0
1, 67477, Note_on_c, 0, 67, 0
1, 67488, Note_on_c, 0, 62, 80
1, 67525, Note_on_c, 0, 62, 0
1, 67536, Note_on_c, 0, 67, 80
1, 67573, Note_on_c, 0, 67, 0
1, 67584, Note_on_c, 0, 72, 94
1, 67584, Note_on_c, 1, 57, 94
1, 67601, Note_on_c, 0, 72, 0
1, 67608, Note_on_c, 0, 74, 94
1, 67621, Note_on_c, 1, 57, 0
1, 67625, Note_on_c, 0, 74, 0
1, 67632, Note_on_c, 0, 66, 94
1, 67632, Note_on_c, 0, 72, 94
1, 67649, Note_on_c, 0, 72, 0
1, 67656, Note_on_c, 0, 74, 94
1, 67669, Note_on_c, 0, 66, 0
1, 67673, Note_on_c, 0, 74, 0
1, 67680, Note_on_c, 0, 60, 94
1, 67680, Note_on_c, 0, 72, 94
1, 67697, Note_on_c, 0, 72, 0
1, 67704, Note_on_c, 0, 74, 94
1, 67717, Note_on_c, 0, 60, 0
1, 67721, Note_on_c, 0, 74, 0
1, 67728, Note_on_c, 0, 66, 94
1, 67728, Note_on_c, 0, 71, 94
1, 67745, Note_on_c, 0, 71, 0
1, 67752, Note_on_c, 0, 72, 94
1, 67765, Note_on_c, 0, 66, 0
1, 67769, Note_on_c, 0, 72, 0
1, 67776, Note_on_c, 0, 74, 94
1, 67776, Note_on_c, 1, 57, 94
1, 67813, Note_on_c, 1, 57, 0
1, 67824, Note_on_c, 0, 66, 94
1, 67852, Note_on_c, 0, 74, 0
1, 67861, Note_on_c, 0, 66, 0
1, 67872, Note_on_c, 0, 72, 94
1, 67872, Note_on_c, 0, 60, 94
1, 67909, Note_on_c, 0, 60, 0
1, 67920, Note_on_c, 0, 66, 94
1, 67948, Note_on_c, 0, 72, 0
1, 67957, Note_on_c, 0, 66, 0
1, 67968, Note_on_c, 0, 71, 94
1, 67968, Note_on_c, 0, 67, 94
1, 67968, Note_on_c, 1, 55, 94
1, 68005, Note_on_c, 0, 71, 0
1, 68016, Note_on_c, 0, 67, 94
1, 68053, Note_on_c, 0, 67, 0
1, 68064, Note_on_c, 0, 72, 94
1, 68101, Note_on_c, 0, 72, 0
1, 68112, Note_on_c, 0, 69, 94
1, 68120, Note_on_c, 0, 67, 0
1, 68120, Note_on_c, 1, 55, 0
1, 68149, Note_on_c, 0, 69, 0
1, 68160, Note_on_c, 0, 74, 94
1, 68197, Note_on_c, 0, 74, 0
1, 68208, Note_on_c, 0, 71, 94
1, 68245, Note_on_c, 0, 71, 0
1, 68256, Note_on_c, 0, 76, 94
1, 68293, Note_on_c, 0, 76, 0
1, 68304, Note_on_c, 0, 72, 94
1, 68341, Note_on_c, 0, 72, 0
1, 68352, Note_on_c, 0, 74, 94
1, 68352, Note_on_c, 0, 77, 94
1, 68352, Note_on_c, 1, 43, 94
1, 68389, Note_on_c, 1, 43, 0
1, 68400, Note_on_c, 1, 55, 94
1, 68437, Note_on_c, 1, 55, 0
1, 68448, Note_on_c, 1, 54, 94
1, 68485, Note_on_c, 1, 54, 0
1, 68496, Note_on_c, 1, 55, 94
1, 68504, Note_on_c, 0, 77, 0
1, 68504, Note_on_c, 0, 74, 0
1, 68533, Note_on_c, 1, 55, 0
1, 68544, Note_on_c, 0, 86, 94
1, 68544, Note_on_c, 0, 77, 94
1, 68544, Note_on_c, 1, 57, 94
1, 68581, Note_on_c, 1, 57, 0
1, 68592, Note_on_c, 1, 55, 94
1, 68629, Note_on_c, 1, 55, 0
1, 68640, Note_on_c, 1, 54, 94
1, 68677, Note_on_c, 1, 54, 0
1, 68688, Note_on_c, 1, 55, 94
1, 68696, Note_on_c, 0, 77, 0
1, 68696, Note_on_c, 0, 86, 0
1, 68725, Note_on_c, 1, 55, 0
1, 68736, Note_on_c, 0, 76, 94
1, 68736, Note_on_c, 1, 43, 94
1, 68773, Note_on_c, 0, 76, 0
1, 68784, Note_on_c, 0, 72, 94
1, 68821, Note_on_c, 0, 72, 0
1, 68832, Note_on_c, 0, 77, 94
1, 68869, Note_on_c, 0, 77, 0
1, 68880, Note_on_c, 0, 74, 94
1, 68888, Note_on_c, 1, 43, 0
1, 68917, Note_on_c, 0, 74, 0
1, 68928, Note_on_c, 0, 79, 94
1, 68965, Note_on_c, 0, 79, 0
1, 68976, Note_on_c, 0, 76, 94
1, 69013, Note_on_c, 0, 76, 0
1, 69024, Note_on_c, 0, 81, 94
1, 69061, Note_on_c, 0, 81, 0
1, 69072, Note_on_c, 0, 77, 94
1, 69109, Note_on_c, 0, 77, 0
1, 69120, Note_on_c, 0, 76, 94
1, 69120, Note_on_c, 0, 79, 94
1, 69120, Note_on_c, 1, 43, 94
1, 69157, Note_on_c, 1, 43, 0
1, 69168, Note_on_c, 1, 55, 94
1, 69205, Note_on_c, 1, 55, 0
1, 69216, Note_on_c, 1, 54, 94
1, 69253, Note_on_c, 1, 54, 0
1, 69264, Note_on_c, 1, 55, 94
1, 69272, Note_on_c, 0, 79, 0
1, 69272, Note_on_c, 0, 76, 0
1, 69301, Note_on_c, 1, 55, 0
1, 69312, Note_on_c, 0, 84, 94
1, 69312, Note_on_c, 0, 76, 94
1, 69312, Note_on_c, 1, 57, 94
1, 69349, Note_on_c, 1, 57, 0
1, 69360, Note_on_c, 1, 55, 94
1, 69397, Note_on_c, 1, 55, 0
1, 69408, Note_on_c, 1, 54, 94
1, 69445, Note_on_c, 1, 54, 0
1, 69456, Note_on_c, 1, 55, 94
1, 69464, Note_on_c, 0, 76, 0
1, 69464, Note_on_c, 0, 84, 0
1, 69493, Note_on_c, 1, 55, 0
1, 69504, Note_on_c, 0, 71, 94
1, 69504, Note_on_c, 1, 43, 94
1, 69541, Note_on_c, 0, 71, 0
1, 69552, Note_on_c, 0, 67, 94
1, 69589, Note_on_c, 0, 67, 0
1, 69600, Note_on_c, 0, 72, 94
1, 69637, Note_on_c, 0, 72, 0
1, 69648, Note_on_c, 0, 69, 94
1, 69656, Note_on_c, 1, 43, 0
1, 69685, Note_on_c, 0, 69, 0
1, 69696, Note_on_c, 0, 74, 94
1, 69733, Note_on_c, 0, 74, 0
1, 69744, Note_on_c, 0, 71, 94
1, 69781, Note_on_c, 0, 71, 0
1, 69792, Note_on_c, 0, 76, 94
1, 69829, Note_on_c, 0, 76, 0
1, 69840, Note_on_c, 0, 72, 94
1, 69877, Note_on_c, 0, 72, 0
1, 69888, Note_on_c, 0, 74, 80
1, 69888, Note_on_c, 0, 77, 80
1, 69888, Note_on_c, 1, 55, 80
1, 69925, Note_on_c, 1, 55, 0
1, 69936, Note_on_c, 0, 67, 80
1, 69973, Note_on_c, 0, 67, 0
1, 69984, Note_on_c, 0, 66, 80
1, 70021, Note_on_c, 0, 66, 0
1, 70032, Note_on_c, 0, 67, 80
1, 70040, Note_on_c, 0, 77, 0
1, 70040, Note_on_c, 0, 74, 0
1, 70069, Note_on_c, 0, 67, 0
1, 70080, Note_on_c, 0, 69, 80
1, 70080, Note_on_c, 0, 86, 80
1, 70080, Note_on_c, 0, 77, 80
1, 70117, Note_on_c, 0, 69, 0
1, 70128, Note_on_c, 0, 67, 80
1, 70165, Note_on_c, 0, 67, 0
1, 70176, Note_on_c, 0, 66, 80
1, 70213, Note_on_c, 0, 66, 0
1, 70224, Note_on_c, 0, 67, 80
1, 70232, Note_on_c, 0, 86, 0
1, 70232, Note_on_c, 0, 77, 0
1, 70261, Note_on_c, 0, 67, 0
1, 70272, Note_on_c, 0, 76, 80
1, 70272, Note_on_c, 1, 55, 80
1, 70309, Note_on_c, 0, 76, 0
1, 70320, Note_on_c, 0, 72, 80
1, 70357, Note_on_c, 0, 72, 0
1, 70368, Note_on_c, 0, 77, 80
1, 70405, Note_on_c, 0, 77, 0
1, 70416, Note_on_c, 0, 74, 80
1, 70424, Note_on_c, 1, 55, 0
1, 70453, Note_on_c, 0, 74, 0
1, 70464, Note_on_c, 0, 79, 80
1, 70501, Note_on_c, 0, 79, 0
1, 70512, Note_on_c, 0, 76, 80
1, 70549, Note_on_c, 0, 76, 0
1, 70560, Note_on_c, 0, 81, 80
1, 70597, Note_on_c, 0, 81, 0
1, 70608, Note_on_c, 0, 77, 80
1, 70645, Note_on_c, 0, 77, 0
1, 70656, Note_on_c, 0, 76, 94
1, 70656, Note_on_c, 0, 79, 94
1, 70656, Note_on_c, 1, 55, 94
1, 70693, Note_on_c, 1, 55, 0
1, 70704, Note_on_c, 0, 67, 94
1, 70741, Note_on_c, 0, 67, 0
1, 70752, Note_on_c, 0, 66, 94
1, 70789, Note_on_c, 0, 66, 0
1, 70800, Note_on_c, 0, 67, 94
1, 70808, Note_on_c, 0, 79, 0
1, 70808, Note_on_c, 0, 76, 0
1, 70837, Note_on_c, 0, 67, 0
1, 70848, Note_on_c, 0, 69, 94
1, 70848, Note_on_c, 0, 84, 94
1, 70848, Note_on_c, 0, 76, 94
1, 70885, Note_on_c, 0, 69, 0
1, 70896, Note_on_c, 0, 67, 94
1, 70933, Note_on_c, 0, 67, 0
1, 70944, Note_on_c, 0, 66, 94
1, 70981, Note_on_c, 0, 66, 0
1, 70992, Note_on_c, 0, 67, 94
1, 71000, Note_on_c, 0, 84, 0
1, 71000, Note_on_c, 0, 76, 0
1, 71029, Note_on_c, 0, 67, 0
1, 71040, Note_on_c, 0, 74, 94
1, 71040, Note_on_c, 0, 83, 94
1, 71040, Note_on_c, 1, 55, 94
1, 71077, Note_on_c, 0, 83, 0
1, 71077, Note_on_c, 0, 74, 0
1, 71088, Note_on_c, 0, 79, 94
1, 71125, Note_on_c, 0, 79, 0
1, 71136, Note_on_c, 0, 78, 94
1, 71173, Note_on_c, 0, 78, 0
1, 71184, Note_on_c, 0, 79, 94
1, 71192, Note_on_c, 1, 55, 0
1, 71221, Note_on_c, 0, 79, 0
1, 71232, Note_on_c, 0, 84, 94
1, 71269, Note_on_c, 0, 84, 0
1, 71280, Note_on_c, 0, 79, 94
1, 71317, Note_on_c, 0, 79, 0
1, 71328, Note_on_c, 0, 76, 94
1, 71365, Note_on_c, 0, 76, 0
1, 71376, Note_on_c, 0, 72, 94
1, 71413, Note_on_c, 0, 72, 0
1, 71424, Note_on_c, 0, 79, 94
1, 71461, Note_on_c, 0, 79, 0
1, 71472, Note_on_c, 0, 67, 94
1, 71472, Note_on_c, 1, 55, 94
1, 71509, Note_on_c, 0, 67, 0
1, 71509, Note_on_c, 1, 55, 0
1, 71520, Note_on_c, 0, 66, 94
1, 71520, Note_on_c, 1, 54, 94
1, 71557, Note_on_c, 0, 66, 0
1, 71557, Note_on_c, 1, 54, 0
1, 71568, Note_on_c, 0, 67, 94
1, 71568, Note_on_c, 1, 55, 94
1, 71605, Note_on_c, 0, 67, 0
1, 71605, Note_on_c, 1, 55, 0
1, 71616, Note_on_c, 0, 60, 94
1, 71616, Note_on_c, 0, 72, 94
1, 71653, Note_on_c, 0, 72, 0
1, 71653, Note_on_c, 0, 60, 0
1, 71664, Note_on_c, 0, 67, 94
1, 71664, Note_on_c, 1, 55, 94
1, 71701, Note_on_c, 0, 67, 0
1, 71701, Note_on_c, 1, 55, 0
1, 71712, Note_on_c, 0, 64, 94
1, 71712, Note_on_c, 1, 52, 94
1, 71749, Note_on_c, 0, 64, 0
1, 71749, Note_on_c, 1, 52, 0
1, 71760, Note_on_c, 0, 60, 94
1, 71760, Note_on_c, 1, 48, 94
1, 71797, Note_on_c, 0, 60, 0
1, 71797, Note_on_c, 1, 48, 0
1, 71808, Note_on_c, 0, 67, 94
1, 71808, Note_on_c, 1, 43, 94
1, 71845, Note_on_c, 0, 67, 0
1, 71856, Note_on_c, 1, 55, 94
1, 71893, Note_on_c, 1, 55, 0
1, 71904, Note_on_c, 1, 57, 94
1, 71941, Note_on_c, 1, 57, 0
1, 71952, Note_on_c, 1, 59, 94
1, 71960, Note_on_c, 1, 43, 0
1, 71989, Note_on_c, 1, 59, 0
1, 72000, Note_on_c, 0, 60, 94
1, 72037, Note_on_c, 0, 60, 0
1, 72048, Note_on_c, 0, 62, 94
1, 72085, Note_on_c, 0, 62, 0
1, 72096, Note_on_c, 0, 64, 94
1, 72133, Note_on_c, 0, 64, 0
1, 72144, Note_on_c, 0, 66, 94
1, 72181, Note_on_c, 0, 66, 0
1, 72192, Note_on_c, 0, 67, 94
1, 72229, Note_on_c, 0, 67, 0
1, 72240, Note_on_c, 0, 69, 94
1, 72277, Note_on_c, 0, 69, 0
1, 72288, Note_on_c, 0, 71, 94
1, 72325, Note_on_c, 0, 71, 0
1, 72336, Note_on_c, 0, 72, 94
1, 72373, Note_on_c, 0, 72, 0
1, 72384, Note_on_c, 0, 74, 94
1, 72421, Note_on_c, 0, 74, 0
1, 72432, Note_on_c, 0, 76, 94
1, 72469, Note_on_c, 0, 76, 0
1, 72480, Note_on_c, 0, 78, 94
1, 72517, Note_on_c, 0, 78, 0
1, 72528, Note_on_c, 0, 79, 94
1, 72565, Note_on_c, 0, 79, 0
1, 72576, Note_on_c, 0, 80, 94
1, 72613, Note_on_c, 0, 80, 0
1, 72624, Note_on_c, 0, 81, 94
1, 72661, Note_on_c, 0, 81, 0
1, 72672, Note_on_c, 0, 77, 94
1, 72709, Note_on_c, 0, 77, 0
1, 72720, Note_on_c, 0, 74, 94
1, 72757, Note_on_c, 0, 74, 0
1, 72768, Note_on_c, 0, 76, 94
1, 72805, Note_on_c, 0, 76, 0
1, 72816, Note_on_c, 0, 77, 94
1, 72853, Note_on_c, 0, 77, 0
1, 72864, Note_on_c, 0, 74, 94
1, 72901, Note_on_c, 0, 74, 0
1, 72912, Note_on_c, 0, 71, 94
1, 72949, Note_on_c, 0, 71, 0
1, 72960, Note_on_c, 0, 64, 94
1, 72960, Note_on_c, 0, 67, 94
1, 72960, Note_on_c, 0, 72, 94
1, 72960, Note_on_c, 1, 48, 94
1, 72997, Note_on_c, 1, 48, 0
1, 73008, Note_on_c, 0, 60, 94
1, 73045, Note_on_c, 0, 60, 0
1, 73056, Note_on_c, 1, 59, 94
1, 73093, Note_on_c, 1, 59, 0
1, 73104, Note_on_c, 0, 60, 94
1, 73112, Note_on_c, 0, 72, 0
1, 73112, Note_on_c, 0, 67, 0
1, 73112, Note_on_c, 0, 64, 0
1, 73141, Note_on_c, 0, 60, 0
1, 73152, Note_on_c, 1, 48, 94
1, 73228, Note_on_c, 1, 48, 0
1, 73248, Note_on_c, 0, 72, 94
1, 73285, Note_on_c, 0, 72, 0
1, 73296, Note_on_c, 0, 71, 94
1, 73333, Note_on_c, 0, 71, 0
1, 73344, Note_on_c, 0, 74, 94
1, 73381, Note_on_c, 0, 74, 0
1, 73392, Note_on_c, 0, 72, 94
1, 73429, Note_on_c, 0, 72, 0
1, 73440, Note_on_c, 0, 76, 94
1, 73477, Note_on_c, 0, 76, 0
1, 73488, Note_on_c, 0, 74, 94
1, 73525, Note_on_c, 0, 74, 0
1, 73536, Note_on_c, 0, 77, 94
1, 73573, Note_on_c, 0, 77, 0
1, 73584, Note_on_c, 0, 76, 94
1, 73621, Note_on_c, 0, 76, 0
1, 73632, Note_on_c, 0, 79, 94
1, 73669, Note_on_c, 0, 79, 0
1, 73680, Note_on_c, 0, 77, 94
1, 73717, Note_on_c, 0, 77, 0
1, 73728, Note_on_c, 0, 77, 94
1, 73728, Note_on_c, 0, 74, 94
1, 73728, Note_on_c, 0, 81, 94
1, 73728, Note_on_c, 0, 69, 94
1, 73728, Note_on_c, 1, 53, 94
1, 73728, Note_on_c, 1, 41, 94
1, 73880, Note_on_c, 0, 69, 0
1, 73880, Note_on_c, 0, 81, 0
1, 73880, Note_on_c, 0, 74, 0
1, 73880, Note_on_c, 0, 77, 0
1, 73880, Note_on_c, 1, 41, 0
1, 73880, Note_on_c, 1, 53, 0
1, 73920, Note_on_c, 0, 79, 94
1, 73957, Note_on_c, 0, 79, 0
1, 73968, Note_on_c, 0, 77, 94
1, 74005, Note_on_c, 0, 77, 0
1, 74016, Note_on_c, 0, 76, 94
1, 74053, Note_on_c, 0, 76, 0
1, 74064, Note_on_c, 0, 74, 94
1, 74101, Note_on_c, 0, 74, 0
1, 74112, Note_on_c, 0, 72, 94
1, 74129, Note_on_c, 0, 72, 0
1, 74136, Note_on_c, 0, 74, 94
1, 74153, Note_on_c, 0, 74, 0
1, 74160, Note_on_c, 0, 71, 94
1, 74197, Note_on_c, 0, 71, 0
1, 74208, Note_on_c, 0, 72, 94
1, 74208, Note_on_c, 1, 52, 94
1, 74245, Note_on_c, 0, 72, 0
1, 74256, Note_on_c, 0, 76, 94
1, 74284, Note_on_c, 1, 52, 0
1, 74293, Note_on_c, 0, 76, 0
1, 74304, Note_on_c, 0, 74, 94
1, 74304, Note_on_c, 1, 53, 94
1, 74341, Note_on_c, 0, 74, 0
1, 74352, Note_on_c, 0, 77, 94
1, 74380, Note_on_c, 1, 53, 0
1, 74389, Note_on_c, 0, 77, 0
1, 74400, Note_on_c, 0, 71, 94
1, 74400, Note_on_c, 1, 55, 94
1, 74437, Note_on_c, 0, 71, 0
1, 74448, Note_on_c, 0, 74, 94
1, 74476, Note_on_c, 1, 55, 0
1, 74485, Note_on_c, 0, 74, 0
1, 74496, Note_on_c, 0, 72, 94
1, 74496, Note_on_c, 0, 67, 94
1, 74496, Note_on_c, 0, 64, 94
1, 74496, Note_on_c, 1, 48, 94
1, 74533, Note_on_c, 1, 48, 0
1, 74544, Note_on_c, 0, 60, 94
1, 74581, Note_on_c, 0, 60, 0
1, 74592, Note_on_c, 1, 59, 94
1, 74629, Note_on_c, 1, 59, 0
1, 74640, Note_on_c, 0, 60, 94
1, 74648, Note_on_c, 0, 64, 0
1, 74648, Note_on_c, 0, 67, 0
1, 74648, Note_on_c, 0, 72, 0
1, 74677, Note_on_c, 0, 60, 0
1, 74688, Note_on_c, 1, 48, 94
1, 74764, Note_on_c, 1, 48, 0
1, 74784, Note_on_c, 0, 72, 94
1, 74821, Note_on_c, 0, 72, 0
1, 74832, Note_on_c, 0, 71, 94
1, 74869, Note_on_c, 0, 71, 0
1, 74880, Note_on_c, 0, 74, 94
1, 74917, Note_on_c, 0, 74, 0
1, 74928, Note_on_c, 0, 72, 94
1, 74965, Note_on_c, 0, 72, 0
1, 74976, Note_on_c, 0, 76, 94
1, 75013, Note_on_c, 0, 76, 0
1, 75024, Note_on_c, 0, 74, 94
1, 75061, Note_on_c, 0, 74, 0
1, 75072, Note_on_c, 0, 77, 94
1, 75109, Note_on_c, 0, 77, 0
1, 75120, Note_on_c, 0, 76, 94
1, 75157, Note_on_c, 0, 76, 0
1, 75168, Note_on_c, 0, 79, 94
1, 75205, Note_on_c, 0, 79, 0
1, 75216, Note_on_c, 0, 77, 94
1, 75253, Note_on_c, 0, 77, 0
1, 75264, Note_on_c, 0, 77, 94
1, 75264, Note_on_c, 0, 74, 94
1, 75264, Note_on_c, 0, 81, 94
1, 75264, Note_on_c, 0, 69, 94
1, 75264, Note_on_c, 1, 53, 94
1, 75264, Note_on_c, 1, 41, 94
1, 75416, Note_on_c, 0, 69, 0
1, 75416, Note_on_c, 0, 81, 0
1, 75416, Note_on_c, 0, 74, 0
1, 75416, Note_on_c, 0, 77, 0
1, 75416, Note_on_c, 1, 41, 0
1, 75416, Note_on_c, 1, 53, 0
1, 75456, Note_on_c, 0, 79, 94
1, 75493, Note_on_c, 0, 79, 0
1, 75504, Note_on_c, 0, 77, 94
1, 75541, Note_on_c, 0, 77, 0
1, 75552, Note_on_c, 0, 76, 94
1, 75589, Note_on_c, 0, 76, 0
1, 75600, Note_on_c, 0, 74, 94
1, 75637, Note_on_c, 0, 74, 0
1, 75648, Note_on_c, 0, 72, 94
1, 75665, Note_on_c, 0, 72, 0
1, 75672, Note_on_c, 0, 74, 94
1, 75689, Note_on_c, 0, 74, 0
1, 75696, Note_on_c, 0, 71, 94
1, 75733, Note_on_c, 0, 71, 0
1, 75744, Note_on_c, 0, 72, 94
1, 75744, Note_on_c, 1, 52, 94
1, 75781, Note_on_c, 0, 72, 0
1, 75792, Note_on_c, 0, 76, 94
1, 75820, Note_on_c, 1, 52, 0
1, 75829, Note_on_c, 0, 76, 0
1, 75840, Note_on_c, 0, 74, 94
1, 75840, Note_on_c, 1, 53, 94
1, 75877, Note_on_c, 0, 74, 0
1, 75888, Note_on_c, 0, 77, 94
1, 75916, Note_on_c, 1, 53, 0
1, 75925, Note_on_c, 0, 77, 0
1, 75936, Note_on_c, 0, 71, 94
1, 75936, Note_on_c, 1, 55, 94
1, 75973, Note_on_c, 0, 71, 0
1, 75984, Note_on_c, 0, 74, 94
1, 76012, Note_on_c, 1, 55, 0
1, 76021, Note_on_c, 0, 74, 0
1, 76032, Note_on_c, 0, 72, 94
1, 76032, Note_on_c, 0, 60, 94
1, 76069, Note_on_c, 0, 60, 0
1, 76080, Note_on_c, 0, 67, 94
1, 76108, Note_on_c, 0, 72, 0
1, 76117, Note_on_c, 0, 67, 0
1, 76120, Note_on_c, 0, 74, 94
1, 76128, Note_on_c, 0, 74, 0
1, 76128, Note_on_c, 0, 64, 94
1, 76128, Note_on_c, 0, 72, 94
1, 76165, Note_on_c, 0, 72, 0
1, 76165, Note_on_c, 0, 64, 0
1, 76176, Note_on_c, 0, 67, 94
1, 76176, Note_on_c, 0, 71, 94
1, 76213, Note_on_c, 0, 71, 0
1, 76213, Note_on_c, 0, 67, 0
1, 76224, Note_on_c, 0, 72, 94
1, 76224, Note_on_c, 0, 60, 94
1, 76261, Note_on_c, 0, 60, 0
1, 76272, Note_on_c, 0, 67, 94
1, 76300, Note_on_c, 0, 72, 0
1, 76309, Note_on_c, 0, 67, 0
1, 76320, Note_on_c, 0, 79, 94
1, 76320, Note_on_c, 0, 64, 94
1, 76357, Note_on_c, 0, 64, 0
1, 76368, Note_on_c, 0, 67, 94
1, 76396, Note_on_c, 0, 79, 0
1, 76405, Note_on_c, 0, 67, 0
1, 76416, Note_on_c, 0, 77, 94
1, 76416, Note_on_c, 1, 58, 94
1, 76453, Note_on_c, 1, 58, 0
1, 76464, Note_on_c, 0, 67, 94
1, 76501, Note_on_c, 0, 67, 0
1, 76512, Note_on_c, 0, 60, 94
1, 76549, Note_on_c, 0, 60, 0
1, 76560, Note_on_c, 0, 67, 94
1, 76568, Note_on_c, 0, 77, 0
1, 76597, Note_on_c, 0, 67, 0
1, 76608, Note_on_c, 0, 76, 94
1, 76608, Note_on_c, 1, 58, 94
1, 76645, Note_on_c, 1, 58, 0
1, 76656, Note_on_c, 0, 67, 94
1, 76684, Note_on_c, 0, 76, 0
1, 76693, Note_on_c, 0, 67, 0
1, 76704, Note_on_c, 0, 60, 94
1, 76741, Note_on_c, 0, 60, 0
1, 76752, Note_on_c, 0, 67, 94
1, 76789, Note_on_c, 0, 67, 0
1, 76800, Note_on_c, 1, 58, 94
1, 76837, Note_on_c, 1, 58, 0
1, 76848, Note_on_c, 0, 67, 94
1, 76885, Note_on_c, 0, 67, 0
1, 76896, Note_on_c, 0, 76, 94
1, 76896, Note_on_c, 0, 60, 94
1, 76933, Note_on_c, 0, 60, 0
1, 76944, Note_on_c, 0, 67, 94
1, 76972, Note_on_c, 0, 76, 0
1, 76981, Note_on_c, 0, 67, 0
1, 76992, Note_on_c, 0, 84, 94
1, 76992, Note_on_c, 1, 58, 94
1, 77029, Note_on_c, 1, 58, 0
1, 77040, Note_on_c, 0, 67, 94
1, 77068, Note_on_c, 0, 84, 0
1, 77077, Note_on_c, 0, 67, 0
1, 77088, Note_on_c, 0, 76, 94
1, 77088, Note_on_c, 0, 60, 94
1, 77125, Note_on_c, 0, 60, 0
1, 77136, Note_on_c, 0, 67, 94
1, 77164, Note_on_c, 0, 76, 0
1, 77173, Note_on_c, 0, 67, 0
1, 77184, Note_on_c, 0, 79, 94
1, 77184, Note_on_c, 1, 57, 94
1, 77221, Note_on_c, 1, 57, 0
1, 77232, Note_on_c, 0, 65, 94
1, 77269, Note_on_c, 0, 65, 0
1, 77280, Note_on_c, 0, 60, 94
1, 77317, Note_on_c, 0, 60, 0
1, 77328, Note_on_c, 0, 65, 94
1, 77336, Note_on_c, 0, 79, 0
1, 77365, Note_on_c, 0, 65, 0
1, 77376, Note_on_c, 0, 77, 94
1, 77376, Note_on_c, 1, 57, 94
1, 77413, Note_on_c, 1, 57, 0
1, 77424, Note_on_c, 0, 65, 94
1, 77452, Note_on_c, 0, 77, 0
1, 77461, Note_on_c, 0, 65, 0
1, 77472, Note_on_c, 0, 60, 94
1, 77509, Note_on_c, 0, 60, 0
1, 77520, Note_on_c, 0, 65, 94
1, 77557, Note_on_c, 0, 65, 0
1, 77568, Note_on_c, 1, 57, 52
1, 77605, Note_on_c, 1, 57, 0
1, 77616, Note_on_c, 0, 65, 52
1, 77653, Note_on_c, 0, 65, 0
1, 77664, Note_on_c, 0, 77, 52
1, 77664, Note_on_c, 0, 60, 52
1, 77701, Note_on_c, 0, 60, 0
1, 77712, Note_on_c, 0, 65, 52
1, 77740, Note_on_c, 0, 77, 0
1, 77749, Note_on_c, 0, 65, 0
1, 77760, Note_on_c, 0, 79, 52
1, 77760, Note_on_c, 1, 57, 52
1, 77797, Note_on_c, 1, 57, 0
1, 77808, Note_on_c, 0, 65, 52
1, 77836, Note_on_c, 0, 79, 0
1, 77845, Note_on_c, 0, 65, 0
1, 77856, Note_on_c, 0, 81, 52
1, 77856, Note_on_c, 0, 60, 52
1, 77893, Note_on_c, 0, 60, 0
1, 77904, Note_on_c, 0, 65, 52
1, 77932, Note_on_c, 0, 81, 0
1, 77941, Note_on_c, 0, 65, 0
1, 77952, Note_on_c, 0, 82, 52
1, 77952, Note_on_c, 1, 55, 52
1, 77989, Note_on_c, 1, 55, 0
1, 78000, Note_on_c, 0, 64, 52
1, 78037, Note_on_c, 0, 64, 0
1, 78048, Note_on_c, 1, 58, 52
1, 78085, Note_on_c, 1, 58, 0
1, 78096, Note_on_c, 0, 64, 52
1, 78104, Note_on_c, 0, 82, 0
1, 78133, Note_on_c, 0, 64, 0
1, 78144, Note_on_c, 0, 73, 52
1, 78144, Note_on_c, 1, 55, 52
1, 78181, Note_on_c, 1, 55, 0
1, 78192, Note_on_c, 0, 64, 52
1, 78220, Note_on_c, 0, 73, 0
1, 78229, Note_on_c, 0, 64, 0
1, 78240, Note_on_c, 1, 58, 52
1, 78277, Note_on_c, 1, 58, 0
1, 78288, Note_on_c, 0, 64, 52
1, 78325, Note_on_c, 0, 64, 0
1, 78336, Note_on_c, 1, 55, 94
1, 78373, Note_on_c, 1, 55, 0
1, 78384, Note_on_c, 0, 64, 94
1, 78421, Note_on_c, 0, 64, 0
1, 78432, Note_on_c, 0, 76, 94
1, 78432, Note_on_c, 0, 61, 94
1, 78469, Note_on_c, 0, 61, 0
1, 78480, Note_on_c, 0, 64, 94
1, 78508, Note_on_c, 0, 76, 0
1, 78517, Note_on_c, 0, 64, 0
1, 78528, Note_on_c, 0, 77, 94
1, 78528, Note_on_c, 1, 55, 94
1, 78565, Note_on_c, 1, 55, 0
1, 78576, Note_on_c, 0, 64, 94
1, 78604, Note_on_c, 0, 77, 0
1, 78613, Note_on_c, 0, 64, 0
1, 78624, Note_on_c, 0, 79, 94
1, 78624, Note_on_c, 0, 61, 94
1, 78661, Note_on_c, 0, 61, 0
1, 78672, Note_on_c, 0, 64, 94
1, 78700, Note_on_c, 0, 79, 0
1, 78709, Note_on_c, 0, 64, 0
1, 78720, Note_on_c, 0, 80, 94
1, 78720, Note_on_c, 1, 53, 94
1, 78757, Note_on_c, 1, 53, 0
1, 78768, Note_on_c, 0, 62, 94
1, 78805, Note_on_c, 0, 62, 0
1, 78816, Note_on_c, 1, 56, 94
1, 78853, Note_on_c, 1, 56, 0
1, 78864, Note_on_c, 0, 62, 94
1, 78872, Note_on_c, 0, 80, 0
1, 78901, Note_on_c, 0, 62, 0
1, 78912, Note_on_c, 0, 71, 94
1, 78912, Note_on_c, 1, 53, 94
1, 78949, Note_on_c, 1, 53, 0
1, 78960, Note_on_c, 0, 62, 94
1, 78988, Note_on_c, 0, 71, 0
1, 78997, Note_on_c, 0, 62, 0
1, 79008, Note_on_c, 1, 56, 94
1, 79045, Note_on_c, 1, 56, 0
1, 79056, Note_on_c, 0, 62, 94
1, 79093, Note_on_c, 0, 62, 0
1, 79104, Note_on_c, 1, 52, 94
1, 79141, Note_on_c, 1, 52, 0
1, 79152, Note_on_c, 0, 60, 94
1, 79189, Note_on_c, 0, 60, 0
1, 79200, Note_on_c, 0, 72, 94
1, 79200, Note_on_c, 1, 55, 94
1, 79237, Note_on_c, 1, 55, 0
1, 79248, Note_on_c, 0, 60, 94
1, 79276, Note_on_c, 0, 72, 0
1, 79285, Note_on_c, 0, 60, 0
1, 79296, Note_on_c, 0, 79, 94
1, 79296, Note_on_c, 1, 51, 94
1, 79333, Note_on_c, 1, 51, 0
1, 79344, Note_on_c, 0, 60, 94
1, 79381, Note_on_c, 0, 60, 0
1, 79392, Note_on_c, 1, 55, 94
1, 79429, Note_on_c, 1, 55, 0
1, 79440, Note_on_c, 0, 60, 94
1, 79477, Note_on_c, 0, 60, 0
1, 79488, Note_on_c, 1, 50, 94
1, 79525, Note_on_c, 0, 79, 0
1, 79525, Note_on_c, 1, 50, 0
1, 79536, Note_on_c, 0, 60, 94
1, 79573, Note_on_c, 0, 60, 0
1, 79584, Note_on_c, 0, 78, 94
1, 79584, Note_on_c, 1, 57, 94
1, 79621, Note_on_c, 1, 57, 0
1, 79632, Note_on_c, 0, 60, 94
1, 79660, Note_on_c, 0, 78, 0
1, 79669, Note_on_c, 0, 60, 0
1, 79680, Note_on_c, 0, 77, 94
1, 79680, Note_on_c, 1, 47, 94
1, 79717, Note_on_c, 1, 47, 0
1, 79728, Note_on_c, 1, 55, 94
1, 79765, Note_on_c, 1, 55, 0
1, 79776, Note_on_c, 1, 50, 94
1, 79813, Note_on_c, 1, 50, 0
1, 79824, Note_on_c, 1, 55, 94
1, 79832, Note_on_c, 0, 77, 0
1, 79861, Note_on_c, 1, 55, 0
1, 79872, Note_on_c, 0, 77, 94
1, 79872, Note_on_c, 1, 48, 94
1, 79909, Note_on_c, 1, 48, 0
1, 79920, Note_on_c, 0, 60, 94
1, 79948, Note_on_c, 0, 77, 0
1, 79957, Note_on_c, 0, 60, 0
1, 79968, Note_on_c, 0, 76, 94
1, 79968, Note_on_c, 1, 55, 94
1, 80005, Note_on_c, 1, 55, 0
1, 80016, Note_on_c, 0, 60, 94
1, 80044, Note_on_c, 0, 76, 0
1, 80053, Note_on_c, 0, 60, 0
1, 80064, Note_on_c, 0, 75, 94
1, 80064, Note_on_c, 1, 54, 94
1, 80081, Note_on_c, 0, 75, 0
1, 80088, Note_on_c, 0, 76, 94
1, 80101, Note_on_c, 1, 54, 0
1, 80105, Note_on_c, 0, 76, 0
1, 80112, Note_on_c, 0, 75, 94
1, 80112, Note_on_c, 0, 60, 94
1, 80129, Note_on_c, 0, 75, 0
1, 80136, Note_on_c, 0, 76, 94
1, 80149, Note_on_c, 0, 60, 0
1, 80153, Note_on_c, 0, 76, 0
1, 80160, Note_on_c, 0, 75, 94
1, 80160, Note_on_c, 1, 57, 94
1, 80177, Note_on_c, 0, 75, 0
1, 80184, Note_on_c, 0, 76, 94
1, 80197, Note_on_c, 1, 57, 0
1, 80201, Note_on_c, 0, 76, 0
1, 80208, Note_on_c, 0, 60, 94
1, 80208, Note_on_c, 0, 74, 94
1, 80225, Note_on_c, 0, 74, 0
1, 80232, Note_on_c, 0, 75, 94
1, 80245, Note_on_c, 0, 60, 0
1, 80249, Note_on_c, 0, 75, 0
1, 80256, Note_on_c, 0, 74, 94
1, 80256, Note_on_c, 1, 55, 94
1, 80293, Note_on_c, 1, 55, 0
1, 80304, Note_on_c, 1, 55, 94
1, 80341, Note_on_c, 1, 55, 0
1, 80352, Note_on_c, 1, 54, 94
1, 80389, Note_on_c, 1, 54, 0
1, 80400, Note_on_c, 1, 55, 94
1, 80408, Note_on_c, 0, 74, 0
1, 80437, Note_on_c, 1, 55, 0
1, 80448, Note_on_c, 0, 74, 94
1, 80448, Note_on_c, 0, 77, 94
1, 80448, Note_on_c, 0, 83, 94
1, 80448, Note_on_c, 1, 42, 94
1, 80485, Note_on_c, 1, 42, 0
1, 80496, Note_on_c, 1, 43, 94
1, 80533, Note_on_c, 1, 43, 0
1, 80544, Note_on_c, 1, 42, 94
1, 80581, Note_on_c, 1, 42, 0
1, 80592, Note_on_c, 1, 43, 94
1, 80629, Note_on_c, 1, 43, 0
1, 80640, Note_on_c, 1, 31, 52
1, 80716, Note_on_c, 0, 83, 0
1, 80716, Note_on_c, 0, 77, 0
1, 80716, Note_on_c, 0, 74, 0
1, 80736, Note_on_c, 0, 76, 52
1, 80736, Note_on_c, 0, 84, 52
1, 80792, Note_on_c, 1, 31, 0
1, 80812, Note_on_c, 0, 84, 0
1, 80812, Note_on_c, 0, 76, 0
1, 80832, Note_on_c, 0, 72, 52
1, 80832, Note_on_c, 0, 76, 52
1, 80908, Note_on_c, 0, 76, 0
1, 80908, Note_on_c, 0, 72, 0
1, 80928, Note_on_c, 0, 78, 52
1, 80928, Note_on_c, 0, 69, 52
1, 80965, Note_on_c, 0, 69, 0
1, 80965, Note_on_c, 0, 78, 0
1, 80976, Note_on_c, 0, 79, 52
1, 80993, Note_on_c, 0, 79, 0
1, 81000, Note_on_c, 0, 78, 52
1, 81017, Note_on_c, 0, 78, 0
1, 81024, Note_on_c, 0, 79, 52
1, 81024, Note_on_c, 1, 54, 52
1, 81041, Note_on_c, 0, 79, 0
1, 81048, Note_on_c, 0, 79, 52
1, 81048, Note_on_c, 0, 71, 52
1, 81061, Note_on_c, 1, 54, 0
1, 81072, Note_on_c, 1, 55, 52
1, 81109, Note_on_c, 1, 55, 0
1, 81120, Note_on_c, 1, 54, 52
1, 81157, Note_on_c, 1, 54, 0
1, 81168, Note_on_c, 1, 55, 52
1, 81200, Note_on_c, 0, 71, 0
1, 81200, Note_on_c, 0, 79, 0
1, 81205, Note_on_c, 1, 55, 0
1, 81216, Note_on_c, 1, 42, 52
1, 81240, Note_on_c, 0, 65, 52
1, 81240, Note_on_c, 0, 71, 52
1, 81240, Note_on_c, 0, 62, 52
1, 81253, Note_on_c, 1, 42, 0
1, 81264, Note_on_c, 1, 43, 52
1, 81301, Note_on_c, 1, 43, 0
1, 81312, Note_on_c, 1, 42, 52
1, 81349, Note_on_c, 1, 42, 0
1, 81360, Note_on_c, 1, 43, 52
1, 81397, Note_on_c, 1, 43, 0
1, 81408, Note_on_c, 1, 31, 52
1, 81484, Note_on_c, 0, 62, 0
1, 81484, Note_on_c, 0, 71, 0
1, 81484, Note_on_c, 0, 65, 0
1, 81504, Note_on_c, 0, 72, 52
1, 81504, Note_on_c, 0, 64, 52
1, 81560, Note_on_c, 1, 31, 0
1, 81580, Note_on_c, 0, 64, 0
1, 81580, Note_on_c, 0, 72, 0
1, 81600, Note_on_c, 0, 60, 52
1, 81600, Note_on_c, 0, 64, 52
1, 81676, Note_on_c, 0, 64, 0
1, 81676, Note_on_c, 0, 60, 0
1, 81696, Note_on_c, 0, 66, 52
1, 81696, Note_on_c, 1, 57, 52
1, 81713, Note_on_c, 0, 66, 0
1, 81713, Note_on_c, 1, 57, 0
1, 81720, Note_on_c, 0, 67, 52
1, 81737, Note_on_c, 0, 67, 0
1, 81744, Note_on_c, 0, 66, 52
1, 81761, Note_on_c, 0, 66, 0
1, 81768, Note_on_c, 0, 67, 52
1, 81785, Note_on_c, 0, 67, 0
1, 81792, Note_on_c, 0, 67, 52
1, 81792, Note_on_c, 1, 59, 52
1, 81944, Note_on_c, 0, 67, 0
1, 81944, Note_on_c, 1, 59, 0
1, 82176, Note_on_c, 0, 66, 52
1, 82177, Note_on_c, 0, 66, 0
1, 82188, Note_on_c, 0, 67, 52
1, 82340, Note_on_c, 0, 67, 0
1, 82368, Note_on_c, 0, 66, 52
1, 82380, Note_on_c, 0, 66, 0
1, 82380, Note_on_c, 0, 67, 52
1, 82532, Note_on_c, 0, 67, 0
1, 82552, Note_on_c, 0, 64, 52
1, 82576, Note_on_c, 0, 67, 52
1, 82597, Note_on_c, 0, 64, 0
1, 82608, Note_on_c, 0, 73, 52
1, 82608, Note_on_c, 1, 33, 52
1, 82621, Note_on_c, 0, 67, 0
1, 82644, Note_on_c, 0, 76, 52
1, 82645, Note_on_c, 1, 33, 0
1, 82652, Note_on_c, 0, 73, 0
1, 82656, Note_on_c, 1, 37, 52
1, 82693, Note_on_c, 1, 37, 0
1, 82704, Note_on_c, 1, 40, 52
1, 82741, Note_on_c, 1, 40, 0
1, 82752, Note_on_c, 1, 45, 52
1, 82789, Note_on_c, 1, 45, 0
1, 82800, Note_on_c, 1, 49, 52
1, 82837, Note_on_c, 1, 49, 0
1, 82848, Note_on_c, 1, 52, 52
1, 82885, Note_on_c, 1, 52, 0
1, 82896, Note_on_c, 1, 57, 52
1, 82933, Note_on_c, 1, 57, 0
1, 82944, Note_on_c, 1, 57, 94
1, 82981, Note_on_c, 0, 76, 0
1, 82992, Note_on_c, 0, 67, 94
1, 83029, Note_on_c, 0, 67, 0
1, 83040, Note_on_c, 0, 69, 94
1, 83077, Note_on_c, 0, 69, 0
1, 83088, Note_on_c, 0, 73, 94
1, 83096, Note_on_c, 1, 57, 0
1, 83125, Note_on_c, 0, 73, 0
1, 83136, Note_on_c, 0, 76, 94
1, 83173, Note_on_c, 0, 76, 0
1, 83184, Note_on_c, 0, 79, 94
1, 83221, Note_on_c, 0, 79, 0
1, 83232, Note_on_c, 0, 81, 94
1, 83269, Note_on_c, 0, 81, 0
1, 83280, Note_on_c, 0, 85, 94
1, 83317, Note_on_c, 0, 85, 0
1, 83328, Note_on_c, 0, 88, 94
1, 83328, Note_on_c, 1, 57, 94
1, 83328, Note_on_c, 1, 45, 94
1, 83365, Note_on_c, 0, 88, 0
1, 83376, Note_on_c, 0, 86, 94
1, 83413, Note_on_c, 0, 86, 0
1, 83424, Note_on_c, 0, 85, 94
1, 83461, Note_on_c, 0, 85, 0
1, 83472, Note_on_c, 0, 82, 94
1, 83480, Note_on_c, 1, 45, 0
1, 83480, Note_on_c, 1, 57, 0
1, 83509, Note_on_c, 0, 82, 0
1, 83520, Note_on_c, 0, 81, 94
1, 83557, Note_on_c, 0, 81, 0
1, 83568, Note_on_c, 0, 79, 94
1, 83605, Note_on_c, 0, 79, 0
1, 83616, Note_on_c, 0, 77, 94
1, 83616, Note_on_c, 0, 61, 94
1, 83616, Note_on_c, 1, 57, 94
1, 83653, Note_on_c, 0, 77, 0
1, 83664, Note_on_c, 0, 76, 94
1, 83692, Note_on_c, 0, 61, 0
1, 83692, Note_on_c, 1, 57, 0
1, 83701, Note_on_c, 0, 76, 0
1, 83712, Note_on_c, 0, 79, 94
1, 83712, Note_on_c, 0, 62, 94
1, 83712, Note_on_c, 1, 50, 94
1, 83749, Note_on_c, 0, 79, 0
1, 83760, Note_on_c, 0, 77, 94
1, 83797, Note_on_c, 0, 77, 0
1, 83808, Note_on_c, 0, 76, 94
1, 83845, Note_on_c, 0, 76, 0
1, 83856, Note_on_c, 0, 77, 94
1, 83864, Note_on_c, 0, 62, 0
1, 83864, Note_on_c, 1, 50, 0
1, 83893, Note_on_c, 0, 77, 0
1, 83904, Note_on_c, 0, 76, 94
1, 83941, Note_on_c, 0, 76, 0
1, 83952, Note_on_c, 0, 77, 94
1, 83989, Note_on_c, 0, 77, 0
1, 84000, Note_on_c, 0, 79, 94
1, 84037, Note_on_c, 0, 79, 0
1, 84048, Note_on_c, 0, 77, 94
1, 84084, Note_on_c, 0, 64, 94
1, 84085, Note_on_c, 0, 77, 0
1, 84096, Note_on_c, 0, 64, 0
1, 84096, Note_on_c, 0, 65, 94
1, 84248, Note_on_c, 0, 65, 0
1, 84276, Note_on_c, 0, 64, 94
1, 84288, Note_on_c, 0, 64, 0
1, 84288, Note_on_c, 0, 65, 94
1, 84468, Note_on_c, 0, 65, 0
1, 84480, Note_on_c, 0, 74, 94
1, 84528, Note_on_c, 1, 43, 94
1, 84565, Note_on_c, 1, 43, 0
1, 84576, Note_on_c, 1, 47, 94
1, 84613, Note_on_c, 1, 47, 0
1, 84624, Note_on_c, 1, 50, 94
1, 84661, Note_on_c, 1, 50, 0
1, 84672, Note_on_c, 1, 55, 94
1, 84709, Note_on_c, 1, 55, 0
1, 84720, Note_on_c, 1, 59, 94
1, 84757, Note_on_c, 1, 59, 0
1, 84768, Note_on_c, 0, 62, 94
1, 84805, Note_on_c, 0, 62, 0
1, 84816, Note_on_c, 0, 67, 94
1, 84853, Note_on_c, 0, 67, 0
1, 84864, Note_on_c, 1, 55, 94
1, 84901, Note_on_c, 0, 74, 0
1, 84912, Note_on_c, 0, 65, 94
1, 84949, Note_on_c, 0, 65, 0
1, 84960, Note_on_c, 0, 67, 94
1, 84997, Note_on_c, 0, 67, 0
1, 85008, Note_on_c, 0, 71, 94
1, 85016, Note_on_c, 1, 55, 0
1, 85045, Note_on_c, 0, 71, 0
1, 85056, Note_on_c, 0, 74, 94
1, 85093, Note_on_c, 0, 74, 0
1, 85104, Note_on_c, 0, 77, 94
1, 85141, Note_on_c, 0, 77, 0
1, 85152, Note_on_c, 0, 79, 94
1, 85189, Note_on_c, 0, 79, 0
1, 85200, Note_on_c, 0, 83, 94
1, 85237, Note_on_c, 0, 83, 0
1, 85248, Note_on_c, 0, 86, 94
1, 85248, Note_on_c, 1, 55, 94
1, 85248, Note_on_c, 1, 43, 94
1, 85285, Note_on_c, 0, 86, 0
1, 85296, Note_on_c, 0, 84, 94
1, 85333, Note_on_c, 0, 84, 0
1, 85344, Note_on_c, 0, 83, 94
1, 85381, Note_on_c, 0, 83, 0
1, 85392, Note_on_c, 0, 81, 94
1, 85400, Note_on_c, 1, 43, 0
1, 85400, Note_on_c, 1, 55, 0
1, 85429, Note_on_c, 0, 81, 0
1, 85440, Note_on_c, 0, 79, 94
1, 85477, Note_on_c, 0, 79, 0
1, 85488, Note_on_c, 0, 77, 94
1, 85525, Note_on_c, 0, 77, 0
1, 85536, Note_on_c, 0, 76, 94
1, 85536, Note_on_c, 1, 55, 94
1, 85536, Note_on_c, 1, 59, 94
1, 85573, Note_on_c, 0, 76, 0
1, 85584, Note_on_c, 0, 74, 94
1, 85612, Note_on_c, 1, 59, 0
1, 85612, Note_on_c, 1, 55, 0
1, 85621, Note_on_c, 0, 74, 0
1, 85632, Note_on_c, 0, 60, 94
1, 85632, Note_on_c, 0, 76, 94
1, 85669, Note_on_c, 0, 60, 0
1, 85680, Note_on_c, 0, 67, 94
1, 85717, Note_on_c, 0, 67, 0
1, 85728, Note_on_c, 0, 64, 94
1, 85765, Note_on_c, 0, 64, 0
1, 85776, Note_on_c, 0, 67, 94
1, 85784, Note_on_c, 0, 76, 0
1, 85813, Note_on_c, 0, 67, 0
1, 85824, Note_on_c, 0, 60, 94
1, 85824, Note_on_c, 0, 79, 94
1, 85861, Note_on_c, 0, 60, 0
1, 85872, Note_on_c, 0, 67, 94
1, 85900, Note_on_c, 0, 79, 0
1, 85909, Note_on_c, 0, 67, 0
1, 85920, Note_on_c, 0, 64, 94
1, 85920, Note_on_c, 0, 79, 94
1, 85957, Note_on_c, 0, 64, 0
1, 85968, Note_on_c, 0, 67, 94
1, 85996, Note_on_c, 0, 79, 0
1, 86005, Note_on_c, 0, 67, 0
1, 86016, Note_on_c, 0, 60, 52
1, 86016, Note_on_c, 0, 81, 52
1, 86053, Note_on_c, 0, 60, 0
1, 86064, Note_on_c, 0, 69, 52
1, 86101, Note_on_c, 0, 69, 0
1, 86112, Note_on_c, 0, 65, 52
1, 86129, Note_on_c, 0, 81, 0
1, 86149, Note_on_c, 0, 65, 0
1, 86160, Note_on_c, 0, 69, 52
1, 86160, Note_on_c, 0, 83, 52
1, 86196, Note_on_c, 0, 86, 52
1, 86197, Note_on_c, 0, 83, 0
1, 86197, Note_on_c, 0, 69, 0
1, 86208, Note_on_c, 0, 86, 0
1, 86208, Note_on_c, 0, 84, 52
1, 86208, Note_on_c, 0, 60, 52
1, 86245, Note_on_c, 0, 60, 0
1, 86256, Note_on_c, 0, 69, 52
1, 86284, Note_on_c, 0, 84, 0
1, 86293, Note_on_c, 0, 69, 0
1, 86304, Note_on_c, 0, 83, 52
1, 86304, Note_on_c, 0, 65, 52
1, 86341, Note_on_c, 0, 65, 0
1, 86341, Note_on_c, 0, 83, 0
1, 86352, Note_on_c, 0, 69, 52
1, 86352, Note_on_c, 0, 81, 52
1, 86389, Note_on_c, 0, 81, 0
1, 86389, Note_on_c, 0, 69, 0
1, 86400, Note_on_c, 0, 79, 52
1, 86400, Note_on_c, 0, 60, 52
1, 86437, Note_on_c, 0, 60, 0
1, 86448, Note_on_c, 0, 67, 52
1, 86476, Note_on_c, 0, 79, 0
1, 86485, Note_on_c, 0, 67, 0
1, 86496, Note_on_c, 0, 64, 52
1, 86533, Note_on_c, 0, 64, 0
1, 86544, Note_on_c, 0, 67, 52
1, 86581, Note_on_c, 0, 67, 0
1, 86592, Note_on_c, 0, 60, 52
1, 86592, Note_on_c, 0, 79, 52
1, 86629, Note_on_c, 0, 79, 0
1, 86629, Note_on_c, 0, 60, 0
1, 86640, Note_on_c, 0, 67, 52
1, 86640, Note_on_c, 0, 76, 52
1, 86677, Note_on_c, 0, 76, 0
1, 86677, Note_on_c, 0, 67, 0
1, 86688, Note_on_c, 0, 64, 52
1, 86688, Note_on_c, 0, 79, 52
1, 86725, Note_on_c, 0, 79, 0
1, 86725, Note_on_c, 0, 64, 0
1, 86736, Note_on_c, 0, 67, 52
1, 86736, Note_on_c, 0, 76, 52
1, 86773, Note_on_c, 0, 76, 0
1, 86773, Note_on_c, 0, 67, 0
1, 86784, Note_on_c, 0, 60, 52
1, 86784, Note_on_c, 0, 81, 52
1, 86821, Note_on_c, 0, 60, 0
1, 86832, Note_on_c, 0, 69, 52
1, 86869, Note_on_c, 0, 69, 0
1, 86880, Note_on_c, 0, 65, 52
1, 86897, Note_on_c, 0, 81, 0
1, 86917, Note_on_c, 0, 65, 0
1, 86928, Note_on_c, 0, 69, 52
1, 86928, Note_on_c, 0, 83, 52
1, 86964, Note_on_c, 0, 86, 52
1, 86965, Note_on_c, 0, 83, 0
1, 86965, Note_on_c, 0, 69, 0
1, 86976, Note_on_c, 0, 86, 0
1, 86976, Note_on_c, 0, 84, 52
1, 86976, Note_on_c, 0, 60, 52
1, 87013, Note_on_c, 0, 60, 0
1, 87024, Note_on_c, 0, 69, 52
1, 87052, Note_on_c, 0, 84, 0
1, 87061, Note_on_c, 0, 69, 0
1, 87072, Note_on_c, 0, 83, 52
1, 87072, Note_on_c, 0, 65, 52
1, 87109, Note_on_c, 0, 65, 0
1, 87109, Note_on_c, 0, 83, 0
1, 87120, Note_on_c, 0, 69, 52
1, 87120, Note_on_c, 0, 81, 52
1, 87157, Note_on_c, 0, 81, 0
1, 87157, Note_on_c, 0, 69, 0
1, 87168, Note_on_c, 0, 60, 52
1, 87168, Note_on_c, 0, 79, 52
1, 87168, Note_on_c, 0, 64, 52
1, 87244, Note_on_c, 0, 79, 0
1, 87264, Note_on_c, 0, 88, 52
1, 87301, Note_on_c, 0, 88, 0
1, 87312, Note_on_c, 0, 86, 52
1, 87348, Note_on_c, 0, 60, 0
1, 87348, Note_on_c, 0, 64, 0
1, 87349, Note_on_c, 0, 86, 0
1, 87360, Note_on_c, 0, 84, 52
1, 87360, Note_on_c, 0, 73, 52
1, 87397, Note_on_c, 0, 84, 0
1, 87408, Note_on_c, 0, 83, 52
1, 87436, Note_on_c, 0, 73, 0
1, 87445, Note_on_c, 0, 83, 0
1, 87456, Note_on_c, 0, 81, 52
1, 87493, Note_on_c, 0, 81, 0
1, 87504, Note_on_c, 0, 79, 52
1, 87541, Note_on_c, 0, 79, 0
1, 87552, Note_on_c, 0, 77, 94
1, 87552, Note_on_c, 0, 74, 94
1, 87569, Note_on_c, 0, 77, 0
1, 87576, Note_on_c, 0, 79, 94
1, 87593, Note_on_c, 0, 79, 0
1, 87600, Note_on_c, 0, 77, 94
1, 87617, Note_on_c, 0, 77, 0
1, 87624, Note_on_c, 0, 79, 94
1, 87641, Note_on_c, 0, 79, 0
1, 87648, Note_on_c, 0, 86, 94
1, 87685, Note_on_c, 0, 86, 0
1, 87696, Note_on_c, 0, 84, 94
1, 87704, Note_on_c, 0, 74, 0
1, 87733, Note_on_c, 0, 84, 0
1, 87744, Note_on_c, 0, 83, 94
1, 87781, Note_on_c, 0, 83, 0
1, 87792, Note_on_c, 0, 81, 94
1, 87829, Note_on_c, 0, 81, 0
1, 87840, Note_on_c, 0, 71, 94
1, 87840, Note_on_c, 0, 79, 94
1, 87877, Note_on_c, 0, 79, 0
1, 87888, Note_on_c, 0, 77, 94
1, 87916, Note_on_c, 0, 71, 0
1, 87925, Note_on_c, 0, 77, 0
1, 87936, Note_on_c, 0, 76, 94
1, 87936, Note_on_c, 0, 72, 94
1, 87953, Note_on_c, 0, 76, 0
1, 87960, Note_on_c, 0, 77, 94
1, 87977, Note_on_c, 0, 77, 0
1, 87984, Note_on_c, 0, 76, 94
1, 88001, Note_on_c, 0, 76, 0
1, 88008, Note_on_c, 0, 77, 94
1, 88025, Note_on_c, 0, 77, 0
1, 88032, Note_on_c, 0, 84, 94
1, 88069, Note_on_c, 0, 84, 0
1, 88080, Note_on_c, 0, 83, 94
1, 88088, Note_on_c, 0, 72, 0
1, 88117, Note_on_c, 0, 83, 0
1, 88128, Note_on_c, 0, 81, 94
1, 88165, Note_on_c, 0, 81, 0
1, 88176, Note_on_c, 0, 79, 94
1, 88213, Note_on_c, 0, 79, 0
1, 88224, Note_on_c, 0, 77, 94
1, 88224, Note_on_c, 1, 48, 94
1, 88261, Note_on_c, 0, 77, 0
1, 88272, Note_on_c, 0, 76, 94
1, 88300, Note_on_c, 1, 48, 0
1, 88309, Note_on_c, 0, 76, 0
1, 88320, Note_on_c, 0, 74, 94
1, 88320, Note_on_c, 1, 45, 94
1, 88337, Note_on_c, 0, 74, 0
1, 88344, Note_on_c, 0, 76, 94
1, 88361, Note_on_c, 0, 76, 0
1, 88368, Note_on_c, 0, 74, 94
1, 88385, Note_on_c, 0, 74, 0
1, 88392, Note_on_c, 0, 76, 94
1, 88409, Note_on_c, 0, 76, 0
1, 88416, Note_on_c, 0, 81, 94
1, 88453, Note_on_c, 0, 81, 0
1, 88464, Note_on_c, 0, 79, 94
1, 88472, Note_on_c, 1, 45, 0
1, 88501, Note_on_c, 0, 79, 0
1, 88512, Note_on_c, 0, 77, 94
1, 88549, Note_on_c, 0, 77, 0
1, 88560, Note_on_c, 0, 76, 94
1, 88597, Note_on_c, 0, 76, 0
1, 88608, Note_on_c, 0, 66, 94
1, 88608, Note_on_c, 0, 74, 94
1, 88645, Note_on_c, 0, 74, 0
1, 88656, Note_on_c, 0, 72, 94
1, 88684, Note_on_c, 0, 66, 0
1, 88693, Note_on_c, 0, 72, 0
1, 88704, Note_on_c, 0, 71, 94
1, 88704, Note_on_c, 1, 55, 94
1, 88741, Note_on_c, 1, 55, 0
1, 88752, Note_on_c, 0, 67, 94
1, 88789, Note_on_c, 0, 67, 0
1, 88800, Note_on_c, 0, 66, 94
1, 88837, Note_on_c, 0, 66, 0
1, 88848, Note_on_c, 0, 67, 94
1, 88856, Note_on_c, 0, 71, 0
1, 88885, Note_on_c, 0, 67, 0
1, 88896, Note_on_c, 0, 67, 94
1, 88896, Note_on_c, 1, 48, 94
1, 88933, Note_on_c, 1, 48, 0
1, 88944, Note_on_c, 0, 60, 94
1, 88972, Note_on_c, 0, 67, 0
1, 88981, Note_on_c, 0, 60, 0
1, 88992, Note_on_c, 0, 67, 94
1, 88992, Note_on_c, 1, 59, 94
1, 89029, Note_on_c, 1, 59, 0
1, 89040, Note_on_c, 0, 60, 94
1, 89068, Note_on_c, 0, 67, 0
1, 89077, Note_on_c, 0, 60, 0
1, 89088, Note_on_c, 0, 69, 52
1, 89088, Note_on_c, 1, 53, 52
1, 89125, Note_on_c, 1, 53, 0
1, 89136, Note_on_c, 0, 60, 52
1, 89173, Note_on_c, 0, 60, 0
1, 89184, Note_on_c, 1, 59, 52
1, 89201, Note_on_c, 0, 69, 0
1, 89221, Note_on_c, 1, 59, 0
1, 89232, Note_on_c, 0, 60, 52
1, 89232, Note_on_c, 0, 71, 52
1, 89268, Note_on_c, 0, 74, 52
1, 89269, Note_on_c, 0, 71, 0
1, 89269, Note_on_c, 0, 60, 0
1, 89280, Note_on_c, 0, 74, 0
1, 89280, Note_on_c, 0, 72, 52
1, 89280, Note_on_c, 1, 53, 52
1, 89317, Note_on_c, 1, 53, 0
1, 89328, Note_on_c, 0, 60, 52
1, 89356, Note_on_c, 0, 72, 0
1, 89365, Note_on_c, 0, 60, 0
1, 89376, Note_on_c, 0, 71, 52
1, 89376, Note_on_c, 1, 59, 52
1, 89413, Note_on_c, 0, 71, 0
1, 89413, Note_on_c, 1, 59, 0
1, 89424, Note_on_c, 0, 60, 52
1, 89424, Note_on_c, 0, 69, 52
1, 89461, Note_on_c, 0, 69, 0
1, 89461, Note_on_c, 0, 60, 0
1, 89472, Note_on_c, 0, 67, 52
1, 89472, Note_on_c, 1, 52, 52
1, 89509, Note_on_c, 1, 52, 0
1, 89520, Note_on_c, 0, 60, 52
1, 89548, Note_on_c, 0, 67, 0
1, 89557, Note_on_c, 0, 60, 0
1, 89568, Note_on_c, 1, 59, 52
1, 89605, Note_on_c, 1, 59, 0
1, 89616, Note_on_c, 0, 60, 52
1, 89653, Note_on_c, 0, 60, 0
1, 89664, Note_on_c, 0, 67, 52
1, 89664, Note_on_c, 1, 48, 52
1, 89701, Note_on_c, 0, 67, 0
1, 89701, Note_on_c, 1, 48, 0
1, 89712, Note_on_c, 0, 60, 52
1, 89712, Note_on_c, 0, 64, 52
1, 89749, Note_on_c, 0, 64, 0
1, 89749, Note_on_c, 0, 60, 0
1, 89760, Note_on_c, 0, 67, 52
1, 89760, Note_on_c, 1, 59, 52
1, 89797, Note_on_c, 0, 67, 0
1, 89797, Note_on_c, 1, 59, 0
1, 89808, Note_on_c, 0, 60, 52
1, 89808, Note_on_c, 0, 64, 52
1, 89845, Note_on_c, 0, 64, 0
1, 89845, Note_on_c, 0, 60, 0
1, 89856, Note_on_c, 0, 69, 52
1, 89856, Note_on_c, 1, 53, 52
1, 89893, Note_on_c, 1, 53, 0
1, 89904, Note_on_c, 0, 60, 52
1, 89941, Note_on_c, 0, 60, 0
1, 89952, Note_on_c, 1, 59, 52
1, 89969, Note_on_c, 0, 69, 0
1, 89989, Note_on_c, 1, 59, 0
1, 90000, Note_on_c, 0, 60, 52
1, 90000, Note_on_c, 0, 71, 52
1, 90036, Note_on_c, 0, 74, 52
1, 90037, Note_on_c, 0, 71, 0
1, 90037, Note_on_c, 0, 60, 0
1, 90048, Note_on_c, 0, 74, 0
1, 90048, Note_on_c, 0, 72, 52
1, 90048, Note_on_c, 1, 53, 52
1, 90085, Note_on_c, 1, 53, 0
1, 90096, Note_on_c, 0, 60, 52
1, 90124, Note_on_c, 0, 72, 0
1, 90133, Note_on_c, 0, 60, 0
1, 90144, Note_on_c, 0, 71, 52
1, 90144, Note_on_c, 1, 59, 52
1, 90181, Note_on_c, 0, 71, 0
1, 90181, Note_on_c, 1, 59, 0
1, 90192, Note_on_c, 0, 69, 52
1, 90192, Note_on_c, 0, 60, 52
1, 90229, Note_on_c, 0, 60, 0
1, 90229, Note_on_c, 0, 69, 0
1, 90240, Note_on_c, 0, 67, 52
1, 90240, Note_on_c, 1, 52, 52
1, 90277, Note_on_c, 0, 67, 0
1, 90288, Note_on_c, 0, 72, 52
1, 90325, Note_on_c, 0, 72, 0
1, 90336, Note_on_c, 0, 76, 52
1, 90373, Note_on_c, 0, 76, 0
1, 90384, Note_on_c, 0, 74, 52
1, 90392, Note_on_c, 1, 52, 0
1, 90421, Note_on_c, 0, 74, 0
1, 90432, Note_on_c, 0, 72, 52
1, 90469, Note_on_c, 0, 72, 0
1, 90480, Note_on_c, 0, 71, 52
1, 90517, Note_on_c, 0, 71, 0
1, 90528, Note_on_c, 0, 69, 52
1, 90528, Note_on_c, 0, 61, 52
1, 90565, Note_on_c, 0, 69, 0
1, 90576, Note_on_c, 0, 67, 52
1, 90604, Note_on_c, 0, 61, 0
1, 90613, Note_on_c, 0, 67, 0
1, 90624, Note_on_c, 0, 67, 94
1, 90624, Note_on_c, 0, 62, 94
1, 90661, Note_on_c, 0, 67, 0
1, 90672, Note_on_c, 0, 66, 94
1, 90709, Note_on_c, 0, 66, 0
1, 90720, Note_on_c, 0, 74, 94
1, 90757, Note_on_c, 0, 74, 0
1, 90768, Note_on_c, 0, 72, 94
1, 90776, Note_on_c, 0, 62, 0
1, 90805, Note_on_c, 0, 72, 0
1, 90816, Note_on_c, 0, 71, 94
1, 90853, Note_on_c, 0, 71, 0
1, 90864, Note_on_c, 0, 69, 94
1, 90901, Note_on_c, 0, 69, 0
1, 90912, Note_on_c, 0, 67, 94
1, 90912, Note_on_c, 1, 59, 94
1, 90949, Note_on_c, 0, 67, 0
1, 90960, Note_on_c, 0, 65, 94
1, 90988, Note_on_c, 1, 59, 0
1, 90997, Note_on_c, 0, 65, 0
1, 91008, Note_on_c, 0, 65, 94
1, 91008, Note_on_c, 0, 60, 94
1, 91045, Note_on_c, 0, 65, 0
1, 91056, Note_on_c, 0, 64, 94
1, 91093, Note_on_c, 0, 64, 0
1, 91104, Note_on_c, 0, 72, 94
1, 91141, Note_on_c, 0, 72, 0
1, 91152, Note_on_c, 0, 71, 94
1, 91160, Note_on_c, 0, 60, 0
1, 91189, Note_on_c, 0, 71, 0
1, 91200, Note_on_c, 0, 69, 94
1, 91237, Note_on_c, 0, 69, 0
1, 91248, Note_on_c, 0, 67, 94
1, 91285, Note_on_c, 0, 67, 0
1, 91296, Note_on_c, 0, 65, 94
1, 91296, Note_on_c, 1, 57, 94
1, 91333, Note_on_c, 0, 65, 0
1, 91344, Note_on_c, 0, 64, 94
1, 91372, Note_on_c, 1, 57, 0
1, 91381, Note_on_c, 0, 64, 0
1, 91392, Note_on_c, 0, 62, 94
1, 91392, Note_on_c, 1, 41, 94
1, 91429, Note_on_c, 1, 41, 0
1, 91440, Note_on_c, 1, 45, 94
1, 91468, Note_on_c, 0, 62, 0
1, 91477, Note_on_c, 1, 45, 0
1, 91488, Note_on_c, 1, 50, 94
1, 91525, Note_on_c, 1, 50, 0
1, 91536, Note_on_c, 1, 53, 94
1, 91573, Note_on_c, 1, 53, 0
1, 91584, Note_on_c, 0, 62, 94
1, 91621, Note_on_c, 0, 62, 0
1, 91632, Note_on_c, 0, 65, 94
1, 91669, Note_on_c, 0, 65, 0
1, 91680, Note_on_c, 0, 69, 94
1, 91717, Note_on_c, 0, 69, 0
1, 91728, Note_on_c, 0, 74, 94
1, 91765, Note_on_c, 0, 74, 0
1, 91776, Note_on_c, 1, 43, 94
1, 91813, Note_on_c, 1, 43, 0
1, 91824, Note_on_c, 1, 47, 94
1, 91861, Note_on_c, 1, 47, 0
1, 91872, Note_on_c, 1, 52, 94
1, 91909, Note_on_c, 1, 52, 0
1, 91920, Note_on_c, 1, 55, 94
1, 91957, Note_on_c, 1, 55, 0
1, 91968, Note_on_c, 0, 64, 94
1, 92005, Note_on_c, 0, 64, 0
1, 92016, Note_on_c, 0, 67, 94
1, 92053, Note_on_c, 0, 67, 0
1, 92064, Note_on_c, 0, 71, 94
1, 92101, Note_on_c, 0, 71, 0
1, 92112, Note_on_c, 0, 76, 94
1, 92149, Note_on_c, 0, 76, 0
1, 92160, Note_on_c, 1, 45, 94
1, 92197, Note_on_c, 1, 45, 0
1, 92208, Note_on_c, 1, 48, 94
1, 92245, Note_on_c, 1, 48, 0
1, 92256, Note_on_c, 1, 53, 94
1, 92293, Note_on_c, 1, 53, 0
1, 92304, Note_on_c, 1, 57, 94
1, 92341, Note_on_c, 1, 57, 0
1, 92352, Note_on_c, 0, 65, 94
1, 92389, Note_on_c, 0, 65, 0
1, 92400, Note_on_c, 0, 69, 94
1, 92437, Note_on_c, 0, 69, 0
1, 92448, Note_on_c, 0, 72, 94
1, 92485, Note_on_c, 0, 72, 0
1, 92496, Note_on_c, 0, 77, 94
1, 92533, Note_on_c, 0, 77, 0
1, 92544, Note_on_c, 1, 47, 94
1, 92581, Note_on_c, 1, 47, 0
1, 92592, Note_on_c, 1, 50, 94
1, 92629, Note_on_c, 1, 50, 0
1, 92640, Note_on_c, 1, 55, 94
1, 92677, Note_on_c, 1, 55, 0
1, 92688, Note_on_c, 1, 59, 94
1, 92725, Note_on_c, 1, 59, 0
1, 92736, Note_on_c, 0, 86, 94
1, 92773, Note_on_c, 0, 86, 0
1, 92784, Note_on_c, 0, 83, 94
1, 92821, Note_on_c, 0, 83, 0
1, 92832, Note_on_c, 0, 79, 94
1, 92869, Note_on_c, 0, 79, 0
1, 92880, Note_on_c, 0, 77, 94
1, 92917, Note_on_c, 0, 77, 0
1, 92928, Note_on_c, 0, 74, 94
1, 92965, Note_on_c, 0, 74, 0
1, 92976, Note_on_c, 0, 71, 94
1, 93013, Note_on_c, 0, 71, 0
1, 93024, Note_on_c, 0, 67, 94
1, 93061, Note_on_c, 0, 67, 0
1, 93072, Note_on_c, 0, 65, 94
1, 93109, Note_on_c, 0, 65, 0
1, 93120, Note_on_c, 0, 62, 94
1, 93157, Note_on_c, 0, 62, 0
1, 93168, Note_on_c, 1, 59, 94
1, 93205, Note_on_c, 1, 59, 0
1, 93216, Note_on_c, 1, 55, 94
1, 93253, Note_on_c, 1, 55, 0
1, 93264, Note_on_c, 1, 53, 94
1, 93301, Note_on_c, 1, 53, 0
1, 93312, Note_on_c, 0, 72, 94
1, 93312, Note_on_c, 1, 52, 94
1, 93329, Note_on_c, 0, 72, 0
1, 93336, Note_on_c, 0, 74, 94
1, 93353, Note_on_c, 0, 74, 0
1, 93360, Note_on_c, 0, 71, 94
1, 93388, Note_on_c, 1, 52, 0
1, 93397, Note_on_c, 0, 71, 0
1, 93408, Note_on_c, 0, 72, 94
1, 93408, Note_on_c, 1, 55, 94
1, 93445, Note_on_c, 0, 72, 0
1, 93456, Note_on_c, 0, 76, 94
1, 93484, Note_on_c, 1, 55, 0
1, 93493, Note_on_c, 0, 76, 0
1, 93504, Note_on_c, 0, 74, 94
1, 93504, Note_on_c, 1, 59, 94
1, 93521, Note_on_c, 0, 74, 0
1, 93528, Note_on_c, 0, 76, 94
1, 93545, Note_on_c, 0, 76, 0
1, 93552, Note_on_c, 0, 72, 94
1, 93580, Note_on_c, 1, 59, 0
1, 93589, Note_on_c, 0, 72, 0
1, 93600, Note_on_c, 0, 74, 94
1, 93600, Note_on_c, 1, 55, 94
1, 93637, Note_on_c, 0, 74, 0
1, 93648, Note_on_c, 0, 77, 94
1, 93676, Note_on_c, 1, 55, 0
1, 93685, Note_on_c, 0, 77, 0
1, 93696, Note_on_c, 0, 60, 94
1, 93696, Note_on_c, 0, 76, 94
1, 93713, Note_on_c, 0, 76, 0
1, 93720, Note_on_c, 0, 77, 94
1, 93737, Note_on_c, 0, 77, 0
1, 93744, Note_on_c, 0, 74, 94
1, 93772, Note_on_c, 0, 60, 0
1, 93781, Note_on_c, 0, 74, 0
1, 93792, Note_on_c, 0, 76, 94
1, 93792, Note_on_c, 1, 55, 94
1, 93829, Note_on_c, 0, 76, 0
1, 93840, Note_on_c, 0, 79, 94
1, 93868, Note_on_c, 1, 55, 0
1, 93877, Note_on_c, 0, 79, 0
1, 93888, Note_on_c, 0, 62, 94
1, 93888, Note_on_c, 0, 77, 94
1, 93905, Note_on_c, 0, 77, 0
1, 93912, Note_on_c, 0, 79, 94
1, 93929, Note_on_c, 0, 79, 0
1, 93936, Note_on_c, 0, 76, 94
1, 93964, Note_on_c, 0, 62, 0
1, 93973, Note_on_c, 0, 76, 0
1, 93984, Note_on_c, 0, 77, 94
1, 93984, Note_on_c, 1, 55, 94
1, 94021, Note_on_c, 0, 77, 0
1, 94032, Note_on_c, 0, 81, 94
1, 94060, Note_on_c, 1, 55, 0
1, 94069, Note_on_c, 0, 81, 0
1, 94080, Note_on_c, 0, 79, 94
1, 94080, Note_on_c, 0, 64, 94
1, 94117, Note_on_c, 0, 79, 0
1, 94128, Note_on_c, 0, 84, 94
1, 94165, Note_on_c, 0, 84, 0
1, 94176, Note_on_c, 0, 88, 94
1, 94213, Note_on_c, 0, 88, 0
1, 94224, Note_on_c, 0, 83, 94
1, 94232, Note_on_c, 0, 64, 0
1, 94261, Note_on_c, 0, 83, 0
1, 94272, Note_on_c, 0, 84, 94
1, 94309, Note_on_c, 0, 84, 0
1, 94320, Note_on_c, 0, 79, 94
1, 94357, Note_on_c, 0, 79, 0
1, 94368, Note_on_c, 0, 81, 94
1, 94368, Note_on_c, 0, 62, 94
1, 94368, Note_on_c, 1, 53, 94
1, 94405, Note_on_c, 0, 81, 0
1, 94416, Note_on_c, 0, 77, 94
1, 94444, Note_on_c, 0, 62, 0
1, 94444, Note_on_c, 1, 53, 0
1, 94453, Note_on_c, 0, 77, 0
1, 94464, Note_on_c, 0, 76, 94
1, 94464, Note_on_c, 0, 60, 94
1, 94464, Note_on_c, 1, 55, 94
1, 94481, Note_on_c, 0, 76, 0
1, 94488, Note_on_c, 0, 77, 94
1, 94505, Note_on_c, 0, 77, 0
1, 94512, Note_on_c, 0, 76, 94
1, 94529, Note_on_c, 0, 76, 0
1, 94536, Note_on_c, 0, 77, 94
1, 94540, Note_on_c, 0, 60, 0
1, 94540, Note_on_c, 1, 55, 0
1, 94553, Note_on_c, 0, 77, 0
1, 94560, Note_on_c, 0, 74, 94
1, 94560, Note_on_c, 1, 59, 94
1, 94636, Note_on_c, 1, 59, 0
1, 94649, Note_on_c, 0, 74, 0
1, 94704, Note_on_c, 0, 79, 94
1, 94741, Note_on_c, 0, 79, 0
1, 94752, Note_on_c, 0, 77, 94
1, 94789, Note_on_c, 0, 77, 0
1, 94800, Note_on_c, 0, 76, 94
1, 94837, Note_on_c, 0, 76, 0
1, 94848, Note_on_c, 0, 65, 94
1, 94848, Note_on_c, 0, 74, 94
1, 94885, Note_on_c, 0, 65, 0
1, 94896, Note_on_c, 0, 72, 94
1, 94933, Note_on_c, 0, 72, 0
1, 94944, Note_on_c, 0, 71, 94
1, 94981, Note_on_c, 0, 71, 0
1, 94992, Note_on_c, 0, 72, 94
1, 95000, Note_on_c, 0, 74, 0
1, 95029, Note_on_c, 0, 72, 0
1, 95040, Note_on_c, 0, 76, 94
1, 95040, Note_on_c, 0, 67, 94
1, 95057, Note_on_c, 0, 76, 0
1, 95064, Note_on_c, 0, 77, 94
1, 95077, Note_on_c, 0, 67, 0
1, 95081, Note_on_c, 0, 77, 0
1, 95088, Note_on_c, 0, 76, 94
1, 95088, Note_on_c, 0, 72, 94
1, 95105, Note_on_c, 0, 76, 0
1, 95112, Note_on_c, 0, 77, 94
1, 95125, Note_on_c, 0, 72, 0
1, 95129, Note_on_c, 0, 77, 0
1, 95136, Note_on_c, 0, 76, 94
1, 95136, Note_on_c, 0, 71, 94
1, 95153, Note_on_c, 0, 76, 0
1, 95160, Note_on_c, 0, 77, 94
1, 95173, Note_on_c, 0, 71, 0
1, 95177, Note_on_c, 0, 77, 0
1, 95184, Note_on_c, 0, 74, 94
1, 95184, Note_on_c, 0, 72, 94
1, 95201, Note_on_c, 0, 74, 0
1, 95208, Note_on_c, 0, 76, 94
1, 95221, Note_on_c, 0, 72, 0
1, 95225, Note_on_c, 0, 76, 0
1, 95232, Note_on_c, 0, 69, 52
1, 95232, Note_on_c, 0, 77, 52
1, 95269, Note_on_c, 0, 69, 0
1, 95280, Note_on_c, 0, 72, 52
1, 95317, Note_on_c, 0, 72, 0
1, 95328, Note_on_c, 0, 71, 52
1, 95365, Note_on_c, 0, 71, 0
1, 95376, Note_on_c, 0, 72, 52
1, 95413, Note_on_c, 0, 72, 0
1, 95424, Note_on_c, 0, 67, 52
1, 95461, Note_on_c, 0, 77, 0
1, 95461, Note_on_c, 0, 67, 0
1, 95472, Note_on_c, 0, 72, 52
1, 95509, Note_on_c, 0, 72, 0
1, 95520, Note_on_c, 0, 76, 52
1, 95520, Note_on_c, 0, 71, 52
1, 95557, Note_on_c, 0, 71, 0
1, 95568, Note_on_c, 0, 72, 52
1, 95596, Note_on_c, 0, 76, 0
1, 95605, Note_on_c, 0, 72, 0
1, 95616, Note_on_c, 0, 74, 52
1, 95616, Note_on_c, 0, 65, 52
1, 95653, Note_on_c, 0, 65, 0
1, 95664, Note_on_c, 0, 72, 52
1, 95692, Note_on_c, 0, 74, 0
1, 95700, Note_on_c, 0, 73, 52
1, 95701, Note_on_c, 0, 72, 0
1, 95712, Note_on_c, 0, 73, 0
1, 95712, Note_on_c, 0, 74, 52
1, 95712, Note_on_c, 0, 71, 52
1, 95749, Note_on_c, 0, 71, 0
1, 95760, Note_on_c, 0, 72, 52
1, 95788, Note_on_c, 0, 74, 0
1, 95797, Note_on_c, 0, 72, 0
1, 95808, Note_on_c, 0, 67, 52
1, 95808, Note_on_c, 0, 76, 52
1, 95845, Note_on_c, 0, 67, 0
1, 95856, Note_on_c, 0, 72, 52
1, 95884, Note_on_c, 0, 76, 0
1, 95892, Note_on_c, 0, 75, 52
1, 95893, Note_on_c, 0, 72, 0
1, 95904, Note_on_c, 0, 75, 0
1, 95904, Note_on_c, 0, 71, 52
1, 95904, Note_on_c, 0, 76, 52
1, 95941, Note_on_c, 0, 71, 0
1, 95952, Note_on_c, 0, 72, 52
1, 95980, Note_on_c, 0, 76, 0
1, 95989, Note_on_c, 0, 72, 0
1, 96000, Note_on_c, 0, 69, 52
1, 96000, Note_on_c, 0, 77, 52
1, 96037, Note_on_c, 0, 69, 0
1, 96048, Note_on_c, 0, 72, 52
1, 96085, Note_on_c, 0, 72, 0
1, 96096, Note_on_c, 0, 71, 52
1, 96133, Note_on_c, 0, 71, 0
1, 96144, Note_on_c, 0, 72, 52
1, 96181, Note_on_c, 0, 72, 0
1, 96192, Note_on_c, 0, 67, 52
1, 96229, Note_on_c, 0, 77, 0
1, 96229, Note_on_c, 0, 67, 0
1, 96240, Note_on_c, 0, 72, 52
1, 96277, Note_on_c, 0, 72, 0
1, 96288, Note_on_c, 0, 76, 52
1, 96288, Note_on_c, 0, 71, 52
1, 96325, Note_on_c, 0, 71, 0
1, 96336, Note_on_c, 0, 72, 52
1, 96364, Note_on_c, 0, 76, 0
1, 96372, Note_on_c, 0, 73, 52
1, 96373, Note_on_c, 0, 72, 0
1, 96384, Note_on_c, 0, 73, 0
1, 96384, Note_on_c, 0, 74, 52
1, 96480, Note_on_c, 0, 65, 52
1, 96480, Note_on_c, 0, 69, 52
1, 96556, Note_on_c, 0, 69, 0
1, 96556, Note_on_c, 0, 65, 0
1, 96564, Note_on_c, 0, 74, 0
1, 96576, Note_on_c, 0, 64, 52
1, 96576, Note_on_c, 0, 68, 52
1, 96652, Note_on_c, 0, 68, 0
1, 96652, Note_on_c, 0, 64, 0
1, 96672, Note_on_c, 0, 69, 52
1, 96672, Note_on_c, 0, 65, 52
1, 96748, Note_on_c, 0, 65, 0
1, 96748, Note_on_c, 0, 69, 0
1, 96768, Note_on_c, 0, 80, 94
1, 96780, Note_on_c, 0, 80, 0
1, 96780, Note_on_c, 0, 81, 94
1, 96864, Note_on_c, 0, 65, 94
1, 96864, Note_on_c, 0, 69, 94
1, 96932, Note_on_c, 0, 81, 0
1, 96940, Note_on_c, 0, 65, 0
1, 96940, Note_on_c, 0, 69, 0
1, 96960, Note_on_c, 0, 64, 94
1, 96960, Note_on_c, 0, 68, 94
1, 97036, Note_on_c, 0, 68, 0
1, 97036, Note_on_c, 0, 64, 0
1, 97056, Note_on_c, 0, 65, 94
1, 97056, Note_on_c, 0, 69, 94
1, 97132, Note_on_c, 0, 69, 0
1, 97132, Note_on_c, 0, 65, 0
1, 97152, Note_on_c, 0, 83, 94
1, 97164, Note_on_c, 0, 83, 0
1, 97164, Note_on_c, 0, 84, 94
1, 97248, Note_on_c, 0, 65, 94
1, 97248, Note_on_c, 0, 69, 94
1, 97316, Note_on_c, 0, 84, 0
1, 97324, Note_on_c, 0, 65, 0
1, 97324, Note_on_c, 0, 69, 0
1, 97344, Note_on_c, 0, 64, 94
1, 97344, Note_on_c, 0, 68, 94
1, 97420, Note_on_c, 0, 68, 0
1, 97420, Note_on_c, 0, 64, 0
1, 97440, Note_on_c, 0, 65, 94
1, 97440, Note_on_c, 0, 69, 94
1, 97516, Note_on_c, 0, 69, 0
1, 97516, Note_on_c, 0, 65, 0
1, 97536, Note_on_c, 0, 80, 52
1, 97537, Note_on_c, 0, 80, 0
1, 97548, Note_on_c, 0, 81, 52
1, 97624, Note_on_c, 0, 81, 0
1, 97636, Note_on_c, 0, 83, 52
1, 97644, Note_on_c, 0, 83, 0
1, 97644, Note_on_c, 0, 84, 52
1, 97720, Note_on_c, 0, 84, 0
1, 97732, Note_on_c, 0, 76, 52
1, 97740, Note_on_c, 0, 76, 0
1, 97740, Note_on_c, 0, 77, 52
1, 97816, Note_on_c, 0, 77, 0
1, 97828, Note_on_c, 0, 80, 52
1, 97836, Note_on_c, 0, 80, 0
1, 97836, Note_on_c, 0, 81, 52
1, 97912, Note_on_c, 0, 81, 0
1, 97924, Note_on_c, 0, 73, 52
1, 97932, Note_on_c, 0, 73, 0
1, 97932, Note_on_c, 0, 74, 52
1, 98008, Note_on_c, 0, 74, 0
1, 98020, Note_on_c, 0, 76, 52
1, 98028, Note_on_c, 0, 76, 0
1, 98028, Note_on_c, 0, 77, 52
1, 98104, Note_on_c, 0, 77, 0
1, 98116, Note_on_c, 0, 68, 52
1, 98124, Note_on_c, 0, 68, 0
1, 98124, Note_on_c, 0, 69, 52
1, 98200, Note_on_c, 0, 69, 0
1, 98212, Note_on_c, 0, 71, 52
1, 98220, Note_on_c, 0, 71, 0
1, 98220, Note_on_c, 0, 72, 52
1, 98296, Note_on_c, 0, 72, 0
1, 98304, Note_on_c, 0, 67, 94
1, 98304, Note_on_c, 1, 55, 94
1, 98316, Note_on_c, 0, 67, 0
1, 98316, Note_on_c, 0, 72, 94
1, 98328, Note_on_c, 0, 72, 0
1, 98328, Note_on_c, 0, 76, 94
1, 98340, Note_on_c, 0, 76, 0
1, 98340, Note_on_c, 0, 79, 94
1, 98341, Note_on_c, 1, 55, 0
1, 98352, Note_on_c, 0, 64, 94
1, 98389, Note_on_c, 0, 64, 0
1, 98400, Note_on_c, 0, 60, 94
1, 98437, Note_on_c, 0, 60, 0
1, 98448, Note_on_c, 0, 64, 94
1, 98485, Note_on_c, 0, 64, 0
1, 98492, Note_on_c, 0, 79, 0
1, 98496, Note_on_c, 1, 55, 94
1, 98532, Note_on_c, 0, 77, 94
1, 98533, Note_on_c, 1, 55, 0
1, 98544, Note_on_c, 0, 64, 94
1, 98569, Note_on_c, 0, 77, 0
1, 98580, Note_on_c, 0, 76, 94
1, 98581, Note_on_c, 0, 64, 0
1, 98592, Note_on_c, 0, 60, 94
1, 98617, Note_on_c, 0, 76, 0
1, 98628, Note_on_c, 0, 74, 94
1, 98629, Note_on_c, 0, 60, 0
1, 98640, Note_on_c, 0, 64, 94
1, 98665, Note_on_c, 0, 74, 0
1, 98676, Note_on_c, 0, 72, 94
1, 98677, Note_on_c, 0, 64, 0
1, 98688, Note_on_c, 1, 55, 94
1, 98713, Note_on_c, 0, 72, 0
1, 98724, Note_on_c, 0, 74, 94
1, 98725, Note_on_c, 1, 55, 0
1, 98736, Note_on_c, 0, 65, 94
1, 98741, Note_on_c, 0, 74, 0
1, 98748, Note_on_c, 0, 76, 94
1, 98765, Note_on_c, 0, 76, 0
1, 98772, Note_on_c, 0, 74, 94
1, 98773, Note_on_c, 0, 65, 0
1, 98784, Note_on_c, 0, 62, 94
1, 98789, Note_on_c, 0, 74, 0
1, 98796, Note_on_c, 0, 76, 94
1, 98813, Note_on_c, 0, 76, 0
1, 98820, Note_on_c, 0, 74, 94
1, 98821, Note_on_c, 0, 62, 0
1, 98832, Note_on_c, 0, 65, 94
1, 98837, Note_on_c, 0, 74, 0
1, 98844, Note_on_c, 0, 76, 94
1, 98861, Note_on_c, 0, 76, 0
1, 98868, Note_on_c, 0, 74, 94
1, 98869, Note_on_c, 0, 65, 0
1, 98880, Note_on_c, 1, 55, 94
1, 98885, Note_on_c, 0, 74, 0
1, 98892, Note_on_c, 0, 76, 94
1, 98909, Note_on_c, 0, 76, 0
1, 98916, Note_on_c, 0, 74, 94
1, 98917, Note_on_c, 1, 55, 0
1, 98928, Note_on_c, 0, 65, 94
1, 98933, Note_on_c, 0, 74, 0
1, 98940, Note_on_c, 0, 76, 94
1, 98957, Note_on_c, 0, 76, 0
1, 98964, Note_on_c, 0, 74, 94
1, 98965, Note_on_c, 0, 65, 0
1, 98976, Note_on_c, 0, 62, 94
1, 98981, Note_on_c, 0, 74, 0
1, 98988, Note_on_c, 0, 76, 94
1, 99005, Note_on_c, 0, 76, 0
1, 99012, Note_on_c, 0, 74, 94
1, 99013, Note_on_c, 0, 62, 0
1, 99024, Note_on_c, 0, 67, 94
1, 99029, Note_on_c, 0, 74, 0
1, 99036, Note_on_c, 0, 76, 94
1, 99053, Note_on_c, 0, 76, 0
1, 99061, Note_on_c, 0, 67, 0
1, 99072, Note_on_c, 0, 60, 94
1, 99072, Note_on_c, 0, 74, 94
1, 99072, Note_on_c, 0, 72, 94
1, 99077, Note_on_c, 0, 74, 0
1, 99109, Note_on_c, 0, 60, 0
1, 99120, Note_on_c, 0, 67, 94
1, 99148, Note_on_c, 0, 72, 0
1, 99157, Note_on_c, 0, 67, 0
1, 99168, Note_on_c, 0, 84, 94
1, 99168, Note_on_c, 0, 64, 94
1, 99205, Note_on_c, 0, 64, 0
1, 99205, Note_on_c, 0, 84, 0
1, 99216, Note_on_c, 0, 84, 94
1, 99216, Note_on_c, 0, 67, 94
1, 99253, Note_on_c, 0, 67, 0
1, 99253, Note_on_c, 0, 84, 0
1, 99264, Note_on_c, 0, 84, 94
1, 99264, Note_on_c, 0, 60, 94
1, 99301, Note_on_c, 0, 84, 0
1, 99312, Note_on_c, 0, 79, 94
1, 99340, Note_on_c, 0, 60, 0
1, 99349, Note_on_c, 0, 79, 0
1, 99360, Note_on_c, 0, 76, 94
1, 99397, Note_on_c, 0, 76, 0
1, 99408, Note_on_c, 0, 72, 94
1, 99445, Note_on_c, 0, 72, 0
1, 99456, Note_on_c, 0, 74, 94
1, 99456, Note_on_c, 1, 59, 94
1, 99493, Note_on_c, 1, 59, 0
1, 99504, Note_on_c, 0, 67, 94
1, 99532, Note_on_c, 0, 74, 0
1, 99541, Note_on_c, 0, 67, 0
1, 99552, Note_on_c, 0, 86, 94
1, 99552, Note_on_c, 0, 62, 94
1, 99589, Note_on_c, 0, 62, 0
1, 99589, Note_on_c, 0, 86, 0
1, 99600, Note_on_c, 0, 67, 94
1, 99600, Note_on_c, 0, 86, 94
1, 99637, Note_on_c, 0, 86, 0
1, 99637, Note_on_c, 0, 67, 0
1, 99648, Note_on_c, 0, 86, 94
1, 99648, Note_on_c, 1, 59, 94
1, 99685, Note_on_c, 0, 86, 0
1, 99696, Note_on_c, 0, 83, 94
1, 99724, Note_on_c, 1, 59, 0
1, 99733, Note_on_c, 0, 83, 0
1, 99744, Note_on_c, 0, 79, 94
1, 99781, Note_on_c, 0, 79, 0
1, 99792, Note_on_c, 0, 74, 94
1, 99829, Note_on_c, 0, 74, 0
1, 99840, Note_on_c, 0, 60, 94
1, 99840, Note_on_c, 0, 76, 94
1, 99877, Note_on_c, 0, 60, 0
1, 99888, Note_on_c, 0, 67, 94
1, 99916, Note_on_c, 0, 76, 0
1, 99925, Note_on_c, 0, 67, 0
1, 99936, Note_on_c, 0, 88, 94
1, 99936, Note_on_c, 0, 64, 94
1, 99973, Note_on_c, 0, 64, 0
1, 99973, Note_on_c, 0, 88, 0
1, 99984, Note_on_c, 0, 67, 94
1, 99984, Note_on_c, 0, 88, 94
1, 100021, Note_on_c, 0, 88, 0
1, 100021, Note_on_c, 0, 67, 0
1, 100032, Note_on_c, 0, 88, 94
1, 100032, Note_on_c, 0, 60, 94
1, 100069, Note_on_c, 0, 88, 0
1, 100080, Note_on_c, 0, 84, 94
1, 100108, Note_on_c, 0, 60, 0
1, 100117, Note_on_c, 0, 84, 0
1, 100128, Note_on_c, 0, 79, 94
1, 100165, Note_on_c, 0, 79, 0
1, 100176, Note_on_c, 0, 76, 94
1, 100213, Note_on_c, 0, 76, 0
1, 100224, Note_on_c, 0, 80, 94
1, 100224, Note_on_c, 0, 62, 94
1, 100224, Note_on_c, 1, 53, 94
1, 100224, Note_on_c, 1, 57, 94
1, 100261, Note_on_c, 0, 80, 0
1, 100272, Note_on_c, 0, 81, 94
1, 100309, Note_on_c, 0, 81, 0
1, 100320, Note_on_c, 0, 77, 94
1, 100357, Note_on_c, 0, 77, 0
1, 100368, Note_on_c, 0, 74, 94
1, 100376, Note_on_c, 0, 62, 0
1, 100376, Note_on_c, 1, 57, 0
1, 100376, Note_on_c, 1, 53, 0
1, 100405, Note_on_c, 0, 74, 0
1, 100416, Note_on_c, 0, 65, 94
1, 100416, Note_on_c, 0, 62, 94
1, 100416, Note_on_c, 0, 76, 94
1, 100416, Note_on_c, 1, 55, 94
1, 100453, Note_on_c, 0, 76, 0
1, 100464, Note_on_c, 0, 77, 94
1, 100501, Note_on_c, 0, 77, 0
1, 100512, Note_on_c, 0, 74, 94
1, 100549, Note_on_c, 0, 74, 0
1, 100560, Note_on_c, 0, 71, 94
1, 100568, Note_on_c, 0, 62, 0
1, 100568, Note_on_c, 0, 65, 0
1, 100568, Note_on_c, 1, 55, 0
1, 100597, Note_on_c, 0, 71, 0
1, 100608, Note_on_c, 0, 60, 94
1, 100608, Note_on_c, 0, 64, 94
1, 100608, Note_on_c, 0, 72, 94
1, 100645, Note_on_c, 0, 72, 0
1, 100656, Note_on_c, 0, 71, 94
1, 100684, Note_on_c, 0, 64, 0
1, 100684, Note_on_c, 0, 60, 0
1, 100693, Note_on_c, 0, 71, 0
1, 100704, Note_on_c, 0, 72, 94
1, 100741, Note_on_c, 0, 72, 0
1, 100752, Note_on_c, 0, 71, 94
1, 100789, Note_on_c, 0, 71, 0
1, 100800, Note_on_c, 0, 72, 94
1, 100800, Note_on_c, 1, 36, 94
1, 100837, Note_on_c, 0, 72, 0
1, 100837, Note_on_c, 1, 36, 0
1, 100848, Note_on_c, 0, 67, 94
1, 100848, Note_on_c, 1, 48, 94
1, 100885, Note_on_c, 0, 67, 0
1, 100885, Note_on_c, 1, 48, 0
1, 100896, Note_on_c, 0, 64, 94
1, 100896, Note_on_c, 1, 47, 94
1, 100933, Note_on_c, 0, 64, 0
1, 100933, Note_on_c, 1, 47, 0
1, 100944, Note_on_c, 0, 60, 94
1, 100944, Note_on_c, 1, 48, 94
1, 100981, Note_on_c, 0, 60, 0
1, 100981, Note_on_c, 1, 48, 0
1, 100992, Note_on_c, 0, 62, 94
1, 100992, Note_on_c, 1, 47, 94
1, 101029, Note_on_c, 0, 62, 0
1, 101040, Note_on_c, 0, 73, 94
1, 101068, Note_on_c, 1, 47, 0
1, 101077, Note_on_c, 0, 73, 0
1, 101088, Note_on_c, 0, 74, 94
1, 101125, Note_on_c, 0, 74, 0
1, 101136, Note_on_c, 0, 73, 94
1, 101173, Note_on_c, 0, 73, 0
1, 101184, Note_on_c, 0, 74, 94
1, 101184, Note_on_c, 1, 47, 94
1, 101221, Note_on_c, 0, 74, 0
1, 101221, Note_on_c, 1, 47, 0
1, 101232, Note_on_c, 0, 71, 94
1, 101232, Note_on_c, 1, 59, 94
1, 101269, Note_on_c, 0, 71, 0
1, 101269, Note_on_c, 1, 59, 0
1, 101280, Note_on_c, 0, 67, 94
1, 101280, Note_on_c, 1, 57, 94
1, 101317, Note_on_c, 0, 67, 0
1, 101317, Note_on_c, 1, 57, 0
1, 101328, Note_on_c, 0, 62, 94
1, 101328, Note_on_c, 1, 59, 94
1, 101365, Note_on_c, 0, 62, 0
1, 101365, Note_on_c, 1, 59, 0
1, 101376, Note_on_c, 0, 60, 94
1, 101376, Note_on_c, 0, 64, 94
1, 101413, Note_on_c, 0, 64, 0
1, 101424, Note_on_c, 0, 75, 94
1, 101452, Note_on_c, 0, 60, 0
1, 101461, Note_on_c, 0, 75, 0
1, 101472, Note_on_c, 0, 76, 94
1, 101509, Note_on_c, 0, 76, 0
1, 101520, Note_on_c, 0, 75, 94
1, 101557, Note_on_c, 0, 75, 0
1, 101568, Note_on_c, 0, 76, 94
1, 101568, Note_on_c, 1, 36, 94
1, 101605, Note_on_c, 0, 76, 0
1, 101605, Note_on_c, 1, 36, 0
1, 101616, Note_on_c, 0, 72, 94
1, 101616, Note_on_c, 1, 48, 94
1, 101653, Note_on_c, 0, 72, 0
1, 101653, Note_on_c, 1, 48, 0
1, 101664, Note_on_c, 0, 67, 94
1, 101664, Note_on_c, 1, 47, 94
1, 101701, Note_on_c, 0, 67, 0
1, 101701, Note_on_c, 1, 47, 0
1, 101712, Note_on_c, 0, 64, 94
1, 101712, Note_on_c, 1, 48, 94
1, 101749, Note_on_c, 0, 64, 0
1, 101749, Note_on_c, 1, 48, 0
1, 101760, Note_on_c, 0, 68, 94
1, 101760, Note_on_c, 1, 45, 94
1, 101760, Note_on_c, 1, 50, 94
1, 101760, Note_on_c, 1, 41, 94
1, 101797, Note_on_c, 0, 68, 0
1, 101808, Note_on_c, 0, 69, 94
1, 101845, Note_on_c, 0, 69, 0
1, 101856, Note_on_c, 0, 65, 94
1, 101893, Note_on_c, 0, 65, 0
1, 101904, Note_on_c, 0, 62, 94
1, 101912, Note_on_c, 1, 41, 0
1, 101912, Note_on_c, 1, 50, 0
1, 101912, Note_on_c, 1, 45, 0
1, 101941, Note_on_c, 0, 62, 0
1, 101952, Note_on_c, 0, 64, 94
1, 101952, Note_on_c, 1, 53, 94
1, 101952, Note_on_c, 1, 50, 94
1, 101952, Note_on_c, 1, 43, 94
1, 101989, Note_on_c, 0, 64, 0
1, 102000, Note_on_c, 0, 65, 94
1, 102037, Note_on_c, 0, 65, 0
1, 102048, Note_on_c, 0, 62, 94
1, 102085, Note_on_c, 0, 62, 0
1, 102096, Note_on_c, 1, 59, 94
1, 102104, Note_on_c, 1, 43, 0
1, 102104, Note_on_c, 1, 50, 0
1, 102104, Note_on_c, 1, 53, 0
1, 102133, Note_on_c, 1, 59, 0
1, 102144, Note_on_c, 0, 60, 94
1, 102144, Note_on_c, 1, 52, 94
1, 102144, Note_on_c, 1, 48, 94
1, 102181, Note_on_c, 0, 60, 0
1, 102192, Note_on_c, 0, 72, 94
1, 102229, Note_on_c, 0, 72, 0
1, 102240, Note_on_c, 0, 76, 94
1, 102277, Note_on_c, 0, 76, 0
1, 102288, Note_on_c, 0, 74, 94
1, 102296, Note_on_c, 1, 48, 0
1, 102296, Note_on_c, 1, 52, 0
1, 102325, Note_on_c, 0, 74, 0
1, 102336, Note_on_c, 0, 72, 94
1, 102373, Note_on_c, 0, 72, 0
1, 102384, Note_on_c, 0, 71, 94
1, 102421, Note_on_c, 0, 71, 0
1, 102432, Note_on_c, 0, 69, 94
1, 102469, Note_on_c, 0, 69, 0
1, 102480, Note_on_c, 0, 67, 94
1, 102517, Note_on_c, 0, 67, 0
1, 102528, Note_on_c, 0, 65, 94
1, 102565, Note_on_c, 0, 65, 0
1, 102576, Note_on_c, 0, 64, 94
1, 102613, Note_on_c, 0, 64, 0
1, 102624, Note_on_c, 0, 62, 94
1, 102661, Note_on_c, 0, 62, 0
1, 102672, Note_on_c, 0, 60, 94
1, 102709, Note_on_c, 0, 60, 0
1, 102720, Note_on_c, 1, 59, 94
1, 102757, Note_on_c, 1, 59, 0
1, 102768, Note_on_c, 1, 57, 94
1, 102805, Note_on_c, 1, 57, 0
1, 102816, Note_on_c, 1, 55, 94
1, 102853, Note_on_c, 1, 55, 0
1, 102864, Note_on_c, 1, 54, 94
1, 102901, Note_on_c, 1, 54, 0
1, 102912, Note_on_c, 1, 53, 94
1, 103104, Note_on_c, 1, 38, 94
1, 103104, Note_on_c, 1, 50, 94
1, 103256, Note_on_c, 1, 50, 0
1, 103256, Note_on_c, 1, 38, 0
1, 103296, Note_on_c, 1, 35, 94
1, 103296, Note_on_c, 1, 47, 94
1, 103333, Note_on_c, 1, 53, 0
1, 103344, Note_on_c, 1, 55, 94
1, 103381, Note_on_c, 1, 55, 0
1, 103392, Note_on_c, 1, 57, 94
1, 103429, Note_on_c, 1, 57, 0
1, 103440, Note_on_c, 1, 55, 94
1, 103448, Note_on_c, 1, 35, 0
1, 103448, Note_on_c, 1, 47, 0
1, 103476, Note_on_c, 1, 59, 94
1, 103477, Note_on_c, 1, 55, 0
1, 103488, Note_on_c, 1, 59, 0
1, 103488, Note_on_c, 1, 57, 94
1, 103488, Note_on_c, 1, 31, 94
1, 103488, Note_on_c, 1, 43, 94
1, 103564, Note_on_c, 1, 57, 0
1, 103584, Note_on_c, 1, 55, 94
1, 103621, Note_on_c, 1, 55, 0
1, 103632, Note_on_c, 1, 53, 94
1, 103640, Note_on_c, 1, 31, 0
1, 103640, Note_on_c, 1, 43, 0
1, 103669, Note_on_c, 1, 53, 0
1, 103680, Note_on_c, 1, 36, 94
1, 103680, Note_on_c, 1, 50, 94
1, 103680, Note_on_c, 1, 53, 94
1, 103717, Note_on_c, 1, 36, 0
1, 103728, Note_on_c, 1, 48, 94
1, 103765, Note_on_c, 1, 48, 0
1, 103776, Note_on_c, 1, 47, 94
1, 103813, Note_on_c, 1, 47, 0
1, 103824, Note_on_c, 1, 48, 94
1, 103861, Note_on_c, 1, 48, 0
1, 103872, Note_on_c, 1, 47, 94
1, 103909, Note_on_c, 1, 47, 0
1, 103920, Note_on_c, 1, 48, 94
1, 103957, Note_on_c, 1, 48, 0
1, 103968, Note_on_c, 1, 47, 94
1, 103985, Note_on_c, 1, 50, 0
1, 103985, Note_on_c, 1, 53, 0
1, 104005, Note_on_c, 1, 47, 0
1, 104016, Note_on_c, 1, 48, 94
1, 104053, Note_on_c, 1, 48, 0
1, 104064, Note_on_c, 1, 36, 94
1, 104064, Note_on_c, 1, 48, 94
1, 104064, Note_on_c, 1, 52, 94
1, 104101, Note_on_c, 1, 52, 0
1, 104101, Note_on_c, 1, 48, 0
1, 104112, Note_on_c, 0, 60, 94
1, 104149, Note_on_c, 0, 60, 0
1, 104160, Note_on_c, 1, 59, 94
1, 104197, Note_on_c, 1, 59, 0
1, 104208, Note_on_c, 0, 60, 94
1, 104216, Note_on_c, 1, 36, 0
1, 104245, Note_on_c, 0, 60, 0
1, 104256, Note_on_c, 1, 55, 94
1, 104293, Note_on_c, 1, 55, 0
1, 104304, Note_on_c, 0, 67, 94
1, 104341, Note_on_c, 0, 67, 0
1, 104352, Note_on_c, 0, 66, 94
1, 104389, Note_on_c, 0, 66, 0
1, 104400, Note_on_c, 0, 67, 94
1, 104437, Note_on_c, 0, 67, 0
1, 104448, Note_on_c, 0, 64, 52
1, 104485, Note_on_c, 0, 64, 0
1, 104496, Note_on_c, 0, 72, 52
1, 104533, Note_on_c, 0, 72, 0
1, 104544, Note_on_c, 0, 71, 52
1, 104581, Note_on_c, 0, 71, 0
1, 104592, Note_on_c, 0, 72, 52
1, 104629, Note_on_c, 0, 72, 0
1, 104640, Note_on_c, 0, 67, 52
1, 104677, Note_on_c, 0, 67, 0
1, 104688, Note_on_c, 0, 76, 52
1, 104725, Note_on_c, 0, 76, 0
1, 104736, Note_on_c, 0, 74, 52
1, 104773, Note_on_c, 0, 74, 0
1, 104784, Note_on_c, 0, 76, 52
1, 104821, Note_on_c, 0, 76, 0
1, 104832, Note_on_c, 0, 72, 52
1, 104869, Note_on_c, 0, 72, 0
1, 104880, Note_on_c, 0, 72, 52
1, 104917, Note_on_c, 0, 72, 0
1, 104928, Note_on_c, 0, 71, 52
1, 104965, Note_on_c, 0, 71, 0
1, 104976, Note_on_c, 0, 72, 52
1, 105013, Note_on_c, 0, 72, 0
1, 105024, Note_on_c, 0, 76, 52
1, 105061, Note_on_c, 0, 76, 0
1, 105072, Note_on_c, 0, 72, 52
1, 105109, Note_on_c, 0, 72, 0
1, 105120, Note_on_c, 0, 79, 52
1, 105157, Note_on_c, 0, 79, 0
1, 105168, Note_on_c, 0, 76, 52
1, 105205, Note_on_c, 0, 76, 0
1, 105216, Note_on_c, 0, 84, 94
1, 105216, Note_on_c, 1, 48, 94
1, 105253, Note_on_c, 1, 48, 0
1, 105264, Note_on_c, 0, 60, 94
1, 105301, Note_on_c, 0, 60, 0
1, 105312, Note_on_c, 0, 64, 94
1, 105349, Note_on_c, 0, 64, 0
1, 105360, Note_on_c, 0, 60, 94
1, 105368, Note_on_c, 0, 84, 0
1, 105397, Note_on_c, 0, 60, 0
1, 105408, Note_on_c, 0, 76, 94
1, 105408, Note_on_c, 0, 79, 94
1, 105408, Note_on_c, 0, 84, 94
1, 105408, Note_on_c, 1, 55, 94
1, 105445, Note_on_c, 1, 55, 0
1, 105456, Note_on_c, 0, 60, 94
1, 105493, Note_on_c, 0, 60, 0
1, 105504, Note_on_c, 1, 52, 94
1, 105541, Note_on_c, 1, 52, 0
1, 105552, Note_on_c, 1, 55, 94
1, 105560, Note_on_c, 0, 84, 0
1, 105560, Note_on_c, 0, 79, 0
1, 105560, Note_on_c, 0, 76, 0
1, 105589, Note_on_c, 1, 55, 0
1, 105600, Note_on_c, 0, 76, 94
1, 105600, Note_on_c, 0, 79, 94
1, 105600, Note_on_c, 0, 84, 94
1, 105600, Note_on_c, 1, 48, 94
1, 105752, Note_on_c, 0, 84, 0
1, 105752, Note_on_c, 0, 79, 0
1, 105752, Note_on_c, 0, 76, 0
1, 105752, Note_on_c, 1, 48, 0
1, 105762, End_track
0, 0, End_of_file