0, 0, Header, 0, 1, 192
1, 0, Start_track
1, 0, Tempo, 1333333
1, 0, Note_on_c, 0, 70, 80
1, 0, Note_on_c, 0, 51, 80
1, 38, Note_on_c, 0, 51, 0
1, 48, Note_on_c, 0, 55, 80
1, 86, Note_on_c, 0, 55, 0
1, 96, Note_on_c, 0, 58, 80
1, 134, Note_on_c, 0, 58, 0
1, 144, Note_on_c, 0, 55, 80
1, 153, Note_on_c, 0, 70, 0
1, 182, Note_on_c, 0, 55, 0
1, 192, Note_on_c, 0, 67, 80
1, 192, Note_on_c, 0, 51, 80
1, 230, Note_on_c, 0, 51, 0
1, 240, Note_on_c, 0, 55, 80
1, 268, Note_on_c, 0, 67, 0
1, 278, Note_on_c, 0, 55, 0
1, 288, Note_on_c, 0, 67, 80
1, 288, Note_on_c, 0, 58, 80
1, 326, Note_on_c, 0, 58, 0
1, 336, Note_on_c, 0, 55, 80
1, 364, Note_on_c, 0, 67, 0
1, 374, Note_on_c, 0, 55, 0
1, 384, Note_on_c, 0, 67, 80
1, 384, Note_on_c, 0, 46, 80
1, 384, Note_on_c, 0, 63, 80
1, 422, Note_on_c, 0, 46, 0
1, 432, Note_on_c, 0, 51, 80
1, 470, Note_on_c, 0, 51, 0
1, 480, Note_on_c, 0, 55, 80
1, 518, Note_on_c, 0, 67, 0
1, 518, Note_on_c, 0, 63, 0
1, 518, Note_on_c, 0, 55, 0
1, 528, Note_on_c, 0, 51, 80
1, 552, Note_on_c, 0, 68, 80
1, 566, Note_on_c, 0, 51, 0
1, 571, Note_on_c, 0, 68, 0
1, 576, Note_on_c, 0, 46, 80
1, 576, Note_on_c, 0, 62, 80
1, 576, Note_on_c, 0, 65, 80
1, 614, Note_on_c, 0, 46, 0
1, 624, Note_on_c, 0, 50, 80
1, 652, Note_on_c, 0, 62, 0
1, 652, Note_on_c, 0, 65, 0
1, 662, Note_on_c, 0, 50, 0
1, 672, Note_on_c, 0, 53, 80
1, 710, Note_on_c, 0, 53, 0
1, 720, Note_on_c, 0, 50, 80
1, 758, Note_on_c, 0, 50, 0
1, 768, Note_on_c, 0, 63, 80
1, 768, Note_on_c, 0, 55, 80
1, 768, Note_on_c, 0, 51, 80
1, 806, Note_on_c, 0, 55, 0
1, 816, Note_on_c, 0, 58, 80
1, 854, Note_on_c, 0, 58, 0
1, 864, Note_on_c, 0, 55, 80
1, 902, Note_on_c, 0, 55, 0
1, 912, Note_on_c, 0, 58, 80
1, 921, Note_on_c, 0, 63, 0
1, 921, Note_on_c, 0, 51, 0
1, 950, Note_on_c, 0, 58, 0
1, 960, Note_on_c, 0, 46, 80
1, 960, Note_on_c, 0, 62, 80
1, 960, Note_on_c, 0, 65, 80
1, 998, Note_on_c, 0, 62, 0
1, 1008, Note_on_c, 0, 58, 80
1, 1046, Note_on_c, 0, 58, 0
1, 1056, Note_on_c, 0, 62, 80
1, 1094, Note_on_c, 0, 62, 0
1, 1104, Note_on_c, 0, 58, 80
1, 1113, Note_on_c, 0, 46, 0
1, 1113, Note_on_c, 0, 65, 0
1, 1142, Note_on_c, 0, 58, 0
1, 1152, Note_on_c, 0, 67, 80
1, 1152, Note_on_c, 0, 39, 80
1, 1209, Note_on_c, 0, 67, 0
1, 1224, Note_on_c, 0, 68, 80
1, 1229, Note_on_c, 0, 67, 80
1, 1229, Note_on_c, 0, 65, 80
1, 1236, Note_on_c, 0, 65, 0
1, 1236, Note_on_c, 0, 67, 0
1, 1236, Note_on_c, 0, 67, 80
1, 1242, Note_on_c, 0, 67, 0
1, 1243, Note_on_c, 0, 68, 0
1, 1248, Note_on_c, 0, 68, 80
1, 1267, Note_on_c, 0, 68, 0
1, 1272, Note_on_c, 0, 70, 80
1, 1295, Note_on_c, 0, 70, 0
1, 1296, Note_on_c, 0, 72, 80
1, 1305, Note_on_c, 0, 39, 0
1, 1319, Note_on_c, 0, 72, 0
1, 1320, Note_on_c, 0, 74, 80
1, 1343, Note_on_c, 0, 74, 0
1, 1344, Note_on_c, 0, 75, 80
1, 1367, Note_on_c, 0, 75, 0
1, 1368, Note_on_c, 0, 70, 80
1, 1391, Note_on_c, 0, 70, 0
1, 1440, Note_on_c, 0, 79, 80
1, 1440, Note_on_c, 0, 75, 80
1, 1485, Note_on_c, 0, 75, 0
1, 1485, Note_on_c, 0, 79, 0
1, 1488, Note_on_c, 0, 74, 80
1, 1488, Note_on_c, 0, 77, 80
1, 1533, Note_on_c, 0, 77, 0
1, 1533, Note_on_c, 0, 74, 0
1, 1536, Note_on_c, 0, 72, 80
1, 1536, Note_on_c, 0, 75, 80
1, 1574, Note_on_c, 0, 75, 0
1, 1574, Note_on_c, 0, 72, 0
1, 1584, Note_on_c, 0, 74, 80
1, 1584, Note_on_c, 0, 70, 80
1, 1622, Note_on_c, 0, 70, 0
1, 1622, Note_on_c, 0, 74, 0
1, 1632, Note_on_c, 0, 50, 80
1, 1632, Note_on_c, 0, 68, 80
1, 1632, Note_on_c, 0, 72, 80
1, 1670, Note_on_c, 0, 72, 0
1, 1670, Note_on_c, 0, 68, 0
1, 1670, Note_on_c, 0, 50, 0
1, 1680, Note_on_c, 0, 51, 80
1, 1680, Note_on_c, 0, 70, 80
1, 1680, Note_on_c, 0, 67, 80
1, 1718, Note_on_c, 0, 67, 0
1, 1718, Note_on_c, 0, 70, 0
1, 1718, Note_on_c, 0, 51, 0
1, 1728, Note_on_c, 0, 68, 80
1, 1728, Note_on_c, 0, 65, 80
1, 1728, Note_on_c, 0, 53, 80
1, 1766, Note_on_c, 0, 53, 0
1, 1766, Note_on_c, 0, 65, 0
1, 1766, Note_on_c, 0, 68, 0
1, 1776, Note_on_c, 0, 63, 80
1, 1776, Note_on_c, 0, 55, 80
1, 1776, Note_on_c, 0, 67, 80
1, 1814, Note_on_c, 0, 67, 0
1, 1814, Note_on_c, 0, 55, 0
1, 1814, Note_on_c, 0, 63, 0
1, 1824, Note_on_c, 0, 56, 80
1, 1824, Note_on_c, 0, 72, 80
1, 1824, Note_on_c, 0, 68, 80
1, 1862, Note_on_c, 0, 68, 0
1, 1862, Note_on_c, 0, 72, 0
1, 1862, Note_on_c, 0, 56, 0
1, 1872, Note_on_c, 0, 68, 80
1, 1872, Note_on_c, 0, 65, 80
1, 1872, Note_on_c, 0, 53, 80
1, 1910, Note_on_c, 0, 53, 0
1, 1910, Note_on_c, 0, 65, 0
1, 1910, Note_on_c, 0, 68, 0
1, 1920, Note_on_c, 0, 63, 80
1, 1920, Note_on_c, 0, 57, 80
1, 1920, Note_on_c, 0, 67, 80
1, 1958, Note_on_c, 0, 57, 0
1, 1968, Note_on_c, 0, 58, 80
1, 2006, Note_on_c, 0, 58, 0
1, 2016, Note_on_c, 0, 55, 80
1, 2054, Note_on_c, 0, 55, 0
1, 2064, Note_on_c, 0, 51, 80
1, 2073, Note_on_c, 0, 63, 0
1, 2073, Note_on_c, 0, 67, 0
1, 2102, Note_on_c, 0, 51, 0
1, 2112, Note_on_c, 0, 46, 80
1, 2112, Note_on_c, 0, 62, 80
1, 2112, Note_on_c, 0, 65, 80
1, 2150, Note_on_c, 0, 65, 0
1, 2150, Note_on_c, 0, 62, 0
1, 2160, Note_on_c, 0, 67, 80
1, 2188, Note_on_c, 0, 46, 0
1, 2198, Note_on_c, 0, 67, 0
1, 2208, Note_on_c, 0, 68, 80
1, 2246, Note_on_c, 0, 68, 0
1, 2256, Note_on_c, 0, 69, 80
1, 2294, Note_on_c, 0, 69, 0
1, 2304, Note_on_c, 0, 51, 80
1, 2304, Note_on_c, 0, 70, 80
1, 2342, Note_on_c, 0, 51, 0
1, 2352, Note_on_c, 0, 55, 80
1, 2390, Note_on_c, 0, 55, 0
1, 2400, Note_on_c, 0, 58, 80
1, 2419, Note_on_c, 0, 70, 0
1, 2424, Note_on_c, 0, 74, 80
1, 2438, Note_on_c, 0, 58, 0
1, 2443, Note_on_c, 0, 74, 0
1, 2448, Note_on_c, 0, 55, 80
1, 2448, Note_on_c, 0, 75, 80
1, 2467, Note_on_c, 0, 75, 0
1, 2472, Note_on_c, 0, 70, 80
1, 2486, Note_on_c, 0, 55, 0
1, 2491, Note_on_c, 0, 70, 0
1, 2496, Note_on_c, 0, 51, 80
1, 2496, Note_on_c, 0, 67, 80
1, 2534, Note_on_c, 0, 67, 0
1, 2534, Note_on_c, 0, 51, 0
1, 2544, Note_on_c, 0, 67, 80
1, 2544, Note_on_c, 0, 55, 80
1, 2582, Note_on_c, 0, 55, 0
1, 2582, Note_on_c, 0, 67, 0
1, 2592, Note_on_c, 0, 58, 80
1, 2592, Note_on_c, 0, 67, 80
1, 2630, Note_on_c, 0, 67, 0
1, 2630, Note_on_c, 0, 58, 0
1, 2640, Note_on_c, 0, 55, 80
1, 2640, Note_on_c, 0, 67, 80
1, 2678, Note_on_c, 0, 67, 0
1, 2678, Note_on_c, 0, 55, 0
1, 2688, Note_on_c, 0, 63, 80
1, 2688, Note_on_c, 0, 67, 80
1, 2688, Note_on_c, 0, 46, 80
1, 2726, Note_on_c, 0, 46, 0
1, 2736, Note_on_c, 0, 51, 80
1, 2774, Note_on_c, 0, 51, 0
1, 2784, Note_on_c, 0, 55, 80
1, 2822, Note_on_c, 0, 67, 0
1, 2822, Note_on_c, 0, 63, 0
1, 2822, Note_on_c, 0, 55, 0
1, 2832, Note_on_c, 0, 68, 80
1, 2832, Note_on_c, 0, 67, 80
1, 2832, Note_on_c, 0, 51, 80
1, 2837, Note_on_c, 0, 65, 80
1, 2838, Note_on_c, 0, 67, 0
1, 2838, Note_on_c, 0, 68, 0
1, 2844, Note_on_c, 0, 65, 0
1, 2844, Note_on_c, 0, 67, 80
1, 2850, Note_on_c, 0, 67, 0
1, 2856, Note_on_c, 0, 68, 80
1, 2870, Note_on_c, 0, 51, 0
1, 2875, Note_on_c, 0, 68, 0
1, 2880, Note_on_c, 0, 62, 80
1, 2880, Note_on_c, 0, 65, 80
1, 2880, Note_on_c, 0, 46, 80
1, 2918, Note_on_c, 0, 46, 0
1, 2928, Note_on_c, 0, 50, 80
1, 2956, Note_on_c, 0, 65, 0
1, 2956, Note_on_c, 0, 62, 0
1, 2966, Note_on_c, 0, 50, 0
1, 2976, Note_on_c, 0, 53, 80
1, 3000, Note_on_c, 0, 70, 80
1, 3014, Note_on_c, 0, 53, 0
1, 3019, Note_on_c, 0, 70, 0
1, 3024, Note_on_c, 0, 50, 80
1, 3024, Note_on_c, 0, 68, 80
1, 3043, Note_on_c, 0, 68, 0
1, 3048, Note_on_c, 0, 65, 80
1, 3062, Note_on_c, 0, 50, 0
1, 3067, Note_on_c, 0, 65, 0
1, 3072, Note_on_c, 0, 51, 80
1, 3072, Note_on_c, 0, 63, 80
1, 3120, Note_on_c, 0, 55, 80
1, 3158, Note_on_c, 0, 55, 0
1, 3168, Note_on_c, 0, 58, 80
1, 3206, Note_on_c, 0, 58, 0
1, 3216, Note_on_c, 0, 55, 80
1, 3225, Note_on_c, 0, 63, 0
1, 3225, Note_on_c, 0, 51, 0
1, 3254, Note_on_c, 0, 55, 0
1, 3264, Note_on_c, 0, 46, 80
1, 3264, Note_on_c, 0, 65, 80
1, 3312, Note_on_c, 0, 58, 80
1, 3350, Note_on_c, 0, 58, 0
1, 3360, Note_on_c, 0, 62, 80
1, 3398, Note_on_c, 0, 62, 0
1, 3408, Note_on_c, 0, 58, 80
1, 3417, Note_on_c, 0, 65, 0
1, 3417, Note_on_c, 0, 46, 0
1, 3446, Note_on_c, 0, 58, 0
1, 3456, Note_on_c, 0, 67, 80
1, 3456, Note_on_c, 0, 39, 80
1, 3504, Note_on_c, 0, 68, 80
1, 3504, Note_on_c, 0, 67, 80
1, 3509, Note_on_c, 0, 65, 80
1, 3510, Note_on_c, 0, 68, 0
1, 3510, Note_on_c, 0, 67, 0
1, 3513, Note_on_c, 0, 67, 0
1, 3516, Note_on_c, 0, 65, 0
1, 3516, Note_on_c, 0, 67, 80
1, 3522, Note_on_c, 0, 67, 0
1, 3528, Note_on_c, 0, 68, 80
1, 3547, Note_on_c, 0, 68, 0
1, 3552, Note_on_c, 0, 70, 80
1, 3571, Note_on_c, 0, 70, 0
1, 3576, Note_on_c, 0, 72, 80
1, 3595, Note_on_c, 0, 72, 0
1, 3600, Note_on_c, 0, 74, 80
1, 3609, Note_on_c, 0, 39, 0
1, 3619, Note_on_c, 0, 74, 0
1, 3624, Note_on_c, 0, 75, 80
1, 3643, Note_on_c, 0, 75, 0
1, 3648, Note_on_c, 0, 70, 80
1, 3686, Note_on_c, 0, 70, 0
1, 3744, Note_on_c, 0, 75, 80
1, 3763, Note_on_c, 0, 75, 0
1, 3768, Note_on_c, 0, 74, 80
1, 3787, Note_on_c, 0, 74, 0
1, 3792, Note_on_c, 0, 73, 80
1, 3811, Note_on_c, 0, 73, 0
1, 3816, Note_on_c, 0, 72, 80
1, 3835, Note_on_c, 0, 72, 0
1, 3840, Note_on_c, 0, 71, 80
1, 3878, Note_on_c, 0, 71, 0
1, 3888, Note_on_c, 0, 63, 80
1, 3888, Note_on_c, 0, 55, 80
1, 3926, Note_on_c, 0, 55, 0
1, 3926, Note_on_c, 0, 63, 0
1, 3936, Note_on_c, 0, 75, 80
1, 3955, Note_on_c, 0, 75, 0
1, 3960, Note_on_c, 0, 74, 80
1, 3979, Note_on_c, 0, 74, 0
1, 3984, Note_on_c, 0, 73, 80
1, 4003, Note_on_c, 0, 73, 0
1, 4008, Note_on_c, 0, 72, 80
1, 4027, Note_on_c, 0, 72, 0
1, 4032, Note_on_c, 0, 71, 80
1, 4070, Note_on_c, 0, 71, 0
1, 4080, Note_on_c, 0, 55, 80
1, 4080, Note_on_c, 0, 63, 80
1, 4118, Note_on_c, 0, 63, 0
1, 4118, Note_on_c, 0, 55, 0
1, 4128, Note_on_c, 0, 75, 80
1, 4147, Note_on_c, 0, 75, 0
1, 4152, Note_on_c, 0, 74, 80
1, 4171, Note_on_c, 0, 74, 0
1, 4176, Note_on_c, 0, 73, 80
1, 4195, Note_on_c, 0, 73, 0
1, 4200, Note_on_c, 0, 72, 80
1, 4219, Note_on_c, 0, 72, 0
1, 4224, Note_on_c, 0, 63, 80
1, 4224, Note_on_c, 0, 55, 80
1, 4224, Note_on_c, 0, 71, 80
1, 4377, Note_on_c, 0, 71, 0
1, 4377, Note_on_c, 0, 55, 0
1, 4416, Note_on_c, 0, 72, 80
1, 4416, Note_on_c, 0, 56, 80
1, 4454, Note_on_c, 0, 56, 0
1, 4454, Note_on_c, 0, 63, 0
1, 4454, Note_on_c, 0, 72, 0
1, 4512, Note_on_c, 0, 65, 80
1, 4531, Note_on_c, 0, 65, 0
1, 4536, Note_on_c, 0, 67, 80
1, 4555, Note_on_c, 0, 67, 0
1, 4560, Note_on_c, 0, 68, 80
1, 4579, Note_on_c, 0, 68, 0
1, 4584, Note_on_c, 0, 69, 80
1, 4603, Note_on_c, 0, 69, 0
1, 4608, Note_on_c, 0, 70, 80
1, 4704, Note_on_c, 0, 43, 80
1, 4704, Note_on_c, 0, 51, 80
1, 4723, Note_on_c, 0, 70, 0
1, 4728, Note_on_c, 0, 72, 80
1, 4747, Note_on_c, 0, 72, 0
1, 4752, Note_on_c, 0, 74, 80
1, 4771, Note_on_c, 0, 74, 0
1, 4776, Note_on_c, 0, 75, 80
1, 4780, Note_on_c, 0, 43, 0
1, 4780, Note_on_c, 0, 51, 0
1, 4795, Note_on_c, 0, 75, 0
1, 4800, Note_on_c, 0, 63, 80
1, 4800, Note_on_c, 0, 58, 80
1, 4800, Note_on_c, 0, 55, 80
1, 4800, Note_on_c, 0, 46, 80
1, 4876, Note_on_c, 0, 46, 0
1, 4876, Note_on_c, 0, 55, 0
1, 4896, Note_on_c, 0, 56, 80
1, 4915, Note_on_c, 0, 58, 0
1, 4915, Note_on_c, 0, 63, 0
1, 4944, Note_on_c, 0, 67, 80
1, 4944, Note_on_c, 0, 62, 80
1, 4963, Note_on_c, 0, 62, 0
1, 4963, Note_on_c, 0, 67, 0
1, 4968, Note_on_c, 0, 65, 80
1, 4972, Note_on_c, 0, 56, 0
1, 4987, Note_on_c, 0, 65, 0
1, 4992, Note_on_c, 0, 51, 80
1, 4992, Note_on_c, 0, 55, 80
1, 4992, Note_on_c, 0, 63, 80
1, 5068, Note_on_c, 0, 63, 0
1, 5068, Note_on_c, 0, 55, 0
1, 5068, Note_on_c, 0, 51, 0
1, 5088, Note_on_c, 0, 51, 80
1, 5088, Note_on_c, 0, 55, 80
1, 5088, Note_on_c, 0, 63, 80
1, 5164, Note_on_c, 0, 63, 0
1, 5164, Note_on_c, 0, 55, 0
1, 5164, Note_on_c, 0, 51, 0
1, 5376, Note_on_c, 0, 74, 80
1, 5376, Note_on_c, 0, 58, 80
1, 5376, Note_on_c, 0, 77, 80
1, 5414, Note_on_c, 0, 77, 0
1, 5414, Note_on_c, 0, 74, 0
1, 5424, Note_on_c, 0, 65, 80
1, 5462, Note_on_c, 0, 65, 0
1, 5472, Note_on_c, 0, 74, 80
1, 5510, Note_on_c, 0, 74, 0
1, 5520, Note_on_c, 0, 65, 80
1, 5558, Note_on_c, 0, 65, 0
1, 5568, Note_on_c, 0, 70, 80
1, 5568, Note_on_c, 0, 74, 80
1, 5606, Note_on_c, 0, 74, 0
1, 5606, Note_on_c, 0, 70, 0
1, 5616, Note_on_c, 0, 65, 80
1, 5654, Note_on_c, 0, 65, 0
1, 5664, Note_on_c, 0, 70, 80
1, 5683, Note_on_c, 0, 58, 0
1, 5702, Note_on_c, 0, 70, 0
1, 5712, Note_on_c, 0, 65, 80
1, 5750, Note_on_c, 0, 65, 0
1, 5760, Note_on_c, 0, 74, 80
1, 5760, Note_on_c, 0, 53, 80
1, 5760, Note_on_c, 0, 77, 80
1, 5760, Note_on_c, 0, 41, 80
1, 5875, Note_on_c, 0, 77, 0
1, 5875, Note_on_c, 0, 74, 0
1, 5880, Note_on_c, 0, 76, 80
1, 5880, Note_on_c, 0, 73, 80
1, 5899, Note_on_c, 0, 73, 0
1, 5899, Note_on_c, 0, 76, 0
1, 5904, Note_on_c, 0, 72, 80
1, 5904, Note_on_c, 0, 75, 80
1, 5923, Note_on_c, 0, 75, 0
1, 5923, Note_on_c, 0, 72, 0
1, 5928, Note_on_c, 0, 74, 80
1, 5928, Note_on_c, 0, 70, 80
1, 5947, Note_on_c, 0, 70, 0
1, 5947, Note_on_c, 0, 74, 0
1, 5952, Note_on_c, 0, 69, 80
1, 5952, Note_on_c, 0, 72, 80
1, 5990, Note_on_c, 0, 72, 0
1, 5990, Note_on_c, 0, 53, 0
1, 5990, Note_on_c, 0, 41, 0
1, 5990, Note_on_c, 0, 69, 0
1, 6048, Note_on_c, 0, 74, 80
1, 6048, Note_on_c, 0, 78, 80
1, 6067, Note_on_c, 0, 78, 0
1, 6067, Note_on_c, 0, 74, 0
1, 6072, Note_on_c, 0, 75, 80
1, 6072, Note_on_c, 0, 79, 80
1, 6091, Note_on_c, 0, 79, 0
1, 6091, Note_on_c, 0, 75, 0
1, 6096, Note_on_c, 0, 74, 80
1, 6096, Note_on_c, 0, 78, 80
1, 6115, Note_on_c, 0, 78, 0
1, 6115, Note_on_c, 0, 74, 0
1, 6120, Note_on_c, 0, 75, 80
1, 6120, Note_on_c, 0, 79, 80
1, 6139, Note_on_c, 0, 79, 0
1, 6139, Note_on_c, 0, 75, 0
1, 6144, Note_on_c, 0, 66, 80
1, 6144, Note_on_c, 0, 72, 80
1, 6144, Note_on_c, 0, 69, 80
1, 6163, Note_on_c, 0, 66, 0
1, 6168, Note_on_c, 0, 65, 80
1, 6182, Note_on_c, 0, 72, 0
1, 6182, Note_on_c, 0, 69, 0
1, 6187, Note_on_c, 0, 65, 0
1, 6192, Note_on_c, 0, 66, 80
1, 6211, Note_on_c, 0, 66, 0
1, 6216, Note_on_c, 0, 65, 80
1, 6235, Note_on_c, 0, 65, 0
1, 6240, Note_on_c, 0, 78, 80
1, 6240, Note_on_c, 0, 74, 80
1, 6259, Note_on_c, 0, 74, 0
1, 6259, Note_on_c, 0, 78, 0
1, 6264, Note_on_c, 0, 75, 80
1, 6264, Note_on_c, 0, 79, 80
1, 6283, Note_on_c, 0, 79, 0
1, 6283, Note_on_c, 0, 75, 0
1, 6288, Note_on_c, 0, 78, 80
1, 6288, Note_on_c, 0, 74, 80
1, 6307, Note_on_c, 0, 74, 0
1, 6307, Note_on_c, 0, 78, 0
1, 6312, Note_on_c, 0, 79, 80
1, 6312, Note_on_c, 0, 75, 80
1, 6331, Note_on_c, 0, 75, 0
1, 6331, Note_on_c, 0, 79, 0
1, 6336, Note_on_c, 0, 66, 80
1, 6336, Note_on_c, 0, 72, 80
1, 6336, Note_on_c, 0, 69, 80
1, 6355, Note_on_c, 0, 66, 0
1, 6360, Note_on_c, 0, 65, 80
1, 6374, Note_on_c, 0, 72, 0
1, 6374, Note_on_c, 0, 69, 0
1, 6379, Note_on_c, 0, 65, 0
1, 6384, Note_on_c, 0, 66, 80
1, 6403, Note_on_c, 0, 66, 0
1, 6408, Note_on_c, 0, 65, 80
1, 6427, Note_on_c, 0, 65, 0
1, 6432, Note_on_c, 0, 71, 80
1, 6451, Note_on_c, 0, 71, 0
1, 6456, Note_on_c, 0, 72, 80
1, 6475, Note_on_c, 0, 72, 0
1, 6480, Note_on_c, 0, 74, 80
1, 6499, Note_on_c, 0, 74, 0
1, 6504, Note_on_c, 0, 75, 80
1, 6523, Note_on_c, 0, 75, 0
1, 6528, Note_on_c, 0, 58, 80
1, 6528, Note_on_c, 0, 77, 80
1, 6566, Note_on_c, 0, 58, 0
1, 6576, Note_on_c, 0, 60, 80
1, 6614, Note_on_c, 0, 60, 0
1, 6624, Note_on_c, 0, 63, 80
1, 6643, Note_on_c, 0, 77, 0
1, 6648, Note_on_c, 0, 79, 80
1, 6648, Note_on_c, 0, 77, 80
1, 6653, Note_on_c, 0, 76, 80
1, 6654, Note_on_c, 0, 77, 0
1, 6654, Note_on_c, 0, 79, 0
1, 6660, Note_on_c, 0, 76, 0
1, 6660, Note_on_c, 0, 77, 80
1, 6662, Note_on_c, 0, 63, 0
1, 6666, Note_on_c, 0, 77, 0
1, 6672, Note_on_c, 0, 79, 80
1, 6672, Note_on_c, 0, 69, 80
1, 6691, Note_on_c, 0, 79, 0
1, 6696, Note_on_c, 0, 75, 80
1, 6710, Note_on_c, 0, 69, 0
1, 6715, Note_on_c, 0, 75, 0
1, 6720, Note_on_c, 0, 70, 80
1, 6720, Note_on_c, 0, 58, 80
1, 6720, Note_on_c, 0, 74, 80
1, 6758, Note_on_c, 0, 74, 0
1, 6758, Note_on_c, 0, 58, 0
1, 6758, Note_on_c, 0, 70, 0
1, 6816, Note_on_c, 0, 77, 80
1, 6844, Note_on_c, 0, 77, 0
1, 6852, Note_on_c, 0, 74, 80
1, 6861, Note_on_c, 0, 74, 0
1, 6864, Note_on_c, 0, 77, 80
1, 6892, Note_on_c, 0, 77, 0
1, 6900, Note_on_c, 0, 74, 80
1, 6909, Note_on_c, 0, 74, 0
1, 6912, Note_on_c, 0, 82, 80
1, 6912, Note_on_c, 0, 50, 80
1, 6950, Note_on_c, 0, 50, 0
1, 6960, Note_on_c, 0, 53, 80
1, 6988, Note_on_c, 0, 82, 0
1, 6998, Note_on_c, 0, 53, 0
1, 7008, Note_on_c, 0, 82, 80
1, 7008, Note_on_c, 0, 58, 80
1, 7046, Note_on_c, 0, 58, 0
1, 7056, Note_on_c, 0, 53, 80
1, 7094, Note_on_c, 0, 53, 0
1, 7104, Note_on_c, 0, 50, 80
1, 7142, Note_on_c, 0, 50, 0
1, 7152, Note_on_c, 0, 53, 80
1, 7161, Note_on_c, 0, 82, 0
1, 7190, Note_on_c, 0, 53, 0
1, 7200, Note_on_c, 0, 82, 80
1, 7200, Note_on_c, 0, 58, 80
1, 7219, Note_on_c, 0, 82, 0
1, 7224, Note_on_c, 0, 84, 80
1, 7238, Note_on_c, 0, 58, 0
1, 7243, Note_on_c, 0, 84, 0
1, 7248, Note_on_c, 0, 53, 80
1, 7248, Note_on_c, 0, 86, 80
1, 7267, Note_on_c, 0, 86, 0
1, 7272, Note_on_c, 0, 82, 80
1, 7286, Note_on_c, 0, 53, 0
1, 7291, Note_on_c, 0, 82, 0
1, 7296, Note_on_c, 0, 81, 80
1, 7296, Note_on_c, 0, 51, 80
1, 7334, Note_on_c, 0, 51, 0
1, 7334, Note_on_c, 0, 81, 0
1, 7344, Note_on_c, 0, 79, 80
1, 7344, Note_on_c, 0, 55, 80
1, 7382, Note_on_c, 0, 55, 0
1, 7382, Note_on_c, 0, 79, 0
1, 7392, Note_on_c, 0, 79, 80
1, 7392, Note_on_c, 0, 58, 80
1, 7430, Note_on_c, 0, 58, 0
1, 7440, Note_on_c, 0, 55, 80
1, 7478, Note_on_c, 0, 55, 0
1, 7488, Note_on_c, 0, 51, 80
1, 7526, Note_on_c, 0, 51, 0
1, 7536, Note_on_c, 0, 55, 80
1, 7545, Note_on_c, 0, 79, 0
1, 7574, Note_on_c, 0, 55, 0
1, 7584, Note_on_c, 0, 58, 80
1, 7584, Note_on_c, 0, 79, 80
1, 7603, Note_on_c, 0, 79, 0
1, 7608, Note_on_c, 0, 81, 80
1, 7622, Note_on_c, 0, 58, 0
1, 7627, Note_on_c, 0, 81, 0
1, 7632, Note_on_c, 0, 55, 80
1, 7632, Note_on_c, 0, 82, 80
1, 7651, Note_on_c, 0, 82, 0
1, 7656, Note_on_c, 0, 79, 80
1, 7670, Note_on_c, 0, 55, 0
1, 7675, Note_on_c, 0, 79, 0
1, 7680, Note_on_c, 0, 53, 80
1, 7680, Note_on_c, 0, 77, 80
1, 7718, Note_on_c, 0, 77, 0
1, 7718, Note_on_c, 0, 53, 0
1, 7728, Note_on_c, 0, 57, 80
1, 7728, Note_on_c, 0, 75, 80
1, 7766, Note_on_c, 0, 75, 0
1, 7766, Note_on_c, 0, 57, 0
1, 7776, Note_on_c, 0, 60, 80
1, 7776, Note_on_c, 0, 75, 80
1, 7814, Note_on_c, 0, 60, 0
1, 7824, Note_on_c, 0, 57, 80
1, 7862, Note_on_c, 0, 57, 0
1, 7872, Note_on_c, 0, 53, 80
1, 7910, Note_on_c, 0, 75, 0
1, 7910, Note_on_c, 0, 53, 0
1, 7920, Note_on_c, 0, 75, 80
1, 7920, Note_on_c, 0, 57, 80
1, 7958, Note_on_c, 0, 57, 0
1, 7958, Note_on_c, 0, 75, 0
1, 7968, Note_on_c, 0, 60, 80
1, 7968, Note_on_c, 0, 75, 80
1, 8006, Note_on_c, 0, 75, 0
1, 8006, Note_on_c, 0, 60, 0
1, 8016, Note_on_c, 0, 75, 80
1, 8016, Note_on_c, 0, 57, 80
1, 8054, Note_on_c, 0, 57, 0
1, 8054, Note_on_c, 0, 75, 0
1, 8064, Note_on_c, 0, 55, 80
1, 8064, Note_on_c, 0, 73, 80
1, 8102, Note_on_c, 0, 55, 0
1, 8112, Note_on_c, 0, 58, 80
1, 8140, Note_on_c, 0, 73, 0
1, 8150, Note_on_c, 0, 58, 0
1, 8160, Note_on_c, 0, 62, 80
1, 8160, Note_on_c, 0, 74, 80
1, 8198, Note_on_c, 0, 62, 0
1, 8208, Note_on_c, 0, 58, 80
1, 8236, Note_on_c, 0, 74, 0
1, 8246, Note_on_c, 0, 58, 0
1, 8256, Note_on_c, 0, 55, 80
1, 8280, Note_on_c, 0, 70, 80
1, 8294, Note_on_c, 0, 55, 0
1, 8299, Note_on_c, 0, 70, 0
1, 8304, Note_on_c, 0, 58, 80
1, 8304, Note_on_c, 0, 72, 80
1, 8323, Note_on_c, 0, 72, 0
1, 8328, Note_on_c, 0, 74, 80
1, 8342, Note_on_c, 0, 58, 0
1, 8347, Note_on_c, 0, 74, 0
1, 8352, Note_on_c, 0, 62, 80
1, 8352, Note_on_c, 0, 75, 80
1, 8371, Note_on_c, 0, 75, 0
1, 8376, Note_on_c, 0, 77, 80
1, 8390, Note_on_c, 0, 62, 0
1, 8395, Note_on_c, 0, 77, 0
1, 8400, Note_on_c, 0, 58, 80
1, 8400, Note_on_c, 0, 79, 80
1, 8419, Note_on_c, 0, 79, 0
1, 8424, Note_on_c, 0, 81, 80
1, 8438, Note_on_c, 0, 58, 0
1, 8443, Note_on_c, 0, 81, 0
1, 8448, Note_on_c, 0, 50, 80
1, 8448, Note_on_c, 0, 82, 80
1, 8476, Note_on_c, 0, 82, 0
1, 8484, Note_on_c, 0, 77, 80
1, 8486, Note_on_c, 0, 50, 0
1, 8493, Note_on_c, 0, 77, 0
1, 8496, Note_on_c, 0, 53, 80
1, 8496, Note_on_c, 0, 86, 80
1, 8524, Note_on_c, 0, 86, 0
1, 8532, Note_on_c, 0, 82, 80
1, 8534, Note_on_c, 0, 53, 0
1, 8541, Note_on_c, 0, 82, 0
1, 8544, Note_on_c, 0, 89, 80
1, 8544, Note_on_c, 0, 58, 80
1, 8582, Note_on_c, 0, 58, 0
1, 8592, Note_on_c, 0, 53, 80
1, 8620, Note_on_c, 0, 89, 0
1, 8630, Note_on_c, 0, 53, 0
1, 8640, Note_on_c, 0, 50, 80
1, 8640, Note_on_c, 0, 89, 80
1, 8659, Note_on_c, 0, 89, 0
1, 8664, Note_on_c, 0, 86, 80
1, 8678, Note_on_c, 0, 50, 0
1, 8683, Note_on_c, 0, 86, 0
1, 8688, Note_on_c, 0, 83, 80
1, 8688, Note_on_c, 0, 53, 80
1, 8707, Note_on_c, 0, 83, 0
1, 8712, Note_on_c, 0, 80, 80
1, 8726, Note_on_c, 0, 53, 0
1, 8731, Note_on_c, 0, 80, 0
1, 8736, Note_on_c, 0, 77, 80
1, 8736, Note_on_c, 0, 56, 80
1, 8755, Note_on_c, 0, 77, 0
1, 8760, Note_on_c, 0, 74, 80
1, 8774, Note_on_c, 0, 56, 0
1, 8779, Note_on_c, 0, 74, 0
1, 8784, Note_on_c, 0, 53, 80
1, 8784, Note_on_c, 0, 71, 80
1, 8803, Note_on_c, 0, 71, 0
1, 8808, Note_on_c, 0, 68, 80
1, 8822, Note_on_c, 0, 53, 0
1, 8827, Note_on_c, 0, 68, 0
1, 8832, Note_on_c, 0, 67, 80
1, 8832, Note_on_c, 0, 51, 80
1, 8870, Note_on_c, 0, 51, 0
1, 8870, Note_on_c, 0, 67, 0
1, 8880, Note_on_c, 0, 78, 80
1, 8880, Note_on_c, 0, 55, 80
1, 8918, Note_on_c, 0, 55, 0
1, 8928, Note_on_c, 0, 60, 80
1, 8952, Note_on_c, 0, 78, 80
1, 8952, Note_on_c, 0, 75, 80
1, 8956, Note_on_c, 0, 78, 0
1, 8957, Note_on_c, 0, 74, 80
1, 8958, Note_on_c, 0, 78, 0
1, 8958, Note_on_c, 0, 75, 0
1, 8964, Note_on_c, 0, 74, 0
1, 8964, Note_on_c, 0, 75, 80
1, 8966, Note_on_c, 0, 60, 0
1, 8970, Note_on_c, 0, 75, 0
1, 8976, Note_on_c, 0, 79, 80
1, 8976, Note_on_c, 0, 55, 80
1, 9014, Note_on_c, 0, 55, 0
1, 9024, Note_on_c, 0, 52, 80
1, 9052, Note_on_c, 0, 79, 0
1, 9062, Note_on_c, 0, 52, 0
1, 9072, Note_on_c, 0, 79, 80
1, 9072, Note_on_c, 0, 55, 80
1, 9077, Note_on_c, 0, 76, 80
1, 9077, Note_on_c, 0, 78, 80
1, 9084, Note_on_c, 0, 78, 0
1, 9084, Note_on_c, 0, 76, 0
1, 9084, Note_on_c, 0, 78, 80
1, 9090, Note_on_c, 0, 78, 0
1, 9091, Note_on_c, 0, 79, 0
1, 9096, Note_on_c, 0, 81, 80
1, 9110, Note_on_c, 0, 55, 0
1, 9120, Note_on_c, 0, 61, 80
1, 9158, Note_on_c, 0, 61, 0
1, 9168, Note_on_c, 0, 55, 80
1, 9172, Note_on_c, 0, 81, 0
1, 9192, Note_on_c, 0, 82, 80
1, 9206, Note_on_c, 0, 55, 0
1, 9216, Note_on_c, 0, 82, 80
1, 9216, Note_on_c, 0, 53, 80
1, 9230, Note_on_c, 0, 82, 0
1, 9254, Note_on_c, 0, 82, 0
1, 9254, Note_on_c, 0, 53, 0
1, 9264, Note_on_c, 0, 86, 80
1, 9264, Note_on_c, 0, 58, 80
1, 9283, Note_on_c, 0, 86, 0
1, 9288, Note_on_c, 0, 89, 80
1, 9302, Note_on_c, 0, 58, 0
1, 9307, Note_on_c, 0, 89, 0
1, 9312, Note_on_c, 0, 62, 80
1, 9312, Note_on_c, 0, 77, 80
1, 9350, Note_on_c, 0, 62, 0
1, 9360, Note_on_c, 0, 58, 80
1, 9388, Note_on_c, 0, 77, 0
1, 9398, Note_on_c, 0, 58, 0
1, 9408, Note_on_c, 0, 77, 80
1, 9408, Note_on_c, 0, 53, 80
1, 9427, Note_on_c, 0, 77, 0
1, 9432, Note_on_c, 0, 78, 80
1, 9446, Note_on_c, 0, 53, 0
1, 9451, Note_on_c, 0, 78, 0
1, 9456, Note_on_c, 0, 79, 80
1, 9456, Note_on_c, 0, 57, 80
1, 9475, Note_on_c, 0, 79, 0
1, 9480, Note_on_c, 0, 77, 80
1, 9494, Note_on_c, 0, 57, 0
1, 9499, Note_on_c, 0, 77, 0
1, 9504, Note_on_c, 0, 60, 80
1, 9504, Note_on_c, 0, 77, 80
1, 9523, Note_on_c, 0, 77, 0
1, 9528, Note_on_c, 0, 75, 80
1, 9542, Note_on_c, 0, 60, 0
1, 9547, Note_on_c, 0, 75, 0
1, 9552, Note_on_c, 0, 74, 80
1, 9552, Note_on_c, 0, 57, 80
1, 9571, Note_on_c, 0, 74, 0
1, 9576, Note_on_c, 0, 72, 80
1, 9590, Note_on_c, 0, 57, 0
1, 9595, Note_on_c, 0, 72, 0
1, 9600, Note_on_c, 0, 58, 80
1, 9600, Note_on_c, 0, 70, 80
1, 9619, Note_on_c, 0, 58, 0
1, 9624, Note_on_c, 0, 62, 80
1, 9643, Note_on_c, 0, 62, 0
1, 9648, Note_on_c, 0, 65, 80
1, 9667, Note_on_c, 0, 65, 0
1, 9672, Note_on_c, 0, 62, 80
1, 9690, Note_on_c, 0, 70, 0
1, 9691, Note_on_c, 0, 62, 0
1, 9696, Note_on_c, 0, 65, 80
1, 9715, Note_on_c, 0, 65, 0
1, 9720, Note_on_c, 0, 62, 80
1, 9739, Note_on_c, 0, 62, 0
1, 9744, Note_on_c, 0, 65, 80
1, 9763, Note_on_c, 0, 65, 0
1, 9768, Note_on_c, 0, 62, 80
1, 9787, Note_on_c, 0, 62, 0
1, 9792, Note_on_c, 0, 53, 80
1, 9792, Note_on_c, 0, 63, 80
1, 9792, Note_on_c, 0, 69, 80
1, 9811, Note_on_c, 0, 69, 0
1, 9816, Note_on_c, 0, 72, 80
1, 9835, Note_on_c, 0, 72, 0
1, 9840, Note_on_c, 0, 79, 80
1, 9859, Note_on_c, 0, 79, 0
1, 9864, Note_on_c, 0, 77, 80
1, 9868, Note_on_c, 0, 63, 0
1, 9868, Note_on_c, 0, 53, 0
1, 9883, Note_on_c, 0, 77, 0
1, 9888, Note_on_c, 0, 79, 80
1, 9907, Note_on_c, 0, 79, 0
1, 9912, Note_on_c, 0, 77, 80
1, 9931, Note_on_c, 0, 77, 0
1, 9936, Note_on_c, 0, 79, 80
1, 9955, Note_on_c, 0, 79, 0
1, 9960, Note_on_c, 0, 77, 80
1, 9979, Note_on_c, 0, 77, 0
1, 9984, Note_on_c, 0, 77, 80
1, 9984, Note_on_c, 0, 58, 80
1, 10003, Note_on_c, 0, 58, 0
1, 10008, Note_on_c, 0, 62, 80
1, 10027, Note_on_c, 0, 62, 0
1, 10032, Note_on_c, 0, 65, 80
1, 10051, Note_on_c, 0, 65, 0
1, 10056, Note_on_c, 0, 62, 80
1, 10060, Note_on_c, 0, 77, 0
1, 10075, Note_on_c, 0, 62, 0
1, 10080, Note_on_c, 0, 82, 80
1, 10080, Note_on_c, 0, 65, 80
1, 10099, Note_on_c, 0, 65, 0
1, 10104, Note_on_c, 0, 62, 80
1, 10118, Note_on_c, 0, 82, 0
1, 10123, Note_on_c, 0, 62, 0
1, 10128, Note_on_c, 0, 65, 80
1, 10147, Note_on_c, 0, 65, 0
1, 10152, Note_on_c, 0, 62, 80
1, 10171, Note_on_c, 0, 62, 0
1, 10176, Note_on_c, 0, 53, 80
1, 10176, Note_on_c, 0, 69, 80
1, 10176, Note_on_c, 0, 63, 80
1, 10195, Note_on_c, 0, 69, 0
1, 10200, Note_on_c, 0, 72, 80
1, 10219, Note_on_c, 0, 72, 0
1, 10224, Note_on_c, 0, 79, 80
1, 10243, Note_on_c, 0, 79, 0
1, 10248, Note_on_c, 0, 77, 80
1, 10252, Note_on_c, 0, 53, 0
1, 10252, Note_on_c, 0, 63, 0
1, 10267, Note_on_c, 0, 77, 0
1, 10272, Note_on_c, 0, 79, 80
1, 10291, Note_on_c, 0, 79, 0
1, 10296, Note_on_c, 0, 77, 80
1, 10315, Note_on_c, 0, 77, 0
1, 10320, Note_on_c, 0, 79, 80
1, 10339, Note_on_c, 0, 79, 0
1, 10344, Note_on_c, 0, 77, 80
1, 10363, Note_on_c, 0, 77, 0
1, 10368, Note_on_c, 0, 58, 80
1, 10368, Note_on_c, 0, 77, 80
1, 10387, Note_on_c, 0, 58, 0
1, 10392, Note_on_c, 0, 62, 80
1, 10411, Note_on_c, 0, 62, 0
1, 10416, Note_on_c, 0, 65, 80
1, 10435, Note_on_c, 0, 65, 0
1, 10440, Note_on_c, 0, 62, 80
1, 10444, Note_on_c, 0, 77, 0
1, 10459, Note_on_c, 0, 62, 0
1, 10464, Note_on_c, 0, 65, 80
1, 10464, Note_on_c, 0, 70, 80
1, 10483, Note_on_c, 0, 65, 0
1, 10488, Note_on_c, 0, 62, 80
1, 10502, Note_on_c, 0, 70, 0
1, 10507, Note_on_c, 0, 62, 0
1, 10512, Note_on_c, 0, 65, 80
1, 10531, Note_on_c, 0, 65, 0
1, 10536, Note_on_c, 0, 62, 80
1, 10555, Note_on_c, 0, 62, 0
1, 10560, Note_on_c, 0, 53, 80
1, 10560, Note_on_c, 0, 63, 80
1, 10560, Note_on_c, 0, 69, 80
1, 10579, Note_on_c, 0, 69, 0
1, 10584, Note_on_c, 0, 72, 80
1, 10603, Note_on_c, 0, 72, 0
1, 10608, Note_on_c, 0, 79, 80
1, 10627, Note_on_c, 0, 79, 0
1, 10632, Note_on_c, 0, 77, 80
1, 10651, Note_on_c, 0, 77, 0
1, 10656, Note_on_c, 0, 79, 80
1, 10675, Note_on_c, 0, 79, 0
1, 10680, Note_on_c, 0, 77, 80
1, 10699, Note_on_c, 0, 77, 0
1, 10704, Note_on_c, 0, 79, 80
1, 10713, Note_on_c, 0, 63, 0
1, 10713, Note_on_c, 0, 53, 0
1, 10723, Note_on_c, 0, 79, 0
1, 10728, Note_on_c, 0, 77, 80
1, 10747, Note_on_c, 0, 77, 0
1, 10752, Note_on_c, 0, 58, 80
1, 10752, Note_on_c, 0, 62, 80
1, 10752, Note_on_c, 0, 77, 80
1, 10771, Note_on_c, 0, 77, 0
1, 10776, Note_on_c, 0, 70, 80
1, 10795, Note_on_c, 0, 70, 0
1, 10800, Note_on_c, 0, 82, 80
1, 10819, Note_on_c, 0, 82, 0
1, 10824, Note_on_c, 0, 82, 80
1, 10828, Note_on_c, 0, 62, 0
1, 10828, Note_on_c, 0, 58, 0
1, 10843, Note_on_c, 0, 82, 0
1, 10848, Note_on_c, 0, 82, 80
1, 10867, Note_on_c, 0, 82, 0
1, 10872, Note_on_c, 0, 74, 80
1, 10891, Note_on_c, 0, 74, 0
1, 10896, Note_on_c, 0, 86, 80
1, 10915, Note_on_c, 0, 86, 0
1, 10920, Note_on_c, 0, 86, 80
1, 10939, Note_on_c, 0, 86, 0
1, 10944, Note_on_c, 0, 86, 80
1, 10963, Note_on_c, 0, 86, 0
1, 10968, Note_on_c, 0, 77, 80
1, 10987, Note_on_c, 0, 77, 0
1, 10992, Note_on_c, 0, 89, 80
1, 11011, Note_on_c, 0, 89, 0
1, 11016, Note_on_c, 0, 89, 80
1, 11035, Note_on_c, 0, 89, 0
1, 11040, Note_on_c, 0, 65, 80
1, 11040, Note_on_c, 0, 75, 80
1, 11040, Note_on_c, 0, 89, 80
1, 11040, Note_on_c, 0, 69, 80
1, 11059, Note_on_c, 0, 89, 0
1, 11064, Note_on_c, 0, 89, 80
1, 11083, Note_on_c, 0, 89, 0
1, 11088, Note_on_c, 0, 89, 80
1, 11107, Note_on_c, 0, 89, 0
1, 11112, Note_on_c, 0, 89, 80
1, 11116, Note_on_c, 0, 75, 0
1, 11116, Note_on_c, 0, 65, 0
1, 11116, Note_on_c, 0, 69, 0
1, 11131, Note_on_c, 0, 89, 0
1, 11136, Note_on_c, 0, 74, 80
1, 11136, Note_on_c, 0, 82, 80
1, 11136, Note_on_c, 0, 70, 80
1, 11174, Note_on_c, 0, 70, 0
1, 11174, Note_on_c, 0, 82, 0
1, 11174, Note_on_c, 0, 74, 0
1, 11232, Note_on_c, 0, 89, 80
1, 11232, Note_on_c, 0, 65, 80
1, 11232, Note_on_c, 0, 75, 80
1, 11232, Note_on_c, 0, 69, 80
1, 11251, Note_on_c, 0, 89, 0
1, 11256, Note_on_c, 0, 89, 80
1, 11275, Note_on_c, 0, 89, 0
1, 11280, Note_on_c, 0, 89, 80
1, 11299, Note_on_c, 0, 89, 0
1, 11304, Note_on_c, 0, 89, 80
1, 11308, Note_on_c, 0, 65, 0
1, 11308, Note_on_c, 0, 75, 0
1, 11308, Note_on_c, 0, 69, 0
1, 11323, Note_on_c, 0, 89, 0
1, 11328, Note_on_c, 0, 70, 80
1, 11328, Note_on_c, 0, 82, 80
1, 11328, Note_on_c, 0, 74, 80
1, 11366, Note_on_c, 0, 74, 0
1, 11366, Note_on_c, 0, 70, 0
1, 11373, Note_on_c, 0, 82, 0
1, 11424, Note_on_c, 0, 65, 80
1, 11424, Note_on_c, 0, 69, 80
1, 11424, Note_on_c, 0, 75, 80
1, 11424, Note_on_c, 0, 89, 80
1, 11443, Note_on_c, 0, 89, 0
1, 11448, Note_on_c, 0, 89, 80
1, 11467, Note_on_c, 0, 89, 0
1, 11472, Note_on_c, 0, 89, 80
1, 11491, Note_on_c, 0, 89, 0
1, 11496, Note_on_c, 0, 89, 80
1, 11500, Note_on_c, 0, 75, 0
1, 11500, Note_on_c, 0, 69, 0
1, 11500, Note_on_c, 0, 65, 0
1, 11515, Note_on_c, 0, 89, 0
1, 11520, Note_on_c, 0, 70, 80
1, 11520, Note_on_c, 0, 82, 80
1, 11520, Note_on_c, 0, 74, 80
1, 11558, Note_on_c, 0, 74, 0
1, 11558, Note_on_c, 0, 82, 0
1, 11558, Note_on_c, 0, 70, 0
1, 11616, Note_on_c, 0, 36, 80
1, 11616, Note_on_c, 0, 48, 80
1, 11712, Note_on_c, 0, 53, 80
1, 11712, Note_on_c, 0, 51, 80
1, 11712, Note_on_c, 0, 56, 80
1, 11769, Note_on_c, 0, 48, 0
1, 11769, Note_on_c, 0, 36, 0
1, 11808, Note_on_c, 0, 35, 80
1, 11808, Note_on_c, 0, 47, 80
1, 11865, Note_on_c, 0, 53, 0
1, 11865, Note_on_c, 0, 51, 0
1, 11865, Note_on_c, 0, 56, 0
1, 11884, Note_on_c, 0, 35, 0
1, 11884, Note_on_c, 0, 47, 0
1, 11904, Note_on_c, 0, 34, 80
1, 11904, Note_on_c, 0, 46, 80
1, 11904, Note_on_c, 0, 50, 80
1, 11904, Note_on_c, 0, 53, 80
1, 11904, Note_on_c, 0, 56, 80
1, 11980, Note_on_c, 0, 56, 0
1, 11980, Note_on_c, 0, 53, 0
1, 11980, Note_on_c, 0, 50, 0
1, 12000, Note_on_c, 0, 51, 80
1, 12019, Note_on_c, 0, 51, 0
1, 12024, Note_on_c, 0, 50, 80
1, 12043, Note_on_c, 0, 50, 0
1, 12048, Note_on_c, 0, 53, 80
1, 12057, Note_on_c, 0, 46, 0
1, 12057, Note_on_c, 0, 34, 0
1, 12067, Note_on_c, 0, 53, 0
1, 12072, Note_on_c, 0, 56, 80
1, 12091, Note_on_c, 0, 56, 0
1, 12096, Note_on_c, 0, 62, 80
1, 12115, Note_on_c, 0, 62, 0
1, 12120, Note_on_c, 0, 65, 80
1, 12139, Note_on_c, 0, 65, 0
1, 12144, Note_on_c, 0, 68, 80
1, 12163, Note_on_c, 0, 68, 0
1, 12168, Note_on_c, 0, 74, 80
1, 12187, Note_on_c, 0, 74, 0
1, 12192, Note_on_c, 0, 77, 80
1, 12211, Note_on_c, 0, 77, 0
1, 12216, Note_on_c, 0, 80, 80
1, 12235, Note_on_c, 0, 80, 0
1, 12288, Note_on_c, 0, 70, 80
1, 12288, Note_on_c, 0, 51, 80
1, 12326, Note_on_c, 0, 51, 0
1, 12336, Note_on_c, 0, 55, 80
1, 12374, Note_on_c, 0, 55, 0
1, 12384, Note_on_c, 0, 58, 80
1, 12403, Note_on_c, 0, 70, 0
1, 12408, Note_on_c, 0, 69, 80
1, 12417, Note_on_c, 0, 69, 0
1, 12420, Note_on_c, 0, 70, 80
1, 12422, Note_on_c, 0, 58, 0
1, 12429, Note_on_c, 0, 70, 0
1, 12432, Note_on_c, 0, 55, 80
1, 12432, Note_on_c, 0, 72, 80
1, 12441, Note_on_c, 0, 72, 0
1, 12444, Note_on_c, 0, 70, 80
1, 12453, Note_on_c, 0, 70, 0
1, 12456, Note_on_c, 0, 69, 80
1, 12465, Note_on_c, 0, 69, 0
1, 12468, Note_on_c, 0, 70, 80
1, 12470, Note_on_c, 0, 55, 0
1, 12477, Note_on_c, 0, 70, 0
1, 12480, Note_on_c, 0, 67, 80
1, 12480, Note_on_c, 0, 51, 80
1, 12518, Note_on_c, 0, 51, 0
1, 12528, Note_on_c, 0, 55, 80
1, 12556, Note_on_c, 0, 67, 0
1, 12566, Note_on_c, 0, 55, 0
1, 12576, Note_on_c, 0, 58, 80
1, 12576, Note_on_c, 0, 67, 80
1, 12614, Note_on_c, 0, 58, 0
1, 12624, Note_on_c, 0, 55, 80
1, 12652, Note_on_c, 0, 67, 0
1, 12662, Note_on_c, 0, 55, 0
1, 12672, Note_on_c, 0, 67, 80
1, 12672, Note_on_c, 0, 63, 80
1, 12672, Note_on_c, 0, 46, 80
1, 12710, Note_on_c, 0, 46, 0
1, 12720, Note_on_c, 0, 51, 80
1, 12758, Note_on_c, 0, 51, 0
1, 12768, Note_on_c, 0, 55, 80
1, 12806, Note_on_c, 0, 63, 0
1, 12806, Note_on_c, 0, 67, 0
1, 12806, Note_on_c, 0, 55, 0
1, 12816, Note_on_c, 0, 51, 80
1, 12816, Note_on_c, 0, 65, 80
1, 12816, Note_on_c, 0, 63, 80
1, 12821, Note_on_c, 0, 65, 80
1, 12822, Note_on_c, 0, 63, 0
1, 12822, Note_on_c, 0, 65, 0
1, 12828, Note_on_c, 0, 65, 0
1, 12828, Note_on_c, 0, 67, 80
1, 12834, Note_on_c, 0, 67, 0
1, 12840, Note_on_c, 0, 68, 80
1, 12854, Note_on_c, 0, 51, 0
1, 12859, Note_on_c, 0, 68, 0
1, 12864, Note_on_c, 0, 62, 80
1, 12864, Note_on_c, 0, 46, 80
1, 12864, Note_on_c, 0, 58, 80
1, 12902, Note_on_c, 0, 46, 0
1, 12912, Note_on_c, 0, 50, 80
1, 12940, Note_on_c, 0, 62, 0
1, 12940, Note_on_c, 0, 58, 0
1, 12950, Note_on_c, 0, 50, 0
1, 12960, Note_on_c, 0, 53, 80
1, 12984, Note_on_c, 0, 70, 80
1, 12998, Note_on_c, 0, 53, 0
1, 13003, Note_on_c, 0, 70, 0
1, 13008, Note_on_c, 0, 50, 80
1, 13008, Note_on_c, 0, 68, 80
1, 13027, Note_on_c, 0, 68, 0
1, 13032, Note_on_c, 0, 65, 80
1, 13046, Note_on_c, 0, 50, 0
1, 13051, Note_on_c, 0, 65, 0
1, 13056, Note_on_c, 0, 51, 80
1, 13056, Note_on_c, 0, 55, 80
1, 13056, Note_on_c, 0, 63, 80
1, 13094, Note_on_c, 0, 55, 0
1, 13104, Note_on_c, 0, 58, 80
1, 13142, Note_on_c, 0, 58, 0
1, 13152, Note_on_c, 0, 55, 80
1, 13190, Note_on_c, 0, 55, 0
1, 13200, Note_on_c, 0, 58, 80
1, 13209, Note_on_c, 0, 51, 0
1, 13209, Note_on_c, 0, 63, 0
1, 13238, Note_on_c, 0, 58, 0
1, 13248, Note_on_c, 0, 58, 80
1, 13248, Note_on_c, 0, 46, 80
1, 13248, Note_on_c, 0, 65, 80
1, 13286, Note_on_c, 0, 58, 0
1, 13296, Note_on_c, 0, 62, 80
1, 13334, Note_on_c, 0, 62, 0
1, 13344, Note_on_c, 0, 58, 80
1, 13382, Note_on_c, 0, 58, 0
1, 13392, Note_on_c, 0, 62, 80
1, 13401, Note_on_c, 0, 46, 0
1, 13401, Note_on_c, 0, 65, 0
1, 13430, Note_on_c, 0, 62, 0
1, 13440, Note_on_c, 0, 39, 80
1, 13440, Note_on_c, 0, 63, 80
1, 13440, Note_on_c, 0, 67, 80
1, 13488, Note_on_c, 0, 67, 80
1, 13488, Note_on_c, 0, 68, 80
1, 13493, Note_on_c, 0, 65, 80
1, 13494, Note_on_c, 0, 68, 0
1, 13494, Note_on_c, 0, 67, 0
1, 13497, Note_on_c, 0, 63, 0
1, 13497, Note_on_c, 0, 67, 0
1, 13500, Note_on_c, 0, 65, 0
1, 13500, Note_on_c, 0, 67, 80
1, 13506, Note_on_c, 0, 67, 0
1, 13512, Note_on_c, 0, 68, 80
1, 13531, Note_on_c, 0, 68, 0
1, 13536, Note_on_c, 0, 70, 80
1, 13555, Note_on_c, 0, 70, 0
1, 13560, Note_on_c, 0, 72, 80
1, 13579, Note_on_c, 0, 72, 0
1, 13584, Note_on_c, 0, 74, 80
1, 13593, Note_on_c, 0, 39, 0
1, 13603, Note_on_c, 0, 74, 0
1, 13608, Note_on_c, 0, 75, 80
1, 13627, Note_on_c, 0, 75, 0
1, 13632, Note_on_c, 0, 70, 80
1, 13670, Note_on_c, 0, 70, 0
1, 13728, Note_on_c, 0, 79, 80
1, 13728, Note_on_c, 0, 75, 80
1, 13766, Note_on_c, 0, 75, 0
1, 13766, Note_on_c, 0, 79, 0
1, 13776, Note_on_c, 0, 74, 80
1, 13776, Note_on_c, 0, 77, 80
1, 13814, Note_on_c, 0, 77, 0
1, 13814, Note_on_c, 0, 74, 0
1, 13824, Note_on_c, 0, 72, 80
1, 13824, Note_on_c, 0, 75, 80
1, 13862, Note_on_c, 0, 75, 0
1, 13862, Note_on_c, 0, 72, 0
1, 13872, Note_on_c, 0, 70, 80
1, 13872, Note_on_c, 0, 74, 80
1, 13920, Note_on_c, 0, 38, 80
1, 13920, Note_on_c, 0, 50, 80
1, 13939, Note_on_c, 0, 74, 0
1, 13939, Note_on_c, 0, 70, 0
1, 13944, Note_on_c, 0, 68, 80
1, 13944, Note_on_c, 0, 72, 80
1, 13958, Note_on_c, 0, 38, 0
1, 13958, Note_on_c, 0, 50, 0
1, 13968, Note_on_c, 0, 51, 80
1, 13968, Note_on_c, 0, 39, 80
1, 13982, Note_on_c, 0, 68, 0
1, 13982, Note_on_c, 0, 72, 0
1, 13992, Note_on_c, 0, 67, 80
1, 13992, Note_on_c, 0, 70, 80
1, 14006, Note_on_c, 0, 51, 0
1, 14006, Note_on_c, 0, 39, 0
1, 14016, Note_on_c, 0, 41, 80
1, 14016, Note_on_c, 0, 53, 80
1, 14030, Note_on_c, 0, 67, 0
1, 14030, Note_on_c, 0, 70, 0
1, 14040, Note_on_c, 0, 65, 80
1, 14040, Note_on_c, 0, 68, 80
1, 14054, Note_on_c, 0, 41, 0
1, 14054, Note_on_c, 0, 53, 0
1, 14064, Note_on_c, 0, 55, 80
1, 14064, Note_on_c, 0, 43, 80
1, 14078, Note_on_c, 0, 65, 0
1, 14078, Note_on_c, 0, 68, 0
1, 14088, Note_on_c, 0, 63, 80
1, 14088, Note_on_c, 0, 67, 80
1, 14102, Note_on_c, 0, 55, 0
1, 14102, Note_on_c, 0, 43, 0
1, 14112, Note_on_c, 0, 44, 80
1, 14112, Note_on_c, 0, 56, 80
1, 14126, Note_on_c, 0, 63, 0
1, 14126, Note_on_c, 0, 67, 0
1, 14136, Note_on_c, 0, 60, 80
1, 14136, Note_on_c, 0, 72, 80
1, 14150, Note_on_c, 0, 44, 0
1, 14150, Note_on_c, 0, 56, 0
1, 14160, Note_on_c, 0, 53, 80
1, 14160, Note_on_c, 0, 43, 80
1, 14174, Note_on_c, 0, 60, 0
1, 14174, Note_on_c, 0, 72, 0
1, 14184, Note_on_c, 0, 68, 80
1, 14184, Note_on_c, 0, 65, 80
1, 14198, Note_on_c, 0, 53, 0
1, 14198, Note_on_c, 0, 43, 0
1, 14203, Note_on_c, 0, 68, 0
1, 14203, Note_on_c, 0, 65, 0
1, 14208, Note_on_c, 0, 57, 80
1, 14208, Note_on_c, 0, 67, 80
1, 14208, Note_on_c, 0, 63, 80
1, 14246, Note_on_c, 0, 57, 0
1, 14256, Note_on_c, 0, 58, 80
1, 14294, Note_on_c, 0, 58, 0
1, 14304, Note_on_c, 0, 55, 80
1, 14342, Note_on_c, 0, 55, 0
1, 14352, Note_on_c, 0, 51, 80
1, 14361, Note_on_c, 0, 67, 0
1, 14361, Note_on_c, 0, 63, 0
1, 14390, Note_on_c, 0, 51, 0
1, 14400, Note_on_c, 0, 46, 80
1, 14400, Note_on_c, 0, 65, 80
1, 14400, Note_on_c, 0, 62, 80
1, 14438, Note_on_c, 0, 62, 0
1, 14438, Note_on_c, 0, 65, 0
1, 14448, Note_on_c, 0, 67, 80
1, 14476, Note_on_c, 0, 46, 0
1, 14486, Note_on_c, 0, 67, 0
1, 14496, Note_on_c, 0, 68, 80
1, 14534, Note_on_c, 0, 68, 0
1, 14544, Note_on_c, 0, 69, 80
1, 14582, Note_on_c, 0, 69, 0
1, 14592, Note_on_c, 0, 70, 80
1, 14592, Note_on_c, 0, 51, 80
1, 14630, Note_on_c, 0, 51, 0
1, 14640, Note_on_c, 0, 55, 80
1, 14678, Note_on_c, 0, 55, 0
1, 14688, Note_on_c, 0, 58, 80
1, 14707, Note_on_c, 0, 70, 0
1, 14712, Note_on_c, 0, 74, 80
1, 14726, Note_on_c, 0, 58, 0
1, 14731, Note_on_c, 0, 74, 0
1, 14736, Note_on_c, 0, 75, 80
1, 14736, Note_on_c, 0, 55, 80
1, 14755, Note_on_c, 0, 75, 0
1, 14760, Note_on_c, 0, 70, 80
1, 14774, Note_on_c, 0, 55, 0
1, 14779, Note_on_c, 0, 70, 0
1, 14784, Note_on_c, 0, 51, 80
1, 14784, Note_on_c, 0, 67, 80
1, 14822, Note_on_c, 0, 67, 0
1, 14822, Note_on_c, 0, 51, 0
1, 14832, Note_on_c, 0, 67, 80
1, 14832, Note_on_c, 0, 55, 80
1, 14870, Note_on_c, 0, 55, 0
1, 14870, Note_on_c, 0, 67, 0
1, 14880, Note_on_c, 0, 58, 80
1, 14880, Note_on_c, 0, 67, 80
1, 14918, Note_on_c, 0, 67, 0
1, 14918, Note_on_c, 0, 58, 0
1, 14928, Note_on_c, 0, 67, 80
1, 14928, Note_on_c, 0, 55, 80
1, 14966, Note_on_c, 0, 55, 0
1, 14966, Note_on_c, 0, 67, 0
1, 14976, Note_on_c, 0, 46, 80
1, 14976, Note_on_c, 0, 63, 80
1, 14976, Note_on_c, 0, 67, 80
1, 15014, Note_on_c, 0, 46, 0
1, 15024, Note_on_c, 0, 51, 80
1, 15062, Note_on_c, 0, 51, 0
1, 15072, Note_on_c, 0, 55, 80
1, 15110, Note_on_c, 0, 63, 0
1, 15110, Note_on_c, 0, 67, 0
1, 15110, Note_on_c, 0, 55, 0
1, 15120, Note_on_c, 0, 51, 80
1, 15144, Note_on_c, 0, 68, 80
1, 15158, Note_on_c, 0, 51, 0
1, 15163, Note_on_c, 0, 68, 0
1, 15168, Note_on_c, 0, 62, 80
1, 15168, Note_on_c, 0, 46, 80
1, 15168, Note_on_c, 0, 65, 80
1, 15206, Note_on_c, 0, 46, 0
1, 15216, Note_on_c, 0, 50, 80
1, 15244, Note_on_c, 0, 62, 0
1, 15244, Note_on_c, 0, 65, 0
1, 15254, Note_on_c, 0, 50, 0
1, 15264, Note_on_c, 0, 53, 80
1, 15288, Note_on_c, 0, 58, 80
1, 15302, Note_on_c, 0, 53, 0
1, 15307, Note_on_c, 0, 58, 0
1, 15312, Note_on_c, 0, 46, 80
1, 15312, Note_on_c, 0, 60, 80
1, 15331, Note_on_c, 0, 60, 0
1, 15336, Note_on_c, 0, 62, 80
1, 15350, Note_on_c, 0, 46, 0
1, 15355, Note_on_c, 0, 62, 0
1, 15360, Note_on_c, 0, 51, 80
1, 15408, Note_on_c, 0, 58, 80
1, 15446, Note_on_c, 0, 58, 0
1, 15456, Note_on_c, 0, 55, 80
1, 15494, Note_on_c, 0, 55, 0
1, 15504, Note_on_c, 0, 58, 80
1, 15513, Note_on_c, 0, 51, 0
1, 15542, Note_on_c, 0, 58, 0
1, 15552, Note_on_c, 0, 62, 80
1, 15552, Note_on_c, 0, 46, 80
1, 15590, Note_on_c, 0, 62, 0
1, 15600, Note_on_c, 0, 58, 80
1, 15638, Note_on_c, 0, 58, 0
1, 15648, Note_on_c, 0, 62, 80
1, 15686, Note_on_c, 0, 62, 0
1, 15696, Note_on_c, 0, 58, 80
1, 15705, Note_on_c, 0, 46, 0
1, 15734, Note_on_c, 0, 58, 0
1, 15744, Note_on_c, 0, 67, 80
1, 15744, Note_on_c, 0, 63, 80
1, 15744, Note_on_c, 0, 39, 80
1, 15801, Note_on_c, 0, 63, 0
1, 15801, Note_on_c, 0, 67, 0
1, 15816, Note_on_c, 0, 68, 80
1, 15835, Note_on_c, 0, 68, 0
1, 15840, Note_on_c, 0, 70, 80
1, 15859, Note_on_c, 0, 70, 0
1, 15864, Note_on_c, 0, 72, 80
1, 15883, Note_on_c, 0, 72, 0
1, 15888, Note_on_c, 0, 74, 80
1, 15897, Note_on_c, 0, 39, 0
1, 15907, Note_on_c, 0, 74, 0
1, 15912, Note_on_c, 0, 75, 80
1, 15931, Note_on_c, 0, 75, 0
1, 15936, Note_on_c, 0, 70, 80
1, 15974, Note_on_c, 0, 70, 0
1, 16032, Note_on_c, 0, 75, 80
1, 16051, Note_on_c, 0, 75, 0
1, 16056, Note_on_c, 0, 74, 80
1, 16075, Note_on_c, 0, 74, 0
1, 16080, Note_on_c, 0, 73, 80
1, 16099, Note_on_c, 0, 73, 0
1, 16104, Note_on_c, 0, 72, 80
1, 16123, Note_on_c, 0, 72, 0
1, 16128, Note_on_c, 0, 71, 80
1, 16166, Note_on_c, 0, 71, 0
1, 16176, Note_on_c, 0, 63, 80
1, 16176, Note_on_c, 0, 55, 80
1, 16214, Note_on_c, 0, 55, 0
1, 16214, Note_on_c, 0, 63, 0
1, 16224, Note_on_c, 0, 75, 80
1, 16243, Note_on_c, 0, 75, 0
1, 16248, Note_on_c, 0, 74, 80
1, 16267, Note_on_c, 0, 74, 0
1, 16272, Note_on_c, 0, 73, 80
1, 16291, Note_on_c, 0, 73, 0
1, 16296, Note_on_c, 0, 72, 80
1, 16315, Note_on_c, 0, 72, 0
1, 16320, Note_on_c, 0, 71, 80
1, 16358, Note_on_c, 0, 71, 0
1, 16368, Note_on_c, 0, 63, 80
1, 16368, Note_on_c, 0, 55, 80
1, 16406, Note_on_c, 0, 55, 0
1, 16406, Note_on_c, 0, 63, 0
1, 16416, Note_on_c, 0, 75, 80
1, 16435, Note_on_c, 0, 75, 0
1, 16440, Note_on_c, 0, 74, 80
1, 16459, Note_on_c, 0, 74, 0
1, 16464, Note_on_c, 0, 73, 80
1, 16483, Note_on_c, 0, 73, 0
1, 16488, Note_on_c, 0, 72, 80
1, 16507, Note_on_c, 0, 72, 0
1, 16512, Note_on_c, 0, 71, 80
1, 16512, Note_on_c, 0, 55, 80
1, 16512, Note_on_c, 0, 61, 80
1, 16512, Note_on_c, 0, 63, 80
1, 16665, Note_on_c, 0, 61, 0
1, 16665, Note_on_c, 0, 55, 0
1, 16665, Note_on_c, 0, 71, 0
1, 16704, Note_on_c, 0, 72, 80
1, 16704, Note_on_c, 0, 56, 80
1, 16704, Note_on_c, 0, 60, 80
1, 16742, Note_on_c, 0, 72, 0
1, 16780, Note_on_c, 0, 63, 0
1, 16780, Note_on_c, 0, 56, 0
1, 16780, Note_on_c, 0, 60, 0
1, 16800, Note_on_c, 0, 65, 80
1, 16819, Note_on_c, 0, 65, 0
1, 16824, Note_on_c, 0, 67, 80
1, 16843, Note_on_c, 0, 67, 0
1, 16848, Note_on_c, 0, 68, 80
1, 16867, Note_on_c, 0, 68, 0
1, 16872, Note_on_c, 0, 69, 80
1, 16891, Note_on_c, 0, 69, 0
1, 16896, Note_on_c, 0, 70, 80
1, 16992, Note_on_c, 0, 43, 80
1, 16992, Note_on_c, 0, 51, 80
1, 17011, Note_on_c, 0, 70, 0
1, 17016, Note_on_c, 0, 74, 80
1, 17025, Note_on_c, 0, 74, 0
1, 17028, Note_on_c, 0, 72, 80
1, 17037, Note_on_c, 0, 72, 0
1, 17040, Note_on_c, 0, 75, 80
1, 17049, Note_on_c, 0, 75, 0
1, 17052, Note_on_c, 0, 74, 80
1, 17061, Note_on_c, 0, 74, 0
1, 17064, Note_on_c, 0, 77, 80
1, 17068, Note_on_c, 0, 43, 0
1, 17068, Note_on_c, 0, 51, 0
1, 17073, Note_on_c, 0, 77, 0
1, 17076, Note_on_c, 0, 75, 80
1, 17085, Note_on_c, 0, 75, 0
1, 17088, Note_on_c, 0, 63, 80
1, 17088, Note_on_c, 0, 46, 80
1, 17088, Note_on_c, 0, 55, 80
1, 17088, Note_on_c, 0, 58, 80
1, 17164, Note_on_c, 0, 55, 0
1, 17164, Note_on_c, 0, 46, 0
1, 17184, Note_on_c, 0, 56, 80
1, 17203, Note_on_c, 0, 63, 0
1, 17203, Note_on_c, 0, 58, 0
1, 17232, Note_on_c, 0, 62, 80
1, 17232, Note_on_c, 0, 67, 80
1, 17251, Note_on_c, 0, 67, 0
1, 17251, Note_on_c, 0, 62, 0
1, 17256, Note_on_c, 0, 65, 80
1, 17260, Note_on_c, 0, 56, 0
1, 17275, Note_on_c, 0, 65, 0
1, 17280, Note_on_c, 0, 51, 80
1, 17280, Note_on_c, 0, 63, 80
1, 17280, Note_on_c, 0, 55, 80
1, 17356, Note_on_c, 0, 55, 0
1, 17356, Note_on_c, 0, 63, 0
1, 17356, Note_on_c, 0, 51, 0
1, 17376, Note_on_c, 0, 55, 80
1, 17376, Note_on_c, 0, 51, 80
1, 17376, Note_on_c, 0, 63, 80
1, 17452, Note_on_c, 0, 63, 0
1, 17452, Note_on_c, 0, 51, 0
1, 17452, Note_on_c, 0, 55, 0
1, 17664, Note_on_c, 0, 32, 80
1, 17664, Note_on_c, 0, 60, 80
1, 17664, Note_on_c, 0, 51, 80
1, 17702, Note_on_c, 0, 32, 0
1, 17712, Note_on_c, 0, 44, 80
1, 17750, Note_on_c, 0, 44, 0
1, 17760, Note_on_c, 0, 44, 80
1, 17798, Note_on_c, 0, 44, 0
1, 17808, Note_on_c, 0, 44, 80
1, 17817, Note_on_c, 0, 60, 0
1, 17817, Note_on_c, 0, 51, 0
1, 17846, Note_on_c, 0, 44, 0
1, 17856, Note_on_c, 0, 44, 80
1, 17856, Note_on_c, 0, 58, 80
1, 17856, Note_on_c, 0, 49, 80
1, 17894, Note_on_c, 0, 44, 0
1, 17904, Note_on_c, 0, 44, 80
1, 17942, Note_on_c, 0, 44, 0
1, 17952, Note_on_c, 0, 44, 80
1, 17990, Note_on_c, 0, 44, 0
1, 18000, Note_on_c, 0, 44, 80
1, 18009, Note_on_c, 0, 58, 0
1, 18009, Note_on_c, 0, 49, 0
1, 18038, Note_on_c, 0, 44, 0
1, 18048, Note_on_c, 0, 48, 80
1, 18048, Note_on_c, 0, 56, 80
1, 18048, Note_on_c, 0, 44, 80
1, 18048, Note_on_c, 0, 63, 80
1, 18086, Note_on_c, 0, 44, 0
1, 18086, Note_on_c, 0, 48, 0
1, 18096, Note_on_c, 0, 44, 80
1, 18134, Note_on_c, 0, 44, 0
1, 18144, Note_on_c, 0, 44, 80
1, 18182, Note_on_c, 0, 44, 0
1, 18192, Note_on_c, 0, 44, 80
1, 18201, Note_on_c, 0, 56, 0
1, 18230, Note_on_c, 0, 44, 0
1, 18240, Note_on_c, 0, 46, 80
1, 18240, Note_on_c, 0, 39, 80
1, 18240, Note_on_c, 0, 55, 80
1, 18259, Note_on_c, 0, 63, 0
1, 18264, Note_on_c, 0, 65, 80
1, 18278, Note_on_c, 0, 46, 0
1, 18278, Note_on_c, 0, 39, 0
1, 18283, Note_on_c, 0, 65, 0
1, 18288, Note_on_c, 0, 39, 80
1, 18288, Note_on_c, 0, 63, 80
1, 18307, Note_on_c, 0, 63, 0
1, 18312, Note_on_c, 0, 65, 80
1, 18326, Note_on_c, 0, 39, 0
1, 18331, Note_on_c, 0, 65, 0
1, 18336, Note_on_c, 0, 39, 80
1, 18336, Note_on_c, 0, 61, 80
1, 18355, Note_on_c, 0, 61, 0
1, 18360, Note_on_c, 0, 63, 80
1, 18374, Note_on_c, 0, 39, 0
1, 18379, Note_on_c, 0, 63, 0
1, 18384, Note_on_c, 0, 39, 80
1, 18384, Note_on_c, 0, 61, 80
1, 18393, Note_on_c, 0, 55, 0
1, 18403, Note_on_c, 0, 61, 0
1, 18408, Note_on_c, 0, 63, 80
1, 18422, Note_on_c, 0, 39, 0
1, 18427, Note_on_c, 0, 63, 0
1, 18432, Note_on_c, 0, 51, 80
1, 18432, Note_on_c, 0, 60, 80
1, 18432, Note_on_c, 0, 32, 80
1, 18470, Note_on_c, 0, 32, 0
1, 18480, Note_on_c, 0, 44, 80
1, 18518, Note_on_c, 0, 44, 0
1, 18528, Note_on_c, 0, 44, 80
1, 18566, Note_on_c, 0, 44, 0
1, 18576, Note_on_c, 0, 44, 80
1, 18585, Note_on_c, 0, 60, 0
1, 18585, Note_on_c, 0, 51, 0
1, 18614, Note_on_c, 0, 44, 0
1, 18624, Note_on_c, 0, 44, 80
1, 18624, Note_on_c, 0, 58, 80
1, 18624, Note_on_c, 0, 49, 80
1, 18662, Note_on_c, 0, 44, 0
1, 18672, Note_on_c, 0, 44, 80
1, 18710, Note_on_c, 0, 44, 0
1, 18720, Note_on_c, 0, 44, 80
1, 18758, Note_on_c, 0, 44, 0
1, 18768, Note_on_c, 0, 44, 80
1, 18777, Note_on_c, 0, 58, 0
1, 18777, Note_on_c, 0, 49, 0
1, 18806, Note_on_c, 0, 44, 0
1, 18816, Note_on_c, 0, 56, 80
1, 18816, Note_on_c, 0, 63, 80
1, 18816, Note_on_c, 0, 44, 80
1, 18816, Note_on_c, 0, 48, 80
1, 18854, Note_on_c, 0, 48, 0
1, 18854, Note_on_c, 0, 44, 0
1, 18864, Note_on_c, 0, 44, 80
1, 18902, Note_on_c, 0, 44, 0
1, 18912, Note_on_c, 0, 44, 80
1, 18950, Note_on_c, 0, 44, 0
1, 18960, Note_on_c, 0, 44, 80
1, 18969, Note_on_c, 0, 56, 0
1, 18998, Note_on_c, 0, 44, 0
1, 19008, Note_on_c, 0, 46, 80
1, 19008, Note_on_c, 0, 39, 80
1, 19008, Note_on_c, 0, 55, 80
1, 19027, Note_on_c, 0, 63, 0
1, 19032, Note_on_c, 0, 65, 80
1, 19046, Note_on_c, 0, 46, 0
1, 19046, Note_on_c, 0, 39, 0
1, 19051, Note_on_c, 0, 65, 0
1, 19056, Note_on_c, 0, 39, 80
1, 19056, Note_on_c, 0, 63, 80
1, 19075, Note_on_c, 0, 63, 0
1, 19080, Note_on_c, 0, 65, 80
1, 19094, Note_on_c, 0, 39, 0
1, 19099, Note_on_c, 0, 65, 0
1, 19104, Note_on_c, 0, 39, 80
1, 19104, Note_on_c, 0, 61, 80
1, 19123, Note_on_c, 0, 61, 0
1, 19128, Note_on_c, 0, 63, 80
1, 19142, Note_on_c, 0, 39, 0
1, 19147, Note_on_c, 0, 63, 0
1, 19152, Note_on_c, 0, 39, 80
1, 19152, Note_on_c, 0, 61, 80
1, 19161, Note_on_c, 0, 55, 0
1, 19171, Note_on_c, 0, 61, 0
1, 19176, Note_on_c, 0, 63, 80
1, 19190, Note_on_c, 0, 39, 0
1, 19195, Note_on_c, 0, 63, 0
1, 19200, Note_on_c, 0, 56, 80
1, 19200, Note_on_c, 0, 60, 80
1, 19200, Note_on_c, 0, 44, 80
1, 19238, Note_on_c, 0, 44, 0
1, 19248, Note_on_c, 0, 56, 80
1, 19276, Note_on_c, 0, 60, 0
1, 19276, Note_on_c, 0, 56, 0
1, 19286, Note_on_c, 0, 56, 0
1, 19296, Note_on_c, 0, 60, 80
1, 19296, Note_on_c, 0, 68, 80
1, 19296, Note_on_c, 0, 56, 80
1, 19334, Note_on_c, 0, 56, 0
1, 19344, Note_on_c, 0, 56, 80
1, 19382, Note_on_c, 0, 56, 0
1, 19392, Note_on_c, 0, 56, 80
1, 19430, Note_on_c, 0, 56, 0
1, 19440, Note_on_c, 0, 56, 80
1, 19449, Note_on_c, 0, 68, 0
1, 19449, Note_on_c, 0, 60, 0
1, 19478, Note_on_c, 0, 56, 0
1, 19488, Note_on_c, 0, 67, 80
1, 19488, Note_on_c, 0, 63, 80
1, 19488, Note_on_c, 0, 56, 80
1, 19526, Note_on_c, 0, 56, 0
1, 19536, Note_on_c, 0, 56, 80
1, 19564, Note_on_c, 0, 63, 0
1, 19564, Note_on_c, 0, 67, 0
1, 19574, Note_on_c, 0, 56, 0
1, 19584, Note_on_c, 0, 63, 80
1, 19584, Note_on_c, 0, 56, 80
1, 19584, Note_on_c, 0, 67, 80
1, 19622, Note_on_c, 0, 67, 0
1, 19622, Note_on_c, 0, 63, 0
1, 19632, Note_on_c, 0, 61, 80
1, 19632, Note_on_c, 0, 65, 80
1, 19670, Note_on_c, 0, 65, 0
1, 19670, Note_on_c, 0, 61, 0
1, 19680, Note_on_c, 0, 63, 80
1, 19680, Note_on_c, 0, 60, 80
1, 19737, Note_on_c, 0, 56, 0
1, 19756, Note_on_c, 0, 63, 0
1, 19756, Note_on_c, 0, 60, 0
1, 19776, Note_on_c, 0, 74, 80
1, 19814, Note_on_c, 0, 74, 0
1, 19824, Note_on_c, 0, 75, 80
1, 19862, Note_on_c, 0, 75, 0
1, 19872, Note_on_c, 0, 77, 80
1, 19910, Note_on_c, 0, 77, 0
1, 19920, Note_on_c, 0, 75, 80
1, 19958, Note_on_c, 0, 75, 0
1, 19968, Note_on_c, 0, 75, 80
1, 19968, Note_on_c, 0, 51, 80
1, 20006, Note_on_c, 0, 51, 0
1, 20006, Note_on_c, 0, 75, 0
1, 20016, Note_on_c, 0, 58, 80
1, 20016, Note_on_c, 0, 67, 80
1, 20054, Note_on_c, 0, 67, 0
1, 20054, Note_on_c, 0, 58, 0
1, 20064, Note_on_c, 0, 67, 80
1, 20064, Note_on_c, 0, 61, 80
1, 20102, Note_on_c, 0, 61, 0
1, 20112, Note_on_c, 0, 58, 80
1, 20140, Note_on_c, 0, 67, 0
1, 20150, Note_on_c, 0, 58, 0
1, 20160, Note_on_c, 0, 51, 80
1, 20160, Note_on_c, 0, 67, 80
1, 20198, Note_on_c, 0, 67, 0
1, 20198, Note_on_c, 0, 51, 0
1, 20208, Note_on_c, 0, 67, 80
1, 20208, Note_on_c, 0, 58, 80
1, 20246, Note_on_c, 0, 58, 0
1, 20246, Note_on_c, 0, 67, 0
1, 20256, Note_on_c, 0, 61, 80
1, 20256, Note_on_c, 0, 68, 80
1, 20294, Note_on_c, 0, 68, 0
1, 20294, Note_on_c, 0, 61, 0
1, 20304, Note_on_c, 0, 70, 80
1, 20304, Note_on_c, 0, 58, 80
1, 20342, Note_on_c, 0, 58, 0
1, 20342, Note_on_c, 0, 70, 0
1, 20352, Note_on_c, 0, 58, 80
1, 20352, Note_on_c, 0, 70, 80
1, 20390, Note_on_c, 0, 58, 0
1, 20400, Note_on_c, 0, 51, 80
1, 20409, Note_on_c, 0, 70, 0
1, 20424, Note_on_c, 0, 72, 80
1, 20438, Note_on_c, 0, 51, 0
1, 20443, Note_on_c, 0, 72, 0
1, 20448, Note_on_c, 0, 56, 80
1, 20448, Note_on_c, 0, 68, 80
1, 20486, Note_on_c, 0, 56, 0
1, 20496, Note_on_c, 0, 60, 80
1, 20524, Note_on_c, 0, 68, 0
1, 20534, Note_on_c, 0, 60, 0
1, 20544, Note_on_c, 0, 56, 80
1, 20544, Note_on_c, 0, 74, 80
1, 20563, Note_on_c, 0, 74, 0
1, 20568, Note_on_c, 0, 75, 80
1, 20582, Note_on_c, 0, 56, 0
1, 20587, Note_on_c, 0, 75, 0
1, 20592, Note_on_c, 0, 51, 80
1, 20592, Note_on_c, 0, 74, 80
1, 20611, Note_on_c, 0, 74, 0
1, 20616, Note_on_c, 0, 75, 80
1, 20630, Note_on_c, 0, 51, 0
1, 20635, Note_on_c, 0, 75, 0
1, 20640, Note_on_c, 0, 56, 80
1, 20640, Note_on_c, 0, 74, 80
1, 20659, Note_on_c, 0, 74, 0
1, 20664, Note_on_c, 0, 75, 80
1, 20678, Note_on_c, 0, 56, 0
1, 20683, Note_on_c, 0, 75, 0
1, 20688, Note_on_c, 0, 60, 80
1, 20688, Note_on_c, 0, 77, 80
1, 20707, Note_on_c, 0, 77, 0
1, 20712, Note_on_c, 0, 75, 80
1, 20726, Note_on_c, 0, 60, 0
1, 20731, Note_on_c, 0, 75, 0
1, 20736, Note_on_c, 0, 75, 80
1, 20736, Note_on_c, 0, 56, 80
1, 20774, Note_on_c, 0, 56, 0
1, 20774, Note_on_c, 0, 75, 0
1, 20784, Note_on_c, 0, 51, 80
1, 20784, Note_on_c, 0, 70, 80
1, 20822, Note_on_c, 0, 70, 0
1, 20822, Note_on_c, 0, 51, 0
1, 20832, Note_on_c, 0, 70, 80
1, 20832, Note_on_c, 0, 55, 80
1, 20870, Note_on_c, 0, 55, 0
1, 20880, Note_on_c, 0, 58, 80
1, 20908, Note_on_c, 0, 70, 0
1, 20918, Note_on_c, 0, 58, 0
1, 20928, Note_on_c, 0, 55, 80
1, 20928, Note_on_c, 0, 70, 80
1, 20966, Note_on_c, 0, 70, 0
1, 20966, Note_on_c, 0, 55, 0
1, 20976, Note_on_c, 0, 51, 80
1, 20976, Note_on_c, 0, 70, 80
1, 21014, Note_on_c, 0, 70, 0
1, 21014, Note_on_c, 0, 51, 0
1, 21024, Note_on_c, 0, 72, 80
1, 21024, Note_on_c, 0, 55, 80
1, 21062, Note_on_c, 0, 55, 0
1, 21062, Note_on_c, 0, 72, 0
1, 21072, Note_on_c, 0, 73, 80
1, 21072, Note_on_c, 0, 58, 80
1, 21110, Note_on_c, 0, 58, 0
1, 21110, Note_on_c, 0, 73, 0
1, 21120, Note_on_c, 0, 55, 80
1, 21120, Note_on_c, 0, 71, 80
1, 21158, Note_on_c, 0, 55, 0
1, 21168, Note_on_c, 0, 56, 80
1, 21196, Note_on_c, 0, 71, 0
1, 21206, Note_on_c, 0, 56, 0
1, 21216, Note_on_c, 0, 72, 80
1, 21216, Note_on_c, 0, 60, 80
1, 21254, Note_on_c, 0, 60, 0
1, 21254, Note_on_c, 0, 72, 0
1, 21264, Note_on_c, 0, 56, 80
1, 21302, Note_on_c, 0, 56, 0
1, 21312, Note_on_c, 0, 71, 80
1, 21312, Note_on_c, 0, 51, 80
1, 21331, Note_on_c, 0, 71, 0
1, 21336, Note_on_c, 0, 72, 80
1, 21355, Note_on_c, 0, 72, 0
1, 21360, Note_on_c, 0, 71, 80
1, 21379, Note_on_c, 0, 71, 0
1, 21384, Note_on_c, 0, 72, 80
1, 21388, Note_on_c, 0, 51, 0
1, 21403, Note_on_c, 0, 72, 0
1, 21408, Note_on_c, 0, 71, 80
1, 21427, Note_on_c, 0, 71, 0
1, 21432, Note_on_c, 0, 72, 80
1, 21451, Note_on_c, 0, 72, 0
1, 21456, Note_on_c, 0, 73, 80
1, 21475, Note_on_c, 0, 73, 0
1, 21480, Note_on_c, 0, 72, 80
1, 21499, Note_on_c, 0, 72, 0
1, 21504, Note_on_c, 0, 77, 80
1, 21504, Note_on_c, 0, 70, 80
1, 21504, Note_on_c, 0, 80, 80
1, 21504, Note_on_c, 0, 74, 80
1, 21504, Note_on_c, 0, 50, 80
1, 21542, Note_on_c, 0, 50, 0
1, 21552, Note_on_c, 0, 53, 80
1, 21590, Note_on_c, 0, 53, 0
1, 21600, Note_on_c, 0, 58, 80
1, 21638, Note_on_c, 0, 58, 0
1, 21648, Note_on_c, 0, 53, 80
1, 21657, Note_on_c, 0, 74, 0
1, 21657, Note_on_c, 0, 80, 0
1, 21657, Note_on_c, 0, 70, 0
1, 21657, Note_on_c, 0, 77, 0
1, 21686, Note_on_c, 0, 53, 0
1, 21696, Note_on_c, 0, 50, 80
1, 21696, Note_on_c, 0, 80, 80
1, 21772, Note_on_c, 0, 50, 0
1, 21849, Note_on_c, 0, 80, 0
1, 21888, Note_on_c, 0, 79, 80
1, 21907, Note_on_c, 0, 79, 0
1, 21912, Note_on_c, 0, 80, 80
1, 21931, Note_on_c, 0, 80, 0
1, 21936, Note_on_c, 0, 82, 80
1, 21955, Note_on_c, 0, 82, 0
1, 21960, Note_on_c, 0, 80, 80
1, 21979, Note_on_c, 0, 80, 0
1, 21984, Note_on_c, 0, 79, 80
1, 22003, Note_on_c, 0, 79, 0
1, 22008, Note_on_c, 0, 77, 80
1, 22017, Note_on_c, 0, 77, 0
1, 22020, Note_on_c, 0, 75, 80
1, 22029, Note_on_c, 0, 75, 0
1, 22032, Note_on_c, 0, 74, 80
1, 22041, Note_on_c, 0, 74, 0
1, 22044, Note_on_c, 0, 72, 80
1, 22053, Note_on_c, 0, 72, 0
1, 22056, Note_on_c, 0, 70, 80
1, 22065, Note_on_c, 0, 70, 0
1, 22068, Note_on_c, 0, 68, 80
1, 22077, Note_on_c, 0, 68, 0
1, 22080, Note_on_c, 0, 67, 80
1, 22089, Note_on_c, 0, 67, 0
1, 22092, Note_on_c, 0, 65, 80
1, 22101, Note_on_c, 0, 65, 0
1, 22104, Note_on_c, 0, 63, 80
1, 22113, Note_on_c, 0, 63, 0
1, 22116, Note_on_c, 0, 62, 80
1, 22125, Note_on_c, 0, 62, 0
1, 22128, Note_on_c, 0, 60, 80
1, 22137, Note_on_c, 0, 60, 0
1, 22140, Note_on_c, 0, 58, 80
1, 22149, Note_on_c, 0, 58, 0
1, 22152, Note_on_c, 0, 56, 80
1, 22161, Note_on_c, 0, 56, 0
1, 22164, Note_on_c, 0, 55, 80
1, 22240, Note_on_c, 0, 55, 0
1, 22260, Note_on_c, 0, 53, 80
1, 22279, Note_on_c, 0, 53, 0
1, 22284, Note_on_c, 0, 51, 80
1, 22303, Note_on_c, 0, 51, 0
1, 22308, Note_on_c, 0, 50, 80
1, 22327, Note_on_c, 0, 50, 0
1, 22332, Note_on_c, 0, 51, 80
1, 22351, Note_on_c, 0, 51, 0
1, 22356, Note_on_c, 0, 53, 80
1, 22375, Note_on_c, 0, 53, 0
1, 22380, Note_on_c, 0, 55, 80
1, 22399, Note_on_c, 0, 55, 0
1, 22404, Note_on_c, 0, 56, 80
1, 22423, Note_on_c, 0, 56, 0
1, 22428, Note_on_c, 0, 58, 80
1, 22447, Note_on_c, 0, 58, 0
1, 22452, Note_on_c, 0, 60, 80
1, 22461, Note_on_c, 0, 60, 0
1, 22464, Note_on_c, 0, 62, 80
1, 22473, Note_on_c, 0, 62, 0
1, 22476, Note_on_c, 0, 63, 80
1, 22485, Note_on_c, 0, 63, 0
1, 22488, Note_on_c, 0, 65, 80
1, 22497, Note_on_c, 0, 65, 0
1, 22500, Note_on_c, 0, 67, 80
1, 22509, Note_on_c, 0, 67, 0
1, 22512, Note_on_c, 0, 68, 80
1, 22521, Note_on_c, 0, 68, 0
1, 22524, Note_on_c, 0, 70, 80
1, 22533, Note_on_c, 0, 70, 0
1, 22536, Note_on_c, 0, 72, 80
1, 22545, Note_on_c, 0, 72, 0
1, 22548, Note_on_c, 0, 74, 80
1, 22557, Note_on_c, 0, 74, 0
1, 22560, Note_on_c, 0, 75, 80
1, 22569, Note_on_c, 0, 75, 0
1, 22572, Note_on_c, 0, 77, 80
1, 22581, Note_on_c, 0, 77, 0
1, 22584, Note_on_c, 0, 79, 80
1, 22593, Note_on_c, 0, 79, 0
1, 22596, Note_on_c, 0, 80, 80
1, 22605, Note_on_c, 0, 80, 0
1, 22608, Note_on_c, 0, 82, 80
1, 22617, Note_on_c, 0, 82, 0
1, 22620, Note_on_c, 0, 84, 80
1, 22629, Note_on_c, 0, 84, 0
1, 22632, Note_on_c, 0, 86, 80
1, 22641, Note_on_c, 0, 86, 0
1, 22656, Note_on_c, 0, 87, 80
1, 22656, Note_on_c, 0, 48, 80
1, 22694, Note_on_c, 0, 48, 0
1, 22704, Note_on_c, 0, 51, 80
1, 22732, Note_on_c, 0, 87, 0
1, 22742, Note_on_c, 0, 51, 0
1, 22752, Note_on_c, 0, 57, 80
1, 22752, Note_on_c, 0, 87, 80
1, 22790, Note_on_c, 0, 57, 0
1, 22800, Note_on_c, 0, 51, 80
1, 22838, Note_on_c, 0, 51, 0
1, 22848, Note_on_c, 0, 48, 80
1, 22905, Note_on_c, 0, 87, 0
1, 22924, Note_on_c, 0, 48, 0
1, 22944, Note_on_c, 0, 86, 80
1, 22963, Note_on_c, 0, 86, 0
1, 22968, Note_on_c, 0, 87, 80
1, 22987, Note_on_c, 0, 87, 0
1, 22992, Note_on_c, 0, 89, 80
1, 23011, Note_on_c, 0, 89, 0
1, 23016, Note_on_c, 0, 87, 80
1, 23035, Note_on_c, 0, 87, 0
1, 23040, Note_on_c, 0, 86, 80
1, 23059, Note_on_c, 0, 86, 0
1, 23064, Note_on_c, 0, 84, 80
1, 23083, Note_on_c, 0, 84, 0
1, 23088, Note_on_c, 0, 82, 80
1, 23107, Note_on_c, 0, 82, 0
1, 23112, Note_on_c, 0, 81, 80
1, 23121, Note_on_c, 0, 81, 0
1, 23124, Note_on_c, 0, 79, 80
1, 23133, Note_on_c, 0, 79, 0
1, 23136, Note_on_c, 0, 77, 80
1, 23145, Note_on_c, 0, 77, 0
1, 23148, Note_on_c, 0, 75, 80
1, 23157, Note_on_c, 0, 75, 0
1, 23160, Note_on_c, 0, 74, 80
1, 23169, Note_on_c, 0, 74, 0
1, 23172, Note_on_c, 0, 72, 80
1, 23181, Note_on_c, 0, 72, 0
1, 23184, Note_on_c, 0, 70, 80
1, 23193, Note_on_c, 0, 70, 0
1, 23196, Note_on_c, 0, 69, 80
1, 23205, Note_on_c, 0, 69, 0
1, 23208, Note_on_c, 0, 67, 80
1, 23217, Note_on_c, 0, 67, 0
1, 23220, Note_on_c, 0, 65, 80
1, 23229, Note_on_c, 0, 65, 0
1, 23232, Note_on_c, 0, 62, 80
1, 23270, Note_on_c, 0, 62, 0
1, 23280, Note_on_c, 0, 65, 80
1, 23318, Note_on_c, 0, 65, 0
1, 23328, Note_on_c, 0, 70, 80
1, 23404, Note_on_c, 0, 70, 0
1, 23424, Note_on_c, 0, 70, 80
1, 23510, Note_on_c, 0, 70, 0
1, 23520, Note_on_c, 0, 75, 80
1, 23558, Note_on_c, 0, 75, 0
1, 23568, Note_on_c, 0, 72, 80
1, 23606, Note_on_c, 0, 72, 0
1, 23616, Note_on_c, 0, 65, 80
1, 23616, Note_on_c, 0, 62, 80
1, 23616, Note_on_c, 0, 70, 80
1, 23654, Note_on_c, 0, 70, 0
1, 23654, Note_on_c, 0, 62, 0
1, 23654, Note_on_c, 0, 65, 0
1, 23664, Note_on_c, 0, 75, 80
1, 23702, Note_on_c, 0, 75, 0
1, 23712, Note_on_c, 0, 66, 80
1, 23712, Note_on_c, 0, 71, 80
1, 23712, Note_on_c, 0, 63, 80
1, 23750, Note_on_c, 0, 71, 0
1, 23760, Note_on_c, 0, 69, 80
1, 23788, Note_on_c, 0, 66, 0
1, 23788, Note_on_c, 0, 63, 0
1, 23798, Note_on_c, 0, 69, 0
1, 23808, Note_on_c, 0, 70, 80
1, 23808, Note_on_c, 0, 65, 80
1, 23808, Note_on_c, 0, 62, 80
1, 23846, Note_on_c, 0, 62, 0
1, 23846, Note_on_c, 0, 65, 0
1, 23846, Note_on_c, 0, 70, 0
1, 23856, Note_on_c, 0, 75, 80
1, 23894, Note_on_c, 0, 75, 0
1, 23904, Note_on_c, 0, 63, 80
1, 23904, Note_on_c, 0, 71, 80
1, 23904, Note_on_c, 0, 66, 80
1, 23942, Note_on_c, 0, 71, 0
1, 23952, Note_on_c, 0, 69, 80
1, 23980, Note_on_c, 0, 63, 0
1, 23980, Note_on_c, 0, 66, 0
1, 23990, Note_on_c, 0, 69, 0
1, 24000, Note_on_c, 0, 65, 80
1, 24000, Note_on_c, 0, 70, 80
1, 24000, Note_on_c, 0, 62, 80
1, 24038, Note_on_c, 0, 62, 0
1, 24038, Note_on_c, 0, 70, 0
1, 24038, Note_on_c, 0, 65, 0
1, 24048, Note_on_c, 0, 70, 80
1, 24086, Note_on_c, 0, 70, 0
1, 24096, Note_on_c, 0, 69, 80
1, 24134, Note_on_c, 0, 69, 0
1, 24144, Note_on_c, 0, 70, 80
1, 24182, Note_on_c, 0, 70, 0
1, 24192, Note_on_c, 0, 69, 80
1, 24230, Note_on_c, 0, 69, 0
1, 24240, Note_on_c, 0, 70, 80
1, 24278, Note_on_c, 0, 70, 0
1, 24288, Note_on_c, 0, 71, 80
1, 24326, Note_on_c, 0, 71, 0
1, 24336, Note_on_c, 0, 70, 80
1, 24374, Note_on_c, 0, 70, 0
1, 24384, Note_on_c, 0, 42, 80
1, 24384, Note_on_c, 0, 70, 80
1, 24384, Note_on_c, 0, 61, 80
1, 24422, Note_on_c, 0, 42, 0
1, 24432, Note_on_c, 0, 54, 80
1, 24470, Note_on_c, 0, 54, 0
1, 24480, Note_on_c, 0, 54, 80
1, 24518, Note_on_c, 0, 54, 0
1, 24528, Note_on_c, 0, 54, 80
1, 24537, Note_on_c, 0, 70, 0
1, 24537, Note_on_c, 0, 61, 0
1, 24566, Note_on_c, 0, 54, 0
1, 24576, Note_on_c, 0, 54, 80
1, 24576, Note_on_c, 0, 68, 80
1, 24576, Note_on_c, 0, 59, 80
1, 24614, Note_on_c, 0, 54, 0
1, 24624, Note_on_c, 0, 54, 80
1, 24662, Note_on_c, 0, 54, 0
1, 24672, Note_on_c, 0, 54, 80
1, 24710, Note_on_c, 0, 54, 0
1, 24720, Note_on_c, 0, 54, 80
1, 24729, Note_on_c, 0, 68, 0
1, 24729, Note_on_c, 0, 59, 0
1, 24758, Note_on_c, 0, 54, 0
1, 24768, Note_on_c, 0, 73, 80
1, 24768, Note_on_c, 0, 66, 80
1, 24768, Note_on_c, 0, 54, 80
1, 24768, Note_on_c, 0, 58, 80
1, 24806, Note_on_c, 0, 58, 0
1, 24806, Note_on_c, 0, 54, 0
1, 24816, Note_on_c, 0, 54, 80
1, 24854, Note_on_c, 0, 54, 0
1, 24864, Note_on_c, 0, 54, 80
1, 24902, Note_on_c, 0, 54, 0
1, 24912, Note_on_c, 0, 54, 80
1, 24921, Note_on_c, 0, 66, 0
1, 24950, Note_on_c, 0, 54, 0
1, 24960, Note_on_c, 0, 56, 80
1, 24960, Note_on_c, 0, 49, 80
1, 24960, Note_on_c, 0, 65, 80
1, 24979, Note_on_c, 0, 73, 0
1, 24984, Note_on_c, 0, 75, 80
1, 24998, Note_on_c, 0, 56, 0
1, 24998, Note_on_c, 0, 49, 0
1, 25003, Note_on_c, 0, 75, 0
1, 25008, Note_on_c, 0, 49, 80
1, 25008, Note_on_c, 0, 73, 80
1, 25027, Note_on_c, 0, 73, 0
1, 25032, Note_on_c, 0, 75, 80
1, 25046, Note_on_c, 0, 49, 0
1, 25051, Note_on_c, 0, 75, 0
1, 25056, Note_on_c, 0, 49, 80
1, 25056, Note_on_c, 0, 71, 80
1, 25075, Note_on_c, 0, 71, 0
1, 25080, Note_on_c, 0, 73, 80
1, 25094, Note_on_c, 0, 49, 0
1, 25099, Note_on_c, 0, 73, 0
1, 25104, Note_on_c, 0, 49, 80
1, 25104, Note_on_c, 0, 71, 80
1, 25113, Note_on_c, 0, 65, 0
1, 25123, Note_on_c, 0, 71, 0
1, 25128, Note_on_c, 0, 73, 80
1, 25142, Note_on_c, 0, 49, 0
1, 25147, Note_on_c, 0, 73, 0
1, 25152, Note_on_c, 0, 70, 80
1, 25152, Note_on_c, 0, 61, 80
1, 25152, Note_on_c, 0, 42, 80
1, 25190, Note_on_c, 0, 42, 0
1, 25200, Note_on_c, 0, 54, 80
1, 25238, Note_on_c, 0, 54, 0
1, 25248, Note_on_c, 0, 54, 80
1, 25286, Note_on_c, 0, 54, 0
1, 25296, Note_on_c, 0, 54, 80
1, 25305, Note_on_c, 0, 61, 0
1, 25305, Note_on_c, 0, 70, 0
1, 25334, Note_on_c, 0, 54, 0
1, 25344, Note_on_c, 0, 68, 80
1, 25344, Note_on_c, 0, 54, 80
1, 25344, Note_on_c, 0, 59, 80
1, 25382, Note_on_c, 0, 54, 0
1, 25392, Note_on_c, 0, 54, 80
1, 25430, Note_on_c, 0, 54, 0
1, 25440, Note_on_c, 0, 54, 80
1, 25478, Note_on_c, 0, 54, 0
1, 25488, Note_on_c, 0, 54, 80
1, 25497, Note_on_c, 0, 68, 0
1, 25497, Note_on_c, 0, 59, 0
1, 25526, Note_on_c, 0, 54, 0
1, 25536, Note_on_c, 0, 58, 80
1, 25536, Note_on_c, 0, 73, 80
1, 25536, Note_on_c, 0, 54, 80
1, 25536, Note_on_c, 0, 66, 80
1, 25574, Note_on_c, 0, 54, 0
1, 25574, Note_on_c, 0, 58, 0
1, 25584, Note_on_c, 0, 54, 80
1, 25622, Note_on_c, 0, 54, 0
1, 25632, Note_on_c, 0, 54, 80
1, 25670, Note_on_c, 0, 54, 0
1, 25680, Note_on_c, 0, 54, 80
1, 25689, Note_on_c, 0, 73, 0
1, 25689, Note_on_c, 0, 66, 0
1, 25718, Note_on_c, 0, 54, 0
1, 25728, Note_on_c, 0, 56, 80
1, 25728, Note_on_c, 0, 49, 80
1, 25728, Note_on_c, 0, 73, 80
1, 25728, Note_on_c, 0, 65, 80
1, 25747, Note_on_c, 0, 73, 0
1, 25752, Note_on_c, 0, 75, 80
1, 25766, Note_on_c, 0, 49, 0
1, 25766, Note_on_c, 0, 56, 0
1, 25771, Note_on_c, 0, 75, 0
1, 25776, Note_on_c, 0, 49, 80
1, 25776, Note_on_c, 0, 73, 80
1, 25795, Note_on_c, 0, 73, 0
1, 25800, Note_on_c, 0, 75, 80
1, 25814, Note_on_c, 0, 49, 0
1, 25819, Note_on_c, 0, 75, 0
1, 25824, Note_on_c, 0, 49, 80
1, 25824, Note_on_c, 0, 71, 80
1, 25843, Note_on_c, 0, 71, 0
1, 25848, Note_on_c, 0, 73, 80
1, 25862, Note_on_c, 0, 49, 0
1, 25867, Note_on_c, 0, 73, 0
1, 25872, Note_on_c, 0, 49, 80
1, 25872, Note_on_c, 0, 71, 80
1, 25881, Note_on_c, 0, 65, 0
1, 25891, Note_on_c, 0, 71, 0
1, 25896, Note_on_c, 0, 73, 80
1, 25910, Note_on_c, 0, 49, 0
1, 25915, Note_on_c, 0, 73, 0
1, 25920, Note_on_c, 0, 70, 80
1, 25920, Note_on_c, 0, 54, 80
1, 25958, Note_on_c, 0, 54, 0
1, 25968, Note_on_c, 0, 61, 80
1, 25996, Note_on_c, 0, 70, 0
1, 26006, Note_on_c, 0, 61, 0
1, 26016, Note_on_c, 0, 73, 80
1, 26016, Note_on_c, 0, 58, 80
1, 26054, Note_on_c, 0, 58, 0
1, 26064, Note_on_c, 0, 61, 80
1, 26102, Note_on_c, 0, 61, 0
1, 26112, Note_on_c, 0, 53, 80
1, 26150, Note_on_c, 0, 53, 0
1, 26160, Note_on_c, 0, 61, 80
1, 26169, Note_on_c, 0, 73, 0
1, 26198, Note_on_c, 0, 61, 0
1, 26208, Note_on_c, 0, 52, 80
1, 26208, Note_on_c, 0, 71, 80
1, 26246, Note_on_c, 0, 71, 0
1, 26246, Note_on_c, 0, 52, 0
1, 26256, Note_on_c, 0, 70, 80
1, 26256, Note_on_c, 0, 61, 80
1, 26294, Note_on_c, 0, 61, 0
1, 26294, Note_on_c, 0, 70, 0
1, 26304, Note_on_c, 0, 51, 80
1, 26304, Note_on_c, 0, 68, 80
1, 26342, Note_on_c, 0, 68, 0
1, 26342, Note_on_c, 0, 51, 0
1, 26352, Note_on_c, 0, 67, 80
1, 26352, Note_on_c, 0, 61, 80
1, 26390, Note_on_c, 0, 61, 0
1, 26390, Note_on_c, 0, 67, 0
1, 26400, Note_on_c, 0, 51, 80
1, 26438, Note_on_c, 0, 51, 0
1, 26448, Note_on_c, 0, 61, 80
1, 26472, Note_on_c, 0, 67, 80
1, 26486, Note_on_c, 0, 61, 0
1, 26491, Note_on_c, 0, 67, 0
1, 26496, Note_on_c, 0, 51, 80
1, 26496, Note_on_c, 0, 70, 80
1, 26534, Note_on_c, 0, 51, 0
1, 26544, Note_on_c, 0, 59, 80
1, 26553, Note_on_c, 0, 70, 0
1, 26568, Note_on_c, 0, 68, 80
1, 26582, Note_on_c, 0, 59, 0
1, 26587, Note_on_c, 0, 68, 0
1, 26592, Note_on_c, 0, 51, 80
1, 26592, Note_on_c, 0, 71, 80
1, 26630, Note_on_c, 0, 51, 0
1, 26637, Note_on_c, 0, 71, 0
1, 26640, Note_on_c, 0, 55, 80
1, 26640, Note_on_c, 0, 70, 80
1, 26663, Note_on_c, 0, 70, 0
1, 26678, Note_on_c, 0, 55, 0
1, 26688, Note_on_c, 0, 56, 80
1, 26688, Note_on_c, 0, 73, 80
1, 26726, Note_on_c, 0, 56, 0
1, 26736, Note_on_c, 0, 63, 80
1, 26745, Note_on_c, 0, 73, 0
1, 26760, Note_on_c, 0, 71, 80
1, 26774, Note_on_c, 0, 63, 0
1, 26779, Note_on_c, 0, 71, 0
1, 26784, Note_on_c, 0, 59, 80
1, 26784, Note_on_c, 0, 75, 80
1, 26822, Note_on_c, 0, 59, 0
1, 26832, Note_on_c, 0, 63, 80
1, 26870, Note_on_c, 0, 63, 0
1, 26880, Note_on_c, 0, 55, 80
1, 26918, Note_on_c, 0, 75, 0
1, 26918, Note_on_c, 0, 55, 0
1, 26928, Note_on_c, 0, 63, 80
1, 26928, Note_on_c, 0, 74, 80
1, 26947, Note_on_c, 0, 74, 0
1, 26952, Note_on_c, 0, 75, 80
1, 26966, Note_on_c, 0, 63, 0
1, 26971, Note_on_c, 0, 75, 0
1, 26976, Note_on_c, 0, 77, 80
1, 26976, Note_on_c, 0, 54, 80
1, 26995, Note_on_c, 0, 77, 0
1, 27000, Note_on_c, 0, 75, 80
1, 27014, Note_on_c, 0, 54, 0
1, 27019, Note_on_c, 0, 75, 0
1, 27024, Note_on_c, 0, 73, 80
1, 27024, Note_on_c, 0, 63, 80
1, 27043, Note_on_c, 0, 73, 0
1, 27048, Note_on_c, 0, 72, 80
1, 27062, Note_on_c, 0, 63, 0
1, 27067, Note_on_c, 0, 72, 0
1, 27072, Note_on_c, 0, 53, 80
1, 27072, Note_on_c, 0, 70, 80
1, 27110, Note_on_c, 0, 70, 0
1, 27110, Note_on_c, 0, 53, 0
1, 27120, Note_on_c, 0, 69, 80
1, 27120, Note_on_c, 0, 63, 80
1, 27158, Note_on_c, 0, 63, 0
1, 27158, Note_on_c, 0, 69, 0
1, 27168, Note_on_c, 0, 53, 80
1, 27206, Note_on_c, 0, 53, 0
1, 27216, Note_on_c, 0, 63, 80
1, 27240, Note_on_c, 0, 68, 80
1, 27254, Note_on_c, 0, 63, 0
1, 27259, Note_on_c, 0, 68, 0
1, 27264, Note_on_c, 0, 53, 80
1, 27264, Note_on_c, 0, 72, 80
1, 27302, Note_on_c, 0, 53, 0
1, 27312, Note_on_c, 0, 61, 80
1, 27321, Note_on_c, 0, 72, 0
1, 27336, Note_on_c, 0, 70, 80
1, 27350, Note_on_c, 0, 61, 0
1, 27355, Note_on_c, 0, 70, 0
1, 27360, Note_on_c, 0, 53, 80
1, 27360, Note_on_c, 0, 73, 80
1, 27398, Note_on_c, 0, 53, 0
1, 27408, Note_on_c, 0, 57, 80
1, 27417, Note_on_c, 0, 73, 0
1, 27432, Note_on_c, 0, 72, 80
1, 27446, Note_on_c, 0, 57, 0
1, 27451, Note_on_c, 0, 72, 0
1, 27456, Note_on_c, 0, 58, 80
1, 27456, Note_on_c, 0, 75, 80
1, 27494, Note_on_c, 0, 58, 0
1, 27504, Note_on_c, 0, 65, 80
1, 27513, Note_on_c, 0, 75, 0
1, 27528, Note_on_c, 0, 73, 80
1, 27542, Note_on_c, 0, 65, 0
1, 27547, Note_on_c, 0, 73, 0
1, 27552, Note_on_c, 0, 61, 80
1, 27552, Note_on_c, 0, 77, 80
1, 27590, Note_on_c, 0, 61, 0
1, 27600, Note_on_c, 0, 65, 80
1, 27638, Note_on_c, 0, 65, 0
1, 27648, Note_on_c, 0, 57, 80
1, 27686, Note_on_c, 0, 77, 0
1, 27686, Note_on_c, 0, 57, 0
1, 27696, Note_on_c, 0, 65, 80
1, 27696, Note_on_c, 0, 76, 80
1, 27715, Note_on_c, 0, 76, 0
1, 27720, Note_on_c, 0, 77, 80
1, 27734, Note_on_c, 0, 65, 0
1, 27739, Note_on_c, 0, 77, 0
1, 27744, Note_on_c, 0, 79, 80
1, 27744, Note_on_c, 0, 56, 80
1, 27763, Note_on_c, 0, 79, 0
1, 27768, Note_on_c, 0, 77, 80
1, 27782, Note_on_c, 0, 56, 0
1, 27787, Note_on_c, 0, 77, 0
1, 27792, Note_on_c, 0, 75, 80
1, 27792, Note_on_c, 0, 65, 80
1, 27811, Note_on_c, 0, 75, 0
1, 27816, Note_on_c, 0, 74, 80
1, 27830, Note_on_c, 0, 65, 0
1, 27835, Note_on_c, 0, 74, 0
1, 27840, Note_on_c, 0, 55, 80
1, 27840, Note_on_c, 0, 72, 80
1, 27878, Note_on_c, 0, 72, 0
1, 27878, Note_on_c, 0, 55, 0
1, 27888, Note_on_c, 0, 71, 80
1, 27888, Note_on_c, 0, 67, 80
1, 27926, Note_on_c, 0, 67, 0
1, 27926, Note_on_c, 0, 71, 0
1, 27936, Note_on_c, 0, 65, 80
1, 27974, Note_on_c, 0, 65, 0
1, 27984, Note_on_c, 0, 67, 80
1, 28008, Note_on_c, 0, 71, 80
1, 28022, Note_on_c, 0, 67, 0
1, 28027, Note_on_c, 0, 71, 0
1, 28032, Note_on_c, 0, 63, 80
1, 28032, Note_on_c, 0, 74, 80
1, 28070, Note_on_c, 0, 63, 0
1, 28080, Note_on_c, 0, 67, 80
1, 28089, Note_on_c, 0, 74, 0
1, 28104, Note_on_c, 0, 72, 80
1, 28118, Note_on_c, 0, 67, 0
1, 28123, Note_on_c, 0, 72, 0
1, 28128, Note_on_c, 0, 59, 80
1, 28128, Note_on_c, 0, 75, 80
1, 28166, Note_on_c, 0, 59, 0
1, 28176, Note_on_c, 0, 67, 80
1, 28185, Note_on_c, 0, 75, 0
1, 28200, Note_on_c, 0, 74, 80
1, 28214, Note_on_c, 0, 67, 0
1, 28219, Note_on_c, 0, 74, 0
1, 28224, Note_on_c, 0, 60, 80
1, 28224, Note_on_c, 0, 77, 80
1, 28262, Note_on_c, 0, 60, 0
1, 28272, Note_on_c, 0, 67, 80
1, 28281, Note_on_c, 0, 77, 0
1, 28296, Note_on_c, 0, 75, 80
1, 28310, Note_on_c, 0, 67, 0
1, 28315, Note_on_c, 0, 75, 0
1, 28320, Note_on_c, 0, 63, 80
1, 28320, Note_on_c, 0, 79, 80
1, 28358, Note_on_c, 0, 63, 0
1, 28368, Note_on_c, 0, 67, 80
1, 28406, Note_on_c, 0, 67, 0
1, 28416, Note_on_c, 0, 58, 80
1, 28454, Note_on_c, 0, 79, 0
1, 28454, Note_on_c, 0, 58, 0
1, 28464, Note_on_c, 0, 67, 80
1, 28464, Note_on_c, 0, 78, 80
1, 28483, Note_on_c, 0, 78, 0
1, 28488, Note_on_c, 0, 79, 80
1, 28502, Note_on_c, 0, 67, 0
1, 28507, Note_on_c, 0, 79, 0
1, 28512, Note_on_c, 0, 80, 80
1, 28512, Note_on_c, 0, 62, 80
1, 28531, Note_on_c, 0, 80, 0
1, 28536, Note_on_c, 0, 79, 80
1, 28550, Note_on_c, 0, 62, 0
1, 28555, Note_on_c, 0, 79, 0
1, 28560, Note_on_c, 0, 77, 80
1, 28560, Note_on_c, 0, 67, 80
1, 28579, Note_on_c, 0, 77, 0
1, 28584, Note_on_c, 0, 75, 80
1, 28598, Note_on_c, 0, 67, 0
1, 28603, Note_on_c, 0, 75, 0
1, 28608, Note_on_c, 0, 56, 80
1, 28608, Note_on_c, 0, 74, 80
1, 28646, Note_on_c, 0, 56, 0
1, 28656, Note_on_c, 0, 67, 80
1, 28665, Note_on_c, 0, 74, 0
1, 28680, Note_on_c, 0, 72, 80
1, 28694, Note_on_c, 0, 67, 0
1, 28699, Note_on_c, 0, 72, 0
1, 28704, Note_on_c, 0, 63, 80
1, 28704, Note_on_c, 0, 84, 80
1, 28742, Note_on_c, 0, 63, 0
1, 28752, Note_on_c, 0, 67, 80
1, 28780, Note_on_c, 0, 84, 0
1, 28790, Note_on_c, 0, 67, 0
1, 28800, Note_on_c, 0, 56, 80
1, 28800, Note_on_c, 0, 84, 80
1, 28838, Note_on_c, 0, 56, 0
1, 28848, Note_on_c, 0, 66, 80
1, 28857, Note_on_c, 0, 84, 0
1, 28872, Note_on_c, 0, 86, 80
1, 28886, Note_on_c, 0, 66, 0
1, 28891, Note_on_c, 0, 86, 0
1, 28896, Note_on_c, 0, 63, 80
1, 28896, Note_on_c, 0, 87, 80
1, 28934, Note_on_c, 0, 63, 0
1, 28944, Note_on_c, 0, 60, 80
1, 28953, Note_on_c, 0, 87, 0
1, 28968, Note_on_c, 0, 78, 80
1, 28982, Note_on_c, 0, 60, 0
1, 28987, Note_on_c, 0, 78, 0
1, 28992, Note_on_c, 0, 79, 80
1, 29011, Note_on_c, 0, 79, 0
1, 29016, Note_on_c, 0, 55, 80
1, 29035, Note_on_c, 0, 55, 0
1, 29040, Note_on_c, 0, 59, 80
1, 29059, Note_on_c, 0, 59, 0
1, 29064, Note_on_c, 0, 62, 80
1, 29083, Note_on_c, 0, 62, 0
1, 29088, Note_on_c, 0, 67, 80
1, 29107, Note_on_c, 0, 67, 0
1, 29112, Note_on_c, 0, 71, 80
1, 29131, Note_on_c, 0, 71, 0
1, 29136, Note_on_c, 0, 74, 80
1, 29155, Note_on_c, 0, 74, 0
1, 29160, Note_on_c, 0, 79, 80
1, 29179, Note_on_c, 0, 79, 0
1, 29184, Note_on_c, 0, 78, 80
1, 29203, Note_on_c, 0, 78, 0
1, 29208, Note_on_c, 0, 55, 80
1, 29227, Note_on_c, 0, 55, 0
1, 29232, Note_on_c, 0, 60, 80
1, 29251, Note_on_c, 0, 60, 0
1, 29256, Note_on_c, 0, 63, 80
1, 29275, Note_on_c, 0, 63, 0
1, 29280, Note_on_c, 0, 66, 80
1, 29299, Note_on_c, 0, 66, 0
1, 29304, Note_on_c, 0, 69, 80
1, 29323, Note_on_c, 0, 69, 0
1, 29328, Note_on_c, 0, 72, 80
1, 29347, Note_on_c, 0, 72, 0
1, 29352, Note_on_c, 0, 78, 80
1, 29371, Note_on_c, 0, 78, 0
1, 29376, Note_on_c, 0, 79, 80
1, 29395, Note_on_c, 0, 79, 0
1, 29400, Note_on_c, 0, 55, 80
1, 29419, Note_on_c, 0, 55, 0
1, 29424, Note_on_c, 0, 59, 80
1, 29443, Note_on_c, 0, 59, 0
1, 29448, Note_on_c, 0, 62, 80
1, 29467, Note_on_c, 0, 62, 0
1, 29472, Note_on_c, 0, 67, 80
1, 29491, Note_on_c, 0, 67, 0
1, 29496, Note_on_c, 0, 71, 80
1, 29515, Note_on_c, 0, 71, 0
1, 29520, Note_on_c, 0, 74, 80
1, 29539, Note_on_c, 0, 74, 0
1, 29544, Note_on_c, 0, 79, 80
1, 29563, Note_on_c, 0, 79, 0
1, 29568, Note_on_c, 0, 78, 80
1, 29587, Note_on_c, 0, 78, 0
1, 29592, Note_on_c, 0, 55, 80
1, 29611, Note_on_c, 0, 55, 0
1, 29616, Note_on_c, 0, 60, 80
1, 29635, Note_on_c, 0, 60, 0
1, 29640, Note_on_c, 0, 63, 80
1, 29659, Note_on_c, 0, 63, 0
1, 29664, Note_on_c, 0, 66, 80
1, 29683, Note_on_c, 0, 66, 0
1, 29688, Note_on_c, 0, 69, 80
1, 29707, Note_on_c, 0, 69, 0
1, 29712, Note_on_c, 0, 72, 80
1, 29731, Note_on_c, 0, 72, 0
1, 29736, Note_on_c, 0, 78, 80
1, 29755, Note_on_c, 0, 78, 0
1, 29760, Note_on_c, 0, 79, 80
1, 29779, Note_on_c, 0, 79, 0
1, 29784, Note_on_c, 0, 55, 80
1, 29803, Note_on_c, 0, 55, 0
1, 29808, Note_on_c, 0, 59, 80
1, 29827, Note_on_c, 0, 59, 0
1, 29832, Note_on_c, 0, 62, 80
1, 29851, Note_on_c, 0, 62, 0
1, 29856, Note_on_c, 0, 67, 80
1, 29875, Note_on_c, 0, 67, 0
1, 29880, Note_on_c, 0, 71, 80
1, 29899, Note_on_c, 0, 71, 0
1, 29904, Note_on_c, 0, 74, 80
1, 29923, Note_on_c, 0, 74, 0
1, 29928, Note_on_c, 0, 78, 80
1, 29947, Note_on_c, 0, 78, 0
1, 29952, Note_on_c, 0, 79, 80
1, 29971, Note_on_c, 0, 79, 0
1, 29976, Note_on_c, 0, 55, 80
1, 29995, Note_on_c, 0, 55, 0
1, 30000, Note_on_c, 0, 59, 80
1, 30019, Note_on_c, 0, 59, 0
1, 30024, Note_on_c, 0, 62, 80
1, 30043, Note_on_c, 0, 62, 0
1, 30048, Note_on_c, 0, 67, 80
1, 30067, Note_on_c, 0, 67, 0
1, 30072, Note_on_c, 0, 71, 80
1, 30091, Note_on_c, 0, 71, 0
1, 30096, Note_on_c, 0, 74, 80
1, 30115, Note_on_c, 0, 74, 0
1, 30120, Note_on_c, 0, 79, 80
1, 30139, Note_on_c, 0, 79, 0
1, 30144, Note_on_c, 0, 80, 80
1, 30163, Note_on_c, 0, 80, 0
1, 30168, Note_on_c, 0, 53, 80
1, 30187, Note_on_c, 0, 53, 0
1, 30192, Note_on_c, 0, 59, 80
1, 30211, Note_on_c, 0, 59, 0
1, 30216, Note_on_c, 0, 62, 80
1, 30235, Note_on_c, 0, 62, 0
1, 30240, Note_on_c, 0, 65, 80
1, 30259, Note_on_c, 0, 65, 0
1, 30264, Note_on_c, 0, 71, 80
1, 30283, Note_on_c, 0, 71, 0
1, 30288, Note_on_c, 0, 74, 80
1, 30307, Note_on_c, 0, 74, 0
1, 30312, Note_on_c, 0, 80, 80
1, 30331, Note_on_c, 0, 80, 0
1, 30336, Note_on_c, 0, 81, 80
1, 30355, Note_on_c, 0, 81, 0
1, 30360, Note_on_c, 0, 51, 80
1, 30379, Note_on_c, 0, 51, 0
1, 30384, Note_on_c, 0, 57, 80
1, 30403, Note_on_c, 0, 57, 0
1, 30408, Note_on_c, 0, 60, 80
1, 30427, Note_on_c, 0, 60, 0
1, 30432, Note_on_c, 0, 63, 80
1, 30451, Note_on_c, 0, 63, 0
1, 30456, Note_on_c, 0, 72, 80
1, 30475, Note_on_c, 0, 72, 0
1, 30480, Note_on_c, 0, 77, 80
1, 30499, Note_on_c, 0, 77, 0
1, 30504, Note_on_c, 0, 80, 80
1, 30523, Note_on_c, 0, 80, 0
1, 30528, Note_on_c, 0, 50, 80
1, 30528, Note_on_c, 0, 82, 80
1, 30547, Note_on_c, 0, 82, 0
1, 30552, Note_on_c, 0, 83, 80
1, 30571, Note_on_c, 0, 83, 0
1, 30576, Note_on_c, 0, 84, 80
1, 30595, Note_on_c, 0, 84, 0
1, 30600, Note_on_c, 0, 82, 80
1, 30619, Note_on_c, 0, 82, 0
1, 30624, Note_on_c, 0, 80, 80
1, 30643, Note_on_c, 0, 80, 0
1, 30648, Note_on_c, 0, 79, 80
1, 30667, Note_on_c, 0, 79, 0
1, 30672, Note_on_c, 0, 77, 80
1, 30681, Note_on_c, 0, 50, 0
1, 30691, Note_on_c, 0, 77, 0
1, 30696, Note_on_c, 0, 75, 80
1, 30715, Note_on_c, 0, 75, 0
1, 30720, Note_on_c, 0, 74, 80
1, 30739, Note_on_c, 0, 74, 0
1, 30744, Note_on_c, 0, 72, 80
1, 30763, Note_on_c, 0, 72, 0
1, 30768, Note_on_c, 0, 70, 80
1, 30787, Note_on_c, 0, 70, 0
1, 30792, Note_on_c, 0, 69, 80
1, 30811, Note_on_c, 0, 69, 0
1, 30816, Note_on_c, 0, 68, 80
1, 30835, Note_on_c, 0, 68, 0
1, 30840, Note_on_c, 0, 67, 80
1, 30859, Note_on_c, 0, 67, 0
1, 30864, Note_on_c, 0, 65, 80
1, 30883, Note_on_c, 0, 65, 0
1, 30888, Note_on_c, 0, 63, 80
1, 30907, Note_on_c, 0, 63, 0
1, 30912, Note_on_c, 0, 56, 80
1, 30912, Note_on_c, 0, 53, 80
1, 30912, Note_on_c, 0, 62, 80
1, 30912, Note_on_c, 0, 46, 80
1, 30931, Note_on_c, 0, 62, 0
1, 30936, Note_on_c, 0, 60, 80
1, 30955, Note_on_c, 0, 60, 0
1, 30960, Note_on_c, 0, 58, 80
1, 30979, Note_on_c, 0, 58, 0
1, 30984, Note_on_c, 0, 60, 80
1, 31003, Note_on_c, 0, 60, 0
1, 31008, Note_on_c, 0, 62, 80
1, 31027, Note_on_c, 0, 62, 0
1, 31032, Note_on_c, 0, 63, 80
1, 31051, Note_on_c, 0, 63, 0
1, 31056, Note_on_c, 0, 65, 80
1, 31075, Note_on_c, 0, 65, 0
1, 31080, Note_on_c, 0, 67, 80
1, 31099, Note_on_c, 0, 67, 0
1, 31104, Note_on_c, 0, 68, 80
1, 31123, Note_on_c, 0, 68, 0
1, 31128, Note_on_c, 0, 67, 80
1, 31147, Note_on_c, 0, 67, 0
1, 31152, Note_on_c, 0, 65, 80
1, 31171, Note_on_c, 0, 65, 0
1, 31176, Note_on_c, 0, 64, 80
1, 31195, Note_on_c, 0, 64, 0
1, 31200, Note_on_c, 0, 65, 80
1, 31219, Note_on_c, 0, 53, 0
1, 31219, Note_on_c, 0, 56, 0
1, 31219, Note_on_c, 0, 46, 0
1, 31219, Note_on_c, 0, 65, 0
1, 31224, Note_on_c, 0, 67, 80
1, 31243, Note_on_c, 0, 67, 0
1, 31248, Note_on_c, 0, 68, 80
1, 31267, Note_on_c, 0, 68, 0
1, 31272, Note_on_c, 0, 69, 80
1, 31291, Note_on_c, 0, 69, 0
1, 31296, Note_on_c, 0, 70, 80
1, 31296, Note_on_c, 0, 51, 80
1, 31334, Note_on_c, 0, 51, 0
1, 31344, Note_on_c, 0, 55, 80
1, 31382, Note_on_c, 0, 55, 0
1, 31392, Note_on_c, 0, 58, 80
1, 31411, Note_on_c, 0, 70, 0
1, 31416, Note_on_c, 0, 72, 80
1, 31430, Note_on_c, 0, 58, 0
1, 31435, Note_on_c, 0, 72, 0
1, 31440, Note_on_c, 0, 74, 80
1, 31440, Note_on_c, 0, 55, 80
1, 31459, Note_on_c, 0, 74, 0
1, 31464, Note_on_c, 0, 75, 80
1, 31478, Note_on_c, 0, 55, 0
1, 31483, Note_on_c, 0, 75, 0
1, 31488, Note_on_c, 0, 51, 80
1, 31488, Note_on_c, 0, 75, 80
1, 31526, Note_on_c, 0, 75, 0
1, 31526, Note_on_c, 0, 51, 0
1, 31536, Note_on_c, 0, 70, 80
1, 31536, Note_on_c, 0, 55, 80
1, 31574, Note_on_c, 0, 55, 0
1, 31574, Note_on_c, 0, 70, 0
1, 31584, Note_on_c, 0, 58, 80
1, 31584, Note_on_c, 0, 70, 80
1, 31622, Note_on_c, 0, 70, 0
1, 31622, Note_on_c, 0, 58, 0
1, 31632, Note_on_c, 0, 70, 80
1, 31632, Note_on_c, 0, 55, 80
1, 31670, Note_on_c, 0, 55, 0
1, 31670, Note_on_c, 0, 70, 0
1, 31680, Note_on_c, 0, 46, 80
1, 31680, Note_on_c, 0, 67, 80
1, 31680, Note_on_c, 0, 63, 80
1, 31718, Note_on_c, 0, 46, 0
1, 31728, Note_on_c, 0, 51, 80
1, 31766, Note_on_c, 0, 51, 0
1, 31776, Note_on_c, 0, 55, 80
1, 31814, Note_on_c, 0, 67, 0
1, 31814, Note_on_c, 0, 63, 0
1, 31814, Note_on_c, 0, 55, 0
1, 31824, Note_on_c, 0, 51, 80
1, 31848, Note_on_c, 0, 68, 80
1, 31862, Note_on_c, 0, 51, 0
1, 31867, Note_on_c, 0, 68, 0
1, 31872, Note_on_c, 0, 65, 80
1, 31872, Note_on_c, 0, 46, 80
1, 31872, Note_on_c, 0, 62, 80
1, 31910, Note_on_c, 0, 46, 0
1, 31920, Note_on_c, 0, 50, 80
1, 31948, Note_on_c, 0, 65, 0
1, 31948, Note_on_c, 0, 62, 0
1, 31958, Note_on_c, 0, 50, 0
1, 31968, Note_on_c, 0, 53, 80
1, 31984, Note_on_c, 0, 70, 80
1, 31996, Note_on_c, 0, 70, 0
1, 32000, Note_on_c, 0, 69, 80
1, 32006, Note_on_c, 0, 53, 0
1, 32012, Note_on_c, 0, 69, 0
1, 32016, Note_on_c, 0, 50, 80
1, 32016, Note_on_c, 0, 68, 80
1, 32028, Note_on_c, 0, 68, 0
1, 32032, Note_on_c, 0, 67, 80
1, 32044, Note_on_c, 0, 67, 0
1, 32048, Note_on_c, 0, 65, 80
1, 32054, Note_on_c, 0, 50, 0
1, 32060, Note_on_c, 0, 65, 0
1, 32064, Note_on_c, 0, 51, 80
1, 32064, Note_on_c, 0, 55, 80
1, 32102, Note_on_c, 0, 55, 0
1, 32112, Note_on_c, 0, 58, 80
1, 32150, Note_on_c, 0, 58, 0
1, 32160, Note_on_c, 0, 55, 80
1, 32198, Note_on_c, 0, 55, 0
1, 32208, Note_on_c, 0, 58, 80
1, 32217, Note_on_c, 0, 51, 0
1, 32246, Note_on_c, 0, 58, 0
1, 32256, Note_on_c, 0, 46, 80
1, 32256, Note_on_c, 0, 62, 80
1, 32294, Note_on_c, 0, 62, 0
1, 32304, Note_on_c, 0, 58, 80
1, 32342, Note_on_c, 0, 58, 0
1, 32352, Note_on_c, 0, 62, 80
1, 32390, Note_on_c, 0, 62, 0
1, 32400, Note_on_c, 0, 58, 80
1, 32409, Note_on_c, 0, 46, 0
1, 32438, Note_on_c, 0, 58, 0
1, 32448, Note_on_c, 0, 63, 80
1, 32448, Note_on_c, 0, 39, 80
1, 32448, Note_on_c, 0, 67, 80
1, 32505, Note_on_c, 0, 67, 0
1, 32505, Note_on_c, 0, 63, 0
1, 32520, Note_on_c, 0, 68, 80
1, 32539, Note_on_c, 0, 68, 0
1, 32544, Note_on_c, 0, 70, 80
1, 32563, Note_on_c, 0, 70, 0
1, 32568, Note_on_c, 0, 72, 80
1, 32587, Note_on_c, 0, 72, 0
1, 32592, Note_on_c, 0, 74, 80
1, 32601, Note_on_c, 0, 39, 0
1, 32611, Note_on_c, 0, 74, 0
1, 32616, Note_on_c, 0, 75, 80
1, 32635, Note_on_c, 0, 75, 0
1, 32640, Note_on_c, 0, 70, 80
1, 32678, Note_on_c, 0, 70, 0
1, 32736, Note_on_c, 0, 75, 80
1, 32755, Note_on_c, 0, 75, 0
1, 32760, Note_on_c, 0, 79, 80
1, 32779, Note_on_c, 0, 79, 0
1, 32784, Note_on_c, 0, 74, 80
1, 32803, Note_on_c, 0, 74, 0
1, 32808, Note_on_c, 0, 77, 80
1, 32827, Note_on_c, 0, 77, 0
1, 32832, Note_on_c, 0, 72, 80
1, 32851, Note_on_c, 0, 72, 0
1, 32856, Note_on_c, 0, 75, 80
1, 32875, Note_on_c, 0, 75, 0
1, 32880, Note_on_c, 0, 70, 80
1, 32899, Note_on_c, 0, 70, 0
1, 32904, Note_on_c, 0, 74, 80
1, 32923, Note_on_c, 0, 74, 0
1, 32928, Note_on_c, 0, 68, 80
1, 32928, Note_on_c, 0, 38, 80
1, 32947, Note_on_c, 0, 38, 0
1, 32947, Note_on_c, 0, 68, 0
1, 32952, Note_on_c, 0, 50, 80
1, 32952, Note_on_c, 0, 72, 80
1, 32971, Note_on_c, 0, 72, 0
1, 32971, Note_on_c, 0, 50, 0
1, 32976, Note_on_c, 0, 67, 80
1, 32976, Note_on_c, 0, 39, 80
1, 32995, Note_on_c, 0, 39, 0
1, 32995, Note_on_c, 0, 67, 0
1, 33000, Note_on_c, 0, 51, 80
1, 33000, Note_on_c, 0, 70, 80
1, 33019, Note_on_c, 0, 70, 0
1, 33019, Note_on_c, 0, 51, 0
1, 33024, Note_on_c, 0, 65, 80
1, 33024, Note_on_c, 0, 41, 80
1, 33043, Note_on_c, 0, 41, 0
1, 33043, Note_on_c, 0, 65, 0
1, 33048, Note_on_c, 0, 53, 80
1, 33048, Note_on_c, 0, 68, 80
1, 33067, Note_on_c, 0, 68, 0
1, 33067, Note_on_c, 0, 53, 0
1, 33072, Note_on_c, 0, 63, 80
1, 33072, Note_on_c, 0, 43, 80
1, 33091, Note_on_c, 0, 43, 0
1, 33091, Note_on_c, 0, 63, 0
1, 33096, Note_on_c, 0, 55, 80
1, 33096, Note_on_c, 0, 67, 80
1, 33115, Note_on_c, 0, 67, 0
1, 33115, Note_on_c, 0, 55, 0
1, 33120, Note_on_c, 0, 60, 80
1, 33120, Note_on_c, 0, 44, 80
1, 33139, Note_on_c, 0, 44, 0
1, 33139, Note_on_c, 0, 60, 0
1, 33144, Note_on_c, 0, 56, 80
1, 33144, Note_on_c, 0, 72, 80
1, 33163, Note_on_c, 0, 72, 0
1, 33163, Note_on_c, 0, 56, 0
1, 33168, Note_on_c, 0, 65, 80
1, 33168, Note_on_c, 0, 41, 80
1, 33187, Note_on_c, 0, 41, 0
1, 33187, Note_on_c, 0, 65, 0
1, 33192, Note_on_c, 0, 53, 80
1, 33192, Note_on_c, 0, 68, 80
1, 33211, Note_on_c, 0, 68, 0
1, 33211, Note_on_c, 0, 53, 0
1, 33216, Note_on_c, 0, 57, 80
1, 33216, Note_on_c, 0, 67, 80
1, 33216, Note_on_c, 0, 63, 80
1, 33235, Note_on_c, 0, 57, 0
1, 33240, Note_on_c, 0, 58, 80
1, 33259, Note_on_c, 0, 58, 0
1, 33264, Note_on_c, 0, 60, 80
1, 33283, Note_on_c, 0, 60, 0
1, 33288, Note_on_c, 0, 58, 80
1, 33307, Note_on_c, 0, 58, 0
1, 33312, Note_on_c, 0, 57, 80
1, 33331, Note_on_c, 0, 57, 0
1, 33336, Note_on_c, 0, 58, 80
1, 33355, Note_on_c, 0, 58, 0
1, 33360, Note_on_c, 0, 55, 80
1, 33369, Note_on_c, 0, 67, 0
1, 33369, Note_on_c, 0, 63, 0
1, 33379, Note_on_c, 0, 55, 0
1, 33384, Note_on_c, 0, 51, 80
1, 33403, Note_on_c, 0, 51, 0
1, 33408, Note_on_c, 0, 46, 80
1, 33408, Note_on_c, 0, 62, 80
1, 33408, Note_on_c, 0, 65, 80
1, 33427, Note_on_c, 0, 65, 0
1, 33427, Note_on_c, 0, 62, 0
1, 33432, Note_on_c, 0, 63, 80
1, 33451, Note_on_c, 0, 63, 0
1, 33456, Note_on_c, 0, 62, 80
1, 33475, Note_on_c, 0, 62, 0
1, 33480, Note_on_c, 0, 63, 80
1, 33484, Note_on_c, 0, 46, 0
1, 33499, Note_on_c, 0, 63, 0
1, 33504, Note_on_c, 0, 65, 80
1, 33523, Note_on_c, 0, 65, 0
1, 33528, Note_on_c, 0, 67, 80
1, 33547, Note_on_c, 0, 67, 0
1, 33552, Note_on_c, 0, 68, 80
1, 33571, Note_on_c, 0, 68, 0
1, 33576, Note_on_c, 0, 69, 80
1, 33595, Note_on_c, 0, 69, 0
1, 33600, Note_on_c, 0, 70, 80
1, 33600, Note_on_c, 0, 51, 80
1, 33638, Note_on_c, 0, 51, 0
1, 33648, Note_on_c, 0, 55, 80
1, 33686, Note_on_c, 0, 55, 0
1, 33696, Note_on_c, 0, 58, 80
1, 33715, Note_on_c, 0, 70, 0
1, 33720, Note_on_c, 0, 74, 80
1, 33729, Note_on_c, 0, 74, 0
1, 33732, Note_on_c, 0, 72, 80
1, 33734, Note_on_c, 0, 58, 0
1, 33741, Note_on_c, 0, 72, 0
1, 33744, Note_on_c, 0, 75, 80
1, 33744, Note_on_c, 0, 55, 80
1, 33753, Note_on_c, 0, 75, 0
1, 33756, Note_on_c, 0, 74, 80
1, 33765, Note_on_c, 0, 74, 0
1, 33768, Note_on_c, 0, 77, 80
1, 33777, Note_on_c, 0, 77, 0
1, 33780, Note_on_c, 0, 75, 80
1, 33782, Note_on_c, 0, 55, 0
1, 33789, Note_on_c, 0, 75, 0
1, 33792, Note_on_c, 0, 51, 80
1, 33792, Note_on_c, 0, 75, 80
1, 33830, Note_on_c, 0, 75, 0
1, 33830, Note_on_c, 0, 51, 0
1, 33840, Note_on_c, 0, 55, 80
1, 33840, Note_on_c, 0, 67, 80
1, 33878, Note_on_c, 0, 67, 0
1, 33878, Note_on_c, 0, 55, 0
1, 33888, Note_on_c, 0, 67, 80
1, 33888, Note_on_c, 0, 58, 80
1, 33926, Note_on_c, 0, 58, 0
1, 33926, Note_on_c, 0, 67, 0
1, 33936, Note_on_c, 0, 67, 80
1, 33936, Note_on_c, 0, 55, 80
1, 33974, Note_on_c, 0, 55, 0
1, 33974, Note_on_c, 0, 67, 0
1, 33984, Note_on_c, 0, 46, 80
1, 33984, Note_on_c, 0, 63, 80
1, 33984, Note_on_c, 0, 67, 80
1, 34022, Note_on_c, 0, 46, 0
1, 34032, Note_on_c, 0, 51, 80
1, 34060, Note_on_c, 0, 63, 0
1, 34060, Note_on_c, 0, 67, 0
1, 34070, Note_on_c, 0, 51, 0
1, 34080, Note_on_c, 0, 55, 80
1, 34080, Note_on_c, 0, 70, 80
1, 34118, Note_on_c, 0, 55, 0
1, 34128, Note_on_c, 0, 51, 80
1, 34156, Note_on_c, 0, 70, 0
1, 34166, Note_on_c, 0, 51, 0
1, 34176, Note_on_c, 0, 46, 80
1, 34176, Note_on_c, 0, 70, 80
1, 34176, Note_on_c, 0, 62, 80
1, 34195, Note_on_c, 0, 62, 0
1, 34195, Note_on_c, 0, 70, 0
1, 34200, Note_on_c, 0, 69, 80
1, 34214, Note_on_c, 0, 46, 0
1, 34219, Note_on_c, 0, 69, 0
1, 34224, Note_on_c, 0, 50, 80
1, 34224, Note_on_c, 0, 68, 80
1, 34243, Note_on_c, 0, 68, 0
1, 34248, Note_on_c, 0, 67, 80
1, 34262, Note_on_c, 0, 50, 0
1, 34267, Note_on_c, 0, 67, 0
1, 34272, Note_on_c, 0, 53, 80
1, 34272, Note_on_c, 0, 70, 80
1, 34291, Note_on_c, 0, 70, 0
1, 34296, Note_on_c, 0, 68, 80
1, 34310, Note_on_c, 0, 53, 0
1, 34315, Note_on_c, 0, 68, 0
1, 34320, Note_on_c, 0, 50, 80
1, 34320, Note_on_c, 0, 67, 80
1, 34339, Note_on_c, 0, 67, 0
1, 34344, Note_on_c, 0, 65, 80
1, 34358, Note_on_c, 0, 50, 0
1, 34363, Note_on_c, 0, 65, 0
1, 34368, Note_on_c, 0, 51, 80
1, 34368, Note_on_c, 0, 39, 80
1, 34368, Note_on_c, 0, 63, 80
1, 34502, Note_on_c, 0, 63, 0
1, 34521, Note_on_c, 0, 39, 0
1, 34521, Note_on_c, 0, 51, 0
1, 34536, Note_on_c, 0, 64, 80
1, 34555, Note_on_c, 0, 64, 0
1, 34560, Note_on_c, 0, 34, 80
1, 34560, Note_on_c, 0, 46, 80
1, 34560, Note_on_c, 0, 65, 80
1, 34694, Note_on_c, 0, 65, 0
1, 34713, Note_on_c, 0, 46, 0
1, 34713, Note_on_c, 0, 34, 0
1, 34728, Note_on_c, 0, 66, 80
1, 34747, Note_on_c, 0, 66, 0
1, 34752, Note_on_c, 0, 63, 80
1, 34752, Note_on_c, 0, 39, 80
1, 34752, Note_on_c, 0, 67, 80
1, 34752, Note_on_c, 0, 51, 80
1, 34809, Note_on_c, 0, 67, 0
1, 34809, Note_on_c, 0, 63, 0
1, 34824, Note_on_c, 0, 68, 80
1, 34843, Note_on_c, 0, 68, 0
1, 34848, Note_on_c, 0, 69, 80
1, 34873, Note_on_c, 0, 69, 0
1, 34880, Note_on_c, 0, 68, 80
1, 34905, Note_on_c, 0, 39, 0
1, 34905, Note_on_c, 0, 51, 0
1, 34905, Note_on_c, 0, 68, 0
1, 34912, Note_on_c, 0, 71, 80
1, 34937, Note_on_c, 0, 71, 0
1, 34944, Note_on_c, 0, 72, 80
1, 34963, Note_on_c, 0, 72, 0
1, 34968, Note_on_c, 0, 73, 80
1, 34987, Note_on_c, 0, 73, 0
1, 34992, Note_on_c, 0, 74, 80
1, 35011, Note_on_c, 0, 74, 0
1, 35016, Note_on_c, 0, 75, 80
1, 35035, Note_on_c, 0, 75, 0
1, 35040, Note_on_c, 0, 70, 80
1, 35078, Note_on_c, 0, 70, 0
1, 35136, Note_on_c, 0, 71, 80
1, 35136, Note_on_c, 0, 63, 80
1, 35155, Note_on_c, 0, 63, 0
1, 35160, Note_on_c, 0, 62, 80
1, 35179, Note_on_c, 0, 62, 0
1, 35184, Note_on_c, 0, 61, 80
1, 35203, Note_on_c, 0, 61, 0
1, 35208, Note_on_c, 0, 60, 80
1, 35212, Note_on_c, 0, 71, 0
1, 35227, Note_on_c, 0, 60, 0
1, 35232, Note_on_c, 0, 55, 80
1, 35232, Note_on_c, 0, 59, 80
1, 35270, Note_on_c, 0, 59, 0
1, 35270, Note_on_c, 0, 55, 0
1, 35280, Note_on_c, 0, 75, 80
1, 35299, Note_on_c, 0, 75, 0
1, 35304, Note_on_c, 0, 74, 80
1, 35323, Note_on_c, 0, 74, 0
1, 35328, Note_on_c, 0, 63, 80
1, 35328, Note_on_c, 0, 73, 80
1, 35347, Note_on_c, 0, 73, 0
1, 35347, Note_on_c, 0, 63, 0
1, 35352, Note_on_c, 0, 72, 80
1, 35352, Note_on_c, 0, 62, 80
1, 35371, Note_on_c, 0, 62, 0
1, 35371, Note_on_c, 0, 72, 0
1, 35376, Note_on_c, 0, 61, 80
1, 35395, Note_on_c, 0, 61, 0
1, 35400, Note_on_c, 0, 60, 80
1, 35419, Note_on_c, 0, 60, 0
1, 35424, Note_on_c, 0, 55, 80
1, 35424, Note_on_c, 0, 75, 80
1, 35424, Note_on_c, 0, 59, 80
1, 35443, Note_on_c, 0, 75, 0
1, 35448, Note_on_c, 0, 74, 80
1, 35462, Note_on_c, 0, 55, 0
1, 35462, Note_on_c, 0, 59, 0
1, 35467, Note_on_c, 0, 74, 0
1, 35472, Note_on_c, 0, 73, 80
1, 35491, Note_on_c, 0, 73, 0
1, 35496, Note_on_c, 0, 72, 80
1, 35515, Note_on_c, 0, 72, 0
1, 35520, Note_on_c, 0, 63, 80
1, 35520, Note_on_c, 0, 71, 80
1, 35520, Note_on_c, 0, 55, 80
1, 35635, Note_on_c, 0, 71, 0
1, 35664, Note_on_c, 0, 74, 80
1, 35673, Note_on_c, 0, 55, 0
1, 35692, Note_on_c, 0, 74, 0
1, 35700, Note_on_c, 0, 72, 80
1, 35709, Note_on_c, 0, 72, 0
1, 35712, Note_on_c, 0, 56, 80
1, 35712, Note_on_c, 0, 72, 80
1, 35750, Note_on_c, 0, 72, 0
1, 35750, Note_on_c, 0, 63, 0
1, 35750, Note_on_c, 0, 56, 0
1, 35808, Note_on_c, 0, 65, 80
1, 35827, Note_on_c, 0, 65, 0
1, 35832, Note_on_c, 0, 67, 80
1, 35851, Note_on_c, 0, 67, 0
1, 35856, Note_on_c, 0, 68, 80
1, 35875, Note_on_c, 0, 68, 0
1, 35880, Note_on_c, 0, 69, 80
1, 35899, Note_on_c, 0, 69, 0
1, 35904, Note_on_c, 0, 70, 80
1, 35980, Note_on_c, 0, 70, 0
1, 36000, Note_on_c, 0, 51, 80
1, 36000, Note_on_c, 0, 70, 80
1, 36000, Note_on_c, 0, 43, 80
1, 36012, Note_on_c, 0, 70, 0
1, 36016, Note_on_c, 0, 71, 80
1, 36028, Note_on_c, 0, 71, 0
1, 36032, Note_on_c, 0, 72, 80
1, 36044, Note_on_c, 0, 72, 0
1, 36048, Note_on_c, 0, 73, 80
1, 36060, Note_on_c, 0, 73, 0
1, 36064, Note_on_c, 0, 74, 80
1, 36076, Note_on_c, 0, 51, 0
1, 36076, Note_on_c, 0, 43, 0
1, 36076, Note_on_c, 0, 74, 0
1, 36080, Note_on_c, 0, 75, 80
1, 36092, Note_on_c, 0, 75, 0
1, 36096, Note_on_c, 0, 63, 80
1, 36096, Note_on_c, 0, 55, 80
1, 36096, Note_on_c, 0, 46, 80
1, 36172, Note_on_c, 0, 46, 0
1, 36172, Note_on_c, 0, 55, 0
1, 36192, Note_on_c, 0, 56, 80
1, 36211, Note_on_c, 0, 63, 0
1, 36240, Note_on_c, 0, 62, 80
1, 36240, Note_on_c, 0, 67, 80
1, 36259, Note_on_c, 0, 67, 0
1, 36259, Note_on_c, 0, 62, 0
1, 36264, Note_on_c, 0, 65, 80
1, 36268, Note_on_c, 0, 56, 0
1, 36283, Note_on_c, 0, 65, 0
1, 36288, Note_on_c, 0, 51, 80
1, 36288, Note_on_c, 0, 63, 80
1, 36326, Note_on_c, 0, 51, 0
1, 36336, Note_on_c, 0, 55, 80
1, 36364, Note_on_c, 0, 63, 0
1, 36374, Note_on_c, 0, 55, 0
1, 36384, Note_on_c, 0, 58, 80
1, 36422, Note_on_c, 0, 58, 0
1, 36432, Note_on_c, 0, 55, 80
1, 36470, Note_on_c, 0, 55, 0
1, 36480, Note_on_c, 0, 51, 80
1, 36480, Note_on_c, 0, 72, 80
1, 36518, Note_on_c, 0, 51, 0
1, 36528, Note_on_c, 0, 56, 80
1, 36566, Note_on_c, 0, 56, 0
1, 36576, Note_on_c, 0, 60, 80
1, 36595, Note_on_c, 0, 72, 0
1, 36614, Note_on_c, 0, 60, 0
1, 36624, Note_on_c, 0, 56, 80
1, 36624, Note_on_c, 0, 75, 80
1, 36643, Note_on_c, 0, 75, 0
1, 36648, Note_on_c, 0, 72, 80
1, 36662, Note_on_c, 0, 56, 0
1, 36667, Note_on_c, 0, 72, 0
1, 36672, Note_on_c, 0, 51, 80
1, 36672, Note_on_c, 0, 70, 80
1, 36691, Note_on_c, 0, 70, 0
1, 36696, Note_on_c, 0, 79, 80
1, 36710, Note_on_c, 0, 51, 0
1, 36715, Note_on_c, 0, 79, 0
1, 36720, Note_on_c, 0, 55, 80
1, 36720, Note_on_c, 0, 77, 80
1, 36739, Note_on_c, 0, 77, 0
1, 36744, Note_on_c, 0, 75, 80
1, 36758, Note_on_c, 0, 55, 0
1, 36763, Note_on_c, 0, 75, 0
1, 36768, Note_on_c, 0, 74, 80
1, 36768, Note_on_c, 0, 58, 80
1, 36787, Note_on_c, 0, 74, 0
1, 36792, Note_on_c, 0, 75, 80
1, 36806, Note_on_c, 0, 58, 0
1, 36811, Note_on_c, 0, 75, 0
1, 36816, Note_on_c, 0, 77, 80
1, 36816, Note_on_c, 0, 55, 80
1, 36835, Note_on_c, 0, 77, 0
1, 36840, Note_on_c, 0, 75, 80
1, 36854, Note_on_c, 0, 55, 0
1, 36859, Note_on_c, 0, 75, 0
1, 36864, Note_on_c, 0, 72, 80
1, 36864, Note_on_c, 0, 51, 80
1, 36902, Note_on_c, 0, 51, 0
1, 36912, Note_on_c, 0, 56, 80
1, 36950, Note_on_c, 0, 56, 0
1, 36960, Note_on_c, 0, 60, 80
1, 36979, Note_on_c, 0, 72, 0
1, 36998, Note_on_c, 0, 60, 0
1, 37008, Note_on_c, 0, 75, 80
1, 37008, Note_on_c, 0, 56, 80
1, 37027, Note_on_c, 0, 75, 0
1, 37032, Note_on_c, 0, 72, 80
1, 37046, Note_on_c, 0, 56, 0
1, 37051, Note_on_c, 0, 72, 0
1, 37056, Note_on_c, 0, 55, 80
1, 37056, Note_on_c, 0, 70, 80
1, 37056, Note_on_c, 0, 51, 80
1, 37056, Note_on_c, 0, 58, 80
1, 37075, Note_on_c, 0, 70, 0
1, 37080, Note_on_c, 0, 79, 80
1, 37099, Note_on_c, 0, 79, 0
1, 37104, Note_on_c, 0, 77, 80
1, 37123, Note_on_c, 0, 77, 0
1, 37128, Note_on_c, 0, 75, 80
1, 37132, Note_on_c, 0, 55, 0
1, 37132, Note_on_c, 0, 51, 0
1, 37132, Note_on_c, 0, 58, 0
1, 37147, Note_on_c, 0, 75, 0
1, 37152, Note_on_c, 0, 74, 80
1, 37171, Note_on_c, 0, 74, 0
1, 37176, Note_on_c, 0, 75, 80
1, 37195, Note_on_c, 0, 75, 0
1, 37200, Note_on_c, 0, 77, 80
1, 37219, Note_on_c, 0, 77, 0
1, 37224, Note_on_c, 0, 75, 80
1, 37243, Note_on_c, 0, 75, 0
1, 37248, Note_on_c, 0, 48, 80
1, 37248, Note_on_c, 0, 53, 80
1, 37248, Note_on_c, 0, 44, 80
1, 37272, Note_on_c, 0, 75, 80
1, 37291, Note_on_c, 0, 75, 0
1, 37296, Note_on_c, 0, 74, 80
1, 37315, Note_on_c, 0, 74, 0
1, 37320, Note_on_c, 0, 72, 80
1, 37324, Note_on_c, 0, 44, 0
1, 37324, Note_on_c, 0, 53, 0
1, 37324, Note_on_c, 0, 48, 0
1, 37339, Note_on_c, 0, 72, 0
1, 37344, Note_on_c, 0, 71, 80
1, 37363, Note_on_c, 0, 71, 0
1, 37368, Note_on_c, 0, 72, 80
1, 37387, Note_on_c, 0, 72, 0
1, 37392, Note_on_c, 0, 74, 80
1, 37411, Note_on_c, 0, 74, 0
1, 37416, Note_on_c, 0, 72, 80
1, 37435, Note_on_c, 0, 72, 0
1, 37440, Note_on_c, 0, 46, 80
1, 37440, Note_on_c, 0, 55, 80
1, 37464, Note_on_c, 0, 70, 80
1, 37478, Note_on_c, 0, 55, 0
1, 37478, Note_on_c, 0, 46, 0
1, 37483, Note_on_c, 0, 70, 0
1, 37488, Note_on_c, 0, 75, 80
1, 37507, Note_on_c, 0, 75, 0
1, 37512, Note_on_c, 0, 70, 80
1, 37531, Note_on_c, 0, 70, 0
1, 37536, Note_on_c, 0, 46, 80
1, 37536, Note_on_c, 0, 51, 80
1, 37560, Note_on_c, 0, 67, 80
1, 37574, Note_on_c, 0, 51, 0
1, 37574, Note_on_c, 0, 46, 0
1, 37579, Note_on_c, 0, 67, 0
1, 37584, Note_on_c, 0, 70, 80
1, 37603, Note_on_c, 0, 70, 0
1, 37608, Note_on_c, 0, 67, 80
1, 37627, Note_on_c, 0, 67, 0
1, 37632, Note_on_c, 0, 46, 80
1, 37632, Note_on_c, 0, 53, 80
1, 37656, Note_on_c, 0, 68, 80
1, 37670, Note_on_c, 0, 53, 0
1, 37670, Note_on_c, 0, 46, 0
1, 37675, Note_on_c, 0, 68, 0
1, 37680, Note_on_c, 0, 72, 80
1, 37699, Note_on_c, 0, 72, 0
1, 37704, Note_on_c, 0, 68, 80
1, 37723, Note_on_c, 0, 68, 0
1, 37728, Note_on_c, 0, 46, 80
1, 37728, Note_on_c, 0, 56, 80
1, 37752, Note_on_c, 0, 62, 80
1, 37766, Note_on_c, 0, 56, 0
1, 37766, Note_on_c, 0, 46, 0
1, 37771, Note_on_c, 0, 62, 0
1, 37776, Note_on_c, 0, 65, 80
1, 37795, Note_on_c, 0, 65, 0
1, 37800, Note_on_c, 0, 62, 80
1, 37819, Note_on_c, 0, 62, 0
1, 37824, Note_on_c, 0, 51, 80
1, 37824, Note_on_c, 0, 63, 80
1, 37862, Note_on_c, 0, 51, 0
1, 37872, Note_on_c, 0, 55, 80
1, 37900, Note_on_c, 0, 63, 0
1, 37910, Note_on_c, 0, 55, 0
1, 37920, Note_on_c, 0, 58, 80
1, 37944, Note_on_c, 0, 75, 80
1, 37958, Note_on_c, 0, 58, 0
1, 37963, Note_on_c, 0, 75, 0
1, 37968, Note_on_c, 0, 74, 80
1, 37968, Note_on_c, 0, 55, 80
1, 37987, Note_on_c, 0, 74, 0
1, 37992, Note_on_c, 0, 73, 80
1, 38006, Note_on_c, 0, 55, 0
1, 38011, Note_on_c, 0, 73, 0
1, 38016, Note_on_c, 0, 51, 80
1, 38016, Note_on_c, 0, 71, 80
1, 38054, Note_on_c, 0, 71, 0
1, 38054, Note_on_c, 0, 51, 0
1, 38064, Note_on_c, 0, 56, 80
1, 38064, Note_on_c, 0, 72, 80
1, 38102, Note_on_c, 0, 72, 0
1, 38102, Note_on_c, 0, 56, 0
1, 38112, Note_on_c, 0, 60, 80
1, 38112, Note_on_c, 0, 72, 80
1, 38131, Note_on_c, 0, 72, 0
1, 38136, Note_on_c, 0, 75, 80
1, 38145, Note_on_c, 0, 75, 0
1, 38148, Note_on_c, 0, 74, 80
1, 38150, Note_on_c, 0, 60, 0
1, 38157, Note_on_c, 0, 74, 0
1, 38160, Note_on_c, 0, 56, 80
1, 38160, Note_on_c, 0, 77, 80
1, 38169, Note_on_c, 0, 77, 0
1, 38172, Note_on_c, 0, 75, 80
1, 38181, Note_on_c, 0, 75, 0
1, 38184, Note_on_c, 0, 74, 80
1, 38193, Note_on_c, 0, 74, 0
1, 38196, Note_on_c, 0, 72, 80
1, 38198, Note_on_c, 0, 56, 0
1, 38205, Note_on_c, 0, 72, 0
1, 38208, Note_on_c, 0, 70, 80
1, 38208, Note_on_c, 0, 51, 80
1, 38227, Note_on_c, 0, 70, 0
1, 38232, Note_on_c, 0, 79, 80
1, 38246, Note_on_c, 0, 51, 0
1, 38251, Note_on_c, 0, 79, 0
1, 38256, Note_on_c, 0, 55, 80
1, 38256, Note_on_c, 0, 77, 80
1, 38275, Note_on_c, 0, 77, 0
1, 38280, Note_on_c, 0, 75, 80
1, 38294, Note_on_c, 0, 55, 0
1, 38299, Note_on_c, 0, 75, 0
1, 38304, Note_on_c, 0, 74, 80
1, 38304, Note_on_c, 0, 58, 80
1, 38323, Note_on_c, 0, 74, 0
1, 38328, Note_on_c, 0, 75, 80
1, 38342, Note_on_c, 0, 58, 0
1, 38347, Note_on_c, 0, 75, 0
1, 38352, Note_on_c, 0, 55, 80
1, 38352, Note_on_c, 0, 77, 80
1, 38371, Note_on_c, 0, 77, 0
1, 38376, Note_on_c, 0, 75, 80
1, 38390, Note_on_c, 0, 55, 0
1, 38395, Note_on_c, 0, 75, 0
1, 38400, Note_on_c, 0, 74, 80
1, 38400, Note_on_c, 0, 51, 80
1, 38428, Note_on_c, 0, 74, 0
1, 38436, Note_on_c, 0, 72, 80
1, 38438, Note_on_c, 0, 51, 0
1, 38445, Note_on_c, 0, 72, 0
1, 38448, Note_on_c, 0, 56, 80
1, 38448, Note_on_c, 0, 84, 80
1, 38486, Note_on_c, 0, 56, 0
1, 38496, Note_on_c, 0, 60, 80
1, 38505, Note_on_c, 0, 84, 0
1, 38508, Note_on_c, 0, 82, 80
1, 38517, Note_on_c, 0, 82, 0
1, 38520, Note_on_c, 0, 80, 80
1, 38529, Note_on_c, 0, 80, 0
1, 38532, Note_on_c, 0, 79, 80
1, 38534, Note_on_c, 0, 60, 0
1, 38541, Note_on_c, 0, 79, 0
1, 38544, Note_on_c, 0, 56, 80
1, 38544, Note_on_c, 0, 77, 80
1, 38553, Note_on_c, 0, 77, 0
1, 38556, Note_on_c, 0, 75, 80
1, 38565, Note_on_c, 0, 75, 0
1, 38568, Note_on_c, 0, 74, 80
1, 38577, Note_on_c, 0, 74, 0
1, 38580, Note_on_c, 0, 72, 80
1, 38582, Note_on_c, 0, 56, 0
1, 38589, Note_on_c, 0, 72, 0
1, 38592, Note_on_c, 0, 58, 80
1, 38592, Note_on_c, 0, 55, 80
1, 38592, Note_on_c, 0, 70, 80
1, 38592, Note_on_c, 0, 51, 80
1, 38611, Note_on_c, 0, 70, 0
1, 38616, Note_on_c, 0, 79, 80
1, 38635, Note_on_c, 0, 79, 0
1, 38640, Note_on_c, 0, 77, 80
1, 38659, Note_on_c, 0, 77, 0
1, 38664, Note_on_c, 0, 75, 80
1, 38668, Note_on_c, 0, 55, 0
1, 38668, Note_on_c, 0, 58, 0
1, 38668, Note_on_c, 0, 51, 0
1, 38683, Note_on_c, 0, 75, 0
1, 38688, Note_on_c, 0, 74, 80
1, 38707, Note_on_c, 0, 74, 0
1, 38712, Note_on_c, 0, 75, 80
1, 38731, Note_on_c, 0, 75, 0
1, 38736, Note_on_c, 0, 77, 80
1, 38755, Note_on_c, 0, 77, 0
1, 38760, Note_on_c, 0, 75, 80
1, 38779, Note_on_c, 0, 75, 0
1, 38784, Note_on_c, 0, 62, 80
1, 38784, Note_on_c, 0, 58, 80
1, 38784, Note_on_c, 0, 53, 80
1, 38784, Note_on_c, 0, 56, 80
1, 38808, Note_on_c, 0, 80, 80
1, 38827, Note_on_c, 0, 80, 0
1, 38832, Note_on_c, 0, 79, 80
1, 38851, Note_on_c, 0, 79, 0
1, 38856, Note_on_c, 0, 77, 80
1, 38860, Note_on_c, 0, 56, 0
1, 38860, Note_on_c, 0, 53, 0
1, 38860, Note_on_c, 0, 58, 0
1, 38860, Note_on_c, 0, 62, 0
1, 38875, Note_on_c, 0, 77, 0
1, 38880, Note_on_c, 0, 76, 80
1, 38899, Note_on_c, 0, 76, 0
1, 38904, Note_on_c, 0, 77, 80
1, 38923, Note_on_c, 0, 77, 0
1, 38928, Note_on_c, 0, 79, 80
1, 38947, Note_on_c, 0, 79, 0
1, 38952, Note_on_c, 0, 77, 80
1, 38971, Note_on_c, 0, 77, 0
1, 38976, Note_on_c, 0, 82, 80
1, 39024, Note_on_c, 0, 55, 80
1, 39062, Note_on_c, 0, 55, 0
1, 39072, Note_on_c, 0, 58, 80
1, 39110, Note_on_c, 0, 58, 0
1, 39120, Note_on_c, 0, 63, 80
1, 39129, Note_on_c, 0, 82, 0
1, 39158, Note_on_c, 0, 63, 0
1, 39168, Note_on_c, 0, 55, 80
1, 39216, Note_on_c, 0, 36, 80
1, 39254, Note_on_c, 0, 36, 0
1, 39264, Note_on_c, 0, 39, 80
1, 39302, Note_on_c, 0, 39, 0
1, 39312, Note_on_c, 0, 48, 80
1, 39321, Note_on_c, 0, 55, 0
1, 39350, Note_on_c, 0, 48, 0
1, 39360, Note_on_c, 0, 53, 80
1, 39408, Note_on_c, 0, 32, 80
1, 39446, Note_on_c, 0, 32, 0
1, 39456, Note_on_c, 0, 36, 80
1, 39494, Note_on_c, 0, 36, 0
1, 39504, Note_on_c, 0, 41, 80
1, 39513, Note_on_c, 0, 53, 0
1, 39542, Note_on_c, 0, 41, 0
1, 39552, Note_on_c, 0, 51, 80
1, 39600, Note_on_c, 0, 33, 80
1, 39638, Note_on_c, 0, 33, 0
1, 39648, Note_on_c, 0, 36, 80
1, 39686, Note_on_c, 0, 36, 0
1, 39696, Note_on_c, 0, 39, 80
1, 39734, Note_on_c, 0, 39, 0
1, 39744, Note_on_c, 0, 34, 80
1, 39782, Note_on_c, 0, 51, 0
1, 39792, Note_on_c, 0, 50, 80
1, 39820, Note_on_c, 0, 34, 0
1, 39840, Note_on_c, 0, 39, 80
1, 39868, Note_on_c, 0, 50, 0
1, 39888, Note_on_c, 0, 48, 80
1, 39916, Note_on_c, 0, 39, 0
1, 39936, Note_on_c, 0, 38, 80
1, 39964, Note_on_c, 0, 48, 0
1, 39984, Note_on_c, 0, 46, 80
1, 40012, Note_on_c, 0, 38, 0
1, 40032, Note_on_c, 0, 36, 80
1, 40060, Note_on_c, 0, 46, 0
1, 40080, Note_on_c, 0, 45, 80
1, 40108, Note_on_c, 0, 36, 0
1, 40128, Note_on_c, 0, 34, 80
1, 40128, Note_on_c, 0, 38, 80
1, 40128, Note_on_c, 0, 41, 80
1, 40128, Note_on_c, 0, 44, 80
1, 40156, Note_on_c, 0, 45, 0
1, 40435, Note_on_c, 0, 34, 0
1, 40435, Note_on_c, 0, 38, 0
1, 40435, Note_on_c, 0, 41, 0
1, 40435, Note_on_c, 0, 44, 0
1, 40512, Note_on_c, 0, 46, 80
1, 40521, Note_on_c, 0, 46, 0
1, 40524, Note_on_c, 0, 44, 80
1, 40533, Note_on_c, 0, 44, 0
1, 40536, Note_on_c, 0, 43, 80
1, 40545, Note_on_c, 0, 43, 0
1, 40548, Note_on_c, 0, 44, 80
1, 40557, Note_on_c, 0, 44, 0
1, 40560, Note_on_c, 0, 46, 80
1, 40569, Note_on_c, 0, 46, 0
1, 40572, Note_on_c, 0, 48, 80
1, 40581, Note_on_c, 0, 48, 0
1, 40584, Note_on_c, 0, 50, 80
1, 40593, Note_on_c, 0, 50, 0
1, 40596, Note_on_c, 0, 51, 80
1, 40605, Note_on_c, 0, 51, 0
1, 40608, Note_on_c, 0, 53, 80
1, 40617, Note_on_c, 0, 53, 0
1, 40620, Note_on_c, 0, 55, 80
1, 40629, Note_on_c, 0, 55, 0
1, 40632, Note_on_c, 0, 56, 80
1, 40641, Note_on_c, 0, 56, 0
1, 40644, Note_on_c, 0, 58, 80
1, 40653, Note_on_c, 0, 58, 0
1, 40656, Note_on_c, 0, 60, 80
1, 40665, Note_on_c, 0, 60, 0
1, 40668, Note_on_c, 0, 62, 80
1, 40677, Note_on_c, 0, 62, 0
1, 40680, Note_on_c, 0, 63, 80
1, 40689, Note_on_c, 0, 63, 0
1, 40692, Note_on_c, 0, 65, 80
1, 40701, Note_on_c, 0, 65, 0
1, 40704, Note_on_c, 0, 67, 80
1, 40713, Note_on_c, 0, 67, 0
1, 40716, Note_on_c, 0, 68, 80
1, 40725, Note_on_c, 0, 68, 0
1, 40728, Note_on_c, 0, 70, 80
1, 40737, Note_on_c, 0, 70, 0
1, 40740, Note_on_c, 0, 72, 80
1, 40749, Note_on_c, 0, 72, 0
1, 40752, Note_on_c, 0, 74, 80
1, 40761, Note_on_c, 0, 74, 0
1, 40764, Note_on_c, 0, 75, 80
1, 40773, Note_on_c, 0, 75, 0
1, 40776, Note_on_c, 0, 77, 80
1, 40785, Note_on_c, 0, 77, 0
1, 40788, Note_on_c, 0, 79, 80
1, 40797, Note_on_c, 0, 79, 0
1, 40800, Note_on_c, 0, 80, 80
1, 40809, Note_on_c, 0, 80, 0
1, 40812, Note_on_c, 0, 82, 80
1, 40821, Note_on_c, 0, 82, 0
1, 40824, Note_on_c, 0, 84, 80
1, 40833, Note_on_c, 0, 84, 0
1, 40836, Note_on_c, 0, 86, 80
1, 40845, Note_on_c, 0, 86, 0
1, 40848, Note_on_c, 0, 87, 80
1, 40857, Note_on_c, 0, 87, 0
1, 40860, Note_on_c, 0, 89, 80
1, 40879, Note_on_c, 0, 89, 0
1, 40884, Note_on_c, 0, 86, 80
1, 40903, Note_on_c, 0, 86, 0
1, 40908, Note_on_c, 0, 82, 80
1, 40927, Note_on_c, 0, 82, 0
1, 40932, Note_on_c, 0, 81, 80
1, 41008, Note_on_c, 0, 81, 0
1, 41028, Note_on_c, 0, 80, 80
1, 41181, Note_on_c, 0, 80, 0
1, 41280, Note_on_c, 0, 51, 80
1, 41304, Note_on_c, 0, 79, 80
1, 41318, Note_on_c, 0, 51, 0
1, 41323, Note_on_c, 0, 79, 0
1, 41328, Note_on_c, 0, 82, 80
1, 41347, Note_on_c, 0, 82, 0
1, 41352, Note_on_c, 0, 79, 80
1, 41371, Note_on_c, 0, 79, 0
1, 41376, Note_on_c, 0, 55, 80
1, 41400, Note_on_c, 0, 75, 80
1, 41414, Note_on_c, 0, 55, 0
1, 41419, Note_on_c, 0, 75, 0
1, 41424, Note_on_c, 0, 79, 80
1, 41443, Note_on_c, 0, 79, 0
1, 41448, Note_on_c, 0, 75, 80
1, 41467, Note_on_c, 0, 75, 0
1, 41472, Note_on_c, 0, 56, 80
1, 41496, Note_on_c, 0, 72, 80
1, 41510, Note_on_c, 0, 56, 0
1, 41515, Note_on_c, 0, 72, 0
1, 41520, Note_on_c, 0, 75, 80
1, 41539, Note_on_c, 0, 75, 0
1, 41544, Note_on_c, 0, 72, 80
1, 41563, Note_on_c, 0, 72, 0
1, 41568, Note_on_c, 0, 60, 80
1, 41592, Note_on_c, 0, 68, 80
1, 41606, Note_on_c, 0, 60, 0
1, 41611, Note_on_c, 0, 68, 0
1, 41616, Note_on_c, 0, 72, 80
1, 41635, Note_on_c, 0, 72, 0
1, 41640, Note_on_c, 0, 68, 80
1, 41659, Note_on_c, 0, 68, 0
1, 41664, Note_on_c, 0, 46, 80
1, 41664, Note_on_c, 0, 67, 80
1, 41683, Note_on_c, 0, 67, 0
1, 41688, Note_on_c, 0, 70, 80
1, 41702, Note_on_c, 0, 46, 0
1, 41712, Note_on_c, 0, 55, 80
1, 41726, Note_on_c, 0, 70, 0
1, 41736, Note_on_c, 0, 69, 80
1, 41750, Note_on_c, 0, 55, 0
1, 41760, Note_on_c, 0, 51, 80
1, 41774, Note_on_c, 0, 69, 0
1, 41784, Note_on_c, 0, 68, 80
1, 41798, Note_on_c, 0, 51, 0
1, 41808, Note_on_c, 0, 55, 80
1, 41822, Note_on_c, 0, 68, 0
1, 41832, Note_on_c, 0, 67, 80
1, 41846, Note_on_c, 0, 55, 0
1, 41851, Note_on_c, 0, 67, 0
1, 41856, Note_on_c, 0, 46, 80
1, 41856, Note_on_c, 0, 65, 80
1, 41865, Note_on_c, 0, 65, 0
1, 41868, Note_on_c, 0, 67, 80
1, 41877, Note_on_c, 0, 67, 0
1, 41880, Note_on_c, 0, 65, 80
1, 41889, Note_on_c, 0, 65, 0
1, 41892, Note_on_c, 0, 67, 80
1, 41894, Note_on_c, 0, 46, 0
1, 41901, Note_on_c, 0, 67, 0
1, 41904, Note_on_c, 0, 56, 80
1, 41904, Note_on_c, 0, 65, 80
1, 41913, Note_on_c, 0, 65, 0
1, 41916, Note_on_c, 0, 67, 80
1, 41925, Note_on_c, 0, 67, 0
1, 41928, Note_on_c, 0, 65, 80
1, 41937, Note_on_c, 0, 65, 0
1, 41940, Note_on_c, 0, 67, 80
1, 41942, Note_on_c, 0, 56, 0
1, 41949, Note_on_c, 0, 67, 0
1, 41952, Note_on_c, 0, 53, 80
1, 41952, Note_on_c, 0, 65, 80
1, 41961, Note_on_c, 0, 65, 0
1, 41964, Note_on_c, 0, 67, 80
1, 41973, Note_on_c, 0, 67, 0
1, 41976, Note_on_c, 0, 65, 80
1, 41985, Note_on_c, 0, 65, 0
1, 41988, Note_on_c, 0, 67, 80
1, 41990, Note_on_c, 0, 53, 0
1, 41997, Note_on_c, 0, 67, 0
1, 42000, Note_on_c, 0, 56, 80
1, 42000, Note_on_c, 0, 63, 80
1, 42019, Note_on_c, 0, 63, 0
1, 42024, Note_on_c, 0, 65, 80
1, 42038, Note_on_c, 0, 56, 0
1, 42043, Note_on_c, 0, 65, 0
1, 42048, Note_on_c, 0, 63, 80
1, 42048, Note_on_c, 0, 51, 80
1, 42067, Note_on_c, 0, 51, 0
1, 42072, Note_on_c, 0, 55, 80
1, 42091, Note_on_c, 0, 55, 0
1, 42096, Note_on_c, 0, 58, 80
1, 42115, Note_on_c, 0, 58, 0
1, 42120, Note_on_c, 0, 55, 80
1, 42124, Note_on_c, 0, 63, 0
1, 42139, Note_on_c, 0, 55, 0
1, 42144, Note_on_c, 0, 58, 80
1, 42163, Note_on_c, 0, 58, 0
1, 42168, Note_on_c, 0, 55, 80
1, 42187, Note_on_c, 0, 55, 0
1, 42192, Note_on_c, 0, 58, 80
1, 42211, Note_on_c, 0, 58, 0
1, 42216, Note_on_c, 0, 55, 80
1, 42235, Note_on_c, 0, 55, 0
1, 42240, Note_on_c, 0, 46, 80
1, 42240, Note_on_c, 0, 56, 80
1, 42240, Note_on_c, 0, 62, 80
1, 42259, Note_on_c, 0, 62, 0
1, 42264, Note_on_c, 0, 65, 80
1, 42283, Note_on_c, 0, 65, 0
1, 42288, Note_on_c, 0, 72, 80
1, 42307, Note_on_c, 0, 72, 0
1, 42312, Note_on_c, 0, 70, 80
1, 42316, Note_on_c, 0, 56, 0
1, 42316, Note_on_c, 0, 46, 0
1, 42331, Note_on_c, 0, 70, 0
1, 42336, Note_on_c, 0, 72, 80
1, 42355, Note_on_c, 0, 72, 0
1, 42360, Note_on_c, 0, 70, 80
1, 42379, Note_on_c, 0, 70, 0
1, 42384, Note_on_c, 0, 72, 80
1, 42403, Note_on_c, 0, 72, 0
1, 42408, Note_on_c, 0, 70, 80
1, 42427, Note_on_c, 0, 70, 0
1, 42432, Note_on_c, 0, 70, 80
1, 42432, Note_on_c, 0, 51, 80
1, 42451, Note_on_c, 0, 51, 0
1, 42456, Note_on_c, 0, 55, 80
1, 42475, Note_on_c, 0, 55, 0
1, 42480, Note_on_c, 0, 58, 80
1, 42499, Note_on_c, 0, 58, 0
1, 42504, Note_on_c, 0, 55, 80
1, 42508, Note_on_c, 0, 70, 0
1, 42523, Note_on_c, 0, 55, 0
1, 42528, Note_on_c, 0, 75, 80
1, 42528, Note_on_c, 0, 58, 80
1, 42547, Note_on_c, 0, 58, 0
1, 42552, Note_on_c, 0, 55, 80
1, 42566, Note_on_c, 0, 75, 0
1, 42571, Note_on_c, 0, 55, 0
1, 42576, Note_on_c, 0, 58, 80
1, 42595, Note_on_c, 0, 58, 0
1, 42600, Note_on_c, 0, 55, 80
1, 42619, Note_on_c, 0, 55, 0
1, 42624, Note_on_c, 0, 46, 80
1, 42624, Note_on_c, 0, 56, 80
1, 42624, Note_on_c, 0, 62, 80
1, 42643, Note_on_c, 0, 62, 0
1, 42648, Note_on_c, 0, 65, 80
1, 42667, Note_on_c, 0, 65, 0
1, 42672, Note_on_c, 0, 72, 80
1, 42691, Note_on_c, 0, 72, 0
1, 42696, Note_on_c, 0, 70, 80
1, 42700, Note_on_c, 0, 56, 0
1, 42700, Note_on_c, 0, 46, 0
1, 42715, Note_on_c, 0, 70, 0
1, 42720, Note_on_c, 0, 72, 80
1, 42739, Note_on_c, 0, 72, 0
1, 42744, Note_on_c, 0, 70, 80
1, 42763, Note_on_c, 0, 70, 0
1, 42768, Note_on_c, 0, 72, 80
1, 42787, Note_on_c, 0, 72, 0
1, 42792, Note_on_c, 0, 70, 80
1, 42811, Note_on_c, 0, 70, 0
1, 42816, Note_on_c, 0, 70, 80
1, 42816, Note_on_c, 0, 51, 80
1, 42835, Note_on_c, 0, 51, 0
1, 42840, Note_on_c, 0, 55, 80
1, 42859, Note_on_c, 0, 55, 0
1, 42864, Note_on_c, 0, 58, 80
1, 42883, Note_on_c, 0, 58, 0
1, 42888, Note_on_c, 0, 55, 80
1, 42892, Note_on_c, 0, 70, 0
1, 42907, Note_on_c, 0, 55, 0
1, 42912, Note_on_c, 0, 63, 80
1, 42912, Note_on_c, 0, 58, 80
1, 42931, Note_on_c, 0, 58, 0
1, 42936, Note_on_c, 0, 55, 80
1, 42950, Note_on_c, 0, 63, 0
1, 42955, Note_on_c, 0, 55, 0
1, 42960, Note_on_c, 0, 58, 80
1, 42979, Note_on_c, 0, 58, 0
1, 42984, Note_on_c, 0, 55, 80
1, 43003, Note_on_c, 0, 55, 0
1, 43008, Note_on_c, 0, 46, 80
1, 43008, Note_on_c, 0, 62, 80
1, 43008, Note_on_c, 0, 56, 80
1, 43027, Note_on_c, 0, 62, 0
1, 43032, Note_on_c, 0, 65, 80
1, 43051, Note_on_c, 0, 65, 0
1, 43056, Note_on_c, 0, 72, 80
1, 43075, Note_on_c, 0, 72, 0
1, 43080, Note_on_c, 0, 70, 80
1, 43099, Note_on_c, 0, 70, 0
1, 43104, Note_on_c, 0, 72, 80
1, 43123, Note_on_c, 0, 72, 0
1, 43128, Note_on_c, 0, 70, 80
1, 43147, Note_on_c, 0, 70, 0
1, 43152, Note_on_c, 0, 72, 80
1, 43161, Note_on_c, 0, 46, 0
1, 43161, Note_on_c, 0, 56, 0
1, 43171, Note_on_c, 0, 72, 0
1, 43176, Note_on_c, 0, 70, 80
1, 43195, Note_on_c, 0, 70, 0
1, 43200, Note_on_c, 0, 70, 80
1, 43200, Note_on_c, 0, 51, 80
1, 43200, Note_on_c, 0, 55, 80
1, 43219, Note_on_c, 0, 70, 0
1, 43224, Note_on_c, 0, 63, 80
1, 43243, Note_on_c, 0, 63, 0
1, 43248, Note_on_c, 0, 75, 80
1, 43267, Note_on_c, 0, 75, 0
1, 43272, Note_on_c, 0, 75, 80
1, 43276, Note_on_c, 0, 51, 0
1, 43276, Note_on_c, 0, 55, 0
1, 43291, Note_on_c, 0, 75, 0
1, 43296, Note_on_c, 0, 75, 80
1, 43315, Note_on_c, 0, 75, 0
1, 43320, Note_on_c, 0, 67, 80
1, 43339, Note_on_c, 0, 67, 0
1, 43344, Note_on_c, 0, 79, 80
1, 43363, Note_on_c, 0, 79, 0
1, 43368, Note_on_c, 0, 79, 80
1, 43387, Note_on_c, 0, 79, 0
1, 43392, Note_on_c, 0, 79, 80
1, 43411, Note_on_c, 0, 79, 0
1, 43416, Note_on_c, 0, 70, 80
1, 43435, Note_on_c, 0, 70, 0
1, 43440, Note_on_c, 0, 82, 80
1, 43459, Note_on_c, 0, 82, 0
1, 43464, Note_on_c, 0, 82, 80
1, 43483, Note_on_c, 0, 82, 0
1, 43488, Note_on_c, 0, 58, 80
1, 43488, Note_on_c, 0, 62, 80
1, 43488, Note_on_c, 0, 68, 80
1, 43488, Note_on_c, 0, 82, 80
1, 43507, Note_on_c, 0, 82, 0
1, 43512, Note_on_c, 0, 82, 80
1, 43531, Note_on_c, 0, 82, 0
1, 43536, Note_on_c, 0, 82, 80
1, 43555, Note_on_c, 0, 82, 0
1, 43560, Note_on_c, 0, 82, 80
1, 43564, Note_on_c, 0, 68, 0
1, 43564, Note_on_c, 0, 62, 0
1, 43564, Note_on_c, 0, 58, 0
1, 43579, Note_on_c, 0, 82, 0
1, 43584, Note_on_c, 0, 75, 80
1, 43584, Note_on_c, 0, 67, 80
1, 43584, Note_on_c, 0, 63, 80
1, 43622, Note_on_c, 0, 63, 0
1, 43622, Note_on_c, 0, 67, 0
1, 43622, Note_on_c, 0, 75, 0
1, 43680, Note_on_c, 0, 68, 80
1, 43680, Note_on_c, 0, 58, 80
1, 43680, Note_on_c, 0, 62, 80
1, 43680, Note_on_c, 0, 82, 80
1, 43699, Note_on_c, 0, 82, 0
1, 43704, Note_on_c, 0, 82, 80
1, 43723, Note_on_c, 0, 82, 0
1, 43728, Note_on_c, 0, 82, 80
1, 43747, Note_on_c, 0, 82, 0
1, 43752, Note_on_c, 0, 82, 80
1, 43756, Note_on_c, 0, 62, 0
1, 43756, Note_on_c, 0, 58, 0
1, 43756, Note_on_c, 0, 68, 0
1, 43771, Note_on_c, 0, 82, 0
1, 43776, Note_on_c, 0, 63, 80
1, 43776, Note_on_c, 0, 75, 80
1, 43776, Note_on_c, 0, 67, 80
1, 43814, Note_on_c, 0, 67, 0
1, 43814, Note_on_c, 0, 75, 0
1, 43814, Note_on_c, 0, 63, 0
1, 43872, Note_on_c, 0, 62, 80
1, 43872, Note_on_c, 0, 68, 80
1, 43872, Note_on_c, 0, 58, 80
1, 43872, Note_on_c, 0, 82, 80
1, 43891, Note_on_c, 0, 82, 0
1, 43896, Note_on_c, 0, 82, 80
1, 43915, Note_on_c, 0, 82, 0
1, 43920, Note_on_c, 0, 82, 80
1, 43939, Note_on_c, 0, 82, 0
1, 43944, Note_on_c, 0, 82, 80
1, 43948, Note_on_c, 0, 58, 0
1, 43948, Note_on_c, 0, 68, 0
1, 43948, Note_on_c, 0, 62, 0
1, 43963, Note_on_c, 0, 82, 0
1, 43968, Note_on_c, 0, 63, 80
1, 43968, Note_on_c, 0, 67, 80
1, 43968, Note_on_c, 0, 87, 80
1, 44006, Note_on_c, 0, 87, 0
1, 44006, Note_on_c, 0, 67, 0
1, 44006, Note_on_c, 0, 63, 0
1, 44160, Note_on_c, 0, 46, 80
1, 44160, Note_on_c, 0, 56, 80
1, 44160, Note_on_c, 0, 58, 80
1, 44160, Note_on_c, 0, 62, 80
1, 44179, Note_on_c, 0, 46, 0
1, 44184, Note_on_c, 0, 46, 80
1, 44203, Note_on_c, 0, 46, 0
1, 44208, Note_on_c, 0, 46, 80
1, 44227, Note_on_c, 0, 46, 0
1, 44232, Note_on_c, 0, 46, 80
1, 44251, Note_on_c, 0, 46, 0
1, 44256, Note_on_c, 0, 46, 80
1, 44275, Note_on_c, 0, 46, 0
1, 44280, Note_on_c, 0, 46, 80
1, 44299, Note_on_c, 0, 46, 0
1, 44304, Note_on_c, 0, 46, 80
1, 44313, Note_on_c, 0, 56, 0
1, 44313, Note_on_c, 0, 58, 0
1, 44313, Note_on_c, 0, 62, 0
1, 44323, Note_on_c, 0, 46, 0
1, 44328, Note_on_c, 0, 46, 80
1, 44347, Note_on_c, 0, 46, 0
1, 44352, Note_on_c, 0, 55, 80
1, 44352, Note_on_c, 0, 39, 80
1, 44352, Note_on_c, 0, 58, 80
1, 44352, Note_on_c, 0, 63, 80
1, 44390, Note_on_c, 0, 63, 0
1, 44390, Note_on_c, 0, 58, 0
1, 44390, Note_on_c, 0, 39, 0
1, 44390, Note_on_c, 0, 55, 0
1, 44448, Note_on_c, 0, 46, 80
1, 44448, Note_on_c, 0, 56, 80
1, 44448, Note_on_c, 0, 58, 80
1, 44448, Note_on_c, 0, 62, 80
1, 44448, Note_on_c, 0, 65, 80
1, 44467, Note_on_c, 0, 46, 0
1, 44472, Note_on_c, 0, 46, 80
1, 44491, Note_on_c, 0, 46, 0
1, 44496, Note_on_c, 0, 46, 80
1, 44515, Note_on_c, 0, 46, 0
1, 44520, Note_on_c, 0, 46, 80
1, 44524, Note_on_c, 0, 56, 0
1, 44524, Note_on_c, 0, 58, 0
1, 44524, Note_on_c, 0, 62, 0
1, 44524, Note_on_c, 0, 65, 0
1, 44539, Note_on_c, 0, 46, 0
1, 44544, Note_on_c, 0, 63, 80
1, 44544, Note_on_c, 0, 39, 80
1, 44544, Note_on_c, 0, 55, 80
1, 44544, Note_on_c, 0, 58, 80
1, 44582, Note_on_c, 0, 58, 0
1, 44582, Note_on_c, 0, 55, 0
1, 44582, Note_on_c, 0, 39, 0
1, 44582, Note_on_c, 0, 63, 0
1, 44640, Note_on_c, 0, 34, 80
1, 44640, Note_on_c, 0, 56, 80
1, 44640, Note_on_c, 0, 58, 80
1, 44640, Note_on_c, 0, 62, 80
1, 44640, Note_on_c, 0, 65, 80
1, 44659, Note_on_c, 0, 34, 0
1, 44664, Note_on_c, 0, 34, 80
1, 44683, Note_on_c, 0, 34, 0
1, 44688, Note_on_c, 0, 34, 80
1, 44707, Note_on_c, 0, 34, 0
1, 44712, Note_on_c, 0, 34, 80
1, 44716, Note_on_c, 0, 56, 0
1, 44716, Note_on_c, 0, 58, 0
1, 44716, Note_on_c, 0, 62, 0
1, 44716, Note_on_c, 0, 65, 0
1, 44731, Note_on_c, 0, 34, 0
1, 44736, Note_on_c, 0, 39, 80
1, 44736, Note_on_c, 0, 55, 80
1, 44736, Note_on_c, 0, 58, 80
1, 44736, Note_on_c, 0, 63, 80
1, 44774, Note_on_c, 0, 63, 0
1, 44774, Note_on_c, 0, 58, 0
1, 44774, Note_on_c, 0, 55, 0
1, 44774, Note_on_c, 0, 39, 0
1, 44784, End_track
0, 0, End_of_file