0, 0, Header, 0, 1, 240
1, 0, Start_track
1, 0, Tempo, 300000
1, 0, Note_on_c, 0, 60, 95
1, 0, Note_on_c, 1, 36, 95
1, 0, Note_on_c, 1, 48, 95
1, 382, Note_on_c, 0, 60, 0
1, 382, Note_on_c, 1, 48, 0
1, 382, Note_on_c, 1, 36, 0
1, 480, Note_on_c, 0, 63, 95
1, 480, Note_on_c, 1, 39, 95
1, 480, Note_on_c, 1, 51, 95
1, 670, Note_on_c, 0, 63, 0
1, 670, Note_on_c, 1, 51, 0
1, 670, Note_on_c, 1, 39, 0
1, 720, Note_on_c, 0, 67, 95
1, 720, Note_on_c, 1, 43, 95
1, 720, Note_on_c, 1, 55, 95
1, 910, Note_on_c, 0, 67, 0
1, 910, Note_on_c, 1, 55, 0
1, 910, Note_on_c, 1, 43, 0
1, 960, Note_on_c, 0, 72, 95
1, 960, Note_on_c, 0, 60, 95
1, 1150, Note_on_c, 0, 60, 0
1, 1150, Note_on_c, 0, 72, 0
1, 1200, Note_on_c, 0, 63, 95
1, 1200, Note_on_c, 0, 75, 95
1, 1390, Note_on_c, 0, 75, 0
1, 1390, Note_on_c, 0, 63, 0
1, 1620, Note_on_c, 0, 75, 65
1, 1667, Note_on_c, 0, 75, 0
1, 1680, Note_on_c, 0, 75, 65
1, 1702, Note_on_c, 0, 75, 0
1, 1710, Note_on_c, 0, 77, 65
1, 1732, Note_on_c, 0, 77, 0
1, 1740, Note_on_c, 0, 75, 65
1, 1762, Note_on_c, 0, 75, 0
1, 1770, Note_on_c, 0, 77, 65
1, 1792, Note_on_c, 0, 77, 0
1, 1800, Note_on_c, 0, 74, 65
1, 1847, Note_on_c, 0, 74, 0
1, 1860, Note_on_c, 0, 75, 65
1, 1907, Note_on_c, 0, 75, 0
1, 1920, Note_on_c, 0, 79, 65
1, 2110, Note_on_c, 0, 79, 0
1, 2160, Note_on_c, 0, 63, 65
1, 2160, Note_on_c, 0, 67, 65
1, 2160, Note_on_c, 0, 72, 65
1, 2350, Note_on_c, 0, 72, 0
1, 2350, Note_on_c, 0, 67, 0
1, 2350, Note_on_c, 0, 63, 0
1, 2400, Note_on_c, 0, 63, 65
1, 2400, Note_on_c, 0, 67, 65
1, 2400, Note_on_c, 0, 72, 65
1, 2590, Note_on_c, 0, 72, 0
1, 2590, Note_on_c, 0, 67, 0
1, 2590, Note_on_c, 0, 63, 0
1, 2640, Note_on_c, 0, 63, 65
1, 2640, Note_on_c, 0, 67, 65
1, 2640, Note_on_c, 0, 72, 65
1, 2830, Note_on_c, 0, 72, 0
1, 2830, Note_on_c, 0, 67, 0
1, 2830, Note_on_c, 0, 63, 0
1, 2880, Note_on_c, 0, 80, 65
1, 3070, Note_on_c, 0, 80, 0
1, 3120, Note_on_c, 0, 68, 75
1, 3120, Note_on_c, 0, 65, 75
1, 3120, Note_on_c, 0, 62, 76
1, 3120, Note_on_c, 0, 71, 75
1, 3310, Note_on_c, 0, 71, 0
1, 3310, Note_on_c, 0, 68, 0
1, 3310, Note_on_c, 0, 65, 0
1, 3310, Note_on_c, 0, 62, 0
1, 3360, Note_on_c, 0, 62, 85
1, 3360, Note_on_c, 0, 65, 84
1, 3360, Note_on_c, 0, 68, 86
1, 3360, Note_on_c, 0, 71, 87
1, 3550, Note_on_c, 0, 71, 0
1, 3550, Note_on_c, 0, 62, 0
1, 3550, Note_on_c, 0, 65, 0
1, 3550, Note_on_c, 0, 68, 0
1, 3840, Note_on_c, 1, 31, 95
1, 3840, Note_on_c, 1, 43, 95
1, 3840, Note_on_c, 1, 55, 95
1, 4222, Note_on_c, 1, 55, 0
1, 4222, Note_on_c, 1, 43, 0
1, 4222, Note_on_c, 1, 31, 0
1, 4320, Note_on_c, 1, 35, 95
1, 4320, Note_on_c, 1, 47, 95
1, 4320, Note_on_c, 1, 59, 95
1, 4510, Note_on_c, 1, 59, 0
1, 4510, Note_on_c, 1, 47, 0
1, 4510, Note_on_c, 1, 35, 0
1, 4560, Note_on_c, 0, 62, 95
1, 4560, Note_on_c, 1, 38, 95
1, 4560, Note_on_c, 1, 50, 95
1, 4750, Note_on_c, 0, 62, 0
1, 4750, Note_on_c, 1, 50, 0
1, 4750, Note_on_c, 1, 38, 0
1, 4800, Note_on_c, 0, 67, 95
1, 4800, Note_on_c, 1, 43, 95
1, 4800, Note_on_c, 1, 55, 95
1, 4990, Note_on_c, 0, 67, 0
1, 4990, Note_on_c, 1, 55, 0
1, 4990, Note_on_c, 1, 43, 0
1, 5040, Note_on_c, 0, 71, 95
1, 5040, Note_on_c, 1, 59, 95
1, 5040, Note_on_c, 1, 47, 95
1, 5230, Note_on_c, 0, 71, 0
1, 5230, Note_on_c, 1, 47, 0
1, 5230, Note_on_c, 1, 59, 0
1, 5460, Note_on_c, 0, 74, 65
1, 5507, Note_on_c, 0, 74, 0
1, 5520, Note_on_c, 0, 74, 66
1, 5542, Note_on_c, 0, 74, 0
1, 5550, Note_on_c, 0, 75, 66
1, 5572, Note_on_c, 0, 75, 0
1, 5580, Note_on_c, 0, 74, 65
1, 5602, Note_on_c, 0, 74, 0
1, 5610, Note_on_c, 0, 75, 65
1, 5632, Note_on_c, 0, 75, 0
1, 5640, Note_on_c, 0, 72, 65
1, 5687, Note_on_c, 0, 72, 0
1, 5700, Note_on_c, 0, 74, 65
1, 5747, Note_on_c, 0, 74, 0
1, 5760, Note_on_c, 0, 77, 65
1, 5950, Note_on_c, 0, 77, 0
1, 6000, Note_on_c, 0, 62, 65
1, 6000, Note_on_c, 0, 65, 65
1, 6000, Note_on_c, 0, 68, 65
1, 6000, Note_on_c, 0, 71, 65
1, 6190, Note_on_c, 0, 71, 0
1, 6190, Note_on_c, 0, 62, 0
1, 6190, Note_on_c, 0, 65, 0
1, 6190, Note_on_c, 0, 68, 0
1, 6240, Note_on_c, 0, 62, 65
1, 6240, Note_on_c, 0, 65, 65
1, 6240, Note_on_c, 0, 68, 65
1, 6240, Note_on_c, 0, 71, 65
1, 6430, Note_on_c, 0, 71, 0
1, 6430, Note_on_c, 0, 62, 0
1, 6430, Note_on_c, 0, 65, 0
1, 6430, Note_on_c, 0, 68, 0
1, 6480, Note_on_c, 0, 62, 65
1, 6480, Note_on_c, 0, 65, 65
1, 6480, Note_on_c, 0, 68, 65
1, 6480, Note_on_c, 0, 71, 65
1, 6670, Note_on_c, 0, 71, 0
1, 6670, Note_on_c, 0, 62, 0
1, 6670, Note_on_c, 0, 65, 0
1, 6670, Note_on_c, 0, 68, 0
1, 6720, Note_on_c, 0, 79, 65
1, 6910, Note_on_c, 0, 79, 0
1, 6960, Note_on_c, 0, 63, 65
1, 6960, Note_on_c, 0, 67, 65
1, 6960, Note_on_c, 0, 72, 65
1, 7150, Note_on_c, 0, 72, 0
1, 7150, Note_on_c, 0, 67, 0
1, 7150, Note_on_c, 0, 63, 0
1, 7200, Note_on_c, 0, 63, 65
1, 7200, Note_on_c, 0, 67, 65
1, 7200, Note_on_c, 0, 72, 65
1, 7390, Note_on_c, 0, 72, 0
1, 7390, Note_on_c, 0, 67, 0
1, 7390, Note_on_c, 0, 63, 0
1, 7680, Note_on_c, 0, 67, 95
1, 7680, Note_on_c, 1, 43, 95
1, 7775, Note_on_c, 1, 43, 0
1, 7800, Note_on_c, 1, 55, 95
1, 7895, Note_on_c, 1, 55, 0
1, 7920, Note_on_c, 1, 43, 95
1, 8015, Note_on_c, 1, 43, 0
1, 8040, Note_on_c, 1, 55, 95
1, 8135, Note_on_c, 1, 55, 0
1, 8160, Note_on_c, 1, 43, 73
1, 8255, Note_on_c, 0, 67, 0
1, 8255, Note_on_c, 1, 43, 0
1, 8280, Note_on_c, 1, 55, 75
1, 8375, Note_on_c, 1, 55, 0
1, 8400, Note_on_c, 0, 67, 65
1, 8400, Note_on_c, 0, 75, 65
1, 8400, Note_on_c, 1, 43, 65
1, 8495, Note_on_c, 1, 43, 0
1, 8520, Note_on_c, 1, 55, 65
1, 8590, Note_on_c, 0, 67, 0
1, 8615, Note_on_c, 1, 55, 0
1, 8640, Note_on_c, 0, 66, 95
1, 8640, Note_on_c, 1, 43, 95
1, 8735, Note_on_c, 1, 43, 0
1, 8760, Note_on_c, 1, 55, 95
1, 8830, Note_on_c, 0, 66, 0
1, 8830, Note_on_c, 0, 75, 0
1, 8855, Note_on_c, 1, 55, 0
1, 8880, Note_on_c, 0, 65, 95
1, 8880, Note_on_c, 0, 74, 95
1, 8880, Note_on_c, 1, 43, 95
1, 8975, Note_on_c, 1, 43, 0
1, 9000, Note_on_c, 1, 55, 95
1, 9070, Note_on_c, 0, 65, 0
1, 9095, Note_on_c, 1, 55, 0
1, 9120, Note_on_c, 0, 64, 95
1, 9120, Note_on_c, 1, 43, 95
1, 9215, Note_on_c, 1, 43, 0
1, 9240, Note_on_c, 1, 55, 95
1, 9262, Note_on_c, 0, 74, 0
1, 9310, Note_on_c, 0, 64, 0
1, 9335, Note_on_c, 1, 55, 0
1, 9360, Note_on_c, 0, 63, 95
1, 9360, Note_on_c, 0, 72, 95
1, 9360, Note_on_c, 1, 43, 95
1, 9455, Note_on_c, 1, 43, 0
1, 9480, Note_on_c, 1, 55, 95
1, 9550, Note_on_c, 0, 63, 0
1, 9575, Note_on_c, 1, 55, 0
1, 9600, Note_on_c, 0, 62, 95
1, 9600, Note_on_c, 1, 43, 95
1, 9695, Note_on_c, 1, 43, 0
1, 9720, Note_on_c, 1, 55, 95
1, 9790, Note_on_c, 0, 72, 0
1, 9815, Note_on_c, 1, 55, 0
1, 9840, Note_on_c, 0, 71, 95
1, 9840, Note_on_c, 1, 43, 95
1, 9935, Note_on_c, 1, 43, 0
1, 9960, Note_on_c, 1, 55, 95
1, 9982, Note_on_c, 0, 62, 0
1, 10030, Note_on_c, 0, 71, 0
1, 10055, Note_on_c, 1, 55, 0
1, 10080, Note_on_c, 1, 43, 76
1, 10175, Note_on_c, 1, 43, 0
1, 10200, Note_on_c, 1, 55, 80
1, 10295, Note_on_c, 1, 55, 0
1, 10320, Note_on_c, 0, 79, 79
1, 10320, Note_on_c, 0, 75, 63
1, 10320, Note_on_c, 1, 43, 77
1, 10415, Note_on_c, 1, 43, 0
1, 10440, Note_on_c, 1, 55, 64
1, 10510, Note_on_c, 0, 75, 0
1, 10510, Note_on_c, 0, 79, 0
1, 10535, Note_on_c, 1, 55, 0
1, 10560, Note_on_c, 0, 75, 65
1, 10560, Note_on_c, 0, 78, 65
1, 10560, Note_on_c, 1, 43, 65
1, 10655, Note_on_c, 1, 43, 0
1, 10680, Note_on_c, 1, 55, 65
1, 10750, Note_on_c, 0, 78, 0
1, 10750, Note_on_c, 0, 75, 0
1, 10775, Note_on_c, 1, 55, 0
1, 10800, Note_on_c, 0, 74, 65
1, 10800, Note_on_c, 0, 77, 65
1, 10800, Note_on_c, 1, 43, 65
1, 10895, Note_on_c, 1, 43, 0
1, 10920, Note_on_c, 1, 55, 65
1, 10990, Note_on_c, 0, 77, 0
1, 11015, Note_on_c, 1, 55, 0
1, 11040, Note_on_c, 0, 76, 65
1, 11040, Note_on_c, 1, 43, 65
1, 11135, Note_on_c, 1, 43, 0
1, 11160, Note_on_c, 1, 55, 65
1, 11182, Note_on_c, 0, 74, 0
1, 11230, Note_on_c, 0, 76, 0
1, 11255, Note_on_c, 1, 55, 0
1, 11280, Note_on_c, 0, 72, 82
1, 11280, Note_on_c, 0, 75, 80
1, 11280, Note_on_c, 1, 43, 80
1, 11375, Note_on_c, 1, 43, 0
1, 11400, Note_on_c, 1, 55, 81
1, 11470, Note_on_c, 0, 75, 0
1, 11470, Note_on_c, 0, 72, 0
1, 11495, Note_on_c, 1, 55, 0
1, 11520, Note_on_c, 0, 74, 95
1, 11520, Note_on_c, 0, 72, 95
1, 11520, Note_on_c, 1, 43, 95
1, 11615, Note_on_c, 1, 43, 0
1, 11640, Note_on_c, 1, 55, 95
1, 11710, Note_on_c, 0, 72, 0
1, 11735, Note_on_c, 1, 55, 0
1, 11760, Note_on_c, 0, 71, 95
1, 11760, Note_on_c, 1, 55, 95
1, 11855, Note_on_c, 1, 55, 0
1, 11880, Note_on_c, 1, 55, 95
1, 11902, Note_on_c, 0, 74, 0
1, 11950, Note_on_c, 0, 71, 0
1, 11975, Note_on_c, 1, 55, 0
1, 12000, Note_on_c, 1, 41, 95
1, 12095, Note_on_c, 1, 41, 0
1, 12120, Note_on_c, 1, 53, 95
1, 12215, Note_on_c, 1, 53, 0
1, 12240, Note_on_c, 0, 71, 95
1, 12240, Note_on_c, 0, 74, 95
1, 12240, Note_on_c, 0, 80, 95
1, 12240, Note_on_c, 1, 53, 95
1, 12335, Note_on_c, 1, 53, 0
1, 12360, Note_on_c, 1, 53, 95
1, 12455, Note_on_c, 1, 53, 0
1, 12480, Note_on_c, 1, 39, 95
1, 12575, Note_on_c, 1, 39, 0
1, 12600, Note_on_c, 1, 51, 95
1, 12670, Note_on_c, 0, 80, 0
1, 12670, Note_on_c, 0, 74, 0
1, 12670, Note_on_c, 0, 71, 0
1, 12695, Note_on_c, 1, 51, 0
1, 12720, Note_on_c, 0, 72, 95
1, 12720, Note_on_c, 0, 75, 95
1, 12720, Note_on_c, 0, 79, 95
1, 12720, Note_on_c, 1, 51, 95
1, 12815, Note_on_c, 1, 51, 0
1, 12840, Note_on_c, 1, 51, 95
1, 12910, Note_on_c, 0, 79, 0
1, 12910, Note_on_c, 0, 75, 0
1, 12910, Note_on_c, 0, 72, 0
1, 12935, Note_on_c, 1, 51, 0
1, 12960, Note_on_c, 1, 35, 95
1, 13055, Note_on_c, 1, 35, 0
1, 13080, Note_on_c, 1, 47, 95
1, 13140, Note_on_c, 0, 67, 95
1, 13175, Note_on_c, 1, 47, 0
1, 13187, Note_on_c, 0, 67, 0
1, 13200, Note_on_c, 0, 74, 95
1, 13200, Note_on_c, 1, 47, 95
1, 13295, Note_on_c, 1, 47, 0
1, 13320, Note_on_c, 1, 47, 95
1, 13342, Note_on_c, 0, 74, 0
1, 13380, Note_on_c, 0, 77, 95
1, 13415, Note_on_c, 1, 47, 0
1, 13427, Note_on_c, 0, 77, 0
1, 13440, Note_on_c, 0, 75, 95
1, 13440, Note_on_c, 1, 36, 95
1, 13462, Note_on_c, 0, 75, 0
1, 13470, Note_on_c, 0, 77, 95
1, 13492, Note_on_c, 0, 77, 0
1, 13500, Note_on_c, 0, 74, 95
1, 13535, Note_on_c, 1, 36, 0
1, 13547, Note_on_c, 0, 74, 0
1, 13560, Note_on_c, 0, 75, 95
1, 13560, Note_on_c, 1, 48, 95
1, 13607, Note_on_c, 0, 75, 0
1, 13620, Note_on_c, 0, 77, 95
1, 13655, Note_on_c, 1, 48, 0
1, 13667, Note_on_c, 0, 77, 0
1, 13680, Note_on_c, 0, 79, 95
1, 13680, Note_on_c, 1, 48, 95
1, 13775, Note_on_c, 1, 48, 0
1, 13800, Note_on_c, 1, 48, 95
1, 13870, Note_on_c, 0, 79, 0
1, 13895, Note_on_c, 1, 48, 0
1, 13920, Note_on_c, 1, 41, 95
1, 14015, Note_on_c, 1, 41, 0
1, 14040, Note_on_c, 1, 53, 95
1, 14135, Note_on_c, 1, 53, 0
1, 14160, Note_on_c, 0, 71, 95
1, 14160, Note_on_c, 0, 74, 95
1, 14160, Note_on_c, 0, 80, 95
1, 14160, Note_on_c, 1, 53, 95
1, 14255, Note_on_c, 1, 53, 0
1, 14280, Note_on_c, 1, 53, 95
1, 14375, Note_on_c, 1, 53, 0
1, 14400, Note_on_c, 1, 39, 95
1, 14495, Note_on_c, 1, 39, 0
1, 14520, Note_on_c, 1, 51, 95
1, 14590, Note_on_c, 0, 80, 0
1, 14590, Note_on_c, 0, 74, 0
1, 14590, Note_on_c, 0, 71, 0
1, 14615, Note_on_c, 1, 51, 0
1, 14640, Note_on_c, 0, 72, 95
1, 14640, Note_on_c, 0, 75, 95
1, 14640, Note_on_c, 0, 79, 95
1, 14640, Note_on_c, 1, 51, 95
1, 14735, Note_on_c, 1, 51, 0
1, 14760, Note_on_c, 1, 51, 95
1, 14830, Note_on_c, 0, 79, 0
1, 14830, Note_on_c, 0, 75, 0
1, 14830, Note_on_c, 0, 72, 0
1, 14855, Note_on_c, 1, 51, 0
1, 14880, Note_on_c, 1, 38, 95
1, 14975, Note_on_c, 1, 38, 0
1, 15000, Note_on_c, 1, 50, 95
1, 15060, Note_on_c, 0, 77, 95
1, 15095, Note_on_c, 1, 50, 0
1, 15107, Note_on_c, 0, 77, 0
1, 15120, Note_on_c, 0, 83, 95
1, 15120, Note_on_c, 1, 50, 95
1, 15215, Note_on_c, 1, 50, 0
1, 15240, Note_on_c, 1, 50, 95
1, 15262, Note_on_c, 0, 83, 0
1, 15300, Note_on_c, 0, 86, 95
1, 15335, Note_on_c, 1, 50, 0
1, 15347, Note_on_c, 0, 86, 0
1, 15360, Note_on_c, 0, 87, 81
1, 15360, Note_on_c, 1, 48, 81
1, 15455, Note_on_c, 0, 87, 0
1, 15480, Note_on_c, 0, 79, 65
1, 15550, Note_on_c, 1, 48, 0
1, 15575, Note_on_c, 0, 79, 0
1, 15600, Note_on_c, 0, 84, 65
1, 15695, Note_on_c, 0, 84, 0
1, 15720, Note_on_c, 0, 79, 65
1, 15815, Note_on_c, 0, 79, 0
1, 15840, Note_on_c, 1, 53, 65
1, 15960, Note_on_c, 0, 77, 65
1, 16030, Note_on_c, 1, 53, 0
1, 16055, Note_on_c, 0, 77, 0
1, 16080, Note_on_c, 0, 80, 65
1, 16175, Note_on_c, 0, 80, 0
1, 16200, Note_on_c, 0, 74, 65
1, 16295, Note_on_c, 0, 74, 0
1, 16320, Note_on_c, 1, 55, 65
1, 16440, Note_on_c, 0, 75, 65
1, 16510, Note_on_c, 1, 55, 0
1, 16535, Note_on_c, 0, 75, 0
1, 16560, Note_on_c, 0, 79, 65
1, 16655, Note_on_c, 0, 79, 0
1, 16680, Note_on_c, 0, 72, 65
1, 16775, Note_on_c, 0, 72, 0
1, 16800, Note_on_c, 1, 43, 65
1, 16920, Note_on_c, 0, 74, 65
1, 16990, Note_on_c, 1, 43, 0
1, 17015, Note_on_c, 0, 74, 0
1, 17040, Note_on_c, 0, 77, 80
1, 17135, Note_on_c, 0, 77, 0
1, 17160, Note_on_c, 0, 71, 80
1, 17255, Note_on_c, 0, 71, 0
1, 17280, Note_on_c, 0, 60, 95
1, 17280, Note_on_c, 0, 72, 95
1, 17662, Note_on_c, 0, 72, 0
1, 17662, Note_on_c, 0, 60, 0
1, 17760, Note_on_c, 0, 63, 95
1, 17760, Note_on_c, 0, 75, 95
1, 17950, Note_on_c, 0, 75, 0
1, 17950, Note_on_c, 0, 63, 0
1, 18000, Note_on_c, 0, 67, 95
1, 18000, Note_on_c, 0, 79, 95
1, 18190, Note_on_c, 0, 79, 0
1, 18190, Note_on_c, 0, 67, 0
1, 18240, Note_on_c, 0, 84, 95
1, 18240, Note_on_c, 0, 72, 95
1, 18430, Note_on_c, 0, 72, 0
1, 18430, Note_on_c, 0, 84, 0
1, 18480, Note_on_c, 0, 75, 95
1, 18480, Note_on_c, 0, 87, 95
1, 18670, Note_on_c, 0, 87, 0
1, 18670, Note_on_c, 0, 75, 0
1, 18900, Note_on_c, 0, 75, 95
1, 18947, Note_on_c, 0, 75, 0
1, 18960, Note_on_c, 0, 75, 95
1, 18982, Note_on_c, 0, 75, 0
1, 18990, Note_on_c, 0, 77, 95
1, 19012, Note_on_c, 0, 77, 0
1, 19020, Note_on_c, 0, 75, 95
1, 19042, Note_on_c, 0, 75, 0
1, 19050, Note_on_c, 0, 77, 95
1, 19072, Note_on_c, 0, 77, 0
1, 19080, Note_on_c, 0, 74, 95
1, 19127, Note_on_c, 0, 74, 0
1, 19140, Note_on_c, 0, 75, 95
1, 19187, Note_on_c, 0, 75, 0
1, 19200, Note_on_c, 0, 80, 95
1, 19200, Note_on_c, 1, 46, 95
1, 19200, Note_on_c, 1, 34, 95
1, 19262, Note_on_c, 0, 80, 0
1, 19280, Note_on_c, 0, 82, 95
1, 19342, Note_on_c, 0, 82, 0
1, 19360, Note_on_c, 0, 84, 95
1, 19422, Note_on_c, 0, 84, 0
1, 19440, Note_on_c, 0, 82, 95
1, 19502, Note_on_c, 0, 82, 0
1, 19520, Note_on_c, 0, 80, 95
1, 19582, Note_on_c, 0, 80, 0
1, 19582, Note_on_c, 1, 34, 0
1, 19582, Note_on_c, 1, 46, 0
1, 19600, Note_on_c, 0, 79, 95
1, 19662, Note_on_c, 0, 79, 0
1, 19680, Note_on_c, 0, 77, 95
1, 19680, Note_on_c, 1, 50, 95
1, 19680, Note_on_c, 1, 38, 95
1, 19742, Note_on_c, 0, 77, 0
1, 19760, Note_on_c, 0, 79, 95
1, 19822, Note_on_c, 0, 79, 0
1, 19840, Note_on_c, 0, 80, 95
1, 19870, Note_on_c, 1, 38, 0
1, 19870, Note_on_c, 1, 50, 0
1, 19902, Note_on_c, 0, 80, 0
1, 19920, Note_on_c, 0, 79, 95
1, 19920, Note_on_c, 1, 41, 95
1, 19920, Note_on_c, 1, 53, 95
1, 19982, Note_on_c, 0, 79, 0
1, 20000, Note_on_c, 0, 77, 95
1, 20062, Note_on_c, 0, 77, 0
1, 20080, Note_on_c, 0, 75, 95
1, 20110, Note_on_c, 1, 53, 0
1, 20110, Note_on_c, 1, 41, 0
1, 20142, Note_on_c, 0, 75, 0
1, 20160, Note_on_c, 0, 74, 95
1, 20160, Note_on_c, 1, 58, 95
1, 20160, Note_on_c, 1, 46, 95
1, 20222, Note_on_c, 0, 74, 0
1, 20240, Note_on_c, 0, 75, 95
1, 20302, Note_on_c, 0, 75, 0
1, 20320, Note_on_c, 0, 77, 95
1, 20350, Note_on_c, 1, 46, 0
1, 20350, Note_on_c, 1, 58, 0
1, 20382, Note_on_c, 0, 77, 0
1, 20400, Note_on_c, 0, 62, 95
1, 20400, Note_on_c, 0, 75, 95
1, 20400, Note_on_c, 1, 50, 95
1, 20462, Note_on_c, 0, 75, 0
1, 20480, Note_on_c, 0, 74, 95
1, 20542, Note_on_c, 0, 74, 0
1, 20560, Note_on_c, 0, 72, 95
1, 20590, Note_on_c, 0, 62, 0
1, 20590, Note_on_c, 1, 50, 0
1, 20622, Note_on_c, 0, 72, 0
1, 20640, Note_on_c, 0, 70, 95
1, 20702, Note_on_c, 0, 70, 0
1, 20720, Note_on_c, 0, 72, 95
1, 20782, Note_on_c, 0, 72, 0
1, 20800, Note_on_c, 0, 70, 95
1, 20862, Note_on_c, 0, 70, 0
1, 20880, Note_on_c, 0, 68, 95
1, 20942, Note_on_c, 0, 68, 0
1, 20960, Note_on_c, 0, 70, 95
1, 21022, Note_on_c, 0, 70, 0
1, 21040, Note_on_c, 0, 68, 95
1, 21102, Note_on_c, 0, 68, 0
1, 21120, Note_on_c, 0, 67, 50
1, 21120, Note_on_c, 1, 51, 50
1, 21215, Note_on_c, 1, 51, 0
1, 21240, Note_on_c, 1, 58, 50
1, 21335, Note_on_c, 1, 58, 0
1, 21360, Note_on_c, 1, 55, 50
1, 21407, Note_on_c, 0, 67, 0
1, 21455, Note_on_c, 1, 55, 0
1, 21480, Note_on_c, 0, 68, 50
1, 21480, Note_on_c, 1, 58, 50
1, 21502, Note_on_c, 0, 68, 0
1, 21510, Note_on_c, 0, 67, 50
1, 21532, Note_on_c, 0, 67, 0
1, 21540, Note_on_c, 0, 65, 50
1, 21562, Note_on_c, 0, 65, 0
1, 21570, Note_on_c, 0, 67, 50
1, 21575, Note_on_c, 1, 58, 0
1, 21592, Note_on_c, 0, 67, 0
1, 21600, Note_on_c, 0, 68, 50
1, 21600, Note_on_c, 1, 53, 50
1, 21695, Note_on_c, 1, 53, 0
1, 21720, Note_on_c, 1, 58, 50
1, 21790, Note_on_c, 0, 68, 0
1, 21815, Note_on_c, 1, 58, 0
1, 21840, Note_on_c, 0, 62, 50
1, 21840, Note_on_c, 1, 56, 50
1, 21935, Note_on_c, 1, 56, 0
1, 21960, Note_on_c, 1, 58, 50
1, 22030, Note_on_c, 0, 62, 0
1, 22055, Note_on_c, 1, 58, 0
1, 22080, Note_on_c, 0, 63, 50
1, 22080, Note_on_c, 1, 55, 50
1, 22175, Note_on_c, 0, 63, 0
1, 22175, Note_on_c, 1, 55, 0
1, 22200, Note_on_c, 0, 67, 50
1, 22200, Note_on_c, 1, 58, 50
1, 22295, Note_on_c, 0, 67, 0
1, 22295, Note_on_c, 1, 58, 0
1, 22320, Note_on_c, 0, 70, 50
1, 22320, Note_on_c, 1, 51, 50
1, 22415, Note_on_c, 1, 51, 0
1, 22440, Note_on_c, 1, 58, 50
1, 22535, Note_on_c, 1, 58, 0
1, 22560, Note_on_c, 1, 50, 50
1, 22607, Note_on_c, 0, 70, 0
1, 22655, Note_on_c, 1, 50, 0
1, 22680, Note_on_c, 0, 69, 50
1, 22680, Note_on_c, 1, 58, 50
1, 22775, Note_on_c, 0, 69, 0
1, 22775, Note_on_c, 1, 58, 0
1, 22800, Note_on_c, 0, 68, 50
1, 22800, Note_on_c, 1, 46, 50
1, 22895, Note_on_c, 0, 68, 0
1, 22895, Note_on_c, 1, 46, 0
1, 22920, Note_on_c, 0, 66, 50
1, 22920, Note_on_c, 1, 58, 50
1, 23015, Note_on_c, 0, 66, 0
1, 23015, Note_on_c, 1, 58, 0
1, 23040, Note_on_c, 0, 67, 50
1, 23040, Note_on_c, 1, 51, 50
1, 23135, Note_on_c, 1, 51, 0
1, 23160, Note_on_c, 1, 58, 50
1, 23255, Note_on_c, 1, 58, 0
1, 23280, Note_on_c, 1, 55, 50
1, 23327, Note_on_c, 0, 67, 0
1, 23375, Note_on_c, 1, 55, 0
1, 23400, Note_on_c, 0, 68, 50
1, 23400, Note_on_c, 1, 58, 50
1, 23422, Note_on_c, 0, 68, 0
1, 23430, Note_on_c, 0, 67, 50
1, 23452, Note_on_c, 0, 67, 0
1, 23460, Note_on_c, 0, 65, 50
1, 23482, Note_on_c, 0, 65, 0
1, 23490, Note_on_c, 0, 67, 50
1, 23495, Note_on_c, 1, 58, 0
1, 23512, Note_on_c, 0, 67, 0
1, 23520, Note_on_c, 0, 68, 50
1, 23520, Note_on_c, 1, 53, 50
1, 23615, Note_on_c, 1, 53, 0
1, 23640, Note_on_c, 1, 58, 50
1, 23710, Note_on_c, 0, 68, 0
1, 23735, Note_on_c, 1, 58, 0
1, 23760, Note_on_c, 0, 62, 50
1, 23760, Note_on_c, 1, 56, 50
1, 23855, Note_on_c, 1, 56, 0
1, 23880, Note_on_c, 1, 58, 50
1, 23950, Note_on_c, 0, 62, 0
1, 23975, Note_on_c, 1, 58, 0
1, 24000, Note_on_c, 0, 63, 50
1, 24000, Note_on_c, 1, 55, 50
1, 24095, Note_on_c, 0, 63, 0
1, 24095, Note_on_c, 1, 55, 0
1, 24120, Note_on_c, 0, 75, 50
1, 24120, Note_on_c, 1, 58, 50
1, 24215, Note_on_c, 0, 75, 0
1, 24215, Note_on_c, 1, 58, 0
1, 24240, Note_on_c, 0, 74, 50
1, 24240, Note_on_c, 1, 51, 50
1, 24335, Note_on_c, 0, 74, 0
1, 24335, Note_on_c, 1, 51, 0
1, 24360, Note_on_c, 0, 72, 50
1, 24360, Note_on_c, 1, 58, 50
1, 24455, Note_on_c, 0, 72, 0
1, 24455, Note_on_c, 1, 58, 0
1, 24480, Note_on_c, 0, 71, 50
1, 24480, Note_on_c, 1, 50, 50
1, 24575, Note_on_c, 0, 71, 0
1, 24575, Note_on_c, 1, 50, 0
1, 24600, Note_on_c, 0, 69, 50
1, 24600, Note_on_c, 1, 58, 50
1, 24695, Note_on_c, 0, 69, 0
1, 24695, Note_on_c, 1, 58, 0
1, 24720, Note_on_c, 0, 68, 50
1, 24720, Note_on_c, 1, 46, 50
1, 24815, Note_on_c, 0, 68, 0
1, 24815, Note_on_c, 1, 46, 0
1, 24840, Note_on_c, 0, 66, 50
1, 24840, Note_on_c, 1, 58, 50
1, 24935, Note_on_c, 0, 66, 0
1, 24935, Note_on_c, 1, 58, 0
1, 24960, Note_on_c, 0, 67, 50
1, 24960, Note_on_c, 1, 51, 50
1, 25055, Note_on_c, 1, 51, 0
1, 25080, Note_on_c, 1, 58, 50
1, 25150, Note_on_c, 0, 67, 0
1, 25175, Note_on_c, 1, 58, 0
1, 25200, Note_on_c, 0, 70, 50
1, 25200, Note_on_c, 1, 55, 50
1, 25295, Note_on_c, 1, 55, 0
1, 25320, Note_on_c, 1, 58, 50
1, 25390, Note_on_c, 0, 70, 0
1, 25415, Note_on_c, 1, 58, 0
1, 25440, Note_on_c, 1, 50, 55
1, 25535, Note_on_c, 1, 50, 0
1, 25560, Note_on_c, 0, 70, 55
1, 25560, Note_on_c, 1, 58, 55
1, 25655, Note_on_c, 0, 70, 0
1, 25655, Note_on_c, 1, 58, 0
1, 25680, Note_on_c, 0, 70, 60
1, 25680, Note_on_c, 1, 53, 61
1, 25775, Note_on_c, 0, 70, 0
1, 25775, Note_on_c, 1, 53, 0
1, 25800, Note_on_c, 0, 70, 60
1, 25800, Note_on_c, 1, 58, 60
1, 25895, Note_on_c, 0, 70, 0
1, 25895, Note_on_c, 1, 58, 0
1, 25920, Note_on_c, 0, 77, 65
1, 25920, Note_on_c, 1, 48, 65
1, 26015, Note_on_c, 0, 77, 0
1, 26015, Note_on_c, 1, 48, 0
1, 26040, Note_on_c, 0, 75, 66
1, 26040, Note_on_c, 1, 58, 65
1, 26135, Note_on_c, 0, 75, 0
1, 26135, Note_on_c, 1, 58, 0
1, 26160, Note_on_c, 0, 75, 70
1, 26160, Note_on_c, 1, 55, 70
1, 26255, Note_on_c, 1, 55, 0
1, 26280, Note_on_c, 1, 58, 70
1, 26350, Note_on_c, 0, 75, 0
1, 26375, Note_on_c, 1, 58, 0
1, 26400, Note_on_c, 1, 48, 74
1, 26495, Note_on_c, 1, 48, 0
1, 26520, Note_on_c, 0, 75, 73
1, 26520, Note_on_c, 1, 58, 74
1, 26615, Note_on_c, 0, 75, 0
1, 26615, Note_on_c, 1, 58, 0
1, 26640, Note_on_c, 0, 75, 85
1, 26640, Note_on_c, 1, 55, 80
1, 26735, Note_on_c, 0, 75, 0
1, 26735, Note_on_c, 1, 55, 0
1, 26760, Note_on_c, 0, 75, 85
1, 26760, Note_on_c, 1, 58, 86
1, 26855, Note_on_c, 0, 75, 0
1, 26855, Note_on_c, 1, 58, 0
1, 26880, Note_on_c, 0, 75, 95
1, 26880, Note_on_c, 1, 53, 95
1, 26880, Note_on_c, 1, 48, 95
1, 26880, Note_on_c, 1, 57, 95
1, 26975, Note_on_c, 0, 75, 0
1, 27000, Note_on_c, 0, 77, 95
1, 27047, Note_on_c, 0, 77, 0
1, 27060, Note_on_c, 0, 79, 95
1, 27107, Note_on_c, 0, 79, 0
1, 27120, Note_on_c, 0, 77, 95
1, 27215, Note_on_c, 0, 77, 0
1, 27240, Note_on_c, 0, 75, 95
1, 27335, Note_on_c, 0, 75, 0
1, 27360, Note_on_c, 0, 74, 95
1, 27455, Note_on_c, 0, 74, 0
1, 27480, Note_on_c, 0, 72, 95
1, 27575, Note_on_c, 0, 72, 0
1, 27600, Note_on_c, 0, 70, 95
1, 27647, Note_on_c, 1, 57, 0
1, 27647, Note_on_c, 1, 48, 0
1, 27647, Note_on_c, 1, 53, 0
1, 27695, Note_on_c, 0, 70, 0
1, 27720, Note_on_c, 0, 69, 95
1, 27815, Note_on_c, 0, 69, 0
1, 27840, Note_on_c, 0, 72, 95
1, 28030, Note_on_c, 0, 72, 0
1, 28080, Note_on_c, 0, 62, 95
1, 28080, Note_on_c, 0, 70, 95
1, 28080, Note_on_c, 1, 58, 95
1, 28270, Note_on_c, 0, 70, 0
1, 28270, Note_on_c, 0, 62, 0
1, 28270, Note_on_c, 1, 58, 0
1, 28320, Note_on_c, 0, 63, 95
1, 28320, Note_on_c, 1, 59, 95
1, 28510, Note_on_c, 0, 63, 0
1, 28510, Note_on_c, 1, 59, 0
1, 28560, Note_on_c, 0, 75, 95
1, 28655, Note_on_c, 0, 75, 0
1, 28680, Note_on_c, 0, 75, 95
1, 28775, Note_on_c, 0, 75, 0
1, 28800, Note_on_c, 0, 82, 65
1, 28990, Note_on_c, 0, 82, 0
1, 29040, Note_on_c, 0, 62, 65
1, 29040, Note_on_c, 1, 58, 65
1, 29230, Note_on_c, 0, 62, 0
1, 29230, Note_on_c, 1, 58, 0
1, 29280, Note_on_c, 0, 63, 65
1, 29280, Note_on_c, 1, 59, 65
1, 29470, Note_on_c, 0, 63, 0
1, 29470, Note_on_c, 1, 59, 0
1, 29520, Note_on_c, 0, 75, 65
1, 29615, Note_on_c, 0, 75, 0
1, 29640, Note_on_c, 0, 75, 65
1, 29735, Note_on_c, 0, 75, 0
1, 29760, Note_on_c, 0, 82, 65
1, 29950, Note_on_c, 0, 82, 0
1, 30000, Note_on_c, 0, 62, 65
1, 30000, Note_on_c, 1, 58, 65
1, 30190, Note_on_c, 0, 62, 0
1, 30190, Note_on_c, 1, 58, 0
1, 30240, Note_on_c, 0, 63, 65
1, 30240, Note_on_c, 1, 59, 65
1, 30430, Note_on_c, 0, 63, 0
1, 30430, Note_on_c, 1, 59, 0
1, 30480, Note_on_c, 0, 75, 65
1, 30575, Note_on_c, 0, 75, 0
1, 30600, Note_on_c, 0, 75, 65
1, 30695, Note_on_c, 0, 75, 0
1, 30720, Note_on_c, 0, 62, 65
1, 30720, Note_on_c, 0, 82, 65
1, 30720, Note_on_c, 1, 58, 65
1, 30910, Note_on_c, 0, 82, 0
1, 30910, Note_on_c, 0, 62, 0
1, 30910, Note_on_c, 1, 58, 0
1, 30960, Note_on_c, 0, 63, 65
1, 30960, Note_on_c, 0, 75, 65
1, 30960, Note_on_c, 1, 59, 65
1, 31055, Note_on_c, 0, 75, 0
1, 31080, Note_on_c, 0, 75, 65
1, 31150, Note_on_c, 0, 63, 0
1, 31150, Note_on_c, 1, 59, 0
1, 31175, Note_on_c, 0, 75, 0
1, 31200, Note_on_c, 0, 62, 65
1, 31200, Note_on_c, 0, 82, 65
1, 31200, Note_on_c, 1, 58, 65
1, 31390, Note_on_c, 0, 82, 0
1, 31390, Note_on_c, 0, 62, 0
1, 31390, Note_on_c, 1, 58, 0
1, 31440, Note_on_c, 0, 75, 65
1, 31440, Note_on_c, 0, 63, 65
1, 31440, Note_on_c, 1, 59, 65
1, 31535, Note_on_c, 0, 75, 0
1, 31560, Note_on_c, 0, 75, 65
1, 31630, Note_on_c, 0, 63, 0
1, 31630, Note_on_c, 1, 59, 0
1, 31655, Note_on_c, 0, 75, 0
1, 31680, Note_on_c, 0, 62, 65
1, 31680, Note_on_c, 0, 82, 65
1, 31680, Note_on_c, 1, 58, 65
1, 31870, Note_on_c, 0, 82, 0
1, 31870, Note_on_c, 0, 62, 0
1, 31870, Note_on_c, 1, 58, 0
1, 31920, Note_on_c, 0, 82, 65
1, 32110, Note_on_c, 0, 82, 0
1, 32160, Note_on_c, 0, 82, 65
1, 32350, Note_on_c, 0, 82, 0
1, 32400, Note_on_c, 0, 82, 65
1, 32590, Note_on_c, 0, 82, 0
1, 32640, Note_on_c, 0, 82, 65
1, 32735, Note_on_c, 0, 82, 0
1, 32760, Note_on_c, 0, 81, 65
1, 32855, Note_on_c, 0, 81, 0
1, 32880, Note_on_c, 0, 80, 65
1, 32975, Note_on_c, 0, 80, 0
1, 33000, Note_on_c, 0, 77, 65
1, 33095, Note_on_c, 0, 77, 0
1, 33120, Note_on_c, 0, 82, 65
1, 33215, Note_on_c, 0, 82, 0
1, 33240, Note_on_c, 0, 81, 65
1, 33335, Note_on_c, 0, 81, 0
1, 33360, Note_on_c, 0, 80, 65
1, 33455, Note_on_c, 0, 80, 0
1, 33480, Note_on_c, 0, 77, 65
1, 33575, Note_on_c, 0, 77, 0
1, 33600, Note_on_c, 0, 75, 65
1, 33600, Note_on_c, 0, 67, 65
1, 33695, Note_on_c, 0, 67, 0
1, 33720, Note_on_c, 0, 70, 65
1, 33815, Note_on_c, 0, 70, 0
1, 33840, Note_on_c, 0, 67, 65
1, 33887, Note_on_c, 0, 75, 0
1, 33935, Note_on_c, 0, 67, 0
1, 33960, Note_on_c, 0, 70, 65
1, 33960, Note_on_c, 0, 77, 65
1, 34007, Note_on_c, 0, 77, 0
1, 34020, Note_on_c, 0, 75, 65
1, 34055, Note_on_c, 0, 70, 0
1, 34067, Note_on_c, 0, 75, 0
1, 34080, Note_on_c, 0, 65, 65
1, 34080, Note_on_c, 0, 74, 65
1, 34175, Note_on_c, 0, 65, 0
1, 34200, Note_on_c, 0, 70, 65
1, 34270, Note_on_c, 0, 74, 0
1, 34295, Note_on_c, 0, 70, 0
1, 34320, Note_on_c, 0, 67, 65
1, 34320, Note_on_c, 0, 75, 65
1, 34415, Note_on_c, 0, 67, 0
1, 34440, Note_on_c, 0, 70, 65
1, 34510, Note_on_c, 0, 75, 0
1, 34535, Note_on_c, 0, 70, 0
1, 34560, Note_on_c, 0, 67, 65
1, 34560, Note_on_c, 0, 76, 65
1, 34655, Note_on_c, 0, 67, 0
1, 34680, Note_on_c, 0, 70, 65
1, 34775, Note_on_c, 0, 70, 0
1, 34800, Note_on_c, 0, 67, 65
1, 34895, Note_on_c, 0, 67, 0
1, 34920, Note_on_c, 0, 70, 65
1, 34942, Note_on_c, 0, 76, 0
1, 35015, Note_on_c, 0, 70, 0
1, 35040, Note_on_c, 0, 68, 65
1, 35040, Note_on_c, 0, 77, 65
1, 35135, Note_on_c, 0, 68, 0
1, 35160, Note_on_c, 0, 70, 65
1, 35230, Note_on_c, 0, 77, 0
1, 35255, Note_on_c, 0, 70, 0
1, 35280, Note_on_c, 0, 68, 65
1, 35375, Note_on_c, 0, 68, 0
1, 35400, Note_on_c, 0, 70, 65
1, 35495, Note_on_c, 0, 70, 0
1, 35520, Note_on_c, 0, 65, 65
1, 35520, Note_on_c, 1, 56, 65
1, 35615, Note_on_c, 0, 65, 0
1, 35640, Note_on_c, 0, 70, 65
1, 35735, Note_on_c, 0, 70, 0
1, 35760, Note_on_c, 0, 65, 65
1, 35807, Note_on_c, 1, 56, 0
1, 35855, Note_on_c, 0, 65, 0
1, 35880, Note_on_c, 0, 70, 65
1, 35880, Note_on_c, 1, 55, 65
1, 35927, Note_on_c, 1, 55, 0
1, 35940, Note_on_c, 1, 56, 65
1, 35975, Note_on_c, 0, 70, 0
1, 35987, Note_on_c, 1, 56, 0
1, 36000, Note_on_c, 0, 65, 65
1, 36000, Note_on_c, 1, 58, 65
1, 36095, Note_on_c, 0, 65, 0
1, 36095, Note_on_c, 1, 58, 0
1, 36120, Note_on_c, 0, 70, 65
1, 36120, Note_on_c, 1, 56, 65
1, 36215, Note_on_c, 0, 70, 0
1, 36215, Note_on_c, 1, 56, 0
1, 36240, Note_on_c, 0, 67, 65
1, 36240, Note_on_c, 1, 55, 65
1, 36335, Note_on_c, 0, 67, 0
1, 36335, Note_on_c, 1, 55, 0
1, 36360, Note_on_c, 0, 70, 65
1, 36360, Note_on_c, 1, 53, 65
1, 36455, Note_on_c, 0, 70, 0
1, 36455, Note_on_c, 1, 53, 0
1, 36480, Note_on_c, 0, 68, 65
1, 36480, Note_on_c, 1, 51, 65
1, 36575, Note_on_c, 0, 68, 0
1, 36600, Note_on_c, 0, 70, 65
1, 36695, Note_on_c, 0, 70, 0
1, 36720, Note_on_c, 0, 65, 65
1, 36815, Note_on_c, 0, 65, 0
1, 36840, Note_on_c, 0, 70, 65
1, 36862, Note_on_c, 1, 51, 0
1, 36935, Note_on_c, 0, 70, 0
1, 36960, Note_on_c, 0, 68, 65
1, 36960, Note_on_c, 1, 50, 65
1, 37055, Note_on_c, 0, 68, 0
1, 37080, Note_on_c, 0, 70, 65
1, 37150, Note_on_c, 1, 50, 0
1, 37175, Note_on_c, 0, 70, 0
1, 37200, Note_on_c, 0, 65, 65
1, 37295, Note_on_c, 0, 65, 0
1, 37320, Note_on_c, 0, 70, 65
1, 37415, Note_on_c, 0, 70, 0
1, 37440, Note_on_c, 0, 77, 65
1, 37440, Note_on_c, 0, 62, 65
1, 37535, Note_on_c, 0, 62, 0
1, 37560, Note_on_c, 0, 70, 65
1, 37655, Note_on_c, 0, 70, 0
1, 37680, Note_on_c, 0, 62, 65
1, 37727, Note_on_c, 0, 77, 0
1, 37775, Note_on_c, 0, 62, 0
1, 37800, Note_on_c, 0, 70, 65
1, 37800, Note_on_c, 0, 79, 65
1, 37847, Note_on_c, 0, 79, 0
1, 37860, Note_on_c, 0, 77, 65
1, 37895, Note_on_c, 0, 70, 0
1, 37907, Note_on_c, 0, 77, 0
1, 37920, Note_on_c, 0, 60, 65
1, 37920, Note_on_c, 0, 75, 65
1, 38015, Note_on_c, 0, 60, 0
1, 38040, Note_on_c, 0, 70, 65
1, 38110, Note_on_c, 0, 75, 0
1, 38135, Note_on_c, 0, 70, 0
1, 38160, Note_on_c, 0, 62, 65
1, 38160, Note_on_c, 0, 77, 65
1, 38255, Note_on_c, 0, 62, 0
1, 38280, Note_on_c, 0, 70, 65
1, 38350, Note_on_c, 0, 77, 0
1, 38375, Note_on_c, 0, 70, 0
1, 38400, Note_on_c, 0, 62, 65
1, 38400, Note_on_c, 0, 78, 65
1, 38495, Note_on_c, 0, 62, 0
1, 38520, Note_on_c, 0, 70, 65
1, 38615, Note_on_c, 0, 70, 0
1, 38640, Note_on_c, 0, 62, 65
1, 38735, Note_on_c, 0, 62, 0
1, 38760, Note_on_c, 0, 70, 65
1, 38782, Note_on_c, 0, 78, 0
1, 38855, Note_on_c, 0, 70, 0
1, 38880, Note_on_c, 0, 63, 65
1, 38880, Note_on_c, 0, 79, 65
1, 38975, Note_on_c, 0, 63, 0
1, 39000, Note_on_c, 0, 70, 65
1, 39070, Note_on_c, 0, 79, 0
1, 39095, Note_on_c, 0, 70, 0
1, 39120, Note_on_c, 0, 63, 65
1, 39215, Note_on_c, 0, 63, 0
1, 39240, Note_on_c, 0, 70, 65
1, 39335, Note_on_c, 0, 70, 0
1, 39360, Note_on_c, 0, 67, 65
1, 39360, Note_on_c, 1, 58, 65
1, 39455, Note_on_c, 0, 67, 0
1, 39480, Note_on_c, 0, 70, 65
1, 39575, Note_on_c, 0, 70, 0
1, 39600, Note_on_c, 0, 63, 65
1, 39647, Note_on_c, 1, 58, 0
1, 39695, Note_on_c, 0, 63, 0
1, 39720, Note_on_c, 0, 70, 65
1, 39720, Note_on_c, 1, 57, 65
1, 39767, Note_on_c, 1, 57, 0
1, 39780, Note_on_c, 1, 58, 65
1, 39815, Note_on_c, 0, 70, 0
1, 39827, Note_on_c, 1, 58, 0
1, 39840, Note_on_c, 0, 60, 65
1, 39840, Note_on_c, 0, 67, 65
1, 39935, Note_on_c, 0, 67, 0
1, 39935, Note_on_c, 0, 60, 0
1, 39960, Note_on_c, 0, 70, 65
1, 39960, Note_on_c, 1, 58, 65
1, 40055, Note_on_c, 0, 70, 0
1, 40055, Note_on_c, 1, 58, 0
1, 40080, Note_on_c, 0, 63, 65
1, 40080, Note_on_c, 1, 56, 65
1, 40175, Note_on_c, 0, 63, 0
1, 40175, Note_on_c, 1, 56, 0
1, 40200, Note_on_c, 0, 70, 65
1, 40200, Note_on_c, 1, 55, 65
1, 40295, Note_on_c, 0, 70, 0
1, 40295, Note_on_c, 1, 55, 0
1, 40320, Note_on_c, 0, 68, 65
1, 40320, Note_on_c, 1, 53, 65
1, 40415, Note_on_c, 0, 68, 0
1, 40440, Note_on_c, 0, 70, 65
1, 40535, Note_on_c, 0, 70, 0
1, 40560, Note_on_c, 0, 65, 65
1, 40655, Note_on_c, 0, 65, 0
1, 40680, Note_on_c, 0, 70, 65
1, 40702, Note_on_c, 1, 53, 0
1, 40775, Note_on_c, 0, 70, 0
1, 40800, Note_on_c, 0, 67, 75
1, 40800, Note_on_c, 1, 51, 75
1, 40895, Note_on_c, 0, 67, 0
1, 40920, Note_on_c, 0, 70, 75
1, 40990, Note_on_c, 1, 51, 0
1, 41015, Note_on_c, 0, 70, 0
1, 41040, Note_on_c, 0, 63, 85
1, 41135, Note_on_c, 0, 63, 0
1, 41160, Note_on_c, 0, 70, 84
1, 41255, Note_on_c, 0, 70, 0
1, 41280, Note_on_c, 0, 63, 95
1, 41280, Note_on_c, 0, 70, 95
1, 41280, Note_on_c, 0, 82, 95
1, 41375, Note_on_c, 0, 63, 0
1, 41400, Note_on_c, 0, 67, 95
1, 41495, Note_on_c, 0, 67, 0
1, 41520, Note_on_c, 0, 63, 95
1, 41615, Note_on_c, 0, 63, 0
1, 41640, Note_on_c, 0, 67, 95
1, 41662, Note_on_c, 0, 82, 0
1, 41662, Note_on_c, 0, 70, 0
1, 41735, Note_on_c, 0, 67, 0
1, 41760, Note_on_c, 0, 71, 95
1, 41760, Note_on_c, 0, 83, 95
1, 41760, Note_on_c, 0, 61, 95
1, 41855, Note_on_c, 0, 61, 0
1, 41880, Note_on_c, 0, 65, 95
1, 41975, Note_on_c, 0, 65, 0
1, 42000, Note_on_c, 0, 61, 95
1, 42095, Note_on_c, 0, 61, 0
1, 42120, Note_on_c, 0, 65, 95
1, 42142, Note_on_c, 0, 83, 0
1, 42142, Note_on_c, 0, 71, 0
1, 42215, Note_on_c, 0, 65, 0
1, 42240, Note_on_c, 0, 60, 95
1, 42240, Note_on_c, 0, 72, 95
1, 42240, Note_on_c, 0, 84, 95
1, 42335, Note_on_c, 0, 60, 0
1, 42360, Note_on_c, 0, 64, 95
1, 42430, Note_on_c, 0, 84, 0
1, 42430, Note_on_c, 0, 72, 0
1, 42455, Note_on_c, 0, 64, 0
1, 42480, Note_on_c, 0, 64, 95
1, 42480, Note_on_c, 0, 73, 95
1, 42480, Note_on_c, 0, 85, 95
1, 42480, Note_on_c, 1, 58, 95
1, 42670, Note_on_c, 0, 85, 0
1, 42670, Note_on_c, 0, 73, 0
1, 42670, Note_on_c, 0, 64, 0
1, 42670, Note_on_c, 1, 58, 0
1, 43200, Note_on_c, 0, 65, 65
1, 43200, Note_on_c, 1, 56, 65
1, 43320, Note_on_c, 0, 84, 65
1, 43390, Note_on_c, 0, 65, 0
1, 43390, Note_on_c, 1, 56, 0
1, 43415, Note_on_c, 0, 84, 0
1, 43440, Note_on_c, 0, 82, 65
1, 43535, Note_on_c, 0, 82, 0
1, 43560, Note_on_c, 0, 80, 65
1, 43655, Note_on_c, 0, 80, 0
1, 43680, Note_on_c, 0, 79, 65
1, 43775, Note_on_c, 0, 79, 0
1, 43800, Note_on_c, 0, 77, 65
1, 43895, Note_on_c, 0, 77, 0
1, 43920, Note_on_c, 0, 79, 65
1, 44015, Note_on_c, 0, 79, 0
1, 44040, Note_on_c, 0, 80, 65
1, 44135, Note_on_c, 0, 80, 0
1, 44160, Note_on_c, 0, 75, 65
1, 44400, Note_on_c, 0, 67, 65
1, 44400, Note_on_c, 1, 58, 65
1, 44590, Note_on_c, 0, 67, 0
1, 44640, Note_on_c, 0, 68, 65
1, 44735, Note_on_c, 0, 75, 0
1, 44782, Note_on_c, 1, 58, 0
1, 44880, Note_on_c, 0, 79, 65
1, 44880, Note_on_c, 0, 74, 65
1, 44880, Note_on_c, 1, 59, 65
1, 44975, Note_on_c, 0, 79, 0
1, 45000, Note_on_c, 0, 77, 65
1, 45022, Note_on_c, 0, 68, 0
1, 45070, Note_on_c, 0, 74, 0
1, 45070, Note_on_c, 1, 59, 0
1, 45095, Note_on_c, 0, 77, 0
1, 45120, Note_on_c, 0, 75, 65
1, 45120, Note_on_c, 0, 67, 65
1, 45120, Note_on_c, 0, 60, 65
1, 45310, Note_on_c, 0, 60, 0
1, 45310, Note_on_c, 0, 67, 0
1, 45310, Note_on_c, 0, 75, 0
1, 45480, Note_on_c, 0, 75, 65
1, 45575, Note_on_c, 0, 75, 0
1, 45600, Note_on_c, 0, 74, 76
1, 45695, Note_on_c, 0, 74, 0
1, 45720, Note_on_c, 0, 73, 76
1, 45815, Note_on_c, 0, 73, 0
1, 45840, Note_on_c, 0, 72, 85
1, 45935, Note_on_c, 0, 72, 0
1, 45960, Note_on_c, 0, 71, 85
1, 46055, Note_on_c, 0, 71, 0
1, 46080, Note_on_c, 0, 70, 95
1, 46080, Note_on_c, 1, 51, 95
1, 46175, Note_on_c, 1, 51, 0
1, 46200, Note_on_c, 1, 55, 95
1, 46295, Note_on_c, 1, 55, 0
1, 46320, Note_on_c, 1, 51, 95
1, 46415, Note_on_c, 1, 51, 0
1, 46440, Note_on_c, 1, 55, 95
1, 46462, Note_on_c, 0, 70, 0
1, 46535, Note_on_c, 1, 55, 0
1, 46560, Note_on_c, 0, 71, 95
1, 46560, Note_on_c, 1, 59, 95
1, 46560, Note_on_c, 1, 49, 95
1, 46655, Note_on_c, 1, 49, 0
1, 46680, Note_on_c, 1, 53, 95
1, 46775, Note_on_c, 1, 53, 0
1, 46800, Note_on_c, 1, 49, 95
1, 46895, Note_on_c, 1, 49, 0
1, 46920, Note_on_c, 1, 53, 95
1, 46942, Note_on_c, 0, 71, 0
1, 46942, Note_on_c, 1, 59, 0
1, 47015, Note_on_c, 1, 53, 0
1, 47040, Note_on_c, 0, 60, 95
1, 47040, Note_on_c, 0, 72, 95
1, 47040, Note_on_c, 1, 48, 95
1, 47135, Note_on_c, 1, 48, 0
1, 47160, Note_on_c, 1, 52, 95
1, 47230, Note_on_c, 0, 72, 0
1, 47230, Note_on_c, 0, 60, 0
1, 47255, Note_on_c, 1, 52, 0
1, 47280, Note_on_c, 0, 61, 95
1, 47280, Note_on_c, 0, 73, 95
1, 47280, Note_on_c, 1, 46, 95
1, 47280, Note_on_c, 1, 52, 95
1, 47470, Note_on_c, 0, 73, 0
1, 47470, Note_on_c, 0, 61, 0
1, 47470, Note_on_c, 1, 52, 0
1, 47470, Note_on_c, 1, 46, 0
1, 48000, Note_on_c, 0, 72, 95
1, 48000, Note_on_c, 1, 48, 95
1, 48000, Note_on_c, 1, 44, 95
1, 48000, Note_on_c, 1, 53, 95
1, 48062, Note_on_c, 0, 72, 0
1, 48080, Note_on_c, 0, 77, 95
1, 48142, Note_on_c, 0, 77, 0
1, 48160, Note_on_c, 0, 67, 95
1, 48222, Note_on_c, 0, 67, 0
1, 48240, Note_on_c, 0, 68, 95
1, 48302, Note_on_c, 0, 68, 0
1, 48320, Note_on_c, 0, 72, 95
1, 48382, Note_on_c, 0, 72, 0
1, 48400, Note_on_c, 0, 64, 95
1, 48462, Note_on_c, 0, 64, 0
1, 48480, Note_on_c, 0, 65, 95
1, 48542, Note_on_c, 0, 65, 0
1, 48560, Note_on_c, 0, 68, 95
1, 48622, Note_on_c, 0, 68, 0
1, 48640, Note_on_c, 1, 59, 95
1, 48702, Note_on_c, 1, 59, 0
1, 48720, Note_on_c, 0, 60, 95
1, 48767, Note_on_c, 1, 48, 0
1, 48767, Note_on_c, 1, 44, 0
1, 48767, Note_on_c, 1, 53, 0
1, 48782, Note_on_c, 0, 60, 0
1, 48800, Note_on_c, 0, 65, 95
1, 48862, Note_on_c, 0, 65, 0
1, 48880, Note_on_c, 1, 55, 95
1, 48942, Note_on_c, 1, 55, 0
1, 48960, Note_on_c, 1, 41, 95
1, 48960, Note_on_c, 1, 29, 95
1, 48960, Note_on_c, 1, 56, 95
1, 49022, Note_on_c, 1, 56, 0
1, 49040, Note_on_c, 0, 60, 95
1, 49102, Note_on_c, 0, 60, 0
1, 49120, Note_on_c, 1, 52, 95
1, 49182, Note_on_c, 1, 52, 0
1, 49200, Note_on_c, 1, 53, 95
1, 49262, Note_on_c, 1, 53, 0
1, 49280, Note_on_c, 1, 56, 95
1, 49342, Note_on_c, 1, 56, 0
1, 49360, Note_on_c, 1, 47, 95
1, 49422, Note_on_c, 1, 47, 0
1, 49440, Note_on_c, 1, 48, 95
1, 49502, Note_on_c, 1, 48, 0
1, 49520, Note_on_c, 1, 53, 95
1, 49582, Note_on_c, 1, 53, 0
1, 49600, Note_on_c, 1, 43, 95
1, 49662, Note_on_c, 1, 43, 0
1, 49680, Note_on_c, 1, 44, 95
1, 49727, Note_on_c, 1, 29, 0
1, 49727, Note_on_c, 1, 41, 0
1, 49742, Note_on_c, 1, 44, 0
1, 49760, Note_on_c, 1, 48, 95
1, 49822, Note_on_c, 1, 48, 0
1, 49840, Note_on_c, 1, 40, 95
1, 49902, Note_on_c, 1, 40, 0
1, 49920, Note_on_c, 1, 41, 95
1, 50207, Note_on_c, 1, 41, 0
1, 50280, Note_on_c, 1, 36, 95
1, 50375, Note_on_c, 1, 36, 0
1, 50400, Note_on_c, 1, 44, 95
1, 50495, Note_on_c, 1, 44, 0
1, 50520, Note_on_c, 1, 41, 95
1, 50615, Note_on_c, 1, 41, 0
1, 50640, Note_on_c, 1, 48, 95
1, 50735, Note_on_c, 1, 48, 0
1, 50760, Note_on_c, 1, 44, 95
1, 50855, Note_on_c, 1, 44, 0
1, 50880, Note_on_c, 1, 53, 95
1, 50975, Note_on_c, 1, 53, 0
1, 51000, Note_on_c, 1, 48, 95
1, 51095, Note_on_c, 1, 48, 0
1, 51120, Note_on_c, 1, 56, 95
1, 51215, Note_on_c, 1, 56, 0
1, 51240, Note_on_c, 1, 53, 95
1, 51335, Note_on_c, 1, 53, 0
1, 51360, Note_on_c, 0, 60, 95
1, 51455, Note_on_c, 0, 60, 0
1, 51480, Note_on_c, 1, 56, 95
1, 51575, Note_on_c, 1, 56, 0
1, 51600, Note_on_c, 0, 65, 95
1, 51695, Note_on_c, 0, 65, 0
1, 51720, Note_on_c, 0, 60, 95
1, 51815, Note_on_c, 0, 60, 0
1, 51840, Note_on_c, 0, 68, 95
1, 51935, Note_on_c, 0, 68, 0
1, 51960, Note_on_c, 0, 65, 95
1, 52055, Note_on_c, 0, 65, 0
1, 52080, Note_on_c, 0, 72, 95
1, 52175, Note_on_c, 0, 72, 0
1, 52200, Note_on_c, 0, 68, 95
1, 52295, Note_on_c, 0, 68, 0
1, 52320, Note_on_c, 0, 77, 95
1, 52415, Note_on_c, 0, 77, 0
1, 52440, Note_on_c, 0, 72, 95
1, 52535, Note_on_c, 0, 72, 0
1, 52560, Note_on_c, 0, 80, 95
1, 52655, Note_on_c, 0, 80, 0
1, 52680, Note_on_c, 0, 77, 95
1, 52775, Note_on_c, 0, 77, 0
1, 52800, Note_on_c, 0, 84, 95
1, 52990, Note_on_c, 0, 84, 0
1, 53040, Note_on_c, 0, 65, 95
1, 53040, Note_on_c, 0, 60, 95
1, 53040, Note_on_c, 1, 56, 95
1, 53230, Note_on_c, 0, 60, 0
1, 53230, Note_on_c, 0, 65, 0
1, 53230, Note_on_c, 1, 56, 0
1, 53280, Note_on_c, 0, 87, 95
1, 53470, Note_on_c, 0, 87, 0
1, 53520, Note_on_c, 0, 66, 95
1, 53520, Note_on_c, 0, 60, 95
1, 53520, Note_on_c, 1, 57, 95
1, 53710, Note_on_c, 0, 60, 0
1, 53710, Note_on_c, 0, 66, 0
1, 53710, Note_on_c, 1, 57, 0
1, 53760, Note_on_c, 0, 63, 94
1, 53760, Note_on_c, 0, 67, 93
1, 53760, Note_on_c, 1, 58, 94
1, 53880, Note_on_c, 0, 70, 65
1, 53950, Note_on_c, 0, 67, 0
1, 53950, Note_on_c, 0, 63, 0
1, 53950, Note_on_c, 1, 58, 0
1, 53975, Note_on_c, 0, 70, 0
1, 54000, Note_on_c, 0, 82, 65
1, 54095, Note_on_c, 0, 82, 0
1, 54120, Note_on_c, 0, 81, 65
1, 54215, Note_on_c, 0, 81, 0
1, 54240, Note_on_c, 0, 80, 65
1, 54335, Note_on_c, 0, 80, 0
1, 54360, Note_on_c, 0, 79, 65
1, 54455, Note_on_c, 0, 79, 0
1, 54480, Note_on_c, 0, 78, 65
1, 54575, Note_on_c, 0, 78, 0
1, 54600, Note_on_c, 0, 77, 65
1, 54695, Note_on_c, 0, 77, 0
1, 54720, Note_on_c, 0, 77, 65
1, 54815, Note_on_c, 0, 77, 0
1, 54840, Note_on_c, 0, 75, 65
1, 54935, Note_on_c, 0, 75, 0
1, 54960, Note_on_c, 0, 75, 65
1, 54960, Note_on_c, 0, 67, 65
1, 54960, Note_on_c, 1, 58, 65
1, 55150, Note_on_c, 0, 67, 0
1, 55200, Note_on_c, 0, 68, 65
1, 55342, Note_on_c, 0, 75, 0
1, 55440, Note_on_c, 0, 74, 65
1, 55440, Note_on_c, 0, 79, 65
1, 55535, Note_on_c, 0, 79, 0
1, 55535, Note_on_c, 0, 74, 0
1, 55535, Note_on_c, 1, 58, 0
1, 55560, Note_on_c, 0, 77, 65
1, 55582, Note_on_c, 0, 68, 0
1, 55655, Note_on_c, 0, 77, 0
1, 55680, Note_on_c, 0, 75, 65
1, 55680, Note_on_c, 0, 63, 65
1, 55775, Note_on_c, 0, 63, 0
1, 55800, Note_on_c, 0, 70, 65
1, 55870, Note_on_c, 0, 75, 0
1, 55895, Note_on_c, 0, 70, 0
1, 55920, Note_on_c, 0, 67, 65
1, 56015, Note_on_c, 0, 67, 0
1, 56040, Note_on_c, 0, 70, 65
1, 56040, Note_on_c, 0, 75, 65
1, 56135, Note_on_c, 0, 75, 0
1, 56135, Note_on_c, 0, 70, 0
1, 56160, Note_on_c, 0, 62, 65
1, 56160, Note_on_c, 0, 76, 65
1, 56255, Note_on_c, 0, 76, 0
1, 56255, Note_on_c, 0, 62, 0
1, 56280, Note_on_c, 0, 70, 65
1, 56280, Note_on_c, 0, 77, 65
1, 56375, Note_on_c, 0, 77, 0
1, 56375, Note_on_c, 0, 70, 0
1, 56400, Note_on_c, 0, 68, 65
1, 56495, Note_on_c, 0, 68, 0
1, 56520, Note_on_c, 0, 70, 65
1, 56520, Note_on_c, 0, 77, 65
1, 56615, Note_on_c, 0, 77, 0
1, 56615, Note_on_c, 0, 70, 0
1, 56640, Note_on_c, 0, 63, 65
1, 56640, Note_on_c, 0, 78, 65
1, 56735, Note_on_c, 0, 78, 0
1, 56735, Note_on_c, 0, 63, 0
1, 56760, Note_on_c, 0, 70, 65
1, 56760, Note_on_c, 0, 79, 65
1, 56855, Note_on_c, 0, 79, 0
1, 56855, Note_on_c, 0, 70, 0
1, 56880, Note_on_c, 0, 67, 65
1, 56975, Note_on_c, 0, 67, 0
1, 57000, Note_on_c, 0, 70, 65
1, 57000, Note_on_c, 0, 79, 65
1, 57095, Note_on_c, 0, 79, 0
1, 57095, Note_on_c, 0, 70, 0
1, 57120, Note_on_c, 0, 82, 65
1, 57120, Note_on_c, 1, 53, 65
1, 57215, Note_on_c, 0, 82, 0
1, 57215, Note_on_c, 1, 53, 0
1, 57240, Note_on_c, 0, 62, 65
1, 57240, Note_on_c, 0, 80, 65
1, 57335, Note_on_c, 0, 80, 0
1, 57335, Note_on_c, 0, 62, 0
1, 57360, Note_on_c, 1, 56, 65
1, 57455, Note_on_c, 1, 56, 0
1, 57480, Note_on_c, 0, 62, 65
1, 57480, Note_on_c, 0, 80, 65
1, 57575, Note_on_c, 0, 80, 0
1, 57575, Note_on_c, 0, 62, 0
1, 57600, Note_on_c, 0, 81, 65
1, 57600, Note_on_c, 1, 55, 65
1, 57695, Note_on_c, 0, 81, 0
1, 57695, Note_on_c, 1, 55, 0
1, 57720, Note_on_c, 0, 63, 65
1, 57720, Note_on_c, 0, 82, 65
1, 57815, Note_on_c, 0, 82, 0
1, 57815, Note_on_c, 0, 63, 0
1, 57840, Note_on_c, 1, 58, 65
1, 57935, Note_on_c, 1, 58, 0
1, 57960, Note_on_c, 0, 63, 65
1, 57960, Note_on_c, 0, 82, 65
1, 58055, Note_on_c, 0, 82, 0
1, 58055, Note_on_c, 0, 63, 0
1, 58080, Note_on_c, 0, 83, 65
1, 58080, Note_on_c, 1, 56, 65
1, 58175, Note_on_c, 0, 83, 0
1, 58175, Note_on_c, 1, 56, 0
1, 58200, Note_on_c, 0, 63, 65
1, 58200, Note_on_c, 0, 84, 65
1, 58295, Note_on_c, 0, 84, 0
1, 58295, Note_on_c, 0, 63, 0
1, 58320, Note_on_c, 0, 60, 65
1, 58415, Note_on_c, 0, 60, 0
1, 58440, Note_on_c, 0, 63, 65
1, 58440, Note_on_c, 0, 87, 65
1, 58535, Note_on_c, 0, 87, 0
1, 58535, Note_on_c, 0, 63, 0
1, 58560, Note_on_c, 0, 87, 65
1, 58560, Note_on_c, 1, 58, 65
1, 58655, Note_on_c, 0, 87, 0
1, 58655, Note_on_c, 1, 58, 0
1, 58680, Note_on_c, 0, 67, 65
1, 58680, Note_on_c, 0, 75, 65
1, 58775, Note_on_c, 0, 75, 0
1, 58775, Note_on_c, 0, 67, 0
1, 58800, Note_on_c, 0, 75, 65
1, 58800, Note_on_c, 0, 63, 65
1, 58895, Note_on_c, 0, 63, 0
1, 58920, Note_on_c, 0, 67, 65
1, 59015, Note_on_c, 0, 67, 0
1, 59040, Note_on_c, 1, 58, 76
1, 59135, Note_on_c, 1, 58, 0
1, 59160, Note_on_c, 0, 68, 76
1, 59182, Note_on_c, 0, 75, 0
1, 59255, Note_on_c, 0, 68, 0
1, 59280, Note_on_c, 0, 62, 87
1, 59280, Note_on_c, 0, 79, 87
1, 59375, Note_on_c, 0, 79, 0
1, 59375, Note_on_c, 0, 62, 0
1, 59400, Note_on_c, 0, 68, 86
1, 59400, Note_on_c, 0, 77, 85
1, 59495, Note_on_c, 0, 77, 0
1, 59495, Note_on_c, 0, 68, 0
1, 59520, Note_on_c, 0, 75, 95
1, 59520, Note_on_c, 1, 51, 95
1, 59615, Note_on_c, 0, 75, 0
1, 59615, Note_on_c, 1, 51, 0
1, 59640, Note_on_c, 0, 75, 95
1, 59640, Note_on_c, 1, 58, 95
1, 59735, Note_on_c, 0, 75, 0
1, 59735, Note_on_c, 1, 58, 0
1, 59760, Note_on_c, 0, 75, 95
1, 59760, Note_on_c, 1, 55, 95
1, 59782, Note_on_c, 0, 75, 0
1, 59790, Note_on_c, 0, 77, 95
1, 59812, Note_on_c, 0, 77, 0
1, 59820, Note_on_c, 0, 75, 95
1, 59842, Note_on_c, 0, 75, 0
1, 59850, Note_on_c, 0, 77, 95
1, 59855, Note_on_c, 1, 55, 0
1, 59872, Note_on_c, 0, 77, 0
1, 59880, Note_on_c, 0, 74, 95
1, 59880, Note_on_c, 1, 58, 95
1, 59927, Note_on_c, 0, 74, 0
1, 59940, Note_on_c, 0, 75, 95
1, 59975, Note_on_c, 1, 58, 0
1, 59987, Note_on_c, 0, 75, 0
1, 60000, Note_on_c, 0, 77, 95
1, 60000, Note_on_c, 1, 50, 95
1, 60095, Note_on_c, 0, 77, 0
1, 60095, Note_on_c, 1, 50, 0
1, 60120, Note_on_c, 0, 77, 95
1, 60120, Note_on_c, 1, 58, 95
1, 60215, Note_on_c, 0, 77, 0
1, 60215, Note_on_c, 1, 58, 0
1, 60240, Note_on_c, 0, 77, 95
1, 60240, Note_on_c, 1, 56, 95
1, 60262, Note_on_c, 0, 77, 0
1, 60270, Note_on_c, 0, 79, 95
1, 60292, Note_on_c, 0, 79, 0
1, 60300, Note_on_c, 0, 77, 95
1, 60322, Note_on_c, 0, 77, 0
1, 60330, Note_on_c, 0, 79, 95
1, 60335, Note_on_c, 1, 56, 0
1, 60352, Note_on_c, 0, 79, 0
1, 60360, Note_on_c, 0, 75, 95
1, 60360, Note_on_c, 1, 58, 95
1, 60407, Note_on_c, 0, 75, 0
1, 60420, Note_on_c, 0, 77, 95
1, 60455, Note_on_c, 1, 58, 0
1, 60467, Note_on_c, 0, 77, 0
1, 60480, Note_on_c, 0, 79, 95
1, 60480, Note_on_c, 1, 51, 95
1, 60575, Note_on_c, 0, 79, 0
1, 60575, Note_on_c, 1, 51, 0
1, 60600, Note_on_c, 0, 79, 95
1, 60600, Note_on_c, 1, 58, 95
1, 60695, Note_on_c, 0, 79, 0
1, 60695, Note_on_c, 1, 58, 0
1, 60720, Note_on_c, 0, 79, 95
1, 60720, Note_on_c, 1, 55, 95
1, 60742, Note_on_c, 0, 79, 0
1, 60750, Note_on_c, 0, 80, 95
1, 60772, Note_on_c, 0, 80, 0
1, 60780, Note_on_c, 0, 79, 95
1, 60802, Note_on_c, 0, 79, 0
1, 60810, Note_on_c, 0, 80, 95
1, 60815, Note_on_c, 1, 55, 0
1, 60832, Note_on_c, 0, 80, 0
1, 60840, Note_on_c, 0, 77, 95
1, 60840, Note_on_c, 1, 58, 95
1, 60887, Note_on_c, 0, 77, 0
1, 60900, Note_on_c, 0, 79, 95
1, 60935, Note_on_c, 1, 58, 0
1, 60947, Note_on_c, 0, 79, 0
1, 60960, Note_on_c, 0, 80, 95
1, 60960, Note_on_c, 1, 53, 95
1, 61055, Note_on_c, 0, 80, 0
1, 61055, Note_on_c, 1, 53, 0
1, 61080, Note_on_c, 0, 62, 95
1, 61080, Note_on_c, 0, 80, 95
1, 61175, Note_on_c, 0, 80, 0
1, 61175, Note_on_c, 0, 62, 0
1, 61200, Note_on_c, 0, 80, 95
1, 61200, Note_on_c, 1, 58, 95
1, 61222, Note_on_c, 0, 80, 0
1, 61230, Note_on_c, 0, 82, 95
1, 61252, Note_on_c, 0, 82, 0
1, 61260, Note_on_c, 0, 80, 95
1, 61282, Note_on_c, 0, 80, 0
1, 61290, Note_on_c, 0, 82, 95
1, 61295, Note_on_c, 1, 58, 0
1, 61312, Note_on_c, 0, 82, 0
1, 61320, Note_on_c, 0, 79, 95
1, 61320, Note_on_c, 0, 62, 95
1, 61342, Note_on_c, 0, 79, 0
1, 61350, Note_on_c, 0, 80, 95
1, 61372, Note_on_c, 0, 80, 0
1, 61415, Note_on_c, 0, 62, 0
1, 61440, Note_on_c, 0, 63, 95
1, 61440, Note_on_c, 0, 82, 95
1, 61440, Note_on_c, 1, 58, 95
1, 61440, Note_on_c, 1, 55, 95
1, 61502, Note_on_c, 0, 82, 0
1, 61520, Note_on_c, 0, 84, 95
1, 61582, Note_on_c, 0, 84, 0
1, 61600, Note_on_c, 0, 86, 95
1, 61630, Note_on_c, 0, 63, 0
1, 61630, Note_on_c, 1, 55, 0
1, 61630, Note_on_c, 1, 58, 0
1, 61662, Note_on_c, 0, 86, 0
1, 61680, Note_on_c, 0, 87, 95
1, 61742, Note_on_c, 0, 87, 0
1, 61760, Note_on_c, 0, 86, 95
1, 61822, Note_on_c, 0, 86, 0
1, 61840, Note_on_c, 0, 84, 95
1, 61902, Note_on_c, 0, 84, 0
1, 61920, Note_on_c, 0, 82, 95
1, 61982, Note_on_c, 0, 82, 0
1, 62000, Note_on_c, 0, 80, 95
1, 62062, Note_on_c, 0, 80, 0
1, 62080, Note_on_c, 0, 79, 95
1, 62142, Note_on_c, 0, 79, 0
1, 62160, Note_on_c, 0, 77, 95
1, 62222, Note_on_c, 0, 77, 0
1, 62240, Note_on_c, 0, 75, 95
1, 62302, Note_on_c, 0, 75, 0
1, 62320, Note_on_c, 0, 74, 95
1, 62382, Note_on_c, 0, 74, 0
1, 62400, Note_on_c, 0, 72, 95
1, 62590, Note_on_c, 0, 72, 0
1, 62640, Note_on_c, 0, 84, 95
1, 62640, Note_on_c, 0, 80, 95
1, 62640, Note_on_c, 0, 75, 95
1, 62640, Note_on_c, 1, 56, 95
1, 62830, Note_on_c, 0, 75, 0
1, 62830, Note_on_c, 0, 80, 0
1, 62830, Note_on_c, 0, 84, 0
1, 62830, Note_on_c, 1, 56, 0
1, 62880, Note_on_c, 0, 82, 95
1, 62880, Note_on_c, 0, 79, 95
1, 62880, Note_on_c, 0, 75, 95
1, 62880, Note_on_c, 1, 58, 95
1, 63070, Note_on_c, 0, 75, 0
1, 63070, Note_on_c, 0, 79, 0
1, 63070, Note_on_c, 0, 82, 0
1, 63070, Note_on_c, 1, 58, 0
1, 63120, Note_on_c, 0, 74, 95
1, 63120, Note_on_c, 0, 68, 95
1, 63120, Note_on_c, 0, 65, 95
1, 63120, Note_on_c, 1, 46, 95
1, 63310, Note_on_c, 0, 65, 0
1, 63310, Note_on_c, 0, 68, 0
1, 63310, Note_on_c, 0, 74, 0
1, 63310, Note_on_c, 1, 46, 0
1, 63360, Note_on_c, 0, 75, 95
1, 63360, Note_on_c, 0, 67, 95
1, 63360, Note_on_c, 1, 51, 95
1, 63550, Note_on_c, 0, 67, 0
1, 63550, Note_on_c, 0, 75, 0
1, 63550, Note_on_c, 1, 51, 0
1, 63600, Note_on_c, 0, 82, 95
1, 63662, Note_on_c, 0, 82, 0
1, 63680, Note_on_c, 0, 80, 95
1, 63742, Note_on_c, 0, 80, 0
1, 63760, Note_on_c, 0, 79, 95
1, 63822, Note_on_c, 0, 79, 0
1, 63840, Note_on_c, 0, 77, 95
1, 63902, Note_on_c, 0, 77, 0
1, 63920, Note_on_c, 0, 75, 95
1, 63982, Note_on_c, 0, 75, 0
1, 64000, Note_on_c, 0, 74, 95
1, 64062, Note_on_c, 0, 74, 0
1, 64080, Note_on_c, 0, 67, 95
1, 64080, Note_on_c, 0, 75, 95
1, 64080, Note_on_c, 0, 63, 95
1, 64142, Note_on_c, 0, 75, 0
1, 64160, Note_on_c, 0, 73, 95
1, 64222, Note_on_c, 0, 73, 0
1, 64240, Note_on_c, 0, 71, 95
1, 64270, Note_on_c, 0, 63, 0
1, 64270, Note_on_c, 0, 67, 0
1, 64302, Note_on_c, 0, 71, 0
1, 64320, Note_on_c, 0, 72, 95
1, 64320, Note_on_c, 0, 68, 95
1, 64320, Note_on_c, 0, 63, 95
1, 64510, Note_on_c, 0, 63, 0
1, 64510, Note_on_c, 0, 68, 0
1, 64510, Note_on_c, 0, 72, 0
1, 64560, Note_on_c, 0, 84, 95
1, 64622, Note_on_c, 0, 84, 0
1, 64640, Note_on_c, 0, 82, 95
1, 64702, Note_on_c, 0, 82, 0
1, 64720, Note_on_c, 0, 80, 95
1, 64782, Note_on_c, 0, 80, 0
1, 64800, Note_on_c, 0, 79, 95
1, 64862, Note_on_c, 0, 79, 0
1, 64880, Note_on_c, 0, 77, 95
1, 64942, Note_on_c, 0, 77, 0
1, 64960, Note_on_c, 0, 75, 95
1, 65022, Note_on_c, 0, 75, 0
1, 65040, Note_on_c, 0, 68, 95
1, 65040, Note_on_c, 0, 74, 95
1, 65040, Note_on_c, 0, 63, 95
1, 65040, Note_on_c, 0, 65, 95
1, 65102, Note_on_c, 0, 74, 0
1, 65120, Note_on_c, 0, 80, 95
1, 65182, Note_on_c, 0, 80, 0
1, 65200, Note_on_c, 0, 77, 95
1, 65230, Note_on_c, 0, 65, 0
1, 65230, Note_on_c, 0, 68, 0
1, 65230, Note_on_c, 0, 63, 0
1, 65262, Note_on_c, 0, 77, 0
1, 65280, Note_on_c, 0, 63, 95
1, 65280, Note_on_c, 0, 75, 95
1, 65280, Note_on_c, 0, 67, 95
1, 65470, Note_on_c, 0, 67, 0
1, 65470, Note_on_c, 0, 75, 0
1, 65470, Note_on_c, 0, 63, 0
1, 65520, Note_on_c, 0, 70, 95
1, 65582, Note_on_c, 0, 70, 0
1, 65600, Note_on_c, 0, 68, 95
1, 65662, Note_on_c, 0, 68, 0
1, 65680, Note_on_c, 0, 67, 95
1, 65742, Note_on_c, 0, 67, 0
1, 65760, Note_on_c, 0, 65, 95
1, 65822, Note_on_c, 0, 65, 0
1, 65840, Note_on_c, 0, 63, 95
1, 65902, Note_on_c, 0, 63, 0
1, 65920, Note_on_c, 0, 62, 95
1, 65982, Note_on_c, 0, 62, 0
1, 66000, Note_on_c, 0, 63, 95
1, 66000, Note_on_c, 1, 51, 95
1, 66000, Note_on_c, 1, 55, 95
1, 66062, Note_on_c, 0, 63, 0
1, 66080, Note_on_c, 0, 61, 95
1, 66142, Note_on_c, 0, 61, 0
1, 66160, Note_on_c, 1, 59, 95
1, 66190, Note_on_c, 1, 55, 0
1, 66190, Note_on_c, 1, 51, 0
1, 66222, Note_on_c, 1, 59, 0
1, 66240, Note_on_c, 0, 60, 95
1, 66240, Note_on_c, 1, 51, 95
1, 66240, Note_on_c, 1, 56, 95
1, 66430, Note_on_c, 0, 60, 0
1, 66430, Note_on_c, 1, 56, 0
1, 66430, Note_on_c, 1, 51, 0
1, 66480, Note_on_c, 0, 72, 95
1, 66542, Note_on_c, 0, 72, 0
1, 66560, Note_on_c, 0, 70, 95
1, 66622, Note_on_c, 0, 70, 0
1, 66640, Note_on_c, 0, 68, 95
1, 66702, Note_on_c, 0, 68, 0
1, 66720, Note_on_c, 0, 67, 95
1, 66782, Note_on_c, 0, 67, 0
1, 66800, Note_on_c, 0, 65, 95
1, 66862, Note_on_c, 0, 65, 0
1, 66880, Note_on_c, 0, 63, 95
1, 66942, Note_on_c, 0, 63, 0
1, 66960, Note_on_c, 0, 62, 95
1, 66960, Note_on_c, 1, 51, 95
1, 66960, Note_on_c, 1, 53, 95
1, 66960, Note_on_c, 1, 56, 95
1, 67022, Note_on_c, 0, 62, 0
1, 67040, Note_on_c, 0, 68, 95
1, 67102, Note_on_c, 0, 68, 0
1, 67120, Note_on_c, 0, 65, 95
1, 67150, Note_on_c, 1, 56, 0
1, 67150, Note_on_c, 1, 53, 0
1, 67150, Note_on_c, 1, 51, 0
1, 67182, Note_on_c, 0, 65, 0
1, 67200, Note_on_c, 0, 63, 95
1, 67200, Note_on_c, 1, 51, 95
1, 67200, Note_on_c, 1, 55, 95
1, 67390, Note_on_c, 1, 55, 0
1, 67390, Note_on_c, 1, 51, 0
1, 67582, Note_on_c, 0, 63, 0
1, 67680, Note_on_c, 0, 67, 95
1, 67870, Note_on_c, 0, 67, 0
1, 67920, Note_on_c, 0, 70, 95
1, 68110, Note_on_c, 0, 70, 0
1, 68160, Note_on_c, 0, 75, 95
1, 68160, Note_on_c, 1, 39, 95
1, 68160, Note_on_c, 1, 51, 95
1, 68350, Note_on_c, 0, 75, 0
1, 68400, Note_on_c, 0, 79, 95
1, 68542, Note_on_c, 1, 51, 0
1, 68542, Note_on_c, 1, 39, 0
1, 68590, Note_on_c, 0, 79, 0
1, 68640, Note_on_c, 1, 55, 95
1, 68640, Note_on_c, 1, 43, 95
1, 68820, Note_on_c, 0, 79, 95
1, 68830, Note_on_c, 1, 43, 0
1, 68830, Note_on_c, 1, 55, 0
1, 68867, Note_on_c, 0, 79, 0
1, 68880, Note_on_c, 0, 79, 95
1, 68880, Note_on_c, 1, 46, 95
1, 68880, Note_on_c, 1, 58, 95
1, 68902, Note_on_c, 0, 79, 0
1, 68910, Note_on_c, 0, 80, 95
1, 68932, Note_on_c, 0, 80, 0
1, 68940, Note_on_c, 0, 79, 95
1, 68962, Note_on_c, 0, 79, 0
1, 68970, Note_on_c, 0, 80, 95
1, 68992, Note_on_c, 0, 80, 0
1, 69000, Note_on_c, 0, 77, 95
1, 69047, Note_on_c, 0, 77, 0
1, 69060, Note_on_c, 0, 79, 95
1, 69070, Note_on_c, 1, 58, 0
1, 69070, Note_on_c, 1, 46, 0
1, 69107, Note_on_c, 0, 79, 0
1, 69120, Note_on_c, 0, 63, 95
1, 69120, Note_on_c, 0, 82, 95
1, 69120, Note_on_c, 1, 51, 95
1, 69310, Note_on_c, 0, 82, 0
1, 69310, Note_on_c, 0, 63, 0
1, 69310, Note_on_c, 1, 51, 0
1, 69360, Note_on_c, 0, 67, 95
1, 69360, Note_on_c, 0, 75, 95
1, 69360, Note_on_c, 1, 55, 95
1, 69550, Note_on_c, 0, 75, 0
1, 69550, Note_on_c, 0, 67, 0
1, 69550, Note_on_c, 1, 55, 0
1, 69600, Note_on_c, 0, 75, 95
1, 69790, Note_on_c, 0, 75, 0
1, 69840, Note_on_c, 0, 75, 95
1, 70030, Note_on_c, 0, 75, 0
1, 70080, Note_on_c, 0, 65, 64
1, 70080, Note_on_c, 0, 62, 70
1, 70080, Note_on_c, 0, 80, 66
1, 70080, Note_on_c, 1, 55, 69
1, 70270, Note_on_c, 0, 80, 0
1, 70320, Note_on_c, 0, 71, 69
1, 70510, Note_on_c, 0, 71, 0
1, 70560, Note_on_c, 0, 71, 62
1, 70655, Note_on_c, 0, 62, 0
1, 70655, Note_on_c, 0, 65, 0
1, 70655, Note_on_c, 1, 55, 0
1, 70750, Note_on_c, 0, 71, 0
1, 71040, Note_on_c, 0, 60, 95
1, 71040, Note_on_c, 1, 36, 95
1, 71040, Note_on_c, 1, 48, 95
1, 71422, Note_on_c, 0, 60, 0
1, 71422, Note_on_c, 1, 48, 0
1, 71422, Note_on_c, 1, 36, 0
1, 71520, Note_on_c, 0, 63, 95
1, 71520, Note_on_c, 1, 39, 95
1, 71520, Note_on_c, 1, 51, 95
1, 71710, Note_on_c, 0, 63, 0
1, 71710, Note_on_c, 1, 51, 0
1, 71710, Note_on_c, 1, 39, 0
1, 71760, Note_on_c, 0, 67, 95
1, 71760, Note_on_c, 1, 43, 95
1, 71760, Note_on_c, 1, 55, 95
1, 71950, Note_on_c, 0, 67, 0
1, 71950, Note_on_c, 1, 55, 0
1, 71950, Note_on_c, 1, 43, 0
1, 72000, Note_on_c, 0, 72, 95
1, 72000, Note_on_c, 0, 60, 95
1, 72190, Note_on_c, 0, 60, 0
1, 72190, Note_on_c, 0, 72, 0
1, 72240, Note_on_c, 0, 63, 95
1, 72240, Note_on_c, 0, 75, 95
1, 72430, Note_on_c, 0, 75, 0
1, 72430, Note_on_c, 0, 63, 0
1, 72660, Note_on_c, 0, 75, 65
1, 72707, Note_on_c, 0, 75, 0
1, 72720, Note_on_c, 0, 75, 65
1, 72742, Note_on_c, 0, 75, 0
1, 72750, Note_on_c, 0, 77, 65
1, 72772, Note_on_c, 0, 77, 0
1, 72780, Note_on_c, 0, 75, 65
1, 72802, Note_on_c, 0, 75, 0
1, 72810, Note_on_c, 0, 77, 65
1, 72832, Note_on_c, 0, 77, 0
1, 72840, Note_on_c, 0, 74, 65
1, 72887, Note_on_c, 0, 74, 0
1, 72900, Note_on_c, 0, 75, 65
1, 72947, Note_on_c, 0, 75, 0
1, 72960, Note_on_c, 0, 79, 65
1, 73150, Note_on_c, 0, 79, 0
1, 73200, Note_on_c, 0, 63, 65
1, 73200, Note_on_c, 0, 67, 65
1, 73200, Note_on_c, 0, 72, 65
1, 73390, Note_on_c, 0, 72, 0
1, 73390, Note_on_c, 0, 67, 0
1, 73390, Note_on_c, 0, 63, 0
1, 73440, Note_on_c, 0, 63, 65
1, 73440, Note_on_c, 0, 67, 65
1, 73440, Note_on_c, 0, 72, 65
1, 73630, Note_on_c, 0, 72, 0
1, 73630, Note_on_c, 0, 67, 0
1, 73630, Note_on_c, 0, 63, 0
1, 73680, Note_on_c, 0, 63, 65
1, 73680, Note_on_c, 0, 67, 65
1, 73680, Note_on_c, 0, 72, 65
1, 73870, Note_on_c, 0, 72, 0
1, 73870, Note_on_c, 0, 67, 0
1, 73870, Note_on_c, 0, 63, 0
1, 73920, Note_on_c, 0, 80, 65
1, 74110, Note_on_c, 0, 80, 0
1, 74160, Note_on_c, 0, 68, 75
1, 74160, Note_on_c, 0, 65, 75
1, 74160, Note_on_c, 0, 62, 76
1, 74160, Note_on_c, 0, 71, 75
1, 74350, Note_on_c, 0, 71, 0
1, 74350, Note_on_c, 0, 68, 0
1, 74350, Note_on_c, 0, 65, 0
1, 74350, Note_on_c, 0, 62, 0
1, 74400, Note_on_c, 0, 62, 85
1, 74400, Note_on_c, 0, 65, 84
1, 74400, Note_on_c, 0, 68, 86
1, 74400, Note_on_c, 0, 71, 87
1, 74590, Note_on_c, 0, 71, 0
1, 74590, Note_on_c, 0, 62, 0
1, 74590, Note_on_c, 0, 65, 0
1, 74590, Note_on_c, 0, 68, 0
1, 74880, Note_on_c, 1, 31, 95
1, 74880, Note_on_c, 1, 43, 95
1, 74880, Note_on_c, 1, 55, 95
1, 75262, Note_on_c, 1, 55, 0
1, 75262, Note_on_c, 1, 43, 0
1, 75262, Note_on_c, 1, 31, 0
1, 75360, Note_on_c, 1, 35, 95
1, 75360, Note_on_c, 1, 47, 95
1, 75360, Note_on_c, 1, 59, 95
1, 75550, Note_on_c, 1, 59, 0
1, 75550, Note_on_c, 1, 47, 0
1, 75550, Note_on_c, 1, 35, 0
1, 75600, Note_on_c, 0, 62, 95
1, 75600, Note_on_c, 1, 38, 95
1, 75600, Note_on_c, 1, 50, 95
1, 75790, Note_on_c, 0, 62, 0
1, 75790, Note_on_c, 1, 50, 0
1, 75790, Note_on_c, 1, 38, 0
1, 75840, Note_on_c, 0, 67, 95
1, 75840, Note_on_c, 1, 43, 95
1, 75840, Note_on_c, 1, 55, 95
1, 76030, Note_on_c, 0, 67, 0
1, 76030, Note_on_c, 1, 55, 0
1, 76030, Note_on_c, 1, 43, 0
1, 76080, Note_on_c, 0, 71, 95
1, 76080, Note_on_c, 1, 59, 95
1, 76080, Note_on_c, 1, 47, 95
1, 76270, Note_on_c, 0, 71, 0
1, 76270, Note_on_c, 1, 47, 0
1, 76270, Note_on_c, 1, 59, 0
1, 76500, Note_on_c, 0, 74, 65
1, 76547, Note_on_c, 0, 74, 0
1, 76560, Note_on_c, 0, 74, 66
1, 76582, Note_on_c, 0, 74, 0
1, 76590, Note_on_c, 0, 75, 66
1, 76612, Note_on_c, 0, 75, 0
1, 76620, Note_on_c, 0, 74, 65
1, 76642, Note_on_c, 0, 74, 0
1, 76650, Note_on_c, 0, 75, 65
1, 76672, Note_on_c, 0, 75, 0
1, 76680, Note_on_c, 0, 72, 65
1, 76727, Note_on_c, 0, 72, 0
1, 76740, Note_on_c, 0, 74, 65
1, 76787, Note_on_c, 0, 74, 0
1, 76800, Note_on_c, 0, 77, 65
1, 76990, Note_on_c, 0, 77, 0
1, 77040, Note_on_c, 0, 62, 65
1, 77040, Note_on_c, 0, 65, 65
1, 77040, Note_on_c, 0, 68, 65
1, 77040, Note_on_c, 0, 71, 65
1, 77230, Note_on_c, 0, 71, 0
1, 77230, Note_on_c, 0, 62, 0
1, 77230, Note_on_c, 0, 65, 0
1, 77230, Note_on_c, 0, 68, 0
1, 77280, Note_on_c, 0, 62, 65
1, 77280, Note_on_c, 0, 65, 65
1, 77280, Note_on_c, 0, 68, 65
1, 77280, Note_on_c, 0, 71, 65
1, 77470, Note_on_c, 0, 71, 0
1, 77470, Note_on_c, 0, 62, 0
1, 77470, Note_on_c, 0, 65, 0
1, 77470, Note_on_c, 0, 68, 0
1, 77520, Note_on_c, 0, 62, 65
1, 77520, Note_on_c, 0, 65, 65
1, 77520, Note_on_c, 0, 68, 65
1, 77520, Note_on_c, 0, 71, 65
1, 77710, Note_on_c, 0, 71, 0
1, 77710, Note_on_c, 0, 62, 0
1, 77710, Note_on_c, 0, 65, 0
1, 77710, Note_on_c, 0, 68, 0
1, 77760, Note_on_c, 0, 79, 65
1, 77950, Note_on_c, 0, 79, 0
1, 78000, Note_on_c, 0, 63, 65
1, 78000, Note_on_c, 0, 67, 65
1, 78000, Note_on_c, 0, 72, 65
1, 78190, Note_on_c, 0, 72, 0
1, 78190, Note_on_c, 0, 67, 0
1, 78190, Note_on_c, 0, 63, 0
1, 78240, Note_on_c, 0, 63, 65
1, 78240, Note_on_c, 0, 67, 65
1, 78240, Note_on_c, 0, 72, 65
1, 78430, Note_on_c, 0, 72, 0
1, 78430, Note_on_c, 0, 67, 0
1, 78430, Note_on_c, 0, 63, 0
1, 78720, Note_on_c, 0, 67, 95
1, 78720, Note_on_c, 1, 43, 95
1, 78815, Note_on_c, 1, 43, 0
1, 78840, Note_on_c, 1, 55, 95
1, 78935, Note_on_c, 1, 55, 0
1, 78960, Note_on_c, 1, 43, 95
1, 79055, Note_on_c, 1, 43, 0
1, 79080, Note_on_c, 1, 55, 95
1, 79175, Note_on_c, 1, 55, 0
1, 79200, Note_on_c, 1, 43, 73
1, 79295, Note_on_c, 0, 67, 0
1, 79295, Note_on_c, 1, 43, 0
1, 79320, Note_on_c, 1, 55, 75
1, 79415, Note_on_c, 1, 55, 0
1, 79440, Note_on_c, 0, 67, 65
1, 79440, Note_on_c, 0, 75, 65
1, 79440, Note_on_c, 1, 43, 65
1, 79535, Note_on_c, 1, 43, 0
1, 79560, Note_on_c, 1, 55, 65
1, 79630, Note_on_c, 0, 67, 0
1, 79655, Note_on_c, 1, 55, 0
1, 79680, Note_on_c, 0, 66, 95
1, 79680, Note_on_c, 1, 43, 95
1, 79775, Note_on_c, 1, 43, 0
1, 79800, Note_on_c, 1, 55, 95
1, 79870, Note_on_c, 0, 66, 0
1, 79870, Note_on_c, 0, 75, 0
1, 79895, Note_on_c, 1, 55, 0
1, 79920, Note_on_c, 0, 65, 95
1, 79920, Note_on_c, 0, 74, 95
1, 79920, Note_on_c, 1, 43, 95
1, 80015, Note_on_c, 1, 43, 0
1, 80040, Note_on_c, 1, 55, 95
1, 80110, Note_on_c, 0, 65, 0
1, 80135, Note_on_c, 1, 55, 0
1, 80160, Note_on_c, 0, 64, 95
1, 80160, Note_on_c, 1, 43, 95
1, 80255, Note_on_c, 1, 43, 0
1, 80280, Note_on_c, 1, 55, 95
1, 80302, Note_on_c, 0, 74, 0
1, 80350, Note_on_c, 0, 64, 0
1, 80375, Note_on_c, 1, 55, 0
1, 80400, Note_on_c, 0, 63, 95
1, 80400, Note_on_c, 0, 72, 95
1, 80400, Note_on_c, 1, 43, 95
1, 80495, Note_on_c, 1, 43, 0
1, 80520, Note_on_c, 1, 55, 95
1, 80590, Note_on_c, 0, 63, 0
1, 80615, Note_on_c, 1, 55, 0
1, 80640, Note_on_c, 0, 62, 95
1, 80640, Note_on_c, 1, 43, 95
1, 80735, Note_on_c, 1, 43, 0
1, 80760, Note_on_c, 1, 55, 95
1, 80830, Note_on_c, 0, 72, 0
1, 80855, Note_on_c, 1, 55, 0
1, 80880, Note_on_c, 0, 71, 95
1, 80880, Note_on_c, 1, 43, 95
1, 80975, Note_on_c, 1, 43, 0
1, 81000, Note_on_c, 1, 55, 95
1, 81022, Note_on_c, 0, 62, 0
1, 81070, Note_on_c, 0, 71, 0
1, 81095, Note_on_c, 1, 55, 0
1, 81120, Note_on_c, 1, 43, 76
1, 81215, Note_on_c, 1, 43, 0
1, 81240, Note_on_c, 1, 55, 80
1, 81335, Note_on_c, 1, 55, 0
1, 81360, Note_on_c, 0, 79, 79
1, 81360, Note_on_c, 0, 75, 63
1, 81360, Note_on_c, 1, 43, 77
1, 81455, Note_on_c, 1, 43, 0
1, 81480, Note_on_c, 1, 55, 64
1, 81550, Note_on_c, 0, 75, 0
1, 81550, Note_on_c, 0, 79, 0
1, 81575, Note_on_c, 1, 55, 0
1, 81600, Note_on_c, 0, 75, 65
1, 81600, Note_on_c, 0, 78, 65
1, 81600, Note_on_c, 1, 43, 65
1, 81695, Note_on_c, 1, 43, 0
1, 81720, Note_on_c, 1, 55, 65
1, 81790, Note_on_c, 0, 78, 0
1, 81790, Note_on_c, 0, 75, 0
1, 81815, Note_on_c, 1, 55, 0
1, 81840, Note_on_c, 0, 74, 65
1, 81840, Note_on_c, 0, 77, 65
1, 81840, Note_on_c, 1, 43, 65
1, 81935, Note_on_c, 1, 43, 0
1, 81960, Note_on_c, 1, 55, 65
1, 82030, Note_on_c, 0, 77, 0
1, 82055, Note_on_c, 1, 55, 0
1, 82080, Note_on_c, 0, 76, 65
1, 82080, Note_on_c, 1, 43, 65
1, 82175, Note_on_c, 1, 43, 0
1, 82200, Note_on_c, 1, 55, 65
1, 82222, Note_on_c, 0, 74, 0
1, 82270, Note_on_c, 0, 76, 0
1, 82295, Note_on_c, 1, 55, 0
1, 82320, Note_on_c, 0, 72, 82
1, 82320, Note_on_c, 0, 75, 80
1, 82320, Note_on_c, 1, 43, 80
1, 82415, Note_on_c, 1, 43, 0
1, 82440, Note_on_c, 1, 55, 81
1, 82510, Note_on_c, 0, 75, 0
1, 82510, Note_on_c, 0, 72, 0
1, 82535, Note_on_c, 1, 55, 0
1, 82560, Note_on_c, 0, 74, 95
1, 82560, Note_on_c, 0, 72, 95
1, 82560, Note_on_c, 1, 43, 95
1, 82655, Note_on_c, 1, 43, 0
1, 82680, Note_on_c, 1, 55, 95
1, 82750, Note_on_c, 0, 72, 0
1, 82775, Note_on_c, 1, 55, 0
1, 82800, Note_on_c, 0, 71, 95
1, 82800, Note_on_c, 1, 55, 95
1, 82895, Note_on_c, 1, 55, 0
1, 82920, Note_on_c, 1, 55, 95
1, 82942, Note_on_c, 0, 74, 0
1, 82990, Note_on_c, 0, 71, 0
1, 83015, Note_on_c, 1, 55, 0
1, 83040, Note_on_c, 1, 41, 95
1, 83135, Note_on_c, 1, 41, 0
1, 83160, Note_on_c, 1, 53, 95
1, 83255, Note_on_c, 1, 53, 0
1, 83280, Note_on_c, 0, 71, 95
1, 83280, Note_on_c, 0, 74, 95
1, 83280, Note_on_c, 0, 80, 95
1, 83280, Note_on_c, 1, 53, 95
1, 83375, Note_on_c, 1, 53, 0
1, 83400, Note_on_c, 1, 53, 95
1, 83495, Note_on_c, 1, 53, 0
1, 83520, Note_on_c, 1, 39, 95
1, 83615, Note_on_c, 1, 39, 0
1, 83640, Note_on_c, 1, 51, 95
1, 83710, Note_on_c, 0, 80, 0
1, 83710, Note_on_c, 0, 74, 0
1, 83710, Note_on_c, 0, 71, 0
1, 83735, Note_on_c, 1, 51, 0
1, 83760, Note_on_c, 0, 72, 95
1, 83760, Note_on_c, 0, 75, 95
1, 83760, Note_on_c, 0, 79, 95
1, 83760, Note_on_c, 1, 51, 95
1, 83855, Note_on_c, 1, 51, 0
1, 83880, Note_on_c, 1, 51, 95
1, 83950, Note_on_c, 0, 79, 0
1, 83950, Note_on_c, 0, 75, 0
1, 83950, Note_on_c, 0, 72, 0
1, 83975, Note_on_c, 1, 51, 0
1, 84000, Note_on_c, 1, 35, 95
1, 84095, Note_on_c, 1, 35, 0
1, 84120, Note_on_c, 1, 47, 95
1, 84180, Note_on_c, 0, 67, 95
1, 84215, Note_on_c, 1, 47, 0
1, 84227, Note_on_c, 0, 67, 0
1, 84240, Note_on_c, 0, 74, 95
1, 84240, Note_on_c, 1, 47, 95
1, 84335, Note_on_c, 1, 47, 0
1, 84360, Note_on_c, 1, 47, 95
1, 84382, Note_on_c, 0, 74, 0
1, 84420, Note_on_c, 0, 77, 95
1, 84455, Note_on_c, 1, 47, 0
1, 84467, Note_on_c, 0, 77, 0
1, 84480, Note_on_c, 0, 75, 95
1, 84480, Note_on_c, 1, 36, 95
1, 84502, Note_on_c, 0, 75, 0
1, 84510, Note_on_c, 0, 77, 95
1, 84532, Note_on_c, 0, 77, 0
1, 84540, Note_on_c, 0, 74, 95
1, 84575, Note_on_c, 1, 36, 0
1, 84587, Note_on_c, 0, 74, 0
1, 84600, Note_on_c, 0, 75, 95
1, 84600, Note_on_c, 1, 48, 95
1, 84647, Note_on_c, 0, 75, 0
1, 84660, Note_on_c, 0, 77, 95
1, 84695, Note_on_c, 1, 48, 0
1, 84707, Note_on_c, 0, 77, 0
1, 84720, Note_on_c, 0, 79, 95
1, 84720, Note_on_c, 1, 48, 95
1, 84815, Note_on_c, 1, 48, 0
1, 84840, Note_on_c, 1, 48, 95
1, 84910, Note_on_c, 0, 79, 0
1, 84935, Note_on_c, 1, 48, 0
1, 84960, Note_on_c, 1, 41, 95
1, 85055, Note_on_c, 1, 41, 0
1, 85080, Note_on_c, 1, 53, 95
1, 85175, Note_on_c, 1, 53, 0
1, 85200, Note_on_c, 0, 71, 95
1, 85200, Note_on_c, 0, 74, 95
1, 85200, Note_on_c, 0, 80, 95
1, 85200, Note_on_c, 1, 53, 95
1, 85295, Note_on_c, 1, 53, 0
1, 85320, Note_on_c, 1, 53, 95
1, 85415, Note_on_c, 1, 53, 0
1, 85440, Note_on_c, 1, 39, 95
1, 85535, Note_on_c, 1, 39, 0
1, 85560, Note_on_c, 1, 51, 95
1, 85630, Note_on_c, 0, 80, 0
1, 85630, Note_on_c, 0, 74, 0
1, 85630, Note_on_c, 0, 71, 0
1, 85655, Note_on_c, 1, 51, 0
1, 85680, Note_on_c, 0, 72, 95
1, 85680, Note_on_c, 0, 75, 95
1, 85680, Note_on_c, 0, 79, 95
1, 85680, Note_on_c, 1, 51, 95
1, 85775, Note_on_c, 1, 51, 0
1, 85800, Note_on_c, 1, 51, 95
1, 85870, Note_on_c, 0, 79, 0
1, 85870, Note_on_c, 0, 75, 0
1, 85870, Note_on_c, 0, 72, 0
1, 85895, Note_on_c, 1, 51, 0
1, 85920, Note_on_c, 1, 38, 95
1, 86015, Note_on_c, 1, 38, 0
1, 86040, Note_on_c, 1, 50, 95
1, 86100, Note_on_c, 0, 77, 95
1, 86135, Note_on_c, 1, 50, 0
1, 86147, Note_on_c, 0, 77, 0
1, 86160, Note_on_c, 0, 83, 95
1, 86160, Note_on_c, 1, 50, 95
1, 86255, Note_on_c, 1, 50, 0
1, 86280, Note_on_c, 1, 50, 95
1, 86302, Note_on_c, 0, 83, 0
1, 86340, Note_on_c, 0, 86, 95
1, 86375, Note_on_c, 1, 50, 0
1, 86387, Note_on_c, 0, 86, 0
1, 86400, Note_on_c, 0, 87, 81
1, 86400, Note_on_c, 1, 48, 81
1, 86495, Note_on_c, 0, 87, 0
1, 86520, Note_on_c, 0, 79, 65
1, 86590, Note_on_c, 1, 48, 0
1, 86615, Note_on_c, 0, 79, 0
1, 86640, Note_on_c, 0, 84, 65
1, 86735, Note_on_c, 0, 84, 0
1, 86760, Note_on_c, 0, 79, 65
1, 86855, Note_on_c, 0, 79, 0
1, 86880, Note_on_c, 1, 53, 65
1, 87000, Note_on_c, 0, 77, 65
1, 87070, Note_on_c, 1, 53, 0
1, 87095, Note_on_c, 0, 77, 0
1, 87120, Note_on_c, 0, 80, 65
1, 87215, Note_on_c, 0, 80, 0
1, 87240, Note_on_c, 0, 74, 65
1, 87335, Note_on_c, 0, 74, 0
1, 87360, Note_on_c, 1, 55, 65
1, 87480, Note_on_c, 0, 75, 65
1, 87550, Note_on_c, 1, 55, 0
1, 87575, Note_on_c, 0, 75, 0
1, 87600, Note_on_c, 0, 79, 65
1, 87695, Note_on_c, 0, 79, 0
1, 87720, Note_on_c, 0, 72, 65
1, 87815, Note_on_c, 0, 72, 0
1, 87840, Note_on_c, 1, 43, 65
1, 87960, Note_on_c, 0, 74, 65
1, 88030, Note_on_c, 1, 43, 0
1, 88055, Note_on_c, 0, 74, 0
1, 88080, Note_on_c, 0, 77, 80
1, 88175, Note_on_c, 0, 77, 0
1, 88200, Note_on_c, 0, 71, 80
1, 88295, Note_on_c, 0, 71, 0
1, 88320, Note_on_c, 0, 60, 95
1, 88320, Note_on_c, 0, 72, 95
1, 88702, Note_on_c, 0, 72, 0
1, 88702, Note_on_c, 0, 60, 0
1, 88800, Note_on_c, 0, 63, 95
1, 88800, Note_on_c, 0, 75, 95
1, 88990, Note_on_c, 0, 75, 0
1, 88990, Note_on_c, 0, 63, 0
1, 89040, Note_on_c, 0, 67, 95
1, 89040, Note_on_c, 0, 79, 95
1, 89230, Note_on_c, 0, 79, 0
1, 89230, Note_on_c, 0, 67, 0
1, 89280, Note_on_c, 0, 84, 95
1, 89280, Note_on_c, 0, 72, 95
1, 89470, Note_on_c, 0, 72, 0
1, 89470, Note_on_c, 0, 84, 0
1, 89520, Note_on_c, 0, 75, 95
1, 89520, Note_on_c, 0, 87, 95
1, 89710, Note_on_c, 0, 87, 0
1, 89710, Note_on_c, 0, 75, 0
1, 89940, Note_on_c, 0, 75, 95
1, 89987, Note_on_c, 0, 75, 0
1, 90000, Note_on_c, 0, 75, 95
1, 90022, Note_on_c, 0, 75, 0
1, 90030, Note_on_c, 0, 77, 95
1, 90052, Note_on_c, 0, 77, 0
1, 90060, Note_on_c, 0, 75, 95
1, 90082, Note_on_c, 0, 75, 0
1, 90090, Note_on_c, 0, 77, 95
1, 90112, Note_on_c, 0, 77, 0
1, 90120, Note_on_c, 0, 74, 95
1, 90167, Note_on_c, 0, 74, 0
1, 90180, Note_on_c, 0, 75, 95
1, 90227, Note_on_c, 0, 75, 0
1, 90240, Note_on_c, 0, 80, 95
1, 90240, Note_on_c, 1, 46, 95
1, 90240, Note_on_c, 1, 34, 95
1, 90302, Note_on_c, 0, 80, 0
1, 90320, Note_on_c, 0, 82, 95
1, 90382, Note_on_c, 0, 82, 0
1, 90400, Note_on_c, 0, 84, 95
1, 90462, Note_on_c, 0, 84, 0
1, 90480, Note_on_c, 0, 82, 95
1, 90542, Note_on_c, 0, 82, 0
1, 90560, Note_on_c, 0, 80, 95
1, 90622, Note_on_c, 0, 80, 0
1, 90622, Note_on_c, 1, 34, 0
1, 90622, Note_on_c, 1, 46, 0
1, 90640, Note_on_c, 0, 79, 95
1, 90702, Note_on_c, 0, 79, 0
1, 90720, Note_on_c, 0, 77, 95
1, 90720, Note_on_c, 1, 50, 95
1, 90720, Note_on_c, 1, 38, 95
1, 90782, Note_on_c, 0, 77, 0
1, 90800, Note_on_c, 0, 79, 95
1, 90862, Note_on_c, 0, 79, 0
1, 90880, Note_on_c, 0, 80, 95
1, 90910, Note_on_c, 1, 38, 0
1, 90910, Note_on_c, 1, 50, 0
1, 90942, Note_on_c, 0, 80, 0
1, 90960, Note_on_c, 0, 79, 95
1, 90960, Note_on_c, 1, 41, 95
1, 90960, Note_on_c, 1, 53, 95
1, 91022, Note_on_c, 0, 79, 0
1, 91040, Note_on_c, 0, 77, 95
1, 91102, Note_on_c, 0, 77, 0
1, 91120, Note_on_c, 0, 75, 95
1, 91150, Note_on_c, 1, 53, 0
1, 91150, Note_on_c, 1, 41, 0
1, 91182, Note_on_c, 0, 75, 0
1, 91200, Note_on_c, 0, 74, 95
1, 91200, Note_on_c, 1, 58, 95
1, 91200, Note_on_c, 1, 46, 95
1, 91262, Note_on_c, 0, 74, 0
1, 91280, Note_on_c, 0, 75, 95
1, 91342, Note_on_c, 0, 75, 0
1, 91360, Note_on_c, 0, 77, 95
1, 91390, Note_on_c, 1, 46, 0
1, 91390, Note_on_c, 1, 58, 0
1, 91422, Note_on_c, 0, 77, 0
1, 91440, Note_on_c, 0, 62, 95
1, 91440, Note_on_c, 0, 75, 95
1, 91440, Note_on_c, 1, 50, 95
1, 91502, Note_on_c, 0, 75, 0
1, 91520, Note_on_c, 0, 74, 95
1, 91582, Note_on_c, 0, 74, 0
1, 91600, Note_on_c, 0, 72, 95
1, 91630, Note_on_c, 0, 62, 0
1, 91630, Note_on_c, 1, 50, 0
1, 91662, Note_on_c, 0, 72, 0
1, 91680, Note_on_c, 0, 70, 95
1, 91742, Note_on_c, 0, 70, 0
1, 91760, Note_on_c, 0, 72, 95
1, 91822, Note_on_c, 0, 72, 0
1, 91840, Note_on_c, 0, 70, 95
1, 91902, Note_on_c, 0, 70, 0
1, 91920, Note_on_c, 0, 68, 95
1, 91982, Note_on_c, 0, 68, 0
1, 92000, Note_on_c, 0, 70, 95
1, 92062, Note_on_c, 0, 70, 0
1, 92080, Note_on_c, 0, 68, 95
1, 92142, Note_on_c, 0, 68, 0
1, 92160, Note_on_c, 0, 67, 50
1, 92160, Note_on_c, 1, 51, 50
1, 92255, Note_on_c, 1, 51, 0
1, 92280, Note_on_c, 1, 58, 50
1, 92375, Note_on_c, 1, 58, 0
1, 92400, Note_on_c, 1, 55, 50
1, 92447, Note_on_c, 0, 67, 0
1, 92495, Note_on_c, 1, 55, 0
1, 92520, Note_on_c, 0, 68, 50
1, 92520, Note_on_c, 1, 58, 50
1, 92542, Note_on_c, 0, 68, 0
1, 92550, Note_on_c, 0, 67, 50
1, 92572, Note_on_c, 0, 67, 0
1, 92580, Note_on_c, 0, 65, 50
1, 92602, Note_on_c, 0, 65, 0
1, 92610, Note_on_c, 0, 67, 50
1, 92615, Note_on_c, 1, 58, 0
1, 92632, Note_on_c, 0, 67, 0
1, 92640, Note_on_c, 0, 68, 50
1, 92640, Note_on_c, 1, 53, 50
1, 92735, Note_on_c, 1, 53, 0
1, 92760, Note_on_c, 1, 58, 50
1, 92830, Note_on_c, 0, 68, 0
1, 92855, Note_on_c, 1, 58, 0
1, 92880, Note_on_c, 0, 62, 50
1, 92880, Note_on_c, 1, 56, 50
1, 92975, Note_on_c, 1, 56, 0
1, 93000, Note_on_c, 1, 58, 50
1, 93070, Note_on_c, 0, 62, 0
1, 93095, Note_on_c, 1, 58, 0
1, 93120, Note_on_c, 0, 63, 50
1, 93120, Note_on_c, 1, 55, 50
1, 93215, Note_on_c, 0, 63, 0
1, 93215, Note_on_c, 1, 55, 0
1, 93240, Note_on_c, 0, 67, 50
1, 93240, Note_on_c, 1, 58, 50
1, 93335, Note_on_c, 0, 67, 0
1, 93335, Note_on_c, 1, 58, 0
1, 93360, Note_on_c, 0, 70, 50
1, 93360, Note_on_c, 1, 51, 50
1, 93455, Note_on_c, 1, 51, 0
1, 93480, Note_on_c, 1, 58, 50
1, 93575, Note_on_c, 1, 58, 0
1, 93600, Note_on_c, 1, 50, 50
1, 93647, Note_on_c, 0, 70, 0
1, 93695, Note_on_c, 1, 50, 0
1, 93720, Note_on_c, 0, 69, 50
1, 93720, Note_on_c, 1, 58, 50
1, 93815, Note_on_c, 0, 69, 0
1, 93815, Note_on_c, 1, 58, 0
1, 93840, Note_on_c, 0, 68, 50
1, 93840, Note_on_c, 1, 46, 50
1, 93935, Note_on_c, 0, 68, 0
1, 93935, Note_on_c, 1, 46, 0
1, 93960, Note_on_c, 0, 66, 50
1, 93960, Note_on_c, 1, 58, 50
1, 94055, Note_on_c, 0, 66, 0
1, 94055, Note_on_c, 1, 58, 0
1, 94080, Note_on_c, 0, 67, 50
1, 94080, Note_on_c, 1, 51, 50
1, 94175, Note_on_c, 1, 51, 0
1, 94200, Note_on_c, 1, 58, 50
1, 94295, Note_on_c, 1, 58, 0
1, 94320, Note_on_c, 1, 55, 50
1, 94367, Note_on_c, 0, 67, 0
1, 94415, Note_on_c, 1, 55, 0
1, 94440, Note_on_c, 0, 68, 50
1, 94440, Note_on_c, 1, 58, 50
1, 94462, Note_on_c, 0, 68, 0
1, 94470, Note_on_c, 0, 67, 50
1, 94492, Note_on_c, 0, 67, 0
1, 94500, Note_on_c, 0, 65, 50
1, 94522, Note_on_c, 0, 65, 0
1, 94530, Note_on_c, 0, 67, 50
1, 94535, Note_on_c, 1, 58, 0
1, 94552, Note_on_c, 0, 67, 0
1, 94560, Note_on_c, 0, 68, 50
1, 94560, Note_on_c, 1, 53, 50
1, 94655, Note_on_c, 1, 53, 0
1, 94680, Note_on_c, 1, 58, 50
1, 94750, Note_on_c, 0, 68, 0
1, 94775, Note_on_c, 1, 58, 0
1, 94800, Note_on_c, 0, 62, 50
1, 94800, Note_on_c, 1, 56, 50
1, 94895, Note_on_c, 1, 56, 0
1, 94920, Note_on_c, 1, 58, 50
1, 94990, Note_on_c, 0, 62, 0
1, 95015, Note_on_c, 1, 58, 0
1, 95040, Note_on_c, 0, 63, 50
1, 95040, Note_on_c, 1, 55, 50
1, 95135, Note_on_c, 0, 63, 0
1, 95135, Note_on_c, 1, 55, 0
1, 95160, Note_on_c, 0, 75, 50
1, 95160, Note_on_c, 1, 58, 50
1, 95255, Note_on_c, 0, 75, 0
1, 95255, Note_on_c, 1, 58, 0
1, 95280, Note_on_c, 0, 74, 50
1, 95280, Note_on_c, 1, 51, 50
1, 95375, Note_on_c, 0, 74, 0
1, 95375, Note_on_c, 1, 51, 0
1, 95400, Note_on_c, 0, 72, 50
1, 95400, Note_on_c, 1, 58, 50
1, 95495, Note_on_c, 0, 72, 0
1, 95495, Note_on_c, 1, 58, 0
1, 95520, Note_on_c, 0, 71, 50
1, 95520, Note_on_c, 1, 50, 50
1, 95615, Note_on_c, 0, 71, 0
1, 95615, Note_on_c, 1, 50, 0
1, 95640, Note_on_c, 0, 69, 50
1, 95640, Note_on_c, 1, 58, 50
1, 95735, Note_on_c, 0, 69, 0
1, 95735, Note_on_c, 1, 58, 0
1, 95760, Note_on_c, 0, 68, 50
1, 95760, Note_on_c, 1, 46, 50
1, 95855, Note_on_c, 0, 68, 0
1, 95855, Note_on_c, 1, 46, 0
1, 95880, Note_on_c, 0, 66, 50
1, 95880, Note_on_c, 1, 58, 50
1, 95975, Note_on_c, 0, 66, 0
1, 95975, Note_on_c, 1, 58, 0
1, 96000, Note_on_c, 0, 67, 50
1, 96000, Note_on_c, 1, 51, 50
1, 96095, Note_on_c, 1, 51, 0
1, 96120, Note_on_c, 1, 58, 50
1, 96190, Note_on_c, 0, 67, 0
1, 96215, Note_on_c, 1, 58, 0
1, 96240, Note_on_c, 0, 70, 50
1, 96240, Note_on_c, 1, 55, 50
1, 96335, Note_on_c, 1, 55, 0
1, 96360, Note_on_c, 1, 58, 50
1, 96430, Note_on_c, 0, 70, 0
1, 96455, Note_on_c, 1, 58, 0
1, 96480, Note_on_c, 1, 50, 55
1, 96575, Note_on_c, 1, 50, 0
1, 96600, Note_on_c, 0, 70, 55
1, 96600, Note_on_c, 1, 58, 55
1, 96695, Note_on_c, 0, 70, 0
1, 96695, Note_on_c, 1, 58, 0
1, 96720, Note_on_c, 0, 70, 60
1, 96720, Note_on_c, 1, 53, 61
1, 96815, Note_on_c, 0, 70, 0
1, 96815, Note_on_c, 1, 53, 0
1, 96840, Note_on_c, 0, 70, 60
1, 96840, Note_on_c, 1, 58, 60
1, 96935, Note_on_c, 0, 70, 0
1, 96935, Note_on_c, 1, 58, 0
1, 96960, Note_on_c, 0, 77, 65
1, 96960, Note_on_c, 1, 48, 65
1, 97055, Note_on_c, 0, 77, 0
1, 97055, Note_on_c, 1, 48, 0
1, 97080, Note_on_c, 0, 75, 66
1, 97080, Note_on_c, 1, 58, 65
1, 97175, Note_on_c, 0, 75, 0
1, 97175, Note_on_c, 1, 58, 0
1, 97200, Note_on_c, 0, 75, 70
1, 97200, Note_on_c, 1, 55, 70
1, 97295, Note_on_c, 1, 55, 0
1, 97320, Note_on_c, 1, 58, 70
1, 97390, Note_on_c, 0, 75, 0
1, 97415, Note_on_c, 1, 58, 0
1, 97440, Note_on_c, 1, 48, 74
1, 97535, Note_on_c, 1, 48, 0
1, 97560, Note_on_c, 0, 75, 73
1, 97560, Note_on_c, 1, 58, 74
1, 97655, Note_on_c, 0, 75, 0
1, 97655, Note_on_c, 1, 58, 0
1, 97680, Note_on_c, 0, 75, 85
1, 97680, Note_on_c, 1, 55, 80
1, 97775, Note_on_c, 0, 75, 0
1, 97775, Note_on_c, 1, 55, 0
1, 97800, Note_on_c, 0, 75, 85
1, 97800, Note_on_c, 1, 58, 86
1, 97895, Note_on_c, 0, 75, 0
1, 97895, Note_on_c, 1, 58, 0
1, 97920, Note_on_c, 0, 75, 95
1, 97920, Note_on_c, 1, 53, 95
1, 97920, Note_on_c, 1, 48, 95
1, 97920, Note_on_c, 1, 57, 95
1, 98015, Note_on_c, 0, 75, 0
1, 98040, Note_on_c, 0, 77, 95
1, 98087, Note_on_c, 0, 77, 0
1, 98100, Note_on_c, 0, 79, 95
1, 98147, Note_on_c, 0, 79, 0
1, 98160, Note_on_c, 0, 77, 95
1, 98255, Note_on_c, 0, 77, 0
1, 98280, Note_on_c, 0, 75, 95
1, 98375, Note_on_c, 0, 75, 0
1, 98400, Note_on_c, 0, 74, 95
1, 98495, Note_on_c, 0, 74, 0
1, 98520, Note_on_c, 0, 72, 95
1, 98615, Note_on_c, 0, 72, 0
1, 98640, Note_on_c, 0, 70, 95
1, 98687, Note_on_c, 1, 57, 0
1, 98687, Note_on_c, 1, 48, 0
1, 98687, Note_on_c, 1, 53, 0
1, 98735, Note_on_c, 0, 70, 0
1, 98760, Note_on_c, 0, 69, 95
1, 98855, Note_on_c, 0, 69, 0
1, 98880, Note_on_c, 0, 72, 95
1, 99070, Note_on_c, 0, 72, 0
1, 99120, Note_on_c, 0, 62, 95
1, 99120, Note_on_c, 0, 70, 95
1, 99120, Note_on_c, 1, 58, 95
1, 99310, Note_on_c, 0, 70, 0
1, 99310, Note_on_c, 0, 62, 0
1, 99310, Note_on_c, 1, 58, 0
1, 99360, Note_on_c, 0, 63, 95
1, 99360, Note_on_c, 1, 59, 95
1, 99550, Note_on_c, 0, 63, 0
1, 99550, Note_on_c, 1, 59, 0
1, 99600, Note_on_c, 0, 75, 95
1, 99695, Note_on_c, 0, 75, 0
1, 99720, Note_on_c, 0, 75, 95
1, 99815, Note_on_c, 0, 75, 0
1, 99840, Note_on_c, 0, 82, 65
1, 100030, Note_on_c, 0, 82, 0
1, 100080, Note_on_c, 0, 62, 65
1, 100080, Note_on_c, 1, 58, 65
1, 100270, Note_on_c, 0, 62, 0
1, 100270, Note_on_c, 1, 58, 0
1, 100320, Note_on_c, 0, 63, 65
1, 100320, Note_on_c, 1, 59, 65
1, 100510, Note_on_c, 0, 63, 0
1, 100510, Note_on_c, 1, 59, 0
1, 100560, Note_on_c, 0, 75, 65
1, 100655, Note_on_c, 0, 75, 0
1, 100680, Note_on_c, 0, 75, 65
1, 100775, Note_on_c, 0, 75, 0
1, 100800, Note_on_c, 0, 82, 65
1, 100990, Note_on_c, 0, 82, 0
1, 101040, Note_on_c, 0, 62, 65
1, 101040, Note_on_c, 1, 58, 65
1, 101230, Note_on_c, 0, 62, 0
1, 101230, Note_on_c, 1, 58, 0
1, 101280, Note_on_c, 0, 63, 65
1, 101280, Note_on_c, 1, 59, 65
1, 101470, Note_on_c, 0, 63, 0
1, 101470, Note_on_c, 1, 59, 0
1, 101520, Note_on_c, 0, 75, 65
1, 101615, Note_on_c, 0, 75, 0
1, 101640, Note_on_c, 0, 75, 65
1, 101735, Note_on_c, 0, 75, 0
1, 101760, Note_on_c, 0, 62, 65
1, 101760, Note_on_c, 0, 82, 65
1, 101760, Note_on_c, 1, 58, 65
1, 101950, Note_on_c, 0, 82, 0
1, 101950, Note_on_c, 0, 62, 0
1, 101950, Note_on_c, 1, 58, 0
1, 102000, Note_on_c, 0, 63, 65
1, 102000, Note_on_c, 0, 75, 65
1, 102000, Note_on_c, 1, 59, 65
1, 102095, Note_on_c, 0, 75, 0
1, 102120, Note_on_c, 0, 75, 65
1, 102190, Note_on_c, 0, 63, 0
1, 102190, Note_on_c, 1, 59, 0
1, 102215, Note_on_c, 0, 75, 0
1, 102240, Note_on_c, 0, 62, 65
1, 102240, Note_on_c, 0, 82, 65
1, 102240, Note_on_c, 1, 58, 65
1, 102430, Note_on_c, 0, 82, 0
1, 102430, Note_on_c, 0, 62, 0
1, 102430, Note_on_c, 1, 58, 0
1, 102480, Note_on_c, 0, 75, 65
1, 102480, Note_on_c, 0, 63, 65
1, 102480, Note_on_c, 1, 59, 65
1, 102575, Note_on_c, 0, 75, 0
1, 102600, Note_on_c, 0, 75, 65
1, 102670, Note_on_c, 0, 63, 0
1, 102670, Note_on_c, 1, 59, 0
1, 102695, Note_on_c, 0, 75, 0
1, 102720, Note_on_c, 0, 62, 65
1, 102720, Note_on_c, 0, 82, 65
1, 102720, Note_on_c, 1, 58, 65
1, 102910, Note_on_c, 0, 82, 0
1, 102910, Note_on_c, 0, 62, 0
1, 102910, Note_on_c, 1, 58, 0
1, 102960, Note_on_c, 0, 82, 65
1, 103150, Note_on_c, 0, 82, 0
1, 103200, Note_on_c, 0, 82, 65
1, 103390, Note_on_c, 0, 82, 0
1, 103440, Note_on_c, 0, 82, 65
1, 103630, Note_on_c, 0, 82, 0
1, 103680, Note_on_c, 0, 82, 65
1, 103775, Note_on_c, 0, 82, 0
1, 103800, Note_on_c, 0, 81, 65
1, 103895, Note_on_c, 0, 81, 0
1, 103920, Note_on_c, 0, 80, 65
1, 104015, Note_on_c, 0, 80, 0
1, 104040, Note_on_c, 0, 77, 65
1, 104135, Note_on_c, 0, 77, 0
1, 104160, Note_on_c, 0, 82, 65
1, 104255, Note_on_c, 0, 82, 0
1, 104280, Note_on_c, 0, 81, 65
1, 104375, Note_on_c, 0, 81, 0
1, 104400, Note_on_c, 0, 80, 65
1, 104495, Note_on_c, 0, 80, 0
1, 104520, Note_on_c, 0, 77, 65
1, 104615, Note_on_c, 0, 77, 0
1, 104640, Note_on_c, 0, 75, 65
1, 104640, Note_on_c, 0, 67, 65
1, 104735, Note_on_c, 0, 67, 0
1, 104760, Note_on_c, 0, 70, 65
1, 104855, Note_on_c, 0, 70, 0
1, 104880, Note_on_c, 0, 67, 65
1, 104927, Note_on_c, 0, 75, 0
1, 104975, Note_on_c, 0, 67, 0
1, 105000, Note_on_c, 0, 70, 65
1, 105000, Note_on_c, 0, 77, 65
1, 105047, Note_on_c, 0, 77, 0
1, 105060, Note_on_c, 0, 75, 65
1, 105095, Note_on_c, 0, 70, 0
1, 105107, Note_on_c, 0, 75, 0
1, 105120, Note_on_c, 0, 65, 65
1, 105120, Note_on_c, 0, 74, 65
1, 105215, Note_on_c, 0, 65, 0
1, 105240, Note_on_c, 0, 70, 65
1, 105310, Note_on_c, 0, 74, 0
1, 105335, Note_on_c, 0, 70, 0
1, 105360, Note_on_c, 0, 67, 65
1, 105360, Note_on_c, 0, 75, 65
1, 105455, Note_on_c, 0, 67, 0
1, 105480, Note_on_c, 0, 70, 65
1, 105550, Note_on_c, 0, 75, 0
1, 105575, Note_on_c, 0, 70, 0
1, 105600, Note_on_c, 0, 67, 65
1, 105600, Note_on_c, 0, 76, 65
1, 105695, Note_on_c, 0, 67, 0
1, 105720, Note_on_c, 0, 70, 65
1, 105815, Note_on_c, 0, 70, 0
1, 105840, Note_on_c, 0, 67, 65
1, 105935, Note_on_c, 0, 67, 0
1, 105960, Note_on_c, 0, 70, 65
1, 105982, Note_on_c, 0, 76, 0
1, 106055, Note_on_c, 0, 70, 0
1, 106080, Note_on_c, 0, 68, 65
1, 106080, Note_on_c, 0, 77, 65
1, 106175, Note_on_c, 0, 68, 0
1, 106200, Note_on_c, 0, 70, 65
1, 106270, Note_on_c, 0, 77, 0
1, 106295, Note_on_c, 0, 70, 0
1, 106320, Note_on_c, 0, 68, 65
1, 106415, Note_on_c, 0, 68, 0
1, 106440, Note_on_c, 0, 70, 65
1, 106535, Note_on_c, 0, 70, 0
1, 106560, Note_on_c, 0, 65, 65
1, 106560, Note_on_c, 1, 56, 65
1, 106655, Note_on_c, 0, 65, 0
1, 106680, Note_on_c, 0, 70, 65
1, 106775, Note_on_c, 0, 70, 0
1, 106800, Note_on_c, 0, 65, 65
1, 106847, Note_on_c, 1, 56, 0
1, 106895, Note_on_c, 0, 65, 0
1, 106920, Note_on_c, 0, 70, 65
1, 106920, Note_on_c, 1, 55, 65
1, 106967, Note_on_c, 1, 55, 0
1, 106980, Note_on_c, 1, 56, 65
1, 107015, Note_on_c, 0, 70, 0
1, 107027, Note_on_c, 1, 56, 0
1, 107040, Note_on_c, 0, 65, 65
1, 107040, Note_on_c, 1, 58, 65
1, 107135, Note_on_c, 0, 65, 0
1, 107135, Note_on_c, 1, 58, 0
1, 107160, Note_on_c, 0, 70, 65
1, 107160, Note_on_c, 1, 56, 65
1, 107255, Note_on_c, 0, 70, 0
1, 107255, Note_on_c, 1, 56, 0
1, 107280, Note_on_c, 0, 67, 65
1, 107280, Note_on_c, 1, 55, 65
1, 107375, Note_on_c, 0, 67, 0
1, 107375, Note_on_c, 1, 55, 0
1, 107400, Note_on_c, 0, 70, 65
1, 107400, Note_on_c, 1, 53, 65
1, 107495, Note_on_c, 0, 70, 0
1, 107495, Note_on_c, 1, 53, 0
1, 107520, Note_on_c, 0, 68, 65
1, 107520, Note_on_c, 1, 51, 65
1, 107615, Note_on_c, 0, 68, 0
1, 107640, Note_on_c, 0, 70, 65
1, 107735, Note_on_c, 0, 70, 0
1, 107760, Note_on_c, 0, 65, 65
1, 107855, Note_on_c, 0, 65, 0
1, 107880, Note_on_c, 0, 70, 65
1, 107902, Note_on_c, 1, 51, 0
1, 107975, Note_on_c, 0, 70, 0
1, 108000, Note_on_c, 0, 68, 65
1, 108000, Note_on_c, 1, 50, 65
1, 108095, Note_on_c, 0, 68, 0
1, 108120, Note_on_c, 0, 70, 65
1, 108190, Note_on_c, 1, 50, 0
1, 108215, Note_on_c, 0, 70, 0
1, 108240, Note_on_c, 0, 65, 65
1, 108335, Note_on_c, 0, 65, 0
1, 108360, Note_on_c, 0, 70, 65
1, 108455, Note_on_c, 0, 70, 0
1, 108480, Note_on_c, 0, 77, 65
1, 108480, Note_on_c, 0, 62, 65
1, 108575, Note_on_c, 0, 62, 0
1, 108600, Note_on_c, 0, 70, 65
1, 108695, Note_on_c, 0, 70, 0
1, 108720, Note_on_c, 0, 62, 65
1, 108767, Note_on_c, 0, 77, 0
1, 108815, Note_on_c, 0, 62, 0
1, 108840, Note_on_c, 0, 70, 65
1, 108840, Note_on_c, 0, 79, 65
1, 108887, Note_on_c, 0, 79, 0
1, 108900, Note_on_c, 0, 77, 65
1, 108935, Note_on_c, 0, 70, 0
1, 108947, Note_on_c, 0, 77, 0
1, 108960, Note_on_c, 0, 60, 65
1, 108960, Note_on_c, 0, 75, 65
1, 109055, Note_on_c, 0, 60, 0
1, 109080, Note_on_c, 0, 70, 65
1, 109150, Note_on_c, 0, 75, 0
1, 109175, Note_on_c, 0, 70, 0
1, 109200, Note_on_c, 0, 62, 65
1, 109200, Note_on_c, 0, 77, 65
1, 109295, Note_on_c, 0, 62, 0
1, 109320, Note_on_c, 0, 70, 65
1, 109390, Note_on_c, 0, 77, 0
1, 109415, Note_on_c, 0, 70, 0
1, 109440, Note_on_c, 0, 62, 65
1, 109440, Note_on_c, 0, 78, 65
1, 109535, Note_on_c, 0, 62, 0
1, 109560, Note_on_c, 0, 70, 65
1, 109655, Note_on_c, 0, 70, 0
1, 109680, Note_on_c, 0, 62, 65
1, 109775, Note_on_c, 0, 62, 0
1, 109800, Note_on_c, 0, 70, 65
1, 109822, Note_on_c, 0, 78, 0
1, 109895, Note_on_c, 0, 70, 0
1, 109920, Note_on_c, 0, 63, 65
1, 109920, Note_on_c, 0, 79, 65
1, 110015, Note_on_c, 0, 63, 0
1, 110040, Note_on_c, 0, 70, 65
1, 110110, Note_on_c, 0, 79, 0
1, 110135, Note_on_c, 0, 70, 0
1, 110160, Note_on_c, 0, 63, 65
1, 110255, Note_on_c, 0, 63, 0
1, 110280, Note_on_c, 0, 70, 65
1, 110375, Note_on_c, 0, 70, 0
1, 110400, Note_on_c, 0, 67, 65
1, 110400, Note_on_c, 1, 58, 65
1, 110495, Note_on_c, 0, 67, 0
1, 110520, Note_on_c, 0, 70, 65
1, 110615, Note_on_c, 0, 70, 0
1, 110640, Note_on_c, 0, 63, 65
1, 110687, Note_on_c, 1, 58, 0
1, 110735, Note_on_c, 0, 63, 0
1, 110760, Note_on_c, 0, 70, 65
1, 110760, Note_on_c, 1, 57, 65
1, 110807, Note_on_c, 1, 57, 0
1, 110820, Note_on_c, 1, 58, 65
1, 110855, Note_on_c, 0, 70, 0
1, 110867, Note_on_c, 1, 58, 0
1, 110880, Note_on_c, 0, 60, 65
1, 110880, Note_on_c, 0, 67, 65
1, 110975, Note_on_c, 0, 67, 0
1, 110975, Note_on_c, 0, 60, 0
1, 111000, Note_on_c, 0, 70, 65
1, 111000, Note_on_c, 1, 58, 65
1, 111095, Note_on_c, 0, 70, 0
1, 111095, Note_on_c, 1, 58, 0
1, 111120, Note_on_c, 0, 63, 65
1, 111120, Note_on_c, 1, 56, 65
1, 111215, Note_on_c, 0, 63, 0
1, 111215, Note_on_c, 1, 56, 0
1, 111240, Note_on_c, 0, 70, 65
1, 111240, Note_on_c, 1, 55, 65
1, 111335, Note_on_c, 0, 70, 0
1, 111335, Note_on_c, 1, 55, 0
1, 111360, Note_on_c, 0, 68, 65
1, 111360, Note_on_c, 1, 53, 65
1, 111455, Note_on_c, 0, 68, 0
1, 111480, Note_on_c, 0, 70, 65
1, 111575, Note_on_c, 0, 70, 0
1, 111600, Note_on_c, 0, 65, 65
1, 111695, Note_on_c, 0, 65, 0
1, 111720, Note_on_c, 0, 70, 65
1, 111742, Note_on_c, 1, 53, 0
1, 111815, Note_on_c, 0, 70, 0
1, 111840, Note_on_c, 0, 67, 75
1, 111840, Note_on_c, 1, 51, 75
1, 111935, Note_on_c, 0, 67, 0
1, 111960, Note_on_c, 0, 70, 75
1, 112030, Note_on_c, 1, 51, 0
1, 112055, Note_on_c, 0, 70, 0
1, 112080, Note_on_c, 0, 63, 85
1, 112175, Note_on_c, 0, 63, 0
1, 112200, Note_on_c, 0, 70, 84
1, 112295, Note_on_c, 0, 70, 0
1, 112320, Note_on_c, 0, 63, 95
1, 112320, Note_on_c, 0, 70, 95
1, 112320, Note_on_c, 0, 82, 95
1, 112415, Note_on_c, 0, 63, 0
1, 112440, Note_on_c, 0, 67, 95
1, 112535, Note_on_c, 0, 67, 0
1, 112560, Note_on_c, 0, 63, 95
1, 112655, Note_on_c, 0, 63, 0
1, 112680, Note_on_c, 0, 67, 95
1, 112702, Note_on_c, 0, 82, 0
1, 112702, Note_on_c, 0, 70, 0
1, 112775, Note_on_c, 0, 67, 0
1, 112800, Note_on_c, 0, 71, 95
1, 112800, Note_on_c, 0, 83, 95
1, 112800, Note_on_c, 0, 61, 95
1, 112895, Note_on_c, 0, 61, 0
1, 112920, Note_on_c, 0, 65, 95
1, 113015, Note_on_c, 0, 65, 0
1, 113040, Note_on_c, 0, 61, 95
1, 113135, Note_on_c, 0, 61, 0
1, 113160, Note_on_c, 0, 65, 95
1, 113182, Note_on_c, 0, 83, 0
1, 113182, Note_on_c, 0, 71, 0
1, 113255, Note_on_c, 0, 65, 0
1, 113280, Note_on_c, 0, 60, 95
1, 113280, Note_on_c, 0, 72, 95
1, 113280, Note_on_c, 0, 84, 95
1, 113375, Note_on_c, 0, 60, 0
1, 113400, Note_on_c, 0, 64, 95
1, 113470, Note_on_c, 0, 84, 0
1, 113470, Note_on_c, 0, 72, 0
1, 113495, Note_on_c, 0, 64, 0
1, 113520, Note_on_c, 0, 64, 95
1, 113520, Note_on_c, 0, 73, 95
1, 113520, Note_on_c, 0, 85, 95
1, 113520, Note_on_c, 1, 58, 95
1, 113710, Note_on_c, 0, 85, 0
1, 113710, Note_on_c, 0, 73, 0
1, 113710, Note_on_c, 0, 64, 0
1, 113710, Note_on_c, 1, 58, 0
1, 114240, Note_on_c, 0, 65, 65
1, 114240, Note_on_c, 1, 56, 65
1, 114360, Note_on_c, 0, 84, 65
1, 114430, Note_on_c, 0, 65, 0
1, 114430, Note_on_c, 1, 56, 0
1, 114455, Note_on_c, 0, 84, 0
1, 114480, Note_on_c, 0, 82, 65
1, 114575, Note_on_c, 0, 82, 0
1, 114600, Note_on_c, 0, 80, 65
1, 114695, Note_on_c, 0, 80, 0
1, 114720, Note_on_c, 0, 79, 65
1, 114815, Note_on_c, 0, 79, 0
1, 114840, Note_on_c, 0, 77, 65
1, 114935, Note_on_c, 0, 77, 0
1, 114960, Note_on_c, 0, 79, 65
1, 115055, Note_on_c, 0, 79, 0
1, 115080, Note_on_c, 0, 80, 65
1, 115175, Note_on_c, 0, 80, 0
1, 115200, Note_on_c, 0, 75, 65
1, 115440, Note_on_c, 0, 67, 65
1, 115440, Note_on_c, 1, 58, 65
1, 115630, Note_on_c, 0, 67, 0
1, 115680, Note_on_c, 0, 68, 65
1, 115775, Note_on_c, 0, 75, 0
1, 115822, Note_on_c, 1, 58, 0
1, 115920, Note_on_c, 0, 79, 65
1, 115920, Note_on_c, 0, 74, 65
1, 115920, Note_on_c, 1, 59, 65
1, 116015, Note_on_c, 0, 79, 0
1, 116040, Note_on_c, 0, 77, 65
1, 116062, Note_on_c, 0, 68, 0
1, 116110, Note_on_c, 0, 74, 0
1, 116110, Note_on_c, 1, 59, 0
1, 116135, Note_on_c, 0, 77, 0
1, 116160, Note_on_c, 0, 75, 65
1, 116160, Note_on_c, 0, 67, 65
1, 116160, Note_on_c, 0, 60, 65
1, 116350, Note_on_c, 0, 60, 0
1, 116350, Note_on_c, 0, 67, 0
1, 116350, Note_on_c, 0, 75, 0
1, 116520, Note_on_c, 0, 75, 65
1, 116615, Note_on_c, 0, 75, 0
1, 116640, Note_on_c, 0, 74, 76
1, 116735, Note_on_c, 0, 74, 0
1, 116760, Note_on_c, 0, 73, 76
1, 116855, Note_on_c, 0, 73, 0
1, 116880, Note_on_c, 0, 72, 85
1, 116975, Note_on_c, 0, 72, 0
1, 117000, Note_on_c, 0, 71, 85
1, 117095, Note_on_c, 0, 71, 0
1, 117120, Note_on_c, 0, 70, 95
1, 117120, Note_on_c, 1, 51, 95
1, 117215, Note_on_c, 1, 51, 0
1, 117240, Note_on_c, 1, 55, 95
1, 117335, Note_on_c, 1, 55, 0
1, 117360, Note_on_c, 1, 51, 95
1, 117455, Note_on_c, 1, 51, 0
1, 117480, Note_on_c, 1, 55, 95
1, 117502, Note_on_c, 0, 70, 0
1, 117575, Note_on_c, 1, 55, 0
1, 117600, Note_on_c, 0, 71, 95
1, 117600, Note_on_c, 1, 59, 95
1, 117600, Note_on_c, 1, 49, 95
1, 117695, Note_on_c, 1, 49, 0
1, 117720, Note_on_c, 1, 53, 95
1, 117815, Note_on_c, 1, 53, 0
1, 117840, Note_on_c, 1, 49, 95
1, 117935, Note_on_c, 1, 49, 0
1, 117960, Note_on_c, 1, 53, 95
1, 117982, Note_on_c, 0, 71, 0
1, 117982, Note_on_c, 1, 59, 0
1, 118055, Note_on_c, 1, 53, 0
1, 118080, Note_on_c, 0, 60, 95
1, 118080, Note_on_c, 0, 72, 95
1, 118080, Note_on_c, 1, 48, 95
1, 118175, Note_on_c, 1, 48, 0
1, 118200, Note_on_c, 1, 52, 95
1, 118270, Note_on_c, 0, 72, 0
1, 118270, Note_on_c, 0, 60, 0
1, 118295, Note_on_c, 1, 52, 0
1, 118320, Note_on_c, 0, 61, 95
1, 118320, Note_on_c, 0, 73, 95
1, 118320, Note_on_c, 1, 46, 95
1, 118320, Note_on_c, 1, 52, 95
1, 118510, Note_on_c, 0, 73, 0
1, 118510, Note_on_c, 0, 61, 0
1, 118510, Note_on_c, 1, 52, 0
1, 118510, Note_on_c, 1, 46, 0
1, 119040, Note_on_c, 0, 72, 95
1, 119040, Note_on_c, 1, 48, 95
1, 119040, Note_on_c, 1, 44, 95
1, 119040, Note_on_c, 1, 53, 95
1, 119102, Note_on_c, 0, 72, 0
1, 119120, Note_on_c, 0, 77, 95
1, 119182, Note_on_c, 0, 77, 0
1, 119200, Note_on_c, 0, 67, 95
1, 119262, Note_on_c, 0, 67, 0
1, 119280, Note_on_c, 0, 68, 95
1, 119342, Note_on_c, 0, 68, 0
1, 119360, Note_on_c, 0, 72, 95
1, 119422, Note_on_c, 0, 72, 0
1, 119440, Note_on_c, 0, 64, 95
1, 119502, Note_on_c, 0, 64, 0
1, 119520, Note_on_c, 0, 65, 95
1, 119582, Note_on_c, 0, 65, 0
1, 119600, Note_on_c, 0, 68, 95
1, 119662, Note_on_c, 0, 68, 0
1, 119680, Note_on_c, 1, 59, 95
1, 119742, Note_on_c, 1, 59, 0
1, 119760, Note_on_c, 0, 60, 95
1, 119807, Note_on_c, 1, 48, 0
1, 119807, Note_on_c, 1, 44, 0
1, 119807, Note_on_c, 1, 53, 0
1, 119822, Note_on_c, 0, 60, 0
1, 119840, Note_on_c, 0, 65, 95
1, 119902, Note_on_c, 0, 65, 0
1, 119920, Note_on_c, 1, 55, 95
1, 119982, Note_on_c, 1, 55, 0
1, 120000, Note_on_c, 1, 41, 95
1, 120000, Note_on_c, 1, 29, 95
1, 120000, Note_on_c, 1, 56, 95
1, 120062, Note_on_c, 1, 56, 0
1, 120080, Note_on_c, 0, 60, 95
1, 120142, Note_on_c, 0, 60, 0
1, 120160, Note_on_c, 1, 52, 95
1, 120222, Note_on_c, 1, 52, 0
1, 120240, Note_on_c, 1, 53, 95
1, 120302, Note_on_c, 1, 53, 0
1, 120320, Note_on_c, 1, 56, 95
1, 120382, Note_on_c, 1, 56, 0
1, 120400, Note_on_c, 1, 47, 95
1, 120462, Note_on_c, 1, 47, 0
1, 120480, Note_on_c, 1, 48, 95
1, 120542, Note_on_c, 1, 48, 0
1, 120560, Note_on_c, 1, 53, 95
1, 120622, Note_on_c, 1, 53, 0
1, 120640, Note_on_c, 1, 43, 95
1, 120702, Note_on_c, 1, 43, 0
1, 120720, Note_on_c, 1, 44, 95
1, 120767, Note_on_c, 1, 29, 0
1, 120767, Note_on_c, 1, 41, 0
1, 120782, Note_on_c, 1, 44, 0
1, 120800, Note_on_c, 1, 48, 95
1, 120862, Note_on_c, 1, 48, 0
1, 120880, Note_on_c, 1, 40, 95
1, 120942, Note_on_c, 1, 40, 0
1, 120960, Note_on_c, 1, 41, 95
1, 121247, Note_on_c, 1, 41, 0
1, 121320, Note_on_c, 1, 36, 95
1, 121415, Note_on_c, 1, 36, 0
1, 121440, Note_on_c, 1, 44, 95
1, 121535, Note_on_c, 1, 44, 0
1, 121560, Note_on_c, 1, 41, 95
1, 121655, Note_on_c, 1, 41, 0
1, 121680, Note_on_c, 1, 48, 95
1, 121775, Note_on_c, 1, 48, 0
1, 121800, Note_on_c, 1, 44, 95
1, 121895, Note_on_c, 1, 44, 0
1, 121920, Note_on_c, 1, 53, 95
1, 122015, Note_on_c, 1, 53, 0
1, 122040, Note_on_c, 1, 48, 95
1, 122135, Note_on_c, 1, 48, 0
1, 122160, Note_on_c, 1, 56, 95
1, 122255, Note_on_c, 1, 56, 0
1, 122280, Note_on_c, 1, 53, 95
1, 122375, Note_on_c, 1, 53, 0
1, 122400, Note_on_c, 0, 60, 95
1, 122495, Note_on_c, 0, 60, 0
1, 122520, Note_on_c, 1, 56, 95
1, 122615, Note_on_c, 1, 56, 0
1, 122640, Note_on_c, 0, 65, 95
1, 122735, Note_on_c, 0, 65, 0
1, 122760, Note_on_c, 0, 60, 95
1, 122855, Note_on_c, 0, 60, 0
1, 122880, Note_on_c, 0, 68, 95
1, 122975, Note_on_c, 0, 68, 0
1, 123000, Note_on_c, 0, 65, 95
1, 123095, Note_on_c, 0, 65, 0
1, 123120, Note_on_c, 0, 72, 95
1, 123215, Note_on_c, 0, 72, 0
1, 123240, Note_on_c, 0, 68, 95
1, 123335, Note_on_c, 0, 68, 0
1, 123360, Note_on_c, 0, 77, 95
1, 123455, Note_on_c, 0, 77, 0
1, 123480, Note_on_c, 0, 72, 95
1, 123575, Note_on_c, 0, 72, 0
1, 123600, Note_on_c, 0, 80, 95
1, 123695, Note_on_c, 0, 80, 0
1, 123720, Note_on_c, 0, 77, 95
1, 123815, Note_on_c, 0, 77, 0
1, 123840, Note_on_c, 0, 84, 95
1, 124030, Note_on_c, 0, 84, 0
1, 124080, Note_on_c, 0, 65, 95
1, 124080, Note_on_c, 0, 60, 95
1, 124080, Note_on_c, 1, 56, 95
1, 124270, Note_on_c, 0, 60, 0
1, 124270, Note_on_c, 0, 65, 0
1, 124270, Note_on_c, 1, 56, 0
1, 124320, Note_on_c, 0, 87, 95
1, 124510, Note_on_c, 0, 87, 0
1, 124560, Note_on_c, 0, 66, 95
1, 124560, Note_on_c, 0, 60, 95
1, 124560, Note_on_c, 1, 57, 95
1, 124750, Note_on_c, 0, 60, 0
1, 124750, Note_on_c, 0, 66, 0
1, 124750, Note_on_c, 1, 57, 0
1, 124800, Note_on_c, 0, 63, 94
1, 124800, Note_on_c, 0, 67, 93
1, 124800, Note_on_c, 1, 58, 94
1, 124920, Note_on_c, 0, 70, 65
1, 124990, Note_on_c, 0, 67, 0
1, 124990, Note_on_c, 0, 63, 0
1, 124990, Note_on_c, 1, 58, 0
1, 125015, Note_on_c, 0, 70, 0
1, 125040, Note_on_c, 0, 82, 65
1, 125135, Note_on_c, 0, 82, 0
1, 125160, Note_on_c, 0, 81, 65
1, 125255, Note_on_c, 0, 81, 0
1, 125280, Note_on_c, 0, 80, 65
1, 125375, Note_on_c, 0, 80, 0
1, 125400, Note_on_c, 0, 79, 65
1, 125495, Note_on_c, 0, 79, 0
1, 125520, Note_on_c, 0, 78, 65
1, 125615, Note_on_c, 0, 78, 0
1, 125640, Note_on_c, 0, 77, 65
1, 125735, Note_on_c, 0, 77, 0
1, 125760, Note_on_c, 0, 77, 65
1, 125855, Note_on_c, 0, 77, 0
1, 125880, Note_on_c, 0, 75, 65
1, 125975, Note_on_c, 0, 75, 0
1, 126000, Note_on_c, 0, 75, 65
1, 126000, Note_on_c, 0, 67, 65
1, 126000, Note_on_c, 1, 58, 65
1, 126190, Note_on_c, 0, 67, 0
1, 126240, Note_on_c, 0, 68, 65
1, 126382, Note_on_c, 0, 75, 0
1, 126480, Note_on_c, 0, 74, 65
1, 126480, Note_on_c, 0, 79, 65
1, 126575, Note_on_c, 0, 79, 0
1, 126575, Note_on_c, 0, 74, 0
1, 126575, Note_on_c, 1, 58, 0
1, 126600, Note_on_c, 0, 77, 65
1, 126622, Note_on_c, 0, 68, 0
1, 126695, Note_on_c, 0, 77, 0
1, 126720, Note_on_c, 0, 75, 65
1, 126720, Note_on_c, 0, 63, 65
1, 126815, Note_on_c, 0, 63, 0
1, 126840, Note_on_c, 0, 70, 65
1, 126910, Note_on_c, 0, 75, 0
1, 126935, Note_on_c, 0, 70, 0
1, 126960, Note_on_c, 0, 67, 65
1, 127055, Note_on_c, 0, 67, 0
1, 127080, Note_on_c, 0, 70, 65
1, 127080, Note_on_c, 0, 75, 65
1, 127175, Note_on_c, 0, 75, 0
1, 127175, Note_on_c, 0, 70, 0
1, 127200, Note_on_c, 0, 62, 65
1, 127200, Note_on_c, 0, 76, 65
1, 127295, Note_on_c, 0, 76, 0
1, 127295, Note_on_c, 0, 62, 0
1, 127320, Note_on_c, 0, 70, 65
1, 127320, Note_on_c, 0, 77, 65
1, 127415, Note_on_c, 0, 77, 0
1, 127415, Note_on_c, 0, 70, 0
1, 127440, Note_on_c, 0, 68, 65
1, 127535, Note_on_c, 0, 68, 0
1, 127560, Note_on_c, 0, 70, 65
1, 127560, Note_on_c, 0, 77, 65
1, 127655, Note_on_c, 0, 77, 0
1, 127655, Note_on_c, 0, 70, 0
1, 127680, Note_on_c, 0, 63, 65
1, 127680, Note_on_c, 0, 78, 65
1, 127775, Note_on_c, 0, 78, 0
1, 127775, Note_on_c, 0, 63, 0
1, 127800, Note_on_c, 0, 70, 65
1, 127800, Note_on_c, 0, 79, 65
1, 127895, Note_on_c, 0, 79, 0
1, 127895, Note_on_c, 0, 70, 0
1, 127920, Note_on_c, 0, 67, 65
1, 128015, Note_on_c, 0, 67, 0
1, 128040, Note_on_c, 0, 70, 65
1, 128040, Note_on_c, 0, 79, 65
1, 128135, Note_on_c, 0, 79, 0
1, 128135, Note_on_c, 0, 70, 0
1, 128160, Note_on_c, 0, 82, 65
1, 128160, Note_on_c, 1, 53, 65
1, 128255, Note_on_c, 0, 82, 0
1, 128255, Note_on_c, 1, 53, 0
1, 128280, Note_on_c, 0, 62, 65
1, 128280, Note_on_c, 0, 80, 65
1, 128375, Note_on_c, 0, 80, 0
1, 128375, Note_on_c, 0, 62, 0
1, 128400, Note_on_c, 1, 56, 65
1, 128495, Note_on_c, 1, 56, 0
1, 128520, Note_on_c, 0, 62, 65
1, 128520, Note_on_c, 0, 80, 65
1, 128615, Note_on_c, 0, 80, 0
1, 128615, Note_on_c, 0, 62, 0
1, 128640, Note_on_c, 0, 81, 65
1, 128640, Note_on_c, 1, 55, 65
1, 128735, Note_on_c, 0, 81, 0
1, 128735, Note_on_c, 1, 55, 0
1, 128760, Note_on_c, 0, 63, 65
1, 128760, Note_on_c, 0, 82, 65
1, 128855, Note_on_c, 0, 82, 0
1, 128855, Note_on_c, 0, 63, 0
1, 128880, Note_on_c, 1, 58, 65
1, 128975, Note_on_c, 1, 58, 0
1, 129000, Note_on_c, 0, 63, 65
1, 129000, Note_on_c, 0, 82, 65
1, 129095, Note_on_c, 0, 82, 0
1, 129095, Note_on_c, 0, 63, 0
1, 129120, Note_on_c, 0, 83, 65
1, 129120, Note_on_c, 1, 56, 65
1, 129215, Note_on_c, 0, 83, 0
1, 129215, Note_on_c, 1, 56, 0
1, 129240, Note_on_c, 0, 63, 65
1, 129240, Note_on_c, 0, 84, 65
1, 129335, Note_on_c, 0, 84, 0
1, 129335, Note_on_c, 0, 63, 0
1, 129360, Note_on_c, 0, 60, 65
1, 129455, Note_on_c, 0, 60, 0
1, 129480, Note_on_c, 0, 63, 65
1, 129480, Note_on_c, 0, 87, 65
1, 129575, Note_on_c, 0, 87, 0
1, 129575, Note_on_c, 0, 63, 0
1, 129600, Note_on_c, 0, 87, 65
1, 129600, Note_on_c, 1, 58, 65
1, 129695, Note_on_c, 0, 87, 0
1, 129695, Note_on_c, 1, 58, 0
1, 129720, Note_on_c, 0, 67, 65
1, 129720, Note_on_c, 0, 75, 65
1, 129815, Note_on_c, 0, 75, 0
1, 129815, Note_on_c, 0, 67, 0
1, 129840, Note_on_c, 0, 75, 65
1, 129840, Note_on_c, 0, 63, 65
1, 129935, Note_on_c, 0, 63, 0
1, 129960, Note_on_c, 0, 67, 65
1, 130055, Note_on_c, 0, 67, 0
1, 130080, Note_on_c, 1, 58, 76
1, 130175, Note_on_c, 1, 58, 0
1, 130200, Note_on_c, 0, 68, 76
1, 130222, Note_on_c, 0, 75, 0
1, 130295, Note_on_c, 0, 68, 0
1, 130320, Note_on_c, 0, 62, 87
1, 130320, Note_on_c, 0, 79, 87
1, 130415, Note_on_c, 0, 79, 0
1, 130415, Note_on_c, 0, 62, 0
1, 130440, Note_on_c, 0, 68, 86
1, 130440, Note_on_c, 0, 77, 85
1, 130535, Note_on_c, 0, 77, 0
1, 130535, Note_on_c, 0, 68, 0
1, 130560, Note_on_c, 0, 75, 95
1, 130560, Note_on_c, 1, 51, 95
1, 130655, Note_on_c, 0, 75, 0
1, 130655, Note_on_c, 1, 51, 0
1, 130680, Note_on_c, 0, 75, 95
1, 130680, Note_on_c, 1, 58, 95
1, 130775, Note_on_c, 0, 75, 0
1, 130775, Note_on_c, 1, 58, 0
1, 130800, Note_on_c, 0, 75, 95
1, 130800, Note_on_c, 1, 55, 95
1, 130822, Note_on_c, 0, 75, 0
1, 130830, Note_on_c, 0, 77, 95
1, 130852, Note_on_c, 0, 77, 0
1, 130860, Note_on_c, 0, 75, 95
1, 130882, Note_on_c, 0, 75, 0
1, 130890, Note_on_c, 0, 77, 95
1, 130895, Note_on_c, 1, 55, 0
1, 130912, Note_on_c, 0, 77, 0
1, 130920, Note_on_c, 0, 74, 95
1, 130920, Note_on_c, 1, 58, 95
1, 130967, Note_on_c, 0, 74, 0
1, 130980, Note_on_c, 0, 75, 95
1, 131015, Note_on_c, 1, 58, 0
1, 131027, Note_on_c, 0, 75, 0
1, 131040, Note_on_c, 0, 77, 95
1, 131040, Note_on_c, 1, 50, 95
1, 131135, Note_on_c, 0, 77, 0
1, 131135, Note_on_c, 1, 50, 0
1, 131160, Note_on_c, 0, 77, 95
1, 131160, Note_on_c, 1, 58, 95
1, 131255, Note_on_c, 0, 77, 0
1, 131255, Note_on_c, 1, 58, 0
1, 131280, Note_on_c, 0, 77, 95
1, 131280, Note_on_c, 1, 56, 95
1, 131302, Note_on_c, 0, 77, 0
1, 131310, Note_on_c, 0, 79, 95
1, 131332, Note_on_c, 0, 79, 0
1, 131340, Note_on_c, 0, 77, 95
1, 131362, Note_on_c, 0, 77, 0
1, 131370, Note_on_c, 0, 79, 95
1, 131375, Note_on_c, 1, 56, 0
1, 131392, Note_on_c, 0, 79, 0
1, 131400, Note_on_c, 0, 75, 95
1, 131400, Note_on_c, 1, 58, 95
1, 131447, Note_on_c, 0, 75, 0
1, 131460, Note_on_c, 0, 77, 95
1, 131495, Note_on_c, 1, 58, 0
1, 131507, Note_on_c, 0, 77, 0
1, 131520, Note_on_c, 0, 79, 95
1, 131520, Note_on_c, 1, 51, 95
1, 131615, Note_on_c, 0, 79, 0
1, 131615, Note_on_c, 1, 51, 0
1, 131640, Note_on_c, 0, 79, 95
1, 131640, Note_on_c, 1, 58, 95
1, 131735, Note_on_c, 0, 79, 0
1, 131735, Note_on_c, 1, 58, 0
1, 131760, Note_on_c, 0, 79, 95
1, 131760, Note_on_c, 1, 55, 95
1, 131782, Note_on_c, 0, 79, 0
1, 131790, Note_on_c, 0, 80, 95
1, 131812, Note_on_c, 0, 80, 0
1, 131820, Note_on_c, 0, 79, 95
1, 131842, Note_on_c, 0, 79, 0
1, 131850, Note_on_c, 0, 80, 95
1, 131855, Note_on_c, 1, 55, 0
1, 131872, Note_on_c, 0, 80, 0
1, 131880, Note_on_c, 0, 77, 95
1, 131880, Note_on_c, 1, 58, 95
1, 131927, Note_on_c, 0, 77, 0
1, 131940, Note_on_c, 0, 79, 95
1, 131975, Note_on_c, 1, 58, 0
1, 131987, Note_on_c, 0, 79, 0
1, 132000, Note_on_c, 0, 80, 95
1, 132000, Note_on_c, 1, 53, 95
1, 132095, Note_on_c, 0, 80, 0
1, 132095, Note_on_c, 1, 53, 0
1, 132120, Note_on_c, 0, 62, 95
1, 132120, Note_on_c, 0, 80, 95
1, 132215, Note_on_c, 0, 80, 0
1, 132215, Note_on_c, 0, 62, 0
1, 132240, Note_on_c, 0, 80, 95
1, 132240, Note_on_c, 1, 58, 95
1, 132262, Note_on_c, 0, 80, 0
1, 132270, Note_on_c, 0, 82, 95
1, 132292, Note_on_c, 0, 82, 0
1, 132300, Note_on_c, 0, 80, 95
1, 132322, Note_on_c, 0, 80, 0
1, 132330, Note_on_c, 0, 82, 95
1, 132335, Note_on_c, 1, 58, 0
1, 132352, Note_on_c, 0, 82, 0
1, 132360, Note_on_c, 0, 79, 95
1, 132360, Note_on_c, 0, 62, 95
1, 132382, Note_on_c, 0, 79, 0
1, 132390, Note_on_c, 0, 80, 95
1, 132412, Note_on_c, 0, 80, 0
1, 132455, Note_on_c, 0, 62, 0
1, 132480, Note_on_c, 0, 63, 95
1, 132480, Note_on_c, 0, 82, 95
1, 132480, Note_on_c, 1, 58, 95
1, 132480, Note_on_c, 1, 55, 95
1, 132542, Note_on_c, 0, 82, 0
1, 132560, Note_on_c, 0, 84, 95
1, 132622, Note_on_c, 0, 84, 0
1, 132640, Note_on_c, 0, 86, 95
1, 132670, Note_on_c, 0, 63, 0
1, 132670, Note_on_c, 1, 55, 0
1, 132670, Note_on_c, 1, 58, 0
1, 132702, Note_on_c, 0, 86, 0
1, 132720, Note_on_c, 0, 87, 95
1, 132782, Note_on_c, 0, 87, 0
1, 132800, Note_on_c, 0, 86, 95
1, 132862, Note_on_c, 0, 86, 0
1, 132880, Note_on_c, 0, 84, 95
1, 132942, Note_on_c, 0, 84, 0
1, 132960, Note_on_c, 0, 82, 95
1, 133022, Note_on_c, 0, 82, 0
1, 133040, Note_on_c, 0, 80, 95
1, 133102, Note_on_c, 0, 80, 0
1, 133120, Note_on_c, 0, 79, 95
1, 133182, Note_on_c, 0, 79, 0
1, 133200, Note_on_c, 0, 77, 95
1, 133262, Note_on_c, 0, 77, 0
1, 133280, Note_on_c, 0, 75, 95
1, 133342, Note_on_c, 0, 75, 0
1, 133360, Note_on_c, 0, 74, 95
1, 133422, Note_on_c, 0, 74, 0
1, 133440, Note_on_c, 0, 72, 95
1, 133630, Note_on_c, 0, 72, 0
1, 133680, Note_on_c, 0, 84, 95
1, 133680, Note_on_c, 0, 80, 95
1, 133680, Note_on_c, 0, 75, 95
1, 133680, Note_on_c, 1, 56, 95
1, 133870, Note_on_c, 0, 75, 0
1, 133870, Note_on_c, 0, 80, 0
1, 133870, Note_on_c, 0, 84, 0
1, 133870, Note_on_c, 1, 56, 0
1, 133920, Note_on_c, 0, 82, 95
1, 133920, Note_on_c, 0, 79, 95
1, 133920, Note_on_c, 0, 75, 95
1, 133920, Note_on_c, 1, 58, 95
1, 134110, Note_on_c, 0, 75, 0
1, 134110, Note_on_c, 0, 79, 0
1, 134110, Note_on_c, 0, 82, 0
1, 134110, Note_on_c, 1, 58, 0
1, 134160, Note_on_c, 0, 74, 95
1, 134160, Note_on_c, 0, 68, 95
1, 134160, Note_on_c, 0, 65, 95
1, 134160, Note_on_c, 1, 46, 95
1, 134350, Note_on_c, 0, 65, 0
1, 134350, Note_on_c, 0, 68, 0
1, 134350, Note_on_c, 0, 74, 0
1, 134350, Note_on_c, 1, 46, 0
1, 134400, Note_on_c, 0, 75, 95
1, 134400, Note_on_c, 0, 67, 95
1, 134400, Note_on_c, 1, 51, 95
1, 134590, Note_on_c, 0, 67, 0
1, 134590, Note_on_c, 0, 75, 0
1, 134590, Note_on_c, 1, 51, 0
1, 134640, Note_on_c, 0, 82, 95
1, 134702, Note_on_c, 0, 82, 0
1, 134720, Note_on_c, 0, 80, 95
1, 134782, Note_on_c, 0, 80, 0
1, 134800, Note_on_c, 0, 79, 95
1, 134862, Note_on_c, 0, 79, 0
1, 134880, Note_on_c, 0, 77, 95
1, 134942, Note_on_c, 0, 77, 0
1, 134960, Note_on_c, 0, 75, 95
1, 135022, Note_on_c, 0, 75, 0
1, 135040, Note_on_c, 0, 74, 95
1, 135102, Note_on_c, 0, 74, 0
1, 135120, Note_on_c, 0, 67, 95
1, 135120, Note_on_c, 0, 75, 95
1, 135120, Note_on_c, 0, 63, 95
1, 135182, Note_on_c, 0, 75, 0
1, 135200, Note_on_c, 0, 73, 95
1, 135262, Note_on_c, 0, 73, 0
1, 135280, Note_on_c, 0, 71, 95
1, 135310, Note_on_c, 0, 63, 0
1, 135310, Note_on_c, 0, 67, 0
1, 135342, Note_on_c, 0, 71, 0
1, 135360, Note_on_c, 0, 72, 95
1, 135360, Note_on_c, 0, 68, 95
1, 135360, Note_on_c, 0, 63, 95
1, 135550, Note_on_c, 0, 63, 0
1, 135550, Note_on_c, 0, 68, 0
1, 135550, Note_on_c, 0, 72, 0
1, 135600, Note_on_c, 0, 84, 95
1, 135662, Note_on_c, 0, 84, 0
1, 135680, Note_on_c, 0, 82, 95
1, 135742, Note_on_c, 0, 82, 0
1, 135760, Note_on_c, 0, 80, 95
1, 135822, Note_on_c, 0, 80, 0
1, 135840, Note_on_c, 0, 79, 95
1, 135902, Note_on_c, 0, 79, 0
1, 135920, Note_on_c, 0, 77, 95
1, 135982, Note_on_c, 0, 77, 0
1, 136000, Note_on_c, 0, 75, 95
1, 136062, Note_on_c, 0, 75, 0
1, 136080, Note_on_c, 0, 68, 95
1, 136080, Note_on_c, 0, 74, 95
1, 136080, Note_on_c, 0, 63, 95
1, 136080, Note_on_c, 0, 65, 95
1, 136142, Note_on_c, 0, 74, 0
1, 136160, Note_on_c, 0, 80, 95
1, 136222, Note_on_c, 0, 80, 0
1, 136240, Note_on_c, 0, 77, 95
1, 136270, Note_on_c, 0, 65, 0
1, 136270, Note_on_c, 0, 68, 0
1, 136270, Note_on_c, 0, 63, 0
1, 136302, Note_on_c, 0, 77, 0
1, 136320, Note_on_c, 0, 63, 95
1, 136320, Note_on_c, 0, 75, 95
1, 136320, Note_on_c, 0, 67, 95
1, 136510, Note_on_c, 0, 67, 0
1, 136510, Note_on_c, 0, 75, 0
1, 136510, Note_on_c, 0, 63, 0
1, 136560, Note_on_c, 0, 70, 95
1, 136622, Note_on_c, 0, 70, 0
1, 136640, Note_on_c, 0, 68, 95
1, 136702, Note_on_c, 0, 68, 0
1, 136720, Note_on_c, 0, 67, 95
1, 136782, Note_on_c, 0, 67, 0
1, 136800, Note_on_c, 0, 65, 95
1, 136862, Note_on_c, 0, 65, 0
1, 136880, Note_on_c, 0, 63, 95
1, 136942, Note_on_c, 0, 63, 0
1, 136960, Note_on_c, 0, 62, 95
1, 137022, Note_on_c, 0, 62, 0
1, 137040, Note_on_c, 0, 63, 95
1, 137040, Note_on_c, 1, 51, 95
1, 137040, Note_on_c, 1, 55, 95
1, 137102, Note_on_c, 0, 63, 0
1, 137120, Note_on_c, 0, 61, 95
1, 137182, Note_on_c, 0, 61, 0
1, 137200, Note_on_c, 1, 59, 95
1, 137230, Note_on_c, 1, 55, 0
1, 137230, Note_on_c, 1, 51, 0
1, 137262, Note_on_c, 1, 59, 0
1, 137280, Note_on_c, 0, 60, 95
1, 137280, Note_on_c, 1, 51, 95
1, 137280, Note_on_c, 1, 56, 95
1, 137470, Note_on_c, 0, 60, 0
1, 137470, Note_on_c, 1, 56, 0
1, 137470, Note_on_c, 1, 51, 0
1, 137520, Note_on_c, 0, 72, 95
1, 137582, Note_on_c, 0, 72, 0
1, 137600, Note_on_c, 0, 70, 95
1, 137662, Note_on_c, 0, 70, 0
1, 137680, Note_on_c, 0, 68, 95
1, 137742, Note_on_c, 0, 68, 0
1, 137760, Note_on_c, 0, 67, 95
1, 137822, Note_on_c, 0, 67, 0
1, 137840, Note_on_c, 0, 65, 95
1, 137902, Note_on_c, 0, 65, 0
1, 137920, Note_on_c, 0, 63, 95
1, 137982, Note_on_c, 0, 63, 0
1, 138000, Note_on_c, 0, 62, 95
1, 138000, Note_on_c, 1, 51, 95
1, 138000, Note_on_c, 1, 53, 95
1, 138000, Note_on_c, 1, 56, 95
1, 138062, Note_on_c, 0, 62, 0
1, 138080, Note_on_c, 0, 68, 95
1, 138142, Note_on_c, 0, 68, 0
1, 138160, Note_on_c, 0, 65, 95
1, 138190, Note_on_c, 1, 56, 0
1, 138190, Note_on_c, 1, 53, 0
1, 138190, Note_on_c, 1, 51, 0
1, 138222, Note_on_c, 0, 65, 0
1, 138240, Note_on_c, 0, 63, 95
1, 138240, Note_on_c, 1, 51, 95
1, 138240, Note_on_c, 1, 55, 95
1, 138430, Note_on_c, 1, 55, 0
1, 138430, Note_on_c, 1, 51, 0
1, 138622, Note_on_c, 0, 63, 0
1, 138720, Note_on_c, 0, 67, 95
1, 138910, Note_on_c, 0, 67, 0
1, 138960, Note_on_c, 0, 70, 95
1, 139150, Note_on_c, 0, 70, 0
1, 139200, Note_on_c, 0, 75, 95
1, 139200, Note_on_c, 1, 39, 95
1, 139200, Note_on_c, 1, 51, 95
1, 139390, Note_on_c, 0, 75, 0
1, 139440, Note_on_c, 0, 79, 95
1, 139582, Note_on_c, 1, 51, 0
1, 139582, Note_on_c, 1, 39, 0
1, 139630, Note_on_c, 0, 79, 0
1, 139680, Note_on_c, 1, 55, 95
1, 139680, Note_on_c, 1, 43, 95
1, 139860, Note_on_c, 0, 79, 95
1, 139870, Note_on_c, 1, 43, 0
1, 139870, Note_on_c, 1, 55, 0
1, 139907, Note_on_c, 0, 79, 0
1, 139920, Note_on_c, 0, 79, 95
1, 139920, Note_on_c, 1, 46, 95
1, 139920, Note_on_c, 1, 58, 95
1, 139942, Note_on_c, 0, 79, 0
1, 139950, Note_on_c, 0, 80, 95
1, 139972, Note_on_c, 0, 80, 0
1, 139980, Note_on_c, 0, 79, 95
1, 140002, Note_on_c, 0, 79, 0
1, 140010, Note_on_c, 0, 80, 95
1, 140032, Note_on_c, 0, 80, 0
1, 140040, Note_on_c, 0, 77, 95
1, 140087, Note_on_c, 0, 77, 0
1, 140100, Note_on_c, 0, 79, 95
1, 140110, Note_on_c, 1, 58, 0
1, 140110, Note_on_c, 1, 46, 0
1, 140147, Note_on_c, 0, 79, 0
1, 140160, Note_on_c, 0, 63, 95
1, 140160, Note_on_c, 0, 82, 95
1, 140160, Note_on_c, 1, 51, 95
1, 140350, Note_on_c, 0, 82, 0
1, 140350, Note_on_c, 0, 63, 0
1, 140350, Note_on_c, 1, 51, 0
1, 140400, Note_on_c, 0, 67, 95
1, 140400, Note_on_c, 0, 75, 95
1, 140400, Note_on_c, 1, 55, 95
1, 140590, Note_on_c, 0, 75, 0
1, 140590, Note_on_c, 0, 67, 0
1, 140590, Note_on_c, 1, 55, 0
1, 140640, Note_on_c, 0, 75, 95
1, 140830, Note_on_c, 0, 75, 0
1, 140880, Note_on_c, 0, 75, 95
1, 141070, Note_on_c, 0, 75, 0
1, 141120, Note_on_c, 0, 65, 64
1, 141120, Note_on_c, 0, 62, 70
1, 141120, Note_on_c, 0, 80, 66
1, 141120, Note_on_c, 1, 55, 69
1, 141310, Note_on_c, 0, 80, 0
1, 141360, Note_on_c, 0, 71, 69
1, 141550, Note_on_c, 0, 71, 0
1, 141600, Note_on_c, 0, 71, 62
1, 141695, Note_on_c, 0, 62, 0
1, 141695, Note_on_c, 0, 65, 0
1, 141695, Note_on_c, 1, 55, 0
1, 141790, Note_on_c, 0, 71, 0
1, 142080, Note_on_c, 0, 60, 80
1, 142080, Note_on_c, 1, 36, 80
1, 142080, Note_on_c, 1, 48, 80
1, 142462, Note_on_c, 0, 60, 0
1, 142462, Note_on_c, 1, 48, 0
1, 142462, Note_on_c, 1, 36, 0
1, 142560, Note_on_c, 0, 64, 80
1, 142560, Note_on_c, 1, 40, 80
1, 142560, Note_on_c, 1, 52, 80
1, 142750, Note_on_c, 0, 64, 0
1, 142750, Note_on_c, 1, 52, 0
1, 142750, Note_on_c, 1, 40, 0
1, 142800, Note_on_c, 0, 67, 80
1, 142800, Note_on_c, 1, 43, 80
1, 142800, Note_on_c, 1, 55, 80
1, 142990, Note_on_c, 0, 67, 0
1, 142990, Note_on_c, 1, 55, 0
1, 142990, Note_on_c, 1, 43, 0
1, 143040, Note_on_c, 0, 60, 95
1, 143040, Note_on_c, 0, 72, 95
1, 143040, Note_on_c, 1, 48, 95
1, 143230, Note_on_c, 0, 72, 0
1, 143230, Note_on_c, 0, 60, 0
1, 143230, Note_on_c, 1, 48, 0
1, 143280, Note_on_c, 0, 76, 95
1, 143280, Note_on_c, 0, 64, 95
1, 143280, Note_on_c, 1, 52, 95
1, 143470, Note_on_c, 0, 64, 0
1, 143470, Note_on_c, 0, 76, 0
1, 143470, Note_on_c, 1, 52, 0
1, 143700, Note_on_c, 0, 79, 95
1, 143747, Note_on_c, 0, 79, 0
1, 143760, Note_on_c, 0, 79, 95
1, 143782, Note_on_c, 0, 79, 0
1, 143790, Note_on_c, 0, 80, 95
1, 143812, Note_on_c, 0, 80, 0
1, 143820, Note_on_c, 0, 79, 95
1, 143842, Note_on_c, 0, 79, 0
1, 143850, Note_on_c, 0, 80, 95
1, 143872, Note_on_c, 0, 80, 0
1, 143880, Note_on_c, 0, 77, 95
1, 143927, Note_on_c, 0, 77, 0
1, 143940, Note_on_c, 0, 79, 95
1, 143987, Note_on_c, 0, 79, 0
1, 144000, Note_on_c, 0, 82, 95
1, 144000, Note_on_c, 1, 46, 95
1, 144000, Note_on_c, 1, 34, 95
1, 144062, Note_on_c, 0, 82, 0
1, 144080, Note_on_c, 0, 84, 95
1, 144142, Note_on_c, 0, 84, 0
1, 144160, Note_on_c, 0, 85, 95
1, 144222, Note_on_c, 0, 85, 0
1, 144240, Note_on_c, 0, 84, 95
1, 144302, Note_on_c, 0, 84, 0
1, 144320, Note_on_c, 0, 82, 95
1, 144382, Note_on_c, 0, 82, 0
1, 144382, Note_on_c, 1, 34, 0
1, 144382, Note_on_c, 1, 46, 0
1, 144400, Note_on_c, 0, 80, 95
1, 144462, Note_on_c, 0, 80, 0
1, 144480, Note_on_c, 0, 79, 95
1, 144480, Note_on_c, 1, 40, 95
1, 144480, Note_on_c, 1, 52, 95
1, 144542, Note_on_c, 0, 79, 0
1, 144560, Note_on_c, 0, 80, 95
1, 144622, Note_on_c, 0, 80, 0
1, 144640, Note_on_c, 0, 82, 95
1, 144670, Note_on_c, 1, 52, 0
1, 144670, Note_on_c, 1, 40, 0
1, 144702, Note_on_c, 0, 82, 0
1, 144720, Note_on_c, 0, 80, 95
1, 144720, Note_on_c, 1, 43, 95
1, 144720, Note_on_c, 1, 55, 95
1, 144782, Note_on_c, 0, 80, 0
1, 144800, Note_on_c, 0, 79, 95
1, 144862, Note_on_c, 0, 79, 0
1, 144880, Note_on_c, 0, 77, 95
1, 144910, Note_on_c, 1, 55, 0
1, 144910, Note_on_c, 1, 43, 0
1, 144942, Note_on_c, 0, 77, 0
1, 144960, Note_on_c, 0, 76, 95
1, 144960, Note_on_c, 1, 58, 95
1, 144960, Note_on_c, 1, 46, 95
1, 145022, Note_on_c, 0, 76, 0
1, 145040, Note_on_c, 0, 79, 95
1, 145102, Note_on_c, 0, 79, 0
1, 145120, Note_on_c, 0, 76, 95
1, 145150, Note_on_c, 1, 46, 0
1, 145150, Note_on_c, 1, 58, 0
1, 145182, Note_on_c, 0, 76, 0
1, 145200, Note_on_c, 0, 61, 95
1, 145200, Note_on_c, 0, 73, 95
1, 145200, Note_on_c, 1, 49, 95
1, 145262, Note_on_c, 0, 73, 0
1, 145280, Note_on_c, 0, 76, 95
1, 145342, Note_on_c, 0, 76, 0
1, 145360, Note_on_c, 0, 73, 95
1, 145390, Note_on_c, 0, 61, 0
1, 145390, Note_on_c, 1, 49, 0
1, 145422, Note_on_c, 0, 73, 0
1, 145440, Note_on_c, 0, 70, 84
1, 145502, Note_on_c, 0, 70, 0
1, 145520, Note_on_c, 0, 73, 83
1, 145582, Note_on_c, 0, 73, 0
1, 145600, Note_on_c, 0, 70, 84
1, 145662, Note_on_c, 0, 70, 0
1, 145680, Note_on_c, 0, 67, 75
1, 145742, Note_on_c, 0, 67, 0
1, 145760, Note_on_c, 0, 70, 73
1, 145822, Note_on_c, 0, 70, 0
1, 145840, Note_on_c, 0, 67, 75
1, 145902, Note_on_c, 0, 67, 0
1, 145920, Note_on_c, 0, 68, 65
1, 145920, Note_on_c, 1, 53, 65
1, 146015, Note_on_c, 1, 53, 0
1, 146040, Note_on_c, 0, 60, 65
1, 146135, Note_on_c, 0, 60, 0
1, 146160, Note_on_c, 1, 56, 65
1, 146207, Note_on_c, 0, 68, 0
1, 146255, Note_on_c, 1, 56, 0
1, 146280, Note_on_c, 0, 70, 65
1, 146280, Note_on_c, 0, 60, 65
1, 146302, Note_on_c, 0, 70, 0
1, 146310, Note_on_c, 0, 68, 65
1, 146332, Note_on_c, 0, 68, 0
1, 146340, Note_on_c, 0, 67, 65
1, 146362, Note_on_c, 0, 67, 0
1, 146370, Note_on_c, 0, 68, 65
1, 146375, Note_on_c, 0, 60, 0
1, 146392, Note_on_c, 0, 68, 0
1, 146400, Note_on_c, 0, 70, 65
1, 146400, Note_on_c, 1, 55, 65
1, 146495, Note_on_c, 1, 55, 0
1, 146520, Note_on_c, 0, 60, 65
1, 146590, Note_on_c, 0, 70, 0
1, 146615, Note_on_c, 0, 60, 0
1, 146640, Note_on_c, 0, 64, 65
1, 146640, Note_on_c, 1, 58, 65
1, 146735, Note_on_c, 1, 58, 0
1, 146760, Note_on_c, 0, 60, 65
1, 146830, Note_on_c, 0, 64, 0
1, 146855, Note_on_c, 0, 60, 0
1, 146880, Note_on_c, 0, 65, 65
1, 146880, Note_on_c, 1, 56, 65
1, 146975, Note_on_c, 0, 65, 0
1, 146975, Note_on_c, 1, 56, 0
1, 147000, Note_on_c, 0, 60, 65
1, 147000, Note_on_c, 0, 68, 65
1, 147095, Note_on_c, 0, 68, 0
1, 147095, Note_on_c, 0, 60, 0
1, 147120, Note_on_c, 0, 72, 65
1, 147120, Note_on_c, 1, 53, 65
1, 147215, Note_on_c, 1, 53, 0
1, 147240, Note_on_c, 0, 60, 65
1, 147335, Note_on_c, 0, 60, 0
1, 147360, Note_on_c, 1, 52, 65
1, 147407, Note_on_c, 0, 72, 0
1, 147455, Note_on_c, 1, 52, 0
1, 147480, Note_on_c, 0, 71, 65
1, 147480, Note_on_c, 0, 60, 65
1, 147575, Note_on_c, 0, 60, 0
1, 147575, Note_on_c, 0, 71, 0
1, 147600, Note_on_c, 0, 70, 65
1, 147600, Note_on_c, 1, 48, 65
1, 147695, Note_on_c, 0, 70, 0
1, 147695, Note_on_c, 1, 48, 0
1, 147720, Note_on_c, 0, 60, 65
1, 147720, Note_on_c, 0, 67, 65
1, 147815, Note_on_c, 0, 67, 0
1, 147815, Note_on_c, 0, 60, 0
1, 147840, Note_on_c, 0, 68, 65
1, 147840, Note_on_c, 1, 53, 65
1, 147935, Note_on_c, 1, 53, 0
1, 147960, Note_on_c, 0, 60, 65
1, 148055, Note_on_c, 0, 60, 0
1, 148080, Note_on_c, 1, 56, 65
1, 148127, Note_on_c, 0, 68, 0
1, 148175, Note_on_c, 1, 56, 0
1, 148200, Note_on_c, 0, 70, 65
1, 148200, Note_on_c, 0, 60, 65
1, 148227, Note_on_c, 0, 70, 0
1, 148230, Note_on_c, 0, 68, 65
1, 148257, Note_on_c, 0, 68, 0
1, 148260, Note_on_c, 0, 67, 65
1, 148287, Note_on_c, 0, 67, 0
1, 148290, Note_on_c, 0, 68, 65
1, 148295, Note_on_c, 0, 60, 0
1, 148317, Note_on_c, 0, 68, 0
1, 148320, Note_on_c, 0, 70, 65
1, 148320, Note_on_c, 1, 55, 65
1, 148415, Note_on_c, 1, 55, 0
1, 148440, Note_on_c, 0, 60, 65
1, 148510, Note_on_c, 0, 70, 0
1, 148535, Note_on_c, 0, 60, 0
1, 148560, Note_on_c, 0, 64, 65
1, 148560, Note_on_c, 1, 58, 65
1, 148655, Note_on_c, 1, 58, 0
1, 148680, Note_on_c, 0, 60, 65
1, 148750, Note_on_c, 0, 64, 0
1, 148775, Note_on_c, 0, 60, 0
1, 148800, Note_on_c, 0, 65, 65
1, 148800, Note_on_c, 1, 56, 65
1, 148895, Note_on_c, 0, 65, 0
1, 148895, Note_on_c, 1, 56, 0
1, 148920, Note_on_c, 0, 60, 65
1, 148920, Note_on_c, 0, 77, 65
1, 149015, Note_on_c, 0, 77, 0
1, 149015, Note_on_c, 0, 60, 0
1, 149040, Note_on_c, 0, 75, 65
1, 149040, Note_on_c, 1, 53, 65
1, 149135, Note_on_c, 0, 75, 0
1, 149135, Note_on_c, 1, 53, 0
1, 149160, Note_on_c, 0, 60, 65
1, 149160, Note_on_c, 0, 73, 65
1, 149255, Note_on_c, 0, 73, 0
1, 149255, Note_on_c, 0, 60, 0
1, 149280, Note_on_c, 0, 72, 76
1, 149280, Note_on_c, 1, 52, 75
1, 149375, Note_on_c, 0, 72, 0
1, 149375, Note_on_c, 1, 52, 0
1, 149400, Note_on_c, 0, 60, 75
1, 149400, Note_on_c, 0, 71, 76
1, 149495, Note_on_c, 0, 71, 0
1, 149495, Note_on_c, 0, 60, 0
1, 149520, Note_on_c, 0, 70, 85
1, 149520, Note_on_c, 1, 48, 85
1, 149615, Note_on_c, 0, 70, 0
1, 149615, Note_on_c, 1, 48, 0
1, 149640, Note_on_c, 0, 60, 85
1, 149640, Note_on_c, 0, 67, 86
1, 149735, Note_on_c, 0, 67, 0
1, 149735, Note_on_c, 0, 60, 0
1, 149760, Note_on_c, 0, 68, 95
1, 149760, Note_on_c, 1, 53, 95
1, 149822, Note_on_c, 1, 53, 0
1, 149840, Note_on_c, 1, 56, 95
1, 149902, Note_on_c, 1, 56, 0
1, 149920, Note_on_c, 0, 60, 95
1, 149982, Note_on_c, 0, 60, 0
1, 150000, Note_on_c, 1, 58, 95
1, 150062, Note_on_c, 1, 58, 0
1, 150080, Note_on_c, 1, 56, 95
1, 150142, Note_on_c, 0, 68, 0
1, 150142, Note_on_c, 1, 56, 0
1, 150160, Note_on_c, 1, 55, 95
1, 150222, Note_on_c, 1, 55, 0
1, 150240, Note_on_c, 0, 72, 95
1, 150240, Note_on_c, 1, 53, 95
1, 150302, Note_on_c, 1, 53, 0
1, 150320, Note_on_c, 1, 56, 95
1, 150382, Note_on_c, 1, 56, 0
1, 150400, Note_on_c, 0, 60, 95
1, 150430, Note_on_c, 0, 72, 0
1, 150462, Note_on_c, 0, 60, 0
1, 150480, Note_on_c, 0, 77, 95
1, 150480, Note_on_c, 1, 58, 95
1, 150542, Note_on_c, 1, 58, 0
1, 150560, Note_on_c, 1, 56, 95
1, 150622, Note_on_c, 1, 56, 0
1, 150640, Note_on_c, 1, 55, 95
1, 150670, Note_on_c, 0, 77, 0
1, 150702, Note_on_c, 1, 55, 0
1, 150720, Note_on_c, 0, 80, 95
1, 150720, Note_on_c, 1, 53, 95
1, 150782, Note_on_c, 1, 53, 0
1, 150800, Note_on_c, 1, 56, 95
1, 150862, Note_on_c, 1, 56, 0
1, 150880, Note_on_c, 0, 60, 95
1, 150910, Note_on_c, 0, 80, 0
1, 150942, Note_on_c, 0, 60, 0
1, 150960, Note_on_c, 0, 84, 95
1, 150960, Note_on_c, 1, 58, 95
1, 151022, Note_on_c, 1, 58, 0
1, 151040, Note_on_c, 1, 56, 95
1, 151102, Note_on_c, 1, 56, 0
1, 151120, Note_on_c, 1, 55, 95
1, 151150, Note_on_c, 0, 84, 0
1, 151182, Note_on_c, 1, 55, 0
1, 151200, Note_on_c, 1, 53, 95
1, 151262, Note_on_c, 1, 53, 0
1, 151280, Note_on_c, 1, 55, 95
1, 151342, Note_on_c, 1, 55, 0
1, 151360, Note_on_c, 1, 53, 95
1, 151422, Note_on_c, 1, 53, 0
1, 151440, Note_on_c, 1, 51, 95
1, 151502, Note_on_c, 1, 51, 0
1, 151520, Note_on_c, 1, 53, 95
1, 151582, Note_on_c, 1, 53, 0
1, 151600, Note_on_c, 1, 51, 95
1, 151662, Note_on_c, 1, 51, 0
1, 151680, Note_on_c, 0, 84, 95
1, 151680, Note_on_c, 1, 50, 95
1, 151680, Note_on_c, 1, 38, 95
1, 151742, Note_on_c, 0, 84, 0
1, 151760, Note_on_c, 0, 86, 95
1, 151822, Note_on_c, 0, 86, 0
1, 151840, Note_on_c, 0, 87, 95
1, 151902, Note_on_c, 0, 87, 0
1, 151920, Note_on_c, 0, 86, 95
1, 151982, Note_on_c, 0, 86, 0
1, 152000, Note_on_c, 0, 84, 95
1, 152062, Note_on_c, 0, 84, 0
1, 152062, Note_on_c, 1, 38, 0
1, 152062, Note_on_c, 1, 50, 0
1, 152080, Note_on_c, 0, 82, 95
1, 152142, Note_on_c, 0, 82, 0
1, 152160, Note_on_c, 0, 81, 95
1, 152160, Note_on_c, 1, 42, 95
1, 152160, Note_on_c, 1, 54, 95
1, 152222, Note_on_c, 0, 81, 0
1, 152240, Note_on_c, 0, 82, 95
1, 152302, Note_on_c, 0, 82, 0
1, 152320, Note_on_c, 0, 84, 95
1, 152350, Note_on_c, 1, 54, 0
1, 152350, Note_on_c, 1, 42, 0
1, 152382, Note_on_c, 0, 84, 0
1, 152400, Note_on_c, 0, 82, 95
1, 152400, Note_on_c, 1, 45, 95
1, 152400, Note_on_c, 1, 57, 95
1, 152462, Note_on_c, 0, 82, 0
1, 152480, Note_on_c, 0, 81, 95
1, 152542, Note_on_c, 0, 81, 0
1, 152560, Note_on_c, 0, 79, 95
1, 152590, Note_on_c, 1, 57, 0
1, 152590, Note_on_c, 1, 45, 0
1, 152622, Note_on_c, 0, 79, 0
1, 152640, Note_on_c, 0, 62, 95
1, 152640, Note_on_c, 0, 78, 95
1, 152640, Note_on_c, 1, 50, 95
1, 152702, Note_on_c, 0, 78, 0
1, 152720, Note_on_c, 0, 81, 95
1, 152782, Note_on_c, 0, 81, 0
1, 152800, Note_on_c, 0, 78, 95
1, 152830, Note_on_c, 0, 62, 0
1, 152830, Note_on_c, 1, 50, 0
1, 152862, Note_on_c, 0, 78, 0
1, 152880, Note_on_c, 0, 66, 95
1, 152880, Note_on_c, 0, 75, 95
1, 152880, Note_on_c, 1, 54, 95
1, 152942, Note_on_c, 0, 75, 0
1, 152960, Note_on_c, 0, 81, 95
1, 153022, Note_on_c, 0, 81, 0
1, 153040, Note_on_c, 0, 75, 95
1, 153070, Note_on_c, 0, 66, 0
1, 153070, Note_on_c, 1, 54, 0
1, 153102, Note_on_c, 0, 75, 0
1, 153120, Note_on_c, 0, 74, 95
1, 153182, Note_on_c, 0, 74, 0
1, 153200, Note_on_c, 0, 81, 95
1, 153262, Note_on_c, 0, 81, 0
1, 153280, Note_on_c, 0, 74, 95
1, 153342, Note_on_c, 0, 74, 0
1, 153360, Note_on_c, 0, 72, 95
1, 153422, Note_on_c, 0, 72, 0
1, 153440, Note_on_c, 0, 81, 95
1, 153502, Note_on_c, 0, 81, 0
1, 153520, Note_on_c, 0, 72, 95
1, 153582, Note_on_c, 0, 72, 0
1, 153600, Note_on_c, 0, 70, 95
1, 153600, Note_on_c, 1, 55, 95
1, 153662, Note_on_c, 1, 55, 0
1, 153680, Note_on_c, 1, 58, 95
1, 153742, Note_on_c, 1, 58, 0
1, 153760, Note_on_c, 0, 62, 95
1, 153822, Note_on_c, 0, 62, 0
1, 153840, Note_on_c, 0, 60, 95
1, 153902, Note_on_c, 0, 60, 0
1, 153920, Note_on_c, 1, 58, 95
1, 153982, Note_on_c, 0, 70, 0
1, 153982, Note_on_c, 1, 58, 0
1, 154000, Note_on_c, 1, 57, 95
1, 154062, Note_on_c, 1, 57, 0
1, 154080, Note_on_c, 0, 74, 95
1, 154080, Note_on_c, 1, 55, 95
1, 154142, Note_on_c, 1, 55, 0
1, 154160, Note_on_c, 1, 58, 95
1, 154222, Note_on_c, 1, 58, 0
1, 154240, Note_on_c, 0, 62, 95
1, 154270, Note_on_c, 0, 74, 0
1, 154302, Note_on_c, 0, 62, 0
1, 154320, Note_on_c, 0, 77, 95
1, 154320, Note_on_c, 0, 60, 95
1, 154382, Note_on_c, 0, 60, 0
1, 154400, Note_on_c, 1, 58, 95
1, 154462, Note_on_c, 1, 58, 0
1, 154480, Note_on_c, 1, 57, 95
1, 154510, Note_on_c, 0, 77, 0
1, 154542, Note_on_c, 1, 57, 0
1, 154560, Note_on_c, 0, 82, 95
1, 154560, Note_on_c, 1, 55, 95
1, 154622, Note_on_c, 1, 55, 0
1, 154640, Note_on_c, 1, 58, 95
1, 154702, Note_on_c, 1, 58, 0
1, 154720, Note_on_c, 0, 62, 95
1, 154750, Note_on_c, 0, 82, 0
1, 154782, Note_on_c, 0, 62, 0
1, 154800, Note_on_c, 0, 86, 95
1, 154800, Note_on_c, 0, 60, 95
1, 154862, Note_on_c, 0, 60, 0
1, 154880, Note_on_c, 1, 58, 95
1, 154942, Note_on_c, 1, 58, 0
1, 154960, Note_on_c, 1, 57, 95
1, 154990, Note_on_c, 0, 86, 0
1, 155022, Note_on_c, 1, 57, 0
1, 155040, Note_on_c, 1, 55, 95
1, 155102, Note_on_c, 1, 55, 0
1, 155120, Note_on_c, 1, 58, 95
1, 155182, Note_on_c, 1, 58, 0
1, 155200, Note_on_c, 0, 62, 95
1, 155262, Note_on_c, 0, 62, 0
1, 155280, Note_on_c, 1, 55, 95
1, 155342, Note_on_c, 1, 55, 0
1, 155360, Note_on_c, 1, 58, 95
1, 155422, Note_on_c, 1, 58, 0
1, 155440, Note_on_c, 0, 62, 95
1, 155502, Note_on_c, 0, 62, 0
1, 155520, Note_on_c, 0, 71, 95
1, 155520, Note_on_c, 1, 53, 95
1, 155582, Note_on_c, 1, 53, 0
1, 155600, Note_on_c, 1, 59, 95
1, 155662, Note_on_c, 1, 59, 0
1, 155680, Note_on_c, 0, 62, 95
1, 155742, Note_on_c, 0, 62, 0
1, 155760, Note_on_c, 1, 55, 95
1, 155822, Note_on_c, 1, 55, 0
1, 155840, Note_on_c, 1, 59, 95
1, 155902, Note_on_c, 0, 71, 0
1, 155902, Note_on_c, 1, 59, 0
1, 155920, Note_on_c, 0, 62, 95
1, 155982, Note_on_c, 0, 62, 0
1, 156000, Note_on_c, 0, 74, 95
1, 156000, Note_on_c, 1, 56, 95
1, 156062, Note_on_c, 1, 56, 0
1, 156080, Note_on_c, 1, 59, 95
1, 156142, Note_on_c, 1, 59, 0
1, 156160, Note_on_c, 0, 62, 95
1, 156190, Note_on_c, 0, 74, 0
1, 156222, Note_on_c, 0, 62, 0
1, 156240, Note_on_c, 0, 77, 95
1, 156240, Note_on_c, 1, 55, 95
1, 156302, Note_on_c, 1, 55, 0
1, 156320, Note_on_c, 1, 59, 95
1, 156382, Note_on_c, 1, 59, 0
1, 156400, Note_on_c, 0, 62, 95
1, 156430, Note_on_c, 0, 77, 0
1, 156462, Note_on_c, 0, 62, 0
1, 156480, Note_on_c, 0, 83, 95
1, 156480, Note_on_c, 1, 53, 95
1, 156542, Note_on_c, 1, 53, 0
1, 156560, Note_on_c, 1, 59, 95
1, 156622, Note_on_c, 1, 59, 0
1, 156640, Note_on_c, 0, 62, 95
1, 156670, Note_on_c, 0, 83, 0
1, 156702, Note_on_c, 0, 62, 0
1, 156720, Note_on_c, 0, 86, 95
1, 156720, Note_on_c, 1, 55, 95
1, 156782, Note_on_c, 1, 55, 0
1, 156800, Note_on_c, 1, 59, 95
1, 156862, Note_on_c, 1, 59, 0
1, 156880, Note_on_c, 0, 62, 95
1, 156910, Note_on_c, 0, 86, 0
1, 156942, Note_on_c, 0, 62, 0
1, 156960, Note_on_c, 1, 56, 95
1, 157022, Note_on_c, 1, 56, 0
1, 157040, Note_on_c, 1, 59, 95
1, 157102, Note_on_c, 1, 59, 0
1, 157120, Note_on_c, 0, 62, 95
1, 157182, Note_on_c, 0, 62, 0
1, 157200, Note_on_c, 1, 53, 95
1, 157262, Note_on_c, 1, 53, 0
1, 157280, Note_on_c, 1, 59, 95
1, 157342, Note_on_c, 1, 59, 0
1, 157360, Note_on_c, 0, 62, 95
1, 157422, Note_on_c, 0, 62, 0
1, 157440, Note_on_c, 0, 72, 95
1, 157440, Note_on_c, 1, 51, 95
1, 157502, Note_on_c, 1, 51, 0
1, 157520, Note_on_c, 1, 55, 95
1, 157582, Note_on_c, 1, 55, 0
1, 157600, Note_on_c, 0, 60, 95
1, 157662, Note_on_c, 0, 60, 0
1, 157680, Note_on_c, 1, 53, 95
1, 157742, Note_on_c, 1, 53, 0
1, 157760, Note_on_c, 1, 56, 95
1, 157822, Note_on_c, 0, 72, 0
1, 157822, Note_on_c, 1, 56, 0
1, 157840, Note_on_c, 0, 60, 95
1, 157902, Note_on_c, 0, 60, 0
1, 157920, Note_on_c, 0, 75, 95
1, 157920, Note_on_c, 1, 51, 95
1, 157982, Note_on_c, 1, 51, 0
1, 158000, Note_on_c, 1, 55, 95
1, 158062, Note_on_c, 1, 55, 0
1, 158080, Note_on_c, 0, 60, 95
1, 158110, Note_on_c, 0, 75, 0
1, 158142, Note_on_c, 0, 60, 0
1, 158160, Note_on_c, 0, 79, 95
1, 158160, Note_on_c, 1, 50, 95
1, 158222, Note_on_c, 1, 50, 0
1, 158240, Note_on_c, 1, 53, 95
1, 158302, Note_on_c, 1, 53, 0
1, 158320, Note_on_c, 0, 60, 95
1, 158350, Note_on_c, 0, 79, 0
1, 158382, Note_on_c, 0, 60, 0
1, 158400, Note_on_c, 0, 84, 95
1, 158400, Note_on_c, 1, 51, 95
1, 158462, Note_on_c, 1, 51, 0
1, 158480, Note_on_c, 1, 55, 95
1, 158542, Note_on_c, 1, 55, 0
1, 158560, Note_on_c, 0, 60, 95
1, 158590, Note_on_c, 0, 84, 0
1, 158622, Note_on_c, 0, 60, 0
1, 158640, Note_on_c, 0, 87, 95
1, 158640, Note_on_c, 1, 50, 95
1, 158702, Note_on_c, 1, 50, 0
1, 158720, Note_on_c, 1, 53, 95
1, 158782, Note_on_c, 1, 53, 0
1, 158800, Note_on_c, 0, 60, 95
1, 158830, Note_on_c, 0, 87, 0
1, 158862, Note_on_c, 0, 60, 0
1, 158880, Note_on_c, 1, 51, 95
1, 158942, Note_on_c, 1, 51, 0
1, 158960, Note_on_c, 1, 55, 95
1, 159022, Note_on_c, 1, 55, 0
1, 159040, Note_on_c, 0, 60, 95
1, 159102, Note_on_c, 0, 60, 0
1, 159120, Note_on_c, 1, 48, 95
1, 159182, Note_on_c, 1, 48, 0
1, 159200, Note_on_c, 1, 51, 95
1, 159262, Note_on_c, 1, 51, 0
1, 159280, Note_on_c, 1, 55, 95
1, 159342, Note_on_c, 1, 55, 0
1, 159360, Note_on_c, 0, 74, 95
1, 159360, Note_on_c, 0, 62, 95
1, 159360, Note_on_c, 1, 47, 95
1, 159422, Note_on_c, 1, 47, 0
1, 159440, Note_on_c, 1, 50, 95
1, 159502, Note_on_c, 1, 50, 0
1, 159520, Note_on_c, 1, 55, 95
1, 159582, Note_on_c, 1, 55, 0
1, 159600, Note_on_c, 1, 48, 95
1, 159662, Note_on_c, 1, 48, 0
1, 159680, Note_on_c, 1, 50, 95
1, 159742, Note_on_c, 0, 62, 0
1, 159742, Note_on_c, 0, 74, 0
1, 159742, Note_on_c, 1, 50, 0
1, 159760, Note_on_c, 1, 55, 95
1, 159822, Note_on_c, 1, 55, 0
1, 159840, Note_on_c, 0, 65, 95
1, 159840, Note_on_c, 0, 77, 95
1, 159840, Note_on_c, 1, 47, 95
1, 159902, Note_on_c, 1, 47, 0
1, 159920, Note_on_c, 1, 50, 95
1, 159982, Note_on_c, 1, 50, 0
1, 160000, Note_on_c, 1, 55, 95
1, 160030, Note_on_c, 0, 77, 0
1, 160030, Note_on_c, 0, 65, 0
1, 160062, Note_on_c, 1, 55, 0
1, 160080, Note_on_c, 0, 79, 95
1, 160080, Note_on_c, 0, 67, 95
1, 160080, Note_on_c, 1, 45, 95
1, 160142, Note_on_c, 1, 45, 0
1, 160160, Note_on_c, 1, 50, 95
1, 160222, Note_on_c, 1, 50, 0
1, 160240, Note_on_c, 1, 55, 95
1, 160270, Note_on_c, 0, 67, 0
1, 160270, Note_on_c, 0, 79, 0
1, 160302, Note_on_c, 1, 55, 0
1, 160320, Note_on_c, 0, 86, 95
1, 160320, Note_on_c, 0, 74, 95
1, 160320, Note_on_c, 1, 47, 95
1, 160382, Note_on_c, 1, 47, 0
1, 160400, Note_on_c, 1, 50, 95
1, 160462, Note_on_c, 1, 50, 0
1, 160480, Note_on_c, 1, 55, 95
1, 160510, Note_on_c, 0, 74, 0
1, 160510, Note_on_c, 0, 86, 0
1, 160542, Note_on_c, 1, 55, 0
1, 160560, Note_on_c, 0, 77, 95
1, 160560, Note_on_c, 0, 89, 95
1, 160560, Note_on_c, 1, 43, 95
1, 160750, Note_on_c, 0, 89, 0
1, 160750, Note_on_c, 0, 77, 0
1, 160750, Note_on_c, 1, 43, 0
1, 161280, Note_on_c, 0, 77, 65
1, 161470, Note_on_c, 0, 77, 0
1, 161520, Note_on_c, 0, 80, 65
1, 161710, Note_on_c, 0, 80, 0
1, 161760, Note_on_c, 0, 62, 65
1, 161760, Note_on_c, 0, 71, 65
1, 162142, Note_on_c, 0, 71, 0
1, 162142, Note_on_c, 0, 62, 0
1, 162240, Note_on_c, 0, 74, 65
1, 162430, Note_on_c, 0, 74, 0
1, 162480, Note_on_c, 0, 77, 65
1, 162670, Note_on_c, 0, 77, 0
1, 162720, Note_on_c, 0, 68, 65
1, 162720, Note_on_c, 1, 59, 65
1, 163102, Note_on_c, 0, 68, 0
1, 163102, Note_on_c, 1, 59, 0
1, 163200, Note_on_c, 0, 71, 65
1, 163390, Note_on_c, 0, 71, 0
1, 163440, Note_on_c, 0, 74, 65
1, 163630, Note_on_c, 0, 74, 0
1, 163680, Note_on_c, 0, 62, 65
1, 163870, Note_on_c, 0, 62, 0
1, 163920, Note_on_c, 0, 65, 65
1, 164110, Note_on_c, 0, 65, 0
1, 164160, Note_on_c, 1, 56, 50
1, 164160, Note_on_c, 1, 34, 50
1, 164160, Note_on_c, 1, 46, 50
1, 164160, Note_on_c, 1, 50, 50
1, 164160, Note_on_c, 1, 53, 50
1, 164927, Note_on_c, 1, 56, 0
1, 165120, Note_on_c, 1, 55, 50
1, 165310, Note_on_c, 1, 55, 0
1, 165310, Note_on_c, 1, 53, 0
1, 165310, Note_on_c, 1, 34, 0
1, 165310, Note_on_c, 1, 46, 0
1, 165310, Note_on_c, 1, 50, 0
1, 166080, Note_on_c, 0, 60, 95
1, 166080, Note_on_c, 1, 36, 95
1, 166080, Note_on_c, 1, 48, 95
1, 166462, Note_on_c, 0, 60, 0
1, 166462, Note_on_c, 1, 48, 0
1, 166462, Note_on_c, 1, 36, 0
1, 166560, Note_on_c, 0, 63, 95
1, 166560, Note_on_c, 1, 39, 95
1, 166560, Note_on_c, 1, 51, 95
1, 166750, Note_on_c, 0, 63, 0
1, 166750, Note_on_c, 1, 51, 0
1, 166750, Note_on_c, 1, 39, 0
1, 166800, Note_on_c, 0, 67, 95
1, 166800, Note_on_c, 1, 43, 95
1, 166800, Note_on_c, 1, 55, 95
1, 166990, Note_on_c, 0, 67, 0
1, 166990, Note_on_c, 1, 55, 0
1, 166990, Note_on_c, 1, 43, 0
1, 167040, Note_on_c, 0, 72, 95
1, 167040, Note_on_c, 0, 60, 95
1, 167040, Note_on_c, 1, 48, 95
1, 167230, Note_on_c, 0, 60, 0
1, 167230, Note_on_c, 0, 72, 0
1, 167230, Note_on_c, 1, 48, 0
1, 167280, Note_on_c, 0, 63, 95
1, 167280, Note_on_c, 0, 75, 95
1, 167280, Note_on_c, 1, 51, 95
1, 167470, Note_on_c, 0, 75, 0
1, 167470, Note_on_c, 0, 63, 0
1, 167470, Note_on_c, 1, 51, 0
1, 167700, Note_on_c, 0, 75, 65
1, 167747, Note_on_c, 0, 75, 0
1, 167760, Note_on_c, 0, 75, 64
1, 167782, Note_on_c, 0, 75, 0
1, 167790, Note_on_c, 0, 77, 65
1, 167812, Note_on_c, 0, 77, 0
1, 167820, Note_on_c, 0, 75, 64
1, 167842, Note_on_c, 0, 75, 0
1, 167850, Note_on_c, 0, 77, 63
1, 167872, Note_on_c, 0, 77, 0
1, 167880, Note_on_c, 0, 74, 66
1, 167927, Note_on_c, 0, 74, 0
1, 167940, Note_on_c, 0, 75, 64
1, 167987, Note_on_c, 0, 75, 0
1, 168000, Note_on_c, 0, 79, 65
1, 168190, Note_on_c, 0, 79, 0
1, 168240, Note_on_c, 0, 63, 65
1, 168240, Note_on_c, 0, 67, 65
1, 168240, Note_on_c, 0, 72, 65
1, 168430, Note_on_c, 0, 72, 0
1, 168430, Note_on_c, 0, 67, 0
1, 168430, Note_on_c, 0, 63, 0
1, 168480, Note_on_c, 0, 63, 65
1, 168480, Note_on_c, 0, 67, 65
1, 168480, Note_on_c, 0, 72, 65
1, 168670, Note_on_c, 0, 72, 0
1, 168670, Note_on_c, 0, 67, 0
1, 168670, Note_on_c, 0, 63, 0
1, 168720, Note_on_c, 0, 63, 65
1, 168720, Note_on_c, 0, 67, 65
1, 168720, Note_on_c, 0, 72, 65
1, 168910, Note_on_c, 0, 72, 0
1, 168910, Note_on_c, 0, 67, 0
1, 168910, Note_on_c, 0, 63, 0
1, 168960, Note_on_c, 0, 80, 65
1, 169150, Note_on_c, 0, 80, 0
1, 169200, Note_on_c, 0, 62, 65
1, 169200, Note_on_c, 0, 71, 65
1, 169200, Note_on_c, 0, 68, 65
1, 169200, Note_on_c, 0, 65, 65
1, 169390, Note_on_c, 0, 65, 0
1, 169390, Note_on_c, 0, 62, 0
1, 169390, Note_on_c, 0, 71, 0
1, 169390, Note_on_c, 0, 68, 0
1, 169440, Note_on_c, 0, 62, 65
1, 169440, Note_on_c, 0, 71, 65
1, 169440, Note_on_c, 0, 68, 65
1, 169440, Note_on_c, 0, 65, 65
1, 169630, Note_on_c, 0, 65, 0
1, 169630, Note_on_c, 0, 62, 0
1, 169630, Note_on_c, 0, 71, 0
1, 169630, Note_on_c, 0, 68, 0
1, 169920, Note_on_c, 1, 31, 95
1, 169920, Note_on_c, 1, 43, 95
1, 169920, Note_on_c, 1, 55, 95
1, 170302, Note_on_c, 1, 55, 0
1, 170302, Note_on_c, 1, 43, 0
1, 170302, Note_on_c, 1, 31, 0
1, 170400, Note_on_c, 1, 35, 95
1, 170400, Note_on_c, 1, 47, 95
1, 170400, Note_on_c, 1, 59, 95
1, 170590, Note_on_c, 1, 59, 0
1, 170590, Note_on_c, 1, 47, 0
1, 170590, Note_on_c, 1, 35, 0
1, 170640, Note_on_c, 0, 62, 95
1, 170640, Note_on_c, 1, 38, 95
1, 170640, Note_on_c, 1, 50, 95
1, 170830, Note_on_c, 0, 62, 0
1, 170830, Note_on_c, 1, 50, 0
1, 170830, Note_on_c, 1, 38, 0
1, 170880, Note_on_c, 0, 67, 95
1, 170880, Note_on_c, 1, 43, 95
1, 170880, Note_on_c, 1, 55, 95
1, 171070, Note_on_c, 0, 67, 0
1, 171070, Note_on_c, 1, 55, 0
1, 171070, Note_on_c, 1, 43, 0
1, 171120, Note_on_c, 0, 71, 95
1, 171120, Note_on_c, 1, 47, 95
1, 171120, Note_on_c, 1, 59, 95
1, 171310, Note_on_c, 0, 71, 0
1, 171310, Note_on_c, 1, 59, 0
1, 171310, Note_on_c, 1, 47, 0
1, 171540, Note_on_c, 0, 74, 65
1, 171587, Note_on_c, 0, 74, 0
1, 171600, Note_on_c, 0, 74, 64
1, 171622, Note_on_c, 0, 74, 0
1, 171630, Note_on_c, 0, 75, 65
1, 171652, Note_on_c, 0, 75, 0
1, 171660, Note_on_c, 0, 74, 66
1, 171682, Note_on_c, 0, 74, 0
1, 171690, Note_on_c, 0, 75, 65
1, 171712, Note_on_c, 0, 75, 0
1, 171720, Note_on_c, 0, 72, 65
1, 171767, Note_on_c, 0, 72, 0
1, 171780, Note_on_c, 0, 74, 65
1, 171827, Note_on_c, 0, 74, 0
1, 171840, Note_on_c, 0, 77, 65
1, 172030, Note_on_c, 0, 77, 0
1, 172080, Note_on_c, 0, 68, 65
1, 172080, Note_on_c, 0, 65, 65
1, 172080, Note_on_c, 0, 62, 65
1, 172080, Note_on_c, 0, 71, 65
1, 172270, Note_on_c, 0, 71, 0
1, 172270, Note_on_c, 0, 68, 0
1, 172270, Note_on_c, 0, 65, 0
1, 172270, Note_on_c, 0, 62, 0
1, 172320, Note_on_c, 0, 62, 65
1, 172320, Note_on_c, 0, 65, 65
1, 172320, Note_on_c, 0, 68, 65
1, 172320, Note_on_c, 0, 71, 65
1, 172510, Note_on_c, 0, 71, 0
1, 172510, Note_on_c, 0, 62, 0
1, 172510, Note_on_c, 0, 65, 0
1, 172510, Note_on_c, 0, 68, 0
1, 172560, Note_on_c, 0, 62, 65
1, 172560, Note_on_c, 0, 65, 65
1, 172560, Note_on_c, 0, 68, 65
1, 172560, Note_on_c, 0, 71, 65
1, 172750, Note_on_c, 0, 71, 0
1, 172750, Note_on_c, 0, 62, 0
1, 172750, Note_on_c, 0, 65, 0
1, 172750, Note_on_c, 0, 68, 0
1, 172800, Note_on_c, 0, 79, 65
1, 172990, Note_on_c, 0, 79, 0
1, 173040, Note_on_c, 0, 63, 65
1, 173040, Note_on_c, 0, 67, 65
1, 173040, Note_on_c, 0, 72, 65
1, 173230, Note_on_c, 0, 72, 0
1, 173230, Note_on_c, 0, 67, 0
1, 173230, Note_on_c, 0, 63, 0
1, 173280, Note_on_c, 0, 63, 65
1, 173280, Note_on_c, 0, 67, 65
1, 173280, Note_on_c, 0, 72, 65
1, 173470, Note_on_c, 0, 72, 0
1, 173470, Note_on_c, 0, 67, 0
1, 173470, Note_on_c, 0, 63, 0
1, 173760, Note_on_c, 0, 67, 95
1, 173760, Note_on_c, 1, 43, 95
1, 173855, Note_on_c, 1, 43, 0
1, 173880, Note_on_c, 1, 55, 95
1, 173975, Note_on_c, 1, 55, 0
1, 174000, Note_on_c, 1, 43, 95
1, 174095, Note_on_c, 1, 43, 0
1, 174120, Note_on_c, 1, 55, 95
1, 174215, Note_on_c, 1, 55, 0
1, 174240, Note_on_c, 1, 43, 65
1, 174335, Note_on_c, 0, 67, 0
1, 174335, Note_on_c, 1, 43, 0
1, 174360, Note_on_c, 1, 55, 65
1, 174455, Note_on_c, 1, 55, 0
1, 174480, Note_on_c, 0, 67, 65
1, 174480, Note_on_c, 0, 75, 65
1, 174480, Note_on_c, 1, 43, 65
1, 174575, Note_on_c, 1, 43, 0
1, 174600, Note_on_c, 1, 55, 65
1, 174670, Note_on_c, 0, 67, 0
1, 174695, Note_on_c, 1, 55, 0
1, 174720, Note_on_c, 0, 66, 65
1, 174720, Note_on_c, 1, 43, 65
1, 174815, Note_on_c, 1, 43, 0
1, 174840, Note_on_c, 1, 55, 65
1, 174910, Note_on_c, 0, 66, 0
1, 174910, Note_on_c, 0, 75, 0
1, 174935, Note_on_c, 1, 55, 0
1, 174960, Note_on_c, 0, 65, 65
1, 174960, Note_on_c, 0, 74, 65
1, 174960, Note_on_c, 1, 43, 65
1, 175055, Note_on_c, 1, 43, 0
1, 175080, Note_on_c, 1, 55, 65
1, 175150, Note_on_c, 0, 65, 0
1, 175175, Note_on_c, 1, 55, 0
1, 175200, Note_on_c, 0, 64, 65
1, 175200, Note_on_c, 1, 43, 65
1, 175295, Note_on_c, 1, 43, 0
1, 175320, Note_on_c, 1, 55, 65
1, 175342, Note_on_c, 0, 74, 0
1, 175390, Note_on_c, 0, 64, 0
1, 175415, Note_on_c, 1, 55, 0
1, 175440, Note_on_c, 0, 63, 65
1, 175440, Note_on_c, 0, 72, 65
1, 175440, Note_on_c, 1, 43, 65
1, 175535, Note_on_c, 1, 43, 0
1, 175560, Note_on_c, 1, 55, 65
1, 175630, Note_on_c, 0, 63, 0
1, 175655, Note_on_c, 1, 55, 0
1, 175680, Note_on_c, 0, 62, 95
1, 175680, Note_on_c, 1, 43, 95
1, 175775, Note_on_c, 1, 43, 0
1, 175800, Note_on_c, 1, 55, 95
1, 175870, Note_on_c, 0, 72, 0
1, 175895, Note_on_c, 1, 55, 0
1, 175920, Note_on_c, 0, 71, 95
1, 175920, Note_on_c, 1, 43, 95
1, 176015, Note_on_c, 1, 43, 0
1, 176040, Note_on_c, 1, 55, 95
1, 176062, Note_on_c, 0, 62, 0
1, 176110, Note_on_c, 0, 71, 0
1, 176135, Note_on_c, 1, 55, 0
1, 176160, Note_on_c, 1, 43, 65
1, 176255, Note_on_c, 1, 43, 0
1, 176280, Note_on_c, 1, 55, 65
1, 176375, Note_on_c, 1, 55, 0
1, 176400, Note_on_c, 0, 79, 65
1, 176400, Note_on_c, 0, 75, 65
1, 176400, Note_on_c, 1, 43, 64
1, 176495, Note_on_c, 1, 43, 0
1, 176520, Note_on_c, 1, 55, 65
1, 176590, Note_on_c, 0, 75, 0
1, 176590, Note_on_c, 0, 79, 0
1, 176615, Note_on_c, 1, 55, 0
1, 176640, Note_on_c, 0, 78, 65
1, 176640, Note_on_c, 0, 75, 65
1, 176640, Note_on_c, 1, 43, 65
1, 176735, Note_on_c, 1, 43, 0
1, 176760, Note_on_c, 1, 55, 65
1, 176830, Note_on_c, 0, 75, 0
1, 176830, Note_on_c, 0, 78, 0
1, 176855, Note_on_c, 1, 55, 0
1, 176880, Note_on_c, 0, 74, 65
1, 176880, Note_on_c, 0, 77, 65
1, 176880, Note_on_c, 1, 43, 65
1, 176975, Note_on_c, 1, 43, 0
1, 177000, Note_on_c, 1, 55, 65
1, 177070, Note_on_c, 0, 77, 0
1, 177095, Note_on_c, 1, 55, 0
1, 177120, Note_on_c, 0, 76, 76
1, 177120, Note_on_c, 1, 43, 75
1, 177215, Note_on_c, 1, 43, 0
1, 177240, Note_on_c, 1, 55, 76
1, 177262, Note_on_c, 0, 74, 0
1, 177310, Note_on_c, 0, 76, 0
1, 177335, Note_on_c, 1, 55, 0
1, 177360, Note_on_c, 0, 72, 65
1, 177360, Note_on_c, 0, 75, 65
1, 177360, Note_on_c, 1, 43, 65
1, 177455, Note_on_c, 1, 43, 0
1, 177480, Note_on_c, 1, 55, 65
1, 177550, Note_on_c, 0, 75, 0
1, 177550, Note_on_c, 0, 72, 0
1, 177575, Note_on_c, 1, 55, 0
1, 177600, Note_on_c, 0, 74, 95
1, 177600, Note_on_c, 0, 72, 95
1, 177600, Note_on_c, 1, 43, 95
1, 177695, Note_on_c, 1, 43, 0
1, 177720, Note_on_c, 1, 55, 95
1, 177790, Note_on_c, 0, 72, 0
1, 177815, Note_on_c, 1, 55, 0
1, 177840, Note_on_c, 0, 71, 95
1, 177840, Note_on_c, 1, 55, 95
1, 177935, Note_on_c, 1, 55, 0
1, 177960, Note_on_c, 1, 55, 95
1, 177982, Note_on_c, 0, 74, 0
1, 178030, Note_on_c, 0, 71, 0
1, 178055, Note_on_c, 1, 55, 0
1, 178080, Note_on_c, 1, 41, 95
1, 178175, Note_on_c, 1, 41, 0
1, 178200, Note_on_c, 1, 53, 95
1, 178295, Note_on_c, 1, 53, 0
1, 178320, Note_on_c, 0, 71, 95
1, 178320, Note_on_c, 0, 74, 95
1, 178320, Note_on_c, 0, 80, 95
1, 178320, Note_on_c, 1, 53, 95
1, 178415, Note_on_c, 1, 53, 0
1, 178440, Note_on_c, 1, 53, 95
1, 178535, Note_on_c, 1, 53, 0
1, 178560, Note_on_c, 1, 39, 95
1, 178655, Note_on_c, 1, 39, 0
1, 178680, Note_on_c, 1, 51, 95
1, 178750, Note_on_c, 0, 80, 0
1, 178750, Note_on_c, 0, 74, 0
1, 178750, Note_on_c, 0, 71, 0
1, 178775, Note_on_c, 1, 51, 0
1, 178800, Note_on_c, 0, 79, 95
1, 178800, Note_on_c, 0, 75, 95
1, 178800, Note_on_c, 0, 72, 95
1, 178800, Note_on_c, 1, 51, 95
1, 178895, Note_on_c, 1, 51, 0
1, 178920, Note_on_c, 1, 51, 95
1, 178990, Note_on_c, 0, 72, 0
1, 178990, Note_on_c, 0, 75, 0
1, 178990, Note_on_c, 0, 79, 0
1, 179015, Note_on_c, 1, 51, 0
1, 179040, Note_on_c, 1, 35, 95
1, 179135, Note_on_c, 1, 35, 0
1, 179160, Note_on_c, 1, 47, 95
1, 179220, Note_on_c, 0, 67, 95
1, 179255, Note_on_c, 1, 47, 0
1, 179267, Note_on_c, 0, 67, 0
1, 179280, Note_on_c, 0, 74, 95
1, 179280, Note_on_c, 1, 47, 95
1, 179375, Note_on_c, 1, 47, 0
1, 179400, Note_on_c, 1, 47, 95
1, 179422, Note_on_c, 0, 74, 0
1, 179460, Note_on_c, 0, 77, 95
1, 179495, Note_on_c, 1, 47, 0
1, 179507, Note_on_c, 0, 77, 0
1, 179520, Note_on_c, 0, 75, 95
1, 179520, Note_on_c, 1, 36, 95
1, 179542, Note_on_c, 0, 75, 0
1, 179550, Note_on_c, 0, 77, 95
1, 179572, Note_on_c, 0, 77, 0
1, 179580, Note_on_c, 0, 74, 95
1, 179615, Note_on_c, 1, 36, 0
1, 179627, Note_on_c, 0, 74, 0
1, 179640, Note_on_c, 0, 75, 95
1, 179640, Note_on_c, 1, 48, 95
1, 179687, Note_on_c, 0, 75, 0
1, 179700, Note_on_c, 0, 77, 95
1, 179735, Note_on_c, 1, 48, 0
1, 179747, Note_on_c, 0, 77, 0
1, 179760, Note_on_c, 0, 79, 95
1, 179760, Note_on_c, 1, 48, 95
1, 179855, Note_on_c, 1, 48, 0
1, 179880, Note_on_c, 1, 48, 95
1, 179950, Note_on_c, 0, 79, 0
1, 179975, Note_on_c, 1, 48, 0
1, 180000, Note_on_c, 1, 41, 95
1, 180095, Note_on_c, 1, 41, 0
1, 180120, Note_on_c, 1, 53, 95
1, 180215, Note_on_c, 1, 53, 0
1, 180240, Note_on_c, 0, 71, 95
1, 180240, Note_on_c, 0, 74, 95
1, 180240, Note_on_c, 0, 80, 95
1, 180240, Note_on_c, 1, 53, 95
1, 180335, Note_on_c, 1, 53, 0
1, 180360, Note_on_c, 1, 53, 95
1, 180455, Note_on_c, 1, 53, 0
1, 180480, Note_on_c, 1, 39, 95
1, 180575, Note_on_c, 1, 39, 0
1, 180600, Note_on_c, 1, 51, 95
1, 180670, Note_on_c, 0, 80, 0
1, 180670, Note_on_c, 0, 74, 0
1, 180670, Note_on_c, 0, 71, 0
1, 180695, Note_on_c, 1, 51, 0
1, 180720, Note_on_c, 0, 79, 95
1, 180720, Note_on_c, 0, 75, 95
1, 180720, Note_on_c, 0, 72, 95
1, 180720, Note_on_c, 1, 51, 95
1, 180815, Note_on_c, 1, 51, 0
1, 180840, Note_on_c, 1, 51, 95
1, 180910, Note_on_c, 0, 72, 0
1, 180910, Note_on_c, 0, 75, 0
1, 180910, Note_on_c, 0, 79, 0
1, 180935, Note_on_c, 1, 51, 0
1, 180960, Note_on_c, 1, 38, 95
1, 181055, Note_on_c, 1, 38, 0
1, 181080, Note_on_c, 1, 50, 95
1, 181140, Note_on_c, 0, 77, 95
1, 181175, Note_on_c, 1, 50, 0
1, 181187, Note_on_c, 0, 77, 0
1, 181200, Note_on_c, 0, 83, 95
1, 181200, Note_on_c, 1, 50, 95
1, 181295, Note_on_c, 1, 50, 0
1, 181320, Note_on_c, 1, 50, 95
1, 181342, Note_on_c, 0, 83, 0
1, 181380, Note_on_c, 0, 86, 95
1, 181415, Note_on_c, 1, 50, 0
1, 181427, Note_on_c, 0, 86, 0
1, 181440, Note_on_c, 0, 87, 84
1, 181440, Note_on_c, 1, 48, 86
1, 181535, Note_on_c, 0, 87, 0
1, 181560, Note_on_c, 0, 79, 65
1, 181630, Note_on_c, 1, 48, 0
1, 181655, Note_on_c, 0, 79, 0
1, 181680, Note_on_c, 0, 84, 65
1, 181775, Note_on_c, 0, 84, 0
1, 181800, Note_on_c, 0, 79, 65
1, 181895, Note_on_c, 0, 79, 0
1, 181920, Note_on_c, 1, 53, 65
1, 182040, Note_on_c, 0, 77, 65
1, 182110, Note_on_c, 1, 53, 0
1, 182135, Note_on_c, 0, 77, 0
1, 182160, Note_on_c, 0, 80, 65
1, 182255, Note_on_c, 0, 80, 0
1, 182280, Note_on_c, 0, 74, 65
1, 182375, Note_on_c, 0, 74, 0
1, 182400, Note_on_c, 1, 55, 65
1, 182520, Note_on_c, 0, 75, 65
1, 182590, Note_on_c, 1, 55, 0
1, 182615, Note_on_c, 0, 75, 0
1, 182640, Note_on_c, 0, 79, 65
1, 182735, Note_on_c, 0, 79, 0
1, 182760, Note_on_c, 0, 72, 65
1, 182855, Note_on_c, 0, 72, 0
1, 182880, Note_on_c, 1, 43, 76
1, 183000, Note_on_c, 0, 74, 75
1, 183070, Note_on_c, 1, 43, 0
1, 183095, Note_on_c, 0, 74, 0
1, 183120, Note_on_c, 0, 77, 85
1, 183215, Note_on_c, 0, 77, 0
1, 183240, Note_on_c, 0, 71, 86
1, 183335, Note_on_c, 0, 71, 0
1, 183360, Note_on_c, 0, 72, 95
1, 183742, Note_on_c, 0, 72, 0
1, 183840, Note_on_c, 0, 75, 95
1, 183840, Note_on_c, 0, 60, 95
1, 184030, Note_on_c, 0, 75, 0
1, 184080, Note_on_c, 0, 79, 95
1, 184222, Note_on_c, 0, 60, 0
1, 184270, Note_on_c, 0, 79, 0
1, 184320, Note_on_c, 0, 63, 95
1, 184320, Note_on_c, 0, 84, 95
1, 184510, Note_on_c, 0, 84, 0
1, 184510, Note_on_c, 0, 63, 0
1, 184560, Note_on_c, 0, 67, 95
1, 184560, Note_on_c, 0, 87, 95
1, 184750, Note_on_c, 0, 87, 0
1, 184750, Note_on_c, 0, 67, 0
1, 184800, Note_on_c, 0, 72, 95
1, 184800, Note_on_c, 0, 80, 95
1, 184800, Note_on_c, 1, 32, 95
1, 184800, Note_on_c, 1, 44, 95
1, 184990, Note_on_c, 0, 80, 0
1, 184990, Note_on_c, 0, 72, 0
1, 185040, Note_on_c, 0, 75, 95
1, 185040, Note_on_c, 0, 84, 95
1, 185182, Note_on_c, 1, 44, 0
1, 185182, Note_on_c, 1, 32, 0
1, 185230, Note_on_c, 0, 84, 0
1, 185230, Note_on_c, 0, 75, 0
1, 185280, Note_on_c, 0, 68, 95
1, 185280, Note_on_c, 0, 77, 95
1, 185280, Note_on_c, 1, 36, 95
1, 185280, Note_on_c, 1, 48, 95
1, 185470, Note_on_c, 0, 77, 0
1, 185470, Note_on_c, 0, 68, 0
1, 185470, Note_on_c, 1, 48, 0
1, 185470, Note_on_c, 1, 36, 0
1, 185520, Note_on_c, 0, 72, 95
1, 185520, Note_on_c, 0, 80, 95
1, 185520, Note_on_c, 1, 41, 95
1, 185520, Note_on_c, 1, 53, 95
1, 185710, Note_on_c, 0, 80, 0
1, 185710, Note_on_c, 0, 72, 0
1, 185710, Note_on_c, 1, 53, 0
1, 185710, Note_on_c, 1, 41, 0
1, 185760, Note_on_c, 0, 65, 82
1, 185760, Note_on_c, 0, 73, 84
1, 185760, Note_on_c, 1, 44, 83
1, 185760, Note_on_c, 1, 56, 83
1, 185950, Note_on_c, 0, 73, 0
1, 185950, Note_on_c, 0, 65, 0
1, 186000, Note_on_c, 0, 68, 75
1, 186000, Note_on_c, 0, 77, 76
1, 186142, Note_on_c, 1, 56, 0
1, 186142, Note_on_c, 1, 44, 0
1, 186190, Note_on_c, 0, 77, 0
1, 186190, Note_on_c, 0, 68, 0
1, 186240, Note_on_c, 0, 72, 65
1, 186360, Note_on_c, 0, 66, 65
1, 186455, Note_on_c, 0, 66, 0
1, 186480, Note_on_c, 0, 63, 65
1, 186575, Note_on_c, 0, 63, 0
1, 186600, Note_on_c, 0, 66, 65
1, 186695, Note_on_c, 0, 66, 0
1, 186720, Note_on_c, 1, 56, 65
1, 186815, Note_on_c, 0, 72, 0
1, 186815, Note_on_c, 1, 56, 0
1, 186840, Note_on_c, 0, 66, 65
1, 186935, Note_on_c, 0, 66, 0
1, 186960, Note_on_c, 0, 63, 65
1, 186960, Note_on_c, 0, 80, 65
1, 187055, Note_on_c, 0, 63, 0
1, 187080, Note_on_c, 0, 66, 65
1, 187150, Note_on_c, 0, 80, 0
1, 187175, Note_on_c, 0, 66, 0
1, 187200, Note_on_c, 0, 80, 65
1, 187200, Note_on_c, 1, 56, 65
1, 187295, Note_on_c, 1, 56, 0
1, 187320, Note_on_c, 0, 65, 65
1, 187415, Note_on_c, 0, 65, 0
1, 187440, Note_on_c, 0, 61, 65
1, 187487, Note_on_c, 0, 80, 0
1, 187535, Note_on_c, 0, 61, 0
1, 187560, Note_on_c, 0, 65, 65
1, 187560, Note_on_c, 0, 77, 65
1, 187655, Note_on_c, 0, 77, 0
1, 187655, Note_on_c, 0, 65, 0
1, 187680, Note_on_c, 0, 73, 65
1, 187680, Note_on_c, 1, 56, 65
1, 187775, Note_on_c, 1, 56, 0
1, 187800, Note_on_c, 0, 65, 65
1, 187870, Note_on_c, 0, 73, 0
1, 187895, Note_on_c, 0, 65, 0
1, 187920, Note_on_c, 0, 61, 65
1, 188015, Note_on_c, 0, 61, 0
1, 188040, Note_on_c, 0, 65, 65
1, 188135, Note_on_c, 0, 65, 0
1, 188160, Note_on_c, 0, 72, 65
1, 188160, Note_on_c, 1, 56, 65
1, 188255, Note_on_c, 1, 56, 0
1, 188280, Note_on_c, 0, 66, 65
1, 188375, Note_on_c, 0, 66, 0
1, 188400, Note_on_c, 0, 63, 65
1, 188495, Note_on_c, 0, 63, 0
1, 188520, Note_on_c, 0, 66, 65
1, 188542, Note_on_c, 0, 72, 0
1, 188615, Note_on_c, 0, 66, 0
1, 188640, Note_on_c, 0, 72, 65
1, 188640, Note_on_c, 1, 56, 65
1, 188735, Note_on_c, 0, 72, 0
1, 188735, Note_on_c, 1, 56, 0
1, 188760, Note_on_c, 0, 66, 65
1, 188760, Note_on_c, 0, 80, 65
1, 188855, Note_on_c, 0, 80, 0
1, 188855, Note_on_c, 0, 66, 0
1, 188880, Note_on_c, 0, 63, 65
1, 188880, Note_on_c, 0, 82, 65
1, 188975, Note_on_c, 0, 82, 0
1, 188975, Note_on_c, 0, 63, 0
1, 189000, Note_on_c, 0, 66, 65
1, 189000, Note_on_c, 0, 80, 65
1, 189095, Note_on_c, 0, 80, 0
1, 189095, Note_on_c, 0, 66, 0
1, 189120, Note_on_c, 0, 80, 65
1, 189120, Note_on_c, 1, 56, 65
1, 189215, Note_on_c, 1, 56, 0
1, 189240, Note_on_c, 0, 65, 65
1, 189335, Note_on_c, 0, 65, 0
1, 189360, Note_on_c, 0, 61, 65
1, 189407, Note_on_c, 0, 80, 0
1, 189455, Note_on_c, 0, 61, 0
1, 189480, Note_on_c, 0, 65, 65
1, 189480, Note_on_c, 0, 77, 65
1, 189575, Note_on_c, 0, 77, 0
1, 189575, Note_on_c, 0, 65, 0
1, 189600, Note_on_c, 0, 73, 65
1, 189600, Note_on_c, 1, 56, 65
1, 189695, Note_on_c, 1, 56, 0
1, 189720, Note_on_c, 0, 65, 65
1, 189790, Note_on_c, 0, 73, 0
1, 189815, Note_on_c, 0, 65, 0
1, 189840, Note_on_c, 0, 61, 65
1, 189840, Note_on_c, 0, 73, 65
1, 189935, Note_on_c, 0, 61, 0
1, 189960, Note_on_c, 0, 65, 65
1, 190030, Note_on_c, 0, 73, 0
1, 190055, Note_on_c, 0, 65, 0
1, 190080, Note_on_c, 0, 73, 65
1, 190080, Note_on_c, 0, 60, 65
1, 190080, Note_on_c, 0, 66, 65
1, 190080, Note_on_c, 0, 63, 65
1, 190080, Note_on_c, 1, 57, 65
1, 190175, Note_on_c, 0, 73, 0
1, 190200, Note_on_c, 0, 71, 65
1, 190295, Note_on_c, 0, 71, 0
1, 190320, Note_on_c, 0, 72, 65
1, 190415, Note_on_c, 0, 72, 0
1, 190440, Note_on_c, 0, 74, 65
1, 190535, Note_on_c, 0, 74, 0
1, 190560, Note_on_c, 0, 77, 65
1, 190655, Note_on_c, 0, 77, 0
1, 190680, Note_on_c, 0, 75, 65
1, 190775, Note_on_c, 0, 75, 0
1, 190800, Note_on_c, 0, 74, 65
1, 190847, Note_on_c, 0, 63, 0
1, 190847, Note_on_c, 0, 60, 0
1, 190847, Note_on_c, 0, 66, 0
1, 190847, Note_on_c, 1, 57, 0
1, 190895, Note_on_c, 0, 74, 0
1, 190920, Note_on_c, 0, 72, 65
1, 191015, Note_on_c, 0, 72, 0
1, 191040, Note_on_c, 0, 79, 65
1, 191230, Note_on_c, 0, 79, 0
1, 191280, Note_on_c, 1, 55, 65
1, 191280, Note_on_c, 1, 59, 65
1, 191470, Note_on_c, 1, 59, 0
1, 191470, Note_on_c, 1, 55, 0
1, 191520, Note_on_c, 0, 60, 65
1, 191520, Note_on_c, 1, 56, 65
1, 191710, Note_on_c, 0, 60, 0
1, 191710, Note_on_c, 1, 56, 0
1, 191760, Note_on_c, 0, 72, 65
1, 191855, Note_on_c, 0, 72, 0
1, 191880, Note_on_c, 0, 72, 65
1, 191975, Note_on_c, 0, 72, 0
1, 192000, Note_on_c, 0, 79, 65
1, 192190, Note_on_c, 0, 79, 0
1, 192240, Note_on_c, 1, 55, 65
1, 192240, Note_on_c, 1, 59, 65
1, 192430, Note_on_c, 1, 59, 0
1, 192430, Note_on_c, 1, 55, 0
1, 192480, Note_on_c, 0, 60, 65
1, 192480, Note_on_c, 1, 56, 65
1, 192670, Note_on_c, 0, 60, 0
1, 192670, Note_on_c, 1, 56, 0
1, 192720, Note_on_c, 0, 72, 65
1, 192815, Note_on_c, 0, 72, 0
1, 192840, Note_on_c, 0, 72, 65
1, 192935, Note_on_c, 0, 72, 0
1, 192960, Note_on_c, 0, 79, 65
1, 192960, Note_on_c, 1, 59, 65
1, 192960, Note_on_c, 1, 55, 65
1, 193150, Note_on_c, 0, 79, 0
1, 193150, Note_on_c, 1, 55, 0
1, 193150, Note_on_c, 1, 59, 0
1, 193200, Note_on_c, 0, 60, 65
1, 193200, Note_on_c, 0, 72, 65
1, 193200, Note_on_c, 1, 56, 65
1, 193295, Note_on_c, 0, 72, 0
1, 193320, Note_on_c, 0, 72, 65
1, 193390, Note_on_c, 0, 60, 0
1, 193390, Note_on_c, 1, 56, 0
1, 193415, Note_on_c, 0, 72, 0
1, 193440, Note_on_c, 0, 79, 65
1, 193440, Note_on_c, 1, 55, 65
1, 193440, Note_on_c, 1, 59, 65
1, 193630, Note_on_c, 0, 79, 0
1, 193630, Note_on_c, 1, 59, 0
1, 193630, Note_on_c, 1, 55, 0
1, 193680, Note_on_c, 0, 72, 65
1, 193680, Note_on_c, 0, 60, 65
1, 193680, Note_on_c, 1, 56, 65
1, 193775, Note_on_c, 0, 72, 0
1, 193800, Note_on_c, 0, 72, 65
1, 193870, Note_on_c, 0, 60, 0
1, 193870, Note_on_c, 1, 56, 0
1, 193895, Note_on_c, 0, 72, 0
1, 193920, Note_on_c, 0, 79, 65
1, 193920, Note_on_c, 1, 55, 65
1, 193920, Note_on_c, 1, 59, 65
1, 194110, Note_on_c, 0, 79, 0
1, 194110, Note_on_c, 1, 59, 0
1, 194110, Note_on_c, 1, 55, 0
1, 194160, Note_on_c, 0, 79, 65
1, 194350, Note_on_c, 0, 79, 0
1, 194400, Note_on_c, 0, 79, 65
1, 194590, Note_on_c, 0, 79, 0
1, 194640, Note_on_c, 0, 79, 65
1, 194830, Note_on_c, 0, 79, 0
1, 194880, Note_on_c, 0, 79, 65
1, 194975, Note_on_c, 0, 79, 0
1, 195000, Note_on_c, 0, 78, 65
1, 195095, Note_on_c, 0, 78, 0
1, 195120, Note_on_c, 0, 77, 65
1, 195215, Note_on_c, 0, 77, 0
1, 195240, Note_on_c, 0, 74, 65
1, 195335, Note_on_c, 0, 74, 0
1, 195360, Note_on_c, 0, 79, 65
1, 195455, Note_on_c, 0, 79, 0
1, 195480, Note_on_c, 0, 78, 65
1, 195575, Note_on_c, 0, 78, 0
1, 195600, Note_on_c, 0, 77, 65
1, 195695, Note_on_c, 0, 77, 0
1, 195720, Note_on_c, 0, 74, 65
1, 195815, Note_on_c, 0, 74, 0
1, 195840, Note_on_c, 0, 72, 65
1, 195840, Note_on_c, 0, 63, 65
1, 195935, Note_on_c, 0, 63, 0
1, 195960, Note_on_c, 0, 67, 65
1, 196055, Note_on_c, 0, 67, 0
1, 196080, Note_on_c, 0, 63, 65
1, 196127, Note_on_c, 0, 72, 0
1, 196175, Note_on_c, 0, 63, 0
1, 196200, Note_on_c, 0, 67, 65
1, 196200, Note_on_c, 0, 74, 65
1, 196247, Note_on_c, 0, 74, 0
1, 196260, Note_on_c, 0, 72, 65
1, 196295, Note_on_c, 0, 67, 0
1, 196307, Note_on_c, 0, 72, 0
1, 196320, Note_on_c, 0, 62, 65
1, 196320, Note_on_c, 0, 71, 65
1, 196415, Note_on_c, 0, 62, 0
1, 196440, Note_on_c, 0, 67, 65
1, 196510, Note_on_c, 0, 71, 0
1, 196535, Note_on_c, 0, 67, 0
1, 196560, Note_on_c, 0, 63, 65
1, 196560, Note_on_c, 0, 72, 65
1, 196655, Note_on_c, 0, 63, 0
1, 196680, Note_on_c, 0, 67, 65
1, 196750, Note_on_c, 0, 72, 0
1, 196775, Note_on_c, 0, 67, 0
1, 196800, Note_on_c, 0, 64, 65
1, 196800, Note_on_c, 0, 73, 65
1, 196895, Note_on_c, 0, 64, 0
1, 196920, Note_on_c, 0, 67, 65
1, 197015, Note_on_c, 0, 67, 0
1, 197040, Note_on_c, 0, 64, 65
1, 197135, Note_on_c, 0, 64, 0
1, 197160, Note_on_c, 0, 67, 65
1, 197182, Note_on_c, 0, 73, 0
1, 197255, Note_on_c, 0, 67, 0
1, 197280, Note_on_c, 0, 65, 65
1, 197280, Note_on_c, 0, 74, 65
1, 197375, Note_on_c, 0, 65, 0
1, 197400, Note_on_c, 0, 67, 65
1, 197470, Note_on_c, 0, 74, 0
1, 197495, Note_on_c, 0, 67, 0
1, 197520, Note_on_c, 0, 65, 65
1, 197615, Note_on_c, 0, 65, 0
1, 197640, Note_on_c, 0, 67, 65
1, 197735, Note_on_c, 0, 67, 0
1, 197760, Note_on_c, 0, 62, 65
1, 197760, Note_on_c, 1, 53, 65
1, 197855, Note_on_c, 0, 62, 0
1, 197880, Note_on_c, 0, 67, 65
1, 197975, Note_on_c, 0, 67, 0
1, 198000, Note_on_c, 0, 62, 65
1, 198047, Note_on_c, 1, 53, 0
1, 198095, Note_on_c, 0, 62, 0
1, 198120, Note_on_c, 0, 67, 65
1, 198120, Note_on_c, 1, 52, 65
1, 198175, Note_on_c, 1, 52, 0
1, 198180, Note_on_c, 1, 53, 65
1, 198215, Note_on_c, 0, 67, 0
1, 198235, Note_on_c, 1, 53, 0
1, 198240, Note_on_c, 0, 62, 65
1, 198240, Note_on_c, 1, 55, 65
1, 198335, Note_on_c, 0, 62, 0
1, 198335, Note_on_c, 1, 55, 0
1, 198360, Note_on_c, 0, 67, 65
1, 198360, Note_on_c, 1, 53, 65
1, 198455, Note_on_c, 0, 67, 0
1, 198455, Note_on_c, 1, 53, 0
1, 198480, Note_on_c, 0, 63, 65
1, 198480, Note_on_c, 1, 51, 65
1, 198575, Note_on_c, 0, 63, 0
1, 198575, Note_on_c, 1, 51, 0
1, 198600, Note_on_c, 0, 67, 65
1, 198600, Note_on_c, 1, 50, 65
1, 198695, Note_on_c, 0, 67, 0
1, 198695, Note_on_c, 1, 50, 0
1, 198720, Note_on_c, 0, 65, 65
1, 198720, Note_on_c, 1, 48, 65
1, 198815, Note_on_c, 0, 65, 0
1, 198840, Note_on_c, 0, 67, 65
1, 198935, Note_on_c, 0, 67, 0
1, 198960, Note_on_c, 0, 62, 65
1, 199055, Note_on_c, 0, 62, 0
1, 199080, Note_on_c, 0, 67, 65
1, 199102, Note_on_c, 1, 48, 0
1, 199175, Note_on_c, 0, 67, 0
1, 199200, Note_on_c, 0, 65, 65
1, 199200, Note_on_c, 1, 47, 65
1, 199295, Note_on_c, 0, 65, 0
1, 199320, Note_on_c, 0, 67, 65
1, 199390, Note_on_c, 1, 47, 0
1, 199415, Note_on_c, 0, 67, 0
1, 199440, Note_on_c, 0, 62, 65
1, 199535, Note_on_c, 0, 62, 0
1, 199560, Note_on_c, 0, 67, 65
1, 199655, Note_on_c, 0, 67, 0
1, 199680, Note_on_c, 0, 74, 65
1, 199680, Note_on_c, 1, 59, 65
1, 199775, Note_on_c, 1, 59, 0
1, 199800, Note_on_c, 0, 67, 65
1, 199895, Note_on_c, 0, 67, 0
1, 199920, Note_on_c, 1, 59, 65
1, 199967, Note_on_c, 0, 74, 0
1, 200015, Note_on_c, 1, 59, 0
1, 200040, Note_on_c, 0, 75, 65
1, 200040, Note_on_c, 0, 67, 65
1, 200062, Note_on_c, 0, 75, 0
1, 200070, Note_on_c, 0, 74, 65
1, 200092, Note_on_c, 0, 74, 0
1, 200100, Note_on_c, 0, 72, 65
1, 200122, Note_on_c, 0, 72, 0
1, 200130, Note_on_c, 0, 74, 65
1, 200135, Note_on_c, 0, 67, 0
1, 200152, Note_on_c, 0, 74, 0
1, 200160, Note_on_c, 0, 60, 65
1, 200160, Note_on_c, 0, 75, 65
1, 200255, Note_on_c, 0, 60, 0
1, 200280, Note_on_c, 0, 67, 65
1, 200350, Note_on_c, 0, 75, 0
1, 200375, Note_on_c, 0, 67, 0
1, 200400, Note_on_c, 0, 62, 65
1, 200400, Note_on_c, 0, 77, 65
1, 200495, Note_on_c, 0, 62, 0
1, 200520, Note_on_c, 0, 67, 65
1, 200590, Note_on_c, 0, 77, 0
1, 200615, Note_on_c, 0, 67, 0
1, 200640, Note_on_c, 0, 62, 65
1, 200640, Note_on_c, 0, 78, 65
1, 200735, Note_on_c, 0, 62, 0
1, 200760, Note_on_c, 0, 67, 65
1, 200855, Note_on_c, 0, 67, 0
1, 200880, Note_on_c, 0, 62, 65
1, 200975, Note_on_c, 0, 62, 0
1, 201000, Note_on_c, 0, 67, 65
1, 201022, Note_on_c, 0, 78, 0
1, 201095, Note_on_c, 0, 67, 0
1, 201120, Note_on_c, 0, 63, 65
1, 201120, Note_on_c, 0, 79, 65
1, 201215, Note_on_c, 0, 63, 0
1, 201240, Note_on_c, 0, 67, 65
1, 201310, Note_on_c, 0, 79, 0
1, 201335, Note_on_c, 0, 67, 0
1, 201360, Note_on_c, 0, 63, 65
1, 201455, Note_on_c, 0, 63, 0
1, 201480, Note_on_c, 0, 67, 65
1, 201575, Note_on_c, 0, 67, 0
1, 201600, Note_on_c, 0, 63, 65
1, 201600, Note_on_c, 1, 55, 65
1, 201695, Note_on_c, 0, 63, 0
1, 201720, Note_on_c, 0, 67, 65
1, 201815, Note_on_c, 0, 67, 0
1, 201840, Note_on_c, 0, 60, 65
1, 201887, Note_on_c, 1, 55, 0
1, 201935, Note_on_c, 0, 60, 0
1, 201960, Note_on_c, 0, 67, 65
1, 201960, Note_on_c, 1, 54, 65
1, 202007, Note_on_c, 1, 54, 0
1, 202020, Note_on_c, 1, 55, 65
1, 202055, Note_on_c, 0, 67, 0
1, 202067, Note_on_c, 1, 55, 0
1, 202080, Note_on_c, 0, 63, 65
1, 202080, Note_on_c, 1, 56, 65
1, 202175, Note_on_c, 0, 63, 0
1, 202175, Note_on_c, 1, 56, 0
1, 202200, Note_on_c, 0, 67, 65
1, 202200, Note_on_c, 1, 55, 65
1, 202295, Note_on_c, 0, 67, 0
1, 202295, Note_on_c, 1, 55, 0
1, 202320, Note_on_c, 0, 60, 65
1, 202320, Note_on_c, 1, 53, 65
1, 202415, Note_on_c, 0, 60, 0
1, 202415, Note_on_c, 1, 53, 0
1, 202440, Note_on_c, 0, 67, 65
1, 202440, Note_on_c, 1, 51, 65
1, 202535, Note_on_c, 0, 67, 0
1, 202535, Note_on_c, 1, 51, 0
1, 202560, Note_on_c, 0, 65, 65
1, 202560, Note_on_c, 1, 50, 65
1, 202655, Note_on_c, 0, 65, 0
1, 202680, Note_on_c, 0, 67, 65
1, 202775, Note_on_c, 0, 67, 0
1, 202800, Note_on_c, 0, 62, 65
1, 202895, Note_on_c, 0, 62, 0
1, 202920, Note_on_c, 0, 67, 65
1, 202942, Note_on_c, 1, 50, 0
1, 203015, Note_on_c, 0, 67, 0
1, 203040, Note_on_c, 0, 63, 78
1, 203040, Note_on_c, 1, 48, 75
1, 203135, Note_on_c, 0, 63, 0
1, 203160, Note_on_c, 0, 67, 76
1, 203230, Note_on_c, 1, 48, 0
1, 203255, Note_on_c, 0, 67, 0
1, 203280, Note_on_c, 0, 60, 85
1, 203375, Note_on_c, 0, 60, 0
1, 203400, Note_on_c, 0, 67, 87
1, 203495, Note_on_c, 0, 67, 0
1, 203520, Note_on_c, 0, 63, 95
1, 203520, Note_on_c, 0, 72, 95
1, 203520, Note_on_c, 0, 84, 95
1, 203520, Note_on_c, 0, 60, 95
1, 203615, Note_on_c, 0, 60, 0
1, 203615, Note_on_c, 0, 63, 0
1, 203640, Note_on_c, 0, 67, 95
1, 203735, Note_on_c, 0, 67, 0
1, 203760, Note_on_c, 0, 60, 95
1, 203760, Note_on_c, 0, 63, 95
1, 203855, Note_on_c, 0, 63, 0
1, 203855, Note_on_c, 0, 60, 0
1, 203880, Note_on_c, 0, 67, 95
1, 203902, Note_on_c, 0, 84, 0
1, 203902, Note_on_c, 0, 72, 0
1, 203975, Note_on_c, 0, 67, 0
1, 204000, Note_on_c, 0, 73, 95
1, 204000, Note_on_c, 0, 85, 95
1, 204000, Note_on_c, 0, 64, 95
1, 204000, Note_on_c, 1, 58, 95
1, 204095, Note_on_c, 0, 64, 0
1, 204095, Note_on_c, 1, 58, 0
1, 204120, Note_on_c, 0, 67, 95
1, 204215, Note_on_c, 0, 67, 0
1, 204240, Note_on_c, 0, 64, 95
1, 204240, Note_on_c, 1, 58, 95
1, 204335, Note_on_c, 0, 64, 0
1, 204335, Note_on_c, 1, 58, 0
1, 204360, Note_on_c, 0, 67, 95
1, 204382, Note_on_c, 0, 85, 0
1, 204382, Note_on_c, 0, 73, 0
1, 204455, Note_on_c, 0, 67, 0
1, 204480, Note_on_c, 0, 84, 95
1, 204480, Note_on_c, 0, 60, 95
1, 204480, Note_on_c, 0, 72, 95
1, 204480, Note_on_c, 1, 57, 95
1, 204575, Note_on_c, 0, 60, 0
1, 204575, Note_on_c, 1, 57, 0
1, 204600, Note_on_c, 0, 65, 95
1, 204670, Note_on_c, 0, 72, 0
1, 204670, Note_on_c, 0, 84, 0
1, 204695, Note_on_c, 0, 65, 0
1, 204720, Note_on_c, 0, 87, 95
1, 204720, Note_on_c, 0, 66, 95
1, 204720, Note_on_c, 0, 75, 95
1, 204720, Note_on_c, 0, 60, 95
1, 204720, Note_on_c, 1, 56, 95
1, 204910, Note_on_c, 0, 60, 0
1, 204910, Note_on_c, 0, 87, 0
1, 204910, Note_on_c, 0, 66, 0
1, 204910, Note_on_c, 0, 75, 0
1, 204910, Note_on_c, 1, 56, 0
1, 205080, Note_on_c, 0, 87, 70
1, 205175, Note_on_c, 0, 87, 0
1, 205200, Note_on_c, 0, 86, 66
1, 205295, Note_on_c, 0, 86, 0
1, 205320, Note_on_c, 0, 84, 65
1, 205415, Note_on_c, 0, 84, 0
1, 205440, Note_on_c, 0, 83, 65
1, 205535, Note_on_c, 0, 83, 0
1, 205560, Note_on_c, 0, 86, 65
1, 205655, Note_on_c, 0, 86, 0
1, 205680, Note_on_c, 0, 77, 65
1, 205680, Note_on_c, 1, 55, 65
1, 205680, Note_on_c, 1, 59, 65
1, 205870, Note_on_c, 0, 77, 0
1, 205870, Note_on_c, 1, 59, 0
1, 205870, Note_on_c, 1, 55, 0
1, 205920, Note_on_c, 0, 62, 65
1, 205920, Note_on_c, 1, 59, 65
1, 206040, Note_on_c, 0, 80, 65
1, 206110, Note_on_c, 0, 62, 0
1, 206110, Note_on_c, 1, 59, 0
1, 206135, Note_on_c, 0, 80, 0
1, 206160, Note_on_c, 0, 79, 65
1, 206255, Note_on_c, 0, 79, 0
1, 206280, Note_on_c, 0, 77, 65
1, 206375, Note_on_c, 0, 77, 0
1, 206400, Note_on_c, 0, 76, 65
1, 206495, Note_on_c, 0, 76, 0
1, 206520, Note_on_c, 0, 79, 65
1, 206615, Note_on_c, 0, 79, 0
1, 206640, Note_on_c, 0, 70, 65
1, 206640, Note_on_c, 1, 48, 65
1, 206640, Note_on_c, 1, 52, 65
1, 206830, Note_on_c, 0, 70, 0
1, 206830, Note_on_c, 1, 52, 0
1, 206830, Note_on_c, 1, 48, 0
1, 206880, Note_on_c, 1, 55, 65
1, 206880, Note_on_c, 1, 52, 65
1, 207000, Note_on_c, 0, 73, 65
1, 207070, Note_on_c, 1, 52, 0
1, 207070, Note_on_c, 1, 55, 0
1, 207095, Note_on_c, 0, 73, 0
1, 207120, Note_on_c, 0, 72, 65
1, 207215, Note_on_c, 0, 72, 0
1, 207240, Note_on_c, 0, 70, 65
1, 207335, Note_on_c, 0, 70, 0
1, 207360, Note_on_c, 0, 68, 65
1, 207360, Note_on_c, 1, 53, 65
1, 207455, Note_on_c, 0, 68, 0
1, 207480, Note_on_c, 0, 80, 65
1, 207550, Note_on_c, 1, 53, 0
1, 207575, Note_on_c, 0, 80, 0
1, 207600, Note_on_c, 0, 79, 65
1, 207695, Note_on_c, 0, 79, 0
1, 207720, Note_on_c, 0, 77, 65
1, 207815, Note_on_c, 0, 77, 0
1, 207840, Note_on_c, 0, 75, 65
1, 207935, Note_on_c, 0, 75, 0
1, 207960, Note_on_c, 0, 74, 65
1, 208055, Note_on_c, 0, 74, 0
1, 208080, Note_on_c, 0, 75, 65
1, 208175, Note_on_c, 0, 75, 0
1, 208200, Note_on_c, 0, 77, 65
1, 208295, Note_on_c, 0, 77, 0
1, 208320, Note_on_c, 0, 72, 65
1, 208320, Note_on_c, 1, 55, 65
1, 208560, Note_on_c, 0, 67, 65
1, 208560, Note_on_c, 0, 63, 65
1, 208702, Note_on_c, 0, 72, 0
1, 208750, Note_on_c, 0, 63, 0
1, 208750, Note_on_c, 0, 67, 0
1, 208800, Note_on_c, 0, 65, 75
1, 208800, Note_on_c, 0, 62, 75
1, 209040, Note_on_c, 0, 75, 86
1, 209040, Note_on_c, 0, 71, 85
1, 209087, Note_on_c, 1, 55, 0
1, 209135, Note_on_c, 0, 71, 0
1, 209135, Note_on_c, 0, 75, 0
1, 209160, Note_on_c, 0, 74, 86
1, 209182, Note_on_c, 0, 62, 0
1, 209182, Note_on_c, 0, 65, 0
1, 209255, Note_on_c, 0, 74, 0
1, 209280, Note_on_c, 0, 60, 95
1, 209280, Note_on_c, 0, 72, 95
1, 209280, Note_on_c, 1, 48, 95
1, 209280, Note_on_c, 1, 51, 95
1, 209375, Note_on_c, 1, 51, 0
1, 209375, Note_on_c, 1, 48, 0
1, 209400, Note_on_c, 1, 55, 95
1, 209495, Note_on_c, 1, 55, 0
1, 209520, Note_on_c, 1, 48, 95
1, 209520, Note_on_c, 1, 51, 95
1, 209615, Note_on_c, 1, 51, 0
1, 209615, Note_on_c, 1, 48, 0
1, 209640, Note_on_c, 1, 55, 95
1, 209662, Note_on_c, 0, 72, 0
1, 209662, Note_on_c, 0, 60, 0
1, 209735, Note_on_c, 1, 55, 0
1, 209760, Note_on_c, 0, 61, 95
1, 209760, Note_on_c, 0, 73, 95
1, 209760, Note_on_c, 1, 46, 95
1, 209760, Note_on_c, 1, 52, 95
1, 209855, Note_on_c, 1, 52, 0
1, 209855, Note_on_c, 1, 46, 0
1, 209880, Note_on_c, 1, 55, 95
1, 209975, Note_on_c, 1, 55, 0
1, 210000, Note_on_c, 1, 46, 95
1, 210000, Note_on_c, 1, 52, 95
1, 210095, Note_on_c, 1, 52, 0
1, 210095, Note_on_c, 1, 46, 0
1, 210120, Note_on_c, 1, 55, 95
1, 210142, Note_on_c, 0, 73, 0
1, 210142, Note_on_c, 0, 61, 0
1, 210215, Note_on_c, 1, 55, 0
1, 210240, Note_on_c, 0, 72, 95
1, 210240, Note_on_c, 0, 60, 95
1, 210240, Note_on_c, 1, 45, 95
1, 210240, Note_on_c, 1, 48, 95
1, 210335, Note_on_c, 1, 48, 0
1, 210335, Note_on_c, 1, 45, 0
1, 210360, Note_on_c, 1, 53, 95
1, 210430, Note_on_c, 0, 60, 0
1, 210430, Note_on_c, 0, 72, 0
1, 210455, Note_on_c, 1, 53, 0
1, 210480, Note_on_c, 0, 63, 95
1, 210480, Note_on_c, 0, 75, 95
1, 210480, Note_on_c, 1, 44, 95
1, 210480, Note_on_c, 1, 48, 95
1, 210480, Note_on_c, 1, 54, 95
1, 210670, Note_on_c, 0, 75, 0
1, 210670, Note_on_c, 0, 63, 0
1, 210670, Note_on_c, 1, 54, 0
1, 210670, Note_on_c, 1, 48, 0
1, 210670, Note_on_c, 1, 44, 0
1, 210840, Note_on_c, 0, 75, 76
1, 210935, Note_on_c, 0, 75, 0
1, 210960, Note_on_c, 0, 74, 71
1, 211055, Note_on_c, 0, 74, 0
1, 211080, Note_on_c, 0, 72, 71
1, 211175, Note_on_c, 0, 72, 0
1, 211200, Note_on_c, 0, 71, 65
1, 211295, Note_on_c, 0, 71, 0
1, 211320, Note_on_c, 0, 74, 65
1, 211415, Note_on_c, 0, 74, 0
1, 211440, Note_on_c, 0, 65, 65
1, 211440, Note_on_c, 1, 43, 65
1, 211440, Note_on_c, 1, 47, 65
1, 211630, Note_on_c, 0, 65, 0
1, 211630, Note_on_c, 1, 47, 0
1, 211630, Note_on_c, 1, 43, 0
1, 211680, Note_on_c, 1, 47, 65
1, 211680, Note_on_c, 1, 50, 65
1, 211800, Note_on_c, 0, 68, 65
1, 211870, Note_on_c, 1, 50, 0
1, 211870, Note_on_c, 1, 47, 0
1, 211895, Note_on_c, 0, 68, 0
1, 211920, Note_on_c, 0, 67, 65
1, 212015, Note_on_c, 0, 67, 0
1, 212040, Note_on_c, 0, 65, 65
1, 212135, Note_on_c, 0, 65, 0
1, 212160, Note_on_c, 0, 64, 65
1, 212255, Note_on_c, 0, 64, 0
1, 212280, Note_on_c, 0, 67, 65
1, 212375, Note_on_c, 0, 67, 0
1, 212400, Note_on_c, 1, 58, 65
1, 212400, Note_on_c, 1, 40, 65
1, 212400, Note_on_c, 1, 36, 65
1, 212590, Note_on_c, 1, 36, 0
1, 212590, Note_on_c, 1, 40, 0
1, 212590, Note_on_c, 1, 58, 0
1, 212640, Note_on_c, 1, 43, 75
1, 212640, Note_on_c, 1, 40, 77
1, 212760, Note_on_c, 0, 61, 77
1, 212830, Note_on_c, 1, 40, 0
1, 212830, Note_on_c, 1, 43, 0
1, 212855, Note_on_c, 0, 61, 0
1, 212880, Note_on_c, 0, 60, 85
1, 212975, Note_on_c, 0, 60, 0
1, 213000, Note_on_c, 1, 58, 85
1, 213095, Note_on_c, 1, 58, 0
1, 213120, Note_on_c, 1, 41, 95
1, 213120, Note_on_c, 1, 29, 95
1, 213120, Note_on_c, 1, 56, 95
1, 213182, Note_on_c, 1, 56, 0
1, 213200, Note_on_c, 0, 60, 95
1, 213262, Note_on_c, 0, 60, 0
1, 213280, Note_on_c, 1, 52, 95
1, 213342, Note_on_c, 1, 52, 0
1, 213360, Note_on_c, 1, 53, 95
1, 213422, Note_on_c, 1, 53, 0
1, 213440, Note_on_c, 1, 56, 95
1, 213502, Note_on_c, 1, 56, 0
1, 213520, Note_on_c, 1, 47, 95
1, 213582, Note_on_c, 1, 47, 0
1, 213600, Note_on_c, 1, 48, 95
1, 213662, Note_on_c, 1, 48, 0
1, 213680, Note_on_c, 1, 53, 95
1, 213742, Note_on_c, 1, 53, 0
1, 213760, Note_on_c, 1, 43, 95
1, 213822, Note_on_c, 1, 43, 0
1, 213840, Note_on_c, 1, 44, 95
1, 213887, Note_on_c, 1, 29, 0
1, 213887, Note_on_c, 1, 41, 0
1, 213902, Note_on_c, 1, 44, 0
1, 213920, Note_on_c, 1, 48, 95
1, 213982, Note_on_c, 1, 48, 0
1, 214000, Note_on_c, 1, 40, 95
1, 214062, Note_on_c, 1, 40, 0
1, 214080, Note_on_c, 1, 41, 95
1, 214142, Note_on_c, 1, 41, 0
1, 214160, Note_on_c, 1, 36, 95
1, 214222, Note_on_c, 1, 36, 0
1, 214240, Note_on_c, 1, 41, 95
1, 214302, Note_on_c, 1, 41, 0
1, 214320, Note_on_c, 1, 44, 95
1, 214382, Note_on_c, 1, 44, 0
1, 214400, Note_on_c, 1, 41, 95
1, 214462, Note_on_c, 1, 41, 0
1, 214480, Note_on_c, 1, 44, 95
1, 214542, Note_on_c, 1, 44, 0
1, 214560, Note_on_c, 1, 48, 95
1, 214622, Note_on_c, 1, 48, 0
1, 214640, Note_on_c, 1, 44, 95
1, 214702, Note_on_c, 1, 44, 0
1, 214720, Note_on_c, 1, 48, 95
1, 214782, Note_on_c, 1, 48, 0
1, 214800, Note_on_c, 1, 53, 95
1, 214862, Note_on_c, 1, 53, 0
1, 214880, Note_on_c, 1, 48, 95
1, 214942, Note_on_c, 1, 48, 0
1, 214960, Note_on_c, 1, 53, 95
1, 215022, Note_on_c, 1, 53, 0
1, 215040, Note_on_c, 1, 56, 95
1, 215102, Note_on_c, 1, 56, 0
1, 215120, Note_on_c, 1, 53, 95
1, 215182, Note_on_c, 1, 53, 0
1, 215200, Note_on_c, 1, 56, 95
1, 215262, Note_on_c, 1, 56, 0
1, 215280, Note_on_c, 0, 60, 95
1, 215342, Note_on_c, 0, 60, 0
1, 215360, Note_on_c, 1, 56, 95
1, 215422, Note_on_c, 1, 56, 0
1, 215440, Note_on_c, 0, 60, 95
1, 215502, Note_on_c, 0, 60, 0
1, 215520, Note_on_c, 0, 65, 95
1, 215582, Note_on_c, 0, 65, 0
1, 215600, Note_on_c, 0, 60, 95
1, 215662, Note_on_c, 0, 60, 0
1, 215680, Note_on_c, 0, 65, 95
1, 215742, Note_on_c, 0, 65, 0
1, 215760, Note_on_c, 0, 68, 95
1, 215822, Note_on_c, 0, 68, 0
1, 215840, Note_on_c, 0, 65, 95
1, 215902, Note_on_c, 0, 65, 0
1, 215920, Note_on_c, 0, 68, 95
1, 215982, Note_on_c, 0, 68, 0
1, 216000, Note_on_c, 0, 72, 95
1, 216062, Note_on_c, 0, 72, 0
1, 216080, Note_on_c, 0, 68, 95
1, 216142, Note_on_c, 0, 68, 0
1, 216160, Note_on_c, 0, 72, 95
1, 216222, Note_on_c, 0, 72, 0
1, 216240, Note_on_c, 0, 77, 95
1, 216302, Note_on_c, 0, 77, 0
1, 216320, Note_on_c, 0, 72, 95
1, 216382, Note_on_c, 0, 72, 0
1, 216400, Note_on_c, 0, 77, 95
1, 216462, Note_on_c, 0, 77, 0
1, 216480, Note_on_c, 0, 80, 85
1, 216542, Note_on_c, 0, 80, 0
1, 216560, Note_on_c, 0, 77, 85
1, 216622, Note_on_c, 0, 77, 0
1, 216640, Note_on_c, 0, 80, 85
1, 216702, Note_on_c, 0, 80, 0
1, 216720, Note_on_c, 0, 84, 75
1, 216815, Note_on_c, 0, 84, 0
1, 216840, Note_on_c, 0, 79, 75
1, 216935, Note_on_c, 0, 79, 0
1, 216960, Note_on_c, 0, 80, 65
1, 217055, Note_on_c, 0, 80, 0
1, 217080, Note_on_c, 0, 76, 65
1, 217175, Note_on_c, 0, 76, 0
1, 217200, Note_on_c, 0, 77, 65
1, 217295, Note_on_c, 0, 77, 0
1, 217320, Note_on_c, 0, 73, 65
1, 217415, Note_on_c, 0, 73, 0
1, 217440, Note_on_c, 0, 74, 65
1, 217535, Note_on_c, 0, 74, 0
1, 217560, Note_on_c, 0, 80, 65
1, 217655, Note_on_c, 0, 80, 0
1, 217680, Note_on_c, 0, 77, 65
1, 217775, Note_on_c, 0, 77, 0
1, 217800, Note_on_c, 0, 74, 65
1, 217895, Note_on_c, 0, 74, 0
1, 217920, Note_on_c, 0, 63, 65
1, 217920, Note_on_c, 0, 60, 65
1, 217920, Note_on_c, 1, 55, 65
1, 218040, Note_on_c, 0, 67, 65
1, 218110, Note_on_c, 0, 60, 0
1, 218110, Note_on_c, 0, 63, 0
1, 218110, Note_on_c, 1, 55, 0
1, 218135, Note_on_c, 0, 67, 0
1, 218160, Note_on_c, 0, 79, 65
1, 218255, Note_on_c, 0, 79, 0
1, 218280, Note_on_c, 0, 78, 65
1, 218375, Note_on_c, 0, 78, 0
1, 218400, Note_on_c, 0, 77, 65
1, 218495, Note_on_c, 0, 77, 0
1, 218520, Note_on_c, 0, 76, 65
1, 218615, Note_on_c, 0, 76, 0
1, 218640, Note_on_c, 0, 75, 65
1, 218735, Note_on_c, 0, 75, 0
1, 218760, Note_on_c, 0, 74, 65
1, 218855, Note_on_c, 0, 74, 0
1, 218880, Note_on_c, 0, 74, 65
1, 218880, Note_on_c, 0, 63, 65
1, 218880, Note_on_c, 1, 55, 65
1, 218975, Note_on_c, 0, 63, 0
1, 218975, Note_on_c, 0, 74, 0
1, 218975, Note_on_c, 1, 55, 0
1, 219000, Note_on_c, 0, 67, 65
1, 219000, Note_on_c, 0, 72, 65
1, 219095, Note_on_c, 0, 72, 0
1, 219095, Note_on_c, 0, 67, 0
1, 219120, Note_on_c, 0, 63, 65
1, 219120, Note_on_c, 0, 72, 65
1, 219215, Note_on_c, 0, 63, 0
1, 219240, Note_on_c, 0, 67, 65
1, 219335, Note_on_c, 0, 67, 0
1, 219360, Note_on_c, 0, 65, 65
1, 219455, Note_on_c, 0, 65, 0
1, 219480, Note_on_c, 0, 67, 65
1, 219502, Note_on_c, 0, 72, 0
1, 219575, Note_on_c, 0, 67, 0
1, 219600, Note_on_c, 0, 65, 65
1, 219600, Note_on_c, 0, 75, 65
1, 219600, Note_on_c, 0, 71, 65
1, 219695, Note_on_c, 0, 71, 0
1, 219695, Note_on_c, 0, 75, 0
1, 219695, Note_on_c, 0, 65, 0
1, 219720, Note_on_c, 0, 67, 65
1, 219720, Note_on_c, 0, 74, 65
1, 219815, Note_on_c, 0, 74, 0
1, 219815, Note_on_c, 0, 67, 0
1, 219840, Note_on_c, 0, 72, 65
1, 219840, Note_on_c, 0, 60, 65
1, 219935, Note_on_c, 0, 60, 0
1, 219960, Note_on_c, 0, 67, 65
1, 220030, Note_on_c, 0, 72, 0
1, 220055, Note_on_c, 0, 67, 0
1, 220080, Note_on_c, 0, 63, 65
1, 220175, Note_on_c, 0, 63, 0
1, 220200, Note_on_c, 0, 67, 65
1, 220200, Note_on_c, 0, 72, 65
1, 220295, Note_on_c, 0, 72, 0
1, 220295, Note_on_c, 0, 67, 0
1, 220320, Note_on_c, 0, 73, 65
1, 220320, Note_on_c, 1, 59, 65
1, 220415, Note_on_c, 0, 73, 0
1, 220415, Note_on_c, 1, 59, 0
1, 220440, Note_on_c, 0, 67, 65
1, 220440, Note_on_c, 0, 74, 65
1, 220535, Note_on_c, 0, 74, 0
1, 220535, Note_on_c, 0, 67, 0
1, 220560, Note_on_c, 0, 65, 65
1, 220655, Note_on_c, 0, 65, 0
1, 220680, Note_on_c, 0, 67, 65
1, 220680, Note_on_c, 0, 74, 65
1, 220775, Note_on_c, 0, 74, 0
1, 220775, Note_on_c, 0, 67, 0
1, 220800, Note_on_c, 0, 60, 65
1, 220800, Note_on_c, 0, 77, 65
1, 220895, Note_on_c, 0, 77, 0
1, 220895, Note_on_c, 0, 60, 0
1, 220920, Note_on_c, 0, 67, 65
1, 220920, Note_on_c, 0, 75, 65
1, 221015, Note_on_c, 0, 75, 0
1, 221015, Note_on_c, 0, 67, 0
1, 221040, Note_on_c, 0, 63, 65
1, 221135, Note_on_c, 0, 63, 0
1, 221160, Note_on_c, 0, 67, 65
1, 221160, Note_on_c, 0, 75, 65
1, 221255, Note_on_c, 0, 75, 0
1, 221255, Note_on_c, 0, 67, 0
1, 221280, Note_on_c, 0, 76, 65
1, 221280, Note_on_c, 1, 50, 65
1, 221375, Note_on_c, 0, 76, 0
1, 221375, Note_on_c, 1, 50, 0
1, 221400, Note_on_c, 0, 77, 65
1, 221400, Note_on_c, 1, 59, 65
1, 221495, Note_on_c, 0, 77, 0
1, 221495, Note_on_c, 1, 59, 0
1, 221520, Note_on_c, 1, 53, 65
1, 221615, Note_on_c, 1, 53, 0
1, 221640, Note_on_c, 0, 77, 65
1, 221640, Note_on_c, 1, 59, 65
1, 221735, Note_on_c, 0, 77, 0
1, 221735, Note_on_c, 1, 59, 0
1, 221760, Note_on_c, 0, 78, 65
1, 221760, Note_on_c, 1, 51, 65
1, 221855, Note_on_c, 0, 78, 0
1, 221855, Note_on_c, 1, 51, 0
1, 221880, Note_on_c, 0, 60, 65
1, 221880, Note_on_c, 0, 79, 65
1, 221975, Note_on_c, 0, 79, 0
1, 221975, Note_on_c, 0, 60, 0
1, 222000, Note_on_c, 1, 52, 65
1, 222095, Note_on_c, 1, 52, 0
1, 222120, Note_on_c, 0, 60, 65
1, 222120, Note_on_c, 0, 79, 65
1, 222215, Note_on_c, 0, 79, 0
1, 222215, Note_on_c, 0, 60, 0
1, 222240, Note_on_c, 0, 82, 65
1, 222240, Note_on_c, 1, 53, 65
1, 222335, Note_on_c, 0, 82, 0
1, 222335, Note_on_c, 1, 53, 0
1, 222360, Note_on_c, 0, 60, 65
1, 222360, Note_on_c, 0, 80, 65
1, 222455, Note_on_c, 0, 80, 0
1, 222455, Note_on_c, 0, 60, 0
1, 222480, Note_on_c, 1, 54, 65
1, 222575, Note_on_c, 1, 54, 0
1, 222600, Note_on_c, 0, 63, 65
1, 222600, Note_on_c, 0, 84, 65
1, 222695, Note_on_c, 0, 84, 0
1, 222695, Note_on_c, 0, 63, 0
1, 222720, Note_on_c, 0, 84, 65
1, 222720, Note_on_c, 1, 55, 65
1, 222815, Note_on_c, 0, 84, 0
1, 222815, Note_on_c, 1, 55, 0
1, 222840, Note_on_c, 0, 63, 65
1, 222840, Note_on_c, 0, 72, 65
1, 222935, Note_on_c, 0, 72, 0
1, 222935, Note_on_c, 0, 63, 0
1, 222960, Note_on_c, 0, 72, 65
1, 222960, Note_on_c, 0, 60, 65
1, 223055, Note_on_c, 0, 60, 0
1, 223080, Note_on_c, 0, 63, 65
1, 223175, Note_on_c, 0, 63, 0
1, 223200, Note_on_c, 1, 55, 65
1, 223295, Note_on_c, 1, 55, 0
1, 223320, Note_on_c, 0, 65, 65
1, 223342, Note_on_c, 0, 72, 0
1, 223415, Note_on_c, 0, 65, 0
1, 223440, Note_on_c, 0, 62, 65
1, 223440, Note_on_c, 0, 75, 65
1, 223535, Note_on_c, 0, 75, 0
1, 223535, Note_on_c, 0, 62, 0
1, 223560, Note_on_c, 0, 65, 65
1, 223560, Note_on_c, 0, 74, 65
1, 223655, Note_on_c, 0, 74, 0
1, 223655, Note_on_c, 0, 65, 0
1, 223680, Note_on_c, 0, 72, 95
1, 223680, Note_on_c, 1, 48, 95
1, 223775, Note_on_c, 0, 72, 0
1, 223775, Note_on_c, 1, 48, 0
1, 223800, Note_on_c, 0, 72, 95
1, 223800, Note_on_c, 1, 55, 95
1, 223895, Note_on_c, 0, 72, 0
1, 223895, Note_on_c, 1, 55, 0
1, 223920, Note_on_c, 0, 72, 95
1, 223920, Note_on_c, 1, 51, 95
1, 223942, Note_on_c, 0, 72, 0
1, 223950, Note_on_c, 0, 74, 95
1, 223972, Note_on_c, 0, 74, 0
1, 223980, Note_on_c, 0, 72, 95
1, 224002, Note_on_c, 0, 72, 0
1, 224010, Note_on_c, 0, 74, 95
1, 224015, Note_on_c, 1, 51, 0
1, 224032, Note_on_c, 0, 74, 0
1, 224040, Note_on_c, 0, 71, 95
1, 224040, Note_on_c, 1, 55, 95
1, 224087, Note_on_c, 0, 71, 0
1, 224100, Note_on_c, 0, 72, 95
1, 224135, Note_on_c, 1, 55, 0
1, 224147, Note_on_c, 0, 72, 0
1, 224160, Note_on_c, 0, 74, 95
1, 224160, Note_on_c, 1, 47, 95
1, 224255, Note_on_c, 0, 74, 0
1, 224255, Note_on_c, 1, 47, 0
1, 224280, Note_on_c, 0, 74, 95
1, 224280, Note_on_c, 1, 55, 95
1, 224375, Note_on_c, 0, 74, 0
1, 224375, Note_on_c, 1, 55, 0
1, 224400, Note_on_c, 0, 74, 95
1, 224400, Note_on_c, 1, 53, 95
1, 224422, Note_on_c, 0, 74, 0
1, 224430, Note_on_c, 0, 75, 95
1, 224452, Note_on_c, 0, 75, 0
1, 224460, Note_on_c, 0, 74, 95
1, 224482, Note_on_c, 0, 74, 0
1, 224490, Note_on_c, 0, 75, 95
1, 224495, Note_on_c, 1, 53, 0
1, 224512, Note_on_c, 0, 75, 0
1, 224520, Note_on_c, 0, 72, 95
1, 224520, Note_on_c, 1, 55, 95
1, 224567, Note_on_c, 0, 72, 0
1, 224580, Note_on_c, 0, 74, 95
1, 224615, Note_on_c, 1, 55, 0
1, 224627, Note_on_c, 0, 74, 0
1, 224640, Note_on_c, 0, 75, 95
1, 224640, Note_on_c, 1, 48, 95
1, 224735, Note_on_c, 0, 75, 0
1, 224735, Note_on_c, 1, 48, 0
1, 224760, Note_on_c, 0, 75, 95
1, 224760, Note_on_c, 1, 55, 95
1, 224855, Note_on_c, 0, 75, 0
1, 224855, Note_on_c, 1, 55, 0
1, 224880, Note_on_c, 0, 75, 95
1, 224880, Note_on_c, 1, 51, 95
1, 224902, Note_on_c, 0, 75, 0
1, 224910, Note_on_c, 0, 77, 95
1, 224932, Note_on_c, 0, 77, 0
1, 224940, Note_on_c, 0, 75, 95
1, 224962, Note_on_c, 0, 75, 0
1, 224970, Note_on_c, 0, 77, 95
1, 224975, Note_on_c, 1, 51, 0
1, 224992, Note_on_c, 0, 77, 0
1, 225000, Note_on_c, 0, 74, 95
1, 225000, Note_on_c, 1, 55, 95
1, 225047, Note_on_c, 0, 74, 0
1, 225060, Note_on_c, 0, 75, 95
1, 225095, Note_on_c, 1, 55, 0
1, 225107, Note_on_c, 0, 75, 0
1, 225120, Note_on_c, 0, 77, 95
1, 225120, Note_on_c, 1, 50, 95
1, 225215, Note_on_c, 0, 77, 0
1, 225215, Note_on_c, 1, 50, 0
1, 225240, Note_on_c, 0, 77, 95
1, 225240, Note_on_c, 1, 59, 95
1, 225335, Note_on_c, 0, 77, 0
1, 225335, Note_on_c, 1, 59, 0
1, 225360, Note_on_c, 0, 77, 95
1, 225360, Note_on_c, 1, 55, 95
1, 225382, Note_on_c, 0, 77, 0
1, 225390, Note_on_c, 0, 79, 95
1, 225412, Note_on_c, 0, 79, 0
1, 225420, Note_on_c, 0, 77, 95
1, 225442, Note_on_c, 0, 77, 0
1, 225450, Note_on_c, 0, 79, 95
1, 225455, Note_on_c, 1, 55, 0
1, 225472, Note_on_c, 0, 79, 0
1, 225480, Note_on_c, 0, 75, 95
1, 225480, Note_on_c, 1, 59, 95
1, 225527, Note_on_c, 0, 75, 0
1, 225540, Note_on_c, 0, 77, 95
1, 225575, Note_on_c, 1, 59, 0
1, 225587, Note_on_c, 0, 77, 0
1, 225600, Note_on_c, 0, 79, 95
1, 225600, Note_on_c, 0, 60, 95
1, 225600, Note_on_c, 1, 48, 95
1, 225662, Note_on_c, 0, 79, 0
1, 225680, Note_on_c, 0, 84, 95
1, 225742, Note_on_c, 0, 84, 0
1, 225760, Note_on_c, 0, 82, 95
1, 225822, Note_on_c, 0, 82, 0
1, 225840, Note_on_c, 0, 80, 95
1, 225902, Note_on_c, 0, 80, 0
1, 225920, Note_on_c, 0, 79, 95
1, 225982, Note_on_c, 0, 79, 0
1, 226000, Note_on_c, 0, 77, 95
1, 226062, Note_on_c, 0, 77, 0
1, 226080, Note_on_c, 0, 75, 95
1, 226142, Note_on_c, 0, 75, 0
1, 226160, Note_on_c, 0, 74, 95
1, 226175, Note_on_c, 0, 60, 0
1, 226175, Note_on_c, 1, 48, 0
1, 226222, Note_on_c, 0, 74, 0
1, 226240, Note_on_c, 0, 72, 95
1, 226302, Note_on_c, 0, 72, 0
1, 226320, Note_on_c, 0, 70, 95
1, 226320, Note_on_c, 1, 52, 95
1, 226382, Note_on_c, 0, 70, 0
1, 226400, Note_on_c, 0, 68, 95
1, 226462, Note_on_c, 0, 68, 0
1, 226480, Note_on_c, 0, 67, 95
1, 226510, Note_on_c, 1, 52, 0
1, 226542, Note_on_c, 0, 67, 0
1, 226560, Note_on_c, 0, 60, 95
1, 226560, Note_on_c, 0, 68, 95
1, 226560, Note_on_c, 1, 53, 95
1, 226750, Note_on_c, 0, 68, 0
1, 226750, Note_on_c, 0, 60, 0
1, 226750, Note_on_c, 1, 53, 0
1, 226800, Note_on_c, 0, 72, 95
1, 226800, Note_on_c, 0, 80, 95
1, 226800, Note_on_c, 0, 77, 95
1, 226800, Note_on_c, 1, 53, 95
1, 226990, Note_on_c, 0, 77, 0
1, 226990, Note_on_c, 0, 80, 0
1, 226990, Note_on_c, 0, 72, 0
1, 226990, Note_on_c, 1, 53, 0
1, 227040, Note_on_c, 0, 72, 95
1, 227040, Note_on_c, 0, 75, 95
1, 227040, Note_on_c, 0, 79, 95
1, 227040, Note_on_c, 1, 55, 95
1, 227230, Note_on_c, 0, 79, 0
1, 227230, Note_on_c, 0, 75, 0
1, 227230, Note_on_c, 0, 72, 0
1, 227230, Note_on_c, 1, 55, 0
1, 227280, Note_on_c, 0, 62, 95
1, 227280, Note_on_c, 0, 65, 95
1, 227280, Note_on_c, 0, 71, 95
1, 227280, Note_on_c, 1, 43, 95
1, 227470, Note_on_c, 0, 71, 0
1, 227470, Note_on_c, 0, 65, 0
1, 227470, Note_on_c, 0, 62, 0
1, 227470, Note_on_c, 1, 43, 0
1, 227520, Note_on_c, 0, 72, 95
1, 227520, Note_on_c, 0, 63, 95
1, 227520, Note_on_c, 1, 48, 95
1, 227710, Note_on_c, 0, 63, 0
1, 227710, Note_on_c, 0, 72, 0
1, 227710, Note_on_c, 1, 48, 0
1, 227760, Note_on_c, 0, 79, 95
1, 227822, Note_on_c, 0, 79, 0
1, 227840, Note_on_c, 0, 78, 95
1, 227902, Note_on_c, 0, 78, 0
1, 227920, Note_on_c, 0, 80, 95
1, 227982, Note_on_c, 0, 80, 0
1, 228000, Note_on_c, 0, 79, 95
1, 228062, Note_on_c, 0, 79, 0
1, 228080, Note_on_c, 0, 77, 95
1, 228142, Note_on_c, 0, 77, 0
1, 228160, Note_on_c, 0, 75, 95
1, 228222, Note_on_c, 0, 75, 0
1, 228240, Note_on_c, 0, 60, 95
1, 228240, Note_on_c, 0, 74, 95
1, 228240, Note_on_c, 0, 63, 95
1, 228302, Note_on_c, 0, 74, 0
1, 228320, Note_on_c, 0, 75, 95
1, 228382, Note_on_c, 0, 75, 0
1, 228400, Note_on_c, 0, 72, 95
1, 228430, Note_on_c, 0, 63, 0
1, 228430, Note_on_c, 0, 60, 0
1, 228462, Note_on_c, 0, 72, 0
1, 228480, Note_on_c, 0, 71, 95
1, 228480, Note_on_c, 0, 65, 95
1, 228480, Note_on_c, 0, 62, 95
1, 228480, Note_on_c, 1, 55, 95
1, 228670, Note_on_c, 0, 62, 0
1, 228670, Note_on_c, 0, 65, 0
1, 228670, Note_on_c, 0, 71, 0
1, 228670, Note_on_c, 1, 55, 0
1, 228720, Note_on_c, 0, 77, 95
1, 228782, Note_on_c, 0, 77, 0
1, 228800, Note_on_c, 0, 76, 95
1, 228862, Note_on_c, 0, 76, 0
1, 228880, Note_on_c, 0, 79, 95
1, 228942, Note_on_c, 0, 79, 0
1, 228960, Note_on_c, 0, 77, 95
1, 229022, Note_on_c, 0, 77, 0
1, 229040, Note_on_c, 0, 75, 95
1, 229102, Note_on_c, 0, 75, 0
1, 229120, Note_on_c, 0, 74, 95
1, 229182, Note_on_c, 0, 74, 0
1, 229200, Note_on_c, 0, 65, 95
1, 229200, Note_on_c, 0, 72, 95
1, 229200, Note_on_c, 0, 62, 95
1, 229200, Note_on_c, 1, 56, 95
1, 229262, Note_on_c, 0, 72, 0
1, 229280, Note_on_c, 0, 71, 95
1, 229342, Note_on_c, 0, 71, 0
1, 229360, Note_on_c, 0, 74, 95
1, 229390, Note_on_c, 0, 62, 0
1, 229390, Note_on_c, 0, 65, 0
1, 229390, Note_on_c, 1, 56, 0
1, 229422, Note_on_c, 0, 74, 0
1, 229440, Note_on_c, 0, 60, 95
1, 229440, Note_on_c, 0, 72, 95
1, 229440, Note_on_c, 0, 63, 95
1, 229630, Note_on_c, 0, 63, 0
1, 229630, Note_on_c, 0, 72, 0
1, 229630, Note_on_c, 0, 60, 0
1, 229680, Note_on_c, 0, 79, 95
1, 229742, Note_on_c, 0, 79, 0
1, 229760, Note_on_c, 0, 78, 95
1, 229822, Note_on_c, 0, 78, 0
1, 229840, Note_on_c, 0, 80, 95
1, 229902, Note_on_c, 0, 80, 0
1, 229920, Note_on_c, 0, 79, 95
1, 229982, Note_on_c, 0, 79, 0
1, 230000, Note_on_c, 0, 77, 95
1, 230062, Note_on_c, 0, 77, 0
1, 230080, Note_on_c, 0, 75, 95
1, 230142, Note_on_c, 0, 75, 0
1, 230160, Note_on_c, 0, 74, 95
1, 230160, Note_on_c, 1, 48, 95
1, 230160, Note_on_c, 1, 51, 95
1, 230222, Note_on_c, 0, 74, 0
1, 230240, Note_on_c, 0, 75, 95
1, 230302, Note_on_c, 0, 75, 0
1, 230320, Note_on_c, 0, 72, 95
1, 230350, Note_on_c, 1, 51, 0
1, 230350, Note_on_c, 1, 48, 0
1, 230382, Note_on_c, 0, 72, 0
1, 230400, Note_on_c, 0, 80, 95
1, 230400, Note_on_c, 1, 50, 95
1, 230400, Note_on_c, 1, 53, 95
1, 230400, Note_on_c, 1, 47, 95
1, 230400, Note_on_c, 1, 43, 95
1, 230462, Note_on_c, 0, 80, 0
1, 230480, Note_on_c, 0, 79, 95
1, 230542, Note_on_c, 0, 79, 0
1, 230560, Note_on_c, 0, 77, 95
1, 230622, Note_on_c, 0, 77, 0
1, 230640, Note_on_c, 0, 75, 95
1, 230702, Note_on_c, 0, 75, 0
1, 230720, Note_on_c, 0, 74, 95
1, 230782, Note_on_c, 0, 74, 0
1, 230800, Note_on_c, 0, 72, 95
1, 230862, Note_on_c, 0, 72, 0
1, 230880, Note_on_c, 0, 71, 95
1, 230942, Note_on_c, 0, 71, 0
1, 230960, Note_on_c, 0, 68, 95
1, 231022, Note_on_c, 0, 68, 0
1, 231040, Note_on_c, 0, 67, 95
1, 231102, Note_on_c, 0, 67, 0
1, 231120, Note_on_c, 0, 65, 95
1, 231167, Note_on_c, 1, 43, 0
1, 231167, Note_on_c, 1, 50, 0
1, 231167, Note_on_c, 1, 53, 0
1, 231167, Note_on_c, 1, 47, 0
1, 231182, Note_on_c, 0, 65, 0
1, 231200, Note_on_c, 0, 63, 95
1, 231262, Note_on_c, 0, 63, 0
1, 231280, Note_on_c, 0, 62, 95
1, 231342, Note_on_c, 0, 62, 0
1, 231360, Note_on_c, 0, 60, 80
1, 231360, Note_on_c, 1, 36, 80
1, 231360, Note_on_c, 1, 48, 80
1, 231742, Note_on_c, 0, 60, 0
1, 231742, Note_on_c, 1, 48, 0
1, 231742, Note_on_c, 1, 36, 0
1, 231840, Note_on_c, 0, 64, 80
1, 231840, Note_on_c, 1, 40, 80
1, 231840, Note_on_c, 1, 52, 80
1, 232030, Note_on_c, 0, 64, 0
1, 232030, Note_on_c, 1, 52, 0
1, 232030, Note_on_c, 1, 40, 0
1, 232080, Note_on_c, 0, 67, 80
1, 232080, Note_on_c, 1, 43, 80
1, 232080, Note_on_c, 1, 55, 80
1, 232270, Note_on_c, 0, 67, 0
1, 232270, Note_on_c, 1, 55, 0
1, 232270, Note_on_c, 1, 43, 0
1, 232320, Note_on_c, 0, 60, 95
1, 232320, Note_on_c, 0, 72, 95
1, 232320, Note_on_c, 1, 48, 95
1, 232510, Note_on_c, 0, 72, 0
1, 232510, Note_on_c, 0, 60, 0
1, 232510, Note_on_c, 1, 48, 0
1, 232560, Note_on_c, 0, 76, 95
1, 232560, Note_on_c, 0, 64, 95
1, 232560, Note_on_c, 1, 52, 95
1, 232750, Note_on_c, 0, 64, 0
1, 232750, Note_on_c, 0, 76, 0
1, 232750, Note_on_c, 1, 52, 0
1, 232980, Note_on_c, 0, 79, 95
1, 233027, Note_on_c, 0, 79, 0
1, 233040, Note_on_c, 0, 79, 95
1, 233062, Note_on_c, 0, 79, 0
1, 233070, Note_on_c, 0, 80, 95
1, 233092, Note_on_c, 0, 80, 0
1, 233100, Note_on_c, 0, 79, 95
1, 233122, Note_on_c, 0, 79, 0
1, 233130, Note_on_c, 0, 80, 95
1, 233152, Note_on_c, 0, 80, 0
1, 233160, Note_on_c, 0, 77, 95
1, 233207, Note_on_c, 0, 77, 0
1, 233220, Note_on_c, 0, 79, 95
1, 233267, Note_on_c, 0, 79, 0
1, 233280, Note_on_c, 0, 82, 95
1, 233280, Note_on_c, 1, 46, 95
1, 233280, Note_on_c, 1, 34, 95
1, 233342, Note_on_c, 0, 82, 0
1, 233360, Note_on_c, 0, 84, 95
1, 233422, Note_on_c, 0, 84, 0
1, 233440, Note_on_c, 0, 85, 95
1, 233502, Note_on_c, 0, 85, 0
1, 233520, Note_on_c, 0, 84, 95
1, 233582, Note_on_c, 0, 84, 0
1, 233600, Note_on_c, 0, 82, 95
1, 233662, Note_on_c, 0, 82, 0
1, 233662, Note_on_c, 1, 34, 0
1, 233662, Note_on_c, 1, 46, 0
1, 233680, Note_on_c, 0, 80, 95
1, 233742, Note_on_c, 0, 80, 0
1, 233760, Note_on_c, 0, 79, 95
1, 233760, Note_on_c, 1, 40, 95
1, 233760, Note_on_c, 1, 52, 95
1, 233822, Note_on_c, 0, 79, 0
1, 233840, Note_on_c, 0, 80, 95
1, 233902, Note_on_c, 0, 80, 0
1, 233920, Note_on_c, 0, 82, 95
1, 233950, Note_on_c, 1, 52, 0
1, 233950, Note_on_c, 1, 40, 0
1, 233982, Note_on_c, 0, 82, 0
1, 234000, Note_on_c, 0, 80, 95
1, 234000, Note_on_c, 1, 43, 95
1, 234000, Note_on_c, 1, 55, 95
1, 234062, Note_on_c, 0, 80, 0
1, 234080, Note_on_c, 0, 79, 95
1, 234142, Note_on_c, 0, 79, 0
1, 234160, Note_on_c, 0, 77, 95
1, 234190, Note_on_c, 1, 55, 0
1, 234190, Note_on_c, 1, 43, 0
1, 234222, Note_on_c, 0, 77, 0
1, 234240, Note_on_c, 0, 76, 95
1, 234240, Note_on_c, 1, 58, 95
1, 234240, Note_on_c, 1, 46, 95
1, 234302, Note_on_c, 0, 76, 0
1, 234320, Note_on_c, 0, 79, 95
1, 234382, Note_on_c, 0, 79, 0
1, 234400, Note_on_c, 0, 76, 95
1, 234430, Note_on_c, 1, 46, 0
1, 234430, Note_on_c, 1, 58, 0
1, 234462, Note_on_c, 0, 76, 0
1, 234480, Note_on_c, 0, 61, 95
1, 234480, Note_on_c, 0, 73, 95
1, 234480, Note_on_c, 1, 49, 95
1, 234542, Note_on_c, 0, 73, 0
1, 234560, Note_on_c, 0, 76, 95
1, 234622, Note_on_c, 0, 76, 0
1, 234640, Note_on_c, 0, 73, 95
1, 234670, Note_on_c, 0, 61, 0
1, 234670, Note_on_c, 1, 49, 0
1, 234702, Note_on_c, 0, 73, 0
1, 234720, Note_on_c, 0, 70, 84
1, 234782, Note_on_c, 0, 70, 0
1, 234800, Note_on_c, 0, 73, 83
1, 234862, Note_on_c, 0, 73, 0
1, 234880, Note_on_c, 0, 70, 84
1, 234942, Note_on_c, 0, 70, 0
1, 234960, Note_on_c, 0, 67, 75
1, 235022, Note_on_c, 0, 67, 0
1, 235040, Note_on_c, 0, 70, 73
1, 235102, Note_on_c, 0, 70, 0
1, 235120, Note_on_c, 0, 67, 75
1, 235182, Note_on_c, 0, 67, 0
1, 235200, Note_on_c, 0, 68, 65
1, 235200, Note_on_c, 1, 53, 65
1, 235295, Note_on_c, 1, 53, 0
1, 235320, Note_on_c, 0, 60, 65
1, 235415, Note_on_c, 0, 60, 0
1, 235440, Note_on_c, 1, 56, 65
1, 235487, Note_on_c, 0, 68, 0
1, 235535, Note_on_c, 1, 56, 0
1, 235560, Note_on_c, 0, 70, 65
1, 235560, Note_on_c, 0, 60, 65
1, 235582, Note_on_c, 0, 70, 0
1, 235590, Note_on_c, 0, 68, 65
1, 235612, Note_on_c, 0, 68, 0
1, 235620, Note_on_c, 0, 67, 65
1, 235642, Note_on_c, 0, 67, 0
1, 235650, Note_on_c, 0, 68, 65
1, 235655, Note_on_c, 0, 60, 0
1, 235672, Note_on_c, 0, 68, 0
1, 235680, Note_on_c, 0, 70, 65
1, 235680, Note_on_c, 1, 55, 65
1, 235775, Note_on_c, 1, 55, 0
1, 235800, Note_on_c, 0, 60, 65
1, 235870, Note_on_c, 0, 70, 0
1, 235895, Note_on_c, 0, 60, 0
1, 235920, Note_on_c, 0, 64, 65
1, 235920, Note_on_c, 1, 58, 65
1, 236015, Note_on_c, 1, 58, 0
1, 236040, Note_on_c, 0, 60, 65
1, 236110, Note_on_c, 0, 64, 0
1, 236135, Note_on_c, 0, 60, 0
1, 236160, Note_on_c, 0, 65, 65
1, 236160, Note_on_c, 1, 56, 65
1, 236255, Note_on_c, 0, 65, 0
1, 236255, Note_on_c, 1, 56, 0
1, 236280, Note_on_c, 0, 60, 65
1, 236280, Note_on_c, 0, 68, 65
1, 236375, Note_on_c, 0, 68, 0
1, 236375, Note_on_c, 0, 60, 0
1, 236400, Note_on_c, 0, 72, 65
1, 236400, Note_on_c, 1, 53, 65
1, 236495, Note_on_c, 1, 53, 0
1, 236520, Note_on_c, 0, 60, 65
1, 236615, Note_on_c, 0, 60, 0
1, 236640, Note_on_c, 1, 52, 65
1, 236687, Note_on_c, 0, 72, 0
1, 236735, Note_on_c, 1, 52, 0
1, 236760, Note_on_c, 0, 71, 65
1, 236760, Note_on_c, 0, 60, 65
1, 236855, Note_on_c, 0, 60, 0
1, 236855, Note_on_c, 0, 71, 0
1, 236880, Note_on_c, 0, 70, 65
1, 236880, Note_on_c, 1, 48, 65
1, 236975, Note_on_c, 0, 70, 0
1, 236975, Note_on_c, 1, 48, 0
1, 237000, Note_on_c, 0, 60, 65
1, 237000, Note_on_c, 0, 67, 65
1, 237095, Note_on_c, 0, 67, 0
1, 237095, Note_on_c, 0, 60, 0
1, 237120, Note_on_c, 0, 68, 65
1, 237120, Note_on_c, 1, 53, 65
1, 237215, Note_on_c, 1, 53, 0
1, 237240, Note_on_c, 0, 60, 65
1, 237335, Note_on_c, 0, 60, 0
1, 237360, Note_on_c, 1, 56, 65
1, 237407, Note_on_c, 0, 68, 0
1, 237455, Note_on_c, 1, 56, 0
1, 237480, Note_on_c, 0, 70, 65
1, 237480, Note_on_c, 0, 60, 65
1, 237507, Note_on_c, 0, 70, 0
1, 237510, Note_on_c, 0, 68, 65
1, 237537, Note_on_c, 0, 68, 0
1, 237540, Note_on_c, 0, 67, 65
1, 237567, Note_on_c, 0, 67, 0
1, 237570, Note_on_c, 0, 68, 65
1, 237575, Note_on_c, 0, 60, 0
1, 237597, Note_on_c, 0, 68, 0
1, 237600, Note_on_c, 0, 70, 65
1, 237600, Note_on_c, 1, 55, 65
1, 237695, Note_on_c, 1, 55, 0
1, 237720, Note_on_c, 0, 60, 65
1, 237790, Note_on_c, 0, 70, 0
1, 237815, Note_on_c, 0, 60, 0
1, 237840, Note_on_c, 0, 64, 65
1, 237840, Note_on_c, 1, 58, 65
1, 237935, Note_on_c, 1, 58, 0
1, 237960, Note_on_c, 0, 60, 65
1, 238030, Note_on_c, 0, 64, 0
1, 238055, Note_on_c, 0, 60, 0
1, 238080, Note_on_c, 0, 65, 65
1, 238080, Note_on_c, 1, 56, 65
1, 238175, Note_on_c, 0, 65, 0
1, 238175, Note_on_c, 1, 56, 0
1, 238200, Note_on_c, 0, 60, 65
1, 238200, Note_on_c, 0, 77, 65
1, 238295, Note_on_c, 0, 77, 0
1, 238295, Note_on_c, 0, 60, 0
1, 238320, Note_on_c, 0, 75, 65
1, 238320, Note_on_c, 1, 53, 65
1, 238415, Note_on_c, 0, 75, 0
1, 238415, Note_on_c, 1, 53, 0
1, 238440, Note_on_c, 0, 60, 65
1, 238440, Note_on_c, 0, 73, 65
1, 238535, Note_on_c, 0, 73, 0
1, 238535, Note_on_c, 0, 60, 0
1, 238560, Note_on_c, 0, 72, 76
1, 238560, Note_on_c, 1, 52, 75
1, 238655, Note_on_c, 0, 72, 0
1, 238655, Note_on_c, 1, 52, 0
1, 238680, Note_on_c, 0, 60, 75
1, 238680, Note_on_c, 0, 71, 76
1, 238775, Note_on_c, 0, 71, 0
1, 238775, Note_on_c, 0, 60, 0
1, 238800, Note_on_c, 0, 70, 85
1, 238800, Note_on_c, 1, 48, 85
1, 238895, Note_on_c, 0, 70, 0
1, 238895, Note_on_c, 1, 48, 0
1, 238920, Note_on_c, 0, 60, 85
1, 238920, Note_on_c, 0, 67, 86
1, 239015, Note_on_c, 0, 67, 0
1, 239015, Note_on_c, 0, 60, 0
1, 239040, Note_on_c, 0, 68, 95
1, 239040, Note_on_c, 1, 53, 95
1, 239102, Note_on_c, 1, 53, 0
1, 239120, Note_on_c, 1, 56, 95
1, 239182, Note_on_c, 1, 56, 0
1, 239200, Note_on_c, 0, 60, 95
1, 239262, Note_on_c, 0, 60, 0
1, 239280, Note_on_c, 1, 58, 95
1, 239342, Note_on_c, 1, 58, 0
1, 239360, Note_on_c, 1, 56, 95
1, 239422, Note_on_c, 0, 68, 0
1, 239422, Note_on_c, 1, 56, 0
1, 239440, Note_on_c, 1, 55, 95
1, 239502, Note_on_c, 1, 55, 0
1, 239520, Note_on_c, 0, 72, 95
1, 239520, Note_on_c, 1, 53, 95
1, 239582, Note_on_c, 1, 53, 0
1, 239600, Note_on_c, 1, 56, 95
1, 239662, Note_on_c, 1, 56, 0
1, 239680, Note_on_c, 0, 60, 95
1, 239710, Note_on_c, 0, 72, 0
1, 239742, Note_on_c, 0, 60, 0
1, 239760, Note_on_c, 0, 77, 95
1, 239760, Note_on_c, 1, 58, 95
1, 239822, Note_on_c, 1, 58, 0
1, 239840, Note_on_c, 1, 56, 95
1, 239902, Note_on_c, 1, 56, 0
1, 239920, Note_on_c, 1, 55, 95
1, 239950, Note_on_c, 0, 77, 0
1, 239982, Note_on_c, 1, 55, 0
1, 240000, Note_on_c, 0, 80, 95
1, 240000, Note_on_c, 1, 53, 95
1, 240062, Note_on_c, 1, 53, 0
1, 240080, Note_on_c, 1, 56, 95
1, 240142, Note_on_c, 1, 56, 0
1, 240160, Note_on_c, 0, 60, 95
1, 240190, Note_on_c, 0, 80, 0
1, 240222, Note_on_c, 0, 60, 0
1, 240240, Note_on_c, 0, 84, 95
1, 240240, Note_on_c, 1, 58, 95
1, 240302, Note_on_c, 1, 58, 0
1, 240320, Note_on_c, 1, 56, 95
1, 240382, Note_on_c, 1, 56, 0
1, 240400, Note_on_c, 1, 55, 95
1, 240430, Note_on_c, 0, 84, 0
1, 240462, Note_on_c, 1, 55, 0
1, 240480, Note_on_c, 1, 53, 95
1, 240542, Note_on_c, 1, 53, 0
1, 240560, Note_on_c, 1, 55, 95
1, 240622, Note_on_c, 1, 55, 0
1, 240640, Note_on_c, 1, 53, 95
1, 240702, Note_on_c, 1, 53, 0
1, 240720, Note_on_c, 1, 51, 95
1, 240782, Note_on_c, 1, 51, 0
1, 240800, Note_on_c, 1, 53, 95
1, 240862, Note_on_c, 1, 53, 0
1, 240880, Note_on_c, 1, 51, 95
1, 240942, Note_on_c, 1, 51, 0
1, 240960, Note_on_c, 0, 84, 95
1, 240960, Note_on_c, 1, 50, 95
1, 240960, Note_on_c, 1, 38, 95
1, 241022, Note_on_c, 0, 84, 0
1, 241040, Note_on_c, 0, 86, 95
1, 241102, Note_on_c, 0, 86, 0
1, 241120, Note_on_c, 0, 87, 95
1, 241182, Note_on_c, 0, 87, 0
1, 241200, Note_on_c, 0, 86, 95
1, 241262, Note_on_c, 0, 86, 0
1, 241280, Note_on_c, 0, 84, 95
1, 241342, Note_on_c, 0, 84, 0
1, 241342, Note_on_c, 1, 38, 0
1, 241342, Note_on_c, 1, 50, 0
1, 241360, Note_on_c, 0, 82, 95
1, 241422, Note_on_c, 0, 82, 0
1, 241440, Note_on_c, 0, 81, 95
1, 241440, Note_on_c, 1, 42, 95
1, 241440, Note_on_c, 1, 54, 95
1, 241502, Note_on_c, 0, 81, 0
1, 241520, Note_on_c, 0, 82, 95
1, 241582, Note_on_c, 0, 82, 0
1, 241600, Note_on_c, 0, 84, 95
1, 241630, Note_on_c, 1, 54, 0
1, 241630, Note_on_c, 1, 42, 0
1, 241662, Note_on_c, 0, 84, 0
1, 241680, Note_on_c, 0, 82, 95
1, 241680, Note_on_c, 1, 45, 95
1, 241680, Note_on_c, 1, 57, 95
1, 241742, Note_on_c, 0, 82, 0
1, 241760, Note_on_c, 0, 81, 95
1, 241822, Note_on_c, 0, 81, 0
1, 241840, Note_on_c, 0, 79, 95
1, 241870, Note_on_c, 1, 57, 0
1, 241870, Note_on_c, 1, 45, 0
1, 241902, Note_on_c, 0, 79, 0
1, 241920, Note_on_c, 0, 62, 95
1, 241920, Note_on_c, 0, 78, 95
1, 241920, Note_on_c, 1, 50, 95
1, 241982, Note_on_c, 0, 78, 0
1, 242000, Note_on_c, 0, 81, 95
1, 242062, Note_on_c, 0, 81, 0
1, 242080, Note_on_c, 0, 78, 95
1, 242110, Note_on_c, 0, 62, 0
1, 242110, Note_on_c, 1, 50, 0
1, 242142, Note_on_c, 0, 78, 0
1, 242160, Note_on_c, 0, 66, 95
1, 242160, Note_on_c, 0, 75, 95
1, 242160, Note_on_c, 1, 54, 95
1, 242222, Note_on_c, 0, 75, 0
1, 242240, Note_on_c, 0, 81, 95
1, 242302, Note_on_c, 0, 81, 0
1, 242320, Note_on_c, 0, 75, 95
1, 242350, Note_on_c, 0, 66, 0
1, 242350, Note_on_c, 1, 54, 0
1, 242382, Note_on_c, 0, 75, 0
1, 242400, Note_on_c, 0, 74, 95
1, 242462, Note_on_c, 0, 74, 0
1, 242480, Note_on_c, 0, 81, 95
1, 242542, Note_on_c, 0, 81, 0
1, 242560, Note_on_c, 0, 74, 95
1, 242622, Note_on_c, 0, 74, 0
1, 242640, Note_on_c, 0, 72, 95
1, 242702, Note_on_c, 0, 72, 0
1, 242720, Note_on_c, 0, 81, 95
1, 242782, Note_on_c, 0, 81, 0
1, 242800, Note_on_c, 0, 72, 95
1, 242862, Note_on_c, 0, 72, 0
1, 242880, Note_on_c, 0, 70, 95
1, 242880, Note_on_c, 1, 55, 95
1, 242942, Note_on_c, 1, 55, 0
1, 242960, Note_on_c, 1, 58, 95
1, 243022, Note_on_c, 1, 58, 0
1, 243040, Note_on_c, 0, 62, 95
1, 243102, Note_on_c, 0, 62, 0
1, 243120, Note_on_c, 0, 60, 95
1, 243182, Note_on_c, 0, 60, 0
1, 243200, Note_on_c, 1, 58, 95
1, 243262, Note_on_c, 0, 70, 0
1, 243262, Note_on_c, 1, 58, 0
1, 243280, Note_on_c, 1, 57, 95
1, 243342, Note_on_c, 1, 57, 0
1, 243360, Note_on_c, 0, 74, 95
1, 243360, Note_on_c, 1, 55, 95
1, 243422, Note_on_c, 1, 55, 0
1, 243440, Note_on_c, 1, 58, 95
1, 243502, Note_on_c, 1, 58, 0
1, 243520, Note_on_c, 0, 62, 95
1, 243550, Note_on_c, 0, 74, 0
1, 243582, Note_on_c, 0, 62, 0
1, 243600, Note_on_c, 0, 77, 95
1, 243600, Note_on_c, 0, 60, 95
1, 243662, Note_on_c, 0, 60, 0
1, 243680, Note_on_c, 1, 58, 95
1, 243742, Note_on_c, 1, 58, 0
1, 243760, Note_on_c, 1, 57, 95
1, 243790, Note_on_c, 0, 77, 0
1, 243822, Note_on_c, 1, 57, 0
1, 243840, Note_on_c, 0, 82, 95
1, 243840, Note_on_c, 1, 55, 95
1, 243902, Note_on_c, 1, 55, 0
1, 243920, Note_on_c, 1, 58, 95
1, 243982, Note_on_c, 1, 58, 0
1, 244000, Note_on_c, 0, 62, 95
1, 244030, Note_on_c, 0, 82, 0
1, 244062, Note_on_c, 0, 62, 0
1, 244080, Note_on_c, 0, 86, 95
1, 244080, Note_on_c, 0, 60, 95
1, 244142, Note_on_c, 0, 60, 0
1, 244160, Note_on_c, 1, 58, 95
1, 244222, Note_on_c, 1, 58, 0
1, 244240, Note_on_c, 1, 57, 95
1, 244270, Note_on_c, 0, 86, 0
1, 244302, Note_on_c, 1, 57, 0
1, 244320, Note_on_c, 1, 55, 95
1, 244382, Note_on_c, 1, 55, 0
1, 244400, Note_on_c, 1, 58, 95
1, 244462, Note_on_c, 1, 58, 0
1, 244480, Note_on_c, 0, 62, 95
1, 244542, Note_on_c, 0, 62, 0
1, 244560, Note_on_c, 1, 55, 95
1, 244622, Note_on_c, 1, 55, 0
1, 244640, Note_on_c, 1, 58, 95
1, 244702, Note_on_c, 1, 58, 0
1, 244720, Note_on_c, 0, 62, 95
1, 244782, Note_on_c, 0, 62, 0
1, 244800, Note_on_c, 0, 71, 95
1, 244800, Note_on_c, 1, 53, 95
1, 244862, Note_on_c, 1, 53, 0
1, 244880, Note_on_c, 1, 59, 95
1, 244942, Note_on_c, 1, 59, 0
1, 244960, Note_on_c, 0, 62, 95
1, 245022, Note_on_c, 0, 62, 0
1, 245040, Note_on_c, 1, 55, 95
1, 245102, Note_on_c, 1, 55, 0
1, 245120, Note_on_c, 1, 59, 95
1, 245182, Note_on_c, 0, 71, 0
1, 245182, Note_on_c, 1, 59, 0
1, 245200, Note_on_c, 0, 62, 95
1, 245262, Note_on_c, 0, 62, 0
1, 245280, Note_on_c, 0, 74, 95
1, 245280, Note_on_c, 1, 56, 95
1, 245342, Note_on_c, 1, 56, 0
1, 245360, Note_on_c, 1, 59, 95
1, 245422, Note_on_c, 1, 59, 0
1, 245440, Note_on_c, 0, 62, 95
1, 245470, Note_on_c, 0, 74, 0
1, 245502, Note_on_c, 0, 62, 0
1, 245520, Note_on_c, 0, 77, 95
1, 245520, Note_on_c, 1, 55, 95
1, 245582, Note_on_c, 1, 55, 0
1, 245600, Note_on_c, 1, 59, 95
1, 245662, Note_on_c, 1, 59, 0
1, 245680, Note_on_c, 0, 62, 95
1, 245710, Note_on_c, 0, 77, 0
1, 245742, Note_on_c, 0, 62, 0
1, 245760, Note_on_c, 0, 83, 95
1, 245760, Note_on_c, 1, 53, 95
1, 245822, Note_on_c, 1, 53, 0
1, 245840, Note_on_c, 1, 59, 95
1, 245902, Note_on_c, 1, 59, 0
1, 245920, Note_on_c, 0, 62, 95
1, 245950, Note_on_c, 0, 83, 0
1, 245982, Note_on_c, 0, 62, 0
1, 246000, Note_on_c, 0, 86, 95
1, 246000, Note_on_c, 1, 55, 95
1, 246062, Note_on_c, 1, 55, 0
1, 246080, Note_on_c, 1, 59, 95
1, 246142, Note_on_c, 1, 59, 0
1, 246160, Note_on_c, 0, 62, 95
1, 246190, Note_on_c, 0, 86, 0
1, 246222, Note_on_c, 0, 62, 0
1, 246240, Note_on_c, 1, 56, 95
1, 246302, Note_on_c, 1, 56, 0
1, 246320, Note_on_c, 1, 59, 95
1, 246382, Note_on_c, 1, 59, 0
1, 246400, Note_on_c, 0, 62, 95
1, 246462, Note_on_c, 0, 62, 0
1, 246480, Note_on_c, 1, 53, 95
1, 246542, Note_on_c, 1, 53, 0
1, 246560, Note_on_c, 1, 59, 95
1, 246622, Note_on_c, 1, 59, 0
1, 246640, Note_on_c, 0, 62, 95
1, 246702, Note_on_c, 0, 62, 0
1, 246720, Note_on_c, 0, 72, 95
1, 246720, Note_on_c, 1, 51, 95
1, 246782, Note_on_c, 1, 51, 0
1, 246800, Note_on_c, 1, 55, 95
1, 246862, Note_on_c, 1, 55, 0
1, 246880, Note_on_c, 0, 60, 95
1, 246942, Note_on_c, 0, 60, 0
1, 246960, Note_on_c, 1, 53, 95
1, 247022, Note_on_c, 1, 53, 0
1, 247040, Note_on_c, 1, 56, 95
1, 247102, Note_on_c, 0, 72, 0
1, 247102, Note_on_c, 1, 56, 0
1, 247120, Note_on_c, 0, 60, 95
1, 247182, Note_on_c, 0, 60, 0
1, 247200, Note_on_c, 0, 75, 95
1, 247200, Note_on_c, 1, 51, 95
1, 247262, Note_on_c, 1, 51, 0
1, 247280, Note_on_c, 1, 55, 95
1, 247342, Note_on_c, 1, 55, 0
1, 247360, Note_on_c, 0, 60, 95
1, 247390, Note_on_c, 0, 75, 0
1, 247422, Note_on_c, 0, 60, 0
1, 247440, Note_on_c, 0, 79, 95
1, 247440, Note_on_c, 1, 50, 95
1, 247502, Note_on_c, 1, 50, 0
1, 247520, Note_on_c, 1, 53, 95
1, 247582, Note_on_c, 1, 53, 0
1, 247600, Note_on_c, 0, 60, 95
1, 247630, Note_on_c, 0, 79, 0
1, 247662, Note_on_c, 0, 60, 0
1, 247680, Note_on_c, 0, 84, 95
1, 247680, Note_on_c, 1, 51, 95
1, 247742, Note_on_c, 1, 51, 0
1, 247760, Note_on_c, 1, 55, 95
1, 247822, Note_on_c, 1, 55, 0
1, 247840, Note_on_c, 0, 60, 95
1, 247870, Note_on_c, 0, 84, 0
1, 247902, Note_on_c, 0, 60, 0
1, 247920, Note_on_c, 0, 87, 95
1, 247920, Note_on_c, 1, 50, 95
1, 247982, Note_on_c, 1, 50, 0
1, 248000, Note_on_c, 1, 53, 95
1, 248062, Note_on_c, 1, 53, 0
1, 248080, Note_on_c, 0, 60, 95
1, 248110, Note_on_c, 0, 87, 0
1, 248142, Note_on_c, 0, 60, 0
1, 248160, Note_on_c, 1, 51, 95
1, 248222, Note_on_c, 1, 51, 0
1, 248240, Note_on_c, 1, 55, 95
1, 248302, Note_on_c, 1, 55, 0
1, 248320, Note_on_c, 0, 60, 95
1, 248382, Note_on_c, 0, 60, 0
1, 248400, Note_on_c, 1, 48, 95
1, 248462, Note_on_c, 1, 48, 0
1, 248480, Note_on_c, 1, 51, 95
1, 248542, Note_on_c, 1, 51, 0
1, 248560, Note_on_c, 1, 55, 95
1, 248622, Note_on_c, 1, 55, 0
1, 248640, Note_on_c, 0, 74, 95
1, 248640, Note_on_c, 0, 62, 95
1, 248640, Note_on_c, 1, 47, 95
1, 248702, Note_on_c, 1, 47, 0
1, 248720, Note_on_c, 1, 50, 95
1, 248782, Note_on_c, 1, 50, 0
1, 248800, Note_on_c, 1, 55, 95
1, 248862, Note_on_c, 1, 55, 0
1, 248880, Note_on_c, 1, 48, 95
1, 248942, Note_on_c, 1, 48, 0
1, 248960, Note_on_c, 1, 50, 95
1, 249022, Note_on_c, 0, 62, 0
1, 249022, Note_on_c, 0, 74, 0
1, 249022, Note_on_c, 1, 50, 0
1, 249040, Note_on_c, 1, 55, 95
1, 249102, Note_on_c, 1, 55, 0
1, 249120, Note_on_c, 0, 65, 95
1, 249120, Note_on_c, 0, 77, 95
1, 249120, Note_on_c, 1, 47, 95
1, 249182, Note_on_c, 1, 47, 0
1, 249200, Note_on_c, 1, 50, 95
1, 249262, Note_on_c, 1, 50, 0
1, 249280, Note_on_c, 1, 55, 95
1, 249310, Note_on_c, 0, 77, 0
1, 249310, Note_on_c, 0, 65, 0
1, 249342, Note_on_c, 1, 55, 0
1, 249360, Note_on_c, 0, 79, 95
1, 249360, Note_on_c, 0, 67, 95
1, 249360, Note_on_c, 1, 45, 95
1, 249422, Note_on_c, 1, 45, 0
1, 249440, Note_on_c, 1, 50, 95
1, 249502, Note_on_c, 1, 50, 0
1, 249520, Note_on_c, 1, 55, 95
1, 249550, Note_on_c, 0, 67, 0
1, 249550, Note_on_c, 0, 79, 0
1, 249582, Note_on_c, 1, 55, 0
1, 249600, Note_on_c, 0, 86, 95
1, 249600, Note_on_c, 0, 74, 95
1, 249600, Note_on_c, 1, 47, 95
1, 249662, Note_on_c, 1, 47, 0
1, 249680, Note_on_c, 1, 50, 95
1, 249742, Note_on_c, 1, 50, 0
1, 249760, Note_on_c, 1, 55, 95
1, 249790, Note_on_c, 0, 74, 0
1, 249790, Note_on_c, 0, 86, 0
1, 249822, Note_on_c, 1, 55, 0
1, 249840, Note_on_c, 0, 77, 95
1, 249840, Note_on_c, 0, 89, 95
1, 249840, Note_on_c, 1, 43, 95
1, 250030, Note_on_c, 0, 89, 0
1, 250030, Note_on_c, 0, 77, 0
1, 250030, Note_on_c, 1, 43, 0
1, 250560, Note_on_c, 0, 77, 65
1, 250750, Note_on_c, 0, 77, 0
1, 250800, Note_on_c, 0, 80, 65
1, 250990, Note_on_c, 0, 80, 0
1, 251040, Note_on_c, 0, 62, 65
1, 251040, Note_on_c, 0, 71, 65
1, 251422, Note_on_c, 0, 71, 0
1, 251422, Note_on_c, 0, 62, 0
1, 251520, Note_on_c, 0, 74, 65
1, 251710, Note_on_c, 0, 74, 0
1, 251760, Note_on_c, 0, 77, 65
1, 251950, Note_on_c, 0, 77, 0
1, 252000, Note_on_c, 0, 68, 65
1, 252000, Note_on_c, 1, 59, 65
1, 252382, Note_on_c, 0, 68, 0
1, 252382, Note_on_c, 1, 59, 0
1, 252480, Note_on_c, 0, 71, 65
1, 252670, Note_on_c, 0, 71, 0
1, 252720, Note_on_c, 0, 74, 65
1, 252910, Note_on_c, 0, 74, 0
1, 252960, Note_on_c, 0, 62, 65
1, 253150, Note_on_c, 0, 62, 0
1, 253200, Note_on_c, 0, 65, 65
1, 253390, Note_on_c, 0, 65, 0
1, 253440, Note_on_c, 1, 56, 50
1, 253440, Note_on_c, 1, 34, 50
1, 253440, Note_on_c, 1, 46, 50
1, 253440, Note_on_c, 1, 50, 50
1, 253440, Note_on_c, 1, 53, 50
1, 254207, Note_on_c, 1, 56, 0
1, 254400, Note_on_c, 1, 55, 50
1, 254590, Note_on_c, 1, 55, 0
1, 254590, Note_on_c, 1, 53, 0
1, 254590, Note_on_c, 1, 34, 0
1, 254590, Note_on_c, 1, 46, 0
1, 254590, Note_on_c, 1, 50, 0
1, 255360, Note_on_c, 0, 60, 95
1, 255360, Note_on_c, 1, 36, 95
1, 255360, Note_on_c, 1, 48, 95
1, 255742, Note_on_c, 0, 60, 0
1, 255742, Note_on_c, 1, 48, 0
1, 255742, Note_on_c, 1, 36, 0
1, 255840, Note_on_c, 0, 63, 95
1, 255840, Note_on_c, 1, 39, 95
1, 255840, Note_on_c, 1, 51, 95
1, 256030, Note_on_c, 0, 63, 0
1, 256030, Note_on_c, 1, 51, 0
1, 256030, Note_on_c, 1, 39, 0
1, 256080, Note_on_c, 0, 67, 95
1, 256080, Note_on_c, 1, 43, 95
1, 256080, Note_on_c, 1, 55, 95
1, 256270, Note_on_c, 0, 67, 0
1, 256270, Note_on_c, 1, 55, 0
1, 256270, Note_on_c, 1, 43, 0
1, 256320, Note_on_c, 0, 72, 95
1, 256320, Note_on_c, 0, 60, 95
1, 256320, Note_on_c, 1, 48, 95
1, 256510, Note_on_c, 0, 60, 0
1, 256510, Note_on_c, 0, 72, 0
1, 256510, Note_on_c, 1, 48, 0
1, 256560, Note_on_c, 0, 63, 95
1, 256560, Note_on_c, 0, 75, 95
1, 256560, Note_on_c, 1, 51, 95
1, 256750, Note_on_c, 0, 75, 0
1, 256750, Note_on_c, 0, 63, 0
1, 256750, Note_on_c, 1, 51, 0
1, 256980, Note_on_c, 0, 75, 65
1, 257027, Note_on_c, 0, 75, 0
1, 257040, Note_on_c, 0, 75, 64
1, 257062, Note_on_c, 0, 75, 0
1, 257070, Note_on_c, 0, 77, 65
1, 257092, Note_on_c, 0, 77, 0
1, 257100, Note_on_c, 0, 75, 64
1, 257122, Note_on_c, 0, 75, 0
1, 257130, Note_on_c, 0, 77, 63
1, 257152, Note_on_c, 0, 77, 0
1, 257160, Note_on_c, 0, 74, 66
1, 257207, Note_on_c, 0, 74, 0
1, 257220, Note_on_c, 0, 75, 64
1, 257267, Note_on_c, 0, 75, 0
1, 257280, Note_on_c, 0, 79, 65
1, 257470, Note_on_c, 0, 79, 0
1, 257520, Note_on_c, 0, 63, 65
1, 257520, Note_on_c, 0, 67, 65
1, 257520, Note_on_c, 0, 72, 65
1, 257710, Note_on_c, 0, 72, 0
1, 257710, Note_on_c, 0, 67, 0
1, 257710, Note_on_c, 0, 63, 0
1, 257760, Note_on_c, 0, 63, 65
1, 257760, Note_on_c, 0, 67, 65
1, 257760, Note_on_c, 0, 72, 65
1, 257950, Note_on_c, 0, 72, 0
1, 257950, Note_on_c, 0, 67, 0
1, 257950, Note_on_c, 0, 63, 0
1, 258000, Note_on_c, 0, 63, 65
1, 258000, Note_on_c, 0, 67, 65
1, 258000, Note_on_c, 0, 72, 65
1, 258190, Note_on_c, 0, 72, 0
1, 258190, Note_on_c, 0, 67, 0
1, 258190, Note_on_c, 0, 63, 0
1, 258240, Note_on_c, 0, 80, 65
1, 258430, Note_on_c, 0, 80, 0
1, 258480, Note_on_c, 0, 62, 65
1, 258480, Note_on_c, 0, 71, 65
1, 258480, Note_on_c, 0, 68, 65
1, 258480, Note_on_c, 0, 65, 65
1, 258670, Note_on_c, 0, 65, 0
1, 258670, Note_on_c, 0, 62, 0
1, 258670, Note_on_c, 0, 71, 0
1, 258670, Note_on_c, 0, 68, 0
1, 258720, Note_on_c, 0, 62, 65
1, 258720, Note_on_c, 0, 71, 65
1, 258720, Note_on_c, 0, 68, 65
1, 258720, Note_on_c, 0, 65, 65
1, 258910, Note_on_c, 0, 65, 0
1, 258910, Note_on_c, 0, 62, 0
1, 258910, Note_on_c, 0, 71, 0
1, 258910, Note_on_c, 0, 68, 0
1, 259200, Note_on_c, 1, 31, 95
1, 259200, Note_on_c, 1, 43, 95
1, 259200, Note_on_c, 1, 55, 95
1, 259582, Note_on_c, 1, 55, 0
1, 259582, Note_on_c, 1, 43, 0
1, 259582, Note_on_c, 1, 31, 0
1, 259680, Note_on_c, 1, 35, 95
1, 259680, Note_on_c, 1, 47, 95
1, 259680, Note_on_c, 1, 59, 95
1, 259870, Note_on_c, 1, 59, 0
1, 259870, Note_on_c, 1, 47, 0
1, 259870, Note_on_c, 1, 35, 0
1, 259920, Note_on_c, 0, 62, 95
1, 259920, Note_on_c, 1, 38, 95
1, 259920, Note_on_c, 1, 50, 95
1, 260110, Note_on_c, 0, 62, 0
1, 260110, Note_on_c, 1, 50, 0
1, 260110, Note_on_c, 1, 38, 0
1, 260160, Note_on_c, 0, 67, 95
1, 260160, Note_on_c, 1, 43, 95
1, 260160, Note_on_c, 1, 55, 95
1, 260350, Note_on_c, 0, 67, 0
1, 260350, Note_on_c, 1, 55, 0
1, 260350, Note_on_c, 1, 43, 0
1, 260400, Note_on_c, 0, 71, 95
1, 260400, Note_on_c, 1, 47, 95
1, 260400, Note_on_c, 1, 59, 95
1, 260590, Note_on_c, 0, 71, 0
1, 260590, Note_on_c, 1, 59, 0
1, 260590, Note_on_c, 1, 47, 0
1, 260820, Note_on_c, 0, 74, 65
1, 260867, Note_on_c, 0, 74, 0
1, 260880, Note_on_c, 0, 74, 64
1, 260902, Note_on_c, 0, 74, 0
1, 260910, Note_on_c, 0, 75, 65
1, 260932, Note_on_c, 0, 75, 0
1, 260940, Note_on_c, 0, 74, 66
1, 260962, Note_on_c, 0, 74, 0
1, 260970, Note_on_c, 0, 75, 65
1, 260992, Note_on_c, 0, 75, 0
1, 261000, Note_on_c, 0, 72, 65
1, 261047, Note_on_c, 0, 72, 0
1, 261060, Note_on_c, 0, 74, 65
1, 261107, Note_on_c, 0, 74, 0
1, 261120, Note_on_c, 0, 77, 65
1, 261310, Note_on_c, 0, 77, 0
1, 261360, Note_on_c, 0, 68, 65
1, 261360, Note_on_c, 0, 65, 65
1, 261360, Note_on_c, 0, 62, 65
1, 261360, Note_on_c, 0, 71, 65
1, 261550, Note_on_c, 0, 71, 0
1, 261550, Note_on_c, 0, 68, 0
1, 261550, Note_on_c, 0, 65, 0
1, 261550, Note_on_c, 0, 62, 0
1, 261600, Note_on_c, 0, 62, 65
1, 261600, Note_on_c, 0, 65, 65
1, 261600, Note_on_c, 0, 68, 65
1, 261600, Note_on_c, 0, 71, 65
1, 261790, Note_on_c, 0, 71, 0
1, 261790, Note_on_c, 0, 62, 0
1, 261790, Note_on_c, 0, 65, 0
1, 261790, Note_on_c, 0, 68, 0
1, 261840, Note_on_c, 0, 62, 65
1, 261840, Note_on_c, 0, 65, 65
1, 261840, Note_on_c, 0, 68, 65
1, 261840, Note_on_c, 0, 71, 65
1, 262030, Note_on_c, 0, 71, 0
1, 262030, Note_on_c, 0, 62, 0
1, 262030, Note_on_c, 0, 65, 0
1, 262030, Note_on_c, 0, 68, 0
1, 262080, Note_on_c, 0, 79, 65
1, 262270, Note_on_c, 0, 79, 0
1, 262320, Note_on_c, 0, 63, 65
1, 262320, Note_on_c, 0, 67, 65
1, 262320, Note_on_c, 0, 72, 65
1, 262510, Note_on_c, 0, 72, 0
1, 262510, Note_on_c, 0, 67, 0
1, 262510, Note_on_c, 0, 63, 0
1, 262560, Note_on_c, 0, 63, 65
1, 262560, Note_on_c, 0, 67, 65
1, 262560, Note_on_c, 0, 72, 65
1, 262750, Note_on_c, 0, 72, 0
1, 262750, Note_on_c, 0, 67, 0
1, 262750, Note_on_c, 0, 63, 0
1, 263040, Note_on_c, 0, 67, 95
1, 263040, Note_on_c, 1, 43, 95
1, 263135, Note_on_c, 1, 43, 0
1, 263160, Note_on_c, 1, 55, 95
1, 263255, Note_on_c, 1, 55, 0
1, 263280, Note_on_c, 1, 43, 95
1, 263375, Note_on_c, 1, 43, 0
1, 263400, Note_on_c, 1, 55, 95
1, 263495, Note_on_c, 1, 55, 0
1, 263520, Note_on_c, 1, 43, 65
1, 263615, Note_on_c, 0, 67, 0
1, 263615, Note_on_c, 1, 43, 0
1, 263640, Note_on_c, 1, 55, 65
1, 263735, Note_on_c, 1, 55, 0
1, 263760, Note_on_c, 0, 67, 65
1, 263760, Note_on_c, 0, 75, 65
1, 263760, Note_on_c, 1, 43, 65
1, 263855, Note_on_c, 1, 43, 0
1, 263880, Note_on_c, 1, 55, 65
1, 263950, Note_on_c, 0, 67, 0
1, 263975, Note_on_c, 1, 55, 0
1, 264000, Note_on_c, 0, 66, 65
1, 264000, Note_on_c, 1, 43, 65
1, 264095, Note_on_c, 1, 43, 0
1, 264120, Note_on_c, 1, 55, 65
1, 264190, Note_on_c, 0, 66, 0
1, 264190, Note_on_c, 0, 75, 0
1, 264215, Note_on_c, 1, 55, 0
1, 264240, Note_on_c, 0, 65, 65
1, 264240, Note_on_c, 0, 74, 65
1, 264240, Note_on_c, 1, 43, 65
1, 264335, Note_on_c, 1, 43, 0
1, 264360, Note_on_c, 1, 55, 65
1, 264430, Note_on_c, 0, 65, 0
1, 264455, Note_on_c, 1, 55, 0
1, 264480, Note_on_c, 0, 64, 65
1, 264480, Note_on_c, 1, 43, 65
1, 264575, Note_on_c, 1, 43, 0
1, 264600, Note_on_c, 1, 55, 65
1, 264622, Note_on_c, 0, 74, 0
1, 264670, Note_on_c, 0, 64, 0
1, 264695, Note_on_c, 1, 55, 0
1, 264720, Note_on_c, 0, 63, 65
1, 264720, Note_on_c, 0, 72, 65
1, 264720, Note_on_c, 1, 43, 65
1, 264815, Note_on_c, 1, 43, 0
1, 264840, Note_on_c, 1, 55, 65
1, 264910, Note_on_c, 0, 63, 0
1, 264935, Note_on_c, 1, 55, 0
1, 264960, Note_on_c, 0, 62, 95
1, 264960, Note_on_c, 1, 43, 95
1, 265055, Note_on_c, 1, 43, 0
1, 265080, Note_on_c, 1, 55, 95
1, 265150, Note_on_c, 0, 72, 0
1, 265175, Note_on_c, 1, 55, 0
1, 265200, Note_on_c, 0, 71, 95
1, 265200, Note_on_c, 1, 43, 95
1, 265295, Note_on_c, 1, 43, 0
1, 265320, Note_on_c, 1, 55, 95
1, 265342, Note_on_c, 0, 62, 0
1, 265390, Note_on_c, 0, 71, 0
1, 265415, Note_on_c, 1, 55, 0
1, 265440, Note_on_c, 1, 43, 65
1, 265535, Note_on_c, 1, 43, 0
1, 265560, Note_on_c, 1, 55, 65
1, 265655, Note_on_c, 1, 55, 0
1, 265680, Note_on_c, 0, 79, 65
1, 265680, Note_on_c, 0, 75, 65
1, 265680, Note_on_c, 1, 43, 64
1, 265775, Note_on_c, 1, 43, 0
1, 265800, Note_on_c, 1, 55, 65
1, 265870, Note_on_c, 0, 75, 0
1, 265870, Note_on_c, 0, 79, 0
1, 265895, Note_on_c, 1, 55, 0
1, 265920, Note_on_c, 0, 78, 65
1, 265920, Note_on_c, 0, 75, 65
1, 265920, Note_on_c, 1, 43, 65
1, 266015, Note_on_c, 1, 43, 0
1, 266040, Note_on_c, 1, 55, 65
1, 266110, Note_on_c, 0, 75, 0
1, 266110, Note_on_c, 0, 78, 0
1, 266135, Note_on_c, 1, 55, 0
1, 266160, Note_on_c, 0, 74, 65
1, 266160, Note_on_c, 0, 77, 65
1, 266160, Note_on_c, 1, 43, 65
1, 266255, Note_on_c, 1, 43, 0
1, 266280, Note_on_c, 1, 55, 65
1, 266350, Note_on_c, 0, 77, 0
1, 266375, Note_on_c, 1, 55, 0
1, 266400, Note_on_c, 0, 76, 76
1, 266400, Note_on_c, 1, 43, 75
1, 266495, Note_on_c, 1, 43, 0
1, 266520, Note_on_c, 1, 55, 76
1, 266542, Note_on_c, 0, 74, 0
1, 266590, Note_on_c, 0, 76, 0
1, 266615, Note_on_c, 1, 55, 0
1, 266640, Note_on_c, 0, 72, 65
1, 266640, Note_on_c, 0, 75, 65
1, 266640, Note_on_c, 1, 43, 65
1, 266735, Note_on_c, 1, 43, 0
1, 266760, Note_on_c, 1, 55, 65
1, 266830, Note_on_c, 0, 75, 0
1, 266830, Note_on_c, 0, 72, 0
1, 266855, Note_on_c, 1, 55, 0
1, 266880, Note_on_c, 0, 74, 95
1, 266880, Note_on_c, 0, 72, 95
1, 266880, Note_on_c, 1, 43, 95
1, 266975, Note_on_c, 1, 43, 0
1, 267000, Note_on_c, 1, 55, 95
1, 267070, Note_on_c, 0, 72, 0
1, 267095, Note_on_c, 1, 55, 0
1, 267120, Note_on_c, 0, 71, 95
1, 267120, Note_on_c, 1, 55, 95
1, 267215, Note_on_c, 1, 55, 0
1, 267240, Note_on_c, 1, 55, 95
1, 267262, Note_on_c, 0, 74, 0
1, 267310, Note_on_c, 0, 71, 0
1, 267335, Note_on_c, 1, 55, 0
1, 267360, Note_on_c, 1, 41, 95
1, 267455, Note_on_c, 1, 41, 0
1, 267480, Note_on_c, 1, 53, 95
1, 267575, Note_on_c, 1, 53, 0
1, 267600, Note_on_c, 0, 71, 95
1, 267600, Note_on_c, 0, 74, 95
1, 267600, Note_on_c, 0, 80, 95
1, 267600, Note_on_c, 1, 53, 95
1, 267695, Note_on_c, 1, 53, 0
1, 267720, Note_on_c, 1, 53, 95
1, 267815, Note_on_c, 1, 53, 0
1, 267840, Note_on_c, 1, 39, 95
1, 267935, Note_on_c, 1, 39, 0
1, 267960, Note_on_c, 1, 51, 95
1, 268030, Note_on_c, 0, 80, 0
1, 268030, Note_on_c, 0, 74, 0
1, 268030, Note_on_c, 0, 71, 0
1, 268055, Note_on_c, 1, 51, 0
1, 268080, Note_on_c, 0, 79, 95
1, 268080, Note_on_c, 0, 75, 95
1, 268080, Note_on_c, 0, 72, 95
1, 268080, Note_on_c, 1, 51, 95
1, 268175, Note_on_c, 1, 51, 0
1, 268200, Note_on_c, 1, 51, 95
1, 268270, Note_on_c, 0, 72, 0
1, 268270, Note_on_c, 0, 75, 0
1, 268270, Note_on_c, 0, 79, 0
1, 268295, Note_on_c, 1, 51, 0
1, 268320, Note_on_c, 1, 35, 95
1, 268415, Note_on_c, 1, 35, 0
1, 268440, Note_on_c, 1, 47, 95
1, 268500, Note_on_c, 0, 67, 95
1, 268535, Note_on_c, 1, 47, 0
1, 268547, Note_on_c, 0, 67, 0
1, 268560, Note_on_c, 0, 74, 95
1, 268560, Note_on_c, 1, 47, 95
1, 268655, Note_on_c, 1, 47, 0
1, 268680, Note_on_c, 1, 47, 95
1, 268702, Note_on_c, 0, 74, 0
1, 268740, Note_on_c, 0, 77, 95
1, 268775, Note_on_c, 1, 47, 0
1, 268787, Note_on_c, 0, 77, 0
1, 268800, Note_on_c, 0, 75, 95
1, 268800, Note_on_c, 1, 36, 95
1, 268822, Note_on_c, 0, 75, 0
1, 268830, Note_on_c, 0, 77, 95
1, 268852, Note_on_c, 0, 77, 0
1, 268860, Note_on_c, 0, 74, 95
1, 268895, Note_on_c, 1, 36, 0
1, 268907, Note_on_c, 0, 74, 0
1, 268920, Note_on_c, 0, 75, 95
1, 268920, Note_on_c, 1, 48, 95
1, 268967, Note_on_c, 0, 75, 0
1, 268980, Note_on_c, 0, 77, 95
1, 269015, Note_on_c, 1, 48, 0
1, 269027, Note_on_c, 0, 77, 0
1, 269040, Note_on_c, 0, 79, 95
1, 269040, Note_on_c, 1, 48, 95
1, 269135, Note_on_c, 1, 48, 0
1, 269160, Note_on_c, 1, 48, 95
1, 269230, Note_on_c, 0, 79, 0
1, 269255, Note_on_c, 1, 48, 0
1, 269280, Note_on_c, 1, 41, 95
1, 269375, Note_on_c, 1, 41, 0
1, 269400, Note_on_c, 1, 53, 95
1, 269495, Note_on_c, 1, 53, 0
1, 269520, Note_on_c, 0, 71, 95
1, 269520, Note_on_c, 0, 74, 95
1, 269520, Note_on_c, 0, 80, 95
1, 269520, Note_on_c, 1, 53, 95
1, 269615, Note_on_c, 1, 53, 0
1, 269640, Note_on_c, 1, 53, 95
1, 269735, Note_on_c, 1, 53, 0
1, 269760, Note_on_c, 1, 39, 95
1, 269855, Note_on_c, 1, 39, 0
1, 269880, Note_on_c, 1, 51, 95
1, 269950, Note_on_c, 0, 80, 0
1, 269950, Note_on_c, 0, 74, 0
1, 269950, Note_on_c, 0, 71, 0
1, 269975, Note_on_c, 1, 51, 0
1, 270000, Note_on_c, 0, 79, 95
1, 270000, Note_on_c, 0, 75, 95
1, 270000, Note_on_c, 0, 72, 95
1, 270000, Note_on_c, 1, 51, 95
1, 270095, Note_on_c, 1, 51, 0
1, 270120, Note_on_c, 1, 51, 95
1, 270190, Note_on_c, 0, 72, 0
1, 270190, Note_on_c, 0, 75, 0
1, 270190, Note_on_c, 0, 79, 0
1, 270215, Note_on_c, 1, 51, 0
1, 270240, Note_on_c, 1, 38, 95
1, 270335, Note_on_c, 1, 38, 0
1, 270360, Note_on_c, 1, 50, 95
1, 270420, Note_on_c, 0, 77, 95
1, 270455, Note_on_c, 1, 50, 0
1, 270467, Note_on_c, 0, 77, 0
1, 270480, Note_on_c, 0, 83, 95
1, 270480, Note_on_c, 1, 50, 95
1, 270575, Note_on_c, 1, 50, 0
1, 270600, Note_on_c, 1, 50, 95
1, 270622, Note_on_c, 0, 83, 0
1, 270660, Note_on_c, 0, 86, 95
1, 270695, Note_on_c, 1, 50, 0
1, 270707, Note_on_c, 0, 86, 0
1, 270720, Note_on_c, 0, 87, 84
1, 270720, Note_on_c, 1, 48, 86
1, 270815, Note_on_c, 0, 87, 0
1, 270840, Note_on_c, 0, 79, 65
1, 270910, Note_on_c, 1, 48, 0
1, 270935, Note_on_c, 0, 79, 0
1, 270960, Note_on_c, 0, 84, 65
1, 271055, Note_on_c, 0, 84, 0
1, 271080, Note_on_c, 0, 79, 65
1, 271175, Note_on_c, 0, 79, 0
1, 271200, Note_on_c, 1, 53, 65
1, 271320, Note_on_c, 0, 77, 65
1, 271390, Note_on_c, 1, 53, 0
1, 271415, Note_on_c, 0, 77, 0
1, 271440, Note_on_c, 0, 80, 65
1, 271535, Note_on_c, 0, 80, 0
1, 271560, Note_on_c, 0, 74, 65
1, 271655, Note_on_c, 0, 74, 0
1, 271680, Note_on_c, 1, 55, 65
1, 271800, Note_on_c, 0, 75, 65
1, 271870, Note_on_c, 1, 55, 0
1, 271895, Note_on_c, 0, 75, 0
1, 271920, Note_on_c, 0, 79, 65
1, 272015, Note_on_c, 0, 79, 0
1, 272040, Note_on_c, 0, 72, 65
1, 272135, Note_on_c, 0, 72, 0
1, 272160, Note_on_c, 1, 43, 76
1, 272280, Note_on_c, 0, 74, 75
1, 272350, Note_on_c, 1, 43, 0
1, 272375, Note_on_c, 0, 74, 0
1, 272400, Note_on_c, 0, 77, 85
1, 272495, Note_on_c, 0, 77, 0
1, 272520, Note_on_c, 0, 71, 86
1, 272615, Note_on_c, 0, 71, 0
1, 272640, Note_on_c, 0, 72, 95
1, 273022, Note_on_c, 0, 72, 0
1, 273120, Note_on_c, 0, 75, 95
1, 273120, Note_on_c, 0, 60, 95
1, 273310, Note_on_c, 0, 75, 0
1, 273360, Note_on_c, 0, 79, 95
1, 273502, Note_on_c, 0, 60, 0
1, 273550, Note_on_c, 0, 79, 0
1, 273600, Note_on_c, 0, 63, 95
1, 273600, Note_on_c, 0, 84, 95
1, 273790, Note_on_c, 0, 84, 0
1, 273790, Note_on_c, 0, 63, 0
1, 273840, Note_on_c, 0, 67, 95
1, 273840, Note_on_c, 0, 87, 95
1, 274030, Note_on_c, 0, 87, 0
1, 274030, Note_on_c, 0, 67, 0
1, 274080, Note_on_c, 0, 72, 95
1, 274080, Note_on_c, 0, 80, 95
1, 274080, Note_on_c, 1, 32, 95
1, 274080, Note_on_c, 1, 44, 95
1, 274270, Note_on_c, 0, 80, 0
1, 274270, Note_on_c, 0, 72, 0
1, 274320, Note_on_c, 0, 75, 95
1, 274320, Note_on_c, 0, 84, 95
1, 274462, Note_on_c, 1, 44, 0
1, 274462, Note_on_c, 1, 32, 0
1, 274510, Note_on_c, 0, 84, 0
1, 274510, Note_on_c, 0, 75, 0
1, 274560, Note_on_c, 0, 68, 95
1, 274560, Note_on_c, 0, 77, 95
1, 274560, Note_on_c, 1, 36, 95
1, 274560, Note_on_c, 1, 48, 95
1, 274750, Note_on_c, 0, 77, 0
1, 274750, Note_on_c, 0, 68, 0
1, 274750, Note_on_c, 1, 48, 0
1, 274750, Note_on_c, 1, 36, 0
1, 274800, Note_on_c, 0, 72, 95
1, 274800, Note_on_c, 0, 80, 95
1, 274800, Note_on_c, 1, 41, 95
1, 274800, Note_on_c, 1, 53, 95
1, 274990, Note_on_c, 0, 80, 0
1, 274990, Note_on_c, 0, 72, 0
1, 274990, Note_on_c, 1, 53, 0
1, 274990, Note_on_c, 1, 41, 0
1, 275040, Note_on_c, 0, 65, 82
1, 275040, Note_on_c, 0, 73, 84
1, 275040, Note_on_c, 1, 44, 83
1, 275040, Note_on_c, 1, 56, 83
1, 275230, Note_on_c, 0, 73, 0
1, 275230, Note_on_c, 0, 65, 0
1, 275280, Note_on_c, 0, 68, 75
1, 275280, Note_on_c, 0, 77, 76
1, 275422, Note_on_c, 1, 56, 0
1, 275422, Note_on_c, 1, 44, 0
1, 275470, Note_on_c, 0, 77, 0
1, 275470, Note_on_c, 0, 68, 0
1, 275520, Note_on_c, 0, 72, 65
1, 275640, Note_on_c, 0, 66, 65
1, 275735, Note_on_c, 0, 66, 0
1, 275760, Note_on_c, 0, 63, 65
1, 275855, Note_on_c, 0, 63, 0
1, 275880, Note_on_c, 0, 66, 65
1, 275975, Note_on_c, 0, 66, 0
1, 276000, Note_on_c, 1, 56, 65
1, 276095, Note_on_c, 0, 72, 0
1, 276095, Note_on_c, 1, 56, 0
1, 276120, Note_on_c, 0, 66, 65
1, 276215, Note_on_c, 0, 66, 0
1, 276240, Note_on_c, 0, 63, 65
1, 276240, Note_on_c, 0, 80, 65
1, 276335, Note_on_c, 0, 63, 0
1, 276360, Note_on_c, 0, 66, 65
1, 276430, Note_on_c, 0, 80, 0
1, 276455, Note_on_c, 0, 66, 0
1, 276480, Note_on_c, 0, 80, 65
1, 276480, Note_on_c, 1, 56, 65
1, 276575, Note_on_c, 1, 56, 0
1, 276600, Note_on_c, 0, 65, 65
1, 276695, Note_on_c, 0, 65, 0
1, 276720, Note_on_c, 0, 61, 65
1, 276767, Note_on_c, 0, 80, 0
1, 276815, Note_on_c, 0, 61, 0
1, 276840, Note_on_c, 0, 65, 65
1, 276840, Note_on_c, 0, 77, 65
1, 276935, Note_on_c, 0, 77, 0
1, 276935, Note_on_c, 0, 65, 0
1, 276960, Note_on_c, 0, 73, 65
1, 276960, Note_on_c, 1, 56, 65
1, 277055, Note_on_c, 1, 56, 0
1, 277080, Note_on_c, 0, 65, 65
1, 277150, Note_on_c, 0, 73, 0
1, 277175, Note_on_c, 0, 65, 0
1, 277200, Note_on_c, 0, 61, 65
1, 277295, Note_on_c, 0, 61, 0
1, 277320, Note_on_c, 0, 65, 65
1, 277415, Note_on_c, 0, 65, 0
1, 277440, Note_on_c, 0, 72, 65
1, 277440, Note_on_c, 1, 56, 65
1, 277535, Note_on_c, 1, 56, 0
1, 277560, Note_on_c, 0, 66, 65
1, 277655, Note_on_c, 0, 66, 0
1, 277680, Note_on_c, 0, 63, 65
1, 277775, Note_on_c, 0, 63, 0
1, 277800, Note_on_c, 0, 66, 65
1, 277822, Note_on_c, 0, 72, 0
1, 277895, Note_on_c, 0, 66, 0
1, 277920, Note_on_c, 0, 72, 65
1, 277920, Note_on_c, 1, 56, 65
1, 278015, Note_on_c, 0, 72, 0
1, 278015, Note_on_c, 1, 56, 0
1, 278040, Note_on_c, 0, 66, 65
1, 278040, Note_on_c, 0, 80, 65
1, 278135, Note_on_c, 0, 80, 0
1, 278135, Note_on_c, 0, 66, 0
1, 278160, Note_on_c, 0, 63, 65
1, 278160, Note_on_c, 0, 82, 65
1, 278255, Note_on_c, 0, 82, 0
1, 278255, Note_on_c, 0, 63, 0
1, 278280, Note_on_c, 0, 66, 65
1, 278280, Note_on_c, 0, 80, 65
1, 278375, Note_on_c, 0, 80, 0
1, 278375, Note_on_c, 0, 66, 0
1, 278400, Note_on_c, 0, 80, 65
1, 278400, Note_on_c, 1, 56, 65
1, 278495, Note_on_c, 1, 56, 0
1, 278520, Note_on_c, 0, 65, 65
1, 278615, Note_on_c, 0, 65, 0
1, 278640, Note_on_c, 0, 61, 65
1, 278687, Note_on_c, 0, 80, 0
1, 278735, Note_on_c, 0, 61, 0
1, 278760, Note_on_c, 0, 65, 65
1, 278760, Note_on_c, 0, 77, 65
1, 278855, Note_on_c, 0, 77, 0
1, 278855, Note_on_c, 0, 65, 0
1, 278880, Note_on_c, 0, 73, 65
1, 278880, Note_on_c, 1, 56, 65
1, 278975, Note_on_c, 1, 56, 0
1, 279000, Note_on_c, 0, 65, 65
1, 279070, Note_on_c, 0, 73, 0
1, 279095, Note_on_c, 0, 65, 0
1, 279120, Note_on_c, 0, 61, 65
1, 279120, Note_on_c, 0, 73, 65
1, 279215, Note_on_c, 0, 61, 0
1, 279240, Note_on_c, 0, 65, 65
1, 279310, Note_on_c, 0, 73, 0
1, 279335, Note_on_c, 0, 65, 0
1, 279360, Note_on_c, 0, 73, 65
1, 279360, Note_on_c, 0, 60, 65
1, 279360, Note_on_c, 0, 66, 65
1, 279360, Note_on_c, 0, 63, 65
1, 279360, Note_on_c, 1, 57, 65
1, 279455, Note_on_c, 0, 73, 0
1, 279480, Note_on_c, 0, 71, 65
1, 279575, Note_on_c, 0, 71, 0
1, 279600, Note_on_c, 0, 72, 65
1, 279695, Note_on_c, 0, 72, 0
1, 279720, Note_on_c, 0, 74, 65
1, 279815, Note_on_c, 0, 74, 0
1, 279840, Note_on_c, 0, 77, 65
1, 279935, Note_on_c, 0, 77, 0
1, 279960, Note_on_c, 0, 75, 65
1, 280055, Note_on_c, 0, 75, 0
1, 280080, Note_on_c, 0, 74, 65
1, 280127, Note_on_c, 0, 63, 0
1, 280127, Note_on_c, 0, 60, 0
1, 280127, Note_on_c, 0, 66, 0
1, 280127, Note_on_c, 1, 57, 0
1, 280175, Note_on_c, 0, 74, 0
1, 280200, Note_on_c, 0, 72, 65
1, 280295, Note_on_c, 0, 72, 0
1, 280320, Note_on_c, 0, 79, 65
1, 280510, Note_on_c, 0, 79, 0
1, 280560, Note_on_c, 1, 55, 65
1, 280560, Note_on_c, 1, 59, 65
1, 280750, Note_on_c, 1, 59, 0
1, 280750, Note_on_c, 1, 55, 0
1, 280800, Note_on_c, 0, 60, 65
1, 280800, Note_on_c, 1, 56, 65
1, 280990, Note_on_c, 0, 60, 0
1, 280990, Note_on_c, 1, 56, 0
1, 281040, Note_on_c, 0, 72, 65
1, 281135, Note_on_c, 0, 72, 0
1, 281160, Note_on_c, 0, 72, 65
1, 281255, Note_on_c, 0, 72, 0
1, 281280, Note_on_c, 0, 79, 65
1, 281470, Note_on_c, 0, 79, 0
1, 281520, Note_on_c, 1, 55, 65
1, 281520, Note_on_c, 1, 59, 65
1, 281710, Note_on_c, 1, 59, 0
1, 281710, Note_on_c, 1, 55, 0
1, 281760, Note_on_c, 0, 60, 65
1, 281760, Note_on_c, 1, 56, 65
1, 281950, Note_on_c, 0, 60, 0
1, 281950, Note_on_c, 1, 56, 0
1, 282000, Note_on_c, 0, 72, 65
1, 282095, Note_on_c, 0, 72, 0
1, 282120, Note_on_c, 0, 72, 65
1, 282215, Note_on_c, 0, 72, 0
1, 282240, Note_on_c, 0, 79, 65
1, 282240, Note_on_c, 1, 59, 65
1, 282240, Note_on_c, 1, 55, 65
1, 282430, Note_on_c, 0, 79, 0
1, 282430, Note_on_c, 1, 55, 0
1, 282430, Note_on_c, 1, 59, 0
1, 282480, Note_on_c, 0, 60, 65
1, 282480, Note_on_c, 0, 72, 65
1, 282480, Note_on_c, 1, 56, 65
1, 282575, Note_on_c, 0, 72, 0
1, 282600, Note_on_c, 0, 72, 65
1, 282670, Note_on_c, 0, 60, 0
1, 282670, Note_on_c, 1, 56, 0
1, 282695, Note_on_c, 0, 72, 0
1, 282720, Note_on_c, 0, 79, 65
1, 282720, Note_on_c, 1, 55, 65
1, 282720, Note_on_c, 1, 59, 65
1, 282910, Note_on_c, 0, 79, 0
1, 282910, Note_on_c, 1, 59, 0
1, 282910, Note_on_c, 1, 55, 0
1, 282960, Note_on_c, 0, 72, 65
1, 282960, Note_on_c, 0, 60, 65
1, 282960, Note_on_c, 1, 56, 65
1, 283055, Note_on_c, 0, 72, 0
1, 283080, Note_on_c, 0, 72, 65
1, 283150, Note_on_c, 0, 60, 0
1, 283150, Note_on_c, 1, 56, 0
1, 283175, Note_on_c, 0, 72, 0
1, 283200, Note_on_c, 0, 79, 65
1, 283200, Note_on_c, 1, 55, 65
1, 283200, Note_on_c, 1, 59, 65
1, 283390, Note_on_c, 0, 79, 0
1, 283390, Note_on_c, 1, 59, 0
1, 283390, Note_on_c, 1, 55, 0
1, 283440, Note_on_c, 0, 79, 65
1, 283630, Note_on_c, 0, 79, 0
1, 283680, Note_on_c, 0, 79, 65
1, 283870, Note_on_c, 0, 79, 0
1, 283920, Note_on_c, 0, 79, 65
1, 284110, Note_on_c, 0, 79, 0
1, 284160, Note_on_c, 0, 79, 65
1, 284255, Note_on_c, 0, 79, 0
1, 284280, Note_on_c, 0, 78, 65
1, 284375, Note_on_c, 0, 78, 0
1, 284400, Note_on_c, 0, 77, 65
1, 284495, Note_on_c, 0, 77, 0
1, 284520, Note_on_c, 0, 74, 65
1, 284615, Note_on_c, 0, 74, 0
1, 284640, Note_on_c, 0, 79, 65
1, 284735, Note_on_c, 0, 79, 0
1, 284760, Note_on_c, 0, 78, 65
1, 284855, Note_on_c, 0, 78, 0
1, 284880, Note_on_c, 0, 77, 65
1, 284975, Note_on_c, 0, 77, 0
1, 285000, Note_on_c, 0, 74, 65
1, 285095, Note_on_c, 0, 74, 0
1, 285120, Note_on_c, 0, 72, 65
1, 285120, Note_on_c, 0, 63, 65
1, 285215, Note_on_c, 0, 63, 0
1, 285240, Note_on_c, 0, 67, 65
1, 285335, Note_on_c, 0, 67, 0
1, 285360, Note_on_c, 0, 63, 65
1, 285407, Note_on_c, 0, 72, 0
1, 285455, Note_on_c, 0, 63, 0
1, 285480, Note_on_c, 0, 67, 65
1, 285480, Note_on_c, 0, 74, 65
1, 285527, Note_on_c, 0, 74, 0
1, 285540, Note_on_c, 0, 72, 65
1, 285575, Note_on_c, 0, 67, 0
1, 285587, Note_on_c, 0, 72, 0
1, 285600, Note_on_c, 0, 62, 65
1, 285600, Note_on_c, 0, 71, 65
1, 285695, Note_on_c, 0, 62, 0
1, 285720, Note_on_c, 0, 67, 65
1, 285790, Note_on_c, 0, 71, 0
1, 285815, Note_on_c, 0, 67, 0
1, 285840, Note_on_c, 0, 63, 65
1, 285840, Note_on_c, 0, 72, 65
1, 285935, Note_on_c, 0, 63, 0
1, 285960, Note_on_c, 0, 67, 65
1, 286030, Note_on_c, 0, 72, 0
1, 286055, Note_on_c, 0, 67, 0
1, 286080, Note_on_c, 0, 64, 65
1, 286080, Note_on_c, 0, 73, 65
1, 286175, Note_on_c, 0, 64, 0
1, 286200, Note_on_c, 0, 67, 65
1, 286295, Note_on_c, 0, 67, 0
1, 286320, Note_on_c, 0, 64, 65
1, 286415, Note_on_c, 0, 64, 0
1, 286440, Note_on_c, 0, 67, 65
1, 286462, Note_on_c, 0, 73, 0
1, 286535, Note_on_c, 0, 67, 0
1, 286560, Note_on_c, 0, 65, 65
1, 286560, Note_on_c, 0, 74, 65
1, 286655, Note_on_c, 0, 65, 0
1, 286680, Note_on_c, 0, 67, 65
1, 286750, Note_on_c, 0, 74, 0
1, 286775, Note_on_c, 0, 67, 0
1, 286800, Note_on_c, 0, 65, 65
1, 286895, Note_on_c, 0, 65, 0
1, 286920, Note_on_c, 0, 67, 65
1, 287015, Note_on_c, 0, 67, 0
1, 287040, Note_on_c, 0, 62, 65
1, 287040, Note_on_c, 1, 53, 65
1, 287135, Note_on_c, 0, 62, 0
1, 287160, Note_on_c, 0, 67, 65
1, 287255, Note_on_c, 0, 67, 0
1, 287280, Note_on_c, 0, 62, 65
1, 287327, Note_on_c, 1, 53, 0
1, 287375, Note_on_c, 0, 62, 0
1, 287400, Note_on_c, 0, 67, 65
1, 287400, Note_on_c, 1, 52, 65
1, 287455, Note_on_c, 1, 52, 0
1, 287460, Note_on_c, 1, 53, 65
1, 287495, Note_on_c, 0, 67, 0
1, 287515, Note_on_c, 1, 53, 0
1, 287520, Note_on_c, 0, 62, 65
1, 287520, Note_on_c, 1, 55, 65
1, 287615, Note_on_c, 0, 62, 0
1, 287615, Note_on_c, 1, 55, 0
1, 287640, Note_on_c, 0, 67, 65
1, 287640, Note_on_c, 1, 53, 65
1, 287735, Note_on_c, 0, 67, 0
1, 287735, Note_on_c, 1, 53, 0
1, 287760, Note_on_c, 0, 63, 65
1, 287760, Note_on_c, 1, 51, 65
1, 287855, Note_on_c, 0, 63, 0
1, 287855, Note_on_c, 1, 51, 0
1, 287880, Note_on_c, 0, 67, 65
1, 287880, Note_on_c, 1, 50, 65
1, 287975, Note_on_c, 0, 67, 0
1, 287975, Note_on_c, 1, 50, 0
1, 288000, Note_on_c, 0, 65, 65
1, 288000, Note_on_c, 1, 48, 65
1, 288095, Note_on_c, 0, 65, 0
1, 288120, Note_on_c, 0, 67, 65
1, 288215, Note_on_c, 0, 67, 0
1, 288240, Note_on_c, 0, 62, 65
1, 288335, Note_on_c, 0, 62, 0
1, 288360, Note_on_c, 0, 67, 65
1, 288382, Note_on_c, 1, 48, 0
1, 288455, Note_on_c, 0, 67, 0
1, 288480, Note_on_c, 0, 65, 65
1, 288480, Note_on_c, 1, 47, 65
1, 288575, Note_on_c, 0, 65, 0
1, 288600, Note_on_c, 0, 67, 65
1, 288670, Note_on_c, 1, 47, 0
1, 288695, Note_on_c, 0, 67, 0
1, 288720, Note_on_c, 0, 62, 65
1, 288815, Note_on_c, 0, 62, 0
1, 288840, Note_on_c, 0, 67, 65
1, 288935, Note_on_c, 0, 67, 0
1, 288960, Note_on_c, 0, 74, 65
1, 288960, Note_on_c, 1, 59, 65
1, 289055, Note_on_c, 1, 59, 0
1, 289080, Note_on_c, 0, 67, 65
1, 289175, Note_on_c, 0, 67, 0
1, 289200, Note_on_c, 1, 59, 65
1, 289247, Note_on_c, 0, 74, 0
1, 289295, Note_on_c, 1, 59, 0
1, 289320, Note_on_c, 0, 75, 65
1, 289320, Note_on_c, 0, 67, 65
1, 289342, Note_on_c, 0, 75, 0
1, 289350, Note_on_c, 0, 74, 65
1, 289372, Note_on_c, 0, 74, 0
1, 289380, Note_on_c, 0, 72, 65
1, 289402, Note_on_c, 0, 72, 0
1, 289410, Note_on_c, 0, 74, 65
1, 289415, Note_on_c, 0, 67, 0
1, 289432, Note_on_c, 0, 74, 0
1, 289440, Note_on_c, 0, 60, 65
1, 289440, Note_on_c, 0, 75, 65
1, 289535, Note_on_c, 0, 60, 0
1, 289560, Note_on_c, 0, 67, 65
1, 289630, Note_on_c, 0, 75, 0
1, 289655, Note_on_c, 0, 67, 0
1, 289680, Note_on_c, 0, 62, 65
1, 289680, Note_on_c, 0, 77, 65
1, 289775, Note_on_c, 0, 62, 0
1, 289800, Note_on_c, 0, 67, 65
1, 289870, Note_on_c, 0, 77, 0
1, 289895, Note_on_c, 0, 67, 0
1, 289920, Note_on_c, 0, 62, 65
1, 289920, Note_on_c, 0, 78, 65
1, 290015, Note_on_c, 0, 62, 0
1, 290040, Note_on_c, 0, 67, 65
1, 290135, Note_on_c, 0, 67, 0
1, 290160, Note_on_c, 0, 62, 65
1, 290255, Note_on_c, 0, 62, 0
1, 290280, Note_on_c, 0, 67, 65
1, 290302, Note_on_c, 0, 78, 0
1, 290375, Note_on_c, 0, 67, 0
1, 290400, Note_on_c, 0, 63, 65
1, 290400, Note_on_c, 0, 79, 65
1, 290495, Note_on_c, 0, 63, 0
1, 290520, Note_on_c, 0, 67, 65
1, 290590, Note_on_c, 0, 79, 0
1, 290615, Note_on_c, 0, 67, 0
1, 290640, Note_on_c, 0, 63, 65
1, 290735, Note_on_c, 0, 63, 0
1, 290760, Note_on_c, 0, 67, 65
1, 290855, Note_on_c, 0, 67, 0
1, 290880, Note_on_c, 0, 63, 65
1, 290880, Note_on_c, 1, 55, 65
1, 290975, Note_on_c, 0, 63, 0
1, 291000, Note_on_c, 0, 67, 65
1, 291095, Note_on_c, 0, 67, 0
1, 291120, Note_on_c, 0, 60, 65
1, 291167, Note_on_c, 1, 55, 0
1, 291215, Note_on_c, 0, 60, 0
1, 291240, Note_on_c, 0, 67, 65
1, 291240, Note_on_c, 1, 54, 65
1, 291287, Note_on_c, 1, 54, 0
1, 291300, Note_on_c, 1, 55, 65
1, 291335, Note_on_c, 0, 67, 0
1, 291347, Note_on_c, 1, 55, 0
1, 291360, Note_on_c, 0, 63, 65
1, 291360, Note_on_c, 1, 56, 65
1, 291455, Note_on_c, 0, 63, 0
1, 291455, Note_on_c, 1, 56, 0
1, 291480, Note_on_c, 0, 67, 65
1, 291480, Note_on_c, 1, 55, 65
1, 291575, Note_on_c, 0, 67, 0
1, 291575, Note_on_c, 1, 55, 0
1, 291600, Note_on_c, 0, 60, 65
1, 291600, Note_on_c, 1, 53, 65
1, 291695, Note_on_c, 0, 60, 0
1, 291695, Note_on_c, 1, 53, 0
1, 291720, Note_on_c, 0, 67, 65
1, 291720, Note_on_c, 1, 51, 65
1, 291815, Note_on_c, 0, 67, 0
1, 291815, Note_on_c, 1, 51, 0
1, 291840, Note_on_c, 0, 65, 65
1, 291840, Note_on_c, 1, 50, 65
1, 291935, Note_on_c, 0, 65, 0
1, 291960, Note_on_c, 0, 67, 65
1, 292055, Note_on_c, 0, 67, 0
1, 292080, Note_on_c, 0, 62, 65
1, 292175, Note_on_c, 0, 62, 0
1, 292200, Note_on_c, 0, 67, 65
1, 292222, Note_on_c, 1, 50, 0
1, 292295, Note_on_c, 0, 67, 0
1, 292320, Note_on_c, 0, 63, 78
1, 292320, Note_on_c, 1, 48, 75
1, 292415, Note_on_c, 0, 63, 0
1, 292440, Note_on_c, 0, 67, 76
1, 292510, Note_on_c, 1, 48, 0
1, 292535, Note_on_c, 0, 67, 0
1, 292560, Note_on_c, 0, 60, 85
1, 292655, Note_on_c, 0, 60, 0
1, 292680, Note_on_c, 0, 67, 87
1, 292775, Note_on_c, 0, 67, 0
1, 292800, Note_on_c, 0, 63, 95
1, 292800, Note_on_c, 0, 72, 95
1, 292800, Note_on_c, 0, 84, 95
1, 292800, Note_on_c, 0, 60, 95
1, 292895, Note_on_c, 0, 60, 0
1, 292895, Note_on_c, 0, 63, 0
1, 292920, Note_on_c, 0, 67, 95
1, 293015, Note_on_c, 0, 67, 0
1, 293040, Note_on_c, 0, 60, 95
1, 293040, Note_on_c, 0, 63, 95
1, 293135, Note_on_c, 0, 63, 0
1, 293135, Note_on_c, 0, 60, 0
1, 293160, Note_on_c, 0, 67, 95
1, 293182, Note_on_c, 0, 84, 0
1, 293182, Note_on_c, 0, 72, 0
1, 293255, Note_on_c, 0, 67, 0
1, 293280, Note_on_c, 0, 73, 95
1, 293280, Note_on_c, 0, 85, 95
1, 293280, Note_on_c, 0, 64, 95
1, 293280, Note_on_c, 1, 58, 95
1, 293375, Note_on_c, 0, 64, 0
1, 293375, Note_on_c, 1, 58, 0
1, 293400, Note_on_c, 0, 67, 95
1, 293495, Note_on_c, 0, 67, 0
1, 293520, Note_on_c, 0, 64, 95
1, 293520, Note_on_c, 1, 58, 95
1, 293615, Note_on_c, 0, 64, 0
1, 293615, Note_on_c, 1, 58, 0
1, 293640, Note_on_c, 0, 67, 95
1, 293662, Note_on_c, 0, 85, 0
1, 293662, Note_on_c, 0, 73, 0
1, 293735, Note_on_c, 0, 67, 0
1, 293760, Note_on_c, 0, 84, 95
1, 293760, Note_on_c, 0, 60, 95
1, 293760, Note_on_c, 0, 72, 95
1, 293760, Note_on_c, 1, 57, 95
1, 293855, Note_on_c, 0, 60, 0
1, 293855, Note_on_c, 1, 57, 0
1, 293880, Note_on_c, 0, 65, 95
1, 293950, Note_on_c, 0, 72, 0
1, 293950, Note_on_c, 0, 84, 0
1, 293975, Note_on_c, 0, 65, 0
1, 294000, Note_on_c, 0, 87, 95
1, 294000, Note_on_c, 0, 66, 95
1, 294000, Note_on_c, 0, 75, 95
1, 294000, Note_on_c, 0, 60, 95
1, 294000, Note_on_c, 1, 56, 95
1, 294190, Note_on_c, 0, 60, 0
1, 294190, Note_on_c, 0, 87, 0
1, 294190, Note_on_c, 0, 66, 0
1, 294190, Note_on_c, 0, 75, 0
1, 294190, Note_on_c, 1, 56, 0
1, 294360, Note_on_c, 0, 87, 70
1, 294455, Note_on_c, 0, 87, 0
1, 294480, Note_on_c, 0, 86, 66
1, 294575, Note_on_c, 0, 86, 0
1, 294600, Note_on_c, 0, 84, 65
1, 294695, Note_on_c, 0, 84, 0
1, 294720, Note_on_c, 0, 83, 65
1, 294815, Note_on_c, 0, 83, 0
1, 294840, Note_on_c, 0, 86, 65
1, 294935, Note_on_c, 0, 86, 0
1, 294960, Note_on_c, 0, 77, 65
1, 294960, Note_on_c, 1, 55, 65
1, 294960, Note_on_c, 1, 59, 65
1, 295150, Note_on_c, 0, 77, 0
1, 295150, Note_on_c, 1, 59, 0
1, 295150, Note_on_c, 1, 55, 0
1, 295200, Note_on_c, 0, 62, 65
1, 295200, Note_on_c, 1, 59, 65
1, 295320, Note_on_c, 0, 80, 65
1, 295390, Note_on_c, 0, 62, 0
1, 295390, Note_on_c, 1, 59, 0
1, 295415, Note_on_c, 0, 80, 0
1, 295440, Note_on_c, 0, 79, 65
1, 295535, Note_on_c, 0, 79, 0
1, 295560, Note_on_c, 0, 77, 65
1, 295655, Note_on_c, 0, 77, 0
1, 295680, Note_on_c, 0, 76, 65
1, 295775, Note_on_c, 0, 76, 0
1, 295800, Note_on_c, 0, 79, 65
1, 295895, Note_on_c, 0, 79, 0
1, 295920, Note_on_c, 0, 70, 65
1, 295920, Note_on_c, 1, 48, 65
1, 295920, Note_on_c, 1, 52, 65
1, 296110, Note_on_c, 0, 70, 0
1, 296110, Note_on_c, 1, 52, 0
1, 296110, Note_on_c, 1, 48, 0
1, 296160, Note_on_c, 1, 55, 65
1, 296160, Note_on_c, 1, 52, 65
1, 296280, Note_on_c, 0, 73, 65
1, 296350, Note_on_c, 1, 52, 0
1, 296350, Note_on_c, 1, 55, 0
1, 296375, Note_on_c, 0, 73, 0
1, 296400, Note_on_c, 0, 72, 65
1, 296495, Note_on_c, 0, 72, 0
1, 296520, Note_on_c, 0, 70, 65
1, 296615, Note_on_c, 0, 70, 0
1, 296640, Note_on_c, 0, 68, 65
1, 296640, Note_on_c, 1, 53, 65
1, 296735, Note_on_c, 0, 68, 0
1, 296760, Note_on_c, 0, 80, 65
1, 296830, Note_on_c, 1, 53, 0
1, 296855, Note_on_c, 0, 80, 0
1, 296880, Note_on_c, 0, 79, 65
1, 296975, Note_on_c, 0, 79, 0
1, 297000, Note_on_c, 0, 77, 65
1, 297095, Note_on_c, 0, 77, 0
1, 297120, Note_on_c, 0, 75, 65
1, 297215, Note_on_c, 0, 75, 0
1, 297240, Note_on_c, 0, 74, 65
1, 297335, Note_on_c, 0, 74, 0
1, 297360, Note_on_c, 0, 75, 65
1, 297455, Note_on_c, 0, 75, 0
1, 297480, Note_on_c, 0, 77, 65
1, 297575, Note_on_c, 0, 77, 0
1, 297600, Note_on_c, 0, 72, 65
1, 297600, Note_on_c, 1, 55, 65
1, 297840, Note_on_c, 0, 67, 65
1, 297840, Note_on_c, 0, 63, 65
1, 297982, Note_on_c, 0, 72, 0
1, 298030, Note_on_c, 0, 63, 0
1, 298030, Note_on_c, 0, 67, 0
1, 298080, Note_on_c, 0, 65, 75
1, 298080, Note_on_c, 0, 62, 75
1, 298320, Note_on_c, 0, 75, 86
1, 298320, Note_on_c, 0, 71, 85
1, 298367, Note_on_c, 1, 55, 0
1, 298415, Note_on_c, 0, 71, 0
1, 298415, Note_on_c, 0, 75, 0
1, 298440, Note_on_c, 0, 74, 86
1, 298462, Note_on_c, 0, 62, 0
1, 298462, Note_on_c, 0, 65, 0
1, 298535, Note_on_c, 0, 74, 0
1, 298560, Note_on_c, 0, 60, 95
1, 298560, Note_on_c, 0, 72, 95
1, 298560, Note_on_c, 1, 48, 95
1, 298560, Note_on_c, 1, 51, 95
1, 298655, Note_on_c, 1, 51, 0
1, 298655, Note_on_c, 1, 48, 0
1, 298680, Note_on_c, 1, 55, 95
1, 298775, Note_on_c, 1, 55, 0
1, 298800, Note_on_c, 1, 48, 95
1, 298800, Note_on_c, 1, 51, 95
1, 298895, Note_on_c, 1, 51, 0
1, 298895, Note_on_c, 1, 48, 0
1, 298920, Note_on_c, 1, 55, 95
1, 298942, Note_on_c, 0, 72, 0
1, 298942, Note_on_c, 0, 60, 0
1, 299015, Note_on_c, 1, 55, 0
1, 299040, Note_on_c, 0, 61, 95
1, 299040, Note_on_c, 0, 73, 95
1, 299040, Note_on_c, 1, 46, 95
1, 299040, Note_on_c, 1, 52, 95
1, 299135, Note_on_c, 1, 52, 0
1, 299135, Note_on_c, 1, 46, 0
1, 299160, Note_on_c, 1, 55, 95
1, 299255, Note_on_c, 1, 55, 0
1, 299280, Note_on_c, 1, 46, 95
1, 299280, Note_on_c, 1, 52, 95
1, 299375, Note_on_c, 1, 52, 0
1, 299375, Note_on_c, 1, 46, 0
1, 299400, Note_on_c, 1, 55, 95
1, 299422, Note_on_c, 0, 73, 0
1, 299422, Note_on_c, 0, 61, 0
1, 299495, Note_on_c, 1, 55, 0
1, 299520, Note_on_c, 0, 72, 95
1, 299520, Note_on_c, 0, 60, 95
1, 299520, Note_on_c, 1, 45, 95
1, 299520, Note_on_c, 1, 48, 95
1, 299615, Note_on_c, 1, 48, 0
1, 299615, Note_on_c, 1, 45, 0
1, 299640, Note_on_c, 1, 53, 95
1, 299710, Note_on_c, 0, 60, 0
1, 299710, Note_on_c, 0, 72, 0
1, 299735, Note_on_c, 1, 53, 0
1, 299760, Note_on_c, 0, 63, 95
1, 299760, Note_on_c, 0, 75, 95
1, 299760, Note_on_c, 1, 44, 95
1, 299760, Note_on_c, 1, 48, 95
1, 299760, Note_on_c, 1, 54, 95
1, 299950, Note_on_c, 0, 75, 0
1, 299950, Note_on_c, 0, 63, 0
1, 299950, Note_on_c, 1, 54, 0
1, 299950, Note_on_c, 1, 48, 0
1, 299950, Note_on_c, 1, 44, 0
1, 300120, Note_on_c, 0, 75, 76
1, 300215, Note_on_c, 0, 75, 0
1, 300240, Note_on_c, 0, 74, 71
1, 300335, Note_on_c, 0, 74, 0
1, 300360, Note_on_c, 0, 72, 71
1, 300455, Note_on_c, 0, 72, 0
1, 300480, Note_on_c, 0, 71, 65
1, 300575, Note_on_c, 0, 71, 0
1, 300600, Note_on_c, 0, 74, 65
1, 300695, Note_on_c, 0, 74, 0
1, 300720, Note_on_c, 0, 65, 65
1, 300720, Note_on_c, 1, 43, 65
1, 300720, Note_on_c, 1, 47, 65
1, 300910, Note_on_c, 0, 65, 0
1, 300910, Note_on_c, 1, 47, 0
1, 300910, Note_on_c, 1, 43, 0
1, 300960, Note_on_c, 1, 47, 65
1, 300960, Note_on_c, 1, 50, 65
1, 301080, Note_on_c, 0, 68, 65
1, 301150, Note_on_c, 1, 50, 0
1, 301150, Note_on_c, 1, 47, 0
1, 301175, Note_on_c, 0, 68, 0
1, 301200, Note_on_c, 0, 67, 65
1, 301295, Note_on_c, 0, 67, 0
1, 301320, Note_on_c, 0, 65, 65
1, 301415, Note_on_c, 0, 65, 0
1, 301440, Note_on_c, 0, 64, 65
1, 301535, Note_on_c, 0, 64, 0
1, 301560, Note_on_c, 0, 67, 65
1, 301655, Note_on_c, 0, 67, 0
1, 301680, Note_on_c, 1, 58, 65
1, 301680, Note_on_c, 1, 40, 65
1, 301680, Note_on_c, 1, 36, 65
1, 301870, Note_on_c, 1, 36, 0
1, 301870, Note_on_c, 1, 40, 0
1, 301870, Note_on_c, 1, 58, 0
1, 301920, Note_on_c, 1, 43, 75
1, 301920, Note_on_c, 1, 40, 77
1, 302040, Note_on_c, 0, 61, 77
1, 302110, Note_on_c, 1, 40, 0
1, 302110, Note_on_c, 1, 43, 0
1, 302135, Note_on_c, 0, 61, 0
1, 302160, Note_on_c, 0, 60, 85
1, 302255, Note_on_c, 0, 60, 0
1, 302280, Note_on_c, 1, 58, 85
1, 302375, Note_on_c, 1, 58, 0
1, 302400, Note_on_c, 1, 41, 95
1, 302400, Note_on_c, 1, 29, 95
1, 302400, Note_on_c, 1, 56, 95
1, 302462, Note_on_c, 1, 56, 0
1, 302480, Note_on_c, 0, 60, 95
1, 302542, Note_on_c, 0, 60, 0
1, 302560, Note_on_c, 1, 52, 95
1, 302622, Note_on_c, 1, 52, 0
1, 302640, Note_on_c, 1, 53, 95
1, 302702, Note_on_c, 1, 53, 0
1, 302720, Note_on_c, 1, 56, 95
1, 302782, Note_on_c, 1, 56, 0
1, 302800, Note_on_c, 1, 47, 95
1, 302862, Note_on_c, 1, 47, 0
1, 302880, Note_on_c, 1, 48, 95
1, 302942, Note_on_c, 1, 48, 0
1, 302960, Note_on_c, 1, 53, 95
1, 303022, Note_on_c, 1, 53, 0
1, 303040, Note_on_c, 1, 43, 95
1, 303102, Note_on_c, 1, 43, 0
1, 303120, Note_on_c, 1, 44, 95
1, 303167, Note_on_c, 1, 29, 0
1, 303167, Note_on_c, 1, 41, 0
1, 303182, Note_on_c, 1, 44, 0
1, 303200, Note_on_c, 1, 48, 95
1, 303262, Note_on_c, 1, 48, 0
1, 303280, Note_on_c, 1, 40, 95
1, 303342, Note_on_c, 1, 40, 0
1, 303360, Note_on_c, 1, 41, 95
1, 303422, Note_on_c, 1, 41, 0
1, 303440, Note_on_c, 1, 36, 95
1, 303502, Note_on_c, 1, 36, 0
1, 303520, Note_on_c, 1, 41, 95
1, 303582, Note_on_c, 1, 41, 0
1, 303600, Note_on_c, 1, 44, 95
1, 303662, Note_on_c, 1, 44, 0
1, 303680, Note_on_c, 1, 41, 95
1, 303742, Note_on_c, 1, 41, 0
1, 303760, Note_on_c, 1, 44, 95
1, 303822, Note_on_c, 1, 44, 0
1, 303840, Note_on_c, 1, 48, 95
1, 303902, Note_on_c, 1, 48, 0
1, 303920, Note_on_c, 1, 44, 95
1, 303982, Note_on_c, 1, 44, 0
1, 304000, Note_on_c, 1, 48, 95
1, 304062, Note_on_c, 1, 48, 0
1, 304080, Note_on_c, 1, 53, 95
1, 304142, Note_on_c, 1, 53, 0
1, 304160, Note_on_c, 1, 48, 95
1, 304222, Note_on_c, 1, 48, 0
1, 304240, Note_on_c, 1, 53, 95
1, 304302, Note_on_c, 1, 53, 0
1, 304320, Note_on_c, 1, 56, 95
1, 304382, Note_on_c, 1, 56, 0
1, 304400, Note_on_c, 1, 53, 95
1, 304462, Note_on_c, 1, 53, 0
1, 304480, Note_on_c, 1, 56, 95
1, 304542, Note_on_c, 1, 56, 0
1, 304560, Note_on_c, 0, 60, 95
1, 304622, Note_on_c, 0, 60, 0
1, 304640, Note_on_c, 1, 56, 95
1, 304702, Note_on_c, 1, 56, 0
1, 304720, Note_on_c, 0, 60, 95
1, 304782, Note_on_c, 0, 60, 0
1, 304800, Note_on_c, 0, 65, 95
1, 304862, Note_on_c, 0, 65, 0
1, 304880, Note_on_c, 0, 60, 95
1, 304942, Note_on_c, 0, 60, 0
1, 304960, Note_on_c, 0, 65, 95
1, 305022, Note_on_c, 0, 65, 0
1, 305040, Note_on_c, 0, 68, 95
1, 305102, Note_on_c, 0, 68, 0
1, 305120, Note_on_c, 0, 65, 95
1, 305182, Note_on_c, 0, 65, 0
1, 305200, Note_on_c, 0, 68, 95
1, 305262, Note_on_c, 0, 68, 0
1, 305280, Note_on_c, 0, 72, 95
1, 305342, Note_on_c, 0, 72, 0
1, 305360, Note_on_c, 0, 68, 95
1, 305422, Note_on_c, 0, 68, 0
1, 305440, Note_on_c, 0, 72, 95
1, 305502, Note_on_c, 0, 72, 0
1, 305520, Note_on_c, 0, 77, 95
1, 305582, Note_on_c, 0, 77, 0
1, 305600, Note_on_c, 0, 72, 95
1, 305662, Note_on_c, 0, 72, 0
1, 305680, Note_on_c, 0, 77, 95
1, 305742, Note_on_c, 0, 77, 0
1, 305760, Note_on_c, 0, 80, 85
1, 305822, Note_on_c, 0, 80, 0
1, 305840, Note_on_c, 0, 77, 85
1, 305902, Note_on_c, 0, 77, 0
1, 305920, Note_on_c, 0, 80, 85
1, 305982, Note_on_c, 0, 80, 0
1, 306000, Note_on_c, 0, 84, 75
1, 306095, Note_on_c, 0, 84, 0
1, 306120, Note_on_c, 0, 79, 75
1, 306215, Note_on_c, 0, 79, 0
1, 306240, Note_on_c, 0, 80, 65
1, 306335, Note_on_c, 0, 80, 0
1, 306360, Note_on_c, 0, 76, 65
1, 306455, Note_on_c, 0, 76, 0
1, 306480, Note_on_c, 0, 77, 65
1, 306575, Note_on_c, 0, 77, 0
1, 306600, Note_on_c, 0, 73, 65
1, 306695, Note_on_c, 0, 73, 0
1, 306720, Note_on_c, 0, 74, 65
1, 306815, Note_on_c, 0, 74, 0
1, 306840, Note_on_c, 0, 80, 65
1, 306935, Note_on_c, 0, 80, 0
1, 306960, Note_on_c, 0, 77, 65
1, 307055, Note_on_c, 0, 77, 0
1, 307080, Note_on_c, 0, 74, 65
1, 307175, Note_on_c, 0, 74, 0
1, 307200, Note_on_c, 0, 63, 65
1, 307200, Note_on_c, 0, 60, 65
1, 307200, Note_on_c, 1, 55, 65
1, 307320, Note_on_c, 0, 67, 65
1, 307390, Note_on_c, 0, 60, 0
1, 307390, Note_on_c, 0, 63, 0
1, 307390, Note_on_c, 1, 55, 0
1, 307415, Note_on_c, 0, 67, 0
1, 307440, Note_on_c, 0, 79, 65
1, 307535, Note_on_c, 0, 79, 0
1, 307560, Note_on_c, 0, 78, 65
1, 307655, Note_on_c, 0, 78, 0
1, 307680, Note_on_c, 0, 77, 65
1, 307775, Note_on_c, 0, 77, 0
1, 307800, Note_on_c, 0, 76, 65
1, 307895, Note_on_c, 0, 76, 0
1, 307920, Note_on_c, 0, 75, 65
1, 308015, Note_on_c, 0, 75, 0
1, 308040, Note_on_c, 0, 74, 65
1, 308135, Note_on_c, 0, 74, 0
1, 308160, Note_on_c, 0, 74, 65
1, 308160, Note_on_c, 0, 63, 65
1, 308160, Note_on_c, 1, 55, 65
1, 308255, Note_on_c, 0, 63, 0
1, 308255, Note_on_c, 0, 74, 0
1, 308255, Note_on_c, 1, 55, 0
1, 308280, Note_on_c, 0, 67, 65
1, 308280, Note_on_c, 0, 72, 65
1, 308375, Note_on_c, 0, 72, 0
1, 308375, Note_on_c, 0, 67, 0
1, 308400, Note_on_c, 0, 63, 65
1, 308400, Note_on_c, 0, 72, 65
1, 308495, Note_on_c, 0, 63, 0
1, 308520, Note_on_c, 0, 67, 65
1, 308615, Note_on_c, 0, 67, 0
1, 308640, Note_on_c, 0, 65, 65
1, 308735, Note_on_c, 0, 65, 0
1, 308760, Note_on_c, 0, 67, 65
1, 308782, Note_on_c, 0, 72, 0
1, 308855, Note_on_c, 0, 67, 0
1, 308880, Note_on_c, 0, 65, 65
1, 308880, Note_on_c, 0, 75, 65
1, 308880, Note_on_c, 0, 71, 65
1, 308975, Note_on_c, 0, 71, 0
1, 308975, Note_on_c, 0, 75, 0
1, 308975, Note_on_c, 0, 65, 0
1, 309000, Note_on_c, 0, 67, 65
1, 309000, Note_on_c, 0, 74, 65
1, 309095, Note_on_c, 0, 74, 0
1, 309095, Note_on_c, 0, 67, 0
1, 309120, Note_on_c, 0, 72, 65
1, 309120, Note_on_c, 0, 60, 65
1, 309215, Note_on_c, 0, 60, 0
1, 309240, Note_on_c, 0, 67, 65
1, 309310, Note_on_c, 0, 72, 0
1, 309335, Note_on_c, 0, 67, 0
1, 309360, Note_on_c, 0, 63, 65
1, 309455, Note_on_c, 0, 63, 0
1, 309480, Note_on_c, 0, 67, 65
1, 309480, Note_on_c, 0, 72, 65
1, 309575, Note_on_c, 0, 72, 0
1, 309575, Note_on_c, 0, 67, 0
1, 309600, Note_on_c, 0, 73, 65
1, 309600, Note_on_c, 1, 59, 65
1, 309695, Note_on_c, 0, 73, 0
1, 309695, Note_on_c, 1, 59, 0
1, 309720, Note_on_c, 0, 67, 65
1, 309720, Note_on_c, 0, 74, 65
1, 309815, Note_on_c, 0, 74, 0
1, 309815, Note_on_c, 0, 67, 0
1, 309840, Note_on_c, 0, 65, 65
1, 309935, Note_on_c, 0, 65, 0
1, 309960, Note_on_c, 0, 67, 65
1, 309960, Note_on_c, 0, 74, 65
1, 310055, Note_on_c, 0, 74, 0
1, 310055, Note_on_c, 0, 67, 0
1, 310080, Note_on_c, 0, 60, 65
1, 310080, Note_on_c, 0, 77, 65
1, 310175, Note_on_c, 0, 77, 0
1, 310175, Note_on_c, 0, 60, 0
1, 310200, Note_on_c, 0, 67, 65
1, 310200, Note_on_c, 0, 75, 65
1, 310295, Note_on_c, 0, 75, 0
1, 310295, Note_on_c, 0, 67, 0
1, 310320, Note_on_c, 0, 63, 65
1, 310415, Note_on_c, 0, 63, 0
1, 310440, Note_on_c, 0, 67, 65
1, 310440, Note_on_c, 0, 75, 65
1, 310535, Note_on_c, 0, 75, 0
1, 310535, Note_on_c, 0, 67, 0
1, 310560, Note_on_c, 0, 76, 65
1, 310560, Note_on_c, 1, 50, 65
1, 310655, Note_on_c, 0, 76, 0
1, 310655, Note_on_c, 1, 50, 0
1, 310680, Note_on_c, 0, 77, 65
1, 310680, Note_on_c, 1, 59, 65
1, 310775, Note_on_c, 0, 77, 0
1, 310775, Note_on_c, 1, 59, 0
1, 310800, Note_on_c, 1, 53, 65
1, 310895, Note_on_c, 1, 53, 0
1, 310920, Note_on_c, 0, 77, 65
1, 310920, Note_on_c, 1, 59, 65
1, 311015, Note_on_c, 0, 77, 0
1, 311015, Note_on_c, 1, 59, 0
1, 311040, Note_on_c, 0, 78, 65
1, 311040, Note_on_c, 1, 51, 65
1, 311135, Note_on_c, 0, 78, 0
1, 311135, Note_on_c, 1, 51, 0
1, 311160, Note_on_c, 0, 60, 65
1, 311160, Note_on_c, 0, 79, 65
1, 311255, Note_on_c, 0, 79, 0
1, 311255, Note_on_c, 0, 60, 0
1, 311280, Note_on_c, 1, 52, 65
1, 311375, Note_on_c, 1, 52, 0
1, 311400, Note_on_c, 0, 60, 65
1, 311400, Note_on_c, 0, 79, 65
1, 311495, Note_on_c, 0, 79, 0
1, 311495, Note_on_c, 0, 60, 0
1, 311520, Note_on_c, 0, 82, 65
1, 311520, Note_on_c, 1, 53, 65
1, 311615, Note_on_c, 0, 82, 0
1, 311615, Note_on_c, 1, 53, 0
1, 311640, Note_on_c, 0, 60, 65
1, 311640, Note_on_c, 0, 80, 65
1, 311735, Note_on_c, 0, 80, 0
1, 311735, Note_on_c, 0, 60, 0
1, 311760, Note_on_c, 1, 54, 65
1, 311855, Note_on_c, 1, 54, 0
1, 311880, Note_on_c, 0, 63, 65
1, 311880, Note_on_c, 0, 84, 65
1, 311975, Note_on_c, 0, 84, 0
1, 311975, Note_on_c, 0, 63, 0
1, 312000, Note_on_c, 0, 84, 65
1, 312000, Note_on_c, 1, 55, 65
1, 312095, Note_on_c, 0, 84, 0
1, 312095, Note_on_c, 1, 55, 0
1, 312120, Note_on_c, 0, 63, 65
1, 312120, Note_on_c, 0, 72, 65
1, 312215, Note_on_c, 0, 72, 0
1, 312215, Note_on_c, 0, 63, 0
1, 312240, Note_on_c, 0, 72, 65
1, 312240, Note_on_c, 0, 60, 65
1, 312335, Note_on_c, 0, 60, 0
1, 312360, Note_on_c, 0, 63, 65
1, 312455, Note_on_c, 0, 63, 0
1, 312480, Note_on_c, 1, 55, 65
1, 312575, Note_on_c, 1, 55, 0
1, 312600, Note_on_c, 0, 65, 65
1, 312622, Note_on_c, 0, 72, 0
1, 312695, Note_on_c, 0, 65, 0
1, 312720, Note_on_c, 0, 62, 65
1, 312720, Note_on_c, 0, 75, 65
1, 312815, Note_on_c, 0, 75, 0
1, 312815, Note_on_c, 0, 62, 0
1, 312840, Note_on_c, 0, 65, 65
1, 312840, Note_on_c, 0, 74, 65
1, 312935, Note_on_c, 0, 74, 0
1, 312935, Note_on_c, 0, 65, 0
1, 312960, Note_on_c, 0, 72, 95
1, 312960, Note_on_c, 1, 48, 95
1, 313055, Note_on_c, 0, 72, 0
1, 313055, Note_on_c, 1, 48, 0
1, 313080, Note_on_c, 0, 72, 95
1, 313080, Note_on_c, 1, 55, 95
1, 313175, Note_on_c, 0, 72, 0
1, 313175, Note_on_c, 1, 55, 0
1, 313200, Note_on_c, 0, 72, 95
1, 313200, Note_on_c, 1, 51, 95
1, 313222, Note_on_c, 0, 72, 0
1, 313230, Note_on_c, 0, 74, 95
1, 313252, Note_on_c, 0, 74, 0
1, 313260, Note_on_c, 0, 72, 95
1, 313282, Note_on_c, 0, 72, 0
1, 313290, Note_on_c, 0, 74, 95
1, 313295, Note_on_c, 1, 51, 0
1, 313312, Note_on_c, 0, 74, 0
1, 313320, Note_on_c, 0, 71, 95
1, 313320, Note_on_c, 1, 55, 95
1, 313367, Note_on_c, 0, 71, 0
1, 313380, Note_on_c, 0, 72, 95
1, 313415, Note_on_c, 1, 55, 0
1, 313427, Note_on_c, 0, 72, 0
1, 313440, Note_on_c, 0, 74, 95
1, 313440, Note_on_c, 1, 47, 95
1, 313535, Note_on_c, 0, 74, 0
1, 313535, Note_on_c, 1, 47, 0
1, 313560, Note_on_c, 0, 74, 95
1, 313560, Note_on_c, 1, 55, 95
1, 313655, Note_on_c, 0, 74, 0
1, 313655, Note_on_c, 1, 55, 0
1, 313680, Note_on_c, 0, 74, 95
1, 313680, Note_on_c, 1, 53, 95
1, 313702, Note_on_c, 0, 74, 0
1, 313710, Note_on_c, 0, 75, 95
1, 313732, Note_on_c, 0, 75, 0
1, 313740, Note_on_c, 0, 74, 95
1, 313762, Note_on_c, 0, 74, 0
1, 313770, Note_on_c, 0, 75, 95
1, 313775, Note_on_c, 1, 53, 0
1, 313792, Note_on_c, 0, 75, 0
1, 313800, Note_on_c, 0, 72, 95
1, 313800, Note_on_c, 1, 55, 95
1, 313847, Note_on_c, 0, 72, 0
1, 313860, Note_on_c, 0, 74, 95
1, 313895, Note_on_c, 1, 55, 0
1, 313907, Note_on_c, 0, 74, 0
1, 313920, Note_on_c, 0, 75, 95
1, 313920, Note_on_c, 1, 48, 95
1, 314015, Note_on_c, 0, 75, 0
1, 314015, Note_on_c, 1, 48, 0
1, 314040, Note_on_c, 0, 75, 95
1, 314040, Note_on_c, 1, 55, 95
1, 314135, Note_on_c, 0, 75, 0
1, 314135, Note_on_c, 1, 55, 0
1, 314160, Note_on_c, 0, 75, 95
1, 314160, Note_on_c, 1, 51, 95
1, 314182, Note_on_c, 0, 75, 0
1, 314190, Note_on_c, 0, 77, 95
1, 314212, Note_on_c, 0, 77, 0
1, 314220, Note_on_c, 0, 75, 95
1, 314242, Note_on_c, 0, 75, 0
1, 314250, Note_on_c, 0, 77, 95
1, 314255, Note_on_c, 1, 51, 0
1, 314272, Note_on_c, 0, 77, 0
1, 314280, Note_on_c, 0, 74, 95
1, 314280, Note_on_c, 1, 55, 95
1, 314327, Note_on_c, 0, 74, 0
1, 314340, Note_on_c, 0, 75, 95
1, 314375, Note_on_c, 1, 55, 0
1, 314387, Note_on_c, 0, 75, 0
1, 314400, Note_on_c, 0, 77, 95
1, 314400, Note_on_c, 1, 50, 95
1, 314495, Note_on_c, 0, 77, 0
1, 314495, Note_on_c, 1, 50, 0
1, 314520, Note_on_c, 0, 77, 95
1, 314520, Note_on_c, 1, 59, 95
1, 314615, Note_on_c, 0, 77, 0
1, 314615, Note_on_c, 1, 59, 0
1, 314640, Note_on_c, 0, 77, 95
1, 314640, Note_on_c, 1, 55, 95
1, 314662, Note_on_c, 0, 77, 0
1, 314670, Note_on_c, 0, 79, 95
1, 314692, Note_on_c, 0, 79, 0
1, 314700, Note_on_c, 0, 77, 95
1, 314722, Note_on_c, 0, 77, 0
1, 314730, Note_on_c, 0, 79, 95
1, 314735, Note_on_c, 1, 55, 0
1, 314752, Note_on_c, 0, 79, 0
1, 314760, Note_on_c, 0, 75, 95
1, 314760, Note_on_c, 1, 59, 95
1, 314807, Note_on_c, 0, 75, 0
1, 314820, Note_on_c, 0, 77, 95
1, 314855, Note_on_c, 1, 59, 0
1, 314867, Note_on_c, 0, 77, 0
1, 314880, Note_on_c, 0, 79, 95
1, 314880, Note_on_c, 0, 60, 95
1, 314880, Note_on_c, 1, 48, 95
1, 314942, Note_on_c, 0, 79, 0
1, 314960, Note_on_c, 0, 84, 95
1, 315022, Note_on_c, 0, 84, 0
1, 315040, Note_on_c, 0, 82, 95
1, 315102, Note_on_c, 0, 82, 0
1, 315120, Note_on_c, 0, 80, 95
1, 315182, Note_on_c, 0, 80, 0
1, 315200, Note_on_c, 0, 79, 95
1, 315262, Note_on_c, 0, 79, 0
1, 315280, Note_on_c, 0, 77, 95
1, 315342, Note_on_c, 0, 77, 0
1, 315360, Note_on_c, 0, 75, 95
1, 315422, Note_on_c, 0, 75, 0
1, 315440, Note_on_c, 0, 74, 95
1, 315455, Note_on_c, 0, 60, 0
1, 315455, Note_on_c, 1, 48, 0
1, 315502, Note_on_c, 0, 74, 0
1, 315520, Note_on_c, 0, 72, 95
1, 315582, Note_on_c, 0, 72, 0
1, 315600, Note_on_c, 0, 70, 95
1, 315600, Note_on_c, 1, 52, 95
1, 315662, Note_on_c, 0, 70, 0
1, 315680, Note_on_c, 0, 68, 95
1, 315742, Note_on_c, 0, 68, 0
1, 315760, Note_on_c, 0, 67, 95
1, 315790, Note_on_c, 1, 52, 0
1, 315822, Note_on_c, 0, 67, 0
1, 315840, Note_on_c, 0, 60, 95
1, 315840, Note_on_c, 0, 68, 95
1, 315840, Note_on_c, 1, 53, 95
1, 316030, Note_on_c, 0, 68, 0
1, 316030, Note_on_c, 0, 60, 0
1, 316030, Note_on_c, 1, 53, 0
1, 316080, Note_on_c, 0, 72, 95
1, 316080, Note_on_c, 0, 80, 95
1, 316080, Note_on_c, 0, 77, 95
1, 316080, Note_on_c, 1, 53, 95
1, 316270, Note_on_c, 0, 77, 0
1, 316270, Note_on_c, 0, 80, 0
1, 316270, Note_on_c, 0, 72, 0
1, 316270, Note_on_c, 1, 53, 0
1, 316320, Note_on_c, 0, 72, 95
1, 316320, Note_on_c, 0, 75, 95
1, 316320, Note_on_c, 0, 79, 95
1, 316320, Note_on_c, 1, 55, 95
1, 316510, Note_on_c, 0, 79, 0
1, 316510, Note_on_c, 0, 75, 0
1, 316510, Note_on_c, 0, 72, 0
1, 316510, Note_on_c, 1, 55, 0
1, 316560, Note_on_c, 0, 62, 95
1, 316560, Note_on_c, 0, 65, 95
1, 316560, Note_on_c, 0, 71, 95
1, 316560, Note_on_c, 1, 43, 95
1, 316750, Note_on_c, 0, 71, 0
1, 316750, Note_on_c, 0, 65, 0
1, 316750, Note_on_c, 0, 62, 0
1, 316750, Note_on_c, 1, 43, 0
1, 316800, Note_on_c, 0, 72, 95
1, 316800, Note_on_c, 0, 63, 95
1, 316800, Note_on_c, 1, 48, 95
1, 316990, Note_on_c, 0, 63, 0
1, 316990, Note_on_c, 0, 72, 0
1, 316990, Note_on_c, 1, 48, 0
1, 317040, Note_on_c, 0, 79, 95
1, 317102, Note_on_c, 0, 79, 0
1, 317120, Note_on_c, 0, 78, 95
1, 317182, Note_on_c, 0, 78, 0
1, 317200, Note_on_c, 0, 80, 95
1, 317262, Note_on_c, 0, 80, 0
1, 317280, Note_on_c, 0, 79, 95
1, 317342, Note_on_c, 0, 79, 0
1, 317360, Note_on_c, 0, 77, 95
1, 317422, Note_on_c, 0, 77, 0
1, 317440, Note_on_c, 0, 75, 95
1, 317502, Note_on_c, 0, 75, 0
1, 317520, Note_on_c, 0, 60, 95
1, 317520, Note_on_c, 0, 74, 95
1, 317520, Note_on_c, 0, 63, 95
1, 317582, Note_on_c, 0, 74, 0
1, 317600, Note_on_c, 0, 75, 95
1, 317662, Note_on_c, 0, 75, 0
1, 317680, Note_on_c, 0, 72, 95
1, 317710, Note_on_c, 0, 63, 0
1, 317710, Note_on_c, 0, 60, 0
1, 317742, Note_on_c, 0, 72, 0
1, 317760, Note_on_c, 0, 71, 95
1, 317760, Note_on_c, 0, 65, 95
1, 317760, Note_on_c, 0, 62, 95
1, 317760, Note_on_c, 1, 55, 95
1, 317950, Note_on_c, 0, 62, 0
1, 317950, Note_on_c, 0, 65, 0
1, 317950, Note_on_c, 0, 71, 0
1, 317950, Note_on_c, 1, 55, 0
1, 318000, Note_on_c, 0, 77, 95
1, 318062, Note_on_c, 0, 77, 0
1, 318080, Note_on_c, 0, 76, 95
1, 318142, Note_on_c, 0, 76, 0
1, 318160, Note_on_c, 0, 79, 95
1, 318222, Note_on_c, 0, 79, 0
1, 318240, Note_on_c, 0, 77, 95
1, 318302, Note_on_c, 0, 77, 0
1, 318320, Note_on_c, 0, 75, 95
1, 318382, Note_on_c, 0, 75, 0
1, 318400, Note_on_c, 0, 74, 95
1, 318462, Note_on_c, 0, 74, 0
1, 318480, Note_on_c, 0, 65, 95
1, 318480, Note_on_c, 0, 72, 95
1, 318480, Note_on_c, 0, 62, 95
1, 318480, Note_on_c, 1, 56, 95
1, 318542, Note_on_c, 0, 72, 0
1, 318560, Note_on_c, 0, 71, 95
1, 318622, Note_on_c, 0, 71, 0
1, 318640, Note_on_c, 0, 74, 95
1, 318670, Note_on_c, 0, 62, 0
1, 318670, Note_on_c, 0, 65, 0
1, 318670, Note_on_c, 1, 56, 0
1, 318702, Note_on_c, 0, 74, 0
1, 318720, Note_on_c, 0, 60, 95
1, 318720, Note_on_c, 0, 72, 95
1, 318720, Note_on_c, 0, 63, 95
1, 318910, Note_on_c, 0, 63, 0
1, 318910, Note_on_c, 0, 72, 0
1, 318910, Note_on_c, 0, 60, 0
1, 318960, Note_on_c, 0, 79, 95
1, 319022, Note_on_c, 0, 79, 0
1, 319040, Note_on_c, 0, 78, 95
1, 319102, Note_on_c, 0, 78, 0
1, 319120, Note_on_c, 0, 80, 95
1, 319182, Note_on_c, 0, 80, 0
1, 319200, Note_on_c, 0, 79, 95
1, 319262, Note_on_c, 0, 79, 0
1, 319280, Note_on_c, 0, 77, 95
1, 319342, Note_on_c, 0, 77, 0
1, 319360, Note_on_c, 0, 75, 95
1, 319422, Note_on_c, 0, 75, 0
1, 319440, Note_on_c, 0, 74, 95
1, 319440, Note_on_c, 1, 48, 95
1, 319440, Note_on_c, 1, 51, 95
1, 319502, Note_on_c, 0, 74, 0
1, 319520, Note_on_c, 0, 75, 95
1, 319582, Note_on_c, 0, 75, 0
1, 319600, Note_on_c, 0, 72, 95
1, 319630, Note_on_c, 1, 51, 0
1, 319630, Note_on_c, 1, 48, 0
1, 319662, Note_on_c, 0, 72, 0
1, 319680, Note_on_c, 0, 80, 95
1, 319680, Note_on_c, 1, 50, 95
1, 319680, Note_on_c, 1, 53, 95
1, 319680, Note_on_c, 1, 47, 95
1, 319680, Note_on_c, 1, 43, 95
1, 319742, Note_on_c, 0, 80, 0
1, 319760, Note_on_c, 0, 79, 95
1, 319822, Note_on_c, 0, 79, 0
1, 319840, Note_on_c, 0, 77, 95
1, 319902, Note_on_c, 0, 77, 0
1, 319920, Note_on_c, 0, 75, 95
1, 319982, Note_on_c, 0, 75, 0
1, 320000, Note_on_c, 0, 74, 95
1, 320062, Note_on_c, 0, 74, 0
1, 320080, Note_on_c, 0, 72, 95
1, 320142, Note_on_c, 0, 72, 0
1, 320160, Note_on_c, 0, 71, 95
1, 320222, Note_on_c, 0, 71, 0
1, 320240, Note_on_c, 0, 68, 95
1, 320302, Note_on_c, 0, 68, 0
1, 320320, Note_on_c, 0, 67, 95
1, 320382, Note_on_c, 0, 67, 0
1, 320400, Note_on_c, 0, 65, 95
1, 320447, Note_on_c, 1, 43, 0
1, 320447, Note_on_c, 1, 50, 0
1, 320447, Note_on_c, 1, 53, 0
1, 320447, Note_on_c, 1, 47, 0
1, 320462, Note_on_c, 0, 65, 0
1, 320480, Note_on_c, 0, 63, 95
1, 320542, Note_on_c, 0, 63, 0
1, 320560, Note_on_c, 0, 62, 95
1, 320622, Note_on_c, 0, 62, 0
1, 320640, Note_on_c, 0, 60, 95
1, 320640, Note_on_c, 1, 36, 95
1, 320640, Note_on_c, 1, 48, 95
1, 320830, Note_on_c, 0, 60, 0
1, 321022, Note_on_c, 1, 48, 0
1, 321022, Note_on_c, 1, 36, 0
1, 321120, Note_on_c, 1, 39, 95
1, 321120, Note_on_c, 1, 51, 95
1, 321310, Note_on_c, 1, 51, 0
1, 321310, Note_on_c, 1, 39, 0
1, 321360, Note_on_c, 1, 43, 95
1, 321360, Note_on_c, 1, 55, 95
1, 321550, Note_on_c, 1, 55, 0
1, 321550, Note_on_c, 1, 43, 0
1, 321600, Note_on_c, 0, 60, 95
1, 321600, Note_on_c, 0, 72, 95
1, 321600, Note_on_c, 1, 48, 95
1, 321790, Note_on_c, 0, 60, 0
1, 321790, Note_on_c, 1, 48, 0
1, 321840, Note_on_c, 0, 63, 95
1, 321840, Note_on_c, 1, 51, 95
1, 321982, Note_on_c, 0, 72, 0
1, 322030, Note_on_c, 0, 63, 0
1, 322030, Note_on_c, 1, 51, 0
1, 322080, Note_on_c, 0, 75, 95
1, 322270, Note_on_c, 0, 75, 0
1, 322320, Note_on_c, 0, 79, 95
1, 322510, Note_on_c, 0, 79, 0
1, 322560, Note_on_c, 0, 84, 95
1, 322560, Note_on_c, 1, 32, 95
1, 322560, Note_on_c, 1, 44, 95
1, 322750, Note_on_c, 0, 84, 0
1, 322800, Note_on_c, 0, 87, 95
1, 322942, Note_on_c, 1, 44, 0
1, 322942, Note_on_c, 1, 32, 0
1, 322990, Note_on_c, 0, 87, 0
1, 323040, Note_on_c, 1, 36, 95
1, 323040, Note_on_c, 1, 48, 95
1, 323230, Note_on_c, 1, 48, 0
1, 323230, Note_on_c, 1, 36, 0
1, 323280, Note_on_c, 1, 39, 95
1, 323280, Note_on_c, 1, 51, 95
1, 323470, Note_on_c, 1, 51, 0
1, 323470, Note_on_c, 1, 39, 0
1, 323520, Note_on_c, 0, 68, 95
1, 323520, Note_on_c, 1, 44, 95
1, 323520, Note_on_c, 1, 56, 95
1, 323710, Note_on_c, 1, 56, 0
1, 323710, Note_on_c, 1, 44, 0
1, 323760, Note_on_c, 0, 60, 95
1, 323760, Note_on_c, 1, 48, 95
1, 323902, Note_on_c, 0, 68, 0
1, 323950, Note_on_c, 0, 60, 0
1, 323950, Note_on_c, 1, 48, 0
1, 324000, Note_on_c, 0, 72, 95
1, 324190, Note_on_c, 0, 72, 0
1, 324240, Note_on_c, 0, 75, 95
1, 324430, Note_on_c, 0, 75, 0
1, 324480, Note_on_c, 0, 81, 95
1, 324480, Note_on_c, 1, 30, 95
1, 324480, Note_on_c, 1, 42, 95
1, 324670, Note_on_c, 0, 81, 0
1, 324720, Note_on_c, 0, 84, 95
1, 324862, Note_on_c, 1, 42, 0
1, 324862, Note_on_c, 1, 30, 0
1, 324910, Note_on_c, 0, 84, 0
1, 324960, Note_on_c, 1, 45, 95
1, 324960, Note_on_c, 1, 33, 95
1, 325150, Note_on_c, 1, 33, 0
1, 325150, Note_on_c, 1, 45, 0
1, 325200, Note_on_c, 0, 84, 95
1, 325200, Note_on_c, 1, 36, 95
1, 325200, Note_on_c, 1, 48, 95
1, 325262, Note_on_c, 0, 84, 0
1, 325280, Note_on_c, 0, 87, 95
1, 325342, Note_on_c, 0, 87, 0
1, 325360, Note_on_c, 0, 84, 95
1, 325390, Note_on_c, 1, 48, 0
1, 325390, Note_on_c, 1, 36, 0
1, 325422, Note_on_c, 0, 84, 0
1, 325440, Note_on_c, 0, 81, 95
1, 325440, Note_on_c, 1, 42, 95
1, 325440, Note_on_c, 1, 54, 95
1, 325502, Note_on_c, 0, 81, 0
1, 325520, Note_on_c, 0, 84, 95
1, 325582, Note_on_c, 0, 84, 0
1, 325600, Note_on_c, 0, 81, 95
1, 325630, Note_on_c, 1, 54, 0
1, 325630, Note_on_c, 1, 42, 0
1, 325662, Note_on_c, 0, 81, 0
1, 325680, Note_on_c, 0, 78, 95
1, 325680, Note_on_c, 1, 57, 95
1, 325680, Note_on_c, 1, 45, 95
1, 325742, Note_on_c, 0, 78, 0
1, 325760, Note_on_c, 0, 81, 95
1, 325822, Note_on_c, 0, 81, 0
1, 325840, Note_on_c, 0, 78, 95
1, 325870, Note_on_c, 1, 45, 0
1, 325870, Note_on_c, 1, 57, 0
1, 325902, Note_on_c, 0, 78, 0
1, 325920, Note_on_c, 0, 75, 95
1, 325920, Note_on_c, 0, 60, 95
1, 325920, Note_on_c, 1, 48, 95
1, 325982, Note_on_c, 0, 75, 0
1, 326000, Note_on_c, 0, 78, 95
1, 326062, Note_on_c, 0, 78, 0
1, 326080, Note_on_c, 0, 75, 95
1, 326110, Note_on_c, 0, 60, 0
1, 326110, Note_on_c, 1, 48, 0
1, 326142, Note_on_c, 0, 75, 0
1, 326160, Note_on_c, 0, 63, 95
1, 326160, Note_on_c, 0, 72, 95
1, 326160, Note_on_c, 1, 51, 95
1, 326222, Note_on_c, 0, 72, 0
1, 326240, Note_on_c, 0, 75, 95
1, 326302, Note_on_c, 0, 75, 0
1, 326320, Note_on_c, 0, 72, 95
1, 326350, Note_on_c, 0, 63, 0
1, 326350, Note_on_c, 1, 51, 0
1, 326382, Note_on_c, 0, 72, 0
1, 326400, Note_on_c, 0, 67, 95
1, 326400, Note_on_c, 1, 55, 95
1, 326462, Note_on_c, 1, 55, 0
1, 326480, Note_on_c, 0, 60, 95
1, 326542, Note_on_c, 0, 60, 0
1, 326560, Note_on_c, 0, 63, 95
1, 326590, Note_on_c, 0, 67, 0
1, 326622, Note_on_c, 0, 63, 0
1, 326640, Note_on_c, 0, 79, 95
1, 326640, Note_on_c, 1, 55, 95
1, 326702, Note_on_c, 1, 55, 0
1, 326720, Note_on_c, 0, 60, 95
1, 326782, Note_on_c, 0, 60, 0
1, 326800, Note_on_c, 0, 63, 95
1, 326862, Note_on_c, 0, 63, 0
1, 326880, Note_on_c, 1, 55, 95
1, 326942, Note_on_c, 1, 55, 0
1, 326960, Note_on_c, 0, 60, 95
1, 327022, Note_on_c, 0, 60, 0
1, 327022, Note_on_c, 0, 79, 0
1, 327040, Note_on_c, 0, 63, 95
1, 327102, Note_on_c, 0, 63, 0
1, 327120, Note_on_c, 0, 77, 95
1, 327120, Note_on_c, 1, 55, 95
1, 327167, Note_on_c, 0, 77, 0
1, 327180, Note_on_c, 0, 75, 95
1, 327182, Note_on_c, 1, 55, 0
1, 327200, Note_on_c, 0, 60, 95
1, 327227, Note_on_c, 0, 75, 0
1, 327240, Note_on_c, 0, 74, 95
1, 327262, Note_on_c, 0, 60, 0
1, 327280, Note_on_c, 0, 63, 95
1, 327287, Note_on_c, 0, 74, 0
1, 327300, Note_on_c, 0, 72, 95
1, 327342, Note_on_c, 0, 63, 0
1, 327347, Note_on_c, 0, 72, 0
1, 327360, Note_on_c, 0, 74, 95
1, 327360, Note_on_c, 1, 55, 95
1, 327407, Note_on_c, 0, 74, 0
1, 327420, Note_on_c, 0, 75, 95
1, 327422, Note_on_c, 1, 55, 0
1, 327440, Note_on_c, 1, 59, 95
1, 327467, Note_on_c, 0, 75, 0
1, 327480, Note_on_c, 0, 74, 95
1, 327502, Note_on_c, 1, 59, 0
1, 327520, Note_on_c, 0, 65, 95
1, 327527, Note_on_c, 0, 74, 0
1, 327540, Note_on_c, 0, 75, 95
1, 327582, Note_on_c, 0, 65, 0
1, 327587, Note_on_c, 0, 75, 0
1, 327600, Note_on_c, 0, 74, 95
1, 327600, Note_on_c, 1, 55, 95
1, 327647, Note_on_c, 0, 74, 0
1, 327660, Note_on_c, 0, 75, 95
1, 327662, Note_on_c, 1, 55, 0
1, 327680, Note_on_c, 1, 59, 95
1, 327707, Note_on_c, 0, 75, 0
1, 327720, Note_on_c, 0, 74, 95
1, 327742, Note_on_c, 1, 59, 0
1, 327760, Note_on_c, 0, 65, 95
1, 327767, Note_on_c, 0, 74, 0
1, 327780, Note_on_c, 0, 75, 95
1, 327822, Note_on_c, 0, 65, 0
1, 327827, Note_on_c, 0, 75, 0
1, 327840, Note_on_c, 0, 74, 95
1, 327840, Note_on_c, 1, 55, 95
1, 327887, Note_on_c, 0, 74, 0
1, 327900, Note_on_c, 0, 75, 95
1, 327902, Note_on_c, 1, 55, 0
1, 327920, Note_on_c, 1, 59, 95
1, 327947, Note_on_c, 0, 75, 0
1, 327960, Note_on_c, 0, 74, 95
1, 327982, Note_on_c, 1, 59, 0
1, 328000, Note_on_c, 0, 65, 95
1, 328007, Note_on_c, 0, 74, 0
1, 328020, Note_on_c, 0, 75, 95
1, 328062, Note_on_c, 0, 65, 0
1, 328067, Note_on_c, 0, 75, 0
1, 328080, Note_on_c, 0, 74, 95
1, 328080, Note_on_c, 1, 55, 95
1, 328127, Note_on_c, 0, 74, 0
1, 328140, Note_on_c, 0, 75, 95
1, 328142, Note_on_c, 1, 55, 0
1, 328160, Note_on_c, 1, 59, 95
1, 328187, Note_on_c, 0, 75, 0
1, 328200, Note_on_c, 0, 72, 95
1, 328222, Note_on_c, 1, 59, 0
1, 328240, Note_on_c, 0, 65, 95
1, 328247, Note_on_c, 0, 72, 0
1, 328260, Note_on_c, 0, 74, 95
1, 328302, Note_on_c, 0, 65, 0
1, 328307, Note_on_c, 0, 74, 0
1, 328320, Note_on_c, 0, 60, 65
1, 328400, Note_on_c, 0, 72, 65
1, 328462, Note_on_c, 0, 72, 0
1, 328480, Note_on_c, 0, 84, 65
1, 328510, Note_on_c, 0, 60, 0
1, 328542, Note_on_c, 0, 84, 0
1, 328560, Note_on_c, 1, 59, 65
1, 328640, Note_on_c, 0, 71, 65
1, 328702, Note_on_c, 0, 71, 0
1, 328720, Note_on_c, 0, 83, 65
1, 328750, Note_on_c, 1, 59, 0
1, 328782, Note_on_c, 0, 83, 0
1, 328800, Note_on_c, 0, 60, 65
1, 328880, Note_on_c, 0, 72, 65
1, 328942, Note_on_c, 0, 72, 0
1, 328960, Note_on_c, 0, 84, 65
1, 328990, Note_on_c, 0, 60, 0
1, 329022, Note_on_c, 0, 84, 0
1, 329040, Note_on_c, 1, 55, 95
1, 329120, Note_on_c, 0, 67, 95
1, 329182, Note_on_c, 0, 67, 0
1, 329200, Note_on_c, 0, 79, 95
1, 329230, Note_on_c, 1, 55, 0
1, 329262, Note_on_c, 0, 79, 0
1, 329280, Note_on_c, 1, 56, 65
1, 329360, Note_on_c, 0, 68, 65
1, 329422, Note_on_c, 0, 68, 0
1, 329440, Note_on_c, 0, 80, 65
1, 329470, Note_on_c, 1, 56, 0
1, 329502, Note_on_c, 0, 80, 0
1, 329520, Note_on_c, 1, 55, 65
1, 329600, Note_on_c, 0, 67, 65
1, 329662, Note_on_c, 0, 67, 0
1, 329680, Note_on_c, 0, 79, 65
1, 329710, Note_on_c, 1, 55, 0
1, 329742, Note_on_c, 0, 79, 0
1, 329760, Note_on_c, 1, 56, 65
1, 329840, Note_on_c, 0, 68, 65
1, 329902, Note_on_c, 0, 68, 0
1, 329920, Note_on_c, 0, 80, 65
1, 329950, Note_on_c, 1, 56, 0
1, 329982, Note_on_c, 0, 80, 0
1, 330000, Note_on_c, 1, 51, 95
1, 330080, Note_on_c, 0, 63, 95
1, 330142, Note_on_c, 0, 63, 0
1, 330160, Note_on_c, 0, 75, 95
1, 330190, Note_on_c, 1, 51, 0
1, 330222, Note_on_c, 0, 75, 0
1, 330240, Note_on_c, 1, 53, 65
1, 330320, Note_on_c, 0, 65, 65
1, 330382, Note_on_c, 0, 65, 0
1, 330400, Note_on_c, 0, 77, 65
1, 330430, Note_on_c, 1, 53, 0
1, 330462, Note_on_c, 0, 77, 0
1, 330480, Note_on_c, 1, 54, 65
1, 330560, Note_on_c, 0, 66, 65
1, 330622, Note_on_c, 0, 66, 0
1, 330640, Note_on_c, 0, 78, 65
1, 330670, Note_on_c, 1, 54, 0
1, 330702, Note_on_c, 0, 78, 0
1, 330720, Note_on_c, 1, 55, 65
1, 330800, Note_on_c, 0, 67, 65
1, 330862, Note_on_c, 0, 67, 0
1, 330880, Note_on_c, 0, 79, 65
1, 330910, Note_on_c, 1, 55, 0
1, 330942, Note_on_c, 0, 79, 0
1, 330960, Note_on_c, 1, 43, 65
1, 331040, Note_on_c, 1, 55, 65
1, 331102, Note_on_c, 1, 55, 0
1, 331120, Note_on_c, 0, 67, 65
1, 331150, Note_on_c, 1, 43, 0
1, 331182, Note_on_c, 0, 67, 0
1, 331200, Note_on_c, 1, 48, 65
1, 331280, Note_on_c, 0, 60, 65
1, 331342, Note_on_c, 0, 60, 0
1, 331360, Note_on_c, 0, 72, 65
1, 331390, Note_on_c, 1, 48, 0
1, 331422, Note_on_c, 0, 72, 0
1, 331440, Note_on_c, 1, 47, 65
1, 331520, Note_on_c, 1, 59, 65
1, 331582, Note_on_c, 1, 59, 0
1, 331600, Note_on_c, 0, 71, 65
1, 331630, Note_on_c, 1, 47, 0
1, 331662, Note_on_c, 0, 71, 0
1, 331680, Note_on_c, 1, 48, 65
1, 331760, Note_on_c, 0, 60, 65
1, 331822, Note_on_c, 0, 60, 0
1, 331840, Note_on_c, 0, 72, 65
1, 331870, Note_on_c, 1, 48, 0
1, 331902, Note_on_c, 0, 72, 0
1, 331920, Note_on_c, 1, 43, 95
1, 332000, Note_on_c, 1, 55, 95
1, 332062, Note_on_c, 1, 55, 0
1, 332080, Note_on_c, 0, 67, 97
1, 332110, Note_on_c, 1, 43, 0
1, 332142, Note_on_c, 0, 67, 0
1, 332160, Note_on_c, 1, 44, 65
1, 332240, Note_on_c, 1, 56, 65
1, 332302, Note_on_c, 1, 56, 0
1, 332320, Note_on_c, 0, 68, 65
1, 332350, Note_on_c, 1, 44, 0
1, 332382, Note_on_c, 0, 68, 0
1, 332400, Note_on_c, 1, 43, 65
1, 332480, Note_on_c, 1, 55, 65
1, 332542, Note_on_c, 1, 55, 0
1, 332560, Note_on_c, 0, 67, 65
1, 332590, Note_on_c, 1, 43, 0
1, 332622, Note_on_c, 0, 67, 0
1, 332640, Note_on_c, 1, 44, 65
1, 332720, Note_on_c, 1, 56, 65
1, 332782, Note_on_c, 1, 56, 0
1, 332800, Note_on_c, 0, 68, 65
1, 332830, Note_on_c, 1, 44, 0
1, 332862, Note_on_c, 0, 68, 0
1, 332880, Note_on_c, 1, 39, 96
1, 332960, Note_on_c, 1, 51, 97
1, 333022, Note_on_c, 1, 51, 0
1, 333040, Note_on_c, 0, 63, 96
1, 333070, Note_on_c, 1, 39, 0
1, 333102, Note_on_c, 0, 63, 0
1, 333120, Note_on_c, 1, 41, 65
1, 333200, Note_on_c, 1, 53, 65
1, 333262, Note_on_c, 1, 53, 0
1, 333280, Note_on_c, 0, 65, 65
1, 333310, Note_on_c, 1, 41, 0
1, 333342, Note_on_c, 0, 65, 0
1, 333360, Note_on_c, 1, 42, 65
1, 333440, Note_on_c, 1, 54, 65
1, 333502, Note_on_c, 1, 54, 0
1, 333520, Note_on_c, 0, 66, 65
1, 333550, Note_on_c, 1, 42, 0
1, 333582, Note_on_c, 0, 66, 0
1, 333600, Note_on_c, 1, 43, 65
1, 333680, Note_on_c, 1, 55, 65
1, 333742, Note_on_c, 1, 55, 0
1, 333760, Note_on_c, 0, 67, 65
1, 333790, Note_on_c, 1, 43, 0
1, 333822, Note_on_c, 0, 67, 0
1, 333840, Note_on_c, 1, 31, 65
1, 333920, Note_on_c, 1, 43, 65
1, 333982, Note_on_c, 1, 43, 0
1, 334000, Note_on_c, 1, 55, 65
1, 334030, Note_on_c, 1, 31, 0
1, 334062, Note_on_c, 1, 55, 0
1, 334080, Note_on_c, 1, 36, 65
1, 334160, Note_on_c, 1, 48, 65
1, 334222, Note_on_c, 1, 48, 0
1, 334240, Note_on_c, 1, 51, 65
1, 334302, Note_on_c, 1, 51, 0
1, 334320, Note_on_c, 1, 55, 65
1, 334382, Note_on_c, 1, 55, 0
1, 334400, Note_on_c, 1, 51, 65
1, 334462, Note_on_c, 1, 51, 0
1, 334480, Note_on_c, 1, 48, 65
1, 334542, Note_on_c, 1, 48, 0
1, 334560, Note_on_c, 1, 55, 65
1, 334622, Note_on_c, 1, 55, 0
1, 334640, Note_on_c, 1, 51, 65
1, 334655, Note_on_c, 1, 36, 0
1, 334702, Note_on_c, 1, 51, 0
1, 334720, Note_on_c, 1, 48, 65
1, 334782, Note_on_c, 1, 48, 0
1, 334800, Note_on_c, 1, 31, 65
1, 334800, Note_on_c, 1, 53, 65
1, 334862, Note_on_c, 1, 53, 0
1, 334880, Note_on_c, 1, 50, 65
1, 334942, Note_on_c, 1, 50, 0
1, 334960, Note_on_c, 1, 47, 65
1, 334990, Note_on_c, 1, 31, 0
1, 335022, Note_on_c, 1, 47, 0
1, 335040, Note_on_c, 1, 36, 65
1, 335120, Note_on_c, 1, 43, 65
1, 335182, Note_on_c, 1, 43, 0
1, 335200, Note_on_c, 1, 48, 65
1, 335262, Note_on_c, 1, 48, 0
1, 335280, Note_on_c, 1, 51, 65
1, 335342, Note_on_c, 1, 51, 0
1, 335360, Note_on_c, 1, 48, 65
1, 335422, Note_on_c, 1, 48, 0
1, 335440, Note_on_c, 1, 43, 65
1, 335502, Note_on_c, 1, 43, 0
1, 335520, Note_on_c, 1, 51, 65
1, 335582, Note_on_c, 1, 51, 0
1, 335600, Note_on_c, 1, 48, 65
1, 335615, Note_on_c, 1, 36, 0
1, 335662, Note_on_c, 1, 48, 0
1, 335680, Note_on_c, 1, 43, 65
1, 335742, Note_on_c, 1, 43, 0
1, 335760, Note_on_c, 1, 31, 65
1, 335760, Note_on_c, 1, 50, 65
1, 335822, Note_on_c, 1, 50, 0
1, 335840, Note_on_c, 1, 47, 65
1, 335902, Note_on_c, 1, 47, 0
1, 335920, Note_on_c, 1, 43, 65
1, 335950, Note_on_c, 1, 31, 0
1, 335982, Note_on_c, 1, 43, 0
1, 336000, Note_on_c, 1, 36, 65
1, 336000, Note_on_c, 1, 48, 65
1, 336190, Note_on_c, 1, 48, 0
1, 336190, Note_on_c, 1, 36, 0
1, 336480, Note_on_c, 1, 39, 65
1, 336480, Note_on_c, 1, 36, 65
1, 336480, Note_on_c, 1, 43, 65
1, 336480, Note_on_c, 1, 48, 65
1, 336670, Note_on_c, 1, 48, 0
1, 336670, Note_on_c, 1, 39, 0
1, 336670, Note_on_c, 1, 36, 0
1, 336670, Note_on_c, 1, 43, 0
1, 336960, Note_on_c, 1, 36, 50
1, 336960, Note_on_c, 1, 39, 50
1, 336960, Note_on_c, 1, 43, 50
1, 336960, Note_on_c, 1, 48, 50
1, 337342, Note_on_c, 1, 48, 0
1, 337342, Note_on_c, 1, 36, 0
1, 337342, Note_on_c, 1, 39, 0
1, 337342, Note_on_c, 1, 43, 0
1, 337352, End_track
0, 0, End_of_file