0, 0, Header, 0, 1, 240
1, 0, Start_track
1, 0, Tempo, 413793
1, 0, Note_on_c, 0, 41, 80
1, 0, Note_on_c, 0, 53, 80
1, 0, Note_on_c, 0, 72, 80
1, 0, Note_on_c, 0, 69, 80
1, 0, Note_on_c, 0, 65, 80
1, 0, Note_on_c, 0, 60, 80
1, 192, Note_on_c, 0, 60, 0
1, 192, Note_on_c, 0, 65, 0
1, 192, Note_on_c, 0, 69, 0
1, 192, Note_on_c, 0, 72, 0
1, 192, Note_on_c, 0, 53, 0
1, 192, Note_on_c, 0, 41, 0
1, 240, Note_on_c, 0, 48, 80
1, 240, Note_on_c, 0, 72, 80
1, 240, Note_on_c, 0, 69, 80
1, 432, Note_on_c, 0, 69, 0
1, 432, Note_on_c, 0, 72, 0
1, 432, Note_on_c, 0, 48, 0
1, 480, Note_on_c, 0, 45, 80
1, 480, Note_on_c, 0, 72, 80
1, 480, Note_on_c, 0, 69, 80
1, 672, Note_on_c, 0, 69, 0
1, 672, Note_on_c, 0, 72, 0
1, 672, Note_on_c, 0, 45, 0
1, 720, Note_on_c, 0, 72, 80
1, 720, Note_on_c, 0, 69, 80
1, 720, Note_on_c, 0, 41, 80
1, 912, Note_on_c, 0, 41, 0
1, 960, Note_on_c, 0, 29, 80
1, 1008, Note_on_c, 0, 69, 0
1, 1008, Note_on_c, 0, 72, 0
1, 1080, Note_on_c, 0, 74, 80
1, 1128, Note_on_c, 0, 74, 0
1, 1140, Note_on_c, 0, 72, 80
1, 1152, Note_on_c, 0, 29, 0
1, 1188, Note_on_c, 0, 72, 0
1, 1200, Note_on_c, 0, 71, 80
1, 1224, Note_on_c, 0, 71, 0
1, 1230, Note_on_c, 0, 72, 80
1, 1254, Note_on_c, 0, 72, 0
1, 1260, Note_on_c, 0, 69, 80
1, 1308, Note_on_c, 0, 69, 0
1, 1320, Note_on_c, 0, 67, 80
1, 1368, Note_on_c, 0, 67, 0
1, 1380, Note_on_c, 0, 65, 80
1, 1428, Note_on_c, 0, 65, 0
1, 1440, Note_on_c, 0, 53, 80
1, 1440, Note_on_c, 0, 77, 80
1, 1440, Note_on_c, 0, 57, 80
1, 1536, Note_on_c, 0, 57, 0
1, 1536, Note_on_c, 0, 53, 0
1, 1560, Note_on_c, 0, 57, 80
1, 1560, Note_on_c, 0, 53, 80
1, 1632, Note_on_c, 0, 77, 0
1, 1656, Note_on_c, 0, 53, 0
1, 1656, Note_on_c, 0, 57, 0
1, 1680, Note_on_c, 0, 53, 80
1, 1680, Note_on_c, 0, 58, 80
1, 1680, Note_on_c, 0, 55, 80
1, 1680, Note_on_c, 0, 76, 80
1, 1776, Note_on_c, 0, 55, 0
1, 1776, Note_on_c, 0, 58, 0
1, 1776, Note_on_c, 0, 53, 0
1, 1800, Note_on_c, 0, 53, 80
1, 1800, Note_on_c, 0, 55, 80
1, 1800, Note_on_c, 0, 58, 80
1, 1872, Note_on_c, 0, 76, 0
1, 1896, Note_on_c, 0, 58, 0
1, 1896, Note_on_c, 0, 55, 0
1, 1896, Note_on_c, 0, 53, 0
1, 1920, Note_on_c, 0, 53, 80
1, 1920, Note_on_c, 0, 57, 80
1, 1920, Note_on_c, 0, 60, 80
1, 1920, Note_on_c, 0, 75, 80
1, 2016, Note_on_c, 0, 60, 0
1, 2016, Note_on_c, 0, 57, 0
1, 2016, Note_on_c, 0, 53, 0
1, 2040, Note_on_c, 0, 53, 80
1, 2040, Note_on_c, 0, 57, 80
1, 2040, Note_on_c, 0, 60, 80
1, 2112, Note_on_c, 0, 75, 0
1, 2136, Note_on_c, 0, 60, 0
1, 2136, Note_on_c, 0, 57, 0
1, 2136, Note_on_c, 0, 53, 0
1, 2160, Note_on_c, 0, 58, 80
1, 2160, Note_on_c, 0, 53, 80
1, 2160, Note_on_c, 0, 62, 80
1, 2160, Note_on_c, 0, 74, 80
1, 2256, Note_on_c, 0, 62, 0
1, 2256, Note_on_c, 0, 53, 0
1, 2256, Note_on_c, 0, 58, 0
1, 2280, Note_on_c, 0, 62, 80
1, 2280, Note_on_c, 0, 58, 80
1, 2280, Note_on_c, 0, 53, 80
1, 2352, Note_on_c, 0, 74, 0
1, 2376, Note_on_c, 0, 53, 0
1, 2376, Note_on_c, 0, 58, 0
1, 2376, Note_on_c, 0, 62, 0
1, 2400, Note_on_c, 0, 53, 80
1, 2400, Note_on_c, 0, 58, 80
1, 2400, Note_on_c, 0, 62, 80
1, 2496, Note_on_c, 0, 62, 0
1, 2496, Note_on_c, 0, 58, 0
1, 2496, Note_on_c, 0, 53, 0
1, 2520, Note_on_c, 0, 53, 80
1, 2520, Note_on_c, 0, 58, 80
1, 2520, Note_on_c, 0, 62, 80
1, 2616, Note_on_c, 0, 62, 0
1, 2616, Note_on_c, 0, 58, 0
1, 2616, Note_on_c, 0, 53, 0
1, 2640, Note_on_c, 0, 53, 80
1, 2640, Note_on_c, 0, 58, 80
1, 2640, Note_on_c, 0, 62, 80
1, 2736, Note_on_c, 0, 62, 0
1, 2736, Note_on_c, 0, 58, 0
1, 2736, Note_on_c, 0, 53, 0
1, 2760, Note_on_c, 0, 53, 80
1, 2760, Note_on_c, 0, 58, 80
1, 2760, Note_on_c, 0, 62, 80
1, 2856, Note_on_c, 0, 62, 0
1, 2856, Note_on_c, 0, 58, 0
1, 2856, Note_on_c, 0, 53, 0
1, 2880, Note_on_c, 0, 55, 80
1, 2880, Note_on_c, 0, 53, 80
1, 2880, Note_on_c, 0, 64, 80
1, 2880, Note_on_c, 0, 72, 80
1, 2976, Note_on_c, 0, 72, 0
1, 2976, Note_on_c, 0, 64, 0
1, 2976, Note_on_c, 0, 53, 0
1, 2976, Note_on_c, 0, 55, 0
1, 3000, Note_on_c, 0, 70, 80
1, 3000, Note_on_c, 0, 64, 80
1, 3000, Note_on_c, 0, 53, 80
1, 3000, Note_on_c, 0, 55, 80
1, 3096, Note_on_c, 0, 55, 0
1, 3096, Note_on_c, 0, 53, 0
1, 3096, Note_on_c, 0, 64, 0
1, 3096, Note_on_c, 0, 70, 0
1, 3120, Note_on_c, 0, 53, 80
1, 3120, Note_on_c, 0, 55, 80
1, 3120, Note_on_c, 0, 70, 80
1, 3120, Note_on_c, 0, 64, 80
1, 3216, Note_on_c, 0, 64, 0
1, 3216, Note_on_c, 0, 55, 0
1, 3216, Note_on_c, 0, 53, 0
1, 3240, Note_on_c, 0, 53, 80
1, 3240, Note_on_c, 0, 55, 80
1, 3240, Note_on_c, 0, 64, 80
1, 3312, Note_on_c, 0, 70, 0
1, 3336, Note_on_c, 0, 64, 0
1, 3336, Note_on_c, 0, 55, 0
1, 3336, Note_on_c, 0, 53, 0
1, 3360, Note_on_c, 0, 53, 80
1, 3360, Note_on_c, 0, 55, 80
1, 3360, Note_on_c, 0, 64, 80
1, 3456, Note_on_c, 0, 64, 0
1, 3456, Note_on_c, 0, 55, 0
1, 3456, Note_on_c, 0, 53, 0
1, 3480, Note_on_c, 0, 53, 80
1, 3480, Note_on_c, 0, 55, 80
1, 3480, Note_on_c, 0, 64, 80
1, 3576, Note_on_c, 0, 64, 0
1, 3576, Note_on_c, 0, 55, 0
1, 3576, Note_on_c, 0, 53, 0
1, 3600, Note_on_c, 0, 57, 80
1, 3600, Note_on_c, 0, 53, 80
1, 3600, Note_on_c, 0, 65, 80
1, 3600, Note_on_c, 0, 74, 80
1, 3696, Note_on_c, 0, 74, 0
1, 3696, Note_on_c, 0, 65, 0
1, 3696, Note_on_c, 0, 53, 0
1, 3696, Note_on_c, 0, 57, 0
1, 3720, Note_on_c, 0, 72, 80
1, 3720, Note_on_c, 0, 65, 80
1, 3720, Note_on_c, 0, 53, 80
1, 3720, Note_on_c, 0, 57, 80
1, 3816, Note_on_c, 0, 57, 0
1, 3816, Note_on_c, 0, 53, 0
1, 3816, Note_on_c, 0, 65, 0
1, 3816, Note_on_c, 0, 72, 0
1, 3840, Note_on_c, 0, 53, 80
1, 3840, Note_on_c, 0, 57, 80
1, 3840, Note_on_c, 0, 72, 80
1, 3840, Note_on_c, 0, 65, 80
1, 3936, Note_on_c, 0, 65, 0
1, 3936, Note_on_c, 0, 57, 0
1, 3936, Note_on_c, 0, 53, 0
1, 3960, Note_on_c, 0, 53, 80
1, 3960, Note_on_c, 0, 57, 80
1, 3960, Note_on_c, 0, 65, 80
1, 4032, Note_on_c, 0, 72, 0
1, 4056, Note_on_c, 0, 65, 0
1, 4056, Note_on_c, 0, 57, 0
1, 4056, Note_on_c, 0, 53, 0
1, 4080, Note_on_c, 0, 53, 80
1, 4080, Note_on_c, 0, 57, 80
1, 4080, Note_on_c, 0, 65, 80
1, 4176, Note_on_c, 0, 65, 0
1, 4176, Note_on_c, 0, 57, 0
1, 4176, Note_on_c, 0, 53, 0
1, 4200, Note_on_c, 0, 53, 80
1, 4200, Note_on_c, 0, 57, 80
1, 4200, Note_on_c, 0, 65, 80
1, 4296, Note_on_c, 0, 65, 0
1, 4296, Note_on_c, 0, 57, 0
1, 4296, Note_on_c, 0, 53, 0
1, 4320, Note_on_c, 0, 55, 80
1, 4320, Note_on_c, 0, 82, 80
1, 4320, Note_on_c, 0, 52, 80
1, 4320, Note_on_c, 0, 60, 80
1, 4368, Note_on_c, 0, 82, 0
1, 4380, Note_on_c, 0, 81, 80
1, 4428, Note_on_c, 0, 81, 0
1, 4440, Note_on_c, 0, 79, 80
1, 4488, Note_on_c, 0, 79, 0
1, 4500, Note_on_c, 0, 81, 80
1, 4512, Note_on_c, 0, 60, 0
1, 4512, Note_on_c, 0, 52, 0
1, 4512, Note_on_c, 0, 55, 0
1, 4548, Note_on_c, 0, 81, 0
1, 4560, Note_on_c, 0, 79, 80
1, 4608, Note_on_c, 0, 79, 0
1, 4620, Note_on_c, 0, 77, 80
1, 4668, Note_on_c, 0, 77, 0
1, 4680, Note_on_c, 0, 76, 80
1, 4728, Note_on_c, 0, 76, 0
1, 4740, Note_on_c, 0, 77, 80
1, 4788, Note_on_c, 0, 77, 0
1, 4800, Note_on_c, 0, 76, 80
1, 4848, Note_on_c, 0, 76, 0
1, 4860, Note_on_c, 0, 74, 80
1, 4908, Note_on_c, 0, 74, 0
1, 4920, Note_on_c, 0, 72, 80
1, 4968, Note_on_c, 0, 72, 0
1, 4980, Note_on_c, 0, 70, 80
1, 5028, Note_on_c, 0, 70, 0
1, 5040, Note_on_c, 0, 69, 80
1, 5040, Note_on_c, 0, 53, 80
1, 5088, Note_on_c, 0, 53, 0
1, 5100, Note_on_c, 0, 60, 80
1, 5136, Note_on_c, 0, 69, 0
1, 5148, Note_on_c, 0, 60, 0
1, 5160, Note_on_c, 0, 77, 80
1, 5160, Note_on_c, 0, 57, 80
1, 5208, Note_on_c, 0, 57, 0
1, 5220, Note_on_c, 0, 60, 80
1, 5268, Note_on_c, 0, 60, 0
1, 5280, Note_on_c, 0, 55, 80
1, 5328, Note_on_c, 0, 55, 0
1, 5340, Note_on_c, 0, 60, 80
1, 5352, Note_on_c, 0, 77, 0
1, 5388, Note_on_c, 0, 60, 0
1, 5400, Note_on_c, 0, 76, 80
1, 5400, Note_on_c, 0, 58, 80
1, 5448, Note_on_c, 0, 58, 0
1, 5460, Note_on_c, 0, 60, 80
1, 5508, Note_on_c, 0, 60, 0
1, 5520, Note_on_c, 0, 57, 80
1, 5568, Note_on_c, 0, 57, 0
1, 5580, Note_on_c, 0, 60, 80
1, 5592, Note_on_c, 0, 76, 0
1, 5628, Note_on_c, 0, 60, 0
1, 5640, Note_on_c, 0, 57, 80
1, 5640, Note_on_c, 0, 77, 80
1, 5688, Note_on_c, 0, 57, 0
1, 5700, Note_on_c, 0, 60, 80
1, 5736, Note_on_c, 0, 77, 0
1, 5748, Note_on_c, 0, 60, 0
1, 5760, Note_on_c, 0, 58, 80
1, 5856, Note_on_c, 0, 58, 0
1, 5880, Note_on_c, 0, 65, 80
1, 5880, Note_on_c, 0, 74, 80
1, 5976, Note_on_c, 0, 74, 0
1, 5976, Note_on_c, 0, 65, 0
1, 6000, Note_on_c, 0, 46, 80
1, 6096, Note_on_c, 0, 46, 0
1, 6120, Note_on_c, 0, 58, 80
1, 6120, Note_on_c, 0, 67, 80
1, 6216, Note_on_c, 0, 67, 0
1, 6216, Note_on_c, 0, 58, 0
1, 6240, Note_on_c, 0, 48, 80
1, 6336, Note_on_c, 0, 48, 0
1, 6360, Note_on_c, 0, 55, 80
1, 6360, Note_on_c, 0, 64, 80
1, 6456, Note_on_c, 0, 64, 0
1, 6456, Note_on_c, 0, 55, 0
1, 6480, Note_on_c, 0, 55, 80
1, 6480, Note_on_c, 0, 82, 80
1, 6480, Note_on_c, 0, 52, 80
1, 6480, Note_on_c, 0, 60, 80
1, 6528, Note_on_c, 0, 82, 0
1, 6540, Note_on_c, 0, 81, 80
1, 6588, Note_on_c, 0, 81, 0
1, 6600, Note_on_c, 0, 79, 80
1, 6648, Note_on_c, 0, 79, 0
1, 6660, Note_on_c, 0, 81, 80
1, 6672, Note_on_c, 0, 60, 0
1, 6672, Note_on_c, 0, 52, 0
1, 6672, Note_on_c, 0, 55, 0
1, 6708, Note_on_c, 0, 81, 0
1, 6720, Note_on_c, 0, 79, 80
1, 6768, Note_on_c, 0, 79, 0
1, 6780, Note_on_c, 0, 77, 80
1, 6828, Note_on_c, 0, 77, 0
1, 6840, Note_on_c, 0, 76, 80
1, 6888, Note_on_c, 0, 76, 0
1, 6900, Note_on_c, 0, 77, 80
1, 6948, Note_on_c, 0, 77, 0
1, 6960, Note_on_c, 0, 76, 80
1, 7008, Note_on_c, 0, 76, 0
1, 7020, Note_on_c, 0, 74, 80
1, 7068, Note_on_c, 0, 74, 0
1, 7080, Note_on_c, 0, 72, 80
1, 7128, Note_on_c, 0, 72, 0
1, 7140, Note_on_c, 0, 70, 80
1, 7188, Note_on_c, 0, 70, 0
1, 7200, Note_on_c, 0, 69, 80
1, 7200, Note_on_c, 0, 53, 80
1, 7248, Note_on_c, 0, 53, 0
1, 7260, Note_on_c, 0, 60, 80
1, 7296, Note_on_c, 0, 69, 0
1, 7308, Note_on_c, 0, 60, 0
1, 7320, Note_on_c, 0, 81, 80
1, 7320, Note_on_c, 0, 57, 80
1, 7368, Note_on_c, 0, 57, 0
1, 7380, Note_on_c, 0, 60, 80
1, 7428, Note_on_c, 0, 60, 0
1, 7440, Note_on_c, 0, 55, 80
1, 7488, Note_on_c, 0, 55, 0
1, 7500, Note_on_c, 0, 64, 80
1, 7512, Note_on_c, 0, 81, 0
1, 7548, Note_on_c, 0, 64, 0
1, 7560, Note_on_c, 0, 79, 80
1, 7560, Note_on_c, 0, 58, 80
1, 7608, Note_on_c, 0, 58, 0
1, 7620, Note_on_c, 0, 64, 80
1, 7668, Note_on_c, 0, 64, 0
1, 7680, Note_on_c, 0, 57, 80
1, 7728, Note_on_c, 0, 57, 0
1, 7740, Note_on_c, 0, 65, 80
1, 7752, Note_on_c, 0, 79, 0
1, 7788, Note_on_c, 0, 65, 0
1, 7800, Note_on_c, 0, 60, 80
1, 7800, Note_on_c, 0, 77, 80
1, 7848, Note_on_c, 0, 60, 0
1, 7860, Note_on_c, 0, 65, 80
1, 7896, Note_on_c, 0, 77, 0
1, 7908, Note_on_c, 0, 65, 0
1, 7920, Note_on_c, 0, 58, 80
1, 8016, Note_on_c, 0, 58, 0
1, 8040, Note_on_c, 0, 65, 80
1, 8040, Note_on_c, 0, 74, 80
1, 8136, Note_on_c, 0, 74, 0
1, 8136, Note_on_c, 0, 65, 0
1, 8160, Note_on_c, 0, 46, 80
1, 8256, Note_on_c, 0, 46, 0
1, 8280, Note_on_c, 0, 58, 80
1, 8280, Note_on_c, 0, 67, 80
1, 8376, Note_on_c, 0, 67, 0
1, 8376, Note_on_c, 0, 58, 0
1, 8400, Note_on_c, 0, 48, 80
1, 8496, Note_on_c, 0, 48, 0
1, 8520, Note_on_c, 0, 55, 80
1, 8520, Note_on_c, 0, 64, 80
1, 8616, Note_on_c, 0, 64, 0
1, 8616, Note_on_c, 0, 55, 0
1, 8640, Note_on_c, 0, 53, 80
1, 8640, Note_on_c, 0, 57, 80
1, 8640, Note_on_c, 0, 41, 80
1, 8704, Note_on_c, 0, 57, 0
1, 8720, Note_on_c, 0, 65, 80
1, 8784, Note_on_c, 0, 65, 0
1, 8800, Note_on_c, 0, 60, 80
1, 8832, Note_on_c, 0, 41, 0
1, 8832, Note_on_c, 0, 53, 0
1, 8864, Note_on_c, 0, 60, 0
1, 8880, Note_on_c, 0, 69, 80
1, 8944, Note_on_c, 0, 69, 0
1, 8960, Note_on_c, 0, 65, 80
1, 9024, Note_on_c, 0, 65, 0
1, 9040, Note_on_c, 0, 60, 80
1, 9104, Note_on_c, 0, 60, 0
1, 9120, Note_on_c, 0, 36, 80
1, 9120, Note_on_c, 0, 48, 80
1, 9120, Note_on_c, 0, 58, 80
1, 9184, Note_on_c, 0, 58, 0
1, 9200, Note_on_c, 0, 67, 80
1, 9264, Note_on_c, 0, 67, 0
1, 9280, Note_on_c, 0, 64, 80
1, 9312, Note_on_c, 0, 48, 0
1, 9312, Note_on_c, 0, 36, 0
1, 9344, Note_on_c, 0, 64, 0
1, 9360, Note_on_c, 0, 41, 80
1, 9360, Note_on_c, 0, 65, 80
1, 9360, Note_on_c, 0, 29, 80
1, 9424, Note_on_c, 0, 65, 0
1, 9440, Note_on_c, 0, 57, 80
1, 9504, Note_on_c, 0, 57, 0
1, 9520, Note_on_c, 0, 60, 80
1, 9552, Note_on_c, 0, 29, 0
1, 9552, Note_on_c, 0, 41, 0
1, 9584, Note_on_c, 0, 60, 0
1, 9600, Note_on_c, 0, 67, 80
1, 9664, Note_on_c, 0, 67, 0
1, 9680, Note_on_c, 0, 60, 80
1, 9744, Note_on_c, 0, 60, 0
1, 9760, Note_on_c, 0, 64, 80
1, 9824, Note_on_c, 0, 64, 0
1, 9840, Note_on_c, 0, 69, 80
1, 9904, Note_on_c, 0, 69, 0
1, 9920, Note_on_c, 0, 60, 80
1, 9984, Note_on_c, 0, 60, 0
1, 10000, Note_on_c, 0, 65, 80
1, 10064, Note_on_c, 0, 65, 0
1, 10080, Note_on_c, 0, 48, 80
1, 10080, Note_on_c, 0, 60, 80
1, 10080, Note_on_c, 0, 36, 80
1, 10144, Note_on_c, 0, 60, 0
1, 10160, Note_on_c, 0, 67, 80
1, 10224, Note_on_c, 0, 67, 0
1, 10240, Note_on_c, 0, 64, 80
1, 10272, Note_on_c, 0, 36, 0
1, 10272, Note_on_c, 0, 48, 0
1, 10304, Note_on_c, 0, 64, 0
1, 10320, Note_on_c, 0, 70, 80
1, 10384, Note_on_c, 0, 70, 0
1, 10400, Note_on_c, 0, 67, 80
1, 10464, Note_on_c, 0, 67, 0
1, 10480, Note_on_c, 0, 64, 80
1, 10544, Note_on_c, 0, 64, 0
1, 10560, Note_on_c, 0, 41, 80
1, 10560, Note_on_c, 0, 53, 80
1, 10560, Note_on_c, 0, 60, 80
1, 10624, Note_on_c, 0, 60, 0
1, 10640, Note_on_c, 0, 69, 80
1, 10704, Note_on_c, 0, 69, 0
1, 10720, Note_on_c, 0, 65, 80
1, 10752, Note_on_c, 0, 53, 0
1, 10752, Note_on_c, 0, 41, 0
1, 10784, Note_on_c, 0, 65, 0
1, 10800, Note_on_c, 0, 48, 80
1, 10800, Note_on_c, 0, 60, 80
1, 10800, Note_on_c, 0, 67, 80
1, 10864, Note_on_c, 0, 67, 0
1, 10880, Note_on_c, 0, 60, 80
1, 10944, Note_on_c, 0, 60, 0
1, 10960, Note_on_c, 0, 64, 80
1, 10992, Note_on_c, 0, 60, 0
1, 10992, Note_on_c, 0, 48, 0
1, 11024, Note_on_c, 0, 64, 0
1, 11040, Note_on_c, 0, 69, 80
1, 11104, Note_on_c, 0, 69, 0
1, 11120, Note_on_c, 0, 60, 80
1, 11184, Note_on_c, 0, 60, 0
1, 11200, Note_on_c, 0, 65, 80
1, 11264, Note_on_c, 0, 65, 0
1, 11280, Note_on_c, 0, 70, 80
1, 11344, Note_on_c, 0, 70, 0
1, 11360, Note_on_c, 0, 60, 80
1, 11424, Note_on_c, 0, 60, 0
1, 11440, Note_on_c, 0, 67, 80
1, 11504, Note_on_c, 0, 67, 0
1, 11520, Note_on_c, 0, 53, 80
1, 11520, Note_on_c, 0, 69, 80
1, 11520, Note_on_c, 0, 41, 80
1, 11584, Note_on_c, 0, 69, 0
1, 11600, Note_on_c, 0, 72, 80
1, 11664, Note_on_c, 0, 72, 0
1, 11680, Note_on_c, 0, 77, 80
1, 11712, Note_on_c, 0, 41, 0
1, 11712, Note_on_c, 0, 53, 0
1, 11744, Note_on_c, 0, 77, 0
1, 11760, Note_on_c, 0, 81, 80
1, 11824, Note_on_c, 0, 81, 0
1, 11840, Note_on_c, 0, 77, 80
1, 11904, Note_on_c, 0, 77, 0
1, 11920, Note_on_c, 0, 74, 80
1, 11984, Note_on_c, 0, 74, 0
1, 12000, Note_on_c, 0, 72, 80
1, 12064, Note_on_c, 0, 72, 0
1, 12080, Note_on_c, 0, 77, 80
1, 12144, Note_on_c, 0, 77, 0
1, 12160, Note_on_c, 0, 81, 80
1, 12224, Note_on_c, 0, 81, 0
1, 12240, Note_on_c, 0, 53, 80
1, 12240, Note_on_c, 0, 65, 80
1, 12240, Note_on_c, 0, 80, 80
1, 12304, Note_on_c, 0, 80, 0
1, 12320, Note_on_c, 0, 74, 80
1, 12384, Note_on_c, 0, 74, 0
1, 12400, Note_on_c, 0, 71, 80
1, 12432, Note_on_c, 0, 65, 0
1, 12432, Note_on_c, 0, 53, 0
1, 12464, Note_on_c, 0, 71, 0
1, 12480, Note_on_c, 0, 64, 80
1, 12480, Note_on_c, 0, 52, 80
1, 12480, Note_on_c, 0, 72, 80
1, 12544, Note_on_c, 0, 72, 0
1, 12560, Note_on_c, 0, 76, 80
1, 12624, Note_on_c, 0, 76, 0
1, 12640, Note_on_c, 0, 79, 80
1, 12672, Note_on_c, 0, 52, 0
1, 12672, Note_on_c, 0, 64, 0
1, 12704, Note_on_c, 0, 79, 0
1, 12720, Note_on_c, 0, 75, 80
1, 12784, Note_on_c, 0, 75, 0
1, 12800, Note_on_c, 0, 72, 80
1, 12864, Note_on_c, 0, 72, 0
1, 12880, Note_on_c, 0, 70, 80
1, 12944, Note_on_c, 0, 70, 0
1, 12960, Note_on_c, 0, 69, 80
1, 12960, Note_on_c, 0, 51, 80
1, 12960, Note_on_c, 0, 63, 80
1, 13024, Note_on_c, 0, 69, 0
1, 13040, Note_on_c, 0, 72, 80
1, 13104, Note_on_c, 0, 72, 0
1, 13120, Note_on_c, 0, 78, 80
1, 13152, Note_on_c, 0, 63, 0
1, 13152, Note_on_c, 0, 51, 0
1, 13184, Note_on_c, 0, 78, 0
1, 13200, Note_on_c, 0, 50, 80
1, 13200, Note_on_c, 0, 77, 80
1, 13200, Note_on_c, 0, 62, 80
1, 13264, Note_on_c, 0, 77, 0
1, 13280, Note_on_c, 0, 74, 80
1, 13344, Note_on_c, 0, 74, 0
1, 13360, Note_on_c, 0, 70, 80
1, 13392, Note_on_c, 0, 62, 0
1, 13392, Note_on_c, 0, 50, 0
1, 13424, Note_on_c, 0, 70, 0
1, 13440, Note_on_c, 0, 69, 80
1, 13504, Note_on_c, 0, 69, 0
1, 13520, Note_on_c, 0, 74, 80
1, 13584, Note_on_c, 0, 74, 0
1, 13600, Note_on_c, 0, 77, 80
1, 13664, Note_on_c, 0, 77, 0
1, 13680, Note_on_c, 0, 77, 80
1, 13680, Note_on_c, 0, 50, 80
1, 13680, Note_on_c, 0, 62, 80
1, 13744, Note_on_c, 0, 77, 0
1, 13760, Note_on_c, 0, 71, 80
1, 13824, Note_on_c, 0, 71, 0
1, 13840, Note_on_c, 0, 68, 80
1, 13872, Note_on_c, 0, 62, 0
1, 13872, Note_on_c, 0, 50, 0
1, 13904, Note_on_c, 0, 68, 0
1, 13920, Note_on_c, 0, 49, 80
1, 13920, Note_on_c, 0, 69, 80
1, 13920, Note_on_c, 0, 61, 80
1, 13984, Note_on_c, 0, 69, 0
1, 14000, Note_on_c, 0, 73, 80
1, 14064, Note_on_c, 0, 73, 0
1, 14080, Note_on_c, 0, 76, 80
1, 14112, Note_on_c, 0, 61, 0
1, 14112, Note_on_c, 0, 49, 0
1, 14144, Note_on_c, 0, 76, 0
1, 14160, Note_on_c, 0, 72, 80
1, 14224, Note_on_c, 0, 72, 0
1, 14240, Note_on_c, 0, 69, 80
1, 14304, Note_on_c, 0, 69, 0
1, 14320, Note_on_c, 0, 67, 80
1, 14384, Note_on_c, 0, 67, 0
1, 14400, Note_on_c, 0, 66, 80
1, 14400, Note_on_c, 0, 48, 80
1, 14400, Note_on_c, 0, 60, 80
1, 14464, Note_on_c, 0, 66, 0
1, 14480, Note_on_c, 0, 69, 80
1, 14544, Note_on_c, 0, 69, 0
1, 14560, Note_on_c, 0, 75, 80
1, 14592, Note_on_c, 0, 60, 0
1, 14592, Note_on_c, 0, 48, 0
1, 14624, Note_on_c, 0, 75, 0
1, 14640, Note_on_c, 0, 47, 80
1, 14640, Note_on_c, 0, 74, 80
1, 14640, Note_on_c, 0, 59, 80
1, 14704, Note_on_c, 0, 74, 0
1, 14720, Note_on_c, 0, 71, 80
1, 14784, Note_on_c, 0, 71, 0
1, 14800, Note_on_c, 0, 67, 80
1, 14832, Note_on_c, 0, 59, 0
1, 14832, Note_on_c, 0, 47, 0
1, 14864, Note_on_c, 0, 67, 0
1, 14880, Note_on_c, 0, 65, 80
1, 14944, Note_on_c, 0, 65, 0
1, 14960, Note_on_c, 0, 70, 80
1, 15024, Note_on_c, 0, 70, 0
1, 15040, Note_on_c, 0, 74, 80
1, 15104, Note_on_c, 0, 74, 0
1, 15120, Note_on_c, 0, 73, 80
1, 15120, Note_on_c, 0, 46, 80
1, 15120, Note_on_c, 0, 58, 80
1, 15184, Note_on_c, 0, 73, 0
1, 15200, Note_on_c, 0, 67, 80
1, 15264, Note_on_c, 0, 67, 0
1, 15280, Note_on_c, 0, 64, 80
1, 15312, Note_on_c, 0, 58, 0
1, 15312, Note_on_c, 0, 46, 0
1, 15344, Note_on_c, 0, 64, 0
1, 15360, Note_on_c, 0, 57, 80
1, 15360, Note_on_c, 0, 45, 80
1, 15360, Note_on_c, 0, 65, 80
1, 15424, Note_on_c, 0, 65, 0
1, 15440, Note_on_c, 0, 69, 80
1, 15504, Note_on_c, 0, 69, 0
1, 15520, Note_on_c, 0, 72, 80
1, 15552, Note_on_c, 0, 45, 0
1, 15552, Note_on_c, 0, 57, 0
1, 15584, Note_on_c, 0, 72, 0
1, 15600, Note_on_c, 0, 77, 80
1, 15664, Note_on_c, 0, 77, 0
1, 15680, Note_on_c, 0, 72, 80
1, 15744, Note_on_c, 0, 72, 0
1, 15760, Note_on_c, 0, 69, 80
1, 15824, Note_on_c, 0, 69, 0
1, 15840, Note_on_c, 0, 58, 80
1, 15840, Note_on_c, 0, 67, 80
1, 15840, Note_on_c, 0, 46, 80
1, 15904, Note_on_c, 0, 67, 0
1, 15920, Note_on_c, 0, 70, 80
1, 15984, Note_on_c, 0, 70, 0
1, 16000, Note_on_c, 0, 69, 80
1, 16032, Note_on_c, 0, 46, 0
1, 16032, Note_on_c, 0, 58, 0
1, 16064, Note_on_c, 0, 69, 0
1, 16080, Note_on_c, 0, 70, 80
1, 16144, Note_on_c, 0, 70, 0
1, 16160, Note_on_c, 0, 74, 80
1, 16224, Note_on_c, 0, 74, 0
1, 16240, Note_on_c, 0, 73, 80
1, 16304, Note_on_c, 0, 73, 0
1, 16320, Note_on_c, 0, 74, 80
1, 16384, Note_on_c, 0, 74, 0
1, 16400, Note_on_c, 0, 79, 80
1, 16464, Note_on_c, 0, 79, 0
1, 16480, Note_on_c, 0, 78, 80
1, 16544, Note_on_c, 0, 78, 0
1, 16560, Note_on_c, 0, 79, 80
1, 16624, Note_on_c, 0, 79, 0
1, 16640, Note_on_c, 0, 82, 80
1, 16704, Note_on_c, 0, 82, 0
1, 16720, Note_on_c, 0, 81, 80
1, 16784, Note_on_c, 0, 81, 0
1, 16800, Note_on_c, 0, 82, 80
1, 16864, Note_on_c, 0, 82, 0
1, 16880, Note_on_c, 0, 86, 80
1, 16944, Note_on_c, 0, 86, 0
1, 16960, Note_on_c, 0, 85, 80
1, 17024, Note_on_c, 0, 85, 0
1, 17040, Note_on_c, 0, 86, 80
1, 17104, Note_on_c, 0, 86, 0
1, 17120, Note_on_c, 0, 82, 80
1, 17184, Note_on_c, 0, 82, 0
1, 17200, Note_on_c, 0, 81, 80
1, 17264, Note_on_c, 0, 81, 0
1, 17280, Note_on_c, 0, 82, 80
1, 17344, Note_on_c, 0, 82, 0
1, 17360, Note_on_c, 0, 79, 80
1, 17424, Note_on_c, 0, 79, 0
1, 17440, Note_on_c, 0, 78, 80
1, 17504, Note_on_c, 0, 78, 0
1, 17520, Note_on_c, 0, 79, 80
1, 17584, Note_on_c, 0, 79, 0
1, 17600, Note_on_c, 0, 74, 80
1, 17664, Note_on_c, 0, 74, 0
1, 17680, Note_on_c, 0, 73, 80
1, 17744, Note_on_c, 0, 73, 0
1, 17760, Note_on_c, 0, 46, 80
1, 17760, Note_on_c, 0, 58, 80
1, 17760, Note_on_c, 0, 74, 80
1, 17824, Note_on_c, 0, 74, 0
1, 17840, Note_on_c, 0, 70, 80
1, 17904, Note_on_c, 0, 70, 0
1, 17920, Note_on_c, 0, 67, 80
1, 17952, Note_on_c, 0, 58, 0
1, 17952, Note_on_c, 0, 46, 0
1, 17984, Note_on_c, 0, 67, 0
1, 18000, Note_on_c, 0, 57, 80
1, 18000, Note_on_c, 0, 48, 80
1, 18000, Note_on_c, 0, 65, 80
1, 18192, Note_on_c, 0, 65, 0
1, 18192, Note_on_c, 0, 48, 0
1, 18192, Note_on_c, 0, 57, 0
1, 18240, Note_on_c, 0, 55, 80
1, 18240, Note_on_c, 0, 64, 80
1, 18432, Note_on_c, 0, 64, 0
1, 18432, Note_on_c, 0, 55, 0
1, 18720, Note_on_c, 0, 48, 80
1, 18720, Note_on_c, 0, 36, 80
1, 18912, Note_on_c, 0, 36, 0
1, 18912, Note_on_c, 0, 48, 0
1, 18960, Note_on_c, 0, 40, 80
1, 18960, Note_on_c, 0, 52, 80
1, 19152, Note_on_c, 0, 52, 0
1, 19152, Note_on_c, 0, 40, 0
1, 19200, Note_on_c, 0, 43, 80
1, 19200, Note_on_c, 0, 55, 80
1, 19392, Note_on_c, 0, 55, 0
1, 19392, Note_on_c, 0, 43, 0
1, 19440, Note_on_c, 0, 79, 80
1, 19488, Note_on_c, 0, 79, 0
1, 19500, Note_on_c, 0, 81, 80
1, 19548, Note_on_c, 0, 81, 0
1, 19560, Note_on_c, 0, 79, 80
1, 19608, Note_on_c, 0, 79, 0
1, 19620, Note_on_c, 0, 76, 80
1, 19668, Note_on_c, 0, 76, 0
1, 19680, Note_on_c, 0, 79, 80
1, 19728, Note_on_c, 0, 79, 0
1, 19740, Note_on_c, 0, 81, 80
1, 19788, Note_on_c, 0, 81, 0
1, 19800, Note_on_c, 0, 79, 80
1, 19848, Note_on_c, 0, 79, 0
1, 19860, Note_on_c, 0, 76, 80
1, 19908, Note_on_c, 0, 76, 0
1, 19920, Note_on_c, 0, 77, 80
1, 19968, Note_on_c, 0, 77, 0
1, 19980, Note_on_c, 0, 79, 80
1, 20028, Note_on_c, 0, 79, 0
1, 20040, Note_on_c, 0, 77, 80
1, 20088, Note_on_c, 0, 77, 0
1, 20100, Note_on_c, 0, 74, 80
1, 20148, Note_on_c, 0, 74, 0
1, 20160, Note_on_c, 0, 76, 80
1, 20160, Note_on_c, 0, 67, 80
1, 20208, Note_on_c, 0, 67, 0
1, 20208, Note_on_c, 0, 76, 0
1, 20220, Note_on_c, 0, 69, 80
1, 20220, Note_on_c, 0, 77, 80
1, 20268, Note_on_c, 0, 77, 0
1, 20268, Note_on_c, 0, 69, 0
1, 20280, Note_on_c, 0, 67, 80
1, 20280, Note_on_c, 0, 76, 80
1, 20328, Note_on_c, 0, 76, 0
1, 20328, Note_on_c, 0, 67, 0
1, 20340, Note_on_c, 0, 72, 80
1, 20340, Note_on_c, 0, 64, 80
1, 20388, Note_on_c, 0, 64, 0
1, 20388, Note_on_c, 0, 72, 0
1, 20400, Note_on_c, 0, 76, 80
1, 20400, Note_on_c, 0, 67, 80
1, 20448, Note_on_c, 0, 67, 0
1, 20448, Note_on_c, 0, 76, 0
1, 20460, Note_on_c, 0, 77, 80
1, 20460, Note_on_c, 0, 69, 80
1, 20508, Note_on_c, 0, 69, 0
1, 20508, Note_on_c, 0, 77, 0
1, 20520, Note_on_c, 0, 67, 80
1, 20520, Note_on_c, 0, 76, 80
1, 20568, Note_on_c, 0, 76, 0
1, 20568, Note_on_c, 0, 67, 0
1, 20580, Note_on_c, 0, 72, 80
1, 20580, Note_on_c, 0, 64, 80
1, 20628, Note_on_c, 0, 64, 0
1, 20628, Note_on_c, 0, 72, 0
1, 20640, Note_on_c, 0, 65, 80
1, 20640, Note_on_c, 0, 74, 80
1, 20688, Note_on_c, 0, 74, 0
1, 20688, Note_on_c, 0, 65, 0
1, 20700, Note_on_c, 0, 67, 80
1, 20700, Note_on_c, 0, 76, 80
1, 20748, Note_on_c, 0, 76, 0
1, 20748, Note_on_c, 0, 67, 0
1, 20760, Note_on_c, 0, 65, 80
1, 20760, Note_on_c, 0, 74, 80
1, 20808, Note_on_c, 0, 74, 0
1, 20808, Note_on_c, 0, 65, 0
1, 20820, Note_on_c, 0, 62, 80
1, 20820, Note_on_c, 0, 71, 80
1, 20868, Note_on_c, 0, 71, 0
1, 20868, Note_on_c, 0, 62, 0
1, 20880, Note_on_c, 0, 72, 80
1, 20880, Note_on_c, 0, 64, 80
1, 20976, Note_on_c, 0, 64, 0
1, 21000, Note_on_c, 0, 55, 80
1, 21096, Note_on_c, 0, 55, 0
1, 21120, Note_on_c, 0, 60, 80
1, 21168, Note_on_c, 0, 72, 0
1, 21216, Note_on_c, 0, 60, 0
1, 21240, Note_on_c, 0, 55, 80
1, 21240, Note_on_c, 0, 74, 80
1, 21288, Note_on_c, 0, 74, 0
1, 21300, Note_on_c, 0, 76, 80
1, 21336, Note_on_c, 0, 55, 0
1, 21348, Note_on_c, 0, 76, 0
1, 21360, Note_on_c, 0, 59, 80
1, 21360, Note_on_c, 0, 74, 80
1, 21552, Note_on_c, 0, 74, 0
1, 21552, Note_on_c, 0, 59, 0
1, 21600, Note_on_c, 0, 31, 80
1, 21600, Note_on_c, 0, 43, 80
1, 21792, Note_on_c, 0, 43, 0
1, 21792, Note_on_c, 0, 31, 0
1, 21840, Note_on_c, 0, 35, 80
1, 21840, Note_on_c, 0, 47, 80
1, 22032, Note_on_c, 0, 47, 0
1, 22032, Note_on_c, 0, 35, 0
1, 22080, Note_on_c, 0, 38, 80
1, 22080, Note_on_c, 0, 50, 80
1, 22272, Note_on_c, 0, 50, 0
1, 22272, Note_on_c, 0, 38, 0
1, 22320, Note_on_c, 0, 77, 80
1, 22368, Note_on_c, 0, 77, 0
1, 22380, Note_on_c, 0, 79, 80
1, 22428, Note_on_c, 0, 79, 0
1, 22440, Note_on_c, 0, 77, 80
1, 22488, Note_on_c, 0, 77, 0
1, 22500, Note_on_c, 0, 74, 80
1, 22548, Note_on_c, 0, 74, 0
1, 22560, Note_on_c, 0, 77, 80
1, 22608, Note_on_c, 0, 77, 0
1, 22620, Note_on_c, 0, 79, 80
1, 22668, Note_on_c, 0, 79, 0
1, 22680, Note_on_c, 0, 77, 80
1, 22728, Note_on_c, 0, 77, 0
1, 22740, Note_on_c, 0, 74, 80
1, 22788, Note_on_c, 0, 74, 0
1, 22800, Note_on_c, 0, 76, 80
1, 22848, Note_on_c, 0, 76, 0
1, 22860, Note_on_c, 0, 77, 80
1, 22908, Note_on_c, 0, 77, 0
1, 22920, Note_on_c, 0, 76, 80
1, 22968, Note_on_c, 0, 76, 0
1, 22980, Note_on_c, 0, 72, 80
1, 23028, Note_on_c, 0, 72, 0
1, 23040, Note_on_c, 0, 74, 80
1, 23040, Note_on_c, 0, 65, 80
1, 23088, Note_on_c, 0, 65, 0
1, 23088, Note_on_c, 0, 74, 0
1, 23100, Note_on_c, 0, 67, 80
1, 23100, Note_on_c, 0, 76, 80
1, 23148, Note_on_c, 0, 76, 0
1, 23148, Note_on_c, 0, 67, 0
1, 23160, Note_on_c, 0, 65, 80
1, 23160, Note_on_c, 0, 74, 80
1, 23208, Note_on_c, 0, 74, 0
1, 23208, Note_on_c, 0, 65, 0
1, 23220, Note_on_c, 0, 71, 80
1, 23220, Note_on_c, 0, 62, 80
1, 23268, Note_on_c, 0, 62, 0
1, 23268, Note_on_c, 0, 71, 0
1, 23280, Note_on_c, 0, 74, 80
1, 23280, Note_on_c, 0, 65, 80
1, 23328, Note_on_c, 0, 65, 0
1, 23328, Note_on_c, 0, 74, 0
1, 23340, Note_on_c, 0, 76, 80
1, 23340, Note_on_c, 0, 67, 80
1, 23388, Note_on_c, 0, 67, 0
1, 23388, Note_on_c, 0, 76, 0
1, 23400, Note_on_c, 0, 65, 80
1, 23400, Note_on_c, 0, 74, 80
1, 23448, Note_on_c, 0, 74, 0
1, 23448, Note_on_c, 0, 65, 0
1, 23460, Note_on_c, 0, 71, 80
1, 23460, Note_on_c, 0, 62, 80
1, 23508, Note_on_c, 0, 62, 0
1, 23508, Note_on_c, 0, 71, 0
1, 23520, Note_on_c, 0, 64, 80
1, 23520, Note_on_c, 0, 72, 80
1, 23568, Note_on_c, 0, 72, 0
1, 23568, Note_on_c, 0, 64, 0
1, 23580, Note_on_c, 0, 65, 80
1, 23580, Note_on_c, 0, 71, 80
1, 23628, Note_on_c, 0, 71, 0
1, 23628, Note_on_c, 0, 65, 0
1, 23640, Note_on_c, 0, 64, 80
1, 23640, Note_on_c, 0, 72, 80
1, 23688, Note_on_c, 0, 72, 0
1, 23688, Note_on_c, 0, 64, 0
1, 23700, Note_on_c, 0, 60, 80
1, 23700, Note_on_c, 0, 76, 80
1, 23748, Note_on_c, 0, 76, 0
1, 23748, Note_on_c, 0, 60, 0
1, 23760, Note_on_c, 0, 74, 80
1, 23760, Note_on_c, 0, 65, 80
1, 23856, Note_on_c, 0, 65, 0
1, 23880, Note_on_c, 0, 62, 80
1, 23976, Note_on_c, 0, 62, 0
1, 24000, Note_on_c, 0, 59, 80
1, 24048, Note_on_c, 0, 74, 0
1, 24096, Note_on_c, 0, 59, 0
1, 24120, Note_on_c, 0, 55, 80
1, 24120, Note_on_c, 0, 76, 80
1, 24168, Note_on_c, 0, 76, 0
1, 24180, Note_on_c, 0, 77, 80
1, 24216, Note_on_c, 0, 55, 0
1, 24228, Note_on_c, 0, 77, 0
1, 24240, Note_on_c, 0, 60, 80
1, 24240, Note_on_c, 0, 76, 80
1, 24432, Note_on_c, 0, 76, 0
1, 24432, Note_on_c, 0, 60, 0
1, 24480, Note_on_c, 0, 40, 80
1, 24480, Note_on_c, 0, 52, 80
1, 24560, Note_on_c, 0, 79, 80
1, 24624, Note_on_c, 0, 79, 0
1, 24640, Note_on_c, 0, 77, 80
1, 24672, Note_on_c, 0, 52, 0
1, 24672, Note_on_c, 0, 40, 0
1, 24704, Note_on_c, 0, 77, 0
1, 24720, Note_on_c, 0, 76, 80
1, 24784, Note_on_c, 0, 76, 0
1, 24800, Note_on_c, 0, 79, 80
1, 24864, Note_on_c, 0, 79, 0
1, 24880, Note_on_c, 0, 74, 80
1, 24944, Note_on_c, 0, 74, 0
1, 24960, Note_on_c, 0, 72, 80
1, 25024, Note_on_c, 0, 72, 0
1, 25040, Note_on_c, 0, 79, 80
1, 25104, Note_on_c, 0, 79, 0
1, 25120, Note_on_c, 0, 70, 80
1, 25184, Note_on_c, 0, 70, 0
1, 25200, Note_on_c, 0, 41, 80
1, 25200, Note_on_c, 0, 53, 80
1, 25280, Note_on_c, 0, 70, 80
1, 25344, Note_on_c, 0, 70, 0
1, 25360, Note_on_c, 0, 68, 80
1, 25392, Note_on_c, 0, 53, 0
1, 25392, Note_on_c, 0, 41, 0
1, 25424, Note_on_c, 0, 68, 0
1, 25440, Note_on_c, 0, 69, 80
1, 25504, Note_on_c, 0, 69, 0
1, 25520, Note_on_c, 0, 74, 80
1, 25584, Note_on_c, 0, 74, 0
1, 25600, Note_on_c, 0, 73, 80
1, 25664, Note_on_c, 0, 73, 0
1, 25680, Note_on_c, 0, 76, 80
1, 25744, Note_on_c, 0, 76, 0
1, 25760, Note_on_c, 0, 74, 80
1, 25824, Note_on_c, 0, 74, 0
1, 25840, Note_on_c, 0, 77, 80
1, 25904, Note_on_c, 0, 77, 0
1, 25920, Note_on_c, 0, 42, 80
1, 25920, Note_on_c, 0, 54, 80
1, 26000, Note_on_c, 0, 81, 80
1, 26064, Note_on_c, 0, 81, 0
1, 26080, Note_on_c, 0, 79, 80
1, 26112, Note_on_c, 0, 54, 0
1, 26112, Note_on_c, 0, 42, 0
1, 26144, Note_on_c, 0, 79, 0
1, 26160, Note_on_c, 0, 78, 80
1, 26224, Note_on_c, 0, 78, 0
1, 26240, Note_on_c, 0, 81, 80
1, 26304, Note_on_c, 0, 81, 0
1, 26320, Note_on_c, 0, 76, 80
1, 26384, Note_on_c, 0, 76, 0
1, 26400, Note_on_c, 0, 74, 80
1, 26464, Note_on_c, 0, 74, 0
1, 26480, Note_on_c, 0, 81, 80
1, 26544, Note_on_c, 0, 81, 0
1, 26560, Note_on_c, 0, 72, 80
1, 26624, Note_on_c, 0, 72, 0
1, 26640, Note_on_c, 0, 43, 80
1, 26640, Note_on_c, 0, 55, 80
1, 26720, Note_on_c, 0, 72, 80
1, 26784, Note_on_c, 0, 72, 0
1, 26800, Note_on_c, 0, 70, 80
1, 26832, Note_on_c, 0, 55, 0
1, 26832, Note_on_c, 0, 43, 0
1, 26864, Note_on_c, 0, 70, 0
1, 26880, Note_on_c, 0, 71, 80
1, 26944, Note_on_c, 0, 71, 0
1, 26960, Note_on_c, 0, 76, 80
1, 27024, Note_on_c, 0, 76, 0
1, 27040, Note_on_c, 0, 75, 80
1, 27104, Note_on_c, 0, 75, 0
1, 27120, Note_on_c, 0, 78, 80
1, 27184, Note_on_c, 0, 78, 0
1, 27200, Note_on_c, 0, 76, 80
1, 27264, Note_on_c, 0, 76, 0
1, 27280, Note_on_c, 0, 79, 80
1, 27344, Note_on_c, 0, 79, 0
1, 27360, Note_on_c, 0, 44, 80
1, 27360, Note_on_c, 0, 56, 80
1, 27440, Note_on_c, 0, 83, 80
1, 27504, Note_on_c, 0, 83, 0
1, 27520, Note_on_c, 0, 81, 80
1, 27552, Note_on_c, 0, 56, 0
1, 27552, Note_on_c, 0, 44, 0
1, 27584, Note_on_c, 0, 81, 0
1, 27600, Note_on_c, 0, 80, 80
1, 27664, Note_on_c, 0, 80, 0
1, 27680, Note_on_c, 0, 83, 80
1, 27744, Note_on_c, 0, 83, 0
1, 27760, Note_on_c, 0, 77, 80
1, 27824, Note_on_c, 0, 77, 0
1, 27840, Note_on_c, 0, 76, 80
1, 27904, Note_on_c, 0, 76, 0
1, 27920, Note_on_c, 0, 83, 80
1, 27984, Note_on_c, 0, 83, 0
1, 28000, Note_on_c, 0, 74, 80
1, 28064, Note_on_c, 0, 74, 0
1, 28080, Note_on_c, 0, 45, 80
1, 28080, Note_on_c, 0, 57, 80
1, 28160, Note_on_c, 0, 71, 80
1, 28224, Note_on_c, 0, 71, 0
1, 28240, Note_on_c, 0, 72, 80
1, 28272, Note_on_c, 0, 57, 0
1, 28272, Note_on_c, 0, 45, 0
1, 28304, Note_on_c, 0, 72, 0
1, 28320, Note_on_c, 0, 77, 80
1, 28400, Note_on_c, 0, 68, 80
1, 28464, Note_on_c, 0, 68, 0
1, 28480, Note_on_c, 0, 69, 80
1, 28512, Note_on_c, 0, 77, 0
1, 28544, Note_on_c, 0, 69, 0
1, 28560, Note_on_c, 0, 76, 80
1, 28640, Note_on_c, 0, 66, 80
1, 28704, Note_on_c, 0, 66, 0
1, 28720, Note_on_c, 0, 67, 80
1, 28752, Note_on_c, 0, 76, 0
1, 28784, Note_on_c, 0, 67, 0
1, 28800, Note_on_c, 0, 65, 80
1, 28880, Note_on_c, 0, 73, 80
1, 28944, Note_on_c, 0, 73, 0
1, 28960, Note_on_c, 0, 74, 80
1, 28992, Note_on_c, 0, 65, 0
1, 29024, Note_on_c, 0, 74, 0
1, 29040, Note_on_c, 0, 81, 80
1, 29120, Note_on_c, 0, 64, 80
1, 29184, Note_on_c, 0, 64, 0
1, 29200, Note_on_c, 0, 65, 80
1, 29232, Note_on_c, 0, 81, 0
1, 29264, Note_on_c, 0, 65, 0
1, 29280, Note_on_c, 0, 79, 80
1, 29360, Note_on_c, 0, 63, 80
1, 29424, Note_on_c, 0, 63, 0
1, 29440, Note_on_c, 0, 64, 80
1, 29472, Note_on_c, 0, 79, 0
1, 29504, Note_on_c, 0, 64, 0
1, 29520, Note_on_c, 0, 74, 80
1, 29520, Note_on_c, 0, 79, 80
1, 29520, Note_on_c, 0, 77, 80
1, 29520, Note_on_c, 0, 62, 80
1, 29535, Note_on_c, 0, 79, 0
1, 29616, Note_on_c, 0, 77, 0
1, 29640, Note_on_c, 0, 76, 80
1, 29688, Note_on_c, 0, 76, 0
1, 29700, Note_on_c, 0, 74, 80
1, 29712, Note_on_c, 0, 62, 0
1, 29712, Note_on_c, 0, 74, 0
1, 29748, Note_on_c, 0, 74, 0
1, 29760, Note_on_c, 0, 72, 80
1, 29760, Note_on_c, 0, 64, 80
1, 29760, Note_on_c, 0, 55, 80
1, 29952, Note_on_c, 0, 55, 0
1, 29952, Note_on_c, 0, 64, 0
1, 29952, Note_on_c, 0, 72, 0
1, 30000, Note_on_c, 0, 65, 80
1, 30000, Note_on_c, 0, 71, 80
1, 30024, Note_on_c, 0, 71, 0
1, 30030, Note_on_c, 0, 72, 80
1, 30054, Note_on_c, 0, 72, 0
1, 30060, Note_on_c, 0, 71, 80
1, 30084, Note_on_c, 0, 71, 0
1, 30090, Note_on_c, 0, 72, 80
1, 30114, Note_on_c, 0, 72, 0
1, 30120, Note_on_c, 0, 71, 80
1, 30144, Note_on_c, 0, 71, 0
1, 30150, Note_on_c, 0, 72, 80
1, 30174, Note_on_c, 0, 72, 0
1, 30180, Note_on_c, 0, 69, 80
1, 30192, Note_on_c, 0, 65, 0
1, 30204, Note_on_c, 0, 69, 0
1, 30210, Note_on_c, 0, 71, 80
1, 30234, Note_on_c, 0, 71, 0
1, 30240, Note_on_c, 0, 48, 80
1, 30240, Note_on_c, 0, 72, 80
1, 30288, Note_on_c, 0, 48, 0
1, 30300, Note_on_c, 0, 52, 80
1, 30348, Note_on_c, 0, 52, 0
1, 30360, Note_on_c, 0, 55, 80
1, 30408, Note_on_c, 0, 55, 0
1, 30420, Note_on_c, 0, 60, 80
1, 30432, Note_on_c, 0, 72, 0
1, 30468, Note_on_c, 0, 60, 0
1, 30480, Note_on_c, 0, 64, 80
1, 30540, Note_on_c, 0, 71, 80
1, 30576, Note_on_c, 0, 64, 0
1, 30588, Note_on_c, 0, 71, 0
1, 30600, Note_on_c, 0, 72, 80
1, 30648, Note_on_c, 0, 72, 0
1, 30660, Note_on_c, 0, 74, 80
1, 30705, Note_on_c, 0, 77, 80
1, 30708, Note_on_c, 0, 74, 0
1, 30720, Note_on_c, 0, 77, 0
1, 30720, Note_on_c, 0, 76, 80
1, 30816, Note_on_c, 0, 76, 0
1, 30840, Note_on_c, 0, 74, 80
1, 30888, Note_on_c, 0, 74, 0
1, 30900, Note_on_c, 0, 72, 80
1, 30948, Note_on_c, 0, 72, 0
1, 30960, Note_on_c, 0, 50, 80
1, 30960, Note_on_c, 0, 71, 80
1, 31008, Note_on_c, 0, 50, 0
1, 31020, Note_on_c, 0, 53, 80
1, 31068, Note_on_c, 0, 53, 0
1, 31080, Note_on_c, 0, 59, 80
1, 31128, Note_on_c, 0, 59, 0
1, 31140, Note_on_c, 0, 62, 80
1, 31152, Note_on_c, 0, 71, 0
1, 31188, Note_on_c, 0, 62, 0
1, 31200, Note_on_c, 0, 65, 80
1, 31260, Note_on_c, 0, 73, 80
1, 31296, Note_on_c, 0, 65, 0
1, 31308, Note_on_c, 0, 73, 0
1, 31320, Note_on_c, 0, 74, 80
1, 31368, Note_on_c, 0, 74, 0
1, 31380, Note_on_c, 0, 76, 80
1, 31425, Note_on_c, 0, 79, 80
1, 31428, Note_on_c, 0, 76, 0
1, 31440, Note_on_c, 0, 79, 0
1, 31440, Note_on_c, 0, 77, 80
1, 31536, Note_on_c, 0, 77, 0
1, 31560, Note_on_c, 0, 76, 80
1, 31608, Note_on_c, 0, 76, 0
1, 31620, Note_on_c, 0, 74, 80
1, 31668, Note_on_c, 0, 74, 0
1, 31680, Note_on_c, 0, 52, 80
1, 31680, Note_on_c, 0, 72, 80
1, 31728, Note_on_c, 0, 52, 0
1, 31740, Note_on_c, 0, 55, 80
1, 31788, Note_on_c, 0, 55, 0
1, 31800, Note_on_c, 0, 60, 80
1, 31848, Note_on_c, 0, 60, 0
1, 31860, Note_on_c, 0, 64, 80
1, 31872, Note_on_c, 0, 72, 0
1, 31908, Note_on_c, 0, 64, 0
1, 31920, Note_on_c, 0, 67, 80
1, 31980, Note_on_c, 0, 75, 80
1, 32016, Note_on_c, 0, 67, 0
1, 32028, Note_on_c, 0, 75, 0
1, 32040, Note_on_c, 0, 76, 80
1, 32088, Note_on_c, 0, 76, 0
1, 32100, Note_on_c, 0, 77, 80
1, 32145, Note_on_c, 0, 81, 80
1, 32148, Note_on_c, 0, 77, 0
1, 32160, Note_on_c, 0, 81, 0
1, 32160, Note_on_c, 0, 79, 80
1, 32273, Note_on_c, 0, 79, 0
1, 32280, Note_on_c, 0, 77, 80
1, 32328, Note_on_c, 0, 77, 0
1, 32340, Note_on_c, 0, 76, 80
1, 32388, Note_on_c, 0, 76, 0
1, 32400, Note_on_c, 0, 69, 80
1, 32400, Note_on_c, 0, 73, 80
1, 32400, Note_on_c, 0, 65, 80
1, 32448, Note_on_c, 0, 73, 0
1, 32460, Note_on_c, 0, 74, 80
1, 32508, Note_on_c, 0, 74, 0
1, 32520, Note_on_c, 0, 77, 80
1, 32568, Note_on_c, 0, 77, 0
1, 32580, Note_on_c, 0, 76, 80
1, 32592, Note_on_c, 0, 65, 0
1, 32592, Note_on_c, 0, 69, 0
1, 32628, Note_on_c, 0, 76, 0
1, 32640, Note_on_c, 0, 69, 80
1, 32640, Note_on_c, 0, 65, 80
1, 32640, Note_on_c, 0, 73, 80
1, 32688, Note_on_c, 0, 73, 0
1, 32700, Note_on_c, 0, 74, 80
1, 32748, Note_on_c, 0, 74, 0
1, 32760, Note_on_c, 0, 77, 80
1, 32808, Note_on_c, 0, 77, 0
1, 32820, Note_on_c, 0, 76, 80
1, 32832, Note_on_c, 0, 65, 0
1, 32832, Note_on_c, 0, 69, 0
1, 32865, Note_on_c, 0, 79, 80
1, 32868, Note_on_c, 0, 76, 0
1, 32880, Note_on_c, 0, 79, 0
1, 32880, Note_on_c, 0, 65, 80
1, 32880, Note_on_c, 0, 69, 80
1, 32880, Note_on_c, 0, 77, 80
1, 32976, Note_on_c, 0, 77, 0
1, 33000, Note_on_c, 0, 76, 80
1, 33048, Note_on_c, 0, 76, 0
1, 33060, Note_on_c, 0, 74, 80
1, 33072, Note_on_c, 0, 69, 0
1, 33072, Note_on_c, 0, 65, 0
1, 33108, Note_on_c, 0, 74, 0
1, 33120, Note_on_c, 0, 65, 80
1, 33120, Note_on_c, 0, 81, 80
1, 33120, Note_on_c, 0, 69, 80
1, 33120, Note_on_c, 0, 72, 80
1, 33168, Note_on_c, 0, 81, 0
1, 33180, Note_on_c, 0, 77, 80
1, 33228, Note_on_c, 0, 77, 0
1, 33240, Note_on_c, 0, 76, 80
1, 33288, Note_on_c, 0, 76, 0
1, 33300, Note_on_c, 0, 74, 80
1, 33312, Note_on_c, 0, 72, 0
1, 33312, Note_on_c, 0, 69, 0
1, 33312, Note_on_c, 0, 65, 0
1, 33337, Note_on_c, 0, 72, 80
1, 33337, Note_on_c, 0, 74, 80
1, 33345, Note_on_c, 0, 74, 0
1, 33345, Note_on_c, 0, 72, 0
1, 33345, Note_on_c, 0, 76, 80
1, 33348, Note_on_c, 0, 74, 0
1, 33353, Note_on_c, 0, 76, 0
1, 33360, Note_on_c, 0, 72, 80
1, 33360, Note_on_c, 0, 67, 80
1, 33375, Note_on_c, 0, 74, 80
1, 33399, Note_on_c, 0, 74, 0
1, 33405, Note_on_c, 0, 76, 80
1, 33429, Note_on_c, 0, 76, 0
1, 33435, Note_on_c, 0, 74, 80
1, 33459, Note_on_c, 0, 74, 0
1, 33465, Note_on_c, 0, 76, 80
1, 33489, Note_on_c, 0, 76, 0
1, 33495, Note_on_c, 0, 74, 80
1, 33519, Note_on_c, 0, 74, 0
1, 33525, Note_on_c, 0, 76, 80
1, 33549, Note_on_c, 0, 76, 0
1, 33552, Note_on_c, 0, 67, 0
1, 33552, Note_on_c, 0, 72, 0
1, 33555, Note_on_c, 0, 74, 80
1, 33579, Note_on_c, 0, 74, 0
1, 33585, Note_on_c, 0, 76, 80
1, 33600, Note_on_c, 0, 71, 80
1, 33609, Note_on_c, 0, 76, 0
1, 33615, Note_on_c, 0, 74, 80
1, 33639, Note_on_c, 0, 74, 0
1, 33645, Note_on_c, 0, 76, 80
1, 33669, Note_on_c, 0, 76, 0
1, 33675, Note_on_c, 0, 74, 80
1, 33699, Note_on_c, 0, 74, 0
1, 33705, Note_on_c, 0, 76, 80
1, 33729, Note_on_c, 0, 76, 0
1, 33735, Note_on_c, 0, 74, 80
1, 33759, Note_on_c, 0, 74, 0
1, 33765, Note_on_c, 0, 76, 80
1, 33789, Note_on_c, 0, 76, 0
1, 33792, Note_on_c, 0, 71, 0
1, 33795, Note_on_c, 0, 74, 80
1, 33819, Note_on_c, 0, 74, 0
1, 33825, Note_on_c, 0, 76, 80
1, 33840, Note_on_c, 0, 67, 80
1, 33840, Note_on_c, 0, 72, 80
1, 33840, Note_on_c, 0, 36, 80
1, 33840, Note_on_c, 0, 64, 80
1, 33849, Note_on_c, 0, 76, 0
1, 33888, Note_on_c, 0, 36, 0
1, 33900, Note_on_c, 0, 40, 80
1, 33948, Note_on_c, 0, 40, 0
1, 33960, Note_on_c, 0, 43, 80
1, 34008, Note_on_c, 0, 43, 0
1, 34020, Note_on_c, 0, 48, 80
1, 34032, Note_on_c, 0, 64, 0
1, 34032, Note_on_c, 0, 72, 0
1, 34032, Note_on_c, 0, 67, 0
1, 34068, Note_on_c, 0, 48, 0
1, 34080, Note_on_c, 0, 52, 80
1, 34140, Note_on_c, 0, 59, 80
1, 34176, Note_on_c, 0, 52, 0
1, 34188, Note_on_c, 0, 59, 0
1, 34200, Note_on_c, 0, 60, 80
1, 34248, Note_on_c, 0, 60, 0
1, 34260, Note_on_c, 0, 62, 80
1, 34305, Note_on_c, 0, 65, 80
1, 34308, Note_on_c, 0, 62, 0
1, 34320, Note_on_c, 0, 65, 0
1, 34320, Note_on_c, 0, 64, 80
1, 34416, Note_on_c, 0, 64, 0
1, 34440, Note_on_c, 0, 62, 80
1, 34488, Note_on_c, 0, 62, 0
1, 34500, Note_on_c, 0, 60, 80
1, 34548, Note_on_c, 0, 60, 0
1, 34560, Note_on_c, 0, 38, 80
1, 34560, Note_on_c, 0, 59, 80
1, 34608, Note_on_c, 0, 38, 0
1, 34620, Note_on_c, 0, 41, 80
1, 34668, Note_on_c, 0, 41, 0
1, 34680, Note_on_c, 0, 47, 80
1, 34728, Note_on_c, 0, 47, 0
1, 34740, Note_on_c, 0, 50, 80
1, 34752, Note_on_c, 0, 59, 0
1, 34788, Note_on_c, 0, 50, 0
1, 34800, Note_on_c, 0, 53, 80
1, 34860, Note_on_c, 0, 61, 80
1, 34896, Note_on_c, 0, 53, 0
1, 34908, Note_on_c, 0, 61, 0
1, 34920, Note_on_c, 0, 62, 80
1, 34968, Note_on_c, 0, 62, 0
1, 34980, Note_on_c, 0, 64, 80
1, 35025, Note_on_c, 0, 67, 80
1, 35028, Note_on_c, 0, 64, 0
1, 35040, Note_on_c, 0, 67, 0
1, 35040, Note_on_c, 0, 65, 80
1, 35136, Note_on_c, 0, 65, 0
1, 35160, Note_on_c, 0, 64, 80
1, 35208, Note_on_c, 0, 64, 0
1, 35220, Note_on_c, 0, 62, 80
1, 35268, Note_on_c, 0, 62, 0
1, 35280, Note_on_c, 0, 40, 80
1, 35280, Note_on_c, 0, 60, 80
1, 35328, Note_on_c, 0, 40, 0
1, 35340, Note_on_c, 0, 43, 80
1, 35388, Note_on_c, 0, 43, 0
1, 35400, Note_on_c, 0, 48, 80
1, 35448, Note_on_c, 0, 48, 0
1, 35460, Note_on_c, 0, 52, 80
1, 35472, Note_on_c, 0, 60, 0
1, 35508, Note_on_c, 0, 52, 0
1, 35520, Note_on_c, 0, 55, 80
1, 35580, Note_on_c, 0, 63, 80
1, 35616, Note_on_c, 0, 55, 0
1, 35628, Note_on_c, 0, 63, 0
1, 35640, Note_on_c, 0, 64, 80
1, 35688, Note_on_c, 0, 64, 0
1, 35700, Note_on_c, 0, 65, 80
1, 35745, Note_on_c, 0, 69, 80
1, 35748, Note_on_c, 0, 65, 0
1, 35760, Note_on_c, 0, 69, 0
1, 35760, Note_on_c, 0, 67, 80
1, 35856, Note_on_c, 0, 67, 0
1, 35880, Note_on_c, 0, 65, 80
1, 35928, Note_on_c, 0, 65, 0
1, 35940, Note_on_c, 0, 64, 80
1, 35988, Note_on_c, 0, 64, 0
1, 36000, Note_on_c, 0, 41, 80
1, 36000, Note_on_c, 0, 62, 80
1, 36048, Note_on_c, 0, 41, 0
1, 36060, Note_on_c, 0, 45, 80
1, 36108, Note_on_c, 0, 45, 0
1, 36120, Note_on_c, 0, 50, 80
1, 36168, Note_on_c, 0, 50, 0
1, 36180, Note_on_c, 0, 53, 80
1, 36192, Note_on_c, 0, 62, 0
1, 36228, Note_on_c, 0, 53, 0
1, 36240, Note_on_c, 0, 57, 80
1, 36300, Note_on_c, 0, 62, 80
1, 36336, Note_on_c, 0, 57, 0
1, 36348, Note_on_c, 0, 62, 0
1, 36360, Note_on_c, 0, 65, 80
1, 36408, Note_on_c, 0, 65, 0
1, 36420, Note_on_c, 0, 69, 80
1, 36468, Note_on_c, 0, 69, 0
1, 36480, Note_on_c, 0, 74, 80
1, 36540, Note_on_c, 0, 53, 80
1, 36576, Note_on_c, 0, 74, 0
1, 36588, Note_on_c, 0, 53, 0
1, 36600, Note_on_c, 0, 57, 80
1, 36648, Note_on_c, 0, 57, 0
1, 36660, Note_on_c, 0, 62, 80
1, 36708, Note_on_c, 0, 62, 0
1, 36720, Note_on_c, 0, 65, 80
1, 36780, Note_on_c, 0, 69, 80
1, 36816, Note_on_c, 0, 65, 0
1, 36828, Note_on_c, 0, 69, 0
1, 36840, Note_on_c, 0, 74, 80
1, 36888, Note_on_c, 0, 74, 0
1, 36900, Note_on_c, 0, 77, 80
1, 36948, Note_on_c, 0, 77, 0
1, 36960, Note_on_c, 0, 81, 80
1, 37020, Note_on_c, 0, 65, 80
1, 37056, Note_on_c, 0, 81, 0
1, 37068, Note_on_c, 0, 65, 0
1, 37080, Note_on_c, 0, 69, 80
1, 37128, Note_on_c, 0, 69, 0
1, 37140, Note_on_c, 0, 74, 80
1, 37188, Note_on_c, 0, 74, 0
1, 37200, Note_on_c, 0, 77, 80
1, 37260, Note_on_c, 0, 83, 80
1, 37296, Note_on_c, 0, 77, 0
1, 37308, Note_on_c, 0, 83, 0
1, 37320, Note_on_c, 0, 84, 80
1, 37368, Note_on_c, 0, 84, 0
1, 37380, Note_on_c, 0, 80, 80
1, 37428, Note_on_c, 0, 80, 0
1, 37440, Note_on_c, 0, 81, 80
1, 37488, Note_on_c, 0, 81, 0
1, 37500, Note_on_c, 0, 76, 80
1, 37548, Note_on_c, 0, 76, 0
1, 37560, Note_on_c, 0, 77, 80
1, 37608, Note_on_c, 0, 77, 0
1, 37620, Note_on_c, 0, 74, 80
1, 37657, Note_on_c, 0, 74, 80
1, 37657, Note_on_c, 0, 72, 80
1, 37665, Note_on_c, 0, 72, 0
1, 37665, Note_on_c, 0, 74, 0
1, 37665, Note_on_c, 0, 76, 80
1, 37668, Note_on_c, 0, 74, 0
1, 37673, Note_on_c, 0, 76, 0
1, 37680, Note_on_c, 0, 55, 80
1, 37680, Note_on_c, 0, 60, 80
1, 37695, Note_on_c, 0, 74, 80
1, 37719, Note_on_c, 0, 74, 0
1, 37725, Note_on_c, 0, 76, 80
1, 37749, Note_on_c, 0, 76, 0
1, 37755, Note_on_c, 0, 74, 80
1, 37779, Note_on_c, 0, 74, 0
1, 37785, Note_on_c, 0, 76, 80
1, 37809, Note_on_c, 0, 76, 0
1, 37815, Note_on_c, 0, 74, 80
1, 37839, Note_on_c, 0, 74, 0
1, 37845, Note_on_c, 0, 76, 80
1, 37869, Note_on_c, 0, 76, 0
1, 37872, Note_on_c, 0, 60, 0
1, 37872, Note_on_c, 0, 55, 0
1, 37875, Note_on_c, 0, 74, 80
1, 37899, Note_on_c, 0, 74, 0
1, 37905, Note_on_c, 0, 76, 80
1, 37920, Note_on_c, 0, 59, 80
1, 37929, Note_on_c, 0, 76, 0
1, 37935, Note_on_c, 0, 74, 80
1, 37959, Note_on_c, 0, 74, 0
1, 37965, Note_on_c, 0, 76, 80
1, 37989, Note_on_c, 0, 76, 0
1, 37995, Note_on_c, 0, 74, 80
1, 38019, Note_on_c, 0, 74, 0
1, 38025, Note_on_c, 0, 76, 80
1, 38049, Note_on_c, 0, 76, 0
1, 38055, Note_on_c, 0, 74, 80
1, 38079, Note_on_c, 0, 74, 0
1, 38085, Note_on_c, 0, 76, 80
1, 38109, Note_on_c, 0, 76, 0
1, 38112, Note_on_c, 0, 59, 0
1, 38115, Note_on_c, 0, 74, 80
1, 38139, Note_on_c, 0, 74, 0
1, 38145, Note_on_c, 0, 76, 80
1, 38160, Note_on_c, 0, 60, 80
1, 38160, Note_on_c, 0, 72, 80
1, 38169, Note_on_c, 0, 76, 0
1, 38208, Note_on_c, 0, 60, 0
1, 38220, Note_on_c, 0, 67, 80
1, 38256, Note_on_c, 0, 72, 0
1, 38268, Note_on_c, 0, 67, 0
1, 38280, Note_on_c, 0, 64, 80
1, 38280, Note_on_c, 0, 76, 80
1, 38328, Note_on_c, 0, 64, 0
1, 38340, Note_on_c, 0, 67, 80
1, 38376, Note_on_c, 0, 76, 0
1, 38388, Note_on_c, 0, 67, 0
1, 38400, Note_on_c, 0, 79, 80
1, 38400, Note_on_c, 0, 60, 80
1, 38448, Note_on_c, 0, 60, 0
1, 38460, Note_on_c, 0, 67, 80
1, 38508, Note_on_c, 0, 67, 0
1, 38520, Note_on_c, 0, 64, 80
1, 38568, Note_on_c, 0, 64, 0
1, 38580, Note_on_c, 0, 67, 80
1, 38592, Note_on_c, 0, 79, 0
1, 38628, Note_on_c, 0, 67, 0
1, 38640, Note_on_c, 0, 55, 80
1, 38640, Note_on_c, 0, 83, 80
1, 38664, Note_on_c, 0, 83, 0
1, 38670, Note_on_c, 0, 84, 80
1, 38688, Note_on_c, 0, 55, 0
1, 38694, Note_on_c, 0, 84, 0
1, 38700, Note_on_c, 0, 65, 80
1, 38700, Note_on_c, 0, 83, 80
1, 38724, Note_on_c, 0, 83, 0
1, 38730, Note_on_c, 0, 84, 80
1, 38748, Note_on_c, 0, 65, 0
1, 38754, Note_on_c, 0, 84, 0
1, 38760, Note_on_c, 0, 62, 80
1, 38760, Note_on_c, 0, 83, 80
1, 38784, Note_on_c, 0, 83, 0
1, 38790, Note_on_c, 0, 84, 80
1, 38808, Note_on_c, 0, 62, 0
1, 38814, Note_on_c, 0, 84, 0
1, 38820, Note_on_c, 0, 65, 80
1, 38820, Note_on_c, 0, 81, 80
1, 38844, Note_on_c, 0, 81, 0
1, 38850, Note_on_c, 0, 83, 80
1, 38868, Note_on_c, 0, 65, 0
1, 38874, Note_on_c, 0, 83, 0
1, 38880, Note_on_c, 0, 84, 80
1, 38880, Note_on_c, 0, 60, 80
1, 38928, Note_on_c, 0, 60, 0
1, 38940, Note_on_c, 0, 67, 80
1, 38976, Note_on_c, 0, 84, 0
1, 38988, Note_on_c, 0, 67, 0
1, 39000, Note_on_c, 0, 76, 80
1, 39000, Note_on_c, 0, 64, 80
1, 39048, Note_on_c, 0, 64, 0
1, 39060, Note_on_c, 0, 67, 80
1, 39096, Note_on_c, 0, 76, 0
1, 39108, Note_on_c, 0, 67, 0
1, 39120, Note_on_c, 0, 79, 80
1, 39120, Note_on_c, 0, 60, 80
1, 39168, Note_on_c, 0, 60, 0
1, 39180, Note_on_c, 0, 67, 80
1, 39228, Note_on_c, 0, 67, 0
1, 39240, Note_on_c, 0, 64, 80
1, 39288, Note_on_c, 0, 64, 0
1, 39300, Note_on_c, 0, 67, 80
1, 39312, Note_on_c, 0, 79, 0
1, 39348, Note_on_c, 0, 67, 0
1, 39360, Note_on_c, 0, 55, 80
1, 39360, Note_on_c, 0, 83, 80
1, 39384, Note_on_c, 0, 83, 0
1, 39390, Note_on_c, 0, 84, 80
1, 39408, Note_on_c, 0, 55, 0
1, 39414, Note_on_c, 0, 84, 0
1, 39420, Note_on_c, 0, 65, 80
1, 39420, Note_on_c, 0, 83, 80
1, 39444, Note_on_c, 0, 83, 0
1, 39450, Note_on_c, 0, 84, 80
1, 39468, Note_on_c, 0, 65, 0
1, 39474, Note_on_c, 0, 84, 0
1, 39480, Note_on_c, 0, 62, 80
1, 39480, Note_on_c, 0, 83, 80
1, 39504, Note_on_c, 0, 83, 0
1, 39510, Note_on_c, 0, 84, 80
1, 39528, Note_on_c, 0, 62, 0
1, 39534, Note_on_c, 0, 84, 0
1, 39540, Note_on_c, 0, 65, 80
1, 39540, Note_on_c, 0, 81, 80
1, 39564, Note_on_c, 0, 81, 0
1, 39570, Note_on_c, 0, 83, 80
1, 39588, Note_on_c, 0, 65, 0
1, 39594, Note_on_c, 0, 83, 0
1, 39600, Note_on_c, 0, 84, 80
1, 39600, Note_on_c, 0, 60, 80
1, 39600, Note_on_c, 0, 64, 80
1, 39792, Note_on_c, 0, 64, 0
1, 39792, Note_on_c, 0, 60, 0
1, 39792, Note_on_c, 0, 84, 0
1, 39840, Note_on_c, 0, 48, 80
1, 39840, Note_on_c, 0, 52, 80
1, 39840, Note_on_c, 0, 55, 80
1, 39840, Note_on_c, 0, 72, 80
1, 39840, Note_on_c, 0, 67, 80
1, 39840, Note_on_c, 0, 64, 80
1, 40032, Note_on_c, 0, 64, 0
1, 40032, Note_on_c, 0, 67, 0
1, 40032, Note_on_c, 0, 72, 0
1, 40032, Note_on_c, 0, 55, 0
1, 40032, Note_on_c, 0, 52, 0
1, 40032, Note_on_c, 0, 48, 0
1, 40320, Note_on_c, 0, 41, 80
1, 40320, Note_on_c, 0, 53, 80
1, 40320, Note_on_c, 0, 72, 80
1, 40320, Note_on_c, 0, 69, 80
1, 40320, Note_on_c, 0, 65, 80
1, 40320, Note_on_c, 0, 60, 80
1, 40512, Note_on_c, 0, 60, 0
1, 40512, Note_on_c, 0, 65, 0
1, 40512, Note_on_c, 0, 69, 0
1, 40512, Note_on_c, 0, 72, 0
1, 40512, Note_on_c, 0, 53, 0
1, 40512, Note_on_c, 0, 41, 0
1, 40560, Note_on_c, 0, 48, 80
1, 40560, Note_on_c, 0, 72, 80
1, 40560, Note_on_c, 0, 69, 80
1, 40752, Note_on_c, 0, 69, 0
1, 40752, Note_on_c, 0, 72, 0
1, 40752, Note_on_c, 0, 48, 0
1, 40800, Note_on_c, 0, 45, 80
1, 40800, Note_on_c, 0, 72, 80
1, 40800, Note_on_c, 0, 69, 80
1, 40992, Note_on_c, 0, 69, 0
1, 40992, Note_on_c, 0, 72, 0
1, 40992, Note_on_c, 0, 45, 0
1, 41040, Note_on_c, 0, 72, 80
1, 41040, Note_on_c, 0, 69, 80
1, 41040, Note_on_c, 0, 41, 80
1, 41232, Note_on_c, 0, 41, 0
1, 41280, Note_on_c, 0, 29, 80
1, 41328, Note_on_c, 0, 69, 0
1, 41328, Note_on_c, 0, 72, 0
1, 41400, Note_on_c, 0, 74, 80
1, 41448, Note_on_c, 0, 74, 0
1, 41460, Note_on_c, 0, 72, 80
1, 41472, Note_on_c, 0, 29, 0
1, 41508, Note_on_c, 0, 72, 0
1, 41520, Note_on_c, 0, 71, 80
1, 41544, Note_on_c, 0, 71, 0
1, 41550, Note_on_c, 0, 72, 80
1, 41574, Note_on_c, 0, 72, 0
1, 41580, Note_on_c, 0, 69, 80
1, 41628, Note_on_c, 0, 69, 0
1, 41640, Note_on_c, 0, 67, 80
1, 41688, Note_on_c, 0, 67, 0
1, 41700, Note_on_c, 0, 65, 80
1, 41748, Note_on_c, 0, 65, 0
1, 41760, Note_on_c, 0, 53, 80
1, 41760, Note_on_c, 0, 77, 80
1, 41760, Note_on_c, 0, 57, 80
1, 41856, Note_on_c, 0, 57, 0
1, 41856, Note_on_c, 0, 53, 0
1, 41880, Note_on_c, 0, 57, 80
1, 41880, Note_on_c, 0, 53, 80
1, 41952, Note_on_c, 0, 77, 0
1, 41976, Note_on_c, 0, 53, 0
1, 41976, Note_on_c, 0, 57, 0
1, 42000, Note_on_c, 0, 53, 80
1, 42000, Note_on_c, 0, 58, 80
1, 42000, Note_on_c, 0, 55, 80
1, 42000, Note_on_c, 0, 76, 80
1, 42096, Note_on_c, 0, 55, 0
1, 42096, Note_on_c, 0, 58, 0
1, 42096, Note_on_c, 0, 53, 0
1, 42120, Note_on_c, 0, 53, 80
1, 42120, Note_on_c, 0, 55, 80
1, 42120, Note_on_c, 0, 58, 80
1, 42192, Note_on_c, 0, 76, 0
1, 42216, Note_on_c, 0, 58, 0
1, 42216, Note_on_c, 0, 55, 0
1, 42216, Note_on_c, 0, 53, 0
1, 42240, Note_on_c, 0, 53, 80
1, 42240, Note_on_c, 0, 57, 80
1, 42240, Note_on_c, 0, 60, 80
1, 42240, Note_on_c, 0, 75, 80
1, 42336, Note_on_c, 0, 60, 0
1, 42336, Note_on_c, 0, 57, 0
1, 42336, Note_on_c, 0, 53, 0
1, 42360, Note_on_c, 0, 53, 80
1, 42360, Note_on_c, 0, 57, 80
1, 42360, Note_on_c, 0, 60, 80
1, 42432, Note_on_c, 0, 75, 0
1, 42456, Note_on_c, 0, 60, 0
1, 42456, Note_on_c, 0, 57, 0
1, 42456, Note_on_c, 0, 53, 0
1, 42480, Note_on_c, 0, 58, 80
1, 42480, Note_on_c, 0, 53, 80
1, 42480, Note_on_c, 0, 62, 80
1, 42480, Note_on_c, 0, 74, 80
1, 42576, Note_on_c, 0, 62, 0
1, 42576, Note_on_c, 0, 53, 0
1, 42576, Note_on_c, 0, 58, 0
1, 42600, Note_on_c, 0, 62, 80
1, 42600, Note_on_c, 0, 58, 80
1, 42600, Note_on_c, 0, 53, 80
1, 42672, Note_on_c, 0, 74, 0
1, 42696, Note_on_c, 0, 53, 0
1, 42696, Note_on_c, 0, 58, 0
1, 42696, Note_on_c, 0, 62, 0
1, 42720, Note_on_c, 0, 53, 80
1, 42720, Note_on_c, 0, 58, 80
1, 42720, Note_on_c, 0, 62, 80
1, 42816, Note_on_c, 0, 62, 0
1, 42816, Note_on_c, 0, 58, 0
1, 42816, Note_on_c, 0, 53, 0
1, 42840, Note_on_c, 0, 53, 80
1, 42840, Note_on_c, 0, 58, 80
1, 42840, Note_on_c, 0, 62, 80
1, 42936, Note_on_c, 0, 62, 0
1, 42936, Note_on_c, 0, 58, 0
1, 42936, Note_on_c, 0, 53, 0
1, 42960, Note_on_c, 0, 53, 80
1, 42960, Note_on_c, 0, 58, 80
1, 42960, Note_on_c, 0, 62, 80
1, 43056, Note_on_c, 0, 62, 0
1, 43056, Note_on_c, 0, 58, 0
1, 43056, Note_on_c, 0, 53, 0
1, 43080, Note_on_c, 0, 53, 80
1, 43080, Note_on_c, 0, 58, 80
1, 43080, Note_on_c, 0, 62, 80
1, 43176, Note_on_c, 0, 62, 0
1, 43176, Note_on_c, 0, 58, 0
1, 43176, Note_on_c, 0, 53, 0
1, 43200, Note_on_c, 0, 55, 80
1, 43200, Note_on_c, 0, 53, 80
1, 43200, Note_on_c, 0, 64, 80
1, 43200, Note_on_c, 0, 72, 80
1, 43296, Note_on_c, 0, 72, 0
1, 43296, Note_on_c, 0, 64, 0
1, 43296, Note_on_c, 0, 53, 0
1, 43296, Note_on_c, 0, 55, 0
1, 43320, Note_on_c, 0, 70, 80
1, 43320, Note_on_c, 0, 64, 80
1, 43320, Note_on_c, 0, 53, 80
1, 43320, Note_on_c, 0, 55, 80
1, 43416, Note_on_c, 0, 55, 0
1, 43416, Note_on_c, 0, 53, 0
1, 43416, Note_on_c, 0, 64, 0
1, 43416, Note_on_c, 0, 70, 0
1, 43440, Note_on_c, 0, 53, 80
1, 43440, Note_on_c, 0, 55, 80
1, 43440, Note_on_c, 0, 70, 80
1, 43440, Note_on_c, 0, 64, 80
1, 43536, Note_on_c, 0, 64, 0
1, 43536, Note_on_c, 0, 55, 0
1, 43536, Note_on_c, 0, 53, 0
1, 43560, Note_on_c, 0, 53, 80
1, 43560, Note_on_c, 0, 55, 80
1, 43560, Note_on_c, 0, 64, 80
1, 43632, Note_on_c, 0, 70, 0
1, 43656, Note_on_c, 0, 64, 0
1, 43656, Note_on_c, 0, 55, 0
1, 43656, Note_on_c, 0, 53, 0
1, 43680, Note_on_c, 0, 53, 80
1, 43680, Note_on_c, 0, 55, 80
1, 43680, Note_on_c, 0, 64, 80
1, 43776, Note_on_c, 0, 64, 0
1, 43776, Note_on_c, 0, 55, 0
1, 43776, Note_on_c, 0, 53, 0
1, 43800, Note_on_c, 0, 53, 80
1, 43800, Note_on_c, 0, 55, 80
1, 43800, Note_on_c, 0, 64, 80
1, 43896, Note_on_c, 0, 64, 0
1, 43896, Note_on_c, 0, 55, 0
1, 43896, Note_on_c, 0, 53, 0
1, 43920, Note_on_c, 0, 57, 80
1, 43920, Note_on_c, 0, 53, 80
1, 43920, Note_on_c, 0, 65, 80
1, 43920, Note_on_c, 0, 74, 80
1, 44016, Note_on_c, 0, 74, 0
1, 44016, Note_on_c, 0, 65, 0
1, 44016, Note_on_c, 0, 53, 0
1, 44016, Note_on_c, 0, 57, 0
1, 44040, Note_on_c, 0, 72, 80
1, 44040, Note_on_c, 0, 65, 80
1, 44040, Note_on_c, 0, 53, 80
1, 44040, Note_on_c, 0, 57, 80
1, 44136, Note_on_c, 0, 57, 0
1, 44136, Note_on_c, 0, 53, 0
1, 44136, Note_on_c, 0, 65, 0
1, 44136, Note_on_c, 0, 72, 0
1, 44160, Note_on_c, 0, 53, 80
1, 44160, Note_on_c, 0, 57, 80
1, 44160, Note_on_c, 0, 72, 80
1, 44160, Note_on_c, 0, 65, 80
1, 44256, Note_on_c, 0, 65, 0
1, 44256, Note_on_c, 0, 57, 0
1, 44256, Note_on_c, 0, 53, 0
1, 44280, Note_on_c, 0, 53, 80
1, 44280, Note_on_c, 0, 57, 80
1, 44280, Note_on_c, 0, 65, 80
1, 44352, Note_on_c, 0, 72, 0
1, 44376, Note_on_c, 0, 65, 0
1, 44376, Note_on_c, 0, 57, 0
1, 44376, Note_on_c, 0, 53, 0
1, 44400, Note_on_c, 0, 53, 80
1, 44400, Note_on_c, 0, 57, 80
1, 44400, Note_on_c, 0, 65, 80
1, 44496, Note_on_c, 0, 65, 0
1, 44496, Note_on_c, 0, 57, 0
1, 44496, Note_on_c, 0, 53, 0
1, 44520, Note_on_c, 0, 53, 80
1, 44520, Note_on_c, 0, 57, 80
1, 44520, Note_on_c, 0, 65, 80
1, 44616, Note_on_c, 0, 65, 0
1, 44616, Note_on_c, 0, 57, 0
1, 44616, Note_on_c, 0, 53, 0
1, 44640, Note_on_c, 0, 55, 80
1, 44640, Note_on_c, 0, 82, 80
1, 44640, Note_on_c, 0, 52, 80
1, 44640, Note_on_c, 0, 60, 80
1, 44688, Note_on_c, 0, 82, 0
1, 44700, Note_on_c, 0, 81, 80
1, 44748, Note_on_c, 0, 81, 0
1, 44760, Note_on_c, 0, 79, 80
1, 44808, Note_on_c, 0, 79, 0
1, 44820, Note_on_c, 0, 81, 80
1, 44832, Note_on_c, 0, 60, 0
1, 44832, Note_on_c, 0, 52, 0
1, 44832, Note_on_c, 0, 55, 0
1, 44868, Note_on_c, 0, 81, 0
1, 44880, Note_on_c, 0, 79, 80
1, 44928, Note_on_c, 0, 79, 0
1, 44940, Note_on_c, 0, 77, 80
1, 44988, Note_on_c, 0, 77, 0
1, 45000, Note_on_c, 0, 76, 80
1, 45048, Note_on_c, 0, 76, 0
1, 45060, Note_on_c, 0, 77, 80
1, 45108, Note_on_c, 0, 77, 0
1, 45120, Note_on_c, 0, 76, 80
1, 45168, Note_on_c, 0, 76, 0
1, 45180, Note_on_c, 0, 74, 80
1, 45228, Note_on_c, 0, 74, 0
1, 45240, Note_on_c, 0, 72, 80
1, 45288, Note_on_c, 0, 72, 0
1, 45300, Note_on_c, 0, 70, 80
1, 45348, Note_on_c, 0, 70, 0
1, 45360, Note_on_c, 0, 69, 80
1, 45360, Note_on_c, 0, 53, 80
1, 45408, Note_on_c, 0, 53, 0
1, 45420, Note_on_c, 0, 60, 80
1, 45456, Note_on_c, 0, 69, 0
1, 45468, Note_on_c, 0, 60, 0
1, 45480, Note_on_c, 0, 77, 80
1, 45480, Note_on_c, 0, 57, 80
1, 45528, Note_on_c, 0, 57, 0
1, 45540, Note_on_c, 0, 60, 80
1, 45588, Note_on_c, 0, 60, 0
1, 45600, Note_on_c, 0, 55, 80
1, 45648, Note_on_c, 0, 55, 0
1, 45660, Note_on_c, 0, 60, 80
1, 45672, Note_on_c, 0, 77, 0
1, 45708, Note_on_c, 0, 60, 0
1, 45720, Note_on_c, 0, 76, 80
1, 45720, Note_on_c, 0, 58, 80
1, 45768, Note_on_c, 0, 58, 0
1, 45780, Note_on_c, 0, 60, 80
1, 45828, Note_on_c, 0, 60, 0
1, 45840, Note_on_c, 0, 57, 80
1, 45888, Note_on_c, 0, 57, 0
1, 45900, Note_on_c, 0, 60, 80
1, 45912, Note_on_c, 0, 76, 0
1, 45948, Note_on_c, 0, 60, 0
1, 45960, Note_on_c, 0, 57, 80
1, 45960, Note_on_c, 0, 77, 80
1, 46008, Note_on_c, 0, 57, 0
1, 46020, Note_on_c, 0, 60, 80
1, 46056, Note_on_c, 0, 77, 0
1, 46068, Note_on_c, 0, 60, 0
1, 46080, Note_on_c, 0, 58, 80
1, 46176, Note_on_c, 0, 58, 0
1, 46200, Note_on_c, 0, 65, 80
1, 46200, Note_on_c, 0, 74, 80
1, 46296, Note_on_c, 0, 74, 0
1, 46296, Note_on_c, 0, 65, 0
1, 46320, Note_on_c, 0, 46, 80
1, 46416, Note_on_c, 0, 46, 0
1, 46440, Note_on_c, 0, 58, 80
1, 46440, Note_on_c, 0, 67, 80
1, 46536, Note_on_c, 0, 67, 0
1, 46536, Note_on_c, 0, 58, 0
1, 46560, Note_on_c, 0, 48, 80
1, 46656, Note_on_c, 0, 48, 0
1, 46680, Note_on_c, 0, 55, 80
1, 46680, Note_on_c, 0, 64, 80
1, 46776, Note_on_c, 0, 64, 0
1, 46776, Note_on_c, 0, 55, 0
1, 46800, Note_on_c, 0, 55, 80
1, 46800, Note_on_c, 0, 82, 80
1, 46800, Note_on_c, 0, 52, 80
1, 46800, Note_on_c, 0, 60, 80
1, 46848, Note_on_c, 0, 82, 0
1, 46860, Note_on_c, 0, 81, 80
1, 46908, Note_on_c, 0, 81, 0
1, 46920, Note_on_c, 0, 79, 80
1, 46968, Note_on_c, 0, 79, 0
1, 46980, Note_on_c, 0, 81, 80
1, 46992, Note_on_c, 0, 60, 0
1, 46992, Note_on_c, 0, 52, 0
1, 46992, Note_on_c, 0, 55, 0
1, 47028, Note_on_c, 0, 81, 0
1, 47040, Note_on_c, 0, 79, 80
1, 47088, Note_on_c, 0, 79, 0
1, 47100, Note_on_c, 0, 77, 80
1, 47148, Note_on_c, 0, 77, 0
1, 47160, Note_on_c, 0, 76, 80
1, 47208, Note_on_c, 0, 76, 0
1, 47220, Note_on_c, 0, 77, 80
1, 47268, Note_on_c, 0, 77, 0
1, 47280, Note_on_c, 0, 76, 80
1, 47328, Note_on_c, 0, 76, 0
1, 47340, Note_on_c, 0, 74, 80
1, 47388, Note_on_c, 0, 74, 0
1, 47400, Note_on_c, 0, 72, 80
1, 47448, Note_on_c, 0, 72, 0
1, 47460, Note_on_c, 0, 70, 80
1, 47508, Note_on_c, 0, 70, 0
1, 47520, Note_on_c, 0, 69, 80
1, 47520, Note_on_c, 0, 53, 80
1, 47568, Note_on_c, 0, 53, 0
1, 47580, Note_on_c, 0, 60, 80
1, 47616, Note_on_c, 0, 69, 0
1, 47628, Note_on_c, 0, 60, 0
1, 47640, Note_on_c, 0, 81, 80
1, 47640, Note_on_c, 0, 57, 80
1, 47688, Note_on_c, 0, 57, 0
1, 47700, Note_on_c, 0, 60, 80
1, 47748, Note_on_c, 0, 60, 0
1, 47760, Note_on_c, 0, 55, 80
1, 47808, Note_on_c, 0, 55, 0
1, 47820, Note_on_c, 0, 64, 80
1, 47832, Note_on_c, 0, 81, 0
1, 47868, Note_on_c, 0, 64, 0
1, 47880, Note_on_c, 0, 79, 80
1, 47880, Note_on_c, 0, 58, 80
1, 47928, Note_on_c, 0, 58, 0
1, 47940, Note_on_c, 0, 64, 80
1, 47988, Note_on_c, 0, 64, 0
1, 48000, Note_on_c, 0, 57, 80
1, 48048, Note_on_c, 0, 57, 0
1, 48060, Note_on_c, 0, 65, 80
1, 48072, Note_on_c, 0, 79, 0
1, 48108, Note_on_c, 0, 65, 0
1, 48120, Note_on_c, 0, 60, 80
1, 48120, Note_on_c, 0, 77, 80
1, 48168, Note_on_c, 0, 60, 0
1, 48180, Note_on_c, 0, 65, 80
1, 48216, Note_on_c, 0, 77, 0
1, 48228, Note_on_c, 0, 65, 0
1, 48240, Note_on_c, 0, 58, 80
1, 48336, Note_on_c, 0, 58, 0
1, 48360, Note_on_c, 0, 65, 80
1, 48360, Note_on_c, 0, 74, 80
1, 48456, Note_on_c, 0, 74, 0
1, 48456, Note_on_c, 0, 65, 0
1, 48480, Note_on_c, 0, 46, 80
1, 48576, Note_on_c, 0, 46, 0
1, 48600, Note_on_c, 0, 58, 80
1, 48600, Note_on_c, 0, 67, 80
1, 48696, Note_on_c, 0, 67, 0
1, 48696, Note_on_c, 0, 58, 0
1, 48720, Note_on_c, 0, 48, 80
1, 48816, Note_on_c, 0, 48, 0
1, 48840, Note_on_c, 0, 55, 80
1, 48840, Note_on_c, 0, 64, 80
1, 48936, Note_on_c, 0, 64, 0
1, 48936, Note_on_c, 0, 55, 0
1, 48960, Note_on_c, 0, 53, 80
1, 48960, Note_on_c, 0, 57, 80
1, 48960, Note_on_c, 0, 41, 80
1, 49024, Note_on_c, 0, 57, 0
1, 49040, Note_on_c, 0, 65, 80
1, 49104, Note_on_c, 0, 65, 0
1, 49120, Note_on_c, 0, 60, 80
1, 49152, Note_on_c, 0, 41, 0
1, 49152, Note_on_c, 0, 53, 0
1, 49184, Note_on_c, 0, 60, 0
1, 49200, Note_on_c, 0, 69, 80
1, 49264, Note_on_c, 0, 69, 0
1, 49280, Note_on_c, 0, 65, 80
1, 49344, Note_on_c, 0, 65, 0
1, 49360, Note_on_c, 0, 60, 80
1, 49424, Note_on_c, 0, 60, 0
1, 49440, Note_on_c, 0, 36, 80
1, 49440, Note_on_c, 0, 48, 80
1, 49440, Note_on_c, 0, 58, 80
1, 49504, Note_on_c, 0, 58, 0
1, 49520, Note_on_c, 0, 67, 80
1, 49584, Note_on_c, 0, 67, 0
1, 49600, Note_on_c, 0, 64, 80
1, 49632, Note_on_c, 0, 48, 0
1, 49632, Note_on_c, 0, 36, 0
1, 49664, Note_on_c, 0, 64, 0
1, 49680, Note_on_c, 0, 41, 80
1, 49680, Note_on_c, 0, 65, 80
1, 49680, Note_on_c, 0, 29, 80
1, 49744, Note_on_c, 0, 65, 0
1, 49760, Note_on_c, 0, 57, 80
1, 49824, Note_on_c, 0, 57, 0
1, 49840, Note_on_c, 0, 60, 80
1, 49872, Note_on_c, 0, 29, 0
1, 49872, Note_on_c, 0, 41, 0
1, 49904, Note_on_c, 0, 60, 0
1, 49920, Note_on_c, 0, 67, 80
1, 49984, Note_on_c, 0, 67, 0
1, 50000, Note_on_c, 0, 60, 80
1, 50064, Note_on_c, 0, 60, 0
1, 50080, Note_on_c, 0, 64, 80
1, 50144, Note_on_c, 0, 64, 0
1, 50160, Note_on_c, 0, 69, 80
1, 50224, Note_on_c, 0, 69, 0
1, 50240, Note_on_c, 0, 60, 80
1, 50304, Note_on_c, 0, 60, 0
1, 50320, Note_on_c, 0, 65, 80
1, 50384, Note_on_c, 0, 65, 0
1, 50400, Note_on_c, 0, 48, 80
1, 50400, Note_on_c, 0, 60, 80
1, 50400, Note_on_c, 0, 36, 80
1, 50464, Note_on_c, 0, 60, 0
1, 50480, Note_on_c, 0, 67, 80
1, 50544, Note_on_c, 0, 67, 0
1, 50560, Note_on_c, 0, 64, 80
1, 50592, Note_on_c, 0, 36, 0
1, 50592, Note_on_c, 0, 48, 0
1, 50624, Note_on_c, 0, 64, 0
1, 50640, Note_on_c, 0, 70, 80
1, 50704, Note_on_c, 0, 70, 0
1, 50720, Note_on_c, 0, 67, 80
1, 50784, Note_on_c, 0, 67, 0
1, 50800, Note_on_c, 0, 64, 80
1, 50864, Note_on_c, 0, 64, 0
1, 50880, Note_on_c, 0, 41, 80
1, 50880, Note_on_c, 0, 53, 80
1, 50880, Note_on_c, 0, 60, 80
1, 50944, Note_on_c, 0, 60, 0
1, 50960, Note_on_c, 0, 69, 80
1, 51024, Note_on_c, 0, 69, 0
1, 51040, Note_on_c, 0, 65, 80
1, 51072, Note_on_c, 0, 53, 0
1, 51072, Note_on_c, 0, 41, 0
1, 51104, Note_on_c, 0, 65, 0
1, 51120, Note_on_c, 0, 48, 80
1, 51120, Note_on_c, 0, 60, 80
1, 51120, Note_on_c, 0, 67, 80
1, 51184, Note_on_c, 0, 67, 0
1, 51200, Note_on_c, 0, 60, 80
1, 51264, Note_on_c, 0, 60, 0
1, 51280, Note_on_c, 0, 64, 80
1, 51312, Note_on_c, 0, 60, 0
1, 51312, Note_on_c, 0, 48, 0
1, 51344, Note_on_c, 0, 64, 0
1, 51360, Note_on_c, 0, 69, 80
1, 51424, Note_on_c, 0, 69, 0
1, 51440, Note_on_c, 0, 60, 80
1, 51504, Note_on_c, 0, 60, 0
1, 51520, Note_on_c, 0, 65, 80
1, 51584, Note_on_c, 0, 65, 0
1, 51600, Note_on_c, 0, 70, 80
1, 51664, Note_on_c, 0, 70, 0
1, 51680, Note_on_c, 0, 60, 80
1, 51744, Note_on_c, 0, 60, 0
1, 51760, Note_on_c, 0, 67, 80
1, 51824, Note_on_c, 0, 67, 0
1, 51840, Note_on_c, 0, 53, 80
1, 51840, Note_on_c, 0, 69, 80
1, 51840, Note_on_c, 0, 41, 80
1, 51904, Note_on_c, 0, 69, 0
1, 51920, Note_on_c, 0, 72, 80
1, 51984, Note_on_c, 0, 72, 0
1, 52000, Note_on_c, 0, 77, 80
1, 52032, Note_on_c, 0, 41, 0
1, 52032, Note_on_c, 0, 53, 0
1, 52064, Note_on_c, 0, 77, 0
1, 52080, Note_on_c, 0, 81, 80
1, 52144, Note_on_c, 0, 81, 0
1, 52160, Note_on_c, 0, 77, 80
1, 52224, Note_on_c, 0, 77, 0
1, 52240, Note_on_c, 0, 74, 80
1, 52304, Note_on_c, 0, 74, 0
1, 52320, Note_on_c, 0, 72, 80
1, 52384, Note_on_c, 0, 72, 0
1, 52400, Note_on_c, 0, 77, 80
1, 52464, Note_on_c, 0, 77, 0
1, 52480, Note_on_c, 0, 81, 80
1, 52544, Note_on_c, 0, 81, 0
1, 52560, Note_on_c, 0, 53, 80
1, 52560, Note_on_c, 0, 65, 80
1, 52560, Note_on_c, 0, 80, 80
1, 52624, Note_on_c, 0, 80, 0
1, 52640, Note_on_c, 0, 74, 80
1, 52704, Note_on_c, 0, 74, 0
1, 52720, Note_on_c, 0, 71, 80
1, 52752, Note_on_c, 0, 65, 0
1, 52752, Note_on_c, 0, 53, 0
1, 52784, Note_on_c, 0, 71, 0
1, 52800, Note_on_c, 0, 64, 80
1, 52800, Note_on_c, 0, 52, 80
1, 52800, Note_on_c, 0, 72, 80
1, 52864, Note_on_c, 0, 72, 0
1, 52880, Note_on_c, 0, 76, 80
1, 52944, Note_on_c, 0, 76, 0
1, 52960, Note_on_c, 0, 79, 80
1, 52992, Note_on_c, 0, 52, 0
1, 52992, Note_on_c, 0, 64, 0
1, 53024, Note_on_c, 0, 79, 0
1, 53040, Note_on_c, 0, 75, 80
1, 53104, Note_on_c, 0, 75, 0
1, 53120, Note_on_c, 0, 72, 80
1, 53184, Note_on_c, 0, 72, 0
1, 53200, Note_on_c, 0, 70, 80
1, 53264, Note_on_c, 0, 70, 0
1, 53280, Note_on_c, 0, 69, 80
1, 53280, Note_on_c, 0, 51, 80
1, 53280, Note_on_c, 0, 63, 80
1, 53344, Note_on_c, 0, 69, 0
1, 53360, Note_on_c, 0, 72, 80
1, 53424, Note_on_c, 0, 72, 0
1, 53440, Note_on_c, 0, 78, 80
1, 53472, Note_on_c, 0, 63, 0
1, 53472, Note_on_c, 0, 51, 0
1, 53504, Note_on_c, 0, 78, 0
1, 53520, Note_on_c, 0, 50, 80
1, 53520, Note_on_c, 0, 77, 80
1, 53520, Note_on_c, 0, 62, 80
1, 53584, Note_on_c, 0, 77, 0
1, 53600, Note_on_c, 0, 74, 80
1, 53664, Note_on_c, 0, 74, 0
1, 53680, Note_on_c, 0, 70, 80
1, 53712, Note_on_c, 0, 62, 0
1, 53712, Note_on_c, 0, 50, 0
1, 53744, Note_on_c, 0, 70, 0
1, 53760, Note_on_c, 0, 69, 80
1, 53824, Note_on_c, 0, 69, 0
1, 53840, Note_on_c, 0, 74, 80
1, 53904, Note_on_c, 0, 74, 0
1, 53920, Note_on_c, 0, 77, 80
1, 53984, Note_on_c, 0, 77, 0
1, 54000, Note_on_c, 0, 77, 80
1, 54000, Note_on_c, 0, 50, 80
1, 54000, Note_on_c, 0, 62, 80
1, 54064, Note_on_c, 0, 77, 0
1, 54080, Note_on_c, 0, 71, 80
1, 54144, Note_on_c, 0, 71, 0
1, 54160, Note_on_c, 0, 68, 80
1, 54192, Note_on_c, 0, 62, 0
1, 54192, Note_on_c, 0, 50, 0
1, 54224, Note_on_c, 0, 68, 0
1, 54240, Note_on_c, 0, 49, 80
1, 54240, Note_on_c, 0, 69, 80
1, 54240, Note_on_c, 0, 61, 80
1, 54304, Note_on_c, 0, 69, 0
1, 54320, Note_on_c, 0, 73, 80
1, 54384, Note_on_c, 0, 73, 0
1, 54400, Note_on_c, 0, 76, 80
1, 54432, Note_on_c, 0, 61, 0
1, 54432, Note_on_c, 0, 49, 0
1, 54464, Note_on_c, 0, 76, 0
1, 54480, Note_on_c, 0, 72, 80
1, 54544, Note_on_c, 0, 72, 0
1, 54560, Note_on_c, 0, 69, 80
1, 54624, Note_on_c, 0, 69, 0
1, 54640, Note_on_c, 0, 67, 80
1, 54704, Note_on_c, 0, 67, 0
1, 54720, Note_on_c, 0, 66, 80
1, 54720, Note_on_c, 0, 48, 80
1, 54720, Note_on_c, 0, 60, 80
1, 54784, Note_on_c, 0, 66, 0
1, 54800, Note_on_c, 0, 69, 80
1, 54864, Note_on_c, 0, 69, 0
1, 54880, Note_on_c, 0, 75, 80
1, 54912, Note_on_c, 0, 60, 0
1, 54912, Note_on_c, 0, 48, 0
1, 54944, Note_on_c, 0, 75, 0
1, 54960, Note_on_c, 0, 47, 80
1, 54960, Note_on_c, 0, 74, 80
1, 54960, Note_on_c, 0, 59, 80
1, 55024, Note_on_c, 0, 74, 0
1, 55040, Note_on_c, 0, 71, 80
1, 55104, Note_on_c, 0, 71, 0
1, 55120, Note_on_c, 0, 67, 80
1, 55152, Note_on_c, 0, 59, 0
1, 55152, Note_on_c, 0, 47, 0
1, 55184, Note_on_c, 0, 67, 0
1, 55200, Note_on_c, 0, 65, 80
1, 55264, Note_on_c, 0, 65, 0
1, 55280, Note_on_c, 0, 70, 80
1, 55344, Note_on_c, 0, 70, 0
1, 55360, Note_on_c, 0, 74, 80
1, 55424, Note_on_c, 0, 74, 0
1, 55440, Note_on_c, 0, 73, 80
1, 55440, Note_on_c, 0, 46, 80
1, 55440, Note_on_c, 0, 58, 80
1, 55504, Note_on_c, 0, 73, 0
1, 55520, Note_on_c, 0, 67, 80
1, 55584, Note_on_c, 0, 67, 0
1, 55600, Note_on_c, 0, 64, 80
1, 55632, Note_on_c, 0, 58, 0
1, 55632, Note_on_c, 0, 46, 0
1, 55664, Note_on_c, 0, 64, 0
1, 55680, Note_on_c, 0, 57, 80
1, 55680, Note_on_c, 0, 45, 80
1, 55680, Note_on_c, 0, 65, 80
1, 55744, Note_on_c, 0, 65, 0
1, 55760, Note_on_c, 0, 69, 80
1, 55824, Note_on_c, 0, 69, 0
1, 55840, Note_on_c, 0, 72, 80
1, 55872, Note_on_c, 0, 45, 0
1, 55872, Note_on_c, 0, 57, 0
1, 55904, Note_on_c, 0, 72, 0
1, 55920, Note_on_c, 0, 77, 80
1, 55984, Note_on_c, 0, 77, 0
1, 56000, Note_on_c, 0, 72, 80
1, 56064, Note_on_c, 0, 72, 0
1, 56080, Note_on_c, 0, 69, 80
1, 56144, Note_on_c, 0, 69, 0
1, 56160, Note_on_c, 0, 58, 80
1, 56160, Note_on_c, 0, 67, 80
1, 56160, Note_on_c, 0, 46, 80
1, 56224, Note_on_c, 0, 67, 0
1, 56240, Note_on_c, 0, 70, 80
1, 56304, Note_on_c, 0, 70, 0
1, 56320, Note_on_c, 0, 69, 80
1, 56352, Note_on_c, 0, 46, 0
1, 56352, Note_on_c, 0, 58, 0
1, 56384, Note_on_c, 0, 69, 0
1, 56400, Note_on_c, 0, 70, 80
1, 56464, Note_on_c, 0, 70, 0
1, 56480, Note_on_c, 0, 74, 80
1, 56544, Note_on_c, 0, 74, 0
1, 56560, Note_on_c, 0, 73, 80
1, 56624, Note_on_c, 0, 73, 0
1, 56640, Note_on_c, 0, 74, 80
1, 56704, Note_on_c, 0, 74, 0
1, 56720, Note_on_c, 0, 79, 80
1, 56784, Note_on_c, 0, 79, 0
1, 56800, Note_on_c, 0, 78, 80
1, 56864, Note_on_c, 0, 78, 0
1, 56880, Note_on_c, 0, 79, 80
1, 56944, Note_on_c, 0, 79, 0
1, 56960, Note_on_c, 0, 82, 80
1, 57024, Note_on_c, 0, 82, 0
1, 57040, Note_on_c, 0, 81, 80
1, 57104, Note_on_c, 0, 81, 0
1, 57120, Note_on_c, 0, 82, 80
1, 57184, Note_on_c, 0, 82, 0
1, 57200, Note_on_c, 0, 86, 80
1, 57264, Note_on_c, 0, 86, 0
1, 57280, Note_on_c, 0, 85, 80
1, 57344, Note_on_c, 0, 85, 0
1, 57360, Note_on_c, 0, 86, 80
1, 57424, Note_on_c, 0, 86, 0
1, 57440, Note_on_c, 0, 82, 80
1, 57504, Note_on_c, 0, 82, 0
1, 57520, Note_on_c, 0, 81, 80
1, 57584, Note_on_c, 0, 81, 0
1, 57600, Note_on_c, 0, 82, 80
1, 57664, Note_on_c, 0, 82, 0
1, 57680, Note_on_c, 0, 79, 80
1, 57744, Note_on_c, 0, 79, 0
1, 57760, Note_on_c, 0, 78, 80
1, 57824, Note_on_c, 0, 78, 0
1, 57840, Note_on_c, 0, 79, 80
1, 57904, Note_on_c, 0, 79, 0
1, 57920, Note_on_c, 0, 74, 80
1, 57984, Note_on_c, 0, 74, 0
1, 58000, Note_on_c, 0, 73, 80
1, 58064, Note_on_c, 0, 73, 0
1, 58080, Note_on_c, 0, 46, 80
1, 58080, Note_on_c, 0, 58, 80
1, 58080, Note_on_c, 0, 74, 80
1, 58144, Note_on_c, 0, 74, 0
1, 58160, Note_on_c, 0, 70, 80
1, 58224, Note_on_c, 0, 70, 0
1, 58240, Note_on_c, 0, 67, 80
1, 58272, Note_on_c, 0, 58, 0
1, 58272, Note_on_c, 0, 46, 0
1, 58304, Note_on_c, 0, 67, 0
1, 58320, Note_on_c, 0, 57, 80
1, 58320, Note_on_c, 0, 48, 80
1, 58320, Note_on_c, 0, 65, 80
1, 58512, Note_on_c, 0, 65, 0
1, 58512, Note_on_c, 0, 48, 0
1, 58512, Note_on_c, 0, 57, 0
1, 58560, Note_on_c, 0, 55, 80
1, 58560, Note_on_c, 0, 64, 80
1, 58752, Note_on_c, 0, 64, 0
1, 58752, Note_on_c, 0, 55, 0
1, 59040, Note_on_c, 0, 48, 80
1, 59040, Note_on_c, 0, 36, 80
1, 59232, Note_on_c, 0, 36, 0
1, 59232, Note_on_c, 0, 48, 0
1, 59280, Note_on_c, 0, 40, 80
1, 59280, Note_on_c, 0, 52, 80
1, 59472, Note_on_c, 0, 52, 0
1, 59472, Note_on_c, 0, 40, 0
1, 59520, Note_on_c, 0, 43, 80
1, 59520, Note_on_c, 0, 55, 80
1, 59712, Note_on_c, 0, 55, 0
1, 59712, Note_on_c, 0, 43, 0
1, 59760, Note_on_c, 0, 79, 80
1, 59808, Note_on_c, 0, 79, 0
1, 59820, Note_on_c, 0, 81, 80
1, 59868, Note_on_c, 0, 81, 0
1, 59880, Note_on_c, 0, 79, 80
1, 59928, Note_on_c, 0, 79, 0
1, 59940, Note_on_c, 0, 76, 80
1, 59988, Note_on_c, 0, 76, 0
1, 60000, Note_on_c, 0, 79, 80
1, 60048, Note_on_c, 0, 79, 0
1, 60060, Note_on_c, 0, 81, 80
1, 60108, Note_on_c, 0, 81, 0
1, 60120, Note_on_c, 0, 79, 80
1, 60168, Note_on_c, 0, 79, 0
1, 60180, Note_on_c, 0, 76, 80
1, 60228, Note_on_c, 0, 76, 0
1, 60240, Note_on_c, 0, 77, 80
1, 60288, Note_on_c, 0, 77, 0
1, 60300, Note_on_c, 0, 79, 80
1, 60348, Note_on_c, 0, 79, 0
1, 60360, Note_on_c, 0, 77, 80
1, 60408, Note_on_c, 0, 77, 0
1, 60420, Note_on_c, 0, 74, 80
1, 60468, Note_on_c, 0, 74, 0
1, 60480, Note_on_c, 0, 76, 80
1, 60480, Note_on_c, 0, 67, 80
1, 60528, Note_on_c, 0, 67, 0
1, 60528, Note_on_c, 0, 76, 0
1, 60540, Note_on_c, 0, 69, 80
1, 60540, Note_on_c, 0, 77, 80
1, 60588, Note_on_c, 0, 77, 0
1, 60588, Note_on_c, 0, 69, 0
1, 60600, Note_on_c, 0, 67, 80
1, 60600, Note_on_c, 0, 76, 80
1, 60648, Note_on_c, 0, 76, 0
1, 60648, Note_on_c, 0, 67, 0
1, 60660, Note_on_c, 0, 72, 80
1, 60660, Note_on_c, 0, 64, 80
1, 60708, Note_on_c, 0, 64, 0
1, 60708, Note_on_c, 0, 72, 0
1, 60720, Note_on_c, 0, 76, 80
1, 60720, Note_on_c, 0, 67, 80
1, 60768, Note_on_c, 0, 67, 0
1, 60768, Note_on_c, 0, 76, 0
1, 60780, Note_on_c, 0, 77, 80
1, 60780, Note_on_c, 0, 69, 80
1, 60828, Note_on_c, 0, 69, 0
1, 60828, Note_on_c, 0, 77, 0
1, 60840, Note_on_c, 0, 67, 80
1, 60840, Note_on_c, 0, 76, 80
1, 60888, Note_on_c, 0, 76, 0
1, 60888, Note_on_c, 0, 67, 0
1, 60900, Note_on_c, 0, 72, 80
1, 60900, Note_on_c, 0, 64, 80
1, 60948, Note_on_c, 0, 64, 0
1, 60948, Note_on_c, 0, 72, 0
1, 60960, Note_on_c, 0, 65, 80
1, 60960, Note_on_c, 0, 74, 80
1, 61008, Note_on_c, 0, 74, 0
1, 61008, Note_on_c, 0, 65, 0
1, 61020, Note_on_c, 0, 67, 80
1, 61020, Note_on_c, 0, 76, 80
1, 61068, Note_on_c, 0, 76, 0
1, 61068, Note_on_c, 0, 67, 0
1, 61080, Note_on_c, 0, 65, 80
1, 61080, Note_on_c, 0, 74, 80
1, 61128, Note_on_c, 0, 74, 0
1, 61128, Note_on_c, 0, 65, 0
1, 61140, Note_on_c, 0, 62, 80
1, 61140, Note_on_c, 0, 71, 80
1, 61188, Note_on_c, 0, 71, 0
1, 61188, Note_on_c, 0, 62, 0
1, 61200, Note_on_c, 0, 72, 80
1, 61200, Note_on_c, 0, 64, 80
1, 61296, Note_on_c, 0, 64, 0
1, 61320, Note_on_c, 0, 55, 80
1, 61416, Note_on_c, 0, 55, 0
1, 61440, Note_on_c, 0, 60, 80
1, 61488, Note_on_c, 0, 72, 0
1, 61536, Note_on_c, 0, 60, 0
1, 61560, Note_on_c, 0, 55, 80
1, 61560, Note_on_c, 0, 74, 80
1, 61608, Note_on_c, 0, 74, 0
1, 61620, Note_on_c, 0, 76, 80
1, 61656, Note_on_c, 0, 55, 0
1, 61668, Note_on_c, 0, 76, 0
1, 61680, Note_on_c, 0, 59, 80
1, 61680, Note_on_c, 0, 74, 80
1, 61872, Note_on_c, 0, 74, 0
1, 61872, Note_on_c, 0, 59, 0
1, 61920, Note_on_c, 0, 31, 80
1, 61920, Note_on_c, 0, 43, 80
1, 62112, Note_on_c, 0, 43, 0
1, 62112, Note_on_c, 0, 31, 0
1, 62160, Note_on_c, 0, 35, 80
1, 62160, Note_on_c, 0, 47, 80
1, 62352, Note_on_c, 0, 47, 0
1, 62352, Note_on_c, 0, 35, 0
1, 62400, Note_on_c, 0, 38, 80
1, 62400, Note_on_c, 0, 50, 80
1, 62592, Note_on_c, 0, 50, 0
1, 62592, Note_on_c, 0, 38, 0
1, 62640, Note_on_c, 0, 77, 80
1, 62688, Note_on_c, 0, 77, 0
1, 62700, Note_on_c, 0, 79, 80
1, 62748, Note_on_c, 0, 79, 0
1, 62760, Note_on_c, 0, 77, 80
1, 62808, Note_on_c, 0, 77, 0
1, 62820, Note_on_c, 0, 74, 80
1, 62868, Note_on_c, 0, 74, 0
1, 62880, Note_on_c, 0, 77, 80
1, 62928, Note_on_c, 0, 77, 0
1, 62940, Note_on_c, 0, 79, 80
1, 62988, Note_on_c, 0, 79, 0
1, 63000, Note_on_c, 0, 77, 80
1, 63048, Note_on_c, 0, 77, 0
1, 63060, Note_on_c, 0, 74, 80
1, 63108, Note_on_c, 0, 74, 0
1, 63120, Note_on_c, 0, 76, 80
1, 63168, Note_on_c, 0, 76, 0
1, 63180, Note_on_c, 0, 77, 80
1, 63228, Note_on_c, 0, 77, 0
1, 63240, Note_on_c, 0, 76, 80
1, 63288, Note_on_c, 0, 76, 0
1, 63300, Note_on_c, 0, 72, 80
1, 63348, Note_on_c, 0, 72, 0
1, 63360, Note_on_c, 0, 74, 80
1, 63360, Note_on_c, 0, 65, 80
1, 63408, Note_on_c, 0, 65, 0
1, 63408, Note_on_c, 0, 74, 0
1, 63420, Note_on_c, 0, 67, 80
1, 63420, Note_on_c, 0, 76, 80
1, 63468, Note_on_c, 0, 76, 0
1, 63468, Note_on_c, 0, 67, 0
1, 63480, Note_on_c, 0, 65, 80
1, 63480, Note_on_c, 0, 74, 80
1, 63528, Note_on_c, 0, 74, 0
1, 63528, Note_on_c, 0, 65, 0
1, 63540, Note_on_c, 0, 71, 80
1, 63540, Note_on_c, 0, 62, 80
1, 63588, Note_on_c, 0, 62, 0
1, 63588, Note_on_c, 0, 71, 0
1, 63600, Note_on_c, 0, 74, 80
1, 63600, Note_on_c, 0, 65, 80
1, 63648, Note_on_c, 0, 65, 0
1, 63648, Note_on_c, 0, 74, 0
1, 63660, Note_on_c, 0, 76, 80
1, 63660, Note_on_c, 0, 67, 80
1, 63708, Note_on_c, 0, 67, 0
1, 63708, Note_on_c, 0, 76, 0
1, 63720, Note_on_c, 0, 65, 80
1, 63720, Note_on_c, 0, 74, 80
1, 63768, Note_on_c, 0, 74, 0
1, 63768, Note_on_c, 0, 65, 0
1, 63780, Note_on_c, 0, 71, 80
1, 63780, Note_on_c, 0, 62, 80
1, 63828, Note_on_c, 0, 62, 0
1, 63828, Note_on_c, 0, 71, 0
1, 63840, Note_on_c, 0, 64, 80
1, 63840, Note_on_c, 0, 72, 80
1, 63888, Note_on_c, 0, 72, 0
1, 63888, Note_on_c, 0, 64, 0
1, 63900, Note_on_c, 0, 65, 80
1, 63900, Note_on_c, 0, 71, 80
1, 63948, Note_on_c, 0, 71, 0
1, 63948, Note_on_c, 0, 65, 0
1, 63960, Note_on_c, 0, 64, 80
1, 63960, Note_on_c, 0, 72, 80
1, 64008, Note_on_c, 0, 72, 0
1, 64008, Note_on_c, 0, 64, 0
1, 64020, Note_on_c, 0, 60, 80
1, 64020, Note_on_c, 0, 76, 80
1, 64068, Note_on_c, 0, 76, 0
1, 64068, Note_on_c, 0, 60, 0
1, 64080, Note_on_c, 0, 74, 80
1, 64080, Note_on_c, 0, 65, 80
1, 64176, Note_on_c, 0, 65, 0
1, 64200, Note_on_c, 0, 62, 80
1, 64296, Note_on_c, 0, 62, 0
1, 64320, Note_on_c, 0, 59, 80
1, 64368, Note_on_c, 0, 74, 0
1, 64416, Note_on_c, 0, 59, 0
1, 64440, Note_on_c, 0, 55, 80
1, 64440, Note_on_c, 0, 76, 80
1, 64488, Note_on_c, 0, 76, 0
1, 64500, Note_on_c, 0, 77, 80
1, 64536, Note_on_c, 0, 55, 0
1, 64548, Note_on_c, 0, 77, 0
1, 64560, Note_on_c, 0, 60, 80
1, 64560, Note_on_c, 0, 76, 80
1, 64752, Note_on_c, 0, 76, 0
1, 64752, Note_on_c, 0, 60, 0
1, 64800, Note_on_c, 0, 40, 80
1, 64800, Note_on_c, 0, 52, 80
1, 64880, Note_on_c, 0, 79, 80
1, 64944, Note_on_c, 0, 79, 0
1, 64960, Note_on_c, 0, 77, 80
1, 64992, Note_on_c, 0, 52, 0
1, 64992, Note_on_c, 0, 40, 0
1, 65024, Note_on_c, 0, 77, 0
1, 65040, Note_on_c, 0, 76, 80
1, 65104, Note_on_c, 0, 76, 0
1, 65120, Note_on_c, 0, 79, 80
1, 65184, Note_on_c, 0, 79, 0
1, 65200, Note_on_c, 0, 74, 80
1, 65264, Note_on_c, 0, 74, 0
1, 65280, Note_on_c, 0, 72, 80
1, 65344, Note_on_c, 0, 72, 0
1, 65360, Note_on_c, 0, 79, 80
1, 65424, Note_on_c, 0, 79, 0
1, 65440, Note_on_c, 0, 70, 80
1, 65504, Note_on_c, 0, 70, 0
1, 65520, Note_on_c, 0, 41, 80
1, 65520, Note_on_c, 0, 53, 80
1, 65600, Note_on_c, 0, 70, 80
1, 65664, Note_on_c, 0, 70, 0
1, 65680, Note_on_c, 0, 68, 80
1, 65712, Note_on_c, 0, 53, 0
1, 65712, Note_on_c, 0, 41, 0
1, 65744, Note_on_c, 0, 68, 0
1, 65760, Note_on_c, 0, 69, 80
1, 65824, Note_on_c, 0, 69, 0
1, 65840, Note_on_c, 0, 74, 80
1, 65904, Note_on_c, 0, 74, 0
1, 65920, Note_on_c, 0, 73, 80
1, 65984, Note_on_c, 0, 73, 0
1, 66000, Note_on_c, 0, 76, 80
1, 66064, Note_on_c, 0, 76, 0
1, 66080, Note_on_c, 0, 74, 80
1, 66144, Note_on_c, 0, 74, 0
1, 66160, Note_on_c, 0, 77, 80
1, 66224, Note_on_c, 0, 77, 0
1, 66240, Note_on_c, 0, 42, 80
1, 66240, Note_on_c, 0, 54, 80
1, 66320, Note_on_c, 0, 81, 80
1, 66384, Note_on_c, 0, 81, 0
1, 66400, Note_on_c, 0, 79, 80
1, 66432, Note_on_c, 0, 54, 0
1, 66432, Note_on_c, 0, 42, 0
1, 66464, Note_on_c, 0, 79, 0
1, 66480, Note_on_c, 0, 78, 80
1, 66544, Note_on_c, 0, 78, 0
1, 66560, Note_on_c, 0, 81, 80
1, 66624, Note_on_c, 0, 81, 0
1, 66640, Note_on_c, 0, 76, 80
1, 66704, Note_on_c, 0, 76, 0
1, 66720, Note_on_c, 0, 74, 80
1, 66784, Note_on_c, 0, 74, 0
1, 66800, Note_on_c, 0, 81, 80
1, 66864, Note_on_c, 0, 81, 0
1, 66880, Note_on_c, 0, 72, 80
1, 66944, Note_on_c, 0, 72, 0
1, 66960, Note_on_c, 0, 43, 80
1, 66960, Note_on_c, 0, 55, 80
1, 67040, Note_on_c, 0, 72, 80
1, 67104, Note_on_c, 0, 72, 0
1, 67120, Note_on_c, 0, 70, 80
1, 67152, Note_on_c, 0, 55, 0
1, 67152, Note_on_c, 0, 43, 0
1, 67184, Note_on_c, 0, 70, 0
1, 67200, Note_on_c, 0, 71, 80
1, 67264, Note_on_c, 0, 71, 0
1, 67280, Note_on_c, 0, 76, 80
1, 67344, Note_on_c, 0, 76, 0
1, 67360, Note_on_c, 0, 75, 80
1, 67424, Note_on_c, 0, 75, 0
1, 67440, Note_on_c, 0, 78, 80
1, 67504, Note_on_c, 0, 78, 0
1, 67520, Note_on_c, 0, 76, 80
1, 67584, Note_on_c, 0, 76, 0
1, 67600, Note_on_c, 0, 79, 80
1, 67664, Note_on_c, 0, 79, 0
1, 67680, Note_on_c, 0, 44, 80
1, 67680, Note_on_c, 0, 56, 80
1, 67760, Note_on_c, 0, 83, 80
1, 67824, Note_on_c, 0, 83, 0
1, 67840, Note_on_c, 0, 81, 80
1, 67872, Note_on_c, 0, 56, 0
1, 67872, Note_on_c, 0, 44, 0
1, 67904, Note_on_c, 0, 81, 0
1, 67920, Note_on_c, 0, 80, 80
1, 67984, Note_on_c, 0, 80, 0
1, 68000, Note_on_c, 0, 83, 80
1, 68064, Note_on_c, 0, 83, 0
1, 68080, Note_on_c, 0, 77, 80
1, 68144, Note_on_c, 0, 77, 0
1, 68160, Note_on_c, 0, 76, 80
1, 68224, Note_on_c, 0, 76, 0
1, 68240, Note_on_c, 0, 83, 80
1, 68304, Note_on_c, 0, 83, 0
1, 68320, Note_on_c, 0, 74, 80
1, 68384, Note_on_c, 0, 74, 0
1, 68400, Note_on_c, 0, 45, 80
1, 68400, Note_on_c, 0, 57, 80
1, 68480, Note_on_c, 0, 71, 80
1, 68544, Note_on_c, 0, 71, 0
1, 68560, Note_on_c, 0, 72, 80
1, 68592, Note_on_c, 0, 57, 0
1, 68592, Note_on_c, 0, 45, 0
1, 68624, Note_on_c, 0, 72, 0
1, 68640, Note_on_c, 0, 77, 80
1, 68720, Note_on_c, 0, 68, 80
1, 68784, Note_on_c, 0, 68, 0
1, 68800, Note_on_c, 0, 69, 80
1, 68832, Note_on_c, 0, 77, 0
1, 68864, Note_on_c, 0, 69, 0
1, 68880, Note_on_c, 0, 76, 80
1, 68960, Note_on_c, 0, 66, 80
1, 69024, Note_on_c, 0, 66, 0
1, 69040, Note_on_c, 0, 67, 80
1, 69072, Note_on_c, 0, 76, 0
1, 69104, Note_on_c, 0, 67, 0
1, 69120, Note_on_c, 0, 65, 80
1, 69200, Note_on_c, 0, 73, 80
1, 69264, Note_on_c, 0, 73, 0
1, 69280, Note_on_c, 0, 74, 80
1, 69312, Note_on_c, 0, 65, 0
1, 69344, Note_on_c, 0, 74, 0
1, 69360, Note_on_c, 0, 81, 80
1, 69440, Note_on_c, 0, 64, 80
1, 69504, Note_on_c, 0, 64, 0
1, 69520, Note_on_c, 0, 65, 80
1, 69552, Note_on_c, 0, 81, 0
1, 69584, Note_on_c, 0, 65, 0
1, 69600, Note_on_c, 0, 79, 80
1, 69680, Note_on_c, 0, 63, 80
1, 69744, Note_on_c, 0, 63, 0
1, 69760, Note_on_c, 0, 64, 80
1, 69792, Note_on_c, 0, 79, 0
1, 69824, Note_on_c, 0, 64, 0
1, 69840, Note_on_c, 0, 74, 80
1, 69840, Note_on_c, 0, 79, 80
1, 69840, Note_on_c, 0, 77, 80
1, 69840, Note_on_c, 0, 62, 80
1, 69855, Note_on_c, 0, 79, 0
1, 69936, Note_on_c, 0, 77, 0
1, 69960, Note_on_c, 0, 76, 80
1, 70008, Note_on_c, 0, 76, 0
1, 70020, Note_on_c, 0, 74, 80
1, 70032, Note_on_c, 0, 62, 0
1, 70032, Note_on_c, 0, 74, 0
1, 70068, Note_on_c, 0, 74, 0
1, 70080, Note_on_c, 0, 72, 80
1, 70080, Note_on_c, 0, 64, 80
1, 70080, Note_on_c, 0, 55, 80
1, 70272, Note_on_c, 0, 55, 0
1, 70272, Note_on_c, 0, 64, 0
1, 70272, Note_on_c, 0, 72, 0
1, 70320, Note_on_c, 0, 65, 80
1, 70320, Note_on_c, 0, 71, 80
1, 70344, Note_on_c, 0, 71, 0
1, 70350, Note_on_c, 0, 72, 80
1, 70374, Note_on_c, 0, 72, 0
1, 70380, Note_on_c, 0, 71, 80
1, 70404, Note_on_c, 0, 71, 0
1, 70410, Note_on_c, 0, 72, 80
1, 70434, Note_on_c, 0, 72, 0
1, 70440, Note_on_c, 0, 71, 80
1, 70464, Note_on_c, 0, 71, 0
1, 70470, Note_on_c, 0, 72, 80
1, 70494, Note_on_c, 0, 72, 0
1, 70500, Note_on_c, 0, 69, 80
1, 70512, Note_on_c, 0, 65, 0
1, 70524, Note_on_c, 0, 69, 0
1, 70530, Note_on_c, 0, 71, 80
1, 70554, Note_on_c, 0, 71, 0
1, 70560, Note_on_c, 0, 48, 80
1, 70560, Note_on_c, 0, 72, 80
1, 70608, Note_on_c, 0, 48, 0
1, 70620, Note_on_c, 0, 52, 80
1, 70668, Note_on_c, 0, 52, 0
1, 70680, Note_on_c, 0, 55, 80
1, 70728, Note_on_c, 0, 55, 0
1, 70740, Note_on_c, 0, 60, 80
1, 70752, Note_on_c, 0, 72, 0
1, 70788, Note_on_c, 0, 60, 0
1, 70800, Note_on_c, 0, 64, 80
1, 70860, Note_on_c, 0, 71, 80
1, 70896, Note_on_c, 0, 64, 0
1, 70908, Note_on_c, 0, 71, 0
1, 70920, Note_on_c, 0, 72, 80
1, 70968, Note_on_c, 0, 72, 0
1, 70980, Note_on_c, 0, 74, 80
1, 71025, Note_on_c, 0, 77, 80
1, 71028, Note_on_c, 0, 74, 0
1, 71040, Note_on_c, 0, 77, 0
1, 71040, Note_on_c, 0, 76, 80
1, 71136, Note_on_c, 0, 76, 0
1, 71160, Note_on_c, 0, 74, 80
1, 71208, Note_on_c, 0, 74, 0
1, 71220, Note_on_c, 0, 72, 80
1, 71268, Note_on_c, 0, 72, 0
1, 71280, Note_on_c, 0, 50, 80
1, 71280, Note_on_c, 0, 71, 80
1, 71328, Note_on_c, 0, 50, 0
1, 71340, Note_on_c, 0, 53, 80
1, 71388, Note_on_c, 0, 53, 0
1, 71400, Note_on_c, 0, 59, 80
1, 71448, Note_on_c, 0, 59, 0
1, 71460, Note_on_c, 0, 62, 80
1, 71472, Note_on_c, 0, 71, 0
1, 71508, Note_on_c, 0, 62, 0
1, 71520, Note_on_c, 0, 65, 80
1, 71580, Note_on_c, 0, 73, 80
1, 71616, Note_on_c, 0, 65, 0
1, 71628, Note_on_c, 0, 73, 0
1, 71640, Note_on_c, 0, 74, 80
1, 71688, Note_on_c, 0, 74, 0
1, 71700, Note_on_c, 0, 76, 80
1, 71745, Note_on_c, 0, 79, 80
1, 71748, Note_on_c, 0, 76, 0
1, 71760, Note_on_c, 0, 79, 0
1, 71760, Note_on_c, 0, 77, 80
1, 71856, Note_on_c, 0, 77, 0
1, 71880, Note_on_c, 0, 76, 80
1, 71928, Note_on_c, 0, 76, 0
1, 71940, Note_on_c, 0, 74, 80
1, 71988, Note_on_c, 0, 74, 0
1, 72000, Note_on_c, 0, 52, 80
1, 72000, Note_on_c, 0, 72, 80
1, 72048, Note_on_c, 0, 52, 0
1, 72060, Note_on_c, 0, 55, 80
1, 72108, Note_on_c, 0, 55, 0
1, 72120, Note_on_c, 0, 60, 80
1, 72168, Note_on_c, 0, 60, 0
1, 72180, Note_on_c, 0, 64, 80
1, 72192, Note_on_c, 0, 72, 0
1, 72228, Note_on_c, 0, 64, 0
1, 72240, Note_on_c, 0, 67, 80
1, 72300, Note_on_c, 0, 75, 80
1, 72336, Note_on_c, 0, 67, 0
1, 72348, Note_on_c, 0, 75, 0
1, 72360, Note_on_c, 0, 76, 80
1, 72408, Note_on_c, 0, 76, 0
1, 72420, Note_on_c, 0, 77, 80
1, 72465, Note_on_c, 0, 81, 80
1, 72468, Note_on_c, 0, 77, 0
1, 72480, Note_on_c, 0, 81, 0
1, 72480, Note_on_c, 0, 79, 80
1, 72593, Note_on_c, 0, 79, 0
1, 72600, Note_on_c, 0, 77, 80
1, 72648, Note_on_c, 0, 77, 0
1, 72660, Note_on_c, 0, 76, 80
1, 72708, Note_on_c, 0, 76, 0
1, 72720, Note_on_c, 0, 69, 80
1, 72720, Note_on_c, 0, 73, 80
1, 72720, Note_on_c, 0, 65, 80
1, 72768, Note_on_c, 0, 73, 0
1, 72780, Note_on_c, 0, 74, 80
1, 72828, Note_on_c, 0, 74, 0
1, 72840, Note_on_c, 0, 77, 80
1, 72888, Note_on_c, 0, 77, 0
1, 72900, Note_on_c, 0, 76, 80
1, 72912, Note_on_c, 0, 65, 0
1, 72912, Note_on_c, 0, 69, 0
1, 72948, Note_on_c, 0, 76, 0
1, 72960, Note_on_c, 0, 69, 80
1, 72960, Note_on_c, 0, 65, 80
1, 72960, Note_on_c, 0, 73, 80
1, 73008, Note_on_c, 0, 73, 0
1, 73020, Note_on_c, 0, 74, 80
1, 73068, Note_on_c, 0, 74, 0
1, 73080, Note_on_c, 0, 77, 80
1, 73128, Note_on_c, 0, 77, 0
1, 73140, Note_on_c, 0, 76, 80
1, 73152, Note_on_c, 0, 65, 0
1, 73152, Note_on_c, 0, 69, 0
1, 73185, Note_on_c, 0, 79, 80
1, 73188, Note_on_c, 0, 76, 0
1, 73200, Note_on_c, 0, 79, 0
1, 73200, Note_on_c, 0, 65, 80
1, 73200, Note_on_c, 0, 69, 80
1, 73200, Note_on_c, 0, 77, 80
1, 73296, Note_on_c, 0, 77, 0
1, 73320, Note_on_c, 0, 76, 80
1, 73368, Note_on_c, 0, 76, 0
1, 73380, Note_on_c, 0, 74, 80
1, 73392, Note_on_c, 0, 69, 0
1, 73392, Note_on_c, 0, 65, 0
1, 73428, Note_on_c, 0, 74, 0
1, 73440, Note_on_c, 0, 65, 80
1, 73440, Note_on_c, 0, 81, 80
1, 73440, Note_on_c, 0, 69, 80
1, 73440, Note_on_c, 0, 72, 80
1, 73488, Note_on_c, 0, 81, 0
1, 73500, Note_on_c, 0, 77, 80
1, 73548, Note_on_c, 0, 77, 0
1, 73560, Note_on_c, 0, 76, 80
1, 73608, Note_on_c, 0, 76, 0
1, 73620, Note_on_c, 0, 74, 80
1, 73632, Note_on_c, 0, 72, 0
1, 73632, Note_on_c, 0, 69, 0
1, 73632, Note_on_c, 0, 65, 0
1, 73657, Note_on_c, 0, 72, 80
1, 73657, Note_on_c, 0, 74, 80
1, 73665, Note_on_c, 0, 74, 0
1, 73665, Note_on_c, 0, 72, 0
1, 73665, Note_on_c, 0, 76, 80
1, 73668, Note_on_c, 0, 74, 0
1, 73673, Note_on_c, 0, 76, 0
1, 73680, Note_on_c, 0, 72, 80
1, 73680, Note_on_c, 0, 67, 80
1, 73695, Note_on_c, 0, 74, 80
1, 73719, Note_on_c, 0, 74, 0
1, 73725, Note_on_c, 0, 76, 80
1, 73749, Note_on_c, 0, 76, 0
1, 73755, Note_on_c, 0, 74, 80
1, 73779, Note_on_c, 0, 74, 0
1, 73785, Note_on_c, 0, 76, 80
1, 73809, Note_on_c, 0, 76, 0
1, 73815, Note_on_c, 0, 74, 80
1, 73839, Note_on_c, 0, 74, 0
1, 73845, Note_on_c, 0, 76, 80
1, 73869, Note_on_c, 0, 76, 0
1, 73872, Note_on_c, 0, 67, 0
1, 73872, Note_on_c, 0, 72, 0
1, 73875, Note_on_c, 0, 74, 80
1, 73899, Note_on_c, 0, 74, 0
1, 73905, Note_on_c, 0, 76, 80
1, 73920, Note_on_c, 0, 71, 80
1, 73929, Note_on_c, 0, 76, 0
1, 73935, Note_on_c, 0, 74, 80
1, 73959, Note_on_c, 0, 74, 0
1, 73965, Note_on_c, 0, 76, 80
1, 73989, Note_on_c, 0, 76, 0
1, 73995, Note_on_c, 0, 74, 80
1, 74019, Note_on_c, 0, 74, 0
1, 74025, Note_on_c, 0, 76, 80
1, 74049, Note_on_c, 0, 76, 0
1, 74055, Note_on_c, 0, 74, 80
1, 74079, Note_on_c, 0, 74, 0
1, 74085, Note_on_c, 0, 76, 80
1, 74109, Note_on_c, 0, 76, 0
1, 74112, Note_on_c, 0, 71, 0
1, 74115, Note_on_c, 0, 74, 80
1, 74139, Note_on_c, 0, 74, 0
1, 74145, Note_on_c, 0, 76, 80
1, 74160, Note_on_c, 0, 67, 80
1, 74160, Note_on_c, 0, 72, 80
1, 74160, Note_on_c, 0, 36, 80
1, 74160, Note_on_c, 0, 64, 80
1, 74169, Note_on_c, 0, 76, 0
1, 74208, Note_on_c, 0, 36, 0
1, 74220, Note_on_c, 0, 40, 80
1, 74268, Note_on_c, 0, 40, 0
1, 74280, Note_on_c, 0, 43, 80
1, 74328, Note_on_c, 0, 43, 0
1, 74340, Note_on_c, 0, 48, 80
1, 74352, Note_on_c, 0, 64, 0
1, 74352, Note_on_c, 0, 72, 0
1, 74352, Note_on_c, 0, 67, 0
1, 74388, Note_on_c, 0, 48, 0
1, 74400, Note_on_c, 0, 52, 80
1, 74460, Note_on_c, 0, 59, 80
1, 74496, Note_on_c, 0, 52, 0
1, 74508, Note_on_c, 0, 59, 0
1, 74520, Note_on_c, 0, 60, 80
1, 74568, Note_on_c, 0, 60, 0
1, 74580, Note_on_c, 0, 62, 80
1, 74625, Note_on_c, 0, 65, 80
1, 74628, Note_on_c, 0, 62, 0
1, 74640, Note_on_c, 0, 65, 0
1, 74640, Note_on_c, 0, 64, 80
1, 74736, Note_on_c, 0, 64, 0
1, 74760, Note_on_c, 0, 62, 80
1, 74808, Note_on_c, 0, 62, 0
1, 74820, Note_on_c, 0, 60, 80
1, 74868, Note_on_c, 0, 60, 0
1, 74880, Note_on_c, 0, 38, 80
1, 74880, Note_on_c, 0, 59, 80
1, 74928, Note_on_c, 0, 38, 0
1, 74940, Note_on_c, 0, 41, 80
1, 74988, Note_on_c, 0, 41, 0
1, 75000, Note_on_c, 0, 47, 80
1, 75048, Note_on_c, 0, 47, 0
1, 75060, Note_on_c, 0, 50, 80
1, 75072, Note_on_c, 0, 59, 0
1, 75108, Note_on_c, 0, 50, 0
1, 75120, Note_on_c, 0, 53, 80
1, 75180, Note_on_c, 0, 61, 80
1, 75216, Note_on_c, 0, 53, 0
1, 75228, Note_on_c, 0, 61, 0
1, 75240, Note_on_c, 0, 62, 80
1, 75288, Note_on_c, 0, 62, 0
1, 75300, Note_on_c, 0, 64, 80
1, 75345, Note_on_c, 0, 67, 80
1, 75348, Note_on_c, 0, 64, 0
1, 75360, Note_on_c, 0, 67, 0
1, 75360, Note_on_c, 0, 65, 80
1, 75456, Note_on_c, 0, 65, 0
1, 75480, Note_on_c, 0, 64, 80
1, 75528, Note_on_c, 0, 64, 0
1, 75540, Note_on_c, 0, 62, 80
1, 75588, Note_on_c, 0, 62, 0
1, 75600, Note_on_c, 0, 40, 80
1, 75600, Note_on_c, 0, 60, 80
1, 75648, Note_on_c, 0, 40, 0
1, 75660, Note_on_c, 0, 43, 80
1, 75708, Note_on_c, 0, 43, 0
1, 75720, Note_on_c, 0, 48, 80
1, 75768, Note_on_c, 0, 48, 0
1, 75780, Note_on_c, 0, 52, 80
1, 75792, Note_on_c, 0, 60, 0
1, 75828, Note_on_c, 0, 52, 0
1, 75840, Note_on_c, 0, 55, 80
1, 75900, Note_on_c, 0, 63, 80
1, 75936, Note_on_c, 0, 55, 0
1, 75948, Note_on_c, 0, 63, 0
1, 75960, Note_on_c, 0, 64, 80
1, 76008, Note_on_c, 0, 64, 0
1, 76020, Note_on_c, 0, 65, 80
1, 76065, Note_on_c, 0, 69, 80
1, 76068, Note_on_c, 0, 65, 0
1, 76080, Note_on_c, 0, 69, 0
1, 76080, Note_on_c, 0, 67, 80
1, 76176, Note_on_c, 0, 67, 0
1, 76200, Note_on_c, 0, 65, 80
1, 76248, Note_on_c, 0, 65, 0
1, 76260, Note_on_c, 0, 64, 80
1, 76308, Note_on_c, 0, 64, 0
1, 76320, Note_on_c, 0, 41, 80
1, 76320, Note_on_c, 0, 62, 80
1, 76368, Note_on_c, 0, 41, 0
1, 76380, Note_on_c, 0, 45, 80
1, 76428, Note_on_c, 0, 45, 0
1, 76440, Note_on_c, 0, 50, 80
1, 76488, Note_on_c, 0, 50, 0
1, 76500, Note_on_c, 0, 53, 80
1, 76512, Note_on_c, 0, 62, 0
1, 76548, Note_on_c, 0, 53, 0
1, 76560, Note_on_c, 0, 57, 80
1, 76620, Note_on_c, 0, 62, 80
1, 76656, Note_on_c, 0, 57, 0
1, 76668, Note_on_c, 0, 62, 0
1, 76680, Note_on_c, 0, 65, 80
1, 76728, Note_on_c, 0, 65, 0
1, 76740, Note_on_c, 0, 69, 80
1, 76788, Note_on_c, 0, 69, 0
1, 76800, Note_on_c, 0, 74, 80
1, 76860, Note_on_c, 0, 53, 80
1, 76896, Note_on_c, 0, 74, 0
1, 76908, Note_on_c, 0, 53, 0
1, 76920, Note_on_c, 0, 57, 80
1, 76968, Note_on_c, 0, 57, 0
1, 76980, Note_on_c, 0, 62, 80
1, 77028, Note_on_c, 0, 62, 0
1, 77040, Note_on_c, 0, 65, 80
1, 77100, Note_on_c, 0, 69, 80
1, 77136, Note_on_c, 0, 65, 0
1, 77148, Note_on_c, 0, 69, 0
1, 77160, Note_on_c, 0, 74, 80
1, 77208, Note_on_c, 0, 74, 0
1, 77220, Note_on_c, 0, 77, 80
1, 77268, Note_on_c, 0, 77, 0
1, 77280, Note_on_c, 0, 81, 80
1, 77340, Note_on_c, 0, 65, 80
1, 77376, Note_on_c, 0, 81, 0
1, 77388, Note_on_c, 0, 65, 0
1, 77400, Note_on_c, 0, 69, 80
1, 77448, Note_on_c, 0, 69, 0
1, 77460, Note_on_c, 0, 74, 80
1, 77508, Note_on_c, 0, 74, 0
1, 77520, Note_on_c, 0, 77, 80
1, 77580, Note_on_c, 0, 83, 80
1, 77616, Note_on_c, 0, 77, 0
1, 77628, Note_on_c, 0, 83, 0
1, 77640, Note_on_c, 0, 84, 80
1, 77688, Note_on_c, 0, 84, 0
1, 77700, Note_on_c, 0, 80, 80
1, 77748, Note_on_c, 0, 80, 0
1, 77760, Note_on_c, 0, 81, 80
1, 77808, Note_on_c, 0, 81, 0
1, 77820, Note_on_c, 0, 76, 80
1, 77868, Note_on_c, 0, 76, 0
1, 77880, Note_on_c, 0, 77, 80
1, 77928, Note_on_c, 0, 77, 0
1, 77940, Note_on_c, 0, 74, 80
1, 77977, Note_on_c, 0, 74, 80
1, 77977, Note_on_c, 0, 72, 80
1, 77985, Note_on_c, 0, 72, 0
1, 77985, Note_on_c, 0, 74, 0
1, 77985, Note_on_c, 0, 76, 80
1, 77988, Note_on_c, 0, 74, 0
1, 77993, Note_on_c, 0, 76, 0
1, 78000, Note_on_c, 0, 55, 80
1, 78000, Note_on_c, 0, 60, 80
1, 78015, Note_on_c, 0, 74, 80
1, 78039, Note_on_c, 0, 74, 0
1, 78045, Note_on_c, 0, 76, 80
1, 78069, Note_on_c, 0, 76, 0
1, 78075, Note_on_c, 0, 74, 80
1, 78099, Note_on_c, 0, 74, 0
1, 78105, Note_on_c, 0, 76, 80
1, 78129, Note_on_c, 0, 76, 0
1, 78135, Note_on_c, 0, 74, 80
1, 78159, Note_on_c, 0, 74, 0
1, 78165, Note_on_c, 0, 76, 80
1, 78189, Note_on_c, 0, 76, 0
1, 78192, Note_on_c, 0, 60, 0
1, 78192, Note_on_c, 0, 55, 0
1, 78195, Note_on_c, 0, 74, 80
1, 78219, Note_on_c, 0, 74, 0
1, 78225, Note_on_c, 0, 76, 80
1, 78240, Note_on_c, 0, 59, 80
1, 78249, Note_on_c, 0, 76, 0
1, 78255, Note_on_c, 0, 74, 80
1, 78279, Note_on_c, 0, 74, 0
1, 78285, Note_on_c, 0, 76, 80
1, 78309, Note_on_c, 0, 76, 0
1, 78315, Note_on_c, 0, 74, 80
1, 78339, Note_on_c, 0, 74, 0
1, 78345, Note_on_c, 0, 76, 80
1, 78369, Note_on_c, 0, 76, 0
1, 78375, Note_on_c, 0, 74, 80
1, 78399, Note_on_c, 0, 74, 0
1, 78405, Note_on_c, 0, 76, 80
1, 78429, Note_on_c, 0, 76, 0
1, 78432, Note_on_c, 0, 59, 0
1, 78435, Note_on_c, 0, 74, 80
1, 78459, Note_on_c, 0, 74, 0
1, 78465, Note_on_c, 0, 76, 80
1, 78480, Note_on_c, 0, 60, 80
1, 78480, Note_on_c, 0, 72, 80
1, 78489, Note_on_c, 0, 76, 0
1, 78528, Note_on_c, 0, 60, 0
1, 78540, Note_on_c, 0, 67, 80
1, 78576, Note_on_c, 0, 72, 0
1, 78588, Note_on_c, 0, 67, 0
1, 78600, Note_on_c, 0, 64, 80
1, 78600, Note_on_c, 0, 76, 80
1, 78648, Note_on_c, 0, 64, 0
1, 78660, Note_on_c, 0, 67, 80
1, 78696, Note_on_c, 0, 76, 0
1, 78708, Note_on_c, 0, 67, 0
1, 78720, Note_on_c, 0, 79, 80
1, 78720, Note_on_c, 0, 60, 80
1, 78768, Note_on_c, 0, 60, 0
1, 78780, Note_on_c, 0, 67, 80
1, 78828, Note_on_c, 0, 67, 0
1, 78840, Note_on_c, 0, 64, 80
1, 78888, Note_on_c, 0, 64, 0
1, 78900, Note_on_c, 0, 67, 80
1, 78912, Note_on_c, 0, 79, 0
1, 78948, Note_on_c, 0, 67, 0
1, 78960, Note_on_c, 0, 55, 80
1, 78960, Note_on_c, 0, 83, 80
1, 78984, Note_on_c, 0, 83, 0
1, 78990, Note_on_c, 0, 84, 80
1, 79008, Note_on_c, 0, 55, 0
1, 79014, Note_on_c, 0, 84, 0
1, 79020, Note_on_c, 0, 65, 80
1, 79020, Note_on_c, 0, 83, 80
1, 79044, Note_on_c, 0, 83, 0
1, 79050, Note_on_c, 0, 84, 80
1, 79068, Note_on_c, 0, 65, 0
1, 79074, Note_on_c, 0, 84, 0
1, 79080, Note_on_c, 0, 62, 80
1, 79080, Note_on_c, 0, 83, 80
1, 79104, Note_on_c, 0, 83, 0
1, 79110, Note_on_c, 0, 84, 80
1, 79128, Note_on_c, 0, 62, 0
1, 79134, Note_on_c, 0, 84, 0
1, 79140, Note_on_c, 0, 65, 80
1, 79140, Note_on_c, 0, 81, 80
1, 79164, Note_on_c, 0, 81, 0
1, 79170, Note_on_c, 0, 83, 80
1, 79188, Note_on_c, 0, 65, 0
1, 79194, Note_on_c, 0, 83, 0
1, 79200, Note_on_c, 0, 84, 80
1, 79200, Note_on_c, 0, 60, 80
1, 79248, Note_on_c, 0, 60, 0
1, 79260, Note_on_c, 0, 67, 80
1, 79296, Note_on_c, 0, 84, 0
1, 79308, Note_on_c, 0, 67, 0
1, 79320, Note_on_c, 0, 76, 80
1, 79320, Note_on_c, 0, 64, 80
1, 79368, Note_on_c, 0, 64, 0
1, 79380, Note_on_c, 0, 67, 80
1, 79416, Note_on_c, 0, 76, 0
1, 79428, Note_on_c, 0, 67, 0
1, 79440, Note_on_c, 0, 79, 80
1, 79440, Note_on_c, 0, 60, 80
1, 79488, Note_on_c, 0, 60, 0
1, 79500, Note_on_c, 0, 67, 80
1, 79548, Note_on_c, 0, 67, 0
1, 79560, Note_on_c, 0, 64, 80
1, 79608, Note_on_c, 0, 64, 0
1, 79620, Note_on_c, 0, 67, 80
1, 79632, Note_on_c, 0, 79, 0
1, 79668, Note_on_c, 0, 67, 0
1, 79680, Note_on_c, 0, 55, 80
1, 79680, Note_on_c, 0, 83, 80
1, 79704, Note_on_c, 0, 83, 0
1, 79710, Note_on_c, 0, 84, 80
1, 79728, Note_on_c, 0, 55, 0
1, 79734, Note_on_c, 0, 84, 0
1, 79740, Note_on_c, 0, 65, 80
1, 79740, Note_on_c, 0, 83, 80
1, 79764, Note_on_c, 0, 83, 0
1, 79770, Note_on_c, 0, 84, 80
1, 79788, Note_on_c, 0, 65, 0
1, 79794, Note_on_c, 0, 84, 0
1, 79800, Note_on_c, 0, 62, 80
1, 79800, Note_on_c, 0, 83, 80
1, 79824, Note_on_c, 0, 83, 0
1, 79830, Note_on_c, 0, 84, 80
1, 79848, Note_on_c, 0, 62, 0
1, 79854, Note_on_c, 0, 84, 0
1, 79860, Note_on_c, 0, 65, 80
1, 79860, Note_on_c, 0, 81, 80
1, 79884, Note_on_c, 0, 81, 0
1, 79890, Note_on_c, 0, 83, 80
1, 79908, Note_on_c, 0, 65, 0
1, 79914, Note_on_c, 0, 83, 0
1, 79920, Note_on_c, 0, 84, 80
1, 79920, Note_on_c, 0, 60, 80
1, 79920, Note_on_c, 0, 64, 80
1, 80112, Note_on_c, 0, 64, 0
1, 80112, Note_on_c, 0, 60, 0
1, 80112, Note_on_c, 0, 84, 0
1, 80160, Note_on_c, 0, 48, 80
1, 80160, Note_on_c, 0, 52, 80
1, 80160, Note_on_c, 0, 55, 80
1, 80160, Note_on_c, 0, 72, 80
1, 80160, Note_on_c, 0, 67, 80
1, 80160, Note_on_c, 0, 64, 80
1, 80352, Note_on_c, 0, 64, 0
1, 80352, Note_on_c, 0, 67, 0
1, 80352, Note_on_c, 0, 72, 0
1, 80352, Note_on_c, 0, 55, 0
1, 80352, Note_on_c, 0, 52, 0
1, 80352, Note_on_c, 0, 48, 0
1, 80640, Note_on_c, 0, 76, 80
1, 80640, Note_on_c, 0, 79, 80
1, 80720, Note_on_c, 0, 48, 80
1, 80784, Note_on_c, 0, 48, 0
1, 80800, Note_on_c, 0, 47, 80
1, 80832, Note_on_c, 0, 79, 0
1, 80832, Note_on_c, 0, 76, 0
1, 80864, Note_on_c, 0, 47, 0
1, 80880, Note_on_c, 0, 48, 80
1, 80944, Note_on_c, 0, 48, 0
1, 80960, Note_on_c, 0, 52, 80
1, 81024, Note_on_c, 0, 52, 0
1, 81040, Note_on_c, 0, 51, 80
1, 81104, Note_on_c, 0, 51, 0
1, 81120, Note_on_c, 0, 52, 80
1, 81184, Note_on_c, 0, 52, 0
1, 81200, Note_on_c, 0, 55, 80
1, 81264, Note_on_c, 0, 55, 0
1, 81280, Note_on_c, 0, 54, 80
1, 81344, Note_on_c, 0, 54, 0
1, 81360, Note_on_c, 0, 55, 80
1, 81552, Note_on_c, 0, 55, 0
1, 81600, Note_on_c, 0, 79, 80
1, 81600, Note_on_c, 0, 76, 80
1, 81744, Note_on_c, 0, 76, 0
1, 81744, Note_on_c, 0, 79, 0
1, 81780, Note_on_c, 0, 73, 80
1, 81780, Note_on_c, 0, 76, 80
1, 81828, Note_on_c, 0, 76, 0
1, 81828, Note_on_c, 0, 73, 0
1, 81840, Note_on_c, 0, 76, 80
1, 81840, Note_on_c, 0, 79, 80
1, 81984, Note_on_c, 0, 79, 0
1, 81984, Note_on_c, 0, 76, 0
1, 82020, Note_on_c, 0, 76, 80
1, 82020, Note_on_c, 0, 73, 80
1, 82068, Note_on_c, 0, 73, 0
1, 82068, Note_on_c, 0, 76, 0
1, 82080, Note_on_c, 0, 74, 80
1, 82080, Note_on_c, 0, 77, 80
1, 82160, Note_on_c, 0, 55, 80
1, 82224, Note_on_c, 0, 55, 0
1, 82240, Note_on_c, 0, 54, 80
1, 82272, Note_on_c, 0, 77, 0
1, 82272, Note_on_c, 0, 74, 0
1, 82304, Note_on_c, 0, 54, 0
1, 82320, Note_on_c, 0, 55, 80
1, 82384, Note_on_c, 0, 55, 0
1, 82400, Note_on_c, 0, 59, 80
1, 82464, Note_on_c, 0, 59, 0
1, 82480, Note_on_c, 0, 58, 80
1, 82544, Note_on_c, 0, 58, 0
1, 82560, Note_on_c, 0, 59, 80
1, 82624, Note_on_c, 0, 59, 0
1, 82640, Note_on_c, 0, 62, 80
1, 82704, Note_on_c, 0, 62, 0
1, 82720, Note_on_c, 0, 61, 80
1, 82784, Note_on_c, 0, 61, 0
1, 82800, Note_on_c, 0, 62, 80
1, 82992, Note_on_c, 0, 62, 0
1, 83040, Note_on_c, 0, 74, 80
1, 83040, Note_on_c, 0, 65, 80
1, 83184, Note_on_c, 0, 65, 0
1, 83184, Note_on_c, 0, 74, 0
1, 83220, Note_on_c, 0, 62, 80
1, 83220, Note_on_c, 0, 71, 80
1, 83268, Note_on_c, 0, 71, 0
1, 83268, Note_on_c, 0, 62, 0
1, 83280, Note_on_c, 0, 65, 80
1, 83280, Note_on_c, 0, 74, 80
1, 83424, Note_on_c, 0, 74, 0
1, 83424, Note_on_c, 0, 65, 0
1, 83460, Note_on_c, 0, 71, 80
1, 83460, Note_on_c, 0, 62, 80
1, 83508, Note_on_c, 0, 62, 0
1, 83508, Note_on_c, 0, 71, 0
1, 83520, Note_on_c, 0, 64, 80
1, 83520, Note_on_c, 0, 72, 80
1, 83528, Note_on_c, 0, 64, 0
1, 83528, Note_on_c, 0, 67, 80
1, 83536, Note_on_c, 0, 67, 0
1, 83760, Note_on_c, 0, 60, 80
1, 83904, Note_on_c, 0, 60, 0
1, 83940, Note_on_c, 0, 55, 80
1, 83988, Note_on_c, 0, 55, 0
1, 84000, Note_on_c, 0, 57, 80
1, 84096, Note_on_c, 0, 72, 0
1, 84144, Note_on_c, 0, 57, 0
1, 84180, Note_on_c, 0, 52, 80
1, 84228, Note_on_c, 0, 52, 0
1, 84240, Note_on_c, 0, 53, 80
1, 84240, Note_on_c, 0, 72, 80
1, 84432, Note_on_c, 0, 72, 0
1, 84480, Note_on_c, 0, 74, 80
1, 84624, Note_on_c, 0, 74, 0
1, 84660, Note_on_c, 0, 69, 80
1, 84708, Note_on_c, 0, 69, 0
1, 84720, Note_on_c, 0, 71, 80
1, 84816, Note_on_c, 0, 53, 0
1, 84864, Note_on_c, 0, 71, 0
1, 84900, Note_on_c, 0, 67, 80
1, 84948, Note_on_c, 0, 67, 0
1, 84960, Note_on_c, 0, 52, 80
1, 84960, Note_on_c, 0, 79, 80
1, 85152, Note_on_c, 0, 79, 0
1, 85152, Note_on_c, 0, 52, 0
1, 85200, Note_on_c, 0, 67, 80
1, 85200, Note_on_c, 0, 72, 80
1, 85200, Note_on_c, 0, 64, 80
1, 85344, Note_on_c, 0, 72, 0
1, 85380, Note_on_c, 0, 74, 80
1, 85392, Note_on_c, 0, 64, 0
1, 85392, Note_on_c, 0, 67, 0
1, 85428, Note_on_c, 0, 74, 0
1, 85440, Note_on_c, 0, 65, 80
1, 85440, Note_on_c, 0, 62, 80
1, 85440, Note_on_c, 0, 71, 80
1, 85584, Note_on_c, 0, 71, 0
1, 85620, Note_on_c, 0, 72, 80
1, 85632, Note_on_c, 0, 62, 0
1, 85632, Note_on_c, 0, 65, 0
1, 85668, Note_on_c, 0, 72, 0
1, 85680, Note_on_c, 0, 79, 80
1, 85680, Note_on_c, 0, 64, 80
1, 85680, Note_on_c, 0, 61, 80
1, 85680, Note_on_c, 0, 70, 80
1, 85872, Note_on_c, 0, 70, 0
1, 85872, Note_on_c, 0, 79, 0
1, 85920, Note_on_c, 0, 69, 80
1, 85920, Note_on_c, 0, 79, 80
1, 86064, Note_on_c, 0, 79, 0
1, 86064, Note_on_c, 0, 69, 0
1, 86064, Note_on_c, 0, 61, 0
1, 86064, Note_on_c, 0, 64, 0
1, 86100, Note_on_c, 0, 76, 80
1, 86148, Note_on_c, 0, 76, 0
1, 86160, Note_on_c, 0, 79, 80
1, 86304, Note_on_c, 0, 79, 0
1, 86340, Note_on_c, 0, 76, 80
1, 86388, Note_on_c, 0, 76, 0
1, 86400, Note_on_c, 0, 79, 80
1, 86592, Note_on_c, 0, 79, 0
1, 86640, Note_on_c, 0, 67, 80
1, 86640, Note_on_c, 0, 72, 80
1, 86640, Note_on_c, 0, 64, 80
1, 86784, Note_on_c, 0, 72, 0
1, 86820, Note_on_c, 0, 74, 80
1, 86832, Note_on_c, 0, 64, 0
1, 86832, Note_on_c, 0, 67, 0
1, 86868, Note_on_c, 0, 74, 0
1, 86880, Note_on_c, 0, 65, 80
1, 86880, Note_on_c, 0, 62, 80
1, 86880, Note_on_c, 0, 71, 80
1, 87024, Note_on_c, 0, 71, 0
1, 87060, Note_on_c, 0, 72, 80
1, 87072, Note_on_c, 0, 62, 0
1, 87072, Note_on_c, 0, 65, 0
1, 87108, Note_on_c, 0, 72, 0
1, 87120, Note_on_c, 0, 64, 80
1, 87120, Note_on_c, 0, 61, 80
1, 87120, Note_on_c, 0, 70, 80
1, 87120, Note_on_c, 0, 79, 80
1, 87312, Note_on_c, 0, 79, 0
1, 87312, Note_on_c, 0, 70, 0
1, 87360, Note_on_c, 0, 69, 80
1, 87504, Note_on_c, 0, 61, 0
1, 87504, Note_on_c, 0, 64, 0
1, 87552, Note_on_c, 0, 69, 0
1, 87840, Note_on_c, 0, 38, 80
1, 87840, Note_on_c, 0, 50, 80
1, 88032, Note_on_c, 0, 50, 0
1, 88032, Note_on_c, 0, 38, 0
1, 88080, Note_on_c, 0, 41, 80
1, 88080, Note_on_c, 0, 53, 80
1, 88272, Note_on_c, 0, 53, 0
1, 88272, Note_on_c, 0, 41, 0
1, 88320, Note_on_c, 0, 45, 80
1, 88320, Note_on_c, 0, 57, 80
1, 88512, Note_on_c, 0, 57, 0
1, 88512, Note_on_c, 0, 45, 0
1, 88560, Note_on_c, 0, 81, 80
1, 88608, Note_on_c, 0, 81, 0
1, 88620, Note_on_c, 0, 82, 80
1, 88668, Note_on_c, 0, 82, 0
1, 88680, Note_on_c, 0, 81, 80
1, 88728, Note_on_c, 0, 81, 0
1, 88740, Note_on_c, 0, 77, 80
1, 88788, Note_on_c, 0, 77, 0
1, 88800, Note_on_c, 0, 79, 80
1, 88848, Note_on_c, 0, 79, 0
1, 88860, Note_on_c, 0, 81, 80
1, 88908, Note_on_c, 0, 81, 0
1, 88920, Note_on_c, 0, 79, 80
1, 88968, Note_on_c, 0, 79, 0
1, 88980, Note_on_c, 0, 76, 80
1, 89028, Note_on_c, 0, 76, 0
1, 89040, Note_on_c, 0, 77, 80
1, 89088, Note_on_c, 0, 77, 0
1, 89100, Note_on_c, 0, 79, 80
1, 89148, Note_on_c, 0, 79, 0
1, 89160, Note_on_c, 0, 77, 80
1, 89208, Note_on_c, 0, 77, 0
1, 89220, Note_on_c, 0, 74, 80
1, 89268, Note_on_c, 0, 74, 0
1, 89280, Note_on_c, 0, 31, 80
1, 89280, Note_on_c, 0, 43, 80
1, 89280, Note_on_c, 0, 74, 80
1, 89280, Note_on_c, 0, 70, 80
1, 89280, Note_on_c, 0, 82, 80
1, 89280, Note_on_c, 0, 79, 80
1, 89472, Note_on_c, 0, 79, 0
1, 89472, Note_on_c, 0, 82, 0
1, 89472, Note_on_c, 0, 70, 0
1, 89472, Note_on_c, 0, 74, 0
1, 89472, Note_on_c, 0, 43, 0
1, 89472, Note_on_c, 0, 31, 0
1, 89520, Note_on_c, 0, 34, 80
1, 89520, Note_on_c, 0, 46, 80
1, 89712, Note_on_c, 0, 46, 0
1, 89712, Note_on_c, 0, 34, 0
1, 89760, Note_on_c, 0, 38, 80
1, 89760, Note_on_c, 0, 50, 80
1, 89952, Note_on_c, 0, 50, 0
1, 89952, Note_on_c, 0, 38, 0
1, 90000, Note_on_c, 0, 74, 80
1, 90048, Note_on_c, 0, 74, 0
1, 90060, Note_on_c, 0, 75, 80
1, 90108, Note_on_c, 0, 75, 0
1, 90120, Note_on_c, 0, 74, 80
1, 90168, Note_on_c, 0, 74, 0
1, 90180, Note_on_c, 0, 70, 80
1, 90228, Note_on_c, 0, 70, 0
1, 90240, Note_on_c, 0, 72, 80
1, 90288, Note_on_c, 0, 72, 0
1, 90300, Note_on_c, 0, 74, 80
1, 90348, Note_on_c, 0, 74, 0
1, 90360, Note_on_c, 0, 72, 80
1, 90408, Note_on_c, 0, 72, 0
1, 90420, Note_on_c, 0, 69, 80
1, 90468, Note_on_c, 0, 69, 0
1, 90480, Note_on_c, 0, 70, 80
1, 90528, Note_on_c, 0, 70, 0
1, 90540, Note_on_c, 0, 72, 80
1, 90588, Note_on_c, 0, 72, 0
1, 90600, Note_on_c, 0, 70, 80
1, 90648, Note_on_c, 0, 70, 0
1, 90660, Note_on_c, 0, 67, 80
1, 90708, Note_on_c, 0, 67, 0
1, 90720, Note_on_c, 0, 36, 80
1, 90720, Note_on_c, 0, 48, 80
1, 90720, Note_on_c, 0, 76, 80
1, 90720, Note_on_c, 0, 72, 80
1, 90720, Note_on_c, 0, 67, 80
1, 90720, Note_on_c, 0, 64, 80
1, 90912, Note_on_c, 0, 64, 0
1, 90912, Note_on_c, 0, 67, 0
1, 90912, Note_on_c, 0, 72, 0
1, 90912, Note_on_c, 0, 76, 0
1, 90912, Note_on_c, 0, 48, 0
1, 90912, Note_on_c, 0, 36, 0
1, 90960, Note_on_c, 0, 40, 80
1, 90960, Note_on_c, 0, 52, 80
1, 91152, Note_on_c, 0, 52, 0
1, 91152, Note_on_c, 0, 40, 0
1, 91200, Note_on_c, 0, 43, 80
1, 91200, Note_on_c, 0, 55, 80
1, 91392, Note_on_c, 0, 55, 0
1, 91392, Note_on_c, 0, 43, 0
1, 91440, Note_on_c, 0, 79, 80
1, 91488, Note_on_c, 0, 79, 0
1, 91500, Note_on_c, 0, 81, 80
1, 91548, Note_on_c, 0, 81, 0
1, 91560, Note_on_c, 0, 79, 80
1, 91608, Note_on_c, 0, 79, 0
1, 91620, Note_on_c, 0, 76, 80
1, 91668, Note_on_c, 0, 76, 0
1, 91680, Note_on_c, 0, 77, 80
1, 91728, Note_on_c, 0, 77, 0
1, 91740, Note_on_c, 0, 79, 80
1, 91788, Note_on_c, 0, 79, 0
1, 91800, Note_on_c, 0, 77, 80
1, 91848, Note_on_c, 0, 77, 0
1, 91860, Note_on_c, 0, 74, 80
1, 91908, Note_on_c, 0, 74, 0
1, 91920, Note_on_c, 0, 76, 80
1, 91968, Note_on_c, 0, 76, 0
1, 91980, Note_on_c, 0, 77, 80
1, 92028, Note_on_c, 0, 77, 0
1, 92040, Note_on_c, 0, 76, 80
1, 92088, Note_on_c, 0, 76, 0
1, 92100, Note_on_c, 0, 72, 80
1, 92148, Note_on_c, 0, 72, 0
1, 92160, Note_on_c, 0, 29, 80
1, 92160, Note_on_c, 0, 41, 80
1, 92160, Note_on_c, 0, 81, 80
1, 92160, Note_on_c, 0, 77, 80
1, 92160, Note_on_c, 0, 72, 80
1, 92160, Note_on_c, 0, 69, 80
1, 92352, Note_on_c, 0, 69, 0
1, 92352, Note_on_c, 0, 72, 0
1, 92352, Note_on_c, 0, 77, 0
1, 92352, Note_on_c, 0, 81, 0
1, 92352, Note_on_c, 0, 41, 0
1, 92352, Note_on_c, 0, 29, 0
1, 92400, Note_on_c, 0, 33, 80
1, 92400, Note_on_c, 0, 45, 80
1, 92592, Note_on_c, 0, 45, 0
1, 92592, Note_on_c, 0, 33, 0
1, 92640, Note_on_c, 0, 36, 80
1, 92640, Note_on_c, 0, 48, 80
1, 92832, Note_on_c, 0, 48, 0
1, 92832, Note_on_c, 0, 36, 0
1, 92880, Note_on_c, 0, 72, 80
1, 92928, Note_on_c, 0, 72, 0
1, 92940, Note_on_c, 0, 74, 80
1, 92988, Note_on_c, 0, 74, 0
1, 93000, Note_on_c, 0, 72, 80
1, 93048, Note_on_c, 0, 72, 0
1, 93060, Note_on_c, 0, 69, 80
1, 93108, Note_on_c, 0, 69, 0
1, 93120, Note_on_c, 0, 70, 80
1, 93168, Note_on_c, 0, 70, 0
1, 93180, Note_on_c, 0, 72, 80
1, 93228, Note_on_c, 0, 72, 0
1, 93240, Note_on_c, 0, 70, 80
1, 93288, Note_on_c, 0, 70, 0
1, 93300, Note_on_c, 0, 67, 80
1, 93348, Note_on_c, 0, 67, 0
1, 93360, Note_on_c, 0, 69, 80
1, 93408, Note_on_c, 0, 69, 0
1, 93420, Note_on_c, 0, 70, 80
1, 93468, Note_on_c, 0, 70, 0
1, 93480, Note_on_c, 0, 69, 80
1, 93528, Note_on_c, 0, 69, 0
1, 93540, Note_on_c, 0, 65, 80
1, 93588, Note_on_c, 0, 65, 0
1, 93600, Note_on_c, 0, 46, 80
1, 93600, Note_on_c, 0, 58, 80
1, 93600, Note_on_c, 0, 86, 80
1, 93600, Note_on_c, 0, 80, 80
1, 93600, Note_on_c, 0, 77, 80
1, 93600, Note_on_c, 0, 74, 80
1, 93792, Note_on_c, 0, 74, 0
1, 93792, Note_on_c, 0, 77, 0
1, 93792, Note_on_c, 0, 80, 0
1, 93792, Note_on_c, 0, 86, 0
1, 93792, Note_on_c, 0, 58, 0
1, 93792, Note_on_c, 0, 46, 0
1, 93840, Note_on_c, 0, 61, 80
1, 93840, Note_on_c, 0, 64, 80
1, 94032, Note_on_c, 0, 64, 0
1, 94032, Note_on_c, 0, 61, 0
1, 94080, Note_on_c, 0, 62, 80
1, 94080, Note_on_c, 0, 65, 80
1, 94272, Note_on_c, 0, 65, 0
1, 94272, Note_on_c, 0, 62, 0
1, 94320, Note_on_c, 0, 45, 80
1, 94320, Note_on_c, 0, 57, 80
1, 94320, Note_on_c, 0, 86, 80
1, 94320, Note_on_c, 0, 81, 80
1, 94320, Note_on_c, 0, 77, 80
1, 94320, Note_on_c, 0, 74, 80
1, 94512, Note_on_c, 0, 74, 0
1, 94512, Note_on_c, 0, 77, 0
1, 94512, Note_on_c, 0, 81, 0
1, 94512, Note_on_c, 0, 86, 0
1, 94512, Note_on_c, 0, 57, 0
1, 94512, Note_on_c, 0, 45, 0
1, 94560, Note_on_c, 0, 61, 80
1, 94560, Note_on_c, 0, 64, 80
1, 94752, Note_on_c, 0, 64, 0
1, 94752, Note_on_c, 0, 61, 0
1, 94800, Note_on_c, 0, 62, 80
1, 94800, Note_on_c, 0, 65, 80
1, 94992, Note_on_c, 0, 65, 0
1, 94992, Note_on_c, 0, 62, 0
1, 95040, Note_on_c, 0, 44, 80
1, 95040, Note_on_c, 0, 56, 80
1, 95040, Note_on_c, 0, 86, 80
1, 95040, Note_on_c, 0, 83, 80
1, 95040, Note_on_c, 0, 77, 80
1, 95040, Note_on_c, 0, 74, 80
1, 95232, Note_on_c, 0, 74, 0
1, 95232, Note_on_c, 0, 77, 0
1, 95232, Note_on_c, 0, 83, 0
1, 95232, Note_on_c, 0, 86, 0
1, 95232, Note_on_c, 0, 56, 0
1, 95232, Note_on_c, 0, 44, 0
1, 95280, Note_on_c, 0, 61, 80
1, 95280, Note_on_c, 0, 64, 80
1, 95472, Note_on_c, 0, 64, 0
1, 95472, Note_on_c, 0, 61, 0
1, 95520, Note_on_c, 0, 62, 80
1, 95520, Note_on_c, 0, 65, 80
1, 95712, Note_on_c, 0, 65, 0
1, 95712, Note_on_c, 0, 62, 0
1, 95760, Note_on_c, 0, 57, 80
1, 95760, Note_on_c, 0, 61, 80
1, 95760, Note_on_c, 0, 45, 80
1, 95824, Note_on_c, 0, 61, 0
1, 95840, Note_on_c, 0, 69, 80
1, 95904, Note_on_c, 0, 69, 0
1, 95920, Note_on_c, 0, 64, 80
1, 95984, Note_on_c, 0, 64, 0
1, 96000, Note_on_c, 0, 62, 80
1, 96064, Note_on_c, 0, 62, 0
1, 96080, Note_on_c, 0, 70, 80
1, 96144, Note_on_c, 0, 70, 0
1, 96160, Note_on_c, 0, 65, 80
1, 96224, Note_on_c, 0, 65, 0
1, 96240, Note_on_c, 0, 62, 80
1, 96304, Note_on_c, 0, 62, 0
1, 96320, Note_on_c, 0, 68, 80
1, 96384, Note_on_c, 0, 68, 0
1, 96400, Note_on_c, 0, 65, 80
1, 96464, Note_on_c, 0, 65, 0
1, 96480, Note_on_c, 0, 61, 80
1, 96544, Note_on_c, 0, 61, 0
1, 96560, Note_on_c, 0, 69, 80
1, 96624, Note_on_c, 0, 69, 0
1, 96640, Note_on_c, 0, 64, 80
1, 96704, Note_on_c, 0, 64, 0
1, 96720, Note_on_c, 0, 62, 80
1, 96784, Note_on_c, 0, 62, 0
1, 96800, Note_on_c, 0, 70, 80
1, 96864, Note_on_c, 0, 70, 0
1, 96880, Note_on_c, 0, 65, 80
1, 96944, Note_on_c, 0, 65, 0
1, 96960, Note_on_c, 0, 62, 80
1, 97024, Note_on_c, 0, 62, 0
1, 97040, Note_on_c, 0, 68, 80
1, 97056, Note_on_c, 0, 45, 0
1, 97056, Note_on_c, 0, 57, 0
1, 97104, Note_on_c, 0, 68, 0
1, 97120, Note_on_c, 0, 65, 80
1, 97184, Note_on_c, 0, 65, 0
1, 97200, Note_on_c, 0, 61, 80
1, 97200, Note_on_c, 0, 64, 80
1, 97200, Note_on_c, 0, 57, 80
1, 97392, Note_on_c, 0, 57, 0
1, 97392, Note_on_c, 0, 64, 0
1, 97392, Note_on_c, 0, 61, 0
1, 97440, Note_on_c, 0, 70, 80
1, 97536, Note_on_c, 0, 70, 0
1, 97560, Note_on_c, 0, 69, 80
1, 97656, Note_on_c, 0, 69, 0
1, 97680, Note_on_c, 0, 69, 80
1, 97872, Note_on_c, 0, 69, 0
1, 97920, Note_on_c, 0, 65, 80
1, 97920, Note_on_c, 0, 56, 80
1, 97920, Note_on_c, 0, 62, 80
1, 98112, Note_on_c, 0, 62, 0
1, 98112, Note_on_c, 0, 56, 0
1, 98112, Note_on_c, 0, 65, 0
1, 98160, Note_on_c, 0, 72, 80
1, 98256, Note_on_c, 0, 72, 0
1, 98280, Note_on_c, 0, 71, 80
1, 98376, Note_on_c, 0, 71, 0
1, 98400, Note_on_c, 0, 71, 80
1, 98592, Note_on_c, 0, 71, 0
1, 98640, Note_on_c, 0, 55, 80
1, 98640, Note_on_c, 0, 64, 80
1, 98640, Note_on_c, 0, 60, 80
1, 98832, Note_on_c, 0, 60, 0
1, 98832, Note_on_c, 0, 64, 0
1, 98832, Note_on_c, 0, 55, 0
1, 98880, Note_on_c, 0, 72, 80
1, 98976, Note_on_c, 0, 72, 0
1, 99000, Note_on_c, 0, 70, 80
1, 99096, Note_on_c, 0, 70, 0
1, 99120, Note_on_c, 0, 70, 80
1, 99312, Note_on_c, 0, 70, 0
1, 99360, Note_on_c, 0, 41, 80
1, 99360, Note_on_c, 0, 53, 80
1, 99360, Note_on_c, 0, 72, 80
1, 99360, Note_on_c, 0, 69, 80
1, 99360, Note_on_c, 0, 65, 80
1, 99360, Note_on_c, 0, 60, 80
1, 99552, Note_on_c, 0, 60, 0
1, 99552, Note_on_c, 0, 65, 0
1, 99552, Note_on_c, 0, 69, 0
1, 99552, Note_on_c, 0, 72, 0
1, 99552, Note_on_c, 0, 53, 0
1, 99552, Note_on_c, 0, 41, 0
1, 99600, Note_on_c, 0, 48, 80
1, 99600, Note_on_c, 0, 72, 80
1, 99600, Note_on_c, 0, 69, 80
1, 99792, Note_on_c, 0, 69, 0
1, 99792, Note_on_c, 0, 72, 0
1, 99792, Note_on_c, 0, 48, 0
1, 99840, Note_on_c, 0, 45, 80
1, 99840, Note_on_c, 0, 72, 80
1, 99840, Note_on_c, 0, 69, 80
1, 100032, Note_on_c, 0, 69, 0
1, 100032, Note_on_c, 0, 72, 0
1, 100032, Note_on_c, 0, 45, 0
1, 100080, Note_on_c, 0, 41, 80
1, 100080, Note_on_c, 0, 69, 80
1, 100080, Note_on_c, 0, 72, 80
1, 100272, Note_on_c, 0, 41, 0
1, 100320, Note_on_c, 0, 29, 80
1, 100368, Note_on_c, 0, 72, 0
1, 100368, Note_on_c, 0, 69, 0
1, 100440, Note_on_c, 0, 74, 80
1, 100488, Note_on_c, 0, 74, 0
1, 100500, Note_on_c, 0, 72, 80
1, 100512, Note_on_c, 0, 29, 0
1, 100548, Note_on_c, 0, 72, 0
1, 100560, Note_on_c, 0, 71, 80
1, 100584, Note_on_c, 0, 71, 0
1, 100590, Note_on_c, 0, 72, 80
1, 100614, Note_on_c, 0, 72, 0
1, 100620, Note_on_c, 0, 69, 80
1, 100668, Note_on_c, 0, 69, 0
1, 100680, Note_on_c, 0, 67, 80
1, 100728, Note_on_c, 0, 67, 0
1, 100740, Note_on_c, 0, 65, 80
1, 100788, Note_on_c, 0, 65, 0
1, 100800, Note_on_c, 0, 57, 80
1, 100800, Note_on_c, 0, 77, 80
1, 100800, Note_on_c, 0, 53, 80
1, 100896, Note_on_c, 0, 53, 0
1, 100896, Note_on_c, 0, 57, 0
1, 100920, Note_on_c, 0, 53, 80
1, 100920, Note_on_c, 0, 57, 80
1, 100992, Note_on_c, 0, 77, 0
1, 101016, Note_on_c, 0, 57, 0
1, 101016, Note_on_c, 0, 53, 0
1, 101040, Note_on_c, 0, 76, 80
1, 101040, Note_on_c, 0, 53, 80
1, 101040, Note_on_c, 0, 58, 80
1, 101040, Note_on_c, 0, 55, 80
1, 101136, Note_on_c, 0, 55, 0
1, 101136, Note_on_c, 0, 58, 0
1, 101136, Note_on_c, 0, 53, 0
1, 101160, Note_on_c, 0, 58, 80
1, 101160, Note_on_c, 0, 53, 80
1, 101160, Note_on_c, 0, 55, 80
1, 101232, Note_on_c, 0, 76, 0
1, 101256, Note_on_c, 0, 55, 0
1, 101256, Note_on_c, 0, 53, 0
1, 101256, Note_on_c, 0, 58, 0
1, 101280, Note_on_c, 0, 53, 80
1, 101280, Note_on_c, 0, 57, 80
1, 101280, Note_on_c, 0, 60, 80
1, 101280, Note_on_c, 0, 75, 80
1, 101376, Note_on_c, 0, 60, 0
1, 101376, Note_on_c, 0, 57, 0
1, 101376, Note_on_c, 0, 53, 0
1, 101400, Note_on_c, 0, 53, 80
1, 101400, Note_on_c, 0, 57, 80
1, 101400, Note_on_c, 0, 60, 80
1, 101472, Note_on_c, 0, 75, 0
1, 101496, Note_on_c, 0, 60, 0
1, 101496, Note_on_c, 0, 57, 0
1, 101496, Note_on_c, 0, 53, 0
1, 101520, Note_on_c, 0, 74, 80
1, 101520, Note_on_c, 0, 62, 80
1, 101520, Note_on_c, 0, 58, 80
1, 101520, Note_on_c, 0, 53, 80
1, 101616, Note_on_c, 0, 53, 0
1, 101616, Note_on_c, 0, 58, 0
1, 101616, Note_on_c, 0, 62, 0
1, 101640, Note_on_c, 0, 53, 80
1, 101640, Note_on_c, 0, 58, 80
1, 101640, Note_on_c, 0, 62, 80
1, 101712, Note_on_c, 0, 74, 0
1, 101736, Note_on_c, 0, 62, 0
1, 101736, Note_on_c, 0, 58, 0
1, 101736, Note_on_c, 0, 53, 0
1, 101760, Note_on_c, 0, 62, 80
1, 101760, Note_on_c, 0, 53, 80
1, 101760, Note_on_c, 0, 58, 80
1, 101856, Note_on_c, 0, 58, 0
1, 101856, Note_on_c, 0, 53, 0
1, 101856, Note_on_c, 0, 62, 0
1, 101880, Note_on_c, 0, 62, 80
1, 101880, Note_on_c, 0, 53, 80
1, 101880, Note_on_c, 0, 58, 80
1, 101976, Note_on_c, 0, 58, 0
1, 101976, Note_on_c, 0, 53, 0
1, 101976, Note_on_c, 0, 62, 0
1, 102000, Note_on_c, 0, 53, 80
1, 102000, Note_on_c, 0, 58, 80
1, 102000, Note_on_c, 0, 62, 80
1, 102096, Note_on_c, 0, 62, 0
1, 102096, Note_on_c, 0, 58, 0
1, 102096, Note_on_c, 0, 53, 0
1, 102120, Note_on_c, 0, 53, 80
1, 102120, Note_on_c, 0, 58, 80
1, 102120, Note_on_c, 0, 62, 80
1, 102216, Note_on_c, 0, 62, 0
1, 102216, Note_on_c, 0, 58, 0
1, 102216, Note_on_c, 0, 53, 0
1, 102240, Note_on_c, 0, 72, 80
1, 102240, Note_on_c, 0, 64, 80
1, 102240, Note_on_c, 0, 55, 80
1, 102240, Note_on_c, 0, 53, 80
1, 102336, Note_on_c, 0, 53, 0
1, 102336, Note_on_c, 0, 55, 0
1, 102336, Note_on_c, 0, 64, 0
1, 102336, Note_on_c, 0, 72, 0
1, 102360, Note_on_c, 0, 55, 80
1, 102360, Note_on_c, 0, 53, 80
1, 102360, Note_on_c, 0, 70, 80
1, 102360, Note_on_c, 0, 64, 80
1, 102456, Note_on_c, 0, 64, 0
1, 102456, Note_on_c, 0, 70, 0
1, 102456, Note_on_c, 0, 53, 0
1, 102456, Note_on_c, 0, 55, 0
1, 102480, Note_on_c, 0, 64, 80
1, 102480, Note_on_c, 0, 53, 80
1, 102480, Note_on_c, 0, 55, 80
1, 102480, Note_on_c, 0, 70, 80
1, 102576, Note_on_c, 0, 55, 0
1, 102576, Note_on_c, 0, 53, 0
1, 102576, Note_on_c, 0, 64, 0
1, 102600, Note_on_c, 0, 64, 80
1, 102600, Note_on_c, 0, 53, 80
1, 102600, Note_on_c, 0, 55, 80
1, 102672, Note_on_c, 0, 70, 0
1, 102696, Note_on_c, 0, 55, 0
1, 102696, Note_on_c, 0, 53, 0
1, 102696, Note_on_c, 0, 64, 0
1, 102720, Note_on_c, 0, 53, 80
1, 102720, Note_on_c, 0, 55, 80
1, 102720, Note_on_c, 0, 64, 80
1, 102816, Note_on_c, 0, 64, 0
1, 102816, Note_on_c, 0, 55, 0
1, 102816, Note_on_c, 0, 53, 0
1, 102840, Note_on_c, 0, 53, 80
1, 102840, Note_on_c, 0, 55, 80
1, 102840, Note_on_c, 0, 64, 80
1, 102936, Note_on_c, 0, 64, 0
1, 102936, Note_on_c, 0, 55, 0
1, 102936, Note_on_c, 0, 53, 0
1, 102960, Note_on_c, 0, 74, 80
1, 102960, Note_on_c, 0, 65, 80
1, 102960, Note_on_c, 0, 57, 80
1, 102960, Note_on_c, 0, 53, 80
1, 103056, Note_on_c, 0, 53, 0
1, 103056, Note_on_c, 0, 57, 0
1, 103056, Note_on_c, 0, 65, 0
1, 103056, Note_on_c, 0, 74, 0
1, 103080, Note_on_c, 0, 57, 80
1, 103080, Note_on_c, 0, 53, 80
1, 103080, Note_on_c, 0, 72, 80
1, 103080, Note_on_c, 0, 65, 80
1, 103176, Note_on_c, 0, 65, 0
1, 103176, Note_on_c, 0, 72, 0
1, 103176, Note_on_c, 0, 53, 0
1, 103176, Note_on_c, 0, 57, 0
1, 103200, Note_on_c, 0, 65, 80
1, 103200, Note_on_c, 0, 53, 80
1, 103200, Note_on_c, 0, 57, 80
1, 103200, Note_on_c, 0, 72, 80
1, 103296, Note_on_c, 0, 57, 0
1, 103296, Note_on_c, 0, 53, 0
1, 103296, Note_on_c, 0, 65, 0
1, 103320, Note_on_c, 0, 65, 80
1, 103320, Note_on_c, 0, 53, 80
1, 103320, Note_on_c, 0, 57, 80
1, 103392, Note_on_c, 0, 72, 0
1, 103416, Note_on_c, 0, 57, 0
1, 103416, Note_on_c, 0, 53, 0
1, 103416, Note_on_c, 0, 65, 0
1, 103440, Note_on_c, 0, 53, 80
1, 103440, Note_on_c, 0, 57, 80
1, 103440, Note_on_c, 0, 65, 80
1, 103536, Note_on_c, 0, 65, 0
1, 103536, Note_on_c, 0, 57, 0
1, 103536, Note_on_c, 0, 53, 0
1, 103560, Note_on_c, 0, 53, 80
1, 103560, Note_on_c, 0, 57, 80
1, 103560, Note_on_c, 0, 65, 80
1, 103656, Note_on_c, 0, 65, 0
1, 103656, Note_on_c, 0, 57, 0
1, 103656, Note_on_c, 0, 53, 0
1, 103680, Note_on_c, 0, 60, 80
1, 103680, Note_on_c, 0, 52, 80
1, 103680, Note_on_c, 0, 55, 80
1, 103680, Note_on_c, 0, 82, 80
1, 103728, Note_on_c, 0, 82, 0
1, 103740, Note_on_c, 0, 81, 80
1, 103788, Note_on_c, 0, 81, 0
1, 103800, Note_on_c, 0, 79, 80
1, 103848, Note_on_c, 0, 79, 0
1, 103860, Note_on_c, 0, 81, 80
1, 103872, Note_on_c, 0, 55, 0
1, 103872, Note_on_c, 0, 52, 0
1, 103872, Note_on_c, 0, 60, 0
1, 103908, Note_on_c, 0, 81, 0
1, 103920, Note_on_c, 0, 79, 80
1, 103968, Note_on_c, 0, 79, 0
1, 103980, Note_on_c, 0, 77, 80
1, 104028, Note_on_c, 0, 77, 0
1, 104040, Note_on_c, 0, 76, 80
1, 104088, Note_on_c, 0, 76, 0
1, 104100, Note_on_c, 0, 77, 80
1, 104148, Note_on_c, 0, 77, 0
1, 104160, Note_on_c, 0, 76, 80
1, 104208, Note_on_c, 0, 76, 0
1, 104220, Note_on_c, 0, 74, 80
1, 104268, Note_on_c, 0, 74, 0
1, 104280, Note_on_c, 0, 72, 80
1, 104328, Note_on_c, 0, 72, 0
1, 104340, Note_on_c, 0, 70, 80
1, 104388, Note_on_c, 0, 70, 0
1, 104400, Note_on_c, 0, 53, 80
1, 104400, Note_on_c, 0, 69, 80
1, 104448, Note_on_c, 0, 53, 0
1, 104460, Note_on_c, 0, 60, 80
1, 104496, Note_on_c, 0, 69, 0
1, 104508, Note_on_c, 0, 60, 0
1, 104520, Note_on_c, 0, 57, 80
1, 104520, Note_on_c, 0, 77, 80
1, 104568, Note_on_c, 0, 57, 0
1, 104580, Note_on_c, 0, 60, 80
1, 104628, Note_on_c, 0, 60, 0
1, 104640, Note_on_c, 0, 55, 80
1, 104688, Note_on_c, 0, 55, 0
1, 104700, Note_on_c, 0, 60, 80
1, 104712, Note_on_c, 0, 77, 0
1, 104748, Note_on_c, 0, 60, 0
1, 104760, Note_on_c, 0, 58, 80
1, 104760, Note_on_c, 0, 76, 80
1, 104808, Note_on_c, 0, 58, 0
1, 104820, Note_on_c, 0, 60, 80
1, 104868, Note_on_c, 0, 60, 0
1, 104880, Note_on_c, 0, 57, 80
1, 104928, Note_on_c, 0, 57, 0
1, 104940, Note_on_c, 0, 60, 80
1, 104952, Note_on_c, 0, 76, 0
1, 104988, Note_on_c, 0, 60, 0
1, 105000, Note_on_c, 0, 57, 80
1, 105000, Note_on_c, 0, 77, 80
1, 105048, Note_on_c, 0, 57, 0
1, 105060, Note_on_c, 0, 60, 80
1, 105096, Note_on_c, 0, 77, 0
1, 105108, Note_on_c, 0, 60, 0
1, 105120, Note_on_c, 0, 58, 80
1, 105216, Note_on_c, 0, 58, 0
1, 105240, Note_on_c, 0, 65, 80
1, 105240, Note_on_c, 0, 74, 80
1, 105336, Note_on_c, 0, 74, 0
1, 105336, Note_on_c, 0, 65, 0
1, 105360, Note_on_c, 0, 46, 80
1, 105456, Note_on_c, 0, 46, 0
1, 105480, Note_on_c, 0, 58, 80
1, 105480, Note_on_c, 0, 67, 80
1, 105576, Note_on_c, 0, 67, 0
1, 105576, Note_on_c, 0, 58, 0
1, 105600, Note_on_c, 0, 48, 80
1, 105696, Note_on_c, 0, 48, 0
1, 105720, Note_on_c, 0, 55, 80
1, 105720, Note_on_c, 0, 64, 80
1, 105816, Note_on_c, 0, 64, 0
1, 105816, Note_on_c, 0, 55, 0
1, 105840, Note_on_c, 0, 60, 80
1, 105840, Note_on_c, 0, 52, 80
1, 105840, Note_on_c, 0, 55, 80
1, 105840, Note_on_c, 0, 82, 80
1, 105888, Note_on_c, 0, 82, 0
1, 105900, Note_on_c, 0, 81, 80
1, 105948, Note_on_c, 0, 81, 0
1, 105960, Note_on_c, 0, 79, 80
1, 106008, Note_on_c, 0, 79, 0
1, 106020, Note_on_c, 0, 81, 80
1, 106032, Note_on_c, 0, 55, 0
1, 106032, Note_on_c, 0, 52, 0
1, 106032, Note_on_c, 0, 60, 0
1, 106068, Note_on_c, 0, 81, 0
1, 106080, Note_on_c, 0, 79, 80
1, 106128, Note_on_c, 0, 79, 0
1, 106140, Note_on_c, 0, 77, 80
1, 106188, Note_on_c, 0, 77, 0
1, 106200, Note_on_c, 0, 76, 80
1, 106248, Note_on_c, 0, 76, 0
1, 106260, Note_on_c, 0, 77, 80
1, 106308, Note_on_c, 0, 77, 0
1, 106320, Note_on_c, 0, 76, 80
1, 106368, Note_on_c, 0, 76, 0
1, 106380, Note_on_c, 0, 74, 80
1, 106428, Note_on_c, 0, 74, 0
1, 106440, Note_on_c, 0, 72, 80
1, 106488, Note_on_c, 0, 72, 0
1, 106500, Note_on_c, 0, 70, 80
1, 106548, Note_on_c, 0, 70, 0
1, 106560, Note_on_c, 0, 53, 80
1, 106560, Note_on_c, 0, 69, 80
1, 106608, Note_on_c, 0, 53, 0
1, 106620, Note_on_c, 0, 60, 80
1, 106656, Note_on_c, 0, 69, 0
1, 106668, Note_on_c, 0, 60, 0
1, 106680, Note_on_c, 0, 57, 80
1, 106680, Note_on_c, 0, 81, 80
1, 106728, Note_on_c, 0, 57, 0
1, 106740, Note_on_c, 0, 60, 80
1, 106788, Note_on_c, 0, 60, 0
1, 106800, Note_on_c, 0, 55, 80
1, 106848, Note_on_c, 0, 55, 0
1, 106860, Note_on_c, 0, 64, 80
1, 106872, Note_on_c, 0, 81, 0
1, 106908, Note_on_c, 0, 64, 0
1, 106920, Note_on_c, 0, 58, 80
1, 106920, Note_on_c, 0, 79, 80
1, 106968, Note_on_c, 0, 58, 0
1, 106980, Note_on_c, 0, 64, 80
1, 107028, Note_on_c, 0, 64, 0
1, 107040, Note_on_c, 0, 57, 80
1, 107088, Note_on_c, 0, 57, 0
1, 107100, Note_on_c, 0, 65, 80
1, 107112, Note_on_c, 0, 79, 0
1, 107148, Note_on_c, 0, 65, 0
1, 107160, Note_on_c, 0, 60, 80
1, 107160, Note_on_c, 0, 77, 80
1, 107208, Note_on_c, 0, 60, 0
1, 107220, Note_on_c, 0, 65, 80
1, 107256, Note_on_c, 0, 77, 0
1, 107268, Note_on_c, 0, 65, 0
1, 107280, Note_on_c, 0, 58, 80
1, 107376, Note_on_c, 0, 58, 0
1, 107400, Note_on_c, 0, 65, 80
1, 107400, Note_on_c, 0, 74, 80
1, 107496, Note_on_c, 0, 74, 0
1, 107496, Note_on_c, 0, 65, 0
1, 107520, Note_on_c, 0, 46, 80
1, 107616, Note_on_c, 0, 46, 0
1, 107640, Note_on_c, 0, 58, 80
1, 107640, Note_on_c, 0, 67, 80
1, 107736, Note_on_c, 0, 67, 0
1, 107736, Note_on_c, 0, 58, 0
1, 107760, Note_on_c, 0, 48, 80
1, 107856, Note_on_c, 0, 48, 0
1, 107880, Note_on_c, 0, 55, 80
1, 107880, Note_on_c, 0, 64, 80
1, 107976, Note_on_c, 0, 64, 0
1, 107976, Note_on_c, 0, 55, 0
1, 108000, Note_on_c, 0, 57, 80
1, 108000, Note_on_c, 0, 41, 80
1, 108000, Note_on_c, 0, 53, 80
1, 108064, Note_on_c, 0, 57, 0
1, 108080, Note_on_c, 0, 65, 80
1, 108144, Note_on_c, 0, 65, 0
1, 108160, Note_on_c, 0, 60, 80
1, 108192, Note_on_c, 0, 53, 0
1, 108192, Note_on_c, 0, 41, 0
1, 108224, Note_on_c, 0, 60, 0
1, 108240, Note_on_c, 0, 69, 80
1, 108304, Note_on_c, 0, 69, 0
1, 108320, Note_on_c, 0, 65, 80
1, 108384, Note_on_c, 0, 65, 0
1, 108400, Note_on_c, 0, 60, 80
1, 108464, Note_on_c, 0, 60, 0
1, 108480, Note_on_c, 0, 36, 80
1, 108480, Note_on_c, 0, 48, 80
1, 108480, Note_on_c, 0, 58, 80
1, 108544, Note_on_c, 0, 58, 0
1, 108560, Note_on_c, 0, 67, 80
1, 108624, Note_on_c, 0, 67, 0
1, 108640, Note_on_c, 0, 64, 80
1, 108672, Note_on_c, 0, 48, 0
1, 108672, Note_on_c, 0, 36, 0
1, 108704, Note_on_c, 0, 64, 0
1, 108720, Note_on_c, 0, 65, 80
1, 108720, Note_on_c, 0, 29, 80
1, 108720, Note_on_c, 0, 41, 80
1, 108784, Note_on_c, 0, 65, 0
1, 108800, Note_on_c, 0, 57, 80
1, 108864, Note_on_c, 0, 57, 0
1, 108880, Note_on_c, 0, 60, 80
1, 108912, Note_on_c, 0, 41, 0
1, 108912, Note_on_c, 0, 29, 0
1, 108944, Note_on_c, 0, 60, 0
1, 108960, Note_on_c, 0, 67, 80
1, 109024, Note_on_c, 0, 67, 0
1, 109040, Note_on_c, 0, 60, 80
1, 109104, Note_on_c, 0, 60, 0
1, 109120, Note_on_c, 0, 64, 80
1, 109184, Note_on_c, 0, 64, 0
1, 109200, Note_on_c, 0, 69, 80
1, 109264, Note_on_c, 0, 69, 0
1, 109280, Note_on_c, 0, 60, 80
1, 109344, Note_on_c, 0, 60, 0
1, 109360, Note_on_c, 0, 65, 80
1, 109424, Note_on_c, 0, 65, 0
1, 109440, Note_on_c, 0, 60, 80
1, 109440, Note_on_c, 0, 36, 80
1, 109440, Note_on_c, 0, 48, 80
1, 109504, Note_on_c, 0, 60, 0
1, 109520, Note_on_c, 0, 67, 80
1, 109584, Note_on_c, 0, 67, 0
1, 109600, Note_on_c, 0, 64, 80
1, 109632, Note_on_c, 0, 48, 0
1, 109632, Note_on_c, 0, 36, 0
1, 109664, Note_on_c, 0, 64, 0
1, 109680, Note_on_c, 0, 70, 80
1, 109744, Note_on_c, 0, 70, 0
1, 109760, Note_on_c, 0, 67, 80
1, 109824, Note_on_c, 0, 67, 0
1, 109840, Note_on_c, 0, 64, 80
1, 109904, Note_on_c, 0, 64, 0
1, 109920, Note_on_c, 0, 41, 80
1, 109920, Note_on_c, 0, 53, 80
1, 109920, Note_on_c, 0, 60, 80
1, 109984, Note_on_c, 0, 60, 0
1, 110000, Note_on_c, 0, 69, 80
1, 110064, Note_on_c, 0, 69, 0
1, 110080, Note_on_c, 0, 65, 80
1, 110112, Note_on_c, 0, 53, 0
1, 110112, Note_on_c, 0, 41, 0
1, 110144, Note_on_c, 0, 65, 0
1, 110160, Note_on_c, 0, 60, 80
1, 110160, Note_on_c, 0, 67, 80
1, 110160, Note_on_c, 0, 48, 80
1, 110224, Note_on_c, 0, 67, 0
1, 110240, Note_on_c, 0, 60, 80
1, 110304, Note_on_c, 0, 60, 0
1, 110320, Note_on_c, 0, 64, 80
1, 110352, Note_on_c, 0, 48, 0
1, 110352, Note_on_c, 0, 60, 0
1, 110384, Note_on_c, 0, 64, 0
1, 110400, Note_on_c, 0, 69, 80
1, 110464, Note_on_c, 0, 69, 0
1, 110480, Note_on_c, 0, 60, 80
1, 110544, Note_on_c, 0, 60, 0
1, 110560, Note_on_c, 0, 65, 80
1, 110624, Note_on_c, 0, 65, 0
1, 110640, Note_on_c, 0, 70, 80
1, 110704, Note_on_c, 0, 70, 0
1, 110720, Note_on_c, 0, 60, 80
1, 110784, Note_on_c, 0, 60, 0
1, 110800, Note_on_c, 0, 67, 80
1, 110864, Note_on_c, 0, 67, 0
1, 110880, Note_on_c, 0, 69, 80
1, 110880, Note_on_c, 0, 41, 80
1, 110880, Note_on_c, 0, 53, 80
1, 110944, Note_on_c, 0, 69, 0
1, 110960, Note_on_c, 0, 72, 80
1, 111024, Note_on_c, 0, 72, 0
1, 111040, Note_on_c, 0, 77, 80
1, 111072, Note_on_c, 0, 53, 0
1, 111072, Note_on_c, 0, 41, 0
1, 111104, Note_on_c, 0, 77, 0
1, 111120, Note_on_c, 0, 81, 80
1, 111184, Note_on_c, 0, 81, 0
1, 111200, Note_on_c, 0, 77, 80
1, 111264, Note_on_c, 0, 77, 0
1, 111280, Note_on_c, 0, 74, 80
1, 111344, Note_on_c, 0, 74, 0
1, 111360, Note_on_c, 0, 72, 80
1, 111424, Note_on_c, 0, 72, 0
1, 111440, Note_on_c, 0, 77, 80
1, 111504, Note_on_c, 0, 77, 0
1, 111520, Note_on_c, 0, 81, 80
1, 111584, Note_on_c, 0, 81, 0
1, 111600, Note_on_c, 0, 65, 80
1, 111600, Note_on_c, 0, 80, 80
1, 111600, Note_on_c, 0, 53, 80
1, 111664, Note_on_c, 0, 80, 0
1, 111680, Note_on_c, 0, 74, 80
1, 111744, Note_on_c, 0, 74, 0
1, 111760, Note_on_c, 0, 71, 80
1, 111792, Note_on_c, 0, 53, 0
1, 111792, Note_on_c, 0, 65, 0
1, 111824, Note_on_c, 0, 71, 0
1, 111840, Note_on_c, 0, 72, 80
1, 111840, Note_on_c, 0, 64, 80
1, 111840, Note_on_c, 0, 52, 80
1, 111904, Note_on_c, 0, 72, 0
1, 111920, Note_on_c, 0, 76, 80
1, 111984, Note_on_c, 0, 76, 0
1, 112000, Note_on_c, 0, 79, 80
1, 112032, Note_on_c, 0, 52, 0
1, 112032, Note_on_c, 0, 64, 0
1, 112064, Note_on_c, 0, 79, 0
1, 112080, Note_on_c, 0, 75, 80
1, 112144, Note_on_c, 0, 75, 0
1, 112160, Note_on_c, 0, 72, 80
1, 112224, Note_on_c, 0, 72, 0
1, 112240, Note_on_c, 0, 70, 80
1, 112304, Note_on_c, 0, 70, 0
1, 112320, Note_on_c, 0, 51, 80
1, 112320, Note_on_c, 0, 63, 80
1, 112320, Note_on_c, 0, 69, 80
1, 112384, Note_on_c, 0, 69, 0
1, 112400, Note_on_c, 0, 72, 80
1, 112464, Note_on_c, 0, 72, 0
1, 112480, Note_on_c, 0, 78, 80
1, 112512, Note_on_c, 0, 63, 0
1, 112512, Note_on_c, 0, 51, 0
1, 112544, Note_on_c, 0, 78, 0
1, 112560, Note_on_c, 0, 62, 80
1, 112560, Note_on_c, 0, 50, 80
1, 112560, Note_on_c, 0, 77, 80
1, 112624, Note_on_c, 0, 77, 0
1, 112640, Note_on_c, 0, 74, 80
1, 112704, Note_on_c, 0, 74, 0
1, 112720, Note_on_c, 0, 70, 80
1, 112752, Note_on_c, 0, 50, 0
1, 112752, Note_on_c, 0, 62, 0
1, 112784, Note_on_c, 0, 70, 0
1, 112800, Note_on_c, 0, 69, 80
1, 112864, Note_on_c, 0, 69, 0
1, 112880, Note_on_c, 0, 74, 80
1, 112944, Note_on_c, 0, 74, 0
1, 112960, Note_on_c, 0, 77, 80
1, 113024, Note_on_c, 0, 77, 0
1, 113040, Note_on_c, 0, 50, 80
1, 113040, Note_on_c, 0, 62, 80
1, 113040, Note_on_c, 0, 77, 80
1, 113104, Note_on_c, 0, 77, 0
1, 113120, Note_on_c, 0, 71, 80
1, 113184, Note_on_c, 0, 71, 0
1, 113200, Note_on_c, 0, 68, 80
1, 113232, Note_on_c, 0, 62, 0
1, 113232, Note_on_c, 0, 50, 0
1, 113264, Note_on_c, 0, 68, 0
1, 113280, Note_on_c, 0, 61, 80
1, 113280, Note_on_c, 0, 49, 80
1, 113280, Note_on_c, 0, 69, 80
1, 113344, Note_on_c, 0, 69, 0
1, 113360, Note_on_c, 0, 73, 80
1, 113424, Note_on_c, 0, 73, 0
1, 113440, Note_on_c, 0, 76, 80
1, 113472, Note_on_c, 0, 49, 0
1, 113472, Note_on_c, 0, 61, 0
1, 113504, Note_on_c, 0, 76, 0
1, 113520, Note_on_c, 0, 72, 80
1, 113584, Note_on_c, 0, 72, 0
1, 113600, Note_on_c, 0, 69, 80
1, 113664, Note_on_c, 0, 69, 0
1, 113680, Note_on_c, 0, 67, 80
1, 113744, Note_on_c, 0, 67, 0
1, 113760, Note_on_c, 0, 48, 80
1, 113760, Note_on_c, 0, 60, 80
1, 113760, Note_on_c, 0, 66, 80
1, 113824, Note_on_c, 0, 66, 0
1, 113840, Note_on_c, 0, 69, 80
1, 113904, Note_on_c, 0, 69, 0
1, 113920, Note_on_c, 0, 75, 80
1, 113952, Note_on_c, 0, 60, 0
1, 113952, Note_on_c, 0, 48, 0
1, 113984, Note_on_c, 0, 75, 0
1, 114000, Note_on_c, 0, 59, 80
1, 114000, Note_on_c, 0, 47, 80
1, 114000, Note_on_c, 0, 74, 80
1, 114064, Note_on_c, 0, 74, 0
1, 114080, Note_on_c, 0, 71, 80
1, 114144, Note_on_c, 0, 71, 0
1, 114160, Note_on_c, 0, 67, 80
1, 114192, Note_on_c, 0, 47, 0
1, 114192, Note_on_c, 0, 59, 0
1, 114224, Note_on_c, 0, 67, 0
1, 114240, Note_on_c, 0, 65, 80
1, 114304, Note_on_c, 0, 65, 0
1, 114320, Note_on_c, 0, 70, 80
1, 114384, Note_on_c, 0, 70, 0
1, 114400, Note_on_c, 0, 74, 80
1, 114464, Note_on_c, 0, 74, 0
1, 114480, Note_on_c, 0, 46, 80
1, 114480, Note_on_c, 0, 58, 80
1, 114480, Note_on_c, 0, 73, 80
1, 114544, Note_on_c, 0, 73, 0
1, 114560, Note_on_c, 0, 67, 80
1, 114624, Note_on_c, 0, 67, 0
1, 114640, Note_on_c, 0, 64, 80
1, 114672, Note_on_c, 0, 58, 0
1, 114672, Note_on_c, 0, 46, 0
1, 114704, Note_on_c, 0, 64, 0
1, 114720, Note_on_c, 0, 65, 80
1, 114720, Note_on_c, 0, 57, 80
1, 114720, Note_on_c, 0, 45, 80
1, 114784, Note_on_c, 0, 65, 0
1, 114800, Note_on_c, 0, 69, 80
1, 114864, Note_on_c, 0, 69, 0
1, 114880, Note_on_c, 0, 72, 80
1, 114912, Note_on_c, 0, 45, 0
1, 114912, Note_on_c, 0, 57, 0
1, 114944, Note_on_c, 0, 72, 0
1, 114960, Note_on_c, 0, 77, 80
1, 115024, Note_on_c, 0, 77, 0
1, 115040, Note_on_c, 0, 72, 80
1, 115104, Note_on_c, 0, 72, 0
1, 115120, Note_on_c, 0, 69, 80
1, 115184, Note_on_c, 0, 69, 0
1, 115200, Note_on_c, 0, 67, 80
1, 115200, Note_on_c, 0, 46, 80
1, 115200, Note_on_c, 0, 58, 80
1, 115264, Note_on_c, 0, 67, 0
1, 115280, Note_on_c, 0, 70, 80
1, 115344, Note_on_c, 0, 70, 0
1, 115360, Note_on_c, 0, 69, 80
1, 115392, Note_on_c, 0, 58, 0
1, 115392, Note_on_c, 0, 46, 0
1, 115424, Note_on_c, 0, 69, 0
1, 115440, Note_on_c, 0, 70, 80
1, 115504, Note_on_c, 0, 70, 0
1, 115520, Note_on_c, 0, 74, 80
1, 115584, Note_on_c, 0, 74, 0
1, 115600, Note_on_c, 0, 73, 80
1, 115664, Note_on_c, 0, 73, 0
1, 115680, Note_on_c, 0, 74, 80
1, 115744, Note_on_c, 0, 74, 0
1, 115760, Note_on_c, 0, 79, 80
1, 115824, Note_on_c, 0, 79, 0
1, 115840, Note_on_c, 0, 78, 80
1, 115904, Note_on_c, 0, 78, 0
1, 115920, Note_on_c, 0, 79, 80
1, 115984, Note_on_c, 0, 79, 0
1, 116000, Note_on_c, 0, 82, 80
1, 116064, Note_on_c, 0, 82, 0
1, 116080, Note_on_c, 0, 81, 80
1, 116144, Note_on_c, 0, 81, 0
1, 116160, Note_on_c, 0, 82, 80
1, 116224, Note_on_c, 0, 82, 0
1, 116240, Note_on_c, 0, 86, 80
1, 116304, Note_on_c, 0, 86, 0
1, 116320, Note_on_c, 0, 85, 80
1, 116384, Note_on_c, 0, 85, 0
1, 116400, Note_on_c, 0, 86, 80
1, 116464, Note_on_c, 0, 86, 0
1, 116480, Note_on_c, 0, 82, 80
1, 116544, Note_on_c, 0, 82, 0
1, 116560, Note_on_c, 0, 81, 80
1, 116624, Note_on_c, 0, 81, 0
1, 116640, Note_on_c, 0, 82, 80
1, 116704, Note_on_c, 0, 82, 0
1, 116720, Note_on_c, 0, 79, 80
1, 116784, Note_on_c, 0, 79, 0
1, 116800, Note_on_c, 0, 78, 80
1, 116864, Note_on_c, 0, 78, 0
1, 116880, Note_on_c, 0, 79, 80
1, 116944, Note_on_c, 0, 79, 0
1, 116960, Note_on_c, 0, 74, 80
1, 117024, Note_on_c, 0, 74, 0
1, 117040, Note_on_c, 0, 73, 80
1, 117104, Note_on_c, 0, 73, 0
1, 117120, Note_on_c, 0, 46, 80
1, 117120, Note_on_c, 0, 58, 80
1, 117120, Note_on_c, 0, 74, 80
1, 117184, Note_on_c, 0, 74, 0
1, 117200, Note_on_c, 0, 70, 80
1, 117264, Note_on_c, 0, 70, 0
1, 117280, Note_on_c, 0, 67, 80
1, 117312, Note_on_c, 0, 58, 0
1, 117312, Note_on_c, 0, 46, 0
1, 117344, Note_on_c, 0, 67, 0
1, 117360, Note_on_c, 0, 57, 80
1, 117360, Note_on_c, 0, 48, 80
1, 117360, Note_on_c, 0, 65, 80
1, 117552, Note_on_c, 0, 65, 0
1, 117552, Note_on_c, 0, 48, 0
1, 117552, Note_on_c, 0, 57, 0
1, 117600, Note_on_c, 0, 55, 80
1, 117600, Note_on_c, 0, 64, 80
1, 117792, Note_on_c, 0, 64, 0
1, 117792, Note_on_c, 0, 55, 0
1, 118080, Note_on_c, 0, 29, 80
1, 118080, Note_on_c, 0, 41, 80
1, 118272, Note_on_c, 0, 41, 0
1, 118272, Note_on_c, 0, 29, 0
1, 118320, Note_on_c, 0, 33, 80
1, 118320, Note_on_c, 0, 45, 80
1, 118512, Note_on_c, 0, 45, 0
1, 118512, Note_on_c, 0, 33, 0
1, 118560, Note_on_c, 0, 36, 80
1, 118560, Note_on_c, 0, 48, 80
1, 118752, Note_on_c, 0, 48, 0
1, 118752, Note_on_c, 0, 36, 0
1, 118800, Note_on_c, 0, 84, 80
1, 118848, Note_on_c, 0, 84, 0
1, 118860, Note_on_c, 0, 86, 80
1, 118908, Note_on_c, 0, 86, 0
1, 118920, Note_on_c, 0, 84, 80
1, 118968, Note_on_c, 0, 84, 0
1, 118980, Note_on_c, 0, 81, 80
1, 119028, Note_on_c, 0, 81, 0
1, 119040, Note_on_c, 0, 84, 80
1, 119088, Note_on_c, 0, 84, 0
1, 119100, Note_on_c, 0, 86, 80
1, 119148, Note_on_c, 0, 86, 0
1, 119160, Note_on_c, 0, 84, 80
1, 119208, Note_on_c, 0, 84, 0
1, 119220, Note_on_c, 0, 81, 80
1, 119268, Note_on_c, 0, 81, 0
1, 119280, Note_on_c, 0, 82, 80
1, 119328, Note_on_c, 0, 82, 0
1, 119340, Note_on_c, 0, 84, 80
1, 119388, Note_on_c, 0, 84, 0
1, 119400, Note_on_c, 0, 82, 80
1, 119448, Note_on_c, 0, 82, 0
1, 119460, Note_on_c, 0, 79, 80
1, 119508, Note_on_c, 0, 79, 0
1, 119520, Note_on_c, 0, 81, 80
1, 119520, Note_on_c, 0, 72, 80
1, 119568, Note_on_c, 0, 72, 0
1, 119568, Note_on_c, 0, 81, 0
1, 119580, Note_on_c, 0, 74, 80
1, 119580, Note_on_c, 0, 82, 80
1, 119628, Note_on_c, 0, 82, 0
1, 119628, Note_on_c, 0, 74, 0
1, 119640, Note_on_c, 0, 72, 80
1, 119640, Note_on_c, 0, 81, 80
1, 119688, Note_on_c, 0, 81, 0
1, 119688, Note_on_c, 0, 72, 0
1, 119700, Note_on_c, 0, 77, 80
1, 119700, Note_on_c, 0, 69, 80
1, 119748, Note_on_c, 0, 69, 0
1, 119748, Note_on_c, 0, 77, 0
1, 119760, Note_on_c, 0, 81, 80
1, 119760, Note_on_c, 0, 72, 80
1, 119808, Note_on_c, 0, 72, 0
1, 119808, Note_on_c, 0, 81, 0
1, 119820, Note_on_c, 0, 82, 80
1, 119820, Note_on_c, 0, 74, 80
1, 119868, Note_on_c, 0, 74, 0
1, 119868, Note_on_c, 0, 82, 0
1, 119880, Note_on_c, 0, 72, 80
1, 119880, Note_on_c, 0, 81, 80
1, 119928, Note_on_c, 0, 81, 0
1, 119928, Note_on_c, 0, 72, 0
1, 119940, Note_on_c, 0, 77, 80
1, 119940, Note_on_c, 0, 69, 80
1, 119988, Note_on_c, 0, 69, 0
1, 119988, Note_on_c, 0, 77, 0
1, 120000, Note_on_c, 0, 70, 80
1, 120000, Note_on_c, 0, 79, 80
1, 120048, Note_on_c, 0, 79, 0
1, 120048, Note_on_c, 0, 70, 0
1, 120060, Note_on_c, 0, 72, 80
1, 120060, Note_on_c, 0, 81, 80
1, 120108, Note_on_c, 0, 81, 0
1, 120108, Note_on_c, 0, 72, 0
1, 120120, Note_on_c, 0, 70, 80
1, 120120, Note_on_c, 0, 79, 80
1, 120168, Note_on_c, 0, 79, 0
1, 120168, Note_on_c, 0, 70, 0
1, 120180, Note_on_c, 0, 67, 80
1, 120180, Note_on_c, 0, 76, 80
1, 120228, Note_on_c, 0, 76, 0
1, 120228, Note_on_c, 0, 67, 0
1, 120240, Note_on_c, 0, 77, 80
1, 120240, Note_on_c, 0, 69, 80
1, 120336, Note_on_c, 0, 69, 0
1, 120360, Note_on_c, 0, 60, 80
1, 120456, Note_on_c, 0, 60, 0
1, 120480, Note_on_c, 0, 65, 80
1, 120528, Note_on_c, 0, 77, 0
1, 120576, Note_on_c, 0, 65, 0
1, 120600, Note_on_c, 0, 60, 80
1, 120600, Note_on_c, 0, 79, 80
1, 120648, Note_on_c, 0, 79, 0
1, 120660, Note_on_c, 0, 81, 80
1, 120696, Note_on_c, 0, 60, 0
1, 120708, Note_on_c, 0, 81, 0
1, 120720, Note_on_c, 0, 64, 80
1, 120720, Note_on_c, 0, 79, 80
1, 120912, Note_on_c, 0, 79, 0
1, 120912, Note_on_c, 0, 64, 0
1, 120960, Note_on_c, 0, 48, 80
1, 120960, Note_on_c, 0, 36, 80
1, 121152, Note_on_c, 0, 36, 0
1, 121152, Note_on_c, 0, 48, 0
1, 121200, Note_on_c, 0, 52, 80
1, 121200, Note_on_c, 0, 40, 80
1, 121392, Note_on_c, 0, 40, 0
1, 121392, Note_on_c, 0, 52, 0
1, 121440, Note_on_c, 0, 55, 80
1, 121440, Note_on_c, 0, 43, 80
1, 121632, Note_on_c, 0, 43, 0
1, 121632, Note_on_c, 0, 55, 0
1, 121680, Note_on_c, 0, 82, 80
1, 121728, Note_on_c, 0, 82, 0
1, 121740, Note_on_c, 0, 84, 80
1, 121788, Note_on_c, 0, 84, 0
1, 121800, Note_on_c, 0, 82, 80
1, 121848, Note_on_c, 0, 82, 0
1, 121860, Note_on_c, 0, 79, 80
1, 121908, Note_on_c, 0, 79, 0
1, 121920, Note_on_c, 0, 82, 80
1, 121968, Note_on_c, 0, 82, 0
1, 121980, Note_on_c, 0, 84, 80
1, 122028, Note_on_c, 0, 84, 0
1, 122040, Note_on_c, 0, 82, 80
1, 122088, Note_on_c, 0, 82, 0
1, 122100, Note_on_c, 0, 79, 80
1, 122148, Note_on_c, 0, 79, 0
1, 122160, Note_on_c, 0, 81, 80
1, 122208, Note_on_c, 0, 81, 0
1, 122220, Note_on_c, 0, 82, 80
1, 122268, Note_on_c, 0, 82, 0
1, 122280, Note_on_c, 0, 81, 80
1, 122328, Note_on_c, 0, 81, 0
1, 122340, Note_on_c, 0, 77, 80
1, 122388, Note_on_c, 0, 77, 0
1, 122400, Note_on_c, 0, 79, 80
1, 122400, Note_on_c, 0, 70, 80
1, 122448, Note_on_c, 0, 70, 0
1, 122448, Note_on_c, 0, 79, 0
1, 122460, Note_on_c, 0, 72, 80
1, 122460, Note_on_c, 0, 81, 80
1, 122508, Note_on_c, 0, 81, 0
1, 122508, Note_on_c, 0, 72, 0
1, 122520, Note_on_c, 0, 70, 80
1, 122520, Note_on_c, 0, 79, 80
1, 122568, Note_on_c, 0, 79, 0
1, 122568, Note_on_c, 0, 70, 0
1, 122580, Note_on_c, 0, 76, 80
1, 122580, Note_on_c, 0, 67, 80
1, 122628, Note_on_c, 0, 67, 0
1, 122628, Note_on_c, 0, 76, 0
1, 122640, Note_on_c, 0, 79, 80
1, 122640, Note_on_c, 0, 70, 80
1, 122688, Note_on_c, 0, 70, 0
1, 122688, Note_on_c, 0, 79, 0
1, 122700, Note_on_c, 0, 81, 80
1, 122700, Note_on_c, 0, 72, 80
1, 122748, Note_on_c, 0, 72, 0
1, 122748, Note_on_c, 0, 81, 0
1, 122760, Note_on_c, 0, 70, 80
1, 122760, Note_on_c, 0, 79, 80
1, 122808, Note_on_c, 0, 79, 0
1, 122808, Note_on_c, 0, 70, 0
1, 122820, Note_on_c, 0, 76, 80
1, 122820, Note_on_c, 0, 67, 80
1, 122868, Note_on_c, 0, 67, 0
1, 122868, Note_on_c, 0, 76, 0
1, 122880, Note_on_c, 0, 69, 80
1, 122880, Note_on_c, 0, 77, 80
1, 122928, Note_on_c, 0, 77, 0
1, 122928, Note_on_c, 0, 69, 0
1, 122940, Note_on_c, 0, 70, 80
1, 122940, Note_on_c, 0, 76, 80
1, 122988, Note_on_c, 0, 76, 0
1, 122988, Note_on_c, 0, 70, 0
1, 123000, Note_on_c, 0, 69, 80
1, 123000, Note_on_c, 0, 77, 80
1, 123048, Note_on_c, 0, 77, 0
1, 123048, Note_on_c, 0, 69, 0
1, 123060, Note_on_c, 0, 65, 80
1, 123060, Note_on_c, 0, 81, 80
1, 123108, Note_on_c, 0, 81, 0
1, 123108, Note_on_c, 0, 65, 0
1, 123120, Note_on_c, 0, 79, 80
1, 123120, Note_on_c, 0, 70, 80
1, 123216, Note_on_c, 0, 70, 0
1, 123240, Note_on_c, 0, 67, 80
1, 123336, Note_on_c, 0, 67, 0
1, 123360, Note_on_c, 0, 64, 80
1, 123408, Note_on_c, 0, 79, 0
1, 123456, Note_on_c, 0, 64, 0
1, 123480, Note_on_c, 0, 60, 80
1, 123480, Note_on_c, 0, 81, 80
1, 123528, Note_on_c, 0, 81, 0
1, 123540, Note_on_c, 0, 82, 80
1, 123576, Note_on_c, 0, 60, 0
1, 123588, Note_on_c, 0, 82, 0
1, 123600, Note_on_c, 0, 65, 80
1, 123600, Note_on_c, 0, 81, 80
1, 123792, Note_on_c, 0, 81, 0
1, 123792, Note_on_c, 0, 65, 0
1, 123840, Note_on_c, 0, 41, 80
1, 123840, Note_on_c, 0, 53, 80
1, 123900, Note_on_c, 0, 84, 80
1, 123948, Note_on_c, 0, 84, 0
1, 123960, Note_on_c, 0, 82, 80
1, 124008, Note_on_c, 0, 82, 0
1, 124020, Note_on_c, 0, 84, 80
1, 124032, Note_on_c, 0, 53, 0
1, 124032, Note_on_c, 0, 41, 0
1, 124068, Note_on_c, 0, 84, 0
1, 124080, Note_on_c, 0, 45, 80
1, 124080, Note_on_c, 0, 81, 80
1, 124080, Note_on_c, 0, 57, 80
1, 124128, Note_on_c, 0, 81, 0
1, 124140, Note_on_c, 0, 82, 80
1, 124188, Note_on_c, 0, 82, 0
1, 124200, Note_on_c, 0, 79, 80
1, 124248, Note_on_c, 0, 79, 0
1, 124260, Note_on_c, 0, 81, 80
1, 124272, Note_on_c, 0, 57, 0
1, 124272, Note_on_c, 0, 45, 0
1, 124308, Note_on_c, 0, 81, 0
1, 124320, Note_on_c, 0, 48, 80
1, 124320, Note_on_c, 0, 60, 80
1, 124320, Note_on_c, 0, 77, 80
1, 124368, Note_on_c, 0, 77, 0
1, 124380, Note_on_c, 0, 79, 80
1, 124428, Note_on_c, 0, 79, 0
1, 124440, Note_on_c, 0, 76, 80
1, 124488, Note_on_c, 0, 76, 0
1, 124500, Note_on_c, 0, 77, 80
1, 124512, Note_on_c, 0, 60, 0
1, 124512, Note_on_c, 0, 48, 0
1, 124548, Note_on_c, 0, 77, 0
1, 124560, Note_on_c, 0, 74, 80
1, 124560, Note_on_c, 0, 62, 80
1, 124620, Note_on_c, 0, 50, 80
1, 124668, Note_on_c, 0, 50, 0
1, 124680, Note_on_c, 0, 48, 80
1, 124728, Note_on_c, 0, 48, 0
1, 124740, Note_on_c, 0, 50, 80
1, 124752, Note_on_c, 0, 62, 0
1, 124752, Note_on_c, 0, 74, 0
1, 124788, Note_on_c, 0, 50, 0
1, 124800, Note_on_c, 0, 46, 80
1, 124800, Note_on_c, 0, 77, 80
1, 124800, Note_on_c, 0, 65, 80
1, 124848, Note_on_c, 0, 46, 0
1, 124860, Note_on_c, 0, 48, 80
1, 124908, Note_on_c, 0, 48, 0
1, 124920, Note_on_c, 0, 45, 80
1, 124968, Note_on_c, 0, 45, 0
1, 124980, Note_on_c, 0, 46, 80
1, 124992, Note_on_c, 0, 65, 0
1, 124992, Note_on_c, 0, 77, 0
1, 125028, Note_on_c, 0, 46, 0
1, 125040, Note_on_c, 0, 43, 80
1, 125040, Note_on_c, 0, 82, 80
1, 125040, Note_on_c, 0, 70, 80
1, 125088, Note_on_c, 0, 43, 0
1, 125100, Note_on_c, 0, 45, 80
1, 125148, Note_on_c, 0, 45, 0
1, 125160, Note_on_c, 0, 41, 80
1, 125208, Note_on_c, 0, 41, 0
1, 125220, Note_on_c, 0, 43, 80
1, 125232, Note_on_c, 0, 70, 0
1, 125232, Note_on_c, 0, 82, 0
1, 125268, Note_on_c, 0, 43, 0
1, 125280, Note_on_c, 0, 40, 80
1, 125280, Note_on_c, 0, 52, 80
1, 125340, Note_on_c, 0, 82, 80
1, 125388, Note_on_c, 0, 82, 0
1, 125400, Note_on_c, 0, 81, 80
1, 125448, Note_on_c, 0, 81, 0
1, 125460, Note_on_c, 0, 82, 80
1, 125472, Note_on_c, 0, 52, 0
1, 125472, Note_on_c, 0, 40, 0
1, 125508, Note_on_c, 0, 82, 0
1, 125520, Note_on_c, 0, 43, 80
1, 125520, Note_on_c, 0, 79, 80
1, 125520, Note_on_c, 0, 55, 80
1, 125568, Note_on_c, 0, 79, 0
1, 125580, Note_on_c, 0, 81, 80
1, 125628, Note_on_c, 0, 81, 0
1, 125640, Note_on_c, 0, 77, 80
1, 125688, Note_on_c, 0, 77, 0
1, 125700, Note_on_c, 0, 79, 80
1, 125712, Note_on_c, 0, 55, 0
1, 125712, Note_on_c, 0, 43, 0
1, 125748, Note_on_c, 0, 79, 0
1, 125760, Note_on_c, 0, 46, 80
1, 125760, Note_on_c, 0, 58, 80
1, 125760, Note_on_c, 0, 76, 80
1, 125808, Note_on_c, 0, 76, 0
1, 125820, Note_on_c, 0, 77, 80
1, 125868, Note_on_c, 0, 77, 0
1, 125880, Note_on_c, 0, 74, 80
1, 125928, Note_on_c, 0, 74, 0
1, 125940, Note_on_c, 0, 76, 80
1, 125952, Note_on_c, 0, 58, 0
1, 125952, Note_on_c, 0, 46, 0
1, 125988, Note_on_c, 0, 76, 0
1, 126000, Note_on_c, 0, 72, 80
1, 126000, Note_on_c, 0, 60, 80
1, 126060, Note_on_c, 0, 48, 80
1, 126108, Note_on_c, 0, 48, 0
1, 126120, Note_on_c, 0, 46, 80
1, 126168, Note_on_c, 0, 46, 0
1, 126180, Note_on_c, 0, 48, 80
1, 126192, Note_on_c, 0, 60, 0
1, 126192, Note_on_c, 0, 72, 0
1, 126228, Note_on_c, 0, 48, 0
1, 126240, Note_on_c, 0, 45, 80
1, 126240, Note_on_c, 0, 76, 80
1, 126240, Note_on_c, 0, 64, 80
1, 126288, Note_on_c, 0, 45, 0
1, 126300, Note_on_c, 0, 46, 80
1, 126348, Note_on_c, 0, 46, 0
1, 126360, Note_on_c, 0, 43, 80
1, 126408, Note_on_c, 0, 43, 0
1, 126420, Note_on_c, 0, 45, 80
1, 126432, Note_on_c, 0, 64, 0
1, 126432, Note_on_c, 0, 76, 0
1, 126468, Note_on_c, 0, 45, 0
1, 126480, Note_on_c, 0, 41, 80
1, 126480, Note_on_c, 0, 81, 80
1, 126480, Note_on_c, 0, 69, 80
1, 126528, Note_on_c, 0, 41, 0
1, 126540, Note_on_c, 0, 43, 80
1, 126588, Note_on_c, 0, 43, 0
1, 126600, Note_on_c, 0, 40, 80
1, 126648, Note_on_c, 0, 40, 0
1, 126660, Note_on_c, 0, 41, 80
1, 126672, Note_on_c, 0, 69, 0
1, 126672, Note_on_c, 0, 81, 0
1, 126708, Note_on_c, 0, 41, 0
1, 126720, Note_on_c, 0, 38, 80
1, 126720, Note_on_c, 0, 50, 80
1, 126780, Note_on_c, 0, 81, 80
1, 126828, Note_on_c, 0, 81, 0
1, 126840, Note_on_c, 0, 79, 80
1, 126888, Note_on_c, 0, 79, 0
1, 126900, Note_on_c, 0, 81, 80
1, 126912, Note_on_c, 0, 50, 0
1, 126912, Note_on_c, 0, 38, 0
1, 126948, Note_on_c, 0, 81, 0
1, 126960, Note_on_c, 0, 77, 80
1, 127008, Note_on_c, 0, 77, 0
1, 127020, Note_on_c, 0, 79, 80
1, 127020, Note_on_c, 0, 64, 80
1, 127068, Note_on_c, 0, 64, 0
1, 127068, Note_on_c, 0, 79, 0
1, 127080, Note_on_c, 0, 60, 80
1, 127080, Note_on_c, 0, 76, 80
1, 127128, Note_on_c, 0, 76, 0
1, 127128, Note_on_c, 0, 60, 0
1, 127140, Note_on_c, 0, 77, 80
1, 127140, Note_on_c, 0, 62, 80
1, 127188, Note_on_c, 0, 62, 0
1, 127188, Note_on_c, 0, 77, 0
1, 127200, Note_on_c, 0, 58, 80
1, 127200, Note_on_c, 0, 74, 80
1, 127248, Note_on_c, 0, 74, 0
1, 127248, Note_on_c, 0, 58, 0
1, 127260, Note_on_c, 0, 60, 80
1, 127260, Note_on_c, 0, 76, 80
1, 127308, Note_on_c, 0, 76, 0
1, 127308, Note_on_c, 0, 60, 0
1, 127320, Note_on_c, 0, 57, 80
1, 127320, Note_on_c, 0, 72, 80
1, 127368, Note_on_c, 0, 72, 0
1, 127368, Note_on_c, 0, 57, 0
1, 127380, Note_on_c, 0, 58, 80
1, 127380, Note_on_c, 0, 74, 80
1, 127428, Note_on_c, 0, 74, 0
1, 127428, Note_on_c, 0, 58, 0
1, 127440, Note_on_c, 0, 70, 80
1, 127440, Note_on_c, 0, 55, 80
1, 127488, Note_on_c, 0, 55, 0
1, 127488, Note_on_c, 0, 70, 0
1, 127500, Note_on_c, 0, 57, 80
1, 127500, Note_on_c, 0, 72, 80
1, 127548, Note_on_c, 0, 72, 0
1, 127548, Note_on_c, 0, 57, 0
1, 127560, Note_on_c, 0, 53, 80
1, 127560, Note_on_c, 0, 69, 80
1, 127608, Note_on_c, 0, 69, 0
1, 127608, Note_on_c, 0, 53, 0
1, 127620, Note_on_c, 0, 70, 80
1, 127620, Note_on_c, 0, 55, 80
1, 127668, Note_on_c, 0, 55, 0
1, 127668, Note_on_c, 0, 70, 0
1, 127680, Note_on_c, 0, 67, 80
1, 127680, Note_on_c, 0, 52, 80
1, 127728, Note_on_c, 0, 52, 0
1, 127728, Note_on_c, 0, 67, 0
1, 127740, Note_on_c, 0, 69, 80
1, 127740, Note_on_c, 0, 53, 80
1, 127788, Note_on_c, 0, 53, 0
1, 127788, Note_on_c, 0, 69, 0
1, 127800, Note_on_c, 0, 50, 80
1, 127800, Note_on_c, 0, 65, 80
1, 127848, Note_on_c, 0, 65, 0
1, 127848, Note_on_c, 0, 50, 0
1, 127860, Note_on_c, 0, 67, 80
1, 127860, Note_on_c, 0, 52, 80
1, 127908, Note_on_c, 0, 52, 0
1, 127908, Note_on_c, 0, 67, 0
1, 127920, Note_on_c, 0, 48, 80
1, 127920, Note_on_c, 0, 64, 80
1, 127968, Note_on_c, 0, 64, 0
1, 127968, Note_on_c, 0, 48, 0
1, 127980, Note_on_c, 0, 50, 80
1, 127980, Note_on_c, 0, 65, 80
1, 128028, Note_on_c, 0, 65, 0
1, 128028, Note_on_c, 0, 50, 0
1, 128040, Note_on_c, 0, 46, 80
1, 128040, Note_on_c, 0, 62, 80
1, 128088, Note_on_c, 0, 62, 0
1, 128088, Note_on_c, 0, 46, 0
1, 128100, Note_on_c, 0, 48, 80
1, 128100, Note_on_c, 0, 64, 80
1, 128148, Note_on_c, 0, 64, 0
1, 128148, Note_on_c, 0, 48, 0
1, 128160, Note_on_c, 0, 45, 80
1, 128160, Note_on_c, 0, 60, 80
1, 128160, Note_on_c, 0, 33, 80
1, 128224, Note_on_c, 0, 60, 0
1, 128240, Note_on_c, 0, 72, 80
1, 128304, Note_on_c, 0, 72, 0
1, 128320, Note_on_c, 0, 70, 80
1, 128352, Note_on_c, 0, 33, 0
1, 128352, Note_on_c, 0, 45, 0
1, 128384, Note_on_c, 0, 70, 0
1, 128400, Note_on_c, 0, 69, 80
1, 128464, Note_on_c, 0, 69, 0
1, 128480, Note_on_c, 0, 72, 80
1, 128544, Note_on_c, 0, 72, 0
1, 128560, Note_on_c, 0, 67, 80
1, 128624, Note_on_c, 0, 67, 0
1, 128640, Note_on_c, 0, 65, 80
1, 128704, Note_on_c, 0, 65, 0
1, 128720, Note_on_c, 0, 72, 80
1, 128784, Note_on_c, 0, 72, 0
1, 128800, Note_on_c, 0, 63, 80
1, 128864, Note_on_c, 0, 63, 0
1, 128880, Note_on_c, 0, 34, 80
1, 128880, Note_on_c, 0, 46, 80
1, 128960, Note_on_c, 0, 63, 80
1, 129024, Note_on_c, 0, 63, 0
1, 129040, Note_on_c, 0, 61, 80
1, 129072, Note_on_c, 0, 46, 0
1, 129072, Note_on_c, 0, 34, 0
1, 129104, Note_on_c, 0, 61, 0
1, 129120, Note_on_c, 0, 62, 80
1, 129184, Note_on_c, 0, 62, 0
1, 129200, Note_on_c, 0, 67, 80
1, 129264, Note_on_c, 0, 67, 0
1, 129280, Note_on_c, 0, 66, 80
1, 129344, Note_on_c, 0, 66, 0
1, 129360, Note_on_c, 0, 69, 80
1, 129424, Note_on_c, 0, 69, 0
1, 129440, Note_on_c, 0, 67, 80
1, 129504, Note_on_c, 0, 67, 0
1, 129520, Note_on_c, 0, 70, 80
1, 129584, Note_on_c, 0, 70, 0
1, 129600, Note_on_c, 0, 35, 80
1, 129600, Note_on_c, 0, 47, 80
1, 129680, Note_on_c, 0, 74, 80
1, 129744, Note_on_c, 0, 74, 0
1, 129760, Note_on_c, 0, 72, 80
1, 129792, Note_on_c, 0, 47, 0
1, 129792, Note_on_c, 0, 35, 0
1, 129824, Note_on_c, 0, 72, 0
1, 129840, Note_on_c, 0, 71, 80
1, 129904, Note_on_c, 0, 71, 0
1, 129920, Note_on_c, 0, 74, 80
1, 129984, Note_on_c, 0, 74, 0
1, 130000, Note_on_c, 0, 69, 80
1, 130064, Note_on_c, 0, 69, 0
1, 130080, Note_on_c, 0, 67, 80
1, 130144, Note_on_c, 0, 67, 0
1, 130160, Note_on_c, 0, 74, 80
1, 130224, Note_on_c, 0, 74, 0
1, 130240, Note_on_c, 0, 65, 80
1, 130304, Note_on_c, 0, 65, 0
1, 130320, Note_on_c, 0, 36, 80
1, 130320, Note_on_c, 0, 48, 80
1, 130400, Note_on_c, 0, 65, 80
1, 130464, Note_on_c, 0, 65, 0
1, 130480, Note_on_c, 0, 63, 80
1, 130512, Note_on_c, 0, 48, 0
1, 130512, Note_on_c, 0, 36, 0
1, 130544, Note_on_c, 0, 63, 0
1, 130560, Note_on_c, 0, 64, 80
1, 130624, Note_on_c, 0, 64, 0
1, 130640, Note_on_c, 0, 69, 80
1, 130704, Note_on_c, 0, 69, 0
1, 130720, Note_on_c, 0, 68, 80
1, 130784, Note_on_c, 0, 68, 0
1, 130800, Note_on_c, 0, 71, 80
1, 130864, Note_on_c, 0, 71, 0
1, 130880, Note_on_c, 0, 69, 80
1, 130944, Note_on_c, 0, 69, 0
1, 130960, Note_on_c, 0, 72, 80
1, 131024, Note_on_c, 0, 72, 0
1, 131040, Note_on_c, 0, 37, 80
1, 131040, Note_on_c, 0, 49, 80
1, 131120, Note_on_c, 0, 76, 80
1, 131184, Note_on_c, 0, 76, 0
1, 131200, Note_on_c, 0, 74, 80
1, 131232, Note_on_c, 0, 49, 0
1, 131232, Note_on_c, 0, 37, 0
1, 131264, Note_on_c, 0, 74, 0
1, 131280, Note_on_c, 0, 73, 80
1, 131344, Note_on_c, 0, 73, 0
1, 131360, Note_on_c, 0, 76, 80
1, 131424, Note_on_c, 0, 76, 0
1, 131440, Note_on_c, 0, 70, 80
1, 131504, Note_on_c, 0, 70, 0
1, 131520, Note_on_c, 0, 69, 80
1, 131584, Note_on_c, 0, 69, 0
1, 131600, Note_on_c, 0, 76, 80
1, 131664, Note_on_c, 0, 76, 0
1, 131680, Note_on_c, 0, 67, 80
1, 131744, Note_on_c, 0, 67, 0
1, 131760, Note_on_c, 0, 38, 80
1, 131760, Note_on_c, 0, 50, 80
1, 131840, Note_on_c, 0, 64, 80
1, 131904, Note_on_c, 0, 64, 0
1, 131920, Note_on_c, 0, 65, 80
1, 131952, Note_on_c, 0, 50, 0
1, 131952, Note_on_c, 0, 38, 0
1, 131984, Note_on_c, 0, 65, 0
1, 132000, Note_on_c, 0, 70, 80
1, 132080, Note_on_c, 0, 61, 80
1, 132144, Note_on_c, 0, 61, 0
1, 132160, Note_on_c, 0, 62, 80
1, 132192, Note_on_c, 0, 70, 0
1, 132224, Note_on_c, 0, 62, 0
1, 132240, Note_on_c, 0, 69, 80
1, 132320, Note_on_c, 0, 59, 80
1, 132384, Note_on_c, 0, 59, 0
1, 132400, Note_on_c, 0, 60, 80
1, 132432, Note_on_c, 0, 69, 0
1, 132464, Note_on_c, 0, 60, 0
1, 132480, Note_on_c, 0, 58, 80
1, 132560, Note_on_c, 0, 66, 80
1, 132624, Note_on_c, 0, 66, 0
1, 132640, Note_on_c, 0, 67, 80
1, 132672, Note_on_c, 0, 58, 0
1, 132704, Note_on_c, 0, 67, 0
1, 132720, Note_on_c, 0, 74, 80
1, 132800, Note_on_c, 0, 57, 80
1, 132864, Note_on_c, 0, 57, 0
1, 132880, Note_on_c, 0, 58, 80
1, 132912, Note_on_c, 0, 74, 0
1, 132944, Note_on_c, 0, 58, 0
1, 132960, Note_on_c, 0, 72, 80
1, 133040, Note_on_c, 0, 56, 80
1, 133104, Note_on_c, 0, 56, 0
1, 133120, Note_on_c, 0, 57, 80
1, 133152, Note_on_c, 0, 72, 0
1, 133184, Note_on_c, 0, 57, 0
1, 133200, Note_on_c, 0, 46, 80
1, 133200, Note_on_c, 0, 72, 80
1, 133200, Note_on_c, 0, 55, 80
1, 133200, Note_on_c, 0, 70, 80
1, 133215, Note_on_c, 0, 72, 0
1, 133260, Note_on_c, 0, 69, 80
1, 133296, Note_on_c, 0, 70, 0
1, 133308, Note_on_c, 0, 69, 0
1, 133320, Note_on_c, 0, 67, 80
1, 133368, Note_on_c, 0, 67, 0
1, 133380, Note_on_c, 0, 65, 80
1, 133392, Note_on_c, 0, 55, 0
1, 133392, Note_on_c, 0, 46, 0
1, 133440, Note_on_c, 0, 48, 80
1, 133440, Note_on_c, 0, 57, 80
1, 133572, Note_on_c, 0, 65, 0
1, 133620, Note_on_c, 0, 64, 80
1, 133632, Note_on_c, 0, 57, 0
1, 133632, Note_on_c, 0, 48, 0
1, 133644, Note_on_c, 0, 64, 0
1, 133650, Note_on_c, 0, 65, 80
1, 133674, Note_on_c, 0, 65, 0
1, 133680, Note_on_c, 0, 58, 80
1, 133680, Note_on_c, 0, 64, 80
1, 133704, Note_on_c, 0, 64, 0
1, 133710, Note_on_c, 0, 65, 80
1, 133734, Note_on_c, 0, 65, 0
1, 133740, Note_on_c, 0, 64, 80
1, 133764, Note_on_c, 0, 64, 0
1, 133770, Note_on_c, 0, 65, 80
1, 133794, Note_on_c, 0, 65, 0
1, 133800, Note_on_c, 0, 62, 80
1, 133824, Note_on_c, 0, 62, 0
1, 133830, Note_on_c, 0, 64, 80
1, 133854, Note_on_c, 0, 64, 0
1, 133860, Note_on_c, 0, 64, 80
1, 133872, Note_on_c, 0, 58, 0
1, 133884, Note_on_c, 0, 64, 0
1, 133890, Note_on_c, 0, 65, 80
1, 133914, Note_on_c, 0, 65, 0
1, 133920, Note_on_c, 0, 53, 80
1, 133920, Note_on_c, 0, 65, 80
1, 133968, Note_on_c, 0, 53, 0
1, 133980, Note_on_c, 0, 57, 80
1, 134028, Note_on_c, 0, 57, 0
1, 134040, Note_on_c, 0, 60, 80
1, 134088, Note_on_c, 0, 60, 0
1, 134100, Note_on_c, 0, 65, 80
1, 134112, Note_on_c, 0, 65, 0
1, 134148, Note_on_c, 0, 65, 0
1, 134160, Note_on_c, 0, 69, 80
1, 134220, Note_on_c, 0, 76, 80
1, 134256, Note_on_c, 0, 69, 0
1, 134268, Note_on_c, 0, 76, 0
1, 134280, Note_on_c, 0, 77, 80
1, 134328, Note_on_c, 0, 77, 0
1, 134340, Note_on_c, 0, 79, 80
1, 134385, Note_on_c, 0, 82, 80
1, 134388, Note_on_c, 0, 79, 0
1, 134400, Note_on_c, 0, 82, 0
1, 134400, Note_on_c, 0, 81, 80
1, 134496, Note_on_c, 0, 81, 0
1, 134520, Note_on_c, 0, 79, 80
1, 134568, Note_on_c, 0, 79, 0
1, 134580, Note_on_c, 0, 77, 80
1, 134628, Note_on_c, 0, 77, 0
1, 134640, Note_on_c, 0, 55, 80
1, 134640, Note_on_c, 0, 76, 80
1, 134688, Note_on_c, 0, 55, 0
1, 134700, Note_on_c, 0, 58, 80
1, 134748, Note_on_c, 0, 58, 0
1, 134760, Note_on_c, 0, 62, 80
1, 134808, Note_on_c, 0, 62, 0
1, 134820, Note_on_c, 0, 67, 80
1, 134832, Note_on_c, 0, 76, 0
1, 134868, Note_on_c, 0, 67, 0
1, 134880, Note_on_c, 0, 70, 80
1, 134940, Note_on_c, 0, 78, 80
1, 134976, Note_on_c, 0, 70, 0
1, 134988, Note_on_c, 0, 78, 0
1, 135000, Note_on_c, 0, 79, 80
1, 135048, Note_on_c, 0, 79, 0
1, 135060, Note_on_c, 0, 81, 80
1, 135105, Note_on_c, 0, 84, 80
1, 135108, Note_on_c, 0, 81, 0
1, 135120, Note_on_c, 0, 84, 0
1, 135120, Note_on_c, 0, 82, 80
1, 135216, Note_on_c, 0, 82, 0
1, 135240, Note_on_c, 0, 81, 80
1, 135288, Note_on_c, 0, 81, 0
1, 135300, Note_on_c, 0, 79, 80
1, 135348, Note_on_c, 0, 79, 0
1, 135360, Note_on_c, 0, 57, 80
1, 135360, Note_on_c, 0, 77, 80
1, 135408, Note_on_c, 0, 57, 0
1, 135420, Note_on_c, 0, 60, 80
1, 135468, Note_on_c, 0, 60, 0
1, 135480, Note_on_c, 0, 65, 80
1, 135528, Note_on_c, 0, 65, 0
1, 135540, Note_on_c, 0, 69, 80
1, 135552, Note_on_c, 0, 77, 0
1, 135588, Note_on_c, 0, 69, 0
1, 135600, Note_on_c, 0, 72, 80
1, 135660, Note_on_c, 0, 80, 80
1, 135696, Note_on_c, 0, 72, 0
1, 135708, Note_on_c, 0, 80, 0
1, 135720, Note_on_c, 0, 81, 80
1, 135768, Note_on_c, 0, 81, 0
1, 135780, Note_on_c, 0, 82, 80
1, 135825, Note_on_c, 0, 86, 80
1, 135828, Note_on_c, 0, 82, 0
1, 135840, Note_on_c, 0, 86, 0
1, 135840, Note_on_c, 0, 84, 80
1, 135953, Note_on_c, 0, 84, 0
1, 135960, Note_on_c, 0, 82, 80
1, 136008, Note_on_c, 0, 82, 0
1, 136020, Note_on_c, 0, 81, 80
1, 136068, Note_on_c, 0, 81, 0
1, 136080, Note_on_c, 0, 74, 80
1, 136080, Note_on_c, 0, 78, 80
1, 136080, Note_on_c, 0, 70, 80
1, 136128, Note_on_c, 0, 78, 0
1, 136140, Note_on_c, 0, 79, 80
1, 136188, Note_on_c, 0, 79, 0
1, 136200, Note_on_c, 0, 82, 80
1, 136248, Note_on_c, 0, 82, 0
1, 136260, Note_on_c, 0, 81, 80
1, 136272, Note_on_c, 0, 70, 0
1, 136272, Note_on_c, 0, 74, 0
1, 136308, Note_on_c, 0, 81, 0
1, 136320, Note_on_c, 0, 70, 80
1, 136320, Note_on_c, 0, 78, 80
1, 136320, Note_on_c, 0, 74, 80
1, 136368, Note_on_c, 0, 78, 0
1, 136380, Note_on_c, 0, 79, 80
1, 136428, Note_on_c, 0, 79, 0
1, 136440, Note_on_c, 0, 82, 80
1, 136488, Note_on_c, 0, 82, 0
1, 136500, Note_on_c, 0, 81, 80
1, 136512, Note_on_c, 0, 74, 0
1, 136512, Note_on_c, 0, 70, 0
1, 136545, Note_on_c, 0, 84, 80
1, 136548, Note_on_c, 0, 81, 0
1, 136560, Note_on_c, 0, 84, 0
1, 136560, Note_on_c, 0, 70, 80
1, 136560, Note_on_c, 0, 74, 80
1, 136560, Note_on_c, 0, 82, 80
1, 136673, Note_on_c, 0, 82, 0
1, 136680, Note_on_c, 0, 81, 80
1, 136728, Note_on_c, 0, 81, 0
1, 136740, Note_on_c, 0, 79, 80
1, 136752, Note_on_c, 0, 74, 0
1, 136752, Note_on_c, 0, 70, 0
1, 136788, Note_on_c, 0, 79, 0
1, 136800, Note_on_c, 0, 74, 80
1, 136800, Note_on_c, 0, 77, 80
1, 136800, Note_on_c, 0, 86, 80
1, 136800, Note_on_c, 0, 70, 80
1, 136848, Note_on_c, 0, 86, 0
1, 136860, Note_on_c, 0, 82, 80
1, 136908, Note_on_c, 0, 82, 0
1, 136920, Note_on_c, 0, 81, 80
1, 136968, Note_on_c, 0, 81, 0
1, 136980, Note_on_c, 0, 79, 80
1, 136992, Note_on_c, 0, 70, 0
1, 136992, Note_on_c, 0, 77, 0
1, 136992, Note_on_c, 0, 74, 0
1, 136995, Note_on_c, 0, 79, 80
1, 136995, Note_on_c, 0, 77, 80
1, 137010, Note_on_c, 0, 77, 0
1, 137010, Note_on_c, 0, 79, 0
1, 137010, Note_on_c, 0, 81, 80
1, 137025, Note_on_c, 0, 81, 0
1, 137028, Note_on_c, 0, 79, 0
1, 137040, Note_on_c, 0, 72, 80
1, 137040, Note_on_c, 0, 77, 80
1, 137070, Note_on_c, 0, 79, 80
1, 137094, Note_on_c, 0, 79, 0
1, 137100, Note_on_c, 0, 81, 80
1, 137124, Note_on_c, 0, 81, 0
1, 137130, Note_on_c, 0, 79, 80
1, 137154, Note_on_c, 0, 79, 0
1, 137160, Note_on_c, 0, 81, 80
1, 137184, Note_on_c, 0, 81, 0
1, 137190, Note_on_c, 0, 79, 80
1, 137214, Note_on_c, 0, 79, 0
1, 137220, Note_on_c, 0, 81, 80
1, 137232, Note_on_c, 0, 77, 0
1, 137232, Note_on_c, 0, 72, 0
1, 137244, Note_on_c, 0, 81, 0
1, 137250, Note_on_c, 0, 79, 80
1, 137274, Note_on_c, 0, 79, 0
1, 137280, Note_on_c, 0, 76, 80
1, 137280, Note_on_c, 0, 81, 80
1, 137304, Note_on_c, 0, 81, 0
1, 137310, Note_on_c, 0, 79, 80
1, 137334, Note_on_c, 0, 79, 0
1, 137340, Note_on_c, 0, 81, 80
1, 137364, Note_on_c, 0, 81, 0
1, 137370, Note_on_c, 0, 79, 80
1, 137394, Note_on_c, 0, 79, 0
1, 137400, Note_on_c, 0, 81, 80
1, 137424, Note_on_c, 0, 81, 0
1, 137430, Note_on_c, 0, 79, 80
1, 137454, Note_on_c, 0, 79, 0
1, 137460, Note_on_c, 0, 81, 80
1, 137472, Note_on_c, 0, 76, 0
1, 137484, Note_on_c, 0, 81, 0
1, 137490, Note_on_c, 0, 79, 80
1, 137514, Note_on_c, 0, 79, 0
1, 137520, Note_on_c, 0, 72, 80
1, 137520, Note_on_c, 0, 69, 80
1, 137520, Note_on_c, 0, 41, 80
1, 137520, Note_on_c, 0, 77, 80
1, 137568, Note_on_c, 0, 41, 0
1, 137580, Note_on_c, 0, 45, 80
1, 137628, Note_on_c, 0, 45, 0
1, 137640, Note_on_c, 0, 48, 80
1, 137688, Note_on_c, 0, 48, 0
1, 137700, Note_on_c, 0, 53, 80
1, 137712, Note_on_c, 0, 77, 0
1, 137712, Note_on_c, 0, 69, 0
1, 137712, Note_on_c, 0, 72, 0
1, 137748, Note_on_c, 0, 53, 0
1, 137760, Note_on_c, 0, 57, 80
1, 137820, Note_on_c, 0, 64, 80
1, 137856, Note_on_c, 0, 57, 0
1, 137868, Note_on_c, 0, 64, 0
1, 137880, Note_on_c, 0, 65, 80
1, 137928, Note_on_c, 0, 65, 0
1, 137940, Note_on_c, 0, 67, 80
1, 137985, Note_on_c, 0, 70, 80
1, 137988, Note_on_c, 0, 67, 0
1, 138000, Note_on_c, 0, 70, 0
1, 138000, Note_on_c, 0, 69, 80
1, 138096, Note_on_c, 0, 69, 0
1, 138120, Note_on_c, 0, 67, 80
1, 138168, Note_on_c, 0, 67, 0
1, 138180, Note_on_c, 0, 65, 80
1, 138228, Note_on_c, 0, 65, 0
1, 138240, Note_on_c, 0, 43, 80
1, 138240, Note_on_c, 0, 64, 80
1, 138288, Note_on_c, 0, 43, 0
1, 138300, Note_on_c, 0, 46, 80
1, 138348, Note_on_c, 0, 46, 0
1, 138360, Note_on_c, 0, 52, 80
1, 138408, Note_on_c, 0, 52, 0
1, 138420, Note_on_c, 0, 55, 80
1, 138432, Note_on_c, 0, 64, 0
1, 138468, Note_on_c, 0, 55, 0
1, 138480, Note_on_c, 0, 58, 80
1, 138540, Note_on_c, 0, 66, 80
1, 138576, Note_on_c, 0, 58, 0
1, 138588, Note_on_c, 0, 66, 0
1, 138600, Note_on_c, 0, 67, 80
1, 138648, Note_on_c, 0, 67, 0
1, 138660, Note_on_c, 0, 69, 80
1, 138705, Note_on_c, 0, 72, 80
1, 138708, Note_on_c, 0, 69, 0
1, 138720, Note_on_c, 0, 72, 0
1, 138720, Note_on_c, 0, 70, 80
1, 138816, Note_on_c, 0, 70, 0
1, 138840, Note_on_c, 0, 69, 80
1, 138888, Note_on_c, 0, 69, 0
1, 138900, Note_on_c, 0, 67, 80
1, 138948, Note_on_c, 0, 67, 0
1, 138960, Note_on_c, 0, 45, 80
1, 138960, Note_on_c, 0, 65, 80
1, 139008, Note_on_c, 0, 45, 0
1, 139020, Note_on_c, 0, 48, 80
1, 139068, Note_on_c, 0, 48, 0
1, 139080, Note_on_c, 0, 53, 80
1, 139128, Note_on_c, 0, 53, 0
1, 139140, Note_on_c, 0, 57, 80
1, 139152, Note_on_c, 0, 65, 0
1, 139188, Note_on_c, 0, 57, 0
1, 139200, Note_on_c, 0, 60, 80
1, 139260, Note_on_c, 0, 68, 80
1, 139296, Note_on_c, 0, 60, 0
1, 139308, Note_on_c, 0, 68, 0
1, 139320, Note_on_c, 0, 69, 80
1, 139368, Note_on_c, 0, 69, 0
1, 139380, Note_on_c, 0, 70, 80
1, 139425, Note_on_c, 0, 74, 80
1, 139428, Note_on_c, 0, 70, 0
1, 139440, Note_on_c, 0, 74, 0
1, 139440, Note_on_c, 0, 72, 80
1, 139536, Note_on_c, 0, 72, 0
1, 139560, Note_on_c, 0, 70, 80
1, 139608, Note_on_c, 0, 70, 0
1, 139620, Note_on_c, 0, 69, 80
1, 139668, Note_on_c, 0, 69, 0
1, 139680, Note_on_c, 0, 46, 80
1, 139680, Note_on_c, 0, 67, 80
1, 139728, Note_on_c, 0, 46, 0
1, 139740, Note_on_c, 0, 50, 80
1, 139788, Note_on_c, 0, 50, 0
1, 139800, Note_on_c, 0, 55, 80
1, 139848, Note_on_c, 0, 55, 0
1, 139860, Note_on_c, 0, 58, 80
1, 139872, Note_on_c, 0, 67, 0
1, 139908, Note_on_c, 0, 58, 0
1, 139920, Note_on_c, 0, 62, 80
1, 139968, Note_on_c, 0, 62, 0
1, 139980, Note_on_c, 0, 55, 80
1, 140028, Note_on_c, 0, 55, 0
1, 140040, Note_on_c, 0, 58, 80
1, 140088, Note_on_c, 0, 58, 0
1, 140100, Note_on_c, 0, 62, 80
1, 140148, Note_on_c, 0, 62, 0
1, 140160, Note_on_c, 0, 46, 80
1, 140160, Note_on_c, 0, 67, 80
1, 140208, Note_on_c, 0, 46, 0
1, 140220, Note_on_c, 0, 50, 80
1, 140256, Note_on_c, 0, 67, 0
1, 140268, Note_on_c, 0, 50, 0
1, 140280, Note_on_c, 0, 55, 80
1, 140328, Note_on_c, 0, 55, 0
1, 140400, Note_on_c, 0, 58, 80
1, 140460, Note_on_c, 0, 62, 80
1, 140496, Note_on_c, 0, 58, 0
1, 140508, Note_on_c, 0, 62, 0
1, 140520, Note_on_c, 0, 67, 80
1, 140568, Note_on_c, 0, 67, 0
1, 140580, Note_on_c, 0, 70, 80
1, 140628, Note_on_c, 0, 70, 0
1, 140640, Note_on_c, 0, 74, 80
1, 140700, Note_on_c, 0, 58, 80
1, 140736, Note_on_c, 0, 74, 0
1, 140748, Note_on_c, 0, 58, 0
1, 140760, Note_on_c, 0, 62, 80
1, 140808, Note_on_c, 0, 62, 0
1, 140820, Note_on_c, 0, 67, 80
1, 140868, Note_on_c, 0, 67, 0
1, 140880, Note_on_c, 0, 70, 80
1, 140940, Note_on_c, 0, 76, 80
1, 140976, Note_on_c, 0, 70, 0
1, 140988, Note_on_c, 0, 76, 0
1, 141000, Note_on_c, 0, 77, 80
1, 141048, Note_on_c, 0, 77, 0
1, 141060, Note_on_c, 0, 73, 80
1, 141108, Note_on_c, 0, 73, 0
1, 141120, Note_on_c, 0, 74, 80
1, 141168, Note_on_c, 0, 74, 0
1, 141180, Note_on_c, 0, 69, 80
1, 141228, Note_on_c, 0, 69, 0
1, 141240, Note_on_c, 0, 70, 80
1, 141288, Note_on_c, 0, 70, 0
1, 141300, Note_on_c, 0, 67, 80
1, 141348, Note_on_c, 0, 67, 0
1, 141360, Note_on_c, 0, 65, 80
1, 141360, Note_on_c, 0, 53, 80
1, 141360, Note_on_c, 0, 48, 80
1, 141384, Note_on_c, 0, 65, 0
1, 141390, Note_on_c, 0, 67, 80
1, 141414, Note_on_c, 0, 67, 0
1, 141420, Note_on_c, 0, 69, 80
1, 141444, Note_on_c, 0, 69, 0
1, 141450, Note_on_c, 0, 67, 80
1, 141474, Note_on_c, 0, 67, 0
1, 141480, Note_on_c, 0, 69, 80
1, 141504, Note_on_c, 0, 69, 0
1, 141510, Note_on_c, 0, 67, 80
1, 141534, Note_on_c, 0, 67, 0
1, 141540, Note_on_c, 0, 69, 80
1, 141552, Note_on_c, 0, 48, 0
1, 141552, Note_on_c, 0, 53, 0
1, 141564, Note_on_c, 0, 69, 0
1, 141570, Note_on_c, 0, 67, 80
1, 141594, Note_on_c, 0, 67, 0
1, 141600, Note_on_c, 0, 52, 80
1, 141600, Note_on_c, 0, 69, 80
1, 141624, Note_on_c, 0, 69, 0
1, 141630, Note_on_c, 0, 67, 80
1, 141654, Note_on_c, 0, 67, 0
1, 141660, Note_on_c, 0, 69, 80
1, 141684, Note_on_c, 0, 69, 0
1, 141690, Note_on_c, 0, 67, 80
1, 141714, Note_on_c, 0, 67, 0
1, 141720, Note_on_c, 0, 69, 80
1, 141744, Note_on_c, 0, 69, 0
1, 141750, Note_on_c, 0, 67, 80
1, 141774, Note_on_c, 0, 67, 0
1, 141780, Note_on_c, 0, 69, 80
1, 141792, Note_on_c, 0, 52, 0
1, 141804, Note_on_c, 0, 69, 0
1, 141810, Note_on_c, 0, 67, 80
1, 141834, Note_on_c, 0, 67, 0
1, 141840, Note_on_c, 0, 53, 80
1, 141840, Note_on_c, 0, 65, 80
1, 141888, Note_on_c, 0, 53, 0
1, 141900, Note_on_c, 0, 60, 80
1, 141936, Note_on_c, 0, 65, 0
1, 141948, Note_on_c, 0, 60, 0
1, 141960, Note_on_c, 0, 57, 80
1, 141960, Note_on_c, 0, 69, 80
1, 142008, Note_on_c, 0, 57, 0
1, 142020, Note_on_c, 0, 60, 80
1, 142056, Note_on_c, 0, 69, 0
1, 142068, Note_on_c, 0, 60, 0
1, 142080, Note_on_c, 0, 72, 80
1, 142080, Note_on_c, 0, 53, 80
1, 142128, Note_on_c, 0, 53, 0
1, 142140, Note_on_c, 0, 60, 80
1, 142188, Note_on_c, 0, 60, 0
1, 142200, Note_on_c, 0, 57, 80
1, 142248, Note_on_c, 0, 57, 0
1, 142260, Note_on_c, 0, 60, 80
1, 142272, Note_on_c, 0, 72, 0
1, 142308, Note_on_c, 0, 60, 0
1, 142320, Note_on_c, 0, 48, 80
1, 142320, Note_on_c, 0, 76, 80
1, 142344, Note_on_c, 0, 76, 0
1, 142350, Note_on_c, 0, 77, 80
1, 142368, Note_on_c, 0, 48, 0
1, 142374, Note_on_c, 0, 77, 0
1, 142380, Note_on_c, 0, 58, 80
1, 142380, Note_on_c, 0, 76, 80
1, 142404, Note_on_c, 0, 76, 0
1, 142410, Note_on_c, 0, 77, 80
1, 142428, Note_on_c, 0, 58, 0
1, 142434, Note_on_c, 0, 77, 0
1, 142440, Note_on_c, 0, 55, 80
1, 142440, Note_on_c, 0, 76, 80
1, 142464, Note_on_c, 0, 76, 0
1, 142470, Note_on_c, 0, 77, 80
1, 142488, Note_on_c, 0, 55, 0
1, 142494, Note_on_c, 0, 77, 0
1, 142500, Note_on_c, 0, 58, 80
1, 142500, Note_on_c, 0, 74, 80
1, 142524, Note_on_c, 0, 74, 0
1, 142530, Note_on_c, 0, 76, 80
1, 142548, Note_on_c, 0, 58, 0
1, 142554, Note_on_c, 0, 76, 0
1, 142560, Note_on_c, 0, 53, 80
1, 142560, Note_on_c, 0, 77, 80
1, 142608, Note_on_c, 0, 53, 0
1, 142620, Note_on_c, 0, 60, 80
1, 142656, Note_on_c, 0, 77, 0
1, 142668, Note_on_c, 0, 60, 0
1, 142680, Note_on_c, 0, 57, 80
1, 142680, Note_on_c, 0, 69, 80
1, 142728, Note_on_c, 0, 57, 0
1, 142740, Note_on_c, 0, 60, 80
1, 142776, Note_on_c, 0, 69, 0
1, 142788, Note_on_c, 0, 60, 0
1, 142800, Note_on_c, 0, 72, 80
1, 142800, Note_on_c, 0, 53, 80
1, 142848, Note_on_c, 0, 53, 0
1, 142860, Note_on_c, 0, 60, 80
1, 142908, Note_on_c, 0, 60, 0
1, 142920, Note_on_c, 0, 57, 80
1, 142968, Note_on_c, 0, 57, 0
1, 142980, Note_on_c, 0, 60, 80
1, 142992, Note_on_c, 0, 72, 0
1, 143028, Note_on_c, 0, 60, 0
1, 143040, Note_on_c, 0, 48, 80
1, 143040, Note_on_c, 0, 76, 80
1, 143064, Note_on_c, 0, 76, 0
1, 143070, Note_on_c, 0, 77, 80
1, 143088, Note_on_c, 0, 48, 0
1, 143094, Note_on_c, 0, 77, 0
1, 143100, Note_on_c, 0, 58, 80
1, 143100, Note_on_c, 0, 76, 80
1, 143124, Note_on_c, 0, 76, 0
1, 143130, Note_on_c, 0, 77, 80
1, 143148, Note_on_c, 0, 58, 0
1, 143154, Note_on_c, 0, 77, 0
1, 143160, Note_on_c, 0, 55, 80
1, 143160, Note_on_c, 0, 76, 80
1, 143184, Note_on_c, 0, 76, 0
1, 143190, Note_on_c, 0, 77, 80
1, 143208, Note_on_c, 0, 55, 0
1, 143214, Note_on_c, 0, 77, 0
1, 143220, Note_on_c, 0, 58, 80
1, 143220, Note_on_c, 0, 74, 80
1, 143244, Note_on_c, 0, 74, 0
1, 143250, Note_on_c, 0, 76, 80
1, 143268, Note_on_c, 0, 58, 0
1, 143274, Note_on_c, 0, 76, 0
1, 143280, Note_on_c, 0, 53, 80
1, 143280, Note_on_c, 0, 57, 80
1, 143280, Note_on_c, 0, 77, 80
1, 143472, Note_on_c, 0, 77, 0
1, 143472, Note_on_c, 0, 57, 0
1, 143472, Note_on_c, 0, 53, 0
1, 143520, Note_on_c, 0, 41, 80
1, 143520, Note_on_c, 0, 53, 80
1, 143520, Note_on_c, 0, 57, 80
1, 143520, Note_on_c, 0, 60, 80
1, 143520, Note_on_c, 0, 65, 80
1, 143712, Note_on_c, 0, 65, 0
1, 143712, Note_on_c, 0, 60, 0
1, 143712, Note_on_c, 0, 57, 0
1, 143712, Note_on_c, 0, 53, 0
1, 143712, Note_on_c, 0, 41, 0
1, 143722, End_track
0, 0, End_of_file