0, 0, Header, 0, 1, 480
1, 0, Start_track
1, 0, Tempo, 666666
1, 0, Note_on_c, 0, 72, 72
1, 0, Note_on_c, 1, 56, 73
1, 0, Note_on_c, 1, 53, 72
1, 60, Note_on_c, 0, 72, 0
1, 60, Note_on_c, 0, 73, 70
1, 120, Note_on_c, 0, 73, 0
1, 120, Note_on_c, 0, 72, 70
1, 180, Note_on_c, 0, 72, 0
1, 180, Note_on_c, 0, 73, 73
1, 240, Note_on_c, 0, 73, 0
1, 240, Note_on_c, 0, 72, 76
1, 300, Note_on_c, 0, 72, 0
1, 300, Note_on_c, 0, 73, 79
1, 360, Note_on_c, 0, 73, 0
1, 360, Note_on_c, 0, 73, 77
1, 480, Note_on_c, 0, 73, 0
1, 480, Note_on_c, 0, 72, 75
1, 480, Note_on_c, 1, 56, 0
1, 480, Note_on_c, 1, 53, 0
1, 720, Note_on_c, 0, 72, 0
1, 720, Note_on_c, 0, 72, 74
1, 1200, Note_on_c, 0, 72, 0
1, 1200, Note_on_c, 0, 77, 72
1, 1440, Note_on_c, 0, 77, 0
1, 1440, Note_on_c, 0, 77, 77
1, 1440, Note_on_c, 0, 67, 79
1, 1440, Note_on_c, 1, 61, 71
1, 1440, Note_on_c, 1, 58, 72
1, 1800, Note_on_c, 0, 67, 0
1, 1800, Note_on_c, 0, 68, 74
1, 1920, Note_on_c, 0, 68, 0
1, 1920, Note_on_c, 0, 67, 73
1, 2160, Note_on_c, 0, 67, 0
1, 2160, Note_on_c, 0, 67, 73
1, 2400, Note_on_c, 0, 77, 0
1, 2400, Note_on_c, 0, 67, 0
1, 2400, Note_on_c, 0, 75, 73
1, 2400, Note_on_c, 1, 61, 0
1, 2400, Note_on_c, 1, 58, 0
1, 2640, Note_on_c, 0, 75, 0
1, 2640, Note_on_c, 0, 73, 77
1, 2880, Note_on_c, 0, 73, 0
1, 2880, Note_on_c, 0, 72, 52
1, 2880, Note_on_c, 0, 67, 47
1, 2880, Note_on_c, 0, 64, 54
1, 2880, Note_on_c, 1, 60, 53
1, 3240, Note_on_c, 1, 60, 0
1, 3240, Note_on_c, 1, 61, 48
1, 3360, Note_on_c, 1, 61, 0
1, 3360, Note_on_c, 1, 60, 48
1, 3600, Note_on_c, 1, 60, 0
1, 3600, Note_on_c, 1, 60, 47
1, 3840, Note_on_c, 0, 67, 0
1, 3840, Note_on_c, 0, 64, 0
1, 3840, Note_on_c, 0, 68, 51
1, 3840, Note_on_c, 0, 65, 53
1, 4080, Note_on_c, 0, 68, 0
1, 4080, Note_on_c, 0, 65, 0
1, 4080, Note_on_c, 0, 70, 48
1, 4080, Note_on_c, 0, 67, 48
1, 4320, Note_on_c, 0, 72, 0
1, 4320, Note_on_c, 0, 67, 0
1, 4320, Note_on_c, 0, 70, 0
1, 4320, Note_on_c, 0, 67, 72
1, 4320, Note_on_c, 0, 70, 76
1, 4320, Note_on_c, 1, 60, 0
1, 4320, Note_on_c, 1, 49, 79
1, 4320, Note_on_c, 1, 61, 76
1, 4680, Note_on_c, 0, 67, 0
1, 4680, Note_on_c, 0, 70, 0
1, 4680, Note_on_c, 0, 65, 71
1, 4680, Note_on_c, 0, 68, 73
1, 4800, Note_on_c, 0, 65, 0
1, 4800, Note_on_c, 0, 68, 0
1, 4800, Note_on_c, 0, 64, 72
1, 4800, Note_on_c, 0, 67, 76
1, 5040, Note_on_c, 0, 64, 0
1, 5040, Note_on_c, 0, 67, 0
1, 5040, Note_on_c, 0, 65, 79
1, 5040, Note_on_c, 0, 68, 78
1, 5400, Note_on_c, 1, 61, 0
1, 5400, Note_on_c, 1, 60, 74
1, 5520, Note_on_c, 1, 60, 0
1, 5520, Note_on_c, 1, 59, 73
1, 5760, Note_on_c, 1, 49, 0
1, 5760, Note_on_c, 1, 59, 0
1, 5760, Note_on_c, 1, 48, 46
1, 5760, Note_on_c, 1, 60, 48
1, 6120, Note_on_c, 0, 65, 0
1, 6120, Note_on_c, 0, 68, 0
1, 6120, Note_on_c, 0, 67, 54
1, 6120, Note_on_c, 0, 70, 52
1, 6240, Note_on_c, 0, 67, 0
1, 6240, Note_on_c, 0, 70, 0
1, 6240, Note_on_c, 0, 65, 50
1, 6240, Note_on_c, 0, 68, 53
1, 6480, Note_on_c, 0, 65, 0
1, 6480, Note_on_c, 0, 68, 0
1, 6480, Note_on_c, 0, 64, 45
1, 6480, Note_on_c, 0, 67, 53
1, 6720, Note_on_c, 0, 64, 0
1, 6720, Note_on_c, 0, 67, 0
1, 6720, Note_on_c, 0, 65, 46
1, 6720, Note_on_c, 0, 68, 49
1, 6960, Note_on_c, 0, 65, 0
1, 6960, Note_on_c, 0, 68, 0
1, 6960, Note_on_c, 0, 67, 50
1, 6960, Note_on_c, 0, 70, 45
1, 7200, Note_on_c, 0, 67, 0
1, 7200, Note_on_c, 0, 70, 0
1, 7200, Note_on_c, 0, 67, 75
1, 7200, Note_on_c, 0, 70, 77
1, 7200, Note_on_c, 1, 48, 0
1, 7200, Note_on_c, 1, 60, 0
1, 7200, Note_on_c, 1, 49, 77
1, 7200, Note_on_c, 1, 61, 76
1, 7560, Note_on_c, 0, 67, 0
1, 7560, Note_on_c, 0, 70, 0
1, 7560, Note_on_c, 0, 65, 74
1, 7560, Note_on_c, 0, 68, 70
1, 7680, Note_on_c, 0, 65, 0
1, 7680, Note_on_c, 0, 68, 0
1, 7680, Note_on_c, 0, 64, 77
1, 7680, Note_on_c, 0, 67, 72
1, 7920, Note_on_c, 0, 64, 0
1, 7920, Note_on_c, 0, 67, 0
1, 7920, Note_on_c, 0, 65, 70
1, 7920, Note_on_c, 0, 68, 74
1, 8280, Note_on_c, 1, 61, 0
1, 8280, Note_on_c, 1, 60, 75
1, 8400, Note_on_c, 1, 60, 0
1, 8400, Note_on_c, 1, 59, 75
1, 8640, Note_on_c, 1, 49, 0
1, 8640, Note_on_c, 1, 59, 0
1, 8640, Note_on_c, 1, 48, 52
1, 8640, Note_on_c, 1, 60, 46
1, 9000, Note_on_c, 0, 65, 0
1, 9000, Note_on_c, 0, 68, 0
1, 9000, Note_on_c, 0, 64, 54
1, 9000, Note_on_c, 0, 67, 48
1, 9120, Note_on_c, 0, 64, 0
1, 9120, Note_on_c, 0, 67, 0
1, 9120, Note_on_c, 0, 65, 49
1, 9120, Note_on_c, 0, 68, 52
1, 9360, Note_on_c, 0, 65, 0
1, 9360, Note_on_c, 0, 68, 0
1, 9360, Note_on_c, 0, 67, 47
1, 9360, Note_on_c, 0, 70, 45
1, 9600, Note_on_c, 0, 67, 0
1, 9600, Note_on_c, 0, 70, 0
1, 9600, Note_on_c, 0, 65, 46
1, 9600, Note_on_c, 0, 68, 54
1, 9840, Note_on_c, 0, 65, 0
1, 9840, Note_on_c, 0, 68, 0
1, 9840, Note_on_c, 0, 64, 46
1, 9840, Note_on_c, 0, 67, 47
1, 9840, Note_on_c, 1, 60, 0
1, 9840, Note_on_c, 1, 58, 47
1, 10080, Note_on_c, 0, 64, 0
1, 10080, Note_on_c, 0, 67, 0
1, 10080, Note_on_c, 0, 64, 78
1, 10080, Note_on_c, 0, 67, 75
1, 10080, Note_on_c, 1, 48, 0
1, 10080, Note_on_c, 1, 58, 0
1, 10080, Note_on_c, 1, 53, 72
1, 10080, Note_on_c, 1, 58, 78
1, 10800, Note_on_c, 0, 64, 0
1, 10800, Note_on_c, 0, 67, 0
1, 10800, Note_on_c, 0, 65, 77
1, 10800, Note_on_c, 1, 58, 0
1, 10800, Note_on_c, 1, 56, 72
1, 11040, Note_on_c, 0, 65, 0
1, 11040, Note_on_c, 1, 53, 0
1, 11040, Note_on_c, 1, 56, 0
1, 11520, Note_on_c, 0, 68, 48
1, 11520, Note_on_c, 1, 51, 50
1, 11640, Note_on_c, 1, 51, 0
1, 11640, Note_on_c, 1, 56, 47
1, 11760, Note_on_c, 0, 68, 0
1, 11760, Note_on_c, 1, 56, 0
1, 11760, Note_on_c, 1, 60, 48
1, 11880, Note_on_c, 1, 60, 0
1, 11880, Note_on_c, 1, 56, 47
1, 12000, Note_on_c, 0, 68, 51
1, 12000, Note_on_c, 1, 56, 0
1, 12000, Note_on_c, 1, 51, 48
1, 12120, Note_on_c, 1, 51, 0
1, 12120, Note_on_c, 1, 56, 49
1, 12240, Note_on_c, 0, 68, 0
1, 12240, Note_on_c, 0, 70, 47
1, 12240, Note_on_c, 1, 56, 0
1, 12240, Note_on_c, 1, 51, 45
1, 12360, Note_on_c, 1, 51, 0
1, 12360, Note_on_c, 1, 55, 52
1, 12480, Note_on_c, 0, 70, 0
1, 12480, Note_on_c, 1, 55, 0
1, 12480, Note_on_c, 1, 58, 46
1, 12600, Note_on_c, 1, 58, 0
1, 12600, Note_on_c, 1, 55, 51
1, 12720, Note_on_c, 0, 70, 54
1, 12720, Note_on_c, 1, 55, 0
1, 12720, Note_on_c, 1, 51, 45
1, 12840, Note_on_c, 1, 51, 0
1, 12840, Note_on_c, 1, 55, 54
1, 12960, Note_on_c, 0, 70, 0
1, 12960, Note_on_c, 0, 70, 72
1, 12960, Note_on_c, 1, 55, 0
1, 12960, Note_on_c, 1, 51, 77
1, 13080, Note_on_c, 1, 51, 0
1, 13080, Note_on_c, 1, 55, 77
1, 13200, Note_on_c, 1, 55, 0
1, 13200, Note_on_c, 1, 58, 79
1, 13320, Note_on_c, 1, 58, 0
1, 13320, Note_on_c, 1, 55, 75
1, 13440, Note_on_c, 1, 55, 0
1, 13440, Note_on_c, 1, 51, 76
1, 13560, Note_on_c, 1, 51, 0
1, 13560, Note_on_c, 1, 55, 76
1, 13680, Note_on_c, 0, 70, 0
1, 13680, Note_on_c, 0, 72, 76
1, 13680, Note_on_c, 1, 55, 0
1, 13680, Note_on_c, 1, 51, 73
1, 13800, Note_on_c, 1, 51, 0
1, 13800, Note_on_c, 1, 56, 77
1, 13920, Note_on_c, 0, 72, 0
1, 13920, Note_on_c, 1, 56, 0
1, 13920, Note_on_c, 1, 60, 72
1, 14040, Note_on_c, 1, 60, 0
1, 14040, Note_on_c, 1, 56, 74
1, 14160, Note_on_c, 0, 68, 75
1, 14160, Note_on_c, 1, 56, 0
1, 14160, Note_on_c, 1, 51, 71
1, 14280, Note_on_c, 1, 51, 0
1, 14280, Note_on_c, 1, 56, 74
1, 14400, Note_on_c, 0, 68, 0
1, 14400, Note_on_c, 0, 73, 77
1, 14400, Note_on_c, 1, 56, 0
1, 14400, Note_on_c, 1, 53, 77
1, 14520, Note_on_c, 1, 53, 0
1, 14520, Note_on_c, 1, 56, 77
1, 14640, Note_on_c, 0, 73, 0
1, 14640, Note_on_c, 1, 56, 0
1, 14640, Note_on_c, 1, 61, 72
1, 14760, Note_on_c, 1, 61, 0
1, 14760, Note_on_c, 1, 56, 76
1, 14880, Note_on_c, 0, 72, 76
1, 14880, Note_on_c, 1, 56, 0
1, 14880, Note_on_c, 1, 51, 71
1, 15000, Note_on_c, 1, 51, 0
1, 15000, Note_on_c, 1, 56, 72
1, 15120, Note_on_c, 0, 72, 0
1, 15120, Note_on_c, 0, 77, 79
1, 15120, Note_on_c, 1, 56, 0
1, 15120, Note_on_c, 1, 50, 71
1, 15240, Note_on_c, 1, 50, 0
1, 15240, Note_on_c, 1, 53, 73
1, 15360, Note_on_c, 0, 77, 0
1, 15360, Note_on_c, 1, 53, 0
1, 15360, Note_on_c, 1, 58, 71
1, 15480, Note_on_c, 1, 58, 0
1, 15480, Note_on_c, 1, 53, 77
1, 15600, Note_on_c, 0, 65, 47
1, 15600, Note_on_c, 1, 53, 0
1, 15600, Note_on_c, 1, 50, 45
1, 15720, Note_on_c, 1, 50, 0
1, 15720, Note_on_c, 1, 53, 49
1, 15840, Note_on_c, 0, 65, 0
1, 15840, Note_on_c, 0, 68, 49
1, 15840, Note_on_c, 1, 53, 0
1, 15840, Note_on_c, 1, 51, 49
1, 15960, Note_on_c, 1, 51, 0
1, 15960, Note_on_c, 1, 56, 50
1, 16080, Note_on_c, 1, 56, 0
1, 16080, Note_on_c, 1, 60, 49
1, 16200, Note_on_c, 1, 60, 0
1, 16200, Note_on_c, 1, 56, 47
1, 16320, Note_on_c, 1, 56, 0
1, 16320, Note_on_c, 1, 51, 49
1, 16440, Note_on_c, 1, 51, 0
1, 16440, Note_on_c, 1, 56, 50
1, 16560, Note_on_c, 0, 68, 0
1, 16560, Note_on_c, 0, 67, 53
1, 16560, Note_on_c, 1, 56, 0
1, 16560, Note_on_c, 1, 51, 49
1, 16680, Note_on_c, 1, 51, 0
1, 16680, Note_on_c, 1, 55, 47
1, 16800, Note_on_c, 0, 67, 0
1, 16800, Note_on_c, 1, 55, 0
1, 16800, Note_on_c, 1, 58, 48
1, 16920, Note_on_c, 1, 58, 0
1, 16920, Note_on_c, 1, 55, 46
1, 17040, Note_on_c, 0, 75, 52
1, 17040, Note_on_c, 1, 55, 0
1, 17040, Note_on_c, 1, 51, 49
1, 17160, Note_on_c, 1, 51, 0
1, 17160, Note_on_c, 1, 55, 46
1, 17280, Note_on_c, 0, 75, 0
1, 17280, Note_on_c, 0, 74, 71
1, 17280, Note_on_c, 1, 55, 0
1, 17280, Note_on_c, 1, 52, 71
1, 17400, Note_on_c, 1, 52, 0
1, 17400, Note_on_c, 1, 56, 74
1, 17520, Note_on_c, 1, 56, 0
1, 17520, Note_on_c, 1, 59, 79
1, 17640, Note_on_c, 1, 59, 0
1, 17640, Note_on_c, 1, 56, 76
1, 17760, Note_on_c, 1, 56, 0
1, 17760, Note_on_c, 1, 52, 77
1, 17880, Note_on_c, 1, 52, 0
1, 17880, Note_on_c, 1, 56, 77
1, 18000, Note_on_c, 0, 74, 0
1, 18000, Note_on_c, 0, 80, 79
1, 18000, Note_on_c, 1, 56, 0
1, 18000, Note_on_c, 1, 52, 75
1, 18120, Note_on_c, 1, 52, 0
1, 18120, Note_on_c, 1, 56, 76
1, 18240, Note_on_c, 0, 80, 0
1, 18240, Note_on_c, 1, 56, 0
1, 18240, Note_on_c, 1, 59, 70
1, 18360, Note_on_c, 1, 59, 0
1, 18360, Note_on_c, 1, 56, 77
1, 18480, Note_on_c, 1, 56, 0
1, 18480, Note_on_c, 1, 52, 75
1, 18600, Note_on_c, 1, 52, 0
1, 18600, Note_on_c, 1, 56, 75
1, 18720, Note_on_c, 0, 79, 52
1, 18720, Note_on_c, 1, 56, 0
1, 18720, Note_on_c, 1, 51, 47
1, 18840, Note_on_c, 1, 51, 0
1, 18840, Note_on_c, 1, 55, 45
1, 18960, Note_on_c, 1, 55, 0
1, 18960, Note_on_c, 1, 58, 50
1, 19080, Note_on_c, 1, 58, 0
1, 19080, Note_on_c, 1, 55, 45
1, 19200, Note_on_c, 1, 55, 0
1, 19200, Note_on_c, 1, 51, 54
1, 19320, Note_on_c, 1, 51, 0
1, 19320, Note_on_c, 1, 55, 53
1, 19440, Note_on_c, 0, 79, 0
1, 19440, Note_on_c, 0, 82, 51
1, 19440, Note_on_c, 1, 55, 0
1, 19440, Note_on_c, 1, 51, 47
1, 19560, Note_on_c, 1, 51, 0
1, 19560, Note_on_c, 1, 55, 45
1, 19680, Note_on_c, 0, 82, 0
1, 19680, Note_on_c, 1, 55, 0
1, 19680, Note_on_c, 1, 58, 46
1, 19800, Note_on_c, 1, 58, 0
1, 19800, Note_on_c, 1, 55, 48
1, 19920, Note_on_c, 1, 55, 0
1, 19920, Note_on_c, 1, 63, 48
1, 20040, Note_on_c, 1, 63, 0
1, 20040, Note_on_c, 1, 58, 46
1, 20160, Note_on_c, 0, 83, 77
1, 20160, Note_on_c, 1, 58, 0
1, 20160, Note_on_c, 1, 62, 72
1, 20280, Note_on_c, 1, 62, 0
1, 20280, Note_on_c, 1, 65, 77
1, 20400, Note_on_c, 1, 65, 0
1, 20400, Note_on_c, 1, 68, 72
1, 20520, Note_on_c, 1, 68, 0
1, 20520, Note_on_c, 1, 65, 77
1, 20640, Note_on_c, 1, 65, 0
1, 20640, Note_on_c, 1, 62, 77
1, 20760, Note_on_c, 1, 62, 0
1, 20760, Note_on_c, 1, 65, 78
1, 20880, Note_on_c, 0, 83, 0
1, 20880, Note_on_c, 0, 80, 77
1, 20880, Note_on_c, 1, 65, 0
1, 20880, Note_on_c, 1, 62, 78
1, 21000, Note_on_c, 1, 62, 0
1, 21000, Note_on_c, 1, 65, 76
1, 21120, Note_on_c, 0, 80, 0
1, 21120, Note_on_c, 1, 65, 0
1, 21120, Note_on_c, 1, 71, 76
1, 21240, Note_on_c, 1, 71, 0
1, 21240, Note_on_c, 1, 65, 75
1, 21360, Note_on_c, 1, 65, 0
1, 21360, Note_on_c, 1, 62, 76
1, 21480, Note_on_c, 1, 62, 0
1, 21480, Note_on_c, 1, 65, 70
1, 21600, Note_on_c, 0, 87, 51
1, 21600, Note_on_c, 1, 65, 0
1, 21600, Note_on_c, 1, 61, 50
1, 21720, Note_on_c, 1, 61, 0
1, 21720, Note_on_c, 1, 67, 45
1, 21840, Note_on_c, 1, 67, 0
1, 21840, Note_on_c, 1, 70, 47
1, 21960, Note_on_c, 1, 70, 0
1, 21960, Note_on_c, 1, 67, 46
1, 22080, Note_on_c, 1, 67, 0
1, 22080, Note_on_c, 1, 61, 49
1, 22200, Note_on_c, 1, 61, 0
1, 22200, Note_on_c, 1, 67, 47
1, 22320, Note_on_c, 0, 87, 0
1, 22320, Note_on_c, 0, 79, 45
1, 22320, Note_on_c, 1, 67, 0
1, 22320, Note_on_c, 1, 61, 47
1, 22440, Note_on_c, 1, 61, 0
1, 22440, Note_on_c, 1, 63, 47
1, 22560, Note_on_c, 0, 79, 0
1, 22560, Note_on_c, 1, 63, 0
1, 22560, Note_on_c, 1, 70, 54
1, 22680, Note_on_c, 1, 70, 0
1, 22680, Note_on_c, 1, 63, 54
1, 22800, Note_on_c, 1, 63, 0
1, 22800, Note_on_c, 1, 61, 48
1, 22920, Note_on_c, 1, 61, 0
1, 22920, Note_on_c, 1, 63, 51
1, 23040, Note_on_c, 1, 63, 0
1, 23040, Note_on_c, 1, 60, 54
1, 23160, Note_on_c, 1, 60, 0
1, 23160, Note_on_c, 1, 63, 45
1, 23280, Note_on_c, 0, 80, 47
1, 23280, Note_on_c, 1, 63, 0
1, 23280, Note_on_c, 1, 68, 54
1, 23400, Note_on_c, 1, 68, 0
1, 23400, Note_on_c, 1, 63, 48
1, 23520, Note_on_c, 0, 80, 0
1, 23520, Note_on_c, 0, 80, 45
1, 23520, Note_on_c, 1, 63, 0
1, 23520, Note_on_c, 1, 60, 47
1, 23640, Note_on_c, 1, 60, 0
1, 23640, Note_on_c, 1, 63, 53
1, 23760, Note_on_c, 0, 80, 0
1, 23760, Note_on_c, 1, 63, 0
1, 23760, Note_on_c, 1, 61, 54
1, 23880, Note_on_c, 1, 61, 0
1, 23880, Note_on_c, 1, 65, 54
1, 24000, Note_on_c, 0, 77, 48
1, 24000, Note_on_c, 1, 65, 0
1, 24000, Note_on_c, 1, 68, 46
1, 24120, Note_on_c, 1, 68, 0
1, 24120, Note_on_c, 1, 65, 48
1, 24240, Note_on_c, 0, 77, 0
1, 24240, Note_on_c, 0, 77, 45
1, 24240, Note_on_c, 1, 65, 0
1, 24240, Note_on_c, 1, 61, 47
1, 24360, Note_on_c, 1, 61, 0
1, 24360, Note_on_c, 1, 65, 45
1, 24480, Note_on_c, 0, 77, 0
1, 24480, Note_on_c, 1, 65, 0
1, 24480, Note_on_c, 1, 63, 47
1, 24600, Note_on_c, 1, 63, 0
1, 24600, Note_on_c, 1, 68, 46
1, 24720, Note_on_c, 0, 75, 48
1, 24720, Note_on_c, 1, 68, 0
1, 24720, Note_on_c, 1, 72, 48
1, 24840, Note_on_c, 1, 72, 0
1, 24840, Note_on_c, 1, 68, 46
1, 24960, Note_on_c, 0, 75, 0
1, 24960, Note_on_c, 0, 75, 51
1, 24960, Note_on_c, 1, 68, 0
1, 24960, Note_on_c, 1, 63, 54
1, 25080, Note_on_c, 1, 63, 0
1, 25080, Note_on_c, 1, 68, 47
1, 25200, Note_on_c, 0, 75, 0
1, 25200, Note_on_c, 1, 68, 0
1, 25200, Note_on_c, 1, 63, 51
1, 25320, Note_on_c, 1, 63, 0
1, 25320, Note_on_c, 1, 70, 54
1, 25440, Note_on_c, 0, 79, 49
1, 25440, Note_on_c, 1, 70, 0
1, 25440, Note_on_c, 1, 73, 51
1, 25560, Note_on_c, 1, 73, 0
1, 25560, Note_on_c, 1, 70, 49
1, 25680, Note_on_c, 0, 79, 0
1, 25680, Note_on_c, 0, 79, 53
1, 25680, Note_on_c, 1, 70, 0
1, 25680, Note_on_c, 1, 73, 45
1, 25800, Note_on_c, 1, 73, 0
1, 25800, Note_on_c, 1, 70, 49
1, 25920, Note_on_c, 0, 79, 0
1, 25920, Note_on_c, 0, 80, 79
1, 25920, Note_on_c, 1, 70, 0
1, 25920, Note_on_c, 1, 65, 75
1, 26040, Note_on_c, 1, 65, 0
1, 26040, Note_on_c, 1, 68, 76
1, 26160, Note_on_c, 1, 68, 0
1, 26160, Note_on_c, 1, 72, 72
1, 26280, Note_on_c, 1, 72, 0
1, 26280, Note_on_c, 1, 68, 76
1, 26400, Note_on_c, 0, 80, 0
1, 26400, Note_on_c, 0, 84, 78
1, 26400, Note_on_c, 1, 68, 0
1, 26400, Note_on_c, 1, 65, 70
1, 26520, Note_on_c, 0, 84, 0
1, 26520, Note_on_c, 0, 80, 78
1, 26520, Note_on_c, 1, 65, 0
1, 26520, Note_on_c, 1, 68, 77
1, 26640, Note_on_c, 0, 80, 0
1, 26640, Note_on_c, 0, 79, 74
1, 26640, Note_on_c, 1, 68, 0
1, 26640, Note_on_c, 1, 61, 74
1, 26760, Note_on_c, 0, 79, 0
1, 26760, Note_on_c, 0, 77, 76
1, 26760, Note_on_c, 1, 61, 0
1, 26760, Note_on_c, 1, 65, 74
1, 26880, Note_on_c, 1, 65, 0
1, 26880, Note_on_c, 1, 68, 76
1, 27000, Note_on_c, 0, 77, 0
1, 27000, Note_on_c, 0, 80, 71
1, 27000, Note_on_c, 1, 68, 0
1, 27000, Note_on_c, 1, 65, 71
1, 27120, Note_on_c, 0, 80, 0
1, 27120, Note_on_c, 0, 79, 70
1, 27120, Note_on_c, 1, 65, 0
1, 27120, Note_on_c, 1, 61, 71
1, 27240, Note_on_c, 0, 79, 0
1, 27240, Note_on_c, 0, 77, 73
1, 27240, Note_on_c, 1, 61, 0
1, 27240, Note_on_c, 1, 65, 70
1, 27360, Note_on_c, 0, 77, 0
1, 27360, Note_on_c, 0, 77, 78
1, 27360, Note_on_c, 1, 65, 0
1, 27360, Note_on_c, 1, 51, 79
1, 27480, Note_on_c, 0, 77, 0
1, 27480, Note_on_c, 0, 75, 75
1, 27480, Note_on_c, 1, 51, 0
1, 27480, Note_on_c, 1, 56, 73
1, 27600, Note_on_c, 1, 56, 0
1, 27600, Note_on_c, 1, 60, 79
1, 27720, Note_on_c, 0, 75, 0
1, 27720, Note_on_c, 0, 77, 71
1, 27720, Note_on_c, 1, 60, 0
1, 27720, Note_on_c, 1, 56, 76
1, 27780, Note_on_c, 0, 77, 0
1, 27780, Note_on_c, 0, 75, 79
1, 27840, Note_on_c, 0, 75, 0
1, 27840, Note_on_c, 0, 73, 73
1, 27840, Note_on_c, 1, 56, 0
1, 27840, Note_on_c, 1, 51, 76
1, 27900, Note_on_c, 0, 73, 0
1, 27900, Note_on_c, 0, 72, 73
1, 27960, Note_on_c, 0, 72, 0
1, 27960, Note_on_c, 0, 70, 77
1, 27960, Note_on_c, 1, 51, 0
1, 27960, Note_on_c, 1, 56, 71
1, 28020, Note_on_c, 0, 70, 0
1, 28020, Note_on_c, 0, 68, 79
1, 28080, Note_on_c, 0, 68, 0
1, 28080, Note_on_c, 0, 70, 79
1, 28080, Note_on_c, 1, 56, 0
1, 28080, Note_on_c, 1, 51, 75
1, 28140, Note_on_c, 0, 70, 0
1, 28140, Note_on_c, 0, 72, 79
1, 28200, Note_on_c, 0, 72, 0
1, 28200, Note_on_c, 0, 70, 74
1, 28200, Note_on_c, 1, 51, 0
1, 28200, Note_on_c, 1, 55, 72
1, 28260, Note_on_c, 0, 70, 0
1, 28260, Note_on_c, 0, 72, 77
1, 28320, Note_on_c, 0, 72, 0
1, 28320, Note_on_c, 0, 70, 75
1, 28320, Note_on_c, 1, 55, 0
1, 28320, Note_on_c, 1, 61, 72
1, 28380, Note_on_c, 0, 70, 0
1, 28380, Note_on_c, 0, 72, 74
1, 28440, Note_on_c, 0, 72, 0
1, 28440, Note_on_c, 0, 70, 72
1, 28440, Note_on_c, 1, 61, 0
1, 28440, Note_on_c, 1, 55, 70
1, 28500, Note_on_c, 0, 70, 0
1, 28500, Note_on_c, 0, 72, 77
1, 28560, Note_on_c, 0, 72, 0
1, 28560, Note_on_c, 0, 70, 71
1, 28560, Note_on_c, 1, 55, 0
1, 28560, Note_on_c, 1, 51, 77
1, 28620, Note_on_c, 0, 70, 0
1, 28620, Note_on_c, 0, 72, 75
1, 28680, Note_on_c, 0, 72, 0
1, 28680, Note_on_c, 0, 68, 79
1, 28680, Note_on_c, 1, 51, 0
1, 28680, Note_on_c, 1, 55, 73
1, 28740, Note_on_c, 0, 68, 0
1, 28740, Note_on_c, 0, 70, 73
1, 28800, Note_on_c, 0, 70, 0
1, 28800, Note_on_c, 0, 68, 73
1, 28800, Note_on_c, 1, 55, 0
1, 28800, Note_on_c, 1, 56, 73
1, 29040, Note_on_c, 0, 68, 0
1, 29040, Note_on_c, 1, 56, 0
1, 29280, Note_on_c, 0, 72, 51
1, 29280, Note_on_c, 0, 70, 52
1, 29280, Note_on_c, 0, 67, 48
1, 29280, Note_on_c, 1, 52, 47
1, 29520, Note_on_c, 0, 72, 0
1, 29520, Note_on_c, 0, 67, 0
1, 29520, Note_on_c, 0, 70, 0
1, 29520, Note_on_c, 0, 72, 45
1, 29520, Note_on_c, 0, 68, 53
1, 29520, Note_on_c, 0, 65, 51
1, 29520, Note_on_c, 1, 52, 0
1, 29520, Note_on_c, 1, 53, 47
1, 29760, Note_on_c, 0, 72, 0
1, 29760, Note_on_c, 0, 65, 0
1, 29760, Note_on_c, 0, 68, 0
1, 29760, Note_on_c, 1, 53, 0
1, 30000, Note_on_c, 0, 73, 71
1, 30000, Note_on_c, 0, 70, 78
1, 30000, Note_on_c, 0, 65, 72
1, 30000, Note_on_c, 1, 49, 74
1, 30240, Note_on_c, 0, 73, 0
1, 30240, Note_on_c, 0, 65, 0
1, 30240, Note_on_c, 0, 70, 0
1, 30240, Note_on_c, 0, 72, 76
1, 30240, Note_on_c, 0, 68, 79
1, 30240, Note_on_c, 0, 63, 70
1, 30240, Note_on_c, 1, 49, 0
1, 30240, Note_on_c, 1, 51, 73
1, 30600, Note_on_c, 0, 72, 0
1, 30600, Note_on_c, 0, 68, 0
1, 30600, Note_on_c, 0, 73, 71
1, 30600, Note_on_c, 0, 70, 71
1, 30720, Note_on_c, 0, 63, 0
1, 30720, Note_on_c, 0, 70, 0
1, 30720, Note_on_c, 0, 73, 0
1, 30720, Note_on_c, 0, 70, 73
1, 30720, Note_on_c, 0, 67, 71
1, 30720, Note_on_c, 0, 61, 77
1, 30720, Note_on_c, 1, 51, 0
1, 30720, Note_on_c, 1, 39, 76
1, 30960, Note_on_c, 0, 70, 0
1, 30960, Note_on_c, 0, 61, 0
1, 30960, Note_on_c, 0, 67, 0
1, 30960, Note_on_c, 0, 68, 74
1, 30960, Note_on_c, 0, 63, 70
1, 30960, Note_on_c, 0, 60, 74
1, 30960, Note_on_c, 1, 39, 0
1, 30960, Note_on_c, 1, 44, 75
1, 31200, Note_on_c, 0, 68, 0
1, 31200, Note_on_c, 0, 60, 0
1, 31200, Note_on_c, 0, 63, 0
1, 31200, Note_on_c, 1, 44, 0
1, 31440, Note_on_c, 0, 60, 50
1, 31440, Note_on_c, 0, 58, 49
1, 31440, Note_on_c, 0, 55, 45
1, 31440, Note_on_c, 1, 40, 53
1, 31680, Note_on_c, 0, 60, 0
1, 31680, Note_on_c, 0, 55, 0
1, 31680, Note_on_c, 0, 58, 0
1, 31680, Note_on_c, 0, 60, 50
1, 31680, Note_on_c, 0, 56, 50
1, 31680, Note_on_c, 0, 53, 48
1, 31680, Note_on_c, 1, 40, 0
1, 31680, Note_on_c, 1, 41, 53
1, 31920, Note_on_c, 0, 60, 0
1, 31920, Note_on_c, 0, 53, 0
1, 31920, Note_on_c, 0, 56, 0
1, 31920, Note_on_c, 1, 41, 0
1, 32160, Note_on_c, 0, 61, 73
1, 32160, Note_on_c, 0, 58, 71
1, 32160, Note_on_c, 0, 53, 73
1, 32160, Note_on_c, 1, 37, 77
1, 32400, Note_on_c, 0, 61, 0
1, 32400, Note_on_c, 0, 53, 0
1, 32400, Note_on_c, 0, 58, 0
1, 32400, Note_on_c, 0, 60, 74
1, 32400, Note_on_c, 0, 56, 75
1, 32400, Note_on_c, 1, 37, 0
1, 32400, Note_on_c, 1, 39, 76
1, 32760, Note_on_c, 0, 60, 0
1, 32760, Note_on_c, 0, 56, 0
1, 32760, Note_on_c, 0, 61, 78
1, 32760, Note_on_c, 0, 58, 73
1, 32880, Note_on_c, 0, 61, 0
1, 32880, Note_on_c, 0, 58, 0
1, 32880, Note_on_c, 0, 58, 76
1, 32880, Note_on_c, 0, 55, 75
1, 32880, Note_on_c, 1, 39, 0
1, 32880, Note_on_c, 1, 39, 79
1, 33120, Note_on_c, 0, 58, 0
1, 33120, Note_on_c, 0, 55, 0
1, 33120, Note_on_c, 0, 58, 77
1, 33120, Note_on_c, 0, 55, 71
1, 33120, Note_on_c, 0, 49, 77
1, 33120, Note_on_c, 1, 39, 0
1, 33120, Note_on_c, 1, 44, 72
1, 33840, Note_on_c, 0, 58, 0
1, 33840, Note_on_c, 0, 49, 0
1, 33840, Note_on_c, 0, 55, 0
1, 33840, Note_on_c, 0, 56, 75
1, 33840, Note_on_c, 0, 48, 74
1, 33840, Note_on_c, 1, 44, 0
1, 33840, Note_on_c, 1, 32, 77
1, 34080, Note_on_c, 0, 56, 0
1, 34080, Note_on_c, 0, 48, 0
1, 34080, Note_on_c, 1, 32, 0
1, 34560, Note_on_c, 0, 72, 72
1, 34560, Note_on_c, 1, 56, 73
1, 34560, Note_on_c, 1, 53, 72
1, 34620, Note_on_c, 0, 72, 0
1, 34620, Note_on_c, 0, 73, 70
1, 34680, Note_on_c, 0, 73, 0
1, 34680, Note_on_c, 0, 72, 70
1, 34740, Note_on_c, 0, 72, 0
1, 34740, Note_on_c, 0, 73, 73
1, 34800, Note_on_c, 0, 73, 0
1, 34800, Note_on_c, 0, 72, 76
1, 34860, Note_on_c, 0, 72, 0
1, 34860, Note_on_c, 0, 73, 79
1, 34920, Note_on_c, 0, 73, 0
1, 34920, Note_on_c, 0, 73, 77
1, 35040, Note_on_c, 0, 73, 0
1, 35040, Note_on_c, 0, 72, 75
1, 35040, Note_on_c, 1, 56, 0
1, 35040, Note_on_c, 1, 53, 0
1, 35280, Note_on_c, 0, 72, 0
1, 35280, Note_on_c, 0, 72, 74
1, 35760, Note_on_c, 0, 72, 0
1, 35760, Note_on_c, 0, 77, 72
1, 36000, Note_on_c, 0, 77, 0
1, 36000, Note_on_c, 0, 77, 77
1, 36000, Note_on_c, 0, 67, 79
1, 36000, Note_on_c, 1, 61, 71
1, 36000, Note_on_c, 1, 58, 72
1, 36360, Note_on_c, 0, 67, 0
1, 36360, Note_on_c, 0, 68, 74
1, 36480, Note_on_c, 0, 68, 0
1, 36480, Note_on_c, 0, 67, 73
1, 36720, Note_on_c, 0, 67, 0
1, 36720, Note_on_c, 0, 67, 73
1, 36960, Note_on_c, 0, 77, 0
1, 36960, Note_on_c, 0, 67, 0
1, 36960, Note_on_c, 0, 75, 73
1, 36960, Note_on_c, 1, 61, 0
1, 36960, Note_on_c, 1, 58, 0
1, 37200, Note_on_c, 0, 75, 0
1, 37200, Note_on_c, 0, 73, 77
1, 37440, Note_on_c, 0, 73, 0
1, 37440, Note_on_c, 0, 72, 52
1, 37440, Note_on_c, 0, 67, 47
1, 37440, Note_on_c, 0, 64, 54
1, 37440, Note_on_c, 1, 60, 53
1, 37800, Note_on_c, 1, 60, 0
1, 37800, Note_on_c, 1, 61, 48
1, 37920, Note_on_c, 1, 61, 0
1, 37920, Note_on_c, 1, 60, 48
1, 38160, Note_on_c, 1, 60, 0
1, 38160, Note_on_c, 1, 60, 47
1, 38400, Note_on_c, 0, 67, 0
1, 38400, Note_on_c, 0, 64, 0
1, 38400, Note_on_c, 0, 68, 51
1, 38400, Note_on_c, 0, 65, 53
1, 38640, Note_on_c, 0, 68, 0
1, 38640, Note_on_c, 0, 65, 0
1, 38640, Note_on_c, 0, 70, 48
1, 38640, Note_on_c, 0, 67, 48
1, 38880, Note_on_c, 0, 72, 0
1, 38880, Note_on_c, 0, 67, 0
1, 38880, Note_on_c, 0, 70, 0
1, 38880, Note_on_c, 0, 67, 72
1, 38880, Note_on_c, 0, 70, 76
1, 38880, Note_on_c, 1, 60, 0
1, 38880, Note_on_c, 1, 49, 79
1, 38880, Note_on_c, 1, 61, 76
1, 39240, Note_on_c, 0, 67, 0
1, 39240, Note_on_c, 0, 70, 0
1, 39240, Note_on_c, 0, 65, 71
1, 39240, Note_on_c, 0, 68, 73
1, 39360, Note_on_c, 0, 65, 0
1, 39360, Note_on_c, 0, 68, 0
1, 39360, Note_on_c, 0, 64, 72
1, 39360, Note_on_c, 0, 67, 76
1, 39600, Note_on_c, 0, 64, 0
1, 39600, Note_on_c, 0, 67, 0
1, 39600, Note_on_c, 0, 65, 79
1, 39600, Note_on_c, 0, 68, 78
1, 39960, Note_on_c, 1, 61, 0
1, 39960, Note_on_c, 1, 60, 74
1, 40080, Note_on_c, 1, 60, 0
1, 40080, Note_on_c, 1, 59, 73
1, 40320, Note_on_c, 1, 49, 0
1, 40320, Note_on_c, 1, 59, 0
1, 40320, Note_on_c, 1, 48, 46
1, 40320, Note_on_c, 1, 60, 48
1, 40680, Note_on_c, 0, 65, 0
1, 40680, Note_on_c, 0, 68, 0
1, 40680, Note_on_c, 0, 67, 54
1, 40680, Note_on_c, 0, 70, 52
1, 40800, Note_on_c, 0, 67, 0
1, 40800, Note_on_c, 0, 70, 0
1, 40800, Note_on_c, 0, 65, 50
1, 40800, Note_on_c, 0, 68, 53
1, 41040, Note_on_c, 0, 65, 0
1, 41040, Note_on_c, 0, 68, 0
1, 41040, Note_on_c, 0, 64, 45
1, 41040, Note_on_c, 0, 67, 53
1, 41280, Note_on_c, 0, 64, 0
1, 41280, Note_on_c, 0, 67, 0
1, 41280, Note_on_c, 0, 65, 46
1, 41280, Note_on_c, 0, 68, 49
1, 41520, Note_on_c, 0, 65, 0
1, 41520, Note_on_c, 0, 68, 0
1, 41520, Note_on_c, 0, 67, 50
1, 41520, Note_on_c, 0, 70, 45
1, 41760, Note_on_c, 0, 67, 0
1, 41760, Note_on_c, 0, 70, 0
1, 41760, Note_on_c, 0, 67, 75
1, 41760, Note_on_c, 0, 70, 77
1, 41760, Note_on_c, 1, 48, 0
1, 41760, Note_on_c, 1, 60, 0
1, 41760, Note_on_c, 1, 49, 77
1, 41760, Note_on_c, 1, 61, 76
1, 42120, Note_on_c, 0, 67, 0
1, 42120, Note_on_c, 0, 70, 0
1, 42120, Note_on_c, 0, 65, 74
1, 42120, Note_on_c, 0, 68, 70
1, 42240, Note_on_c, 0, 65, 0
1, 42240, Note_on_c, 0, 68, 0
1, 42240, Note_on_c, 0, 64, 77
1, 42240, Note_on_c, 0, 67, 72
1, 42480, Note_on_c, 0, 64, 0
1, 42480, Note_on_c, 0, 67, 0
1, 42480, Note_on_c, 0, 65, 70
1, 42480, Note_on_c, 0, 68, 74
1, 42840, Note_on_c, 1, 61, 0
1, 42840, Note_on_c, 1, 60, 75
1, 42960, Note_on_c, 1, 60, 0
1, 42960, Note_on_c, 1, 59, 75
1, 43200, Note_on_c, 1, 49, 0
1, 43200, Note_on_c, 1, 59, 0
1, 43200, Note_on_c, 1, 48, 52
1, 43200, Note_on_c, 1, 60, 46
1, 43560, Note_on_c, 0, 65, 0
1, 43560, Note_on_c, 0, 68, 0
1, 43560, Note_on_c, 0, 64, 54
1, 43560, Note_on_c, 0, 67, 48
1, 43680, Note_on_c, 0, 64, 0
1, 43680, Note_on_c, 0, 67, 0
1, 43680, Note_on_c, 0, 65, 49
1, 43680, Note_on_c, 0, 68, 52
1, 43920, Note_on_c, 0, 65, 0
1, 43920, Note_on_c, 0, 68, 0
1, 43920, Note_on_c, 0, 67, 47
1, 43920, Note_on_c, 0, 70, 45
1, 44160, Note_on_c, 0, 67, 0
1, 44160, Note_on_c, 0, 70, 0
1, 44160, Note_on_c, 0, 65, 46
1, 44160, Note_on_c, 0, 68, 54
1, 44400, Note_on_c, 0, 65, 0
1, 44400, Note_on_c, 0, 68, 0
1, 44400, Note_on_c, 0, 64, 46
1, 44400, Note_on_c, 0, 67, 47
1, 44400, Note_on_c, 1, 60, 0
1, 44400, Note_on_c, 1, 58, 47
1, 44640, Note_on_c, 0, 64, 0
1, 44640, Note_on_c, 0, 67, 0
1, 44640, Note_on_c, 0, 64, 78
1, 44640, Note_on_c, 0, 67, 75
1, 44640, Note_on_c, 1, 48, 0
1, 44640, Note_on_c, 1, 58, 0
1, 44640, Note_on_c, 1, 53, 72
1, 44640, Note_on_c, 1, 58, 78
1, 45360, Note_on_c, 0, 64, 0
1, 45360, Note_on_c, 0, 67, 0
1, 45360, Note_on_c, 0, 65, 77
1, 45360, Note_on_c, 1, 58, 0
1, 45360, Note_on_c, 1, 56, 72
1, 45600, Note_on_c, 0, 65, 0
1, 45600, Note_on_c, 1, 53, 0
1, 45600, Note_on_c, 1, 56, 0
1, 46080, Note_on_c, 0, 68, 48
1, 46080, Note_on_c, 1, 51, 50
1, 46200, Note_on_c, 1, 51, 0
1, 46200, Note_on_c, 1, 56, 47
1, 46320, Note_on_c, 0, 68, 0
1, 46320, Note_on_c, 1, 56, 0
1, 46320, Note_on_c, 1, 60, 48
1, 46440, Note_on_c, 1, 60, 0
1, 46440, Note_on_c, 1, 56, 47
1, 46560, Note_on_c, 0, 68, 51
1, 46560, Note_on_c, 1, 56, 0
1, 46560, Note_on_c, 1, 51, 48
1, 46680, Note_on_c, 1, 51, 0
1, 46680, Note_on_c, 1, 56, 49
1, 46800, Note_on_c, 0, 68, 0
1, 46800, Note_on_c, 0, 70, 47
1, 46800, Note_on_c, 1, 56, 0
1, 46800, Note_on_c, 1, 51, 45
1, 46920, Note_on_c, 1, 51, 0
1, 46920, Note_on_c, 1, 55, 52
1, 47040, Note_on_c, 0, 70, 0
1, 47040, Note_on_c, 1, 55, 0
1, 47040, Note_on_c, 1, 58, 46
1, 47160, Note_on_c, 1, 58, 0
1, 47160, Note_on_c, 1, 55, 51
1, 47280, Note_on_c, 0, 70, 54
1, 47280, Note_on_c, 1, 55, 0
1, 47280, Note_on_c, 1, 51, 45
1, 47400, Note_on_c, 1, 51, 0
1, 47400, Note_on_c, 1, 55, 54
1, 47520, Note_on_c, 0, 70, 0
1, 47520, Note_on_c, 0, 70, 72
1, 47520, Note_on_c, 1, 55, 0
1, 47520, Note_on_c, 1, 51, 77
1, 47640, Note_on_c, 1, 51, 0
1, 47640, Note_on_c, 1, 55, 77
1, 47760, Note_on_c, 1, 55, 0
1, 47760, Note_on_c, 1, 58, 79
1, 47880, Note_on_c, 1, 58, 0
1, 47880, Note_on_c, 1, 55, 75
1, 48000, Note_on_c, 1, 55, 0
1, 48000, Note_on_c, 1, 51, 76
1, 48120, Note_on_c, 1, 51, 0
1, 48120, Note_on_c, 1, 55, 76
1, 48240, Note_on_c, 0, 70, 0
1, 48240, Note_on_c, 0, 72, 76
1, 48240, Note_on_c, 1, 55, 0
1, 48240, Note_on_c, 1, 51, 73
1, 48360, Note_on_c, 1, 51, 0
1, 48360, Note_on_c, 1, 56, 77
1, 48480, Note_on_c, 0, 72, 0
1, 48480, Note_on_c, 1, 56, 0
1, 48480, Note_on_c, 1, 60, 72
1, 48600, Note_on_c, 1, 60, 0
1, 48600, Note_on_c, 1, 56, 74
1, 48720, Note_on_c, 0, 68, 75
1, 48720, Note_on_c, 1, 56, 0
1, 48720, Note_on_c, 1, 51, 71
1, 48840, Note_on_c, 1, 51, 0
1, 48840, Note_on_c, 1, 56, 74
1, 48960, Note_on_c, 0, 68, 0
1, 48960, Note_on_c, 0, 73, 77
1, 48960, Note_on_c, 1, 56, 0
1, 48960, Note_on_c, 1, 53, 77
1, 49080, Note_on_c, 1, 53, 0
1, 49080, Note_on_c, 1, 56, 77
1, 49200, Note_on_c, 0, 73, 0
1, 49200, Note_on_c, 1, 56, 0
1, 49200, Note_on_c, 1, 61, 72
1, 49320, Note_on_c, 1, 61, 0
1, 49320, Note_on_c, 1, 56, 76
1, 49440, Note_on_c, 0, 72, 76
1, 49440, Note_on_c, 1, 56, 0
1, 49440, Note_on_c, 1, 51, 71
1, 49560, Note_on_c, 1, 51, 0
1, 49560, Note_on_c, 1, 56, 72
1, 49680, Note_on_c, 0, 72, 0
1, 49680, Note_on_c, 0, 77, 79
1, 49680, Note_on_c, 1, 56, 0
1, 49680, Note_on_c, 1, 50, 71
1, 49800, Note_on_c, 1, 50, 0
1, 49800, Note_on_c, 1, 53, 73
1, 49920, Note_on_c, 0, 77, 0
1, 49920, Note_on_c, 1, 53, 0
1, 49920, Note_on_c, 1, 58, 71
1, 50040, Note_on_c, 1, 58, 0
1, 50040, Note_on_c, 1, 53, 77
1, 50160, Note_on_c, 0, 65, 47
1, 50160, Note_on_c, 1, 53, 0
1, 50160, Note_on_c, 1, 50, 45
1, 50280, Note_on_c, 1, 50, 0
1, 50280, Note_on_c, 1, 53, 49
1, 50400, Note_on_c, 0, 65, 0
1, 50400, Note_on_c, 0, 68, 49
1, 50400, Note_on_c, 1, 53, 0
1, 50400, Note_on_c, 1, 51, 49
1, 50520, Note_on_c, 1, 51, 0
1, 50520, Note_on_c, 1, 56, 50
1, 50640, Note_on_c, 1, 56, 0
1, 50640, Note_on_c, 1, 60, 49
1, 50760, Note_on_c, 1, 60, 0
1, 50760, Note_on_c, 1, 56, 47
1, 50880, Note_on_c, 1, 56, 0
1, 50880, Note_on_c, 1, 51, 49
1, 51000, Note_on_c, 1, 51, 0
1, 51000, Note_on_c, 1, 56, 50
1, 51120, Note_on_c, 0, 68, 0
1, 51120, Note_on_c, 0, 67, 53
1, 51120, Note_on_c, 1, 56, 0
1, 51120, Note_on_c, 1, 51, 49
1, 51240, Note_on_c, 1, 51, 0
1, 51240, Note_on_c, 1, 55, 47
1, 51360, Note_on_c, 0, 67, 0
1, 51360, Note_on_c, 1, 55, 0
1, 51360, Note_on_c, 1, 58, 48
1, 51480, Note_on_c, 1, 58, 0
1, 51480, Note_on_c, 1, 55, 46
1, 51600, Note_on_c, 0, 75, 52
1, 51600, Note_on_c, 1, 55, 0
1, 51600, Note_on_c, 1, 51, 49
1, 51720, Note_on_c, 1, 51, 0
1, 51720, Note_on_c, 1, 55, 46
1, 51840, Note_on_c, 0, 75, 0
1, 51840, Note_on_c, 0, 74, 71
1, 51840, Note_on_c, 1, 55, 0
1, 51840, Note_on_c, 1, 52, 71
1, 51960, Note_on_c, 1, 52, 0
1, 51960, Note_on_c, 1, 56, 74
1, 52080, Note_on_c, 1, 56, 0
1, 52080, Note_on_c, 1, 59, 79
1, 52200, Note_on_c, 1, 59, 0
1, 52200, Note_on_c, 1, 56, 76
1, 52320, Note_on_c, 1, 56, 0
1, 52320, Note_on_c, 1, 52, 77
1, 52440, Note_on_c, 1, 52, 0
1, 52440, Note_on_c, 1, 56, 77
1, 52560, Note_on_c, 0, 74, 0
1, 52560, Note_on_c, 0, 80, 79
1, 52560, Note_on_c, 1, 56, 0
1, 52560, Note_on_c, 1, 52, 75
1, 52680, Note_on_c, 1, 52, 0
1, 52680, Note_on_c, 1, 56, 76
1, 52800, Note_on_c, 0, 80, 0
1, 52800, Note_on_c, 1, 56, 0
1, 52800, Note_on_c, 1, 59, 70
1, 52920, Note_on_c, 1, 59, 0
1, 52920, Note_on_c, 1, 56, 77
1, 53040, Note_on_c, 1, 56, 0
1, 53040, Note_on_c, 1, 52, 75
1, 53160, Note_on_c, 1, 52, 0
1, 53160, Note_on_c, 1, 56, 75
1, 53280, Note_on_c, 0, 79, 52
1, 53280, Note_on_c, 1, 56, 0
1, 53280, Note_on_c, 1, 51, 47
1, 53400, Note_on_c, 1, 51, 0
1, 53400, Note_on_c, 1, 55, 45
1, 53520, Note_on_c, 1, 55, 0
1, 53520, Note_on_c, 1, 58, 50
1, 53640, Note_on_c, 1, 58, 0
1, 53640, Note_on_c, 1, 55, 45
1, 53760, Note_on_c, 1, 55, 0
1, 53760, Note_on_c, 1, 51, 54
1, 53880, Note_on_c, 1, 51, 0
1, 53880, Note_on_c, 1, 55, 53
1, 54000, Note_on_c, 0, 79, 0
1, 54000, Note_on_c, 0, 82, 51
1, 54000, Note_on_c, 1, 55, 0
1, 54000, Note_on_c, 1, 51, 47
1, 54120, Note_on_c, 1, 51, 0
1, 54120, Note_on_c, 1, 55, 45
1, 54240, Note_on_c, 0, 82, 0
1, 54240, Note_on_c, 1, 55, 0
1, 54240, Note_on_c, 1, 58, 46
1, 54360, Note_on_c, 1, 58, 0
1, 54360, Note_on_c, 1, 55, 48
1, 54480, Note_on_c, 1, 55, 0
1, 54480, Note_on_c, 1, 63, 48
1, 54600, Note_on_c, 1, 63, 0
1, 54600, Note_on_c, 1, 58, 46
1, 54720, Note_on_c, 0, 83, 77
1, 54720, Note_on_c, 1, 58, 0
1, 54720, Note_on_c, 1, 62, 72
1, 54840, Note_on_c, 1, 62, 0
1, 54840, Note_on_c, 1, 65, 77
1, 54960, Note_on_c, 1, 65, 0
1, 54960, Note_on_c, 1, 68, 72
1, 55080, Note_on_c, 1, 68, 0
1, 55080, Note_on_c, 1, 65, 77
1, 55200, Note_on_c, 1, 65, 0
1, 55200, Note_on_c, 1, 62, 77
1, 55320, Note_on_c, 1, 62, 0
1, 55320, Note_on_c, 1, 65, 78
1, 55440, Note_on_c, 0, 83, 0
1, 55440, Note_on_c, 0, 80, 77
1, 55440, Note_on_c, 1, 65, 0
1, 55440, Note_on_c, 1, 62, 78
1, 55560, Note_on_c, 1, 62, 0
1, 55560, Note_on_c, 1, 65, 76
1, 55680, Note_on_c, 0, 80, 0
1, 55680, Note_on_c, 1, 65, 0
1, 55680, Note_on_c, 1, 71, 76
1, 55800, Note_on_c, 1, 71, 0
1, 55800, Note_on_c, 1, 65, 75
1, 55920, Note_on_c, 1, 65, 0
1, 55920, Note_on_c, 1, 62, 76
1, 56040, Note_on_c, 1, 62, 0
1, 56040, Note_on_c, 1, 65, 70
1, 56160, Note_on_c, 0, 87, 51
1, 56160, Note_on_c, 1, 65, 0
1, 56160, Note_on_c, 1, 61, 50
1, 56280, Note_on_c, 1, 61, 0
1, 56280, Note_on_c, 1, 67, 45
1, 56400, Note_on_c, 1, 67, 0
1, 56400, Note_on_c, 1, 70, 47
1, 56520, Note_on_c, 1, 70, 0
1, 56520, Note_on_c, 1, 67, 46
1, 56640, Note_on_c, 1, 67, 0
1, 56640, Note_on_c, 1, 61, 49
1, 56760, Note_on_c, 1, 61, 0
1, 56760, Note_on_c, 1, 67, 47
1, 56880, Note_on_c, 0, 87, 0
1, 56880, Note_on_c, 0, 79, 45
1, 56880, Note_on_c, 1, 67, 0
1, 56880, Note_on_c, 1, 61, 47
1, 57000, Note_on_c, 1, 61, 0
1, 57000, Note_on_c, 1, 63, 47
1, 57120, Note_on_c, 0, 79, 0
1, 57120, Note_on_c, 1, 63, 0
1, 57120, Note_on_c, 1, 70, 54
1, 57240, Note_on_c, 1, 70, 0
1, 57240, Note_on_c, 1, 63, 54
1, 57360, Note_on_c, 1, 63, 0
1, 57360, Note_on_c, 1, 61, 48
1, 57480, Note_on_c, 1, 61, 0
1, 57480, Note_on_c, 1, 63, 51
1, 57600, Note_on_c, 1, 63, 0
1, 57600, Note_on_c, 1, 60, 54
1, 57720, Note_on_c, 1, 60, 0
1, 57720, Note_on_c, 1, 63, 45
1, 57840, Note_on_c, 0, 80, 47
1, 57840, Note_on_c, 1, 63, 0
1, 57840, Note_on_c, 1, 68, 54
1, 57960, Note_on_c, 1, 68, 0
1, 57960, Note_on_c, 1, 63, 48
1, 58080, Note_on_c, 0, 80, 0
1, 58080, Note_on_c, 0, 80, 45
1, 58080, Note_on_c, 1, 63, 0
1, 58080, Note_on_c, 1, 60, 47
1, 58200, Note_on_c, 1, 60, 0
1, 58200, Note_on_c, 1, 63, 53
1, 58320, Note_on_c, 0, 80, 0
1, 58320, Note_on_c, 1, 63, 0
1, 58320, Note_on_c, 1, 61, 54
1, 58440, Note_on_c, 1, 61, 0
1, 58440, Note_on_c, 1, 65, 54
1, 58560, Note_on_c, 0, 77, 48
1, 58560, Note_on_c, 1, 65, 0
1, 58560, Note_on_c, 1, 68, 46
1, 58680, Note_on_c, 1, 68, 0
1, 58680, Note_on_c, 1, 65, 48
1, 58800, Note_on_c, 0, 77, 0
1, 58800, Note_on_c, 0, 77, 45
1, 58800, Note_on_c, 1, 65, 0
1, 58800, Note_on_c, 1, 61, 47
1, 58920, Note_on_c, 1, 61, 0
1, 58920, Note_on_c, 1, 65, 45
1, 59040, Note_on_c, 0, 77, 0
1, 59040, Note_on_c, 1, 65, 0
1, 59040, Note_on_c, 1, 63, 47
1, 59160, Note_on_c, 1, 63, 0
1, 59160, Note_on_c, 1, 68, 46
1, 59280, Note_on_c, 0, 75, 48
1, 59280, Note_on_c, 1, 68, 0
1, 59280, Note_on_c, 1, 72, 48
1, 59400, Note_on_c, 1, 72, 0
1, 59400, Note_on_c, 1, 68, 46
1, 59520, Note_on_c, 0, 75, 0
1, 59520, Note_on_c, 0, 75, 51
1, 59520, Note_on_c, 1, 68, 0
1, 59520, Note_on_c, 1, 63, 54
1, 59640, Note_on_c, 1, 63, 0
1, 59640, Note_on_c, 1, 68, 47
1, 59760, Note_on_c, 0, 75, 0
1, 59760, Note_on_c, 1, 68, 0
1, 59760, Note_on_c, 1, 63, 51
1, 59880, Note_on_c, 1, 63, 0
1, 59880, Note_on_c, 1, 70, 54
1, 60000, Note_on_c, 0, 79, 49
1, 60000, Note_on_c, 1, 70, 0
1, 60000, Note_on_c, 1, 73, 51
1, 60120, Note_on_c, 1, 73, 0
1, 60120, Note_on_c, 1, 70, 49
1, 60240, Note_on_c, 0, 79, 0
1, 60240, Note_on_c, 0, 79, 53
1, 60240, Note_on_c, 1, 70, 0
1, 60240, Note_on_c, 1, 73, 45
1, 60360, Note_on_c, 1, 73, 0
1, 60360, Note_on_c, 1, 70, 49
1, 60480, Note_on_c, 0, 79, 0
1, 60480, Note_on_c, 0, 80, 79
1, 60480, Note_on_c, 1, 70, 0
1, 60480, Note_on_c, 1, 65, 75
1, 60600, Note_on_c, 1, 65, 0
1, 60600, Note_on_c, 1, 68, 76
1, 60720, Note_on_c, 1, 68, 0
1, 60720, Note_on_c, 1, 72, 72
1, 60840, Note_on_c, 1, 72, 0
1, 60840, Note_on_c, 1, 68, 76
1, 60960, Note_on_c, 0, 80, 0
1, 60960, Note_on_c, 0, 84, 78
1, 60960, Note_on_c, 1, 68, 0
1, 60960, Note_on_c, 1, 65, 70
1, 61080, Note_on_c, 0, 84, 0
1, 61080, Note_on_c, 0, 80, 78
1, 61080, Note_on_c, 1, 65, 0
1, 61080, Note_on_c, 1, 68, 77
1, 61200, Note_on_c, 0, 80, 0
1, 61200, Note_on_c, 0, 79, 74
1, 61200, Note_on_c, 1, 68, 0
1, 61200, Note_on_c, 1, 61, 74
1, 61320, Note_on_c, 0, 79, 0
1, 61320, Note_on_c, 0, 77, 76
1, 61320, Note_on_c, 1, 61, 0
1, 61320, Note_on_c, 1, 65, 74
1, 61440, Note_on_c, 1, 65, 0
1, 61440, Note_on_c, 1, 68, 76
1, 61560, Note_on_c, 0, 77, 0
1, 61560, Note_on_c, 0, 80, 71
1, 61560, Note_on_c, 1, 68, 0
1, 61560, Note_on_c, 1, 65, 71
1, 61680, Note_on_c, 0, 80, 0
1, 61680, Note_on_c, 0, 79, 70
1, 61680, Note_on_c, 1, 65, 0
1, 61680, Note_on_c, 1, 61, 71
1, 61800, Note_on_c, 0, 79, 0
1, 61800, Note_on_c, 0, 77, 73
1, 61800, Note_on_c, 1, 61, 0
1, 61800, Note_on_c, 1, 65, 70
1, 61920, Note_on_c, 0, 77, 0
1, 61920, Note_on_c, 0, 77, 78
1, 61920, Note_on_c, 1, 65, 0
1, 61920, Note_on_c, 1, 51, 79
1, 62040, Note_on_c, 0, 77, 0
1, 62040, Note_on_c, 0, 75, 75
1, 62040, Note_on_c, 1, 51, 0
1, 62040, Note_on_c, 1, 56, 73
1, 62160, Note_on_c, 1, 56, 0
1, 62160, Note_on_c, 1, 60, 79
1, 62280, Note_on_c, 0, 75, 0
1, 62280, Note_on_c, 0, 77, 71
1, 62280, Note_on_c, 1, 60, 0
1, 62280, Note_on_c, 1, 56, 76
1, 62340, Note_on_c, 0, 77, 0
1, 62340, Note_on_c, 0, 75, 79
1, 62400, Note_on_c, 0, 75, 0
1, 62400, Note_on_c, 0, 73, 73
1, 62400, Note_on_c, 1, 56, 0
1, 62400, Note_on_c, 1, 51, 76
1, 62460, Note_on_c, 0, 73, 0
1, 62460, Note_on_c, 0, 72, 73
1, 62520, Note_on_c, 0, 72, 0
1, 62520, Note_on_c, 0, 70, 77
1, 62520, Note_on_c, 1, 51, 0
1, 62520, Note_on_c, 1, 56, 71
1, 62580, Note_on_c, 0, 70, 0
1, 62580, Note_on_c, 0, 68, 79
1, 62640, Note_on_c, 0, 68, 0
1, 62640, Note_on_c, 0, 70, 79
1, 62640, Note_on_c, 1, 56, 0
1, 62640, Note_on_c, 1, 51, 75
1, 62700, Note_on_c, 0, 70, 0
1, 62700, Note_on_c, 0, 72, 79
1, 62760, Note_on_c, 0, 72, 0
1, 62760, Note_on_c, 0, 70, 74
1, 62760, Note_on_c, 1, 51, 0
1, 62760, Note_on_c, 1, 55, 72
1, 62820, Note_on_c, 0, 70, 0
1, 62820, Note_on_c, 0, 72, 77
1, 62880, Note_on_c, 0, 72, 0
1, 62880, Note_on_c, 0, 70, 75
1, 62880, Note_on_c, 1, 55, 0
1, 62880, Note_on_c, 1, 61, 72
1, 62940, Note_on_c, 0, 70, 0
1, 62940, Note_on_c, 0, 72, 74
1, 63000, Note_on_c, 0, 72, 0
1, 63000, Note_on_c, 0, 70, 72
1, 63000, Note_on_c, 1, 61, 0
1, 63000, Note_on_c, 1, 55, 70
1, 63060, Note_on_c, 0, 70, 0
1, 63060, Note_on_c, 0, 72, 77
1, 63120, Note_on_c, 0, 72, 0
1, 63120, Note_on_c, 0, 70, 71
1, 63120, Note_on_c, 1, 55, 0
1, 63120, Note_on_c, 1, 51, 77
1, 63180, Note_on_c, 0, 70, 0
1, 63180, Note_on_c, 0, 72, 75
1, 63240, Note_on_c, 0, 72, 0
1, 63240, Note_on_c, 0, 68, 79
1, 63240, Note_on_c, 1, 51, 0
1, 63240, Note_on_c, 1, 55, 73
1, 63300, Note_on_c, 0, 68, 0
1, 63300, Note_on_c, 0, 70, 73
1, 63360, Note_on_c, 0, 70, 0
1, 63360, Note_on_c, 0, 68, 73
1, 63360, Note_on_c, 1, 55, 0
1, 63360, Note_on_c, 1, 56, 73
1, 63600, Note_on_c, 0, 68, 0
1, 63600, Note_on_c, 1, 56, 0
1, 63840, Note_on_c, 0, 72, 51
1, 63840, Note_on_c, 0, 70, 52
1, 63840, Note_on_c, 0, 67, 48
1, 63840, Note_on_c, 1, 52, 47
1, 64080, Note_on_c, 0, 72, 0
1, 64080, Note_on_c, 0, 67, 0
1, 64080, Note_on_c, 0, 70, 0
1, 64080, Note_on_c, 0, 72, 45
1, 64080, Note_on_c, 0, 68, 53
1, 64080, Note_on_c, 0, 65, 51
1, 64080, Note_on_c, 1, 52, 0
1, 64080, Note_on_c, 1, 53, 47
1, 64320, Note_on_c, 0, 72, 0
1, 64320, Note_on_c, 0, 65, 0
1, 64320, Note_on_c, 0, 68, 0
1, 64320, Note_on_c, 1, 53, 0
1, 64560, Note_on_c, 0, 73, 71
1, 64560, Note_on_c, 0, 70, 78
1, 64560, Note_on_c, 0, 65, 72
1, 64560, Note_on_c, 1, 49, 74
1, 64800, Note_on_c, 0, 73, 0
1, 64800, Note_on_c, 0, 65, 0
1, 64800, Note_on_c, 0, 70, 0
1, 64800, Note_on_c, 0, 72, 76
1, 64800, Note_on_c, 0, 68, 79
1, 64800, Note_on_c, 0, 63, 70
1, 64800, Note_on_c, 1, 49, 0
1, 64800, Note_on_c, 1, 51, 73
1, 65160, Note_on_c, 0, 72, 0
1, 65160, Note_on_c, 0, 68, 0
1, 65160, Note_on_c, 0, 73, 71
1, 65160, Note_on_c, 0, 70, 71
1, 65280, Note_on_c, 0, 63, 0
1, 65280, Note_on_c, 0, 70, 0
1, 65280, Note_on_c, 0, 73, 0
1, 65280, Note_on_c, 0, 70, 73
1, 65280, Note_on_c, 0, 67, 71
1, 65280, Note_on_c, 0, 61, 77
1, 65280, Note_on_c, 1, 51, 0
1, 65280, Note_on_c, 1, 39, 76
1, 65520, Note_on_c, 0, 70, 0
1, 65520, Note_on_c, 0, 61, 0
1, 65520, Note_on_c, 0, 67, 0
1, 65520, Note_on_c, 0, 68, 74
1, 65520, Note_on_c, 0, 63, 70
1, 65520, Note_on_c, 0, 60, 74
1, 65520, Note_on_c, 1, 39, 0
1, 65520, Note_on_c, 1, 44, 75
1, 65760, Note_on_c, 0, 68, 0
1, 65760, Note_on_c, 0, 60, 0
1, 65760, Note_on_c, 0, 63, 0
1, 65760, Note_on_c, 1, 44, 0
1, 66000, Note_on_c, 0, 60, 50
1, 66000, Note_on_c, 0, 58, 49
1, 66000, Note_on_c, 0, 55, 45
1, 66000, Note_on_c, 1, 40, 53
1, 66240, Note_on_c, 0, 60, 0
1, 66240, Note_on_c, 0, 55, 0
1, 66240, Note_on_c, 0, 58, 0
1, 66240, Note_on_c, 0, 60, 50
1, 66240, Note_on_c, 0, 56, 50
1, 66240, Note_on_c, 0, 53, 48
1, 66240, Note_on_c, 1, 40, 0
1, 66240, Note_on_c, 1, 41, 53
1, 66480, Note_on_c, 0, 60, 0
1, 66480, Note_on_c, 0, 53, 0
1, 66480, Note_on_c, 0, 56, 0
1, 66480, Note_on_c, 1, 41, 0
1, 66720, Note_on_c, 0, 61, 73
1, 66720, Note_on_c, 0, 58, 71
1, 66720, Note_on_c, 0, 53, 73
1, 66720, Note_on_c, 1, 37, 77
1, 66960, Note_on_c, 0, 61, 0
1, 66960, Note_on_c, 0, 53, 0
1, 66960, Note_on_c, 0, 58, 0
1, 66960, Note_on_c, 0, 60, 74
1, 66960, Note_on_c, 0, 56, 75
1, 66960, Note_on_c, 1, 37, 0
1, 66960, Note_on_c, 1, 39, 76
1, 67320, Note_on_c, 0, 60, 0
1, 67320, Note_on_c, 0, 56, 0
1, 67320, Note_on_c, 0, 61, 78
1, 67320, Note_on_c, 0, 58, 73
1, 67440, Note_on_c, 0, 61, 0
1, 67440, Note_on_c, 0, 58, 0
1, 67440, Note_on_c, 0, 58, 76
1, 67440, Note_on_c, 0, 55, 75
1, 67440, Note_on_c, 1, 39, 0
1, 67440, Note_on_c, 1, 39, 79
1, 67680, Note_on_c, 0, 58, 0
1, 67680, Note_on_c, 0, 55, 0
1, 67680, Note_on_c, 0, 58, 77
1, 67680, Note_on_c, 0, 55, 71
1, 67680, Note_on_c, 0, 49, 77
1, 67680, Note_on_c, 1, 39, 0
1, 67680, Note_on_c, 1, 44, 72
1, 68400, Note_on_c, 0, 58, 0
1, 68400, Note_on_c, 0, 49, 0
1, 68400, Note_on_c, 0, 55, 0
1, 68400, Note_on_c, 0, 56, 75
1, 68400, Note_on_c, 0, 48, 74
1, 68400, Note_on_c, 1, 44, 0
1, 68400, Note_on_c, 1, 32, 77
1, 68640, Note_on_c, 0, 56, 0
1, 68640, Note_on_c, 0, 48, 0
1, 68640, Note_on_c, 1, 32, 0
1, 69120, Note_on_c, 0, 77, 45
1, 69180, Note_on_c, 0, 77, 0
1, 69180, Note_on_c, 0, 75, 45
1, 69240, Note_on_c, 0, 75, 0
1, 69240, Note_on_c, 0, 77, 49
1, 69300, Note_on_c, 0, 77, 0
1, 69300, Note_on_c, 0, 75, 50
1, 69360, Note_on_c, 0, 75, 0
1, 69360, Note_on_c, 0, 77, 48
1, 69420, Note_on_c, 0, 77, 0
1, 69420, Note_on_c, 0, 75, 50
1, 69480, Note_on_c, 0, 75, 0
1, 69480, Note_on_c, 0, 77, 46
1, 69600, Note_on_c, 0, 77, 0
1, 69600, Note_on_c, 0, 75, 52
1, 69840, Note_on_c, 0, 75, 0
1, 69840, Note_on_c, 0, 75, 45
1, 70320, Note_on_c, 0, 75, 0
1, 70320, Note_on_c, 0, 75, 50
1, 70560, Note_on_c, 0, 75, 0
1, 70560, Note_on_c, 0, 69, 71
1, 70560, Note_on_c, 0, 72, 70
1, 70560, Note_on_c, 0, 75, 75
1, 70560, Note_on_c, 1, 66, 74
1, 71040, Note_on_c, 0, 75, 0
1, 71040, Note_on_c, 0, 77, 73
1, 71040, Note_on_c, 1, 66, 0
1, 71040, Note_on_c, 1, 65, 74
1, 71280, Note_on_c, 0, 77, 0
1, 71280, Note_on_c, 0, 78, 73
1, 71280, Note_on_c, 1, 65, 0
1, 71280, Note_on_c, 1, 63, 72
1, 71520, Note_on_c, 0, 69, 0
1, 71520, Note_on_c, 0, 78, 0
1, 71520, Note_on_c, 0, 72, 0
1, 71520, Note_on_c, 1, 63, 0
1, 72000, Note_on_c, 0, 57, 46
1, 72000, Note_on_c, 0, 60, 52
1, 72000, Note_on_c, 0, 63, 46
1, 72000, Note_on_c, 1, 54, 50
1, 72480, Note_on_c, 0, 63, 0
1, 72480, Note_on_c, 0, 65, 45
1, 72480, Note_on_c, 1, 54, 0
1, 72480, Note_on_c, 1, 53, 47
1, 72720, Note_on_c, 0, 65, 0
1, 72720, Note_on_c, 0, 66, 47
1, 72720, Note_on_c, 1, 53, 0
1, 72720, Note_on_c, 1, 51, 45
1, 72960, Note_on_c, 0, 57, 0
1, 72960, Note_on_c, 0, 66, 0
1, 72960, Note_on_c, 0, 60, 0
1, 72960, Note_on_c, 1, 51, 0
1, 73440, Note_on_c, 0, 70, 78
1, 73440, Note_on_c, 0, 65, 78
1, 73440, Note_on_c, 1, 61, 74
1, 73440, Note_on_c, 1, 49, 78
1, 73680, Note_on_c, 0, 70, 0
1, 73680, Note_on_c, 0, 65, 0
1, 73680, Note_on_c, 0, 63, 77
1, 73680, Note_on_c, 0, 69, 76
1, 73680, Note_on_c, 1, 61, 0
1, 73680, Note_on_c, 1, 49, 0
1, 73680, Note_on_c, 1, 48, 74
1, 73680, Note_on_c, 1, 60, 73
1, 73920, Note_on_c, 0, 63, 0
1, 73920, Note_on_c, 0, 69, 0
1, 73920, Note_on_c, 0, 70, 71
1, 73920, Note_on_c, 0, 61, 71
1, 73920, Note_on_c, 1, 48, 0
1, 73920, Note_on_c, 1, 60, 0
1, 73920, Note_on_c, 1, 58, 71
1, 73920, Note_on_c, 1, 46, 79
1, 74160, Note_on_c, 0, 70, 0
1, 74160, Note_on_c, 0, 61, 0
1, 74160, Note_on_c, 0, 65, 78
1, 74160, Note_on_c, 0, 75, 72
1, 74160, Note_on_c, 0, 72, 77
1, 74160, Note_on_c, 1, 58, 0
1, 74160, Note_on_c, 1, 46, 0
1, 74160, Note_on_c, 1, 57, 70
1, 74160, Note_on_c, 1, 45, 76
1, 74400, Note_on_c, 0, 65, 0
1, 74400, Note_on_c, 0, 72, 0
1, 74400, Note_on_c, 0, 75, 0
1, 74400, Note_on_c, 1, 57, 0
1, 74400, Note_on_c, 1, 45, 0
1, 74880, Note_on_c, 1, 46, 46
1, 75000, Note_on_c, 0, 73, 52
1, 75120, Note_on_c, 0, 73, 0
1, 75120, Note_on_c, 0, 72, 51
1, 75120, Note_on_c, 1, 46, 0
1, 75240, Note_on_c, 0, 72, 0
1, 75240, Note_on_c, 0, 73, 48
1, 75360, Note_on_c, 0, 73, 0
1, 75360, Note_on_c, 0, 75, 52
1, 75480, Note_on_c, 0, 75, 0
1, 75480, Note_on_c, 0, 73, 53
1, 75600, Note_on_c, 0, 73, 0
1, 75600, Note_on_c, 0, 78, 46
1, 75720, Note_on_c, 0, 73, 49
1, 75720, Note_on_c, 1, 58, 48
1, 75840, Note_on_c, 0, 73, 0
1, 75840, Note_on_c, 0, 72, 46
1, 75840, Note_on_c, 1, 58, 0
1, 75840, Note_on_c, 1, 57, 49
1, 75960, Note_on_c, 0, 72, 0
1, 75960, Note_on_c, 0, 73, 49
1, 75960, Note_on_c, 1, 57, 0
1, 75960, Note_on_c, 1, 58, 53
1, 76080, Note_on_c, 0, 73, 0
1, 76080, Note_on_c, 0, 75, 45
1, 76080, Note_on_c, 1, 58, 0
1, 76080, Note_on_c, 1, 60, 47
1, 76200, Note_on_c, 0, 75, 0
1, 76200, Note_on_c, 0, 73, 54
1, 76200, Note_on_c, 1, 60, 0
1, 76200, Note_on_c, 1, 58, 49
1, 76320, Note_on_c, 0, 73, 0
1, 76320, Note_on_c, 0, 72, 45
1, 76320, Note_on_c, 1, 58, 0
1, 76320, Note_on_c, 1, 57, 49
1, 76440, Note_on_c, 0, 78, 0
1, 76440, Note_on_c, 0, 78, 51
1, 76560, Note_on_c, 0, 78, 0
1, 76560, Note_on_c, 0, 77, 53
1, 76680, Note_on_c, 0, 77, 0
1, 76680, Note_on_c, 0, 78, 49
1, 76800, Note_on_c, 0, 78, 0
1, 76800, Note_on_c, 0, 80, 46
1, 76920, Note_on_c, 0, 80, 0
1, 76920, Note_on_c, 0, 78, 54
1, 77040, Note_on_c, 0, 78, 0
1, 77040, Note_on_c, 0, 77, 54
1, 77160, Note_on_c, 0, 72, 0
1, 77160, Note_on_c, 0, 72, 46
1, 77160, Note_on_c, 1, 57, 0
1, 77160, Note_on_c, 1, 56, 47
1, 77280, Note_on_c, 0, 72, 0
1, 77280, Note_on_c, 0, 71, 49
1, 77280, Note_on_c, 1, 56, 0
1, 77280, Note_on_c, 1, 55, 54
1, 77400, Note_on_c, 0, 71, 0
1, 77400, Note_on_c, 0, 72, 46
1, 77400, Note_on_c, 1, 55, 0
1, 77400, Note_on_c, 1, 56, 52
1, 77520, Note_on_c, 0, 72, 0
1, 77520, Note_on_c, 0, 73, 51
1, 77520, Note_on_c, 1, 56, 0
1, 77520, Note_on_c, 1, 58, 46
1, 77640, Note_on_c, 0, 73, 0
1, 77640, Note_on_c, 0, 72, 47
1, 77640, Note_on_c, 1, 58, 0
1, 77640, Note_on_c, 1, 56, 51
1, 77760, Note_on_c, 0, 72, 0
1, 77760, Note_on_c, 0, 71, 46
1, 77760, Note_on_c, 1, 56, 0
1, 77760, Note_on_c, 1, 55, 46
1, 77880, Note_on_c, 0, 77, 0
1, 77880, Note_on_c, 0, 77, 51
1, 77880, Note_on_c, 1, 62, 54
1, 78000, Note_on_c, 0, 71, 0
1, 78000, Note_on_c, 0, 77, 0
1, 78000, Note_on_c, 0, 76, 53
1, 78000, Note_on_c, 1, 55, 0
1, 78000, Note_on_c, 1, 62, 0
1, 78000, Note_on_c, 1, 61, 47
1, 78120, Note_on_c, 0, 76, 0
1, 78120, Note_on_c, 0, 77, 50
1, 78120, Note_on_c, 1, 61, 0
1, 78120, Note_on_c, 1, 62, 46
1, 78240, Note_on_c, 0, 77, 0
1, 78240, Note_on_c, 0, 79, 50
1, 78240, Note_on_c, 1, 62, 0
1, 78240, Note_on_c, 1, 63, 47
1, 78360, Note_on_c, 0, 79, 0
1, 78360, Note_on_c, 0, 77, 53
1, 78360, Note_on_c, 1, 63, 0
1, 78360, Note_on_c, 1, 62, 54
1, 78480, Note_on_c, 0, 77, 0
1, 78480, Note_on_c, 1, 62, 0
1, 78480, Note_on_c, 1, 54, 47
1, 78600, Note_on_c, 0, 75, 54
1, 78600, Note_on_c, 1, 60, 49
1, 78720, Note_on_c, 0, 75, 0
1, 78720, Note_on_c, 0, 74, 46
1, 78720, Note_on_c, 1, 54, 0
1, 78720, Note_on_c, 1, 60, 0
1, 78720, Note_on_c, 1, 59, 53
1, 78840, Note_on_c, 0, 74, 0
1, 78840, Note_on_c, 0, 75, 51
1, 78840, Note_on_c, 1, 59, 0
1, 78840, Note_on_c, 1, 60, 45
1, 78960, Note_on_c, 0, 75, 0
1, 78960, Note_on_c, 0, 77, 54
1, 78960, Note_on_c, 1, 60, 0
1, 78960, Note_on_c, 1, 62, 50
1, 79080, Note_on_c, 0, 77, 0
1, 79080, Note_on_c, 0, 75, 53
1, 79080, Note_on_c, 1, 62, 0
1, 79080, Note_on_c, 1, 60, 52
1, 79200, Note_on_c, 0, 75, 0
1, 79200, Note_on_c, 0, 74, 79
1, 79200, Note_on_c, 0, 71, 76
1, 79200, Note_on_c, 1, 60, 0
1, 79320, Note_on_c, 1, 55, 75
1, 79440, Note_on_c, 0, 74, 0
1, 79440, Note_on_c, 0, 71, 0
1, 79440, Note_on_c, 1, 55, 0
1, 79440, Note_on_c, 1, 54, 70
1, 79560, Note_on_c, 1, 54, 0
1, 79560, Note_on_c, 1, 55, 70
1, 79680, Note_on_c, 1, 55, 0
1, 79680, Note_on_c, 1, 56, 71
1, 79800, Note_on_c, 1, 56, 0
1, 79800, Note_on_c, 1, 55, 70
1, 79920, Note_on_c, 1, 55, 0
1, 79920, Note_on_c, 1, 43, 79
1, 80160, Note_on_c, 1, 43, 0
1, 80640, Note_on_c, 0, 68, 73
1, 80640, Note_on_c, 1, 51, 75
1, 80640, Note_on_c, 1, 48, 76
1, 80700, Note_on_c, 0, 68, 0
1, 80700, Note_on_c, 0, 67, 74
1, 80760, Note_on_c, 0, 67, 0
1, 80760, Note_on_c, 0, 68, 74
1, 80820, Note_on_c, 0, 68, 0
1, 80820, Note_on_c, 0, 67, 76
1, 80880, Note_on_c, 0, 67, 0
1, 80880, Note_on_c, 0, 68, 74
1, 80940, Note_on_c, 0, 68, 0
1, 80940, Note_on_c, 0, 67, 71
1, 81000, Note_on_c, 0, 67, 0
1, 81000, Note_on_c, 0, 68, 70
1, 81120, Note_on_c, 0, 68, 0
1, 81120, Note_on_c, 0, 67, 79
1, 81120, Note_on_c, 1, 51, 0
1, 81120, Note_on_c, 1, 48, 0
1, 81360, Note_on_c, 0, 67, 0
1, 81360, Note_on_c, 0, 67, 73
1, 81840, Note_on_c, 0, 67, 0
1, 81840, Note_on_c, 0, 72, 70
1, 82080, Note_on_c, 0, 72, 0
1, 82080, Note_on_c, 0, 62, 70
1, 82080, Note_on_c, 0, 72, 75
1, 82080, Note_on_c, 1, 56, 71
1, 82080, Note_on_c, 1, 53, 78
1, 82440, Note_on_c, 0, 62, 0
1, 82440, Note_on_c, 0, 63, 76
1, 82560, Note_on_c, 0, 63, 0
1, 82560, Note_on_c, 0, 62, 76
1, 82800, Note_on_c, 0, 62, 0
1, 82800, Note_on_c, 0, 62, 79
1, 83040, Note_on_c, 0, 72, 0
1, 83040, Note_on_c, 0, 62, 0
1, 83040, Note_on_c, 0, 70, 78
1, 83040, Note_on_c, 1, 56, 0
1, 83040, Note_on_c, 1, 53, 0
1, 83280, Note_on_c, 0, 70, 0
1, 83280, Note_on_c, 0, 68, 70
1, 83520, Note_on_c, 0, 68, 0
1, 83520, Note_on_c, 0, 59, 49
1, 83520, Note_on_c, 0, 62, 48
1, 83520, Note_on_c, 0, 67, 51
1, 83520, Note_on_c, 1, 55, 52
1, 83880, Note_on_c, 1, 55, 0
1, 83880, Note_on_c, 1, 56, 54
1, 84000, Note_on_c, 1, 56, 0
1, 84000, Note_on_c, 1, 55, 53
1, 84240, Note_on_c, 1, 55, 0
1, 84240, Note_on_c, 1, 55, 53
1, 84480, Note_on_c, 0, 59, 0
1, 84480, Note_on_c, 0, 62, 0
1, 84480, Note_on_c, 0, 63, 51
1, 84480, Note_on_c, 0, 60, 49
1, 84720, Note_on_c, 0, 63, 0
1, 84720, Note_on_c, 0, 60, 0
1, 84720, Note_on_c, 0, 65, 46
1, 84720, Note_on_c, 0, 62, 50
1, 84960, Note_on_c, 0, 65, 0
1, 84960, Note_on_c, 0, 62, 0
1, 84960, Note_on_c, 0, 65, 47
1, 84960, Note_on_c, 0, 60, 50
1, 84960, Note_on_c, 1, 55, 0
1, 84960, Note_on_c, 1, 48, 50
1, 85320, Note_on_c, 1, 48, 0
1, 85320, Note_on_c, 1, 49, 51
1, 85440, Note_on_c, 1, 49, 0
1, 85440, Note_on_c, 1, 48, 47
1, 85680, Note_on_c, 0, 65, 0
1, 85680, Note_on_c, 0, 60, 0
1, 85680, Note_on_c, 0, 60, 53
1, 85680, Note_on_c, 0, 64, 47
1, 85680, Note_on_c, 1, 48, 0
1, 85680, Note_on_c, 1, 48, 50
1, 85920, Note_on_c, 0, 67, 0
1, 85920, Note_on_c, 0, 64, 0
1, 85920, Note_on_c, 0, 60, 0
1, 85920, Note_on_c, 0, 68, 50
1, 85920, Note_on_c, 0, 65, 50
1, 86160, Note_on_c, 0, 68, 0
1, 86160, Note_on_c, 0, 65, 0
1, 86160, Note_on_c, 0, 70, 49
1, 86160, Note_on_c, 0, 67, 47
1, 86400, Note_on_c, 0, 70, 0
1, 86400, Note_on_c, 0, 67, 0
1, 86400, Note_on_c, 0, 68, 72
1, 86400, Note_on_c, 0, 72, 72
1, 86400, Note_on_c, 1, 48, 0
1, 86400, Note_on_c, 1, 56, 72
1, 86400, Note_on_c, 1, 53, 73
1, 86460, Note_on_c, 0, 72, 0
1, 86460, Note_on_c, 0, 73, 72
1, 86520, Note_on_c, 0, 73, 0
1, 86520, Note_on_c, 0, 72, 70
1, 86580, Note_on_c, 0, 72, 0
1, 86580, Note_on_c, 0, 73, 70
1, 86640, Note_on_c, 0, 73, 0
1, 86640, Note_on_c, 0, 72, 74
1, 86700, Note_on_c, 0, 72, 0
1, 86700, Note_on_c, 0, 73, 79
1, 86760, Note_on_c, 0, 68, 0
1, 86760, Note_on_c, 0, 73, 0
1, 86760, Note_on_c, 0, 73, 75
1, 86880, Note_on_c, 0, 73, 0
1, 86880, Note_on_c, 0, 72, 75
1, 86880, Note_on_c, 1, 56, 0
1, 86880, Note_on_c, 1, 53, 0
1, 87120, Note_on_c, 0, 72, 0
1, 87120, Note_on_c, 0, 72, 70
1, 87600, Note_on_c, 0, 72, 0
1, 87600, Note_on_c, 0, 77, 76
1, 87840, Note_on_c, 0, 77, 0
1, 87840, Note_on_c, 0, 67, 72
1, 87840, Note_on_c, 0, 77, 73
1, 87840, Note_on_c, 1, 58, 71
1, 87840, Note_on_c, 1, 61, 77
1, 88200, Note_on_c, 0, 67, 0
1, 88200, Note_on_c, 0, 68, 71
1, 88320, Note_on_c, 0, 68, 0
1, 88320, Note_on_c, 0, 67, 73
1, 88560, Note_on_c, 0, 67, 0
1, 88560, Note_on_c, 0, 67, 70
1, 88800, Note_on_c, 0, 77, 0
1, 88800, Note_on_c, 0, 67, 0
1, 88800, Note_on_c, 0, 75, 72
1, 88800, Note_on_c, 1, 58, 0
1, 88800, Note_on_c, 1, 61, 0
1, 89040, Note_on_c, 0, 75, 0
1, 89040, Note_on_c, 0, 73, 78
1, 89280, Note_on_c, 0, 73, 0
1, 89280, Note_on_c, 0, 64, 48
1, 89280, Note_on_c, 0, 67, 53
1, 89280, Note_on_c, 0, 72, 51
1, 89280, Note_on_c, 1, 60, 53
1, 89640, Note_on_c, 1, 60, 0
1, 89640, Note_on_c, 1, 61, 50
1, 89760, Note_on_c, 1, 61, 0
1, 89760, Note_on_c, 1, 60, 47
1, 90000, Note_on_c, 1, 60, 0
1, 90000, Note_on_c, 1, 60, 53
1, 90240, Note_on_c, 0, 64, 0
1, 90240, Note_on_c, 0, 67, 0
1, 90240, Note_on_c, 0, 68, 53
1, 90240, Note_on_c, 0, 65, 51
1, 90480, Note_on_c, 0, 68, 0
1, 90480, Note_on_c, 0, 65, 0
1, 90480, Note_on_c, 0, 70, 45
1, 90480, Note_on_c, 0, 67, 50
1, 90720, Note_on_c, 0, 72, 0
1, 90720, Note_on_c, 0, 67, 0
1, 90720, Note_on_c, 0, 70, 0
1, 90720, Note_on_c, 0, 67, 71
1, 90720, Note_on_c, 0, 70, 72
1, 90720, Note_on_c, 1, 60, 0
1, 90720, Note_on_c, 1, 49, 70
1, 90720, Note_on_c, 1, 61, 76
1, 91080, Note_on_c, 0, 67, 0
1, 91080, Note_on_c, 0, 70, 0
1, 91080, Note_on_c, 0, 68, 74
1, 91080, Note_on_c, 0, 65, 71
1, 91200, Note_on_c, 0, 68, 0
1, 91200, Note_on_c, 0, 65, 0
1, 91200, Note_on_c, 0, 67, 70
1, 91200, Note_on_c, 0, 64, 76
1, 91440, Note_on_c, 0, 67, 0
1, 91440, Note_on_c, 0, 64, 0
1, 91440, Note_on_c, 0, 68, 76
1, 91440, Note_on_c, 0, 65, 73
1, 91800, Note_on_c, 1, 61, 0
1, 91800, Note_on_c, 1, 60, 76
1, 91920, Note_on_c, 1, 60, 0
1, 91920, Note_on_c, 1, 59, 77
1, 92160, Note_on_c, 1, 49, 0
1, 92160, Note_on_c, 1, 59, 0
1, 92160, Note_on_c, 1, 48, 46
1, 92160, Note_on_c, 1, 60, 51
1, 92520, Note_on_c, 0, 68, 0
1, 92520, Note_on_c, 0, 65, 0
1, 92520, Note_on_c, 0, 67, 54
1, 92520, Note_on_c, 0, 64, 48
1, 92640, Note_on_c, 0, 67, 0
1, 92640, Note_on_c, 0, 64, 0
1, 92640, Note_on_c, 0, 68, 49
1, 92640, Note_on_c, 0, 65, 47
1, 92880, Note_on_c, 0, 68, 0
1, 92880, Note_on_c, 0, 65, 0
1, 92880, Note_on_c, 0, 67, 45
1, 92880, Note_on_c, 0, 70, 50
1, 93120, Note_on_c, 0, 67, 0
1, 93120, Note_on_c, 0, 70, 0
1, 93120, Note_on_c, 0, 65, 46
1, 93120, Note_on_c, 0, 68, 46
1, 93360, Note_on_c, 0, 65, 0
1, 93360, Note_on_c, 0, 68, 0
1, 93360, Note_on_c, 0, 64, 54
1, 93360, Note_on_c, 0, 67, 50
1, 93360, Note_on_c, 1, 60, 0
1, 93360, Note_on_c, 1, 58, 52
1, 93600, Note_on_c, 0, 64, 0
1, 93600, Note_on_c, 0, 67, 0
1, 93600, Note_on_c, 0, 64, 78
1, 93600, Note_on_c, 0, 67, 75
1, 93600, Note_on_c, 1, 48, 0
1, 93600, Note_on_c, 1, 58, 0
1, 93600, Note_on_c, 1, 58, 78
1, 93600, Note_on_c, 1, 53, 74
1, 94320, Note_on_c, 0, 64, 0
1, 94320, Note_on_c, 0, 67, 0
1, 94320, Note_on_c, 0, 65, 70
1, 94320, Note_on_c, 1, 58, 0
1, 94320, Note_on_c, 1, 53, 0
1, 94320, Note_on_c, 1, 56, 71
1, 94320, Note_on_c, 1, 53, 71
1, 94560, Note_on_c, 0, 65, 0
1, 94560, Note_on_c, 1, 56, 0
1, 94560, Note_on_c, 1, 53, 0
1, 95040, Note_on_c, 0, 72, 45
1, 95040, Note_on_c, 1, 53, 54
1, 95160, Note_on_c, 1, 53, 0
1, 95160, Note_on_c, 1, 56, 47
1, 95280, Note_on_c, 0, 72, 0
1, 95280, Note_on_c, 1, 56, 0
1, 95280, Note_on_c, 1, 60, 47
1, 95400, Note_on_c, 1, 60, 0
1, 95400, Note_on_c, 1, 56, 48
1, 95520, Note_on_c, 0, 72, 52
1, 95520, Note_on_c, 1, 56, 0
1, 95520, Note_on_c, 1, 53, 48
1, 95640, Note_on_c, 1, 53, 0
1, 95640, Note_on_c, 1, 56, 46
1, 95760, Note_on_c, 0, 72, 0
1, 95760, Note_on_c, 0, 72, 54
1, 95760, Note_on_c, 1, 56, 0
1, 95760, Note_on_c, 1, 51, 50
1, 95880, Note_on_c, 1, 51, 0
1, 95880, Note_on_c, 1, 54, 45
1, 96000, Note_on_c, 0, 72, 0
1, 96000, Note_on_c, 1, 54, 0
1, 96000, Note_on_c, 1, 57, 54
1, 96120, Note_on_c, 1, 57, 0
1, 96120, Note_on_c, 1, 54, 52
1, 96240, Note_on_c, 0, 72, 47
1, 96240, Note_on_c, 1, 54, 0
1, 96240, Note_on_c, 1, 51, 45
1, 96360, Note_on_c, 1, 51, 0
1, 96360, Note_on_c, 1, 54, 50
1, 96480, Note_on_c, 0, 72, 0
1, 96480, Note_on_c, 0, 72, 70
1, 96480, Note_on_c, 1, 54, 0
1, 96480, Note_on_c, 1, 49, 72
1, 96600, Note_on_c, 1, 49, 0
1, 96600, Note_on_c, 1, 53, 71
1, 96720, Note_on_c, 1, 53, 0
1, 96720, Note_on_c, 1, 57, 79
1, 96840, Note_on_c, 1, 57, 0
1, 96840, Note_on_c, 1, 53, 77
1, 96960, Note_on_c, 1, 53, 0
1, 96960, Note_on_c, 1, 49, 70
1, 97080, Note_on_c, 1, 49, 0
1, 97080, Note_on_c, 1, 53, 73
1, 97200, Note_on_c, 0, 72, 0
1, 97200, Note_on_c, 0, 70, 70
1, 97200, Note_on_c, 1, 53, 0
1, 97200, Note_on_c, 1, 49, 70
1, 97320, Note_on_c, 1, 49, 0
1, 97320, Note_on_c, 1, 53, 73
1, 97440, Note_on_c, 0, 70, 0
1, 97440, Note_on_c, 1, 53, 0
1, 97440, Note_on_c, 1, 58, 73
1, 97560, Note_on_c, 1, 58, 0
1, 97560, Note_on_c, 1, 53, 72
1, 97680, Note_on_c, 0, 68, 74
1, 97680, Note_on_c, 1, 53, 0
1, 97680, Note_on_c, 1, 48, 73
1, 97800, Note_on_c, 1, 48, 0
1, 97800, Note_on_c, 1, 53, 75
1, 97920, Note_on_c, 0, 68, 0
1, 97920, Note_on_c, 0, 66, 71
1, 97920, Note_on_c, 1, 53, 0
1, 97920, Note_on_c, 1, 46, 76
1, 98040, Note_on_c, 1, 46, 0
1, 98040, Note_on_c, 1, 49, 70
1, 98160, Note_on_c, 0, 66, 0
1, 98160, Note_on_c, 1, 49, 0
1, 98160, Note_on_c, 1, 58, 72
1, 98280, Note_on_c, 1, 58, 0
1, 98280, Note_on_c, 1, 49, 77
1, 98400, Note_on_c, 0, 70, 71
1, 98400, Note_on_c, 1, 49, 0
1, 98400, Note_on_c, 1, 46, 73
1, 98520, Note_on_c, 1, 46, 0
1, 98520, Note_on_c, 1, 49, 70
1, 98640, Note_on_c, 0, 70, 0
1, 98640, Note_on_c, 0, 66, 72
1, 98640, Note_on_c, 1, 49, 0
1, 98640, Note_on_c, 1, 46, 74
1, 98760, Note_on_c, 1, 46, 0
1, 98760, Note_on_c, 1, 49, 79
1, 98880, Note_on_c, 0, 66, 0
1, 98880, Note_on_c, 1, 49, 0
1, 98880, Note_on_c, 1, 58, 74
1, 99000, Note_on_c, 1, 58, 0
1, 99000, Note_on_c, 1, 49, 71
1, 99120, Note_on_c, 0, 65, 75
1, 99120, Note_on_c, 1, 49, 0
1, 99120, Note_on_c, 1, 47, 79
1, 99240, Note_on_c, 1, 47, 0
1, 99240, Note_on_c, 1, 56, 79
1, 99360, Note_on_c, 0, 65, 0
1, 99360, Note_on_c, 0, 65, 48
1, 99360, Note_on_c, 1, 56, 0
1, 99360, Note_on_c, 1, 48, 45
1, 99480, Note_on_c, 1, 48, 0
1, 99480, Note_on_c, 1, 53, 49
1, 99600, Note_on_c, 1, 53, 0
1, 99600, Note_on_c, 1, 56, 47
1, 99720, Note_on_c, 1, 56, 0
1, 99720, Note_on_c, 1, 53, 53
1, 99840, Note_on_c, 1, 53, 0
1, 99840, Note_on_c, 1, 48, 54
1, 99960, Note_on_c, 1, 48, 0
1, 99960, Note_on_c, 1, 53, 53
1, 100080, Note_on_c, 0, 65, 0
1, 100080, Note_on_c, 0, 64, 45
1, 100080, Note_on_c, 1, 53, 0
1, 100080, Note_on_c, 1, 48, 47
1, 100200, Note_on_c, 1, 48, 0
1, 100200, Note_on_c, 1, 52, 49
1, 100320, Note_on_c, 0, 64, 0
1, 100320, Note_on_c, 1, 52, 0
1, 100320, Note_on_c, 1, 55, 47
1, 100440, Note_on_c, 1, 55, 0
1, 100440, Note_on_c, 1, 52, 51
1, 100560, Note_on_c, 0, 72, 52
1, 100560, Note_on_c, 1, 52, 0
1, 100560, Note_on_c, 1, 48, 47
1, 100680, Note_on_c, 1, 48, 0
1, 100680, Note_on_c, 1, 52, 50
1, 100800, Note_on_c, 0, 72, 0
1, 100800, Note_on_c, 0, 71, 70
1, 100800, Note_on_c, 1, 52, 0
1, 100800, Note_on_c, 1, 49, 71
1, 100920, Note_on_c, 1, 49, 0
1, 100920, Note_on_c, 1, 53, 74
1, 101040, Note_on_c, 1, 53, 0
1, 101040, Note_on_c, 1, 56, 77
1, 101160, Note_on_c, 1, 56, 0
1, 101160, Note_on_c, 1, 53, 73
1, 101280, Note_on_c, 1, 53, 0
1, 101280, Note_on_c, 1, 49, 73
1, 101400, Note_on_c, 1, 49, 0
1, 101400, Note_on_c, 1, 53, 72
1, 101520, Note_on_c, 0, 71, 0
1, 101520, Note_on_c, 0, 77, 74
1, 101520, Note_on_c, 1, 53, 0
1, 101520, Note_on_c, 1, 49, 77
1, 101640, Note_on_c, 1, 49, 0
1, 101640, Note_on_c, 1, 53, 71
1, 101760, Note_on_c, 0, 77, 0
1, 101760, Note_on_c, 1, 53, 0
1, 101760, Note_on_c, 1, 56, 72
1, 101880, Note_on_c, 1, 56, 0
1, 101880, Note_on_c, 1, 53, 77
1, 102000, Note_on_c, 1, 53, 0
1, 102000, Note_on_c, 1, 49, 70
1, 102120, Note_on_c, 1, 49, 0
1, 102120, Note_on_c, 1, 53, 76
1, 102240, Note_on_c, 0, 76, 52
1, 102240, Note_on_c, 1, 53, 0
1, 102240, Note_on_c, 1, 48, 48
1, 102360, Note_on_c, 1, 48, 0
1, 102360, Note_on_c, 1, 52, 53
1, 102480, Note_on_c, 1, 52, 0
1, 102480, Note_on_c, 1, 55, 52
1, 102600, Note_on_c, 1, 55, 0
1, 102600, Note_on_c, 1, 52, 49
1, 102720, Note_on_c, 1, 52, 0
1, 102720, Note_on_c, 1, 48, 52
1, 102840, Note_on_c, 1, 48, 0
1, 102840, Note_on_c, 1, 52, 50
1, 102960, Note_on_c, 0, 76, 0
1, 102960, Note_on_c, 0, 79, 47
1, 102960, Note_on_c, 1, 52, 0
1, 102960, Note_on_c, 1, 48, 53
1, 103080, Note_on_c, 1, 48, 0
1, 103080, Note_on_c, 1, 52, 49
1, 103200, Note_on_c, 0, 79, 0
1, 103200, Note_on_c, 1, 52, 0
1, 103200, Note_on_c, 1, 55, 45
1, 103320, Note_on_c, 1, 55, 0
1, 103320, Note_on_c, 1, 52, 49
1, 103440, Note_on_c, 1, 52, 0
1, 103440, Note_on_c, 1, 60, 46
1, 103560, Note_on_c, 1, 60, 0
1, 103560, Note_on_c, 1, 55, 50
1, 103680, Note_on_c, 0, 80, 71
1, 103680, Note_on_c, 1, 55, 0
1, 103680, Note_on_c, 1, 59, 71
1, 103800, Note_on_c, 1, 59, 0
1, 103800, Note_on_c, 1, 62, 73
1, 103920, Note_on_c, 1, 62, 0
1, 103920, Note_on_c, 1, 65, 73
1, 104040, Note_on_c, 1, 65, 0
1, 104040, Note_on_c, 1, 62, 78
1, 104160, Note_on_c, 1, 62, 0
1, 104160, Note_on_c, 1, 59, 74
1, 104280, Note_on_c, 1, 59, 0
1, 104280, Note_on_c, 1, 62, 77
1, 104400, Note_on_c, 0, 80, 0
1, 104400, Note_on_c, 0, 77, 71
1, 104400, Note_on_c, 1, 62, 0
1, 104400, Note_on_c, 1, 59, 76
1, 104520, Note_on_c, 1, 59, 0
1, 104520, Note_on_c, 1, 62, 75
1, 104640, Note_on_c, 0, 77, 0
1, 104640, Note_on_c, 1, 62, 0
1, 104640, Note_on_c, 1, 68, 79
1, 104760, Note_on_c, 1, 68, 0
1, 104760, Note_on_c, 1, 62, 71
1, 104880, Note_on_c, 1, 62, 0
1, 104880, Note_on_c, 1, 59, 75
1, 105000, Note_on_c, 1, 59, 0
1, 105000, Note_on_c, 1, 62, 78
1, 105120, Note_on_c, 0, 85, 54
1, 105120, Note_on_c, 1, 62, 0
1, 105120, Note_on_c, 1, 58, 50
1, 105240, Note_on_c, 1, 58, 0
1, 105240, Note_on_c, 1, 64, 51
1, 105360, Note_on_c, 1, 64, 0
1, 105360, Note_on_c, 1, 67, 52
1, 105480, Note_on_c, 1, 67, 0
1, 105480, Note_on_c, 1, 64, 54
1, 105600, Note_on_c, 1, 64, 0
1, 105600, Note_on_c, 1, 58, 48
1, 105720, Note_on_c, 1, 58, 0
1, 105720, Note_on_c, 1, 67, 46
1, 105840, Note_on_c, 0, 85, 0
1, 105840, Note_on_c, 0, 76, 45
1, 105840, Note_on_c, 1, 67, 0
1, 105840, Note_on_c, 1, 58, 45
1, 105960, Note_on_c, 1, 58, 0
1, 105960, Note_on_c, 1, 61, 46
1, 106080, Note_on_c, 0, 76, 0
1, 106080, Note_on_c, 1, 61, 0
1, 106080, Note_on_c, 1, 67, 54
1, 106200, Note_on_c, 1, 67, 0
1, 106200, Note_on_c, 1, 61, 54
1, 106320, Note_on_c, 1, 61, 0
1, 106320, Note_on_c, 1, 58, 46
1, 106440, Note_on_c, 1, 58, 0
1, 106440, Note_on_c, 1, 67, 45
1, 106560, Note_on_c, 1, 67, 0
1, 106560, Note_on_c, 1, 56, 48
1, 106680, Note_on_c, 1, 56, 0
1, 106680, Note_on_c, 1, 60, 53
1, 106800, Note_on_c, 0, 77, 50
1, 106800, Note_on_c, 1, 60, 0
1, 106800, Note_on_c, 1, 65, 48
1, 106920, Note_on_c, 1, 65, 0
1, 106920, Note_on_c, 1, 60, 46
1, 107040, Note_on_c, 0, 77, 0
1, 107040, Note_on_c, 0, 77, 53
1, 107040, Note_on_c, 1, 60, 0
1, 107040, Note_on_c, 1, 56, 45
1, 107160, Note_on_c, 1, 56, 0
1, 107160, Note_on_c, 1, 60, 52
1, 107280, Note_on_c, 0, 77, 0
1, 107280, Note_on_c, 1, 60, 0
1, 107280, Note_on_c, 1, 58, 50
1, 107400, Note_on_c, 1, 58, 0
1, 107400, Note_on_c, 1, 61, 45
1, 107520, Note_on_c, 0, 73, 50
1, 107520, Note_on_c, 1, 61, 0
1, 107520, Note_on_c, 1, 65, 47
1, 107640, Note_on_c, 1, 65, 0
1, 107640, Note_on_c, 1, 61, 45
1, 107760, Note_on_c, 0, 73, 0
1, 107760, Note_on_c, 0, 73, 46
1, 107760, Note_on_c, 1, 61, 0
1, 107760, Note_on_c, 1, 58, 53
1, 107880, Note_on_c, 1, 58, 0
1, 107880, Note_on_c, 1, 61, 47
1, 108000, Note_on_c, 0, 73, 0
1, 108000, Note_on_c, 1, 61, 0
1, 108000, Note_on_c, 1, 60, 45
1, 108120, Note_on_c, 1, 60, 0
1, 108120, Note_on_c, 1, 65, 48
1, 108240, Note_on_c, 0, 72, 47
1, 108240, Note_on_c, 1, 65, 0
1, 108240, Note_on_c, 1, 68, 45
1, 108360, Note_on_c, 1, 68, 0
1, 108360, Note_on_c, 1, 65, 53
1, 108480, Note_on_c, 0, 72, 0
1, 108480, Note_on_c, 0, 72, 50
1, 108480, Note_on_c, 1, 65, 0
1, 108480, Note_on_c, 1, 60, 45
1, 108600, Note_on_c, 1, 60, 0
1, 108600, Note_on_c, 1, 65, 48
1, 108720, Note_on_c, 0, 72, 0
1, 108720, Note_on_c, 1, 65, 0
1, 108720, Note_on_c, 1, 60, 49
1, 108840, Note_on_c, 1, 60, 0
1, 108840, Note_on_c, 1, 67, 50
1, 108960, Note_on_c, 0, 76, 53
1, 108960, Note_on_c, 1, 67, 0
1, 108960, Note_on_c, 1, 70, 48
1, 109080, Note_on_c, 1, 70, 0
1, 109080, Note_on_c, 1, 67, 53
1, 109200, Note_on_c, 0, 76, 0
1, 109200, Note_on_c, 0, 76, 50
1, 109200, Note_on_c, 1, 67, 0
1, 109200, Note_on_c, 1, 70, 50
1, 109320, Note_on_c, 1, 70, 0
1, 109320, Note_on_c, 1, 67, 51
1, 109440, Note_on_c, 0, 76, 0
1, 109440, Note_on_c, 0, 77, 71
1, 109440, Note_on_c, 1, 67, 0
1, 109440, Note_on_c, 1, 56, 74
1, 109560, Note_on_c, 1, 56, 0
1, 109560, Note_on_c, 1, 60, 75
1, 109680, Note_on_c, 1, 60, 0
1, 109680, Note_on_c, 1, 65, 73
1, 109800, Note_on_c, 1, 65, 0
1, 109800, Note_on_c, 1, 60, 76
1, 109920, Note_on_c, 0, 77, 0
1, 109920, Note_on_c, 0, 84, 72
1, 109920, Note_on_c, 1, 60, 0
1, 109920, Note_on_c, 1, 56, 76
1, 110040, Note_on_c, 0, 84, 0
1, 110040, Note_on_c, 0, 80, 71
1, 110040, Note_on_c, 1, 56, 0
1, 110040, Note_on_c, 1, 60, 72
1, 110160, Note_on_c, 0, 80, 0
1, 110160, Note_on_c, 0, 80, 79
1, 110160, Note_on_c, 1, 60, 0
1, 110160, Note_on_c, 1, 58, 74
1, 110280, Note_on_c, 0, 80, 0
1, 110280, Note_on_c, 0, 79, 71
1, 110280, Note_on_c, 1, 58, 0
1, 110280, Note_on_c, 1, 61, 74
1, 110400, Note_on_c, 0, 79, 0
1, 110400, Note_on_c, 0, 85, 79
1, 110400, Note_on_c, 1, 61, 0
1, 110400, Note_on_c, 1, 65, 70
1, 110520, Note_on_c, 0, 85, 0
1, 110520, Note_on_c, 0, 82, 79
1, 110520, Note_on_c, 1, 65, 0
1, 110520, Note_on_c, 1, 61, 75
1, 110640, Note_on_c, 0, 82, 0
1, 110640, Note_on_c, 0, 82, 78
1, 110640, Note_on_c, 1, 61, 0
1, 110640, Note_on_c, 1, 58, 77
1, 110760, Note_on_c, 0, 82, 0
1, 110760, Note_on_c, 0, 79, 76
1, 110760, Note_on_c, 1, 58, 0
1, 110760, Note_on_c, 1, 61, 78
1, 110880, Note_on_c, 0, 79, 0
1, 110880, Note_on_c, 0, 77, 45
1, 110880, Note_on_c, 1, 61, 0
1, 110880, Note_on_c, 1, 60, 49
1, 111000, Note_on_c, 1, 60, 0
1, 111000, Note_on_c, 1, 65, 47
1, 111120, Note_on_c, 1, 65, 0
1, 111120, Note_on_c, 1, 68, 54
1, 111240, Note_on_c, 1, 68, 0
1, 111240, Note_on_c, 1, 65, 53
1, 111360, Note_on_c, 1, 65, 0
1, 111360, Note_on_c, 1, 60, 51
1, 111480, Note_on_c, 1, 60, 0
1, 111480, Note_on_c, 1, 65, 46
1, 111600, Note_on_c, 0, 77, 0
1, 111600, Note_on_c, 0, 78, 76
1, 111600, Note_on_c, 1, 65, 0
1, 111600, Note_on_c, 1, 48, 76
1, 111660, Note_on_c, 0, 78, 0
1, 111660, Note_on_c, 0, 79, 71
1, 111720, Note_on_c, 0, 79, 0
1, 111720, Note_on_c, 0, 78, 74
1, 111720, Note_on_c, 1, 48, 0
1, 111720, Note_on_c, 1, 51, 78
1, 111780, Note_on_c, 0, 78, 0
1, 111780, Note_on_c, 0, 79, 74
1, 111840, Note_on_c, 0, 79, 0
1, 111840, Note_on_c, 0, 78, 79
1, 111840, Note_on_c, 1, 51, 0
1, 111840, Note_on_c, 1, 57, 78
1, 111900, Note_on_c, 0, 78, 0
1, 111900, Note_on_c, 0, 79, 75
1, 111960, Note_on_c, 0, 79, 0
1, 111960, Note_on_c, 0, 78, 79
1, 111960, Note_on_c, 1, 57, 0
1, 111960, Note_on_c, 1, 51, 79
1, 112020, Note_on_c, 0, 78, 0
1, 112020, Note_on_c, 0, 79, 71
1, 112080, Note_on_c, 0, 79, 0
1, 112080, Note_on_c, 0, 78, 77
1, 112080, Note_on_c, 1, 51, 0
1, 112080, Note_on_c, 1, 48, 74
1, 112140, Note_on_c, 0, 78, 0
1, 112140, Note_on_c, 0, 79, 70
1, 112200, Note_on_c, 0, 79, 0
1, 112200, Note_on_c, 0, 78, 79
1, 112200, Note_on_c, 1, 48, 0
1, 112200, Note_on_c, 1, 51, 71
1, 112260, Note_on_c, 0, 78, 0
1, 112260, Note_on_c, 0, 79, 77
1, 112320, Note_on_c, 0, 79, 0
1, 112320, Note_on_c, 0, 77, 46
1, 112320, Note_on_c, 1, 51, 0
1, 112320, Note_on_c, 1, 49, 45
1, 112440, Note_on_c, 1, 49, 0
1, 112440, Note_on_c, 1, 53, 48
1, 112560, Note_on_c, 0, 77, 0
1, 112560, Note_on_c, 0, 79, 45
1, 112560, Note_on_c, 1, 53, 0
1, 112560, Note_on_c, 1, 59, 46
1, 112680, Note_on_c, 1, 59, 0
1, 112680, Note_on_c, 1, 53, 49
1, 112800, Note_on_c, 0, 79, 0
1, 112800, Note_on_c, 0, 80, 51
1, 112800, Note_on_c, 1, 53, 0
1, 112800, Note_on_c, 1, 49, 51
1, 112920, Note_on_c, 1, 49, 0
1, 112920, Note_on_c, 1, 53, 48
1, 113040, Note_on_c, 0, 80, 0
1, 113040, Note_on_c, 0, 69, 54
1, 113040, Note_on_c, 1, 53, 0
1, 113040, Note_on_c, 1, 50, 51
1, 113160, Note_on_c, 1, 50, 0
1, 113160, Note_on_c, 1, 53, 54
1, 113280, Note_on_c, 0, 69, 0
1, 113280, Note_on_c, 0, 70, 54
1, 113280, Note_on_c, 1, 53, 0
1, 113280, Note_on_c, 1, 56, 48
1, 113400, Note_on_c, 1, 56, 0
1, 113400, Note_on_c, 1, 53, 45
1, 113520, Note_on_c, 0, 70, 0
1, 113520, Note_on_c, 0, 71, 52
1, 113520, Note_on_c, 1, 53, 0
1, 113520, Note_on_c, 1, 50, 54
1, 113640, Note_on_c, 1, 50, 0
1, 113640, Note_on_c, 1, 53, 51
1, 113760, Note_on_c, 0, 71, 0
1, 113760, Note_on_c, 0, 72, 77
1, 113760, Note_on_c, 1, 53, 0
1, 113760, Note_on_c, 1, 48, 78
1, 113880, Note_on_c, 0, 72, 0
1, 113880, Note_on_c, 0, 73, 72
1, 114000, Note_on_c, 0, 73, 0
1, 114000, Note_on_c, 0, 74, 74
1, 114000, Note_on_c, 1, 48, 0
1, 114120, Note_on_c, 0, 74, 0
1, 114120, Note_on_c, 0, 75, 70
1, 114240, Note_on_c, 0, 75, 0
1, 114240, Note_on_c, 0, 76, 71
1, 114360, Note_on_c, 0, 76, 0
1, 114360, Note_on_c, 0, 77, 72
1, 114480, Note_on_c, 0, 77, 0
1, 114480, Note_on_c, 0, 67, 75
1, 114480, Note_on_c, 1, 48, 75
1, 114540, Note_on_c, 0, 67, 0
1, 114540, Note_on_c, 0, 68, 77
1, 114600, Note_on_c, 0, 68, 0
1, 114600, Note_on_c, 0, 67, 78
1, 114600, Note_on_c, 1, 48, 0
1, 114600, Note_on_c, 1, 52, 78
1, 114660, Note_on_c, 0, 67, 0
1, 114660, Note_on_c, 0, 68, 71
1, 114720, Note_on_c, 0, 68, 0
1, 114720, Note_on_c, 0, 67, 78
1, 114720, Note_on_c, 1, 52, 0
1, 114720, Note_on_c, 1, 58, 73
1, 114780, Note_on_c, 0, 67, 0
1, 114780, Note_on_c, 0, 68, 74
1, 114840, Note_on_c, 0, 68, 0
1, 114840, Note_on_c, 0, 67, 70
1, 114840, Note_on_c, 1, 58, 0
1, 114840, Note_on_c, 1, 52, 73
1, 114900, Note_on_c, 0, 67, 0
1, 114900, Note_on_c, 0, 68, 76
1, 114960, Note_on_c, 0, 68, 0
1, 114960, Note_on_c, 0, 67, 72
1, 114960, Note_on_c, 1, 52, 0
1, 114960, Note_on_c, 1, 48, 77
1, 115020, Note_on_c, 0, 67, 0
1, 115020, Note_on_c, 0, 68, 78
1, 115080, Note_on_c, 0, 68, 0
1, 115080, Note_on_c, 0, 65, 70
1, 115080, Note_on_c, 1, 48, 0
1, 115080, Note_on_c, 1, 52, 70
1, 115140, Note_on_c, 0, 65, 0
1, 115140, Note_on_c, 0, 67, 75
1, 115200, Note_on_c, 0, 67, 0
1, 115200, Note_on_c, 0, 65, 78
1, 115200, Note_on_c, 1, 52, 0
1, 115200, Note_on_c, 1, 53, 71
1, 115440, Note_on_c, 0, 65, 0
1, 115440, Note_on_c, 1, 53, 0
1, 115680, Note_on_c, 0, 65, 48
1, 115680, Note_on_c, 0, 63, 54
1, 115680, Note_on_c, 0, 60, 49
1, 115680, Note_on_c, 1, 45, 50
1, 115920, Note_on_c, 0, 65, 0
1, 115920, Note_on_c, 0, 60, 0
1, 115920, Note_on_c, 0, 63, 0
1, 115920, Note_on_c, 0, 65, 54
1, 115920, Note_on_c, 0, 61, 48
1, 115920, Note_on_c, 0, 58, 50
1, 115920, Note_on_c, 1, 45, 0
1, 115920, Note_on_c, 1, 46, 54
1, 116160, Note_on_c, 0, 65, 0
1, 116160, Note_on_c, 0, 58, 0
1, 116160, Note_on_c, 0, 61, 0
1, 116160, Note_on_c, 1, 46, 0
1, 116400, Note_on_c, 0, 73, 79
1, 116400, Note_on_c, 0, 65, 74
1, 116400, Note_on_c, 1, 46, 79
1, 116640, Note_on_c, 0, 73, 0
1, 116640, Note_on_c, 0, 65, 0
1, 116640, Note_on_c, 0, 68, 74
1, 116640, Note_on_c, 0, 65, 75
1, 116640, Note_on_c, 0, 60, 77
1, 116640, Note_on_c, 1, 46, 0
1, 116640, Note_on_c, 1, 48, 74
1, 117000, Note_on_c, 0, 68, 0
1, 117000, Note_on_c, 0, 65, 0
1, 117000, Note_on_c, 0, 70, 73
1, 117000, Note_on_c, 0, 67, 74
1, 117120, Note_on_c, 0, 60, 0
1, 117120, Note_on_c, 0, 67, 0
1, 117120, Note_on_c, 0, 70, 0
1, 117120, Note_on_c, 0, 67, 76
1, 117120, Note_on_c, 0, 64, 72
1, 117120, Note_on_c, 0, 58, 71
1, 117120, Note_on_c, 1, 48, 0
1, 117120, Note_on_c, 1, 36, 72
1, 117360, Note_on_c, 0, 67, 0
1, 117360, Note_on_c, 0, 58, 0
1, 117360, Note_on_c, 0, 64, 0
1, 117360, Note_on_c, 0, 65, 76
1, 117360, Note_on_c, 0, 56, 75
1, 117360, Note_on_c, 1, 36, 0
1, 117360, Note_on_c, 1, 41, 73
1, 117600, Note_on_c, 0, 65, 0
1, 117600, Note_on_c, 0, 56, 0
1, 117600, Note_on_c, 1, 41, 0
1, 117840, Note_on_c, 0, 75, 46
1, 117840, Note_on_c, 0, 66, 53
1, 117840, Note_on_c, 1, 57, 54
1, 117840, Note_on_c, 1, 45, 52
1, 118080, Note_on_c, 0, 75, 0
1, 118080, Note_on_c, 0, 66, 0
1, 118080, Note_on_c, 0, 73, 49
1, 118080, Note_on_c, 0, 65, 45
1, 118080, Note_on_c, 1, 57, 0
1, 118080, Note_on_c, 1, 45, 0
1, 118080, Note_on_c, 1, 58, 50
1, 118080, Note_on_c, 1, 46, 52
1, 118320, Note_on_c, 0, 73, 0
1, 118320, Note_on_c, 0, 65, 0
1, 118320, Note_on_c, 1, 58, 0
1, 118320, Note_on_c, 1, 46, 0
1, 118560, Note_on_c, 0, 77, 73
1, 118560, Note_on_c, 0, 68, 73
1, 118560, Note_on_c, 1, 62, 78
1, 118560, Note_on_c, 1, 59, 77
1, 118800, Note_on_c, 0, 77, 0
1, 118800, Note_on_c, 0, 68, 0
1, 118800, Note_on_c, 0, 68, 75
1, 118800, Note_on_c, 0, 65, 79
1, 118800, Note_on_c, 1, 62, 0
1, 118800, Note_on_c, 1, 59, 0
1, 118800, Note_on_c, 1, 60, 71
1, 119160, Note_on_c, 0, 68, 0
1, 119160, Note_on_c, 0, 65, 0
1, 119160, Note_on_c, 0, 70, 78
1, 119160, Note_on_c, 0, 67, 72
1, 119280, Note_on_c, 0, 70, 0
1, 119280, Note_on_c, 0, 67, 0
1, 119280, Note_on_c, 0, 67, 72
1, 119280, Note_on_c, 0, 64, 74
1, 119280, Note_on_c, 1, 60, 0
1, 119280, Note_on_c, 1, 58, 79
1, 119280, Note_on_c, 1, 48, 73
1, 119520, Note_on_c, 0, 67, 0
1, 119520, Note_on_c, 0, 64, 0
1, 119520, Note_on_c, 0, 67, 76
1, 119520, Note_on_c, 0, 64, 78
1, 119520, Note_on_c, 0, 58, 77
1, 119520, Note_on_c, 1, 58, 0
1, 119520, Note_on_c, 1, 48, 0
1, 119520, Note_on_c, 1, 53, 72
1, 120240, Note_on_c, 0, 67, 0
1, 120240, Note_on_c, 0, 58, 0
1, 120240, Note_on_c, 0, 64, 0
1, 120240, Note_on_c, 0, 65, 73
1, 120240, Note_on_c, 0, 56, 74
1, 120240, Note_on_c, 1, 53, 0
1, 120240, Note_on_c, 1, 41, 72
1, 120480, Note_on_c, 0, 65, 0
1, 120480, Note_on_c, 0, 56, 0
1, 120480, Note_on_c, 1, 41, 0
1, 120960, Note_on_c, 0, 77, 45
1, 121020, Note_on_c, 0, 77, 0
1, 121020, Note_on_c, 0, 75, 45
1, 121080, Note_on_c, 0, 75, 0
1, 121080, Note_on_c, 0, 77, 49
1, 121140, Note_on_c, 0, 77, 0
1, 121140, Note_on_c, 0, 75, 50
1, 121200, Note_on_c, 0, 75, 0
1, 121200, Note_on_c, 0, 77, 48
1, 121260, Note_on_c, 0, 77, 0
1, 121260, Note_on_c, 0, 75, 50
1, 121320, Note_on_c, 0, 75, 0
1, 121320, Note_on_c, 0, 77, 46
1, 121440, Note_on_c, 0, 77, 0
1, 121440, Note_on_c, 0, 75, 52
1, 121680, Note_on_c, 0, 75, 0
1, 121680, Note_on_c, 0, 75, 45
1, 122160, Note_on_c, 0, 75, 0
1, 122160, Note_on_c, 0, 75, 50
1, 122400, Note_on_c, 0, 75, 0
1, 122400, Note_on_c, 0, 69, 71
1, 122400, Note_on_c, 0, 72, 70
1, 122400, Note_on_c, 0, 75, 75
1, 122400, Note_on_c, 1, 66, 74
1, 122880, Note_on_c, 0, 75, 0
1, 122880, Note_on_c, 0, 77, 73
1, 122880, Note_on_c, 1, 66, 0
1, 122880, Note_on_c, 1, 65, 74
1, 123120, Note_on_c, 0, 77, 0
1, 123120, Note_on_c, 0, 78, 73
1, 123120, Note_on_c, 1, 65, 0
1, 123120, Note_on_c, 1, 63, 72
1, 123360, Note_on_c, 0, 69, 0
1, 123360, Note_on_c, 0, 78, 0
1, 123360, Note_on_c, 0, 72, 0
1, 123360, Note_on_c, 1, 63, 0
1, 123840, Note_on_c, 0, 57, 46
1, 123840, Note_on_c, 0, 60, 52
1, 123840, Note_on_c, 0, 63, 46
1, 123840, Note_on_c, 1, 54, 50
1, 124320, Note_on_c, 0, 63, 0
1, 124320, Note_on_c, 0, 65, 45
1, 124320, Note_on_c, 1, 54, 0
1, 124320, Note_on_c, 1, 53, 47
1, 124560, Note_on_c, 0, 65, 0
1, 124560, Note_on_c, 0, 66, 47
1, 124560, Note_on_c, 1, 53, 0
1, 124560, Note_on_c, 1, 51, 45
1, 124800, Note_on_c, 0, 57, 0
1, 124800, Note_on_c, 0, 66, 0
1, 124800, Note_on_c, 0, 60, 0
1, 124800, Note_on_c, 1, 51, 0
1, 125280, Note_on_c, 0, 70, 78
1, 125280, Note_on_c, 0, 65, 78
1, 125280, Note_on_c, 1, 61, 74
1, 125280, Note_on_c, 1, 49, 78
1, 125520, Note_on_c, 0, 70, 0
1, 125520, Note_on_c, 0, 65, 0
1, 125520, Note_on_c, 0, 63, 77
1, 125520, Note_on_c, 0, 69, 76
1, 125520, Note_on_c, 1, 61, 0
1, 125520, Note_on_c, 1, 49, 0
1, 125520, Note_on_c, 1, 48, 74
1, 125520, Note_on_c, 1, 60, 73
1, 125760, Note_on_c, 0, 63, 0
1, 125760, Note_on_c, 0, 69, 0
1, 125760, Note_on_c, 0, 70, 71
1, 125760, Note_on_c, 0, 61, 71
1, 125760, Note_on_c, 1, 48, 0
1, 125760, Note_on_c, 1, 60, 0
1, 125760, Note_on_c, 1, 58, 71
1, 125760, Note_on_c, 1, 46, 79
1, 126000, Note_on_c, 0, 70, 0
1, 126000, Note_on_c, 0, 61, 0
1, 126000, Note_on_c, 0, 65, 78
1, 126000, Note_on_c, 0, 75, 72
1, 126000, Note_on_c, 0, 72, 77
1, 126000, Note_on_c, 1, 58, 0
1, 126000, Note_on_c, 1, 46, 0
1, 126000, Note_on_c, 1, 57, 70
1, 126000, Note_on_c, 1, 45, 76
1, 126240, Note_on_c, 0, 65, 0
1, 126240, Note_on_c, 0, 72, 0
1, 126240, Note_on_c, 0, 75, 0
1, 126240, Note_on_c, 1, 57, 0
1, 126240, Note_on_c, 1, 45, 0
1, 126720, Note_on_c, 1, 46, 46
1, 126840, Note_on_c, 0, 73, 52
1, 126960, Note_on_c, 0, 73, 0
1, 126960, Note_on_c, 0, 72, 51
1, 126960, Note_on_c, 1, 46, 0
1, 127080, Note_on_c, 0, 72, 0
1, 127080, Note_on_c, 0, 73, 48
1, 127200, Note_on_c, 0, 73, 0
1, 127200, Note_on_c, 0, 75, 52
1, 127320, Note_on_c, 0, 75, 0
1, 127320, Note_on_c, 0, 73, 53
1, 127440, Note_on_c, 0, 73, 0
1, 127440, Note_on_c, 0, 78, 46
1, 127560, Note_on_c, 0, 73, 49
1, 127560, Note_on_c, 1, 58, 48
1, 127680, Note_on_c, 0, 73, 0
1, 127680, Note_on_c, 0, 72, 46
1, 127680, Note_on_c, 1, 58, 0
1, 127680, Note_on_c, 1, 57, 49
1, 127800, Note_on_c, 0, 72, 0
1, 127800, Note_on_c, 0, 73, 49
1, 127800, Note_on_c, 1, 57, 0
1, 127800, Note_on_c, 1, 58, 53
1, 127920, Note_on_c, 0, 73, 0
1, 127920, Note_on_c, 0, 75, 45
1, 127920, Note_on_c, 1, 58, 0
1, 127920, Note_on_c, 1, 60, 47
1, 128040, Note_on_c, 0, 75, 0
1, 128040, Note_on_c, 0, 73, 54
1, 128040, Note_on_c, 1, 60, 0
1, 128040, Note_on_c, 1, 58, 49
1, 128160, Note_on_c, 0, 73, 0
1, 128160, Note_on_c, 0, 72, 45
1, 128160, Note_on_c, 1, 58, 0
1, 128160, Note_on_c, 1, 57, 49
1, 128280, Note_on_c, 0, 78, 0
1, 128280, Note_on_c, 0, 78, 51
1, 128400, Note_on_c, 0, 78, 0
1, 128400, Note_on_c, 0, 77, 53
1, 128520, Note_on_c, 0, 77, 0
1, 128520, Note_on_c, 0, 78, 49
1, 128640, Note_on_c, 0, 78, 0
1, 128640, Note_on_c, 0, 80, 46
1, 128760, Note_on_c, 0, 80, 0
1, 128760, Note_on_c, 0, 78, 54
1, 128880, Note_on_c, 0, 78, 0
1, 128880, Note_on_c, 0, 77, 54
1, 129000, Note_on_c, 0, 72, 0
1, 129000, Note_on_c, 0, 72, 46
1, 129000, Note_on_c, 1, 57, 0
1, 129000, Note_on_c, 1, 56, 47
1, 129120, Note_on_c, 0, 72, 0
1, 129120, Note_on_c, 0, 71, 49
1, 129120, Note_on_c, 1, 56, 0
1, 129120, Note_on_c, 1, 55, 54
1, 129240, Note_on_c, 0, 71, 0
1, 129240, Note_on_c, 0, 72, 46
1, 129240, Note_on_c, 1, 55, 0
1, 129240, Note_on_c, 1, 56, 52
1, 129360, Note_on_c, 0, 72, 0
1, 129360, Note_on_c, 0, 73, 51
1, 129360, Note_on_c, 1, 56, 0
1, 129360, Note_on_c, 1, 58, 46
1, 129480, Note_on_c, 0, 73, 0
1, 129480, Note_on_c, 0, 72, 47
1, 129480, Note_on_c, 1, 58, 0
1, 129480, Note_on_c, 1, 56, 51
1, 129600, Note_on_c, 0, 72, 0
1, 129600, Note_on_c, 0, 71, 46
1, 129600, Note_on_c, 1, 56, 0
1, 129600, Note_on_c, 1, 55, 46
1, 129720, Note_on_c, 0, 77, 0
1, 129720, Note_on_c, 0, 77, 51
1, 129720, Note_on_c, 1, 62, 54
1, 129840, Note_on_c, 0, 71, 0
1, 129840, Note_on_c, 0, 77, 0
1, 129840, Note_on_c, 0, 76, 53
1, 129840, Note_on_c, 1, 55, 0
1, 129840, Note_on_c, 1, 62, 0
1, 129840, Note_on_c, 1, 61, 47
1, 129960, Note_on_c, 0, 76, 0
1, 129960, Note_on_c, 0, 77, 50
1, 129960, Note_on_c, 1, 61, 0
1, 129960, Note_on_c, 1, 62, 46
1, 130080, Note_on_c, 0, 77, 0
1, 130080, Note_on_c, 0, 79, 50
1, 130080, Note_on_c, 1, 62, 0
1, 130080, Note_on_c, 1, 63, 47
1, 130200, Note_on_c, 0, 79, 0
1, 130200, Note_on_c, 0, 77, 53
1, 130200, Note_on_c, 1, 63, 0
1, 130200, Note_on_c, 1, 62, 54
1, 130320, Note_on_c, 0, 77, 0
1, 130320, Note_on_c, 1, 62, 0
1, 130320, Note_on_c, 1, 54, 47
1, 130440, Note_on_c, 0, 75, 54
1, 130440, Note_on_c, 1, 60, 49
1, 130560, Note_on_c, 0, 75, 0
1, 130560, Note_on_c, 0, 74, 46
1, 130560, Note_on_c, 1, 54, 0
1, 130560, Note_on_c, 1, 60, 0
1, 130560, Note_on_c, 1, 59, 53
1, 130680, Note_on_c, 0, 74, 0
1, 130680, Note_on_c, 0, 75, 51
1, 130680, Note_on_c, 1, 59, 0
1, 130680, Note_on_c, 1, 60, 45
1, 130800, Note_on_c, 0, 75, 0
1, 130800, Note_on_c, 0, 77, 54
1, 130800, Note_on_c, 1, 60, 0
1, 130800, Note_on_c, 1, 62, 50
1, 130920, Note_on_c, 0, 77, 0
1, 130920, Note_on_c, 0, 75, 53
1, 130920, Note_on_c, 1, 62, 0
1, 130920, Note_on_c, 1, 60, 52
1, 131040, Note_on_c, 0, 75, 0
1, 131040, Note_on_c, 0, 74, 79
1, 131040, Note_on_c, 0, 71, 76
1, 131040, Note_on_c, 1, 60, 0
1, 131160, Note_on_c, 1, 55, 75
1, 131280, Note_on_c, 0, 74, 0
1, 131280, Note_on_c, 0, 71, 0
1, 131280, Note_on_c, 1, 55, 0
1, 131280, Note_on_c, 1, 54, 70
1, 131400, Note_on_c, 1, 54, 0
1, 131400, Note_on_c, 1, 55, 70
1, 131520, Note_on_c, 1, 55, 0
1, 131520, Note_on_c, 1, 56, 71
1, 131640, Note_on_c, 1, 56, 0
1, 131640, Note_on_c, 1, 55, 70
1, 131760, Note_on_c, 1, 55, 0
1, 131760, Note_on_c, 1, 43, 79
1, 132000, Note_on_c, 1, 43, 0
1, 132480, Note_on_c, 0, 68, 73
1, 132480, Note_on_c, 1, 51, 75
1, 132480, Note_on_c, 1, 48, 76
1, 132540, Note_on_c, 0, 68, 0
1, 132540, Note_on_c, 0, 67, 74
1, 132600, Note_on_c, 0, 67, 0
1, 132600, Note_on_c, 0, 68, 74
1, 132660, Note_on_c, 0, 68, 0
1, 132660, Note_on_c, 0, 67, 76
1, 132720, Note_on_c, 0, 67, 0
1, 132720, Note_on_c, 0, 68, 74
1, 132780, Note_on_c, 0, 68, 0
1, 132780, Note_on_c, 0, 67, 71
1, 132840, Note_on_c, 0, 67, 0
1, 132840, Note_on_c, 0, 68, 70
1, 132960, Note_on_c, 0, 68, 0
1, 132960, Note_on_c, 0, 67, 79
1, 132960, Note_on_c, 1, 51, 0
1, 132960, Note_on_c, 1, 48, 0
1, 133200, Note_on_c, 0, 67, 0
1, 133200, Note_on_c, 0, 67, 73
1, 133680, Note_on_c, 0, 67, 0
1, 133680, Note_on_c, 0, 72, 70
1, 133920, Note_on_c, 0, 72, 0
1, 133920, Note_on_c, 0, 62, 70
1, 133920, Note_on_c, 0, 72, 75
1, 133920, Note_on_c, 1, 56, 71
1, 133920, Note_on_c, 1, 53, 78
1, 134280, Note_on_c, 0, 62, 0
1, 134280, Note_on_c, 0, 63, 76
1, 134400, Note_on_c, 0, 63, 0
1, 134400, Note_on_c, 0, 62, 76
1, 134640, Note_on_c, 0, 62, 0
1, 134640, Note_on_c, 0, 62, 79
1, 134880, Note_on_c, 0, 72, 0
1, 134880, Note_on_c, 0, 62, 0
1, 134880, Note_on_c, 0, 70, 78
1, 134880, Note_on_c, 1, 56, 0
1, 134880, Note_on_c, 1, 53, 0
1, 135120, Note_on_c, 0, 70, 0
1, 135120, Note_on_c, 0, 68, 70
1, 135360, Note_on_c, 0, 68, 0
1, 135360, Note_on_c, 0, 59, 49
1, 135360, Note_on_c, 0, 62, 48
1, 135360, Note_on_c, 0, 67, 51
1, 135360, Note_on_c, 1, 55, 52
1, 135720, Note_on_c, 1, 55, 0
1, 135720, Note_on_c, 1, 56, 54
1, 135840, Note_on_c, 1, 56, 0
1, 135840, Note_on_c, 1, 55, 53
1, 136080, Note_on_c, 1, 55, 0
1, 136080, Note_on_c, 1, 55, 53
1, 136320, Note_on_c, 0, 59, 0
1, 136320, Note_on_c, 0, 62, 0
1, 136320, Note_on_c, 0, 63, 51
1, 136320, Note_on_c, 0, 60, 49
1, 136560, Note_on_c, 0, 63, 0
1, 136560, Note_on_c, 0, 60, 0
1, 136560, Note_on_c, 0, 65, 46
1, 136560, Note_on_c, 0, 62, 50
1, 136800, Note_on_c, 0, 65, 0
1, 136800, Note_on_c, 0, 62, 0
1, 136800, Note_on_c, 0, 65, 47
1, 136800, Note_on_c, 0, 60, 50
1, 136800, Note_on_c, 1, 55, 0
1, 136800, Note_on_c, 1, 48, 50
1, 137160, Note_on_c, 1, 48, 0
1, 137160, Note_on_c, 1, 49, 51
1, 137280, Note_on_c, 1, 49, 0
1, 137280, Note_on_c, 1, 48, 47
1, 137520, Note_on_c, 0, 65, 0
1, 137520, Note_on_c, 0, 60, 0
1, 137520, Note_on_c, 0, 60, 53
1, 137520, Note_on_c, 0, 64, 47
1, 137520, Note_on_c, 1, 48, 0
1, 137520, Note_on_c, 1, 48, 50
1, 137760, Note_on_c, 0, 67, 0
1, 137760, Note_on_c, 0, 64, 0
1, 137760, Note_on_c, 0, 60, 0
1, 137760, Note_on_c, 0, 68, 50
1, 137760, Note_on_c, 0, 65, 50
1, 138000, Note_on_c, 0, 68, 0
1, 138000, Note_on_c, 0, 65, 0
1, 138000, Note_on_c, 0, 70, 49
1, 138000, Note_on_c, 0, 67, 47
1, 138240, Note_on_c, 0, 70, 0
1, 138240, Note_on_c, 0, 67, 0
1, 138240, Note_on_c, 0, 68, 72
1, 138240, Note_on_c, 0, 72, 72
1, 138240, Note_on_c, 1, 48, 0
1, 138240, Note_on_c, 1, 56, 72
1, 138240, Note_on_c, 1, 53, 73
1, 138300, Note_on_c, 0, 72, 0
1, 138300, Note_on_c, 0, 73, 72
1, 138360, Note_on_c, 0, 73, 0
1, 138360, Note_on_c, 0, 72, 70
1, 138420, Note_on_c, 0, 72, 0
1, 138420, Note_on_c, 0, 73, 70
1, 138480, Note_on_c, 0, 73, 0
1, 138480, Note_on_c, 0, 72, 74
1, 138540, Note_on_c, 0, 72, 0
1, 138540, Note_on_c, 0, 73, 79
1, 138600, Note_on_c, 0, 68, 0
1, 138600, Note_on_c, 0, 73, 0
1, 138600, Note_on_c, 0, 73, 75
1, 138720, Note_on_c, 0, 73, 0
1, 138720, Note_on_c, 0, 72, 75
1, 138720, Note_on_c, 1, 56, 0
1, 138720, Note_on_c, 1, 53, 0
1, 138960, Note_on_c, 0, 72, 0
1, 138960, Note_on_c, 0, 72, 70
1, 139440, Note_on_c, 0, 72, 0
1, 139440, Note_on_c, 0, 77, 76
1, 139680, Note_on_c, 0, 77, 0
1, 139680, Note_on_c, 0, 67, 72
1, 139680, Note_on_c, 0, 77, 73
1, 139680, Note_on_c, 1, 58, 71
1, 139680, Note_on_c, 1, 61, 77
1, 140040, Note_on_c, 0, 67, 0
1, 140040, Note_on_c, 0, 68, 71
1, 140160, Note_on_c, 0, 68, 0
1, 140160, Note_on_c, 0, 67, 73
1, 140400, Note_on_c, 0, 67, 0
1, 140400, Note_on_c, 0, 67, 70
1, 140640, Note_on_c, 0, 77, 0
1, 140640, Note_on_c, 0, 67, 0
1, 140640, Note_on_c, 0, 75, 72
1, 140640, Note_on_c, 1, 58, 0
1, 140640, Note_on_c, 1, 61, 0
1, 140880, Note_on_c, 0, 75, 0
1, 140880, Note_on_c, 0, 73, 78
1, 141120, Note_on_c, 0, 73, 0
1, 141120, Note_on_c, 0, 64, 48
1, 141120, Note_on_c, 0, 67, 53
1, 141120, Note_on_c, 0, 72, 51
1, 141120, Note_on_c, 1, 60, 53
1, 141480, Note_on_c, 1, 60, 0
1, 141480, Note_on_c, 1, 61, 50
1, 141600, Note_on_c, 1, 61, 0
1, 141600, Note_on_c, 1, 60, 47
1, 141840, Note_on_c, 1, 60, 0
1, 141840, Note_on_c, 1, 60, 53
1, 142080, Note_on_c, 0, 64, 0
1, 142080, Note_on_c, 0, 67, 0
1, 142080, Note_on_c, 0, 68, 53
1, 142080, Note_on_c, 0, 65, 51
1, 142320, Note_on_c, 0, 68, 0
1, 142320, Note_on_c, 0, 65, 0
1, 142320, Note_on_c, 0, 70, 45
1, 142320, Note_on_c, 0, 67, 50
1, 142560, Note_on_c, 0, 72, 0
1, 142560, Note_on_c, 0, 67, 0
1, 142560, Note_on_c, 0, 70, 0
1, 142560, Note_on_c, 0, 67, 71
1, 142560, Note_on_c, 0, 70, 72
1, 142560, Note_on_c, 1, 60, 0
1, 142560, Note_on_c, 1, 49, 70
1, 142560, Note_on_c, 1, 61, 76
1, 142920, Note_on_c, 0, 67, 0
1, 142920, Note_on_c, 0, 70, 0
1, 142920, Note_on_c, 0, 68, 74
1, 142920, Note_on_c, 0, 65, 71
1, 143040, Note_on_c, 0, 68, 0
1, 143040, Note_on_c, 0, 65, 0
1, 143040, Note_on_c, 0, 67, 70
1, 143040, Note_on_c, 0, 64, 76
1, 143280, Note_on_c, 0, 67, 0
1, 143280, Note_on_c, 0, 64, 0
1, 143280, Note_on_c, 0, 68, 76
1, 143280, Note_on_c, 0, 65, 73
1, 143640, Note_on_c, 1, 61, 0
1, 143640, Note_on_c, 1, 60, 76
1, 143760, Note_on_c, 1, 60, 0
1, 143760, Note_on_c, 1, 59, 77
1, 144000, Note_on_c, 1, 49, 0
1, 144000, Note_on_c, 1, 59, 0
1, 144000, Note_on_c, 1, 48, 46
1, 144000, Note_on_c, 1, 60, 51
1, 144360, Note_on_c, 0, 68, 0
1, 144360, Note_on_c, 0, 65, 0
1, 144360, Note_on_c, 0, 67, 54
1, 144360, Note_on_c, 0, 64, 48
1, 144480, Note_on_c, 0, 67, 0
1, 144480, Note_on_c, 0, 64, 0
1, 144480, Note_on_c, 0, 68, 49
1, 144480, Note_on_c, 0, 65, 47
1, 144720, Note_on_c, 0, 68, 0
1, 144720, Note_on_c, 0, 65, 0
1, 144720, Note_on_c, 0, 67, 45
1, 144720, Note_on_c, 0, 70, 50
1, 144960, Note_on_c, 0, 67, 0
1, 144960, Note_on_c, 0, 70, 0
1, 144960, Note_on_c, 0, 65, 46
1, 144960, Note_on_c, 0, 68, 46
1, 145200, Note_on_c, 0, 65, 0
1, 145200, Note_on_c, 0, 68, 0
1, 145200, Note_on_c, 0, 64, 54
1, 145200, Note_on_c, 0, 67, 50
1, 145200, Note_on_c, 1, 60, 0
1, 145200, Note_on_c, 1, 58, 52
1, 145440, Note_on_c, 0, 64, 0
1, 145440, Note_on_c, 0, 67, 0
1, 145440, Note_on_c, 0, 64, 78
1, 145440, Note_on_c, 0, 67, 75
1, 145440, Note_on_c, 1, 48, 0
1, 145440, Note_on_c, 1, 58, 0
1, 145440, Note_on_c, 1, 58, 78
1, 145440, Note_on_c, 1, 53, 74
1, 146160, Note_on_c, 0, 64, 0
1, 146160, Note_on_c, 0, 67, 0
1, 146160, Note_on_c, 0, 65, 70
1, 146160, Note_on_c, 1, 58, 0
1, 146160, Note_on_c, 1, 53, 0
1, 146160, Note_on_c, 1, 56, 71
1, 146160, Note_on_c, 1, 53, 71
1, 146400, Note_on_c, 0, 65, 0
1, 146400, Note_on_c, 1, 56, 0
1, 146400, Note_on_c, 1, 53, 0
1, 146880, Note_on_c, 0, 72, 45
1, 146880, Note_on_c, 1, 53, 54
1, 147000, Note_on_c, 1, 53, 0
1, 147000, Note_on_c, 1, 56, 47
1, 147120, Note_on_c, 0, 72, 0
1, 147120, Note_on_c, 1, 56, 0
1, 147120, Note_on_c, 1, 60, 47
1, 147240, Note_on_c, 1, 60, 0
1, 147240, Note_on_c, 1, 56, 48
1, 147360, Note_on_c, 0, 72, 52
1, 147360, Note_on_c, 1, 56, 0
1, 147360, Note_on_c, 1, 53, 48
1, 147480, Note_on_c, 1, 53, 0
1, 147480, Note_on_c, 1, 56, 46
1, 147600, Note_on_c, 0, 72, 0
1, 147600, Note_on_c, 0, 72, 54
1, 147600, Note_on_c, 1, 56, 0
1, 147600, Note_on_c, 1, 51, 50
1, 147720, Note_on_c, 1, 51, 0
1, 147720, Note_on_c, 1, 54, 45
1, 147840, Note_on_c, 0, 72, 0
1, 147840, Note_on_c, 1, 54, 0
1, 147840, Note_on_c, 1, 57, 54
1, 147960, Note_on_c, 1, 57, 0
1, 147960, Note_on_c, 1, 54, 52
1, 148080, Note_on_c, 0, 72, 47
1, 148080, Note_on_c, 1, 54, 0
1, 148080, Note_on_c, 1, 51, 45
1, 148200, Note_on_c, 1, 51, 0
1, 148200, Note_on_c, 1, 54, 50
1, 148320, Note_on_c, 0, 72, 0
1, 148320, Note_on_c, 0, 72, 70
1, 148320, Note_on_c, 1, 54, 0
1, 148320, Note_on_c, 1, 49, 72
1, 148440, Note_on_c, 1, 49, 0
1, 148440, Note_on_c, 1, 53, 71
1, 148560, Note_on_c, 1, 53, 0
1, 148560, Note_on_c, 1, 57, 79
1, 148680, Note_on_c, 1, 57, 0
1, 148680, Note_on_c, 1, 53, 77
1, 148800, Note_on_c, 1, 53, 0
1, 148800, Note_on_c, 1, 49, 70
1, 148920, Note_on_c, 1, 49, 0
1, 148920, Note_on_c, 1, 53, 73
1, 149040, Note_on_c, 0, 72, 0
1, 149040, Note_on_c, 0, 70, 70
1, 149040, Note_on_c, 1, 53, 0
1, 149040, Note_on_c, 1, 49, 70
1, 149160, Note_on_c, 1, 49, 0
1, 149160, Note_on_c, 1, 53, 73
1, 149280, Note_on_c, 0, 70, 0
1, 149280, Note_on_c, 1, 53, 0
1, 149280, Note_on_c, 1, 58, 73
1, 149400, Note_on_c, 1, 58, 0
1, 149400, Note_on_c, 1, 53, 72
1, 149520, Note_on_c, 0, 68, 74
1, 149520, Note_on_c, 1, 53, 0
1, 149520, Note_on_c, 1, 48, 73
1, 149640, Note_on_c, 1, 48, 0
1, 149640, Note_on_c, 1, 53, 75
1, 149760, Note_on_c, 0, 68, 0
1, 149760, Note_on_c, 0, 66, 71
1, 149760, Note_on_c, 1, 53, 0
1, 149760, Note_on_c, 1, 46, 76
1, 149880, Note_on_c, 1, 46, 0
1, 149880, Note_on_c, 1, 49, 70
1, 150000, Note_on_c, 0, 66, 0
1, 150000, Note_on_c, 1, 49, 0
1, 150000, Note_on_c, 1, 58, 72
1, 150120, Note_on_c, 1, 58, 0
1, 150120, Note_on_c, 1, 49, 77
1, 150240, Note_on_c, 0, 70, 71
1, 150240, Note_on_c, 1, 49, 0
1, 150240, Note_on_c, 1, 46, 73
1, 150360, Note_on_c, 1, 46, 0
1, 150360, Note_on_c, 1, 49, 70
1, 150480, Note_on_c, 0, 70, 0
1, 150480, Note_on_c, 0, 66, 72
1, 150480, Note_on_c, 1, 49, 0
1, 150480, Note_on_c, 1, 46, 74
1, 150600, Note_on_c, 1, 46, 0
1, 150600, Note_on_c, 1, 49, 79
1, 150720, Note_on_c, 0, 66, 0
1, 150720, Note_on_c, 1, 49, 0
1, 150720, Note_on_c, 1, 58, 74
1, 150840, Note_on_c, 1, 58, 0
1, 150840, Note_on_c, 1, 49, 71
1, 150960, Note_on_c, 0, 65, 75
1, 150960, Note_on_c, 1, 49, 0
1, 150960, Note_on_c, 1, 47, 79
1, 151080, Note_on_c, 1, 47, 0
1, 151080, Note_on_c, 1, 56, 79
1, 151200, Note_on_c, 0, 65, 0
1, 151200, Note_on_c, 0, 65, 48
1, 151200, Note_on_c, 1, 56, 0
1, 151200, Note_on_c, 1, 48, 45
1, 151320, Note_on_c, 1, 48, 0
1, 151320, Note_on_c, 1, 53, 49
1, 151440, Note_on_c, 1, 53, 0
1, 151440, Note_on_c, 1, 56, 47
1, 151560, Note_on_c, 1, 56, 0
1, 151560, Note_on_c, 1, 53, 53
1, 151680, Note_on_c, 1, 53, 0
1, 151680, Note_on_c, 1, 48, 54
1, 151800, Note_on_c, 1, 48, 0
1, 151800, Note_on_c, 1, 53, 53
1, 151920, Note_on_c, 0, 65, 0
1, 151920, Note_on_c, 0, 64, 45
1, 151920, Note_on_c, 1, 53, 0
1, 151920, Note_on_c, 1, 48, 47
1, 152040, Note_on_c, 1, 48, 0
1, 152040, Note_on_c, 1, 52, 49
1, 152160, Note_on_c, 0, 64, 0
1, 152160, Note_on_c, 1, 52, 0
1, 152160, Note_on_c, 1, 55, 47
1, 152280, Note_on_c, 1, 55, 0
1, 152280, Note_on_c, 1, 52, 51
1, 152400, Note_on_c, 0, 72, 52
1, 152400, Note_on_c, 1, 52, 0
1, 152400, Note_on_c, 1, 48, 47
1, 152520, Note_on_c, 1, 48, 0
1, 152520, Note_on_c, 1, 52, 50
1, 152640, Note_on_c, 0, 72, 0
1, 152640, Note_on_c, 0, 71, 70
1, 152640, Note_on_c, 1, 52, 0
1, 152640, Note_on_c, 1, 49, 71
1, 152760, Note_on_c, 1, 49, 0
1, 152760, Note_on_c, 1, 53, 74
1, 152880, Note_on_c, 1, 53, 0
1, 152880, Note_on_c, 1, 56, 77
1, 153000, Note_on_c, 1, 56, 0
1, 153000, Note_on_c, 1, 53, 73
1, 153120, Note_on_c, 1, 53, 0
1, 153120, Note_on_c, 1, 49, 73
1, 153240, Note_on_c, 1, 49, 0
1, 153240, Note_on_c, 1, 53, 72
1, 153360, Note_on_c, 0, 71, 0
1, 153360, Note_on_c, 0, 77, 74
1, 153360, Note_on_c, 1, 53, 0
1, 153360, Note_on_c, 1, 49, 77
1, 153480, Note_on_c, 1, 49, 0
1, 153480, Note_on_c, 1, 53, 71
1, 153600, Note_on_c, 0, 77, 0
1, 153600, Note_on_c, 1, 53, 0
1, 153600, Note_on_c, 1, 56, 72
1, 153720, Note_on_c, 1, 56, 0
1, 153720, Note_on_c, 1, 53, 77
1, 153840, Note_on_c, 1, 53, 0
1, 153840, Note_on_c, 1, 49, 70
1, 153960, Note_on_c, 1, 49, 0
1, 153960, Note_on_c, 1, 53, 76
1, 154080, Note_on_c, 0, 76, 52
1, 154080, Note_on_c, 1, 53, 0
1, 154080, Note_on_c, 1, 48, 48
1, 154200, Note_on_c, 1, 48, 0
1, 154200, Note_on_c, 1, 52, 53
1, 154320, Note_on_c, 1, 52, 0
1, 154320, Note_on_c, 1, 55, 52
1, 154440, Note_on_c, 1, 55, 0
1, 154440, Note_on_c, 1, 52, 49
1, 154560, Note_on_c, 1, 52, 0
1, 154560, Note_on_c, 1, 48, 52
1, 154680, Note_on_c, 1, 48, 0
1, 154680, Note_on_c, 1, 52, 50
1, 154800, Note_on_c, 0, 76, 0
1, 154800, Note_on_c, 0, 79, 47
1, 154800, Note_on_c, 1, 52, 0
1, 154800, Note_on_c, 1, 48, 53
1, 154920, Note_on_c, 1, 48, 0
1, 154920, Note_on_c, 1, 52, 49
1, 155040, Note_on_c, 0, 79, 0
1, 155040, Note_on_c, 1, 52, 0
1, 155040, Note_on_c, 1, 55, 45
1, 155160, Note_on_c, 1, 55, 0
1, 155160, Note_on_c, 1, 52, 49
1, 155280, Note_on_c, 1, 52, 0
1, 155280, Note_on_c, 1, 60, 46
1, 155400, Note_on_c, 1, 60, 0
1, 155400, Note_on_c, 1, 55, 50
1, 155520, Note_on_c, 0, 80, 71
1, 155520, Note_on_c, 1, 55, 0
1, 155520, Note_on_c, 1, 59, 71
1, 155640, Note_on_c, 1, 59, 0
1, 155640, Note_on_c, 1, 62, 73
1, 155760, Note_on_c, 1, 62, 0
1, 155760, Note_on_c, 1, 65, 73
1, 155880, Note_on_c, 1, 65, 0
1, 155880, Note_on_c, 1, 62, 78
1, 156000, Note_on_c, 1, 62, 0
1, 156000, Note_on_c, 1, 59, 74
1, 156120, Note_on_c, 1, 59, 0
1, 156120, Note_on_c, 1, 62, 77
1, 156240, Note_on_c, 0, 80, 0
1, 156240, Note_on_c, 0, 77, 71
1, 156240, Note_on_c, 1, 62, 0
1, 156240, Note_on_c, 1, 59, 76
1, 156360, Note_on_c, 1, 59, 0
1, 156360, Note_on_c, 1, 62, 75
1, 156480, Note_on_c, 0, 77, 0
1, 156480, Note_on_c, 1, 62, 0
1, 156480, Note_on_c, 1, 68, 79
1, 156600, Note_on_c, 1, 68, 0
1, 156600, Note_on_c, 1, 62, 71
1, 156720, Note_on_c, 1, 62, 0
1, 156720, Note_on_c, 1, 59, 75
1, 156840, Note_on_c, 1, 59, 0
1, 156840, Note_on_c, 1, 62, 78
1, 156960, Note_on_c, 0, 85, 54
1, 156960, Note_on_c, 1, 62, 0
1, 156960, Note_on_c, 1, 58, 50
1, 157080, Note_on_c, 1, 58, 0
1, 157080, Note_on_c, 1, 64, 51
1, 157200, Note_on_c, 1, 64, 0
1, 157200, Note_on_c, 1, 67, 52
1, 157320, Note_on_c, 1, 67, 0
1, 157320, Note_on_c, 1, 64, 54
1, 157440, Note_on_c, 1, 64, 0
1, 157440, Note_on_c, 1, 58, 48
1, 157560, Note_on_c, 1, 58, 0
1, 157560, Note_on_c, 1, 67, 46
1, 157680, Note_on_c, 0, 85, 0
1, 157680, Note_on_c, 0, 76, 45
1, 157680, Note_on_c, 1, 67, 0
1, 157680, Note_on_c, 1, 58, 45
1, 157800, Note_on_c, 1, 58, 0
1, 157800, Note_on_c, 1, 61, 46
1, 157920, Note_on_c, 0, 76, 0
1, 157920, Note_on_c, 1, 61, 0
1, 157920, Note_on_c, 1, 67, 54
1, 158040, Note_on_c, 1, 67, 0
1, 158040, Note_on_c, 1, 61, 54
1, 158160, Note_on_c, 1, 61, 0
1, 158160, Note_on_c, 1, 58, 46
1, 158280, Note_on_c, 1, 58, 0
1, 158280, Note_on_c, 1, 67, 45
1, 158400, Note_on_c, 1, 67, 0
1, 158400, Note_on_c, 1, 56, 48
1, 158520, Note_on_c, 1, 56, 0
1, 158520, Note_on_c, 1, 60, 53
1, 158640, Note_on_c, 0, 77, 50
1, 158640, Note_on_c, 1, 60, 0
1, 158640, Note_on_c, 1, 65, 48
1, 158760, Note_on_c, 1, 65, 0
1, 158760, Note_on_c, 1, 60, 46
1, 158880, Note_on_c, 0, 77, 0
1, 158880, Note_on_c, 0, 77, 53
1, 158880, Note_on_c, 1, 60, 0
1, 158880, Note_on_c, 1, 56, 45
1, 159000, Note_on_c, 1, 56, 0
1, 159000, Note_on_c, 1, 60, 52
1, 159120, Note_on_c, 0, 77, 0
1, 159120, Note_on_c, 1, 60, 0
1, 159120, Note_on_c, 1, 58, 50
1, 159240, Note_on_c, 1, 58, 0
1, 159240, Note_on_c, 1, 61, 45
1, 159360, Note_on_c, 0, 73, 50
1, 159360, Note_on_c, 1, 61, 0
1, 159360, Note_on_c, 1, 65, 47
1, 159480, Note_on_c, 1, 65, 0
1, 159480, Note_on_c, 1, 61, 45
1, 159600, Note_on_c, 0, 73, 0
1, 159600, Note_on_c, 0, 73, 46
1, 159600, Note_on_c, 1, 61, 0
1, 159600, Note_on_c, 1, 58, 53
1, 159720, Note_on_c, 1, 58, 0
1, 159720, Note_on_c, 1, 61, 47
1, 159840, Note_on_c, 0, 73, 0
1, 159840, Note_on_c, 1, 61, 0
1, 159840, Note_on_c, 1, 60, 45
1, 159960, Note_on_c, 1, 60, 0
1, 159960, Note_on_c, 1, 65, 48
1, 160080, Note_on_c, 0, 72, 47
1, 160080, Note_on_c, 1, 65, 0
1, 160080, Note_on_c, 1, 68, 45
1, 160200, Note_on_c, 1, 68, 0
1, 160200, Note_on_c, 1, 65, 53
1, 160320, Note_on_c, 0, 72, 0
1, 160320, Note_on_c, 0, 72, 50
1, 160320, Note_on_c, 1, 65, 0
1, 160320, Note_on_c, 1, 60, 45
1, 160440, Note_on_c, 1, 60, 0
1, 160440, Note_on_c, 1, 65, 48
1, 160560, Note_on_c, 0, 72, 0
1, 160560, Note_on_c, 1, 65, 0
1, 160560, Note_on_c, 1, 60, 49
1, 160680, Note_on_c, 1, 60, 0
1, 160680, Note_on_c, 1, 67, 50
1, 160800, Note_on_c, 0, 76, 53
1, 160800, Note_on_c, 1, 67, 0
1, 160800, Note_on_c, 1, 70, 48
1, 160920, Note_on_c, 1, 70, 0
1, 160920, Note_on_c, 1, 67, 53
1, 161040, Note_on_c, 0, 76, 0
1, 161040, Note_on_c, 0, 76, 50
1, 161040, Note_on_c, 1, 67, 0
1, 161040, Note_on_c, 1, 70, 50
1, 161160, Note_on_c, 1, 70, 0
1, 161160, Note_on_c, 1, 67, 51
1, 161280, Note_on_c, 0, 76, 0
1, 161280, Note_on_c, 0, 77, 71
1, 161280, Note_on_c, 1, 67, 0
1, 161280, Note_on_c, 1, 56, 74
1, 161400, Note_on_c, 1, 56, 0
1, 161400, Note_on_c, 1, 60, 75
1, 161520, Note_on_c, 1, 60, 0
1, 161520, Note_on_c, 1, 65, 73
1, 161640, Note_on_c, 1, 65, 0
1, 161640, Note_on_c, 1, 60, 76
1, 161760, Note_on_c, 0, 77, 0
1, 161760, Note_on_c, 0, 84, 72
1, 161760, Note_on_c, 1, 60, 0
1, 161760, Note_on_c, 1, 56, 76
1, 161880, Note_on_c, 0, 84, 0
1, 161880, Note_on_c, 0, 80, 71
1, 161880, Note_on_c, 1, 56, 0
1, 161880, Note_on_c, 1, 60, 72
1, 162000, Note_on_c, 0, 80, 0
1, 162000, Note_on_c, 0, 80, 79
1, 162000, Note_on_c, 1, 60, 0
1, 162000, Note_on_c, 1, 58, 74
1, 162120, Note_on_c, 0, 80, 0
1, 162120, Note_on_c, 0, 79, 71
1, 162120, Note_on_c, 1, 58, 0
1, 162120, Note_on_c, 1, 61, 74
1, 162240, Note_on_c, 0, 79, 0
1, 162240, Note_on_c, 0, 85, 79
1, 162240, Note_on_c, 1, 61, 0
1, 162240, Note_on_c, 1, 65, 70
1, 162360, Note_on_c, 0, 85, 0
1, 162360, Note_on_c, 0, 82, 79
1, 162360, Note_on_c, 1, 65, 0
1, 162360, Note_on_c, 1, 61, 75
1, 162480, Note_on_c, 0, 82, 0
1, 162480, Note_on_c, 0, 82, 78
1, 162480, Note_on_c, 1, 61, 0
1, 162480, Note_on_c, 1, 58, 77
1, 162600, Note_on_c, 0, 82, 0
1, 162600, Note_on_c, 0, 79, 76
1, 162600, Note_on_c, 1, 58, 0
1, 162600, Note_on_c, 1, 61, 78
1, 162720, Note_on_c, 0, 79, 0
1, 162720, Note_on_c, 0, 77, 45
1, 162720, Note_on_c, 1, 61, 0
1, 162720, Note_on_c, 1, 60, 49
1, 162840, Note_on_c, 1, 60, 0
1, 162840, Note_on_c, 1, 65, 47
1, 162960, Note_on_c, 1, 65, 0
1, 162960, Note_on_c, 1, 68, 54
1, 163080, Note_on_c, 1, 68, 0
1, 163080, Note_on_c, 1, 65, 53
1, 163200, Note_on_c, 1, 65, 0
1, 163200, Note_on_c, 1, 60, 51
1, 163320, Note_on_c, 1, 60, 0
1, 163320, Note_on_c, 1, 65, 46
1, 163440, Note_on_c, 0, 77, 0
1, 163440, Note_on_c, 0, 78, 76
1, 163440, Note_on_c, 1, 65, 0
1, 163440, Note_on_c, 1, 48, 76
1, 163500, Note_on_c, 0, 78, 0
1, 163500, Note_on_c, 0, 79, 71
1, 163560, Note_on_c, 0, 79, 0
1, 163560, Note_on_c, 0, 78, 74
1, 163560, Note_on_c, 1, 48, 0
1, 163560, Note_on_c, 1, 51, 78
1, 163620, Note_on_c, 0, 78, 0
1, 163620, Note_on_c, 0, 79, 74
1, 163680, Note_on_c, 0, 79, 0
1, 163680, Note_on_c, 0, 78, 79
1, 163680, Note_on_c, 1, 51, 0
1, 163680, Note_on_c, 1, 57, 78
1, 163740, Note_on_c, 0, 78, 0
1, 163740, Note_on_c, 0, 79, 75
1, 163800, Note_on_c, 0, 79, 0
1, 163800, Note_on_c, 0, 78, 79
1, 163800, Note_on_c, 1, 57, 0
1, 163800, Note_on_c, 1, 51, 79
1, 163860, Note_on_c, 0, 78, 0
1, 163860, Note_on_c, 0, 79, 71
1, 163920, Note_on_c, 0, 79, 0
1, 163920, Note_on_c, 0, 78, 77
1, 163920, Note_on_c, 1, 51, 0
1, 163920, Note_on_c, 1, 48, 74
1, 163980, Note_on_c, 0, 78, 0
1, 163980, Note_on_c, 0, 79, 70
1, 164040, Note_on_c, 0, 79, 0
1, 164040, Note_on_c, 0, 78, 79
1, 164040, Note_on_c, 1, 48, 0
1, 164040, Note_on_c, 1, 51, 71
1, 164100, Note_on_c, 0, 78, 0
1, 164100, Note_on_c, 0, 79, 77
1, 164160, Note_on_c, 0, 79, 0
1, 164160, Note_on_c, 0, 77, 46
1, 164160, Note_on_c, 1, 51, 0
1, 164160, Note_on_c, 1, 49, 45
1, 164280, Note_on_c, 1, 49, 0
1, 164280, Note_on_c, 1, 53, 48
1, 164400, Note_on_c, 0, 77, 0
1, 164400, Note_on_c, 0, 79, 45
1, 164400, Note_on_c, 1, 53, 0
1, 164400, Note_on_c, 1, 59, 46
1, 164520, Note_on_c, 1, 59, 0
1, 164520, Note_on_c, 1, 53, 49
1, 164640, Note_on_c, 0, 79, 0
1, 164640, Note_on_c, 0, 80, 51
1, 164640, Note_on_c, 1, 53, 0
1, 164640, Note_on_c, 1, 49, 51
1, 164760, Note_on_c, 1, 49, 0
1, 164760, Note_on_c, 1, 53, 48
1, 164880, Note_on_c, 0, 80, 0
1, 164880, Note_on_c, 0, 69, 54
1, 164880, Note_on_c, 1, 53, 0
1, 164880, Note_on_c, 1, 50, 51
1, 165000, Note_on_c, 1, 50, 0
1, 165000, Note_on_c, 1, 53, 54
1, 165120, Note_on_c, 0, 69, 0
1, 165120, Note_on_c, 0, 70, 54
1, 165120, Note_on_c, 1, 53, 0
1, 165120, Note_on_c, 1, 56, 48
1, 165240, Note_on_c, 1, 56, 0
1, 165240, Note_on_c, 1, 53, 45
1, 165360, Note_on_c, 0, 70, 0
1, 165360, Note_on_c, 0, 71, 52
1, 165360, Note_on_c, 1, 53, 0
1, 165360, Note_on_c, 1, 50, 54
1, 165480, Note_on_c, 1, 50, 0
1, 165480, Note_on_c, 1, 53, 51
1, 165600, Note_on_c, 0, 71, 0
1, 165600, Note_on_c, 0, 72, 77
1, 165600, Note_on_c, 1, 53, 0
1, 165600, Note_on_c, 1, 48, 78
1, 165720, Note_on_c, 0, 72, 0
1, 165720, Note_on_c, 0, 73, 72
1, 165840, Note_on_c, 0, 73, 0
1, 165840, Note_on_c, 0, 74, 74
1, 165840, Note_on_c, 1, 48, 0
1, 165960, Note_on_c, 0, 74, 0
1, 165960, Note_on_c, 0, 75, 70
1, 166080, Note_on_c, 0, 75, 0
1, 166080, Note_on_c, 0, 76, 71
1, 166200, Note_on_c, 0, 76, 0
1, 166200, Note_on_c, 0, 77, 72
1, 166320, Note_on_c, 0, 77, 0
1, 166320, Note_on_c, 0, 67, 75
1, 166320, Note_on_c, 1, 48, 75
1, 166380, Note_on_c, 0, 67, 0
1, 166380, Note_on_c, 0, 68, 77
1, 166440, Note_on_c, 0, 68, 0
1, 166440, Note_on_c, 0, 67, 78
1, 166440, Note_on_c, 1, 48, 0
1, 166440, Note_on_c, 1, 52, 78
1, 166500, Note_on_c, 0, 67, 0
1, 166500, Note_on_c, 0, 68, 71
1, 166560, Note_on_c, 0, 68, 0
1, 166560, Note_on_c, 0, 67, 78
1, 166560, Note_on_c, 1, 52, 0
1, 166560, Note_on_c, 1, 58, 73
1, 166620, Note_on_c, 0, 67, 0
1, 166620, Note_on_c, 0, 68, 74
1, 166680, Note_on_c, 0, 68, 0
1, 166680, Note_on_c, 0, 67, 70
1, 166680, Note_on_c, 1, 58, 0
1, 166680, Note_on_c, 1, 52, 73
1, 166740, Note_on_c, 0, 67, 0
1, 166740, Note_on_c, 0, 68, 76
1, 166800, Note_on_c, 0, 68, 0
1, 166800, Note_on_c, 0, 67, 72
1, 166800, Note_on_c, 1, 52, 0
1, 166800, Note_on_c, 1, 48, 77
1, 166860, Note_on_c, 0, 67, 0
1, 166860, Note_on_c, 0, 68, 78
1, 166920, Note_on_c, 0, 68, 0
1, 166920, Note_on_c, 0, 65, 70
1, 166920, Note_on_c, 1, 48, 0
1, 166920, Note_on_c, 1, 52, 70
1, 166980, Note_on_c, 0, 65, 0
1, 166980, Note_on_c, 0, 67, 75
1, 167040, Note_on_c, 0, 67, 0
1, 167040, Note_on_c, 0, 65, 78
1, 167040, Note_on_c, 1, 52, 0
1, 167040, Note_on_c, 1, 53, 71
1, 167280, Note_on_c, 0, 65, 0
1, 167280, Note_on_c, 1, 53, 0
1, 167520, Note_on_c, 0, 65, 48
1, 167520, Note_on_c, 0, 63, 54
1, 167520, Note_on_c, 0, 60, 49
1, 167520, Note_on_c, 1, 45, 50
1, 167760, Note_on_c, 0, 65, 0
1, 167760, Note_on_c, 0, 60, 0
1, 167760, Note_on_c, 0, 63, 0
1, 167760, Note_on_c, 0, 65, 54
1, 167760, Note_on_c, 0, 61, 48
1, 167760, Note_on_c, 0, 58, 50
1, 167760, Note_on_c, 1, 45, 0
1, 167760, Note_on_c, 1, 46, 54
1, 168000, Note_on_c, 0, 65, 0
1, 168000, Note_on_c, 0, 58, 0
1, 168000, Note_on_c, 0, 61, 0
1, 168000, Note_on_c, 1, 46, 0
1, 168240, Note_on_c, 0, 73, 79
1, 168240, Note_on_c, 0, 65, 74
1, 168240, Note_on_c, 1, 46, 79
1, 168480, Note_on_c, 0, 73, 0
1, 168480, Note_on_c, 0, 65, 0
1, 168480, Note_on_c, 0, 68, 74
1, 168480, Note_on_c, 0, 65, 75
1, 168480, Note_on_c, 0, 60, 77
1, 168480, Note_on_c, 1, 46, 0
1, 168480, Note_on_c, 1, 48, 74
1, 168840, Note_on_c, 0, 68, 0
1, 168840, Note_on_c, 0, 65, 0
1, 168840, Note_on_c, 0, 70, 73
1, 168840, Note_on_c, 0, 67, 74
1, 168960, Note_on_c, 0, 60, 0
1, 168960, Note_on_c, 0, 67, 0
1, 168960, Note_on_c, 0, 70, 0
1, 168960, Note_on_c, 0, 67, 76
1, 168960, Note_on_c, 0, 64, 72
1, 168960, Note_on_c, 0, 58, 71
1, 168960, Note_on_c, 1, 48, 0
1, 168960, Note_on_c, 1, 36, 72
1, 169200, Note_on_c, 0, 67, 0
1, 169200, Note_on_c, 0, 58, 0
1, 169200, Note_on_c, 0, 64, 0
1, 169200, Note_on_c, 0, 65, 76
1, 169200, Note_on_c, 0, 56, 75
1, 169200, Note_on_c, 1, 36, 0
1, 169200, Note_on_c, 1, 41, 73
1, 169440, Note_on_c, 0, 65, 0
1, 169440, Note_on_c, 0, 56, 0
1, 169440, Note_on_c, 1, 41, 0
1, 169680, Note_on_c, 0, 75, 46
1, 169680, Note_on_c, 0, 66, 53
1, 169680, Note_on_c, 1, 57, 54
1, 169680, Note_on_c, 1, 45, 52
1, 169920, Note_on_c, 0, 75, 0
1, 169920, Note_on_c, 0, 66, 0
1, 169920, Note_on_c, 0, 73, 49
1, 169920, Note_on_c, 0, 65, 45
1, 169920, Note_on_c, 1, 57, 0
1, 169920, Note_on_c, 1, 45, 0
1, 169920, Note_on_c, 1, 58, 50
1, 169920, Note_on_c, 1, 46, 52
1, 170160, Note_on_c, 0, 73, 0
1, 170160, Note_on_c, 0, 65, 0
1, 170160, Note_on_c, 1, 58, 0
1, 170160, Note_on_c, 1, 46, 0
1, 170400, Note_on_c, 0, 77, 73
1, 170400, Note_on_c, 0, 68, 73
1, 170400, Note_on_c, 1, 62, 78
1, 170400, Note_on_c, 1, 59, 77
1, 170640, Note_on_c, 0, 77, 0
1, 170640, Note_on_c, 0, 68, 0
1, 170640, Note_on_c, 0, 68, 75
1, 170640, Note_on_c, 0, 65, 79
1, 170640, Note_on_c, 1, 62, 0
1, 170640, Note_on_c, 1, 59, 0
1, 170640, Note_on_c, 1, 60, 71
1, 171000, Note_on_c, 0, 68, 0
1, 171000, Note_on_c, 0, 65, 0
1, 171000, Note_on_c, 0, 70, 78
1, 171000, Note_on_c, 0, 67, 72
1, 171120, Note_on_c, 0, 70, 0
1, 171120, Note_on_c, 0, 67, 0
1, 171120, Note_on_c, 0, 67, 72
1, 171120, Note_on_c, 0, 64, 74
1, 171120, Note_on_c, 1, 60, 0
1, 171120, Note_on_c, 1, 58, 79
1, 171120, Note_on_c, 1, 48, 73
1, 171360, Note_on_c, 0, 67, 0
1, 171360, Note_on_c, 0, 64, 0
1, 171360, Note_on_c, 0, 67, 76
1, 171360, Note_on_c, 0, 64, 78
1, 171360, Note_on_c, 0, 58, 77
1, 171360, Note_on_c, 1, 58, 0
1, 171360, Note_on_c, 1, 48, 0
1, 171360, Note_on_c, 1, 53, 72
1, 172080, Note_on_c, 0, 67, 0
1, 172080, Note_on_c, 0, 58, 0
1, 172080, Note_on_c, 0, 64, 0
1, 172080, Note_on_c, 0, 65, 73
1, 172080, Note_on_c, 0, 56, 74
1, 172080, Note_on_c, 1, 53, 0
1, 172080, Note_on_c, 1, 41, 72
1, 172320, Note_on_c, 0, 65, 0
1, 172320, Note_on_c, 0, 56, 0
1, 172320, Note_on_c, 1, 41, 0
1, 172330, End_track
0, 0, End_of_file