0, 0, Header, 0, 1, 192
1, 0, Start_track
1, 0, Tempo, 300000
1, 0, Note_on_c, 0, 79, 60
1, 192, Note_on_c, 0, 60, 60
1, 192, Note_on_c, 0, 63, 60
1, 344, Note_on_c, 0, 79, 0
1, 384, Note_on_c, 0, 75, 60
1, 536, Note_on_c, 0, 75, 0
1, 576, Note_on_c, 0, 72, 60
1, 652, Note_on_c, 0, 60, 0
1, 652, Note_on_c, 0, 63, 0
1, 768, Note_on_c, 0, 62, 60
1, 768, Note_on_c, 0, 65, 60
1, 920, Note_on_c, 0, 72, 0
1, 960, Note_on_c, 0, 71, 60
1, 1112, Note_on_c, 0, 71, 0
1, 1152, Note_on_c, 0, 80, 60
1, 1228, Note_on_c, 0, 62, 0
1, 1228, Note_on_c, 0, 65, 0
1, 1344, Note_on_c, 0, 62, 60
1, 1344, Note_on_c, 1, 59, 60
1, 1496, Note_on_c, 0, 80, 0
1, 1536, Note_on_c, 0, 79, 60
1, 1688, Note_on_c, 0, 79, 0
1, 1728, Note_on_c, 0, 77, 60
1, 1804, Note_on_c, 0, 62, 0
1, 1804, Note_on_c, 1, 59, 0
1, 1920, Note_on_c, 0, 60, 60
1, 1920, Note_on_c, 0, 67, 60
1, 2072, Note_on_c, 0, 77, 0
1, 2112, Note_on_c, 0, 75, 60
1, 2264, Note_on_c, 0, 75, 0
1, 2304, Note_on_c, 0, 79, 60
1, 2380, Note_on_c, 0, 60, 0
1, 2380, Note_on_c, 0, 67, 0
1, 2496, Note_on_c, 0, 63, 60
1, 2496, Note_on_c, 0, 67, 60
1, 2648, Note_on_c, 0, 79, 0
1, 2688, Note_on_c, 0, 84, 60
1, 2802, Note_on_c, 0, 63, 0
1, 2802, Note_on_c, 0, 67, 0
1, 2840, Note_on_c, 0, 84, 0
1, 2880, Note_on_c, 0, 82, 60
1, 2880, Note_on_c, 0, 64, 60
1, 3032, Note_on_c, 0, 64, 0
1, 3072, Note_on_c, 0, 65, 60
1, 3072, Note_on_c, 0, 68, 60
1, 3224, Note_on_c, 0, 82, 0
1, 3264, Note_on_c, 0, 80, 60
1, 3378, Note_on_c, 0, 65, 0
1, 3378, Note_on_c, 0, 68, 0
1, 3416, Note_on_c, 0, 80, 0
1, 3456, Note_on_c, 0, 79, 60
1, 3456, Note_on_c, 0, 67, 60
1, 3456, Note_on_c, 0, 70, 60
1, 3608, Note_on_c, 0, 70, 0
1, 3608, Note_on_c, 0, 67, 0
1, 3648, Note_on_c, 0, 68, 60
1, 3648, Note_on_c, 0, 72, 60
1, 3800, Note_on_c, 0, 79, 0
1, 3840, Note_on_c, 0, 77, 60
1, 3954, Note_on_c, 0, 68, 0
1, 3954, Note_on_c, 0, 72, 0
1, 3992, Note_on_c, 0, 77, 0
1, 4032, Note_on_c, 0, 78, 60
1, 4032, Note_on_c, 0, 69, 60
1, 4184, Note_on_c, 0, 69, 0
1, 4224, Note_on_c, 0, 72, 60
1, 4224, Note_on_c, 0, 67, 60
1, 4376, Note_on_c, 0, 67, 0
1, 4376, Note_on_c, 0, 78, 0
1, 4376, Note_on_c, 0, 72, 0
1, 4416, Note_on_c, 0, 71, 60
1, 4416, Note_on_c, 0, 79, 60
1, 4568, Note_on_c, 0, 79, 0
1, 4568, Note_on_c, 0, 71, 0
1, 4608, Note_on_c, 0, 67, 60
1, 4800, Note_on_c, 1, 51, 60
1, 4800, Note_on_c, 1, 48, 60
1, 4952, Note_on_c, 0, 67, 0
1, 4992, Note_on_c, 0, 63, 60
1, 5144, Note_on_c, 0, 63, 0
1, 5184, Note_on_c, 0, 60, 60
1, 5260, Note_on_c, 1, 48, 0
1, 5260, Note_on_c, 1, 51, 0
1, 5376, Note_on_c, 1, 53, 60
1, 5376, Note_on_c, 1, 50, 60
1, 5528, Note_on_c, 0, 60, 0
1, 5568, Note_on_c, 1, 59, 60
1, 5720, Note_on_c, 1, 59, 0
1, 5760, Note_on_c, 0, 68, 60
1, 5836, Note_on_c, 1, 50, 0
1, 5836, Note_on_c, 1, 53, 0
1, 5952, Note_on_c, 1, 50, 60
1, 5952, Note_on_c, 1, 47, 60
1, 6104, Note_on_c, 0, 68, 0
1, 6144, Note_on_c, 0, 67, 60
1, 6296, Note_on_c, 0, 67, 0
1, 6336, Note_on_c, 0, 65, 60
1, 6412, Note_on_c, 1, 47, 0
1, 6412, Note_on_c, 1, 50, 0
1, 6528, Note_on_c, 1, 49, 60
1, 6528, Note_on_c, 1, 46, 60
1, 6680, Note_on_c, 0, 65, 0
1, 6720, Note_on_c, 0, 64, 60
1, 6872, Note_on_c, 0, 64, 0
1, 6912, Note_on_c, 0, 73, 60
1, 6988, Note_on_c, 1, 46, 0
1, 6988, Note_on_c, 1, 49, 0
1, 7104, Note_on_c, 1, 52, 60
1, 7104, Note_on_c, 1, 55, 60
1, 7256, Note_on_c, 0, 73, 0
1, 7296, Note_on_c, 0, 72, 60
1, 7410, Note_on_c, 1, 55, 0
1, 7410, Note_on_c, 1, 52, 0
1, 7448, Note_on_c, 0, 72, 0
1, 7488, Note_on_c, 0, 60, 60
1, 7488, Note_on_c, 0, 70, 60
1, 7640, Note_on_c, 0, 70, 0
1, 7680, Note_on_c, 0, 68, 60
1, 7680, Note_on_c, 1, 53, 60
1, 7832, Note_on_c, 0, 60, 0
1, 7832, Note_on_c, 0, 68, 0
1, 7832, Note_on_c, 1, 53, 0
1, 7872, Note_on_c, 0, 67, 60
1, 7872, Note_on_c, 1, 55, 60
1, 8024, Note_on_c, 0, 67, 0
1, 8024, Note_on_c, 1, 55, 0
1, 8064, Note_on_c, 0, 66, 60
1, 8064, Note_on_c, 1, 56, 60
1, 8216, Note_on_c, 0, 66, 0
1, 8216, Note_on_c, 1, 56, 0
1, 8256, Note_on_c, 0, 67, 60
1, 8256, Note_on_c, 0, 63, 60
1, 8256, Note_on_c, 1, 55, 60
1, 8408, Note_on_c, 0, 63, 0
1, 8408, Note_on_c, 0, 67, 0
1, 8408, Note_on_c, 1, 55, 0
1, 8448, Note_on_c, 0, 63, 60
1, 8448, Note_on_c, 0, 60, 60
1, 8600, Note_on_c, 0, 60, 0
1, 8600, Note_on_c, 0, 63, 0
1, 8640, Note_on_c, 0, 62, 60
1, 8640, Note_on_c, 1, 59, 60
1, 8640, Note_on_c, 1, 53, 60
1, 8640, Note_on_c, 1, 43, 60
1, 8792, Note_on_c, 0, 62, 0
1, 8792, Note_on_c, 1, 43, 0
1, 8792, Note_on_c, 1, 53, 0
1, 8792, Note_on_c, 1, 59, 0
1, 8832, Note_on_c, 0, 60, 60
1, 8832, Note_on_c, 1, 48, 60
1, 8832, Note_on_c, 1, 51, 60
1, 8984, Note_on_c, 0, 60, 0
1, 8984, Note_on_c, 1, 51, 0
1, 8984, Note_on_c, 1, 48, 0
1, 9204, Note_on_c, 0, 77, 100
1, 9216, Note_on_c, 0, 77, 0
1, 9216, Note_on_c, 0, 75, 100
1, 9292, Note_on_c, 0, 75, 0
1, 9312, Note_on_c, 0, 74, 100
1, 9350, Note_on_c, 0, 74, 0
1, 9360, Note_on_c, 0, 72, 100
1, 9398, Note_on_c, 0, 72, 0
1, 9408, Note_on_c, 0, 79, 100
1, 9408, Note_on_c, 0, 62, 100
1, 9408, Note_on_c, 1, 59, 100
1, 9484, Note_on_c, 0, 62, 0
1, 9484, Note_on_c, 1, 59, 0
1, 9504, Note_on_c, 1, 55, 100
1, 9560, Note_on_c, 0, 79, 0
1, 9580, Note_on_c, 1, 55, 0
1, 9600, Note_on_c, 0, 79, 100
1, 9600, Note_on_c, 0, 63, 100
1, 9600, Note_on_c, 0, 60, 100
1, 9600, Note_on_c, 0, 67, 100
1, 9676, Note_on_c, 0, 60, 0
1, 9676, Note_on_c, 0, 63, 0
1, 9696, Note_on_c, 1, 55, 100
1, 9752, Note_on_c, 0, 79, 0
1, 9752, Note_on_c, 0, 67, 0
1, 9772, Note_on_c, 1, 55, 0
1, 9792, Note_on_c, 0, 62, 100
1, 9792, Note_on_c, 0, 65, 100
1, 9792, Note_on_c, 0, 79, 100
1, 9792, Note_on_c, 0, 67, 100
1, 9868, Note_on_c, 0, 65, 0
1, 9868, Note_on_c, 0, 62, 0
1, 9888, Note_on_c, 1, 55, 100
1, 9944, Note_on_c, 0, 79, 0
1, 9944, Note_on_c, 0, 67, 0
1, 9964, Note_on_c, 1, 55, 0
1, 9984, Note_on_c, 0, 63, 100
1, 9984, Note_on_c, 0, 67, 100
1, 9984, Note_on_c, 0, 79, 100
1, 9984, Note_on_c, 0, 60, 100
1, 10060, Note_on_c, 0, 60, 0
1, 10060, Note_on_c, 0, 63, 0
1, 10080, Note_on_c, 1, 55, 100
1, 10156, Note_on_c, 1, 55, 0
1, 10176, Note_on_c, 0, 63, 100
1, 10176, Note_on_c, 0, 60, 100
1, 10252, Note_on_c, 0, 60, 0
1, 10252, Note_on_c, 0, 63, 0
1, 10272, Note_on_c, 1, 55, 100
1, 10290, Note_on_c, 0, 67, 0
1, 10290, Note_on_c, 0, 79, 0
1, 10348, Note_on_c, 1, 55, 0
1, 10356, Note_on_c, 0, 77, 100
1, 10368, Note_on_c, 0, 77, 0
1, 10368, Note_on_c, 0, 75, 100
1, 10368, Note_on_c, 0, 60, 100
1, 10368, Note_on_c, 0, 63, 100
1, 10444, Note_on_c, 0, 63, 0
1, 10444, Note_on_c, 0, 60, 0
1, 10444, Note_on_c, 0, 75, 0
1, 10464, Note_on_c, 0, 74, 100
1, 10464, Note_on_c, 1, 55, 100
1, 10502, Note_on_c, 0, 74, 0
1, 10512, Note_on_c, 0, 72, 100
1, 10540, Note_on_c, 1, 55, 0
1, 10550, Note_on_c, 0, 72, 0
1, 10560, Note_on_c, 0, 79, 100
1, 10560, Note_on_c, 0, 62, 100
1, 10560, Note_on_c, 1, 59, 100
1, 10636, Note_on_c, 0, 62, 0
1, 10636, Note_on_c, 1, 59, 0
1, 10656, Note_on_c, 1, 55, 100
1, 10712, Note_on_c, 0, 79, 0
1, 10732, Note_on_c, 1, 55, 0
1, 10752, Note_on_c, 0, 79, 100
1, 10752, Note_on_c, 0, 60, 100
1, 10752, Note_on_c, 0, 63, 100
1, 10752, Note_on_c, 0, 67, 100
1, 10828, Note_on_c, 0, 63, 0
1, 10828, Note_on_c, 0, 60, 0
1, 10848, Note_on_c, 1, 55, 100
1, 10904, Note_on_c, 0, 79, 0
1, 10904, Note_on_c, 0, 67, 0
1, 10924, Note_on_c, 1, 55, 0
1, 10944, Note_on_c, 0, 62, 100
1, 10944, Note_on_c, 0, 65, 100
1, 10944, Note_on_c, 0, 79, 100
1, 10944, Note_on_c, 0, 67, 100
1, 11020, Note_on_c, 0, 65, 0
1, 11020, Note_on_c, 0, 62, 0
1, 11040, Note_on_c, 1, 55, 100
1, 11096, Note_on_c, 0, 79, 0
1, 11096, Note_on_c, 0, 67, 0
1, 11116, Note_on_c, 1, 55, 0
1, 11136, Note_on_c, 0, 63, 100
1, 11136, Note_on_c, 0, 67, 100
1, 11136, Note_on_c, 0, 79, 100
1, 11136, Note_on_c, 0, 60, 100
1, 11212, Note_on_c, 0, 60, 0
1, 11212, Note_on_c, 0, 63, 0
1, 11232, Note_on_c, 1, 55, 100
1, 11308, Note_on_c, 1, 55, 0
1, 11328, Note_on_c, 0, 63, 100
1, 11328, Note_on_c, 0, 60, 100
1, 11404, Note_on_c, 0, 60, 0
1, 11404, Note_on_c, 0, 63, 0
1, 11424, Note_on_c, 1, 55, 100
1, 11442, Note_on_c, 0, 67, 0
1, 11442, Note_on_c, 0, 79, 0
1, 11500, Note_on_c, 1, 55, 0
1, 11508, Note_on_c, 0, 77, 100
1, 11520, Note_on_c, 0, 77, 0
1, 11520, Note_on_c, 0, 75, 100
1, 11520, Note_on_c, 0, 60, 100
1, 11520, Note_on_c, 0, 63, 100
1, 11596, Note_on_c, 0, 63, 0
1, 11596, Note_on_c, 0, 60, 0
1, 11596, Note_on_c, 0, 75, 0
1, 11616, Note_on_c, 0, 74, 100
1, 11616, Note_on_c, 1, 55, 100
1, 11654, Note_on_c, 0, 74, 0
1, 11664, Note_on_c, 0, 72, 100
1, 11692, Note_on_c, 1, 55, 0
1, 11702, Note_on_c, 0, 72, 0
1, 11712, Note_on_c, 0, 80, 100
1, 11712, Note_on_c, 0, 74, 100
1, 11712, Note_on_c, 0, 71, 100
1, 11864, Note_on_c, 0, 71, 0
1, 11864, Note_on_c, 0, 74, 0
1, 11864, Note_on_c, 0, 80, 0
1, 11904, Note_on_c, 1, 41, 100
1, 11904, Note_on_c, 1, 53, 100
1, 12056, Note_on_c, 1, 53, 0
1, 12056, Note_on_c, 1, 41, 0
1, 12096, Note_on_c, 0, 65, 100
1, 12096, Note_on_c, 1, 53, 100
1, 12248, Note_on_c, 0, 65, 0
1, 12248, Note_on_c, 1, 53, 0
1, 12288, Note_on_c, 0, 72, 100
1, 12288, Note_on_c, 0, 75, 100
1, 12288, Note_on_c, 0, 79, 100
1, 12440, Note_on_c, 0, 79, 0
1, 12440, Note_on_c, 0, 75, 0
1, 12440, Note_on_c, 0, 72, 0
1, 12480, Note_on_c, 1, 51, 100
1, 12480, Note_on_c, 1, 39, 100
1, 12632, Note_on_c, 1, 39, 0
1, 12632, Note_on_c, 1, 51, 0
1, 12672, Note_on_c, 0, 63, 100
1, 12672, Note_on_c, 1, 51, 100
1, 12824, Note_on_c, 0, 63, 0
1, 12824, Note_on_c, 1, 51, 0
1, 12864, Note_on_c, 0, 62, 100
1, 12864, Note_on_c, 1, 50, 100
1, 13016, Note_on_c, 0, 62, 0
1, 13016, Note_on_c, 1, 50, 0
1, 13056, Note_on_c, 0, 83, 100
1, 13056, Note_on_c, 0, 77, 100
1, 13056, Note_on_c, 0, 74, 100
1, 13208, Note_on_c, 0, 74, 0
1, 13208, Note_on_c, 0, 77, 0
1, 13208, Note_on_c, 0, 83, 0
1, 13248, Note_on_c, 0, 86, 100
1, 13248, Note_on_c, 0, 83, 100
1, 13248, Note_on_c, 0, 77, 100
1, 13400, Note_on_c, 0, 77, 0
1, 13400, Note_on_c, 0, 83, 0
1, 13400, Note_on_c, 0, 86, 0
1, 13440, Note_on_c, 0, 79, 100
1, 13440, Note_on_c, 0, 86, 100
1, 13440, Note_on_c, 0, 89, 100
1, 13440, Note_on_c, 1, 59, 100
1, 13440, Note_on_c, 1, 47, 100
1, 13592, Note_on_c, 0, 89, 0
1, 13592, Note_on_c, 0, 86, 0
1, 13592, Note_on_c, 0, 79, 0
1, 13592, Note_on_c, 1, 47, 0
1, 13592, Note_on_c, 1, 59, 0
1, 14592, Note_on_c, 0, 75, 60
1, 15052, Note_on_c, 0, 75, 0
1, 15168, Note_on_c, 0, 66, 60
1, 15168, Note_on_c, 0, 60, 60
1, 15168, Note_on_c, 0, 63, 60
1, 15628, Note_on_c, 0, 63, 0
1, 15628, Note_on_c, 0, 60, 0
1, 15628, Note_on_c, 0, 66, 0
1, 15744, Note_on_c, 0, 67, 60
1, 15744, Note_on_c, 0, 62, 60
1, 15744, Note_on_c, 0, 65, 60
1, 15744, Note_on_c, 1, 59, 60
1, 15974, Note_on_c, 0, 67, 0
1, 16032, Note_on_c, 0, 68, 60
1, 16050, Note_on_c, 0, 62, 0
1, 16050, Note_on_c, 0, 65, 0
1, 16050, Note_on_c, 1, 59, 0
1, 16108, Note_on_c, 0, 68, 0
1, 16128, Note_on_c, 0, 67, 60
1, 16128, Note_on_c, 0, 60, 60
1, 16128, Note_on_c, 0, 63, 60
1, 16280, Note_on_c, 0, 63, 0
1, 16280, Note_on_c, 0, 60, 0
1, 16280, Note_on_c, 0, 67, 0
1, 16320, Note_on_c, 0, 63, 60
1, 16320, Note_on_c, 1, 53, 60
1, 16332, Note_on_c, 0, 63, 0
1, 16332, Note_on_c, 0, 67, 60
1, 16332, Note_on_c, 0, 62, 60
1, 16332, Note_on_c, 0, 65, 60
1, 16344, Note_on_c, 0, 67, 0
1, 16472, Note_on_c, 1, 53, 0
1, 16484, Note_on_c, 0, 62, 0
1, 16484, Note_on_c, 0, 65, 0
1, 16512, Note_on_c, 1, 55, 60
1, 16524, Note_on_c, 0, 63, 60
1, 16524, Note_on_c, 0, 60, 60
1, 16664, Note_on_c, 1, 55, 0
1, 16676, Note_on_c, 0, 60, 0
1, 16676, Note_on_c, 0, 63, 0
1, 16704, Note_on_c, 1, 43, 60
1, 16716, Note_on_c, 0, 62, 60
1, 16716, Note_on_c, 1, 59, 60
1, 16856, Note_on_c, 1, 43, 0
1, 16868, Note_on_c, 0, 62, 0
1, 16868, Note_on_c, 1, 59, 0
1, 16896, Note_on_c, 0, 60, 60
1, 16896, Note_on_c, 1, 48, 60
1, 17048, Note_on_c, 0, 60, 0
1, 17048, Note_on_c, 1, 48, 0
1, 17268, Note_on_c, 0, 77, 100
1, 17280, Note_on_c, 0, 77, 0
1, 17280, Note_on_c, 0, 75, 100
1, 17356, Note_on_c, 0, 75, 0
1, 17376, Note_on_c, 0, 74, 100
1, 17414, Note_on_c, 0, 74, 0
1, 17424, Note_on_c, 0, 72, 100
1, 17462, Note_on_c, 0, 72, 0
1, 17472, Note_on_c, 0, 79, 100
1, 17472, Note_on_c, 0, 62, 100
1, 17472, Note_on_c, 1, 59, 100
1, 17548, Note_on_c, 0, 62, 0
1, 17548, Note_on_c, 1, 59, 0
1, 17568, Note_on_c, 1, 55, 100
1, 17624, Note_on_c, 0, 79, 0
1, 17644, Note_on_c, 1, 55, 0
1, 17664, Note_on_c, 0, 79, 100
1, 17664, Note_on_c, 0, 63, 100
1, 17664, Note_on_c, 0, 60, 100
1, 17740, Note_on_c, 0, 60, 0
1, 17740, Note_on_c, 0, 63, 0
1, 17760, Note_on_c, 1, 55, 100
1, 17816, Note_on_c, 0, 79, 0
1, 17836, Note_on_c, 1, 55, 0
1, 17856, Note_on_c, 0, 62, 100
1, 17856, Note_on_c, 0, 65, 100
1, 17856, Note_on_c, 0, 79, 100
1, 17932, Note_on_c, 0, 65, 0
1, 17932, Note_on_c, 0, 62, 0
1, 17952, Note_on_c, 1, 55, 100
1, 18008, Note_on_c, 0, 79, 0
1, 18028, Note_on_c, 1, 55, 0
1, 18048, Note_on_c, 0, 63, 100
1, 18048, Note_on_c, 0, 79, 100
1, 18048, Note_on_c, 0, 60, 100
1, 18124, Note_on_c, 0, 60, 0
1, 18124, Note_on_c, 0, 63, 0
1, 18144, Note_on_c, 1, 55, 100
1, 18220, Note_on_c, 1, 55, 0
1, 18240, Note_on_c, 0, 63, 100
1, 18240, Note_on_c, 0, 60, 100
1, 18316, Note_on_c, 0, 60, 0
1, 18316, Note_on_c, 0, 63, 0
1, 18336, Note_on_c, 1, 55, 100
1, 18354, Note_on_c, 0, 79, 0
1, 18412, Note_on_c, 1, 55, 0
1, 18420, Note_on_c, 0, 77, 100
1, 18432, Note_on_c, 0, 77, 0
1, 18432, Note_on_c, 0, 75, 100
1, 18432, Note_on_c, 0, 60, 100
1, 18432, Note_on_c, 0, 63, 100
1, 18508, Note_on_c, 0, 63, 0
1, 18508, Note_on_c, 0, 60, 0
1, 18508, Note_on_c, 0, 75, 0
1, 18528, Note_on_c, 0, 74, 100
1, 18528, Note_on_c, 1, 55, 100
1, 18566, Note_on_c, 0, 74, 0
1, 18576, Note_on_c, 0, 72, 100
1, 18604, Note_on_c, 1, 55, 0
1, 18614, Note_on_c, 0, 72, 0
1, 18624, Note_on_c, 0, 79, 100
1, 18624, Note_on_c, 0, 62, 100
1, 18624, Note_on_c, 1, 59, 100
1, 18700, Note_on_c, 0, 62, 0
1, 18700, Note_on_c, 1, 59, 0
1, 18720, Note_on_c, 1, 55, 100
1, 18776, Note_on_c, 0, 79, 0
1, 18796, Note_on_c, 1, 55, 0
1, 18816, Note_on_c, 0, 79, 100
1, 18816, Note_on_c, 0, 63, 100
1, 18816, Note_on_c, 0, 60, 100
1, 18892, Note_on_c, 0, 60, 0
1, 18892, Note_on_c, 0, 63, 0
1, 18912, Note_on_c, 1, 55, 100
1, 18968, Note_on_c, 0, 79, 0
1, 18988, Note_on_c, 1, 55, 0
1, 19008, Note_on_c, 0, 62, 100
1, 19008, Note_on_c, 0, 65, 100
1, 19008, Note_on_c, 0, 79, 100
1, 19084, Note_on_c, 0, 65, 0
1, 19084, Note_on_c, 0, 62, 0
1, 19104, Note_on_c, 1, 55, 100
1, 19160, Note_on_c, 0, 79, 0
1, 19180, Note_on_c, 1, 55, 0
1, 19200, Note_on_c, 0, 63, 100
1, 19200, Note_on_c, 0, 79, 100
1, 19200, Note_on_c, 0, 60, 100
1, 19276, Note_on_c, 0, 60, 0
1, 19276, Note_on_c, 0, 63, 0
1, 19296, Note_on_c, 1, 55, 100
1, 19372, Note_on_c, 1, 55, 0
1, 19392, Note_on_c, 0, 63, 100
1, 19392, Note_on_c, 0, 60, 100
1, 19468, Note_on_c, 0, 60, 0
1, 19468, Note_on_c, 0, 63, 0
1, 19488, Note_on_c, 1, 55, 100
1, 19506, Note_on_c, 0, 79, 0
1, 19564, Note_on_c, 1, 55, 0
1, 19572, Note_on_c, 0, 77, 100
1, 19584, Note_on_c, 0, 77, 0
1, 19584, Note_on_c, 0, 75, 100
1, 19584, Note_on_c, 0, 60, 100
1, 19584, Note_on_c, 0, 63, 100
1, 19660, Note_on_c, 0, 63, 0
1, 19660, Note_on_c, 0, 60, 0
1, 19660, Note_on_c, 0, 75, 0
1, 19680, Note_on_c, 0, 74, 100
1, 19680, Note_on_c, 1, 55, 100
1, 19718, Note_on_c, 0, 74, 0
1, 19728, Note_on_c, 0, 72, 100
1, 19756, Note_on_c, 1, 55, 0
1, 19766, Note_on_c, 0, 72, 0
1, 19776, Note_on_c, 0, 80, 100
1, 19776, Note_on_c, 0, 74, 100
1, 19776, Note_on_c, 0, 71, 100
1, 19928, Note_on_c, 0, 71, 0
1, 19928, Note_on_c, 0, 74, 0
1, 19928, Note_on_c, 0, 80, 0
1, 19968, Note_on_c, 1, 53, 100
1, 19968, Note_on_c, 1, 41, 100
1, 20120, Note_on_c, 1, 41, 0
1, 20120, Note_on_c, 1, 53, 0
1, 20160, Note_on_c, 0, 65, 100
1, 20160, Note_on_c, 1, 53, 100
1, 20312, Note_on_c, 0, 65, 0
1, 20312, Note_on_c, 1, 53, 0
1, 20352, Note_on_c, 0, 79, 100
1, 20352, Note_on_c, 0, 75, 100
1, 20352, Note_on_c, 0, 72, 100
1, 20504, Note_on_c, 0, 72, 0
1, 20504, Note_on_c, 0, 75, 0
1, 20504, Note_on_c, 0, 79, 0
1, 20544, Note_on_c, 1, 51, 100
1, 20544, Note_on_c, 1, 39, 100
1, 20696, Note_on_c, 1, 39, 0
1, 20696, Note_on_c, 1, 51, 0
1, 20736, Note_on_c, 0, 63, 100
1, 20736, Note_on_c, 1, 51, 100
1, 20888, Note_on_c, 0, 63, 0
1, 20888, Note_on_c, 1, 51, 0
1, 20928, Note_on_c, 0, 62, 100
1, 20928, Note_on_c, 1, 50, 100
1, 21080, Note_on_c, 0, 62, 0
1, 21080, Note_on_c, 1, 50, 0
1, 21120, Note_on_c, 0, 83, 100
1, 21120, Note_on_c, 0, 77, 100
1, 21120, Note_on_c, 0, 74, 100
1, 21272, Note_on_c, 0, 74, 0
1, 21272, Note_on_c, 0, 77, 0
1, 21272, Note_on_c, 0, 83, 0
1, 21312, Note_on_c, 0, 86, 100
1, 21312, Note_on_c, 0, 83, 100
1, 21312, Note_on_c, 0, 77, 100
1, 21464, Note_on_c, 0, 77, 0
1, 21464, Note_on_c, 0, 83, 0
1, 21464, Note_on_c, 0, 86, 0
1, 21504, Note_on_c, 0, 89, 100
1, 21504, Note_on_c, 0, 86, 100
1, 21504, Note_on_c, 0, 79, 100
1, 21504, Note_on_c, 1, 59, 100
1, 21504, Note_on_c, 1, 47, 100
1, 21656, Note_on_c, 0, 79, 0
1, 21656, Note_on_c, 0, 86, 0
1, 21656, Note_on_c, 0, 89, 0
1, 21656, Note_on_c, 1, 47, 0
1, 21656, Note_on_c, 1, 59, 0
1, 22656, Note_on_c, 0, 75, 60
1, 23116, Note_on_c, 0, 75, 0
1, 23232, Note_on_c, 0, 66, 60
1, 23232, Note_on_c, 0, 60, 60
1, 23232, Note_on_c, 0, 63, 60
1, 23692, Note_on_c, 0, 63, 0
1, 23692, Note_on_c, 0, 60, 0
1, 23692, Note_on_c, 0, 66, 0
1, 23808, Note_on_c, 0, 67, 60
1, 23808, Note_on_c, 0, 62, 60
1, 23808, Note_on_c, 0, 65, 60
1, 23808, Note_on_c, 1, 59, 60
1, 24038, Note_on_c, 0, 67, 0
1, 24096, Note_on_c, 0, 68, 60
1, 24114, Note_on_c, 0, 62, 0
1, 24114, Note_on_c, 0, 65, 0
1, 24114, Note_on_c, 1, 59, 0
1, 24172, Note_on_c, 0, 68, 0
1, 24192, Note_on_c, 0, 67, 60
1, 24192, Note_on_c, 0, 60, 60
1, 24192, Note_on_c, 0, 63, 60
1, 24344, Note_on_c, 0, 63, 0
1, 24344, Note_on_c, 0, 60, 0
1, 24344, Note_on_c, 0, 67, 0
1, 24384, Note_on_c, 0, 63, 60
1, 24384, Note_on_c, 1, 53, 60
1, 24396, Note_on_c, 0, 63, 0
1, 24396, Note_on_c, 0, 67, 60
1, 24396, Note_on_c, 0, 65, 60
1, 24396, Note_on_c, 0, 62, 60
1, 24408, Note_on_c, 0, 67, 0
1, 24536, Note_on_c, 1, 53, 0
1, 24548, Note_on_c, 0, 65, 0
1, 24548, Note_on_c, 0, 62, 0
1, 24576, Note_on_c, 1, 55, 60
1, 24588, Note_on_c, 0, 63, 60
1, 24588, Note_on_c, 0, 60, 60
1, 24728, Note_on_c, 1, 55, 0
1, 24740, Note_on_c, 0, 60, 0
1, 24740, Note_on_c, 0, 63, 0
1, 24768, Note_on_c, 1, 43, 60
1, 24780, Note_on_c, 0, 62, 60
1, 24780, Note_on_c, 1, 59, 60
1, 24920, Note_on_c, 1, 43, 0
1, 24932, Note_on_c, 0, 62, 0
1, 24932, Note_on_c, 1, 59, 0
1, 24960, Note_on_c, 0, 60, 60
1, 24960, Note_on_c, 1, 48, 60
1, 25112, Note_on_c, 0, 60, 0
1, 25112, Note_on_c, 1, 48, 0
1, 25536, Note_on_c, 0, 62, 100
1, 25536, Note_on_c, 1, 56, 100
1, 25536, Note_on_c, 1, 58, 100
1, 25536, Note_on_c, 1, 53, 100
1, 25536, Note_on_c, 1, 46, 100
1, 25536, Note_on_c, 1, 34, 100
1, 25996, Note_on_c, 0, 62, 0
1, 25996, Note_on_c, 1, 34, 0
1, 25996, Note_on_c, 1, 46, 0
1, 25996, Note_on_c, 1, 53, 0
1, 25996, Note_on_c, 1, 58, 0
1, 25996, Note_on_c, 1, 56, 0
1, 26112, Note_on_c, 1, 51, 60
1, 26188, Note_on_c, 1, 51, 0
1, 26208, Note_on_c, 1, 55, 60
1, 26284, Note_on_c, 1, 55, 0
1, 26304, Note_on_c, 1, 58, 60
1, 26380, Note_on_c, 1, 58, 0
1, 26400, Note_on_c, 1, 55, 60
1, 26476, Note_on_c, 1, 55, 0
1, 26496, Note_on_c, 1, 58, 60
1, 26572, Note_on_c, 1, 58, 0
1, 26592, Note_on_c, 1, 55, 60
1, 26668, Note_on_c, 1, 55, 0
1, 26688, Note_on_c, 1, 51, 60
1, 26764, Note_on_c, 1, 51, 0
1, 26784, Note_on_c, 1, 55, 60
1, 26860, Note_on_c, 1, 55, 0
1, 26880, Note_on_c, 0, 70, 60
1, 26880, Note_on_c, 1, 58, 60
1, 26956, Note_on_c, 1, 58, 0
1, 26976, Note_on_c, 1, 55, 60
1, 27032, Note_on_c, 0, 70, 0
1, 27052, Note_on_c, 1, 55, 0
1, 27072, Note_on_c, 0, 70, 60
1, 27072, Note_on_c, 1, 58, 60
1, 27148, Note_on_c, 1, 58, 0
1, 27168, Note_on_c, 1, 55, 60
1, 27224, Note_on_c, 0, 70, 0
1, 27244, Note_on_c, 1, 55, 0
1, 27264, Note_on_c, 0, 70, 60
1, 27264, Note_on_c, 1, 51, 60
1, 27340, Note_on_c, 1, 51, 0
1, 27360, Note_on_c, 1, 53, 60
1, 27436, Note_on_c, 1, 53, 0
1, 27456, Note_on_c, 1, 56, 60
1, 27494, Note_on_c, 0, 70, 0
1, 27532, Note_on_c, 1, 56, 0
1, 27552, Note_on_c, 0, 72, 60
1, 27552, Note_on_c, 1, 53, 60
1, 27628, Note_on_c, 0, 72, 0
1, 27628, Note_on_c, 1, 53, 0
1, 27648, Note_on_c, 0, 70, 60
1, 27648, Note_on_c, 1, 56, 60
1, 27724, Note_on_c, 1, 56, 0
1, 27744, Note_on_c, 1, 53, 60
1, 27800, Note_on_c, 0, 70, 0
1, 27820, Note_on_c, 1, 53, 0
1, 27840, Note_on_c, 0, 80, 60
1, 27840, Note_on_c, 1, 51, 60
1, 27916, Note_on_c, 1, 51, 0
1, 27936, Note_on_c, 1, 53, 60
1, 28012, Note_on_c, 1, 53, 0
1, 28032, Note_on_c, 1, 56, 60
1, 28108, Note_on_c, 1, 56, 0
1, 28128, Note_on_c, 1, 53, 60
1, 28146, Note_on_c, 0, 80, 0
1, 28204, Note_on_c, 1, 53, 0
1, 28224, Note_on_c, 0, 74, 60
1, 28224, Note_on_c, 1, 56, 60
1, 28300, Note_on_c, 1, 56, 0
1, 28320, Note_on_c, 1, 53, 60
1, 28376, Note_on_c, 0, 74, 0
1, 28396, Note_on_c, 1, 53, 0
1, 28416, Note_on_c, 0, 77, 60
1, 28416, Note_on_c, 1, 51, 60
1, 28492, Note_on_c, 1, 51, 0
1, 28512, Note_on_c, 1, 55, 60
1, 28588, Note_on_c, 1, 55, 0
1, 28608, Note_on_c, 1, 58, 60
1, 28684, Note_on_c, 1, 58, 0
1, 28704, Note_on_c, 1, 55, 60
1, 28722, Note_on_c, 0, 77, 0
1, 28780, Note_on_c, 1, 55, 0
1, 28800, Note_on_c, 0, 75, 60
1, 28800, Note_on_c, 1, 58, 60
1, 28876, Note_on_c, 1, 58, 0
1, 28896, Note_on_c, 1, 55, 60
1, 28952, Note_on_c, 0, 75, 0
1, 28972, Note_on_c, 1, 55, 0
1, 28992, Note_on_c, 1, 51, 60
1, 29068, Note_on_c, 1, 51, 0
1, 29088, Note_on_c, 1, 55, 60
1, 29164, Note_on_c, 1, 55, 0
1, 29184, Note_on_c, 0, 70, 60
1, 29184, Note_on_c, 1, 58, 60
1, 29260, Note_on_c, 1, 58, 0
1, 29280, Note_on_c, 1, 55, 60
1, 29336, Note_on_c, 0, 70, 0
1, 29356, Note_on_c, 1, 55, 0
1, 29376, Note_on_c, 0, 70, 60
1, 29376, Note_on_c, 1, 58, 60
1, 29452, Note_on_c, 1, 58, 0
1, 29472, Note_on_c, 1, 55, 60
1, 29528, Note_on_c, 0, 70, 0
1, 29548, Note_on_c, 1, 55, 0
1, 29568, Note_on_c, 0, 69, 60
1, 29568, Note_on_c, 1, 51, 60
1, 29644, Note_on_c, 0, 69, 0
1, 29644, Note_on_c, 1, 51, 0
1, 29664, Note_on_c, 0, 70, 60
1, 29664, Note_on_c, 1, 53, 60
1, 29740, Note_on_c, 0, 70, 0
1, 29740, Note_on_c, 1, 53, 0
1, 29760, Note_on_c, 0, 72, 67
1, 29760, Note_on_c, 1, 56, 67
1, 29836, Note_on_c, 0, 72, 0
1, 29836, Note_on_c, 1, 56, 0
1, 29856, Note_on_c, 0, 73, 67
1, 29856, Note_on_c, 1, 53, 67
1, 29932, Note_on_c, 0, 73, 0
1, 29932, Note_on_c, 1, 53, 0
1, 29952, Note_on_c, 0, 74, 74
1, 29952, Note_on_c, 1, 56, 74
1, 30028, Note_on_c, 0, 74, 0
1, 30028, Note_on_c, 1, 56, 0
1, 30048, Note_on_c, 0, 75, 74
1, 30048, Note_on_c, 1, 53, 74
1, 30124, Note_on_c, 0, 75, 0
1, 30124, Note_on_c, 1, 53, 0
1, 30144, Note_on_c, 0, 76, 80
1, 30144, Note_on_c, 1, 51, 80
1, 30220, Note_on_c, 0, 76, 0
1, 30220, Note_on_c, 1, 51, 0
1, 30240, Note_on_c, 0, 77, 80
1, 30240, Note_on_c, 1, 53, 80
1, 30316, Note_on_c, 0, 77, 0
1, 30316, Note_on_c, 1, 53, 0
1, 30336, Note_on_c, 0, 78, 87
1, 30336, Note_on_c, 1, 56, 87
1, 30412, Note_on_c, 0, 78, 0
1, 30412, Note_on_c, 1, 56, 0
1, 30432, Note_on_c, 0, 79, 87
1, 30432, Note_on_c, 1, 53, 87
1, 30508, Note_on_c, 0, 79, 0
1, 30508, Note_on_c, 1, 53, 0
1, 30528, Note_on_c, 0, 80, 94
1, 30528, Note_on_c, 1, 56, 94
1, 30604, Note_on_c, 0, 80, 0
1, 30604, Note_on_c, 1, 56, 0
1, 30624, Note_on_c, 0, 74, 94
1, 30624, Note_on_c, 1, 53, 94
1, 30700, Note_on_c, 0, 74, 0
1, 30700, Note_on_c, 1, 53, 0
1, 30720, Note_on_c, 0, 77, 60
1, 30720, Note_on_c, 1, 51, 60
1, 30796, Note_on_c, 1, 51, 0
1, 30816, Note_on_c, 1, 55, 60
1, 30892, Note_on_c, 1, 55, 0
1, 30912, Note_on_c, 1, 58, 60
1, 30988, Note_on_c, 1, 58, 0
1, 31008, Note_on_c, 1, 55, 60
1, 31080, Note_on_c, 0, 77, 0
1, 31084, Note_on_c, 1, 55, 0
1, 31104, Note_on_c, 0, 75, 60
1, 31104, Note_on_c, 1, 58, 60
1, 31180, Note_on_c, 1, 58, 0
1, 31200, Note_on_c, 1, 55, 60
1, 31256, Note_on_c, 0, 75, 0
1, 31276, Note_on_c, 1, 55, 0
1, 31296, Note_on_c, 1, 51, 60
1, 31372, Note_on_c, 1, 51, 0
1, 31392, Note_on_c, 1, 55, 60
1, 31468, Note_on_c, 1, 55, 0
1, 31488, Note_on_c, 0, 75, 60
1, 31488, Note_on_c, 1, 58, 60
1, 31564, Note_on_c, 1, 58, 0
1, 31584, Note_on_c, 1, 55, 60
1, 31640, Note_on_c, 0, 75, 0
1, 31660, Note_on_c, 1, 55, 0
1, 31680, Note_on_c, 0, 75, 60
1, 31680, Note_on_c, 1, 58, 60
1, 31756, Note_on_c, 1, 58, 0
1, 31776, Note_on_c, 1, 55, 60
1, 31832, Note_on_c, 0, 75, 0
1, 31852, Note_on_c, 1, 55, 0
1, 31872, Note_on_c, 0, 75, 100
1, 31872, Note_on_c, 1, 47, 100
1, 31948, Note_on_c, 1, 47, 0
1, 31968, Note_on_c, 1, 51, 100
1, 32044, Note_on_c, 1, 51, 0
1, 32064, Note_on_c, 1, 57, 100
1, 32102, Note_on_c, 0, 75, 0
1, 32140, Note_on_c, 1, 57, 0
1, 32160, Note_on_c, 0, 77, 100
1, 32160, Note_on_c, 1, 51, 100
1, 32184, Note_on_c, 0, 77, 0
1, 32192, Note_on_c, 0, 75, 100
1, 32216, Note_on_c, 0, 75, 0
1, 32224, Note_on_c, 0, 74, 100
1, 32236, Note_on_c, 1, 51, 0
1, 32248, Note_on_c, 0, 74, 0
1, 32256, Note_on_c, 0, 75, 100
1, 32256, Note_on_c, 1, 57, 100
1, 32332, Note_on_c, 0, 75, 0
1, 32332, Note_on_c, 1, 57, 0
1, 32352, Note_on_c, 0, 77, 100
1, 32352, Note_on_c, 1, 51, 100
1, 32428, Note_on_c, 0, 77, 0
1, 32428, Note_on_c, 1, 51, 0
1, 32448, Note_on_c, 0, 78, 100
1, 32448, Note_on_c, 1, 47, 100
1, 32524, Note_on_c, 1, 47, 0
1, 32544, Note_on_c, 1, 51, 100
1, 32620, Note_on_c, 1, 51, 0
1, 32640, Note_on_c, 1, 54, 100
1, 32716, Note_on_c, 1, 54, 0
1, 32736, Note_on_c, 1, 51, 100
1, 32808, Note_on_c, 0, 78, 0
1, 32812, Note_on_c, 1, 51, 0
1, 32832, Note_on_c, 0, 69, 100
1, 32832, Note_on_c, 1, 54, 100
1, 32908, Note_on_c, 1, 54, 0
1, 32928, Note_on_c, 1, 51, 100
1, 32984, Note_on_c, 0, 69, 0
1, 33004, Note_on_c, 1, 51, 0
1, 33024, Note_on_c, 0, 70, 100
1, 33024, Note_on_c, 1, 46, 100
1, 33024, Note_on_c, 1, 50, 100
1, 33176, Note_on_c, 0, 70, 0
1, 33176, Note_on_c, 1, 50, 0
1, 33176, Note_on_c, 1, 46, 0
1, 33216, Note_on_c, 1, 58, 100
1, 33312, Note_on_c, 0, 70, 60
1, 33368, Note_on_c, 1, 58, 0
1, 33388, Note_on_c, 0, 70, 0
1, 33408, Note_on_c, 0, 69, 60
1, 33484, Note_on_c, 0, 69, 0
1, 33504, Note_on_c, 0, 70, 60
1, 33580, Note_on_c, 0, 70, 0
1, 33600, Note_on_c, 0, 71, 60
1, 33676, Note_on_c, 0, 71, 0
1, 33696, Note_on_c, 0, 72, 60
1, 33772, Note_on_c, 0, 72, 0
1, 33792, Note_on_c, 0, 73, 60
1, 33868, Note_on_c, 0, 73, 0
1, 33888, Note_on_c, 0, 74, 60
1, 33964, Note_on_c, 0, 74, 0
1, 33984, Note_on_c, 0, 75, 60
1, 33984, Note_on_c, 0, 63, 60
1, 33984, Note_on_c, 1, 59, 60
1, 34060, Note_on_c, 0, 75, 0
1, 34080, Note_on_c, 0, 69, 60
1, 34136, Note_on_c, 0, 63, 0
1, 34136, Note_on_c, 1, 59, 0
1, 34156, Note_on_c, 0, 69, 0
1, 34176, Note_on_c, 0, 70, 60
1, 34176, Note_on_c, 0, 62, 60
1, 34176, Note_on_c, 1, 58, 60
1, 34328, Note_on_c, 0, 62, 0
1, 34328, Note_on_c, 0, 70, 0
1, 34328, Note_on_c, 1, 58, 0
1, 34368, Note_on_c, 1, 46, 60
1, 34464, Note_on_c, 1, 58, 60
1, 34520, Note_on_c, 1, 46, 0
1, 34540, Note_on_c, 1, 58, 0
1, 34560, Note_on_c, 1, 57, 60
1, 34636, Note_on_c, 1, 57, 0
1, 34656, Note_on_c, 1, 58, 60
1, 34732, Note_on_c, 1, 58, 0
1, 34752, Note_on_c, 1, 59, 60
1, 34828, Note_on_c, 1, 59, 0
1, 34848, Note_on_c, 0, 60, 60
1, 34924, Note_on_c, 0, 60, 0
1, 34944, Note_on_c, 0, 61, 60
1, 35020, Note_on_c, 0, 61, 0
1, 35040, Note_on_c, 0, 62, 60
1, 35116, Note_on_c, 0, 62, 0
1, 35136, Note_on_c, 0, 63, 60
1, 35136, Note_on_c, 1, 47, 60
1, 35136, Note_on_c, 1, 51, 60
1, 35212, Note_on_c, 0, 63, 0
1, 35232, Note_on_c, 1, 57, 60
1, 35288, Note_on_c, 1, 51, 0
1, 35288, Note_on_c, 1, 47, 0
1, 35308, Note_on_c, 1, 57, 0
1, 35328, Note_on_c, 1, 58, 60
1, 35328, Note_on_c, 1, 50, 60
1, 35328, Note_on_c, 1, 46, 60
1, 35480, Note_on_c, 1, 46, 0
1, 35480, Note_on_c, 1, 50, 0
1, 35480, Note_on_c, 1, 58, 0
1, 35520, Note_on_c, 1, 34, 60
1, 35616, Note_on_c, 0, 81, 60
1, 35672, Note_on_c, 1, 34, 0
1, 35692, Note_on_c, 0, 81, 0
1, 35712, Note_on_c, 0, 82, 60
1, 35788, Note_on_c, 0, 82, 0
1, 35808, Note_on_c, 0, 81, 60
1, 35884, Note_on_c, 0, 81, 0
1, 35904, Note_on_c, 0, 82, 60
1, 36056, Note_on_c, 0, 82, 0
1, 36096, Note_on_c, 1, 58, 60
1, 36192, Note_on_c, 0, 69, 60
1, 36248, Note_on_c, 1, 58, 0
1, 36268, Note_on_c, 0, 69, 0
1, 36288, Note_on_c, 0, 70, 60
1, 36364, Note_on_c, 0, 70, 0
1, 36384, Note_on_c, 0, 69, 60
1, 36460, Note_on_c, 0, 69, 0
1, 36480, Note_on_c, 0, 70, 60
1, 36632, Note_on_c, 0, 70, 0
1, 36672, Note_on_c, 1, 46, 60
1, 36768, Note_on_c, 1, 57, 60
1, 36824, Note_on_c, 1, 46, 0
1, 36844, Note_on_c, 1, 57, 0
1, 36864, Note_on_c, 1, 58, 60
1, 36940, Note_on_c, 1, 58, 0
1, 36960, Note_on_c, 1, 57, 60
1, 37036, Note_on_c, 1, 57, 0
1, 37056, Note_on_c, 1, 58, 60
1, 37208, Note_on_c, 1, 58, 0
1, 37248, Note_on_c, 1, 34, 60
1, 37344, Note_on_c, 1, 45, 60
1, 37400, Note_on_c, 1, 34, 0
1, 37420, Note_on_c, 1, 45, 0
1, 37440, Note_on_c, 1, 46, 60
1, 37516, Note_on_c, 1, 46, 0
1, 37536, Note_on_c, 1, 45, 60
1, 37612, Note_on_c, 1, 45, 0
1, 37632, Note_on_c, 1, 46, 60
1, 37708, Note_on_c, 1, 46, 0
1, 37728, Note_on_c, 1, 47, 60
1, 37804, Note_on_c, 1, 47, 0
1, 37824, Note_on_c, 1, 48, 60
1, 37900, Note_on_c, 1, 48, 0
1, 37920, Note_on_c, 1, 46, 60
1, 37996, Note_on_c, 1, 46, 0
1, 38016, Note_on_c, 1, 44, 60
1, 38092, Note_on_c, 1, 44, 0
1, 38112, Note_on_c, 1, 43, 60
1, 38188, Note_on_c, 1, 43, 0
1, 38208, Note_on_c, 1, 41, 60
1, 38284, Note_on_c, 1, 41, 0
1, 38304, Note_on_c, 1, 39, 60
1, 38380, Note_on_c, 1, 39, 0
1, 38400, Note_on_c, 1, 38, 60
1, 38476, Note_on_c, 1, 38, 0
1, 38496, Note_on_c, 1, 36, 60
1, 38572, Note_on_c, 1, 36, 0
1, 38592, Note_on_c, 1, 34, 60
1, 38668, Note_on_c, 1, 34, 0
1, 38688, Note_on_c, 1, 32, 60
1, 38764, Note_on_c, 1, 32, 0
1, 38784, Note_on_c, 1, 31, 100
1, 39244, Note_on_c, 1, 31, 0
1, 39360, Note_on_c, 0, 87, 100
1, 39360, Note_on_c, 0, 75, 100
1, 39360, Note_on_c, 1, 43, 100
1, 39820, Note_on_c, 0, 75, 0
1, 39820, Note_on_c, 0, 87, 0
1, 39820, Note_on_c, 1, 43, 0
1, 39936, Note_on_c, 0, 87, 100
1, 39936, Note_on_c, 0, 75, 100
1, 39936, Note_on_c, 1, 44, 100
1, 40088, Note_on_c, 0, 75, 0
1, 40088, Note_on_c, 0, 87, 0
1, 40128, Note_on_c, 0, 83, 100
1, 40128, Note_on_c, 0, 71, 100
1, 40280, Note_on_c, 0, 71, 0
1, 40280, Note_on_c, 0, 83, 0
1, 40320, Note_on_c, 0, 84, 100
1, 40320, Note_on_c, 0, 72, 100
1, 40396, Note_on_c, 1, 44, 0
1, 40472, Note_on_c, 0, 72, 0
1, 40472, Note_on_c, 0, 84, 0
1, 40512, Note_on_c, 0, 60, 100
1, 40512, Note_on_c, 0, 76, 100
1, 40512, Note_on_c, 0, 64, 100
1, 40512, Note_on_c, 1, 56, 100
1, 40664, Note_on_c, 0, 64, 0
1, 40664, Note_on_c, 0, 76, 0
1, 40704, Note_on_c, 0, 77, 100
1, 40704, Note_on_c, 0, 65, 100
1, 40856, Note_on_c, 0, 65, 0
1, 40856, Note_on_c, 0, 77, 0
1, 40896, Note_on_c, 0, 80, 100
1, 40896, Note_on_c, 0, 68, 100
1, 40972, Note_on_c, 0, 60, 0
1, 40972, Note_on_c, 1, 56, 0
1, 41048, Note_on_c, 0, 80, 0
1, 41048, Note_on_c, 0, 68, 0
1, 41088, Note_on_c, 0, 75, 60
1, 41472, Note_on_c, 0, 66, 60
1, 41472, Note_on_c, 1, 57, 60
1, 41624, Note_on_c, 0, 66, 0
1, 41624, Note_on_c, 1, 57, 0
1, 41664, Note_on_c, 0, 67, 60
1, 41664, Note_on_c, 1, 58, 60
1, 41970, Note_on_c, 0, 75, 0
1, 41970, Note_on_c, 0, 67, 0
1, 41970, Note_on_c, 1, 58, 0
1, 42048, Note_on_c, 0, 72, 60
1, 42048, Note_on_c, 0, 79, 60
1, 42048, Note_on_c, 0, 68, 60
1, 42124, Note_on_c, 0, 79, 0
1, 42124, Note_on_c, 0, 72, 0
1, 42144, Note_on_c, 0, 77, 60
1, 42200, Note_on_c, 0, 68, 0
1, 42220, Note_on_c, 0, 77, 0
1, 42240, Note_on_c, 0, 75, 100
1, 42240, Note_on_c, 1, 51, 100
1, 42316, Note_on_c, 1, 51, 0
1, 42336, Note_on_c, 1, 58, 100
1, 42392, Note_on_c, 0, 75, 0
1, 42412, Note_on_c, 1, 58, 0
1, 42432, Note_on_c, 1, 55, 61
1, 42508, Note_on_c, 1, 55, 0
1, 42528, Note_on_c, 0, 75, 60
1, 42528, Note_on_c, 1, 58, 60
1, 42604, Note_on_c, 0, 75, 0
1, 42604, Note_on_c, 1, 58, 0
1, 42624, Note_on_c, 0, 74, 60
1, 42624, Note_on_c, 1, 51, 60
1, 42700, Note_on_c, 0, 74, 0
1, 42700, Note_on_c, 1, 51, 0
1, 42720, Note_on_c, 0, 75, 60
1, 42720, Note_on_c, 1, 58, 60
1, 42796, Note_on_c, 0, 75, 0
1, 42796, Note_on_c, 1, 58, 0
1, 42816, Note_on_c, 0, 76, 100
1, 42816, Note_on_c, 1, 50, 100
1, 42892, Note_on_c, 0, 76, 0
1, 42892, Note_on_c, 1, 50, 0
1, 42912, Note_on_c, 0, 77, 100
1, 42912, Note_on_c, 1, 58, 100
1, 42988, Note_on_c, 0, 77, 0
1, 42988, Note_on_c, 1, 58, 0
1, 43008, Note_on_c, 1, 56, 60
1, 43084, Note_on_c, 1, 56, 0
1, 43104, Note_on_c, 0, 77, 60
1, 43104, Note_on_c, 1, 58, 60
1, 43180, Note_on_c, 0, 77, 0
1, 43180, Note_on_c, 1, 58, 0
1, 43200, Note_on_c, 0, 76, 60
1, 43200, Note_on_c, 1, 50, 60
1, 43276, Note_on_c, 0, 76, 0
1, 43276, Note_on_c, 1, 50, 0
1, 43296, Note_on_c, 0, 77, 60
1, 43296, Note_on_c, 1, 58, 60
1, 43372, Note_on_c, 0, 77, 0
1, 43372, Note_on_c, 1, 58, 0
1, 43392, Note_on_c, 0, 78, 100
1, 43392, Note_on_c, 1, 49, 100
1, 43468, Note_on_c, 0, 78, 0
1, 43468, Note_on_c, 1, 49, 0
1, 43488, Note_on_c, 0, 79, 100
1, 43488, Note_on_c, 1, 58, 100
1, 43564, Note_on_c, 0, 79, 0
1, 43564, Note_on_c, 1, 58, 0
1, 43584, Note_on_c, 1, 51, 60
1, 43660, Note_on_c, 1, 51, 0
1, 43680, Note_on_c, 0, 79, 60
1, 43680, Note_on_c, 1, 58, 60
1, 43756, Note_on_c, 0, 79, 0
1, 43756, Note_on_c, 1, 58, 0
1, 43776, Note_on_c, 0, 78, 60
1, 43776, Note_on_c, 1, 49, 60
1, 43852, Note_on_c, 0, 78, 0
1, 43852, Note_on_c, 1, 49, 0
1, 43872, Note_on_c, 0, 79, 60
1, 43872, Note_on_c, 1, 58, 60
1, 43948, Note_on_c, 0, 79, 0
1, 43948, Note_on_c, 1, 58, 0
1, 43968, Note_on_c, 0, 79, 100
1, 43968, Note_on_c, 1, 48, 100
1, 44044, Note_on_c, 0, 79, 0
1, 44044, Note_on_c, 1, 48, 0
1, 44064, Note_on_c, 0, 80, 100
1, 44064, Note_on_c, 1, 56, 100
1, 44140, Note_on_c, 0, 80, 0
1, 44140, Note_on_c, 1, 56, 0
1, 44160, Note_on_c, 1, 51, 60
1, 44236, Note_on_c, 1, 51, 0
1, 44256, Note_on_c, 0, 80, 60
1, 44256, Note_on_c, 1, 56, 60
1, 44332, Note_on_c, 0, 80, 0
1, 44332, Note_on_c, 1, 56, 0
1, 44352, Note_on_c, 0, 79, 60
1, 44352, Note_on_c, 1, 48, 60
1, 44428, Note_on_c, 0, 79, 0
1, 44428, Note_on_c, 1, 48, 0
1, 44448, Note_on_c, 0, 80, 60
1, 44448, Note_on_c, 1, 56, 60
1, 44524, Note_on_c, 0, 80, 0
1, 44524, Note_on_c, 1, 56, 0
1, 44544, Note_on_c, 0, 82, 60
1, 44544, Note_on_c, 1, 43, 60
1, 44620, Note_on_c, 0, 82, 0
1, 44640, Note_on_c, 0, 79, 60
1, 44696, Note_on_c, 1, 43, 0
1, 44716, Note_on_c, 0, 79, 0
1, 44736, Note_on_c, 0, 87, 60
1, 44812, Note_on_c, 0, 87, 0
1, 44832, Note_on_c, 0, 87, 60
1, 44908, Note_on_c, 0, 87, 0
1, 44928, Note_on_c, 0, 87, 60
1, 45004, Note_on_c, 0, 87, 0
1, 45024, Note_on_c, 0, 87, 60
1, 45100, Note_on_c, 0, 87, 0
1, 45120, Note_on_c, 0, 65, 60
1, 45120, Note_on_c, 1, 56, 60
1, 45216, Note_on_c, 0, 77, 60
1, 45272, Note_on_c, 0, 65, 0
1, 45272, Note_on_c, 1, 56, 0
1, 45292, Note_on_c, 0, 77, 0
1, 45312, Note_on_c, 0, 84, 60
1, 45388, Note_on_c, 0, 84, 0
1, 45408, Note_on_c, 0, 84, 60
1, 45484, Note_on_c, 0, 84, 0
1, 45504, Note_on_c, 0, 84, 60
1, 45580, Note_on_c, 0, 84, 0
1, 45600, Note_on_c, 0, 84, 60
1, 45676, Note_on_c, 0, 84, 0
1, 45696, Note_on_c, 0, 67, 60
1, 45696, Note_on_c, 1, 58, 60
1, 45792, Note_on_c, 0, 75, 60
1, 45848, Note_on_c, 0, 67, 0
1, 45848, Note_on_c, 1, 58, 0
1, 45868, Note_on_c, 0, 75, 0
1, 45888, Note_on_c, 0, 82, 60
1, 45964, Note_on_c, 0, 82, 0
1, 45984, Note_on_c, 0, 82, 60
1, 46060, Note_on_c, 0, 82, 0
1, 46080, Note_on_c, 0, 82, 60
1, 46156, Note_on_c, 0, 82, 0
1, 46176, Note_on_c, 0, 82, 60
1, 46252, Note_on_c, 0, 82, 0
1, 46272, Note_on_c, 0, 65, 60
1, 46272, Note_on_c, 1, 58, 60
1, 46368, Note_on_c, 0, 68, 60
1, 46424, Note_on_c, 0, 65, 0
1, 46424, Note_on_c, 1, 58, 0
1, 46444, Note_on_c, 0, 68, 0
1, 46464, Note_on_c, 0, 74, 60
1, 46540, Note_on_c, 0, 74, 0
1, 46560, Note_on_c, 0, 74, 60
1, 46636, Note_on_c, 0, 74, 0
1, 46656, Note_on_c, 0, 74, 60
1, 46732, Note_on_c, 0, 74, 0
1, 46752, Note_on_c, 0, 74, 60
1, 46828, Note_on_c, 0, 74, 0
1, 46848, Note_on_c, 0, 75, 100
1, 46848, Note_on_c, 0, 67, 100
1, 46848, Note_on_c, 0, 70, 100
1, 46848, Note_on_c, 1, 51, 100
1, 46924, Note_on_c, 1, 51, 0
1, 46944, Note_on_c, 1, 58, 100
1, 47000, Note_on_c, 0, 70, 0
1, 47000, Note_on_c, 0, 67, 0
1, 47000, Note_on_c, 0, 75, 0
1, 47020, Note_on_c, 1, 58, 0
1, 47040, Note_on_c, 1, 55, 60
1, 47116, Note_on_c, 1, 55, 0
1, 47136, Note_on_c, 0, 63, 60
1, 47136, Note_on_c, 1, 58, 60
1, 47212, Note_on_c, 0, 63, 0
1, 47212, Note_on_c, 1, 58, 0
1, 47232, Note_on_c, 0, 62, 60
1, 47232, Note_on_c, 1, 51, 60
1, 47308, Note_on_c, 0, 62, 0
1, 47308, Note_on_c, 1, 51, 0
1, 47328, Note_on_c, 0, 63, 60
1, 47328, Note_on_c, 1, 58, 60
1, 47404, Note_on_c, 0, 63, 0
1, 47404, Note_on_c, 1, 58, 0
1, 47424, Note_on_c, 0, 64, 100
1, 47424, Note_on_c, 1, 50, 100
1, 47500, Note_on_c, 0, 64, 0
1, 47500, Note_on_c, 1, 50, 0
1, 47520, Note_on_c, 0, 65, 100
1, 47520, Note_on_c, 1, 58, 100
1, 47596, Note_on_c, 0, 65, 0
1, 47596, Note_on_c, 1, 58, 0
1, 47616, Note_on_c, 1, 56, 60
1, 47692, Note_on_c, 1, 56, 0
1, 47712, Note_on_c, 0, 65, 60
1, 47712, Note_on_c, 1, 58, 60
1, 47788, Note_on_c, 0, 65, 0
1, 47788, Note_on_c, 1, 58, 0
1, 47808, Note_on_c, 0, 64, 60
1, 47808, Note_on_c, 1, 50, 60
1, 47884, Note_on_c, 0, 64, 0
1, 47884, Note_on_c, 1, 50, 0
1, 47904, Note_on_c, 0, 65, 60
1, 47904, Note_on_c, 1, 58, 60
1, 47980, Note_on_c, 0, 65, 0
1, 47980, Note_on_c, 1, 58, 0
1, 48000, Note_on_c, 0, 66, 100
1, 48000, Note_on_c, 1, 49, 100
1, 48076, Note_on_c, 0, 66, 0
1, 48076, Note_on_c, 1, 49, 0
1, 48096, Note_on_c, 0, 67, 100
1, 48096, Note_on_c, 1, 58, 100
1, 48172, Note_on_c, 0, 67, 0
1, 48172, Note_on_c, 1, 58, 0
1, 48192, Note_on_c, 1, 51, 60
1, 48268, Note_on_c, 1, 51, 0
1, 48288, Note_on_c, 0, 67, 60
1, 48288, Note_on_c, 1, 58, 60
1, 48364, Note_on_c, 0, 67, 0
1, 48364, Note_on_c, 1, 58, 0
1, 48384, Note_on_c, 0, 66, 60
1, 48384, Note_on_c, 1, 49, 60
1, 48460, Note_on_c, 0, 66, 0
1, 48460, Note_on_c, 1, 49, 0
1, 48480, Note_on_c, 0, 67, 60
1, 48480, Note_on_c, 1, 58, 60
1, 48556, Note_on_c, 0, 67, 0
1, 48556, Note_on_c, 1, 58, 0
1, 48576, Note_on_c, 0, 67, 60
1, 48576, Note_on_c, 1, 48, 60
1, 48652, Note_on_c, 0, 67, 0
1, 48652, Note_on_c, 1, 48, 0
1, 48672, Note_on_c, 0, 68, 60
1, 48672, Note_on_c, 1, 56, 60
1, 48748, Note_on_c, 0, 68, 0
1, 48748, Note_on_c, 1, 56, 0
1, 48768, Note_on_c, 1, 51, 60
1, 48844, Note_on_c, 1, 51, 0
1, 48864, Note_on_c, 0, 68, 60
1, 48864, Note_on_c, 1, 56, 60
1, 48940, Note_on_c, 0, 68, 0
1, 48940, Note_on_c, 1, 56, 0
1, 48960, Note_on_c, 0, 67, 60
1, 48960, Note_on_c, 1, 48, 60
1, 49036, Note_on_c, 0, 67, 0
1, 49036, Note_on_c, 1, 48, 0
1, 49056, Note_on_c, 0, 68, 60
1, 49056, Note_on_c, 1, 56, 60
1, 49132, Note_on_c, 0, 68, 0
1, 49132, Note_on_c, 1, 56, 0
1, 49152, Note_on_c, 0, 70, 60
1, 49152, Note_on_c, 1, 43, 60
1, 49228, Note_on_c, 0, 70, 0
1, 49248, Note_on_c, 0, 67, 60
1, 49304, Note_on_c, 1, 43, 0
1, 49324, Note_on_c, 0, 67, 0
1, 49344, Note_on_c, 0, 75, 60
1, 49420, Note_on_c, 0, 75, 0
1, 49440, Note_on_c, 0, 75, 60
1, 49516, Note_on_c, 0, 75, 0
1, 49536, Note_on_c, 0, 75, 60
1, 49612, Note_on_c, 0, 75, 0
1, 49632, Note_on_c, 0, 75, 60
1, 49708, Note_on_c, 0, 75, 0
1, 49728, Note_on_c, 1, 44, 60
1, 49728, Note_on_c, 1, 53, 60
1, 49824, Note_on_c, 0, 65, 60
1, 49880, Note_on_c, 1, 53, 0
1, 49880, Note_on_c, 1, 44, 0
1, 49900, Note_on_c, 0, 65, 0
1, 49920, Note_on_c, 0, 72, 60
1, 49996, Note_on_c, 0, 72, 0
1, 50016, Note_on_c, 0, 72, 60
1, 50092, Note_on_c, 0, 72, 0
1, 50112, Note_on_c, 0, 72, 60
1, 50188, Note_on_c, 0, 72, 0
1, 50208, Note_on_c, 0, 72, 60
1, 50284, Note_on_c, 0, 72, 0
1, 50304, Note_on_c, 1, 55, 60
1, 50304, Note_on_c, 1, 46, 60
1, 50400, Note_on_c, 0, 63, 60
1, 50456, Note_on_c, 1, 46, 0
1, 50456, Note_on_c, 1, 55, 0
1, 50476, Note_on_c, 0, 63, 0
1, 50496, Note_on_c, 0, 70, 60
1, 50572, Note_on_c, 0, 70, 0
1, 50592, Note_on_c, 0, 70, 60
1, 50668, Note_on_c, 0, 70, 0
1, 50688, Note_on_c, 0, 70, 60
1, 50764, Note_on_c, 0, 70, 0
1, 50784, Note_on_c, 0, 70, 60
1, 50860, Note_on_c, 0, 70, 0
1, 50880, Note_on_c, 1, 53, 60
1, 50880, Note_on_c, 1, 46, 60
1, 50976, Note_on_c, 1, 56, 60
1, 51032, Note_on_c, 1, 46, 0
1, 51032, Note_on_c, 1, 53, 0
1, 51052, Note_on_c, 1, 56, 0
1, 51072, Note_on_c, 0, 62, 60
1, 51148, Note_on_c, 0, 62, 0
1, 51168, Note_on_c, 0, 62, 60
1, 51244, Note_on_c, 0, 62, 0
1, 51264, Note_on_c, 0, 62, 60
1, 51340, Note_on_c, 0, 62, 0
1, 51360, Note_on_c, 0, 62, 60
1, 51436, Note_on_c, 0, 62, 0
1, 51456, Note_on_c, 0, 63, 60
1, 51456, Note_on_c, 1, 51, 60
1, 51532, Note_on_c, 0, 63, 0
1, 51552, Note_on_c, 1, 58, 60
1, 51608, Note_on_c, 1, 51, 0
1, 51628, Note_on_c, 1, 58, 0
1, 51648, Note_on_c, 1, 55, 60
1, 51724, Note_on_c, 1, 55, 0
1, 51744, Note_on_c, 1, 58, 60
1, 51820, Note_on_c, 1, 58, 0
1, 51840, Note_on_c, 1, 55, 60
1, 51916, Note_on_c, 1, 55, 0
1, 51936, Note_on_c, 1, 58, 60
1, 52012, Note_on_c, 1, 58, 0
1, 52032, Note_on_c, 1, 46, 60
1, 52032, Note_on_c, 1, 56, 60
1, 52108, Note_on_c, 1, 56, 0
1, 52128, Note_on_c, 1, 58, 60
1, 52184, Note_on_c, 1, 46, 0
1, 52204, Note_on_c, 1, 58, 0
1, 52224, Note_on_c, 1, 48, 60
1, 52224, Note_on_c, 1, 56, 60
1, 52300, Note_on_c, 1, 56, 0
1, 52320, Note_on_c, 1, 58, 60
1, 52376, Note_on_c, 1, 48, 0
1, 52396, Note_on_c, 1, 58, 0
1, 52416, Note_on_c, 1, 56, 60
1, 52416, Note_on_c, 1, 50, 60
1, 52492, Note_on_c, 1, 56, 0
1, 52512, Note_on_c, 1, 58, 60
1, 52568, Note_on_c, 1, 50, 0
1, 52588, Note_on_c, 1, 58, 0
1, 52608, Note_on_c, 1, 51, 60
1, 52608, Note_on_c, 1, 55, 60
1, 52684, Note_on_c, 1, 55, 0
1, 52704, Note_on_c, 1, 51, 60
1, 52760, Note_on_c, 1, 51, 0
1, 52780, Note_on_c, 1, 51, 0
1, 52800, Note_on_c, 1, 46, 60
1, 52876, Note_on_c, 1, 46, 0
1, 52896, Note_on_c, 1, 51, 60
1, 52972, Note_on_c, 1, 51, 0
1, 52992, Note_on_c, 1, 43, 60
1, 53068, Note_on_c, 1, 43, 0
1, 53088, Note_on_c, 1, 46, 60
1, 53164, Note_on_c, 1, 46, 0
1, 53184, Note_on_c, 1, 58, 60
1, 53184, Note_on_c, 1, 44, 60
1, 53260, Note_on_c, 1, 44, 0
1, 53280, Note_on_c, 1, 46, 60
1, 53336, Note_on_c, 1, 58, 0
1, 53356, Note_on_c, 1, 46, 0
1, 53376, Note_on_c, 0, 60, 60
1, 53376, Note_on_c, 1, 44, 60
1, 53452, Note_on_c, 1, 44, 0
1, 53472, Note_on_c, 1, 46, 60
1, 53528, Note_on_c, 0, 60, 0
1, 53548, Note_on_c, 1, 46, 0
1, 53568, Note_on_c, 0, 62, 60
1, 53568, Note_on_c, 1, 44, 60
1, 53644, Note_on_c, 1, 44, 0
1, 53664, Note_on_c, 1, 46, 60
1, 53720, Note_on_c, 0, 62, 0
1, 53740, Note_on_c, 1, 46, 0
1, 53760, Note_on_c, 0, 63, 60
1, 53760, Note_on_c, 1, 43, 60
1, 53836, Note_on_c, 1, 43, 0
1, 53856, Note_on_c, 1, 39, 60
1, 53912, Note_on_c, 0, 63, 0
1, 53932, Note_on_c, 1, 39, 0
1, 53952, Note_on_c, 1, 34, 60
1, 54028, Note_on_c, 1, 34, 0
1, 54048, Note_on_c, 1, 39, 60
1, 54124, Note_on_c, 1, 39, 0
1, 54144, Note_on_c, 1, 34, 60
1, 54220, Note_on_c, 1, 34, 0
1, 54240, Note_on_c, 1, 39, 60
1, 54316, Note_on_c, 1, 39, 0
1, 54336, Note_on_c, 0, 70, 60
1, 54336, Note_on_c, 1, 32, 60
1, 54412, Note_on_c, 1, 32, 0
1, 54432, Note_on_c, 1, 34, 60
1, 54488, Note_on_c, 0, 70, 0
1, 54508, Note_on_c, 1, 34, 0
1, 54528, Note_on_c, 0, 72, 60
1, 54528, Note_on_c, 1, 32, 60
1, 54604, Note_on_c, 1, 32, 0
1, 54624, Note_on_c, 1, 34, 60
1, 54680, Note_on_c, 0, 72, 0
1, 54700, Note_on_c, 1, 34, 0
1, 54720, Note_on_c, 0, 74, 60
1, 54720, Note_on_c, 1, 32, 60
1, 54796, Note_on_c, 1, 32, 0
1, 54816, Note_on_c, 1, 34, 60
1, 54872, Note_on_c, 0, 74, 0
1, 54892, Note_on_c, 1, 34, 0
1, 54912, Note_on_c, 0, 75, 60
1, 54912, Note_on_c, 1, 31, 60
1, 55064, Note_on_c, 0, 75, 0
1, 55142, Note_on_c, 1, 31, 0
1, 55200, Note_on_c, 1, 34, 60
1, 55276, Note_on_c, 1, 34, 0
1, 55296, Note_on_c, 1, 39, 60
1, 55372, Note_on_c, 1, 39, 0
1, 55392, Note_on_c, 1, 34, 60
1, 55468, Note_on_c, 1, 34, 0
1, 55488, Note_on_c, 1, 43, 60
1, 55564, Note_on_c, 1, 43, 0
1, 55584, Note_on_c, 1, 39, 60
1, 55660, Note_on_c, 1, 39, 0
1, 55680, Note_on_c, 1, 46, 60
1, 55756, Note_on_c, 1, 46, 0
1, 55776, Note_on_c, 1, 43, 60
1, 55852, Note_on_c, 1, 43, 0
1, 55872, Note_on_c, 1, 51, 60
1, 55948, Note_on_c, 1, 51, 0
1, 55968, Note_on_c, 1, 46, 60
1, 56044, Note_on_c, 1, 46, 0
1, 56064, Note_on_c, 1, 51, 60
1, 56064, Note_on_c, 1, 41, 60
1, 56064, Note_on_c, 1, 39, 60
1, 56064, Note_on_c, 1, 45, 60
1, 56140, Note_on_c, 1, 51, 0
1, 56160, Note_on_c, 1, 48, 60
1, 56236, Note_on_c, 1, 48, 0
1, 56256, Note_on_c, 1, 57, 60
1, 56332, Note_on_c, 1, 57, 0
1, 56352, Note_on_c, 1, 51, 60
1, 56428, Note_on_c, 1, 51, 0
1, 56448, Note_on_c, 0, 60, 60
1, 56524, Note_on_c, 0, 60, 0
1, 56524, Note_on_c, 1, 41, 0
1, 56524, Note_on_c, 1, 39, 0
1, 56524, Note_on_c, 1, 45, 0
1, 56544, Note_on_c, 1, 57, 60
1, 56620, Note_on_c, 1, 57, 0
1, 56640, Note_on_c, 0, 65, 60
1, 56640, Note_on_c, 1, 53, 60
1, 56640, Note_on_c, 1, 51, 60
1, 56640, Note_on_c, 1, 57, 60
1, 56716, Note_on_c, 0, 65, 0
1, 56736, Note_on_c, 0, 60, 60
1, 56812, Note_on_c, 0, 60, 0
1, 56832, Note_on_c, 0, 69, 60
1, 56908, Note_on_c, 0, 69, 0
1, 56928, Note_on_c, 0, 65, 60
1, 57004, Note_on_c, 0, 65, 0
1, 57024, Note_on_c, 0, 72, 60
1, 57100, Note_on_c, 0, 72, 0
1, 57100, Note_on_c, 1, 57, 0
1, 57100, Note_on_c, 1, 51, 0
1, 57100, Note_on_c, 1, 53, 0
1, 57120, Note_on_c, 0, 69, 60
1, 57196, Note_on_c, 0, 69, 0
1, 57216, Note_on_c, 0, 68, 60
1, 57216, Note_on_c, 1, 53, 60
1, 57216, Note_on_c, 1, 50, 60
1, 57216, Note_on_c, 1, 59, 60
1, 57292, Note_on_c, 0, 68, 0
1, 57312, Note_on_c, 0, 65, 60
1, 57388, Note_on_c, 0, 65, 0
1, 57408, Note_on_c, 0, 71, 60
1, 57484, Note_on_c, 0, 71, 0
1, 57504, Note_on_c, 0, 68, 60
1, 57580, Note_on_c, 0, 68, 0
1, 57600, Note_on_c, 0, 74, 60
1, 57676, Note_on_c, 0, 74, 0
1, 57676, Note_on_c, 1, 59, 0
1, 57676, Note_on_c, 1, 50, 0
1, 57676, Note_on_c, 1, 53, 0
1, 57696, Note_on_c, 0, 71, 60
1, 57772, Note_on_c, 0, 71, 0
1, 57792, Note_on_c, 0, 77, 60
1, 57792, Note_on_c, 1, 56, 60
1, 57792, Note_on_c, 1, 48, 60
1, 57792, Note_on_c, 1, 50, 60
1, 57868, Note_on_c, 0, 77, 0
1, 57888, Note_on_c, 0, 74, 60
1, 57964, Note_on_c, 0, 74, 0
1, 57984, Note_on_c, 0, 80, 60
1, 58060, Note_on_c, 0, 80, 0
1, 58080, Note_on_c, 0, 77, 60
1, 58156, Note_on_c, 0, 77, 0
1, 58176, Note_on_c, 0, 86, 60
1, 58252, Note_on_c, 0, 86, 0
1, 58252, Note_on_c, 1, 50, 0
1, 58252, Note_on_c, 1, 48, 0
1, 58252, Note_on_c, 1, 56, 0
1, 58272, Note_on_c, 0, 80, 60
1, 58348, Note_on_c, 0, 80, 0
1, 58368, Note_on_c, 0, 89, 60
1, 58368, Note_on_c, 1, 55, 60
1, 58368, Note_on_c, 1, 50, 60
1, 58368, Note_on_c, 1, 47, 60
1, 58520, Note_on_c, 0, 89, 0
1, 58520, Note_on_c, 1, 47, 0
1, 58520, Note_on_c, 1, 50, 0
1, 58520, Note_on_c, 1, 55, 0
1, 59328, Note_on_c, 0, 79, 60
1, 59480, Note_on_c, 0, 79, 0
1, 59520, Note_on_c, 0, 60, 60
1, 59520, Note_on_c, 0, 63, 60
1, 59712, Note_on_c, 0, 75, 60
1, 59864, Note_on_c, 0, 75, 0
1, 59904, Note_on_c, 0, 72, 60
1, 59980, Note_on_c, 0, 63, 0
1, 59980, Note_on_c, 0, 60, 0
1, 60056, Note_on_c, 0, 72, 0
1, 60096, Note_on_c, 0, 62, 60
1, 60096, Note_on_c, 0, 65, 60
1, 60288, Note_on_c, 0, 71, 60
1, 60440, Note_on_c, 0, 71, 0
1, 60480, Note_on_c, 0, 80, 60
1, 60556, Note_on_c, 0, 65, 0
1, 60556, Note_on_c, 0, 62, 0
1, 60672, Note_on_c, 0, 62, 60
1, 60672, Note_on_c, 1, 59, 60
1, 60824, Note_on_c, 0, 80, 0
1, 60864, Note_on_c, 0, 79, 60
1, 61016, Note_on_c, 0, 79, 0
1, 61056, Note_on_c, 0, 77, 60
1, 61132, Note_on_c, 0, 62, 0
1, 61132, Note_on_c, 1, 59, 0
1, 61248, Note_on_c, 0, 60, 60
1, 61248, Note_on_c, 0, 67, 60
1, 61400, Note_on_c, 0, 77, 0
1, 61440, Note_on_c, 0, 75, 60
1, 61592, Note_on_c, 0, 75, 0
1, 61632, Note_on_c, 0, 79, 60
1, 61708, Note_on_c, 0, 60, 0
1, 61708, Note_on_c, 0, 67, 0
1, 61824, Note_on_c, 0, 67, 60
1, 61824, Note_on_c, 0, 63, 60
1, 61976, Note_on_c, 0, 79, 0
1, 62016, Note_on_c, 0, 84, 60
1, 62130, Note_on_c, 0, 67, 0
1, 62130, Note_on_c, 0, 63, 0
1, 62168, Note_on_c, 0, 84, 0
1, 62208, Note_on_c, 0, 82, 60
1, 62208, Note_on_c, 0, 64, 60
1, 62360, Note_on_c, 0, 64, 0
1, 62400, Note_on_c, 0, 68, 60
1, 62400, Note_on_c, 0, 65, 60
1, 62552, Note_on_c, 0, 82, 0
1, 62592, Note_on_c, 0, 80, 60
1, 62706, Note_on_c, 0, 68, 0
1, 62706, Note_on_c, 0, 65, 0
1, 62744, Note_on_c, 0, 80, 0
1, 62784, Note_on_c, 0, 79, 60
1, 62784, Note_on_c, 0, 67, 60
1, 62784, Note_on_c, 0, 70, 60
1, 62936, Note_on_c, 0, 70, 0
1, 62936, Note_on_c, 0, 67, 0
1, 62976, Note_on_c, 0, 72, 60
1, 62976, Note_on_c, 0, 68, 60
1, 63128, Note_on_c, 0, 79, 0
1, 63168, Note_on_c, 0, 77, 60
1, 63282, Note_on_c, 0, 72, 0
1, 63282, Note_on_c, 0, 68, 0
1, 63320, Note_on_c, 0, 77, 0
1, 63360, Note_on_c, 0, 78, 60
1, 63360, Note_on_c, 0, 69, 60
1, 63512, Note_on_c, 0, 69, 0
1, 63552, Note_on_c, 0, 67, 60
1, 63552, Note_on_c, 0, 72, 60
1, 63704, Note_on_c, 0, 72, 0
1, 63704, Note_on_c, 0, 78, 0
1, 63704, Note_on_c, 0, 67, 0
1, 63744, Note_on_c, 0, 79, 60
1, 63744, Note_on_c, 0, 71, 60
1, 63896, Note_on_c, 0, 71, 0
1, 63896, Note_on_c, 0, 79, 0
1, 63936, Note_on_c, 0, 67, 60
1, 64128, Note_on_c, 1, 51, 60
1, 64128, Note_on_c, 1, 48, 60
1, 64280, Note_on_c, 0, 67, 0
1, 64320, Note_on_c, 0, 63, 60
1, 64472, Note_on_c, 0, 63, 0
1, 64512, Note_on_c, 0, 60, 60
1, 64588, Note_on_c, 1, 48, 0
1, 64588, Note_on_c, 1, 51, 0
1, 64704, Note_on_c, 1, 53, 60
1, 64704, Note_on_c, 1, 50, 60
1, 64856, Note_on_c, 0, 60, 0
1, 64896, Note_on_c, 1, 59, 60
1, 65048, Note_on_c, 1, 59, 0
1, 65088, Note_on_c, 0, 68, 60
1, 65164, Note_on_c, 1, 50, 0
1, 65164, Note_on_c, 1, 53, 0
1, 65280, Note_on_c, 1, 47, 60
1, 65280, Note_on_c, 1, 50, 60
1, 65432, Note_on_c, 0, 68, 0
1, 65472, Note_on_c, 0, 67, 60
1, 65624, Note_on_c, 0, 67, 0
1, 65664, Note_on_c, 0, 65, 60
1, 65740, Note_on_c, 1, 50, 0
1, 65740, Note_on_c, 1, 47, 0
1, 65856, Note_on_c, 1, 46, 60
1, 65856, Note_on_c, 1, 49, 60
1, 66008, Note_on_c, 0, 65, 0
1, 66048, Note_on_c, 0, 64, 60
1, 66200, Note_on_c, 0, 64, 0
1, 66240, Note_on_c, 0, 73, 60
1, 66316, Note_on_c, 1, 49, 0
1, 66316, Note_on_c, 1, 46, 0
1, 66432, Note_on_c, 1, 52, 60
1, 66432, Note_on_c, 1, 55, 60
1, 66584, Note_on_c, 0, 73, 0
1, 66624, Note_on_c, 0, 72, 60
1, 66738, Note_on_c, 1, 55, 0
1, 66738, Note_on_c, 1, 52, 0
1, 66776, Note_on_c, 0, 72, 0
1, 66816, Note_on_c, 0, 60, 60
1, 66816, Note_on_c, 0, 70, 60
1, 66968, Note_on_c, 0, 70, 0
1, 67008, Note_on_c, 0, 68, 60
1, 67008, Note_on_c, 1, 53, 60
1, 67160, Note_on_c, 0, 60, 0
1, 67160, Note_on_c, 0, 68, 0
1, 67160, Note_on_c, 1, 53, 0
1, 67200, Note_on_c, 0, 67, 60
1, 67200, Note_on_c, 1, 55, 60
1, 67352, Note_on_c, 0, 67, 0
1, 67352, Note_on_c, 1, 55, 0
1, 67392, Note_on_c, 0, 66, 60
1, 67392, Note_on_c, 1, 56, 60
1, 67544, Note_on_c, 0, 66, 0
1, 67544, Note_on_c, 1, 56, 0
1, 67584, Note_on_c, 0, 67, 60
1, 67584, Note_on_c, 0, 63, 60
1, 67584, Note_on_c, 1, 55, 60
1, 67736, Note_on_c, 0, 63, 0
1, 67736, Note_on_c, 0, 67, 0
1, 67736, Note_on_c, 1, 55, 0
1, 67776, Note_on_c, 0, 63, 60
1, 67776, Note_on_c, 0, 60, 60
1, 67928, Note_on_c, 0, 60, 0
1, 67928, Note_on_c, 0, 63, 0
1, 67968, Note_on_c, 0, 62, 60
1, 67968, Note_on_c, 1, 59, 60
1, 67968, Note_on_c, 1, 53, 60
1, 67968, Note_on_c, 1, 43, 60
1, 68120, Note_on_c, 0, 62, 0
1, 68120, Note_on_c, 1, 43, 0
1, 68120, Note_on_c, 1, 53, 0
1, 68120, Note_on_c, 1, 59, 0
1, 68160, Note_on_c, 0, 60, 60
1, 68160, Note_on_c, 1, 51, 60
1, 68160, Note_on_c, 1, 48, 60
1, 68312, Note_on_c, 0, 60, 0
1, 68312, Note_on_c, 1, 48, 0
1, 68312, Note_on_c, 1, 51, 0
1, 68532, Note_on_c, 0, 77, 100
1, 68544, Note_on_c, 0, 77, 0
1, 68544, Note_on_c, 0, 75, 100
1, 68620, Note_on_c, 0, 75, 0
1, 68640, Note_on_c, 0, 74, 100
1, 68678, Note_on_c, 0, 74, 0
1, 68688, Note_on_c, 0, 72, 100
1, 68726, Note_on_c, 0, 72, 0
1, 68736, Note_on_c, 0, 79, 100
1, 68736, Note_on_c, 0, 62, 100
1, 68736, Note_on_c, 1, 59, 100
1, 68812, Note_on_c, 0, 62, 0
1, 68812, Note_on_c, 1, 59, 0
1, 68832, Note_on_c, 1, 55, 100
1, 68888, Note_on_c, 0, 79, 0
1, 68908, Note_on_c, 1, 55, 0
1, 68928, Note_on_c, 0, 67, 100
1, 68928, Note_on_c, 0, 63, 100
1, 68928, Note_on_c, 0, 60, 100
1, 68928, Note_on_c, 0, 79, 100
1, 69004, Note_on_c, 0, 60, 0
1, 69004, Note_on_c, 0, 63, 0
1, 69024, Note_on_c, 1, 55, 100
1, 69080, Note_on_c, 0, 67, 0
1, 69080, Note_on_c, 0, 79, 0
1, 69100, Note_on_c, 1, 55, 0
1, 69120, Note_on_c, 0, 62, 100
1, 69120, Note_on_c, 0, 65, 100
1, 69120, Note_on_c, 0, 79, 100
1, 69120, Note_on_c, 0, 67, 100
1, 69196, Note_on_c, 0, 65, 0
1, 69196, Note_on_c, 0, 62, 0
1, 69216, Note_on_c, 1, 55, 100
1, 69272, Note_on_c, 0, 79, 0
1, 69272, Note_on_c, 0, 67, 0
1, 69292, Note_on_c, 1, 55, 0
1, 69312, Note_on_c, 0, 60, 100
1, 69312, Note_on_c, 0, 67, 100
1, 69312, Note_on_c, 0, 79, 100
1, 69312, Note_on_c, 0, 63, 100
1, 69388, Note_on_c, 0, 63, 0
1, 69388, Note_on_c, 0, 60, 0
1, 69408, Note_on_c, 1, 55, 100
1, 69484, Note_on_c, 1, 55, 0
1, 69504, Note_on_c, 0, 63, 100
1, 69504, Note_on_c, 0, 60, 100
1, 69580, Note_on_c, 0, 60, 0
1, 69580, Note_on_c, 0, 63, 0
1, 69600, Note_on_c, 1, 55, 100
1, 69618, Note_on_c, 0, 67, 0
1, 69618, Note_on_c, 0, 79, 0
1, 69676, Note_on_c, 1, 55, 0
1, 69684, Note_on_c, 0, 77, 100
1, 69696, Note_on_c, 0, 77, 0
1, 69696, Note_on_c, 0, 75, 100
1, 69696, Note_on_c, 0, 60, 100
1, 69696, Note_on_c, 0, 63, 100
1, 69772, Note_on_c, 0, 63, 0
1, 69772, Note_on_c, 0, 60, 0
1, 69772, Note_on_c, 0, 75, 0
1, 69792, Note_on_c, 0, 74, 100
1, 69792, Note_on_c, 1, 55, 100
1, 69830, Note_on_c, 0, 74, 0
1, 69840, Note_on_c, 0, 72, 100
1, 69868, Note_on_c, 1, 55, 0
1, 69878, Note_on_c, 0, 72, 0
1, 69888, Note_on_c, 0, 79, 100
1, 69888, Note_on_c, 0, 62, 100
1, 69888, Note_on_c, 1, 59, 100
1, 69964, Note_on_c, 0, 62, 0
1, 69964, Note_on_c, 1, 59, 0
1, 69984, Note_on_c, 1, 55, 100
1, 70040, Note_on_c, 0, 79, 0
1, 70060, Note_on_c, 1, 55, 0
1, 70080, Note_on_c, 0, 67, 100
1, 70080, Note_on_c, 0, 60, 100
1, 70080, Note_on_c, 0, 63, 100
1, 70080, Note_on_c, 0, 79, 100
1, 70156, Note_on_c, 0, 63, 0
1, 70156, Note_on_c, 0, 60, 0
1, 70176, Note_on_c, 1, 55, 100
1, 70232, Note_on_c, 0, 67, 0
1, 70232, Note_on_c, 0, 79, 0
1, 70252, Note_on_c, 1, 55, 0
1, 70272, Note_on_c, 0, 62, 100
1, 70272, Note_on_c, 0, 65, 100
1, 70272, Note_on_c, 0, 79, 100
1, 70272, Note_on_c, 0, 67, 100
1, 70348, Note_on_c, 0, 65, 0
1, 70348, Note_on_c, 0, 62, 0
1, 70368, Note_on_c, 1, 55, 100
1, 70424, Note_on_c, 0, 79, 0
1, 70424, Note_on_c, 0, 67, 0
1, 70444, Note_on_c, 1, 55, 0
1, 70464, Note_on_c, 0, 60, 100
1, 70464, Note_on_c, 0, 67, 100
1, 70464, Note_on_c, 0, 79, 100
1, 70464, Note_on_c, 0, 63, 100
1, 70540, Note_on_c, 0, 63, 0
1, 70540, Note_on_c, 0, 60, 0
1, 70560, Note_on_c, 1, 55, 100
1, 70636, Note_on_c, 1, 55, 0
1, 70656, Note_on_c, 0, 63, 100
1, 70656, Note_on_c, 0, 60, 100
1, 70732, Note_on_c, 0, 60, 0
1, 70732, Note_on_c, 0, 63, 0
1, 70752, Note_on_c, 1, 55, 100
1, 70770, Note_on_c, 0, 67, 0
1, 70770, Note_on_c, 0, 79, 0
1, 70828, Note_on_c, 1, 55, 0
1, 70836, Note_on_c, 0, 77, 100
1, 70848, Note_on_c, 0, 77, 0
1, 70848, Note_on_c, 0, 75, 100
1, 70848, Note_on_c, 0, 60, 100
1, 70848, Note_on_c, 0, 63, 100
1, 70924, Note_on_c, 0, 63, 0
1, 70924, Note_on_c, 0, 60, 0
1, 70924, Note_on_c, 0, 75, 0
1, 70944, Note_on_c, 0, 74, 100
1, 70944, Note_on_c, 1, 55, 100
1, 70982, Note_on_c, 0, 74, 0
1, 70992, Note_on_c, 0, 72, 100
1, 71020, Note_on_c, 1, 55, 0
1, 71030, Note_on_c, 0, 72, 0
1, 71040, Note_on_c, 0, 80, 100
1, 71040, Note_on_c, 0, 74, 100
1, 71040, Note_on_c, 0, 71, 100
1, 71192, Note_on_c, 0, 71, 0
1, 71192, Note_on_c, 0, 74, 0
1, 71192, Note_on_c, 0, 80, 0
1, 71232, Note_on_c, 1, 41, 100
1, 71232, Note_on_c, 1, 53, 100
1, 71384, Note_on_c, 1, 53, 0
1, 71384, Note_on_c, 1, 41, 0
1, 71424, Note_on_c, 0, 65, 100
1, 71424, Note_on_c, 1, 53, 100
1, 71576, Note_on_c, 0, 65, 0
1, 71576, Note_on_c, 1, 53, 0
1, 71616, Note_on_c, 0, 72, 100
1, 71616, Note_on_c, 0, 75, 100
1, 71616, Note_on_c, 0, 79, 100
1, 71768, Note_on_c, 0, 79, 0
1, 71768, Note_on_c, 0, 75, 0
1, 71768, Note_on_c, 0, 72, 0
1, 71808, Note_on_c, 1, 51, 100
1, 71808, Note_on_c, 1, 39, 100
1, 71960, Note_on_c, 1, 39, 0
1, 71960, Note_on_c, 1, 51, 0
1, 72000, Note_on_c, 0, 63, 100
1, 72000, Note_on_c, 1, 51, 100
1, 72152, Note_on_c, 0, 63, 0
1, 72152, Note_on_c, 1, 51, 0
1, 72192, Note_on_c, 0, 62, 100
1, 72192, Note_on_c, 1, 50, 100
1, 72344, Note_on_c, 0, 62, 0
1, 72344, Note_on_c, 1, 50, 0
1, 72384, Note_on_c, 0, 83, 100
1, 72384, Note_on_c, 0, 77, 100
1, 72384, Note_on_c, 0, 74, 100
1, 72536, Note_on_c, 0, 74, 0
1, 72536, Note_on_c, 0, 77, 0
1, 72536, Note_on_c, 0, 83, 0
1, 72576, Note_on_c, 0, 86, 100
1, 72576, Note_on_c, 0, 83, 100
1, 72576, Note_on_c, 0, 77, 100
1, 72728, Note_on_c, 0, 77, 0
1, 72728, Note_on_c, 0, 83, 0
1, 72728, Note_on_c, 0, 86, 0
1, 72768, Note_on_c, 0, 79, 100
1, 72768, Note_on_c, 0, 86, 100
1, 72768, Note_on_c, 0, 89, 100
1, 72768, Note_on_c, 1, 59, 100
1, 72768, Note_on_c, 1, 47, 100
1, 72920, Note_on_c, 0, 89, 0
1, 72920, Note_on_c, 0, 86, 0
1, 72920, Note_on_c, 0, 79, 0
1, 72920, Note_on_c, 1, 47, 0
1, 72920, Note_on_c, 1, 59, 0
1, 73920, Note_on_c, 0, 75, 60
1, 74380, Note_on_c, 0, 75, 0
1, 74496, Note_on_c, 0, 66, 60
1, 74496, Note_on_c, 0, 60, 60
1, 74496, Note_on_c, 0, 63, 60
1, 74956, Note_on_c, 0, 63, 0
1, 74956, Note_on_c, 0, 60, 0
1, 74956, Note_on_c, 0, 66, 0
1, 75072, Note_on_c, 0, 67, 60
1, 75072, Note_on_c, 0, 62, 60
1, 75072, Note_on_c, 0, 65, 60
1, 75072, Note_on_c, 1, 59, 60
1, 75302, Note_on_c, 0, 67, 0
1, 75360, Note_on_c, 0, 68, 60
1, 75378, Note_on_c, 0, 62, 0
1, 75378, Note_on_c, 0, 65, 0
1, 75378, Note_on_c, 1, 59, 0
1, 75436, Note_on_c, 0, 68, 0
1, 75456, Note_on_c, 0, 67, 73
1, 75456, Note_on_c, 0, 60, 70
1, 75456, Note_on_c, 0, 63, 77
1, 75608, Note_on_c, 0, 63, 0
1, 75608, Note_on_c, 0, 60, 0
1, 75608, Note_on_c, 0, 67, 0
1, 75648, Note_on_c, 1, 53, 80
1, 75660, Note_on_c, 0, 62, 80
1, 75660, Note_on_c, 0, 65, 80
1, 75800, Note_on_c, 1, 53, 0
1, 75812, Note_on_c, 0, 65, 0
1, 75812, Note_on_c, 0, 62, 0
1, 75840, Note_on_c, 1, 55, 80
1, 75852, Note_on_c, 0, 63, 80
1, 75852, Note_on_c, 0, 60, 80
1, 75992, Note_on_c, 1, 55, 0
1, 76004, Note_on_c, 0, 60, 0
1, 76004, Note_on_c, 0, 63, 0
1, 76032, Note_on_c, 1, 43, 80
1, 76044, Note_on_c, 0, 62, 80
1, 76044, Note_on_c, 1, 59, 80
1, 76184, Note_on_c, 1, 43, 0
1, 76196, Note_on_c, 0, 62, 0
1, 76196, Note_on_c, 1, 59, 0
1, 76224, Note_on_c, 0, 60, 80
1, 76224, Note_on_c, 1, 48, 80
1, 76376, Note_on_c, 0, 60, 0
1, 76376, Note_on_c, 1, 48, 0
1, 76596, Note_on_c, 0, 77, 100
1, 76608, Note_on_c, 0, 77, 0
1, 76608, Note_on_c, 0, 75, 100
1, 76684, Note_on_c, 0, 75, 0
1, 76704, Note_on_c, 0, 74, 100
1, 76742, Note_on_c, 0, 74, 0
1, 76752, Note_on_c, 0, 72, 100
1, 76790, Note_on_c, 0, 72, 0
1, 76800, Note_on_c, 0, 79, 100
1, 76800, Note_on_c, 0, 62, 100
1, 76800, Note_on_c, 1, 59, 100
1, 76876, Note_on_c, 0, 62, 0
1, 76876, Note_on_c, 1, 59, 0
1, 76896, Note_on_c, 1, 55, 100
1, 76952, Note_on_c, 0, 79, 0
1, 76972, Note_on_c, 1, 55, 0
1, 76992, Note_on_c, 0, 79, 100
1, 76992, Note_on_c, 0, 60, 100
1, 76992, Note_on_c, 0, 63, 100
1, 77068, Note_on_c, 0, 63, 0
1, 77068, Note_on_c, 0, 60, 0
1, 77088, Note_on_c, 1, 55, 100
1, 77144, Note_on_c, 0, 79, 0
1, 77164, Note_on_c, 1, 55, 0
1, 77184, Note_on_c, 0, 62, 100
1, 77184, Note_on_c, 0, 65, 100
1, 77184, Note_on_c, 0, 79, 100
1, 77260, Note_on_c, 0, 65, 0
1, 77260, Note_on_c, 0, 62, 0
1, 77280, Note_on_c, 1, 55, 100
1, 77336, Note_on_c, 0, 79, 0
1, 77356, Note_on_c, 1, 55, 0
1, 77376, Note_on_c, 0, 63, 100
1, 77376, Note_on_c, 0, 79, 100
1, 77376, Note_on_c, 0, 60, 100
1, 77452, Note_on_c, 0, 60, 0
1, 77452, Note_on_c, 0, 63, 0
1, 77472, Note_on_c, 1, 55, 100
1, 77548, Note_on_c, 1, 55, 0
1, 77568, Note_on_c, 0, 63, 100
1, 77568, Note_on_c, 0, 60, 100
1, 77644, Note_on_c, 0, 60, 0
1, 77644, Note_on_c, 0, 63, 0
1, 77664, Note_on_c, 1, 55, 100
1, 77682, Note_on_c, 0, 79, 0
1, 77740, Note_on_c, 1, 55, 0
1, 77748, Note_on_c, 0, 77, 100
1, 77760, Note_on_c, 0, 77, 0
1, 77760, Note_on_c, 0, 75, 100
1, 77760, Note_on_c, 0, 60, 100
1, 77760, Note_on_c, 0, 63, 100
1, 77836, Note_on_c, 0, 63, 0
1, 77836, Note_on_c, 0, 60, 0
1, 77836, Note_on_c, 0, 75, 0
1, 77856, Note_on_c, 0, 74, 100
1, 77856, Note_on_c, 1, 55, 100
1, 77894, Note_on_c, 0, 74, 0
1, 77904, Note_on_c, 0, 72, 100
1, 77932, Note_on_c, 1, 55, 0
1, 77942, Note_on_c, 0, 72, 0
1, 77952, Note_on_c, 0, 79, 100
1, 77952, Note_on_c, 0, 62, 100
1, 77952, Note_on_c, 1, 59, 100
1, 78028, Note_on_c, 0, 62, 0
1, 78028, Note_on_c, 1, 59, 0
1, 78048, Note_on_c, 1, 55, 100
1, 78104, Note_on_c, 0, 79, 0
1, 78124, Note_on_c, 1, 55, 0
1, 78144, Note_on_c, 0, 79, 100
1, 78144, Note_on_c, 0, 60, 100
1, 78144, Note_on_c, 0, 63, 100
1, 78220, Note_on_c, 0, 63, 0
1, 78220, Note_on_c, 0, 60, 0
1, 78240, Note_on_c, 1, 55, 100
1, 78296, Note_on_c, 0, 79, 0
1, 78316, Note_on_c, 1, 55, 0
1, 78336, Note_on_c, 0, 62, 100
1, 78336, Note_on_c, 0, 65, 100
1, 78336, Note_on_c, 0, 79, 100
1, 78412, Note_on_c, 0, 65, 0
1, 78412, Note_on_c, 0, 62, 0
1, 78432, Note_on_c, 1, 55, 100
1, 78488, Note_on_c, 0, 79, 0
1, 78508, Note_on_c, 1, 55, 0
1, 78528, Note_on_c, 0, 63, 100
1, 78528, Note_on_c, 0, 79, 100
1, 78528, Note_on_c, 0, 60, 100
1, 78604, Note_on_c, 0, 60, 0
1, 78604, Note_on_c, 0, 63, 0
1, 78624, Note_on_c, 1, 55, 100
1, 78700, Note_on_c, 1, 55, 0
1, 78720, Note_on_c, 0, 63, 100
1, 78720, Note_on_c, 0, 60, 100
1, 78796, Note_on_c, 0, 60, 0
1, 78796, Note_on_c, 0, 63, 0
1, 78816, Note_on_c, 1, 55, 100
1, 78834, Note_on_c, 0, 79, 0
1, 78892, Note_on_c, 1, 55, 0
1, 78900, Note_on_c, 0, 77, 100
1, 78912, Note_on_c, 0, 77, 0
1, 78912, Note_on_c, 0, 75, 100
1, 78912, Note_on_c, 0, 60, 100
1, 78912, Note_on_c, 0, 63, 100
1, 78988, Note_on_c, 0, 63, 0
1, 78988, Note_on_c, 0, 60, 0
1, 78988, Note_on_c, 0, 75, 0
1, 79008, Note_on_c, 0, 74, 100
1, 79008, Note_on_c, 1, 55, 100
1, 79046, Note_on_c, 0, 74, 0
1, 79056, Note_on_c, 0, 72, 100
1, 79084, Note_on_c, 1, 55, 0
1, 79094, Note_on_c, 0, 72, 0
1, 79104, Note_on_c, 0, 80, 100
1, 79104, Note_on_c, 0, 74, 100
1, 79104, Note_on_c, 0, 71, 100
1, 79256, Note_on_c, 0, 71, 0
1, 79256, Note_on_c, 0, 74, 0
1, 79256, Note_on_c, 0, 80, 0
1, 79296, Note_on_c, 1, 53, 100
1, 79296, Note_on_c, 1, 41, 100
1, 79448, Note_on_c, 1, 41, 0
1, 79448, Note_on_c, 1, 53, 0
1, 79488, Note_on_c, 0, 65, 100
1, 79488, Note_on_c, 1, 53, 100
1, 79640, Note_on_c, 0, 65, 0
1, 79640, Note_on_c, 1, 53, 0
1, 79680, Note_on_c, 0, 79, 100
1, 79680, Note_on_c, 0, 75, 100
1, 79680, Note_on_c, 0, 72, 100
1, 79832, Note_on_c, 0, 72, 0
1, 79832, Note_on_c, 0, 75, 0
1, 79832, Note_on_c, 0, 79, 0
1, 79872, Note_on_c, 1, 51, 100
1, 79872, Note_on_c, 1, 39, 100
1, 80024, Note_on_c, 1, 39, 0
1, 80024, Note_on_c, 1, 51, 0
1, 80064, Note_on_c, 0, 63, 100
1, 80064, Note_on_c, 1, 51, 100
1, 80216, Note_on_c, 0, 63, 0
1, 80216, Note_on_c, 1, 51, 0
1, 80256, Note_on_c, 0, 62, 100
1, 80256, Note_on_c, 1, 50, 100
1, 80408, Note_on_c, 0, 62, 0
1, 80408, Note_on_c, 1, 50, 0
1, 80448, Note_on_c, 0, 83, 100
1, 80448, Note_on_c, 0, 77, 100
1, 80448, Note_on_c, 0, 74, 100
1, 80600, Note_on_c, 0, 74, 0
1, 80600, Note_on_c, 0, 77, 0
1, 80600, Note_on_c, 0, 83, 0
1, 80640, Note_on_c, 0, 86, 100
1, 80640, Note_on_c, 0, 83, 100
1, 80640, Note_on_c, 0, 77, 100
1, 80792, Note_on_c, 0, 77, 0
1, 80792, Note_on_c, 0, 83, 0
1, 80792, Note_on_c, 0, 86, 0
1, 80832, Note_on_c, 0, 89, 100
1, 80832, Note_on_c, 0, 86, 100
1, 80832, Note_on_c, 0, 79, 100
1, 80832, Note_on_c, 1, 59, 100
1, 80832, Note_on_c, 1, 47, 100
1, 80984, Note_on_c, 0, 79, 0
1, 80984, Note_on_c, 0, 86, 0
1, 80984, Note_on_c, 0, 89, 0
1, 80984, Note_on_c, 1, 47, 0
1, 80984, Note_on_c, 1, 59, 0
1, 81984, Note_on_c, 0, 61, 100
1, 81984, Note_on_c, 1, 49, 100
1, 82136, Note_on_c, 0, 61, 0
1, 82136, Note_on_c, 1, 49, 0
1, 82176, Note_on_c, 0, 76, 100
1, 82176, Note_on_c, 0, 70, 100
1, 82176, Note_on_c, 0, 67, 100
1, 82176, Note_on_c, 1, 58, 100
1, 82176, Note_on_c, 1, 46, 100
1, 82328, Note_on_c, 0, 67, 0
1, 82328, Note_on_c, 0, 70, 0
1, 82328, Note_on_c, 0, 76, 0
1, 82328, Note_on_c, 1, 46, 0
1, 82328, Note_on_c, 1, 58, 0
1, 82368, Note_on_c, 0, 79, 100
1, 82368, Note_on_c, 0, 76, 100
1, 82368, Note_on_c, 0, 70, 100
1, 82368, Note_on_c, 1, 55, 100
1, 82368, Note_on_c, 1, 43, 100
1, 82520, Note_on_c, 0, 70, 0
1, 82520, Note_on_c, 0, 76, 0
1, 82520, Note_on_c, 0, 79, 0
1, 82520, Note_on_c, 1, 43, 0
1, 82520, Note_on_c, 1, 55, 0
1, 82560, Note_on_c, 0, 73, 100
1, 82560, Note_on_c, 0, 79, 100
1, 82560, Note_on_c, 0, 82, 100
1, 82560, Note_on_c, 1, 52, 100
1, 82560, Note_on_c, 1, 40, 100
1, 82712, Note_on_c, 0, 82, 0
1, 82712, Note_on_c, 0, 79, 0
1, 82712, Note_on_c, 0, 73, 0
1, 82712, Note_on_c, 1, 40, 0
1, 82712, Note_on_c, 1, 52, 0
1, 83712, Note_on_c, 1, 53, 60
1, 83864, Note_on_c, 1, 53, 0
1, 83904, Note_on_c, 1, 56, 60
1, 84056, Note_on_c, 1, 56, 0
1, 84096, Note_on_c, 0, 60, 60
1, 84248, Note_on_c, 0, 60, 0
1, 84288, Note_on_c, 1, 52, 60
1, 84440, Note_on_c, 1, 52, 0
1, 84480, Note_on_c, 1, 55, 60
1, 84632, Note_on_c, 1, 55, 0
1, 84672, Note_on_c, 1, 58, 60
1, 84824, Note_on_c, 1, 58, 0
1, 84864, Note_on_c, 0, 72, 60
1, 84864, Note_on_c, 1, 53, 60
1, 85016, Note_on_c, 0, 72, 0
1, 85016, Note_on_c, 1, 53, 0
1, 85056, Note_on_c, 1, 56, 60
1, 85208, Note_on_c, 1, 56, 0
1, 85248, Note_on_c, 0, 60, 60
1, 85400, Note_on_c, 0, 60, 0
1, 85440, Note_on_c, 0, 72, 60
1, 85440, Note_on_c, 1, 52, 60
1, 85592, Note_on_c, 0, 72, 0
1, 85592, Note_on_c, 1, 52, 0
1, 85632, Note_on_c, 1, 55, 60
1, 85784, Note_on_c, 1, 55, 0
1, 85824, Note_on_c, 1, 58, 60
1, 85920, Note_on_c, 0, 72, 60
1, 85976, Note_on_c, 1, 58, 0
1, 85996, Note_on_c, 0, 72, 0
1, 86016, Note_on_c, 0, 73, 60
1, 86016, Note_on_c, 1, 53, 60
1, 86168, Note_on_c, 1, 53, 0
1, 86208, Note_on_c, 1, 56, 60
1, 86322, Note_on_c, 0, 73, 0
1, 86360, Note_on_c, 1, 56, 0
1, 86400, Note_on_c, 0, 72, 60
1, 86400, Note_on_c, 0, 60, 60
1, 86552, Note_on_c, 0, 60, 0
1, 86552, Note_on_c, 0, 72, 0
1, 86592, Note_on_c, 1, 52, 60
1, 86744, Note_on_c, 1, 52, 0
1, 86784, Note_on_c, 1, 55, 60
1, 86936, Note_on_c, 1, 55, 0
1, 86976, Note_on_c, 1, 58, 60
1, 87072, Note_on_c, 0, 84, 60
1, 87128, Note_on_c, 1, 58, 0
1, 87148, Note_on_c, 0, 84, 0
1, 87168, Note_on_c, 0, 85, 60
1, 87168, Note_on_c, 1, 53, 60
1, 87320, Note_on_c, 1, 53, 0
1, 87360, Note_on_c, 1, 56, 60
1, 87474, Note_on_c, 0, 85, 0
1, 87512, Note_on_c, 1, 56, 0
1, 87552, Note_on_c, 0, 84, 60
1, 87552, Note_on_c, 0, 60, 60
1, 87704, Note_on_c, 0, 60, 0
1, 87704, Note_on_c, 0, 84, 0
1, 87744, Note_on_c, 1, 51, 60
1, 87896, Note_on_c, 1, 51, 0
1, 87936, Note_on_c, 1, 55, 60
1, 88088, Note_on_c, 1, 55, 0
1, 88128, Note_on_c, 0, 60, 60
1, 88280, Note_on_c, 0, 60, 0
1, 88320, Note_on_c, 0, 62, 100
1, 88320, Note_on_c, 1, 50, 100
1, 88472, Note_on_c, 0, 62, 0
1, 88472, Note_on_c, 1, 50, 0
1, 88512, Note_on_c, 0, 78, 100
1, 88512, Note_on_c, 0, 72, 100
1, 88512, Note_on_c, 0, 69, 100
1, 88512, Note_on_c, 0, 60, 100
1, 88512, Note_on_c, 1, 48, 100
1, 88664, Note_on_c, 0, 60, 0
1, 88664, Note_on_c, 0, 69, 0
1, 88664, Note_on_c, 0, 72, 0
1, 88664, Note_on_c, 0, 78, 0
1, 88664, Note_on_c, 1, 48, 0
1, 88704, Note_on_c, 0, 81, 100
1, 88704, Note_on_c, 0, 78, 100
1, 88704, Note_on_c, 0, 72, 100
1, 88704, Note_on_c, 1, 57, 100
1, 88704, Note_on_c, 1, 45, 100
1, 88856, Note_on_c, 0, 72, 0
1, 88856, Note_on_c, 0, 78, 0
1, 88856, Note_on_c, 0, 81, 0
1, 88856, Note_on_c, 1, 45, 0
1, 88856, Note_on_c, 1, 57, 0
1, 88896, Note_on_c, 0, 84, 100
1, 88896, Note_on_c, 0, 81, 100
1, 88896, Note_on_c, 0, 75, 100
1, 88896, Note_on_c, 1, 54, 100
1, 88896, Note_on_c, 1, 42, 100
1, 89048, Note_on_c, 0, 75, 0
1, 89048, Note_on_c, 0, 81, 0
1, 89048, Note_on_c, 0, 84, 0
1, 89048, Note_on_c, 1, 42, 0
1, 89048, Note_on_c, 1, 54, 0
1, 90048, Note_on_c, 1, 55, 60
1, 90200, Note_on_c, 1, 55, 0
1, 90240, Note_on_c, 1, 58, 60
1, 90392, Note_on_c, 1, 58, 0
1, 90432, Note_on_c, 0, 62, 60
1, 90584, Note_on_c, 0, 62, 0
1, 90624, Note_on_c, 1, 54, 60
1, 90776, Note_on_c, 1, 54, 0
1, 90816, Note_on_c, 1, 57, 60
1, 90968, Note_on_c, 1, 57, 0
1, 91008, Note_on_c, 0, 60, 60
1, 91160, Note_on_c, 0, 60, 0
1, 91200, Note_on_c, 0, 74, 60
1, 91200, Note_on_c, 1, 55, 60
1, 91352, Note_on_c, 0, 74, 0
1, 91352, Note_on_c, 1, 55, 0
1, 91392, Note_on_c, 1, 58, 60
1, 91544, Note_on_c, 1, 58, 0
1, 91584, Note_on_c, 0, 62, 60
1, 91736, Note_on_c, 0, 62, 0
1, 91776, Note_on_c, 0, 74, 60
1, 91776, Note_on_c, 1, 54, 60
1, 91928, Note_on_c, 0, 74, 0
1, 91928, Note_on_c, 1, 54, 0
1, 91968, Note_on_c, 1, 57, 60
1, 92120, Note_on_c, 1, 57, 0
1, 92160, Note_on_c, 0, 60, 60
1, 92256, Note_on_c, 0, 74, 60
1, 92312, Note_on_c, 0, 60, 0
1, 92332, Note_on_c, 0, 74, 0
1, 92352, Note_on_c, 0, 75, 60
1, 92352, Note_on_c, 1, 55, 60
1, 92504, Note_on_c, 1, 55, 0
1, 92544, Note_on_c, 1, 58, 60
1, 92658, Note_on_c, 0, 75, 0
1, 92696, Note_on_c, 1, 58, 0
1, 92736, Note_on_c, 0, 74, 60
1, 92736, Note_on_c, 0, 62, 60
1, 92888, Note_on_c, 0, 62, 0
1, 92888, Note_on_c, 0, 74, 0
1, 92928, Note_on_c, 1, 54, 60
1, 93080, Note_on_c, 1, 54, 0
1, 93120, Note_on_c, 1, 57, 67
1, 93272, Note_on_c, 1, 57, 0
1, 93312, Note_on_c, 0, 60, 74
1, 93408, Note_on_c, 0, 86, 74
1, 93464, Note_on_c, 0, 60, 0
1, 93484, Note_on_c, 0, 86, 0
1, 93504, Note_on_c, 0, 87, 80
1, 93504, Note_on_c, 1, 55, 80
1, 93656, Note_on_c, 1, 55, 0
1, 93696, Note_on_c, 1, 58, 87
1, 93810, Note_on_c, 0, 87, 0
1, 93848, Note_on_c, 1, 58, 0
1, 93888, Note_on_c, 0, 86, 94
1, 93888, Note_on_c, 0, 62, 94
1, 94040, Note_on_c, 0, 62, 0
1, 94040, Note_on_c, 0, 86, 0
1, 94080, Note_on_c, 1, 55, 100
1, 94232, Note_on_c, 1, 55, 0
1, 94272, Note_on_c, 1, 59, 107
1, 94424, Note_on_c, 1, 59, 0
1, 94464, Note_on_c, 0, 62, 114
1, 94560, Note_on_c, 0, 79, 114
1, 94560, Note_on_c, 0, 67, 114
1, 94616, Note_on_c, 0, 62, 0
1, 94636, Note_on_c, 0, 79, 0
1, 94636, Note_on_c, 0, 67, 0
1, 94656, Note_on_c, 0, 68, 120
1, 94656, Note_on_c, 0, 80, 120
1, 94656, Note_on_c, 0, 65, 60
1, 94656, Note_on_c, 0, 62, 60
1, 94656, Note_on_c, 1, 59, 60
1, 95116, Note_on_c, 0, 80, 0
1, 95116, Note_on_c, 0, 68, 0
1, 95232, Note_on_c, 0, 79, 60
1, 95232, Note_on_c, 0, 67, 60
1, 95384, Note_on_c, 0, 67, 0
1, 95384, Note_on_c, 0, 79, 0
1, 95692, Note_on_c, 0, 65, 0
1, 95692, Note_on_c, 0, 62, 0
1, 95692, Note_on_c, 1, 59, 0
1, 95808, Note_on_c, 1, 48, 60
1, 95884, Note_on_c, 1, 48, 0
1, 95904, Note_on_c, 1, 51, 60
1, 95980, Note_on_c, 1, 51, 0
1, 96000, Note_on_c, 1, 55, 60
1, 96076, Note_on_c, 1, 55, 0
1, 96096, Note_on_c, 1, 51, 60
1, 96172, Note_on_c, 1, 51, 0
1, 96192, Note_on_c, 1, 55, 60
1, 96268, Note_on_c, 1, 55, 0
1, 96288, Note_on_c, 1, 51, 60
1, 96364, Note_on_c, 1, 51, 0
1, 96384, Note_on_c, 1, 48, 60
1, 96460, Note_on_c, 1, 48, 0
1, 96480, Note_on_c, 1, 51, 60
1, 96556, Note_on_c, 1, 51, 0
1, 96576, Note_on_c, 0, 67, 60
1, 96576, Note_on_c, 1, 55, 60
1, 96652, Note_on_c, 1, 55, 0
1, 96672, Note_on_c, 1, 51, 60
1, 96728, Note_on_c, 0, 67, 0
1, 96748, Note_on_c, 1, 51, 0
1, 96768, Note_on_c, 0, 67, 60
1, 96768, Note_on_c, 1, 55, 60
1, 96844, Note_on_c, 1, 55, 0
1, 96864, Note_on_c, 1, 51, 60
1, 96920, Note_on_c, 0, 67, 0
1, 96940, Note_on_c, 1, 51, 0
1, 96960, Note_on_c, 0, 67, 60
1, 96960, Note_on_c, 1, 48, 60
1, 97036, Note_on_c, 1, 48, 0
1, 97056, Note_on_c, 1, 50, 60
1, 97132, Note_on_c, 1, 50, 0
1, 97152, Note_on_c, 1, 53, 60
1, 97190, Note_on_c, 0, 67, 0
1, 97228, Note_on_c, 1, 53, 0
1, 97248, Note_on_c, 0, 68, 60
1, 97248, Note_on_c, 1, 50, 60
1, 97324, Note_on_c, 0, 68, 0
1, 97324, Note_on_c, 1, 50, 0
1, 97344, Note_on_c, 0, 67, 60
1, 97344, Note_on_c, 1, 53, 60
1, 97420, Note_on_c, 1, 53, 0
1, 97440, Note_on_c, 1, 50, 60
1, 97496, Note_on_c, 0, 67, 0
1, 97516, Note_on_c, 1, 50, 0
1, 97536, Note_on_c, 0, 77, 60
1, 97536, Note_on_c, 1, 48, 60
1, 97612, Note_on_c, 1, 48, 0
1, 97632, Note_on_c, 1, 50, 60
1, 97708, Note_on_c, 1, 50, 0
1, 97728, Note_on_c, 1, 53, 60
1, 97804, Note_on_c, 1, 53, 0
1, 97824, Note_on_c, 1, 50, 60
1, 97842, Note_on_c, 0, 77, 0
1, 97900, Note_on_c, 1, 50, 0
1, 97920, Note_on_c, 0, 71, 60
1, 97920, Note_on_c, 1, 53, 60
1, 97996, Note_on_c, 1, 53, 0
1, 98016, Note_on_c, 1, 50, 60
1, 98072, Note_on_c, 0, 71, 0
1, 98092, Note_on_c, 1, 50, 0
1, 98112, Note_on_c, 0, 74, 60
1, 98112, Note_on_c, 1, 48, 60
1, 98188, Note_on_c, 1, 48, 0
1, 98208, Note_on_c, 1, 51, 60
1, 98284, Note_on_c, 1, 51, 0
1, 98304, Note_on_c, 1, 55, 60
1, 98380, Note_on_c, 1, 55, 0
1, 98400, Note_on_c, 1, 51, 60
1, 98418, Note_on_c, 0, 74, 0
1, 98476, Note_on_c, 1, 51, 0
1, 98496, Note_on_c, 0, 72, 60
1, 98496, Note_on_c, 1, 55, 60
1, 98572, Note_on_c, 1, 55, 0
1, 98592, Note_on_c, 1, 51, 60
1, 98648, Note_on_c, 0, 72, 0
1, 98668, Note_on_c, 1, 51, 0
1, 98688, Note_on_c, 1, 48, 60
1, 98764, Note_on_c, 1, 48, 0
1, 98784, Note_on_c, 1, 51, 60
1, 98860, Note_on_c, 1, 51, 0
1, 98880, Note_on_c, 0, 79, 60
1, 98880, Note_on_c, 1, 55, 60
1, 98956, Note_on_c, 1, 55, 0
1, 98976, Note_on_c, 1, 51, 60
1, 99032, Note_on_c, 0, 79, 0
1, 99052, Note_on_c, 1, 51, 0
1, 99072, Note_on_c, 0, 79, 60
1, 99072, Note_on_c, 1, 55, 60
1, 99148, Note_on_c, 1, 55, 0
1, 99168, Note_on_c, 1, 51, 60
1, 99224, Note_on_c, 0, 79, 0
1, 99244, Note_on_c, 1, 51, 0
1, 99264, Note_on_c, 0, 78, 60
1, 99264, Note_on_c, 1, 48, 60
1, 99340, Note_on_c, 0, 78, 0
1, 99340, Note_on_c, 1, 48, 0
1, 99360, Note_on_c, 0, 79, 60
1, 99360, Note_on_c, 1, 50, 60
1, 99436, Note_on_c, 0, 79, 0
1, 99436, Note_on_c, 1, 50, 0
1, 99456, Note_on_c, 0, 80, 60
1, 99456, Note_on_c, 1, 53, 60
1, 99532, Note_on_c, 0, 80, 0
1, 99532, Note_on_c, 1, 53, 0
1, 99552, Note_on_c, 0, 79, 60
1, 99552, Note_on_c, 1, 50, 60
1, 99628, Note_on_c, 0, 79, 0
1, 99628, Note_on_c, 1, 50, 0
1, 99648, Note_on_c, 0, 77, 60
1, 99648, Note_on_c, 1, 53, 60
1, 99724, Note_on_c, 0, 77, 0
1, 99724, Note_on_c, 1, 53, 0
1, 99744, Note_on_c, 0, 75, 60
1, 99744, Note_on_c, 1, 50, 60
1, 99820, Note_on_c, 0, 75, 0
1, 99820, Note_on_c, 1, 50, 0
1, 99840, Note_on_c, 0, 74, 60
1, 99840, Note_on_c, 1, 48, 60
1, 99916, Note_on_c, 0, 74, 0
1, 99916, Note_on_c, 1, 48, 0
1, 99936, Note_on_c, 0, 72, 60
1, 99936, Note_on_c, 1, 50, 60
1, 100012, Note_on_c, 0, 72, 0
1, 100012, Note_on_c, 1, 50, 0
1, 100032, Note_on_c, 0, 71, 60
1, 100032, Note_on_c, 1, 53, 60
1, 100108, Note_on_c, 0, 71, 0
1, 100108, Note_on_c, 1, 53, 0
1, 100128, Note_on_c, 0, 74, 60
1, 100128, Note_on_c, 1, 50, 60
1, 100204, Note_on_c, 0, 74, 0
1, 100204, Note_on_c, 1, 50, 0
1, 100224, Note_on_c, 0, 77, 60
1, 100224, Note_on_c, 1, 53, 60
1, 100300, Note_on_c, 0, 77, 0
1, 100300, Note_on_c, 1, 53, 0
1, 100320, Note_on_c, 0, 71, 60
1, 100320, Note_on_c, 1, 50, 60
1, 100396, Note_on_c, 0, 71, 0
1, 100396, Note_on_c, 1, 50, 0
1, 100416, Note_on_c, 0, 74, 60
1, 100416, Note_on_c, 1, 48, 60
1, 100492, Note_on_c, 1, 48, 0
1, 100512, Note_on_c, 1, 51, 60
1, 100588, Note_on_c, 1, 51, 0
1, 100608, Note_on_c, 1, 55, 60
1, 100684, Note_on_c, 1, 55, 0
1, 100704, Note_on_c, 1, 51, 60
1, 100776, Note_on_c, 0, 74, 0
1, 100780, Note_on_c, 1, 51, 0
1, 100800, Note_on_c, 0, 72, 60
1, 100800, Note_on_c, 1, 55, 60
1, 100876, Note_on_c, 1, 55, 0
1, 100896, Note_on_c, 1, 51, 60
1, 100972, Note_on_c, 1, 51, 0
1, 100980, Note_on_c, 0, 72, 0
1, 100992, Note_on_c, 1, 46, 70
1, 101068, Note_on_c, 1, 46, 0
1, 101088, Note_on_c, 1, 52, 70
1, 101164, Note_on_c, 1, 52, 0
1, 101184, Note_on_c, 0, 72, 80
1, 101184, Note_on_c, 1, 55, 80
1, 101260, Note_on_c, 1, 55, 0
1, 101280, Note_on_c, 1, 52, 80
1, 101336, Note_on_c, 0, 72, 0
1, 101356, Note_on_c, 1, 52, 0
1, 101376, Note_on_c, 0, 72, 90
1, 101376, Note_on_c, 1, 55, 90
1, 101452, Note_on_c, 1, 55, 0
1, 101472, Note_on_c, 1, 52, 90
1, 101528, Note_on_c, 0, 72, 0
1, 101548, Note_on_c, 1, 52, 0
1, 101568, Note_on_c, 0, 72, 100
1, 101568, Note_on_c, 1, 45, 100
1, 101644, Note_on_c, 1, 45, 0
1, 101664, Note_on_c, 1, 48, 100
1, 101740, Note_on_c, 1, 48, 0
1, 101760, Note_on_c, 1, 53, 100
1, 101798, Note_on_c, 0, 72, 0
1, 101836, Note_on_c, 1, 53, 0
1, 101856, Note_on_c, 0, 74, 100
1, 101856, Note_on_c, 1, 48, 100
1, 101880, Note_on_c, 0, 74, 0
1, 101888, Note_on_c, 0, 72, 100
1, 101912, Note_on_c, 0, 72, 0
1, 101920, Note_on_c, 0, 71, 100
1, 101932, Note_on_c, 1, 48, 0
1, 101944, Note_on_c, 0, 71, 0
1, 101952, Note_on_c, 0, 72, 100
1, 101952, Note_on_c, 1, 53, 100
1, 102028, Note_on_c, 0, 72, 0
1, 102028, Note_on_c, 1, 53, 0
1, 102048, Note_on_c, 0, 74, 100
1, 102048, Note_on_c, 1, 48, 100
1, 102124, Note_on_c, 0, 74, 0
1, 102124, Note_on_c, 1, 48, 0
1, 102144, Note_on_c, 0, 75, 100
1, 102144, Note_on_c, 1, 44, 100
1, 102220, Note_on_c, 1, 44, 0
1, 102240, Note_on_c, 1, 48, 100
1, 102316, Note_on_c, 1, 48, 0
1, 102336, Note_on_c, 1, 51, 100
1, 102412, Note_on_c, 1, 51, 0
1, 102432, Note_on_c, 1, 48, 100
1, 102450, Note_on_c, 0, 75, 0
1, 102508, Note_on_c, 1, 48, 0
1, 102528, Note_on_c, 0, 66, 100
1, 102528, Note_on_c, 1, 51, 100
1, 102604, Note_on_c, 1, 51, 0
1, 102624, Note_on_c, 1, 48, 100
1, 102680, Note_on_c, 0, 66, 0
1, 102700, Note_on_c, 1, 48, 0
1, 102720, Note_on_c, 0, 67, 100
1, 102720, Note_on_c, 1, 43, 100
1, 102720, Note_on_c, 1, 47, 100
1, 102872, Note_on_c, 0, 67, 0
1, 102872, Note_on_c, 1, 47, 0
1, 102872, Note_on_c, 1, 43, 0
1, 102912, Note_on_c, 1, 53, 100
1, 103008, Note_on_c, 0, 67, 100
1, 103064, Note_on_c, 1, 53, 0
1, 103084, Note_on_c, 0, 67, 0
1, 103104, Note_on_c, 0, 66, 100
1, 103180, Note_on_c, 0, 66, 0
1, 103200, Note_on_c, 0, 67, 100
1, 103276, Note_on_c, 0, 67, 0
1, 103296, Note_on_c, 0, 68, 60
1, 103372, Note_on_c, 0, 68, 0
1, 103392, Note_on_c, 0, 69, 60
1, 103468, Note_on_c, 0, 69, 0
1, 103488, Note_on_c, 0, 70, 60
1, 103564, Note_on_c, 0, 70, 0
1, 103584, Note_on_c, 0, 71, 60
1, 103660, Note_on_c, 0, 71, 0
1, 103680, Note_on_c, 0, 72, 60
1, 103680, Note_on_c, 0, 60, 60
1, 103680, Note_on_c, 1, 56, 60
1, 103756, Note_on_c, 0, 72, 0
1, 103776, Note_on_c, 0, 66, 60
1, 103832, Note_on_c, 0, 60, 0
1, 103832, Note_on_c, 1, 56, 0
1, 103852, Note_on_c, 0, 66, 0
1, 103872, Note_on_c, 0, 67, 60
1, 103872, Note_on_c, 1, 55, 60
1, 103872, Note_on_c, 1, 59, 60
1, 104024, Note_on_c, 0, 67, 0
1, 104024, Note_on_c, 1, 59, 0
1, 104024, Note_on_c, 1, 55, 0
1, 104064, Note_on_c, 1, 43, 60
1, 104160, Note_on_c, 1, 55, 60
1, 104216, Note_on_c, 1, 43, 0
1, 104236, Note_on_c, 1, 55, 0
1, 104256, Note_on_c, 1, 54, 60
1, 104332, Note_on_c, 1, 54, 0
1, 104352, Note_on_c, 1, 55, 60
1, 104428, Note_on_c, 1, 55, 0
1, 104448, Note_on_c, 1, 56, 60
1, 104524, Note_on_c, 1, 56, 0
1, 104544, Note_on_c, 1, 57, 60
1, 104620, Note_on_c, 1, 57, 0
1, 104640, Note_on_c, 1, 58, 60
1, 104716, Note_on_c, 1, 58, 0
1, 104736, Note_on_c, 1, 59, 60
1, 104812, Note_on_c, 1, 59, 0
1, 104832, Note_on_c, 0, 60, 60
1, 104832, Note_on_c, 1, 44, 60
1, 104832, Note_on_c, 1, 48, 60
1, 104908, Note_on_c, 0, 60, 0
1, 104928, Note_on_c, 1, 54, 60
1, 104984, Note_on_c, 1, 48, 0
1, 104984, Note_on_c, 1, 44, 0
1, 105004, Note_on_c, 1, 54, 0
1, 105024, Note_on_c, 1, 43, 60
1, 105024, Note_on_c, 1, 47, 60
1, 105024, Note_on_c, 1, 55, 60
1, 105176, Note_on_c, 1, 55, 0
1, 105176, Note_on_c, 1, 47, 0
1, 105176, Note_on_c, 1, 43, 0
1, 105216, Note_on_c, 1, 31, 60
1, 105312, Note_on_c, 0, 78, 60
1, 105368, Note_on_c, 1, 31, 0
1, 105388, Note_on_c, 0, 78, 0
1, 105408, Note_on_c, 0, 79, 60
1, 105484, Note_on_c, 0, 79, 0
1, 105504, Note_on_c, 0, 78, 60
1, 105580, Note_on_c, 0, 78, 0
1, 105600, Note_on_c, 0, 79, 60
1, 105752, Note_on_c, 0, 79, 0
1, 105792, Note_on_c, 1, 55, 60
1, 105888, Note_on_c, 0, 66, 60
1, 105944, Note_on_c, 1, 55, 0
1, 105964, Note_on_c, 0, 66, 0
1, 105984, Note_on_c, 0, 67, 60
1, 106060, Note_on_c, 0, 67, 0
1, 106080, Note_on_c, 0, 66, 60
1, 106156, Note_on_c, 0, 66, 0
1, 106176, Note_on_c, 0, 67, 60
1, 106328, Note_on_c, 0, 67, 0
1, 106368, Note_on_c, 1, 43, 60
1, 106464, Note_on_c, 1, 54, 60
1, 106520, Note_on_c, 1, 43, 0
1, 106540, Note_on_c, 1, 54, 0
1, 106560, Note_on_c, 1, 55, 60
1, 106636, Note_on_c, 1, 55, 0
1, 106656, Note_on_c, 1, 54, 60
1, 106732, Note_on_c, 1, 54, 0
1, 106752, Note_on_c, 1, 55, 60
1, 106904, Note_on_c, 1, 55, 0
1, 106944, Note_on_c, 1, 31, 60
1, 107040, Note_on_c, 1, 42, 100
1, 107096, Note_on_c, 1, 31, 0
1, 107116, Note_on_c, 1, 42, 0
1, 107136, Note_on_c, 1, 43, 100
1, 107212, Note_on_c, 1, 43, 0
1, 107232, Note_on_c, 1, 42, 100
1, 107308, Note_on_c, 1, 42, 0
1, 107328, Note_on_c, 1, 43, 100
1, 107404, Note_on_c, 1, 43, 0
1, 107424, Note_on_c, 1, 38, 100
1, 107500, Note_on_c, 1, 38, 0
1, 107520, Note_on_c, 1, 39, 100
1, 107596, Note_on_c, 1, 39, 0
1, 107616, Note_on_c, 1, 35, 100
1, 107692, Note_on_c, 1, 35, 0
1, 107712, Note_on_c, 1, 36, 100
1, 107788, Note_on_c, 1, 36, 0
1, 107808, Note_on_c, 1, 30, 100
1, 107884, Note_on_c, 1, 30, 0
1, 107904, Note_on_c, 1, 31, 100
1, 107980, Note_on_c, 1, 31, 0
1, 108000, Note_on_c, 1, 30, 100
1, 108076, Note_on_c, 1, 30, 0
1, 108096, Note_on_c, 1, 31, 100
1, 108172, Note_on_c, 1, 31, 0
1, 108192, Note_on_c, 1, 30, 100
1, 108268, Note_on_c, 1, 30, 0
1, 108288, Note_on_c, 1, 31, 100
1, 108364, Note_on_c, 1, 31, 0
1, 108384, Note_on_c, 1, 30, 100
1, 108460, Note_on_c, 1, 30, 0
1, 108480, Note_on_c, 1, 31, 100
1, 108556, Note_on_c, 1, 31, 0
1, 108576, Note_on_c, 1, 35, 100
1, 108652, Note_on_c, 1, 35, 0
1, 108672, Note_on_c, 1, 38, 100
1, 108748, Note_on_c, 1, 38, 0
1, 108768, Note_on_c, 1, 43, 100
1, 108844, Note_on_c, 1, 43, 0
1, 108864, Note_on_c, 1, 47, 100
1, 108940, Note_on_c, 1, 47, 0
1, 108960, Note_on_c, 1, 50, 100
1, 109036, Note_on_c, 1, 50, 0
1, 109056, Note_on_c, 1, 55, 100
1, 109132, Note_on_c, 1, 55, 0
1, 109152, Note_on_c, 1, 59, 100
1, 109228, Note_on_c, 1, 59, 0
1, 109248, Note_on_c, 0, 62, 100
1, 109324, Note_on_c, 0, 62, 0
1, 109344, Note_on_c, 0, 67, 100
1, 109420, Note_on_c, 0, 67, 0
1, 109440, Note_on_c, 0, 71, 100
1, 109516, Note_on_c, 0, 71, 0
1, 109536, Note_on_c, 0, 74, 100
1, 109612, Note_on_c, 0, 74, 0
1, 109632, Note_on_c, 0, 89, 100
1, 109632, Note_on_c, 0, 77, 100
1, 109824, Note_on_c, 1, 44, 100
1, 109824, Note_on_c, 1, 32, 100
1, 109976, Note_on_c, 1, 32, 0
1, 109976, Note_on_c, 1, 44, 0
1, 110016, Note_on_c, 1, 56, 100
1, 110016, Note_on_c, 1, 44, 100
1, 110092, Note_on_c, 0, 77, 0
1, 110092, Note_on_c, 0, 89, 0
1, 110168, Note_on_c, 1, 44, 0
1, 110168, Note_on_c, 1, 56, 0
1, 110208, Note_on_c, 0, 83, 100
1, 110208, Note_on_c, 0, 71, 100
1, 110208, Note_on_c, 1, 56, 100
1, 110208, Note_on_c, 1, 44, 100
1, 110360, Note_on_c, 1, 44, 0
1, 110360, Note_on_c, 1, 56, 0
1, 110400, Note_on_c, 1, 55, 100
1, 110400, Note_on_c, 1, 43, 100
1, 110552, Note_on_c, 1, 43, 0
1, 110552, Note_on_c, 1, 55, 0
1, 110592, Note_on_c, 1, 53, 100
1, 110592, Note_on_c, 1, 41, 100
1, 110744, Note_on_c, 1, 41, 0
1, 110744, Note_on_c, 1, 53, 0
1, 110784, Note_on_c, 1, 52, 100
1, 110784, Note_on_c, 1, 40, 100
1, 110976, Note_on_c, 0, 84, 100
1, 110976, Note_on_c, 0, 72, 100
1, 111090, Note_on_c, 1, 40, 0
1, 111090, Note_on_c, 1, 52, 0
1, 111128, Note_on_c, 0, 72, 0
1, 111128, Note_on_c, 0, 84, 0
1, 111168, Note_on_c, 0, 76, 100
1, 111168, Note_on_c, 0, 64, 100
1, 111168, Note_on_c, 1, 58, 100
1, 111168, Note_on_c, 1, 46, 100
1, 111320, Note_on_c, 1, 46, 0
1, 111320, Note_on_c, 1, 58, 0
1, 111360, Note_on_c, 1, 45, 100
1, 111360, Note_on_c, 1, 57, 100
1, 111512, Note_on_c, 0, 64, 0
1, 111512, Note_on_c, 0, 76, 0
1, 111552, Note_on_c, 0, 65, 100
1, 111552, Note_on_c, 0, 77, 100
1, 111666, Note_on_c, 1, 57, 0
1, 111666, Note_on_c, 1, 45, 0
1, 111704, Note_on_c, 0, 77, 0
1, 111704, Note_on_c, 0, 65, 0
1, 111744, Note_on_c, 0, 78, 60
1, 111744, Note_on_c, 1, 56, 60
1, 111896, Note_on_c, 1, 56, 0
1, 111936, Note_on_c, 1, 55, 60
1, 112088, Note_on_c, 0, 78, 0
1, 112128, Note_on_c, 0, 79, 60
1, 112242, Note_on_c, 1, 55, 0
1, 112280, Note_on_c, 0, 79, 0
1, 112320, Note_on_c, 0, 81, 60
1, 112320, Note_on_c, 0, 72, 60
1, 112320, Note_on_c, 0, 63, 60
1, 112320, Note_on_c, 1, 54, 60
1, 112472, Note_on_c, 0, 63, 0
1, 112472, Note_on_c, 0, 72, 0
1, 112472, Note_on_c, 0, 81, 0
1, 112472, Note_on_c, 1, 54, 0
1, 112512, Note_on_c, 0, 67, 60
1, 112512, Note_on_c, 0, 63, 60
1, 112512, Note_on_c, 0, 72, 60
1, 112512, Note_on_c, 1, 55, 60
1, 112818, Note_on_c, 0, 72, 0
1, 112818, Note_on_c, 0, 63, 0
1, 112818, Note_on_c, 0, 67, 0
1, 112818, Note_on_c, 1, 55, 0
1, 112896, Note_on_c, 0, 71, 60
1, 112896, Note_on_c, 0, 75, 60
1, 112896, Note_on_c, 0, 65, 60
1, 112972, Note_on_c, 0, 75, 0
1, 112972, Note_on_c, 0, 71, 0
1, 112992, Note_on_c, 0, 74, 60
1, 113048, Note_on_c, 0, 65, 0
1, 113068, Note_on_c, 0, 74, 0
1, 113088, Note_on_c, 0, 72, 100
1, 113088, Note_on_c, 1, 48, 100
1, 113164, Note_on_c, 1, 48, 0
1, 113184, Note_on_c, 1, 55, 100
1, 113240, Note_on_c, 0, 72, 0
1, 113260, Note_on_c, 1, 55, 0
1, 113280, Note_on_c, 1, 51, 60
1, 113356, Note_on_c, 1, 51, 0
1, 113376, Note_on_c, 0, 72, 60
1, 113376, Note_on_c, 1, 55, 60
1, 113452, Note_on_c, 0, 72, 0
1, 113452, Note_on_c, 1, 55, 0
1, 113472, Note_on_c, 0, 71, 60
1, 113472, Note_on_c, 1, 48, 60
1, 113548, Note_on_c, 0, 71, 0
1, 113548, Note_on_c, 1, 48, 0
1, 113568, Note_on_c, 0, 72, 60
1, 113568, Note_on_c, 1, 55, 60
1, 113644, Note_on_c, 0, 72, 0
1, 113644, Note_on_c, 1, 55, 0
1, 113664, Note_on_c, 0, 73, 100
1, 113664, Note_on_c, 1, 47, 100
1, 113740, Note_on_c, 0, 73, 0
1, 113740, Note_on_c, 1, 47, 0
1, 113760, Note_on_c, 0, 74, 100
1, 113760, Note_on_c, 1, 55, 100
1, 113836, Note_on_c, 0, 74, 0
1, 113836, Note_on_c, 1, 55, 0
1, 113856, Note_on_c, 1, 53, 60
1, 113932, Note_on_c, 1, 53, 0
1, 113952, Note_on_c, 0, 74, 60
1, 113952, Note_on_c, 1, 55, 60
1, 114028, Note_on_c, 0, 74, 0
1, 114028, Note_on_c, 1, 55, 0
1, 114048, Note_on_c, 0, 73, 60
1, 114048, Note_on_c, 1, 47, 60
1, 114124, Note_on_c, 0, 73, 0
1, 114124, Note_on_c, 1, 47, 0
1, 114144, Note_on_c, 0, 74, 60
1, 114144, Note_on_c, 1, 55, 60
1, 114220, Note_on_c, 0, 74, 0
1, 114220, Note_on_c, 1, 55, 0
1, 114240, Note_on_c, 0, 75, 100
1, 114240, Note_on_c, 1, 46, 100
1, 114316, Note_on_c, 0, 75, 0
1, 114316, Note_on_c, 1, 46, 0
1, 114336, Note_on_c, 0, 76, 100
1, 114336, Note_on_c, 1, 55, 100
1, 114412, Note_on_c, 0, 76, 0
1, 114412, Note_on_c, 1, 55, 0
1, 114432, Note_on_c, 1, 48, 60
1, 114508, Note_on_c, 1, 48, 0
1, 114528, Note_on_c, 0, 76, 60
1, 114528, Note_on_c, 1, 55, 60
1, 114604, Note_on_c, 0, 76, 0
1, 114604, Note_on_c, 1, 55, 0
1, 114624, Note_on_c, 0, 75, 60
1, 114624, Note_on_c, 1, 46, 60
1, 114700, Note_on_c, 0, 75, 0
1, 114700, Note_on_c, 1, 46, 0
1, 114720, Note_on_c, 0, 76, 60
1, 114720, Note_on_c, 1, 55, 60
1, 114796, Note_on_c, 0, 76, 0
1, 114796, Note_on_c, 1, 55, 0
1, 114816, Note_on_c, 0, 76, 100
1, 114816, Note_on_c, 1, 44, 100
1, 114892, Note_on_c, 0, 76, 0
1, 114892, Note_on_c, 1, 44, 0
1, 114912, Note_on_c, 0, 77, 100
1, 114912, Note_on_c, 1, 53, 100
1, 114988, Note_on_c, 0, 77, 0
1, 114988, Note_on_c, 1, 53, 0
1, 115008, Note_on_c, 1, 48, 60
1, 115084, Note_on_c, 1, 48, 0
1, 115104, Note_on_c, 0, 77, 60
1, 115104, Note_on_c, 1, 53, 60
1, 115180, Note_on_c, 0, 77, 0
1, 115180, Note_on_c, 1, 53, 0
1, 115200, Note_on_c, 0, 76, 60
1, 115200, Note_on_c, 1, 44, 60
1, 115276, Note_on_c, 0, 76, 0
1, 115276, Note_on_c, 1, 44, 0
1, 115296, Note_on_c, 0, 77, 60
1, 115296, Note_on_c, 1, 53, 60
1, 115372, Note_on_c, 0, 77, 0
1, 115372, Note_on_c, 1, 53, 0
1, 115392, Note_on_c, 0, 79, 60
1, 115392, Note_on_c, 1, 39, 60
1, 115468, Note_on_c, 0, 79, 0
1, 115488, Note_on_c, 0, 72, 60
1, 115544, Note_on_c, 1, 39, 0
1, 115564, Note_on_c, 0, 72, 0
1, 115584, Note_on_c, 0, 84, 60
1, 115660, Note_on_c, 0, 84, 0
1, 115680, Note_on_c, 0, 84, 60
1, 115756, Note_on_c, 0, 84, 0
1, 115776, Note_on_c, 0, 84, 60
1, 115852, Note_on_c, 0, 84, 0
1, 115872, Note_on_c, 0, 84, 60
1, 115948, Note_on_c, 0, 84, 0
1, 115968, Note_on_c, 0, 62, 60
1, 115968, Note_on_c, 1, 53, 60
1, 116064, Note_on_c, 0, 74, 60
1, 116120, Note_on_c, 0, 62, 0
1, 116120, Note_on_c, 1, 53, 0
1, 116140, Note_on_c, 0, 74, 0
1, 116160, Note_on_c, 0, 80, 60
1, 116236, Note_on_c, 0, 80, 0
1, 116256, Note_on_c, 0, 80, 60
1, 116332, Note_on_c, 0, 80, 0
1, 116352, Note_on_c, 0, 80, 60
1, 116428, Note_on_c, 0, 80, 0
1, 116448, Note_on_c, 0, 80, 60
1, 116524, Note_on_c, 0, 80, 0
1, 116544, Note_on_c, 0, 63, 60
1, 116544, Note_on_c, 1, 55, 60
1, 116640, Note_on_c, 0, 72, 60
1, 116696, Note_on_c, 0, 63, 0
1, 116696, Note_on_c, 1, 55, 0
1, 116716, Note_on_c, 0, 72, 0
1, 116736, Note_on_c, 0, 79, 60
1, 116812, Note_on_c, 0, 79, 0
1, 116832, Note_on_c, 0, 79, 60
1, 116908, Note_on_c, 0, 79, 0
1, 116928, Note_on_c, 0, 79, 60
1, 117004, Note_on_c, 0, 79, 0
1, 117024, Note_on_c, 0, 79, 60
1, 117100, Note_on_c, 0, 79, 0
1, 117120, Note_on_c, 0, 62, 60
1, 117120, Note_on_c, 1, 55, 60
1, 117216, Note_on_c, 0, 65, 60
1, 117272, Note_on_c, 0, 62, 0
1, 117272, Note_on_c, 1, 55, 0
1, 117292, Note_on_c, 0, 65, 0
1, 117312, Note_on_c, 0, 71, 60
1, 117388, Note_on_c, 0, 71, 0
1, 117408, Note_on_c, 0, 71, 60
1, 117484, Note_on_c, 0, 71, 0
1, 117504, Note_on_c, 0, 71, 60
1, 117580, Note_on_c, 0, 71, 0
1, 117600, Note_on_c, 0, 71, 60
1, 117676, Note_on_c, 0, 71, 0
1, 117696, Note_on_c, 0, 72, 100
1, 117696, Note_on_c, 0, 67, 100
1, 117696, Note_on_c, 0, 63, 100
1, 117696, Note_on_c, 1, 48, 100
1, 117772, Note_on_c, 1, 48, 0
1, 117792, Note_on_c, 1, 55, 100
1, 117848, Note_on_c, 0, 63, 0
1, 117848, Note_on_c, 0, 67, 0
1, 117848, Note_on_c, 0, 72, 0
1, 117868, Note_on_c, 1, 55, 0
1, 117888, Note_on_c, 1, 51, 60
1, 117964, Note_on_c, 1, 51, 0
1, 117984, Note_on_c, 0, 60, 60
1, 117984, Note_on_c, 1, 55, 60
1, 118060, Note_on_c, 0, 60, 0
1, 118060, Note_on_c, 1, 55, 0
1, 118080, Note_on_c, 1, 59, 60
1, 118080, Note_on_c, 1, 48, 60
1, 118156, Note_on_c, 1, 48, 0
1, 118156, Note_on_c, 1, 59, 0
1, 118176, Note_on_c, 0, 60, 60
1, 118176, Note_on_c, 1, 55, 60
1, 118252, Note_on_c, 0, 60, 0
1, 118252, Note_on_c, 1, 55, 0
1, 118272, Note_on_c, 0, 61, 100
1, 118272, Note_on_c, 1, 47, 100
1, 118348, Note_on_c, 0, 61, 0
1, 118348, Note_on_c, 1, 47, 0
1, 118368, Note_on_c, 0, 62, 100
1, 118368, Note_on_c, 1, 55, 100
1, 118444, Note_on_c, 0, 62, 0
1, 118444, Note_on_c, 1, 55, 0
1, 118464, Note_on_c, 1, 53, 60
1, 118540, Note_on_c, 1, 53, 0
1, 118560, Note_on_c, 0, 62, 60
1, 118560, Note_on_c, 1, 55, 60
1, 118636, Note_on_c, 0, 62, 0
1, 118636, Note_on_c, 1, 55, 0
1, 118656, Note_on_c, 0, 61, 60
1, 118656, Note_on_c, 1, 47, 60
1, 118732, Note_on_c, 0, 61, 0
1, 118732, Note_on_c, 1, 47, 0
1, 118752, Note_on_c, 0, 62, 60
1, 118752, Note_on_c, 1, 55, 60
1, 118828, Note_on_c, 0, 62, 0
1, 118828, Note_on_c, 1, 55, 0
1, 118848, Note_on_c, 0, 63, 100
1, 118848, Note_on_c, 1, 46, 100
1, 118924, Note_on_c, 0, 63, 0
1, 118924, Note_on_c, 1, 46, 0
1, 118944, Note_on_c, 0, 64, 100
1, 118944, Note_on_c, 1, 55, 100
1, 119020, Note_on_c, 0, 64, 0
1, 119020, Note_on_c, 1, 55, 0
1, 119040, Note_on_c, 1, 48, 60
1, 119116, Note_on_c, 1, 48, 0
1, 119136, Note_on_c, 0, 64, 60
1, 119136, Note_on_c, 1, 55, 60
1, 119212, Note_on_c, 0, 64, 0
1, 119212, Note_on_c, 1, 55, 0
1, 119232, Note_on_c, 0, 63, 60
1, 119232, Note_on_c, 1, 46, 60
1, 119308, Note_on_c, 0, 63, 0
1, 119308, Note_on_c, 1, 46, 0
1, 119328, Note_on_c, 0, 64, 60
1, 119328, Note_on_c, 1, 55, 60
1, 119404, Note_on_c, 0, 64, 0
1, 119404, Note_on_c, 1, 55, 0
1, 119424, Note_on_c, 0, 64, 100
1, 119424, Note_on_c, 1, 45, 100
1, 119500, Note_on_c, 0, 64, 0
1, 119500, Note_on_c, 1, 45, 0
1, 119520, Note_on_c, 0, 65, 100
1, 119520, Note_on_c, 1, 53, 100
1, 119596, Note_on_c, 0, 65, 0
1, 119596, Note_on_c, 1, 53, 0
1, 119616, Note_on_c, 1, 48, 60
1, 119692, Note_on_c, 1, 48, 0
1, 119712, Note_on_c, 0, 65, 60
1, 119712, Note_on_c, 1, 53, 60
1, 119788, Note_on_c, 0, 65, 0
1, 119788, Note_on_c, 1, 53, 0
1, 119808, Note_on_c, 0, 64, 60
1, 119808, Note_on_c, 1, 45, 60
1, 119884, Note_on_c, 0, 64, 0
1, 119884, Note_on_c, 1, 45, 0
1, 119904, Note_on_c, 0, 65, 60
1, 119904, Note_on_c, 1, 53, 60
1, 119980, Note_on_c, 0, 65, 0
1, 119980, Note_on_c, 1, 53, 0
1, 120000, Note_on_c, 0, 65, 100
1, 120000, Note_on_c, 1, 44, 100
1, 120076, Note_on_c, 0, 65, 0
1, 120076, Note_on_c, 1, 44, 0
1, 120096, Note_on_c, 0, 66, 100
1, 120096, Note_on_c, 1, 51, 100
1, 120172, Note_on_c, 0, 66, 0
1, 120172, Note_on_c, 1, 51, 0
1, 120192, Note_on_c, 1, 48, 60
1, 120268, Note_on_c, 1, 48, 0
1, 120288, Note_on_c, 0, 66, 60
1, 120288, Note_on_c, 1, 51, 60
1, 120364, Note_on_c, 0, 66, 0
1, 120364, Note_on_c, 1, 51, 0
1, 120384, Note_on_c, 0, 65, 60
1, 120384, Note_on_c, 1, 44, 60
1, 120460, Note_on_c, 0, 65, 0
1, 120460, Note_on_c, 1, 44, 0
1, 120480, Note_on_c, 0, 66, 60
1, 120480, Note_on_c, 1, 51, 60
1, 120556, Note_on_c, 0, 66, 0
1, 120556, Note_on_c, 1, 51, 0
1, 120576, Note_on_c, 0, 66, 100
1, 120576, Note_on_c, 1, 43, 100
1, 120652, Note_on_c, 0, 66, 0
1, 120652, Note_on_c, 1, 43, 0
1, 120672, Note_on_c, 0, 67, 100
1, 120672, Note_on_c, 1, 51, 100
1, 120748, Note_on_c, 0, 67, 0
1, 120748, Note_on_c, 1, 51, 0
1, 120768, Note_on_c, 1, 48, 60
1, 120844, Note_on_c, 1, 48, 0
1, 120864, Note_on_c, 0, 67, 60
1, 120864, Note_on_c, 1, 51, 60
1, 120940, Note_on_c, 0, 67, 0
1, 120940, Note_on_c, 1, 51, 0
1, 120960, Note_on_c, 0, 66, 60
1, 120960, Note_on_c, 1, 43, 60
1, 121036, Note_on_c, 0, 66, 0
1, 121036, Note_on_c, 1, 43, 0
1, 121056, Note_on_c, 0, 67, 60
1, 121056, Note_on_c, 1, 51, 60
1, 121132, Note_on_c, 0, 67, 0
1, 121132, Note_on_c, 1, 51, 0
1, 121152, Note_on_c, 0, 69, 60
1, 121152, Note_on_c, 1, 42, 60
1, 121304, Note_on_c, 0, 69, 0
1, 121344, Note_on_c, 0, 72, 60
1, 121496, Note_on_c, 0, 72, 0
1, 121536, Note_on_c, 0, 75, 60
1, 121612, Note_on_c, 1, 42, 0
1, 121728, Note_on_c, 1, 54, 60
1, 121880, Note_on_c, 0, 75, 0
1, 121920, Note_on_c, 0, 74, 60
1, 122072, Note_on_c, 0, 74, 0
1, 122112, Note_on_c, 0, 72, 60
1, 122188, Note_on_c, 1, 54, 0
1, 122304, Note_on_c, 0, 62, 60
1, 122304, Note_on_c, 0, 65, 60
1, 122304, Note_on_c, 1, 55, 60
1, 122456, Note_on_c, 0, 72, 0
1, 122496, Note_on_c, 0, 71, 60
1, 122648, Note_on_c, 0, 71, 0
1, 122688, Note_on_c, 0, 77, 60
1, 122764, Note_on_c, 0, 62, 0
1, 122764, Note_on_c, 0, 65, 0
1, 122764, Note_on_c, 1, 55, 0
1, 122880, Note_on_c, 0, 65, 63
1, 122880, Note_on_c, 0, 62, 63
1, 122880, Note_on_c, 1, 56, 63
1, 123032, Note_on_c, 0, 77, 0
1, 123072, Note_on_c, 0, 74, 66
1, 123224, Note_on_c, 0, 74, 0
1, 123264, Note_on_c, 0, 83, 69
1, 123340, Note_on_c, 0, 65, 0
1, 123340, Note_on_c, 0, 62, 0
1, 123340, Note_on_c, 1, 56, 0
1, 123456, Note_on_c, 0, 65, 72
1, 123456, Note_on_c, 0, 62, 72
1, 123456, Note_on_c, 1, 55, 72
1, 123608, Note_on_c, 0, 83, 0
1, 123648, Note_on_c, 0, 77, 78
1, 123800, Note_on_c, 0, 77, 0
1, 123840, Note_on_c, 0, 86, 78
1, 123916, Note_on_c, 0, 65, 0
1, 123916, Note_on_c, 0, 62, 0
1, 123916, Note_on_c, 1, 55, 0
1, 124032, Note_on_c, 0, 62, 84
1, 124032, Note_on_c, 0, 65, 84
1, 124032, Note_on_c, 1, 56, 84
1, 124184, Note_on_c, 0, 86, 0
1, 124224, Note_on_c, 0, 83, 89
1, 124376, Note_on_c, 0, 83, 0
1, 124416, Note_on_c, 0, 89, 97
1, 124492, Note_on_c, 0, 62, 0
1, 124492, Note_on_c, 0, 65, 0
1, 124492, Note_on_c, 1, 56, 0
1, 124568, Note_on_c, 0, 89, 0
1, 124608, Note_on_c, 0, 62, 100
1, 124608, Note_on_c, 0, 89, 100
1, 124608, Note_on_c, 0, 65, 100
1, 124608, Note_on_c, 1, 55, 100
1, 124684, Note_on_c, 0, 89, 0
1, 124704, Note_on_c, 0, 86, 100
1, 124760, Note_on_c, 0, 62, 0
1, 124760, Note_on_c, 0, 65, 0
1, 124760, Note_on_c, 1, 55, 0
1, 124780, Note_on_c, 0, 86, 0
1, 124800, Note_on_c, 0, 83, 100
1, 124876, Note_on_c, 0, 83, 0
1, 124896, Note_on_c, 0, 80, 100
1, 124972, Note_on_c, 0, 80, 0
1, 124992, Note_on_c, 0, 77, 100
1, 125068, Note_on_c, 0, 77, 0
1, 125088, Note_on_c, 0, 74, 100
1, 125164, Note_on_c, 0, 74, 0
1, 125184, Note_on_c, 0, 71, 100
1, 125260, Note_on_c, 0, 71, 0
1, 125280, Note_on_c, 0, 68, 100
1, 125356, Note_on_c, 0, 68, 0
1, 125376, Note_on_c, 0, 65, 100
1, 125452, Note_on_c, 0, 65, 0
1, 125472, Note_on_c, 0, 62, 100
1, 125548, Note_on_c, 0, 62, 0
1, 125568, Note_on_c, 1, 59, 100
1, 125644, Note_on_c, 1, 59, 0
1, 125664, Note_on_c, 1, 56, 100
1, 125740, Note_on_c, 1, 56, 0
1, 125760, Note_on_c, 1, 55, 100
1, 125856, Note_on_c, 0, 67, 100
1, 125912, Note_on_c, 1, 55, 0
1, 125932, Note_on_c, 0, 67, 0
1, 125952, Note_on_c, 0, 68, 100
1, 126028, Note_on_c, 0, 68, 0
1, 126048, Note_on_c, 0, 69, 100
1, 126124, Note_on_c, 0, 69, 0
1, 126144, Note_on_c, 0, 70, 100
1, 126220, Note_on_c, 0, 70, 0
1, 126240, Note_on_c, 0, 71, 100
1, 126316, Note_on_c, 0, 71, 0
1, 126336, Note_on_c, 0, 72, 100
1, 126412, Note_on_c, 0, 72, 0
1, 126432, Note_on_c, 0, 74, 100
1, 126508, Note_on_c, 0, 74, 0
1, 126528, Note_on_c, 0, 75, 100
1, 126604, Note_on_c, 0, 75, 0
1, 126624, Note_on_c, 0, 76, 100
1, 126700, Note_on_c, 0, 76, 0
1, 126720, Note_on_c, 0, 77, 100
1, 126796, Note_on_c, 0, 77, 0
1, 126816, Note_on_c, 0, 78, 100
1, 126892, Note_on_c, 0, 78, 0
1, 126912, Note_on_c, 0, 60, 60
1, 126912, Note_on_c, 0, 63, 60
1, 127104, Note_on_c, 0, 75, 60
1, 127256, Note_on_c, 0, 75, 0
1, 127296, Note_on_c, 0, 72, 60
1, 127372, Note_on_c, 0, 63, 0
1, 127372, Note_on_c, 0, 60, 0
1, 127488, Note_on_c, 0, 62, 60
1, 127488, Note_on_c, 0, 65, 60
1, 127640, Note_on_c, 0, 72, 0
1, 127680, Note_on_c, 0, 71, 60
1, 127832, Note_on_c, 0, 71, 0
1, 127872, Note_on_c, 0, 80, 60
1, 127948, Note_on_c, 0, 62, 0
1, 127948, Note_on_c, 0, 65, 0
1, 128064, Note_on_c, 0, 62, 60
1, 128064, Note_on_c, 1, 59, 60
1, 128216, Note_on_c, 0, 80, 0
1, 128256, Note_on_c, 0, 79, 60
1, 128408, Note_on_c, 0, 79, 0
1, 128448, Note_on_c, 0, 77, 60
1, 128524, Note_on_c, 0, 62, 0
1, 128524, Note_on_c, 1, 59, 0
1, 128640, Note_on_c, 0, 60, 60
1, 128640, Note_on_c, 0, 67, 60
1, 128792, Note_on_c, 0, 77, 0
1, 128832, Note_on_c, 0, 75, 60
1, 128984, Note_on_c, 0, 75, 0
1, 129024, Note_on_c, 0, 79, 60
1, 129100, Note_on_c, 0, 60, 0
1, 129100, Note_on_c, 0, 67, 0
1, 129216, Note_on_c, 0, 67, 60
1, 129216, Note_on_c, 0, 63, 60
1, 129368, Note_on_c, 0, 79, 0
1, 129408, Note_on_c, 0, 84, 60
1, 129522, Note_on_c, 0, 67, 0
1, 129522, Note_on_c, 0, 63, 0
1, 129560, Note_on_c, 0, 84, 0
1, 129600, Note_on_c, 0, 82, 60
1, 129600, Note_on_c, 0, 64, 60
1, 129752, Note_on_c, 0, 64, 0
1, 129792, Note_on_c, 0, 68, 60
1, 129792, Note_on_c, 0, 65, 60
1, 129944, Note_on_c, 0, 82, 0
1, 129984, Note_on_c, 0, 80, 60
1, 130098, Note_on_c, 0, 68, 0
1, 130098, Note_on_c, 0, 65, 0
1, 130136, Note_on_c, 0, 80, 0
1, 130176, Note_on_c, 0, 79, 60
1, 130176, Note_on_c, 0, 67, 60
1, 130176, Note_on_c, 0, 70, 60
1, 130328, Note_on_c, 0, 70, 0
1, 130328, Note_on_c, 0, 67, 0
1, 130368, Note_on_c, 0, 72, 60
1, 130368, Note_on_c, 0, 68, 60
1, 130520, Note_on_c, 0, 79, 0
1, 130752, Note_on_c, 0, 78, 60
1, 130752, Note_on_c, 0, 69, 60
1, 130904, Note_on_c, 0, 69, 0
1, 130944, Note_on_c, 0, 67, 60
1, 130944, Note_on_c, 0, 72, 60
1, 131096, Note_on_c, 0, 72, 0
1, 131096, Note_on_c, 0, 78, 0
1, 131096, Note_on_c, 0, 67, 0
1, 131136, Note_on_c, 0, 79, 60
1, 131136, Note_on_c, 0, 71, 60
1, 131288, Note_on_c, 0, 71, 0
1, 131288, Note_on_c, 0, 79, 0
1, 131328, Note_on_c, 0, 67, 60
1, 131520, Note_on_c, 1, 48, 60
1, 131520, Note_on_c, 1, 51, 60
1, 131672, Note_on_c, 0, 67, 0
1, 131712, Note_on_c, 0, 63, 60
1, 131864, Note_on_c, 0, 63, 0
1, 131904, Note_on_c, 0, 60, 60
1, 131980, Note_on_c, 1, 51, 0
1, 131980, Note_on_c, 1, 48, 0
1, 132056, Note_on_c, 0, 60, 0
1, 132096, Note_on_c, 0, 60, 60
1, 132096, Note_on_c, 1, 56, 60
1, 132096, Note_on_c, 1, 53, 60
1, 132096, Note_on_c, 1, 50, 60
1, 132556, Note_on_c, 0, 60, 0
1, 132672, Note_on_c, 1, 59, 60
1, 132824, Note_on_c, 1, 59, 0
1, 132824, Note_on_c, 1, 50, 0
1, 132824, Note_on_c, 1, 53, 0
1, 132824, Note_on_c, 1, 56, 0
1, 133632, Note_on_c, 0, 68, 60
1, 133824, Note_on_c, 1, 50, 60
1, 133824, Note_on_c, 1, 47, 60
1, 133976, Note_on_c, 0, 68, 0
1, 134016, Note_on_c, 0, 67, 60
1, 134168, Note_on_c, 0, 67, 0
1, 134208, Note_on_c, 0, 65, 60
1, 134284, Note_on_c, 1, 47, 0
1, 134284, Note_on_c, 1, 50, 0
1, 134360, Note_on_c, 0, 65, 0
1, 134400, Note_on_c, 0, 65, 60
1, 134400, Note_on_c, 1, 55, 60
1, 134400, Note_on_c, 1, 49, 60
1, 134400, Note_on_c, 1, 46, 60
1, 134860, Note_on_c, 0, 65, 0
1, 134976, Note_on_c, 0, 64, 60
1, 135128, Note_on_c, 0, 64, 0
1, 135128, Note_on_c, 1, 46, 0
1, 135128, Note_on_c, 1, 49, 0
1, 135128, Note_on_c, 1, 55, 0
1, 135936, Note_on_c, 0, 70, 60
1, 136128, Note_on_c, 0, 60, 60
1, 136128, Note_on_c, 1, 52, 60
1, 136280, Note_on_c, 0, 70, 0
1, 136320, Note_on_c, 0, 68, 60
1, 136472, Note_on_c, 0, 68, 0
1, 136512, Note_on_c, 0, 67, 60
1, 136588, Note_on_c, 0, 60, 0
1, 136588, Note_on_c, 1, 52, 0
1, 136664, Note_on_c, 0, 67, 0
1, 136704, Note_on_c, 0, 67, 60
1, 136704, Note_on_c, 0, 60, 60
1, 136704, Note_on_c, 1, 53, 60
1, 137164, Note_on_c, 0, 67, 0
1, 137280, Note_on_c, 0, 68, 60
1, 137432, Note_on_c, 0, 68, 0
1, 137432, Note_on_c, 0, 60, 0
1, 137432, Note_on_c, 1, 53, 0
1, 138240, Note_on_c, 0, 71, 60
1, 138432, Note_on_c, 1, 53, 60
1, 138432, Note_on_c, 1, 56, 60
1, 138584, Note_on_c, 0, 71, 0
1, 138624, Note_on_c, 0, 72, 60
1, 138776, Note_on_c, 0, 72, 0
1, 138816, Note_on_c, 0, 74, 60
1, 138892, Note_on_c, 1, 56, 0
1, 138892, Note_on_c, 1, 53, 0
1, 138968, Note_on_c, 0, 74, 0
1, 139008, Note_on_c, 0, 74, 60
1, 139008, Note_on_c, 1, 57, 60
1, 139008, Note_on_c, 1, 54, 60
1, 139468, Note_on_c, 0, 74, 0
1, 139584, Note_on_c, 0, 77, 60
1, 139584, Note_on_c, 0, 75, 60
1, 139608, Note_on_c, 0, 77, 0
1, 139736, Note_on_c, 0, 75, 0
1, 139736, Note_on_c, 1, 54, 0
1, 139736, Note_on_c, 1, 57, 0
1, 140544, Note_on_c, 0, 72, 60
1, 140696, Note_on_c, 0, 72, 0
1, 140736, Note_on_c, 0, 63, 60
1, 140736, Note_on_c, 0, 66, 60
1, 140736, Note_on_c, 0, 74, 60
1, 140736, Note_on_c, 0, 72, 60
1, 140736, Note_on_c, 1, 56, 60
1, 140748, Note_on_c, 0, 74, 0
1, 140888, Note_on_c, 0, 72, 0
1, 140928, Note_on_c, 0, 71, 60
1, 141080, Note_on_c, 0, 71, 0
1, 141120, Note_on_c, 0, 72, 60
1, 141196, Note_on_c, 0, 63, 0
1, 141196, Note_on_c, 0, 66, 0
1, 141196, Note_on_c, 1, 56, 0
1, 141272, Note_on_c, 0, 72, 0
1, 141312, Note_on_c, 0, 67, 60
1, 141312, Note_on_c, 0, 63, 60
1, 141312, Note_on_c, 1, 55, 60
1, 141464, Note_on_c, 0, 63, 0
1, 141464, Note_on_c, 0, 67, 0
1, 141464, Note_on_c, 1, 55, 0
1, 141888, Note_on_c, 1, 59, 60
1, 141888, Note_on_c, 1, 53, 60
1, 141888, Note_on_c, 1, 50, 60
1, 141888, Note_on_c, 1, 43, 60
1, 142040, Note_on_c, 1, 43, 0
1, 142040, Note_on_c, 1, 50, 0
1, 142040, Note_on_c, 1, 53, 0
1, 142040, Note_on_c, 1, 59, 0
1, 142464, Note_on_c, 0, 60, 60
1, 142464, Note_on_c, 1, 51, 60
1, 142464, Note_on_c, 1, 48, 60
1, 142464, Note_on_c, 1, 36, 60
1, 142616, Note_on_c, 0, 60, 0
1, 142616, Note_on_c, 1, 36, 0
1, 142616, Note_on_c, 1, 48, 0
1, 142616, Note_on_c, 1, 51, 0
1, 143040, Note_on_c, 0, 77, 100
1, 143052, Note_on_c, 0, 77, 0
1, 143052, Note_on_c, 0, 75, 100
1, 143128, Note_on_c, 0, 75, 0
1, 143148, Note_on_c, 0, 74, 100
1, 143186, Note_on_c, 0, 74, 0
1, 143196, Note_on_c, 0, 72, 100
1, 143234, Note_on_c, 0, 72, 0
1, 143244, Note_on_c, 0, 79, 100
1, 143244, Note_on_c, 0, 62, 100
1, 143244, Note_on_c, 1, 59, 100
1, 143320, Note_on_c, 0, 62, 0
1, 143320, Note_on_c, 1, 59, 0
1, 143340, Note_on_c, 1, 55, 100
1, 143396, Note_on_c, 0, 79, 0
1, 143416, Note_on_c, 1, 55, 0
1, 143436, Note_on_c, 0, 63, 100
1, 143436, Note_on_c, 0, 60, 100
1, 143436, Note_on_c, 0, 67, 100
1, 143436, Note_on_c, 0, 79, 100
1, 143512, Note_on_c, 0, 60, 0
1, 143512, Note_on_c, 0, 63, 0
1, 143532, Note_on_c, 1, 55, 100
1, 143588, Note_on_c, 0, 67, 0
1, 143588, Note_on_c, 0, 79, 0
1, 143608, Note_on_c, 1, 55, 0
1, 143616, Note_on_c, 0, 67, 100
1, 143616, Note_on_c, 0, 79, 100
1, 143616, Note_on_c, 0, 62, 100
1, 143616, Note_on_c, 0, 65, 100
1, 143692, Note_on_c, 0, 65, 0
1, 143692, Note_on_c, 0, 62, 0
1, 143712, Note_on_c, 1, 55, 100
1, 143768, Note_on_c, 0, 79, 0
1, 143768, Note_on_c, 0, 67, 0
1, 143788, Note_on_c, 1, 55, 0
1, 143808, Note_on_c, 0, 63, 100
1, 143808, Note_on_c, 0, 79, 100
1, 143808, Note_on_c, 0, 67, 100
1, 143808, Note_on_c, 0, 60, 100
1, 143884, Note_on_c, 0, 60, 0
1, 143884, Note_on_c, 0, 63, 0
1, 143904, Note_on_c, 1, 55, 100
1, 143980, Note_on_c, 1, 55, 0
1, 144000, Note_on_c, 0, 63, 100
1, 144000, Note_on_c, 0, 60, 100
1, 144076, Note_on_c, 0, 60, 0
1, 144076, Note_on_c, 0, 63, 0
1, 144096, Note_on_c, 1, 55, 100
1, 144114, Note_on_c, 0, 79, 0
1, 144114, Note_on_c, 0, 67, 0
1, 144172, Note_on_c, 1, 55, 0
1, 144180, Note_on_c, 0, 77, 100
1, 144192, Note_on_c, 0, 77, 0
1, 144192, Note_on_c, 0, 75, 100
1, 144192, Note_on_c, 0, 60, 100
1, 144192, Note_on_c, 0, 63, 100
1, 144268, Note_on_c, 0, 63, 0
1, 144268, Note_on_c, 0, 60, 0
1, 144268, Note_on_c, 0, 75, 0
1, 144288, Note_on_c, 0, 74, 100
1, 144288, Note_on_c, 1, 55, 100
1, 144326, Note_on_c, 0, 74, 0
1, 144336, Note_on_c, 0, 72, 100
1, 144364, Note_on_c, 1, 55, 0
1, 144374, Note_on_c, 0, 72, 0
1, 144384, Note_on_c, 0, 79, 100
1, 144384, Note_on_c, 0, 62, 100
1, 144384, Note_on_c, 1, 59, 100
1, 144460, Note_on_c, 0, 62, 0
1, 144460, Note_on_c, 1, 59, 0
1, 144480, Note_on_c, 1, 55, 100
1, 144536, Note_on_c, 0, 79, 0
1, 144556, Note_on_c, 1, 55, 0
1, 144576, Note_on_c, 0, 60, 100
1, 144576, Note_on_c, 0, 63, 100
1, 144576, Note_on_c, 0, 79, 100
1, 144576, Note_on_c, 0, 67, 100
1, 144652, Note_on_c, 0, 63, 0
1, 144652, Note_on_c, 0, 60, 0
1, 144672, Note_on_c, 1, 55, 100
1, 144728, Note_on_c, 0, 79, 0
1, 144728, Note_on_c, 0, 67, 0
1, 144748, Note_on_c, 1, 55, 0
1, 144768, Note_on_c, 0, 67, 100
1, 144768, Note_on_c, 0, 79, 100
1, 144768, Note_on_c, 0, 62, 100
1, 144768, Note_on_c, 0, 65, 100
1, 144844, Note_on_c, 0, 65, 0
1, 144844, Note_on_c, 0, 62, 0
1, 144864, Note_on_c, 1, 55, 100
1, 144920, Note_on_c, 0, 79, 0
1, 144920, Note_on_c, 0, 67, 0
1, 144940, Note_on_c, 1, 55, 0
1, 144960, Note_on_c, 0, 63, 100
1, 144960, Note_on_c, 0, 79, 100
1, 144960, Note_on_c, 0, 67, 100
1, 144960, Note_on_c, 0, 60, 100
1, 145036, Note_on_c, 0, 60, 0
1, 145036, Note_on_c, 0, 63, 0
1, 145056, Note_on_c, 1, 55, 100
1, 145132, Note_on_c, 1, 55, 0
1, 145152, Note_on_c, 0, 63, 100
1, 145152, Note_on_c, 0, 60, 100
1, 145228, Note_on_c, 0, 60, 0
1, 145228, Note_on_c, 0, 63, 0
1, 145248, Note_on_c, 1, 55, 100
1, 145266, Note_on_c, 0, 79, 0
1, 145266, Note_on_c, 0, 67, 0
1, 145324, Note_on_c, 1, 55, 0
1, 145332, Note_on_c, 0, 77, 100
1, 145344, Note_on_c, 0, 77, 0
1, 145344, Note_on_c, 0, 75, 100
1, 145344, Note_on_c, 0, 60, 100
1, 145344, Note_on_c, 0, 63, 100
1, 145420, Note_on_c, 0, 63, 0
1, 145420, Note_on_c, 0, 60, 0
1, 145420, Note_on_c, 0, 75, 0
1, 145440, Note_on_c, 0, 74, 100
1, 145440, Note_on_c, 1, 55, 100
1, 145478, Note_on_c, 0, 74, 0
1, 145488, Note_on_c, 0, 72, 100
1, 145516, Note_on_c, 1, 55, 0
1, 145526, Note_on_c, 0, 72, 0
1, 145536, Note_on_c, 0, 80, 100
1, 145536, Note_on_c, 0, 74, 100
1, 145536, Note_on_c, 0, 71, 100
1, 145688, Note_on_c, 0, 74, 0
1, 145688, Note_on_c, 0, 71, 0
1, 145688, Note_on_c, 0, 80, 0
1, 145728, Note_on_c, 1, 41, 100
1, 145728, Note_on_c, 1, 53, 100
1, 145880, Note_on_c, 1, 53, 0
1, 145880, Note_on_c, 1, 41, 0
1, 145920, Note_on_c, 0, 65, 100
1, 145920, Note_on_c, 1, 53, 100
1, 146072, Note_on_c, 0, 65, 0
1, 146072, Note_on_c, 1, 53, 0
1, 146112, Note_on_c, 0, 72, 100
1, 146112, Note_on_c, 0, 75, 100
1, 146112, Note_on_c, 0, 79, 100
1, 146264, Note_on_c, 0, 79, 0
1, 146264, Note_on_c, 0, 75, 0
1, 146264, Note_on_c, 0, 72, 0
1, 146304, Note_on_c, 1, 51, 100
1, 146304, Note_on_c, 1, 39, 100
1, 146456, Note_on_c, 1, 39, 0
1, 146456, Note_on_c, 1, 51, 0
1, 146496, Note_on_c, 0, 63, 100
1, 146496, Note_on_c, 1, 51, 100
1, 146648, Note_on_c, 0, 63, 0
1, 146648, Note_on_c, 1, 51, 0
1, 146688, Note_on_c, 0, 62, 100
1, 146688, Note_on_c, 1, 50, 100
1, 146840, Note_on_c, 0, 62, 0
1, 146840, Note_on_c, 1, 50, 0
1, 146880, Note_on_c, 0, 83, 100
1, 146880, Note_on_c, 0, 77, 100
1, 146880, Note_on_c, 0, 74, 100
1, 147032, Note_on_c, 0, 74, 0
1, 147032, Note_on_c, 0, 77, 0
1, 147032, Note_on_c, 0, 83, 0
1, 147072, Note_on_c, 0, 86, 100
1, 147072, Note_on_c, 0, 83, 100
1, 147072, Note_on_c, 0, 77, 100
1, 147224, Note_on_c, 0, 77, 0
1, 147224, Note_on_c, 0, 83, 0
1, 147224, Note_on_c, 0, 86, 0
1, 147264, Note_on_c, 0, 79, 100
1, 147264, Note_on_c, 0, 86, 100
1, 147264, Note_on_c, 0, 89, 100
1, 147264, Note_on_c, 1, 59, 100
1, 147264, Note_on_c, 1, 47, 100
1, 147416, Note_on_c, 0, 89, 0
1, 147416, Note_on_c, 0, 86, 0
1, 147416, Note_on_c, 0, 79, 0
1, 147416, Note_on_c, 1, 47, 0
1, 147416, Note_on_c, 1, 59, 0
1, 148224, Note_on_c, 0, 75, 60
1, 148684, Note_on_c, 0, 75, 0
1, 148800, Note_on_c, 0, 66, 60
1, 148800, Note_on_c, 0, 60, 60
1, 148800, Note_on_c, 0, 63, 60
1, 149260, Note_on_c, 0, 63, 0
1, 149260, Note_on_c, 0, 60, 0
1, 149260, Note_on_c, 0, 66, 0
1, 149376, Note_on_c, 0, 67, 60
1, 149376, Note_on_c, 0, 62, 60
1, 149376, Note_on_c, 0, 65, 60
1, 149376, Note_on_c, 1, 59, 60
1, 149606, Note_on_c, 0, 67, 0
1, 149664, Note_on_c, 0, 68, 60
1, 149682, Note_on_c, 0, 62, 0
1, 149682, Note_on_c, 0, 65, 0
1, 149682, Note_on_c, 1, 59, 0
1, 149740, Note_on_c, 0, 68, 0
1, 149760, Note_on_c, 0, 67, 60
1, 149760, Note_on_c, 0, 60, 60
1, 149760, Note_on_c, 0, 63, 60
1, 149912, Note_on_c, 0, 63, 0
1, 149912, Note_on_c, 0, 60, 0
1, 149912, Note_on_c, 0, 67, 0
1, 149952, Note_on_c, 1, 53, 60
1, 149964, Note_on_c, 0, 62, 60
1, 149964, Note_on_c, 0, 65, 60
1, 150104, Note_on_c, 1, 53, 0
1, 150116, Note_on_c, 0, 65, 0
1, 150116, Note_on_c, 0, 62, 0
1, 150144, Note_on_c, 1, 55, 60
1, 150156, Note_on_c, 0, 63, 60
1, 150156, Note_on_c, 0, 60, 60
1, 150296, Note_on_c, 1, 55, 0
1, 150308, Note_on_c, 0, 60, 0
1, 150308, Note_on_c, 0, 63, 0
1, 150336, Note_on_c, 1, 43, 60
1, 150348, Note_on_c, 0, 62, 60
1, 150348, Note_on_c, 1, 59, 60
1, 150488, Note_on_c, 1, 43, 0
1, 150500, Note_on_c, 0, 62, 0
1, 150500, Note_on_c, 1, 59, 0
1, 150528, Note_on_c, 0, 60, 60
1, 150528, Note_on_c, 1, 48, 60
1, 150680, Note_on_c, 0, 60, 0
1, 150680, Note_on_c, 1, 48, 0
1, 150900, Note_on_c, 0, 77, 60
1, 150912, Note_on_c, 0, 77, 0
1, 150912, Note_on_c, 0, 75, 100
1, 150988, Note_on_c, 0, 75, 0
1, 151008, Note_on_c, 0, 74, 100
1, 151046, Note_on_c, 0, 74, 0
1, 151056, Note_on_c, 0, 72, 100
1, 151094, Note_on_c, 0, 72, 0
1, 151104, Note_on_c, 0, 79, 100
1, 151104, Note_on_c, 0, 62, 100
1, 151104, Note_on_c, 1, 59, 100
1, 151180, Note_on_c, 0, 62, 0
1, 151180, Note_on_c, 1, 59, 0
1, 151200, Note_on_c, 1, 55, 100
1, 151256, Note_on_c, 0, 79, 0
1, 151276, Note_on_c, 1, 55, 0
1, 151296, Note_on_c, 0, 79, 100
1, 151296, Note_on_c, 0, 60, 100
1, 151296, Note_on_c, 0, 63, 100
1, 151372, Note_on_c, 0, 63, 0
1, 151372, Note_on_c, 0, 60, 0
1, 151392, Note_on_c, 1, 55, 100
1, 151448, Note_on_c, 0, 79, 0
1, 151468, Note_on_c, 1, 55, 0
1, 151488, Note_on_c, 0, 62, 100
1, 151488, Note_on_c, 0, 65, 100
1, 151488, Note_on_c, 0, 79, 100
1, 151564, Note_on_c, 0, 65, 0
1, 151564, Note_on_c, 0, 62, 0
1, 151584, Note_on_c, 1, 55, 100
1, 151640, Note_on_c, 0, 79, 0
1, 151660, Note_on_c, 1, 55, 0
1, 151680, Note_on_c, 0, 63, 100
1, 151680, Note_on_c, 0, 79, 100
1, 151680, Note_on_c, 0, 60, 100
1, 151756, Note_on_c, 0, 60, 0
1, 151756, Note_on_c, 0, 63, 0
1, 151776, Note_on_c, 1, 55, 100
1, 151852, Note_on_c, 1, 55, 0
1, 151872, Note_on_c, 0, 63, 100
1, 151872, Note_on_c, 0, 60, 100
1, 151948, Note_on_c, 0, 60, 0
1, 151948, Note_on_c, 0, 63, 0
1, 151968, Note_on_c, 1, 55, 100
1, 151986, Note_on_c, 0, 79, 0
1, 152044, Note_on_c, 1, 55, 0
1, 152052, Note_on_c, 0, 77, 100
1, 152064, Note_on_c, 0, 77, 0
1, 152064, Note_on_c, 0, 75, 100
1, 152064, Note_on_c, 0, 60, 100
1, 152064, Note_on_c, 0, 63, 100
1, 152140, Note_on_c, 0, 63, 0
1, 152140, Note_on_c, 0, 60, 0
1, 152140, Note_on_c, 0, 75, 0
1, 152160, Note_on_c, 0, 74, 100
1, 152160, Note_on_c, 1, 55, 100
1, 152198, Note_on_c, 0, 74, 0
1, 152208, Note_on_c, 0, 72, 100
1, 152236, Note_on_c, 1, 55, 0
1, 152246, Note_on_c, 0, 72, 0
1, 152256, Note_on_c, 0, 79, 100
1, 152256, Note_on_c, 0, 62, 100
1, 152256, Note_on_c, 1, 59, 100
1, 152332, Note_on_c, 0, 62, 0
1, 152332, Note_on_c, 1, 59, 0
1, 152352, Note_on_c, 1, 55, 100
1, 152408, Note_on_c, 0, 79, 0
1, 152428, Note_on_c, 1, 55, 0
1, 152448, Note_on_c, 0, 79, 100
1, 152448, Note_on_c, 0, 60, 100
1, 152448, Note_on_c, 0, 63, 100
1, 152524, Note_on_c, 0, 63, 0
1, 152524, Note_on_c, 0, 60, 0
1, 152544, Note_on_c, 1, 55, 100
1, 152600, Note_on_c, 0, 79, 0
1, 152620, Note_on_c, 1, 55, 0
1, 152640, Note_on_c, 0, 62, 100
1, 152640, Note_on_c, 0, 65, 100
1, 152640, Note_on_c, 0, 79, 100
1, 152716, Note_on_c, 0, 65, 0
1, 152716, Note_on_c, 0, 62, 0
1, 152736, Note_on_c, 1, 55, 100
1, 152792, Note_on_c, 0, 79, 0
1, 152812, Note_on_c, 1, 55, 0
1, 152832, Note_on_c, 0, 63, 100
1, 152832, Note_on_c, 0, 79, 100
1, 152832, Note_on_c, 0, 60, 100
1, 152908, Note_on_c, 0, 60, 0
1, 152908, Note_on_c, 0, 63, 0
1, 152928, Note_on_c, 1, 55, 100
1, 153004, Note_on_c, 1, 55, 0
1, 153024, Note_on_c, 0, 63, 100
1, 153024, Note_on_c, 0, 60, 100
1, 153100, Note_on_c, 0, 60, 0
1, 153100, Note_on_c, 0, 63, 0
1, 153120, Note_on_c, 1, 55, 100
1, 153138, Note_on_c, 0, 79, 0
1, 153196, Note_on_c, 1, 55, 0
1, 153204, Note_on_c, 0, 77, 100
1, 153216, Note_on_c, 0, 77, 0
1, 153216, Note_on_c, 0, 75, 100
1, 153216, Note_on_c, 0, 60, 100
1, 153216, Note_on_c, 0, 63, 100
1, 153292, Note_on_c, 0, 63, 0
1, 153292, Note_on_c, 0, 60, 0
1, 153292, Note_on_c, 0, 75, 0
1, 153312, Note_on_c, 0, 74, 100
1, 153312, Note_on_c, 1, 55, 100
1, 153350, Note_on_c, 0, 74, 0
1, 153360, Note_on_c, 0, 72, 100
1, 153388, Note_on_c, 1, 55, 0
1, 153398, Note_on_c, 0, 72, 0
1, 153408, Note_on_c, 0, 80, 100
1, 153408, Note_on_c, 0, 74, 100
1, 153408, Note_on_c, 0, 71, 100
1, 153560, Note_on_c, 0, 74, 0
1, 153560, Note_on_c, 0, 71, 0
1, 153560, Note_on_c, 0, 80, 0
1, 153600, Note_on_c, 1, 53, 100
1, 153600, Note_on_c, 1, 41, 100
1, 153752, Note_on_c, 1, 41, 0
1, 153752, Note_on_c, 1, 53, 0
1, 153792, Note_on_c, 0, 65, 100
1, 153792, Note_on_c, 1, 53, 100
1, 153944, Note_on_c, 0, 65, 0
1, 153944, Note_on_c, 1, 53, 0
1, 153984, Note_on_c, 0, 79, 100
1, 153984, Note_on_c, 0, 75, 100
1, 153984, Note_on_c, 0, 72, 100
1, 154136, Note_on_c, 0, 75, 0
1, 154136, Note_on_c, 0, 72, 0
1, 154136, Note_on_c, 0, 79, 0
1, 154176, Note_on_c, 1, 51, 100
1, 154176, Note_on_c, 1, 39, 100
1, 154328, Note_on_c, 1, 39, 0
1, 154328, Note_on_c, 1, 51, 0
1, 154368, Note_on_c, 0, 63, 100
1, 154368, Note_on_c, 1, 51, 100
1, 154520, Note_on_c, 0, 63, 0
1, 154520, Note_on_c, 1, 51, 0
1, 154560, Note_on_c, 0, 62, 100
1, 154560, Note_on_c, 1, 50, 100
1, 154712, Note_on_c, 0, 62, 0
1, 154712, Note_on_c, 1, 50, 0
1, 154752, Note_on_c, 0, 83, 100
1, 154752, Note_on_c, 0, 77, 100
1, 154752, Note_on_c, 0, 74, 100
1, 154904, Note_on_c, 0, 74, 0
1, 154904, Note_on_c, 0, 77, 0
1, 154904, Note_on_c, 0, 83, 0
1, 154944, Note_on_c, 0, 86, 100
1, 154944, Note_on_c, 0, 83, 100
1, 154944, Note_on_c, 0, 77, 100
1, 155096, Note_on_c, 0, 77, 0
1, 155096, Note_on_c, 0, 83, 0
1, 155096, Note_on_c, 0, 86, 0
1, 155136, Note_on_c, 0, 89, 100
1, 155136, Note_on_c, 0, 86, 100
1, 155136, Note_on_c, 0, 79, 100
1, 155136, Note_on_c, 1, 59, 100
1, 155136, Note_on_c, 1, 47, 100
1, 155288, Note_on_c, 0, 79, 0
1, 155288, Note_on_c, 0, 86, 0
1, 155288, Note_on_c, 0, 89, 0
1, 155288, Note_on_c, 1, 47, 0
1, 155288, Note_on_c, 1, 59, 0
1, 156288, Note_on_c, 0, 61, 100
1, 156288, Note_on_c, 1, 49, 100
1, 156440, Note_on_c, 0, 61, 0
1, 156440, Note_on_c, 1, 49, 0
1, 156480, Note_on_c, 0, 76, 100
1, 156480, Note_on_c, 0, 70, 100
1, 156480, Note_on_c, 0, 67, 100
1, 156480, Note_on_c, 1, 58, 100
1, 156480, Note_on_c, 1, 46, 100
1, 156632, Note_on_c, 0, 67, 0
1, 156632, Note_on_c, 0, 70, 0
1, 156632, Note_on_c, 0, 76, 0
1, 156632, Note_on_c, 1, 46, 0
1, 156632, Note_on_c, 1, 58, 0
1, 156672, Note_on_c, 0, 79, 100
1, 156672, Note_on_c, 0, 76, 100
1, 156672, Note_on_c, 0, 70, 100
1, 156672, Note_on_c, 1, 55, 100
1, 156672, Note_on_c, 1, 43, 100
1, 156824, Note_on_c, 0, 70, 0
1, 156824, Note_on_c, 0, 76, 0
1, 156824, Note_on_c, 0, 79, 0
1, 156824, Note_on_c, 1, 43, 0
1, 156824, Note_on_c, 1, 55, 0
1, 156864, Note_on_c, 0, 82, 100
1, 156864, Note_on_c, 0, 79, 100
1, 156864, Note_on_c, 0, 73, 100
1, 156864, Note_on_c, 1, 52, 100
1, 156864, Note_on_c, 1, 40, 100
1, 157016, Note_on_c, 0, 73, 0
1, 157016, Note_on_c, 0, 79, 0
1, 157016, Note_on_c, 0, 82, 0
1, 157016, Note_on_c, 1, 40, 0
1, 157016, Note_on_c, 1, 52, 0
1, 158016, Note_on_c, 1, 53, 60
1, 158168, Note_on_c, 1, 53, 0
1, 158208, Note_on_c, 1, 56, 60
1, 158360, Note_on_c, 1, 56, 0
1, 158400, Note_on_c, 0, 60, 60
1, 158552, Note_on_c, 0, 60, 0
1, 158592, Note_on_c, 1, 52, 60
1, 158744, Note_on_c, 1, 52, 0
1, 158784, Note_on_c, 1, 55, 60
1, 158936, Note_on_c, 1, 55, 0
1, 158976, Note_on_c, 1, 58, 60
1, 159128, Note_on_c, 1, 58, 0
1, 159168, Note_on_c, 0, 72, 60
1, 159168, Note_on_c, 1, 53, 60
1, 159320, Note_on_c, 0, 72, 0
1, 159320, Note_on_c, 1, 53, 0
1, 159360, Note_on_c, 1, 56, 60
1, 159512, Note_on_c, 1, 56, 0
1, 159552, Note_on_c, 0, 60, 60
1, 159704, Note_on_c, 0, 60, 0
1, 159744, Note_on_c, 0, 72, 60
1, 159744, Note_on_c, 1, 52, 60
1, 159896, Note_on_c, 0, 72, 0
1, 159896, Note_on_c, 1, 52, 0
1, 159936, Note_on_c, 1, 55, 60
1, 160088, Note_on_c, 1, 55, 0
1, 160128, Note_on_c, 1, 58, 60
1, 160224, Note_on_c, 0, 72, 60
1, 160280, Note_on_c, 1, 58, 0
1, 160300, Note_on_c, 0, 72, 0
1, 160320, Note_on_c, 0, 73, 60
1, 160320, Note_on_c, 1, 53, 60
1, 160472, Note_on_c, 1, 53, 0
1, 160512, Note_on_c, 1, 56, 60
1, 160626, Note_on_c, 0, 73, 0
1, 160664, Note_on_c, 1, 56, 0
1, 160704, Note_on_c, 0, 72, 60
1, 160704, Note_on_c, 0, 60, 60
1, 160856, Note_on_c, 0, 60, 0
1, 160856, Note_on_c, 0, 72, 0
1, 160896, Note_on_c, 1, 52, 60
1, 161048, Note_on_c, 1, 52, 0
1, 161088, Note_on_c, 1, 55, 60
1, 161240, Note_on_c, 1, 55, 0
1, 161280, Note_on_c, 1, 58, 60
1, 161376, Note_on_c, 0, 84, 60
1, 161432, Note_on_c, 1, 58, 0
1, 161452, Note_on_c, 0, 84, 0
1, 161472, Note_on_c, 0, 85, 60
1, 161472, Note_on_c, 1, 53, 60
1, 161624, Note_on_c, 1, 53, 0
1, 161664, Note_on_c, 1, 56, 60
1, 161778, Note_on_c, 0, 85, 0
1, 161816, Note_on_c, 1, 56, 0
1, 161856, Note_on_c, 0, 84, 60
1, 161856, Note_on_c, 0, 60, 60
1, 162008, Note_on_c, 0, 60, 0
1, 162008, Note_on_c, 0, 84, 0
1, 162048, Note_on_c, 1, 52, 60
1, 162200, Note_on_c, 1, 52, 0
1, 162240, Note_on_c, 1, 55, 60
1, 162392, Note_on_c, 1, 55, 0
1, 162432, Note_on_c, 1, 58, 60
1, 162528, Note_on_c, 0, 60, 60
1, 162584, Note_on_c, 1, 58, 0
1, 162604, Note_on_c, 0, 60, 0
1, 162624, Note_on_c, 0, 61, 60
1, 162624, Note_on_c, 1, 53, 60
1, 162776, Note_on_c, 1, 53, 0
1, 162816, Note_on_c, 1, 56, 60
1, 162930, Note_on_c, 0, 61, 0
1, 162968, Note_on_c, 1, 56, 0
1, 163008, Note_on_c, 0, 60, 60
1, 163008, Note_on_c, 1, 53, 60
1, 163160, Note_on_c, 0, 60, 0
1, 163160, Note_on_c, 1, 53, 0
1, 163200, Note_on_c, 1, 54, 70
1, 163352, Note_on_c, 1, 54, 0
1, 163392, Note_on_c, 1, 57, 80
1, 163544, Note_on_c, 1, 57, 0
1, 163584, Note_on_c, 0, 63, 90
1, 163680, Note_on_c, 0, 84, 90
1, 163736, Note_on_c, 0, 63, 0
1, 163756, Note_on_c, 0, 84, 0
1, 163776, Note_on_c, 0, 72, 100
1, 163776, Note_on_c, 1, 55, 100
1, 163928, Note_on_c, 1, 55, 0
1, 163968, Note_on_c, 0, 60, 100
1, 164120, Note_on_c, 0, 60, 0
1, 164160, Note_on_c, 0, 63, 100
1, 164236, Note_on_c, 0, 72, 0
1, 164312, Note_on_c, 0, 63, 0
1, 164352, Note_on_c, 0, 74, 100
1, 164352, Note_on_c, 1, 55, 100
1, 164390, Note_on_c, 0, 74, 0
1, 164400, Note_on_c, 0, 75, 100
1, 164438, Note_on_c, 0, 75, 0
1, 164448, Note_on_c, 0, 74, 100
1, 164486, Note_on_c, 0, 74, 0
1, 164496, Note_on_c, 0, 75, 100
1, 164504, Note_on_c, 1, 55, 0
1, 164534, Note_on_c, 0, 75, 0
1, 164544, Note_on_c, 0, 74, 100
1, 164544, Note_on_c, 0, 62, 100
1, 164582, Note_on_c, 0, 74, 0
1, 164592, Note_on_c, 0, 75, 100
1, 164630, Note_on_c, 0, 75, 0
1, 164640, Note_on_c, 0, 74, 100
1, 164678, Note_on_c, 0, 74, 0
1, 164688, Note_on_c, 0, 75, 100
1, 164696, Note_on_c, 0, 62, 0
1, 164726, Note_on_c, 0, 75, 0
1, 164736, Note_on_c, 0, 65, 100
1, 164736, Note_on_c, 0, 74, 100
1, 164774, Note_on_c, 0, 74, 0
1, 164784, Note_on_c, 0, 75, 100
1, 164822, Note_on_c, 0, 75, 0
1, 164832, Note_on_c, 0, 72, 100
1, 164870, Note_on_c, 0, 72, 0
1, 164880, Note_on_c, 0, 74, 100
1, 164888, Note_on_c, 0, 65, 0
1, 164918, Note_on_c, 0, 74, 0
1, 164928, Note_on_c, 0, 63, 60
1, 164928, Note_on_c, 0, 72, 60
1, 164928, Note_on_c, 0, 60, 60
1, 165004, Note_on_c, 0, 72, 0
1, 165024, Note_on_c, 0, 67, 60
1, 165080, Note_on_c, 0, 63, 0
1, 165080, Note_on_c, 0, 60, 0
1, 165100, Note_on_c, 0, 67, 0
1, 165120, Note_on_c, 0, 63, 60
1, 165196, Note_on_c, 0, 63, 0
1, 165216, Note_on_c, 0, 67, 60
1, 165292, Note_on_c, 0, 67, 0
1, 165312, Note_on_c, 0, 63, 60
1, 165388, Note_on_c, 0, 63, 0
1, 165408, Note_on_c, 0, 67, 60
1, 165484, Note_on_c, 0, 67, 0
1, 165504, Note_on_c, 0, 65, 60
1, 165504, Note_on_c, 1, 55, 60
1, 165580, Note_on_c, 0, 65, 0
1, 165600, Note_on_c, 0, 67, 60
1, 165656, Note_on_c, 1, 55, 0
1, 165676, Note_on_c, 0, 67, 0
1, 165696, Note_on_c, 0, 65, 60
1, 165696, Note_on_c, 1, 57, 60
1, 165772, Note_on_c, 0, 65, 0
1, 165792, Note_on_c, 0, 67, 60
1, 165848, Note_on_c, 1, 57, 0
1, 165868, Note_on_c, 0, 67, 0
1, 165888, Note_on_c, 0, 65, 60
1, 165888, Note_on_c, 1, 59, 60
1, 165964, Note_on_c, 0, 65, 0
1, 165984, Note_on_c, 0, 67, 60
1, 166040, Note_on_c, 1, 59, 0
1, 166060, Note_on_c, 0, 67, 0
1, 166080, Note_on_c, 0, 60, 60
1, 166080, Note_on_c, 0, 63, 60
1, 166156, Note_on_c, 0, 63, 0
1, 166176, Note_on_c, 0, 60, 60
1, 166232, Note_on_c, 0, 60, 0
1, 166252, Note_on_c, 0, 60, 0
1, 166272, Note_on_c, 1, 55, 60
1, 166348, Note_on_c, 1, 55, 0
1, 166368, Note_on_c, 0, 60, 60
1, 166444, Note_on_c, 0, 60, 0
1, 166464, Note_on_c, 1, 51, 60
1, 166540, Note_on_c, 1, 51, 0
1, 166560, Note_on_c, 1, 55, 60
1, 166636, Note_on_c, 1, 55, 0
1, 166656, Note_on_c, 0, 67, 60
1, 166656, Note_on_c, 1, 53, 60
1, 166732, Note_on_c, 1, 53, 0
1, 166752, Note_on_c, 1, 55, 60
1, 166808, Note_on_c, 0, 67, 0
1, 166828, Note_on_c, 1, 55, 0
1, 166848, Note_on_c, 0, 69, 60
1, 166848, Note_on_c, 1, 53, 60
1, 166924, Note_on_c, 1, 53, 0
1, 166944, Note_on_c, 1, 55, 60
1, 167000, Note_on_c, 0, 69, 0
1, 167020, Note_on_c, 1, 55, 0
1, 167040, Note_on_c, 0, 71, 60
1, 167040, Note_on_c, 1, 53, 60
1, 167116, Note_on_c, 1, 53, 0
1, 167136, Note_on_c, 1, 55, 60
1, 167192, Note_on_c, 0, 71, 0
1, 167212, Note_on_c, 1, 55, 0
1, 167232, Note_on_c, 0, 72, 60
1, 167232, Note_on_c, 1, 51, 60
1, 167308, Note_on_c, 1, 51, 0
1, 167328, Note_on_c, 1, 55, 60
1, 167384, Note_on_c, 0, 72, 0
1, 167404, Note_on_c, 1, 55, 0
1, 167424, Note_on_c, 1, 51, 60
1, 167500, Note_on_c, 1, 51, 0
1, 167520, Note_on_c, 1, 55, 60
1, 167596, Note_on_c, 1, 55, 0
1, 167616, Note_on_c, 1, 51, 60
1, 167692, Note_on_c, 1, 51, 0
1, 167712, Note_on_c, 1, 55, 60
1, 167788, Note_on_c, 1, 55, 0
1, 167808, Note_on_c, 0, 79, 60
1, 167808, Note_on_c, 1, 53, 60
1, 167884, Note_on_c, 1, 53, 0
1, 167904, Note_on_c, 1, 55, 60
1, 167960, Note_on_c, 0, 79, 0
1, 167980, Note_on_c, 1, 55, 0
1, 168000, Note_on_c, 0, 81, 60
1, 168000, Note_on_c, 1, 53, 60
1, 168076, Note_on_c, 1, 53, 0
1, 168096, Note_on_c, 1, 55, 60
1, 168152, Note_on_c, 0, 81, 0
1, 168172, Note_on_c, 1, 55, 0
1, 168192, Note_on_c, 0, 83, 60
1, 168192, Note_on_c, 1, 53, 60
1, 168268, Note_on_c, 1, 53, 0
1, 168288, Note_on_c, 1, 55, 60
1, 168344, Note_on_c, 0, 83, 0
1, 168364, Note_on_c, 1, 55, 0
1, 168384, Note_on_c, 0, 84, 60
1, 168384, Note_on_c, 1, 51, 60
1, 168460, Note_on_c, 1, 51, 0
1, 168480, Note_on_c, 1, 55, 60
1, 168556, Note_on_c, 1, 55, 0
1, 168576, Note_on_c, 1, 51, 60
1, 168652, Note_on_c, 1, 51, 0
1, 168672, Note_on_c, 1, 55, 60
1, 168748, Note_on_c, 1, 55, 0
1, 168768, Note_on_c, 1, 51, 60
1, 168844, Note_on_c, 0, 84, 0
1, 168844, Note_on_c, 1, 51, 0
1, 168864, Note_on_c, 1, 55, 60
1, 168940, Note_on_c, 1, 55, 0
1, 168960, Note_on_c, 0, 82, 60
1, 168960, Note_on_c, 1, 52, 60
1, 169036, Note_on_c, 1, 52, 0
1, 169056, Note_on_c, 0, 60, 60
1, 169132, Note_on_c, 0, 60, 0
1, 169152, Note_on_c, 1, 52, 60
1, 169228, Note_on_c, 1, 52, 0
1, 169248, Note_on_c, 0, 60, 60
1, 169324, Note_on_c, 0, 60, 0
1, 169344, Note_on_c, 1, 52, 60
1, 169420, Note_on_c, 0, 82, 0
1, 169420, Note_on_c, 1, 52, 0
1, 169440, Note_on_c, 0, 60, 60
1, 169516, Note_on_c, 0, 60, 0
1, 169536, Note_on_c, 0, 80, 60
1, 169536, Note_on_c, 1, 53, 60
1, 169612, Note_on_c, 1, 53, 0
1, 169632, Note_on_c, 0, 60, 60
1, 169708, Note_on_c, 0, 60, 0
1, 169728, Note_on_c, 1, 53, 60
1, 169804, Note_on_c, 1, 53, 0
1, 169824, Note_on_c, 0, 60, 60
1, 169900, Note_on_c, 0, 60, 0
1, 169920, Note_on_c, 1, 53, 60
1, 169996, Note_on_c, 0, 80, 0
1, 169996, Note_on_c, 1, 53, 0
1, 170016, Note_on_c, 0, 60, 60
1, 170092, Note_on_c, 0, 60, 0
1, 170112, Note_on_c, 0, 77, 60
1, 170112, Note_on_c, 1, 55, 60
1, 170188, Note_on_c, 1, 55, 0
1, 170208, Note_on_c, 1, 59, 60
1, 170284, Note_on_c, 1, 59, 0
1, 170304, Note_on_c, 1, 55, 60
1, 170380, Note_on_c, 1, 55, 0
1, 170400, Note_on_c, 1, 59, 60
1, 170476, Note_on_c, 1, 59, 0
1, 170496, Note_on_c, 1, 55, 60
1, 170572, Note_on_c, 0, 77, 0
1, 170572, Note_on_c, 1, 55, 0
1, 170592, Note_on_c, 1, 59, 60
1, 170668, Note_on_c, 1, 59, 0
1, 170688, Note_on_c, 0, 75, 60
1, 170688, Note_on_c, 1, 56, 60
1, 170764, Note_on_c, 1, 56, 0
1, 170784, Note_on_c, 0, 60, 60
1, 170860, Note_on_c, 0, 60, 0
1, 170880, Note_on_c, 1, 56, 60
1, 170956, Note_on_c, 1, 56, 0
1, 170976, Note_on_c, 0, 60, 60
1, 171052, Note_on_c, 0, 60, 0
1, 171072, Note_on_c, 1, 56, 60
1, 171148, Note_on_c, 0, 75, 0
1, 171148, Note_on_c, 1, 56, 0
1, 171168, Note_on_c, 0, 60, 60
1, 171244, Note_on_c, 0, 60, 0
1, 171264, Note_on_c, 0, 73, 60
1, 171264, Note_on_c, 1, 53, 60
1, 171340, Note_on_c, 1, 53, 0
1, 171360, Note_on_c, 1, 56, 60
1, 171436, Note_on_c, 1, 56, 0
1, 171456, Note_on_c, 1, 53, 60
1, 171532, Note_on_c, 1, 53, 0
1, 171552, Note_on_c, 1, 56, 60
1, 171628, Note_on_c, 1, 56, 0
1, 171648, Note_on_c, 1, 53, 60
1, 171724, Note_on_c, 0, 73, 0
1, 171724, Note_on_c, 1, 53, 0
1, 171744, Note_on_c, 1, 56, 60
1, 171820, Note_on_c, 1, 56, 0
1, 171840, Note_on_c, 0, 72, 60
1, 171840, Note_on_c, 1, 55, 60
1, 171916, Note_on_c, 1, 55, 0
1, 171936, Note_on_c, 0, 63, 60
1, 172012, Note_on_c, 0, 63, 0
1, 172032, Note_on_c, 1, 55, 60
1, 172108, Note_on_c, 1, 55, 0
1, 172128, Note_on_c, 0, 63, 60
1, 172204, Note_on_c, 0, 63, 0
1, 172224, Note_on_c, 1, 55, 60
1, 172300, Note_on_c, 0, 72, 0
1, 172300, Note_on_c, 1, 55, 0
1, 172320, Note_on_c, 0, 63, 60
1, 172396, Note_on_c, 0, 63, 0
1, 172416, Note_on_c, 0, 71, 60
1, 172416, Note_on_c, 1, 55, 60
1, 172492, Note_on_c, 1, 55, 0
1, 172512, Note_on_c, 0, 62, 60
1, 172588, Note_on_c, 0, 62, 0
1, 172608, Note_on_c, 1, 55, 60
1, 172684, Note_on_c, 1, 55, 0
1, 172704, Note_on_c, 0, 62, 60
1, 172780, Note_on_c, 0, 62, 0
1, 172800, Note_on_c, 1, 55, 60
1, 172876, Note_on_c, 0, 71, 0
1, 172876, Note_on_c, 1, 55, 0
1, 172896, Note_on_c, 0, 62, 60
1, 172972, Note_on_c, 0, 62, 0
1, 172992, Note_on_c, 0, 63, 60
1, 172992, Note_on_c, 1, 56, 60
1, 173068, Note_on_c, 0, 63, 0
1, 173088, Note_on_c, 0, 72, 60
1, 173164, Note_on_c, 0, 72, 0
1, 173184, Note_on_c, 0, 63, 60
1, 173260, Note_on_c, 0, 63, 0
1, 173280, Note_on_c, 0, 72, 60
1, 173356, Note_on_c, 0, 72, 0
1, 173376, Note_on_c, 0, 63, 60
1, 173452, Note_on_c, 0, 63, 0
1, 173452, Note_on_c, 1, 56, 0
1, 173472, Note_on_c, 0, 72, 60
1, 173548, Note_on_c, 0, 72, 0
1, 173568, Note_on_c, 0, 63, 60
1, 173568, Note_on_c, 0, 84, 60
1, 173644, Note_on_c, 0, 63, 0
1, 173664, Note_on_c, 0, 72, 60
1, 173740, Note_on_c, 0, 72, 0
1, 173760, Note_on_c, 0, 63, 60
1, 173836, Note_on_c, 0, 63, 0
1, 173856, Note_on_c, 0, 72, 60
1, 173932, Note_on_c, 0, 72, 0
1, 173952, Note_on_c, 0, 63, 60
1, 174028, Note_on_c, 0, 84, 0
1, 174028, Note_on_c, 0, 63, 0
1, 174048, Note_on_c, 0, 72, 60
1, 174124, Note_on_c, 0, 72, 0
1, 174144, Note_on_c, 0, 63, 60
1, 174144, Note_on_c, 0, 87, 60
1, 174220, Note_on_c, 0, 63, 0
1, 174240, Note_on_c, 0, 72, 60
1, 174316, Note_on_c, 0, 72, 0
1, 174336, Note_on_c, 0, 63, 60
1, 174412, Note_on_c, 0, 63, 0
1, 174432, Note_on_c, 0, 72, 60
1, 174508, Note_on_c, 0, 72, 0
1, 174528, Note_on_c, 0, 63, 60
1, 174604, Note_on_c, 0, 87, 0
1, 174604, Note_on_c, 0, 63, 0
1, 174624, Note_on_c, 0, 72, 60
1, 174700, Note_on_c, 0, 72, 0
1, 174720, Note_on_c, 0, 63, 60
1, 174720, Note_on_c, 1, 42, 60
1, 174796, Note_on_c, 0, 63, 0
1, 174816, Note_on_c, 0, 72, 60
1, 174892, Note_on_c, 0, 72, 0
1, 174912, Note_on_c, 0, 63, 60
1, 174988, Note_on_c, 0, 63, 0
1, 175008, Note_on_c, 0, 72, 60
1, 175084, Note_on_c, 0, 72, 0
1, 175104, Note_on_c, 0, 63, 60
1, 175180, Note_on_c, 0, 63, 0
1, 175180, Note_on_c, 1, 42, 0
1, 175200, Note_on_c, 0, 72, 60
1, 175276, Note_on_c, 0, 72, 0
1, 175296, Note_on_c, 0, 63, 60
1, 175296, Note_on_c, 1, 43, 60
1, 175372, Note_on_c, 0, 63, 0
1, 175392, Note_on_c, 0, 72, 60
1, 175468, Note_on_c, 0, 72, 0
1, 175488, Note_on_c, 0, 63, 60
1, 175564, Note_on_c, 0, 63, 0
1, 175584, Note_on_c, 0, 72, 60
1, 175660, Note_on_c, 0, 72, 0
1, 175680, Note_on_c, 0, 63, 60
1, 175756, Note_on_c, 0, 63, 0
1, 175756, Note_on_c, 1, 43, 0
1, 175776, Note_on_c, 0, 72, 60
1, 175852, Note_on_c, 0, 72, 0
1, 175872, Note_on_c, 0, 63, 60
1, 175872, Note_on_c, 1, 44, 60
1, 175948, Note_on_c, 0, 63, 0
1, 175968, Note_on_c, 0, 72, 60
1, 176044, Note_on_c, 0, 72, 0
1, 176064, Note_on_c, 0, 63, 60
1, 176140, Note_on_c, 0, 63, 0
1, 176160, Note_on_c, 0, 72, 60
1, 176236, Note_on_c, 0, 72, 0
1, 176256, Note_on_c, 0, 63, 60
1, 176332, Note_on_c, 0, 63, 0
1, 176332, Note_on_c, 1, 44, 0
1, 176352, Note_on_c, 0, 72, 60
1, 176428, Note_on_c, 0, 72, 0
1, 176448, Note_on_c, 0, 62, 60
1, 176448, Note_on_c, 1, 45, 60
1, 176524, Note_on_c, 0, 62, 0
1, 176544, Note_on_c, 0, 72, 60
1, 176620, Note_on_c, 0, 72, 0
1, 176640, Note_on_c, 0, 62, 60
1, 176716, Note_on_c, 0, 62, 0
1, 176736, Note_on_c, 0, 72, 60
1, 176812, Note_on_c, 0, 72, 0
1, 176832, Note_on_c, 0, 62, 60
1, 176908, Note_on_c, 0, 62, 0
1, 176908, Note_on_c, 1, 45, 0
1, 176928, Note_on_c, 0, 72, 60
1, 177004, Note_on_c, 0, 72, 0
1, 177024, Note_on_c, 0, 62, 60
1, 177024, Note_on_c, 1, 43, 60
1, 177100, Note_on_c, 0, 62, 0
1, 177120, Note_on_c, 0, 71, 60
1, 177196, Note_on_c, 0, 71, 0
1, 177216, Note_on_c, 0, 62, 60
1, 177292, Note_on_c, 0, 62, 0
1, 177312, Note_on_c, 0, 71, 60
1, 177388, Note_on_c, 0, 71, 0
1, 177408, Note_on_c, 0, 62, 60
1, 177484, Note_on_c, 0, 62, 0
1, 177484, Note_on_c, 1, 43, 0
1, 177504, Note_on_c, 0, 71, 60
1, 177580, Note_on_c, 0, 71, 0
1, 177600, Note_on_c, 0, 63, 60
1, 177600, Note_on_c, 1, 48, 60
1, 177676, Note_on_c, 0, 63, 0
1, 177696, Note_on_c, 0, 72, 60
1, 177752, Note_on_c, 1, 48, 0
1, 177772, Note_on_c, 0, 72, 0
1, 177792, Note_on_c, 0, 67, 60
1, 177868, Note_on_c, 0, 67, 0
1, 177888, Note_on_c, 0, 63, 60
1, 177964, Note_on_c, 0, 63, 0
1, 177984, Note_on_c, 0, 67, 60
1, 178060, Note_on_c, 0, 67, 0
1, 178080, Note_on_c, 0, 63, 60
1, 178156, Note_on_c, 0, 63, 0
1, 178176, Note_on_c, 0, 62, 60
1, 178252, Note_on_c, 0, 62, 0
1, 178272, Note_on_c, 0, 65, 60
1, 178348, Note_on_c, 0, 65, 0
1, 178368, Note_on_c, 0, 79, 60
1, 178368, Note_on_c, 0, 67, 60
1, 178444, Note_on_c, 0, 67, 0
1, 178444, Note_on_c, 0, 79, 0
1, 178464, Note_on_c, 0, 81, 60
1, 178464, Note_on_c, 0, 65, 60
1, 178540, Note_on_c, 0, 65, 0
1, 178540, Note_on_c, 0, 81, 0
1, 178560, Note_on_c, 0, 83, 60
1, 178560, Note_on_c, 0, 67, 60
1, 178636, Note_on_c, 0, 67, 0
1, 178636, Note_on_c, 0, 83, 0
1, 178656, Note_on_c, 0, 79, 60
1, 178656, Note_on_c, 0, 65, 60
1, 178732, Note_on_c, 0, 65, 0
1, 178732, Note_on_c, 0, 79, 0
1, 178752, Note_on_c, 0, 84, 60
1, 178752, Note_on_c, 0, 60, 60
1, 178828, Note_on_c, 0, 60, 0
1, 178848, Note_on_c, 0, 63, 60
1, 178904, Note_on_c, 0, 84, 0
1, 178924, Note_on_c, 0, 63, 0
1, 178944, Note_on_c, 0, 72, 60
1, 178944, Note_on_c, 0, 67, 60
1, 179020, Note_on_c, 0, 67, 0
1, 179020, Note_on_c, 0, 72, 0
1, 179040, Note_on_c, 0, 74, 60
1, 179040, Note_on_c, 0, 63, 60
1, 179116, Note_on_c, 0, 63, 0
1, 179116, Note_on_c, 0, 74, 0
1, 179136, Note_on_c, 0, 75, 60
1, 179136, Note_on_c, 0, 67, 60
1, 179212, Note_on_c, 0, 67, 0
1, 179212, Note_on_c, 0, 75, 0
1, 179232, Note_on_c, 0, 72, 60
1, 179232, Note_on_c, 0, 63, 60
1, 179308, Note_on_c, 0, 63, 0
1, 179308, Note_on_c, 0, 72, 0
1, 179328, Note_on_c, 0, 79, 60
1, 179328, Note_on_c, 0, 62, 60
1, 179404, Note_on_c, 0, 62, 0
1, 179424, Note_on_c, 0, 65, 60
1, 179480, Note_on_c, 0, 79, 0
1, 179500, Note_on_c, 0, 65, 0
1, 179520, Note_on_c, 0, 71, 60
1, 179520, Note_on_c, 0, 67, 60
1, 179596, Note_on_c, 0, 67, 0
1, 179596, Note_on_c, 0, 71, 0
1, 179616, Note_on_c, 0, 72, 60
1, 179616, Note_on_c, 0, 65, 60
1, 179692, Note_on_c, 0, 65, 0
1, 179692, Note_on_c, 0, 72, 0
1, 179712, Note_on_c, 0, 74, 60
1, 179712, Note_on_c, 0, 67, 60
1, 179788, Note_on_c, 0, 67, 0
1, 179788, Note_on_c, 0, 74, 0
1, 179808, Note_on_c, 0, 71, 60
1, 179808, Note_on_c, 0, 65, 60
1, 179884, Note_on_c, 0, 65, 0
1, 179884, Note_on_c, 0, 71, 0
1, 179904, Note_on_c, 0, 72, 60
1, 179904, Note_on_c, 0, 60, 60
1, 179980, Note_on_c, 0, 60, 0
1, 180000, Note_on_c, 0, 63, 60
1, 180056, Note_on_c, 0, 72, 0
1, 180076, Note_on_c, 0, 63, 0
1, 180096, Note_on_c, 0, 67, 60
1, 180172, Note_on_c, 0, 67, 0
1, 180192, Note_on_c, 0, 63, 60
1, 180268, Note_on_c, 0, 63, 0
1, 180288, Note_on_c, 0, 67, 60
1, 180364, Note_on_c, 0, 67, 0
1, 180384, Note_on_c, 0, 63, 60
1, 180460, Note_on_c, 0, 63, 0
1, 180480, Note_on_c, 0, 62, 60
1, 180556, Note_on_c, 0, 62, 0
1, 180576, Note_on_c, 0, 65, 60
1, 180652, Note_on_c, 0, 65, 0
1, 180672, Note_on_c, 0, 67, 60
1, 180672, Note_on_c, 1, 43, 60
1, 180748, Note_on_c, 0, 67, 0
1, 180748, Note_on_c, 1, 43, 0
1, 180768, Note_on_c, 0, 65, 60
1, 180768, Note_on_c, 1, 45, 60
1, 180844, Note_on_c, 0, 65, 0
1, 180844, Note_on_c, 1, 45, 0
1, 180864, Note_on_c, 0, 67, 60
1, 180864, Note_on_c, 1, 47, 60
1, 180940, Note_on_c, 0, 67, 0
1, 180940, Note_on_c, 1, 47, 0
1, 180960, Note_on_c, 0, 65, 60
1, 180960, Note_on_c, 1, 43, 60
1, 181036, Note_on_c, 0, 65, 0
1, 181036, Note_on_c, 1, 43, 0
1, 181056, Note_on_c, 0, 60, 60
1, 181056, Note_on_c, 1, 48, 60
1, 181132, Note_on_c, 0, 60, 0
1, 181152, Note_on_c, 0, 63, 60
1, 181208, Note_on_c, 1, 48, 0
1, 181228, Note_on_c, 0, 63, 0
1, 181248, Note_on_c, 0, 67, 60
1, 181248, Note_on_c, 1, 36, 60
1, 181324, Note_on_c, 0, 67, 0
1, 181324, Note_on_c, 1, 36, 0
1, 181344, Note_on_c, 0, 63, 60
1, 181344, Note_on_c, 1, 38, 60
1, 181420, Note_on_c, 0, 63, 0
1, 181420, Note_on_c, 1, 38, 0
1, 181440, Note_on_c, 0, 67, 60
1, 181440, Note_on_c, 1, 39, 60
1, 181516, Note_on_c, 0, 67, 0
1, 181516, Note_on_c, 1, 39, 0
1, 181536, Note_on_c, 0, 63, 60
1, 181536, Note_on_c, 1, 36, 60
1, 181612, Note_on_c, 0, 63, 0
1, 181612, Note_on_c, 1, 36, 0
1, 181632, Note_on_c, 0, 62, 60
1, 181632, Note_on_c, 1, 43, 60
1, 181708, Note_on_c, 0, 62, 0
1, 181728, Note_on_c, 0, 65, 60
1, 181784, Note_on_c, 1, 43, 0
1, 181804, Note_on_c, 0, 65, 0
1, 181824, Note_on_c, 0, 67, 60
1, 181824, Note_on_c, 1, 31, 60
1, 181900, Note_on_c, 0, 67, 0
1, 181900, Note_on_c, 1, 31, 0
1, 181920, Note_on_c, 0, 65, 60
1, 181920, Note_on_c, 1, 33, 60
1, 181996, Note_on_c, 0, 65, 0
1, 181996, Note_on_c, 1, 33, 0
1, 182016, Note_on_c, 0, 67, 60
1, 182016, Note_on_c, 1, 35, 60
1, 182092, Note_on_c, 0, 67, 0
1, 182092, Note_on_c, 1, 35, 0
1, 182112, Note_on_c, 0, 65, 60
1, 182112, Note_on_c, 1, 31, 60
1, 182188, Note_on_c, 0, 65, 0
1, 182188, Note_on_c, 1, 31, 0
1, 182208, Note_on_c, 0, 60, 60
1, 182208, Note_on_c, 0, 63, 60
1, 182208, Note_on_c, 1, 36, 60
1, 182360, Note_on_c, 0, 63, 0
1, 182360, Note_on_c, 0, 60, 0
1, 182360, Note_on_c, 1, 36, 0
1, 182784, Note_on_c, 0, 67, 60
1, 182784, Note_on_c, 0, 72, 60
1, 182784, Note_on_c, 0, 75, 60
1, 182784, Note_on_c, 0, 79, 60
1, 182784, Note_on_c, 0, 60, 60
1, 182784, Note_on_c, 1, 55, 60
1, 182784, Note_on_c, 1, 51, 60
1, 182784, Note_on_c, 1, 48, 60
1, 182936, Note_on_c, 0, 60, 0
1, 182936, Note_on_c, 0, 79, 0
1, 182936, Note_on_c, 0, 75, 0
1, 182936, Note_on_c, 0, 72, 0
1, 182936, Note_on_c, 0, 67, 0
1, 182936, Note_on_c, 1, 48, 0
1, 182936, Note_on_c, 1, 51, 0
1, 182936, Note_on_c, 1, 55, 0
1, 183360, Note_on_c, 0, 72, 60
1, 183360, Note_on_c, 0, 75, 60
1, 183360, Note_on_c, 0, 79, 60
1, 183360, Note_on_c, 0, 84, 60
1, 183360, Note_on_c, 1, 48, 60
1, 183360, Note_on_c, 1, 43, 60
1, 183360, Note_on_c, 1, 39, 60
1, 183360, Note_on_c, 1, 36, 60
1, 183512, Note_on_c, 0, 84, 0
1, 183512, Note_on_c, 0, 79, 0
1, 183512, Note_on_c, 0, 75, 0
1, 183512, Note_on_c, 0, 68, 0
1, 183512, Note_on_c, 0, 83, 0
1, 183512, Note_on_c, 0, 71, 0
1, 183512, Note_on_c, 0, 72, 0
1, 183512, Note_on_c, 0, 72, 0
1, 183512, Note_on_c, 1, 36, 0
1, 183512, Note_on_c, 1, 39, 0
1, 183512, Note_on_c, 1, 43, 0
1, 183512, Note_on_c, 1, 48, 0
1, 183522, End_track
0, 0, End_of_file