0, 0, Header, 0, 1, 192
1, 0, Start_track
1, 0, Tempo, 324324
1, 0, Note_on_c, 0, 69, 45
1, 0, Note_on_c, 0, 72, 45
1, 96, Note_on_c, 1, 57, 45
1, 192, Note_on_c, 1, 57, 0
1, 192, Note_on_c, 1, 64, 45
1, 288, Note_on_c, 0, 72, 0
1, 288, Note_on_c, 0, 69, 0
1, 288, Note_on_c, 0, 68, 45
1, 288, Note_on_c, 0, 71, 45
1, 288, Note_on_c, 1, 64, 0
1, 288, Note_on_c, 1, 62, 45
1, 382, Note_on_c, 0, 71, 0
1, 382, Note_on_c, 0, 68, 0
1, 382, Note_on_c, 1, 62, 0
1, 384, Note_on_c, 0, 64, 45
1, 384, Note_on_c, 0, 69, 45
1, 480, Note_on_c, 1, 57, 45
1, 576, Note_on_c, 1, 57, 0
1, 576, Note_on_c, 1, 60, 45
1, 672, Note_on_c, 0, 69, 0
1, 672, Note_on_c, 0, 64, 0
1, 672, Note_on_c, 0, 68, 45
1, 672, Note_on_c, 1, 60, 0
1, 672, Note_on_c, 1, 59, 45
1, 766, Note_on_c, 0, 68, 0
1, 766, Note_on_c, 1, 59, 0
1, 768, Note_on_c, 0, 64, 45
1, 768, Note_on_c, 0, 69, 45
1, 864, Note_on_c, 1, 57, 45
1, 960, Note_on_c, 1, 57, 0
1, 960, Note_on_c, 1, 60, 45
1, 1056, Note_on_c, 0, 69, 0
1, 1056, Note_on_c, 0, 64, 0
1, 1056, Note_on_c, 0, 71, 45
1, 1056, Note_on_c, 1, 60, 0
1, 1056, Note_on_c, 1, 56, 45
1, 1150, Note_on_c, 0, 71, 0
1, 1150, Note_on_c, 1, 56, 0
1, 1152, Note_on_c, 0, 69, 45
1, 1152, Note_on_c, 0, 72, 45
1, 1248, Note_on_c, 1, 57, 45
1, 1312, Note_on_c, 0, 72, 0
1, 1312, Note_on_c, 0, 69, 0
1, 1344, Note_on_c, 0, 68, 45
1, 1344, Note_on_c, 0, 71, 45
1, 1344, Note_on_c, 1, 57, 0
1, 1344, Note_on_c, 1, 64, 45
1, 1440, Note_on_c, 1, 64, 0
1, 1440, Note_on_c, 1, 52, 45
1, 1504, Note_on_c, 0, 71, 0
1, 1504, Note_on_c, 0, 68, 0
1, 1534, Note_on_c, 1, 52, 0
1, 1536, Note_on_c, 0, 69, 45
1, 1536, Note_on_c, 0, 74, 45
1, 1632, Note_on_c, 1, 53, 45
1, 1728, Note_on_c, 1, 53, 0
1, 1728, Note_on_c, 1, 65, 45
1, 1824, Note_on_c, 0, 74, 0
1, 1824, Note_on_c, 0, 69, 0
1, 1824, Note_on_c, 0, 72, 45
1, 1824, Note_on_c, 1, 65, 0
1, 1824, Note_on_c, 1, 64, 45
1, 1918, Note_on_c, 0, 72, 0
1, 1918, Note_on_c, 1, 64, 0
1, 1920, Note_on_c, 0, 69, 45
1, 1920, Note_on_c, 0, 77, 45
1, 2016, Note_on_c, 1, 50, 45
1, 2112, Note_on_c, 1, 50, 0
1, 2112, Note_on_c, 1, 62, 45
1, 2208, Note_on_c, 0, 77, 0
1, 2208, Note_on_c, 0, 69, 0
1, 2208, Note_on_c, 0, 76, 45
1, 2208, Note_on_c, 1, 62, 0
1, 2208, Note_on_c, 1, 60, 45
1, 2302, Note_on_c, 0, 76, 0
1, 2302, Note_on_c, 1, 60, 0
1, 2304, Note_on_c, 0, 68, 45
1, 2304, Note_on_c, 0, 74, 45
1, 2400, Note_on_c, 1, 47, 45
1, 2496, Note_on_c, 0, 74, 0
1, 2496, Note_on_c, 0, 68, 0
1, 2496, Note_on_c, 1, 47, 0
1, 2496, Note_on_c, 1, 59, 45
1, 2592, Note_on_c, 0, 69, 45
1, 2592, Note_on_c, 0, 72, 45
1, 2592, Note_on_c, 1, 59, 0
1, 2592, Note_on_c, 1, 57, 45
1, 2686, Note_on_c, 0, 72, 0
1, 2686, Note_on_c, 0, 69, 0
1, 2686, Note_on_c, 1, 57, 0
1, 2688, Note_on_c, 0, 68, 45
1, 2688, Note_on_c, 0, 71, 45
1, 2688, Note_on_c, 1, 52, 45
1, 2688, Note_on_c, 1, 64, 45
1, 2848, Note_on_c, 0, 71, 0
1, 2848, Note_on_c, 0, 68, 0
1, 2848, Note_on_c, 1, 64, 0
1, 2848, Note_on_c, 1, 52, 0
1, 2880, Note_on_c, 0, 68, 45
1, 2880, Note_on_c, 1, 52, 45
1, 2974, Note_on_c, 0, 68, 0
1, 2976, Note_on_c, 0, 64, 45
1, 3040, Note_on_c, 1, 52, 0
1, 3070, Note_on_c, 0, 64, 0
1, 3072, Note_on_c, 0, 69, 45
1, 3072, Note_on_c, 0, 72, 45
1, 3168, Note_on_c, 1, 57, 45
1, 3264, Note_on_c, 1, 57, 0
1, 3264, Note_on_c, 1, 64, 45
1, 3360, Note_on_c, 0, 72, 0
1, 3360, Note_on_c, 0, 69, 0
1, 3360, Note_on_c, 0, 68, 45
1, 3360, Note_on_c, 0, 71, 45
1, 3360, Note_on_c, 1, 64, 0
1, 3360, Note_on_c, 1, 62, 45
1, 3454, Note_on_c, 0, 71, 0
1, 3454, Note_on_c, 0, 68, 0
1, 3454, Note_on_c, 1, 62, 0
1, 3456, Note_on_c, 0, 64, 45
1, 3456, Note_on_c, 0, 69, 45
1, 3552, Note_on_c, 1, 57, 45
1, 3648, Note_on_c, 1, 57, 0
1, 3648, Note_on_c, 1, 60, 45
1, 3744, Note_on_c, 0, 69, 0
1, 3744, Note_on_c, 0, 64, 0
1, 3744, Note_on_c, 0, 68, 45
1, 3744, Note_on_c, 1, 60, 0
1, 3744, Note_on_c, 1, 59, 45
1, 3838, Note_on_c, 0, 68, 0
1, 3838, Note_on_c, 1, 59, 0
1, 3840, Note_on_c, 0, 64, 45
1, 3840, Note_on_c, 0, 69, 45
1, 3936, Note_on_c, 1, 57, 45
1, 4032, Note_on_c, 1, 57, 0
1, 4032, Note_on_c, 1, 60, 45
1, 4128, Note_on_c, 0, 69, 0
1, 4128, Note_on_c, 0, 64, 0
1, 4128, Note_on_c, 0, 71, 45
1, 4128, Note_on_c, 1, 60, 0
1, 4128, Note_on_c, 1, 56, 45
1, 4222, Note_on_c, 0, 71, 0
1, 4222, Note_on_c, 1, 56, 0
1, 4224, Note_on_c, 0, 69, 45
1, 4224, Note_on_c, 0, 72, 45
1, 4320, Note_on_c, 1, 57, 45
1, 4384, Note_on_c, 0, 72, 0
1, 4384, Note_on_c, 0, 69, 0
1, 4416, Note_on_c, 0, 68, 45
1, 4416, Note_on_c, 0, 71, 45
1, 4416, Note_on_c, 1, 57, 0
1, 4416, Note_on_c, 1, 64, 45
1, 4512, Note_on_c, 1, 64, 0
1, 4512, Note_on_c, 1, 52, 45
1, 4576, Note_on_c, 0, 71, 0
1, 4576, Note_on_c, 0, 68, 0
1, 4606, Note_on_c, 1, 52, 0
1, 4608, Note_on_c, 0, 69, 45
1, 4608, Note_on_c, 0, 77, 45
1, 4704, Note_on_c, 1, 50, 45
1, 4800, Note_on_c, 1, 50, 0
1, 4800, Note_on_c, 1, 62, 45
1, 4896, Note_on_c, 0, 77, 0
1, 4896, Note_on_c, 0, 69, 0
1, 4896, Note_on_c, 0, 74, 45
1, 4896, Note_on_c, 1, 62, 0
1, 4896, Note_on_c, 1, 60, 45
1, 4990, Note_on_c, 0, 74, 0
1, 4990, Note_on_c, 1, 60, 0
1, 4992, Note_on_c, 0, 69, 45
1, 4992, Note_on_c, 0, 74, 45
1, 5088, Note_on_c, 1, 53, 45
1, 5184, Note_on_c, 1, 53, 0
1, 5184, Note_on_c, 1, 65, 45
1, 5280, Note_on_c, 0, 74, 0
1, 5280, Note_on_c, 0, 69, 0
1, 5280, Note_on_c, 0, 72, 45
1, 5280, Note_on_c, 1, 65, 0
1, 5280, Note_on_c, 1, 64, 45
1, 5374, Note_on_c, 0, 72, 0
1, 5374, Note_on_c, 1, 64, 0
1, 5376, Note_on_c, 0, 71, 46
1, 5376, Note_on_c, 1, 62, 46
1, 5536, Note_on_c, 0, 71, 0
1, 5536, Note_on_c, 1, 62, 0
1, 5568, Note_on_c, 0, 69, 47
1, 5568, Note_on_c, 1, 64, 47
1, 5662, Note_on_c, 0, 69, 0
1, 5664, Note_on_c, 0, 68, 48
1, 5728, Note_on_c, 1, 64, 0
1, 5758, Note_on_c, 0, 68, 0
1, 5760, Note_on_c, 0, 69, 49
1, 5760, Note_on_c, 1, 65, 48
1, 5854, Note_on_c, 0, 69, 0
1, 5856, Note_on_c, 0, 73, 50
1, 5920, Note_on_c, 1, 65, 0
1, 5950, Note_on_c, 0, 73, 0
1, 5952, Note_on_c, 0, 74, 51
1, 6046, Note_on_c, 0, 74, 0
1, 6048, Note_on_c, 0, 76, 52
1, 6142, Note_on_c, 0, 76, 0
1, 6144, Note_on_c, 0, 77, 92
1, 6240, Note_on_c, 1, 50, 92
1, 6334, Note_on_c, 1, 50, 0
1, 6336, Note_on_c, 1, 62, 92
1, 6400, Note_on_c, 0, 77, 0
1, 6430, Note_on_c, 1, 62, 0
1, 6432, Note_on_c, 0, 76, 92
1, 6432, Note_on_c, 1, 60, 92
1, 6526, Note_on_c, 0, 76, 0
1, 6526, Note_on_c, 1, 60, 0
1, 6528, Note_on_c, 0, 74, 92
1, 6528, Note_on_c, 0, 80, 92
1, 6624, Note_on_c, 1, 47, 92
1, 6718, Note_on_c, 1, 47, 0
1, 6720, Note_on_c, 1, 59, 92
1, 6784, Note_on_c, 0, 80, 0
1, 6784, Note_on_c, 0, 74, 0
1, 6814, Note_on_c, 1, 59, 0
1, 6816, Note_on_c, 0, 72, 92
1, 6816, Note_on_c, 0, 81, 92
1, 6816, Note_on_c, 1, 57, 92
1, 6910, Note_on_c, 0, 81, 0
1, 6910, Note_on_c, 0, 72, 0
1, 6910, Note_on_c, 1, 57, 0
1, 6912, Note_on_c, 0, 71, 92
1, 6912, Note_on_c, 0, 74, 92
1, 6912, Note_on_c, 1, 62, 92
1, 7072, Note_on_c, 0, 74, 0
1, 7072, Note_on_c, 0, 71, 0
1, 7072, Note_on_c, 1, 62, 0
1, 7104, Note_on_c, 0, 69, 92
1, 7104, Note_on_c, 0, 72, 92
1, 7104, Note_on_c, 1, 64, 92
1, 7198, Note_on_c, 0, 72, 0
1, 7198, Note_on_c, 0, 69, 0
1, 7200, Note_on_c, 0, 68, 92
1, 7200, Note_on_c, 0, 71, 92
1, 7264, Note_on_c, 1, 64, 0
1, 7294, Note_on_c, 0, 71, 0
1, 7294, Note_on_c, 0, 68, 0
1, 7296, Note_on_c, 0, 69, 92
1, 7296, Note_on_c, 1, 57, 92
1, 7390, Note_on_c, 0, 69, 0
1, 7392, Note_on_c, 0, 72, 92
1, 7456, Note_on_c, 1, 57, 0
1, 7486, Note_on_c, 0, 72, 0
1, 7488, Note_on_c, 0, 74, 92
1, 7582, Note_on_c, 0, 74, 0
1, 7584, Note_on_c, 0, 76, 92
1, 7678, Note_on_c, 0, 76, 0
1, 7680, Note_on_c, 0, 77, 45
1, 7776, Note_on_c, 1, 57, 45
1, 7872, Note_on_c, 1, 57, 0
1, 7872, Note_on_c, 1, 60, 45
1, 7968, Note_on_c, 0, 77, 0
1, 7968, Note_on_c, 0, 81, 45
1, 7968, Note_on_c, 1, 60, 0
1, 7968, Note_on_c, 1, 65, 45
1, 8062, Note_on_c, 0, 81, 0
1, 8062, Note_on_c, 1, 65, 0
1, 8064, Note_on_c, 0, 77, 45
1, 8160, Note_on_c, 0, 77, 0
1, 8160, Note_on_c, 0, 76, 45
1, 8160, Note_on_c, 1, 55, 45
1, 8256, Note_on_c, 0, 76, 0
1, 8256, Note_on_c, 0, 75, 45
1, 8256, Note_on_c, 1, 55, 0
1, 8256, Note_on_c, 1, 60, 45
1, 8352, Note_on_c, 0, 75, 0
1, 8352, Note_on_c, 0, 76, 45
1, 8352, Note_on_c, 1, 60, 0
1, 8352, Note_on_c, 1, 64, 45
1, 8446, Note_on_c, 0, 76, 0
1, 8446, Note_on_c, 1, 64, 0
1, 8448, Note_on_c, 0, 81, 45
1, 8544, Note_on_c, 1, 53, 45
1, 8640, Note_on_c, 1, 53, 0
1, 8640, Note_on_c, 1, 57, 45
1, 8736, Note_on_c, 0, 81, 0
1, 8736, Note_on_c, 0, 84, 45
1, 8736, Note_on_c, 1, 57, 0
1, 8736, Note_on_c, 1, 60, 45
1, 8830, Note_on_c, 0, 84, 0
1, 8830, Note_on_c, 1, 60, 0
1, 8832, Note_on_c, 0, 81, 45
1, 8928, Note_on_c, 0, 81, 0
1, 8928, Note_on_c, 0, 79, 45
1, 8928, Note_on_c, 1, 52, 45
1, 9022, Note_on_c, 1, 52, 0
1, 9024, Note_on_c, 0, 79, 0
1, 9024, Note_on_c, 0, 78, 45
1, 9024, Note_on_c, 1, 55, 45
1, 9118, Note_on_c, 1, 55, 0
1, 9120, Note_on_c, 0, 78, 0
1, 9120, Note_on_c, 0, 79, 45
1, 9120, Note_on_c, 1, 60, 45
1, 9214, Note_on_c, 0, 79, 0
1, 9214, Note_on_c, 1, 60, 0
1, 9216, Note_on_c, 0, 84, 45
1, 9312, Note_on_c, 1, 64, 45
1, 9408, Note_on_c, 1, 64, 0
1, 9408, Note_on_c, 1, 67, 45
1, 9504, Note_on_c, 0, 84, 0
1, 9504, Note_on_c, 0, 83, 45
1, 9504, Note_on_c, 1, 67, 0
1, 9504, Note_on_c, 1, 72, 45
1, 9598, Note_on_c, 0, 83, 0
1, 9598, Note_on_c, 1, 72, 0
1, 9600, Note_on_c, 0, 83, 45
1, 9600, Note_on_c, 1, 65, 45
1, 9694, Note_on_c, 1, 65, 0
1, 9696, Note_on_c, 0, 83, 0
1, 9696, Note_on_c, 0, 81, 46
1, 9696, Note_on_c, 1, 72, 46
1, 9790, Note_on_c, 0, 81, 0
1, 9790, Note_on_c, 1, 72, 0
1, 9792, Note_on_c, 0, 81, 47
1, 9792, Note_on_c, 1, 64, 47
1, 9886, Note_on_c, 1, 64, 0
1, 9888, Note_on_c, 0, 81, 0
1, 9888, Note_on_c, 0, 79, 48
1, 9888, Note_on_c, 1, 72, 48
1, 9982, Note_on_c, 0, 79, 0
1, 9982, Note_on_c, 1, 72, 0
1, 9984, Note_on_c, 0, 79, 49
1, 9984, Note_on_c, 1, 62, 49
1, 10008, Note_on_c, 0, 79, 0
1, 10008, Note_on_c, 0, 81, 50
1, 10032, Note_on_c, 0, 81, 0
1, 10032, Note_on_c, 0, 79, 51
1, 10056, Note_on_c, 0, 79, 0
1, 10056, Note_on_c, 0, 81, 52
1, 10078, Note_on_c, 1, 62, 0
1, 10080, Note_on_c, 0, 81, 0
1, 10080, Note_on_c, 0, 77, 53
1, 10080, Note_on_c, 1, 72, 50
1, 10174, Note_on_c, 0, 77, 0
1, 10174, Note_on_c, 1, 72, 0
1, 10176, Note_on_c, 0, 77, 54
1, 10176, Note_on_c, 1, 60, 51
1, 10200, Note_on_c, 0, 77, 0
1, 10200, Note_on_c, 0, 79, 55
1, 10224, Note_on_c, 0, 79, 0
1, 10224, Note_on_c, 0, 77, 56
1, 10248, Note_on_c, 0, 77, 0
1, 10248, Note_on_c, 0, 79, 57
1, 10270, Note_on_c, 1, 60, 0
1, 10272, Note_on_c, 0, 79, 0
1, 10272, Note_on_c, 0, 76, 58
1, 10272, Note_on_c, 1, 72, 52
1, 10366, Note_on_c, 0, 76, 0
1, 10366, Note_on_c, 1, 72, 0
1, 10368, Note_on_c, 0, 72, 92
1, 10368, Note_on_c, 0, 76, 92
1, 10368, Note_on_c, 1, 67, 92
1, 10528, Note_on_c, 1, 67, 0
1, 10560, Note_on_c, 0, 76, 0
1, 10560, Note_on_c, 0, 72, 0
1, 10560, Note_on_c, 0, 71, 92
1, 10560, Note_on_c, 0, 74, 92
1, 10560, Note_on_c, 1, 55, 92
1, 10720, Note_on_c, 0, 74, 0
1, 10720, Note_on_c, 0, 71, 0
1, 10720, Note_on_c, 1, 55, 0
1, 10752, Note_on_c, 0, 72, 30
1, 10752, Note_on_c, 0, 75, 30
1, 10848, Note_on_c, 1, 60, 30
1, 10944, Note_on_c, 1, 60, 0
1, 10944, Note_on_c, 1, 67, 30
1, 11040, Note_on_c, 0, 75, 0
1, 11040, Note_on_c, 0, 72, 0
1, 11040, Note_on_c, 0, 71, 30
1, 11040, Note_on_c, 0, 74, 30
1, 11040, Note_on_c, 1, 67, 0
1, 11040, Note_on_c, 1, 65, 30
1, 11134, Note_on_c, 0, 74, 0
1, 11134, Note_on_c, 0, 71, 0
1, 11134, Note_on_c, 1, 65, 0
1, 11136, Note_on_c, 0, 72, 30
1, 11232, Note_on_c, 1, 60, 30
1, 11328, Note_on_c, 1, 60, 0
1, 11328, Note_on_c, 1, 63, 30
1, 11424, Note_on_c, 0, 72, 0
1, 11424, Note_on_c, 0, 71, 30
1, 11424, Note_on_c, 0, 74, 30
1, 11424, Note_on_c, 1, 63, 0
1, 11424, Note_on_c, 1, 62, 30
1, 11518, Note_on_c, 0, 74, 0
1, 11518, Note_on_c, 0, 71, 0
1, 11518, Note_on_c, 1, 62, 0
1, 11520, Note_on_c, 0, 72, 30
1, 11520, Note_on_c, 0, 75, 30
1, 11616, Note_on_c, 1, 60, 30
1, 11712, Note_on_c, 1, 60, 0
1, 11712, Note_on_c, 1, 63, 30
1, 11808, Note_on_c, 0, 75, 0
1, 11808, Note_on_c, 0, 72, 0
1, 11808, Note_on_c, 0, 77, 30
1, 11808, Note_on_c, 1, 63, 0
1, 11808, Note_on_c, 1, 56, 30
1, 11902, Note_on_c, 0, 77, 0
1, 11902, Note_on_c, 1, 56, 0
1, 11904, Note_on_c, 0, 72, 30
1, 11904, Note_on_c, 0, 75, 30
1, 12000, Note_on_c, 1, 55, 30
1, 12096, Note_on_c, 0, 75, 0
1, 12096, Note_on_c, 0, 72, 0
1, 12096, Note_on_c, 0, 71, 30
1, 12096, Note_on_c, 0, 74, 30
1, 12096, Note_on_c, 1, 55, 0
1, 12096, Note_on_c, 1, 54, 30
1, 12192, Note_on_c, 1, 54, 0
1, 12192, Note_on_c, 1, 55, 30
1, 12256, Note_on_c, 0, 74, 0
1, 12256, Note_on_c, 0, 71, 0
1, 12286, Note_on_c, 1, 55, 0
1, 12288, Note_on_c, 0, 74, 30
1, 12288, Note_on_c, 0, 77, 30
1, 12384, Note_on_c, 1, 55, 30
1, 12480, Note_on_c, 1, 55, 0
1, 12480, Note_on_c, 1, 59, 30
1, 12576, Note_on_c, 0, 77, 0
1, 12576, Note_on_c, 0, 74, 0
1, 12576, Note_on_c, 0, 72, 30
1, 12576, Note_on_c, 0, 76, 30
1, 12576, Note_on_c, 1, 59, 0
1, 12576, Note_on_c, 1, 60, 30
1, 12670, Note_on_c, 0, 76, 0
1, 12670, Note_on_c, 0, 72, 0
1, 12670, Note_on_c, 1, 60, 0
1, 12672, Note_on_c, 0, 71, 30
1, 12672, Note_on_c, 0, 74, 30
1, 12768, Note_on_c, 1, 55, 30
1, 12864, Note_on_c, 1, 55, 0
1, 12864, Note_on_c, 1, 65, 30
1, 12960, Note_on_c, 0, 74, 0
1, 12960, Note_on_c, 0, 71, 0
1, 12960, Note_on_c, 0, 72, 30
1, 12960, Note_on_c, 0, 76, 30
1, 12960, Note_on_c, 1, 65, 0
1, 12960, Note_on_c, 1, 64, 31
1, 13054, Note_on_c, 0, 76, 0
1, 13054, Note_on_c, 0, 72, 0
1, 13054, Note_on_c, 1, 64, 0
1, 13056, Note_on_c, 0, 74, 31
1, 13056, Note_on_c, 0, 77, 31
1, 13152, Note_on_c, 1, 62, 33
1, 13248, Note_on_c, 1, 62, 0
1, 13248, Note_on_c, 1, 59, 34
1, 13344, Note_on_c, 0, 77, 0
1, 13344, Note_on_c, 0, 74, 0
1, 13344, Note_on_c, 0, 76, 32
1, 13344, Note_on_c, 0, 79, 32
1, 13344, Note_on_c, 1, 59, 0
1, 13344, Note_on_c, 1, 55, 35
1, 13438, Note_on_c, 0, 79, 0
1, 13438, Note_on_c, 0, 76, 0
1, 13438, Note_on_c, 1, 55, 0
1, 13440, Note_on_c, 0, 74, 33
1, 13440, Note_on_c, 0, 77, 33
1, 13536, Note_on_c, 1, 59, 37
1, 13632, Note_on_c, 0, 77, 0
1, 13632, Note_on_c, 0, 74, 0
1, 13632, Note_on_c, 0, 72, 34
1, 13632, Note_on_c, 0, 76, 34
1, 13632, Note_on_c, 1, 59, 0
1, 13632, Note_on_c, 1, 60, 38
1, 13728, Note_on_c, 1, 60, 0
1, 13728, Note_on_c, 1, 48, 39
1, 13792, Note_on_c, 0, 76, 0
1, 13792, Note_on_c, 0, 72, 0
1, 13822, Note_on_c, 1, 48, 0
1, 13824, Note_on_c, 0, 79, 92
1, 13824, Note_on_c, 0, 84, 92
1, 13824, Note_on_c, 1, 52, 92
1, 13918, Note_on_c, 1, 52, 0
1, 13920, Note_on_c, 1, 64, 92
1, 14014, Note_on_c, 1, 64, 0
1, 14016, Note_on_c, 1, 67, 92
1, 14080, Note_on_c, 0, 84, 0
1, 14080, Note_on_c, 0, 79, 0
1, 14110, Note_on_c, 1, 67, 0
1, 14112, Note_on_c, 0, 77, 92
1, 14112, Note_on_c, 0, 83, 92
1, 14112, Note_on_c, 1, 62, 92
1, 14206, Note_on_c, 0, 83, 0
1, 14206, Note_on_c, 0, 77, 0
1, 14206, Note_on_c, 1, 62, 0
1, 14208, Note_on_c, 0, 76, 92
1, 14208, Note_on_c, 0, 81, 92
1, 14208, Note_on_c, 1, 48, 92
1, 14302, Note_on_c, 1, 48, 0
1, 14304, Note_on_c, 1, 60, 92
1, 14398, Note_on_c, 1, 60, 0
1, 14400, Note_on_c, 1, 64, 92
1, 14464, Note_on_c, 0, 81, 0
1, 14464, Note_on_c, 0, 76, 0
1, 14494, Note_on_c, 1, 64, 0
1, 14496, Note_on_c, 0, 74, 92
1, 14496, Note_on_c, 0, 79, 92
1, 14496, Note_on_c, 1, 59, 92
1, 14590, Note_on_c, 0, 79, 0
1, 14590, Note_on_c, 0, 74, 0
1, 14590, Note_on_c, 1, 59, 0
1, 14592, Note_on_c, 0, 72, 92
1, 14592, Note_on_c, 0, 77, 92
1, 14592, Note_on_c, 1, 45, 92
1, 14686, Note_on_c, 1, 45, 0
1, 14688, Note_on_c, 1, 57, 92
1, 14782, Note_on_c, 1, 57, 0
1, 14784, Note_on_c, 1, 60, 92
1, 14848, Note_on_c, 0, 77, 0
1, 14848, Note_on_c, 0, 72, 0
1, 14878, Note_on_c, 1, 60, 0
1, 14880, Note_on_c, 0, 71, 92
1, 14880, Note_on_c, 0, 76, 92
1, 14880, Note_on_c, 1, 55, 92
1, 14974, Note_on_c, 0, 76, 0
1, 14974, Note_on_c, 0, 71, 0
1, 14974, Note_on_c, 1, 55, 0
1, 14976, Note_on_c, 0, 69, 92
1, 14976, Note_on_c, 0, 74, 92
1, 14976, Note_on_c, 1, 41, 92
1, 15070, Note_on_c, 1, 41, 0
1, 15072, Note_on_c, 1, 53, 92
1, 15166, Note_on_c, 1, 53, 0
1, 15168, Note_on_c, 1, 57, 92
1, 15232, Note_on_c, 0, 74, 0
1, 15232, Note_on_c, 0, 69, 0
1, 15262, Note_on_c, 1, 57, 0
1, 15264, Note_on_c, 0, 67, 92
1, 15264, Note_on_c, 0, 73, 92
1, 15264, Note_on_c, 1, 52, 92
1, 15358, Note_on_c, 0, 73, 0
1, 15358, Note_on_c, 0, 67, 0
1, 15358, Note_on_c, 1, 52, 0
1, 15360, Note_on_c, 0, 74, 92
1, 15360, Note_on_c, 1, 53, 92
1, 15454, Note_on_c, 0, 74, 0
1, 15456, Note_on_c, 0, 69, 92
1, 15520, Note_on_c, 1, 53, 0
1, 15550, Note_on_c, 0, 69, 0
1, 15552, Note_on_c, 0, 76, 92
1, 15552, Note_on_c, 1, 49, 92
1, 15646, Note_on_c, 0, 76, 0
1, 15648, Note_on_c, 0, 69, 92
1, 15712, Note_on_c, 1, 49, 0
1, 15742, Note_on_c, 0, 69, 0
1, 15744, Note_on_c, 0, 77, 92
1, 15744, Note_on_c, 1, 50, 92
1, 15838, Note_on_c, 0, 77, 0
1, 15840, Note_on_c, 0, 81, 92
1, 15904, Note_on_c, 1, 50, 0
1, 15934, Note_on_c, 0, 81, 0
1, 15936, Note_on_c, 0, 77, 92
1, 16030, Note_on_c, 0, 77, 0
1, 16032, Note_on_c, 0, 74, 92
1, 16032, Note_on_c, 1, 50, 92
1, 16126, Note_on_c, 0, 74, 0
1, 16126, Note_on_c, 1, 50, 0
1, 16128, Note_on_c, 0, 64, 92
1, 16128, Note_on_c, 0, 67, 92
1, 16128, Note_on_c, 0, 72, 92
1, 16128, Note_on_c, 1, 55, 92
1, 16288, Note_on_c, 0, 72, 0
1, 16288, Note_on_c, 0, 67, 0
1, 16288, Note_on_c, 0, 64, 0
1, 16288, Note_on_c, 1, 55, 0
1, 16320, Note_on_c, 0, 67, 92
1, 16320, Note_on_c, 0, 71, 92
1, 16320, Note_on_c, 0, 74, 92
1, 16320, Note_on_c, 1, 43, 92
1, 16480, Note_on_c, 0, 74, 0
1, 16480, Note_on_c, 0, 71, 0
1, 16480, Note_on_c, 0, 67, 0
1, 16480, Note_on_c, 1, 43, 0
1, 16512, Note_on_c, 0, 74, 92
1, 16512, Note_on_c, 1, 48, 92
1, 16608, Note_on_c, 0, 74, 0
1, 16608, Note_on_c, 0, 75, 92
1, 16704, Note_on_c, 0, 75, 0
1, 16704, Note_on_c, 0, 76, 92
1, 16798, Note_on_c, 0, 76, 0
1, 16800, Note_on_c, 0, 79, 92
1, 16848, Note_on_c, 1, 48, 0
1, 16894, Note_on_c, 0, 79, 0
1, 16896, Note_on_c, 0, 79, 92
1, 16896, Note_on_c, 0, 84, 92
1, 16896, Note_on_c, 1, 52, 92
1, 16990, Note_on_c, 1, 52, 0
1, 16992, Note_on_c, 1, 64, 92
1, 17086, Note_on_c, 1, 64, 0
1, 17088, Note_on_c, 1, 67, 92
1, 17152, Note_on_c, 0, 84, 0
1, 17152, Note_on_c, 0, 79, 0
1, 17182, Note_on_c, 1, 67, 0
1, 17184, Note_on_c, 0, 77, 92
1, 17184, Note_on_c, 0, 83, 92
1, 17184, Note_on_c, 1, 62, 92
1, 17278, Note_on_c, 0, 83, 0
1, 17278, Note_on_c, 0, 77, 0
1, 17278, Note_on_c, 1, 62, 0
1, 17280, Note_on_c, 0, 76, 92
1, 17280, Note_on_c, 0, 81, 92
1, 17280, Note_on_c, 1, 48, 92
1, 17374, Note_on_c, 1, 48, 0
1, 17376, Note_on_c, 1, 60, 92
1, 17470, Note_on_c, 1, 60, 0
1, 17472, Note_on_c, 1, 64, 92
1, 17536, Note_on_c, 0, 81, 0
1, 17536, Note_on_c, 0, 76, 0
1, 17566, Note_on_c, 1, 64, 0
1, 17568, Note_on_c, 0, 74, 92
1, 17568, Note_on_c, 0, 79, 92
1, 17568, Note_on_c, 1, 59, 92
1, 17662, Note_on_c, 0, 79, 0
1, 17662, Note_on_c, 0, 74, 0
1, 17662, Note_on_c, 1, 59, 0
1, 17664, Note_on_c, 0, 72, 92
1, 17664, Note_on_c, 0, 77, 92
1, 17664, Note_on_c, 1, 45, 92
1, 17758, Note_on_c, 1, 45, 0
1, 17760, Note_on_c, 1, 57, 92
1, 17854, Note_on_c, 1, 57, 0
1, 17856, Note_on_c, 1, 60, 92
1, 17920, Note_on_c, 0, 77, 0
1, 17920, Note_on_c, 0, 72, 0
1, 17950, Note_on_c, 1, 60, 0
1, 17952, Note_on_c, 0, 71, 92
1, 17952, Note_on_c, 0, 76, 92
1, 17952, Note_on_c, 1, 55, 92
1, 18046, Note_on_c, 0, 76, 0
1, 18046, Note_on_c, 0, 71, 0
1, 18046, Note_on_c, 1, 55, 0
1, 18048, Note_on_c, 0, 69, 92
1, 18048, Note_on_c, 0, 74, 92
1, 18048, Note_on_c, 1, 41, 92
1, 18142, Note_on_c, 1, 41, 0
1, 18144, Note_on_c, 1, 53, 92
1, 18238, Note_on_c, 1, 53, 0
1, 18240, Note_on_c, 1, 57, 92
1, 18304, Note_on_c, 0, 74, 0
1, 18304, Note_on_c, 0, 69, 0
1, 18334, Note_on_c, 1, 57, 0
1, 18336, Note_on_c, 0, 67, 92
1, 18336, Note_on_c, 0, 73, 92
1, 18336, Note_on_c, 1, 52, 92
1, 18430, Note_on_c, 0, 73, 0
1, 18430, Note_on_c, 0, 67, 0
1, 18430, Note_on_c, 1, 52, 0
1, 18432, Note_on_c, 0, 74, 92
1, 18432, Note_on_c, 1, 53, 92
1, 18526, Note_on_c, 0, 74, 0
1, 18528, Note_on_c, 0, 69, 92
1, 18592, Note_on_c, 1, 53, 0
1, 18622, Note_on_c, 0, 69, 0
1, 18624, Note_on_c, 0, 76, 92
1, 18624, Note_on_c, 1, 49, 92
1, 18718, Note_on_c, 0, 76, 0
1, 18720, Note_on_c, 0, 69, 92
1, 18784, Note_on_c, 1, 49, 0
1, 18814, Note_on_c, 0, 69, 0
1, 18816, Note_on_c, 0, 77, 92
1, 18816, Note_on_c, 1, 50, 92
1, 18910, Note_on_c, 0, 77, 0
1, 18910, Note_on_c, 1, 50, 0
1, 18912, Note_on_c, 0, 79, 92
1, 18912, Note_on_c, 1, 52, 92
1, 19006, Note_on_c, 0, 79, 0
1, 19006, Note_on_c, 1, 52, 0
1, 19008, Note_on_c, 0, 81, 92
1, 19008, Note_on_c, 1, 53, 92
1, 19102, Note_on_c, 0, 81, 0
1, 19102, Note_on_c, 1, 53, 0
1, 19104, Note_on_c, 0, 77, 92
1, 19104, Note_on_c, 1, 50, 92
1, 19198, Note_on_c, 0, 77, 0
1, 19198, Note_on_c, 1, 50, 0
1, 19200, Note_on_c, 0, 67, 92
1, 19200, Note_on_c, 0, 72, 92
1, 19200, Note_on_c, 0, 76, 92
1, 19200, Note_on_c, 1, 55, 92
1, 19294, Note_on_c, 1, 55, 0
1, 19296, Note_on_c, 1, 54, 92
1, 19360, Note_on_c, 0, 76, 0
1, 19360, Note_on_c, 0, 72, 0
1, 19360, Note_on_c, 0, 67, 0
1, 19390, Note_on_c, 1, 54, 0
1, 19392, Note_on_c, 0, 67, 92
1, 19392, Note_on_c, 0, 71, 92
1, 19392, Note_on_c, 0, 74, 92
1, 19392, Note_on_c, 1, 55, 92
1, 19486, Note_on_c, 1, 55, 0
1, 19488, Note_on_c, 1, 43, 92
1, 19552, Note_on_c, 0, 74, 0
1, 19552, Note_on_c, 0, 71, 0
1, 19552, Note_on_c, 0, 67, 0
1, 19582, Note_on_c, 1, 43, 0
1, 19584, Note_on_c, 0, 73, 92
1, 19678, Note_on_c, 0, 73, 0
1, 19680, Note_on_c, 0, 67, 92
1, 19680, Note_on_c, 1, 58, 92
1, 19774, Note_on_c, 0, 67, 0
1, 19774, Note_on_c, 1, 58, 0
1, 19776, Note_on_c, 0, 69, 92
1, 19776, Note_on_c, 1, 57, 92
1, 19870, Note_on_c, 0, 69, 0
1, 19870, Note_on_c, 1, 57, 0
1, 19872, Note_on_c, 0, 70, 92
1, 19872, Note_on_c, 1, 55, 92
1, 19966, Note_on_c, 0, 70, 0
1, 19966, Note_on_c, 1, 55, 0
1, 19968, Note_on_c, 0, 74, 92
1, 19968, Note_on_c, 1, 53, 92
1, 20062, Note_on_c, 0, 74, 0
1, 20064, Note_on_c, 0, 69, 92
1, 20128, Note_on_c, 1, 53, 0
1, 20158, Note_on_c, 0, 69, 0
1, 20160, Note_on_c, 0, 76, 92
1, 20160, Note_on_c, 1, 49, 92
1, 20254, Note_on_c, 0, 76, 0
1, 20256, Note_on_c, 0, 69, 92
1, 20320, Note_on_c, 1, 49, 0
1, 20350, Note_on_c, 0, 69, 0
1, 20352, Note_on_c, 0, 77, 92
1, 20352, Note_on_c, 1, 50, 92
1, 20446, Note_on_c, 0, 77, 0
1, 20446, Note_on_c, 1, 50, 0
1, 20448, Note_on_c, 0, 79, 92
1, 20448, Note_on_c, 1, 52, 92
1, 20542, Note_on_c, 0, 79, 0
1, 20542, Note_on_c, 1, 52, 0
1, 20544, Note_on_c, 0, 81, 92
1, 20544, Note_on_c, 1, 53, 92
1, 20638, Note_on_c, 0, 81, 0
1, 20638, Note_on_c, 1, 53, 0
1, 20640, Note_on_c, 0, 77, 92
1, 20640, Note_on_c, 1, 50, 92
1, 20734, Note_on_c, 0, 77, 0
1, 20734, Note_on_c, 1, 50, 0
1, 20736, Note_on_c, 0, 67, 92
1, 20736, Note_on_c, 0, 72, 92
1, 20736, Note_on_c, 0, 76, 92
1, 20736, Note_on_c, 1, 55, 92
1, 20830, Note_on_c, 1, 55, 0
1, 20832, Note_on_c, 1, 54, 92
1, 20896, Note_on_c, 0, 76, 0
1, 20896, Note_on_c, 0, 72, 0
1, 20896, Note_on_c, 0, 67, 0
1, 20926, Note_on_c, 1, 54, 0
1, 20928, Note_on_c, 0, 67, 92
1, 20928, Note_on_c, 0, 71, 92
1, 20928, Note_on_c, 0, 74, 92
1, 20928, Note_on_c, 1, 55, 92
1, 21022, Note_on_c, 1, 55, 0
1, 21024, Note_on_c, 1, 43, 92
1, 21088, Note_on_c, 0, 74, 0
1, 21088, Note_on_c, 0, 71, 0
1, 21088, Note_on_c, 0, 67, 0
1, 21118, Note_on_c, 1, 43, 0
1, 21120, Note_on_c, 0, 73, 92
1, 21216, Note_on_c, 0, 73, 0
1, 21216, Note_on_c, 0, 67, 92
1, 21216, Note_on_c, 1, 58, 92
1, 21312, Note_on_c, 0, 67, 0
1, 21312, Note_on_c, 0, 69, 92
1, 21312, Note_on_c, 1, 58, 0
1, 21312, Note_on_c, 1, 57, 92
1, 21408, Note_on_c, 0, 69, 0
1, 21408, Note_on_c, 0, 70, 92
1, 21408, Note_on_c, 1, 57, 0
1, 21408, Note_on_c, 1, 55, 92
1, 21504, Note_on_c, 0, 70, 0
1, 21504, Note_on_c, 0, 74, 92
1, 21504, Note_on_c, 1, 55, 0
1, 21504, Note_on_c, 1, 53, 92
1, 21600, Note_on_c, 0, 74, 0
1, 21600, Note_on_c, 0, 76, 92
1, 21600, Note_on_c, 1, 53, 0
1, 21600, Note_on_c, 1, 52, 92
1, 21696, Note_on_c, 0, 76, 0
1, 21696, Note_on_c, 0, 77, 92
1, 21696, Note_on_c, 1, 52, 0
1, 21696, Note_on_c, 1, 50, 92
1, 21792, Note_on_c, 0, 77, 0
1, 21792, Note_on_c, 0, 74, 92
1, 21792, Note_on_c, 1, 50, 0
1, 21792, Note_on_c, 1, 53, 92
1, 21886, Note_on_c, 0, 74, 0
1, 21886, Note_on_c, 1, 53, 0
1, 21888, Note_on_c, 0, 75, 92
1, 21984, Note_on_c, 0, 75, 0
1, 21984, Note_on_c, 0, 69, 92
1, 21984, Note_on_c, 1, 60, 92
1, 22080, Note_on_c, 0, 69, 0
1, 22080, Note_on_c, 0, 71, 92
1, 22080, Note_on_c, 1, 60, 0
1, 22080, Note_on_c, 1, 59, 92
1, 22176, Note_on_c, 0, 71, 0
1, 22176, Note_on_c, 0, 72, 92
1, 22176, Note_on_c, 1, 59, 0
1, 22176, Note_on_c, 1, 57, 92
1, 22272, Note_on_c, 0, 72, 0
1, 22272, Note_on_c, 0, 76, 92
1, 22272, Note_on_c, 1, 57, 0
1, 22272, Note_on_c, 1, 55, 92
1, 22368, Note_on_c, 0, 76, 0
1, 22368, Note_on_c, 0, 78, 92
1, 22368, Note_on_c, 1, 55, 0
1, 22368, Note_on_c, 1, 54, 92
1, 22464, Note_on_c, 0, 78, 0
1, 22464, Note_on_c, 0, 79, 92
1, 22464, Note_on_c, 1, 54, 0
1, 22464, Note_on_c, 1, 52, 92
1, 22558, Note_on_c, 0, 79, 0
1, 22560, Note_on_c, 0, 76, 92
1, 22560, Note_on_c, 1, 52, 0
1, 22560, Note_on_c, 1, 55, 92
1, 22654, Note_on_c, 0, 76, 0
1, 22654, Note_on_c, 1, 55, 0
1, 22656, Note_on_c, 0, 76, 92
1, 22656, Note_on_c, 0, 84, 92
1, 22656, Note_on_c, 1, 57, 92
1, 22750, Note_on_c, 1, 57, 0
1, 22752, Note_on_c, 1, 45, 92
1, 22846, Note_on_c, 1, 45, 0
1, 22848, Note_on_c, 1, 57, 92
1, 22912, Note_on_c, 0, 84, 0
1, 22912, Note_on_c, 0, 76, 0
1, 22942, Note_on_c, 1, 57, 0
1, 22944, Note_on_c, 0, 83, 92
1, 22944, Note_on_c, 1, 59, 92
1, 23038, Note_on_c, 0, 83, 0
1, 23038, Note_on_c, 1, 59, 0
1, 23040, Note_on_c, 0, 76, 92
1, 23040, Note_on_c, 0, 81, 92
1, 23040, Note_on_c, 1, 60, 92
1, 23134, Note_on_c, 1, 60, 0
1, 23136, Note_on_c, 1, 48, 92
1, 23230, Note_on_c, 1, 48, 0
1, 23232, Note_on_c, 1, 60, 92
1, 23296, Note_on_c, 0, 81, 0
1, 23296, Note_on_c, 0, 76, 0
1, 23326, Note_on_c, 1, 60, 0
1, 23328, Note_on_c, 0, 79, 92
1, 23328, Note_on_c, 1, 59, 92
1, 23422, Note_on_c, 0, 79, 0
1, 23422, Note_on_c, 1, 59, 0
1, 23424, Note_on_c, 0, 72, 92
1, 23424, Note_on_c, 0, 78, 92
1, 23424, Note_on_c, 1, 57, 92
1, 23518, Note_on_c, 1, 57, 0
1, 23520, Note_on_c, 1, 45, 91
1, 23614, Note_on_c, 1, 45, 0
1, 23616, Note_on_c, 1, 57, 90
1, 23680, Note_on_c, 0, 78, 0
1, 23680, Note_on_c, 0, 72, 0
1, 23710, Note_on_c, 1, 57, 0
1, 23712, Note_on_c, 0, 73, 91
1, 23712, Note_on_c, 0, 76, 91
1, 23712, Note_on_c, 1, 58, 89
1, 23806, Note_on_c, 0, 76, 0
1, 23806, Note_on_c, 0, 73, 0
1, 23806, Note_on_c, 1, 58, 0
1, 23808, Note_on_c, 0, 71, 90
1, 23808, Note_on_c, 0, 75, 90
1, 23808, Note_on_c, 1, 59, 88
1, 23968, Note_on_c, 0, 75, 0
1, 23968, Note_on_c, 0, 71, 0
1, 23968, Note_on_c, 1, 59, 0
1, 24000, Note_on_c, 0, 73, 89
1, 24094, Note_on_c, 0, 73, 0
1, 24096, Note_on_c, 0, 71, 88
1, 24190, Note_on_c, 0, 71, 0
1, 24192, Note_on_c, 1, 43, 45
1, 24192, Note_on_c, 1, 55, 45
1, 24288, Note_on_c, 0, 71, 45
1, 24384, Note_on_c, 0, 71, 0
1, 24384, Note_on_c, 0, 76, 45
1, 24448, Note_on_c, 1, 55, 0
1, 24448, Note_on_c, 1, 43, 0
1, 24480, Note_on_c, 0, 76, 0
1, 24480, Note_on_c, 0, 75, 45
1, 24480, Note_on_c, 1, 42, 45
1, 24480, Note_on_c, 1, 54, 45
1, 24574, Note_on_c, 1, 54, 0
1, 24574, Note_on_c, 1, 42, 0
1, 24576, Note_on_c, 0, 75, 0
1, 24576, Note_on_c, 1, 40, 45
1, 24576, Note_on_c, 1, 52, 45
1, 24672, Note_on_c, 0, 71, 45
1, 24768, Note_on_c, 0, 71, 0
1, 24768, Note_on_c, 0, 79, 45
1, 24832, Note_on_c, 1, 52, 0
1, 24832, Note_on_c, 1, 40, 0
1, 24864, Note_on_c, 0, 79, 0
1, 24864, Note_on_c, 0, 78, 45
1, 24864, Note_on_c, 1, 39, 45
1, 24864, Note_on_c, 1, 51, 45
1, 24958, Note_on_c, 0, 78, 0
1, 24958, Note_on_c, 1, 51, 0
1, 24958, Note_on_c, 1, 39, 0
1, 24960, Note_on_c, 1, 40, 45
1, 24960, Note_on_c, 1, 52, 45
1, 25056, Note_on_c, 0, 71, 45
1, 25152, Note_on_c, 0, 71, 0
1, 25152, Note_on_c, 0, 79, 45
1, 25216, Note_on_c, 1, 52, 0
1, 25216, Note_on_c, 1, 40, 0
1, 25248, Note_on_c, 0, 79, 0
1, 25248, Note_on_c, 0, 81, 45
1, 25248, Note_on_c, 1, 42, 45
1, 25248, Note_on_c, 1, 54, 45
1, 25342, Note_on_c, 0, 81, 0
1, 25342, Note_on_c, 1, 54, 0
1, 25342, Note_on_c, 1, 42, 0
1, 25344, Note_on_c, 1, 40, 45
1, 25344, Note_on_c, 1, 52, 45
1, 25440, Note_on_c, 0, 71, 45
1, 25536, Note_on_c, 0, 71, 0
1, 25536, Note_on_c, 0, 79, 45
1, 25600, Note_on_c, 1, 52, 0
1, 25600, Note_on_c, 1, 40, 0
1, 25632, Note_on_c, 0, 79, 0
1, 25632, Note_on_c, 0, 78, 45
1, 25632, Note_on_c, 1, 39, 45
1, 25632, Note_on_c, 1, 51, 45
1, 25726, Note_on_c, 0, 78, 0
1, 25726, Note_on_c, 1, 51, 0
1, 25726, Note_on_c, 1, 39, 0
1, 25728, Note_on_c, 1, 42, 45
1, 25728, Note_on_c, 1, 54, 45
1, 25824, Note_on_c, 0, 71, 45
1, 25920, Note_on_c, 0, 71, 0
1, 25920, Note_on_c, 0, 81, 45
1, 25984, Note_on_c, 1, 54, 0
1, 25984, Note_on_c, 1, 42, 0
1, 26016, Note_on_c, 0, 81, 0
1, 26016, Note_on_c, 0, 79, 45
1, 26016, Note_on_c, 1, 40, 45
1, 26016, Note_on_c, 1, 52, 45
1, 26110, Note_on_c, 0, 79, 0
1, 26110, Note_on_c, 1, 52, 0
1, 26110, Note_on_c, 1, 40, 0
1, 26112, Note_on_c, 1, 39, 45
1, 26112, Note_on_c, 1, 51, 45
1, 26208, Note_on_c, 0, 71, 45
1, 26304, Note_on_c, 0, 71, 0
1, 26304, Note_on_c, 0, 78, 45
1, 26368, Note_on_c, 1, 51, 0
1, 26368, Note_on_c, 1, 39, 0
1, 26400, Note_on_c, 0, 78, 0
1, 26400, Note_on_c, 0, 79, 45
1, 26400, Note_on_c, 1, 40, 45
1, 26400, Note_on_c, 1, 52, 45
1, 26494, Note_on_c, 0, 79, 0
1, 26494, Note_on_c, 1, 52, 0
1, 26494, Note_on_c, 1, 40, 0
1, 26496, Note_on_c, 1, 42, 45
1, 26496, Note_on_c, 1, 54, 45
1, 26592, Note_on_c, 0, 71, 45
1, 26688, Note_on_c, 0, 71, 0
1, 26688, Note_on_c, 0, 81, 46
1, 26752, Note_on_c, 1, 54, 0
1, 26752, Note_on_c, 1, 42, 0
1, 26784, Note_on_c, 0, 81, 0
1, 26784, Note_on_c, 0, 83, 47
1, 26784, Note_on_c, 1, 43, 45
1, 26784, Note_on_c, 1, 55, 45
1, 26878, Note_on_c, 0, 83, 0
1, 26878, Note_on_c, 1, 55, 0
1, 26878, Note_on_c, 1, 43, 0
1, 26880, Note_on_c, 1, 42, 48
1, 26880, Note_on_c, 1, 54, 48
1, 26976, Note_on_c, 0, 71, 49
1, 27040, Note_on_c, 1, 54, 0
1, 27040, Note_on_c, 1, 42, 0
1, 27072, Note_on_c, 0, 71, 0
1, 27072, Note_on_c, 0, 81, 50
1, 27072, Note_on_c, 1, 40, 55
1, 27072, Note_on_c, 1, 52, 55
1, 27168, Note_on_c, 0, 81, 0
1, 27168, Note_on_c, 0, 79, 51
1, 27232, Note_on_c, 1, 52, 0
1, 27232, Note_on_c, 1, 40, 0
1, 27262, Note_on_c, 0, 79, 0
1, 27264, Note_on_c, 0, 71, 92
1, 27264, Note_on_c, 1, 55, 92
1, 27264, Note_on_c, 1, 59, 92
1, 27358, Note_on_c, 0, 71, 0
1, 27360, Note_on_c, 0, 83, 92
1, 27454, Note_on_c, 0, 83, 0
1, 27456, Note_on_c, 0, 88, 92
1, 27520, Note_on_c, 1, 59, 0
1, 27520, Note_on_c, 1, 55, 0
1, 27550, Note_on_c, 0, 88, 0
1, 27552, Note_on_c, 0, 87, 92
1, 27552, Note_on_c, 1, 54, 92
1, 27552, Note_on_c, 1, 57, 92
1, 27646, Note_on_c, 0, 87, 0
1, 27646, Note_on_c, 1, 57, 0
1, 27646, Note_on_c, 1, 54, 0
1, 27648, Note_on_c, 0, 67, 92
1, 27648, Note_on_c, 1, 52, 92
1, 27648, Note_on_c, 1, 55, 92
1, 27742, Note_on_c, 0, 67, 0
1, 27744, Note_on_c, 0, 79, 92
1, 27838, Note_on_c, 0, 79, 0
1, 27840, Note_on_c, 0, 84, 92
1, 27904, Note_on_c, 1, 55, 0
1, 27904, Note_on_c, 1, 52, 0
1, 27934, Note_on_c, 0, 84, 0
1, 27936, Note_on_c, 0, 83, 92
1, 27936, Note_on_c, 1, 50, 92
1, 27936, Note_on_c, 1, 54, 92
1, 28030, Note_on_c, 0, 83, 0
1, 28030, Note_on_c, 1, 54, 0
1, 28030, Note_on_c, 1, 50, 0
1, 28032, Note_on_c, 0, 64, 92
1, 28032, Note_on_c, 1, 48, 92
1, 28032, Note_on_c, 1, 52, 92
1, 28126, Note_on_c, 0, 64, 0
1, 28128, Note_on_c, 0, 76, 92
1, 28222, Note_on_c, 0, 76, 0
1, 28224, Note_on_c, 0, 81, 92
1, 28288, Note_on_c, 1, 52, 0
1, 28288, Note_on_c, 1, 48, 0
1, 28318, Note_on_c, 0, 81, 0
1, 28320, Note_on_c, 0, 79, 92
1, 28320, Note_on_c, 1, 47, 92
1, 28320, Note_on_c, 1, 50, 92
1, 28414, Note_on_c, 0, 79, 0
1, 28414, Note_on_c, 1, 50, 0
1, 28414, Note_on_c, 1, 47, 0
1, 28416, Note_on_c, 0, 60, 92
1, 28416, Note_on_c, 1, 45, 92
1, 28416, Note_on_c, 1, 48, 92
1, 28510, Note_on_c, 0, 60, 0
1, 28512, Note_on_c, 0, 72, 92
1, 28606, Note_on_c, 0, 72, 0
1, 28608, Note_on_c, 0, 77, 92
1, 28672, Note_on_c, 1, 48, 0
1, 28672, Note_on_c, 1, 45, 0
1, 28702, Note_on_c, 0, 77, 0
1, 28704, Note_on_c, 0, 76, 92
1, 28704, Note_on_c, 1, 43, 92
1, 28704, Note_on_c, 1, 47, 92
1, 28798, Note_on_c, 0, 76, 0
1, 28798, Note_on_c, 1, 47, 0
1, 28798, Note_on_c, 1, 43, 0
1, 28800, Note_on_c, 0, 75, 92
1, 28800, Note_on_c, 1, 42, 92
1, 28800, Note_on_c, 1, 45, 92
1, 28894, Note_on_c, 0, 75, 0
1, 28896, Note_on_c, 0, 78, 92
1, 28960, Note_on_c, 1, 45, 0
1, 28960, Note_on_c, 1, 42, 0
1, 28990, Note_on_c, 0, 78, 0
1, 28992, Note_on_c, 0, 71, 92
1, 28992, Note_on_c, 1, 39, 92
1, 28992, Note_on_c, 1, 47, 92
1, 29086, Note_on_c, 0, 71, 0
1, 29088, Note_on_c, 0, 81, 92
1, 29152, Note_on_c, 1, 47, 0
1, 29152, Note_on_c, 1, 39, 0
1, 29182, Note_on_c, 0, 81, 0
1, 29184, Note_on_c, 0, 79, 92
1, 29184, Note_on_c, 1, 40, 92
1, 29278, Note_on_c, 0, 79, 0
1, 29280, Note_on_c, 0, 76, 92
1, 29344, Note_on_c, 1, 40, 0
1, 29374, Note_on_c, 0, 76, 0
1, 29376, Note_on_c, 0, 84, 92
1, 29376, Note_on_c, 1, 45, 92
1, 29470, Note_on_c, 0, 84, 0
1, 29472, Note_on_c, 0, 81, 92
1, 29536, Note_on_c, 1, 45, 0
1, 29566, Note_on_c, 0, 81, 0
1, 29568, Note_on_c, 0, 79, 92
1, 29568, Note_on_c, 1, 47, 92
1, 29662, Note_on_c, 0, 79, 0
1, 29664, Note_on_c, 0, 83, 92
1, 29728, Note_on_c, 1, 47, 0
1, 29758, Note_on_c, 0, 83, 0
1, 29760, Note_on_c, 0, 75, 92
1, 29760, Note_on_c, 1, 35, 92
1, 29854, Note_on_c, 0, 75, 0
1, 29856, Note_on_c, 0, 78, 92
1, 29920, Note_on_c, 1, 35, 0
1, 29950, Note_on_c, 0, 78, 0
1, 29952, Note_on_c, 0, 76, 92
1, 29952, Note_on_c, 1, 40, 92
1, 30046, Note_on_c, 0, 76, 0
1, 30048, Note_on_c, 0, 71, 92
1, 30112, Note_on_c, 1, 40, 0
1, 30142, Note_on_c, 0, 71, 0
1, 30144, Note_on_c, 0, 67, 92
1, 30238, Note_on_c, 0, 67, 0
1, 30240, Note_on_c, 0, 64, 92
1, 30334, Note_on_c, 0, 64, 0
1, 30336, Note_on_c, 0, 71, 92
1, 30336, Note_on_c, 1, 55, 92
1, 30336, Note_on_c, 1, 59, 92
1, 30430, Note_on_c, 0, 71, 0
1, 30432, Note_on_c, 0, 83, 92
1, 30526, Note_on_c, 0, 83, 0
1, 30528, Note_on_c, 0, 88, 92
1, 30592, Note_on_c, 1, 59, 0
1, 30592, Note_on_c, 1, 55, 0
1, 30622, Note_on_c, 0, 88, 0
1, 30624, Note_on_c, 0, 87, 92
1, 30624, Note_on_c, 1, 54, 92
1, 30624, Note_on_c, 1, 57, 92
1, 30718, Note_on_c, 0, 87, 0
1, 30718, Note_on_c, 1, 57, 0
1, 30718, Note_on_c, 1, 54, 0
1, 30720, Note_on_c, 0, 67, 92
1, 30720, Note_on_c, 1, 52, 92
1, 30720, Note_on_c, 1, 55, 92
1, 30814, Note_on_c, 0, 67, 0
1, 30816, Note_on_c, 0, 79, 92
1, 30910, Note_on_c, 0, 79, 0
1, 30912, Note_on_c, 0, 84, 92
1, 30976, Note_on_c, 1, 55, 0
1, 30976, Note_on_c, 1, 52, 0
1, 31006, Note_on_c, 0, 84, 0
1, 31008, Note_on_c, 0, 83, 92
1, 31008, Note_on_c, 1, 50, 92
1, 31008, Note_on_c, 1, 54, 92
1, 31102, Note_on_c, 0, 83, 0
1, 31102, Note_on_c, 1, 54, 0
1, 31102, Note_on_c, 1, 50, 0
1, 31104, Note_on_c, 0, 64, 92
1, 31104, Note_on_c, 1, 48, 92
1, 31104, Note_on_c, 1, 52, 92
1, 31198, Note_on_c, 0, 64, 0
1, 31200, Note_on_c, 0, 76, 92
1, 31294, Note_on_c, 0, 76, 0
1, 31296, Note_on_c, 0, 81, 92
1, 31360, Note_on_c, 1, 52, 0
1, 31360, Note_on_c, 1, 48, 0
1, 31390, Note_on_c, 0, 81, 0
1, 31392, Note_on_c, 0, 79, 92
1, 31392, Note_on_c, 1, 47, 92
1, 31392, Note_on_c, 1, 50, 92
1, 31486, Note_on_c, 0, 79, 0
1, 31486, Note_on_c, 1, 50, 0
1, 31486, Note_on_c, 1, 47, 0
1, 31488, Note_on_c, 0, 60, 92
1, 31488, Note_on_c, 1, 45, 92
1, 31488, Note_on_c, 1, 48, 92
1, 31582, Note_on_c, 0, 60, 0
1, 31584, Note_on_c, 0, 72, 92
1, 31678, Note_on_c, 0, 72, 0
1, 31680, Note_on_c, 0, 77, 92
1, 31744, Note_on_c, 1, 48, 0
1, 31744, Note_on_c, 1, 45, 0
1, 31774, Note_on_c, 0, 77, 0
1, 31776, Note_on_c, 0, 76, 92
1, 31776, Note_on_c, 1, 43, 92
1, 31776, Note_on_c, 1, 47, 92
1, 31870, Note_on_c, 0, 76, 0
1, 31870, Note_on_c, 1, 47, 0
1, 31870, Note_on_c, 1, 43, 0
1, 31872, Note_on_c, 0, 75, 92
1, 31872, Note_on_c, 1, 42, 92
1, 31872, Note_on_c, 1, 45, 92
1, 31966, Note_on_c, 0, 75, 0
1, 31968, Note_on_c, 0, 78, 92
1, 32032, Note_on_c, 1, 45, 0
1, 32032, Note_on_c, 1, 42, 0
1, 32062, Note_on_c, 0, 78, 0
1, 32064, Note_on_c, 0, 71, 92
1, 32064, Note_on_c, 1, 39, 92
1, 32064, Note_on_c, 1, 47, 92
1, 32158, Note_on_c, 0, 71, 0
1, 32160, Note_on_c, 0, 81, 92
1, 32224, Note_on_c, 1, 47, 0
1, 32224, Note_on_c, 1, 39, 0
1, 32254, Note_on_c, 0, 81, 0
1, 32256, Note_on_c, 0, 79, 92
1, 32256, Note_on_c, 1, 40, 92
1, 32350, Note_on_c, 0, 79, 0
1, 32352, Note_on_c, 0, 76, 92
1, 32416, Note_on_c, 1, 40, 0
1, 32446, Note_on_c, 0, 76, 0
1, 32448, Note_on_c, 0, 88, 92
1, 32448, Note_on_c, 1, 45, 92
1, 32542, Note_on_c, 0, 88, 0
1, 32544, Note_on_c, 0, 84, 92
1, 32608, Note_on_c, 1, 45, 0
1, 32638, Note_on_c, 0, 84, 0
1, 32640, Note_on_c, 0, 79, 92
1, 32640, Note_on_c, 1, 47, 92
1, 32734, Note_on_c, 0, 79, 0
1, 32736, Note_on_c, 0, 83, 92
1, 32800, Note_on_c, 1, 47, 0
1, 32830, Note_on_c, 0, 83, 0
1, 32832, Note_on_c, 0, 75, 92
1, 32832, Note_on_c, 1, 35, 92
1, 32926, Note_on_c, 0, 75, 0
1, 32928, Note_on_c, 0, 78, 92
1, 32992, Note_on_c, 1, 35, 0
1, 33022, Note_on_c, 0, 78, 0
1, 33024, Note_on_c, 0, 76, 92
1, 33120, Note_on_c, 1, 52, 92
1, 33216, Note_on_c, 1, 52, 0
1, 33216, Note_on_c, 1, 54, 92
1, 33312, Note_on_c, 0, 76, 0
1, 33312, Note_on_c, 0, 74, 92
1, 33312, Note_on_c, 1, 54, 0
1, 33312, Note_on_c, 1, 56, 92
1, 33408, Note_on_c, 0, 74, 0
1, 33408, Note_on_c, 0, 72, 92
1, 33408, Note_on_c, 0, 76, 92
1, 33408, Note_on_c, 1, 56, 0
1, 33408, Note_on_c, 1, 57, 92
1, 33502, Note_on_c, 0, 76, 0
1, 33502, Note_on_c, 0, 72, 0
1, 33504, Note_on_c, 0, 71, 92
1, 33504, Note_on_c, 1, 57, 0
1, 33504, Note_on_c, 1, 59, 92
1, 33598, Note_on_c, 0, 71, 0
1, 33600, Note_on_c, 0, 69, 92
1, 33600, Note_on_c, 1, 59, 0
1, 33600, Note_on_c, 1, 60, 92
1, 33694, Note_on_c, 0, 69, 0
1, 33696, Note_on_c, 0, 72, 92
1, 33696, Note_on_c, 1, 60, 0
1, 33696, Note_on_c, 1, 57, 92
1, 33790, Note_on_c, 0, 72, 0
1, 33790, Note_on_c, 1, 57, 0
1, 33792, Note_on_c, 0, 74, 92
1, 33792, Note_on_c, 0, 77, 92
1, 33888, Note_on_c, 1, 50, 92
1, 33984, Note_on_c, 1, 50, 0
1, 33984, Note_on_c, 1, 52, 92
1, 34048, Note_on_c, 0, 77, 0
1, 34048, Note_on_c, 0, 74, 0
1, 34080, Note_on_c, 0, 72, 92
1, 34080, Note_on_c, 1, 52, 0
1, 34080, Note_on_c, 1, 53, 92
1, 34174, Note_on_c, 0, 72, 0
1, 34176, Note_on_c, 0, 71, 92
1, 34176, Note_on_c, 1, 53, 0
1, 34176, Note_on_c, 1, 55, 92
1, 34270, Note_on_c, 0, 71, 0
1, 34272, Note_on_c, 0, 69, 92
1, 34272, Note_on_c, 1, 55, 0
1, 34272, Note_on_c, 1, 57, 92
1, 34366, Note_on_c, 0, 69, 0
1, 34368, Note_on_c, 0, 67, 92
1, 34368, Note_on_c, 1, 57, 0
1, 34368, Note_on_c, 1, 59, 92
1, 34462, Note_on_c, 0, 67, 0
1, 34464, Note_on_c, 0, 71, 92
1, 34464, Note_on_c, 1, 59, 0
1, 34464, Note_on_c, 1, 55, 92
1, 34558, Note_on_c, 0, 71, 0
1, 34558, Note_on_c, 1, 55, 0
1, 34560, Note_on_c, 0, 72, 92
1, 34560, Note_on_c, 0, 76, 92
1, 34656, Note_on_c, 1, 48, 92
1, 34752, Note_on_c, 1, 48, 0
1, 34752, Note_on_c, 1, 50, 92
1, 34816, Note_on_c, 0, 76, 0
1, 34816, Note_on_c, 0, 72, 0
1, 34848, Note_on_c, 0, 71, 92
1, 34848, Note_on_c, 1, 50, 0
1, 34848, Note_on_c, 1, 52, 92
1, 34942, Note_on_c, 0, 71, 0
1, 34944, Note_on_c, 0, 69, 92
1, 34944, Note_on_c, 1, 52, 0
1, 34944, Note_on_c, 1, 53, 92
1, 35038, Note_on_c, 0, 69, 0
1, 35040, Note_on_c, 0, 67, 92
1, 35040, Note_on_c, 1, 53, 0
1, 35040, Note_on_c, 1, 55, 92
1, 35134, Note_on_c, 0, 67, 0
1, 35136, Note_on_c, 0, 65, 92
1, 35136, Note_on_c, 1, 55, 0
1, 35136, Note_on_c, 1, 57, 92
1, 35230, Note_on_c, 0, 65, 0
1, 35232, Note_on_c, 0, 69, 92
1, 35232, Note_on_c, 1, 57, 0
1, 35232, Note_on_c, 1, 53, 92
1, 35326, Note_on_c, 0, 69, 0
1, 35326, Note_on_c, 1, 53, 0
1, 35328, Note_on_c, 0, 71, 92
1, 35328, Note_on_c, 0, 74, 92
1, 35424, Note_on_c, 1, 47, 92
1, 35520, Note_on_c, 1, 47, 0
1, 35520, Note_on_c, 1, 48, 92
1, 35584, Note_on_c, 0, 74, 0
1, 35584, Note_on_c, 0, 71, 0
1, 35616, Note_on_c, 0, 69, 92
1, 35616, Note_on_c, 1, 48, 0
1, 35616, Note_on_c, 1, 50, 92
1, 35710, Note_on_c, 0, 69, 0
1, 35712, Note_on_c, 0, 68, 92
1, 35712, Note_on_c, 1, 50, 0
1, 35712, Note_on_c, 1, 52, 92
1, 35806, Note_on_c, 0, 68, 0
1, 35808, Note_on_c, 0, 69, 92
1, 35808, Note_on_c, 1, 52, 0
1, 35808, Note_on_c, 1, 54, 92
1, 35902, Note_on_c, 0, 69, 0
1, 35904, Note_on_c, 0, 71, 92
1, 35904, Note_on_c, 1, 54, 0
1, 35904, Note_on_c, 1, 56, 92
1, 35998, Note_on_c, 0, 71, 0
1, 36000, Note_on_c, 0, 68, 92
1, 36000, Note_on_c, 1, 56, 0
1, 36000, Note_on_c, 1, 52, 92
1, 36094, Note_on_c, 0, 68, 0
1, 36094, Note_on_c, 1, 52, 0
1, 36096, Note_on_c, 0, 72, 92
1, 36096, Note_on_c, 1, 57, 92
1, 36190, Note_on_c, 0, 72, 0
1, 36192, Note_on_c, 0, 69, 92
1, 36256, Note_on_c, 1, 57, 0
1, 36286, Note_on_c, 0, 69, 0
1, 36288, Note_on_c, 0, 76, 92
1, 36382, Note_on_c, 0, 76, 0
1, 36384, Note_on_c, 0, 71, 92
1, 36384, Note_on_c, 1, 55, 92
1, 36478, Note_on_c, 0, 71, 0
1, 36478, Note_on_c, 1, 55, 0
1, 36480, Note_on_c, 0, 69, 92
1, 36480, Note_on_c, 1, 53, 92
1, 36574, Note_on_c, 0, 69, 0
1, 36576, Note_on_c, 0, 77, 92
1, 36670, Note_on_c, 0, 77, 0
1, 36672, Note_on_c, 0, 74, 92
1, 36736, Note_on_c, 1, 53, 0
1, 36766, Note_on_c, 0, 74, 0
1, 36768, Note_on_c, 0, 71, 92
1, 36768, Note_on_c, 1, 50, 92
1, 36862, Note_on_c, 0, 71, 0
1, 36862, Note_on_c, 1, 50, 0
1, 36864, Note_on_c, 0, 68, 92
1, 36864, Note_on_c, 1, 52, 92
1, 36958, Note_on_c, 0, 68, 0
1, 36960, Note_on_c, 0, 76, 92
1, 37054, Note_on_c, 0, 76, 0
1, 37056, Note_on_c, 0, 72, 92
1, 37120, Note_on_c, 1, 52, 0
1, 37150, Note_on_c, 0, 72, 0
1, 37152, Note_on_c, 0, 69, 92
1, 37152, Note_on_c, 1, 48, 92
1, 37246, Note_on_c, 0, 69, 0
1, 37246, Note_on_c, 1, 48, 0
1, 37248, Note_on_c, 0, 66, 92
1, 37248, Note_on_c, 1, 50, 92
1, 37342, Note_on_c, 0, 66, 0
1, 37344, Note_on_c, 0, 74, 92
1, 37438, Note_on_c, 0, 74, 0
1, 37440, Note_on_c, 0, 71, 92
1, 37504, Note_on_c, 1, 50, 0
1, 37534, Note_on_c, 0, 71, 0
1, 37536, Note_on_c, 0, 69, 92
1, 37536, Note_on_c, 1, 51, 92
1, 37630, Note_on_c, 0, 69, 0
1, 37630, Note_on_c, 1, 51, 0
1, 37632, Note_on_c, 0, 64, 92
1, 37632, Note_on_c, 0, 68, 92
1, 37632, Note_on_c, 1, 52, 92
1, 37726, Note_on_c, 0, 68, 0
1, 37726, Note_on_c, 0, 64, 0
1, 37728, Note_on_c, 0, 71, 92
1, 37824, Note_on_c, 0, 71, 0
1, 37824, Note_on_c, 0, 76, 92
1, 37920, Note_on_c, 0, 76, 0
1, 37920, Note_on_c, 0, 71, 92
1, 37968, Note_on_c, 1, 52, 0
1, 38014, Note_on_c, 0, 71, 0
1, 38016, Note_on_c, 0, 69, 92
1, 38016, Note_on_c, 1, 53, 92
1, 38016, Note_on_c, 1, 57, 92
1, 38112, Note_on_c, 0, 69, 0
1, 38112, Note_on_c, 0, 76, 92
1, 38208, Note_on_c, 0, 76, 0
1, 38208, Note_on_c, 0, 75, 92
1, 38304, Note_on_c, 0, 75, 0
1, 38304, Note_on_c, 0, 69, 92
1, 38352, Note_on_c, 1, 57, 0
1, 38352, Note_on_c, 1, 53, 0
1, 38398, Note_on_c, 0, 69, 0
1, 38400, Note_on_c, 0, 68, 92
1, 38400, Note_on_c, 1, 52, 92
1, 38400, Note_on_c, 1, 59, 92
1, 38496, Note_on_c, 0, 68, 0
1, 38496, Note_on_c, 0, 71, 92
1, 38592, Note_on_c, 0, 71, 0
1, 38592, Note_on_c, 0, 76, 92
1, 38688, Note_on_c, 0, 76, 0
1, 38688, Note_on_c, 0, 68, 92
1, 38736, Note_on_c, 1, 59, 0
1, 38736, Note_on_c, 1, 52, 0
1, 38782, Note_on_c, 0, 68, 0
1, 38784, Note_on_c, 0, 69, 92
1, 38784, Note_on_c, 1, 53, 92
1, 38784, Note_on_c, 1, 57, 92
1, 38880, Note_on_c, 0, 69, 0
1, 38880, Note_on_c, 0, 76, 92
1, 38976, Note_on_c, 0, 76, 0
1, 38976, Note_on_c, 0, 75, 92
1, 39072, Note_on_c, 0, 75, 0
1, 39072, Note_on_c, 0, 69, 92
1, 39120, Note_on_c, 1, 57, 0
1, 39120, Note_on_c, 1, 53, 0
1, 39166, Note_on_c, 0, 69, 0
1, 39168, Note_on_c, 0, 68, 92
1, 39168, Note_on_c, 1, 52, 92
1, 39168, Note_on_c, 1, 59, 92
1, 39264, Note_on_c, 0, 68, 0
1, 39264, Note_on_c, 0, 71, 92
1, 39360, Note_on_c, 0, 71, 0
1, 39360, Note_on_c, 0, 76, 92
1, 39456, Note_on_c, 0, 76, 0
1, 39456, Note_on_c, 0, 68, 92
1, 39504, Note_on_c, 1, 59, 0
1, 39504, Note_on_c, 1, 52, 0
1, 39550, Note_on_c, 0, 68, 0
1, 39552, Note_on_c, 0, 69, 92
1, 39552, Note_on_c, 1, 53, 92
1, 39552, Note_on_c, 1, 57, 92
1, 39648, Note_on_c, 0, 69, 0
1, 39648, Note_on_c, 0, 76, 91
1, 39744, Note_on_c, 0, 76, 0
1, 39744, Note_on_c, 0, 75, 90
1, 39840, Note_on_c, 0, 75, 0
1, 39840, Note_on_c, 0, 69, 89
1, 39888, Note_on_c, 1, 57, 0
1, 39888, Note_on_c, 1, 53, 0
1, 39934, Note_on_c, 0, 69, 0
1, 39936, Note_on_c, 0, 68, 88
1, 39936, Note_on_c, 1, 52, 90
1, 39936, Note_on_c, 1, 59, 90
1, 40032, Note_on_c, 0, 68, 0
1, 40032, Note_on_c, 0, 71, 87
1, 40096, Note_on_c, 1, 59, 0
1, 40096, Note_on_c, 1, 52, 0
1, 40128, Note_on_c, 0, 71, 0
1, 40128, Note_on_c, 0, 76, 86
1, 40224, Note_on_c, 0, 76, 0
1, 40224, Note_on_c, 0, 75, 85
1, 40320, Note_on_c, 0, 75, 0
1, 40320, Note_on_c, 0, 74, 84
1, 40416, Note_on_c, 0, 74, 0
1, 40416, Note_on_c, 0, 73, 83
1, 40512, Note_on_c, 0, 73, 0
1, 40512, Note_on_c, 0, 74, 82
1, 40608, Note_on_c, 0, 74, 0
1, 40608, Note_on_c, 0, 71, 81
1, 40702, Note_on_c, 0, 71, 0
1, 40704, Note_on_c, 0, 69, 45
1, 40704, Note_on_c, 0, 72, 45
1, 40800, Note_on_c, 1, 57, 45
1, 40896, Note_on_c, 1, 57, 0
1, 40896, Note_on_c, 1, 64, 45
1, 40992, Note_on_c, 0, 72, 0
1, 40992, Note_on_c, 0, 69, 0
1, 40992, Note_on_c, 0, 68, 45
1, 40992, Note_on_c, 0, 71, 45
1, 40992, Note_on_c, 1, 64, 0
1, 40992, Note_on_c, 1, 62, 45
1, 41086, Note_on_c, 0, 71, 0
1, 41086, Note_on_c, 0, 68, 0
1, 41086, Note_on_c, 1, 62, 0
1, 41088, Note_on_c, 0, 64, 45
1, 41088, Note_on_c, 0, 69, 45
1, 41184, Note_on_c, 1, 57, 45
1, 41280, Note_on_c, 1, 57, 0
1, 41280, Note_on_c, 1, 60, 45
1, 41376, Note_on_c, 0, 69, 0
1, 41376, Note_on_c, 0, 64, 0
1, 41376, Note_on_c, 0, 68, 45
1, 41376, Note_on_c, 1, 60, 0
1, 41376, Note_on_c, 1, 59, 45
1, 41470, Note_on_c, 0, 68, 0
1, 41470, Note_on_c, 1, 59, 0
1, 41472, Note_on_c, 0, 64, 45
1, 41472, Note_on_c, 0, 69, 45
1, 41568, Note_on_c, 1, 57, 45
1, 41664, Note_on_c, 1, 57, 0
1, 41664, Note_on_c, 1, 60, 45
1, 41760, Note_on_c, 0, 69, 0
1, 41760, Note_on_c, 0, 64, 0
1, 41760, Note_on_c, 0, 71, 45
1, 41760, Note_on_c, 1, 60, 0
1, 41760, Note_on_c, 1, 56, 45
1, 41854, Note_on_c, 0, 71, 0
1, 41854, Note_on_c, 1, 56, 0
1, 41856, Note_on_c, 0, 69, 45
1, 41856, Note_on_c, 0, 72, 45
1, 41952, Note_on_c, 1, 57, 45
1, 42016, Note_on_c, 0, 72, 0
1, 42016, Note_on_c, 0, 69, 0
1, 42048, Note_on_c, 0, 68, 45
1, 42048, Note_on_c, 0, 71, 45
1, 42048, Note_on_c, 1, 57, 0
1, 42048, Note_on_c, 1, 64, 45
1, 42144, Note_on_c, 1, 64, 0
1, 42144, Note_on_c, 1, 52, 45
1, 42208, Note_on_c, 0, 71, 0
1, 42208, Note_on_c, 0, 68, 0
1, 42238, Note_on_c, 1, 52, 0
1, 42240, Note_on_c, 0, 69, 45
1, 42240, Note_on_c, 0, 74, 45
1, 42336, Note_on_c, 1, 53, 45
1, 42432, Note_on_c, 1, 53, 0
1, 42432, Note_on_c, 1, 65, 45
1, 42528, Note_on_c, 0, 74, 0
1, 42528, Note_on_c, 0, 69, 0
1, 42528, Note_on_c, 0, 72, 45
1, 42528, Note_on_c, 1, 65, 0
1, 42528, Note_on_c, 1, 64, 45
1, 42622, Note_on_c, 0, 72, 0
1, 42622, Note_on_c, 1, 64, 0
1, 42624, Note_on_c, 0, 69, 45
1, 42624, Note_on_c, 0, 77, 45
1, 42720, Note_on_c, 1, 50, 45
1, 42816, Note_on_c, 1, 50, 0
1, 42816, Note_on_c, 1, 62, 45
1, 42912, Note_on_c, 0, 77, 0
1, 42912, Note_on_c, 0, 69, 0
1, 42912, Note_on_c, 0, 76, 45
1, 42912, Note_on_c, 1, 62, 0
1, 42912, Note_on_c, 1, 60, 45
1, 43006, Note_on_c, 0, 76, 0
1, 43006, Note_on_c, 1, 60, 0
1, 43008, Note_on_c, 0, 68, 45
1, 43008, Note_on_c, 0, 74, 45
1, 43104, Note_on_c, 1, 47, 45
1, 43168, Note_on_c, 0, 74, 0
1, 43168, Note_on_c, 0, 68, 0
1, 43200, Note_on_c, 1, 47, 0
1, 43200, Note_on_c, 1, 59, 45
1, 43296, Note_on_c, 0, 69, 45
1, 43296, Note_on_c, 0, 72, 45
1, 43296, Note_on_c, 1, 59, 0
1, 43296, Note_on_c, 1, 57, 45
1, 43390, Note_on_c, 0, 72, 0
1, 43390, Note_on_c, 0, 69, 0
1, 43390, Note_on_c, 1, 57, 0
1, 43392, Note_on_c, 0, 68, 45
1, 43392, Note_on_c, 0, 71, 45
1, 43392, Note_on_c, 1, 52, 45
1, 43392, Note_on_c, 1, 64, 45
1, 43552, Note_on_c, 0, 71, 0
1, 43552, Note_on_c, 0, 68, 0
1, 43552, Note_on_c, 1, 64, 0
1, 43552, Note_on_c, 1, 52, 0
1, 43584, Note_on_c, 0, 68, 45
1, 43584, Note_on_c, 1, 52, 45
1, 43678, Note_on_c, 0, 68, 0
1, 43680, Note_on_c, 0, 64, 45
1, 43744, Note_on_c, 1, 52, 0
1, 43774, Note_on_c, 0, 64, 0
1, 43776, Note_on_c, 0, 69, 45
1, 43776, Note_on_c, 0, 72, 45
1, 43872, Note_on_c, 1, 57, 45
1, 43968, Note_on_c, 1, 57, 0
1, 43968, Note_on_c, 1, 64, 45
1, 44064, Note_on_c, 0, 72, 0
1, 44064, Note_on_c, 0, 69, 0
1, 44064, Note_on_c, 0, 68, 45
1, 44064, Note_on_c, 0, 71, 45
1, 44064, Note_on_c, 1, 64, 0
1, 44064, Note_on_c, 1, 62, 45
1, 44158, Note_on_c, 0, 71, 0
1, 44158, Note_on_c, 0, 68, 0
1, 44158, Note_on_c, 1, 62, 0
1, 44160, Note_on_c, 0, 64, 45
1, 44160, Note_on_c, 0, 69, 45
1, 44256, Note_on_c, 1, 57, 45
1, 44352, Note_on_c, 1, 57, 0
1, 44352, Note_on_c, 1, 60, 45
1, 44448, Note_on_c, 0, 69, 0
1, 44448, Note_on_c, 0, 64, 0
1, 44448, Note_on_c, 0, 68, 45
1, 44448, Note_on_c, 1, 60, 0
1, 44448, Note_on_c, 1, 59, 45
1, 44542, Note_on_c, 0, 68, 0
1, 44542, Note_on_c, 1, 59, 0
1, 44544, Note_on_c, 0, 64, 45
1, 44544, Note_on_c, 0, 69, 45
1, 44640, Note_on_c, 1, 57, 45
1, 44736, Note_on_c, 1, 57, 0
1, 44736, Note_on_c, 1, 60, 45
1, 44832, Note_on_c, 0, 69, 0
1, 44832, Note_on_c, 0, 64, 0
1, 44832, Note_on_c, 0, 71, 45
1, 44832, Note_on_c, 1, 60, 0
1, 44832, Note_on_c, 1, 56, 45
1, 44926, Note_on_c, 0, 71, 0
1, 44926, Note_on_c, 1, 56, 0
1, 44928, Note_on_c, 0, 69, 45
1, 44928, Note_on_c, 0, 72, 45
1, 45024, Note_on_c, 1, 57, 45
1, 45088, Note_on_c, 0, 72, 0
1, 45088, Note_on_c, 0, 69, 0
1, 45120, Note_on_c, 0, 68, 45
1, 45120, Note_on_c, 0, 71, 45
1, 45120, Note_on_c, 1, 57, 0
1, 45120, Note_on_c, 1, 64, 45
1, 45216, Note_on_c, 1, 64, 0
1, 45216, Note_on_c, 1, 52, 45
1, 45280, Note_on_c, 0, 71, 0
1, 45280, Note_on_c, 0, 68, 0
1, 45310, Note_on_c, 1, 52, 0
1, 45312, Note_on_c, 0, 69, 45
1, 45312, Note_on_c, 0, 77, 45
1, 45408, Note_on_c, 1, 50, 45
1, 45504, Note_on_c, 1, 50, 0
1, 45504, Note_on_c, 1, 62, 45
1, 45600, Note_on_c, 0, 77, 0
1, 45600, Note_on_c, 0, 69, 0
1, 45600, Note_on_c, 0, 74, 45
1, 45600, Note_on_c, 1, 62, 0
1, 45600, Note_on_c, 1, 60, 45
1, 45694, Note_on_c, 0, 74, 0
1, 45694, Note_on_c, 1, 60, 0
1, 45696, Note_on_c, 0, 69, 45
1, 45696, Note_on_c, 0, 74, 45
1, 45792, Note_on_c, 1, 53, 46
1, 45888, Note_on_c, 1, 53, 0
1, 45888, Note_on_c, 1, 65, 47
1, 45984, Note_on_c, 0, 74, 0
1, 45984, Note_on_c, 0, 69, 0
1, 45984, Note_on_c, 0, 72, 46
1, 45984, Note_on_c, 1, 65, 0
1, 45984, Note_on_c, 1, 64, 48
1, 46078, Note_on_c, 0, 72, 0
1, 46078, Note_on_c, 1, 64, 0
1, 46080, Note_on_c, 0, 71, 47
1, 46080, Note_on_c, 1, 62, 49
1, 46240, Note_on_c, 0, 71, 0
1, 46240, Note_on_c, 1, 62, 0
1, 46272, Note_on_c, 0, 69, 48
1, 46272, Note_on_c, 1, 64, 50
1, 46366, Note_on_c, 0, 69, 0
1, 46368, Note_on_c, 0, 68, 49
1, 46432, Note_on_c, 1, 64, 0
1, 46462, Note_on_c, 0, 68, 0
1, 46464, Note_on_c, 0, 69, 50
1, 46464, Note_on_c, 1, 65, 51
1, 46558, Note_on_c, 0, 69, 0
1, 46560, Note_on_c, 0, 73, 51
1, 46624, Note_on_c, 1, 65, 0
1, 46654, Note_on_c, 0, 73, 0
1, 46656, Note_on_c, 0, 74, 52
1, 46750, Note_on_c, 0, 74, 0
1, 46752, Note_on_c, 0, 76, 53
1, 46846, Note_on_c, 0, 76, 0
1, 46848, Note_on_c, 0, 77, 92
1, 46944, Note_on_c, 1, 50, 92
1, 47038, Note_on_c, 1, 50, 0
1, 47040, Note_on_c, 1, 62, 92
1, 47104, Note_on_c, 0, 77, 0
1, 47134, Note_on_c, 1, 62, 0
1, 47136, Note_on_c, 0, 76, 92
1, 47136, Note_on_c, 1, 60, 92
1, 47230, Note_on_c, 0, 76, 0
1, 47230, Note_on_c, 1, 60, 0
1, 47232, Note_on_c, 0, 74, 92
1, 47232, Note_on_c, 0, 80, 92
1, 47328, Note_on_c, 1, 47, 92
1, 47422, Note_on_c, 1, 47, 0
1, 47424, Note_on_c, 1, 59, 92
1, 47488, Note_on_c, 0, 80, 0
1, 47488, Note_on_c, 0, 74, 0
1, 47518, Note_on_c, 1, 59, 0
1, 47520, Note_on_c, 0, 72, 92
1, 47520, Note_on_c, 0, 81, 92
1, 47520, Note_on_c, 1, 57, 92
1, 47614, Note_on_c, 0, 81, 0
1, 47614, Note_on_c, 0, 72, 0
1, 47614, Note_on_c, 1, 57, 0
1, 47616, Note_on_c, 0, 76, 92
1, 47616, Note_on_c, 0, 83, 92
1, 47712, Note_on_c, 1, 44, 92
1, 47806, Note_on_c, 1, 44, 0
1, 47808, Note_on_c, 1, 56, 92
1, 47872, Note_on_c, 0, 83, 0
1, 47872, Note_on_c, 0, 76, 0
1, 47902, Note_on_c, 1, 56, 0
1, 47904, Note_on_c, 0, 81, 92
1, 47904, Note_on_c, 0, 84, 92
1, 47904, Note_on_c, 1, 54, 92
1, 47998, Note_on_c, 0, 84, 0
1, 47998, Note_on_c, 0, 81, 0
1, 47998, Note_on_c, 1, 54, 0
1, 48000, Note_on_c, 0, 80, 92
1, 48000, Note_on_c, 0, 86, 92
1, 48000, Note_on_c, 1, 52, 92
1, 48094, Note_on_c, 1, 52, 0
1, 48096, Note_on_c, 1, 40, 92
1, 48160, Note_on_c, 0, 86, 0
1, 48160, Note_on_c, 0, 80, 0
1, 48190, Note_on_c, 1, 40, 0
1, 48192, Note_on_c, 0, 81, 92
1, 48192, Note_on_c, 1, 42, 92
1, 48286, Note_on_c, 0, 81, 0
1, 48286, Note_on_c, 1, 42, 0
1, 48288, Note_on_c, 0, 83, 92
1, 48288, Note_on_c, 1, 44, 92
1, 48382, Note_on_c, 0, 83, 0
1, 48382, Note_on_c, 1, 44, 0
1, 48384, Note_on_c, 0, 81, 92
1, 48384, Note_on_c, 0, 84, 92
1, 48384, Note_on_c, 1, 45, 92
1, 48478, Note_on_c, 1, 45, 0
1, 48480, Note_on_c, 1, 57, 92
1, 48574, Note_on_c, 1, 57, 0
1, 48576, Note_on_c, 1, 59, 92
1, 48640, Note_on_c, 0, 84, 0
1, 48640, Note_on_c, 0, 81, 0
1, 48670, Note_on_c, 1, 59, 0
1, 48672, Note_on_c, 0, 83, 92
1, 48672, Note_on_c, 1, 64, 92
1, 48766, Note_on_c, 0, 83, 0
1, 48766, Note_on_c, 1, 64, 0
1, 48768, Note_on_c, 0, 77, 92
1, 48768, Note_on_c, 0, 81, 92
1, 48768, Note_on_c, 1, 41, 92
1, 48862, Note_on_c, 1, 41, 0
1, 48864, Note_on_c, 1, 53, 92
1, 48958, Note_on_c, 1, 53, 0
1, 48960, Note_on_c, 1, 57, 92
1, 49024, Note_on_c, 0, 81, 0
1, 49024, Note_on_c, 0, 77, 0
1, 49054, Note_on_c, 1, 57, 0
1, 49056, Note_on_c, 0, 76, 92
1, 49056, Note_on_c, 0, 79, 92
1, 49056, Note_on_c, 1, 60, 92
1, 49150, Note_on_c, 0, 79, 0
1, 49150, Note_on_c, 0, 76, 0
1, 49150, Note_on_c, 1, 60, 0
1, 49152, Note_on_c, 0, 74, 92
1, 49152, Note_on_c, 0, 77, 92
1, 49152, Note_on_c, 1, 38, 92
1, 49246, Note_on_c, 1, 38, 0
1, 49248, Note_on_c, 1, 50, 92
1, 49342, Note_on_c, 1, 50, 0
1, 49344, Note_on_c, 1, 53, 92
1, 49408, Note_on_c, 0, 77, 0
1, 49408, Note_on_c, 0, 74, 0
1, 49438, Note_on_c, 1, 53, 0
1, 49440, Note_on_c, 0, 72, 92
1, 49440, Note_on_c, 0, 76, 92
1, 49440, Note_on_c, 1, 57, 92
1, 49534, Note_on_c, 0, 76, 0
1, 49534, Note_on_c, 0, 72, 0
1, 49534, Note_on_c, 1, 57, 0
1, 49536, Note_on_c, 0, 71, 92
1, 49536, Note_on_c, 0, 74, 92
1, 49536, Note_on_c, 1, 35, 92
1, 49630, Note_on_c, 1, 35, 0
1, 49632, Note_on_c, 1, 47, 92
1, 49726, Note_on_c, 1, 47, 0
1, 49728, Note_on_c, 1, 50, 92
1, 49792, Note_on_c, 0, 74, 0
1, 49792, Note_on_c, 0, 71, 0
1, 49822, Note_on_c, 1, 50, 0
1, 49824, Note_on_c, 0, 69, 92
1, 49824, Note_on_c, 0, 72, 92
1, 49824, Note_on_c, 1, 53, 92
1, 49918, Note_on_c, 0, 72, 0
1, 49918, Note_on_c, 0, 69, 0
1, 49918, Note_on_c, 1, 53, 0
1, 49920, Note_on_c, 0, 65, 92
1, 49920, Note_on_c, 0, 68, 92
1, 49920, Note_on_c, 0, 71, 92
1, 49920, Note_on_c, 1, 38, 92
1, 50014, Note_on_c, 1, 38, 0
1, 50016, Note_on_c, 1, 50, 92
1, 50080, Note_on_c, 0, 71, 0
1, 50080, Note_on_c, 0, 68, 0
1, 50080, Note_on_c, 0, 65, 0
1, 50110, Note_on_c, 1, 50, 0
1, 50112, Note_on_c, 0, 74, 92
1, 50112, Note_on_c, 1, 53, 92
1, 50206, Note_on_c, 0, 74, 0
1, 50206, Note_on_c, 1, 53, 0
1, 50208, Note_on_c, 0, 77, 92
1, 50208, Note_on_c, 1, 50, 92
1, 50302, Note_on_c, 0, 77, 0
1, 50302, Note_on_c, 1, 50, 0
1, 50304, Note_on_c, 0, 69, 92
1, 50304, Note_on_c, 0, 77, 92
1, 50304, Note_on_c, 1, 48, 92
1, 50398, Note_on_c, 0, 77, 0
1, 50398, Note_on_c, 0, 69, 0
1, 50400, Note_on_c, 0, 76, 92
1, 50464, Note_on_c, 1, 48, 0
1, 50494, Note_on_c, 0, 76, 0
1, 50496, Note_on_c, 0, 74, 92
1, 50496, Note_on_c, 1, 53, 92
1, 50590, Note_on_c, 0, 74, 0
1, 50592, Note_on_c, 0, 72, 92
1, 50656, Note_on_c, 1, 53, 0
1, 50686, Note_on_c, 0, 72, 0
1, 50688, Note_on_c, 0, 72, 92
1, 50688, Note_on_c, 1, 50, 92
1, 50782, Note_on_c, 0, 72, 0
1, 50784, Note_on_c, 0, 71, 92
1, 50848, Note_on_c, 1, 50, 0
1, 50878, Note_on_c, 0, 71, 0
1, 50880, Note_on_c, 0, 69, 92
1, 50880, Note_on_c, 1, 52, 92
1, 50974, Note_on_c, 0, 69, 0
1, 50976, Note_on_c, 0, 68, 92
1, 51040, Note_on_c, 1, 52, 0
1, 51070, Note_on_c, 0, 68, 0
1, 51072, Note_on_c, 0, 69, 92
1, 51072, Note_on_c, 1, 45, 92
1, 51166, Note_on_c, 0, 69, 0
1, 51168, Note_on_c, 0, 72, 92
1, 51232, Note_on_c, 1, 45, 0
1, 51262, Note_on_c, 0, 72, 0
1, 51264, Note_on_c, 0, 76, 92
1, 51358, Note_on_c, 0, 76, 0
1, 51360, Note_on_c, 0, 80, 92
1, 51454, Note_on_c, 0, 80, 0
1, 51456, Note_on_c, 0, 81, 92
1, 51456, Note_on_c, 0, 84, 92
1, 51456, Note_on_c, 1, 45, 92
1, 51550, Note_on_c, 1, 45, 0
1, 51552, Note_on_c, 1, 57, 92
1, 51646, Note_on_c, 1, 57, 0
1, 51648, Note_on_c, 1, 60, 92
1, 51712, Note_on_c, 0, 84, 0
1, 51712, Note_on_c, 0, 81, 0
1, 51742, Note_on_c, 1, 60, 0
1, 51744, Note_on_c, 0, 79, 92
1, 51744, Note_on_c, 0, 83, 92
1, 51744, Note_on_c, 1, 64, 92
1, 51838, Note_on_c, 0, 83, 0
1, 51838, Note_on_c, 0, 79, 0
1, 51838, Note_on_c, 1, 64, 0
1, 51840, Note_on_c, 0, 77, 92
1, 51840, Note_on_c, 0, 81, 92
1, 51840, Note_on_c, 1, 41, 92
1, 51934, Note_on_c, 1, 41, 0
1, 51936, Note_on_c, 1, 53, 92
1, 52030, Note_on_c, 1, 53, 0
1, 52032, Note_on_c, 1, 57, 92
1, 52096, Note_on_c, 0, 81, 0
1, 52096, Note_on_c, 0, 77, 0
1, 52126, Note_on_c, 1, 57, 0
1, 52128, Note_on_c, 0, 76, 92
1, 52128, Note_on_c, 0, 79, 92
1, 52128, Note_on_c, 1, 60, 92
1, 52222, Note_on_c, 0, 79, 0
1, 52222, Note_on_c, 0, 76, 0
1, 52222, Note_on_c, 1, 60, 0
1, 52224, Note_on_c, 0, 74, 92
1, 52224, Note_on_c, 0, 77, 92
1, 52224, Note_on_c, 1, 38, 92
1, 52318, Note_on_c, 1, 38, 0
1, 52320, Note_on_c, 1, 50, 92
1, 52414, Note_on_c, 1, 50, 0
1, 52416, Note_on_c, 1, 53, 92
1, 52480, Note_on_c, 0, 77, 0
1, 52480, Note_on_c, 0, 74, 0
1, 52510, Note_on_c, 1, 53, 0
1, 52512, Note_on_c, 0, 72, 92
1, 52512, Note_on_c, 0, 76, 92
1, 52512, Note_on_c, 1, 57, 92
1, 52606, Note_on_c, 0, 76, 0
1, 52606, Note_on_c, 0, 72, 0
1, 52606, Note_on_c, 1, 57, 0
1, 52608, Note_on_c, 0, 71, 92
1, 52608, Note_on_c, 0, 74, 92
1, 52608, Note_on_c, 1, 35, 92
1, 52702, Note_on_c, 1, 35, 0
1, 52704, Note_on_c, 1, 47, 92
1, 52798, Note_on_c, 1, 47, 0
1, 52800, Note_on_c, 1, 50, 92
1, 52864, Note_on_c, 0, 74, 0
1, 52864, Note_on_c, 0, 71, 0
1, 52894, Note_on_c, 1, 50, 0
1, 52896, Note_on_c, 0, 69, 92
1, 52896, Note_on_c, 0, 72, 92
1, 52896, Note_on_c, 1, 53, 92
1, 52990, Note_on_c, 0, 72, 0
1, 52990, Note_on_c, 0, 69, 0
1, 52990, Note_on_c, 1, 53, 0
1, 52992, Note_on_c, 0, 65, 92
1, 52992, Note_on_c, 0, 68, 92
1, 52992, Note_on_c, 0, 71, 92
1, 52992, Note_on_c, 1, 38, 92
1, 53086, Note_on_c, 1, 38, 0
1, 53088, Note_on_c, 1, 50, 91
1, 53152, Note_on_c, 0, 71, 0
1, 53152, Note_on_c, 0, 68, 0
1, 53152, Note_on_c, 0, 65, 0
1, 53182, Note_on_c, 1, 50, 0
1, 53184, Note_on_c, 0, 74, 91
1, 53184, Note_on_c, 1, 53, 90
1, 53278, Note_on_c, 0, 74, 0
1, 53278, Note_on_c, 1, 53, 0
1, 53280, Note_on_c, 0, 77, 90
1, 53280, Note_on_c, 1, 50, 89
1, 53374, Note_on_c, 0, 77, 0
1, 53374, Note_on_c, 1, 50, 0
1, 53376, Note_on_c, 0, 69, 89
1, 53376, Note_on_c, 0, 77, 89
1, 53376, Note_on_c, 1, 48, 88
1, 53472, Note_on_c, 0, 77, 0
1, 53472, Note_on_c, 0, 69, 0
1, 53472, Note_on_c, 0, 76, 88
1, 53536, Note_on_c, 1, 48, 0
1, 53566, Note_on_c, 0, 76, 0
1, 53568, Note_on_c, 0, 74, 87
1, 53568, Note_on_c, 1, 41, 87
1, 53568, Note_on_c, 1, 53, 87
1, 53662, Note_on_c, 0, 74, 0
1, 53664, Note_on_c, 0, 72, 86
1, 53728, Note_on_c, 1, 53, 0
1, 53728, Note_on_c, 1, 41, 0
1, 53758, Note_on_c, 0, 72, 0
1, 53760, Note_on_c, 0, 72, 85
1, 53760, Note_on_c, 1, 38, 86
1, 53760, Note_on_c, 1, 50, 86
1, 53856, Note_on_c, 0, 72, 0
1, 53856, Note_on_c, 0, 71, 84
1, 53920, Note_on_c, 1, 50, 0
1, 53920, Note_on_c, 1, 38, 0
1, 53950, Note_on_c, 0, 71, 0
1, 53952, Note_on_c, 0, 69, 83
1, 53952, Note_on_c, 1, 40, 85
1, 53952, Note_on_c, 1, 52, 85
1, 54046, Note_on_c, 0, 69, 0
1, 54048, Note_on_c, 0, 68, 82
1, 54112, Note_on_c, 1, 52, 0
1, 54112, Note_on_c, 1, 40, 0
1, 54142, Note_on_c, 0, 68, 0
1, 54144, Note_on_c, 0, 69, 81
1, 54144, Note_on_c, 1, 33, 84
1, 54144, Note_on_c, 1, 45, 84
1, 54238, Note_on_c, 0, 69, 0
1, 54240, Note_on_c, 0, 64, 80
1, 54304, Note_on_c, 1, 45, 0
1, 54304, Note_on_c, 1, 33, 0
1, 54334, Note_on_c, 0, 64, 0
1, 54336, Note_on_c, 0, 69, 79
1, 54430, Note_on_c, 0, 69, 0
1, 54432, Note_on_c, 0, 71, 78
1, 54526, Note_on_c, 0, 71, 0
1, 54528, Note_on_c, 0, 69, 45
1, 54528, Note_on_c, 0, 73, 45
1, 54528, Note_on_c, 1, 57, 45
1, 54622, Note_on_c, 1, 57, 0
1, 54624, Note_on_c, 1, 61, 45
1, 54718, Note_on_c, 1, 61, 0
1, 54720, Note_on_c, 1, 64, 45
1, 54814, Note_on_c, 1, 64, 0
1, 54816, Note_on_c, 0, 73, 0
1, 54816, Note_on_c, 0, 69, 0
1, 54816, Note_on_c, 0, 73, 45
1, 54816, Note_on_c, 0, 76, 45
1, 54816, Note_on_c, 1, 61, 45
1, 54910, Note_on_c, 0, 76, 0
1, 54910, Note_on_c, 0, 73, 0
1, 54910, Note_on_c, 1, 61, 0
1, 54912, Note_on_c, 0, 71, 45
1, 54912, Note_on_c, 0, 74, 45
1, 54912, Note_on_c, 1, 57, 45
1, 55006, Note_on_c, 1, 57, 0
1, 55008, Note_on_c, 1, 62, 45
1, 55072, Note_on_c, 0, 74, 0
1, 55072, Note_on_c, 0, 71, 0
1, 55102, Note_on_c, 1, 62, 0
1, 55104, Note_on_c, 0, 71, 45
1, 55104, Note_on_c, 0, 74, 45
1, 55104, Note_on_c, 1, 66, 45
1, 55198, Note_on_c, 0, 74, 0
1, 55198, Note_on_c, 0, 71, 0
1, 55198, Note_on_c, 1, 66, 0
1, 55200, Note_on_c, 0, 69, 45
1, 55200, Note_on_c, 0, 73, 45
1, 55200, Note_on_c, 1, 62, 45
1, 55294, Note_on_c, 0, 73, 0
1, 55294, Note_on_c, 0, 69, 0
1, 55294, Note_on_c, 1, 62, 0
1, 55296, Note_on_c, 0, 68, 45
1, 55296, Note_on_c, 0, 71, 45
1, 55296, Note_on_c, 1, 57, 45
1, 55390, Note_on_c, 1, 57, 0
1, 55392, Note_on_c, 1, 59, 45
1, 55456, Note_on_c, 0, 71, 0
1, 55456, Note_on_c, 0, 68, 0
1, 55486, Note_on_c, 1, 59, 0
1, 55488, Note_on_c, 0, 68, 45
1, 55488, Note_on_c, 0, 71, 45
1, 55488, Note_on_c, 1, 62, 45
1, 55582, Note_on_c, 0, 71, 0
1, 55582, Note_on_c, 0, 68, 0
1, 55582, Note_on_c, 1, 62, 0
1, 55584, Note_on_c, 0, 71, 45
1, 55584, Note_on_c, 0, 74, 45
1, 55584, Note_on_c, 1, 59, 45
1, 55678, Note_on_c, 0, 74, 0
1, 55678, Note_on_c, 0, 71, 0
1, 55678, Note_on_c, 1, 59, 0
1, 55680, Note_on_c, 0, 69, 45
1, 55680, Note_on_c, 0, 73, 45
1, 55680, Note_on_c, 1, 57, 45
1, 55774, Note_on_c, 1, 57, 0
1, 55776, Note_on_c, 1, 61, 45
1, 55840, Note_on_c, 0, 73, 0
1, 55840, Note_on_c, 0, 69, 0
1, 55870, Note_on_c, 1, 61, 0
1, 55872, Note_on_c, 0, 69, 45
1, 55872, Note_on_c, 0, 73, 45
1, 55872, Note_on_c, 1, 64, 45
1, 55966, Note_on_c, 1, 64, 0
1, 55968, Note_on_c, 1, 61, 45
1, 56032, Note_on_c, 0, 73, 0
1, 56032, Note_on_c, 0, 69, 0
1, 56062, Note_on_c, 1, 61, 0
1, 56064, Note_on_c, 0, 73, 45
1, 56064, Note_on_c, 0, 81, 45
1, 56064, Note_on_c, 1, 57, 45
1, 56158, Note_on_c, 1, 57, 0
1, 56160, Note_on_c, 1, 61, 45
1, 56224, Note_on_c, 0, 81, 0
1, 56224, Note_on_c, 0, 73, 0
1, 56254, Note_on_c, 1, 61, 0
1, 56256, Note_on_c, 1, 64, 45
1, 56350, Note_on_c, 1, 64, 0
1, 56352, Note_on_c, 0, 76, 45
1, 56352, Note_on_c, 0, 80, 45
1, 56352, Note_on_c, 1, 61, 45
1, 56446, Note_on_c, 0, 80, 0
1, 56446, Note_on_c, 0, 76, 0
1, 56446, Note_on_c, 1, 61, 0
1, 56448, Note_on_c, 0, 74, 45
1, 56448, Note_on_c, 0, 78, 45
1, 56448, Note_on_c, 1, 57, 45
1, 56542, Note_on_c, 1, 57, 0
1, 56544, Note_on_c, 1, 62, 45
1, 56608, Note_on_c, 0, 78, 0
1, 56608, Note_on_c, 0, 74, 0
1, 56638, Note_on_c, 1, 62, 0
1, 56640, Note_on_c, 0, 74, 45
1, 56640, Note_on_c, 0, 78, 45
1, 56640, Note_on_c, 1, 66, 45
1, 56734, Note_on_c, 0, 78, 0
1, 56734, Note_on_c, 0, 74, 0
1, 56734, Note_on_c, 1, 66, 0
1, 56736, Note_on_c, 0, 73, 45
1, 56736, Note_on_c, 0, 76, 45
1, 56736, Note_on_c, 1, 64, 45
1, 56830, Note_on_c, 0, 76, 0
1, 56830, Note_on_c, 0, 73, 0
1, 56830, Note_on_c, 1, 64, 0
1, 56832, Note_on_c, 0, 71, 45
1, 56832, Note_on_c, 0, 74, 45
1, 56832, Note_on_c, 1, 57, 45
1, 56926, Note_on_c, 1, 57, 0
1, 56928, Note_on_c, 1, 59, 45
1, 56992, Note_on_c, 0, 74, 0
1, 56992, Note_on_c, 0, 71, 0
1, 57022, Note_on_c, 1, 59, 0
1, 57024, Note_on_c, 0, 71, 45
1, 57024, Note_on_c, 0, 74, 45
1, 57024, Note_on_c, 1, 62, 45
1, 57118, Note_on_c, 0, 74, 0
1, 57118, Note_on_c, 0, 71, 0
1, 57118, Note_on_c, 1, 62, 0
1, 57120, Note_on_c, 0, 69, 45
1, 57120, Note_on_c, 0, 73, 45
1, 57120, Note_on_c, 1, 61, 45
1, 57214, Note_on_c, 0, 73, 0
1, 57214, Note_on_c, 0, 69, 0
1, 57214, Note_on_c, 1, 61, 0
1, 57216, Note_on_c, 0, 68, 45
1, 57216, Note_on_c, 0, 71, 45
1, 57216, Note_on_c, 1, 62, 45
1, 57310, Note_on_c, 1, 62, 0
1, 57312, Note_on_c, 1, 64, 45
1, 57376, Note_on_c, 0, 71, 0
1, 57376, Note_on_c, 0, 68, 0
1, 57406, Note_on_c, 1, 64, 0
1, 57408, Note_on_c, 0, 69, 45
1, 57408, Note_on_c, 1, 61, 45
1, 57502, Note_on_c, 1, 61, 0
1, 57504, Note_on_c, 1, 57, 45
1, 57568, Note_on_c, 0, 69, 0
1, 57598, Note_on_c, 1, 57, 0
1, 57600, Note_on_c, 0, 69, 45
1, 57600, Note_on_c, 0, 73, 45
1, 57600, Note_on_c, 1, 57, 45
1, 57694, Note_on_c, 1, 57, 0
1, 57696, Note_on_c, 1, 61, 45
1, 57790, Note_on_c, 1, 61, 0
1, 57792, Note_on_c, 1, 64, 45
1, 57886, Note_on_c, 1, 64, 0
1, 57888, Note_on_c, 0, 73, 0
1, 57888, Note_on_c, 0, 69, 0
1, 57888, Note_on_c, 0, 73, 45
1, 57888, Note_on_c, 0, 76, 45
1, 57888, Note_on_c, 1, 61, 45
1, 57982, Note_on_c, 0, 76, 0
1, 57982, Note_on_c, 0, 73, 0
1, 57982, Note_on_c, 1, 61, 0
1, 57984, Note_on_c, 0, 71, 45
1, 57984, Note_on_c, 0, 74, 45
1, 57984, Note_on_c, 1, 57, 45
1, 58078, Note_on_c, 1, 57, 0
1, 58080, Note_on_c, 1, 62, 45
1, 58144, Note_on_c, 0, 74, 0
1, 58144, Note_on_c, 0, 71, 0
1, 58174, Note_on_c, 1, 62, 0
1, 58176, Note_on_c, 0, 71, 45
1, 58176, Note_on_c, 0, 74, 45
1, 58176, Note_on_c, 1, 66, 45
1, 58270, Note_on_c, 0, 74, 0
1, 58270, Note_on_c, 0, 71, 0
1, 58270, Note_on_c, 1, 66, 0
1, 58272, Note_on_c, 0, 69, 45
1, 58272, Note_on_c, 0, 73, 45
1, 58272, Note_on_c, 1, 62, 45
1, 58366, Note_on_c, 0, 73, 0
1, 58366, Note_on_c, 0, 69, 0
1, 58366, Note_on_c, 1, 62, 0
1, 58368, Note_on_c, 0, 68, 45
1, 58368, Note_on_c, 0, 71, 45
1, 58368, Note_on_c, 1, 57, 45
1, 58462, Note_on_c, 1, 57, 0
1, 58464, Note_on_c, 1, 59, 45
1, 58528, Note_on_c, 0, 71, 0
1, 58528, Note_on_c, 0, 68, 0
1, 58558, Note_on_c, 1, 59, 0
1, 58560, Note_on_c, 0, 68, 45
1, 58560, Note_on_c, 0, 71, 45
1, 58560, Note_on_c, 1, 62, 45
1, 58654, Note_on_c, 0, 71, 0
1, 58654, Note_on_c, 0, 68, 0
1, 58654, Note_on_c, 1, 62, 0
1, 58656, Note_on_c, 0, 71, 45
1, 58656, Note_on_c, 0, 74, 45
1, 58656, Note_on_c, 1, 59, 45
1, 58750, Note_on_c, 0, 74, 0
1, 58750, Note_on_c, 0, 71, 0
1, 58750, Note_on_c, 1, 59, 0
1, 58752, Note_on_c, 0, 69, 45
1, 58752, Note_on_c, 0, 73, 45
1, 58752, Note_on_c, 1, 57, 45
1, 58846, Note_on_c, 1, 57, 0
1, 58848, Note_on_c, 1, 61, 45
1, 58912, Note_on_c, 0, 73, 0
1, 58912, Note_on_c, 0, 69, 0
1, 58942, Note_on_c, 1, 61, 0
1, 58944, Note_on_c, 0, 69, 45
1, 58944, Note_on_c, 0, 73, 45
1, 58944, Note_on_c, 1, 64, 45
1, 59038, Note_on_c, 1, 64, 0
1, 59040, Note_on_c, 1, 61, 45
1, 59104, Note_on_c, 0, 73, 0
1, 59104, Note_on_c, 0, 69, 0
1, 59134, Note_on_c, 1, 61, 0
1, 59136, Note_on_c, 0, 69, 45
1, 59136, Note_on_c, 0, 71, 45
1, 59136, Note_on_c, 1, 59, 45
1, 59230, Note_on_c, 1, 59, 0
1, 59232, Note_on_c, 1, 63, 45
1, 59326, Note_on_c, 1, 63, 0
1, 59328, Note_on_c, 1, 66, 45
1, 59392, Note_on_c, 0, 71, 0
1, 59392, Note_on_c, 0, 69, 0
1, 59422, Note_on_c, 1, 66, 0
1, 59424, Note_on_c, 0, 69, 45
1, 59424, Note_on_c, 0, 71, 45
1, 59424, Note_on_c, 1, 63, 45
1, 59518, Note_on_c, 0, 71, 0
1, 59518, Note_on_c, 0, 69, 0
1, 59518, Note_on_c, 1, 63, 0
1, 59520, Note_on_c, 0, 68, 45
1, 59520, Note_on_c, 0, 71, 45
1, 59520, Note_on_c, 1, 64, 45
1, 59614, Note_on_c, 0, 71, 0
1, 59614, Note_on_c, 0, 68, 0
1, 59616, Note_on_c, 0, 76, 45
1, 59680, Note_on_c, 1, 64, 0
1, 59710, Note_on_c, 0, 76, 0
1, 59712, Note_on_c, 0, 69, 45
1, 59712, Note_on_c, 0, 73, 45
1, 59712, Note_on_c, 1, 57, 45
1, 59806, Note_on_c, 0, 73, 0
1, 59806, Note_on_c, 0, 69, 0
1, 59808, Note_on_c, 0, 78, 45
1, 59872, Note_on_c, 1, 57, 0
1, 59902, Note_on_c, 0, 78, 0
1, 59904, Note_on_c, 0, 71, 45
1, 59904, Note_on_c, 0, 76, 45
1, 59904, Note_on_c, 1, 59, 45
1, 59904, Note_on_c, 1, 68, 45
1, 60064, Note_on_c, 0, 76, 0
1, 60064, Note_on_c, 0, 71, 0
1, 60064, Note_on_c, 1, 68, 0
1, 60064, Note_on_c, 1, 59, 0
1, 60096, Note_on_c, 0, 75, 45
1, 60096, Note_on_c, 1, 66, 45
1, 60118, Note_on_c, 0, 75, 0
1, 60120, Note_on_c, 0, 76, 45
1, 60142, Note_on_c, 0, 76, 0
1, 60144, Note_on_c, 0, 75, 45
1, 60166, Note_on_c, 0, 75, 0
1, 60168, Note_on_c, 0, 76, 45
1, 60190, Note_on_c, 0, 76, 0
1, 60192, Note_on_c, 0, 75, 45
1, 60214, Note_on_c, 0, 75, 0
1, 60216, Note_on_c, 0, 76, 45
1, 60238, Note_on_c, 0, 76, 0
1, 60240, Note_on_c, 0, 75, 45
1, 60256, Note_on_c, 1, 66, 0
1, 60262, Note_on_c, 0, 75, 0
1, 60264, Note_on_c, 0, 76, 45
1, 60286, Note_on_c, 0, 76, 0
1, 60288, Note_on_c, 0, 76, 45
1, 60288, Note_on_c, 1, 64, 45
1, 60448, Note_on_c, 0, 76, 0
1, 60448, Note_on_c, 1, 64, 0
1, 60480, Note_on_c, 1, 52, 45
1, 60640, Note_on_c, 1, 52, 0
1, 60672, Note_on_c, 0, 76, 45
1, 60768, Note_on_c, 0, 76, 0
1, 60768, Note_on_c, 0, 75, 45
1, 60864, Note_on_c, 0, 75, 0
1, 60864, Note_on_c, 0, 76, 45
1, 60960, Note_on_c, 0, 76, 0
1, 60960, Note_on_c, 0, 78, 45
1, 61056, Note_on_c, 0, 78, 0
1, 61056, Note_on_c, 0, 76, 45
1, 61152, Note_on_c, 0, 76, 0
1, 61152, Note_on_c, 0, 74, 45
1, 61248, Note_on_c, 0, 74, 0
1, 61248, Note_on_c, 0, 73, 45
1, 61344, Note_on_c, 0, 73, 0
1, 61344, Note_on_c, 0, 71, 45
1, 61438, Note_on_c, 0, 71, 0
1, 61440, Note_on_c, 0, 70, 45
1, 61440, Note_on_c, 1, 64, 45
1, 61440, Note_on_c, 1, 67, 45
1, 61536, Note_on_c, 0, 70, 0
1, 61536, Note_on_c, 0, 71, 45
1, 61600, Note_on_c, 1, 67, 0
1, 61600, Note_on_c, 1, 64, 0
1, 61632, Note_on_c, 0, 71, 0
1, 61632, Note_on_c, 0, 73, 45
1, 61632, Note_on_c, 1, 64, 45
1, 61632, Note_on_c, 1, 67, 45
1, 61728, Note_on_c, 0, 73, 0
1, 61728, Note_on_c, 0, 70, 45
1, 61792, Note_on_c, 1, 67, 0
1, 61792, Note_on_c, 1, 64, 0
1, 61824, Note_on_c, 0, 70, 0
1, 61824, Note_on_c, 0, 71, 45
1, 61824, Note_on_c, 1, 62, 45
1, 61824, Note_on_c, 1, 66, 45
1, 61920, Note_on_c, 0, 71, 0
1, 61920, Note_on_c, 0, 70, 45
1, 61984, Note_on_c, 1, 66, 0
1, 61984, Note_on_c, 1, 62, 0
1, 62016, Note_on_c, 0, 70, 0
1, 62016, Note_on_c, 0, 71, 45
1, 62110, Note_on_c, 0, 71, 0
1, 62112, Note_on_c, 0, 73, 45
1, 62206, Note_on_c, 0, 73, 0
1, 62208, Note_on_c, 0, 74, 45
1, 62232, Note_on_c, 0, 74, 0
1, 62232, Note_on_c, 0, 76, 45
1, 62256, Note_on_c, 0, 76, 0
1, 62256, Note_on_c, 0, 74, 45
1, 62280, Note_on_c, 0, 74, 0
1, 62280, Note_on_c, 0, 76, 45
1, 62304, Note_on_c, 0, 76, 0
1, 62304, Note_on_c, 0, 73, 45
1, 62400, Note_on_c, 0, 73, 0
1, 62400, Note_on_c, 0, 74, 45
1, 62496, Note_on_c, 0, 74, 0
1, 62496, Note_on_c, 0, 76, 45
1, 62592, Note_on_c, 0, 76, 0
1, 62592, Note_on_c, 0, 74, 45
1, 62688, Note_on_c, 0, 74, 0
1, 62688, Note_on_c, 0, 72, 45
1, 62784, Note_on_c, 0, 72, 0
1, 62784, Note_on_c, 0, 71, 45
1, 62878, Note_on_c, 0, 71, 0
1, 62880, Note_on_c, 0, 69, 45
1, 62974, Note_on_c, 0, 69, 0
1, 62976, Note_on_c, 0, 68, 45
1, 62976, Note_on_c, 1, 62, 45
1, 62976, Note_on_c, 1, 65, 45
1, 63072, Note_on_c, 0, 68, 0
1, 63072, Note_on_c, 0, 69, 45
1, 63136, Note_on_c, 1, 65, 0
1, 63136, Note_on_c, 1, 62, 0
1, 63168, Note_on_c, 0, 69, 0
1, 63168, Note_on_c, 0, 71, 45
1, 63168, Note_on_c, 1, 62, 45
1, 63168, Note_on_c, 1, 65, 45
1, 63264, Note_on_c, 0, 71, 0
1, 63264, Note_on_c, 0, 68, 45
1, 63328, Note_on_c, 1, 65, 0
1, 63328, Note_on_c, 1, 62, 0
1, 63360, Note_on_c, 0, 68, 0
1, 63360, Note_on_c, 0, 69, 45
1, 63360, Note_on_c, 1, 61, 45
1, 63360, Note_on_c, 1, 64, 45
1, 63456, Note_on_c, 0, 69, 0
1, 63456, Note_on_c, 0, 73, 45
1, 63520, Note_on_c, 1, 64, 0
1, 63520, Note_on_c, 1, 61, 0
1, 63552, Note_on_c, 0, 73, 0
1, 63552, Note_on_c, 0, 76, 45
1, 63646, Note_on_c, 0, 76, 0
1, 63648, Note_on_c, 0, 73, 45
1, 63742, Note_on_c, 0, 73, 0
1, 63744, Note_on_c, 0, 73, 45
1, 63744, Note_on_c, 0, 81, 45
1, 63744, Note_on_c, 1, 57, 45
1, 63838, Note_on_c, 1, 57, 0
1, 63840, Note_on_c, 1, 61, 45
1, 63934, Note_on_c, 1, 61, 0
1, 63936, Note_on_c, 1, 64, 45
1, 64000, Note_on_c, 0, 81, 0
1, 64000, Note_on_c, 0, 73, 0
1, 64030, Note_on_c, 1, 64, 0
1, 64032, Note_on_c, 0, 76, 45
1, 64032, Note_on_c, 0, 80, 45
1, 64032, Note_on_c, 1, 61, 45
1, 64126, Note_on_c, 0, 80, 0
1, 64126, Note_on_c, 0, 76, 0
1, 64126, Note_on_c, 1, 61, 0
1, 64128, Note_on_c, 0, 74, 45
1, 64128, Note_on_c, 0, 78, 45
1, 64128, Note_on_c, 1, 57, 45
1, 64128, Note_on_c, 1, 59, 45
1, 64222, Note_on_c, 1, 59, 0
1, 64222, Note_on_c, 1, 57, 0
1, 64224, Note_on_c, 1, 62, 45
1, 64288, Note_on_c, 0, 78, 0
1, 64288, Note_on_c, 0, 74, 0
1, 64318, Note_on_c, 1, 62, 0
1, 64320, Note_on_c, 0, 74, 45
1, 64320, Note_on_c, 0, 78, 45
1, 64320, Note_on_c, 1, 66, 45
1, 64414, Note_on_c, 0, 78, 0
1, 64414, Note_on_c, 0, 74, 0
1, 64414, Note_on_c, 1, 66, 0
1, 64416, Note_on_c, 0, 73, 45
1, 64416, Note_on_c, 0, 76, 45
1, 64416, Note_on_c, 1, 64, 45
1, 64510, Note_on_c, 0, 76, 0
1, 64510, Note_on_c, 0, 73, 0
1, 64510, Note_on_c, 1, 64, 0
1, 64512, Note_on_c, 0, 71, 45
1, 64512, Note_on_c, 0, 74, 45
1, 64512, Note_on_c, 1, 57, 45
1, 64606, Note_on_c, 1, 57, 0
1, 64608, Note_on_c, 1, 59, 45
1, 64672, Note_on_c, 0, 74, 0
1, 64672, Note_on_c, 0, 71, 0
1, 64702, Note_on_c, 1, 59, 0
1, 64704, Note_on_c, 0, 71, 45
1, 64704, Note_on_c, 0, 74, 45
1, 64704, Note_on_c, 1, 62, 45
1, 64798, Note_on_c, 0, 74, 0
1, 64798, Note_on_c, 0, 71, 0
1, 64798, Note_on_c, 1, 62, 0
1, 64800, Note_on_c, 0, 69, 45
1, 64800, Note_on_c, 0, 73, 45
1, 64800, Note_on_c, 1, 61, 45
1, 64894, Note_on_c, 0, 73, 0
1, 64894, Note_on_c, 0, 69, 0
1, 64894, Note_on_c, 1, 61, 0
1, 64896, Note_on_c, 0, 68, 45
1, 64896, Note_on_c, 0, 71, 45
1, 64896, Note_on_c, 1, 57, 45
1, 64896, Note_on_c, 1, 62, 45
1, 64990, Note_on_c, 1, 62, 0
1, 64990, Note_on_c, 1, 57, 0
1, 64992, Note_on_c, 1, 64, 45
1, 65056, Note_on_c, 0, 71, 0
1, 65056, Note_on_c, 0, 68, 0
1, 65086, Note_on_c, 1, 64, 0
1, 65088, Note_on_c, 0, 69, 45
1, 65088, Note_on_c, 1, 61, 45
1, 65182, Note_on_c, 1, 61, 0
1, 65184, Note_on_c, 1, 57, 45
1, 65248, Note_on_c, 0, 69, 0
1, 65278, Note_on_c, 1, 57, 0
1, 65280, Note_on_c, 0, 68, 45
1, 65280, Note_on_c, 0, 71, 45
1, 65280, Note_on_c, 1, 57, 45
1, 65280, Note_on_c, 1, 62, 45
1, 65374, Note_on_c, 1, 62, 0
1, 65374, Note_on_c, 1, 57, 0
1, 65376, Note_on_c, 1, 64, 45
1, 65470, Note_on_c, 1, 64, 0
1, 65472, Note_on_c, 1, 57, 45
1, 65472, Note_on_c, 1, 62, 45
1, 65536, Note_on_c, 0, 71, 0
1, 65536, Note_on_c, 0, 68, 0
1, 65566, Note_on_c, 1, 62, 0
1, 65566, Note_on_c, 1, 57, 0
1, 65568, Note_on_c, 0, 71, 45
1, 65568, Note_on_c, 1, 64, 45
1, 65662, Note_on_c, 0, 71, 0
1, 65662, Note_on_c, 1, 64, 0
1, 65664, Note_on_c, 0, 69, 45
1, 65664, Note_on_c, 1, 57, 45
1, 65664, Note_on_c, 1, 61, 45
1, 65758, Note_on_c, 1, 61, 0
1, 65758, Note_on_c, 1, 57, 0
1, 65760, Note_on_c, 1, 64, 45
1, 65824, Note_on_c, 0, 69, 0
1, 65854, Note_on_c, 1, 64, 0
1, 65856, Note_on_c, 0, 69, 45
1, 65856, Note_on_c, 1, 61, 45
1, 65950, Note_on_c, 1, 61, 0
1, 65952, Note_on_c, 1, 64, 45
1, 66016, Note_on_c, 0, 69, 0
1, 66046, Note_on_c, 1, 64, 0
1, 66048, Note_on_c, 0, 71, 45
1, 66048, Note_on_c, 1, 57, 45
1, 66048, Note_on_c, 1, 62, 45
1, 66142, Note_on_c, 1, 62, 0
1, 66142, Note_on_c, 1, 57, 0
1, 66144, Note_on_c, 1, 64, 45
1, 66238, Note_on_c, 1, 64, 0
1, 66240, Note_on_c, 1, 57, 45
1, 66240, Note_on_c, 1, 62, 45
1, 66304, Note_on_c, 0, 71, 0
1, 66334, Note_on_c, 1, 62, 0
1, 66334, Note_on_c, 1, 57, 0
1, 66336, Note_on_c, 0, 73, 45
1, 66336, Note_on_c, 1, 64, 45
1, 66430, Note_on_c, 0, 73, 0
1, 66430, Note_on_c, 1, 64, 0
1, 66432, Note_on_c, 0, 69, 45
1, 66432, Note_on_c, 1, 61, 45
1, 66526, Note_on_c, 0, 69, 0
1, 66528, Note_on_c, 0, 64, 45
1, 66592, Note_on_c, 1, 61, 0
1, 66622, Note_on_c, 0, 64, 0
1, 66624, Note_on_c, 0, 69, 45
1, 66718, Note_on_c, 0, 69, 0
1, 66720, Note_on_c, 0, 71, 45
1, 66814, Note_on_c, 0, 71, 0
1, 66816, Note_on_c, 0, 69, 45
1, 66816, Note_on_c, 0, 72, 45
1, 66912, Note_on_c, 1, 57, 45
1, 67008, Note_on_c, 1, 57, 0
1, 67008, Note_on_c, 1, 64, 45
1, 67104, Note_on_c, 0, 72, 0
1, 67104, Note_on_c, 0, 69, 0
1, 67104, Note_on_c, 0, 68, 45
1, 67104, Note_on_c, 0, 71, 45
1, 67104, Note_on_c, 1, 64, 0
1, 67104, Note_on_c, 1, 62, 45
1, 67198, Note_on_c, 0, 71, 0
1, 67198, Note_on_c, 0, 68, 0
1, 67198, Note_on_c, 1, 62, 0
1, 67200, Note_on_c, 0, 64, 45
1, 67200, Note_on_c, 0, 69, 45
1, 67296, Note_on_c, 1, 57, 45
1, 67392, Note_on_c, 1, 57, 0
1, 67392, Note_on_c, 1, 60, 45
1, 67488, Note_on_c, 0, 69, 0
1, 67488, Note_on_c, 0, 64, 0
1, 67488, Note_on_c, 0, 68, 45
1, 67488, Note_on_c, 1, 60, 0
1, 67488, Note_on_c, 1, 59, 45
1, 67582, Note_on_c, 0, 68, 0
1, 67582, Note_on_c, 1, 59, 0
1, 67584, Note_on_c, 0, 64, 45
1, 67584, Note_on_c, 0, 69, 45
1, 67680, Note_on_c, 1, 57, 45
1, 67776, Note_on_c, 1, 57, 0
1, 67776, Note_on_c, 1, 60, 45
1, 67872, Note_on_c, 0, 69, 0
1, 67872, Note_on_c, 0, 64, 0
1, 67872, Note_on_c, 0, 71, 45
1, 67872, Note_on_c, 1, 60, 0
1, 67872, Note_on_c, 1, 56, 45
1, 67966, Note_on_c, 0, 71, 0
1, 67966, Note_on_c, 1, 56, 0
1, 67968, Note_on_c, 0, 69, 45
1, 67968, Note_on_c, 0, 72, 45
1, 68064, Note_on_c, 1, 57, 45
1, 68160, Note_on_c, 0, 72, 0
1, 68160, Note_on_c, 0, 69, 0
1, 68160, Note_on_c, 0, 68, 45
1, 68160, Note_on_c, 0, 71, 45
1, 68160, Note_on_c, 1, 57, 0
1, 68160, Note_on_c, 1, 64, 45
1, 68256, Note_on_c, 1, 64, 0
1, 68256, Note_on_c, 1, 52, 45
1, 68320, Note_on_c, 0, 71, 0
1, 68320, Note_on_c, 0, 68, 0
1, 68350, Note_on_c, 1, 52, 0
1, 68352, Note_on_c, 0, 69, 45
1, 68352, Note_on_c, 0, 74, 45
1, 68448, Note_on_c, 1, 53, 45
1, 68544, Note_on_c, 1, 53, 0
1, 68544, Note_on_c, 1, 65, 45
1, 68640, Note_on_c, 0, 74, 0
1, 68640, Note_on_c, 0, 69, 0
1, 68640, Note_on_c, 0, 72, 45
1, 68640, Note_on_c, 1, 65, 0
1, 68640, Note_on_c, 1, 64, 45
1, 68734, Note_on_c, 0, 72, 0
1, 68734, Note_on_c, 1, 64, 0
1, 68736, Note_on_c, 0, 69, 45
1, 68736, Note_on_c, 0, 77, 45
1, 68832, Note_on_c, 1, 50, 45
1, 68928, Note_on_c, 1, 50, 0
1, 68928, Note_on_c, 1, 62, 45
1, 69024, Note_on_c, 0, 77, 0
1, 69024, Note_on_c, 0, 69, 0
1, 69024, Note_on_c, 0, 76, 45
1, 69024, Note_on_c, 1, 62, 0
1, 69024, Note_on_c, 1, 60, 45
1, 69118, Note_on_c, 0, 76, 0
1, 69118, Note_on_c, 1, 60, 0
1, 69120, Note_on_c, 0, 68, 45
1, 69120, Note_on_c, 0, 74, 45
1, 69216, Note_on_c, 1, 47, 45
1, 69280, Note_on_c, 0, 74, 0
1, 69280, Note_on_c, 0, 68, 0
1, 69312, Note_on_c, 1, 47, 0
1, 69312, Note_on_c, 1, 59, 45
1, 69408, Note_on_c, 0, 69, 45
1, 69408, Note_on_c, 0, 72, 45
1, 69408, Note_on_c, 1, 59, 0
1, 69408, Note_on_c, 1, 57, 45
1, 69502, Note_on_c, 0, 72, 0
1, 69502, Note_on_c, 0, 69, 0
1, 69502, Note_on_c, 1, 57, 0
1, 69504, Note_on_c, 0, 68, 45
1, 69504, Note_on_c, 0, 71, 45
1, 69504, Note_on_c, 1, 52, 45
1, 69504, Note_on_c, 1, 64, 45
1, 69664, Note_on_c, 0, 71, 0
1, 69664, Note_on_c, 0, 68, 0
1, 69664, Note_on_c, 1, 64, 0
1, 69664, Note_on_c, 1, 52, 0
1, 69696, Note_on_c, 0, 68, 45
1, 69696, Note_on_c, 1, 52, 45
1, 69790, Note_on_c, 0, 68, 0
1, 69792, Note_on_c, 0, 64, 45
1, 69856, Note_on_c, 1, 52, 0
1, 69886, Note_on_c, 0, 64, 0
1, 69888, Note_on_c, 0, 69, 45
1, 69888, Note_on_c, 0, 72, 45
1, 69984, Note_on_c, 1, 57, 45
1, 70080, Note_on_c, 1, 57, 0
1, 70080, Note_on_c, 1, 64, 45
1, 70176, Note_on_c, 0, 72, 0
1, 70176, Note_on_c, 0, 69, 0
1, 70176, Note_on_c, 0, 68, 45
1, 70176, Note_on_c, 0, 71, 45
1, 70176, Note_on_c, 1, 64, 0
1, 70176, Note_on_c, 1, 62, 45
1, 70270, Note_on_c, 0, 71, 0
1, 70270, Note_on_c, 0, 68, 0
1, 70270, Note_on_c, 1, 62, 0
1, 70272, Note_on_c, 0, 64, 45
1, 70272, Note_on_c, 0, 69, 45
1, 70368, Note_on_c, 1, 57, 45
1, 70464, Note_on_c, 1, 57, 0
1, 70464, Note_on_c, 1, 60, 45
1, 70560, Note_on_c, 0, 69, 0
1, 70560, Note_on_c, 0, 64, 0
1, 70560, Note_on_c, 0, 68, 45
1, 70560, Note_on_c, 1, 60, 0
1, 70560, Note_on_c, 1, 59, 45
1, 70654, Note_on_c, 0, 68, 0
1, 70654, Note_on_c, 1, 59, 0
1, 70656, Note_on_c, 0, 64, 45
1, 70656, Note_on_c, 0, 69, 45
1, 70752, Note_on_c, 1, 57, 45
1, 70848, Note_on_c, 1, 57, 0
1, 70848, Note_on_c, 1, 60, 45
1, 70944, Note_on_c, 0, 69, 0
1, 70944, Note_on_c, 0, 64, 0
1, 70944, Note_on_c, 0, 71, 45
1, 70944, Note_on_c, 1, 60, 0
1, 70944, Note_on_c, 1, 56, 45
1, 71038, Note_on_c, 0, 71, 0
1, 71038, Note_on_c, 1, 56, 0
1, 71040, Note_on_c, 0, 69, 45
1, 71040, Note_on_c, 0, 72, 45
1, 71136, Note_on_c, 1, 57, 45
1, 71200, Note_on_c, 0, 72, 0
1, 71200, Note_on_c, 0, 69, 0
1, 71232, Note_on_c, 0, 68, 45
1, 71232, Note_on_c, 0, 71, 45
1, 71232, Note_on_c, 1, 57, 0
1, 71232, Note_on_c, 1, 64, 45
1, 71328, Note_on_c, 1, 64, 0
1, 71328, Note_on_c, 1, 52, 45
1, 71392, Note_on_c, 0, 71, 0
1, 71392, Note_on_c, 0, 68, 0
1, 71422, Note_on_c, 1, 52, 0
1, 71424, Note_on_c, 0, 69, 45
1, 71424, Note_on_c, 0, 77, 45
1, 71520, Note_on_c, 1, 50, 46
1, 71616, Note_on_c, 1, 50, 0
1, 71616, Note_on_c, 1, 62, 47
1, 71712, Note_on_c, 0, 77, 0
1, 71712, Note_on_c, 0, 69, 0
1, 71712, Note_on_c, 0, 74, 47
1, 71712, Note_on_c, 1, 62, 0
1, 71712, Note_on_c, 1, 60, 48
1, 71806, Note_on_c, 0, 74, 0
1, 71806, Note_on_c, 1, 60, 0
1, 71808, Note_on_c, 0, 69, 48
1, 71808, Note_on_c, 0, 74, 48
1, 71904, Note_on_c, 1, 53, 50
1, 72000, Note_on_c, 1, 53, 0
1, 72000, Note_on_c, 1, 65, 51
1, 72096, Note_on_c, 0, 74, 0
1, 72096, Note_on_c, 0, 69, 0
1, 72096, Note_on_c, 0, 72, 50
1, 72096, Note_on_c, 1, 65, 0
1, 72096, Note_on_c, 1, 64, 52
1, 72190, Note_on_c, 0, 72, 0
1, 72190, Note_on_c, 1, 64, 0
1, 72192, Note_on_c, 0, 71, 51
1, 72192, Note_on_c, 1, 62, 53
1, 72352, Note_on_c, 0, 71, 0
1, 72352, Note_on_c, 1, 62, 0
1, 72384, Note_on_c, 0, 69, 52
1, 72384, Note_on_c, 1, 64, 54
1, 72478, Note_on_c, 0, 69, 0
1, 72480, Note_on_c, 0, 68, 53
1, 72544, Note_on_c, 1, 64, 0
1, 72574, Note_on_c, 0, 68, 0
1, 72576, Note_on_c, 0, 69, 54
1, 72576, Note_on_c, 1, 65, 55
1, 72670, Note_on_c, 0, 69, 0
1, 72672, Note_on_c, 0, 73, 55
1, 72736, Note_on_c, 1, 65, 0
1, 72766, Note_on_c, 0, 73, 0
1, 72768, Note_on_c, 0, 74, 56
1, 72862, Note_on_c, 0, 74, 0
1, 72864, Note_on_c, 0, 76, 57
1, 72958, Note_on_c, 0, 76, 0
1, 72960, Note_on_c, 0, 77, 92
1, 73056, Note_on_c, 1, 50, 92
1, 73150, Note_on_c, 1, 50, 0
1, 73152, Note_on_c, 1, 62, 92
1, 73216, Note_on_c, 0, 77, 0
1, 73246, Note_on_c, 1, 62, 0
1, 73248, Note_on_c, 0, 76, 92
1, 73248, Note_on_c, 1, 60, 92
1, 73342, Note_on_c, 0, 76, 0
1, 73342, Note_on_c, 1, 60, 0
1, 73344, Note_on_c, 0, 74, 92
1, 73344, Note_on_c, 0, 80, 92
1, 73440, Note_on_c, 1, 47, 92
1, 73534, Note_on_c, 1, 47, 0
1, 73536, Note_on_c, 1, 59, 92
1, 73600, Note_on_c, 0, 80, 0
1, 73600, Note_on_c, 0, 74, 0
1, 73630, Note_on_c, 1, 59, 0
1, 73632, Note_on_c, 0, 72, 92
1, 73632, Note_on_c, 0, 81, 92
1, 73632, Note_on_c, 1, 57, 92
1, 73726, Note_on_c, 0, 81, 0
1, 73726, Note_on_c, 0, 72, 0
1, 73726, Note_on_c, 1, 57, 0
1, 73728, Note_on_c, 0, 71, 92
1, 73728, Note_on_c, 0, 74, 92
1, 73728, Note_on_c, 1, 62, 92
1, 73888, Note_on_c, 0, 74, 0
1, 73888, Note_on_c, 0, 71, 0
1, 73888, Note_on_c, 1, 62, 0
1, 73920, Note_on_c, 0, 69, 92
1, 73920, Note_on_c, 0, 72, 92
1, 73920, Note_on_c, 1, 64, 92
1, 74014, Note_on_c, 0, 72, 0
1, 74014, Note_on_c, 0, 69, 0
1, 74016, Note_on_c, 0, 68, 92
1, 74016, Note_on_c, 0, 71, 92
1, 74080, Note_on_c, 1, 64, 0
1, 74110, Note_on_c, 0, 71, 0
1, 74110, Note_on_c, 0, 68, 0
1, 74112, Note_on_c, 0, 69, 92
1, 74112, Note_on_c, 1, 57, 92
1, 74206, Note_on_c, 0, 69, 0
1, 74208, Note_on_c, 0, 72, 92
1, 74272, Note_on_c, 1, 57, 0
1, 74302, Note_on_c, 0, 72, 0
1, 74304, Note_on_c, 0, 74, 92
1, 74398, Note_on_c, 0, 74, 0
1, 74400, Note_on_c, 0, 76, 92
1, 74494, Note_on_c, 0, 76, 0
1, 74496, Note_on_c, 0, 82, 92
1, 74592, Note_on_c, 1, 61, 92
1, 74686, Note_on_c, 1, 61, 0
1, 74688, Note_on_c, 1, 67, 92
1, 74782, Note_on_c, 1, 67, 0
1, 74784, Note_on_c, 0, 82, 0
1, 74784, Note_on_c, 0, 79, 92
1, 74784, Note_on_c, 1, 70, 92
1, 74878, Note_on_c, 0, 79, 0
1, 74878, Note_on_c, 1, 70, 0
1, 74880, Note_on_c, 0, 79, 92
1, 74974, Note_on_c, 0, 79, 0
1, 74976, Note_on_c, 0, 77, 92
1, 74976, Note_on_c, 1, 62, 92
1, 75070, Note_on_c, 0, 77, 0
1, 75070, Note_on_c, 1, 62, 0
1, 75072, Note_on_c, 0, 76, 92
1, 75072, Note_on_c, 1, 65, 92
1, 75166, Note_on_c, 0, 76, 0
1, 75166, Note_on_c, 1, 65, 0
1, 75168, Note_on_c, 0, 74, 92
1, 75168, Note_on_c, 1, 69, 92
1, 75262, Note_on_c, 0, 74, 0
1, 75262, Note_on_c, 1, 69, 0
1, 75264, Note_on_c, 0, 84, 92
1, 75360, Note_on_c, 1, 63, 92
1, 75454, Note_on_c, 1, 63, 0
1, 75456, Note_on_c, 1, 69, 92
1, 75520, Note_on_c, 0, 84, 0
1, 75550, Note_on_c, 1, 69, 0
1, 75552, Note_on_c, 0, 81, 92
1, 75552, Note_on_c, 1, 72, 92
1, 75646, Note_on_c, 0, 81, 0
1, 75646, Note_on_c, 1, 72, 0
1, 75648, Note_on_c, 0, 81, 92
1, 75744, Note_on_c, 0, 81, 0
1, 75744, Note_on_c, 0, 80, 92
1, 75744, Note_on_c, 1, 64, 92
1, 75838, Note_on_c, 0, 80, 0
1, 75838, Note_on_c, 1, 64, 0
1, 75840, Note_on_c, 0, 78, 92
1, 75840, Note_on_c, 1, 68, 92
1, 75934, Note_on_c, 0, 78, 0
1, 75934, Note_on_c, 1, 68, 0
1, 75936, Note_on_c, 0, 76, 92
1, 75936, Note_on_c, 1, 71, 92
1, 76030, Note_on_c, 0, 76, 0
1, 76030, Note_on_c, 1, 71, 0
1, 76032, Note_on_c, 0, 81, 92
1, 76032, Note_on_c, 0, 86, 92
1, 76128, Note_on_c, 1, 53, 92
1, 76222, Note_on_c, 1, 53, 0
1, 76224, Note_on_c, 1, 65, 92
1, 76288, Note_on_c, 0, 86, 0
1, 76288, Note_on_c, 0, 81, 0
1, 76318, Note_on_c, 1, 65, 0
1, 76320, Note_on_c, 0, 80, 92
1, 76320, Note_on_c, 1, 64, 92
1, 76414, Note_on_c, 0, 80, 0
1, 76414, Note_on_c, 1, 64, 0
1, 76416, Note_on_c, 0, 81, 92
1, 76416, Note_on_c, 0, 86, 92
1, 76512, Note_on_c, 1, 53, 92
1, 76606, Note_on_c, 1, 53, 0
1, 76608, Note_on_c, 1, 65, 92
1, 76672, Note_on_c, 0, 86, 0
1, 76672, Note_on_c, 0, 81, 0
1, 76702, Note_on_c, 1, 65, 0
1, 76704, Note_on_c, 0, 80, 92
1, 76704, Note_on_c, 1, 64, 92
1, 76798, Note_on_c, 0, 80, 0
1, 76798, Note_on_c, 1, 64, 0
1, 76800, Note_on_c, 0, 81, 92
1, 76800, Note_on_c, 0, 86, 92
1, 76896, Note_on_c, 1, 53, 92
1, 76990, Note_on_c, 1, 53, 0
1, 76992, Note_on_c, 1, 65, 92
1, 77056, Note_on_c, 0, 86, 0
1, 77056, Note_on_c, 0, 81, 0
1, 77086, Note_on_c, 1, 65, 0
1, 77088, Note_on_c, 0, 80, 92
1, 77088, Note_on_c, 1, 64, 92
1, 77182, Note_on_c, 0, 80, 0
1, 77182, Note_on_c, 1, 64, 0
1, 77184, Note_on_c, 0, 81, 92
1, 77184, Note_on_c, 0, 86, 92
1, 77280, Note_on_c, 1, 53, 92
1, 77374, Note_on_c, 1, 53, 0
1, 77376, Note_on_c, 1, 65, 92
1, 77440, Note_on_c, 0, 86, 0
1, 77440, Note_on_c, 0, 81, 0
1, 77470, Note_on_c, 1, 65, 0
1, 77472, Note_on_c, 0, 80, 92
1, 77472, Note_on_c, 1, 64, 92
1, 77566, Note_on_c, 0, 80, 0
1, 77566, Note_on_c, 1, 64, 0
1, 77568, Note_on_c, 1, 36, 60
1, 77568, Note_on_c, 1, 48, 60
1, 77664, Note_on_c, 0, 64, 60
1, 77760, Note_on_c, 0, 64, 0
1, 77760, Note_on_c, 0, 76, 60
1, 77856, Note_on_c, 0, 76, 0
1, 77856, Note_on_c, 0, 74, 60
1, 77856, Note_on_c, 1, 48, 0
1, 77856, Note_on_c, 1, 36, 0
1, 77856, Note_on_c, 1, 35, 60
1, 77856, Note_on_c, 1, 47, 60
1, 77950, Note_on_c, 0, 74, 0
1, 77950, Note_on_c, 1, 47, 0
1, 77950, Note_on_c, 1, 35, 0
1, 77952, Note_on_c, 1, 33, 60
1, 77952, Note_on_c, 1, 45, 60
1, 78048, Note_on_c, 0, 64, 60
1, 78144, Note_on_c, 0, 64, 0
1, 78144, Note_on_c, 0, 72, 60
1, 78240, Note_on_c, 0, 72, 0
1, 78240, Note_on_c, 0, 71, 60
1, 78240, Note_on_c, 1, 45, 0
1, 78240, Note_on_c, 1, 33, 0
1, 78240, Note_on_c, 1, 35, 60
1, 78240, Note_on_c, 1, 47, 60
1, 78334, Note_on_c, 0, 71, 0
1, 78334, Note_on_c, 1, 47, 0
1, 78334, Note_on_c, 1, 35, 0
1, 78336, Note_on_c, 1, 36, 60
1, 78336, Note_on_c, 1, 48, 60
1, 78432, Note_on_c, 0, 64, 60
1, 78528, Note_on_c, 0, 64, 0
1, 78528, Note_on_c, 0, 69, 60
1, 78624, Note_on_c, 0, 69, 0
1, 78624, Note_on_c, 0, 71, 60
1, 78624, Note_on_c, 1, 48, 0
1, 78624, Note_on_c, 1, 36, 0
1, 78624, Note_on_c, 1, 38, 60
1, 78624, Note_on_c, 1, 50, 60
1, 78718, Note_on_c, 0, 71, 0
1, 78718, Note_on_c, 1, 50, 0
1, 78718, Note_on_c, 1, 38, 0
1, 78720, Note_on_c, 1, 36, 60
1, 78720, Note_on_c, 1, 48, 60
1, 78816, Note_on_c, 0, 64, 60
1, 78912, Note_on_c, 0, 64, 0
1, 78912, Note_on_c, 0, 69, 60
1, 78912, Note_on_c, 1, 48, 0
1, 78912, Note_on_c, 1, 36, 0
1, 78912, Note_on_c, 1, 35, 60
1, 78912, Note_on_c, 1, 47, 60
1, 79008, Note_on_c, 0, 69, 0
1, 79008, Note_on_c, 0, 68, 60
1, 79072, Note_on_c, 1, 47, 0
1, 79072, Note_on_c, 1, 35, 0
1, 79102, Note_on_c, 0, 68, 0
1, 79104, Note_on_c, 0, 62, 60
1, 79104, Note_on_c, 0, 74, 60
1, 79200, Note_on_c, 1, 52, 60
1, 79264, Note_on_c, 0, 74, 0
1, 79264, Note_on_c, 0, 62, 0
1, 79294, Note_on_c, 1, 52, 0
1, 79296, Note_on_c, 1, 59, 60
1, 79390, Note_on_c, 1, 59, 0
1, 79392, Note_on_c, 0, 60, 60
1, 79392, Note_on_c, 0, 72, 60
1, 79392, Note_on_c, 1, 57, 60
1, 79486, Note_on_c, 0, 72, 0
1, 79486, Note_on_c, 0, 60, 0
1, 79486, Note_on_c, 1, 57, 0
1, 79488, Note_on_c, 0, 59, 60
1, 79488, Note_on_c, 0, 71, 60
1, 79584, Note_on_c, 1, 52, 60
1, 79680, Note_on_c, 1, 52, 0
1, 79680, Note_on_c, 1, 56, 60
1, 79776, Note_on_c, 0, 71, 0
1, 79776, Note_on_c, 0, 59, 0
1, 79776, Note_on_c, 0, 60, 60
1, 79776, Note_on_c, 0, 72, 60
1, 79776, Note_on_c, 1, 56, 0
1, 79776, Note_on_c, 1, 57, 60
1, 79870, Note_on_c, 0, 72, 0
1, 79870, Note_on_c, 0, 60, 0
1, 79870, Note_on_c, 1, 57, 0
1, 79872, Note_on_c, 0, 62, 60
1, 79872, Note_on_c, 0, 74, 60
1, 79968, Note_on_c, 1, 52, 61
1, 80064, Note_on_c, 1, 52, 0
1, 80064, Note_on_c, 1, 59, 62
1, 80160, Note_on_c, 0, 74, 0
1, 80160, Note_on_c, 0, 62, 0
1, 80160, Note_on_c, 0, 64, 61
1, 80160, Note_on_c, 0, 76, 61
1, 80160, Note_on_c, 1, 59, 0
1, 80160, Note_on_c, 1, 60, 63
1, 80254, Note_on_c, 0, 76, 0
1, 80254, Note_on_c, 0, 64, 0
1, 80254, Note_on_c, 1, 60, 0
1, 80256, Note_on_c, 0, 62, 62
1, 80256, Note_on_c, 0, 74, 62
1, 80352, Note_on_c, 1, 52, 65
1, 80448, Note_on_c, 0, 74, 0
1, 80448, Note_on_c, 0, 62, 0
1, 80448, Note_on_c, 0, 60, 63
1, 80448, Note_on_c, 0, 72, 63
1, 80448, Note_on_c, 1, 52, 0
1, 80448, Note_on_c, 1, 59, 66
1, 80544, Note_on_c, 1, 59, 0
1, 80544, Note_on_c, 1, 57, 67
1, 80608, Note_on_c, 0, 72, 0
1, 80608, Note_on_c, 0, 60, 0
1, 80638, Note_on_c, 1, 57, 0
1, 80640, Note_on_c, 0, 76, 92
1, 80640, Note_on_c, 0, 81, 92
1, 80640, Note_on_c, 1, 48, 92
1, 80734, Note_on_c, 1, 48, 0
1, 80736, Note_on_c, 1, 60, 92
1, 80830, Note_on_c, 1, 60, 0
1, 80832, Note_on_c, 1, 64, 92
1, 80896, Note_on_c, 0, 81, 0
1, 80896, Note_on_c, 0, 76, 0
1, 80926, Note_on_c, 1, 64, 0
1, 80928, Note_on_c, 0, 74, 92
1, 80928, Note_on_c, 0, 79, 92
1, 80928, Note_on_c, 1, 59, 92
1, 81022, Note_on_c, 0, 79, 0
1, 81022, Note_on_c, 0, 74, 0
1, 81022, Note_on_c, 1, 59, 0
1, 81024, Note_on_c, 0, 72, 92
1, 81024, Note_on_c, 0, 77, 92
1, 81024, Note_on_c, 1, 45, 92
1, 81118, Note_on_c, 1, 45, 0
1, 81120, Note_on_c, 1, 57, 92
1, 81214, Note_on_c, 1, 57, 0
1, 81216, Note_on_c, 1, 60, 92
1, 81280, Note_on_c, 0, 77, 0
1, 81280, Note_on_c, 0, 72, 0
1, 81310, Note_on_c, 1, 60, 0
1, 81312, Note_on_c, 0, 71, 92
1, 81312, Note_on_c, 0, 76, 92
1, 81312, Note_on_c, 1, 55, 92
1, 81406, Note_on_c, 0, 76, 0
1, 81406, Note_on_c, 0, 71, 0
1, 81406, Note_on_c, 1, 55, 0
1, 81408, Note_on_c, 0, 69, 92
1, 81408, Note_on_c, 0, 74, 92
1, 81408, Note_on_c, 1, 41, 92
1, 81502, Note_on_c, 1, 41, 0
1, 81504, Note_on_c, 1, 53, 92
1, 81598, Note_on_c, 1, 53, 0
1, 81600, Note_on_c, 1, 57, 92
1, 81664, Note_on_c, 0, 74, 0
1, 81664, Note_on_c, 0, 69, 0
1, 81694, Note_on_c, 1, 57, 0
1, 81696, Note_on_c, 0, 72, 92
1, 81696, Note_on_c, 1, 52, 92
1, 81790, Note_on_c, 0, 72, 0
1, 81790, Note_on_c, 1, 52, 0
1, 81792, Note_on_c, 0, 71, 92
1, 81792, Note_on_c, 1, 38, 92
1, 81886, Note_on_c, 1, 38, 0
1, 81888, Note_on_c, 1, 50, 92
1, 81982, Note_on_c, 1, 50, 0
1, 81984, Note_on_c, 1, 53, 92
1, 82048, Note_on_c, 0, 71, 0
1, 82078, Note_on_c, 1, 53, 0
1, 82080, Note_on_c, 0, 69, 92
1, 82080, Note_on_c, 1, 45, 92
1, 82174, Note_on_c, 0, 69, 0
1, 82174, Note_on_c, 1, 45, 0
1, 82176, Note_on_c, 0, 68, 92
1, 82176, Note_on_c, 1, 47, 92
1, 82270, Note_on_c, 0, 68, 0
1, 82272, Note_on_c, 0, 71, 92
1, 82336, Note_on_c, 1, 47, 0
1, 82366, Note_on_c, 0, 71, 0
1, 82368, Note_on_c, 0, 64, 92
1, 82368, Note_on_c, 1, 44, 92
1, 82462, Note_on_c, 0, 64, 0
1, 82464, Note_on_c, 0, 74, 92
1, 82528, Note_on_c, 1, 44, 0
1, 82558, Note_on_c, 0, 74, 0
1, 82560, Note_on_c, 0, 72, 92
1, 82560, Note_on_c, 1, 45, 92
1, 82654, Note_on_c, 0, 72, 0
1, 82656, Note_on_c, 0, 69, 92
1, 82720, Note_on_c, 1, 45, 0
1, 82750, Note_on_c, 0, 69, 0
1, 82752, Note_on_c, 0, 77, 92
1, 82752, Note_on_c, 1, 50, 92
1, 82846, Note_on_c, 0, 77, 0
1, 82848, Note_on_c, 0, 74, 92
1, 82912, Note_on_c, 1, 50, 0
1, 82942, Note_on_c, 0, 74, 0
1, 82944, Note_on_c, 0, 64, 92
1, 82944, Note_on_c, 0, 69, 92
1, 82944, Note_on_c, 0, 72, 92
1, 82944, Note_on_c, 1, 52, 92
1, 83104, Note_on_c, 0, 72, 0
1, 83104, Note_on_c, 0, 69, 0
1, 83104, Note_on_c, 0, 64, 0
1, 83104, Note_on_c, 1, 52, 0
1, 83136, Note_on_c, 0, 64, 92
1, 83136, Note_on_c, 0, 68, 92
1, 83136, Note_on_c, 0, 71, 92
1, 83136, Note_on_c, 1, 40, 92
1, 83296, Note_on_c, 0, 71, 0
1, 83296, Note_on_c, 0, 68, 0
1, 83296, Note_on_c, 0, 64, 0
1, 83296, Note_on_c, 1, 40, 0
1, 83328, Note_on_c, 0, 69, 92
1, 83328, Note_on_c, 1, 33, 92
1, 83422, Note_on_c, 1, 33, 0
1, 83424, Note_on_c, 1, 36, 92
1, 83488, Note_on_c, 0, 69, 0
1, 83518, Note_on_c, 1, 36, 0
1, 83520, Note_on_c, 1, 40, 92
1, 83614, Note_on_c, 1, 40, 0
1, 83616, Note_on_c, 1, 45, 92
1, 83710, Note_on_c, 1, 45, 0
1, 83712, Note_on_c, 0, 64, 92
1, 83712, Note_on_c, 1, 48, 92
1, 83712, Note_on_c, 1, 52, 92
1, 83806, Note_on_c, 0, 64, 0
1, 83808, Note_on_c, 0, 76, 92
1, 83902, Note_on_c, 0, 76, 0
1, 83904, Note_on_c, 0, 81, 92
1, 83968, Note_on_c, 1, 52, 0
1, 83968, Note_on_c, 1, 48, 0
1, 83998, Note_on_c, 0, 81, 0
1, 84000, Note_on_c, 0, 79, 92
1, 84000, Note_on_c, 1, 47, 92
1, 84000, Note_on_c, 1, 50, 92
1, 84094, Note_on_c, 0, 79, 0
1, 84094, Note_on_c, 1, 50, 0
1, 84094, Note_on_c, 1, 47, 0
1, 84096, Note_on_c, 0, 60, 92
1, 84096, Note_on_c, 1, 45, 92
1, 84096, Note_on_c, 1, 48, 92
1, 84190, Note_on_c, 0, 60, 0
1, 84192, Note_on_c, 0, 72, 92
1, 84286, Note_on_c, 0, 72, 0
1, 84288, Note_on_c, 0, 77, 92
1, 84352, Note_on_c, 1, 48, 0
1, 84352, Note_on_c, 1, 45, 0
1, 84382, Note_on_c, 0, 77, 0
1, 84384, Note_on_c, 0, 76, 92
1, 84384, Note_on_c, 1, 43, 92
1, 84384, Note_on_c, 1, 47, 92
1, 84478, Note_on_c, 0, 76, 0
1, 84478, Note_on_c, 1, 47, 0
1, 84478, Note_on_c, 1, 43, 0
1, 84480, Note_on_c, 0, 57, 92
1, 84480, Note_on_c, 1, 41, 92
1, 84480, Note_on_c, 1, 45, 92
1, 84574, Note_on_c, 0, 57, 0
1, 84576, Note_on_c, 0, 69, 92
1, 84670, Note_on_c, 0, 69, 0
1, 84672, Note_on_c, 0, 74, 92
1, 84736, Note_on_c, 1, 45, 0
1, 84736, Note_on_c, 1, 41, 0
1, 84766, Note_on_c, 0, 74, 0
1, 84768, Note_on_c, 0, 72, 92
1, 84768, Note_on_c, 1, 40, 92
1, 84768, Note_on_c, 1, 43, 92
1, 84862, Note_on_c, 0, 72, 0
1, 84862, Note_on_c, 1, 43, 0
1, 84862, Note_on_c, 1, 40, 0
1, 84864, Note_on_c, 0, 53, 92
1, 84864, Note_on_c, 1, 38, 92
1, 84864, Note_on_c, 1, 41, 92
1, 84958, Note_on_c, 0, 53, 0
1, 84960, Note_on_c, 0, 65, 92
1, 85054, Note_on_c, 0, 65, 0
1, 85056, Note_on_c, 0, 71, 92
1, 85120, Note_on_c, 1, 41, 0
1, 85120, Note_on_c, 1, 38, 0
1, 85150, Note_on_c, 0, 71, 0
1, 85152, Note_on_c, 0, 69, 92
1, 85152, Note_on_c, 1, 36, 92
1, 85152, Note_on_c, 1, 40, 92
1, 85246, Note_on_c, 0, 69, 0
1, 85246, Note_on_c, 1, 40, 0
1, 85246, Note_on_c, 1, 36, 0
1, 85248, Note_on_c, 0, 68, 92
1, 85248, Note_on_c, 1, 35, 92
1, 85248, Note_on_c, 1, 38, 92
1, 85342, Note_on_c, 0, 68, 0
1, 85344, Note_on_c, 0, 71, 92
1, 85408, Note_on_c, 1, 38, 0
1, 85408, Note_on_c, 1, 35, 0
1, 85438, Note_on_c, 0, 71, 0
1, 85440, Note_on_c, 0, 64, 92
1, 85440, Note_on_c, 1, 44, 92
1, 85440, Note_on_c, 1, 52, 92
1, 85534, Note_on_c, 0, 64, 0
1, 85536, Note_on_c, 0, 74, 92
1, 85600, Note_on_c, 1, 52, 0
1, 85600, Note_on_c, 1, 44, 0
1, 85630, Note_on_c, 0, 74, 0
1, 85632, Note_on_c, 0, 72, 92
1, 85632, Note_on_c, 1, 45, 92
1, 85726, Note_on_c, 0, 72, 0
1, 85728, Note_on_c, 0, 69, 92
1, 85792, Note_on_c, 1, 45, 0
1, 85822, Note_on_c, 0, 69, 0
1, 85824, Note_on_c, 0, 77, 92
1, 85824, Note_on_c, 1, 50, 92
1, 85918, Note_on_c, 0, 77, 0
1, 85920, Note_on_c, 0, 74, 92
1, 85984, Note_on_c, 1, 50, 0
1, 86014, Note_on_c, 0, 74, 0
1, 86016, Note_on_c, 0, 64, 92
1, 86016, Note_on_c, 0, 69, 92
1, 86016, Note_on_c, 0, 72, 92
1, 86016, Note_on_c, 1, 52, 92
1, 86110, Note_on_c, 1, 52, 0
1, 86112, Note_on_c, 1, 51, 92
1, 86176, Note_on_c, 0, 72, 0
1, 86176, Note_on_c, 0, 69, 0
1, 86176, Note_on_c, 0, 64, 0
1, 86206, Note_on_c, 1, 51, 0
1, 86208, Note_on_c, 0, 64, 92
1, 86208, Note_on_c, 0, 68, 92
1, 86208, Note_on_c, 0, 71, 92
1, 86208, Note_on_c, 1, 52, 92
1, 86302, Note_on_c, 1, 52, 0
1, 86304, Note_on_c, 1, 40, 92
1, 86368, Note_on_c, 0, 71, 0
1, 86368, Note_on_c, 0, 68, 0
1, 86368, Note_on_c, 0, 64, 0
1, 86398, Note_on_c, 1, 40, 0
1, 86400, Note_on_c, 0, 73, 92
1, 86494, Note_on_c, 0, 73, 0
1, 86496, Note_on_c, 0, 67, 92
1, 86496, Note_on_c, 1, 58, 92
1, 86590, Note_on_c, 0, 67, 0
1, 86590, Note_on_c, 1, 58, 0
1, 86592, Note_on_c, 0, 69, 92
1, 86592, Note_on_c, 1, 57, 92
1, 86686, Note_on_c, 0, 69, 0
1, 86686, Note_on_c, 1, 57, 0
1, 86688, Note_on_c, 0, 70, 92
1, 86688, Note_on_c, 1, 55, 92
1, 86782, Note_on_c, 0, 70, 0
1, 86782, Note_on_c, 1, 55, 0
1, 86784, Note_on_c, 0, 69, 92
1, 86784, Note_on_c, 0, 74, 92
1, 86784, Note_on_c, 1, 53, 92
1, 86880, Note_on_c, 0, 74, 0
1, 86880, Note_on_c, 0, 69, 0
1, 86880, Note_on_c, 0, 76, 92
1, 86880, Note_on_c, 1, 53, 0
1, 86880, Note_on_c, 1, 52, 92
1, 86976, Note_on_c, 0, 76, 0
1, 86976, Note_on_c, 0, 77, 92
1, 86976, Note_on_c, 1, 52, 0
1, 86976, Note_on_c, 1, 50, 92
1, 87072, Note_on_c, 0, 77, 0
1, 87072, Note_on_c, 0, 74, 92
1, 87072, Note_on_c, 1, 50, 0
1, 87072, Note_on_c, 1, 53, 92
1, 87166, Note_on_c, 0, 74, 0
1, 87166, Note_on_c, 1, 53, 0
1, 87168, Note_on_c, 0, 75, 92
1, 87262, Note_on_c, 0, 75, 0
1, 87264, Note_on_c, 0, 69, 92
1, 87264, Note_on_c, 1, 60, 92
1, 87358, Note_on_c, 0, 69, 0
1, 87358, Note_on_c, 1, 60, 0
1, 87360, Note_on_c, 0, 71, 92
1, 87360, Note_on_c, 1, 59, 92
1, 87454, Note_on_c, 0, 71, 0
1, 87454, Note_on_c, 1, 59, 0
1, 87456, Note_on_c, 0, 72, 92
1, 87456, Note_on_c, 1, 57, 92
1, 87550, Note_on_c, 0, 72, 0
1, 87550, Note_on_c, 1, 57, 0
1, 87552, Note_on_c, 0, 71, 92
1, 87552, Note_on_c, 0, 76, 92
1, 87552, Note_on_c, 1, 56, 92
1, 87648, Note_on_c, 0, 76, 0
1, 87648, Note_on_c, 0, 71, 0
1, 87648, Note_on_c, 0, 78, 92
1, 87648, Note_on_c, 1, 56, 0
1, 87648, Note_on_c, 1, 54, 92
1, 87744, Note_on_c, 0, 78, 0
1, 87744, Note_on_c, 0, 80, 92
1, 87744, Note_on_c, 1, 54, 0
1, 87744, Note_on_c, 1, 52, 92
1, 87838, Note_on_c, 0, 80, 0
1, 87840, Note_on_c, 0, 76, 92
1, 87840, Note_on_c, 1, 52, 0
1, 87840, Note_on_c, 1, 56, 92
1, 87934, Note_on_c, 0, 76, 0
1, 87934, Note_on_c, 1, 56, 0
1, 87936, Note_on_c, 0, 80, 92
1, 88030, Note_on_c, 0, 80, 0
1, 88032, Note_on_c, 0, 74, 92
1, 88032, Note_on_c, 1, 65, 92
1, 88126, Note_on_c, 0, 74, 0
1, 88126, Note_on_c, 1, 65, 0
1, 88128, Note_on_c, 0, 76, 92
1, 88128, Note_on_c, 1, 64, 92
1, 88222, Note_on_c, 0, 76, 0
1, 88222, Note_on_c, 1, 64, 0
1, 88224, Note_on_c, 0, 77, 92
1, 88224, Note_on_c, 1, 62, 92
1, 88318, Note_on_c, 0, 77, 0
1, 88318, Note_on_c, 1, 62, 0
1, 88320, Note_on_c, 0, 76, 92
1, 88320, Note_on_c, 0, 81, 92
1, 88320, Note_on_c, 1, 60, 92
1, 88414, Note_on_c, 0, 81, 0
1, 88414, Note_on_c, 0, 76, 0
1, 88416, Note_on_c, 0, 76, 92
1, 88480, Note_on_c, 1, 60, 0
1, 88510, Note_on_c, 0, 76, 0
1, 88512, Note_on_c, 0, 77, 92
1, 88512, Note_on_c, 1, 62, 92
1, 88606, Note_on_c, 0, 77, 0
1, 88608, Note_on_c, 0, 74, 92
1, 88672, Note_on_c, 1, 62, 0
1, 88702, Note_on_c, 0, 74, 0
1, 88704, Note_on_c, 0, 72, 92
1, 88704, Note_on_c, 1, 64, 92
1, 88798, Note_on_c, 0, 72, 0
1, 88800, Note_on_c, 0, 69, 92
1, 88864, Note_on_c, 1, 64, 0
1, 88894, Note_on_c, 0, 69, 0
1, 88896, Note_on_c, 0, 76, 92
1, 88896, Note_on_c, 1, 52, 92
1, 88990, Note_on_c, 0, 76, 0
1, 88992, Note_on_c, 0, 68, 92
1, 89056, Note_on_c, 1, 52, 0
1, 89086, Note_on_c, 0, 68, 0
1, 89088, Note_on_c, 0, 84, 45
1, 89182, Note_on_c, 0, 84, 0
1, 89184, Note_on_c, 0, 76, 45
1, 89278, Note_on_c, 0, 76, 0
1, 89280, Note_on_c, 0, 81, 45
1, 89374, Note_on_c, 0, 81, 0
1, 89376, Note_on_c, 0, 79, 45
1, 89376, Note_on_c, 0, 83, 45
1, 89470, Note_on_c, 0, 83, 0
1, 89470, Note_on_c, 0, 79, 0
1, 89472, Note_on_c, 0, 81, 45
1, 89566, Note_on_c, 0, 81, 0
1, 89568, Note_on_c, 0, 72, 45
1, 89662, Note_on_c, 0, 72, 0
1, 89664, Note_on_c, 0, 77, 45
1, 89758, Note_on_c, 0, 77, 0
1, 89760, Note_on_c, 0, 76, 45
1, 89760, Note_on_c, 0, 79, 45
1, 89854, Note_on_c, 0, 79, 0
1, 89854, Note_on_c, 0, 76, 0
1, 89856, Note_on_c, 0, 77, 45
1, 89950, Note_on_c, 0, 77, 0
1, 89952, Note_on_c, 0, 69, 45
1, 90046, Note_on_c, 0, 69, 0
1, 90048, Note_on_c, 0, 74, 45
1, 90142, Note_on_c, 0, 74, 0
1, 90144, Note_on_c, 0, 72, 45
1, 90144, Note_on_c, 0, 76, 45
1, 90238, Note_on_c, 0, 76, 0
1, 90238, Note_on_c, 0, 72, 0
1, 90240, Note_on_c, 0, 74, 45
1, 90334, Note_on_c, 0, 74, 0
1, 90336, Note_on_c, 0, 65, 45
1, 90430, Note_on_c, 0, 65, 0
1, 90432, Note_on_c, 0, 71, 45
1, 90526, Note_on_c, 0, 71, 0
1, 90528, Note_on_c, 0, 69, 45
1, 90528, Note_on_c, 0, 72, 45
1, 90622, Note_on_c, 0, 72, 0
1, 90622, Note_on_c, 0, 69, 0
1, 90624, Note_on_c, 0, 71, 45
1, 90784, Note_on_c, 0, 71, 0
1, 90816, Note_on_c, 0, 65, 92
1, 90816, Note_on_c, 0, 71, 92
1, 90816, Note_on_c, 0, 77, 92
1, 90816, Note_on_c, 1, 50, 92
1, 90816, Note_on_c, 1, 53, 92
1, 90816, Note_on_c, 1, 59, 92
1, 90976, Note_on_c, 0, 77, 0
1, 90976, Note_on_c, 0, 71, 0
1, 90976, Note_on_c, 0, 65, 0
1, 90976, Note_on_c, 1, 59, 0
1, 90976, Note_on_c, 1, 53, 0
1, 90976, Note_on_c, 1, 50, 0
1, 91008, Note_on_c, 0, 69, 92
1, 91008, Note_on_c, 0, 72, 92
1, 91008, Note_on_c, 0, 76, 92
1, 91008, Note_on_c, 1, 52, 92
1, 91008, Note_on_c, 1, 57, 92
1, 91008, Note_on_c, 1, 60, 92
1, 91168, Note_on_c, 0, 76, 0
1, 91168, Note_on_c, 0, 72, 0
1, 91168, Note_on_c, 0, 69, 0
1, 91168, Note_on_c, 1, 60, 0
1, 91168, Note_on_c, 1, 57, 0
1, 91168, Note_on_c, 1, 52, 0
1, 91200, Note_on_c, 0, 59, 92
1, 91200, Note_on_c, 0, 64, 92
1, 91200, Note_on_c, 0, 68, 92
1, 91200, Note_on_c, 1, 40, 92
1, 91200, Note_on_c, 1, 52, 92
1, 91360, Note_on_c, 0, 68, 0
1, 91360, Note_on_c, 0, 64, 0
1, 91360, Note_on_c, 0, 59, 0
1, 91360, Note_on_c, 1, 52, 0
1, 91360, Note_on_c, 1, 40, 0
1, 91392, Note_on_c, 0, 84, 45
1, 91486, Note_on_c, 0, 84, 0
1, 91488, Note_on_c, 0, 76, 45
1, 91582, Note_on_c, 0, 76, 0
1, 91584, Note_on_c, 0, 81, 45
1, 91678, Note_on_c, 0, 81, 0
1, 91680, Note_on_c, 0, 79, 45
1, 91680, Note_on_c, 0, 83, 45
1, 91774, Note_on_c, 0, 83, 0
1, 91774, Note_on_c, 0, 79, 0
1, 91776, Note_on_c, 0, 81, 45
1, 91870, Note_on_c, 0, 81, 0
1, 91872, Note_on_c, 0, 72, 46
1, 91966, Note_on_c, 0, 72, 0
1, 91968, Note_on_c, 0, 77, 47
1, 92062, Note_on_c, 0, 77, 0
1, 92064, Note_on_c, 0, 76, 48
1, 92064, Note_on_c, 0, 79, 48
1, 92158, Note_on_c, 0, 79, 0
1, 92158, Note_on_c, 0, 76, 0
1, 92160, Note_on_c, 0, 77, 49
1, 92254, Note_on_c, 0, 77, 0
1, 92256, Note_on_c, 0, 69, 50
1, 92350, Note_on_c, 0, 69, 0
1, 92352, Note_on_c, 0, 74, 51
1, 92446, Note_on_c, 0, 74, 0
1, 92448, Note_on_c, 0, 72, 52
1, 92448, Note_on_c, 0, 76, 52
1, 92542, Note_on_c, 0, 76, 0
1, 92542, Note_on_c, 0, 72, 0
1, 92544, Note_on_c, 0, 74, 53
1, 92638, Note_on_c, 0, 74, 0
1, 92640, Note_on_c, 0, 65, 54
1, 92734, Note_on_c, 0, 65, 0
1, 92736, Note_on_c, 0, 71, 55
1, 92830, Note_on_c, 0, 71, 0
1, 92832, Note_on_c, 0, 69, 56
1, 92832, Note_on_c, 0, 72, 56
1, 92926, Note_on_c, 0, 72, 0
1, 92926, Note_on_c, 0, 69, 0
1, 92928, Note_on_c, 0, 71, 57
1, 93088, Note_on_c, 0, 71, 0
1, 93120, Note_on_c, 0, 65, 92
1, 93120, Note_on_c, 0, 71, 92
1, 93120, Note_on_c, 0, 77, 92
1, 93120, Note_on_c, 1, 50, 92
1, 93120, Note_on_c, 1, 53, 92
1, 93120, Note_on_c, 1, 59, 92
1, 93280, Note_on_c, 0, 77, 0
1, 93280, Note_on_c, 0, 71, 0
1, 93280, Note_on_c, 0, 65, 0
1, 93280, Note_on_c, 1, 59, 0
1, 93280, Note_on_c, 1, 53, 0
1, 93280, Note_on_c, 1, 50, 0
1, 93312, Note_on_c, 0, 69, 92
1, 93312, Note_on_c, 0, 72, 92
1, 93312, Note_on_c, 0, 76, 92
1, 93312, Note_on_c, 1, 52, 92
1, 93312, Note_on_c, 1, 57, 92
1, 93312, Note_on_c, 1, 60, 92
1, 93472, Note_on_c, 0, 76, 0
1, 93472, Note_on_c, 0, 72, 0
1, 93472, Note_on_c, 0, 69, 0
1, 93472, Note_on_c, 1, 60, 0
1, 93472, Note_on_c, 1, 57, 0
1, 93472, Note_on_c, 1, 52, 0
1, 93504, Note_on_c, 0, 59, 92
1, 93504, Note_on_c, 0, 64, 92
1, 93504, Note_on_c, 0, 68, 92
1, 93504, Note_on_c, 1, 40, 92
1, 93504, Note_on_c, 1, 52, 92
1, 93664, Note_on_c, 0, 68, 0
1, 93664, Note_on_c, 0, 64, 0
1, 93664, Note_on_c, 0, 59, 0
1, 93664, Note_on_c, 1, 52, 0
1, 93664, Note_on_c, 1, 40, 0
1, 93696, Note_on_c, 0, 69, 92
1, 93696, Note_on_c, 1, 45, 92
1, 93790, Note_on_c, 0, 69, 0
1, 93792, Note_on_c, 0, 64, 92
1, 93856, Note_on_c, 1, 45, 0
1, 93886, Note_on_c, 0, 64, 0
1, 93888, Note_on_c, 0, 72, 92
1, 93982, Note_on_c, 0, 72, 0
1, 93984, Note_on_c, 0, 69, 92
1, 94078, Note_on_c, 0, 69, 0
1, 94080, Note_on_c, 0, 76, 92
1, 94174, Note_on_c, 0, 76, 0
1, 94176, Note_on_c, 0, 72, 92
1, 94270, Note_on_c, 0, 72, 0
1, 94272, Note_on_c, 0, 71, 92
1, 94366, Note_on_c, 0, 71, 0
1, 94368, Note_on_c, 0, 68, 92
1, 94462, Note_on_c, 0, 68, 0
1, 94464, Note_on_c, 0, 69, 92
1, 94464, Note_on_c, 1, 45, 92
1, 94558, Note_on_c, 0, 69, 0
1, 94558, Note_on_c, 1, 45, 0
1, 94560, Note_on_c, 0, 64, 92
1, 94560, Note_on_c, 0, 76, 92
1, 94560, Note_on_c, 1, 40, 92
1, 94654, Note_on_c, 0, 76, 0
1, 94654, Note_on_c, 0, 64, 0
1, 94654, Note_on_c, 1, 40, 0
1, 94656, Note_on_c, 0, 64, 92
1, 94656, Note_on_c, 0, 76, 92
1, 94656, Note_on_c, 1, 48, 92
1, 94750, Note_on_c, 0, 76, 0
1, 94750, Note_on_c, 0, 64, 0
1, 94750, Note_on_c, 1, 48, 0
1, 94752, Note_on_c, 0, 64, 92
1, 94752, Note_on_c, 0, 76, 92
1, 94752, Note_on_c, 1, 45, 92
1, 94846, Note_on_c, 0, 76, 0
1, 94846, Note_on_c, 0, 64, 0
1, 94846, Note_on_c, 1, 45, 0
1, 94848, Note_on_c, 0, 64, 92
1, 94848, Note_on_c, 0, 76, 92
1, 94848, Note_on_c, 1, 52, 92
1, 94942, Note_on_c, 0, 76, 0
1, 94942, Note_on_c, 0, 64, 0
1, 94942, Note_on_c, 1, 52, 0
1, 94944, Note_on_c, 0, 64, 92
1, 94944, Note_on_c, 0, 76, 92
1, 94944, Note_on_c, 1, 48, 92
1, 95038, Note_on_c, 0, 76, 0
1, 95038, Note_on_c, 0, 64, 0
1, 95038, Note_on_c, 1, 48, 0
1, 95040, Note_on_c, 0, 64, 92
1, 95040, Note_on_c, 0, 76, 92
1, 95040, Note_on_c, 1, 47, 92
1, 95134, Note_on_c, 0, 76, 0
1, 95134, Note_on_c, 0, 64, 0
1, 95134, Note_on_c, 1, 47, 0
1, 95136, Note_on_c, 0, 64, 92
1, 95136, Note_on_c, 0, 76, 92
1, 95136, Note_on_c, 1, 44, 92
1, 95230, Note_on_c, 0, 76, 0
1, 95230, Note_on_c, 0, 64, 0
1, 95230, Note_on_c, 1, 44, 0
1, 95232, Note_on_c, 0, 64, 92
1, 95232, Note_on_c, 0, 76, 92
1, 95232, Note_on_c, 1, 45, 92
1, 95326, Note_on_c, 1, 45, 0
1, 95328, Note_on_c, 1, 40, 92
1, 95328, Note_on_c, 1, 52, 92
1, 95392, Note_on_c, 0, 76, 0
1, 95392, Note_on_c, 0, 64, 0
1, 95422, Note_on_c, 1, 52, 0
1, 95422, Note_on_c, 1, 40, 0
1, 95424, Note_on_c, 0, 72, 92
1, 95424, Note_on_c, 0, 76, 92
1, 95424, Note_on_c, 0, 81, 92
1, 95424, Note_on_c, 1, 40, 92
1, 95424, Note_on_c, 1, 52, 92
1, 95518, Note_on_c, 1, 52, 0
1, 95518, Note_on_c, 1, 40, 0
1, 95520, Note_on_c, 1, 40, 92
1, 95520, Note_on_c, 1, 52, 92
1, 95584, Note_on_c, 0, 81, 0
1, 95584, Note_on_c, 0, 76, 0
1, 95584, Note_on_c, 0, 72, 0
1, 95614, Note_on_c, 1, 52, 0
1, 95614, Note_on_c, 1, 40, 0
1, 95616, Note_on_c, 0, 76, 92
1, 95616, Note_on_c, 0, 81, 92
1, 95616, Note_on_c, 0, 84, 92
1, 95616, Note_on_c, 1, 40, 92
1, 95616, Note_on_c, 1, 52, 92
1, 95710, Note_on_c, 1, 52, 0
1, 95710, Note_on_c, 1, 40, 0
1, 95712, Note_on_c, 1, 40, 92
1, 95712, Note_on_c, 1, 52, 92
1, 95776, Note_on_c, 0, 84, 0
1, 95776, Note_on_c, 0, 81, 0
1, 95776, Note_on_c, 0, 76, 0
1, 95806, Note_on_c, 1, 52, 0
1, 95806, Note_on_c, 1, 40, 0
1, 95808, Note_on_c, 0, 76, 92
1, 95808, Note_on_c, 0, 80, 92
1, 95808, Note_on_c, 0, 83, 92
1, 95808, Note_on_c, 1, 40, 92
1, 95808, Note_on_c, 1, 52, 92
1, 95902, Note_on_c, 1, 52, 0
1, 95902, Note_on_c, 1, 40, 0
1, 95904, Note_on_c, 1, 40, 92
1, 95904, Note_on_c, 1, 52, 92
1, 95968, Note_on_c, 0, 83, 0
1, 95968, Note_on_c, 0, 80, 0
1, 95968, Note_on_c, 0, 76, 0
1, 95998, Note_on_c, 1, 52, 0
1, 95998, Note_on_c, 1, 40, 0
1, 96000, Note_on_c, 0, 81, 92
1, 96000, Note_on_c, 1, 45, 92
1, 96000, Note_on_c, 1, 57, 92
1, 96160, Note_on_c, 0, 81, 0
1, 96160, Note_on_c, 1, 57, 0
1, 96160, Note_on_c, 1, 45, 0
1, 96192, Note_on_c, 0, 60, 92
1, 96192, Note_on_c, 0, 64, 92
1, 96192, Note_on_c, 0, 69, 92
1, 96192, Note_on_c, 1, 33, 92
1, 96192, Note_on_c, 1, 45, 92
1, 96352, Note_on_c, 0, 69, 0
1, 96352, Note_on_c, 0, 64, 0
1, 96352, Note_on_c, 0, 60, 0
1, 96352, Note_on_c, 1, 45, 0
1, 96352, Note_on_c, 1, 33, 0
1, 96384, Note_on_c, 0, 60, 92
1, 96384, Note_on_c, 0, 64, 92
1, 96384, Note_on_c, 0, 69, 92
1, 96384, Note_on_c, 1, 33, 92
1, 96384, Note_on_c, 1, 45, 92
1, 96544, Note_on_c, 0, 69, 0
1, 96544, Note_on_c, 0, 64, 0
1, 96544, Note_on_c, 0, 60, 0
1, 96544, Note_on_c, 1, 45, 0
1, 96544, Note_on_c, 1, 33, 0
1, 96554, End_track
0, 0, End_of_file