0, 0, Header, 0, 1, 192
1, 0, Start_track
1, 0, Tempo, 476190
1, 0, Note_on_c, 0, 72, 80
1, 96, Note_on_c, 0, 64, 80
1, 96, Note_on_c, 0, 67, 80
1, 172, Note_on_c, 0, 67, 0
1, 172, Note_on_c, 0, 64, 0
1, 192, Note_on_c, 0, 62, 80
1, 192, Note_on_c, 0, 65, 80
1, 268, Note_on_c, 0, 65, 0
1, 268, Note_on_c, 0, 62, 0
1, 288, Note_on_c, 0, 60, 80
1, 288, Note_on_c, 0, 64, 80
1, 307, Note_on_c, 0, 72, 0
1, 364, Note_on_c, 0, 60, 0
1, 364, Note_on_c, 0, 64, 0
1, 384, Note_on_c, 0, 77, 80
1, 480, Note_on_c, 0, 59, 80
1, 480, Note_on_c, 0, 62, 80
1, 556, Note_on_c, 0, 62, 0
1, 556, Note_on_c, 0, 59, 0
1, 576, Note_on_c, 0, 57, 80
1, 576, Note_on_c, 0, 60, 80
1, 652, Note_on_c, 0, 60, 0
1, 652, Note_on_c, 0, 57, 0
1, 672, Note_on_c, 0, 55, 80
1, 672, Note_on_c, 0, 59, 80
1, 691, Note_on_c, 0, 77, 0
1, 748, Note_on_c, 0, 55, 0
1, 748, Note_on_c, 0, 59, 0
1, 768, Note_on_c, 0, 60, 80
1, 768, Note_on_c, 0, 76, 80
1, 806, Note_on_c, 0, 76, 0
1, 816, Note_on_c, 0, 79, 80
1, 844, Note_on_c, 0, 60, 0
1, 854, Note_on_c, 0, 79, 0
1, 864, Note_on_c, 0, 77, 80
1, 864, Note_on_c, 0, 72, 80
1, 902, Note_on_c, 0, 77, 0
1, 912, Note_on_c, 0, 76, 80
1, 940, Note_on_c, 0, 72, 0
1, 950, Note_on_c, 0, 76, 0
1, 960, Note_on_c, 0, 65, 80
1, 960, Note_on_c, 0, 81, 80
1, 998, Note_on_c, 0, 81, 0
1, 1008, Note_on_c, 0, 77, 80
1, 1036, Note_on_c, 0, 65, 0
1, 1046, Note_on_c, 0, 77, 0
1, 1056, Note_on_c, 0, 66, 80
1, 1056, Note_on_c, 0, 74, 80
1, 1094, Note_on_c, 0, 74, 0
1, 1104, Note_on_c, 0, 72, 80
1, 1132, Note_on_c, 0, 66, 0
1, 1142, Note_on_c, 0, 72, 0
1, 1152, Note_on_c, 0, 67, 80
1, 1152, Note_on_c, 0, 71, 80
1, 1190, Note_on_c, 0, 71, 0
1, 1200, Note_on_c, 0, 72, 80
1, 1238, Note_on_c, 0, 72, 0
1, 1248, Note_on_c, 0, 74, 80
1, 1286, Note_on_c, 0, 74, 0
1, 1296, Note_on_c, 0, 71, 80
1, 1305, Note_on_c, 0, 67, 0
1, 1334, Note_on_c, 0, 71, 0
1, 1344, Note_on_c, 0, 55, 80
1, 1344, Note_on_c, 0, 69, 80
1, 1382, Note_on_c, 0, 69, 0
1, 1392, Note_on_c, 0, 67, 80
1, 1430, Note_on_c, 0, 67, 0
1, 1440, Note_on_c, 0, 66, 80
1, 1478, Note_on_c, 0, 66, 0
1, 1488, Note_on_c, 0, 67, 80
1, 1497, Note_on_c, 0, 55, 0
1, 1526, Note_on_c, 0, 67, 0
1, 1536, Note_on_c, 0, 60, 80
1, 1632, Note_on_c, 0, 52, 80
1, 1632, Note_on_c, 0, 55, 80
1, 1708, Note_on_c, 0, 55, 0
1, 1708, Note_on_c, 0, 52, 0
1, 1728, Note_on_c, 0, 50, 80
1, 1728, Note_on_c, 0, 53, 80
1, 1804, Note_on_c, 0, 53, 0
1, 1804, Note_on_c, 0, 50, 0
1, 1824, Note_on_c, 0, 48, 80
1, 1824, Note_on_c, 0, 52, 80
1, 1843, Note_on_c, 0, 60, 0
1, 1900, Note_on_c, 0, 48, 0
1, 1900, Note_on_c, 0, 52, 0
1, 1920, Note_on_c, 0, 65, 80
1, 2016, Note_on_c, 0, 50, 80
1, 2016, Note_on_c, 0, 47, 80
1, 2092, Note_on_c, 0, 47, 0
1, 2092, Note_on_c, 0, 50, 0
1, 2112, Note_on_c, 0, 48, 80
1, 2112, Note_on_c, 0, 45, 80
1, 2188, Note_on_c, 0, 45, 0
1, 2188, Note_on_c, 0, 48, 0
1, 2208, Note_on_c, 0, 47, 80
1, 2208, Note_on_c, 0, 43, 80
1, 2227, Note_on_c, 0, 65, 0
1, 2284, Note_on_c, 0, 47, 0
1, 2284, Note_on_c, 0, 43, 0
1, 2304, Note_on_c, 0, 48, 80
1, 2304, Note_on_c, 0, 64, 80
1, 2342, Note_on_c, 0, 64, 0
1, 2352, Note_on_c, 0, 67, 80
1, 2380, Note_on_c, 0, 48, 0
1, 2390, Note_on_c, 0, 67, 0
1, 2400, Note_on_c, 0, 72, 80
1, 2400, Note_on_c, 0, 52, 80
1, 2438, Note_on_c, 0, 72, 0
1, 2448, Note_on_c, 0, 67, 80
1, 2476, Note_on_c, 0, 52, 0
1, 2486, Note_on_c, 0, 67, 0
1, 2496, Note_on_c, 0, 50, 80
1, 2496, Note_on_c, 0, 66, 80
1, 2534, Note_on_c, 0, 66, 0
1, 2544, Note_on_c, 0, 67, 80
1, 2572, Note_on_c, 0, 50, 0
1, 2582, Note_on_c, 0, 67, 0
1, 2592, Note_on_c, 0, 47, 80
1, 2592, Note_on_c, 0, 65, 80
1, 2630, Note_on_c, 0, 65, 0
1, 2640, Note_on_c, 0, 67, 80
1, 2668, Note_on_c, 0, 47, 0
1, 2678, Note_on_c, 0, 67, 0
1, 2688, Note_on_c, 0, 48, 80
1, 2688, Note_on_c, 0, 64, 80
1, 2726, Note_on_c, 0, 64, 0
1, 2736, Note_on_c, 0, 67, 80
1, 2764, Note_on_c, 0, 48, 0
1, 2774, Note_on_c, 0, 67, 0
1, 2784, Note_on_c, 0, 72, 80
1, 2784, Note_on_c, 0, 52, 80
1, 2822, Note_on_c, 0, 72, 0
1, 2832, Note_on_c, 0, 67, 80
1, 2860, Note_on_c, 0, 52, 0
1, 2870, Note_on_c, 0, 67, 0
1, 2880, Note_on_c, 0, 50, 80
1, 2880, Note_on_c, 0, 66, 80
1, 2918, Note_on_c, 0, 66, 0
1, 2928, Note_on_c, 0, 67, 80
1, 2956, Note_on_c, 0, 50, 0
1, 2966, Note_on_c, 0, 67, 0
1, 2976, Note_on_c, 0, 47, 80
1, 2976, Note_on_c, 0, 65, 80
1, 3014, Note_on_c, 0, 65, 0
1, 3024, Note_on_c, 0, 67, 80
1, 3052, Note_on_c, 0, 47, 0
1, 3062, Note_on_c, 0, 67, 0
1, 3072, Note_on_c, 0, 48, 80
1, 3072, Note_on_c, 0, 64, 80
1, 3110, Note_on_c, 0, 64, 0
1, 3120, Note_on_c, 0, 67, 80
1, 3148, Note_on_c, 0, 48, 0
1, 3158, Note_on_c, 0, 67, 0
1, 3168, Note_on_c, 0, 60, 80
1, 3168, Note_on_c, 0, 52, 80
1, 3206, Note_on_c, 0, 60, 0
1, 3216, Note_on_c, 0, 64, 80
1, 3244, Note_on_c, 0, 52, 0
1, 3254, Note_on_c, 0, 64, 0
1, 3264, Note_on_c, 0, 53, 80
1, 3264, Note_on_c, 0, 62, 80
1, 3302, Note_on_c, 0, 62, 0
1, 3312, Note_on_c, 0, 65, 80
1, 3340, Note_on_c, 0, 53, 0
1, 3350, Note_on_c, 0, 65, 0
1, 3360, Note_on_c, 0, 55, 80
1, 3360, Note_on_c, 0, 59, 80
1, 3398, Note_on_c, 0, 59, 0
1, 3408, Note_on_c, 0, 62, 80
1, 3436, Note_on_c, 0, 55, 0
1, 3446, Note_on_c, 0, 62, 0
1, 3456, Note_on_c, 0, 60, 80
1, 3456, Note_on_c, 0, 48, 80
1, 3532, Note_on_c, 0, 48, 0
1, 3552, Note_on_c, 0, 43, 80
1, 3609, Note_on_c, 0, 60, 0
1, 3628, Note_on_c, 0, 43, 0
1, 3648, Note_on_c, 0, 36, 80
1, 3744, Note_on_c, 0, 67, 80
1, 3763, Note_on_c, 0, 67, 0
1, 3768, Note_on_c, 0, 69, 80
1, 3787, Note_on_c, 0, 69, 0
1, 3792, Note_on_c, 0, 67, 80
1, 3801, Note_on_c, 0, 36, 0
1, 3811, Note_on_c, 0, 67, 0
1, 3816, Note_on_c, 0, 69, 80
1, 3835, Note_on_c, 0, 69, 0
1, 3840, Note_on_c, 0, 72, 80
1, 3840, Note_on_c, 0, 67, 80
1, 3840, Note_on_c, 0, 60, 80
1, 3840, Note_on_c, 0, 64, 80
1, 3878, Note_on_c, 0, 72, 0
1, 3888, Note_on_c, 0, 67, 80
1, 3926, Note_on_c, 0, 67, 0
1, 3936, Note_on_c, 0, 76, 80
1, 3974, Note_on_c, 0, 76, 0
1, 3984, Note_on_c, 0, 72, 80
1, 3993, Note_on_c, 0, 60, 0
1, 3993, Note_on_c, 0, 64, 0
1, 3993, Note_on_c, 0, 67, 0
1, 4022, Note_on_c, 0, 72, 0
1, 4032, Note_on_c, 0, 79, 80
1, 4070, Note_on_c, 0, 79, 0
1, 4080, Note_on_c, 0, 78, 80
1, 4118, Note_on_c, 0, 78, 0
1, 4128, Note_on_c, 0, 79, 80
1, 4166, Note_on_c, 0, 79, 0
1, 4176, Note_on_c, 0, 76, 80
1, 4214, Note_on_c, 0, 76, 0
1, 4224, Note_on_c, 0, 76, 80
1, 4224, Note_on_c, 0, 67, 80
1, 4224, Note_on_c, 0, 59, 80
1, 4224, Note_on_c, 0, 62, 80
1, 4262, Note_on_c, 0, 76, 0
1, 4272, Note_on_c, 0, 74, 80
1, 4310, Note_on_c, 0, 74, 0
1, 4320, Note_on_c, 0, 73, 80
1, 4358, Note_on_c, 0, 73, 0
1, 4368, Note_on_c, 0, 74, 80
1, 4377, Note_on_c, 0, 67, 0
1, 4377, Note_on_c, 0, 59, 0
1, 4377, Note_on_c, 0, 62, 0
1, 4406, Note_on_c, 0, 74, 0
1, 4416, Note_on_c, 0, 73, 80
1, 4454, Note_on_c, 0, 73, 0
1, 4464, Note_on_c, 0, 74, 80
1, 4502, Note_on_c, 0, 74, 0
1, 4512, Note_on_c, 0, 73, 80
1, 4550, Note_on_c, 0, 73, 0
1, 4560, Note_on_c, 0, 74, 80
1, 4598, Note_on_c, 0, 74, 0
1, 4608, Note_on_c, 0, 79, 80
1, 4608, Note_on_c, 0, 67, 80
1, 4608, Note_on_c, 0, 59, 80
1, 4608, Note_on_c, 0, 62, 80
1, 4646, Note_on_c, 0, 79, 0
1, 4656, Note_on_c, 0, 81, 80
1, 4694, Note_on_c, 0, 81, 0
1, 4704, Note_on_c, 0, 83, 80
1, 4742, Note_on_c, 0, 83, 0
1, 4752, Note_on_c, 0, 78, 80
1, 4761, Note_on_c, 0, 67, 0
1, 4761, Note_on_c, 0, 59, 0
1, 4761, Note_on_c, 0, 62, 0
1, 4790, Note_on_c, 0, 78, 0
1, 4800, Note_on_c, 0, 79, 80
1, 4838, Note_on_c, 0, 79, 0
1, 4848, Note_on_c, 0, 74, 80
1, 4886, Note_on_c, 0, 74, 0
1, 4896, Note_on_c, 0, 76, 80
1, 4934, Note_on_c, 0, 76, 0
1, 4944, Note_on_c, 0, 71, 80
1, 4982, Note_on_c, 0, 71, 0
1, 4992, Note_on_c, 0, 60, 80
1, 4992, Note_on_c, 0, 74, 80
1, 4992, Note_on_c, 0, 57, 80
1, 4992, Note_on_c, 0, 66, 80
1, 5030, Note_on_c, 0, 74, 0
1, 5040, Note_on_c, 0, 72, 80
1, 5078, Note_on_c, 0, 72, 0
1, 5088, Note_on_c, 0, 71, 80
1, 5126, Note_on_c, 0, 71, 0
1, 5136, Note_on_c, 0, 72, 80
1, 5145, Note_on_c, 0, 60, 0
1, 5145, Note_on_c, 0, 57, 0
1, 5145, Note_on_c, 0, 66, 0
1, 5174, Note_on_c, 0, 72, 0
1, 5184, Note_on_c, 0, 71, 80
1, 5222, Note_on_c, 0, 71, 0
1, 5232, Note_on_c, 0, 72, 80
1, 5270, Note_on_c, 0, 72, 0
1, 5280, Note_on_c, 0, 71, 80
1, 5318, Note_on_c, 0, 71, 0
1, 5328, Note_on_c, 0, 72, 80
1, 5366, Note_on_c, 0, 72, 0
1, 5376, Note_on_c, 0, 81, 80
1, 5376, Note_on_c, 0, 66, 80
1, 5376, Note_on_c, 0, 62, 80
1, 5414, Note_on_c, 0, 81, 0
1, 5424, Note_on_c, 0, 83, 80
1, 5462, Note_on_c, 0, 83, 0
1, 5472, Note_on_c, 0, 84, 80
1, 5510, Note_on_c, 0, 84, 0
1, 5520, Note_on_c, 0, 81, 80
1, 5558, Note_on_c, 0, 81, 0
1, 5568, Note_on_c, 0, 78, 80
1, 5606, Note_on_c, 0, 78, 0
1, 5616, Note_on_c, 0, 76, 80
1, 5654, Note_on_c, 0, 76, 0
1, 5664, Note_on_c, 0, 74, 80
1, 5683, Note_on_c, 0, 66, 0
1, 5683, Note_on_c, 0, 62, 0
1, 5702, Note_on_c, 0, 74, 0
1, 5712, Note_on_c, 0, 72, 80
1, 5750, Note_on_c, 0, 72, 0
1, 5760, Note_on_c, 0, 64, 80
1, 5760, Note_on_c, 0, 67, 80
1, 5760, Note_on_c, 0, 72, 80
1, 5798, Note_on_c, 0, 72, 0
1, 5808, Note_on_c, 0, 71, 80
1, 5846, Note_on_c, 0, 71, 0
1, 5856, Note_on_c, 0, 70, 80
1, 5894, Note_on_c, 0, 70, 0
1, 5904, Note_on_c, 0, 71, 80
1, 5913, Note_on_c, 0, 67, 0
1, 5913, Note_on_c, 0, 64, 0
1, 5942, Note_on_c, 0, 71, 0
1, 5952, Note_on_c, 0, 66, 80
1, 5952, Note_on_c, 0, 62, 80
1, 5952, Note_on_c, 0, 72, 80
1, 5990, Note_on_c, 0, 72, 0
1, 6000, Note_on_c, 0, 71, 80
1, 6038, Note_on_c, 0, 71, 0
1, 6048, Note_on_c, 0, 70, 80
1, 6086, Note_on_c, 0, 70, 0
1, 6096, Note_on_c, 0, 71, 80
1, 6105, Note_on_c, 0, 62, 0
1, 6105, Note_on_c, 0, 66, 0
1, 6134, Note_on_c, 0, 71, 0
1, 6144, Note_on_c, 0, 69, 80
1, 6144, Note_on_c, 0, 64, 80
1, 6144, Note_on_c, 0, 61, 80
1, 6182, Note_on_c, 0, 69, 0
1, 6192, Note_on_c, 0, 72, 80
1, 6230, Note_on_c, 0, 72, 0
1, 6240, Note_on_c, 0, 76, 80
1, 6278, Note_on_c, 0, 76, 0
1, 6288, Note_on_c, 0, 74, 80
1, 6326, Note_on_c, 0, 74, 0
1, 6336, Note_on_c, 0, 72, 80
1, 6374, Note_on_c, 0, 64, 0
1, 6374, Note_on_c, 0, 61, 0
1, 6374, Note_on_c, 0, 72, 0
1, 6384, Note_on_c, 0, 71, 80
1, 6422, Note_on_c, 0, 71, 0
1, 6432, Note_on_c, 0, 61, 80
1, 6432, Note_on_c, 0, 64, 80
1, 6432, Note_on_c, 0, 69, 80
1, 6470, Note_on_c, 0, 69, 0
1, 6480, Note_on_c, 0, 67, 80
1, 6508, Note_on_c, 0, 64, 0
1, 6508, Note_on_c, 0, 61, 0
1, 6518, Note_on_c, 0, 67, 0
1, 6528, Note_on_c, 0, 66, 80
1, 6528, Note_on_c, 0, 62, 80
1, 6566, Note_on_c, 0, 62, 0
1, 6576, Note_on_c, 0, 74, 80
1, 6604, Note_on_c, 0, 66, 0
1, 6614, Note_on_c, 0, 74, 0
1, 6624, Note_on_c, 0, 73, 80
1, 6662, Note_on_c, 0, 73, 0
1, 6672, Note_on_c, 0, 74, 80
1, 6710, Note_on_c, 0, 74, 0
1, 6720, Note_on_c, 0, 72, 80
1, 6720, Note_on_c, 0, 78, 80
1, 6758, Note_on_c, 0, 72, 0
1, 6768, Note_on_c, 0, 74, 80
1, 6796, Note_on_c, 0, 78, 0
1, 6806, Note_on_c, 0, 74, 0
1, 6816, Note_on_c, 0, 71, 80
1, 6816, Note_on_c, 0, 79, 80
1, 6854, Note_on_c, 0, 71, 0
1, 6864, Note_on_c, 0, 74, 80
1, 6892, Note_on_c, 0, 79, 0
1, 6902, Note_on_c, 0, 74, 0
1, 6912, Note_on_c, 0, 81, 80
1, 6912, Note_on_c, 0, 69, 80
1, 6950, Note_on_c, 0, 69, 0
1, 6960, Note_on_c, 0, 74, 80
1, 6988, Note_on_c, 0, 81, 0
1, 6998, Note_on_c, 0, 74, 0
1, 7008, Note_on_c, 0, 83, 80
1, 7008, Note_on_c, 0, 67, 80
1, 7046, Note_on_c, 0, 67, 0
1, 7056, Note_on_c, 0, 74, 80
1, 7084, Note_on_c, 0, 83, 0
1, 7094, Note_on_c, 0, 74, 0
1, 7104, Note_on_c, 0, 66, 80
1, 7104, Note_on_c, 0, 81, 80
1, 7104, Note_on_c, 0, 84, 80
1, 7142, Note_on_c, 0, 66, 0
1, 7152, Note_on_c, 0, 74, 80
1, 7180, Note_on_c, 0, 81, 0
1, 7180, Note_on_c, 0, 84, 0
1, 7190, Note_on_c, 0, 74, 0
1, 7200, Note_on_c, 0, 67, 80
1, 7200, Note_on_c, 0, 79, 80
1, 7200, Note_on_c, 0, 83, 80
1, 7238, Note_on_c, 0, 67, 0
1, 7248, Note_on_c, 0, 74, 80
1, 7276, Note_on_c, 0, 79, 0
1, 7276, Note_on_c, 0, 83, 0
1, 7286, Note_on_c, 0, 74, 0
1, 7296, Note_on_c, 0, 81, 80
1, 7296, Note_on_c, 0, 78, 80
1, 7296, Note_on_c, 0, 62, 80
1, 7334, Note_on_c, 0, 62, 0
1, 7344, Note_on_c, 0, 62, 80
1, 7372, Note_on_c, 0, 78, 0
1, 7372, Note_on_c, 0, 81, 0
1, 7382, Note_on_c, 0, 62, 0
1, 7392, Note_on_c, 0, 61, 80
1, 7430, Note_on_c, 0, 61, 0
1, 7440, Note_on_c, 0, 62, 80
1, 7478, Note_on_c, 0, 62, 0
1, 7488, Note_on_c, 0, 60, 80
1, 7488, Note_on_c, 0, 66, 80
1, 7526, Note_on_c, 0, 60, 0
1, 7536, Note_on_c, 0, 62, 80
1, 7564, Note_on_c, 0, 66, 0
1, 7574, Note_on_c, 0, 62, 0
1, 7584, Note_on_c, 0, 59, 80
1, 7584, Note_on_c, 0, 67, 80
1, 7603, Note_on_c, 0, 67, 0
1, 7608, Note_on_c, 0, 69, 80
1, 7622, Note_on_c, 0, 59, 0
1, 7627, Note_on_c, 0, 69, 0
1, 7632, Note_on_c, 0, 62, 80
1, 7632, Note_on_c, 0, 67, 80
1, 7651, Note_on_c, 0, 67, 0
1, 7656, Note_on_c, 0, 69, 80
1, 7670, Note_on_c, 0, 62, 0
1, 7675, Note_on_c, 0, 69, 0
1, 7680, Note_on_c, 0, 69, 80
1, 7680, Note_on_c, 0, 57, 80
1, 7718, Note_on_c, 0, 57, 0
1, 7728, Note_on_c, 0, 62, 80
1, 7756, Note_on_c, 0, 69, 0
1, 7766, Note_on_c, 0, 62, 0
1, 7776, Note_on_c, 0, 55, 80
1, 7776, Note_on_c, 0, 71, 80
1, 7795, Note_on_c, 0, 71, 0
1, 7800, Note_on_c, 0, 72, 80
1, 7814, Note_on_c, 0, 55, 0
1, 7819, Note_on_c, 0, 72, 0
1, 7824, Note_on_c, 0, 71, 80
1, 7824, Note_on_c, 0, 62, 80
1, 7843, Note_on_c, 0, 71, 0
1, 7848, Note_on_c, 0, 72, 80
1, 7862, Note_on_c, 0, 62, 0
1, 7867, Note_on_c, 0, 72, 0
1, 7872, Note_on_c, 0, 54, 80
1, 7872, Note_on_c, 0, 69, 80
1, 7872, Note_on_c, 0, 72, 80
1, 7910, Note_on_c, 0, 54, 0
1, 7920, Note_on_c, 0, 62, 80
1, 7948, Note_on_c, 0, 69, 0
1, 7948, Note_on_c, 0, 72, 0
1, 7958, Note_on_c, 0, 62, 0
1, 7968, Note_on_c, 0, 55, 80
1, 7968, Note_on_c, 0, 67, 80
1, 7968, Note_on_c, 0, 71, 80
1, 8006, Note_on_c, 0, 55, 0
1, 8016, Note_on_c, 0, 62, 80
1, 8044, Note_on_c, 0, 67, 0
1, 8044, Note_on_c, 0, 71, 0
1, 8054, Note_on_c, 0, 62, 0
1, 8064, Note_on_c, 0, 50, 80
1, 8064, Note_on_c, 0, 69, 80
1, 8064, Note_on_c, 0, 66, 80
1, 8217, Note_on_c, 0, 66, 0
1, 8217, Note_on_c, 0, 69, 0
1, 8217, Note_on_c, 0, 50, 0
1, 8352, Note_on_c, 0, 74, 80
1, 8428, Note_on_c, 0, 74, 0
1, 8448, Note_on_c, 0, 74, 80
1, 8524, Note_on_c, 0, 74, 0
1, 8544, Note_on_c, 0, 74, 80
1, 8620, Note_on_c, 0, 74, 0
1, 8640, Note_on_c, 0, 74, 80
1, 8716, Note_on_c, 0, 74, 0
1, 8736, Note_on_c, 0, 74, 80
1, 8812, Note_on_c, 0, 74, 0
1, 8832, Note_on_c, 0, 79, 80
1, 8928, Note_on_c, 0, 64, 80
1, 8928, Note_on_c, 0, 71, 80
1, 9004, Note_on_c, 0, 71, 0
1, 9004, Note_on_c, 0, 64, 0
1, 9024, Note_on_c, 0, 73, 80
1, 9062, Note_on_c, 0, 79, 0
1, 9100, Note_on_c, 0, 73, 0
1, 9120, Note_on_c, 0, 78, 80
1, 9120, Note_on_c, 0, 62, 80
1, 9120, Note_on_c, 0, 74, 80
1, 9196, Note_on_c, 0, 74, 0
1, 9196, Note_on_c, 0, 62, 0
1, 9196, Note_on_c, 0, 78, 0
1, 9216, Note_on_c, 0, 71, 80
1, 9292, Note_on_c, 0, 71, 0
1, 9312, Note_on_c, 0, 71, 80
1, 9388, Note_on_c, 0, 71, 0
1, 9408, Note_on_c, 0, 71, 80
1, 9484, Note_on_c, 0, 71, 0
1, 9504, Note_on_c, 0, 71, 80
1, 9580, Note_on_c, 0, 71, 0
1, 9600, Note_on_c, 0, 76, 80
1, 9696, Note_on_c, 0, 60, 80
1, 9696, Note_on_c, 0, 67, 80
1, 9772, Note_on_c, 0, 67, 0
1, 9772, Note_on_c, 0, 60, 0
1, 9792, Note_on_c, 0, 69, 80
1, 9830, Note_on_c, 0, 76, 0
1, 9868, Note_on_c, 0, 69, 0
1, 9888, Note_on_c, 0, 59, 80
1, 9888, Note_on_c, 0, 71, 80
1, 9888, Note_on_c, 0, 74, 80
1, 9964, Note_on_c, 0, 74, 0
1, 9964, Note_on_c, 0, 71, 0
1, 9964, Note_on_c, 0, 59, 0
1, 9984, Note_on_c, 0, 67, 80
1, 10060, Note_on_c, 0, 67, 0
1, 10080, Note_on_c, 0, 67, 80
1, 10156, Note_on_c, 0, 67, 0
1, 10176, Note_on_c, 0, 67, 80
1, 10252, Note_on_c, 0, 67, 0
1, 10272, Note_on_c, 0, 67, 80
1, 10348, Note_on_c, 0, 67, 0
1, 10368, Note_on_c, 0, 72, 80
1, 10464, Note_on_c, 0, 64, 80
1, 10464, Note_on_c, 0, 57, 80
1, 10521, Note_on_c, 0, 72, 0
1, 10540, Note_on_c, 0, 64, 0
1, 10540, Note_on_c, 0, 57, 0
1, 10560, Note_on_c, 0, 66, 80
1, 10636, Note_on_c, 0, 66, 0
1, 10656, Note_on_c, 0, 55, 80
1, 10656, Note_on_c, 0, 67, 80
1, 10656, Note_on_c, 0, 71, 80
1, 10732, Note_on_c, 0, 71, 0
1, 10732, Note_on_c, 0, 67, 0
1, 10732, Note_on_c, 0, 55, 0
1, 10752, Note_on_c, 0, 76, 80
1, 10848, Note_on_c, 0, 60, 80
1, 10905, Note_on_c, 0, 76, 0
1, 10924, Note_on_c, 0, 60, 0
1, 10944, Note_on_c, 0, 61, 80
1, 11040, Note_on_c, 0, 67, 80
1, 11097, Note_on_c, 0, 61, 0
1, 11116, Note_on_c, 0, 67, 0
1, 11136, Note_on_c, 0, 62, 80
1, 11136, Note_on_c, 0, 66, 80
1, 11212, Note_on_c, 0, 62, 0
1, 11232, Note_on_c, 0, 73, 80
1, 11308, Note_on_c, 0, 73, 0
1, 11316, Note_on_c, 0, 66, 0
1, 11328, Note_on_c, 0, 74, 80
1, 11424, Note_on_c, 0, 67, 80
1, 11424, Note_on_c, 0, 70, 80
1, 11500, Note_on_c, 0, 70, 0
1, 11500, Note_on_c, 0, 67, 0
1, 11508, Note_on_c, 0, 74, 0
1, 11520, Note_on_c, 0, 66, 80
1, 11520, Note_on_c, 0, 69, 80
1, 11616, Note_on_c, 0, 61, 80
1, 11692, Note_on_c, 0, 61, 0
1, 11700, Note_on_c, 0, 69, 0
1, 11700, Note_on_c, 0, 66, 0
1, 11712, Note_on_c, 0, 62, 80
1, 11808, Note_on_c, 0, 55, 80
1, 11808, Note_on_c, 0, 58, 80
1, 11865, Note_on_c, 0, 62, 0
1, 11884, Note_on_c, 0, 55, 0
1, 11884, Note_on_c, 0, 58, 0
1, 11904, Note_on_c, 0, 54, 80
1, 11904, Note_on_c, 0, 57, 80
1, 12000, Note_on_c, 0, 51, 80
1, 12000, Note_on_c, 0, 39, 80
1, 12057, Note_on_c, 0, 57, 0
1, 12057, Note_on_c, 0, 54, 0
1, 12076, Note_on_c, 0, 51, 0
1, 12076, Note_on_c, 0, 39, 0
1, 12096, Note_on_c, 0, 40, 80
1, 12096, Note_on_c, 0, 52, 80
1, 12172, Note_on_c, 0, 52, 0
1, 12172, Note_on_c, 0, 40, 0
1, 12192, Note_on_c, 0, 42, 80
1, 12192, Note_on_c, 0, 54, 80
1, 12268, Note_on_c, 0, 54, 0
1, 12268, Note_on_c, 0, 42, 0
1, 12288, Note_on_c, 0, 43, 80
1, 12288, Note_on_c, 0, 55, 80
1, 12364, Note_on_c, 0, 55, 0
1, 12364, Note_on_c, 0, 43, 0
1, 12384, Note_on_c, 0, 35, 80
1, 12384, Note_on_c, 0, 47, 80
1, 12460, Note_on_c, 0, 47, 0
1, 12460, Note_on_c, 0, 35, 0
1, 12480, Note_on_c, 0, 36, 80
1, 12480, Note_on_c, 0, 48, 80
1, 12556, Note_on_c, 0, 48, 0
1, 12556, Note_on_c, 0, 36, 0
1, 12576, Note_on_c, 0, 38, 80
1, 12576, Note_on_c, 0, 50, 80
1, 12652, Note_on_c, 0, 50, 0
1, 12652, Note_on_c, 0, 38, 0
1, 12672, Note_on_c, 0, 52, 80
1, 12672, Note_on_c, 0, 40, 80
1, 12748, Note_on_c, 0, 40, 0
1, 12748, Note_on_c, 0, 52, 0
1, 12768, Note_on_c, 0, 79, 80
1, 12768, Note_on_c, 0, 76, 80
1, 12806, Note_on_c, 0, 79, 0
1, 12816, Note_on_c, 0, 84, 80
1, 12844, Note_on_c, 0, 76, 0
1, 12854, Note_on_c, 0, 84, 0
1, 12864, Note_on_c, 0, 74, 80
1, 12864, Note_on_c, 0, 83, 80
1, 12902, Note_on_c, 0, 83, 0
1, 12912, Note_on_c, 0, 78, 80
1, 12940, Note_on_c, 0, 74, 0
1, 12950, Note_on_c, 0, 78, 0
1, 12960, Note_on_c, 0, 72, 80
1, 12960, Note_on_c, 0, 76, 80
1, 12998, Note_on_c, 0, 76, 0
1, 13008, Note_on_c, 0, 81, 80
1, 13036, Note_on_c, 0, 72, 0
1, 13046, Note_on_c, 0, 81, 0
1, 13056, Note_on_c, 0, 71, 80
1, 13056, Note_on_c, 0, 79, 80
1, 13094, Note_on_c, 0, 79, 0
1, 13104, Note_on_c, 0, 74, 80
1, 13132, Note_on_c, 0, 71, 0
1, 13142, Note_on_c, 0, 74, 0
1, 13152, Note_on_c, 0, 72, 80
1, 13152, Note_on_c, 0, 69, 80
1, 13190, Note_on_c, 0, 72, 0
1, 13200, Note_on_c, 0, 78, 80
1, 13228, Note_on_c, 0, 69, 0
1, 13238, Note_on_c, 0, 78, 0
1, 13248, Note_on_c, 0, 67, 80
1, 13248, Note_on_c, 0, 76, 80
1, 13286, Note_on_c, 0, 76, 0
1, 13296, Note_on_c, 0, 71, 80
1, 13324, Note_on_c, 0, 67, 0
1, 13334, Note_on_c, 0, 71, 0
1, 13344, Note_on_c, 0, 66, 80
1, 13344, Note_on_c, 0, 69, 80
1, 13382, Note_on_c, 0, 69, 0
1, 13392, Note_on_c, 0, 74, 80
1, 13420, Note_on_c, 0, 66, 0
1, 13430, Note_on_c, 0, 74, 0
1, 13440, Note_on_c, 0, 64, 80
1, 13440, Note_on_c, 0, 72, 80
1, 13478, Note_on_c, 0, 72, 0
1, 13488, Note_on_c, 0, 67, 80
1, 13516, Note_on_c, 0, 64, 0
1, 13526, Note_on_c, 0, 67, 0
1, 13536, Note_on_c, 0, 66, 80
1, 13536, Note_on_c, 0, 62, 80
1, 13574, Note_on_c, 0, 66, 0
1, 13584, Note_on_c, 0, 71, 80
1, 13612, Note_on_c, 0, 62, 0
1, 13622, Note_on_c, 0, 71, 0
1, 13632, Note_on_c, 0, 60, 80
1, 13632, Note_on_c, 0, 69, 80
1, 13670, Note_on_c, 0, 69, 0
1, 13680, Note_on_c, 0, 64, 80
1, 13708, Note_on_c, 0, 60, 0
1, 13718, Note_on_c, 0, 64, 0
1, 13728, Note_on_c, 0, 59, 80
1, 13728, Note_on_c, 0, 62, 80
1, 13766, Note_on_c, 0, 62, 0
1, 13776, Note_on_c, 0, 67, 80
1, 13804, Note_on_c, 0, 59, 0
1, 13814, Note_on_c, 0, 67, 0
1, 13824, Note_on_c, 0, 48, 80
1, 13920, Note_on_c, 0, 76, 80
1, 13920, Note_on_c, 0, 72, 80
1, 13977, Note_on_c, 0, 48, 0
1, 13996, Note_on_c, 0, 76, 0
1, 13996, Note_on_c, 0, 72, 0
1, 14016, Note_on_c, 0, 50, 80
1, 14016, Note_on_c, 0, 71, 80
1, 14016, Note_on_c, 0, 74, 80
1, 14092, Note_on_c, 0, 74, 0
1, 14092, Note_on_c, 0, 71, 0
1, 14112, Note_on_c, 0, 66, 80
1, 14112, Note_on_c, 0, 69, 80
1, 14169, Note_on_c, 0, 50, 0
1, 14188, Note_on_c, 0, 66, 0
1, 14188, Note_on_c, 0, 69, 0
1, 14208, Note_on_c, 0, 43, 80
1, 14208, Note_on_c, 0, 67, 80
1, 14246, Note_on_c, 0, 43, 0
1, 14256, Note_on_c, 0, 55, 80
1, 14294, Note_on_c, 0, 55, 0
1, 14304, Note_on_c, 0, 54, 80
1, 14342, Note_on_c, 0, 54, 0
1, 14352, Note_on_c, 0, 55, 80
1, 14361, Note_on_c, 0, 67, 0
1, 14388, Note_on_c, 0, 60, 80
1, 14390, Note_on_c, 0, 55, 0
1, 14400, Note_on_c, 0, 52, 80
1, 14400, Note_on_c, 0, 72, 80
1, 14433, Note_on_c, 0, 60, 0
1, 14438, Note_on_c, 0, 52, 0
1, 14448, Note_on_c, 0, 55, 80
1, 14486, Note_on_c, 0, 55, 0
1, 14490, Note_on_c, 0, 72, 0
1, 14496, Note_on_c, 0, 54, 80
1, 14534, Note_on_c, 0, 54, 0
1, 14544, Note_on_c, 0, 55, 80
1, 14582, Note_on_c, 0, 55, 0
1, 14592, Note_on_c, 0, 50, 80
1, 14592, Note_on_c, 0, 59, 80
1, 14592, Note_on_c, 0, 71, 80
1, 14630, Note_on_c, 0, 50, 0
1, 14637, Note_on_c, 0, 59, 0
1, 14640, Note_on_c, 0, 55, 80
1, 14668, Note_on_c, 0, 71, 0
1, 14678, Note_on_c, 0, 55, 0
1, 14688, Note_on_c, 0, 54, 80
1, 14726, Note_on_c, 0, 54, 0
1, 14736, Note_on_c, 0, 55, 80
1, 14772, Note_on_c, 0, 57, 80
1, 14774, Note_on_c, 0, 55, 0
1, 14784, Note_on_c, 0, 57, 0
1, 14784, Note_on_c, 0, 48, 80
1, 14784, Note_on_c, 0, 69, 80
1, 14822, Note_on_c, 0, 48, 0
1, 14832, Note_on_c, 0, 55, 80
1, 14860, Note_on_c, 0, 69, 0
1, 14870, Note_on_c, 0, 55, 0
1, 14880, Note_on_c, 0, 54, 80
1, 14918, Note_on_c, 0, 54, 0
1, 14928, Note_on_c, 0, 55, 80
1, 14966, Note_on_c, 0, 55, 0
1, 14976, Note_on_c, 0, 47, 80
1, 14976, Note_on_c, 0, 55, 80
1, 14976, Note_on_c, 0, 67, 80
1, 14988, Note_on_c, 0, 55, 0
1, 15014, Note_on_c, 0, 47, 0
1, 15024, Note_on_c, 0, 55, 80
1, 15052, Note_on_c, 0, 67, 0
1, 15062, Note_on_c, 0, 55, 0
1, 15072, Note_on_c, 0, 54, 80
1, 15108, Note_on_c, 0, 60, 80
1, 15110, Note_on_c, 0, 54, 0
1, 15120, Note_on_c, 0, 55, 80
1, 15144, Note_on_c, 0, 72, 80
1, 15153, Note_on_c, 0, 60, 0
1, 15158, Note_on_c, 0, 55, 0
1, 15168, Note_on_c, 0, 48, 80
1, 15206, Note_on_c, 0, 48, 0
1, 15216, Note_on_c, 0, 55, 80
1, 15220, Note_on_c, 0, 72, 0
1, 15240, Note_on_c, 0, 72, 80
1, 15254, Note_on_c, 0, 55, 0
1, 15264, Note_on_c, 0, 54, 80
1, 15302, Note_on_c, 0, 54, 0
1, 15312, Note_on_c, 0, 55, 80
1, 15316, Note_on_c, 0, 72, 0
1, 15350, Note_on_c, 0, 55, 0
1, 15360, Note_on_c, 0, 50, 80
1, 15360, Note_on_c, 0, 59, 80
1, 15360, Note_on_c, 0, 71, 80
1, 15372, Note_on_c, 0, 59, 0
1, 15398, Note_on_c, 0, 50, 0
1, 15408, Note_on_c, 0, 55, 80
1, 15436, Note_on_c, 0, 71, 0
1, 15446, Note_on_c, 0, 55, 0
1, 15456, Note_on_c, 0, 71, 80
1, 15456, Note_on_c, 0, 54, 80
1, 15494, Note_on_c, 0, 54, 0
1, 15504, Note_on_c, 0, 55, 80
1, 15532, Note_on_c, 0, 71, 0
1, 15540, Note_on_c, 0, 57, 80
1, 15542, Note_on_c, 0, 55, 0
1, 15552, Note_on_c, 0, 57, 0
1, 15552, Note_on_c, 0, 48, 80
1, 15552, Note_on_c, 0, 69, 80
1, 15590, Note_on_c, 0, 48, 0
1, 15600, Note_on_c, 0, 55, 80
1, 15628, Note_on_c, 0, 69, 0
1, 15638, Note_on_c, 0, 55, 0
1, 15648, Note_on_c, 0, 54, 80
1, 15648, Note_on_c, 0, 69, 80
1, 15686, Note_on_c, 0, 54, 0
1, 15696, Note_on_c, 0, 55, 80
1, 15724, Note_on_c, 0, 69, 0
1, 15734, Note_on_c, 0, 55, 0
1, 15744, Note_on_c, 0, 62, 80
1, 15744, Note_on_c, 0, 47, 80
1, 15744, Note_on_c, 0, 74, 80
1, 15756, Note_on_c, 0, 62, 0
1, 15782, Note_on_c, 0, 47, 0
1, 15792, Note_on_c, 0, 55, 80
1, 15820, Note_on_c, 0, 74, 0
1, 15830, Note_on_c, 0, 55, 0
1, 15840, Note_on_c, 0, 54, 80
1, 15876, Note_on_c, 0, 71, 80
1, 15878, Note_on_c, 0, 54, 0
1, 15888, Note_on_c, 0, 71, 0
1, 15888, Note_on_c, 0, 72, 80
1, 15888, Note_on_c, 0, 55, 80
1, 15926, Note_on_c, 0, 55, 0
1, 15936, Note_on_c, 0, 64, 80
1, 15964, Note_on_c, 0, 72, 0
1, 15974, Note_on_c, 0, 64, 0
1, 15984, Note_on_c, 0, 67, 80
1, 15984, Note_on_c, 0, 72, 80
1, 16022, Note_on_c, 0, 67, 0
1, 16032, Note_on_c, 0, 66, 80
1, 16060, Note_on_c, 0, 72, 0
1, 16070, Note_on_c, 0, 66, 0
1, 16080, Note_on_c, 0, 67, 80
1, 16118, Note_on_c, 0, 67, 0
1, 16128, Note_on_c, 0, 62, 80
1, 16128, Note_on_c, 0, 70, 80
1, 16128, Note_on_c, 0, 71, 80
1, 16140, Note_on_c, 0, 70, 0
1, 16166, Note_on_c, 0, 62, 0
1, 16176, Note_on_c, 0, 67, 80
1, 16204, Note_on_c, 0, 71, 0
1, 16214, Note_on_c, 0, 67, 0
1, 16224, Note_on_c, 0, 71, 80
1, 16224, Note_on_c, 0, 66, 80
1, 16262, Note_on_c, 0, 66, 0
1, 16272, Note_on_c, 0, 67, 80
1, 16300, Note_on_c, 0, 71, 0
1, 16308, Note_on_c, 0, 68, 80
1, 16310, Note_on_c, 0, 67, 0
1, 16320, Note_on_c, 0, 68, 0
1, 16320, Note_on_c, 0, 60, 80
1, 16320, Note_on_c, 0, 69, 80
1, 16358, Note_on_c, 0, 60, 0
1, 16368, Note_on_c, 0, 67, 80
1, 16396, Note_on_c, 0, 69, 0
1, 16406, Note_on_c, 0, 67, 0
1, 16416, Note_on_c, 0, 66, 80
1, 16416, Note_on_c, 0, 69, 80
1, 16454, Note_on_c, 0, 66, 0
1, 16464, Note_on_c, 0, 67, 80
1, 16492, Note_on_c, 0, 69, 0
1, 16502, Note_on_c, 0, 67, 0
1, 16512, Note_on_c, 0, 73, 80
1, 16512, Note_on_c, 0, 59, 80
1, 16512, Note_on_c, 0, 74, 80
1, 16524, Note_on_c, 0, 73, 0
1, 16550, Note_on_c, 0, 59, 0
1, 16560, Note_on_c, 0, 67, 80
1, 16588, Note_on_c, 0, 74, 0
1, 16598, Note_on_c, 0, 67, 0
1, 16608, Note_on_c, 0, 66, 80
1, 16646, Note_on_c, 0, 66, 0
1, 16656, Note_on_c, 0, 72, 80
1, 16656, Note_on_c, 0, 67, 80
1, 16694, Note_on_c, 0, 67, 0
1, 16694, Note_on_c, 0, 72, 0
1, 16704, Note_on_c, 0, 74, 80
1, 16704, Note_on_c, 0, 69, 80
1, 16704, Note_on_c, 0, 64, 80
1, 16704, Note_on_c, 0, 60, 80
1, 16742, Note_on_c, 0, 74, 0
1, 16752, Note_on_c, 0, 76, 80
1, 16790, Note_on_c, 0, 76, 0
1, 16800, Note_on_c, 0, 74, 80
1, 16838, Note_on_c, 0, 74, 0
1, 16857, Note_on_c, 0, 69, 0
1, 16857, Note_on_c, 0, 64, 0
1, 16857, Note_on_c, 0, 60, 0
1, 16896, Note_on_c, 0, 62, 80
1, 16896, Note_on_c, 0, 67, 80
1, 16896, Note_on_c, 0, 71, 80
1, 16934, Note_on_c, 0, 71, 0
1, 16944, Note_on_c, 0, 72, 80
1, 16982, Note_on_c, 0, 72, 0
1, 16992, Note_on_c, 0, 74, 80
1, 17030, Note_on_c, 0, 74, 0
1, 17040, Note_on_c, 0, 71, 80
1, 17049, Note_on_c, 0, 67, 0
1, 17049, Note_on_c, 0, 62, 0
1, 17078, Note_on_c, 0, 71, 0
1, 17088, Note_on_c, 0, 62, 80
1, 17088, Note_on_c, 0, 66, 80
1, 17088, Note_on_c, 0, 69, 80
1, 17126, Note_on_c, 0, 69, 0
1, 17136, Note_on_c, 0, 71, 80
1, 17174, Note_on_c, 0, 71, 0
1, 17184, Note_on_c, 0, 72, 80
1, 17222, Note_on_c, 0, 72, 0
1, 17232, Note_on_c, 0, 69, 80
1, 17241, Note_on_c, 0, 66, 0
1, 17241, Note_on_c, 0, 62, 0
1, 17270, Note_on_c, 0, 69, 0
1, 17280, Note_on_c, 0, 67, 80
1, 17280, Note_on_c, 0, 55, 80
1, 17280, Note_on_c, 0, 67, 80
1, 17318, Note_on_c, 0, 67, 0
1, 17328, Note_on_c, 0, 79, 80
1, 17366, Note_on_c, 0, 79, 0
1, 17376, Note_on_c, 0, 83, 80
1, 17414, Note_on_c, 0, 83, 0
1, 17424, Note_on_c, 0, 81, 80
1, 17433, Note_on_c, 0, 55, 0
1, 17433, Note_on_c, 0, 67, 0
1, 17462, Note_on_c, 0, 81, 0
1, 17472, Note_on_c, 0, 79, 80
1, 17510, Note_on_c, 0, 79, 0
1, 17520, Note_on_c, 0, 78, 80
1, 17558, Note_on_c, 0, 78, 0
1, 17568, Note_on_c, 0, 76, 80
1, 17606, Note_on_c, 0, 76, 0
1, 17616, Note_on_c, 0, 74, 80
1, 17654, Note_on_c, 0, 74, 0
1, 17664, Note_on_c, 0, 67, 80
1, 17664, Note_on_c, 0, 73, 80
1, 17664, Note_on_c, 0, 64, 80
1, 17817, Note_on_c, 0, 64, 0
1, 17817, Note_on_c, 0, 73, 0
1, 17817, Note_on_c, 0, 67, 0
1, 17856, Note_on_c, 0, 69, 80
1, 17856, Note_on_c, 0, 66, 80
1, 17856, Note_on_c, 0, 72, 80
1, 17932, Note_on_c, 0, 72, 0
1, 17932, Note_on_c, 0, 66, 0
1, 17932, Note_on_c, 0, 69, 0
1, 17952, Note_on_c, 0, 67, 80
1, 17952, Note_on_c, 0, 71, 80
1, 18028, Note_on_c, 0, 71, 0
1, 18028, Note_on_c, 0, 67, 0
1, 18048, Note_on_c, 0, 64, 80
1, 18048, Note_on_c, 0, 69, 80
1, 18048, Note_on_c, 0, 60, 80
1, 18124, Note_on_c, 0, 60, 0
1, 18124, Note_on_c, 0, 69, 0
1, 18124, Note_on_c, 0, 64, 0
1, 18240, Note_on_c, 0, 60, 80
1, 18240, Note_on_c, 0, 76, 80
1, 18278, Note_on_c, 0, 76, 0
1, 18278, Note_on_c, 0, 60, 0
1, 18288, Note_on_c, 0, 69, 80
1, 18288, Note_on_c, 0, 84, 80
1, 18326, Note_on_c, 0, 84, 0
1, 18326, Note_on_c, 0, 69, 0
1, 18336, Note_on_c, 0, 68, 80
1, 18336, Note_on_c, 0, 83, 80
1, 18374, Note_on_c, 0, 83, 0
1, 18374, Note_on_c, 0, 68, 0
1, 18384, Note_on_c, 0, 69, 80
1, 18384, Note_on_c, 0, 84, 80
1, 18422, Note_on_c, 0, 84, 0
1, 18422, Note_on_c, 0, 69, 0
1, 18432, Note_on_c, 0, 74, 80
1, 18432, Note_on_c, 0, 62, 80
1, 18470, Note_on_c, 0, 62, 0
1, 18470, Note_on_c, 0, 74, 0
1, 18480, Note_on_c, 0, 67, 80
1, 18480, Note_on_c, 0, 83, 80
1, 18518, Note_on_c, 0, 83, 0
1, 18518, Note_on_c, 0, 67, 0
1, 18528, Note_on_c, 0, 81, 80
1, 18528, Note_on_c, 0, 66, 80
1, 18566, Note_on_c, 0, 66, 0
1, 18566, Note_on_c, 0, 81, 0
1, 18576, Note_on_c, 0, 67, 80
1, 18576, Note_on_c, 0, 83, 80
1, 18614, Note_on_c, 0, 83, 0
1, 18614, Note_on_c, 0, 67, 0
1, 18624, Note_on_c, 0, 62, 80
1, 18624, Note_on_c, 0, 74, 80
1, 18662, Note_on_c, 0, 74, 0
1, 18662, Note_on_c, 0, 62, 0
1, 18672, Note_on_c, 0, 66, 80
1, 18672, Note_on_c, 0, 81, 80
1, 18710, Note_on_c, 0, 81, 0
1, 18710, Note_on_c, 0, 66, 0
1, 18720, Note_on_c, 0, 64, 80
1, 18720, Note_on_c, 0, 79, 80
1, 18758, Note_on_c, 0, 79, 0
1, 18758, Note_on_c, 0, 64, 0
1, 18768, Note_on_c, 0, 66, 80
1, 18768, Note_on_c, 0, 81, 80
1, 18806, Note_on_c, 0, 81, 0
1, 18806, Note_on_c, 0, 66, 0
1, 18816, Note_on_c, 0, 67, 80
1, 18816, Note_on_c, 0, 79, 80
1, 18854, Note_on_c, 0, 79, 0
1, 18864, Note_on_c, 0, 67, 80
1, 18902, Note_on_c, 0, 67, 0
1, 18912, Note_on_c, 0, 71, 80
1, 18950, Note_on_c, 0, 71, 0
1, 18960, Note_on_c, 0, 69, 80
1, 18969, Note_on_c, 0, 67, 0
1, 18998, Note_on_c, 0, 69, 0
1, 19008, Note_on_c, 0, 67, 80
1, 19046, Note_on_c, 0, 67, 0
1, 19056, Note_on_c, 0, 66, 80
1, 19094, Note_on_c, 0, 66, 0
1, 19104, Note_on_c, 0, 64, 80
1, 19142, Note_on_c, 0, 64, 0
1, 19152, Note_on_c, 0, 62, 80
1, 19190, Note_on_c, 0, 62, 0
1, 19200, Note_on_c, 0, 52, 80
1, 19200, Note_on_c, 0, 55, 80
1, 19200, Note_on_c, 0, 61, 80
1, 19353, Note_on_c, 0, 61, 0
1, 19353, Note_on_c, 0, 55, 0
1, 19353, Note_on_c, 0, 52, 0
1, 19392, Note_on_c, 0, 54, 80
1, 19392, Note_on_c, 0, 57, 80
1, 19392, Note_on_c, 0, 60, 80
1, 19468, Note_on_c, 0, 60, 0
1, 19468, Note_on_c, 0, 57, 0
1, 19468, Note_on_c, 0, 54, 0
1, 19488, Note_on_c, 0, 55, 80
1, 19488, Note_on_c, 0, 59, 80
1, 19564, Note_on_c, 0, 59, 0
1, 19564, Note_on_c, 0, 55, 0
1, 19584, Note_on_c, 0, 48, 80
1, 19584, Note_on_c, 0, 57, 80
1, 19584, Note_on_c, 0, 52, 80
1, 19660, Note_on_c, 0, 52, 0
1, 19660, Note_on_c, 0, 57, 0
1, 19660, Note_on_c, 0, 48, 0
1, 19776, Note_on_c, 0, 48, 80
1, 19776, Note_on_c, 0, 64, 80
1, 19814, Note_on_c, 0, 64, 0
1, 19814, Note_on_c, 0, 48, 0
1, 19824, Note_on_c, 0, 57, 80
1, 19824, Note_on_c, 0, 72, 80
1, 19862, Note_on_c, 0, 72, 0
1, 19862, Note_on_c, 0, 57, 0
1, 19872, Note_on_c, 0, 56, 80
1, 19872, Note_on_c, 0, 71, 80
1, 19910, Note_on_c, 0, 71, 0
1, 19910, Note_on_c, 0, 56, 0
1, 19920, Note_on_c, 0, 57, 80
1, 19920, Note_on_c, 0, 72, 80
1, 19958, Note_on_c, 0, 72, 0
1, 19958, Note_on_c, 0, 57, 0
1, 19968, Note_on_c, 0, 62, 80
1, 19968, Note_on_c, 0, 50, 80
1, 20006, Note_on_c, 0, 50, 0
1, 20006, Note_on_c, 0, 62, 0
1, 20016, Note_on_c, 0, 71, 80
1, 20016, Note_on_c, 0, 55, 80
1, 20054, Note_on_c, 0, 55, 0
1, 20054, Note_on_c, 0, 71, 0
1, 20064, Note_on_c, 0, 54, 80
1, 20064, Note_on_c, 0, 69, 80
1, 20102, Note_on_c, 0, 69, 0
1, 20102, Note_on_c, 0, 54, 0
1, 20112, Note_on_c, 0, 71, 80
1, 20112, Note_on_c, 0, 55, 80
1, 20150, Note_on_c, 0, 55, 0
1, 20150, Note_on_c, 0, 71, 0
1, 20160, Note_on_c, 0, 50, 80
1, 20160, Note_on_c, 0, 62, 80
1, 20198, Note_on_c, 0, 62, 0
1, 20198, Note_on_c, 0, 50, 0
1, 20208, Note_on_c, 0, 54, 80
1, 20208, Note_on_c, 0, 69, 80
1, 20246, Note_on_c, 0, 69, 0
1, 20246, Note_on_c, 0, 54, 0
1, 20256, Note_on_c, 0, 52, 80
1, 20256, Note_on_c, 0, 67, 80
1, 20294, Note_on_c, 0, 67, 0
1, 20294, Note_on_c, 0, 52, 0
1, 20304, Note_on_c, 0, 54, 80
1, 20304, Note_on_c, 0, 69, 80
1, 20342, Note_on_c, 0, 69, 0
1, 20342, Note_on_c, 0, 54, 0
1, 20352, Note_on_c, 0, 67, 80
1, 20352, Note_on_c, 0, 55, 80
1, 20390, Note_on_c, 0, 67, 0
1, 20400, Note_on_c, 0, 62, 80
1, 20438, Note_on_c, 0, 62, 0
1, 20448, Note_on_c, 0, 67, 80
1, 20486, Note_on_c, 0, 67, 0
1, 20496, Note_on_c, 0, 71, 80
1, 20505, Note_on_c, 0, 55, 0
1, 20534, Note_on_c, 0, 71, 0
1, 20544, Note_on_c, 0, 50, 80
1, 20544, Note_on_c, 0, 57, 80
1, 20544, Note_on_c, 0, 74, 80
1, 20582, Note_on_c, 0, 74, 0
1, 20592, Note_on_c, 0, 72, 80
1, 20630, Note_on_c, 0, 72, 0
1, 20640, Note_on_c, 0, 69, 80
1, 20678, Note_on_c, 0, 69, 0
1, 20688, Note_on_c, 0, 66, 80
1, 20697, Note_on_c, 0, 57, 0
1, 20697, Note_on_c, 0, 50, 0
1, 20726, Note_on_c, 0, 66, 0
1, 20736, Note_on_c, 0, 55, 80
1, 20736, Note_on_c, 0, 59, 80
1, 20736, Note_on_c, 0, 67, 80
1, 20774, Note_on_c, 0, 67, 0
1, 20784, Note_on_c, 0, 79, 80
1, 20822, Note_on_c, 0, 79, 0
1, 20832, Note_on_c, 0, 74, 80
1, 20870, Note_on_c, 0, 74, 0
1, 20880, Note_on_c, 0, 71, 80
1, 20889, Note_on_c, 0, 59, 0
1, 20889, Note_on_c, 0, 55, 0
1, 20918, Note_on_c, 0, 71, 0
1, 20928, Note_on_c, 0, 50, 80
1, 20928, Note_on_c, 0, 57, 80
1, 20928, Note_on_c, 0, 60, 80
1, 20928, Note_on_c, 0, 74, 80
1, 20966, Note_on_c, 0, 74, 0
1, 20976, Note_on_c, 0, 72, 80
1, 21014, Note_on_c, 0, 72, 0
1, 21024, Note_on_c, 0, 69, 80
1, 21062, Note_on_c, 0, 69, 0
1, 21072, Note_on_c, 0, 66, 80
1, 21081, Note_on_c, 0, 60, 0
1, 21081, Note_on_c, 0, 57, 0
1, 21081, Note_on_c, 0, 50, 0
1, 21110, Note_on_c, 0, 66, 0
1, 21120, Note_on_c, 0, 55, 80
1, 21120, Note_on_c, 0, 59, 80
1, 21120, Note_on_c, 0, 67, 80
1, 21273, Note_on_c, 0, 67, 0
1, 21273, Note_on_c, 0, 59, 0
1, 21273, Note_on_c, 0, 55, 0
1, 21408, Note_on_c, 0, 74, 80
1, 21484, Note_on_c, 0, 74, 0
1, 21504, Note_on_c, 0, 72, 80
1, 21600, Note_on_c, 0, 64, 80
1, 21600, Note_on_c, 0, 67, 80
1, 21676, Note_on_c, 0, 67, 0
1, 21676, Note_on_c, 0, 64, 0
1, 21696, Note_on_c, 0, 62, 80
1, 21696, Note_on_c, 0, 65, 80
1, 21772, Note_on_c, 0, 65, 0
1, 21772, Note_on_c, 0, 62, 0
1, 21792, Note_on_c, 0, 60, 80
1, 21792, Note_on_c, 0, 64, 80
1, 21811, Note_on_c, 0, 72, 0
1, 21868, Note_on_c, 0, 60, 0
1, 21868, Note_on_c, 0, 64, 0
1, 21888, Note_on_c, 0, 77, 80
1, 21984, Note_on_c, 0, 59, 80
1, 21984, Note_on_c, 0, 62, 80
1, 22060, Note_on_c, 0, 62, 0
1, 22060, Note_on_c, 0, 59, 0
1, 22080, Note_on_c, 0, 57, 80
1, 22080, Note_on_c, 0, 60, 80
1, 22156, Note_on_c, 0, 60, 0
1, 22156, Note_on_c, 0, 57, 0
1, 22176, Note_on_c, 0, 55, 80
1, 22176, Note_on_c, 0, 59, 80
1, 22195, Note_on_c, 0, 77, 0
1, 22252, Note_on_c, 0, 55, 0
1, 22252, Note_on_c, 0, 59, 0
1, 22272, Note_on_c, 0, 60, 80
1, 22272, Note_on_c, 0, 76, 80
1, 22310, Note_on_c, 0, 76, 0
1, 22320, Note_on_c, 0, 79, 80
1, 22348, Note_on_c, 0, 60, 0
1, 22358, Note_on_c, 0, 79, 0
1, 22368, Note_on_c, 0, 77, 80
1, 22368, Note_on_c, 0, 72, 80
1, 22406, Note_on_c, 0, 77, 0
1, 22416, Note_on_c, 0, 76, 80
1, 22444, Note_on_c, 0, 72, 0
1, 22454, Note_on_c, 0, 76, 0
1, 22464, Note_on_c, 0, 65, 80
1, 22464, Note_on_c, 0, 81, 80
1, 22502, Note_on_c, 0, 81, 0
1, 22512, Note_on_c, 0, 77, 80
1, 22540, Note_on_c, 0, 65, 0
1, 22550, Note_on_c, 0, 77, 0
1, 22560, Note_on_c, 0, 66, 80
1, 22560, Note_on_c, 0, 74, 80
1, 22598, Note_on_c, 0, 74, 0
1, 22608, Note_on_c, 0, 72, 80
1, 22636, Note_on_c, 0, 66, 0
1, 22646, Note_on_c, 0, 72, 0
1, 22656, Note_on_c, 0, 67, 80
1, 22656, Note_on_c, 0, 71, 80
1, 22694, Note_on_c, 0, 71, 0
1, 22704, Note_on_c, 0, 72, 80
1, 22742, Note_on_c, 0, 72, 0
1, 22752, Note_on_c, 0, 74, 80
1, 22790, Note_on_c, 0, 74, 0
1, 22800, Note_on_c, 0, 71, 80
1, 22809, Note_on_c, 0, 67, 0
1, 22838, Note_on_c, 0, 71, 0
1, 22848, Note_on_c, 0, 55, 80
1, 22848, Note_on_c, 0, 69, 80
1, 22886, Note_on_c, 0, 69, 0
1, 22896, Note_on_c, 0, 67, 80
1, 22934, Note_on_c, 0, 67, 0
1, 22944, Note_on_c, 0, 66, 80
1, 22982, Note_on_c, 0, 66, 0
1, 22992, Note_on_c, 0, 67, 80
1, 23001, Note_on_c, 0, 55, 0
1, 23030, Note_on_c, 0, 67, 0
1, 23040, Note_on_c, 0, 60, 80
1, 23136, Note_on_c, 0, 52, 80
1, 23136, Note_on_c, 0, 55, 80
1, 23212, Note_on_c, 0, 55, 0
1, 23212, Note_on_c, 0, 52, 0
1, 23232, Note_on_c, 0, 50, 80
1, 23232, Note_on_c, 0, 53, 80
1, 23308, Note_on_c, 0, 53, 0
1, 23308, Note_on_c, 0, 50, 0
1, 23328, Note_on_c, 0, 48, 80
1, 23328, Note_on_c, 0, 52, 80
1, 23347, Note_on_c, 0, 60, 0
1, 23404, Note_on_c, 0, 48, 0
1, 23404, Note_on_c, 0, 52, 0
1, 23424, Note_on_c, 0, 65, 80
1, 23520, Note_on_c, 0, 50, 80
1, 23520, Note_on_c, 0, 47, 80
1, 23596, Note_on_c, 0, 47, 0
1, 23596, Note_on_c, 0, 50, 0
1, 23616, Note_on_c, 0, 48, 80
1, 23616, Note_on_c, 0, 45, 80
1, 23692, Note_on_c, 0, 45, 0
1, 23692, Note_on_c, 0, 48, 0
1, 23712, Note_on_c, 0, 47, 80
1, 23712, Note_on_c, 0, 43, 80
1, 23731, Note_on_c, 0, 65, 0
1, 23788, Note_on_c, 0, 47, 0
1, 23788, Note_on_c, 0, 43, 0
1, 23808, Note_on_c, 0, 48, 80
1, 23808, Note_on_c, 0, 64, 80
1, 23846, Note_on_c, 0, 64, 0
1, 23856, Note_on_c, 0, 67, 80
1, 23884, Note_on_c, 0, 48, 0
1, 23894, Note_on_c, 0, 67, 0
1, 23904, Note_on_c, 0, 72, 80
1, 23904, Note_on_c, 0, 52, 80
1, 23942, Note_on_c, 0, 72, 0
1, 23952, Note_on_c, 0, 67, 80
1, 23980, Note_on_c, 0, 52, 0
1, 23990, Note_on_c, 0, 67, 0
1, 24000, Note_on_c, 0, 50, 80
1, 24000, Note_on_c, 0, 66, 80
1, 24038, Note_on_c, 0, 66, 0
1, 24048, Note_on_c, 0, 67, 80
1, 24076, Note_on_c, 0, 50, 0
1, 24086, Note_on_c, 0, 67, 0
1, 24096, Note_on_c, 0, 47, 80
1, 24096, Note_on_c, 0, 65, 80
1, 24134, Note_on_c, 0, 65, 0
1, 24144, Note_on_c, 0, 67, 80
1, 24172, Note_on_c, 0, 47, 0
1, 24182, Note_on_c, 0, 67, 0
1, 24192, Note_on_c, 0, 48, 80
1, 24192, Note_on_c, 0, 64, 80
1, 24230, Note_on_c, 0, 64, 0
1, 24240, Note_on_c, 0, 67, 80
1, 24268, Note_on_c, 0, 48, 0
1, 24278, Note_on_c, 0, 67, 0
1, 24288, Note_on_c, 0, 72, 80
1, 24288, Note_on_c, 0, 52, 80
1, 24326, Note_on_c, 0, 72, 0
1, 24336, Note_on_c, 0, 67, 80
1, 24364, Note_on_c, 0, 52, 0
1, 24374, Note_on_c, 0, 67, 0
1, 24384, Note_on_c, 0, 50, 80
1, 24384, Note_on_c, 0, 66, 80
1, 24422, Note_on_c, 0, 66, 0
1, 24432, Note_on_c, 0, 67, 80
1, 24460, Note_on_c, 0, 50, 0
1, 24470, Note_on_c, 0, 67, 0
1, 24480, Note_on_c, 0, 47, 80
1, 24480, Note_on_c, 0, 65, 80
1, 24518, Note_on_c, 0, 65, 0
1, 24528, Note_on_c, 0, 67, 80
1, 24556, Note_on_c, 0, 47, 0
1, 24566, Note_on_c, 0, 67, 0
1, 24576, Note_on_c, 0, 48, 80
1, 24576, Note_on_c, 0, 64, 80
1, 24614, Note_on_c, 0, 64, 0
1, 24624, Note_on_c, 0, 67, 80
1, 24652, Note_on_c, 0, 48, 0
1, 24662, Note_on_c, 0, 67, 0
1, 24672, Note_on_c, 0, 60, 80
1, 24672, Note_on_c, 0, 52, 80
1, 24710, Note_on_c, 0, 60, 0
1, 24720, Note_on_c, 0, 64, 80
1, 24748, Note_on_c, 0, 52, 0
1, 24758, Note_on_c, 0, 64, 0
1, 24768, Note_on_c, 0, 53, 80
1, 24768, Note_on_c, 0, 62, 80
1, 24806, Note_on_c, 0, 62, 0
1, 24816, Note_on_c, 0, 65, 80
1, 24844, Note_on_c, 0, 53, 0
1, 24854, Note_on_c, 0, 65, 0
1, 24864, Note_on_c, 0, 55, 80
1, 24864, Note_on_c, 0, 59, 80
1, 24902, Note_on_c, 0, 59, 0
1, 24912, Note_on_c, 0, 62, 80
1, 24940, Note_on_c, 0, 55, 0
1, 24950, Note_on_c, 0, 62, 0
1, 24960, Note_on_c, 0, 60, 80
1, 24960, Note_on_c, 0, 48, 80
1, 25036, Note_on_c, 0, 48, 0
1, 25056, Note_on_c, 0, 43, 80
1, 25113, Note_on_c, 0, 60, 0
1, 25132, Note_on_c, 0, 43, 0
1, 25152, Note_on_c, 0, 36, 80
1, 25248, Note_on_c, 0, 67, 80
1, 25267, Note_on_c, 0, 67, 0
1, 25272, Note_on_c, 0, 69, 80
1, 25291, Note_on_c, 0, 69, 0
1, 25296, Note_on_c, 0, 67, 80
1, 25305, Note_on_c, 0, 36, 0
1, 25315, Note_on_c, 0, 67, 0
1, 25320, Note_on_c, 0, 69, 80
1, 25339, Note_on_c, 0, 69, 0
1, 25344, Note_on_c, 0, 72, 80
1, 25344, Note_on_c, 0, 67, 80
1, 25344, Note_on_c, 0, 60, 80
1, 25344, Note_on_c, 0, 64, 80
1, 25382, Note_on_c, 0, 72, 0
1, 25392, Note_on_c, 0, 67, 80
1, 25430, Note_on_c, 0, 67, 0
1, 25440, Note_on_c, 0, 76, 80
1, 25478, Note_on_c, 0, 76, 0
1, 25488, Note_on_c, 0, 72, 80
1, 25497, Note_on_c, 0, 60, 0
1, 25497, Note_on_c, 0, 64, 0
1, 25497, Note_on_c, 0, 67, 0
1, 25526, Note_on_c, 0, 72, 0
1, 25536, Note_on_c, 0, 79, 80
1, 25574, Note_on_c, 0, 79, 0
1, 25584, Note_on_c, 0, 78, 80
1, 25622, Note_on_c, 0, 78, 0
1, 25632, Note_on_c, 0, 79, 80
1, 25670, Note_on_c, 0, 79, 0
1, 25680, Note_on_c, 0, 76, 80
1, 25718, Note_on_c, 0, 76, 0
1, 25728, Note_on_c, 0, 76, 80
1, 25728, Note_on_c, 0, 67, 80
1, 25728, Note_on_c, 0, 59, 80
1, 25728, Note_on_c, 0, 62, 80
1, 25766, Note_on_c, 0, 76, 0
1, 25776, Note_on_c, 0, 74, 80
1, 25814, Note_on_c, 0, 74, 0
1, 25824, Note_on_c, 0, 73, 80
1, 25862, Note_on_c, 0, 73, 0
1, 25872, Note_on_c, 0, 74, 80
1, 25881, Note_on_c, 0, 67, 0
1, 25881, Note_on_c, 0, 59, 0
1, 25881, Note_on_c, 0, 62, 0
1, 25910, Note_on_c, 0, 74, 0
1, 25920, Note_on_c, 0, 73, 80
1, 25958, Note_on_c, 0, 73, 0
1, 25968, Note_on_c, 0, 74, 80
1, 26006, Note_on_c, 0, 74, 0
1, 26016, Note_on_c, 0, 73, 80
1, 26054, Note_on_c, 0, 73, 0
1, 26064, Note_on_c, 0, 74, 80
1, 26102, Note_on_c, 0, 74, 0
1, 26112, Note_on_c, 0, 79, 80
1, 26112, Note_on_c, 0, 67, 80
1, 26112, Note_on_c, 0, 59, 80
1, 26112, Note_on_c, 0, 62, 80
1, 26150, Note_on_c, 0, 79, 0
1, 26160, Note_on_c, 0, 81, 80
1, 26198, Note_on_c, 0, 81, 0
1, 26208, Note_on_c, 0, 83, 80
1, 26246, Note_on_c, 0, 83, 0
1, 26256, Note_on_c, 0, 78, 80
1, 26265, Note_on_c, 0, 67, 0
1, 26265, Note_on_c, 0, 59, 0
1, 26265, Note_on_c, 0, 62, 0
1, 26294, Note_on_c, 0, 78, 0
1, 26304, Note_on_c, 0, 79, 80
1, 26342, Note_on_c, 0, 79, 0
1, 26352, Note_on_c, 0, 74, 80
1, 26390, Note_on_c, 0, 74, 0
1, 26400, Note_on_c, 0, 76, 80
1, 26438, Note_on_c, 0, 76, 0
1, 26448, Note_on_c, 0, 71, 80
1, 26486, Note_on_c, 0, 71, 0
1, 26496, Note_on_c, 0, 60, 80
1, 26496, Note_on_c, 0, 74, 80
1, 26496, Note_on_c, 0, 57, 80
1, 26496, Note_on_c, 0, 66, 80
1, 26534, Note_on_c, 0, 74, 0
1, 26544, Note_on_c, 0, 72, 80
1, 26582, Note_on_c, 0, 72, 0
1, 26592, Note_on_c, 0, 71, 80
1, 26630, Note_on_c, 0, 71, 0
1, 26640, Note_on_c, 0, 72, 80
1, 26649, Note_on_c, 0, 60, 0
1, 26649, Note_on_c, 0, 57, 0
1, 26649, Note_on_c, 0, 66, 0
1, 26678, Note_on_c, 0, 72, 0
1, 26688, Note_on_c, 0, 71, 80
1, 26726, Note_on_c, 0, 71, 0
1, 26736, Note_on_c, 0, 72, 80
1, 26774, Note_on_c, 0, 72, 0
1, 26784, Note_on_c, 0, 71, 80
1, 26822, Note_on_c, 0, 71, 0
1, 26832, Note_on_c, 0, 72, 80
1, 26870, Note_on_c, 0, 72, 0
1, 26880, Note_on_c, 0, 81, 80
1, 26880, Note_on_c, 0, 66, 80
1, 26880, Note_on_c, 0, 62, 80
1, 26918, Note_on_c, 0, 81, 0
1, 26928, Note_on_c, 0, 83, 80
1, 26966, Note_on_c, 0, 83, 0
1, 26976, Note_on_c, 0, 84, 80
1, 27014, Note_on_c, 0, 84, 0
1, 27024, Note_on_c, 0, 81, 80
1, 27062, Note_on_c, 0, 81, 0
1, 27072, Note_on_c, 0, 78, 80
1, 27110, Note_on_c, 0, 78, 0
1, 27120, Note_on_c, 0, 76, 80
1, 27158, Note_on_c, 0, 76, 0
1, 27168, Note_on_c, 0, 74, 80
1, 27187, Note_on_c, 0, 66, 0
1, 27187, Note_on_c, 0, 62, 0
1, 27206, Note_on_c, 0, 74, 0
1, 27216, Note_on_c, 0, 72, 80
1, 27254, Note_on_c, 0, 72, 0
1, 27264, Note_on_c, 0, 64, 80
1, 27264, Note_on_c, 0, 67, 80
1, 27264, Note_on_c, 0, 72, 80
1, 27302, Note_on_c, 0, 72, 0
1, 27312, Note_on_c, 0, 71, 80
1, 27350, Note_on_c, 0, 71, 0
1, 27360, Note_on_c, 0, 70, 80
1, 27398, Note_on_c, 0, 70, 0
1, 27408, Note_on_c, 0, 71, 80
1, 27417, Note_on_c, 0, 67, 0
1, 27417, Note_on_c, 0, 64, 0
1, 27446, Note_on_c, 0, 71, 0
1, 27456, Note_on_c, 0, 66, 80
1, 27456, Note_on_c, 0, 62, 80
1, 27456, Note_on_c, 0, 72, 80
1, 27494, Note_on_c, 0, 72, 0
1, 27504, Note_on_c, 0, 71, 80
1, 27542, Note_on_c, 0, 71, 0
1, 27552, Note_on_c, 0, 70, 80
1, 27590, Note_on_c, 0, 70, 0
1, 27600, Note_on_c, 0, 71, 80
1, 27609, Note_on_c, 0, 62, 0
1, 27609, Note_on_c, 0, 66, 0
1, 27638, Note_on_c, 0, 71, 0
1, 27648, Note_on_c, 0, 69, 80
1, 27648, Note_on_c, 0, 64, 80
1, 27648, Note_on_c, 0, 61, 80
1, 27686, Note_on_c, 0, 69, 0
1, 27696, Note_on_c, 0, 72, 80
1, 27734, Note_on_c, 0, 72, 0
1, 27744, Note_on_c, 0, 76, 80
1, 27782, Note_on_c, 0, 76, 0
1, 27792, Note_on_c, 0, 74, 80
1, 27830, Note_on_c, 0, 74, 0
1, 27840, Note_on_c, 0, 72, 80
1, 27878, Note_on_c, 0, 64, 0
1, 27878, Note_on_c, 0, 61, 0
1, 27878, Note_on_c, 0, 72, 0
1, 27888, Note_on_c, 0, 71, 80
1, 27926, Note_on_c, 0, 71, 0
1, 27936, Note_on_c, 0, 61, 80
1, 27936, Note_on_c, 0, 64, 80
1, 27936, Note_on_c, 0, 69, 80
1, 27974, Note_on_c, 0, 69, 0
1, 27984, Note_on_c, 0, 67, 80
1, 28012, Note_on_c, 0, 64, 0
1, 28012, Note_on_c, 0, 61, 0
1, 28022, Note_on_c, 0, 67, 0
1, 28032, Note_on_c, 0, 66, 80
1, 28032, Note_on_c, 0, 62, 80
1, 28070, Note_on_c, 0, 62, 0
1, 28080, Note_on_c, 0, 74, 80
1, 28108, Note_on_c, 0, 66, 0
1, 28118, Note_on_c, 0, 74, 0
1, 28128, Note_on_c, 0, 73, 80
1, 28166, Note_on_c, 0, 73, 0
1, 28176, Note_on_c, 0, 74, 80
1, 28214, Note_on_c, 0, 74, 0
1, 28224, Note_on_c, 0, 72, 80
1, 28224, Note_on_c, 0, 78, 80
1, 28262, Note_on_c, 0, 72, 0
1, 28272, Note_on_c, 0, 74, 80
1, 28300, Note_on_c, 0, 78, 0
1, 28310, Note_on_c, 0, 74, 0
1, 28320, Note_on_c, 0, 71, 80
1, 28320, Note_on_c, 0, 79, 80
1, 28358, Note_on_c, 0, 71, 0
1, 28368, Note_on_c, 0, 74, 80
1, 28396, Note_on_c, 0, 79, 0
1, 28406, Note_on_c, 0, 74, 0
1, 28416, Note_on_c, 0, 81, 80
1, 28416, Note_on_c, 0, 69, 80
1, 28454, Note_on_c, 0, 69, 0
1, 28464, Note_on_c, 0, 74, 80
1, 28492, Note_on_c, 0, 81, 0
1, 28502, Note_on_c, 0, 74, 0
1, 28512, Note_on_c, 0, 83, 80
1, 28512, Note_on_c, 0, 67, 80
1, 28550, Note_on_c, 0, 67, 0
1, 28560, Note_on_c, 0, 74, 80
1, 28588, Note_on_c, 0, 83, 0
1, 28598, Note_on_c, 0, 74, 0
1, 28608, Note_on_c, 0, 66, 80
1, 28608, Note_on_c, 0, 81, 80
1, 28608, Note_on_c, 0, 84, 80
1, 28646, Note_on_c, 0, 66, 0
1, 28656, Note_on_c, 0, 74, 80
1, 28684, Note_on_c, 0, 81, 0
1, 28684, Note_on_c, 0, 84, 0
1, 28694, Note_on_c, 0, 74, 0
1, 28704, Note_on_c, 0, 67, 80
1, 28704, Note_on_c, 0, 79, 80
1, 28704, Note_on_c, 0, 83, 80
1, 28742, Note_on_c, 0, 67, 0
1, 28752, Note_on_c, 0, 74, 80
1, 28780, Note_on_c, 0, 79, 0
1, 28780, Note_on_c, 0, 83, 0
1, 28790, Note_on_c, 0, 74, 0
1, 28800, Note_on_c, 0, 81, 80
1, 28800, Note_on_c, 0, 78, 80
1, 28800, Note_on_c, 0, 62, 80
1, 28838, Note_on_c, 0, 62, 0
1, 28848, Note_on_c, 0, 62, 80
1, 28876, Note_on_c, 0, 78, 0
1, 28876, Note_on_c, 0, 81, 0
1, 28886, Note_on_c, 0, 62, 0
1, 28896, Note_on_c, 0, 61, 80
1, 28934, Note_on_c, 0, 61, 0
1, 28944, Note_on_c, 0, 62, 80
1, 28982, Note_on_c, 0, 62, 0
1, 28992, Note_on_c, 0, 60, 80
1, 28992, Note_on_c, 0, 66, 80
1, 29030, Note_on_c, 0, 60, 0
1, 29040, Note_on_c, 0, 62, 80
1, 29068, Note_on_c, 0, 66, 0
1, 29078, Note_on_c, 0, 62, 0
1, 29088, Note_on_c, 0, 59, 80
1, 29088, Note_on_c, 0, 67, 80
1, 29107, Note_on_c, 0, 67, 0
1, 29112, Note_on_c, 0, 69, 80
1, 29126, Note_on_c, 0, 59, 0
1, 29131, Note_on_c, 0, 69, 0
1, 29136, Note_on_c, 0, 62, 80
1, 29136, Note_on_c, 0, 67, 80
1, 29155, Note_on_c, 0, 67, 0
1, 29160, Note_on_c, 0, 69, 80
1, 29174, Note_on_c, 0, 62, 0
1, 29179, Note_on_c, 0, 69, 0
1, 29184, Note_on_c, 0, 69, 80
1, 29184, Note_on_c, 0, 57, 80
1, 29222, Note_on_c, 0, 57, 0
1, 29232, Note_on_c, 0, 62, 80
1, 29260, Note_on_c, 0, 69, 0
1, 29270, Note_on_c, 0, 62, 0
1, 29280, Note_on_c, 0, 55, 80
1, 29280, Note_on_c, 0, 71, 80
1, 29299, Note_on_c, 0, 71, 0
1, 29304, Note_on_c, 0, 72, 80
1, 29318, Note_on_c, 0, 55, 0
1, 29323, Note_on_c, 0, 72, 0
1, 29328, Note_on_c, 0, 71, 80
1, 29328, Note_on_c, 0, 62, 80
1, 29347, Note_on_c, 0, 71, 0
1, 29352, Note_on_c, 0, 72, 80
1, 29366, Note_on_c, 0, 62, 0
1, 29371, Note_on_c, 0, 72, 0
1, 29376, Note_on_c, 0, 54, 80
1, 29376, Note_on_c, 0, 69, 80
1, 29376, Note_on_c, 0, 72, 80
1, 29414, Note_on_c, 0, 54, 0
1, 29424, Note_on_c, 0, 62, 80
1, 29452, Note_on_c, 0, 69, 0
1, 29452, Note_on_c, 0, 72, 0
1, 29462, Note_on_c, 0, 62, 0
1, 29472, Note_on_c, 0, 55, 80
1, 29472, Note_on_c, 0, 67, 80
1, 29472, Note_on_c, 0, 71, 80
1, 29510, Note_on_c, 0, 55, 0
1, 29520, Note_on_c, 0, 62, 80
1, 29548, Note_on_c, 0, 67, 0
1, 29548, Note_on_c, 0, 71, 0
1, 29558, Note_on_c, 0, 62, 0
1, 29568, Note_on_c, 0, 50, 80
1, 29568, Note_on_c, 0, 69, 80
1, 29568, Note_on_c, 0, 66, 80
1, 29721, Note_on_c, 0, 66, 0
1, 29721, Note_on_c, 0, 69, 0
1, 29721, Note_on_c, 0, 50, 0
1, 29856, Note_on_c, 0, 74, 80
1, 29932, Note_on_c, 0, 74, 0
1, 29952, Note_on_c, 0, 74, 80
1, 30028, Note_on_c, 0, 74, 0
1, 30048, Note_on_c, 0, 74, 80
1, 30124, Note_on_c, 0, 74, 0
1, 30144, Note_on_c, 0, 74, 80
1, 30220, Note_on_c, 0, 74, 0
1, 30240, Note_on_c, 0, 74, 80
1, 30316, Note_on_c, 0, 74, 0
1, 30336, Note_on_c, 0, 79, 80
1, 30432, Note_on_c, 0, 64, 80
1, 30432, Note_on_c, 0, 71, 80
1, 30508, Note_on_c, 0, 71, 0
1, 30508, Note_on_c, 0, 64, 0
1, 30528, Note_on_c, 0, 73, 80
1, 30566, Note_on_c, 0, 79, 0
1, 30604, Note_on_c, 0, 73, 0
1, 30624, Note_on_c, 0, 78, 80
1, 30624, Note_on_c, 0, 62, 80
1, 30624, Note_on_c, 0, 74, 80
1, 30700, Note_on_c, 0, 74, 0
1, 30700, Note_on_c, 0, 62, 0
1, 30700, Note_on_c, 0, 78, 0
1, 30720, Note_on_c, 0, 71, 80
1, 30796, Note_on_c, 0, 71, 0
1, 30816, Note_on_c, 0, 71, 80
1, 30892, Note_on_c, 0, 71, 0
1, 30912, Note_on_c, 0, 71, 80
1, 30988, Note_on_c, 0, 71, 0
1, 31008, Note_on_c, 0, 71, 80
1, 31084, Note_on_c, 0, 71, 0
1, 31104, Note_on_c, 0, 76, 80
1, 31200, Note_on_c, 0, 60, 80
1, 31200, Note_on_c, 0, 67, 80
1, 31276, Note_on_c, 0, 67, 0
1, 31276, Note_on_c, 0, 60, 0
1, 31296, Note_on_c, 0, 69, 80
1, 31334, Note_on_c, 0, 76, 0
1, 31372, Note_on_c, 0, 69, 0
1, 31392, Note_on_c, 0, 59, 80
1, 31392, Note_on_c, 0, 71, 80
1, 31392, Note_on_c, 0, 74, 80
1, 31468, Note_on_c, 0, 74, 0
1, 31468, Note_on_c, 0, 71, 0
1, 31468, Note_on_c, 0, 59, 0
1, 31488, Note_on_c, 0, 67, 80
1, 31564, Note_on_c, 0, 67, 0
1, 31584, Note_on_c, 0, 67, 80
1, 31660, Note_on_c, 0, 67, 0
1, 31680, Note_on_c, 0, 67, 80
1, 31756, Note_on_c, 0, 67, 0
1, 31776, Note_on_c, 0, 67, 80
1, 31852, Note_on_c, 0, 67, 0
1, 31872, Note_on_c, 0, 72, 80
1, 31968, Note_on_c, 0, 64, 80
1, 31968, Note_on_c, 0, 57, 80
1, 32025, Note_on_c, 0, 72, 0
1, 32044, Note_on_c, 0, 64, 0
1, 32044, Note_on_c, 0, 57, 0
1, 32064, Note_on_c, 0, 66, 80
1, 32140, Note_on_c, 0, 66, 0
1, 32160, Note_on_c, 0, 55, 80
1, 32160, Note_on_c, 0, 67, 80
1, 32160, Note_on_c, 0, 71, 80
1, 32236, Note_on_c, 0, 71, 0
1, 32236, Note_on_c, 0, 67, 0
1, 32236, Note_on_c, 0, 55, 0
1, 32256, Note_on_c, 0, 76, 80
1, 32352, Note_on_c, 0, 60, 80
1, 32409, Note_on_c, 0, 76, 0
1, 32428, Note_on_c, 0, 60, 0
1, 32448, Note_on_c, 0, 61, 80
1, 32544, Note_on_c, 0, 67, 80
1, 32601, Note_on_c, 0, 61, 0
1, 32620, Note_on_c, 0, 67, 0
1, 32640, Note_on_c, 0, 62, 80
1, 32640, Note_on_c, 0, 66, 80
1, 32716, Note_on_c, 0, 62, 0
1, 32736, Note_on_c, 0, 73, 80
1, 32812, Note_on_c, 0, 73, 0
1, 32820, Note_on_c, 0, 66, 0
1, 32832, Note_on_c, 0, 74, 80
1, 32928, Note_on_c, 0, 67, 80
1, 32928, Note_on_c, 0, 70, 80
1, 33004, Note_on_c, 0, 70, 0
1, 33004, Note_on_c, 0, 67, 0
1, 33012, Note_on_c, 0, 74, 0
1, 33024, Note_on_c, 0, 66, 80
1, 33024, Note_on_c, 0, 69, 80
1, 33120, Note_on_c, 0, 61, 80
1, 33196, Note_on_c, 0, 61, 0
1, 33204, Note_on_c, 0, 69, 0
1, 33204, Note_on_c, 0, 66, 0
1, 33216, Note_on_c, 0, 62, 80
1, 33312, Note_on_c, 0, 55, 80
1, 33312, Note_on_c, 0, 58, 80
1, 33369, Note_on_c, 0, 62, 0
1, 33388, Note_on_c, 0, 55, 0
1, 33388, Note_on_c, 0, 58, 0
1, 33408, Note_on_c, 0, 54, 80
1, 33408, Note_on_c, 0, 57, 80
1, 33504, Note_on_c, 0, 51, 80
1, 33504, Note_on_c, 0, 39, 80
1, 33561, Note_on_c, 0, 57, 0
1, 33561, Note_on_c, 0, 54, 0
1, 33580, Note_on_c, 0, 51, 0
1, 33580, Note_on_c, 0, 39, 0
1, 33600, Note_on_c, 0, 40, 80
1, 33600, Note_on_c, 0, 52, 80
1, 33676, Note_on_c, 0, 52, 0
1, 33676, Note_on_c, 0, 40, 0
1, 33696, Note_on_c, 0, 42, 80
1, 33696, Note_on_c, 0, 54, 80
1, 33772, Note_on_c, 0, 54, 0
1, 33772, Note_on_c, 0, 42, 0
1, 33792, Note_on_c, 0, 43, 80
1, 33792, Note_on_c, 0, 55, 80
1, 33868, Note_on_c, 0, 55, 0
1, 33868, Note_on_c, 0, 43, 0
1, 33888, Note_on_c, 0, 35, 80
1, 33888, Note_on_c, 0, 47, 80
1, 33964, Note_on_c, 0, 47, 0
1, 33964, Note_on_c, 0, 35, 0
1, 33984, Note_on_c, 0, 36, 80
1, 33984, Note_on_c, 0, 48, 80
1, 34060, Note_on_c, 0, 48, 0
1, 34060, Note_on_c, 0, 36, 0
1, 34080, Note_on_c, 0, 38, 80
1, 34080, Note_on_c, 0, 50, 80
1, 34156, Note_on_c, 0, 50, 0
1, 34156, Note_on_c, 0, 38, 0
1, 34176, Note_on_c, 0, 52, 80
1, 34176, Note_on_c, 0, 40, 80
1, 34252, Note_on_c, 0, 40, 0
1, 34252, Note_on_c, 0, 52, 0
1, 34272, Note_on_c, 0, 79, 80
1, 34272, Note_on_c, 0, 76, 80
1, 34310, Note_on_c, 0, 79, 0
1, 34320, Note_on_c, 0, 84, 80
1, 34348, Note_on_c, 0, 76, 0
1, 34358, Note_on_c, 0, 84, 0
1, 34368, Note_on_c, 0, 74, 80
1, 34368, Note_on_c, 0, 83, 80
1, 34406, Note_on_c, 0, 83, 0
1, 34416, Note_on_c, 0, 78, 80
1, 34444, Note_on_c, 0, 74, 0
1, 34454, Note_on_c, 0, 78, 0
1, 34464, Note_on_c, 0, 72, 80
1, 34464, Note_on_c, 0, 76, 80
1, 34502, Note_on_c, 0, 76, 0
1, 34512, Note_on_c, 0, 81, 80
1, 34540, Note_on_c, 0, 72, 0
1, 34550, Note_on_c, 0, 81, 0
1, 34560, Note_on_c, 0, 71, 80
1, 34560, Note_on_c, 0, 79, 80
1, 34598, Note_on_c, 0, 79, 0
1, 34608, Note_on_c, 0, 74, 80
1, 34636, Note_on_c, 0, 71, 0
1, 34646, Note_on_c, 0, 74, 0
1, 34656, Note_on_c, 0, 72, 80
1, 34656, Note_on_c, 0, 69, 80
1, 34694, Note_on_c, 0, 72, 0
1, 34704, Note_on_c, 0, 78, 80
1, 34732, Note_on_c, 0, 69, 0
1, 34742, Note_on_c, 0, 78, 0
1, 34752, Note_on_c, 0, 67, 80
1, 34752, Note_on_c, 0, 76, 80
1, 34790, Note_on_c, 0, 76, 0
1, 34800, Note_on_c, 0, 71, 80
1, 34828, Note_on_c, 0, 67, 0
1, 34838, Note_on_c, 0, 71, 0
1, 34848, Note_on_c, 0, 66, 80
1, 34848, Note_on_c, 0, 69, 80
1, 34886, Note_on_c, 0, 69, 0
1, 34896, Note_on_c, 0, 74, 80
1, 34924, Note_on_c, 0, 66, 0
1, 34934, Note_on_c, 0, 74, 0
1, 34944, Note_on_c, 0, 64, 80
1, 34944, Note_on_c, 0, 72, 80
1, 34982, Note_on_c, 0, 72, 0
1, 34992, Note_on_c, 0, 67, 80
1, 35020, Note_on_c, 0, 64, 0
1, 35030, Note_on_c, 0, 67, 0
1, 35040, Note_on_c, 0, 66, 80
1, 35040, Note_on_c, 0, 62, 80
1, 35078, Note_on_c, 0, 66, 0
1, 35088, Note_on_c, 0, 71, 80
1, 35116, Note_on_c, 0, 62, 0
1, 35126, Note_on_c, 0, 71, 0
1, 35136, Note_on_c, 0, 60, 80
1, 35136, Note_on_c, 0, 69, 80
1, 35174, Note_on_c, 0, 69, 0
1, 35184, Note_on_c, 0, 64, 80
1, 35212, Note_on_c, 0, 60, 0
1, 35222, Note_on_c, 0, 64, 0
1, 35232, Note_on_c, 0, 59, 80
1, 35232, Note_on_c, 0, 62, 80
1, 35270, Note_on_c, 0, 62, 0
1, 35280, Note_on_c, 0, 67, 80
1, 35308, Note_on_c, 0, 59, 0
1, 35318, Note_on_c, 0, 67, 0
1, 35328, Note_on_c, 0, 48, 80
1, 35424, Note_on_c, 0, 76, 80
1, 35424, Note_on_c, 0, 72, 80
1, 35481, Note_on_c, 0, 48, 0
1, 35500, Note_on_c, 0, 76, 0
1, 35500, Note_on_c, 0, 72, 0
1, 35520, Note_on_c, 0, 50, 80
1, 35520, Note_on_c, 0, 71, 80
1, 35520, Note_on_c, 0, 74, 80
1, 35596, Note_on_c, 0, 74, 0
1, 35596, Note_on_c, 0, 71, 0
1, 35616, Note_on_c, 0, 66, 80
1, 35616, Note_on_c, 0, 69, 80
1, 35673, Note_on_c, 0, 50, 0
1, 35692, Note_on_c, 0, 66, 0
1, 35692, Note_on_c, 0, 69, 0
1, 35712, Note_on_c, 0, 43, 80
1, 35712, Note_on_c, 0, 67, 80
1, 35750, Note_on_c, 0, 43, 0
1, 35760, Note_on_c, 0, 55, 80
1, 35798, Note_on_c, 0, 55, 0
1, 35808, Note_on_c, 0, 54, 80
1, 35846, Note_on_c, 0, 54, 0
1, 35856, Note_on_c, 0, 55, 80
1, 35865, Note_on_c, 0, 67, 0
1, 35892, Note_on_c, 0, 60, 80
1, 35894, Note_on_c, 0, 55, 0
1, 35904, Note_on_c, 0, 52, 80
1, 35904, Note_on_c, 0, 72, 80
1, 35937, Note_on_c, 0, 60, 0
1, 35942, Note_on_c, 0, 52, 0
1, 35952, Note_on_c, 0, 55, 80
1, 35990, Note_on_c, 0, 55, 0
1, 35994, Note_on_c, 0, 72, 0
1, 36000, Note_on_c, 0, 54, 80
1, 36038, Note_on_c, 0, 54, 0
1, 36048, Note_on_c, 0, 55, 80
1, 36086, Note_on_c, 0, 55, 0
1, 36096, Note_on_c, 0, 50, 80
1, 36096, Note_on_c, 0, 59, 80
1, 36096, Note_on_c, 0, 71, 80
1, 36134, Note_on_c, 0, 50, 0
1, 36141, Note_on_c, 0, 59, 0
1, 36144, Note_on_c, 0, 55, 80
1, 36172, Note_on_c, 0, 71, 0
1, 36182, Note_on_c, 0, 55, 0
1, 36192, Note_on_c, 0, 54, 80
1, 36230, Note_on_c, 0, 54, 0
1, 36240, Note_on_c, 0, 55, 80
1, 36276, Note_on_c, 0, 57, 80
1, 36278, Note_on_c, 0, 55, 0
1, 36288, Note_on_c, 0, 57, 0
1, 36288, Note_on_c, 0, 48, 80
1, 36288, Note_on_c, 0, 69, 80
1, 36326, Note_on_c, 0, 48, 0
1, 36336, Note_on_c, 0, 55, 80
1, 36364, Note_on_c, 0, 69, 0
1, 36374, Note_on_c, 0, 55, 0
1, 36384, Note_on_c, 0, 54, 80
1, 36422, Note_on_c, 0, 54, 0
1, 36432, Note_on_c, 0, 55, 80
1, 36470, Note_on_c, 0, 55, 0
1, 36480, Note_on_c, 0, 47, 80
1, 36480, Note_on_c, 0, 55, 80
1, 36480, Note_on_c, 0, 67, 80
1, 36492, Note_on_c, 0, 55, 0
1, 36518, Note_on_c, 0, 47, 0
1, 36528, Note_on_c, 0, 55, 80
1, 36556, Note_on_c, 0, 67, 0
1, 36566, Note_on_c, 0, 55, 0
1, 36576, Note_on_c, 0, 54, 80
1, 36612, Note_on_c, 0, 60, 80
1, 36614, Note_on_c, 0, 54, 0
1, 36624, Note_on_c, 0, 55, 80
1, 36648, Note_on_c, 0, 72, 80
1, 36657, Note_on_c, 0, 60, 0
1, 36662, Note_on_c, 0, 55, 0
1, 36672, Note_on_c, 0, 48, 80
1, 36710, Note_on_c, 0, 48, 0
1, 36720, Note_on_c, 0, 55, 80
1, 36724, Note_on_c, 0, 72, 0
1, 36744, Note_on_c, 0, 72, 80
1, 36758, Note_on_c, 0, 55, 0
1, 36768, Note_on_c, 0, 54, 80
1, 36806, Note_on_c, 0, 54, 0
1, 36816, Note_on_c, 0, 55, 80
1, 36820, Note_on_c, 0, 72, 0
1, 36854, Note_on_c, 0, 55, 0
1, 36864, Note_on_c, 0, 50, 80
1, 36864, Note_on_c, 0, 59, 80
1, 36864, Note_on_c, 0, 71, 80
1, 36876, Note_on_c, 0, 59, 0
1, 36902, Note_on_c, 0, 50, 0
1, 36912, Note_on_c, 0, 55, 80
1, 36940, Note_on_c, 0, 71, 0
1, 36950, Note_on_c, 0, 55, 0
1, 36960, Note_on_c, 0, 71, 80
1, 36960, Note_on_c, 0, 54, 80
1, 36998, Note_on_c, 0, 54, 0
1, 37008, Note_on_c, 0, 55, 80
1, 37036, Note_on_c, 0, 71, 0
1, 37044, Note_on_c, 0, 57, 80
1, 37046, Note_on_c, 0, 55, 0
1, 37056, Note_on_c, 0, 57, 0
1, 37056, Note_on_c, 0, 48, 80
1, 37056, Note_on_c, 0, 69, 80
1, 37094, Note_on_c, 0, 48, 0
1, 37104, Note_on_c, 0, 55, 80
1, 37132, Note_on_c, 0, 69, 0
1, 37142, Note_on_c, 0, 55, 0
1, 37152, Note_on_c, 0, 54, 80
1, 37152, Note_on_c, 0, 69, 80
1, 37190, Note_on_c, 0, 54, 0
1, 37200, Note_on_c, 0, 55, 80
1, 37228, Note_on_c, 0, 69, 0
1, 37238, Note_on_c, 0, 55, 0
1, 37248, Note_on_c, 0, 62, 80
1, 37248, Note_on_c, 0, 47, 80
1, 37248, Note_on_c, 0, 74, 80
1, 37260, Note_on_c, 0, 62, 0
1, 37286, Note_on_c, 0, 47, 0
1, 37296, Note_on_c, 0, 55, 80
1, 37324, Note_on_c, 0, 74, 0
1, 37334, Note_on_c, 0, 55, 0
1, 37344, Note_on_c, 0, 54, 80
1, 37380, Note_on_c, 0, 71, 80
1, 37382, Note_on_c, 0, 54, 0
1, 37392, Note_on_c, 0, 71, 0
1, 37392, Note_on_c, 0, 72, 80
1, 37392, Note_on_c, 0, 55, 80
1, 37430, Note_on_c, 0, 55, 0
1, 37440, Note_on_c, 0, 64, 80
1, 37468, Note_on_c, 0, 72, 0
1, 37478, Note_on_c, 0, 64, 0
1, 37488, Note_on_c, 0, 67, 80
1, 37488, Note_on_c, 0, 72, 80
1, 37526, Note_on_c, 0, 67, 0
1, 37536, Note_on_c, 0, 66, 80
1, 37564, Note_on_c, 0, 72, 0
1, 37574, Note_on_c, 0, 66, 0
1, 37584, Note_on_c, 0, 67, 80
1, 37622, Note_on_c, 0, 67, 0
1, 37632, Note_on_c, 0, 62, 80
1, 37632, Note_on_c, 0, 70, 80
1, 37632, Note_on_c, 0, 71, 80
1, 37644, Note_on_c, 0, 70, 0
1, 37670, Note_on_c, 0, 62, 0
1, 37680, Note_on_c, 0, 67, 80
1, 37708, Note_on_c, 0, 71, 0
1, 37718, Note_on_c, 0, 67, 0
1, 37728, Note_on_c, 0, 71, 80
1, 37728, Note_on_c, 0, 66, 80
1, 37766, Note_on_c, 0, 66, 0
1, 37776, Note_on_c, 0, 67, 80
1, 37804, Note_on_c, 0, 71, 0
1, 37812, Note_on_c, 0, 68, 80
1, 37814, Note_on_c, 0, 67, 0
1, 37824, Note_on_c, 0, 68, 0
1, 37824, Note_on_c, 0, 60, 80
1, 37824, Note_on_c, 0, 69, 80
1, 37862, Note_on_c, 0, 60, 0
1, 37872, Note_on_c, 0, 67, 80
1, 37900, Note_on_c, 0, 69, 0
1, 37910, Note_on_c, 0, 67, 0
1, 37920, Note_on_c, 0, 66, 80
1, 37920, Note_on_c, 0, 69, 80
1, 37958, Note_on_c, 0, 66, 0
1, 37968, Note_on_c, 0, 67, 80
1, 37996, Note_on_c, 0, 69, 0
1, 38006, Note_on_c, 0, 67, 0
1, 38016, Note_on_c, 0, 73, 80
1, 38016, Note_on_c, 0, 59, 80
1, 38016, Note_on_c, 0, 74, 80
1, 38028, Note_on_c, 0, 73, 0
1, 38054, Note_on_c, 0, 59, 0
1, 38064, Note_on_c, 0, 67, 80
1, 38092, Note_on_c, 0, 74, 0
1, 38102, Note_on_c, 0, 67, 0
1, 38112, Note_on_c, 0, 66, 80
1, 38150, Note_on_c, 0, 66, 0
1, 38160, Note_on_c, 0, 72, 80
1, 38160, Note_on_c, 0, 67, 80
1, 38198, Note_on_c, 0, 67, 0
1, 38198, Note_on_c, 0, 72, 0
1, 38208, Note_on_c, 0, 74, 80
1, 38208, Note_on_c, 0, 69, 80
1, 38208, Note_on_c, 0, 64, 80
1, 38208, Note_on_c, 0, 60, 80
1, 38246, Note_on_c, 0, 74, 0
1, 38256, Note_on_c, 0, 76, 80
1, 38294, Note_on_c, 0, 76, 0
1, 38304, Note_on_c, 0, 74, 80
1, 38342, Note_on_c, 0, 74, 0
1, 38361, Note_on_c, 0, 69, 0
1, 38361, Note_on_c, 0, 64, 0
1, 38361, Note_on_c, 0, 60, 0
1, 38400, Note_on_c, 0, 62, 80
1, 38400, Note_on_c, 0, 67, 80
1, 38400, Note_on_c, 0, 71, 80
1, 38438, Note_on_c, 0, 71, 0
1, 38448, Note_on_c, 0, 72, 80
1, 38486, Note_on_c, 0, 72, 0
1, 38496, Note_on_c, 0, 74, 80
1, 38534, Note_on_c, 0, 74, 0
1, 38544, Note_on_c, 0, 71, 80
1, 38553, Note_on_c, 0, 67, 0
1, 38553, Note_on_c, 0, 62, 0
1, 38582, Note_on_c, 0, 71, 0
1, 38592, Note_on_c, 0, 62, 80
1, 38592, Note_on_c, 0, 66, 80
1, 38592, Note_on_c, 0, 69, 80
1, 38630, Note_on_c, 0, 69, 0
1, 38640, Note_on_c, 0, 71, 80
1, 38678, Note_on_c, 0, 71, 0
1, 38688, Note_on_c, 0, 72, 80
1, 38726, Note_on_c, 0, 72, 0
1, 38736, Note_on_c, 0, 69, 80
1, 38745, Note_on_c, 0, 66, 0
1, 38745, Note_on_c, 0, 62, 0
1, 38774, Note_on_c, 0, 69, 0
1, 38784, Note_on_c, 0, 67, 80
1, 38784, Note_on_c, 0, 55, 80
1, 38784, Note_on_c, 0, 67, 80
1, 38822, Note_on_c, 0, 67, 0
1, 38832, Note_on_c, 0, 79, 80
1, 38870, Note_on_c, 0, 79, 0
1, 38880, Note_on_c, 0, 83, 80
1, 38918, Note_on_c, 0, 83, 0
1, 38928, Note_on_c, 0, 81, 80
1, 38937, Note_on_c, 0, 55, 0
1, 38937, Note_on_c, 0, 67, 0
1, 38966, Note_on_c, 0, 81, 0
1, 38976, Note_on_c, 0, 79, 80
1, 39014, Note_on_c, 0, 79, 0
1, 39024, Note_on_c, 0, 78, 80
1, 39062, Note_on_c, 0, 78, 0
1, 39072, Note_on_c, 0, 76, 80
1, 39110, Note_on_c, 0, 76, 0
1, 39120, Note_on_c, 0, 74, 80
1, 39158, Note_on_c, 0, 74, 0
1, 39168, Note_on_c, 0, 67, 80
1, 39168, Note_on_c, 0, 73, 80
1, 39168, Note_on_c, 0, 64, 80
1, 39321, Note_on_c, 0, 64, 0
1, 39321, Note_on_c, 0, 73, 0
1, 39321, Note_on_c, 0, 67, 0
1, 39360, Note_on_c, 0, 69, 80
1, 39360, Note_on_c, 0, 66, 80
1, 39360, Note_on_c, 0, 72, 80
1, 39436, Note_on_c, 0, 72, 0
1, 39436, Note_on_c, 0, 66, 0
1, 39436, Note_on_c, 0, 69, 0
1, 39456, Note_on_c, 0, 67, 80
1, 39456, Note_on_c, 0, 71, 80
1, 39532, Note_on_c, 0, 71, 0
1, 39532, Note_on_c, 0, 67, 0
1, 39552, Note_on_c, 0, 64, 80
1, 39552, Note_on_c, 0, 69, 80
1, 39552, Note_on_c, 0, 60, 80
1, 39628, Note_on_c, 0, 60, 0
1, 39628, Note_on_c, 0, 69, 0
1, 39628, Note_on_c, 0, 64, 0
1, 39744, Note_on_c, 0, 60, 80
1, 39744, Note_on_c, 0, 76, 80
1, 39782, Note_on_c, 0, 76, 0
1, 39782, Note_on_c, 0, 60, 0
1, 39792, Note_on_c, 0, 69, 80
1, 39792, Note_on_c, 0, 84, 80
1, 39830, Note_on_c, 0, 84, 0
1, 39830, Note_on_c, 0, 69, 0
1, 39840, Note_on_c, 0, 68, 80
1, 39840, Note_on_c, 0, 83, 80
1, 39878, Note_on_c, 0, 83, 0
1, 39878, Note_on_c, 0, 68, 0
1, 39888, Note_on_c, 0, 69, 80
1, 39888, Note_on_c, 0, 84, 80
1, 39926, Note_on_c, 0, 84, 0
1, 39926, Note_on_c, 0, 69, 0
1, 39936, Note_on_c, 0, 74, 80
1, 39936, Note_on_c, 0, 62, 80
1, 39974, Note_on_c, 0, 62, 0
1, 39974, Note_on_c, 0, 74, 0
1, 39984, Note_on_c, 0, 67, 80
1, 39984, Note_on_c, 0, 83, 80
1, 40022, Note_on_c, 0, 83, 0
1, 40022, Note_on_c, 0, 67, 0
1, 40032, Note_on_c, 0, 81, 80
1, 40032, Note_on_c, 0, 66, 80
1, 40070, Note_on_c, 0, 66, 0
1, 40070, Note_on_c, 0, 81, 0
1, 40080, Note_on_c, 0, 67, 80
1, 40080, Note_on_c, 0, 83, 80
1, 40118, Note_on_c, 0, 83, 0
1, 40118, Note_on_c, 0, 67, 0
1, 40128, Note_on_c, 0, 62, 80
1, 40128, Note_on_c, 0, 74, 80
1, 40166, Note_on_c, 0, 74, 0
1, 40166, Note_on_c, 0, 62, 0
1, 40176, Note_on_c, 0, 66, 80
1, 40176, Note_on_c, 0, 81, 80
1, 40214, Note_on_c, 0, 81, 0
1, 40214, Note_on_c, 0, 66, 0
1, 40224, Note_on_c, 0, 64, 80
1, 40224, Note_on_c, 0, 79, 80
1, 40262, Note_on_c, 0, 79, 0
1, 40262, Note_on_c, 0, 64, 0
1, 40272, Note_on_c, 0, 66, 80
1, 40272, Note_on_c, 0, 81, 80
1, 40310, Note_on_c, 0, 81, 0
1, 40310, Note_on_c, 0, 66, 0
1, 40320, Note_on_c, 0, 67, 80
1, 40320, Note_on_c, 0, 79, 80
1, 40358, Note_on_c, 0, 79, 0
1, 40368, Note_on_c, 0, 67, 80
1, 40406, Note_on_c, 0, 67, 0
1, 40416, Note_on_c, 0, 71, 80
1, 40454, Note_on_c, 0, 71, 0
1, 40464, Note_on_c, 0, 69, 80
1, 40473, Note_on_c, 0, 67, 0
1, 40502, Note_on_c, 0, 69, 0
1, 40512, Note_on_c, 0, 67, 80
1, 40550, Note_on_c, 0, 67, 0
1, 40560, Note_on_c, 0, 66, 80
1, 40598, Note_on_c, 0, 66, 0
1, 40608, Note_on_c, 0, 64, 80
1, 40646, Note_on_c, 0, 64, 0
1, 40656, Note_on_c, 0, 62, 80
1, 40694, Note_on_c, 0, 62, 0
1, 40704, Note_on_c, 0, 52, 80
1, 40704, Note_on_c, 0, 55, 80
1, 40704, Note_on_c, 0, 61, 80
1, 40857, Note_on_c, 0, 61, 0
1, 40857, Note_on_c, 0, 55, 0
1, 40857, Note_on_c, 0, 52, 0
1, 40896, Note_on_c, 0, 54, 80
1, 40896, Note_on_c, 0, 57, 80
1, 40896, Note_on_c, 0, 60, 80
1, 40972, Note_on_c, 0, 60, 0
1, 40972, Note_on_c, 0, 57, 0
1, 40972, Note_on_c, 0, 54, 0
1, 40992, Note_on_c, 0, 55, 80
1, 40992, Note_on_c, 0, 59, 80
1, 41068, Note_on_c, 0, 59, 0
1, 41068, Note_on_c, 0, 55, 0
1, 41088, Note_on_c, 0, 48, 80
1, 41088, Note_on_c, 0, 57, 80
1, 41088, Note_on_c, 0, 52, 80
1, 41164, Note_on_c, 0, 52, 0
1, 41164, Note_on_c, 0, 57, 0
1, 41164, Note_on_c, 0, 48, 0
1, 41280, Note_on_c, 0, 48, 80
1, 41280, Note_on_c, 0, 64, 80
1, 41318, Note_on_c, 0, 64, 0
1, 41318, Note_on_c, 0, 48, 0
1, 41328, Note_on_c, 0, 57, 80
1, 41328, Note_on_c, 0, 72, 80
1, 41366, Note_on_c, 0, 72, 0
1, 41366, Note_on_c, 0, 57, 0
1, 41376, Note_on_c, 0, 56, 80
1, 41376, Note_on_c, 0, 71, 80
1, 41414, Note_on_c, 0, 71, 0
1, 41414, Note_on_c, 0, 56, 0
1, 41424, Note_on_c, 0, 57, 80
1, 41424, Note_on_c, 0, 72, 80
1, 41462, Note_on_c, 0, 72, 0
1, 41462, Note_on_c, 0, 57, 0
1, 41472, Note_on_c, 0, 62, 80
1, 41472, Note_on_c, 0, 50, 80
1, 41510, Note_on_c, 0, 50, 0
1, 41510, Note_on_c, 0, 62, 0
1, 41520, Note_on_c, 0, 71, 80
1, 41520, Note_on_c, 0, 55, 80
1, 41558, Note_on_c, 0, 55, 0
1, 41558, Note_on_c, 0, 71, 0
1, 41568, Note_on_c, 0, 54, 80
1, 41568, Note_on_c, 0, 69, 80
1, 41606, Note_on_c, 0, 69, 0
1, 41606, Note_on_c, 0, 54, 0
1, 41616, Note_on_c, 0, 71, 80
1, 41616, Note_on_c, 0, 55, 80
1, 41654, Note_on_c, 0, 55, 0
1, 41654, Note_on_c, 0, 71, 0
1, 41664, Note_on_c, 0, 50, 80
1, 41664, Note_on_c, 0, 62, 80
1, 41702, Note_on_c, 0, 62, 0
1, 41702, Note_on_c, 0, 50, 0
1, 41712, Note_on_c, 0, 54, 80
1, 41712, Note_on_c, 0, 69, 80
1, 41750, Note_on_c, 0, 69, 0
1, 41750, Note_on_c, 0, 54, 0
1, 41760, Note_on_c, 0, 52, 80
1, 41760, Note_on_c, 0, 67, 80
1, 41798, Note_on_c, 0, 67, 0
1, 41798, Note_on_c, 0, 52, 0
1, 41808, Note_on_c, 0, 54, 80
1, 41808, Note_on_c, 0, 69, 80
1, 41846, Note_on_c, 0, 69, 0
1, 41846, Note_on_c, 0, 54, 0
1, 41856, Note_on_c, 0, 67, 80
1, 41856, Note_on_c, 0, 55, 80
1, 41894, Note_on_c, 0, 67, 0
1, 41904, Note_on_c, 0, 62, 80
1, 41942, Note_on_c, 0, 62, 0
1, 41952, Note_on_c, 0, 67, 80
1, 41990, Note_on_c, 0, 67, 0
1, 42000, Note_on_c, 0, 71, 80
1, 42009, Note_on_c, 0, 55, 0
1, 42038, Note_on_c, 0, 71, 0
1, 42048, Note_on_c, 0, 50, 80
1, 42048, Note_on_c, 0, 57, 80
1, 42048, Note_on_c, 0, 74, 80
1, 42086, Note_on_c, 0, 74, 0
1, 42096, Note_on_c, 0, 72, 80
1, 42134, Note_on_c, 0, 72, 0
1, 42144, Note_on_c, 0, 69, 80
1, 42182, Note_on_c, 0, 69, 0
1, 42192, Note_on_c, 0, 66, 80
1, 42201, Note_on_c, 0, 57, 0
1, 42201, Note_on_c, 0, 50, 0
1, 42230, Note_on_c, 0, 66, 0
1, 42240, Note_on_c, 0, 55, 80
1, 42240, Note_on_c, 0, 59, 80
1, 42240, Note_on_c, 0, 67, 80
1, 42278, Note_on_c, 0, 67, 0
1, 42288, Note_on_c, 0, 79, 80
1, 42326, Note_on_c, 0, 79, 0
1, 42336, Note_on_c, 0, 74, 80
1, 42374, Note_on_c, 0, 74, 0
1, 42384, Note_on_c, 0, 71, 80
1, 42393, Note_on_c, 0, 59, 0
1, 42393, Note_on_c, 0, 55, 0
1, 42422, Note_on_c, 0, 71, 0
1, 42432, Note_on_c, 0, 50, 80
1, 42432, Note_on_c, 0, 57, 80
1, 42432, Note_on_c, 0, 60, 80
1, 42432, Note_on_c, 0, 74, 80
1, 42470, Note_on_c, 0, 74, 0
1, 42480, Note_on_c, 0, 72, 80
1, 42518, Note_on_c, 0, 72, 0
1, 42528, Note_on_c, 0, 69, 80
1, 42566, Note_on_c, 0, 69, 0
1, 42576, Note_on_c, 0, 66, 80
1, 42585, Note_on_c, 0, 60, 0
1, 42585, Note_on_c, 0, 57, 0
1, 42585, Note_on_c, 0, 50, 0
1, 42614, Note_on_c, 0, 66, 0
1, 42624, Note_on_c, 0, 55, 80
1, 42624, Note_on_c, 0, 59, 80
1, 42624, Note_on_c, 0, 67, 80
1, 42777, Note_on_c, 0, 67, 0
1, 42777, Note_on_c, 0, 59, 0
1, 42777, Note_on_c, 0, 55, 0
1, 42912, Note_on_c, 0, 74, 80
1, 42988, Note_on_c, 0, 74, 0
1, 43008, Note_on_c, 0, 74, 80
1, 43084, Note_on_c, 0, 74, 0
1, 43104, Note_on_c, 0, 74, 80
1, 43180, Note_on_c, 0, 74, 0
1, 43200, Note_on_c, 0, 74, 80
1, 43276, Note_on_c, 0, 74, 0
1, 43296, Note_on_c, 0, 74, 80
1, 43372, Note_on_c, 0, 74, 0
1, 43392, Note_on_c, 0, 79, 80
1, 43488, Note_on_c, 0, 62, 80
1, 43488, Note_on_c, 0, 59, 80
1, 43564, Note_on_c, 0, 59, 0
1, 43564, Note_on_c, 0, 62, 0
1, 43584, Note_on_c, 0, 71, 80
1, 43584, Note_on_c, 0, 61, 80
1, 43622, Note_on_c, 0, 79, 0
1, 43660, Note_on_c, 0, 71, 0
1, 43660, Note_on_c, 0, 61, 0
1, 43680, Note_on_c, 0, 69, 80
1, 43680, Note_on_c, 0, 62, 80
1, 43680, Note_on_c, 0, 78, 80
1, 43756, Note_on_c, 0, 78, 0
1, 43756, Note_on_c, 0, 62, 0
1, 43756, Note_on_c, 0, 69, 0
1, 43776, Note_on_c, 0, 71, 80
1, 43852, Note_on_c, 0, 71, 0
1, 43872, Note_on_c, 0, 71, 80
1, 43948, Note_on_c, 0, 71, 0
1, 43968, Note_on_c, 0, 71, 80
1, 44044, Note_on_c, 0, 71, 0
1, 44064, Note_on_c, 0, 71, 80
1, 44140, Note_on_c, 0, 71, 0
1, 44160, Note_on_c, 0, 76, 80
1, 44256, Note_on_c, 0, 55, 80
1, 44256, Note_on_c, 0, 59, 80
1, 44332, Note_on_c, 0, 59, 0
1, 44332, Note_on_c, 0, 55, 0
1, 44352, Note_on_c, 0, 67, 80
1, 44352, Note_on_c, 0, 58, 80
1, 44390, Note_on_c, 0, 76, 0
1, 44428, Note_on_c, 0, 67, 0
1, 44428, Note_on_c, 0, 58, 0
1, 44448, Note_on_c, 0, 59, 80
1, 44448, Note_on_c, 0, 66, 80
1, 44448, Note_on_c, 0, 74, 80
1, 44524, Note_on_c, 0, 74, 0
1, 44524, Note_on_c, 0, 66, 0
1, 44524, Note_on_c, 0, 59, 0
1, 44544, Note_on_c, 0, 59, 80
1, 44544, Note_on_c, 0, 65, 80
1, 44544, Note_on_c, 0, 67, 80
1, 44620, Note_on_c, 0, 67, 0
1, 44640, Note_on_c, 0, 67, 80
1, 44697, Note_on_c, 0, 65, 0
1, 44697, Note_on_c, 0, 59, 0
1, 44716, Note_on_c, 0, 67, 0
1, 44736, Note_on_c, 0, 60, 80
1, 44736, Note_on_c, 0, 64, 80
1, 44736, Note_on_c, 0, 67, 80
1, 44812, Note_on_c, 0, 67, 0
1, 44832, Note_on_c, 0, 67, 80
1, 44889, Note_on_c, 0, 64, 0
1, 44889, Note_on_c, 0, 60, 0
1, 44908, Note_on_c, 0, 67, 0
1, 44928, Note_on_c, 0, 57, 80
1, 44928, Note_on_c, 0, 69, 80
1, 45004, Note_on_c, 0, 69, 0
1, 45024, Note_on_c, 0, 64, 80
1, 45081, Note_on_c, 0, 57, 0
1, 45100, Note_on_c, 0, 64, 0
1, 45120, Note_on_c, 0, 69, 80
1, 45196, Note_on_c, 0, 69, 0
1, 45216, Note_on_c, 0, 64, 80
1, 45216, Note_on_c, 0, 71, 80
1, 45216, Note_on_c, 0, 68, 80
1, 45292, Note_on_c, 0, 68, 0
1, 45292, Note_on_c, 0, 71, 0
1, 45292, Note_on_c, 0, 64, 0
1, 45312, Note_on_c, 0, 64, 80
1, 45388, Note_on_c, 0, 64, 0
1, 45408, Note_on_c, 0, 64, 80
1, 45484, Note_on_c, 0, 64, 0
1, 45504, Note_on_c, 0, 64, 80
1, 45580, Note_on_c, 0, 64, 0
1, 45600, Note_on_c, 0, 64, 80
1, 45676, Note_on_c, 0, 64, 0
1, 45696, Note_on_c, 0, 69, 80
1, 45792, Note_on_c, 0, 72, 80
1, 45792, Note_on_c, 0, 76, 80
1, 45868, Note_on_c, 0, 76, 0
1, 45868, Note_on_c, 0, 72, 0
1, 45888, Note_on_c, 0, 75, 80
1, 45888, Note_on_c, 0, 84, 80
1, 45926, Note_on_c, 0, 69, 0
1, 45964, Note_on_c, 0, 75, 0
1, 45964, Note_on_c, 0, 84, 0
1, 45984, Note_on_c, 0, 67, 80
1, 45984, Note_on_c, 0, 76, 80
1, 45984, Note_on_c, 0, 83, 80
1, 46060, Note_on_c, 0, 83, 0
1, 46060, Note_on_c, 0, 76, 0
1, 46060, Note_on_c, 0, 67, 0
1, 46080, Note_on_c, 0, 60, 80
1, 46156, Note_on_c, 0, 60, 0
1, 46176, Note_on_c, 0, 60, 80
1, 46252, Note_on_c, 0, 60, 0
1, 46272, Note_on_c, 0, 60, 80
1, 46348, Note_on_c, 0, 60, 0
1, 46368, Note_on_c, 0, 60, 80
1, 46444, Note_on_c, 0, 60, 0
1, 46464, Note_on_c, 0, 65, 80
1, 46560, Note_on_c, 0, 67, 80
1, 46560, Note_on_c, 0, 72, 80
1, 46636, Note_on_c, 0, 72, 0
1, 46636, Note_on_c, 0, 67, 0
1, 46656, Note_on_c, 0, 71, 80
1, 46656, Note_on_c, 0, 81, 80
1, 46694, Note_on_c, 0, 65, 0
1, 46732, Note_on_c, 0, 71, 0
1, 46732, Note_on_c, 0, 81, 0
1, 46752, Note_on_c, 0, 64, 80
1, 46752, Note_on_c, 0, 72, 80
1, 46752, Note_on_c, 0, 79, 80
1, 46828, Note_on_c, 0, 79, 0
1, 46828, Note_on_c, 0, 72, 0
1, 46828, Note_on_c, 0, 64, 0
1, 46848, Note_on_c, 0, 57, 80
1, 46924, Note_on_c, 0, 57, 0
1, 46944, Note_on_c, 0, 57, 80
1, 47020, Note_on_c, 0, 57, 0
1, 47040, Note_on_c, 0, 57, 80
1, 47116, Note_on_c, 0, 57, 0
1, 47136, Note_on_c, 0, 57, 80
1, 47212, Note_on_c, 0, 57, 0
1, 47232, Note_on_c, 0, 62, 80
1, 47328, Note_on_c, 0, 65, 80
1, 47328, Note_on_c, 0, 69, 80
1, 47404, Note_on_c, 0, 69, 0
1, 47404, Note_on_c, 0, 65, 0
1, 47424, Note_on_c, 0, 68, 80
1, 47424, Note_on_c, 0, 77, 80
1, 47462, Note_on_c, 0, 62, 0
1, 47500, Note_on_c, 0, 68, 0
1, 47500, Note_on_c, 0, 77, 0
1, 47520, Note_on_c, 0, 60, 80
1, 47520, Note_on_c, 0, 69, 80
1, 47520, Note_on_c, 0, 76, 80
1, 47596, Note_on_c, 0, 76, 0
1, 47596, Note_on_c, 0, 69, 0
1, 47596, Note_on_c, 0, 60, 0
1, 47616, Note_on_c, 0, 65, 80
1, 47616, Note_on_c, 0, 53, 80
1, 47712, Note_on_c, 0, 81, 80
1, 47750, Note_on_c, 0, 81, 0
1, 47760, Note_on_c, 0, 75, 80
1, 47769, Note_on_c, 0, 53, 0
1, 47769, Note_on_c, 0, 65, 0
1, 47798, Note_on_c, 0, 75, 0
1, 47808, Note_on_c, 0, 84, 80
1, 47884, Note_on_c, 0, 84, 0
1, 47904, Note_on_c, 0, 41, 80
1, 47904, Note_on_c, 0, 53, 80
1, 47904, Note_on_c, 0, 81, 80
1, 47980, Note_on_c, 0, 81, 0
1, 47980, Note_on_c, 0, 53, 0
1, 47980, Note_on_c, 0, 41, 0
1, 48000, Note_on_c, 0, 52, 80
1, 48000, Note_on_c, 0, 40, 80
1, 48096, Note_on_c, 0, 80, 80
1, 48134, Note_on_c, 0, 80, 0
1, 48144, Note_on_c, 0, 76, 80
1, 48153, Note_on_c, 0, 40, 0
1, 48153, Note_on_c, 0, 52, 0
1, 48182, Note_on_c, 0, 76, 0
1, 48192, Note_on_c, 0, 83, 80
1, 48268, Note_on_c, 0, 83, 0
1, 48288, Note_on_c, 0, 52, 80
1, 48288, Note_on_c, 0, 64, 80
1, 48288, Note_on_c, 0, 80, 80
1, 48364, Note_on_c, 0, 80, 0
1, 48364, Note_on_c, 0, 64, 0
1, 48364, Note_on_c, 0, 52, 0
1, 48384, Note_on_c, 0, 65, 80
1, 48384, Note_on_c, 0, 53, 80
1, 48480, Note_on_c, 0, 81, 80
1, 48518, Note_on_c, 0, 81, 0
1, 48528, Note_on_c, 0, 75, 80
1, 48537, Note_on_c, 0, 53, 0
1, 48537, Note_on_c, 0, 65, 0
1, 48566, Note_on_c, 0, 75, 0
1, 48576, Note_on_c, 0, 84, 80
1, 48652, Note_on_c, 0, 84, 0
1, 48672, Note_on_c, 0, 41, 80
1, 48672, Note_on_c, 0, 53, 80
1, 48672, Note_on_c, 0, 81, 80
1, 48748, Note_on_c, 0, 81, 0
1, 48748, Note_on_c, 0, 53, 0
1, 48748, Note_on_c, 0, 41, 0
1, 48768, Note_on_c, 0, 40, 80
1, 48768, Note_on_c, 0, 80, 80
1, 48768, Note_on_c, 0, 52, 80
1, 48844, Note_on_c, 0, 80, 0
1, 48858, Note_on_c, 0, 40, 0
1, 48858, Note_on_c, 0, 52, 0
1, 48864, Note_on_c, 0, 84, 80
1, 48902, Note_on_c, 0, 84, 0
1, 48912, Note_on_c, 0, 76, 80
1, 48950, Note_on_c, 0, 76, 0
1, 48960, Note_on_c, 0, 69, 80
1, 48960, Note_on_c, 0, 83, 80
1, 48998, Note_on_c, 0, 83, 0
1, 49008, Note_on_c, 0, 76, 80
1, 49036, Note_on_c, 0, 69, 0
1, 49046, Note_on_c, 0, 76, 0
1, 49056, Note_on_c, 0, 68, 80
1, 49056, Note_on_c, 0, 81, 80
1, 49094, Note_on_c, 0, 81, 0
1, 49104, Note_on_c, 0, 76, 80
1, 49132, Note_on_c, 0, 68, 0
1, 49142, Note_on_c, 0, 76, 0
1, 49152, Note_on_c, 0, 71, 80
1, 49152, Note_on_c, 0, 80, 80
1, 49152, Note_on_c, 0, 64, 80
1, 49190, Note_on_c, 0, 80, 0
1, 49200, Note_on_c, 0, 76, 80
1, 49228, Note_on_c, 0, 71, 0
1, 49228, Note_on_c, 0, 64, 0
1, 49238, Note_on_c, 0, 76, 0
1, 49248, Note_on_c, 0, 84, 80
1, 49248, Note_on_c, 0, 69, 80
1, 49286, Note_on_c, 0, 84, 0
1, 49296, Note_on_c, 0, 76, 80
1, 49324, Note_on_c, 0, 69, 0
1, 49334, Note_on_c, 0, 76, 0
1, 49344, Note_on_c, 0, 68, 80
1, 49344, Note_on_c, 0, 83, 80
1, 49382, Note_on_c, 0, 83, 0
1, 49392, Note_on_c, 0, 76, 80
1, 49420, Note_on_c, 0, 68, 0
1, 49430, Note_on_c, 0, 76, 0
1, 49440, Note_on_c, 0, 64, 80
1, 49440, Note_on_c, 0, 72, 80
1, 49440, Note_on_c, 0, 81, 80
1, 49478, Note_on_c, 0, 81, 0
1, 49488, Note_on_c, 0, 76, 80
1, 49516, Note_on_c, 0, 72, 0
1, 49516, Note_on_c, 0, 64, 0
1, 49526, Note_on_c, 0, 76, 0
1, 49536, Note_on_c, 0, 80, 80
1, 49536, Note_on_c, 0, 64, 80
1, 49536, Note_on_c, 0, 71, 80
1, 49574, Note_on_c, 0, 80, 0
1, 49584, Note_on_c, 0, 76, 80
1, 49612, Note_on_c, 0, 64, 0
1, 49612, Note_on_c, 0, 71, 0
1, 49622, Note_on_c, 0, 76, 0
1, 49632, Note_on_c, 0, 72, 80
1, 49632, Note_on_c, 0, 81, 80
1, 49670, Note_on_c, 0, 81, 0
1, 49680, Note_on_c, 0, 76, 80
1, 49708, Note_on_c, 0, 72, 0
1, 49718, Note_on_c, 0, 76, 0
1, 49728, Note_on_c, 0, 68, 80
1, 49728, Note_on_c, 0, 83, 80
1, 49766, Note_on_c, 0, 83, 0
1, 49776, Note_on_c, 0, 76, 80
1, 49804, Note_on_c, 0, 68, 0
1, 49814, Note_on_c, 0, 76, 0
1, 49824, Note_on_c, 0, 69, 80
1, 49824, Note_on_c, 0, 84, 80
1, 49862, Note_on_c, 0, 84, 0
1, 49872, Note_on_c, 0, 76, 80
1, 49900, Note_on_c, 0, 69, 0
1, 49910, Note_on_c, 0, 76, 0
1, 49920, Note_on_c, 0, 64, 80
1, 49920, Note_on_c, 0, 68, 80
1, 49920, Note_on_c, 0, 83, 80
1, 50073, Note_on_c, 0, 83, 0
1, 50073, Note_on_c, 0, 68, 0
1, 50073, Note_on_c, 0, 64, 0
1, 50100, Note_on_c, 0, 63, 80
1, 50100, Note_on_c, 0, 75, 80
1, 50112, Note_on_c, 0, 75, 0
1, 50112, Note_on_c, 0, 63, 0
1, 50112, Note_on_c, 0, 76, 80
1, 50112, Note_on_c, 0, 64, 80
1, 50265, Note_on_c, 0, 64, 0
1, 50265, Note_on_c, 0, 76, 0
1, 50304, Note_on_c, 0, 40, 80
1, 50304, Note_on_c, 0, 52, 80
1, 50304, Note_on_c, 0, 64, 80
1, 50457, Note_on_c, 0, 64, 0
1, 50457, Note_on_c, 0, 52, 0
1, 50457, Note_on_c, 0, 40, 0
1, 50592, Note_on_c, 0, 59, 80
1, 50668, Note_on_c, 0, 59, 0
1, 50688, Note_on_c, 0, 64, 80
1, 50784, Note_on_c, 0, 59, 80
1, 50784, Note_on_c, 0, 55, 80
1, 50860, Note_on_c, 0, 55, 0
1, 50860, Note_on_c, 0, 59, 0
1, 50880, Note_on_c, 0, 54, 80
1, 50880, Note_on_c, 0, 57, 80
1, 50956, Note_on_c, 0, 57, 0
1, 50956, Note_on_c, 0, 54, 0
1, 50976, Note_on_c, 0, 52, 80
1, 50976, Note_on_c, 0, 55, 80
1, 50995, Note_on_c, 0, 64, 0
1, 51052, Note_on_c, 0, 52, 0
1, 51052, Note_on_c, 0, 55, 0
1, 51072, Note_on_c, 0, 69, 80
1, 51168, Note_on_c, 0, 54, 80
1, 51168, Note_on_c, 0, 51, 80
1, 51244, Note_on_c, 0, 51, 0
1, 51244, Note_on_c, 0, 54, 0
1, 51264, Note_on_c, 0, 48, 80
1, 51264, Note_on_c, 0, 52, 80
1, 51340, Note_on_c, 0, 52, 0
1, 51340, Note_on_c, 0, 48, 0
1, 51360, Note_on_c, 0, 47, 80
1, 51360, Note_on_c, 0, 51, 80
1, 51379, Note_on_c, 0, 69, 0
1, 51436, Note_on_c, 0, 47, 0
1, 51436, Note_on_c, 0, 51, 0
1, 51456, Note_on_c, 0, 52, 80
1, 51456, Note_on_c, 0, 40, 80
1, 51456, Note_on_c, 0, 67, 80
1, 51532, Note_on_c, 0, 67, 0
1, 51552, Note_on_c, 0, 70, 80
1, 51590, Note_on_c, 0, 70, 0
1, 51600, Note_on_c, 0, 69, 80
1, 51638, Note_on_c, 0, 69, 0
1, 51648, Note_on_c, 0, 67, 80
1, 51686, Note_on_c, 0, 67, 0
1, 51696, Note_on_c, 0, 65, 80
1, 51734, Note_on_c, 0, 65, 0
1, 51744, Note_on_c, 0, 64, 80
1, 51763, Note_on_c, 0, 40, 0
1, 51763, Note_on_c, 0, 52, 0
1, 51782, Note_on_c, 0, 64, 0
1, 51792, Note_on_c, 0, 62, 80
1, 51830, Note_on_c, 0, 62, 0
1, 51840, Note_on_c, 0, 55, 80
1, 51840, Note_on_c, 0, 43, 80
1, 51840, Note_on_c, 0, 61, 80
1, 51916, Note_on_c, 0, 61, 0
1, 51936, Note_on_c, 0, 64, 80
1, 51974, Note_on_c, 0, 64, 0
1, 51984, Note_on_c, 0, 62, 80
1, 52022, Note_on_c, 0, 62, 0
1, 52032, Note_on_c, 0, 61, 80
1, 52070, Note_on_c, 0, 61, 0
1, 52080, Note_on_c, 0, 57, 80
1, 52118, Note_on_c, 0, 57, 0
1, 52128, Note_on_c, 0, 59, 80
1, 52147, Note_on_c, 0, 43, 0
1, 52147, Note_on_c, 0, 55, 0
1, 52166, Note_on_c, 0, 59, 0
1, 52176, Note_on_c, 0, 61, 80
1, 52214, Note_on_c, 0, 61, 0
1, 52224, Note_on_c, 0, 53, 80
1, 52224, Note_on_c, 0, 41, 80
1, 52224, Note_on_c, 0, 62, 80
1, 52300, Note_on_c, 0, 41, 0
1, 52300, Note_on_c, 0, 53, 0
1, 52320, Note_on_c, 0, 53, 80
1, 52320, Note_on_c, 0, 57, 80
1, 52396, Note_on_c, 0, 57, 0
1, 52396, Note_on_c, 0, 53, 0
1, 52416, Note_on_c, 0, 52, 80
1, 52416, Note_on_c, 0, 55, 80
1, 52492, Note_on_c, 0, 55, 0
1, 52492, Note_on_c, 0, 52, 0
1, 52512, Note_on_c, 0, 50, 80
1, 52512, Note_on_c, 0, 53, 80
1, 52531, Note_on_c, 0, 62, 0
1, 52588, Note_on_c, 0, 50, 0
1, 52588, Note_on_c, 0, 53, 0
1, 52608, Note_on_c, 0, 67, 80
1, 52704, Note_on_c, 0, 49, 80
1, 52704, Note_on_c, 0, 52, 80
1, 52780, Note_on_c, 0, 52, 0
1, 52780, Note_on_c, 0, 49, 0
1, 52800, Note_on_c, 0, 47, 80
1, 52800, Note_on_c, 0, 50, 80
1, 52876, Note_on_c, 0, 50, 0
1, 52876, Note_on_c, 0, 47, 0
1, 52896, Note_on_c, 0, 45, 80
1, 52896, Note_on_c, 0, 49, 80
1, 52915, Note_on_c, 0, 67, 0
1, 52972, Note_on_c, 0, 45, 0
1, 52972, Note_on_c, 0, 49, 0
1, 52992, Note_on_c, 0, 50, 80
1, 52992, Note_on_c, 0, 38, 80
1, 52992, Note_on_c, 0, 65, 80
1, 53068, Note_on_c, 0, 65, 0
1, 53088, Note_on_c, 0, 69, 80
1, 53126, Note_on_c, 0, 69, 0
1, 53136, Note_on_c, 0, 67, 80
1, 53174, Note_on_c, 0, 67, 0
1, 53184, Note_on_c, 0, 65, 80
1, 53222, Note_on_c, 0, 65, 0
1, 53232, Note_on_c, 0, 64, 80
1, 53270, Note_on_c, 0, 64, 0
1, 53280, Note_on_c, 0, 62, 80
1, 53299, Note_on_c, 0, 38, 0
1, 53299, Note_on_c, 0, 50, 0
1, 53318, Note_on_c, 0, 62, 0
1, 53328, Note_on_c, 0, 60, 80
1, 53366, Note_on_c, 0, 60, 0
1, 53376, Note_on_c, 0, 53, 80
1, 53376, Note_on_c, 0, 41, 80
1, 53376, Note_on_c, 0, 59, 80
1, 53452, Note_on_c, 0, 59, 0
1, 53472, Note_on_c, 0, 62, 80
1, 53510, Note_on_c, 0, 62, 0
1, 53520, Note_on_c, 0, 60, 80
1, 53558, Note_on_c, 0, 60, 0
1, 53568, Note_on_c, 0, 59, 80
1, 53606, Note_on_c, 0, 59, 0
1, 53616, Note_on_c, 0, 55, 80
1, 53654, Note_on_c, 0, 55, 0
1, 53664, Note_on_c, 0, 57, 80
1, 53683, Note_on_c, 0, 41, 0
1, 53683, Note_on_c, 0, 53, 0
1, 53702, Note_on_c, 0, 57, 0
1, 53712, Note_on_c, 0, 59, 80
1, 53750, Note_on_c, 0, 59, 0
1, 53760, Note_on_c, 0, 40, 80
1, 53760, Note_on_c, 0, 52, 80
1, 53760, Note_on_c, 0, 60, 80
1, 53836, Note_on_c, 0, 52, 0
1, 53836, Note_on_c, 0, 40, 0
1, 53856, Note_on_c, 0, 52, 80
1, 53856, Note_on_c, 0, 55, 80
1, 53932, Note_on_c, 0, 55, 0
1, 53932, Note_on_c, 0, 52, 0
1, 53952, Note_on_c, 0, 50, 80
1, 53952, Note_on_c, 0, 53, 80
1, 54028, Note_on_c, 0, 53, 0
1, 54028, Note_on_c, 0, 50, 0
1, 54048, Note_on_c, 0, 48, 80
1, 54048, Note_on_c, 0, 52, 80
1, 54067, Note_on_c, 0, 60, 0
1, 54124, Note_on_c, 0, 48, 0
1, 54124, Note_on_c, 0, 52, 0
1, 54144, Note_on_c, 0, 65, 80
1, 54240, Note_on_c, 0, 47, 80
1, 54240, Note_on_c, 0, 50, 80
1, 54316, Note_on_c, 0, 50, 0
1, 54316, Note_on_c, 0, 47, 0
1, 54336, Note_on_c, 0, 45, 80
1, 54336, Note_on_c, 0, 48, 80
1, 54412, Note_on_c, 0, 48, 0
1, 54412, Note_on_c, 0, 45, 0
1, 54432, Note_on_c, 0, 43, 80
1, 54432, Note_on_c, 0, 47, 80
1, 54451, Note_on_c, 0, 65, 0
1, 54508, Note_on_c, 0, 43, 0
1, 54508, Note_on_c, 0, 47, 0
1, 54528, Note_on_c, 0, 64, 80
1, 54528, Note_on_c, 0, 72, 80
1, 54540, Note_on_c, 0, 64, 0
1, 54624, Note_on_c, 0, 64, 80
1, 54624, Note_on_c, 0, 67, 80
1, 54700, Note_on_c, 0, 67, 0
1, 54700, Note_on_c, 0, 64, 0
1, 54720, Note_on_c, 0, 62, 80
1, 54720, Note_on_c, 0, 65, 80
1, 54796, Note_on_c, 0, 65, 0
1, 54796, Note_on_c, 0, 62, 0
1, 54816, Note_on_c, 0, 60, 80
1, 54816, Note_on_c, 0, 64, 80
1, 54835, Note_on_c, 0, 72, 0
1, 54892, Note_on_c, 0, 60, 0
1, 54892, Note_on_c, 0, 64, 0
1, 54912, Note_on_c, 0, 77, 80
1, 55008, Note_on_c, 0, 59, 80
1, 55008, Note_on_c, 0, 62, 80
1, 55084, Note_on_c, 0, 62, 0
1, 55084, Note_on_c, 0, 59, 0
1, 55104, Note_on_c, 0, 57, 80
1, 55104, Note_on_c, 0, 60, 80
1, 55180, Note_on_c, 0, 60, 0
1, 55180, Note_on_c, 0, 57, 0
1, 55200, Note_on_c, 0, 55, 80
1, 55200, Note_on_c, 0, 59, 80
1, 55219, Note_on_c, 0, 77, 0
1, 55276, Note_on_c, 0, 55, 0
1, 55276, Note_on_c, 0, 59, 0
1, 55296, Note_on_c, 0, 60, 80
1, 55296, Note_on_c, 0, 76, 80
1, 55334, Note_on_c, 0, 76, 0
1, 55344, Note_on_c, 0, 79, 80
1, 55372, Note_on_c, 0, 60, 0
1, 55382, Note_on_c, 0, 79, 0
1, 55392, Note_on_c, 0, 77, 80
1, 55392, Note_on_c, 0, 72, 80
1, 55430, Note_on_c, 0, 77, 0
1, 55440, Note_on_c, 0, 76, 80
1, 55468, Note_on_c, 0, 72, 0
1, 55478, Note_on_c, 0, 76, 0
1, 55488, Note_on_c, 0, 65, 80
1, 55488, Note_on_c, 0, 81, 80
1, 55526, Note_on_c, 0, 81, 0
1, 55536, Note_on_c, 0, 77, 80
1, 55564, Note_on_c, 0, 65, 0
1, 55574, Note_on_c, 0, 77, 0
1, 55584, Note_on_c, 0, 66, 80
1, 55584, Note_on_c, 0, 74, 80
1, 55622, Note_on_c, 0, 74, 0
1, 55632, Note_on_c, 0, 72, 80
1, 55660, Note_on_c, 0, 66, 0
1, 55670, Note_on_c, 0, 72, 0
1, 55680, Note_on_c, 0, 67, 80
1, 55680, Note_on_c, 0, 71, 80
1, 55718, Note_on_c, 0, 71, 0
1, 55728, Note_on_c, 0, 72, 80
1, 55766, Note_on_c, 0, 72, 0
1, 55776, Note_on_c, 0, 74, 80
1, 55814, Note_on_c, 0, 74, 0
1, 55824, Note_on_c, 0, 71, 80
1, 55833, Note_on_c, 0, 67, 0
1, 55862, Note_on_c, 0, 71, 0
1, 55872, Note_on_c, 0, 55, 80
1, 55872, Note_on_c, 0, 69, 80
1, 55910, Note_on_c, 0, 69, 0
1, 55920, Note_on_c, 0, 67, 80
1, 55958, Note_on_c, 0, 67, 0
1, 55968, Note_on_c, 0, 66, 80
1, 56006, Note_on_c, 0, 66, 0
1, 56016, Note_on_c, 0, 67, 80
1, 56025, Note_on_c, 0, 55, 0
1, 56054, Note_on_c, 0, 67, 0
1, 56064, Note_on_c, 0, 48, 80
1, 56064, Note_on_c, 0, 36, 80
1, 56160, Note_on_c, 0, 76, 80
1, 56160, Note_on_c, 0, 79, 80
1, 56236, Note_on_c, 0, 79, 0
1, 56236, Note_on_c, 0, 76, 0
1, 56256, Note_on_c, 0, 74, 80
1, 56256, Note_on_c, 0, 77, 80
1, 56332, Note_on_c, 0, 77, 0
1, 56332, Note_on_c, 0, 74, 0
1, 56352, Note_on_c, 0, 72, 80
1, 56352, Note_on_c, 0, 76, 80
1, 56371, Note_on_c, 0, 36, 0
1, 56371, Note_on_c, 0, 48, 0
1, 56428, Note_on_c, 0, 72, 0
1, 56428, Note_on_c, 0, 76, 0
1, 56448, Note_on_c, 0, 53, 80
1, 56448, Note_on_c, 0, 41, 80
1, 56544, Note_on_c, 0, 71, 80
1, 56544, Note_on_c, 0, 74, 80
1, 56620, Note_on_c, 0, 74, 0
1, 56620, Note_on_c, 0, 71, 0
1, 56640, Note_on_c, 0, 69, 80
1, 56640, Note_on_c, 0, 72, 80
1, 56716, Note_on_c, 0, 72, 0
1, 56716, Note_on_c, 0, 69, 0
1, 56736, Note_on_c, 0, 67, 80
1, 56736, Note_on_c, 0, 71, 80
1, 56755, Note_on_c, 0, 41, 0
1, 56755, Note_on_c, 0, 53, 0
1, 56812, Note_on_c, 0, 67, 0
1, 56812, Note_on_c, 0, 71, 0
1, 56832, Note_on_c, 0, 72, 80
1, 56832, Note_on_c, 0, 52, 80
1, 56870, Note_on_c, 0, 52, 0
1, 56880, Note_on_c, 0, 55, 80
1, 56908, Note_on_c, 0, 72, 0
1, 56918, Note_on_c, 0, 55, 0
1, 56928, Note_on_c, 0, 76, 80
1, 56928, Note_on_c, 0, 60, 80
1, 56966, Note_on_c, 0, 60, 0
1, 56976, Note_on_c, 0, 55, 80
1, 57004, Note_on_c, 0, 76, 0
1, 57014, Note_on_c, 0, 55, 0
1, 57024, Note_on_c, 0, 54, 80
1, 57024, Note_on_c, 0, 74, 80
1, 57062, Note_on_c, 0, 54, 0
1, 57072, Note_on_c, 0, 55, 80
1, 57100, Note_on_c, 0, 74, 0
1, 57110, Note_on_c, 0, 55, 0
1, 57120, Note_on_c, 0, 53, 80
1, 57120, Note_on_c, 0, 71, 80
1, 57158, Note_on_c, 0, 53, 0
1, 57168, Note_on_c, 0, 55, 80
1, 57196, Note_on_c, 0, 71, 0
1, 57206, Note_on_c, 0, 55, 0
1, 57216, Note_on_c, 0, 52, 80
1, 57216, Note_on_c, 0, 72, 80
1, 57254, Note_on_c, 0, 72, 0
1, 57264, Note_on_c, 0, 76, 80
1, 57292, Note_on_c, 0, 52, 0
1, 57302, Note_on_c, 0, 76, 0
1, 57312, Note_on_c, 0, 72, 80
1, 57312, Note_on_c, 0, 52, 80
1, 57350, Note_on_c, 0, 72, 0
1, 57360, Note_on_c, 0, 67, 80
1, 57388, Note_on_c, 0, 52, 0
1, 57398, Note_on_c, 0, 67, 0
1, 57408, Note_on_c, 0, 50, 80
1, 57408, Note_on_c, 0, 66, 80
1, 57446, Note_on_c, 0, 66, 0
1, 57456, Note_on_c, 0, 67, 80
1, 57484, Note_on_c, 0, 50, 0
1, 57494, Note_on_c, 0, 67, 0
1, 57504, Note_on_c, 0, 47, 80
1, 57504, Note_on_c, 0, 65, 80
1, 57542, Note_on_c, 0, 65, 0
1, 57552, Note_on_c, 0, 67, 80
1, 57580, Note_on_c, 0, 47, 0
1, 57590, Note_on_c, 0, 67, 0
1, 57600, Note_on_c, 0, 48, 80
1, 57600, Note_on_c, 0, 64, 80
1, 57638, Note_on_c, 0, 64, 0
1, 57648, Note_on_c, 0, 67, 80
1, 57676, Note_on_c, 0, 48, 0
1, 57686, Note_on_c, 0, 67, 0
1, 57696, Note_on_c, 0, 60, 80
1, 57696, Note_on_c, 0, 52, 80
1, 57734, Note_on_c, 0, 60, 0
1, 57744, Note_on_c, 0, 67, 80
1, 57772, Note_on_c, 0, 52, 0
1, 57782, Note_on_c, 0, 67, 0
1, 57792, Note_on_c, 0, 53, 80
1, 57792, Note_on_c, 0, 62, 80
1, 57830, Note_on_c, 0, 62, 0
1, 57840, Note_on_c, 0, 65, 80
1, 57868, Note_on_c, 0, 53, 0
1, 57878, Note_on_c, 0, 65, 0
1, 57888, Note_on_c, 0, 55, 80
1, 57888, Note_on_c, 0, 59, 80
1, 57926, Note_on_c, 0, 59, 0
1, 57936, Note_on_c, 0, 62, 80
1, 57964, Note_on_c, 0, 55, 0
1, 57974, Note_on_c, 0, 62, 0
1, 57984, Note_on_c, 0, 60, 80
1, 57984, Note_on_c, 0, 48, 80
1, 58060, Note_on_c, 0, 48, 0
1, 58080, Note_on_c, 0, 43, 80
1, 58137, Note_on_c, 0, 60, 0
1, 58156, Note_on_c, 0, 43, 0
1, 58176, Note_on_c, 0, 36, 80
1, 58272, Note_on_c, 0, 72, 80
1, 58291, Note_on_c, 0, 72, 0
1, 58296, Note_on_c, 0, 74, 80
1, 58315, Note_on_c, 0, 74, 0
1, 58320, Note_on_c, 0, 72, 80
1, 58329, Note_on_c, 0, 36, 0
1, 58339, Note_on_c, 0, 72, 0
1, 58344, Note_on_c, 0, 74, 80
1, 58363, Note_on_c, 0, 74, 0
1, 58368, Note_on_c, 0, 70, 80
1, 58368, Note_on_c, 0, 76, 80
1, 58368, Note_on_c, 0, 60, 80
1, 58368, Note_on_c, 0, 67, 80
1, 58406, Note_on_c, 0, 76, 0
1, 58416, Note_on_c, 0, 72, 80
1, 58454, Note_on_c, 0, 72, 0
1, 58464, Note_on_c, 0, 79, 80
1, 58502, Note_on_c, 0, 79, 0
1, 58512, Note_on_c, 0, 76, 80
1, 58521, Note_on_c, 0, 70, 0
1, 58521, Note_on_c, 0, 60, 0
1, 58521, Note_on_c, 0, 67, 0
1, 58550, Note_on_c, 0, 76, 0
1, 58560, Note_on_c, 0, 82, 80
1, 58598, Note_on_c, 0, 82, 0
1, 58608, Note_on_c, 0, 81, 80
1, 58646, Note_on_c, 0, 81, 0
1, 58656, Note_on_c, 0, 82, 80
1, 58694, Note_on_c, 0, 82, 0
1, 58704, Note_on_c, 0, 79, 80
1, 58742, Note_on_c, 0, 79, 0
1, 58752, Note_on_c, 0, 79, 80
1, 58752, Note_on_c, 0, 69, 80
1, 58752, Note_on_c, 0, 60, 80
1, 58752, Note_on_c, 0, 65, 80
1, 58790, Note_on_c, 0, 79, 0
1, 58800, Note_on_c, 0, 77, 80
1, 58838, Note_on_c, 0, 77, 0
1, 58848, Note_on_c, 0, 76, 80
1, 58886, Note_on_c, 0, 76, 0
1, 58896, Note_on_c, 0, 77, 80
1, 58905, Note_on_c, 0, 69, 0
1, 58905, Note_on_c, 0, 60, 0
1, 58905, Note_on_c, 0, 65, 0
1, 58934, Note_on_c, 0, 77, 0
1, 58944, Note_on_c, 0, 76, 80
1, 58982, Note_on_c, 0, 76, 0
1, 58992, Note_on_c, 0, 77, 80
1, 59030, Note_on_c, 0, 77, 0
1, 59040, Note_on_c, 0, 76, 80
1, 59078, Note_on_c, 0, 76, 0
1, 59088, Note_on_c, 0, 77, 80
1, 59126, Note_on_c, 0, 77, 0
1, 59136, Note_on_c, 0, 77, 80
1, 59136, Note_on_c, 0, 69, 80
1, 59136, Note_on_c, 0, 60, 80
1, 59136, Note_on_c, 0, 65, 80
1, 59174, Note_on_c, 0, 77, 0
1, 59184, Note_on_c, 0, 72, 80
1, 59222, Note_on_c, 0, 72, 0
1, 59232, Note_on_c, 0, 81, 80
1, 59270, Note_on_c, 0, 81, 0
1, 59280, Note_on_c, 0, 79, 80
1, 59289, Note_on_c, 0, 69, 0
1, 59289, Note_on_c, 0, 60, 0
1, 59289, Note_on_c, 0, 65, 0
1, 59318, Note_on_c, 0, 79, 0
1, 59328, Note_on_c, 0, 84, 80
1, 59366, Note_on_c, 0, 84, 0
1, 59376, Note_on_c, 0, 83, 80
1, 59414, Note_on_c, 0, 83, 0
1, 59424, Note_on_c, 0, 84, 80
1, 59462, Note_on_c, 0, 84, 0
1, 59472, Note_on_c, 0, 81, 80
1, 59510, Note_on_c, 0, 81, 0
1, 59520, Note_on_c, 0, 81, 80
1, 59520, Note_on_c, 0, 67, 80
1, 59520, Note_on_c, 0, 60, 80
1, 59520, Note_on_c, 0, 64, 80
1, 59558, Note_on_c, 0, 81, 0
1, 59568, Note_on_c, 0, 79, 80
1, 59606, Note_on_c, 0, 79, 0
1, 59616, Note_on_c, 0, 78, 80
1, 59654, Note_on_c, 0, 78, 0
1, 59664, Note_on_c, 0, 79, 80
1, 59673, Note_on_c, 0, 67, 0
1, 59673, Note_on_c, 0, 60, 0
1, 59673, Note_on_c, 0, 64, 0
1, 59702, Note_on_c, 0, 79, 0
1, 59712, Note_on_c, 0, 78, 80
1, 59750, Note_on_c, 0, 78, 0
1, 59760, Note_on_c, 0, 79, 80
1, 59798, Note_on_c, 0, 79, 0
1, 59808, Note_on_c, 0, 78, 80
1, 59846, Note_on_c, 0, 78, 0
1, 59856, Note_on_c, 0, 79, 80
1, 59894, Note_on_c, 0, 79, 0
1, 59904, Note_on_c, 0, 64, 80
1, 59904, Note_on_c, 0, 67, 80
1, 59904, Note_on_c, 0, 84, 80
1, 59942, Note_on_c, 0, 84, 0
1, 59952, Note_on_c, 0, 83, 80
1, 59990, Note_on_c, 0, 83, 0
1, 60000, Note_on_c, 0, 81, 80
1, 60038, Note_on_c, 0, 81, 0
1, 60048, Note_on_c, 0, 79, 80
1, 60057, Note_on_c, 0, 67, 0
1, 60057, Note_on_c, 0, 64, 0
1, 60086, Note_on_c, 0, 79, 0
1, 60096, Note_on_c, 0, 77, 80
1, 60134, Note_on_c, 0, 77, 0
1, 60144, Note_on_c, 0, 76, 80
1, 60182, Note_on_c, 0, 76, 0
1, 60192, Note_on_c, 0, 74, 80
1, 60230, Note_on_c, 0, 74, 0
1, 60240, Note_on_c, 0, 72, 80
1, 60278, Note_on_c, 0, 72, 0
1, 60288, Note_on_c, 0, 65, 80
1, 60288, Note_on_c, 0, 69, 80
1, 60288, Note_on_c, 0, 76, 80
1, 60326, Note_on_c, 0, 76, 0
1, 60336, Note_on_c, 0, 74, 80
1, 60374, Note_on_c, 0, 74, 0
1, 60384, Note_on_c, 0, 73, 80
1, 60422, Note_on_c, 0, 73, 0
1, 60432, Note_on_c, 0, 74, 80
1, 60441, Note_on_c, 0, 69, 0
1, 60441, Note_on_c, 0, 65, 0
1, 60470, Note_on_c, 0, 74, 0
1, 60480, Note_on_c, 0, 76, 80
1, 60518, Note_on_c, 0, 76, 0
1, 60528, Note_on_c, 0, 74, 80
1, 60566, Note_on_c, 0, 74, 0
1, 60576, Note_on_c, 0, 73, 80
1, 60614, Note_on_c, 0, 73, 0
1, 60624, Note_on_c, 0, 74, 80
1, 60662, Note_on_c, 0, 74, 0
1, 60672, Note_on_c, 0, 65, 80
1, 60672, Note_on_c, 0, 69, 80
1, 60672, Note_on_c, 0, 74, 80
1, 60710, Note_on_c, 0, 74, 0
1, 60720, Note_on_c, 0, 77, 80
1, 60758, Note_on_c, 0, 77, 0
1, 60768, Note_on_c, 0, 81, 80
1, 60806, Note_on_c, 0, 81, 0
1, 60816, Note_on_c, 0, 79, 80
1, 60854, Note_on_c, 0, 79, 0
1, 60864, Note_on_c, 0, 77, 80
1, 60902, Note_on_c, 0, 69, 0
1, 60902, Note_on_c, 0, 65, 0
1, 60902, Note_on_c, 0, 77, 0
1, 60912, Note_on_c, 0, 76, 80
1, 60950, Note_on_c, 0, 76, 0
1, 60960, Note_on_c, 0, 69, 80
1, 60960, Note_on_c, 0, 66, 80
1, 60960, Note_on_c, 0, 74, 80
1, 60998, Note_on_c, 0, 74, 0
1, 61008, Note_on_c, 0, 72, 80
1, 61036, Note_on_c, 0, 66, 0
1, 61036, Note_on_c, 0, 69, 0
1, 61046, Note_on_c, 0, 72, 0
1, 61056, Note_on_c, 0, 71, 80
1, 61056, Note_on_c, 0, 55, 80
1, 61094, Note_on_c, 0, 55, 0
1, 61104, Note_on_c, 0, 67, 80
1, 61132, Note_on_c, 0, 71, 0
1, 61142, Note_on_c, 0, 67, 0
1, 61152, Note_on_c, 0, 66, 80
1, 61190, Note_on_c, 0, 66, 0
1, 61200, Note_on_c, 0, 67, 80
1, 61238, Note_on_c, 0, 67, 0
1, 61248, Note_on_c, 0, 65, 80
1, 61248, Note_on_c, 0, 71, 80
1, 61286, Note_on_c, 0, 65, 0
1, 61296, Note_on_c, 0, 67, 80
1, 61324, Note_on_c, 0, 71, 0
1, 61334, Note_on_c, 0, 67, 0
1, 61344, Note_on_c, 0, 64, 80
1, 61344, Note_on_c, 0, 72, 80
1, 61382, Note_on_c, 0, 64, 0
1, 61392, Note_on_c, 0, 67, 80
1, 61420, Note_on_c, 0, 72, 0
1, 61430, Note_on_c, 0, 67, 0
1, 61440, Note_on_c, 0, 74, 80
1, 61440, Note_on_c, 0, 62, 80
1, 61478, Note_on_c, 0, 62, 0
1, 61488, Note_on_c, 0, 67, 80
1, 61516, Note_on_c, 0, 74, 0
1, 61526, Note_on_c, 0, 67, 0
1, 61536, Note_on_c, 0, 76, 80
1, 61536, Note_on_c, 0, 60, 80
1, 61574, Note_on_c, 0, 60, 0
1, 61584, Note_on_c, 0, 67, 80
1, 61612, Note_on_c, 0, 76, 0
1, 61622, Note_on_c, 0, 67, 0
1, 61632, Note_on_c, 0, 59, 80
1, 61632, Note_on_c, 0, 74, 80
1, 61632, Note_on_c, 0, 77, 80
1, 61670, Note_on_c, 0, 59, 0
1, 61680, Note_on_c, 0, 67, 80
1, 61708, Note_on_c, 0, 74, 0
1, 61708, Note_on_c, 0, 77, 0
1, 61718, Note_on_c, 0, 67, 0
1, 61728, Note_on_c, 0, 60, 80
1, 61728, Note_on_c, 0, 72, 80
1, 61728, Note_on_c, 0, 76, 80
1, 61766, Note_on_c, 0, 60, 0
1, 61776, Note_on_c, 0, 67, 80
1, 61804, Note_on_c, 0, 72, 0
1, 61804, Note_on_c, 0, 76, 0
1, 61814, Note_on_c, 0, 67, 0
1, 61824, Note_on_c, 0, 55, 80
1, 61824, Note_on_c, 0, 74, 80
1, 61824, Note_on_c, 0, 71, 80
1, 61862, Note_on_c, 0, 55, 0
1, 61872, Note_on_c, 0, 55, 80
1, 61900, Note_on_c, 0, 74, 0
1, 61900, Note_on_c, 0, 71, 0
1, 61910, Note_on_c, 0, 55, 0
1, 61920, Note_on_c, 0, 54, 80
1, 61958, Note_on_c, 0, 54, 0
1, 61968, Note_on_c, 0, 55, 80
1, 62006, Note_on_c, 0, 55, 0
1, 62016, Note_on_c, 0, 53, 80
1, 62016, Note_on_c, 0, 59, 80
1, 62054, Note_on_c, 0, 53, 0
1, 62064, Note_on_c, 0, 55, 80
1, 62092, Note_on_c, 0, 59, 0
1, 62102, Note_on_c, 0, 55, 0
1, 62112, Note_on_c, 0, 52, 80
1, 62112, Note_on_c, 0, 60, 80
1, 62131, Note_on_c, 0, 60, 0
1, 62136, Note_on_c, 0, 62, 80
1, 62150, Note_on_c, 0, 52, 0
1, 62155, Note_on_c, 0, 62, 0
1, 62160, Note_on_c, 0, 55, 80
1, 62160, Note_on_c, 0, 60, 80
1, 62179, Note_on_c, 0, 60, 0
1, 62184, Note_on_c, 0, 62, 80
1, 62198, Note_on_c, 0, 55, 0
1, 62203, Note_on_c, 0, 62, 0
1, 62208, Note_on_c, 0, 62, 80
1, 62208, Note_on_c, 0, 50, 80
1, 62246, Note_on_c, 0, 50, 0
1, 62256, Note_on_c, 0, 55, 80
1, 62284, Note_on_c, 0, 62, 0
1, 62294, Note_on_c, 0, 55, 0
1, 62304, Note_on_c, 0, 48, 80
1, 62304, Note_on_c, 0, 64, 80
1, 62327, Note_on_c, 0, 64, 0
1, 62328, Note_on_c, 0, 65, 80
1, 62342, Note_on_c, 0, 48, 0
1, 62351, Note_on_c, 0, 65, 0
1, 62352, Note_on_c, 0, 64, 80
1, 62352, Note_on_c, 0, 55, 80
1, 62375, Note_on_c, 0, 64, 0
1, 62376, Note_on_c, 0, 65, 80
1, 62390, Note_on_c, 0, 55, 0
1, 62399, Note_on_c, 0, 65, 0
1, 62400, Note_on_c, 0, 47, 80
1, 62400, Note_on_c, 0, 62, 80
1, 62400, Note_on_c, 0, 65, 80
1, 62438, Note_on_c, 0, 47, 0
1, 62448, Note_on_c, 0, 55, 80
1, 62476, Note_on_c, 0, 62, 0
1, 62476, Note_on_c, 0, 65, 0
1, 62486, Note_on_c, 0, 55, 0
1, 62496, Note_on_c, 0, 48, 80
1, 62496, Note_on_c, 0, 60, 80
1, 62496, Note_on_c, 0, 64, 80
1, 62534, Note_on_c, 0, 48, 0
1, 62544, Note_on_c, 0, 55, 80
1, 62572, Note_on_c, 0, 60, 0
1, 62572, Note_on_c, 0, 64, 0
1, 62582, Note_on_c, 0, 55, 0
1, 62592, Note_on_c, 0, 43, 80
1, 62592, Note_on_c, 0, 62, 80
1, 62592, Note_on_c, 0, 59, 80
1, 62745, Note_on_c, 0, 59, 0
1, 62745, Note_on_c, 0, 62, 0
1, 62745, Note_on_c, 0, 43, 0
1, 62880, Note_on_c, 0, 79, 80
1, 62956, Note_on_c, 0, 79, 0
1, 62976, Note_on_c, 0, 79, 80
1, 63052, Note_on_c, 0, 79, 0
1, 63072, Note_on_c, 0, 79, 80
1, 63148, Note_on_c, 0, 79, 0
1, 63168, Note_on_c, 0, 79, 80
1, 63244, Note_on_c, 0, 79, 0
1, 63264, Note_on_c, 0, 79, 80
1, 63340, Note_on_c, 0, 79, 0
1, 63360, Note_on_c, 0, 84, 80
1, 63456, Note_on_c, 0, 76, 80
1, 63456, Note_on_c, 0, 69, 80
1, 63532, Note_on_c, 0, 69, 0
1, 63532, Note_on_c, 0, 76, 0
1, 63552, Note_on_c, 0, 78, 80
1, 63590, Note_on_c, 0, 84, 0
1, 63628, Note_on_c, 0, 78, 0
1, 63648, Note_on_c, 0, 67, 80
1, 63648, Note_on_c, 0, 79, 80
1, 63648, Note_on_c, 0, 83, 80
1, 63724, Note_on_c, 0, 83, 0
1, 63724, Note_on_c, 0, 79, 0
1, 63724, Note_on_c, 0, 67, 0
1, 63744, Note_on_c, 0, 76, 80
1, 63820, Note_on_c, 0, 76, 0
1, 63840, Note_on_c, 0, 76, 80
1, 63916, Note_on_c, 0, 76, 0
1, 63936, Note_on_c, 0, 76, 80
1, 64012, Note_on_c, 0, 76, 0
1, 64032, Note_on_c, 0, 76, 80
1, 64108, Note_on_c, 0, 76, 0
1, 64128, Note_on_c, 0, 81, 80
1, 64224, Note_on_c, 0, 65, 80
1, 64224, Note_on_c, 0, 72, 80
1, 64300, Note_on_c, 0, 72, 0
1, 64300, Note_on_c, 0, 65, 0
1, 64320, Note_on_c, 0, 74, 80
1, 64358, Note_on_c, 0, 81, 0
1, 64396, Note_on_c, 0, 74, 0
1, 64416, Note_on_c, 0, 64, 80
1, 64416, Note_on_c, 0, 76, 80
1, 64416, Note_on_c, 0, 79, 80
1, 64492, Note_on_c, 0, 79, 0
1, 64492, Note_on_c, 0, 76, 0
1, 64492, Note_on_c, 0, 64, 0
1, 64512, Note_on_c, 0, 72, 80
1, 64588, Note_on_c, 0, 72, 0
1, 64608, Note_on_c, 0, 72, 80
1, 64684, Note_on_c, 0, 72, 0
1, 64704, Note_on_c, 0, 72, 80
1, 64780, Note_on_c, 0, 72, 0
1, 64800, Note_on_c, 0, 72, 80
1, 64876, Note_on_c, 0, 72, 0
1, 64896, Note_on_c, 0, 77, 80
1, 64992, Note_on_c, 0, 62, 80
1, 64992, Note_on_c, 0, 69, 80
1, 65049, Note_on_c, 0, 77, 0
1, 65068, Note_on_c, 0, 62, 0
1, 65068, Note_on_c, 0, 69, 0
1, 65088, Note_on_c, 0, 71, 80
1, 65164, Note_on_c, 0, 71, 0
1, 65184, Note_on_c, 0, 60, 80
1, 65184, Note_on_c, 0, 72, 80
1, 65184, Note_on_c, 0, 76, 80
1, 65260, Note_on_c, 0, 76, 0
1, 65260, Note_on_c, 0, 72, 0
1, 65260, Note_on_c, 0, 60, 0
1, 65280, Note_on_c, 0, 81, 80
1, 65376, Note_on_c, 0, 65, 80
1, 65433, Note_on_c, 0, 81, 0
1, 65452, Note_on_c, 0, 65, 0
1, 65472, Note_on_c, 0, 66, 80
1, 65568, Note_on_c, 0, 72, 80
1, 65625, Note_on_c, 0, 66, 0
1, 65644, Note_on_c, 0, 72, 0
1, 65664, Note_on_c, 0, 67, 80
1, 65664, Note_on_c, 0, 71, 80
1, 65740, Note_on_c, 0, 67, 0
1, 65760, Note_on_c, 0, 78, 80
1, 65817, Note_on_c, 0, 71, 0
1, 65836, Note_on_c, 0, 78, 0
1, 65856, Note_on_c, 0, 79, 80
1, 65952, Note_on_c, 0, 72, 80
1, 65952, Note_on_c, 0, 76, 80
1, 66009, Note_on_c, 0, 79, 0
1, 66028, Note_on_c, 0, 72, 0
1, 66028, Note_on_c, 0, 76, 0
1, 66048, Note_on_c, 0, 71, 80
1, 66048, Note_on_c, 0, 74, 80
1, 66144, Note_on_c, 0, 66, 80
1, 66201, Note_on_c, 0, 74, 0
1, 66201, Note_on_c, 0, 71, 0
1, 66220, Note_on_c, 0, 66, 0
1, 66240, Note_on_c, 0, 67, 80
1, 66336, Note_on_c, 0, 60, 80
1, 66336, Note_on_c, 0, 63, 80
1, 66393, Note_on_c, 0, 67, 0
1, 66412, Note_on_c, 0, 60, 0
1, 66412, Note_on_c, 0, 63, 0
1, 66432, Note_on_c, 0, 59, 80
1, 66432, Note_on_c, 0, 62, 80
1, 66528, Note_on_c, 0, 56, 80
1, 66528, Note_on_c, 0, 44, 80
1, 66585, Note_on_c, 0, 62, 0
1, 66585, Note_on_c, 0, 59, 0
1, 66604, Note_on_c, 0, 56, 0
1, 66604, Note_on_c, 0, 44, 0
1, 66624, Note_on_c, 0, 45, 80
1, 66624, Note_on_c, 0, 57, 80
1, 66700, Note_on_c, 0, 57, 0
1, 66700, Note_on_c, 0, 45, 0
1, 66720, Note_on_c, 0, 47, 80
1, 66720, Note_on_c, 0, 59, 80
1, 66796, Note_on_c, 0, 59, 0
1, 66796, Note_on_c, 0, 47, 0
1, 66816, Note_on_c, 0, 48, 80
1, 66816, Note_on_c, 0, 60, 80
1, 66892, Note_on_c, 0, 60, 0
1, 66892, Note_on_c, 0, 48, 0
1, 66912, Note_on_c, 0, 40, 80
1, 66912, Note_on_c, 0, 52, 80
1, 66988, Note_on_c, 0, 52, 0
1, 66988, Note_on_c, 0, 40, 0
1, 67008, Note_on_c, 0, 41, 80
1, 67008, Note_on_c, 0, 53, 80
1, 67084, Note_on_c, 0, 53, 0
1, 67084, Note_on_c, 0, 41, 0
1, 67104, Note_on_c, 0, 43, 80
1, 67104, Note_on_c, 0, 55, 80
1, 67180, Note_on_c, 0, 55, 0
1, 67180, Note_on_c, 0, 43, 0
1, 67200, Note_on_c, 0, 57, 80
1, 67200, Note_on_c, 0, 45, 80
1, 67276, Note_on_c, 0, 45, 0
1, 67276, Note_on_c, 0, 57, 0
1, 67296, Note_on_c, 0, 72, 80
1, 67296, Note_on_c, 0, 69, 80
1, 67334, Note_on_c, 0, 72, 0
1, 67344, Note_on_c, 0, 77, 80
1, 67372, Note_on_c, 0, 69, 0
1, 67382, Note_on_c, 0, 77, 0
1, 67392, Note_on_c, 0, 67, 80
1, 67392, Note_on_c, 0, 76, 80
1, 67430, Note_on_c, 0, 76, 0
1, 67440, Note_on_c, 0, 71, 80
1, 67468, Note_on_c, 0, 67, 0
1, 67478, Note_on_c, 0, 71, 0
1, 67488, Note_on_c, 0, 65, 80
1, 67488, Note_on_c, 0, 69, 80
1, 67526, Note_on_c, 0, 69, 0
1, 67536, Note_on_c, 0, 74, 80
1, 67564, Note_on_c, 0, 65, 0
1, 67574, Note_on_c, 0, 74, 0
1, 67584, Note_on_c, 0, 64, 80
1, 67584, Note_on_c, 0, 72, 80
1, 67622, Note_on_c, 0, 72, 0
1, 67632, Note_on_c, 0, 67, 80
1, 67660, Note_on_c, 0, 64, 0
1, 67670, Note_on_c, 0, 67, 0
1, 67680, Note_on_c, 0, 65, 80
1, 67680, Note_on_c, 0, 62, 80
1, 67718, Note_on_c, 0, 65, 0
1, 67728, Note_on_c, 0, 71, 80
1, 67756, Note_on_c, 0, 62, 0
1, 67766, Note_on_c, 0, 71, 0
1, 67776, Note_on_c, 0, 60, 80
1, 67776, Note_on_c, 0, 69, 80
1, 67814, Note_on_c, 0, 69, 0
1, 67824, Note_on_c, 0, 64, 80
1, 67852, Note_on_c, 0, 60, 0
1, 67862, Note_on_c, 0, 64, 0
1, 67872, Note_on_c, 0, 59, 80
1, 67872, Note_on_c, 0, 62, 80
1, 67910, Note_on_c, 0, 62, 0
1, 67920, Note_on_c, 0, 67, 80
1, 67948, Note_on_c, 0, 59, 0
1, 67958, Note_on_c, 0, 67, 0
1, 67968, Note_on_c, 0, 57, 80
1, 67968, Note_on_c, 0, 65, 80
1, 68006, Note_on_c, 0, 65, 0
1, 68016, Note_on_c, 0, 60, 80
1, 68044, Note_on_c, 0, 57, 0
1, 68054, Note_on_c, 0, 60, 0
1, 68064, Note_on_c, 0, 59, 80
1, 68064, Note_on_c, 0, 55, 80
1, 68102, Note_on_c, 0, 59, 0
1, 68112, Note_on_c, 0, 64, 80
1, 68140, Note_on_c, 0, 55, 0
1, 68150, Note_on_c, 0, 64, 0
1, 68160, Note_on_c, 0, 53, 80
1, 68160, Note_on_c, 0, 62, 80
1, 68198, Note_on_c, 0, 62, 0
1, 68208, Note_on_c, 0, 57, 80
1, 68236, Note_on_c, 0, 53, 0
1, 68246, Note_on_c, 0, 57, 0
1, 68256, Note_on_c, 0, 52, 80
1, 68256, Note_on_c, 0, 55, 80
1, 68294, Note_on_c, 0, 55, 0
1, 68304, Note_on_c, 0, 60, 80
1, 68332, Note_on_c, 0, 52, 0
1, 68342, Note_on_c, 0, 60, 0
1, 68352, Note_on_c, 0, 53, 80
1, 68448, Note_on_c, 0, 81, 80
1, 68448, Note_on_c, 0, 77, 80
1, 68505, Note_on_c, 0, 53, 0
1, 68524, Note_on_c, 0, 81, 0
1, 68524, Note_on_c, 0, 77, 0
1, 68544, Note_on_c, 0, 55, 80
1, 68544, Note_on_c, 0, 79, 80
1, 68544, Note_on_c, 0, 76, 80
1, 68620, Note_on_c, 0, 76, 0
1, 68620, Note_on_c, 0, 79, 0
1, 68640, Note_on_c, 0, 74, 80
1, 68640, Note_on_c, 0, 71, 80
1, 68697, Note_on_c, 0, 55, 0
1, 68716, Note_on_c, 0, 74, 0
1, 68716, Note_on_c, 0, 71, 0
1, 68736, Note_on_c, 0, 48, 80
1, 68736, Note_on_c, 0, 72, 80
1, 68774, Note_on_c, 0, 48, 0
1, 68784, Note_on_c, 0, 60, 80
1, 68822, Note_on_c, 0, 60, 0
1, 68832, Note_on_c, 0, 59, 80
1, 68870, Note_on_c, 0, 59, 0
1, 68880, Note_on_c, 0, 60, 80
1, 68889, Note_on_c, 0, 72, 0
1, 68916, Note_on_c, 0, 65, 80
1, 68918, Note_on_c, 0, 60, 0
1, 68928, Note_on_c, 0, 65, 0
1, 68928, Note_on_c, 0, 57, 80
1, 68928, Note_on_c, 0, 77, 80
1, 68966, Note_on_c, 0, 57, 0
1, 68976, Note_on_c, 0, 60, 80
1, 69004, Note_on_c, 0, 77, 0
1, 69014, Note_on_c, 0, 60, 0
1, 69024, Note_on_c, 0, 59, 80
1, 69062, Note_on_c, 0, 59, 0
1, 69072, Note_on_c, 0, 60, 80
1, 69110, Note_on_c, 0, 60, 0
1, 69120, Note_on_c, 0, 55, 80
1, 69120, Note_on_c, 0, 64, 80
1, 69120, Note_on_c, 0, 76, 80
1, 69132, Note_on_c, 0, 64, 0
1, 69158, Note_on_c, 0, 55, 0
1, 69168, Note_on_c, 0, 60, 80
1, 69196, Note_on_c, 0, 76, 0
1, 69206, Note_on_c, 0, 60, 0
1, 69216, Note_on_c, 0, 59, 80
1, 69254, Note_on_c, 0, 59, 0
1, 69264, Note_on_c, 0, 60, 80
1, 69302, Note_on_c, 0, 60, 0
1, 69312, Note_on_c, 0, 53, 80
1, 69312, Note_on_c, 0, 62, 80
1, 69312, Note_on_c, 0, 74, 80
1, 69324, Note_on_c, 0, 62, 0
1, 69350, Note_on_c, 0, 53, 0
1, 69360, Note_on_c, 0, 60, 80
1, 69388, Note_on_c, 0, 74, 0
1, 69398, Note_on_c, 0, 60, 0
1, 69408, Note_on_c, 0, 59, 80
1, 69446, Note_on_c, 0, 59, 0
1, 69456, Note_on_c, 0, 60, 80
1, 69494, Note_on_c, 0, 60, 0
1, 69504, Note_on_c, 0, 52, 80
1, 69504, Note_on_c, 0, 60, 80
1, 69504, Note_on_c, 0, 72, 80
1, 69516, Note_on_c, 0, 60, 0
1, 69542, Note_on_c, 0, 52, 0
1, 69552, Note_on_c, 0, 60, 80
1, 69580, Note_on_c, 0, 72, 0
1, 69590, Note_on_c, 0, 60, 0
1, 69600, Note_on_c, 0, 59, 80
1, 69636, Note_on_c, 0, 65, 80
1, 69638, Note_on_c, 0, 59, 0
1, 69648, Note_on_c, 0, 65, 0
1, 69648, Note_on_c, 0, 77, 80
1, 69648, Note_on_c, 0, 60, 80
1, 69686, Note_on_c, 0, 60, 0
1, 69696, Note_on_c, 0, 57, 80
1, 69724, Note_on_c, 0, 77, 0
1, 69734, Note_on_c, 0, 57, 0
1, 69744, Note_on_c, 0, 60, 80
1, 69744, Note_on_c, 0, 77, 80
1, 69782, Note_on_c, 0, 60, 0
1, 69792, Note_on_c, 0, 59, 80
1, 69820, Note_on_c, 0, 77, 0
1, 69830, Note_on_c, 0, 59, 0
1, 69840, Note_on_c, 0, 60, 80
1, 69878, Note_on_c, 0, 60, 0
1, 69888, Note_on_c, 0, 55, 80
1, 69888, Note_on_c, 0, 64, 80
1, 69888, Note_on_c, 0, 72, 80
1, 69900, Note_on_c, 0, 64, 0
1, 69926, Note_on_c, 0, 55, 0
1, 69936, Note_on_c, 0, 60, 80
1, 69964, Note_on_c, 0, 72, 0
1, 69974, Note_on_c, 0, 60, 0
1, 69984, Note_on_c, 0, 72, 80
1, 69984, Note_on_c, 0, 59, 80
1, 70022, Note_on_c, 0, 59, 0
1, 70032, Note_on_c, 0, 60, 80
1, 70060, Note_on_c, 0, 72, 0
1, 70068, Note_on_c, 0, 62, 80
1, 70070, Note_on_c, 0, 60, 0
1, 70080, Note_on_c, 0, 62, 0
1, 70080, Note_on_c, 0, 53, 80
1, 70080, Note_on_c, 0, 74, 80
1, 70118, Note_on_c, 0, 53, 0
1, 70128, Note_on_c, 0, 60, 80
1, 70156, Note_on_c, 0, 74, 0
1, 70166, Note_on_c, 0, 60, 0
1, 70176, Note_on_c, 0, 59, 80
1, 70176, Note_on_c, 0, 74, 80
1, 70214, Note_on_c, 0, 59, 0
1, 70224, Note_on_c, 0, 60, 80
1, 70252, Note_on_c, 0, 74, 0
1, 70262, Note_on_c, 0, 60, 0
1, 70272, Note_on_c, 0, 79, 80
1, 70272, Note_on_c, 0, 52, 80
1, 70272, Note_on_c, 0, 67, 80
1, 70284, Note_on_c, 0, 67, 0
1, 70310, Note_on_c, 0, 52, 0
1, 70320, Note_on_c, 0, 60, 80
1, 70348, Note_on_c, 0, 79, 0
1, 70358, Note_on_c, 0, 60, 0
1, 70368, Note_on_c, 0, 59, 80
1, 70404, Note_on_c, 0, 76, 80
1, 70406, Note_on_c, 0, 59, 0
1, 70416, Note_on_c, 0, 76, 0
1, 70416, Note_on_c, 0, 77, 80
1, 70416, Note_on_c, 0, 60, 80
1, 70454, Note_on_c, 0, 60, 0
1, 70464, Note_on_c, 0, 69, 80
1, 70492, Note_on_c, 0, 77, 0
1, 70502, Note_on_c, 0, 69, 0
1, 70512, Note_on_c, 0, 72, 80
1, 70512, Note_on_c, 0, 77, 80
1, 70550, Note_on_c, 0, 72, 0
1, 70560, Note_on_c, 0, 71, 80
1, 70588, Note_on_c, 0, 77, 0
1, 70598, Note_on_c, 0, 71, 0
1, 70608, Note_on_c, 0, 72, 80
1, 70646, Note_on_c, 0, 72, 0
1, 70656, Note_on_c, 0, 67, 80
1, 70656, Note_on_c, 0, 75, 80
1, 70656, Note_on_c, 0, 76, 80
1, 70668, Note_on_c, 0, 75, 0
1, 70694, Note_on_c, 0, 67, 0
1, 70704, Note_on_c, 0, 72, 80
1, 70732, Note_on_c, 0, 76, 0
1, 70742, Note_on_c, 0, 72, 0
1, 70752, Note_on_c, 0, 76, 80
1, 70752, Note_on_c, 0, 71, 80
1, 70790, Note_on_c, 0, 71, 0
1, 70800, Note_on_c, 0, 72, 80
1, 70828, Note_on_c, 0, 76, 0
1, 70836, Note_on_c, 0, 73, 80
1, 70838, Note_on_c, 0, 72, 0
1, 70848, Note_on_c, 0, 73, 0
1, 70848, Note_on_c, 0, 65, 80
1, 70848, Note_on_c, 0, 74, 80
1, 70886, Note_on_c, 0, 65, 0
1, 70896, Note_on_c, 0, 72, 80
1, 70924, Note_on_c, 0, 74, 0
1, 70934, Note_on_c, 0, 72, 0
1, 70944, Note_on_c, 0, 69, 80
1, 70944, Note_on_c, 0, 74, 80
1, 70982, Note_on_c, 0, 69, 0
1, 70992, Note_on_c, 0, 72, 80
1, 71020, Note_on_c, 0, 74, 0
1, 71030, Note_on_c, 0, 72, 0
1, 71040, Note_on_c, 0, 64, 80
1, 71040, Note_on_c, 0, 79, 80
1, 71040, Note_on_c, 0, 78, 80
1, 71052, Note_on_c, 0, 78, 0
1, 71078, Note_on_c, 0, 64, 0
1, 71088, Note_on_c, 0, 72, 80
1, 71116, Note_on_c, 0, 79, 0
1, 71126, Note_on_c, 0, 72, 0
1, 71136, Note_on_c, 0, 71, 80
1, 71174, Note_on_c, 0, 71, 0
1, 71184, Note_on_c, 0, 72, 80
1, 71222, Note_on_c, 0, 72, 0
1, 71232, Note_on_c, 0, 77, 80
1, 71232, Note_on_c, 0, 65, 80
1, 71232, Note_on_c, 0, 69, 80
1, 71232, Note_on_c, 0, 74, 80
1, 71270, Note_on_c, 0, 77, 0
1, 71280, Note_on_c, 0, 79, 80
1, 71318, Note_on_c, 0, 79, 0
1, 71328, Note_on_c, 0, 81, 80
1, 71366, Note_on_c, 0, 81, 0
1, 71376, Note_on_c, 0, 77, 80
1, 71385, Note_on_c, 0, 65, 0
1, 71385, Note_on_c, 0, 69, 0
1, 71385, Note_on_c, 0, 74, 0
1, 71414, Note_on_c, 0, 77, 0
1, 71424, Note_on_c, 0, 67, 80
1, 71424, Note_on_c, 0, 76, 80
1, 71424, Note_on_c, 0, 72, 80
1, 71462, Note_on_c, 0, 76, 0
1, 71472, Note_on_c, 0, 77, 80
1, 71510, Note_on_c, 0, 77, 0
1, 71520, Note_on_c, 0, 79, 80
1, 71558, Note_on_c, 0, 79, 0
1, 71568, Note_on_c, 0, 76, 80
1, 71577, Note_on_c, 0, 67, 0
1, 71577, Note_on_c, 0, 72, 0
1, 71606, Note_on_c, 0, 76, 0
1, 71616, Note_on_c, 0, 67, 80
1, 71616, Note_on_c, 0, 71, 80
1, 71616, Note_on_c, 0, 74, 80
1, 71654, Note_on_c, 0, 74, 0
1, 71664, Note_on_c, 0, 76, 80
1, 71702, Note_on_c, 0, 76, 0
1, 71712, Note_on_c, 0, 77, 80
1, 71750, Note_on_c, 0, 77, 0
1, 71760, Note_on_c, 0, 74, 80
1, 71769, Note_on_c, 0, 71, 0
1, 71769, Note_on_c, 0, 67, 0
1, 71798, Note_on_c, 0, 74, 0
1, 71808, Note_on_c, 0, 72, 80
1, 71904, Note_on_c, 0, 78, 80
1, 71961, Note_on_c, 0, 72, 0
1, 71980, Note_on_c, 0, 78, 0
1, 72000, Note_on_c, 0, 79, 80
1, 72096, Note_on_c, 0, 72, 80
1, 72096, Note_on_c, 0, 75, 80
1, 72153, Note_on_c, 0, 79, 0
1, 72172, Note_on_c, 0, 72, 0
1, 72172, Note_on_c, 0, 75, 0
1, 72192, Note_on_c, 0, 71, 80
1, 72192, Note_on_c, 0, 74, 80
1, 72288, Note_on_c, 0, 54, 80
1, 72364, Note_on_c, 0, 54, 0
1, 72372, Note_on_c, 0, 74, 0
1, 72372, Note_on_c, 0, 71, 0
1, 72384, Note_on_c, 0, 55, 80
1, 72480, Note_on_c, 0, 60, 80
1, 72480, Note_on_c, 0, 63, 80
1, 72537, Note_on_c, 0, 55, 0
1, 72556, Note_on_c, 0, 60, 0
1, 72556, Note_on_c, 0, 63, 0
1, 72576, Note_on_c, 0, 59, 80
1, 72576, Note_on_c, 0, 62, 80
1, 72672, Note_on_c, 0, 42, 80
1, 72729, Note_on_c, 0, 62, 0
1, 72729, Note_on_c, 0, 59, 0
1, 72748, Note_on_c, 0, 42, 0
1, 72768, Note_on_c, 0, 43, 80
1, 72921, Note_on_c, 0, 43, 0
1, 73248, Note_on_c, 0, 79, 80
1, 73324, Note_on_c, 0, 79, 0
1, 73344, Note_on_c, 0, 79, 80
1, 73420, Note_on_c, 0, 79, 0
1, 73440, Note_on_c, 0, 79, 80
1, 73516, Note_on_c, 0, 79, 0
1, 73536, Note_on_c, 0, 79, 80
1, 73612, Note_on_c, 0, 79, 0
1, 73632, Note_on_c, 0, 79, 80
1, 73708, Note_on_c, 0, 79, 0
1, 73728, Note_on_c, 0, 84, 80
1, 73804, Note_on_c, 0, 84, 0
1, 73824, Note_on_c, 0, 81, 80
1, 73900, Note_on_c, 0, 81, 0
1, 73920, Note_on_c, 0, 78, 80
1, 73996, Note_on_c, 0, 78, 0
1, 74016, Note_on_c, 0, 79, 80
1, 74016, Note_on_c, 0, 83, 80
1, 74092, Note_on_c, 0, 83, 0
1, 74092, Note_on_c, 0, 79, 0
1, 74112, Note_on_c, 0, 81, 80
1, 74188, Note_on_c, 0, 81, 0
1, 74208, Note_on_c, 0, 77, 80
1, 74284, Note_on_c, 0, 77, 0
1, 74304, Note_on_c, 0, 75, 80
1, 74380, Note_on_c, 0, 75, 0
1, 74400, Note_on_c, 0, 76, 80
1, 74400, Note_on_c, 0, 79, 80
1, 74476, Note_on_c, 0, 79, 0
1, 74476, Note_on_c, 0, 76, 0
1, 74496, Note_on_c, 0, 77, 80
1, 74572, Note_on_c, 0, 77, 0
1, 74592, Note_on_c, 0, 74, 80
1, 74668, Note_on_c, 0, 74, 0
1, 74688, Note_on_c, 0, 71, 80
1, 74764, Note_on_c, 0, 71, 0
1, 74784, Note_on_c, 0, 43, 80
1, 74784, Note_on_c, 0, 55, 80
1, 74784, Note_on_c, 0, 76, 80
1, 74784, Note_on_c, 0, 72, 80
1, 74860, Note_on_c, 0, 72, 0
1, 74860, Note_on_c, 0, 76, 0
1, 74860, Note_on_c, 0, 55, 0
1, 74860, Note_on_c, 0, 43, 0
1, 74880, Note_on_c, 0, 43, 80
1, 74880, Note_on_c, 0, 55, 80
1, 74956, Note_on_c, 0, 55, 0
1, 74956, Note_on_c, 0, 43, 0
1, 74976, Note_on_c, 0, 43, 80
1, 74976, Note_on_c, 0, 55, 80
1, 75052, Note_on_c, 0, 55, 0
1, 75052, Note_on_c, 0, 43, 0
1, 75072, Note_on_c, 0, 43, 80
1, 75072, Note_on_c, 0, 55, 80
1, 75148, Note_on_c, 0, 55, 0
1, 75148, Note_on_c, 0, 43, 0
1, 75168, Note_on_c, 0, 43, 80
1, 75168, Note_on_c, 0, 55, 80
1, 75244, Note_on_c, 0, 55, 0
1, 75244, Note_on_c, 0, 43, 0
1, 75264, Note_on_c, 0, 48, 80
1, 75264, Note_on_c, 0, 60, 80
1, 75360, Note_on_c, 0, 76, 80
1, 75360, Note_on_c, 0, 69, 80
1, 75436, Note_on_c, 0, 69, 0
1, 75436, Note_on_c, 0, 76, 0
1, 75456, Note_on_c, 0, 78, 80
1, 75494, Note_on_c, 0, 60, 0
1, 75494, Note_on_c, 0, 48, 0
1, 75532, Note_on_c, 0, 78, 0
1, 75552, Note_on_c, 0, 47, 80
1, 75552, Note_on_c, 0, 59, 80
1, 75552, Note_on_c, 0, 67, 80
1, 75552, Note_on_c, 0, 79, 80
1, 75628, Note_on_c, 0, 79, 0
1, 75628, Note_on_c, 0, 67, 0
1, 75628, Note_on_c, 0, 59, 0
1, 75628, Note_on_c, 0, 47, 0
1, 75648, Note_on_c, 0, 40, 80
1, 75648, Note_on_c, 0, 52, 80
1, 75724, Note_on_c, 0, 52, 0
1, 75724, Note_on_c, 0, 40, 0
1, 75744, Note_on_c, 0, 40, 80
1, 75744, Note_on_c, 0, 52, 80
1, 75820, Note_on_c, 0, 52, 0
1, 75820, Note_on_c, 0, 40, 0
1, 75840, Note_on_c, 0, 40, 80
1, 75840, Note_on_c, 0, 52, 80
1, 75916, Note_on_c, 0, 52, 0
1, 75916, Note_on_c, 0, 40, 0
1, 75936, Note_on_c, 0, 40, 80
1, 75936, Note_on_c, 0, 52, 80
1, 76012, Note_on_c, 0, 52, 0
1, 76012, Note_on_c, 0, 40, 0
1, 76032, Note_on_c, 0, 45, 80
1, 76032, Note_on_c, 0, 57, 80
1, 76128, Note_on_c, 0, 72, 80
1, 76128, Note_on_c, 0, 66, 80
1, 76204, Note_on_c, 0, 66, 0
1, 76204, Note_on_c, 0, 72, 0
1, 76224, Note_on_c, 0, 75, 80
1, 76262, Note_on_c, 0, 57, 0
1, 76262, Note_on_c, 0, 45, 0
1, 76300, Note_on_c, 0, 75, 0
1, 76320, Note_on_c, 0, 43, 80
1, 76320, Note_on_c, 0, 55, 80
1, 76320, Note_on_c, 0, 64, 80
1, 76320, Note_on_c, 0, 76, 80
1, 76396, Note_on_c, 0, 76, 0
1, 76396, Note_on_c, 0, 64, 0
1, 76396, Note_on_c, 0, 55, 0
1, 76396, Note_on_c, 0, 43, 0
1, 76416, Note_on_c, 0, 36, 80
1, 76416, Note_on_c, 0, 48, 80
1, 76492, Note_on_c, 0, 48, 0
1, 76492, Note_on_c, 0, 36, 0
1, 76512, Note_on_c, 0, 36, 80
1, 76512, Note_on_c, 0, 48, 80
1, 76588, Note_on_c, 0, 48, 0
1, 76588, Note_on_c, 0, 36, 0
1, 76608, Note_on_c, 0, 36, 80
1, 76608, Note_on_c, 0, 48, 80
1, 76684, Note_on_c, 0, 48, 0
1, 76684, Note_on_c, 0, 36, 0
1, 76704, Note_on_c, 0, 36, 80
1, 76704, Note_on_c, 0, 48, 80
1, 76780, Note_on_c, 0, 48, 0
1, 76780, Note_on_c, 0, 36, 0
1, 76800, Note_on_c, 0, 41, 80
1, 76800, Note_on_c, 0, 53, 80
1, 76896, Note_on_c, 0, 62, 80
1, 76896, Note_on_c, 0, 69, 80
1, 76972, Note_on_c, 0, 69, 0
1, 76972, Note_on_c, 0, 62, 0
1, 76992, Note_on_c, 0, 71, 80
1, 77030, Note_on_c, 0, 53, 0
1, 77030, Note_on_c, 0, 41, 0
1, 77068, Note_on_c, 0, 71, 0
1, 77088, Note_on_c, 0, 40, 80
1, 77088, Note_on_c, 0, 52, 80
1, 77088, Note_on_c, 0, 60, 80
1, 77088, Note_on_c, 0, 72, 80
1, 77164, Note_on_c, 0, 72, 0
1, 77164, Note_on_c, 0, 60, 0
1, 77164, Note_on_c, 0, 52, 0
1, 77164, Note_on_c, 0, 40, 0
1, 77184, Note_on_c, 0, 53, 80
1, 77184, Note_on_c, 0, 41, 80
1, 77280, Note_on_c, 0, 77, 80
1, 77280, Note_on_c, 0, 81, 80
1, 77337, Note_on_c, 0, 41, 0
1, 77337, Note_on_c, 0, 53, 0
1, 77356, Note_on_c, 0, 77, 0
1, 77356, Note_on_c, 0, 81, 0
1, 77376, Note_on_c, 0, 43, 80
1, 77376, Note_on_c, 0, 55, 80
1, 77376, Note_on_c, 0, 76, 80
1, 77376, Note_on_c, 0, 79, 80
1, 77452, Note_on_c, 0, 79, 0
1, 77452, Note_on_c, 0, 76, 0
1, 77472, Note_on_c, 0, 71, 80
1, 77472, Note_on_c, 0, 74, 80
1, 77529, Note_on_c, 0, 55, 0
1, 77529, Note_on_c, 0, 43, 0
1, 77548, Note_on_c, 0, 71, 0
1, 77548, Note_on_c, 0, 74, 0
1, 77568, Note_on_c, 0, 48, 80
1, 77568, Note_on_c, 0, 72, 80
1, 77606, Note_on_c, 0, 72, 0
1, 77616, Note_on_c, 0, 84, 80
1, 77654, Note_on_c, 0, 84, 0
1, 77664, Note_on_c, 0, 88, 80
1, 77702, Note_on_c, 0, 88, 0
1, 77712, Note_on_c, 0, 86, 80
1, 77721, Note_on_c, 0, 48, 0
1, 77750, Note_on_c, 0, 86, 0
1, 77760, Note_on_c, 0, 84, 80
1, 77798, Note_on_c, 0, 84, 0
1, 77808, Note_on_c, 0, 83, 80
1, 77846, Note_on_c, 0, 83, 0
1, 77856, Note_on_c, 0, 81, 80
1, 77894, Note_on_c, 0, 81, 0
1, 77904, Note_on_c, 0, 79, 80
1, 77942, Note_on_c, 0, 79, 0
1, 77952, Note_on_c, 0, 72, 80
1, 77952, Note_on_c, 0, 78, 80
1, 77952, Note_on_c, 0, 69, 80
1, 78105, Note_on_c, 0, 69, 0
1, 78105, Note_on_c, 0, 78, 0
1, 78105, Note_on_c, 0, 72, 0
1, 78144, Note_on_c, 0, 71, 80
1, 78144, Note_on_c, 0, 74, 80
1, 78144, Note_on_c, 0, 77, 80
1, 78220, Note_on_c, 0, 77, 0
1, 78220, Note_on_c, 0, 74, 0
1, 78220, Note_on_c, 0, 71, 0
1, 78240, Note_on_c, 0, 72, 80
1, 78240, Note_on_c, 0, 76, 80
1, 78316, Note_on_c, 0, 76, 0
1, 78316, Note_on_c, 0, 72, 0
1, 78336, Note_on_c, 0, 65, 80
1, 78336, Note_on_c, 0, 74, 80
1, 78336, Note_on_c, 0, 69, 80
1, 78412, Note_on_c, 0, 69, 0
1, 78412, Note_on_c, 0, 74, 0
1, 78412, Note_on_c, 0, 65, 0
1, 78528, Note_on_c, 0, 53, 80
1, 78528, Note_on_c, 0, 69, 80
1, 78566, Note_on_c, 0, 69, 0
1, 78566, Note_on_c, 0, 53, 0
1, 78576, Note_on_c, 0, 62, 80
1, 78576, Note_on_c, 0, 77, 80
1, 78614, Note_on_c, 0, 77, 0
1, 78614, Note_on_c, 0, 62, 0
1, 78624, Note_on_c, 0, 61, 80
1, 78624, Note_on_c, 0, 76, 80
1, 78662, Note_on_c, 0, 76, 0
1, 78662, Note_on_c, 0, 61, 0
1, 78672, Note_on_c, 0, 62, 80
1, 78672, Note_on_c, 0, 77, 80
1, 78710, Note_on_c, 0, 77, 0
1, 78710, Note_on_c, 0, 62, 0
1, 78720, Note_on_c, 0, 67, 80
1, 78720, Note_on_c, 0, 55, 80
1, 78758, Note_on_c, 0, 55, 0
1, 78758, Note_on_c, 0, 67, 0
1, 78768, Note_on_c, 0, 76, 80
1, 78768, Note_on_c, 0, 60, 80
1, 78806, Note_on_c, 0, 60, 0
1, 78806, Note_on_c, 0, 76, 0
1, 78816, Note_on_c, 0, 59, 80
1, 78816, Note_on_c, 0, 74, 80
1, 78854, Note_on_c, 0, 74, 0
1, 78854, Note_on_c, 0, 59, 0
1, 78864, Note_on_c, 0, 76, 80
1, 78864, Note_on_c, 0, 60, 80
1, 78902, Note_on_c, 0, 60, 0
1, 78902, Note_on_c, 0, 76, 0
1, 78912, Note_on_c, 0, 55, 80
1, 78912, Note_on_c, 0, 67, 80
1, 78950, Note_on_c, 0, 67, 0
1, 78950, Note_on_c, 0, 55, 0
1, 78960, Note_on_c, 0, 59, 80
1, 78960, Note_on_c, 0, 74, 80
1, 78998, Note_on_c, 0, 74, 0
1, 78998, Note_on_c, 0, 59, 0
1, 79008, Note_on_c, 0, 57, 80
1, 79008, Note_on_c, 0, 72, 80
1, 79046, Note_on_c, 0, 72, 0
1, 79046, Note_on_c, 0, 57, 0
1, 79056, Note_on_c, 0, 59, 80
1, 79056, Note_on_c, 0, 74, 80
1, 79094, Note_on_c, 0, 74, 0
1, 79094, Note_on_c, 0, 59, 0
1, 79104, Note_on_c, 0, 60, 80
1, 79104, Note_on_c, 0, 48, 80
1, 79104, Note_on_c, 0, 72, 80
1, 79142, Note_on_c, 0, 72, 0
1, 79152, Note_on_c, 0, 72, 80
1, 79190, Note_on_c, 0, 72, 0
1, 79200, Note_on_c, 0, 76, 80
1, 79238, Note_on_c, 0, 76, 0
1, 79248, Note_on_c, 0, 74, 80
1, 79257, Note_on_c, 0, 48, 0
1, 79257, Note_on_c, 0, 60, 0
1, 79286, Note_on_c, 0, 74, 0
1, 79296, Note_on_c, 0, 72, 80
1, 79334, Note_on_c, 0, 72, 0
1, 79344, Note_on_c, 0, 71, 80
1, 79382, Note_on_c, 0, 71, 0
1, 79392, Note_on_c, 0, 69, 80
1, 79430, Note_on_c, 0, 69, 0
1, 79440, Note_on_c, 0, 67, 80
1, 79478, Note_on_c, 0, 67, 0
1, 79488, Note_on_c, 0, 57, 80
1, 79488, Note_on_c, 0, 66, 80
1, 79488, Note_on_c, 0, 60, 80
1, 79641, Note_on_c, 0, 60, 0
1, 79641, Note_on_c, 0, 66, 0
1, 79641, Note_on_c, 0, 57, 0
1, 79680, Note_on_c, 0, 62, 80
1, 79680, Note_on_c, 0, 59, 80
1, 79680, Note_on_c, 0, 65, 80
1, 79756, Note_on_c, 0, 65, 0
1, 79756, Note_on_c, 0, 59, 0
1, 79756, Note_on_c, 0, 62, 0
1, 79776, Note_on_c, 0, 60, 80
1, 79776, Note_on_c, 0, 64, 80
1, 79852, Note_on_c, 0, 64, 0
1, 79852, Note_on_c, 0, 60, 0
1, 79872, Note_on_c, 0, 53, 80
1, 79872, Note_on_c, 0, 62, 80
1, 79872, Note_on_c, 0, 57, 80
1, 79948, Note_on_c, 0, 57, 0
1, 79948, Note_on_c, 0, 62, 0
1, 79948, Note_on_c, 0, 53, 0
1, 80064, Note_on_c, 0, 41, 80
1, 80064, Note_on_c, 0, 57, 80
1, 80102, Note_on_c, 0, 57, 0
1, 80102, Note_on_c, 0, 41, 0
1, 80112, Note_on_c, 0, 50, 80
1, 80112, Note_on_c, 0, 65, 80
1, 80150, Note_on_c, 0, 65, 0
1, 80150, Note_on_c, 0, 50, 0
1, 80160, Note_on_c, 0, 49, 80
1, 80160, Note_on_c, 0, 64, 80
1, 80198, Note_on_c, 0, 64, 0
1, 80198, Note_on_c, 0, 49, 0
1, 80208, Note_on_c, 0, 50, 80
1, 80208, Note_on_c, 0, 65, 80
1, 80246, Note_on_c, 0, 65, 0
1, 80246, Note_on_c, 0, 50, 0
1, 80256, Note_on_c, 0, 55, 80
1, 80256, Note_on_c, 0, 43, 80
1, 80294, Note_on_c, 0, 43, 0
1, 80294, Note_on_c, 0, 55, 0
1, 80304, Note_on_c, 0, 64, 80
1, 80304, Note_on_c, 0, 48, 80
1, 80342, Note_on_c, 0, 48, 0
1, 80342, Note_on_c, 0, 64, 0
1, 80352, Note_on_c, 0, 47, 80
1, 80352, Note_on_c, 0, 62, 80
1, 80390, Note_on_c, 0, 62, 0
1, 80390, Note_on_c, 0, 47, 0
1, 80400, Note_on_c, 0, 64, 80
1, 80400, Note_on_c, 0, 48, 80
1, 80438, Note_on_c, 0, 48, 0
1, 80438, Note_on_c, 0, 64, 0
1, 80448, Note_on_c, 0, 43, 80
1, 80448, Note_on_c, 0, 55, 80
1, 80486, Note_on_c, 0, 55, 0
1, 80486, Note_on_c, 0, 43, 0
1, 80496, Note_on_c, 0, 47, 80
1, 80496, Note_on_c, 0, 62, 80
1, 80534, Note_on_c, 0, 62, 0
1, 80534, Note_on_c, 0, 47, 0
1, 80544, Note_on_c, 0, 45, 80
1, 80544, Note_on_c, 0, 60, 80
1, 80582, Note_on_c, 0, 60, 0
1, 80582, Note_on_c, 0, 45, 0
1, 80592, Note_on_c, 0, 47, 80
1, 80592, Note_on_c, 0, 62, 80
1, 80630, Note_on_c, 0, 62, 0
1, 80630, Note_on_c, 0, 47, 0
1, 80640, Note_on_c, 0, 60, 80
1, 80640, Note_on_c, 0, 48, 80
1, 80678, Note_on_c, 0, 60, 0
1, 80688, Note_on_c, 0, 55, 80
1, 80726, Note_on_c, 0, 55, 0
1, 80736, Note_on_c, 0, 60, 80
1, 80774, Note_on_c, 0, 60, 0
1, 80784, Note_on_c, 0, 64, 80
1, 80793, Note_on_c, 0, 48, 0
1, 80822, Note_on_c, 0, 64, 0
1, 80832, Note_on_c, 0, 43, 80
1, 80832, Note_on_c, 0, 50, 80
1, 80832, Note_on_c, 0, 67, 80
1, 80870, Note_on_c, 0, 67, 0
1, 80880, Note_on_c, 0, 65, 80
1, 80918, Note_on_c, 0, 65, 0
1, 80928, Note_on_c, 0, 62, 80
1, 80966, Note_on_c, 0, 62, 0
1, 80976, Note_on_c, 0, 59, 80
1, 80985, Note_on_c, 0, 50, 0
1, 80985, Note_on_c, 0, 43, 0
1, 81014, Note_on_c, 0, 59, 0
1, 81024, Note_on_c, 0, 52, 80
1, 81024, Note_on_c, 0, 60, 80
1, 81024, Note_on_c, 0, 48, 80
1, 81062, Note_on_c, 0, 60, 0
1, 81072, Note_on_c, 0, 67, 80
1, 81110, Note_on_c, 0, 67, 0
1, 81120, Note_on_c, 0, 72, 80
1, 81158, Note_on_c, 0, 72, 0
1, 81168, Note_on_c, 0, 76, 80
1, 81177, Note_on_c, 0, 52, 0
1, 81177, Note_on_c, 0, 48, 0
1, 81206, Note_on_c, 0, 76, 0
1, 81216, Note_on_c, 0, 62, 80
1, 81216, Note_on_c, 0, 55, 80
1, 81216, Note_on_c, 0, 79, 80
1, 81254, Note_on_c, 0, 79, 0
1, 81264, Note_on_c, 0, 77, 80
1, 81302, Note_on_c, 0, 77, 0
1, 81312, Note_on_c, 0, 74, 80
1, 81350, Note_on_c, 0, 74, 0
1, 81360, Note_on_c, 0, 71, 80
1, 81369, Note_on_c, 0, 55, 0
1, 81369, Note_on_c, 0, 62, 0
1, 81398, Note_on_c, 0, 71, 0
1, 81408, Note_on_c, 0, 64, 80
1, 81408, Note_on_c, 0, 60, 80
1, 81408, Note_on_c, 0, 72, 80
1, 81561, Note_on_c, 0, 72, 0
1, 81561, Note_on_c, 0, 60, 0
1, 81561, Note_on_c, 0, 64, 0
1, 81600, Note_on_c, 0, 43, 80
1, 81600, Note_on_c, 0, 55, 80
1, 81600, Note_on_c, 0, 74, 80
1, 81600, Note_on_c, 0, 77, 80
1, 81600, Note_on_c, 0, 83, 80
1, 81753, Note_on_c, 0, 83, 0
1, 81753, Note_on_c, 0, 77, 0
1, 81753, Note_on_c, 0, 74, 0
1, 81753, Note_on_c, 0, 55, 0
1, 81753, Note_on_c, 0, 43, 0
1, 81792, Note_on_c, 0, 36, 80
1, 81792, Note_on_c, 0, 48, 80
1, 81792, Note_on_c, 0, 72, 80
1, 81792, Note_on_c, 0, 76, 80
1, 81792, Note_on_c, 0, 79, 80
1, 81792, Note_on_c, 0, 84, 80
1, 81945, Note_on_c, 0, 84, 0
1, 81945, Note_on_c, 0, 79, 0
1, 81945, Note_on_c, 0, 76, 0
1, 81945, Note_on_c, 0, 72, 0
1, 81945, Note_on_c, 0, 48, 0
1, 81945, Note_on_c, 0, 36, 0
1, 81955, End_track
0, 0, End_of_file