0, 0, Header, 0, 1, 96
1, 0, Start_track
1, 0, Tempo, 750000
1, 0, Note_on_c, 0, 72, 94
1, 0, Note_on_c, 1, 53, 81
1, 24, Note_on_c, 1, 53, 0
1, 32, Note_on_c, 1, 57, 81
1, 56, Note_on_c, 1, 57, 0
1, 64, Note_on_c, 0, 60, 94
1, 76, Note_on_c, 0, 72, 0
1, 84, Note_on_c, 0, 71, 94
1, 88, Note_on_c, 0, 60, 0
1, 96, Note_on_c, 0, 71, 0
1, 96, Note_on_c, 0, 72, 94
1, 96, Note_on_c, 1, 55, 81
1, 120, Note_on_c, 1, 55, 0
1, 128, Note_on_c, 1, 58, 81
1, 152, Note_on_c, 1, 58, 0
1, 160, Note_on_c, 0, 60, 94
1, 172, Note_on_c, 0, 72, 0
1, 182, Note_on_c, 0, 72, 94
1, 182, Note_on_c, 0, 71, 94
1, 184, Note_on_c, 0, 60, 0
1, 186, Note_on_c, 0, 72, 0
1, 186, Note_on_c, 0, 71, 0
1, 186, Note_on_c, 0, 74, 94
1, 188, Note_on_c, 0, 74, 0
1, 192, Note_on_c, 0, 72, 94
1, 192, Note_on_c, 1, 53, 81
1, 216, Note_on_c, 1, 53, 0
1, 224, Note_on_c, 1, 57, 81
1, 248, Note_on_c, 1, 57, 0
1, 256, Note_on_c, 0, 60, 94
1, 268, Note_on_c, 0, 72, 0
1, 280, Note_on_c, 0, 60, 0
1, 288, Note_on_c, 0, 82, 94
1, 288, Note_on_c, 1, 52, 81
1, 312, Note_on_c, 1, 52, 0
1, 320, Note_on_c, 1, 55, 81
1, 344, Note_on_c, 1, 55, 0
1, 352, Note_on_c, 0, 60, 94
1, 364, Note_on_c, 0, 82, 0
1, 376, Note_on_c, 0, 60, 0
1, 384, Note_on_c, 0, 70, 94
1, 384, Note_on_c, 1, 48, 81
1, 408, Note_on_c, 1, 48, 0
1, 416, Note_on_c, 1, 52, 81
1, 440, Note_on_c, 1, 52, 0
1, 448, Note_on_c, 1, 55, 81
1, 460, Note_on_c, 0, 70, 0
1, 472, Note_on_c, 1, 55, 0
1, 480, Note_on_c, 1, 53, 57
1, 504, Note_on_c, 1, 53, 0
1, 512, Note_on_c, 1, 57, 57
1, 528, Note_on_c, 0, 69, 66
1, 536, Note_on_c, 1, 57, 0
1, 544, Note_on_c, 0, 60, 66
1, 566, Note_on_c, 0, 69, 0
1, 568, Note_on_c, 0, 60, 0
1, 576, Note_on_c, 0, 67, 80
1, 576, Note_on_c, 1, 46, 69
1, 600, Note_on_c, 0, 67, 0
1, 600, Note_on_c, 1, 46, 0
1, 608, Note_on_c, 0, 70, 80
1, 608, Note_on_c, 1, 50, 69
1, 632, Note_on_c, 0, 70, 0
1, 632, Note_on_c, 1, 50, 0
1, 640, Note_on_c, 0, 67, 80
1, 640, Note_on_c, 1, 55, 69
1, 664, Note_on_c, 0, 67, 0
1, 664, Note_on_c, 1, 55, 0
1, 672, Note_on_c, 0, 65, 80
1, 672, Note_on_c, 1, 48, 69
1, 696, Note_on_c, 0, 65, 0
1, 696, Note_on_c, 1, 48, 0
1, 704, Note_on_c, 0, 69, 80
1, 704, Note_on_c, 1, 53, 69
1, 728, Note_on_c, 0, 69, 0
1, 728, Note_on_c, 1, 53, 0
1, 736, Note_on_c, 0, 65, 80
1, 736, Note_on_c, 1, 57, 69
1, 760, Note_on_c, 0, 65, 0
1, 760, Note_on_c, 1, 57, 0
1, 768, Note_on_c, 0, 64, 80
1, 768, Note_on_c, 1, 48, 69
1, 792, Note_on_c, 0, 64, 0
1, 792, Note_on_c, 1, 48, 0
1, 800, Note_on_c, 0, 67, 80
1, 800, Note_on_c, 1, 55, 69
1, 824, Note_on_c, 0, 67, 0
1, 824, Note_on_c, 1, 55, 0
1, 832, Note_on_c, 0, 64, 80
1, 832, Note_on_c, 1, 58, 69
1, 856, Note_on_c, 0, 64, 0
1, 856, Note_on_c, 1, 58, 0
1, 864, Note_on_c, 0, 82, 52
1, 864, Note_on_c, 1, 50, 45
1, 888, Note_on_c, 1, 50, 0
1, 896, Note_on_c, 1, 53, 45
1, 920, Note_on_c, 1, 53, 0
1, 928, Note_on_c, 1, 58, 45
1, 940, Note_on_c, 0, 82, 0
1, 952, Note_on_c, 1, 58, 0
1, 960, Note_on_c, 0, 70, 52
1, 960, Note_on_c, 1, 52, 45
1, 984, Note_on_c, 1, 52, 0
1, 992, Note_on_c, 1, 55, 45
1, 1016, Note_on_c, 1, 55, 0
1, 1024, Note_on_c, 0, 60, 52
1, 1036, Note_on_c, 0, 70, 0
1, 1048, Note_on_c, 0, 60, 0
1, 1056, Note_on_c, 1, 53, 45
1, 1080, Note_on_c, 1, 53, 0
1, 1088, Note_on_c, 1, 57, 45
1, 1104, Note_on_c, 0, 69, 52
1, 1112, Note_on_c, 1, 57, 0
1, 1120, Note_on_c, 0, 60, 52
1, 1142, Note_on_c, 0, 69, 0
1, 1144, Note_on_c, 0, 60, 0
1, 1152, Note_on_c, 0, 67, 52
1, 1152, Note_on_c, 1, 46, 45
1, 1176, Note_on_c, 0, 67, 0
1, 1176, Note_on_c, 1, 46, 0
1, 1184, Note_on_c, 0, 70, 52
1, 1184, Note_on_c, 1, 50, 45
1, 1208, Note_on_c, 0, 70, 0
1, 1208, Note_on_c, 1, 50, 0
1, 1216, Note_on_c, 0, 69, 52
1, 1216, Note_on_c, 1, 55, 45
1, 1240, Note_on_c, 0, 69, 0
1, 1240, Note_on_c, 1, 55, 0
1, 1248, Note_on_c, 0, 65, 52
1, 1248, Note_on_c, 1, 48, 45
1, 1272, Note_on_c, 0, 65, 0
1, 1272, Note_on_c, 1, 48, 0
1, 1280, Note_on_c, 0, 69, 52
1, 1280, Note_on_c, 1, 53, 45
1, 1304, Note_on_c, 0, 69, 0
1, 1304, Note_on_c, 1, 53, 0
1, 1312, Note_on_c, 0, 65, 52
1, 1312, Note_on_c, 1, 57, 45
1, 1336, Note_on_c, 0, 65, 0
1, 1336, Note_on_c, 1, 57, 0
1, 1344, Note_on_c, 0, 64, 52
1, 1344, Note_on_c, 1, 48, 45
1, 1368, Note_on_c, 0, 64, 0
1, 1368, Note_on_c, 1, 48, 0
1, 1376, Note_on_c, 0, 67, 52
1, 1376, Note_on_c, 1, 55, 45
1, 1400, Note_on_c, 0, 67, 0
1, 1400, Note_on_c, 1, 55, 0
1, 1408, Note_on_c, 0, 64, 52
1, 1408, Note_on_c, 1, 58, 45
1, 1432, Note_on_c, 0, 64, 0
1, 1432, Note_on_c, 1, 58, 0
1, 1440, Note_on_c, 0, 65, 96
1, 1440, Note_on_c, 1, 57, 83
1, 1464, Note_on_c, 1, 57, 0
1, 1472, Note_on_c, 0, 60, 96
1, 1496, Note_on_c, 0, 60, 0
1, 1504, Note_on_c, 1, 57, 83
1, 1516, Note_on_c, 0, 65, 0
1, 1528, Note_on_c, 1, 57, 0
1, 1536, Note_on_c, 1, 53, 45
1, 1568, Note_on_c, 0, 64, 52
1, 1592, Note_on_c, 0, 64, 0
1, 1600, Note_on_c, 0, 65, 52
1, 1612, Note_on_c, 1, 53, 0
1, 1624, Note_on_c, 0, 65, 0
1, 1632, Note_on_c, 0, 67, 52
1, 1656, Note_on_c, 0, 67, 0
1, 1664, Note_on_c, 0, 65, 52
1, 1688, Note_on_c, 0, 65, 0
1, 1696, Note_on_c, 0, 67, 52
1, 1696, Note_on_c, 0, 70, 52
1, 1720, Note_on_c, 0, 67, 0
1, 1720, Note_on_c, 0, 70, 0
1, 1728, Note_on_c, 0, 69, 96
1, 1728, Note_on_c, 0, 65, 96
1, 1728, Note_on_c, 1, 48, 83
1, 1728, Note_on_c, 1, 36, 83
1, 1752, Note_on_c, 0, 69, 0
1, 1752, Note_on_c, 0, 65, 0
1, 1760, Note_on_c, 0, 67, 96
1, 1760, Note_on_c, 0, 64, 96
1, 1784, Note_on_c, 0, 67, 0
1, 1784, Note_on_c, 0, 64, 0
1, 1792, Note_on_c, 0, 66, 96
1, 1792, Note_on_c, 0, 63, 96
1, 1804, Note_on_c, 1, 48, 0
1, 1804, Note_on_c, 1, 36, 0
1, 1816, Note_on_c, 0, 66, 0
1, 1816, Note_on_c, 0, 63, 0
1, 1824, Note_on_c, 0, 64, 52
1, 1824, Note_on_c, 0, 67, 52
1, 1848, Note_on_c, 0, 64, 0
1, 1848, Note_on_c, 0, 67, 0
1, 1856, Note_on_c, 0, 66, 52
1, 1880, Note_on_c, 0, 66, 0
1, 1888, Note_on_c, 0, 67, 52
1, 1912, Note_on_c, 0, 67, 0
1, 1920, Note_on_c, 0, 69, 52
1, 1944, Note_on_c, 0, 69, 0
1, 1952, Note_on_c, 0, 67, 52
1, 1976, Note_on_c, 0, 67, 0
1, 1984, Note_on_c, 0, 69, 52
1, 1984, Note_on_c, 0, 72, 52
1, 2008, Note_on_c, 0, 69, 0
1, 2008, Note_on_c, 0, 72, 0
1, 2016, Note_on_c, 0, 70, 94
1, 2016, Note_on_c, 0, 67, 94
1, 2016, Note_on_c, 1, 41, 81
1, 2016, Note_on_c, 1, 53, 81
1, 2040, Note_on_c, 0, 70, 0
1, 2040, Note_on_c, 0, 67, 0
1, 2048, Note_on_c, 0, 69, 94
1, 2048, Note_on_c, 0, 65, 94
1, 2072, Note_on_c, 0, 69, 0
1, 2072, Note_on_c, 0, 65, 0
1, 2080, Note_on_c, 0, 68, 94
1, 2080, Note_on_c, 0, 64, 94
1, 2092, Note_on_c, 1, 41, 0
1, 2092, Note_on_c, 1, 53, 0
1, 2104, Note_on_c, 0, 68, 0
1, 2104, Note_on_c, 0, 64, 0
1, 2112, Note_on_c, 0, 69, 94
1, 2112, Note_on_c, 0, 65, 94
1, 2144, Note_on_c, 0, 63, 94
1, 2144, Note_on_c, 1, 51, 81
1, 2168, Note_on_c, 0, 63, 0
1, 2168, Note_on_c, 1, 51, 0
1, 2176, Note_on_c, 0, 62, 94
1, 2176, Note_on_c, 1, 50, 81
1, 2188, Note_on_c, 0, 69, 0
1, 2188, Note_on_c, 0, 65, 0
1, 2200, Note_on_c, 0, 62, 0
1, 2200, Note_on_c, 1, 50, 0
1, 2208, Note_on_c, 0, 84, 94
1, 2208, Note_on_c, 0, 75, 94
1, 2208, Note_on_c, 0, 60, 94
1, 2208, Note_on_c, 1, 48, 81
1, 2232, Note_on_c, 0, 60, 0
1, 2232, Note_on_c, 1, 48, 0
1, 2240, Note_on_c, 1, 58, 81
1, 2240, Note_on_c, 1, 46, 81
1, 2264, Note_on_c, 1, 58, 0
1, 2264, Note_on_c, 1, 46, 0
1, 2272, Note_on_c, 1, 57, 81
1, 2272, Note_on_c, 1, 45, 81
1, 2284, Note_on_c, 0, 75, 0
1, 2296, Note_on_c, 1, 57, 0
1, 2296, Note_on_c, 1, 45, 0
1, 2304, Note_on_c, 1, 46, 81
1, 2304, Note_on_c, 1, 58, 81
1, 2336, Note_on_c, 0, 85, 94
1, 2360, Note_on_c, 0, 85, 0
1, 2368, Note_on_c, 0, 86, 94
1, 2380, Note_on_c, 1, 46, 0
1, 2380, Note_on_c, 1, 58, 0
1, 2392, Note_on_c, 0, 86, 0
1, 2400, Note_on_c, 0, 84, 94
1, 2400, Note_on_c, 1, 46, 81
1, 2424, Note_on_c, 0, 84, 0
1, 2424, Note_on_c, 0, 84, 0
1, 2432, Note_on_c, 0, 82, 94
1, 2456, Note_on_c, 0, 82, 0
1, 2464, Note_on_c, 0, 81, 94
1, 2476, Note_on_c, 1, 46, 0
1, 2488, Note_on_c, 0, 81, 0
1, 2496, Note_on_c, 0, 81, 94
1, 2496, Note_on_c, 1, 47, 81
1, 2520, Note_on_c, 0, 81, 0
1, 2528, Note_on_c, 0, 79, 94
1, 2552, Note_on_c, 0, 79, 0
1, 2560, Note_on_c, 0, 77, 94
1, 2572, Note_on_c, 1, 47, 0
1, 2584, Note_on_c, 0, 77, 0
1, 2592, Note_on_c, 0, 72, 94
1, 2592, Note_on_c, 0, 76, 52
1, 2592, Note_on_c, 1, 48, 81
1, 2616, Note_on_c, 0, 72, 0
1, 2616, Note_on_c, 0, 76, 0
1, 2624, Note_on_c, 0, 79, 52
1, 2648, Note_on_c, 0, 79, 0
1, 2656, Note_on_c, 0, 79, 52
1, 2668, Note_on_c, 1, 48, 0
1, 2680, Note_on_c, 0, 79, 0
1, 2688, Note_on_c, 0, 79, 52
1, 2712, Note_on_c, 0, 79, 0
1, 2720, Note_on_c, 0, 79, 52
1, 2744, Note_on_c, 0, 79, 0
1, 2752, Note_on_c, 0, 79, 52
1, 2776, Note_on_c, 0, 79, 0
1, 2784, Note_on_c, 0, 79, 52
1, 2808, Note_on_c, 0, 79, 0
1, 2816, Note_on_c, 0, 79, 52
1, 2840, Note_on_c, 0, 79, 0
1, 2848, Note_on_c, 0, 79, 52
1, 2872, Note_on_c, 0, 79, 0
1, 2880, Note_on_c, 0, 79, 94
1, 2904, Note_on_c, 0, 79, 0
1, 2912, Note_on_c, 0, 71, 94
1, 2912, Note_on_c, 0, 62, 94
1, 2936, Note_on_c, 0, 71, 0
1, 2936, Note_on_c, 0, 62, 0
1, 2944, Note_on_c, 0, 74, 94
1, 2944, Note_on_c, 0, 65, 94
1, 2968, Note_on_c, 0, 74, 0
1, 2968, Note_on_c, 0, 65, 0
1, 2976, Note_on_c, 0, 64, 52
1, 2976, Note_on_c, 0, 72, 52
1, 3000, Note_on_c, 0, 64, 0
1, 3000, Note_on_c, 0, 72, 0
1, 3008, Note_on_c, 0, 71, 52
1, 3008, Note_on_c, 0, 62, 52
1, 3032, Note_on_c, 0, 71, 0
1, 3032, Note_on_c, 0, 62, 0
1, 3040, Note_on_c, 0, 74, 52
1, 3040, Note_on_c, 0, 65, 52
1, 3064, Note_on_c, 0, 74, 0
1, 3064, Note_on_c, 0, 65, 0
1, 3072, Note_on_c, 0, 72, 52
1, 3072, Note_on_c, 0, 64, 52
1, 3096, Note_on_c, 0, 72, 0
1, 3096, Note_on_c, 0, 64, 0
1, 3104, Note_on_c, 0, 71, 52
1, 3104, Note_on_c, 0, 62, 52
1, 3128, Note_on_c, 0, 71, 0
1, 3128, Note_on_c, 0, 62, 0
1, 3136, Note_on_c, 0, 74, 52
1, 3136, Note_on_c, 0, 65, 52
1, 3160, Note_on_c, 0, 74, 0
1, 3160, Note_on_c, 0, 65, 0
1, 3168, Note_on_c, 0, 79, 52
1, 3192, Note_on_c, 0, 79, 0
1, 3200, Note_on_c, 0, 72, 52
1, 3200, Note_on_c, 0, 64, 52
1, 3224, Note_on_c, 0, 72, 0
1, 3224, Note_on_c, 0, 64, 0
1, 3232, Note_on_c, 0, 76, 52
1, 3232, Note_on_c, 0, 67, 52
1, 3256, Note_on_c, 0, 76, 0
1, 3256, Note_on_c, 0, 67, 0
1, 3264, Note_on_c, 0, 65, 94
1, 3264, Note_on_c, 0, 74, 94
1, 3288, Note_on_c, 0, 65, 0
1, 3288, Note_on_c, 0, 74, 0
1, 3296, Note_on_c, 0, 72, 94
1, 3296, Note_on_c, 0, 64, 94
1, 3320, Note_on_c, 0, 72, 0
1, 3320, Note_on_c, 0, 64, 0
1, 3328, Note_on_c, 0, 76, 94
1, 3328, Note_on_c, 0, 67, 94
1, 3352, Note_on_c, 0, 76, 0
1, 3352, Note_on_c, 0, 67, 0
1, 3360, Note_on_c, 0, 74, 52
1, 3360, Note_on_c, 0, 65, 52
1, 3384, Note_on_c, 0, 74, 0
1, 3384, Note_on_c, 0, 65, 0
1, 3392, Note_on_c, 0, 72, 52
1, 3392, Note_on_c, 0, 64, 52
1, 3416, Note_on_c, 0, 72, 0
1, 3416, Note_on_c, 0, 64, 0
1, 3424, Note_on_c, 0, 76, 52
1, 3424, Note_on_c, 0, 67, 52
1, 3448, Note_on_c, 0, 76, 0
1, 3448, Note_on_c, 0, 67, 0
1, 3456, Note_on_c, 0, 79, 52
1, 3480, Note_on_c, 0, 79, 0
1, 3488, Note_on_c, 0, 74, 52
1, 3488, Note_on_c, 1, 59, 45
1, 3512, Note_on_c, 0, 74, 0
1, 3512, Note_on_c, 1, 59, 0
1, 3520, Note_on_c, 0, 77, 52
1, 3520, Note_on_c, 0, 62, 52
1, 3544, Note_on_c, 0, 77, 0
1, 3544, Note_on_c, 0, 62, 0
1, 3552, Note_on_c, 0, 60, 52
1, 3552, Note_on_c, 0, 76, 52
1, 3576, Note_on_c, 0, 60, 0
1, 3576, Note_on_c, 0, 76, 0
1, 3584, Note_on_c, 0, 74, 52
1, 3584, Note_on_c, 1, 59, 45
1, 3608, Note_on_c, 0, 74, 0
1, 3608, Note_on_c, 1, 59, 0
1, 3616, Note_on_c, 0, 62, 52
1, 3616, Note_on_c, 0, 77, 52
1, 3640, Note_on_c, 0, 62, 0
1, 3640, Note_on_c, 0, 77, 0
1, 3648, Note_on_c, 0, 76, 94
1, 3648, Note_on_c, 0, 60, 94
1, 3672, Note_on_c, 0, 76, 0
1, 3672, Note_on_c, 0, 60, 0
1, 3680, Note_on_c, 0, 74, 94
1, 3680, Note_on_c, 1, 59, 81
1, 3704, Note_on_c, 0, 74, 0
1, 3704, Note_on_c, 1, 59, 0
1, 3712, Note_on_c, 0, 77, 94
1, 3712, Note_on_c, 0, 62, 94
1, 3736, Note_on_c, 0, 77, 0
1, 3736, Note_on_c, 0, 62, 0
1, 3744, Note_on_c, 0, 60, 52
1, 3776, Note_on_c, 0, 76, 52
1, 3800, Note_on_c, 0, 76, 0
1, 3808, Note_on_c, 0, 77, 52
1, 3820, Note_on_c, 0, 60, 0
1, 3832, Note_on_c, 0, 77, 0
1, 3840, Note_on_c, 0, 78, 52
1, 3864, Note_on_c, 0, 78, 0
1, 3872, Note_on_c, 0, 79, 52
1, 3896, Note_on_c, 0, 79, 0
1, 3904, Note_on_c, 0, 80, 52
1, 3928, Note_on_c, 0, 80, 0
1, 3936, Note_on_c, 0, 81, 52
1, 3960, Note_on_c, 0, 81, 0
1, 3968, Note_on_c, 0, 83, 52
1, 3992, Note_on_c, 0, 83, 0
1, 4000, Note_on_c, 0, 84, 52
1, 4024, Note_on_c, 0, 84, 0
1, 4032, Note_on_c, 0, 74, 94
1, 4032, Note_on_c, 0, 60, 94
1, 4032, Note_on_c, 1, 57, 81
1, 4032, Note_on_c, 1, 54, 81
1, 4108, Note_on_c, 0, 74, 0
1, 4108, Note_on_c, 0, 60, 0
1, 4108, Note_on_c, 1, 57, 0
1, 4108, Note_on_c, 1, 54, 0
1, 4128, Note_on_c, 0, 74, 52
1, 4128, Note_on_c, 1, 58, 45
1, 4128, Note_on_c, 1, 55, 45
1, 4152, Note_on_c, 0, 74, 0
1, 4160, Note_on_c, 0, 81, 52
1, 4184, Note_on_c, 0, 81, 0
1, 4192, Note_on_c, 0, 79, 52
1, 4204, Note_on_c, 1, 58, 0
1, 4204, Note_on_c, 1, 55, 0
1, 4216, Note_on_c, 0, 79, 0
1, 4224, Note_on_c, 0, 77, 94
1, 4256, Note_on_c, 0, 77, 0
1, 4256, Note_on_c, 0, 76, 94
1, 4272, Note_on_c, 1, 58, 81
1, 4272, Note_on_c, 1, 55, 81
1, 4272, Note_on_c, 1, 53, 81
1, 4280, Note_on_c, 0, 76, 0
1, 4288, Note_on_c, 0, 74, 94
1, 4310, Note_on_c, 1, 58, 0
1, 4310, Note_on_c, 1, 55, 0
1, 4310, Note_on_c, 1, 53, 0
1, 4312, Note_on_c, 0, 74, 0
1, 4320, Note_on_c, 0, 79, 94
1, 4320, Note_on_c, 0, 60, 94
1, 4320, Note_on_c, 1, 52, 81
1, 4344, Note_on_c, 0, 79, 0
1, 4352, Note_on_c, 0, 80, 94
1, 4358, Note_on_c, 0, 60, 0
1, 4358, Note_on_c, 1, 52, 0
1, 4368, Note_on_c, 1, 53, 81
1, 4376, Note_on_c, 0, 80, 0
1, 4384, Note_on_c, 0, 81, 94
1, 4406, Note_on_c, 1, 53, 0
1, 4408, Note_on_c, 0, 81, 0
1, 4416, Note_on_c, 0, 72, 94
1, 4416, Note_on_c, 1, 55, 81
1, 4440, Note_on_c, 1, 55, 0
1, 4448, Note_on_c, 0, 60, 94
1, 4472, Note_on_c, 0, 60, 0
1, 4480, Note_on_c, 0, 64, 94
1, 4492, Note_on_c, 0, 72, 0
1, 4504, Note_on_c, 0, 64, 0
1, 4512, Note_on_c, 0, 71, 94
1, 4512, Note_on_c, 1, 55, 81
1, 4520, Note_on_c, 0, 71, 0
1, 4524, Note_on_c, 0, 72, 94
1, 4532, Note_on_c, 0, 72, 0
1, 4536, Note_on_c, 0, 71, 94
1, 4536, Note_on_c, 1, 55, 0
1, 4544, Note_on_c, 0, 71, 0
1, 4544, Note_on_c, 0, 62, 94
1, 4548, Note_on_c, 0, 72, 94
1, 4556, Note_on_c, 0, 72, 0
1, 4560, Note_on_c, 0, 71, 94
1, 4568, Note_on_c, 0, 62, 0
1, 4568, Note_on_c, 0, 71, 0
1, 4572, Note_on_c, 0, 72, 94
1, 4576, Note_on_c, 0, 65, 94
1, 4580, Note_on_c, 0, 72, 0
1, 4584, Note_on_c, 0, 69, 94
1, 4592, Note_on_c, 0, 69, 0
1, 4596, Note_on_c, 0, 71, 94
1, 4600, Note_on_c, 0, 65, 0
1, 4604, Note_on_c, 0, 71, 0
1, 4608, Note_on_c, 0, 72, 94
1, 4640, Note_on_c, 1, 52, 45
1, 4664, Note_on_c, 1, 52, 0
1, 4672, Note_on_c, 1, 53, 45
1, 4684, Note_on_c, 0, 72, 0
1, 4696, Note_on_c, 1, 53, 0
1, 4704, Note_on_c, 1, 54, 45
1, 4728, Note_on_c, 1, 54, 0
1, 4736, Note_on_c, 1, 55, 45
1, 4760, Note_on_c, 1, 55, 0
1, 4768, Note_on_c, 1, 56, 45
1, 4792, Note_on_c, 1, 56, 0
1, 4800, Note_on_c, 1, 57, 45
1, 4824, Note_on_c, 1, 57, 0
1, 4832, Note_on_c, 1, 58, 45
1, 4856, Note_on_c, 1, 58, 0
1, 4864, Note_on_c, 1, 59, 45
1, 4888, Note_on_c, 1, 59, 0
1, 4896, Note_on_c, 1, 42, 81
1, 4896, Note_on_c, 1, 54, 81
1, 4928, Note_on_c, 0, 74, 94
1, 4928, Note_on_c, 0, 83, 94
1, 4952, Note_on_c, 0, 74, 0
1, 4952, Note_on_c, 0, 83, 0
1, 4960, Note_on_c, 0, 84, 94
1, 4960, Note_on_c, 0, 75, 94
1, 4972, Note_on_c, 1, 42, 0
1, 4972, Note_on_c, 1, 54, 0
1, 4984, Note_on_c, 0, 84, 0
1, 4984, Note_on_c, 0, 75, 0
1, 4992, Note_on_c, 1, 55, 57
1, 4992, Note_on_c, 1, 43, 57
1, 5024, Note_on_c, 0, 84, 66
1, 5024, Note_on_c, 0, 75, 66
1, 5048, Note_on_c, 0, 84, 0
1, 5048, Note_on_c, 0, 75, 0
1, 5056, Note_on_c, 0, 83, 66
1, 5056, Note_on_c, 0, 74, 66
1, 5068, Note_on_c, 1, 55, 0
1, 5068, Note_on_c, 1, 43, 0
1, 5080, Note_on_c, 0, 83, 0
1, 5080, Note_on_c, 0, 74, 0
1, 5088, Note_on_c, 1, 59, 81
1, 5088, Note_on_c, 1, 47, 81
1, 5120, Note_on_c, 0, 76, 94
1, 5120, Note_on_c, 0, 80, 94
1, 5144, Note_on_c, 0, 76, 0
1, 5144, Note_on_c, 0, 80, 0
1, 5152, Note_on_c, 0, 77, 94
1, 5152, Note_on_c, 0, 81, 94
1, 5164, Note_on_c, 1, 59, 0
1, 5164, Note_on_c, 1, 47, 0
1, 5176, Note_on_c, 0, 77, 0
1, 5176, Note_on_c, 0, 81, 0
1, 5184, Note_on_c, 0, 60, 52
1, 5184, Note_on_c, 1, 48, 45
1, 5216, Note_on_c, 0, 81, 52
1, 5216, Note_on_c, 0, 77, 52
1, 5240, Note_on_c, 0, 81, 0
1, 5240, Note_on_c, 0, 77, 0
1, 5248, Note_on_c, 0, 79, 52
1, 5248, Note_on_c, 0, 76, 52
1, 5260, Note_on_c, 0, 60, 0
1, 5260, Note_on_c, 1, 48, 0
1, 5272, Note_on_c, 0, 79, 0
1, 5272, Note_on_c, 0, 76, 0
1, 5280, Note_on_c, 1, 56, 81
1, 5280, Note_on_c, 1, 44, 81
1, 5312, Note_on_c, 0, 79, 94
1, 5312, Note_on_c, 0, 76, 95
1, 5336, Note_on_c, 0, 79, 0
1, 5336, Note_on_c, 0, 76, 0
1, 5344, Note_on_c, 0, 74, 94
1, 5344, Note_on_c, 0, 77, 94
1, 5356, Note_on_c, 1, 56, 0
1, 5356, Note_on_c, 1, 44, 0
1, 5368, Note_on_c, 0, 74, 0
1, 5368, Note_on_c, 0, 77, 0
1, 5376, Note_on_c, 1, 57, 45
1, 5376, Note_on_c, 1, 45, 45
1, 5408, Note_on_c, 0, 77, 52
1, 5408, Note_on_c, 0, 74, 52
1, 5432, Note_on_c, 0, 77, 0
1, 5432, Note_on_c, 0, 74, 0
1, 5440, Note_on_c, 0, 76, 52
1, 5440, Note_on_c, 0, 72, 52
1, 5452, Note_on_c, 1, 57, 0
1, 5452, Note_on_c, 1, 45, 0
1, 5464, Note_on_c, 0, 76, 0
1, 5464, Note_on_c, 0, 72, 0
1, 5472, Note_on_c, 0, 69, 52
1, 5472, Note_on_c, 0, 65, 52
1, 5472, Note_on_c, 1, 53, 45
1, 5496, Note_on_c, 0, 69, 0
1, 5504, Note_on_c, 0, 76, 52
1, 5528, Note_on_c, 0, 76, 0
1, 5536, Note_on_c, 0, 74, 52
1, 5548, Note_on_c, 0, 65, 0
1, 5548, Note_on_c, 1, 53, 0
1, 5560, Note_on_c, 0, 74, 0
1, 5568, Note_on_c, 0, 64, 52
1, 5568, Note_on_c, 0, 67, 52
1, 5568, Note_on_c, 1, 55, 45
1, 5592, Note_on_c, 0, 67, 0
1, 5600, Note_on_c, 0, 74, 52
1, 5624, Note_on_c, 0, 74, 0
1, 5632, Note_on_c, 0, 72, 52
1, 5644, Note_on_c, 0, 64, 0
1, 5644, Note_on_c, 1, 55, 0
1, 5656, Note_on_c, 0, 72, 0
1, 5664, Note_on_c, 0, 62, 52
1, 5664, Note_on_c, 0, 65, 52
1, 5688, Note_on_c, 0, 65, 0
1, 5696, Note_on_c, 0, 72, 52
1, 5720, Note_on_c, 0, 72, 0
1, 5728, Note_on_c, 0, 71, 52
1, 5740, Note_on_c, 0, 62, 0
1, 5752, Note_on_c, 0, 71, 0
1, 5760, Note_on_c, 0, 79, 94
1, 5760, Note_on_c, 0, 76, 94
1, 5792, Note_on_c, 1, 47, 81
1, 5792, Note_on_c, 1, 35, 81
1, 5816, Note_on_c, 1, 47, 0
1, 5816, Note_on_c, 1, 35, 0
1, 5824, Note_on_c, 1, 48, 81
1, 5824, Note_on_c, 1, 36, 81
1, 5836, Note_on_c, 0, 79, 0
1, 5836, Note_on_c, 0, 76, 0
1, 5848, Note_on_c, 1, 48, 0
1, 5848, Note_on_c, 1, 36, 0
1, 5856, Note_on_c, 0, 77, 94
1, 5856, Note_on_c, 0, 74, 94
1, 5888, Note_on_c, 1, 49, 81
1, 5888, Note_on_c, 1, 37, 81
1, 5912, Note_on_c, 1, 49, 0
1, 5912, Note_on_c, 1, 37, 0
1, 5920, Note_on_c, 1, 38, 81
1, 5920, Note_on_c, 1, 50, 81
1, 5932, Note_on_c, 0, 77, 0
1, 5932, Note_on_c, 0, 74, 0
1, 5944, Note_on_c, 1, 38, 0
1, 5944, Note_on_c, 1, 50, 0
1, 5952, Note_on_c, 0, 72, 94
1, 5952, Note_on_c, 0, 76, 94
1, 5984, Note_on_c, 1, 51, 81
1, 5984, Note_on_c, 1, 39, 81
1, 6008, Note_on_c, 1, 51, 0
1, 6008, Note_on_c, 1, 39, 0
1, 6016, Note_on_c, 1, 52, 81
1, 6016, Note_on_c, 1, 40, 81
1, 6028, Note_on_c, 0, 72, 0
1, 6028, Note_on_c, 0, 76, 0
1, 6040, Note_on_c, 1, 52, 0
1, 6040, Note_on_c, 1, 40, 0
1, 6048, Note_on_c, 0, 76, 66
1, 6080, Note_on_c, 0, 76, 0
1, 6080, Note_on_c, 0, 74, 66
1, 6080, Note_on_c, 0, 60, 66
1, 6080, Note_on_c, 1, 53, 57
1, 6080, Note_on_c, 1, 57, 57
1, 6104, Note_on_c, 0, 60, 0
1, 6104, Note_on_c, 1, 53, 0
1, 6104, Note_on_c, 1, 57, 0
1, 6112, Note_on_c, 0, 74, 0
1, 6112, Note_on_c, 0, 60, 66
1, 6112, Note_on_c, 1, 57, 57
1, 6112, Note_on_c, 1, 53, 57
1, 6136, Note_on_c, 0, 60, 0
1, 6136, Note_on_c, 1, 57, 0
1, 6136, Note_on_c, 1, 53, 0
1, 6144, Note_on_c, 0, 60, 66
1, 6144, Note_on_c, 1, 53, 57
1, 6144, Note_on_c, 1, 57, 57
1, 6168, Note_on_c, 0, 60, 0
1, 6168, Note_on_c, 1, 53, 0
1, 6168, Note_on_c, 1, 57, 0
1, 6176, Note_on_c, 0, 60, 66
1, 6176, Note_on_c, 1, 57, 57
1, 6176, Note_on_c, 1, 53, 57
1, 6200, Note_on_c, 0, 60, 0
1, 6200, Note_on_c, 1, 57, 0
1, 6200, Note_on_c, 1, 53, 0
1, 6208, Note_on_c, 0, 60, 66
1, 6208, Note_on_c, 1, 57, 57
1, 6208, Note_on_c, 1, 53, 57
1, 6232, Note_on_c, 0, 60, 0
1, 6232, Note_on_c, 1, 57, 0
1, 6232, Note_on_c, 1, 53, 0
1, 6240, Note_on_c, 0, 60, 66
1, 6240, Note_on_c, 1, 57, 57
1, 6240, Note_on_c, 1, 53, 57
1, 6264, Note_on_c, 0, 60, 0
1, 6264, Note_on_c, 1, 57, 0
1, 6264, Note_on_c, 1, 53, 0
1, 6272, Note_on_c, 0, 60, 66
1, 6272, Note_on_c, 1, 57, 57
1, 6272, Note_on_c, 1, 53, 57
1, 6296, Note_on_c, 0, 60, 0
1, 6296, Note_on_c, 1, 57, 0
1, 6296, Note_on_c, 1, 53, 0
1, 6304, Note_on_c, 0, 60, 66
1, 6304, Note_on_c, 1, 57, 57
1, 6304, Note_on_c, 1, 53, 57
1, 6328, Note_on_c, 0, 60, 0
1, 6328, Note_on_c, 1, 57, 0
1, 6328, Note_on_c, 1, 53, 0
1, 6336, Note_on_c, 0, 74, 94
1, 6360, Note_on_c, 0, 74, 0
1, 6368, Note_on_c, 0, 60, 94
1, 6368, Note_on_c, 0, 75, 94
1, 6368, Note_on_c, 1, 57, 81
1, 6368, Note_on_c, 1, 54, 81
1, 6392, Note_on_c, 0, 60, 0
1, 6392, Note_on_c, 0, 75, 0
1, 6392, Note_on_c, 1, 57, 0
1, 6392, Note_on_c, 1, 54, 0
1, 6400, Note_on_c, 0, 60, 94
1, 6400, Note_on_c, 1, 57, 81
1, 6400, Note_on_c, 1, 54, 81
1, 6424, Note_on_c, 0, 60, 0
1, 6424, Note_on_c, 1, 57, 0
1, 6424, Note_on_c, 1, 54, 0
1, 6432, Note_on_c, 0, 60, 94
1, 6432, Note_on_c, 1, 54, 81
1, 6432, Note_on_c, 1, 57, 81
1, 6456, Note_on_c, 0, 60, 0
1, 6456, Note_on_c, 1, 54, 0
1, 6456, Note_on_c, 1, 57, 0
1, 6464, Note_on_c, 0, 60, 94
1, 6464, Note_on_c, 1, 57, 81
1, 6464, Note_on_c, 1, 54, 81
1, 6488, Note_on_c, 0, 60, 0
1, 6488, Note_on_c, 1, 57, 0
1, 6488, Note_on_c, 1, 54, 0
1, 6496, Note_on_c, 0, 60, 94
1, 6496, Note_on_c, 1, 57, 81
1, 6496, Note_on_c, 1, 54, 81
1, 6520, Note_on_c, 0, 60, 0
1, 6520, Note_on_c, 1, 57, 0
1, 6520, Note_on_c, 1, 54, 0
1, 6528, Note_on_c, 0, 60, 94
1, 6528, Note_on_c, 1, 57, 81
1, 6528, Note_on_c, 1, 54, 81
1, 6552, Note_on_c, 0, 60, 0
1, 6552, Note_on_c, 1, 57, 0
1, 6552, Note_on_c, 1, 54, 0
1, 6560, Note_on_c, 0, 60, 94
1, 6560, Note_on_c, 1, 57, 81
1, 6560, Note_on_c, 1, 54, 81
1, 6584, Note_on_c, 0, 60, 0
1, 6584, Note_on_c, 1, 57, 0
1, 6584, Note_on_c, 1, 54, 0
1, 6592, Note_on_c, 0, 60, 94
1, 6592, Note_on_c, 1, 57, 81
1, 6592, Note_on_c, 1, 54, 81
1, 6616, Note_on_c, 0, 60, 0
1, 6616, Note_on_c, 1, 57, 0
1, 6616, Note_on_c, 1, 54, 0
1, 6624, Note_on_c, 0, 75, 52
1, 6656, Note_on_c, 0, 75, 0
1, 6656, Note_on_c, 0, 64, 52
1, 6656, Note_on_c, 0, 60, 52
1, 6656, Note_on_c, 0, 76, 52
1, 6656, Note_on_c, 1, 55, 45
1, 6680, Note_on_c, 0, 64, 0
1, 6680, Note_on_c, 0, 60, 0
1, 6680, Note_on_c, 1, 55, 0
1, 6688, Note_on_c, 0, 76, 0
1, 6688, Note_on_c, 0, 60, 52
1, 6688, Note_on_c, 0, 64, 52
1, 6688, Note_on_c, 1, 55, 45
1, 6712, Note_on_c, 0, 60, 0
1, 6712, Note_on_c, 0, 64, 0
1, 6712, Note_on_c, 1, 55, 0
1, 6720, Note_on_c, 0, 60, 52
1, 6720, Note_on_c, 0, 64, 52
1, 6720, Note_on_c, 1, 55, 45
1, 6744, Note_on_c, 0, 60, 0
1, 6744, Note_on_c, 0, 64, 0
1, 6744, Note_on_c, 1, 55, 0
1, 6752, Note_on_c, 0, 64, 52
1, 6752, Note_on_c, 0, 60, 52
1, 6752, Note_on_c, 1, 55, 45
1, 6776, Note_on_c, 0, 64, 0
1, 6776, Note_on_c, 0, 60, 0
1, 6776, Note_on_c, 1, 55, 0
1, 6784, Note_on_c, 0, 64, 52
1, 6784, Note_on_c, 0, 60, 52
1, 6784, Note_on_c, 1, 55, 45
1, 6808, Note_on_c, 0, 64, 0
1, 6808, Note_on_c, 0, 60, 0
1, 6808, Note_on_c, 1, 55, 0
1, 6816, Note_on_c, 0, 78, 52
1, 6816, Note_on_c, 0, 60, 52
1, 6816, Note_on_c, 0, 64, 52
1, 6816, Note_on_c, 1, 55, 45
1, 6840, Note_on_c, 0, 60, 0
1, 6840, Note_on_c, 0, 64, 0
1, 6840, Note_on_c, 1, 55, 0
1, 6848, Note_on_c, 0, 78, 0
1, 6848, Note_on_c, 0, 60, 52
1, 6848, Note_on_c, 0, 64, 52
1, 6848, Note_on_c, 0, 79, 52
1, 6848, Note_on_c, 1, 55, 45
1, 6872, Note_on_c, 0, 60, 0
1, 6872, Note_on_c, 0, 64, 0
1, 6872, Note_on_c, 0, 79, 0
1, 6872, Note_on_c, 1, 55, 0
1, 6880, Note_on_c, 0, 60, 52
1, 6880, Note_on_c, 0, 64, 52
1, 6880, Note_on_c, 1, 55, 45
1, 6904, Note_on_c, 0, 60, 0
1, 6904, Note_on_c, 0, 64, 0
1, 6904, Note_on_c, 1, 55, 0
1, 6912, Note_on_c, 0, 60, 80
1, 6912, Note_on_c, 1, 54, 69
1, 6912, Note_on_c, 1, 57, 69
1, 6936, Note_on_c, 0, 60, 0
1, 6936, Note_on_c, 1, 54, 0
1, 6936, Note_on_c, 1, 57, 0
1, 6944, Note_on_c, 0, 60, 80
1, 6944, Note_on_c, 1, 57, 69
1, 6944, Note_on_c, 1, 54, 69
1, 6968, Note_on_c, 0, 60, 0
1, 6968, Note_on_c, 1, 57, 0
1, 6968, Note_on_c, 1, 54, 0
1, 6976, Note_on_c, 0, 60, 80
1, 6976, Note_on_c, 1, 57, 69
1, 6976, Note_on_c, 1, 54, 69
1, 6998, Note_on_c, 0, 72, 80
1, 6998, Note_on_c, 0, 74, 80
1, 7000, Note_on_c, 0, 60, 0
1, 7000, Note_on_c, 1, 57, 0
1, 7000, Note_on_c, 1, 54, 0
1, 7002, Note_on_c, 0, 72, 0
1, 7002, Note_on_c, 0, 74, 0
1, 7002, Note_on_c, 0, 76, 80
1, 7004, Note_on_c, 0, 76, 0
1, 7008, Note_on_c, 0, 60, 80
1, 7008, Note_on_c, 0, 74, 80
1, 7008, Note_on_c, 1, 55, 69
1, 7016, Note_on_c, 0, 74, 0
1, 7020, Note_on_c, 0, 76, 80
1, 7028, Note_on_c, 0, 76, 0
1, 7032, Note_on_c, 0, 60, 0
1, 7032, Note_on_c, 0, 74, 80
1, 7032, Note_on_c, 1, 55, 0
1, 7040, Note_on_c, 0, 74, 0
1, 7040, Note_on_c, 0, 60, 80
1, 7040, Note_on_c, 1, 55, 69
1, 7044, Note_on_c, 0, 76, 80
1, 7052, Note_on_c, 0, 76, 0
1, 7056, Note_on_c, 0, 74, 80
1, 7064, Note_on_c, 0, 60, 0
1, 7064, Note_on_c, 0, 74, 0
1, 7064, Note_on_c, 1, 55, 0
1, 7068, Note_on_c, 0, 76, 80
1, 7072, Note_on_c, 0, 60, 80
1, 7072, Note_on_c, 1, 55, 69
1, 7076, Note_on_c, 0, 76, 0
1, 7080, Note_on_c, 0, 74, 80
1, 7088, Note_on_c, 0, 74, 0
1, 7092, Note_on_c, 0, 76, 80
1, 7096, Note_on_c, 0, 60, 0
1, 7096, Note_on_c, 1, 55, 0
1, 7100, Note_on_c, 0, 76, 0
1, 7104, Note_on_c, 0, 74, 80
1, 7104, Note_on_c, 1, 55, 69
1, 7104, Note_on_c, 1, 59, 69
1, 7112, Note_on_c, 0, 74, 0
1, 7116, Note_on_c, 0, 76, 80
1, 7124, Note_on_c, 0, 76, 0
1, 7128, Note_on_c, 0, 74, 80
1, 7128, Note_on_c, 1, 55, 0
1, 7128, Note_on_c, 1, 59, 0
1, 7136, Note_on_c, 0, 74, 0
1, 7136, Note_on_c, 1, 55, 69
1, 7136, Note_on_c, 1, 59, 69
1, 7140, Note_on_c, 0, 76, 80
1, 7148, Note_on_c, 0, 76, 0
1, 7152, Note_on_c, 0, 74, 80
1, 7160, Note_on_c, 0, 74, 0
1, 7160, Note_on_c, 1, 55, 0
1, 7160, Note_on_c, 1, 59, 0
1, 7164, Note_on_c, 0, 72, 80
1, 7168, Note_on_c, 1, 59, 69
1, 7168, Note_on_c, 1, 55, 69
1, 7182, Note_on_c, 0, 72, 0
1, 7188, Note_on_c, 0, 74, 80
1, 7192, Note_on_c, 1, 59, 0
1, 7192, Note_on_c, 1, 55, 0
1, 7200, Note_on_c, 0, 72, 80
1, 7200, Note_on_c, 0, 60, 80
1, 7200, Note_on_c, 1, 48, 69
1, 7206, Note_on_c, 0, 74, 0
1, 7224, Note_on_c, 0, 72, 0
1, 7232, Note_on_c, 0, 76, 80
1, 7256, Note_on_c, 0, 76, 0
1, 7264, Note_on_c, 0, 79, 80
1, 7276, Note_on_c, 0, 60, 0
1, 7276, Note_on_c, 1, 48, 0
1, 7288, Note_on_c, 0, 79, 0
1, 7296, Note_on_c, 0, 79, 80
1, 7304, Note_on_c, 0, 79, 0
1, 7308, Note_on_c, 0, 81, 80
1, 7316, Note_on_c, 0, 81, 0
1, 7320, Note_on_c, 0, 79, 80
1, 7328, Note_on_c, 0, 79, 0
1, 7328, Note_on_c, 0, 60, 80
1, 7332, Note_on_c, 0, 81, 80
1, 7340, Note_on_c, 0, 81, 0
1, 7344, Note_on_c, 0, 79, 80
1, 7352, Note_on_c, 0, 60, 0
1, 7352, Note_on_c, 0, 79, 0
1, 7356, Note_on_c, 0, 81, 80
1, 7360, Note_on_c, 0, 64, 80
1, 7364, Note_on_c, 0, 81, 0
1, 7368, Note_on_c, 0, 78, 80
1, 7376, Note_on_c, 0, 78, 0
1, 7380, Note_on_c, 0, 79, 80
1, 7384, Note_on_c, 0, 64, 0
1, 7388, Note_on_c, 0, 79, 0
1, 7392, Note_on_c, 0, 65, 80
1, 7392, Note_on_c, 1, 55, 69
1, 7416, Note_on_c, 0, 65, 0
1, 7416, Note_on_c, 1, 55, 0
1, 7424, Note_on_c, 0, 77, 80
1, 7424, Note_on_c, 0, 62, 80
1, 7448, Note_on_c, 0, 77, 0
1, 7448, Note_on_c, 0, 62, 0
1, 7456, Note_on_c, 0, 74, 80
1, 7456, Note_on_c, 1, 59, 69
1, 7480, Note_on_c, 0, 74, 0
1, 7480, Note_on_c, 1, 59, 0
1, 7488, Note_on_c, 0, 72, 80
1, 7488, Note_on_c, 0, 60, 80
1, 7488, Note_on_c, 1, 48, 69
1, 7512, Note_on_c, 0, 72, 0
1, 7520, Note_on_c, 0, 76, 80
1, 7544, Note_on_c, 0, 76, 0
1, 7552, Note_on_c, 0, 67, 80
1, 7564, Note_on_c, 0, 60, 0
1, 7564, Note_on_c, 1, 48, 0
1, 7576, Note_on_c, 0, 67, 0
1, 7584, Note_on_c, 0, 67, 80
1, 7592, Note_on_c, 0, 67, 0
1, 7596, Note_on_c, 0, 69, 80
1, 7604, Note_on_c, 0, 69, 0
1, 7608, Note_on_c, 0, 67, 80
1, 7616, Note_on_c, 0, 67, 0
1, 7616, Note_on_c, 1, 52, 69
1, 7620, Note_on_c, 0, 69, 80
1, 7628, Note_on_c, 0, 69, 0
1, 7632, Note_on_c, 0, 67, 80
1, 7640, Note_on_c, 0, 67, 0
1, 7640, Note_on_c, 1, 52, 0
1, 7644, Note_on_c, 0, 69, 80
1, 7648, Note_on_c, 1, 48, 69
1, 7652, Note_on_c, 0, 69, 0
1, 7656, Note_on_c, 0, 66, 80
1, 7664, Note_on_c, 0, 66, 0
1, 7668, Note_on_c, 0, 67, 80
1, 7672, Note_on_c, 1, 48, 0
1, 7676, Note_on_c, 0, 67, 0
1, 7680, Note_on_c, 1, 43, 81
1, 7712, Note_on_c, 0, 65, 94
1, 7736, Note_on_c, 0, 65, 0
1, 7744, Note_on_c, 0, 62, 94
1, 7744, Note_on_c, 1, 59, 81
1, 7744, Note_on_c, 1, 53, 81
1, 7756, Note_on_c, 1, 43, 0
1, 7768, Note_on_c, 0, 62, 0
1, 7768, Note_on_c, 1, 59, 0
1, 7768, Note_on_c, 1, 53, 0
1, 7776, Note_on_c, 0, 62, 52
1, 7776, Note_on_c, 1, 59, 45
1, 7776, Note_on_c, 1, 53, 45
1, 7776, Note_on_c, 1, 36, 45
1, 7928, Note_on_c, 0, 62, 0
1, 7928, Note_on_c, 1, 59, 0
1, 7928, Note_on_c, 1, 53, 0
1, 7968, Note_on_c, 0, 60, 52
1, 7968, Note_on_c, 1, 55, 45
1, 7968, Note_on_c, 1, 52, 45
1, 8006, Note_on_c, 0, 60, 0
1, 8006, Note_on_c, 1, 36, 0
1, 8006, Note_on_c, 1, 55, 0
1, 8006, Note_on_c, 1, 52, 0
1, 8040, Note_on_c, 0, 69, 52
1, 8058, Note_on_c, 0, 69, 0
1, 8064, Note_on_c, 0, 72, 94
1, 8064, Note_on_c, 1, 53, 81
1, 8088, Note_on_c, 1, 53, 0
1, 8096, Note_on_c, 1, 57, 81
1, 8120, Note_on_c, 1, 57, 0
1, 8128, Note_on_c, 0, 60, 94
1, 8140, Note_on_c, 0, 72, 0
1, 8148, Note_on_c, 0, 71, 94
1, 8152, Note_on_c, 0, 60, 0
1, 8160, Note_on_c, 0, 71, 0
1, 8160, Note_on_c, 0, 72, 94
1, 8160, Note_on_c, 1, 55, 81
1, 8184, Note_on_c, 1, 55, 0
1, 8192, Note_on_c, 1, 58, 81
1, 8216, Note_on_c, 1, 58, 0
1, 8224, Note_on_c, 0, 60, 94
1, 8236, Note_on_c, 0, 72, 0
1, 8246, Note_on_c, 0, 72, 94
1, 8246, Note_on_c, 0, 71, 94
1, 8248, Note_on_c, 0, 60, 0
1, 8250, Note_on_c, 0, 72, 0
1, 8250, Note_on_c, 0, 71, 0
1, 8250, Note_on_c, 0, 74, 94
1, 8252, Note_on_c, 0, 74, 0
1, 8256, Note_on_c, 0, 72, 94
1, 8256, Note_on_c, 1, 53, 81
1, 8280, Note_on_c, 1, 53, 0
1, 8288, Note_on_c, 1, 57, 81
1, 8312, Note_on_c, 1, 57, 0
1, 8320, Note_on_c, 0, 60, 94
1, 8332, Note_on_c, 0, 72, 0
1, 8344, Note_on_c, 0, 60, 0
1, 8352, Note_on_c, 0, 82, 94
1, 8352, Note_on_c, 1, 52, 81
1, 8376, Note_on_c, 1, 52, 0
1, 8384, Note_on_c, 1, 55, 81
1, 8408, Note_on_c, 1, 55, 0
1, 8416, Note_on_c, 0, 60, 94
1, 8428, Note_on_c, 0, 82, 0
1, 8440, Note_on_c, 0, 60, 0
1, 8448, Note_on_c, 0, 70, 94
1, 8448, Note_on_c, 1, 48, 81
1, 8472, Note_on_c, 1, 48, 0
1, 8480, Note_on_c, 1, 52, 81
1, 8504, Note_on_c, 1, 52, 0
1, 8512, Note_on_c, 1, 55, 81
1, 8524, Note_on_c, 0, 70, 0
1, 8536, Note_on_c, 1, 55, 0
1, 8544, Note_on_c, 1, 53, 57
1, 8568, Note_on_c, 1, 53, 0
1, 8576, Note_on_c, 1, 57, 57
1, 8592, Note_on_c, 0, 69, 66
1, 8600, Note_on_c, 1, 57, 0
1, 8608, Note_on_c, 0, 60, 66
1, 8630, Note_on_c, 0, 69, 0
1, 8632, Note_on_c, 0, 60, 0
1, 8640, Note_on_c, 0, 67, 80
1, 8640, Note_on_c, 1, 46, 69
1, 8664, Note_on_c, 0, 67, 0
1, 8664, Note_on_c, 1, 46, 0
1, 8672, Note_on_c, 0, 70, 80
1, 8672, Note_on_c, 1, 50, 69
1, 8696, Note_on_c, 0, 70, 0
1, 8696, Note_on_c, 1, 50, 0
1, 8704, Note_on_c, 0, 67, 80
1, 8704, Note_on_c, 1, 55, 69
1, 8728, Note_on_c, 0, 67, 0
1, 8728, Note_on_c, 1, 55, 0
1, 8736, Note_on_c, 0, 65, 80
1, 8736, Note_on_c, 1, 48, 69
1, 8760, Note_on_c, 0, 65, 0
1, 8760, Note_on_c, 1, 48, 0
1, 8768, Note_on_c, 0, 69, 80
1, 8768, Note_on_c, 1, 53, 69
1, 8792, Note_on_c, 0, 69, 0
1, 8792, Note_on_c, 1, 53, 0
1, 8800, Note_on_c, 0, 65, 80
1, 8800, Note_on_c, 1, 57, 69
1, 8824, Note_on_c, 0, 65, 0
1, 8824, Note_on_c, 1, 57, 0
1, 8832, Note_on_c, 0, 64, 80
1, 8832, Note_on_c, 1, 48, 69
1, 8856, Note_on_c, 0, 64, 0
1, 8856, Note_on_c, 1, 48, 0
1, 8864, Note_on_c, 0, 67, 80
1, 8864, Note_on_c, 1, 55, 69
1, 8888, Note_on_c, 0, 67, 0
1, 8888, Note_on_c, 1, 55, 0
1, 8896, Note_on_c, 0, 64, 80
1, 8896, Note_on_c, 1, 58, 69
1, 8920, Note_on_c, 0, 64, 0
1, 8920, Note_on_c, 1, 58, 0
1, 8928, Note_on_c, 0, 82, 52
1, 8928, Note_on_c, 1, 50, 45
1, 8952, Note_on_c, 1, 50, 0
1, 8960, Note_on_c, 1, 53, 45
1, 8984, Note_on_c, 1, 53, 0
1, 8992, Note_on_c, 1, 58, 45
1, 9004, Note_on_c, 0, 82, 0
1, 9016, Note_on_c, 1, 58, 0
1, 9024, Note_on_c, 0, 70, 52
1, 9024, Note_on_c, 1, 52, 45
1, 9048, Note_on_c, 1, 52, 0
1, 9056, Note_on_c, 1, 55, 45
1, 9080, Note_on_c, 1, 55, 0
1, 9088, Note_on_c, 0, 60, 52
1, 9100, Note_on_c, 0, 70, 0
1, 9112, Note_on_c, 0, 60, 0
1, 9120, Note_on_c, 1, 53, 45
1, 9144, Note_on_c, 1, 53, 0
1, 9152, Note_on_c, 1, 57, 45
1, 9168, Note_on_c, 0, 69, 52
1, 9176, Note_on_c, 1, 57, 0
1, 9184, Note_on_c, 0, 60, 52
1, 9206, Note_on_c, 0, 69, 0
1, 9208, Note_on_c, 0, 60, 0
1, 9216, Note_on_c, 0, 67, 52
1, 9216, Note_on_c, 1, 46, 45
1, 9240, Note_on_c, 0, 67, 0
1, 9240, Note_on_c, 1, 46, 0
1, 9248, Note_on_c, 0, 70, 52
1, 9248, Note_on_c, 1, 50, 45
1, 9272, Note_on_c, 0, 70, 0
1, 9272, Note_on_c, 1, 50, 0
1, 9280, Note_on_c, 0, 69, 52
1, 9280, Note_on_c, 1, 55, 45
1, 9304, Note_on_c, 0, 69, 0
1, 9304, Note_on_c, 1, 55, 0
1, 9312, Note_on_c, 0, 65, 52
1, 9312, Note_on_c, 1, 48, 45
1, 9336, Note_on_c, 0, 65, 0
1, 9336, Note_on_c, 1, 48, 0
1, 9344, Note_on_c, 0, 69, 52
1, 9344, Note_on_c, 1, 53, 45
1, 9368, Note_on_c, 0, 69, 0
1, 9368, Note_on_c, 1, 53, 0
1, 9376, Note_on_c, 0, 65, 52
1, 9376, Note_on_c, 1, 57, 45
1, 9400, Note_on_c, 0, 65, 0
1, 9400, Note_on_c, 1, 57, 0
1, 9408, Note_on_c, 0, 64, 52
1, 9408, Note_on_c, 1, 48, 45
1, 9432, Note_on_c, 0, 64, 0
1, 9432, Note_on_c, 1, 48, 0
1, 9440, Note_on_c, 0, 67, 52
1, 9440, Note_on_c, 1, 55, 45
1, 9464, Note_on_c, 0, 67, 0
1, 9464, Note_on_c, 1, 55, 0
1, 9472, Note_on_c, 0, 64, 52
1, 9472, Note_on_c, 1, 58, 45
1, 9496, Note_on_c, 0, 64, 0
1, 9496, Note_on_c, 1, 58, 0
1, 9504, Note_on_c, 0, 65, 96
1, 9504, Note_on_c, 1, 57, 83
1, 9528, Note_on_c, 1, 57, 0
1, 9536, Note_on_c, 0, 60, 96
1, 9560, Note_on_c, 0, 60, 0
1, 9568, Note_on_c, 1, 57, 83
1, 9580, Note_on_c, 0, 65, 0
1, 9592, Note_on_c, 1, 57, 0
1, 9600, Note_on_c, 1, 53, 45
1, 9632, Note_on_c, 0, 64, 52
1, 9656, Note_on_c, 0, 64, 0
1, 9664, Note_on_c, 0, 65, 52
1, 9676, Note_on_c, 1, 53, 0
1, 9688, Note_on_c, 0, 65, 0
1, 9696, Note_on_c, 0, 67, 52
1, 9720, Note_on_c, 0, 67, 0
1, 9728, Note_on_c, 0, 65, 52
1, 9752, Note_on_c, 0, 65, 0
1, 9760, Note_on_c, 0, 67, 52
1, 9760, Note_on_c, 0, 70, 52
1, 9784, Note_on_c, 0, 67, 0
1, 9784, Note_on_c, 0, 70, 0
1, 9792, Note_on_c, 0, 69, 96
1, 9792, Note_on_c, 0, 65, 96
1, 9792, Note_on_c, 1, 48, 83
1, 9792, Note_on_c, 1, 36, 83
1, 9816, Note_on_c, 0, 69, 0
1, 9816, Note_on_c, 0, 65, 0
1, 9824, Note_on_c, 0, 67, 96
1, 9824, Note_on_c, 0, 64, 96
1, 9848, Note_on_c, 0, 67, 0
1, 9848, Note_on_c, 0, 64, 0
1, 9856, Note_on_c, 0, 66, 96
1, 9856, Note_on_c, 0, 63, 96
1, 9868, Note_on_c, 1, 48, 0
1, 9868, Note_on_c, 1, 36, 0
1, 9880, Note_on_c, 0, 66, 0
1, 9880, Note_on_c, 0, 63, 0
1, 9888, Note_on_c, 0, 64, 52
1, 9888, Note_on_c, 0, 67, 52
1, 9912, Note_on_c, 0, 64, 0
1, 9912, Note_on_c, 0, 67, 0
1, 9920, Note_on_c, 0, 66, 52
1, 9944, Note_on_c, 0, 66, 0
1, 9952, Note_on_c, 0, 67, 52
1, 9976, Note_on_c, 0, 67, 0
1, 9984, Note_on_c, 0, 69, 52
1, 10008, Note_on_c, 0, 69, 0
1, 10016, Note_on_c, 0, 67, 52
1, 10040, Note_on_c, 0, 67, 0
1, 10048, Note_on_c, 0, 69, 52
1, 10048, Note_on_c, 0, 72, 52
1, 10072, Note_on_c, 0, 69, 0
1, 10072, Note_on_c, 0, 72, 0
1, 10080, Note_on_c, 0, 70, 94
1, 10080, Note_on_c, 0, 67, 94
1, 10080, Note_on_c, 1, 41, 81
1, 10080, Note_on_c, 1, 53, 81
1, 10104, Note_on_c, 0, 70, 0
1, 10104, Note_on_c, 0, 67, 0
1, 10112, Note_on_c, 0, 69, 94
1, 10112, Note_on_c, 0, 65, 94
1, 10136, Note_on_c, 0, 69, 0
1, 10136, Note_on_c, 0, 65, 0
1, 10144, Note_on_c, 0, 68, 94
1, 10144, Note_on_c, 0, 64, 94
1, 10156, Note_on_c, 1, 41, 0
1, 10156, Note_on_c, 1, 53, 0
1, 10168, Note_on_c, 0, 68, 0
1, 10168, Note_on_c, 0, 64, 0
1, 10176, Note_on_c, 0, 69, 94
1, 10176, Note_on_c, 0, 65, 94
1, 10208, Note_on_c, 0, 63, 94
1, 10208, Note_on_c, 1, 51, 81
1, 10232, Note_on_c, 0, 63, 0
1, 10232, Note_on_c, 1, 51, 0
1, 10240, Note_on_c, 0, 62, 94
1, 10240, Note_on_c, 1, 50, 81
1, 10252, Note_on_c, 0, 69, 0
1, 10252, Note_on_c, 0, 65, 0
1, 10264, Note_on_c, 0, 62, 0
1, 10264, Note_on_c, 1, 50, 0
1, 10272, Note_on_c, 0, 84, 94
1, 10272, Note_on_c, 0, 75, 94
1, 10272, Note_on_c, 0, 60, 94
1, 10272, Note_on_c, 1, 48, 81
1, 10296, Note_on_c, 0, 60, 0
1, 10296, Note_on_c, 1, 48, 0
1, 10304, Note_on_c, 1, 58, 81
1, 10304, Note_on_c, 1, 46, 81
1, 10328, Note_on_c, 1, 58, 0
1, 10328, Note_on_c, 1, 46, 0
1, 10336, Note_on_c, 1, 57, 81
1, 10336, Note_on_c, 1, 45, 81
1, 10348, Note_on_c, 0, 75, 0
1, 10360, Note_on_c, 1, 57, 0
1, 10360, Note_on_c, 1, 45, 0
1, 10368, Note_on_c, 1, 46, 81
1, 10368, Note_on_c, 1, 58, 81
1, 10400, Note_on_c, 0, 85, 94
1, 10424, Note_on_c, 0, 85, 0
1, 10432, Note_on_c, 0, 86, 94
1, 10444, Note_on_c, 1, 46, 0
1, 10444, Note_on_c, 1, 58, 0
1, 10456, Note_on_c, 0, 86, 0
1, 10464, Note_on_c, 0, 84, 94
1, 10464, Note_on_c, 1, 46, 81
1, 10488, Note_on_c, 0, 84, 0
1, 10488, Note_on_c, 0, 84, 0
1, 10496, Note_on_c, 0, 82, 94
1, 10520, Note_on_c, 0, 82, 0
1, 10528, Note_on_c, 0, 81, 94
1, 10540, Note_on_c, 1, 46, 0
1, 10552, Note_on_c, 0, 81, 0
1, 10560, Note_on_c, 0, 81, 94
1, 10560, Note_on_c, 1, 47, 81
1, 10584, Note_on_c, 0, 81, 0
1, 10592, Note_on_c, 0, 79, 94
1, 10616, Note_on_c, 0, 79, 0
1, 10624, Note_on_c, 0, 77, 94
1, 10636, Note_on_c, 1, 47, 0
1, 10648, Note_on_c, 0, 77, 0
1, 10656, Note_on_c, 0, 72, 94
1, 10656, Note_on_c, 0, 76, 52
1, 10656, Note_on_c, 1, 48, 81
1, 10680, Note_on_c, 0, 72, 0
1, 10680, Note_on_c, 0, 76, 0
1, 10688, Note_on_c, 0, 79, 52
1, 10712, Note_on_c, 0, 79, 0
1, 10720, Note_on_c, 0, 79, 52
1, 10732, Note_on_c, 1, 48, 0
1, 10744, Note_on_c, 0, 79, 0
1, 10752, Note_on_c, 0, 79, 52
1, 10776, Note_on_c, 0, 79, 0
1, 10784, Note_on_c, 0, 79, 52
1, 10808, Note_on_c, 0, 79, 0
1, 10816, Note_on_c, 0, 79, 52
1, 10840, Note_on_c, 0, 79, 0
1, 10848, Note_on_c, 0, 79, 52
1, 10872, Note_on_c, 0, 79, 0
1, 10880, Note_on_c, 0, 79, 52
1, 10904, Note_on_c, 0, 79, 0
1, 10912, Note_on_c, 0, 79, 52
1, 10936, Note_on_c, 0, 79, 0
1, 10944, Note_on_c, 0, 79, 94
1, 10968, Note_on_c, 0, 79, 0
1, 10976, Note_on_c, 0, 71, 94
1, 10976, Note_on_c, 0, 62, 94
1, 11000, Note_on_c, 0, 71, 0
1, 11000, Note_on_c, 0, 62, 0
1, 11008, Note_on_c, 0, 74, 94
1, 11008, Note_on_c, 0, 65, 94
1, 11032, Note_on_c, 0, 74, 0
1, 11032, Note_on_c, 0, 65, 0
1, 11040, Note_on_c, 0, 64, 52
1, 11040, Note_on_c, 0, 72, 52
1, 11064, Note_on_c, 0, 64, 0
1, 11064, Note_on_c, 0, 72, 0
1, 11072, Note_on_c, 0, 71, 52
1, 11072, Note_on_c, 0, 62, 52
1, 11096, Note_on_c, 0, 71, 0
1, 11096, Note_on_c, 0, 62, 0
1, 11104, Note_on_c, 0, 74, 52
1, 11104, Note_on_c, 0, 65, 52
1, 11128, Note_on_c, 0, 74, 0
1, 11128, Note_on_c, 0, 65, 0
1, 11136, Note_on_c, 0, 72, 52
1, 11136, Note_on_c, 0, 64, 52
1, 11160, Note_on_c, 0, 72, 0
1, 11160, Note_on_c, 0, 64, 0
1, 11168, Note_on_c, 0, 71, 52
1, 11168, Note_on_c, 0, 62, 52
1, 11192, Note_on_c, 0, 71, 0
1, 11192, Note_on_c, 0, 62, 0
1, 11200, Note_on_c, 0, 74, 52
1, 11200, Note_on_c, 0, 65, 52
1, 11224, Note_on_c, 0, 74, 0
1, 11224, Note_on_c, 0, 65, 0
1, 11232, Note_on_c, 0, 79, 52
1, 11256, Note_on_c, 0, 79, 0
1, 11264, Note_on_c, 0, 72, 52
1, 11264, Note_on_c, 0, 64, 52
1, 11288, Note_on_c, 0, 72, 0
1, 11288, Note_on_c, 0, 64, 0
1, 11296, Note_on_c, 0, 76, 52
1, 11296, Note_on_c, 0, 67, 52
1, 11320, Note_on_c, 0, 76, 0
1, 11320, Note_on_c, 0, 67, 0
1, 11328, Note_on_c, 0, 65, 94
1, 11328, Note_on_c, 0, 74, 94
1, 11352, Note_on_c, 0, 65, 0
1, 11352, Note_on_c, 0, 74, 0
1, 11360, Note_on_c, 0, 72, 94
1, 11360, Note_on_c, 0, 64, 94
1, 11384, Note_on_c, 0, 72, 0
1, 11384, Note_on_c, 0, 64, 0
1, 11392, Note_on_c, 0, 76, 94
1, 11392, Note_on_c, 0, 67, 94
1, 11416, Note_on_c, 0, 76, 0
1, 11416, Note_on_c, 0, 67, 0
1, 11424, Note_on_c, 0, 74, 52
1, 11424, Note_on_c, 0, 65, 52
1, 11448, Note_on_c, 0, 74, 0
1, 11448, Note_on_c, 0, 65, 0
1, 11456, Note_on_c, 0, 72, 52
1, 11456, Note_on_c, 0, 64, 52
1, 11480, Note_on_c, 0, 72, 0
1, 11480, Note_on_c, 0, 64, 0
1, 11488, Note_on_c, 0, 76, 52
1, 11488, Note_on_c, 0, 67, 52
1, 11512, Note_on_c, 0, 76, 0
1, 11512, Note_on_c, 0, 67, 0
1, 11520, Note_on_c, 0, 79, 52
1, 11544, Note_on_c, 0, 79, 0
1, 11552, Note_on_c, 0, 74, 52
1, 11552, Note_on_c, 1, 59, 45
1, 11576, Note_on_c, 0, 74, 0
1, 11576, Note_on_c, 1, 59, 0
1, 11584, Note_on_c, 0, 77, 52
1, 11584, Note_on_c, 0, 62, 52
1, 11608, Note_on_c, 0, 77, 0
1, 11608, Note_on_c, 0, 62, 0
1, 11616, Note_on_c, 0, 60, 52
1, 11616, Note_on_c, 0, 76, 52
1, 11640, Note_on_c, 0, 60, 0
1, 11640, Note_on_c, 0, 76, 0
1, 11648, Note_on_c, 0, 74, 52
1, 11648, Note_on_c, 1, 59, 45
1, 11672, Note_on_c, 0, 74, 0
1, 11672, Note_on_c, 1, 59, 0
1, 11680, Note_on_c, 0, 62, 52
1, 11680, Note_on_c, 0, 77, 52
1, 11704, Note_on_c, 0, 62, 0
1, 11704, Note_on_c, 0, 77, 0
1, 11712, Note_on_c, 0, 76, 94
1, 11712, Note_on_c, 0, 60, 94
1, 11736, Note_on_c, 0, 76, 0
1, 11736, Note_on_c, 0, 60, 0
1, 11744, Note_on_c, 0, 74, 94
1, 11744, Note_on_c, 1, 59, 81
1, 11768, Note_on_c, 0, 74, 0
1, 11768, Note_on_c, 1, 59, 0
1, 11776, Note_on_c, 0, 77, 94
1, 11776, Note_on_c, 0, 62, 94
1, 11800, Note_on_c, 0, 77, 0
1, 11800, Note_on_c, 0, 62, 0
1, 11808, Note_on_c, 0, 60, 52
1, 11840, Note_on_c, 0, 76, 52
1, 11864, Note_on_c, 0, 76, 0
1, 11872, Note_on_c, 0, 77, 52
1, 11884, Note_on_c, 0, 60, 0
1, 11896, Note_on_c, 0, 77, 0
1, 11904, Note_on_c, 0, 78, 52
1, 11928, Note_on_c, 0, 78, 0
1, 11936, Note_on_c, 0, 79, 52
1, 11960, Note_on_c, 0, 79, 0
1, 11968, Note_on_c, 0, 80, 52
1, 11992, Note_on_c, 0, 80, 0
1, 12000, Note_on_c, 0, 81, 52
1, 12024, Note_on_c, 0, 81, 0
1, 12032, Note_on_c, 0, 83, 52
1, 12056, Note_on_c, 0, 83, 0
1, 12064, Note_on_c, 0, 84, 52
1, 12088, Note_on_c, 0, 84, 0
1, 12096, Note_on_c, 0, 74, 94
1, 12096, Note_on_c, 0, 60, 94
1, 12096, Note_on_c, 1, 57, 81
1, 12096, Note_on_c, 1, 54, 81
1, 12172, Note_on_c, 0, 74, 0
1, 12172, Note_on_c, 0, 60, 0
1, 12172, Note_on_c, 1, 57, 0
1, 12172, Note_on_c, 1, 54, 0
1, 12192, Note_on_c, 0, 74, 52
1, 12192, Note_on_c, 1, 58, 45
1, 12192, Note_on_c, 1, 55, 45
1, 12216, Note_on_c, 0, 74, 0
1, 12224, Note_on_c, 0, 81, 52
1, 12248, Note_on_c, 0, 81, 0
1, 12256, Note_on_c, 0, 79, 52
1, 12268, Note_on_c, 1, 58, 0
1, 12268, Note_on_c, 1, 55, 0
1, 12280, Note_on_c, 0, 79, 0
1, 12288, Note_on_c, 0, 77, 94
1, 12320, Note_on_c, 0, 77, 0
1, 12320, Note_on_c, 0, 76, 94
1, 12336, Note_on_c, 1, 58, 81
1, 12336, Note_on_c, 1, 55, 81
1, 12336, Note_on_c, 1, 53, 81
1, 12344, Note_on_c, 0, 76, 0
1, 12352, Note_on_c, 0, 74, 94
1, 12374, Note_on_c, 1, 58, 0
1, 12374, Note_on_c, 1, 55, 0
1, 12374, Note_on_c, 1, 53, 0
1, 12376, Note_on_c, 0, 74, 0
1, 12384, Note_on_c, 0, 79, 94
1, 12384, Note_on_c, 0, 60, 94
1, 12384, Note_on_c, 1, 52, 81
1, 12408, Note_on_c, 0, 79, 0
1, 12416, Note_on_c, 0, 80, 94
1, 12422, Note_on_c, 0, 60, 0
1, 12422, Note_on_c, 1, 52, 0
1, 12432, Note_on_c, 1, 53, 81
1, 12440, Note_on_c, 0, 80, 0
1, 12448, Note_on_c, 0, 81, 94
1, 12470, Note_on_c, 1, 53, 0
1, 12472, Note_on_c, 0, 81, 0
1, 12480, Note_on_c, 0, 72, 94
1, 12480, Note_on_c, 1, 55, 81
1, 12504, Note_on_c, 1, 55, 0
1, 12512, Note_on_c, 0, 60, 94
1, 12536, Note_on_c, 0, 60, 0
1, 12544, Note_on_c, 0, 64, 94
1, 12556, Note_on_c, 0, 72, 0
1, 12568, Note_on_c, 0, 64, 0
1, 12576, Note_on_c, 0, 71, 94
1, 12576, Note_on_c, 1, 55, 81
1, 12584, Note_on_c, 0, 71, 0
1, 12588, Note_on_c, 0, 72, 94
1, 12596, Note_on_c, 0, 72, 0
1, 12600, Note_on_c, 0, 71, 94
1, 12600, Note_on_c, 1, 55, 0
1, 12608, Note_on_c, 0, 71, 0
1, 12608, Note_on_c, 0, 62, 94
1, 12612, Note_on_c, 0, 72, 94
1, 12620, Note_on_c, 0, 72, 0
1, 12624, Note_on_c, 0, 71, 94
1, 12632, Note_on_c, 0, 62, 0
1, 12632, Note_on_c, 0, 71, 0
1, 12636, Note_on_c, 0, 72, 94
1, 12640, Note_on_c, 0, 65, 94
1, 12644, Note_on_c, 0, 72, 0
1, 12648, Note_on_c, 0, 69, 94
1, 12656, Note_on_c, 0, 69, 0
1, 12660, Note_on_c, 0, 71, 94
1, 12664, Note_on_c, 0, 65, 0
1, 12668, Note_on_c, 0, 71, 0
1, 12672, Note_on_c, 0, 72, 94
1, 12704, Note_on_c, 1, 52, 45
1, 12728, Note_on_c, 1, 52, 0
1, 12736, Note_on_c, 1, 53, 45
1, 12748, Note_on_c, 0, 72, 0
1, 12760, Note_on_c, 1, 53, 0
1, 12768, Note_on_c, 1, 54, 45
1, 12792, Note_on_c, 1, 54, 0
1, 12800, Note_on_c, 1, 55, 45
1, 12824, Note_on_c, 1, 55, 0
1, 12832, Note_on_c, 1, 56, 45
1, 12856, Note_on_c, 1, 56, 0
1, 12864, Note_on_c, 1, 57, 45
1, 12888, Note_on_c, 1, 57, 0
1, 12896, Note_on_c, 1, 58, 45
1, 12920, Note_on_c, 1, 58, 0
1, 12928, Note_on_c, 1, 59, 45
1, 12952, Note_on_c, 1, 59, 0
1, 12960, Note_on_c, 1, 42, 81
1, 12960, Note_on_c, 1, 54, 81
1, 12992, Note_on_c, 0, 74, 94
1, 12992, Note_on_c, 0, 83, 94
1, 13016, Note_on_c, 0, 74, 0
1, 13016, Note_on_c, 0, 83, 0
1, 13024, Note_on_c, 0, 84, 94
1, 13024, Note_on_c, 0, 75, 94
1, 13036, Note_on_c, 1, 42, 0
1, 13036, Note_on_c, 1, 54, 0
1, 13048, Note_on_c, 0, 84, 0
1, 13048, Note_on_c, 0, 75, 0
1, 13056, Note_on_c, 1, 55, 57
1, 13056, Note_on_c, 1, 43, 57
1, 13088, Note_on_c, 0, 84, 66
1, 13088, Note_on_c, 0, 75, 66
1, 13112, Note_on_c, 0, 84, 0
1, 13112, Note_on_c, 0, 75, 0
1, 13120, Note_on_c, 0, 83, 66
1, 13120, Note_on_c, 0, 74, 66
1, 13132, Note_on_c, 1, 55, 0
1, 13132, Note_on_c, 1, 43, 0
1, 13144, Note_on_c, 0, 83, 0
1, 13144, Note_on_c, 0, 74, 0
1, 13152, Note_on_c, 1, 59, 81
1, 13152, Note_on_c, 1, 47, 81
1, 13184, Note_on_c, 0, 76, 94
1, 13184, Note_on_c, 0, 80, 94
1, 13208, Note_on_c, 0, 76, 0
1, 13208, Note_on_c, 0, 80, 0
1, 13216, Note_on_c, 0, 77, 94
1, 13216, Note_on_c, 0, 81, 94
1, 13228, Note_on_c, 1, 59, 0
1, 13228, Note_on_c, 1, 47, 0
1, 13240, Note_on_c, 0, 77, 0
1, 13240, Note_on_c, 0, 81, 0
1, 13248, Note_on_c, 0, 60, 52
1, 13248, Note_on_c, 1, 48, 45
1, 13280, Note_on_c, 0, 81, 52
1, 13280, Note_on_c, 0, 77, 52
1, 13304, Note_on_c, 0, 81, 0
1, 13304, Note_on_c, 0, 77, 0
1, 13312, Note_on_c, 0, 79, 52
1, 13312, Note_on_c, 0, 76, 52
1, 13324, Note_on_c, 0, 60, 0
1, 13324, Note_on_c, 1, 48, 0
1, 13336, Note_on_c, 0, 79, 0
1, 13336, Note_on_c, 0, 76, 0
1, 13344, Note_on_c, 1, 56, 81
1, 13344, Note_on_c, 1, 44, 81
1, 13376, Note_on_c, 0, 79, 94
1, 13376, Note_on_c, 0, 76, 95
1, 13400, Note_on_c, 0, 79, 0
1, 13400, Note_on_c, 0, 76, 0
1, 13408, Note_on_c, 0, 74, 94
1, 13408, Note_on_c, 0, 77, 94
1, 13420, Note_on_c, 1, 56, 0
1, 13420, Note_on_c, 1, 44, 0
1, 13432, Note_on_c, 0, 74, 0
1, 13432, Note_on_c, 0, 77, 0
1, 13440, Note_on_c, 1, 57, 45
1, 13440, Note_on_c, 1, 45, 45
1, 13472, Note_on_c, 0, 77, 52
1, 13472, Note_on_c, 0, 74, 52
1, 13496, Note_on_c, 0, 77, 0
1, 13496, Note_on_c, 0, 74, 0
1, 13504, Note_on_c, 0, 76, 52
1, 13504, Note_on_c, 0, 72, 52
1, 13516, Note_on_c, 1, 57, 0
1, 13516, Note_on_c, 1, 45, 0
1, 13528, Note_on_c, 0, 76, 0
1, 13528, Note_on_c, 0, 72, 0
1, 13536, Note_on_c, 0, 69, 52
1, 13536, Note_on_c, 0, 65, 52
1, 13536, Note_on_c, 1, 53, 45
1, 13560, Note_on_c, 0, 69, 0
1, 13568, Note_on_c, 0, 76, 52
1, 13592, Note_on_c, 0, 76, 0
1, 13600, Note_on_c, 0, 74, 52
1, 13612, Note_on_c, 0, 65, 0
1, 13612, Note_on_c, 1, 53, 0
1, 13624, Note_on_c, 0, 74, 0
1, 13632, Note_on_c, 0, 64, 52
1, 13632, Note_on_c, 0, 67, 52
1, 13632, Note_on_c, 1, 55, 45
1, 13656, Note_on_c, 0, 67, 0
1, 13664, Note_on_c, 0, 74, 52
1, 13688, Note_on_c, 0, 74, 0
1, 13696, Note_on_c, 0, 72, 52
1, 13708, Note_on_c, 0, 64, 0
1, 13708, Note_on_c, 1, 55, 0
1, 13720, Note_on_c, 0, 72, 0
1, 13728, Note_on_c, 0, 62, 52
1, 13728, Note_on_c, 0, 65, 52
1, 13752, Note_on_c, 0, 65, 0
1, 13760, Note_on_c, 0, 72, 52
1, 13784, Note_on_c, 0, 72, 0
1, 13792, Note_on_c, 0, 71, 52
1, 13804, Note_on_c, 0, 62, 0
1, 13816, Note_on_c, 0, 71, 0
1, 13824, Note_on_c, 0, 79, 94
1, 13824, Note_on_c, 0, 76, 94
1, 13856, Note_on_c, 1, 47, 81
1, 13856, Note_on_c, 1, 35, 81
1, 13880, Note_on_c, 1, 47, 0
1, 13880, Note_on_c, 1, 35, 0
1, 13888, Note_on_c, 1, 48, 81
1, 13888, Note_on_c, 1, 36, 81
1, 13900, Note_on_c, 0, 79, 0
1, 13900, Note_on_c, 0, 76, 0
1, 13912, Note_on_c, 1, 48, 0
1, 13912, Note_on_c, 1, 36, 0
1, 13920, Note_on_c, 0, 77, 94
1, 13920, Note_on_c, 0, 74, 94
1, 13952, Note_on_c, 1, 49, 81
1, 13952, Note_on_c, 1, 37, 81
1, 13976, Note_on_c, 1, 49, 0
1, 13976, Note_on_c, 1, 37, 0
1, 13984, Note_on_c, 1, 38, 81
1, 13984, Note_on_c, 1, 50, 81
1, 13996, Note_on_c, 0, 77, 0
1, 13996, Note_on_c, 0, 74, 0
1, 14008, Note_on_c, 1, 38, 0
1, 14008, Note_on_c, 1, 50, 0
1, 14016, Note_on_c, 0, 72, 94
1, 14016, Note_on_c, 0, 76, 94
1, 14048, Note_on_c, 1, 51, 81
1, 14048, Note_on_c, 1, 39, 81
1, 14072, Note_on_c, 1, 51, 0
1, 14072, Note_on_c, 1, 39, 0
1, 14080, Note_on_c, 1, 52, 81
1, 14080, Note_on_c, 1, 40, 81
1, 14092, Note_on_c, 0, 72, 0
1, 14092, Note_on_c, 0, 76, 0
1, 14104, Note_on_c, 1, 52, 0
1, 14104, Note_on_c, 1, 40, 0
1, 14112, Note_on_c, 0, 76, 66
1, 14144, Note_on_c, 0, 76, 0
1, 14144, Note_on_c, 0, 74, 66
1, 14144, Note_on_c, 0, 60, 66
1, 14144, Note_on_c, 1, 53, 57
1, 14144, Note_on_c, 1, 57, 57
1, 14168, Note_on_c, 0, 60, 0
1, 14168, Note_on_c, 1, 53, 0
1, 14168, Note_on_c, 1, 57, 0
1, 14176, Note_on_c, 0, 74, 0
1, 14176, Note_on_c, 0, 60, 66
1, 14176, Note_on_c, 1, 57, 57
1, 14176, Note_on_c, 1, 53, 57
1, 14200, Note_on_c, 0, 60, 0
1, 14200, Note_on_c, 1, 57, 0
1, 14200, Note_on_c, 1, 53, 0
1, 14208, Note_on_c, 0, 60, 66
1, 14208, Note_on_c, 1, 53, 57
1, 14208, Note_on_c, 1, 57, 57
1, 14232, Note_on_c, 0, 60, 0
1, 14232, Note_on_c, 1, 53, 0
1, 14232, Note_on_c, 1, 57, 0
1, 14240, Note_on_c, 0, 60, 66
1, 14240, Note_on_c, 1, 57, 57
1, 14240, Note_on_c, 1, 53, 57
1, 14264, Note_on_c, 0, 60, 0
1, 14264, Note_on_c, 1, 57, 0
1, 14264, Note_on_c, 1, 53, 0
1, 14272, Note_on_c, 0, 60, 66
1, 14272, Note_on_c, 1, 57, 57
1, 14272, Note_on_c, 1, 53, 57
1, 14296, Note_on_c, 0, 60, 0
1, 14296, Note_on_c, 1, 57, 0
1, 14296, Note_on_c, 1, 53, 0
1, 14304, Note_on_c, 0, 60, 66
1, 14304, Note_on_c, 1, 57, 57
1, 14304, Note_on_c, 1, 53, 57
1, 14328, Note_on_c, 0, 60, 0
1, 14328, Note_on_c, 1, 57, 0
1, 14328, Note_on_c, 1, 53, 0
1, 14336, Note_on_c, 0, 60, 66
1, 14336, Note_on_c, 1, 57, 57
1, 14336, Note_on_c, 1, 53, 57
1, 14360, Note_on_c, 0, 60, 0
1, 14360, Note_on_c, 1, 57, 0
1, 14360, Note_on_c, 1, 53, 0
1, 14368, Note_on_c, 0, 60, 66
1, 14368, Note_on_c, 1, 57, 57
1, 14368, Note_on_c, 1, 53, 57
1, 14392, Note_on_c, 0, 60, 0
1, 14392, Note_on_c, 1, 57, 0
1, 14392, Note_on_c, 1, 53, 0
1, 14400, Note_on_c, 0, 74, 94
1, 14424, Note_on_c, 0, 74, 0
1, 14432, Note_on_c, 0, 60, 94
1, 14432, Note_on_c, 0, 75, 94
1, 14432, Note_on_c, 1, 57, 81
1, 14432, Note_on_c, 1, 54, 81
1, 14456, Note_on_c, 0, 60, 0
1, 14456, Note_on_c, 0, 75, 0
1, 14456, Note_on_c, 1, 57, 0
1, 14456, Note_on_c, 1, 54, 0
1, 14464, Note_on_c, 0, 60, 94
1, 14464, Note_on_c, 1, 57, 81
1, 14464, Note_on_c, 1, 54, 81
1, 14488, Note_on_c, 0, 60, 0
1, 14488, Note_on_c, 1, 57, 0
1, 14488, Note_on_c, 1, 54, 0
1, 14496, Note_on_c, 0, 60, 94
1, 14496, Note_on_c, 1, 54, 81
1, 14496, Note_on_c, 1, 57, 81
1, 14520, Note_on_c, 0, 60, 0
1, 14520, Note_on_c, 1, 54, 0
1, 14520, Note_on_c, 1, 57, 0
1, 14528, Note_on_c, 0, 60, 94
1, 14528, Note_on_c, 1, 57, 81
1, 14528, Note_on_c, 1, 54, 81
1, 14552, Note_on_c, 0, 60, 0
1, 14552, Note_on_c, 1, 57, 0
1, 14552, Note_on_c, 1, 54, 0
1, 14560, Note_on_c, 0, 60, 94
1, 14560, Note_on_c, 1, 57, 81
1, 14560, Note_on_c, 1, 54, 81
1, 14584, Note_on_c, 0, 60, 0
1, 14584, Note_on_c, 1, 57, 0
1, 14584, Note_on_c, 1, 54, 0
1, 14592, Note_on_c, 0, 60, 94
1, 14592, Note_on_c, 1, 57, 81
1, 14592, Note_on_c, 1, 54, 81
1, 14616, Note_on_c, 0, 60, 0
1, 14616, Note_on_c, 1, 57, 0
1, 14616, Note_on_c, 1, 54, 0
1, 14624, Note_on_c, 0, 60, 94
1, 14624, Note_on_c, 1, 57, 81
1, 14624, Note_on_c, 1, 54, 81
1, 14648, Note_on_c, 0, 60, 0
1, 14648, Note_on_c, 1, 57, 0
1, 14648, Note_on_c, 1, 54, 0
1, 14656, Note_on_c, 0, 60, 94
1, 14656, Note_on_c, 1, 57, 81
1, 14656, Note_on_c, 1, 54, 81
1, 14680, Note_on_c, 0, 60, 0
1, 14680, Note_on_c, 1, 57, 0
1, 14680, Note_on_c, 1, 54, 0
1, 14688, Note_on_c, 0, 75, 52
1, 14720, Note_on_c, 0, 75, 0
1, 14720, Note_on_c, 0, 64, 52
1, 14720, Note_on_c, 0, 60, 52
1, 14720, Note_on_c, 0, 76, 52
1, 14720, Note_on_c, 1, 55, 45
1, 14744, Note_on_c, 0, 64, 0
1, 14744, Note_on_c, 0, 60, 0
1, 14744, Note_on_c, 1, 55, 0
1, 14752, Note_on_c, 0, 76, 0
1, 14752, Note_on_c, 0, 60, 52
1, 14752, Note_on_c, 0, 64, 52
1, 14752, Note_on_c, 1, 55, 45
1, 14776, Note_on_c, 0, 60, 0
1, 14776, Note_on_c, 0, 64, 0
1, 14776, Note_on_c, 1, 55, 0
1, 14784, Note_on_c, 0, 60, 52
1, 14784, Note_on_c, 0, 64, 52
1, 14784, Note_on_c, 1, 55, 45
1, 14808, Note_on_c, 0, 60, 0
1, 14808, Note_on_c, 0, 64, 0
1, 14808, Note_on_c, 1, 55, 0
1, 14816, Note_on_c, 0, 64, 52
1, 14816, Note_on_c, 0, 60, 52
1, 14816, Note_on_c, 1, 55, 45
1, 14840, Note_on_c, 0, 64, 0
1, 14840, Note_on_c, 0, 60, 0
1, 14840, Note_on_c, 1, 55, 0
1, 14848, Note_on_c, 0, 64, 52
1, 14848, Note_on_c, 0, 60, 52
1, 14848, Note_on_c, 1, 55, 45
1, 14872, Note_on_c, 0, 64, 0
1, 14872, Note_on_c, 0, 60, 0
1, 14872, Note_on_c, 1, 55, 0
1, 14880, Note_on_c, 0, 78, 52
1, 14880, Note_on_c, 0, 60, 52
1, 14880, Note_on_c, 0, 64, 52
1, 14880, Note_on_c, 1, 55, 45
1, 14904, Note_on_c, 0, 60, 0
1, 14904, Note_on_c, 0, 64, 0
1, 14904, Note_on_c, 1, 55, 0
1, 14912, Note_on_c, 0, 78, 0
1, 14912, Note_on_c, 0, 60, 52
1, 14912, Note_on_c, 0, 64, 52
1, 14912, Note_on_c, 0, 79, 52
1, 14912, Note_on_c, 1, 55, 45
1, 14936, Note_on_c, 0, 60, 0
1, 14936, Note_on_c, 0, 64, 0
1, 14936, Note_on_c, 0, 79, 0
1, 14936, Note_on_c, 1, 55, 0
1, 14944, Note_on_c, 0, 60, 52
1, 14944, Note_on_c, 0, 64, 52
1, 14944, Note_on_c, 1, 55, 45
1, 14968, Note_on_c, 0, 60, 0
1, 14968, Note_on_c, 0, 64, 0
1, 14968, Note_on_c, 1, 55, 0
1, 14976, Note_on_c, 0, 60, 80
1, 14976, Note_on_c, 1, 54, 69
1, 14976, Note_on_c, 1, 57, 69
1, 15000, Note_on_c, 0, 60, 0
1, 15000, Note_on_c, 1, 54, 0
1, 15000, Note_on_c, 1, 57, 0
1, 15008, Note_on_c, 0, 60, 80
1, 15008, Note_on_c, 1, 57, 69
1, 15008, Note_on_c, 1, 54, 69
1, 15032, Note_on_c, 0, 60, 0
1, 15032, Note_on_c, 1, 57, 0
1, 15032, Note_on_c, 1, 54, 0
1, 15040, Note_on_c, 0, 60, 80
1, 15040, Note_on_c, 1, 57, 69
1, 15040, Note_on_c, 1, 54, 69
1, 15062, Note_on_c, 0, 72, 80
1, 15062, Note_on_c, 0, 74, 80
1, 15064, Note_on_c, 0, 60, 0
1, 15064, Note_on_c, 1, 57, 0
1, 15064, Note_on_c, 1, 54, 0
1, 15066, Note_on_c, 0, 72, 0
1, 15066, Note_on_c, 0, 74, 0
1, 15066, Note_on_c, 0, 76, 80
1, 15068, Note_on_c, 0, 76, 0
1, 15072, Note_on_c, 0, 60, 80
1, 15072, Note_on_c, 0, 74, 80
1, 15072, Note_on_c, 1, 55, 69
1, 15080, Note_on_c, 0, 74, 0
1, 15084, Note_on_c, 0, 76, 80
1, 15092, Note_on_c, 0, 76, 0
1, 15096, Note_on_c, 0, 60, 0
1, 15096, Note_on_c, 0, 74, 80
1, 15096, Note_on_c, 1, 55, 0
1, 15104, Note_on_c, 0, 74, 0
1, 15104, Note_on_c, 0, 60, 80
1, 15104, Note_on_c, 1, 55, 69
1, 15108, Note_on_c, 0, 76, 80
1, 15116, Note_on_c, 0, 76, 0
1, 15120, Note_on_c, 0, 74, 80
1, 15128, Note_on_c, 0, 60, 0
1, 15128, Note_on_c, 0, 74, 0
1, 15128, Note_on_c, 1, 55, 0
1, 15132, Note_on_c, 0, 76, 80
1, 15136, Note_on_c, 0, 60, 80
1, 15136, Note_on_c, 1, 55, 69
1, 15140, Note_on_c, 0, 76, 0
1, 15144, Note_on_c, 0, 74, 80
1, 15152, Note_on_c, 0, 74, 0
1, 15156, Note_on_c, 0, 76, 80
1, 15160, Note_on_c, 0, 60, 0
1, 15160, Note_on_c, 1, 55, 0
1, 15164, Note_on_c, 0, 76, 0
1, 15168, Note_on_c, 0, 74, 80
1, 15168, Note_on_c, 1, 55, 69
1, 15168, Note_on_c, 1, 59, 69
1, 15176, Note_on_c, 0, 74, 0
1, 15180, Note_on_c, 0, 76, 80
1, 15188, Note_on_c, 0, 76, 0
1, 15192, Note_on_c, 0, 74, 80
1, 15192, Note_on_c, 1, 55, 0
1, 15192, Note_on_c, 1, 59, 0
1, 15200, Note_on_c, 0, 74, 0
1, 15200, Note_on_c, 1, 55, 69
1, 15200, Note_on_c, 1, 59, 69
1, 15204, Note_on_c, 0, 76, 80
1, 15212, Note_on_c, 0, 76, 0
1, 15216, Note_on_c, 0, 74, 80
1, 15224, Note_on_c, 0, 74, 0
1, 15224, Note_on_c, 1, 55, 0
1, 15224, Note_on_c, 1, 59, 0
1, 15228, Note_on_c, 0, 72, 80
1, 15232, Note_on_c, 1, 59, 69
1, 15232, Note_on_c, 1, 55, 69
1, 15246, Note_on_c, 0, 72, 0
1, 15252, Note_on_c, 0, 74, 80
1, 15256, Note_on_c, 1, 59, 0
1, 15256, Note_on_c, 1, 55, 0
1, 15264, Note_on_c, 0, 72, 80
1, 15264, Note_on_c, 0, 60, 80
1, 15264, Note_on_c, 1, 48, 69
1, 15270, Note_on_c, 0, 74, 0
1, 15288, Note_on_c, 0, 72, 0
1, 15296, Note_on_c, 0, 76, 80
1, 15320, Note_on_c, 0, 76, 0
1, 15328, Note_on_c, 0, 79, 80
1, 15340, Note_on_c, 0, 60, 0
1, 15340, Note_on_c, 1, 48, 0
1, 15352, Note_on_c, 0, 79, 0
1, 15360, Note_on_c, 0, 79, 80
1, 15368, Note_on_c, 0, 79, 0
1, 15372, Note_on_c, 0, 81, 80
1, 15380, Note_on_c, 0, 81, 0
1, 15384, Note_on_c, 0, 79, 80
1, 15392, Note_on_c, 0, 79, 0
1, 15392, Note_on_c, 0, 60, 80
1, 15396, Note_on_c, 0, 81, 80
1, 15404, Note_on_c, 0, 81, 0
1, 15408, Note_on_c, 0, 79, 80
1, 15416, Note_on_c, 0, 60, 0
1, 15416, Note_on_c, 0, 79, 0
1, 15420, Note_on_c, 0, 81, 80
1, 15424, Note_on_c, 0, 64, 80
1, 15428, Note_on_c, 0, 81, 0
1, 15432, Note_on_c, 0, 78, 80
1, 15440, Note_on_c, 0, 78, 0
1, 15444, Note_on_c, 0, 79, 80
1, 15448, Note_on_c, 0, 64, 0
1, 15452, Note_on_c, 0, 79, 0
1, 15456, Note_on_c, 0, 65, 80
1, 15456, Note_on_c, 1, 55, 69
1, 15480, Note_on_c, 0, 65, 0
1, 15480, Note_on_c, 1, 55, 0
1, 15488, Note_on_c, 0, 77, 80
1, 15488, Note_on_c, 0, 62, 80
1, 15512, Note_on_c, 0, 77, 0
1, 15512, Note_on_c, 0, 62, 0
1, 15520, Note_on_c, 0, 74, 80
1, 15520, Note_on_c, 1, 59, 69
1, 15544, Note_on_c, 0, 74, 0
1, 15544, Note_on_c, 1, 59, 0
1, 15552, Note_on_c, 0, 72, 80
1, 15552, Note_on_c, 0, 60, 80
1, 15552, Note_on_c, 1, 48, 69
1, 15576, Note_on_c, 0, 72, 0
1, 15584, Note_on_c, 0, 76, 80
1, 15608, Note_on_c, 0, 76, 0
1, 15616, Note_on_c, 0, 67, 80
1, 15628, Note_on_c, 0, 60, 0
1, 15628, Note_on_c, 1, 48, 0
1, 15640, Note_on_c, 0, 67, 0
1, 15648, Note_on_c, 0, 67, 80
1, 15656, Note_on_c, 0, 67, 0
1, 15660, Note_on_c, 0, 69, 80
1, 15668, Note_on_c, 0, 69, 0
1, 15672, Note_on_c, 0, 67, 80
1, 15680, Note_on_c, 0, 67, 0
1, 15680, Note_on_c, 1, 52, 69
1, 15684, Note_on_c, 0, 69, 80
1, 15692, Note_on_c, 0, 69, 0
1, 15696, Note_on_c, 0, 67, 80
1, 15704, Note_on_c, 0, 67, 0
1, 15704, Note_on_c, 1, 52, 0
1, 15708, Note_on_c, 0, 69, 80
1, 15712, Note_on_c, 1, 48, 69
1, 15716, Note_on_c, 0, 69, 0
1, 15720, Note_on_c, 0, 66, 80
1, 15728, Note_on_c, 0, 66, 0
1, 15732, Note_on_c, 0, 67, 80
1, 15736, Note_on_c, 1, 48, 0
1, 15740, Note_on_c, 0, 67, 0
1, 15744, Note_on_c, 1, 43, 81
1, 15776, Note_on_c, 0, 65, 94
1, 15800, Note_on_c, 0, 65, 0
1, 15808, Note_on_c, 0, 62, 94
1, 15808, Note_on_c, 1, 59, 81
1, 15808, Note_on_c, 1, 53, 81
1, 15820, Note_on_c, 1, 43, 0
1, 15832, Note_on_c, 0, 62, 0
1, 15832, Note_on_c, 1, 59, 0
1, 15832, Note_on_c, 1, 53, 0
1, 15840, Note_on_c, 0, 62, 52
1, 15840, Note_on_c, 1, 59, 45
1, 15840, Note_on_c, 1, 53, 45
1, 15840, Note_on_c, 1, 36, 45
1, 15992, Note_on_c, 0, 62, 0
1, 15992, Note_on_c, 1, 59, 0
1, 15992, Note_on_c, 1, 53, 0
1, 16032, Note_on_c, 0, 60, 52
1, 16032, Note_on_c, 1, 55, 45
1, 16032, Note_on_c, 1, 52, 45
1, 16070, Note_on_c, 0, 60, 0
1, 16070, Note_on_c, 1, 36, 0
1, 16070, Note_on_c, 1, 55, 0
1, 16070, Note_on_c, 1, 52, 0
1, 16104, Note_on_c, 0, 69, 52
1, 16122, Note_on_c, 0, 69, 0
1, 16128, Note_on_c, 0, 60, 94
1, 16128, Note_on_c, 0, 79, 94
1, 16152, Note_on_c, 0, 60, 0
1, 16160, Note_on_c, 0, 64, 94
1, 16184, Note_on_c, 0, 64, 0
1, 16192, Note_on_c, 0, 67, 94
1, 16204, Note_on_c, 0, 79, 0
1, 16216, Note_on_c, 0, 67, 0
1, 16224, Note_on_c, 0, 79, 94
1, 16224, Note_on_c, 0, 60, 94
1, 16248, Note_on_c, 0, 60, 0
1, 16256, Note_on_c, 0, 64, 94
1, 16280, Note_on_c, 0, 64, 0
1, 16288, Note_on_c, 0, 67, 94
1, 16300, Note_on_c, 0, 79, 0
1, 16312, Note_on_c, 0, 67, 0
1, 16320, Note_on_c, 0, 79, 94
1, 16320, Note_on_c, 0, 60, 94
1, 16344, Note_on_c, 0, 60, 0
1, 16352, Note_on_c, 0, 64, 94
1, 16376, Note_on_c, 0, 64, 0
1, 16384, Note_on_c, 0, 67, 94
1, 16396, Note_on_c, 0, 79, 0
1, 16408, Note_on_c, 0, 67, 0
1, 16416, Note_on_c, 0, 78, 94
1, 16416, Note_on_c, 1, 59, 81
1, 16424, Note_on_c, 0, 78, 0
1, 16428, Note_on_c, 0, 79, 94
1, 16436, Note_on_c, 0, 79, 0
1, 16440, Note_on_c, 0, 78, 94
1, 16440, Note_on_c, 1, 59, 0
1, 16448, Note_on_c, 0, 78, 0
1, 16448, Note_on_c, 0, 62, 94
1, 16452, Note_on_c, 0, 79, 94
1, 16460, Note_on_c, 0, 79, 0
1, 16464, Note_on_c, 0, 78, 94
1, 16472, Note_on_c, 0, 62, 0
1, 16472, Note_on_c, 0, 78, 0
1, 16476, Note_on_c, 0, 79, 94
1, 16480, Note_on_c, 0, 67, 94
1, 16484, Note_on_c, 0, 79, 0
1, 16488, Note_on_c, 0, 79, 94
1, 16496, Note_on_c, 0, 79, 0
1, 16500, Note_on_c, 0, 81, 94
1, 16504, Note_on_c, 0, 67, 0
1, 16508, Note_on_c, 0, 81, 0
1, 16512, Note_on_c, 0, 79, 94
1, 16512, Note_on_c, 1, 59, 81
1, 16536, Note_on_c, 1, 59, 0
1, 16544, Note_on_c, 0, 62, 94
1, 16568, Note_on_c, 0, 62, 0
1, 16576, Note_on_c, 0, 67, 94
1, 16588, Note_on_c, 0, 79, 0
1, 16600, Note_on_c, 0, 67, 0
1, 16608, Note_on_c, 1, 59, 81
1, 16632, Note_on_c, 1, 59, 0
1, 16640, Note_on_c, 0, 62, 94
1, 16664, Note_on_c, 0, 62, 0
1, 16672, Note_on_c, 0, 67, 94
1, 16680, Note_on_c, 0, 79, 94
1, 16696, Note_on_c, 0, 67, 0
1, 16698, Note_on_c, 0, 79, 0
1, 16704, Note_on_c, 0, 79, 52
1, 16704, Note_on_c, 1, 58, 45
1, 16728, Note_on_c, 1, 58, 0
1, 16736, Note_on_c, 0, 62, 52
1, 16760, Note_on_c, 0, 62, 0
1, 16768, Note_on_c, 0, 67, 52
1, 16792, Note_on_c, 0, 67, 0
1, 16800, Note_on_c, 1, 58, 45
1, 16824, Note_on_c, 0, 79, 0
1, 16824, Note_on_c, 1, 58, 0
1, 16832, Note_on_c, 0, 62, 52
1, 16832, Note_on_c, 0, 82, 52
1, 16856, Note_on_c, 0, 62, 0
1, 16856, Note_on_c, 0, 82, 0
1, 16864, Note_on_c, 0, 81, 52
1, 16864, Note_on_c, 0, 67, 52
1, 16888, Note_on_c, 0, 81, 0
1, 16888, Note_on_c, 0, 67, 0
1, 16896, Note_on_c, 0, 79, 52
1, 16896, Note_on_c, 1, 58, 45
1, 16920, Note_on_c, 0, 79, 0
1, 16920, Note_on_c, 1, 58, 0
1, 16928, Note_on_c, 0, 77, 52
1, 16928, Note_on_c, 0, 62, 52
1, 16952, Note_on_c, 0, 77, 0
1, 16952, Note_on_c, 0, 62, 0
1, 16960, Note_on_c, 0, 76, 52
1, 16960, Note_on_c, 0, 67, 52
1, 16984, Note_on_c, 0, 76, 0
1, 16984, Note_on_c, 0, 67, 0
1, 16992, Note_on_c, 0, 74, 52
1, 16992, Note_on_c, 1, 57, 45
1, 17016, Note_on_c, 1, 57, 0
1, 17024, Note_on_c, 0, 62, 52
1, 17048, Note_on_c, 0, 62, 0
1, 17056, Note_on_c, 0, 65, 52
1, 17068, Note_on_c, 0, 74, 0
1, 17080, Note_on_c, 0, 65, 0
1, 17088, Note_on_c, 0, 73, 52
1, 17088, Note_on_c, 1, 57, 45
1, 17112, Note_on_c, 1, 57, 0
1, 17120, Note_on_c, 0, 61, 52
1, 17144, Note_on_c, 0, 61, 0
1, 17152, Note_on_c, 0, 64, 52
1, 17164, Note_on_c, 0, 73, 0
1, 17176, Note_on_c, 0, 64, 0
1, 17184, Note_on_c, 1, 57, 45
1, 17208, Note_on_c, 1, 57, 0
1, 17216, Note_on_c, 0, 61, 52
1, 17240, Note_on_c, 0, 61, 0
1, 17248, Note_on_c, 0, 64, 52
1, 17256, Note_on_c, 0, 69, 52
1, 17272, Note_on_c, 0, 64, 0
1, 17274, Note_on_c, 0, 69, 0
1, 17280, Note_on_c, 0, 73, 94
1, 17280, Note_on_c, 0, 82, 94
1, 17280, Note_on_c, 1, 55, 81
1, 17304, Note_on_c, 1, 55, 0
1, 17312, Note_on_c, 0, 61, 94
1, 17336, Note_on_c, 0, 61, 0
1, 17344, Note_on_c, 0, 64, 94
1, 17356, Note_on_c, 0, 73, 0
1, 17356, Note_on_c, 0, 82, 0
1, 17368, Note_on_c, 0, 64, 0
1, 17376, Note_on_c, 0, 74, 94
1, 17376, Note_on_c, 0, 81, 94
1, 17376, Note_on_c, 1, 53, 81
1, 17400, Note_on_c, 1, 53, 0
1, 17408, Note_on_c, 1, 57, 81
1, 17432, Note_on_c, 1, 57, 0
1, 17440, Note_on_c, 0, 62, 94
1, 17452, Note_on_c, 0, 74, 0
1, 17452, Note_on_c, 0, 81, 0
1, 17464, Note_on_c, 0, 62, 0
1, 17472, Note_on_c, 1, 50, 81
1, 17496, Note_on_c, 1, 50, 0
1, 17504, Note_on_c, 1, 53, 81
1, 17520, Note_on_c, 0, 77, 94
1, 17528, Note_on_c, 1, 53, 0
1, 17536, Note_on_c, 1, 57, 81
1, 17558, Note_on_c, 0, 77, 0
1, 17560, Note_on_c, 1, 57, 0
1, 17568, Note_on_c, 0, 76, 52
1, 17568, Note_on_c, 1, 55, 45
1, 17592, Note_on_c, 0, 76, 0
1, 17592, Note_on_c, 1, 55, 0
1, 17600, Note_on_c, 0, 79, 52
1, 17600, Note_on_c, 1, 58, 45
1, 17624, Note_on_c, 0, 79, 0
1, 17624, Note_on_c, 1, 58, 0
1, 17632, Note_on_c, 0, 64, 52
1, 17632, Note_on_c, 0, 76, 52
1, 17656, Note_on_c, 0, 64, 0
1, 17656, Note_on_c, 0, 76, 0
1, 17664, Note_on_c, 0, 74, 52
1, 17664, Note_on_c, 1, 57, 45
1, 17688, Note_on_c, 0, 74, 0
1, 17688, Note_on_c, 1, 57, 0
1, 17696, Note_on_c, 0, 62, 52
1, 17696, Note_on_c, 0, 77, 52
1, 17720, Note_on_c, 0, 62, 0
1, 17720, Note_on_c, 0, 77, 0
1, 17728, Note_on_c, 0, 74, 52
1, 17728, Note_on_c, 0, 65, 52
1, 17752, Note_on_c, 0, 74, 0
1, 17752, Note_on_c, 0, 65, 0
1, 17760, Note_on_c, 0, 73, 52
1, 17760, Note_on_c, 1, 57, 45
1, 17784, Note_on_c, 0, 73, 0
1, 17784, Note_on_c, 1, 57, 0
1, 17792, Note_on_c, 0, 76, 52
1, 17792, Note_on_c, 0, 61, 52
1, 17816, Note_on_c, 0, 76, 0
1, 17816, Note_on_c, 0, 61, 0
1, 17824, Note_on_c, 0, 73, 52
1, 17824, Note_on_c, 0, 64, 52
1, 17848, Note_on_c, 0, 73, 0
1, 17848, Note_on_c, 0, 64, 0
1, 17856, Note_on_c, 0, 76, 94
1, 17856, Note_on_c, 0, 85, 94
1, 17856, Note_on_c, 1, 55, 81
1, 17880, Note_on_c, 1, 55, 0
1, 17888, Note_on_c, 0, 61, 94
1, 17912, Note_on_c, 0, 61, 0
1, 17920, Note_on_c, 0, 64, 94
1, 17932, Note_on_c, 0, 76, 0
1, 17932, Note_on_c, 0, 85, 0
1, 17944, Note_on_c, 0, 64, 0
1, 17952, Note_on_c, 0, 77, 94
1, 17952, Note_on_c, 0, 86, 94
1, 17952, Note_on_c, 1, 53, 81
1, 17976, Note_on_c, 1, 53, 0
1, 17984, Note_on_c, 1, 57, 81
1, 18008, Note_on_c, 1, 57, 0
1, 18016, Note_on_c, 0, 62, 94
1, 18028, Note_on_c, 0, 77, 0
1, 18028, Note_on_c, 0, 86, 0
1, 18040, Note_on_c, 0, 62, 0
1, 18048, Note_on_c, 1, 50, 81
1, 18072, Note_on_c, 1, 50, 0
1, 18080, Note_on_c, 1, 53, 81
1, 18104, Note_on_c, 1, 53, 0
1, 18112, Note_on_c, 1, 57, 81
1, 18120, Note_on_c, 0, 77, 94
1, 18136, Note_on_c, 1, 57, 0
1, 18138, Note_on_c, 0, 77, 0
1, 18144, Note_on_c, 0, 76, 52
1, 18144, Note_on_c, 1, 55, 45
1, 18168, Note_on_c, 0, 76, 0
1, 18168, Note_on_c, 1, 55, 0
1, 18176, Note_on_c, 0, 79, 52
1, 18176, Note_on_c, 1, 58, 45
1, 18200, Note_on_c, 0, 79, 0
1, 18200, Note_on_c, 1, 58, 0
1, 18208, Note_on_c, 0, 64, 52
1, 18208, Note_on_c, 0, 76, 52
1, 18232, Note_on_c, 0, 64, 0
1, 18232, Note_on_c, 0, 76, 0
1, 18240, Note_on_c, 0, 74, 52
1, 18240, Note_on_c, 1, 57, 45
1, 18264, Note_on_c, 0, 74, 0
1, 18264, Note_on_c, 1, 57, 0
1, 18272, Note_on_c, 0, 62, 52
1, 18272, Note_on_c, 0, 77, 52
1, 18296, Note_on_c, 0, 62, 0
1, 18296, Note_on_c, 0, 77, 0
1, 18304, Note_on_c, 0, 74, 52
1, 18304, Note_on_c, 0, 65, 52
1, 18328, Note_on_c, 0, 74, 0
1, 18328, Note_on_c, 0, 65, 0
1, 18336, Note_on_c, 0, 73, 52
1, 18336, Note_on_c, 1, 57, 45
1, 18360, Note_on_c, 0, 73, 0
1, 18360, Note_on_c, 1, 57, 0
1, 18368, Note_on_c, 0, 76, 52
1, 18368, Note_on_c, 0, 61, 52
1, 18392, Note_on_c, 0, 76, 0
1, 18392, Note_on_c, 0, 61, 0
1, 18400, Note_on_c, 0, 73, 52
1, 18400, Note_on_c, 0, 64, 52
1, 18424, Note_on_c, 0, 73, 0
1, 18424, Note_on_c, 0, 64, 0
1, 18432, Note_on_c, 0, 72, 94
1, 18432, Note_on_c, 1, 57, 81
1, 18456, Note_on_c, 1, 57, 0
1, 18464, Note_on_c, 0, 63, 94
1, 18488, Note_on_c, 0, 63, 0
1, 18496, Note_on_c, 0, 66, 94
1, 18508, Note_on_c, 0, 72, 0
1, 18520, Note_on_c, 0, 66, 0
1, 18528, Note_on_c, 0, 75, 94
1, 18528, Note_on_c, 1, 57, 81
1, 18536, Note_on_c, 0, 75, 0
1, 18540, Note_on_c, 0, 77, 94
1, 18548, Note_on_c, 0, 77, 0
1, 18552, Note_on_c, 0, 75, 94
1, 18552, Note_on_c, 1, 57, 0
1, 18560, Note_on_c, 0, 75, 0
1, 18560, Note_on_c, 0, 60, 94
1, 18564, Note_on_c, 0, 77, 94
1, 18572, Note_on_c, 0, 77, 0
1, 18576, Note_on_c, 0, 75, 94
1, 18584, Note_on_c, 0, 60, 0
1, 18584, Note_on_c, 0, 75, 0
1, 18588, Note_on_c, 0, 77, 94
1, 18592, Note_on_c, 0, 66, 94
1, 18596, Note_on_c, 0, 77, 0
1, 18600, Note_on_c, 0, 75, 94
1, 18608, Note_on_c, 0, 75, 0
1, 18612, Note_on_c, 0, 77, 94
1, 18616, Note_on_c, 0, 66, 0
1, 18620, Note_on_c, 0, 77, 0
1, 18624, Note_on_c, 0, 75, 94
1, 18624, Note_on_c, 1, 57, 81
1, 18632, Note_on_c, 0, 75, 0
1, 18636, Note_on_c, 0, 77, 94
1, 18644, Note_on_c, 0, 77, 0
1, 18648, Note_on_c, 0, 75, 94
1, 18648, Note_on_c, 1, 57, 0
1, 18656, Note_on_c, 0, 75, 0
1, 18656, Note_on_c, 0, 60, 94
1, 18660, Note_on_c, 0, 77, 94
1, 18668, Note_on_c, 0, 77, 0
1, 18672, Note_on_c, 0, 74, 94
1, 18680, Note_on_c, 0, 60, 0
1, 18688, Note_on_c, 0, 66, 94
1, 18690, Note_on_c, 0, 74, 0
1, 18696, Note_on_c, 0, 75, 94
1, 18712, Note_on_c, 0, 66, 0
1, 18714, Note_on_c, 0, 75, 0
1, 18720, Note_on_c, 0, 74, 80
1, 18720, Note_on_c, 0, 67, 80
1, 18720, Note_on_c, 0, 62, 80
1, 18720, Note_on_c, 1, 58, 69
1, 18744, Note_on_c, 0, 67, 0
1, 18744, Note_on_c, 0, 62, 0
1, 18744, Note_on_c, 1, 58, 0
1, 18752, Note_on_c, 0, 70, 80
1, 18776, Note_on_c, 0, 70, 0
1, 18784, Note_on_c, 0, 69, 80
1, 18796, Note_on_c, 0, 74, 0
1, 18808, Note_on_c, 0, 69, 0
1, 18816, Note_on_c, 0, 70, 80
1, 18848, Note_on_c, 0, 79, 80
1, 18872, Note_on_c, 0, 79, 0
1, 18880, Note_on_c, 0, 78, 80
1, 18892, Note_on_c, 0, 70, 0
1, 18904, Note_on_c, 0, 78, 0
1, 18912, Note_on_c, 0, 79, 80
1, 18944, Note_on_c, 0, 74, 80
1, 18944, Note_on_c, 0, 70, 80
1, 18968, Note_on_c, 0, 74, 0
1, 18968, Note_on_c, 0, 70, 0
1, 18976, Note_on_c, 0, 73, 80
1, 18976, Note_on_c, 0, 69, 80
1, 18988, Note_on_c, 0, 79, 0
1, 19000, Note_on_c, 0, 73, 0
1, 19000, Note_on_c, 0, 69, 0
1, 19008, Note_on_c, 0, 74, 80
1, 19008, Note_on_c, 0, 70, 80
1, 19040, Note_on_c, 0, 82, 80
1, 19064, Note_on_c, 0, 82, 0
1, 19072, Note_on_c, 0, 81, 80
1, 19084, Note_on_c, 0, 74, 0
1, 19084, Note_on_c, 0, 70, 0
1, 19096, Note_on_c, 0, 81, 0
1, 19104, Note_on_c, 0, 82, 80
1, 19136, Note_on_c, 0, 79, 80
1, 19136, Note_on_c, 0, 70, 80
1, 19160, Note_on_c, 0, 79, 0
1, 19160, Note_on_c, 0, 70, 0
1, 19168, Note_on_c, 0, 78, 80
1, 19168, Note_on_c, 0, 69, 80
1, 19180, Note_on_c, 0, 82, 0
1, 19192, Note_on_c, 0, 78, 0
1, 19192, Note_on_c, 0, 69, 0
1, 19200, Note_on_c, 0, 70, 80
1, 19200, Note_on_c, 0, 79, 80
1, 19232, Note_on_c, 0, 86, 80
1, 19256, Note_on_c, 0, 86, 0
1, 19264, Note_on_c, 0, 85, 80
1, 19276, Note_on_c, 0, 70, 0
1, 19276, Note_on_c, 0, 79, 0
1, 19288, Note_on_c, 0, 85, 0
1, 19296, Note_on_c, 0, 86, 80
1, 19320, Note_on_c, 0, 86, 0
1, 19328, Note_on_c, 0, 82, 80
1, 19352, Note_on_c, 0, 82, 0
1, 19360, Note_on_c, 0, 79, 80
1, 19384, Note_on_c, 0, 79, 0
1, 19392, Note_on_c, 0, 86, 80
1, 19416, Note_on_c, 0, 86, 0
1, 19424, Note_on_c, 0, 82, 80
1, 19448, Note_on_c, 0, 82, 0
1, 19456, Note_on_c, 0, 79, 80
1, 19480, Note_on_c, 0, 79, 0
1, 19488, Note_on_c, 0, 86, 80
1, 19512, Note_on_c, 0, 86, 0
1, 19520, Note_on_c, 0, 82, 80
1, 19544, Note_on_c, 0, 82, 0
1, 19552, Note_on_c, 0, 79, 80
1, 19576, Note_on_c, 0, 79, 0
1, 19584, Note_on_c, 0, 69, 98
1, 19584, Note_on_c, 0, 65, 98
1, 19584, Note_on_c, 0, 77, 94
1, 19584, Note_on_c, 0, 60, 94
1, 19660, Note_on_c, 0, 69, 0
1, 19660, Note_on_c, 0, 65, 0
1, 19660, Note_on_c, 0, 60, 0
1, 19680, Note_on_c, 0, 70, 52
1, 19680, Note_on_c, 0, 67, 53
1, 19704, Note_on_c, 0, 77, 0
1, 19712, Note_on_c, 0, 76, 52
1, 19736, Note_on_c, 0, 76, 0
1, 19744, Note_on_c, 0, 77, 52
1, 19756, Note_on_c, 0, 70, 0
1, 19756, Note_on_c, 0, 67, 0
1, 19768, Note_on_c, 0, 77, 0
1, 19776, Note_on_c, 0, 79, 52
1, 19800, Note_on_c, 0, 79, 0
1, 19808, Note_on_c, 0, 81, 52
1, 19832, Note_on_c, 0, 81, 0
1, 19840, Note_on_c, 0, 82, 52
1, 19864, Note_on_c, 0, 82, 0
1, 19872, Note_on_c, 0, 83, 94
1, 19890, Note_on_c, 0, 83, 0
1, 19896, Note_on_c, 0, 84, 94
1, 19914, Note_on_c, 0, 84, 0
1, 19920, Note_on_c, 0, 86, 94
1, 19938, Note_on_c, 0, 86, 0
1, 19944, Note_on_c, 0, 84, 94
1, 19962, Note_on_c, 0, 84, 0
1, 19962, Note_on_c, 0, 84, 94
1, 19968, Note_on_c, 0, 84, 0
1, 19968, Note_on_c, 0, 82, 52
1, 20006, Note_on_c, 0, 82, 0
1, 20016, Note_on_c, 0, 81, 52
1, 20034, Note_on_c, 0, 81, 0
1, 20040, Note_on_c, 0, 79, 52
1, 20058, Note_on_c, 0, 79, 0
1, 20058, Note_on_c, 0, 79, 52
1, 20064, Note_on_c, 0, 79, 0
1, 20064, Note_on_c, 0, 77, 52
1, 20102, Note_on_c, 0, 77, 0
1, 20112, Note_on_c, 0, 76, 52
1, 20130, Note_on_c, 0, 76, 0
1, 20136, Note_on_c, 0, 74, 52
1, 20154, Note_on_c, 0, 74, 0
1, 20160, Note_on_c, 0, 72, 94
1, 20160, Note_on_c, 1, 53, 81
1, 20184, Note_on_c, 1, 53, 0
1, 20192, Note_on_c, 1, 57, 81
1, 20216, Note_on_c, 1, 57, 0
1, 20224, Note_on_c, 0, 60, 94
1, 20236, Note_on_c, 0, 72, 0
1, 20244, Note_on_c, 0, 71, 94
1, 20248, Note_on_c, 0, 60, 0
1, 20256, Note_on_c, 0, 71, 0
1, 20256, Note_on_c, 0, 72, 94
1, 20256, Note_on_c, 1, 55, 81
1, 20280, Note_on_c, 1, 55, 0
1, 20288, Note_on_c, 1, 58, 81
1, 20312, Note_on_c, 1, 58, 0
1, 20320, Note_on_c, 0, 60, 94
1, 20332, Note_on_c, 0, 72, 0
1, 20340, Note_on_c, 0, 74, 94
1, 20344, Note_on_c, 0, 60, 0
1, 20352, Note_on_c, 0, 74, 0
1, 20352, Note_on_c, 0, 72, 94
1, 20352, Note_on_c, 1, 53, 81
1, 20376, Note_on_c, 1, 53, 0
1, 20384, Note_on_c, 1, 57, 81
1, 20408, Note_on_c, 1, 57, 0
1, 20416, Note_on_c, 0, 60, 94
1, 20428, Note_on_c, 0, 72, 0
1, 20440, Note_on_c, 0, 60, 0
1, 20448, Note_on_c, 0, 82, 94
1, 20448, Note_on_c, 1, 52, 81
1, 20472, Note_on_c, 1, 52, 0
1, 20480, Note_on_c, 1, 55, 81
1, 20504, Note_on_c, 1, 55, 0
1, 20512, Note_on_c, 0, 60, 94
1, 20524, Note_on_c, 0, 82, 0
1, 20536, Note_on_c, 0, 60, 0
1, 20544, Note_on_c, 0, 70, 94
1, 20544, Note_on_c, 1, 48, 81
1, 20568, Note_on_c, 1, 48, 0
1, 20576, Note_on_c, 1, 52, 81
1, 20600, Note_on_c, 1, 52, 0
1, 20608, Note_on_c, 1, 55, 81
1, 20620, Note_on_c, 0, 70, 0
1, 20632, Note_on_c, 1, 55, 0
1, 20640, Note_on_c, 1, 53, 81
1, 20664, Note_on_c, 1, 53, 0
1, 20672, Note_on_c, 1, 57, 81
1, 20688, Note_on_c, 0, 69, 94
1, 20696, Note_on_c, 1, 57, 0
1, 20704, Note_on_c, 0, 60, 94
1, 20726, Note_on_c, 0, 69, 0
1, 20728, Note_on_c, 0, 60, 0
1, 20736, Note_on_c, 0, 67, 52
1, 20736, Note_on_c, 1, 46, 45
1, 20760, Note_on_c, 0, 67, 0
1, 20760, Note_on_c, 1, 46, 0
1, 20768, Note_on_c, 0, 70, 52
1, 20768, Note_on_c, 1, 50, 45
1, 20792, Note_on_c, 0, 70, 0
1, 20792, Note_on_c, 1, 50, 0
1, 20800, Note_on_c, 0, 67, 52
1, 20800, Note_on_c, 1, 55, 45
1, 20824, Note_on_c, 0, 67, 0
1, 20824, Note_on_c, 1, 55, 0
1, 20832, Note_on_c, 0, 65, 52
1, 20832, Note_on_c, 1, 48, 45
1, 20856, Note_on_c, 0, 65, 0
1, 20856, Note_on_c, 1, 48, 0
1, 20864, Note_on_c, 0, 69, 52
1, 20864, Note_on_c, 1, 53, 45
1, 20888, Note_on_c, 0, 69, 0
1, 20888, Note_on_c, 1, 53, 0
1, 20896, Note_on_c, 0, 65, 52
1, 20896, Note_on_c, 1, 57, 45
1, 20920, Note_on_c, 0, 65, 0
1, 20920, Note_on_c, 1, 57, 0
1, 20928, Note_on_c, 0, 64, 52
1, 20928, Note_on_c, 1, 48, 45
1, 20952, Note_on_c, 0, 64, 0
1, 20952, Note_on_c, 1, 48, 0
1, 20960, Note_on_c, 0, 67, 52
1, 20960, Note_on_c, 1, 55, 45
1, 20984, Note_on_c, 0, 67, 0
1, 20984, Note_on_c, 1, 55, 0
1, 20992, Note_on_c, 0, 64, 52
1, 20992, Note_on_c, 1, 58, 45
1, 21016, Note_on_c, 0, 64, 0
1, 21016, Note_on_c, 1, 58, 0
1, 21024, Note_on_c, 0, 82, 94
1, 21024, Note_on_c, 1, 49, 81
1, 21048, Note_on_c, 1, 49, 0
1, 21056, Note_on_c, 1, 52, 81
1, 21080, Note_on_c, 1, 52, 0
1, 21088, Note_on_c, 1, 55, 81
1, 21100, Note_on_c, 0, 82, 0
1, 21112, Note_on_c, 1, 55, 0
1, 21120, Note_on_c, 0, 70, 94
1, 21120, Note_on_c, 1, 49, 81
1, 21144, Note_on_c, 1, 49, 0
1, 21152, Note_on_c, 1, 52, 81
1, 21176, Note_on_c, 1, 52, 0
1, 21184, Note_on_c, 1, 55, 81
1, 21196, Note_on_c, 0, 70, 0
1, 21208, Note_on_c, 1, 55, 0
1, 21216, Note_on_c, 1, 49, 81
1, 21240, Note_on_c, 1, 49, 0
1, 21248, Note_on_c, 1, 52, 81
1, 21272, Note_on_c, 1, 52, 0
1, 21280, Note_on_c, 1, 55, 81
1, 21288, Note_on_c, 0, 70, 94
1, 21304, Note_on_c, 1, 55, 0
1, 21306, Note_on_c, 0, 70, 0
1, 21312, Note_on_c, 0, 82, 94
1, 21312, Note_on_c, 1, 48, 81
1, 21336, Note_on_c, 1, 48, 0
1, 21344, Note_on_c, 1, 52, 81
1, 21368, Note_on_c, 1, 52, 0
1, 21376, Note_on_c, 1, 55, 81
1, 21388, Note_on_c, 0, 82, 0
1, 21400, Note_on_c, 1, 55, 0
1, 21408, Note_on_c, 0, 70, 94
1, 21408, Note_on_c, 1, 49, 81
1, 21432, Note_on_c, 1, 49, 0
1, 21440, Note_on_c, 1, 52, 81
1, 21464, Note_on_c, 1, 52, 0
1, 21472, Note_on_c, 1, 55, 81
1, 21484, Note_on_c, 0, 70, 0
1, 21496, Note_on_c, 1, 55, 0
1, 21504, Note_on_c, 1, 50, 81
1, 21528, Note_on_c, 1, 50, 0
1, 21536, Note_on_c, 1, 53, 81
1, 21552, Note_on_c, 0, 69, 94
1, 21560, Note_on_c, 1, 53, 0
1, 21568, Note_on_c, 1, 57, 81
1, 21590, Note_on_c, 0, 69, 0
1, 21592, Note_on_c, 1, 57, 0
1, 21600, Note_on_c, 0, 69, 94
1, 21624, Note_on_c, 0, 69, 0
1, 21632, Note_on_c, 0, 65, 94
1, 21632, Note_on_c, 0, 67, 94
1, 21632, Note_on_c, 0, 62, 94
1, 21632, Note_on_c, 1, 59, 81
1, 21656, Note_on_c, 0, 65, 0
1, 21656, Note_on_c, 0, 67, 0
1, 21656, Note_on_c, 0, 62, 0
1, 21656, Note_on_c, 1, 59, 0
1, 21664, Note_on_c, 0, 62, 94
1, 21664, Note_on_c, 0, 65, 94
1, 21664, Note_on_c, 1, 59, 81
1, 21688, Note_on_c, 0, 62, 0
1, 21688, Note_on_c, 0, 65, 0
1, 21688, Note_on_c, 1, 59, 0
1, 21696, Note_on_c, 0, 62, 94
1, 21696, Note_on_c, 0, 65, 94
1, 21696, Note_on_c, 1, 59, 81
1, 21720, Note_on_c, 0, 62, 0
1, 21720, Note_on_c, 0, 65, 0
1, 21720, Note_on_c, 1, 59, 0
1, 21728, Note_on_c, 0, 62, 94
1, 21728, Note_on_c, 0, 65, 94
1, 21728, Note_on_c, 1, 59, 81
1, 21752, Note_on_c, 0, 62, 0
1, 21752, Note_on_c, 0, 65, 0
1, 21752, Note_on_c, 1, 59, 0
1, 21760, Note_on_c, 0, 65, 94
1, 21760, Note_on_c, 0, 62, 94
1, 21760, Note_on_c, 1, 59, 81
1, 21784, Note_on_c, 0, 65, 0
1, 21784, Note_on_c, 0, 62, 0
1, 21784, Note_on_c, 1, 59, 0
1, 21792, Note_on_c, 0, 62, 94
1, 21792, Note_on_c, 0, 65, 94
1, 21792, Note_on_c, 1, 59, 81
1, 21816, Note_on_c, 0, 62, 0
1, 21816, Note_on_c, 0, 65, 0
1, 21816, Note_on_c, 1, 59, 0
1, 21824, Note_on_c, 0, 62, 94
1, 21824, Note_on_c, 0, 65, 94
1, 21824, Note_on_c, 1, 59, 81
1, 21848, Note_on_c, 0, 62, 0
1, 21848, Note_on_c, 0, 65, 0
1, 21848, Note_on_c, 1, 59, 0
1, 21856, Note_on_c, 0, 62, 94
1, 21856, Note_on_c, 0, 65, 94
1, 21856, Note_on_c, 1, 59, 81
1, 21880, Note_on_c, 0, 62, 0
1, 21880, Note_on_c, 0, 65, 0
1, 21880, Note_on_c, 1, 59, 0
1, 21888, Note_on_c, 0, 77, 94
1, 21912, Note_on_c, 0, 77, 0
1, 21920, Note_on_c, 0, 71, 94
1, 21920, Note_on_c, 1, 50, 81
1, 21920, Note_on_c, 1, 53, 81
1, 21920, Note_on_c, 1, 59, 81
1, 21944, Note_on_c, 0, 71, 0
1, 21944, Note_on_c, 1, 50, 0
1, 21944, Note_on_c, 1, 53, 0
1, 21944, Note_on_c, 1, 59, 0
1, 21952, Note_on_c, 1, 50, 81
1, 21952, Note_on_c, 1, 59, 81
1, 21952, Note_on_c, 1, 53, 81
1, 21976, Note_on_c, 1, 50, 0
1, 21976, Note_on_c, 1, 59, 0
1, 21976, Note_on_c, 1, 53, 0
1, 21984, Note_on_c, 1, 59, 81
1, 21984, Note_on_c, 1, 53, 81
1, 21984, Note_on_c, 1, 50, 81
1, 22008, Note_on_c, 1, 59, 0
1, 22008, Note_on_c, 1, 53, 0
1, 22008, Note_on_c, 1, 50, 0
1, 22016, Note_on_c, 1, 59, 81
1, 22016, Note_on_c, 1, 53, 81
1, 22016, Note_on_c, 1, 50, 81
1, 22040, Note_on_c, 1, 59, 0
1, 22040, Note_on_c, 1, 53, 0
1, 22040, Note_on_c, 1, 50, 0
1, 22048, Note_on_c, 1, 53, 81
1, 22048, Note_on_c, 1, 50, 81
1, 22048, Note_on_c, 1, 59, 81
1, 22072, Note_on_c, 1, 53, 0
1, 22072, Note_on_c, 1, 50, 0
1, 22072, Note_on_c, 1, 59, 0
1, 22080, Note_on_c, 1, 59, 81
1, 22080, Note_on_c, 1, 53, 81
1, 22080, Note_on_c, 1, 50, 81
1, 22104, Note_on_c, 1, 59, 0
1, 22104, Note_on_c, 1, 53, 0
1, 22104, Note_on_c, 1, 50, 0
1, 22112, Note_on_c, 1, 59, 81
1, 22112, Note_on_c, 1, 53, 81
1, 22112, Note_on_c, 1, 50, 81
1, 22136, Note_on_c, 1, 59, 0
1, 22136, Note_on_c, 1, 53, 0
1, 22136, Note_on_c, 1, 50, 0
1, 22144, Note_on_c, 1, 59, 81
1, 22144, Note_on_c, 1, 53, 81
1, 22144, Note_on_c, 1, 50, 81
1, 22168, Note_on_c, 1, 59, 0
1, 22168, Note_on_c, 1, 53, 0
1, 22168, Note_on_c, 1, 50, 0
1, 22176, Note_on_c, 0, 72, 66
1, 22176, Note_on_c, 0, 60, 66
1, 22176, Note_on_c, 1, 52, 57
1, 22176, Note_on_c, 1, 55, 57
1, 22176, Note_on_c, 1, 48, 57
1, 22200, Note_on_c, 0, 72, 0
1, 22208, Note_on_c, 0, 84, 66
1, 22232, Note_on_c, 0, 84, 0
1, 22240, Note_on_c, 0, 84, 66
1, 22252, Note_on_c, 0, 60, 0
1, 22252, Note_on_c, 1, 52, 0
1, 22252, Note_on_c, 1, 55, 0
1, 22252, Note_on_c, 1, 48, 0
1, 22264, Note_on_c, 0, 84, 0
1, 22272, Note_on_c, 0, 84, 66
1, 22296, Note_on_c, 0, 84, 0
1, 22304, Note_on_c, 0, 84, 66
1, 22328, Note_on_c, 0, 84, 0
1, 22336, Note_on_c, 0, 84, 66
1, 22360, Note_on_c, 0, 84, 0
1, 22368, Note_on_c, 0, 84, 66
1, 22392, Note_on_c, 0, 84, 0
1, 22400, Note_on_c, 0, 84, 66
1, 22424, Note_on_c, 0, 84, 0
1, 22432, Note_on_c, 0, 84, 66
1, 22456, Note_on_c, 0, 84, 0
1, 22464, Note_on_c, 0, 84, 94
1, 22488, Note_on_c, 0, 84, 0
1, 22496, Note_on_c, 0, 67, 94
1, 22496, Note_on_c, 0, 76, 94
1, 22520, Note_on_c, 0, 67, 0
1, 22520, Note_on_c, 0, 76, 0
1, 22528, Note_on_c, 0, 70, 94
1, 22528, Note_on_c, 0, 79, 94
1, 22552, Note_on_c, 0, 70, 0
1, 22552, Note_on_c, 0, 79, 0
1, 22560, Note_on_c, 0, 69, 66
1, 22560, Note_on_c, 0, 77, 66
1, 22584, Note_on_c, 0, 69, 0
1, 22584, Note_on_c, 0, 77, 0
1, 22592, Note_on_c, 0, 67, 66
1, 22592, Note_on_c, 0, 76, 66
1, 22616, Note_on_c, 0, 67, 0
1, 22616, Note_on_c, 0, 76, 0
1, 22624, Note_on_c, 0, 79, 66
1, 22624, Note_on_c, 0, 70, 66
1, 22648, Note_on_c, 0, 79, 0
1, 22648, Note_on_c, 0, 70, 0
1, 22656, Note_on_c, 0, 77, 66
1, 22656, Note_on_c, 0, 69, 66
1, 22680, Note_on_c, 0, 77, 0
1, 22680, Note_on_c, 0, 69, 0
1, 22688, Note_on_c, 0, 76, 66
1, 22688, Note_on_c, 0, 67, 66
1, 22712, Note_on_c, 0, 76, 0
1, 22712, Note_on_c, 0, 67, 0
1, 22720, Note_on_c, 0, 79, 66
1, 22720, Note_on_c, 0, 70, 66
1, 22744, Note_on_c, 0, 79, 0
1, 22744, Note_on_c, 0, 70, 0
1, 22752, Note_on_c, 0, 84, 94
1, 22776, Note_on_c, 0, 84, 0
1, 22784, Note_on_c, 0, 69, 94
1, 22784, Note_on_c, 0, 77, 94
1, 22808, Note_on_c, 0, 69, 0
1, 22808, Note_on_c, 0, 77, 0
1, 22816, Note_on_c, 0, 72, 96
1, 22816, Note_on_c, 0, 81, 95
1, 22840, Note_on_c, 0, 72, 0
1, 22840, Note_on_c, 0, 81, 0
1, 22848, Note_on_c, 0, 70, 66
1, 22848, Note_on_c, 0, 79, 66
1, 22872, Note_on_c, 0, 70, 0
1, 22872, Note_on_c, 0, 79, 0
1, 22880, Note_on_c, 0, 69, 66
1, 22880, Note_on_c, 0, 77, 66
1, 22904, Note_on_c, 0, 69, 0
1, 22904, Note_on_c, 0, 77, 0
1, 22912, Note_on_c, 0, 81, 66
1, 22912, Note_on_c, 0, 72, 66
1, 22936, Note_on_c, 0, 81, 0
1, 22936, Note_on_c, 0, 72, 0
1, 22944, Note_on_c, 0, 79, 66
1, 22944, Note_on_c, 0, 70, 66
1, 22968, Note_on_c, 0, 79, 0
1, 22968, Note_on_c, 0, 70, 0
1, 22976, Note_on_c, 0, 77, 66
1, 22976, Note_on_c, 0, 69, 66
1, 23000, Note_on_c, 0, 77, 0
1, 23000, Note_on_c, 0, 69, 0
1, 23008, Note_on_c, 0, 81, 66
1, 23008, Note_on_c, 0, 72, 66
1, 23032, Note_on_c, 0, 81, 0
1, 23032, Note_on_c, 0, 72, 0
1, 23040, Note_on_c, 0, 84, 94
1, 23064, Note_on_c, 0, 84, 0
1, 23072, Note_on_c, 0, 64, 94
1, 23072, Note_on_c, 0, 79, 94
1, 23096, Note_on_c, 0, 64, 0
1, 23096, Note_on_c, 0, 79, 0
1, 23104, Note_on_c, 0, 67, 94
1, 23104, Note_on_c, 0, 82, 94
1, 23128, Note_on_c, 0, 67, 0
1, 23128, Note_on_c, 0, 82, 0
1, 23136, Note_on_c, 0, 65, 66
1, 23136, Note_on_c, 0, 81, 66
1, 23160, Note_on_c, 0, 65, 0
1, 23160, Note_on_c, 0, 81, 0
1, 23168, Note_on_c, 0, 64, 66
1, 23168, Note_on_c, 0, 79, 66
1, 23192, Note_on_c, 0, 64, 0
1, 23192, Note_on_c, 0, 79, 0
1, 23200, Note_on_c, 0, 82, 66
1, 23200, Note_on_c, 0, 67, 66
1, 23224, Note_on_c, 0, 82, 0
1, 23224, Note_on_c, 0, 67, 0
1, 23232, Note_on_c, 0, 81, 66
1, 23232, Note_on_c, 0, 65, 66
1, 23256, Note_on_c, 0, 81, 0
1, 23256, Note_on_c, 0, 65, 0
1, 23264, Note_on_c, 0, 79, 66
1, 23264, Note_on_c, 0, 64, 66
1, 23288, Note_on_c, 0, 79, 0
1, 23288, Note_on_c, 0, 64, 0
1, 23296, Note_on_c, 0, 82, 66
1, 23296, Note_on_c, 0, 67, 66
1, 23320, Note_on_c, 0, 82, 0
1, 23320, Note_on_c, 0, 67, 0
1, 23328, Note_on_c, 0, 65, 66
1, 23360, Note_on_c, 0, 69, 66
1, 23384, Note_on_c, 0, 69, 0
1, 23392, Note_on_c, 0, 70, 66
1, 23404, Note_on_c, 0, 65, 0
1, 23416, Note_on_c, 0, 70, 0
1, 23424, Note_on_c, 0, 71, 66
1, 23448, Note_on_c, 0, 71, 0
1, 23456, Note_on_c, 0, 72, 66
1, 23480, Note_on_c, 0, 72, 0
1, 23488, Note_on_c, 0, 73, 66
1, 23512, Note_on_c, 0, 73, 0
1, 23520, Note_on_c, 0, 74, 66
1, 23544, Note_on_c, 0, 74, 0
1, 23552, Note_on_c, 0, 76, 66
1, 23576, Note_on_c, 0, 76, 0
1, 23584, Note_on_c, 0, 77, 66
1, 23608, Note_on_c, 0, 77, 0
1, 23616, Note_on_c, 0, 62, 94
1, 23616, Note_on_c, 0, 65, 94
1, 23616, Note_on_c, 0, 67, 94
1, 23616, Note_on_c, 1, 59, 81
1, 23692, Note_on_c, 0, 62, 0
1, 23692, Note_on_c, 0, 65, 0
1, 23692, Note_on_c, 0, 67, 0
1, 23692, Note_on_c, 1, 59, 0
1, 23712, Note_on_c, 0, 64, 66
1, 23712, Note_on_c, 0, 60, 66
1, 23712, Note_on_c, 0, 67, 66
1, 23736, Note_on_c, 0, 67, 0
1, 23744, Note_on_c, 0, 74, 66
1, 23768, Note_on_c, 0, 74, 0
1, 23776, Note_on_c, 0, 72, 66
1, 23788, Note_on_c, 0, 64, 0
1, 23788, Note_on_c, 0, 60, 0
1, 23800, Note_on_c, 0, 72, 0
1, 23808, Note_on_c, 0, 70, 94
1, 23832, Note_on_c, 0, 70, 0
1, 23840, Note_on_c, 0, 69, 94
1, 23856, Note_on_c, 1, 52, 81
1, 23856, Note_on_c, 1, 48, 81
1, 23856, Note_on_c, 1, 46, 81
1, 23864, Note_on_c, 0, 69, 0
1, 23872, Note_on_c, 0, 67, 94
1, 23894, Note_on_c, 1, 52, 0
1, 23894, Note_on_c, 1, 48, 0
1, 23894, Note_on_c, 1, 46, 0
1, 23896, Note_on_c, 0, 67, 0
1, 23904, Note_on_c, 0, 72, 94
1, 23904, Note_on_c, 1, 53, 81
1, 23904, Note_on_c, 1, 45, 81
1, 23928, Note_on_c, 0, 72, 0
1, 23936, Note_on_c, 0, 73, 94
1, 23942, Note_on_c, 1, 53, 0
1, 23942, Note_on_c, 1, 45, 0
1, 23952, Note_on_c, 1, 46, 81
1, 23960, Note_on_c, 0, 73, 0
1, 23968, Note_on_c, 0, 74, 94
1, 23990, Note_on_c, 1, 46, 0
1, 23992, Note_on_c, 0, 74, 0
1, 24000, Note_on_c, 0, 65, 94
1, 24000, Note_on_c, 1, 48, 81
1, 24024, Note_on_c, 1, 48, 0
1, 24032, Note_on_c, 1, 53, 81
1, 24056, Note_on_c, 1, 53, 0
1, 24064, Note_on_c, 1, 57, 81
1, 24076, Note_on_c, 0, 65, 0
1, 24088, Note_on_c, 1, 57, 0
1, 24096, Note_on_c, 0, 64, 94
1, 24096, Note_on_c, 1, 48, 81
1, 24104, Note_on_c, 0, 64, 0
1, 24108, Note_on_c, 0, 65, 94
1, 24116, Note_on_c, 0, 65, 0
1, 24120, Note_on_c, 0, 64, 94
1, 24120, Note_on_c, 1, 48, 0
1, 24128, Note_on_c, 0, 64, 0
1, 24128, Note_on_c, 1, 55, 81
1, 24132, Note_on_c, 0, 65, 94
1, 24140, Note_on_c, 0, 65, 0
1, 24144, Note_on_c, 0, 64, 94
1, 24152, Note_on_c, 0, 64, 0
1, 24152, Note_on_c, 1, 55, 0
1, 24156, Note_on_c, 0, 65, 94
1, 24160, Note_on_c, 1, 58, 81
1, 24164, Note_on_c, 0, 65, 0
1, 24168, Note_on_c, 0, 62, 94
1, 24176, Note_on_c, 0, 62, 0
1, 24180, Note_on_c, 0, 64, 94
1, 24184, Note_on_c, 1, 58, 0
1, 24188, Note_on_c, 0, 64, 0
1, 24192, Note_on_c, 0, 65, 94
1, 24224, Note_on_c, 1, 45, 81
1, 24248, Note_on_c, 1, 45, 0
1, 24256, Note_on_c, 1, 46, 81
1, 24268, Note_on_c, 0, 65, 0
1, 24280, Note_on_c, 1, 46, 0
1, 24288, Note_on_c, 1, 47, 81
1, 24312, Note_on_c, 1, 47, 0
1, 24320, Note_on_c, 1, 48, 81
1, 24344, Note_on_c, 1, 48, 0
1, 24352, Note_on_c, 1, 49, 81
1, 24376, Note_on_c, 1, 49, 0
1, 24384, Note_on_c, 1, 50, 81
1, 24408, Note_on_c, 1, 50, 0
1, 24416, Note_on_c, 1, 52, 81
1, 24440, Note_on_c, 1, 52, 0
1, 24448, Note_on_c, 1, 53, 81
1, 24472, Note_on_c, 1, 53, 0
1, 24480, Note_on_c, 1, 47, 81
1, 24480, Note_on_c, 1, 35, 81
1, 24512, Note_on_c, 0, 76, 94
1, 24512, Note_on_c, 0, 67, 94
1, 24536, Note_on_c, 0, 76, 0
1, 24536, Note_on_c, 0, 67, 0
1, 24544, Note_on_c, 0, 68, 94
1, 24544, Note_on_c, 0, 77, 94
1, 24556, Note_on_c, 1, 47, 0
1, 24556, Note_on_c, 1, 35, 0
1, 24568, Note_on_c, 0, 68, 0
1, 24568, Note_on_c, 0, 77, 0
1, 24576, Note_on_c, 1, 36, 57
1, 24576, Note_on_c, 1, 48, 57
1, 24608, Note_on_c, 0, 68, 62
1, 24608, Note_on_c, 0, 77, 66
1, 24632, Note_on_c, 0, 68, 0
1, 24632, Note_on_c, 0, 77, 0
1, 24640, Note_on_c, 0, 67, 65
1, 24640, Note_on_c, 0, 76, 66
1, 24652, Note_on_c, 1, 36, 0
1, 24652, Note_on_c, 1, 48, 0
1, 24664, Note_on_c, 0, 67, 0
1, 24664, Note_on_c, 0, 76, 0
1, 24672, Note_on_c, 1, 52, 81
1, 24672, Note_on_c, 1, 40, 81
1, 24704, Note_on_c, 0, 73, 94
1, 24704, Note_on_c, 0, 69, 94
1, 24728, Note_on_c, 0, 73, 0
1, 24728, Note_on_c, 0, 69, 0
1, 24736, Note_on_c, 0, 70, 94
1, 24736, Note_on_c, 0, 74, 94
1, 24748, Note_on_c, 1, 52, 0
1, 24748, Note_on_c, 1, 40, 0
1, 24760, Note_on_c, 0, 70, 0
1, 24760, Note_on_c, 0, 74, 0
1, 24768, Note_on_c, 1, 53, 57
1, 24768, Note_on_c, 1, 41, 57
1, 24800, Note_on_c, 0, 70, 66
1, 24800, Note_on_c, 0, 74, 66
1, 24824, Note_on_c, 0, 70, 0
1, 24824, Note_on_c, 0, 74, 0
1, 24832, Note_on_c, 0, 69, 66
1, 24832, Note_on_c, 0, 72, 66
1, 24844, Note_on_c, 1, 53, 0
1, 24844, Note_on_c, 1, 41, 0
1, 24856, Note_on_c, 0, 69, 0
1, 24856, Note_on_c, 0, 72, 0
1, 24864, Note_on_c, 0, 61, 66
1, 24864, Note_on_c, 1, 49, 57
1, 24896, Note_on_c, 0, 81, 66
1, 24896, Note_on_c, 0, 84, 66
1, 24920, Note_on_c, 0, 81, 0
1, 24920, Note_on_c, 0, 84, 0
1, 24928, Note_on_c, 0, 79, 66
1, 24928, Note_on_c, 0, 82, 66
1, 24940, Note_on_c, 0, 61, 0
1, 24940, Note_on_c, 1, 49, 0
1, 24952, Note_on_c, 0, 79, 0
1, 24952, Note_on_c, 0, 82, 0
1, 24960, Note_on_c, 0, 62, 95
1, 24960, Note_on_c, 1, 50, 80
1, 24992, Note_on_c, 0, 82, 95
1, 24992, Note_on_c, 0, 79, 94
1, 25016, Note_on_c, 0, 82, 0
1, 25016, Note_on_c, 0, 79, 0
1, 25024, Note_on_c, 0, 81, 94
1, 25024, Note_on_c, 0, 77, 94
1, 25036, Note_on_c, 0, 62, 0
1, 25036, Note_on_c, 1, 50, 0
1, 25048, Note_on_c, 0, 81, 0
1, 25048, Note_on_c, 0, 77, 0
1, 25056, Note_on_c, 0, 74, 80
1, 25056, Note_on_c, 0, 70, 80
1, 25056, Note_on_c, 1, 58, 69
1, 25080, Note_on_c, 0, 74, 0
1, 25088, Note_on_c, 0, 81, 80
1, 25112, Note_on_c, 0, 81, 0
1, 25120, Note_on_c, 0, 79, 80
1, 25132, Note_on_c, 0, 70, 0
1, 25132, Note_on_c, 1, 58, 0
1, 25144, Note_on_c, 0, 79, 0
1, 25152, Note_on_c, 0, 60, 80
1, 25152, Note_on_c, 0, 69, 80
1, 25152, Note_on_c, 0, 72, 80
1, 25176, Note_on_c, 0, 72, 0
1, 25184, Note_on_c, 0, 79, 80
1, 25208, Note_on_c, 0, 79, 0
1, 25216, Note_on_c, 0, 77, 80
1, 25228, Note_on_c, 0, 60, 0
1, 25228, Note_on_c, 0, 69, 0
1, 25240, Note_on_c, 0, 77, 0
1, 25248, Note_on_c, 0, 67, 80
1, 25248, Note_on_c, 0, 70, 80
1, 25272, Note_on_c, 0, 70, 0
1, 25280, Note_on_c, 0, 77, 80
1, 25304, Note_on_c, 0, 77, 0
1, 25312, Note_on_c, 0, 76, 80
1, 25324, Note_on_c, 0, 67, 0
1, 25336, Note_on_c, 0, 76, 0
1, 25344, Note_on_c, 0, 84, 94
1, 25344, Note_on_c, 0, 81, 94
1, 25376, Note_on_c, 0, 64, 94
1, 25376, Note_on_c, 1, 52, 81
1, 25400, Note_on_c, 0, 64, 0
1, 25400, Note_on_c, 1, 52, 0
1, 25408, Note_on_c, 0, 65, 94
1, 25408, Note_on_c, 1, 53, 81
1, 25420, Note_on_c, 0, 84, 0
1, 25420, Note_on_c, 0, 81, 0
1, 25432, Note_on_c, 0, 65, 0
1, 25432, Note_on_c, 1, 53, 0
1, 25440, Note_on_c, 0, 82, 94
1, 25440, Note_on_c, 0, 79, 94
1, 25472, Note_on_c, 0, 66, 94
1, 25472, Note_on_c, 1, 54, 81
1, 25496, Note_on_c, 0, 66, 0
1, 25496, Note_on_c, 1, 54, 0
1, 25504, Note_on_c, 0, 67, 94
1, 25504, Note_on_c, 1, 55, 81
1, 25516, Note_on_c, 0, 82, 0
1, 25516, Note_on_c, 0, 79, 0
1, 25528, Note_on_c, 0, 67, 0
1, 25528, Note_on_c, 1, 55, 0
1, 25536, Note_on_c, 0, 77, 94
1, 25536, Note_on_c, 0, 81, 94
1, 25568, Note_on_c, 0, 68, 94
1, 25568, Note_on_c, 1, 56, 81
1, 25592, Note_on_c, 0, 68, 0
1, 25592, Note_on_c, 1, 56, 0
1, 25600, Note_on_c, 0, 69, 94
1, 25600, Note_on_c, 1, 57, 81
1, 25612, Note_on_c, 0, 77, 0
1, 25612, Note_on_c, 0, 81, 0
1, 25624, Note_on_c, 0, 69, 0
1, 25624, Note_on_c, 1, 57, 0
1, 25632, Note_on_c, 0, 62, 66
1, 25632, Note_on_c, 1, 58, 57
1, 25632, Note_on_c, 1, 46, 57
1, 25656, Note_on_c, 0, 62, 0
1, 25664, Note_on_c, 0, 69, 66
1, 25688, Note_on_c, 0, 69, 0
1, 25696, Note_on_c, 0, 67, 66
1, 25708, Note_on_c, 1, 58, 0
1, 25708, Note_on_c, 1, 46, 0
1, 25720, Note_on_c, 0, 67, 0
1, 25728, Note_on_c, 0, 60, 66
1, 25728, Note_on_c, 1, 48, 57
1, 25728, Note_on_c, 1, 57, 57
1, 25752, Note_on_c, 0, 60, 0
1, 25760, Note_on_c, 0, 67, 66
1, 25784, Note_on_c, 0, 67, 0
1, 25792, Note_on_c, 0, 65, 66
1, 25804, Note_on_c, 1, 48, 0
1, 25804, Note_on_c, 1, 57, 0
1, 25816, Note_on_c, 0, 65, 0
1, 25824, Note_on_c, 1, 55, 57
1, 25824, Note_on_c, 1, 58, 57
1, 25848, Note_on_c, 1, 58, 0
1, 25856, Note_on_c, 0, 65, 66
1, 25880, Note_on_c, 0, 65, 0
1, 25888, Note_on_c, 0, 64, 66
1, 25900, Note_on_c, 1, 55, 0
1, 25912, Note_on_c, 0, 64, 0
1, 25920, Note_on_c, 0, 69, 94
1, 25920, Note_on_c, 0, 72, 94
1, 25952, Note_on_c, 1, 52, 81
1, 25976, Note_on_c, 1, 52, 0
1, 25984, Note_on_c, 1, 53, 81
1, 25996, Note_on_c, 0, 69, 0
1, 25996, Note_on_c, 0, 72, 0
1, 26008, Note_on_c, 1, 53, 0
1, 26016, Note_on_c, 0, 67, 94
1, 26016, Note_on_c, 0, 70, 94
1, 26048, Note_on_c, 1, 54, 81
1, 26072, Note_on_c, 1, 54, 0
1, 26080, Note_on_c, 1, 55, 81
1, 26092, Note_on_c, 0, 67, 0
1, 26092, Note_on_c, 0, 70, 0
1, 26104, Note_on_c, 1, 55, 0
1, 26112, Note_on_c, 0, 65, 94
1, 26112, Note_on_c, 0, 69, 94
1, 26144, Note_on_c, 1, 56, 81
1, 26168, Note_on_c, 1, 56, 0
1, 26176, Note_on_c, 1, 57, 81
1, 26188, Note_on_c, 0, 65, 0
1, 26188, Note_on_c, 0, 69, 0
1, 26200, Note_on_c, 1, 57, 0
1, 26208, Note_on_c, 0, 69, 66
1, 26232, Note_on_c, 0, 69, 0
1, 26240, Note_on_c, 0, 62, 66
1, 26240, Note_on_c, 0, 67, 66
1, 26240, Note_on_c, 0, 65, 66
1, 26240, Note_on_c, 1, 58, 57
1, 26264, Note_on_c, 0, 62, 0
1, 26264, Note_on_c, 0, 67, 0
1, 26264, Note_on_c, 0, 65, 0
1, 26264, Note_on_c, 1, 58, 0
1, 26272, Note_on_c, 0, 65, 66
1, 26272, Note_on_c, 0, 62, 66
1, 26272, Note_on_c, 1, 58, 57
1, 26296, Note_on_c, 0, 65, 0
1, 26296, Note_on_c, 0, 62, 0
1, 26296, Note_on_c, 1, 58, 0
1, 26304, Note_on_c, 0, 65, 66
1, 26304, Note_on_c, 0, 62, 66
1, 26304, Note_on_c, 1, 58, 57
1, 26328, Note_on_c, 0, 65, 0
1, 26328, Note_on_c, 0, 62, 0
1, 26328, Note_on_c, 1, 58, 0
1, 26336, Note_on_c, 0, 62, 66
1, 26336, Note_on_c, 0, 65, 66
1, 26336, Note_on_c, 1, 58, 57
1, 26360, Note_on_c, 0, 62, 0
1, 26360, Note_on_c, 0, 65, 0
1, 26360, Note_on_c, 1, 58, 0
1, 26368, Note_on_c, 0, 65, 66
1, 26368, Note_on_c, 0, 62, 66
1, 26368, Note_on_c, 1, 58, 57
1, 26392, Note_on_c, 0, 65, 0
1, 26392, Note_on_c, 0, 62, 0
1, 26392, Note_on_c, 1, 58, 0
1, 26400, Note_on_c, 0, 65, 66
1, 26400, Note_on_c, 0, 62, 66
1, 26400, Note_on_c, 1, 58, 57
1, 26424, Note_on_c, 0, 65, 0
1, 26424, Note_on_c, 0, 62, 0
1, 26424, Note_on_c, 1, 58, 0
1, 26432, Note_on_c, 0, 65, 66
1, 26432, Note_on_c, 0, 62, 66
1, 26432, Note_on_c, 1, 58, 57
1, 26456, Note_on_c, 0, 65, 0
1, 26456, Note_on_c, 0, 62, 0
1, 26456, Note_on_c, 1, 58, 0
1, 26464, Note_on_c, 0, 65, 66
1, 26464, Note_on_c, 0, 62, 66
1, 26464, Note_on_c, 1, 58, 57
1, 26488, Note_on_c, 0, 65, 0
1, 26488, Note_on_c, 0, 62, 0
1, 26488, Note_on_c, 1, 58, 0
1, 26496, Note_on_c, 0, 67, 94
1, 26520, Note_on_c, 0, 67, 0
1, 26528, Note_on_c, 0, 65, 94
1, 26528, Note_on_c, 0, 68, 94
1, 26528, Note_on_c, 0, 62, 94
1, 26528, Note_on_c, 1, 59, 81
1, 26552, Note_on_c, 0, 65, 0
1, 26552, Note_on_c, 0, 68, 0
1, 26552, Note_on_c, 0, 62, 0
1, 26552, Note_on_c, 1, 59, 0
1, 26560, Note_on_c, 0, 62, 94
1, 26560, Note_on_c, 0, 65, 94
1, 26560, Note_on_c, 1, 59, 81
1, 26584, Note_on_c, 0, 62, 0
1, 26584, Note_on_c, 0, 65, 0
1, 26584, Note_on_c, 1, 59, 0
1, 26592, Note_on_c, 0, 62, 94
1, 26592, Note_on_c, 0, 65, 94
1, 26592, Note_on_c, 1, 59, 81
1, 26616, Note_on_c, 0, 62, 0
1, 26616, Note_on_c, 0, 65, 0
1, 26616, Note_on_c, 1, 59, 0
1, 26624, Note_on_c, 0, 62, 94
1, 26624, Note_on_c, 0, 65, 94
1, 26624, Note_on_c, 1, 59, 81
1, 26648, Note_on_c, 0, 62, 0
1, 26648, Note_on_c, 0, 65, 0
1, 26648, Note_on_c, 1, 59, 0
1, 26656, Note_on_c, 0, 65, 94
1, 26656, Note_on_c, 0, 62, 94
1, 26656, Note_on_c, 1, 59, 81
1, 26680, Note_on_c, 0, 65, 0
1, 26680, Note_on_c, 0, 62, 0
1, 26680, Note_on_c, 1, 59, 0
1, 26688, Note_on_c, 0, 65, 94
1, 26688, Note_on_c, 0, 62, 94
1, 26688, Note_on_c, 1, 59, 81
1, 26712, Note_on_c, 0, 65, 0
1, 26712, Note_on_c, 0, 62, 0
1, 26712, Note_on_c, 1, 59, 0
1, 26720, Note_on_c, 0, 65, 94
1, 26720, Note_on_c, 0, 62, 94
1, 26720, Note_on_c, 1, 59, 81
1, 26744, Note_on_c, 0, 65, 0
1, 26744, Note_on_c, 0, 62, 0
1, 26744, Note_on_c, 1, 59, 0
1, 26752, Note_on_c, 0, 65, 94
1, 26752, Note_on_c, 0, 62, 94
1, 26752, Note_on_c, 1, 59, 81
1, 26776, Note_on_c, 0, 65, 0
1, 26776, Note_on_c, 0, 62, 0
1, 26776, Note_on_c, 1, 59, 0
1, 26784, Note_on_c, 0, 68, 66
1, 26808, Note_on_c, 0, 68, 0
1, 26816, Note_on_c, 0, 69, 66
1, 26816, Note_on_c, 0, 60, 66
1, 26816, Note_on_c, 0, 65, 66
1, 26840, Note_on_c, 0, 69, 0
1, 26840, Note_on_c, 0, 60, 0
1, 26840, Note_on_c, 0, 65, 0
1, 26848, Note_on_c, 0, 65, 66
1, 26848, Note_on_c, 0, 60, 66
1, 26872, Note_on_c, 0, 65, 0
1, 26872, Note_on_c, 0, 60, 0
1, 26880, Note_on_c, 0, 69, 66
1, 26880, Note_on_c, 0, 60, 66
1, 26880, Note_on_c, 0, 65, 66
1, 26904, Note_on_c, 0, 69, 0
1, 26904, Note_on_c, 0, 60, 0
1, 26904, Note_on_c, 0, 65, 0
1, 26912, Note_on_c, 0, 69, 66
1, 26912, Note_on_c, 0, 60, 66
1, 26912, Note_on_c, 0, 65, 66
1, 26936, Note_on_c, 0, 69, 0
1, 26936, Note_on_c, 0, 60, 0
1, 26936, Note_on_c, 0, 65, 0
1, 26944, Note_on_c, 0, 60, 66
1, 26944, Note_on_c, 0, 69, 66
1, 26944, Note_on_c, 0, 65, 66
1, 26968, Note_on_c, 0, 60, 0
1, 26968, Note_on_c, 0, 69, 0
1, 26968, Note_on_c, 0, 65, 0
1, 26976, Note_on_c, 0, 83, 94
1, 27000, Note_on_c, 0, 83, 0
1, 27008, Note_on_c, 0, 84, 94
1, 27008, Note_on_c, 0, 69, 94
1, 27008, Note_on_c, 0, 65, 94
1, 27008, Note_on_c, 0, 60, 94
1, 27032, Note_on_c, 0, 84, 0
1, 27032, Note_on_c, 0, 69, 0
1, 27032, Note_on_c, 0, 65, 0
1, 27032, Note_on_c, 0, 60, 0
1, 27040, Note_on_c, 0, 69, 96
1, 27040, Note_on_c, 0, 65, 97
1, 27040, Note_on_c, 0, 60, 94
1, 27064, Note_on_c, 0, 69, 0
1, 27064, Note_on_c, 0, 65, 0
1, 27064, Note_on_c, 0, 60, 0
1, 27072, Note_on_c, 0, 67, 94
1, 27072, Note_on_c, 0, 65, 94
1, 27072, Note_on_c, 1, 59, 81
1, 27096, Note_on_c, 0, 67, 0
1, 27096, Note_on_c, 0, 65, 0
1, 27096, Note_on_c, 1, 59, 0
1, 27104, Note_on_c, 0, 65, 94
1, 27104, Note_on_c, 0, 67, 94
1, 27104, Note_on_c, 1, 59, 81
1, 27128, Note_on_c, 0, 65, 0
1, 27128, Note_on_c, 0, 67, 0
1, 27128, Note_on_c, 1, 59, 0
1, 27136, Note_on_c, 0, 65, 94
1, 27136, Note_on_c, 0, 67, 94
1, 27136, Note_on_c, 1, 59, 81
1, 27158, Note_on_c, 0, 77, 94
1, 27158, Note_on_c, 0, 79, 94
1, 27160, Note_on_c, 0, 65, 0
1, 27160, Note_on_c, 0, 67, 0
1, 27160, Note_on_c, 1, 59, 0
1, 27162, Note_on_c, 0, 77, 0
1, 27162, Note_on_c, 0, 79, 0
1, 27162, Note_on_c, 0, 81, 94
1, 27164, Note_on_c, 0, 81, 0
1, 27168, Note_on_c, 0, 65, 94
1, 27168, Note_on_c, 0, 60, 94
1, 27168, Note_on_c, 0, 67, 94
1, 27174, Note_on_c, 0, 79, 94
1, 27182, Note_on_c, 0, 79, 0
1, 27186, Note_on_c, 0, 81, 94
1, 27192, Note_on_c, 0, 65, 0
1, 27192, Note_on_c, 0, 60, 0
1, 27192, Note_on_c, 0, 67, 0
1, 27194, Note_on_c, 0, 81, 0
1, 27198, Note_on_c, 0, 79, 94
1, 27200, Note_on_c, 0, 60, 94
1, 27200, Note_on_c, 0, 65, 94
1, 27200, Note_on_c, 0, 67, 94
1, 27206, Note_on_c, 0, 79, 0
1, 27210, Note_on_c, 0, 81, 94
1, 27218, Note_on_c, 0, 81, 0
1, 27222, Note_on_c, 0, 79, 94
1, 27224, Note_on_c, 0, 60, 0
1, 27224, Note_on_c, 0, 65, 0
1, 27224, Note_on_c, 0, 67, 0
1, 27230, Note_on_c, 0, 79, 0
1, 27232, Note_on_c, 0, 65, 94
1, 27232, Note_on_c, 0, 60, 94
1, 27232, Note_on_c, 0, 67, 94
1, 27234, Note_on_c, 0, 81, 94
1, 27242, Note_on_c, 0, 81, 0
1, 27246, Note_on_c, 0, 79, 94
1, 27254, Note_on_c, 0, 79, 0
1, 27256, Note_on_c, 0, 65, 0
1, 27256, Note_on_c, 0, 60, 0
1, 27256, Note_on_c, 0, 67, 0
1, 27258, Note_on_c, 0, 81, 94
1, 27264, Note_on_c, 0, 70, 94
1, 27264, Note_on_c, 0, 60, 94
1, 27264, Note_on_c, 0, 64, 94
1, 27266, Note_on_c, 0, 81, 0
1, 27270, Note_on_c, 0, 79, 94
1, 27278, Note_on_c, 0, 79, 0
1, 27282, Note_on_c, 0, 81, 94
1, 27288, Note_on_c, 0, 70, 0
1, 27288, Note_on_c, 0, 60, 0
1, 27288, Note_on_c, 0, 64, 0
1, 27290, Note_on_c, 0, 81, 0
1, 27294, Note_on_c, 0, 79, 94
1, 27296, Note_on_c, 0, 70, 94
1, 27296, Note_on_c, 0, 60, 94
1, 27296, Note_on_c, 0, 64, 94
1, 27302, Note_on_c, 0, 79, 0
1, 27306, Note_on_c, 0, 77, 94
1, 27320, Note_on_c, 0, 70, 0
1, 27320, Note_on_c, 0, 60, 0
1, 27320, Note_on_c, 0, 64, 0
1, 27324, Note_on_c, 0, 77, 0
1, 27328, Note_on_c, 0, 60, 94
1, 27328, Note_on_c, 0, 70, 94
1, 27328, Note_on_c, 0, 64, 94
1, 27330, Note_on_c, 0, 79, 94
1, 27348, Note_on_c, 0, 79, 0
1, 27352, Note_on_c, 0, 60, 0
1, 27352, Note_on_c, 0, 70, 0
1, 27352, Note_on_c, 0, 64, 0
1, 27360, Note_on_c, 0, 69, 96
1, 27360, Note_on_c, 0, 77, 94
1, 27360, Note_on_c, 0, 65, 94
1, 27384, Note_on_c, 0, 69, 0
1, 27384, Note_on_c, 0, 65, 0
1, 27392, Note_on_c, 0, 60, 94
1, 27416, Note_on_c, 0, 60, 0
1, 27424, Note_on_c, 1, 57, 81
1, 27436, Note_on_c, 0, 77, 0
1, 27448, Note_on_c, 1, 57, 0
1, 27456, Note_on_c, 1, 53, 57
1, 27456, Note_on_c, 1, 41, 57
1, 27488, Note_on_c, 0, 64, 66
1, 27512, Note_on_c, 0, 64, 0
1, 27520, Note_on_c, 0, 65, 66
1, 27532, Note_on_c, 1, 53, 0
1, 27532, Note_on_c, 1, 41, 0
1, 27544, Note_on_c, 0, 65, 0
1, 27552, Note_on_c, 0, 67, 66
1, 27576, Note_on_c, 0, 67, 0
1, 27584, Note_on_c, 0, 65, 66
1, 27608, Note_on_c, 0, 65, 0
1, 27616, Note_on_c, 0, 70, 66
1, 27616, Note_on_c, 0, 67, 66
1, 27640, Note_on_c, 0, 70, 0
1, 27640, Note_on_c, 0, 67, 0
1, 27648, Note_on_c, 0, 69, 94
1, 27648, Note_on_c, 0, 65, 96
1, 27648, Note_on_c, 1, 48, 80
1, 27648, Note_on_c, 1, 36, 81
1, 27672, Note_on_c, 0, 69, 0
1, 27672, Note_on_c, 0, 65, 0
1, 27680, Note_on_c, 0, 67, 95
1, 27680, Note_on_c, 0, 64, 94
1, 27704, Note_on_c, 0, 67, 0
1, 27704, Note_on_c, 0, 64, 0
1, 27712, Note_on_c, 0, 63, 93
1, 27712, Note_on_c, 0, 66, 95
1, 27724, Note_on_c, 1, 48, 0
1, 27724, Note_on_c, 1, 36, 0
1, 27736, Note_on_c, 0, 63, 0
1, 27736, Note_on_c, 0, 66, 0
1, 27744, Note_on_c, 0, 64, 66
1, 27744, Note_on_c, 0, 67, 66
1, 27768, Note_on_c, 0, 64, 0
1, 27768, Note_on_c, 0, 67, 0
1, 27776, Note_on_c, 0, 66, 66
1, 27800, Note_on_c, 0, 66, 0
1, 27808, Note_on_c, 0, 67, 66
1, 27832, Note_on_c, 0, 67, 0
1, 27840, Note_on_c, 0, 69, 66
1, 27864, Note_on_c, 0, 69, 0
1, 27872, Note_on_c, 0, 67, 66
1, 27896, Note_on_c, 0, 67, 0
1, 27904, Note_on_c, 0, 72, 66
1, 27904, Note_on_c, 0, 69, 66
1, 27928, Note_on_c, 0, 72, 0
1, 27928, Note_on_c, 0, 69, 0
1, 27936, Note_on_c, 0, 70, 94
1, 27936, Note_on_c, 0, 67, 94
1, 27936, Note_on_c, 1, 53, 81
1, 27936, Note_on_c, 1, 41, 81
1, 27960, Note_on_c, 0, 70, 0
1, 27960, Note_on_c, 0, 67, 0
1, 27968, Note_on_c, 0, 69, 94
1, 27968, Note_on_c, 0, 65, 94
1, 27992, Note_on_c, 0, 69, 0
1, 27992, Note_on_c, 0, 65, 0
1, 28000, Note_on_c, 0, 68, 94
1, 28000, Note_on_c, 0, 64, 94
1, 28012, Note_on_c, 1, 53, 0
1, 28012, Note_on_c, 1, 41, 0
1, 28024, Note_on_c, 0, 68, 0
1, 28024, Note_on_c, 0, 64, 0
1, 28032, Note_on_c, 0, 69, 94
1, 28032, Note_on_c, 0, 65, 94
1, 28064, Note_on_c, 0, 63, 94
1, 28064, Note_on_c, 1, 51, 81
1, 28088, Note_on_c, 0, 63, 0
1, 28088, Note_on_c, 1, 51, 0
1, 28096, Note_on_c, 0, 62, 94
1, 28096, Note_on_c, 1, 50, 81
1, 28108, Note_on_c, 0, 69, 0
1, 28108, Note_on_c, 0, 65, 0
1, 28120, Note_on_c, 0, 62, 0
1, 28120, Note_on_c, 1, 50, 0
1, 28128, Note_on_c, 0, 84, 94
1, 28128, Note_on_c, 0, 75, 94
1, 28128, Note_on_c, 0, 60, 94
1, 28128, Note_on_c, 1, 48, 81
1, 28152, Note_on_c, 0, 60, 0
1, 28152, Note_on_c, 1, 48, 0
1, 28160, Note_on_c, 1, 58, 81
1, 28160, Note_on_c, 1, 46, 81
1, 28184, Note_on_c, 1, 58, 0
1, 28184, Note_on_c, 1, 46, 0
1, 28192, Note_on_c, 1, 57, 81
1, 28192, Note_on_c, 1, 45, 81
1, 28216, Note_on_c, 1, 57, 0
1, 28216, Note_on_c, 1, 45, 0
1, 28224, Note_on_c, 1, 46, 83
1, 28224, Note_on_c, 1, 58, 81
1, 28256, Note_on_c, 0, 74, 91
1, 28256, Note_on_c, 0, 82, 96
1, 28280, Note_on_c, 0, 74, 0
1, 28280, Note_on_c, 0, 82, 0
1, 28288, Note_on_c, 0, 72, 96
1, 28288, Note_on_c, 0, 81, 93
1, 28300, Note_on_c, 1, 46, 0
1, 28300, Note_on_c, 1, 58, 0
1, 28320, Note_on_c, 0, 60, 66
1, 28320, Note_on_c, 1, 48, 57
1, 28344, Note_on_c, 0, 75, 0
1, 28344, Note_on_c, 0, 84, 0
1, 28344, Note_on_c, 0, 72, 0
1, 28344, Note_on_c, 0, 81, 0
1, 28352, Note_on_c, 0, 70, 66
1, 28352, Note_on_c, 0, 79, 66
1, 28376, Note_on_c, 0, 70, 0
1, 28376, Note_on_c, 0, 79, 0
1, 28384, Note_on_c, 0, 77, 66
1, 28384, Note_on_c, 0, 69, 66
1, 28396, Note_on_c, 0, 60, 0
1, 28396, Note_on_c, 1, 48, 0
1, 28416, Note_on_c, 1, 48, 57
1, 28416, Note_on_c, 1, 36, 57
1, 28440, Note_on_c, 0, 77, 0
1, 28440, Note_on_c, 0, 69, 0
1, 28448, Note_on_c, 0, 70, 66
1, 28448, Note_on_c, 0, 79, 66
1, 28472, Note_on_c, 0, 70, 0
1, 28472, Note_on_c, 0, 79, 0
1, 28480, Note_on_c, 0, 67, 66
1, 28480, Note_on_c, 0, 76, 66
1, 28492, Note_on_c, 1, 48, 0
1, 28492, Note_on_c, 1, 36, 0
1, 28504, Note_on_c, 0, 67, 0
1, 28504, Note_on_c, 0, 76, 0
1, 28512, Note_on_c, 0, 77, 94
1, 28512, Note_on_c, 1, 53, 81
1, 28512, Note_on_c, 1, 41, 81
1, 28536, Note_on_c, 0, 77, 0
1, 28544, Note_on_c, 0, 81, 94
1, 28568, Note_on_c, 0, 81, 0
1, 28576, Note_on_c, 0, 84, 94
1, 28588, Note_on_c, 1, 53, 0
1, 28588, Note_on_c, 1, 41, 0
1, 28600, Note_on_c, 0, 84, 0
1, 28608, Note_on_c, 0, 84, 94
1, 28616, Note_on_c, 0, 84, 0
1, 28620, Note_on_c, 0, 86, 94
1, 28628, Note_on_c, 0, 86, 0
1, 28632, Note_on_c, 0, 84, 94
1, 28640, Note_on_c, 0, 84, 0
1, 28640, Note_on_c, 0, 65, 94
1, 28644, Note_on_c, 0, 86, 94
1, 28652, Note_on_c, 0, 86, 0
1, 28656, Note_on_c, 0, 84, 94
1, 28664, Note_on_c, 0, 65, 0
1, 28664, Note_on_c, 0, 84, 0
1, 28668, Note_on_c, 0, 86, 94
1, 28672, Note_on_c, 0, 69, 94
1, 28676, Note_on_c, 0, 86, 0
1, 28680, Note_on_c, 0, 83, 94
1, 28688, Note_on_c, 0, 83, 0
1, 28692, Note_on_c, 0, 84, 94
1, 28696, Note_on_c, 0, 69, 0
1, 28700, Note_on_c, 0, 84, 0
1, 28704, Note_on_c, 0, 60, 94
1, 28704, Note_on_c, 0, 70, 94
1, 28728, Note_on_c, 0, 60, 0
1, 28728, Note_on_c, 0, 70, 0
1, 28736, Note_on_c, 0, 82, 94
1, 28736, Note_on_c, 0, 67, 94
1, 28760, Note_on_c, 0, 82, 0
1, 28760, Note_on_c, 0, 67, 0
1, 28768, Note_on_c, 0, 79, 94
1, 28768, Note_on_c, 0, 64, 94
1, 28792, Note_on_c, 0, 79, 0
1, 28792, Note_on_c, 0, 64, 0
1, 28800, Note_on_c, 0, 77, 94
1, 28800, Note_on_c, 0, 65, 94
1, 28800, Note_on_c, 1, 53, 81
1, 28824, Note_on_c, 0, 77, 0
1, 28832, Note_on_c, 0, 81, 94
1, 28856, Note_on_c, 0, 81, 0
1, 28864, Note_on_c, 0, 72, 94
1, 28876, Note_on_c, 0, 65, 0
1, 28876, Note_on_c, 1, 53, 0
1, 28888, Note_on_c, 0, 72, 0
1, 28896, Note_on_c, 0, 72, 94
1, 28904, Note_on_c, 0, 72, 0
1, 28908, Note_on_c, 0, 74, 94
1, 28916, Note_on_c, 0, 74, 0
1, 28920, Note_on_c, 0, 72, 94
1, 28928, Note_on_c, 0, 72, 0
1, 28928, Note_on_c, 1, 57, 81
1, 28932, Note_on_c, 0, 74, 94
1, 28940, Note_on_c, 0, 74, 0
1, 28944, Note_on_c, 0, 72, 94
1, 28952, Note_on_c, 0, 72, 0
1, 28952, Note_on_c, 1, 57, 0
1, 28956, Note_on_c, 0, 74, 94
1, 28960, Note_on_c, 1, 53, 81
1, 28964, Note_on_c, 0, 74, 0
1, 28968, Note_on_c, 0, 71, 94
1, 28976, Note_on_c, 0, 71, 0
1, 28980, Note_on_c, 0, 72, 94
1, 28984, Note_on_c, 1, 53, 0
1, 28988, Note_on_c, 0, 72, 0
1, 28992, Note_on_c, 1, 36, 59
1, 28992, Note_on_c, 1, 48, 62
1, 29024, Note_on_c, 0, 70, 63
1, 29048, Note_on_c, 0, 70, 0
1, 29056, Note_on_c, 0, 67, 66
1, 29056, Note_on_c, 0, 64, 64
1, 29056, Note_on_c, 1, 58, 57
1, 29068, Note_on_c, 1, 36, 0
1, 29068, Note_on_c, 1, 48, 0
1, 29080, Note_on_c, 0, 67, 0
1, 29080, Note_on_c, 0, 64, 0
1, 29080, Note_on_c, 1, 58, 0
1, 29088, Note_on_c, 0, 64, 66
1, 29088, Note_on_c, 0, 67, 66
1, 29088, Note_on_c, 1, 41, 57
1, 29088, Note_on_c, 1, 58, 57
1, 29240, Note_on_c, 0, 64, 0
1, 29240, Note_on_c, 0, 67, 0
1, 29240, Note_on_c, 1, 58, 0
1, 29280, Note_on_c, 0, 60, 66
1, 29280, Note_on_c, 0, 65, 66
1, 29280, Note_on_c, 1, 57, 57
1, 29318, Note_on_c, 0, 60, 0
1, 29318, Note_on_c, 0, 65, 0
1, 29318, Note_on_c, 1, 41, 0
1, 29318, Note_on_c, 1, 57, 0
1, 29328, End_track
0, 0, End_of_file